0, 0, Header, 1, 6, 120
1, 0, Start_track
1, 0, Time_signature, 4, 2, 24, 8
1, 0, Key_signature, 1, "major"
1, 0, Tempo, 487805
1, 0, End_track
2, 0, Start_track
2, 0, MIDI_port, 0
2, 0, Title_t, "Early Morning Attitude"
2, 474, Control_c, 9, 121, 0
2, 476, Control_c, 9, 91, 50
2, 477, Control_c, 9, 7, 100
2, 478, Control_c, 9, 10, 64
2, 479, Program_c, 9, 0
2, 480, Note_on_c, 9, 56, 100
2, 510, Note_on_c, 9, 56, 0
2, 570, Note_on_c, 9, 56, 100
2, 600, Note_on_c, 9, 56, 0
2, 600, Note_on_c, 9, 37, 127
2, 630, Note_on_c, 9, 37, 0
2, 720, Note_on_c, 9, 56, 100
2, 750, Note_on_c, 9, 56, 0
2, 810, Note_on_c, 9, 56, 100
2, 840, Note_on_c, 9, 56, 0
2, 840, Note_on_c, 9, 37, 127
2, 870, Note_on_c, 9, 37, 0
2, 990, Note_on_c, 9, 56, 100
2, 1020, Note_on_c, 9, 56, 0
2, 1050, Note_on_c, 9, 56, 100
2, 1080, Note_on_c, 9, 56, 0
2, 1080, Note_on_c, 9, 37, 127
2, 1110, Note_on_c, 9, 37, 0
2, 1200, Note_on_c, 9, 56, 100
2, 1230, Note_on_c, 9, 56, 0
2, 1290, Note_on_c, 9, 56, 100
2, 1320, Note_on_c, 9, 56, 0
2, 1320, Note_on_c, 9, 37, 127
2, 1350, Note_on_c, 9, 37, 0
2, 1350, Note_on_c, 9, 56, 100
2, 1380, Note_on_c, 9, 56, 0
2, 1440, Note_on_c, 9, 56, 100
2, 1470, Note_on_c, 9, 56, 0
2, 1530, Note_on_c, 9, 56, 100
2, 1560, Note_on_c, 9, 56, 0
2, 1560, Note_on_c, 9, 42, 80
2, 1620, Note_on_c, 9, 35, 127
2, 1650, Note_on_c, 9, 35, 0
2, 1650, Note_on_c, 9, 35, 127
2, 1680, Note_on_c, 9, 35, 0
2, 1680, Note_on_c, 9, 42, 0
2, 1680, Note_on_c, 9, 56, 100
2, 1680, Note_on_c, 9, 42, 80
2, 1710, Note_on_c, 9, 56, 0
2, 1740, Note_on_c, 9, 56, 100
2, 1770, Note_on_c, 9, 56, 0
2, 1800, Note_on_c, 9, 42, 0
2, 1800, Note_on_c, 9, 37, 127
2, 1800, Note_on_c, 9, 42, 80
2, 1830, Note_on_c, 9, 37, 0
2, 1830, Note_on_c, 9, 56, 100
2, 1860, Note_on_c, 9, 56, 0
2, 1890, Note_on_c, 9, 56, 100
2, 1920, Note_on_c, 9, 56, 0
2, 1920, Note_on_c, 9, 42, 0
2, 1920, Note_on_c, 9, 42, 80
2, 2010, Note_on_c, 9, 35, 127
2, 2040, Note_on_c, 9, 35, 0
2, 2040, Note_on_c, 9, 42, 0
2, 2040, Note_on_c, 9, 47, 127
2, 2040, Note_on_c, 9, 41, 127
2, 2040, Note_on_c, 9, 42, 80
2, 2070, Note_on_c, 9, 41, 0
2, 2070, Note_on_c, 9, 47, 0
2, 2130, Note_on_c, 9, 47, 127
2, 2130, Note_on_c, 9, 41, 127
2, 2160, Note_on_c, 9, 41, 0
2, 2160, Note_on_c, 9, 47, 0
2, 2160, Note_on_c, 9, 42, 0
2, 2160, Note_on_c, 9, 42, 80
2, 2250, Note_on_c, 9, 35, 127
2, 2280, Note_on_c, 9, 35, 0
2, 2280, Note_on_c, 9, 42, 0
2, 2280, Note_on_c, 9, 55, 127
2, 2280, Note_on_c, 9, 42, 80
2, 2310, Note_on_c, 9, 55, 0
2, 2340, Note_on_c, 9, 37, 127
2, 2370, Note_on_c, 9, 37, 0
2, 2400, Note_on_c, 9, 42, 0
2, 2400, Note_on_c, 9, 56, 100
2, 2400, Note_on_c, 9, 42, 85
2, 2430, Note_on_c, 9, 56, 0
2, 2490, Note_on_c, 9, 56, 100
2, 2520, Note_on_c, 9, 56, 0
2, 2520, Note_on_c, 9, 42, 0
2, 2520, Note_on_c, 9, 37, 127
2, 2520, Note_on_c, 9, 42, 85
2, 2550, Note_on_c, 9, 37, 0
2, 2640, Note_on_c, 9, 42, 0
2, 2640, Note_on_c, 9, 56, 100
2, 2640, Note_on_c, 9, 42, 85
2, 2670, Note_on_c, 9, 56, 0
2, 2760, Note_on_c, 9, 42, 0
2, 2760, Note_on_c, 9, 37, 127
2, 2760, Note_on_c, 9, 42, 85
2, 2790, Note_on_c, 9, 37, 0
2, 2790, Note_on_c, 9, 56, 100
2, 2820, Note_on_c, 9, 56, 0
2, 2850, Note_on_c, 9, 37, 127
2, 2880, Note_on_c, 9, 37, 0
2, 2880, Note_on_c, 9, 42, 0
2, 2880, Note_on_c, 9, 42, 85
2, 2970, Note_on_c, 9, 56, 100
2, 3000, Note_on_c, 9, 56, 0
2, 3000, Note_on_c, 9, 42, 0
2, 3000, Note_on_c, 9, 37, 127
2, 3000, Note_on_c, 9, 56, 100
2, 3000, Note_on_c, 9, 42, 85
2, 3030, Note_on_c, 9, 56, 0
2, 3030, Note_on_c, 9, 37, 0
2, 3120, Note_on_c, 9, 42, 0
2, 3120, Note_on_c, 9, 56, 100
2, 3120, Note_on_c, 9, 42, 85
2, 3150, Note_on_c, 9, 56, 0
2, 3240, Note_on_c, 9, 42, 0
2, 3240, Note_on_c, 9, 37, 127
2, 3240, Note_on_c, 9, 42, 85
2, 3270, Note_on_c, 9, 37, 0
2, 3270, Note_on_c, 9, 56, 100
2, 3300, Note_on_c, 9, 56, 0
2, 3330, Note_on_c, 9, 37, 127
2, 3360, Note_on_c, 9, 37, 0
2, 3360, Note_on_c, 9, 42, 0
2, 3360, Note_on_c, 9, 42, 85
2, 3450, Note_on_c, 9, 56, 100
2, 3480, Note_on_c, 9, 56, 0
2, 3480, Note_on_c, 9, 42, 0
2, 3480, Note_on_c, 9, 37, 127
2, 3480, Note_on_c, 9, 56, 100
2, 3480, Note_on_c, 9, 42, 85
2, 3510, Note_on_c, 9, 56, 0
2, 3510, Note_on_c, 9, 37, 0
2, 3540, Note_on_c, 9, 35, 127
2, 3570, Note_on_c, 9, 35, 0
2, 3600, Note_on_c, 9, 42, 0
2, 3600, Note_on_c, 9, 56, 100
2, 3600, Note_on_c, 9, 42, 85
2, 3630, Note_on_c, 9, 56, 0
2, 3720, Note_on_c, 9, 42, 0
2, 3720, Note_on_c, 9, 37, 127
2, 3720, Note_on_c, 9, 42, 85
2, 3750, Note_on_c, 9, 37, 0
2, 3750, Note_on_c, 9, 56, 100
2, 3780, Note_on_c, 9, 56, 0
2, 3810, Note_on_c, 9, 56, 100
2, 3810, Note_on_c, 9, 37, 127
2, 3840, Note_on_c, 9, 37, 0
2, 3840, Note_on_c, 9, 56, 0
2, 3840, Note_on_c, 9, 42, 0
2, 3840, Note_on_c, 9, 42, 85
2, 3930, Note_on_c, 9, 35, 127
2, 3960, Note_on_c, 9, 35, 0
2, 3960, Note_on_c, 9, 42, 0
2, 3960, Note_on_c, 9, 56, 100
2, 3960, Note_on_c, 9, 37, 127
2, 3960, Note_on_c, 9, 42, 85
2, 3990, Note_on_c, 9, 37, 0
2, 3990, Note_on_c, 9, 56, 0
2, 4020, Note_on_c, 9, 35, 127
2, 4050, Note_on_c, 9, 35, 0
2, 4050, Note_on_c, 9, 37, 127
2, 4080, Note_on_c, 9, 37, 0
2, 4080, Note_on_c, 9, 42, 0
2, 4080, Note_on_c, 9, 56, 100
2, 4080, Note_on_c, 9, 42, 85
2, 4110, Note_on_c, 9, 56, 0
2, 4140, Note_on_c, 9, 56, 100
2, 4170, Note_on_c, 9, 56, 0
2, 4200, Note_on_c, 9, 42, 0
2, 4200, Note_on_c, 9, 56, 100
2, 4200, Note_on_c, 9, 37, 127
2, 4200, Note_on_c, 9, 42, 85
2, 4230, Note_on_c, 9, 37, 0
2, 4230, Note_on_c, 9, 56, 0
2, 4230, Note_on_c, 9, 56, 100
2, 4260, Note_on_c, 9, 56, 0
2, 4290, Note_on_c, 9, 56, 100
2, 4290, Note_on_c, 9, 37, 127
2, 4320, Note_on_c, 9, 37, 0
2, 4320, Note_on_c, 9, 56, 0
2, 4320, Note_on_c, 9, 42, 0
2, 4320, Note_on_c, 9, 42, 85
2, 4410, Note_on_c, 9, 56, 100
2, 4440, Note_on_c, 9, 56, 0
2, 4440, Note_on_c, 9, 42, 0
2, 4440, Note_on_c, 9, 37, 127
2, 4440, Note_on_c, 9, 56, 100
2, 4440, Note_on_c, 9, 42, 85
2, 4470, Note_on_c, 9, 56, 0
2, 4470, Note_on_c, 9, 37, 0
2, 4500, Note_on_c, 9, 35, 127
2, 4530, Note_on_c, 9, 35, 0
2, 4560, Note_on_c, 9, 42, 0
2, 4560, Note_on_c, 9, 56, 100
2, 4560, Note_on_c, 9, 42, 85
2, 4590, Note_on_c, 9, 56, 0
2, 4680, Note_on_c, 9, 42, 0
2, 4680, Note_on_c, 9, 56, 100
2, 4680, Note_on_c, 9, 37, 127
2, 4680, Note_on_c, 9, 42, 85
2, 4710, Note_on_c, 9, 37, 0
2, 4710, Note_on_c, 9, 56, 0
2, 4710, Note_on_c, 9, 56, 100
2, 4740, Note_on_c, 9, 56, 0
2, 4770, Note_on_c, 9, 56, 100
2, 4770, Note_on_c, 9, 37, 127
2, 4800, Note_on_c, 9, 37, 0
2, 4800, Note_on_c, 9, 56, 0
2, 4800, Note_on_c, 9, 42, 0
2, 4800, Note_on_c, 9, 42, 85
2, 4890, Note_on_c, 9, 35, 127
2, 4920, Note_on_c, 9, 35, 0
2, 4920, Note_on_c, 9, 42, 0
2, 4920, Note_on_c, 9, 56, 100
2, 4920, Note_on_c, 9, 37, 127
2, 4920, Note_on_c, 9, 42, 85
2, 4950, Note_on_c, 9, 37, 0
2, 4950, Note_on_c, 9, 56, 0
2, 4980, Note_on_c, 9, 35, 127
2, 5010, Note_on_c, 9, 35, 0
2, 5010, Note_on_c, 9, 37, 127
2, 5040, Note_on_c, 9, 37, 0
2, 5040, Note_on_c, 9, 42, 0
2, 5040, Note_on_c, 9, 56, 100
2, 5040, Note_on_c, 9, 42, 85
2, 5070, Note_on_c, 9, 56, 0
2, 5100, Note_on_c, 9, 56, 100
2, 5130, Note_on_c, 9, 56, 0
2, 5160, Note_on_c, 9, 42, 0
2, 5160, Note_on_c, 9, 56, 100
2, 5160, Note_on_c, 9, 37, 127
2, 5160, Note_on_c, 9, 42, 85
2, 5190, Note_on_c, 9, 37, 0
2, 5190, Note_on_c, 9, 56, 0
2, 5190, Note_on_c, 9, 56, 100
2, 5220, Note_on_c, 9, 56, 0
2, 5250, Note_on_c, 9, 56, 100
2, 5250, Note_on_c, 9, 37, 127
2, 5280, Note_on_c, 9, 37, 0
2, 5280, Note_on_c, 9, 56, 0
2, 5280, Note_on_c, 9, 42, 0
2, 5280, Note_on_c, 9, 42, 85
2, 5370, Note_on_c, 9, 56, 100
2, 5400, Note_on_c, 9, 56, 0
2, 5400, Note_on_c, 9, 42, 0
2, 5400, Note_on_c, 9, 37, 127
2, 5400, Note_on_c, 9, 56, 100
2, 5400, Note_on_c, 9, 42, 85
2, 5430, Note_on_c, 9, 56, 0
2, 5430, Note_on_c, 9, 37, 0
2, 5460, Note_on_c, 9, 35, 127
2, 5490, Note_on_c, 9, 35, 0
2, 5520, Note_on_c, 9, 42, 0
2, 5520, Note_on_c, 9, 56, 100
2, 5520, Note_on_c, 9, 42, 85
2, 5550, Note_on_c, 9, 56, 0
2, 5640, Note_on_c, 9, 42, 0
2, 5640, Note_on_c, 9, 37, 127
2, 5640, Note_on_c, 9, 42, 85
2, 5670, Note_on_c, 9, 37, 0
2, 5670, Note_on_c, 9, 56, 100
2, 5700, Note_on_c, 9, 56, 0
2, 5730, Note_on_c, 9, 56, 100
2, 5730, Note_on_c, 9, 37, 127
2, 5760, Note_on_c, 9, 37, 0
2, 5760, Note_on_c, 9, 56, 0
2, 5760, Note_on_c, 9, 42, 0
2, 5760, Note_on_c, 9, 42, 85
2, 5850, Note_on_c, 9, 35, 127
2, 5880, Note_on_c, 9, 35, 0
2, 5880, Note_on_c, 9, 42, 0
2, 5880, Note_on_c, 9, 56, 100
2, 5880, Note_on_c, 9, 37, 127
2, 5880, Note_on_c, 9, 42, 85
2, 5910, Note_on_c, 9, 37, 0
2, 5910, Note_on_c, 9, 56, 0
2, 5940, Note_on_c, 9, 35, 127
2, 5970, Note_on_c, 9, 35, 0
2, 5970, Note_on_c, 9, 37, 127
2, 6000, Note_on_c, 9, 37, 0
2, 6000, Note_on_c, 9, 42, 0
2, 6000, Note_on_c, 9, 56, 100
2, 6000, Note_on_c, 9, 42, 85
2, 6030, Note_on_c, 9, 56, 0
2, 6060, Note_on_c, 9, 56, 100
2, 6090, Note_on_c, 9, 56, 0
2, 6120, Note_on_c, 9, 42, 0
2, 6120, Note_on_c, 9, 56, 100
2, 6120, Note_on_c, 9, 37, 127
2, 6120, Note_on_c, 9, 42, 85
2, 6150, Note_on_c, 9, 37, 0
2, 6150, Note_on_c, 9, 56, 0
2, 6150, Note_on_c, 9, 56, 100
2, 6180, Note_on_c, 9, 56, 0
2, 6210, Note_on_c, 9, 56, 100
2, 6210, Note_on_c, 9, 37, 127
2, 6240, Note_on_c, 9, 37, 0
2, 6240, Note_on_c, 9, 56, 0
2, 6240, Note_on_c, 9, 42, 0
2, 6240, Note_on_c, 9, 42, 90
2, 6360, Note_on_c, 9, 42, 0
2, 6360, Note_on_c, 9, 37, 127
2, 6360, Note_on_c, 9, 56, 100
2, 6360, Note_on_c, 9, 42, 90
2, 6390, Note_on_c, 9, 56, 0
2, 6390, Note_on_c, 9, 37, 0
2, 6420, Note_on_c, 9, 56, 100
2, 6450, Note_on_c, 9, 56, 0
2, 6480, Note_on_c, 9, 42, 0
2, 6480, Note_on_c, 9, 56, 100
2, 6480, Note_on_c, 9, 42, 90
2, 6510, Note_on_c, 9, 56, 0
2, 6570, Note_on_c, 9, 56, 100
2, 6600, Note_on_c, 9, 56, 0
2, 6600, Note_on_c, 9, 42, 0
2, 6600, Note_on_c, 9, 37, 127
2, 6600, Note_on_c, 9, 42, 90
2, 6630, Note_on_c, 9, 37, 0
2, 6714, Control_c, 9, 121, 0
2, 6716, Control_c, 9, 91, 65
2, 6717, Control_c, 9, 7, 100
2, 6718, Control_c, 9, 10, 64
2, 6719, Program_c, 9, 0
2, 6720, Note_on_c, 9, 42, 0
2, 6720, Note_on_c, 9, 56, 100
2, 6720, Note_on_c, 9, 42, 90
2, 6750, Note_on_c, 9, 56, 0
2, 6810, Note_on_c, 9, 56, 100
2, 6840, Note_on_c, 9, 56, 0
2, 6840, Note_on_c, 9, 42, 0
2, 6840, Note_on_c, 9, 37, 127
2, 6840, Note_on_c, 9, 42, 90
2, 6870, Note_on_c, 9, 37, 0
2, 6900, Note_on_c, 9, 35, 127
2, 6930, Note_on_c, 9, 35, 0
2, 6960, Note_on_c, 9, 42, 0
2, 6960, Note_on_c, 9, 35, 127
2, 6960, Note_on_c, 9, 56, 100
2, 6960, Note_on_c, 9, 42, 90
2, 6990, Note_on_c, 9, 56, 0
2, 6990, Note_on_c, 9, 35, 0
2, 7050, Note_on_c, 9, 56, 100
2, 7080, Note_on_c, 9, 56, 0
2, 7080, Note_on_c, 9, 42, 0
2, 7080, Note_on_c, 9, 37, 127
2, 7080, Note_on_c, 9, 42, 90
2, 7110, Note_on_c, 9, 37, 0
2, 7110, Note_on_c, 9, 56, 100
2, 7140, Note_on_c, 9, 56, 0
2, 7194, Control_c, 9, 121, 0
2, 7196, Control_c, 9, 91, 65
2, 7197, Control_c, 9, 7, 100
2, 7198, Control_c, 9, 10, 64
2, 7199, Program_c, 9, 0
2, 7200, Note_on_c, 9, 42, 0
2, 7200, Note_on_c, 9, 56, 100
2, 7200, Note_on_c, 9, 42, 90
2, 7230, Note_on_c, 9, 56, 0
2, 7290, Note_on_c, 9, 56, 100
2, 7320, Note_on_c, 9, 56, 0
2, 7320, Note_on_c, 9, 42, 0
2, 7320, Note_on_c, 9, 37, 127
2, 7320, Note_on_c, 9, 42, 90
2, 7350, Note_on_c, 9, 37, 0
2, 7380, Note_on_c, 9, 35, 127
2, 7410, Note_on_c, 9, 35, 0
2, 7440, Note_on_c, 9, 42, 0
2, 7440, Note_on_c, 9, 35, 127
2, 7440, Note_on_c, 9, 56, 100
2, 7440, Note_on_c, 9, 42, 90
2, 7470, Note_on_c, 9, 56, 0
2, 7470, Note_on_c, 9, 35, 0
2, 7530, Note_on_c, 9, 56, 100
2, 7560, Note_on_c, 9, 56, 0
2, 7560, Note_on_c, 9, 42, 0
2, 7560, Note_on_c, 9, 37, 127
2, 7560, Note_on_c, 9, 42, 90
2, 7590, Note_on_c, 9, 37, 0
2, 7674, Control_c, 9, 121, 0
2, 7676, Control_c, 9, 91, 65
2, 7677, Control_c, 9, 7, 100
2, 7678, Control_c, 9, 10, 64
2, 7679, Program_c, 9, 0
2, 7680, Note_on_c, 9, 42, 0
2, 7680, Note_on_c, 9, 56, 100
2, 7680, Note_on_c, 9, 42, 90
2, 7710, Note_on_c, 9, 56, 0
2, 7770, Note_on_c, 9, 56, 100
2, 7800, Note_on_c, 9, 56, 0
2, 7800, Note_on_c, 9, 42, 0
2, 7800, Note_on_c, 9, 37, 127
2, 7800, Note_on_c, 9, 42, 90
2, 7830, Note_on_c, 9, 37, 0
2, 7860, Note_on_c, 9, 35, 127
2, 7890, Note_on_c, 9, 35, 0
2, 7920, Note_on_c, 9, 42, 0
2, 7920, Note_on_c, 9, 35, 127
2, 7920, Note_on_c, 9, 56, 100
2, 7920, Note_on_c, 9, 42, 90
2, 7950, Note_on_c, 9, 56, 0
2, 7950, Note_on_c, 9, 35, 0
2, 8010, Note_on_c, 9, 35, 127
2, 8010, Note_on_c, 9, 56, 100
2, 8040, Note_on_c, 9, 56, 0
2, 8040, Note_on_c, 9, 35, 0
2, 8040, Note_on_c, 9, 42, 0
2, 8040, Note_on_c, 9, 40, 127
2, 8040, Note_on_c, 9, 42, 90
2, 8070, Note_on_c, 9, 40, 0
2, 8070, Note_on_c, 9, 56, 100
2, 8100, Note_on_c, 9, 56, 0
2, 8130, Note_on_c, 9, 40, 127
2, 8154, Control_c, 9, 121, 0
2, 8156, Control_c, 9, 91, 65
2, 8157, Control_c, 9, 7, 100
2, 8158, Control_c, 9, 10, 64
2, 8159, Program_c, 9, 0
2, 8160, Note_on_c, 9, 40, 0
2, 8160, Note_on_c, 9, 42, 0
2, 8160, Note_on_c, 9, 55, 110
2, 8160, Note_on_c, 9, 42, 90
2, 8190, Note_on_c, 9, 55, 0
2, 8250, Note_on_c, 9, 35, 110
2, 8280, Note_on_c, 9, 35, 0
2, 8280, Note_on_c, 9, 42, 0
2, 8280, Note_on_c, 9, 59, 110
2, 8280, Note_on_c, 9, 35, 127
2, 8280, Note_on_c, 9, 42, 90
2, 8310, Note_on_c, 9, 35, 0
2, 8310, Note_on_c, 9, 59, 0
2, 8340, Note_on_c, 9, 35, 127
2, 8370, Note_on_c, 9, 35, 0
2, 8400, Note_on_c, 9, 42, 0
2, 8400, Note_on_c, 9, 59, 110
2, 8400, Note_on_c, 9, 42, 90
2, 8430, Note_on_c, 9, 59, 0
2, 8490, Note_on_c, 9, 59, 110
2, 8520, Note_on_c, 9, 59, 0
2, 8520, Note_on_c, 9, 42, 0
2, 8520, Note_on_c, 9, 37, 127
2, 8520, Note_on_c, 9, 42, 90
2, 8550, Note_on_c, 9, 37, 0
2, 8550, Note_on_c, 9, 59, 110
2, 8580, Note_on_c, 9, 59, 0
2, 8634, Control_c, 9, 121, 0
2, 8636, Control_c, 9, 91, 65
2, 8637, Control_c, 9, 7, 100
2, 8638, Control_c, 9, 10, 64
2, 8639, Program_c, 9, 0
2, 8640, Note_on_c, 9, 42, 0
2, 8640, Note_on_c, 9, 59, 110
2, 8640, Note_on_c, 9, 42, 90
2, 8670, Note_on_c, 9, 59, 0
2, 8730, Note_on_c, 9, 35, 110
2, 8760, Note_on_c, 9, 35, 0
2, 8760, Note_on_c, 9, 42, 0
2, 8760, Note_on_c, 9, 59, 110
2, 8760, Note_on_c, 9, 35, 127
2, 8760, Note_on_c, 9, 42, 90
2, 8790, Note_on_c, 9, 35, 0
2, 8790, Note_on_c, 9, 59, 0
2, 8820, Note_on_c, 9, 35, 127
2, 8850, Note_on_c, 9, 35, 0
2, 8880, Note_on_c, 9, 42, 0
2, 8880, Note_on_c, 9, 59, 110
2, 8880, Note_on_c, 9, 42, 90
2, 8910, Note_on_c, 9, 59, 0
2, 8970, Note_on_c, 9, 59, 110
2, 9000, Note_on_c, 9, 59, 0
2, 9000, Note_on_c, 9, 42, 0
2, 9000, Note_on_c, 9, 37, 127
2, 9000, Note_on_c, 9, 42, 90
2, 9030, Note_on_c, 9, 37, 0
2, 9030, Note_on_c, 9, 59, 110
2, 9060, Note_on_c, 9, 59, 0
2, 9114, Control_c, 9, 121, 0
2, 9116, Control_c, 9, 91, 65
2, 9117, Control_c, 9, 7, 100
2, 9118, Control_c, 9, 10, 64
2, 9119, Program_c, 9, 0
2, 9120, Note_on_c, 9, 42, 0
2, 9120, Note_on_c, 9, 59, 110
2, 9120, Note_on_c, 9, 42, 90
2, 9150, Note_on_c, 9, 59, 0
2, 9210, Note_on_c, 9, 35, 110
2, 9240, Note_on_c, 9, 35, 0
2, 9240, Note_on_c, 9, 42, 0
2, 9240, Note_on_c, 9, 59, 110
2, 9240, Note_on_c, 9, 35, 127
2, 9240, Note_on_c, 9, 42, 90
2, 9270, Note_on_c, 9, 35, 0
2, 9270, Note_on_c, 9, 59, 0
2, 9300, Note_on_c, 9, 35, 127
2, 9330, Note_on_c, 9, 35, 0
2, 9360, Note_on_c, 9, 42, 0
2, 9360, Note_on_c, 9, 59, 110
2, 9360, Note_on_c, 9, 42, 90
2, 9390, Note_on_c, 9, 59, 0
2, 9450, Note_on_c, 9, 59, 110
2, 9480, Note_on_c, 9, 59, 0
2, 9480, Note_on_c, 9, 42, 0
2, 9480, Note_on_c, 9, 37, 127
2, 9480, Note_on_c, 9, 42, 90
2, 9510, Note_on_c, 9, 37, 0
2, 9540, Note_on_c, 9, 55, 120
2, 9570, Note_on_c, 9, 55, 0
2, 9594, Control_c, 9, 121, 0
2, 9596, Control_c, 9, 91, 65
2, 9597, Control_c, 9, 7, 100
2, 9598, Control_c, 9, 10, 64
2, 9599, Program_c, 9, 0
2, 9600, Note_on_c, 9, 42, 0
2, 9660, Note_on_c, 9, 40, 127
2, 9690, Note_on_c, 9, 40, 0
2, 9690, Note_on_c, 9, 35, 110
2, 9720, Note_on_c, 9, 35, 0
2, 9750, Note_on_c, 9, 35, 127
2, 9780, Note_on_c, 9, 35, 0
2, 9780, Note_on_c, 9, 48, 127
2, 9810, Note_on_c, 9, 48, 0
2, 9810, Note_on_c, 9, 47, 127
2, 9840, Note_on_c, 9, 47, 0
2, 9840, Note_on_c, 9, 45, 127
2, 9870, Note_on_c, 9, 45, 0
2, 9930, Note_on_c, 9, 40, 127
2, 9960, Note_on_c, 9, 40, 0
2, 9960, Note_on_c, 9, 40, 127
2, 9990, Note_on_c, 9, 40, 0
2, 10020, Note_on_c, 9, 46, 100
2, 10074, Control_c, 9, 121, 0
2, 10076, Control_c, 9, 91, 65
2, 10077, Control_c, 9, 7, 100
2, 10078, Control_c, 9, 10, 64
2, 10079, Program_c, 9, 0
2, 10080, Note_on_c, 9, 46, 0
2, 10080, Note_on_c, 9, 42, 90
2, 10080, Note_on_c, 9, 35, 127
2, 10140, Note_on_c, 9, 35, 0
2, 10140, Note_on_c, 9, 42, 0
2, 10200, Note_on_c, 9, 42, 90
2, 10200, Note_on_c, 9, 37, 127
2, 10260, Note_on_c, 9, 37, 0
2, 10260, Note_on_c, 9, 42, 0
2, 10320, Note_on_c, 9, 42, 90
2, 10320, Note_on_c, 9, 35, 127
2, 10380, Note_on_c, 9, 35, 0
2, 10380, Note_on_c, 9, 42, 0
2, 10440, Note_on_c, 9, 42, 90
2, 10440, Note_on_c, 9, 37, 127
2, 10500, Note_on_c, 9, 37, 0
2, 10500, Note_on_c, 9, 42, 0
2, 10560, Note_on_c, 9, 42, 90
2, 10560, Note_on_c, 9, 35, 127
2, 10620, Note_on_c, 9, 35, 0
2, 10620, Note_on_c, 9, 42, 0
2, 10680, Note_on_c, 9, 42, 90
2, 10680, Note_on_c, 9, 37, 127
2, 10740, Note_on_c, 9, 37, 0
2, 10740, Note_on_c, 9, 42, 0
2, 10800, Note_on_c, 9, 42, 90
2, 10800, Note_on_c, 9, 35, 127
2, 10860, Note_on_c, 9, 35, 0
2, 10860, Note_on_c, 9, 42, 0
2, 10860, Note_on_c, 9, 35, 127
2, 10920, Note_on_c, 9, 35, 0
2, 10920, Note_on_c, 9, 42, 90
2, 10920, Note_on_c, 9, 37, 127
2, 10980, Note_on_c, 9, 37, 0
2, 10980, Note_on_c, 9, 42, 0
2, 10980, Note_on_c, 9, 46, 90
2, 11040, Note_on_c, 9, 46, 0
2, 11040, Note_on_c, 9, 42, 90
2, 11040, Note_on_c, 9, 35, 127
2, 11100, Note_on_c, 9, 35, 0
2, 11100, Note_on_c, 9, 42, 0
2, 11160, Note_on_c, 9, 42, 90
2, 11160, Note_on_c, 9, 37, 127
2, 11220, Note_on_c, 9, 37, 0
2, 11220, Note_on_c, 9, 42, 0
2, 11280, Note_on_c, 9, 42, 90
2, 11280, Note_on_c, 9, 35, 127
2, 11340, Note_on_c, 9, 35, 0
2, 11340, Note_on_c, 9, 42, 0
2, 11400, Note_on_c, 9, 42, 90
2, 11400, Note_on_c, 9, 37, 127
2, 11460, Note_on_c, 9, 37, 0
2, 11460, Note_on_c, 9, 42, 0
2, 11520, Note_on_c, 9, 42, 90
2, 11520, Note_on_c, 9, 35, 127
2, 11580, Note_on_c, 9, 35, 0
2, 11580, Note_on_c, 9, 42, 0
2, 11640, Note_on_c, 9, 42, 90
2, 11640, Note_on_c, 9, 37, 127
2, 11700, Note_on_c, 9, 37, 0
2, 11700, Note_on_c, 9, 42, 0
2, 11760, Note_on_c, 9, 42, 90
2, 11760, Note_on_c, 9, 35, 127
2, 11820, Note_on_c, 9, 35, 0
2, 11820, Note_on_c, 9, 42, 0
2, 11880, Note_on_c, 9, 46, 90
2, 11880, Note_on_c, 9, 37, 127
2, 11940, Note_on_c, 9, 37, 0
2, 11940, Note_on_c, 9, 46, 0
2, 12000, Note_on_c, 9, 42, 90
2, 12000, Note_on_c, 9, 35, 127
2, 12060, Note_on_c, 9, 35, 0
2, 12060, Note_on_c, 9, 42, 0
2, 12120, Note_on_c, 9, 42, 90
2, 12120, Note_on_c, 9, 37, 127
2, 12180, Note_on_c, 9, 37, 0
2, 12180, Note_on_c, 9, 42, 0
2, 12180, Note_on_c, 9, 35, 127
2, 12240, Note_on_c, 9, 35, 0
2, 12240, Note_on_c, 9, 42, 90
2, 12240, Note_on_c, 9, 35, 127
2, 12300, Note_on_c, 9, 35, 0
2, 12300, Note_on_c, 9, 42, 0
2, 12330, Note_on_c, 9, 42, 90
2, 12360, Note_on_c, 9, 42, 0
2, 12360, Note_on_c, 9, 42, 90
2, 12360, Note_on_c, 9, 37, 127
2, 12420, Note_on_c, 9, 37, 0
2, 12420, Note_on_c, 9, 42, 0
2, 12480, Note_on_c, 9, 42, 90
2, 12480, Note_on_c, 9, 35, 127
2, 12540, Note_on_c, 9, 35, 0
2, 12540, Note_on_c, 9, 42, 0
2, 12600, Note_on_c, 9, 42, 90
2, 12600, Note_on_c, 9, 37, 127
2, 12660, Note_on_c, 9, 37, 0
2, 12660, Note_on_c, 9, 42, 0
2, 12720, Note_on_c, 9, 42, 90
2, 12720, Note_on_c, 9, 35, 127
2, 12780, Note_on_c, 9, 35, 0
2, 12780, Note_on_c, 9, 42, 0
2, 12780, Note_on_c, 9, 35, 127
2, 12840, Note_on_c, 9, 35, 0
2, 12840, Note_on_c, 9, 42, 90
2, 12840, Note_on_c, 9, 37, 127
2, 12900, Note_on_c, 9, 37, 0
2, 12900, Note_on_c, 9, 42, 0
2, 12960, Note_on_c, 9, 42, 90
2, 12960, Note_on_c, 9, 35, 127
2, 13020, Note_on_c, 9, 35, 0
2, 13020, Note_on_c, 9, 42, 0
2, 13080, Note_on_c, 9, 42, 90
2, 13080, Note_on_c, 9, 37, 127
2, 13140, Note_on_c, 9, 37, 0
2, 13140, Note_on_c, 9, 42, 0
2, 13200, Note_on_c, 9, 42, 90
2, 13200, Note_on_c, 9, 35, 127
2, 13260, Note_on_c, 9, 35, 0
2, 13260, Note_on_c, 9, 42, 0
2, 13320, Note_on_c, 9, 42, 90
2, 13320, Note_on_c, 9, 37, 127
2, 13380, Note_on_c, 9, 37, 0
2, 13380, Note_on_c, 9, 42, 0
2, 13410, Note_on_c, 9, 42, 90
2, 13440, Note_on_c, 9, 42, 0
2, 13440, Note_on_c, 9, 42, 90
2, 13440, Note_on_c, 9, 35, 127
2, 13500, Note_on_c, 9, 35, 0
2, 13500, Note_on_c, 9, 42, 0
2, 13560, Note_on_c, 9, 42, 90
2, 13560, Note_on_c, 9, 37, 127
2, 13620, Note_on_c, 9, 37, 0
2, 13620, Note_on_c, 9, 42, 0
2, 13680, Note_on_c, 9, 42, 90
2, 13680, Note_on_c, 9, 35, 127
2, 13740, Note_on_c, 9, 35, 0
2, 13740, Note_on_c, 9, 42, 0
2, 13740, Note_on_c, 9, 35, 127
2, 13800, Note_on_c, 9, 35, 0
2, 13800, Note_on_c, 9, 45, 127
2, 13800, Note_on_c, 9, 46, 90
2, 13860, Note_on_c, 9, 46, 0
2, 13860, Note_on_c, 9, 45, 0
2, 13920, Note_on_c, 9, 55, 120
2, 13920, Note_on_c, 9, 35, 127
2, 13980, Note_on_c, 9, 35, 0
2, 13980, Note_on_c, 9, 55, 0
2, 14040, Note_on_c, 9, 42, 90
2, 14040, Note_on_c, 9, 37, 127
2, 14100, Note_on_c, 9, 37, 0
2, 14100, Note_on_c, 9, 42, 0
2, 14100, Note_on_c, 9, 35, 127
2, 14160, Note_on_c, 9, 35, 0
2, 14160, Note_on_c, 9, 42, 90
2, 14160, Note_on_c, 9, 35, 127
2, 14220, Note_on_c, 9, 35, 0
2, 14220, Note_on_c, 9, 42, 0
2, 14280, Note_on_c, 9, 42, 90
2, 14280, Note_on_c, 9, 37, 127
2, 14340, Note_on_c, 9, 37, 0
2, 14340, Note_on_c, 9, 42, 0
2, 14340, Note_on_c, 9, 46, 100
2, 14340, Note_on_c, 9, 35, 127
2, 14400, Note_on_c, 9, 35, 0
2, 14400, Note_on_c, 9, 46, 0
2, 14400, Note_on_c, 9, 42, 90
2, 14460, Note_on_c, 9, 42, 0
2, 14460, Note_on_c, 9, 46, 100
2, 14460, Note_on_c, 9, 35, 127
2, 14520, Note_on_c, 9, 35, 0
2, 14520, Note_on_c, 9, 46, 0
2, 14520, Note_on_c, 9, 42, 90
2, 14580, Note_on_c, 9, 42, 0
2, 14580, Note_on_c, 9, 35, 120
2, 14640, Note_on_c, 9, 35, 0
2, 14640, Note_on_c, 9, 47, 120
2, 14640, Note_on_c, 9, 42, 90
2, 14700, Note_on_c, 9, 42, 0
2, 14700, Note_on_c, 9, 47, 0
2, 14700, Note_on_c, 9, 46, 100
2, 14700, Note_on_c, 9, 35, 127
2, 14760, Note_on_c, 9, 35, 0
2, 14760, Note_on_c, 9, 46, 0
2, 14820, Note_on_c, 9, 55, 120
2, 14820, Note_on_c, 9, 35, 127
2, 14880, Note_on_c, 9, 35, 0
2, 14880, Note_on_c, 9, 55, 0
2, 14880, Note_on_c, 9, 42, 90
2, 14940, Note_on_c, 9, 42, 0
2, 15000, Note_on_c, 9, 42, 90
2, 15000, Note_on_c, 9, 37, 127
2, 15060, Note_on_c, 9, 37, 0
2, 15060, Note_on_c, 9, 42, 0
2, 15120, Note_on_c, 9, 42, 90
2, 15120, Note_on_c, 9, 35, 127
2, 15180, Note_on_c, 9, 35, 0
2, 15180, Note_on_c, 9, 42, 0
2, 15240, Note_on_c, 9, 42, 90
2, 15240, Note_on_c, 9, 37, 127
2, 15300, Note_on_c, 9, 37, 0
2, 15300, Note_on_c, 9, 42, 0
2, 15360, Note_on_c, 9, 42, 90
2, 15360, Note_on_c, 9, 35, 127
2, 15420, Note_on_c, 9, 35, 0
2, 15420, Note_on_c, 9, 42, 0
2, 15480, Note_on_c, 9, 42, 90
2, 15480, Note_on_c, 9, 37, 127
2, 15540, Note_on_c, 9, 37, 0
2, 15540, Note_on_c, 9, 42, 0
2, 15600, Note_on_c, 9, 42, 90
2, 15600, Note_on_c, 9, 35, 127
2, 15660, Note_on_c, 9, 35, 0
2, 15660, Note_on_c, 9, 42, 0
2, 15660, Note_on_c, 9, 35, 127
2, 15690, Note_on_c, 9, 35, 127
2, 15720, Note_on_c, 9, 35, 0
2, 15720, Note_on_c, 9, 35, 0
2, 15720, Note_on_c, 9, 42, 90
2, 15720, Note_on_c, 9, 37, 127
2, 15780, Note_on_c, 9, 37, 0
2, 15780, Note_on_c, 9, 42, 0
2, 15780, Note_on_c, 9, 35, 127
2, 15840, Note_on_c, 9, 35, 0
2, 15840, Note_on_c, 9, 42, 90
2, 15840, Note_on_c, 9, 35, 127
2, 15900, Note_on_c, 9, 35, 0
2, 15900, Note_on_c, 9, 42, 0
2, 15960, Note_on_c, 9, 42, 90
2, 15960, Note_on_c, 9, 37, 127
2, 16020, Note_on_c, 9, 37, 0
2, 16020, Note_on_c, 9, 42, 0
2, 16080, Note_on_c, 9, 42, 90
2, 16080, Note_on_c, 9, 35, 127
2, 16140, Note_on_c, 9, 35, 0
2, 16140, Note_on_c, 9, 42, 0
2, 16200, Note_on_c, 9, 42, 90
2, 16200, Note_on_c, 9, 37, 127
2, 16260, Note_on_c, 9, 37, 0
2, 16260, Note_on_c, 9, 42, 0
2, 16320, Note_on_c, 9, 42, 90
2, 16320, Note_on_c, 9, 35, 127
2, 16380, Note_on_c, 9, 35, 0
2, 16380, Note_on_c, 9, 42, 0
2, 16440, Note_on_c, 9, 42, 90
2, 16440, Note_on_c, 9, 37, 127
2, 16500, Note_on_c, 9, 37, 0
2, 16500, Note_on_c, 9, 42, 0
2, 16560, Note_on_c, 9, 42, 90
2, 16560, Note_on_c, 9, 35, 127
2, 16620, Note_on_c, 9, 35, 0
2, 16620, Note_on_c, 9, 42, 0
2, 16680, Note_on_c, 9, 46, 90
2, 16680, Note_on_c, 9, 40, 127
2, 16740, Note_on_c, 9, 40, 0
2, 16740, Note_on_c, 9, 46, 0
2, 16800, Note_on_c, 9, 42, 90
2, 16800, Note_on_c, 9, 35, 127
2, 16860, Note_on_c, 9, 35, 0
2, 16860, Note_on_c, 9, 42, 0
2, 16920, Note_on_c, 9, 42, 90
2, 16920, Note_on_c, 9, 37, 127
2, 16980, Note_on_c, 9, 37, 0
2, 16980, Note_on_c, 9, 42, 0
2, 17040, Note_on_c, 9, 42, 90
2, 17040, Note_on_c, 9, 35, 127
2, 17100, Note_on_c, 9, 35, 0
2, 17100, Note_on_c, 9, 42, 0
2, 17160, Note_on_c, 9, 42, 90
2, 17160, Note_on_c, 9, 37, 127
2, 17220, Note_on_c, 9, 37, 0
2, 17220, Note_on_c, 9, 42, 0
2, 17280, Note_on_c, 9, 42, 90
2, 17280, Note_on_c, 9, 35, 127
2, 17340, Note_on_c, 9, 35, 0
2, 17340, Note_on_c, 9, 42, 0
2, 17400, Note_on_c, 9, 42, 90
2, 17400, Note_on_c, 9, 37, 127
2, 17460, Note_on_c, 9, 37, 0
2, 17460, Note_on_c, 9, 42, 0
2, 17520, Note_on_c, 9, 42, 90
2, 17520, Note_on_c, 9, 35, 127
2, 17580, Note_on_c, 9, 35, 0
2, 17580, Note_on_c, 9, 42, 0
2, 17580, Note_on_c, 9, 35, 127
2, 17640, Note_on_c, 9, 35, 0
2, 17640, Note_on_c, 9, 42, 90
2, 17640, Note_on_c, 9, 37, 127
2, 17700, Note_on_c, 9, 37, 0
2, 17700, Note_on_c, 9, 42, 0
2, 17700, Note_on_c, 9, 46, 90
2, 17760, Note_on_c, 9, 46, 0
2, 17760, Note_on_c, 9, 42, 90
2, 17760, Note_on_c, 9, 35, 127
2, 17820, Note_on_c, 9, 35, 0
2, 17820, Note_on_c, 9, 42, 0
2, 17880, Note_on_c, 9, 42, 90
2, 17880, Note_on_c, 9, 37, 127
2, 17940, Note_on_c, 9, 37, 0
2, 17940, Note_on_c, 9, 42, 0
2, 17940, Note_on_c, 9, 35, 127
2, 18000, Note_on_c, 9, 35, 0
2, 18000, Note_on_c, 9, 42, 90
2, 18000, Note_on_c, 9, 35, 127
2, 18060, Note_on_c, 9, 35, 0
2, 18060, Note_on_c, 9, 42, 0
2, 18120, Note_on_c, 9, 42, 90
2, 18120, Note_on_c, 9, 37, 127
2, 18180, Note_on_c, 9, 37, 0
2, 18180, Note_on_c, 9, 42, 0
2, 18240, Note_on_c, 9, 42, 90
2, 18240, Note_on_c, 9, 35, 127
2, 18300, Note_on_c, 9, 35, 0
2, 18300, Note_on_c, 9, 42, 0
2, 18360, Note_on_c, 9, 42, 90
2, 18360, Note_on_c, 9, 37, 127
2, 18420, Note_on_c, 9, 37, 0
2, 18420, Note_on_c, 9, 42, 0
2, 18480, Note_on_c, 9, 42, 90
2, 18480, Note_on_c, 9, 35, 127
2, 18540, Note_on_c, 9, 35, 0
2, 18540, Note_on_c, 9, 42, 0
2, 18540, Note_on_c, 9, 37, 127
2, 18570, Note_on_c, 9, 37, 0
2, 18600, Note_on_c, 9, 43, 127
2, 18600, Note_on_c, 9, 46, 90
2, 18660, Note_on_c, 9, 46, 0
2, 18660, Note_on_c, 9, 43, 0
2, 18720, Note_on_c, 9, 55, 105
2, 18720, Note_on_c, 9, 42, 90
2, 18720, Note_on_c, 9, 35, 127
2, 18780, Note_on_c, 9, 35, 0
2, 18780, Note_on_c, 9, 42, 0
2, 18780, Note_on_c, 9, 55, 0
2, 18840, Note_on_c, 9, 42, 90
2, 18840, Note_on_c, 9, 37, 127
2, 18900, Note_on_c, 9, 37, 0
2, 18900, Note_on_c, 9, 42, 0
2, 18900, Note_on_c, 9, 35, 127
2, 18960, Note_on_c, 9, 35, 0
2, 18960, Note_on_c, 9, 42, 90
2, 18960, Note_on_c, 9, 35, 127
2, 19020, Note_on_c, 9, 35, 0
2, 19020, Note_on_c, 9, 42, 0
2, 19080, Note_on_c, 9, 42, 90
2, 19080, Note_on_c, 9, 37, 127
2, 19140, Note_on_c, 9, 37, 0
2, 19140, Note_on_c, 9, 42, 0
2, 19200, Note_on_c, 9, 42, 90
2, 19200, Note_on_c, 9, 35, 127
2, 19260, Note_on_c, 9, 35, 0
2, 19260, Note_on_c, 9, 42, 0
2, 19320, Note_on_c, 9, 42, 90
2, 19320, Note_on_c, 9, 37, 127
2, 19380, Note_on_c, 9, 37, 0
2, 19380, Note_on_c, 9, 42, 0
2, 19440, Note_on_c, 9, 42, 90
2, 19440, Note_on_c, 9, 35, 127
2, 19500, Note_on_c, 9, 35, 0
2, 19500, Note_on_c, 9, 42, 0
2, 19500, Note_on_c, 9, 35, 127
2, 19560, Note_on_c, 9, 35, 0
2, 19560, Note_on_c, 9, 42, 90
2, 19560, Note_on_c, 9, 37, 127
2, 19620, Note_on_c, 9, 37, 0
2, 19620, Note_on_c, 9, 42, 0
2, 19620, Note_on_c, 9, 35, 127
2, 19680, Note_on_c, 9, 35, 0
2, 19680, Note_on_c, 9, 42, 90
2, 19680, Note_on_c, 9, 35, 127
2, 19740, Note_on_c, 9, 35, 0
2, 19740, Note_on_c, 9, 42, 0
2, 19800, Note_on_c, 9, 42, 90
2, 19800, Note_on_c, 9, 37, 127
2, 19860, Note_on_c, 9, 37, 0
2, 19860, Note_on_c, 9, 42, 0
2, 19920, Note_on_c, 9, 42, 90
2, 19920, Note_on_c, 9, 35, 127
2, 19980, Note_on_c, 9, 35, 0
2, 19980, Note_on_c, 9, 42, 0
2, 20040, Note_on_c, 9, 42, 90
2, 20040, Note_on_c, 9, 37, 127
2, 20100, Note_on_c, 9, 37, 0
2, 20100, Note_on_c, 9, 42, 0
2, 20160, Note_on_c, 9, 42, 90
2, 20160, Note_on_c, 9, 35, 127
2, 20220, Note_on_c, 9, 35, 0
2, 20220, Note_on_c, 9, 42, 0
2, 20280, Note_on_c, 9, 42, 90
2, 20280, Note_on_c, 9, 37, 127
2, 20340, Note_on_c, 9, 37, 0
2, 20340, Note_on_c, 9, 42, 0
2, 20400, Note_on_c, 9, 42, 90
2, 20400, Note_on_c, 9, 35, 127
2, 20460, Note_on_c, 9, 35, 0
2, 20460, Note_on_c, 9, 42, 0
2, 20460, Note_on_c, 9, 35, 127
2, 20520, Note_on_c, 9, 35, 0
2, 20520, Note_on_c, 9, 45, 127
2, 20520, Note_on_c, 9, 46, 90
2, 20580, Note_on_c, 9, 46, 0
2, 20580, Note_on_c, 9, 45, 0
2, 20640, Note_on_c, 9, 55, 120
2, 20640, Note_on_c, 9, 35, 127
2, 20700, Note_on_c, 9, 35, 0
2, 20700, Note_on_c, 9, 55, 0
2, 20760, Note_on_c, 9, 42, 90
2, 20760, Note_on_c, 9, 37, 127
2, 20820, Note_on_c, 9, 37, 0
2, 20820, Note_on_c, 9, 42, 0
2, 20820, Note_on_c, 9, 35, 127
2, 20880, Note_on_c, 9, 35, 0
2, 20880, Note_on_c, 9, 55, 110
2, 20880, Note_on_c, 9, 42, 90
2, 20880, Note_on_c, 9, 35, 127
2, 20940, Note_on_c, 9, 35, 0
2, 20940, Note_on_c, 9, 42, 0
2, 20940, Note_on_c, 9, 55, 0
2, 21000, Note_on_c, 9, 42, 90
2, 21000, Note_on_c, 9, 37, 127
2, 21060, Note_on_c, 9, 37, 0
2, 21060, Note_on_c, 9, 42, 0
2, 21060, Note_on_c, 9, 46, 100
2, 21060, Note_on_c, 9, 35, 127
2, 21120, Note_on_c, 9, 35, 0
2, 21120, Note_on_c, 9, 46, 0
2, 21120, Note_on_c, 9, 42, 90
2, 21180, Note_on_c, 9, 42, 0
2, 21180, Note_on_c, 9, 55, 110
2, 21180, Note_on_c, 9, 46, 100
2, 21180, Note_on_c, 9, 35, 127
2, 21240, Note_on_c, 9, 35, 0
2, 21240, Note_on_c, 9, 46, 0
2, 21240, Note_on_c, 9, 55, 0
2, 21240, Note_on_c, 9, 42, 90
2, 21300, Note_on_c, 9, 42, 0
2, 21300, Note_on_c, 9, 35, 120
2, 21360, Note_on_c, 9, 35, 0
2, 21360, Note_on_c, 9, 47, 120
2, 21360, Note_on_c, 9, 42, 90
2, 21420, Note_on_c, 9, 42, 0
2, 21420, Note_on_c, 9, 47, 0
2, 21420, Note_on_c, 9, 46, 100
2, 21420, Note_on_c, 9, 35, 127
2, 21480, Note_on_c, 9, 35, 0
2, 21480, Note_on_c, 9, 46, 0
2, 21540, Note_on_c, 9, 55, 120
2, 21540, Note_on_c, 9, 35, 127
2, 21600, Note_on_c, 9, 35, 0
2, 21600, Note_on_c, 9, 55, 0
2, 21600, Note_on_c, 9, 42, 90
2, 21660, Note_on_c, 9, 42, 0
2, 21720, Note_on_c, 9, 42, 90
2, 21720, Note_on_c, 9, 37, 127
2, 21780, Note_on_c, 9, 37, 0
2, 21780, Note_on_c, 9, 42, 0
2, 21840, Note_on_c, 9, 42, 90
2, 21840, Note_on_c, 9, 35, 127
2, 21900, Note_on_c, 9, 35, 0
2, 21900, Note_on_c, 9, 42, 0
2, 21960, Note_on_c, 9, 42, 90
2, 21960, Note_on_c, 9, 37, 127
2, 22020, Note_on_c, 9, 37, 0
2, 22020, Note_on_c, 9, 42, 0
2, 22080, Note_on_c, 9, 42, 90
2, 22080, Note_on_c, 9, 35, 127
2, 22140, Note_on_c, 9, 35, 0
2, 22140, Note_on_c, 9, 42, 0
2, 22200, Note_on_c, 9, 42, 90
2, 22200, Note_on_c, 9, 37, 127
2, 22260, Note_on_c, 9, 37, 0
2, 22260, Note_on_c, 9, 42, 0
2, 22260, Note_on_c, 9, 35, 127
2, 22320, Note_on_c, 9, 35, 0
2, 22320, Note_on_c, 9, 40, 127
2, 22320, Note_on_c, 9, 42, 90
2, 22380, Note_on_c, 9, 42, 0
2, 22380, Note_on_c, 9, 40, 0
2, 22380, Note_on_c, 9, 35, 127
2, 22440, Note_on_c, 9, 35, 0
2, 22440, Note_on_c, 9, 42, 90
2, 22500, Note_on_c, 9, 42, 0
2, 22500, Note_on_c, 9, 35, 127
2, 22500, Note_on_c, 9, 46, 90
2, 22560, Note_on_c, 9, 46, 0
2, 22560, Note_on_c, 9, 35, 0
2, 22560, Note_on_c, 9, 42, 90
2, 22560, Note_on_c, 9, 35, 127
2, 22620, Note_on_c, 9, 35, 0
2, 22620, Note_on_c, 9, 42, 0
2, 22620, Note_on_c, 9, 42, 90
2, 22680, Note_on_c, 9, 42, 0
2, 22680, Note_on_c, 9, 42, 90
2, 22680, Note_on_c, 9, 40, 127
2, 22740, Note_on_c, 9, 40, 0
2, 22740, Note_on_c, 9, 42, 0
2, 22740, Note_on_c, 9, 42, 90
2, 22800, Note_on_c, 9, 42, 0
2, 22800, Note_on_c, 9, 42, 90
2, 22800, Note_on_c, 9, 35, 127
2, 22860, Note_on_c, 9, 35, 0
2, 22860, Note_on_c, 9, 42, 0
2, 22860, Note_on_c, 9, 42, 90
2, 22920, Note_on_c, 9, 42, 0
2, 22920, Note_on_c, 9, 42, 90
2, 22920, Note_on_c, 9, 40, 127
2, 22980, Note_on_c, 9, 40, 0
2, 22980, Note_on_c, 9, 42, 0
2, 22980, Note_on_c, 9, 42, 90
2, 23040, Note_on_c, 9, 42, 0
2, 23040, Note_on_c, 9, 42, 90
2, 23040, Note_on_c, 9, 35, 127
2, 23100, Note_on_c, 9, 35, 0
2, 23100, Note_on_c, 9, 42, 0
2, 23100, Note_on_c, 9, 42, 90
2, 23160, Note_on_c, 9, 42, 0
2, 23160, Note_on_c, 9, 42, 90
2, 23160, Note_on_c, 9, 40, 127
2, 23220, Note_on_c, 9, 40, 0
2, 23220, Note_on_c, 9, 42, 0
2, 23220, Note_on_c, 9, 42, 90
2, 23280, Note_on_c, 9, 42, 0
2, 23280, Note_on_c, 9, 42, 90
2, 23280, Note_on_c, 9, 35, 127
2, 23340, Note_on_c, 9, 35, 0
2, 23340, Note_on_c, 9, 42, 0
2, 23340, Note_on_c, 9, 42, 90
2, 23400, Note_on_c, 9, 42, 0
2, 23400, Note_on_c, 9, 42, 90
2, 23400, Note_on_c, 9, 40, 127
2, 23460, Note_on_c, 9, 40, 0
2, 23460, Note_on_c, 9, 42, 0
2, 23460, Note_on_c, 9, 46, 90
2, 23520, Note_on_c, 9, 46, 0
2, 23520, Note_on_c, 9, 42, 90
2, 23520, Note_on_c, 9, 35, 127
2, 23580, Note_on_c, 9, 35, 0
2, 23580, Note_on_c, 9, 42, 0
2, 23580, Note_on_c, 9, 46, 90
2, 23640, Note_on_c, 9, 46, 0
2, 23640, Note_on_c, 9, 42, 90
2, 23640, Note_on_c, 9, 40, 127
2, 23700, Note_on_c, 9, 40, 0
2, 23700, Note_on_c, 9, 42, 0
2, 23700, Note_on_c, 9, 46, 90
2, 23760, Note_on_c, 9, 46, 0
2, 23760, Note_on_c, 9, 42, 90
2, 23760, Note_on_c, 9, 35, 127
2, 23820, Note_on_c, 9, 35, 0
2, 23820, Note_on_c, 9, 42, 0
2, 23820, Note_on_c, 9, 46, 90
2, 23880, Note_on_c, 9, 46, 0
2, 23880, Note_on_c, 9, 42, 90
2, 23880, Note_on_c, 9, 40, 127
2, 23940, Note_on_c, 9, 40, 0
2, 23940, Note_on_c, 9, 42, 0
2, 23940, Note_on_c, 9, 46, 90
2, 24000, Note_on_c, 9, 46, 0
2, 24000, Note_on_c, 9, 42, 90
2, 24000, Note_on_c, 9, 35, 127
2, 24060, Note_on_c, 9, 35, 0
2, 24060, Note_on_c, 9, 42, 0
2, 24060, Note_on_c, 9, 42, 90
2, 24120, Note_on_c, 9, 42, 0
2, 24120, Note_on_c, 9, 55, 90
2, 24120, Note_on_c, 9, 40, 127
2, 24180, Note_on_c, 9, 40, 0
2, 24180, Note_on_c, 9, 55, 0
2, 24180, Note_on_c, 9, 42, 90
2, 24240, Note_on_c, 9, 42, 0
2, 24240, Note_on_c, 9, 42, 90
2, 24240, Note_on_c, 9, 35, 127
2, 24300, Note_on_c, 9, 35, 0
2, 24300, Note_on_c, 9, 42, 0
2, 24300, Note_on_c, 9, 42, 90
2, 24360, Note_on_c, 9, 42, 0
2, 24360, Note_on_c, 9, 42, 90
2, 24360, Note_on_c, 9, 40, 127
2, 24420, Note_on_c, 9, 40, 0
2, 24420, Note_on_c, 9, 42, 0
2, 24420, Note_on_c, 9, 42, 90
2, 24480, Note_on_c, 9, 42, 0
2, 24480, Note_on_c, 9, 42, 90
2, 24480, Note_on_c, 9, 35, 127
2, 24540, Note_on_c, 9, 35, 0
2, 24540, Note_on_c, 9, 42, 0
2, 24540, Note_on_c, 9, 42, 90
2, 24570, Note_on_c, 9, 40, 127
2, 24600, Note_on_c, 9, 40, 0
2, 24600, Note_on_c, 9, 42, 0
2, 24600, Note_on_c, 9, 40, 127
2, 24630, Note_on_c, 9, 48, 115
2, 24660, Note_on_c, 9, 48, 0
2, 24660, Note_on_c, 9, 40, 0
2, 24660, Note_on_c, 9, 47, 115
2, 24660, Note_on_c, 9, 42, 90
2, 24690, Note_on_c, 9, 47, 0
2, 24690, Note_on_c, 9, 45, 115
2, 24720, Note_on_c, 9, 45, 0
2, 24720, Note_on_c, 9, 42, 0
2, 24720, Note_on_c, 9, 43, 115
2, 24720, Note_on_c, 9, 35, 127
2, 24750, Note_on_c, 9, 43, 0
2, 24780, Note_on_c, 9, 35, 0
2, 24780, Note_on_c, 9, 42, 90
2, 24840, Note_on_c, 9, 42, 0
2, 24840, Note_on_c, 9, 42, 90
2, 24840, Note_on_c, 9, 40, 127
2, 24900, Note_on_c, 9, 40, 0
2, 24900, Note_on_c, 9, 42, 0
2, 24900, Note_on_c, 9, 46, 90
2, 24960, Note_on_c, 9, 46, 0
2, 24960, Note_on_c, 9, 42, 90
2, 24960, Note_on_c, 9, 35, 127
2, 25020, Note_on_c, 9, 35, 0
2, 25020, Note_on_c, 9, 42, 0
2, 25020, Note_on_c, 9, 46, 90
2, 25080, Note_on_c, 9, 46, 0
2, 25080, Note_on_c, 9, 42, 90
2, 25080, Note_on_c, 9, 40, 127
2, 25140, Note_on_c, 9, 40, 0
2, 25140, Note_on_c, 9, 42, 0
2, 25140, Note_on_c, 9, 46, 90
2, 25200, Note_on_c, 9, 46, 0
2, 25200, Note_on_c, 9, 42, 90
2, 25200, Note_on_c, 9, 35, 127
2, 25260, Note_on_c, 9, 35, 0
2, 25260, Note_on_c, 9, 42, 0
2, 25260, Note_on_c, 9, 46, 90
2, 25320, Note_on_c, 9, 46, 0
2, 25320, Note_on_c, 9, 42, 90
2, 25320, Note_on_c, 9, 40, 127
2, 25380, Note_on_c, 9, 40, 0
2, 25380, Note_on_c, 9, 42, 0
2, 25380, Note_on_c, 9, 46, 90
2, 25440, Note_on_c, 9, 46, 0
2, 25440, Note_on_c, 9, 42, 90
2, 25440, Note_on_c, 9, 55, 90
2, 25440, Note_on_c, 9, 35, 127
2, 25500, Note_on_c, 9, 35, 0
2, 25500, Note_on_c, 9, 55, 0
2, 25500, Note_on_c, 9, 42, 0
2, 25500, Note_on_c, 9, 42, 90
2, 25530, Note_on_c, 9, 40, 127
2, 25560, Note_on_c, 9, 40, 0
2, 25560, Note_on_c, 9, 42, 0
2, 25560, Note_on_c, 9, 40, 127
2, 25590, Note_on_c, 9, 48, 115
2, 25620, Note_on_c, 9, 48, 0
2, 25620, Note_on_c, 9, 40, 0
2, 25620, Note_on_c, 9, 47, 115
2, 25620, Note_on_c, 9, 42, 90
2, 25650, Note_on_c, 9, 47, 0
2, 25650, Note_on_c, 9, 45, 115
2, 25680, Note_on_c, 9, 45, 0
2, 25680, Note_on_c, 9, 42, 0
2, 25680, Note_on_c, 9, 43, 115
2, 25680, Note_on_c, 9, 35, 127
2, 25710, Note_on_c, 9, 43, 0
2, 25740, Note_on_c, 9, 35, 0
2, 25740, Note_on_c, 9, 42, 90
2, 25800, Note_on_c, 9, 42, 0
2, 25800, Note_on_c, 9, 42, 90
2, 25800, Note_on_c, 9, 40, 127
2, 25860, Note_on_c, 9, 40, 0
2, 25860, Note_on_c, 9, 42, 0
2, 25860, Note_on_c, 9, 42, 90
2, 25920, Note_on_c, 9, 42, 0
2, 25920, Note_on_c, 9, 42, 90
2, 25920, Note_on_c, 9, 35, 127
2, 25980, Note_on_c, 9, 35, 0
2, 25980, Note_on_c, 9, 42, 0
2, 25980, Note_on_c, 9, 42, 90
2, 26040, Note_on_c, 9, 42, 0
2, 26040, Note_on_c, 9, 42, 90
2, 26040, Note_on_c, 9, 40, 127
2, 26100, Note_on_c, 9, 40, 0
2, 26100, Note_on_c, 9, 42, 0
2, 26100, Note_on_c, 9, 42, 90
2, 26160, Note_on_c, 9, 42, 0
2, 26160, Note_on_c, 9, 42, 90
2, 26160, Note_on_c, 9, 35, 127
2, 26220, Note_on_c, 9, 35, 0
2, 26220, Note_on_c, 9, 42, 0
2, 26220, Note_on_c, 9, 42, 90
2, 26280, Note_on_c, 9, 42, 0
2, 26280, Note_on_c, 9, 42, 90
2, 26280, Note_on_c, 9, 40, 127
2, 26340, Note_on_c, 9, 40, 0
2, 26340, Note_on_c, 9, 42, 0
2, 26340, Note_on_c, 9, 46, 90
2, 26400, Note_on_c, 9, 46, 0
2, 26400, Note_on_c, 9, 42, 90
2, 26430, Note_on_c, 9, 35, 127
2, 26460, Note_on_c, 9, 35, 0
2, 26460, Note_on_c, 9, 42, 0
2, 26460, Note_on_c, 9, 46, 90
2, 26460, Note_on_c, 9, 35, 127
2, 26490, Note_on_c, 9, 35, 0
2, 26520, Note_on_c, 9, 46, 0
2, 26520, Note_on_c, 9, 42, 90
2, 26550, Note_on_c, 9, 35, 127
2, 26580, Note_on_c, 9, 35, 0
2, 26580, Note_on_c, 9, 42, 0
2, 26580, Note_on_c, 9, 46, 90
2, 26580, Note_on_c, 9, 40, 127
2, 26580, Note_on_c, 9, 35, 127
2, 26610, Note_on_c, 9, 35, 0
2, 26640, Note_on_c, 9, 40, 0
2, 26640, Note_on_c, 9, 46, 0
2, 26640, Note_on_c, 9, 42, 90
2, 26670, Note_on_c, 9, 35, 127
2, 26700, Note_on_c, 9, 35, 0
2, 26700, Note_on_c, 9, 42, 0
2, 26700, Note_on_c, 9, 46, 90
2, 26700, Note_on_c, 9, 35, 127
2, 26730, Note_on_c, 9, 35, 0
2, 26760, Note_on_c, 9, 46, 0
2, 26760, Note_on_c, 9, 42, 90
2, 26790, Note_on_c, 9, 35, 127
2, 26820, Note_on_c, 9, 35, 0
2, 26820, Note_on_c, 9, 42, 0
2, 26820, Note_on_c, 9, 40, 127
2, 26820, Note_on_c, 9, 35, 127
2, 26820, Note_on_c, 9, 42, 90
2, 26850, Note_on_c, 9, 35, 0
2, 26880, Note_on_c, 9, 42, 0
2, 26880, Note_on_c, 9, 40, 0
2, 26880, Note_on_c, 9, 42, 90
2, 26910, Note_on_c, 9, 35, 127
2, 26940, Note_on_c, 9, 35, 0
2, 26940, Note_on_c, 9, 42, 0
2, 26940, Note_on_c, 9, 35, 127
2, 26940, Note_on_c, 9, 42, 90
2, 26970, Note_on_c, 9, 35, 0
2, 27000, Note_on_c, 9, 42, 0
2, 27000, Note_on_c, 9, 42, 90
2, 27030, Note_on_c, 9, 35, 127
2, 27060, Note_on_c, 9, 35, 0
2, 27060, Note_on_c, 9, 42, 0
2, 27060, Note_on_c, 9, 40, 127
2, 27060, Note_on_c, 9, 35, 127
2, 27060, Note_on_c, 9, 42, 90
2, 27090, Note_on_c, 9, 35, 0
2, 27090, Note_on_c, 9, 40, 127
2, 27120, Note_on_c, 9, 40, 0
2, 27120, Note_on_c, 9, 42, 0
2, 27120, Note_on_c, 9, 40, 0
2, 27120, Note_on_c, 9, 48, 110
2, 27150, Note_on_c, 9, 48, 0
2, 27150, Note_on_c, 9, 47, 110
2, 27180, Note_on_c, 9, 47, 0
2, 27180, Note_on_c, 9, 45, 110
2, 27210, Note_on_c, 9, 45, 0
2, 27210, Note_on_c, 9, 43, 110
2, 27240, Note_on_c, 9, 43, 0
2, 27240, Note_on_c, 9, 42, 90
2, 27240, Note_on_c, 9, 55, 127
2, 27240, Note_on_c, 9, 40, 127
2, 27270, Note_on_c, 9, 55, 0
2, 27300, Note_on_c, 9, 40, 0
2, 27300, Note_on_c, 9, 42, 0
2, 27300, Note_on_c, 9, 42, 90
2, 27360, Note_on_c, 9, 42, 0
2, 27360, Note_on_c, 9, 42, 90
2, 27360, Note_on_c, 9, 35, 127
2, 27420, Note_on_c, 9, 35, 0
2, 27420, Note_on_c, 9, 42, 0
2, 27420, Note_on_c, 9, 42, 90
2, 27480, Note_on_c, 9, 42, 0
2, 27480, Note_on_c, 9, 42, 90
2, 27480, Note_on_c, 9, 35, 127
2, 27540, Note_on_c, 9, 35, 0
2, 27540, Note_on_c, 9, 42, 0
2, 27540, Note_on_c, 9, 42, 90
2, 27570, Note_on_c, 9, 40, 127
2, 27600, Note_on_c, 9, 40, 0
2, 27600, Note_on_c, 9, 42, 0
2, 27600, Note_on_c, 9, 40, 127
2, 27660, Note_on_c, 9, 40, 0
2, 27660, Note_on_c, 9, 47, 127
2, 27720, Note_on_c, 9, 47, 0
2, 27720, Note_on_c, 9, 45, 127
2, 27780, Note_on_c, 9, 45, 0
2, 27780, Note_on_c, 9, 35, 127
2, 27780, Note_on_c, 9, 55, 127
2, 27840, Note_on_c, 9, 55, 0
2, 27840, Note_on_c, 9, 35, 0
2, 27960, Note_on_c, 9, 42, 90
2, 28080, Note_on_c, 9, 42, 0
2, 28080, Note_on_c, 9, 42, 90
2, 28200, Note_on_c, 9, 42, 0
2, 28200, Note_on_c, 9, 42, 90
2, 28320, Note_on_c, 9, 42, 0
2, 28320, Note_on_c, 9, 42, 90
2, 28440, Note_on_c, 9, 42, 0
2, 28440, Note_on_c, 9, 42, 90
2, 28560, Note_on_c, 9, 42, 0
2, 28560, Note_on_c, 9, 42, 90
2, 28680, Note_on_c, 9, 42, 0
2, 28680, Note_on_c, 9, 42, 90
2, 28800, Note_on_c, 9, 42, 0
2, 28800, Note_on_c, 9, 42, 90
2, 28800, Note_on_c, 9, 35, 127
2, 28860, Note_on_c, 9, 35, 0
2, 28860, Note_on_c, 9, 42, 0
2, 28920, Note_on_c, 9, 42, 90
2, 28920, Note_on_c, 9, 37, 127
2, 28980, Note_on_c, 9, 37, 0
2, 28980, Note_on_c, 9, 42, 0
2, 29040, Note_on_c, 9, 42, 90
2, 29040, Note_on_c, 9, 35, 127
2, 29100, Note_on_c, 9, 35, 0
2, 29100, Note_on_c, 9, 42, 0
2, 29160, Note_on_c, 9, 42, 90
2, 29160, Note_on_c, 9, 37, 127
2, 29220, Note_on_c, 9, 37, 0
2, 29220, Note_on_c, 9, 42, 0
2, 29220, Note_on_c, 9, 46, 90
2, 29280, Note_on_c, 9, 46, 0
2, 29280, Note_on_c, 9, 42, 90
2, 29340, Note_on_c, 9, 42, 0
2, 29400, Note_on_c, 9, 46, 90
2, 29400, Note_on_c, 9, 35, 127
2, 29460, Note_on_c, 9, 35, 0
2, 29460, Note_on_c, 9, 46, 0
2, 29520, Note_on_c, 9, 42, 90
2, 29580, Note_on_c, 9, 42, 0
2, 29640, Note_on_c, 9, 42, 90
2, 29640, Note_on_c, 9, 37, 127
2, 29700, Note_on_c, 9, 37, 0
2, 29700, Note_on_c, 9, 42, 0
2, 29700, Note_on_c, 9, 46, 90
2, 29760, Note_on_c, 9, 46, 0
2, 29760, Note_on_c, 9, 42, 90
2, 29760, Note_on_c, 9, 35, 127
2, 29820, Note_on_c, 9, 35, 0
2, 29820, Note_on_c, 9, 42, 0
2, 29880, Note_on_c, 9, 42, 90
2, 29880, Note_on_c, 9, 37, 127
2, 29940, Note_on_c, 9, 37, 0
2, 29940, Note_on_c, 9, 42, 0
2, 30000, Note_on_c, 9, 46, 90
2, 30000, Note_on_c, 9, 35, 127
2, 30060, Note_on_c, 9, 35, 0
2, 30060, Note_on_c, 9, 46, 0
2, 30120, Note_on_c, 9, 42, 90
2, 30120, Note_on_c, 9, 37, 127
2, 30180, Note_on_c, 9, 37, 0
2, 30180, Note_on_c, 9, 42, 0
2, 30240, Note_on_c, 9, 42, 90
2, 30300, Note_on_c, 9, 42, 0
2, 30360, Note_on_c, 9, 46, 90
2, 30360, Note_on_c, 9, 35, 127
2, 30420, Note_on_c, 9, 35, 0
2, 30420, Note_on_c, 9, 46, 0
2, 30480, Note_on_c, 9, 42, 90
2, 30540, Note_on_c, 9, 42, 0
2, 30540, Note_on_c, 9, 46, 90
2, 30600, Note_on_c, 9, 46, 0
2, 30600, Note_on_c, 9, 42, 90
2, 30600, Note_on_c, 9, 37, 127
2, 30660, Note_on_c, 9, 37, 0
2, 30660, Note_on_c, 9, 42, 0
2, 30660, Note_on_c, 9, 46, 90
2, 30720, Note_on_c, 9, 46, 0
2, 30720, Note_on_c, 9, 42, 90
2, 30720, Note_on_c, 9, 35, 127
2, 30780, Note_on_c, 9, 35, 0
2, 30780, Note_on_c, 9, 42, 0
2, 30840, Note_on_c, 9, 42, 90
2, 30840, Note_on_c, 9, 37, 127
2, 30900, Note_on_c, 9, 37, 0
2, 30900, Note_on_c, 9, 42, 0
2, 30960, Note_on_c, 9, 42, 90
2, 30960, Note_on_c, 9, 35, 127
2, 31020, Note_on_c, 9, 35, 0
2, 31020, Note_on_c, 9, 42, 0
2, 31080, Note_on_c, 9, 42, 90
2, 31080, Note_on_c, 9, 37, 127
2, 31140, Note_on_c, 9, 37, 0
2, 31140, Note_on_c, 9, 42, 0
2, 31140, Note_on_c, 9, 35, 127
2, 31140, Note_on_c, 9, 46, 90
2, 31200, Note_on_c, 9, 46, 0
2, 31200, Note_on_c, 9, 35, 0
2, 31200, Note_on_c, 9, 42, 90
2, 31260, Note_on_c, 9, 42, 0
2, 31320, Note_on_c, 9, 46, 90
2, 31320, Note_on_c, 9, 35, 127
2, 31380, Note_on_c, 9, 35, 0
2, 31380, Note_on_c, 9, 46, 0
2, 31440, Note_on_c, 9, 42, 90
2, 31500, Note_on_c, 9, 42, 0
2, 31560, Note_on_c, 9, 42, 90
2, 31560, Note_on_c, 9, 37, 127
2, 31620, Note_on_c, 9, 37, 0
2, 31620, Note_on_c, 9, 42, 0
2, 31620, Note_on_c, 9, 35, 127
2, 31620, Note_on_c, 9, 46, 90
2, 31680, Note_on_c, 9, 46, 0
2, 31680, Note_on_c, 9, 35, 0
2, 31680, Note_on_c, 9, 42, 90
2, 31680, Note_on_c, 9, 35, 127
2, 31740, Note_on_c, 9, 35, 0
2, 31740, Note_on_c, 9, 42, 0
2, 31800, Note_on_c, 9, 42, 90
2, 31800, Note_on_c, 9, 37, 127
2, 31860, Note_on_c, 9, 37, 0
2, 31860, Note_on_c, 9, 42, 0
2, 31920, Note_on_c, 9, 46, 90
2, 31920, Note_on_c, 9, 35, 127
2, 31980, Note_on_c, 9, 35, 0
2, 31980, Note_on_c, 9, 46, 0
2, 32040, Note_on_c, 9, 42, 90
2, 32040, Note_on_c, 9, 37, 127
2, 32100, Note_on_c, 9, 37, 0
2, 32100, Note_on_c, 9, 42, 0
2, 32160, Note_on_c, 9, 42, 90
2, 32160, Note_on_c, 9, 35, 127
2, 32220, Note_on_c, 9, 35, 0
2, 32220, Note_on_c, 9, 42, 0
2, 32280, Note_on_c, 9, 42, 90
2, 32280, Note_on_c, 9, 37, 127
2, 32340, Note_on_c, 9, 37, 0
2, 32340, Note_on_c, 9, 42, 0
2, 32340, Note_on_c, 9, 46, 90
2, 32370, Note_on_c, 9, 40, 127
2, 32400, Note_on_c, 9, 40, 0
2, 32400, Note_on_c, 9, 46, 0
2, 32400, Note_on_c, 9, 35, 127
2, 32460, Note_on_c, 9, 35, 0
2, 32460, Note_on_c, 9, 35, 127
2, 32520, Note_on_c, 9, 35, 0
2, 32520, Note_on_c, 9, 40, 127
2, 32580, Note_on_c, 9, 40, 0
2, 32580, Note_on_c, 9, 35, 127
2, 32640, Note_on_c, 9, 35, 0
2, 32640, Note_on_c, 9, 49, 110
2, 32640, Note_on_c, 9, 42, 90
2, 32640, Note_on_c, 9, 35, 127
2, 32700, Note_on_c, 9, 35, 0
2, 32700, Note_on_c, 9, 42, 0
2, 32700, Note_on_c, 9, 49, 0
2, 32760, Note_on_c, 9, 42, 90
2, 32760, Note_on_c, 9, 51, 110
2, 32760, Note_on_c, 9, 40, 127
2, 32820, Note_on_c, 9, 40, 0
2, 32820, Note_on_c, 9, 51, 0
2, 32820, Note_on_c, 9, 42, 0
2, 32880, Note_on_c, 9, 42, 90
2, 32880, Note_on_c, 9, 51, 110
2, 32880, Note_on_c, 9, 35, 127
2, 32940, Note_on_c, 9, 35, 0
2, 32940, Note_on_c, 9, 51, 0
2, 32940, Note_on_c, 9, 42, 0
2, 33000, Note_on_c, 9, 42, 90
2, 33000, Note_on_c, 9, 51, 110
2, 33000, Note_on_c, 9, 40, 127
2, 33060, Note_on_c, 9, 40, 0
2, 33060, Note_on_c, 9, 51, 0
2, 33060, Note_on_c, 9, 42, 0
2, 33120, Note_on_c, 9, 42, 90
2, 33120, Note_on_c, 9, 51, 110
2, 33120, Note_on_c, 9, 35, 127
2, 33180, Note_on_c, 9, 35, 0
2, 33180, Note_on_c, 9, 51, 0
2, 33180, Note_on_c, 9, 42, 0
2, 33240, Note_on_c, 9, 42, 90
2, 33240, Note_on_c, 9, 51, 110
2, 33240, Note_on_c, 9, 40, 127
2, 33300, Note_on_c, 9, 40, 0
2, 33300, Note_on_c, 9, 51, 0
2, 33300, Note_on_c, 9, 42, 0
2, 33360, Note_on_c, 9, 42, 90
2, 33360, Note_on_c, 9, 51, 110
2, 33360, Note_on_c, 9, 35, 127
2, 33420, Note_on_c, 9, 35, 0
2, 33420, Note_on_c, 9, 51, 0
2, 33420, Note_on_c, 9, 42, 0
2, 33480, Note_on_c, 9, 42, 90
2, 33480, Note_on_c, 9, 51, 110
2, 33480, Note_on_c, 9, 40, 127
2, 33540, Note_on_c, 9, 40, 0
2, 33540, Note_on_c, 9, 51, 0
2, 33540, Note_on_c, 9, 42, 0
2, 33600, Note_on_c, 9, 42, 90
2, 33600, Note_on_c, 9, 51, 110
2, 33600, Note_on_c, 9, 35, 127
2, 33660, Note_on_c, 9, 35, 0
2, 33660, Note_on_c, 9, 51, 0
2, 33660, Note_on_c, 9, 42, 0
2, 33720, Note_on_c, 9, 42, 90
2, 33720, Note_on_c, 9, 51, 110
2, 33720, Note_on_c, 9, 40, 127
2, 33780, Note_on_c, 9, 40, 0
2, 33780, Note_on_c, 9, 51, 0
2, 33780, Note_on_c, 9, 42, 0
2, 33840, Note_on_c, 9, 42, 90
2, 33840, Note_on_c, 9, 51, 110
2, 33840, Note_on_c, 9, 35, 127
2, 33900, Note_on_c, 9, 35, 0
2, 33900, Note_on_c, 9, 51, 0
2, 33900, Note_on_c, 9, 42, 0
2, 33960, Note_on_c, 9, 42, 90
2, 33960, Note_on_c, 9, 51, 110
2, 33960, Note_on_c, 9, 40, 127
2, 34020, Note_on_c, 9, 40, 0
2, 34020, Note_on_c, 9, 51, 0
2, 34020, Note_on_c, 9, 42, 0
2, 34080, Note_on_c, 9, 42, 90
2, 34080, Note_on_c, 9, 51, 110
2, 34080, Note_on_c, 9, 35, 127
2, 34140, Note_on_c, 9, 35, 0
2, 34140, Note_on_c, 9, 51, 0
2, 34140, Note_on_c, 9, 42, 0
2, 34200, Note_on_c, 9, 42, 90
2, 34200, Note_on_c, 9, 51, 110
2, 34200, Note_on_c, 9, 40, 127
2, 34260, Note_on_c, 9, 40, 0
2, 34260, Note_on_c, 9, 51, 0
2, 34260, Note_on_c, 9, 42, 0
2, 34320, Note_on_c, 9, 42, 90
2, 34320, Note_on_c, 9, 51, 110
2, 34320, Note_on_c, 9, 35, 127
2, 34380, Note_on_c, 9, 35, 0
2, 34380, Note_on_c, 9, 51, 0
2, 34380, Note_on_c, 9, 42, 0
2, 34410, Note_on_c, 9, 40, 127
2, 34440, Note_on_c, 9, 40, 0
2, 34440, Note_on_c, 9, 42, 90
2, 34440, Note_on_c, 9, 51, 110
2, 34500, Note_on_c, 9, 51, 0
2, 34500, Note_on_c, 9, 42, 0
2, 34500, Note_on_c, 9, 35, 127
2, 34530, Note_on_c, 9, 35, 0
2, 34560, Note_on_c, 9, 55, 110
2, 34560, Note_on_c, 9, 42, 90
2, 34560, Note_on_c, 9, 35, 127
2, 34620, Note_on_c, 9, 35, 0
2, 34620, Note_on_c, 9, 42, 0
2, 34620, Note_on_c, 9, 55, 0
2, 34680, Note_on_c, 9, 42, 90
2, 34680, Note_on_c, 9, 51, 110
2, 34680, Note_on_c, 9, 40, 127
2, 34740, Note_on_c, 9, 40, 0
2, 34740, Note_on_c, 9, 51, 0
2, 34740, Note_on_c, 9, 42, 0
2, 34800, Note_on_c, 9, 42, 90
2, 34800, Note_on_c, 9, 51, 110
2, 34800, Note_on_c, 9, 35, 127
2, 34860, Note_on_c, 9, 35, 0
2, 34860, Note_on_c, 9, 51, 0
2, 34860, Note_on_c, 9, 42, 0
2, 34920, Note_on_c, 9, 42, 90
2, 34920, Note_on_c, 9, 51, 110
2, 34920, Note_on_c, 9, 40, 127
2, 34980, Note_on_c, 9, 40, 0
2, 34980, Note_on_c, 9, 51, 0
2, 34980, Note_on_c, 9, 42, 0
2, 35040, Note_on_c, 9, 42, 90
2, 35040, Note_on_c, 9, 51, 110
2, 35040, Note_on_c, 9, 35, 127
2, 35100, Note_on_c, 9, 35, 0
2, 35100, Note_on_c, 9, 51, 0
2, 35100, Note_on_c, 9, 42, 0
2, 35160, Note_on_c, 9, 42, 90
2, 35160, Note_on_c, 9, 51, 110
2, 35160, Note_on_c, 9, 40, 127
2, 35220, Note_on_c, 9, 40, 0
2, 35220, Note_on_c, 9, 51, 0
2, 35220, Note_on_c, 9, 42, 0
2, 35280, Note_on_c, 9, 42, 90
2, 35280, Note_on_c, 9, 51, 110
2, 35280, Note_on_c, 9, 35, 127
2, 35340, Note_on_c, 9, 35, 0
2, 35340, Note_on_c, 9, 51, 0
2, 35340, Note_on_c, 9, 42, 0
2, 35400, Note_on_c, 9, 42, 90
2, 35400, Note_on_c, 9, 51, 110
2, 35400, Note_on_c, 9, 40, 127
2, 35430, Note_on_c, 9, 40, 127
2, 35460, Note_on_c, 9, 40, 0
2, 35460, Note_on_c, 9, 42, 0
2, 35460, Note_on_c, 9, 51, 0
2, 35460, Note_on_c, 9, 40, 0
2, 35520, Note_on_c, 9, 35, 127
2, 35520, Note_on_c, 9, 55, 90
2, 35520, Note_on_c, 9, 42, 85
2, 35550, Note_on_c, 9, 55, 0
2, 35550, Note_on_c, 9, 51, 90
2, 35580, Note_on_c, 9, 51, 0
2, 35580, Note_on_c, 9, 35, 0
2, 35580, Note_on_c, 9, 51, 75
2, 35610, Note_on_c, 9, 51, 0
2, 35610, Note_on_c, 9, 51, 90
2, 35640, Note_on_c, 9, 51, 0
2, 35640, Note_on_c, 9, 42, 0
2, 35640, Note_on_c, 9, 42, 85
2, 35640, Note_on_c, 9, 59, 90
2, 35640, Note_on_c, 9, 35, 127
2, 35670, Note_on_c, 9, 59, 0
2, 35670, Note_on_c, 9, 51, 90
2, 35700, Note_on_c, 9, 51, 0
2, 35700, Note_on_c, 9, 35, 0
2, 35700, Note_on_c, 9, 59, 75
2, 35730, Note_on_c, 9, 59, 0
2, 35730, Note_on_c, 9, 51, 90
2, 35760, Note_on_c, 9, 51, 0
2, 35760, Note_on_c, 9, 42, 0
2, 35760, Note_on_c, 9, 42, 85
2, 35760, Note_on_c, 9, 59, 90
2, 35790, Note_on_c, 9, 59, 0
2, 35790, Note_on_c, 9, 51, 90
2, 35820, Note_on_c, 9, 51, 0
2, 35820, Note_on_c, 9, 46, 80
2, 35850, Note_on_c, 9, 46, 0
2, 35850, Note_on_c, 9, 51, 90
2, 35880, Note_on_c, 9, 51, 0
2, 35880, Note_on_c, 9, 42, 0
2, 35880, Note_on_c, 9, 42, 85
2, 35880, Note_on_c, 9, 59, 90
2, 35880, Note_on_c, 9, 35, 127
2, 35910, Note_on_c, 9, 59, 0
2, 35910, Note_on_c, 9, 51, 90
2, 35940, Note_on_c, 9, 51, 0
2, 35940, Note_on_c, 9, 35, 0
2, 35940, Note_on_c, 9, 59, 75
2, 35970, Note_on_c, 9, 59, 0
2, 35970, Note_on_c, 9, 51, 90
2, 36000, Note_on_c, 9, 51, 0
2, 36000, Note_on_c, 9, 42, 0
2, 36000, Note_on_c, 9, 42, 85
2, 36000, Note_on_c, 9, 59, 90
2, 36030, Note_on_c, 9, 59, 0
2, 36030, Note_on_c, 9, 51, 90
2, 36060, Note_on_c, 9, 51, 0
2, 36060, Note_on_c, 9, 59, 75
2, 36090, Note_on_c, 9, 59, 0
2, 36090, Note_on_c, 9, 51, 90
2, 36120, Note_on_c, 9, 51, 0
2, 36120, Note_on_c, 9, 42, 0
2, 36120, Note_on_c, 9, 42, 85
2, 36120, Note_on_c, 9, 59, 90
2, 36120, Note_on_c, 9, 35, 127
2, 36150, Note_on_c, 9, 59, 0
2, 36150, Note_on_c, 9, 51, 90
2, 36180, Note_on_c, 9, 51, 0
2, 36180, Note_on_c, 9, 35, 0
2, 36180, Note_on_c, 9, 59, 75
2, 36210, Note_on_c, 9, 59, 0
2, 36210, Note_on_c, 9, 51, 90
2, 36240, Note_on_c, 9, 51, 0
2, 36240, Note_on_c, 9, 42, 0
2, 36240, Note_on_c, 9, 42, 85
2, 36240, Note_on_c, 9, 59, 90
2, 36270, Note_on_c, 9, 59, 0
2, 36270, Note_on_c, 9, 51, 90
2, 36300, Note_on_c, 9, 51, 0
2, 36300, Note_on_c, 9, 46, 80
2, 36330, Note_on_c, 9, 46, 0
2, 36330, Note_on_c, 9, 51, 90
2, 36360, Note_on_c, 9, 51, 0
2, 36360, Note_on_c, 9, 42, 0
2, 36360, Note_on_c, 9, 42, 85
2, 36360, Note_on_c, 9, 59, 90
2, 36360, Note_on_c, 9, 35, 127
2, 36390, Note_on_c, 9, 59, 0
2, 36390, Note_on_c, 9, 51, 90
2, 36420, Note_on_c, 9, 51, 0
2, 36420, Note_on_c, 9, 35, 0
2, 36420, Note_on_c, 9, 59, 75
2, 36450, Note_on_c, 9, 59, 0
2, 36450, Note_on_c, 9, 51, 90
2, 36480, Note_on_c, 9, 51, 0
2, 36480, Note_on_c, 9, 42, 0
2, 36480, Note_on_c, 9, 59, 75
2, 36480, Note_on_c, 9, 42, 85
2, 36510, Note_on_c, 9, 59, 0
2, 36540, Note_on_c, 9, 51, 75
2, 36570, Note_on_c, 9, 51, 0
2, 36600, Note_on_c, 9, 42, 0
2, 36600, Note_on_c, 9, 59, 75
2, 36600, Note_on_c, 9, 42, 85
2, 36630, Note_on_c, 9, 59, 0
2, 36660, Note_on_c, 9, 51, 75
2, 36690, Note_on_c, 9, 51, 0
2, 36720, Note_on_c, 9, 42, 0
2, 36720, Note_on_c, 9, 59, 75
2, 36720, Note_on_c, 9, 42, 85
2, 36750, Note_on_c, 9, 59, 0
2, 36780, Note_on_c, 9, 51, 75
2, 36810, Note_on_c, 9, 51, 0
2, 36840, Note_on_c, 9, 42, 0
2, 36840, Note_on_c, 9, 55, 75
2, 36840, Note_on_c, 9, 42, 85
2, 36840, Note_on_c, 9, 35, 127
2, 36870, Note_on_c, 9, 55, 0
2, 36900, Note_on_c, 9, 35, 0
2, 36960, Note_on_c, 9, 42, 0
2, 36960, Note_on_c, 9, 42, 85
2, 37080, Note_on_c, 9, 42, 0
2, 37080, Note_on_c, 9, 35, 127
2, 37080, Note_on_c, 9, 42, 85
2, 37140, Note_on_c, 9, 35, 0
2, 37200, Note_on_c, 9, 42, 0
2, 37200, Note_on_c, 9, 42, 85
2, 37320, Note_on_c, 9, 42, 0
2, 37320, Note_on_c, 9, 42, 85
2, 37440, Note_on_c, 9, 42, 0
2, 37440, Note_on_c, 9, 52, 85
2, 37560, Note_on_c, 9, 52, 0
2, 38400, Note_on_c, 9, 42, 85
2, 38520, Note_on_c, 9, 42, 0
2, 38520, Note_on_c, 9, 42, 85
2, 38520, Note_on_c, 9, 35, 127
2, 38640, Note_on_c, 9, 35, 0
2, 38640, Note_on_c, 9, 42, 0
2, 38640, Note_on_c, 9, 42, 85
2, 38760, Note_on_c, 9, 42, 0
2, 38760, Note_on_c, 9, 42, 85
2, 38760, Note_on_c, 9, 35, 127
2, 38880, Note_on_c, 9, 35, 0
2, 38880, Note_on_c, 9, 42, 0
2, 38880, Note_on_c, 9, 42, 85
2, 39000, Note_on_c, 9, 42, 0
2, 39000, Note_on_c, 9, 42, 85
2, 39000, Note_on_c, 9, 35, 127
2, 39030, Note_on_c, 9, 35, 0
2, 39060, Note_on_c, 9, 35, 127
2, 39090, Note_on_c, 9, 35, 0
2, 39120, Note_on_c, 9, 42, 0
2, 39120, Note_on_c, 9, 42, 85
2, 39150, Note_on_c, 9, 35, 127
2, 39180, Note_on_c, 9, 35, 0
2, 39240, Note_on_c, 9, 42, 0
2, 39240, Note_on_c, 9, 42, 85
2, 39240, Note_on_c, 9, 35, 127
2, 39270, Note_on_c, 9, 35, 0
2, 39360, Note_on_c, 9, 42, 0
2, 39360, Note_on_c, 9, 42, 85
2, 39480, Note_on_c, 9, 42, 0
2, 39480, Note_on_c, 9, 42, 85
2, 39480, Note_on_c, 9, 35, 127
2, 39600, Note_on_c, 9, 35, 0
2, 39600, Note_on_c, 9, 42, 0
2, 39600, Note_on_c, 9, 42, 85
2, 39720, Note_on_c, 9, 42, 0
2, 39720, Note_on_c, 9, 42, 85
2, 39720, Note_on_c, 9, 35, 127
2, 39840, Note_on_c, 9, 35, 0
2, 39840, Note_on_c, 9, 42, 0
2, 39840, Note_on_c, 9, 46, 95
2, 39870, Note_on_c, 9, 46, 0
2, 39900, Note_on_c, 9, 40, 127
2, 39930, Note_on_c, 9, 40, 0
2, 39990, Note_on_c, 9, 47, 127
2, 40020, Note_on_c, 9, 47, 0
2, 40080, Note_on_c, 9, 43, 127
2, 40110, Note_on_c, 9, 43, 0
2, 40170, Note_on_c, 9, 40, 127
2, 40200, Note_on_c, 9, 40, 0
2, 40200, Note_on_c, 9, 40, 127
2, 40230, Note_on_c, 9, 40, 0
2, 40260, Note_on_c, 9, 46, 95
2, 40320, Note_on_c, 9, 46, 0
2, 40320, Note_on_c, 9, 42, 90
2, 40320, Note_on_c, 9, 35, 127
2, 40350, Note_on_c, 9, 35, 0
2, 40350, Note_on_c, 9, 42, 0
2, 40440, Note_on_c, 9, 42, 90
2, 40440, Note_on_c, 9, 37, 127
2, 40470, Note_on_c, 9, 37, 0
2, 40470, Note_on_c, 9, 42, 0
2, 40500, Note_on_c, 9, 35, 127
2, 40530, Note_on_c, 9, 35, 0
2, 40560, Note_on_c, 9, 42, 90
2, 40560, Note_on_c, 9, 35, 127
2, 40590, Note_on_c, 9, 35, 0
2, 40590, Note_on_c, 9, 42, 0
2, 40680, Note_on_c, 9, 42, 90
2, 40680, Note_on_c, 9, 37, 127
2, 40710, Note_on_c, 9, 37, 0
2, 40710, Note_on_c, 9, 42, 0
2, 40800, Note_on_c, 9, 42, 90
2, 40800, Note_on_c, 9, 35, 127
2, 40830, Note_on_c, 9, 35, 0
2, 40830, Note_on_c, 9, 42, 0
2, 40920, Note_on_c, 9, 42, 90
2, 40920, Note_on_c, 9, 37, 127
2, 40950, Note_on_c, 9, 37, 0
2, 40950, Note_on_c, 9, 42, 0
2, 40980, Note_on_c, 9, 35, 127
2, 41010, Note_on_c, 9, 35, 0
2, 41040, Note_on_c, 9, 42, 90
2, 41040, Note_on_c, 9, 35, 127
2, 41070, Note_on_c, 9, 35, 0
2, 41070, Note_on_c, 9, 42, 0
2, 41160, Note_on_c, 9, 42, 90
2, 41160, Note_on_c, 9, 37, 127
2, 41190, Note_on_c, 9, 37, 0
2, 41190, Note_on_c, 9, 42, 0
2, 41280, Note_on_c, 9, 42, 90
2, 41280, Note_on_c, 9, 35, 127
2, 41310, Note_on_c, 9, 35, 0
2, 41310, Note_on_c, 9, 42, 0
2, 41400, Note_on_c, 9, 42, 90
2, 41400, Note_on_c, 9, 37, 127
2, 41430, Note_on_c, 9, 37, 0
2, 41430, Note_on_c, 9, 42, 0
2, 41460, Note_on_c, 9, 35, 127
2, 41490, Note_on_c, 9, 35, 0
2, 41520, Note_on_c, 9, 42, 90
2, 41520, Note_on_c, 9, 35, 127
2, 41550, Note_on_c, 9, 35, 0
2, 41550, Note_on_c, 9, 42, 0
2, 41640, Note_on_c, 9, 42, 90
2, 41640, Note_on_c, 9, 37, 127
2, 41670, Note_on_c, 9, 37, 0
2, 41670, Note_on_c, 9, 42, 0
2, 41760, Note_on_c, 9, 42, 90
2, 41760, Note_on_c, 9, 35, 127
2, 41790, Note_on_c, 9, 35, 0
2, 41790, Note_on_c, 9, 42, 0
2, 41880, Note_on_c, 9, 42, 90
2, 41880, Note_on_c, 9, 37, 127
2, 41910, Note_on_c, 9, 37, 0
2, 41910, Note_on_c, 9, 42, 0
2, 41940, Note_on_c, 9, 35, 127
2, 41970, Note_on_c, 9, 35, 0
2, 42000, Note_on_c, 9, 42, 90
2, 42000, Note_on_c, 9, 35, 127
2, 42030, Note_on_c, 9, 35, 0
2, 42030, Note_on_c, 9, 42, 0
2, 42120, Note_on_c, 9, 42, 90
2, 42120, Note_on_c, 9, 37, 127
2, 42150, Note_on_c, 9, 37, 0
2, 42150, Note_on_c, 9, 42, 0
2, 42180, Note_on_c, 9, 46, 90
2, 42210, Note_on_c, 9, 46, 0
2, 42240, Note_on_c, 9, 42, 90
2, 42240, Note_on_c, 9, 35, 127
2, 42270, Note_on_c, 9, 35, 0
2, 42270, Note_on_c, 9, 42, 0
2, 42360, Note_on_c, 9, 42, 90
2, 42360, Note_on_c, 9, 37, 127
2, 42390, Note_on_c, 9, 37, 0
2, 42390, Note_on_c, 9, 42, 0
2, 42420, Note_on_c, 9, 35, 127
2, 42450, Note_on_c, 9, 35, 0
2, 42480, Note_on_c, 9, 42, 90
2, 42480, Note_on_c, 9, 35, 127
2, 42510, Note_on_c, 9, 35, 0
2, 42510, Note_on_c, 9, 42, 0
2, 42600, Note_on_c, 9, 42, 90
2, 42600, Note_on_c, 9, 37, 127
2, 42630, Note_on_c, 9, 37, 0
2, 42630, Note_on_c, 9, 42, 0
2, 42720, Note_on_c, 9, 42, 90
2, 42720, Note_on_c, 9, 35, 127
2, 42750, Note_on_c, 9, 35, 0
2, 42750, Note_on_c, 9, 42, 0
2, 42840, Note_on_c, 9, 42, 90
2, 42840, Note_on_c, 9, 37, 127
2, 42870, Note_on_c, 9, 37, 0
2, 42870, Note_on_c, 9, 42, 0
2, 42900, Note_on_c, 9, 35, 127
2, 42930, Note_on_c, 9, 35, 0
2, 42960, Note_on_c, 9, 42, 90
2, 42960, Note_on_c, 9, 35, 127
2, 42990, Note_on_c, 9, 35, 0
2, 42990, Note_on_c, 9, 42, 0
2, 43080, Note_on_c, 9, 42, 90
2, 43080, Note_on_c, 9, 37, 127
2, 43110, Note_on_c, 9, 37, 0
2, 43110, Note_on_c, 9, 42, 0
2, 43200, Note_on_c, 9, 42, 90
2, 43200, Note_on_c, 9, 35, 127
2, 43230, Note_on_c, 9, 35, 0
2, 43230, Note_on_c, 9, 42, 0
2, 43320, Note_on_c, 9, 42, 90
2, 43320, Note_on_c, 9, 37, 127
2, 43350, Note_on_c, 9, 37, 0
2, 43350, Note_on_c, 9, 42, 0
2, 43380, Note_on_c, 9, 35, 127
2, 43410, Note_on_c, 9, 35, 0
2, 43440, Note_on_c, 9, 42, 90
2, 43440, Note_on_c, 9, 35, 127
2, 43470, Note_on_c, 9, 35, 0
2, 43470, Note_on_c, 9, 42, 0
2, 43560, Note_on_c, 9, 42, 90
2, 43560, Note_on_c, 9, 37, 127
2, 43590, Note_on_c, 9, 37, 0
2, 43590, Note_on_c, 9, 42, 0
2, 43680, Note_on_c, 9, 42, 90
2, 43680, Note_on_c, 9, 35, 127
2, 43710, Note_on_c, 9, 35, 0
2, 43710, Note_on_c, 9, 42, 0
2, 43740, Note_on_c, 9, 35, 127
2, 43770, Note_on_c, 9, 35, 0
2, 43800, Note_on_c, 9, 42, 90
2, 43800, Note_on_c, 9, 37, 127
2, 43830, Note_on_c, 9, 37, 0
2, 43830, Note_on_c, 9, 42, 0
2, 43860, Note_on_c, 9, 35, 127
2, 43890, Note_on_c, 9, 35, 0
2, 43920, Note_on_c, 9, 42, 90
2, 43920, Note_on_c, 9, 35, 127
2, 43950, Note_on_c, 9, 35, 0
2, 43950, Note_on_c, 9, 42, 0
2, 44040, Note_on_c, 9, 42, 90
2, 44040, Note_on_c, 9, 37, 127
2, 44070, Note_on_c, 9, 37, 0
2, 44070, Note_on_c, 9, 42, 0
2, 44100, Note_on_c, 9, 46, 90
2, 44130, Note_on_c, 9, 46, 0
2, 44160, Note_on_c, 9, 42, 90
2, 44160, Note_on_c, 9, 35, 127
2, 44190, Note_on_c, 9, 35, 0
2, 44190, Note_on_c, 9, 42, 0
2, 44280, Note_on_c, 9, 42, 90
2, 44280, Note_on_c, 9, 37, 127
2, 44310, Note_on_c, 9, 37, 0
2, 44310, Note_on_c, 9, 42, 0
2, 44340, Note_on_c, 9, 35, 127
2, 44370, Note_on_c, 9, 35, 0
2, 44400, Note_on_c, 9, 42, 90
2, 44400, Note_on_c, 9, 35, 127
2, 44430, Note_on_c, 9, 35, 0
2, 44430, Note_on_c, 9, 42, 0
2, 44520, Note_on_c, 9, 42, 90
2, 44520, Note_on_c, 9, 37, 127
2, 44550, Note_on_c, 9, 37, 0
2, 44550, Note_on_c, 9, 42, 0
2, 44640, Note_on_c, 9, 42, 90
2, 44640, Note_on_c, 9, 35, 127
2, 44670, Note_on_c, 9, 35, 0
2, 44670, Note_on_c, 9, 42, 0
2, 44760, Note_on_c, 9, 42, 90
2, 44760, Note_on_c, 9, 37, 127
2, 44790, Note_on_c, 9, 37, 0
2, 44790, Note_on_c, 9, 42, 0
2, 44820, Note_on_c, 9, 35, 127
2, 44850, Note_on_c, 9, 35, 0
2, 44880, Note_on_c, 9, 42, 90
2, 44880, Note_on_c, 9, 35, 127
2, 44910, Note_on_c, 9, 35, 0
2, 44910, Note_on_c, 9, 42, 0
2, 44910, Note_on_c, 9, 37, 127
2, 44940, Note_on_c, 9, 37, 0
2, 45000, Note_on_c, 9, 42, 90
2, 45000, Note_on_c, 9, 37, 127
2, 45030, Note_on_c, 9, 37, 0
2, 45030, Note_on_c, 9, 42, 0
2, 45120, Note_on_c, 9, 42, 90
2, 45120, Note_on_c, 9, 35, 127
2, 45150, Note_on_c, 9, 35, 0
2, 45150, Note_on_c, 9, 42, 0
2, 45240, Note_on_c, 9, 42, 90
2, 45240, Note_on_c, 9, 37, 127
2, 45270, Note_on_c, 9, 37, 0
2, 45270, Note_on_c, 9, 42, 0
2, 45300, Note_on_c, 9, 35, 127
2, 45330, Note_on_c, 9, 35, 0
2, 45360, Note_on_c, 9, 42, 90
2, 45360, Note_on_c, 9, 35, 127
2, 45390, Note_on_c, 9, 35, 0
2, 45390, Note_on_c, 9, 42, 0
2, 45480, Note_on_c, 9, 42, 90
2, 45480, Note_on_c, 9, 37, 127
2, 45510, Note_on_c, 9, 37, 0
2, 45510, Note_on_c, 9, 42, 0
2, 45600, Note_on_c, 9, 42, 90
2, 45600, Note_on_c, 9, 35, 127
2, 45630, Note_on_c, 9, 35, 0
2, 45630, Note_on_c, 9, 42, 0
2, 45720, Note_on_c, 9, 42, 90
2, 45720, Note_on_c, 9, 37, 127
2, 45750, Note_on_c, 9, 37, 0
2, 45750, Note_on_c, 9, 42, 0
2, 45780, Note_on_c, 9, 35, 127
2, 45810, Note_on_c, 9, 35, 0
2, 45840, Note_on_c, 9, 42, 90
2, 45840, Note_on_c, 9, 35, 127
2, 45870, Note_on_c, 9, 35, 0
2, 45870, Note_on_c, 9, 42, 0
2, 45960, Note_on_c, 9, 47, 110
2, 45960, Note_on_c, 9, 42, 90
2, 45960, Note_on_c, 9, 37, 127
2, 45990, Note_on_c, 9, 37, 0
2, 45990, Note_on_c, 9, 42, 0
2, 45990, Note_on_c, 9, 47, 0
2, 46080, Note_on_c, 9, 55, 70
2, 46080, Note_on_c, 9, 42, 90
2, 46080, Note_on_c, 9, 35, 127
2, 46110, Note_on_c, 9, 35, 0
2, 46110, Note_on_c, 9, 42, 0
2, 46200, Note_on_c, 9, 55, 0
2, 46200, Note_on_c, 9, 42, 90
2, 46200, Note_on_c, 9, 37, 127
2, 46230, Note_on_c, 9, 37, 0
2, 46230, Note_on_c, 9, 42, 0
2, 46260, Note_on_c, 9, 35, 127
2, 46290, Note_on_c, 9, 35, 0
2, 46320, Note_on_c, 9, 42, 90
2, 46320, Note_on_c, 9, 35, 127
2, 46350, Note_on_c, 9, 35, 0
2, 46350, Note_on_c, 9, 42, 0
2, 46440, Note_on_c, 9, 42, 90
2, 46440, Note_on_c, 9, 37, 127
2, 46470, Note_on_c, 9, 37, 0
2, 46470, Note_on_c, 9, 42, 0
2, 46560, Note_on_c, 9, 42, 90
2, 46560, Note_on_c, 9, 35, 127
2, 46590, Note_on_c, 9, 35, 0
2, 46590, Note_on_c, 9, 42, 0
2, 46650, Note_on_c, 9, 35, 127
2, 46680, Note_on_c, 9, 35, 0
2, 46680, Note_on_c, 9, 42, 90
2, 46680, Note_on_c, 9, 37, 127
2, 46710, Note_on_c, 9, 37, 0
2, 46710, Note_on_c, 9, 42, 0
2, 46740, Note_on_c, 9, 35, 127
2, 46770, Note_on_c, 9, 35, 0
2, 46800, Note_on_c, 9, 42, 90
2, 46800, Note_on_c, 9, 35, 127
2, 46830, Note_on_c, 9, 35, 0
2, 46830, Note_on_c, 9, 42, 0
2, 46920, Note_on_c, 9, 42, 90
2, 46920, Note_on_c, 9, 37, 127
2, 46950, Note_on_c, 9, 37, 0
2, 46950, Note_on_c, 9, 42, 0
2, 47040, Note_on_c, 9, 42, 90
2, 47040, Note_on_c, 9, 35, 127
2, 47070, Note_on_c, 9, 35, 0
2, 47070, Note_on_c, 9, 42, 0
2, 47160, Note_on_c, 9, 42, 90
2, 47160, Note_on_c, 9, 37, 127
2, 47190, Note_on_c, 9, 37, 0
2, 47190, Note_on_c, 9, 42, 0
2, 47220, Note_on_c, 9, 35, 127
2, 47250, Note_on_c, 9, 35, 0
2, 47280, Note_on_c, 9, 42, 90
2, 47280, Note_on_c, 9, 35, 127
2, 47310, Note_on_c, 9, 35, 0
2, 47310, Note_on_c, 9, 42, 0
2, 47400, Note_on_c, 9, 42, 90
2, 47400, Note_on_c, 9, 37, 127
2, 47430, Note_on_c, 9, 37, 0
2, 47430, Note_on_c, 9, 42, 0
2, 47520, Note_on_c, 9, 42, 90
2, 47520, Note_on_c, 9, 35, 127
2, 47550, Note_on_c, 9, 35, 0
2, 47550, Note_on_c, 9, 42, 0
2, 47640, Note_on_c, 9, 42, 90
2, 47640, Note_on_c, 9, 37, 127
2, 47670, Note_on_c, 9, 37, 0
2, 47670, Note_on_c, 9, 42, 0
2, 47700, Note_on_c, 9, 35, 127
2, 47730, Note_on_c, 9, 35, 0
2, 47760, Note_on_c, 9, 42, 90
2, 47760, Note_on_c, 9, 35, 127
2, 47790, Note_on_c, 9, 35, 0
2, 47790, Note_on_c, 9, 42, 0
2, 47880, Note_on_c, 9, 40, 127
2, 47880, Note_on_c, 9, 42, 90
2, 47910, Note_on_c, 9, 42, 0
2, 47910, Note_on_c, 9, 40, 0
2, 47940, Note_on_c, 9, 35, 127
2, 47970, Note_on_c, 9, 35, 0
2, 48000, Note_on_c, 9, 55, 80
2, 48000, Note_on_c, 9, 42, 90
2, 48000, Note_on_c, 9, 35, 127
2, 48030, Note_on_c, 9, 35, 0
2, 48030, Note_on_c, 9, 42, 0
2, 48030, Note_on_c, 9, 55, 0
2, 48120, Note_on_c, 9, 40, 127
2, 48120, Note_on_c, 9, 42, 90
2, 48150, Note_on_c, 9, 42, 0
2, 48150, Note_on_c, 9, 40, 0
2, 48180, Note_on_c, 9, 35, 127
2, 48210, Note_on_c, 9, 35, 0
2, 48240, Note_on_c, 9, 42, 90
2, 48240, Note_on_c, 9, 35, 127
2, 48270, Note_on_c, 9, 35, 0
2, 48270, Note_on_c, 9, 42, 0
2, 48360, Note_on_c, 9, 40, 127
2, 48360, Note_on_c, 9, 42, 90
2, 48390, Note_on_c, 9, 42, 0
2, 48390, Note_on_c, 9, 40, 0
2, 48480, Note_on_c, 9, 42, 90
2, 48480, Note_on_c, 9, 35, 127
2, 48510, Note_on_c, 9, 35, 0
2, 48510, Note_on_c, 9, 42, 0
2, 48600, Note_on_c, 9, 40, 127
2, 48600, Note_on_c, 9, 42, 90
2, 48630, Note_on_c, 9, 42, 0
2, 48630, Note_on_c, 9, 40, 0
2, 48720, Note_on_c, 9, 42, 90
2, 48720, Note_on_c, 9, 35, 127
2, 48750, Note_on_c, 9, 35, 0
2, 48750, Note_on_c, 9, 42, 0
2, 48780, Note_on_c, 9, 35, 127
2, 48810, Note_on_c, 9, 35, 0
2, 48840, Note_on_c, 9, 40, 127
2, 48840, Note_on_c, 9, 42, 90
2, 48870, Note_on_c, 9, 42, 0
2, 48870, Note_on_c, 9, 40, 0
2, 48900, Note_on_c, 9, 35, 127
2, 48930, Note_on_c, 9, 35, 0
2, 48960, Note_on_c, 9, 42, 90
2, 48960, Note_on_c, 9, 35, 127
2, 48990, Note_on_c, 9, 35, 0
2, 48990, Note_on_c, 9, 42, 0
2, 49080, Note_on_c, 9, 40, 127
2, 49080, Note_on_c, 9, 42, 90
2, 49110, Note_on_c, 9, 42, 0
2, 49110, Note_on_c, 9, 40, 0
2, 49140, Note_on_c, 9, 35, 127
2, 49170, Note_on_c, 9, 35, 0
2, 49200, Note_on_c, 9, 42, 90
2, 49200, Note_on_c, 9, 35, 127
2, 49230, Note_on_c, 9, 35, 0
2, 49230, Note_on_c, 9, 42, 0
2, 49320, Note_on_c, 9, 40, 127
2, 49320, Note_on_c, 9, 42, 90
2, 49350, Note_on_c, 9, 42, 0
2, 49350, Note_on_c, 9, 40, 0
2, 49440, Note_on_c, 9, 42, 90
2, 49440, Note_on_c, 9, 35, 127
2, 49470, Note_on_c, 9, 35, 0
2, 49470, Note_on_c, 9, 42, 0
2, 49560, Note_on_c, 9, 40, 127
2, 49560, Note_on_c, 9, 42, 90
2, 49590, Note_on_c, 9, 42, 0
2, 49590, Note_on_c, 9, 40, 0
2, 49620, Note_on_c, 9, 35, 127
2, 49650, Note_on_c, 9, 35, 0
2, 49680, Note_on_c, 9, 42, 90
2, 49680, Note_on_c, 9, 35, 127
2, 49710, Note_on_c, 9, 35, 0
2, 49710, Note_on_c, 9, 42, 0
2, 49740, Note_on_c, 9, 46, 90
2, 49770, Note_on_c, 9, 46, 0
2, 49800, Note_on_c, 9, 40, 127
2, 49800, Note_on_c, 9, 42, 90
2, 49830, Note_on_c, 9, 42, 0
2, 49830, Note_on_c, 9, 40, 0
2, 49860, Note_on_c, 9, 46, 90
2, 49890, Note_on_c, 9, 46, 0
2, 49920, Note_on_c, 9, 42, 90
2, 49920, Note_on_c, 9, 35, 127
2, 49950, Note_on_c, 9, 35, 0
2, 49950, Note_on_c, 9, 42, 0
2, 50040, Note_on_c, 9, 40, 127
2, 50040, Note_on_c, 9, 42, 90
2, 50070, Note_on_c, 9, 42, 0
2, 50070, Note_on_c, 9, 40, 0
2, 50100, Note_on_c, 9, 35, 127
2, 50130, Note_on_c, 9, 35, 0
2, 50160, Note_on_c, 9, 42, 90
2, 50160, Note_on_c, 9, 35, 127
2, 50190, Note_on_c, 9, 35, 0
2, 50190, Note_on_c, 9, 42, 0
2, 50280, Note_on_c, 9, 40, 127
2, 50280, Note_on_c, 9, 42, 90
2, 50310, Note_on_c, 9, 42, 0
2, 50310, Note_on_c, 9, 40, 0
2, 50400, Note_on_c, 9, 42, 90
2, 50400, Note_on_c, 9, 35, 127
2, 50430, Note_on_c, 9, 35, 0
2, 50430, Note_on_c, 9, 42, 0
2, 50490, Note_on_c, 9, 35, 127
2, 50520, Note_on_c, 9, 35, 0
2, 50520, Note_on_c, 9, 40, 127
2, 50520, Note_on_c, 9, 42, 90
2, 50550, Note_on_c, 9, 42, 0
2, 50550, Note_on_c, 9, 40, 0
2, 50580, Note_on_c, 9, 35, 127
2, 50610, Note_on_c, 9, 35, 0
2, 50640, Note_on_c, 9, 42, 90
2, 50640, Note_on_c, 9, 35, 127
2, 50670, Note_on_c, 9, 35, 0
2, 50670, Note_on_c, 9, 42, 0
2, 50760, Note_on_c, 9, 40, 127
2, 50760, Note_on_c, 9, 42, 90
2, 50790, Note_on_c, 9, 42, 0
2, 50790, Note_on_c, 9, 40, 0
2, 50880, Note_on_c, 9, 42, 90
2, 50880, Note_on_c, 9, 35, 127
2, 50910, Note_on_c, 9, 35, 0
2, 50910, Note_on_c, 9, 42, 0
2, 51000, Note_on_c, 9, 40, 127
2, 51000, Note_on_c, 9, 42, 90
2, 51030, Note_on_c, 9, 42, 0
2, 51030, Note_on_c, 9, 40, 0
2, 51060, Note_on_c, 9, 35, 127
2, 51090, Note_on_c, 9, 35, 0
2, 51120, Note_on_c, 9, 42, 90
2, 51120, Note_on_c, 9, 35, 127
2, 51150, Note_on_c, 9, 35, 0
2, 51150, Note_on_c, 9, 42, 0
2, 51240, Note_on_c, 9, 40, 127
2, 51240, Note_on_c, 9, 42, 90
2, 51270, Note_on_c, 9, 42, 0
2, 51270, Note_on_c, 9, 40, 0
2, 51360, Note_on_c, 9, 42, 90
2, 51360, Note_on_c, 9, 35, 127
2, 51390, Note_on_c, 9, 35, 0
2, 51390, Note_on_c, 9, 42, 0
2, 51480, Note_on_c, 9, 40, 127
2, 51480, Note_on_c, 9, 42, 90
2, 51510, Note_on_c, 9, 42, 0
2, 51510, Note_on_c, 9, 40, 0
2, 51540, Note_on_c, 9, 35, 127
2, 51570, Note_on_c, 9, 35, 0
2, 51600, Note_on_c, 9, 42, 90
2, 51600, Note_on_c, 9, 35, 127
2, 51630, Note_on_c, 9, 35, 0
2, 51630, Note_on_c, 9, 42, 0
2, 51720, Note_on_c, 9, 40, 127
2, 51720, Note_on_c, 9, 42, 90
2, 51750, Note_on_c, 9, 42, 0
2, 51750, Note_on_c, 9, 40, 0
2, 51810, Note_on_c, 9, 40, 127
2, 51840, Note_on_c, 9, 40, 0
2, 51840, Note_on_c, 9, 55, 127
2, 51840, Note_on_c, 9, 42, 90
2, 51840, Note_on_c, 9, 35, 127
2, 51870, Note_on_c, 9, 35, 0
2, 51870, Note_on_c, 9, 42, 0
2, 51870, Note_on_c, 9, 55, 0
2, 51960, Note_on_c, 9, 40, 127
2, 51960, Note_on_c, 9, 42, 90
2, 51990, Note_on_c, 9, 42, 0
2, 51990, Note_on_c, 9, 40, 0
2, 52020, Note_on_c, 9, 35, 127
2, 52050, Note_on_c, 9, 35, 0
2, 52080, Note_on_c, 9, 42, 90
2, 52080, Note_on_c, 9, 35, 127
2, 52110, Note_on_c, 9, 35, 0
2, 52110, Note_on_c, 9, 42, 0
2, 52200, Note_on_c, 9, 40, 127
2, 52200, Note_on_c, 9, 46, 90
2, 52230, Note_on_c, 9, 46, 0
2, 52230, Note_on_c, 9, 40, 0
2, 52320, Note_on_c, 9, 42, 90
2, 52320, Note_on_c, 9, 35, 127
2, 52350, Note_on_c, 9, 35, 0
2, 52350, Note_on_c, 9, 42, 0
2, 52410, Note_on_c, 9, 35, 127
2, 52440, Note_on_c, 9, 35, 0
2, 52440, Note_on_c, 9, 40, 127
2, 52440, Note_on_c, 9, 42, 90
2, 52470, Note_on_c, 9, 42, 0
2, 52470, Note_on_c, 9, 40, 0
2, 52500, Note_on_c, 9, 35, 127
2, 52530, Note_on_c, 9, 35, 0
2, 52560, Note_on_c, 9, 42, 90
2, 52560, Note_on_c, 9, 35, 127
2, 52590, Note_on_c, 9, 35, 0
2, 52590, Note_on_c, 9, 42, 0
2, 52680, Note_on_c, 9, 40, 127
2, 52680, Note_on_c, 9, 42, 90
2, 52710, Note_on_c, 9, 42, 0
2, 52710, Note_on_c, 9, 40, 0
2, 52800, Note_on_c, 9, 42, 90
2, 52800, Note_on_c, 9, 35, 127
2, 52830, Note_on_c, 9, 35, 0
2, 52830, Note_on_c, 9, 42, 0
2, 52920, Note_on_c, 9, 40, 127
2, 52920, Note_on_c, 9, 42, 90
2, 52950, Note_on_c, 9, 42, 0
2, 52950, Note_on_c, 9, 40, 0
2, 52980, Note_on_c, 9, 35, 127
2, 53010, Note_on_c, 9, 35, 0
2, 53040, Note_on_c, 9, 42, 90
2, 53040, Note_on_c, 9, 35, 127
2, 53070, Note_on_c, 9, 35, 0
2, 53070, Note_on_c, 9, 42, 0
2, 53160, Note_on_c, 9, 40, 127
2, 53160, Note_on_c, 9, 42, 90
2, 53190, Note_on_c, 9, 42, 0
2, 53190, Note_on_c, 9, 40, 0
2, 53280, Note_on_c, 9, 42, 90
2, 53280, Note_on_c, 9, 35, 127
2, 53310, Note_on_c, 9, 35, 0
2, 53310, Note_on_c, 9, 42, 0
2, 53400, Note_on_c, 9, 40, 127
2, 53400, Note_on_c, 9, 42, 90
2, 53430, Note_on_c, 9, 42, 0
2, 53430, Note_on_c, 9, 40, 0
2, 53460, Note_on_c, 9, 35, 127
2, 53490, Note_on_c, 9, 35, 0
2, 53520, Note_on_c, 9, 42, 90
2, 53520, Note_on_c, 9, 35, 127
2, 53550, Note_on_c, 9, 35, 0
2, 53550, Note_on_c, 9, 42, 0
2, 53640, Note_on_c, 9, 40, 127
2, 53640, Note_on_c, 9, 42, 90
2, 53670, Note_on_c, 9, 42, 0
2, 53670, Note_on_c, 9, 40, 0
2, 53760, Note_on_c, 9, 42, 90
2, 53760, Note_on_c, 9, 35, 127
2, 53790, Note_on_c, 9, 35, 0
2, 53790, Note_on_c, 9, 42, 0
2, 53850, Note_on_c, 9, 40, 127
2, 53880, Note_on_c, 9, 40, 0
2, 53880, Note_on_c, 9, 42, 90
2, 53910, Note_on_c, 9, 42, 0
2, 53940, Note_on_c, 9, 35, 127
2, 53970, Note_on_c, 9, 35, 0
2, 54000, Note_on_c, 9, 42, 90
2, 54000, Note_on_c, 9, 35, 127
2, 54030, Note_on_c, 9, 35, 0
2, 54030, Note_on_c, 9, 42, 0
2, 54120, Note_on_c, 9, 40, 127
2, 54120, Note_on_c, 9, 42, 90
2, 54150, Note_on_c, 9, 42, 0
2, 54150, Note_on_c, 9, 40, 0
2, 54240, Note_on_c, 9, 42, 90
2, 54240, Note_on_c, 9, 35, 127
2, 54270, Note_on_c, 9, 35, 0
2, 54270, Note_on_c, 9, 42, 0
2, 54360, Note_on_c, 9, 40, 127
2, 54360, Note_on_c, 9, 42, 90
2, 54390, Note_on_c, 9, 42, 0
2, 54390, Note_on_c, 9, 40, 0
2, 54420, Note_on_c, 9, 35, 127
2, 54450, Note_on_c, 9, 35, 0
2, 54480, Note_on_c, 9, 42, 90
2, 54480, Note_on_c, 9, 35, 127
2, 54510, Note_on_c, 9, 35, 0
2, 54510, Note_on_c, 9, 42, 0
2, 54600, Note_on_c, 9, 40, 127
2, 54600, Note_on_c, 9, 42, 90
2, 54630, Note_on_c, 9, 42, 0
2, 54630, Note_on_c, 9, 40, 0
2, 54720, Note_on_c, 9, 42, 90
2, 54720, Note_on_c, 9, 35, 127
2, 54750, Note_on_c, 9, 35, 0
2, 54750, Note_on_c, 9, 42, 0
2, 54840, Note_on_c, 9, 40, 127
2, 54840, Note_on_c, 9, 42, 90
2, 54870, Note_on_c, 9, 42, 0
2, 54870, Note_on_c, 9, 40, 0
2, 54900, Note_on_c, 9, 35, 127
2, 54930, Note_on_c, 9, 35, 0
2, 54960, Note_on_c, 9, 42, 90
2, 54960, Note_on_c, 9, 35, 127
2, 54990, Note_on_c, 9, 35, 0
2, 54990, Note_on_c, 9, 42, 0
2, 55080, Note_on_c, 9, 40, 127
2, 55080, Note_on_c, 9, 42, 90
2, 55110, Note_on_c, 9, 42, 0
2, 55110, Note_on_c, 9, 40, 0
2, 55200, Note_on_c, 9, 42, 90
2, 55200, Note_on_c, 9, 35, 127
2, 55230, Note_on_c, 9, 35, 0
2, 55230, Note_on_c, 9, 42, 0
2, 55320, Note_on_c, 9, 40, 127
2, 55320, Note_on_c, 9, 42, 90
2, 55350, Note_on_c, 9, 42, 0
2, 55350, Note_on_c, 9, 40, 0
2, 55380, Note_on_c, 9, 35, 127
2, 55410, Note_on_c, 9, 35, 0
2, 55440, Note_on_c, 9, 42, 90
2, 55440, Note_on_c, 9, 35, 127
2, 55470, Note_on_c, 9, 35, 0
2, 55470, Note_on_c, 9, 42, 0
2, 55560, Note_on_c, 9, 40, 127
2, 55560, Note_on_c, 9, 46, 90
2, 55590, Note_on_c, 9, 46, 0
2, 55590, Note_on_c, 9, 40, 0
2, 55680, Note_on_c, 9, 55, 120
2, 55680, Note_on_c, 9, 35, 127
2, 55740, Note_on_c, 9, 35, 0
2, 55740, Note_on_c, 9, 55, 0
2, 55800, Note_on_c, 9, 40, 127
2, 55800, Note_on_c, 9, 42, 90
2, 55860, Note_on_c, 9, 42, 0
2, 55860, Note_on_c, 9, 40, 0
2, 55860, Note_on_c, 9, 35, 127
2, 55920, Note_on_c, 9, 35, 0
2, 55920, Note_on_c, 9, 42, 90
2, 55920, Note_on_c, 9, 35, 127
2, 55980, Note_on_c, 9, 35, 0
2, 55980, Note_on_c, 9, 42, 0
2, 56040, Note_on_c, 9, 40, 127
2, 56040, Note_on_c, 9, 42, 90
2, 56100, Note_on_c, 9, 42, 0
2, 56100, Note_on_c, 9, 40, 0
2, 56100, Note_on_c, 9, 46, 100
2, 56100, Note_on_c, 9, 35, 127
2, 56160, Note_on_c, 9, 35, 0
2, 56160, Note_on_c, 9, 46, 0
2, 56160, Note_on_c, 9, 42, 90
2, 56220, Note_on_c, 9, 42, 0
2, 56220, Note_on_c, 9, 46, 100
2, 56220, Note_on_c, 9, 35, 127
2, 56280, Note_on_c, 9, 35, 0
2, 56280, Note_on_c, 9, 46, 0
2, 56280, Note_on_c, 9, 40, 127
2, 56280, Note_on_c, 9, 42, 90
2, 56340, Note_on_c, 9, 42, 0
2, 56340, Note_on_c, 9, 40, 0
2, 56340, Note_on_c, 9, 35, 120
2, 56400, Note_on_c, 9, 35, 0
2, 56400, Note_on_c, 9, 47, 120
2, 56400, Note_on_c, 9, 42, 90
2, 56460, Note_on_c, 9, 42, 0
2, 56460, Note_on_c, 9, 47, 0
2, 56460, Note_on_c, 9, 46, 100
2, 56460, Note_on_c, 9, 35, 127
2, 56520, Note_on_c, 9, 35, 0
2, 56520, Note_on_c, 9, 46, 0
2, 56580, Note_on_c, 9, 55, 120
2, 56580, Note_on_c, 9, 35, 127
2, 56640, Note_on_c, 9, 35, 0
2, 56640, Note_on_c, 9, 55, 0
2, 56640, Note_on_c, 9, 42, 90
2, 56700, Note_on_c, 9, 42, 0
2, 56760, Note_on_c, 9, 40, 127
2, 56760, Note_on_c, 9, 42, 90
2, 56820, Note_on_c, 9, 42, 0
2, 56820, Note_on_c, 9, 40, 0
2, 56820, Note_on_c, 9, 35, 127
2, 56880, Note_on_c, 9, 35, 0
2, 56880, Note_on_c, 9, 42, 90
2, 56880, Note_on_c, 9, 35, 127
2, 56940, Note_on_c, 9, 35, 0
2, 56940, Note_on_c, 9, 42, 0
2, 57000, Note_on_c, 9, 40, 127
2, 57000, Note_on_c, 9, 42, 90
2, 57060, Note_on_c, 9, 42, 0
2, 57060, Note_on_c, 9, 40, 0
2, 57060, Note_on_c, 9, 35, 127
2, 57120, Note_on_c, 9, 35, 0
2, 57120, Note_on_c, 9, 42, 90
2, 57120, Note_on_c, 9, 35, 127
2, 57180, Note_on_c, 9, 35, 0
2, 57180, Note_on_c, 9, 42, 0
2, 57240, Note_on_c, 9, 40, 127
2, 57240, Note_on_c, 9, 42, 90
2, 57300, Note_on_c, 9, 42, 0
2, 57300, Note_on_c, 9, 40, 0
2, 57360, Note_on_c, 9, 42, 90
2, 57360, Note_on_c, 9, 35, 127
2, 57420, Note_on_c, 9, 35, 0
2, 57420, Note_on_c, 9, 42, 0
2, 57420, Note_on_c, 9, 35, 127
2, 57480, Note_on_c, 9, 35, 0
2, 57480, Note_on_c, 9, 40, 127
2, 57480, Note_on_c, 9, 42, 90
2, 57540, Note_on_c, 9, 42, 0
2, 57540, Note_on_c, 9, 40, 0
2, 57540, Note_on_c, 9, 40, 127
2, 57600, Note_on_c, 9, 40, 0
2, 57600, Note_on_c, 9, 55, 127
2, 57600, Note_on_c, 9, 35, 127
2, 57660, Note_on_c, 9, 35, 0
2, 57660, Note_on_c, 9, 55, 0
2, 57660, Note_on_c, 9, 42, 90
2, 57720, Note_on_c, 9, 42, 0
2, 57720, Note_on_c, 9, 40, 127
2, 57780, Note_on_c, 9, 40, 0
2, 57780, Note_on_c, 9, 42, 90
2, 57840, Note_on_c, 9, 42, 0
2, 57840, Note_on_c, 9, 35, 127
2, 57900, Note_on_c, 9, 35, 0
2, 57900, Note_on_c, 9, 42, 90
2, 57960, Note_on_c, 9, 42, 0
2, 57960, Note_on_c, 9, 40, 127
2, 58020, Note_on_c, 9, 40, 0
2, 58020, Note_on_c, 9, 42, 90
2, 58080, Note_on_c, 9, 42, 0
2, 58080, Note_on_c, 9, 35, 127
2, 58140, Note_on_c, 9, 35, 0
2, 58140, Note_on_c, 9, 42, 90
2, 58200, Note_on_c, 9, 42, 0
2, 58200, Note_on_c, 9, 40, 127
2, 58260, Note_on_c, 9, 40, 0
2, 58260, Note_on_c, 9, 42, 90
2, 58320, Note_on_c, 9, 42, 0
2, 58320, Note_on_c, 9, 35, 127
2, 58380, Note_on_c, 9, 35, 0
2, 58380, Note_on_c, 9, 42, 90
2, 58440, Note_on_c, 9, 42, 0
2, 58440, Note_on_c, 9, 40, 127
2, 58500, Note_on_c, 9, 40, 0
2, 58500, Note_on_c, 9, 42, 90
2, 58560, Note_on_c, 9, 42, 0
2, 58560, Note_on_c, 9, 35, 127
2, 58620, Note_on_c, 9, 35, 0
2, 58620, Note_on_c, 9, 42, 90
2, 58680, Note_on_c, 9, 42, 0
2, 58680, Note_on_c, 9, 40, 127
2, 58740, Note_on_c, 9, 40, 0
2, 58740, Note_on_c, 9, 42, 90
2, 58800, Note_on_c, 9, 42, 0
2, 58800, Note_on_c, 9, 35, 127
2, 58860, Note_on_c, 9, 35, 0
2, 58860, Note_on_c, 9, 42, 90
2, 58920, Note_on_c, 9, 42, 0
2, 58920, Note_on_c, 9, 40, 127
2, 58980, Note_on_c, 9, 40, 0
2, 58980, Note_on_c, 9, 42, 90
2, 59040, Note_on_c, 9, 42, 0
2, 59040, Note_on_c, 9, 35, 127
2, 59100, Note_on_c, 9, 35, 0
2, 59100, Note_on_c, 9, 42, 90
2, 59160, Note_on_c, 9, 42, 0
2, 59160, Note_on_c, 9, 40, 127
2, 59220, Note_on_c, 9, 40, 0
2, 59220, Note_on_c, 9, 42, 90
2, 59280, Note_on_c, 9, 42, 0
2, 59280, Note_on_c, 9, 35, 127
2, 59340, Note_on_c, 9, 35, 0
2, 59340, Note_on_c, 9, 42, 90
2, 59400, Note_on_c, 9, 42, 0
2, 59400, Note_on_c, 9, 40, 127
2, 59460, Note_on_c, 9, 40, 0
2, 59460, Note_on_c, 9, 42, 90
2, 59520, Note_on_c, 9, 42, 0
2, 59520, Note_on_c, 9, 35, 127
2, 59580, Note_on_c, 9, 35, 0
2, 59580, Note_on_c, 9, 42, 90
2, 59640, Note_on_c, 9, 42, 0
2, 59640, Note_on_c, 9, 40, 127
2, 59700, Note_on_c, 9, 40, 0
2, 59700, Note_on_c, 9, 42, 90
2, 59760, Note_on_c, 9, 42, 0
2, 59760, Note_on_c, 9, 35, 127
2, 59820, Note_on_c, 9, 35, 0
2, 59820, Note_on_c, 9, 42, 90
2, 59880, Note_on_c, 9, 42, 0
2, 59880, Note_on_c, 9, 40, 127
2, 59940, Note_on_c, 9, 40, 0
2, 59940, Note_on_c, 9, 42, 90
2, 60000, Note_on_c, 9, 42, 0
2, 60000, Note_on_c, 9, 35, 127
2, 60060, Note_on_c, 9, 35, 0
2, 60060, Note_on_c, 9, 42, 90
2, 60120, Note_on_c, 9, 42, 0
2, 60120, Note_on_c, 9, 40, 127
2, 60180, Note_on_c, 9, 40, 0
2, 60180, Note_on_c, 9, 42, 90
2, 60240, Note_on_c, 9, 42, 0
2, 60240, Note_on_c, 9, 35, 127
2, 60300, Note_on_c, 9, 35, 0
2, 60300, Note_on_c, 9, 42, 90
2, 60360, Note_on_c, 9, 42, 0
2, 60360, Note_on_c, 9, 40, 127
2, 60420, Note_on_c, 9, 40, 0
2, 60420, Note_on_c, 9, 42, 90
2, 60480, Note_on_c, 9, 42, 0
2, 60480, Note_on_c, 9, 35, 127
2, 60540, Note_on_c, 9, 35, 0
2, 60540, Note_on_c, 9, 42, 90
2, 60600, Note_on_c, 9, 42, 0
2, 60600, Note_on_c, 9, 40, 127
2, 60660, Note_on_c, 9, 40, 0
2, 60660, Note_on_c, 9, 42, 90
2, 60720, Note_on_c, 9, 42, 0
2, 60720, Note_on_c, 9, 35, 127
2, 60780, Note_on_c, 9, 35, 0
2, 60780, Note_on_c, 9, 42, 90
2, 60840, Note_on_c, 9, 42, 0
2, 60840, Note_on_c, 9, 40, 127
2, 60900, Note_on_c, 9, 40, 0
2, 60900, Note_on_c, 9, 42, 90
2, 60960, Note_on_c, 9, 42, 0
2, 60960, Note_on_c, 9, 35, 127
2, 61020, Note_on_c, 9, 35, 0
2, 61020, Note_on_c, 9, 42, 90
2, 61080, Note_on_c, 9, 42, 0
2, 61080, Note_on_c, 9, 40, 127
2, 61140, Note_on_c, 9, 40, 0
2, 61140, Note_on_c, 9, 42, 90
2, 61200, Note_on_c, 9, 42, 0
2, 61200, Note_on_c, 9, 35, 127
2, 61260, Note_on_c, 9, 35, 0
2, 61260, Note_on_c, 9, 42, 90
2, 61320, Note_on_c, 9, 42, 0
2, 61320, Note_on_c, 9, 40, 127
2, 61380, Note_on_c, 9, 40, 0
2, 61380, Note_on_c, 9, 42, 90
2, 61440, Note_on_c, 9, 42, 0
2, 61440, Note_on_c, 9, 35, 127
2, 61500, Note_on_c, 9, 35, 0
2, 61500, Note_on_c, 9, 42, 90
2, 61560, Note_on_c, 9, 42, 0
2, 61560, Note_on_c, 9, 40, 127
2, 61620, Note_on_c, 9, 40, 0
2, 61620, Note_on_c, 9, 42, 90
2, 61680, Note_on_c, 9, 42, 0
2, 61680, Note_on_c, 9, 35, 127
2, 61740, Note_on_c, 9, 35, 0
2, 61740, Note_on_c, 9, 42, 90
2, 61800, Note_on_c, 9, 42, 0
2, 61800, Note_on_c, 9, 40, 127
2, 61860, Note_on_c, 9, 40, 0
2, 61860, Note_on_c, 9, 42, 90
2, 61920, Note_on_c, 9, 42, 0
2, 61920, Note_on_c, 9, 35, 127
2, 61980, Note_on_c, 9, 35, 0
2, 61980, Note_on_c, 9, 42, 90
2, 62040, Note_on_c, 9, 42, 0
2, 62040, Note_on_c, 9, 40, 127
2, 62100, Note_on_c, 9, 40, 0
2, 62100, Note_on_c, 9, 42, 90
2, 62160, Note_on_c, 9, 42, 0
2, 62160, Note_on_c, 9, 35, 127
2, 62220, Note_on_c, 9, 35, 0
2, 62220, Note_on_c, 9, 42, 90
2, 62280, Note_on_c, 9, 42, 0
2, 62280, Note_on_c, 9, 40, 127
2, 62340, Note_on_c, 9, 40, 0
2, 62340, Note_on_c, 9, 42, 90
2, 62400, Note_on_c, 9, 42, 0
2, 62400, Note_on_c, 9, 42, 90
2, 62400, Note_on_c, 9, 35, 127
2, 62460, Note_on_c, 9, 35, 0
2, 62460, Note_on_c, 9, 42, 0
2, 62460, Note_on_c, 9, 46, 90
2, 62520, Note_on_c, 9, 46, 0
2, 62520, Note_on_c, 9, 42, 90
2, 62520, Note_on_c, 9, 40, 127
2, 62580, Note_on_c, 9, 40, 0
2, 62580, Note_on_c, 9, 42, 0
2, 62580, Note_on_c, 9, 46, 90
2, 62640, Note_on_c, 9, 46, 0
2, 62640, Note_on_c, 9, 42, 90
2, 62640, Note_on_c, 9, 35, 127
2, 62700, Note_on_c, 9, 35, 0
2, 62700, Note_on_c, 9, 42, 0
2, 62700, Note_on_c, 9, 46, 90
2, 62760, Note_on_c, 9, 46, 0
2, 62760, Note_on_c, 9, 42, 90
2, 62760, Note_on_c, 9, 40, 127
2, 62820, Note_on_c, 9, 40, 0
2, 62820, Note_on_c, 9, 42, 0
2, 62820, Note_on_c, 9, 46, 90
2, 62880, Note_on_c, 9, 46, 0
2, 62880, Note_on_c, 9, 42, 90
2, 62880, Note_on_c, 9, 35, 127
2, 62940, Note_on_c, 9, 35, 0
2, 62940, Note_on_c, 9, 42, 0
2, 62940, Note_on_c, 9, 46, 90
2, 63000, Note_on_c, 9, 46, 0
2, 63000, Note_on_c, 9, 42, 90
2, 63000, Note_on_c, 9, 40, 127
2, 63060, Note_on_c, 9, 40, 0
2, 63060, Note_on_c, 9, 42, 0
2, 63060, Note_on_c, 9, 46, 90
2, 63120, Note_on_c, 9, 46, 0
2, 63120, Note_on_c, 9, 42, 90
2, 63120, Note_on_c, 9, 35, 127
2, 63180, Note_on_c, 9, 35, 0
2, 63180, Note_on_c, 9, 42, 0
2, 63180, Note_on_c, 9, 46, 90
2, 63240, Note_on_c, 9, 46, 0
2, 63240, Note_on_c, 9, 42, 90
2, 63240, Note_on_c, 9, 40, 127
2, 63300, Note_on_c, 9, 40, 0
2, 63300, Note_on_c, 9, 42, 0
2, 63300, Note_on_c, 9, 46, 90
2, 63360, Note_on_c, 9, 46, 0
2, 63360, Note_on_c, 9, 35, 127
2, 63420, Note_on_c, 9, 35, 0
2, 63420, Note_on_c, 9, 42, 90
2, 63480, Note_on_c, 9, 42, 0
2, 63480, Note_on_c, 9, 40, 127
2, 63540, Note_on_c, 9, 40, 0
2, 63540, Note_on_c, 9, 42, 90
2, 63600, Note_on_c, 9, 42, 0
2, 63600, Note_on_c, 9, 35, 127
2, 63660, Note_on_c, 9, 35, 0
2, 63660, Note_on_c, 9, 42, 90
2, 63720, Note_on_c, 9, 42, 0
2, 63720, Note_on_c, 9, 40, 127
2, 63780, Note_on_c, 9, 40, 0
2, 63780, Note_on_c, 9, 42, 90
2, 63840, Note_on_c, 9, 42, 0
2, 63840, Note_on_c, 9, 35, 127
2, 63900, Note_on_c, 9, 35, 0
2, 63900, Note_on_c, 9, 42, 90
2, 63960, Note_on_c, 9, 42, 0
2, 63960, Note_on_c, 9, 35, 127
2, 64020, Note_on_c, 9, 35, 0
2, 64020, Note_on_c, 9, 42, 90
2, 64050, Note_on_c, 9, 40, 127
2, 64080, Note_on_c, 9, 40, 0
2, 64080, Note_on_c, 9, 42, 0
2, 64080, Note_on_c, 9, 40, 127
2, 64140, Note_on_c, 9, 40, 0
2, 64140, Note_on_c, 9, 47, 127
2, 64200, Note_on_c, 9, 47, 0
2, 64200, Note_on_c, 9, 45, 127
2, 64260, Note_on_c, 9, 45, 0
2, 64260, Note_on_c, 9, 35, 127
2, 64260, Note_on_c, 9, 55, 127
2, 64320, Note_on_c, 9, 55, 0
2, 64320, Note_on_c, 9, 35, 0
2, 64440, Note_on_c, 9, 42, 90
2, 64560, Note_on_c, 9, 42, 0
2, 64560, Note_on_c, 9, 42, 90
2, 64680, Note_on_c, 9, 42, 0
2, 64680, Note_on_c, 9, 42, 90
2, 64800, Note_on_c, 9, 42, 0
2, 64800, Note_on_c, 9, 42, 90
2, 64920, Note_on_c, 9, 42, 0
2, 64920, Note_on_c, 9, 42, 90
2, 65040, Note_on_c, 9, 42, 0
2, 65040, Note_on_c, 9, 42, 90
2, 65160, Note_on_c, 9, 42, 0
2, 65160, Note_on_c, 9, 42, 90
2, 65280, Note_on_c, 9, 42, 0
2, 65280, Note_on_c, 9, 42, 90
2, 65280, Note_on_c, 9, 35, 127
2, 65340, Note_on_c, 9, 35, 0
2, 65340, Note_on_c, 9, 42, 0
2, 65400, Note_on_c, 9, 42, 90
2, 65400, Note_on_c, 9, 37, 127
2, 65460, Note_on_c, 9, 37, 0
2, 65460, Note_on_c, 9, 42, 0
2, 65520, Note_on_c, 9, 42, 90
2, 65520, Note_on_c, 9, 35, 127
2, 65580, Note_on_c, 9, 35, 0
2, 65580, Note_on_c, 9, 42, 0
2, 65640, Note_on_c, 9, 42, 90
2, 65640, Note_on_c, 9, 37, 127
2, 65700, Note_on_c, 9, 37, 0
2, 65700, Note_on_c, 9, 42, 0
2, 65700, Note_on_c, 9, 46, 90
2, 65760, Note_on_c, 9, 46, 0
2, 65760, Note_on_c, 9, 42, 90
2, 65820, Note_on_c, 9, 42, 0
2, 65880, Note_on_c, 9, 46, 90
2, 65880, Note_on_c, 9, 35, 127
2, 65940, Note_on_c, 9, 35, 0
2, 65940, Note_on_c, 9, 46, 0
2, 66000, Note_on_c, 9, 42, 90
2, 66060, Note_on_c, 9, 42, 0
2, 66120, Note_on_c, 9, 42, 90
2, 66120, Note_on_c, 9, 37, 127
2, 66180, Note_on_c, 9, 37, 0
2, 66180, Note_on_c, 9, 42, 0
2, 66180, Note_on_c, 9, 46, 90
2, 66240, Note_on_c, 9, 46, 0
2, 66240, Note_on_c, 9, 42, 90
2, 66240, Note_on_c, 9, 35, 127
2, 66300, Note_on_c, 9, 35, 0
2, 66300, Note_on_c, 9, 42, 0
2, 66360, Note_on_c, 9, 42, 90
2, 66360, Note_on_c, 9, 37, 127
2, 66420, Note_on_c, 9, 37, 0
2, 66420, Note_on_c, 9, 42, 0
2, 66480, Note_on_c, 9, 46, 90
2, 66480, Note_on_c, 9, 35, 127
2, 66540, Note_on_c, 9, 35, 0
2, 66540, Note_on_c, 9, 46, 0
2, 66600, Note_on_c, 9, 42, 90
2, 66600, Note_on_c, 9, 37, 127
2, 66660, Note_on_c, 9, 37, 0
2, 66660, Note_on_c, 9, 42, 0
2, 66720, Note_on_c, 9, 42, 90
2, 66780, Note_on_c, 9, 42, 0
2, 66840, Note_on_c, 9, 46, 90
2, 66840, Note_on_c, 9, 35, 127
2, 66900, Note_on_c, 9, 35, 0
2, 66900, Note_on_c, 9, 46, 0
2, 66960, Note_on_c, 9, 42, 90
2, 67020, Note_on_c, 9, 42, 0
2, 67020, Note_on_c, 9, 46, 90
2, 67080, Note_on_c, 9, 46, 0
2, 67080, Note_on_c, 9, 42, 90
2, 67080, Note_on_c, 9, 37, 127
2, 67140, Note_on_c, 9, 37, 0
2, 67140, Note_on_c, 9, 42, 0
2, 67140, Note_on_c, 9, 46, 90
2, 67200, Note_on_c, 9, 46, 0
2, 67200, Note_on_c, 9, 42, 90
2, 67200, Note_on_c, 9, 35, 127
2, 67260, Note_on_c, 9, 35, 0
2, 67260, Note_on_c, 9, 42, 0
2, 67320, Note_on_c, 9, 42, 90
2, 67320, Note_on_c, 9, 37, 127
2, 67380, Note_on_c, 9, 37, 0
2, 67380, Note_on_c, 9, 42, 0
2, 67440, Note_on_c, 9, 42, 90
2, 67440, Note_on_c, 9, 35, 127
2, 67500, Note_on_c, 9, 35, 0
2, 67500, Note_on_c, 9, 42, 0
2, 67560, Note_on_c, 9, 42, 90
2, 67560, Note_on_c, 9, 37, 127
2, 67620, Note_on_c, 9, 37, 0
2, 67620, Note_on_c, 9, 42, 0
2, 67620, Note_on_c, 9, 35, 127
2, 67620, Note_on_c, 9, 46, 90
2, 67680, Note_on_c, 9, 46, 0
2, 67680, Note_on_c, 9, 35, 0
2, 67680, Note_on_c, 9, 42, 90
2, 67740, Note_on_c, 9, 42, 0
2, 67800, Note_on_c, 9, 46, 90
2, 67800, Note_on_c, 9, 35, 127
2, 67860, Note_on_c, 9, 35, 0
2, 67860, Note_on_c, 9, 46, 0
2, 67920, Note_on_c, 9, 42, 90
2, 67980, Note_on_c, 9, 42, 0
2, 68040, Note_on_c, 9, 42, 90
2, 68040, Note_on_c, 9, 37, 127
2, 68100, Note_on_c, 9, 37, 0
2, 68100, Note_on_c, 9, 42, 0
2, 68100, Note_on_c, 9, 35, 127
2, 68100, Note_on_c, 9, 46, 90
2, 68160, Note_on_c, 9, 46, 0
2, 68160, Note_on_c, 9, 35, 0
2, 68160, Note_on_c, 9, 42, 90
2, 68160, Note_on_c, 9, 35, 127
2, 68220, Note_on_c, 9, 35, 0
2, 68220, Note_on_c, 9, 42, 0
2, 68280, Note_on_c, 9, 42, 90
2, 68280, Note_on_c, 9, 37, 127
2, 68340, Note_on_c, 9, 37, 0
2, 68340, Note_on_c, 9, 42, 0
2, 68400, Note_on_c, 9, 46, 90
2, 68400, Note_on_c, 9, 35, 127
2, 68460, Note_on_c, 9, 35, 0
2, 68460, Note_on_c, 9, 46, 0
2, 68520, Note_on_c, 9, 42, 90
2, 68520, Note_on_c, 9, 37, 127
2, 68580, Note_on_c, 9, 37, 0
2, 68580, Note_on_c, 9, 42, 0
2, 68640, Note_on_c, 9, 42, 90
2, 68640, Note_on_c, 9, 35, 127
2, 68700, Note_on_c, 9, 35, 0
2, 68700, Note_on_c, 9, 42, 0
2, 68760, Note_on_c, 9, 42, 90
2, 68760, Note_on_c, 9, 37, 127
2, 68790, Note_on_c, 9, 40, 127
2, 68820, Note_on_c, 9, 40, 0
2, 68820, Note_on_c, 9, 37, 0
2, 68820, Note_on_c, 9, 42, 0
2, 68820, Note_on_c, 9, 35, 127
2, 68820, Note_on_c, 9, 46, 90
2, 68850, Note_on_c, 9, 35, 0
2, 68880, Note_on_c, 9, 46, 0
2, 68880, Note_on_c, 9, 35, 127
2, 68910, Note_on_c, 9, 40, 127
2, 68940, Note_on_c, 9, 40, 0
2, 68940, Note_on_c, 9, 35, 0
2, 68970, Note_on_c, 9, 35, 127
2, 69000, Note_on_c, 9, 35, 0
2, 69000, Note_on_c, 9, 40, 127
2, 69030, Note_on_c, 9, 40, 127
2, 69060, Note_on_c, 9, 40, 0
2, 69060, Note_on_c, 9, 40, 0
2, 69090, Note_on_c, 9, 35, 127
2, 69120, Note_on_c, 9, 35, 0
2, 69120, Note_on_c, 9, 49, 110
2, 69120, Note_on_c, 9, 42, 90
2, 69120, Note_on_c, 9, 35, 127
2, 69180, Note_on_c, 9, 35, 0
2, 69180, Note_on_c, 9, 42, 0
2, 69180, Note_on_c, 9, 49, 0
2, 69240, Note_on_c, 9, 42, 90
2, 69240, Note_on_c, 9, 51, 110
2, 69240, Note_on_c, 9, 40, 127
2, 69300, Note_on_c, 9, 40, 0
2, 69300, Note_on_c, 9, 51, 0
2, 69300, Note_on_c, 9, 42, 0
2, 69360, Note_on_c, 9, 42, 90
2, 69360, Note_on_c, 9, 51, 110
2, 69360, Note_on_c, 9, 35, 127
2, 69420, Note_on_c, 9, 35, 0
2, 69420, Note_on_c, 9, 51, 0
2, 69420, Note_on_c, 9, 42, 0
2, 69480, Note_on_c, 9, 42, 90
2, 69480, Note_on_c, 9, 51, 110
2, 69480, Note_on_c, 9, 40, 127
2, 69540, Note_on_c, 9, 40, 0
2, 69540, Note_on_c, 9, 51, 0
2, 69540, Note_on_c, 9, 42, 0
2, 69600, Note_on_c, 9, 42, 90
2, 69600, Note_on_c, 9, 51, 110
2, 69600, Note_on_c, 9, 35, 127
2, 69660, Note_on_c, 9, 35, 0
2, 69660, Note_on_c, 9, 51, 0
2, 69660, Note_on_c, 9, 42, 0
2, 69720, Note_on_c, 9, 42, 90
2, 69720, Note_on_c, 9, 51, 110
2, 69720, Note_on_c, 9, 40, 127
2, 69780, Note_on_c, 9, 40, 0
2, 69780, Note_on_c, 9, 51, 0
2, 69780, Note_on_c, 9, 42, 0
2, 69840, Note_on_c, 9, 42, 90
2, 69840, Note_on_c, 9, 51, 110
2, 69840, Note_on_c, 9, 35, 127
2, 69900, Note_on_c, 9, 35, 0
2, 69900, Note_on_c, 9, 51, 0
2, 69900, Note_on_c, 9, 42, 0
2, 69960, Note_on_c, 9, 42, 90
2, 69960, Note_on_c, 9, 51, 110
2, 69960, Note_on_c, 9, 40, 127
2, 69990, Note_on_c, 9, 40, 127
2, 70020, Note_on_c, 9, 40, 0
2, 70020, Note_on_c, 9, 42, 0
2, 70020, Note_on_c, 9, 51, 0
2, 70020, Note_on_c, 9, 40, 0
2, 70080, Note_on_c, 9, 42, 90
2, 70080, Note_on_c, 9, 51, 110
2, 70080, Note_on_c, 9, 35, 127
2, 70140, Note_on_c, 9, 35, 0
2, 70140, Note_on_c, 9, 51, 0
2, 70140, Note_on_c, 9, 42, 0
2, 70200, Note_on_c, 9, 42, 90
2, 70200, Note_on_c, 9, 51, 110
2, 70200, Note_on_c, 9, 40, 127
2, 70260, Note_on_c, 9, 40, 0
2, 70260, Note_on_c, 9, 51, 0
2, 70260, Note_on_c, 9, 42, 0
2, 70320, Note_on_c, 9, 42, 90
2, 70320, Note_on_c, 9, 51, 110
2, 70320, Note_on_c, 9, 35, 127
2, 70380, Note_on_c, 9, 35, 0
2, 70380, Note_on_c, 9, 51, 0
2, 70380, Note_on_c, 9, 42, 0
2, 70440, Note_on_c, 9, 42, 90
2, 70440, Note_on_c, 9, 51, 110
2, 70440, Note_on_c, 9, 40, 127
2, 70500, Note_on_c, 9, 40, 0
2, 70500, Note_on_c, 9, 51, 0
2, 70500, Note_on_c, 9, 42, 0
2, 70560, Note_on_c, 9, 42, 90
2, 70560, Note_on_c, 9, 51, 110
2, 70560, Note_on_c, 9, 35, 127
2, 70620, Note_on_c, 9, 35, 0
2, 70620, Note_on_c, 9, 51, 0
2, 70620, Note_on_c, 9, 42, 0
2, 70680, Note_on_c, 9, 42, 90
2, 70680, Note_on_c, 9, 51, 110
2, 70680, Note_on_c, 9, 40, 127
2, 70740, Note_on_c, 9, 40, 0
2, 70740, Note_on_c, 9, 51, 0
2, 70740, Note_on_c, 9, 42, 0
2, 70800, Note_on_c, 9, 42, 90
2, 70800, Note_on_c, 9, 51, 110
2, 70800, Note_on_c, 9, 35, 127
2, 70860, Note_on_c, 9, 35, 0
2, 70860, Note_on_c, 9, 51, 0
2, 70860, Note_on_c, 9, 42, 0
2, 70860, Note_on_c, 9, 40, 110
2, 70920, Note_on_c, 9, 40, 0
2, 70920, Note_on_c, 9, 42, 90
2, 70920, Note_on_c, 9, 51, 110
2, 70920, Note_on_c, 9, 40, 127
2, 70980, Note_on_c, 9, 40, 0
2, 70980, Note_on_c, 9, 51, 0
2, 70980, Note_on_c, 9, 42, 0
2, 71040, Note_on_c, 9, 42, 90
2, 71040, Note_on_c, 9, 51, 110
2, 71040, Note_on_c, 9, 35, 127
2, 71100, Note_on_c, 9, 35, 0
2, 71100, Note_on_c, 9, 51, 0
2, 71100, Note_on_c, 9, 42, 0
2, 71160, Note_on_c, 9, 42, 90
2, 71160, Note_on_c, 9, 51, 110
2, 71160, Note_on_c, 9, 40, 127
2, 71220, Note_on_c, 9, 40, 0
2, 71220, Note_on_c, 9, 51, 0
2, 71220, Note_on_c, 9, 42, 0
2, 71280, Note_on_c, 9, 42, 90
2, 71280, Note_on_c, 9, 51, 110
2, 71280, Note_on_c, 9, 35, 127
2, 71340, Note_on_c, 9, 35, 0
2, 71340, Note_on_c, 9, 51, 0
2, 71340, Note_on_c, 9, 42, 0
2, 71400, Note_on_c, 9, 42, 90
2, 71400, Note_on_c, 9, 51, 110
2, 71400, Note_on_c, 9, 40, 127
2, 71460, Note_on_c, 9, 40, 0
2, 71460, Note_on_c, 9, 51, 0
2, 71460, Note_on_c, 9, 42, 0
2, 71520, Note_on_c, 9, 42, 90
2, 71520, Note_on_c, 9, 51, 110
2, 71520, Note_on_c, 9, 35, 127
2, 71580, Note_on_c, 9, 35, 0
2, 71580, Note_on_c, 9, 51, 0
2, 71580, Note_on_c, 9, 42, 0
2, 71640, Note_on_c, 9, 42, 90
2, 71640, Note_on_c, 9, 51, 110
2, 71640, Note_on_c, 9, 40, 127
2, 71700, Note_on_c, 9, 40, 0
2, 71700, Note_on_c, 9, 51, 0
2, 71700, Note_on_c, 9, 42, 0
2, 71760, Note_on_c, 9, 42, 90
2, 71760, Note_on_c, 9, 51, 110
2, 71760, Note_on_c, 9, 35, 127
2, 71820, Note_on_c, 9, 35, 0
2, 71820, Note_on_c, 9, 51, 0
2, 71820, Note_on_c, 9, 42, 0
2, 71880, Note_on_c, 9, 42, 90
2, 71880, Note_on_c, 9, 51, 110
2, 71880, Note_on_c, 9, 40, 127
2, 71940, Note_on_c, 9, 40, 0
2, 71940, Note_on_c, 9, 51, 0
2, 71940, Note_on_c, 9, 42, 0
2, 72000, Note_on_c, 9, 42, 85
2, 72000, Note_on_c, 9, 59, 90
2, 72030, Note_on_c, 9, 59, 0
2, 72030, Note_on_c, 9, 51, 90
2, 72060, Note_on_c, 9, 51, 0
2, 72060, Note_on_c, 9, 51, 75
2, 72090, Note_on_c, 9, 51, 0
2, 72090, Note_on_c, 9, 51, 90
2, 72120, Note_on_c, 9, 51, 0
2, 72120, Note_on_c, 9, 42, 0
2, 72120, Note_on_c, 9, 42, 85
2, 72120, Note_on_c, 9, 59, 90
2, 72120, Note_on_c, 9, 35, 127
2, 72150, Note_on_c, 9, 59, 0
2, 72150, Note_on_c, 9, 51, 90
2, 72180, Note_on_c, 9, 51, 0
2, 72180, Note_on_c, 9, 35, 0
2, 72180, Note_on_c, 9, 59, 75
2, 72210, Note_on_c, 9, 59, 0
2, 72210, Note_on_c, 9, 51, 90
2, 72240, Note_on_c, 9, 51, 0
2, 72240, Note_on_c, 9, 42, 0
2, 72240, Note_on_c, 9, 42, 85
2, 72240, Note_on_c, 9, 59, 90
2, 72270, Note_on_c, 9, 59, 0
2, 72270, Note_on_c, 9, 51, 90
2, 72300, Note_on_c, 9, 51, 0
2, 72300, Note_on_c, 9, 46, 80
2, 72330, Note_on_c, 9, 46, 0
2, 72330, Note_on_c, 9, 51, 90
2, 72360, Note_on_c, 9, 51, 0
2, 72360, Note_on_c, 9, 42, 0
2, 72360, Note_on_c, 9, 42, 85
2, 72360, Note_on_c, 9, 59, 90
2, 72360, Note_on_c, 9, 35, 127
2, 72390, Note_on_c, 9, 59, 0
2, 72390, Note_on_c, 9, 51, 90
2, 72420, Note_on_c, 9, 51, 0
2, 72420, Note_on_c, 9, 35, 0
2, 72420, Note_on_c, 9, 59, 75
2, 72450, Note_on_c, 9, 59, 0
2, 72450, Note_on_c, 9, 51, 90
2, 72480, Note_on_c, 9, 51, 0
2, 72480, Note_on_c, 9, 42, 0
2, 72480, Note_on_c, 9, 42, 85
2, 72480, Note_on_c, 9, 59, 90
2, 72510, Note_on_c, 9, 59, 0
2, 72510, Note_on_c, 9, 51, 90
2, 72540, Note_on_c, 9, 51, 0
2, 72540, Note_on_c, 9, 59, 75
2, 72570, Note_on_c, 9, 59, 0
2, 72570, Note_on_c, 9, 51, 90
2, 72600, Note_on_c, 9, 51, 0
2, 72600, Note_on_c, 9, 42, 0
2, 72600, Note_on_c, 9, 42, 85
2, 72600, Note_on_c, 9, 59, 90
2, 72600, Note_on_c, 9, 35, 127
2, 72630, Note_on_c, 9, 59, 0
2, 72630, Note_on_c, 9, 51, 90
2, 72660, Note_on_c, 9, 51, 0
2, 72660, Note_on_c, 9, 35, 0
2, 72660, Note_on_c, 9, 59, 75
2, 72690, Note_on_c, 9, 59, 0
2, 72690, Note_on_c, 9, 51, 90
2, 72720, Note_on_c, 9, 51, 0
2, 72720, Note_on_c, 9, 42, 0
2, 72720, Note_on_c, 9, 42, 85
2, 72720, Note_on_c, 9, 59, 90
2, 72750, Note_on_c, 9, 59, 0
2, 72750, Note_on_c, 9, 51, 90
2, 72780, Note_on_c, 9, 51, 0
2, 72780, Note_on_c, 9, 46, 80
2, 72810, Note_on_c, 9, 46, 0
2, 72810, Note_on_c, 9, 51, 90
2, 72840, Note_on_c, 9, 51, 0
2, 72840, Note_on_c, 9, 42, 0
2, 72840, Note_on_c, 9, 42, 85
2, 72840, Note_on_c, 9, 59, 90
2, 72840, Note_on_c, 9, 35, 127
2, 72870, Note_on_c, 9, 59, 0
2, 72870, Note_on_c, 9, 51, 90
2, 72900, Note_on_c, 9, 51, 0
2, 72900, Note_on_c, 9, 35, 0
2, 72900, Note_on_c, 9, 59, 75
2, 72930, Note_on_c, 9, 59, 0
2, 72930, Note_on_c, 9, 51, 90
2, 72960, Note_on_c, 9, 51, 0
2, 72960, Note_on_c, 9, 42, 0
2, 72960, Note_on_c, 9, 59, 75
2, 72960, Note_on_c, 9, 42, 85
2, 72990, Note_on_c, 9, 59, 0
2, 73020, Note_on_c, 9, 51, 75
2, 73050, Note_on_c, 9, 51, 0
2, 73080, Note_on_c, 9, 42, 0
2, 73080, Note_on_c, 9, 59, 75
2, 73080, Note_on_c, 9, 42, 85
2, 73110, Note_on_c, 9, 59, 0
2, 73140, Note_on_c, 9, 51, 75
2, 73170, Note_on_c, 9, 51, 0
2, 73200, Note_on_c, 9, 42, 0
2, 73200, Note_on_c, 9, 59, 75
2, 73200, Note_on_c, 9, 42, 85
2, 73230, Note_on_c, 9, 59, 0
2, 73260, Note_on_c, 9, 51, 75
2, 73290, Note_on_c, 9, 51, 0
2, 73320, Note_on_c, 9, 42, 0
2, 73320, Note_on_c, 9, 55, 75
2, 73320, Note_on_c, 9, 42, 85
2, 73320, Note_on_c, 9, 35, 127
2, 73350, Note_on_c, 9, 55, 0
2, 73380, Note_on_c, 9, 35, 0
2, 73440, Note_on_c, 9, 42, 0
2, 73440, Note_on_c, 9, 42, 85
2, 73560, Note_on_c, 9, 42, 0
2, 73560, Note_on_c, 9, 42, 85
2, 73680, Note_on_c, 9, 42, 0
2, 73680, Note_on_c, 9, 42, 85
2, 73800, Note_on_c, 9, 42, 0
2, 73800, Note_on_c, 9, 42, 85
2, 73920, Note_on_c, 9, 42, 0
2, 73920, Note_on_c, 9, 52, 85
2, 74040, Note_on_c, 9, 52, 0
2, 74880, Note_on_c, 9, 35, 90
2, 74880, Note_on_c, 9, 42, 85
2, 74940, Note_on_c, 9, 42, 0
2, 74940, Note_on_c, 9, 55, 110
2, 75000, Note_on_c, 9, 55, 0
2, 75000, Note_on_c, 9, 35, 0
2, 75120, Note_on_c, 9, 35, 127
2, 75180, Note_on_c, 9, 35, 0
2, 75360, Note_on_c, 9, 40, 127
2, 75360, Note_on_c, 9, 42, 85
2, 75390, Note_on_c, 9, 40, 0
2, 75450, Note_on_c, 9, 40, 127
2, 75480, Note_on_c, 9, 40, 0
2, 75480, Note_on_c, 9, 42, 0
2, 75480, Note_on_c, 9, 46, 90
2, 75480, Note_on_c, 9, 42, 85
2, 75480, Note_on_c, 9, 35, 127
2, 75510, Note_on_c, 9, 35, 0
2, 75540, Note_on_c, 9, 46, 0
2, 75600, Note_on_c, 9, 42, 0
2, 75600, Note_on_c, 9, 42, 90
2, 75600, Note_on_c, 9, 35, 127
2, 75600, Note_on_c, 9, 42, 85
2, 75630, Note_on_c, 9, 35, 0
2, 75660, Note_on_c, 9, 42, 0
2, 75660, Note_on_c, 9, 55, 90
2, 75690, Note_on_c, 9, 35, 127
2, 75720, Note_on_c, 9, 35, 0
2, 75720, Note_on_c, 9, 55, 0
2, 75720, Note_on_c, 9, 42, 0
2, 75720, Note_on_c, 9, 40, 127
2, 75720, Note_on_c, 9, 42, 85
2, 75720, Note_on_c, 9, 35, 127
2, 75750, Note_on_c, 9, 35, 0
2, 75750, Note_on_c, 9, 40, 0
2, 75780, Note_on_c, 9, 40, 127
2, 75810, Note_on_c, 9, 40, 0
2, 75840, Note_on_c, 9, 42, 0
2, 75840, Note_on_c, 9, 42, 90
2, 75840, Note_on_c, 9, 35, 127
2, 75840, Note_on_c, 9, 42, 85
2, 75870, Note_on_c, 9, 35, 0
2, 75870, Note_on_c, 9, 40, 127
2, 75900, Note_on_c, 9, 40, 0
2, 75900, Note_on_c, 9, 42, 0
2, 75960, Note_on_c, 9, 42, 0
2, 75960, Note_on_c, 9, 42, 90
2, 75960, Note_on_c, 9, 40, 127
2, 75960, Note_on_c, 9, 42, 85
2, 75990, Note_on_c, 9, 40, 0
2, 76020, Note_on_c, 9, 42, 0
2, 76020, Note_on_c, 9, 46, 90
2, 76080, Note_on_c, 9, 46, 0
2, 76080, Note_on_c, 9, 42, 0
2, 76080, Note_on_c, 9, 42, 90
2, 76080, Note_on_c, 9, 42, 85
2, 76120, Note_on_c, 9, 40, 127
2, 76140, Note_on_c, 9, 42, 0
2, 76160, Note_on_c, 9, 40, 0
2, 76160, Note_on_c, 9, 40, 127
2, 76200, Note_on_c, 9, 40, 0
2, 76200, Note_on_c, 9, 42, 0
2, 76200, Note_on_c, 9, 48, 127
2, 76200, Note_on_c, 9, 42, 85
2, 76200, Note_on_c, 9, 35, 127
2, 76240, Note_on_c, 9, 48, 0
2, 76240, Note_on_c, 9, 47, 127
2, 76280, Note_on_c, 9, 47, 0
2, 76280, Note_on_c, 9, 45, 127
2, 76320, Note_on_c, 9, 45, 0
2, 76320, Note_on_c, 9, 35, 0
2, 76320, Note_on_c, 9, 42, 0
2, 76320, Note_on_c, 9, 42, 90
2, 76320, Note_on_c, 9, 40, 127
2, 76350, Note_on_c, 9, 40, 0
2, 76380, Note_on_c, 9, 42, 0
2, 76380, Note_on_c, 9, 35, 127
2, 76410, Note_on_c, 9, 35, 0
2, 76410, Note_on_c, 9, 55, 90
2, 76440, Note_on_c, 9, 55, 0
2, 76440, Note_on_c, 9, 42, 90
2, 76470, Note_on_c, 9, 40, 127
2, 76500, Note_on_c, 9, 40, 0
2, 76500, Note_on_c, 9, 42, 0
2, 76500, Note_on_c, 9, 46, 90
2, 76530, Note_on_c, 9, 46, 0
2, 76530, Note_on_c, 9, 42, 90
2, 76560, Note_on_c, 9, 42, 0
2, 76560, Note_on_c, 9, 40, 90
2, 76590, Note_on_c, 9, 40, 0
2, 76590, Note_on_c, 9, 40, 127
2, 76620, Note_on_c, 9, 40, 0
2, 76620, Note_on_c, 9, 55, 90
2, 76650, Note_on_c, 9, 55, 0
2, 76650, Note_on_c, 9, 36, 127
2, 76680, Note_on_c, 9, 36, 0
2, 76680, Note_on_c, 9, 42, 90
2, 76680, Note_on_c, 9, 43, 127
2, 76680, Note_on_c, 9, 47, 127
2, 76710, Note_on_c, 9, 47, 0
2, 76710, Note_on_c, 9, 43, 0
2, 76740, Note_on_c, 9, 42, 0
2, 76740, Note_on_c, 9, 40, 127
2, 76740, Note_on_c, 9, 55, 90
2, 76770, Note_on_c, 9, 55, 0
2, 76770, Note_on_c, 9, 40, 0
2, 76770, Note_on_c, 9, 40, 127
2, 76800, Note_on_c, 9, 40, 0
2, 76800, Note_on_c, 9, 49, 110
2, 76800, Note_on_c, 9, 42, 90
2, 76800, Note_on_c, 9, 35, 127
2, 76860, Note_on_c, 9, 35, 0
2, 76860, Note_on_c, 9, 42, 0
2, 76860, Note_on_c, 9, 49, 0
2, 76920, Note_on_c, 9, 51, 110
2, 76920, Note_on_c, 9, 42, 90
2, 76920, Note_on_c, 9, 40, 127
2, 76980, Note_on_c, 9, 40, 0
2, 76980, Note_on_c, 9, 42, 0
2, 76980, Note_on_c, 9, 51, 0
2, 77040, Note_on_c, 9, 51, 110
2, 77040, Note_on_c, 9, 42, 90
2, 77040, Note_on_c, 9, 35, 127
2, 77100, Note_on_c, 9, 35, 0
2, 77100, Note_on_c, 9, 42, 0
2, 77100, Note_on_c, 9, 51, 0
2, 77160, Note_on_c, 9, 51, 110
2, 77160, Note_on_c, 9, 42, 90
2, 77160, Note_on_c, 9, 40, 127
2, 77220, Note_on_c, 9, 40, 0
2, 77220, Note_on_c, 9, 42, 0
2, 77220, Note_on_c, 9, 51, 0
2, 77220, Note_on_c, 9, 35, 127
2, 77280, Note_on_c, 9, 35, 0
2, 77280, Note_on_c, 9, 51, 110
2, 77280, Note_on_c, 9, 42, 90
2, 77280, Note_on_c, 9, 35, 127
2, 77340, Note_on_c, 9, 35, 0
2, 77340, Note_on_c, 9, 42, 0
2, 77340, Note_on_c, 9, 51, 0
2, 77370, Note_on_c, 9, 35, 127
2, 77400, Note_on_c, 9, 35, 0
2, 77400, Note_on_c, 9, 51, 110
2, 77400, Note_on_c, 9, 42, 90
2, 77400, Note_on_c, 9, 40, 127
2, 77460, Note_on_c, 9, 40, 0
2, 77460, Note_on_c, 9, 42, 0
2, 77460, Note_on_c, 9, 51, 0
2, 77460, Note_on_c, 9, 35, 127
2, 77520, Note_on_c, 9, 35, 0
2, 77520, Note_on_c, 9, 51, 110
2, 77520, Note_on_c, 9, 42, 90
2, 77580, Note_on_c, 9, 42, 0
2, 77580, Note_on_c, 9, 51, 0
2, 77610, Note_on_c, 9, 35, 127
2, 77640, Note_on_c, 9, 35, 0
2, 77640, Note_on_c, 9, 51, 110
2, 77640, Note_on_c, 9, 42, 90
2, 77640, Note_on_c, 9, 40, 127
2, 77700, Note_on_c, 9, 40, 0
2, 77700, Note_on_c, 9, 42, 0
2, 77700, Note_on_c, 9, 51, 0
2, 77700, Note_on_c, 9, 35, 127
2, 77730, Note_on_c, 9, 35, 0
2, 77760, Note_on_c, 9, 51, 110
2, 77760, Note_on_c, 9, 42, 90
2, 77760, Note_on_c, 9, 35, 127
2, 77820, Note_on_c, 9, 35, 0
2, 77820, Note_on_c, 9, 42, 0
2, 77820, Note_on_c, 9, 51, 0
2, 77880, Note_on_c, 9, 51, 110
2, 77880, Note_on_c, 9, 42, 90
2, 77880, Note_on_c, 9, 40, 127
2, 77940, Note_on_c, 9, 40, 0
2, 77940, Note_on_c, 9, 42, 0
2, 77940, Note_on_c, 9, 51, 0
2, 78000, Note_on_c, 9, 51, 110
2, 78000, Note_on_c, 9, 42, 90
2, 78000, Note_on_c, 9, 35, 127
2, 78060, Note_on_c, 9, 35, 0
2, 78060, Note_on_c, 9, 42, 0
2, 78060, Note_on_c, 9, 51, 0
2, 78120, Note_on_c, 9, 51, 110
2, 78120, Note_on_c, 9, 42, 90
2, 78120, Note_on_c, 9, 40, 127
2, 78180, Note_on_c, 9, 40, 0
2, 78180, Note_on_c, 9, 42, 0
2, 78180, Note_on_c, 9, 51, 0
2, 78180, Note_on_c, 9, 35, 127
2, 78240, Note_on_c, 9, 35, 0
2, 78240, Note_on_c, 9, 51, 110
2, 78240, Note_on_c, 9, 42, 90
2, 78240, Note_on_c, 9, 35, 127
2, 78300, Note_on_c, 9, 35, 0
2, 78300, Note_on_c, 9, 42, 0
2, 78300, Note_on_c, 9, 51, 0
2, 78360, Note_on_c, 9, 51, 110
2, 78360, Note_on_c, 9, 42, 90
2, 78360, Note_on_c, 9, 40, 127
2, 78420, Note_on_c, 9, 40, 0
2, 78420, Note_on_c, 9, 42, 0
2, 78420, Note_on_c, 9, 51, 0
2, 78480, Note_on_c, 9, 51, 110
2, 78480, Note_on_c, 9, 42, 90
2, 78480, Note_on_c, 9, 35, 127
2, 78540, Note_on_c, 9, 35, 0
2, 78540, Note_on_c, 9, 42, 0
2, 78540, Note_on_c, 9, 51, 0
2, 78540, Note_on_c, 9, 35, 127
2, 78570, Note_on_c, 9, 35, 0
2, 78600, Note_on_c, 9, 51, 110
2, 78600, Note_on_c, 9, 42, 90
2, 78600, Note_on_c, 9, 40, 127
2, 78660, Note_on_c, 9, 40, 0
2, 78660, Note_on_c, 9, 42, 0
2, 78660, Note_on_c, 9, 51, 0
2, 78660, Note_on_c, 9, 35, 127
2, 78690, Note_on_c, 9, 35, 0
2, 78720, Note_on_c, 9, 51, 110
2, 78720, Note_on_c, 9, 42, 90
2, 78720, Note_on_c, 9, 35, 127
2, 78780, Note_on_c, 9, 35, 0
2, 78780, Note_on_c, 9, 42, 0
2, 78780, Note_on_c, 9, 51, 0
2, 78840, Note_on_c, 9, 51, 110
2, 78840, Note_on_c, 9, 42, 90
2, 78840, Note_on_c, 9, 40, 127
2, 78900, Note_on_c, 9, 40, 0
2, 78900, Note_on_c, 9, 42, 0
2, 78900, Note_on_c, 9, 51, 0
2, 78960, Note_on_c, 9, 51, 110
2, 78960, Note_on_c, 9, 42, 90
2, 78960, Note_on_c, 9, 35, 127
2, 79020, Note_on_c, 9, 35, 0
2, 79020, Note_on_c, 9, 42, 0
2, 79020, Note_on_c, 9, 51, 0
2, 79080, Note_on_c, 9, 51, 110
2, 79080, Note_on_c, 9, 42, 90
2, 79080, Note_on_c, 9, 40, 127
2, 79140, Note_on_c, 9, 40, 0
2, 79140, Note_on_c, 9, 42, 0
2, 79140, Note_on_c, 9, 51, 0
2, 79140, Note_on_c, 9, 35, 127
2, 79200, Note_on_c, 9, 35, 0
2, 79200, Note_on_c, 9, 51, 110
2, 79200, Note_on_c, 9, 42, 90
2, 79200, Note_on_c, 9, 35, 127
2, 79260, Note_on_c, 9, 35, 0
2, 79260, Note_on_c, 9, 42, 0
2, 79260, Note_on_c, 9, 51, 0
2, 79320, Note_on_c, 9, 51, 110
2, 79320, Note_on_c, 9, 42, 90
2, 79320, Note_on_c, 9, 40, 127
2, 79380, Note_on_c, 9, 40, 0
2, 79380, Note_on_c, 9, 42, 0
2, 79380, Note_on_c, 9, 51, 0
2, 79440, Note_on_c, 9, 51, 110
2, 79440, Note_on_c, 9, 42, 90
2, 79440, Note_on_c, 9, 35, 127
2, 79500, Note_on_c, 9, 35, 0
2, 79500, Note_on_c, 9, 42, 0
2, 79500, Note_on_c, 9, 51, 0
2, 79530, Note_on_c, 9, 35, 127
2, 79560, Note_on_c, 9, 35, 0
2, 79560, Note_on_c, 9, 51, 110
2, 79560, Note_on_c, 9, 42, 90
2, 79560, Note_on_c, 9, 40, 127
2, 79620, Note_on_c, 9, 40, 0
2, 79620, Note_on_c, 9, 42, 0
2, 79620, Note_on_c, 9, 51, 0
2, 79620, Note_on_c, 9, 35, 127
2, 79650, Note_on_c, 9, 35, 0
2, 79680, Note_on_c, 9, 51, 110
2, 79680, Note_on_c, 9, 42, 90
2, 79680, Note_on_c, 9, 35, 127
2, 79740, Note_on_c, 9, 35, 0
2, 79740, Note_on_c, 9, 42, 0
2, 79740, Note_on_c, 9, 51, 0
2, 79800, Note_on_c, 9, 51, 110
2, 79800, Note_on_c, 9, 42, 90
2, 79800, Note_on_c, 9, 40, 127
2, 79860, Note_on_c, 9, 40, 0
2, 79860, Note_on_c, 9, 42, 0
2, 79860, Note_on_c, 9, 51, 0
2, 79920, Note_on_c, 9, 51, 110
2, 79920, Note_on_c, 9, 42, 90
2, 79920, Note_on_c, 9, 35, 127
2, 79980, Note_on_c, 9, 35, 0
2, 79980, Note_on_c, 9, 42, 0
2, 79980, Note_on_c, 9, 51, 0
2, 80040, Note_on_c, 9, 51, 110
2, 80040, Note_on_c, 9, 42, 90
2, 80040, Note_on_c, 9, 40, 127
2, 80100, Note_on_c, 9, 40, 0
2, 80100, Note_on_c, 9, 42, 0
2, 80100, Note_on_c, 9, 51, 0
2, 80100, Note_on_c, 9, 35, 127
2, 80160, Note_on_c, 9, 35, 0
2, 80160, Note_on_c, 9, 51, 110
2, 80160, Note_on_c, 9, 42, 90
2, 80160, Note_on_c, 9, 35, 127
2, 80220, Note_on_c, 9, 35, 0
2, 80220, Note_on_c, 9, 42, 0
2, 80220, Note_on_c, 9, 51, 0
2, 80280, Note_on_c, 9, 51, 110
2, 80280, Note_on_c, 9, 42, 90
2, 80280, Note_on_c, 9, 40, 127
2, 80340, Note_on_c, 9, 40, 0
2, 80340, Note_on_c, 9, 42, 0
2, 80340, Note_on_c, 9, 51, 0
2, 80400, Note_on_c, 9, 51, 110
2, 80400, Note_on_c, 9, 42, 90
2, 80400, Note_on_c, 9, 35, 127
2, 80430, Note_on_c, 9, 35, 127
2, 80460, Note_on_c, 9, 35, 0
2, 80460, Note_on_c, 9, 51, 0
2, 80460, Note_on_c, 9, 42, 0
2, 80460, Note_on_c, 9, 35, 0
2, 80490, Note_on_c, 9, 35, 127
2, 80520, Note_on_c, 9, 35, 0
2, 80520, Note_on_c, 9, 51, 110
2, 80520, Note_on_c, 9, 42, 90
2, 80520, Note_on_c, 9, 40, 127
2, 80580, Note_on_c, 9, 40, 0
2, 80580, Note_on_c, 9, 42, 0
2, 80580, Note_on_c, 9, 51, 0
2, 80580, Note_on_c, 9, 40, 127
2, 80610, Note_on_c, 9, 40, 0
2, 80640, Note_on_c, 9, 55, 110
2, 80640, Note_on_c, 9, 42, 90
2, 80640, Note_on_c, 9, 35, 127
2, 80700, Note_on_c, 9, 35, 0
2, 80700, Note_on_c, 9, 42, 0
2, 80700, Note_on_c, 9, 55, 0
2, 80760, Note_on_c, 9, 51, 110
2, 80760, Note_on_c, 9, 42, 90
2, 80760, Note_on_c, 9, 40, 127
2, 80820, Note_on_c, 9, 40, 0
2, 80820, Note_on_c, 9, 42, 0
2, 80820, Note_on_c, 9, 51, 0
2, 80880, Note_on_c, 9, 51, 110
2, 80880, Note_on_c, 9, 42, 90
2, 80880, Note_on_c, 9, 35, 127
2, 80940, Note_on_c, 9, 35, 0
2, 80940, Note_on_c, 9, 42, 0
2, 80940, Note_on_c, 9, 51, 0
2, 81000, Note_on_c, 9, 51, 110
2, 81000, Note_on_c, 9, 42, 90
2, 81000, Note_on_c, 9, 40, 127
2, 81060, Note_on_c, 9, 40, 0
2, 81060, Note_on_c, 9, 42, 0
2, 81060, Note_on_c, 9, 51, 0
2, 81060, Note_on_c, 9, 35, 127
2, 81120, Note_on_c, 9, 35, 0
2, 81120, Note_on_c, 9, 51, 110
2, 81120, Note_on_c, 9, 42, 90
2, 81120, Note_on_c, 9, 35, 127
2, 81180, Note_on_c, 9, 35, 0
2, 81180, Note_on_c, 9, 42, 0
2, 81180, Note_on_c, 9, 51, 0
2, 81240, Note_on_c, 9, 51, 110
2, 81240, Note_on_c, 9, 42, 90
2, 81240, Note_on_c, 9, 40, 127
2, 81300, Note_on_c, 9, 40, 0
2, 81300, Note_on_c, 9, 42, 0
2, 81300, Note_on_c, 9, 51, 0
2, 81360, Note_on_c, 9, 51, 110
2, 81360, Note_on_c, 9, 42, 90
2, 81360, Note_on_c, 9, 35, 127
2, 81420, Note_on_c, 9, 35, 0
2, 81420, Note_on_c, 9, 42, 0
2, 81420, Note_on_c, 9, 51, 0
2, 81450, Note_on_c, 9, 35, 127
2, 81480, Note_on_c, 9, 35, 0
2, 81480, Note_on_c, 9, 51, 110
2, 81480, Note_on_c, 9, 42, 90
2, 81480, Note_on_c, 9, 40, 127
2, 81540, Note_on_c, 9, 40, 0
2, 81540, Note_on_c, 9, 42, 0
2, 81540, Note_on_c, 9, 51, 0
2, 81540, Note_on_c, 9, 35, 127
2, 81570, Note_on_c, 9, 35, 0
2, 81600, Note_on_c, 9, 51, 110
2, 81600, Note_on_c, 9, 42, 90
2, 81600, Note_on_c, 9, 35, 127
2, 81660, Note_on_c, 9, 35, 0
2, 81660, Note_on_c, 9, 42, 0
2, 81660, Note_on_c, 9, 51, 0
2, 81720, Note_on_c, 9, 51, 110
2, 81720, Note_on_c, 9, 42, 90
2, 81720, Note_on_c, 9, 40, 127
2, 81780, Note_on_c, 9, 40, 0
2, 81780, Note_on_c, 9, 42, 0
2, 81780, Note_on_c, 9, 51, 0
2, 81840, Note_on_c, 9, 51, 110
2, 81840, Note_on_c, 9, 42, 90
2, 81840, Note_on_c, 9, 35, 127
2, 81900, Note_on_c, 9, 35, 0
2, 81900, Note_on_c, 9, 42, 0
2, 81900, Note_on_c, 9, 51, 0
2, 81960, Note_on_c, 9, 51, 110
2, 81960, Note_on_c, 9, 42, 90
2, 81960, Note_on_c, 9, 40, 127
2, 82020, Note_on_c, 9, 40, 0
2, 82020, Note_on_c, 9, 42, 0
2, 82020, Note_on_c, 9, 51, 0
2, 82020, Note_on_c, 9, 35, 127
2, 82080, Note_on_c, 9, 35, 0
2, 82080, Note_on_c, 9, 51, 110
2, 82080, Note_on_c, 9, 42, 90
2, 82080, Note_on_c, 9, 35, 127
2, 82140, Note_on_c, 9, 35, 0
2, 82140, Note_on_c, 9, 42, 0
2, 82140, Note_on_c, 9, 51, 0
2, 82200, Note_on_c, 9, 51, 110
2, 82200, Note_on_c, 9, 42, 90
2, 82200, Note_on_c, 9, 40, 127
2, 82260, Note_on_c, 9, 40, 0
2, 82260, Note_on_c, 9, 42, 0
2, 82260, Note_on_c, 9, 51, 0
2, 82320, Note_on_c, 9, 40, 127
2, 82320, Note_on_c, 9, 51, 110
2, 82320, Note_on_c, 9, 42, 90
2, 82350, Note_on_c, 9, 35, 127
2, 82380, Note_on_c, 9, 35, 0
2, 82380, Note_on_c, 9, 40, 0
2, 82380, Note_on_c, 9, 51, 0
2, 82380, Note_on_c, 9, 42, 0
2, 82410, Note_on_c, 9, 35, 127
2, 82440, Note_on_c, 9, 35, 0
2, 82440, Note_on_c, 9, 51, 110
2, 82440, Note_on_c, 9, 42, 90
2, 82440, Note_on_c, 9, 40, 127
2, 82470, Note_on_c, 9, 40, 127
2, 82500, Note_on_c, 9, 40, 0
2, 82500, Note_on_c, 9, 51, 0
2, 82500, Note_on_c, 9, 42, 0
2, 82500, Note_on_c, 9, 40, 0
2, 82500, Note_on_c, 9, 35, 127
2, 82530, Note_on_c, 9, 35, 0
2, 82560, Note_on_c, 9, 51, 110
2, 82560, Note_on_c, 9, 42, 90
2, 82560, Note_on_c, 9, 35, 127
2, 82620, Note_on_c, 9, 35, 0
2, 82620, Note_on_c, 9, 42, 0
2, 82620, Note_on_c, 9, 51, 0
2, 82620, Note_on_c, 9, 55, 127
2, 82620, Note_on_c, 9, 40, 127
2, 82650, Note_on_c, 9, 40, 0
2, 82650, Note_on_c, 9, 55, 0
2, 82680, Note_on_c, 9, 51, 110
2, 82680, Note_on_c, 9, 42, 90
2, 82740, Note_on_c, 9, 42, 0
2, 82740, Note_on_c, 9, 51, 0
2, 82740, Note_on_c, 9, 35, 127
2, 82800, Note_on_c, 9, 35, 0
2, 82800, Note_on_c, 9, 51, 110
2, 82800, Note_on_c, 9, 42, 90
2, 82800, Note_on_c, 9, 35, 127
2, 82860, Note_on_c, 9, 35, 0
2, 82860, Note_on_c, 9, 42, 0
2, 82860, Note_on_c, 9, 51, 0
2, 82920, Note_on_c, 9, 51, 110
2, 82920, Note_on_c, 9, 42, 90
2, 82920, Note_on_c, 9, 40, 127
2, 82980, Note_on_c, 9, 40, 0
2, 82980, Note_on_c, 9, 42, 0
2, 82980, Note_on_c, 9, 51, 0
2, 82980, Note_on_c, 9, 35, 127
2, 83040, Note_on_c, 9, 35, 0
2, 83040, Note_on_c, 9, 51, 110
2, 83040, Note_on_c, 9, 42, 90
2, 83040, Note_on_c, 9, 35, 127
2, 83100, Note_on_c, 9, 35, 0
2, 83100, Note_on_c, 9, 42, 0
2, 83100, Note_on_c, 9, 51, 0
2, 83130, Note_on_c, 9, 35, 127
2, 83160, Note_on_c, 9, 35, 0
2, 83160, Note_on_c, 9, 51, 110
2, 83160, Note_on_c, 9, 42, 90
2, 83160, Note_on_c, 9, 40, 127
2, 83220, Note_on_c, 9, 40, 0
2, 83220, Note_on_c, 9, 42, 0
2, 83220, Note_on_c, 9, 51, 0
2, 83220, Note_on_c, 9, 35, 127
2, 83250, Note_on_c, 9, 35, 0
2, 83280, Note_on_c, 9, 51, 110
2, 83280, Note_on_c, 9, 42, 90
2, 83340, Note_on_c, 9, 42, 0
2, 83340, Note_on_c, 9, 51, 0
2, 83370, Note_on_c, 9, 35, 127
2, 83400, Note_on_c, 9, 35, 0
2, 83400, Note_on_c, 9, 51, 110
2, 83400, Note_on_c, 9, 42, 90
2, 83400, Note_on_c, 9, 40, 127
2, 83460, Note_on_c, 9, 40, 0
2, 83460, Note_on_c, 9, 42, 0
2, 83460, Note_on_c, 9, 51, 0
2, 83460, Note_on_c, 9, 35, 127
2, 83490, Note_on_c, 9, 35, 0
2, 83520, Note_on_c, 9, 51, 110
2, 83520, Note_on_c, 9, 42, 90
2, 83520, Note_on_c, 9, 35, 127
2, 83580, Note_on_c, 9, 35, 0
2, 83580, Note_on_c, 9, 42, 0
2, 83580, Note_on_c, 9, 51, 0
2, 83610, Note_on_c, 9, 40, 127
2, 83640, Note_on_c, 9, 40, 0
2, 83640, Note_on_c, 9, 51, 110
2, 83640, Note_on_c, 9, 42, 90
2, 83700, Note_on_c, 9, 42, 0
2, 83700, Note_on_c, 9, 51, 0
2, 83700, Note_on_c, 9, 35, 127
2, 83760, Note_on_c, 9, 35, 0
2, 83760, Note_on_c, 9, 51, 110
2, 83760, Note_on_c, 9, 42, 90
2, 83760, Note_on_c, 9, 35, 127
2, 83820, Note_on_c, 9, 35, 0
2, 83820, Note_on_c, 9, 42, 0
2, 83820, Note_on_c, 9, 51, 0
2, 83850, Note_on_c, 9, 40, 127
2, 83880, Note_on_c, 9, 40, 0
2, 83880, Note_on_c, 9, 51, 110
2, 83880, Note_on_c, 9, 42, 90
2, 83880, Note_on_c, 9, 40, 127
2, 83940, Note_on_c, 9, 40, 0
2, 83940, Note_on_c, 9, 42, 0
2, 83940, Note_on_c, 9, 51, 0
2, 83940, Note_on_c, 9, 35, 127
2, 84000, Note_on_c, 9, 35, 0
2, 84000, Note_on_c, 9, 46, 90
2, 84000, Note_on_c, 9, 51, 110
2, 84000, Note_on_c, 9, 35, 127
2, 84060, Note_on_c, 9, 35, 0
2, 84060, Note_on_c, 9, 51, 0
2, 84060, Note_on_c, 9, 46, 0
2, 84060, Note_on_c, 9, 35, 127
2, 84090, Note_on_c, 9, 35, 0
2, 84090, Note_on_c, 9, 35, 127
2, 84120, Note_on_c, 9, 35, 0
2, 84120, Note_on_c, 9, 46, 90
2, 84120, Note_on_c, 9, 51, 110
2, 84120, Note_on_c, 9, 40, 127
2, 84180, Note_on_c, 9, 40, 0
2, 84180, Note_on_c, 9, 51, 0
2, 84180, Note_on_c, 9, 46, 0
2, 84240, Note_on_c, 9, 46, 90
2, 84240, Note_on_c, 9, 40, 127
2, 84240, Note_on_c, 9, 51, 110
2, 84240, Note_on_c, 9, 35, 127
2, 84270, Note_on_c, 9, 40, 0
2, 84270, Note_on_c, 9, 40, 127
2, 84300, Note_on_c, 9, 40, 0
2, 84300, Note_on_c, 9, 35, 0
2, 84300, Note_on_c, 9, 51, 0
2, 84300, Note_on_c, 9, 46, 0
2, 84300, Note_on_c, 9, 48, 127
2, 84330, Note_on_c, 9, 48, 0
2, 84330, Note_on_c, 9, 48, 127
2, 84360, Note_on_c, 9, 48, 0
2, 84360, Note_on_c, 9, 47, 127
2, 84390, Note_on_c, 9, 47, 0
2, 84390, Note_on_c, 9, 45, 127
2, 84420, Note_on_c, 9, 45, 0
2, 84420, Note_on_c, 9, 43, 127
2, 84450, Note_on_c, 9, 43, 0
2, 84450, Note_on_c, 9, 41, 127
2, 84480, Note_on_c, 9, 41, 0
2, 84480, Note_on_c, 9, 35, 127
2, 84510, Note_on_c, 9, 35, 0
2, 84540, Note_on_c, 9, 49, 120
2, 84540, Note_on_c, 9, 35, 127
2, 84570, Note_on_c, 9, 35, 0
2, 84570, Note_on_c, 9, 49, 0
2, 84570, End_track
3, 0, Start_track
3, 0, MIDI_port, 0
3, 0, Title_t, "by Dave Grusin and Lee Ritenour"
3, 343, Control_c, 1, 0, 0
3, 343, Control_c, 1, 32, 0
3, 343, Program_c, 1, 0
3, 346, Control_c, 1, 121, 0
3, 348, Control_c, 1, 7, 90
3, 350, Control_c, 1, 10, 50
3, 352, Control_c, 1, 91, 60
3, 354, Control_c, 1, 93, 20
3, 6240, Control_c, 1, 7, 70
3, 6240, Note_on_c, 1, 57, 96
3, 6240, Control_c, 1, 64, 100
3, 6256, Control_c, 1, 7, 71
3, 6272, Control_c, 1, 7, 72
3, 6288, Control_c, 1, 7, 73
3, 6300, Note_on_c, 1, 67, 110
3, 6304, Control_c, 1, 7, 74
3, 6320, Control_c, 1, 7, 75
3, 6330, Note_on_c, 1, 67, 0
3, 6330, Note_on_c, 1, 72, 110
3, 6336, Control_c, 1, 7, 76
3, 6352, Control_c, 1, 7, 77
3, 6360, Note_on_c, 1, 72, 0
3, 6360, Note_on_c, 1, 67, 110
3, 6368, Control_c, 1, 7, 78
3, 6384, Control_c, 1, 7, 79
3, 6390, Note_on_c, 1, 67, 0
3, 6390, Note_on_c, 1, 79, 110
3, 6400, Control_c, 1, 7, 80
3, 6416, Control_c, 1, 7, 81
3, 6420, Note_on_c, 1, 79, 0
3, 6420, Note_on_c, 1, 67, 110
3, 6432, Control_c, 1, 7, 82
3, 6448, Control_c, 1, 7, 83
3, 6450, Note_on_c, 1, 67, 0
3, 6450, Note_on_c, 1, 72, 110
3, 6464, Control_c, 1, 7, 84
3, 6480, Note_on_c, 1, 72, 0
3, 6480, Note_on_c, 1, 57, 0
3, 6480, Control_c, 1, 7, 85
3, 6480, Note_on_c, 1, 59, 96
3, 6480, Note_on_c, 1, 74, 110
3, 6496, Control_c, 1, 7, 86
3, 6512, Control_c, 1, 7, 87
3, 6528, Control_c, 1, 7, 88
3, 6540, Note_on_c, 1, 74, 0
3, 6540, Note_on_c, 1, 67, 110
3, 6544, Control_c, 1, 7, 89
3, 6560, Control_c, 1, 7, 90
3, 6576, Control_c, 1, 7, 91
3, 6592, Control_c, 1, 7, 92
3, 6600, Note_on_c, 1, 67, 0
3, 6600, Note_on_c, 1, 74, 110
3, 6608, Control_c, 1, 7, 93
3, 6624, Control_c, 1, 7, 94
3, 6640, Control_c, 1, 7, 95
3, 6656, Control_c, 1, 7, 96
3, 6660, Note_on_c, 1, 74, 0
3, 6660, Note_on_c, 1, 79, 110
3, 6672, Control_c, 1, 7, 97
3, 6688, Control_c, 1, 7, 98
3, 6704, Control_c, 1, 7, 99
3, 6719, Control_c, 1, 64, 100
3, 6720, Note_on_c, 1, 79, 0
3, 6720, Note_on_c, 1, 59, 0
3, 6720, Control_c, 1, 7, 100
3, 6720, Note_on_c, 1, 60, 96
3, 6720, Control_c, 1, 64, 100
3, 6780, Note_on_c, 1, 67, 110
3, 6810, Note_on_c, 1, 67, 0
3, 6810, Note_on_c, 1, 72, 110
3, 6840, Note_on_c, 1, 72, 0
3, 6840, Note_on_c, 1, 67, 110
3, 6870, Note_on_c, 1, 67, 0
3, 6870, Note_on_c, 1, 79, 110
3, 6900, Note_on_c, 1, 79, 0
3, 6900, Note_on_c, 1, 67, 110
3, 6930, Note_on_c, 1, 67, 0
3, 6930, Note_on_c, 1, 72, 110
3, 6960, Note_on_c, 1, 72, 0
3, 6960, Note_on_c, 1, 60, 0
3, 6960, Note_on_c, 1, 62, 96
3, 6960, Note_on_c, 1, 74, 110
3, 7020, Note_on_c, 1, 74, 0
3, 7020, Note_on_c, 1, 74, 110
3, 7080, Note_on_c, 1, 74, 0
3, 7080, Note_on_c, 1, 78, 110
3, 7140, Note_on_c, 1, 78, 0
3, 7140, Note_on_c, 1, 78, 110
3, 7170, Note_on_c, 1, 78, 0
3, 7170, Note_on_c, 1, 79, 110
3, 7200, Note_on_c, 1, 79, 0
3, 7200, Note_on_c, 1, 62, 0
3, 7200, Note_on_c, 1, 57, 96
3, 7260, Note_on_c, 1, 67, 110
3, 7290, Note_on_c, 1, 67, 0
3, 7290, Note_on_c, 1, 72, 110
3, 7320, Note_on_c, 1, 72, 0
3, 7320, Note_on_c, 1, 67, 110
3, 7350, Note_on_c, 1, 67, 0
3, 7350, Note_on_c, 1, 79, 110
3, 7380, Note_on_c, 1, 79, 0
3, 7380, Note_on_c, 1, 67, 110
3, 7410, Note_on_c, 1, 67, 0
3, 7410, Note_on_c, 1, 72, 110
3, 7440, Note_on_c, 1, 72, 0
3, 7440, Note_on_c, 1, 57, 0
3, 7440, Note_on_c, 1, 59, 96
3, 7440, Note_on_c, 1, 74, 110
3, 7500, Note_on_c, 1, 74, 0
3, 7500, Note_on_c, 1, 67, 110
3, 7560, Note_on_c, 1, 67, 0
3, 7560, Note_on_c, 1, 74, 110
3, 7620, Note_on_c, 1, 74, 0
3, 7620, Note_on_c, 1, 79, 110
3, 7680, Note_on_c, 1, 79, 0
3, 7680, Note_on_c, 1, 59, 0
3, 7680, Note_on_c, 1, 60, 96
3, 7740, Note_on_c, 1, 67, 110
3, 7770, Note_on_c, 1, 67, 0
3, 7770, Note_on_c, 1, 72, 110
3, 7800, Note_on_c, 1, 72, 0
3, 7800, Note_on_c, 1, 76, 110
3, 7830, Note_on_c, 1, 76, 0
3, 7830, Note_on_c, 1, 74, 110
3, 7860, Note_on_c, 1, 74, 0
3, 7860, Note_on_c, 1, 72, 110
3, 7890, Note_on_c, 1, 72, 0
3, 7890, Note_on_c, 1, 76, 110
3, 7920, Note_on_c, 1, 76, 0
3, 7920, Note_on_c, 1, 60, 0
3, 7920, Note_on_c, 1, 60, 110
3, 7920, Note_on_c, 1, 65, 110
3, 7920, Note_on_c, 1, 69, 110
3, 8040, Note_on_c, 1, 69, 0
3, 8040, Note_on_c, 1, 65, 0
3, 8040, Note_on_c, 1, 60, 0
3, 8040, Note_on_c, 1, 57, 110
3, 8040, Note_on_c, 1, 64, 110
3, 8040, Note_on_c, 1, 67, 110
3, 8160, Note_on_c, 1, 67, 0
3, 8160, Note_on_c, 1, 64, 0
3, 8160, Note_on_c, 1, 57, 0
3, 8160, Note_on_c, 1, 57, 96
3, 8220, Note_on_c, 1, 67, 110
3, 8250, Note_on_c, 1, 67, 0
3, 8250, Note_on_c, 1, 72, 110
3, 8280, Note_on_c, 1, 72, 0
3, 8280, Note_on_c, 1, 67, 110
3, 8310, Note_on_c, 1, 67, 0
3, 8310, Note_on_c, 1, 79, 110
3, 8340, Note_on_c, 1, 79, 0
3, 8340, Note_on_c, 1, 67, 110
3, 8370, Note_on_c, 1, 67, 0
3, 8370, Note_on_c, 1, 72, 110
3, 8400, Note_on_c, 1, 72, 0
3, 8400, Note_on_c, 1, 57, 0
3, 8400, Note_on_c, 1, 59, 96
3, 8400, Note_on_c, 1, 74, 110
3, 8460, Note_on_c, 1, 74, 0
3, 8460, Note_on_c, 1, 67, 110
3, 8520, Note_on_c, 1, 67, 0
3, 8520, Note_on_c, 1, 74, 110
3, 8580, Note_on_c, 1, 74, 0
3, 8580, Note_on_c, 1, 79, 110
3, 8640, Note_on_c, 1, 79, 0
3, 8640, Note_on_c, 1, 59, 0
3, 8640, Note_on_c, 1, 60, 96
3, 8700, Note_on_c, 1, 67, 110
3, 8730, Note_on_c, 1, 67, 0
3, 8730, Note_on_c, 1, 72, 110
3, 8760, Note_on_c, 1, 72, 0
3, 8760, Note_on_c, 1, 67, 110
3, 8790, Note_on_c, 1, 67, 0
3, 8790, Note_on_c, 1, 79, 110
3, 8820, Note_on_c, 1, 79, 0
3, 8820, Note_on_c, 1, 67, 110
3, 8850, Note_on_c, 1, 67, 0
3, 8850, Note_on_c, 1, 72, 110
3, 8880, Note_on_c, 1, 72, 0
3, 8880, Note_on_c, 1, 60, 0
3, 8880, Note_on_c, 1, 62, 96
3, 8880, Note_on_c, 1, 74, 110
3, 8940, Note_on_c, 1, 74, 0
3, 8940, Note_on_c, 1, 74, 110
3, 9000, Note_on_c, 1, 74, 0
3, 9000, Note_on_c, 1, 78, 110
3, 9060, Note_on_c, 1, 78, 0
3, 9060, Note_on_c, 1, 78, 110
3, 9090, Note_on_c, 1, 78, 0
3, 9090, Note_on_c, 1, 79, 110
3, 9120, Note_on_c, 1, 79, 0
3, 9120, Note_on_c, 1, 62, 0
3, 9120, Note_on_c, 1, 57, 96
3, 9180, Note_on_c, 1, 67, 110
3, 9210, Note_on_c, 1, 67, 0
3, 9210, Note_on_c, 1, 72, 110
3, 9240, Note_on_c, 1, 72, 0
3, 9240, Note_on_c, 1, 67, 110
3, 9270, Note_on_c, 1, 67, 0
3, 9270, Note_on_c, 1, 79, 110
3, 9300, Note_on_c, 1, 79, 0
3, 9300, Note_on_c, 1, 67, 110
3, 9330, Note_on_c, 1, 67, 0
3, 9330, Note_on_c, 1, 72, 110
3, 9360, Note_on_c, 1, 72, 0
3, 9360, Note_on_c, 1, 57, 0
3, 9360, Note_on_c, 1, 59, 96
3, 9360, Note_on_c, 1, 74, 110
3, 9420, Note_on_c, 1, 74, 0
3, 9420, Note_on_c, 1, 67, 110
3, 9480, Note_on_c, 1, 67, 0
3, 9480, Note_on_c, 1, 74, 110
3, 9540, Note_on_c, 1, 74, 0
3, 9540, Note_on_c, 1, 79, 110
3, 9600, Note_on_c, 1, 79, 0
3, 9600, Note_on_c, 1, 59, 0
3, 9660, Note_on_c, 1, 83, 110
3, 9690, Note_on_c, 1, 83, 0
3, 9690, Note_on_c, 1, 81, 110
3, 9720, Note_on_c, 1, 81, 0
3, 9720, Note_on_c, 1, 79, 110
3, 9750, Note_on_c, 1, 79, 0
3, 9750, Note_on_c, 1, 74, 110
3, 9780, Note_on_c, 1, 74, 0
3, 9780, Note_on_c, 1, 71, 110
3, 9810, Note_on_c, 1, 71, 0
3, 9810, Note_on_c, 1, 67, 110
3, 9840, Note_on_c, 1, 67, 0
3, 9840, Note_on_c, 1, 72, 110
3, 9840, Control_c, 1, 64, 38
3, 9840, Note_on_c, 1, 60, 110
3, 9840, Note_on_c, 1, 65, 110
3, 9840, Note_on_c, 1, 69, 110
3, 9870, Note_on_c, 1, 69, 0
3, 9870, Note_on_c, 1, 72, 0
3, 9870, Note_on_c, 1, 60, 0
3, 9870, Note_on_c, 1, 65, 0
3, 9960, Note_on_c, 1, 71, 110
3, 9960, Note_on_c, 1, 67, 110
3, 9960, Note_on_c, 1, 57, 110
3, 9960, Note_on_c, 1, 64, 110
3, 10080, Note_on_c, 1, 64, 0
3, 10080, Note_on_c, 1, 71, 0
3, 10080, Note_on_c, 1, 67, 0
3, 10080, Note_on_c, 1, 57, 0
3, 10080, Note_on_c, 1, 59, 110
3, 10080, Control_c, 1, 7, 90
3, 10080, Note_on_c, 1, 67, 110
3, 10080, Note_on_c, 1, 72, 110
3, 10080, Note_on_c, 1, 64, 110
3, 10320, Note_on_c, 1, 64, 0
3, 10320, Note_on_c, 1, 59, 0
3, 10320, Note_on_c, 1, 67, 0
3, 10320, Note_on_c, 1, 72, 0
3, 10320, Note_on_c, 1, 57, 110
3, 10320, Note_on_c, 1, 71, 110
3, 10320, Note_on_c, 1, 67, 110
3, 10320, Note_on_c, 1, 62, 110
3, 10500, Note_on_c, 1, 62, 0
3, 10500, Note_on_c, 1, 57, 0
3, 10500, Note_on_c, 1, 71, 0
3, 10500, Note_on_c, 1, 67, 0
3, 10500, Note_on_c, 1, 55, 110
3, 10500, Note_on_c, 1, 60, 110
3, 10500, Note_on_c, 1, 64, 110
3, 10500, Note_on_c, 1, 67, 110
3, 10740, Note_on_c, 1, 67, 0
3, 10740, Note_on_c, 1, 55, 0
3, 10740, Note_on_c, 1, 60, 0
3, 10740, Note_on_c, 1, 64, 0
3, 10800, Note_on_c, 1, 59, 110
3, 10800, Note_on_c, 1, 67, 110
3, 10800, Note_on_c, 1, 64, 110
3, 10800, Note_on_c, 1, 72, 110
3, 10920, Note_on_c, 1, 72, 0
3, 10920, Note_on_c, 1, 59, 0
3, 10920, Note_on_c, 1, 67, 0
3, 10920, Note_on_c, 1, 64, 0
3, 10920, Note_on_c, 1, 60, 110
3, 10920, Note_on_c, 1, 69, 110
3, 10920, Note_on_c, 1, 74, 110
3, 10920, Note_on_c, 1, 66, 110
3, 11040, Note_on_c, 1, 66, 0
3, 11040, Note_on_c, 1, 60, 0
3, 11040, Note_on_c, 1, 69, 0
3, 11040, Note_on_c, 1, 74, 0
3, 11040, Note_on_c, 1, 57, 110
3, 11040, Note_on_c, 1, 60, 110
3, 11040, Note_on_c, 1, 67, 110
3, 11040, Note_on_c, 1, 64, 110
3, 11130, Note_on_c, 1, 64, 0
3, 11130, Note_on_c, 1, 57, 0
3, 11130, Note_on_c, 1, 60, 0
3, 11130, Note_on_c, 1, 67, 0
3, 11130, Note_on_c, 1, 57, 110
3, 11130, Note_on_c, 1, 60, 110
3, 11130, Note_on_c, 1, 64, 110
3, 11130, Note_on_c, 1, 67, 110
3, 11160, Note_on_c, 1, 67, 0
3, 11160, Note_on_c, 1, 57, 0
3, 11160, Note_on_c, 1, 60, 0
3, 11160, Note_on_c, 1, 64, 0
3, 11220, Note_on_c, 1, 57, 110
3, 11220, Note_on_c, 1, 60, 110
3, 11220, Note_on_c, 1, 64, 110
3, 11220, Note_on_c, 1, 67, 110
3, 11250, Note_on_c, 1, 67, 0
3, 11250, Note_on_c, 1, 57, 0
3, 11250, Note_on_c, 1, 60, 0
3, 11250, Note_on_c, 1, 64, 0
3, 11280, Note_on_c, 1, 59, 110
3, 11280, Note_on_c, 1, 66, 110
3, 11280, Note_on_c, 1, 62, 110
3, 11280, Note_on_c, 1, 69, 110
3, 11460, Note_on_c, 1, 67, 110
3, 11490, Note_on_c, 1, 67, 0
3, 11490, Note_on_c, 1, 69, 110
3, 11520, Note_on_c, 1, 69, 0
3, 11520, Note_on_c, 1, 69, 0
3, 11520, Note_on_c, 1, 59, 0
3, 11520, Note_on_c, 1, 66, 0
3, 11520, Note_on_c, 1, 62, 0
3, 11520, Note_on_c, 1, 67, 110
3, 11520, Note_on_c, 1, 71, 110
3, 11550, Note_on_c, 1, 71, 0
3, 11550, Note_on_c, 1, 67, 0
3, 11550, Note_on_c, 1, 69, 110
3, 11550, Note_on_c, 1, 74, 110
3, 11580, Note_on_c, 1, 74, 0
3, 11580, Note_on_c, 1, 69, 0
3, 11610, Note_on_c, 1, 67, 110
3, 11610, Note_on_c, 1, 71, 110
3, 11640, Note_on_c, 1, 71, 0
3, 11640, Note_on_c, 1, 67, 0
3, 11640, Note_on_c, 1, 69, 110
3, 11640, Note_on_c, 1, 74, 110
3, 11700, Note_on_c, 1, 74, 0
3, 11700, Note_on_c, 1, 69, 0
3, 11700, Note_on_c, 1, 71, 110
3, 11700, Note_on_c, 1, 76, 110
3, 11755, Note_on_c, 1, 76, 0
3, 11755, Note_on_c, 1, 71, 0
3, 11760, Note_on_c, 1, 72, 110
3, 11760, Note_on_c, 1, 64, 110
3, 11760, Note_on_c, 1, 69, 110
3, 11790, Note_on_c, 1, 69, 0
3, 11790, Note_on_c, 1, 64, 0
3, 11790, Note_on_c, 1, 72, 0
3, 11880, Note_on_c, 1, 71, 110
3, 11880, Note_on_c, 1, 62, 110
3, 11880, Note_on_c, 1, 67, 110
3, 12000, Note_on_c, 1, 67, 0
3, 12000, Note_on_c, 1, 62, 0
3, 12000, Note_on_c, 1, 71, 0
3, 12000, Note_on_c, 1, 59, 110
3, 12000, Note_on_c, 1, 67, 110
3, 12000, Note_on_c, 1, 72, 110
3, 12000, Note_on_c, 1, 64, 110
3, 12240, Note_on_c, 1, 64, 0
3, 12240, Note_on_c, 1, 59, 0
3, 12240, Note_on_c, 1, 67, 0
3, 12240, Note_on_c, 1, 72, 0
3, 12240, Note_on_c, 1, 57, 110
3, 12240, Note_on_c, 1, 71, 110
3, 12240, Note_on_c, 1, 67, 110
3, 12240, Note_on_c, 1, 62, 110
3, 12420, Note_on_c, 1, 62, 0
3, 12420, Note_on_c, 1, 57, 0
3, 12420, Note_on_c, 1, 71, 0
3, 12420, Note_on_c, 1, 67, 0
3, 12420, Note_on_c, 1, 55, 110
3, 12420, Note_on_c, 1, 60, 110
3, 12420, Note_on_c, 1, 64, 110
3, 12420, Note_on_c, 1, 67, 110
3, 12660, Note_on_c, 1, 67, 0
3, 12660, Note_on_c, 1, 55, 0
3, 12660, Note_on_c, 1, 60, 0
3, 12660, Note_on_c, 1, 64, 0
3, 12720, Note_on_c, 1, 59, 110
3, 12720, Note_on_c, 1, 67, 110
3, 12720, Note_on_c, 1, 64, 110
3, 12720, Note_on_c, 1, 72, 110
3, 12840, Note_on_c, 1, 72, 0
3, 12840, Note_on_c, 1, 59, 0
3, 12840, Note_on_c, 1, 67, 0
3, 12840, Note_on_c, 1, 64, 0
3, 12840, Note_on_c, 1, 60, 110
3, 12840, Note_on_c, 1, 69, 110
3, 12840, Note_on_c, 1, 74, 110
3, 12840, Note_on_c, 1, 66, 110
3, 12960, Note_on_c, 1, 66, 0
3, 12960, Note_on_c, 1, 60, 0
3, 12960, Note_on_c, 1, 69, 0
3, 12960, Note_on_c, 1, 74, 0
3, 12960, Note_on_c, 1, 60, 110
3, 12960, Note_on_c, 1, 67, 110
3, 12960, Note_on_c, 1, 64, 110
3, 12960, Note_on_c, 1, 72, 110
3, 13050, Note_on_c, 1, 72, 0
3, 13050, Note_on_c, 1, 60, 0
3, 13050, Note_on_c, 1, 67, 0
3, 13050, Note_on_c, 1, 64, 0
3, 13050, Note_on_c, 1, 60, 110
3, 13050, Note_on_c, 1, 64, 110
3, 13050, Note_on_c, 1, 67, 110
3, 13050, Note_on_c, 1, 72, 110
3, 13080, Note_on_c, 1, 72, 0
3, 13080, Note_on_c, 1, 60, 0
3, 13080, Note_on_c, 1, 64, 0
3, 13080, Note_on_c, 1, 67, 0
3, 13140, Note_on_c, 1, 60, 110
3, 13140, Note_on_c, 1, 64, 110
3, 13140, Note_on_c, 1, 67, 110
3, 13140, Note_on_c, 1, 72, 110
3, 13170, Note_on_c, 1, 72, 0
3, 13170, Note_on_c, 1, 60, 0
3, 13170, Note_on_c, 1, 64, 0
3, 13170, Note_on_c, 1, 67, 0
3, 13200, Note_on_c, 1, 67, 110
3, 13200, Note_on_c, 1, 66, 110
3, 13200, Note_on_c, 1, 62, 110
3, 13200, Note_on_c, 1, 74, 110
3, 13380, Note_on_c, 1, 79, 110
3, 13410, Note_on_c, 1, 79, 0
3, 13410, Note_on_c, 1, 78, 110
3, 13440, Note_on_c, 1, 78, 0
3, 13440, Note_on_c, 1, 74, 0
3, 13440, Note_on_c, 1, 67, 0
3, 13440, Note_on_c, 1, 66, 0
3, 13440, Note_on_c, 1, 62, 0
3, 13440, Note_on_c, 1, 64, 110
3, 13440, Note_on_c, 1, 76, 110
3, 13500, Note_on_c, 1, 76, 0
3, 13500, Note_on_c, 1, 64, 0
3, 13500, Note_on_c, 1, 62, 110
3, 13500, Note_on_c, 1, 74, 110
3, 13550, Note_on_c, 1, 70, 90
3, 13550, Note_on_c, 1, 58, 90
3, 13560, Note_on_c, 1, 74, 0
3, 13560, Note_on_c, 1, 62, 0
3, 13560, Note_on_c, 1, 59, 110
3, 13560, Note_on_c, 1, 71, 110
3, 13565, Note_on_c, 1, 70, 0
3, 13565, Note_on_c, 1, 58, 0
3, 13620, Note_on_c, 1, 59, 0
3, 13620, Note_on_c, 1, 71, 0
3, 13620, Note_on_c, 1, 62, 110
3, 13620, Note_on_c, 1, 74, 110
3, 13675, Note_on_c, 1, 74, 0
3, 13680, Note_on_c, 1, 62, 0
3, 13680, Note_on_c, 1, 76, 110
3, 13680, Note_on_c, 1, 72, 110
3, 13680, Note_on_c, 1, 64, 110
3, 13680, Note_on_c, 1, 69, 110
3, 13710, Note_on_c, 1, 69, 0
3, 13710, Note_on_c, 1, 76, 0
3, 13710, Note_on_c, 1, 72, 0
3, 13710, Note_on_c, 1, 64, 0
3, 13800, Note_on_c, 1, 71, 110
3, 13800, Note_on_c, 1, 74, 110
3, 13800, Note_on_c, 1, 62, 110
3, 13800, Note_on_c, 1, 67, 110
3, 13920, Note_on_c, 1, 67, 0
3, 13920, Note_on_c, 1, 71, 0
3, 13920, Note_on_c, 1, 74, 0
3, 13920, Note_on_c, 1, 62, 0
3, 13920, Note_on_c, 1, 62, 110
3, 13920, Note_on_c, 1, 67, 110
3, 13920, Note_on_c, 1, 58, 110
3, 13920, Note_on_c, 1, 70, 110
3, 14160, Note_on_c, 1, 70, 0
3, 14160, Note_on_c, 1, 62, 0
3, 14160, Note_on_c, 1, 67, 0
3, 14160, Note_on_c, 1, 58, 0
3, 14160, Note_on_c, 1, 65, 110
3, 14160, Note_on_c, 1, 69, 110
3, 14160, Note_on_c, 1, 72, 110
3, 14160, Note_on_c, 1, 60, 110
3, 14340, Note_on_c, 1, 60, 0
3, 14340, Note_on_c, 1, 65, 0
3, 14340, Note_on_c, 1, 69, 0
3, 14340, Note_on_c, 1, 72, 0
3, 14340, Note_on_c, 1, 60, 110
3, 14340, Note_on_c, 1, 64, 110
3, 14340, Note_on_c, 1, 67, 110
3, 14340, Note_on_c, 1, 72, 110
3, 14370, Note_on_c, 1, 72, 0
3, 14370, Note_on_c, 1, 60, 0
3, 14370, Note_on_c, 1, 64, 0
3, 14370, Note_on_c, 1, 67, 0
3, 14460, Note_on_c, 1, 58, 110
3, 14460, Note_on_c, 1, 70, 110
3, 14460, Note_on_c, 1, 65, 110
3, 14460, Note_on_c, 1, 62, 110
3, 14640, Note_on_c, 1, 62, 0
3, 14640, Note_on_c, 1, 58, 0
3, 14640, Note_on_c, 1, 70, 0
3, 14640, Note_on_c, 1, 65, 0
3, 14700, Note_on_c, 1, 60, 110
3, 14700, Note_on_c, 1, 74, 110
3, 14700, Note_on_c, 1, 64, 110
3, 14700, Note_on_c, 1, 69, 110
3, 14730, Note_on_c, 1, 69, 0
3, 14730, Note_on_c, 1, 60, 0
3, 14730, Note_on_c, 1, 74, 0
3, 14730, Note_on_c, 1, 64, 0
3, 14820, Note_on_c, 1, 59, 110
3, 14820, Note_on_c, 1, 64, 110
3, 14820, Note_on_c, 1, 67, 110
3, 14820, Note_on_c, 1, 72, 110
3, 15120, Note_on_c, 1, 72, 0
3, 15120, Note_on_c, 1, 59, 0
3, 15120, Note_on_c, 1, 64, 0
3, 15120, Note_on_c, 1, 67, 0
3, 15120, Note_on_c, 1, 59, 110
3, 15120, Note_on_c, 1, 62, 110
3, 15120, Note_on_c, 1, 67, 110
3, 15120, Note_on_c, 1, 71, 110
3, 15300, Note_on_c, 1, 71, 0
3, 15300, Note_on_c, 1, 59, 0
3, 15300, Note_on_c, 1, 62, 0
3, 15300, Note_on_c, 1, 67, 0
3, 15360, Note_on_c, 1, 67, 110
3, 15360, Note_on_c, 1, 57, 110
3, 15360, Note_on_c, 1, 60, 110
3, 15360, Note_on_c, 1, 64, 110
3, 15600, Note_on_c, 1, 64, 0
3, 15600, Note_on_c, 1, 67, 0
3, 15600, Note_on_c, 1, 57, 0
3, 15600, Note_on_c, 1, 60, 0
3, 15600, Note_on_c, 1, 59, 110
3, 15600, Note_on_c, 1, 64, 110
3, 15600, Note_on_c, 1, 67, 110
3, 15600, Note_on_c, 1, 72, 110
3, 15720, Note_on_c, 1, 72, 0
3, 15720, Note_on_c, 1, 59, 0
3, 15720, Note_on_c, 1, 64, 0
3, 15720, Note_on_c, 1, 67, 0
3, 15720, Note_on_c, 1, 60, 110
3, 15720, Note_on_c, 1, 66, 110
3, 15720, Note_on_c, 1, 69, 110
3, 15720, Note_on_c, 1, 74, 110
3, 15833, Note_on_c, 1, 60, 110
3, 15833, Note_on_c, 1, 67, 110
3, 15833, Note_on_c, 1, 64, 110
3, 15833, Note_on_c, 1, 72, 110
3, 15840, Note_on_c, 1, 60, 0
3, 15840, Note_on_c, 1, 74, 0
3, 15840, Note_on_c, 1, 69, 0
3, 15840, Note_on_c, 1, 66, 0
3, 15923, Note_on_c, 1, 60, 0
3, 15923, Note_on_c, 1, 72, 0
3, 15923, Note_on_c, 1, 67, 0
3, 15923, Note_on_c, 1, 64, 0
3, 15923, Note_on_c, 1, 60, 110
3, 15923, Note_on_c, 1, 64, 110
3, 15923, Note_on_c, 1, 67, 110
3, 15923, Note_on_c, 1, 72, 110
3, 15953, Note_on_c, 1, 72, 0
3, 15953, Note_on_c, 1, 60, 0
3, 15953, Note_on_c, 1, 64, 0
3, 15953, Note_on_c, 1, 67, 0
3, 16013, Note_on_c, 1, 60, 110
3, 16013, Note_on_c, 1, 64, 110
3, 16013, Note_on_c, 1, 67, 110
3, 16013, Note_on_c, 1, 72, 110
3, 16043, Note_on_c, 1, 72, 0
3, 16043, Note_on_c, 1, 60, 0
3, 16043, Note_on_c, 1, 64, 0
3, 16043, Note_on_c, 1, 67, 0
3, 16073, Note_on_c, 1, 66, 110
3, 16073, Note_on_c, 1, 62, 110
3, 16073, Note_on_c, 1, 69, 110
3, 16073, Note_on_c, 1, 74, 110
3, 16253, Note_on_c, 1, 67, 110
3, 16283, Note_on_c, 1, 67, 0
3, 16283, Note_on_c, 1, 69, 110
3, 16313, Note_on_c, 1, 69, 0
3, 16313, Note_on_c, 1, 74, 0
3, 16313, Note_on_c, 1, 66, 0
3, 16313, Note_on_c, 1, 62, 0
3, 16313, Note_on_c, 1, 69, 0
3, 16313, Note_on_c, 1, 67, 110
3, 16313, Note_on_c, 1, 71, 110
3, 16343, Note_on_c, 1, 71, 0
3, 16343, Note_on_c, 1, 67, 0
3, 16343, Note_on_c, 1, 69, 110
3, 16343, Note_on_c, 1, 74, 110
3, 16373, Note_on_c, 1, 74, 0
3, 16373, Note_on_c, 1, 69, 0
3, 16403, Note_on_c, 1, 67, 110
3, 16403, Note_on_c, 1, 71, 110
3, 16433, Note_on_c, 1, 71, 0
3, 16433, Note_on_c, 1, 67, 0
3, 16433, Note_on_c, 1, 69, 110
3, 16433, Note_on_c, 1, 74, 110
3, 16493, Note_on_c, 1, 74, 0
3, 16493, Note_on_c, 1, 69, 0
3, 16493, Note_on_c, 1, 71, 110
3, 16493, Note_on_c, 1, 76, 110
3, 16548, Note_on_c, 1, 76, 0
3, 16548, Note_on_c, 1, 71, 0
3, 16553, Note_on_c, 1, 72, 110
3, 16553, Note_on_c, 1, 64, 110
3, 16553, Note_on_c, 1, 69, 110
3, 16583, Note_on_c, 1, 69, 0
3, 16583, Note_on_c, 1, 64, 0
3, 16583, Note_on_c, 1, 72, 0
3, 16673, Note_on_c, 1, 71, 110
3, 16673, Note_on_c, 1, 62, 110
3, 16673, Note_on_c, 1, 67, 110
3, 16793, Note_on_c, 1, 67, 0
3, 16793, Note_on_c, 1, 62, 0
3, 16793, Note_on_c, 1, 71, 0
3, 16800, Note_on_c, 1, 60, 110
3, 16800, Note_on_c, 1, 67, 110
3, 16800, Note_on_c, 1, 72, 110
3, 16800, Note_on_c, 1, 64, 110
3, 17040, Note_on_c, 1, 64, 0
3, 17040, Note_on_c, 1, 60, 0
3, 17040, Note_on_c, 1, 67, 0
3, 17040, Note_on_c, 1, 72, 0
3, 17040, Note_on_c, 1, 59, 110
3, 17040, Note_on_c, 1, 71, 110
3, 17040, Note_on_c, 1, 67, 110
3, 17040, Note_on_c, 1, 62, 110
3, 17220, Note_on_c, 1, 62, 0
3, 17220, Note_on_c, 1, 59, 0
3, 17220, Note_on_c, 1, 71, 0
3, 17220, Note_on_c, 1, 67, 0
3, 17220, Note_on_c, 1, 57, 110
3, 17220, Note_on_c, 1, 60, 110
3, 17220, Note_on_c, 1, 64, 110
3, 17220, Note_on_c, 1, 67, 110
3, 17460, Note_on_c, 1, 67, 0
3, 17460, Note_on_c, 1, 57, 0
3, 17460, Note_on_c, 1, 60, 0
3, 17460, Note_on_c, 1, 64, 0
3, 17520, Note_on_c, 1, 59, 110
3, 17520, Note_on_c, 1, 67, 110
3, 17520, Note_on_c, 1, 64, 110
3, 17520, Note_on_c, 1, 72, 110
3, 17640, Note_on_c, 1, 72, 0
3, 17640, Note_on_c, 1, 59, 0
3, 17640, Note_on_c, 1, 67, 0
3, 17640, Note_on_c, 1, 64, 0
3, 17640, Note_on_c, 1, 60, 110
3, 17640, Note_on_c, 1, 69, 110
3, 17640, Note_on_c, 1, 74, 110
3, 17640, Note_on_c, 1, 66, 110
3, 17760, Note_on_c, 1, 66, 0
3, 17760, Note_on_c, 1, 60, 0
3, 17760, Note_on_c, 1, 69, 0
3, 17760, Note_on_c, 1, 74, 0
3, 17760, Note_on_c, 1, 60, 110
3, 17760, Note_on_c, 1, 67, 110
3, 17760, Note_on_c, 1, 64, 110
3, 17760, Note_on_c, 1, 72, 110
3, 17850, Note_on_c, 1, 72, 0
3, 17850, Note_on_c, 1, 60, 0
3, 17850, Note_on_c, 1, 67, 0
3, 17850, Note_on_c, 1, 64, 0
3, 17850, Note_on_c, 1, 60, 110
3, 17850, Note_on_c, 1, 64, 110
3, 17850, Note_on_c, 1, 67, 110
3, 17850, Note_on_c, 1, 72, 110
3, 17880, Note_on_c, 1, 72, 0
3, 17880, Note_on_c, 1, 60, 0
3, 17880, Note_on_c, 1, 64, 0
3, 17880, Note_on_c, 1, 67, 0
3, 17940, Note_on_c, 1, 60, 110
3, 17940, Note_on_c, 1, 64, 110
3, 17940, Note_on_c, 1, 67, 110
3, 17940, Note_on_c, 1, 72, 110
3, 17970, Note_on_c, 1, 72, 0
3, 17970, Note_on_c, 1, 60, 0
3, 17970, Note_on_c, 1, 64, 0
3, 17970, Note_on_c, 1, 67, 0
3, 18000, Note_on_c, 1, 66, 110
3, 18000, Note_on_c, 1, 62, 110
3, 18000, Note_on_c, 1, 69, 110
3, 18000, Note_on_c, 1, 74, 110
3, 18180, Note_on_c, 1, 83, 110
3, 18210, Note_on_c, 1, 83, 0
3, 18210, Note_on_c, 1, 81, 110
3, 18240, Note_on_c, 1, 81, 0
3, 18240, Note_on_c, 1, 74, 0
3, 18240, Note_on_c, 1, 66, 0
3, 18240, Note_on_c, 1, 62, 0
3, 18240, Note_on_c, 1, 69, 0
3, 18240, Note_on_c, 1, 79, 110
3, 18270, Note_on_c, 1, 79, 0
3, 18270, Note_on_c, 1, 74, 110
3, 18300, Note_on_c, 1, 74, 0
3, 18300, Note_on_c, 1, 71, 110
3, 18330, Note_on_c, 1, 71, 0
3, 18330, Note_on_c, 1, 67, 110
3, 18360, Note_on_c, 1, 67, 0
3, 18360, Note_on_c, 1, 69, 110
3, 18420, Note_on_c, 1, 69, 0
3, 18420, Note_on_c, 1, 71, 110
3, 18475, Note_on_c, 1, 71, 0
3, 18480, Note_on_c, 1, 72, 110
3, 18480, Note_on_c, 1, 64, 110
3, 18480, Note_on_c, 1, 69, 110
3, 18510, Note_on_c, 1, 69, 0
3, 18510, Note_on_c, 1, 64, 0
3, 18510, Note_on_c, 1, 72, 0
3, 18600, Note_on_c, 1, 71, 110
3, 18600, Note_on_c, 1, 62, 110
3, 18600, Note_on_c, 1, 67, 110
3, 18720, Note_on_c, 1, 67, 0
3, 18720, Note_on_c, 1, 62, 0
3, 18720, Note_on_c, 1, 71, 0
3, 18720, Note_on_c, 1, 59, 110
3, 18720, Note_on_c, 1, 67, 110
3, 18720, Note_on_c, 1, 72, 110
3, 18720, Note_on_c, 1, 64, 110
3, 18960, Note_on_c, 1, 64, 0
3, 18960, Note_on_c, 1, 59, 0
3, 18960, Note_on_c, 1, 67, 0
3, 18960, Note_on_c, 1, 72, 0
3, 18960, Note_on_c, 1, 57, 110
3, 18960, Note_on_c, 1, 71, 110
3, 18960, Note_on_c, 1, 67, 110
3, 18960, Note_on_c, 1, 62, 110
3, 19140, Note_on_c, 1, 62, 0
3, 19140, Note_on_c, 1, 57, 0
3, 19140, Note_on_c, 1, 71, 0
3, 19140, Note_on_c, 1, 67, 0
3, 19140, Note_on_c, 1, 55, 110
3, 19140, Note_on_c, 1, 60, 110
3, 19140, Note_on_c, 1, 64, 110
3, 19140, Note_on_c, 1, 67, 110
3, 19380, Note_on_c, 1, 67, 0
3, 19380, Note_on_c, 1, 55, 0
3, 19380, Note_on_c, 1, 60, 0
3, 19380, Note_on_c, 1, 64, 0
3, 19440, Note_on_c, 1, 59, 110
3, 19440, Note_on_c, 1, 67, 110
3, 19440, Note_on_c, 1, 64, 110
3, 19440, Note_on_c, 1, 72, 110
3, 19560, Note_on_c, 1, 72, 0
3, 19560, Note_on_c, 1, 59, 0
3, 19560, Note_on_c, 1, 67, 0
3, 19560, Note_on_c, 1, 64, 0
3, 19560, Note_on_c, 1, 60, 110
3, 19560, Note_on_c, 1, 69, 110
3, 19560, Note_on_c, 1, 74, 110
3, 19560, Note_on_c, 1, 66, 110
3, 19680, Note_on_c, 1, 66, 0
3, 19680, Note_on_c, 1, 60, 0
3, 19680, Note_on_c, 1, 69, 0
3, 19680, Note_on_c, 1, 74, 0
3, 19680, Note_on_c, 1, 60, 110
3, 19680, Note_on_c, 1, 67, 110
3, 19680, Note_on_c, 1, 64, 110
3, 19680, Note_on_c, 1, 72, 110
3, 19770, Note_on_c, 1, 72, 0
3, 19770, Note_on_c, 1, 60, 0
3, 19770, Note_on_c, 1, 67, 0
3, 19770, Note_on_c, 1, 64, 0
3, 19770, Note_on_c, 1, 60, 110
3, 19770, Note_on_c, 1, 64, 110
3, 19770, Note_on_c, 1, 67, 110
3, 19770, Note_on_c, 1, 72, 110
3, 19800, Note_on_c, 1, 72, 0
3, 19800, Note_on_c, 1, 60, 0
3, 19800, Note_on_c, 1, 64, 0
3, 19800, Note_on_c, 1, 67, 0
3, 19860, Note_on_c, 1, 60, 110
3, 19860, Note_on_c, 1, 64, 110
3, 19860, Note_on_c, 1, 67, 110
3, 19860, Note_on_c, 1, 72, 110
3, 19890, Note_on_c, 1, 72, 0
3, 19890, Note_on_c, 1, 60, 0
3, 19890, Note_on_c, 1, 64, 0
3, 19890, Note_on_c, 1, 67, 0
3, 19920, Note_on_c, 1, 67, 110
3, 19920, Note_on_c, 1, 66, 110
3, 19920, Note_on_c, 1, 62, 110
3, 19920, Note_on_c, 1, 74, 110
3, 20100, Note_on_c, 1, 79, 110
3, 20130, Note_on_c, 1, 79, 0
3, 20130, Note_on_c, 1, 78, 110
3, 20160, Note_on_c, 1, 78, 0
3, 20160, Note_on_c, 1, 74, 0
3, 20160, Note_on_c, 1, 67, 0
3, 20160, Note_on_c, 1, 66, 0
3, 20160, Note_on_c, 1, 62, 0
3, 20160, Note_on_c, 1, 64, 110
3, 20160, Note_on_c, 1, 76, 110
3, 20220, Note_on_c, 1, 76, 0
3, 20220, Note_on_c, 1, 64, 0
3, 20220, Note_on_c, 1, 62, 110
3, 20220, Note_on_c, 1, 74, 110
3, 20270, Note_on_c, 1, 70, 90
3, 20270, Note_on_c, 1, 58, 90
3, 20280, Note_on_c, 1, 74, 0
3, 20280, Note_on_c, 1, 62, 0
3, 20280, Note_on_c, 1, 59, 110
3, 20280, Note_on_c, 1, 71, 110
3, 20285, Note_on_c, 1, 70, 0
3, 20285, Note_on_c, 1, 58, 0
3, 20340, Note_on_c, 1, 59, 0
3, 20340, Note_on_c, 1, 71, 0
3, 20340, Note_on_c, 1, 62, 110
3, 20340, Note_on_c, 1, 74, 110
3, 20395, Note_on_c, 1, 74, 0
3, 20400, Note_on_c, 1, 62, 0
3, 20400, Note_on_c, 1, 76, 110
3, 20400, Note_on_c, 1, 72, 110
3, 20400, Note_on_c, 1, 64, 110
3, 20400, Note_on_c, 1, 69, 110
3, 20430, Note_on_c, 1, 69, 0
3, 20430, Note_on_c, 1, 76, 0
3, 20430, Note_on_c, 1, 72, 0
3, 20430, Note_on_c, 1, 64, 0
3, 20520, Note_on_c, 1, 71, 110
3, 20520, Note_on_c, 1, 74, 110
3, 20520, Note_on_c, 1, 62, 110
3, 20520, Note_on_c, 1, 67, 110
3, 20640, Note_on_c, 1, 67, 0
3, 20640, Note_on_c, 1, 71, 0
3, 20640, Note_on_c, 1, 74, 0
3, 20640, Note_on_c, 1, 62, 0
3, 20640, Note_on_c, 1, 62, 110
3, 20640, Note_on_c, 1, 67, 110
3, 20640, Note_on_c, 1, 58, 110
3, 20640, Note_on_c, 1, 70, 110
3, 20880, Note_on_c, 1, 70, 0
3, 20880, Note_on_c, 1, 62, 0
3, 20880, Note_on_c, 1, 67, 0
3, 20880, Note_on_c, 1, 58, 0
3, 20880, Note_on_c, 1, 65, 110
3, 20880, Note_on_c, 1, 69, 110
3, 20880, Note_on_c, 1, 72, 110
3, 20880, Note_on_c, 1, 60, 110
3, 21060, Note_on_c, 1, 60, 0
3, 21060, Note_on_c, 1, 65, 0
3, 21060, Note_on_c, 1, 69, 0
3, 21060, Note_on_c, 1, 72, 0
3, 21060, Note_on_c, 1, 60, 110
3, 21060, Note_on_c, 1, 64, 110
3, 21060, Note_on_c, 1, 67, 110
3, 21060, Note_on_c, 1, 72, 110
3, 21090, Note_on_c, 1, 72, 0
3, 21090, Note_on_c, 1, 60, 0
3, 21090, Note_on_c, 1, 64, 0
3, 21090, Note_on_c, 1, 67, 0
3, 21180, Note_on_c, 1, 62, 110
3, 21180, Note_on_c, 1, 70, 110
3, 21180, Note_on_c, 1, 65, 110
3, 21180, Note_on_c, 1, 58, 110
3, 21360, Note_on_c, 1, 58, 0
3, 21360, Note_on_c, 1, 62, 0
3, 21360, Note_on_c, 1, 70, 0
3, 21360, Note_on_c, 1, 65, 0
3, 21420, Note_on_c, 1, 60, 110
3, 21420, Note_on_c, 1, 74, 110
3, 21420, Note_on_c, 1, 64, 110
3, 21420, Note_on_c, 1, 69, 110
3, 21450, Note_on_c, 1, 69, 0
3, 21450, Note_on_c, 1, 60, 0
3, 21450, Note_on_c, 1, 74, 0
3, 21450, Note_on_c, 1, 64, 0
3, 21540, Note_on_c, 1, 59, 110
3, 21540, Note_on_c, 1, 62, 110
3, 21540, Note_on_c, 1, 67, 110
3, 21540, Note_on_c, 1, 72, 110
3, 21840, Note_on_c, 1, 72, 0
3, 21840, Note_on_c, 1, 59, 0
3, 21840, Note_on_c, 1, 62, 0
3, 21840, Note_on_c, 1, 67, 0
3, 21840, Note_on_c, 1, 67, 110
3, 21840, Note_on_c, 1, 71, 110
3, 21840, Note_on_c, 1, 62, 110
3, 21840, Note_on_c, 1, 59, 110
3, 22013, Note_on_c, 1, 57, 110
3, 22013, Note_on_c, 1, 60, 110
3, 22013, Note_on_c, 1, 64, 110
3, 22020, Note_on_c, 1, 59, 0
3, 22020, Note_on_c, 1, 62, 0
3, 22020, Note_on_c, 1, 67, 0
3, 22020, Note_on_c, 1, 71, 0
3, 22020, Note_on_c, 1, 67, 110
3, 22253, Note_on_c, 1, 64, 0
3, 22253, Note_on_c, 1, 60, 0
3, 22253, Note_on_c, 1, 57, 0
3, 22260, Note_on_c, 1, 67, 0
3, 22320, Note_on_c, 1, 61, 110
3, 22320, Note_on_c, 1, 64, 110
3, 22320, Note_on_c, 1, 67, 110
3, 22500, Note_on_c, 1, 69, 110
3, 22500, Note_on_c, 1, 72, 110
3, 22500, Note_on_c, 1, 65, 110
3, 22560, Note_on_c, 1, 67, 0
3, 22560, Note_on_c, 1, 61, 0
3, 22560, Note_on_c, 1, 64, 0
3, 22620, Note_on_c, 1, 69, 0
3, 22620, Note_on_c, 1, 72, 0
3, 22620, Note_on_c, 1, 65, 0
3, 22620, Note_on_c, 1, 67, 110
3, 22620, Note_on_c, 1, 72, 110
3, 22620, Note_on_c, 1, 65, 110
3, 22640, Note_on_c, 1, 65, 0
3, 22640, Note_on_c, 1, 72, 0
3, 22640, Note_on_c, 1, 67, 0
3, 22680, Note_on_c, 1, 67, 110
3, 22680, Note_on_c, 1, 72, 110
3, 22680, Note_on_c, 1, 65, 110
3, 22740, Note_on_c, 1, 65, 0
3, 22740, Note_on_c, 1, 72, 0
3, 22740, Note_on_c, 1, 67, 0
3, 22800, Note_on_c, 1, 67, 110
3, 22800, Note_on_c, 1, 65, 110
3, 22800, Note_on_c, 1, 59, 110
3, 22800, Note_on_c, 1, 71, 110
3, 22830, Note_on_c, 1, 71, 0
3, 22830, Note_on_c, 1, 67, 0
3, 22830, Note_on_c, 1, 65, 0
3, 22830, Note_on_c, 1, 59, 0
3, 22980, Note_on_c, 1, 59, 110
3, 22980, Note_on_c, 1, 64, 110
3, 22980, Note_on_c, 1, 71, 110
3, 22980, Note_on_c, 1, 67, 110
3, 23100, Note_on_c, 1, 67, 0
3, 23100, Note_on_c, 1, 59, 0
3, 23100, Note_on_c, 1, 64, 0
3, 23100, Note_on_c, 1, 71, 0
3, 23100, Note_on_c, 1, 59, 110
3, 23100, Note_on_c, 1, 64, 110
3, 23100, Note_on_c, 1, 67, 110
3, 23100, Note_on_c, 1, 71, 110
3, 23130, Note_on_c, 1, 71, 0
3, 23130, Note_on_c, 1, 59, 0
3, 23130, Note_on_c, 1, 64, 0
3, 23130, Note_on_c, 1, 67, 0
3, 23160, Note_on_c, 1, 71, 110
3, 23160, Note_on_c, 1, 67, 110
3, 23160, Note_on_c, 1, 64, 110
3, 23160, Note_on_c, 1, 59, 110
3, 23190, Note_on_c, 1, 59, 0
3, 23190, Note_on_c, 1, 71, 0
3, 23190, Note_on_c, 1, 67, 0
3, 23190, Note_on_c, 1, 64, 0
3, 23280, Note_on_c, 1, 67, 110
3, 23280, Note_on_c, 1, 71, 110
3, 23280, Note_on_c, 1, 75, 110
3, 23280, Note_on_c, 1, 63, 110
3, 23310, Note_on_c, 1, 63, 0
3, 23310, Note_on_c, 1, 67, 0
3, 23310, Note_on_c, 1, 71, 0
3, 23310, Note_on_c, 1, 75, 0
3, 23460, Note_on_c, 1, 72, 110
3, 23460, Note_on_c, 1, 62, 110
3, 23460, Note_on_c, 1, 67, 110
3, 23490, Note_on_c, 1, 67, 0
3, 23490, Note_on_c, 1, 62, 0
3, 23490, Note_on_c, 1, 72, 0
3, 23580, Note_on_c, 1, 71, 110
3, 23580, Note_on_c, 1, 61, 110
3, 23580, Note_on_c, 1, 66, 110
3, 23610, Note_on_c, 1, 66, 0
3, 23610, Note_on_c, 1, 61, 0
3, 23610, Note_on_c, 1, 71, 0
3, 23700, Note_on_c, 1, 65, 110
3, 23700, Note_on_c, 1, 69, 110
3, 23700, Note_on_c, 1, 74, 110
3, 23730, Note_on_c, 1, 74, 0
3, 23730, Note_on_c, 1, 69, 0
3, 23730, Note_on_c, 1, 65, 0
3, 23820, Note_on_c, 1, 71, 110
3, 23820, Note_on_c, 1, 67, 110
3, 23820, Note_on_c, 1, 64, 110
3, 23850, Note_on_c, 1, 64, 0
3, 23850, Note_on_c, 1, 67, 0
3, 23850, Note_on_c, 1, 71, 0
3, 23940, Note_on_c, 1, 59, 110
3, 23940, Note_on_c, 1, 64, 110
3, 23940, Note_on_c, 1, 67, 110
3, 24060, Note_on_c, 1, 67, 0
3, 24060, Note_on_c, 1, 64, 0
3, 24060, Note_on_c, 1, 59, 0
3, 24060, Note_on_c, 1, 59, 110
3, 24060, Note_on_c, 1, 64, 110
3, 24060, Note_on_c, 1, 67, 110
3, 24090, Note_on_c, 1, 67, 0
3, 24090, Note_on_c, 1, 64, 0
3, 24090, Note_on_c, 1, 59, 0
3, 24120, Note_on_c, 1, 59, 110
3, 24120, Note_on_c, 1, 64, 110
3, 24120, Note_on_c, 1, 67, 110
3, 24150, Note_on_c, 1, 67, 0
3, 24150, Note_on_c, 1, 64, 0
3, 24150, Note_on_c, 1, 59, 0
3, 24240, Note_on_c, 1, 66, 110
3, 24240, Note_on_c, 1, 59, 110
3, 24240, Note_on_c, 1, 69, 110
3, 24240, Note_on_c, 1, 63, 110
3, 24270, Note_on_c, 1, 63, 0
3, 24270, Note_on_c, 1, 66, 0
3, 24270, Note_on_c, 1, 59, 0
3, 24270, Note_on_c, 1, 69, 0
3, 24420, Note_on_c, 1, 62, 110
3, 24420, Note_on_c, 1, 66, 110
3, 24420, Note_on_c, 1, 69, 110
3, 24540, Note_on_c, 1, 69, 0
3, 24540, Note_on_c, 1, 66, 0
3, 24540, Note_on_c, 1, 62, 0
3, 24540, Note_on_c, 1, 67, 110
3, 24540, Note_on_c, 1, 59, 110
3, 24540, Note_on_c, 1, 64, 110
3, 24570, Note_on_c, 1, 64, 0
3, 24570, Note_on_c, 1, 59, 0
3, 24570, Note_on_c, 1, 67, 0
3, 24600, Note_on_c, 1, 67, 110
3, 24600, Note_on_c, 1, 59, 110
3, 24600, Note_on_c, 1, 64, 110
3, 24630, Note_on_c, 1, 64, 0
3, 24630, Note_on_c, 1, 59, 0
3, 24630, Note_on_c, 1, 67, 0
3, 24720, Note_on_c, 1, 65, 110
3, 24720, Note_on_c, 1, 69, 110
3, 24720, Note_on_c, 1, 61, 110
3, 24750, Note_on_c, 1, 61, 0
3, 24750, Note_on_c, 1, 69, 0
3, 24750, Note_on_c, 1, 65, 0
3, 24900, Note_on_c, 1, 72, 110
3, 24900, Note_on_c, 1, 69, 110
3, 24900, Note_on_c, 1, 65, 110
3, 24960, Note_on_c, 1, 65, 0
3, 24960, Note_on_c, 1, 69, 0
3, 24960, Note_on_c, 1, 72, 0
3, 25020, Note_on_c, 1, 71, 110
3, 25020, Note_on_c, 1, 67, 110
3, 25020, Note_on_c, 1, 64, 110
3, 25080, Note_on_c, 1, 64, 0
3, 25080, Note_on_c, 1, 67, 0
3, 25080, Note_on_c, 1, 71, 0
3, 25140, Note_on_c, 1, 76, 110
3, 25140, Note_on_c, 1, 71, 110
3, 25140, Note_on_c, 1, 67, 110
3, 25200, Note_on_c, 1, 67, 0
3, 25200, Note_on_c, 1, 71, 0
3, 25200, Note_on_c, 1, 76, 0
3, 25260, Note_on_c, 1, 64, 110
3, 25260, Note_on_c, 1, 67, 110
3, 25260, Note_on_c, 1, 71, 110
3, 25320, Note_on_c, 1, 71, 0
3, 25320, Note_on_c, 1, 67, 0
3, 25320, Note_on_c, 1, 64, 0
3, 25380, Note_on_c, 1, 60, 110
3, 25380, Note_on_c, 1, 66, 110
3, 25380, Note_on_c, 1, 69, 110
3, 25500, Note_on_c, 1, 69, 0
3, 25500, Note_on_c, 1, 66, 0
3, 25500, Note_on_c, 1, 60, 0
3, 25500, Note_on_c, 1, 59, 110
3, 25500, Note_on_c, 1, 64, 110
3, 25500, Note_on_c, 1, 67, 110
3, 25530, Note_on_c, 1, 67, 0
3, 25530, Note_on_c, 1, 64, 0
3, 25530, Note_on_c, 1, 59, 0
3, 25560, Note_on_c, 1, 59, 110
3, 25560, Note_on_c, 1, 64, 110
3, 25560, Note_on_c, 1, 67, 110
3, 25620, Note_on_c, 1, 67, 0
3, 25620, Note_on_c, 1, 64, 0
3, 25620, Note_on_c, 1, 59, 0
3, 25680, Note_on_c, 1, 71, 110
3, 25680, Note_on_c, 1, 65, 110
3, 25680, Note_on_c, 1, 67, 110
3, 25680, Note_on_c, 1, 61, 110
3, 25710, Note_on_c, 1, 61, 0
3, 25710, Note_on_c, 1, 71, 0
3, 25710, Note_on_c, 1, 65, 0
3, 25710, Note_on_c, 1, 67, 0
3, 25860, Note_on_c, 1, 72, 110
3, 25860, Note_on_c, 1, 65, 110
3, 25860, Note_on_c, 1, 62, 110
3, 25980, Note_on_c, 1, 62, 0
3, 25980, Note_on_c, 1, 65, 0
3, 25980, Note_on_c, 1, 72, 0
3, 25980, Note_on_c, 1, 62, 110
3, 25980, Note_on_c, 1, 65, 110
3, 25980, Note_on_c, 1, 72, 110
3, 26010, Note_on_c, 1, 72, 0
3, 26010, Note_on_c, 1, 65, 0
3, 26010, Note_on_c, 1, 62, 0
3, 26040, Note_on_c, 1, 62, 110
3, 26040, Note_on_c, 1, 65, 110
3, 26040, Note_on_c, 1, 72, 110
3, 26100, Note_on_c, 1, 72, 0
3, 26100, Note_on_c, 1, 65, 0
3, 26100, Note_on_c, 1, 62, 0
3, 26160, Note_on_c, 1, 71, 110
3, 26160, Note_on_c, 1, 62, 110
3, 26160, Note_on_c, 1, 67, 110
3, 26190, Note_on_c, 1, 67, 0
3, 26190, Note_on_c, 1, 62, 0
3, 26190, Note_on_c, 1, 71, 0
3, 26340, Note_on_c, 1, 69, 110
3, 26340, Note_on_c, 1, 64, 110
3, 26340, Note_on_c, 1, 72, 110
3, 26400, Note_on_c, 1, 72, 0
3, 26400, Note_on_c, 1, 64, 0
3, 26400, Note_on_c, 1, 69, 0
3, 26460, Note_on_c, 1, 67, 110
3, 26460, Note_on_c, 1, 62, 110
3, 26460, Note_on_c, 1, 71, 110
3, 26520, Note_on_c, 1, 71, 0
3, 26520, Note_on_c, 1, 62, 0
3, 26520, Note_on_c, 1, 67, 0
3, 26580, Note_on_c, 1, 74, 110
3, 26580, Note_on_c, 1, 67, 110
3, 26580, Note_on_c, 1, 64, 110
3, 26580, Note_on_c, 1, 71, 110
3, 26580, Note_on_c, 1, 79, 110
3, 26640, Note_on_c, 1, 79, 0
3, 26640, Note_on_c, 1, 64, 0
3, 26640, Note_on_c, 1, 74, 0
3, 26640, Note_on_c, 1, 67, 0
3, 26640, Note_on_c, 1, 71, 0
3, 26700, Note_on_c, 1, 61, 110
3, 26700, Note_on_c, 1, 67, 110
3, 26700, Note_on_c, 1, 64, 110
3, 26700, Note_on_c, 1, 71, 110
3, 26760, Note_on_c, 1, 71, 0
3, 26760, Note_on_c, 1, 61, 0
3, 26760, Note_on_c, 1, 67, 0
3, 26760, Note_on_c, 1, 64, 0
3, 26820, Note_on_c, 1, 62, 110
3, 26820, Note_on_c, 1, 65, 110
3, 26820, Note_on_c, 1, 72, 110
3, 26940, Note_on_c, 1, 72, 0
3, 26940, Note_on_c, 1, 65, 0
3, 26940, Note_on_c, 1, 62, 0
3, 26940, Note_on_c, 1, 62, 110
3, 26940, Note_on_c, 1, 65, 110
3, 26940, Note_on_c, 1, 72, 110
3, 26970, Note_on_c, 1, 72, 0
3, 26970, Note_on_c, 1, 65, 0
3, 26970, Note_on_c, 1, 62, 0
3, 27000, Note_on_c, 1, 62, 110
3, 27000, Note_on_c, 1, 65, 110
3, 27000, Note_on_c, 1, 72, 110
3, 27060, Note_on_c, 1, 72, 0
3, 27060, Note_on_c, 1, 65, 0
3, 27060, Note_on_c, 1, 62, 0
3, 27120, Note_on_c, 1, 62, 110
3, 27120, Note_on_c, 1, 65, 110
3, 27120, Note_on_c, 1, 71, 110
3, 27180, Note_on_c, 1, 71, 0
3, 27180, Note_on_c, 1, 65, 0
3, 27180, Note_on_c, 1, 62, 0
3, 27300, Note_on_c, 1, 60, 110
3, 27300, Note_on_c, 1, 64, 110
3, 27300, Note_on_c, 1, 67, 110
3, 27300, Note_on_c, 1, 71, 110
3, 27420, Note_on_c, 1, 71, 0
3, 27420, Note_on_c, 1, 60, 0
3, 27420, Note_on_c, 1, 64, 0
3, 27420, Note_on_c, 1, 67, 0
3, 27420, Note_on_c, 1, 60, 110
3, 27420, Note_on_c, 1, 67, 110
3, 27420, Note_on_c, 1, 64, 110
3, 27420, Note_on_c, 1, 71, 110
3, 27450, Note_on_c, 1, 71, 0
3, 27450, Note_on_c, 1, 60, 0
3, 27450, Note_on_c, 1, 67, 0
3, 27450, Note_on_c, 1, 64, 0
3, 27480, Note_on_c, 1, 60, 110
3, 27480, Note_on_c, 1, 67, 110
3, 27480, Note_on_c, 1, 64, 110
3, 27480, Note_on_c, 1, 71, 110
3, 27540, Note_on_c, 1, 71, 0
3, 27540, Note_on_c, 1, 60, 0
3, 27540, Note_on_c, 1, 67, 0
3, 27540, Note_on_c, 1, 64, 0
3, 27600, Note_on_c, 1, 64, 110
3, 27600, Note_on_c, 1, 67, 110
3, 27600, Note_on_c, 1, 71, 110
3, 27600, Note_on_c, 1, 63, 110
3, 27660, Note_on_c, 1, 63, 0
3, 27660, Note_on_c, 1, 64, 0
3, 27660, Note_on_c, 1, 67, 0
3, 27660, Note_on_c, 1, 71, 0
3, 27780, Note_on_c, 1, 70, 110
3, 27780, Note_on_c, 1, 67, 110
3, 27780, Note_on_c, 1, 72, 110
3, 27780, Note_on_c, 1, 64, 110
3, 27840, Control_c, 1, 64, 100
3, 27960, Note_on_c, 1, 69, 100
3, 27990, Note_on_c, 1, 69, 0
3, 27990, Note_on_c, 1, 70, 100
3, 28020, Note_on_c, 1, 70, 0
3, 28020, Note_on_c, 1, 72, 100
3, 28050, Note_on_c, 1, 72, 0
3, 28050, Note_on_c, 1, 74, 101
3, 28080, Note_on_c, 1, 74, 0
3, 28080, Note_on_c, 1, 75, 101
3, 28110, Note_on_c, 1, 75, 0
3, 28110, Note_on_c, 1, 77, 101
3, 28140, Note_on_c, 1, 77, 0
3, 28140, Note_on_c, 1, 74, 101
3, 28170, Note_on_c, 1, 74, 0
3, 28170, Note_on_c, 1, 75, 101
3, 28200, Note_on_c, 1, 75, 0
3, 28200, Note_on_c, 1, 77, 101
3, 28230, Note_on_c, 1, 77, 0
3, 28230, Note_on_c, 1, 79, 102
3, 28260, Note_on_c, 1, 79, 0
3, 28260, Note_on_c, 1, 84, 102
3, 28290, Note_on_c, 1, 84, 0
3, 28290, Note_on_c, 1, 79, 102
3, 28320, Note_on_c, 1, 79, 0
3, 28320, Note_on_c, 1, 81, 102
3, 28350, Note_on_c, 1, 81, 0
3, 28350, Note_on_c, 1, 82, 102
3, 28380, Note_on_c, 1, 82, 0
3, 28380, Note_on_c, 1, 84, 102
3, 28410, Note_on_c, 1, 84, 0
3, 28410, Note_on_c, 1, 87, 102
3, 28440, Note_on_c, 1, 87, 0
3, 28440, Note_on_c, 1, 89, 103
3, 28470, Note_on_c, 1, 89, 0
3, 28470, Note_on_c, 1, 91, 103
3, 28500, Note_on_c, 1, 91, 0
3, 28500, Note_on_c, 1, 94, 103
3, 28530, Note_on_c, 1, 94, 0
3, 28530, Note_on_c, 1, 96, 103
3, 28560, Note_on_c, 1, 96, 0
3, 28590, Note_on_c, 1, 89, 103
3, 28620, Note_on_c, 1, 89, 0
3, 28620, Note_on_c, 1, 94, 104
3, 28650, Note_on_c, 1, 94, 0
3, 28800, Note_on_c, 1, 64, 0
3, 28800, Note_on_c, 1, 70, 0
3, 28800, Note_on_c, 1, 67, 0
3, 28800, Note_on_c, 1, 72, 0
3, 28800, Control_c, 1, 7, 95
3, 28800, Control_c, 1, 64, 100
3, 28800, Note_on_c, 1, 52, 100
3, 28800, Note_on_c, 1, 59, 100
3, 28860, Note_on_c, 1, 54, 100
3, 28920, Note_on_c, 1, 54, 0
3, 28920, Note_on_c, 1, 56, 100
3, 28980, Note_on_c, 1, 56, 0
3, 28980, Note_on_c, 1, 64, 100
3, 29040, Note_on_c, 1, 64, 0
3, 29040, Note_on_c, 1, 68, 100
3, 29040, Note_on_c, 1, 64, 100
3, 29040, Note_on_c, 1, 61, 100
3, 29100, Note_on_c, 1, 57, 100
3, 29160, Note_on_c, 1, 57, 0
3, 29160, Note_on_c, 1, 59, 100
3, 29220, Note_on_c, 1, 59, 0
3, 29220, Note_on_c, 1, 60, 100
3, 29220, Note_on_c, 1, 64, 100
3, 29220, Note_on_c, 1, 67, 100
3, 29220, Note_on_c, 1, 72, 100
3, 29280, Note_on_c, 1, 64, 0
3, 29280, Note_on_c, 1, 68, 0
3, 29280, Note_on_c, 1, 52, 0
3, 29280, Note_on_c, 1, 59, 0
3, 29280, Note_on_c, 1, 61, 0
3, 29280, Note_on_c, 1, 62, 100
3, 29340, Note_on_c, 1, 62, 0
3, 29340, Note_on_c, 1, 67, 0
3, 29340, Note_on_c, 1, 67, 100
3, 29395, Note_on_c, 1, 64, 0
3, 29395, Note_on_c, 1, 72, 0
3, 29400, Note_on_c, 1, 60, 0
3, 29400, Note_on_c, 1, 67, 0
3, 29400, Note_on_c, 1, 64, 100
3, 29400, Note_on_c, 1, 67, 100
3, 29400, Note_on_c, 1, 71, 100
3, 29640, Note_on_c, 1, 71, 0
3, 29640, Note_on_c, 1, 67, 0
3, 29640, Note_on_c, 1, 64, 0
3, 29640, Note_on_c, 1, 65, 101
3, 29640, Note_on_c, 1, 63, 101
3, 29640, Note_on_c, 1, 69, 101
3, 29760, Note_on_c, 1, 69, 0
3, 29760, Note_on_c, 1, 63, 0
3, 29760, Note_on_c, 1, 65, 0
3, 29760, Note_on_c, 1, 69, 101
3, 29760, Note_on_c, 1, 62, 101
3, 29820, Note_on_c, 1, 69, 0
3, 29820, Note_on_c, 1, 69, 101
3, 29880, Note_on_c, 1, 69, 0
3, 29880, Note_on_c, 1, 62, 0
3, 29880, Note_on_c, 1, 65, 101
3, 29940, Note_on_c, 1, 65, 0
3, 29940, Note_on_c, 1, 62, 101
3, 30000, Note_on_c, 1, 62, 0
3, 30000, Note_on_c, 1, 67, 101
3, 30000, Note_on_c, 1, 74, 101
3, 30000, Note_on_c, 1, 58, 101
3, 30060, Note_on_c, 1, 58, 0
3, 30060, Note_on_c, 1, 74, 0
3, 30060, Note_on_c, 1, 70, 101
3, 30120, Note_on_c, 1, 70, 0
3, 30120, Note_on_c, 1, 67, 0
3, 30120, Note_on_c, 1, 67, 101
3, 30180, Note_on_c, 1, 67, 0
3, 30180, Note_on_c, 1, 59, 101
3, 30180, Note_on_c, 1, 64, 101
3, 30180, Note_on_c, 1, 69, 101
3, 30240, Note_on_c, 1, 69, 0
3, 30240, Note_on_c, 1, 69, 101
3, 30300, Note_on_c, 1, 69, 0
3, 30300, Note_on_c, 1, 81, 101
3, 30360, Note_on_c, 1, 81, 0
3, 30360, Note_on_c, 1, 66, 102
3, 30360, Note_on_c, 1, 69, 102
3, 30360, Note_on_c, 1, 73, 102
3, 30360, Note_on_c, 1, 78, 102
3, 30420, Note_on_c, 1, 64, 0
3, 30420, Note_on_c, 1, 59, 0
3, 30540, Note_on_c, 1, 73, 0
3, 30540, Note_on_c, 1, 69, 0
3, 30540, Note_on_c, 1, 66, 0
3, 30540, Note_on_c, 1, 66, 102
3, 30540, Note_on_c, 1, 69, 102
3, 30540, Note_on_c, 1, 75, 102
3, 30600, Note_on_c, 1, 78, 0
3, 30720, Note_on_c, 1, 66, 0
3, 30720, Note_on_c, 1, 69, 0
3, 30720, Note_on_c, 1, 75, 0
3, 30720, Note_on_c, 1, 52, 102
3, 30720, Note_on_c, 1, 59, 102
3, 30780, Note_on_c, 1, 54, 102
3, 30840, Note_on_c, 1, 54, 0
3, 30840, Note_on_c, 1, 56, 102
3, 30900, Note_on_c, 1, 56, 0
3, 30900, Note_on_c, 1, 64, 102
3, 30960, Note_on_c, 1, 64, 0
3, 30960, Note_on_c, 1, 68, 102
3, 30960, Note_on_c, 1, 64, 102
3, 30960, Note_on_c, 1, 61, 102
3, 31020, Note_on_c, 1, 57, 102
3, 31080, Note_on_c, 1, 57, 0
3, 31080, Note_on_c, 1, 59, 102
3, 31140, Note_on_c, 1, 59, 0
3, 31140, Note_on_c, 1, 60, 103
3, 31140, Note_on_c, 1, 64, 103
3, 31140, Note_on_c, 1, 67, 103
3, 31140, Note_on_c, 1, 72, 103
3, 31200, Note_on_c, 1, 64, 0
3, 31200, Note_on_c, 1, 68, 0
3, 31200, Note_on_c, 1, 52, 0
3, 31200, Note_on_c, 1, 59, 0
3, 31200, Note_on_c, 1, 61, 0
3, 31200, Note_on_c, 1, 62, 103
3, 31260, Note_on_c, 1, 62, 0
3, 31260, Note_on_c, 1, 67, 0
3, 31260, Note_on_c, 1, 67, 103
3, 31315, Note_on_c, 1, 64, 0
3, 31315, Note_on_c, 1, 72, 0
3, 31320, Note_on_c, 1, 60, 0
3, 31320, Note_on_c, 1, 67, 0
3, 31320, Note_on_c, 1, 64, 103
3, 31320, Note_on_c, 1, 67, 103
3, 31320, Note_on_c, 1, 71, 103
3, 31560, Note_on_c, 1, 71, 0
3, 31560, Note_on_c, 1, 67, 0
3, 31560, Note_on_c, 1, 64, 0
3, 31560, Note_on_c, 1, 65, 103
3, 31560, Note_on_c, 1, 63, 103
3, 31560, Note_on_c, 1, 69, 103
3, 31680, Note_on_c, 1, 69, 0
3, 31680, Note_on_c, 1, 63, 0
3, 31680, Note_on_c, 1, 65, 0
3, 31680, Note_on_c, 1, 69, 103
3, 31680, Note_on_c, 1, 62, 103
3, 31740, Note_on_c, 1, 69, 0
3, 31740, Note_on_c, 1, 69, 103
3, 31800, Note_on_c, 1, 69, 0
3, 31800, Note_on_c, 1, 62, 0
3, 31800, Note_on_c, 1, 65, 103
3, 31860, Note_on_c, 1, 65, 0
3, 31860, Note_on_c, 1, 62, 103
3, 31920, Note_on_c, 1, 62, 0
3, 31920, Note_on_c, 1, 67, 104
3, 31920, Note_on_c, 1, 74, 104
3, 31920, Note_on_c, 1, 58, 104
3, 31980, Note_on_c, 1, 58, 0
3, 31980, Note_on_c, 1, 74, 0
3, 31980, Note_on_c, 1, 70, 104
3, 32040, Note_on_c, 1, 70, 0
3, 32040, Note_on_c, 1, 67, 0
3, 32040, Note_on_c, 1, 67, 104
3, 32100, Note_on_c, 1, 67, 0
3, 32100, Note_on_c, 1, 59, 104
3, 32100, Note_on_c, 1, 64, 104
3, 32100, Note_on_c, 1, 69, 104
3, 32160, Note_on_c, 1, 69, 0
3, 32160, Note_on_c, 1, 69, 104
3, 32220, Note_on_c, 1, 69, 0
3, 32220, Note_on_c, 1, 81, 104
3, 32280, Note_on_c, 1, 81, 0
3, 32280, Note_on_c, 1, 66, 104
3, 32280, Note_on_c, 1, 69, 104
3, 32280, Note_on_c, 1, 73, 104
3, 32280, Note_on_c, 1, 78, 104
3, 32340, Note_on_c, 1, 64, 0
3, 32340, Note_on_c, 1, 59, 0
3, 32460, Note_on_c, 1, 73, 0
3, 32460, Note_on_c, 1, 69, 0
3, 32460, Note_on_c, 1, 66, 0
3, 32460, Note_on_c, 1, 69, 104
3, 32460, Note_on_c, 1, 67, 104
3, 32460, Note_on_c, 1, 63, 104
3, 32520, Note_on_c, 1, 78, 0
3, 32640, Note_on_c, 1, 69, 0
3, 32640, Note_on_c, 1, 67, 0
3, 32640, Note_on_c, 1, 63, 0
3, 32640, Control_c, 1, 7, 90
3, 32640, Control_c, 1, 64, 0
3, 32640, Note_on_c, 1, 74, 110
3, 32640, Note_on_c, 1, 65, 110
3, 32640, Note_on_c, 1, 70, 110
3, 32640, Note_on_c, 1, 77, 110
3, 32730, Note_on_c, 1, 77, 0
3, 32730, Note_on_c, 1, 74, 0
3, 32730, Note_on_c, 1, 65, 0
3, 32730, Note_on_c, 1, 70, 0
3, 32730, Note_on_c, 1, 74, 110
3, 32730, Note_on_c, 1, 65, 110
3, 32730, Note_on_c, 1, 70, 110
3, 32730, Note_on_c, 1, 77, 110
3, 32760, Note_on_c, 1, 77, 0
3, 32760, Note_on_c, 1, 74, 0
3, 32760, Note_on_c, 1, 65, 0
3, 32760, Note_on_c, 1, 70, 0
3, 32820, Note_on_c, 1, 64, 110
3, 32820, Note_on_c, 1, 69, 110
3, 32820, Note_on_c, 1, 72, 110
3, 32820, Note_on_c, 1, 76, 110
3, 33060, Note_on_c, 1, 76, 0
3, 33060, Note_on_c, 1, 64, 0
3, 33060, Note_on_c, 1, 69, 0
3, 33060, Note_on_c, 1, 72, 0
3, 33060, Note_on_c, 1, 62, 110
3, 33060, Note_on_c, 1, 71, 110
3, 33060, Note_on_c, 1, 67, 110
3, 33060, Note_on_c, 1, 74, 110
3, 33180, Note_on_c, 1, 69, 110
3, 33180, Note_on_c, 1, 76, 110
3, 33210, Note_on_c, 1, 76, 0
3, 33210, Note_on_c, 1, 69, 0
3, 33210, Note_on_c, 1, 67, 110
3, 33210, Note_on_c, 1, 74, 110
3, 33240, Note_on_c, 1, 74, 0
3, 33240, Note_on_c, 1, 71, 0
3, 33240, Note_on_c, 1, 74, 0
3, 33240, Note_on_c, 1, 62, 0
3, 33240, Note_on_c, 1, 67, 0
3, 33240, Note_on_c, 1, 67, 0
3, 33240, Note_on_c, 1, 69, 110
3, 33240, Note_on_c, 1, 62, 110
3, 33240, Note_on_c, 1, 66, 110
3, 33240, Note_on_c, 1, 73, 110
3, 33420, Note_on_c, 1, 64, 110
3, 33450, Note_on_c, 1, 64, 0
3, 33450, Note_on_c, 1, 73, 110
3, 33450, Note_on_c, 1, 69, 110
3, 33480, Note_on_c, 1, 69, 0
3, 33480, Note_on_c, 1, 73, 0
3, 33480, Note_on_c, 1, 69, 110
3, 33480, Note_on_c, 1, 73, 110
3, 33480, Note_on_c, 1, 78, 110
3, 33600, Note_on_c, 1, 78, 0
3, 33600, Note_on_c, 1, 69, 0
3, 33600, Note_on_c, 1, 62, 0
3, 33600, Note_on_c, 1, 66, 0
3, 33600, Note_on_c, 1, 69, 0
3, 33600, Note_on_c, 1, 73, 0
3, 33600, Note_on_c, 1, 73, 0
3, 33600, Note_on_c, 1, 62, 110
3, 33600, Note_on_c, 1, 72, 110
3, 33600, Note_on_c, 1, 69, 110
3, 33600, Note_on_c, 1, 65, 110
3, 33720, Note_on_c, 1, 74, 110
3, 33780, Note_on_c, 1, 74, 0
3, 33780, Note_on_c, 1, 69, 0
3, 33780, Note_on_c, 1, 62, 0
3, 33780, Note_on_c, 1, 72, 0
3, 33780, Note_on_c, 1, 65, 0
3, 33780, Note_on_c, 1, 59, 110
3, 33780, Note_on_c, 1, 64, 110
3, 33780, Note_on_c, 1, 67, 110
3, 33780, Note_on_c, 1, 71, 110
3, 33960, Note_on_c, 1, 71, 0
3, 33960, Note_on_c, 1, 59, 0
3, 33960, Note_on_c, 1, 64, 0
3, 33960, Note_on_c, 1, 67, 0
3, 34020, Note_on_c, 1, 62, 110
3, 34020, Note_on_c, 1, 65, 110
3, 34020, Note_on_c, 1, 69, 110
3, 34200, Note_on_c, 1, 69, 0
3, 34200, Note_on_c, 1, 65, 0
3, 34200, Note_on_c, 1, 62, 0
3, 34200, Note_on_c, 1, 61, 110
3, 34200, Note_on_c, 1, 64, 110
3, 34200, Note_on_c, 1, 68, 110
3, 34380, Note_on_c, 1, 64, 110
3, 34410, Note_on_c, 1, 64, 0
3, 34410, Note_on_c, 1, 68, 110
3, 34440, Note_on_c, 1, 68, 0
3, 34440, Note_on_c, 1, 68, 110
3, 34440, Note_on_c, 1, 73, 110
3, 34440, Note_on_c, 1, 76, 110
3, 34500, Note_on_c, 1, 68, 0
3, 34500, Note_on_c, 1, 64, 0
3, 34500, Note_on_c, 1, 61, 0
3, 34560, Note_on_c, 1, 68, 0
3, 34560, Note_on_c, 1, 76, 0
3, 34560, Note_on_c, 1, 73, 0
3, 34560, Note_on_c, 1, 74, 110
3, 34560, Note_on_c, 1, 65, 110
3, 34560, Note_on_c, 1, 70, 110
3, 34560, Note_on_c, 1, 77, 110
3, 34650, Note_on_c, 1, 77, 0
3, 34650, Note_on_c, 1, 74, 0
3, 34650, Note_on_c, 1, 65, 0
3, 34650, Note_on_c, 1, 70, 0
3, 34650, Note_on_c, 1, 74, 110
3, 34650, Note_on_c, 1, 65, 110
3, 34650, Note_on_c, 1, 70, 110
3, 34650, Note_on_c, 1, 77, 110
3, 34680, Note_on_c, 1, 77, 0
3, 34680, Note_on_c, 1, 74, 0
3, 34680, Note_on_c, 1, 65, 0
3, 34680, Note_on_c, 1, 70, 0
3, 34740, Note_on_c, 1, 64, 110
3, 34740, Note_on_c, 1, 69, 110
3, 34740, Note_on_c, 1, 72, 110
3, 34740, Note_on_c, 1, 76, 110
3, 34980, Note_on_c, 1, 76, 0
3, 34980, Note_on_c, 1, 64, 0
3, 34980, Note_on_c, 1, 69, 0
3, 34980, Note_on_c, 1, 72, 0
3, 34980, Note_on_c, 1, 62, 110
3, 34980, Note_on_c, 1, 71, 110
3, 34980, Note_on_c, 1, 67, 110
3, 34980, Note_on_c, 1, 74, 110
3, 35100, Note_on_c, 1, 69, 110
3, 35100, Note_on_c, 1, 76, 110
3, 35130, Note_on_c, 1, 76, 0
3, 35130, Note_on_c, 1, 69, 0
3, 35130, Note_on_c, 1, 67, 110
3, 35130, Note_on_c, 1, 74, 110
3, 35160, Note_on_c, 1, 74, 0
3, 35160, Note_on_c, 1, 71, 0
3, 35160, Note_on_c, 1, 74, 0
3, 35160, Note_on_c, 1, 62, 0
3, 35160, Note_on_c, 1, 67, 0
3, 35160, Note_on_c, 1, 67, 0
3, 35160, Note_on_c, 1, 69, 110
3, 35160, Note_on_c, 1, 62, 110
3, 35160, Note_on_c, 1, 66, 110
3, 35160, Note_on_c, 1, 73, 110
3, 35340, Note_on_c, 1, 76, 110
3, 35400, Note_on_c, 1, 76, 0
3, 35400, Note_on_c, 1, 78, 110
3, 35430, Note_on_c, 1, 78, 0
3, 35430, Note_on_c, 1, 76, 110
3, 35430, Note_on_c, 1, 81, 110
3, 35520, Note_on_c, 1, 81, 0
3, 35520, Note_on_c, 1, 62, 0
3, 35520, Note_on_c, 1, 66, 0
3, 35520, Note_on_c, 1, 69, 0
3, 35520, Note_on_c, 1, 76, 0
3, 35520, Note_on_c, 1, 73, 0
3, 35520, Note_on_c, 1, 60, 110
3, 35520, Note_on_c, 1, 64, 110
3, 35520, Note_on_c, 1, 72, 110
3, 35520, Note_on_c, 1, 67, 110
3, 35520, Note_on_c, 1, 81, 110
3, 35580, Note_on_c, 1, 81, 0
3, 35580, Note_on_c, 1, 84, 110
3, 35640, Note_on_c, 1, 84, 0
3, 35640, Note_on_c, 1, 81, 110
3, 35660, Note_on_c, 1, 81, 0
3, 35700, Note_on_c, 1, 72, 0
3, 35700, Note_on_c, 1, 60, 0
3, 35700, Note_on_c, 1, 64, 0
3, 35700, Note_on_c, 1, 67, 0
3, 35700, Note_on_c, 1, 79, 110
3, 35700, Note_on_c, 1, 71, 110
3, 35700, Note_on_c, 1, 59, 110
3, 35700, Note_on_c, 1, 64, 110
3, 35700, Note_on_c, 1, 67, 110
3, 36000, Note_on_c, 1, 67, 0
3, 36000, Note_on_c, 1, 59, 0
3, 36000, Note_on_c, 1, 79, 0
3, 36000, Note_on_c, 1, 71, 0
3, 36000, Note_on_c, 1, 64, 0
3, 36000, Control_c, 1, 64, 60
3, 36000, Note_on_c, 1, 79, 110
3, 36000, Note_on_c, 1, 67, 110
3, 36000, Note_on_c, 1, 58, 110
3, 36000, Note_on_c, 1, 63, 110
3, 36060, Note_on_c, 1, 79, 0
3, 36060, Note_on_c, 1, 82, 110
3, 36120, Note_on_c, 1, 82, 0
3, 36120, Note_on_c, 1, 79, 110
3, 36150, Note_on_c, 1, 79, 0
3, 36180, Note_on_c, 1, 67, 0
3, 36180, Note_on_c, 1, 58, 0
3, 36180, Note_on_c, 1, 63, 0
3, 36180, Note_on_c, 1, 65, 110
3, 36180, Note_on_c, 1, 58, 110
3, 36180, Note_on_c, 1, 62, 110
3, 36180, Note_on_c, 1, 77, 110
3, 36240, Note_on_c, 1, 77, 0
3, 36360, Note_on_c, 1, 65, 0
3, 36360, Note_on_c, 1, 58, 0
3, 36360, Note_on_c, 1, 62, 0
3, 36420, Note_on_c, 1, 77, 110
3, 36450, Note_on_c, 1, 77, 0
3, 36450, Note_on_c, 1, 79, 110
3, 36480, Note_on_c, 1, 79, 0
3, 36480, Note_on_c, 1, 75, 110
3, 36480, Note_on_c, 1, 70, 110
3, 36480, Note_on_c, 1, 65, 110
3, 36480, Note_on_c, 1, 80, 110
3, 36540, Note_on_c, 1, 80, 0
3, 36540, Note_on_c, 1, 79, 110
3, 36600, Note_on_c, 1, 79, 0
3, 36600, Note_on_c, 1, 77, 110
3, 36660, Note_on_c, 1, 77, 0
3, 36660, Note_on_c, 1, 75, 0
3, 36660, Note_on_c, 1, 70, 0
3, 36660, Note_on_c, 1, 65, 0
3, 36660, Note_on_c, 1, 67, 110
3, 36660, Note_on_c, 1, 72, 110
3, 36660, Note_on_c, 1, 79, 110
3, 36720, Note_on_c, 1, 79, 0
3, 36720, Note_on_c, 1, 75, 110
3, 36780, Note_on_c, 1, 75, 0
3, 36780, Note_on_c, 1, 70, 110
3, 36840, Note_on_c, 1, 70, 0
3, 36840, Note_on_c, 1, 72, 0
3, 36840, Note_on_c, 1, 67, 0
3, 36840, Note_on_c, 1, 62, 110
3, 36840, Note_on_c, 1, 67, 110
3, 36840, Note_on_c, 1, 71, 110
3, 36840, Note_on_c, 1, 74, 110
3, 37140, Note_on_c, 1, 71, 0
3, 37140, Control_c, 1, 64, 100
3, 37140, Note_on_c, 1, 71, 110
3, 37170, Note_on_c, 1, 71, 0
3, 37170, Note_on_c, 1, 72, 110
3, 37200, Note_on_c, 1, 72, 0
3, 37200, Note_on_c, 1, 79, 110
3, 37320, Note_on_c, 1, 74, 0
3, 37320, Note_on_c, 1, 67, 0
3, 37380, Note_on_c, 1, 79, 0
3, 37380, Note_on_c, 1, 78, 110
3, 37410, Note_on_c, 1, 78, 0
3, 37410, Note_on_c, 1, 79, 110
3, 37440, Note_on_c, 1, 79, 0
3, 37440, Note_on_c, 1, 86, 110
3, 37500, Note_on_c, 1, 83, 110
3, 37530, Note_on_c, 1, 83, 0
3, 37530, Note_on_c, 1, 84, 110
3, 37560, Note_on_c, 1, 84, 0
3, 37560, Note_on_c, 1, 86, 0
3, 37560, Note_on_c, 1, 91, 110
3, 37620, Note_on_c, 1, 62, 0
3, 37740, Note_on_c, 1, 88, 110
3, 37770, Note_on_c, 1, 88, 0
3, 37770, Note_on_c, 1, 90, 110
3, 37800, Note_on_c, 1, 90, 0
3, 37800, Note_on_c, 1, 91, 0
3, 37800, Note_on_c, 1, 98, 110
3, 38280, Note_on_c, 1, 98, 0
3, 38400, Control_c, 1, 7, 100
3, 38400, Note_on_c, 1, 57, 96
3, 38460, Note_on_c, 1, 67, 110
3, 38490, Note_on_c, 1, 67, 0
3, 38490, Note_on_c, 1, 72, 110
3, 38520, Note_on_c, 1, 72, 0
3, 38520, Note_on_c, 1, 67, 110
3, 38550, Note_on_c, 1, 67, 0
3, 38550, Note_on_c, 1, 79, 110
3, 38580, Note_on_c, 1, 79, 0
3, 38580, Note_on_c, 1, 67, 110
3, 38610, Note_on_c, 1, 67, 0
3, 38610, Note_on_c, 1, 72, 110
3, 38640, Note_on_c, 1, 72, 0
3, 38640, Note_on_c, 1, 57, 0
3, 38640, Note_on_c, 1, 59, 96
3, 38640, Note_on_c, 1, 74, 110
3, 38700, Note_on_c, 1, 74, 0
3, 38700, Note_on_c, 1, 67, 110
3, 38760, Note_on_c, 1, 67, 0
3, 38760, Note_on_c, 1, 74, 110
3, 38820, Note_on_c, 1, 74, 0
3, 38820, Note_on_c, 1, 79, 110
3, 38880, Note_on_c, 1, 79, 0
3, 38880, Note_on_c, 1, 59, 0
3, 38880, Note_on_c, 1, 60, 96
3, 38940, Note_on_c, 1, 67, 110
3, 38970, Note_on_c, 1, 67, 0
3, 38970, Note_on_c, 1, 72, 110
3, 39000, Note_on_c, 1, 72, 0
3, 39000, Note_on_c, 1, 67, 110
3, 39030, Note_on_c, 1, 67, 0
3, 39030, Note_on_c, 1, 79, 110
3, 39060, Note_on_c, 1, 79, 0
3, 39060, Note_on_c, 1, 67, 110
3, 39090, Note_on_c, 1, 67, 0
3, 39090, Note_on_c, 1, 72, 110
3, 39120, Note_on_c, 1, 72, 0
3, 39120, Note_on_c, 1, 60, 0
3, 39120, Note_on_c, 1, 62, 96
3, 39120, Note_on_c, 1, 74, 110
3, 39180, Note_on_c, 1, 74, 0
3, 39180, Note_on_c, 1, 74, 110
3, 39240, Note_on_c, 1, 74, 0
3, 39240, Note_on_c, 1, 78, 110
3, 39300, Note_on_c, 1, 78, 0
3, 39300, Note_on_c, 1, 78, 110
3, 39330, Note_on_c, 1, 78, 0
3, 39330, Note_on_c, 1, 79, 110
3, 39360, Note_on_c, 1, 79, 0
3, 39360, Note_on_c, 1, 62, 0
3, 39360, Note_on_c, 1, 57, 96
3, 39420, Note_on_c, 1, 67, 110
3, 39450, Note_on_c, 1, 67, 0
3, 39450, Note_on_c, 1, 72, 110
3, 39480, Note_on_c, 1, 72, 0
3, 39480, Note_on_c, 1, 67, 110
3, 39510, Note_on_c, 1, 67, 0
3, 39510, Note_on_c, 1, 79, 110
3, 39540, Note_on_c, 1, 79, 0
3, 39540, Note_on_c, 1, 67, 110
3, 39570, Note_on_c, 1, 67, 0
3, 39570, Note_on_c, 1, 72, 110
3, 39600, Note_on_c, 1, 72, 0
3, 39600, Note_on_c, 1, 57, 0
3, 39600, Note_on_c, 1, 59, 96
3, 39600, Note_on_c, 1, 74, 110
3, 39660, Note_on_c, 1, 74, 0
3, 39660, Note_on_c, 1, 67, 110
3, 39720, Note_on_c, 1, 67, 0
3, 39720, Note_on_c, 1, 74, 110
3, 39780, Note_on_c, 1, 74, 0
3, 39780, Note_on_c, 1, 79, 110
3, 39840, Note_on_c, 1, 79, 0
3, 39840, Note_on_c, 1, 59, 0
3, 39900, Note_on_c, 1, 83, 110
3, 39930, Note_on_c, 1, 83, 0
3, 39930, Note_on_c, 1, 81, 110
3, 39960, Note_on_c, 1, 81, 0
3, 39960, Note_on_c, 1, 79, 110
3, 39990, Note_on_c, 1, 79, 0
3, 39990, Note_on_c, 1, 74, 110
3, 40020, Note_on_c, 1, 74, 0
3, 40020, Note_on_c, 1, 71, 110
3, 40050, Note_on_c, 1, 71, 0
3, 40050, Note_on_c, 1, 67, 110
3, 40080, Note_on_c, 1, 67, 0
3, 40080, Note_on_c, 1, 72, 110
3, 40080, Control_c, 1, 64, 38
3, 40080, Note_on_c, 1, 60, 110
3, 40080, Note_on_c, 1, 65, 110
3, 40080, Note_on_c, 1, 69, 110
3, 40110, Note_on_c, 1, 69, 0
3, 40110, Note_on_c, 1, 72, 0
3, 40110, Note_on_c, 1, 60, 0
3, 40110, Note_on_c, 1, 65, 0
3, 40200, Note_on_c, 1, 71, 110
3, 40200, Note_on_c, 1, 67, 110
3, 40200, Note_on_c, 1, 57, 110
3, 40200, Note_on_c, 1, 64, 110
3, 40320, Note_on_c, 1, 64, 0
3, 40320, Note_on_c, 1, 71, 0
3, 40320, Note_on_c, 1, 67, 0
3, 40320, Note_on_c, 1, 57, 0
3, 40320, Note_on_c, 1, 57, 110
3, 40320, Note_on_c, 1, 67, 110
3, 40320, Note_on_c, 1, 64, 110
3, 40320, Note_on_c, 1, 72, 110
3, 40320, Control_c, 1, 7, 90
3, 40800, Note_on_c, 1, 72, 0
3, 40800, Note_on_c, 1, 57, 0
3, 40800, Note_on_c, 1, 67, 0
3, 40800, Note_on_c, 1, 64, 0
3, 40800, Note_on_c, 1, 64, 85
3, 40800, Note_on_c, 1, 59, 85
3, 40800, Note_on_c, 1, 67, 85
3, 40800, Note_on_c, 1, 71, 85
3, 41160, Note_on_c, 1, 71, 0
3, 41160, Note_on_c, 1, 64, 0
3, 41160, Note_on_c, 1, 59, 0
3, 41160, Note_on_c, 1, 67, 0
3, 41280, Note_on_c, 1, 57, 86
3, 41280, Note_on_c, 1, 60, 86
3, 41280, Note_on_c, 1, 64, 86
3, 41280, Note_on_c, 1, 67, 86
3, 41520, Note_on_c, 1, 67, 0
3, 41520, Note_on_c, 1, 57, 0
3, 41520, Note_on_c, 1, 60, 0
3, 41520, Note_on_c, 1, 64, 0
3, 41520, Note_on_c, 1, 59, 86
3, 41520, Note_on_c, 1, 66, 86
3, 41520, Note_on_c, 1, 62, 86
3, 41520, Note_on_c, 1, 69, 86
3, 41760, Note_on_c, 1, 69, 0
3, 41760, Note_on_c, 1, 59, 0
3, 41760, Note_on_c, 1, 66, 0
3, 41760, Note_on_c, 1, 62, 0
3, 41760, Note_on_c, 1, 55, 87
3, 41760, Note_on_c, 1, 62, 87
3, 41760, Note_on_c, 1, 59, 87
3, 41760, Note_on_c, 1, 67, 87
3, 41790, Note_on_c, 1, 67, 0
3, 41790, Note_on_c, 1, 55, 0
3, 41790, Note_on_c, 1, 62, 0
3, 41790, Note_on_c, 1, 59, 0
3, 41850, Note_on_c, 1, 55, 87
3, 41850, Note_on_c, 1, 62, 87
3, 41850, Note_on_c, 1, 59, 87
3, 41850, Note_on_c, 1, 67, 87
3, 41880, Note_on_c, 1, 67, 0
3, 41880, Note_on_c, 1, 55, 0
3, 41880, Note_on_c, 1, 62, 0
3, 41880, Note_on_c, 1, 59, 0
3, 42120, Note_on_c, 1, 74, 87
3, 42120, Note_on_c, 1, 62, 87
3, 42120, Note_on_c, 1, 59, 87
3, 42120, Note_on_c, 1, 71, 87
3, 42120, Note_on_c, 1, 67, 87
3, 42240, Note_on_c, 1, 67, 0
3, 42240, Note_on_c, 1, 59, 0
3, 42240, Note_on_c, 1, 74, 0
3, 42240, Note_on_c, 1, 62, 0
3, 42240, Note_on_c, 1, 71, 0
3, 42240, Note_on_c, 1, 57, 88
3, 42240, Note_on_c, 1, 67, 88
3, 42240, Note_on_c, 1, 72, 88
3, 42240, Note_on_c, 1, 64, 88
3, 42480, Note_on_c, 1, 64, 0
3, 42480, Note_on_c, 1, 57, 0
3, 42480, Note_on_c, 1, 67, 0
3, 42480, Note_on_c, 1, 72, 0
3, 42480, Note_on_c, 1, 59, 88
3, 42480, Note_on_c, 1, 71, 88
3, 42480, Note_on_c, 1, 67, 88
3, 42480, Note_on_c, 1, 62, 88
3, 42660, Note_on_c, 1, 62, 0
3, 42660, Note_on_c, 1, 59, 0
3, 42660, Note_on_c, 1, 71, 0
3, 42660, Note_on_c, 1, 67, 0
3, 42660, Note_on_c, 1, 55, 88
3, 42660, Note_on_c, 1, 60, 88
3, 42660, Note_on_c, 1, 64, 88
3, 42660, Note_on_c, 1, 67, 88
3, 42900, Note_on_c, 1, 67, 0
3, 42900, Note_on_c, 1, 55, 0
3, 42900, Note_on_c, 1, 60, 0
3, 42900, Note_on_c, 1, 64, 0
3, 42960, Note_on_c, 1, 59, 89
3, 42960, Note_on_c, 1, 67, 89
3, 42960, Note_on_c, 1, 64, 89
3, 42960, Note_on_c, 1, 72, 89
3, 43080, Note_on_c, 1, 72, 0
3, 43080, Note_on_c, 1, 59, 0
3, 43080, Note_on_c, 1, 67, 0
3, 43080, Note_on_c, 1, 64, 0
3, 43080, Note_on_c, 1, 60, 89
3, 43080, Note_on_c, 1, 69, 89
3, 43080, Note_on_c, 1, 74, 89
3, 43080, Note_on_c, 1, 66, 89
3, 43200, Note_on_c, 1, 66, 0
3, 43200, Note_on_c, 1, 60, 0
3, 43200, Note_on_c, 1, 69, 0
3, 43200, Note_on_c, 1, 74, 0
3, 43200, Note_on_c, 1, 60, 90
3, 43200, Note_on_c, 1, 67, 90
3, 43200, Note_on_c, 1, 64, 90
3, 43200, Note_on_c, 1, 72, 90
3, 43290, Note_on_c, 1, 72, 0
3, 43290, Note_on_c, 1, 60, 0
3, 43290, Note_on_c, 1, 67, 0
3, 43290, Note_on_c, 1, 64, 0
3, 43290, Note_on_c, 1, 60, 90
3, 43290, Note_on_c, 1, 64, 90
3, 43290, Note_on_c, 1, 67, 90
3, 43290, Note_on_c, 1, 72, 90
3, 43320, Note_on_c, 1, 72, 0
3, 43320, Note_on_c, 1, 60, 0
3, 43320, Note_on_c, 1, 64, 0
3, 43320, Note_on_c, 1, 67, 0
3, 43380, Note_on_c, 1, 60, 90
3, 43380, Note_on_c, 1, 64, 90
3, 43380, Note_on_c, 1, 67, 90
3, 43380, Note_on_c, 1, 72, 90
3, 43410, Note_on_c, 1, 72, 0
3, 43410, Note_on_c, 1, 60, 0
3, 43410, Note_on_c, 1, 64, 0
3, 43410, Note_on_c, 1, 67, 0
3, 43440, Note_on_c, 1, 67, 90
3, 43440, Note_on_c, 1, 66, 90
3, 43440, Note_on_c, 1, 62, 90
3, 43440, Note_on_c, 1, 74, 90
3, 43680, Note_on_c, 1, 74, 0
3, 43680, Note_on_c, 1, 67, 0
3, 43680, Note_on_c, 1, 66, 0
3, 43680, Note_on_c, 1, 62, 0
3, 43680, Note_on_c, 1, 60, 91
3, 43680, Note_on_c, 1, 64, 91
3, 43680, Note_on_c, 1, 67, 91
3, 43680, Note_on_c, 1, 71, 91
3, 43920, Note_on_c, 1, 71, 0
3, 43920, Note_on_c, 1, 60, 0
3, 43920, Note_on_c, 1, 64, 0
3, 43920, Note_on_c, 1, 67, 0
3, 43920, Note_on_c, 1, 76, 91
3, 43920, Note_on_c, 1, 72, 91
3, 43920, Note_on_c, 1, 64, 91
3, 43920, Note_on_c, 1, 69, 91
3, 43950, Note_on_c, 1, 69, 0
3, 43950, Note_on_c, 1, 76, 0
3, 43950, Note_on_c, 1, 72, 0
3, 43950, Note_on_c, 1, 64, 0
3, 44040, Note_on_c, 1, 71, 91
3, 44040, Note_on_c, 1, 74, 91
3, 44040, Note_on_c, 1, 62, 91
3, 44040, Note_on_c, 1, 67, 91
3, 44160, Note_on_c, 1, 67, 0
3, 44160, Note_on_c, 1, 71, 0
3, 44160, Note_on_c, 1, 74, 0
3, 44160, Note_on_c, 1, 62, 0
3, 44160, Note_on_c, 1, 72, 92
3, 44160, Note_on_c, 1, 67, 92
3, 44160, Note_on_c, 1, 64, 92
3, 44160, Note_on_c, 1, 57, 92
3, 44160, Control_c, 1, 7, 90
3, 44400, Note_on_c, 1, 57, 0
3, 44400, Note_on_c, 1, 72, 0
3, 44400, Note_on_c, 1, 67, 0
3, 44400, Note_on_c, 1, 64, 0
3, 44400, Note_on_c, 1, 59, 92
3, 44400, Note_on_c, 1, 64, 92
3, 44400, Note_on_c, 1, 67, 92
3, 44400, Note_on_c, 1, 74, 92
3, 44640, Note_on_c, 1, 74, 0
3, 44640, Note_on_c, 1, 59, 0
3, 44640, Note_on_c, 1, 64, 0
3, 44640, Note_on_c, 1, 67, 0
3, 44640, Note_on_c, 1, 71, 93
3, 44640, Note_on_c, 1, 59, 93
3, 44640, Note_on_c, 1, 67, 93
3, 44640, Note_on_c, 1, 64, 93
3, 44730, Note_on_c, 1, 64, 0
3, 44730, Note_on_c, 1, 71, 0
3, 44730, Note_on_c, 1, 59, 0
3, 44730, Note_on_c, 1, 67, 0
3, 44730, Note_on_c, 1, 59, 93
3, 44730, Note_on_c, 1, 64, 93
3, 44730, Note_on_c, 1, 67, 93
3, 44730, Note_on_c, 1, 71, 93
3, 44760, Note_on_c, 1, 71, 0
3, 44760, Note_on_c, 1, 59, 0
3, 44760, Note_on_c, 1, 64, 0
3, 44760, Note_on_c, 1, 67, 0
3, 45000, Note_on_c, 1, 60, 93
3, 45000, Note_on_c, 1, 69, 93
3, 45000, Note_on_c, 1, 74, 93
3, 45000, Note_on_c, 1, 66, 93
3, 45120, Note_on_c, 1, 66, 0
3, 45120, Note_on_c, 1, 60, 0
3, 45120, Note_on_c, 1, 69, 0
3, 45120, Note_on_c, 1, 74, 0
3, 45120, Note_on_c, 1, 57, 94
3, 45120, Note_on_c, 1, 60, 94
3, 45120, Note_on_c, 1, 64, 94
3, 45120, Note_on_c, 1, 67, 94
3, 45300, Note_on_c, 1, 57, 94
3, 45300, Note_on_c, 1, 60, 94
3, 45300, Note_on_c, 1, 64, 94
3, 45300, Note_on_c, 1, 67, 94
3, 45330, Note_on_c, 1, 67, 0
3, 45330, Note_on_c, 1, 64, 0
3, 45330, Note_on_c, 1, 57, 0
3, 45330, Note_on_c, 1, 60, 0
3, 45360, Note_on_c, 1, 64, 0
3, 45360, Note_on_c, 1, 67, 0
3, 45360, Note_on_c, 1, 60, 0
3, 45360, Note_on_c, 1, 57, 0
3, 45360, Note_on_c, 1, 59, 94
3, 45360, Note_on_c, 1, 66, 94
3, 45360, Note_on_c, 1, 62, 94
3, 45360, Note_on_c, 1, 69, 94
3, 45600, Note_on_c, 1, 69, 0
3, 45600, Note_on_c, 1, 59, 0
3, 45600, Note_on_c, 1, 66, 0
3, 45600, Note_on_c, 1, 62, 0
3, 45690, Note_on_c, 1, 62, 95
3, 45690, Note_on_c, 1, 59, 95
3, 45690, Note_on_c, 1, 67, 95
3, 45690, Note_on_c, 1, 71, 95
3, 45720, Note_on_c, 1, 71, 0
3, 45720, Note_on_c, 1, 62, 0
3, 45720, Note_on_c, 1, 59, 0
3, 45720, Note_on_c, 1, 67, 0
3, 45780, Note_on_c, 1, 62, 95
3, 45780, Note_on_c, 1, 59, 95
3, 45780, Note_on_c, 1, 67, 95
3, 45780, Note_on_c, 1, 71, 95
3, 45810, Note_on_c, 1, 71, 0
3, 45810, Note_on_c, 1, 62, 0
3, 45810, Note_on_c, 1, 59, 0
3, 45810, Note_on_c, 1, 67, 0
3, 45960, Note_on_c, 1, 74, 95
3, 45960, Note_on_c, 1, 62, 95
3, 45960, Note_on_c, 1, 59, 95
3, 45960, Note_on_c, 1, 71, 95
3, 45960, Note_on_c, 1, 67, 95
3, 46080, Note_on_c, 1, 67, 0
3, 46080, Note_on_c, 1, 59, 0
3, 46080, Note_on_c, 1, 74, 0
3, 46080, Note_on_c, 1, 62, 0
3, 46080, Note_on_c, 1, 71, 0
3, 46080, Note_on_c, 1, 57, 96
3, 46080, Note_on_c, 1, 67, 96
3, 46080, Note_on_c, 1, 72, 96
3, 46080, Note_on_c, 1, 64, 96
3, 46320, Note_on_c, 1, 64, 0
3, 46320, Note_on_c, 1, 57, 0
3, 46320, Note_on_c, 1, 67, 0
3, 46320, Note_on_c, 1, 72, 0
3, 46320, Note_on_c, 1, 59, 96
3, 46320, Note_on_c, 1, 71, 96
3, 46320, Note_on_c, 1, 67, 96
3, 46320, Note_on_c, 1, 62, 96
3, 46500, Note_on_c, 1, 62, 0
3, 46500, Note_on_c, 1, 59, 0
3, 46500, Note_on_c, 1, 71, 0
3, 46500, Note_on_c, 1, 67, 0
3, 46500, Note_on_c, 1, 55, 96
3, 46500, Note_on_c, 1, 60, 96
3, 46500, Note_on_c, 1, 64, 96
3, 46500, Note_on_c, 1, 67, 96
3, 46740, Note_on_c, 1, 67, 0
3, 46740, Note_on_c, 1, 55, 0
3, 46740, Note_on_c, 1, 60, 0
3, 46740, Note_on_c, 1, 64, 0
3, 46800, Note_on_c, 1, 59, 97
3, 46800, Note_on_c, 1, 67, 97
3, 46800, Note_on_c, 1, 64, 97
3, 46800, Note_on_c, 1, 72, 97
3, 46920, Note_on_c, 1, 72, 0
3, 46920, Note_on_c, 1, 59, 0
3, 46920, Note_on_c, 1, 67, 0
3, 46920, Note_on_c, 1, 64, 0
3, 46920, Note_on_c, 1, 60, 97
3, 46920, Note_on_c, 1, 69, 97
3, 46920, Note_on_c, 1, 74, 97
3, 46920, Note_on_c, 1, 66, 97
3, 47040, Note_on_c, 1, 66, 0
3, 47040, Note_on_c, 1, 60, 0
3, 47040, Note_on_c, 1, 69, 0
3, 47040, Note_on_c, 1, 74, 0
3, 47040, Note_on_c, 1, 60, 98
3, 47040, Note_on_c, 1, 67, 98
3, 47040, Note_on_c, 1, 64, 98
3, 47040, Note_on_c, 1, 72, 98
3, 47130, Note_on_c, 1, 72, 0
3, 47130, Note_on_c, 1, 60, 0
3, 47130, Note_on_c, 1, 67, 0
3, 47130, Note_on_c, 1, 64, 0
3, 47130, Note_on_c, 1, 60, 98
3, 47130, Note_on_c, 1, 64, 98
3, 47130, Note_on_c, 1, 67, 98
3, 47130, Note_on_c, 1, 72, 98
3, 47160, Note_on_c, 1, 72, 0
3, 47160, Note_on_c, 1, 60, 0
3, 47160, Note_on_c, 1, 64, 0
3, 47160, Note_on_c, 1, 67, 0
3, 47220, Note_on_c, 1, 62, 98
3, 47220, Note_on_c, 1, 66, 98
3, 47220, Note_on_c, 1, 67, 98
3, 47220, Note_on_c, 1, 74, 98
3, 47460, Note_on_c, 1, 74, 0
3, 47460, Note_on_c, 1, 62, 0
3, 47460, Note_on_c, 1, 66, 0
3, 47460, Note_on_c, 1, 67, 0
3, 47520, Note_on_c, 1, 60, 99
3, 47520, Note_on_c, 1, 64, 99
3, 47520, Note_on_c, 1, 67, 99
3, 47520, Note_on_c, 1, 71, 99
3, 47760, Note_on_c, 1, 71, 0
3, 47760, Note_on_c, 1, 60, 0
3, 47760, Note_on_c, 1, 64, 0
3, 47760, Note_on_c, 1, 67, 0
3, 47760, Note_on_c, 1, 76, 99
3, 47760, Note_on_c, 1, 72, 99
3, 47760, Note_on_c, 1, 64, 99
3, 47760, Note_on_c, 1, 69, 99
3, 47790, Note_on_c, 1, 69, 0
3, 47790, Note_on_c, 1, 76, 0
3, 47790, Note_on_c, 1, 72, 0
3, 47790, Note_on_c, 1, 64, 0
3, 47880, Note_on_c, 1, 71, 99
3, 47880, Note_on_c, 1, 74, 99
3, 47880, Note_on_c, 1, 62, 99
3, 47880, Note_on_c, 1, 67, 99
3, 48000, Note_on_c, 1, 67, 0
3, 48000, Note_on_c, 1, 71, 0
3, 48000, Note_on_c, 1, 74, 0
3, 48000, Note_on_c, 1, 62, 0
3, 48000, Note_on_c, 1, 57, 110
3, 48000, Note_on_c, 1, 67, 110
3, 48000, Note_on_c, 1, 64, 110
3, 48000, Note_on_c, 1, 72, 110
3, 48000, Control_c, 1, 7, 90
3, 48480, Note_on_c, 1, 72, 0
3, 48480, Note_on_c, 1, 57, 0
3, 48480, Note_on_c, 1, 67, 0
3, 48480, Note_on_c, 1, 64, 0
3, 48480, Note_on_c, 1, 64, 110
3, 48480, Note_on_c, 1, 59, 110
3, 48480, Note_on_c, 1, 67, 110
3, 48480, Note_on_c, 1, 71, 110
3, 48840, Note_on_c, 1, 71, 0
3, 48840, Note_on_c, 1, 64, 0
3, 48840, Note_on_c, 1, 59, 0
3, 48840, Note_on_c, 1, 67, 0
3, 48840, Note_on_c, 1, 60, 110
3, 48840, Note_on_c, 1, 69, 110
3, 48840, Note_on_c, 1, 74, 110
3, 48840, Note_on_c, 1, 66, 110
3, 48960, Note_on_c, 1, 66, 0
3, 48960, Note_on_c, 1, 60, 0
3, 48960, Note_on_c, 1, 69, 0
3, 48960, Note_on_c, 1, 74, 0
3, 48960, Note_on_c, 1, 57, 110
3, 48960, Note_on_c, 1, 60, 110
3, 48960, Note_on_c, 1, 64, 110
3, 48960, Note_on_c, 1, 67, 110
3, 49140, Note_on_c, 1, 57, 110
3, 49140, Note_on_c, 1, 60, 110
3, 49140, Note_on_c, 1, 64, 110
3, 49140, Note_on_c, 1, 67, 110
3, 49170, Note_on_c, 1, 67, 0
3, 49170, Note_on_c, 1, 64, 0
3, 49170, Note_on_c, 1, 57, 0
3, 49170, Note_on_c, 1, 60, 0
3, 49200, Note_on_c, 1, 64, 0
3, 49200, Note_on_c, 1, 67, 0
3, 49200, Note_on_c, 1, 60, 0
3, 49200, Note_on_c, 1, 57, 0
3, 49200, Note_on_c, 1, 59, 110
3, 49200, Note_on_c, 1, 66, 110
3, 49200, Note_on_c, 1, 62, 110
3, 49200, Note_on_c, 1, 69, 110
3, 49440, Note_on_c, 1, 69, 0
3, 49440, Note_on_c, 1, 59, 0
3, 49440, Note_on_c, 1, 66, 0
3, 49440, Note_on_c, 1, 62, 0
3, 49440, Note_on_c, 1, 62, 110
3, 49440, Note_on_c, 1, 59, 110
3, 49440, Note_on_c, 1, 67, 110
3, 49440, Note_on_c, 1, 71, 110
3, 49470, Note_on_c, 1, 71, 0
3, 49470, Note_on_c, 1, 62, 0
3, 49470, Note_on_c, 1, 59, 0
3, 49470, Note_on_c, 1, 67, 0
3, 49530, Note_on_c, 1, 62, 110
3, 49530, Note_on_c, 1, 59, 110
3, 49530, Note_on_c, 1, 67, 110
3, 49530, Note_on_c, 1, 71, 110
3, 49560, Note_on_c, 1, 71, 0
3, 49560, Note_on_c, 1, 62, 0
3, 49560, Note_on_c, 1, 59, 0
3, 49560, Note_on_c, 1, 67, 0
3, 49620, Note_on_c, 1, 62, 110
3, 49620, Note_on_c, 1, 59, 110
3, 49620, Note_on_c, 1, 67, 110
3, 49620, Note_on_c, 1, 71, 110
3, 49650, Note_on_c, 1, 71, 0
3, 49650, Note_on_c, 1, 62, 0
3, 49650, Note_on_c, 1, 59, 0
3, 49650, Note_on_c, 1, 67, 0
3, 49680, Note_on_c, 1, 76, 110
3, 49680, Note_on_c, 1, 64, 110
3, 49680, Note_on_c, 1, 60, 110
3, 49680, Note_on_c, 1, 69, 110
3, 49680, Note_on_c, 1, 72, 110
3, 49740, Note_on_c, 1, 72, 0
3, 49740, Note_on_c, 1, 60, 0
3, 49740, Note_on_c, 1, 76, 0
3, 49740, Note_on_c, 1, 64, 0
3, 49740, Note_on_c, 1, 69, 0
3, 49800, Note_on_c, 1, 74, 110
3, 49800, Note_on_c, 1, 62, 110
3, 49800, Note_on_c, 1, 59, 110
3, 49800, Note_on_c, 1, 71, 110
3, 49800, Note_on_c, 1, 67, 110
3, 49920, Note_on_c, 1, 67, 0
3, 49920, Note_on_c, 1, 59, 0
3, 49920, Note_on_c, 1, 74, 0
3, 49920, Note_on_c, 1, 62, 0
3, 49920, Note_on_c, 1, 71, 0
3, 49920, Note_on_c, 1, 57, 110
3, 49920, Note_on_c, 1, 67, 110
3, 49920, Note_on_c, 1, 72, 110
3, 49920, Note_on_c, 1, 64, 110
3, 50160, Note_on_c, 1, 64, 0
3, 50160, Note_on_c, 1, 57, 0
3, 50160, Note_on_c, 1, 67, 0
3, 50160, Note_on_c, 1, 72, 0
3, 50160, Note_on_c, 1, 59, 110
3, 50160, Note_on_c, 1, 71, 110
3, 50160, Note_on_c, 1, 67, 110
3, 50160, Note_on_c, 1, 62, 110
3, 50340, Note_on_c, 1, 62, 0
3, 50340, Note_on_c, 1, 59, 0
3, 50340, Note_on_c, 1, 71, 0
3, 50340, Note_on_c, 1, 67, 0
3, 50340, Note_on_c, 1, 55, 110
3, 50340, Note_on_c, 1, 60, 110
3, 50340, Note_on_c, 1, 64, 110
3, 50340, Note_on_c, 1, 67, 110
3, 50580, Note_on_c, 1, 67, 0
3, 50580, Note_on_c, 1, 55, 0
3, 50580, Note_on_c, 1, 60, 0
3, 50580, Note_on_c, 1, 64, 0
3, 50640, Note_on_c, 1, 59, 110
3, 50640, Note_on_c, 1, 67, 110
3, 50640, Note_on_c, 1, 64, 110
3, 50640, Note_on_c, 1, 72, 110
3, 50760, Note_on_c, 1, 72, 0
3, 50760, Note_on_c, 1, 59, 0
3, 50760, Note_on_c, 1, 67, 0
3, 50760, Note_on_c, 1, 64, 0
3, 50760, Note_on_c, 1, 60, 110
3, 50760, Note_on_c, 1, 69, 110
3, 50760, Note_on_c, 1, 74, 110
3, 50760, Note_on_c, 1, 66, 110
3, 50880, Note_on_c, 1, 66, 0
3, 50880, Note_on_c, 1, 60, 0
3, 50880, Note_on_c, 1, 69, 0
3, 50880, Note_on_c, 1, 74, 0
3, 50880, Note_on_c, 1, 60, 110
3, 50880, Note_on_c, 1, 67, 110
3, 50880, Note_on_c, 1, 64, 110
3, 50880, Note_on_c, 1, 72, 110
3, 50970, Note_on_c, 1, 72, 0
3, 50970, Note_on_c, 1, 60, 0
3, 50970, Note_on_c, 1, 67, 0
3, 50970, Note_on_c, 1, 64, 0
3, 50970, Note_on_c, 1, 60, 110
3, 50970, Note_on_c, 1, 64, 110
3, 50970, Note_on_c, 1, 67, 110
3, 50970, Note_on_c, 1, 72, 110
3, 51000, Note_on_c, 1, 72, 0
3, 51000, Note_on_c, 1, 60, 0
3, 51000, Note_on_c, 1, 64, 0
3, 51000, Note_on_c, 1, 67, 0
3, 51060, Note_on_c, 1, 60, 110
3, 51060, Note_on_c, 1, 64, 110
3, 51060, Note_on_c, 1, 67, 110
3, 51060, Note_on_c, 1, 72, 110
3, 51090, Note_on_c, 1, 72, 0
3, 51090, Note_on_c, 1, 60, 0
3, 51090, Note_on_c, 1, 64, 0
3, 51090, Note_on_c, 1, 67, 0
3, 51120, Note_on_c, 1, 67, 110
3, 51120, Note_on_c, 1, 66, 110
3, 51120, Note_on_c, 1, 62, 110
3, 51120, Note_on_c, 1, 74, 110
3, 51360, Note_on_c, 1, 74, 0
3, 51360, Note_on_c, 1, 67, 0
3, 51360, Note_on_c, 1, 66, 0
3, 51360, Note_on_c, 1, 62, 0
3, 51360, Note_on_c, 1, 60, 110
3, 51360, Note_on_c, 1, 64, 110
3, 51360, Note_on_c, 1, 67, 110
3, 51360, Note_on_c, 1, 71, 110
3, 51600, Note_on_c, 1, 71, 0
3, 51600, Note_on_c, 1, 60, 0
3, 51600, Note_on_c, 1, 64, 0
3, 51600, Note_on_c, 1, 67, 0
3, 51600, Note_on_c, 1, 76, 110
3, 51600, Note_on_c, 1, 72, 110
3, 51600, Note_on_c, 1, 64, 110
3, 51600, Note_on_c, 1, 69, 110
3, 51630, Note_on_c, 1, 69, 0
3, 51630, Note_on_c, 1, 76, 0
3, 51630, Note_on_c, 1, 72, 0
3, 51630, Note_on_c, 1, 64, 0
3, 51720, Note_on_c, 1, 71, 110
3, 51720, Note_on_c, 1, 74, 110
3, 51720, Note_on_c, 1, 62, 110
3, 51720, Note_on_c, 1, 67, 110
3, 51840, Note_on_c, 1, 67, 0
3, 51840, Note_on_c, 1, 71, 0
3, 51840, Note_on_c, 1, 74, 0
3, 51840, Note_on_c, 1, 62, 0
3, 51840, Note_on_c, 1, 72, 110
3, 51840, Note_on_c, 1, 67, 110
3, 51840, Note_on_c, 1, 64, 110
3, 51840, Note_on_c, 1, 57, 110
3, 51840, Control_c, 1, 7, 90
3, 52080, Note_on_c, 1, 57, 0
3, 52080, Note_on_c, 1, 72, 0
3, 52080, Note_on_c, 1, 67, 0
3, 52080, Note_on_c, 1, 64, 0
3, 52080, Note_on_c, 1, 59, 110
3, 52080, Note_on_c, 1, 64, 110
3, 52080, Note_on_c, 1, 67, 110
3, 52080, Note_on_c, 1, 74, 110
3, 52320, Note_on_c, 1, 74, 0
3, 52320, Note_on_c, 1, 59, 0
3, 52320, Note_on_c, 1, 64, 0
3, 52320, Note_on_c, 1, 67, 0
3, 52320, Note_on_c, 1, 71, 110
3, 52320, Note_on_c, 1, 59, 110
3, 52320, Note_on_c, 1, 67, 110
3, 52320, Note_on_c, 1, 64, 110
3, 52410, Note_on_c, 1, 64, 0
3, 52410, Note_on_c, 1, 71, 0
3, 52410, Note_on_c, 1, 59, 0
3, 52410, Note_on_c, 1, 67, 0
3, 52410, Note_on_c, 1, 59, 110
3, 52410, Note_on_c, 1, 64, 110
3, 52410, Note_on_c, 1, 67, 110
3, 52410, Note_on_c, 1, 71, 110
3, 52440, Note_on_c, 1, 71, 0
3, 52440, Note_on_c, 1, 59, 0
3, 52440, Note_on_c, 1, 64, 0
3, 52440, Note_on_c, 1, 67, 0
3, 52500, Note_on_c, 1, 52, 110
3, 52530, Note_on_c, 1, 52, 0
3, 52560, Note_on_c, 1, 71, 110
3, 52560, Note_on_c, 1, 67, 110
3, 52560, Note_on_c, 1, 64, 110
3, 52560, Note_on_c, 1, 59, 110
3, 52590, Note_on_c, 1, 59, 0
3, 52590, Note_on_c, 1, 71, 0
3, 52590, Note_on_c, 1, 67, 0
3, 52590, Note_on_c, 1, 64, 0
3, 52620, Note_on_c, 1, 59, 110
3, 52620, Note_on_c, 1, 64, 110
3, 52620, Note_on_c, 1, 67, 110
3, 52620, Note_on_c, 1, 71, 110
3, 52650, Note_on_c, 1, 71, 0
3, 52650, Note_on_c, 1, 59, 0
3, 52650, Note_on_c, 1, 64, 0
3, 52650, Note_on_c, 1, 67, 0
3, 52680, Note_on_c, 1, 60, 110
3, 52680, Note_on_c, 1, 69, 110
3, 52680, Note_on_c, 1, 74, 110
3, 52680, Note_on_c, 1, 66, 110
3, 52800, Note_on_c, 1, 66, 0
3, 52800, Note_on_c, 1, 60, 0
3, 52800, Note_on_c, 1, 69, 0
3, 52800, Note_on_c, 1, 74, 0
3, 52800, Note_on_c, 1, 57, 110
3, 52800, Note_on_c, 1, 60, 110
3, 52800, Note_on_c, 1, 64, 110
3, 52800, Note_on_c, 1, 67, 110
3, 52980, Note_on_c, 1, 57, 110
3, 52980, Note_on_c, 1, 60, 110
3, 52980, Note_on_c, 1, 64, 110
3, 52980, Note_on_c, 1, 67, 110
3, 53010, Note_on_c, 1, 67, 0
3, 53010, Note_on_c, 1, 64, 0
3, 53010, Note_on_c, 1, 57, 0
3, 53010, Note_on_c, 1, 60, 0
3, 53040, Note_on_c, 1, 64, 0
3, 53040, Note_on_c, 1, 67, 0
3, 53040, Note_on_c, 1, 60, 0
3, 53040, Note_on_c, 1, 57, 0
3, 53040, Note_on_c, 1, 59, 110
3, 53040, Note_on_c, 1, 66, 110
3, 53040, Note_on_c, 1, 62, 110
3, 53040, Note_on_c, 1, 69, 110
3, 53280, Note_on_c, 1, 69, 0
3, 53280, Note_on_c, 1, 59, 0
3, 53280, Note_on_c, 1, 66, 0
3, 53280, Note_on_c, 1, 62, 0
3, 53280, Note_on_c, 1, 62, 110
3, 53280, Note_on_c, 1, 59, 110
3, 53280, Note_on_c, 1, 67, 110
3, 53280, Note_on_c, 1, 71, 110
3, 53310, Note_on_c, 1, 71, 0
3, 53310, Note_on_c, 1, 62, 0
3, 53310, Note_on_c, 1, 59, 0
3, 53310, Note_on_c, 1, 67, 0
3, 53370, Note_on_c, 1, 62, 110
3, 53370, Note_on_c, 1, 59, 110
3, 53370, Note_on_c, 1, 67, 110
3, 53370, Note_on_c, 1, 71, 110
3, 53400, Note_on_c, 1, 71, 0
3, 53400, Note_on_c, 1, 62, 0
3, 53400, Note_on_c, 1, 59, 0
3, 53400, Note_on_c, 1, 67, 0
3, 53460, Note_on_c, 1, 62, 110
3, 53460, Note_on_c, 1, 59, 110
3, 53460, Note_on_c, 1, 67, 110
3, 53460, Note_on_c, 1, 71, 110
3, 53490, Note_on_c, 1, 71, 0
3, 53490, Note_on_c, 1, 62, 0
3, 53490, Note_on_c, 1, 59, 0
3, 53490, Note_on_c, 1, 67, 0
3, 53520, Note_on_c, 1, 76, 110
3, 53520, Note_on_c, 1, 64, 110
3, 53520, Note_on_c, 1, 60, 110
3, 53520, Note_on_c, 1, 69, 110
3, 53520, Note_on_c, 1, 72, 110
3, 53580, Note_on_c, 1, 72, 0
3, 53580, Note_on_c, 1, 60, 0
3, 53580, Note_on_c, 1, 76, 0
3, 53580, Note_on_c, 1, 64, 0
3, 53580, Note_on_c, 1, 69, 0
3, 53640, Note_on_c, 1, 74, 110
3, 53640, Note_on_c, 1, 62, 110
3, 53640, Note_on_c, 1, 59, 110
3, 53640, Note_on_c, 1, 71, 110
3, 53640, Note_on_c, 1, 67, 110
3, 53760, Note_on_c, 1, 67, 0
3, 53760, Note_on_c, 1, 59, 0
3, 53760, Note_on_c, 1, 74, 0
3, 53760, Note_on_c, 1, 62, 0
3, 53760, Note_on_c, 1, 71, 0
3, 53760, Note_on_c, 1, 57, 110
3, 53760, Note_on_c, 1, 67, 110
3, 53760, Note_on_c, 1, 72, 110
3, 53760, Note_on_c, 1, 64, 110
3, 54000, Note_on_c, 1, 64, 0
3, 54000, Note_on_c, 1, 57, 0
3, 54000, Note_on_c, 1, 67, 0
3, 54000, Note_on_c, 1, 72, 0
3, 54000, Note_on_c, 1, 59, 110
3, 54000, Note_on_c, 1, 71, 110
3, 54000, Note_on_c, 1, 67, 110
3, 54000, Note_on_c, 1, 62, 110
3, 54180, Note_on_c, 1, 62, 0
3, 54180, Note_on_c, 1, 59, 0
3, 54180, Note_on_c, 1, 71, 0
3, 54180, Note_on_c, 1, 67, 0
3, 54180, Note_on_c, 1, 55, 110
3, 54180, Note_on_c, 1, 60, 110
3, 54180, Note_on_c, 1, 64, 110
3, 54180, Note_on_c, 1, 67, 110
3, 54420, Note_on_c, 1, 67, 0
3, 54420, Note_on_c, 1, 55, 0
3, 54420, Note_on_c, 1, 60, 0
3, 54420, Note_on_c, 1, 64, 0
3, 54480, Note_on_c, 1, 59, 110
3, 54480, Note_on_c, 1, 67, 110
3, 54480, Note_on_c, 1, 64, 110
3, 54480, Note_on_c, 1, 72, 110
3, 54600, Note_on_c, 1, 72, 0
3, 54600, Note_on_c, 1, 59, 0
3, 54600, Note_on_c, 1, 67, 0
3, 54600, Note_on_c, 1, 64, 0
3, 54600, Note_on_c, 1, 60, 110
3, 54600, Note_on_c, 1, 69, 110
3, 54600, Note_on_c, 1, 74, 110
3, 54600, Note_on_c, 1, 66, 110
3, 54720, Note_on_c, 1, 66, 0
3, 54720, Note_on_c, 1, 60, 0
3, 54720, Note_on_c, 1, 69, 0
3, 54720, Note_on_c, 1, 74, 0
3, 54720, Note_on_c, 1, 60, 110
3, 54720, Note_on_c, 1, 67, 110
3, 54720, Note_on_c, 1, 64, 110
3, 54720, Note_on_c, 1, 72, 110
3, 54810, Note_on_c, 1, 72, 0
3, 54810, Note_on_c, 1, 60, 0
3, 54810, Note_on_c, 1, 67, 0
3, 54810, Note_on_c, 1, 64, 0
3, 54810, Note_on_c, 1, 60, 110
3, 54810, Note_on_c, 1, 64, 110
3, 54810, Note_on_c, 1, 67, 110
3, 54810, Note_on_c, 1, 72, 110
3, 54840, Note_on_c, 1, 72, 0
3, 54840, Note_on_c, 1, 60, 0
3, 54840, Note_on_c, 1, 64, 0
3, 54840, Note_on_c, 1, 67, 0
3, 54900, Note_on_c, 1, 62, 110
3, 54900, Note_on_c, 1, 66, 110
3, 54900, Note_on_c, 1, 67, 110
3, 54900, Note_on_c, 1, 74, 110
3, 55140, Note_on_c, 1, 74, 0
3, 55140, Note_on_c, 1, 62, 0
3, 55140, Note_on_c, 1, 66, 0
3, 55140, Note_on_c, 1, 67, 0
3, 55200, Note_on_c, 1, 64, 110
3, 55200, Note_on_c, 1, 60, 110
3, 55200, Note_on_c, 1, 67, 110
3, 55200, Note_on_c, 1, 71, 110
3, 55260, Note_on_c, 1, 62, 110
3, 55260, Note_on_c, 1, 74, 110
3, 55310, Note_on_c, 1, 70, 90
3, 55310, Note_on_c, 1, 58, 90
3, 55320, Note_on_c, 1, 74, 0
3, 55320, Note_on_c, 1, 62, 0
3, 55320, Note_on_c, 1, 59, 110
3, 55320, Note_on_c, 1, 71, 110
3, 55325, Note_on_c, 1, 58, 0
3, 55325, Note_on_c, 1, 70, 0
3, 55380, Note_on_c, 1, 71, 0
3, 55380, Note_on_c, 1, 59, 0
3, 55380, Note_on_c, 1, 62, 110
3, 55380, Note_on_c, 1, 74, 110
3, 55435, Note_on_c, 1, 74, 0
3, 55440, Note_on_c, 1, 60, 0
3, 55440, Note_on_c, 1, 71, 0
3, 55440, Note_on_c, 1, 64, 0
3, 55440, Note_on_c, 1, 62, 0
3, 55440, Note_on_c, 1, 67, 0
3, 55440, Note_on_c, 1, 76, 110
3, 55440, Note_on_c, 1, 72, 110
3, 55440, Note_on_c, 1, 64, 110
3, 55440, Note_on_c, 1, 69, 110
3, 55470, Note_on_c, 1, 69, 0
3, 55470, Note_on_c, 1, 76, 0
3, 55470, Note_on_c, 1, 72, 0
3, 55470, Note_on_c, 1, 64, 0
3, 55560, Note_on_c, 1, 71, 110
3, 55560, Note_on_c, 1, 74, 110
3, 55560, Note_on_c, 1, 62, 110
3, 55560, Note_on_c, 1, 67, 110
3, 55680, Note_on_c, 1, 67, 0
3, 55680, Note_on_c, 1, 71, 0
3, 55680, Note_on_c, 1, 74, 0
3, 55680, Note_on_c, 1, 62, 0
3, 55680, Note_on_c, 1, 62, 110
3, 55680, Note_on_c, 1, 67, 110
3, 55680, Note_on_c, 1, 58, 110
3, 55680, Note_on_c, 1, 70, 110
3, 55920, Note_on_c, 1, 70, 0
3, 55920, Note_on_c, 1, 62, 0
3, 55920, Note_on_c, 1, 67, 0
3, 55920, Note_on_c, 1, 58, 0
3, 55920, Note_on_c, 1, 65, 110
3, 55920, Note_on_c, 1, 69, 110
3, 55920, Note_on_c, 1, 72, 110
3, 55920, Note_on_c, 1, 60, 110
3, 56100, Note_on_c, 1, 60, 0
3, 56100, Note_on_c, 1, 65, 0
3, 56100, Note_on_c, 1, 69, 0
3, 56100, Note_on_c, 1, 72, 0
3, 56100, Note_on_c, 1, 60, 110
3, 56100, Note_on_c, 1, 64, 110
3, 56100, Note_on_c, 1, 67, 110
3, 56100, Note_on_c, 1, 72, 110
3, 56130, Note_on_c, 1, 72, 0
3, 56130, Note_on_c, 1, 60, 0
3, 56130, Note_on_c, 1, 64, 0
3, 56130, Note_on_c, 1, 67, 0
3, 56220, Note_on_c, 1, 62, 110
3, 56220, Note_on_c, 1, 70, 110
3, 56220, Note_on_c, 1, 65, 110
3, 56220, Note_on_c, 1, 58, 110
3, 56400, Note_on_c, 1, 58, 0
3, 56400, Note_on_c, 1, 62, 0
3, 56400, Note_on_c, 1, 70, 0
3, 56400, Note_on_c, 1, 65, 0
3, 56460, Note_on_c, 1, 60, 110
3, 56460, Note_on_c, 1, 74, 110
3, 56460, Note_on_c, 1, 64, 110
3, 56460, Note_on_c, 1, 69, 110
3, 56490, Note_on_c, 1, 69, 0
3, 56490, Note_on_c, 1, 60, 0
3, 56490, Note_on_c, 1, 74, 0
3, 56490, Note_on_c, 1, 64, 0
3, 56580, Note_on_c, 1, 59, 110
3, 56580, Note_on_c, 1, 62, 110
3, 56580, Note_on_c, 1, 67, 110
3, 56580, Note_on_c, 1, 72, 110
3, 56880, Note_on_c, 1, 72, 0
3, 56880, Note_on_c, 1, 59, 0
3, 56880, Note_on_c, 1, 62, 0
3, 56880, Note_on_c, 1, 67, 0
3, 56880, Note_on_c, 1, 67, 110
3, 56880, Note_on_c, 1, 71, 110
3, 56880, Note_on_c, 1, 62, 110
3, 56880, Note_on_c, 1, 59, 110
3, 57053, Note_on_c, 1, 57, 110
3, 57053, Note_on_c, 1, 60, 110
3, 57053, Note_on_c, 1, 64, 110
3, 57060, Note_on_c, 1, 59, 0
3, 57060, Note_on_c, 1, 62, 0
3, 57060, Note_on_c, 1, 67, 0
3, 57060, Note_on_c, 1, 71, 0
3, 57060, Note_on_c, 1, 67, 110
3, 57293, Note_on_c, 1, 64, 0
3, 57293, Note_on_c, 1, 60, 0
3, 57293, Note_on_c, 1, 57, 0
3, 57300, Note_on_c, 1, 67, 0
3, 57360, Note_on_c, 1, 61, 110
3, 57360, Note_on_c, 1, 64, 110
3, 57360, Note_on_c, 1, 67, 110
3, 57420, Note_on_c, 1, 71, 110
3, 57450, Note_on_c, 1, 71, 0
3, 57480, Note_on_c, 1, 76, 110
3, 57510, Note_on_c, 1, 76, 0
3, 57540, Note_on_c, 1, 79, 110
3, 57570, Note_on_c, 1, 79, 0
3, 57595, Note_on_c, 1, 80, 110
3, 57600, Note_on_c, 1, 61, 0
3, 57600, Note_on_c, 1, 67, 0
3, 57600, Note_on_c, 1, 64, 0
3, 57600, Note_on_c, 1, 81, 110
3, 57610, Note_on_c, 1, 80, 0
3, 57630, Note_on_c, 1, 81, 0
3, 57660, Note_on_c, 1, 84, 110
3, 57690, Note_on_c, 1, 84, 0
3, 57720, Note_on_c, 1, 69, 90
3, 57720, Note_on_c, 1, 65, 90
3, 57720, Note_on_c, 1, 60, 90
3, 57720, Note_on_c, 1, 86, 110
3, 57750, Note_on_c, 1, 86, 0
3, 57775, Note_on_c, 1, 87, 110
3, 57780, Note_on_c, 1, 88, 110
3, 57790, Note_on_c, 1, 87, 0
3, 57810, Note_on_c, 1, 88, 0
3, 57840, Note_on_c, 1, 91, 110
3, 57870, Note_on_c, 1, 91, 0
3, 57900, Note_on_c, 1, 93, 110
3, 57930, Note_on_c, 1, 93, 0
3, 57952, Note_on_c, 1, 93, 110
3, 57960, Note_on_c, 1, 95, 110
3, 57967, Note_on_c, 1, 93, 0
3, 57990, Note_on_c, 1, 95, 0
3, 58020, Note_on_c, 1, 93, 110
3, 58050, Note_on_c, 1, 93, 0
3, 58080, Note_on_c, 1, 60, 0
3, 58080, Note_on_c, 1, 65, 0
3, 58080, Note_on_c, 1, 69, 0
3, 58140, Note_on_c, 1, 67, 90
3, 58140, Note_on_c, 1, 62, 90
3, 58140, Note_on_c, 1, 64, 90
3, 58140, Note_on_c, 1, 57, 90
3, 58170, Note_on_c, 1, 57, 0
3, 58170, Note_on_c, 1, 67, 0
3, 58170, Note_on_c, 1, 62, 0
3, 58170, Note_on_c, 1, 64, 0
3, 58255, Note_on_c, 1, 87, 110
3, 58260, Note_on_c, 1, 88, 110
3, 58270, Note_on_c, 1, 87, 0
3, 58290, Note_on_c, 1, 88, 0
3, 58320, Note_on_c, 1, 91, 110
3, 58350, Note_on_c, 1, 91, 0
3, 58380, Note_on_c, 1, 93, 110
3, 58410, Note_on_c, 1, 93, 0
3, 58423, Control_c, 1, 0, 0
3, 58423, Control_c, 1, 32, 0
3, 58423, Program_c, 1, 0
3, 58426, Control_c, 1, 121, 0
3, 58428, Control_c, 1, 7, 90
3, 58430, Control_c, 1, 10, 50
3, 58432, Control_c, 1, 91, 60
3, 58432, Note_on_c, 1, 93, 110
3, 58434, Control_c, 1, 93, 20
3, 58440, Note_on_c, 1, 95, 110
3, 58447, Note_on_c, 1, 93, 0
3, 58470, Note_on_c, 1, 95, 0
3, 58500, Note_on_c, 1, 93, 110
3, 58530, Note_on_c, 1, 93, 0
3, 58620, Note_on_c, 1, 57, 95
3, 58620, Note_on_c, 1, 60, 95
3, 58620, Note_on_c, 1, 66, 95
3, 58650, Note_on_c, 1, 66, 0
3, 58650, Note_on_c, 1, 60, 0
3, 58650, Note_on_c, 1, 57, 0
3, 58740, Note_on_c, 1, 88, 110
3, 58770, Note_on_c, 1, 88, 0
3, 58770, Note_on_c, 1, 88, 110
3, 58800, Note_on_c, 1, 88, 0
3, 58800, Note_on_c, 1, 91, 110
3, 58830, Note_on_c, 1, 91, 0
3, 58860, Note_on_c, 1, 93, 110
3, 58890, Note_on_c, 1, 93, 0
3, 58903, Control_c, 1, 0, 0
3, 58903, Control_c, 1, 32, 0
3, 58903, Program_c, 1, 0
3, 58906, Control_c, 1, 121, 0
3, 58908, Control_c, 1, 7, 90
3, 58910, Control_c, 1, 10, 50
3, 58912, Control_c, 1, 91, 60
3, 58912, Note_on_c, 1, 93, 110
3, 58914, Control_c, 1, 93, 20
3, 58920, Note_on_c, 1, 95, 110
3, 58927, Note_on_c, 1, 93, 0
3, 58950, Note_on_c, 1, 95, 0
3, 58980, Note_on_c, 1, 93, 110
3, 59010, Note_on_c, 1, 93, 0
3, 59100, Note_on_c, 1, 62, 95
3, 59100, Note_on_c, 1, 57, 95
3, 59100, Note_on_c, 1, 64, 95
3, 59130, Note_on_c, 1, 64, 0
3, 59130, Note_on_c, 1, 57, 0
3, 59130, Note_on_c, 1, 62, 0
3, 59220, Note_on_c, 1, 93, 110
3, 59220, Note_on_c, 1, 88, 110
3, 59250, Note_on_c, 1, 88, 0
3, 59250, Note_on_c, 1, 93, 0
3, 59250, Note_on_c, 1, 86, 110
3, 59280, Note_on_c, 1, 86, 0
3, 59280, Note_on_c, 1, 83, 110
3, 59310, Note_on_c, 1, 83, 0
3, 59310, Note_on_c, 1, 88, 110
3, 59310, Note_on_c, 1, 83, 110
3, 59340, Note_on_c, 1, 83, 0
3, 59340, Note_on_c, 1, 88, 0
3, 59340, Note_on_c, 1, 81, 110
3, 59370, Note_on_c, 1, 81, 0
3, 59370, Note_on_c, 1, 79, 110
3, 59400, Note_on_c, 1, 79, 0
3, 59400, Note_on_c, 1, 81, 110
3, 59400, Note_on_c, 1, 76, 110
3, 59430, Note_on_c, 1, 76, 0
3, 59430, Note_on_c, 1, 81, 0
3, 59430, Note_on_c, 1, 74, 110
3, 59450, Note_on_c, 1, 74, 0
3, 59460, Note_on_c, 1, 72, 110
3, 59490, Note_on_c, 1, 72, 0
3, 59490, Note_on_c, 1, 71, 110
3, 59503, Control_c, 1, 0, 0
3, 59503, Control_c, 1, 32, 0
3, 59503, Program_c, 1, 0
3, 59506, Control_c, 1, 121, 0
3, 59508, Control_c, 1, 7, 90
3, 59510, Note_on_c, 1, 71, 0
3, 59510, Control_c, 1, 10, 50
3, 59512, Control_c, 1, 91, 60
3, 59514, Control_c, 1, 93, 20
3, 59520, Note_on_c, 1, 69, 110
3, 59580, Note_on_c, 1, 69, 0
3, 59580, Note_on_c, 1, 71, 110
3, 59610, Note_on_c, 1, 71, 0
3, 59640, Note_on_c, 1, 67, 110
3, 59670, Note_on_c, 1, 67, 0
3, 59700, Note_on_c, 1, 69, 110
3, 59730, Note_on_c, 1, 69, 0
3, 59730, Note_on_c, 1, 71, 110
3, 59760, Note_on_c, 1, 71, 0
3, 59820, Note_on_c, 1, 74, 110
3, 59850, Note_on_c, 1, 74, 0
3, 59880, Note_on_c, 1, 71, 110
3, 59910, Note_on_c, 1, 71, 0
3, 59940, Note_on_c, 1, 69, 110
3, 59970, Note_on_c, 1, 69, 0
3, 59970, Note_on_c, 1, 67, 110
3, 60000, Note_on_c, 1, 67, 0
3, 60060, Note_on_c, 1, 69, 110
3, 60090, Note_on_c, 1, 69, 0
3, 60090, Note_on_c, 1, 67, 110
3, 60120, Note_on_c, 1, 67, 0
3, 60120, Note_on_c, 1, 71, 110
3, 60150, Note_on_c, 1, 71, 0
3, 60150, Note_on_c, 1, 67, 110
3, 60180, Note_on_c, 1, 67, 0
3, 60180, Note_on_c, 1, 74, 110
3, 60210, Note_on_c, 1, 74, 0
3, 60210, Note_on_c, 1, 67, 110
3, 60240, Note_on_c, 1, 67, 0
3, 60240, Note_on_c, 1, 76, 110
3, 60270, Note_on_c, 1, 76, 0
3, 60300, Note_on_c, 1, 79, 110
3, 60330, Note_on_c, 1, 79, 0
3, 60360, Note_on_c, 1, 80, 110
3, 60390, Note_on_c, 1, 80, 0
3, 60420, Note_on_c, 1, 81, 110
3, 60435, Note_on_c, 1, 69, 110
3, 60440, Note_on_c, 1, 81, 0
3, 60450, Note_on_c, 1, 69, 0
3, 60450, Note_on_c, 1, 81, 110
3, 60465, Note_on_c, 1, 81, 0
3, 60465, Note_on_c, 1, 69, 110
3, 60480, Note_on_c, 1, 69, 0
3, 60480, Note_on_c, 1, 81, 110
3, 60495, Note_on_c, 1, 81, 0
3, 60495, Note_on_c, 1, 69, 110
3, 60510, Note_on_c, 1, 81, 110
3, 60515, Note_on_c, 1, 69, 0
3, 60525, Note_on_c, 1, 69, 110
3, 60530, Note_on_c, 1, 81, 0
3, 60540, Note_on_c, 1, 81, 110
3, 60545, Note_on_c, 1, 69, 0
3, 60555, Note_on_c, 1, 69, 110
3, 60560, Note_on_c, 1, 81, 0
3, 60570, Note_on_c, 1, 81, 110
3, 60575, Note_on_c, 1, 69, 0
3, 60585, Note_on_c, 1, 69, 110
3, 60590, Note_on_c, 1, 81, 0
3, 60600, Note_on_c, 1, 81, 110
3, 60605, Note_on_c, 1, 69, 0
3, 60615, Note_on_c, 1, 69, 110
3, 60620, Note_on_c, 1, 81, 0
3, 60630, Note_on_c, 1, 81, 110
3, 60635, Note_on_c, 1, 69, 0
3, 60645, Note_on_c, 1, 69, 110
3, 60650, Note_on_c, 1, 81, 0
3, 60660, Note_on_c, 1, 81, 110
3, 60665, Note_on_c, 1, 69, 0
3, 60675, Note_on_c, 1, 69, 110
3, 60680, Note_on_c, 1, 81, 0
3, 60690, Note_on_c, 1, 81, 110
3, 60695, Note_on_c, 1, 69, 0
3, 60780, Note_on_c, 1, 81, 0
3, 60780, Note_on_c, 1, 88, 110
3, 60780, Note_on_c, 1, 83, 110
3, 60810, Note_on_c, 1, 83, 0
3, 60810, Note_on_c, 1, 88, 0
3, 60810, Note_on_c, 1, 82, 110
3, 60840, Note_on_c, 1, 82, 0
3, 60840, Note_on_c, 1, 81, 110
3, 60870, Note_on_c, 1, 81, 0
3, 60870, Note_on_c, 1, 91, 110
3, 60870, Note_on_c, 1, 88, 110
3, 60900, Note_on_c, 1, 88, 0
3, 60900, Note_on_c, 1, 91, 0
3, 60930, Note_on_c, 1, 81, 110
3, 60960, Note_on_c, 1, 81, 0
3, 60960, Note_on_c, 1, 91, 110
3, 60960, Note_on_c, 1, 88, 110
3, 60990, Note_on_c, 1, 88, 0
3, 60990, Note_on_c, 1, 91, 0
3, 60990, Note_on_c, 1, 87, 110
3, 61020, Note_on_c, 1, 87, 0
3, 61020, Note_on_c, 1, 86, 110
3, 61050, Note_on_c, 1, 86, 0
3, 61050, Note_on_c, 1, 91, 110
3, 61050, Note_on_c, 1, 95, 110
3, 61080, Note_on_c, 1, 95, 0
3, 61080, Note_on_c, 1, 91, 0
3, 61110, Note_on_c, 1, 86, 110
3, 61140, Note_on_c, 1, 86, 0
3, 61140, Note_on_c, 1, 95, 110
3, 61140, Note_on_c, 1, 91, 110
3, 61170, Note_on_c, 1, 91, 0
3, 61170, Note_on_c, 1, 95, 0
3, 61170, Note_on_c, 1, 90, 110
3, 61200, Note_on_c, 1, 90, 0
3, 61200, Note_on_c, 1, 88, 110
3, 61230, Note_on_c, 1, 88, 0
3, 61230, Note_on_c, 1, 95, 110
3, 61230, Note_on_c, 1, 98, 110
3, 61260, Note_on_c, 1, 98, 0
3, 61260, Note_on_c, 1, 95, 0
3, 61320, Note_on_c, 1, 95, 110
3, 61350, Note_on_c, 1, 95, 0
3, 61380, Note_on_c, 1, 93, 110
3, 61410, Note_on_c, 1, 93, 0
3, 61440, Note_on_c, 1, 91, 110
3, 61470, Note_on_c, 1, 91, 0
3, 61500, Note_on_c, 1, 88, 110
3, 61530, Note_on_c, 1, 88, 0
3, 61530, Note_on_c, 1, 88, 110
3, 61560, Note_on_c, 1, 88, 0
3, 61830, Note_on_c, 1, 76, 110
3, 61830, Note_on_c, 1, 88, 110
3, 61860, Note_on_c, 1, 88, 0
3, 61860, Note_on_c, 1, 76, 0
3, 61890, Note_on_c, 1, 74, 110
3, 61920, Note_on_c, 1, 74, 0
3, 61920, Note_on_c, 1, 88, 110
3, 61920, Note_on_c, 1, 76, 110
3, 61950, Note_on_c, 1, 76, 0
3, 61950, Note_on_c, 1, 88, 0
3, 61980, Note_on_c, 1, 74, 110
3, 61980, Note_on_c, 1, 86, 110
3, 62010, Note_on_c, 1, 86, 0
3, 62010, Note_on_c, 1, 74, 0
3, 62040, Note_on_c, 1, 76, 110
3, 62040, Note_on_c, 1, 88, 110
3, 62070, Note_on_c, 1, 88, 0
3, 62070, Note_on_c, 1, 76, 0
3, 62100, Note_on_c, 1, 79, 110
3, 62100, Note_on_c, 1, 91, 110
3, 62250, Note_on_c, 1, 91, 0
3, 62250, Note_on_c, 1, 79, 0
3, 62430, Note_on_c, 1, 95, 100
3, 62460, Note_on_c, 1, 95, 0
3, 62460, Note_on_c, 1, 92, 100
3, 62490, Note_on_c, 1, 92, 0
3, 62490, Note_on_c, 1, 88, 100
3, 62520, Note_on_c, 1, 88, 0
3, 62520, Note_on_c, 1, 84, 100
3, 62550, Note_on_c, 1, 84, 0
3, 62550, Note_on_c, 1, 83, 100
3, 62580, Note_on_c, 1, 83, 0
3, 62580, Note_on_c, 1, 84, 100
3, 62610, Note_on_c, 1, 84, 0
3, 62640, Note_on_c, 1, 87, 100
3, 62670, Note_on_c, 1, 87, 0
3, 62670, Note_on_c, 1, 84, 70
3, 62700, Note_on_c, 1, 84, 0
3, 62700, Note_on_c, 1, 86, 100
3, 62730, Note_on_c, 1, 86, 0
3, 62730, Note_on_c, 1, 83, 100
3, 62760, Note_on_c, 1, 83, 0
3, 62760, Note_on_c, 1, 85, 100
3, 62790, Note_on_c, 1, 85, 0
3, 62790, Note_on_c, 1, 82, 100
3, 62820, Note_on_c, 1, 82, 0
3, 62820, Note_on_c, 1, 84, 100
3, 62850, Note_on_c, 1, 84, 0
3, 62850, Note_on_c, 1, 81, 100
3, 62880, Note_on_c, 1, 81, 0
3, 62880, Note_on_c, 1, 83, 100
3, 62910, Note_on_c, 1, 83, 0
3, 62910, Note_on_c, 1, 80, 100
3, 62940, Note_on_c, 1, 80, 0
3, 62940, Note_on_c, 1, 82, 100
3, 62970, Note_on_c, 1, 82, 0
3, 62970, Note_on_c, 1, 79, 100
3, 63000, Note_on_c, 1, 79, 0
3, 63000, Note_on_c, 1, 81, 100
3, 63030, Note_on_c, 1, 81, 0
3, 63030, Note_on_c, 1, 77, 100
3, 63060, Note_on_c, 1, 77, 0
3, 63060, Note_on_c, 1, 79, 100
3, 63090, Note_on_c, 1, 79, 0
3, 63090, Note_on_c, 1, 78, 100
3, 63120, Note_on_c, 1, 78, 0
3, 63120, Note_on_c, 1, 77, 100
3, 63150, Note_on_c, 1, 77, 0
3, 63150, Note_on_c, 1, 75, 100
3, 63180, Note_on_c, 1, 75, 0
3, 63180, Note_on_c, 1, 72, 100
3, 63210, Note_on_c, 1, 72, 0
3, 63210, Note_on_c, 1, 70, 100
3, 63240, Note_on_c, 1, 70, 0
3, 63240, Note_on_c, 1, 67, 100
3, 63270, Note_on_c, 1, 67, 0
3, 63270, Note_on_c, 1, 66, 100
3, 63300, Note_on_c, 1, 66, 0
3, 63300, Note_on_c, 1, 64, 100
3, 63330, Note_on_c, 1, 64, 0
3, 63330, Note_on_c, 1, 62, 100
3, 63360, Note_on_c, 1, 62, 0
3, 63360, Note_on_c, 1, 64, 100
3, 63390, Note_on_c, 1, 64, 0
3, 63390, Note_on_c, 1, 69, 100
3, 63420, Note_on_c, 1, 69, 0
3, 63420, Note_on_c, 1, 72, 100
3, 63450, Note_on_c, 1, 72, 0
3, 63450, Note_on_c, 1, 76, 100
3, 63480, Note_on_c, 1, 76, 0
3, 63480, Note_on_c, 1, 74, 100
3, 63510, Note_on_c, 1, 74, 0
3, 63510, Note_on_c, 1, 76, 100
3, 63540, Note_on_c, 1, 76, 0
3, 63540, Note_on_c, 1, 79, 100
3, 63570, Note_on_c, 1, 79, 0
3, 63570, Note_on_c, 1, 75, 100
3, 63600, Note_on_c, 1, 75, 0
3, 63600, Note_on_c, 1, 76, 100
3, 63630, Note_on_c, 1, 76, 0
3, 63630, Note_on_c, 1, 77, 100
3, 63660, Note_on_c, 1, 77, 0
3, 63660, Note_on_c, 1, 76, 100
3, 63690, Note_on_c, 1, 76, 0
3, 63690, Note_on_c, 1, 72, 100
3, 63720, Note_on_c, 1, 72, 0
3, 63720, Note_on_c, 1, 67, 100
3, 63750, Note_on_c, 1, 67, 0
3, 63750, Note_on_c, 1, 65, 100
3, 63780, Note_on_c, 1, 65, 0
3, 63780, Note_on_c, 1, 64, 100
3, 63810, Note_on_c, 1, 64, 0
3, 63810, Note_on_c, 1, 60, 100
3, 63840, Note_on_c, 1, 60, 0
3, 63840, Note_on_c, 1, 64, 100
3, 63870, Note_on_c, 1, 64, 0
3, 63870, Note_on_c, 1, 65, 100
3, 63900, Note_on_c, 1, 65, 0
3, 63900, Note_on_c, 1, 66, 100
3, 63930, Note_on_c, 1, 66, 0
3, 63930, Note_on_c, 1, 67, 100
3, 63960, Note_on_c, 1, 67, 0
3, 63960, Note_on_c, 1, 69, 100
3, 63990, Note_on_c, 1, 69, 0
3, 63990, Note_on_c, 1, 66, 100
3, 64020, Note_on_c, 1, 66, 0
3, 64020, Note_on_c, 1, 67, 100
3, 64050, Note_on_c, 1, 67, 0
3, 64050, Note_on_c, 1, 69, 100
3, 64080, Note_on_c, 1, 69, 0
3, 64080, Note_on_c, 1, 71, 100
3, 64110, Note_on_c, 1, 71, 0
3, 64110, Note_on_c, 1, 67, 100
3, 64140, Note_on_c, 1, 67, 0
3, 64140, Note_on_c, 1, 72, 100
3, 64170, Note_on_c, 1, 72, 0
3, 64170, Note_on_c, 1, 67, 100
3, 64200, Note_on_c, 1, 67, 0
3, 64200, Note_on_c, 1, 73, 100
3, 64230, Note_on_c, 1, 73, 0
3, 64230, Note_on_c, 1, 67, 100
3, 64260, Note_on_c, 1, 67, 0
3, 64260, Note_on_c, 1, 70, 110
3, 64260, Note_on_c, 1, 64, 110
3, 64260, Note_on_c, 1, 67, 110
3, 64260, Note_on_c, 1, 75, 110
3, 64380, Note_on_c, 1, 72, 100
3, 64410, Note_on_c, 1, 72, 0
3, 64440, Note_on_c, 1, 67, 99
3, 64500, Note_on_c, 1, 67, 0
3, 64500, Note_on_c, 1, 65, 99
3, 64525, Control_c, 1, 7, 95
3, 64620, Note_on_c, 1, 65, 0
3, 64620, Note_on_c, 1, 67, 97
3, 64650, Note_on_c, 1, 67, 0
3, 64650, Note_on_c, 1, 68, 97
3, 64680, Note_on_c, 1, 68, 0
3, 64680, Note_on_c, 1, 70, 97
3, 64710, Note_on_c, 1, 70, 0
3, 64740, Note_on_c, 1, 62, 96
3, 64800, Note_on_c, 1, 62, 0
3, 64800, Note_on_c, 1, 60, 95
3, 64890, Note_on_c, 1, 60, 0
3, 64890, Note_on_c, 1, 62, 95
3, 64920, Note_on_c, 1, 62, 0
3, 64920, Note_on_c, 1, 60, 94
3, 65010, Note_on_c, 1, 60, 0
3, 65010, Note_on_c, 1, 58, 85
3, 65040, Note_on_c, 1, 58, 0
3, 65040, Note_on_c, 1, 60, 93
3, 65280, Note_on_c, 1, 60, 0
3, 65280, Note_on_c, 1, 75, 0
3, 65280, Note_on_c, 1, 70, 0
3, 65280, Note_on_c, 1, 64, 0
3, 65280, Note_on_c, 1, 67, 0
3, 65280, Control_c, 1, 64, 100
3, 65280, Note_on_c, 1, 52, 100
3, 65280, Note_on_c, 1, 59, 100
3, 65340, Note_on_c, 1, 54, 100
3, 65400, Note_on_c, 1, 54, 0
3, 65400, Note_on_c, 1, 56, 100
3, 65460, Note_on_c, 1, 56, 0
3, 65460, Note_on_c, 1, 64, 100
3, 65520, Note_on_c, 1, 64, 0
3, 65520, Note_on_c, 1, 68, 100
3, 65520, Note_on_c, 1, 64, 100
3, 65520, Note_on_c, 1, 61, 100
3, 65580, Note_on_c, 1, 57, 100
3, 65640, Note_on_c, 1, 57, 0
3, 65640, Note_on_c, 1, 59, 100
3, 65700, Note_on_c, 1, 59, 0
3, 65700, Note_on_c, 1, 60, 100
3, 65700, Note_on_c, 1, 64, 100
3, 65700, Note_on_c, 1, 67, 100
3, 65700, Note_on_c, 1, 72, 100
3, 65760, Note_on_c, 1, 64, 0
3, 65760, Note_on_c, 1, 68, 0
3, 65760, Note_on_c, 1, 52, 0
3, 65760, Note_on_c, 1, 59, 0
3, 65760, Note_on_c, 1, 61, 0
3, 65760, Note_on_c, 1, 62, 100
3, 65820, Note_on_c, 1, 62, 0
3, 65820, Note_on_c, 1, 67, 0
3, 65820, Note_on_c, 1, 67, 100
3, 65875, Note_on_c, 1, 64, 0
3, 65875, Note_on_c, 1, 72, 0
3, 65880, Note_on_c, 1, 60, 0
3, 65880, Note_on_c, 1, 67, 0
3, 65880, Note_on_c, 1, 64, 100
3, 65880, Note_on_c, 1, 67, 100
3, 65880, Note_on_c, 1, 71, 100
3, 66120, Note_on_c, 1, 71, 0
3, 66120, Note_on_c, 1, 67, 0
3, 66120, Note_on_c, 1, 64, 0
3, 66120, Note_on_c, 1, 65, 101
3, 66120, Note_on_c, 1, 63, 101
3, 66120, Note_on_c, 1, 69, 101
3, 66240, Note_on_c, 1, 69, 0
3, 66240, Note_on_c, 1, 63, 0
3, 66240, Note_on_c, 1, 65, 0
3, 66240, Note_on_c, 1, 69, 101
3, 66240, Note_on_c, 1, 62, 101
3, 66300, Note_on_c, 1, 69, 0
3, 66300, Note_on_c, 1, 69, 101
3, 66360, Note_on_c, 1, 69, 0
3, 66360, Note_on_c, 1, 62, 0
3, 66360, Note_on_c, 1, 65, 101
3, 66420, Note_on_c, 1, 65, 0
3, 66420, Note_on_c, 1, 62, 101
3, 66480, Note_on_c, 1, 62, 0
3, 66480, Note_on_c, 1, 67, 101
3, 66480, Note_on_c, 1, 74, 101
3, 66480, Note_on_c, 1, 58, 101
3, 66540, Note_on_c, 1, 58, 0
3, 66540, Note_on_c, 1, 74, 0
3, 66540, Note_on_c, 1, 70, 101
3, 66600, Note_on_c, 1, 70, 0
3, 66600, Note_on_c, 1, 67, 0
3, 66600, Note_on_c, 1, 67, 101
3, 66660, Note_on_c, 1, 67, 0
3, 66660, Note_on_c, 1, 59, 101
3, 66660, Note_on_c, 1, 64, 101
3, 66660, Note_on_c, 1, 69, 101
3, 66720, Note_on_c, 1, 69, 0
3, 66720, Note_on_c, 1, 69, 101
3, 66780, Note_on_c, 1, 69, 0
3, 66780, Note_on_c, 1, 81, 101
3, 66840, Note_on_c, 1, 81, 0
3, 66840, Note_on_c, 1, 66, 102
3, 66840, Note_on_c, 1, 69, 102
3, 66840, Note_on_c, 1, 73, 102
3, 66840, Note_on_c, 1, 78, 102
3, 66900, Note_on_c, 1, 64, 0
3, 66900, Note_on_c, 1, 59, 0
3, 67020, Note_on_c, 1, 73, 0
3, 67020, Note_on_c, 1, 69, 0
3, 67020, Note_on_c, 1, 66, 0
3, 67020, Note_on_c, 1, 66, 102
3, 67020, Note_on_c, 1, 69, 102
3, 67020, Note_on_c, 1, 75, 102
3, 67080, Note_on_c, 1, 78, 0
3, 67200, Note_on_c, 1, 66, 0
3, 67200, Note_on_c, 1, 69, 0
3, 67200, Note_on_c, 1, 75, 0
3, 67200, Note_on_c, 1, 52, 102
3, 67200, Note_on_c, 1, 59, 102
3, 67260, Note_on_c, 1, 54, 102
3, 67320, Note_on_c, 1, 54, 0
3, 67320, Note_on_c, 1, 56, 102
3, 67380, Note_on_c, 1, 56, 0
3, 67380, Note_on_c, 1, 64, 102
3, 67440, Note_on_c, 1, 64, 0
3, 67440, Note_on_c, 1, 68, 102
3, 67440, Note_on_c, 1, 64, 102
3, 67440, Note_on_c, 1, 61, 102
3, 67500, Note_on_c, 1, 57, 102
3, 67560, Note_on_c, 1, 57, 0
3, 67560, Note_on_c, 1, 59, 102
3, 67620, Note_on_c, 1, 59, 0
3, 67620, Note_on_c, 1, 60, 103
3, 67620, Note_on_c, 1, 64, 103
3, 67620, Note_on_c, 1, 67, 103
3, 67620, Note_on_c, 1, 72, 103
3, 67680, Note_on_c, 1, 64, 0
3, 67680, Note_on_c, 1, 68, 0
3, 67680, Note_on_c, 1, 52, 0
3, 67680, Note_on_c, 1, 59, 0
3, 67680, Note_on_c, 1, 61, 0
3, 67680, Note_on_c, 1, 62, 103
3, 67740, Note_on_c, 1, 62, 0
3, 67740, Note_on_c, 1, 67, 0
3, 67740, Note_on_c, 1, 67, 103
3, 67795, Note_on_c, 1, 64, 0
3, 67795, Note_on_c, 1, 72, 0
3, 67800, Note_on_c, 1, 60, 0
3, 67800, Note_on_c, 1, 67, 0
3, 67800, Note_on_c, 1, 64, 103
3, 67800, Note_on_c, 1, 67, 103
3, 67800, Note_on_c, 1, 71, 103
3, 68040, Note_on_c, 1, 71, 0
3, 68040, Note_on_c, 1, 67, 0
3, 68040, Note_on_c, 1, 64, 0
3, 68040, Note_on_c, 1, 65, 103
3, 68040, Note_on_c, 1, 63, 103
3, 68040, Note_on_c, 1, 69, 103
3, 68160, Note_on_c, 1, 69, 0
3, 68160, Note_on_c, 1, 63, 0
3, 68160, Note_on_c, 1, 65, 0
3, 68160, Note_on_c, 1, 69, 103
3, 68160, Note_on_c, 1, 62, 103
3, 68220, Note_on_c, 1, 69, 0
3, 68220, Note_on_c, 1, 69, 103
3, 68280, Note_on_c, 1, 69, 0
3, 68280, Note_on_c, 1, 62, 0
3, 68280, Note_on_c, 1, 65, 103
3, 68340, Note_on_c, 1, 65, 0
3, 68340, Note_on_c, 1, 62, 103
3, 68400, Note_on_c, 1, 62, 0
3, 68400, Note_on_c, 1, 67, 104
3, 68400, Note_on_c, 1, 74, 104
3, 68400, Note_on_c, 1, 58, 104
3, 68460, Note_on_c, 1, 58, 0
3, 68460, Note_on_c, 1, 74, 0
3, 68460, Note_on_c, 1, 70, 104
3, 68520, Note_on_c, 1, 70, 0
3, 68520, Note_on_c, 1, 67, 0
3, 68520, Note_on_c, 1, 67, 104
3, 68580, Note_on_c, 1, 67, 0
3, 68580, Note_on_c, 1, 59, 104
3, 68580, Note_on_c, 1, 64, 104
3, 68580, Note_on_c, 1, 69, 104
3, 68640, Note_on_c, 1, 69, 0
3, 68640, Note_on_c, 1, 69, 104
3, 68700, Note_on_c, 1, 69, 0
3, 68700, Note_on_c, 1, 81, 104
3, 68760, Note_on_c, 1, 81, 0
3, 68760, Note_on_c, 1, 66, 104
3, 68760, Note_on_c, 1, 69, 104
3, 68760, Note_on_c, 1, 73, 104
3, 68760, Note_on_c, 1, 78, 104
3, 68820, Note_on_c, 1, 64, 0
3, 68820, Note_on_c, 1, 59, 0
3, 68940, Note_on_c, 1, 73, 0
3, 68940, Note_on_c, 1, 69, 0
3, 68940, Note_on_c, 1, 66, 0
3, 68940, Note_on_c, 1, 69, 104
3, 68940, Note_on_c, 1, 67, 104
3, 68940, Note_on_c, 1, 63, 104
3, 69000, Note_on_c, 1, 78, 0
3, 69120, Note_on_c, 1, 69, 0
3, 69120, Note_on_c, 1, 67, 0
3, 69120, Note_on_c, 1, 63, 0
3, 69120, Control_c, 1, 7, 90
3, 69120, Control_c, 1, 64, 0
3, 69120, Note_on_c, 1, 74, 110
3, 69120, Note_on_c, 1, 65, 110
3, 69120, Note_on_c, 1, 70, 110
3, 69120, Note_on_c, 1, 77, 110
3, 69210, Note_on_c, 1, 77, 0
3, 69210, Note_on_c, 1, 74, 0
3, 69210, Note_on_c, 1, 65, 0
3, 69210, Note_on_c, 1, 70, 0
3, 69210, Note_on_c, 1, 74, 110
3, 69210, Note_on_c, 1, 65, 110
3, 69210, Note_on_c, 1, 70, 110
3, 69210, Note_on_c, 1, 77, 110
3, 69240, Note_on_c, 1, 77, 0
3, 69240, Note_on_c, 1, 74, 0
3, 69240, Note_on_c, 1, 65, 0
3, 69240, Note_on_c, 1, 70, 0
3, 69300, Note_on_c, 1, 64, 110
3, 69300, Note_on_c, 1, 69, 110
3, 69300, Note_on_c, 1, 72, 110
3, 69300, Note_on_c, 1, 76, 110
3, 69540, Note_on_c, 1, 76, 0
3, 69540, Note_on_c, 1, 64, 0
3, 69540, Note_on_c, 1, 69, 0
3, 69540, Note_on_c, 1, 72, 0
3, 69540, Note_on_c, 1, 62, 110
3, 69540, Note_on_c, 1, 71, 110
3, 69540, Note_on_c, 1, 67, 110
3, 69540, Note_on_c, 1, 74, 110
3, 69660, Note_on_c, 1, 69, 110
3, 69660, Note_on_c, 1, 76, 110
3, 69690, Note_on_c, 1, 76, 0
3, 69690, Note_on_c, 1, 69, 0
3, 69690, Note_on_c, 1, 67, 110
3, 69690, Note_on_c, 1, 74, 110
3, 69720, Note_on_c, 1, 74, 0
3, 69720, Note_on_c, 1, 71, 0
3, 69720, Note_on_c, 1, 74, 0
3, 69720, Note_on_c, 1, 62, 0
3, 69720, Note_on_c, 1, 67, 0
3, 69720, Note_on_c, 1, 67, 0
3, 69720, Note_on_c, 1, 69, 110
3, 69720, Note_on_c, 1, 62, 110
3, 69720, Note_on_c, 1, 66, 110
3, 69720, Note_on_c, 1, 73, 110
3, 69900, Note_on_c, 1, 64, 110
3, 69930, Note_on_c, 1, 64, 0
3, 69930, Note_on_c, 1, 73, 110
3, 69930, Note_on_c, 1, 69, 110
3, 69960, Note_on_c, 1, 69, 0
3, 69960, Note_on_c, 1, 73, 0
3, 69960, Note_on_c, 1, 69, 110
3, 69960, Note_on_c, 1, 73, 110
3, 69960, Note_on_c, 1, 78, 110
3, 70080, Note_on_c, 1, 78, 0
3, 70080, Note_on_c, 1, 69, 0
3, 70080, Note_on_c, 1, 62, 0
3, 70080, Note_on_c, 1, 66, 0
3, 70080, Note_on_c, 1, 69, 0
3, 70080, Note_on_c, 1, 73, 0
3, 70080, Note_on_c, 1, 73, 0
3, 70080, Note_on_c, 1, 62, 110
3, 70080, Note_on_c, 1, 72, 110
3, 70080, Note_on_c, 1, 69, 110
3, 70080, Note_on_c, 1, 65, 110
3, 70200, Note_on_c, 1, 74, 110
3, 70260, Note_on_c, 1, 74, 0
3, 70260, Note_on_c, 1, 69, 0
3, 70260, Note_on_c, 1, 62, 0
3, 70260, Note_on_c, 1, 72, 0
3, 70260, Note_on_c, 1, 65, 0
3, 70260, Note_on_c, 1, 59, 110
3, 70260, Note_on_c, 1, 64, 110
3, 70260, Note_on_c, 1, 67, 110
3, 70260, Note_on_c, 1, 71, 110
3, 70440, Note_on_c, 1, 71, 0
3, 70440, Note_on_c, 1, 59, 0
3, 70440, Note_on_c, 1, 64, 0
3, 70440, Note_on_c, 1, 67, 0
3, 70500, Note_on_c, 1, 62, 110
3, 70500, Note_on_c, 1, 65, 110
3, 70500, Note_on_c, 1, 69, 110
3, 70680, Note_on_c, 1, 69, 0
3, 70680, Note_on_c, 1, 65, 0
3, 70680, Note_on_c, 1, 62, 0
3, 70680, Note_on_c, 1, 61, 110
3, 70680, Note_on_c, 1, 64, 110
3, 70680, Note_on_c, 1, 68, 110
3, 70860, Note_on_c, 1, 64, 110
3, 70890, Note_on_c, 1, 64, 0
3, 70890, Note_on_c, 1, 68, 110
3, 70920, Note_on_c, 1, 68, 0
3, 70920, Note_on_c, 1, 68, 110
3, 70920, Note_on_c, 1, 73, 110
3, 70920, Note_on_c, 1, 76, 110
3, 70980, Note_on_c, 1, 68, 0
3, 70980, Note_on_c, 1, 64, 0
3, 70980, Note_on_c, 1, 61, 0
3, 71040, Note_on_c, 1, 68, 0
3, 71040, Note_on_c, 1, 76, 0
3, 71040, Note_on_c, 1, 73, 0
3, 71040, Note_on_c, 1, 74, 110
3, 71040, Note_on_c, 1, 65, 110
3, 71040, Note_on_c, 1, 70, 110
3, 71040, Note_on_c, 1, 77, 110
3, 71130, Note_on_c, 1, 77, 0
3, 71130, Note_on_c, 1, 74, 0
3, 71130, Note_on_c, 1, 65, 0
3, 71130, Note_on_c, 1, 70, 0
3, 71130, Note_on_c, 1, 74, 110
3, 71130, Note_on_c, 1, 65, 110
3, 71130, Note_on_c, 1, 70, 110
3, 71130, Note_on_c, 1, 77, 110
3, 71160, Note_on_c, 1, 77, 0
3, 71160, Note_on_c, 1, 74, 0
3, 71160, Note_on_c, 1, 65, 0
3, 71160, Note_on_c, 1, 70, 0
3, 71220, Note_on_c, 1, 64, 110
3, 71220, Note_on_c, 1, 69, 110
3, 71220, Note_on_c, 1, 72, 110
3, 71220, Note_on_c, 1, 76, 110
3, 71460, Note_on_c, 1, 76, 0
3, 71460, Note_on_c, 1, 64, 0
3, 71460, Note_on_c, 1, 69, 0
3, 71460, Note_on_c, 1, 72, 0
3, 71460, Note_on_c, 1, 62, 110
3, 71460, Note_on_c, 1, 71, 110
3, 71460, Note_on_c, 1, 67, 110
3, 71460, Note_on_c, 1, 74, 110
3, 71580, Note_on_c, 1, 69, 110
3, 71580, Note_on_c, 1, 76, 110
3, 71610, Note_on_c, 1, 76, 0
3, 71610, Note_on_c, 1, 69, 0
3, 71610, Note_on_c, 1, 67, 110
3, 71610, Note_on_c, 1, 74, 110
3, 71640, Note_on_c, 1, 74, 0
3, 71640, Note_on_c, 1, 71, 0
3, 71640, Note_on_c, 1, 74, 0
3, 71640, Note_on_c, 1, 62, 0
3, 71640, Note_on_c, 1, 67, 0
3, 71640, Note_on_c, 1, 67, 0
3, 71640, Note_on_c, 1, 69, 110
3, 71640, Note_on_c, 1, 62, 110
3, 71640, Note_on_c, 1, 66, 110
3, 71640, Note_on_c, 1, 73, 110
3, 71820, Note_on_c, 1, 76, 110
3, 71880, Note_on_c, 1, 76, 0
3, 71880, Note_on_c, 1, 78, 110
3, 71910, Note_on_c, 1, 78, 0
3, 71910, Note_on_c, 1, 76, 110
3, 71910, Note_on_c, 1, 81, 110
3, 72000, Note_on_c, 1, 81, 0
3, 72000, Note_on_c, 1, 62, 0
3, 72000, Note_on_c, 1, 66, 0
3, 72000, Note_on_c, 1, 69, 0
3, 72000, Note_on_c, 1, 76, 0
3, 72000, Note_on_c, 1, 73, 0
3, 72000, Note_on_c, 1, 60, 110
3, 72000, Note_on_c, 1, 64, 110
3, 72000, Note_on_c, 1, 72, 110
3, 72000, Note_on_c, 1, 67, 110
3, 72000, Note_on_c, 1, 81, 110
3, 72060, Note_on_c, 1, 81, 0
3, 72060, Note_on_c, 1, 84, 110
3, 72120, Note_on_c, 1, 84, 0
3, 72120, Note_on_c, 1, 81, 110
3, 72140, Note_on_c, 1, 81, 0
3, 72180, Note_on_c, 1, 72, 0
3, 72180, Note_on_c, 1, 60, 0
3, 72180, Note_on_c, 1, 64, 0
3, 72180, Note_on_c, 1, 67, 0
3, 72180, Note_on_c, 1, 79, 110
3, 72180, Note_on_c, 1, 71, 110
3, 72180, Note_on_c, 1, 59, 110
3, 72180, Note_on_c, 1, 64, 110
3, 72180, Note_on_c, 1, 67, 110
3, 72480, Note_on_c, 1, 67, 0
3, 72480, Note_on_c, 1, 59, 0
3, 72480, Note_on_c, 1, 79, 0
3, 72480, Note_on_c, 1, 71, 0
3, 72480, Note_on_c, 1, 64, 0
3, 72480, Control_c, 1, 64, 60
3, 72480, Note_on_c, 1, 79, 110
3, 72480, Note_on_c, 1, 67, 110
3, 72480, Note_on_c, 1, 58, 110
3, 72480, Note_on_c, 1, 63, 110
3, 72540, Note_on_c, 1, 79, 0
3, 72540, Note_on_c, 1, 82, 110
3, 72600, Note_on_c, 1, 82, 0
3, 72600, Note_on_c, 1, 79, 110
3, 72630, Note_on_c, 1, 79, 0
3, 72660, Note_on_c, 1, 67, 0
3, 72660, Note_on_c, 1, 58, 0
3, 72660, Note_on_c, 1, 63, 0
3, 72660, Note_on_c, 1, 65, 110
3, 72660, Note_on_c, 1, 58, 110
3, 72660, Note_on_c, 1, 62, 110
3, 72660, Note_on_c, 1, 77, 110
3, 72720, Note_on_c, 1, 77, 0
3, 72840, Note_on_c, 1, 65, 0
3, 72840, Note_on_c, 1, 58, 0
3, 72840, Note_on_c, 1, 62, 0
3, 72900, Note_on_c, 1, 77, 110
3, 72930, Note_on_c, 1, 77, 0
3, 72930, Note_on_c, 1, 79, 110
3, 72960, Note_on_c, 1, 79, 0
3, 72960, Note_on_c, 1, 75, 110
3, 72960, Note_on_c, 1, 70, 110
3, 72960, Note_on_c, 1, 65, 110
3, 72960, Note_on_c, 1, 80, 110
3, 73020, Note_on_c, 1, 80, 0
3, 73020, Note_on_c, 1, 79, 110
3, 73080, Note_on_c, 1, 79, 0
3, 73080, Note_on_c, 1, 77, 110
3, 73140, Note_on_c, 1, 77, 0
3, 73140, Note_on_c, 1, 75, 0
3, 73140, Note_on_c, 1, 70, 0
3, 73140, Note_on_c, 1, 65, 0
3, 73140, Note_on_c, 1, 67, 110
3, 73140, Note_on_c, 1, 72, 110
3, 73140, Note_on_c, 1, 79, 110
3, 73200, Note_on_c, 1, 79, 0
3, 73200, Note_on_c, 1, 75, 110
3, 73260, Note_on_c, 1, 75, 0
3, 73260, Note_on_c, 1, 70, 110
3, 73320, Note_on_c, 1, 70, 0
3, 73320, Note_on_c, 1, 72, 0
3, 73320, Note_on_c, 1, 67, 0
3, 73320, Note_on_c, 1, 62, 110
3, 73320, Note_on_c, 1, 67, 110
3, 73320, Note_on_c, 1, 71, 110
3, 73320, Note_on_c, 1, 74, 110
3, 73620, Note_on_c, 1, 71, 0
3, 73620, Control_c, 1, 64, 100
3, 73620, Note_on_c, 1, 71, 110
3, 73650, Note_on_c, 1, 71, 0
3, 73650, Note_on_c, 1, 72, 110
3, 73680, Note_on_c, 1, 72, 0
3, 73680, Note_on_c, 1, 79, 110
3, 73800, Note_on_c, 1, 74, 0
3, 73800, Note_on_c, 1, 67, 0
3, 73860, Note_on_c, 1, 79, 0
3, 73860, Note_on_c, 1, 78, 110
3, 73890, Note_on_c, 1, 78, 0
3, 73890, Note_on_c, 1, 79, 110
3, 73920, Note_on_c, 1, 79, 0
3, 73920, Note_on_c, 1, 86, 110
3, 73980, Note_on_c, 1, 83, 110
3, 74010, Note_on_c, 1, 83, 0
3, 74010, Note_on_c, 1, 84, 110
3, 74040, Note_on_c, 1, 84, 0
3, 74040, Note_on_c, 1, 86, 0
3, 74040, Note_on_c, 1, 91, 110
3, 74100, Note_on_c, 1, 62, 0
3, 74160, Note_on_c, 1, 88, 110
3, 74190, Note_on_c, 1, 88, 0
3, 74190, Note_on_c, 1, 90, 110
3, 74220, Note_on_c, 1, 90, 0
3, 74220, Note_on_c, 1, 95, 120
3, 74280, Note_on_c, 1, 91, 0
3, 74280, Note_on_c, 1, 103, 125
3, 74700, Note_on_c, 1, 95, 0
3, 74760, Note_on_c, 1, 103, 0
3, 74880, Control_c, 1, 7, 100
3, 74880, Note_on_c, 1, 57, 96
3, 74940, Note_on_c, 1, 67, 110
3, 74970, Note_on_c, 1, 67, 0
3, 74970, Note_on_c, 1, 72, 110
3, 75000, Note_on_c, 1, 72, 0
3, 75000, Note_on_c, 1, 67, 110
3, 75030, Note_on_c, 1, 67, 0
3, 75030, Note_on_c, 1, 79, 110
3, 75060, Note_on_c, 1, 79, 0
3, 75060, Note_on_c, 1, 67, 110
3, 75090, Note_on_c, 1, 67, 0
3, 75090, Note_on_c, 1, 72, 110
3, 75120, Note_on_c, 1, 72, 0
3, 75120, Note_on_c, 1, 57, 0
3, 75120, Note_on_c, 1, 59, 96
3, 75120, Note_on_c, 1, 74, 110
3, 75180, Note_on_c, 1, 74, 0
3, 75180, Note_on_c, 1, 67, 110
3, 75240, Note_on_c, 1, 67, 0
3, 75240, Note_on_c, 1, 74, 110
3, 75300, Note_on_c, 1, 74, 0
3, 75300, Note_on_c, 1, 79, 110
3, 75360, Note_on_c, 1, 79, 0
3, 75360, Note_on_c, 1, 59, 0
3, 75360, Note_on_c, 1, 60, 96
3, 75420, Note_on_c, 1, 67, 110
3, 75450, Note_on_c, 1, 67, 0
3, 75450, Note_on_c, 1, 72, 110
3, 75480, Note_on_c, 1, 72, 0
3, 75480, Note_on_c, 1, 67, 110
3, 75510, Note_on_c, 1, 67, 0
3, 75510, Note_on_c, 1, 79, 110
3, 75540, Note_on_c, 1, 79, 0
3, 75540, Note_on_c, 1, 67, 110
3, 75570, Note_on_c, 1, 67, 0
3, 75570, Note_on_c, 1, 72, 110
3, 75600, Note_on_c, 1, 72, 0
3, 75600, Note_on_c, 1, 60, 0
3, 75600, Note_on_c, 1, 62, 96
3, 75600, Note_on_c, 1, 74, 110
3, 75660, Note_on_c, 1, 74, 0
3, 75660, Note_on_c, 1, 74, 110
3, 75720, Note_on_c, 1, 74, 0
3, 75720, Note_on_c, 1, 78, 110
3, 75780, Note_on_c, 1, 78, 0
3, 75780, Note_on_c, 1, 78, 110
3, 75810, Note_on_c, 1, 78, 0
3, 75810, Note_on_c, 1, 79, 110
3, 75840, Note_on_c, 1, 79, 0
3, 75840, Note_on_c, 1, 62, 0
3, 75840, Note_on_c, 1, 57, 96
3, 75900, Note_on_c, 1, 67, 110
3, 75930, Note_on_c, 1, 67, 0
3, 75930, Note_on_c, 1, 72, 110
3, 75960, Note_on_c, 1, 72, 0
3, 75960, Note_on_c, 1, 67, 110
3, 75990, Note_on_c, 1, 67, 0
3, 75990, Note_on_c, 1, 79, 110
3, 76020, Note_on_c, 1, 79, 0
3, 76020, Note_on_c, 1, 67, 110
3, 76050, Note_on_c, 1, 67, 0
3, 76050, Note_on_c, 1, 72, 110
3, 76080, Note_on_c, 1, 72, 0
3, 76080, Note_on_c, 1, 57, 0
3, 76080, Note_on_c, 1, 59, 96
3, 76080, Note_on_c, 1, 74, 110
3, 76140, Note_on_c, 1, 74, 0
3, 76140, Note_on_c, 1, 67, 110
3, 76200, Note_on_c, 1, 67, 0
3, 76200, Note_on_c, 1, 74, 110
3, 76260, Note_on_c, 1, 74, 0
3, 76260, Note_on_c, 1, 79, 110
3, 76320, Note_on_c, 1, 79, 0
3, 76320, Note_on_c, 1, 59, 0
3, 76380, Note_on_c, 1, 83, 110
3, 76410, Note_on_c, 1, 83, 0
3, 76410, Note_on_c, 1, 81, 110
3, 76440, Note_on_c, 1, 81, 0
3, 76440, Note_on_c, 1, 79, 110
3, 76470, Note_on_c, 1, 79, 0
3, 76470, Note_on_c, 1, 74, 110
3, 76500, Note_on_c, 1, 74, 0
3, 76500, Note_on_c, 1, 71, 110
3, 76530, Note_on_c, 1, 71, 0
3, 76530, Note_on_c, 1, 67, 110
3, 76560, Note_on_c, 1, 67, 0
3, 76560, Note_on_c, 1, 72, 110
3, 76560, Control_c, 1, 64, 38
3, 76560, Note_on_c, 1, 60, 110
3, 76560, Note_on_c, 1, 65, 110
3, 76560, Note_on_c, 1, 69, 110
3, 76590, Note_on_c, 1, 69, 0
3, 76590, Note_on_c, 1, 72, 0
3, 76590, Note_on_c, 1, 60, 0
3, 76590, Note_on_c, 1, 65, 0
3, 76680, Note_on_c, 1, 71, 110
3, 76680, Note_on_c, 1, 67, 110
3, 76680, Note_on_c, 1, 57, 110
3, 76680, Note_on_c, 1, 64, 110
3, 76800, Note_on_c, 1, 64, 0
3, 76800, Note_on_c, 1, 71, 0
3, 76800, Note_on_c, 1, 67, 0
3, 76800, Note_on_c, 1, 57, 0
3, 76860, Control_c, 1, 7, 100
3, 76860, Note_on_c, 1, 60, 110
3, 76860, Note_on_c, 1, 67, 110
3, 76860, Note_on_c, 1, 64, 110
3, 76860, Note_on_c, 1, 72, 110
3, 76890, Note_on_c, 1, 72, 0
3, 76890, Note_on_c, 1, 60, 0
3, 76890, Note_on_c, 1, 67, 0
3, 76890, Note_on_c, 1, 64, 0
3, 76950, Note_on_c, 1, 59, 110
3, 76950, Note_on_c, 1, 67, 110
3, 76950, Note_on_c, 1, 62, 110
3, 76950, Note_on_c, 1, 71, 110
3, 76980, Note_on_c, 1, 71, 0
3, 76980, Note_on_c, 1, 59, 0
3, 76980, Note_on_c, 1, 67, 0
3, 76980, Note_on_c, 1, 62, 0
3, 77040, Note_on_c, 1, 57, 110
3, 77040, Note_on_c, 1, 66, 110
3, 77040, Note_on_c, 1, 62, 110
3, 77040, Note_on_c, 1, 69, 110
3, 77100, Note_on_c, 1, 69, 0
3, 77100, Note_on_c, 1, 57, 0
3, 77100, Note_on_c, 1, 66, 0
3, 77100, Note_on_c, 1, 62, 0
3, 77100, Note_on_c, 1, 60, 110
3, 77100, Note_on_c, 1, 55, 110
3, 77100, Note_on_c, 1, 64, 110
3, 77100, Note_on_c, 1, 67, 110
3, 77130, Note_on_c, 1, 67, 0
3, 77130, Note_on_c, 1, 60, 0
3, 77130, Note_on_c, 1, 55, 0
3, 77130, Note_on_c, 1, 64, 0
3, 77220, Note_on_c, 1, 62, 110
3, 77250, Note_on_c, 1, 62, 0
3, 77250, Note_on_c, 1, 64, 110
3, 77280, Note_on_c, 1, 64, 0
3, 77280, Note_on_c, 1, 55, 110
3, 77280, Note_on_c, 1, 60, 110
3, 77280, Note_on_c, 1, 64, 110
3, 77280, Note_on_c, 1, 67, 110
3, 77370, Note_on_c, 1, 67, 0
3, 77370, Note_on_c, 1, 55, 0
3, 77370, Note_on_c, 1, 60, 0
3, 77370, Note_on_c, 1, 64, 0
3, 77370, Note_on_c, 1, 55, 110
3, 77370, Note_on_c, 1, 60, 110
3, 77370, Note_on_c, 1, 64, 110
3, 77370, Note_on_c, 1, 67, 110
3, 77460, Note_on_c, 1, 67, 0
3, 77460, Note_on_c, 1, 55, 0
3, 77460, Note_on_c, 1, 60, 0
3, 77460, Note_on_c, 1, 64, 0
3, 77460, Note_on_c, 1, 57, 110
3, 77460, Note_on_c, 1, 62, 110
3, 77460, Note_on_c, 1, 66, 110
3, 77460, Note_on_c, 1, 69, 110
3, 77490, Note_on_c, 1, 69, 0
3, 77490, Note_on_c, 1, 57, 0
3, 77490, Note_on_c, 1, 62, 0
3, 77490, Note_on_c, 1, 66, 0
3, 77580, Note_on_c, 1, 50, 100
3, 77580, Note_on_c, 1, 62, 100
3, 77600, Note_on_c, 1, 62, 0
3, 77600, Note_on_c, 1, 50, 0
3, 77640, Note_on_c, 1, 50, 100
3, 77640, Note_on_c, 1, 62, 100
3, 77690, Note_on_c, 1, 62, 0
3, 77690, Note_on_c, 1, 50, 0
3, 77700, Note_on_c, 1, 52, 100
3, 77700, Note_on_c, 1, 64, 100
3, 77720, Note_on_c, 1, 64, 0
3, 77720, Note_on_c, 1, 52, 0
3, 77730, Note_on_c, 1, 52, 100
3, 77730, Note_on_c, 1, 64, 100
3, 77750, Note_on_c, 1, 64, 0
3, 77750, Note_on_c, 1, 52, 0
3, 77820, Note_on_c, 1, 60, 110
3, 77820, Note_on_c, 1, 67, 110
3, 77820, Note_on_c, 1, 64, 110
3, 77820, Note_on_c, 1, 72, 110
3, 77850, Note_on_c, 1, 72, 0
3, 77850, Note_on_c, 1, 60, 0
3, 77850, Note_on_c, 1, 67, 0
3, 77850, Note_on_c, 1, 64, 0
3, 77910, Note_on_c, 1, 59, 110
3, 77910, Note_on_c, 1, 67, 110
3, 77910, Note_on_c, 1, 62, 110
3, 77910, Note_on_c, 1, 71, 110
3, 77940, Note_on_c, 1, 71, 0
3, 77940, Note_on_c, 1, 59, 0
3, 77940, Note_on_c, 1, 67, 0
3, 77940, Note_on_c, 1, 62, 0
3, 78000, Note_on_c, 1, 57, 110
3, 78000, Note_on_c, 1, 66, 110
3, 78000, Note_on_c, 1, 62, 110
3, 78000, Note_on_c, 1, 69, 110
3, 78060, Note_on_c, 1, 69, 0
3, 78060, Note_on_c, 1, 57, 0
3, 78060, Note_on_c, 1, 66, 0
3, 78060, Note_on_c, 1, 62, 0
3, 78060, Note_on_c, 1, 60, 110
3, 78060, Note_on_c, 1, 55, 110
3, 78060, Note_on_c, 1, 64, 110
3, 78060, Note_on_c, 1, 67, 110
3, 78090, Note_on_c, 1, 67, 0
3, 78090, Note_on_c, 1, 60, 0
3, 78090, Note_on_c, 1, 55, 0
3, 78090, Note_on_c, 1, 64, 0
3, 78180, Note_on_c, 1, 62, 110
3, 78210, Note_on_c, 1, 62, 0
3, 78210, Note_on_c, 1, 64, 110
3, 78240, Note_on_c, 1, 64, 0
3, 78240, Note_on_c, 1, 55, 110
3, 78240, Note_on_c, 1, 64, 110
3, 78240, Note_on_c, 1, 60, 110
3, 78240, Note_on_c, 1, 67, 110
3, 78360, Note_on_c, 1, 67, 0
3, 78360, Note_on_c, 1, 55, 0
3, 78360, Note_on_c, 1, 64, 0
3, 78360, Note_on_c, 1, 60, 0
3, 78360, Note_on_c, 1, 57, 110
3, 78360, Note_on_c, 1, 66, 110
3, 78360, Note_on_c, 1, 62, 110
3, 78360, Note_on_c, 1, 69, 110
3, 78480, Note_on_c, 1, 69, 0
3, 78480, Note_on_c, 1, 57, 0
3, 78480, Note_on_c, 1, 66, 0
3, 78480, Note_on_c, 1, 62, 0
3, 78480, Note_on_c, 1, 57, 110
3, 78480, Note_on_c, 1, 60, 110
3, 78480, Note_on_c, 1, 64, 110
3, 78510, Note_on_c, 1, 64, 0
3, 78510, Note_on_c, 1, 60, 0
3, 78510, Note_on_c, 1, 57, 0
3, 78540, Note_on_c, 1, 57, 110
3, 78540, Note_on_c, 1, 60, 110
3, 78540, Note_on_c, 1, 64, 110
3, 78570, Note_on_c, 1, 64, 0
3, 78570, Note_on_c, 1, 60, 0
3, 78570, Note_on_c, 1, 57, 0
3, 78600, Note_on_c, 1, 55, 110
3, 78600, Note_on_c, 1, 59, 110
3, 78600, Note_on_c, 1, 62, 110
3, 78720, Note_on_c, 1, 62, 0
3, 78720, Note_on_c, 1, 59, 0
3, 78720, Note_on_c, 1, 55, 0
3, 78780, Note_on_c, 1, 60, 110
3, 78780, Note_on_c, 1, 67, 110
3, 78780, Note_on_c, 1, 64, 110
3, 78780, Note_on_c, 1, 72, 110
3, 78810, Note_on_c, 1, 72, 0
3, 78810, Note_on_c, 1, 60, 0
3, 78810, Note_on_c, 1, 67, 0
3, 78810, Note_on_c, 1, 64, 0
3, 78870, Note_on_c, 1, 59, 110
3, 78870, Note_on_c, 1, 67, 110
3, 78870, Note_on_c, 1, 62, 110
3, 78870, Note_on_c, 1, 71, 110
3, 78900, Note_on_c, 1, 71, 0
3, 78900, Note_on_c, 1, 59, 0
3, 78900, Note_on_c, 1, 67, 0
3, 78900, Note_on_c, 1, 62, 0
3, 78960, Note_on_c, 1, 57, 110
3, 78960, Note_on_c, 1, 66, 110
3, 78960, Note_on_c, 1, 62, 110
3, 78960, Note_on_c, 1, 69, 110
3, 79020, Note_on_c, 1, 69, 0
3, 79020, Note_on_c, 1, 57, 0
3, 79020, Note_on_c, 1, 66, 0
3, 79020, Note_on_c, 1, 62, 0
3, 79020, Note_on_c, 1, 60, 110
3, 79020, Note_on_c, 1, 55, 110
3, 79020, Note_on_c, 1, 64, 110
3, 79020, Note_on_c, 1, 67, 110
3, 79050, Note_on_c, 1, 67, 0
3, 79050, Note_on_c, 1, 60, 0
3, 79050, Note_on_c, 1, 55, 0
3, 79050, Note_on_c, 1, 64, 0
3, 79140, Note_on_c, 1, 62, 110
3, 79170, Note_on_c, 1, 62, 0
3, 79170, Note_on_c, 1, 64, 110
3, 79200, Note_on_c, 1, 64, 0
3, 79200, Note_on_c, 1, 55, 110
3, 79200, Note_on_c, 1, 60, 110
3, 79200, Note_on_c, 1, 64, 110
3, 79200, Note_on_c, 1, 67, 110
3, 79290, Note_on_c, 1, 67, 0
3, 79290, Note_on_c, 1, 55, 0
3, 79290, Note_on_c, 1, 60, 0
3, 79290, Note_on_c, 1, 64, 0
3, 79290, Note_on_c, 1, 55, 110
3, 79290, Note_on_c, 1, 60, 110
3, 79290, Note_on_c, 1, 64, 110
3, 79290, Note_on_c, 1, 67, 110
3, 79380, Note_on_c, 1, 67, 0
3, 79380, Note_on_c, 1, 55, 0
3, 79380, Note_on_c, 1, 60, 0
3, 79380, Note_on_c, 1, 64, 0
3, 79380, Note_on_c, 1, 57, 110
3, 79380, Note_on_c, 1, 62, 110
3, 79380, Note_on_c, 1, 66, 110
3, 79380, Note_on_c, 1, 69, 110
3, 79410, Note_on_c, 1, 69, 0
3, 79410, Note_on_c, 1, 57, 0
3, 79410, Note_on_c, 1, 62, 0
3, 79410, Note_on_c, 1, 66, 0
3, 79500, Note_on_c, 1, 50, 100
3, 79500, Note_on_c, 1, 62, 100
3, 79520, Note_on_c, 1, 62, 0
3, 79520, Note_on_c, 1, 50, 0
3, 79560, Note_on_c, 1, 50, 100
3, 79560, Note_on_c, 1, 62, 100
3, 79610, Note_on_c, 1, 62, 0
3, 79610, Note_on_c, 1, 50, 0
3, 79620, Note_on_c, 1, 52, 100
3, 79620, Note_on_c, 1, 64, 100
3, 79640, Note_on_c, 1, 64, 0
3, 79640, Note_on_c, 1, 52, 0
3, 79650, Note_on_c, 1, 52, 100
3, 79650, Note_on_c, 1, 64, 100
3, 79670, Note_on_c, 1, 64, 0
3, 79670, Note_on_c, 1, 52, 0
3, 79740, Note_on_c, 1, 60, 110
3, 79740, Note_on_c, 1, 67, 110
3, 79740, Note_on_c, 1, 64, 110
3, 79740, Note_on_c, 1, 72, 110
3, 79770, Note_on_c, 1, 72, 0
3, 79770, Note_on_c, 1, 60, 0
3, 79770, Note_on_c, 1, 67, 0
3, 79770, Note_on_c, 1, 64, 0
3, 79830, Note_on_c, 1, 59, 110
3, 79830, Note_on_c, 1, 67, 110
3, 79830, Note_on_c, 1, 62, 110
3, 79830, Note_on_c, 1, 71, 110
3, 79860, Note_on_c, 1, 71, 0
3, 79860, Note_on_c, 1, 59, 0
3, 79860, Note_on_c, 1, 67, 0
3, 79860, Note_on_c, 1, 62, 0
3, 79920, Note_on_c, 1, 57, 110
3, 79920, Note_on_c, 1, 66, 110
3, 79920, Note_on_c, 1, 62, 110
3, 79920, Note_on_c, 1, 69, 110
3, 79980, Note_on_c, 1, 69, 0
3, 79980, Note_on_c, 1, 57, 0
3, 79980, Note_on_c, 1, 66, 0
3, 79980, Note_on_c, 1, 62, 0
3, 79980, Note_on_c, 1, 60, 110
3, 79980, Note_on_c, 1, 55, 110
3, 79980, Note_on_c, 1, 64, 110
3, 79980, Note_on_c, 1, 67, 110
3, 80010, Note_on_c, 1, 67, 0
3, 80010, Note_on_c, 1, 60, 0
3, 80010, Note_on_c, 1, 55, 0
3, 80010, Note_on_c, 1, 64, 0
3, 80100, Note_on_c, 1, 67, 110
3, 80100, Note_on_c, 1, 62, 110
3, 80130, Note_on_c, 1, 62, 0
3, 80130, Note_on_c, 1, 67, 0
3, 80130, Note_on_c, 1, 69, 110
3, 80130, Note_on_c, 1, 64, 110
3, 80160, Note_on_c, 1, 64, 0
3, 80160, Note_on_c, 1, 69, 0
3, 80160, Note_on_c, 1, 67, 110
3, 80160, Note_on_c, 1, 71, 110
3, 80220, Note_on_c, 1, 71, 0
3, 80220, Note_on_c, 1, 67, 0
3, 80220, Note_on_c, 1, 71, 110
3, 80220, Note_on_c, 1, 74, 110
3, 80280, Note_on_c, 1, 74, 0
3, 80280, Note_on_c, 1, 71, 0
3, 80280, Note_on_c, 1, 72, 110
3, 80280, Note_on_c, 1, 76, 110
3, 80340, Note_on_c, 1, 76, 0
3, 80340, Note_on_c, 1, 72, 0
3, 80340, Note_on_c, 1, 74, 110
3, 80340, Note_on_c, 1, 79, 110
3, 80400, Note_on_c, 1, 79, 0
3, 80400, Note_on_c, 1, 74, 0
3, 80400, Note_on_c, 1, 64, 110
3, 80400, Note_on_c, 1, 72, 110
3, 80400, Note_on_c, 1, 76, 110
3, 80400, Note_on_c, 1, 69, 110
3, 80400, Note_on_c, 1, 81, 110
3, 80430, Note_on_c, 1, 81, 0
3, 80430, Note_on_c, 1, 76, 0
3, 80430, Note_on_c, 1, 64, 0
3, 80430, Note_on_c, 1, 72, 0
3, 80430, Note_on_c, 1, 69, 0
3, 80520, Note_on_c, 1, 62, 110
3, 80520, Note_on_c, 1, 71, 110
3, 80520, Note_on_c, 1, 74, 110
3, 80520, Note_on_c, 1, 79, 110
3, 80520, Note_on_c, 1, 67, 110
3, 80640, Note_on_c, 1, 67, 0
3, 80640, Note_on_c, 1, 74, 0
3, 80640, Note_on_c, 1, 62, 0
3, 80640, Note_on_c, 1, 71, 0
3, 80640, Note_on_c, 1, 79, 0
3, 80700, Note_on_c, 1, 79, 110
3, 80700, Note_on_c, 1, 84, 110
3, 80700, Note_on_c, 1, 91, 110
3, 80700, Note_on_c, 1, 60, 110
3, 80700, Note_on_c, 1, 67, 110
3, 80700, Note_on_c, 1, 64, 110
3, 80700, Note_on_c, 1, 72, 110
3, 80730, Note_on_c, 1, 72, 0
3, 80730, Note_on_c, 1, 67, 0
3, 80730, Note_on_c, 1, 60, 0
3, 80730, Note_on_c, 1, 64, 0
3, 80760, Note_on_c, 1, 79, 0
3, 80760, Note_on_c, 1, 91, 0
3, 80760, Note_on_c, 1, 84, 0
3, 80790, Note_on_c, 1, 59, 110
3, 80790, Note_on_c, 1, 67, 110
3, 80790, Note_on_c, 1, 62, 110
3, 80790, Note_on_c, 1, 71, 110
3, 80820, Note_on_c, 1, 71, 0
3, 80820, Note_on_c, 1, 59, 0
3, 80820, Note_on_c, 1, 67, 0
3, 80820, Note_on_c, 1, 62, 0
3, 80880, Note_on_c, 1, 57, 110
3, 80880, Note_on_c, 1, 66, 110
3, 80880, Note_on_c, 1, 62, 110
3, 80880, Note_on_c, 1, 69, 110
3, 80940, Note_on_c, 1, 69, 0
3, 80940, Note_on_c, 1, 57, 0
3, 80940, Note_on_c, 1, 66, 0
3, 80940, Note_on_c, 1, 62, 0
3, 80940, Note_on_c, 1, 60, 110
3, 80940, Note_on_c, 1, 55, 110
3, 80940, Note_on_c, 1, 64, 110
3, 80940, Note_on_c, 1, 67, 110
3, 80970, Note_on_c, 1, 67, 0
3, 80970, Note_on_c, 1, 60, 0
3, 80970, Note_on_c, 1, 55, 0
3, 80970, Note_on_c, 1, 64, 0
3, 81060, Note_on_c, 1, 62, 110
3, 81090, Note_on_c, 1, 62, 0
3, 81090, Note_on_c, 1, 64, 110
3, 81120, Note_on_c, 1, 64, 0
3, 81120, Note_on_c, 1, 55, 110
3, 81120, Note_on_c, 1, 60, 110
3, 81120, Note_on_c, 1, 64, 110
3, 81120, Note_on_c, 1, 67, 110
3, 81210, Note_on_c, 1, 67, 0
3, 81210, Note_on_c, 1, 55, 0
3, 81210, Note_on_c, 1, 60, 0
3, 81210, Note_on_c, 1, 64, 0
3, 81210, Note_on_c, 1, 55, 110
3, 81210, Note_on_c, 1, 60, 110
3, 81210, Note_on_c, 1, 64, 110
3, 81210, Note_on_c, 1, 67, 110
3, 81300, Note_on_c, 1, 67, 0
3, 81300, Note_on_c, 1, 55, 0
3, 81300, Note_on_c, 1, 60, 0
3, 81300, Note_on_c, 1, 64, 0
3, 81300, Note_on_c, 1, 57, 110
3, 81300, Note_on_c, 1, 62, 110
3, 81300, Note_on_c, 1, 66, 110
3, 81300, Note_on_c, 1, 69, 110
3, 81330, Note_on_c, 1, 69, 0
3, 81330, Note_on_c, 1, 57, 0
3, 81330, Note_on_c, 1, 62, 0
3, 81330, Note_on_c, 1, 66, 0
3, 81420, Note_on_c, 1, 50, 100
3, 81420, Note_on_c, 1, 62, 100
3, 81440, Note_on_c, 1, 62, 0
3, 81440, Note_on_c, 1, 50, 0
3, 81480, Note_on_c, 1, 50, 100
3, 81480, Note_on_c, 1, 62, 100
3, 81530, Note_on_c, 1, 62, 0
3, 81530, Note_on_c, 1, 50, 0
3, 81540, Note_on_c, 1, 52, 100
3, 81540, Note_on_c, 1, 64, 100
3, 81560, Note_on_c, 1, 64, 0
3, 81560, Note_on_c, 1, 52, 0
3, 81570, Note_on_c, 1, 52, 100
3, 81570, Note_on_c, 1, 64, 100
3, 81590, Note_on_c, 1, 64, 0
3, 81590, Note_on_c, 1, 52, 0
3, 81660, Note_on_c, 1, 60, 110
3, 81660, Note_on_c, 1, 67, 110
3, 81660, Note_on_c, 1, 64, 110
3, 81660, Note_on_c, 1, 72, 110
3, 81690, Note_on_c, 1, 72, 0
3, 81690, Note_on_c, 1, 60, 0
3, 81690, Note_on_c, 1, 67, 0
3, 81690, Note_on_c, 1, 64, 0
3, 81750, Note_on_c, 1, 59, 110
3, 81750, Note_on_c, 1, 67, 110
3, 81750, Note_on_c, 1, 62, 110
3, 81750, Note_on_c, 1, 71, 110
3, 81780, Note_on_c, 1, 71, 0
3, 81780, Note_on_c, 1, 59, 0
3, 81780, Note_on_c, 1, 67, 0
3, 81780, Note_on_c, 1, 62, 0
3, 81840, Note_on_c, 1, 57, 110
3, 81840, Note_on_c, 1, 66, 110
3, 81840, Note_on_c, 1, 62, 110
3, 81840, Note_on_c, 1, 69, 110
3, 81900, Note_on_c, 1, 69, 0
3, 81900, Note_on_c, 1, 57, 0
3, 81900, Note_on_c, 1, 66, 0
3, 81900, Note_on_c, 1, 62, 0
3, 81900, Note_on_c, 1, 60, 110
3, 81900, Note_on_c, 1, 55, 110
3, 81900, Note_on_c, 1, 64, 110
3, 81900, Note_on_c, 1, 67, 110
3, 81930, Note_on_c, 1, 67, 0
3, 81930, Note_on_c, 1, 60, 0
3, 81930, Note_on_c, 1, 55, 0
3, 81930, Note_on_c, 1, 64, 0
3, 82020, Note_on_c, 1, 62, 110
3, 82050, Note_on_c, 1, 62, 0
3, 82050, Note_on_c, 1, 64, 110
3, 82080, Note_on_c, 1, 64, 0
3, 82080, Note_on_c, 1, 55, 110
3, 82080, Note_on_c, 1, 64, 110
3, 82080, Note_on_c, 1, 60, 110
3, 82080, Note_on_c, 1, 67, 110
3, 82200, Note_on_c, 1, 67, 0
3, 82200, Note_on_c, 1, 55, 0
3, 82200, Note_on_c, 1, 64, 0
3, 82200, Note_on_c, 1, 60, 0
3, 82200, Note_on_c, 1, 57, 110
3, 82200, Note_on_c, 1, 66, 110
3, 82200, Note_on_c, 1, 62, 110
3, 82200, Note_on_c, 1, 69, 110
3, 82320, Note_on_c, 1, 69, 0
3, 82320, Note_on_c, 1, 57, 0
3, 82320, Note_on_c, 1, 66, 0
3, 82320, Note_on_c, 1, 62, 0
3, 82320, Note_on_c, 1, 57, 110
3, 82320, Note_on_c, 1, 60, 110
3, 82320, Note_on_c, 1, 64, 110
3, 82350, Note_on_c, 1, 64, 0
3, 82350, Note_on_c, 1, 60, 0
3, 82350, Note_on_c, 1, 57, 0
3, 82380, Note_on_c, 1, 57, 110
3, 82380, Note_on_c, 1, 60, 110
3, 82380, Note_on_c, 1, 64, 110
3, 82410, Note_on_c, 1, 64, 0
3, 82410, Note_on_c, 1, 60, 0
3, 82410, Note_on_c, 1, 57, 0
3, 82440, Note_on_c, 1, 55, 110
3, 82440, Note_on_c, 1, 59, 110
3, 82440, Note_on_c, 1, 62, 110
3, 82560, Note_on_c, 1, 62, 0
3, 82560, Note_on_c, 1, 59, 0
3, 82560, Note_on_c, 1, 55, 0
3, 82620, Note_on_c, 1, 84, 110
3, 82620, Note_on_c, 1, 79, 110
3, 82620, Note_on_c, 1, 91, 110
3, 82620, Note_on_c, 1, 60, 110
3, 82620, Note_on_c, 1, 67, 110
3, 82620, Note_on_c, 1, 64, 110
3, 82620, Note_on_c, 1, 72, 110
3, 82650, Note_on_c, 1, 72, 0
3, 82650, Note_on_c, 1, 67, 0
3, 82650, Note_on_c, 1, 60, 0
3, 82650, Note_on_c, 1, 64, 0
3, 82680, Note_on_c, 1, 84, 0
3, 82680, Note_on_c, 1, 91, 0
3, 82680, Note_on_c, 1, 79, 0
3, 82710, Note_on_c, 1, 59, 110
3, 82710, Note_on_c, 1, 67, 110
3, 82710, Note_on_c, 1, 62, 110
3, 82710, Note_on_c, 1, 71, 110
3, 82740, Note_on_c, 1, 71, 0
3, 82740, Note_on_c, 1, 59, 0
3, 82740, Note_on_c, 1, 67, 0
3, 82740, Note_on_c, 1, 62, 0
3, 82800, Note_on_c, 1, 57, 110
3, 82800, Note_on_c, 1, 66, 110
3, 82800, Note_on_c, 1, 62, 110
3, 82800, Note_on_c, 1, 69, 110
3, 82860, Note_on_c, 1, 69, 0
3, 82860, Note_on_c, 1, 57, 0
3, 82860, Note_on_c, 1, 66, 0
3, 82860, Note_on_c, 1, 62, 0
3, 82860, Note_on_c, 1, 60, 110
3, 82860, Note_on_c, 1, 55, 110
3, 82860, Note_on_c, 1, 64, 110
3, 82860, Note_on_c, 1, 67, 110
3, 82890, Note_on_c, 1, 67, 0
3, 82890, Note_on_c, 1, 60, 0
3, 82890, Note_on_c, 1, 55, 0
3, 82890, Note_on_c, 1, 64, 0
3, 82980, Note_on_c, 1, 62, 110
3, 83010, Note_on_c, 1, 62, 0
3, 83010, Note_on_c, 1, 64, 110
3, 83040, Note_on_c, 1, 64, 0
3, 83040, Note_on_c, 1, 55, 110
3, 83040, Note_on_c, 1, 60, 110
3, 83040, Note_on_c, 1, 64, 110
3, 83040, Note_on_c, 1, 67, 110
3, 83130, Note_on_c, 1, 67, 0
3, 83130, Note_on_c, 1, 55, 0
3, 83130, Note_on_c, 1, 60, 0
3, 83130, Note_on_c, 1, 64, 0
3, 83130, Note_on_c, 1, 55, 110
3, 83130, Note_on_c, 1, 60, 110
3, 83130, Note_on_c, 1, 64, 110
3, 83130, Note_on_c, 1, 67, 110
3, 83220, Note_on_c, 1, 67, 0
3, 83220, Note_on_c, 1, 55, 0
3, 83220, Note_on_c, 1, 60, 0
3, 83220, Note_on_c, 1, 64, 0
3, 83220, Note_on_c, 1, 57, 110
3, 83220, Note_on_c, 1, 62, 110
3, 83220, Note_on_c, 1, 66, 110
3, 83220, Note_on_c, 1, 69, 110
3, 83250, Note_on_c, 1, 69, 0
3, 83250, Note_on_c, 1, 57, 0
3, 83250, Note_on_c, 1, 62, 0
3, 83250, Note_on_c, 1, 66, 0
3, 83340, Note_on_c, 1, 50, 100
3, 83340, Note_on_c, 1, 62, 100
3, 83360, Note_on_c, 1, 62, 0
3, 83360, Note_on_c, 1, 50, 0
3, 83400, Note_on_c, 1, 50, 100
3, 83400, Note_on_c, 1, 62, 100
3, 83450, Note_on_c, 1, 62, 0
3, 83450, Note_on_c, 1, 50, 0
3, 83460, Note_on_c, 1, 52, 100
3, 83460, Note_on_c, 1, 64, 100
3, 83480, Note_on_c, 1, 64, 0
3, 83480, Note_on_c, 1, 52, 0
3, 83490, Note_on_c, 1, 52, 100
3, 83490, Note_on_c, 1, 64, 100
3, 83510, Note_on_c, 1, 64, 0
3, 83510, Note_on_c, 1, 52, 0
3, 83580, Note_on_c, 1, 60, 110
3, 83580, Note_on_c, 1, 67, 110
3, 83580, Note_on_c, 1, 64, 110
3, 83580, Note_on_c, 1, 72, 110
3, 83610, Note_on_c, 1, 72, 0
3, 83610, Note_on_c, 1, 60, 0
3, 83610, Note_on_c, 1, 67, 0
3, 83610, Note_on_c, 1, 64, 0
3, 83670, Note_on_c, 1, 59, 110
3, 83670, Note_on_c, 1, 67, 110
3, 83670, Note_on_c, 1, 62, 110
3, 83670, Note_on_c, 1, 71, 110
3, 83700, Note_on_c, 1, 71, 0
3, 83700, Note_on_c, 1, 59, 0
3, 83700, Note_on_c, 1, 67, 0
3, 83700, Note_on_c, 1, 62, 0
3, 83760, Note_on_c, 1, 57, 110
3, 83760, Note_on_c, 1, 66, 110
3, 83760, Note_on_c, 1, 62, 110
3, 83760, Note_on_c, 1, 69, 110
3, 83820, Note_on_c, 1, 69, 0
3, 83820, Note_on_c, 1, 57, 0
3, 83820, Note_on_c, 1, 66, 0
3, 83820, Note_on_c, 1, 62, 0
3, 83820, Note_on_c, 1, 60, 110
3, 83820, Note_on_c, 1, 55, 110
3, 83820, Note_on_c, 1, 64, 110
3, 83820, Note_on_c, 1, 67, 110
3, 83850, Note_on_c, 1, 67, 0
3, 83850, Note_on_c, 1, 60, 0
3, 83850, Note_on_c, 1, 55, 0
3, 83850, Note_on_c, 1, 64, 0
3, 83940, Note_on_c, 1, 67, 110
3, 83940, Note_on_c, 1, 62, 110
3, 83970, Note_on_c, 1, 62, 0
3, 83970, Note_on_c, 1, 67, 0
3, 83970, Note_on_c, 1, 69, 110
3, 83970, Note_on_c, 1, 64, 110
3, 84000, Note_on_c, 1, 64, 0
3, 84000, Note_on_c, 1, 69, 0
3, 84000, Note_on_c, 1, 67, 110
3, 84000, Note_on_c, 1, 71, 110
3, 84060, Note_on_c, 1, 71, 0
3, 84060, Note_on_c, 1, 67, 0
3, 84060, Note_on_c, 1, 71, 110
3, 84060, Note_on_c, 1, 74, 110
3, 84120, Note_on_c, 1, 74, 0
3, 84120, Note_on_c, 1, 71, 0
3, 84120, Note_on_c, 1, 72, 110
3, 84120, Note_on_c, 1, 76, 110
3, 84180, Note_on_c, 1, 76, 0
3, 84180, Note_on_c, 1, 72, 0
3, 84180, Note_on_c, 1, 74, 110
3, 84180, Note_on_c, 1, 79, 110
3, 84240, Note_on_c, 1, 79, 0
3, 84240, Note_on_c, 1, 74, 0
3, 84240, Note_on_c, 1, 64, 110
3, 84240, Note_on_c, 1, 72, 110
3, 84240, Note_on_c, 1, 76, 110
3, 84240, Note_on_c, 1, 69, 110
3, 84240, Note_on_c, 1, 81, 110
3, 84270, Note_on_c, 1, 81, 0
3, 84270, Note_on_c, 1, 76, 0
3, 84270, Note_on_c, 1, 64, 0
3, 84270, Note_on_c, 1, 72, 0
3, 84270, Note_on_c, 1, 69, 0
3, 84360, Note_on_c, 1, 62, 110
3, 84360, Note_on_c, 1, 71, 110
3, 84360, Note_on_c, 1, 74, 110
3, 84360, Note_on_c, 1, 79, 110
3, 84360, Note_on_c, 1, 67, 110
3, 84480, Note_on_c, 1, 67, 0
3, 84480, Note_on_c, 1, 74, 0
3, 84480, Note_on_c, 1, 62, 0
3, 84480, Note_on_c, 1, 71, 0
3, 84480, Note_on_c, 1, 79, 0
3, 84540, Note_on_c, 1, 76, 110
3, 84540, Note_on_c, 1, 67, 110
3, 84540, Note_on_c, 1, 91, 110
3, 84540, Note_on_c, 1, 84, 110
3, 84540, Note_on_c, 1, 79, 110
3, 84540, Note_on_c, 1, 72, 110
3, 84660, Note_on_c, 1, 72, 0
3, 84660, Note_on_c, 1, 67, 0
3, 84660, Note_on_c, 1, 91, 0
3, 84660, Note_on_c, 1, 76, 0
3, 84660, Note_on_c, 1, 79, 0
3, 84660, Note_on_c, 1, 84, 0
3, 84660, End_track
4, 0, Start_track
4, 0, MIDI_port, 0
4, 0, Title_t, "seguenced by Devian Zikri"
4, 464, Control_c, 0, 0, 0
4, 464, Control_c, 0, 32, 0
4, 464, Program_c, 0, 33
4, 466, Control_c, 0, 121, 0
4, 468, Control_c, 0, 7, 100
4, 470, Control_c, 0, 10, 64
4, 471, Control_c, 0, 91, 20
4, 473, Control_c, 0, 93, 20
4, 7800, Note_on_c, 0, 53, 100
4, 7830, Note_on_c, 0, 53, 0
4, 7830, Note_on_c, 0, 52, 100
4, 7860, Note_on_c, 0, 52, 0
4, 7860, Note_on_c, 0, 50, 100
4, 7890, Note_on_c, 0, 50, 0
4, 7890, Note_on_c, 0, 52, 100
4, 7920, Note_on_c, 0, 52, 0
4, 7920, Note_on_c, 0, 53, 110
4, 8040, Note_on_c, 0, 53, 0
4, 8040, Note_on_c, 0, 52, 110
4, 8160, Note_on_c, 0, 52, 0
4, 8160, Note_on_c, 0, 33, 120
4, 8400, Note_on_c, 0, 33, 0
4, 8400, Note_on_c, 0, 35, 120
4, 8640, Note_on_c, 0, 35, 0
4, 8640, Note_on_c, 0, 36, 120
4, 8880, Note_on_c, 0, 36, 0
4, 8880, Note_on_c, 0, 38, 120
4, 9000, Note_on_c, 0, 38, 0
4, 9000, Note_on_c, 0, 40, 120
4, 9030, Note_on_c, 0, 40, 0
4, 9060, Note_on_c, 0, 43, 120
4, 9090, Note_on_c, 0, 43, 0
4, 9090, Note_on_c, 0, 45, 120
4, 9120, Note_on_c, 0, 45, 0
4, 9120, Note_on_c, 0, 33, 120
4, 9360, Note_on_c, 0, 33, 0
4, 9360, Note_on_c, 0, 35, 120
4, 9540, Note_on_c, 0, 35, 0
4, 9660, Note_on_c, 0, 59, 105
4, 9690, Note_on_c, 0, 59, 0
4, 9690, Note_on_c, 0, 57, 105
4, 9720, Note_on_c, 0, 57, 0
4, 9720, Note_on_c, 0, 55, 105
4, 9750, Note_on_c, 0, 55, 0
4, 9750, Note_on_c, 0, 52, 105
4, 9780, Note_on_c, 0, 52, 0
4, 9780, Note_on_c, 0, 48, 110
4, 9810, Note_on_c, 0, 48, 0
4, 9840, Note_on_c, 0, 29, 120
4, 9870, Note_on_c, 0, 29, 0
4, 9960, Note_on_c, 0, 28, 120
4, 10080, Note_on_c, 0, 28, 0
4, 10080, Note_on_c, 0, 33, 120
4, 10110, Note_on_c, 0, 33, 0
4, 10260, Note_on_c, 0, 33, 120
4, 10290, Note_on_c, 0, 33, 0
4, 10320, Note_on_c, 0, 35, 120
4, 10440, Note_on_c, 0, 35, 0
4, 10500, Note_on_c, 0, 35, 120
4, 10560, Note_on_c, 0, 35, 0
4, 10560, Note_on_c, 0, 36, 120
4, 10600, Note_on_c, 0, 36, 0
4, 10740, Note_on_c, 0, 36, 105
4, 10780, Note_on_c, 0, 36, 0
4, 10800, Note_on_c, 0, 38, 120
4, 10910, Note_on_c, 0, 38, 0
4, 10920, Note_on_c, 0, 38, 110
4, 10950, Note_on_c, 0, 38, 0
4, 10950, Note_on_c, 0, 40, 110
4, 10980, Note_on_c, 0, 40, 0
4, 10980, Note_on_c, 0, 43, 100
4, 11010, Note_on_c, 0, 43, 0
4, 11010, Note_on_c, 0, 45, 110
4, 11040, Note_on_c, 0, 45, 0
4, 11040, Note_on_c, 0, 33, 120
4, 11070, Note_on_c, 0, 33, 0
4, 11220, Note_on_c, 0, 33, 120
4, 11250, Note_on_c, 0, 33, 0
4, 11280, Note_on_c, 0, 35, 120
4, 11310, Note_on_c, 0, 35, 0
4, 11460, Note_on_c, 0, 35, 120
4, 11490, Note_on_c, 0, 35, 0
4, 11520, Note_on_c, 0, 47, 110
4, 11550, Note_on_c, 0, 47, 0
4, 11550, Note_on_c, 0, 43, 110
4, 11580, Note_on_c, 0, 43, 0
4, 11580, Note_on_c, 0, 28, 110
4, 11610, Note_on_c, 0, 28, 0
4, 11610, Note_on_c, 0, 24, 110
4, 11617, Note_on_c, 0, 24, 0
4, 11640, Note_on_c, 0, 36, 110
4, 11700, Note_on_c, 0, 36, 0
4, 11700, Note_on_c, 0, 31, 110
4, 11760, Note_on_c, 0, 31, 0
4, 11760, Note_on_c, 0, 29, 120
4, 11790, Note_on_c, 0, 29, 0
4, 11880, Note_on_c, 0, 28, 120
4, 12000, Note_on_c, 0, 28, 0
4, 12000, Note_on_c, 0, 33, 120
4, 12030, Note_on_c, 0, 33, 0
4, 12180, Note_on_c, 0, 33, 110
4, 12210, Note_on_c, 0, 33, 0
4, 12240, Note_on_c, 0, 35, 120
4, 12330, Note_on_c, 0, 35, 0
4, 12330, Note_on_c, 0, 47, 110
4, 12360, Note_on_c, 0, 47, 0
4, 12420, Note_on_c, 0, 35, 110
4, 12450, Note_on_c, 0, 35, 0
4, 12480, Note_on_c, 0, 36, 120
4, 12510, Note_on_c, 0, 36, 0
4, 12660, Note_on_c, 0, 36, 110
4, 12690, Note_on_c, 0, 36, 0
4, 12720, Note_on_c, 0, 38, 120
4, 12840, Note_on_c, 0, 38, 0
4, 12840, Note_on_c, 0, 38, 110
4, 12870, Note_on_c, 0, 38, 0
4, 12870, Note_on_c, 0, 40, 110
4, 12900, Note_on_c, 0, 40, 0
4, 12900, Note_on_c, 0, 43, 110
4, 12930, Note_on_c, 0, 43, 0
4, 12930, Note_on_c, 0, 45, 110
4, 12960, Note_on_c, 0, 45, 0
4, 12960, Note_on_c, 0, 33, 120
4, 12990, Note_on_c, 0, 33, 0
4, 13140, Note_on_c, 0, 33, 120
4, 13170, Note_on_c, 0, 33, 0
4, 13200, Note_on_c, 0, 35, 120
4, 13290, Note_on_c, 0, 35, 0
4, 13290, Note_on_c, 0, 47, 120
4, 13320, Note_on_c, 0, 47, 0
4, 13410, Note_on_c, 0, 35, 120
4, 13440, Note_on_c, 0, 35, 0
4, 13440, Note_on_c, 0, 36, 120
4, 13500, Note_on_c, 0, 36, 0
4, 13500, Note_on_c, 0, 38, 120
4, 13560, Note_on_c, 0, 38, 0
4, 13560, Note_on_c, 0, 40, 120
4, 13620, Note_on_c, 0, 40, 0
4, 13620, Note_on_c, 0, 43, 120
4, 13680, Note_on_c, 0, 43, 0
4, 13680, Note_on_c, 0, 41, 120
4, 13710, Note_on_c, 0, 41, 0
4, 13800, Note_on_c, 0, 40, 120
4, 13920, Note_on_c, 0, 40, 0
4, 13920, Note_on_c, 0, 39, 120
4, 14160, Note_on_c, 0, 39, 0
4, 14160, Note_on_c, 0, 38, 120
4, 14340, Note_on_c, 0, 31, 120
4, 14370, Note_on_c, 0, 31, 0
4, 14400, Note_on_c, 0, 38, 0
4, 14460, Note_on_c, 0, 31, 120
4, 14620, Note_on_c, 0, 31, 0
4, 14700, Note_on_c, 0, 33, 120
4, 14730, Note_on_c, 0, 33, 0
4, 14820, Note_on_c, 0, 33, 120
4, 14940, Note_on_c, 0, 33, 0
4, 15060, Note_on_c, 0, 33, 120
4, 15120, Note_on_c, 0, 33, 0
4, 15120, Note_on_c, 0, 35, 120
4, 15150, Note_on_c, 0, 35, 0
4, 15300, Note_on_c, 0, 35, 120
4, 15330, Note_on_c, 0, 35, 0
4, 15360, Note_on_c, 0, 36, 120
4, 15390, Note_on_c, 0, 36, 0
4, 15540, Note_on_c, 0, 36, 120
4, 15570, Note_on_c, 0, 36, 0
4, 15600, Note_on_c, 0, 38, 120
4, 15720, Note_on_c, 0, 38, 0
4, 15720, Note_on_c, 0, 38, 120
4, 15750, Note_on_c, 0, 38, 0
4, 15750, Note_on_c, 0, 40, 120
4, 15780, Note_on_c, 0, 40, 0
4, 15780, Note_on_c, 0, 43, 120
4, 15810, Note_on_c, 0, 43, 0
4, 15810, Note_on_c, 0, 45, 120
4, 15840, Note_on_c, 0, 45, 0
4, 15840, Note_on_c, 0, 33, 120
4, 15925, Note_on_c, 0, 33, 0
4, 15930, Note_on_c, 0, 33, 120
4, 15960, Note_on_c, 0, 33, 0
4, 16020, Note_on_c, 0, 33, 120
4, 16050, Note_on_c, 0, 33, 0
4, 16080, Note_on_c, 0, 35, 120
4, 16200, Note_on_c, 0, 35, 0
4, 16320, Note_on_c, 0, 47, 120
4, 16350, Note_on_c, 0, 47, 0
4, 16350, Note_on_c, 0, 43, 120
4, 16380, Note_on_c, 0, 43, 0
4, 16380, Note_on_c, 0, 31, 120
4, 16410, Note_on_c, 0, 31, 0
4, 16410, Note_on_c, 0, 28, 120
4, 16417, Note_on_c, 0, 28, 0
4, 16440, Note_on_c, 0, 35, 120
4, 16500, Note_on_c, 0, 35, 0
4, 16500, Note_on_c, 0, 31, 120
4, 16560, Note_on_c, 0, 31, 0
4, 16560, Note_on_c, 0, 29, 120
4, 16590, Note_on_c, 0, 29, 0
4, 16680, Note_on_c, 0, 28, 120
4, 16800, Note_on_c, 0, 28, 0
4, 16800, Note_on_c, 0, 33, 120
4, 16830, Note_on_c, 0, 33, 0
4, 16980, Note_on_c, 0, 33, 120
4, 17010, Note_on_c, 0, 33, 0
4, 17040, Note_on_c, 0, 35, 120
4, 17160, Note_on_c, 0, 35, 0
4, 17220, Note_on_c, 0, 35, 120
4, 17280, Note_on_c, 0, 35, 0
4, 17280, Note_on_c, 0, 36, 120
4, 17320, Note_on_c, 0, 36, 0
4, 17460, Note_on_c, 0, 36, 105
4, 17500, Note_on_c, 0, 36, 0
4, 17520, Note_on_c, 0, 38, 120
4, 17630, Note_on_c, 0, 38, 0
4, 17640, Note_on_c, 0, 38, 110
4, 17670, Note_on_c, 0, 38, 0
4, 17670, Note_on_c, 0, 40, 110
4, 17700, Note_on_c, 0, 40, 0
4, 17700, Note_on_c, 0, 43, 100
4, 17730, Note_on_c, 0, 43, 0
4, 17730, Note_on_c, 0, 45, 110
4, 17760, Note_on_c, 0, 45, 0
4, 17760, Note_on_c, 0, 33, 120
4, 17790, Note_on_c, 0, 33, 0
4, 17940, Note_on_c, 0, 33, 120
4, 17970, Note_on_c, 0, 33, 0
4, 18000, Note_on_c, 0, 35, 120
4, 18030, Note_on_c, 0, 35, 0
4, 18180, Note_on_c, 0, 35, 120
4, 18210, Note_on_c, 0, 35, 0
4, 18240, Note_on_c, 0, 47, 110
4, 18270, Note_on_c, 0, 47, 0
4, 18270, Note_on_c, 0, 43, 110
4, 18300, Note_on_c, 0, 43, 0
4, 18300, Note_on_c, 0, 28, 110
4, 18330, Note_on_c, 0, 28, 0
4, 18330, Note_on_c, 0, 24, 110
4, 18337, Note_on_c, 0, 24, 0
4, 18360, Note_on_c, 0, 36, 110
4, 18420, Note_on_c, 0, 36, 0
4, 18420, Note_on_c, 0, 31, 110
4, 18480, Note_on_c, 0, 31, 0
4, 18480, Note_on_c, 0, 29, 120
4, 18510, Note_on_c, 0, 29, 0
4, 18600, Note_on_c, 0, 28, 120
4, 18720, Note_on_c, 0, 28, 0
4, 18720, Note_on_c, 0, 33, 120
4, 18750, Note_on_c, 0, 33, 0
4, 18900, Note_on_c, 0, 33, 110
4, 18930, Note_on_c, 0, 33, 0
4, 18960, Note_on_c, 0, 35, 120
4, 19050, Note_on_c, 0, 35, 0
4, 19050, Note_on_c, 0, 47, 110
4, 19080, Note_on_c, 0, 47, 0
4, 19140, Note_on_c, 0, 35, 110
4, 19170, Note_on_c, 0, 35, 0
4, 19200, Note_on_c, 0, 36, 120
4, 19230, Note_on_c, 0, 36, 0
4, 19380, Note_on_c, 0, 36, 110
4, 19410, Note_on_c, 0, 36, 0
4, 19440, Note_on_c, 0, 38, 120
4, 19560, Note_on_c, 0, 38, 0
4, 19560, Note_on_c, 0, 38, 110
4, 19590, Note_on_c, 0, 38, 0
4, 19590, Note_on_c, 0, 40, 110
4, 19620, Note_on_c, 0, 40, 0
4, 19620, Note_on_c, 0, 43, 110
4, 19650, Note_on_c, 0, 43, 0
4, 19650, Note_on_c, 0, 45, 110
4, 19680, Note_on_c, 0, 45, 0
4, 19680, Note_on_c, 0, 33, 120
4, 19710, Note_on_c, 0, 33, 0
4, 19860, Note_on_c, 0, 33, 120
4, 19890, Note_on_c, 0, 33, 0
4, 19920, Note_on_c, 0, 35, 120
4, 20010, Note_on_c, 0, 35, 0
4, 20010, Note_on_c, 0, 47, 120
4, 20040, Note_on_c, 0, 47, 0
4, 20130, Note_on_c, 0, 35, 120
4, 20160, Note_on_c, 0, 35, 0
4, 20160, Note_on_c, 0, 36, 120
4, 20220, Note_on_c, 0, 36, 0
4, 20220, Note_on_c, 0, 38, 120
4, 20280, Note_on_c, 0, 38, 0
4, 20280, Note_on_c, 0, 40, 120
4, 20340, Note_on_c, 0, 40, 0
4, 20340, Note_on_c, 0, 43, 120
4, 20400, Note_on_c, 0, 43, 0
4, 20400, Note_on_c, 0, 41, 120
4, 20430, Note_on_c, 0, 41, 0
4, 20520, Note_on_c, 0, 40, 120
4, 20640, Note_on_c, 0, 40, 0
4, 20640, Note_on_c, 0, 39, 120
4, 20880, Note_on_c, 0, 39, 0
4, 20880, Note_on_c, 0, 38, 120
4, 21060, Note_on_c, 0, 31, 120
4, 21090, Note_on_c, 0, 31, 0
4, 21090, Note_on_c, 0, 38, 0
4, 21180, Note_on_c, 0, 31, 120
4, 21340, Note_on_c, 0, 31, 0
4, 21420, Note_on_c, 0, 33, 120
4, 21450, Note_on_c, 0, 33, 0
4, 21540, Note_on_c, 0, 33, 120
4, 21660, Note_on_c, 0, 33, 0
4, 21780, Note_on_c, 0, 33, 120
4, 21840, Note_on_c, 0, 33, 0
4, 21840, Note_on_c, 0, 35, 120
4, 21870, Note_on_c, 0, 35, 0
4, 22020, Note_on_c, 0, 35, 120
4, 22050, Note_on_c, 0, 35, 0
4, 22080, Note_on_c, 0, 36, 120
4, 22110, Note_on_c, 0, 36, 0
4, 22320, Note_on_c, 0, 37, 120
4, 22560, Note_on_c, 0, 37, 0
4, 22560, Note_on_c, 0, 38, 120
4, 22590, Note_on_c, 0, 38, 0
4, 22740, Note_on_c, 0, 38, 120
4, 22770, Note_on_c, 0, 38, 0
4, 22770, Note_on_c, 0, 35, 120
4, 22800, Note_on_c, 0, 35, 0
4, 22800, Note_on_c, 0, 31, 120
4, 22830, Note_on_c, 0, 31, 0
4, 22980, Note_on_c, 0, 31, 120
4, 23010, Note_on_c, 0, 31, 0
4, 23040, Note_on_c, 0, 36, 120
4, 23070, Note_on_c, 0, 36, 0
4, 23220, Note_on_c, 0, 36, 120
4, 23250, Note_on_c, 0, 36, 0
4, 23250, Note_on_c, 0, 36, 120
4, 23260, Note_on_c, 0, 36, 0
4, 23280, Note_on_c, 0, 35, 120
4, 23310, Note_on_c, 0, 35, 0
4, 23460, Note_on_c, 0, 40, 120
4, 23490, Note_on_c, 0, 40, 0
4, 23580, Note_on_c, 0, 33, 120
4, 23610, Note_on_c, 0, 33, 0
4, 23700, Note_on_c, 0, 38, 120
4, 23730, Note_on_c, 0, 38, 0
4, 23820, Note_on_c, 0, 31, 120
4, 23850, Note_on_c, 0, 31, 0
4, 23940, Note_on_c, 0, 36, 120
4, 24000, Note_on_c, 0, 36, 0
4, 24180, Note_on_c, 0, 36, 120
4, 24210, Note_on_c, 0, 36, 0
4, 24210, Note_on_c, 0, 36, 120
4, 24240, Note_on_c, 0, 36, 0
4, 24240, Note_on_c, 0, 35, 120
4, 24270, Note_on_c, 0, 35, 0
4, 24420, Note_on_c, 0, 40, 120
4, 24450, Note_on_c, 0, 40, 0
4, 24660, Note_on_c, 0, 28, 120
4, 24690, Note_on_c, 0, 28, 0
4, 24720, Note_on_c, 0, 33, 120
4, 24750, Note_on_c, 0, 33, 0
4, 24900, Note_on_c, 0, 38, 120
4, 24930, Note_on_c, 0, 38, 0
4, 25020, Note_on_c, 0, 31, 120
4, 25050, Note_on_c, 0, 31, 0
4, 25140, Note_on_c, 0, 36, 120
4, 25170, Note_on_c, 0, 36, 0
4, 25260, Note_on_c, 0, 35, 120
4, 25290, Note_on_c, 0, 35, 0
4, 25380, Note_on_c, 0, 40, 120
4, 25410, Note_on_c, 0, 40, 0
4, 25620, Note_on_c, 0, 28, 120
4, 25650, Note_on_c, 0, 28, 0
4, 25650, Note_on_c, 0, 31, 120
4, 25680, Note_on_c, 0, 31, 0
4, 25680, Note_on_c, 0, 33, 120
4, 25710, Note_on_c, 0, 33, 0
4, 25860, Note_on_c, 0, 38, 120
4, 25890, Note_on_c, 0, 38, 0
4, 26040, Note_on_c, 0, 33, 120
4, 26100, Note_on_c, 0, 33, 0
4, 26100, Note_on_c, 0, 32, 120
4, 26160, Note_on_c, 0, 32, 0
4, 26160, Note_on_c, 0, 31, 120
4, 26220, Note_on_c, 0, 31, 0
4, 26340, Note_on_c, 0, 30, 120
4, 26370, Note_on_c, 0, 30, 0
4, 26460, Note_on_c, 0, 35, 120
4, 26490, Note_on_c, 0, 35, 0
4, 26580, Note_on_c, 0, 40, 120
4, 26610, Note_on_c, 0, 40, 0
4, 26700, Note_on_c, 0, 33, 120
4, 26730, Note_on_c, 0, 33, 0
4, 26820, Note_on_c, 0, 38, 120
4, 26850, Note_on_c, 0, 38, 0
4, 26940, Note_on_c, 0, 33, 120
4, 26970, Note_on_c, 0, 33, 0
4, 27060, Note_on_c, 0, 31, 120
4, 27090, Note_on_c, 0, 31, 0
4, 27180, Note_on_c, 0, 30, 120
4, 27240, Note_on_c, 0, 30, 0
4, 27240, Note_on_c, 0, 31, 120
4, 27300, Note_on_c, 0, 31, 0
4, 27300, Note_on_c, 0, 35, 120
4, 27360, Note_on_c, 0, 35, 0
4, 27360, Note_on_c, 0, 36, 120
4, 27600, Note_on_c, 0, 36, 0
4, 27600, Note_on_c, 0, 35, 120
4, 27660, Note_on_c, 0, 35, 0
4, 27780, Note_on_c, 0, 34, 120
4, 28620, Note_on_c, 0, 34, 0
4, 28800, Note_on_c, 0, 28, 120
4, 29040, Note_on_c, 0, 28, 0
4, 29040, Note_on_c, 0, 30, 120
4, 29220, Note_on_c, 0, 30, 0
4, 29220, Note_on_c, 0, 31, 120
4, 29310, Note_on_c, 0, 31, 0
4, 29400, Note_on_c, 0, 36, 120
4, 29560, Note_on_c, 0, 36, 0
4, 29640, Note_on_c, 0, 35, 120
4, 29755, Note_on_c, 0, 35, 0
4, 29760, Note_on_c, 0, 34, 120
4, 29940, Note_on_c, 0, 34, 0
4, 29940, Note_on_c, 0, 38, 120
4, 30000, Note_on_c, 0, 38, 0
4, 30000, Note_on_c, 0, 39, 120
4, 30120, Note_on_c, 0, 39, 0
4, 30180, Note_on_c, 0, 33, 120
4, 30270, Note_on_c, 0, 33, 0
4, 30360, Note_on_c, 0, 38, 120
4, 30535, Note_on_c, 0, 38, 0
4, 30540, Note_on_c, 0, 39, 120
4, 30720, Note_on_c, 0, 39, 0
4, 30720, Note_on_c, 0, 28, 120
4, 30960, Note_on_c, 0, 28, 0
4, 30960, Note_on_c, 0, 30, 120
4, 31140, Note_on_c, 0, 30, 0
4, 31140, Note_on_c, 0, 31, 120
4, 31230, Note_on_c, 0, 31, 0
4, 31320, Note_on_c, 0, 36, 120
4, 31480, Note_on_c, 0, 36, 0
4, 31560, Note_on_c, 0, 35, 120
4, 31675, Note_on_c, 0, 35, 0
4, 31680, Note_on_c, 0, 34, 120
4, 31860, Note_on_c, 0, 34, 0
4, 31860, Note_on_c, 0, 38, 120
4, 31920, Note_on_c, 0, 38, 0
4, 31920, Note_on_c, 0, 39, 120
4, 32040, Note_on_c, 0, 39, 0
4, 32100, Note_on_c, 0, 33, 120
4, 32190, Note_on_c, 0, 33, 0
4, 32280, Note_on_c, 0, 38, 120
4, 32460, Note_on_c, 0, 38, 0
4, 32460, Note_on_c, 0, 37, 120
4, 32640, Note_on_c, 0, 37, 0
4, 32640, Note_on_c, 0, 36, 120
4, 32760, Note_on_c, 0, 36, 0
4, 32760, Note_on_c, 0, 31, 120
4, 32820, Note_on_c, 0, 31, 0
4, 32820, Note_on_c, 0, 29, 120
4, 32880, Note_on_c, 0, 29, 0
4, 32940, Note_on_c, 0, 31, 120
4, 33000, Note_on_c, 0, 31, 0
4, 33000, Note_on_c, 0, 32, 120
4, 33060, Note_on_c, 0, 32, 0
4, 33060, Note_on_c, 0, 33, 120
4, 33180, Note_on_c, 0, 33, 0
4, 33180, Note_on_c, 0, 37, 120
4, 33240, Note_on_c, 0, 37, 0
4, 33240, Note_on_c, 0, 38, 120
4, 33480, Note_on_c, 0, 38, 0
4, 33480, Note_on_c, 0, 38, 120
4, 33540, Note_on_c, 0, 38, 0
4, 33540, Note_on_c, 0, 33, 120
4, 33600, Note_on_c, 0, 33, 0
4, 33600, Note_on_c, 0, 31, 120
4, 33720, Note_on_c, 0, 31, 0
4, 33720, Note_on_c, 0, 38, 120
4, 33780, Note_on_c, 0, 38, 0
4, 33780, Note_on_c, 0, 36, 120
4, 33940, Note_on_c, 0, 36, 0
4, 33960, Note_on_c, 0, 39, 120
4, 34020, Note_on_c, 0, 39, 0
4, 34020, Note_on_c, 0, 40, 120
4, 34130, Note_on_c, 0, 40, 0
4, 34140, Note_on_c, 0, 47, 120
4, 34200, Note_on_c, 0, 47, 0
4, 34200, Note_on_c, 0, 45, 120
4, 34440, Note_on_c, 0, 45, 0
4, 34440, Note_on_c, 0, 33, 120
4, 34560, Note_on_c, 0, 33, 0
4, 34560, Note_on_c, 0, 36, 120
4, 34680, Note_on_c, 0, 36, 0
4, 34680, Note_on_c, 0, 31, 120
4, 34740, Note_on_c, 0, 31, 0
4, 34740, Note_on_c, 0, 29, 120
4, 34800, Note_on_c, 0, 29, 0
4, 34860, Note_on_c, 0, 31, 120
4, 34920, Note_on_c, 0, 31, 0
4, 34920, Note_on_c, 0, 32, 120
4, 34980, Note_on_c, 0, 32, 0
4, 34980, Note_on_c, 0, 33, 120
4, 35100, Note_on_c, 0, 33, 0
4, 35100, Note_on_c, 0, 37, 120
4, 35160, Note_on_c, 0, 37, 0
4, 35160, Note_on_c, 0, 38, 120
4, 35520, Note_on_c, 0, 38, 0
4, 35520, Note_on_c, 0, 43, 120
4, 35700, Note_on_c, 0, 43, 0
4, 35700, Note_on_c, 0, 48, 120
4, 35880, Note_on_c, 0, 48, 0
4, 36000, Note_on_c, 0, 41, 120
4, 36120, Note_on_c, 0, 41, 0
4, 36120, Note_on_c, 0, 48, 120
4, 36180, Note_on_c, 0, 48, 0
4, 36180, Note_on_c, 0, 46, 120
4, 36360, Note_on_c, 0, 46, 0
4, 36480, Note_on_c, 0, 39, 120
4, 36660, Note_on_c, 0, 39, 0
4, 36660, Note_on_c, 0, 44, 120
4, 36780, Note_on_c, 0, 44, 0
4, 36780, Note_on_c, 0, 51, 120
4, 36840, Note_on_c, 0, 51, 0
4, 36840, Note_on_c, 0, 50, 120
4, 37410, Note_on_c, 0, 50, 0
4, 37440, Note_on_c, 0, 62, 80
4, 37920, Note_on_c, 0, 62, 0
4, 38400, Note_on_c, 0, 33, 120
4, 38640, Note_on_c, 0, 33, 0
4, 38640, Note_on_c, 0, 35, 120
4, 38880, Note_on_c, 0, 35, 0
4, 38880, Note_on_c, 0, 36, 120
4, 39120, Note_on_c, 0, 36, 0
4, 39120, Note_on_c, 0, 38, 120
4, 39240, Note_on_c, 0, 38, 0
4, 39240, Note_on_c, 0, 40, 120
4, 39270, Note_on_c, 0, 40, 0
4, 39300, Note_on_c, 0, 43, 120
4, 39330, Note_on_c, 0, 43, 0
4, 39330, Note_on_c, 0, 45, 120
4, 39360, Note_on_c, 0, 45, 0
4, 39360, Note_on_c, 0, 33, 120
4, 39600, Note_on_c, 0, 33, 0
4, 39600, Note_on_c, 0, 35, 120
4, 39840, Note_on_c, 0, 35, 0
4, 39900, Note_on_c, 0, 59, 105
4, 39930, Note_on_c, 0, 59, 0
4, 39930, Note_on_c, 0, 57, 105
4, 39960, Note_on_c, 0, 57, 0
4, 39960, Note_on_c, 0, 55, 105
4, 39990, Note_on_c, 0, 55, 0
4, 39990, Note_on_c, 0, 52, 105
4, 40020, Note_on_c, 0, 52, 0
4, 40020, Note_on_c, 0, 48, 110
4, 40050, Note_on_c, 0, 48, 0
4, 40080, Note_on_c, 0, 29, 120
4, 40110, Note_on_c, 0, 29, 0
4, 40200, Note_on_c, 0, 28, 120
4, 40320, Note_on_c, 0, 28, 0
4, 40320, Note_on_c, 0, 33, 120
4, 40350, Note_on_c, 0, 33, 0
4, 40500, Note_on_c, 0, 33, 120
4, 40530, Note_on_c, 0, 33, 0
4, 40560, Note_on_c, 0, 35, 120
4, 40590, Note_on_c, 0, 35, 0
4, 40740, Note_on_c, 0, 35, 120
4, 40770, Note_on_c, 0, 35, 0
4, 40800, Note_on_c, 0, 36, 120
4, 40840, Note_on_c, 0, 36, 0
4, 40980, Note_on_c, 0, 36, 105
4, 41020, Note_on_c, 0, 36, 0
4, 41040, Note_on_c, 0, 38, 120
4, 41070, Note_on_c, 0, 38, 0
4, 41160, Note_on_c, 0, 40, 110
4, 41220, Note_on_c, 0, 40, 0
4, 41220, Note_on_c, 0, 43, 110
4, 41280, Note_on_c, 0, 43, 0
4, 41280, Note_on_c, 0, 33, 120
4, 41310, Note_on_c, 0, 33, 0
4, 41460, Note_on_c, 0, 33, 120
4, 41490, Note_on_c, 0, 33, 0
4, 41520, Note_on_c, 0, 35, 120
4, 41550, Note_on_c, 0, 35, 0
4, 41700, Note_on_c, 0, 35, 120
4, 41730, Note_on_c, 0, 35, 0
4, 41760, Note_on_c, 0, 36, 110
4, 41790, Note_on_c, 0, 36, 0
4, 41820, Note_on_c, 0, 31, 110
4, 41850, Note_on_c, 0, 31, 0
4, 41850, Note_on_c, 0, 31, 110
4, 41857, Note_on_c, 0, 31, 0
4, 41880, Note_on_c, 0, 36, 110
4, 41940, Note_on_c, 0, 36, 0
4, 41940, Note_on_c, 0, 31, 110
4, 42000, Note_on_c, 0, 31, 0
4, 42000, Note_on_c, 0, 29, 120
4, 42030, Note_on_c, 0, 29, 0
4, 42120, Note_on_c, 0, 28, 120
4, 42240, Note_on_c, 0, 28, 0
4, 42240, Note_on_c, 0, 33, 120
4, 42270, Note_on_c, 0, 33, 0
4, 42420, Note_on_c, 0, 33, 120
4, 42450, Note_on_c, 0, 33, 0
4, 42480, Note_on_c, 0, 35, 120
4, 42510, Note_on_c, 0, 35, 0
4, 42660, Note_on_c, 0, 35, 120
4, 42690, Note_on_c, 0, 35, 0
4, 42720, Note_on_c, 0, 36, 120
4, 42760, Note_on_c, 0, 36, 0
4, 42900, Note_on_c, 0, 36, 105
4, 42940, Note_on_c, 0, 36, 0
4, 42960, Note_on_c, 0, 38, 120
4, 42990, Note_on_c, 0, 38, 0
4, 43080, Note_on_c, 0, 40, 110
4, 43140, Note_on_c, 0, 40, 0
4, 43140, Note_on_c, 0, 43, 110
4, 43200, Note_on_c, 0, 43, 0
4, 43200, Note_on_c, 0, 33, 120
4, 43230, Note_on_c, 0, 33, 0
4, 43380, Note_on_c, 0, 33, 120
4, 43410, Note_on_c, 0, 33, 0
4, 43440, Note_on_c, 0, 35, 120
4, 43470, Note_on_c, 0, 35, 0
4, 43620, Note_on_c, 0, 35, 120
4, 43650, Note_on_c, 0, 35, 0
4, 43680, Note_on_c, 0, 36, 110
4, 43710, Note_on_c, 0, 36, 0
4, 43740, Note_on_c, 0, 43, 110
4, 43750, Note_on_c, 0, 43, 0
4, 43770, Note_on_c, 0, 31, 110
4, 43777, Note_on_c, 0, 31, 0
4, 43800, Note_on_c, 0, 36, 110
4, 43860, Note_on_c, 0, 36, 0
4, 43860, Note_on_c, 0, 31, 110
4, 43920, Note_on_c, 0, 31, 0
4, 43920, Note_on_c, 0, 29, 120
4, 43950, Note_on_c, 0, 29, 0
4, 44040, Note_on_c, 0, 28, 120
4, 44160, Note_on_c, 0, 28, 0
4, 44160, Note_on_c, 0, 33, 120
4, 44190, Note_on_c, 0, 33, 0
4, 44340, Note_on_c, 0, 33, 120
4, 44370, Note_on_c, 0, 33, 0
4, 44400, Note_on_c, 0, 35, 120
4, 44430, Note_on_c, 0, 35, 0
4, 44580, Note_on_c, 0, 35, 120
4, 44610, Note_on_c, 0, 35, 0
4, 44640, Note_on_c, 0, 36, 120
4, 44680, Note_on_c, 0, 36, 0
4, 44730, Note_on_c, 0, 36, 120
4, 44770, Note_on_c, 0, 36, 0
4, 44820, Note_on_c, 0, 36, 105
4, 44860, Note_on_c, 0, 36, 0
4, 44880, Note_on_c, 0, 38, 120
4, 44910, Note_on_c, 0, 38, 0
4, 45000, Note_on_c, 0, 40, 110
4, 45060, Note_on_c, 0, 40, 0
4, 45060, Note_on_c, 0, 43, 110
4, 45120, Note_on_c, 0, 43, 0
4, 45120, Note_on_c, 0, 33, 120
4, 45150, Note_on_c, 0, 33, 0
4, 45300, Note_on_c, 0, 33, 120
4, 45330, Note_on_c, 0, 33, 0
4, 45360, Note_on_c, 0, 35, 120
4, 45390, Note_on_c, 0, 35, 0
4, 45540, Note_on_c, 0, 35, 120
4, 45570, Note_on_c, 0, 35, 0
4, 45600, Note_on_c, 0, 36, 110
4, 45630, Note_on_c, 0, 36, 0
4, 45660, Note_on_c, 0, 31, 110
4, 45690, Note_on_c, 0, 31, 0
4, 45690, Note_on_c, 0, 31, 110
4, 45697, Note_on_c, 0, 31, 0
4, 45720, Note_on_c, 0, 36, 110
4, 45780, Note_on_c, 0, 36, 0
4, 45780, Note_on_c, 0, 31, 110
4, 45840, Note_on_c, 0, 31, 0
4, 45840, Note_on_c, 0, 29, 120
4, 45870, Note_on_c, 0, 29, 0
4, 45960, Note_on_c, 0, 28, 120
4, 46080, Note_on_c, 0, 28, 0
4, 46081, Note_on_c, 0, 33, 120
4, 46111, Note_on_c, 0, 33, 0
4, 46261, Note_on_c, 0, 33, 120
4, 46291, Note_on_c, 0, 33, 0
4, 46321, Note_on_c, 0, 35, 120
4, 46351, Note_on_c, 0, 35, 0
4, 46501, Note_on_c, 0, 35, 120
4, 46531, Note_on_c, 0, 35, 0
4, 46561, Note_on_c, 0, 36, 120
4, 46601, Note_on_c, 0, 36, 0
4, 46741, Note_on_c, 0, 36, 105
4, 46781, Note_on_c, 0, 36, 0
4, 46801, Note_on_c, 0, 38, 120
4, 46831, Note_on_c, 0, 38, 0
4, 46921, Note_on_c, 0, 40, 110
4, 46981, Note_on_c, 0, 40, 0
4, 46981, Note_on_c, 0, 43, 110
4, 47041, Note_on_c, 0, 43, 0
4, 47041, Note_on_c, 0, 33, 120
4, 47071, Note_on_c, 0, 33, 0
4, 47221, Note_on_c, 0, 33, 120
4, 47251, Note_on_c, 0, 33, 0
4, 47281, Note_on_c, 0, 35, 120
4, 47311, Note_on_c, 0, 35, 0
4, 47461, Note_on_c, 0, 35, 120
4, 47491, Note_on_c, 0, 35, 0
4, 47520, Note_on_c, 0, 36, 110
4, 47580, Note_on_c, 0, 36, 0
4, 47580, Note_on_c, 0, 43, 110
4, 47640, Note_on_c, 0, 43, 0
4, 47641, Note_on_c, 0, 36, 110
4, 47701, Note_on_c, 0, 36, 0
4, 47701, Note_on_c, 0, 31, 110
4, 47761, Note_on_c, 0, 31, 0
4, 47761, Note_on_c, 0, 29, 120
4, 47791, Note_on_c, 0, 29, 0
4, 47881, Note_on_c, 0, 28, 120
4, 48001, Note_on_c, 0, 28, 0
4, 48001, Note_on_c, 0, 33, 120
4, 48031, Note_on_c, 0, 33, 0
4, 48181, Note_on_c, 0, 33, 120
4, 48211, Note_on_c, 0, 33, 0
4, 48241, Note_on_c, 0, 35, 120
4, 48271, Note_on_c, 0, 35, 0
4, 48421, Note_on_c, 0, 35, 120
4, 48451, Note_on_c, 0, 35, 0
4, 48481, Note_on_c, 0, 36, 120
4, 48521, Note_on_c, 0, 36, 0
4, 48661, Note_on_c, 0, 36, 105
4, 48701, Note_on_c, 0, 36, 0
4, 48721, Note_on_c, 0, 38, 120
4, 48751, Note_on_c, 0, 38, 0
4, 48841, Note_on_c, 0, 40, 110
4, 48901, Note_on_c, 0, 40, 0
4, 48901, Note_on_c, 0, 43, 110
4, 48961, Note_on_c, 0, 43, 0
4, 48961, Note_on_c, 0, 33, 120
4, 48991, Note_on_c, 0, 33, 0
4, 49141, Note_on_c, 0, 33, 120
4, 49171, Note_on_c, 0, 33, 0
4, 49201, Note_on_c, 0, 35, 120
4, 49231, Note_on_c, 0, 35, 0
4, 49381, Note_on_c, 0, 35, 120
4, 49411, Note_on_c, 0, 35, 0
4, 49441, Note_on_c, 0, 36, 110
4, 49471, Note_on_c, 0, 36, 0
4, 49501, Note_on_c, 0, 31, 110
4, 49531, Note_on_c, 0, 31, 0
4, 49531, Note_on_c, 0, 31, 110
4, 49538, Note_on_c, 0, 31, 0
4, 49561, Note_on_c, 0, 36, 110
4, 49621, Note_on_c, 0, 36, 0
4, 49621, Note_on_c, 0, 31, 110
4, 49681, Note_on_c, 0, 31, 0
4, 49681, Note_on_c, 0, 29, 120
4, 49711, Note_on_c, 0, 29, 0
4, 49801, Note_on_c, 0, 28, 120
4, 49921, Note_on_c, 0, 28, 0
4, 49921, Note_on_c, 0, 33, 120
4, 49951, Note_on_c, 0, 33, 0
4, 50101, Note_on_c, 0, 33, 120
4, 50131, Note_on_c, 0, 33, 0
4, 50161, Note_on_c, 0, 35, 120
4, 50191, Note_on_c, 0, 35, 0
4, 50341, Note_on_c, 0, 35, 120
4, 50371, Note_on_c, 0, 35, 0
4, 50401, Note_on_c, 0, 36, 120
4, 50441, Note_on_c, 0, 36, 0
4, 50581, Note_on_c, 0, 36, 105
4, 50621, Note_on_c, 0, 36, 0
4, 50641, Note_on_c, 0, 38, 120
4, 50671, Note_on_c, 0, 38, 0
4, 50761, Note_on_c, 0, 40, 110
4, 50821, Note_on_c, 0, 40, 0
4, 50821, Note_on_c, 0, 43, 110
4, 50881, Note_on_c, 0, 43, 0
4, 50881, Note_on_c, 0, 33, 120
4, 50911, Note_on_c, 0, 33, 0
4, 51061, Note_on_c, 0, 33, 120
4, 51091, Note_on_c, 0, 33, 0
4, 51121, Note_on_c, 0, 35, 120
4, 51151, Note_on_c, 0, 35, 0
4, 51301, Note_on_c, 0, 35, 120
4, 51331, Note_on_c, 0, 35, 0
4, 51361, Note_on_c, 0, 36, 110
4, 51391, Note_on_c, 0, 36, 0
4, 51421, Note_on_c, 0, 43, 110
4, 51431, Note_on_c, 0, 43, 0
4, 51451, Note_on_c, 0, 31, 110
4, 51458, Note_on_c, 0, 31, 0
4, 51481, Note_on_c, 0, 36, 110
4, 51541, Note_on_c, 0, 36, 0
4, 51541, Note_on_c, 0, 31, 110
4, 51601, Note_on_c, 0, 31, 0
4, 51601, Note_on_c, 0, 29, 120
4, 51631, Note_on_c, 0, 29, 0
4, 51721, Note_on_c, 0, 28, 120
4, 51841, Note_on_c, 0, 28, 0
4, 51841, Note_on_c, 0, 33, 120
4, 51871, Note_on_c, 0, 33, 0
4, 52021, Note_on_c, 0, 33, 120
4, 52051, Note_on_c, 0, 33, 0
4, 52081, Note_on_c, 0, 35, 120
4, 52111, Note_on_c, 0, 35, 0
4, 52261, Note_on_c, 0, 35, 120
4, 52291, Note_on_c, 0, 35, 0
4, 52321, Note_on_c, 0, 36, 120
4, 52361, Note_on_c, 0, 36, 0
4, 52411, Note_on_c, 0, 36, 120
4, 52451, Note_on_c, 0, 36, 0
4, 52501, Note_on_c, 0, 36, 105
4, 52541, Note_on_c, 0, 36, 0
4, 52561, Note_on_c, 0, 38, 120
4, 52591, Note_on_c, 0, 38, 0
4, 52681, Note_on_c, 0, 40, 110
4, 52741, Note_on_c, 0, 40, 0
4, 52741, Note_on_c, 0, 43, 110
4, 52801, Note_on_c, 0, 43, 0
4, 52801, Note_on_c, 0, 33, 120
4, 52831, Note_on_c, 0, 33, 0
4, 52981, Note_on_c, 0, 33, 120
4, 53011, Note_on_c, 0, 33, 0
4, 53041, Note_on_c, 0, 35, 120
4, 53071, Note_on_c, 0, 35, 0
4, 53221, Note_on_c, 0, 35, 120
4, 53251, Note_on_c, 0, 35, 0
4, 53281, Note_on_c, 0, 36, 110
4, 53311, Note_on_c, 0, 36, 0
4, 53341, Note_on_c, 0, 31, 110
4, 53371, Note_on_c, 0, 31, 0
4, 53371, Note_on_c, 0, 31, 110
4, 53378, Note_on_c, 0, 31, 0
4, 53401, Note_on_c, 0, 36, 110
4, 53461, Note_on_c, 0, 36, 0
4, 53461, Note_on_c, 0, 31, 110
4, 53521, Note_on_c, 0, 31, 0
4, 53521, Note_on_c, 0, 29, 120
4, 53551, Note_on_c, 0, 29, 0
4, 53641, Note_on_c, 0, 28, 120
4, 53761, Note_on_c, 0, 28, 0
4, 53762, Note_on_c, 0, 33, 120
4, 53792, Note_on_c, 0, 33, 0
4, 53942, Note_on_c, 0, 33, 120
4, 53972, Note_on_c, 0, 33, 0
4, 54002, Note_on_c, 0, 35, 120
4, 54032, Note_on_c, 0, 35, 0
4, 54182, Note_on_c, 0, 35, 120
4, 54212, Note_on_c, 0, 35, 0
4, 54242, Note_on_c, 0, 36, 120
4, 54282, Note_on_c, 0, 36, 0
4, 54330, Note_on_c, 0, 36, 120
4, 54370, Note_on_c, 0, 36, 0
4, 54422, Note_on_c, 0, 36, 105
4, 54462, Note_on_c, 0, 36, 0
4, 54482, Note_on_c, 0, 38, 120
4, 54512, Note_on_c, 0, 38, 0
4, 54602, Note_on_c, 0, 40, 110
4, 54662, Note_on_c, 0, 40, 0
4, 54662, Note_on_c, 0, 43, 110
4, 54722, Note_on_c, 0, 43, 0
4, 54722, Note_on_c, 0, 33, 120
4, 54752, Note_on_c, 0, 33, 0
4, 54902, Note_on_c, 0, 33, 120
4, 54932, Note_on_c, 0, 33, 0
4, 54962, Note_on_c, 0, 35, 120
4, 54992, Note_on_c, 0, 35, 0
4, 55142, Note_on_c, 0, 35, 120
4, 55172, Note_on_c, 0, 35, 0
4, 55200, Note_on_c, 0, 36, 110
4, 55260, Note_on_c, 0, 36, 0
4, 55260, Note_on_c, 0, 38, 110
4, 55320, Note_on_c, 0, 38, 0
4, 55320, Note_on_c, 0, 40, 110
4, 55380, Note_on_c, 0, 40, 0
4, 55380, Note_on_c, 0, 43, 110
4, 55440, Note_on_c, 0, 43, 0
4, 55440, Note_on_c, 0, 41, 120
4, 55470, Note_on_c, 0, 41, 0
4, 55560, Note_on_c, 0, 40, 120
4, 55680, Note_on_c, 0, 40, 0
4, 55680, Note_on_c, 0, 39, 120
4, 55920, Note_on_c, 0, 39, 0
4, 55920, Note_on_c, 0, 38, 120
4, 56100, Note_on_c, 0, 31, 120
4, 56130, Note_on_c, 0, 31, 0
4, 56130, Note_on_c, 0, 38, 0
4, 56220, Note_on_c, 0, 31, 120
4, 56380, Note_on_c, 0, 31, 0
4, 56460, Note_on_c, 0, 33, 120
4, 56490, Note_on_c, 0, 33, 0
4, 56580, Note_on_c, 0, 33, 120
4, 56700, Note_on_c, 0, 33, 0
4, 56820, Note_on_c, 0, 33, 120
4, 56880, Note_on_c, 0, 33, 0
4, 56880, Note_on_c, 0, 35, 120
4, 56910, Note_on_c, 0, 35, 0
4, 57060, Note_on_c, 0, 35, 120
4, 57090, Note_on_c, 0, 35, 0
4, 57120, Note_on_c, 0, 36, 120
4, 57150, Note_on_c, 0, 36, 0
4, 57360, Note_on_c, 0, 37, 120
4, 57600, Note_on_c, 0, 37, 0
4, 57600, Note_on_c, 0, 38, 120
4, 57630, Note_on_c, 0, 38, 0
4, 57780, Note_on_c, 0, 38, 120
4, 57810, Note_on_c, 0, 38, 0
4, 57810, Note_on_c, 0, 35, 120
4, 57840, Note_on_c, 0, 35, 0
4, 57840, Note_on_c, 0, 31, 120
4, 57870, Note_on_c, 0, 31, 0
4, 58020, Note_on_c, 0, 31, 120
4, 58050, Note_on_c, 0, 31, 0
4, 58080, Note_on_c, 0, 36, 120
4, 58110, Note_on_c, 0, 36, 0
4, 58260, Note_on_c, 0, 36, 120
4, 58290, Note_on_c, 0, 36, 0
4, 58290, Note_on_c, 0, 36, 120
4, 58300, Note_on_c, 0, 36, 0
4, 58320, Note_on_c, 0, 35, 120
4, 58350, Note_on_c, 0, 35, 0
4, 58380, Note_on_c, 0, 33, 120
4, 58410, Note_on_c, 0, 33, 0
4, 58440, Note_on_c, 0, 35, 120
4, 58470, Note_on_c, 0, 35, 0
4, 58530, Note_on_c, 0, 39, 120
4, 58560, Note_on_c, 0, 39, 0
4, 58560, Note_on_c, 0, 40, 120
4, 58590, Note_on_c, 0, 40, 0
4, 58770, Note_on_c, 0, 31, 120
4, 58800, Note_on_c, 0, 31, 0
4, 58800, Note_on_c, 0, 33, 120
4, 58830, Note_on_c, 0, 33, 0
4, 58860, Note_on_c, 0, 33, 120
4, 58890, Note_on_c, 0, 33, 0
4, 58920, Note_on_c, 0, 33, 120
4, 58950, Note_on_c, 0, 33, 0
4, 58980, Note_on_c, 0, 33, 120
4, 59040, Note_on_c, 0, 33, 0
4, 59040, Note_on_c, 0, 38, 120
4, 59070, Note_on_c, 0, 38, 0
4, 59250, Note_on_c, 0, 29, 120
4, 59280, Note_on_c, 0, 29, 0
4, 59280, Note_on_c, 0, 31, 120
4, 59310, Note_on_c, 0, 31, 0
4, 59340, Note_on_c, 0, 31, 120
4, 59370, Note_on_c, 0, 31, 0
4, 59400, Note_on_c, 0, 32, 120
4, 59430, Note_on_c, 0, 32, 0
4, 59460, Note_on_c, 0, 35, 120
4, 59520, Note_on_c, 0, 35, 0
4, 59520, Note_on_c, 0, 36, 120
4, 59550, Note_on_c, 0, 36, 0
4, 59730, Note_on_c, 0, 33, 120
4, 59760, Note_on_c, 0, 33, 0
4, 59760, Note_on_c, 0, 35, 120
4, 59790, Note_on_c, 0, 35, 0
4, 59820, Note_on_c, 0, 34, 120
4, 59850, Note_on_c, 0, 34, 0
4, 59880, Note_on_c, 0, 35, 120
4, 59940, Note_on_c, 0, 35, 0
4, 59970, Note_on_c, 0, 39, 120
4, 60000, Note_on_c, 0, 39, 0
4, 60000, Note_on_c, 0, 40, 120
4, 60030, Note_on_c, 0, 40, 0
4, 60240, Note_on_c, 0, 33, 120
4, 60270, Note_on_c, 0, 33, 0
4, 60300, Note_on_c, 0, 33, 120
4, 60330, Note_on_c, 0, 33, 0
4, 60360, Note_on_c, 0, 33, 120
4, 60390, Note_on_c, 0, 33, 0
4, 60420, Note_on_c, 0, 37, 120
4, 60480, Note_on_c, 0, 37, 0
4, 60480, Note_on_c, 0, 38, 120
4, 60510, Note_on_c, 0, 38, 0
4, 60690, Note_on_c, 0, 30, 120
4, 60720, Note_on_c, 0, 30, 0
4, 60720, Note_on_c, 0, 31, 120
4, 60750, Note_on_c, 0, 31, 0
4, 60840, Note_on_c, 0, 31, 120
4, 60900, Note_on_c, 0, 31, 0
4, 60900, Note_on_c, 0, 35, 120
4, 60960, Note_on_c, 0, 35, 0
4, 60960, Note_on_c, 0, 36, 120
4, 60990, Note_on_c, 0, 36, 0
4, 61020, Note_on_c, 0, 36, 120
4, 61050, Note_on_c, 0, 36, 0
4, 61080, Note_on_c, 0, 36, 120
4, 61110, Note_on_c, 0, 36, 0
4, 61140, Note_on_c, 0, 36, 120
4, 61170, Note_on_c, 0, 36, 0
4, 61200, Note_on_c, 0, 35, 120
4, 61230, Note_on_c, 0, 35, 0
4, 61260, Note_on_c, 0, 35, 120
4, 61290, Note_on_c, 0, 35, 0
4, 61320, Note_on_c, 0, 35, 120
4, 61350, Note_on_c, 0, 35, 0
4, 61380, Note_on_c, 0, 39, 120
4, 61410, Note_on_c, 0, 39, 0
4, 61440, Note_on_c, 0, 28, 120
4, 61470, Note_on_c, 0, 28, 0
4, 61530, Note_on_c, 0, 28, 120
4, 61545, Note_on_c, 0, 28, 0
4, 61560, Note_on_c, 0, 28, 120
4, 61620, Note_on_c, 0, 28, 0
4, 61620, Note_on_c, 0, 31, 120
4, 61680, Note_on_c, 0, 31, 0
4, 61680, Note_on_c, 0, 33, 120
4, 61710, Note_on_c, 0, 33, 0
4, 61770, Note_on_c, 0, 33, 120
4, 61785, Note_on_c, 0, 33, 0
4, 61800, Note_on_c, 0, 33, 120
4, 61860, Note_on_c, 0, 33, 0
4, 61860, Note_on_c, 0, 37, 120
4, 61920, Note_on_c, 0, 37, 0
4, 61920, Note_on_c, 0, 38, 120
4, 61950, Note_on_c, 0, 38, 0
4, 62040, Note_on_c, 0, 38, 120
4, 62070, Note_on_c, 0, 38, 0
4, 62100, Note_on_c, 0, 33, 120
4, 62130, Note_on_c, 0, 33, 0
4, 62160, Note_on_c, 0, 31, 120
4, 62190, Note_on_c, 0, 31, 0
4, 62280, Note_on_c, 0, 33, 120
4, 62310, Note_on_c, 0, 33, 0
4, 62340, Note_on_c, 0, 31, 120
4, 62370, Note_on_c, 0, 31, 0
4, 62400, Note_on_c, 0, 30, 120
4, 62490, Note_on_c, 0, 30, 0
4, 62520, Note_on_c, 0, 34, 120
4, 62610, Note_on_c, 0, 34, 0
4, 62640, Note_on_c, 0, 35, 120
4, 62730, Note_on_c, 0, 35, 0
4, 62760, Note_on_c, 0, 39, 120
4, 62850, Note_on_c, 0, 39, 0
4, 62880, Note_on_c, 0, 40, 120
4, 62940, Note_on_c, 0, 40, 0
4, 63000, Note_on_c, 0, 31, 120
4, 63030, Note_on_c, 0, 31, 0
4, 63060, Note_on_c, 0, 32, 120
4, 63090, Note_on_c, 0, 32, 0
4, 63120, Note_on_c, 0, 33, 120
4, 63210, Note_on_c, 0, 33, 0
4, 63240, Note_on_c, 0, 37, 120
4, 63330, Note_on_c, 0, 37, 0
4, 63360, Note_on_c, 0, 38, 120
4, 63390, Note_on_c, 0, 38, 0
4, 63480, Note_on_c, 0, 38, 120
4, 63510, Note_on_c, 0, 38, 0
4, 63540, Note_on_c, 0, 33, 120
4, 63570, Note_on_c, 0, 33, 0
4, 63600, Note_on_c, 0, 31, 120
4, 63690, Note_on_c, 0, 31, 0
4, 63720, Note_on_c, 0, 43, 120
4, 63840, Note_on_c, 0, 43, 0
4, 63840, Note_on_c, 0, 36, 120
4, 63960, Note_on_c, 0, 36, 0
4, 63960, Note_on_c, 0, 36, 120
4, 64080, Note_on_c, 0, 36, 0
4, 64080, Note_on_c, 0, 35, 120
4, 64140, Note_on_c, 0, 35, 0
4, 64260, Note_on_c, 0, 34, 120
4, 65100, Note_on_c, 0, 34, 0
4, 65280, Note_on_c, 0, 28, 120
4, 65520, Note_on_c, 0, 28, 0
4, 65520, Note_on_c, 0, 30, 120
4, 65700, Note_on_c, 0, 30, 0
4, 65700, Note_on_c, 0, 31, 120
4, 65790, Note_on_c, 0, 31, 0
4, 65880, Note_on_c, 0, 36, 120
4, 66040, Note_on_c, 0, 36, 0
4, 66120, Note_on_c, 0, 35, 120
4, 66235, Note_on_c, 0, 35, 0
4, 66240, Note_on_c, 0, 34, 120
4, 66420, Note_on_c, 0, 34, 0
4, 66420, Note_on_c, 0, 38, 120
4, 66480, Note_on_c, 0, 38, 0
4, 66480, Note_on_c, 0, 39, 120
4, 66600, Note_on_c, 0, 39, 0
4, 66660, Note_on_c, 0, 33, 120
4, 66750, Note_on_c, 0, 33, 0
4, 66840, Note_on_c, 0, 38, 120
4, 67080, Note_on_c, 0, 38, 0
4, 67080, Note_on_c, 0, 39, 120
4, 67200, Note_on_c, 0, 39, 0
4, 67200, Note_on_c, 0, 28, 120
4, 67440, Note_on_c, 0, 28, 0
4, 67440, Note_on_c, 0, 30, 120
4, 67620, Note_on_c, 0, 30, 0
4, 67620, Note_on_c, 0, 31, 120
4, 67710, Note_on_c, 0, 31, 0
4, 67800, Note_on_c, 0, 36, 120
4, 67960, Note_on_c, 0, 36, 0
4, 68040, Note_on_c, 0, 35, 120
4, 68155, Note_on_c, 0, 35, 0
4, 68160, Note_on_c, 0, 34, 120
4, 68340, Note_on_c, 0, 34, 0
4, 68340, Note_on_c, 0, 38, 120
4, 68400, Note_on_c, 0, 38, 0
4, 68400, Note_on_c, 0, 39, 120
4, 68520, Note_on_c, 0, 39, 0
4, 68580, Note_on_c, 0, 33, 120
4, 68670, Note_on_c, 0, 33, 0
4, 68760, Note_on_c, 0, 38, 120
4, 68940, Note_on_c, 0, 38, 0
4, 68940, Note_on_c, 0, 37, 120
4, 69120, Note_on_c, 0, 37, 0
4, 69120, Note_on_c, 0, 36, 120
4, 69240, Note_on_c, 0, 36, 0
4, 69240, Note_on_c, 0, 31, 120
4, 69300, Note_on_c, 0, 31, 0
4, 69300, Note_on_c, 0, 29, 120
4, 69360, Note_on_c, 0, 29, 0
4, 69420, Note_on_c, 0, 31, 120
4, 69480, Note_on_c, 0, 31, 0
4, 69480, Note_on_c, 0, 32, 120
4, 69540, Note_on_c, 0, 32, 0
4, 69540, Note_on_c, 0, 33, 120
4, 69660, Note_on_c, 0, 33, 0
4, 69660, Note_on_c, 0, 37, 120
4, 69720, Note_on_c, 0, 37, 0
4, 69720, Note_on_c, 0, 38, 120
4, 69960, Note_on_c, 0, 38, 0
4, 69960, Note_on_c, 0, 38, 120
4, 70020, Note_on_c, 0, 38, 0
4, 70020, Note_on_c, 0, 33, 120
4, 70080, Note_on_c, 0, 33, 0
4, 70080, Note_on_c, 0, 31, 120
4, 70200, Note_on_c, 0, 31, 0
4, 70200, Note_on_c, 0, 38, 120
4, 70260, Note_on_c, 0, 38, 0
4, 70260, Note_on_c, 0, 36, 120
4, 70420, Note_on_c, 0, 36, 0
4, 70440, Note_on_c, 0, 39, 120
4, 70500, Note_on_c, 0, 39, 0
4, 70500, Note_on_c, 0, 40, 120
4, 70610, Note_on_c, 0, 40, 0
4, 70620, Note_on_c, 0, 47, 120
4, 70680, Note_on_c, 0, 47, 0
4, 70680, Note_on_c, 0, 45, 120
4, 70920, Note_on_c, 0, 45, 0
4, 70920, Note_on_c, 0, 33, 120
4, 71040, Note_on_c, 0, 33, 0
4, 71040, Note_on_c, 0, 36, 120
4, 71160, Note_on_c, 0, 36, 0
4, 71160, Note_on_c, 0, 31, 120
4, 71220, Note_on_c, 0, 31, 0
4, 71220, Note_on_c, 0, 29, 120
4, 71280, Note_on_c, 0, 29, 0
4, 71340, Note_on_c, 0, 31, 120
4, 71400, Note_on_c, 0, 31, 0
4, 71400, Note_on_c, 0, 32, 120
4, 71460, Note_on_c, 0, 32, 0
4, 71460, Note_on_c, 0, 33, 120
4, 71580, Note_on_c, 0, 33, 0
4, 71580, Note_on_c, 0, 37, 120
4, 71640, Note_on_c, 0, 37, 0
4, 71640, Note_on_c, 0, 38, 120
4, 72000, Note_on_c, 0, 38, 0
4, 72000, Note_on_c, 0, 43, 120
4, 72180, Note_on_c, 0, 43, 0
4, 72180, Note_on_c, 0, 48, 120
4, 72360, Note_on_c, 0, 48, 0
4, 72480, Note_on_c, 0, 41, 120
4, 72600, Note_on_c, 0, 41, 0
4, 72600, Note_on_c, 0, 48, 120
4, 72660, Note_on_c, 0, 48, 0
4, 72660, Note_on_c, 0, 46, 120
4, 72840, Note_on_c, 0, 46, 0
4, 72960, Note_on_c, 0, 39, 120
4, 73140, Note_on_c, 0, 39, 0
4, 73140, Note_on_c, 0, 44, 120
4, 73260, Note_on_c, 0, 44, 0
4, 73260, Note_on_c, 0, 51, 120
4, 73320, Note_on_c, 0, 51, 0
4, 73320, Note_on_c, 0, 50, 120
4, 73890, Note_on_c, 0, 50, 0
4, 73920, Note_on_c, 0, 62, 80
4, 74400, Note_on_c, 0, 62, 0
4, 74880, Note_on_c, 0, 33, 120
4, 75120, Note_on_c, 0, 33, 0
4, 75120, Note_on_c, 0, 35, 120
4, 75360, Note_on_c, 0, 35, 0
4, 75360, Note_on_c, 0, 36, 120
4, 75600, Note_on_c, 0, 36, 0
4, 75600, Note_on_c, 0, 38, 120
4, 75720, Note_on_c, 0, 38, 0
4, 75720, Note_on_c, 0, 40, 120
4, 75750, Note_on_c, 0, 40, 0
4, 75780, Note_on_c, 0, 43, 120
4, 75810, Note_on_c, 0, 43, 0
4, 75810, Note_on_c, 0, 45, 120
4, 75840, Note_on_c, 0, 45, 0
4, 75840, Note_on_c, 0, 33, 120
4, 76080, Note_on_c, 0, 33, 0
4, 76080, Note_on_c, 0, 35, 120
4, 76260, Note_on_c, 0, 35, 0
4, 76380, Note_on_c, 0, 59, 105
4, 76410, Note_on_c, 0, 59, 0
4, 76410, Note_on_c, 0, 57, 105
4, 76440, Note_on_c, 0, 57, 0
4, 76440, Note_on_c, 0, 55, 105
4, 76470, Note_on_c, 0, 55, 0
4, 76470, Note_on_c, 0, 52, 105
4, 76500, Note_on_c, 0, 52, 0
4, 76500, Note_on_c, 0, 48, 110
4, 76530, Note_on_c, 0, 48, 0
4, 76560, Note_on_c, 0, 29, 120
4, 76590, Note_on_c, 0, 29, 0
4, 76680, Note_on_c, 0, 28, 120
4, 76800, Note_on_c, 0, 28, 0
4, 76800, Note_on_c, 0, 33, 120
4, 76830, Note_on_c, 0, 33, 0
4, 76980, Note_on_c, 0, 33, 120
4, 77010, Note_on_c, 0, 33, 0
4, 77040, Note_on_c, 0, 35, 120
4, 77070, Note_on_c, 0, 35, 0
4, 77220, Note_on_c, 0, 35, 120
4, 77250, Note_on_c, 0, 35, 0
4, 77280, Note_on_c, 0, 36, 120
4, 77320, Note_on_c, 0, 36, 0
4, 77370, Note_on_c, 0, 36, 120
4, 77410, Note_on_c, 0, 36, 0
4, 77460, Note_on_c, 0, 38, 105
4, 77500, Note_on_c, 0, 38, 0
4, 77610, Note_on_c, 0, 38, 105
4, 77638, Note_on_c, 0, 38, 0
4, 77640, Note_on_c, 0, 40, 110
4, 77700, Note_on_c, 0, 40, 0
4, 77700, Note_on_c, 0, 43, 110
4, 77760, Note_on_c, 0, 43, 0
4, 77760, Note_on_c, 0, 33, 120
4, 77790, Note_on_c, 0, 33, 0
4, 77940, Note_on_c, 0, 33, 120
4, 77970, Note_on_c, 0, 33, 0
4, 78000, Note_on_c, 0, 35, 120
4, 78030, Note_on_c, 0, 35, 0
4, 78180, Note_on_c, 0, 35, 120
4, 78210, Note_on_c, 0, 35, 0
4, 78240, Note_on_c, 0, 36, 110
4, 78270, Note_on_c, 0, 36, 0
4, 78300, Note_on_c, 0, 31, 110
4, 78330, Note_on_c, 0, 31, 0
4, 78330, Note_on_c, 0, 31, 110
4, 78337, Note_on_c, 0, 31, 0
4, 78360, Note_on_c, 0, 36, 110
4, 78420, Note_on_c, 0, 36, 0
4, 78420, Note_on_c, 0, 31, 110
4, 78480, Note_on_c, 0, 31, 0
4, 78480, Note_on_c, 0, 29, 120
4, 78510, Note_on_c, 0, 29, 0
4, 78600, Note_on_c, 0, 28, 120
4, 78720, Note_on_c, 0, 28, 0
4, 78720, Note_on_c, 0, 33, 120
4, 78750, Note_on_c, 0, 33, 0
4, 78900, Note_on_c, 0, 33, 120
4, 78930, Note_on_c, 0, 33, 0
4, 78960, Note_on_c, 0, 35, 120
4, 78990, Note_on_c, 0, 35, 0
4, 79140, Note_on_c, 0, 35, 120
4, 79170, Note_on_c, 0, 35, 0
4, 79200, Note_on_c, 0, 36, 120
4, 79240, Note_on_c, 0, 36, 0
4, 79290, Note_on_c, 0, 36, 120
4, 79330, Note_on_c, 0, 36, 0
4, 79380, Note_on_c, 0, 38, 105
4, 79420, Note_on_c, 0, 38, 0
4, 79530, Note_on_c, 0, 38, 105
4, 79558, Note_on_c, 0, 38, 0
4, 79560, Note_on_c, 0, 40, 110
4, 79620, Note_on_c, 0, 40, 0
4, 79620, Note_on_c, 0, 43, 110
4, 79680, Note_on_c, 0, 43, 0
4, 79680, Note_on_c, 0, 33, 120
4, 79710, Note_on_c, 0, 33, 0
4, 79860, Note_on_c, 0, 33, 120
4, 79890, Note_on_c, 0, 33, 0
4, 79920, Note_on_c, 0, 35, 120
4, 79950, Note_on_c, 0, 35, 0
4, 80100, Note_on_c, 0, 35, 120
4, 80130, Note_on_c, 0, 35, 0
4, 80160, Note_on_c, 0, 36, 110
4, 80190, Note_on_c, 0, 36, 0
4, 80220, Note_on_c, 0, 31, 110
4, 80250, Note_on_c, 0, 31, 0
4, 80250, Note_on_c, 0, 31, 110
4, 80257, Note_on_c, 0, 31, 0
4, 80280, Note_on_c, 0, 36, 110
4, 80340, Note_on_c, 0, 36, 0
4, 80340, Note_on_c, 0, 31, 110
4, 80400, Note_on_c, 0, 31, 0
4, 80400, Note_on_c, 0, 29, 120
4, 80430, Note_on_c, 0, 29, 0
4, 80520, Note_on_c, 0, 28, 120
4, 80640, Note_on_c, 0, 28, 0
4, 80640, Note_on_c, 0, 33, 120
4, 80670, Note_on_c, 0, 33, 0
4, 80820, Note_on_c, 0, 33, 120
4, 80850, Note_on_c, 0, 33, 0
4, 80880, Note_on_c, 0, 35, 120
4, 80910, Note_on_c, 0, 35, 0
4, 81060, Note_on_c, 0, 35, 120
4, 81090, Note_on_c, 0, 35, 0
4, 81120, Note_on_c, 0, 36, 120
4, 81160, Note_on_c, 0, 36, 0
4, 81210, Note_on_c, 0, 36, 120
4, 81250, Note_on_c, 0, 36, 0
4, 81300, Note_on_c, 0, 38, 105
4, 81340, Note_on_c, 0, 38, 0
4, 81450, Note_on_c, 0, 38, 105
4, 81478, Note_on_c, 0, 38, 0
4, 81480, Note_on_c, 0, 40, 110
4, 81540, Note_on_c, 0, 40, 0
4, 81540, Note_on_c, 0, 43, 110
4, 81600, Note_on_c, 0, 43, 0
4, 81600, Note_on_c, 0, 33, 120
4, 81630, Note_on_c, 0, 33, 0
4, 81780, Note_on_c, 0, 33, 120
4, 81810, Note_on_c, 0, 33, 0
4, 81840, Note_on_c, 0, 35, 120
4, 81870, Note_on_c, 0, 35, 0
4, 82020, Note_on_c, 0, 35, 120
4, 82050, Note_on_c, 0, 35, 0
4, 82080, Note_on_c, 0, 36, 110
4, 82110, Note_on_c, 0, 36, 0
4, 82140, Note_on_c, 0, 31, 110
4, 82170, Note_on_c, 0, 31, 0
4, 82170, Note_on_c, 0, 31, 110
4, 82177, Note_on_c, 0, 31, 0
4, 82200, Note_on_c, 0, 36, 110
4, 82260, Note_on_c, 0, 36, 0
4, 82260, Note_on_c, 0, 31, 110
4, 82320, Note_on_c, 0, 31, 0
4, 82320, Note_on_c, 0, 29, 120
4, 82350, Note_on_c, 0, 29, 0
4, 82440, Note_on_c, 0, 28, 120
4, 82560, Note_on_c, 0, 28, 0
4, 82560, Note_on_c, 0, 33, 120
4, 82590, Note_on_c, 0, 33, 0
4, 82740, Note_on_c, 0, 33, 120
4, 82770, Note_on_c, 0, 33, 0
4, 82800, Note_on_c, 0, 35, 120
4, 82830, Note_on_c, 0, 35, 0
4, 82980, Note_on_c, 0, 35, 120
4, 83010, Note_on_c, 0, 35, 0
4, 83040, Note_on_c, 0, 36, 120
4, 83080, Note_on_c, 0, 36, 0
4, 83130, Note_on_c, 0, 36, 120
4, 83170, Note_on_c, 0, 36, 0
4, 83220, Note_on_c, 0, 38, 105
4, 83260, Note_on_c, 0, 38, 0
4, 83370, Note_on_c, 0, 38, 105
4, 83398, Note_on_c, 0, 38, 0
4, 83400, Note_on_c, 0, 40, 110
4, 83460, Note_on_c, 0, 40, 0
4, 83460, Note_on_c, 0, 43, 110
4, 83520, Note_on_c, 0, 43, 0
4, 83520, Note_on_c, 0, 33, 120
4, 83550, Note_on_c, 0, 33, 0
4, 83700, Note_on_c, 0, 33, 120
4, 83730, Note_on_c, 0, 33, 0
4, 83760, Note_on_c, 0, 35, 120
4, 83790, Note_on_c, 0, 35, 0
4, 83940, Note_on_c, 0, 35, 120
4, 83970, Note_on_c, 0, 35, 0
4, 84000, Note_on_c, 0, 36, 110
4, 84030, Note_on_c, 0, 36, 0
4, 84060, Note_on_c, 0, 31, 110
4, 84090, Note_on_c, 0, 31, 0
4, 84090, Note_on_c, 0, 31, 110
4, 84097, Note_on_c, 0, 31, 0
4, 84120, Note_on_c, 0, 36, 110
4, 84180, Note_on_c, 0, 36, 0
4, 84180, Note_on_c, 0, 31, 110
4, 84240, Note_on_c, 0, 31, 0
4, 84240, Note_on_c, 0, 29, 120
4, 84270, Note_on_c, 0, 29, 0
4, 84360, Note_on_c, 0, 28, 120
4, 84480, Note_on_c, 0, 28, 0
4, 84540, Note_on_c, 0, 33, 120
4, 84630, Note_on_c, 0, 33, 0
4, 84630, End_track
5, 0, Start_track
5, 0, MIDI_port, 0
5, 0, Title_t, "devian@star.net"
5, 463, Control_c, 2, 0, 0
5, 463, Control_c, 2, 32, 0
5, 463, Program_c, 2, 24
5, 466, Control_c, 2, 121, 0
5, 468, Control_c, 2, 7, 100
5, 470, Control_c, 2, 10, 90
5, 472, Control_c, 2, 91, 30
5, 474, Control_c, 2, 93, 30
5, 8160, Control_c, 2, 64, 100
5, 8160, Note_on_c, 2, 55, 65
5, 8160, Note_on_c, 2, 67, 65
5, 8190, Note_on_c, 2, 67, 0
5, 8190, Note_on_c, 2, 55, 0
5, 8220, Note_on_c, 2, 55, 65
5, 8250, Note_on_c, 2, 55, 0
5, 8250, Note_on_c, 2, 62, 65
5, 8280, Note_on_c, 2, 62, 0
5, 8280, Note_on_c, 2, 55, 65
5, 8310, Note_on_c, 2, 55, 0
5, 8310, Note_on_c, 2, 67, 65
5, 8340, Note_on_c, 2, 67, 0
5, 8340, Note_on_c, 2, 55, 65
5, 8370, Note_on_c, 2, 55, 0
5, 8400, Note_on_c, 2, 67, 65
5, 8400, Note_on_c, 2, 55, 65
5, 8430, Note_on_c, 2, 55, 0
5, 8430, Note_on_c, 2, 67, 0
5, 8460, Note_on_c, 2, 55, 65
5, 8490, Note_on_c, 2, 55, 0
5, 8490, Note_on_c, 2, 62, 65
5, 8520, Note_on_c, 2, 62, 0
5, 8520, Note_on_c, 2, 55, 65
5, 8550, Note_on_c, 2, 55, 0
5, 8550, Note_on_c, 2, 67, 65
5, 8580, Note_on_c, 2, 67, 0
5, 8580, Note_on_c, 2, 55, 65
5, 8610, Note_on_c, 2, 55, 0
5, 8640, Control_c, 2, 64, 100
5, 8640, Note_on_c, 2, 55, 65
5, 8640, Note_on_c, 2, 67, 65
5, 8670, Note_on_c, 2, 67, 0
5, 8670, Note_on_c, 2, 55, 0
5, 8700, Note_on_c, 2, 55, 65
5, 8730, Note_on_c, 2, 55, 0
5, 8730, Note_on_c, 2, 62, 65
5, 8760, Note_on_c, 2, 62, 0
5, 8760, Note_on_c, 2, 55, 65
5, 8790, Note_on_c, 2, 55, 0
5, 8790, Note_on_c, 2, 67, 65
5, 8820, Note_on_c, 2, 67, 0
5, 8820, Note_on_c, 2, 55, 65
5, 8850, Note_on_c, 2, 55, 0
5, 8880, Note_on_c, 2, 67, 65
5, 8880, Note_on_c, 2, 55, 65
5, 8910, Note_on_c, 2, 55, 0
5, 8910, Note_on_c, 2, 67, 0
5, 8940, Note_on_c, 2, 55, 65
5, 8970, Note_on_c, 2, 55, 0
5, 8970, Note_on_c, 2, 62, 65
5, 9000, Note_on_c, 2, 62, 0
5, 9000, Note_on_c, 2, 55, 65
5, 9030, Note_on_c, 2, 55, 0
5, 9030, Note_on_c, 2, 67, 65
5, 9060, Note_on_c, 2, 67, 0
5, 9060, Note_on_c, 2, 55, 65
5, 9090, Note_on_c, 2, 55, 0
5, 9120, Control_c, 2, 64, 100
5, 9120, Note_on_c, 2, 55, 65
5, 9120, Note_on_c, 2, 67, 65
5, 9150, Note_on_c, 2, 67, 0
5, 9150, Note_on_c, 2, 55, 0
5, 9180, Note_on_c, 2, 55, 65
5, 9210, Note_on_c, 2, 55, 0
5, 9210, Note_on_c, 2, 62, 65
5, 9240, Note_on_c, 2, 62, 0
5, 9240, Note_on_c, 2, 55, 65
5, 9270, Note_on_c, 2, 55, 0
5, 9270, Note_on_c, 2, 67, 65
5, 9300, Note_on_c, 2, 67, 0
5, 9300, Note_on_c, 2, 55, 65
5, 9330, Note_on_c, 2, 55, 0
5, 9360, Note_on_c, 2, 67, 65
5, 9360, Note_on_c, 2, 55, 65
5, 9390, Note_on_c, 2, 55, 0
5, 9390, Note_on_c, 2, 67, 0
5, 9420, Note_on_c, 2, 55, 65
5, 9450, Note_on_c, 2, 55, 0
5, 9450, Note_on_c, 2, 62, 65
5, 9480, Note_on_c, 2, 62, 0
5, 9480, Note_on_c, 2, 55, 65
5, 9510, Note_on_c, 2, 55, 0
5, 9510, Note_on_c, 2, 67, 65
5, 9540, Note_on_c, 2, 67, 0
5, 9540, Note_on_c, 2, 55, 65
5, 9570, Note_on_c, 2, 55, 0
5, 9600, Control_c, 2, 64, 0
5, 10200, Note_on_c, 2, 59, 110
5, 10200, Note_on_c, 2, 71, 110
5, 10230, Note_on_c, 2, 71, 0
5, 10230, Note_on_c, 2, 59, 0
5, 10260, Note_on_c, 2, 60, 110
5, 10260, Note_on_c, 2, 72, 110
5, 10290, Note_on_c, 2, 72, 0
5, 10290, Note_on_c, 2, 60, 0
5, 10320, Note_on_c, 2, 62, 110
5, 10320, Note_on_c, 2, 74, 110
5, 10395, Note_on_c, 2, 74, 0
5, 10395, Note_on_c, 2, 62, 0
5, 10410, Note_on_c, 2, 62, 110
5, 10410, Note_on_c, 2, 74, 110
5, 10425, Pitch_bend_c, 2, 9600
5, 10426, Pitch_bend_c, 2, 16256
5, 10440, Note_on_c, 2, 74, 0
5, 10440, Note_on_c, 2, 62, 0
5, 10440, Pitch_bend_c, 2, 8192
5, 10500, Note_on_c, 2, 57, 110
5, 10500, Note_on_c, 2, 69, 110
5, 10590, Note_on_c, 2, 69, 0
5, 10590, Note_on_c, 2, 57, 0
5, 10620, Note_on_c, 2, 55, 110
5, 10620, Note_on_c, 2, 67, 110
5, 10650, Note_on_c, 2, 67, 0
5, 10650, Note_on_c, 2, 55, 0
5, 10680, Note_on_c, 2, 52, 110
5, 10680, Note_on_c, 2, 64, 110
5, 10710, Note_on_c, 2, 64, 0
5, 10710, Note_on_c, 2, 52, 0
5, 10740, Note_on_c, 2, 54, 110
5, 10740, Note_on_c, 2, 66, 110
5, 10770, Note_on_c, 2, 66, 0
5, 10770, Note_on_c, 2, 54, 0
5, 10800, Note_on_c, 2, 55, 110
5, 10800, Note_on_c, 2, 67, 110
5, 10890, Note_on_c, 2, 67, 0
5, 10890, Note_on_c, 2, 55, 0
5, 10890, Note_on_c, 2, 57, 110
5, 10890, Note_on_c, 2, 69, 110
5, 10920, Note_on_c, 2, 69, 0
5, 10920, Note_on_c, 2, 57, 0
5, 10980, Note_on_c, 2, 52, 110
5, 10980, Note_on_c, 2, 64, 110
5, 11099, Note_on_c, 2, 64, 0
5, 11099, Note_on_c, 2, 52, 0
5, 11100, Note_on_c, 2, 50, 110
5, 11100, Note_on_c, 2, 62, 110
5, 11130, Note_on_c, 2, 62, 0
5, 11130, Note_on_c, 2, 50, 0
5, 11160, Note_on_c, 2, 50, 110
5, 11160, Note_on_c, 2, 62, 110
5, 11520, Note_on_c, 2, 62, 0
5, 11520, Note_on_c, 2, 50, 0
5, 12120, Note_on_c, 2, 59, 110
5, 12120, Note_on_c, 2, 71, 110
5, 12150, Note_on_c, 2, 71, 0
5, 12150, Note_on_c, 2, 59, 0
5, 12180, Note_on_c, 2, 60, 110
5, 12180, Note_on_c, 2, 72, 110
5, 12210, Note_on_c, 2, 72, 0
5, 12210, Note_on_c, 2, 60, 0
5, 12240, Note_on_c, 2, 62, 110
5, 12240, Note_on_c, 2, 74, 110
5, 12315, Note_on_c, 2, 74, 0
5, 12315, Note_on_c, 2, 62, 0
5, 12330, Note_on_c, 2, 62, 110
5, 12330, Note_on_c, 2, 74, 110
5, 12345, Pitch_bend_c, 2, 16383
5, 12360, Note_on_c, 2, 74, 0
5, 12360, Note_on_c, 2, 62, 0
5, 12360, Pitch_bend_c, 2, 8192
5, 12420, Note_on_c, 2, 57, 110
5, 12420, Note_on_c, 2, 69, 110
5, 12510, Note_on_c, 2, 69, 0
5, 12510, Note_on_c, 2, 57, 0
5, 12540, Note_on_c, 2, 55, 110
5, 12540, Note_on_c, 2, 67, 110
5, 12570, Note_on_c, 2, 67, 0
5, 12570, Note_on_c, 2, 55, 0
5, 12600, Note_on_c, 2, 52, 110
5, 12600, Note_on_c, 2, 64, 110
5, 12630, Note_on_c, 2, 64, 0
5, 12630, Note_on_c, 2, 52, 0
5, 12660, Note_on_c, 2, 54, 110
5, 12660, Note_on_c, 2, 66, 110
5, 12690, Note_on_c, 2, 66, 0
5, 12690, Note_on_c, 2, 54, 0
5, 12720, Note_on_c, 2, 55, 110
5, 12720, Note_on_c, 2, 67, 110
5, 12750, Note_on_c, 2, 67, 0
5, 12750, Note_on_c, 2, 55, 0
5, 12780, Note_on_c, 2, 59, 110
5, 12780, Note_on_c, 2, 71, 110
5, 12810, Note_on_c, 2, 71, 0
5, 12810, Note_on_c, 2, 59, 0
5, 12840, Note_on_c, 2, 60, 110
5, 12840, Note_on_c, 2, 72, 110
5, 12870, Note_on_c, 2, 72, 0
5, 12870, Note_on_c, 2, 60, 0
5, 12900, Note_on_c, 2, 62, 110
5, 12900, Note_on_c, 2, 74, 110
5, 12930, Note_on_c, 2, 74, 0
5, 12930, Note_on_c, 2, 62, 0
5, 12960, Note_on_c, 2, 64, 110
5, 12960, Note_on_c, 2, 76, 110
5, 13080, Note_on_c, 2, 76, 0
5, 13080, Note_on_c, 2, 64, 0
5, 13080, Note_on_c, 2, 66, 110
5, 13080, Note_on_c, 2, 78, 110
5, 13110, Note_on_c, 2, 78, 0
5, 13110, Note_on_c, 2, 66, 0
5, 13140, Note_on_c, 2, 62, 110
5, 13140, Note_on_c, 2, 74, 110
5, 13560, Note_on_c, 2, 74, 0
5, 13560, Note_on_c, 2, 62, 0
5, 14040, Note_on_c, 2, 55, 110
5, 14100, Note_on_c, 2, 55, 0
5, 14100, Note_on_c, 2, 58, 110
5, 14160, Note_on_c, 2, 58, 0
5, 14160, Note_on_c, 2, 62, 110
5, 14220, Note_on_c, 2, 62, 0
5, 14220, Note_on_c, 2, 65, 110
5, 14280, Note_on_c, 2, 65, 0
5, 14280, Note_on_c, 2, 67, 110
5, 14340, Note_on_c, 2, 67, 0
5, 14340, Note_on_c, 2, 62, 110
5, 14400, Note_on_c, 2, 62, 0
5, 14400, Note_on_c, 2, 58, 110
5, 14460, Note_on_c, 2, 58, 0
5, 14460, Note_on_c, 2, 60, 110
5, 14700, Note_on_c, 2, 60, 0
5, 14700, Note_on_c, 2, 57, 110
5, 14760, Note_on_c, 2, 57, 0
5, 14760, Note_on_c, 2, 53, 110
5, 14820, Note_on_c, 2, 53, 0
5, 14820, Note_on_c, 2, 55, 110
5, 15060, Note_on_c, 2, 55, 0
5, 15270, Note_on_c, 2, 62, 100
5, 15270, Note_on_c, 2, 67, 100
5, 15295, Pitch_bend_c, 2, 16383
5, 15300, Pitch_bend_c, 2, 16383
5, 15360, Note_on_c, 2, 67, 0
5, 15360, Note_on_c, 2, 62, 0
5, 15360, Pitch_bend_c, 2, 8192
5, 15360, Note_on_c, 2, 62, 90
5, 15360, Note_on_c, 2, 67, 90
5, 15600, Note_on_c, 2, 67, 0
5, 15600, Note_on_c, 2, 62, 0
5, 15600, Note_on_c, 2, 59, 110
5, 15600, Note_on_c, 2, 62, 110
5, 15630, Note_on_c, 2, 62, 0
5, 15630, Note_on_c, 2, 59, 0
5, 15690, Note_on_c, 2, 59, 110
5, 15690, Note_on_c, 2, 62, 110
5, 15720, Note_on_c, 2, 62, 0
5, 15720, Note_on_c, 2, 59, 0
5, 15780, Note_on_c, 2, 59, 110
5, 15780, Note_on_c, 2, 62, 110
5, 15808, Pitch_bend_c, 2, 16383
5, 15810, Pitch_bend_c, 2, 9600
5, 15811, Pitch_bend_c, 2, 16383
5, 15840, Note_on_c, 2, 62, 0
5, 15840, Note_on_c, 2, 59, 0
5, 15840, Pitch_bend_c, 2, 8192
5, 15840, Note_on_c, 2, 59, 90
5, 15840, Note_on_c, 2, 62, 90
5, 16320, Note_on_c, 2, 62, 0
5, 16320, Note_on_c, 2, 59, 0
5, 16920, Note_on_c, 2, 59, 110
5, 16920, Note_on_c, 2, 71, 110
5, 16950, Note_on_c, 2, 71, 0
5, 16950, Note_on_c, 2, 59, 0
5, 16980, Note_on_c, 2, 60, 110
5, 16980, Note_on_c, 2, 72, 110
5, 17010, Note_on_c, 2, 72, 0
5, 17010, Note_on_c, 2, 60, 0
5, 17040, Note_on_c, 2, 62, 110
5, 17040, Note_on_c, 2, 74, 110
5, 17115, Note_on_c, 2, 74, 0
5, 17115, Note_on_c, 2, 62, 0
5, 17130, Note_on_c, 2, 62, 110
5, 17130, Note_on_c, 2, 74, 110
5, 17145, Pitch_bend_c, 2, 16383
5, 17146, Pitch_bend_c, 2, 16256
5, 17160, Note_on_c, 2, 74, 0
5, 17160, Note_on_c, 2, 62, 0
5, 17160, Pitch_bend_c, 2, 8192
5, 17220, Note_on_c, 2, 57, 110
5, 17220, Note_on_c, 2, 69, 110
5, 17310, Note_on_c, 2, 69, 0
5, 17310, Note_on_c, 2, 57, 0
5, 17340, Note_on_c, 2, 55, 110
5, 17340, Note_on_c, 2, 67, 110
5, 17370, Note_on_c, 2, 67, 0
5, 17370, Note_on_c, 2, 55, 0
5, 17400, Note_on_c, 2, 52, 110
5, 17400, Note_on_c, 2, 64, 110
5, 17430, Note_on_c, 2, 64, 0
5, 17430, Note_on_c, 2, 52, 0
5, 17460, Note_on_c, 2, 54, 110
5, 17460, Note_on_c, 2, 66, 110
5, 17490, Note_on_c, 2, 66, 0
5, 17490, Note_on_c, 2, 54, 0
5, 17520, Note_on_c, 2, 55, 110
5, 17520, Note_on_c, 2, 67, 110
5, 17610, Note_on_c, 2, 67, 0
5, 17610, Note_on_c, 2, 55, 0
5, 17610, Note_on_c, 2, 57, 110
5, 17610, Note_on_c, 2, 69, 110
5, 17640, Note_on_c, 2, 69, 0
5, 17640, Note_on_c, 2, 57, 0
5, 17700, Note_on_c, 2, 52, 110
5, 17700, Note_on_c, 2, 64, 110
5, 17819, Note_on_c, 2, 64, 0
5, 17819, Note_on_c, 2, 52, 0
5, 17820, Note_on_c, 2, 50, 110
5, 17820, Note_on_c, 2, 62, 110
5, 17850, Note_on_c, 2, 62, 0
5, 17850, Note_on_c, 2, 50, 0
5, 17880, Note_on_c, 2, 50, 110
5, 17880, Note_on_c, 2, 62, 110
5, 18240, Note_on_c, 2, 62, 0
5, 18240, Note_on_c, 2, 50, 0
5, 18840, Note_on_c, 2, 59, 110
5, 18840, Note_on_c, 2, 71, 110
5, 18870, Note_on_c, 2, 71, 0
5, 18870, Note_on_c, 2, 59, 0
5, 18900, Note_on_c, 2, 60, 110
5, 18900, Note_on_c, 2, 72, 110
5, 18930, Note_on_c, 2, 72, 0
5, 18930, Note_on_c, 2, 60, 0
5, 18960, Note_on_c, 2, 62, 110
5, 18960, Note_on_c, 2, 74, 110
5, 19035, Note_on_c, 2, 74, 0
5, 19035, Note_on_c, 2, 62, 0
5, 19050, Note_on_c, 2, 62, 110
5, 19050, Note_on_c, 2, 74, 110
5, 19065, Pitch_bend_c, 2, 16256
5, 19080, Note_on_c, 2, 74, 0
5, 19080, Note_on_c, 2, 62, 0
5, 19080, Pitch_bend_c, 2, 8192
5, 19140, Note_on_c, 2, 57, 110
5, 19140, Note_on_c, 2, 69, 110
5, 19230, Note_on_c, 2, 69, 0
5, 19230, Note_on_c, 2, 57, 0
5, 19260, Note_on_c, 2, 55, 110
5, 19260, Note_on_c, 2, 67, 110
5, 19290, Note_on_c, 2, 67, 0
5, 19290, Note_on_c, 2, 55, 0
5, 19320, Note_on_c, 2, 52, 110
5, 19320, Note_on_c, 2, 64, 110
5, 19350, Note_on_c, 2, 64, 0
5, 19350, Note_on_c, 2, 52, 0
5, 19380, Note_on_c, 2, 54, 110
5, 19380, Note_on_c, 2, 66, 110
5, 19410, Note_on_c, 2, 66, 0
5, 19410, Note_on_c, 2, 54, 0
5, 19440, Note_on_c, 2, 55, 110
5, 19440, Note_on_c, 2, 67, 110
5, 19470, Note_on_c, 2, 67, 0
5, 19470, Note_on_c, 2, 55, 0
5, 19500, Note_on_c, 2, 59, 110
5, 19500, Note_on_c, 2, 71, 110
5, 19530, Note_on_c, 2, 71, 0
5, 19530, Note_on_c, 2, 59, 0
5, 19560, Note_on_c, 2, 60, 110
5, 19560, Note_on_c, 2, 72, 110
5, 19590, Note_on_c, 2, 72, 0
5, 19590, Note_on_c, 2, 60, 0
5, 19620, Note_on_c, 2, 62, 110
5, 19620, Note_on_c, 2, 74, 110
5, 19650, Note_on_c, 2, 74, 0
5, 19650, Note_on_c, 2, 62, 0
5, 19680, Note_on_c, 2, 64, 110
5, 19680, Note_on_c, 2, 76, 110
5, 19800, Note_on_c, 2, 76, 0
5, 19800, Note_on_c, 2, 64, 0
5, 19800, Note_on_c, 2, 66, 110
5, 19800, Note_on_c, 2, 78, 110
5, 19830, Note_on_c, 2, 78, 0
5, 19830, Note_on_c, 2, 66, 0
5, 19860, Note_on_c, 2, 62, 110
5, 19860, Note_on_c, 2, 74, 110
5, 20280, Note_on_c, 2, 74, 0
5, 20280, Note_on_c, 2, 62, 0
5, 20760, Note_on_c, 2, 55, 110
5, 20820, Note_on_c, 2, 55, 0
5, 20820, Note_on_c, 2, 58, 110
5, 20880, Note_on_c, 2, 58, 0
5, 20880, Note_on_c, 2, 62, 110
5, 20940, Note_on_c, 2, 62, 0
5, 20940, Note_on_c, 2, 65, 110
5, 21000, Note_on_c, 2, 65, 0
5, 21000, Note_on_c, 2, 67, 110
5, 21060, Note_on_c, 2, 67, 0
5, 21060, Note_on_c, 2, 62, 110
5, 21120, Note_on_c, 2, 62, 0
5, 21120, Note_on_c, 2, 58, 110
5, 21180, Note_on_c, 2, 58, 0
5, 21180, Note_on_c, 2, 60, 110
5, 21420, Note_on_c, 2, 60, 0
5, 21420, Note_on_c, 2, 57, 110
5, 21480, Note_on_c, 2, 57, 0
5, 21480, Note_on_c, 2, 53, 110
5, 21540, Note_on_c, 2, 53, 0
5, 21540, Note_on_c, 2, 55, 110
5, 21780, Note_on_c, 2, 55, 0
5, 21990, Note_on_c, 2, 62, 100
5, 21990, Note_on_c, 2, 67, 100
5, 22019, Note_on_c, 2, 67, 0
5, 22019, Note_on_c, 2, 62, 0
5, 22020, Note_on_c, 2, 64, 90
5, 22020, Note_on_c, 2, 69, 90
5, 22079, Note_on_c, 2, 69, 0
5, 22079, Note_on_c, 2, 64, 0
5, 22080, Note_on_c, 2, 62, 80
5, 22080, Note_on_c, 2, 67, 80
5, 22320, Note_on_c, 2, 67, 0
5, 22320, Note_on_c, 2, 62, 0
5, 22320, Note_on_c, 2, 52, 90
5, 22320, Note_on_c, 2, 64, 90
5, 22380, Note_on_c, 2, 64, 0
5, 22380, Note_on_c, 2, 52, 0
5, 22380, Note_on_c, 2, 55, 90
5, 22380, Note_on_c, 2, 67, 90
5, 22410, Note_on_c, 2, 67, 0
5, 22410, Note_on_c, 2, 55, 0
5, 22440, Note_on_c, 2, 59, 90
5, 22440, Note_on_c, 2, 71, 90
5, 22470, Note_on_c, 2, 71, 0
5, 22470, Note_on_c, 2, 59, 0
5, 22500, Note_on_c, 2, 57, 90
5, 22500, Note_on_c, 2, 69, 90
5, 22620, Note_on_c, 2, 69, 0
5, 22620, Note_on_c, 2, 57, 0
5, 22620, Note_on_c, 2, 55, 90
5, 22620, Note_on_c, 2, 67, 90
5, 22650, Note_on_c, 2, 67, 0
5, 22650, Note_on_c, 2, 55, 0
5, 22680, Note_on_c, 2, 55, 90
5, 22680, Note_on_c, 2, 67, 90
5, 22740, Note_on_c, 2, 67, 0
5, 22740, Note_on_c, 2, 55, 0
5, 22800, Note_on_c, 2, 55, 90
5, 22800, Note_on_c, 2, 67, 90
5, 22860, Note_on_c, 2, 67, 0
5, 22860, Note_on_c, 2, 55, 0
5, 22860, Note_on_c, 2, 57, 90
5, 22860, Note_on_c, 2, 69, 90
5, 22890, Note_on_c, 2, 69, 0
5, 22890, Note_on_c, 2, 57, 0
5, 22920, Note_on_c, 2, 59, 90
5, 22920, Note_on_c, 2, 71, 90
5, 22950, Note_on_c, 2, 71, 0
5, 22950, Note_on_c, 2, 59, 0
5, 22980, Note_on_c, 2, 57, 90
5, 22980, Note_on_c, 2, 69, 90
5, 23100, Note_on_c, 2, 69, 0
5, 23100, Note_on_c, 2, 57, 0
5, 23100, Note_on_c, 2, 55, 90
5, 23100, Note_on_c, 2, 67, 90
5, 23130, Note_on_c, 2, 67, 0
5, 23130, Note_on_c, 2, 55, 0
5, 23160, Note_on_c, 2, 55, 90
5, 23160, Note_on_c, 2, 67, 90
5, 23220, Note_on_c, 2, 67, 0
5, 23220, Note_on_c, 2, 55, 0
5, 23280, Note_on_c, 2, 55, 90
5, 23280, Note_on_c, 2, 67, 90
5, 23340, Note_on_c, 2, 67, 0
5, 23340, Note_on_c, 2, 55, 0
5, 23340, Note_on_c, 2, 57, 90
5, 23340, Note_on_c, 2, 69, 90
5, 23370, Note_on_c, 2, 69, 0
5, 23370, Note_on_c, 2, 57, 0
5, 23400, Note_on_c, 2, 59, 90
5, 23400, Note_on_c, 2, 71, 90
5, 23430, Note_on_c, 2, 71, 0
5, 23430, Note_on_c, 2, 59, 0
5, 23460, Note_on_c, 2, 60, 90
5, 23460, Note_on_c, 2, 72, 90
5, 23490, Note_on_c, 2, 72, 0
5, 23490, Note_on_c, 2, 60, 0
5, 23580, Note_on_c, 2, 59, 90
5, 23580, Note_on_c, 2, 71, 90
5, 23610, Note_on_c, 2, 71, 0
5, 23610, Note_on_c, 2, 59, 0
5, 23700, Note_on_c, 2, 62, 90
5, 23700, Note_on_c, 2, 74, 90
5, 23730, Note_on_c, 2, 74, 0
5, 23730, Note_on_c, 2, 62, 0
5, 23820, Note_on_c, 2, 59, 90
5, 23820, Note_on_c, 2, 71, 90
5, 23850, Note_on_c, 2, 71, 0
5, 23850, Note_on_c, 2, 59, 0
5, 23940, Note_on_c, 2, 57, 90
5, 23940, Note_on_c, 2, 69, 90
5, 24060, Note_on_c, 2, 69, 0
5, 24060, Note_on_c, 2, 57, 0
5, 24060, Note_on_c, 2, 55, 90
5, 24060, Note_on_c, 2, 67, 90
5, 24090, Note_on_c, 2, 67, 0
5, 24090, Note_on_c, 2, 55, 0
5, 24120, Note_on_c, 2, 55, 90
5, 24120, Note_on_c, 2, 67, 90
5, 24180, Note_on_c, 2, 67, 0
5, 24180, Note_on_c, 2, 55, 0
5, 24240, Note_on_c, 2, 55, 90
5, 24240, Note_on_c, 2, 67, 90
5, 24300, Note_on_c, 2, 67, 0
5, 24300, Note_on_c, 2, 55, 0
5, 24300, Note_on_c, 2, 57, 90
5, 24300, Note_on_c, 2, 69, 90
5, 24330, Note_on_c, 2, 69, 0
5, 24330, Note_on_c, 2, 57, 0
5, 24360, Note_on_c, 2, 59, 90
5, 24360, Note_on_c, 2, 71, 90
5, 24390, Note_on_c, 2, 71, 0
5, 24390, Note_on_c, 2, 59, 0
5, 24420, Note_on_c, 2, 57, 90
5, 24420, Note_on_c, 2, 69, 90
5, 24540, Note_on_c, 2, 69, 0
5, 24540, Note_on_c, 2, 57, 0
5, 24540, Note_on_c, 2, 55, 90
5, 24540, Note_on_c, 2, 67, 90
5, 24570, Note_on_c, 2, 67, 0
5, 24570, Note_on_c, 2, 55, 0
5, 24600, Note_on_c, 2, 55, 90
5, 24600, Note_on_c, 2, 67, 90
5, 24660, Note_on_c, 2, 67, 0
5, 24660, Note_on_c, 2, 55, 0
5, 24720, Note_on_c, 2, 55, 90
5, 24720, Note_on_c, 2, 67, 90
5, 24780, Note_on_c, 2, 67, 0
5, 24780, Note_on_c, 2, 55, 0
5, 24780, Note_on_c, 2, 57, 90
5, 24780, Note_on_c, 2, 69, 90
5, 24810, Note_on_c, 2, 69, 0
5, 24810, Note_on_c, 2, 57, 0
5, 24840, Note_on_c, 2, 59, 90
5, 24840, Note_on_c, 2, 71, 90
5, 24870, Note_on_c, 2, 71, 0
5, 24870, Note_on_c, 2, 59, 0
5, 24900, Note_on_c, 2, 60, 90
5, 24900, Note_on_c, 2, 72, 90
5, 24930, Note_on_c, 2, 72, 0
5, 24930, Note_on_c, 2, 60, 0
5, 25020, Note_on_c, 2, 59, 90
5, 25020, Note_on_c, 2, 71, 90
5, 25050, Note_on_c, 2, 71, 0
5, 25050, Note_on_c, 2, 59, 0
5, 25140, Note_on_c, 2, 64, 90
5, 25140, Note_on_c, 2, 76, 90
5, 25170, Note_on_c, 2, 76, 0
5, 25170, Note_on_c, 2, 64, 0
5, 25260, Note_on_c, 2, 59, 90
5, 25260, Note_on_c, 2, 71, 90
5, 25290, Note_on_c, 2, 71, 0
5, 25290, Note_on_c, 2, 59, 0
5, 25380, Note_on_c, 2, 57, 90
5, 25380, Note_on_c, 2, 69, 90
5, 25500, Note_on_c, 2, 69, 0
5, 25500, Note_on_c, 2, 57, 0
5, 25500, Note_on_c, 2, 55, 90
5, 25500, Note_on_c, 2, 67, 90
5, 25530, Note_on_c, 2, 67, 0
5, 25530, Note_on_c, 2, 55, 0
5, 25560, Note_on_c, 2, 55, 90
5, 25560, Note_on_c, 2, 67, 90
5, 25620, Note_on_c, 2, 67, 0
5, 25620, Note_on_c, 2, 55, 0
5, 25680, Note_on_c, 2, 55, 90
5, 25680, Note_on_c, 2, 67, 90
5, 25740, Note_on_c, 2, 67, 0
5, 25740, Note_on_c, 2, 55, 0
5, 25740, Note_on_c, 2, 57, 90
5, 25740, Note_on_c, 2, 69, 90
5, 25770, Note_on_c, 2, 69, 0
5, 25770, Note_on_c, 2, 57, 0
5, 25800, Note_on_c, 2, 59, 90
5, 25800, Note_on_c, 2, 71, 90
5, 25830, Note_on_c, 2, 71, 0
5, 25830, Note_on_c, 2, 59, 0
5, 25860, Note_on_c, 2, 57, 90
5, 25860, Note_on_c, 2, 69, 90
5, 25980, Note_on_c, 2, 69, 0
5, 25980, Note_on_c, 2, 57, 0
5, 25980, Note_on_c, 2, 55, 90
5, 25980, Note_on_c, 2, 67, 90
5, 26010, Note_on_c, 2, 67, 0
5, 26010, Note_on_c, 2, 55, 0
5, 26040, Note_on_c, 2, 55, 90
5, 26040, Note_on_c, 2, 67, 90
5, 26100, Note_on_c, 2, 67, 0
5, 26100, Note_on_c, 2, 55, 0
5, 26160, Note_on_c, 2, 55, 90
5, 26160, Note_on_c, 2, 67, 90
5, 26220, Note_on_c, 2, 67, 0
5, 26220, Note_on_c, 2, 55, 0
5, 26220, Note_on_c, 2, 57, 90
5, 26220, Note_on_c, 2, 69, 90
5, 26250, Note_on_c, 2, 69, 0
5, 26250, Note_on_c, 2, 57, 0
5, 26280, Note_on_c, 2, 59, 90
5, 26280, Note_on_c, 2, 71, 90
5, 26310, Note_on_c, 2, 71, 0
5, 26310, Note_on_c, 2, 59, 0
5, 26340, Note_on_c, 2, 60, 90
5, 26340, Note_on_c, 2, 72, 90
5, 26370, Note_on_c, 2, 72, 0
5, 26370, Note_on_c, 2, 60, 0
5, 26460, Note_on_c, 2, 59, 90
5, 26460, Note_on_c, 2, 71, 90
5, 26490, Note_on_c, 2, 71, 0
5, 26490, Note_on_c, 2, 59, 0
5, 26580, Note_on_c, 2, 67, 90
5, 26580, Note_on_c, 2, 79, 90
5, 26610, Note_on_c, 2, 79, 0
5, 26610, Note_on_c, 2, 67, 0
5, 26700, Note_on_c, 2, 64, 90
5, 26700, Note_on_c, 2, 76, 90
5, 26730, Note_on_c, 2, 76, 0
5, 26730, Note_on_c, 2, 64, 0
5, 26760, Note_on_c, 2, 62, 90
5, 26760, Note_on_c, 2, 74, 90
5, 26790, Note_on_c, 2, 74, 0
5, 26790, Note_on_c, 2, 62, 0
5, 26820, Note_on_c, 2, 57, 90
5, 26820, Note_on_c, 2, 69, 90
5, 26940, Note_on_c, 2, 69, 0
5, 26940, Note_on_c, 2, 57, 0
5, 26940, Note_on_c, 2, 55, 90
5, 26940, Note_on_c, 2, 67, 90
5, 26970, Note_on_c, 2, 67, 0
5, 26970, Note_on_c, 2, 55, 0
5, 27000, Note_on_c, 2, 55, 90
5, 27000, Note_on_c, 2, 67, 90
5, 27060, Note_on_c, 2, 67, 0
5, 27060, Note_on_c, 2, 55, 0
5, 27120, Note_on_c, 2, 55, 90
5, 27120, Note_on_c, 2, 67, 90
5, 27180, Note_on_c, 2, 67, 0
5, 27180, Note_on_c, 2, 55, 0
5, 27180, Note_on_c, 2, 57, 90
5, 27180, Note_on_c, 2, 69, 90
5, 27210, Note_on_c, 2, 69, 0
5, 27210, Note_on_c, 2, 57, 0
5, 27240, Note_on_c, 2, 59, 90
5, 27240, Note_on_c, 2, 71, 90
5, 27270, Note_on_c, 2, 71, 0
5, 27270, Note_on_c, 2, 59, 0
5, 27300, Note_on_c, 2, 57, 90
5, 27300, Note_on_c, 2, 69, 90
5, 27420, Note_on_c, 2, 69, 0
5, 27420, Note_on_c, 2, 57, 0
5, 27420, Note_on_c, 2, 55, 90
5, 27420, Note_on_c, 2, 67, 90
5, 27450, Note_on_c, 2, 67, 0
5, 27450, Note_on_c, 2, 55, 0
5, 27480, Note_on_c, 2, 55, 90
5, 27480, Note_on_c, 2, 67, 90
5, 27540, Note_on_c, 2, 67, 0
5, 27540, Note_on_c, 2, 55, 0
5, 27600, Note_on_c, 2, 55, 90
5, 27600, Note_on_c, 2, 67, 90
5, 27660, Note_on_c, 2, 67, 0
5, 27660, Note_on_c, 2, 55, 0
5, 27660, Note_on_c, 2, 57, 90
5, 27660, Note_on_c, 2, 69, 90
5, 27690, Note_on_c, 2, 69, 0
5, 27690, Note_on_c, 2, 57, 0
5, 27720, Note_on_c, 2, 59, 90
5, 27720, Note_on_c, 2, 71, 90
5, 27750, Note_on_c, 2, 71, 0
5, 27750, Note_on_c, 2, 59, 0
5, 27780, Note_on_c, 2, 60, 90
5, 27780, Note_on_c, 2, 72, 90
5, 28320, Note_on_c, 2, 72, 0
5, 28320, Note_on_c, 2, 60, 0
5, 28800, Note_on_c, 2, 71, 100
5, 29040, Note_on_c, 2, 71, 0
5, 29040, Note_on_c, 2, 64, 100
5, 29280, Note_on_c, 2, 64, 0
5, 29520, Note_on_c, 2, 62, 100
5, 29580, Note_on_c, 2, 62, 0
5, 29580, Note_on_c, 2, 64, 100
5, 29640, Note_on_c, 2, 64, 0
5, 29640, Note_on_c, 2, 67, 100
5, 29700, Note_on_c, 2, 67, 0
5, 29700, Note_on_c, 2, 72, 100
5, 29760, Note_on_c, 2, 72, 0
5, 29760, Note_on_c, 2, 69, 100
5, 30000, Note_on_c, 2, 69, 0
5, 30000, Note_on_c, 2, 62, 100
5, 30240, Note_on_c, 2, 62, 0
5, 30360, Note_on_c, 2, 61, 100
5, 30480, Note_on_c, 2, 61, 0
5, 30480, Note_on_c, 2, 64, 100
5, 30540, Note_on_c, 2, 64, 0
5, 30540, Note_on_c, 2, 63, 100
5, 30660, Note_on_c, 2, 63, 0
5, 30660, Note_on_c, 2, 66, 100
5, 30720, Note_on_c, 2, 66, 0
5, 30720, Note_on_c, 2, 71, 100
5, 30960, Note_on_c, 2, 71, 0
5, 30960, Note_on_c, 2, 64, 100
5, 31200, Note_on_c, 2, 64, 0
5, 31440, Note_on_c, 2, 62, 100
5, 31500, Note_on_c, 2, 62, 0
5, 31500, Note_on_c, 2, 64, 100
5, 31560, Note_on_c, 2, 64, 0
5, 31560, Note_on_c, 2, 67, 100
5, 31620, Note_on_c, 2, 67, 0
5, 31620, Note_on_c, 2, 72, 100
5, 31680, Note_on_c, 2, 72, 0
5, 31680, Note_on_c, 2, 69, 100
5, 31920, Note_on_c, 2, 69, 0
5, 31920, Note_on_c, 2, 62, 100
5, 32160, Note_on_c, 2, 62, 0
5, 32280, Note_on_c, 2, 61, 100
5, 32400, Note_on_c, 2, 61, 0
5, 32400, Note_on_c, 2, 64, 100
5, 32460, Note_on_c, 2, 64, 0
5, 32460, Note_on_c, 2, 67, 100
5, 32580, Note_on_c, 2, 67, 0
5, 32580, Note_on_c, 2, 71, 100
5, 32640, Note_on_c, 2, 71, 0
5, 32640, Note_on_c, 2, 74, 100
5, 32820, Note_on_c, 2, 72, 100
5, 32880, Note_on_c, 2, 74, 0
5, 33000, Note_on_c, 2, 72, 0
5, 33060, Note_on_c, 2, 71, 100
5, 33240, Note_on_c, 2, 71, 0
5, 33240, Note_on_c, 2, 69, 100
5, 33600, Note_on_c, 2, 69, 0
5, 33600, Note_on_c, 2, 69, 100
5, 33780, Note_on_c, 2, 69, 0
5, 33780, Note_on_c, 2, 67, 100
5, 33960, Note_on_c, 2, 67, 0
5, 34020, Note_on_c, 2, 66, 100
5, 34200, Note_on_c, 2, 66, 0
5, 34200, Note_on_c, 2, 64, 100
5, 34560, Note_on_c, 2, 64, 0
5, 34560, Note_on_c, 2, 74, 100
5, 34740, Note_on_c, 2, 72, 100
5, 34800, Note_on_c, 2, 74, 0
5, 34920, Note_on_c, 2, 72, 0
5, 34980, Note_on_c, 2, 71, 100
5, 35160, Note_on_c, 2, 71, 0
5, 35160, Note_on_c, 2, 69, 100
5, 35520, Note_on_c, 2, 69, 0
5, 35520, Note_on_c, 2, 69, 90
5, 35700, Note_on_c, 2, 69, 0
5, 35700, Note_on_c, 2, 67, 90
5, 35880, Note_on_c, 2, 67, 0
5, 36000, Note_on_c, 2, 67, 90
5, 36180, Note_on_c, 2, 67, 0
5, 36180, Note_on_c, 2, 65, 90
5, 36360, Note_on_c, 2, 65, 0
5, 36480, Note_on_c, 2, 65, 90
5, 36660, Note_on_c, 2, 65, 0
5, 36660, Note_on_c, 2, 63, 90
5, 36780, Note_on_c, 2, 65, 90
5, 36840, Note_on_c, 2, 63, 0
5, 36840, Note_on_c, 2, 62, 90
5, 36960, Note_on_c, 2, 65, 0
5, 37080, Note_on_c, 2, 62, 0
5, 37920, Control_c, 2, 64, 100
5, 37920, Note_on_c, 2, 55, 65
5, 37920, Note_on_c, 2, 67, 65
5, 37950, Note_on_c, 2, 67, 0
5, 37950, Note_on_c, 2, 55, 0
5, 37980, Note_on_c, 2, 55, 65
5, 38010, Note_on_c, 2, 55, 0
5, 38010, Note_on_c, 2, 62, 65
5, 38040, Note_on_c, 2, 62, 0
5, 38040, Note_on_c, 2, 55, 65
5, 38070, Note_on_c, 2, 55, 0
5, 38070, Note_on_c, 2, 67, 65
5, 38100, Note_on_c, 2, 67, 0
5, 38100, Note_on_c, 2, 55, 65
5, 38130, Note_on_c, 2, 55, 0
5, 38160, Note_on_c, 2, 67, 65
5, 38160, Note_on_c, 2, 55, 65
5, 38190, Note_on_c, 2, 55, 0
5, 38190, Note_on_c, 2, 67, 0
5, 38220, Note_on_c, 2, 55, 65
5, 38250, Note_on_c, 2, 55, 0
5, 38250, Note_on_c, 2, 62, 65
5, 38280, Note_on_c, 2, 62, 0
5, 38280, Note_on_c, 2, 55, 65
5, 38310, Note_on_c, 2, 55, 0
5, 38310, Note_on_c, 2, 67, 65
5, 38340, Note_on_c, 2, 67, 0
5, 38340, Note_on_c, 2, 55, 65
5, 38370, Note_on_c, 2, 55, 0
5, 38400, Control_c, 2, 64, 100
5, 38400, Note_on_c, 2, 55, 65
5, 38400, Note_on_c, 2, 67, 65
5, 38430, Note_on_c, 2, 67, 0
5, 38430, Note_on_c, 2, 55, 0
5, 38460, Note_on_c, 2, 55, 65
5, 38490, Note_on_c, 2, 55, 0
5, 38490, Note_on_c, 2, 62, 65
5, 38520, Note_on_c, 2, 62, 0
5, 38520, Note_on_c, 2, 55, 65
5, 38550, Note_on_c, 2, 55, 0
5, 38550, Note_on_c, 2, 67, 65
5, 38580, Note_on_c, 2, 67, 0
5, 38580, Note_on_c, 2, 55, 65
5, 38610, Note_on_c, 2, 55, 0
5, 38640, Note_on_c, 2, 67, 65
5, 38640, Note_on_c, 2, 55, 65
5, 38670, Note_on_c, 2, 55, 0
5, 38670, Note_on_c, 2, 67, 0
5, 38700, Note_on_c, 2, 55, 65
5, 38730, Note_on_c, 2, 55, 0
5, 38730, Note_on_c, 2, 62, 65
5, 38760, Note_on_c, 2, 62, 0
5, 38760, Note_on_c, 2, 55, 65
5, 38790, Note_on_c, 2, 55, 0
5, 38790, Note_on_c, 2, 67, 65
5, 38820, Note_on_c, 2, 67, 0
5, 38820, Note_on_c, 2, 55, 65
5, 38850, Note_on_c, 2, 55, 0
5, 38880, Control_c, 2, 64, 100
5, 38880, Note_on_c, 2, 55, 65
5, 38880, Note_on_c, 2, 67, 65
5, 38910, Note_on_c, 2, 67, 0
5, 38910, Note_on_c, 2, 55, 0
5, 38940, Note_on_c, 2, 55, 65
5, 38970, Note_on_c, 2, 55, 0
5, 38970, Note_on_c, 2, 62, 65
5, 39000, Note_on_c, 2, 62, 0
5, 39000, Note_on_c, 2, 55, 65
5, 39030, Note_on_c, 2, 55, 0
5, 39030, Note_on_c, 2, 67, 65
5, 39060, Note_on_c, 2, 67, 0
5, 39060, Note_on_c, 2, 55, 65
5, 39090, Note_on_c, 2, 55, 0
5, 39120, Note_on_c, 2, 67, 65
5, 39120, Note_on_c, 2, 55, 65
5, 39150, Note_on_c, 2, 55, 0
5, 39150, Note_on_c, 2, 67, 0
5, 39180, Note_on_c, 2, 55, 65
5, 39210, Note_on_c, 2, 55, 0
5, 39210, Note_on_c, 2, 62, 65
5, 39240, Note_on_c, 2, 62, 0
5, 39240, Note_on_c, 2, 55, 65
5, 39270, Note_on_c, 2, 55, 0
5, 39270, Note_on_c, 2, 67, 65
5, 39300, Note_on_c, 2, 67, 0
5, 39300, Note_on_c, 2, 55, 65
5, 39330, Note_on_c, 2, 55, 0
5, 39360, Control_c, 2, 64, 100
5, 39360, Note_on_c, 2, 55, 65
5, 39360, Note_on_c, 2, 67, 65
5, 39390, Note_on_c, 2, 67, 0
5, 39390, Note_on_c, 2, 55, 0
5, 39420, Note_on_c, 2, 55, 65
5, 39450, Note_on_c, 2, 55, 0
5, 39450, Note_on_c, 2, 62, 65
5, 39480, Note_on_c, 2, 62, 0
5, 39480, Note_on_c, 2, 55, 65
5, 39510, Note_on_c, 2, 55, 0
5, 39510, Note_on_c, 2, 67, 65
5, 39540, Note_on_c, 2, 67, 0
5, 39540, Note_on_c, 2, 55, 65
5, 39570, Note_on_c, 2, 55, 0
5, 39600, Note_on_c, 2, 67, 65
5, 39600, Note_on_c, 2, 55, 65
5, 39630, Note_on_c, 2, 55, 0
5, 39630, Note_on_c, 2, 67, 0
5, 39660, Note_on_c, 2, 55, 65
5, 39690, Note_on_c, 2, 55, 0
5, 39690, Note_on_c, 2, 62, 65
5, 39720, Note_on_c, 2, 62, 0
5, 39720, Note_on_c, 2, 55, 65
5, 39750, Note_on_c, 2, 55, 0
5, 39750, Note_on_c, 2, 67, 65
5, 39780, Note_on_c, 2, 67, 0
5, 39780, Note_on_c, 2, 55, 65
5, 39810, Note_on_c, 2, 55, 0
5, 39840, Control_c, 2, 64, 0
5, 40195, Note_on_c, 2, 69, 100
5, 40199, Note_on_c, 2, 69, 0
5, 40200, Note_on_c, 2, 59, 100
5, 40200, Note_on_c, 2, 57, 100
5, 40200, Note_on_c, 2, 71, 100
5, 40204, Note_on_c, 2, 57, 0
5, 40260, Note_on_c, 2, 71, 0
5, 40260, Note_on_c, 2, 59, 0
5, 40260, Note_on_c, 2, 64, 100
5, 40260, Note_on_c, 2, 76, 100
5, 40319, Note_on_c, 2, 76, 0
5, 40319, Note_on_c, 2, 64, 0
5, 40320, Note_on_c, 2, 62, 80
5, 40320, Note_on_c, 2, 74, 80
5, 40440, Note_on_c, 2, 74, 0
5, 40440, Note_on_c, 2, 62, 0
5, 40560, Note_on_c, 2, 67, 100
5, 40615, Note_on_c, 2, 67, 0
5, 40620, Note_on_c, 2, 64, 100
5, 40650, Note_on_c, 2, 64, 0
5, 40680, Note_on_c, 2, 67, 100
5, 40710, Note_on_c, 2, 67, 0
5, 40710, Note_on_c, 2, 67, 100
5, 40740, Note_on_c, 2, 67, 0
5, 40740, Note_on_c, 2, 64, 100
5, 40770, Note_on_c, 2, 64, 0
5, 40800, Note_on_c, 2, 67, 100
5, 40800, Control_c, 2, 64, 0
5, 40855, Note_on_c, 2, 67, 0
5, 40860, Note_on_c, 2, 69, 100
5, 40920, Pitch_bend_c, 2, 8448
5, 40921, Pitch_bend_c, 2, 8960
5, 40925, Pitch_bend_c, 2, 9344
5, 40926, Pitch_bend_c, 2, 9472
5, 40928, Pitch_bend_c, 2, 9856
5, 40930, Pitch_bend_c, 2, 10112
5, 40931, Pitch_bend_c, 2, 10496
5, 40933, Pitch_bend_c, 2, 11136
5, 40935, Pitch_bend_c, 2, 12032
5, 40936, Pitch_bend_c, 2, 12416
5, 40938, Pitch_bend_c, 2, 12928
5, 40940, Pitch_bend_c, 2, 13440
5, 40941, Pitch_bend_c, 2, 13952
5, 40943, Pitch_bend_c, 2, 14464
5, 40945, Pitch_bend_c, 2, 14720
5, 40946, Pitch_bend_c, 2, 15104
5, 40948, Pitch_bend_c, 2, 15872
5, 40950, Note_on_c, 2, 69, 0
5, 40950, Pitch_bend_c, 2, 16383
5, 41036, Pitch_bend_c, 2, 8192
5, 41155, Note_on_c, 2, 69, 100
5, 41159, Note_on_c, 2, 69, 0
5, 41160, Note_on_c, 2, 59, 100
5, 41160, Note_on_c, 2, 57, 100
5, 41160, Note_on_c, 2, 71, 100
5, 41164, Note_on_c, 2, 57, 0
5, 41220, Note_on_c, 2, 71, 0
5, 41220, Note_on_c, 2, 59, 0
5, 41220, Note_on_c, 2, 64, 100
5, 41220, Note_on_c, 2, 76, 100
5, 41279, Note_on_c, 2, 76, 0
5, 41279, Note_on_c, 2, 64, 0
5, 41280, Note_on_c, 2, 62, 80
5, 41280, Note_on_c, 2, 74, 80
5, 41400, Note_on_c, 2, 74, 0
5, 41400, Note_on_c, 2, 62, 0
5, 41520, Note_on_c, 2, 66, 100
5, 41520, Note_on_c, 2, 71, 100
5, 41550, Note_on_c, 2, 71, 0
5, 41550, Note_on_c, 2, 66, 0
5, 41610, Note_on_c, 2, 64, 100
5, 41610, Note_on_c, 2, 69, 100
5, 41640, Note_on_c, 2, 69, 0
5, 41640, Note_on_c, 2, 64, 0
5, 41700, Note_on_c, 2, 62, 100
5, 41700, Note_on_c, 2, 67, 100
5, 41729, Note_on_c, 2, 67, 0
5, 41729, Note_on_c, 2, 62, 0
5, 41730, Note_on_c, 2, 64, 100
5, 41730, Note_on_c, 2, 69, 100
5, 41760, Note_on_c, 2, 69, 0
5, 41760, Note_on_c, 2, 64, 0
5, 41760, Note_on_c, 2, 62, 100
5, 41760, Note_on_c, 2, 67, 100
5, 41880, Note_on_c, 2, 67, 0
5, 41880, Note_on_c, 2, 62, 0
5, 42060, Note_on_c, 2, 55, 100
5, 42089, Note_on_c, 2, 55, 0
5, 42120, Note_on_c, 2, 55, 100
5, 42180, Note_on_c, 2, 55, 0
5, 42180, Note_on_c, 2, 57, 100
5, 42210, Note_on_c, 2, 57, 0
5, 42240, Note_on_c, 2, 57, 100
5, 42300, Note_on_c, 2, 57, 0
5, 42300, Note_on_c, 2, 59, 100
5, 42330, Note_on_c, 2, 59, 0
5, 42360, Note_on_c, 2, 59, 100
5, 42420, Note_on_c, 2, 59, 0
5, 42420, Note_on_c, 2, 60, 100
5, 42450, Note_on_c, 2, 60, 0
5, 42480, Note_on_c, 2, 60, 100
5, 42540, Note_on_c, 2, 60, 0
5, 42540, Note_on_c, 2, 62, 100
5, 42570, Note_on_c, 2, 62, 0
5, 42600, Note_on_c, 2, 62, 100
5, 42660, Note_on_c, 2, 62, 0
5, 42660, Note_on_c, 2, 67, 100
5, 43020, Note_on_c, 2, 67, 0
5, 43080, Note_on_c, 2, 62, 100
5, 43120, Note_on_c, 2, 62, 0
5, 43120, Note_on_c, 2, 67, 100
5, 43160, Note_on_c, 2, 67, 0
5, 43160, Note_on_c, 2, 66, 100
5, 43200, Note_on_c, 2, 66, 0
5, 43200, Note_on_c, 2, 64, 70
5, 43240, Note_on_c, 2, 64, 0
5, 43240, Note_on_c, 2, 66, 80
5, 43280, Note_on_c, 2, 66, 0
5, 43280, Note_on_c, 2, 67, 80
5, 43320, Note_on_c, 2, 67, 0
5, 43320, Note_on_c, 2, 62, 80
5, 43360, Note_on_c, 2, 62, 0
5, 43360, Note_on_c, 2, 64, 80
5, 43400, Note_on_c, 2, 64, 0
5, 43400, Note_on_c, 2, 66, 80
5, 43440, Note_on_c, 2, 66, 0
5, 43440, Note_on_c, 2, 62, 80
5, 43680, Note_on_c, 2, 62, 0
5, 44040, Note_on_c, 2, 59, 100
5, 44070, Note_on_c, 2, 59, 0
5, 44070, Note_on_c, 2, 62, 100
5, 44100, Note_on_c, 2, 62, 0
5, 44100, Note_on_c, 2, 64, 100
5, 44130, Note_on_c, 2, 64, 0
5, 44130, Note_on_c, 2, 62, 100
5, 44160, Note_on_c, 2, 62, 0
5, 44160, Note_on_c, 2, 67, 100
5, 44220, Note_on_c, 2, 67, 0
5, 44220, Note_on_c, 2, 69, 100
5, 44250, Note_on_c, 2, 69, 0
5, 44280, Note_on_c, 2, 71, 100
5, 44310, Note_on_c, 2, 71, 0
5, 44340, Note_on_c, 2, 74, 100
5, 44355, Note_on_c, 2, 76, 100
5, 44370, Note_on_c, 2, 74, 0
5, 44515, Note_on_c, 2, 76, 0
5, 44640, Note_on_c, 2, 69, 100
5, 44640, Note_on_c, 2, 74, 100
5, 44640, Pitch_bend_c, 2, 8320
5, 44642, Pitch_bend_c, 2, 8192
5, 44678, Pitch_bend_c, 2, 8192
5, 44681, Pitch_bend_c, 2, 6912
5, 44683, Pitch_bend_c, 2, 6528
5, 44685, Pitch_bend_c, 2, 6016
5, 44686, Pitch_bend_c, 2, 5632
5, 44688, Pitch_bend_c, 2, 4608
5, 44690, Pitch_bend_c, 2, 2816
5, 44691, Pitch_bend_c, 2, 2176
5, 44693, Pitch_bend_c, 2, 1536
5, 44695, Pitch_bend_c, 2, 768
5, 44696, Pitch_bend_c, 2, 512
5, 44698, Pitch_bend_c, 2, 256
5, 44700, Note_on_c, 2, 74, 0
5, 44700, Note_on_c, 2, 69, 0
5, 44700, Pitch_bend_c, 2, 128
5, 44715, Pitch_bend_c, 2, 8192
5, 44730, Note_on_c, 2, 67, 100
5, 44730, Note_on_c, 2, 72, 100
5, 44754, Pitch_bend_c, 2, 8192
5, 44756, Pitch_bend_c, 2, 8192
5, 44760, Pitch_bend_c, 2, 7936
5, 44763, Pitch_bend_c, 2, 7680
5, 44765, Pitch_bend_c, 2, 7296
5, 44766, Pitch_bend_c, 2, 7168
5, 44768, Pitch_bend_c, 2, 6912
5, 44770, Pitch_bend_c, 2, 6784
5, 44771, Pitch_bend_c, 2, 6272
5, 44773, Pitch_bend_c, 2, 6016
5, 44775, Pitch_bend_c, 2, 5760
5, 44776, Pitch_bend_c, 2, 5376
5, 44778, Pitch_bend_c, 2, 4864
5, 44780, Pitch_bend_c, 2, 4608
5, 44781, Pitch_bend_c, 2, 4096
5, 44783, Pitch_bend_c, 2, 3712
5, 44785, Pitch_bend_c, 2, 2944
5, 44786, Pitch_bend_c, 2, 2560
5, 44788, Pitch_bend_c, 2, 2304
5, 44790, Note_on_c, 2, 72, 0
5, 44790, Note_on_c, 2, 67, 0
5, 44790, Pitch_bend_c, 2, 1920
5, 44791, Pitch_bend_c, 2, 1280
5, 44793, Pitch_bend_c, 2, 896
5, 44795, Pitch_bend_c, 2, 640
5, 44796, Pitch_bend_c, 2, 128
5, 44816, Pitch_bend_c, 2, 8192
5, 44820, Note_on_c, 2, 62, 100
5, 44820, Note_on_c, 2, 67, 100
5, 44850, Note_on_c, 2, 67, 0
5, 44850, Note_on_c, 2, 62, 0
5, 44880, Note_on_c, 2, 64, 100
5, 44880, Note_on_c, 2, 69, 100
5, 44910, Note_on_c, 2, 69, 0
5, 44910, Note_on_c, 2, 64, 0
5, 44940, Note_on_c, 2, 64, 100
5, 44940, Note_on_c, 2, 69, 100
5, 44970, Note_on_c, 2, 69, 0
5, 44970, Note_on_c, 2, 64, 0
5, 45000, Note_on_c, 2, 62, 100
5, 45000, Note_on_c, 2, 67, 100
5, 45030, Note_on_c, 2, 67, 0
5, 45030, Note_on_c, 2, 62, 0
5, 45120, Note_on_c, 2, 62, 100
5, 45150, Note_on_c, 2, 62, 0
5, 45210, Note_on_c, 2, 62, 100
5, 45240, Note_on_c, 2, 62, 0
5, 45270, Note_on_c, 2, 62, 100
5, 45300, Note_on_c, 2, 62, 0
5, 45360, Note_on_c, 2, 62, 100
5, 45390, Note_on_c, 2, 62, 0
5, 45420, Note_on_c, 2, 62, 100
5, 45450, Note_on_c, 2, 62, 0
5, 45480, Note_on_c, 2, 62, 100
5, 45510, Note_on_c, 2, 62, 0
5, 45540, Note_on_c, 2, 59, 100
5, 45570, Note_on_c, 2, 59, 0
5, 45630, Note_on_c, 2, 62, 100
5, 45660, Note_on_c, 2, 62, 0
5, 45720, Note_on_c, 2, 62, 100
5, 45750, Note_on_c, 2, 62, 0
5, 45780, Note_on_c, 2, 62, 100
5, 45810, Note_on_c, 2, 62, 0
5, 45840, Note_on_c, 2, 60, 100
5, 45870, Note_on_c, 2, 60, 0
5, 45870, Note_on_c, 2, 59, 100
5, 45900, Note_on_c, 2, 59, 0
5, 45900, Note_on_c, 2, 57, 100
5, 45930, Note_on_c, 2, 57, 0
5, 45930, Note_on_c, 2, 55, 100
5, 45960, Note_on_c, 2, 55, 0
5, 45960, Note_on_c, 2, 54, 100
5, 45990, Note_on_c, 2, 54, 0
5, 45990, Note_on_c, 2, 52, 100
5, 46020, Note_on_c, 2, 52, 0
5, 46020, Note_on_c, 2, 50, 100
5, 46050, Note_on_c, 2, 50, 0
5, 46290, Note_on_c, 2, 50, 100
5, 46320, Note_on_c, 2, 50, 0
5, 46320, Note_on_c, 2, 55, 100
5, 46350, Note_on_c, 2, 55, 0
5, 46350, Note_on_c, 2, 50, 100
5, 46380, Note_on_c, 2, 50, 0
5, 46380, Note_on_c, 2, 55, 100
5, 46410, Note_on_c, 2, 55, 0
5, 46410, Note_on_c, 2, 50, 100
5, 46440, Note_on_c, 2, 50, 0
5, 46500, Note_on_c, 2, 59, 100
5, 46560, Note_on_c, 2, 59, 0
5, 46560, Note_on_c, 2, 62, 100
5, 46590, Note_on_c, 2, 62, 0
5, 46620, Note_on_c, 2, 64, 100
5, 46650, Note_on_c, 2, 64, 0
5, 46680, Note_on_c, 2, 64, 100
5, 46710, Note_on_c, 2, 64, 0
5, 46710, Note_on_c, 2, 62, 100
5, 46740, Note_on_c, 2, 62, 0
5, 46980, Note_on_c, 2, 64, 100
5, 47010, Note_on_c, 2, 64, 0
5, 47010, Note_on_c, 2, 62, 100
5, 47040, Note_on_c, 2, 62, 0
5, 47040, Note_on_c, 2, 64, 100
5, 47070, Note_on_c, 2, 64, 0
5, 47070, Note_on_c, 2, 62, 100
5, 47100, Note_on_c, 2, 62, 0
5, 47100, Note_on_c, 2, 59, 100
5, 47130, Note_on_c, 2, 59, 0
5, 47160, Note_on_c, 2, 62, 100
5, 47190, Note_on_c, 2, 62, 0
5, 47190, Note_on_c, 2, 59, 100
5, 47220, Note_on_c, 2, 59, 0
5, 47220, Note_on_c, 2, 62, 100
5, 47250, Note_on_c, 2, 62, 0
5, 47250, Note_on_c, 2, 64, 100
5, 47280, Note_on_c, 2, 64, 0
5, 47280, Note_on_c, 2, 62, 100
5, 47310, Note_on_c, 2, 62, 0
5, 47310, Note_on_c, 2, 64, 100
5, 47340, Note_on_c, 2, 64, 0
5, 47340, Note_on_c, 2, 66, 100
5, 47370, Note_on_c, 2, 66, 0
5, 47370, Note_on_c, 2, 67, 100
5, 47400, Note_on_c, 2, 67, 0
5, 47400, Note_on_c, 2, 69, 100
5, 47430, Note_on_c, 2, 69, 0
5, 47460, Note_on_c, 2, 67, 100
5, 47490, Note_on_c, 2, 67, 0
5, 47490, Note_on_c, 2, 69, 100
5, 47520, Note_on_c, 2, 69, 0
5, 47580, Note_on_c, 2, 74, 100
5, 47610, Note_on_c, 2, 74, 0
5, 47640, Note_on_c, 2, 74, 100
5, 47700, Note_on_c, 2, 74, 0
5, 47700, Note_on_c, 2, 72, 100
5, 47730, Note_on_c, 2, 72, 0
5, 47760, Note_on_c, 2, 72, 100
5, 47820, Note_on_c, 2, 72, 0
5, 47820, Note_on_c, 2, 71, 100
5, 47850, Note_on_c, 2, 71, 0
5, 47880, Note_on_c, 2, 71, 100
5, 47940, Note_on_c, 2, 71, 0
5, 47940, Note_on_c, 2, 69, 100
5, 47970, Note_on_c, 2, 69, 0
5, 48000, Note_on_c, 2, 71, 100
5, 48060, Note_on_c, 2, 71, 0
5, 48060, Note_on_c, 2, 72, 100
5, 48090, Note_on_c, 2, 72, 0
5, 48120, Note_on_c, 2, 71, 100
5, 48150, Note_on_c, 2, 71, 0
5, 48210, Note_on_c, 2, 69, 100
5, 48240, Note_on_c, 2, 69, 0
5, 48240, Note_on_c, 2, 71, 100
5, 48270, Note_on_c, 2, 71, 0
5, 48300, Note_on_c, 2, 69, 100
5, 48330, Note_on_c, 2, 69, 0
5, 48390, Note_on_c, 2, 67, 100
5, 48420, Note_on_c, 2, 67, 0
5, 48420, Note_on_c, 2, 69, 100
5, 48450, Note_on_c, 2, 69, 0
5, 48480, Note_on_c, 2, 67, 100
5, 48510, Note_on_c, 2, 67, 0
5, 48780, Note_on_c, 2, 62, 100
5, 48799, Note_on_c, 2, 62, 0
5, 48800, Note_on_c, 2, 64, 90
5, 48819, Note_on_c, 2, 64, 0
5, 48820, Note_on_c, 2, 66, 80
5, 48839, Note_on_c, 2, 66, 0
5, 48840, Note_on_c, 2, 67, 100
5, 48859, Note_on_c, 2, 67, 0
5, 48860, Note_on_c, 2, 69, 90
5, 48879, Note_on_c, 2, 69, 0
5, 48880, Note_on_c, 2, 71, 80
5, 48899, Note_on_c, 2, 71, 0
5, 48900, Note_on_c, 2, 62, 100
5, 48919, Note_on_c, 2, 62, 0
5, 48920, Note_on_c, 2, 64, 90
5, 48939, Note_on_c, 2, 64, 0
5, 48940, Note_on_c, 2, 66, 80
5, 48959, Note_on_c, 2, 66, 0
5, 48960, Note_on_c, 2, 67, 100
5, 48979, Note_on_c, 2, 67, 0
5, 48980, Note_on_c, 2, 69, 90
5, 48999, Note_on_c, 2, 69, 0
5, 49000, Note_on_c, 2, 71, 80
5, 49019, Note_on_c, 2, 71, 0
5, 49020, Note_on_c, 2, 62, 100
5, 49039, Note_on_c, 2, 62, 0
5, 49040, Note_on_c, 2, 64, 90
5, 49059, Note_on_c, 2, 64, 0
5, 49060, Note_on_c, 2, 66, 80
5, 49079, Note_on_c, 2, 66, 0
5, 49080, Note_on_c, 2, 67, 100
5, 49099, Note_on_c, 2, 67, 0
5, 49100, Note_on_c, 2, 69, 90
5, 49119, Note_on_c, 2, 69, 0
5, 49120, Note_on_c, 2, 71, 80
5, 49139, Note_on_c, 2, 71, 0
5, 49140, Note_on_c, 2, 62, 100
5, 49159, Note_on_c, 2, 62, 0
5, 49160, Note_on_c, 2, 64, 90
5, 49179, Note_on_c, 2, 64, 0
5, 49180, Note_on_c, 2, 66, 80
5, 49199, Note_on_c, 2, 66, 0
5, 49200, Note_on_c, 2, 67, 100
5, 49219, Note_on_c, 2, 67, 0
5, 49220, Note_on_c, 2, 69, 90
5, 49239, Note_on_c, 2, 69, 0
5, 49240, Note_on_c, 2, 71, 80
5, 49259, Note_on_c, 2, 71, 0
5, 49260, Note_on_c, 2, 62, 100
5, 49279, Note_on_c, 2, 62, 0
5, 49280, Note_on_c, 2, 64, 90
5, 49299, Note_on_c, 2, 64, 0
5, 49300, Note_on_c, 2, 66, 80
5, 49319, Note_on_c, 2, 66, 0
5, 49320, Note_on_c, 2, 67, 100
5, 49339, Note_on_c, 2, 67, 0
5, 49340, Note_on_c, 2, 69, 90
5, 49359, Note_on_c, 2, 69, 0
5, 49360, Note_on_c, 2, 71, 80
5, 49379, Note_on_c, 2, 71, 0
5, 49380, Note_on_c, 2, 62, 100
5, 49399, Note_on_c, 2, 62, 0
5, 49400, Note_on_c, 2, 64, 90
5, 49419, Note_on_c, 2, 64, 0
5, 49420, Note_on_c, 2, 66, 80
5, 49439, Note_on_c, 2, 66, 0
5, 49440, Note_on_c, 2, 67, 100
5, 49459, Note_on_c, 2, 67, 0
5, 49460, Note_on_c, 2, 69, 90
5, 49479, Note_on_c, 2, 69, 0
5, 49480, Note_on_c, 2, 71, 80
5, 49499, Note_on_c, 2, 71, 0
5, 49500, Note_on_c, 2, 62, 100
5, 49519, Note_on_c, 2, 62, 0
5, 49520, Note_on_c, 2, 64, 90
5, 49539, Note_on_c, 2, 64, 0
5, 49540, Note_on_c, 2, 66, 80
5, 49559, Note_on_c, 2, 66, 0
5, 49560, Note_on_c, 2, 67, 100
5, 49579, Note_on_c, 2, 67, 0
5, 49580, Note_on_c, 2, 69, 90
5, 49599, Note_on_c, 2, 69, 0
5, 49600, Note_on_c, 2, 71, 80
5, 49619, Note_on_c, 2, 71, 0
5, 49620, Note_on_c, 2, 62, 100
5, 49639, Note_on_c, 2, 62, 0
5, 49640, Note_on_c, 2, 64, 90
5, 49659, Note_on_c, 2, 64, 0
5, 49660, Note_on_c, 2, 66, 80
5, 49679, Note_on_c, 2, 66, 0
5, 49680, Note_on_c, 2, 67, 100
5, 49699, Note_on_c, 2, 67, 0
5, 49700, Note_on_c, 2, 69, 90
5, 49719, Note_on_c, 2, 69, 0
5, 49720, Note_on_c, 2, 71, 80
5, 49739, Note_on_c, 2, 71, 0
5, 49740, Note_on_c, 2, 62, 100
5, 49759, Note_on_c, 2, 62, 0
5, 49760, Note_on_c, 2, 64, 90
5, 49779, Note_on_c, 2, 64, 0
5, 49780, Note_on_c, 2, 66, 80
5, 49799, Note_on_c, 2, 66, 0
5, 49800, Note_on_c, 2, 67, 100
5, 49819, Note_on_c, 2, 67, 0
5, 49820, Note_on_c, 2, 69, 90
5, 49839, Note_on_c, 2, 69, 0
5, 49840, Note_on_c, 2, 71, 80
5, 49859, Note_on_c, 2, 71, 0
5, 50160, Note_on_c, 2, 78, 100
5, 50220, Note_on_c, 2, 78, 0
5, 50220, Note_on_c, 2, 76, 100
5, 50250, Note_on_c, 2, 76, 0
5, 50280, Note_on_c, 2, 74, 100
5, 50340, Note_on_c, 2, 74, 0
5, 50340, Note_on_c, 2, 71, 100
5, 50400, Note_on_c, 2, 71, 0
5, 50400, Note_on_c, 2, 74, 100
5, 50460, Note_on_c, 2, 74, 0
5, 50460, Note_on_c, 2, 76, 100
5, 50515, Note_on_c, 2, 70, 100
5, 50519, Note_on_c, 2, 70, 0
5, 50520, Note_on_c, 2, 76, 0
5, 50520, Note_on_c, 2, 69, 100
5, 50580, Note_on_c, 2, 69, 0
5, 50580, Note_on_c, 2, 67, 100
5, 50640, Note_on_c, 2, 67, 0
5, 50640, Note_on_c, 2, 69, 100
5, 50700, Note_on_c, 2, 69, 0
5, 50730, Note_on_c, 2, 71, 100
5, 50760, Note_on_c, 2, 71, 0
5, 50760, Note_on_c, 2, 74, 100
5, 50790, Note_on_c, 2, 74, 0
5, 50820, Note_on_c, 2, 67, 100
5, 50850, Note_on_c, 2, 67, 0
5, 50880, Note_on_c, 2, 67, 100
5, 50910, Note_on_c, 2, 67, 0
5, 50910, Note_on_c, 2, 69, 100
5, 50940, Note_on_c, 2, 69, 0
5, 51000, Note_on_c, 2, 62, 100
5, 51030, Note_on_c, 2, 62, 0
5, 51060, Note_on_c, 2, 65, 100
5, 51090, Note_on_c, 2, 65, 0
5, 51090, Note_on_c, 2, 64, 100
5, 51120, Note_on_c, 2, 64, 0
5, 51120, Note_on_c, 2, 62, 100
5, 51150, Note_on_c, 2, 62, 0
5, 51150, Note_on_c, 2, 61, 100
5, 51180, Note_on_c, 2, 61, 0
5, 51180, Note_on_c, 2, 62, 100
5, 51210, Note_on_c, 2, 62, 0
5, 51210, Note_on_c, 2, 64, 100
5, 51240, Note_on_c, 2, 64, 0
5, 51240, Note_on_c, 2, 65, 100
5, 51270, Note_on_c, 2, 65, 0
5, 51270, Note_on_c, 2, 66, 100
5, 51300, Note_on_c, 2, 66, 0
5, 51300, Note_on_c, 2, 67, 100
5, 51330, Note_on_c, 2, 67, 0
5, 51330, Note_on_c, 2, 74, 100
5, 51360, Note_on_c, 2, 74, 0
5, 51360, Note_on_c, 2, 71, 100
5, 51390, Note_on_c, 2, 71, 0
5, 51840, Note_on_c, 2, 62, 100
5, 51870, Note_on_c, 2, 62, 0
5, 51870, Note_on_c, 2, 67, 100
5, 51900, Note_on_c, 2, 67, 0
5, 51900, Note_on_c, 2, 60, 100
5, 51930, Note_on_c, 2, 60, 0
5, 51930, Note_on_c, 2, 62, 100
5, 51960, Note_on_c, 2, 62, 0
5, 51960, Note_on_c, 2, 69, 100
5, 51990, Note_on_c, 2, 69, 0
5, 51990, Note_on_c, 2, 60, 100
5, 52020, Note_on_c, 2, 60, 0
5, 52020, Note_on_c, 2, 62, 100
5, 52050, Note_on_c, 2, 62, 0
5, 52050, Note_on_c, 2, 71, 100
5, 52080, Note_on_c, 2, 71, 0
5, 52080, Note_on_c, 2, 60, 100
5, 52110, Note_on_c, 2, 60, 0
5, 52110, Note_on_c, 2, 62, 100
5, 52140, Note_on_c, 2, 62, 0
5, 52140, Note_on_c, 2, 72, 100
5, 52170, Note_on_c, 2, 72, 0
5, 52170, Note_on_c, 2, 60, 100
5, 52200, Note_on_c, 2, 60, 0
5, 52200, Note_on_c, 2, 62, 100
5, 52230, Note_on_c, 2, 62, 0
5, 52230, Note_on_c, 2, 74, 100
5, 52260, Note_on_c, 2, 74, 0
5, 52260, Note_on_c, 2, 60, 100
5, 52290, Note_on_c, 2, 60, 0
5, 52290, Note_on_c, 2, 62, 100
5, 52320, Note_on_c, 2, 62, 0
5, 52320, Note_on_c, 2, 72, 100
5, 52350, Note_on_c, 2, 72, 0
5, 52350, Note_on_c, 2, 60, 100
5, 52380, Note_on_c, 2, 60, 0
5, 52380, Note_on_c, 2, 62, 100
5, 52410, Note_on_c, 2, 62, 0
5, 52410, Note_on_c, 2, 71, 100
5, 52440, Note_on_c, 2, 71, 0
5, 52440, Note_on_c, 2, 60, 100
5, 52470, Note_on_c, 2, 60, 0
5, 52470, Note_on_c, 2, 62, 100
5, 52500, Note_on_c, 2, 62, 0
5, 52500, Note_on_c, 2, 69, 100
5, 52530, Note_on_c, 2, 69, 0
5, 52530, Note_on_c, 2, 60, 100
5, 52560, Note_on_c, 2, 60, 0
5, 52560, Note_on_c, 2, 62, 100
5, 52590, Note_on_c, 2, 62, 0
5, 52590, Note_on_c, 2, 67, 100
5, 52620, Note_on_c, 2, 67, 0
5, 52620, Note_on_c, 2, 60, 100
5, 52650, Note_on_c, 2, 60, 0
5, 52650, Note_on_c, 2, 62, 100
5, 52680, Note_on_c, 2, 62, 0
5, 52680, Note_on_c, 2, 66, 100
5, 52710, Note_on_c, 2, 66, 0
5, 52710, Note_on_c, 2, 60, 100
5, 52740, Note_on_c, 2, 60, 0
5, 52740, Note_on_c, 2, 62, 100
5, 52770, Note_on_c, 2, 62, 0
5, 52770, Note_on_c, 2, 64, 100
5, 52800, Note_on_c, 2, 64, 0
5, 52800, Note_on_c, 2, 62, 100
5, 52830, Note_on_c, 2, 62, 0
5, 52830, Note_on_c, 2, 60, 100
5, 52860, Note_on_c, 2, 60, 0
5, 52860, Note_on_c, 2, 59, 100
5, 52890, Note_on_c, 2, 59, 0
5, 52890, Note_on_c, 2, 57, 100
5, 52920, Note_on_c, 2, 57, 0
5, 52920, Note_on_c, 2, 55, 100
5, 52950, Note_on_c, 2, 55, 0
5, 52950, Note_on_c, 2, 53, 100
5, 52980, Note_on_c, 2, 53, 0
5, 52980, Note_on_c, 2, 52, 100
5, 53010, Note_on_c, 2, 52, 0
5, 53040, Note_on_c, 2, 52, 100
5, 53070, Note_on_c, 2, 52, 0
5, 53100, Note_on_c, 2, 52, 100
5, 53130, Note_on_c, 2, 52, 0
5, 53190, Note_on_c, 2, 52, 100
5, 53220, Note_on_c, 2, 52, 0
5, 53220, Note_on_c, 2, 52, 100
5, 53250, Note_on_c, 2, 52, 0
5, 53280, Note_on_c, 2, 52, 100
5, 53310, Note_on_c, 2, 52, 0
5, 53760, Note_on_c, 2, 72, 100
5, 53790, Note_on_c, 2, 72, 0
5, 53790, Note_on_c, 2, 71, 100
5, 53820, Note_on_c, 2, 71, 0
5, 53850, Note_on_c, 2, 69, 100
5, 53880, Note_on_c, 2, 69, 0
5, 53880, Note_on_c, 2, 67, 100
5, 53910, Note_on_c, 2, 67, 0
5, 53940, Note_on_c, 2, 66, 100
5, 53970, Note_on_c, 2, 66, 0
5, 53970, Note_on_c, 2, 64, 100
5, 54000, Note_on_c, 2, 64, 0
5, 54030, Note_on_c, 2, 62, 100
5, 54060, Note_on_c, 2, 62, 0
5, 54090, Note_on_c, 2, 62, 100
5, 54120, Note_on_c, 2, 62, 0
5, 54120, Note_on_c, 2, 62, 100
5, 54150, Note_on_c, 2, 62, 0
5, 54180, Note_on_c, 2, 62, 100
5, 54210, Note_on_c, 2, 62, 0
5, 54240, Note_on_c, 2, 62, 100
5, 54270, Note_on_c, 2, 62, 0
5, 54480, Note_on_c, 2, 67, 100
5, 54480, Note_on_c, 2, 71, 100
5, 54540, Note_on_c, 2, 71, 0
5, 54540, Note_on_c, 2, 67, 0
5, 54540, Note_on_c, 2, 66, 100
5, 54540, Note_on_c, 2, 69, 100
5, 54600, Note_on_c, 2, 69, 0
5, 54600, Note_on_c, 2, 66, 0
5, 54600, Note_on_c, 2, 64, 100
5, 54600, Note_on_c, 2, 67, 100
5, 54660, Note_on_c, 2, 67, 0
5, 54660, Note_on_c, 2, 64, 0
5, 54660, Note_on_c, 2, 62, 100
5, 54660, Note_on_c, 2, 66, 100
5, 54720, Note_on_c, 2, 66, 0
5, 54720, Note_on_c, 2, 62, 0
5, 54720, Note_on_c, 2, 60, 100
5, 54720, Note_on_c, 2, 64, 100
5, 54780, Note_on_c, 2, 64, 0
5, 54780, Note_on_c, 2, 60, 0
5, 54840, Note_on_c, 2, 64, 100
5, 54900, Note_on_c, 2, 64, 0
5, 54900, Note_on_c, 2, 67, 100
5, 54960, Note_on_c, 2, 67, 0
5, 54960, Note_on_c, 2, 62, 100
5, 55020, Note_on_c, 2, 62, 0
5, 55080, Note_on_c, 2, 62, 100
5, 55140, Note_on_c, 2, 62, 0
5, 55140, Note_on_c, 2, 67, 100
5, 55200, Note_on_c, 2, 67, 0
5, 55200, Note_on_c, 2, 60, 100
5, 55260, Note_on_c, 2, 60, 0
5, 55320, Note_on_c, 2, 60, 100
5, 55380, Note_on_c, 2, 60, 0
5, 55380, Note_on_c, 2, 67, 100
5, 55440, Note_on_c, 2, 67, 0
5, 55440, Note_on_c, 2, 66, 100
5, 55500, Note_on_c, 2, 66, 0
5, 55500, Note_on_c, 2, 64, 100
5, 55560, Note_on_c, 2, 64, 0
5, 55560, Note_on_c, 2, 62, 100
5, 55620, Note_on_c, 2, 62, 0
5, 55620, Note_on_c, 2, 60, 100
5, 55680, Note_on_c, 2, 60, 0
5, 55680, Note_on_c, 2, 48, 100
5, 55720, Note_on_c, 2, 48, 0
5, 55720, Note_on_c, 2, 55, 100
5, 55760, Note_on_c, 2, 55, 0
5, 55760, Note_on_c, 2, 58, 100
5, 55800, Note_on_c, 2, 58, 0
5, 55800, Note_on_c, 2, 59, 100
5, 55840, Note_on_c, 2, 59, 0
5, 55840, Note_on_c, 2, 60, 100
5, 55880, Note_on_c, 2, 60, 0
5, 55880, Note_on_c, 2, 63, 100
5, 55920, Note_on_c, 2, 63, 0
5, 55920, Note_on_c, 2, 64, 100
5, 55960, Note_on_c, 2, 64, 0
5, 55960, Note_on_c, 2, 67, 100
5, 56000, Note_on_c, 2, 67, 0
5, 56000, Note_on_c, 2, 69, 100
5, 56040, Note_on_c, 2, 69, 0
5, 56040, Note_on_c, 2, 70, 100
5, 56080, Note_on_c, 2, 70, 0
5, 56080, Note_on_c, 2, 72, 100
5, 56120, Note_on_c, 2, 72, 0
5, 56120, Note_on_c, 2, 74, 100
5, 56160, Note_on_c, 2, 74, 0
5, 56160, Note_on_c, 2, 79, 100
5, 56640, Note_on_c, 2, 79, 0
5, 56880, Note_on_c, 2, 71, 100
5, 56940, Note_on_c, 2, 71, 0
5, 56940, Note_on_c, 2, 74, 100
5, 56970, Note_on_c, 2, 74, 0
5, 57000, Note_on_c, 2, 76, 100
5, 57030, Note_on_c, 2, 76, 0
5, 57055, Note_on_c, 2, 70, 100
5, 57059, Note_on_c, 2, 70, 0
5, 57060, Note_on_c, 2, 69, 100
5, 57180, Note_on_c, 2, 69, 0
5, 57180, Note_on_c, 2, 67, 100
5, 57210, Note_on_c, 2, 67, 0
5, 57240, Note_on_c, 2, 67, 100
5, 57480, Note_on_c, 2, 67, 0
5, 57660, Note_on_c, 2, 69, 65
5, 57660, Note_on_c, 2, 65, 65
5, 57660, Note_on_c, 2, 60, 65
5, 57690, Note_on_c, 2, 60, 0
5, 57690, Note_on_c, 2, 65, 0
5, 57690, Note_on_c, 2, 69, 0
5, 57780, Note_on_c, 2, 65, 65
5, 57780, Note_on_c, 2, 69, 65
5, 57780, Note_on_c, 2, 60, 65
5, 57810, Note_on_c, 2, 60, 0
5, 57810, Note_on_c, 2, 69, 0
5, 57810, Note_on_c, 2, 65, 0
5, 57900, Note_on_c, 2, 64, 65
5, 57900, Note_on_c, 2, 67, 65
5, 57900, Note_on_c, 2, 59, 65
5, 57960, Note_on_c, 2, 59, 0
5, 57960, Note_on_c, 2, 67, 0
5, 57960, Note_on_c, 2, 64, 0
5, 58020, Note_on_c, 2, 59, 65
5, 58020, Note_on_c, 2, 64, 65
5, 58020, Note_on_c, 2, 67, 65
5, 58140, Note_on_c, 2, 67, 0
5, 58140, Note_on_c, 2, 64, 0
5, 58140, Note_on_c, 2, 59, 0
5, 58140, Note_on_c, 2, 67, 65
5, 58140, Note_on_c, 2, 62, 65
5, 58140, Note_on_c, 2, 64, 65
5, 58140, Note_on_c, 2, 57, 65
5, 58170, Note_on_c, 2, 57, 0
5, 58170, Note_on_c, 2, 67, 0
5, 58170, Note_on_c, 2, 62, 0
5, 58170, Note_on_c, 2, 64, 0
5, 58260, Note_on_c, 2, 62, 65
5, 58260, Note_on_c, 2, 64, 65
5, 58260, Note_on_c, 2, 57, 65
5, 58260, Note_on_c, 2, 67, 65
5, 58290, Note_on_c, 2, 67, 0
5, 58290, Note_on_c, 2, 62, 0
5, 58290, Note_on_c, 2, 64, 0
5, 58290, Note_on_c, 2, 57, 0
5, 58380, Note_on_c, 2, 62, 65
5, 58380, Note_on_c, 2, 67, 65
5, 58380, Note_on_c, 2, 72, 65
5, 58380, Note_on_c, 2, 57, 65
5, 58410, Note_on_c, 2, 57, 0
5, 58410, Note_on_c, 2, 62, 0
5, 58410, Note_on_c, 2, 67, 0
5, 58410, Note_on_c, 2, 72, 0
5, 58500, Note_on_c, 2, 62, 65
5, 58500, Note_on_c, 2, 67, 65
5, 58500, Note_on_c, 2, 71, 65
5, 58620, Note_on_c, 2, 71, 0
5, 58620, Note_on_c, 2, 67, 0
5, 58620, Note_on_c, 2, 62, 0
5, 58620, Note_on_c, 2, 57, 65
5, 58620, Note_on_c, 2, 60, 65
5, 58620, Note_on_c, 2, 66, 65
5, 58650, Note_on_c, 2, 66, 0
5, 58650, Note_on_c, 2, 60, 0
5, 58650, Note_on_c, 2, 57, 0
5, 58740, Note_on_c, 2, 57, 65
5, 58740, Note_on_c, 2, 60, 65
5, 58740, Note_on_c, 2, 66, 65
5, 58770, Note_on_c, 2, 66, 0
5, 58770, Note_on_c, 2, 60, 0
5, 58770, Note_on_c, 2, 57, 0
5, 58860, Note_on_c, 2, 71, 65
5, 58860, Note_on_c, 2, 59, 65
5, 58860, Note_on_c, 2, 62, 65
5, 58860, Note_on_c, 2, 64, 65
5, 58890, Note_on_c, 2, 64, 0
5, 58890, Note_on_c, 2, 71, 0
5, 58890, Note_on_c, 2, 59, 0
5, 58890, Note_on_c, 2, 62, 0
5, 58980, Note_on_c, 2, 69, 65
5, 58980, Note_on_c, 2, 59, 65
5, 58980, Note_on_c, 2, 64, 65
5, 59010, Note_on_c, 2, 69, 0
5, 59100, Note_on_c, 2, 64, 0
5, 59100, Note_on_c, 2, 59, 0
5, 59100, Note_on_c, 2, 62, 65
5, 59100, Note_on_c, 2, 57, 65
5, 59100, Note_on_c, 2, 64, 65
5, 59130, Note_on_c, 2, 64, 0
5, 59130, Note_on_c, 2, 57, 0
5, 59130, Note_on_c, 2, 62, 0
5, 59220, Note_on_c, 2, 62, 65
5, 59220, Note_on_c, 2, 57, 65
5, 59220, Note_on_c, 2, 64, 65
5, 59250, Note_on_c, 2, 64, 0
5, 59250, Note_on_c, 2, 57, 0
5, 59250, Note_on_c, 2, 62, 0
5, 59340, Note_on_c, 2, 67, 65
5, 59340, Note_on_c, 2, 59, 65
5, 59340, Note_on_c, 2, 62, 65
5, 59370, Note_on_c, 2, 62, 0
5, 59370, Note_on_c, 2, 59, 0
5, 59370, Note_on_c, 2, 67, 0
5, 59460, Note_on_c, 2, 59, 65
5, 59460, Note_on_c, 2, 62, 65
5, 59460, Note_on_c, 2, 67, 65
5, 59490, Note_on_c, 2, 67, 0
5, 59490, Note_on_c, 2, 62, 0
5, 59490, Note_on_c, 2, 59, 0
5, 59580, Note_on_c, 2, 67, 65
5, 59580, Note_on_c, 2, 59, 65
5, 59580, Note_on_c, 2, 62, 65
5, 59610, Note_on_c, 2, 62, 0
5, 59610, Note_on_c, 2, 59, 0
5, 59610, Note_on_c, 2, 67, 0
5, 59700, Note_on_c, 2, 67, 65
5, 59700, Note_on_c, 2, 59, 65
5, 59700, Note_on_c, 2, 62, 65
5, 59730, Note_on_c, 2, 62, 0
5, 59730, Note_on_c, 2, 59, 0
5, 59730, Note_on_c, 2, 67, 0
5, 59820, Note_on_c, 2, 66, 65
5, 59820, Note_on_c, 2, 69, 65
5, 59820, Note_on_c, 2, 72, 65
5, 59850, Note_on_c, 2, 72, 0
5, 59850, Note_on_c, 2, 69, 0
5, 59850, Note_on_c, 2, 66, 0
5, 59940, Note_on_c, 2, 64, 65
5, 59940, Note_on_c, 2, 71, 65
5, 59940, Note_on_c, 2, 67, 65
5, 60030, Note_on_c, 2, 67, 0
5, 60030, Note_on_c, 2, 71, 0
5, 60030, Note_on_c, 2, 64, 0
5, 60060, Note_on_c, 2, 57, 65
5, 60060, Note_on_c, 2, 60, 65
5, 60060, Note_on_c, 2, 66, 65
5, 60090, Note_on_c, 2, 66, 0
5, 60090, Note_on_c, 2, 60, 0
5, 60090, Note_on_c, 2, 57, 0
5, 60180, Note_on_c, 2, 57, 65
5, 60180, Note_on_c, 2, 60, 65
5, 60180, Note_on_c, 2, 66, 65
5, 60210, Note_on_c, 2, 66, 0
5, 60210, Note_on_c, 2, 60, 0
5, 60210, Note_on_c, 2, 57, 0
5, 60300, Note_on_c, 2, 71, 65
5, 60300, Note_on_c, 2, 59, 65
5, 60300, Note_on_c, 2, 62, 65
5, 60300, Note_on_c, 2, 64, 65
5, 60330, Note_on_c, 2, 64, 0
5, 60330, Note_on_c, 2, 71, 0
5, 60330, Note_on_c, 2, 59, 0
5, 60330, Note_on_c, 2, 62, 0
5, 60420, Note_on_c, 2, 69, 65
5, 60420, Note_on_c, 2, 59, 65
5, 60420, Note_on_c, 2, 64, 65
5, 60450, Note_on_c, 2, 69, 0
5, 60540, Note_on_c, 2, 64, 0
5, 60540, Note_on_c, 2, 59, 0
5, 60540, Note_on_c, 2, 62, 65
5, 60540, Note_on_c, 2, 57, 65
5, 60540, Note_on_c, 2, 64, 65
5, 60570, Note_on_c, 2, 64, 0
5, 60570, Note_on_c, 2, 57, 0
5, 60570, Note_on_c, 2, 62, 0
5, 60660, Note_on_c, 2, 62, 65
5, 60660, Note_on_c, 2, 57, 65
5, 60660, Note_on_c, 2, 64, 65
5, 60690, Note_on_c, 2, 64, 0
5, 60690, Note_on_c, 2, 57, 0
5, 60690, Note_on_c, 2, 62, 0
5, 60780, Note_on_c, 2, 67, 65
5, 60780, Note_on_c, 2, 59, 65
5, 60780, Note_on_c, 2, 62, 65
5, 60810, Note_on_c, 2, 62, 0
5, 60810, Note_on_c, 2, 59, 0
5, 60810, Note_on_c, 2, 67, 0
5, 60900, Note_on_c, 2, 59, 65
5, 60900, Note_on_c, 2, 62, 65
5, 60900, Note_on_c, 2, 67, 65
5, 60930, Note_on_c, 2, 67, 0
5, 60930, Note_on_c, 2, 62, 0
5, 60930, Note_on_c, 2, 59, 0
5, 61020, Note_on_c, 2, 67, 65
5, 61020, Note_on_c, 2, 59, 65
5, 61020, Note_on_c, 2, 62, 65
5, 61050, Note_on_c, 2, 62, 0
5, 61050, Note_on_c, 2, 59, 0
5, 61050, Note_on_c, 2, 67, 0
5, 61140, Note_on_c, 2, 67, 65
5, 61140, Note_on_c, 2, 59, 65
5, 61140, Note_on_c, 2, 62, 65
5, 61170, Note_on_c, 2, 62, 0
5, 61170, Note_on_c, 2, 59, 0
5, 61170, Note_on_c, 2, 67, 0
5, 61260, Note_on_c, 2, 66, 65
5, 61260, Note_on_c, 2, 69, 65
5, 61260, Note_on_c, 2, 72, 65
5, 61290, Note_on_c, 2, 72, 0
5, 61290, Note_on_c, 2, 69, 0
5, 61290, Note_on_c, 2, 66, 0
5, 61380, Note_on_c, 2, 64, 65
5, 61380, Note_on_c, 2, 71, 65
5, 61380, Note_on_c, 2, 67, 65
5, 61470, Note_on_c, 2, 67, 0
5, 61470, Note_on_c, 2, 71, 0
5, 61470, Note_on_c, 2, 64, 0
5, 61500, Note_on_c, 2, 64, 65
5, 61500, Note_on_c, 2, 57, 65
5, 61500, Note_on_c, 2, 60, 65
5, 61530, Note_on_c, 2, 60, 0
5, 61530, Note_on_c, 2, 57, 0
5, 61530, Note_on_c, 2, 64, 0
5, 61620, Note_on_c, 2, 64, 65
5, 61620, Note_on_c, 2, 57, 65
5, 61620, Note_on_c, 2, 60, 65
5, 61650, Note_on_c, 2, 60, 0
5, 61650, Note_on_c, 2, 57, 0
5, 61650, Note_on_c, 2, 64, 0
5, 61740, Note_on_c, 2, 69, 65
5, 61740, Note_on_c, 2, 59, 65
5, 61740, Note_on_c, 2, 64, 65
5, 61770, Note_on_c, 2, 64, 0
5, 61770, Note_on_c, 2, 59, 0
5, 61770, Note_on_c, 2, 69, 0
5, 61860, Note_on_c, 2, 69, 65
5, 61860, Note_on_c, 2, 59, 65
5, 61860, Note_on_c, 2, 64, 65
5, 61980, Note_on_c, 2, 64, 0
5, 61980, Note_on_c, 2, 59, 0
5, 61980, Note_on_c, 2, 69, 0
5, 61980, Note_on_c, 2, 62, 65
5, 61980, Note_on_c, 2, 57, 65
5, 61980, Note_on_c, 2, 64, 65
5, 62010, Note_on_c, 2, 64, 0
5, 62010, Note_on_c, 2, 57, 0
5, 62010, Note_on_c, 2, 62, 0
5, 62100, Note_on_c, 2, 62, 65
5, 62100, Note_on_c, 2, 57, 65
5, 62100, Note_on_c, 2, 64, 65
5, 62130, Note_on_c, 2, 64, 0
5, 62130, Note_on_c, 2, 57, 0
5, 62130, Note_on_c, 2, 62, 0
5, 62220, Note_on_c, 2, 69, 65
5, 62220, Note_on_c, 2, 59, 65
5, 62220, Note_on_c, 2, 62, 65
5, 62250, Note_on_c, 2, 62, 0
5, 62250, Note_on_c, 2, 59, 0
5, 62250, Note_on_c, 2, 69, 0
5, 62340, Note_on_c, 2, 59, 65
5, 62340, Note_on_c, 2, 62, 65
5, 62340, Note_on_c, 2, 67, 65
5, 62430, Note_on_c, 2, 67, 0
5, 62430, Note_on_c, 2, 62, 0
5, 62430, Note_on_c, 2, 59, 0
5, 62460, Note_on_c, 2, 69, 65
5, 62460, Note_on_c, 2, 64, 65
5, 62460, Note_on_c, 2, 66, 65
5, 62460, Note_on_c, 2, 59, 65
5, 62490, Note_on_c, 2, 59, 0
5, 62490, Note_on_c, 2, 69, 0
5, 62490, Note_on_c, 2, 64, 0
5, 62490, Note_on_c, 2, 66, 0
5, 62580, Note_on_c, 2, 69, 65
5, 62580, Note_on_c, 2, 64, 65
5, 62580, Note_on_c, 2, 66, 65
5, 62580, Note_on_c, 2, 59, 65
5, 62610, Note_on_c, 2, 59, 0
5, 62610, Note_on_c, 2, 69, 0
5, 62610, Note_on_c, 2, 64, 0
5, 62610, Note_on_c, 2, 66, 0
5, 62700, Note_on_c, 2, 60, 65
5, 62700, Note_on_c, 2, 67, 65
5, 62700, Note_on_c, 2, 72, 65
5, 62700, Note_on_c, 2, 64, 65
5, 62730, Note_on_c, 2, 64, 0
5, 62730, Note_on_c, 2, 60, 0
5, 62730, Note_on_c, 2, 67, 0
5, 62730, Note_on_c, 2, 72, 0
5, 62820, Note_on_c, 2, 59, 65
5, 62820, Note_on_c, 2, 64, 65
5, 62820, Note_on_c, 2, 71, 65
5, 62820, Note_on_c, 2, 67, 65
5, 62910, Note_on_c, 2, 67, 0
5, 62910, Note_on_c, 2, 59, 0
5, 62910, Note_on_c, 2, 64, 0
5, 62910, Note_on_c, 2, 71, 0
5, 62940, Note_on_c, 2, 57, 65
5, 62940, Note_on_c, 2, 60, 65
5, 62940, Note_on_c, 2, 66, 65
5, 62970, Note_on_c, 2, 66, 0
5, 62970, Note_on_c, 2, 60, 0
5, 62970, Note_on_c, 2, 57, 0
5, 63060, Note_on_c, 2, 57, 65
5, 63060, Note_on_c, 2, 60, 65
5, 63060, Note_on_c, 2, 66, 65
5, 63090, Note_on_c, 2, 66, 0
5, 63090, Note_on_c, 2, 60, 0
5, 63090, Note_on_c, 2, 57, 0
5, 63180, Note_on_c, 2, 71, 65
5, 63180, Note_on_c, 2, 59, 65
5, 63180, Note_on_c, 2, 62, 65
5, 63180, Note_on_c, 2, 64, 65
5, 63210, Note_on_c, 2, 64, 0
5, 63210, Note_on_c, 2, 71, 0
5, 63210, Note_on_c, 2, 59, 0
5, 63210, Note_on_c, 2, 62, 0
5, 63300, Note_on_c, 2, 69, 65
5, 63300, Note_on_c, 2, 59, 65
5, 63300, Note_on_c, 2, 64, 65
5, 63330, Note_on_c, 2, 69, 0
5, 63420, Note_on_c, 2, 64, 0
5, 63420, Note_on_c, 2, 59, 0
5, 63420, Note_on_c, 2, 62, 65
5, 63420, Note_on_c, 2, 57, 65
5, 63420, Note_on_c, 2, 64, 65
5, 63450, Note_on_c, 2, 64, 0
5, 63450, Note_on_c, 2, 57, 0
5, 63450, Note_on_c, 2, 62, 0
5, 63540, Note_on_c, 2, 62, 65
5, 63540, Note_on_c, 2, 57, 65
5, 63540, Note_on_c, 2, 64, 65
5, 63570, Note_on_c, 2, 64, 0
5, 63570, Note_on_c, 2, 57, 0
5, 63570, Note_on_c, 2, 62, 0
5, 63660, Note_on_c, 2, 67, 65
5, 63660, Note_on_c, 2, 59, 65
5, 63660, Note_on_c, 2, 62, 65
5, 63690, Note_on_c, 2, 62, 0
5, 63690, Note_on_c, 2, 59, 0
5, 63690, Note_on_c, 2, 67, 0
5, 63780, Note_on_c, 2, 66, 65
5, 63780, Note_on_c, 2, 59, 65
5, 63780, Note_on_c, 2, 62, 65
5, 63810, Note_on_c, 2, 62, 0
5, 63810, Note_on_c, 2, 59, 0
5, 63810, Note_on_c, 2, 66, 0
5, 63900, Note_on_c, 2, 66, 65
5, 63900, Note_on_c, 2, 59, 65
5, 63900, Note_on_c, 2, 62, 65
5, 63930, Note_on_c, 2, 62, 0
5, 63930, Note_on_c, 2, 59, 0
5, 63930, Note_on_c, 2, 66, 0
5, 64020, Note_on_c, 2, 66, 65
5, 64020, Note_on_c, 2, 59, 65
5, 64020, Note_on_c, 2, 62, 65
5, 64050, Note_on_c, 2, 62, 0
5, 64050, Note_on_c, 2, 59, 0
5, 64050, Note_on_c, 2, 66, 0
5, 64140, Note_on_c, 2, 62, 65
5, 64140, Note_on_c, 2, 66, 65
5, 64140, Note_on_c, 2, 69, 65
5, 64170, Note_on_c, 2, 69, 0
5, 64170, Note_on_c, 2, 66, 0
5, 64170, Note_on_c, 2, 62, 0
5, 64260, Note_on_c, 2, 70, 65
5, 64260, Note_on_c, 2, 64, 65
5, 64260, Note_on_c, 2, 67, 65
5, 64260, Note_on_c, 2, 75, 65
5, 64830, Note_on_c, 2, 75, 0
5, 64830, Note_on_c, 2, 70, 0
5, 64830, Note_on_c, 2, 64, 0
5, 64830, Note_on_c, 2, 67, 0
5, 65280, Note_on_c, 2, 71, 100
5, 65520, Note_on_c, 2, 71, 0
5, 65520, Note_on_c, 2, 64, 100
5, 65760, Note_on_c, 2, 64, 0
5, 66000, Note_on_c, 2, 62, 100
5, 66060, Note_on_c, 2, 62, 0
5, 66060, Note_on_c, 2, 64, 100
5, 66120, Note_on_c, 2, 64, 0
5, 66120, Note_on_c, 2, 67, 100
5, 66180, Note_on_c, 2, 67, 0
5, 66180, Note_on_c, 2, 72, 100
5, 66240, Note_on_c, 2, 72, 0
5, 66240, Note_on_c, 2, 69, 100
5, 66480, Note_on_c, 2, 69, 0
5, 66480, Note_on_c, 2, 62, 100
5, 66720, Note_on_c, 2, 62, 0
5, 66840, Note_on_c, 2, 61, 100
5, 66960, Note_on_c, 2, 61, 0
5, 66960, Note_on_c, 2, 64, 100
5, 67020, Note_on_c, 2, 64, 0
5, 67020, Note_on_c, 2, 63, 100
5, 67140, Note_on_c, 2, 63, 0
5, 67140, Note_on_c, 2, 66, 100
5, 67200, Note_on_c, 2, 66, 0
5, 67200, Note_on_c, 2, 71, 100
5, 67440, Note_on_c, 2, 71, 0
5, 67440, Note_on_c, 2, 64, 100
5, 67680, Note_on_c, 2, 64, 0
5, 67920, Note_on_c, 2, 62, 100
5, 67980, Note_on_c, 2, 62, 0
5, 67980, Note_on_c, 2, 64, 100
5, 68040, Note_on_c, 2, 64, 0
5, 68040, Note_on_c, 2, 67, 100
5, 68100, Note_on_c, 2, 67, 0
5, 68100, Note_on_c, 2, 72, 100
5, 68160, Note_on_c, 2, 72, 0
5, 68160, Note_on_c, 2, 69, 100
5, 68400, Note_on_c, 2, 69, 0
5, 68400, Note_on_c, 2, 62, 100
5, 68640, Note_on_c, 2, 62, 0
5, 68760, Note_on_c, 2, 61, 100
5, 68880, Note_on_c, 2, 61, 0
5, 68880, Note_on_c, 2, 64, 100
5, 68940, Note_on_c, 2, 64, 0
5, 68940, Note_on_c, 2, 67, 100
5, 69060, Note_on_c, 2, 67, 0
5, 69060, Note_on_c, 2, 71, 100
5, 69120, Note_on_c, 2, 71, 0
5, 69120, Note_on_c, 2, 74, 100
5, 69300, Note_on_c, 2, 72, 100
5, 69360, Note_on_c, 2, 74, 0
5, 69480, Note_on_c, 2, 72, 0
5, 69540, Note_on_c, 2, 71, 100
5, 69720, Note_on_c, 2, 71, 0
5, 69720, Note_on_c, 2, 69, 100
5, 70080, Note_on_c, 2, 69, 0
5, 70080, Note_on_c, 2, 69, 100
5, 70260, Note_on_c, 2, 69, 0
5, 70260, Note_on_c, 2, 67, 100
5, 70440, Note_on_c, 2, 67, 0
5, 70500, Note_on_c, 2, 66, 100
5, 70680, Note_on_c, 2, 66, 0
5, 70680, Note_on_c, 2, 64, 100
5, 71040, Note_on_c, 2, 64, 0
5, 71040, Note_on_c, 2, 74, 100
5, 71220, Note_on_c, 2, 72, 100
5, 71280, Note_on_c, 2, 74, 0
5, 71400, Note_on_c, 2, 72, 0
5, 71460, Note_on_c, 2, 71, 100
5, 71640, Note_on_c, 2, 71, 0
5, 71640, Note_on_c, 2, 69, 100
5, 72000, Note_on_c, 2, 69, 0
5, 72000, Note_on_c, 2, 69, 100
5, 72060, Note_on_c, 2, 69, 0
5, 72060, Note_on_c, 2, 72, 100
5, 72120, Note_on_c, 2, 72, 0
5, 72120, Note_on_c, 2, 69, 100
5, 72180, Note_on_c, 2, 69, 0
5, 72180, Note_on_c, 2, 67, 100
5, 72480, Note_on_c, 2, 67, 0
5, 72480, Note_on_c, 2, 67, 100
5, 72540, Note_on_c, 2, 67, 0
5, 72540, Note_on_c, 2, 70, 100
5, 72600, Note_on_c, 2, 70, 0
5, 72600, Note_on_c, 2, 67, 100
5, 72660, Note_on_c, 2, 67, 0
5, 72660, Note_on_c, 2, 65, 100
5, 72960, Note_on_c, 2, 65, 0
5, 72960, Note_on_c, 2, 65, 100
5, 73140, Note_on_c, 2, 65, 0
5, 73140, Note_on_c, 2, 63, 100
5, 73260, Note_on_c, 2, 63, 0
5, 73260, Note_on_c, 2, 65, 100
5, 73320, Note_on_c, 2, 65, 0
5, 73320, Note_on_c, 2, 62, 100
5, 73800, Note_on_c, 2, 62, 0
5, 74400, Control_c, 2, 64, 100
5, 74400, Note_on_c, 2, 55, 65
5, 74400, Note_on_c, 2, 67, 65
5, 74430, Note_on_c, 2, 67, 0
5, 74430, Note_on_c, 2, 55, 0
5, 74460, Note_on_c, 2, 55, 65
5, 74490, Note_on_c, 2, 55, 0
5, 74490, Note_on_c, 2, 62, 65
5, 74520, Note_on_c, 2, 62, 0
5, 74520, Note_on_c, 2, 55, 65
5, 74550, Note_on_c, 2, 55, 0
5, 74550, Note_on_c, 2, 67, 65
5, 74580, Note_on_c, 2, 67, 0
5, 74580, Note_on_c, 2, 55, 65
5, 74610, Note_on_c, 2, 55, 0
5, 74640, Note_on_c, 2, 67, 65
5, 74640, Note_on_c, 2, 55, 65
5, 74670, Note_on_c, 2, 55, 0
5, 74670, Note_on_c, 2, 67, 0
5, 74700, Note_on_c, 2, 55, 65
5, 74730, Note_on_c, 2, 55, 0
5, 74730, Note_on_c, 2, 62, 65
5, 74760, Note_on_c, 2, 62, 0
5, 74760, Note_on_c, 2, 55, 65
5, 74790, Note_on_c, 2, 55, 0
5, 74790, Note_on_c, 2, 67, 65
5, 74820, Note_on_c, 2, 67, 0
5, 74820, Note_on_c, 2, 55, 65
5, 74850, Note_on_c, 2, 55, 0
5, 74880, Control_c, 2, 64, 100
5, 74880, Note_on_c, 2, 55, 65
5, 74880, Note_on_c, 2, 67, 65
5, 74910, Note_on_c, 2, 67, 0
5, 74910, Note_on_c, 2, 55, 0
5, 74940, Note_on_c, 2, 55, 65
5, 74970, Note_on_c, 2, 55, 0
5, 74970, Note_on_c, 2, 62, 65
5, 75000, Note_on_c, 2, 62, 0
5, 75000, Note_on_c, 2, 55, 65
5, 75030, Note_on_c, 2, 55, 0
5, 75030, Note_on_c, 2, 67, 65
5, 75060, Note_on_c, 2, 67, 0
5, 75060, Note_on_c, 2, 55, 65
5, 75090, Note_on_c, 2, 55, 0
5, 75120, Note_on_c, 2, 67, 65
5, 75120, Note_on_c, 2, 55, 65
5, 75150, Note_on_c, 2, 55, 0
5, 75150, Note_on_c, 2, 67, 0
5, 75180, Note_on_c, 2, 55, 65
5, 75210, Note_on_c, 2, 55, 0
5, 75210, Note_on_c, 2, 62, 65
5, 75240, Note_on_c, 2, 62, 0
5, 75240, Note_on_c, 2, 55, 65
5, 75270, Note_on_c, 2, 55, 0
5, 75270, Note_on_c, 2, 67, 65
5, 75300, Note_on_c, 2, 67, 0
5, 75300, Note_on_c, 2, 55, 65
5, 75330, Note_on_c, 2, 55, 0
5, 75360, Control_c, 2, 64, 100
5, 75360, Note_on_c, 2, 55, 65
5, 75360, Note_on_c, 2, 67, 65
5, 75390, Note_on_c, 2, 67, 0
5, 75390, Note_on_c, 2, 55, 0
5, 75420, Note_on_c, 2, 55, 65
5, 75450, Note_on_c, 2, 55, 0
5, 75450, Note_on_c, 2, 62, 65
5, 75480, Note_on_c, 2, 62, 0
5, 75480, Note_on_c, 2, 55, 65
5, 75510, Note_on_c, 2, 55, 0
5, 75510, Note_on_c, 2, 67, 65
5, 75540, Note_on_c, 2, 67, 0
5, 75540, Note_on_c, 2, 55, 65
5, 75570, Note_on_c, 2, 55, 0
5, 75600, Note_on_c, 2, 67, 65
5, 75600, Note_on_c, 2, 55, 65
5, 75630, Note_on_c, 2, 55, 0
5, 75630, Note_on_c, 2, 67, 0
5, 75660, Note_on_c, 2, 55, 65
5, 75690, Note_on_c, 2, 55, 0
5, 75690, Note_on_c, 2, 62, 65
5, 75720, Note_on_c, 2, 62, 0
5, 75720, Note_on_c, 2, 55, 65
5, 75750, Note_on_c, 2, 55, 0
5, 75750, Note_on_c, 2, 67, 65
5, 75780, Note_on_c, 2, 67, 0
5, 75780, Note_on_c, 2, 55, 65
5, 75810, Note_on_c, 2, 55, 0
5, 75840, Control_c, 2, 64, 100
5, 75840, Note_on_c, 2, 55, 65
5, 75840, Note_on_c, 2, 67, 65
5, 75870, Note_on_c, 2, 67, 0
5, 75870, Note_on_c, 2, 55, 0
5, 75900, Note_on_c, 2, 55, 65
5, 75930, Note_on_c, 2, 55, 0
5, 75930, Note_on_c, 2, 62, 65
5, 75960, Note_on_c, 2, 62, 0
5, 75960, Note_on_c, 2, 55, 65
5, 75990, Note_on_c, 2, 55, 0
5, 75990, Note_on_c, 2, 67, 65
5, 76020, Note_on_c, 2, 67, 0
5, 76020, Note_on_c, 2, 55, 65
5, 76050, Note_on_c, 2, 55, 0
5, 76080, Note_on_c, 2, 67, 65
5, 76080, Note_on_c, 2, 55, 65
5, 76110, Note_on_c, 2, 55, 0
5, 76110, Note_on_c, 2, 67, 0
5, 76140, Note_on_c, 2, 55, 65
5, 76170, Note_on_c, 2, 55, 0
5, 76170, Note_on_c, 2, 62, 65
5, 76200, Note_on_c, 2, 62, 0
5, 76200, Note_on_c, 2, 55, 65
5, 76230, Note_on_c, 2, 55, 0
5, 76230, Note_on_c, 2, 67, 65
5, 76260, Note_on_c, 2, 67, 0
5, 76260, Note_on_c, 2, 55, 65
5, 76261, Control_c, 2, 64, 0
5, 76290, Note_on_c, 2, 55, 0
5, 76860, Note_on_c, 2, 67, 100
5, 76860, Note_on_c, 2, 79, 100
5, 76950, Note_on_c, 2, 79, 0
5, 76950, Note_on_c, 2, 67, 0
5, 77160, Note_on_c, 2, 64, 100
5, 77160, Note_on_c, 2, 76, 100
5, 77190, Note_on_c, 2, 76, 0
5, 77190, Note_on_c, 2, 64, 0
5, 77220, Note_on_c, 2, 64, 100
5, 77220, Note_on_c, 2, 76, 100
5, 77250, Note_on_c, 2, 76, 0
5, 77250, Note_on_c, 2, 64, 0
5, 77250, Note_on_c, 2, 62, 100
5, 77250, Note_on_c, 2, 74, 100
5, 77280, Note_on_c, 2, 74, 0
5, 77280, Note_on_c, 2, 62, 0
5, 77640, Note_on_c, 2, 60, 100
5, 77640, Note_on_c, 2, 72, 100
5, 77641, Pitch_bend_c, 2, 768
5, 77643, Pitch_bend_c, 2, 1152
5, 77646, Pitch_bend_c, 2, 1792
5, 77648, Pitch_bend_c, 2, 1920
5, 77650, Pitch_bend_c, 2, 2048
5, 77651, Pitch_bend_c, 2, 2304
5, 77653, Pitch_bend_c, 2, 2560
5, 77655, Pitch_bend_c, 2, 2944
5, 77656, Pitch_bend_c, 2, 3072
5, 77658, Pitch_bend_c, 2, 3456
5, 77660, Pitch_bend_c, 2, 3840
5, 77661, Pitch_bend_c, 2, 4096
5, 77663, Pitch_bend_c, 2, 4224
5, 77665, Pitch_bend_c, 2, 4352
5, 77666, Pitch_bend_c, 2, 4864
5, 77668, Pitch_bend_c, 2, 4992
5, 77670, Pitch_bend_c, 2, 5376
5, 77671, Pitch_bend_c, 2, 5504
5, 77673, Pitch_bend_c, 2, 6272
5, 77675, Pitch_bend_c, 2, 6528
5, 77676, Pitch_bend_c, 2, 7040
5, 77678, Pitch_bend_c, 2, 7552
5, 77680, Pitch_bend_c, 2, 8192
5, 77760, Note_on_c, 2, 72, 0
5, 77760, Note_on_c, 2, 60, 0
5, 77760, Note_on_c, 2, 59, 100
5, 77760, Note_on_c, 2, 71, 100
5, 77820, Note_on_c, 2, 71, 0
5, 77820, Note_on_c, 2, 59, 0
5, 78118, Pitch_bend_c, 2, 768
5, 78120, Note_on_c, 2, 64, 100
5, 78120, Pitch_bend_c, 2, 1024
5, 78121, Pitch_bend_c, 2, 1152
5, 78123, Pitch_bend_c, 2, 1920
5, 78126, Pitch_bend_c, 2, 2176
5, 78128, Pitch_bend_c, 2, 2432
5, 78130, Pitch_bend_c, 2, 2560
5, 78131, Pitch_bend_c, 2, 2816
5, 78133, Pitch_bend_c, 2, 2944
5, 78135, Pitch_bend_c, 2, 3200
5, 78136, Pitch_bend_c, 2, 3584
5, 78138, Pitch_bend_c, 2, 3840
5, 78140, Pitch_bend_c, 2, 4096
5, 78141, Pitch_bend_c, 2, 4224
5, 78143, Pitch_bend_c, 2, 4608
5, 78145, Pitch_bend_c, 2, 4736
5, 78146, Pitch_bend_c, 2, 4992
5, 78148, Pitch_bend_c, 2, 5120
5, 78150, Pitch_bend_c, 2, 5632
5, 78151, Pitch_bend_c, 2, 5888
5, 78153, Pitch_bend_c, 2, 6016
5, 78155, Pitch_bend_c, 2, 6272
5, 78156, Pitch_bend_c, 2, 6784
5, 78158, Pitch_bend_c, 2, 7296
5, 78160, Pitch_bend_c, 2, 7424
5, 78163, Pitch_bend_c, 2, 8192
5, 78180, Note_on_c, 2, 64, 0
5, 78180, Note_on_c, 2, 64, 100
5, 78210, Note_on_c, 2, 64, 0
5, 78210, Note_on_c, 2, 64, 100
5, 78240, Note_on_c, 2, 64, 0
5, 78240, Note_on_c, 2, 62, 100
5, 78300, Note_on_c, 2, 62, 0
5, 78540, Note_on_c, 2, 64, 100
5, 78540, Note_on_c, 2, 76, 100
5, 78570, Note_on_c, 2, 76, 0
5, 78570, Note_on_c, 2, 64, 0
5, 78600, Note_on_c, 2, 67, 100
5, 78600, Note_on_c, 2, 79, 100
5, 78630, Note_on_c, 2, 79, 0
5, 78630, Note_on_c, 2, 67, 0
5, 78660, Note_on_c, 2, 64, 100
5, 78660, Note_on_c, 2, 76, 100
5, 78690, Note_on_c, 2, 76, 0
5, 78690, Note_on_c, 2, 64, 0
5, 78720, Note_on_c, 2, 67, 100
5, 78720, Note_on_c, 2, 79, 100
5, 78780, Note_on_c, 2, 79, 0
5, 78780, Note_on_c, 2, 67, 0
5, 79020, Note_on_c, 2, 64, 100
5, 79020, Note_on_c, 2, 76, 100
5, 79050, Note_on_c, 2, 76, 0
5, 79050, Note_on_c, 2, 64, 0
5, 79080, Note_on_c, 2, 67, 100
5, 79080, Note_on_c, 2, 79, 100
5, 79110, Note_on_c, 2, 79, 0
5, 79110, Note_on_c, 2, 67, 0
5, 79140, Note_on_c, 2, 64, 100
5, 79140, Note_on_c, 2, 76, 100
5, 79170, Note_on_c, 2, 76, 0
5, 79170, Note_on_c, 2, 64, 0
5, 79200, Note_on_c, 2, 67, 100
5, 79200, Note_on_c, 2, 79, 100
5, 79230, Note_on_c, 2, 79, 0
5, 79230, Note_on_c, 2, 67, 0
5, 79290, Note_on_c, 2, 67, 100
5, 79290, Note_on_c, 2, 79, 100
5, 79320, Note_on_c, 2, 79, 0
5, 79320, Note_on_c, 2, 67, 0
5, 79380, Note_on_c, 2, 69, 100
5, 79380, Note_on_c, 2, 81, 100
5, 79410, Note_on_c, 2, 81, 0
5, 79410, Note_on_c, 2, 69, 0
5, 79440, Note_on_c, 2, 67, 100
5, 79440, Note_on_c, 2, 79, 100
5, 79500, Note_on_c, 2, 79, 0
5, 79500, Note_on_c, 2, 67, 0
5, 79920, Note_on_c, 2, 65, 100
5, 79920, Note_on_c, 2, 77, 100
5, 79980, Note_on_c, 2, 77, 0
5, 79980, Note_on_c, 2, 65, 0
5, 80010, Note_on_c, 2, 64, 100
5, 80010, Note_on_c, 2, 76, 100
5, 80040, Note_on_c, 2, 76, 0
5, 80040, Note_on_c, 2, 64, 0
5, 80100, Note_on_c, 2, 62, 100
5, 80100, Note_on_c, 2, 74, 100
5, 80160, Note_on_c, 2, 74, 0
5, 80160, Note_on_c, 2, 62, 0
5, 80160, Note_on_c, 2, 62, 100
5, 80160, Note_on_c, 2, 74, 100
5, 80220, Note_on_c, 2, 74, 0
5, 80220, Note_on_c, 2, 62, 0
5, 80700, Note_on_c, 2, 67, 100
5, 80700, Note_on_c, 2, 79, 100
5, 80760, Note_on_c, 2, 79, 0
5, 80760, Note_on_c, 2, 67, 0
5, 80790, Note_on_c, 2, 67, 100
5, 80790, Note_on_c, 2, 79, 100
5, 80820, Note_on_c, 2, 79, 0
5, 80820, Note_on_c, 2, 67, 0
5, 80880, Note_on_c, 2, 67, 100
5, 80880, Note_on_c, 2, 79, 100
5, 80940, Note_on_c, 2, 79, 0
5, 80940, Note_on_c, 2, 67, 0
5, 80940, Note_on_c, 2, 67, 100
5, 80940, Note_on_c, 2, 79, 100
5, 80970, Note_on_c, 2, 79, 0
5, 80970, Note_on_c, 2, 67, 0
5, 81180, Note_on_c, 2, 67, 100
5, 81180, Note_on_c, 2, 79, 100
5, 81240, Note_on_c, 2, 79, 0
5, 81240, Note_on_c, 2, 67, 0
5, 81270, Note_on_c, 2, 67, 100
5, 81270, Note_on_c, 2, 79, 100
5, 81300, Note_on_c, 2, 79, 0
5, 81300, Note_on_c, 2, 67, 0
5, 81360, Note_on_c, 2, 67, 100
5, 81360, Note_on_c, 2, 79, 100
5, 81420, Note_on_c, 2, 79, 0
5, 81420, Note_on_c, 2, 67, 0
5, 81420, Note_on_c, 2, 67, 100
5, 81420, Note_on_c, 2, 79, 100
5, 81450, Note_on_c, 2, 79, 0
5, 81450, Note_on_c, 2, 67, 0
5, 81480, Note_on_c, 2, 69, 100
5, 81480, Note_on_c, 2, 81, 100
5, 81510, Note_on_c, 2, 81, 0
5, 81510, Note_on_c, 2, 69, 0
5, 81540, Note_on_c, 2, 70, 100
5, 81540, Note_on_c, 2, 82, 100
5, 81570, Note_on_c, 2, 82, 0
5, 81570, Note_on_c, 2, 70, 0
5, 81570, Note_on_c, 2, 71, 100
5, 81570, Note_on_c, 2, 83, 100
5, 81600, Note_on_c, 2, 83, 0
5, 81600, Note_on_c, 2, 71, 0
5, 81660, Note_on_c, 2, 67, 100
5, 81660, Note_on_c, 2, 79, 100
5, 81720, Note_on_c, 2, 79, 0
5, 81720, Note_on_c, 2, 67, 0
5, 81750, Note_on_c, 2, 67, 100
5, 81750, Note_on_c, 2, 79, 100
5, 81780, Note_on_c, 2, 79, 0
5, 81780, Note_on_c, 2, 67, 0
5, 81840, Note_on_c, 2, 67, 100
5, 81840, Note_on_c, 2, 79, 100
5, 81900, Note_on_c, 2, 79, 0
5, 81900, Note_on_c, 2, 67, 0
5, 81900, Note_on_c, 2, 67, 100
5, 81900, Note_on_c, 2, 79, 100
5, 81930, Note_on_c, 2, 79, 0
5, 81930, Note_on_c, 2, 67, 0
5, 82140, Note_on_c, 2, 67, 100
5, 82140, Note_on_c, 2, 79, 100
5, 82200, Note_on_c, 2, 79, 0
5, 82200, Note_on_c, 2, 67, 0
5, 82230, Note_on_c, 2, 67, 100
5, 82230, Note_on_c, 2, 79, 100
5, 82260, Note_on_c, 2, 79, 0
5, 82260, Note_on_c, 2, 67, 0
5, 82320, Note_on_c, 2, 67, 100
5, 82320, Note_on_c, 2, 79, 100
5, 82380, Note_on_c, 2, 79, 0
5, 82380, Note_on_c, 2, 67, 0
5, 82380, Note_on_c, 2, 67, 100
5, 82380, Note_on_c, 2, 79, 100
5, 82410, Note_on_c, 2, 79, 0
5, 82410, Note_on_c, 2, 67, 0
5, 82440, Note_on_c, 2, 69, 100
5, 82440, Note_on_c, 2, 81, 100
5, 82470, Note_on_c, 2, 81, 0
5, 82470, Note_on_c, 2, 69, 0
5, 82500, Note_on_c, 2, 70, 100
5, 82500, Note_on_c, 2, 82, 100
5, 82530, Note_on_c, 2, 82, 0
5, 82530, Note_on_c, 2, 70, 0
5, 82530, Note_on_c, 2, 71, 100
5, 82530, Note_on_c, 2, 83, 100
5, 82560, Note_on_c, 2, 83, 0
5, 82560, Note_on_c, 2, 71, 0
5, 82620, Note_on_c, 2, 67, 100
5, 82620, Note_on_c, 2, 79, 100
5, 82680, Note_on_c, 2, 79, 0
5, 82680, Note_on_c, 2, 67, 0
5, 82710, Note_on_c, 2, 67, 100
5, 82710, Note_on_c, 2, 79, 100
5, 82740, Note_on_c, 2, 79, 0
5, 82740, Note_on_c, 2, 67, 0
5, 82800, Note_on_c, 2, 67, 100
5, 82800, Note_on_c, 2, 79, 100
5, 82860, Note_on_c, 2, 79, 0
5, 82860, Note_on_c, 2, 67, 0
5, 82860, Note_on_c, 2, 67, 100
5, 82860, Note_on_c, 2, 79, 100
5, 82890, Note_on_c, 2, 79, 0
5, 82890, Note_on_c, 2, 67, 0
5, 83100, Note_on_c, 2, 67, 100
5, 83100, Note_on_c, 2, 79, 100
5, 83160, Note_on_c, 2, 79, 0
5, 83160, Note_on_c, 2, 67, 0
5, 83190, Note_on_c, 2, 67, 100
5, 83190, Note_on_c, 2, 79, 100
5, 83220, Note_on_c, 2, 79, 0
5, 83220, Note_on_c, 2, 67, 0
5, 83280, Note_on_c, 2, 67, 100
5, 83280, Note_on_c, 2, 79, 100
5, 83340, Note_on_c, 2, 79, 0
5, 83340, Note_on_c, 2, 67, 0
5, 83340, Note_on_c, 2, 67, 100
5, 83340, Note_on_c, 2, 79, 100
5, 83370, Note_on_c, 2, 79, 0
5, 83370, Note_on_c, 2, 67, 0
5, 83400, Note_on_c, 2, 69, 100
5, 83400, Note_on_c, 2, 81, 100
5, 83430, Note_on_c, 2, 81, 0
5, 83430, Note_on_c, 2, 69, 0
5, 83460, Note_on_c, 2, 70, 100
5, 83460, Note_on_c, 2, 82, 100
5, 83490, Note_on_c, 2, 82, 0
5, 83490, Note_on_c, 2, 70, 0
5, 83490, Note_on_c, 2, 71, 100
5, 83490, Note_on_c, 2, 83, 100
5, 83520, Note_on_c, 2, 83, 0
5, 83520, Note_on_c, 2, 71, 0
5, 83580, Note_on_c, 2, 67, 100
5, 83580, Note_on_c, 2, 79, 100
5, 83640, Note_on_c, 2, 79, 0
5, 83640, Note_on_c, 2, 67, 0
5, 83670, Note_on_c, 2, 67, 100
5, 83670, Note_on_c, 2, 79, 100
5, 83700, Note_on_c, 2, 79, 0
5, 83700, Note_on_c, 2, 67, 0
5, 83760, Note_on_c, 2, 67, 100
5, 83760, Note_on_c, 2, 79, 100
5, 83820, Note_on_c, 2, 79, 0
5, 83820, Note_on_c, 2, 67, 0
5, 83820, Note_on_c, 2, 67, 100
5, 83820, Note_on_c, 2, 79, 100
5, 83850, Note_on_c, 2, 79, 0
5, 83850, Note_on_c, 2, 67, 0
5, 84540, Note_on_c, 2, 67, 100
5, 84540, Note_on_c, 2, 79, 100
5, 84600, Note_on_c, 2, 79, 0
5, 84600, Note_on_c, 2, 67, 0
5, 84600, End_track
6, 0, Start_track
6, 0, MIDI_port, 0
6, 0, Title_t, "http://www.geocities.com/~devian/midfile.htm"
6, 0, End_track
0, 0, End_of_file
