0, 0, Header, 1, 20, 120
1, 0, Start_track
1, 0, Title_t, "Ebb Tide, Lyrics by Carl Sigman, Music by Robert Maxwell"
1, 0, SMPTE_offset, 96, 0, 3, 0, 0
1, 0, Time_signature, 4, 2, 24, 8
1, 0, Key_signature, 0, "major"
1, 0, Tempo, 731707
1, 0, End_track
2, 0, Start_track
2, 0, Title_t, "Soft karaoke"
2, 0, Text_t, "@KMIDI KARAOKE FILE"
2, 0, Text_t, "@MSKS "
2, 0, Text_t, "@Universal Lyrics Editor"
2, 0, Text_t, "@MDR SOFTWARE"
2, 0, Text_t, "@E-mail: mdr@lgs.it"
2, 0, End_track
3, 0, Start_track
3, 0, Title_t, "Words"
3, 2640, Text_t, "\\First "
3, 2820, Text_t, "the "
3, 2880, Text_t, "tide "
3, 3300, Text_t, "rush"
3, 3330, Text_t, "es "
3, 3360, Text_t, "in"
3, 3780, Text_t, "/Plants "
3, 3810, Text_t, "a "
3, 3840, Text_t, "kiss "
3, 4260, Text_t, "on "
3, 4290, Text_t, "the "
3, 4320, Text_t, "shore"
3, 4680, Text_t, "\\Then "
3, 4800, Text_t, "rolls "
3, 5220, Text_t, "out "
3, 5250, Text_t, "to "
3, 5280, Text_t, "sea"
3, 5700, Text_t, "/and "
3, 5730, Text_t, "the "
3, 5760, Text_t, "sea"
3, 6060, Text_t, "\\is "
3, 6120, Text_t, "ver"
3, 6180, Text_t, "y "
3, 6240, Text_t, "still "
3, 6420, Text_t, "once "
3, 6480, Text_t, "more"
3, 6600, Text_t, "/So "
3, 6690, Text_t, "I "
3, 6720, Text_t, "rush "
3, 7140, Text_t, "to "
3, 7170, Text_t, "your "
3, 7200, Text_t, "side"
3, 7620, Text_t, "\\like "
3, 7650, Text_t, "the "
3, 7680, Text_t, "on"
3, 8100, Text_t, "com"
3, 8130, Text_t, "ing "
3, 8160, Text_t, "tide"
3, 8520, Text_t, "/With "
3, 8640, Text_t, "one "
3, 9060, Text_t, "burn"
3, 9090, Text_t, "ing "
3, 9120, Text_t, "thought"
3, 9540, Text_t, "\\Will "
3, 9570, Text_t, "your "
3, 9600, Text_t, "arms "
3, 10020, Text_t, "o"
3, 10050, Text_t, "pen "
3, 10080, Text_t, "wide?"
3, 10500, Text_t, "/At "
3, 10560, Text_t, "last "
3, 10920, Text_t, "we're "
3, 10960, Text_t, "face "
3, 11000, Text_t, "to "
3, 11040, Text_t, "face"
3, 11400, Text_t, "\\and "
3, 11440, Text_t, "as "
3, 11480, Text_t, "we "
3, 11520, Text_t, "kiss"
3, 11880, Text_t, "/through "
3, 11920, Text_t, "an "
3, 11960, Text_t, "em"
3, 12000, Text_t, "brace"
3, 12360, Text_t, "\\I "
3, 12420, Text_t, "can "
3, 12480, Text_t, "tell, "
3, 12840, Text_t, "I "
3, 12900, Text_t, "can "
3, 12960, Text_t, "feel,"
3, 13320, Text_t, "/you "
3, 13380, Text_t, "are "
3, 13440, Text_t, "love, "
3, 13800, Text_t, "you "
3, 13860, Text_t, "are "
3, 13920, Text_t, "real"
3, 14160, Text_t, "\\Real"
3, 14340, Text_t, "ly "
3, 14400, Text_t, "mine"
3, 14820, Text_t, "/In "
3, 14850, Text_t, "the "
3, 14880, Text_t, "rain,"
3, 15300, Text_t, "\\in "
3, 15330, Text_t, "the "
3, 15360, Text_t, "dark,"
3, 15720, Text_t, "/in "
3, 15780, Text_t, "the "
3, 15840, Text_t, "sun"
3, 16080, Text_t, "\\Like "
3, 16260, Text_t, "the "
3, 16320, Text_t, "tide "
3, 16740, Text_t, "at "
3, 16770, Text_t, "its "
3, 16800, Text_t, "ebb"
3, 17220, Text_t, "/I'm "
3, 17250, Text_t, "at "
3, 17280, Text_t, "peace "
3, 17700, Text_t, "in "
3, 17730, Text_t, "the "
3, 17760, Text_t, "web"
3, 18120, Text_t, "\\of "
3, 18180, Text_t, "your "
3, 18240, Text_t, "arms"
3, 18960, Text_t, "/I "
3, 19140, Text_t, "N "
3, 19200, Text_t, "S "
3, 19620, Text_t, "T "
3, 19650, Text_t, "R "
3, 19680, Text_t, "U "
3, 20100, Text_t, "M "
3, 20130, Text_t, "E "
3, 20160, Text_t, "N "
3, 20580, Text_t, "T "
3, 20610, Text_t, "A "
3, 20640, Text_t, "L"
3, 21000, Text_t, "\\"
3, 21120, Text_t, ""
3, 21540, Text_t, ""
3, 21570, Text_t, ""
3, 21600, Text_t, ""
3, 22020, Text_t, ""
3, 22050, Text_t, ""
3, 22080, Text_t, ""
3, 22380, Text_t, ""
3, 22440, Text_t, ""
3, 22500, Text_t, ""
3, 22560, Text_t, ""
3, 22740, Text_t, ""
3, 22800, Text_t, ""
3, 22920, Text_t, ""
3, 23010, Text_t, ""
3, 23040, Text_t, ""
3, 23460, Text_t, ""
3, 23490, Text_t, ""
3, 23520, Text_t, ""
3, 23940, Text_t, ""
3, 23970, Text_t, ""
3, 24000, Text_t, ""
3, 24420, Text_t, ""
3, 24450, Text_t, ""
3, 24480, Text_t, ""
3, 24840, Text_t, ""
3, 24960, Text_t, ""
3, 25380, Text_t, ""
3, 25410, Text_t, ""
3, 25440, Text_t, ""
3, 25860, Text_t, ""
3, 25890, Text_t, ""
3, 25920, Text_t, ""
3, 26340, Text_t, ""
3, 26370, Text_t, ""
3, 26400, Text_t, ""
3, 26820, Text_t, "At "
3, 26880, Text_t, "last "
3, 27240, Text_t, "we're "
3, 27280, Text_t, "face "
3, 27320, Text_t, "to "
3, 27360, Text_t, "face"
3, 27720, Text_t, "/and "
3, 27760, Text_t, "as "
3, 27800, Text_t, "we "
3, 27840, Text_t, "kiss"
3, 28200, Text_t, "\\through "
3, 28240, Text_t, "an "
3, 28280, Text_t, "em"
3, 28320, Text_t, "brace"
3, 28680, Text_t, "/I "
3, 28740, Text_t, "can "
3, 28800, Text_t, "tell, "
3, 29160, Text_t, "I "
3, 29220, Text_t, "can "
3, 29280, Text_t, "feel,"
3, 29640, Text_t, "\\you "
3, 29700, Text_t, "are "
3, 29760, Text_t, "love,"
3, 30120, Text_t, "/you "
3, 30180, Text_t, "are "
3, 30240, Text_t, "real"
3, 30480, Text_t, "\\Real"
3, 30660, Text_t, "ly "
3, 30720, Text_t, "mine"
3, 31140, Text_t, "/In "
3, 31170, Text_t, "the "
3, 31200, Text_t, "rain,"
3, 31620, Text_t, "\\in "
3, 31650, Text_t, "the "
3, 31680, Text_t, "dark,"
3, 32040, Text_t, "/in "
3, 32100, Text_t, "the "
3, 32160, Text_t, "sun"
3, 32400, Text_t, "\\Like "
3, 32580, Text_t, "the "
3, 32640, Text_t, "tide "
3, 33060, Text_t, "at "
3, 33090, Text_t, "its "
3, 33120, Text_t, "ebb"
3, 33540, Text_t, "/I'm "
3, 33570, Text_t, "at "
3, 33600, Text_t, "peace "
3, 34020, Text_t, "in "
3, 34050, Text_t, "the "
3, 34080, Text_t, "web"
3, 34440, Text_t, "\\of "
3, 34500, Text_t, "your "
3, 34560, Text_t, "arms"
3, 34560, End_track
4, 0, Start_track
4, 0, Title_t, "Soft karaoke"
4, 0, Text_t, "@E-mail: mdr@lgs.it"
4, 0, End_track
5, 0, Start_track
5, 0, Title_t, "Words"
5, 5250, Text_t, "to "
5, 7200, Text_t, "side"
5, 10050, Text_t, "pen "
5, 12360, Text_t, "\\I "
5, 14850, Text_t, "the "
5, 17280, Text_t, "peace "
5, 20580, Text_t, "T "
5, 22800, Text_t, ""
5, 25410, Text_t, ""
5, 27800, Text_t, "we "
5, 30180, Text_t, "are "
5, 32640, Text_t, "tide "
5, 34560, Text_t, "arms"
5, 35070, End_track
6, 0, Start_track
6, 0, Title_t, "Soft karaoke"
6, 0, Text_t, "@E-mail: mdr@lgs.it"
6, 0, End_track
7, 0, Start_track
7, 0, Title_t, "Words"
7, 34560, Text_t, "arms"
7, 38910, End_track
8, 0, Start_track
8, 0, Title_t, "Soft karaoke"
8, 0, Text_t, "@E-mail: mdr@lgs.it"
8, 0, End_track
9, 0, Start_track
9, 0, Title_t, "Words"
9, 34560, Text_t, "arms"
9, 177150, End_track
10, 0, Start_track
10, 0, MIDI_port, 0
10, 0, Title_t, "Bass"
10, 0, Program_c, 1, 32
10, 0, Control_c, 1, 7, 95
10, 0, Control_c, 1, 10, 64
10, 0, Control_c, 1, 121, 0
10, 0, Control_c, 1, 123, 0
10, 0, Control_c, 1, 91, 40
10, 0, Control_c, 1, 93, 0
10, 0, Control_c, 1, 64, 0
10, 960, Note_on_c, 1, 36, 64
10, 1189, Note_on_c, 1, 36, 0
10, 1200, Note_on_c, 1, 36, 64
10, 1393, Note_on_c, 1, 36, 0
10, 1400, Note_on_c, 1, 43, 70
10, 1440, Note_on_c, 1, 43, 0
10, 1440, Note_on_c, 1, 36, 75
10, 1660, Note_on_c, 1, 36, 0
10, 1680, Note_on_c, 1, 36, 74
10, 1880, Note_on_c, 1, 36, 0
10, 1880, Note_on_c, 1, 43, 73
10, 1917, Note_on_c, 1, 43, 0
10, 1920, Note_on_c, 1, 36, 64
10, 2149, Note_on_c, 1, 36, 0
10, 2160, Note_on_c, 1, 36, 64
10, 2353, Note_on_c, 1, 36, 0
10, 2360, Note_on_c, 1, 43, 70
10, 2400, Note_on_c, 1, 43, 0
10, 2400, Note_on_c, 1, 36, 64
10, 2629, Note_on_c, 1, 36, 0
10, 2640, Note_on_c, 1, 43, 64
10, 2869, Note_on_c, 1, 43, 0
10, 2880, Note_on_c, 1, 36, 64
10, 3109, Note_on_c, 1, 36, 0
10, 3120, Note_on_c, 1, 36, 64
10, 3313, Note_on_c, 1, 36, 0
10, 3320, Note_on_c, 1, 31, 70
10, 3360, Note_on_c, 1, 31, 0
10, 3360, Note_on_c, 1, 33, 64
10, 3589, Note_on_c, 1, 33, 0
10, 3600, Note_on_c, 1, 33, 64
10, 3793, Note_on_c, 1, 33, 0
10, 3800, Note_on_c, 1, 40, 70
10, 3840, Note_on_c, 1, 40, 0
10, 3840, Note_on_c, 1, 38, 64
10, 4069, Note_on_c, 1, 38, 0
10, 4080, Note_on_c, 1, 38, 64
10, 4273, Note_on_c, 1, 38, 0
10, 4280, Note_on_c, 1, 45, 70
10, 4320, Note_on_c, 1, 45, 0
10, 4320, Note_on_c, 1, 43, 64
10, 4549, Note_on_c, 1, 43, 0
10, 4560, Note_on_c, 1, 43, 64
10, 4753, Note_on_c, 1, 43, 0
10, 4760, Note_on_c, 1, 38, 70
10, 4800, Note_on_c, 1, 38, 0
10, 4800, Note_on_c, 1, 36, 64
10, 5029, Note_on_c, 1, 36, 0
10, 5040, Note_on_c, 1, 36, 64
10, 5233, Note_on_c, 1, 36, 0
10, 5240, Note_on_c, 1, 31, 70
10, 5280, Note_on_c, 1, 31, 0
10, 5280, Note_on_c, 1, 34, 64
10, 5509, Note_on_c, 1, 34, 0
10, 5520, Note_on_c, 1, 34, 64
10, 5713, Note_on_c, 1, 34, 0
10, 5720, Note_on_c, 1, 29, 70
10, 5760, Note_on_c, 1, 29, 0
10, 5760, Note_on_c, 1, 33, 64
10, 5989, Note_on_c, 1, 33, 0
10, 6000, Note_on_c, 1, 33, 64
10, 6193, Note_on_c, 1, 33, 0
10, 6200, Note_on_c, 1, 40, 70
10, 6240, Note_on_c, 1, 40, 0
10, 6240, Note_on_c, 1, 41, 64
10, 6469, Note_on_c, 1, 41, 0
10, 6480, Note_on_c, 1, 38, 64
10, 6600, Note_on_c, 1, 38, 0
10, 6600, Note_on_c, 1, 43, 64
10, 6720, Note_on_c, 1, 43, 0
10, 6720, Note_on_c, 1, 36, 64
10, 6949, Note_on_c, 1, 36, 0
10, 6960, Note_on_c, 1, 36, 64
10, 7153, Note_on_c, 1, 36, 0
10, 7160, Note_on_c, 1, 31, 70
10, 7200, Note_on_c, 1, 31, 0
10, 7200, Note_on_c, 1, 33, 64
10, 7429, Note_on_c, 1, 33, 0
10, 7440, Note_on_c, 1, 33, 64
10, 7633, Note_on_c, 1, 33, 0
10, 7640, Note_on_c, 1, 40, 70
10, 7680, Note_on_c, 1, 40, 0
10, 7680, Note_on_c, 1, 38, 64
10, 7909, Note_on_c, 1, 38, 0
10, 7920, Note_on_c, 1, 38, 64
10, 8113, Note_on_c, 1, 38, 0
10, 8120, Note_on_c, 1, 45, 70
10, 8160, Note_on_c, 1, 45, 0
10, 8160, Note_on_c, 1, 43, 64
10, 8389, Note_on_c, 1, 43, 0
10, 8400, Note_on_c, 1, 43, 64
10, 8593, Note_on_c, 1, 43, 0
10, 8600, Note_on_c, 1, 38, 70
10, 8640, Note_on_c, 1, 38, 0
10, 8640, Note_on_c, 1, 36, 64
10, 8869, Note_on_c, 1, 36, 0
10, 8880, Note_on_c, 1, 36, 64
10, 9073, Note_on_c, 1, 36, 0
10, 9080, Note_on_c, 1, 31, 70
10, 9120, Note_on_c, 1, 31, 0
10, 9120, Note_on_c, 1, 34, 64
10, 9349, Note_on_c, 1, 34, 0
10, 9360, Note_on_c, 1, 34, 64
10, 9553, Note_on_c, 1, 34, 0
10, 9560, Note_on_c, 1, 29, 70
10, 9600, Note_on_c, 1, 29, 0
10, 9600, Note_on_c, 1, 33, 64
10, 9829, Note_on_c, 1, 33, 0
10, 9840, Note_on_c, 1, 33, 64
10, 10033, Note_on_c, 1, 33, 0
10, 10040, Note_on_c, 1, 40, 70
10, 10080, Note_on_c, 1, 40, 0
10, 10080, Note_on_c, 1, 33, 64
10, 10309, Note_on_c, 1, 33, 0
10, 10320, Note_on_c, 1, 33, 64
10, 10549, Note_on_c, 1, 33, 0
10, 10560, Note_on_c, 1, 38, 64
10, 10789, Note_on_c, 1, 38, 0
10, 10800, Note_on_c, 1, 38, 64
10, 10993, Note_on_c, 1, 38, 0
10, 11000, Note_on_c, 1, 45, 70
10, 11040, Note_on_c, 1, 45, 0
10, 11040, Note_on_c, 1, 40, 64
10, 11269, Note_on_c, 1, 40, 0
10, 11280, Note_on_c, 1, 40, 64
10, 11473, Note_on_c, 1, 40, 0
10, 11480, Note_on_c, 1, 35, 70
10, 11520, Note_on_c, 1, 35, 0
10, 11520, Note_on_c, 1, 33, 64
10, 11749, Note_on_c, 1, 33, 0
10, 11760, Note_on_c, 1, 33, 64
10, 11989, Note_on_c, 1, 33, 0
10, 12000, Note_on_c, 1, 41, 64
10, 12229, Note_on_c, 1, 41, 0
10, 12240, Note_on_c, 1, 41, 64
10, 12433, Note_on_c, 1, 41, 0
10, 12440, Note_on_c, 1, 36, 70
10, 12480, Note_on_c, 1, 36, 0
10, 12480, Note_on_c, 1, 36, 64
10, 12709, Note_on_c, 1, 36, 0
10, 12720, Note_on_c, 1, 36, 64
10, 12913, Note_on_c, 1, 36, 0
10, 12920, Note_on_c, 1, 43, 70
10, 12960, Note_on_c, 1, 43, 0
10, 12960, Note_on_c, 1, 36, 64
10, 13189, Note_on_c, 1, 36, 0
10, 13200, Note_on_c, 1, 36, 64
10, 13393, Note_on_c, 1, 36, 0
10, 13400, Note_on_c, 1, 31, 70
10, 13440, Note_on_c, 1, 31, 0
10, 13440, Note_on_c, 1, 33, 64
10, 13669, Note_on_c, 1, 33, 0
10, 13680, Note_on_c, 1, 33, 64
10, 13873, Note_on_c, 1, 33, 0
10, 13880, Note_on_c, 1, 40, 70
10, 13920, Note_on_c, 1, 40, 0
10, 13920, Note_on_c, 1, 38, 64
10, 14149, Note_on_c, 1, 38, 0
10, 14160, Note_on_c, 1, 43, 64
10, 14389, Note_on_c, 1, 43, 0
10, 14400, Note_on_c, 1, 36, 64
10, 14629, Note_on_c, 1, 36, 0
10, 14640, Note_on_c, 1, 36, 64
10, 14833, Note_on_c, 1, 36, 0
10, 14840, Note_on_c, 1, 31, 70
10, 14880, Note_on_c, 1, 31, 0
10, 14880, Note_on_c, 1, 33, 64
10, 15109, Note_on_c, 1, 33, 0
10, 15120, Note_on_c, 1, 33, 64
10, 15313, Note_on_c, 1, 33, 0
10, 15320, Note_on_c, 1, 40, 70
10, 15360, Note_on_c, 1, 40, 0
10, 15360, Note_on_c, 1, 41, 64
10, 15589, Note_on_c, 1, 41, 0
10, 15600, Note_on_c, 1, 41, 64
10, 15793, Note_on_c, 1, 41, 0
10, 15800, Note_on_c, 1, 36, 70
10, 15840, Note_on_c, 1, 36, 0
10, 15840, Note_on_c, 1, 38, 64
10, 16069, Note_on_c, 1, 38, 0
10, 16080, Note_on_c, 1, 43, 64
10, 16309, Note_on_c, 1, 43, 0
10, 16320, Note_on_c, 1, 36, 64
10, 16549, Note_on_c, 1, 36, 0
10, 16560, Note_on_c, 1, 36, 64
10, 16753, Note_on_c, 1, 36, 0
10, 16760, Note_on_c, 1, 31, 70
10, 16800, Note_on_c, 1, 31, 0
10, 16800, Note_on_c, 1, 33, 64
10, 17029, Note_on_c, 1, 33, 0
10, 17040, Note_on_c, 1, 33, 64
10, 17233, Note_on_c, 1, 33, 0
10, 17240, Note_on_c, 1, 40, 70
10, 17280, Note_on_c, 1, 40, 0
10, 17280, Note_on_c, 1, 38, 64
10, 17509, Note_on_c, 1, 38, 0
10, 17520, Note_on_c, 1, 38, 64
10, 17713, Note_on_c, 1, 38, 0
10, 17720, Note_on_c, 1, 45, 70
10, 17760, Note_on_c, 1, 45, 0
10, 17760, Note_on_c, 1, 38, 64
10, 17989, Note_on_c, 1, 38, 0
10, 18000, Note_on_c, 1, 43, 64
10, 18229, Note_on_c, 1, 43, 0
10, 18240, Note_on_c, 1, 36, 64
10, 18469, Note_on_c, 1, 36, 0
10, 18480, Note_on_c, 1, 33, 64
10, 18709, Note_on_c, 1, 33, 0
10, 18720, Note_on_c, 1, 38, 64
10, 18949, Note_on_c, 1, 38, 0
10, 18960, Note_on_c, 1, 43, 64
10, 19189, Note_on_c, 1, 43, 0
10, 19200, Note_on_c, 1, 36, 64
10, 19429, Note_on_c, 1, 36, 0
10, 19440, Note_on_c, 1, 36, 64
10, 19633, Note_on_c, 1, 36, 0
10, 19640, Note_on_c, 1, 31, 70
10, 19680, Note_on_c, 1, 31, 0
10, 19680, Note_on_c, 1, 33, 64
10, 19909, Note_on_c, 1, 33, 0
10, 19920, Note_on_c, 1, 33, 64
10, 20113, Note_on_c, 1, 33, 0
10, 20120, Note_on_c, 1, 40, 70
10, 20160, Note_on_c, 1, 40, 0
10, 20160, Note_on_c, 1, 38, 64
10, 20389, Note_on_c, 1, 38, 0
10, 20400, Note_on_c, 1, 38, 64
10, 20593, Note_on_c, 1, 38, 0
10, 20600, Note_on_c, 1, 45, 70
10, 20640, Note_on_c, 1, 45, 0
10, 20640, Note_on_c, 1, 43, 64
10, 20869, Note_on_c, 1, 43, 0
10, 20880, Note_on_c, 1, 43, 64
10, 21073, Note_on_c, 1, 43, 0
10, 21080, Note_on_c, 1, 38, 70
10, 21120, Note_on_c, 1, 38, 0
10, 21120, Note_on_c, 1, 36, 64
10, 21349, Note_on_c, 1, 36, 0
10, 21360, Note_on_c, 1, 36, 64
10, 21553, Note_on_c, 1, 36, 0
10, 21560, Note_on_c, 1, 31, 70
10, 21600, Note_on_c, 1, 31, 0
10, 21600, Note_on_c, 1, 34, 64
10, 21829, Note_on_c, 1, 34, 0
10, 21840, Note_on_c, 1, 34, 64
10, 22033, Note_on_c, 1, 34, 0
10, 22040, Note_on_c, 1, 29, 70
10, 22080, Note_on_c, 1, 29, 0
10, 22080, Note_on_c, 1, 33, 64
10, 22309, Note_on_c, 1, 33, 0
10, 22320, Note_on_c, 1, 33, 64
10, 22513, Note_on_c, 1, 33, 0
10, 22520, Note_on_c, 1, 40, 70
10, 22560, Note_on_c, 1, 40, 0
10, 22560, Note_on_c, 1, 41, 64
10, 22789, Note_on_c, 1, 41, 0
10, 22800, Note_on_c, 1, 38, 64
10, 22920, Note_on_c, 1, 38, 0
10, 22920, Note_on_c, 1, 43, 64
10, 23040, Note_on_c, 1, 43, 0
10, 23040, Note_on_c, 1, 36, 64
10, 23269, Note_on_c, 1, 36, 0
10, 23280, Note_on_c, 1, 36, 64
10, 23473, Note_on_c, 1, 36, 0
10, 23480, Note_on_c, 1, 31, 70
10, 23520, Note_on_c, 1, 31, 0
10, 23520, Note_on_c, 1, 33, 64
10, 23749, Note_on_c, 1, 33, 0
10, 23760, Note_on_c, 1, 33, 64
10, 23953, Note_on_c, 1, 33, 0
10, 23960, Note_on_c, 1, 40, 70
10, 24000, Note_on_c, 1, 40, 0
10, 24000, Note_on_c, 1, 38, 64
10, 24229, Note_on_c, 1, 38, 0
10, 24240, Note_on_c, 1, 38, 64
10, 24433, Note_on_c, 1, 38, 0
10, 24440, Note_on_c, 1, 45, 70
10, 24480, Note_on_c, 1, 45, 0
10, 24480, Note_on_c, 1, 43, 64
10, 24709, Note_on_c, 1, 43, 0
10, 24720, Note_on_c, 1, 43, 64
10, 24913, Note_on_c, 1, 43, 0
10, 24920, Note_on_c, 1, 38, 70
10, 24960, Note_on_c, 1, 38, 0
10, 24960, Note_on_c, 1, 36, 64
10, 25189, Note_on_c, 1, 36, 0
10, 25200, Note_on_c, 1, 36, 64
10, 25393, Note_on_c, 1, 36, 0
10, 25400, Note_on_c, 1, 31, 70
10, 25440, Note_on_c, 1, 31, 0
10, 25440, Note_on_c, 1, 34, 64
10, 25669, Note_on_c, 1, 34, 0
10, 25680, Note_on_c, 1, 34, 64
10, 25873, Note_on_c, 1, 34, 0
10, 25880, Note_on_c, 1, 29, 70
10, 25920, Note_on_c, 1, 29, 0
10, 25920, Note_on_c, 1, 33, 64
10, 26149, Note_on_c, 1, 33, 0
10, 26160, Note_on_c, 1, 33, 64
10, 26353, Note_on_c, 1, 33, 0
10, 26360, Note_on_c, 1, 40, 70
10, 26400, Note_on_c, 1, 40, 0
10, 26400, Note_on_c, 1, 33, 64
10, 26629, Note_on_c, 1, 33, 0
10, 26640, Note_on_c, 1, 33, 64
10, 26869, Note_on_c, 1, 33, 0
10, 26880, Note_on_c, 1, 38, 64
10, 27109, Note_on_c, 1, 38, 0
10, 27120, Note_on_c, 1, 38, 64
10, 27313, Note_on_c, 1, 38, 0
10, 27320, Note_on_c, 1, 45, 70
10, 27360, Note_on_c, 1, 45, 0
10, 27360, Note_on_c, 1, 40, 64
10, 27589, Note_on_c, 1, 40, 0
10, 27600, Note_on_c, 1, 40, 64
10, 27793, Note_on_c, 1, 40, 0
10, 27800, Note_on_c, 1, 35, 70
10, 27840, Note_on_c, 1, 35, 0
10, 27840, Note_on_c, 1, 33, 64
10, 28069, Note_on_c, 1, 33, 0
10, 28080, Note_on_c, 1, 33, 64
10, 28309, Note_on_c, 1, 33, 0
10, 28320, Note_on_c, 1, 41, 64
10, 28549, Note_on_c, 1, 41, 0
10, 28560, Note_on_c, 1, 41, 64
10, 28753, Note_on_c, 1, 41, 0
10, 28760, Note_on_c, 1, 36, 70
10, 28800, Note_on_c, 1, 36, 0
10, 28800, Note_on_c, 1, 36, 64
10, 29029, Note_on_c, 1, 36, 0
10, 29040, Note_on_c, 1, 36, 64
10, 29233, Note_on_c, 1, 36, 0
10, 29240, Note_on_c, 1, 43, 70
10, 29280, Note_on_c, 1, 43, 0
10, 29280, Note_on_c, 1, 36, 64
10, 29509, Note_on_c, 1, 36, 0
10, 29520, Note_on_c, 1, 36, 64
10, 29713, Note_on_c, 1, 36, 0
10, 29720, Note_on_c, 1, 31, 70
10, 29760, Note_on_c, 1, 31, 0
10, 29760, Note_on_c, 1, 33, 64
10, 29989, Note_on_c, 1, 33, 0
10, 30000, Note_on_c, 1, 33, 64
10, 30193, Note_on_c, 1, 33, 0
10, 30200, Note_on_c, 1, 40, 70
10, 30240, Note_on_c, 1, 40, 0
10, 30240, Note_on_c, 1, 38, 64
10, 30469, Note_on_c, 1, 38, 0
10, 30480, Note_on_c, 1, 43, 64
10, 30709, Note_on_c, 1, 43, 0
10, 30720, Note_on_c, 1, 36, 64
10, 30949, Note_on_c, 1, 36, 0
10, 30960, Note_on_c, 1, 36, 64
10, 31153, Note_on_c, 1, 36, 0
10, 31160, Note_on_c, 1, 31, 70
10, 31200, Note_on_c, 1, 31, 0
10, 31200, Note_on_c, 1, 33, 64
10, 31429, Note_on_c, 1, 33, 0
10, 31440, Note_on_c, 1, 33, 64
10, 31633, Note_on_c, 1, 33, 0
10, 31640, Note_on_c, 1, 40, 70
10, 31680, Note_on_c, 1, 40, 0
10, 31680, Note_on_c, 1, 41, 64
10, 31909, Note_on_c, 1, 41, 0
10, 31920, Note_on_c, 1, 41, 64
10, 32113, Note_on_c, 1, 41, 0
10, 32120, Note_on_c, 1, 36, 70
10, 32160, Note_on_c, 1, 36, 0
10, 32160, Note_on_c, 1, 38, 64
10, 32389, Note_on_c, 1, 38, 0
10, 32400, Note_on_c, 1, 43, 64
10, 32629, Note_on_c, 1, 43, 0
10, 32640, Note_on_c, 1, 36, 64
10, 32869, Note_on_c, 1, 36, 0
10, 32880, Note_on_c, 1, 36, 64
10, 33073, Note_on_c, 1, 36, 0
10, 33080, Note_on_c, 1, 31, 70
10, 33120, Note_on_c, 1, 31, 0
10, 33120, Note_on_c, 1, 33, 64
10, 33349, Note_on_c, 1, 33, 0
10, 33360, Note_on_c, 1, 33, 64
10, 33553, Note_on_c, 1, 33, 0
10, 33560, Note_on_c, 1, 40, 70
10, 33600, Note_on_c, 1, 40, 0
10, 33600, Note_on_c, 1, 38, 64
10, 33829, Note_on_c, 1, 38, 0
10, 33840, Note_on_c, 1, 38, 64
10, 34033, Note_on_c, 1, 38, 0
10, 34040, Note_on_c, 1, 45, 70
10, 34080, Note_on_c, 1, 45, 0
10, 34080, Note_on_c, 1, 38, 64
10, 34309, Note_on_c, 1, 38, 0
10, 34320, Note_on_c, 1, 43, 64
10, 34549, Note_on_c, 1, 43, 0
10, 34560, Note_on_c, 1, 36, 64
10, 34789, Note_on_c, 1, 36, 0
10, 34800, Note_on_c, 1, 33, 64
10, 35029, Note_on_c, 1, 33, 0
10, 35040, Note_on_c, 1, 38, 64
10, 35160, Note_on_c, 1, 38, 0
10, 35160, Note_on_c, 1, 43, 64
10, 35280, Note_on_c, 1, 43, 0
10, 35280, Note_on_c, 1, 36, 64
10, 35509, Note_on_c, 1, 36, 0
10, 35509, End_track
11, 0, Start_track
11, 0, MIDI_port, 0
11, 0, Title_t, "Piano"
11, 0, Program_c, 2, 0
11, 0, Control_c, 2, 7, 92
11, 0, Control_c, 2, 10, 44
11, 0, Control_c, 2, 121, 0
11, 0, Control_c, 2, 123, 0
11, 0, Control_c, 2, 91, 40
11, 0, Control_c, 2, 93, 0
11, 0, Control_c, 2, 64, 0
11, 960, Note_on_c, 2, 64, 55
11, 960, Note_on_c, 2, 36, 48
11, 1000, Note_on_c, 2, 52, 48
11, 1040, Note_on_c, 2, 55, 48
11, 1080, Note_on_c, 2, 60, 67
11, 1120, Note_on_c, 2, 55, 0
11, 1120, Note_on_c, 2, 52, 0
11, 1120, Note_on_c, 2, 55, 45
11, 1160, Note_on_c, 2, 60, 0
11, 1160, Note_on_c, 2, 52, 50
11, 1200, Note_on_c, 2, 55, 0
11, 1200, Note_on_c, 2, 60, 68
11, 1240, Note_on_c, 2, 52, 0
11, 1240, Note_on_c, 2, 55, 51
11, 1280, Note_on_c, 2, 60, 0
11, 1280, Note_on_c, 2, 52, 57
11, 1320, Note_on_c, 2, 55, 0
11, 1320, Note_on_c, 2, 60, 63
11, 1360, Note_on_c, 2, 52, 0
11, 1360, Note_on_c, 2, 55, 39
11, 1400, Note_on_c, 2, 36, 0
11, 1400, Note_on_c, 2, 52, 54
11, 1440, Note_on_c, 2, 60, 0
11, 1440, Note_on_c, 2, 55, 0
11, 1440, Note_on_c, 2, 64, 0
11, 1440, Note_on_c, 2, 64, 64
11, 1441, Note_on_c, 2, 52, 0
11, 1441, Note_on_c, 2, 36, 43
11, 1480, Note_on_c, 2, 52, 48
11, 1520, Note_on_c, 2, 55, 45
11, 1560, Note_on_c, 2, 60, 62
11, 1600, Note_on_c, 2, 55, 0
11, 1600, Note_on_c, 2, 52, 0
11, 1600, Note_on_c, 2, 55, 45
11, 1640, Note_on_c, 2, 60, 0
11, 1640, Note_on_c, 2, 52, 51
11, 1680, Note_on_c, 2, 55, 0
11, 1680, Note_on_c, 2, 60, 66
11, 1720, Note_on_c, 2, 52, 0
11, 1720, Note_on_c, 2, 55, 48
11, 1760, Note_on_c, 2, 60, 0
11, 1760, Note_on_c, 2, 52, 47
11, 1800, Note_on_c, 2, 55, 0
11, 1800, Note_on_c, 2, 60, 60
11, 1840, Note_on_c, 2, 52, 0
11, 1840, Note_on_c, 2, 55, 34
11, 1880, Note_on_c, 2, 52, 54
11, 1915, Note_on_c, 2, 36, 0
11, 1920, Note_on_c, 2, 55, 0
11, 1920, Note_on_c, 2, 60, 0
11, 1920, Note_on_c, 2, 64, 0
11, 1920, Note_on_c, 2, 52, 0
11, 1920, Note_on_c, 2, 36, 53
11, 1960, Note_on_c, 2, 52, 53
11, 2000, Note_on_c, 2, 55, 53
11, 2040, Note_on_c, 2, 52, 0
11, 2040, Note_on_c, 2, 60, 53
11, 2043, Note_on_c, 2, 55, 0
11, 2043, Control_c, 2, 64, 127
11, 2080, Note_on_c, 2, 55, 52
11, 2104, Note_on_c, 2, 60, 0
11, 2104, Note_on_c, 2, 36, 0
11, 2120, Note_on_c, 2, 52, 53
11, 2160, Note_on_c, 2, 52, 0
11, 2160, Note_on_c, 2, 55, 0
11, 2160, Note_on_c, 2, 48, 53
11, 2160, Control_c, 2, 64, 0
11, 2200, Note_on_c, 2, 52, 53
11, 2240, Note_on_c, 2, 55, 53
11, 2282, Note_on_c, 2, 55, 0
11, 2282, Note_on_c, 2, 52, 0
11, 2282, Note_on_c, 2, 60, 53
11, 2320, Control_c, 2, 64, 127
11, 2320, Note_on_c, 2, 55, 49
11, 2360, Note_on_c, 2, 55, 0
11, 2360, Note_on_c, 2, 60, 0
11, 2360, Note_on_c, 2, 52, 53
11, 2400, Note_on_c, 2, 52, 0
11, 2400, Note_on_c, 2, 48, 0
11, 2400, Control_c, 2, 64, 0
11, 2400, Note_on_c, 2, 64, 55
11, 2400, Note_on_c, 2, 36, 48
11, 2440, Note_on_c, 2, 52, 48
11, 2480, Note_on_c, 2, 55, 48
11, 2520, Note_on_c, 2, 60, 67
11, 2560, Note_on_c, 2, 55, 0
11, 2560, Note_on_c, 2, 52, 0
11, 2560, Note_on_c, 2, 55, 45
11, 2600, Note_on_c, 2, 60, 0
11, 2600, Note_on_c, 2, 52, 50
11, 2640, Note_on_c, 2, 52, 0
11, 2640, Note_on_c, 2, 55, 0
11, 2640, Note_on_c, 2, 36, 0
11, 2640, Note_on_c, 2, 64, 0
11, 2640, Note_on_c, 2, 67, 61
11, 2640, Note_on_c, 2, 43, 57
11, 2680, Control_c, 2, 64, 127
11, 2680, Note_on_c, 2, 62, 48
11, 2720, Note_on_c, 2, 67, 0
11, 2720, Note_on_c, 2, 59, 50
11, 2760, Note_on_c, 2, 59, 0
11, 2760, Note_on_c, 2, 62, 0
11, 2760, Note_on_c, 2, 67, 54
11, 2800, Note_on_c, 2, 62, 48
11, 2840, Note_on_c, 2, 67, 0
11, 2840, Note_on_c, 2, 59, 48
11, 2862, Note_on_c, 2, 59, 0
11, 2862, Note_on_c, 2, 62, 0
11, 2862, Note_on_c, 2, 43, 0
11, 2880, Control_c, 2, 64, 0
11, 2880, Note_on_c, 2, 60, 61
11, 2880, Note_on_c, 2, 36, 57
11, 2920, Control_c, 2, 64, 127
11, 2920, Note_on_c, 2, 55, 48
11, 2960, Note_on_c, 2, 60, 0
11, 2960, Note_on_c, 2, 52, 50
11, 3000, Note_on_c, 2, 52, 0
11, 3000, Note_on_c, 2, 55, 0
11, 3000, Note_on_c, 2, 60, 54
11, 3040, Note_on_c, 2, 55, 48
11, 3080, Note_on_c, 2, 60, 0
11, 3080, Note_on_c, 2, 52, 48
11, 3102, Note_on_c, 2, 52, 0
11, 3102, Note_on_c, 2, 55, 0
11, 3102, Note_on_c, 2, 36, 0
11, 3120, Note_on_c, 2, 64, 69
11, 3120, Note_on_c, 2, 48, 58
11, 3160, Control_c, 2, 64, 0
11, 3160, Note_on_c, 2, 60, 45
11, 3200, Note_on_c, 2, 55, 45
11, 3240, Note_on_c, 2, 60, 0
11, 3240, Note_on_c, 2, 64, 0
11, 3240, Note_on_c, 2, 64, 54
11, 3280, Note_on_c, 2, 55, 0
11, 3280, Note_on_c, 2, 60, 53
11, 3280, Control_c, 2, 64, 127
11, 3320, Note_on_c, 2, 64, 0
11, 3320, Note_on_c, 2, 55, 57
11, 3360, Note_on_c, 2, 55, 0
11, 3360, Note_on_c, 2, 60, 0
11, 3360, Note_on_c, 2, 48, 0
11, 3360, Control_c, 2, 64, 0
11, 3360, Note_on_c, 2, 60, 55
11, 3360, Note_on_c, 2, 45, 48
11, 3400, Note_on_c, 2, 48, 48
11, 3440, Note_on_c, 2, 52, 48
11, 3480, Note_on_c, 2, 55, 67
11, 3520, Note_on_c, 2, 52, 0
11, 3520, Note_on_c, 2, 48, 0
11, 3520, Note_on_c, 2, 52, 45
11, 3560, Note_on_c, 2, 55, 0
11, 3560, Note_on_c, 2, 48, 50
11, 3600, Note_on_c, 2, 52, 0
11, 3600, Note_on_c, 2, 55, 68
11, 3640, Note_on_c, 2, 48, 0
11, 3640, Note_on_c, 2, 52, 51
11, 3680, Note_on_c, 2, 55, 0
11, 3680, Note_on_c, 2, 48, 57
11, 3720, Note_on_c, 2, 52, 0
11, 3720, Note_on_c, 2, 55, 63
11, 3760, Note_on_c, 2, 48, 0
11, 3760, Note_on_c, 2, 52, 39
11, 3800, Note_on_c, 2, 45, 0
11, 3800, Note_on_c, 2, 48, 54
11, 3840, Note_on_c, 2, 48, 0
11, 3840, Note_on_c, 2, 52, 0
11, 3840, Note_on_c, 2, 60, 0
11, 3840, Note_on_c, 2, 55, 0
11, 3840, Note_on_c, 2, 38, 53
11, 3880, Note_on_c, 2, 53, 53
11, 3920, Note_on_c, 2, 57, 53
11, 3960, Note_on_c, 2, 53, 0
11, 3960, Note_on_c, 2, 60, 53
11, 3963, Note_on_c, 2, 57, 0
11, 3963, Control_c, 2, 64, 127
11, 4000, Note_on_c, 2, 57, 52
11, 4024, Note_on_c, 2, 60, 0
11, 4024, Note_on_c, 2, 38, 0
11, 4040, Note_on_c, 2, 53, 53
11, 4080, Note_on_c, 2, 53, 0
11, 4080, Note_on_c, 2, 57, 0
11, 4080, Note_on_c, 2, 50, 53
11, 4080, Control_c, 2, 64, 0
11, 4120, Note_on_c, 2, 53, 53
11, 4160, Note_on_c, 2, 57, 53
11, 4202, Note_on_c, 2, 57, 0
11, 4202, Note_on_c, 2, 53, 0
11, 4202, Note_on_c, 2, 60, 53
11, 4240, Control_c, 2, 64, 127
11, 4240, Note_on_c, 2, 57, 49
11, 4280, Note_on_c, 2, 57, 0
11, 4280, Note_on_c, 2, 60, 0
11, 4280, Note_on_c, 2, 53, 53
11, 4320, Note_on_c, 2, 53, 0
11, 4320, Note_on_c, 2, 50, 0
11, 4320, Control_c, 2, 64, 0
11, 4320, Note_on_c, 2, 43, 53
11, 4360, Note_on_c, 2, 55, 53
11, 4400, Note_on_c, 2, 59, 53
11, 4400, Control_c, 2, 64, 127
11, 4440, Note_on_c, 2, 59, 0
11, 4440, Note_on_c, 2, 65, 53
11, 4480, Note_on_c, 2, 55, 0
11, 4480, Note_on_c, 2, 59, 53
11, 4520, Note_on_c, 2, 55, 53
11, 4551, Note_on_c, 2, 59, 0
11, 4551, Note_on_c, 2, 43, 0
11, 4551, Note_on_c, 2, 65, 0
11, 4560, Note_on_c, 2, 43, 53
11, 4567, Note_on_c, 2, 55, 0
11, 4567, Control_c, 2, 64, 0
11, 4600, Note_on_c, 2, 55, 53
11, 4640, Note_on_c, 2, 59, 53
11, 4684, Note_on_c, 2, 59, 0
11, 4684, Note_on_c, 2, 65, 53
11, 4720, Note_on_c, 2, 55, 0
11, 4720, Note_on_c, 2, 59, 53
11, 4760, Note_on_c, 2, 55, 53
11, 4800, Note_on_c, 2, 55, 0
11, 4800, Note_on_c, 2, 43, 0
11, 4800, Note_on_c, 2, 65, 0
11, 4800, Note_on_c, 2, 59, 0
11, 4800, Note_on_c, 2, 60, 61
11, 4800, Note_on_c, 2, 36, 57
11, 4840, Control_c, 2, 64, 127
11, 4840, Note_on_c, 2, 55, 48
11, 4880, Note_on_c, 2, 60, 0
11, 4880, Note_on_c, 2, 52, 50
11, 4920, Note_on_c, 2, 52, 0
11, 4920, Note_on_c, 2, 55, 0
11, 4920, Note_on_c, 2, 60, 54
11, 4960, Note_on_c, 2, 55, 48
11, 5000, Note_on_c, 2, 60, 0
11, 5000, Note_on_c, 2, 52, 48
11, 5022, Note_on_c, 2, 52, 0
11, 5022, Note_on_c, 2, 55, 0
11, 5022, Note_on_c, 2, 36, 0
11, 5040, Note_on_c, 2, 64, 69
11, 5040, Note_on_c, 2, 48, 58
11, 5080, Control_c, 2, 64, 0
11, 5080, Note_on_c, 2, 60, 45
11, 5120, Note_on_c, 2, 55, 45
11, 5160, Note_on_c, 2, 60, 0
11, 5160, Note_on_c, 2, 64, 0
11, 5160, Note_on_c, 2, 64, 54
11, 5200, Note_on_c, 2, 55, 0
11, 5200, Note_on_c, 2, 60, 53
11, 5200, Control_c, 2, 64, 127
11, 5240, Note_on_c, 2, 64, 0
11, 5240, Note_on_c, 2, 55, 57
11, 5280, Note_on_c, 2, 55, 0
11, 5280, Note_on_c, 2, 60, 0
11, 5280, Note_on_c, 2, 48, 0
11, 5280, Control_c, 2, 64, 0
11, 5280, Note_on_c, 2, 34, 53
11, 5320, Note_on_c, 2, 50, 53
11, 5360, Note_on_c, 2, 53, 53
11, 5400, Note_on_c, 2, 50, 0
11, 5400, Note_on_c, 2, 58, 53
11, 5403, Note_on_c, 2, 53, 0
11, 5403, Control_c, 2, 64, 127
11, 5440, Note_on_c, 2, 53, 52
11, 5464, Note_on_c, 2, 58, 0
11, 5464, Note_on_c, 2, 34, 0
11, 5480, Note_on_c, 2, 50, 53
11, 5520, Note_on_c, 2, 50, 0
11, 5520, Note_on_c, 2, 53, 0
11, 5520, Note_on_c, 2, 46, 53
11, 5520, Control_c, 2, 64, 0
11, 5560, Note_on_c, 2, 50, 53
11, 5600, Note_on_c, 2, 53, 53
11, 5642, Note_on_c, 2, 53, 0
11, 5642, Note_on_c, 2, 50, 0
11, 5642, Note_on_c, 2, 58, 53
11, 5680, Control_c, 2, 64, 127
11, 5680, Note_on_c, 2, 53, 49
11, 5720, Note_on_c, 2, 53, 0
11, 5720, Note_on_c, 2, 58, 0
11, 5720, Note_on_c, 2, 50, 53
11, 5760, Note_on_c, 2, 50, 0
11, 5760, Note_on_c, 2, 46, 0
11, 5760, Control_c, 2, 64, 0
11, 5760, Note_on_c, 2, 57, 61
11, 5760, Note_on_c, 2, 45, 57
11, 5800, Control_c, 2, 64, 127
11, 5800, Note_on_c, 2, 52, 48
11, 5840, Note_on_c, 2, 57, 0
11, 5840, Note_on_c, 2, 49, 50
11, 5880, Note_on_c, 2, 49, 0
11, 5880, Note_on_c, 2, 52, 0
11, 5880, Note_on_c, 2, 57, 54
11, 5920, Note_on_c, 2, 52, 48
11, 5960, Note_on_c, 2, 57, 0
11, 5960, Note_on_c, 2, 49, 48
11, 5982, Note_on_c, 2, 49, 0
11, 5982, Note_on_c, 2, 52, 0
11, 5982, Note_on_c, 2, 45, 0
11, 6000, Note_on_c, 2, 61, 69
11, 6000, Note_on_c, 2, 45, 58
11, 6040, Control_c, 2, 64, 0
11, 6040, Note_on_c, 2, 57, 45
11, 6080, Note_on_c, 2, 52, 45
11, 6120, Note_on_c, 2, 57, 0
11, 6120, Note_on_c, 2, 61, 0
11, 6120, Note_on_c, 2, 61, 54
11, 6160, Note_on_c, 2, 52, 0
11, 6160, Note_on_c, 2, 57, 53
11, 6160, Control_c, 2, 64, 127
11, 6200, Note_on_c, 2, 61, 0
11, 6200, Note_on_c, 2, 52, 57
11, 6240, Note_on_c, 2, 52, 0
11, 6240, Note_on_c, 2, 57, 0
11, 6240, Note_on_c, 2, 45, 0
11, 6240, Control_c, 2, 64, 0
11, 6240, Note_on_c, 2, 41, 53
11, 6280, Note_on_c, 2, 53, 53
11, 6320, Note_on_c, 2, 56, 53
11, 6320, Control_c, 2, 64, 127
11, 6360, Note_on_c, 2, 56, 0
11, 6360, Note_on_c, 2, 62, 53
11, 6400, Note_on_c, 2, 53, 0
11, 6400, Note_on_c, 2, 56, 53
11, 6440, Note_on_c, 2, 53, 53
11, 6471, Note_on_c, 2, 56, 0
11, 6471, Note_on_c, 2, 41, 0
11, 6471, Note_on_c, 2, 62, 0
11, 6480, Note_on_c, 2, 53, 0
11, 6480, Control_c, 2, 64, 0
11, 6480, Note_on_c, 2, 38, 53
11, 6520, Note_on_c, 2, 53, 53
11, 6560, Note_on_c, 2, 57, 53
11, 6600, Note_on_c, 2, 57, 0
11, 6600, Note_on_c, 2, 53, 0
11, 6600, Note_on_c, 2, 38, 0
11, 6600, Note_on_c, 2, 67, 61
11, 6600, Note_on_c, 2, 43, 57
11, 6640, Control_c, 2, 64, 127
11, 6640, Note_on_c, 2, 62, 48
11, 6680, Note_on_c, 2, 67, 0
11, 6680, Note_on_c, 2, 59, 50
11, 6720, Note_on_c, 2, 59, 0
11, 6720, Note_on_c, 2, 62, 0
11, 6720, Note_on_c, 2, 43, 0
11, 6720, Control_c, 2, 64, 0
11, 6720, Note_on_c, 2, 60, 61
11, 6720, Note_on_c, 2, 36, 57
11, 6760, Control_c, 2, 64, 127
11, 6760, Note_on_c, 2, 55, 48
11, 6800, Note_on_c, 2, 60, 0
11, 6800, Note_on_c, 2, 52, 50
11, 6840, Note_on_c, 2, 52, 0
11, 6840, Note_on_c, 2, 55, 0
11, 6840, Note_on_c, 2, 60, 54
11, 6880, Note_on_c, 2, 55, 48
11, 6920, Note_on_c, 2, 60, 0
11, 6920, Note_on_c, 2, 52, 48
11, 6942, Note_on_c, 2, 52, 0
11, 6942, Note_on_c, 2, 55, 0
11, 6942, Note_on_c, 2, 36, 0
11, 6960, Note_on_c, 2, 64, 69
11, 6960, Note_on_c, 2, 48, 58
11, 7000, Control_c, 2, 64, 0
11, 7000, Note_on_c, 2, 60, 45
11, 7040, Note_on_c, 2, 55, 45
11, 7080, Note_on_c, 2, 60, 0
11, 7080, Note_on_c, 2, 64, 0
11, 7080, Note_on_c, 2, 64, 54
11, 7120, Note_on_c, 2, 55, 0
11, 7120, Note_on_c, 2, 60, 53
11, 7120, Control_c, 2, 64, 127
11, 7160, Note_on_c, 2, 64, 0
11, 7160, Note_on_c, 2, 55, 57
11, 7200, Note_on_c, 2, 55, 0
11, 7200, Note_on_c, 2, 60, 0
11, 7200, Note_on_c, 2, 48, 0
11, 7200, Control_c, 2, 64, 0
11, 7200, Note_on_c, 2, 57, 61
11, 7200, Note_on_c, 2, 45, 57
11, 7240, Control_c, 2, 64, 127
11, 7240, Note_on_c, 2, 52, 48
11, 7280, Note_on_c, 2, 57, 0
11, 7280, Note_on_c, 2, 48, 50
11, 7320, Note_on_c, 2, 48, 0
11, 7320, Note_on_c, 2, 52, 0
11, 7320, Note_on_c, 2, 57, 54
11, 7360, Note_on_c, 2, 52, 48
11, 7400, Note_on_c, 2, 57, 0
11, 7400, Note_on_c, 2, 48, 48
11, 7422, Note_on_c, 2, 48, 0
11, 7422, Note_on_c, 2, 52, 0
11, 7422, Note_on_c, 2, 45, 0
11, 7440, Note_on_c, 2, 60, 69
11, 7440, Note_on_c, 2, 45, 58
11, 7480, Control_c, 2, 64, 0
11, 7480, Note_on_c, 2, 57, 45
11, 7520, Note_on_c, 2, 52, 45
11, 7560, Note_on_c, 2, 57, 0
11, 7560, Note_on_c, 2, 60, 0
11, 7560, Note_on_c, 2, 60, 54
11, 7600, Note_on_c, 2, 52, 0
11, 7600, Note_on_c, 2, 57, 53
11, 7600, Control_c, 2, 64, 127
11, 7640, Note_on_c, 2, 60, 0
11, 7640, Note_on_c, 2, 52, 57
11, 7680, Note_on_c, 2, 52, 0
11, 7680, Note_on_c, 2, 57, 0
11, 7680, Note_on_c, 2, 45, 0
11, 7680, Control_c, 2, 64, 0
11, 7680, Note_on_c, 2, 38, 53
11, 7720, Note_on_c, 2, 53, 53
11, 7760, Note_on_c, 2, 57, 53
11, 7800, Note_on_c, 2, 53, 0
11, 7800, Note_on_c, 2, 60, 53
11, 7803, Note_on_c, 2, 57, 0
11, 7803, Control_c, 2, 64, 127
11, 7840, Note_on_c, 2, 57, 52
11, 7864, Note_on_c, 2, 60, 0
11, 7864, Note_on_c, 2, 38, 0
11, 7880, Note_on_c, 2, 53, 53
11, 7920, Note_on_c, 2, 53, 0
11, 7920, Note_on_c, 2, 57, 0
11, 7920, Note_on_c, 2, 50, 53
11, 7920, Control_c, 2, 64, 0
11, 7960, Note_on_c, 2, 53, 53
11, 8000, Note_on_c, 2, 57, 53
11, 8042, Note_on_c, 2, 57, 0
11, 8042, Note_on_c, 2, 53, 0
11, 8042, Note_on_c, 2, 60, 53
11, 8080, Control_c, 2, 64, 127
11, 8080, Note_on_c, 2, 57, 49
11, 8120, Note_on_c, 2, 57, 0
11, 8120, Note_on_c, 2, 60, 0
11, 8120, Note_on_c, 2, 53, 53
11, 8160, Note_on_c, 2, 53, 0
11, 8160, Note_on_c, 2, 50, 0
11, 8160, Control_c, 2, 64, 0
11, 8160, Note_on_c, 2, 43, 53
11, 8200, Note_on_c, 2, 55, 53
11, 8240, Note_on_c, 2, 59, 53
11, 8240, Control_c, 2, 64, 127
11, 8280, Note_on_c, 2, 59, 0
11, 8280, Note_on_c, 2, 65, 53
11, 8320, Note_on_c, 2, 55, 0
11, 8320, Note_on_c, 2, 59, 53
11, 8360, Note_on_c, 2, 55, 53
11, 8391, Note_on_c, 2, 59, 0
11, 8391, Note_on_c, 2, 43, 0
11, 8391, Note_on_c, 2, 65, 0
11, 8400, Note_on_c, 2, 43, 53
11, 8407, Note_on_c, 2, 55, 0
11, 8407, Control_c, 2, 64, 0
11, 8440, Note_on_c, 2, 55, 53
11, 8480, Note_on_c, 2, 59, 53
11, 8524, Note_on_c, 2, 59, 0
11, 8524, Note_on_c, 2, 65, 53
11, 8560, Note_on_c, 2, 55, 0
11, 8560, Note_on_c, 2, 59, 53
11, 8600, Note_on_c, 2, 55, 53
11, 8640, Note_on_c, 2, 55, 0
11, 8640, Note_on_c, 2, 43, 0
11, 8640, Note_on_c, 2, 65, 0
11, 8640, Note_on_c, 2, 59, 0
11, 8640, Note_on_c, 2, 64, 55
11, 8640, Note_on_c, 2, 36, 48
11, 8680, Note_on_c, 2, 52, 48
11, 8720, Note_on_c, 2, 55, 48
11, 8760, Note_on_c, 2, 60, 67
11, 8800, Note_on_c, 2, 55, 0
11, 8800, Note_on_c, 2, 52, 0
11, 8800, Note_on_c, 2, 55, 45
11, 8840, Note_on_c, 2, 60, 0
11, 8840, Note_on_c, 2, 52, 50
11, 8880, Note_on_c, 2, 55, 0
11, 8880, Note_on_c, 2, 60, 68
11, 8920, Note_on_c, 2, 52, 0
11, 8920, Note_on_c, 2, 55, 51
11, 8960, Note_on_c, 2, 60, 0
11, 8960, Note_on_c, 2, 52, 57
11, 9000, Note_on_c, 2, 55, 0
11, 9000, Note_on_c, 2, 60, 63
11, 9040, Note_on_c, 2, 52, 0
11, 9040, Note_on_c, 2, 55, 39
11, 9080, Note_on_c, 2, 36, 0
11, 9080, Note_on_c, 2, 52, 54
11, 9120, Note_on_c, 2, 52, 0
11, 9120, Note_on_c, 2, 55, 0
11, 9120, Note_on_c, 2, 64, 0
11, 9120, Note_on_c, 2, 60, 0
11, 9120, Note_on_c, 2, 34, 53
11, 9160, Note_on_c, 2, 50, 53
11, 9200, Note_on_c, 2, 53, 53
11, 9240, Note_on_c, 2, 50, 0
11, 9240, Note_on_c, 2, 58, 53
11, 9243, Note_on_c, 2, 53, 0
11, 9243, Control_c, 2, 64, 127
11, 9280, Note_on_c, 2, 53, 52
11, 9304, Note_on_c, 2, 58, 0
11, 9304, Note_on_c, 2, 34, 0
11, 9320, Note_on_c, 2, 50, 53
11, 9360, Note_on_c, 2, 50, 0
11, 9360, Note_on_c, 2, 53, 0
11, 9360, Note_on_c, 2, 46, 53
11, 9360, Control_c, 2, 64, 0
11, 9400, Note_on_c, 2, 50, 53
11, 9440, Note_on_c, 2, 53, 53
11, 9482, Note_on_c, 2, 53, 0
11, 9482, Note_on_c, 2, 50, 0
11, 9482, Note_on_c, 2, 58, 53
11, 9520, Control_c, 2, 64, 127
11, 9520, Note_on_c, 2, 53, 49
11, 9560, Note_on_c, 2, 53, 0
11, 9560, Note_on_c, 2, 58, 0
11, 9560, Note_on_c, 2, 50, 53
11, 9600, Note_on_c, 2, 50, 0
11, 9600, Note_on_c, 2, 46, 0
11, 9600, Control_c, 2, 64, 0
11, 9600, Note_on_c, 2, 57, 61
11, 9600, Note_on_c, 2, 45, 57
11, 9640, Control_c, 2, 64, 127
11, 9640, Note_on_c, 2, 52, 48
11, 9680, Note_on_c, 2, 57, 0
11, 9680, Note_on_c, 2, 49, 50
11, 9720, Note_on_c, 2, 49, 0
11, 9720, Note_on_c, 2, 52, 0
11, 9720, Note_on_c, 2, 57, 54
11, 9760, Note_on_c, 2, 52, 48
11, 9800, Note_on_c, 2, 57, 0
11, 9800, Note_on_c, 2, 49, 48
11, 9822, Note_on_c, 2, 49, 0
11, 9822, Note_on_c, 2, 52, 0
11, 9822, Note_on_c, 2, 45, 0
11, 9840, Note_on_c, 2, 61, 69
11, 9840, Note_on_c, 2, 45, 58
11, 9880, Control_c, 2, 64, 0
11, 9880, Note_on_c, 2, 57, 45
11, 9920, Note_on_c, 2, 52, 45
11, 9960, Note_on_c, 2, 57, 0
11, 9960, Note_on_c, 2, 61, 0
11, 9960, Note_on_c, 2, 61, 54
11, 10000, Note_on_c, 2, 52, 0
11, 10000, Note_on_c, 2, 57, 53
11, 10000, Control_c, 2, 64, 127
11, 10040, Note_on_c, 2, 61, 0
11, 10040, Note_on_c, 2, 52, 57
11, 10080, Note_on_c, 2, 52, 0
11, 10080, Note_on_c, 2, 57, 0
11, 10080, Note_on_c, 2, 45, 0
11, 10080, Control_c, 2, 64, 0
11, 10080, Note_on_c, 2, 57, 61
11, 10080, Note_on_c, 2, 45, 57
11, 10120, Control_c, 2, 64, 127
11, 10120, Note_on_c, 2, 52, 48
11, 10160, Note_on_c, 2, 57, 0
11, 10160, Note_on_c, 2, 49, 50
11, 10200, Note_on_c, 2, 49, 0
11, 10200, Note_on_c, 2, 52, 0
11, 10200, Note_on_c, 2, 57, 54
11, 10240, Note_on_c, 2, 52, 48
11, 10280, Note_on_c, 2, 57, 0
11, 10280, Note_on_c, 2, 49, 48
11, 10302, Note_on_c, 2, 49, 0
11, 10302, Note_on_c, 2, 52, 0
11, 10302, Note_on_c, 2, 45, 0
11, 10320, Control_c, 2, 64, 0
11, 10320, Note_on_c, 2, 45, 53
11, 10360, Note_on_c, 2, 49, 53
11, 10400, Note_on_c, 2, 51, 53
11, 10440, Note_on_c, 2, 49, 0
11, 10440, Note_on_c, 2, 55, 53
11, 10443, Note_on_c, 2, 51, 0
11, 10443, Control_c, 2, 64, 127
11, 10480, Note_on_c, 2, 51, 52
11, 10504, Note_on_c, 2, 55, 0
11, 10504, Note_on_c, 2, 45, 0
11, 10520, Note_on_c, 2, 49, 53
11, 10560, Note_on_c, 2, 49, 0
11, 10560, Note_on_c, 2, 51, 0
11, 10560, Control_c, 2, 64, 0
11, 10560, Note_on_c, 2, 62, 61
11, 10560, Note_on_c, 2, 38, 57
11, 10600, Control_c, 2, 64, 127
11, 10600, Note_on_c, 2, 57, 48
11, 10640, Note_on_c, 2, 62, 0
11, 10640, Note_on_c, 2, 53, 50
11, 10680, Note_on_c, 2, 53, 0
11, 10680, Note_on_c, 2, 57, 0
11, 10680, Note_on_c, 2, 62, 54
11, 10720, Note_on_c, 2, 57, 48
11, 10760, Note_on_c, 2, 62, 0
11, 10760, Note_on_c, 2, 53, 48
11, 10782, Note_on_c, 2, 53, 0
11, 10782, Note_on_c, 2, 57, 0
11, 10782, Note_on_c, 2, 38, 0
11, 10800, Note_on_c, 2, 65, 69
11, 10800, Note_on_c, 2, 50, 58
11, 10840, Control_c, 2, 64, 0
11, 10840, Note_on_c, 2, 62, 45
11, 10880, Note_on_c, 2, 57, 45
11, 10920, Note_on_c, 2, 62, 0
11, 10920, Note_on_c, 2, 65, 0
11, 10920, Note_on_c, 2, 65, 54
11, 10960, Note_on_c, 2, 57, 0
11, 10960, Note_on_c, 2, 62, 53
11, 10960, Control_c, 2, 64, 127
11, 11000, Note_on_c, 2, 65, 0
11, 11000, Note_on_c, 2, 57, 57
11, 11040, Note_on_c, 2, 57, 0
11, 11040, Note_on_c, 2, 62, 0
11, 11040, Note_on_c, 2, 50, 0
11, 11040, Control_c, 2, 64, 0
11, 11040, Note_on_c, 2, 40, 53
11, 11080, Note_on_c, 2, 52, 53
11, 11120, Note_on_c, 2, 56, 53
11, 11120, Control_c, 2, 64, 127
11, 11160, Note_on_c, 2, 56, 0
11, 11160, Note_on_c, 2, 62, 53
11, 11200, Note_on_c, 2, 52, 0
11, 11200, Note_on_c, 2, 56, 53
11, 11240, Note_on_c, 2, 52, 53
11, 11271, Note_on_c, 2, 56, 0
11, 11271, Note_on_c, 2, 40, 0
11, 11271, Note_on_c, 2, 62, 0
11, 11280, Note_on_c, 2, 40, 53
11, 11287, Note_on_c, 2, 52, 0
11, 11287, Control_c, 2, 64, 0
11, 11320, Note_on_c, 2, 52, 53
11, 11360, Note_on_c, 2, 56, 53
11, 11404, Note_on_c, 2, 56, 0
11, 11404, Note_on_c, 2, 62, 53
11, 11440, Note_on_c, 2, 52, 0
11, 11440, Note_on_c, 2, 56, 53
11, 11480, Note_on_c, 2, 52, 53
11, 11520, Note_on_c, 2, 52, 0
11, 11520, Note_on_c, 2, 40, 0
11, 11520, Note_on_c, 2, 62, 0
11, 11520, Note_on_c, 2, 56, 0
11, 11520, Note_on_c, 2, 60, 55
11, 11520, Note_on_c, 2, 45, 48
11, 11560, Note_on_c, 2, 48, 48
11, 11600, Note_on_c, 2, 52, 48
11, 11640, Note_on_c, 2, 57, 67
11, 11680, Note_on_c, 2, 52, 0
11, 11680, Note_on_c, 2, 48, 0
11, 11680, Note_on_c, 2, 52, 45
11, 11720, Note_on_c, 2, 57, 0
11, 11720, Note_on_c, 2, 48, 50
11, 11760, Note_on_c, 2, 48, 0
11, 11760, Note_on_c, 2, 52, 0
11, 11760, Note_on_c, 2, 45, 0
11, 11760, Note_on_c, 2, 60, 0
11, 11760, Note_on_c, 2, 57, 61
11, 11760, Note_on_c, 2, 45, 57
11, 11800, Control_c, 2, 64, 127
11, 11800, Note_on_c, 2, 52, 48
11, 11840, Note_on_c, 2, 57, 0
11, 11840, Note_on_c, 2, 48, 50
11, 11880, Note_on_c, 2, 48, 0
11, 11880, Note_on_c, 2, 52, 0
11, 11880, Note_on_c, 2, 57, 54
11, 11920, Note_on_c, 2, 52, 48
11, 11960, Note_on_c, 2, 57, 0
11, 11960, Note_on_c, 2, 48, 48
11, 11982, Note_on_c, 2, 48, 0
11, 11982, Note_on_c, 2, 52, 0
11, 11982, Note_on_c, 2, 45, 0
11, 12000, Control_c, 2, 64, 0
11, 12000, Note_on_c, 2, 65, 61
11, 12000, Note_on_c, 2, 41, 57
11, 12040, Control_c, 2, 64, 127
11, 12040, Note_on_c, 2, 60, 48
11, 12080, Note_on_c, 2, 65, 0
11, 12080, Note_on_c, 2, 56, 50
11, 12120, Note_on_c, 2, 56, 0
11, 12120, Note_on_c, 2, 60, 0
11, 12120, Note_on_c, 2, 65, 54
11, 12160, Note_on_c, 2, 60, 48
11, 12200, Note_on_c, 2, 65, 0
11, 12200, Note_on_c, 2, 56, 48
11, 12222, Note_on_c, 2, 56, 0
11, 12222, Note_on_c, 2, 60, 0
11, 12222, Note_on_c, 2, 41, 0
11, 12240, Note_on_c, 2, 68, 69
11, 12240, Note_on_c, 2, 53, 58
11, 12280, Control_c, 2, 64, 0
11, 12280, Note_on_c, 2, 65, 45
11, 12320, Note_on_c, 2, 60, 45
11, 12360, Note_on_c, 2, 65, 0
11, 12360, Note_on_c, 2, 68, 0
11, 12360, Note_on_c, 2, 68, 54
11, 12400, Note_on_c, 2, 60, 0
11, 12400, Note_on_c, 2, 65, 53
11, 12400, Control_c, 2, 64, 127
11, 12440, Note_on_c, 2, 68, 0
11, 12440, Note_on_c, 2, 60, 57
11, 12480, Note_on_c, 2, 60, 0
11, 12480, Note_on_c, 2, 65, 0
11, 12480, Note_on_c, 2, 53, 0
11, 12480, Control_c, 2, 64, 0
11, 12480, Note_on_c, 2, 64, 55
11, 12480, Note_on_c, 2, 36, 48
11, 12520, Note_on_c, 2, 52, 48
11, 12560, Note_on_c, 2, 55, 48
11, 12600, Note_on_c, 2, 60, 67
11, 12640, Note_on_c, 2, 55, 0
11, 12640, Note_on_c, 2, 52, 0
11, 12640, Note_on_c, 2, 55, 45
11, 12680, Note_on_c, 2, 60, 0
11, 12680, Note_on_c, 2, 52, 50
11, 12720, Note_on_c, 2, 55, 0
11, 12720, Note_on_c, 2, 60, 68
11, 12760, Note_on_c, 2, 52, 0
11, 12760, Note_on_c, 2, 55, 51
11, 12800, Note_on_c, 2, 60, 0
11, 12800, Note_on_c, 2, 52, 57
11, 12840, Note_on_c, 2, 55, 0
11, 12840, Note_on_c, 2, 60, 63
11, 12880, Note_on_c, 2, 52, 0
11, 12880, Note_on_c, 2, 55, 39
11, 12920, Note_on_c, 2, 36, 0
11, 12920, Note_on_c, 2, 52, 54
11, 12960, Note_on_c, 2, 52, 0
11, 12960, Note_on_c, 2, 55, 0
11, 12960, Note_on_c, 2, 64, 0
11, 12960, Note_on_c, 2, 60, 0
11, 12960, Note_on_c, 2, 64, 55
11, 12960, Note_on_c, 2, 36, 48
11, 13000, Note_on_c, 2, 52, 48
11, 13040, Note_on_c, 2, 56, 48
11, 13080, Note_on_c, 2, 60, 67
11, 13120, Note_on_c, 2, 56, 0
11, 13120, Note_on_c, 2, 52, 0
11, 13120, Note_on_c, 2, 56, 45
11, 13160, Note_on_c, 2, 60, 0
11, 13160, Note_on_c, 2, 52, 50
11, 13200, Note_on_c, 2, 56, 0
11, 13200, Note_on_c, 2, 60, 68
11, 13240, Note_on_c, 2, 52, 0
11, 13240, Note_on_c, 2, 56, 51
11, 13280, Note_on_c, 2, 60, 0
11, 13280, Note_on_c, 2, 52, 57
11, 13320, Note_on_c, 2, 56, 0
11, 13320, Note_on_c, 2, 60, 63
11, 13360, Note_on_c, 2, 52, 0
11, 13360, Note_on_c, 2, 56, 39
11, 13400, Note_on_c, 2, 36, 0
11, 13400, Note_on_c, 2, 52, 54
11, 13440, Note_on_c, 2, 52, 0
11, 13440, Note_on_c, 2, 56, 0
11, 13440, Note_on_c, 2, 64, 0
11, 13440, Note_on_c, 2, 60, 0
11, 13440, Note_on_c, 2, 57, 61
11, 13440, Note_on_c, 2, 45, 57
11, 13480, Control_c, 2, 64, 127
11, 13480, Note_on_c, 2, 52, 48
11, 13520, Note_on_c, 2, 57, 0
11, 13520, Note_on_c, 2, 48, 50
11, 13560, Note_on_c, 2, 48, 0
11, 13560, Note_on_c, 2, 52, 0
11, 13560, Note_on_c, 2, 57, 54
11, 13600, Note_on_c, 2, 52, 48
11, 13640, Note_on_c, 2, 57, 0
11, 13640, Note_on_c, 2, 48, 48
11, 13662, Note_on_c, 2, 48, 0
11, 13662, Note_on_c, 2, 52, 0
11, 13662, Note_on_c, 2, 45, 0
11, 13680, Note_on_c, 2, 60, 69
11, 13680, Note_on_c, 2, 45, 58
11, 13720, Control_c, 2, 64, 0
11, 13720, Note_on_c, 2, 57, 45
11, 13760, Note_on_c, 2, 52, 45
11, 13800, Note_on_c, 2, 57, 0
11, 13800, Note_on_c, 2, 60, 0
11, 13800, Note_on_c, 2, 60, 54
11, 13840, Note_on_c, 2, 52, 0
11, 13840, Note_on_c, 2, 57, 53
11, 13840, Control_c, 2, 64, 127
11, 13880, Note_on_c, 2, 60, 0
11, 13880, Note_on_c, 2, 52, 57
11, 13920, Note_on_c, 2, 52, 0
11, 13920, Note_on_c, 2, 57, 0
11, 13920, Note_on_c, 2, 45, 0
11, 13920, Control_c, 2, 64, 0
11, 13920, Note_on_c, 2, 65, 55
11, 13920, Note_on_c, 2, 38, 48
11, 13960, Note_on_c, 2, 53, 48
11, 14000, Note_on_c, 2, 57, 48
11, 14040, Note_on_c, 2, 60, 67
11, 14080, Note_on_c, 2, 57, 0
11, 14080, Note_on_c, 2, 53, 0
11, 14080, Note_on_c, 2, 57, 45
11, 14120, Note_on_c, 2, 60, 0
11, 14120, Note_on_c, 2, 53, 50
11, 14160, Note_on_c, 2, 53, 0
11, 14160, Note_on_c, 2, 57, 0
11, 14160, Note_on_c, 2, 38, 0
11, 14160, Note_on_c, 2, 65, 0
11, 14160, Note_on_c, 2, 43, 53
11, 14200, Note_on_c, 2, 55, 53
11, 14240, Note_on_c, 2, 59, 53
11, 14240, Control_c, 2, 64, 127
11, 14280, Note_on_c, 2, 59, 0
11, 14280, Note_on_c, 2, 65, 53
11, 14320, Note_on_c, 2, 55, 0
11, 14320, Note_on_c, 2, 59, 53
11, 14360, Note_on_c, 2, 55, 53
11, 14391, Note_on_c, 2, 59, 0
11, 14391, Note_on_c, 2, 43, 0
11, 14391, Note_on_c, 2, 65, 0
11, 14400, Note_on_c, 2, 55, 0
11, 14400, Control_c, 2, 64, 0
11, 14400, Note_on_c, 2, 36, 53
11, 14440, Note_on_c, 2, 52, 53
11, 14480, Note_on_c, 2, 55, 53
11, 14520, Note_on_c, 2, 52, 0
11, 14520, Note_on_c, 2, 60, 53
11, 14523, Note_on_c, 2, 55, 0
11, 14523, Control_c, 2, 64, 127
11, 14560, Note_on_c, 2, 55, 52
11, 14584, Note_on_c, 2, 60, 0
11, 14584, Note_on_c, 2, 36, 0
11, 14600, Note_on_c, 2, 52, 53
11, 14640, Note_on_c, 2, 52, 0
11, 14640, Note_on_c, 2, 55, 0
11, 14640, Note_on_c, 2, 48, 53
11, 14640, Control_c, 2, 64, 0
11, 14680, Note_on_c, 2, 52, 53
11, 14720, Note_on_c, 2, 55, 53
11, 14762, Note_on_c, 2, 55, 0
11, 14762, Note_on_c, 2, 52, 0
11, 14762, Note_on_c, 2, 60, 53
11, 14800, Control_c, 2, 64, 127
11, 14800, Note_on_c, 2, 55, 49
11, 14840, Note_on_c, 2, 55, 0
11, 14840, Note_on_c, 2, 60, 0
11, 14840, Note_on_c, 2, 52, 53
11, 14880, Note_on_c, 2, 52, 0
11, 14880, Note_on_c, 2, 48, 0
11, 14880, Control_c, 2, 64, 0
11, 14880, Note_on_c, 2, 57, 61
11, 14880, Note_on_c, 2, 45, 57
11, 14920, Control_c, 2, 64, 127
11, 14920, Note_on_c, 2, 52, 48
11, 14960, Note_on_c, 2, 57, 0
11, 14960, Note_on_c, 2, 48, 50
11, 15000, Note_on_c, 2, 48, 0
11, 15000, Note_on_c, 2, 52, 0
11, 15000, Note_on_c, 2, 57, 54
11, 15040, Note_on_c, 2, 52, 48
11, 15080, Note_on_c, 2, 57, 0
11, 15080, Note_on_c, 2, 48, 48
11, 15102, Note_on_c, 2, 48, 0
11, 15102, Note_on_c, 2, 52, 0
11, 15102, Note_on_c, 2, 45, 0
11, 15120, Note_on_c, 2, 60, 69
11, 15120, Note_on_c, 2, 45, 58
11, 15160, Control_c, 2, 64, 0
11, 15160, Note_on_c, 2, 57, 45
11, 15200, Note_on_c, 2, 52, 45
11, 15240, Note_on_c, 2, 57, 0
11, 15240, Note_on_c, 2, 60, 0
11, 15240, Note_on_c, 2, 60, 54
11, 15280, Note_on_c, 2, 52, 0
11, 15280, Note_on_c, 2, 57, 53
11, 15280, Control_c, 2, 64, 127
11, 15320, Note_on_c, 2, 60, 0
11, 15320, Note_on_c, 2, 52, 57
11, 15360, Note_on_c, 2, 52, 0
11, 15360, Note_on_c, 2, 57, 0
11, 15360, Note_on_c, 2, 45, 0
11, 15360, Control_c, 2, 64, 0
11, 15360, Note_on_c, 2, 65, 61
11, 15360, Note_on_c, 2, 41, 57
11, 15400, Control_c, 2, 64, 127
11, 15400, Note_on_c, 2, 60, 48
11, 15440, Note_on_c, 2, 65, 0
11, 15440, Note_on_c, 2, 56, 50
11, 15480, Note_on_c, 2, 56, 0
11, 15480, Note_on_c, 2, 60, 0
11, 15480, Note_on_c, 2, 65, 54
11, 15520, Note_on_c, 2, 60, 48
11, 15560, Note_on_c, 2, 65, 0
11, 15560, Note_on_c, 2, 56, 48
11, 15582, Note_on_c, 2, 56, 0
11, 15582, Note_on_c, 2, 60, 0
11, 15582, Note_on_c, 2, 41, 0
11, 15600, Note_on_c, 2, 68, 69
11, 15600, Note_on_c, 2, 53, 58
11, 15640, Control_c, 2, 64, 0
11, 15640, Note_on_c, 2, 65, 45
11, 15680, Note_on_c, 2, 60, 45
11, 15720, Note_on_c, 2, 65, 0
11, 15720, Note_on_c, 2, 68, 0
11, 15720, Note_on_c, 2, 68, 54
11, 15760, Note_on_c, 2, 60, 0
11, 15760, Note_on_c, 2, 65, 53
11, 15760, Control_c, 2, 64, 127
11, 15800, Note_on_c, 2, 68, 0
11, 15800, Note_on_c, 2, 60, 57
11, 15840, Note_on_c, 2, 60, 0
11, 15840, Note_on_c, 2, 65, 0
11, 15840, Note_on_c, 2, 53, 0
11, 15840, Control_c, 2, 64, 0
11, 15840, Note_on_c, 2, 65, 55
11, 15840, Note_on_c, 2, 38, 48
11, 15880, Note_on_c, 2, 53, 48
11, 15920, Note_on_c, 2, 57, 48
11, 15960, Note_on_c, 2, 60, 67
11, 16000, Note_on_c, 2, 57, 0
11, 16000, Note_on_c, 2, 53, 0
11, 16000, Note_on_c, 2, 57, 45
11, 16040, Note_on_c, 2, 60, 0
11, 16040, Note_on_c, 2, 53, 50
11, 16080, Note_on_c, 2, 53, 0
11, 16080, Note_on_c, 2, 57, 0
11, 16080, Note_on_c, 2, 38, 0
11, 16080, Note_on_c, 2, 65, 0
11, 16080, Note_on_c, 2, 71, 55
11, 16080, Note_on_c, 2, 43, 48
11, 16120, Note_on_c, 2, 59, 48
11, 16160, Note_on_c, 2, 62, 48
11, 16200, Note_on_c, 2, 65, 67
11, 16240, Note_on_c, 2, 62, 0
11, 16240, Note_on_c, 2, 59, 0
11, 16240, Note_on_c, 2, 62, 45
11, 16280, Note_on_c, 2, 65, 0
11, 16280, Note_on_c, 2, 59, 50
11, 16320, Note_on_c, 2, 59, 0
11, 16320, Note_on_c, 2, 62, 0
11, 16320, Note_on_c, 2, 43, 0
11, 16320, Note_on_c, 2, 71, 0
11, 16320, Note_on_c, 2, 60, 61
11, 16320, Note_on_c, 2, 36, 57
11, 16360, Control_c, 2, 64, 127
11, 16360, Note_on_c, 2, 55, 48
11, 16400, Note_on_c, 2, 60, 0
11, 16400, Note_on_c, 2, 52, 50
11, 16440, Note_on_c, 2, 52, 0
11, 16440, Note_on_c, 2, 55, 0
11, 16440, Note_on_c, 2, 60, 54
11, 16480, Note_on_c, 2, 55, 48
11, 16520, Note_on_c, 2, 60, 0
11, 16520, Note_on_c, 2, 52, 48
11, 16542, Note_on_c, 2, 52, 0
11, 16542, Note_on_c, 2, 55, 0
11, 16542, Note_on_c, 2, 36, 0
11, 16560, Note_on_c, 2, 64, 69
11, 16560, Note_on_c, 2, 48, 58
11, 16600, Control_c, 2, 64, 0
11, 16600, Note_on_c, 2, 60, 45
11, 16640, Note_on_c, 2, 55, 45
11, 16680, Note_on_c, 2, 60, 0
11, 16680, Note_on_c, 2, 64, 0
11, 16680, Note_on_c, 2, 64, 54
11, 16720, Note_on_c, 2, 55, 0
11, 16720, Note_on_c, 2, 60, 53
11, 16720, Control_c, 2, 64, 127
11, 16760, Note_on_c, 2, 64, 0
11, 16760, Note_on_c, 2, 55, 57
11, 16800, Note_on_c, 2, 55, 0
11, 16800, Note_on_c, 2, 60, 0
11, 16800, Note_on_c, 2, 48, 0
11, 16800, Control_c, 2, 64, 0
11, 16800, Note_on_c, 2, 45, 53
11, 16840, Note_on_c, 2, 48, 53
11, 16880, Note_on_c, 2, 52, 53
11, 16920, Note_on_c, 2, 48, 0
11, 16920, Note_on_c, 2, 55, 53
11, 16923, Note_on_c, 2, 52, 0
11, 16923, Control_c, 2, 64, 127
11, 16960, Note_on_c, 2, 52, 52
11, 16984, Note_on_c, 2, 55, 0
11, 16984, Note_on_c, 2, 45, 0
11, 17000, Note_on_c, 2, 48, 53
11, 17040, Note_on_c, 2, 48, 0
11, 17040, Note_on_c, 2, 52, 0
11, 17040, Note_on_c, 2, 45, 53
11, 17040, Control_c, 2, 64, 0
11, 17080, Note_on_c, 2, 48, 53
11, 17120, Note_on_c, 2, 52, 53
11, 17162, Note_on_c, 2, 52, 0
11, 17162, Note_on_c, 2, 48, 0
11, 17162, Note_on_c, 2, 55, 53
11, 17200, Control_c, 2, 64, 127
11, 17200, Note_on_c, 2, 52, 49
11, 17240, Note_on_c, 2, 52, 0
11, 17240, Note_on_c, 2, 55, 0
11, 17240, Note_on_c, 2, 48, 53
11, 17280, Note_on_c, 2, 48, 0
11, 17280, Note_on_c, 2, 45, 0
11, 17280, Control_c, 2, 64, 0
11, 17280, Note_on_c, 2, 62, 61
11, 17280, Note_on_c, 2, 38, 57
11, 17320, Control_c, 2, 64, 127
11, 17320, Note_on_c, 2, 57, 48
11, 17360, Note_on_c, 2, 62, 0
11, 17360, Note_on_c, 2, 53, 50
11, 17400, Note_on_c, 2, 53, 0
11, 17400, Note_on_c, 2, 57, 0
11, 17400, Note_on_c, 2, 62, 54
11, 17440, Note_on_c, 2, 57, 48
11, 17480, Note_on_c, 2, 62, 0
11, 17480, Note_on_c, 2, 53, 48
11, 17502, Note_on_c, 2, 53, 0
11, 17502, Note_on_c, 2, 57, 0
11, 17502, Note_on_c, 2, 38, 0
11, 17520, Note_on_c, 2, 65, 69
11, 17520, Note_on_c, 2, 50, 58
11, 17560, Control_c, 2, 64, 0
11, 17560, Note_on_c, 2, 62, 45
11, 17600, Note_on_c, 2, 57, 45
11, 17640, Note_on_c, 2, 62, 0
11, 17640, Note_on_c, 2, 65, 0
11, 17640, Note_on_c, 2, 65, 54
11, 17680, Note_on_c, 2, 57, 0
11, 17680, Note_on_c, 2, 62, 53
11, 17680, Control_c, 2, 64, 127
11, 17720, Note_on_c, 2, 65, 0
11, 17720, Note_on_c, 2, 57, 57
11, 17760, Note_on_c, 2, 57, 0
11, 17760, Note_on_c, 2, 62, 0
11, 17760, Note_on_c, 2, 50, 0
11, 17760, Control_c, 2, 64, 0
11, 17760, Note_on_c, 2, 62, 61
11, 17760, Note_on_c, 2, 38, 57
11, 17800, Control_c, 2, 64, 127
11, 17800, Note_on_c, 2, 57, 48
11, 17840, Note_on_c, 2, 62, 0
11, 17840, Note_on_c, 2, 53, 50
11, 17880, Note_on_c, 2, 53, 0
11, 17880, Note_on_c, 2, 57, 0
11, 17880, Note_on_c, 2, 62, 54
11, 17920, Note_on_c, 2, 57, 48
11, 17960, Note_on_c, 2, 62, 0
11, 17960, Note_on_c, 2, 53, 48
11, 17982, Note_on_c, 2, 53, 0
11, 17982, Note_on_c, 2, 57, 0
11, 17982, Note_on_c, 2, 38, 0
11, 18000, Control_c, 2, 64, 0
11, 18000, Note_on_c, 2, 71, 55
11, 18000, Note_on_c, 2, 43, 48
11, 18040, Note_on_c, 2, 59, 48
11, 18080, Note_on_c, 2, 62, 48
11, 18120, Note_on_c, 2, 65, 67
11, 18160, Note_on_c, 2, 62, 0
11, 18160, Note_on_c, 2, 59, 0
11, 18160, Note_on_c, 2, 62, 45
11, 18200, Note_on_c, 2, 65, 0
11, 18200, Note_on_c, 2, 59, 50
11, 18240, Note_on_c, 2, 59, 0
11, 18240, Note_on_c, 2, 62, 0
11, 18240, Note_on_c, 2, 43, 0
11, 18240, Note_on_c, 2, 71, 0
11, 18240, Note_on_c, 2, 60, 61
11, 18240, Note_on_c, 2, 36, 57
11, 18280, Control_c, 2, 64, 127
11, 18280, Note_on_c, 2, 55, 48
11, 18320, Note_on_c, 2, 60, 0
11, 18320, Note_on_c, 2, 52, 50
11, 18360, Note_on_c, 2, 52, 0
11, 18360, Note_on_c, 2, 55, 0
11, 18360, Note_on_c, 2, 60, 54
11, 18400, Note_on_c, 2, 55, 48
11, 18440, Note_on_c, 2, 60, 0
11, 18440, Note_on_c, 2, 52, 48
11, 18462, Note_on_c, 2, 52, 0
11, 18462, Note_on_c, 2, 55, 0
11, 18462, Note_on_c, 2, 36, 0
11, 18480, Control_c, 2, 64, 0
11, 18480, Note_on_c, 2, 45, 53
11, 18520, Note_on_c, 2, 48, 53
11, 18560, Note_on_c, 2, 52, 53
11, 18600, Note_on_c, 2, 48, 0
11, 18600, Note_on_c, 2, 55, 53
11, 18603, Note_on_c, 2, 52, 0
11, 18603, Control_c, 2, 64, 127
11, 18640, Note_on_c, 2, 52, 52
11, 18664, Note_on_c, 2, 55, 0
11, 18664, Note_on_c, 2, 45, 0
11, 18680, Note_on_c, 2, 48, 53
11, 18720, Note_on_c, 2, 48, 0
11, 18720, Note_on_c, 2, 52, 0
11, 18720, Control_c, 2, 64, 0
11, 18720, Note_on_c, 2, 62, 61
11, 18720, Note_on_c, 2, 38, 57
11, 18760, Control_c, 2, 64, 127
11, 18760, Note_on_c, 2, 57, 48
11, 18800, Note_on_c, 2, 62, 0
11, 18800, Note_on_c, 2, 53, 50
11, 18840, Note_on_c, 2, 53, 0
11, 18840, Note_on_c, 2, 57, 0
11, 18840, Note_on_c, 2, 62, 54
11, 18880, Note_on_c, 2, 57, 48
11, 18920, Note_on_c, 2, 62, 0
11, 18920, Note_on_c, 2, 53, 48
11, 18942, Note_on_c, 2, 53, 0
11, 18942, Note_on_c, 2, 57, 0
11, 18942, Note_on_c, 2, 38, 0
11, 18960, Control_c, 2, 64, 0
11, 18960, Note_on_c, 2, 43, 53
11, 19000, Note_on_c, 2, 55, 53
11, 19040, Note_on_c, 2, 59, 53
11, 19040, Control_c, 2, 64, 127
11, 19080, Note_on_c, 2, 59, 0
11, 19080, Note_on_c, 2, 65, 53
11, 19120, Note_on_c, 2, 55, 0
11, 19120, Note_on_c, 2, 59, 53
11, 19160, Note_on_c, 2, 55, 53
11, 19191, Note_on_c, 2, 59, 0
11, 19191, Note_on_c, 2, 43, 0
11, 19191, Note_on_c, 2, 65, 0
11, 19200, Note_on_c, 2, 55, 0
11, 19200, Control_c, 2, 64, 0
11, 19200, Note_on_c, 2, 60, 61
11, 19200, Note_on_c, 2, 36, 57
11, 19240, Control_c, 2, 64, 127
11, 19240, Note_on_c, 2, 55, 48
11, 19280, Note_on_c, 2, 60, 0
11, 19280, Note_on_c, 2, 52, 50
11, 19320, Note_on_c, 2, 52, 0
11, 19320, Note_on_c, 2, 55, 0
11, 19320, Note_on_c, 2, 60, 54
11, 19360, Note_on_c, 2, 55, 48
11, 19400, Note_on_c, 2, 60, 0
11, 19400, Note_on_c, 2, 52, 48
11, 19422, Note_on_c, 2, 52, 0
11, 19422, Note_on_c, 2, 55, 0
11, 19422, Note_on_c, 2, 36, 0
11, 19440, Note_on_c, 2, 64, 69
11, 19440, Note_on_c, 2, 48, 58
11, 19480, Control_c, 2, 64, 0
11, 19480, Note_on_c, 2, 60, 45
11, 19520, Note_on_c, 2, 55, 45
11, 19560, Note_on_c, 2, 60, 0
11, 19560, Note_on_c, 2, 64, 0
11, 19560, Note_on_c, 2, 64, 54
11, 19600, Note_on_c, 2, 55, 0
11, 19600, Note_on_c, 2, 60, 53
11, 19600, Control_c, 2, 64, 127
11, 19640, Note_on_c, 2, 64, 0
11, 19640, Note_on_c, 2, 55, 57
11, 19680, Note_on_c, 2, 55, 0
11, 19680, Note_on_c, 2, 60, 0
11, 19680, Note_on_c, 2, 48, 0
11, 19680, Control_c, 2, 64, 0
11, 19680, Note_on_c, 2, 57, 61
11, 19680, Note_on_c, 2, 45, 57
11, 19720, Control_c, 2, 64, 127
11, 19720, Note_on_c, 2, 52, 48
11, 19760, Note_on_c, 2, 57, 0
11, 19760, Note_on_c, 2, 48, 50
11, 19800, Note_on_c, 2, 48, 0
11, 19800, Note_on_c, 2, 52, 0
11, 19800, Note_on_c, 2, 57, 54
11, 19840, Note_on_c, 2, 52, 48
11, 19880, Note_on_c, 2, 57, 0
11, 19880, Note_on_c, 2, 48, 48
11, 19902, Note_on_c, 2, 48, 0
11, 19902, Note_on_c, 2, 52, 0
11, 19902, Note_on_c, 2, 45, 0
11, 19920, Note_on_c, 2, 60, 69
11, 19920, Note_on_c, 2, 45, 58
11, 19960, Control_c, 2, 64, 0
11, 19960, Note_on_c, 2, 57, 45
11, 20000, Note_on_c, 2, 52, 45
11, 20040, Note_on_c, 2, 57, 0
11, 20040, Note_on_c, 2, 60, 0
11, 20040, Note_on_c, 2, 60, 54
11, 20080, Note_on_c, 2, 52, 0
11, 20080, Note_on_c, 2, 57, 53
11, 20080, Control_c, 2, 64, 127
11, 20120, Note_on_c, 2, 60, 0
11, 20120, Note_on_c, 2, 52, 57
11, 20160, Note_on_c, 2, 52, 0
11, 20160, Note_on_c, 2, 57, 0
11, 20160, Note_on_c, 2, 45, 0
11, 20160, Control_c, 2, 64, 0
11, 20160, Note_on_c, 2, 38, 53
11, 20200, Note_on_c, 2, 53, 53
11, 20240, Note_on_c, 2, 57, 53
11, 20280, Note_on_c, 2, 53, 0
11, 20280, Note_on_c, 2, 60, 53
11, 20283, Note_on_c, 2, 57, 0
11, 20283, Control_c, 2, 64, 127
11, 20320, Note_on_c, 2, 57, 52
11, 20344, Note_on_c, 2, 60, 0
11, 20344, Note_on_c, 2, 38, 0
11, 20360, Note_on_c, 2, 53, 53
11, 20400, Note_on_c, 2, 53, 0
11, 20400, Note_on_c, 2, 57, 0
11, 20400, Note_on_c, 2, 50, 53
11, 20400, Control_c, 2, 64, 0
11, 20440, Note_on_c, 2, 53, 53
11, 20480, Note_on_c, 2, 57, 53
11, 20522, Note_on_c, 2, 57, 0
11, 20522, Note_on_c, 2, 53, 0
11, 20522, Note_on_c, 2, 60, 53
11, 20560, Control_c, 2, 64, 127
11, 20560, Note_on_c, 2, 57, 49
11, 20600, Note_on_c, 2, 57, 0
11, 20600, Note_on_c, 2, 60, 0
11, 20600, Note_on_c, 2, 53, 53
11, 20640, Note_on_c, 2, 53, 0
11, 20640, Note_on_c, 2, 50, 0
11, 20640, Control_c, 2, 64, 0
11, 20640, Note_on_c, 2, 43, 53
11, 20680, Note_on_c, 2, 55, 53
11, 20720, Note_on_c, 2, 59, 53
11, 20720, Control_c, 2, 64, 127
11, 20760, Note_on_c, 2, 59, 0
11, 20760, Note_on_c, 2, 65, 53
11, 20800, Note_on_c, 2, 55, 0
11, 20800, Note_on_c, 2, 59, 53
11, 20840, Note_on_c, 2, 55, 53
11, 20871, Note_on_c, 2, 59, 0
11, 20871, Note_on_c, 2, 43, 0
11, 20871, Note_on_c, 2, 65, 0
11, 20880, Note_on_c, 2, 43, 53
11, 20887, Note_on_c, 2, 55, 0
11, 20887, Control_c, 2, 64, 0
11, 20920, Note_on_c, 2, 55, 53
11, 20960, Note_on_c, 2, 59, 53
11, 21004, Note_on_c, 2, 59, 0
11, 21004, Note_on_c, 2, 65, 53
11, 21040, Note_on_c, 2, 55, 0
11, 21040, Note_on_c, 2, 59, 53
11, 21080, Note_on_c, 2, 55, 53
11, 21120, Note_on_c, 2, 55, 0
11, 21120, Note_on_c, 2, 43, 0
11, 21120, Note_on_c, 2, 65, 0
11, 21120, Note_on_c, 2, 59, 0
11, 21120, Note_on_c, 2, 64, 55
11, 21120, Note_on_c, 2, 36, 48
11, 21160, Note_on_c, 2, 52, 48
11, 21200, Note_on_c, 2, 55, 48
11, 21240, Note_on_c, 2, 60, 67
11, 21280, Note_on_c, 2, 55, 0
11, 21280, Note_on_c, 2, 52, 0
11, 21280, Note_on_c, 2, 55, 45
11, 21320, Note_on_c, 2, 60, 0
11, 21320, Note_on_c, 2, 52, 50
11, 21360, Note_on_c, 2, 55, 0
11, 21360, Note_on_c, 2, 60, 68
11, 21400, Note_on_c, 2, 52, 0
11, 21400, Note_on_c, 2, 55, 51
11, 21440, Note_on_c, 2, 60, 0
11, 21440, Note_on_c, 2, 52, 57
11, 21480, Note_on_c, 2, 55, 0
11, 21480, Note_on_c, 2, 60, 63
11, 21520, Note_on_c, 2, 52, 0
11, 21520, Note_on_c, 2, 55, 39
11, 21560, Note_on_c, 2, 36, 0
11, 21560, Note_on_c, 2, 52, 54
11, 21600, Note_on_c, 2, 52, 0
11, 21600, Note_on_c, 2, 55, 0
11, 21600, Note_on_c, 2, 64, 0
11, 21600, Note_on_c, 2, 60, 0
11, 21600, Note_on_c, 2, 62, 55
11, 21600, Note_on_c, 2, 34, 48
11, 21640, Note_on_c, 2, 50, 48
11, 21680, Note_on_c, 2, 53, 48
11, 21720, Note_on_c, 2, 58, 67
11, 21760, Note_on_c, 2, 53, 0
11, 21760, Note_on_c, 2, 50, 0
11, 21760, Note_on_c, 2, 53, 45
11, 21800, Note_on_c, 2, 58, 0
11, 21800, Note_on_c, 2, 50, 50
11, 21840, Note_on_c, 2, 53, 0
11, 21840, Note_on_c, 2, 58, 68
11, 21880, Note_on_c, 2, 50, 0
11, 21880, Note_on_c, 2, 53, 51
11, 21920, Note_on_c, 2, 58, 0
11, 21920, Note_on_c, 2, 50, 57
11, 21960, Note_on_c, 2, 53, 0
11, 21960, Note_on_c, 2, 58, 63
11, 22000, Note_on_c, 2, 50, 0
11, 22000, Note_on_c, 2, 53, 39
11, 22040, Note_on_c, 2, 34, 0
11, 22040, Note_on_c, 2, 50, 54
11, 22080, Note_on_c, 2, 50, 0
11, 22080, Note_on_c, 2, 53, 0
11, 22080, Note_on_c, 2, 62, 0
11, 22080, Note_on_c, 2, 58, 0
11, 22080, Note_on_c, 2, 61, 55
11, 22080, Note_on_c, 2, 45, 48
11, 22120, Note_on_c, 2, 49, 48
11, 22160, Note_on_c, 2, 52, 48
11, 22200, Note_on_c, 2, 55, 67
11, 22240, Note_on_c, 2, 52, 0
11, 22240, Note_on_c, 2, 49, 0
11, 22240, Note_on_c, 2, 52, 45
11, 22280, Note_on_c, 2, 55, 0
11, 22280, Note_on_c, 2, 49, 50
11, 22320, Note_on_c, 2, 52, 0
11, 22320, Note_on_c, 2, 55, 68
11, 22360, Note_on_c, 2, 49, 0
11, 22360, Note_on_c, 2, 52, 51
11, 22400, Note_on_c, 2, 55, 0
11, 22400, Note_on_c, 2, 49, 57
11, 22440, Note_on_c, 2, 52, 0
11, 22440, Note_on_c, 2, 55, 63
11, 22480, Note_on_c, 2, 49, 0
11, 22480, Note_on_c, 2, 52, 39
11, 22520, Note_on_c, 2, 45, 0
11, 22520, Note_on_c, 2, 49, 54
11, 22560, Note_on_c, 2, 49, 0
11, 22560, Note_on_c, 2, 52, 0
11, 22560, Note_on_c, 2, 61, 0
11, 22560, Note_on_c, 2, 55, 0
11, 22560, Note_on_c, 2, 68, 55
11, 22560, Note_on_c, 2, 41, 48
11, 22600, Note_on_c, 2, 56, 48
11, 22640, Note_on_c, 2, 60, 48
11, 22680, Note_on_c, 2, 62, 67
11, 22720, Note_on_c, 2, 60, 0
11, 22720, Note_on_c, 2, 56, 0
11, 22720, Note_on_c, 2, 60, 45
11, 22760, Note_on_c, 2, 62, 0
11, 22760, Note_on_c, 2, 56, 50
11, 22800, Note_on_c, 2, 56, 0
11, 22800, Note_on_c, 2, 60, 0
11, 22800, Note_on_c, 2, 41, 0
11, 22800, Note_on_c, 2, 68, 0
11, 22800, Note_on_c, 2, 65, 55
11, 22800, Note_on_c, 2, 38, 48
11, 22840, Note_on_c, 2, 53, 48
11, 22880, Note_on_c, 2, 57, 48
11, 22920, Note_on_c, 2, 57, 0
11, 22920, Note_on_c, 2, 65, 0
11, 22920, Note_on_c, 2, 38, 0
11, 22920, Note_on_c, 2, 53, 0
11, 22920, Note_on_c, 2, 43, 53
11, 22960, Note_on_c, 2, 55, 53
11, 23000, Note_on_c, 2, 59, 53
11, 23000, Control_c, 2, 64, 127
11, 23040, Note_on_c, 2, 59, 0
11, 23040, Note_on_c, 2, 55, 0
11, 23040, Note_on_c, 2, 43, 0
11, 23040, Control_c, 2, 64, 0
11, 23040, Note_on_c, 2, 60, 61
11, 23040, Note_on_c, 2, 36, 57
11, 23080, Control_c, 2, 64, 127
11, 23080, Note_on_c, 2, 55, 48
11, 23120, Note_on_c, 2, 60, 0
11, 23120, Note_on_c, 2, 52, 50
11, 23160, Note_on_c, 2, 52, 0
11, 23160, Note_on_c, 2, 55, 0
11, 23160, Note_on_c, 2, 60, 54
11, 23200, Note_on_c, 2, 55, 48
11, 23240, Note_on_c, 2, 60, 0
11, 23240, Note_on_c, 2, 52, 48
11, 23262, Note_on_c, 2, 52, 0
11, 23262, Note_on_c, 2, 55, 0
11, 23262, Note_on_c, 2, 36, 0
11, 23280, Note_on_c, 2, 64, 69
11, 23280, Note_on_c, 2, 48, 58
11, 23320, Control_c, 2, 64, 0
11, 23320, Note_on_c, 2, 60, 45
11, 23360, Note_on_c, 2, 55, 45
11, 23400, Note_on_c, 2, 60, 0
11, 23400, Note_on_c, 2, 64, 0
11, 23400, Note_on_c, 2, 64, 54
11, 23440, Note_on_c, 2, 55, 0
11, 23440, Note_on_c, 2, 60, 53
11, 23440, Control_c, 2, 64, 127
11, 23480, Note_on_c, 2, 64, 0
11, 23480, Note_on_c, 2, 55, 57
11, 23520, Note_on_c, 2, 55, 0
11, 23520, Note_on_c, 2, 60, 0
11, 23520, Note_on_c, 2, 48, 0
11, 23520, Control_c, 2, 64, 0
11, 23520, Note_on_c, 2, 60, 55
11, 23520, Note_on_c, 2, 45, 48
11, 23560, Note_on_c, 2, 48, 48
11, 23600, Note_on_c, 2, 52, 48
11, 23640, Note_on_c, 2, 55, 67
11, 23680, Note_on_c, 2, 52, 0
11, 23680, Note_on_c, 2, 48, 0
11, 23680, Note_on_c, 2, 52, 45
11, 23720, Note_on_c, 2, 55, 0
11, 23720, Note_on_c, 2, 48, 50
11, 23760, Note_on_c, 2, 52, 0
11, 23760, Note_on_c, 2, 55, 68
11, 23800, Note_on_c, 2, 48, 0
11, 23800, Note_on_c, 2, 52, 51
11, 23840, Note_on_c, 2, 55, 0
11, 23840, Note_on_c, 2, 48, 57
11, 23880, Note_on_c, 2, 52, 0
11, 23880, Note_on_c, 2, 55, 63
11, 23920, Note_on_c, 2, 48, 0
11, 23920, Note_on_c, 2, 52, 39
11, 23960, Note_on_c, 2, 45, 0
11, 23960, Note_on_c, 2, 48, 54
11, 24000, Note_on_c, 2, 48, 0
11, 24000, Note_on_c, 2, 52, 0
11, 24000, Note_on_c, 2, 60, 0
11, 24000, Note_on_c, 2, 55, 0
11, 24000, Note_on_c, 2, 38, 53
11, 24040, Note_on_c, 2, 53, 53
11, 24080, Note_on_c, 2, 57, 53
11, 24120, Note_on_c, 2, 53, 0
11, 24120, Note_on_c, 2, 60, 53
11, 24123, Note_on_c, 2, 57, 0
11, 24123, Control_c, 2, 64, 127
11, 24160, Note_on_c, 2, 57, 52
11, 24184, Note_on_c, 2, 60, 0
11, 24184, Note_on_c, 2, 38, 0
11, 24200, Note_on_c, 2, 53, 53
11, 24240, Note_on_c, 2, 53, 0
11, 24240, Note_on_c, 2, 57, 0
11, 24240, Note_on_c, 2, 50, 53
11, 24240, Control_c, 2, 64, 0
11, 24280, Note_on_c, 2, 53, 53
11, 24320, Note_on_c, 2, 57, 53
11, 24362, Note_on_c, 2, 57, 0
11, 24362, Note_on_c, 2, 53, 0
11, 24362, Note_on_c, 2, 60, 53
11, 24400, Control_c, 2, 64, 127
11, 24400, Note_on_c, 2, 57, 49
11, 24440, Note_on_c, 2, 57, 0
11, 24440, Note_on_c, 2, 60, 0
11, 24440, Note_on_c, 2, 53, 53
11, 24480, Note_on_c, 2, 53, 0
11, 24480, Note_on_c, 2, 50, 0
11, 24480, Control_c, 2, 64, 0
11, 24480, Note_on_c, 2, 67, 61
11, 24480, Note_on_c, 2, 43, 57
11, 24520, Control_c, 2, 64, 127
11, 24520, Note_on_c, 2, 62, 48
11, 24560, Note_on_c, 2, 67, 0
11, 24560, Note_on_c, 2, 59, 50
11, 24600, Note_on_c, 2, 59, 0
11, 24600, Note_on_c, 2, 62, 0
11, 24600, Note_on_c, 2, 67, 54
11, 24640, Note_on_c, 2, 62, 48
11, 24680, Note_on_c, 2, 67, 0
11, 24680, Note_on_c, 2, 59, 48
11, 24702, Note_on_c, 2, 59, 0
11, 24702, Note_on_c, 2, 62, 0
11, 24702, Note_on_c, 2, 43, 0
11, 24720, Note_on_c, 2, 71, 69
11, 24720, Note_on_c, 2, 43, 58
11, 24760, Control_c, 2, 64, 0
11, 24760, Note_on_c, 2, 67, 45
11, 24800, Note_on_c, 2, 62, 45
11, 24840, Note_on_c, 2, 67, 0
11, 24840, Note_on_c, 2, 71, 0
11, 24840, Note_on_c, 2, 71, 54
11, 24880, Note_on_c, 2, 62, 0
11, 24880, Note_on_c, 2, 67, 53
11, 24880, Control_c, 2, 64, 127
11, 24920, Note_on_c, 2, 71, 0
11, 24920, Note_on_c, 2, 62, 57
11, 24960, Note_on_c, 2, 62, 0
11, 24960, Note_on_c, 2, 67, 0
11, 24960, Note_on_c, 2, 43, 0
11, 24960, Control_c, 2, 64, 0
11, 24960, Note_on_c, 2, 36, 53
11, 25000, Note_on_c, 2, 52, 53
11, 25040, Note_on_c, 2, 55, 53
11, 25080, Note_on_c, 2, 52, 0
11, 25080, Note_on_c, 2, 60, 53
11, 25083, Note_on_c, 2, 55, 0
11, 25083, Control_c, 2, 64, 127
11, 25120, Note_on_c, 2, 55, 52
11, 25144, Note_on_c, 2, 60, 0
11, 25144, Note_on_c, 2, 36, 0
11, 25160, Note_on_c, 2, 52, 53
11, 25200, Note_on_c, 2, 52, 0
11, 25200, Note_on_c, 2, 55, 0
11, 25200, Note_on_c, 2, 48, 53
11, 25200, Control_c, 2, 64, 0
11, 25240, Note_on_c, 2, 52, 53
11, 25280, Note_on_c, 2, 55, 53
11, 25322, Note_on_c, 2, 55, 0
11, 25322, Note_on_c, 2, 52, 0
11, 25322, Note_on_c, 2, 60, 53
11, 25360, Control_c, 2, 64, 127
11, 25360, Note_on_c, 2, 55, 49
11, 25400, Note_on_c, 2, 55, 0
11, 25400, Note_on_c, 2, 60, 0
11, 25400, Note_on_c, 2, 52, 53
11, 25440, Note_on_c, 2, 52, 0
11, 25440, Note_on_c, 2, 48, 0
11, 25440, Control_c, 2, 64, 0
11, 25440, Note_on_c, 2, 58, 61
11, 25440, Note_on_c, 2, 34, 57
11, 25480, Control_c, 2, 64, 127
11, 25480, Note_on_c, 2, 53, 48
11, 25520, Note_on_c, 2, 58, 0
11, 25520, Note_on_c, 2, 50, 50
11, 25560, Note_on_c, 2, 50, 0
11, 25560, Note_on_c, 2, 53, 0
11, 25560, Note_on_c, 2, 58, 54
11, 25600, Note_on_c, 2, 53, 48
11, 25640, Note_on_c, 2, 58, 0
11, 25640, Note_on_c, 2, 50, 48
11, 25662, Note_on_c, 2, 50, 0
11, 25662, Note_on_c, 2, 53, 0
11, 25662, Note_on_c, 2, 34, 0
11, 25680, Note_on_c, 2, 62, 69
11, 25680, Note_on_c, 2, 46, 58
11, 25720, Control_c, 2, 64, 0
11, 25720, Note_on_c, 2, 58, 45
11, 25760, Note_on_c, 2, 53, 45
11, 25800, Note_on_c, 2, 58, 0
11, 25800, Note_on_c, 2, 62, 0
11, 25800, Note_on_c, 2, 62, 54
11, 25840, Note_on_c, 2, 53, 0
11, 25840, Note_on_c, 2, 58, 53
11, 25840, Control_c, 2, 64, 127
11, 25880, Note_on_c, 2, 62, 0
11, 25880, Note_on_c, 2, 53, 57
11, 25920, Note_on_c, 2, 53, 0
11, 25920, Note_on_c, 2, 58, 0
11, 25920, Note_on_c, 2, 46, 0
11, 25920, Control_c, 2, 64, 0
11, 25920, Note_on_c, 2, 61, 55
11, 25920, Note_on_c, 2, 45, 48
11, 25960, Note_on_c, 2, 49, 48
11, 26000, Note_on_c, 2, 52, 48
11, 26040, Note_on_c, 2, 55, 67
11, 26080, Note_on_c, 2, 52, 0
11, 26080, Note_on_c, 2, 49, 0
11, 26080, Note_on_c, 2, 52, 45
11, 26120, Note_on_c, 2, 55, 0
11, 26120, Note_on_c, 2, 49, 50
11, 26160, Note_on_c, 2, 52, 0
11, 26160, Note_on_c, 2, 55, 68
11, 26200, Note_on_c, 2, 49, 0
11, 26200, Note_on_c, 2, 52, 51
11, 26240, Note_on_c, 2, 55, 0
11, 26240, Note_on_c, 2, 49, 57
11, 26280, Note_on_c, 2, 52, 0
11, 26280, Note_on_c, 2, 55, 63
11, 26320, Note_on_c, 2, 49, 0
11, 26320, Note_on_c, 2, 52, 39
11, 26360, Note_on_c, 2, 45, 0
11, 26360, Note_on_c, 2, 49, 54
11, 26400, Note_on_c, 2, 49, 0
11, 26400, Note_on_c, 2, 52, 0
11, 26400, Note_on_c, 2, 61, 0
11, 26400, Note_on_c, 2, 55, 0
11, 26400, Note_on_c, 2, 57, 61
11, 26400, Note_on_c, 2, 45, 57
11, 26440, Control_c, 2, 64, 127
11, 26440, Note_on_c, 2, 52, 48
11, 26480, Note_on_c, 2, 57, 0
11, 26480, Note_on_c, 2, 49, 50
11, 26520, Note_on_c, 2, 49, 0
11, 26520, Note_on_c, 2, 52, 0
11, 26520, Note_on_c, 2, 57, 54
11, 26560, Note_on_c, 2, 52, 48
11, 26600, Note_on_c, 2, 57, 0
11, 26600, Note_on_c, 2, 49, 48
11, 26622, Note_on_c, 2, 49, 0
11, 26622, Note_on_c, 2, 52, 0
11, 26622, Note_on_c, 2, 45, 0
11, 26640, Control_c, 2, 64, 0
11, 26640, Note_on_c, 2, 57, 61
11, 26640, Note_on_c, 2, 45, 57
11, 26680, Control_c, 2, 64, 127
11, 26680, Note_on_c, 2, 51, 48
11, 26720, Note_on_c, 2, 57, 0
11, 26720, Note_on_c, 2, 49, 50
11, 26760, Note_on_c, 2, 49, 0
11, 26760, Note_on_c, 2, 51, 0
11, 26760, Note_on_c, 2, 57, 54
11, 26800, Note_on_c, 2, 51, 48
11, 26840, Note_on_c, 2, 57, 0
11, 26840, Note_on_c, 2, 49, 48
11, 26862, Note_on_c, 2, 49, 0
11, 26862, Note_on_c, 2, 51, 0
11, 26862, Note_on_c, 2, 45, 0
11, 26880, Control_c, 2, 64, 0
11, 26880, Note_on_c, 2, 62, 61
11, 26880, Note_on_c, 2, 38, 57
11, 26920, Control_c, 2, 64, 127
11, 26920, Note_on_c, 2, 57, 48
11, 26960, Note_on_c, 2, 62, 0
11, 26960, Note_on_c, 2, 53, 50
11, 27000, Note_on_c, 2, 53, 0
11, 27000, Note_on_c, 2, 57, 0
11, 27000, Note_on_c, 2, 62, 54
11, 27040, Note_on_c, 2, 57, 48
11, 27080, Note_on_c, 2, 62, 0
11, 27080, Note_on_c, 2, 53, 48
11, 27102, Note_on_c, 2, 53, 0
11, 27102, Note_on_c, 2, 57, 0
11, 27102, Note_on_c, 2, 38, 0
11, 27120, Note_on_c, 2, 65, 69
11, 27120, Note_on_c, 2, 50, 58
11, 27160, Control_c, 2, 64, 0
11, 27160, Note_on_c, 2, 62, 45
11, 27200, Note_on_c, 2, 57, 45
11, 27240, Note_on_c, 2, 62, 0
11, 27240, Note_on_c, 2, 65, 0
11, 27240, Note_on_c, 2, 65, 54
11, 27280, Note_on_c, 2, 57, 0
11, 27280, Note_on_c, 2, 62, 53
11, 27280, Control_c, 2, 64, 127
11, 27320, Note_on_c, 2, 65, 0
11, 27320, Note_on_c, 2, 57, 57
11, 27360, Note_on_c, 2, 57, 0
11, 27360, Note_on_c, 2, 62, 0
11, 27360, Note_on_c, 2, 50, 0
11, 27360, Control_c, 2, 64, 0
11, 27360, Note_on_c, 2, 40, 53
11, 27400, Note_on_c, 2, 52, 53
11, 27440, Note_on_c, 2, 56, 53
11, 27440, Control_c, 2, 64, 127
11, 27480, Note_on_c, 2, 56, 0
11, 27480, Note_on_c, 2, 62, 53
11, 27520, Note_on_c, 2, 52, 0
11, 27520, Note_on_c, 2, 56, 53
11, 27560, Note_on_c, 2, 52, 53
11, 27591, Note_on_c, 2, 56, 0
11, 27591, Note_on_c, 2, 40, 0
11, 27591, Note_on_c, 2, 62, 0
11, 27600, Note_on_c, 2, 40, 53
11, 27607, Note_on_c, 2, 52, 0
11, 27607, Control_c, 2, 64, 0
11, 27640, Note_on_c, 2, 52, 53
11, 27680, Note_on_c, 2, 56, 53
11, 27724, Note_on_c, 2, 56, 0
11, 27724, Note_on_c, 2, 62, 53
11, 27760, Note_on_c, 2, 52, 0
11, 27760, Note_on_c, 2, 56, 53
11, 27800, Note_on_c, 2, 52, 53
11, 27840, Note_on_c, 2, 52, 0
11, 27840, Note_on_c, 2, 40, 0
11, 27840, Note_on_c, 2, 62, 0
11, 27840, Note_on_c, 2, 56, 0
11, 27840, Note_on_c, 2, 57, 61
11, 27840, Note_on_c, 2, 45, 57
11, 27880, Control_c, 2, 64, 127
11, 27880, Note_on_c, 2, 52, 48
11, 27920, Note_on_c, 2, 57, 0
11, 27920, Note_on_c, 2, 48, 50
11, 27960, Note_on_c, 2, 48, 0
11, 27960, Note_on_c, 2, 52, 0
11, 27960, Note_on_c, 2, 57, 54
11, 28000, Note_on_c, 2, 52, 48
11, 28040, Note_on_c, 2, 57, 0
11, 28040, Note_on_c, 2, 48, 48
11, 28062, Note_on_c, 2, 48, 0
11, 28062, Note_on_c, 2, 52, 0
11, 28062, Note_on_c, 2, 45, 0
11, 28080, Control_c, 2, 64, 0
11, 28080, Note_on_c, 2, 60, 55
11, 28080, Note_on_c, 2, 45, 48
11, 28120, Note_on_c, 2, 48, 48
11, 28160, Note_on_c, 2, 52, 48
11, 28200, Note_on_c, 2, 55, 67
11, 28240, Note_on_c, 2, 52, 0
11, 28240, Note_on_c, 2, 48, 0
11, 28240, Note_on_c, 2, 52, 45
11, 28280, Note_on_c, 2, 55, 0
11, 28280, Note_on_c, 2, 48, 50
11, 28320, Note_on_c, 2, 48, 0
11, 28320, Note_on_c, 2, 52, 0
11, 28320, Note_on_c, 2, 45, 0
11, 28320, Note_on_c, 2, 60, 0
11, 28320, Note_on_c, 2, 41, 53
11, 28360, Note_on_c, 2, 53, 53
11, 28400, Note_on_c, 2, 56, 53
11, 28400, Control_c, 2, 64, 127
11, 28440, Note_on_c, 2, 56, 0
11, 28440, Note_on_c, 2, 62, 53
11, 28480, Note_on_c, 2, 53, 0
11, 28480, Note_on_c, 2, 56, 53
11, 28520, Note_on_c, 2, 53, 53
11, 28551, Note_on_c, 2, 56, 0
11, 28551, Note_on_c, 2, 41, 0
11, 28551, Note_on_c, 2, 62, 0
11, 28560, Note_on_c, 2, 41, 53
11, 28567, Note_on_c, 2, 53, 0
11, 28567, Control_c, 2, 64, 0
11, 28600, Note_on_c, 2, 53, 53
11, 28640, Note_on_c, 2, 56, 53
11, 28684, Note_on_c, 2, 56, 0
11, 28684, Note_on_c, 2, 62, 53
11, 28720, Note_on_c, 2, 53, 0
11, 28720, Note_on_c, 2, 56, 53
11, 28760, Note_on_c, 2, 53, 53
11, 28800, Note_on_c, 2, 53, 0
11, 28800, Note_on_c, 2, 41, 0
11, 28800, Note_on_c, 2, 62, 0
11, 28800, Note_on_c, 2, 56, 0
11, 28800, Note_on_c, 2, 36, 53
11, 28840, Note_on_c, 2, 52, 53
11, 28880, Note_on_c, 2, 55, 53
11, 28920, Note_on_c, 2, 52, 0
11, 28920, Note_on_c, 2, 60, 53
11, 28923, Note_on_c, 2, 55, 0
11, 28923, Control_c, 2, 64, 127
11, 28960, Note_on_c, 2, 55, 52
11, 28984, Note_on_c, 2, 60, 0
11, 28984, Note_on_c, 2, 36, 0
11, 29000, Note_on_c, 2, 52, 53
11, 29040, Note_on_c, 2, 52, 0
11, 29040, Note_on_c, 2, 55, 0
11, 29040, Note_on_c, 2, 48, 53
11, 29040, Control_c, 2, 64, 0
11, 29080, Note_on_c, 2, 52, 53
11, 29120, Note_on_c, 2, 55, 53
11, 29162, Note_on_c, 2, 55, 0
11, 29162, Note_on_c, 2, 52, 0
11, 29162, Note_on_c, 2, 60, 53
11, 29200, Control_c, 2, 64, 127
11, 29200, Note_on_c, 2, 55, 49
11, 29240, Note_on_c, 2, 55, 0
11, 29240, Note_on_c, 2, 60, 0
11, 29240, Note_on_c, 2, 52, 53
11, 29280, Note_on_c, 2, 52, 0
11, 29280, Note_on_c, 2, 48, 0
11, 29280, Control_c, 2, 64, 0
11, 29280, Note_on_c, 2, 60, 61
11, 29280, Note_on_c, 2, 36, 57
11, 29320, Control_c, 2, 64, 127
11, 29320, Note_on_c, 2, 56, 48
11, 29360, Note_on_c, 2, 60, 0
11, 29360, Note_on_c, 2, 52, 50
11, 29400, Note_on_c, 2, 52, 0
11, 29400, Note_on_c, 2, 56, 0
11, 29400, Note_on_c, 2, 60, 54
11, 29440, Note_on_c, 2, 56, 48
11, 29480, Note_on_c, 2, 60, 0
11, 29480, Note_on_c, 2, 52, 48
11, 29502, Note_on_c, 2, 52, 0
11, 29502, Note_on_c, 2, 56, 0
11, 29502, Note_on_c, 2, 36, 0
11, 29520, Note_on_c, 2, 64, 69
11, 29520, Note_on_c, 2, 48, 58
11, 29560, Control_c, 2, 64, 0
11, 29560, Note_on_c, 2, 60, 45
11, 29600, Note_on_c, 2, 56, 45
11, 29640, Note_on_c, 2, 60, 0
11, 29640, Note_on_c, 2, 64, 0
11, 29640, Note_on_c, 2, 64, 54
11, 29680, Note_on_c, 2, 56, 0
11, 29680, Note_on_c, 2, 60, 53
11, 29680, Control_c, 2, 64, 127
11, 29720, Note_on_c, 2, 64, 0
11, 29720, Note_on_c, 2, 56, 57
11, 29760, Note_on_c, 2, 56, 0
11, 29760, Note_on_c, 2, 60, 0
11, 29760, Note_on_c, 2, 48, 0
11, 29760, Control_c, 2, 64, 0
11, 29760, Note_on_c, 2, 45, 53
11, 29800, Note_on_c, 2, 48, 53
11, 29840, Note_on_c, 2, 52, 53
11, 29880, Note_on_c, 2, 48, 0
11, 29880, Note_on_c, 2, 57, 53
11, 29883, Note_on_c, 2, 52, 0
11, 29883, Control_c, 2, 64, 127
11, 29920, Note_on_c, 2, 52, 52
11, 29944, Note_on_c, 2, 57, 0
11, 29944, Note_on_c, 2, 45, 0
11, 29960, Note_on_c, 2, 48, 53
11, 30000, Note_on_c, 2, 48, 0
11, 30000, Note_on_c, 2, 52, 0
11, 30000, Note_on_c, 2, 45, 53
11, 30000, Control_c, 2, 64, 0
11, 30040, Note_on_c, 2, 48, 53
11, 30080, Note_on_c, 2, 52, 53
11, 30122, Note_on_c, 2, 52, 0
11, 30122, Note_on_c, 2, 48, 0
11, 30122, Note_on_c, 2, 57, 53
11, 30160, Control_c, 2, 64, 127
11, 30160, Note_on_c, 2, 52, 49
11, 30200, Note_on_c, 2, 52, 0
11, 30200, Note_on_c, 2, 57, 0
11, 30200, Note_on_c, 2, 48, 53
11, 30240, Note_on_c, 2, 48, 0
11, 30240, Note_on_c, 2, 45, 0
11, 30240, Control_c, 2, 64, 0
11, 30240, Note_on_c, 2, 62, 61
11, 30240, Note_on_c, 2, 38, 57
11, 30280, Control_c, 2, 64, 127
11, 30280, Note_on_c, 2, 57, 48
11, 30320, Note_on_c, 2, 62, 0
11, 30320, Note_on_c, 2, 53, 50
11, 30360, Note_on_c, 2, 53, 0
11, 30360, Note_on_c, 2, 57, 0
11, 30360, Note_on_c, 2, 62, 54
11, 30400, Note_on_c, 2, 57, 48
11, 30440, Note_on_c, 2, 62, 0
11, 30440, Note_on_c, 2, 53, 48
11, 30462, Note_on_c, 2, 53, 0
11, 30462, Note_on_c, 2, 57, 0
11, 30462, Note_on_c, 2, 38, 0
11, 30480, Control_c, 2, 64, 0
11, 30480, Note_on_c, 2, 71, 55
11, 30480, Note_on_c, 2, 43, 48
11, 30520, Note_on_c, 2, 59, 48
11, 30560, Note_on_c, 2, 62, 48
11, 30600, Note_on_c, 2, 65, 67
11, 30640, Note_on_c, 2, 62, 0
11, 30640, Note_on_c, 2, 59, 0
11, 30640, Note_on_c, 2, 62, 45
11, 30680, Note_on_c, 2, 65, 0
11, 30680, Note_on_c, 2, 59, 50
11, 30720, Note_on_c, 2, 59, 0
11, 30720, Note_on_c, 2, 62, 0
11, 30720, Note_on_c, 2, 43, 0
11, 30720, Note_on_c, 2, 71, 0
11, 30720, Note_on_c, 2, 60, 61
11, 30720, Note_on_c, 2, 36, 57
11, 30760, Control_c, 2, 64, 127
11, 30760, Note_on_c, 2, 55, 48
11, 30800, Note_on_c, 2, 60, 0
11, 30800, Note_on_c, 2, 52, 50
11, 30840, Note_on_c, 2, 52, 0
11, 30840, Note_on_c, 2, 55, 0
11, 30840, Note_on_c, 2, 60, 54
11, 30880, Note_on_c, 2, 55, 48
11, 30920, Note_on_c, 2, 60, 0
11, 30920, Note_on_c, 2, 52, 48
11, 30942, Note_on_c, 2, 52, 0
11, 30942, Note_on_c, 2, 55, 0
11, 30942, Note_on_c, 2, 36, 0
11, 30960, Note_on_c, 2, 64, 69
11, 30960, Note_on_c, 2, 48, 58
11, 31000, Control_c, 2, 64, 0
11, 31000, Note_on_c, 2, 60, 45
11, 31040, Note_on_c, 2, 55, 45
11, 31080, Note_on_c, 2, 60, 0
11, 31080, Note_on_c, 2, 64, 0
11, 31080, Note_on_c, 2, 64, 54
11, 31120, Note_on_c, 2, 55, 0
11, 31120, Note_on_c, 2, 60, 53
11, 31120, Control_c, 2, 64, 127
11, 31160, Note_on_c, 2, 64, 0
11, 31160, Note_on_c, 2, 55, 57
11, 31200, Note_on_c, 2, 55, 0
11, 31200, Note_on_c, 2, 60, 0
11, 31200, Note_on_c, 2, 48, 0
11, 31200, Control_c, 2, 64, 0
11, 31200, Note_on_c, 2, 57, 61
11, 31200, Note_on_c, 2, 45, 57
11, 31240, Control_c, 2, 64, 127
11, 31240, Note_on_c, 2, 52, 48
11, 31280, Note_on_c, 2, 57, 0
11, 31280, Note_on_c, 2, 48, 50
11, 31320, Note_on_c, 2, 48, 0
11, 31320, Note_on_c, 2, 52, 0
11, 31320, Note_on_c, 2, 57, 54
11, 31360, Note_on_c, 2, 52, 48
11, 31400, Note_on_c, 2, 57, 0
11, 31400, Note_on_c, 2, 48, 48
11, 31422, Note_on_c, 2, 48, 0
11, 31422, Note_on_c, 2, 52, 0
11, 31422, Note_on_c, 2, 45, 0
11, 31440, Note_on_c, 2, 60, 69
11, 31440, Note_on_c, 2, 45, 58
11, 31480, Control_c, 2, 64, 0
11, 31480, Note_on_c, 2, 57, 45
11, 31520, Note_on_c, 2, 52, 45
11, 31560, Note_on_c, 2, 57, 0
11, 31560, Note_on_c, 2, 60, 0
11, 31560, Note_on_c, 2, 60, 54
11, 31600, Note_on_c, 2, 52, 0
11, 31600, Note_on_c, 2, 57, 53
11, 31600, Control_c, 2, 64, 127
11, 31640, Note_on_c, 2, 60, 0
11, 31640, Note_on_c, 2, 52, 57
11, 31680, Note_on_c, 2, 52, 0
11, 31680, Note_on_c, 2, 57, 0
11, 31680, Note_on_c, 2, 45, 0
11, 31680, Control_c, 2, 64, 0
11, 31680, Note_on_c, 2, 65, 61
11, 31680, Note_on_c, 2, 41, 57
11, 31720, Control_c, 2, 64, 127
11, 31720, Note_on_c, 2, 60, 48
11, 31760, Note_on_c, 2, 65, 0
11, 31760, Note_on_c, 2, 56, 50
11, 31800, Note_on_c, 2, 56, 0
11, 31800, Note_on_c, 2, 60, 0
11, 31800, Note_on_c, 2, 65, 54
11, 31840, Note_on_c, 2, 60, 48
11, 31880, Note_on_c, 2, 65, 0
11, 31880, Note_on_c, 2, 56, 48
11, 31902, Note_on_c, 2, 56, 0
11, 31902, Note_on_c, 2, 60, 0
11, 31902, Note_on_c, 2, 41, 0
11, 31920, Note_on_c, 2, 68, 69
11, 31920, Note_on_c, 2, 53, 58
11, 31960, Control_c, 2, 64, 0
11, 31960, Note_on_c, 2, 65, 45
11, 32000, Note_on_c, 2, 60, 45
11, 32040, Note_on_c, 2, 65, 0
11, 32040, Note_on_c, 2, 68, 0
11, 32040, Note_on_c, 2, 68, 54
11, 32080, Note_on_c, 2, 60, 0
11, 32080, Note_on_c, 2, 65, 53
11, 32080, Control_c, 2, 64, 127
11, 32120, Note_on_c, 2, 68, 0
11, 32120, Note_on_c, 2, 60, 57
11, 32160, Note_on_c, 2, 60, 0
11, 32160, Note_on_c, 2, 65, 0
11, 32160, Note_on_c, 2, 53, 0
11, 32160, Control_c, 2, 64, 0
11, 32160, Note_on_c, 2, 65, 55
11, 32160, Note_on_c, 2, 38, 48
11, 32200, Note_on_c, 2, 53, 48
11, 32240, Note_on_c, 2, 57, 48
11, 32280, Note_on_c, 2, 60, 67
11, 32320, Note_on_c, 2, 57, 0
11, 32320, Note_on_c, 2, 53, 0
11, 32320, Note_on_c, 2, 57, 45
11, 32360, Note_on_c, 2, 60, 0
11, 32360, Note_on_c, 2, 53, 50
11, 32400, Note_on_c, 2, 53, 0
11, 32400, Note_on_c, 2, 57, 0
11, 32400, Note_on_c, 2, 38, 0
11, 32400, Note_on_c, 2, 65, 0
11, 32400, Note_on_c, 2, 43, 53
11, 32440, Note_on_c, 2, 55, 53
11, 32480, Note_on_c, 2, 59, 53
11, 32480, Control_c, 2, 64, 127
11, 32520, Note_on_c, 2, 59, 0
11, 32520, Note_on_c, 2, 65, 53
11, 32560, Note_on_c, 2, 55, 0
11, 32560, Note_on_c, 2, 59, 53
11, 32600, Note_on_c, 2, 55, 53
11, 32631, Note_on_c, 2, 59, 0
11, 32631, Note_on_c, 2, 43, 0
11, 32631, Note_on_c, 2, 65, 0
11, 32640, Note_on_c, 2, 55, 0
11, 32640, Control_c, 2, 64, 0
11, 32640, Note_on_c, 2, 36, 53
11, 32680, Note_on_c, 2, 52, 53
11, 32720, Note_on_c, 2, 55, 53
11, 32760, Note_on_c, 2, 52, 0
11, 32760, Note_on_c, 2, 59, 53
11, 32763, Note_on_c, 2, 55, 0
11, 32763, Control_c, 2, 64, 127
11, 32800, Note_on_c, 2, 55, 52
11, 32824, Note_on_c, 2, 59, 0
11, 32824, Note_on_c, 2, 36, 0
11, 32840, Note_on_c, 2, 52, 53
11, 32880, Note_on_c, 2, 52, 0
11, 32880, Note_on_c, 2, 55, 0
11, 32880, Note_on_c, 2, 48, 53
11, 32880, Control_c, 2, 64, 0
11, 32920, Note_on_c, 2, 52, 53
11, 32960, Note_on_c, 2, 55, 53
11, 33002, Note_on_c, 2, 55, 0
11, 33002, Note_on_c, 2, 52, 0
11, 33002, Note_on_c, 2, 59, 53
11, 33040, Control_c, 2, 64, 127
11, 33040, Note_on_c, 2, 55, 49
11, 33080, Note_on_c, 2, 55, 0
11, 33080, Note_on_c, 2, 59, 0
11, 33080, Note_on_c, 2, 52, 53
11, 33120, Note_on_c, 2, 52, 0
11, 33120, Note_on_c, 2, 48, 0
11, 33120, Control_c, 2, 64, 0
11, 33120, Note_on_c, 2, 60, 55
11, 33120, Note_on_c, 2, 45, 48
11, 33160, Note_on_c, 2, 48, 48
11, 33200, Note_on_c, 2, 52, 48
11, 33240, Note_on_c, 2, 55, 67
11, 33280, Note_on_c, 2, 52, 0
11, 33280, Note_on_c, 2, 48, 0
11, 33280, Note_on_c, 2, 52, 45
11, 33320, Note_on_c, 2, 55, 0
11, 33320, Note_on_c, 2, 48, 50
11, 33360, Note_on_c, 2, 52, 0
11, 33360, Note_on_c, 2, 55, 68
11, 33400, Note_on_c, 2, 48, 0
11, 33400, Note_on_c, 2, 52, 51
11, 33440, Note_on_c, 2, 55, 0
11, 33440, Note_on_c, 2, 48, 57
11, 33480, Note_on_c, 2, 52, 0
11, 33480, Note_on_c, 2, 55, 63
11, 33520, Note_on_c, 2, 48, 0
11, 33520, Note_on_c, 2, 52, 39
11, 33560, Note_on_c, 2, 45, 0
11, 33560, Note_on_c, 2, 48, 54
11, 33600, Note_on_c, 2, 48, 0
11, 33600, Note_on_c, 2, 52, 0
11, 33600, Note_on_c, 2, 60, 0
11, 33600, Note_on_c, 2, 55, 0
11, 33600, Note_on_c, 2, 38, 53
11, 33640, Note_on_c, 2, 53, 53
11, 33680, Note_on_c, 2, 57, 53
11, 33720, Note_on_c, 2, 53, 0
11, 33720, Note_on_c, 2, 60, 53
11, 33723, Note_on_c, 2, 57, 0
11, 33723, Control_c, 2, 64, 127
11, 33760, Note_on_c, 2, 57, 52
11, 33784, Note_on_c, 2, 60, 0
11, 33784, Note_on_c, 2, 38, 0
11, 33800, Note_on_c, 2, 53, 53
11, 33840, Note_on_c, 2, 53, 0
11, 33840, Note_on_c, 2, 57, 0
11, 33840, Note_on_c, 2, 50, 53
11, 33840, Control_c, 2, 64, 0
11, 33880, Note_on_c, 2, 53, 53
11, 33920, Note_on_c, 2, 57, 53
11, 33962, Note_on_c, 2, 57, 0
11, 33962, Note_on_c, 2, 53, 0
11, 33962, Note_on_c, 2, 60, 53
11, 34000, Control_c, 2, 64, 127
11, 34000, Note_on_c, 2, 57, 49
11, 34040, Note_on_c, 2, 57, 0
11, 34040, Note_on_c, 2, 60, 0
11, 34040, Note_on_c, 2, 53, 53
11, 34080, Note_on_c, 2, 53, 0
11, 34080, Note_on_c, 2, 50, 0
11, 34080, Control_c, 2, 64, 0
11, 34080, Note_on_c, 2, 38, 53
11, 34120, Note_on_c, 2, 53, 53
11, 34160, Note_on_c, 2, 57, 53
11, 34200, Note_on_c, 2, 53, 0
11, 34200, Note_on_c, 2, 60, 53
11, 34203, Note_on_c, 2, 57, 0
11, 34203, Control_c, 2, 64, 127
11, 34240, Note_on_c, 2, 57, 52
11, 34264, Note_on_c, 2, 60, 0
11, 34264, Note_on_c, 2, 38, 0
11, 34280, Note_on_c, 2, 53, 53
11, 34320, Note_on_c, 2, 53, 0
11, 34320, Note_on_c, 2, 57, 0
11, 34320, Control_c, 2, 64, 0
11, 34320, Note_on_c, 2, 67, 61
11, 34320, Note_on_c, 2, 43, 57
11, 34360, Control_c, 2, 64, 127
11, 34360, Note_on_c, 2, 62, 48
11, 34400, Note_on_c, 2, 67, 0
11, 34400, Note_on_c, 2, 59, 50
11, 34440, Note_on_c, 2, 59, 0
11, 34440, Note_on_c, 2, 62, 0
11, 34440, Note_on_c, 2, 67, 54
11, 34480, Note_on_c, 2, 62, 48
11, 34520, Note_on_c, 2, 67, 0
11, 34520, Note_on_c, 2, 59, 48
11, 34542, Note_on_c, 2, 59, 0
11, 34542, Note_on_c, 2, 62, 0
11, 34542, Note_on_c, 2, 43, 0
11, 34560, Control_c, 2, 64, 0
11, 34560, Note_on_c, 2, 64, 55
11, 34560, Note_on_c, 2, 36, 48
11, 34600, Note_on_c, 2, 52, 48
11, 34640, Note_on_c, 2, 55, 48
11, 34680, Note_on_c, 2, 60, 67
11, 34720, Note_on_c, 2, 55, 0
11, 34720, Note_on_c, 2, 52, 0
11, 34720, Note_on_c, 2, 55, 45
11, 34760, Note_on_c, 2, 60, 0
11, 34760, Note_on_c, 2, 52, 50
11, 34800, Note_on_c, 2, 52, 0
11, 34800, Note_on_c, 2, 55, 0
11, 34800, Note_on_c, 2, 36, 0
11, 34800, Note_on_c, 2, 64, 0
11, 34800, Note_on_c, 2, 60, 55
11, 34800, Note_on_c, 2, 45, 48
11, 34840, Note_on_c, 2, 48, 48
11, 34880, Note_on_c, 2, 52, 48
11, 34920, Note_on_c, 2, 55, 67
11, 34960, Note_on_c, 2, 52, 0
11, 34960, Note_on_c, 2, 48, 0
11, 34960, Note_on_c, 2, 52, 45
11, 35000, Note_on_c, 2, 55, 0
11, 35000, Note_on_c, 2, 48, 50
11, 35040, Note_on_c, 2, 48, 0
11, 35040, Note_on_c, 2, 52, 0
11, 35040, Note_on_c, 2, 45, 0
11, 35040, Note_on_c, 2, 60, 0
11, 35040, Note_on_c, 2, 65, 55
11, 35040, Note_on_c, 2, 38, 48
11, 35080, Note_on_c, 2, 53, 48
11, 35120, Note_on_c, 2, 57, 48
11, 35160, Note_on_c, 2, 57, 0
11, 35160, Note_on_c, 2, 65, 0
11, 35160, Note_on_c, 2, 38, 0
11, 35160, Note_on_c, 2, 53, 0
11, 35160, Note_on_c, 2, 67, 61
11, 35160, Note_on_c, 2, 43, 57
11, 35200, Control_c, 2, 64, 127
11, 35200, Note_on_c, 2, 62, 48
11, 35240, Note_on_c, 2, 67, 0
11, 35240, Note_on_c, 2, 59, 50
11, 35280, Note_on_c, 2, 59, 0
11, 35280, Note_on_c, 2, 62, 0
11, 35280, Note_on_c, 2, 43, 0
11, 35280, Control_c, 2, 64, 0
11, 35280, Note_on_c, 2, 36, 53
11, 35320, Note_on_c, 2, 52, 53
11, 35360, Note_on_c, 2, 55, 53
11, 35400, Note_on_c, 2, 52, 0
11, 35403, Note_on_c, 2, 55, 0
11, 35403, Control_c, 2, 64, 127
11, 35464, Note_on_c, 2, 36, 0
11, 35520, Control_c, 2, 64, 0
11, 35520, Control_c, 2, 64, 0
11, 35520, End_track
12, 0, Start_track
12, 0, MIDI_port, 0
12, 0, Title_t, "Guitar"
12, 0, Program_c, 3, 51
12, 0, Control_c, 3, 7, 82
12, 0, Control_c, 3, 10, 64
12, 0, Control_c, 3, 121, 0
12, 0, Control_c, 3, 123, 0
12, 0, Control_c, 3, 91, 40
12, 0, Control_c, 3, 93, 0
12, 0, Control_c, 3, 64, 0
12, 989, Note_on_c, 3, 67, 72
12, 1038, Note_on_c, 3, 67, 0
12, 1272, Note_on_c, 3, 67, 49
12, 1337, Note_on_c, 3, 67, 0
12, 1384, Note_on_c, 3, 67, 45
12, 1440, Note_on_c, 3, 67, 0
12, 1949, Note_on_c, 3, 67, 72
12, 1998, Note_on_c, 3, 67, 0
12, 2232, Note_on_c, 3, 67, 49
12, 2297, Note_on_c, 3, 67, 0
12, 2344, Note_on_c, 3, 67, 45
12, 2400, Note_on_c, 3, 67, 0
12, 2429, Note_on_c, 3, 67, 72
12, 2478, Note_on_c, 3, 67, 0
12, 2669, Note_on_c, 3, 62, 72
12, 2718, Note_on_c, 3, 62, 0
12, 2909, Note_on_c, 3, 67, 72
12, 2958, Note_on_c, 3, 67, 0
12, 3192, Note_on_c, 3, 67, 49
12, 3257, Note_on_c, 3, 67, 0
12, 3304, Note_on_c, 3, 67, 45
12, 3360, Note_on_c, 3, 67, 0
12, 3389, Note_on_c, 3, 64, 72
12, 3438, Note_on_c, 3, 64, 0
12, 3672, Note_on_c, 3, 64, 49
12, 3737, Note_on_c, 3, 64, 0
12, 3784, Note_on_c, 3, 64, 45
12, 3840, Note_on_c, 3, 64, 0
12, 3869, Note_on_c, 3, 69, 72
12, 3918, Note_on_c, 3, 69, 0
12, 4152, Note_on_c, 3, 69, 49
12, 4217, Note_on_c, 3, 69, 0
12, 4264, Note_on_c, 3, 69, 45
12, 4320, Note_on_c, 3, 69, 0
12, 4349, Note_on_c, 3, 62, 72
12, 4398, Note_on_c, 3, 62, 0
12, 4632, Note_on_c, 3, 62, 49
12, 4697, Note_on_c, 3, 62, 0
12, 4744, Note_on_c, 3, 62, 45
12, 4800, Note_on_c, 3, 62, 0
12, 4829, Note_on_c, 3, 67, 72
12, 4878, Note_on_c, 3, 67, 0
12, 5112, Note_on_c, 3, 67, 49
12, 5177, Note_on_c, 3, 67, 0
12, 5224, Note_on_c, 3, 67, 45
12, 5280, Note_on_c, 3, 67, 0
12, 5309, Note_on_c, 3, 65, 72
12, 5358, Note_on_c, 3, 65, 0
12, 5592, Note_on_c, 3, 65, 49
12, 5657, Note_on_c, 3, 65, 0
12, 5704, Note_on_c, 3, 65, 45
12, 5760, Note_on_c, 3, 65, 0
12, 5789, Note_on_c, 3, 64, 72
12, 5838, Note_on_c, 3, 64, 0
12, 6072, Note_on_c, 3, 64, 49
12, 6137, Note_on_c, 3, 64, 0
12, 6184, Note_on_c, 3, 64, 45
12, 6240, Note_on_c, 3, 64, 0
12, 6269, Note_on_c, 3, 72, 72
12, 6318, Note_on_c, 3, 72, 0
12, 6509, Note_on_c, 3, 69, 72
12, 6558, Note_on_c, 3, 69, 0
12, 6629, Note_on_c, 3, 62, 72
12, 6678, Note_on_c, 3, 62, 0
12, 6749, Note_on_c, 3, 67, 72
12, 6798, Note_on_c, 3, 67, 0
12, 7032, Note_on_c, 3, 67, 49
12, 7097, Note_on_c, 3, 67, 0
12, 7144, Note_on_c, 3, 67, 45
12, 7200, Note_on_c, 3, 67, 0
12, 7229, Note_on_c, 3, 64, 72
12, 7278, Note_on_c, 3, 64, 0
12, 7512, Note_on_c, 3, 64, 49
12, 7577, Note_on_c, 3, 64, 0
12, 7624, Note_on_c, 3, 64, 45
12, 7680, Note_on_c, 3, 64, 0
12, 7709, Note_on_c, 3, 69, 72
12, 7758, Note_on_c, 3, 69, 0
12, 7992, Note_on_c, 3, 69, 49
12, 8057, Note_on_c, 3, 69, 0
12, 8104, Note_on_c, 3, 69, 45
12, 8160, Note_on_c, 3, 69, 0
12, 8189, Note_on_c, 3, 62, 72
12, 8238, Note_on_c, 3, 62, 0
12, 8472, Note_on_c, 3, 62, 49
12, 8537, Note_on_c, 3, 62, 0
12, 8584, Note_on_c, 3, 62, 45
12, 8640, Note_on_c, 3, 62, 0
12, 8669, Note_on_c, 3, 67, 72
12, 8718, Note_on_c, 3, 67, 0
12, 8952, Note_on_c, 3, 67, 49
12, 9017, Note_on_c, 3, 67, 0
12, 9064, Note_on_c, 3, 67, 45
12, 9120, Note_on_c, 3, 67, 0
12, 9149, Note_on_c, 3, 65, 72
12, 9198, Note_on_c, 3, 65, 0
12, 9432, Note_on_c, 3, 65, 49
12, 9497, Note_on_c, 3, 65, 0
12, 9544, Note_on_c, 3, 65, 45
12, 9600, Note_on_c, 3, 65, 0
12, 9629, Note_on_c, 3, 64, 72
12, 9678, Note_on_c, 3, 64, 0
12, 9912, Note_on_c, 3, 64, 49
12, 9977, Note_on_c, 3, 64, 0
12, 10024, Note_on_c, 3, 64, 45
12, 10080, Note_on_c, 3, 64, 0
12, 10109, Note_on_c, 3, 64, 72
12, 10158, Note_on_c, 3, 64, 0
12, 10349, Note_on_c, 3, 63, 72
12, 10398, Note_on_c, 3, 63, 0
12, 10589, Note_on_c, 3, 69, 72
12, 10638, Note_on_c, 3, 69, 0
12, 10872, Note_on_c, 3, 69, 49
12, 10937, Note_on_c, 3, 69, 0
12, 10984, Note_on_c, 3, 69, 45
12, 11040, Note_on_c, 3, 69, 0
12, 11069, Note_on_c, 3, 71, 72
12, 11118, Note_on_c, 3, 71, 0
12, 11352, Note_on_c, 3, 71, 49
12, 11417, Note_on_c, 3, 71, 0
12, 11464, Note_on_c, 3, 71, 45
12, 11520, Note_on_c, 3, 71, 0
12, 11549, Note_on_c, 3, 64, 72
12, 11598, Note_on_c, 3, 64, 0
12, 11789, Note_on_c, 3, 64, 72
12, 11838, Note_on_c, 3, 64, 0
12, 12029, Note_on_c, 3, 72, 72
12, 12078, Note_on_c, 3, 72, 0
12, 12312, Note_on_c, 3, 72, 49
12, 12377, Note_on_c, 3, 72, 0
12, 12424, Note_on_c, 3, 72, 45
12, 12480, Note_on_c, 3, 72, 0
12, 12509, Note_on_c, 3, 67, 72
12, 12558, Note_on_c, 3, 67, 0
12, 12792, Note_on_c, 3, 67, 49
12, 12857, Note_on_c, 3, 67, 0
12, 12904, Note_on_c, 3, 67, 45
12, 12960, Note_on_c, 3, 67, 0
12, 12989, Note_on_c, 3, 68, 72
12, 13038, Note_on_c, 3, 68, 0
12, 13272, Note_on_c, 3, 68, 49
12, 13337, Note_on_c, 3, 68, 0
12, 13384, Note_on_c, 3, 68, 45
12, 13440, Note_on_c, 3, 68, 0
12, 13469, Note_on_c, 3, 64, 72
12, 13518, Note_on_c, 3, 64, 0
12, 13752, Note_on_c, 3, 64, 49
12, 13817, Note_on_c, 3, 64, 0
12, 13864, Note_on_c, 3, 64, 45
12, 13920, Note_on_c, 3, 64, 0
12, 13949, Note_on_c, 3, 69, 72
12, 13998, Note_on_c, 3, 69, 0
12, 14189, Note_on_c, 3, 62, 72
12, 14238, Note_on_c, 3, 62, 0
12, 14429, Note_on_c, 3, 67, 72
12, 14478, Note_on_c, 3, 67, 0
12, 14712, Note_on_c, 3, 67, 49
12, 14777, Note_on_c, 3, 67, 0
12, 14824, Note_on_c, 3, 67, 45
12, 14880, Note_on_c, 3, 67, 0
12, 14909, Note_on_c, 3, 64, 72
12, 14958, Note_on_c, 3, 64, 0
12, 15192, Note_on_c, 3, 64, 49
12, 15257, Note_on_c, 3, 64, 0
12, 15304, Note_on_c, 3, 64, 45
12, 15360, Note_on_c, 3, 64, 0
12, 15389, Note_on_c, 3, 72, 72
12, 15438, Note_on_c, 3, 72, 0
12, 15672, Note_on_c, 3, 72, 49
12, 15737, Note_on_c, 3, 72, 0
12, 15784, Note_on_c, 3, 72, 45
12, 15840, Note_on_c, 3, 72, 0
12, 15869, Note_on_c, 3, 69, 72
12, 15918, Note_on_c, 3, 69, 0
12, 16109, Note_on_c, 3, 62, 72
12, 16158, Note_on_c, 3, 62, 0
12, 16349, Note_on_c, 3, 67, 72
12, 16398, Note_on_c, 3, 67, 0
12, 16632, Note_on_c, 3, 67, 49
12, 16697, Note_on_c, 3, 67, 0
12, 16744, Note_on_c, 3, 67, 45
12, 16800, Note_on_c, 3, 67, 0
12, 16829, Note_on_c, 3, 64, 72
12, 16878, Note_on_c, 3, 64, 0
12, 17112, Note_on_c, 3, 64, 49
12, 17177, Note_on_c, 3, 64, 0
12, 17224, Note_on_c, 3, 64, 45
12, 17280, Note_on_c, 3, 64, 0
12, 17309, Note_on_c, 3, 69, 72
12, 17358, Note_on_c, 3, 69, 0
12, 17592, Note_on_c, 3, 69, 49
12, 17657, Note_on_c, 3, 69, 0
12, 17704, Note_on_c, 3, 69, 45
12, 17760, Note_on_c, 3, 69, 0
12, 17789, Note_on_c, 3, 69, 72
12, 17838, Note_on_c, 3, 69, 0
12, 18029, Note_on_c, 3, 62, 72
12, 18078, Note_on_c, 3, 62, 0
12, 18269, Note_on_c, 3, 67, 72
12, 18318, Note_on_c, 3, 67, 0
12, 18509, Note_on_c, 3, 64, 72
12, 18558, Note_on_c, 3, 64, 0
12, 18749, Note_on_c, 3, 69, 72
12, 18798, Note_on_c, 3, 69, 0
12, 18989, Note_on_c, 3, 62, 72
12, 19038, Note_on_c, 3, 62, 0
12, 19229, Note_on_c, 3, 67, 72
12, 19278, Note_on_c, 3, 67, 0
12, 19512, Note_on_c, 3, 67, 49
12, 19577, Note_on_c, 3, 67, 0
12, 19624, Note_on_c, 3, 67, 45
12, 19680, Note_on_c, 3, 67, 0
12, 19709, Note_on_c, 3, 64, 72
12, 19758, Note_on_c, 3, 64, 0
12, 19992, Note_on_c, 3, 64, 49
12, 20057, Note_on_c, 3, 64, 0
12, 20104, Note_on_c, 3, 64, 45
12, 20160, Note_on_c, 3, 64, 0
12, 20189, Note_on_c, 3, 69, 72
12, 20238, Note_on_c, 3, 69, 0
12, 20472, Note_on_c, 3, 69, 49
12, 20537, Note_on_c, 3, 69, 0
12, 20584, Note_on_c, 3, 69, 45
12, 20640, Note_on_c, 3, 69, 0
12, 20669, Note_on_c, 3, 62, 72
12, 20718, Note_on_c, 3, 62, 0
12, 20952, Note_on_c, 3, 62, 49
12, 21017, Note_on_c, 3, 62, 0
12, 21064, Note_on_c, 3, 62, 45
12, 21120, Note_on_c, 3, 62, 0
12, 21149, Note_on_c, 3, 67, 72
12, 21198, Note_on_c, 3, 67, 0
12, 21432, Note_on_c, 3, 67, 49
12, 21497, Note_on_c, 3, 67, 0
12, 21544, Note_on_c, 3, 67, 45
12, 21600, Note_on_c, 3, 67, 0
12, 21629, Note_on_c, 3, 65, 72
12, 21678, Note_on_c, 3, 65, 0
12, 21912, Note_on_c, 3, 65, 49
12, 21977, Note_on_c, 3, 65, 0
12, 22024, Note_on_c, 3, 65, 45
12, 22080, Note_on_c, 3, 65, 0
12, 22109, Note_on_c, 3, 64, 72
12, 22158, Note_on_c, 3, 64, 0
12, 22392, Note_on_c, 3, 64, 49
12, 22457, Note_on_c, 3, 64, 0
12, 22504, Note_on_c, 3, 64, 45
12, 22560, Note_on_c, 3, 64, 0
12, 22589, Note_on_c, 3, 72, 72
12, 22638, Note_on_c, 3, 72, 0
12, 22829, Note_on_c, 3, 69, 72
12, 22878, Note_on_c, 3, 69, 0
12, 22949, Note_on_c, 3, 62, 72
12, 22998, Note_on_c, 3, 62, 0
12, 23069, Note_on_c, 3, 67, 72
12, 23118, Note_on_c, 3, 67, 0
12, 23352, Note_on_c, 3, 67, 49
12, 23417, Note_on_c, 3, 67, 0
12, 23464, Note_on_c, 3, 67, 45
12, 23520, Note_on_c, 3, 67, 0
12, 23549, Note_on_c, 3, 64, 72
12, 23598, Note_on_c, 3, 64, 0
12, 23832, Note_on_c, 3, 64, 49
12, 23897, Note_on_c, 3, 64, 0
12, 23944, Note_on_c, 3, 64, 45
12, 24000, Note_on_c, 3, 64, 0
12, 24029, Note_on_c, 3, 69, 72
12, 24078, Note_on_c, 3, 69, 0
12, 24312, Note_on_c, 3, 69, 49
12, 24377, Note_on_c, 3, 69, 0
12, 24424, Note_on_c, 3, 69, 45
12, 24480, Note_on_c, 3, 69, 0
12, 24509, Note_on_c, 3, 62, 72
12, 24558, Note_on_c, 3, 62, 0
12, 24792, Note_on_c, 3, 62, 49
12, 24857, Note_on_c, 3, 62, 0
12, 24904, Note_on_c, 3, 62, 45
12, 24960, Note_on_c, 3, 62, 0
12, 24989, Note_on_c, 3, 67, 72
12, 25038, Note_on_c, 3, 67, 0
12, 25272, Note_on_c, 3, 67, 49
12, 25337, Note_on_c, 3, 67, 0
12, 25384, Note_on_c, 3, 67, 45
12, 25440, Note_on_c, 3, 67, 0
12, 25469, Note_on_c, 3, 65, 72
12, 25518, Note_on_c, 3, 65, 0
12, 25752, Note_on_c, 3, 65, 49
12, 25817, Note_on_c, 3, 65, 0
12, 25864, Note_on_c, 3, 65, 45
12, 25920, Note_on_c, 3, 65, 0
12, 25949, Note_on_c, 3, 64, 72
12, 25998, Note_on_c, 3, 64, 0
12, 26232, Note_on_c, 3, 64, 49
12, 26297, Note_on_c, 3, 64, 0
12, 26344, Note_on_c, 3, 64, 45
12, 26400, Note_on_c, 3, 64, 0
12, 26429, Note_on_c, 3, 64, 72
12, 26478, Note_on_c, 3, 64, 0
12, 26669, Note_on_c, 3, 63, 72
12, 26718, Note_on_c, 3, 63, 0
12, 26909, Note_on_c, 3, 69, 72
12, 26958, Note_on_c, 3, 69, 0
12, 27192, Note_on_c, 3, 69, 49
12, 27257, Note_on_c, 3, 69, 0
12, 27304, Note_on_c, 3, 69, 45
12, 27360, Note_on_c, 3, 69, 0
12, 27389, Note_on_c, 3, 71, 72
12, 27438, Note_on_c, 3, 71, 0
12, 27672, Note_on_c, 3, 71, 49
12, 27737, Note_on_c, 3, 71, 0
12, 27784, Note_on_c, 3, 71, 45
12, 27840, Note_on_c, 3, 71, 0
12, 27869, Note_on_c, 3, 64, 72
12, 27918, Note_on_c, 3, 64, 0
12, 28109, Note_on_c, 3, 64, 72
12, 28158, Note_on_c, 3, 64, 0
12, 28349, Note_on_c, 3, 72, 72
12, 28398, Note_on_c, 3, 72, 0
12, 28632, Note_on_c, 3, 72, 49
12, 28697, Note_on_c, 3, 72, 0
12, 28744, Note_on_c, 3, 72, 45
12, 28800, Note_on_c, 3, 72, 0
12, 28829, Note_on_c, 3, 67, 72
12, 28878, Note_on_c, 3, 67, 0
12, 29112, Note_on_c, 3, 67, 49
12, 29177, Note_on_c, 3, 67, 0
12, 29224, Note_on_c, 3, 67, 45
12, 29280, Note_on_c, 3, 67, 0
12, 29309, Note_on_c, 3, 68, 72
12, 29358, Note_on_c, 3, 68, 0
12, 29592, Note_on_c, 3, 68, 49
12, 29657, Note_on_c, 3, 68, 0
12, 29704, Note_on_c, 3, 68, 45
12, 29760, Note_on_c, 3, 68, 0
12, 29789, Note_on_c, 3, 64, 72
12, 29838, Note_on_c, 3, 64, 0
12, 30072, Note_on_c, 3, 64, 49
12, 30137, Note_on_c, 3, 64, 0
12, 30184, Note_on_c, 3, 64, 45
12, 30240, Note_on_c, 3, 64, 0
12, 30269, Note_on_c, 3, 69, 72
12, 30318, Note_on_c, 3, 69, 0
12, 30509, Note_on_c, 3, 62, 72
12, 30558, Note_on_c, 3, 62, 0
12, 30749, Note_on_c, 3, 67, 72
12, 30798, Note_on_c, 3, 67, 0
12, 31032, Note_on_c, 3, 67, 49
12, 31097, Note_on_c, 3, 67, 0
12, 31144, Note_on_c, 3, 67, 45
12, 31200, Note_on_c, 3, 67, 0
12, 31229, Note_on_c, 3, 64, 72
12, 31278, Note_on_c, 3, 64, 0
12, 31512, Note_on_c, 3, 64, 49
12, 31577, Note_on_c, 3, 64, 0
12, 31624, Note_on_c, 3, 64, 45
12, 31680, Note_on_c, 3, 64, 0
12, 31709, Note_on_c, 3, 72, 72
12, 31758, Note_on_c, 3, 72, 0
12, 31992, Note_on_c, 3, 72, 49
12, 32057, Note_on_c, 3, 72, 0
12, 32104, Note_on_c, 3, 72, 45
12, 32160, Note_on_c, 3, 72, 0
12, 32189, Note_on_c, 3, 69, 72
12, 32238, Note_on_c, 3, 69, 0
12, 32429, Note_on_c, 3, 62, 72
12, 32478, Note_on_c, 3, 62, 0
12, 32669, Note_on_c, 3, 67, 72
12, 32718, Note_on_c, 3, 67, 0
12, 32952, Note_on_c, 3, 67, 49
12, 33017, Note_on_c, 3, 67, 0
12, 33064, Note_on_c, 3, 67, 45
12, 33120, Note_on_c, 3, 67, 0
12, 33149, Note_on_c, 3, 64, 72
12, 33198, Note_on_c, 3, 64, 0
12, 33432, Note_on_c, 3, 64, 49
12, 33497, Note_on_c, 3, 64, 0
12, 33544, Note_on_c, 3, 64, 45
12, 33600, Note_on_c, 3, 64, 0
12, 33629, Note_on_c, 3, 69, 72
12, 33678, Note_on_c, 3, 69, 0
12, 33912, Note_on_c, 3, 69, 49
12, 33977, Note_on_c, 3, 69, 0
12, 34024, Note_on_c, 3, 69, 45
12, 34080, Note_on_c, 3, 69, 0
12, 34109, Note_on_c, 3, 69, 72
12, 34158, Note_on_c, 3, 69, 0
12, 34349, Note_on_c, 3, 62, 72
12, 34398, Note_on_c, 3, 62, 0
12, 34589, Note_on_c, 3, 67, 72
12, 34638, Note_on_c, 3, 67, 0
12, 34829, Note_on_c, 3, 64, 72
12, 34878, Note_on_c, 3, 64, 0
12, 35069, Note_on_c, 3, 69, 72
12, 35118, Note_on_c, 3, 69, 0
12, 35189, Note_on_c, 3, 62, 72
12, 35238, Note_on_c, 3, 62, 0
12, 35309, Note_on_c, 3, 67, 72
12, 35358, Note_on_c, 3, 67, 0
12, 35520, Control_c, 3, 64, 0
12, 35520, End_track
13, 0, Start_track
13, 0, MIDI_port, 0
13, 0, Title_t, "Strings"
13, 0, Program_c, 4, 51
13, 0, Control_c, 4, 7, 82
13, 0, Control_c, 4, 10, 64
13, 0, Control_c, 4, 121, 0
13, 0, Control_c, 4, 123, 0
13, 0, Control_c, 4, 91, 30
13, 0, Control_c, 4, 93, 0
13, 0, Control_c, 4, 64, 0
13, 960, Note_on_c, 4, 64, 52
13, 1018, Note_on_c, 4, 64, 0
13, 1107, Note_on_c, 4, 64, 36
13, 1783, Note_on_c, 4, 65, 38
13, 1785, Note_on_c, 4, 64, 0
13, 1920, Note_on_c, 4, 65, 0
13, 1920, Note_on_c, 4, 64, 52
13, 1978, Note_on_c, 4, 64, 0
13, 2067, Note_on_c, 4, 64, 36
13, 2400, Note_on_c, 4, 64, 0
13, 2400, Note_on_c, 4, 64, 52
13, 2458, Note_on_c, 4, 64, 0
13, 2547, Note_on_c, 4, 64, 36
13, 2640, Note_on_c, 4, 64, 0
13, 2640, Note_on_c, 4, 59, 52
13, 2698, Note_on_c, 4, 59, 0
13, 2787, Note_on_c, 4, 59, 36
13, 2880, Note_on_c, 4, 59, 0
13, 2880, Note_on_c, 4, 64, 52
13, 2938, Note_on_c, 4, 64, 0
13, 3027, Note_on_c, 4, 64, 36
13, 3360, Note_on_c, 4, 64, 0
13, 3360, Note_on_c, 4, 60, 52
13, 3418, Note_on_c, 4, 60, 0
13, 3507, Note_on_c, 4, 60, 36
13, 3840, Note_on_c, 4, 60, 0
13, 3840, Note_on_c, 4, 65, 52
13, 3898, Note_on_c, 4, 65, 0
13, 3987, Note_on_c, 4, 65, 36
13, 4320, Note_on_c, 4, 65, 0
13, 4320, Note_on_c, 4, 59, 52
13, 4378, Note_on_c, 4, 59, 0
13, 4467, Note_on_c, 4, 59, 36
13, 4800, Note_on_c, 4, 59, 0
13, 4800, Note_on_c, 4, 64, 52
13, 4858, Note_on_c, 4, 64, 0
13, 4947, Note_on_c, 4, 64, 36
13, 5280, Note_on_c, 4, 64, 0
13, 5280, Note_on_c, 4, 62, 52
13, 5338, Note_on_c, 4, 62, 0
13, 5427, Note_on_c, 4, 62, 36
13, 5760, Note_on_c, 4, 62, 0
13, 5760, Note_on_c, 4, 61, 52
13, 5818, Note_on_c, 4, 61, 0
13, 5907, Note_on_c, 4, 61, 36
13, 6240, Note_on_c, 4, 61, 0
13, 6240, Note_on_c, 4, 68, 52
13, 6298, Note_on_c, 4, 68, 0
13, 6387, Note_on_c, 4, 68, 36
13, 6480, Note_on_c, 4, 68, 0
13, 6480, Note_on_c, 4, 65, 52
13, 6538, Note_on_c, 4, 65, 0
13, 6600, Note_on_c, 4, 59, 52
13, 6658, Note_on_c, 4, 59, 0
13, 6720, Note_on_c, 4, 64, 52
13, 6778, Note_on_c, 4, 64, 0
13, 6867, Note_on_c, 4, 64, 36
13, 7200, Note_on_c, 4, 64, 0
13, 7200, Note_on_c, 4, 60, 52
13, 7258, Note_on_c, 4, 60, 0
13, 7347, Note_on_c, 4, 60, 36
13, 7680, Note_on_c, 4, 60, 0
13, 7680, Note_on_c, 4, 65, 52
13, 7738, Note_on_c, 4, 65, 0
13, 7827, Note_on_c, 4, 65, 36
13, 8160, Note_on_c, 4, 65, 0
13, 8160, Note_on_c, 4, 59, 52
13, 8218, Note_on_c, 4, 59, 0
13, 8307, Note_on_c, 4, 59, 36
13, 8640, Note_on_c, 4, 59, 0
13, 8640, Note_on_c, 4, 64, 52
13, 8698, Note_on_c, 4, 64, 0
13, 8787, Note_on_c, 4, 64, 36
13, 9120, Note_on_c, 4, 64, 0
13, 9120, Note_on_c, 4, 62, 52
13, 9178, Note_on_c, 4, 62, 0
13, 9267, Note_on_c, 4, 62, 36
13, 9600, Note_on_c, 4, 62, 0
13, 9600, Note_on_c, 4, 61, 52
13, 9658, Note_on_c, 4, 61, 0
13, 9747, Note_on_c, 4, 61, 36
13, 10080, Note_on_c, 4, 61, 0
13, 10080, Note_on_c, 4, 61, 52
13, 10138, Note_on_c, 4, 61, 0
13, 10227, Note_on_c, 4, 61, 36
13, 10320, Note_on_c, 4, 61, 0
13, 10320, Note_on_c, 4, 61, 52
13, 10378, Note_on_c, 4, 61, 0
13, 10467, Note_on_c, 4, 61, 36
13, 10560, Note_on_c, 4, 61, 0
13, 10560, Note_on_c, 4, 65, 52
13, 10618, Note_on_c, 4, 65, 0
13, 10707, Note_on_c, 4, 65, 36
13, 11040, Note_on_c, 4, 65, 0
13, 11040, Note_on_c, 4, 68, 52
13, 11098, Note_on_c, 4, 68, 0
13, 11187, Note_on_c, 4, 68, 36
13, 11520, Note_on_c, 4, 68, 0
13, 11520, Note_on_c, 4, 60, 52
13, 11578, Note_on_c, 4, 60, 0
13, 11667, Note_on_c, 4, 60, 36
13, 11760, Note_on_c, 4, 60, 0
13, 11760, Note_on_c, 4, 60, 52
13, 11818, Note_on_c, 4, 60, 0
13, 11907, Note_on_c, 4, 60, 36
13, 12000, Note_on_c, 4, 60, 0
13, 12000, Note_on_c, 4, 68, 52
13, 12058, Note_on_c, 4, 68, 0
13, 12147, Note_on_c, 4, 68, 36
13, 12480, Note_on_c, 4, 68, 0
13, 12480, Note_on_c, 4, 64, 52
13, 12538, Note_on_c, 4, 64, 0
13, 12627, Note_on_c, 4, 64, 36
13, 12960, Note_on_c, 4, 64, 0
13, 12960, Note_on_c, 4, 64, 52
13, 13018, Note_on_c, 4, 64, 0
13, 13107, Note_on_c, 4, 64, 36
13, 13440, Note_on_c, 4, 64, 0
13, 13440, Note_on_c, 4, 60, 52
13, 13498, Note_on_c, 4, 60, 0
13, 13587, Note_on_c, 4, 60, 36
13, 13920, Note_on_c, 4, 60, 0
13, 13920, Note_on_c, 4, 65, 52
13, 13978, Note_on_c, 4, 65, 0
13, 14067, Note_on_c, 4, 65, 36
13, 14160, Note_on_c, 4, 65, 0
13, 14160, Note_on_c, 4, 59, 52
13, 14218, Note_on_c, 4, 59, 0
13, 14307, Note_on_c, 4, 59, 36
13, 14400, Note_on_c, 4, 59, 0
13, 14400, Note_on_c, 4, 64, 52
13, 14458, Note_on_c, 4, 64, 0
13, 14547, Note_on_c, 4, 64, 36
13, 14880, Note_on_c, 4, 64, 0
13, 14880, Note_on_c, 4, 60, 52
13, 14938, Note_on_c, 4, 60, 0
13, 15027, Note_on_c, 4, 60, 36
13, 15360, Note_on_c, 4, 60, 0
13, 15360, Note_on_c, 4, 68, 52
13, 15418, Note_on_c, 4, 68, 0
13, 15507, Note_on_c, 4, 68, 36
13, 15840, Note_on_c, 4, 68, 0
13, 15840, Note_on_c, 4, 65, 52
13, 15898, Note_on_c, 4, 65, 0
13, 15987, Note_on_c, 4, 65, 36
13, 16080, Note_on_c, 4, 65, 0
13, 16080, Note_on_c, 4, 59, 52
13, 16138, Note_on_c, 4, 59, 0
13, 16227, Note_on_c, 4, 59, 36
13, 16320, Note_on_c, 4, 59, 0
13, 16320, Note_on_c, 4, 64, 52
13, 16378, Note_on_c, 4, 64, 0
13, 16467, Note_on_c, 4, 64, 36
13, 16800, Note_on_c, 4, 64, 0
13, 16800, Note_on_c, 4, 60, 52
13, 16858, Note_on_c, 4, 60, 0
13, 16947, Note_on_c, 4, 60, 36
13, 17280, Note_on_c, 4, 60, 0
13, 17280, Note_on_c, 4, 65, 52
13, 17338, Note_on_c, 4, 65, 0
13, 17427, Note_on_c, 4, 65, 36
13, 17760, Note_on_c, 4, 65, 0
13, 17760, Note_on_c, 4, 65, 52
13, 17818, Note_on_c, 4, 65, 0
13, 17907, Note_on_c, 4, 65, 36
13, 18000, Note_on_c, 4, 65, 0
13, 18000, Note_on_c, 4, 59, 52
13, 18058, Note_on_c, 4, 59, 0
13, 18147, Note_on_c, 4, 59, 36
13, 18240, Note_on_c, 4, 59, 0
13, 18240, Note_on_c, 4, 64, 52
13, 18298, Note_on_c, 4, 64, 0
13, 18387, Note_on_c, 4, 64, 36
13, 18480, Note_on_c, 4, 64, 0
13, 18480, Note_on_c, 4, 60, 52
13, 18538, Note_on_c, 4, 60, 0
13, 18627, Note_on_c, 4, 60, 36
13, 18720, Note_on_c, 4, 60, 0
13, 18720, Note_on_c, 4, 65, 52
13, 18778, Note_on_c, 4, 65, 0
13, 18867, Note_on_c, 4, 65, 36
13, 18960, Note_on_c, 4, 65, 0
13, 18960, Note_on_c, 4, 59, 52
13, 19018, Note_on_c, 4, 59, 0
13, 19107, Note_on_c, 4, 59, 36
13, 19200, Note_on_c, 4, 59, 0
13, 19200, Note_on_c, 4, 64, 52
13, 19258, Note_on_c, 4, 64, 0
13, 19347, Note_on_c, 4, 64, 36
13, 19680, Note_on_c, 4, 64, 0
13, 19680, Note_on_c, 4, 60, 52
13, 19738, Note_on_c, 4, 60, 0
13, 19827, Note_on_c, 4, 60, 36
13, 20160, Note_on_c, 4, 60, 0
13, 20160, Note_on_c, 4, 65, 52
13, 20218, Note_on_c, 4, 65, 0
13, 20307, Note_on_c, 4, 65, 36
13, 20640, Note_on_c, 4, 65, 0
13, 20640, Note_on_c, 4, 59, 52
13, 20698, Note_on_c, 4, 59, 0
13, 20787, Note_on_c, 4, 59, 36
13, 21120, Note_on_c, 4, 59, 0
13, 21120, Note_on_c, 4, 64, 52
13, 21178, Note_on_c, 4, 64, 0
13, 21267, Note_on_c, 4, 64, 36
13, 21600, Note_on_c, 4, 64, 0
13, 21600, Note_on_c, 4, 62, 52
13, 21658, Note_on_c, 4, 62, 0
13, 21747, Note_on_c, 4, 62, 36
13, 22080, Note_on_c, 4, 62, 0
13, 22080, Note_on_c, 4, 61, 52
13, 22138, Note_on_c, 4, 61, 0
13, 22227, Note_on_c, 4, 61, 36
13, 22560, Note_on_c, 4, 61, 0
13, 22560, Note_on_c, 4, 68, 52
13, 22618, Note_on_c, 4, 68, 0
13, 22707, Note_on_c, 4, 68, 36
13, 22800, Note_on_c, 4, 68, 0
13, 22800, Note_on_c, 4, 65, 52
13, 22858, Note_on_c, 4, 65, 0
13, 22920, Note_on_c, 4, 59, 52
13, 22978, Note_on_c, 4, 59, 0
13, 23040, Note_on_c, 4, 64, 52
13, 23098, Note_on_c, 4, 64, 0
13, 23187, Note_on_c, 4, 64, 36
13, 23520, Note_on_c, 4, 64, 0
13, 23520, Note_on_c, 4, 60, 52
13, 23578, Note_on_c, 4, 60, 0
13, 23667, Note_on_c, 4, 60, 36
13, 24000, Note_on_c, 4, 60, 0
13, 24000, Note_on_c, 4, 65, 52
13, 24058, Note_on_c, 4, 65, 0
13, 24147, Note_on_c, 4, 65, 36
13, 24480, Note_on_c, 4, 65, 0
13, 24480, Note_on_c, 4, 59, 52
13, 24538, Note_on_c, 4, 59, 0
13, 24627, Note_on_c, 4, 59, 36
13, 24960, Note_on_c, 4, 59, 0
13, 24960, Note_on_c, 4, 64, 52
13, 25018, Note_on_c, 4, 64, 0
13, 25107, Note_on_c, 4, 64, 36
13, 25440, Note_on_c, 4, 64, 0
13, 25440, Note_on_c, 4, 62, 52
13, 25498, Note_on_c, 4, 62, 0
13, 25587, Note_on_c, 4, 62, 36
13, 25920, Note_on_c, 4, 62, 0
13, 25920, Note_on_c, 4, 61, 52
13, 25978, Note_on_c, 4, 61, 0
13, 26067, Note_on_c, 4, 61, 36
13, 26400, Note_on_c, 4, 61, 0
13, 26400, Note_on_c, 4, 61, 52
13, 26458, Note_on_c, 4, 61, 0
13, 26547, Note_on_c, 4, 61, 36
13, 26640, Note_on_c, 4, 61, 0
13, 26640, Note_on_c, 4, 61, 52
13, 26698, Note_on_c, 4, 61, 0
13, 26787, Note_on_c, 4, 61, 36
13, 26880, Note_on_c, 4, 61, 0
13, 26880, Note_on_c, 4, 65, 52
13, 26938, Note_on_c, 4, 65, 0
13, 27027, Note_on_c, 4, 65, 36
13, 27360, Note_on_c, 4, 65, 0
13, 27360, Note_on_c, 4, 68, 52
13, 27418, Note_on_c, 4, 68, 0
13, 27507, Note_on_c, 4, 68, 36
13, 27840, Note_on_c, 4, 68, 0
13, 27840, Note_on_c, 4, 60, 52
13, 27898, Note_on_c, 4, 60, 0
13, 27987, Note_on_c, 4, 60, 36
13, 28080, Note_on_c, 4, 60, 0
13, 28080, Note_on_c, 4, 60, 52
13, 28138, Note_on_c, 4, 60, 0
13, 28227, Note_on_c, 4, 60, 36
13, 28320, Note_on_c, 4, 60, 0
13, 28320, Note_on_c, 4, 68, 52
13, 28378, Note_on_c, 4, 68, 0
13, 28467, Note_on_c, 4, 68, 36
13, 28800, Note_on_c, 4, 68, 0
13, 28800, Note_on_c, 4, 64, 52
13, 28858, Note_on_c, 4, 64, 0
13, 28947, Note_on_c, 4, 64, 36
13, 29280, Note_on_c, 4, 64, 0
13, 29280, Note_on_c, 4, 64, 52
13, 29338, Note_on_c, 4, 64, 0
13, 29427, Note_on_c, 4, 64, 36
13, 29760, Note_on_c, 4, 64, 0
13, 29760, Note_on_c, 4, 60, 52
13, 29818, Note_on_c, 4, 60, 0
13, 29907, Note_on_c, 4, 60, 36
13, 30240, Note_on_c, 4, 60, 0
13, 30240, Note_on_c, 4, 65, 52
13, 30298, Note_on_c, 4, 65, 0
13, 30387, Note_on_c, 4, 65, 36
13, 30480, Note_on_c, 4, 65, 0
13, 30480, Note_on_c, 4, 59, 52
13, 30538, Note_on_c, 4, 59, 0
13, 30627, Note_on_c, 4, 59, 36
13, 30720, Note_on_c, 4, 59, 0
13, 30720, Note_on_c, 4, 64, 52
13, 30778, Note_on_c, 4, 64, 0
13, 30867, Note_on_c, 4, 64, 36
13, 31200, Note_on_c, 4, 64, 0
13, 31200, Note_on_c, 4, 60, 52
13, 31258, Note_on_c, 4, 60, 0
13, 31347, Note_on_c, 4, 60, 36
13, 31680, Note_on_c, 4, 60, 0
13, 31680, Note_on_c, 4, 68, 52
13, 31738, Note_on_c, 4, 68, 0
13, 31827, Note_on_c, 4, 68, 36
13, 32160, Note_on_c, 4, 68, 0
13, 32160, Note_on_c, 4, 65, 52
13, 32218, Note_on_c, 4, 65, 0
13, 32307, Note_on_c, 4, 65, 36
13, 32400, Note_on_c, 4, 65, 0
13, 32400, Note_on_c, 4, 59, 52
13, 32458, Note_on_c, 4, 59, 0
13, 32547, Note_on_c, 4, 59, 36
13, 32640, Note_on_c, 4, 59, 0
13, 32640, Note_on_c, 4, 64, 52
13, 32698, Note_on_c, 4, 64, 0
13, 32787, Note_on_c, 4, 64, 36
13, 33120, Note_on_c, 4, 64, 0
13, 33120, Note_on_c, 4, 60, 52
13, 33178, Note_on_c, 4, 60, 0
13, 33267, Note_on_c, 4, 60, 36
13, 33600, Note_on_c, 4, 60, 0
13, 33600, Note_on_c, 4, 65, 52
13, 33658, Note_on_c, 4, 65, 0
13, 33747, Note_on_c, 4, 65, 36
13, 34080, Note_on_c, 4, 65, 0
13, 34080, Note_on_c, 4, 65, 52
13, 34138, Note_on_c, 4, 65, 0
13, 34227, Note_on_c, 4, 65, 36
13, 34320, Note_on_c, 4, 65, 0
13, 34320, Note_on_c, 4, 59, 52
13, 34378, Note_on_c, 4, 59, 0
13, 34467, Note_on_c, 4, 59, 36
13, 34560, Note_on_c, 4, 59, 0
13, 34560, Note_on_c, 4, 64, 52
13, 34618, Note_on_c, 4, 64, 0
13, 34707, Note_on_c, 4, 64, 36
13, 34800, Note_on_c, 4, 64, 0
13, 34800, Note_on_c, 4, 60, 52
13, 34858, Note_on_c, 4, 60, 0
13, 34947, Note_on_c, 4, 60, 36
13, 35040, Note_on_c, 4, 60, 0
13, 35040, Note_on_c, 4, 65, 52
13, 35098, Note_on_c, 4, 65, 0
13, 35160, Note_on_c, 4, 59, 52
13, 35218, Note_on_c, 4, 59, 0
13, 35280, Note_on_c, 4, 64, 52
13, 35338, Note_on_c, 4, 64, 0
13, 35427, Note_on_c, 4, 64, 36
13, 35520, Note_on_c, 4, 64, 0
13, 35520, Control_c, 4, 64, 0
13, 35520, End_track
14, 0, Start_track
14, 0, MIDI_port, 0
14, 0, Title_t, "Melody 1"
14, 0, Program_c, 5, 11
14, 0, Control_c, 5, 7, 95
14, 0, Control_c, 5, 10, 64
14, 0, Control_c, 5, 121, 0
14, 0, Control_c, 5, 123, 0
14, 0, Control_c, 5, 1, 55
14, 0, Control_c, 5, 91, 60
14, 0, Control_c, 5, 93, 70
14, 0, Control_c, 5, 5, 127
14, 0, Control_c, 5, 65, 0
14, 2640, Note_on_c, 5, 67, 88
14, 2820, Note_on_c, 5, 67, 0
14, 2820, Note_on_c, 5, 64, 84
14, 2880, Note_on_c, 5, 64, 0
14, 2880, Note_on_c, 5, 59, 91
14, 3300, Note_on_c, 5, 59, 0
14, 3300, Note_on_c, 5, 60, 85
14, 3330, Note_on_c, 5, 60, 0
14, 3330, Note_on_c, 5, 62, 85
14, 3360, Note_on_c, 5, 62, 0
14, 3360, Note_on_c, 5, 59, 90
14, 3780, Note_on_c, 5, 59, 0
14, 3780, Note_on_c, 5, 60, 84
14, 3810, Note_on_c, 5, 60, 0
14, 3810, Note_on_c, 5, 62, 83
14, 3840, Note_on_c, 5, 62, 0
14, 3840, Note_on_c, 5, 64, 91
14, 4260, Note_on_c, 5, 64, 0
14, 4260, Note_on_c, 5, 65, 85
14, 4290, Note_on_c, 5, 65, 0
14, 4290, Note_on_c, 5, 67, 85
14, 4320, Note_on_c, 5, 67, 0
14, 4320, Note_on_c, 5, 64, 90
14, 4680, Note_on_c, 5, 64, 0
14, 4680, Note_on_c, 5, 62, 90
14, 4800, Note_on_c, 5, 62, 0
14, 4800, Note_on_c, 5, 67, 91
14, 5220, Note_on_c, 5, 67, 0
14, 5220, Note_on_c, 5, 67, 85
14, 5250, Note_on_c, 5, 67, 0
14, 5250, Note_on_c, 5, 65, 85
14, 5280, Note_on_c, 5, 65, 0
14, 5280, Note_on_c, 5, 67, 90
14, 5700, Note_on_c, 5, 67, 0
14, 5700, Note_on_c, 5, 69, 84
14, 5730, Note_on_c, 5, 69, 0
14, 5730, Note_on_c, 5, 70, 83
14, 5760, Note_on_c, 5, 70, 0
14, 5760, Note_on_c, 5, 67, 91
14, 6060, Note_on_c, 5, 67, 0
14, 6060, Note_on_c, 5, 65, 84
14, 6120, Note_on_c, 5, 65, 0
14, 6120, Note_on_c, 5, 64, 88
14, 6180, Note_on_c, 5, 64, 0
14, 6180, Note_on_c, 5, 67, 85
14, 6240, Note_on_c, 5, 67, 0
14, 6240, Note_on_c, 5, 65, 90
14, 6420, Note_on_c, 5, 65, 0
14, 6420, Note_on_c, 5, 64, 85
14, 6480, Note_on_c, 5, 64, 0
14, 6480, Note_on_c, 5, 62, 88
14, 6600, Note_on_c, 5, 62, 0
14, 6600, Note_on_c, 5, 67, 90
14, 6690, Note_on_c, 5, 67, 0
14, 6690, Note_on_c, 5, 64, 83
14, 6720, Note_on_c, 5, 64, 0
14, 6720, Note_on_c, 5, 59, 91
14, 7140, Note_on_c, 5, 59, 0
14, 7140, Note_on_c, 5, 60, 85
14, 7170, Note_on_c, 5, 60, 0
14, 7170, Note_on_c, 5, 62, 85
14, 7200, Note_on_c, 5, 62, 0
14, 7200, Note_on_c, 5, 59, 90
14, 7620, Note_on_c, 5, 59, 0
14, 7620, Note_on_c, 5, 60, 84
14, 7650, Note_on_c, 5, 60, 0
14, 7650, Note_on_c, 5, 62, 83
14, 7680, Note_on_c, 5, 62, 0
14, 7680, Note_on_c, 5, 64, 91
14, 8100, Note_on_c, 5, 64, 0
14, 8100, Note_on_c, 5, 65, 85
14, 8130, Note_on_c, 5, 65, 0
14, 8130, Note_on_c, 5, 67, 85
14, 8160, Note_on_c, 5, 67, 0
14, 8160, Note_on_c, 5, 64, 90
14, 8520, Note_on_c, 5, 64, 0
14, 8520, Note_on_c, 5, 62, 90
14, 8640, Note_on_c, 5, 62, 0
14, 8640, Note_on_c, 5, 67, 91
14, 9060, Note_on_c, 5, 67, 0
14, 9060, Note_on_c, 5, 67, 85
14, 9090, Note_on_c, 5, 67, 0
14, 9090, Note_on_c, 5, 65, 85
14, 9120, Note_on_c, 5, 65, 0
14, 9120, Note_on_c, 5, 67, 90
14, 9540, Note_on_c, 5, 67, 0
14, 9540, Note_on_c, 5, 69, 84
14, 9570, Note_on_c, 5, 69, 0
14, 9570, Note_on_c, 5, 70, 83
14, 9600, Note_on_c, 5, 70, 0
14, 9600, Note_on_c, 5, 67, 91
14, 10020, Note_on_c, 5, 67, 0
14, 10020, Note_on_c, 5, 65, 85
14, 10050, Note_on_c, 5, 65, 0
14, 10050, Note_on_c, 5, 64, 85
14, 10080, Note_on_c, 5, 64, 0
14, 10080, Note_on_c, 5, 69, 90
14, 10440, Note_on_c, 5, 69, 0
14, 10500, Note_on_c, 5, 69, 84
14, 10560, Note_on_c, 5, 69, 0
14, 10560, Note_on_c, 5, 69, 91
14, 10920, Note_on_c, 5, 69, 0
14, 10920, Note_on_c, 5, 69, 88
14, 10960, Note_on_c, 5, 69, 0
14, 10960, Note_on_c, 5, 70, 82
14, 11000, Note_on_c, 5, 70, 0
14, 11000, Note_on_c, 5, 69, 85
14, 11040, Note_on_c, 5, 69, 0
14, 11040, Note_on_c, 5, 71, 90
14, 11400, Note_on_c, 5, 71, 0
14, 11400, Note_on_c, 5, 64, 90
14, 11440, Note_on_c, 5, 64, 0
14, 11440, Note_on_c, 5, 64, 82
14, 11480, Note_on_c, 5, 64, 0
14, 11480, Note_on_c, 5, 64, 83
14, 11520, Note_on_c, 5, 64, 0
14, 11520, Note_on_c, 5, 72, 91
14, 11880, Note_on_c, 5, 72, 0
14, 11880, Note_on_c, 5, 72, 88
14, 11920, Note_on_c, 5, 72, 0
14, 11920, Note_on_c, 5, 74, 82
14, 11960, Note_on_c, 5, 74, 0
14, 11960, Note_on_c, 5, 72, 85
14, 12000, Note_on_c, 5, 72, 0
14, 12000, Note_on_c, 5, 74, 90
14, 12360, Note_on_c, 5, 74, 0
14, 12360, Note_on_c, 5, 72, 90
14, 12420, Note_on_c, 5, 72, 0
14, 12420, Note_on_c, 5, 74, 84
14, 12480, Note_on_c, 5, 74, 0
14, 12480, Note_on_c, 5, 76, 91
14, 12840, Note_on_c, 5, 76, 0
14, 12840, Note_on_c, 5, 74, 88
14, 12900, Note_on_c, 5, 74, 0
14, 12900, Note_on_c, 5, 72, 85
14, 12960, Note_on_c, 5, 72, 0
14, 12960, Note_on_c, 5, 76, 90
14, 13320, Note_on_c, 5, 76, 0
14, 13320, Note_on_c, 5, 72, 90
14, 13380, Note_on_c, 5, 72, 0
14, 13380, Note_on_c, 5, 74, 84
14, 13440, Note_on_c, 5, 74, 0
14, 13440, Note_on_c, 5, 76, 91
14, 13800, Note_on_c, 5, 76, 0
14, 13800, Note_on_c, 5, 74, 88
14, 13860, Note_on_c, 5, 74, 0
14, 13860, Note_on_c, 5, 72, 85
14, 13920, Note_on_c, 5, 72, 0
14, 13920, Note_on_c, 5, 76, 90
14, 14160, Note_on_c, 5, 76, 0
14, 14160, Note_on_c, 5, 76, 88
14, 14340, Note_on_c, 5, 76, 0
14, 14340, Note_on_c, 5, 76, 84
14, 14400, Note_on_c, 5, 76, 0
14, 14400, Note_on_c, 5, 72, 91
14, 14820, Note_on_c, 5, 72, 0
14, 14820, Note_on_c, 5, 71, 85
14, 14850, Note_on_c, 5, 71, 0
14, 14850, Note_on_c, 5, 69, 85
14, 14880, Note_on_c, 5, 69, 0
14, 14880, Note_on_c, 5, 72, 90
14, 15300, Note_on_c, 5, 72, 0
14, 15300, Note_on_c, 5, 71, 84
14, 15330, Note_on_c, 5, 71, 0
14, 15330, Note_on_c, 5, 69, 83
14, 15360, Note_on_c, 5, 69, 0
14, 15360, Note_on_c, 5, 72, 91
14, 15720, Note_on_c, 5, 72, 0
14, 15720, Note_on_c, 5, 70, 88
14, 15780, Note_on_c, 5, 70, 0
14, 15780, Note_on_c, 5, 68, 85
14, 15840, Note_on_c, 5, 68, 0
14, 15840, Note_on_c, 5, 67, 90
14, 16080, Note_on_c, 5, 67, 0
14, 16080, Note_on_c, 5, 67, 88
14, 16260, Note_on_c, 5, 67, 0
14, 16260, Note_on_c, 5, 64, 84
14, 16320, Note_on_c, 5, 64, 0
14, 16320, Note_on_c, 5, 59, 91
14, 16740, Note_on_c, 5, 59, 0
14, 16740, Note_on_c, 5, 60, 85
14, 16770, Note_on_c, 5, 60, 0
14, 16770, Note_on_c, 5, 62, 85
14, 16800, Note_on_c, 5, 62, 0
14, 16800, Note_on_c, 5, 59, 90
14, 17220, Note_on_c, 5, 59, 0
14, 17220, Note_on_c, 5, 60, 84
14, 17250, Note_on_c, 5, 60, 0
14, 17250, Note_on_c, 5, 62, 83
14, 17280, Note_on_c, 5, 62, 0
14, 17280, Note_on_c, 5, 64, 91
14, 17700, Note_on_c, 5, 64, 0
14, 17700, Note_on_c, 5, 65, 85
14, 17730, Note_on_c, 5, 65, 0
14, 17730, Note_on_c, 5, 67, 85
14, 17760, Note_on_c, 5, 67, 0
14, 17760, Note_on_c, 5, 64, 90
14, 18120, Note_on_c, 5, 64, 0
14, 18120, Note_on_c, 5, 62, 90
14, 18180, Note_on_c, 5, 62, 0
14, 18180, Note_on_c, 5, 60, 84
14, 18240, Note_on_c, 5, 60, 0
14, 18240, Note_on_c, 5, 67, 91
14, 18840, Note_on_c, 5, 67, 0
14, 18960, Note_on_c, 5, 67, 88
14, 19140, Note_on_c, 5, 67, 0
14, 19140, Note_on_c, 5, 64, 84
14, 19200, Note_on_c, 5, 64, 0
14, 19200, Note_on_c, 5, 59, 91
14, 19620, Note_on_c, 5, 59, 0
14, 19620, Note_on_c, 5, 60, 85
14, 19650, Note_on_c, 5, 60, 0
14, 19650, Note_on_c, 5, 62, 85
14, 19680, Note_on_c, 5, 62, 0
14, 19680, Note_on_c, 5, 59, 90
14, 20100, Note_on_c, 5, 59, 0
14, 20100, Note_on_c, 5, 60, 84
14, 20130, Note_on_c, 5, 60, 0
14, 20130, Note_on_c, 5, 62, 83
14, 20160, Note_on_c, 5, 62, 0
14, 20160, Note_on_c, 5, 64, 91
14, 20580, Note_on_c, 5, 64, 0
14, 20580, Note_on_c, 5, 65, 85
14, 20610, Note_on_c, 5, 65, 0
14, 20610, Note_on_c, 5, 67, 85
14, 20640, Note_on_c, 5, 67, 0
14, 20640, Note_on_c, 5, 64, 90
14, 21000, Note_on_c, 5, 64, 0
14, 21000, Note_on_c, 5, 62, 90
14, 21120, Note_on_c, 5, 62, 0
14, 21120, Note_on_c, 5, 67, 91
14, 21540, Note_on_c, 5, 67, 0
14, 21540, Note_on_c, 5, 67, 85
14, 21570, Note_on_c, 5, 67, 0
14, 21570, Note_on_c, 5, 65, 85
14, 21600, Note_on_c, 5, 65, 0
14, 21600, Note_on_c, 5, 67, 90
14, 22020, Note_on_c, 5, 67, 0
14, 22020, Note_on_c, 5, 69, 84
14, 22050, Note_on_c, 5, 69, 0
14, 22050, Note_on_c, 5, 70, 83
14, 22080, Note_on_c, 5, 70, 0
14, 22080, Note_on_c, 5, 67, 91
14, 22380, Note_on_c, 5, 67, 0
14, 22380, Note_on_c, 5, 65, 84
14, 22440, Note_on_c, 5, 65, 0
14, 22440, Note_on_c, 5, 64, 88
14, 22500, Note_on_c, 5, 64, 0
14, 22500, Note_on_c, 5, 67, 85
14, 22560, Note_on_c, 5, 67, 0
14, 22560, Note_on_c, 5, 65, 90
14, 22740, Note_on_c, 5, 65, 0
14, 22740, Note_on_c, 5, 64, 85
14, 22800, Note_on_c, 5, 64, 0
14, 22800, Note_on_c, 5, 62, 88
14, 22920, Note_on_c, 5, 62, 0
14, 22920, Note_on_c, 5, 67, 90
14, 23010, Note_on_c, 5, 67, 0
14, 23010, Note_on_c, 5, 64, 83
14, 23040, Note_on_c, 5, 64, 0
14, 23040, Note_on_c, 5, 59, 91
14, 23460, Note_on_c, 5, 59, 0
14, 23460, Note_on_c, 5, 60, 85
14, 23490, Note_on_c, 5, 60, 0
14, 23490, Note_on_c, 5, 62, 85
14, 23520, Note_on_c, 5, 62, 0
14, 23520, Note_on_c, 5, 59, 90
14, 23940, Note_on_c, 5, 59, 0
14, 23940, Note_on_c, 5, 60, 84
14, 23970, Note_on_c, 5, 60, 0
14, 23970, Note_on_c, 5, 62, 83
14, 24000, Note_on_c, 5, 62, 0
14, 24000, Note_on_c, 5, 64, 91
14, 24420, Note_on_c, 5, 64, 0
14, 24420, Note_on_c, 5, 65, 85
14, 24450, Note_on_c, 5, 65, 0
14, 24450, Note_on_c, 5, 67, 85
14, 24480, Note_on_c, 5, 67, 0
14, 24480, Note_on_c, 5, 64, 90
14, 24840, Note_on_c, 5, 64, 0
14, 24840, Note_on_c, 5, 62, 90
14, 24960, Note_on_c, 5, 62, 0
14, 24960, Note_on_c, 5, 67, 91
14, 25380, Note_on_c, 5, 67, 0
14, 25380, Note_on_c, 5, 67, 85
14, 25410, Note_on_c, 5, 67, 0
14, 25410, Note_on_c, 5, 65, 85
14, 25440, Note_on_c, 5, 65, 0
14, 25440, Note_on_c, 5, 67, 90
14, 25860, Note_on_c, 5, 67, 0
14, 25860, Note_on_c, 5, 69, 84
14, 25890, Note_on_c, 5, 69, 0
14, 25890, Note_on_c, 5, 70, 83
14, 25920, Note_on_c, 5, 70, 0
14, 25920, Note_on_c, 5, 67, 91
14, 26340, Note_on_c, 5, 67, 0
14, 26340, Note_on_c, 5, 65, 85
14, 26370, Note_on_c, 5, 65, 0
14, 26370, Note_on_c, 5, 64, 85
14, 26400, Note_on_c, 5, 64, 0
14, 26400, Note_on_c, 5, 69, 90
14, 26760, Note_on_c, 5, 69, 0
14, 26820, Note_on_c, 5, 69, 84
14, 26880, Note_on_c, 5, 69, 0
14, 26880, Note_on_c, 5, 69, 91
14, 27240, Note_on_c, 5, 69, 0
14, 27240, Note_on_c, 5, 69, 88
14, 27280, Note_on_c, 5, 69, 0
14, 27280, Note_on_c, 5, 70, 82
14, 27320, Note_on_c, 5, 70, 0
14, 27320, Note_on_c, 5, 69, 85
14, 27360, Note_on_c, 5, 69, 0
14, 27360, Note_on_c, 5, 71, 90
14, 27720, Note_on_c, 5, 71, 0
14, 27720, Note_on_c, 5, 64, 90
14, 27760, Note_on_c, 5, 64, 0
14, 27760, Note_on_c, 5, 64, 82
14, 27800, Note_on_c, 5, 64, 0
14, 27800, Note_on_c, 5, 64, 83
14, 27840, Note_on_c, 5, 64, 0
14, 27840, Note_on_c, 5, 72, 91
14, 28200, Note_on_c, 5, 72, 0
14, 28200, Note_on_c, 5, 72, 88
14, 28240, Note_on_c, 5, 72, 0
14, 28240, Note_on_c, 5, 74, 82
14, 28280, Note_on_c, 5, 74, 0
14, 28280, Note_on_c, 5, 72, 85
14, 28320, Note_on_c, 5, 72, 0
14, 28320, Note_on_c, 5, 74, 90
14, 28680, Note_on_c, 5, 74, 0
14, 28680, Note_on_c, 5, 72, 90
14, 28740, Note_on_c, 5, 72, 0
14, 28740, Note_on_c, 5, 74, 84
14, 28800, Note_on_c, 5, 74, 0
14, 28800, Note_on_c, 5, 76, 91
14, 29160, Note_on_c, 5, 76, 0
14, 29160, Note_on_c, 5, 74, 88
14, 29220, Note_on_c, 5, 74, 0
14, 29220, Note_on_c, 5, 72, 85
14, 29280, Note_on_c, 5, 72, 0
14, 29280, Note_on_c, 5, 76, 90
14, 29640, Note_on_c, 5, 76, 0
14, 29640, Note_on_c, 5, 72, 90
14, 29700, Note_on_c, 5, 72, 0
14, 29700, Note_on_c, 5, 74, 84
14, 29760, Note_on_c, 5, 74, 0
14, 29760, Note_on_c, 5, 76, 91
14, 30120, Note_on_c, 5, 76, 0
14, 30120, Note_on_c, 5, 74, 88
14, 30180, Note_on_c, 5, 74, 0
14, 30180, Note_on_c, 5, 72, 85
14, 30240, Note_on_c, 5, 72, 0
14, 30240, Note_on_c, 5, 76, 90
14, 30480, Note_on_c, 5, 76, 0
14, 30480, Note_on_c, 5, 76, 88
14, 30660, Note_on_c, 5, 76, 0
14, 30660, Note_on_c, 5, 76, 84
14, 30720, Note_on_c, 5, 76, 0
14, 30720, Note_on_c, 5, 72, 91
14, 31140, Note_on_c, 5, 72, 0
14, 31140, Note_on_c, 5, 71, 85
14, 31170, Note_on_c, 5, 71, 0
14, 31170, Note_on_c, 5, 69, 85
14, 31200, Note_on_c, 5, 69, 0
14, 31200, Note_on_c, 5, 72, 90
14, 31620, Note_on_c, 5, 72, 0
14, 31620, Note_on_c, 5, 71, 84
14, 31650, Note_on_c, 5, 71, 0
14, 31650, Note_on_c, 5, 69, 83
14, 31680, Note_on_c, 5, 69, 0
14, 31680, Note_on_c, 5, 72, 91
14, 32040, Note_on_c, 5, 72, 0
14, 32040, Note_on_c, 5, 70, 88
14, 32100, Note_on_c, 5, 70, 0
14, 32100, Note_on_c, 5, 68, 85
14, 32160, Note_on_c, 5, 68, 0
14, 32160, Note_on_c, 5, 67, 90
14, 32400, Note_on_c, 5, 67, 0
14, 32400, Note_on_c, 5, 67, 88
14, 32580, Note_on_c, 5, 67, 0
14, 32580, Note_on_c, 5, 64, 84
14, 32640, Note_on_c, 5, 64, 0
14, 32640, Note_on_c, 5, 59, 91
14, 33060, Note_on_c, 5, 59, 0
14, 33060, Note_on_c, 5, 60, 85
14, 33090, Note_on_c, 5, 60, 0
14, 33090, Note_on_c, 5, 62, 85
14, 33120, Note_on_c, 5, 62, 0
14, 33120, Note_on_c, 5, 59, 90
14, 33540, Note_on_c, 5, 59, 0
14, 33540, Note_on_c, 5, 60, 84
14, 33570, Note_on_c, 5, 60, 0
14, 33570, Note_on_c, 5, 62, 83
14, 33600, Note_on_c, 5, 62, 0
14, 33600, Note_on_c, 5, 64, 91
14, 34020, Note_on_c, 5, 64, 0
14, 34020, Note_on_c, 5, 65, 85
14, 34050, Note_on_c, 5, 65, 0
14, 34050, Note_on_c, 5, 67, 85
14, 34080, Note_on_c, 5, 67, 0
14, 34080, Note_on_c, 5, 64, 90
14, 34440, Note_on_c, 5, 64, 0
14, 34440, Note_on_c, 5, 62, 90
14, 34500, Note_on_c, 5, 62, 0
14, 34500, Note_on_c, 5, 60, 84
14, 34560, Note_on_c, 5, 60, 0
14, 34560, Note_on_c, 5, 67, 91
14, 35400, Note_on_c, 5, 67, 0
14, 35400, End_track
15, 0, Start_track
15, 0, MIDI_port, 0
15, 0, Title_t, "Melody 2"
15, 0, Program_c, 6, 42
15, 0, Control_c, 6, 7, 84
15, 0, Control_c, 6, 10, 49
15, 0, Control_c, 6, 121, 0
15, 0, Control_c, 6, 123, 0
15, 0, Control_c, 6, 1, 25
15, 0, Control_c, 6, 91, 40
15, 0, Control_c, 6, 93, 60
15, 960, Note_on_c, 6, 76, 91
15, 1320, Note_on_c, 6, 76, 0
15, 1320, Note_on_c, 6, 76, 88
15, 1350, Note_on_c, 6, 76, 0
15, 1350, Note_on_c, 6, 72, 83
15, 1380, Note_on_c, 6, 72, 0
15, 1380, Note_on_c, 6, 69, 85
15, 1410, Note_on_c, 6, 69, 0
15, 1410, Note_on_c, 6, 65, 86
15, 1440, Note_on_c, 6, 65, 0
15, 1440, Note_on_c, 6, 74, 91
15, 1800, Note_on_c, 6, 74, 0
15, 1800, Note_on_c, 6, 74, 91
15, 1830, Note_on_c, 6, 74, 0
15, 1830, Note_on_c, 6, 71, 82
15, 1860, Note_on_c, 6, 71, 0
15, 1860, Note_on_c, 6, 67, 84
15, 1890, Note_on_c, 6, 67, 0
15, 1890, Note_on_c, 6, 64, 84
15, 1920, Note_on_c, 6, 64, 0
15, 1920, Note_on_c, 6, 72, 91
15, 2040, Note_on_c, 6, 72, 0
15, 2040, Note_on_c, 6, 72, 89
15, 2070, Note_on_c, 6, 72, 0
15, 2070, Note_on_c, 6, 69, 82
15, 2100, Note_on_c, 6, 69, 0
15, 2100, Note_on_c, 6, 65, 85
15, 2130, Note_on_c, 6, 65, 0
15, 2130, Note_on_c, 6, 62, 88
15, 2160, Note_on_c, 6, 62, 0
15, 2160, Note_on_c, 6, 71, 89
15, 2280, Note_on_c, 6, 71, 0
15, 2280, Note_on_c, 6, 71, 88
15, 2310, Note_on_c, 6, 71, 0
15, 2310, Note_on_c, 6, 67, 83
15, 2340, Note_on_c, 6, 67, 0
15, 2340, Note_on_c, 6, 64, 85
15, 2370, Note_on_c, 6, 64, 0
15, 2370, Note_on_c, 6, 60, 86
15, 2400, Note_on_c, 6, 60, 0
15, 2400, Note_on_c, 6, 59, 91
15, 2400, Note_on_c, 6, 69, 91
15, 2640, Note_on_c, 6, 69, 0
15, 2640, Note_on_c, 6, 59, 0
15, 2643, Note_on_c, 6, 64, 88
15, 2644, Note_on_c, 6, 67, 88
15, 2823, Note_on_c, 6, 64, 0
15, 2823, Note_on_c, 6, 64, 84
15, 2824, Note_on_c, 6, 67, 0
15, 2880, Control_c, 6, 11, 122
15, 2880, Control_c, 6, 93, 40
15, 2880, Note_on_c, 6, 59, 85
15, 2883, Note_on_c, 6, 64, 0
15, 3300, Note_on_c, 6, 59, 0
15, 3300, Note_on_c, 6, 60, 79
15, 3330, Note_on_c, 6, 60, 0
15, 3330, Note_on_c, 6, 62, 80
15, 3360, Note_on_c, 6, 62, 0
15, 3360, Note_on_c, 6, 59, 85
15, 3780, Note_on_c, 6, 59, 0
15, 3780, Note_on_c, 6, 60, 78
15, 3810, Note_on_c, 6, 60, 0
15, 3810, Note_on_c, 6, 62, 78
15, 3840, Note_on_c, 6, 62, 0
15, 3840, Note_on_c, 6, 53, 85
15, 3852, Note_on_c, 6, 53, 0
15, 3852, Note_on_c, 6, 60, 85
15, 3864, Note_on_c, 6, 60, 0
15, 3864, Note_on_c, 6, 64, 77
15, 4260, Note_on_c, 6, 64, 0
15, 4260, Note_on_c, 6, 65, 79
15, 4290, Note_on_c, 6, 65, 0
15, 4290, Note_on_c, 6, 67, 80
15, 4300, Control_c, 6, 11, 101
15, 4320, Note_on_c, 6, 67, 0
15, 4320, Note_on_c, 6, 53, 85
15, 4320, Note_on_c, 6, 59, 85
15, 4320, Note_on_c, 6, 64, 85
15, 4680, Note_on_c, 6, 64, 0
15, 4680, Note_on_c, 6, 59, 0
15, 4680, Note_on_c, 6, 53, 0
15, 4680, Note_on_c, 6, 62, 85
15, 4800, Note_on_c, 6, 62, 0
15, 4800, Note_on_c, 6, 64, 85
15, 4800, Note_on_c, 6, 67, 85
15, 4840, Control_c, 6, 11, 108
15, 5220, Note_on_c, 6, 67, 0
15, 5220, Note_on_c, 6, 64, 0
15, 5220, Note_on_c, 6, 67, 79
15, 5250, Note_on_c, 6, 67, 0
15, 5250, Note_on_c, 6, 65, 80
15, 5280, Note_on_c, 6, 65, 0
15, 5280, Note_on_c, 6, 62, 85
15, 5280, Note_on_c, 6, 67, 85
15, 5700, Note_on_c, 6, 67, 0
15, 5700, Note_on_c, 6, 62, 0
15, 5700, Note_on_c, 6, 69, 78
15, 5730, Note_on_c, 6, 69, 0
15, 5730, Note_on_c, 6, 70, 78
15, 5760, Note_on_c, 6, 70, 0
15, 5760, Control_c, 6, 11, 110
15, 5760, Note_on_c, 6, 67, 85
15, 6060, Note_on_c, 6, 67, 0
15, 6060, Note_on_c, 6, 65, 79
15, 6120, Note_on_c, 6, 65, 0
15, 6120, Note_on_c, 6, 64, 82
15, 6180, Note_on_c, 6, 64, 0
15, 6180, Note_on_c, 6, 67, 79
15, 6240, Note_on_c, 6, 67, 0
15, 6240, Note_on_c, 6, 65, 85
15, 6420, Note_on_c, 6, 65, 0
15, 6420, Note_on_c, 6, 64, 80
15, 6480, Note_on_c, 6, 64, 0
15, 6480, Note_on_c, 6, 62, 82
15, 6600, Note_on_c, 6, 62, 0
15, 6600, Note_on_c, 6, 64, 85
15, 6600, Note_on_c, 6, 67, 85
15, 6690, Note_on_c, 6, 67, 0
15, 6690, Note_on_c, 6, 64, 0
15, 6690, Note_on_c, 6, 64, 78
15, 6720, Note_on_c, 6, 64, 0
15, 6720, Note_on_c, 6, 59, 85
15, 7140, Note_on_c, 6, 59, 0
15, 7140, Note_on_c, 6, 60, 79
15, 7170, Note_on_c, 6, 60, 0
15, 7170, Note_on_c, 6, 62, 80
15, 7200, Note_on_c, 6, 62, 0
15, 7200, Note_on_c, 6, 59, 85
15, 7620, Note_on_c, 6, 59, 0
15, 7620, Note_on_c, 6, 60, 78
15, 7650, Note_on_c, 6, 60, 0
15, 7650, Note_on_c, 6, 62, 78
15, 7680, Note_on_c, 6, 62, 0
15, 7680, Note_on_c, 6, 53, 85
15, 7692, Note_on_c, 6, 53, 0
15, 7692, Note_on_c, 6, 60, 85
15, 7704, Note_on_c, 6, 60, 0
15, 7704, Note_on_c, 6, 64, 77
15, 8100, Note_on_c, 6, 64, 0
15, 8100, Note_on_c, 6, 65, 79
15, 8130, Note_on_c, 6, 65, 0
15, 8130, Note_on_c, 6, 67, 80
15, 8140, Control_c, 6, 11, 104
15, 8160, Note_on_c, 6, 67, 0
15, 8160, Note_on_c, 6, 53, 85
15, 8160, Note_on_c, 6, 59, 85
15, 8160, Note_on_c, 6, 64, 85
15, 8520, Note_on_c, 6, 64, 0
15, 8520, Note_on_c, 6, 59, 0
15, 8520, Note_on_c, 6, 53, 0
15, 8520, Note_on_c, 6, 62, 85
15, 8630, Control_c, 6, 11, 108
15, 8640, Note_on_c, 6, 62, 0
15, 8640, Note_on_c, 6, 64, 85
15, 8640, Note_on_c, 6, 67, 85
15, 9060, Note_on_c, 6, 67, 0
15, 9060, Note_on_c, 6, 64, 0
15, 9060, Note_on_c, 6, 67, 79
15, 9090, Note_on_c, 6, 67, 0
15, 9090, Note_on_c, 6, 65, 80
15, 9120, Note_on_c, 6, 65, 0
15, 9120, Note_on_c, 6, 62, 85
15, 9120, Note_on_c, 6, 67, 85
15, 9540, Note_on_c, 6, 67, 0
15, 9540, Note_on_c, 6, 62, 0
15, 9540, Note_on_c, 6, 69, 78
15, 9570, Note_on_c, 6, 69, 0
15, 9570, Note_on_c, 6, 70, 78
15, 9600, Note_on_c, 6, 70, 0
15, 9600, Note_on_c, 6, 67, 85
15, 10020, Note_on_c, 6, 67, 0
15, 10020, Note_on_c, 6, 65, 79
15, 10050, Note_on_c, 6, 65, 0
15, 10050, Note_on_c, 6, 64, 80
15, 10080, Note_on_c, 6, 64, 0
15, 10080, Note_on_c, 6, 61, 85
15, 10080, Note_on_c, 6, 67, 85
15, 10080, Note_on_c, 6, 69, 85
15, 10440, Note_on_c, 6, 69, 0
15, 10440, Note_on_c, 6, 67, 0
15, 10440, Note_on_c, 6, 61, 0
15, 10500, Note_on_c, 6, 69, 78
15, 10560, Note_on_c, 6, 69, 0
15, 10560, Note_on_c, 6, 69, 85
15, 10920, Note_on_c, 6, 69, 0
15, 10920, Note_on_c, 6, 69, 82
15, 10960, Note_on_c, 6, 69, 0
15, 10960, Note_on_c, 6, 70, 77
15, 11000, Note_on_c, 6, 70, 0
15, 11000, Note_on_c, 6, 69, 80
15, 11040, Note_on_c, 6, 69, 0
15, 11040, Note_on_c, 6, 71, 85
15, 11400, Note_on_c, 6, 71, 0
15, 11400, Note_on_c, 6, 64, 85
15, 11440, Note_on_c, 6, 64, 0
15, 11440, Note_on_c, 6, 64, 76
15, 11480, Note_on_c, 6, 64, 0
15, 11480, Note_on_c, 6, 64, 78
15, 11520, Note_on_c, 6, 64, 0
15, 11520, Note_on_c, 6, 72, 85
15, 11880, Note_on_c, 6, 72, 0
15, 11880, Note_on_c, 6, 72, 82
15, 11920, Note_on_c, 6, 72, 0
15, 11920, Note_on_c, 6, 74, 77
15, 11960, Note_on_c, 6, 74, 0
15, 11960, Note_on_c, 6, 72, 80
15, 12000, Note_on_c, 6, 72, 0
15, 12000, Note_on_c, 6, 74, 85
15, 12360, Note_on_c, 6, 74, 0
15, 12360, Note_on_c, 6, 72, 85
15, 12420, Note_on_c, 6, 72, 0
15, 12420, Note_on_c, 6, 74, 78
15, 12480, Note_on_c, 6, 74, 0
15, 12480, Note_on_c, 6, 72, 85
15, 12480, Note_on_c, 6, 76, 85
15, 12840, Note_on_c, 6, 76, 0
15, 12840, Note_on_c, 6, 72, 0
15, 12840, Note_on_c, 6, 74, 82
15, 12900, Note_on_c, 6, 74, 0
15, 12900, Note_on_c, 6, 72, 79
15, 12960, Note_on_c, 6, 72, 0
15, 12960, Note_on_c, 6, 72, 85
15, 12960, Note_on_c, 6, 76, 85
15, 13320, Note_on_c, 6, 76, 0
15, 13320, Note_on_c, 6, 72, 0
15, 13320, Note_on_c, 6, 72, 85
15, 13380, Note_on_c, 6, 72, 0
15, 13380, Note_on_c, 6, 74, 78
15, 13440, Note_on_c, 6, 74, 0
15, 13440, Note_on_c, 6, 72, 85
15, 13440, Note_on_c, 6, 76, 85
15, 13800, Note_on_c, 6, 76, 0
15, 13800, Note_on_c, 6, 72, 0
15, 13800, Note_on_c, 6, 74, 82
15, 13860, Note_on_c, 6, 74, 0
15, 13860, Note_on_c, 6, 72, 79
15, 13920, Note_on_c, 6, 72, 0
15, 13920, Note_on_c, 6, 65, 85
15, 13921, Note_on_c, 6, 69, 85
15, 13922, Note_on_c, 6, 72, 85
15, 13923, Note_on_c, 6, 76, 85
15, 13930, Control_c, 6, 11, 112
15, 14160, Note_on_c, 6, 65, 0
15, 14161, Note_on_c, 6, 69, 0
15, 14162, Note_on_c, 6, 72, 0
15, 14163, Note_on_c, 6, 76, 0
15, 14163, Note_on_c, 6, 76, 82
15, 14343, Note_on_c, 6, 76, 0
15, 14343, Note_on_c, 6, 76, 78
15, 14390, Control_c, 6, 11, 117
15, 14400, Note_on_c, 6, 64, 85
15, 14400, Note_on_c, 6, 67, 85
15, 14400, Note_on_c, 6, 72, 85
15, 14403, Note_on_c, 6, 76, 0
15, 14820, Note_on_c, 6, 64, 0
15, 14820, Note_on_c, 6, 67, 0
15, 14820, Note_on_c, 6, 72, 0
15, 14820, Note_on_c, 6, 71, 79
15, 14850, Note_on_c, 6, 71, 0
15, 14850, Note_on_c, 6, 69, 80
15, 14880, Note_on_c, 6, 69, 0
15, 14880, Note_on_c, 6, 64, 85
15, 14880, Note_on_c, 6, 69, 85
15, 14880, Note_on_c, 6, 72, 85
15, 15300, Note_on_c, 6, 72, 0
15, 15300, Note_on_c, 6, 69, 0
15, 15300, Note_on_c, 6, 64, 0
15, 15300, Note_on_c, 6, 71, 78
15, 15330, Note_on_c, 6, 71, 0
15, 15330, Note_on_c, 6, 69, 78
15, 15360, Note_on_c, 6, 69, 0
15, 15360, Note_on_c, 6, 68, 85
15, 15360, Note_on_c, 6, 72, 85
15, 15710, Control_c, 6, 11, 120
15, 15720, Note_on_c, 6, 72, 0
15, 15720, Note_on_c, 6, 68, 0
15, 15720, Note_on_c, 6, 67, 82
15, 15720, Note_on_c, 6, 70, 82
15, 15780, Note_on_c, 6, 70, 0
15, 15780, Note_on_c, 6, 67, 0
15, 15780, Note_on_c, 6, 65, 79
15, 15780, Note_on_c, 6, 68, 79
15, 15840, Note_on_c, 6, 68, 0
15, 15840, Note_on_c, 6, 65, 0
15, 15840, Note_on_c, 6, 67, 85
15, 16080, Note_on_c, 6, 67, 0
15, 16080, Note_on_c, 6, 64, 82
15, 16080, Note_on_c, 6, 67, 82
15, 16260, Note_on_c, 6, 67, 0
15, 16260, Note_on_c, 6, 64, 0
15, 16260, Note_on_c, 6, 64, 78
15, 16320, Note_on_c, 6, 64, 0
15, 16320, Note_on_c, 6, 59, 85
15, 16740, Note_on_c, 6, 59, 0
15, 16740, Note_on_c, 6, 60, 79
15, 16770, Note_on_c, 6, 60, 0
15, 16770, Note_on_c, 6, 62, 80
15, 16800, Note_on_c, 6, 62, 0
15, 16800, Note_on_c, 6, 59, 85
15, 17220, Note_on_c, 6, 59, 0
15, 17220, Note_on_c, 6, 60, 78
15, 17250, Note_on_c, 6, 60, 0
15, 17250, Note_on_c, 6, 62, 78
15, 17280, Note_on_c, 6, 62, 0
15, 17280, Note_on_c, 6, 53, 85
15, 17292, Note_on_c, 6, 53, 0
15, 17292, Note_on_c, 6, 60, 85
15, 17304, Note_on_c, 6, 60, 0
15, 17304, Note_on_c, 6, 64, 77
15, 17700, Note_on_c, 6, 64, 0
15, 17700, Note_on_c, 6, 65, 79
15, 17730, Note_on_c, 6, 65, 0
15, 17730, Note_on_c, 6, 67, 80
15, 17760, Note_on_c, 6, 67, 0
15, 17760, Note_on_c, 6, 64, 85
15, 18120, Note_on_c, 6, 64, 0
15, 18120, Note_on_c, 6, 62, 85
15, 18180, Note_on_c, 6, 62, 0
15, 18180, Note_on_c, 6, 60, 78
15, 18230, Control_c, 6, 11, 109
15, 18240, Note_on_c, 6, 60, 0
15, 18240, Control_c, 6, 11, 110
15, 18240, Note_on_c, 6, 64, 85
15, 18240, Note_on_c, 6, 67, 85
15, 18480, Note_on_c, 6, 67, 0
15, 18480, Note_on_c, 6, 64, 0
15, 18540, Note_on_c, 6, 71, 79
15, 18660, Note_on_c, 6, 71, 0
15, 18660, Note_on_c, 6, 69, 79
15, 18710, Control_c, 6, 11, 98
15, 18720, Note_on_c, 6, 69, 0
15, 18720, Control_c, 6, 11, 99
15, 18720, Note_on_c, 6, 69, 85
15, 18721, Note_on_c, 6, 72, 85
15, 18722, Note_on_c, 6, 76, 85
15, 18723, Note_on_c, 6, 79, 85
15, 18730, Control_c, 6, 11, 100
15, 18960, Note_on_c, 6, 69, 0
15, 18960, Note_on_c, 6, 64, 82
15, 18960, Note_on_c, 6, 67, 82
15, 18961, Note_on_c, 6, 72, 0
15, 18962, Note_on_c, 6, 76, 0
15, 18963, Note_on_c, 6, 79, 0
15, 19010, Control_c, 6, 11, 126
15, 19140, Note_on_c, 6, 67, 0
15, 19140, Note_on_c, 6, 64, 0
15, 19140, Note_on_c, 6, 64, 78
15, 19200, Note_on_c, 6, 64, 0
15, 19200, Note_on_c, 6, 59, 85
15, 19620, Note_on_c, 6, 59, 0
15, 19620, Note_on_c, 6, 60, 79
15, 19650, Note_on_c, 6, 60, 0
15, 19650, Note_on_c, 6, 62, 80
15, 19680, Note_on_c, 6, 62, 0
15, 19680, Note_on_c, 6, 59, 85
15, 20100, Note_on_c, 6, 59, 0
15, 20100, Note_on_c, 6, 60, 78
15, 20130, Note_on_c, 6, 60, 0
15, 20130, Note_on_c, 6, 62, 78
15, 20160, Note_on_c, 6, 62, 0
15, 20160, Note_on_c, 6, 53, 85
15, 20172, Note_on_c, 6, 53, 0
15, 20173, Note_on_c, 6, 60, 85
15, 20184, Note_on_c, 6, 64, 77
15, 20185, Note_on_c, 6, 60, 0
15, 20580, Note_on_c, 6, 64, 0
15, 20580, Note_on_c, 6, 65, 79
15, 20610, Note_on_c, 6, 65, 0
15, 20610, Note_on_c, 6, 67, 80
15, 20640, Note_on_c, 6, 67, 0
15, 20640, Note_on_c, 6, 53, 85
15, 20640, Note_on_c, 6, 59, 85
15, 20640, Note_on_c, 6, 64, 85
15, 21000, Note_on_c, 6, 64, 0
15, 21000, Note_on_c, 6, 59, 0
15, 21000, Note_on_c, 6, 53, 0
15, 21000, Note_on_c, 6, 62, 85
15, 21120, Note_on_c, 6, 62, 0
15, 21120, Note_on_c, 6, 64, 85
15, 21120, Note_on_c, 6, 67, 85
15, 21540, Note_on_c, 6, 67, 0
15, 21540, Note_on_c, 6, 64, 0
15, 21540, Note_on_c, 6, 67, 79
15, 21570, Note_on_c, 6, 67, 0
15, 21570, Note_on_c, 6, 65, 80
15, 21600, Note_on_c, 6, 65, 0
15, 21600, Note_on_c, 6, 62, 85
15, 21600, Note_on_c, 6, 67, 85
15, 22020, Note_on_c, 6, 67, 0
15, 22020, Note_on_c, 6, 62, 0
15, 22020, Note_on_c, 6, 69, 78
15, 22050, Note_on_c, 6, 69, 0
15, 22050, Note_on_c, 6, 70, 78
15, 22080, Note_on_c, 6, 70, 0
15, 22080, Note_on_c, 6, 67, 85
15, 22380, Note_on_c, 6, 67, 0
15, 22380, Note_on_c, 6, 65, 79
15, 22440, Note_on_c, 6, 65, 0
15, 22440, Note_on_c, 6, 64, 82
15, 22500, Note_on_c, 6, 64, 0
15, 22500, Note_on_c, 6, 67, 79
15, 22560, Note_on_c, 6, 67, 0
15, 22560, Note_on_c, 6, 65, 85
15, 22740, Note_on_c, 6, 65, 0
15, 22740, Note_on_c, 6, 64, 80
15, 22800, Note_on_c, 6, 64, 0
15, 22800, Note_on_c, 6, 62, 82
15, 22920, Note_on_c, 6, 62, 0
15, 22920, Note_on_c, 6, 64, 85
15, 22920, Note_on_c, 6, 67, 85
15, 23010, Note_on_c, 6, 67, 0
15, 23010, Note_on_c, 6, 64, 0
15, 23010, Note_on_c, 6, 64, 78
15, 23040, Note_on_c, 6, 64, 0
15, 23040, Note_on_c, 6, 59, 85
15, 23460, Note_on_c, 6, 59, 0
15, 23460, Note_on_c, 6, 60, 79
15, 23490, Note_on_c, 6, 60, 0
15, 23490, Note_on_c, 6, 62, 80
15, 23520, Note_on_c, 6, 62, 0
15, 23520, Note_on_c, 6, 59, 85
15, 23940, Note_on_c, 6, 59, 0
15, 23940, Note_on_c, 6, 60, 78
15, 23970, Note_on_c, 6, 60, 0
15, 23970, Note_on_c, 6, 62, 78
15, 24000, Note_on_c, 6, 62, 0
15, 24000, Note_on_c, 6, 53, 85
15, 24012, Note_on_c, 6, 53, 0
15, 24012, Note_on_c, 6, 60, 85
15, 24024, Note_on_c, 6, 60, 0
15, 24024, Note_on_c, 6, 64, 77
15, 24420, Note_on_c, 6, 64, 0
15, 24420, Note_on_c, 6, 65, 79
15, 24450, Note_on_c, 6, 65, 0
15, 24450, Note_on_c, 6, 67, 80
15, 24480, Note_on_c, 6, 67, 0
15, 24480, Note_on_c, 6, 53, 85
15, 24480, Note_on_c, 6, 59, 85
15, 24480, Note_on_c, 6, 64, 85
15, 24840, Note_on_c, 6, 64, 0
15, 24840, Note_on_c, 6, 59, 0
15, 24840, Note_on_c, 6, 53, 0
15, 24840, Note_on_c, 6, 62, 85
15, 24960, Note_on_c, 6, 62, 0
15, 24960, Note_on_c, 6, 64, 85
15, 24960, Note_on_c, 6, 67, 85
15, 25380, Note_on_c, 6, 67, 0
15, 25380, Note_on_c, 6, 64, 0
15, 25380, Note_on_c, 6, 67, 79
15, 25410, Note_on_c, 6, 67, 0
15, 25410, Note_on_c, 6, 65, 80
15, 25440, Note_on_c, 6, 65, 0
15, 25440, Note_on_c, 6, 62, 85
15, 25440, Note_on_c, 6, 67, 85
15, 25860, Note_on_c, 6, 67, 0
15, 25860, Note_on_c, 6, 62, 0
15, 25860, Note_on_c, 6, 69, 78
15, 25890, Note_on_c, 6, 69, 0
15, 25890, Note_on_c, 6, 70, 78
15, 25920, Note_on_c, 6, 70, 0
15, 25920, Note_on_c, 6, 67, 85
15, 26340, Note_on_c, 6, 67, 0
15, 26340, Note_on_c, 6, 65, 79
15, 26370, Note_on_c, 6, 65, 0
15, 26370, Note_on_c, 6, 64, 80
15, 26400, Note_on_c, 6, 64, 0
15, 26400, Note_on_c, 6, 61, 85
15, 26400, Note_on_c, 6, 67, 85
15, 26400, Note_on_c, 6, 69, 85
15, 26760, Note_on_c, 6, 69, 0
15, 26760, Note_on_c, 6, 67, 0
15, 26760, Note_on_c, 6, 61, 0
15, 26820, Note_on_c, 6, 69, 78
15, 26880, Note_on_c, 6, 69, 0
15, 26880, Note_on_c, 6, 69, 85
15, 27240, Note_on_c, 6, 69, 0
15, 27240, Note_on_c, 6, 69, 82
15, 27280, Note_on_c, 6, 69, 0
15, 27280, Note_on_c, 6, 70, 77
15, 27320, Note_on_c, 6, 70, 0
15, 27320, Note_on_c, 6, 69, 80
15, 27360, Note_on_c, 6, 69, 0
15, 27360, Note_on_c, 6, 71, 85
15, 27720, Note_on_c, 6, 71, 0
15, 27720, Note_on_c, 6, 64, 85
15, 27760, Note_on_c, 6, 64, 0
15, 27760, Note_on_c, 6, 64, 76
15, 27800, Note_on_c, 6, 64, 0
15, 27800, Note_on_c, 6, 64, 78
15, 27840, Note_on_c, 6, 64, 0
15, 27840, Note_on_c, 6, 72, 85
15, 28200, Note_on_c, 6, 72, 0
15, 28200, Note_on_c, 6, 72, 82
15, 28240, Note_on_c, 6, 72, 0
15, 28240, Note_on_c, 6, 74, 77
15, 28280, Note_on_c, 6, 74, 0
15, 28280, Note_on_c, 6, 72, 80
15, 28320, Note_on_c, 6, 72, 0
15, 28320, Note_on_c, 6, 74, 85
15, 28680, Note_on_c, 6, 74, 0
15, 28680, Note_on_c, 6, 72, 85
15, 28740, Note_on_c, 6, 72, 0
15, 28740, Note_on_c, 6, 74, 78
15, 28800, Note_on_c, 6, 74, 0
15, 28800, Note_on_c, 6, 72, 85
15, 28800, Note_on_c, 6, 76, 85
15, 29160, Note_on_c, 6, 76, 0
15, 29160, Note_on_c, 6, 72, 0
15, 29160, Note_on_c, 6, 74, 82
15, 29220, Note_on_c, 6, 74, 0
15, 29220, Note_on_c, 6, 72, 79
15, 29280, Note_on_c, 6, 72, 0
15, 29280, Note_on_c, 6, 72, 85
15, 29280, Note_on_c, 6, 76, 85
15, 29640, Note_on_c, 6, 76, 0
15, 29640, Note_on_c, 6, 72, 0
15, 29640, Note_on_c, 6, 72, 85
15, 29700, Note_on_c, 6, 72, 0
15, 29700, Note_on_c, 6, 74, 78
15, 29760, Note_on_c, 6, 74, 0
15, 29760, Note_on_c, 6, 72, 85
15, 29760, Note_on_c, 6, 76, 85
15, 30120, Note_on_c, 6, 76, 0
15, 30120, Note_on_c, 6, 72, 0
15, 30120, Note_on_c, 6, 74, 82
15, 30180, Note_on_c, 6, 74, 0
15, 30180, Note_on_c, 6, 72, 79
15, 30240, Note_on_c, 6, 72, 0
15, 30240, Note_on_c, 6, 65, 85
15, 30241, Note_on_c, 6, 69, 85
15, 30242, Note_on_c, 6, 72, 85
15, 30243, Note_on_c, 6, 76, 85
15, 30480, Note_on_c, 6, 65, 0
15, 30481, Note_on_c, 6, 69, 0
15, 30482, Note_on_c, 6, 72, 0
15, 30483, Note_on_c, 6, 76, 0
15, 30483, Note_on_c, 6, 76, 82
15, 30663, Note_on_c, 6, 76, 0
15, 30663, Note_on_c, 6, 76, 78
15, 30720, Note_on_c, 6, 64, 85
15, 30720, Note_on_c, 6, 67, 85
15, 30720, Note_on_c, 6, 72, 85
15, 30723, Note_on_c, 6, 76, 0
15, 31140, Note_on_c, 6, 64, 0
15, 31140, Note_on_c, 6, 67, 0
15, 31140, Note_on_c, 6, 72, 0
15, 31140, Note_on_c, 6, 71, 79
15, 31170, Note_on_c, 6, 71, 0
15, 31170, Note_on_c, 6, 69, 80
15, 31200, Note_on_c, 6, 69, 0
15, 31200, Note_on_c, 6, 64, 85
15, 31200, Note_on_c, 6, 69, 85
15, 31200, Note_on_c, 6, 72, 85
15, 31620, Note_on_c, 6, 72, 0
15, 31620, Note_on_c, 6, 69, 0
15, 31620, Note_on_c, 6, 64, 0
15, 31620, Note_on_c, 6, 71, 78
15, 31650, Note_on_c, 6, 71, 0
15, 31650, Note_on_c, 6, 69, 78
15, 31680, Note_on_c, 6, 69, 0
15, 31680, Note_on_c, 6, 68, 85
15, 31680, Note_on_c, 6, 72, 85
15, 32040, Note_on_c, 6, 72, 0
15, 32040, Note_on_c, 6, 68, 0
15, 32040, Note_on_c, 6, 67, 82
15, 32040, Note_on_c, 6, 70, 82
15, 32100, Note_on_c, 6, 70, 0
15, 32100, Note_on_c, 6, 67, 0
15, 32100, Note_on_c, 6, 65, 79
15, 32100, Note_on_c, 6, 68, 79
15, 32160, Note_on_c, 6, 68, 0
15, 32160, Note_on_c, 6, 65, 0
15, 32160, Note_on_c, 6, 67, 85
15, 32400, Note_on_c, 6, 67, 0
15, 32400, Note_on_c, 6, 64, 82
15, 32400, Note_on_c, 6, 67, 82
15, 32580, Note_on_c, 6, 67, 0
15, 32580, Note_on_c, 6, 64, 0
15, 32580, Note_on_c, 6, 64, 78
15, 32640, Note_on_c, 6, 64, 0
15, 32640, Note_on_c, 6, 59, 85
15, 33060, Note_on_c, 6, 59, 0
15, 33060, Note_on_c, 6, 60, 79
15, 33090, Note_on_c, 6, 60, 0
15, 33090, Note_on_c, 6, 62, 80
15, 33120, Note_on_c, 6, 62, 0
15, 33120, Note_on_c, 6, 59, 85
15, 33540, Note_on_c, 6, 59, 0
15, 33540, Note_on_c, 6, 60, 78
15, 33570, Note_on_c, 6, 60, 0
15, 33570, Note_on_c, 6, 62, 78
15, 33600, Note_on_c, 6, 62, 0
15, 33600, Note_on_c, 6, 53, 85
15, 33612, Note_on_c, 6, 53, 0
15, 33612, Note_on_c, 6, 60, 85
15, 33624, Note_on_c, 6, 60, 0
15, 33624, Note_on_c, 6, 64, 77
15, 34020, Note_on_c, 6, 64, 0
15, 34020, Note_on_c, 6, 65, 79
15, 34050, Note_on_c, 6, 65, 0
15, 34050, Note_on_c, 6, 67, 80
15, 34080, Note_on_c, 6, 67, 0
15, 34080, Note_on_c, 6, 64, 85
15, 34440, Note_on_c, 6, 64, 0
15, 34440, Note_on_c, 6, 62, 85
15, 34500, Note_on_c, 6, 62, 0
15, 34500, Note_on_c, 6, 60, 78
15, 34560, Note_on_c, 6, 60, 0
15, 34560, Note_on_c, 6, 64, 85
15, 34560, Note_on_c, 6, 67, 85
15, 34800, Note_on_c, 6, 67, 0
15, 34800, Note_on_c, 6, 64, 0
15, 34860, Note_on_c, 6, 71, 79
15, 34980, Note_on_c, 6, 71, 0
15, 34980, Note_on_c, 6, 69, 79
15, 35030, Control_c, 6, 11, 102
15, 35040, Note_on_c, 6, 69, 0
15, 35042, Note_on_c, 6, 76, 85
15, 35043, Note_on_c, 6, 79, 85
15, 35160, Note_on_c, 6, 67, 83
15, 35162, Note_on_c, 6, 76, 0
15, 35163, Note_on_c, 6, 79, 0
15, 35280, Note_on_c, 6, 67, 0
15, 35280, Note_on_c, 6, 67, 82
15, 35560, Note_on_c, 6, 67, 0
15, 35560, End_track
16, 0, Start_track
16, 0, MIDI_port, 0
16, 0, Title_t, "Melody 3"
16, 0, Program_c, 7, 78
16, 0, Control_c, 7, 7, 82
16, 0, Control_c, 7, 10, 39
16, 0, Control_c, 7, 121, 0
16, 0, Control_c, 7, 123, 0
16, 0, Control_c, 7, 1, 40
16, 0, Control_c, 7, 91, 60
16, 0, Control_c, 7, 93, 60
16, 2400, Note_on_c, 7, 64, 91
16, 2460, Note_on_c, 7, 64, 0
16, 2460, Note_on_c, 7, 61, 84
16, 2520, Note_on_c, 7, 61, 0
16, 2520, Note_on_c, 7, 61, 90
16, 2580, Note_on_c, 7, 61, 0
16, 2580, Note_on_c, 7, 62, 86
16, 2640, Note_on_c, 7, 62, 0
16, 2642, Note_on_c, 7, 59, 88
16, 2882, Note_on_c, 7, 59, 0
16, 5760, Note_on_c, 7, 61, 91
16, 6120, Note_on_c, 7, 61, 0
16, 6120, Note_on_c, 7, 61, 89
16, 6240, Note_on_c, 7, 61, 0
16, 6300, Note_on_c, 7, 56, 84
16, 6360, Note_on_c, 7, 60, 90
16, 6480, Note_on_c, 7, 60, 0
16, 6480, Note_on_c, 7, 56, 0
16, 6480, Note_on_c, 7, 57, 88
16, 6540, Note_on_c, 7, 57, 0
16, 6540, Note_on_c, 7, 60, 86
16, 6600, Note_on_c, 7, 60, 0
16, 6600, Note_on_c, 7, 59, 91
16, 6720, Note_on_c, 7, 59, 0
16, 9600, Note_on_c, 7, 61, 91
16, 10080, Note_on_c, 7, 61, 0
16, 10560, Note_on_c, 7, 62, 91
16, 10560, Note_on_c, 7, 65, 91
16, 10920, Note_on_c, 7, 65, 0
16, 10920, Note_on_c, 7, 62, 0
16, 10920, Note_on_c, 7, 65, 89
16, 10920, Note_on_c, 7, 62, 89
16, 11040, Note_on_c, 7, 62, 0
16, 11040, Note_on_c, 7, 65, 0
16, 11040, Note_on_c, 7, 68, 91
16, 11040, Note_on_c, 7, 62, 91
16, 11400, Note_on_c, 7, 62, 0
16, 11400, Note_on_c, 7, 68, 0
16, 11400, Note_on_c, 7, 62, 91
16, 11400, Note_on_c, 7, 56, 91
16, 11520, Note_on_c, 7, 56, 0
16, 11520, Note_on_c, 7, 62, 0
16, 11520, Note_on_c, 7, 64, 91
16, 11520, Note_on_c, 7, 69, 91
16, 11880, Note_on_c, 7, 69, 0
16, 11880, Note_on_c, 7, 64, 0
16, 11880, Note_on_c, 7, 69, 89
16, 11880, Note_on_c, 7, 64, 89
16, 12000, Note_on_c, 7, 64, 0
16, 12000, Note_on_c, 7, 69, 0
16, 12000, Note_on_c, 7, 72, 91
16, 12000, Note_on_c, 7, 68, 91
16, 12360, Note_on_c, 7, 68, 0
16, 12360, Note_on_c, 7, 72, 0
16, 12360, Note_on_c, 7, 62, 91
16, 12360, Note_on_c, 7, 68, 91
16, 12480, Note_on_c, 7, 68, 0
16, 12480, Note_on_c, 7, 62, 0
16, 12480, Note_on_c, 7, 67, 91
16, 12960, Note_on_c, 7, 67, 0
16, 12960, Note_on_c, 7, 68, 91
16, 13440, Note_on_c, 7, 68, 0
16, 13440, Note_on_c, 7, 69, 91
16, 13920, Note_on_c, 7, 69, 0
16, 14160, Note_on_c, 7, 71, 88
16, 14160, Note_on_c, 7, 65, 88
16, 14400, Note_on_c, 7, 65, 0
16, 14400, Note_on_c, 7, 71, 0
16, 15900, Note_on_c, 7, 57, 84
16, 15960, Note_on_c, 7, 57, 0
16, 15960, Note_on_c, 7, 60, 90
16, 16020, Note_on_c, 7, 60, 0
16, 16020, Note_on_c, 7, 65, 86
16, 16080, Note_on_c, 7, 65, 0
16, 16080, Note_on_c, 7, 59, 88
16, 16320, Note_on_c, 7, 59, 0
16, 17760, Note_on_c, 7, 53, 91
16, 17760, Note_on_c, 7, 57, 91
16, 17760, Note_on_c, 7, 60, 91
16, 17880, Note_on_c, 7, 60, 0
16, 17880, Note_on_c, 7, 57, 0
16, 17880, Note_on_c, 7, 53, 0
16, 17880, Note_on_c, 7, 53, 90
16, 17940, Note_on_c, 7, 53, 0
16, 17940, Note_on_c, 7, 57, 86
16, 18000, Note_on_c, 7, 57, 0
16, 18000, Note_on_c, 7, 60, 88
16, 18120, Note_on_c, 7, 60, 0
16, 18120, Note_on_c, 7, 59, 91
16, 18180, Note_on_c, 7, 59, 0
16, 18180, Note_on_c, 7, 57, 85
16, 18240, Note_on_c, 7, 57, 0
16, 18240, Note_on_c, 7, 62, 91
16, 18360, Note_on_c, 7, 62, 0
16, 18360, Note_on_c, 7, 60, 90
16, 18420, Note_on_c, 7, 60, 0
16, 18420, Note_on_c, 7, 59, 85
16, 18480, Note_on_c, 7, 59, 0
16, 18480, Note_on_c, 7, 60, 90
16, 18720, Note_on_c, 7, 60, 0
16, 18780, Note_on_c, 7, 45, 84
16, 18840, Note_on_c, 7, 45, 0
16, 18840, Note_on_c, 7, 53, 90
16, 18900, Note_on_c, 7, 53, 0
16, 18900, Note_on_c, 7, 57, 86
16, 18960, Note_on_c, 7, 57, 0
16, 18960, Note_on_c, 7, 59, 88
16, 19200, Note_on_c, 7, 59, 0
16, 22080, Note_on_c, 7, 61, 91
16, 22440, Note_on_c, 7, 61, 0
16, 22440, Note_on_c, 7, 61, 89
16, 22560, Note_on_c, 7, 61, 0
16, 22620, Note_on_c, 7, 56, 84
16, 22680, Note_on_c, 7, 60, 90
16, 22800, Note_on_c, 7, 60, 0
16, 22800, Note_on_c, 7, 56, 0
16, 22800, Note_on_c, 7, 57, 88
16, 22860, Note_on_c, 7, 57, 0
16, 22860, Note_on_c, 7, 60, 86
16, 22920, Note_on_c, 7, 60, 0
16, 22920, Note_on_c, 7, 59, 91
16, 23040, Note_on_c, 7, 59, 0
16, 25920, Note_on_c, 7, 61, 91
16, 26400, Note_on_c, 7, 61, 0
16, 26880, Note_on_c, 7, 62, 91
16, 26880, Note_on_c, 7, 65, 91
16, 27240, Note_on_c, 7, 65, 0
16, 27240, Note_on_c, 7, 62, 0
16, 27240, Note_on_c, 7, 65, 89
16, 27240, Note_on_c, 7, 62, 89
16, 27360, Note_on_c, 7, 62, 0
16, 27360, Note_on_c, 7, 65, 0
16, 27360, Note_on_c, 7, 68, 91
16, 27360, Note_on_c, 7, 62, 91
16, 27720, Note_on_c, 7, 62, 0
16, 27720, Note_on_c, 7, 68, 0
16, 27720, Note_on_c, 7, 62, 91
16, 27720, Note_on_c, 7, 56, 91
16, 27840, Note_on_c, 7, 56, 0
16, 27840, Note_on_c, 7, 62, 0
16, 27840, Note_on_c, 7, 64, 91
16, 27840, Note_on_c, 7, 69, 91
16, 28200, Note_on_c, 7, 69, 0
16, 28200, Note_on_c, 7, 64, 0
16, 28200, Note_on_c, 7, 69, 89
16, 28200, Note_on_c, 7, 64, 89
16, 28320, Note_on_c, 7, 64, 0
16, 28320, Note_on_c, 7, 69, 0
16, 28320, Note_on_c, 7, 72, 91
16, 28320, Note_on_c, 7, 68, 91
16, 28680, Note_on_c, 7, 68, 0
16, 28680, Note_on_c, 7, 72, 0
16, 28680, Note_on_c, 7, 62, 91
16, 28680, Note_on_c, 7, 68, 91
16, 28800, Note_on_c, 7, 68, 0
16, 28800, Note_on_c, 7, 62, 0
16, 28800, Note_on_c, 7, 67, 91
16, 29280, Note_on_c, 7, 67, 0
16, 29280, Note_on_c, 7, 68, 91
16, 29760, Note_on_c, 7, 68, 0
16, 29760, Note_on_c, 7, 69, 91
16, 30240, Note_on_c, 7, 69, 0
16, 30480, Note_on_c, 7, 71, 88
16, 30480, Note_on_c, 7, 65, 88
16, 30720, Note_on_c, 7, 65, 0
16, 30720, Note_on_c, 7, 71, 0
16, 32220, Note_on_c, 7, 57, 84
16, 32280, Note_on_c, 7, 57, 0
16, 32280, Note_on_c, 7, 60, 90
16, 32340, Note_on_c, 7, 60, 0
16, 32340, Note_on_c, 7, 65, 86
16, 32400, Note_on_c, 7, 65, 0
16, 32400, Note_on_c, 7, 59, 88
16, 32640, Note_on_c, 7, 59, 0
16, 34080, Note_on_c, 7, 53, 91
16, 34080, Note_on_c, 7, 57, 91
16, 34080, Note_on_c, 7, 60, 91
16, 34200, Note_on_c, 7, 60, 0
16, 34200, Note_on_c, 7, 57, 0
16, 34200, Note_on_c, 7, 53, 0
16, 34200, Note_on_c, 7, 53, 90
16, 34260, Note_on_c, 7, 53, 0
16, 34260, Note_on_c, 7, 57, 86
16, 34320, Note_on_c, 7, 57, 0
16, 34320, Note_on_c, 7, 60, 88
16, 34440, Note_on_c, 7, 60, 0
16, 34440, Note_on_c, 7, 59, 91
16, 34500, Note_on_c, 7, 59, 0
16, 34500, Note_on_c, 7, 57, 85
16, 34560, Note_on_c, 7, 57, 0
16, 34560, Note_on_c, 7, 62, 91
16, 34680, Note_on_c, 7, 62, 0
16, 34680, Note_on_c, 7, 60, 90
16, 34740, Note_on_c, 7, 60, 0
16, 34740, Note_on_c, 7, 59, 85
16, 34800, Note_on_c, 7, 59, 0
16, 34800, Note_on_c, 7, 60, 90
16, 35040, Note_on_c, 7, 60, 0
16, 35040, Note_on_c, 7, 69, 91
16, 35041, Note_on_c, 7, 72, 91
16, 35160, Note_on_c, 7, 69, 0
16, 35160, Note_on_c, 7, 59, 90
16, 35160, Note_on_c, 7, 64, 90
16, 35161, Note_on_c, 7, 72, 0
16, 35220, Note_on_c, 7, 64, 0
16, 35220, Note_on_c, 7, 59, 0
16, 35220, Note_on_c, 7, 58, 86
16, 35220, Note_on_c, 7, 63, 86
16, 35280, Note_on_c, 7, 63, 0
16, 35280, Note_on_c, 7, 58, 0
16, 35280, Note_on_c, 7, 57, 88
16, 35280, Note_on_c, 7, 62, 88
16, 35560, Note_on_c, 7, 62, 0
16, 35560, Note_on_c, 7, 57, 0
16, 35560, End_track
17, 0, Start_track
17, 0, MIDI_port, 0
17, 0, Title_t, "Melody Extra"
17, 0, Program_c, 8, 11
17, 0, Control_c, 8, 7, 80
17, 0, Control_c, 8, 10, 34
17, 0, Control_c, 8, 121, 0
17, 0, Control_c, 8, 123, 0
17, 0, Control_c, 8, 1, 0
17, 0, Control_c, 8, 91, 45
17, 0, Control_c, 8, 93, 45
17, 14160, Note_on_c, 8, 79, 96
17, 14340, Note_on_c, 8, 79, 0
17, 14340, Note_on_c, 8, 76, 98
17, 14400, Note_on_c, 8, 76, 0
17, 30480, Note_on_c, 8, 79, 96
17, 30660, Note_on_c, 8, 79, 0
17, 30660, Note_on_c, 8, 76, 98
17, 30720, Note_on_c, 8, 76, 0
17, 30720, End_track
18, 0, Start_track
18, 0, MIDI_port, 0
18, 0, Title_t, "Drums"
18, 0, Program_c, 9, 16
18, 0, Control_c, 9, 7, 95
18, 0, Control_c, 9, 10, 54
18, 0, Control_c, 9, 121, 0
18, 0, Control_c, 9, 123, 0
18, 0, Control_c, 9, 91, 40
18, 0, Control_c, 9, 93, 0
18, 960, Note_on_c, 9, 35, 60
18, 960, Note_on_c, 9, 42, 50
18, 961, Note_on_c, 9, 42, 0
18, 961, Note_on_c, 9, 35, 0
18, 1000, Note_on_c, 9, 42, 30
18, 1001, Note_on_c, 9, 42, 0
18, 1040, Note_on_c, 9, 42, 30
18, 1041, Note_on_c, 9, 42, 0
18, 1080, Note_on_c, 9, 42, 70
18, 1080, Note_on_c, 9, 37, 50
18, 1081, Note_on_c, 9, 37, 0
18, 1081, Note_on_c, 9, 42, 0
18, 1120, Note_on_c, 9, 42, 30
18, 1121, Note_on_c, 9, 42, 0
18, 1160, Note_on_c, 9, 35, 30
18, 1160, Note_on_c, 9, 42, 30
18, 1161, Note_on_c, 9, 42, 0
18, 1161, Note_on_c, 9, 35, 0
18, 1200, Note_on_c, 9, 35, 60
18, 1200, Note_on_c, 9, 42, 50
18, 1201, Note_on_c, 9, 42, 0
18, 1201, Note_on_c, 9, 35, 0
18, 1240, Note_on_c, 9, 42, 30
18, 1241, Note_on_c, 9, 42, 0
18, 1280, Note_on_c, 9, 42, 30
18, 1281, Note_on_c, 9, 42, 0
18, 1320, Note_on_c, 9, 42, 70
18, 1320, Note_on_c, 9, 37, 50
18, 1321, Note_on_c, 9, 37, 0
18, 1321, Note_on_c, 9, 42, 0
18, 1360, Note_on_c, 9, 42, 30
18, 1361, Note_on_c, 9, 42, 0
18, 1400, Note_on_c, 9, 42, 30
18, 1401, Note_on_c, 9, 42, 0
18, 1440, Note_on_c, 9, 35, 60
18, 1440, Note_on_c, 9, 42, 50
18, 1441, Note_on_c, 9, 42, 0
18, 1441, Note_on_c, 9, 35, 0
18, 1480, Note_on_c, 9, 42, 30
18, 1481, Note_on_c, 9, 42, 0
18, 1520, Note_on_c, 9, 42, 30
18, 1521, Note_on_c, 9, 42, 0
18, 1560, Note_on_c, 9, 42, 70
18, 1560, Note_on_c, 9, 37, 50
18, 1561, Note_on_c, 9, 37, 0
18, 1561, Note_on_c, 9, 42, 0
18, 1600, Note_on_c, 9, 42, 30
18, 1601, Note_on_c, 9, 42, 0
18, 1640, Note_on_c, 9, 35, 30
18, 1640, Note_on_c, 9, 42, 30
18, 1641, Note_on_c, 9, 42, 0
18, 1641, Note_on_c, 9, 35, 0
18, 1680, Note_on_c, 9, 35, 60
18, 1680, Note_on_c, 9, 42, 50
18, 1681, Note_on_c, 9, 42, 0
18, 1681, Note_on_c, 9, 35, 0
18, 1720, Note_on_c, 9, 42, 30
18, 1721, Note_on_c, 9, 42, 0
18, 1760, Note_on_c, 9, 42, 30
18, 1761, Note_on_c, 9, 42, 0
18, 1800, Note_on_c, 9, 42, 70
18, 1800, Note_on_c, 9, 37, 50
18, 1801, Note_on_c, 9, 37, 0
18, 1801, Note_on_c, 9, 42, 0
18, 1840, Note_on_c, 9, 42, 30
18, 1841, Note_on_c, 9, 42, 0
18, 1880, Note_on_c, 9, 46, 40
18, 1881, Note_on_c, 9, 46, 0
18, 1920, Note_on_c, 9, 35, 60
18, 1920, Note_on_c, 9, 42, 50
18, 1921, Note_on_c, 9, 42, 0
18, 1921, Note_on_c, 9, 35, 0
18, 1960, Note_on_c, 9, 42, 30
18, 1961, Note_on_c, 9, 42, 0
18, 2000, Note_on_c, 9, 42, 30
18, 2001, Note_on_c, 9, 42, 0
18, 2040, Note_on_c, 9, 42, 70
18, 2040, Note_on_c, 9, 37, 50
18, 2041, Note_on_c, 9, 37, 0
18, 2041, Note_on_c, 9, 42, 0
18, 2080, Note_on_c, 9, 42, 30
18, 2081, Note_on_c, 9, 42, 0
18, 2120, Note_on_c, 9, 35, 30
18, 2120, Note_on_c, 9, 42, 30
18, 2121, Note_on_c, 9, 42, 0
18, 2121, Note_on_c, 9, 35, 0
18, 2160, Note_on_c, 9, 35, 60
18, 2160, Note_on_c, 9, 42, 50
18, 2161, Note_on_c, 9, 42, 0
18, 2161, Note_on_c, 9, 35, 0
18, 2200, Note_on_c, 9, 42, 30
18, 2201, Note_on_c, 9, 42, 0
18, 2240, Note_on_c, 9, 42, 30
18, 2241, Note_on_c, 9, 42, 0
18, 2280, Note_on_c, 9, 42, 70
18, 2280, Note_on_c, 9, 37, 50
18, 2281, Note_on_c, 9, 37, 0
18, 2281, Note_on_c, 9, 42, 0
18, 2320, Note_on_c, 9, 42, 30
18, 2321, Note_on_c, 9, 42, 0
18, 2360, Note_on_c, 9, 46, 40
18, 2361, Note_on_c, 9, 46, 0
18, 2400, Note_on_c, 9, 35, 60
18, 2400, Note_on_c, 9, 42, 50
18, 2401, Note_on_c, 9, 42, 0
18, 2401, Note_on_c, 9, 35, 0
18, 2440, Note_on_c, 9, 42, 30
18, 2441, Note_on_c, 9, 42, 0
18, 2480, Note_on_c, 9, 42, 30
18, 2481, Note_on_c, 9, 42, 0
18, 2520, Note_on_c, 9, 42, 70
18, 2520, Note_on_c, 9, 37, 50
18, 2521, Note_on_c, 9, 37, 0
18, 2521, Note_on_c, 9, 42, 0
18, 2560, Note_on_c, 9, 42, 30
18, 2561, Note_on_c, 9, 42, 0
18, 2600, Note_on_c, 9, 35, 30
18, 2600, Note_on_c, 9, 42, 30
18, 2601, Note_on_c, 9, 42, 0
18, 2601, Note_on_c, 9, 35, 0
18, 2640, Note_on_c, 9, 35, 60
18, 2640, Note_on_c, 9, 42, 50
18, 2641, Note_on_c, 9, 42, 0
18, 2641, Note_on_c, 9, 35, 0
18, 2680, Note_on_c, 9, 42, 30
18, 2681, Note_on_c, 9, 42, 0
18, 2720, Note_on_c, 9, 42, 30
18, 2721, Note_on_c, 9, 42, 0
18, 2760, Note_on_c, 9, 42, 70
18, 2760, Note_on_c, 9, 37, 50
18, 2761, Note_on_c, 9, 37, 0
18, 2761, Note_on_c, 9, 42, 0
18, 2800, Note_on_c, 9, 42, 30
18, 2801, Note_on_c, 9, 42, 0
18, 2840, Note_on_c, 9, 42, 30
18, 2841, Note_on_c, 9, 42, 0
18, 2880, Note_on_c, 9, 35, 60
18, 2880, Note_on_c, 9, 42, 50
18, 2881, Note_on_c, 9, 42, 0
18, 2881, Note_on_c, 9, 35, 0
18, 2920, Note_on_c, 9, 42, 30
18, 2921, Note_on_c, 9, 42, 0
18, 2960, Note_on_c, 9, 42, 30
18, 2961, Note_on_c, 9, 42, 0
18, 3000, Note_on_c, 9, 42, 70
18, 3000, Note_on_c, 9, 37, 50
18, 3001, Note_on_c, 9, 37, 0
18, 3001, Note_on_c, 9, 42, 0
18, 3040, Note_on_c, 9, 42, 30
18, 3041, Note_on_c, 9, 42, 0
18, 3080, Note_on_c, 9, 35, 30
18, 3080, Note_on_c, 9, 42, 30
18, 3081, Note_on_c, 9, 42, 0
18, 3081, Note_on_c, 9, 35, 0
18, 3120, Note_on_c, 9, 35, 60
18, 3120, Note_on_c, 9, 42, 50
18, 3121, Note_on_c, 9, 42, 0
18, 3121, Note_on_c, 9, 35, 0
18, 3160, Note_on_c, 9, 42, 30
18, 3161, Note_on_c, 9, 42, 0
18, 3200, Note_on_c, 9, 42, 30
18, 3201, Note_on_c, 9, 42, 0
18, 3240, Note_on_c, 9, 42, 70
18, 3240, Note_on_c, 9, 37, 50
18, 3241, Note_on_c, 9, 37, 0
18, 3241, Note_on_c, 9, 42, 0
18, 3280, Note_on_c, 9, 42, 30
18, 3281, Note_on_c, 9, 42, 0
18, 3320, Note_on_c, 9, 46, 40
18, 3321, Note_on_c, 9, 46, 0
18, 3360, Note_on_c, 9, 35, 60
18, 3360, Note_on_c, 9, 42, 50
18, 3361, Note_on_c, 9, 42, 0
18, 3361, Note_on_c, 9, 35, 0
18, 3400, Note_on_c, 9, 42, 30
18, 3401, Note_on_c, 9, 42, 0
18, 3440, Note_on_c, 9, 42, 30
18, 3441, Note_on_c, 9, 42, 0
18, 3480, Note_on_c, 9, 42, 70
18, 3480, Note_on_c, 9, 37, 50
18, 3481, Note_on_c, 9, 37, 0
18, 3481, Note_on_c, 9, 42, 0
18, 3520, Note_on_c, 9, 42, 30
18, 3521, Note_on_c, 9, 42, 0
18, 3560, Note_on_c, 9, 35, 30
18, 3560, Note_on_c, 9, 42, 30
18, 3561, Note_on_c, 9, 42, 0
18, 3561, Note_on_c, 9, 35, 0
18, 3600, Note_on_c, 9, 35, 60
18, 3600, Note_on_c, 9, 42, 50
18, 3601, Note_on_c, 9, 42, 0
18, 3601, Note_on_c, 9, 35, 0
18, 3640, Note_on_c, 9, 42, 30
18, 3641, Note_on_c, 9, 42, 0
18, 3680, Note_on_c, 9, 42, 30
18, 3681, Note_on_c, 9, 42, 0
18, 3720, Note_on_c, 9, 42, 70
18, 3720, Note_on_c, 9, 37, 50
18, 3721, Note_on_c, 9, 37, 0
18, 3721, Note_on_c, 9, 42, 0
18, 3760, Note_on_c, 9, 42, 30
18, 3761, Note_on_c, 9, 42, 0
18, 3800, Note_on_c, 9, 42, 30
18, 3801, Note_on_c, 9, 42, 0
18, 3840, Note_on_c, 9, 35, 60
18, 3840, Note_on_c, 9, 42, 50
18, 3841, Note_on_c, 9, 42, 0
18, 3841, Note_on_c, 9, 35, 0
18, 3880, Note_on_c, 9, 42, 30
18, 3881, Note_on_c, 9, 42, 0
18, 3920, Note_on_c, 9, 42, 30
18, 3921, Note_on_c, 9, 42, 0
18, 3960, Note_on_c, 9, 42, 70
18, 3960, Note_on_c, 9, 37, 50
18, 3961, Note_on_c, 9, 37, 0
18, 3961, Note_on_c, 9, 42, 0
18, 4000, Note_on_c, 9, 42, 30
18, 4001, Note_on_c, 9, 42, 0
18, 4040, Note_on_c, 9, 35, 30
18, 4040, Note_on_c, 9, 42, 30
18, 4041, Note_on_c, 9, 42, 0
18, 4041, Note_on_c, 9, 35, 0
18, 4080, Note_on_c, 9, 35, 60
18, 4080, Note_on_c, 9, 42, 50
18, 4081, Note_on_c, 9, 42, 0
18, 4081, Note_on_c, 9, 35, 0
18, 4120, Note_on_c, 9, 42, 30
18, 4121, Note_on_c, 9, 42, 0
18, 4160, Note_on_c, 9, 42, 30
18, 4161, Note_on_c, 9, 42, 0
18, 4200, Note_on_c, 9, 42, 70
18, 4200, Note_on_c, 9, 37, 50
18, 4201, Note_on_c, 9, 37, 0
18, 4201, Note_on_c, 9, 42, 0
18, 4240, Note_on_c, 9, 42, 30
18, 4241, Note_on_c, 9, 42, 0
18, 4280, Note_on_c, 9, 42, 30
18, 4281, Note_on_c, 9, 42, 0
18, 4320, Note_on_c, 9, 35, 60
18, 4320, Note_on_c, 9, 42, 50
18, 4321, Note_on_c, 9, 42, 0
18, 4321, Note_on_c, 9, 35, 0
18, 4360, Note_on_c, 9, 42, 30
18, 4361, Note_on_c, 9, 42, 0
18, 4400, Note_on_c, 9, 42, 30
18, 4401, Note_on_c, 9, 42, 0
18, 4440, Note_on_c, 9, 42, 70
18, 4440, Note_on_c, 9, 37, 50
18, 4441, Note_on_c, 9, 37, 0
18, 4441, Note_on_c, 9, 42, 0
18, 4480, Note_on_c, 9, 42, 30
18, 4481, Note_on_c, 9, 42, 0
18, 4520, Note_on_c, 9, 35, 30
18, 4520, Note_on_c, 9, 42, 30
18, 4521, Note_on_c, 9, 42, 0
18, 4521, Note_on_c, 9, 35, 0
18, 4560, Note_on_c, 9, 35, 60
18, 4560, Note_on_c, 9, 42, 50
18, 4561, Note_on_c, 9, 42, 0
18, 4561, Note_on_c, 9, 35, 0
18, 4600, Note_on_c, 9, 42, 30
18, 4601, Note_on_c, 9, 42, 0
18, 4640, Note_on_c, 9, 42, 30
18, 4641, Note_on_c, 9, 42, 0
18, 4680, Note_on_c, 9, 42, 70
18, 4680, Note_on_c, 9, 37, 50
18, 4681, Note_on_c, 9, 37, 0
18, 4681, Note_on_c, 9, 42, 0
18, 4720, Note_on_c, 9, 42, 30
18, 4721, Note_on_c, 9, 42, 0
18, 4760, Note_on_c, 9, 42, 30
18, 4761, Note_on_c, 9, 42, 0
18, 4800, Note_on_c, 9, 35, 60
18, 4800, Note_on_c, 9, 42, 50
18, 4801, Note_on_c, 9, 42, 0
18, 4801, Note_on_c, 9, 35, 0
18, 4840, Note_on_c, 9, 42, 30
18, 4841, Note_on_c, 9, 42, 0
18, 4880, Note_on_c, 9, 42, 30
18, 4881, Note_on_c, 9, 42, 0
18, 4920, Note_on_c, 9, 42, 70
18, 4920, Note_on_c, 9, 37, 50
18, 4921, Note_on_c, 9, 37, 0
18, 4921, Note_on_c, 9, 42, 0
18, 4960, Note_on_c, 9, 42, 30
18, 4961, Note_on_c, 9, 42, 0
18, 5000, Note_on_c, 9, 35, 30
18, 5000, Note_on_c, 9, 42, 30
18, 5001, Note_on_c, 9, 42, 0
18, 5001, Note_on_c, 9, 35, 0
18, 5040, Note_on_c, 9, 35, 60
18, 5040, Note_on_c, 9, 42, 50
18, 5041, Note_on_c, 9, 42, 0
18, 5041, Note_on_c, 9, 35, 0
18, 5080, Note_on_c, 9, 42, 30
18, 5081, Note_on_c, 9, 42, 0
18, 5120, Note_on_c, 9, 42, 30
18, 5121, Note_on_c, 9, 42, 0
18, 5160, Note_on_c, 9, 42, 70
18, 5160, Note_on_c, 9, 37, 50
18, 5161, Note_on_c, 9, 37, 0
18, 5161, Note_on_c, 9, 42, 0
18, 5200, Note_on_c, 9, 42, 30
18, 5201, Note_on_c, 9, 42, 0
18, 5240, Note_on_c, 9, 46, 40
18, 5241, Note_on_c, 9, 46, 0
18, 5280, Note_on_c, 9, 35, 60
18, 5280, Note_on_c, 9, 42, 50
18, 5281, Note_on_c, 9, 42, 0
18, 5281, Note_on_c, 9, 35, 0
18, 5320, Note_on_c, 9, 42, 30
18, 5321, Note_on_c, 9, 42, 0
18, 5360, Note_on_c, 9, 42, 30
18, 5361, Note_on_c, 9, 42, 0
18, 5400, Note_on_c, 9, 42, 70
18, 5400, Note_on_c, 9, 37, 50
18, 5401, Note_on_c, 9, 37, 0
18, 5401, Note_on_c, 9, 42, 0
18, 5440, Note_on_c, 9, 42, 30
18, 5441, Note_on_c, 9, 42, 0
18, 5480, Note_on_c, 9, 35, 30
18, 5480, Note_on_c, 9, 42, 30
18, 5481, Note_on_c, 9, 42, 0
18, 5481, Note_on_c, 9, 35, 0
18, 5520, Note_on_c, 9, 35, 60
18, 5520, Note_on_c, 9, 42, 50
18, 5521, Note_on_c, 9, 42, 0
18, 5521, Note_on_c, 9, 35, 0
18, 5560, Note_on_c, 9, 42, 30
18, 5561, Note_on_c, 9, 42, 0
18, 5600, Note_on_c, 9, 42, 30
18, 5601, Note_on_c, 9, 42, 0
18, 5640, Note_on_c, 9, 42, 70
18, 5640, Note_on_c, 9, 37, 50
18, 5641, Note_on_c, 9, 37, 0
18, 5641, Note_on_c, 9, 42, 0
18, 5680, Note_on_c, 9, 42, 30
18, 5681, Note_on_c, 9, 42, 0
18, 5720, Note_on_c, 9, 42, 30
18, 5721, Note_on_c, 9, 42, 0
18, 5760, Note_on_c, 9, 35, 60
18, 5760, Note_on_c, 9, 42, 50
18, 5761, Note_on_c, 9, 42, 0
18, 5761, Note_on_c, 9, 35, 0
18, 5800, Note_on_c, 9, 42, 30
18, 5801, Note_on_c, 9, 42, 0
18, 5840, Note_on_c, 9, 42, 30
18, 5841, Note_on_c, 9, 42, 0
18, 5880, Note_on_c, 9, 42, 70
18, 5880, Note_on_c, 9, 37, 50
18, 5881, Note_on_c, 9, 37, 0
18, 5881, Note_on_c, 9, 42, 0
18, 5920, Note_on_c, 9, 42, 30
18, 5921, Note_on_c, 9, 42, 0
18, 5960, Note_on_c, 9, 35, 30
18, 5960, Note_on_c, 9, 42, 30
18, 5961, Note_on_c, 9, 42, 0
18, 5961, Note_on_c, 9, 35, 0
18, 6000, Note_on_c, 9, 35, 60
18, 6000, Note_on_c, 9, 42, 50
18, 6001, Note_on_c, 9, 42, 0
18, 6001, Note_on_c, 9, 35, 0
18, 6040, Note_on_c, 9, 42, 30
18, 6041, Note_on_c, 9, 42, 0
18, 6080, Note_on_c, 9, 42, 30
18, 6081, Note_on_c, 9, 42, 0
18, 6120, Note_on_c, 9, 42, 70
18, 6120, Note_on_c, 9, 37, 50
18, 6121, Note_on_c, 9, 37, 0
18, 6121, Note_on_c, 9, 42, 0
18, 6160, Note_on_c, 9, 42, 30
18, 6161, Note_on_c, 9, 42, 0
18, 6200, Note_on_c, 9, 46, 40
18, 6201, Note_on_c, 9, 46, 0
18, 6240, Note_on_c, 9, 35, 60
18, 6240, Note_on_c, 9, 42, 50
18, 6241, Note_on_c, 9, 42, 0
18, 6241, Note_on_c, 9, 35, 0
18, 6280, Note_on_c, 9, 42, 30
18, 6281, Note_on_c, 9, 42, 0
18, 6320, Note_on_c, 9, 42, 30
18, 6321, Note_on_c, 9, 42, 0
18, 6360, Note_on_c, 9, 42, 70
18, 6360, Note_on_c, 9, 37, 50
18, 6361, Note_on_c, 9, 37, 0
18, 6361, Note_on_c, 9, 42, 0
18, 6400, Note_on_c, 9, 42, 30
18, 6401, Note_on_c, 9, 42, 0
18, 6440, Note_on_c, 9, 35, 30
18, 6440, Note_on_c, 9, 42, 30
18, 6441, Note_on_c, 9, 42, 0
18, 6441, Note_on_c, 9, 35, 0
18, 6480, Note_on_c, 9, 35, 60
18, 6480, Note_on_c, 9, 42, 50
18, 6481, Note_on_c, 9, 42, 0
18, 6481, Note_on_c, 9, 35, 0
18, 6520, Note_on_c, 9, 42, 30
18, 6521, Note_on_c, 9, 42, 0
18, 6560, Note_on_c, 9, 42, 30
18, 6561, Note_on_c, 9, 42, 0
18, 6600, Note_on_c, 9, 42, 70
18, 6600, Note_on_c, 9, 37, 50
18, 6601, Note_on_c, 9, 37, 0
18, 6601, Note_on_c, 9, 42, 0
18, 6640, Note_on_c, 9, 42, 30
18, 6641, Note_on_c, 9, 42, 0
18, 6680, Note_on_c, 9, 42, 30
18, 6681, Note_on_c, 9, 42, 0
18, 6720, Note_on_c, 9, 35, 60
18, 6720, Note_on_c, 9, 42, 50
18, 6721, Note_on_c, 9, 42, 0
18, 6721, Note_on_c, 9, 35, 0
18, 6760, Note_on_c, 9, 42, 30
18, 6761, Note_on_c, 9, 42, 0
18, 6800, Note_on_c, 9, 42, 30
18, 6801, Note_on_c, 9, 42, 0
18, 6840, Note_on_c, 9, 42, 70
18, 6840, Note_on_c, 9, 37, 50
18, 6841, Note_on_c, 9, 37, 0
18, 6841, Note_on_c, 9, 42, 0
18, 6880, Note_on_c, 9, 42, 30
18, 6881, Note_on_c, 9, 42, 0
18, 6920, Note_on_c, 9, 35, 30
18, 6920, Note_on_c, 9, 42, 30
18, 6921, Note_on_c, 9, 42, 0
18, 6921, Note_on_c, 9, 35, 0
18, 6960, Note_on_c, 9, 35, 60
18, 6960, Note_on_c, 9, 42, 50
18, 6961, Note_on_c, 9, 42, 0
18, 6961, Note_on_c, 9, 35, 0
18, 7000, Note_on_c, 9, 42, 30
18, 7001, Note_on_c, 9, 42, 0
18, 7040, Note_on_c, 9, 42, 30
18, 7041, Note_on_c, 9, 42, 0
18, 7080, Note_on_c, 9, 42, 70
18, 7080, Note_on_c, 9, 37, 50
18, 7081, Note_on_c, 9, 37, 0
18, 7081, Note_on_c, 9, 42, 0
18, 7120, Note_on_c, 9, 42, 30
18, 7121, Note_on_c, 9, 42, 0
18, 7160, Note_on_c, 9, 42, 30
18, 7161, Note_on_c, 9, 42, 0
18, 7200, Note_on_c, 9, 35, 60
18, 7200, Note_on_c, 9, 42, 50
18, 7201, Note_on_c, 9, 42, 0
18, 7201, Note_on_c, 9, 35, 0
18, 7240, Note_on_c, 9, 42, 30
18, 7241, Note_on_c, 9, 42, 0
18, 7280, Note_on_c, 9, 42, 30
18, 7281, Note_on_c, 9, 42, 0
18, 7320, Note_on_c, 9, 42, 70
18, 7320, Note_on_c, 9, 37, 50
18, 7321, Note_on_c, 9, 37, 0
18, 7321, Note_on_c, 9, 42, 0
18, 7360, Note_on_c, 9, 42, 30
18, 7361, Note_on_c, 9, 42, 0
18, 7400, Note_on_c, 9, 35, 30
18, 7400, Note_on_c, 9, 42, 30
18, 7401, Note_on_c, 9, 42, 0
18, 7401, Note_on_c, 9, 35, 0
18, 7440, Note_on_c, 9, 35, 60
18, 7440, Note_on_c, 9, 42, 50
18, 7441, Note_on_c, 9, 42, 0
18, 7441, Note_on_c, 9, 35, 0
18, 7480, Note_on_c, 9, 42, 30
18, 7481, Note_on_c, 9, 42, 0
18, 7520, Note_on_c, 9, 42, 30
18, 7521, Note_on_c, 9, 42, 0
18, 7560, Note_on_c, 9, 42, 70
18, 7560, Note_on_c, 9, 37, 50
18, 7561, Note_on_c, 9, 37, 0
18, 7561, Note_on_c, 9, 42, 0
18, 7600, Note_on_c, 9, 42, 30
18, 7601, Note_on_c, 9, 42, 0
18, 7640, Note_on_c, 9, 42, 30
18, 7641, Note_on_c, 9, 42, 0
18, 7680, Note_on_c, 9, 35, 60
18, 7680, Note_on_c, 9, 42, 50
18, 7681, Note_on_c, 9, 42, 0
18, 7681, Note_on_c, 9, 35, 0
18, 7720, Note_on_c, 9, 42, 30
18, 7721, Note_on_c, 9, 42, 0
18, 7760, Note_on_c, 9, 42, 30
18, 7761, Note_on_c, 9, 42, 0
18, 7800, Note_on_c, 9, 42, 70
18, 7800, Note_on_c, 9, 37, 50
18, 7801, Note_on_c, 9, 37, 0
18, 7801, Note_on_c, 9, 42, 0
18, 7840, Note_on_c, 9, 42, 30
18, 7841, Note_on_c, 9, 42, 0
18, 7880, Note_on_c, 9, 35, 30
18, 7880, Note_on_c, 9, 42, 30
18, 7881, Note_on_c, 9, 42, 0
18, 7881, Note_on_c, 9, 35, 0
18, 7920, Note_on_c, 9, 35, 60
18, 7920, Note_on_c, 9, 42, 50
18, 7921, Note_on_c, 9, 42, 0
18, 7921, Note_on_c, 9, 35, 0
18, 7960, Note_on_c, 9, 42, 30
18, 7961, Note_on_c, 9, 42, 0
18, 8000, Note_on_c, 9, 42, 30
18, 8001, Note_on_c, 9, 42, 0
18, 8040, Note_on_c, 9, 42, 70
18, 8040, Note_on_c, 9, 37, 50
18, 8041, Note_on_c, 9, 37, 0
18, 8041, Note_on_c, 9, 42, 0
18, 8080, Note_on_c, 9, 42, 30
18, 8081, Note_on_c, 9, 42, 0
18, 8120, Note_on_c, 9, 46, 40
18, 8121, Note_on_c, 9, 46, 0
18, 8160, Note_on_c, 9, 35, 60
18, 8160, Note_on_c, 9, 42, 50
18, 8161, Note_on_c, 9, 42, 0
18, 8161, Note_on_c, 9, 35, 0
18, 8200, Note_on_c, 9, 42, 30
18, 8201, Note_on_c, 9, 42, 0
18, 8240, Note_on_c, 9, 42, 30
18, 8241, Note_on_c, 9, 42, 0
18, 8280, Note_on_c, 9, 42, 70
18, 8280, Note_on_c, 9, 37, 50
18, 8281, Note_on_c, 9, 37, 0
18, 8281, Note_on_c, 9, 42, 0
18, 8320, Note_on_c, 9, 42, 30
18, 8321, Note_on_c, 9, 42, 0
18, 8360, Note_on_c, 9, 35, 30
18, 8360, Note_on_c, 9, 42, 30
18, 8361, Note_on_c, 9, 42, 0
18, 8361, Note_on_c, 9, 35, 0
18, 8400, Note_on_c, 9, 35, 60
18, 8400, Note_on_c, 9, 42, 50
18, 8401, Note_on_c, 9, 42, 0
18, 8401, Note_on_c, 9, 35, 0
18, 8440, Note_on_c, 9, 42, 30
18, 8441, Note_on_c, 9, 42, 0
18, 8480, Note_on_c, 9, 42, 30
18, 8481, Note_on_c, 9, 42, 0
18, 8520, Note_on_c, 9, 42, 70
18, 8520, Note_on_c, 9, 37, 50
18, 8521, Note_on_c, 9, 37, 0
18, 8521, Note_on_c, 9, 42, 0
18, 8560, Note_on_c, 9, 42, 30
18, 8561, Note_on_c, 9, 42, 0
18, 8600, Note_on_c, 9, 42, 30
18, 8601, Note_on_c, 9, 42, 0
18, 8640, Note_on_c, 9, 35, 60
18, 8640, Note_on_c, 9, 42, 50
18, 8641, Note_on_c, 9, 42, 0
18, 8641, Note_on_c, 9, 35, 0
18, 8680, Note_on_c, 9, 42, 30
18, 8681, Note_on_c, 9, 42, 0
18, 8720, Note_on_c, 9, 42, 30
18, 8721, Note_on_c, 9, 42, 0
18, 8760, Note_on_c, 9, 42, 70
18, 8760, Note_on_c, 9, 37, 50
18, 8761, Note_on_c, 9, 37, 0
18, 8761, Note_on_c, 9, 42, 0
18, 8800, Note_on_c, 9, 42, 30
18, 8801, Note_on_c, 9, 42, 0
18, 8840, Note_on_c, 9, 35, 30
18, 8840, Note_on_c, 9, 42, 30
18, 8841, Note_on_c, 9, 42, 0
18, 8841, Note_on_c, 9, 35, 0
18, 8880, Note_on_c, 9, 35, 60
18, 8880, Note_on_c, 9, 42, 50
18, 8881, Note_on_c, 9, 42, 0
18, 8881, Note_on_c, 9, 35, 0
18, 8920, Note_on_c, 9, 42, 30
18, 8921, Note_on_c, 9, 42, 0
18, 8960, Note_on_c, 9, 42, 30
18, 8961, Note_on_c, 9, 42, 0
18, 9000, Note_on_c, 9, 42, 70
18, 9000, Note_on_c, 9, 37, 50
18, 9001, Note_on_c, 9, 37, 0
18, 9001, Note_on_c, 9, 42, 0
18, 9040, Note_on_c, 9, 42, 30
18, 9041, Note_on_c, 9, 42, 0
18, 9080, Note_on_c, 9, 42, 30
18, 9081, Note_on_c, 9, 42, 0
18, 9120, Note_on_c, 9, 35, 60
18, 9120, Note_on_c, 9, 42, 50
18, 9121, Note_on_c, 9, 42, 0
18, 9121, Note_on_c, 9, 35, 0
18, 9160, Note_on_c, 9, 42, 30
18, 9161, Note_on_c, 9, 42, 0
18, 9200, Note_on_c, 9, 42, 30
18, 9201, Note_on_c, 9, 42, 0
18, 9240, Note_on_c, 9, 42, 70
18, 9240, Note_on_c, 9, 37, 50
18, 9241, Note_on_c, 9, 37, 0
18, 9241, Note_on_c, 9, 42, 0
18, 9280, Note_on_c, 9, 42, 30
18, 9281, Note_on_c, 9, 42, 0
18, 9320, Note_on_c, 9, 35, 30
18, 9320, Note_on_c, 9, 42, 30
18, 9321, Note_on_c, 9, 42, 0
18, 9321, Note_on_c, 9, 35, 0
18, 9360, Note_on_c, 9, 35, 60
18, 9360, Note_on_c, 9, 42, 50
18, 9361, Note_on_c, 9, 42, 0
18, 9361, Note_on_c, 9, 35, 0
18, 9400, Note_on_c, 9, 42, 30
18, 9401, Note_on_c, 9, 42, 0
18, 9440, Note_on_c, 9, 42, 30
18, 9441, Note_on_c, 9, 42, 0
18, 9480, Note_on_c, 9, 42, 70
18, 9480, Note_on_c, 9, 37, 50
18, 9481, Note_on_c, 9, 37, 0
18, 9481, Note_on_c, 9, 42, 0
18, 9520, Note_on_c, 9, 42, 30
18, 9521, Note_on_c, 9, 42, 0
18, 9560, Note_on_c, 9, 46, 40
18, 9561, Note_on_c, 9, 46, 0
18, 9600, Note_on_c, 9, 35, 60
18, 9600, Note_on_c, 9, 42, 50
18, 9601, Note_on_c, 9, 42, 0
18, 9601, Note_on_c, 9, 35, 0
18, 9640, Note_on_c, 9, 42, 30
18, 9641, Note_on_c, 9, 42, 0
18, 9680, Note_on_c, 9, 42, 30
18, 9681, Note_on_c, 9, 42, 0
18, 9720, Note_on_c, 9, 42, 70
18, 9720, Note_on_c, 9, 37, 50
18, 9721, Note_on_c, 9, 37, 0
18, 9721, Note_on_c, 9, 42, 0
18, 9760, Note_on_c, 9, 42, 30
18, 9761, Note_on_c, 9, 42, 0
18, 9800, Note_on_c, 9, 35, 30
18, 9800, Note_on_c, 9, 42, 30
18, 9801, Note_on_c, 9, 42, 0
18, 9801, Note_on_c, 9, 35, 0
18, 9840, Note_on_c, 9, 35, 60
18, 9840, Note_on_c, 9, 42, 50
18, 9841, Note_on_c, 9, 42, 0
18, 9841, Note_on_c, 9, 35, 0
18, 9880, Note_on_c, 9, 42, 30
18, 9881, Note_on_c, 9, 42, 0
18, 9920, Note_on_c, 9, 42, 30
18, 9921, Note_on_c, 9, 42, 0
18, 9960, Note_on_c, 9, 42, 70
18, 9960, Note_on_c, 9, 37, 50
18, 9961, Note_on_c, 9, 37, 0
18, 9961, Note_on_c, 9, 42, 0
18, 10000, Note_on_c, 9, 42, 30
18, 10001, Note_on_c, 9, 42, 0
18, 10040, Note_on_c, 9, 46, 40
18, 10041, Note_on_c, 9, 46, 0
18, 10080, Note_on_c, 9, 35, 60
18, 10080, Note_on_c, 9, 42, 50
18, 10081, Note_on_c, 9, 42, 0
18, 10081, Note_on_c, 9, 35, 0
18, 10120, Note_on_c, 9, 42, 30
18, 10121, Note_on_c, 9, 42, 0
18, 10160, Note_on_c, 9, 42, 30
18, 10161, Note_on_c, 9, 42, 0
18, 10200, Note_on_c, 9, 42, 70
18, 10200, Note_on_c, 9, 37, 50
18, 10201, Note_on_c, 9, 37, 0
18, 10201, Note_on_c, 9, 42, 0
18, 10240, Note_on_c, 9, 42, 30
18, 10241, Note_on_c, 9, 42, 0
18, 10280, Note_on_c, 9, 35, 30
18, 10280, Note_on_c, 9, 42, 30
18, 10281, Note_on_c, 9, 42, 0
18, 10281, Note_on_c, 9, 35, 0
18, 10320, Note_on_c, 9, 35, 60
18, 10320, Note_on_c, 9, 42, 50
18, 10321, Note_on_c, 9, 42, 0
18, 10321, Note_on_c, 9, 35, 0
18, 10360, Note_on_c, 9, 42, 30
18, 10361, Note_on_c, 9, 42, 0
18, 10400, Note_on_c, 9, 42, 30
18, 10401, Note_on_c, 9, 42, 0
18, 10440, Note_on_c, 9, 42, 70
18, 10440, Note_on_c, 9, 37, 50
18, 10441, Note_on_c, 9, 37, 0
18, 10441, Note_on_c, 9, 42, 0
18, 10480, Note_on_c, 9, 42, 30
18, 10481, Note_on_c, 9, 42, 0
18, 10520, Note_on_c, 9, 42, 30
18, 10521, Note_on_c, 9, 42, 0
18, 10560, Note_on_c, 9, 35, 60
18, 10560, Note_on_c, 9, 42, 50
18, 10561, Note_on_c, 9, 42, 0
18, 10561, Note_on_c, 9, 35, 0
18, 10600, Note_on_c, 9, 42, 30
18, 10601, Note_on_c, 9, 42, 0
18, 10640, Note_on_c, 9, 42, 30
18, 10641, Note_on_c, 9, 42, 0
18, 10680, Note_on_c, 9, 42, 70
18, 10680, Note_on_c, 9, 37, 50
18, 10681, Note_on_c, 9, 37, 0
18, 10681, Note_on_c, 9, 42, 0
18, 10720, Note_on_c, 9, 42, 30
18, 10721, Note_on_c, 9, 42, 0
18, 10760, Note_on_c, 9, 35, 30
18, 10760, Note_on_c, 9, 42, 30
18, 10761, Note_on_c, 9, 42, 0
18, 10761, Note_on_c, 9, 35, 0
18, 10800, Note_on_c, 9, 35, 60
18, 10800, Note_on_c, 9, 42, 50
18, 10801, Note_on_c, 9, 42, 0
18, 10801, Note_on_c, 9, 35, 0
18, 10840, Note_on_c, 9, 42, 30
18, 10841, Note_on_c, 9, 42, 0
18, 10880, Note_on_c, 9, 42, 30
18, 10881, Note_on_c, 9, 42, 0
18, 10920, Note_on_c, 9, 42, 70
18, 10920, Note_on_c, 9, 37, 50
18, 10921, Note_on_c, 9, 37, 0
18, 10921, Note_on_c, 9, 42, 0
18, 10960, Note_on_c, 9, 42, 30
18, 10961, Note_on_c, 9, 42, 0
18, 11000, Note_on_c, 9, 46, 40
18, 11001, Note_on_c, 9, 46, 0
18, 11040, Note_on_c, 9, 35, 60
18, 11040, Note_on_c, 9, 42, 50
18, 11041, Note_on_c, 9, 42, 0
18, 11041, Note_on_c, 9, 35, 0
18, 11080, Note_on_c, 9, 42, 30
18, 11081, Note_on_c, 9, 42, 0
18, 11120, Note_on_c, 9, 42, 30
18, 11121, Note_on_c, 9, 42, 0
18, 11160, Note_on_c, 9, 42, 70
18, 11160, Note_on_c, 9, 37, 50
18, 11161, Note_on_c, 9, 37, 0
18, 11161, Note_on_c, 9, 42, 0
18, 11200, Note_on_c, 9, 42, 30
18, 11201, Note_on_c, 9, 42, 0
18, 11240, Note_on_c, 9, 35, 30
18, 11240, Note_on_c, 9, 42, 30
18, 11241, Note_on_c, 9, 42, 0
18, 11241, Note_on_c, 9, 35, 0
18, 11280, Note_on_c, 9, 35, 60
18, 11280, Note_on_c, 9, 42, 50
18, 11281, Note_on_c, 9, 42, 0
18, 11281, Note_on_c, 9, 35, 0
18, 11320, Note_on_c, 9, 42, 30
18, 11321, Note_on_c, 9, 42, 0
18, 11360, Note_on_c, 9, 42, 30
18, 11361, Note_on_c, 9, 42, 0
18, 11400, Note_on_c, 9, 42, 70
18, 11400, Note_on_c, 9, 37, 50
18, 11401, Note_on_c, 9, 37, 0
18, 11401, Note_on_c, 9, 42, 0
18, 11440, Note_on_c, 9, 42, 30
18, 11441, Note_on_c, 9, 42, 0
18, 11480, Note_on_c, 9, 42, 30
18, 11481, Note_on_c, 9, 42, 0
18, 11520, Note_on_c, 9, 35, 60
18, 11520, Note_on_c, 9, 42, 50
18, 11521, Note_on_c, 9, 42, 0
18, 11521, Note_on_c, 9, 35, 0
18, 11560, Note_on_c, 9, 42, 30
18, 11561, Note_on_c, 9, 42, 0
18, 11600, Note_on_c, 9, 42, 30
18, 11601, Note_on_c, 9, 42, 0
18, 11640, Note_on_c, 9, 42, 70
18, 11640, Note_on_c, 9, 37, 50
18, 11641, Note_on_c, 9, 37, 0
18, 11641, Note_on_c, 9, 42, 0
18, 11680, Note_on_c, 9, 42, 30
18, 11681, Note_on_c, 9, 42, 0
18, 11720, Note_on_c, 9, 35, 30
18, 11720, Note_on_c, 9, 42, 30
18, 11721, Note_on_c, 9, 42, 0
18, 11721, Note_on_c, 9, 35, 0
18, 11760, Note_on_c, 9, 35, 60
18, 11760, Note_on_c, 9, 42, 50
18, 11761, Note_on_c, 9, 42, 0
18, 11761, Note_on_c, 9, 35, 0
18, 11800, Note_on_c, 9, 42, 30
18, 11801, Note_on_c, 9, 42, 0
18, 11840, Note_on_c, 9, 42, 30
18, 11841, Note_on_c, 9, 42, 0
18, 11880, Note_on_c, 9, 42, 70
18, 11880, Note_on_c, 9, 37, 50
18, 11881, Note_on_c, 9, 37, 0
18, 11881, Note_on_c, 9, 42, 0
18, 11920, Note_on_c, 9, 42, 30
18, 11921, Note_on_c, 9, 42, 0
18, 11960, Note_on_c, 9, 46, 40
18, 11961, Note_on_c, 9, 46, 0
18, 12000, Note_on_c, 9, 35, 60
18, 12000, Note_on_c, 9, 42, 50
18, 12001, Note_on_c, 9, 42, 0
18, 12001, Note_on_c, 9, 35, 0
18, 12040, Note_on_c, 9, 42, 30
18, 12041, Note_on_c, 9, 42, 0
18, 12080, Note_on_c, 9, 42, 30
18, 12081, Note_on_c, 9, 42, 0
18, 12120, Note_on_c, 9, 42, 70
18, 12120, Note_on_c, 9, 37, 50
18, 12121, Note_on_c, 9, 37, 0
18, 12121, Note_on_c, 9, 42, 0
18, 12160, Note_on_c, 9, 42, 30
18, 12161, Note_on_c, 9, 42, 0
18, 12200, Note_on_c, 9, 35, 30
18, 12200, Note_on_c, 9, 42, 30
18, 12201, Note_on_c, 9, 42, 0
18, 12201, Note_on_c, 9, 35, 0
18, 12240, Note_on_c, 9, 35, 60
18, 12240, Note_on_c, 9, 42, 50
18, 12241, Note_on_c, 9, 42, 0
18, 12241, Note_on_c, 9, 35, 0
18, 12280, Note_on_c, 9, 42, 30
18, 12281, Note_on_c, 9, 42, 0
18, 12320, Note_on_c, 9, 42, 30
18, 12321, Note_on_c, 9, 42, 0
18, 12360, Note_on_c, 9, 42, 70
18, 12360, Note_on_c, 9, 37, 50
18, 12361, Note_on_c, 9, 37, 0
18, 12361, Note_on_c, 9, 42, 0
18, 12400, Note_on_c, 9, 42, 30
18, 12401, Note_on_c, 9, 42, 0
18, 12440, Note_on_c, 9, 42, 30
18, 12441, Note_on_c, 9, 42, 0
18, 12480, Note_on_c, 9, 35, 60
18, 12480, Note_on_c, 9, 42, 50
18, 12481, Note_on_c, 9, 42, 0
18, 12481, Note_on_c, 9, 35, 0
18, 12520, Note_on_c, 9, 42, 30
18, 12521, Note_on_c, 9, 42, 0
18, 12560, Note_on_c, 9, 42, 30
18, 12561, Note_on_c, 9, 42, 0
18, 12600, Note_on_c, 9, 42, 70
18, 12600, Note_on_c, 9, 37, 50
18, 12601, Note_on_c, 9, 37, 0
18, 12601, Note_on_c, 9, 42, 0
18, 12640, Note_on_c, 9, 42, 30
18, 12641, Note_on_c, 9, 42, 0
18, 12680, Note_on_c, 9, 35, 30
18, 12680, Note_on_c, 9, 42, 30
18, 12681, Note_on_c, 9, 42, 0
18, 12681, Note_on_c, 9, 35, 0
18, 12720, Note_on_c, 9, 35, 60
18, 12720, Note_on_c, 9, 42, 50
18, 12721, Note_on_c, 9, 42, 0
18, 12721, Note_on_c, 9, 35, 0
18, 12760, Note_on_c, 9, 42, 30
18, 12761, Note_on_c, 9, 42, 0
18, 12800, Note_on_c, 9, 42, 30
18, 12801, Note_on_c, 9, 42, 0
18, 12840, Note_on_c, 9, 42, 70
18, 12840, Note_on_c, 9, 37, 50
18, 12841, Note_on_c, 9, 37, 0
18, 12841, Note_on_c, 9, 42, 0
18, 12880, Note_on_c, 9, 42, 30
18, 12881, Note_on_c, 9, 42, 0
18, 12920, Note_on_c, 9, 42, 30
18, 12921, Note_on_c, 9, 42, 0
18, 12960, Note_on_c, 9, 35, 60
18, 12960, Note_on_c, 9, 42, 50
18, 12961, Note_on_c, 9, 42, 0
18, 12961, Note_on_c, 9, 35, 0
18, 13000, Note_on_c, 9, 42, 30
18, 13001, Note_on_c, 9, 42, 0
18, 13040, Note_on_c, 9, 42, 30
18, 13041, Note_on_c, 9, 42, 0
18, 13080, Note_on_c, 9, 42, 70
18, 13080, Note_on_c, 9, 37, 50
18, 13081, Note_on_c, 9, 37, 0
18, 13081, Note_on_c, 9, 42, 0
18, 13120, Note_on_c, 9, 42, 30
18, 13121, Note_on_c, 9, 42, 0
18, 13160, Note_on_c, 9, 35, 30
18, 13160, Note_on_c, 9, 42, 30
18, 13161, Note_on_c, 9, 42, 0
18, 13161, Note_on_c, 9, 35, 0
18, 13200, Note_on_c, 9, 35, 60
18, 13200, Note_on_c, 9, 42, 50
18, 13201, Note_on_c, 9, 42, 0
18, 13201, Note_on_c, 9, 35, 0
18, 13240, Note_on_c, 9, 42, 30
18, 13241, Note_on_c, 9, 42, 0
18, 13280, Note_on_c, 9, 42, 30
18, 13281, Note_on_c, 9, 42, 0
18, 13320, Note_on_c, 9, 42, 70
18, 13320, Note_on_c, 9, 37, 50
18, 13321, Note_on_c, 9, 37, 0
18, 13321, Note_on_c, 9, 42, 0
18, 13360, Note_on_c, 9, 42, 30
18, 13361, Note_on_c, 9, 42, 0
18, 13400, Note_on_c, 9, 42, 30
18, 13401, Note_on_c, 9, 42, 0
18, 13440, Note_on_c, 9, 35, 60
18, 13440, Note_on_c, 9, 42, 50
18, 13441, Note_on_c, 9, 42, 0
18, 13441, Note_on_c, 9, 35, 0
18, 13480, Note_on_c, 9, 42, 30
18, 13481, Note_on_c, 9, 42, 0
18, 13520, Note_on_c, 9, 42, 30
18, 13521, Note_on_c, 9, 42, 0
18, 13560, Note_on_c, 9, 42, 70
18, 13560, Note_on_c, 9, 37, 50
18, 13561, Note_on_c, 9, 37, 0
18, 13561, Note_on_c, 9, 42, 0
18, 13600, Note_on_c, 9, 42, 30
18, 13601, Note_on_c, 9, 42, 0
18, 13640, Note_on_c, 9, 35, 30
18, 13640, Note_on_c, 9, 42, 30
18, 13641, Note_on_c, 9, 42, 0
18, 13641, Note_on_c, 9, 35, 0
18, 13680, Note_on_c, 9, 35, 60
18, 13680, Note_on_c, 9, 42, 50
18, 13681, Note_on_c, 9, 42, 0
18, 13681, Note_on_c, 9, 35, 0
18, 13720, Note_on_c, 9, 42, 30
18, 13721, Note_on_c, 9, 42, 0
18, 13760, Note_on_c, 9, 42, 30
18, 13761, Note_on_c, 9, 42, 0
18, 13800, Note_on_c, 9, 42, 70
18, 13800, Note_on_c, 9, 37, 50
18, 13801, Note_on_c, 9, 37, 0
18, 13801, Note_on_c, 9, 42, 0
18, 13840, Note_on_c, 9, 42, 30
18, 13841, Note_on_c, 9, 42, 0
18, 13880, Note_on_c, 9, 46, 40
18, 13881, Note_on_c, 9, 46, 0
18, 13920, Note_on_c, 9, 35, 60
18, 13920, Note_on_c, 9, 42, 50
18, 13921, Note_on_c, 9, 42, 0
18, 13921, Note_on_c, 9, 35, 0
18, 13960, Note_on_c, 9, 42, 30
18, 13961, Note_on_c, 9, 42, 0
18, 14000, Note_on_c, 9, 42, 30
18, 14001, Note_on_c, 9, 42, 0
18, 14040, Note_on_c, 9, 42, 70
18, 14040, Note_on_c, 9, 37, 50
18, 14041, Note_on_c, 9, 37, 0
18, 14041, Note_on_c, 9, 42, 0
18, 14080, Note_on_c, 9, 42, 30
18, 14081, Note_on_c, 9, 42, 0
18, 14120, Note_on_c, 9, 35, 30
18, 14120, Note_on_c, 9, 42, 30
18, 14121, Note_on_c, 9, 42, 0
18, 14121, Note_on_c, 9, 35, 0
18, 14160, Note_on_c, 9, 35, 60
18, 14160, Note_on_c, 9, 42, 50
18, 14161, Note_on_c, 9, 42, 0
18, 14161, Note_on_c, 9, 35, 0
18, 14200, Note_on_c, 9, 42, 30
18, 14201, Note_on_c, 9, 42, 0
18, 14240, Note_on_c, 9, 42, 30
18, 14241, Note_on_c, 9, 42, 0
18, 14280, Note_on_c, 9, 42, 70
18, 14280, Note_on_c, 9, 37, 50
18, 14281, Note_on_c, 9, 37, 0
18, 14281, Note_on_c, 9, 42, 0
18, 14320, Note_on_c, 9, 42, 30
18, 14321, Note_on_c, 9, 42, 0
18, 14360, Note_on_c, 9, 42, 30
18, 14361, Note_on_c, 9, 42, 0
18, 14400, Note_on_c, 9, 35, 60
18, 14400, Note_on_c, 9, 42, 50
18, 14401, Note_on_c, 9, 42, 0
18, 14401, Note_on_c, 9, 35, 0
18, 14440, Note_on_c, 9, 42, 30
18, 14441, Note_on_c, 9, 42, 0
18, 14480, Note_on_c, 9, 42, 30
18, 14481, Note_on_c, 9, 42, 0
18, 14520, Note_on_c, 9, 42, 70
18, 14520, Note_on_c, 9, 37, 50
18, 14521, Note_on_c, 9, 37, 0
18, 14521, Note_on_c, 9, 42, 0
18, 14560, Note_on_c, 9, 42, 30
18, 14561, Note_on_c, 9, 42, 0
18, 14600, Note_on_c, 9, 35, 30
18, 14600, Note_on_c, 9, 42, 30
18, 14601, Note_on_c, 9, 42, 0
18, 14601, Note_on_c, 9, 35, 0
18, 14640, Note_on_c, 9, 35, 60
18, 14640, Note_on_c, 9, 42, 50
18, 14641, Note_on_c, 9, 42, 0
18, 14641, Note_on_c, 9, 35, 0
18, 14680, Note_on_c, 9, 42, 30
18, 14681, Note_on_c, 9, 42, 0
18, 14720, Note_on_c, 9, 42, 30
18, 14721, Note_on_c, 9, 42, 0
18, 14760, Note_on_c, 9, 42, 70
18, 14760, Note_on_c, 9, 37, 50
18, 14761, Note_on_c, 9, 37, 0
18, 14761, Note_on_c, 9, 42, 0
18, 14800, Note_on_c, 9, 42, 30
18, 14801, Note_on_c, 9, 42, 0
18, 14840, Note_on_c, 9, 46, 40
18, 14841, Note_on_c, 9, 46, 0
18, 14880, Note_on_c, 9, 35, 60
18, 14880, Note_on_c, 9, 42, 50
18, 14881, Note_on_c, 9, 42, 0
18, 14881, Note_on_c, 9, 35, 0
18, 14920, Note_on_c, 9, 42, 30
18, 14921, Note_on_c, 9, 42, 0
18, 14960, Note_on_c, 9, 42, 30
18, 14961, Note_on_c, 9, 42, 0
18, 15000, Note_on_c, 9, 42, 70
18, 15000, Note_on_c, 9, 37, 50
18, 15001, Note_on_c, 9, 37, 0
18, 15001, Note_on_c, 9, 42, 0
18, 15040, Note_on_c, 9, 42, 30
18, 15041, Note_on_c, 9, 42, 0
18, 15080, Note_on_c, 9, 35, 30
18, 15080, Note_on_c, 9, 42, 30
18, 15081, Note_on_c, 9, 42, 0
18, 15081, Note_on_c, 9, 35, 0
18, 15120, Note_on_c, 9, 35, 60
18, 15120, Note_on_c, 9, 42, 50
18, 15121, Note_on_c, 9, 42, 0
18, 15121, Note_on_c, 9, 35, 0
18, 15160, Note_on_c, 9, 42, 30
18, 15161, Note_on_c, 9, 42, 0
18, 15200, Note_on_c, 9, 42, 30
18, 15201, Note_on_c, 9, 42, 0
18, 15240, Note_on_c, 9, 42, 70
18, 15240, Note_on_c, 9, 37, 50
18, 15241, Note_on_c, 9, 37, 0
18, 15241, Note_on_c, 9, 42, 0
18, 15280, Note_on_c, 9, 42, 30
18, 15281, Note_on_c, 9, 42, 0
18, 15320, Note_on_c, 9, 42, 30
18, 15321, Note_on_c, 9, 42, 0
18, 15360, Note_on_c, 9, 35, 60
18, 15360, Note_on_c, 9, 42, 50
18, 15361, Note_on_c, 9, 42, 0
18, 15361, Note_on_c, 9, 35, 0
18, 15400, Note_on_c, 9, 42, 30
18, 15401, Note_on_c, 9, 42, 0
18, 15440, Note_on_c, 9, 42, 30
18, 15441, Note_on_c, 9, 42, 0
18, 15480, Note_on_c, 9, 42, 70
18, 15480, Note_on_c, 9, 37, 50
18, 15481, Note_on_c, 9, 37, 0
18, 15481, Note_on_c, 9, 42, 0
18, 15520, Note_on_c, 9, 42, 30
18, 15521, Note_on_c, 9, 42, 0
18, 15560, Note_on_c, 9, 35, 30
18, 15560, Note_on_c, 9, 42, 30
18, 15561, Note_on_c, 9, 42, 0
18, 15561, Note_on_c, 9, 35, 0
18, 15600, Note_on_c, 9, 35, 60
18, 15600, Note_on_c, 9, 42, 50
18, 15601, Note_on_c, 9, 42, 0
18, 15601, Note_on_c, 9, 35, 0
18, 15640, Note_on_c, 9, 42, 30
18, 15641, Note_on_c, 9, 42, 0
18, 15680, Note_on_c, 9, 42, 30
18, 15681, Note_on_c, 9, 42, 0
18, 15720, Note_on_c, 9, 42, 70
18, 15720, Note_on_c, 9, 37, 50
18, 15721, Note_on_c, 9, 37, 0
18, 15721, Note_on_c, 9, 42, 0
18, 15760, Note_on_c, 9, 42, 30
18, 15761, Note_on_c, 9, 42, 0
18, 15800, Note_on_c, 9, 46, 40
18, 15801, Note_on_c, 9, 46, 0
18, 15840, Note_on_c, 9, 35, 60
18, 15840, Note_on_c, 9, 42, 50
18, 15841, Note_on_c, 9, 42, 0
18, 15841, Note_on_c, 9, 35, 0
18, 15880, Note_on_c, 9, 42, 30
18, 15881, Note_on_c, 9, 42, 0
18, 15920, Note_on_c, 9, 42, 30
18, 15921, Note_on_c, 9, 42, 0
18, 15960, Note_on_c, 9, 42, 70
18, 15960, Note_on_c, 9, 37, 50
18, 15961, Note_on_c, 9, 37, 0
18, 15961, Note_on_c, 9, 42, 0
18, 16000, Note_on_c, 9, 42, 30
18, 16001, Note_on_c, 9, 42, 0
18, 16040, Note_on_c, 9, 35, 30
18, 16040, Note_on_c, 9, 42, 30
18, 16041, Note_on_c, 9, 42, 0
18, 16041, Note_on_c, 9, 35, 0
18, 16080, Note_on_c, 9, 35, 60
18, 16080, Note_on_c, 9, 42, 50
18, 16081, Note_on_c, 9, 42, 0
18, 16081, Note_on_c, 9, 35, 0
18, 16120, Note_on_c, 9, 42, 30
18, 16121, Note_on_c, 9, 42, 0
18, 16160, Note_on_c, 9, 42, 30
18, 16161, Note_on_c, 9, 42, 0
18, 16200, Note_on_c, 9, 42, 70
18, 16200, Note_on_c, 9, 37, 50
18, 16201, Note_on_c, 9, 37, 0
18, 16201, Note_on_c, 9, 42, 0
18, 16240, Note_on_c, 9, 35, 50
18, 16240, Note_on_c, 9, 42, 30
18, 16241, Note_on_c, 9, 42, 0
18, 16241, Note_on_c, 9, 35, 0
18, 16280, Note_on_c, 9, 46, 40
18, 16281, Note_on_c, 9, 46, 0
18, 16320, Note_on_c, 9, 35, 60
18, 16320, Note_on_c, 9, 42, 50
18, 16321, Note_on_c, 9, 42, 0
18, 16321, Note_on_c, 9, 35, 0
18, 16360, Note_on_c, 9, 42, 30
18, 16361, Note_on_c, 9, 42, 0
18, 16400, Note_on_c, 9, 42, 30
18, 16401, Note_on_c, 9, 42, 0
18, 16440, Note_on_c, 9, 42, 70
18, 16440, Note_on_c, 9, 37, 50
18, 16441, Note_on_c, 9, 37, 0
18, 16441, Note_on_c, 9, 42, 0
18, 16480, Note_on_c, 9, 42, 30
18, 16481, Note_on_c, 9, 42, 0
18, 16520, Note_on_c, 9, 35, 30
18, 16520, Note_on_c, 9, 42, 30
18, 16521, Note_on_c, 9, 42, 0
18, 16521, Note_on_c, 9, 35, 0
18, 16560, Note_on_c, 9, 35, 60
18, 16560, Note_on_c, 9, 42, 50
18, 16561, Note_on_c, 9, 42, 0
18, 16561, Note_on_c, 9, 35, 0
18, 16600, Note_on_c, 9, 42, 30
18, 16601, Note_on_c, 9, 42, 0
18, 16640, Note_on_c, 9, 42, 30
18, 16641, Note_on_c, 9, 42, 0
18, 16680, Note_on_c, 9, 42, 70
18, 16680, Note_on_c, 9, 37, 50
18, 16681, Note_on_c, 9, 37, 0
18, 16681, Note_on_c, 9, 42, 0
18, 16720, Note_on_c, 9, 42, 30
18, 16721, Note_on_c, 9, 42, 0
18, 16760, Note_on_c, 9, 46, 40
18, 16761, Note_on_c, 9, 46, 0
18, 16800, Note_on_c, 9, 35, 60
18, 16800, Note_on_c, 9, 42, 50
18, 16801, Note_on_c, 9, 42, 0
18, 16801, Note_on_c, 9, 35, 0
18, 16840, Note_on_c, 9, 42, 30
18, 16841, Note_on_c, 9, 42, 0
18, 16880, Note_on_c, 9, 42, 30
18, 16881, Note_on_c, 9, 42, 0
18, 16920, Note_on_c, 9, 42, 70
18, 16920, Note_on_c, 9, 37, 50
18, 16921, Note_on_c, 9, 37, 0
18, 16921, Note_on_c, 9, 42, 0
18, 16960, Note_on_c, 9, 42, 30
18, 16961, Note_on_c, 9, 42, 0
18, 17000, Note_on_c, 9, 35, 30
18, 17000, Note_on_c, 9, 42, 30
18, 17001, Note_on_c, 9, 42, 0
18, 17001, Note_on_c, 9, 35, 0
18, 17040, Note_on_c, 9, 35, 60
18, 17040, Note_on_c, 9, 42, 50
18, 17041, Note_on_c, 9, 42, 0
18, 17041, Note_on_c, 9, 35, 0
18, 17080, Note_on_c, 9, 42, 30
18, 17081, Note_on_c, 9, 42, 0
18, 17120, Note_on_c, 9, 42, 30
18, 17121, Note_on_c, 9, 42, 0
18, 17160, Note_on_c, 9, 42, 70
18, 17160, Note_on_c, 9, 37, 50
18, 17161, Note_on_c, 9, 37, 0
18, 17161, Note_on_c, 9, 42, 0
18, 17200, Note_on_c, 9, 42, 30
18, 17201, Note_on_c, 9, 42, 0
18, 17240, Note_on_c, 9, 42, 30
18, 17241, Note_on_c, 9, 42, 0
18, 17280, Note_on_c, 9, 35, 60
18, 17280, Note_on_c, 9, 42, 50
18, 17281, Note_on_c, 9, 42, 0
18, 17281, Note_on_c, 9, 35, 0
18, 17320, Note_on_c, 9, 42, 30
18, 17321, Note_on_c, 9, 42, 0
18, 17360, Note_on_c, 9, 42, 30
18, 17361, Note_on_c, 9, 42, 0
18, 17400, Note_on_c, 9, 42, 70
18, 17400, Note_on_c, 9, 37, 50
18, 17401, Note_on_c, 9, 37, 0
18, 17401, Note_on_c, 9, 42, 0
18, 17440, Note_on_c, 9, 42, 30
18, 17441, Note_on_c, 9, 42, 0
18, 17480, Note_on_c, 9, 35, 30
18, 17480, Note_on_c, 9, 42, 30
18, 17481, Note_on_c, 9, 42, 0
18, 17481, Note_on_c, 9, 35, 0
18, 17520, Note_on_c, 9, 35, 60
18, 17520, Note_on_c, 9, 42, 50
18, 17521, Note_on_c, 9, 42, 0
18, 17521, Note_on_c, 9, 35, 0
18, 17560, Note_on_c, 9, 42, 30
18, 17561, Note_on_c, 9, 42, 0
18, 17600, Note_on_c, 9, 42, 30
18, 17601, Note_on_c, 9, 42, 0
18, 17640, Note_on_c, 9, 42, 70
18, 17640, Note_on_c, 9, 37, 50
18, 17641, Note_on_c, 9, 37, 0
18, 17641, Note_on_c, 9, 42, 0
18, 17680, Note_on_c, 9, 42, 30
18, 17681, Note_on_c, 9, 42, 0
18, 17720, Note_on_c, 9, 46, 40
18, 17721, Note_on_c, 9, 46, 0
18, 17760, Note_on_c, 9, 35, 60
18, 17760, Note_on_c, 9, 42, 50
18, 17761, Note_on_c, 9, 42, 0
18, 17761, Note_on_c, 9, 35, 0
18, 17800, Note_on_c, 9, 42, 30
18, 17801, Note_on_c, 9, 42, 0
18, 17840, Note_on_c, 9, 42, 30
18, 17841, Note_on_c, 9, 42, 0
18, 17880, Note_on_c, 9, 42, 70
18, 17880, Note_on_c, 9, 37, 50
18, 17881, Note_on_c, 9, 37, 0
18, 17881, Note_on_c, 9, 42, 0
18, 17920, Note_on_c, 9, 42, 30
18, 17921, Note_on_c, 9, 42, 0
18, 17960, Note_on_c, 9, 35, 30
18, 17960, Note_on_c, 9, 42, 30
18, 17961, Note_on_c, 9, 42, 0
18, 17961, Note_on_c, 9, 35, 0
18, 18000, Note_on_c, 9, 35, 60
18, 18000, Note_on_c, 9, 42, 50
18, 18001, Note_on_c, 9, 42, 0
18, 18001, Note_on_c, 9, 35, 0
18, 18040, Note_on_c, 9, 42, 30
18, 18041, Note_on_c, 9, 42, 0
18, 18080, Note_on_c, 9, 42, 30
18, 18081, Note_on_c, 9, 42, 0
18, 18120, Note_on_c, 9, 42, 70
18, 18120, Note_on_c, 9, 37, 50
18, 18121, Note_on_c, 9, 37, 0
18, 18121, Note_on_c, 9, 42, 0
18, 18160, Note_on_c, 9, 42, 30
18, 18161, Note_on_c, 9, 42, 0
18, 18200, Note_on_c, 9, 42, 30
18, 18201, Note_on_c, 9, 42, 0
18, 18240, Note_on_c, 9, 35, 60
18, 18240, Note_on_c, 9, 42, 50
18, 18241, Note_on_c, 9, 42, 0
18, 18241, Note_on_c, 9, 35, 0
18, 18280, Note_on_c, 9, 42, 30
18, 18281, Note_on_c, 9, 42, 0
18, 18320, Note_on_c, 9, 42, 30
18, 18321, Note_on_c, 9, 42, 0
18, 18360, Note_on_c, 9, 42, 70
18, 18360, Note_on_c, 9, 37, 50
18, 18361, Note_on_c, 9, 37, 0
18, 18361, Note_on_c, 9, 42, 0
18, 18400, Note_on_c, 9, 42, 30
18, 18401, Note_on_c, 9, 42, 0
18, 18440, Note_on_c, 9, 35, 30
18, 18440, Note_on_c, 9, 42, 30
18, 18441, Note_on_c, 9, 42, 0
18, 18441, Note_on_c, 9, 35, 0
18, 18480, Note_on_c, 9, 35, 60
18, 18480, Note_on_c, 9, 42, 50
18, 18481, Note_on_c, 9, 42, 0
18, 18481, Note_on_c, 9, 35, 0
18, 18520, Note_on_c, 9, 42, 30
18, 18521, Note_on_c, 9, 42, 0
18, 18560, Note_on_c, 9, 42, 30
18, 18561, Note_on_c, 9, 42, 0
18, 18600, Note_on_c, 9, 42, 70
18, 18600, Note_on_c, 9, 37, 50
18, 18601, Note_on_c, 9, 37, 0
18, 18601, Note_on_c, 9, 42, 0
18, 18640, Note_on_c, 9, 42, 30
18, 18641, Note_on_c, 9, 42, 0
18, 18680, Note_on_c, 9, 46, 40
18, 18681, Note_on_c, 9, 46, 0
18, 18720, Note_on_c, 9, 35, 60
18, 18720, Note_on_c, 9, 42, 50
18, 18721, Note_on_c, 9, 42, 0
18, 18721, Note_on_c, 9, 35, 0
18, 18760, Note_on_c, 9, 42, 30
18, 18761, Note_on_c, 9, 42, 0
18, 18800, Note_on_c, 9, 42, 30
18, 18801, Note_on_c, 9, 42, 0
18, 18840, Note_on_c, 9, 42, 70
18, 18840, Note_on_c, 9, 37, 50
18, 18841, Note_on_c, 9, 37, 0
18, 18841, Note_on_c, 9, 42, 0
18, 18880, Note_on_c, 9, 42, 30
18, 18881, Note_on_c, 9, 42, 0
18, 18920, Note_on_c, 9, 35, 30
18, 18920, Note_on_c, 9, 42, 30
18, 18921, Note_on_c, 9, 42, 0
18, 18921, Note_on_c, 9, 35, 0
18, 18960, Note_on_c, 9, 35, 60
18, 18960, Note_on_c, 9, 42, 50
18, 18961, Note_on_c, 9, 42, 0
18, 18961, Note_on_c, 9, 35, 0
18, 19000, Note_on_c, 9, 42, 30
18, 19001, Note_on_c, 9, 42, 0
18, 19040, Note_on_c, 9, 42, 30
18, 19041, Note_on_c, 9, 42, 0
18, 19080, Note_on_c, 9, 42, 70
18, 19080, Note_on_c, 9, 37, 50
18, 19081, Note_on_c, 9, 37, 0
18, 19081, Note_on_c, 9, 42, 0
18, 19120, Note_on_c, 9, 42, 30
18, 19121, Note_on_c, 9, 42, 0
18, 19160, Note_on_c, 9, 46, 40
18, 19161, Note_on_c, 9, 46, 0
18, 19200, Note_on_c, 9, 35, 60
18, 19200, Note_on_c, 9, 42, 50
18, 19201, Note_on_c, 9, 42, 0
18, 19201, Note_on_c, 9, 35, 0
18, 19240, Note_on_c, 9, 42, 30
18, 19241, Note_on_c, 9, 42, 0
18, 19280, Note_on_c, 9, 42, 30
18, 19281, Note_on_c, 9, 42, 0
18, 19320, Note_on_c, 9, 42, 70
18, 19320, Note_on_c, 9, 37, 50
18, 19321, Note_on_c, 9, 37, 0
18, 19321, Note_on_c, 9, 42, 0
18, 19360, Note_on_c, 9, 42, 30
18, 19361, Note_on_c, 9, 42, 0
18, 19400, Note_on_c, 9, 35, 30
18, 19400, Note_on_c, 9, 42, 30
18, 19401, Note_on_c, 9, 42, 0
18, 19401, Note_on_c, 9, 35, 0
18, 19440, Note_on_c, 9, 35, 60
18, 19440, Note_on_c, 9, 42, 50
18, 19441, Note_on_c, 9, 42, 0
18, 19441, Note_on_c, 9, 35, 0
18, 19480, Note_on_c, 9, 42, 30
18, 19481, Note_on_c, 9, 42, 0
18, 19520, Note_on_c, 9, 42, 30
18, 19521, Note_on_c, 9, 42, 0
18, 19560, Note_on_c, 9, 42, 70
18, 19560, Note_on_c, 9, 37, 50
18, 19561, Note_on_c, 9, 37, 0
18, 19561, Note_on_c, 9, 42, 0
18, 19600, Note_on_c, 9, 42, 30
18, 19601, Note_on_c, 9, 42, 0
18, 19640, Note_on_c, 9, 42, 30
18, 19641, Note_on_c, 9, 42, 0
18, 19680, Note_on_c, 9, 35, 60
18, 19680, Note_on_c, 9, 42, 50
18, 19681, Note_on_c, 9, 42, 0
18, 19681, Note_on_c, 9, 35, 0
18, 19720, Note_on_c, 9, 42, 30
18, 19721, Note_on_c, 9, 42, 0
18, 19760, Note_on_c, 9, 42, 30
18, 19761, Note_on_c, 9, 42, 0
18, 19800, Note_on_c, 9, 42, 70
18, 19800, Note_on_c, 9, 37, 50
18, 19801, Note_on_c, 9, 37, 0
18, 19801, Note_on_c, 9, 42, 0
18, 19840, Note_on_c, 9, 42, 30
18, 19841, Note_on_c, 9, 42, 0
18, 19880, Note_on_c, 9, 35, 30
18, 19880, Note_on_c, 9, 42, 30
18, 19881, Note_on_c, 9, 42, 0
18, 19881, Note_on_c, 9, 35, 0
18, 19920, Note_on_c, 9, 35, 60
18, 19920, Note_on_c, 9, 42, 50
18, 19921, Note_on_c, 9, 42, 0
18, 19921, Note_on_c, 9, 35, 0
18, 19960, Note_on_c, 9, 42, 30
18, 19961, Note_on_c, 9, 42, 0
18, 20000, Note_on_c, 9, 42, 30
18, 20001, Note_on_c, 9, 42, 0
18, 20040, Note_on_c, 9, 42, 70
18, 20040, Note_on_c, 9, 37, 50
18, 20041, Note_on_c, 9, 37, 0
18, 20041, Note_on_c, 9, 42, 0
18, 20080, Note_on_c, 9, 42, 30
18, 20081, Note_on_c, 9, 42, 0
18, 20120, Note_on_c, 9, 42, 30
18, 20121, Note_on_c, 9, 42, 0
18, 20160, Note_on_c, 9, 35, 60
18, 20160, Note_on_c, 9, 42, 50
18, 20161, Note_on_c, 9, 42, 0
18, 20161, Note_on_c, 9, 35, 0
18, 20200, Note_on_c, 9, 42, 30
18, 20201, Note_on_c, 9, 42, 0
18, 20240, Note_on_c, 9, 42, 30
18, 20241, Note_on_c, 9, 42, 0
18, 20280, Note_on_c, 9, 42, 70
18, 20280, Note_on_c, 9, 37, 50
18, 20281, Note_on_c, 9, 37, 0
18, 20281, Note_on_c, 9, 42, 0
18, 20320, Note_on_c, 9, 42, 30
18, 20321, Note_on_c, 9, 42, 0
18, 20360, Note_on_c, 9, 35, 30
18, 20360, Note_on_c, 9, 42, 30
18, 20361, Note_on_c, 9, 42, 0
18, 20361, Note_on_c, 9, 35, 0
18, 20400, Note_on_c, 9, 35, 60
18, 20400, Note_on_c, 9, 42, 50
18, 20401, Note_on_c, 9, 42, 0
18, 20401, Note_on_c, 9, 35, 0
18, 20440, Note_on_c, 9, 42, 30
18, 20441, Note_on_c, 9, 42, 0
18, 20480, Note_on_c, 9, 42, 30
18, 20481, Note_on_c, 9, 42, 0
18, 20520, Note_on_c, 9, 42, 70
18, 20520, Note_on_c, 9, 37, 50
18, 20521, Note_on_c, 9, 37, 0
18, 20521, Note_on_c, 9, 42, 0
18, 20560, Note_on_c, 9, 42, 30
18, 20561, Note_on_c, 9, 42, 0
18, 20600, Note_on_c, 9, 46, 40
18, 20601, Note_on_c, 9, 46, 0
18, 20640, Note_on_c, 9, 35, 60
18, 20640, Note_on_c, 9, 42, 50
18, 20641, Note_on_c, 9, 42, 0
18, 20641, Note_on_c, 9, 35, 0
18, 20680, Note_on_c, 9, 42, 30
18, 20681, Note_on_c, 9, 42, 0
18, 20720, Note_on_c, 9, 42, 30
18, 20721, Note_on_c, 9, 42, 0
18, 20760, Note_on_c, 9, 42, 70
18, 20760, Note_on_c, 9, 37, 50
18, 20761, Note_on_c, 9, 37, 0
18, 20761, Note_on_c, 9, 42, 0
18, 20800, Note_on_c, 9, 42, 30
18, 20801, Note_on_c, 9, 42, 0
18, 20840, Note_on_c, 9, 35, 30
18, 20840, Note_on_c, 9, 42, 30
18, 20841, Note_on_c, 9, 42, 0
18, 20841, Note_on_c, 9, 35, 0
18, 20880, Note_on_c, 9, 35, 60
18, 20880, Note_on_c, 9, 42, 50
18, 20881, Note_on_c, 9, 42, 0
18, 20881, Note_on_c, 9, 35, 0
18, 20920, Note_on_c, 9, 42, 30
18, 20921, Note_on_c, 9, 42, 0
18, 20960, Note_on_c, 9, 42, 30
18, 20961, Note_on_c, 9, 42, 0
18, 21000, Note_on_c, 9, 42, 70
18, 21000, Note_on_c, 9, 37, 50
18, 21001, Note_on_c, 9, 37, 0
18, 21001, Note_on_c, 9, 42, 0
18, 21040, Note_on_c, 9, 42, 30
18, 21041, Note_on_c, 9, 42, 0
18, 21080, Note_on_c, 9, 42, 30
18, 21081, Note_on_c, 9, 42, 0
18, 21120, Note_on_c, 9, 35, 60
18, 21120, Note_on_c, 9, 42, 50
18, 21121, Note_on_c, 9, 42, 0
18, 21121, Note_on_c, 9, 35, 0
18, 21160, Note_on_c, 9, 42, 30
18, 21161, Note_on_c, 9, 42, 0
18, 21200, Note_on_c, 9, 42, 30
18, 21201, Note_on_c, 9, 42, 0
18, 21240, Note_on_c, 9, 42, 70
18, 21240, Note_on_c, 9, 37, 50
18, 21241, Note_on_c, 9, 37, 0
18, 21241, Note_on_c, 9, 42, 0
18, 21280, Note_on_c, 9, 42, 30
18, 21281, Note_on_c, 9, 42, 0
18, 21320, Note_on_c, 9, 35, 30
18, 21320, Note_on_c, 9, 42, 30
18, 21321, Note_on_c, 9, 42, 0
18, 21321, Note_on_c, 9, 35, 0
18, 21360, Note_on_c, 9, 35, 60
18, 21360, Note_on_c, 9, 42, 50
18, 21361, Note_on_c, 9, 42, 0
18, 21361, Note_on_c, 9, 35, 0
18, 21400, Note_on_c, 9, 42, 30
18, 21401, Note_on_c, 9, 42, 0
18, 21440, Note_on_c, 9, 42, 30
18, 21441, Note_on_c, 9, 42, 0
18, 21480, Note_on_c, 9, 42, 70
18, 21480, Note_on_c, 9, 37, 50
18, 21481, Note_on_c, 9, 37, 0
18, 21481, Note_on_c, 9, 42, 0
18, 21520, Note_on_c, 9, 42, 30
18, 21521, Note_on_c, 9, 42, 0
18, 21560, Note_on_c, 9, 46, 40
18, 21561, Note_on_c, 9, 46, 0
18, 21600, Note_on_c, 9, 35, 60
18, 21600, Note_on_c, 9, 42, 50
18, 21601, Note_on_c, 9, 42, 0
18, 21601, Note_on_c, 9, 35, 0
18, 21640, Note_on_c, 9, 42, 30
18, 21641, Note_on_c, 9, 42, 0
18, 21680, Note_on_c, 9, 42, 30
18, 21681, Note_on_c, 9, 42, 0
18, 21720, Note_on_c, 9, 42, 70
18, 21720, Note_on_c, 9, 37, 50
18, 21721, Note_on_c, 9, 37, 0
18, 21721, Note_on_c, 9, 42, 0
18, 21760, Note_on_c, 9, 42, 30
18, 21761, Note_on_c, 9, 42, 0
18, 21800, Note_on_c, 9, 35, 30
18, 21800, Note_on_c, 9, 42, 30
18, 21801, Note_on_c, 9, 42, 0
18, 21801, Note_on_c, 9, 35, 0
18, 21840, Note_on_c, 9, 35, 60
18, 21840, Note_on_c, 9, 42, 50
18, 21841, Note_on_c, 9, 42, 0
18, 21841, Note_on_c, 9, 35, 0
18, 21880, Note_on_c, 9, 42, 30
18, 21881, Note_on_c, 9, 42, 0
18, 21920, Note_on_c, 9, 42, 30
18, 21921, Note_on_c, 9, 42, 0
18, 21960, Note_on_c, 9, 42, 70
18, 21960, Note_on_c, 9, 37, 50
18, 21961, Note_on_c, 9, 37, 0
18, 21961, Note_on_c, 9, 42, 0
18, 22000, Note_on_c, 9, 42, 30
18, 22001, Note_on_c, 9, 42, 0
18, 22040, Note_on_c, 9, 46, 40
18, 22041, Note_on_c, 9, 46, 0
18, 22080, Note_on_c, 9, 35, 60
18, 22080, Note_on_c, 9, 42, 50
18, 22081, Note_on_c, 9, 42, 0
18, 22081, Note_on_c, 9, 35, 0
18, 22120, Note_on_c, 9, 42, 30
18, 22121, Note_on_c, 9, 42, 0
18, 22160, Note_on_c, 9, 42, 30
18, 22161, Note_on_c, 9, 42, 0
18, 22200, Note_on_c, 9, 42, 70
18, 22200, Note_on_c, 9, 37, 50
18, 22201, Note_on_c, 9, 37, 0
18, 22201, Note_on_c, 9, 42, 0
18, 22240, Note_on_c, 9, 42, 30
18, 22241, Note_on_c, 9, 42, 0
18, 22280, Note_on_c, 9, 35, 30
18, 22280, Note_on_c, 9, 42, 30
18, 22281, Note_on_c, 9, 42, 0
18, 22281, Note_on_c, 9, 35, 0
18, 22320, Note_on_c, 9, 35, 60
18, 22320, Note_on_c, 9, 42, 50
18, 22321, Note_on_c, 9, 42, 0
18, 22321, Note_on_c, 9, 35, 0
18, 22360, Note_on_c, 9, 42, 30
18, 22361, Note_on_c, 9, 42, 0
18, 22400, Note_on_c, 9, 42, 30
18, 22401, Note_on_c, 9, 42, 0
18, 22440, Note_on_c, 9, 42, 70
18, 22440, Note_on_c, 9, 37, 50
18, 22441, Note_on_c, 9, 37, 0
18, 22441, Note_on_c, 9, 42, 0
18, 22480, Note_on_c, 9, 42, 30
18, 22481, Note_on_c, 9, 42, 0
18, 22520, Note_on_c, 9, 42, 30
18, 22521, Note_on_c, 9, 42, 0
18, 22560, Note_on_c, 9, 35, 60
18, 22560, Note_on_c, 9, 42, 50
18, 22561, Note_on_c, 9, 42, 0
18, 22561, Note_on_c, 9, 35, 0
18, 22600, Note_on_c, 9, 42, 30
18, 22601, Note_on_c, 9, 42, 0
18, 22640, Note_on_c, 9, 42, 30
18, 22641, Note_on_c, 9, 42, 0
18, 22680, Note_on_c, 9, 42, 70
18, 22680, Note_on_c, 9, 37, 50
18, 22681, Note_on_c, 9, 37, 0
18, 22681, Note_on_c, 9, 42, 0
18, 22720, Note_on_c, 9, 42, 30
18, 22721, Note_on_c, 9, 42, 0
18, 22760, Note_on_c, 9, 35, 30
18, 22760, Note_on_c, 9, 42, 30
18, 22761, Note_on_c, 9, 42, 0
18, 22761, Note_on_c, 9, 35, 0
18, 22800, Note_on_c, 9, 35, 60
18, 22800, Note_on_c, 9, 42, 50
18, 22801, Note_on_c, 9, 42, 0
18, 22801, Note_on_c, 9, 35, 0
18, 22840, Note_on_c, 9, 42, 30
18, 22841, Note_on_c, 9, 42, 0
18, 22880, Note_on_c, 9, 42, 30
18, 22881, Note_on_c, 9, 42, 0
18, 22920, Note_on_c, 9, 42, 70
18, 22920, Note_on_c, 9, 37, 50
18, 22921, Note_on_c, 9, 37, 0
18, 22921, Note_on_c, 9, 42, 0
18, 22960, Note_on_c, 9, 42, 30
18, 22961, Note_on_c, 9, 42, 0
18, 23000, Note_on_c, 9, 42, 30
18, 23001, Note_on_c, 9, 42, 0
18, 23040, Note_on_c, 9, 35, 60
18, 23040, Note_on_c, 9, 42, 50
18, 23041, Note_on_c, 9, 42, 0
18, 23041, Note_on_c, 9, 35, 0
18, 23080, Note_on_c, 9, 42, 30
18, 23081, Note_on_c, 9, 42, 0
18, 23120, Note_on_c, 9, 42, 30
18, 23121, Note_on_c, 9, 42, 0
18, 23160, Note_on_c, 9, 42, 70
18, 23160, Note_on_c, 9, 37, 50
18, 23161, Note_on_c, 9, 37, 0
18, 23161, Note_on_c, 9, 42, 0
18, 23200, Note_on_c, 9, 42, 30
18, 23201, Note_on_c, 9, 42, 0
18, 23240, Note_on_c, 9, 35, 30
18, 23240, Note_on_c, 9, 42, 30
18, 23241, Note_on_c, 9, 42, 0
18, 23241, Note_on_c, 9, 35, 0
18, 23280, Note_on_c, 9, 35, 60
18, 23280, Note_on_c, 9, 42, 50
18, 23281, Note_on_c, 9, 42, 0
18, 23281, Note_on_c, 9, 35, 0
18, 23320, Note_on_c, 9, 42, 30
18, 23321, Note_on_c, 9, 42, 0
18, 23360, Note_on_c, 9, 42, 30
18, 23361, Note_on_c, 9, 42, 0
18, 23400, Note_on_c, 9, 42, 70
18, 23400, Note_on_c, 9, 37, 50
18, 23401, Note_on_c, 9, 37, 0
18, 23401, Note_on_c, 9, 42, 0
18, 23440, Note_on_c, 9, 42, 30
18, 23441, Note_on_c, 9, 42, 0
18, 23480, Note_on_c, 9, 42, 30
18, 23481, Note_on_c, 9, 42, 0
18, 23520, Note_on_c, 9, 35, 60
18, 23520, Note_on_c, 9, 42, 50
18, 23521, Note_on_c, 9, 42, 0
18, 23521, Note_on_c, 9, 35, 0
18, 23560, Note_on_c, 9, 42, 30
18, 23561, Note_on_c, 9, 42, 0
18, 23600, Note_on_c, 9, 42, 30
18, 23601, Note_on_c, 9, 42, 0
18, 23640, Note_on_c, 9, 42, 70
18, 23640, Note_on_c, 9, 37, 50
18, 23641, Note_on_c, 9, 37, 0
18, 23641, Note_on_c, 9, 42, 0
18, 23680, Note_on_c, 9, 42, 30
18, 23681, Note_on_c, 9, 42, 0
18, 23720, Note_on_c, 9, 35, 30
18, 23720, Note_on_c, 9, 42, 30
18, 23721, Note_on_c, 9, 42, 0
18, 23721, Note_on_c, 9, 35, 0
18, 23760, Note_on_c, 9, 35, 60
18, 23760, Note_on_c, 9, 42, 50
18, 23761, Note_on_c, 9, 42, 0
18, 23761, Note_on_c, 9, 35, 0
18, 23800, Note_on_c, 9, 42, 30
18, 23801, Note_on_c, 9, 42, 0
18, 23840, Note_on_c, 9, 42, 30
18, 23841, Note_on_c, 9, 42, 0
18, 23880, Note_on_c, 9, 42, 70
18, 23880, Note_on_c, 9, 37, 50
18, 23881, Note_on_c, 9, 37, 0
18, 23881, Note_on_c, 9, 42, 0
18, 23920, Note_on_c, 9, 42, 30
18, 23921, Note_on_c, 9, 42, 0
18, 23960, Note_on_c, 9, 46, 40
18, 23961, Note_on_c, 9, 46, 0
18, 24000, Note_on_c, 9, 35, 60
18, 24000, Note_on_c, 9, 42, 50
18, 24001, Note_on_c, 9, 42, 0
18, 24001, Note_on_c, 9, 35, 0
18, 24040, Note_on_c, 9, 42, 30
18, 24041, Note_on_c, 9, 42, 0
18, 24080, Note_on_c, 9, 42, 30
18, 24081, Note_on_c, 9, 42, 0
18, 24120, Note_on_c, 9, 42, 70
18, 24120, Note_on_c, 9, 37, 50
18, 24121, Note_on_c, 9, 37, 0
18, 24121, Note_on_c, 9, 42, 0
18, 24160, Note_on_c, 9, 42, 30
18, 24161, Note_on_c, 9, 42, 0
18, 24200, Note_on_c, 9, 35, 30
18, 24200, Note_on_c, 9, 42, 30
18, 24201, Note_on_c, 9, 42, 0
18, 24201, Note_on_c, 9, 35, 0
18, 24240, Note_on_c, 9, 35, 60
18, 24240, Note_on_c, 9, 42, 50
18, 24241, Note_on_c, 9, 42, 0
18, 24241, Note_on_c, 9, 35, 0
18, 24280, Note_on_c, 9, 42, 30
18, 24281, Note_on_c, 9, 42, 0
18, 24320, Note_on_c, 9, 42, 30
18, 24321, Note_on_c, 9, 42, 0
18, 24360, Note_on_c, 9, 42, 70
18, 24360, Note_on_c, 9, 37, 50
18, 24361, Note_on_c, 9, 37, 0
18, 24361, Note_on_c, 9, 42, 0
18, 24400, Note_on_c, 9, 42, 30
18, 24401, Note_on_c, 9, 42, 0
18, 24440, Note_on_c, 9, 46, 40
18, 24441, Note_on_c, 9, 46, 0
18, 24480, Note_on_c, 9, 35, 60
18, 24480, Note_on_c, 9, 42, 50
18, 24481, Note_on_c, 9, 42, 0
18, 24481, Note_on_c, 9, 35, 0
18, 24520, Note_on_c, 9, 42, 30
18, 24521, Note_on_c, 9, 42, 0
18, 24560, Note_on_c, 9, 42, 30
18, 24561, Note_on_c, 9, 42, 0
18, 24600, Note_on_c, 9, 42, 70
18, 24600, Note_on_c, 9, 37, 50
18, 24601, Note_on_c, 9, 37, 0
18, 24601, Note_on_c, 9, 42, 0
18, 24640, Note_on_c, 9, 42, 30
18, 24641, Note_on_c, 9, 42, 0
18, 24680, Note_on_c, 9, 35, 30
18, 24680, Note_on_c, 9, 42, 30
18, 24681, Note_on_c, 9, 42, 0
18, 24681, Note_on_c, 9, 35, 0
18, 24720, Note_on_c, 9, 35, 60
18, 24720, Note_on_c, 9, 42, 50
18, 24721, Note_on_c, 9, 42, 0
18, 24721, Note_on_c, 9, 35, 0
18, 24760, Note_on_c, 9, 42, 30
18, 24761, Note_on_c, 9, 42, 0
18, 24800, Note_on_c, 9, 42, 30
18, 24801, Note_on_c, 9, 42, 0
18, 24840, Note_on_c, 9, 42, 70
18, 24840, Note_on_c, 9, 37, 50
18, 24841, Note_on_c, 9, 37, 0
18, 24841, Note_on_c, 9, 42, 0
18, 24880, Note_on_c, 9, 42, 30
18, 24881, Note_on_c, 9, 42, 0
18, 24920, Note_on_c, 9, 46, 40
18, 24921, Note_on_c, 9, 46, 0
18, 24960, Note_on_c, 9, 35, 60
18, 24960, Note_on_c, 9, 42, 50
18, 24961, Note_on_c, 9, 42, 0
18, 24961, Note_on_c, 9, 35, 0
18, 25000, Note_on_c, 9, 42, 30
18, 25001, Note_on_c, 9, 42, 0
18, 25040, Note_on_c, 9, 42, 30
18, 25041, Note_on_c, 9, 42, 0
18, 25080, Note_on_c, 9, 42, 70
18, 25080, Note_on_c, 9, 37, 50
18, 25081, Note_on_c, 9, 37, 0
18, 25081, Note_on_c, 9, 42, 0
18, 25120, Note_on_c, 9, 42, 30
18, 25121, Note_on_c, 9, 42, 0
18, 25160, Note_on_c, 9, 35, 30
18, 25160, Note_on_c, 9, 42, 30
18, 25161, Note_on_c, 9, 42, 0
18, 25161, Note_on_c, 9, 35, 0
18, 25200, Note_on_c, 9, 35, 60
18, 25200, Note_on_c, 9, 42, 50
18, 25201, Note_on_c, 9, 42, 0
18, 25201, Note_on_c, 9, 35, 0
18, 25240, Note_on_c, 9, 42, 30
18, 25241, Note_on_c, 9, 42, 0
18, 25280, Note_on_c, 9, 42, 30
18, 25281, Note_on_c, 9, 42, 0
18, 25320, Note_on_c, 9, 42, 70
18, 25320, Note_on_c, 9, 37, 50
18, 25321, Note_on_c, 9, 37, 0
18, 25321, Note_on_c, 9, 42, 0
18, 25360, Note_on_c, 9, 42, 30
18, 25361, Note_on_c, 9, 42, 0
18, 25400, Note_on_c, 9, 42, 30
18, 25401, Note_on_c, 9, 42, 0
18, 25440, Note_on_c, 9, 35, 60
18, 25440, Note_on_c, 9, 42, 50
18, 25441, Note_on_c, 9, 42, 0
18, 25441, Note_on_c, 9, 35, 0
18, 25480, Note_on_c, 9, 42, 30
18, 25481, Note_on_c, 9, 42, 0
18, 25520, Note_on_c, 9, 42, 30
18, 25521, Note_on_c, 9, 42, 0
18, 25560, Note_on_c, 9, 42, 70
18, 25560, Note_on_c, 9, 37, 50
18, 25561, Note_on_c, 9, 37, 0
18, 25561, Note_on_c, 9, 42, 0
18, 25600, Note_on_c, 9, 42, 30
18, 25601, Note_on_c, 9, 42, 0
18, 25640, Note_on_c, 9, 35, 30
18, 25640, Note_on_c, 9, 42, 30
18, 25641, Note_on_c, 9, 42, 0
18, 25641, Note_on_c, 9, 35, 0
18, 25680, Note_on_c, 9, 35, 60
18, 25680, Note_on_c, 9, 42, 50
18, 25681, Note_on_c, 9, 42, 0
18, 25681, Note_on_c, 9, 35, 0
18, 25720, Note_on_c, 9, 42, 30
18, 25721, Note_on_c, 9, 42, 0
18, 25760, Note_on_c, 9, 42, 30
18, 25761, Note_on_c, 9, 42, 0
18, 25800, Note_on_c, 9, 42, 70
18, 25800, Note_on_c, 9, 37, 50
18, 25801, Note_on_c, 9, 37, 0
18, 25801, Note_on_c, 9, 42, 0
18, 25840, Note_on_c, 9, 42, 30
18, 25841, Note_on_c, 9, 42, 0
18, 25880, Note_on_c, 9, 42, 30
18, 25881, Note_on_c, 9, 42, 0
18, 25920, Note_on_c, 9, 35, 60
18, 25920, Note_on_c, 9, 42, 50
18, 25921, Note_on_c, 9, 42, 0
18, 25921, Note_on_c, 9, 35, 0
18, 25960, Note_on_c, 9, 42, 30
18, 25961, Note_on_c, 9, 42, 0
18, 26000, Note_on_c, 9, 42, 30
18, 26001, Note_on_c, 9, 42, 0
18, 26040, Note_on_c, 9, 42, 70
18, 26040, Note_on_c, 9, 37, 50
18, 26041, Note_on_c, 9, 37, 0
18, 26041, Note_on_c, 9, 42, 0
18, 26080, Note_on_c, 9, 42, 30
18, 26081, Note_on_c, 9, 42, 0
18, 26120, Note_on_c, 9, 35, 30
18, 26120, Note_on_c, 9, 42, 30
18, 26121, Note_on_c, 9, 42, 0
18, 26121, Note_on_c, 9, 35, 0
18, 26160, Note_on_c, 9, 35, 60
18, 26160, Note_on_c, 9, 42, 50
18, 26161, Note_on_c, 9, 42, 0
18, 26161, Note_on_c, 9, 35, 0
18, 26200, Note_on_c, 9, 42, 30
18, 26201, Note_on_c, 9, 42, 0
18, 26240, Note_on_c, 9, 42, 30
18, 26241, Note_on_c, 9, 42, 0
18, 26280, Note_on_c, 9, 42, 70
18, 26280, Note_on_c, 9, 37, 50
18, 26281, Note_on_c, 9, 37, 0
18, 26281, Note_on_c, 9, 42, 0
18, 26320, Note_on_c, 9, 42, 30
18, 26321, Note_on_c, 9, 42, 0
18, 26360, Note_on_c, 9, 42, 30
18, 26361, Note_on_c, 9, 42, 0
18, 26400, Note_on_c, 9, 35, 60
18, 26400, Note_on_c, 9, 42, 50
18, 26401, Note_on_c, 9, 42, 0
18, 26401, Note_on_c, 9, 35, 0
18, 26440, Note_on_c, 9, 42, 30
18, 26441, Note_on_c, 9, 42, 0
18, 26480, Note_on_c, 9, 42, 30
18, 26481, Note_on_c, 9, 42, 0
18, 26520, Note_on_c, 9, 42, 70
18, 26520, Note_on_c, 9, 37, 50
18, 26521, Note_on_c, 9, 37, 0
18, 26521, Note_on_c, 9, 42, 0
18, 26560, Note_on_c, 9, 42, 30
18, 26561, Note_on_c, 9, 42, 0
18, 26600, Note_on_c, 9, 35, 30
18, 26600, Note_on_c, 9, 42, 30
18, 26601, Note_on_c, 9, 42, 0
18, 26601, Note_on_c, 9, 35, 0
18, 26640, Note_on_c, 9, 35, 60
18, 26640, Note_on_c, 9, 42, 50
18, 26641, Note_on_c, 9, 42, 0
18, 26641, Note_on_c, 9, 35, 0
18, 26680, Note_on_c, 9, 42, 30
18, 26681, Note_on_c, 9, 42, 0
18, 26720, Note_on_c, 9, 42, 30
18, 26721, Note_on_c, 9, 42, 0
18, 26760, Note_on_c, 9, 42, 70
18, 26760, Note_on_c, 9, 37, 50
18, 26761, Note_on_c, 9, 37, 0
18, 26761, Note_on_c, 9, 42, 0
18, 26800, Note_on_c, 9, 42, 30
18, 26801, Note_on_c, 9, 42, 0
18, 26840, Note_on_c, 9, 42, 30
18, 26841, Note_on_c, 9, 42, 0
18, 26880, Note_on_c, 9, 35, 60
18, 26880, Note_on_c, 9, 42, 50
18, 26881, Note_on_c, 9, 42, 0
18, 26881, Note_on_c, 9, 35, 0
18, 26920, Note_on_c, 9, 42, 30
18, 26921, Note_on_c, 9, 42, 0
18, 26960, Note_on_c, 9, 42, 30
18, 26961, Note_on_c, 9, 42, 0
18, 27000, Note_on_c, 9, 42, 70
18, 27000, Note_on_c, 9, 37, 50
18, 27001, Note_on_c, 9, 37, 0
18, 27001, Note_on_c, 9, 42, 0
18, 27040, Note_on_c, 9, 42, 30
18, 27041, Note_on_c, 9, 42, 0
18, 27080, Note_on_c, 9, 35, 30
18, 27080, Note_on_c, 9, 42, 30
18, 27081, Note_on_c, 9, 42, 0
18, 27081, Note_on_c, 9, 35, 0
18, 27120, Note_on_c, 9, 35, 60
18, 27120, Note_on_c, 9, 42, 50
18, 27121, Note_on_c, 9, 42, 0
18, 27121, Note_on_c, 9, 35, 0
18, 27160, Note_on_c, 9, 42, 30
18, 27161, Note_on_c, 9, 42, 0
18, 27200, Note_on_c, 9, 42, 30
18, 27201, Note_on_c, 9, 42, 0
18, 27240, Note_on_c, 9, 42, 70
18, 27240, Note_on_c, 9, 37, 50
18, 27241, Note_on_c, 9, 37, 0
18, 27241, Note_on_c, 9, 42, 0
18, 27280, Note_on_c, 9, 42, 30
18, 27281, Note_on_c, 9, 42, 0
18, 27320, Note_on_c, 9, 46, 40
18, 27321, Note_on_c, 9, 46, 0
18, 27360, Note_on_c, 9, 35, 60
18, 27360, Note_on_c, 9, 42, 50
18, 27361, Note_on_c, 9, 42, 0
18, 27361, Note_on_c, 9, 35, 0
18, 27400, Note_on_c, 9, 42, 30
18, 27401, Note_on_c, 9, 42, 0
18, 27440, Note_on_c, 9, 42, 30
18, 27441, Note_on_c, 9, 42, 0
18, 27480, Note_on_c, 9, 42, 70
18, 27480, Note_on_c, 9, 37, 50
18, 27481, Note_on_c, 9, 37, 0
18, 27481, Note_on_c, 9, 42, 0
18, 27520, Note_on_c, 9, 42, 30
18, 27521, Note_on_c, 9, 42, 0
18, 27560, Note_on_c, 9, 35, 30
18, 27560, Note_on_c, 9, 42, 30
18, 27561, Note_on_c, 9, 42, 0
18, 27561, Note_on_c, 9, 35, 0
18, 27600, Note_on_c, 9, 35, 60
18, 27600, Note_on_c, 9, 42, 50
18, 27601, Note_on_c, 9, 42, 0
18, 27601, Note_on_c, 9, 35, 0
18, 27640, Note_on_c, 9, 42, 30
18, 27641, Note_on_c, 9, 42, 0
18, 27680, Note_on_c, 9, 42, 30
18, 27681, Note_on_c, 9, 42, 0
18, 27720, Note_on_c, 9, 42, 70
18, 27720, Note_on_c, 9, 37, 50
18, 27721, Note_on_c, 9, 37, 0
18, 27721, Note_on_c, 9, 42, 0
18, 27760, Note_on_c, 9, 42, 30
18, 27761, Note_on_c, 9, 42, 0
18, 27800, Note_on_c, 9, 46, 40
18, 27801, Note_on_c, 9, 46, 0
18, 27840, Note_on_c, 9, 35, 60
18, 27840, Note_on_c, 9, 42, 50
18, 27841, Note_on_c, 9, 42, 0
18, 27841, Note_on_c, 9, 35, 0
18, 27880, Note_on_c, 9, 42, 30
18, 27881, Note_on_c, 9, 42, 0
18, 27920, Note_on_c, 9, 42, 30
18, 27921, Note_on_c, 9, 42, 0
18, 27960, Note_on_c, 9, 42, 70
18, 27960, Note_on_c, 9, 37, 50
18, 27961, Note_on_c, 9, 37, 0
18, 27961, Note_on_c, 9, 42, 0
18, 28000, Note_on_c, 9, 42, 30
18, 28001, Note_on_c, 9, 42, 0
18, 28040, Note_on_c, 9, 35, 30
18, 28040, Note_on_c, 9, 42, 30
18, 28041, Note_on_c, 9, 42, 0
18, 28041, Note_on_c, 9, 35, 0
18, 28080, Note_on_c, 9, 35, 60
18, 28080, Note_on_c, 9, 42, 50
18, 28081, Note_on_c, 9, 42, 0
18, 28081, Note_on_c, 9, 35, 0
18, 28120, Note_on_c, 9, 42, 30
18, 28121, Note_on_c, 9, 42, 0
18, 28160, Note_on_c, 9, 42, 30
18, 28161, Note_on_c, 9, 42, 0
18, 28200, Note_on_c, 9, 42, 70
18, 28200, Note_on_c, 9, 37, 50
18, 28201, Note_on_c, 9, 37, 0
18, 28201, Note_on_c, 9, 42, 0
18, 28240, Note_on_c, 9, 42, 30
18, 28241, Note_on_c, 9, 42, 0
18, 28280, Note_on_c, 9, 46, 40
18, 28281, Note_on_c, 9, 46, 0
18, 28320, Note_on_c, 9, 35, 60
18, 28320, Note_on_c, 9, 42, 50
18, 28321, Note_on_c, 9, 42, 0
18, 28321, Note_on_c, 9, 35, 0
18, 28360, Note_on_c, 9, 42, 30
18, 28361, Note_on_c, 9, 42, 0
18, 28400, Note_on_c, 9, 42, 30
18, 28401, Note_on_c, 9, 42, 0
18, 28440, Note_on_c, 9, 42, 70
18, 28440, Note_on_c, 9, 37, 50
18, 28441, Note_on_c, 9, 37, 0
18, 28441, Note_on_c, 9, 42, 0
18, 28480, Note_on_c, 9, 42, 30
18, 28481, Note_on_c, 9, 42, 0
18, 28520, Note_on_c, 9, 35, 30
18, 28520, Note_on_c, 9, 42, 30
18, 28521, Note_on_c, 9, 42, 0
18, 28521, Note_on_c, 9, 35, 0
18, 28560, Note_on_c, 9, 35, 60
18, 28560, Note_on_c, 9, 42, 50
18, 28561, Note_on_c, 9, 42, 0
18, 28561, Note_on_c, 9, 35, 0
18, 28600, Note_on_c, 9, 42, 30
18, 28601, Note_on_c, 9, 42, 0
18, 28640, Note_on_c, 9, 42, 30
18, 28641, Note_on_c, 9, 42, 0
18, 28680, Note_on_c, 9, 42, 70
18, 28680, Note_on_c, 9, 37, 50
18, 28681, Note_on_c, 9, 37, 0
18, 28681, Note_on_c, 9, 42, 0
18, 28720, Note_on_c, 9, 42, 30
18, 28721, Note_on_c, 9, 42, 0
18, 28760, Note_on_c, 9, 42, 30
18, 28761, Note_on_c, 9, 42, 0
18, 28800, Note_on_c, 9, 35, 60
18, 28800, Note_on_c, 9, 42, 50
18, 28801, Note_on_c, 9, 42, 0
18, 28801, Note_on_c, 9, 35, 0
18, 28840, Note_on_c, 9, 42, 30
18, 28841, Note_on_c, 9, 42, 0
18, 28880, Note_on_c, 9, 42, 30
18, 28881, Note_on_c, 9, 42, 0
18, 28920, Note_on_c, 9, 42, 70
18, 28920, Note_on_c, 9, 37, 50
18, 28921, Note_on_c, 9, 37, 0
18, 28921, Note_on_c, 9, 42, 0
18, 28960, Note_on_c, 9, 42, 30
18, 28961, Note_on_c, 9, 42, 0
18, 29000, Note_on_c, 9, 35, 30
18, 29000, Note_on_c, 9, 42, 30
18, 29001, Note_on_c, 9, 42, 0
18, 29001, Note_on_c, 9, 35, 0
18, 29040, Note_on_c, 9, 35, 60
18, 29040, Note_on_c, 9, 42, 50
18, 29041, Note_on_c, 9, 42, 0
18, 29041, Note_on_c, 9, 35, 0
18, 29080, Note_on_c, 9, 42, 30
18, 29081, Note_on_c, 9, 42, 0
18, 29120, Note_on_c, 9, 42, 30
18, 29121, Note_on_c, 9, 42, 0
18, 29160, Note_on_c, 9, 42, 70
18, 29160, Note_on_c, 9, 37, 50
18, 29161, Note_on_c, 9, 37, 0
18, 29161, Note_on_c, 9, 42, 0
18, 29200, Note_on_c, 9, 42, 30
18, 29201, Note_on_c, 9, 42, 0
18, 29240, Note_on_c, 9, 42, 30
18, 29241, Note_on_c, 9, 42, 0
18, 29280, Note_on_c, 9, 35, 60
18, 29280, Note_on_c, 9, 42, 50
18, 29281, Note_on_c, 9, 42, 0
18, 29281, Note_on_c, 9, 35, 0
18, 29320, Note_on_c, 9, 42, 30
18, 29321, Note_on_c, 9, 42, 0
18, 29360, Note_on_c, 9, 42, 30
18, 29361, Note_on_c, 9, 42, 0
18, 29400, Note_on_c, 9, 42, 70
18, 29400, Note_on_c, 9, 37, 50
18, 29401, Note_on_c, 9, 37, 0
18, 29401, Note_on_c, 9, 42, 0
18, 29440, Note_on_c, 9, 42, 30
18, 29441, Note_on_c, 9, 42, 0
18, 29480, Note_on_c, 9, 35, 30
18, 29480, Note_on_c, 9, 42, 30
18, 29481, Note_on_c, 9, 42, 0
18, 29481, Note_on_c, 9, 35, 0
18, 29520, Note_on_c, 9, 35, 60
18, 29520, Note_on_c, 9, 42, 50
18, 29521, Note_on_c, 9, 42, 0
18, 29521, Note_on_c, 9, 35, 0
18, 29560, Note_on_c, 9, 42, 30
18, 29561, Note_on_c, 9, 42, 0
18, 29600, Note_on_c, 9, 42, 30
18, 29601, Note_on_c, 9, 42, 0
18, 29640, Note_on_c, 9, 42, 70
18, 29640, Note_on_c, 9, 37, 50
18, 29641, Note_on_c, 9, 37, 0
18, 29641, Note_on_c, 9, 42, 0
18, 29680, Note_on_c, 9, 42, 30
18, 29681, Note_on_c, 9, 42, 0
18, 29720, Note_on_c, 9, 46, 40
18, 29721, Note_on_c, 9, 46, 0
18, 29760, Note_on_c, 9, 35, 60
18, 29760, Note_on_c, 9, 42, 50
18, 29761, Note_on_c, 9, 42, 0
18, 29761, Note_on_c, 9, 35, 0
18, 29800, Note_on_c, 9, 42, 30
18, 29801, Note_on_c, 9, 42, 0
18, 29840, Note_on_c, 9, 42, 30
18, 29841, Note_on_c, 9, 42, 0
18, 29880, Note_on_c, 9, 42, 70
18, 29880, Note_on_c, 9, 37, 50
18, 29881, Note_on_c, 9, 37, 0
18, 29881, Note_on_c, 9, 42, 0
18, 29920, Note_on_c, 9, 42, 30
18, 29921, Note_on_c, 9, 42, 0
18, 29960, Note_on_c, 9, 35, 30
18, 29960, Note_on_c, 9, 42, 30
18, 29961, Note_on_c, 9, 42, 0
18, 29961, Note_on_c, 9, 35, 0
18, 30000, Note_on_c, 9, 35, 60
18, 30000, Note_on_c, 9, 42, 50
18, 30001, Note_on_c, 9, 42, 0
18, 30001, Note_on_c, 9, 35, 0
18, 30040, Note_on_c, 9, 42, 30
18, 30041, Note_on_c, 9, 42, 0
18, 30080, Note_on_c, 9, 42, 30
18, 30081, Note_on_c, 9, 42, 0
18, 30120, Note_on_c, 9, 42, 70
18, 30120, Note_on_c, 9, 37, 50
18, 30121, Note_on_c, 9, 37, 0
18, 30121, Note_on_c, 9, 42, 0
18, 30160, Note_on_c, 9, 42, 30
18, 30161, Note_on_c, 9, 42, 0
18, 30200, Note_on_c, 9, 42, 30
18, 30201, Note_on_c, 9, 42, 0
18, 30240, Note_on_c, 9, 35, 60
18, 30240, Note_on_c, 9, 42, 50
18, 30241, Note_on_c, 9, 42, 0
18, 30241, Note_on_c, 9, 35, 0
18, 30280, Note_on_c, 9, 42, 30
18, 30281, Note_on_c, 9, 42, 0
18, 30320, Note_on_c, 9, 42, 30
18, 30321, Note_on_c, 9, 42, 0
18, 30360, Note_on_c, 9, 42, 70
18, 30360, Note_on_c, 9, 37, 50
18, 30361, Note_on_c, 9, 37, 0
18, 30361, Note_on_c, 9, 42, 0
18, 30400, Note_on_c, 9, 42, 30
18, 30401, Note_on_c, 9, 42, 0
18, 30440, Note_on_c, 9, 35, 30
18, 30440, Note_on_c, 9, 42, 30
18, 30441, Note_on_c, 9, 42, 0
18, 30441, Note_on_c, 9, 35, 0
18, 30480, Note_on_c, 9, 35, 60
18, 30480, Note_on_c, 9, 42, 50
18, 30481, Note_on_c, 9, 42, 0
18, 30481, Note_on_c, 9, 35, 0
18, 30520, Note_on_c, 9, 42, 30
18, 30521, Note_on_c, 9, 42, 0
18, 30560, Note_on_c, 9, 42, 30
18, 30561, Note_on_c, 9, 42, 0
18, 30600, Note_on_c, 9, 42, 70
18, 30600, Note_on_c, 9, 37, 50
18, 30601, Note_on_c, 9, 37, 0
18, 30601, Note_on_c, 9, 42, 0
18, 30640, Note_on_c, 9, 42, 30
18, 30641, Note_on_c, 9, 42, 0
18, 30680, Note_on_c, 9, 46, 40
18, 30681, Note_on_c, 9, 46, 0
18, 30720, Note_on_c, 9, 35, 60
18, 30720, Note_on_c, 9, 42, 50
18, 30721, Note_on_c, 9, 42, 0
18, 30721, Note_on_c, 9, 35, 0
18, 30760, Note_on_c, 9, 42, 30
18, 30761, Note_on_c, 9, 42, 0
18, 30800, Note_on_c, 9, 42, 30
18, 30801, Note_on_c, 9, 42, 0
18, 30840, Note_on_c, 9, 42, 70
18, 30840, Note_on_c, 9, 37, 50
18, 30841, Note_on_c, 9, 37, 0
18, 30841, Note_on_c, 9, 42, 0
18, 30880, Note_on_c, 9, 42, 30
18, 30881, Note_on_c, 9, 42, 0
18, 30920, Note_on_c, 9, 35, 30
18, 30920, Note_on_c, 9, 42, 30
18, 30921, Note_on_c, 9, 42, 0
18, 30921, Note_on_c, 9, 35, 0
18, 30960, Note_on_c, 9, 35, 60
18, 30960, Note_on_c, 9, 42, 50
18, 30961, Note_on_c, 9, 42, 0
18, 30961, Note_on_c, 9, 35, 0
18, 31000, Note_on_c, 9, 42, 30
18, 31001, Note_on_c, 9, 42, 0
18, 31040, Note_on_c, 9, 42, 30
18, 31041, Note_on_c, 9, 42, 0
18, 31080, Note_on_c, 9, 42, 70
18, 31080, Note_on_c, 9, 37, 50
18, 31081, Note_on_c, 9, 37, 0
18, 31081, Note_on_c, 9, 42, 0
18, 31120, Note_on_c, 9, 42, 30
18, 31121, Note_on_c, 9, 42, 0
18, 31160, Note_on_c, 9, 46, 40
18, 31161, Note_on_c, 9, 46, 0
18, 31200, Note_on_c, 9, 35, 60
18, 31200, Note_on_c, 9, 42, 50
18, 31201, Note_on_c, 9, 42, 0
18, 31201, Note_on_c, 9, 35, 0
18, 31240, Note_on_c, 9, 42, 30
18, 31241, Note_on_c, 9, 42, 0
18, 31280, Note_on_c, 9, 42, 30
18, 31281, Note_on_c, 9, 42, 0
18, 31320, Note_on_c, 9, 42, 70
18, 31320, Note_on_c, 9, 37, 50
18, 31321, Note_on_c, 9, 37, 0
18, 31321, Note_on_c, 9, 42, 0
18, 31360, Note_on_c, 9, 42, 30
18, 31361, Note_on_c, 9, 42, 0
18, 31400, Note_on_c, 9, 35, 30
18, 31400, Note_on_c, 9, 42, 30
18, 31401, Note_on_c, 9, 42, 0
18, 31401, Note_on_c, 9, 35, 0
18, 31440, Note_on_c, 9, 35, 60
18, 31440, Note_on_c, 9, 42, 50
18, 31441, Note_on_c, 9, 42, 0
18, 31441, Note_on_c, 9, 35, 0
18, 31480, Note_on_c, 9, 42, 30
18, 31481, Note_on_c, 9, 42, 0
18, 31520, Note_on_c, 9, 42, 30
18, 31521, Note_on_c, 9, 42, 0
18, 31560, Note_on_c, 9, 42, 70
18, 31560, Note_on_c, 9, 37, 50
18, 31561, Note_on_c, 9, 37, 0
18, 31561, Note_on_c, 9, 42, 0
18, 31600, Note_on_c, 9, 42, 30
18, 31601, Note_on_c, 9, 42, 0
18, 31640, Note_on_c, 9, 42, 30
18, 31641, Note_on_c, 9, 42, 0
18, 31680, Note_on_c, 9, 35, 60
18, 31680, Note_on_c, 9, 42, 50
18, 31681, Note_on_c, 9, 42, 0
18, 31681, Note_on_c, 9, 35, 0
18, 31720, Note_on_c, 9, 42, 30
18, 31721, Note_on_c, 9, 42, 0
18, 31760, Note_on_c, 9, 42, 30
18, 31761, Note_on_c, 9, 42, 0
18, 31800, Note_on_c, 9, 42, 70
18, 31800, Note_on_c, 9, 37, 50
18, 31801, Note_on_c, 9, 37, 0
18, 31801, Note_on_c, 9, 42, 0
18, 31840, Note_on_c, 9, 42, 30
18, 31841, Note_on_c, 9, 42, 0
18, 31880, Note_on_c, 9, 35, 30
18, 31880, Note_on_c, 9, 42, 30
18, 31881, Note_on_c, 9, 42, 0
18, 31881, Note_on_c, 9, 35, 0
18, 31920, Note_on_c, 9, 35, 60
18, 31920, Note_on_c, 9, 42, 50
18, 31921, Note_on_c, 9, 42, 0
18, 31921, Note_on_c, 9, 35, 0
18, 31960, Note_on_c, 9, 42, 30
18, 31961, Note_on_c, 9, 42, 0
18, 32000, Note_on_c, 9, 42, 30
18, 32001, Note_on_c, 9, 42, 0
18, 32040, Note_on_c, 9, 42, 70
18, 32040, Note_on_c, 9, 37, 50
18, 32041, Note_on_c, 9, 37, 0
18, 32041, Note_on_c, 9, 42, 0
18, 32080, Note_on_c, 9, 42, 30
18, 32081, Note_on_c, 9, 42, 0
18, 32120, Note_on_c, 9, 46, 40
18, 32121, Note_on_c, 9, 46, 0
18, 32160, Note_on_c, 9, 35, 60
18, 32160, Note_on_c, 9, 42, 50
18, 32161, Note_on_c, 9, 42, 0
18, 32161, Note_on_c, 9, 35, 0
18, 32200, Note_on_c, 9, 42, 30
18, 32201, Note_on_c, 9, 42, 0
18, 32240, Note_on_c, 9, 42, 30
18, 32241, Note_on_c, 9, 42, 0
18, 32280, Note_on_c, 9, 42, 70
18, 32280, Note_on_c, 9, 37, 50
18, 32281, Note_on_c, 9, 37, 0
18, 32281, Note_on_c, 9, 42, 0
18, 32320, Note_on_c, 9, 42, 30
18, 32321, Note_on_c, 9, 42, 0
18, 32360, Note_on_c, 9, 35, 30
18, 32360, Note_on_c, 9, 42, 30
18, 32361, Note_on_c, 9, 42, 0
18, 32361, Note_on_c, 9, 35, 0
18, 32400, Note_on_c, 9, 35, 60
18, 32400, Note_on_c, 9, 42, 50
18, 32401, Note_on_c, 9, 42, 0
18, 32401, Note_on_c, 9, 35, 0
18, 32440, Note_on_c, 9, 42, 30
18, 32441, Note_on_c, 9, 42, 0
18, 32480, Note_on_c, 9, 42, 30
18, 32481, Note_on_c, 9, 42, 0
18, 32520, Note_on_c, 9, 42, 70
18, 32520, Note_on_c, 9, 37, 50
18, 32521, Note_on_c, 9, 37, 0
18, 32521, Note_on_c, 9, 42, 0
18, 32560, Note_on_c, 9, 35, 50
18, 32560, Note_on_c, 9, 42, 30
18, 32561, Note_on_c, 9, 42, 0
18, 32561, Note_on_c, 9, 35, 0
18, 32600, Note_on_c, 9, 46, 40
18, 32601, Note_on_c, 9, 46, 0
18, 32640, Note_on_c, 9, 35, 60
18, 32640, Note_on_c, 9, 42, 50
18, 32641, Note_on_c, 9, 42, 0
18, 32641, Note_on_c, 9, 35, 0
18, 32680, Note_on_c, 9, 42, 30
18, 32681, Note_on_c, 9, 42, 0
18, 32720, Note_on_c, 9, 42, 30
18, 32721, Note_on_c, 9, 42, 0
18, 32760, Note_on_c, 9, 42, 70
18, 32760, Note_on_c, 9, 37, 50
18, 32761, Note_on_c, 9, 37, 0
18, 32761, Note_on_c, 9, 42, 0
18, 32800, Note_on_c, 9, 42, 30
18, 32801, Note_on_c, 9, 42, 0
18, 32840, Note_on_c, 9, 35, 30
18, 32840, Note_on_c, 9, 42, 30
18, 32841, Note_on_c, 9, 42, 0
18, 32841, Note_on_c, 9, 35, 0
18, 32880, Note_on_c, 9, 35, 60
18, 32880, Note_on_c, 9, 42, 50
18, 32881, Note_on_c, 9, 42, 0
18, 32881, Note_on_c, 9, 35, 0
18, 32920, Note_on_c, 9, 42, 30
18, 32921, Note_on_c, 9, 42, 0
18, 32960, Note_on_c, 9, 42, 30
18, 32961, Note_on_c, 9, 42, 0
18, 33000, Note_on_c, 9, 42, 70
18, 33000, Note_on_c, 9, 37, 50
18, 33001, Note_on_c, 9, 37, 0
18, 33001, Note_on_c, 9, 42, 0
18, 33040, Note_on_c, 9, 42, 30
18, 33041, Note_on_c, 9, 42, 0
18, 33080, Note_on_c, 9, 46, 40
18, 33081, Note_on_c, 9, 46, 0
18, 33120, Note_on_c, 9, 35, 60
18, 33120, Note_on_c, 9, 42, 50
18, 33121, Note_on_c, 9, 42, 0
18, 33121, Note_on_c, 9, 35, 0
18, 33160, Note_on_c, 9, 42, 30
18, 33161, Note_on_c, 9, 42, 0
18, 33200, Note_on_c, 9, 42, 30
18, 33201, Note_on_c, 9, 42, 0
18, 33240, Note_on_c, 9, 42, 70
18, 33240, Note_on_c, 9, 37, 50
18, 33241, Note_on_c, 9, 37, 0
18, 33241, Note_on_c, 9, 42, 0
18, 33280, Note_on_c, 9, 42, 30
18, 33281, Note_on_c, 9, 42, 0
18, 33320, Note_on_c, 9, 35, 30
18, 33320, Note_on_c, 9, 42, 30
18, 33321, Note_on_c, 9, 42, 0
18, 33321, Note_on_c, 9, 35, 0
18, 33360, Note_on_c, 9, 35, 60
18, 33360, Note_on_c, 9, 42, 50
18, 33361, Note_on_c, 9, 42, 0
18, 33361, Note_on_c, 9, 35, 0
18, 33400, Note_on_c, 9, 42, 30
18, 33401, Note_on_c, 9, 42, 0
18, 33440, Note_on_c, 9, 42, 30
18, 33441, Note_on_c, 9, 42, 0
18, 33480, Note_on_c, 9, 42, 70
18, 33480, Note_on_c, 9, 37, 50
18, 33481, Note_on_c, 9, 37, 0
18, 33481, Note_on_c, 9, 42, 0
18, 33520, Note_on_c, 9, 42, 30
18, 33521, Note_on_c, 9, 42, 0
18, 33560, Note_on_c, 9, 46, 40
18, 33561, Note_on_c, 9, 46, 0
18, 33600, Note_on_c, 9, 35, 60
18, 33600, Note_on_c, 9, 42, 50
18, 33601, Note_on_c, 9, 42, 0
18, 33601, Note_on_c, 9, 35, 0
18, 33640, Note_on_c, 9, 42, 30
18, 33641, Note_on_c, 9, 42, 0
18, 33680, Note_on_c, 9, 42, 30
18, 33681, Note_on_c, 9, 42, 0
18, 33720, Note_on_c, 9, 42, 70
18, 33720, Note_on_c, 9, 37, 50
18, 33721, Note_on_c, 9, 37, 0
18, 33721, Note_on_c, 9, 42, 0
18, 33760, Note_on_c, 9, 42, 30
18, 33761, Note_on_c, 9, 42, 0
18, 33800, Note_on_c, 9, 35, 30
18, 33800, Note_on_c, 9, 42, 30
18, 33801, Note_on_c, 9, 42, 0
18, 33801, Note_on_c, 9, 35, 0
18, 33840, Note_on_c, 9, 35, 60
18, 33840, Note_on_c, 9, 42, 50
18, 33841, Note_on_c, 9, 42, 0
18, 33841, Note_on_c, 9, 35, 0
18, 33880, Note_on_c, 9, 42, 30
18, 33881, Note_on_c, 9, 42, 0
18, 33920, Note_on_c, 9, 42, 30
18, 33921, Note_on_c, 9, 42, 0
18, 33960, Note_on_c, 9, 42, 70
18, 33960, Note_on_c, 9, 37, 50
18, 33961, Note_on_c, 9, 37, 0
18, 33961, Note_on_c, 9, 42, 0
18, 34000, Note_on_c, 9, 42, 30
18, 34001, Note_on_c, 9, 42, 0
18, 34040, Note_on_c, 9, 42, 30
18, 34041, Note_on_c, 9, 42, 0
18, 34080, Note_on_c, 9, 35, 60
18, 34080, Note_on_c, 9, 42, 50
18, 34081, Note_on_c, 9, 42, 0
18, 34081, Note_on_c, 9, 35, 0
18, 34120, Note_on_c, 9, 42, 30
18, 34121, Note_on_c, 9, 42, 0
18, 34160, Note_on_c, 9, 42, 30
18, 34161, Note_on_c, 9, 42, 0
18, 34200, Note_on_c, 9, 42, 70
18, 34200, Note_on_c, 9, 37, 50
18, 34201, Note_on_c, 9, 37, 0
18, 34201, Note_on_c, 9, 42, 0
18, 34240, Note_on_c, 9, 42, 30
18, 34241, Note_on_c, 9, 42, 0
18, 34280, Note_on_c, 9, 35, 30
18, 34280, Note_on_c, 9, 42, 30
18, 34281, Note_on_c, 9, 42, 0
18, 34281, Note_on_c, 9, 35, 0
18, 34320, Note_on_c, 9, 35, 60
18, 34320, Note_on_c, 9, 42, 50
18, 34321, Note_on_c, 9, 42, 0
18, 34321, Note_on_c, 9, 35, 0
18, 34360, Note_on_c, 9, 42, 30
18, 34361, Note_on_c, 9, 42, 0
18, 34400, Note_on_c, 9, 42, 30
18, 34401, Note_on_c, 9, 42, 0
18, 34440, Note_on_c, 9, 42, 70
18, 34440, Note_on_c, 9, 37, 50
18, 34441, Note_on_c, 9, 37, 0
18, 34441, Note_on_c, 9, 42, 0
18, 34480, Note_on_c, 9, 42, 30
18, 34481, Note_on_c, 9, 42, 0
18, 34520, Note_on_c, 9, 42, 30
18, 34521, Note_on_c, 9, 42, 0
18, 34560, Note_on_c, 9, 35, 60
18, 34560, Note_on_c, 9, 42, 50
18, 34561, Note_on_c, 9, 42, 0
18, 34561, Note_on_c, 9, 35, 0
18, 34600, Note_on_c, 9, 42, 30
18, 34601, Note_on_c, 9, 42, 0
18, 34640, Note_on_c, 9, 42, 30
18, 34641, Note_on_c, 9, 42, 0
18, 34680, Note_on_c, 9, 42, 70
18, 34680, Note_on_c, 9, 37, 50
18, 34681, Note_on_c, 9, 37, 0
18, 34681, Note_on_c, 9, 42, 0
18, 34720, Note_on_c, 9, 42, 30
18, 34721, Note_on_c, 9, 42, 0
18, 34760, Note_on_c, 9, 35, 30
18, 34760, Note_on_c, 9, 42, 30
18, 34761, Note_on_c, 9, 42, 0
18, 34761, Note_on_c, 9, 35, 0
18, 34800, Note_on_c, 9, 35, 60
18, 34800, Note_on_c, 9, 42, 50
18, 34801, Note_on_c, 9, 42, 0
18, 34801, Note_on_c, 9, 35, 0
18, 34840, Note_on_c, 9, 42, 30
18, 34841, Note_on_c, 9, 42, 0
18, 34880, Note_on_c, 9, 42, 30
18, 34881, Note_on_c, 9, 42, 0
18, 34920, Note_on_c, 9, 42, 70
18, 34920, Note_on_c, 9, 37, 50
18, 34921, Note_on_c, 9, 37, 0
18, 34921, Note_on_c, 9, 42, 0
18, 34960, Note_on_c, 9, 42, 30
18, 34961, Note_on_c, 9, 42, 0
18, 35000, Note_on_c, 9, 42, 30
18, 35001, Note_on_c, 9, 42, 0
18, 35040, Note_on_c, 9, 35, 60
18, 35040, Note_on_c, 9, 42, 50
18, 35041, Note_on_c, 9, 42, 0
18, 35041, Note_on_c, 9, 35, 0
18, 35080, Note_on_c, 9, 42, 30
18, 35081, Note_on_c, 9, 42, 0
18, 35120, Note_on_c, 9, 42, 30
18, 35121, Note_on_c, 9, 42, 0
18, 35160, Note_on_c, 9, 42, 70
18, 35160, Note_on_c, 9, 37, 50
18, 35161, Note_on_c, 9, 37, 0
18, 35161, Note_on_c, 9, 42, 0
18, 35200, Note_on_c, 9, 42, 30
18, 35201, Note_on_c, 9, 42, 0
18, 35240, Note_on_c, 9, 35, 30
18, 35240, Note_on_c, 9, 42, 30
18, 35241, Note_on_c, 9, 42, 0
18, 35241, Note_on_c, 9, 35, 0
18, 35280, Note_on_c, 9, 35, 60
18, 35280, Note_on_c, 9, 42, 50
18, 35281, Note_on_c, 9, 42, 0
18, 35281, Note_on_c, 9, 35, 0
18, 35281, End_track
19, 0, Start_track
19, 0, MIDI_port, 0
19, 0, Title_t, "Bass"
19, 0, Program_c, 10, 46
19, 0, Control_c, 10, 7, 95
19, 0, Control_c, 10, 10, 66
19, 0, Control_c, 10, 121, 0
19, 0, Control_c, 10, 123, 0
19, 0, Control_c, 10, 91, 60
19, 1020, Note_on_c, 10, 50, 91
19, 1080, Note_on_c, 10, 50, 0
19, 1080, Note_on_c, 10, 57, 94
19, 1140, Note_on_c, 10, 57, 0
19, 1140, Note_on_c, 10, 60, 90
19, 1200, Note_on_c, 10, 60, 0
19, 1200, Note_on_c, 10, 64, 94
19, 1440, Note_on_c, 10, 64, 0
19, 1500, Note_on_c, 10, 52, 89
19, 1560, Note_on_c, 10, 52, 0
19, 1560, Note_on_c, 10, 55, 94
19, 1620, Note_on_c, 10, 55, 0
19, 1620, Note_on_c, 10, 59, 91
19, 1680, Note_on_c, 10, 59, 0
19, 1680, Note_on_c, 10, 62, 93
19, 1920, Note_on_c, 10, 62, 0
19, 1980, Note_on_c, 10, 50, 91
19, 2040, Note_on_c, 10, 50, 0
19, 2040, Note_on_c, 10, 53, 94
19, 2100, Note_on_c, 10, 53, 0
19, 2100, Note_on_c, 10, 57, 90
19, 2160, Note_on_c, 10, 57, 0
19, 2220, Note_on_c, 10, 48, 90
19, 2280, Note_on_c, 10, 48, 0
19, 2280, Note_on_c, 10, 52, 93
19, 2340, Note_on_c, 10, 52, 0
19, 2340, Note_on_c, 10, 55, 90
19, 2400, Note_on_c, 10, 55, 0
19, 2940, Note_on_c, 10, 43, 91
19, 3000, Note_on_c, 10, 43, 0
19, 3000, Note_on_c, 10, 48, 94
19, 3060, Note_on_c, 10, 48, 0
19, 3060, Note_on_c, 10, 52, 90
19, 3120, Note_on_c, 10, 52, 0
19, 3120, Note_on_c, 10, 55, 94
19, 3180, Note_on_c, 10, 55, 0
19, 3180, Note_on_c, 10, 52, 90
19, 3240, Note_on_c, 10, 52, 0
19, 3240, Note_on_c, 10, 48, 93
19, 3300, Note_on_c, 10, 48, 0
19, 3300, Note_on_c, 10, 43, 90
19, 3360, Note_on_c, 10, 43, 0
19, 3420, Note_on_c, 10, 45, 89
19, 3480, Note_on_c, 10, 45, 0
19, 3480, Note_on_c, 10, 48, 94
19, 3540, Note_on_c, 10, 48, 0
19, 3540, Note_on_c, 10, 52, 91
19, 3600, Note_on_c, 10, 52, 0
19, 3600, Note_on_c, 10, 55, 93
19, 3660, Note_on_c, 10, 55, 0
19, 3660, Note_on_c, 10, 52, 90
19, 3720, Note_on_c, 10, 52, 0
19, 3720, Note_on_c, 10, 48, 96
19, 3780, Note_on_c, 10, 48, 0
19, 3780, Note_on_c, 10, 45, 89
19, 3840, Note_on_c, 10, 45, 0
19, 3900, Note_on_c, 10, 45, 91
19, 3960, Note_on_c, 10, 45, 0
19, 3960, Note_on_c, 10, 50, 94
19, 4020, Note_on_c, 10, 50, 0
19, 4020, Note_on_c, 10, 53, 90
19, 4080, Note_on_c, 10, 53, 0
19, 4080, Note_on_c, 10, 57, 94
19, 4140, Note_on_c, 10, 57, 0
19, 4140, Note_on_c, 10, 53, 90
19, 4200, Note_on_c, 10, 53, 0
19, 4200, Note_on_c, 10, 50, 93
19, 4260, Note_on_c, 10, 50, 0
19, 4260, Note_on_c, 10, 45, 90
19, 4320, Note_on_c, 10, 45, 0
19, 4380, Note_on_c, 10, 43, 89
19, 4440, Note_on_c, 10, 43, 0
19, 4440, Note_on_c, 10, 47, 94
19, 4500, Note_on_c, 10, 47, 0
19, 4500, Note_on_c, 10, 52, 91
19, 4560, Note_on_c, 10, 52, 0
19, 4560, Note_on_c, 10, 55, 93
19, 4620, Note_on_c, 10, 55, 0
19, 4620, Note_on_c, 10, 52, 90
19, 4680, Note_on_c, 10, 52, 0
19, 4680, Note_on_c, 10, 47, 96
19, 4740, Note_on_c, 10, 47, 0
19, 4740, Note_on_c, 10, 43, 89
19, 4800, Note_on_c, 10, 43, 0
19, 4860, Note_on_c, 10, 43, 91
19, 4920, Note_on_c, 10, 43, 0
19, 4920, Note_on_c, 10, 52, 94
19, 4980, Note_on_c, 10, 52, 0
19, 4980, Note_on_c, 10, 55, 90
19, 5040, Note_on_c, 10, 55, 0
19, 5040, Note_on_c, 10, 60, 94
19, 5100, Note_on_c, 10, 60, 0
19, 5100, Note_on_c, 10, 55, 90
19, 5160, Note_on_c, 10, 55, 0
19, 5160, Note_on_c, 10, 52, 93
19, 5220, Note_on_c, 10, 52, 0
19, 5220, Note_on_c, 10, 48, 90
19, 5280, Note_on_c, 10, 48, 0
19, 5340, Note_on_c, 10, 46, 89
19, 5400, Note_on_c, 10, 46, 0
19, 5400, Note_on_c, 10, 50, 94
19, 5460, Note_on_c, 10, 50, 0
19, 5460, Note_on_c, 10, 53, 91
19, 5520, Note_on_c, 10, 53, 0
19, 5520, Note_on_c, 10, 58, 93
19, 5580, Note_on_c, 10, 58, 0
19, 5580, Note_on_c, 10, 53, 90
19, 5640, Note_on_c, 10, 53, 0
19, 5640, Note_on_c, 10, 50, 96
19, 5700, Note_on_c, 10, 50, 0
19, 5700, Note_on_c, 10, 46, 89
19, 5760, Note_on_c, 10, 46, 0
19, 5820, Note_on_c, 10, 45, 91
19, 5880, Note_on_c, 10, 45, 0
19, 5880, Note_on_c, 10, 49, 94
19, 5940, Note_on_c, 10, 49, 0
19, 5940, Note_on_c, 10, 52, 90
19, 6000, Note_on_c, 10, 52, 0
19, 6000, Note_on_c, 10, 57, 94
19, 6120, Note_on_c, 10, 57, 0
19, 6120, Note_on_c, 10, 55, 93
19, 6240, Note_on_c, 10, 55, 0
19, 6300, Note_on_c, 10, 50, 89
19, 6480, Note_on_c, 10, 50, 0
19, 6480, Note_on_c, 10, 53, 93
19, 6600, Note_on_c, 10, 53, 0
19, 6600, Note_on_c, 10, 53, 96
19, 6720, Note_on_c, 10, 53, 0
19, 6780, Note_on_c, 10, 43, 91
19, 6840, Note_on_c, 10, 43, 0
19, 6840, Note_on_c, 10, 48, 94
19, 6900, Note_on_c, 10, 48, 0
19, 6900, Note_on_c, 10, 52, 90
19, 6960, Note_on_c, 10, 52, 0
19, 6960, Note_on_c, 10, 55, 94
19, 7020, Note_on_c, 10, 55, 0
19, 7020, Note_on_c, 10, 52, 90
19, 7080, Note_on_c, 10, 52, 0
19, 7080, Note_on_c, 10, 48, 93
19, 7140, Note_on_c, 10, 48, 0
19, 7140, Note_on_c, 10, 43, 90
19, 7200, Note_on_c, 10, 43, 0
19, 7260, Note_on_c, 10, 45, 89
19, 7320, Note_on_c, 10, 45, 0
19, 7320, Note_on_c, 10, 48, 94
19, 7380, Note_on_c, 10, 48, 0
19, 7380, Note_on_c, 10, 52, 91
19, 7440, Note_on_c, 10, 52, 0
19, 7440, Note_on_c, 10, 55, 93
19, 7500, Note_on_c, 10, 55, 0
19, 7500, Note_on_c, 10, 52, 90
19, 7560, Note_on_c, 10, 52, 0
19, 7560, Note_on_c, 10, 48, 96
19, 7620, Note_on_c, 10, 48, 0
19, 7620, Note_on_c, 10, 45, 89
19, 7680, Note_on_c, 10, 45, 0
19, 7740, Note_on_c, 10, 45, 91
19, 7800, Note_on_c, 10, 45, 0
19, 7800, Note_on_c, 10, 50, 94
19, 7860, Note_on_c, 10, 50, 0
19, 7860, Note_on_c, 10, 53, 90
19, 7920, Note_on_c, 10, 53, 0
19, 7920, Note_on_c, 10, 57, 94
19, 7980, Note_on_c, 10, 57, 0
19, 7980, Note_on_c, 10, 53, 90
19, 8040, Note_on_c, 10, 53, 0
19, 8040, Note_on_c, 10, 50, 93
19, 8100, Note_on_c, 10, 50, 0
19, 8100, Note_on_c, 10, 45, 90
19, 8160, Note_on_c, 10, 45, 0
19, 8220, Note_on_c, 10, 43, 89
19, 8280, Note_on_c, 10, 43, 0
19, 8280, Note_on_c, 10, 47, 94
19, 8340, Note_on_c, 10, 47, 0
19, 8340, Note_on_c, 10, 52, 91
19, 8400, Note_on_c, 10, 52, 0
19, 8400, Note_on_c, 10, 55, 93
19, 8460, Note_on_c, 10, 55, 0
19, 8460, Note_on_c, 10, 52, 90
19, 8520, Note_on_c, 10, 52, 0
19, 8520, Note_on_c, 10, 47, 96
19, 8580, Note_on_c, 10, 47, 0
19, 8580, Note_on_c, 10, 43, 89
19, 8640, Note_on_c, 10, 43, 0
19, 8700, Note_on_c, 10, 43, 91
19, 8760, Note_on_c, 10, 43, 0
19, 8760, Note_on_c, 10, 52, 94
19, 8820, Note_on_c, 10, 52, 0
19, 8820, Note_on_c, 10, 55, 90
19, 8880, Note_on_c, 10, 55, 0
19, 8880, Note_on_c, 10, 60, 94
19, 8940, Note_on_c, 10, 60, 0
19, 8940, Note_on_c, 10, 55, 90
19, 9000, Note_on_c, 10, 55, 0
19, 9000, Note_on_c, 10, 52, 93
19, 9060, Note_on_c, 10, 52, 0
19, 9060, Note_on_c, 10, 48, 90
19, 9120, Note_on_c, 10, 48, 0
19, 9180, Note_on_c, 10, 46, 89
19, 9240, Note_on_c, 10, 46, 0
19, 9240, Note_on_c, 10, 50, 94
19, 9300, Note_on_c, 10, 50, 0
19, 9300, Note_on_c, 10, 53, 91
19, 9360, Note_on_c, 10, 53, 0
19, 9360, Note_on_c, 10, 58, 93
19, 9420, Note_on_c, 10, 58, 0
19, 9420, Note_on_c, 10, 53, 90
19, 9480, Note_on_c, 10, 53, 0
19, 9480, Note_on_c, 10, 50, 96
19, 9540, Note_on_c, 10, 50, 0
19, 9540, Note_on_c, 10, 46, 89
19, 9600, Note_on_c, 10, 46, 0
19, 9660, Note_on_c, 10, 45, 91
19, 9720, Note_on_c, 10, 45, 0
19, 9720, Note_on_c, 10, 49, 94
19, 9780, Note_on_c, 10, 49, 0
19, 9780, Note_on_c, 10, 52, 90
19, 9840, Note_on_c, 10, 52, 0
19, 9840, Note_on_c, 10, 57, 94
19, 9900, Note_on_c, 10, 57, 0
19, 9900, Note_on_c, 10, 52, 90
19, 9960, Note_on_c, 10, 52, 0
19, 9960, Note_on_c, 10, 49, 93
19, 10020, Note_on_c, 10, 49, 0
19, 10020, Note_on_c, 10, 45, 90
19, 10080, Note_on_c, 10, 45, 0
19, 10140, Note_on_c, 10, 49, 89
19, 10200, Note_on_c, 10, 49, 0
19, 10200, Note_on_c, 10, 55, 94
19, 10260, Note_on_c, 10, 55, 0
19, 10260, Note_on_c, 10, 49, 91
19, 10320, Note_on_c, 10, 49, 0
19, 10380, Note_on_c, 10, 49, 90
19, 10440, Note_on_c, 10, 49, 0
19, 10440, Note_on_c, 10, 55, 96
19, 10500, Note_on_c, 10, 55, 0
19, 10500, Note_on_c, 10, 49, 89
19, 10560, Note_on_c, 10, 49, 0
19, 10620, Note_on_c, 10, 45, 91
19, 10680, Note_on_c, 10, 45, 0
19, 10680, Note_on_c, 10, 50, 94
19, 10740, Note_on_c, 10, 50, 0
19, 10740, Note_on_c, 10, 53, 90
19, 10800, Note_on_c, 10, 53, 0
19, 10800, Note_on_c, 10, 57, 94
19, 10860, Note_on_c, 10, 57, 0
19, 10860, Note_on_c, 10, 53, 90
19, 10920, Note_on_c, 10, 53, 0
19, 10920, Note_on_c, 10, 50, 93
19, 11040, Note_on_c, 10, 50, 0
19, 11100, Note_on_c, 10, 47, 89
19, 11160, Note_on_c, 10, 47, 0
19, 11160, Note_on_c, 10, 52, 94
19, 11220, Note_on_c, 10, 52, 0
19, 11220, Note_on_c, 10, 56, 91
19, 11280, Note_on_c, 10, 56, 0
19, 11280, Note_on_c, 10, 59, 93
19, 11340, Note_on_c, 10, 59, 0
19, 11340, Note_on_c, 10, 56, 90
19, 11400, Note_on_c, 10, 56, 0
19, 11400, Note_on_c, 10, 52, 96
19, 11520, Note_on_c, 10, 52, 0
19, 11580, Note_on_c, 10, 52, 91
19, 11640, Note_on_c, 10, 52, 0
19, 11640, Note_on_c, 10, 57, 94
19, 11700, Note_on_c, 10, 57, 0
19, 11700, Note_on_c, 10, 52, 90
19, 11760, Note_on_c, 10, 52, 0
19, 11820, Note_on_c, 10, 52, 90
19, 11880, Note_on_c, 10, 52, 0
19, 11880, Note_on_c, 10, 57, 93
19, 11940, Note_on_c, 10, 57, 0
19, 11940, Note_on_c, 10, 52, 90
19, 12000, Note_on_c, 10, 52, 0
19, 12060, Note_on_c, 10, 48, 89
19, 12120, Note_on_c, 10, 48, 0
19, 12120, Note_on_c, 10, 50, 94
19, 12160, Note_on_c, 10, 50, 0
19, 12160, Note_on_c, 10, 53, 87
19, 12200, Note_on_c, 10, 53, 0
19, 12200, Note_on_c, 10, 56, 93
19, 12240, Note_on_c, 10, 56, 0
19, 12240, Note_on_c, 10, 60, 93
19, 12300, Note_on_c, 10, 60, 0
19, 12300, Note_on_c, 10, 56, 90
19, 12360, Note_on_c, 10, 56, 0
19, 12360, Note_on_c, 10, 53, 96
19, 12480, Note_on_c, 10, 53, 0
19, 12540, Note_on_c, 10, 52, 91
19, 12600, Note_on_c, 10, 52, 0
19, 12600, Note_on_c, 10, 55, 94
19, 12660, Note_on_c, 10, 55, 0
19, 12660, Note_on_c, 10, 60, 90
19, 12720, Note_on_c, 10, 60, 0
19, 12720, Note_on_c, 10, 64, 94
19, 12780, Note_on_c, 10, 64, 0
19, 12780, Note_on_c, 10, 60, 90
19, 12960, Note_on_c, 10, 60, 0
19, 13020, Note_on_c, 10, 52, 89
19, 13080, Note_on_c, 10, 52, 0
19, 13080, Note_on_c, 10, 56, 94
19, 13140, Note_on_c, 10, 56, 0
19, 13140, Note_on_c, 10, 60, 91
19, 13200, Note_on_c, 10, 60, 0
19, 13200, Note_on_c, 10, 64, 93
19, 13260, Note_on_c, 10, 64, 0
19, 13260, Note_on_c, 10, 60, 90
19, 13440, Note_on_c, 10, 60, 0
19, 13500, Note_on_c, 10, 52, 91
19, 13560, Note_on_c, 10, 52, 0
19, 13560, Note_on_c, 10, 57, 94
19, 13620, Note_on_c, 10, 57, 0
19, 13620, Note_on_c, 10, 60, 90
19, 13680, Note_on_c, 10, 60, 0
19, 13680, Note_on_c, 10, 64, 94
19, 13740, Note_on_c, 10, 64, 0
19, 13740, Note_on_c, 10, 60, 90
19, 13920, Note_on_c, 10, 60, 0
19, 13980, Note_on_c, 10, 45, 89
19, 14040, Note_on_c, 10, 45, 0
19, 14040, Note_on_c, 10, 53, 94
19, 14100, Note_on_c, 10, 53, 0
19, 14100, Note_on_c, 10, 45, 91
19, 14160, Note_on_c, 10, 45, 0
19, 14220, Note_on_c, 10, 53, 90
19, 14280, Note_on_c, 10, 53, 0
19, 14280, Note_on_c, 10, 59, 96
19, 14400, Note_on_c, 10, 59, 0
19, 14460, Note_on_c, 10, 43, 91
19, 14520, Note_on_c, 10, 43, 0
19, 14520, Note_on_c, 10, 48, 94
19, 14580, Note_on_c, 10, 48, 0
19, 14580, Note_on_c, 10, 52, 90
19, 14640, Note_on_c, 10, 52, 0
19, 14640, Note_on_c, 10, 55, 94
19, 14700, Note_on_c, 10, 55, 0
19, 14700, Note_on_c, 10, 52, 90
19, 14760, Note_on_c, 10, 52, 0
19, 14760, Note_on_c, 10, 48, 93
19, 14820, Note_on_c, 10, 48, 0
19, 14820, Note_on_c, 10, 43, 90
19, 14880, Note_on_c, 10, 43, 0
19, 14940, Note_on_c, 10, 45, 89
19, 15000, Note_on_c, 10, 45, 0
19, 15000, Note_on_c, 10, 48, 94
19, 15060, Note_on_c, 10, 48, 0
19, 15060, Note_on_c, 10, 52, 91
19, 15120, Note_on_c, 10, 52, 0
19, 15120, Note_on_c, 10, 57, 93
19, 15180, Note_on_c, 10, 57, 0
19, 15180, Note_on_c, 10, 52, 90
19, 15240, Note_on_c, 10, 52, 0
19, 15240, Note_on_c, 10, 48, 96
19, 15300, Note_on_c, 10, 48, 0
19, 15300, Note_on_c, 10, 45, 89
19, 15360, Note_on_c, 10, 45, 0
19, 15420, Note_on_c, 10, 53, 91
19, 15480, Note_on_c, 10, 53, 0
19, 15480, Note_on_c, 10, 56, 94
19, 15540, Note_on_c, 10, 56, 0
19, 15540, Note_on_c, 10, 60, 90
19, 15600, Note_on_c, 10, 60, 0
19, 15600, Note_on_c, 10, 62, 94
19, 15660, Note_on_c, 10, 62, 0
19, 15660, Note_on_c, 10, 60, 90
19, 15720, Note_on_c, 10, 60, 0
19, 15720, Note_on_c, 10, 56, 93
19, 15780, Note_on_c, 10, 56, 0
19, 15780, Note_on_c, 10, 53, 90
19, 15840, Note_on_c, 10, 53, 0
19, 15960, Note_on_c, 10, 45, 94
19, 16080, Note_on_c, 10, 45, 0
19, 16080, Note_on_c, 10, 53, 93
19, 16320, Note_on_c, 10, 53, 0
19, 16380, Note_on_c, 10, 43, 91
19, 16440, Note_on_c, 10, 43, 0
19, 16440, Note_on_c, 10, 48, 94
19, 16500, Note_on_c, 10, 48, 0
19, 16500, Note_on_c, 10, 52, 90
19, 16560, Note_on_c, 10, 52, 0
19, 16560, Note_on_c, 10, 55, 94
19, 16620, Note_on_c, 10, 55, 0
19, 16620, Note_on_c, 10, 52, 90
19, 16680, Note_on_c, 10, 52, 0
19, 16680, Note_on_c, 10, 48, 93
19, 16740, Note_on_c, 10, 48, 0
19, 16740, Note_on_c, 10, 43, 90
19, 16800, Note_on_c, 10, 43, 0
19, 16860, Note_on_c, 10, 45, 89
19, 16920, Note_on_c, 10, 45, 0
19, 16920, Note_on_c, 10, 48, 94
19, 16980, Note_on_c, 10, 48, 0
19, 16980, Note_on_c, 10, 52, 91
19, 17040, Note_on_c, 10, 52, 0
19, 17040, Note_on_c, 10, 55, 93
19, 17100, Note_on_c, 10, 55, 0
19, 17100, Note_on_c, 10, 52, 90
19, 17160, Note_on_c, 10, 52, 0
19, 17160, Note_on_c, 10, 48, 96
19, 17220, Note_on_c, 10, 48, 0
19, 17220, Note_on_c, 10, 45, 89
19, 17280, Note_on_c, 10, 45, 0
19, 17340, Note_on_c, 10, 45, 91
19, 17400, Note_on_c, 10, 45, 0
19, 17400, Note_on_c, 10, 50, 94
19, 17460, Note_on_c, 10, 50, 0
19, 17460, Note_on_c, 10, 53, 90
19, 17520, Note_on_c, 10, 53, 0
19, 17520, Note_on_c, 10, 57, 94
19, 17580, Note_on_c, 10, 57, 0
19, 17580, Note_on_c, 10, 53, 90
19, 17640, Note_on_c, 10, 53, 0
19, 17640, Note_on_c, 10, 50, 93
19, 17700, Note_on_c, 10, 50, 0
19, 17700, Note_on_c, 10, 45, 90
19, 17760, Note_on_c, 10, 45, 0
19, 17820, Note_on_c, 10, 45, 89
19, 18120, Note_on_c, 10, 45, 0
19, 18120, Note_on_c, 10, 53, 96
19, 18240, Note_on_c, 10, 53, 0
19, 18300, Note_on_c, 10, 43, 91
19, 18360, Note_on_c, 10, 43, 0
19, 18360, Note_on_c, 10, 52, 94
19, 18480, Note_on_c, 10, 52, 0
19, 18540, Note_on_c, 10, 52, 90
19, 18600, Note_on_c, 10, 52, 0
19, 18600, Note_on_c, 10, 55, 93
19, 18720, Note_on_c, 10, 55, 0
19, 18780, Note_on_c, 10, 45, 89
19, 18840, Note_on_c, 10, 45, 0
19, 18840, Note_on_c, 10, 53, 94
19, 18900, Note_on_c, 10, 53, 0
19, 18900, Note_on_c, 10, 57, 91
19, 18960, Note_on_c, 10, 57, 0
19, 18960, Note_on_c, 10, 53, 93
19, 19200, Note_on_c, 10, 53, 0
19, 19260, Note_on_c, 10, 43, 91
19, 19320, Note_on_c, 10, 43, 0
19, 19320, Note_on_c, 10, 48, 94
19, 19380, Note_on_c, 10, 48, 0
19, 19380, Note_on_c, 10, 52, 90
19, 19440, Note_on_c, 10, 52, 0
19, 19440, Note_on_c, 10, 55, 94
19, 19500, Note_on_c, 10, 55, 0
19, 19500, Note_on_c, 10, 52, 90
19, 19560, Note_on_c, 10, 52, 0
19, 19560, Note_on_c, 10, 48, 93
19, 19620, Note_on_c, 10, 48, 0
19, 19620, Note_on_c, 10, 43, 90
19, 19680, Note_on_c, 10, 43, 0
19, 19740, Note_on_c, 10, 45, 89
19, 19800, Note_on_c, 10, 45, 0
19, 19800, Note_on_c, 10, 48, 94
19, 19860, Note_on_c, 10, 48, 0
19, 19860, Note_on_c, 10, 52, 91
19, 19920, Note_on_c, 10, 52, 0
19, 19920, Note_on_c, 10, 55, 93
19, 19980, Note_on_c, 10, 55, 0
19, 19980, Note_on_c, 10, 52, 90
19, 20040, Note_on_c, 10, 52, 0
19, 20040, Note_on_c, 10, 48, 96
19, 20100, Note_on_c, 10, 48, 0
19, 20100, Note_on_c, 10, 45, 89
19, 20160, Note_on_c, 10, 45, 0
19, 20220, Note_on_c, 10, 45, 91
19, 20280, Note_on_c, 10, 45, 0
19, 20280, Note_on_c, 10, 50, 94
19, 20340, Note_on_c, 10, 50, 0
19, 20340, Note_on_c, 10, 53, 90
19, 20400, Note_on_c, 10, 53, 0
19, 20400, Note_on_c, 10, 57, 94
19, 20460, Note_on_c, 10, 57, 0
19, 20460, Note_on_c, 10, 53, 90
19, 20520, Note_on_c, 10, 53, 0
19, 20520, Note_on_c, 10, 50, 93
19, 20580, Note_on_c, 10, 50, 0
19, 20580, Note_on_c, 10, 45, 90
19, 20640, Note_on_c, 10, 45, 0
19, 20700, Note_on_c, 10, 43, 89
19, 20760, Note_on_c, 10, 43, 0
19, 20760, Note_on_c, 10, 47, 94
19, 20820, Note_on_c, 10, 47, 0
19, 20820, Note_on_c, 10, 52, 91
19, 20880, Note_on_c, 10, 52, 0
19, 20880, Note_on_c, 10, 55, 93
19, 20940, Note_on_c, 10, 55, 0
19, 20940, Note_on_c, 10, 52, 90
19, 21000, Note_on_c, 10, 52, 0
19, 21000, Note_on_c, 10, 47, 96
19, 21060, Note_on_c, 10, 47, 0
19, 21060, Note_on_c, 10, 43, 89
19, 21120, Note_on_c, 10, 43, 0
19, 21180, Note_on_c, 10, 43, 91
19, 21240, Note_on_c, 10, 43, 0
19, 21240, Note_on_c, 10, 52, 94
19, 21300, Note_on_c, 10, 52, 0
19, 21300, Note_on_c, 10, 55, 90
19, 21360, Note_on_c, 10, 55, 0
19, 21360, Note_on_c, 10, 60, 94
19, 21420, Note_on_c, 10, 60, 0
19, 21420, Note_on_c, 10, 55, 90
19, 21480, Note_on_c, 10, 55, 0
19, 21480, Note_on_c, 10, 52, 93
19, 21540, Note_on_c, 10, 52, 0
19, 21540, Note_on_c, 10, 48, 90
19, 21600, Note_on_c, 10, 48, 0
19, 21660, Note_on_c, 10, 46, 89
19, 21720, Note_on_c, 10, 46, 0
19, 21720, Note_on_c, 10, 50, 94
19, 21780, Note_on_c, 10, 50, 0
19, 21780, Note_on_c, 10, 53, 91
19, 21840, Note_on_c, 10, 53, 0
19, 21840, Note_on_c, 10, 58, 93
19, 21900, Note_on_c, 10, 58, 0
19, 21900, Note_on_c, 10, 53, 90
19, 21960, Note_on_c, 10, 53, 0
19, 21960, Note_on_c, 10, 50, 96
19, 22020, Note_on_c, 10, 50, 0
19, 22020, Note_on_c, 10, 46, 89
19, 22080, Note_on_c, 10, 46, 0
19, 22140, Note_on_c, 10, 45, 91
19, 22200, Note_on_c, 10, 45, 0
19, 22200, Note_on_c, 10, 49, 94
19, 22260, Note_on_c, 10, 49, 0
19, 22260, Note_on_c, 10, 52, 90
19, 22320, Note_on_c, 10, 52, 0
19, 22320, Note_on_c, 10, 57, 94
19, 22440, Note_on_c, 10, 57, 0
19, 22440, Note_on_c, 10, 55, 93
19, 22560, Note_on_c, 10, 55, 0
19, 22620, Note_on_c, 10, 50, 89
19, 22800, Note_on_c, 10, 50, 0
19, 22800, Note_on_c, 10, 53, 93
19, 22920, Note_on_c, 10, 53, 0
19, 22920, Note_on_c, 10, 53, 96
19, 23040, Note_on_c, 10, 53, 0
19, 23100, Note_on_c, 10, 43, 91
19, 23160, Note_on_c, 10, 43, 0
19, 23160, Note_on_c, 10, 48, 94
19, 23220, Note_on_c, 10, 48, 0
19, 23220, Note_on_c, 10, 52, 90
19, 23280, Note_on_c, 10, 52, 0
19, 23280, Note_on_c, 10, 55, 94
19, 23340, Note_on_c, 10, 55, 0
19, 23340, Note_on_c, 10, 52, 90
19, 23400, Note_on_c, 10, 52, 0
19, 23400, Note_on_c, 10, 48, 93
19, 23460, Note_on_c, 10, 48, 0
19, 23460, Note_on_c, 10, 43, 90
19, 23520, Note_on_c, 10, 43, 0
19, 23580, Note_on_c, 10, 45, 89
19, 23640, Note_on_c, 10, 45, 0
19, 23640, Note_on_c, 10, 48, 94
19, 23700, Note_on_c, 10, 48, 0
19, 23700, Note_on_c, 10, 52, 91
19, 23760, Note_on_c, 10, 52, 0
19, 23760, Note_on_c, 10, 55, 93
19, 23820, Note_on_c, 10, 55, 0
19, 23820, Note_on_c, 10, 52, 90
19, 23880, Note_on_c, 10, 52, 0
19, 23880, Note_on_c, 10, 48, 96
19, 23940, Note_on_c, 10, 48, 0
19, 23940, Note_on_c, 10, 45, 89
19, 24000, Note_on_c, 10, 45, 0
19, 24060, Note_on_c, 10, 45, 91
19, 24120, Note_on_c, 10, 45, 0
19, 24120, Note_on_c, 10, 50, 94
19, 24180, Note_on_c, 10, 50, 0
19, 24180, Note_on_c, 10, 53, 90
19, 24240, Note_on_c, 10, 53, 0
19, 24240, Note_on_c, 10, 57, 94
19, 24300, Note_on_c, 10, 57, 0
19, 24300, Note_on_c, 10, 53, 90
19, 24360, Note_on_c, 10, 53, 0
19, 24360, Note_on_c, 10, 50, 93
19, 24420, Note_on_c, 10, 50, 0
19, 24420, Note_on_c, 10, 45, 90
19, 24480, Note_on_c, 10, 45, 0
19, 24540, Note_on_c, 10, 43, 89
19, 24600, Note_on_c, 10, 43, 0
19, 24600, Note_on_c, 10, 47, 94
19, 24660, Note_on_c, 10, 47, 0
19, 24660, Note_on_c, 10, 52, 91
19, 24720, Note_on_c, 10, 52, 0
19, 24720, Note_on_c, 10, 55, 93
19, 24780, Note_on_c, 10, 55, 0
19, 24780, Note_on_c, 10, 52, 90
19, 24840, Note_on_c, 10, 52, 0
19, 24840, Note_on_c, 10, 47, 96
19, 24900, Note_on_c, 10, 47, 0
19, 24900, Note_on_c, 10, 43, 89
19, 24960, Note_on_c, 10, 43, 0
19, 25020, Note_on_c, 10, 43, 91
19, 25080, Note_on_c, 10, 43, 0
19, 25080, Note_on_c, 10, 52, 94
19, 25140, Note_on_c, 10, 52, 0
19, 25140, Note_on_c, 10, 55, 90
19, 25200, Note_on_c, 10, 55, 0
19, 25200, Note_on_c, 10, 60, 94
19, 25260, Note_on_c, 10, 60, 0
19, 25260, Note_on_c, 10, 55, 90
19, 25320, Note_on_c, 10, 55, 0
19, 25320, Note_on_c, 10, 52, 93
19, 25380, Note_on_c, 10, 52, 0
19, 25380, Note_on_c, 10, 48, 90
19, 25440, Note_on_c, 10, 48, 0
19, 25500, Note_on_c, 10, 46, 89
19, 25560, Note_on_c, 10, 46, 0
19, 25560, Note_on_c, 10, 50, 94
19, 25620, Note_on_c, 10, 50, 0
19, 25620, Note_on_c, 10, 53, 91
19, 25680, Note_on_c, 10, 53, 0
19, 25680, Note_on_c, 10, 58, 93
19, 25740, Note_on_c, 10, 58, 0
19, 25740, Note_on_c, 10, 53, 90
19, 25800, Note_on_c, 10, 53, 0
19, 25800, Note_on_c, 10, 50, 96
19, 25860, Note_on_c, 10, 50, 0
19, 25860, Note_on_c, 10, 46, 89
19, 25920, Note_on_c, 10, 46, 0
19, 25980, Note_on_c, 10, 45, 91
19, 26040, Note_on_c, 10, 45, 0
19, 26040, Note_on_c, 10, 49, 94
19, 26100, Note_on_c, 10, 49, 0
19, 26100, Note_on_c, 10, 52, 90
19, 26160, Note_on_c, 10, 52, 0
19, 26160, Note_on_c, 10, 57, 94
19, 26220, Note_on_c, 10, 57, 0
19, 26220, Note_on_c, 10, 52, 90
19, 26280, Note_on_c, 10, 52, 0
19, 26280, Note_on_c, 10, 49, 93
19, 26340, Note_on_c, 10, 49, 0
19, 26340, Note_on_c, 10, 45, 90
19, 26400, Note_on_c, 10, 45, 0
19, 26460, Note_on_c, 10, 49, 89
19, 26520, Note_on_c, 10, 49, 0
19, 26520, Note_on_c, 10, 55, 94
19, 26580, Note_on_c, 10, 55, 0
19, 26580, Note_on_c, 10, 49, 91
19, 26640, Note_on_c, 10, 49, 0
19, 26700, Note_on_c, 10, 49, 90
19, 26760, Note_on_c, 10, 49, 0
19, 26760, Note_on_c, 10, 55, 96
19, 26820, Note_on_c, 10, 55, 0
19, 26820, Note_on_c, 10, 49, 89
19, 26880, Note_on_c, 10, 49, 0
19, 26940, Note_on_c, 10, 45, 91
19, 27000, Note_on_c, 10, 45, 0
19, 27000, Note_on_c, 10, 50, 94
19, 27060, Note_on_c, 10, 50, 0
19, 27060, Note_on_c, 10, 53, 90
19, 27120, Note_on_c, 10, 53, 0
19, 27120, Note_on_c, 10, 57, 94
19, 27180, Note_on_c, 10, 57, 0
19, 27180, Note_on_c, 10, 53, 90
19, 27240, Note_on_c, 10, 53, 0
19, 27240, Note_on_c, 10, 50, 93
19, 27360, Note_on_c, 10, 50, 0
19, 27420, Note_on_c, 10, 47, 89
19, 27480, Note_on_c, 10, 47, 0
19, 27480, Note_on_c, 10, 52, 94
19, 27540, Note_on_c, 10, 52, 0
19, 27540, Note_on_c, 10, 56, 91
19, 27600, Note_on_c, 10, 56, 0
19, 27600, Note_on_c, 10, 59, 93
19, 27660, Note_on_c, 10, 59, 0
19, 27660, Note_on_c, 10, 56, 90
19, 27720, Note_on_c, 10, 56, 0
19, 27720, Note_on_c, 10, 52, 96
19, 27840, Note_on_c, 10, 52, 0
19, 27900, Note_on_c, 10, 52, 91
19, 27960, Note_on_c, 10, 52, 0
19, 27960, Note_on_c, 10, 57, 94
19, 28020, Note_on_c, 10, 57, 0
19, 28020, Note_on_c, 10, 52, 90
19, 28080, Note_on_c, 10, 52, 0
19, 28140, Note_on_c, 10, 52, 90
19, 28200, Note_on_c, 10, 52, 0
19, 28200, Note_on_c, 10, 57, 93
19, 28260, Note_on_c, 10, 57, 0
19, 28260, Note_on_c, 10, 52, 90
19, 28320, Note_on_c, 10, 52, 0
19, 28380, Note_on_c, 10, 48, 89
19, 28440, Note_on_c, 10, 48, 0
19, 28440, Note_on_c, 10, 50, 94
19, 28480, Note_on_c, 10, 50, 0
19, 28480, Note_on_c, 10, 53, 87
19, 28520, Note_on_c, 10, 53, 0
19, 28520, Note_on_c, 10, 56, 93
19, 28560, Note_on_c, 10, 56, 0
19, 28560, Note_on_c, 10, 60, 93
19, 28620, Note_on_c, 10, 60, 0
19, 28620, Note_on_c, 10, 56, 90
19, 28680, Note_on_c, 10, 56, 0
19, 28680, Note_on_c, 10, 53, 96
19, 28800, Note_on_c, 10, 53, 0
19, 28860, Note_on_c, 10, 52, 91
19, 28920, Note_on_c, 10, 52, 0
19, 28920, Note_on_c, 10, 55, 94
19, 28980, Note_on_c, 10, 55, 0
19, 28980, Note_on_c, 10, 60, 90
19, 29040, Note_on_c, 10, 60, 0
19, 29040, Note_on_c, 10, 64, 94
19, 29100, Note_on_c, 10, 64, 0
19, 29100, Note_on_c, 10, 60, 90
19, 29280, Note_on_c, 10, 60, 0
19, 29340, Note_on_c, 10, 52, 89
19, 29400, Note_on_c, 10, 52, 0
19, 29400, Note_on_c, 10, 56, 94
19, 29460, Note_on_c, 10, 56, 0
19, 29460, Note_on_c, 10, 60, 91
19, 29520, Note_on_c, 10, 60, 0
19, 29520, Note_on_c, 10, 64, 93
19, 29580, Note_on_c, 10, 64, 0
19, 29580, Note_on_c, 10, 60, 90
19, 29760, Note_on_c, 10, 60, 0
19, 29820, Note_on_c, 10, 52, 91
19, 29880, Note_on_c, 10, 52, 0
19, 29880, Note_on_c, 10, 57, 94
19, 29940, Note_on_c, 10, 57, 0
19, 29940, Note_on_c, 10, 60, 90
19, 30000, Note_on_c, 10, 60, 0
19, 30000, Note_on_c, 10, 64, 94
19, 30060, Note_on_c, 10, 64, 0
19, 30060, Note_on_c, 10, 60, 90
19, 30240, Note_on_c, 10, 60, 0
19, 30300, Note_on_c, 10, 45, 89
19, 30360, Note_on_c, 10, 45, 0
19, 30360, Note_on_c, 10, 53, 94
19, 30420, Note_on_c, 10, 53, 0
19, 30420, Note_on_c, 10, 45, 91
19, 30480, Note_on_c, 10, 45, 0
19, 30540, Note_on_c, 10, 53, 90
19, 30600, Note_on_c, 10, 53, 0
19, 30600, Note_on_c, 10, 59, 96
19, 30720, Note_on_c, 10, 59, 0
19, 30780, Note_on_c, 10, 43, 91
19, 30840, Note_on_c, 10, 43, 0
19, 30840, Note_on_c, 10, 48, 94
19, 30900, Note_on_c, 10, 48, 0
19, 30900, Note_on_c, 10, 52, 90
19, 30960, Note_on_c, 10, 52, 0
19, 30960, Note_on_c, 10, 55, 94
19, 31020, Note_on_c, 10, 55, 0
19, 31020, Note_on_c, 10, 52, 90
19, 31080, Note_on_c, 10, 52, 0
19, 31080, Note_on_c, 10, 48, 93
19, 31140, Note_on_c, 10, 48, 0
19, 31140, Note_on_c, 10, 43, 90
19, 31200, Note_on_c, 10, 43, 0
19, 31260, Note_on_c, 10, 45, 89
19, 31320, Note_on_c, 10, 45, 0
19, 31320, Note_on_c, 10, 48, 94
19, 31380, Note_on_c, 10, 48, 0
19, 31380, Note_on_c, 10, 52, 91
19, 31440, Note_on_c, 10, 52, 0
19, 31440, Note_on_c, 10, 57, 93
19, 31500, Note_on_c, 10, 57, 0
19, 31500, Note_on_c, 10, 52, 90
19, 31560, Note_on_c, 10, 52, 0
19, 31560, Note_on_c, 10, 48, 96
19, 31620, Note_on_c, 10, 48, 0
19, 31620, Note_on_c, 10, 45, 89
19, 31680, Note_on_c, 10, 45, 0
19, 31740, Note_on_c, 10, 53, 91
19, 31800, Note_on_c, 10, 53, 0
19, 31800, Note_on_c, 10, 56, 94
19, 31860, Note_on_c, 10, 56, 0
19, 31860, Note_on_c, 10, 60, 90
19, 31920, Note_on_c, 10, 60, 0
19, 31920, Note_on_c, 10, 62, 94
19, 31980, Note_on_c, 10, 62, 0
19, 31980, Note_on_c, 10, 60, 90
19, 32040, Note_on_c, 10, 60, 0
19, 32040, Note_on_c, 10, 56, 93
19, 32100, Note_on_c, 10, 56, 0
19, 32100, Note_on_c, 10, 53, 90
19, 32160, Note_on_c, 10, 53, 0
19, 32280, Note_on_c, 10, 45, 94
19, 32400, Note_on_c, 10, 45, 0
19, 32400, Note_on_c, 10, 53, 93
19, 32640, Note_on_c, 10, 53, 0
19, 32700, Note_on_c, 10, 43, 91
19, 32760, Note_on_c, 10, 43, 0
19, 32760, Note_on_c, 10, 48, 94
19, 32820, Note_on_c, 10, 48, 0
19, 32820, Note_on_c, 10, 52, 90
19, 32880, Note_on_c, 10, 52, 0
19, 32880, Note_on_c, 10, 55, 94
19, 32940, Note_on_c, 10, 55, 0
19, 32940, Note_on_c, 10, 52, 90
19, 33000, Note_on_c, 10, 52, 0
19, 33000, Note_on_c, 10, 48, 93
19, 33060, Note_on_c, 10, 48, 0
19, 33060, Note_on_c, 10, 43, 90
19, 33120, Note_on_c, 10, 43, 0
19, 33180, Note_on_c, 10, 45, 89
19, 33240, Note_on_c, 10, 45, 0
19, 33240, Note_on_c, 10, 48, 94
19, 33300, Note_on_c, 10, 48, 0
19, 33300, Note_on_c, 10, 52, 91
19, 33360, Note_on_c, 10, 52, 0
19, 33360, Note_on_c, 10, 55, 93
19, 33420, Note_on_c, 10, 55, 0
19, 33420, Note_on_c, 10, 52, 90
19, 33480, Note_on_c, 10, 52, 0
19, 33480, Note_on_c, 10, 48, 96
19, 33540, Note_on_c, 10, 48, 0
19, 33540, Note_on_c, 10, 45, 89
19, 33600, Note_on_c, 10, 45, 0
19, 33660, Note_on_c, 10, 45, 91
19, 33720, Note_on_c, 10, 45, 0
19, 33720, Note_on_c, 10, 50, 94
19, 33780, Note_on_c, 10, 50, 0
19, 33780, Note_on_c, 10, 53, 90
19, 33840, Note_on_c, 10, 53, 0
19, 33840, Note_on_c, 10, 57, 94
19, 33900, Note_on_c, 10, 57, 0
19, 33900, Note_on_c, 10, 53, 90
19, 33960, Note_on_c, 10, 53, 0
19, 33960, Note_on_c, 10, 50, 93
19, 34020, Note_on_c, 10, 50, 0
19, 34020, Note_on_c, 10, 45, 90
19, 34080, Note_on_c, 10, 45, 0
19, 34140, Note_on_c, 10, 45, 89
19, 34440, Note_on_c, 10, 45, 0
19, 34440, Note_on_c, 10, 53, 96
19, 34560, Note_on_c, 10, 53, 0
19, 34620, Note_on_c, 10, 43, 91
19, 34680, Note_on_c, 10, 43, 0
19, 34680, Note_on_c, 10, 52, 94
19, 34800, Note_on_c, 10, 52, 0
19, 34860, Note_on_c, 10, 52, 90
19, 34920, Note_on_c, 10, 52, 0
19, 34920, Note_on_c, 10, 55, 93
19, 35040, Note_on_c, 10, 55, 0
19, 35040, Note_on_c, 10, 50, 96
19, 35041, Note_on_c, 10, 57, 96
19, 35042, Note_on_c, 10, 62, 96
19, 35160, Note_on_c, 10, 50, 0
19, 35160, Note_on_c, 10, 43, 94
19, 35160, Note_on_c, 10, 53, 94
19, 35161, Note_on_c, 10, 57, 0
19, 35162, Note_on_c, 10, 62, 0
19, 35280, Note_on_c, 10, 43, 0
19, 35280, Note_on_c, 10, 53, 0
19, 35280, Note_on_c, 10, 52, 93
19, 35280, Note_on_c, 10, 43, 93
19, 35280, Note_on_c, 10, 36, 93
19, 35560, Note_on_c, 10, 36, 0
19, 35560, Note_on_c, 10, 43, 0
19, 35560, Note_on_c, 10, 52, 0
19, 35560, End_track
20, 0, Start_track
20, 0, MIDI_port, 0
20, 0, Title_t, "Bass"
20, 0, Program_c, 11, 33
20, 0, Control_c, 11, 7, 95
20, 0, Control_c, 11, 10, 61
20, 0, Control_c, 11, 121, 0
20, 0, Control_c, 11, 123, 0
20, 0, Control_c, 11, 91, 60
20, 960, Note_on_c, 11, 41, 94
20, 960, Note_on_c, 11, 48, 94
20, 1440, Note_on_c, 11, 48, 0
20, 1440, Note_on_c, 11, 41, 0
20, 1440, Note_on_c, 11, 40, 94
20, 1440, Note_on_c, 11, 47, 94
20, 1920, Note_on_c, 11, 47, 0
20, 1920, Note_on_c, 11, 40, 0
20, 1920, Note_on_c, 11, 38, 94
20, 1920, Note_on_c, 11, 45, 94
20, 2160, Note_on_c, 11, 45, 0
20, 2160, Note_on_c, 11, 38, 0
20, 2160, Note_on_c, 11, 36, 93
20, 2160, Note_on_c, 11, 43, 93
20, 2400, Note_on_c, 11, 43, 0
20, 2400, Note_on_c, 11, 36, 0
20, 2400, Note_on_c, 11, 43, 94
20, 2400, Note_on_c, 11, 53, 94
20, 2640, Note_on_c, 11, 53, 0
20, 2640, Note_on_c, 11, 43, 0
20, 2640, Note_on_c, 11, 43, 91
20, 2640, Note_on_c, 11, 53, 91
20, 2880, Note_on_c, 11, 53, 0
20, 2880, Note_on_c, 11, 43, 0
20, 2880, Note_on_c, 11, 36, 94
20, 3360, Note_on_c, 11, 36, 0
20, 3360, Note_on_c, 11, 33, 94
20, 3360, Note_on_c, 11, 40, 94
20, 3840, Note_on_c, 11, 40, 0
20, 3840, Note_on_c, 11, 33, 0
20, 3840, Note_on_c, 11, 38, 94
20, 4320, Note_on_c, 11, 38, 0
20, 4320, Note_on_c, 11, 31, 94
20, 4800, Note_on_c, 11, 31, 0
20, 4800, Note_on_c, 11, 36, 94
20, 5280, Note_on_c, 11, 36, 0
20, 5280, Note_on_c, 11, 34, 94
20, 5280, Note_on_c, 11, 41, 94
20, 5760, Note_on_c, 11, 41, 0
20, 5760, Note_on_c, 11, 34, 0
20, 5760, Note_on_c, 11, 33, 94
20, 5760, Note_on_c, 11, 40, 94
20, 6000, Note_on_c, 11, 40, 0
20, 6000, Note_on_c, 11, 33, 0
20, 6120, Note_on_c, 11, 45, 92
20, 6240, Note_on_c, 11, 45, 0
20, 6240, Note_on_c, 11, 38, 94
20, 6480, Note_on_c, 11, 38, 0
20, 6480, Note_on_c, 11, 43, 91
20, 6600, Note_on_c, 11, 43, 0
20, 6660, Note_on_c, 11, 43, 88
20, 6720, Note_on_c, 11, 43, 0
20, 6720, Note_on_c, 11, 36, 94
20, 7200, Note_on_c, 11, 36, 0
20, 7200, Note_on_c, 11, 33, 94
20, 7200, Note_on_c, 11, 40, 94
20, 7680, Note_on_c, 11, 40, 0
20, 7680, Note_on_c, 11, 33, 0
20, 7680, Note_on_c, 11, 38, 94
20, 8160, Note_on_c, 11, 38, 0
20, 8160, Note_on_c, 11, 31, 94
20, 8640, Note_on_c, 11, 31, 0
20, 8640, Note_on_c, 11, 36, 94
20, 9120, Note_on_c, 11, 36, 0
20, 9120, Note_on_c, 11, 34, 94
20, 9120, Note_on_c, 11, 41, 94
20, 9600, Note_on_c, 11, 41, 0
20, 9600, Note_on_c, 11, 34, 0
20, 9600, Note_on_c, 11, 33, 94
20, 9600, Note_on_c, 11, 40, 94
20, 10080, Note_on_c, 11, 40, 0
20, 10080, Note_on_c, 11, 33, 0
20, 10080, Note_on_c, 11, 40, 94
20, 10320, Note_on_c, 11, 40, 0
20, 10320, Note_on_c, 11, 39, 91
20, 10560, Note_on_c, 11, 39, 0
20, 10560, Note_on_c, 11, 38, 94
20, 11040, Note_on_c, 11, 38, 0
20, 11040, Note_on_c, 11, 40, 94
20, 11520, Note_on_c, 11, 40, 0
20, 11520, Note_on_c, 11, 45, 94
20, 11760, Note_on_c, 11, 45, 0
20, 11760, Note_on_c, 11, 43, 93
20, 12000, Note_on_c, 11, 43, 0
20, 12000, Note_on_c, 11, 41, 94
20, 12480, Note_on_c, 11, 41, 0
20, 12480, Note_on_c, 11, 43, 94
20, 12960, Note_on_c, 11, 43, 0
20, 12960, Note_on_c, 11, 44, 94
20, 13440, Note_on_c, 11, 44, 0
20, 13440, Note_on_c, 11, 45, 94
20, 13920, Note_on_c, 11, 45, 0
20, 13920, Note_on_c, 11, 38, 94
20, 14160, Note_on_c, 11, 38, 0
20, 14160, Note_on_c, 11, 43, 91
20, 14400, Note_on_c, 11, 43, 0
20, 14400, Note_on_c, 11, 36, 94
20, 14880, Note_on_c, 11, 36, 0
20, 14880, Note_on_c, 11, 33, 94
20, 14880, Note_on_c, 11, 40, 94
20, 15360, Note_on_c, 11, 40, 0
20, 15360, Note_on_c, 11, 33, 0
20, 15360, Note_on_c, 11, 41, 94
20, 15360, Note_on_c, 11, 48, 94
20, 15840, Note_on_c, 11, 48, 0
20, 15840, Note_on_c, 11, 41, 0
20, 15840, Note_on_c, 11, 38, 94
20, 16080, Note_on_c, 11, 38, 0
20, 16080, Note_on_c, 11, 43, 91
20, 16320, Note_on_c, 11, 43, 0
20, 16320, Note_on_c, 11, 36, 94
20, 16800, Note_on_c, 11, 36, 0
20, 16800, Note_on_c, 11, 33, 94
20, 16800, Note_on_c, 11, 40, 94
20, 17280, Note_on_c, 11, 40, 0
20, 17280, Note_on_c, 11, 33, 0
20, 17280, Note_on_c, 11, 38, 94
20, 17760, Note_on_c, 11, 38, 0
20, 17760, Note_on_c, 11, 38, 94
20, 18120, Note_on_c, 11, 38, 0
20, 18120, Note_on_c, 11, 43, 94
20, 18240, Note_on_c, 11, 43, 0
20, 18240, Note_on_c, 11, 36, 94
20, 18480, Note_on_c, 11, 36, 0
20, 18480, Note_on_c, 11, 45, 93
20, 18720, Note_on_c, 11, 45, 0
20, 18720, Note_on_c, 11, 38, 94
20, 18960, Note_on_c, 11, 38, 0
20, 18960, Note_on_c, 11, 43, 91
20, 19200, Note_on_c, 11, 43, 0
20, 19200, Note_on_c, 11, 36, 94
20, 19680, Note_on_c, 11, 36, 0
20, 19680, Note_on_c, 11, 33, 94
20, 19680, Note_on_c, 11, 40, 94
20, 20160, Note_on_c, 11, 40, 0
20, 20160, Note_on_c, 11, 33, 0
20, 20160, Note_on_c, 11, 38, 94
20, 20640, Note_on_c, 11, 38, 0
20, 20640, Note_on_c, 11, 31, 94
20, 21120, Note_on_c, 11, 31, 0
20, 21120, Note_on_c, 11, 36, 94
20, 21600, Note_on_c, 11, 36, 0
20, 21600, Note_on_c, 11, 34, 94
20, 21600, Note_on_c, 11, 41, 94
20, 22080, Note_on_c, 11, 41, 0
20, 22080, Note_on_c, 11, 34, 0
20, 22080, Note_on_c, 11, 33, 94
20, 22080, Note_on_c, 11, 40, 94
20, 22320, Note_on_c, 11, 40, 0
20, 22320, Note_on_c, 11, 33, 0
20, 22440, Note_on_c, 11, 45, 92
20, 22560, Note_on_c, 11, 45, 0
20, 22560, Note_on_c, 11, 38, 94
20, 22800, Note_on_c, 11, 38, 0
20, 22800, Note_on_c, 11, 43, 91
20, 22920, Note_on_c, 11, 43, 0
20, 22980, Note_on_c, 11, 43, 88
20, 23040, Note_on_c, 11, 43, 0
20, 23040, Note_on_c, 11, 36, 94
20, 23520, Note_on_c, 11, 36, 0
20, 23520, Note_on_c, 11, 33, 94
20, 23520, Note_on_c, 11, 40, 94
20, 24000, Note_on_c, 11, 40, 0
20, 24000, Note_on_c, 11, 33, 0
20, 24000, Note_on_c, 11, 38, 94
20, 24480, Note_on_c, 11, 38, 0
20, 24480, Note_on_c, 11, 31, 94
20, 24960, Note_on_c, 11, 31, 0
20, 24960, Note_on_c, 11, 36, 94
20, 25440, Note_on_c, 11, 36, 0
20, 25440, Note_on_c, 11, 34, 94
20, 25440, Note_on_c, 11, 41, 94
20, 25920, Note_on_c, 11, 41, 0
20, 25920, Note_on_c, 11, 34, 0
20, 25920, Note_on_c, 11, 33, 94
20, 25920, Note_on_c, 11, 40, 94
20, 26400, Note_on_c, 11, 40, 0
20, 26400, Note_on_c, 11, 33, 0
20, 26400, Note_on_c, 11, 40, 94
20, 26640, Note_on_c, 11, 40, 0
20, 26640, Note_on_c, 11, 39, 91
20, 26880, Note_on_c, 11, 39, 0
20, 26880, Note_on_c, 11, 38, 94
20, 27360, Note_on_c, 11, 38, 0
20, 27360, Note_on_c, 11, 40, 94
20, 27840, Note_on_c, 11, 40, 0
20, 27840, Note_on_c, 11, 45, 94
20, 28080, Note_on_c, 11, 45, 0
20, 28080, Note_on_c, 11, 43, 93
20, 28320, Note_on_c, 11, 43, 0
20, 28320, Note_on_c, 11, 41, 94
20, 28800, Note_on_c, 11, 41, 0
20, 28800, Note_on_c, 11, 43, 94
20, 29280, Note_on_c, 11, 43, 0
20, 29280, Note_on_c, 11, 44, 94
20, 29760, Note_on_c, 11, 44, 0
20, 29760, Note_on_c, 11, 45, 94
20, 30240, Note_on_c, 11, 45, 0
20, 30240, Note_on_c, 11, 38, 94
20, 30480, Note_on_c, 11, 38, 0
20, 30480, Note_on_c, 11, 43, 91
20, 30720, Note_on_c, 11, 43, 0
20, 30720, Note_on_c, 11, 36, 94
20, 31200, Note_on_c, 11, 36, 0
20, 31200, Note_on_c, 11, 33, 94
20, 31200, Note_on_c, 11, 40, 94
20, 31680, Note_on_c, 11, 40, 0
20, 31680, Note_on_c, 11, 33, 0
20, 31680, Note_on_c, 11, 41, 94
20, 31680, Note_on_c, 11, 48, 94
20, 32160, Note_on_c, 11, 48, 0
20, 32160, Note_on_c, 11, 41, 0
20, 32160, Note_on_c, 11, 38, 94
20, 32400, Note_on_c, 11, 38, 0
20, 32400, Note_on_c, 11, 43, 91
20, 32640, Note_on_c, 11, 43, 0
20, 32640, Note_on_c, 11, 36, 94
20, 33120, Note_on_c, 11, 36, 0
20, 33120, Note_on_c, 11, 33, 94
20, 33120, Note_on_c, 11, 40, 94
20, 33600, Note_on_c, 11, 40, 0
20, 33600, Note_on_c, 11, 33, 0
20, 33600, Note_on_c, 11, 38, 94
20, 34080, Note_on_c, 11, 38, 0
20, 34080, Note_on_c, 11, 38, 94
20, 34440, Note_on_c, 11, 38, 0
20, 34440, Note_on_c, 11, 43, 94
20, 34560, Note_on_c, 11, 43, 0
20, 34560, Note_on_c, 11, 36, 94
20, 34800, Note_on_c, 11, 36, 0
20, 34800, Note_on_c, 11, 45, 93
20, 35040, Note_on_c, 11, 45, 0
20, 35040, End_track
0, 0, End_of_file
