0, 0, Header, 1, 6, 960
1, 0, Start_track
1, 0, Control_c, 0, 101, 0
1, 0, Control_c, 0, 100, 0
1, 0, Control_c, 0, 6, 12
1, 0, Control_c, 0, 38, 0
1, 0, Control_c, 1, 101, 0
1, 0, Control_c, 1, 100, 0
1, 0, Control_c, 1, 6, 12
1, 0, Control_c, 1, 38, 0
1, 0, Control_c, 2, 101, 0
1, 0, Control_c, 2, 100, 0
1, 0, Control_c, 2, 6, 12
1, 0, Control_c, 2, 38, 0
1, 0, Control_c, 3, 101, 0
1, 0, Control_c, 3, 100, 0
1, 0, Control_c, 3, 6, 12
1, 0, Control_c, 3, 38, 0
1, 0, Control_c, 4, 101, 0
1, 0, Control_c, 4, 100, 0
1, 0, Control_c, 4, 6, 12
1, 0, Control_c, 4, 38, 0
1, 0, Control_c, 5, 101, 0
1, 0, Control_c, 5, 100, 0
1, 0, Control_c, 5, 6, 12
1, 0, Control_c, 5, 38, 0
1, 0, Control_c, 6, 101, 0
1, 0, Control_c, 6, 100, 0
1, 0, Control_c, 6, 6, 12
1, 0, Control_c, 6, 38, 0
1, 0, Control_c, 7, 101, 0
1, 0, Control_c, 7, 100, 0
1, 0, Control_c, 7, 6, 12
1, 0, Control_c, 7, 38, 0
1, 0, Control_c, 8, 101, 0
1, 0, Control_c, 8, 100, 0
1, 0, Control_c, 8, 6, 12
1, 0, Control_c, 8, 38, 0
1, 0, Control_c, 9, 101, 0
1, 0, Control_c, 9, 100, 0
1, 0, Control_c, 9, 6, 12
1, 0, Control_c, 9, 38, 0
1, 0, Control_c, 10, 101, 0
1, 0, Control_c, 10, 100, 0
1, 0, Control_c, 10, 6, 12
1, 0, Control_c, 10, 38, 0
1, 0, Control_c, 11, 101, 0
1, 0, Control_c, 11, 100, 0
1, 0, Control_c, 11, 6, 12
1, 0, Control_c, 11, 38, 0
1, 0, Control_c, 12, 101, 0
1, 0, Control_c, 12, 100, 0
1, 0, Control_c, 12, 6, 12
1, 0, Control_c, 12, 38, 0
1, 0, Control_c, 13, 101, 0
1, 0, Control_c, 13, 100, 0
1, 0, Control_c, 13, 6, 12
1, 0, Control_c, 13, 38, 0
1, 0, Control_c, 14, 101, 0
1, 0, Control_c, 14, 100, 0
1, 0, Control_c, 14, 6, 12
1, 0, Control_c, 14, 38, 0
1, 0, Control_c, 15, 101, 0
1, 0, Control_c, 15, 100, 0
1, 0, Control_c, 15, 6, 12
1, 0, Control_c, 15, 38, 0
1, 0, Time_signature, 4, 2, 24, 8
1, 0, Tempo, 967741
1, 176640, Tempo, 1500000
1, 180480, Tempo, 1200000
1, 180480, End_track
2, 0, Start_track
2, 0, Pitch_bend_c, 0, 8192
2, 0, Control_c, 0, 7, 87
2, 0, Control_c, 0, 10, 15
2, 0, Control_c, 0, 93, 63
2, 0, Control_c, 0, 91, 0
2, 0, Control_c, 0, 95, 0
2, 0, Control_c, 0, 92, 127
2, 0, Control_c, 0, 11, 127
2, 0, Program_c, 0, 2
2, 0, Note_on_c, 0, 67, 95
2, 0, Note_on_c, 0, 64, 95
2, 240, Note_off_c, 0, 67, 95
2, 240, Note_off_c, 0, 64, 95
2, 240, Note_on_c, 0, 67, 95
2, 240, Note_on_c, 0, 64, 95
2, 480, Note_off_c, 0, 67, 95
2, 480, Note_off_c, 0, 64, 95
2, 480, Note_on_c, 0, 64, 95
2, 480, Note_on_c, 0, 66, 95
2, 720, Note_off_c, 0, 64, 95
2, 720, Note_off_c, 0, 66, 95
2, 720, Note_on_c, 0, 64, 95
2, 720, Note_on_c, 0, 66, 95
2, 960, Note_off_c, 0, 64, 95
2, 960, Note_off_c, 0, 66, 95
2, 960, Note_on_c, 0, 64, 95
2, 960, Note_on_c, 0, 67, 95
2, 1200, Note_off_c, 0, 64, 95
2, 1200, Note_off_c, 0, 67, 95
2, 1200, Note_on_c, 0, 64, 95
2, 1200, Note_on_c, 0, 67, 95
2, 1440, Note_off_c, 0, 64, 95
2, 1440, Note_off_c, 0, 67, 95
2, 1440, Note_on_c, 0, 64, 95
2, 1440, Note_on_c, 0, 66, 95
2, 1680, Note_off_c, 0, 64, 95
2, 1680, Note_off_c, 0, 66, 95
2, 1680, Note_on_c, 0, 64, 95
2, 1680, Note_on_c, 0, 66, 95
2, 1920, Note_off_c, 0, 64, 95
2, 1920, Note_off_c, 0, 66, 95
2, 1920, Note_on_c, 0, 64, 95
2, 1920, Note_on_c, 0, 67, 95
2, 2160, Note_off_c, 0, 64, 95
2, 2160, Note_off_c, 0, 67, 95
2, 2160, Note_on_c, 0, 64, 95
2, 2160, Note_on_c, 0, 67, 95
2, 2400, Note_off_c, 0, 64, 95
2, 2400, Note_off_c, 0, 67, 95
2, 2400, Note_on_c, 0, 64, 95
2, 2400, Note_on_c, 0, 66, 95
2, 2640, Note_off_c, 0, 64, 95
2, 2640, Note_off_c, 0, 66, 95
2, 2640, Note_on_c, 0, 64, 95
2, 2640, Note_on_c, 0, 66, 95
2, 2880, Note_off_c, 0, 64, 95
2, 2880, Note_off_c, 0, 66, 95
2, 2880, Note_on_c, 0, 64, 95
2, 2880, Note_on_c, 0, 67, 95
2, 3120, Note_off_c, 0, 64, 95
2, 3120, Note_off_c, 0, 67, 95
2, 3120, Note_on_c, 0, 64, 95
2, 3120, Note_on_c, 0, 67, 95
2, 3360, Note_off_c, 0, 64, 95
2, 3360, Note_off_c, 0, 67, 95
2, 3360, Note_on_c, 0, 64, 95
2, 3360, Note_on_c, 0, 66, 95
2, 3600, Note_off_c, 0, 64, 95
2, 3600, Note_off_c, 0, 66, 95
2, 3600, Note_on_c, 0, 64, 95
2, 3600, Note_on_c, 0, 66, 95
2, 3840, Note_off_c, 0, 64, 95
2, 3840, Note_off_c, 0, 66, 95
2, 3840, Note_on_c, 0, 64, 95
2, 3840, Note_on_c, 0, 67, 95
2, 4080, Note_off_c, 0, 64, 95
2, 4080, Note_off_c, 0, 67, 95
2, 4080, Note_on_c, 0, 64, 95
2, 4080, Note_on_c, 0, 67, 95
2, 4320, Note_off_c, 0, 64, 95
2, 4320, Note_off_c, 0, 67, 95
2, 4320, Note_on_c, 0, 64, 95
2, 4320, Note_on_c, 0, 66, 95
2, 4560, Note_off_c, 0, 64, 95
2, 4560, Note_off_c, 0, 66, 95
2, 4560, Note_on_c, 0, 64, 95
2, 4560, Note_on_c, 0, 66, 95
2, 4800, Note_off_c, 0, 64, 95
2, 4800, Note_off_c, 0, 66, 95
2, 4800, Note_on_c, 0, 64, 95
2, 4800, Note_on_c, 0, 67, 95
2, 5040, Note_off_c, 0, 64, 95
2, 5040, Note_off_c, 0, 67, 95
2, 5040, Note_on_c, 0, 64, 95
2, 5040, Note_on_c, 0, 67, 95
2, 5280, Note_off_c, 0, 64, 95
2, 5280, Note_off_c, 0, 67, 95
2, 5280, Note_on_c, 0, 64, 95
2, 5280, Note_on_c, 0, 66, 95
2, 5520, Note_off_c, 0, 64, 95
2, 5520, Note_off_c, 0, 66, 95
2, 5520, Note_on_c, 0, 64, 95
2, 5520, Note_on_c, 0, 66, 95
2, 5760, Note_off_c, 0, 64, 95
2, 5760, Note_off_c, 0, 66, 95
2, 5760, Note_on_c, 0, 64, 95
2, 5760, Note_on_c, 0, 67, 95
2, 6000, Note_off_c, 0, 64, 95
2, 6000, Note_off_c, 0, 67, 95
2, 6000, Note_on_c, 0, 64, 95
2, 6000, Note_on_c, 0, 67, 95
2, 6240, Note_off_c, 0, 64, 95
2, 6240, Note_off_c, 0, 67, 95
2, 6240, Note_on_c, 0, 64, 95
2, 6240, Note_on_c, 0, 66, 95
2, 6480, Note_off_c, 0, 64, 95
2, 6480, Note_off_c, 0, 66, 95
2, 6480, Note_on_c, 0, 64, 95
2, 6480, Note_on_c, 0, 66, 95
2, 6720, Note_off_c, 0, 64, 95
2, 6720, Note_off_c, 0, 66, 95
2, 6720, Note_on_c, 0, 64, 95
2, 6720, Note_on_c, 0, 67, 95
2, 6960, Note_off_c, 0, 64, 95
2, 6960, Note_off_c, 0, 67, 95
2, 6960, Note_on_c, 0, 64, 95
2, 6960, Note_on_c, 0, 67, 95
2, 7200, Note_off_c, 0, 64, 95
2, 7200, Note_off_c, 0, 67, 95
2, 7200, Note_on_c, 0, 64, 95
2, 7200, Note_on_c, 0, 66, 95
2, 7440, Note_off_c, 0, 64, 95
2, 7440, Note_off_c, 0, 66, 95
2, 7440, Note_on_c, 0, 64, 95
2, 7440, Note_on_c, 0, 66, 95
2, 7680, Note_off_c, 0, 64, 95
2, 7680, Note_off_c, 0, 66, 95
2, 7680, Note_on_c, 0, 64, 95
2, 7680, Note_on_c, 0, 67, 95
2, 7920, Note_off_c, 0, 64, 95
2, 7920, Note_off_c, 0, 67, 95
2, 7920, Note_on_c, 0, 64, 95
2, 7920, Note_on_c, 0, 67, 95
2, 8160, Note_off_c, 0, 64, 95
2, 8160, Note_off_c, 0, 67, 95
2, 8160, Note_on_c, 0, 64, 95
2, 8160, Note_on_c, 0, 66, 95
2, 8400, Note_off_c, 0, 64, 95
2, 8400, Note_off_c, 0, 66, 95
2, 8400, Note_on_c, 0, 64, 95
2, 8400, Note_on_c, 0, 66, 95
2, 8640, Note_off_c, 0, 64, 95
2, 8640, Note_off_c, 0, 66, 95
2, 8640, Note_on_c, 0, 64, 95
2, 8640, Note_on_c, 0, 67, 95
2, 8880, Note_off_c, 0, 64, 95
2, 8880, Note_off_c, 0, 67, 95
2, 8880, Note_on_c, 0, 64, 95
2, 8880, Note_on_c, 0, 67, 95
2, 9120, Note_off_c, 0, 64, 95
2, 9120, Note_off_c, 0, 67, 95
2, 9120, Note_on_c, 0, 64, 95
2, 9120, Note_on_c, 0, 66, 95
2, 9360, Note_off_c, 0, 64, 95
2, 9360, Note_off_c, 0, 66, 95
2, 9360, Note_on_c, 0, 64, 95
2, 9360, Note_on_c, 0, 66, 95
2, 9600, Note_off_c, 0, 64, 95
2, 9600, Note_off_c, 0, 66, 95
2, 9600, Note_on_c, 0, 64, 95
2, 9600, Note_on_c, 0, 67, 95
2, 9840, Note_off_c, 0, 64, 95
2, 9840, Note_off_c, 0, 67, 95
2, 9840, Note_on_c, 0, 64, 95
2, 9840, Note_on_c, 0, 67, 95
2, 10080, Note_off_c, 0, 64, 95
2, 10080, Note_off_c, 0, 67, 95
2, 10080, Note_on_c, 0, 64, 95
2, 10080, Note_on_c, 0, 66, 95
2, 10320, Note_off_c, 0, 64, 95
2, 10320, Note_off_c, 0, 66, 95
2, 10320, Note_on_c, 0, 64, 95
2, 10320, Note_on_c, 0, 66, 95
2, 10560, Note_off_c, 0, 64, 95
2, 10560, Note_off_c, 0, 66, 95
2, 10560, Note_on_c, 0, 64, 95
2, 10560, Note_on_c, 0, 67, 95
2, 10800, Note_off_c, 0, 64, 95
2, 10800, Note_off_c, 0, 67, 95
2, 10800, Note_on_c, 0, 64, 95
2, 10800, Note_on_c, 0, 67, 95
2, 11040, Note_off_c, 0, 64, 95
2, 11040, Note_off_c, 0, 67, 95
2, 11040, Note_on_c, 0, 64, 95
2, 11040, Note_on_c, 0, 66, 95
2, 11280, Note_off_c, 0, 64, 95
2, 11280, Note_off_c, 0, 66, 95
2, 11280, Note_on_c, 0, 64, 95
2, 11280, Note_on_c, 0, 66, 95
2, 11520, Note_off_c, 0, 64, 95
2, 11520, Note_off_c, 0, 66, 95
2, 11520, Note_on_c, 0, 64, 95
2, 11520, Note_on_c, 0, 67, 95
2, 11760, Note_off_c, 0, 64, 95
2, 11760, Note_off_c, 0, 67, 95
2, 11760, Note_on_c, 0, 64, 95
2, 11760, Note_on_c, 0, 67, 95
2, 12000, Note_off_c, 0, 64, 95
2, 12000, Note_off_c, 0, 67, 95
2, 12000, Note_on_c, 0, 64, 95
2, 12000, Note_on_c, 0, 66, 95
2, 12240, Note_off_c, 0, 64, 95
2, 12240, Note_off_c, 0, 66, 95
2, 12240, Note_on_c, 0, 64, 95
2, 12240, Note_on_c, 0, 66, 95
2, 12480, Note_off_c, 0, 64, 95
2, 12480, Note_off_c, 0, 66, 95
2, 12480, Note_on_c, 0, 64, 95
2, 12480, Note_on_c, 0, 67, 95
2, 12720, Note_off_c, 0, 64, 95
2, 12720, Note_off_c, 0, 67, 95
2, 12720, Note_on_c, 0, 64, 95
2, 12720, Note_on_c, 0, 67, 95
2, 12960, Note_off_c, 0, 64, 95
2, 12960, Note_off_c, 0, 67, 95
2, 12960, Note_on_c, 0, 64, 95
2, 12960, Note_on_c, 0, 66, 95
2, 13200, Note_off_c, 0, 64, 95
2, 13200, Note_off_c, 0, 66, 95
2, 13200, Note_on_c, 0, 64, 95
2, 13200, Note_on_c, 0, 66, 95
2, 13440, Note_off_c, 0, 64, 95
2, 13440, Note_off_c, 0, 66, 95
2, 13440, Note_on_c, 0, 64, 95
2, 13440, Note_on_c, 0, 67, 95
2, 13680, Note_off_c, 0, 64, 95
2, 13680, Note_off_c, 0, 67, 95
2, 13680, Note_on_c, 0, 64, 95
2, 13680, Note_on_c, 0, 67, 95
2, 13920, Note_off_c, 0, 64, 95
2, 13920, Note_off_c, 0, 67, 95
2, 13920, Note_on_c, 0, 64, 95
2, 13920, Note_on_c, 0, 66, 95
2, 14160, Note_off_c, 0, 64, 95
2, 14160, Note_off_c, 0, 66, 95
2, 14160, Note_on_c, 0, 64, 95
2, 14160, Note_on_c, 0, 66, 95
2, 14400, Note_off_c, 0, 64, 95
2, 14400, Note_off_c, 0, 66, 95
2, 14400, Note_on_c, 0, 64, 95
2, 14400, Note_on_c, 0, 67, 95
2, 14640, Note_off_c, 0, 64, 95
2, 14640, Note_off_c, 0, 67, 95
2, 14640, Note_on_c, 0, 64, 95
2, 14640, Note_on_c, 0, 67, 95
2, 14880, Note_off_c, 0, 64, 95
2, 14880, Note_off_c, 0, 67, 95
2, 14880, Note_on_c, 0, 64, 95
2, 14880, Note_on_c, 0, 66, 95
2, 15120, Note_off_c, 0, 64, 95
2, 15120, Note_off_c, 0, 66, 95
2, 15120, Note_on_c, 0, 64, 95
2, 15120, Note_on_c, 0, 66, 95
2, 15360, Note_off_c, 0, 64, 95
2, 15360, Note_off_c, 0, 66, 95
2, 15360, Note_on_c, 0, 67, 95
2, 15360, Note_on_c, 0, 62, 95
2, 15600, Note_off_c, 0, 67, 95
2, 15600, Note_off_c, 0, 62, 95
2, 15600, Note_on_c, 0, 67, 95
2, 15600, Note_on_c, 0, 62, 95
2, 15840, Note_off_c, 0, 67, 95
2, 15840, Note_off_c, 0, 62, 95
2, 15840, Note_on_c, 0, 66, 95
2, 15840, Note_on_c, 0, 62, 95
2, 16080, Note_off_c, 0, 66, 95
2, 16080, Note_off_c, 0, 62, 95
2, 16080, Note_on_c, 0, 58, 95
2, 16320, Note_off_c, 0, 58, 95
2, 16320, Note_on_c, 0, 67, 95
2, 16320, Note_on_c, 0, 62, 95
2, 16560, Note_off_c, 0, 67, 95
2, 16560, Note_off_c, 0, 62, 95
2, 16560, Note_on_c, 0, 67, 95
2, 16560, Note_on_c, 0, 62, 95
2, 16800, Note_off_c, 0, 67, 95
2, 16800, Note_off_c, 0, 62, 95
2, 16800, Note_on_c, 0, 66, 95
2, 16800, Note_on_c, 0, 62, 95
2, 17040, Note_off_c, 0, 66, 95
2, 17040, Note_off_c, 0, 62, 95
2, 17040, Note_on_c, 0, 58, 95
2, 17280, Note_off_c, 0, 58, 95
2, 17280, Note_on_c, 0, 67, 95
2, 17280, Note_on_c, 0, 62, 95
2, 17520, Note_off_c, 0, 67, 95
2, 17520, Note_off_c, 0, 62, 95
2, 17520, Note_on_c, 0, 67, 95
2, 17520, Note_on_c, 0, 62, 95
2, 17760, Note_off_c, 0, 67, 95
2, 17760, Note_off_c, 0, 62, 95
2, 17760, Note_on_c, 0, 66, 95
2, 17760, Note_on_c, 0, 62, 95
2, 18000, Note_off_c, 0, 66, 95
2, 18000, Note_off_c, 0, 62, 95
2, 18000, Note_on_c, 0, 58, 95
2, 18240, Note_off_c, 0, 58, 95
2, 18240, Note_on_c, 0, 67, 95
2, 18240, Note_on_c, 0, 62, 95
2, 18480, Note_off_c, 0, 67, 95
2, 18480, Note_off_c, 0, 62, 95
2, 18480, Note_on_c, 0, 67, 95
2, 18480, Note_on_c, 0, 62, 95
2, 18720, Note_off_c, 0, 67, 95
2, 18720, Note_off_c, 0, 62, 95
2, 18720, Note_on_c, 0, 66, 95
2, 18720, Note_on_c, 0, 62, 95
2, 18960, Note_off_c, 0, 66, 95
2, 18960, Note_off_c, 0, 62, 95
2, 18960, Note_on_c, 0, 58, 95
2, 19200, Note_off_c, 0, 58, 95
2, 19200, Note_on_c, 0, 67, 95
2, 19200, Note_on_c, 0, 62, 95
2, 19440, Note_off_c, 0, 67, 95
2, 19440, Note_off_c, 0, 62, 95
2, 19440, Note_on_c, 0, 67, 95
2, 19440, Note_on_c, 0, 62, 95
2, 19680, Note_off_c, 0, 67, 95
2, 19680, Note_off_c, 0, 62, 95
2, 19680, Note_on_c, 0, 66, 95
2, 19680, Note_on_c, 0, 62, 95
2, 19920, Note_off_c, 0, 66, 95
2, 19920, Note_off_c, 0, 62, 95
2, 19920, Note_on_c, 0, 58, 95
2, 20160, Note_off_c, 0, 58, 95
2, 20160, Note_on_c, 0, 67, 95
2, 20160, Note_on_c, 0, 62, 95
2, 20400, Note_off_c, 0, 67, 95
2, 20400, Note_off_c, 0, 62, 95
2, 20400, Note_on_c, 0, 67, 95
2, 20400, Note_on_c, 0, 62, 95
2, 20640, Note_off_c, 0, 67, 95
2, 20640, Note_off_c, 0, 62, 95
2, 20640, Note_on_c, 0, 66, 95
2, 20640, Note_on_c, 0, 62, 95
2, 20880, Note_off_c, 0, 66, 95
2, 20880, Note_off_c, 0, 62, 95
2, 20880, Note_on_c, 0, 58, 95
2, 21120, Note_off_c, 0, 58, 95
2, 21120, Note_on_c, 0, 67, 95
2, 21120, Note_on_c, 0, 62, 95
2, 21360, Note_off_c, 0, 67, 95
2, 21360, Note_off_c, 0, 62, 95
2, 21360, Note_on_c, 0, 67, 95
2, 21360, Note_on_c, 0, 62, 95
2, 21600, Note_off_c, 0, 67, 95
2, 21600, Note_off_c, 0, 62, 95
2, 21600, Note_on_c, 0, 66, 95
2, 21600, Note_on_c, 0, 62, 95
2, 21840, Note_off_c, 0, 66, 95
2, 21840, Note_off_c, 0, 62, 95
2, 21840, Note_on_c, 0, 58, 95
2, 22080, Note_off_c, 0, 58, 95
2, 22080, Note_on_c, 0, 67, 95
2, 22080, Note_on_c, 0, 62, 95
2, 22320, Note_off_c, 0, 67, 95
2, 22320, Note_off_c, 0, 62, 95
2, 22320, Note_on_c, 0, 67, 95
2, 22320, Note_on_c, 0, 62, 95
2, 22560, Note_off_c, 0, 67, 95
2, 22560, Note_off_c, 0, 62, 95
2, 22560, Note_on_c, 0, 66, 95
2, 22560, Note_on_c, 0, 62, 95
2, 22800, Note_off_c, 0, 66, 95
2, 22800, Note_off_c, 0, 62, 95
2, 22800, Note_on_c, 0, 58, 95
2, 23040, Note_off_c, 0, 58, 95
2, 23040, Note_on_c, 0, 64, 95
2, 23040, Note_on_c, 0, 62, 95
2, 23280, Note_off_c, 0, 64, 95
2, 23280, Note_off_c, 0, 62, 95
2, 23280, Note_on_c, 0, 64, 95
2, 23280, Note_on_c, 0, 62, 95
2, 23520, Note_off_c, 0, 64, 95
2, 23520, Note_off_c, 0, 62, 95
2, 23520, Note_on_c, 0, 57, 95
2, 23760, Note_off_c, 0, 57, 95
2, 23760, Note_on_c, 0, 57, 95
2, 24000, Note_off_c, 0, 57, 95
2, 24000, Note_on_c, 0, 64, 95
2, 24000, Note_on_c, 0, 62, 95
2, 24240, Note_off_c, 0, 64, 95
2, 24240, Note_off_c, 0, 62, 95
2, 24240, Note_on_c, 0, 64, 95
2, 24240, Note_on_c, 0, 62, 95
2, 24480, Note_off_c, 0, 64, 95
2, 24480, Note_off_c, 0, 62, 95
2, 24480, Note_on_c, 0, 57, 95
2, 24720, Note_off_c, 0, 57, 95
2, 24720, Note_on_c, 0, 57, 95
2, 24960, Note_off_c, 0, 57, 95
2, 24960, Note_on_c, 0, 64, 95
2, 24960, Note_on_c, 0, 62, 95
2, 25200, Note_off_c, 0, 64, 95
2, 25200, Note_off_c, 0, 62, 95
2, 25200, Note_on_c, 0, 64, 95
2, 25200, Note_on_c, 0, 62, 95
2, 25440, Note_off_c, 0, 64, 95
2, 25440, Note_off_c, 0, 62, 95
2, 25440, Note_on_c, 0, 57, 95
2, 25680, Note_off_c, 0, 57, 95
2, 25680, Note_on_c, 0, 57, 95
2, 25920, Note_off_c, 0, 57, 95
2, 25920, Note_on_c, 0, 64, 95
2, 25920, Note_on_c, 0, 62, 95
2, 26160, Note_off_c, 0, 64, 95
2, 26160, Note_off_c, 0, 62, 95
2, 26160, Note_on_c, 0, 64, 95
2, 26160, Note_on_c, 0, 62, 95
2, 26400, Note_off_c, 0, 64, 95
2, 26400, Note_off_c, 0, 62, 95
2, 26400, Note_on_c, 0, 57, 95
2, 26640, Note_off_c, 0, 57, 95
2, 26640, Note_on_c, 0, 57, 95
2, 26880, Note_off_c, 0, 57, 95
2, 26880, Note_on_c, 0, 64, 95
2, 26880, Note_on_c, 0, 62, 95
2, 27120, Note_off_c, 0, 64, 95
2, 27120, Note_off_c, 0, 62, 95
2, 27120, Note_on_c, 0, 64, 95
2, 27120, Note_on_c, 0, 62, 95
2, 27360, Note_off_c, 0, 64, 95
2, 27360, Note_off_c, 0, 62, 95
2, 27360, Note_on_c, 0, 57, 95
2, 27600, Note_off_c, 0, 57, 95
2, 27600, Note_on_c, 0, 57, 95
2, 27840, Note_off_c, 0, 57, 95
2, 27840, Note_on_c, 0, 64, 95
2, 27840, Note_on_c, 0, 62, 95
2, 28080, Note_off_c, 0, 64, 95
2, 28080, Note_off_c, 0, 62, 95
2, 28080, Note_on_c, 0, 64, 95
2, 28080, Note_on_c, 0, 62, 95
2, 28320, Note_off_c, 0, 64, 95
2, 28320, Note_off_c, 0, 62, 95
2, 28320, Note_on_c, 0, 57, 95
2, 28560, Note_off_c, 0, 57, 95
2, 28560, Note_on_c, 0, 57, 95
2, 28800, Note_off_c, 0, 57, 95
2, 28800, Note_on_c, 0, 64, 95
2, 28800, Note_on_c, 0, 62, 95
2, 29040, Note_off_c, 0, 64, 95
2, 29040, Note_off_c, 0, 62, 95
2, 29040, Note_on_c, 0, 64, 95
2, 29040, Note_on_c, 0, 62, 95
2, 29280, Note_off_c, 0, 64, 95
2, 29280, Note_off_c, 0, 62, 95
2, 29280, Note_on_c, 0, 57, 95
2, 29280, Note_on_c, 0, 47, 95
2, 29520, Note_off_c, 0, 57, 95
2, 29520, Note_off_c, 0, 47, 95
2, 29520, Note_on_c, 0, 57, 95
2, 29520, Note_on_c, 0, 47, 95
2, 29760, Note_off_c, 0, 57, 95
2, 29760, Note_off_c, 0, 47, 95
2, 29760, Note_on_c, 0, 64, 95
2, 29760, Note_on_c, 0, 62, 95
2, 29760, Note_on_c, 0, 47, 95
2, 30000, Note_off_c, 0, 64, 95
2, 30000, Note_off_c, 0, 62, 95
2, 30000, Note_off_c, 0, 47, 95
2, 30000, Note_on_c, 0, 64, 95
2, 30000, Note_on_c, 0, 62, 95
2, 30000, Note_on_c, 0, 47, 95
2, 30240, Note_off_c, 0, 64, 95
2, 30240, Note_off_c, 0, 62, 95
2, 30240, Note_off_c, 0, 47, 95
2, 30240, Note_on_c, 0, 47, 95
2, 30480, Note_off_c, 0, 47, 95
2, 30480, Note_on_c, 0, 47, 95
2, 30720, Note_off_c, 0, 47, 95
2, 30720, Note_on_c, 0, 64, 95
2, 30720, Note_on_c, 0, 67, 95
2, 30960, Note_off_c, 0, 64, 95
2, 30960, Note_off_c, 0, 67, 95
2, 30960, Note_on_c, 0, 64, 95
2, 30960, Note_on_c, 0, 67, 95
2, 31200, Note_off_c, 0, 64, 95
2, 31200, Note_off_c, 0, 67, 95
2, 31200, Note_on_c, 0, 66, 95
2, 31440, Note_off_c, 0, 66, 95
2, 31440, Note_on_c, 0, 66, 95
2, 31680, Note_off_c, 0, 66, 95
2, 31680, Note_on_c, 0, 64, 95
2, 31680, Note_on_c, 0, 67, 95
2, 31920, Note_off_c, 0, 64, 95
2, 31920, Note_off_c, 0, 67, 95
2, 31920, Note_on_c, 0, 64, 95
2, 31920, Note_on_c, 0, 67, 95
2, 32160, Note_off_c, 0, 64, 95
2, 32160, Note_off_c, 0, 67, 95
2, 32160, Note_on_c, 0, 66, 95
2, 32400, Note_off_c, 0, 66, 95
2, 32400, Note_on_c, 0, 66, 95
2, 32640, Note_off_c, 0, 66, 95
2, 32640, Note_on_c, 0, 64, 95
2, 32640, Note_on_c, 0, 67, 95
2, 32880, Note_off_c, 0, 64, 95
2, 32880, Note_off_c, 0, 67, 95
2, 32880, Note_on_c, 0, 64, 95
2, 32880, Note_on_c, 0, 67, 95
2, 33120, Note_off_c, 0, 64, 95
2, 33120, Note_off_c, 0, 67, 95
2, 33120, Note_on_c, 0, 66, 95
2, 33360, Note_off_c, 0, 66, 95
2, 33360, Note_on_c, 0, 66, 95
2, 33600, Note_off_c, 0, 66, 95
2, 33600, Note_on_c, 0, 64, 95
2, 33600, Note_on_c, 0, 67, 95
2, 33840, Note_off_c, 0, 64, 95
2, 33840, Note_off_c, 0, 67, 95
2, 33840, Note_on_c, 0, 64, 95
2, 33840, Note_on_c, 0, 67, 95
2, 34080, Note_off_c, 0, 64, 95
2, 34080, Note_off_c, 0, 67, 95
2, 34080, Note_on_c, 0, 66, 95
2, 34320, Note_off_c, 0, 66, 95
2, 34320, Note_on_c, 0, 66, 95
2, 34560, Note_off_c, 0, 66, 95
2, 34560, Note_on_c, 0, 64, 95
2, 34560, Note_on_c, 0, 67, 95
2, 34800, Note_off_c, 0, 64, 95
2, 34800, Note_off_c, 0, 67, 95
2, 34800, Note_on_c, 0, 64, 95
2, 34800, Note_on_c, 0, 67, 95
2, 35040, Note_off_c, 0, 64, 95
2, 35040, Note_off_c, 0, 67, 95
2, 35040, Note_on_c, 0, 66, 95
2, 35280, Note_off_c, 0, 66, 95
2, 35280, Note_on_c, 0, 66, 95
2, 35520, Note_off_c, 0, 66, 95
2, 35520, Note_on_c, 0, 64, 95
2, 35520, Note_on_c, 0, 67, 95
2, 35760, Note_off_c, 0, 64, 95
2, 35760, Note_off_c, 0, 67, 95
2, 35760, Note_on_c, 0, 64, 95
2, 35760, Note_on_c, 0, 67, 95
2, 36000, Note_off_c, 0, 64, 95
2, 36000, Note_off_c, 0, 67, 95
2, 36000, Note_on_c, 0, 66, 95
2, 36240, Note_off_c, 0, 66, 95
2, 36240, Note_on_c, 0, 66, 95
2, 36480, Note_off_c, 0, 66, 95
2, 36480, Note_on_c, 0, 64, 95
2, 36480, Note_on_c, 0, 67, 95
2, 36720, Note_off_c, 0, 64, 95
2, 36720, Note_off_c, 0, 67, 95
2, 36720, Note_on_c, 0, 64, 95
2, 36720, Note_on_c, 0, 67, 95
2, 36960, Note_off_c, 0, 64, 95
2, 36960, Note_off_c, 0, 67, 95
2, 36960, Note_on_c, 0, 66, 95
2, 37200, Note_off_c, 0, 66, 95
2, 37200, Note_on_c, 0, 66, 95
2, 37440, Note_off_c, 0, 66, 95
2, 37440, Note_on_c, 0, 64, 95
2, 37440, Note_on_c, 0, 67, 95
2, 37680, Note_off_c, 0, 64, 95
2, 37680, Note_off_c, 0, 67, 95
2, 37680, Note_on_c, 0, 64, 95
2, 37680, Note_on_c, 0, 67, 95
2, 37920, Note_off_c, 0, 64, 95
2, 37920, Note_off_c, 0, 67, 95
2, 37920, Note_on_c, 0, 66, 95
2, 38160, Note_off_c, 0, 66, 95
2, 38160, Note_on_c, 0, 66, 95
2, 38400, Note_off_c, 0, 66, 95
2, 38400, Note_on_c, 0, 64, 95
2, 38400, Note_on_c, 0, 59, 95
2, 38400, Note_on_c, 0, 62, 95
2, 38640, Note_off_c, 0, 64, 95
2, 38640, Note_off_c, 0, 59, 95
2, 38640, Note_off_c, 0, 62, 95
2, 38640, Note_on_c, 0, 64, 95
2, 38640, Note_on_c, 0, 59, 95
2, 38640, Note_on_c, 0, 62, 95
2, 38880, Note_off_c, 0, 64, 95
2, 38880, Note_off_c, 0, 59, 95
2, 38880, Note_off_c, 0, 62, 95
2, 38880, Note_on_c, 0, 64, 95
2, 38880, Note_on_c, 0, 52, 95
2, 39120, Note_off_c, 0, 64, 95
2, 39120, Note_off_c, 0, 52, 95
2, 39120, Note_on_c, 0, 64, 95
2, 39120, Note_on_c, 0, 52, 95
2, 39360, Note_off_c, 0, 64, 95
2, 39360, Note_off_c, 0, 52, 95
2, 39360, Note_on_c, 0, 64, 95
2, 39360, Note_on_c, 0, 62, 95
2, 39360, Note_on_c, 0, 59, 95
2, 39600, Note_off_c, 0, 64, 95
2, 39600, Note_off_c, 0, 62, 95
2, 39600, Note_off_c, 0, 59, 95
2, 39600, Note_on_c, 0, 64, 95
2, 39600, Note_on_c, 0, 62, 95
2, 39600, Note_on_c, 0, 59, 95
2, 39840, Note_off_c, 0, 64, 95
2, 39840, Note_off_c, 0, 62, 95
2, 39840, Note_off_c, 0, 59, 95
2, 39840, Note_on_c, 0, 64, 95
2, 39840, Note_on_c, 0, 52, 95
2, 40080, Note_off_c, 0, 64, 95
2, 40080, Note_off_c, 0, 52, 95
2, 40080, Note_on_c, 0, 64, 95
2, 40080, Note_on_c, 0, 52, 95
2, 40320, Note_off_c, 0, 64, 95
2, 40320, Note_off_c, 0, 52, 95
2, 40320, Note_on_c, 0, 64, 95
2, 40320, Note_on_c, 0, 62, 95
2, 40320, Note_on_c, 0, 59, 95
2, 40560, Note_off_c, 0, 64, 95
2, 40560, Note_off_c, 0, 62, 95
2, 40560, Note_off_c, 0, 59, 95
2, 40560, Note_on_c, 0, 64, 95
2, 40560, Note_on_c, 0, 62, 95
2, 40560, Note_on_c, 0, 59, 95
2, 40800, Note_off_c, 0, 64, 95
2, 40800, Note_off_c, 0, 62, 95
2, 40800, Note_off_c, 0, 59, 95
2, 40800, Note_on_c, 0, 64, 95
2, 40800, Note_on_c, 0, 52, 95
2, 41040, Note_off_c, 0, 64, 95
2, 41040, Note_off_c, 0, 52, 95
2, 41040, Note_on_c, 0, 64, 95
2, 41040, Note_on_c, 0, 52, 95
2, 41280, Note_off_c, 0, 64, 95
2, 41280, Note_off_c, 0, 52, 95
2, 41280, Note_on_c, 0, 64, 95
2, 41280, Note_on_c, 0, 62, 95
2, 41280, Note_on_c, 0, 59, 95
2, 41520, Note_off_c, 0, 64, 95
2, 41520, Note_off_c, 0, 62, 95
2, 41520, Note_off_c, 0, 59, 95
2, 41520, Note_on_c, 0, 64, 95
2, 41520, Note_on_c, 0, 62, 95
2, 41520, Note_on_c, 0, 59, 95
2, 41760, Note_off_c, 0, 64, 95
2, 41760, Note_off_c, 0, 62, 95
2, 41760, Note_off_c, 0, 59, 95
2, 41760, Note_on_c, 0, 64, 95
2, 41760, Note_on_c, 0, 52, 95
2, 42000, Note_off_c, 0, 64, 95
2, 42000, Note_off_c, 0, 52, 95
2, 42000, Note_on_c, 0, 64, 95
2, 42000, Note_on_c, 0, 52, 95
2, 42240, Note_off_c, 0, 64, 95
2, 42240, Note_off_c, 0, 52, 95
2, 42240, Note_on_c, 0, 64, 95
2, 42240, Note_on_c, 0, 62, 95
2, 42240, Note_on_c, 0, 59, 95
2, 42480, Note_off_c, 0, 64, 95
2, 42480, Note_off_c, 0, 62, 95
2, 42480, Note_off_c, 0, 59, 95
2, 42480, Note_on_c, 0, 64, 95
2, 42480, Note_on_c, 0, 62, 95
2, 42480, Note_on_c, 0, 59, 95
2, 42720, Note_off_c, 0, 64, 95
2, 42720, Note_off_c, 0, 62, 95
2, 42720, Note_off_c, 0, 59, 95
2, 42720, Note_on_c, 0, 64, 95
2, 42720, Note_on_c, 0, 52, 95
2, 42960, Note_off_c, 0, 64, 95
2, 42960, Note_off_c, 0, 52, 95
2, 42960, Note_on_c, 0, 64, 95
2, 42960, Note_on_c, 0, 52, 95
2, 43200, Note_off_c, 0, 64, 95
2, 43200, Note_off_c, 0, 52, 95
2, 43200, Note_on_c, 0, 64, 95
2, 43200, Note_on_c, 0, 62, 95
2, 43200, Note_on_c, 0, 59, 95
2, 43440, Note_off_c, 0, 64, 95
2, 43440, Note_off_c, 0, 62, 95
2, 43440, Note_off_c, 0, 59, 95
2, 43440, Note_on_c, 0, 64, 95
2, 43440, Note_on_c, 0, 62, 95
2, 43440, Note_on_c, 0, 59, 95
2, 43680, Note_off_c, 0, 64, 95
2, 43680, Note_off_c, 0, 62, 95
2, 43680, Note_off_c, 0, 59, 95
2, 43680, Note_on_c, 0, 64, 95
2, 43680, Note_on_c, 0, 52, 95
2, 43920, Note_off_c, 0, 64, 95
2, 43920, Note_off_c, 0, 52, 95
2, 43920, Note_on_c, 0, 64, 95
2, 43920, Note_on_c, 0, 52, 95
2, 44160, Note_off_c, 0, 64, 95
2, 44160, Note_off_c, 0, 52, 95
2, 44160, Note_on_c, 0, 64, 95
2, 44160, Note_on_c, 0, 62, 95
2, 44160, Note_on_c, 0, 59, 95
2, 44400, Note_off_c, 0, 64, 95
2, 44400, Note_off_c, 0, 62, 95
2, 44400, Note_off_c, 0, 59, 95
2, 44400, Note_on_c, 0, 64, 95
2, 44400, Note_on_c, 0, 62, 95
2, 44400, Note_on_c, 0, 59, 95
2, 44640, Note_off_c, 0, 64, 95
2, 44640, Note_off_c, 0, 62, 95
2, 44640, Note_off_c, 0, 59, 95
2, 44640, Note_on_c, 0, 64, 95
2, 44640, Note_on_c, 0, 52, 95
2, 44880, Note_off_c, 0, 64, 95
2, 44880, Note_off_c, 0, 52, 95
2, 44880, Note_on_c, 0, 64, 95
2, 44880, Note_on_c, 0, 52, 95
2, 45120, Note_off_c, 0, 64, 95
2, 45120, Note_off_c, 0, 52, 95
2, 45120, Note_on_c, 0, 64, 95
2, 45120, Note_on_c, 0, 62, 95
2, 45120, Note_on_c, 0, 59, 95
2, 45360, Note_off_c, 0, 64, 95
2, 45360, Note_off_c, 0, 62, 95
2, 45360, Note_off_c, 0, 59, 95
2, 45360, Note_on_c, 0, 64, 95
2, 45360, Note_on_c, 0, 62, 95
2, 45360, Note_on_c, 0, 59, 95
2, 45600, Note_off_c, 0, 64, 95
2, 45600, Note_off_c, 0, 62, 95
2, 45600, Note_off_c, 0, 59, 95
2, 45600, Note_on_c, 0, 64, 95
2, 45600, Note_on_c, 0, 52, 95
2, 45840, Note_off_c, 0, 64, 95
2, 45840, Note_off_c, 0, 52, 95
2, 45840, Note_on_c, 0, 64, 95
2, 45840, Note_on_c, 0, 52, 95
2, 46080, Note_off_c, 0, 64, 95
2, 46080, Note_off_c, 0, 52, 95
2, 46080, Note_on_c, 0, 69, 95
2, 46080, Note_on_c, 0, 67, 95
2, 46320, Note_off_c, 0, 69, 95
2, 46320, Note_off_c, 0, 67, 95
2, 46320, Note_on_c, 0, 69, 95
2, 46320, Note_on_c, 0, 67, 95
2, 46560, Note_off_c, 0, 69, 95
2, 46560, Note_off_c, 0, 67, 95
2, 46560, Note_on_c, 0, 72, 95
2, 46560, Note_on_c, 0, 69, 95
2, 46800, Note_off_c, 0, 72, 95
2, 46800, Note_off_c, 0, 69, 95
2, 46800, Note_on_c, 0, 72, 95
2, 46800, Note_on_c, 0, 69, 95
2, 47040, Note_off_c, 0, 72, 95
2, 47040, Note_off_c, 0, 69, 95
2, 47040, Note_on_c, 0, 69, 95
2, 47040, Note_on_c, 0, 67, 95
2, 47280, Note_off_c, 0, 69, 95
2, 47280, Note_off_c, 0, 67, 95
2, 47280, Note_on_c, 0, 69, 95
2, 47280, Note_on_c, 0, 67, 95
2, 47520, Note_off_c, 0, 69, 95
2, 47520, Note_off_c, 0, 67, 95
2, 47520, Note_on_c, 0, 72, 95
2, 47520, Note_on_c, 0, 69, 95
2, 47760, Note_off_c, 0, 72, 95
2, 47760, Note_off_c, 0, 69, 95
2, 47760, Note_on_c, 0, 72, 95
2, 47760, Note_on_c, 0, 69, 95
2, 48000, Note_off_c, 0, 72, 95
2, 48000, Note_off_c, 0, 69, 95
2, 48000, Note_on_c, 0, 69, 95
2, 48000, Note_on_c, 0, 67, 95
2, 48240, Note_off_c, 0, 69, 95
2, 48240, Note_off_c, 0, 67, 95
2, 48240, Note_on_c, 0, 69, 95
2, 48240, Note_on_c, 0, 67, 95
2, 48480, Note_off_c, 0, 69, 95
2, 48480, Note_off_c, 0, 67, 95
2, 48480, Note_on_c, 0, 72, 95
2, 48480, Note_on_c, 0, 69, 95
2, 48720, Note_off_c, 0, 72, 95
2, 48720, Note_off_c, 0, 69, 95
2, 48720, Note_on_c, 0, 72, 95
2, 48720, Note_on_c, 0, 69, 95
2, 48960, Note_off_c, 0, 72, 95
2, 48960, Note_off_c, 0, 69, 95
2, 48960, Note_on_c, 0, 69, 95
2, 48960, Note_on_c, 0, 67, 95
2, 49200, Note_off_c, 0, 69, 95
2, 49200, Note_off_c, 0, 67, 95
2, 49200, Note_on_c, 0, 69, 95
2, 49200, Note_on_c, 0, 67, 95
2, 49440, Note_off_c, 0, 69, 95
2, 49440, Note_off_c, 0, 67, 95
2, 49440, Note_on_c, 0, 72, 95
2, 49440, Note_on_c, 0, 69, 95
2, 49680, Note_off_c, 0, 72, 95
2, 49680, Note_off_c, 0, 69, 95
2, 49680, Note_on_c, 0, 72, 95
2, 49680, Note_on_c, 0, 69, 95
2, 49920, Note_off_c, 0, 72, 95
2, 49920, Note_off_c, 0, 69, 95
2, 49920, Note_on_c, 0, 69, 95
2, 49920, Note_on_c, 0, 67, 95
2, 50160, Note_off_c, 0, 69, 95
2, 50160, Note_off_c, 0, 67, 95
2, 50160, Note_on_c, 0, 69, 95
2, 50160, Note_on_c, 0, 67, 95
2, 50400, Note_off_c, 0, 69, 95
2, 50400, Note_off_c, 0, 67, 95
2, 50400, Note_on_c, 0, 72, 95
2, 50400, Note_on_c, 0, 69, 95
2, 50640, Note_off_c, 0, 72, 95
2, 50640, Note_off_c, 0, 69, 95
2, 50640, Note_on_c, 0, 72, 95
2, 50640, Note_on_c, 0, 69, 95
2, 50880, Note_off_c, 0, 72, 95
2, 50880, Note_off_c, 0, 69, 95
2, 50880, Note_on_c, 0, 69, 95
2, 50880, Note_on_c, 0, 67, 95
2, 51120, Note_off_c, 0, 69, 95
2, 51120, Note_off_c, 0, 67, 95
2, 51120, Note_on_c, 0, 69, 95
2, 51120, Note_on_c, 0, 67, 95
2, 51360, Note_off_c, 0, 69, 95
2, 51360, Note_off_c, 0, 67, 95
2, 51360, Note_on_c, 0, 72, 95
2, 51360, Note_on_c, 0, 69, 95
2, 51600, Note_off_c, 0, 72, 95
2, 51600, Note_off_c, 0, 69, 95
2, 51600, Note_on_c, 0, 72, 95
2, 51600, Note_on_c, 0, 69, 95
2, 51840, Note_off_c, 0, 72, 95
2, 51840, Note_off_c, 0, 69, 95
2, 51840, Note_on_c, 0, 69, 95
2, 51840, Note_on_c, 0, 67, 95
2, 52080, Note_off_c, 0, 69, 95
2, 52080, Note_off_c, 0, 67, 95
2, 52080, Note_on_c, 0, 69, 95
2, 52080, Note_on_c, 0, 67, 95
2, 52320, Note_off_c, 0, 69, 95
2, 52320, Note_off_c, 0, 67, 95
2, 52320, Note_on_c, 0, 72, 95
2, 52320, Note_on_c, 0, 69, 95
2, 52560, Note_off_c, 0, 72, 95
2, 52560, Note_off_c, 0, 69, 95
2, 52560, Note_on_c, 0, 72, 95
2, 52560, Note_on_c, 0, 69, 95
2, 52800, Note_off_c, 0, 72, 95
2, 52800, Note_off_c, 0, 69, 95
2, 52800, Note_on_c, 0, 69, 95
2, 52800, Note_on_c, 0, 67, 95
2, 53040, Note_off_c, 0, 69, 95
2, 53040, Note_off_c, 0, 67, 95
2, 53040, Note_on_c, 0, 69, 95
2, 53040, Note_on_c, 0, 67, 95
2, 53280, Note_off_c, 0, 69, 95
2, 53280, Note_off_c, 0, 67, 95
2, 53280, Note_on_c, 0, 72, 95
2, 53280, Note_on_c, 0, 69, 95
2, 53520, Note_off_c, 0, 72, 95
2, 53520, Note_off_c, 0, 69, 95
2, 53520, Note_on_c, 0, 72, 95
2, 53520, Note_on_c, 0, 69, 95
2, 53760, Note_off_c, 0, 72, 95
2, 53760, Note_off_c, 0, 69, 95
2, 53760, Note_on_c, 0, 71, 95
2, 53760, Note_on_c, 0, 64, 95
2, 54000, Note_off_c, 0, 71, 95
2, 54000, Note_off_c, 0, 64, 95
2, 54000, Note_on_c, 0, 71, 95
2, 54000, Note_on_c, 0, 64, 95
2, 54240, Note_off_c, 0, 71, 95
2, 54240, Note_off_c, 0, 64, 95
2, 54240, Note_on_c, 0, 71, 95
2, 54240, Note_on_c, 0, 63, 95
2, 54480, Note_off_c, 0, 71, 95
2, 54480, Note_off_c, 0, 63, 95
2, 54480, Note_on_c, 0, 71, 95
2, 54480, Note_on_c, 0, 63, 95
2, 54720, Note_off_c, 0, 71, 95
2, 54720, Note_off_c, 0, 63, 95
2, 54720, Note_on_c, 0, 71, 95
2, 54720, Note_on_c, 0, 64, 95
2, 54960, Note_off_c, 0, 71, 95
2, 54960, Note_off_c, 0, 64, 95
2, 54960, Note_on_c, 0, 71, 95
2, 54960, Note_on_c, 0, 64, 95
2, 55200, Note_off_c, 0, 71, 95
2, 55200, Note_off_c, 0, 64, 95
2, 55200, Note_on_c, 0, 71, 95
2, 55200, Note_on_c, 0, 63, 95
2, 55440, Note_off_c, 0, 71, 95
2, 55440, Note_off_c, 0, 63, 95
2, 55440, Note_on_c, 0, 71, 95
2, 55440, Note_on_c, 0, 63, 95
2, 55680, Note_off_c, 0, 71, 95
2, 55680, Note_off_c, 0, 63, 95
2, 55680, Note_on_c, 0, 71, 95
2, 55680, Note_on_c, 0, 64, 95
2, 55920, Note_off_c, 0, 71, 95
2, 55920, Note_off_c, 0, 64, 95
2, 55920, Note_on_c, 0, 71, 95
2, 55920, Note_on_c, 0, 64, 95
2, 56160, Note_off_c, 0, 71, 95
2, 56160, Note_off_c, 0, 64, 95
2, 56160, Note_on_c, 0, 71, 95
2, 56160, Note_on_c, 0, 63, 95
2, 56400, Note_off_c, 0, 71, 95
2, 56400, Note_off_c, 0, 63, 95
2, 56400, Note_on_c, 0, 71, 95
2, 56400, Note_on_c, 0, 63, 95
2, 56640, Note_off_c, 0, 71, 95
2, 56640, Note_off_c, 0, 63, 95
2, 56640, Note_on_c, 0, 71, 95
2, 56640, Note_on_c, 0, 64, 95
2, 56880, Note_off_c, 0, 71, 95
2, 56880, Note_off_c, 0, 64, 95
2, 56880, Note_on_c, 0, 71, 95
2, 56880, Note_on_c, 0, 64, 95
2, 57120, Note_off_c, 0, 71, 95
2, 57120, Note_off_c, 0, 64, 95
2, 57120, Note_on_c, 0, 71, 95
2, 57120, Note_on_c, 0, 63, 95
2, 57360, Note_off_c, 0, 71, 95
2, 57360, Note_off_c, 0, 63, 95
2, 57360, Note_on_c, 0, 71, 95
2, 57360, Note_on_c, 0, 63, 95
2, 57600, Note_off_c, 0, 71, 95
2, 57600, Note_off_c, 0, 63, 95
2, 57600, Note_on_c, 0, 71, 95
2, 57600, Note_on_c, 0, 64, 95
2, 57840, Note_off_c, 0, 71, 95
2, 57840, Note_off_c, 0, 64, 95
2, 57840, Note_on_c, 0, 71, 95
2, 57840, Note_on_c, 0, 64, 95
2, 58080, Note_off_c, 0, 71, 95
2, 58080, Note_off_c, 0, 64, 95
2, 58080, Note_on_c, 0, 71, 95
2, 58080, Note_on_c, 0, 63, 95
2, 58320, Note_off_c, 0, 71, 95
2, 58320, Note_off_c, 0, 63, 95
2, 58320, Note_on_c, 0, 71, 95
2, 58320, Note_on_c, 0, 63, 95
2, 58560, Note_off_c, 0, 71, 95
2, 58560, Note_off_c, 0, 63, 95
2, 58560, Note_on_c, 0, 71, 95
2, 58560, Note_on_c, 0, 64, 95
2, 58800, Note_off_c, 0, 71, 95
2, 58800, Note_off_c, 0, 64, 95
2, 58800, Note_on_c, 0, 71, 95
2, 58800, Note_on_c, 0, 64, 95
2, 59040, Note_off_c, 0, 71, 95
2, 59040, Note_off_c, 0, 64, 95
2, 59040, Note_on_c, 0, 71, 95
2, 59040, Note_on_c, 0, 63, 95
2, 59280, Note_off_c, 0, 71, 95
2, 59280, Note_off_c, 0, 63, 95
2, 59280, Note_on_c, 0, 71, 95
2, 59280, Note_on_c, 0, 63, 95
2, 59520, Note_off_c, 0, 71, 95
2, 59520, Note_off_c, 0, 63, 95
2, 59520, Note_on_c, 0, 71, 95
2, 59520, Note_on_c, 0, 64, 95
2, 59760, Note_off_c, 0, 71, 95
2, 59760, Note_off_c, 0, 64, 95
2, 59760, Note_on_c, 0, 71, 95
2, 59760, Note_on_c, 0, 64, 95
2, 60000, Note_off_c, 0, 71, 95
2, 60000, Note_off_c, 0, 64, 95
2, 60000, Note_on_c, 0, 71, 95
2, 60000, Note_on_c, 0, 63, 95
2, 60240, Note_off_c, 0, 71, 95
2, 60240, Note_off_c, 0, 63, 95
2, 60240, Note_on_c, 0, 71, 95
2, 60240, Note_on_c, 0, 63, 95
2, 60480, Note_off_c, 0, 71, 95
2, 60480, Note_off_c, 0, 63, 95
2, 60480, Note_on_c, 0, 71, 95
2, 60480, Note_on_c, 0, 64, 95
2, 60720, Note_off_c, 0, 71, 95
2, 60720, Note_off_c, 0, 64, 95
2, 60720, Note_on_c, 0, 71, 95
2, 60720, Note_on_c, 0, 64, 95
2, 60960, Note_off_c, 0, 71, 95
2, 60960, Note_off_c, 0, 64, 95
2, 60960, Note_on_c, 0, 71, 95
2, 60960, Note_on_c, 0, 63, 95
2, 61200, Note_off_c, 0, 71, 95
2, 61200, Note_off_c, 0, 63, 95
2, 61200, Note_on_c, 0, 71, 95
2, 61200, Note_on_c, 0, 63, 95
2, 61440, Note_off_c, 0, 71, 95
2, 61440, Note_off_c, 0, 63, 95
2, 61440, Note_on_c, 0, 64, 95
2, 61440, Note_on_c, 0, 59, 95
2, 61440, Note_on_c, 0, 62, 95
2, 61680, Note_off_c, 0, 64, 95
2, 61680, Note_off_c, 0, 59, 95
2, 61680, Note_off_c, 0, 62, 95
2, 61680, Note_on_c, 0, 64, 95
2, 61680, Note_on_c, 0, 59, 95
2, 61680, Note_on_c, 0, 62, 95
2, 61920, Note_off_c, 0, 64, 95
2, 61920, Note_off_c, 0, 59, 95
2, 61920, Note_off_c, 0, 62, 95
2, 61920, Note_on_c, 0, 76, 95
2, 61920, Note_on_c, 0, 64, 95
2, 61920, Note_on_c, 0, 52, 95
2, 62160, Note_off_c, 0, 76, 95
2, 62160, Note_off_c, 0, 64, 95
2, 62160, Note_off_c, 0, 52, 95
2, 62160, Note_on_c, 0, 76, 95
2, 62160, Note_on_c, 0, 64, 95
2, 62160, Note_on_c, 0, 52, 95
2, 62400, Note_off_c, 0, 76, 95
2, 62400, Note_off_c, 0, 64, 95
2, 62400, Note_off_c, 0, 52, 95
2, 62400, Note_on_c, 0, 64, 95
2, 62400, Note_on_c, 0, 59, 95
2, 62400, Note_on_c, 0, 62, 95
2, 62640, Note_off_c, 0, 64, 95
2, 62640, Note_off_c, 0, 59, 95
2, 62640, Note_off_c, 0, 62, 95
2, 62640, Note_on_c, 0, 64, 95
2, 62640, Note_on_c, 0, 59, 95
2, 62640, Note_on_c, 0, 62, 95
2, 62880, Note_off_c, 0, 64, 95
2, 62880, Note_off_c, 0, 59, 95
2, 62880, Note_off_c, 0, 62, 95
2, 62880, Note_on_c, 0, 76, 95
2, 62880, Note_on_c, 0, 64, 95
2, 62880, Note_on_c, 0, 52, 95
2, 63120, Note_off_c, 0, 76, 95
2, 63120, Note_off_c, 0, 64, 95
2, 63120, Note_off_c, 0, 52, 95
2, 63120, Note_on_c, 0, 76, 95
2, 63120, Note_on_c, 0, 64, 95
2, 63120, Note_on_c, 0, 52, 95
2, 63360, Note_off_c, 0, 76, 95
2, 63360, Note_off_c, 0, 64, 95
2, 63360, Note_off_c, 0, 52, 95
2, 63360, Note_on_c, 0, 64, 95
2, 63360, Note_on_c, 0, 59, 95
2, 63360, Note_on_c, 0, 62, 95
2, 63600, Note_off_c, 0, 64, 95
2, 63600, Note_off_c, 0, 59, 95
2, 63600, Note_off_c, 0, 62, 95
2, 63600, Note_on_c, 0, 64, 95
2, 63600, Note_on_c, 0, 59, 95
2, 63600, Note_on_c, 0, 62, 95
2, 63840, Note_off_c, 0, 64, 95
2, 63840, Note_off_c, 0, 59, 95
2, 63840, Note_off_c, 0, 62, 95
2, 63840, Note_on_c, 0, 76, 95
2, 63840, Note_on_c, 0, 64, 95
2, 63840, Note_on_c, 0, 52, 95
2, 64080, Note_off_c, 0, 76, 95
2, 64080, Note_off_c, 0, 64, 95
2, 64080, Note_off_c, 0, 52, 95
2, 64080, Note_on_c, 0, 76, 95
2, 64080, Note_on_c, 0, 64, 95
2, 64080, Note_on_c, 0, 52, 95
2, 64320, Note_off_c, 0, 76, 95
2, 64320, Note_off_c, 0, 64, 95
2, 64320, Note_off_c, 0, 52, 95
2, 64320, Note_on_c, 0, 64, 95
2, 64320, Note_on_c, 0, 59, 95
2, 64320, Note_on_c, 0, 62, 95
2, 64560, Note_off_c, 0, 64, 95
2, 64560, Note_off_c, 0, 59, 95
2, 64560, Note_off_c, 0, 62, 95
2, 64560, Note_on_c, 0, 64, 95
2, 64560, Note_on_c, 0, 59, 95
2, 64560, Note_on_c, 0, 62, 95
2, 64800, Note_off_c, 0, 64, 95
2, 64800, Note_off_c, 0, 59, 95
2, 64800, Note_off_c, 0, 62, 95
2, 64800, Note_on_c, 0, 76, 95
2, 64800, Note_on_c, 0, 64, 95
2, 64800, Note_on_c, 0, 52, 95
2, 65040, Note_off_c, 0, 76, 95
2, 65040, Note_off_c, 0, 64, 95
2, 65040, Note_off_c, 0, 52, 95
2, 65040, Note_on_c, 0, 76, 95
2, 65040, Note_on_c, 0, 64, 95
2, 65040, Note_on_c, 0, 52, 95
2, 65280, Note_off_c, 0, 76, 95
2, 65280, Note_off_c, 0, 64, 95
2, 65280, Note_off_c, 0, 52, 95
2, 65280, Note_on_c, 0, 64, 95
2, 65280, Note_on_c, 0, 67, 95
2, 65520, Note_off_c, 0, 64, 95
2, 65520, Note_off_c, 0, 67, 95
2, 65520, Note_on_c, 0, 64, 95
2, 65520, Note_on_c, 0, 67, 95
2, 65760, Note_off_c, 0, 64, 95
2, 65760, Note_off_c, 0, 67, 95
2, 65760, Note_on_c, 0, 66, 95
2, 66000, Note_off_c, 0, 66, 95
2, 66000, Note_on_c, 0, 66, 95
2, 66240, Note_off_c, 0, 66, 95
2, 66240, Note_on_c, 0, 64, 95
2, 66240, Note_on_c, 0, 67, 95
2, 66480, Note_off_c, 0, 64, 95
2, 66480, Note_off_c, 0, 67, 95
2, 66480, Note_on_c, 0, 64, 95
2, 66480, Note_on_c, 0, 67, 95
2, 66720, Note_off_c, 0, 64, 95
2, 66720, Note_off_c, 0, 67, 95
2, 66720, Note_on_c, 0, 66, 95
2, 66960, Note_off_c, 0, 66, 95
2, 66960, Note_on_c, 0, 66, 95
2, 67200, Note_off_c, 0, 66, 95
2, 67200, Note_on_c, 0, 64, 95
2, 67200, Note_on_c, 0, 67, 95
2, 67440, Note_off_c, 0, 64, 95
2, 67440, Note_off_c, 0, 67, 95
2, 67440, Note_on_c, 0, 64, 95
2, 67440, Note_on_c, 0, 67, 95
2, 67680, Note_off_c, 0, 64, 95
2, 67680, Note_off_c, 0, 67, 95
2, 67680, Note_on_c, 0, 66, 95
2, 67920, Note_off_c, 0, 66, 95
2, 67920, Note_on_c, 0, 66, 95
2, 68160, Note_off_c, 0, 66, 95
2, 68160, Note_on_c, 0, 64, 95
2, 68160, Note_on_c, 0, 67, 95
2, 68400, Note_off_c, 0, 64, 95
2, 68400, Note_off_c, 0, 67, 95
2, 68400, Note_on_c, 0, 64, 95
2, 68400, Note_on_c, 0, 67, 95
2, 68640, Note_off_c, 0, 64, 95
2, 68640, Note_off_c, 0, 67, 95
2, 68640, Note_on_c, 0, 66, 95
2, 68880, Note_off_c, 0, 66, 95
2, 68880, Note_on_c, 0, 66, 95
2, 69120, Note_off_c, 0, 66, 95
2, 69120, Note_on_c, 0, 72, 95
2, 69120, Note_on_c, 0, 67, 95
2, 69360, Note_off_c, 0, 72, 95
2, 69360, Note_off_c, 0, 67, 95
2, 69360, Note_on_c, 0, 72, 95
2, 69360, Note_on_c, 0, 67, 95
2, 69600, Note_off_c, 0, 72, 95
2, 69600, Note_off_c, 0, 67, 95
2, 69600, Note_on_c, 0, 72, 95
2, 69600, Note_on_c, 0, 66, 95
2, 69840, Note_off_c, 0, 72, 95
2, 69840, Note_off_c, 0, 66, 95
2, 69840, Note_on_c, 0, 72, 95
2, 69840, Note_on_c, 0, 66, 95
2, 70080, Note_off_c, 0, 72, 95
2, 70080, Note_off_c, 0, 66, 95
2, 70080, Note_on_c, 0, 72, 95
2, 70080, Note_on_c, 0, 67, 95
2, 70320, Note_off_c, 0, 72, 95
2, 70320, Note_off_c, 0, 67, 95
2, 70320, Note_on_c, 0, 72, 95
2, 70320, Note_on_c, 0, 67, 95
2, 70560, Note_off_c, 0, 72, 95
2, 70560, Note_off_c, 0, 67, 95
2, 70560, Note_on_c, 0, 72, 95
2, 70560, Note_on_c, 0, 66, 95
2, 70800, Note_off_c, 0, 72, 95
2, 70800, Note_off_c, 0, 66, 95
2, 70800, Note_on_c, 0, 72, 95
2, 70800, Note_on_c, 0, 66, 95
2, 71040, Note_off_c, 0, 72, 95
2, 71040, Note_off_c, 0, 66, 95
2, 71040, Note_on_c, 0, 72, 95
2, 71040, Note_on_c, 0, 67, 95
2, 71280, Note_off_c, 0, 72, 95
2, 71280, Note_off_c, 0, 67, 95
2, 71280, Note_on_c, 0, 72, 95
2, 71280, Note_on_c, 0, 67, 95
2, 71520, Note_off_c, 0, 72, 95
2, 71520, Note_off_c, 0, 67, 95
2, 71520, Note_on_c, 0, 72, 95
2, 71520, Note_on_c, 0, 66, 95
2, 71760, Note_off_c, 0, 72, 95
2, 71760, Note_off_c, 0, 66, 95
2, 71760, Note_on_c, 0, 72, 95
2, 71760, Note_on_c, 0, 66, 95
2, 72000, Note_off_c, 0, 72, 95
2, 72000, Note_off_c, 0, 66, 95
2, 72000, Note_on_c, 0, 72, 95
2, 72000, Note_on_c, 0, 67, 95
2, 72240, Note_off_c, 0, 72, 95
2, 72240, Note_off_c, 0, 67, 95
2, 72240, Note_on_c, 0, 72, 95
2, 72240, Note_on_c, 0, 67, 95
2, 72480, Note_off_c, 0, 72, 95
2, 72480, Note_off_c, 0, 67, 95
2, 72480, Note_on_c, 0, 72, 95
2, 72480, Note_on_c, 0, 66, 95
2, 72720, Note_off_c, 0, 72, 95
2, 72720, Note_off_c, 0, 66, 95
2, 72720, Note_on_c, 0, 72, 95
2, 72720, Note_on_c, 0, 66, 95
2, 72960, Note_off_c, 0, 72, 95
2, 72960, Note_off_c, 0, 66, 95
2, 72960, Note_on_c, 0, 72, 95
2, 72960, Note_on_c, 0, 67, 95
2, 73200, Note_off_c, 0, 72, 95
2, 73200, Note_off_c, 0, 67, 95
2, 73200, Note_on_c, 0, 72, 95
2, 73200, Note_on_c, 0, 67, 95
2, 73440, Note_off_c, 0, 72, 95
2, 73440, Note_off_c, 0, 67, 95
2, 73440, Note_on_c, 0, 72, 95
2, 73440, Note_on_c, 0, 66, 95
2, 73680, Note_off_c, 0, 72, 95
2, 73680, Note_off_c, 0, 66, 95
2, 73680, Note_on_c, 0, 72, 95
2, 73680, Note_on_c, 0, 66, 95
2, 73920, Note_off_c, 0, 72, 95
2, 73920, Note_off_c, 0, 66, 95
2, 73920, Note_on_c, 0, 72, 95
2, 73920, Note_on_c, 0, 67, 95
2, 74160, Note_off_c, 0, 72, 95
2, 74160, Note_off_c, 0, 67, 95
2, 74160, Note_on_c, 0, 72, 95
2, 74160, Note_on_c, 0, 67, 95
2, 74400, Note_off_c, 0, 72, 95
2, 74400, Note_off_c, 0, 67, 95
2, 74400, Note_on_c, 0, 72, 95
2, 74400, Note_on_c, 0, 66, 95
2, 74640, Note_off_c, 0, 72, 95
2, 74640, Note_off_c, 0, 66, 95
2, 74640, Note_on_c, 0, 72, 95
2, 74640, Note_on_c, 0, 66, 95
2, 74880, Note_off_c, 0, 72, 95
2, 74880, Note_off_c, 0, 66, 95
2, 74880, Note_on_c, 0, 72, 95
2, 74880, Note_on_c, 0, 67, 95
2, 75120, Note_off_c, 0, 72, 95
2, 75120, Note_off_c, 0, 67, 95
2, 75120, Note_on_c, 0, 72, 95
2, 75120, Note_on_c, 0, 67, 95
2, 75360, Note_off_c, 0, 72, 95
2, 75360, Note_off_c, 0, 67, 95
2, 75360, Note_on_c, 0, 72, 95
2, 75360, Note_on_c, 0, 66, 95
2, 75600, Note_off_c, 0, 72, 95
2, 75600, Note_off_c, 0, 66, 95
2, 75600, Note_on_c, 0, 72, 95
2, 75600, Note_on_c, 0, 66, 95
2, 75840, Note_off_c, 0, 72, 95
2, 75840, Note_off_c, 0, 66, 95
2, 75840, Note_on_c, 0, 72, 95
2, 75840, Note_on_c, 0, 67, 95
2, 76080, Note_off_c, 0, 72, 95
2, 76080, Note_off_c, 0, 67, 95
2, 76080, Note_on_c, 0, 72, 95
2, 76080, Note_on_c, 0, 67, 95
2, 76320, Note_off_c, 0, 72, 95
2, 76320, Note_off_c, 0, 67, 95
2, 76320, Note_on_c, 0, 72, 95
2, 76320, Note_on_c, 0, 66, 95
2, 76560, Note_off_c, 0, 72, 95
2, 76560, Note_off_c, 0, 66, 95
2, 76560, Note_on_c, 0, 72, 95
2, 76560, Note_on_c, 0, 66, 95
2, 76800, Note_off_c, 0, 72, 95
2, 76800, Note_off_c, 0, 66, 95
2, 76800, Note_on_c, 0, 64, 95
2, 76800, Note_on_c, 0, 67, 95
2, 77040, Note_off_c, 0, 64, 95
2, 77040, Note_off_c, 0, 67, 95
2, 77040, Note_on_c, 0, 64, 95
2, 77040, Note_on_c, 0, 67, 95
2, 77280, Note_off_c, 0, 64, 95
2, 77280, Note_off_c, 0, 67, 95
2, 77280, Note_on_c, 0, 64, 95
2, 77280, Note_on_c, 0, 66, 95
2, 77520, Note_off_c, 0, 64, 95
2, 77520, Note_off_c, 0, 66, 95
2, 77520, Note_on_c, 0, 64, 95
2, 77520, Note_on_c, 0, 66, 95
2, 77760, Note_off_c, 0, 64, 95
2, 77760, Note_off_c, 0, 66, 95
2, 77760, Note_on_c, 0, 64, 95
2, 77760, Note_on_c, 0, 67, 95
2, 78000, Note_off_c, 0, 64, 95
2, 78000, Note_off_c, 0, 67, 95
2, 78000, Note_on_c, 0, 64, 95
2, 78000, Note_on_c, 0, 67, 95
2, 78240, Note_off_c, 0, 64, 95
2, 78240, Note_off_c, 0, 67, 95
2, 78240, Note_on_c, 0, 64, 95
2, 78240, Note_on_c, 0, 66, 95
2, 78480, Note_off_c, 0, 64, 95
2, 78480, Note_off_c, 0, 66, 95
2, 78480, Note_on_c, 0, 64, 95
2, 78480, Note_on_c, 0, 66, 95
2, 78720, Note_off_c, 0, 64, 95
2, 78720, Note_off_c, 0, 66, 95
2, 78720, Note_on_c, 0, 64, 95
2, 78720, Note_on_c, 0, 67, 95
2, 78960, Note_off_c, 0, 64, 95
2, 78960, Note_off_c, 0, 67, 95
2, 78960, Note_on_c, 0, 64, 95
2, 78960, Note_on_c, 0, 67, 95
2, 79200, Note_off_c, 0, 64, 95
2, 79200, Note_off_c, 0, 67, 95
2, 79200, Note_on_c, 0, 64, 95
2, 79200, Note_on_c, 0, 66, 95
2, 79440, Note_off_c, 0, 64, 95
2, 79440, Note_off_c, 0, 66, 95
2, 79440, Note_on_c, 0, 64, 95
2, 79440, Note_on_c, 0, 66, 95
2, 79680, Note_off_c, 0, 64, 95
2, 79680, Note_off_c, 0, 66, 95
2, 79680, Note_on_c, 0, 64, 95
2, 79680, Note_on_c, 0, 67, 95
2, 79920, Note_off_c, 0, 64, 95
2, 79920, Note_off_c, 0, 67, 95
2, 79920, Note_on_c, 0, 64, 95
2, 79920, Note_on_c, 0, 67, 95
2, 80160, Note_off_c, 0, 64, 95
2, 80160, Note_off_c, 0, 67, 95
2, 80160, Note_on_c, 0, 64, 95
2, 80160, Note_on_c, 0, 66, 95
2, 80400, Note_off_c, 0, 64, 95
2, 80400, Note_off_c, 0, 66, 95
2, 80400, Note_on_c, 0, 64, 95
2, 80400, Note_on_c, 0, 66, 95
2, 80640, Note_off_c, 0, 64, 95
2, 80640, Note_off_c, 0, 66, 95
2, 80640, Note_on_c, 0, 64, 95
2, 80640, Note_on_c, 0, 67, 95
2, 80880, Note_off_c, 0, 64, 95
2, 80880, Note_off_c, 0, 67, 95
2, 80880, Note_on_c, 0, 64, 95
2, 80880, Note_on_c, 0, 67, 95
2, 81120, Note_off_c, 0, 64, 95
2, 81120, Note_off_c, 0, 67, 95
2, 81120, Note_on_c, 0, 64, 95
2, 81120, Note_on_c, 0, 66, 95
2, 81360, Note_off_c, 0, 64, 95
2, 81360, Note_off_c, 0, 66, 95
2, 81360, Note_on_c, 0, 64, 95
2, 81360, Note_on_c, 0, 66, 95
2, 81600, Note_off_c, 0, 64, 95
2, 81600, Note_off_c, 0, 66, 95
2, 81600, Note_on_c, 0, 64, 95
2, 81600, Note_on_c, 0, 67, 95
2, 81840, Note_off_c, 0, 64, 95
2, 81840, Note_off_c, 0, 67, 95
2, 81840, Note_on_c, 0, 64, 95
2, 81840, Note_on_c, 0, 67, 95
2, 82080, Note_off_c, 0, 64, 95
2, 82080, Note_off_c, 0, 67, 95
2, 82080, Note_on_c, 0, 64, 95
2, 82080, Note_on_c, 0, 66, 95
2, 82320, Note_off_c, 0, 64, 95
2, 82320, Note_off_c, 0, 66, 95
2, 82320, Note_on_c, 0, 64, 95
2, 82320, Note_on_c, 0, 66, 95
2, 82560, Note_off_c, 0, 64, 95
2, 82560, Note_off_c, 0, 66, 95
2, 82560, Note_on_c, 0, 64, 95
2, 82560, Note_on_c, 0, 67, 95
2, 82800, Note_off_c, 0, 64, 95
2, 82800, Note_off_c, 0, 67, 95
2, 82800, Note_on_c, 0, 64, 95
2, 82800, Note_on_c, 0, 67, 95
2, 83040, Note_off_c, 0, 64, 95
2, 83040, Note_off_c, 0, 67, 95
2, 83040, Note_on_c, 0, 64, 95
2, 83040, Note_on_c, 0, 66, 95
2, 83280, Note_off_c, 0, 64, 95
2, 83280, Note_off_c, 0, 66, 95
2, 83280, Note_on_c, 0, 64, 95
2, 83280, Note_on_c, 0, 66, 95
2, 83520, Note_off_c, 0, 64, 95
2, 83520, Note_off_c, 0, 66, 95
2, 83520, Note_on_c, 0, 64, 95
2, 83520, Note_on_c, 0, 67, 95
2, 83760, Note_off_c, 0, 64, 95
2, 83760, Note_off_c, 0, 67, 95
2, 83760, Note_on_c, 0, 64, 95
2, 83760, Note_on_c, 0, 67, 95
2, 84000, Note_off_c, 0, 64, 95
2, 84000, Note_off_c, 0, 67, 95
2, 84000, Note_on_c, 0, 64, 95
2, 84000, Note_on_c, 0, 66, 95
2, 84240, Note_off_c, 0, 64, 95
2, 84240, Note_off_c, 0, 66, 95
2, 84240, Note_on_c, 0, 64, 95
2, 84240, Note_on_c, 0, 66, 95
2, 84480, Note_off_c, 0, 64, 95
2, 84480, Note_off_c, 0, 66, 95
2, 84480, Note_on_c, 0, 72, 95
2, 84480, Note_on_c, 0, 67, 95
2, 84720, Note_off_c, 0, 72, 95
2, 84720, Note_off_c, 0, 67, 95
2, 84720, Note_on_c, 0, 72, 95
2, 84720, Note_on_c, 0, 67, 95
2, 84960, Note_off_c, 0, 72, 95
2, 84960, Note_off_c, 0, 67, 95
2, 84960, Note_on_c, 0, 72, 95
2, 84960, Note_on_c, 0, 66, 95
2, 85200, Note_off_c, 0, 72, 95
2, 85200, Note_off_c, 0, 66, 95
2, 85200, Note_on_c, 0, 72, 95
2, 85200, Note_on_c, 0, 66, 95
2, 85440, Note_off_c, 0, 72, 95
2, 85440, Note_off_c, 0, 66, 95
2, 85440, Note_on_c, 0, 72, 95
2, 85440, Note_on_c, 0, 67, 95
2, 85680, Note_off_c, 0, 72, 95
2, 85680, Note_off_c, 0, 67, 95
2, 85680, Note_on_c, 0, 72, 95
2, 85680, Note_on_c, 0, 67, 95
2, 85920, Note_off_c, 0, 72, 95
2, 85920, Note_off_c, 0, 67, 95
2, 85920, Note_on_c, 0, 72, 95
2, 85920, Note_on_c, 0, 66, 95
2, 86160, Note_off_c, 0, 72, 95
2, 86160, Note_off_c, 0, 66, 95
2, 86160, Note_on_c, 0, 72, 95
2, 86160, Note_on_c, 0, 66, 95
2, 86400, Note_off_c, 0, 72, 95
2, 86400, Note_off_c, 0, 66, 95
2, 86400, Note_on_c, 0, 72, 95
2, 86400, Note_on_c, 0, 67, 95
2, 86640, Note_off_c, 0, 72, 95
2, 86640, Note_off_c, 0, 67, 95
2, 86640, Note_on_c, 0, 72, 95
2, 86640, Note_on_c, 0, 67, 95
2, 86880, Note_off_c, 0, 72, 95
2, 86880, Note_off_c, 0, 67, 95
2, 86880, Note_on_c, 0, 72, 95
2, 86880, Note_on_c, 0, 66, 95
2, 87120, Note_off_c, 0, 72, 95
2, 87120, Note_off_c, 0, 66, 95
2, 87120, Note_on_c, 0, 72, 95
2, 87120, Note_on_c, 0, 66, 95
2, 87360, Note_off_c, 0, 72, 95
2, 87360, Note_off_c, 0, 66, 95
2, 87360, Note_on_c, 0, 72, 95
2, 87360, Note_on_c, 0, 67, 95
2, 87600, Note_off_c, 0, 72, 95
2, 87600, Note_off_c, 0, 67, 95
2, 87600, Note_on_c, 0, 72, 95
2, 87600, Note_on_c, 0, 67, 95
2, 87840, Note_off_c, 0, 72, 95
2, 87840, Note_off_c, 0, 67, 95
2, 87840, Note_on_c, 0, 72, 95
2, 87840, Note_on_c, 0, 66, 95
2, 88080, Note_off_c, 0, 72, 95
2, 88080, Note_off_c, 0, 66, 95
2, 88080, Note_on_c, 0, 72, 95
2, 88080, Note_on_c, 0, 66, 95
2, 88320, Note_off_c, 0, 72, 95
2, 88320, Note_off_c, 0, 66, 95
2, 88320, Note_on_c, 0, 72, 95
2, 88320, Note_on_c, 0, 67, 95
2, 88560, Note_off_c, 0, 72, 95
2, 88560, Note_off_c, 0, 67, 95
2, 88560, Note_on_c, 0, 72, 95
2, 88560, Note_on_c, 0, 67, 95
2, 88800, Note_off_c, 0, 72, 95
2, 88800, Note_off_c, 0, 67, 95
2, 88800, Note_on_c, 0, 72, 95
2, 88800, Note_on_c, 0, 66, 95
2, 89040, Note_off_c, 0, 72, 95
2, 89040, Note_off_c, 0, 66, 95
2, 89040, Note_on_c, 0, 72, 95
2, 89040, Note_on_c, 0, 66, 95
2, 89280, Note_off_c, 0, 72, 95
2, 89280, Note_off_c, 0, 66, 95
2, 89280, Note_on_c, 0, 72, 95
2, 89280, Note_on_c, 0, 67, 95
2, 89520, Note_off_c, 0, 72, 95
2, 89520, Note_off_c, 0, 67, 95
2, 89520, Note_on_c, 0, 72, 95
2, 89520, Note_on_c, 0, 67, 95
2, 89760, Note_off_c, 0, 72, 95
2, 89760, Note_off_c, 0, 67, 95
2, 89760, Note_on_c, 0, 72, 95
2, 89760, Note_on_c, 0, 66, 95
2, 90000, Note_off_c, 0, 72, 95
2, 90000, Note_off_c, 0, 66, 95
2, 90000, Note_on_c, 0, 72, 95
2, 90000, Note_on_c, 0, 66, 95
2, 90240, Note_off_c, 0, 72, 95
2, 90240, Note_off_c, 0, 66, 95
2, 90240, Note_on_c, 0, 72, 95
2, 90240, Note_on_c, 0, 67, 95
2, 90480, Note_off_c, 0, 72, 95
2, 90480, Note_off_c, 0, 67, 95
2, 90480, Note_on_c, 0, 72, 95
2, 90480, Note_on_c, 0, 67, 95
2, 90720, Note_off_c, 0, 72, 95
2, 90720, Note_off_c, 0, 67, 95
2, 90720, Note_on_c, 0, 72, 95
2, 90720, Note_on_c, 0, 66, 95
2, 90960, Note_off_c, 0, 72, 95
2, 90960, Note_off_c, 0, 66, 95
2, 90960, Note_on_c, 0, 72, 95
2, 90960, Note_on_c, 0, 66, 95
2, 91200, Note_off_c, 0, 72, 95
2, 91200, Note_off_c, 0, 66, 95
2, 91200, Note_on_c, 0, 72, 95
2, 91200, Note_on_c, 0, 67, 95
2, 91440, Note_off_c, 0, 72, 95
2, 91440, Note_off_c, 0, 67, 95
2, 91440, Note_on_c, 0, 72, 95
2, 91440, Note_on_c, 0, 67, 95
2, 91680, Note_off_c, 0, 72, 95
2, 91680, Note_off_c, 0, 67, 95
2, 91680, Note_on_c, 0, 72, 95
2, 91680, Note_on_c, 0, 66, 95
2, 91920, Note_off_c, 0, 72, 95
2, 91920, Note_off_c, 0, 66, 95
2, 91920, Note_on_c, 0, 72, 95
2, 91920, Note_on_c, 0, 66, 95
2, 92160, Note_off_c, 0, 72, 95
2, 92160, Note_off_c, 0, 66, 95
2, 92160, Note_on_c, 0, 64, 95
2, 92160, Note_on_c, 0, 67, 95
2, 92400, Note_off_c, 0, 64, 95
2, 92400, Note_off_c, 0, 67, 95
2, 92400, Note_on_c, 0, 64, 95
2, 92400, Note_on_c, 0, 67, 95
2, 92640, Note_off_c, 0, 64, 95
2, 92640, Note_off_c, 0, 67, 95
2, 92640, Note_on_c, 0, 64, 95
2, 92640, Note_on_c, 0, 66, 95
2, 92880, Note_off_c, 0, 64, 95
2, 92880, Note_off_c, 0, 66, 95
2, 92880, Note_on_c, 0, 64, 95
2, 92880, Note_on_c, 0, 66, 95
2, 93120, Note_off_c, 0, 64, 95
2, 93120, Note_off_c, 0, 66, 95
2, 93120, Note_on_c, 0, 64, 95
2, 93120, Note_on_c, 0, 67, 95
2, 93360, Note_off_c, 0, 64, 95
2, 93360, Note_off_c, 0, 67, 95
2, 93360, Note_on_c, 0, 64, 95
2, 93360, Note_on_c, 0, 67, 95
2, 93600, Note_off_c, 0, 64, 95
2, 93600, Note_off_c, 0, 67, 95
2, 93600, Note_on_c, 0, 64, 95
2, 93600, Note_on_c, 0, 66, 95
2, 93840, Note_off_c, 0, 64, 95
2, 93840, Note_off_c, 0, 66, 95
2, 93840, Note_on_c, 0, 64, 95
2, 93840, Note_on_c, 0, 66, 95
2, 94080, Note_off_c, 0, 64, 95
2, 94080, Note_off_c, 0, 66, 95
2, 94080, Note_on_c, 0, 64, 95
2, 94080, Note_on_c, 0, 67, 95
2, 94320, Note_off_c, 0, 64, 95
2, 94320, Note_off_c, 0, 67, 95
2, 94320, Note_on_c, 0, 64, 95
2, 94320, Note_on_c, 0, 67, 95
2, 94560, Note_off_c, 0, 64, 95
2, 94560, Note_off_c, 0, 67, 95
2, 94560, Note_on_c, 0, 64, 95
2, 94560, Note_on_c, 0, 66, 95
2, 94800, Note_off_c, 0, 64, 95
2, 94800, Note_off_c, 0, 66, 95
2, 94800, Note_on_c, 0, 64, 95
2, 94800, Note_on_c, 0, 66, 95
2, 95040, Note_off_c, 0, 64, 95
2, 95040, Note_off_c, 0, 66, 95
2, 95040, Note_on_c, 0, 64, 95
2, 95040, Note_on_c, 0, 67, 95
2, 95280, Note_off_c, 0, 64, 95
2, 95280, Note_off_c, 0, 67, 95
2, 95280, Note_on_c, 0, 64, 95
2, 95280, Note_on_c, 0, 67, 95
2, 95520, Note_off_c, 0, 64, 95
2, 95520, Note_off_c, 0, 67, 95
2, 95520, Note_on_c, 0, 64, 95
2, 95520, Note_on_c, 0, 66, 95
2, 95760, Note_off_c, 0, 64, 95
2, 95760, Note_off_c, 0, 66, 95
2, 95760, Note_on_c, 0, 64, 95
2, 95760, Note_on_c, 0, 66, 95
2, 96000, Note_off_c, 0, 64, 95
2, 96000, Note_off_c, 0, 66, 95
2, 96000, Note_on_c, 0, 64, 95
2, 96000, Note_on_c, 0, 67, 95
2, 96240, Note_off_c, 0, 64, 95
2, 96240, Note_off_c, 0, 67, 95
2, 96240, Note_on_c, 0, 64, 95
2, 96240, Note_on_c, 0, 67, 95
2, 96480, Note_off_c, 0, 64, 95
2, 96480, Note_off_c, 0, 67, 95
2, 96480, Note_on_c, 0, 64, 95
2, 96480, Note_on_c, 0, 66, 95
2, 96720, Note_off_c, 0, 64, 95
2, 96720, Note_off_c, 0, 66, 95
2, 96720, Note_on_c, 0, 64, 95
2, 96720, Note_on_c, 0, 66, 95
2, 96960, Note_off_c, 0, 64, 95
2, 96960, Note_off_c, 0, 66, 95
2, 96960, Note_on_c, 0, 64, 95
2, 96960, Note_on_c, 0, 67, 95
2, 97200, Note_off_c, 0, 64, 95
2, 97200, Note_off_c, 0, 67, 95
2, 97200, Note_on_c, 0, 64, 95
2, 97200, Note_on_c, 0, 67, 95
2, 97440, Note_off_c, 0, 64, 95
2, 97440, Note_off_c, 0, 67, 95
2, 97440, Note_on_c, 0, 64, 95
2, 97440, Note_on_c, 0, 66, 95
2, 97680, Note_off_c, 0, 64, 95
2, 97680, Note_off_c, 0, 66, 95
2, 97680, Note_on_c, 0, 64, 95
2, 97680, Note_on_c, 0, 66, 95
2, 97920, Note_off_c, 0, 64, 95
2, 97920, Note_off_c, 0, 66, 95
2, 97920, Note_on_c, 0, 64, 95
2, 97920, Note_on_c, 0, 67, 95
2, 98160, Note_off_c, 0, 64, 95
2, 98160, Note_off_c, 0, 67, 95
2, 98160, Note_on_c, 0, 64, 95
2, 98160, Note_on_c, 0, 67, 95
2, 98400, Note_off_c, 0, 64, 95
2, 98400, Note_off_c, 0, 67, 95
2, 98400, Note_on_c, 0, 64, 95
2, 98400, Note_on_c, 0, 66, 95
2, 98640, Note_off_c, 0, 64, 95
2, 98640, Note_off_c, 0, 66, 95
2, 98640, Note_on_c, 0, 64, 95
2, 98640, Note_on_c, 0, 66, 95
2, 98880, Note_off_c, 0, 64, 95
2, 98880, Note_off_c, 0, 66, 95
2, 98880, Note_on_c, 0, 64, 95
2, 98880, Note_on_c, 0, 67, 95
2, 99120, Note_off_c, 0, 64, 95
2, 99120, Note_off_c, 0, 67, 95
2, 99120, Note_on_c, 0, 64, 95
2, 99120, Note_on_c, 0, 67, 95
2, 99360, Note_off_c, 0, 64, 95
2, 99360, Note_off_c, 0, 67, 95
2, 99360, Note_on_c, 0, 64, 95
2, 99360, Note_on_c, 0, 66, 95
2, 99600, Note_off_c, 0, 64, 95
2, 99600, Note_off_c, 0, 66, 95
2, 99600, Note_on_c, 0, 64, 95
2, 99600, Note_on_c, 0, 66, 95
2, 99840, Note_off_c, 0, 64, 95
2, 99840, Note_off_c, 0, 66, 95
2, 99840, Note_on_c, 0, 67, 95
2, 99840, Note_on_c, 0, 62, 95
2, 100080, Note_off_c, 0, 67, 95
2, 100080, Note_off_c, 0, 62, 95
2, 100080, Note_on_c, 0, 67, 95
2, 100080, Note_on_c, 0, 62, 95
2, 100320, Note_off_c, 0, 67, 95
2, 100320, Note_off_c, 0, 62, 95
2, 100320, Note_on_c, 0, 66, 95
2, 100320, Note_on_c, 0, 62, 95
2, 100560, Note_off_c, 0, 66, 95
2, 100560, Note_off_c, 0, 62, 95
2, 100560, Note_on_c, 0, 58, 95
2, 100800, Note_off_c, 0, 58, 95
2, 100800, Note_on_c, 0, 67, 95
2, 100800, Note_on_c, 0, 62, 95
2, 101040, Note_off_c, 0, 67, 95
2, 101040, Note_off_c, 0, 62, 95
2, 101040, Note_on_c, 0, 67, 95
2, 101040, Note_on_c, 0, 62, 95
2, 101280, Note_off_c, 0, 67, 95
2, 101280, Note_off_c, 0, 62, 95
2, 101280, Note_on_c, 0, 66, 95
2, 101280, Note_on_c, 0, 62, 95
2, 101520, Note_off_c, 0, 66, 95
2, 101520, Note_off_c, 0, 62, 95
2, 101520, Note_on_c, 0, 58, 95
2, 101760, Note_off_c, 0, 58, 95
2, 101760, Note_on_c, 0, 67, 95
2, 101760, Note_on_c, 0, 62, 95
2, 102000, Note_off_c, 0, 67, 95
2, 102000, Note_off_c, 0, 62, 95
2, 102000, Note_on_c, 0, 67, 95
2, 102000, Note_on_c, 0, 62, 95
2, 102240, Note_off_c, 0, 67, 95
2, 102240, Note_off_c, 0, 62, 95
2, 102240, Note_on_c, 0, 66, 95
2, 102240, Note_on_c, 0, 62, 95
2, 102480, Note_off_c, 0, 66, 95
2, 102480, Note_off_c, 0, 62, 95
2, 102480, Note_on_c, 0, 58, 95
2, 102720, Note_off_c, 0, 58, 95
2, 102720, Note_on_c, 0, 67, 95
2, 102720, Note_on_c, 0, 62, 95
2, 102960, Note_off_c, 0, 67, 95
2, 102960, Note_off_c, 0, 62, 95
2, 102960, Note_on_c, 0, 67, 95
2, 102960, Note_on_c, 0, 62, 95
2, 103200, Note_off_c, 0, 67, 95
2, 103200, Note_off_c, 0, 62, 95
2, 103200, Note_on_c, 0, 66, 95
2, 103200, Note_on_c, 0, 62, 95
2, 103440, Note_off_c, 0, 66, 95
2, 103440, Note_off_c, 0, 62, 95
2, 103440, Note_on_c, 0, 58, 95
2, 103680, Note_off_c, 0, 58, 95
2, 103680, Note_on_c, 0, 67, 95
2, 103680, Note_on_c, 0, 62, 95
2, 103920, Note_off_c, 0, 67, 95
2, 103920, Note_off_c, 0, 62, 95
2, 103920, Note_on_c, 0, 67, 95
2, 103920, Note_on_c, 0, 62, 95
2, 104160, Note_off_c, 0, 67, 95
2, 104160, Note_off_c, 0, 62, 95
2, 104160, Note_on_c, 0, 66, 95
2, 104160, Note_on_c, 0, 62, 95
2, 104400, Note_off_c, 0, 66, 95
2, 104400, Note_off_c, 0, 62, 95
2, 104400, Note_on_c, 0, 58, 95
2, 104640, Note_off_c, 0, 58, 95
2, 104640, Note_on_c, 0, 67, 95
2, 104640, Note_on_c, 0, 62, 95
2, 104880, Note_off_c, 0, 67, 95
2, 104880, Note_off_c, 0, 62, 95
2, 104880, Note_on_c, 0, 67, 95
2, 104880, Note_on_c, 0, 62, 95
2, 105120, Note_off_c, 0, 67, 95
2, 105120, Note_off_c, 0, 62, 95
2, 105120, Note_on_c, 0, 66, 95
2, 105120, Note_on_c, 0, 62, 95
2, 105360, Note_off_c, 0, 66, 95
2, 105360, Note_off_c, 0, 62, 95
2, 105360, Note_on_c, 0, 58, 95
2, 105600, Note_off_c, 0, 58, 95
2, 105600, Note_on_c, 0, 67, 95
2, 105600, Note_on_c, 0, 62, 95
2, 105840, Note_off_c, 0, 67, 95
2, 105840, Note_off_c, 0, 62, 95
2, 105840, Note_on_c, 0, 67, 95
2, 105840, Note_on_c, 0, 62, 95
2, 106080, Note_off_c, 0, 67, 95
2, 106080, Note_off_c, 0, 62, 95
2, 106080, Note_on_c, 0, 66, 95
2, 106080, Note_on_c, 0, 62, 95
2, 106320, Note_off_c, 0, 66, 95
2, 106320, Note_off_c, 0, 62, 95
2, 106320, Note_on_c, 0, 58, 95
2, 106560, Note_off_c, 0, 58, 95
2, 106560, Note_on_c, 0, 67, 95
2, 106560, Note_on_c, 0, 62, 95
2, 106800, Note_off_c, 0, 67, 95
2, 106800, Note_off_c, 0, 62, 95
2, 106800, Note_on_c, 0, 67, 95
2, 106800, Note_on_c, 0, 62, 95
2, 107040, Note_off_c, 0, 67, 95
2, 107040, Note_off_c, 0, 62, 95
2, 107040, Note_on_c, 0, 66, 95
2, 107040, Note_on_c, 0, 62, 95
2, 107280, Note_off_c, 0, 66, 95
2, 107280, Note_off_c, 0, 62, 95
2, 107280, Note_on_c, 0, 58, 95
2, 107520, Note_off_c, 0, 58, 95
2, 107520, Note_on_c, 0, 64, 95
2, 107520, Note_on_c, 0, 62, 95
2, 107760, Note_off_c, 0, 64, 95
2, 107760, Note_off_c, 0, 62, 95
2, 107760, Note_on_c, 0, 64, 95
2, 107760, Note_on_c, 0, 62, 95
2, 108000, Note_off_c, 0, 64, 95
2, 108000, Note_off_c, 0, 62, 95
2, 108000, Note_on_c, 0, 57, 95
2, 108240, Note_off_c, 0, 57, 95
2, 108240, Note_on_c, 0, 57, 95
2, 108480, Note_off_c, 0, 57, 95
2, 108480, Note_on_c, 0, 64, 95
2, 108480, Note_on_c, 0, 62, 95
2, 108720, Note_off_c, 0, 64, 95
2, 108720, Note_off_c, 0, 62, 95
2, 108720, Note_on_c, 0, 64, 95
2, 108720, Note_on_c, 0, 62, 95
2, 108960, Note_off_c, 0, 64, 95
2, 108960, Note_off_c, 0, 62, 95
2, 108960, Note_on_c, 0, 57, 95
2, 109200, Note_off_c, 0, 57, 95
2, 109200, Note_on_c, 0, 57, 95
2, 109440, Note_off_c, 0, 57, 95
2, 109440, Note_on_c, 0, 64, 95
2, 109440, Note_on_c, 0, 62, 95
2, 109680, Note_off_c, 0, 64, 95
2, 109680, Note_off_c, 0, 62, 95
2, 109680, Note_on_c, 0, 64, 95
2, 109680, Note_on_c, 0, 62, 95
2, 109920, Note_off_c, 0, 64, 95
2, 109920, Note_off_c, 0, 62, 95
2, 109920, Note_on_c, 0, 57, 95
2, 110160, Note_off_c, 0, 57, 95
2, 110160, Note_on_c, 0, 57, 95
2, 110400, Note_off_c, 0, 57, 95
2, 110400, Note_on_c, 0, 64, 95
2, 110400, Note_on_c, 0, 62, 95
2, 110640, Note_off_c, 0, 64, 95
2, 110640, Note_off_c, 0, 62, 95
2, 110640, Note_on_c, 0, 64, 95
2, 110640, Note_on_c, 0, 62, 95
2, 110880, Note_off_c, 0, 64, 95
2, 110880, Note_off_c, 0, 62, 95
2, 110880, Note_on_c, 0, 57, 95
2, 111120, Note_off_c, 0, 57, 95
2, 111120, Note_on_c, 0, 57, 95
2, 111360, Note_off_c, 0, 57, 95
2, 111360, Note_on_c, 0, 64, 95
2, 111360, Note_on_c, 0, 62, 95
2, 111600, Note_off_c, 0, 64, 95
2, 111600, Note_off_c, 0, 62, 95
2, 111600, Note_on_c, 0, 64, 95
2, 111600, Note_on_c, 0, 62, 95
2, 111840, Note_off_c, 0, 64, 95
2, 111840, Note_off_c, 0, 62, 95
2, 111840, Note_on_c, 0, 57, 95
2, 112080, Note_off_c, 0, 57, 95
2, 112080, Note_on_c, 0, 57, 95
2, 112320, Note_off_c, 0, 57, 95
2, 112320, Note_on_c, 0, 64, 95
2, 112320, Note_on_c, 0, 62, 95
2, 112560, Note_off_c, 0, 64, 95
2, 112560, Note_off_c, 0, 62, 95
2, 112560, Note_on_c, 0, 64, 95
2, 112560, Note_on_c, 0, 62, 95
2, 112800, Note_off_c, 0, 64, 95
2, 112800, Note_off_c, 0, 62, 95
2, 112800, Note_on_c, 0, 57, 95
2, 113040, Note_off_c, 0, 57, 95
2, 113040, Note_on_c, 0, 57, 95
2, 113280, Note_off_c, 0, 57, 95
2, 113280, Note_on_c, 0, 64, 95
2, 113280, Note_on_c, 0, 62, 95
2, 113520, Note_off_c, 0, 64, 95
2, 113520, Note_off_c, 0, 62, 95
2, 113520, Note_on_c, 0, 64, 95
2, 113520, Note_on_c, 0, 62, 95
2, 113760, Note_off_c, 0, 64, 95
2, 113760, Note_off_c, 0, 62, 95
2, 113760, Note_on_c, 0, 57, 95
2, 114000, Note_off_c, 0, 57, 95
2, 114000, Note_on_c, 0, 57, 95
2, 114240, Note_off_c, 0, 57, 95
2, 114240, Note_on_c, 0, 64, 95
2, 114240, Note_on_c, 0, 62, 95
2, 114480, Note_off_c, 0, 64, 95
2, 114480, Note_off_c, 0, 62, 95
2, 114480, Note_on_c, 0, 64, 95
2, 114480, Note_on_c, 0, 62, 95
2, 114720, Note_off_c, 0, 64, 95
2, 114720, Note_off_c, 0, 62, 95
2, 114720, Note_on_c, 0, 57, 95
2, 114960, Note_off_c, 0, 57, 95
2, 114960, Note_on_c, 0, 57, 95
2, 115200, Note_off_c, 0, 57, 95
2, 115200, Note_on_c, 0, 64, 95
2, 115200, Note_on_c, 0, 67, 95
2, 115440, Note_off_c, 0, 64, 95
2, 115440, Note_off_c, 0, 67, 95
2, 115440, Note_on_c, 0, 64, 95
2, 115440, Note_on_c, 0, 67, 95
2, 115680, Note_off_c, 0, 64, 95
2, 115680, Note_off_c, 0, 67, 95
2, 115680, Note_on_c, 0, 64, 95
2, 115680, Note_on_c, 0, 66, 95
2, 115920, Note_off_c, 0, 64, 95
2, 115920, Note_off_c, 0, 66, 95
2, 115920, Note_on_c, 0, 64, 95
2, 115920, Note_on_c, 0, 66, 95
2, 116160, Note_off_c, 0, 64, 95
2, 116160, Note_off_c, 0, 66, 95
2, 116160, Note_on_c, 0, 64, 95
2, 116160, Note_on_c, 0, 67, 95
2, 116400, Note_off_c, 0, 64, 95
2, 116400, Note_off_c, 0, 67, 95
2, 116400, Note_on_c, 0, 64, 95
2, 116400, Note_on_c, 0, 67, 95
2, 116640, Note_off_c, 0, 64, 95
2, 116640, Note_off_c, 0, 67, 95
2, 116640, Note_on_c, 0, 64, 95
2, 116640, Note_on_c, 0, 66, 95
2, 116880, Note_off_c, 0, 64, 95
2, 116880, Note_off_c, 0, 66, 95
2, 116880, Note_on_c, 0, 64, 95
2, 116880, Note_on_c, 0, 66, 95
2, 117120, Note_off_c, 0, 64, 95
2, 117120, Note_off_c, 0, 66, 95
2, 117120, Note_on_c, 0, 64, 95
2, 117120, Note_on_c, 0, 67, 95
2, 117360, Note_off_c, 0, 64, 95
2, 117360, Note_off_c, 0, 67, 95
2, 117360, Note_on_c, 0, 64, 95
2, 117360, Note_on_c, 0, 67, 95
2, 117600, Note_off_c, 0, 64, 95
2, 117600, Note_off_c, 0, 67, 95
2, 117600, Note_on_c, 0, 64, 95
2, 117600, Note_on_c, 0, 66, 95
2, 117840, Note_off_c, 0, 64, 95
2, 117840, Note_off_c, 0, 66, 95
2, 117840, Note_on_c, 0, 64, 95
2, 117840, Note_on_c, 0, 66, 95
2, 118080, Note_off_c, 0, 64, 95
2, 118080, Note_off_c, 0, 66, 95
2, 118080, Note_on_c, 0, 64, 95
2, 118080, Note_on_c, 0, 67, 95
2, 118320, Note_off_c, 0, 64, 95
2, 118320, Note_off_c, 0, 67, 95
2, 118320, Note_on_c, 0, 64, 95
2, 118320, Note_on_c, 0, 67, 95
2, 118560, Note_off_c, 0, 64, 95
2, 118560, Note_off_c, 0, 67, 95
2, 118560, Note_on_c, 0, 64, 95
2, 118560, Note_on_c, 0, 66, 95
2, 118800, Note_off_c, 0, 64, 95
2, 118800, Note_off_c, 0, 66, 95
2, 118800, Note_on_c, 0, 64, 95
2, 118800, Note_on_c, 0, 66, 95
2, 119040, Note_off_c, 0, 64, 95
2, 119040, Note_off_c, 0, 66, 95
2, 119040, Note_on_c, 0, 64, 95
2, 119040, Note_on_c, 0, 67, 95
2, 119280, Note_off_c, 0, 64, 95
2, 119280, Note_off_c, 0, 67, 95
2, 119280, Note_on_c, 0, 64, 95
2, 119280, Note_on_c, 0, 67, 95
2, 119520, Note_off_c, 0, 64, 95
2, 119520, Note_off_c, 0, 67, 95
2, 119520, Note_on_c, 0, 64, 95
2, 119520, Note_on_c, 0, 66, 95
2, 119760, Note_off_c, 0, 64, 95
2, 119760, Note_off_c, 0, 66, 95
2, 119760, Note_on_c, 0, 64, 95
2, 119760, Note_on_c, 0, 66, 95
2, 120000, Note_off_c, 0, 64, 95
2, 120000, Note_off_c, 0, 66, 95
2, 120000, Note_on_c, 0, 64, 95
2, 120000, Note_on_c, 0, 67, 95
2, 120240, Note_off_c, 0, 64, 95
2, 120240, Note_off_c, 0, 67, 95
2, 120240, Note_on_c, 0, 64, 95
2, 120240, Note_on_c, 0, 67, 95
2, 120480, Note_off_c, 0, 64, 95
2, 120480, Note_off_c, 0, 67, 95
2, 120480, Note_on_c, 0, 64, 95
2, 120480, Note_on_c, 0, 66, 95
2, 120720, Note_off_c, 0, 64, 95
2, 120720, Note_off_c, 0, 66, 95
2, 120720, Note_on_c, 0, 64, 95
2, 120720, Note_on_c, 0, 66, 95
2, 120960, Note_off_c, 0, 64, 95
2, 120960, Note_off_c, 0, 66, 95
2, 120960, Note_on_c, 0, 64, 95
2, 120960, Note_on_c, 0, 67, 95
2, 121200, Note_off_c, 0, 64, 95
2, 121200, Note_off_c, 0, 67, 95
2, 121200, Note_on_c, 0, 64, 95
2, 121200, Note_on_c, 0, 67, 95
2, 121440, Note_off_c, 0, 64, 95
2, 121440, Note_off_c, 0, 67, 95
2, 121440, Note_on_c, 0, 64, 95
2, 121440, Note_on_c, 0, 66, 95
2, 121680, Note_off_c, 0, 64, 95
2, 121680, Note_off_c, 0, 66, 95
2, 121680, Note_on_c, 0, 64, 95
2, 121680, Note_on_c, 0, 66, 95
2, 121920, Note_off_c, 0, 64, 95
2, 121920, Note_off_c, 0, 66, 95
2, 121920, Note_on_c, 0, 64, 95
2, 121920, Note_on_c, 0, 67, 95
2, 122160, Note_off_c, 0, 64, 95
2, 122160, Note_off_c, 0, 67, 95
2, 122160, Note_on_c, 0, 64, 95
2, 122160, Note_on_c, 0, 67, 95
2, 122400, Note_off_c, 0, 64, 95
2, 122400, Note_off_c, 0, 67, 95
2, 122400, Note_on_c, 0, 64, 95
2, 122400, Note_on_c, 0, 66, 95
2, 122640, Note_off_c, 0, 64, 95
2, 122640, Note_off_c, 0, 66, 95
2, 122640, Note_on_c, 0, 64, 95
2, 122640, Note_on_c, 0, 66, 95
2, 122880, Note_off_c, 0, 64, 95
2, 122880, Note_off_c, 0, 66, 95
2, 122880, Note_on_c, 0, 64, 95
2, 122880, Note_on_c, 0, 59, 95
2, 122880, Note_on_c, 0, 62, 95
2, 123120, Note_off_c, 0, 64, 95
2, 123120, Note_off_c, 0, 59, 95
2, 123120, Note_off_c, 0, 62, 95
2, 123120, Note_on_c, 0, 64, 95
2, 123120, Note_on_c, 0, 59, 95
2, 123120, Note_on_c, 0, 62, 95
2, 123360, Note_off_c, 0, 64, 95
2, 123360, Note_off_c, 0, 59, 95
2, 123360, Note_off_c, 0, 62, 95
2, 123360, Note_on_c, 0, 64, 95
2, 123360, Note_on_c, 0, 52, 95
2, 123600, Note_off_c, 0, 64, 95
2, 123600, Note_off_c, 0, 52, 95
2, 123600, Note_on_c, 0, 64, 95
2, 123600, Note_on_c, 0, 52, 95
2, 123840, Note_off_c, 0, 64, 95
2, 123840, Note_off_c, 0, 52, 95
2, 123840, Note_on_c, 0, 64, 95
2, 123840, Note_on_c, 0, 62, 95
2, 123840, Note_on_c, 0, 59, 95
2, 124080, Note_off_c, 0, 64, 95
2, 124080, Note_off_c, 0, 62, 95
2, 124080, Note_off_c, 0, 59, 95
2, 124080, Note_on_c, 0, 64, 95
2, 124080, Note_on_c, 0, 62, 95
2, 124080, Note_on_c, 0, 59, 95
2, 124320, Note_off_c, 0, 64, 95
2, 124320, Note_off_c, 0, 62, 95
2, 124320, Note_off_c, 0, 59, 95
2, 124320, Note_on_c, 0, 64, 95
2, 124320, Note_on_c, 0, 52, 95
2, 124560, Note_off_c, 0, 64, 95
2, 124560, Note_off_c, 0, 52, 95
2, 124560, Note_on_c, 0, 64, 95
2, 124560, Note_on_c, 0, 52, 95
2, 124800, Note_off_c, 0, 64, 95
2, 124800, Note_off_c, 0, 52, 95
2, 124800, Note_on_c, 0, 64, 95
2, 124800, Note_on_c, 0, 62, 95
2, 124800, Note_on_c, 0, 59, 95
2, 125040, Note_off_c, 0, 64, 95
2, 125040, Note_off_c, 0, 62, 95
2, 125040, Note_off_c, 0, 59, 95
2, 125040, Note_on_c, 0, 64, 95
2, 125040, Note_on_c, 0, 62, 95
2, 125040, Note_on_c, 0, 59, 95
2, 125280, Note_off_c, 0, 64, 95
2, 125280, Note_off_c, 0, 62, 95
2, 125280, Note_off_c, 0, 59, 95
2, 125280, Note_on_c, 0, 64, 95
2, 125280, Note_on_c, 0, 52, 95
2, 125520, Note_off_c, 0, 64, 95
2, 125520, Note_off_c, 0, 52, 95
2, 125520, Note_on_c, 0, 64, 95
2, 125520, Note_on_c, 0, 52, 95
2, 125760, Note_off_c, 0, 64, 95
2, 125760, Note_off_c, 0, 52, 95
2, 125760, Note_on_c, 0, 64, 95
2, 125760, Note_on_c, 0, 62, 95
2, 125760, Note_on_c, 0, 59, 95
2, 126000, Note_off_c, 0, 64, 95
2, 126000, Note_off_c, 0, 62, 95
2, 126000, Note_off_c, 0, 59, 95
2, 126000, Note_on_c, 0, 64, 95
2, 126000, Note_on_c, 0, 62, 95
2, 126000, Note_on_c, 0, 59, 95
2, 126240, Note_off_c, 0, 64, 95
2, 126240, Note_off_c, 0, 62, 95
2, 126240, Note_off_c, 0, 59, 95
2, 126240, Note_on_c, 0, 64, 95
2, 126240, Note_on_c, 0, 52, 95
2, 126480, Note_off_c, 0, 64, 95
2, 126480, Note_off_c, 0, 52, 95
2, 126480, Note_on_c, 0, 64, 95
2, 126480, Note_on_c, 0, 52, 95
2, 126720, Note_off_c, 0, 64, 95
2, 126720, Note_off_c, 0, 52, 95
2, 126720, Note_on_c, 0, 64, 95
2, 126720, Note_on_c, 0, 62, 95
2, 126720, Note_on_c, 0, 59, 95
2, 126960, Note_off_c, 0, 64, 95
2, 126960, Note_off_c, 0, 62, 95
2, 126960, Note_off_c, 0, 59, 95
2, 126960, Note_on_c, 0, 64, 95
2, 126960, Note_on_c, 0, 62, 95
2, 126960, Note_on_c, 0, 59, 95
2, 127200, Note_off_c, 0, 64, 95
2, 127200, Note_off_c, 0, 62, 95
2, 127200, Note_off_c, 0, 59, 95
2, 127200, Note_on_c, 0, 64, 95
2, 127200, Note_on_c, 0, 52, 95
2, 127440, Note_off_c, 0, 64, 95
2, 127440, Note_off_c, 0, 52, 95
2, 127440, Note_on_c, 0, 64, 95
2, 127440, Note_on_c, 0, 52, 95
2, 127680, Note_off_c, 0, 64, 95
2, 127680, Note_off_c, 0, 52, 95
2, 127680, Note_on_c, 0, 64, 95
2, 127680, Note_on_c, 0, 62, 95
2, 127680, Note_on_c, 0, 59, 95
2, 127920, Note_off_c, 0, 64, 95
2, 127920, Note_off_c, 0, 62, 95
2, 127920, Note_off_c, 0, 59, 95
2, 127920, Note_on_c, 0, 64, 95
2, 127920, Note_on_c, 0, 62, 95
2, 127920, Note_on_c, 0, 59, 95
2, 128160, Note_off_c, 0, 64, 95
2, 128160, Note_off_c, 0, 62, 95
2, 128160, Note_off_c, 0, 59, 95
2, 128160, Note_on_c, 0, 64, 95
2, 128160, Note_on_c, 0, 52, 95
2, 128400, Note_off_c, 0, 64, 95
2, 128400, Note_off_c, 0, 52, 95
2, 128400, Note_on_c, 0, 64, 95
2, 128400, Note_on_c, 0, 52, 95
2, 128640, Note_off_c, 0, 64, 95
2, 128640, Note_off_c, 0, 52, 95
2, 128640, Note_on_c, 0, 64, 95
2, 128640, Note_on_c, 0, 62, 95
2, 128640, Note_on_c, 0, 59, 95
2, 128880, Note_off_c, 0, 64, 95
2, 128880, Note_off_c, 0, 62, 95
2, 128880, Note_off_c, 0, 59, 95
2, 128880, Note_on_c, 0, 64, 95
2, 128880, Note_on_c, 0, 62, 95
2, 128880, Note_on_c, 0, 59, 95
2, 129120, Note_off_c, 0, 64, 95
2, 129120, Note_off_c, 0, 62, 95
2, 129120, Note_off_c, 0, 59, 95
2, 129120, Note_on_c, 0, 64, 95
2, 129120, Note_on_c, 0, 52, 95
2, 129360, Note_off_c, 0, 64, 95
2, 129360, Note_off_c, 0, 52, 95
2, 129360, Note_on_c, 0, 64, 95
2, 129360, Note_on_c, 0, 52, 95
2, 129600, Note_off_c, 0, 64, 95
2, 129600, Note_off_c, 0, 52, 95
2, 129600, Note_on_c, 0, 64, 95
2, 129600, Note_on_c, 0, 62, 95
2, 129600, Note_on_c, 0, 59, 95
2, 129840, Note_off_c, 0, 64, 95
2, 129840, Note_off_c, 0, 62, 95
2, 129840, Note_off_c, 0, 59, 95
2, 129840, Note_on_c, 0, 64, 95
2, 129840, Note_on_c, 0, 62, 95
2, 129840, Note_on_c, 0, 59, 95
2, 130080, Note_off_c, 0, 64, 95
2, 130080, Note_off_c, 0, 62, 95
2, 130080, Note_off_c, 0, 59, 95
2, 130080, Note_on_c, 0, 64, 95
2, 130080, Note_on_c, 0, 52, 95
2, 130320, Note_off_c, 0, 64, 95
2, 130320, Note_off_c, 0, 52, 95
2, 130320, Note_on_c, 0, 64, 95
2, 130320, Note_on_c, 0, 52, 95
2, 130560, Note_off_c, 0, 64, 95
2, 130560, Note_off_c, 0, 52, 95
2, 130560, Note_on_c, 0, 72, 95
2, 130560, Note_on_c, 0, 67, 95
2, 130800, Note_off_c, 0, 72, 95
2, 130800, Note_off_c, 0, 67, 95
2, 130800, Note_on_c, 0, 72, 95
2, 130800, Note_on_c, 0, 67, 95
2, 131040, Note_off_c, 0, 72, 95
2, 131040, Note_off_c, 0, 67, 95
2, 131040, Note_on_c, 0, 72, 95
2, 131040, Note_on_c, 0, 66, 95
2, 131280, Note_off_c, 0, 72, 95
2, 131280, Note_off_c, 0, 66, 95
2, 131280, Note_on_c, 0, 72, 95
2, 131280, Note_on_c, 0, 66, 95
2, 131520, Note_off_c, 0, 72, 95
2, 131520, Note_off_c, 0, 66, 95
2, 131520, Note_on_c, 0, 72, 95
2, 131520, Note_on_c, 0, 67, 95
2, 131760, Note_off_c, 0, 72, 95
2, 131760, Note_off_c, 0, 67, 95
2, 131760, Note_on_c, 0, 72, 95
2, 131760, Note_on_c, 0, 67, 95
2, 132000, Note_off_c, 0, 72, 95
2, 132000, Note_off_c, 0, 67, 95
2, 132000, Note_on_c, 0, 72, 95
2, 132000, Note_on_c, 0, 66, 95
2, 132240, Note_off_c, 0, 72, 95
2, 132240, Note_off_c, 0, 66, 95
2, 132240, Note_on_c, 0, 72, 95
2, 132240, Note_on_c, 0, 66, 95
2, 132480, Note_off_c, 0, 72, 95
2, 132480, Note_off_c, 0, 66, 95
2, 132480, Note_on_c, 0, 72, 95
2, 132480, Note_on_c, 0, 67, 95
2, 132720, Note_off_c, 0, 72, 95
2, 132720, Note_off_c, 0, 67, 95
2, 132720, Note_on_c, 0, 72, 95
2, 132720, Note_on_c, 0, 67, 95
2, 132960, Note_off_c, 0, 72, 95
2, 132960, Note_off_c, 0, 67, 95
2, 132960, Note_on_c, 0, 72, 95
2, 132960, Note_on_c, 0, 66, 95
2, 133200, Note_off_c, 0, 72, 95
2, 133200, Note_off_c, 0, 66, 95
2, 133200, Note_on_c, 0, 72, 95
2, 133200, Note_on_c, 0, 66, 95
2, 133440, Note_off_c, 0, 72, 95
2, 133440, Note_off_c, 0, 66, 95
2, 133440, Note_on_c, 0, 72, 95
2, 133440, Note_on_c, 0, 67, 95
2, 133680, Note_off_c, 0, 72, 95
2, 133680, Note_off_c, 0, 67, 95
2, 133680, Note_on_c, 0, 72, 95
2, 133680, Note_on_c, 0, 67, 95
2, 133920, Note_off_c, 0, 72, 95
2, 133920, Note_off_c, 0, 67, 95
2, 133920, Note_on_c, 0, 72, 95
2, 133920, Note_on_c, 0, 66, 95
2, 134160, Note_off_c, 0, 72, 95
2, 134160, Note_off_c, 0, 66, 95
2, 134160, Note_on_c, 0, 72, 95
2, 134160, Note_on_c, 0, 66, 95
2, 134400, Note_off_c, 0, 72, 95
2, 134400, Note_off_c, 0, 66, 95
2, 134400, Note_on_c, 0, 72, 95
2, 134400, Note_on_c, 0, 67, 95
2, 134640, Note_off_c, 0, 72, 95
2, 134640, Note_off_c, 0, 67, 95
2, 134640, Note_on_c, 0, 72, 95
2, 134640, Note_on_c, 0, 67, 95
2, 134880, Note_off_c, 0, 72, 95
2, 134880, Note_off_c, 0, 67, 95
2, 134880, Note_on_c, 0, 72, 95
2, 134880, Note_on_c, 0, 66, 95
2, 135120, Note_off_c, 0, 72, 95
2, 135120, Note_off_c, 0, 66, 95
2, 135120, Note_on_c, 0, 72, 95
2, 135120, Note_on_c, 0, 66, 95
2, 135360, Note_off_c, 0, 72, 95
2, 135360, Note_off_c, 0, 66, 95
2, 135360, Note_on_c, 0, 72, 95
2, 135360, Note_on_c, 0, 67, 95
2, 135600, Note_off_c, 0, 72, 95
2, 135600, Note_off_c, 0, 67, 95
2, 135600, Note_on_c, 0, 72, 95
2, 135600, Note_on_c, 0, 67, 95
2, 135840, Note_off_c, 0, 72, 95
2, 135840, Note_off_c, 0, 67, 95
2, 135840, Note_on_c, 0, 72, 95
2, 135840, Note_on_c, 0, 66, 95
2, 136080, Note_off_c, 0, 72, 95
2, 136080, Note_off_c, 0, 66, 95
2, 136080, Note_on_c, 0, 72, 95
2, 136080, Note_on_c, 0, 66, 95
2, 136320, Note_off_c, 0, 72, 95
2, 136320, Note_off_c, 0, 66, 95
2, 136320, Note_on_c, 0, 72, 95
2, 136320, Note_on_c, 0, 67, 95
2, 136560, Note_off_c, 0, 72, 95
2, 136560, Note_off_c, 0, 67, 95
2, 136560, Note_on_c, 0, 72, 95
2, 136560, Note_on_c, 0, 67, 95
2, 136800, Note_off_c, 0, 72, 95
2, 136800, Note_off_c, 0, 67, 95
2, 136800, Note_on_c, 0, 72, 95
2, 136800, Note_on_c, 0, 66, 95
2, 137040, Note_off_c, 0, 72, 95
2, 137040, Note_off_c, 0, 66, 95
2, 137040, Note_on_c, 0, 72, 95
2, 137040, Note_on_c, 0, 66, 95
2, 137280, Note_off_c, 0, 72, 95
2, 137280, Note_off_c, 0, 66, 95
2, 137280, Note_on_c, 0, 72, 95
2, 137280, Note_on_c, 0, 67, 95
2, 137520, Note_off_c, 0, 72, 95
2, 137520, Note_off_c, 0, 67, 95
2, 137520, Note_on_c, 0, 72, 95
2, 137520, Note_on_c, 0, 67, 95
2, 137760, Note_off_c, 0, 72, 95
2, 137760, Note_off_c, 0, 67, 95
2, 137760, Note_on_c, 0, 72, 95
2, 137760, Note_on_c, 0, 66, 95
2, 138000, Note_off_c, 0, 72, 95
2, 138000, Note_off_c, 0, 66, 95
2, 138000, Note_on_c, 0, 72, 95
2, 138000, Note_on_c, 0, 66, 95
2, 138240, Note_off_c, 0, 72, 95
2, 138240, Note_off_c, 0, 66, 95
2, 138240, Note_on_c, 0, 64, 95
2, 138240, Note_on_c, 0, 67, 95
2, 138480, Note_off_c, 0, 64, 95
2, 138480, Note_off_c, 0, 67, 95
2, 138480, Note_on_c, 0, 64, 95
2, 138480, Note_on_c, 0, 67, 95
2, 138720, Note_off_c, 0, 64, 95
2, 138720, Note_off_c, 0, 67, 95
2, 138720, Note_on_c, 0, 64, 95
2, 138720, Note_on_c, 0, 66, 95
2, 138960, Note_off_c, 0, 64, 95
2, 138960, Note_off_c, 0, 66, 95
2, 138960, Note_on_c, 0, 64, 95
2, 138960, Note_on_c, 0, 66, 95
2, 139200, Note_off_c, 0, 64, 95
2, 139200, Note_off_c, 0, 66, 95
2, 139200, Note_on_c, 0, 64, 95
2, 139200, Note_on_c, 0, 67, 95
2, 139440, Note_off_c, 0, 64, 95
2, 139440, Note_off_c, 0, 67, 95
2, 139440, Note_on_c, 0, 64, 95
2, 139440, Note_on_c, 0, 67, 95
2, 139680, Note_off_c, 0, 64, 95
2, 139680, Note_off_c, 0, 67, 95
2, 139680, Note_on_c, 0, 64, 95
2, 139680, Note_on_c, 0, 66, 95
2, 139920, Note_off_c, 0, 64, 95
2, 139920, Note_off_c, 0, 66, 95
2, 139920, Note_on_c, 0, 64, 95
2, 139920, Note_on_c, 0, 66, 95
2, 140160, Note_off_c, 0, 64, 95
2, 140160, Note_off_c, 0, 66, 95
2, 140160, Note_on_c, 0, 64, 95
2, 140160, Note_on_c, 0, 67, 95
2, 140400, Note_off_c, 0, 64, 95
2, 140400, Note_off_c, 0, 67, 95
2, 140400, Note_on_c, 0, 64, 95
2, 140400, Note_on_c, 0, 67, 95
2, 140640, Note_off_c, 0, 64, 95
2, 140640, Note_off_c, 0, 67, 95
2, 140640, Note_on_c, 0, 64, 95
2, 140640, Note_on_c, 0, 66, 95
2, 140880, Note_off_c, 0, 64, 95
2, 140880, Note_off_c, 0, 66, 95
2, 140880, Note_on_c, 0, 64, 95
2, 140880, Note_on_c, 0, 66, 95
2, 141120, Note_off_c, 0, 64, 95
2, 141120, Note_off_c, 0, 66, 95
2, 141120, Note_on_c, 0, 64, 95
2, 141120, Note_on_c, 0, 67, 95
2, 141360, Note_off_c, 0, 64, 95
2, 141360, Note_off_c, 0, 67, 95
2, 141360, Note_on_c, 0, 64, 95
2, 141360, Note_on_c, 0, 67, 95
2, 141600, Note_off_c, 0, 64, 95
2, 141600, Note_off_c, 0, 67, 95
2, 141600, Note_on_c, 0, 64, 95
2, 141600, Note_on_c, 0, 66, 95
2, 141840, Note_off_c, 0, 64, 95
2, 141840, Note_off_c, 0, 66, 95
2, 141840, Note_on_c, 0, 64, 95
2, 141840, Note_on_c, 0, 66, 95
2, 142080, Note_off_c, 0, 64, 95
2, 142080, Note_off_c, 0, 66, 95
2, 142080, Note_on_c, 0, 64, 95
2, 142080, Note_on_c, 0, 67, 95
2, 142320, Note_off_c, 0, 64, 95
2, 142320, Note_off_c, 0, 67, 95
2, 142320, Note_on_c, 0, 64, 95
2, 142320, Note_on_c, 0, 67, 95
2, 142560, Note_off_c, 0, 64, 95
2, 142560, Note_off_c, 0, 67, 95
2, 142560, Note_on_c, 0, 64, 95
2, 142560, Note_on_c, 0, 66, 95
2, 142800, Note_off_c, 0, 64, 95
2, 142800, Note_off_c, 0, 66, 95
2, 142800, Note_on_c, 0, 64, 95
2, 142800, Note_on_c, 0, 66, 95
2, 143040, Note_off_c, 0, 64, 95
2, 143040, Note_off_c, 0, 66, 95
2, 143040, Note_on_c, 0, 64, 95
2, 143040, Note_on_c, 0, 67, 95
2, 143280, Note_off_c, 0, 64, 95
2, 143280, Note_off_c, 0, 67, 95
2, 143280, Note_on_c, 0, 64, 95
2, 143280, Note_on_c, 0, 67, 95
2, 143520, Note_off_c, 0, 64, 95
2, 143520, Note_off_c, 0, 67, 95
2, 143520, Note_on_c, 0, 64, 95
2, 143520, Note_on_c, 0, 66, 95
2, 143760, Note_off_c, 0, 64, 95
2, 143760, Note_off_c, 0, 66, 95
2, 143760, Note_on_c, 0, 64, 95
2, 143760, Note_on_c, 0, 66, 95
2, 144000, Note_off_c, 0, 64, 95
2, 144000, Note_off_c, 0, 66, 95
2, 144000, Note_on_c, 0, 64, 95
2, 144000, Note_on_c, 0, 67, 95
2, 144240, Note_off_c, 0, 64, 95
2, 144240, Note_off_c, 0, 67, 95
2, 144240, Note_on_c, 0, 64, 95
2, 144240, Note_on_c, 0, 67, 95
2, 144480, Note_off_c, 0, 64, 95
2, 144480, Note_off_c, 0, 67, 95
2, 144480, Note_on_c, 0, 64, 95
2, 144480, Note_on_c, 0, 66, 95
2, 144720, Note_off_c, 0, 64, 95
2, 144720, Note_off_c, 0, 66, 95
2, 144720, Note_on_c, 0, 64, 95
2, 144720, Note_on_c, 0, 66, 95
2, 144960, Note_off_c, 0, 64, 95
2, 144960, Note_off_c, 0, 66, 95
2, 144960, Note_on_c, 0, 64, 95
2, 144960, Note_on_c, 0, 67, 95
2, 145200, Note_off_c, 0, 64, 95
2, 145200, Note_off_c, 0, 67, 95
2, 145200, Note_on_c, 0, 64, 95
2, 145200, Note_on_c, 0, 67, 95
2, 145440, Note_off_c, 0, 64, 95
2, 145440, Note_off_c, 0, 67, 95
2, 145440, Note_on_c, 0, 64, 95
2, 145440, Note_on_c, 0, 66, 95
2, 145680, Note_off_c, 0, 64, 95
2, 145680, Note_off_c, 0, 66, 95
2, 145680, Note_on_c, 0, 64, 95
2, 145680, Note_on_c, 0, 66, 95
2, 145920, Note_off_c, 0, 64, 95
2, 145920, Note_off_c, 0, 66, 95
2, 145920, Note_on_c, 0, 72, 95
2, 145920, Note_on_c, 0, 67, 95
2, 146160, Note_off_c, 0, 72, 95
2, 146160, Note_off_c, 0, 67, 95
2, 146160, Note_on_c, 0, 72, 95
2, 146160, Note_on_c, 0, 67, 95
2, 146400, Note_off_c, 0, 72, 95
2, 146400, Note_off_c, 0, 67, 95
2, 146400, Note_on_c, 0, 72, 95
2, 146400, Note_on_c, 0, 66, 95
2, 146640, Note_off_c, 0, 72, 95
2, 146640, Note_off_c, 0, 66, 95
2, 146640, Note_on_c, 0, 72, 95
2, 146640, Note_on_c, 0, 66, 95
2, 146880, Note_off_c, 0, 72, 95
2, 146880, Note_off_c, 0, 66, 95
2, 146880, Note_on_c, 0, 72, 95
2, 146880, Note_on_c, 0, 67, 95
2, 147120, Note_off_c, 0, 72, 95
2, 147120, Note_off_c, 0, 67, 95
2, 147120, Note_on_c, 0, 72, 95
2, 147120, Note_on_c, 0, 67, 95
2, 147360, Note_off_c, 0, 72, 95
2, 147360, Note_off_c, 0, 67, 95
2, 147360, Note_on_c, 0, 72, 95
2, 147360, Note_on_c, 0, 66, 95
2, 147600, Note_off_c, 0, 72, 95
2, 147600, Note_off_c, 0, 66, 95
2, 147600, Note_on_c, 0, 72, 95
2, 147600, Note_on_c, 0, 66, 95
2, 147840, Note_off_c, 0, 72, 95
2, 147840, Note_off_c, 0, 66, 95
2, 147840, Note_on_c, 0, 72, 95
2, 147840, Note_on_c, 0, 67, 95
2, 148080, Note_off_c, 0, 72, 95
2, 148080, Note_off_c, 0, 67, 95
2, 148080, Note_on_c, 0, 72, 95
2, 148080, Note_on_c, 0, 67, 95
2, 148320, Note_off_c, 0, 72, 95
2, 148320, Note_off_c, 0, 67, 95
2, 148320, Note_on_c, 0, 72, 95
2, 148320, Note_on_c, 0, 66, 95
2, 148560, Note_off_c, 0, 72, 95
2, 148560, Note_off_c, 0, 66, 95
2, 148560, Note_on_c, 0, 72, 95
2, 148560, Note_on_c, 0, 66, 95
2, 148800, Note_off_c, 0, 72, 95
2, 148800, Note_off_c, 0, 66, 95
2, 148800, Note_on_c, 0, 72, 95
2, 148800, Note_on_c, 0, 67, 95
2, 149040, Note_off_c, 0, 72, 95
2, 149040, Note_off_c, 0, 67, 95
2, 149040, Note_on_c, 0, 72, 95
2, 149040, Note_on_c, 0, 67, 95
2, 149280, Note_off_c, 0, 72, 95
2, 149280, Note_off_c, 0, 67, 95
2, 149280, Note_on_c, 0, 72, 95
2, 149280, Note_on_c, 0, 66, 95
2, 149520, Note_off_c, 0, 72, 95
2, 149520, Note_off_c, 0, 66, 95
2, 149520, Note_on_c, 0, 72, 95
2, 149520, Note_on_c, 0, 66, 95
2, 149760, Note_off_c, 0, 72, 95
2, 149760, Note_off_c, 0, 66, 95
2, 149760, Note_on_c, 0, 72, 95
2, 149760, Note_on_c, 0, 67, 95
2, 150000, Note_off_c, 0, 72, 95
2, 150000, Note_off_c, 0, 67, 95
2, 150000, Note_on_c, 0, 72, 95
2, 150000, Note_on_c, 0, 67, 95
2, 150240, Note_off_c, 0, 72, 95
2, 150240, Note_off_c, 0, 67, 95
2, 150240, Note_on_c, 0, 72, 95
2, 150240, Note_on_c, 0, 66, 95
2, 150480, Note_off_c, 0, 72, 95
2, 150480, Note_off_c, 0, 66, 95
2, 150480, Note_on_c, 0, 72, 95
2, 150480, Note_on_c, 0, 66, 95
2, 150720, Note_off_c, 0, 72, 95
2, 150720, Note_off_c, 0, 66, 95
2, 150720, Note_on_c, 0, 72, 95
2, 150720, Note_on_c, 0, 67, 95
2, 150960, Note_off_c, 0, 72, 95
2, 150960, Note_off_c, 0, 67, 95
2, 150960, Note_on_c, 0, 72, 95
2, 150960, Note_on_c, 0, 67, 95
2, 151200, Note_off_c, 0, 72, 95
2, 151200, Note_off_c, 0, 67, 95
2, 151200, Note_on_c, 0, 72, 95
2, 151200, Note_on_c, 0, 66, 95
2, 151440, Note_off_c, 0, 72, 95
2, 151440, Note_off_c, 0, 66, 95
2, 151440, Note_on_c, 0, 72, 95
2, 151440, Note_on_c, 0, 66, 95
2, 151680, Note_off_c, 0, 72, 95
2, 151680, Note_off_c, 0, 66, 95
2, 151680, Note_on_c, 0, 72, 95
2, 151680, Note_on_c, 0, 67, 95
2, 151920, Note_off_c, 0, 72, 95
2, 151920, Note_off_c, 0, 67, 95
2, 151920, Note_on_c, 0, 72, 95
2, 151920, Note_on_c, 0, 67, 95
2, 152160, Note_off_c, 0, 72, 95
2, 152160, Note_off_c, 0, 67, 95
2, 152160, Note_on_c, 0, 72, 95
2, 152160, Note_on_c, 0, 66, 95
2, 152400, Note_off_c, 0, 72, 95
2, 152400, Note_off_c, 0, 66, 95
2, 152400, Note_on_c, 0, 72, 95
2, 152400, Note_on_c, 0, 66, 95
2, 152640, Note_off_c, 0, 72, 95
2, 152640, Note_off_c, 0, 66, 95
2, 152640, Note_on_c, 0, 72, 95
2, 152640, Note_on_c, 0, 67, 95
2, 152880, Note_off_c, 0, 72, 95
2, 152880, Note_off_c, 0, 67, 95
2, 152880, Note_on_c, 0, 72, 95
2, 152880, Note_on_c, 0, 67, 95
2, 153120, Note_off_c, 0, 72, 95
2, 153120, Note_off_c, 0, 67, 95
2, 153120, Note_on_c, 0, 72, 95
2, 153120, Note_on_c, 0, 66, 95
2, 153360, Note_off_c, 0, 72, 95
2, 153360, Note_off_c, 0, 66, 95
2, 153360, Note_on_c, 0, 72, 95
2, 153360, Note_on_c, 0, 66, 95
2, 153600, Note_off_c, 0, 72, 95
2, 153600, Note_off_c, 0, 66, 95
2, 153600, Note_on_c, 0, 64, 95
2, 153600, Note_on_c, 0, 67, 95
2, 153840, Note_off_c, 0, 64, 95
2, 153840, Note_off_c, 0, 67, 95
2, 153840, Note_on_c, 0, 64, 95
2, 153840, Note_on_c, 0, 67, 95
2, 154080, Note_off_c, 0, 64, 95
2, 154080, Note_off_c, 0, 67, 95
2, 154080, Note_on_c, 0, 64, 95
2, 154080, Note_on_c, 0, 66, 95
2, 154320, Note_off_c, 0, 64, 95
2, 154320, Note_off_c, 0, 66, 95
2, 154320, Note_on_c, 0, 64, 95
2, 154320, Note_on_c, 0, 66, 95
2, 154560, Note_off_c, 0, 64, 95
2, 154560, Note_off_c, 0, 66, 95
2, 154560, Note_on_c, 0, 64, 95
2, 154560, Note_on_c, 0, 67, 95
2, 154800, Note_off_c, 0, 64, 95
2, 154800, Note_off_c, 0, 67, 95
2, 154800, Note_on_c, 0, 64, 95
2, 154800, Note_on_c, 0, 67, 95
2, 155040, Note_off_c, 0, 64, 95
2, 155040, Note_off_c, 0, 67, 95
2, 155040, Note_on_c, 0, 64, 95
2, 155040, Note_on_c, 0, 66, 95
2, 155280, Note_off_c, 0, 64, 95
2, 155280, Note_off_c, 0, 66, 95
2, 155280, Note_on_c, 0, 64, 95
2, 155280, Note_on_c, 0, 66, 95
2, 155520, Note_off_c, 0, 64, 95
2, 155520, Note_off_c, 0, 66, 95
2, 155520, Note_on_c, 0, 64, 95
2, 155520, Note_on_c, 0, 67, 95
2, 155760, Note_off_c, 0, 64, 95
2, 155760, Note_off_c, 0, 67, 95
2, 155760, Note_on_c, 0, 64, 95
2, 155760, Note_on_c, 0, 67, 95
2, 156000, Note_off_c, 0, 64, 95
2, 156000, Note_off_c, 0, 67, 95
2, 156000, Note_on_c, 0, 64, 95
2, 156000, Note_on_c, 0, 66, 95
2, 156240, Note_off_c, 0, 64, 95
2, 156240, Note_off_c, 0, 66, 95
2, 156240, Note_on_c, 0, 64, 95
2, 156240, Note_on_c, 0, 66, 95
2, 156480, Note_off_c, 0, 64, 95
2, 156480, Note_off_c, 0, 66, 95
2, 156480, Note_on_c, 0, 64, 95
2, 156480, Note_on_c, 0, 67, 95
2, 156720, Note_off_c, 0, 64, 95
2, 156720, Note_off_c, 0, 67, 95
2, 156720, Note_on_c, 0, 64, 95
2, 156720, Note_on_c, 0, 67, 95
2, 156960, Note_off_c, 0, 64, 95
2, 156960, Note_off_c, 0, 67, 95
2, 156960, Note_on_c, 0, 64, 95
2, 156960, Note_on_c, 0, 66, 95
2, 157200, Note_off_c, 0, 64, 95
2, 157200, Note_off_c, 0, 66, 95
2, 157200, Note_on_c, 0, 64, 95
2, 157200, Note_on_c, 0, 66, 95
2, 157440, Note_off_c, 0, 64, 95
2, 157440, Note_off_c, 0, 66, 95
2, 157440, Note_on_c, 0, 64, 95
2, 157440, Note_on_c, 0, 67, 95
2, 157680, Note_off_c, 0, 64, 95
2, 157680, Note_off_c, 0, 67, 95
2, 157680, Note_on_c, 0, 64, 95
2, 157680, Note_on_c, 0, 67, 95
2, 157920, Note_off_c, 0, 64, 95
2, 157920, Note_off_c, 0, 67, 95
2, 157920, Note_on_c, 0, 64, 95
2, 157920, Note_on_c, 0, 66, 95
2, 158160, Note_off_c, 0, 64, 95
2, 158160, Note_off_c, 0, 66, 95
2, 158160, Note_on_c, 0, 64, 95
2, 158160, Note_on_c, 0, 66, 95
2, 158400, Note_off_c, 0, 64, 95
2, 158400, Note_off_c, 0, 66, 95
2, 158400, Note_on_c, 0, 64, 95
2, 158400, Note_on_c, 0, 67, 95
2, 158640, Note_off_c, 0, 64, 95
2, 158640, Note_off_c, 0, 67, 95
2, 158640, Note_on_c, 0, 64, 95
2, 158640, Note_on_c, 0, 67, 95
2, 158880, Note_off_c, 0, 64, 95
2, 158880, Note_off_c, 0, 67, 95
2, 158880, Note_on_c, 0, 64, 95
2, 158880, Note_on_c, 0, 66, 95
2, 159120, Note_off_c, 0, 64, 95
2, 159120, Note_off_c, 0, 66, 95
2, 159120, Note_on_c, 0, 64, 95
2, 159120, Note_on_c, 0, 66, 95
2, 159360, Note_off_c, 0, 64, 95
2, 159360, Note_off_c, 0, 66, 95
2, 159360, Note_on_c, 0, 64, 95
2, 159360, Note_on_c, 0, 67, 95
2, 159600, Note_off_c, 0, 64, 95
2, 159600, Note_off_c, 0, 67, 95
2, 159600, Note_on_c, 0, 64, 95
2, 159600, Note_on_c, 0, 67, 95
2, 159840, Note_off_c, 0, 64, 95
2, 159840, Note_off_c, 0, 67, 95
2, 159840, Note_on_c, 0, 64, 95
2, 159840, Note_on_c, 0, 66, 95
2, 160080, Note_off_c, 0, 64, 95
2, 160080, Note_off_c, 0, 66, 95
2, 160080, Note_on_c, 0, 64, 95
2, 160080, Note_on_c, 0, 66, 95
2, 160320, Note_off_c, 0, 64, 95
2, 160320, Note_off_c, 0, 66, 95
2, 160320, Note_on_c, 0, 64, 95
2, 160320, Note_on_c, 0, 67, 95
2, 160560, Note_off_c, 0, 64, 95
2, 160560, Note_off_c, 0, 67, 95
2, 160560, Note_on_c, 0, 64, 95
2, 160560, Note_on_c, 0, 67, 95
2, 160800, Note_off_c, 0, 64, 95
2, 160800, Note_off_c, 0, 67, 95
2, 160800, Note_on_c, 0, 64, 95
2, 160800, Note_on_c, 0, 66, 95
2, 161040, Note_off_c, 0, 64, 95
2, 161040, Note_off_c, 0, 66, 95
2, 161040, Note_on_c, 0, 64, 95
2, 161040, Note_on_c, 0, 66, 95
2, 161280, Note_off_c, 0, 64, 95
2, 161280, Note_off_c, 0, 66, 95
2, 161280, Note_on_c, 0, 64, 95
2, 161280, Note_on_c, 0, 59, 95
2, 161280, Note_on_c, 0, 62, 95
2, 161520, Note_off_c, 0, 64, 95
2, 161520, Note_off_c, 0, 59, 95
2, 161520, Note_off_c, 0, 62, 95
2, 161520, Note_on_c, 0, 64, 95
2, 161520, Note_on_c, 0, 59, 95
2, 161520, Note_on_c, 0, 62, 95
2, 161760, Note_off_c, 0, 64, 95
2, 161760, Note_off_c, 0, 59, 95
2, 161760, Note_off_c, 0, 62, 95
2, 161760, Note_on_c, 0, 64, 95
2, 162000, Note_off_c, 0, 64, 95
2, 162000, Note_on_c, 0, 64, 95
2, 162240, Note_off_c, 0, 64, 95
2, 162240, Note_on_c, 0, 64, 95
2, 162240, Note_on_c, 0, 62, 95
2, 162240, Note_on_c, 0, 59, 95
2, 162480, Note_off_c, 0, 64, 95
2, 162480, Note_off_c, 0, 62, 95
2, 162480, Note_off_c, 0, 59, 95
2, 162480, Note_on_c, 0, 64, 95
2, 162480, Note_on_c, 0, 62, 95
2, 162480, Note_on_c, 0, 59, 95
2, 162720, Note_off_c, 0, 64, 95
2, 162720, Note_off_c, 0, 62, 95
2, 162720, Note_off_c, 0, 59, 95
2, 162720, Note_on_c, 0, 64, 95
2, 162960, Note_off_c, 0, 64, 95
2, 162960, Note_on_c, 0, 64, 95
2, 163200, Note_off_c, 0, 64, 95
2, 163200, Note_on_c, 0, 64, 95
2, 163200, Note_on_c, 0, 62, 95
2, 163200, Note_on_c, 0, 59, 95
2, 163440, Note_off_c, 0, 64, 95
2, 163440, Note_off_c, 0, 62, 95
2, 163440, Note_off_c, 0, 59, 95
2, 163440, Note_on_c, 0, 64, 95
2, 163440, Note_on_c, 0, 62, 95
2, 163440, Note_on_c, 0, 59, 95
2, 163680, Note_off_c, 0, 64, 95
2, 163680, Note_off_c, 0, 62, 95
2, 163680, Note_off_c, 0, 59, 95
2, 163680, Note_on_c, 0, 64, 95
2, 163920, Note_off_c, 0, 64, 95
2, 163920, Note_on_c, 0, 64, 95
2, 164160, Note_off_c, 0, 64, 95
2, 164160, Note_on_c, 0, 64, 95
2, 164160, Note_on_c, 0, 62, 95
2, 164160, Note_on_c, 0, 59, 95
2, 164400, Note_off_c, 0, 64, 95
2, 164400, Note_off_c, 0, 62, 95
2, 164400, Note_off_c, 0, 59, 95
2, 164400, Note_on_c, 0, 64, 95
2, 164400, Note_on_c, 0, 62, 95
2, 164400, Note_on_c, 0, 59, 95
2, 164640, Note_off_c, 0, 64, 95
2, 164640, Note_off_c, 0, 62, 95
2, 164640, Note_off_c, 0, 59, 95
2, 164640, Note_on_c, 0, 64, 95
2, 164880, Note_off_c, 0, 64, 95
2, 164880, Note_on_c, 0, 64, 95
2, 165120, Note_off_c, 0, 64, 95
2, 165120, Note_on_c, 0, 64, 95
2, 165120, Note_on_c, 0, 62, 95
2, 165120, Note_on_c, 0, 59, 95
2, 165360, Note_off_c, 0, 64, 95
2, 165360, Note_off_c, 0, 62, 95
2, 165360, Note_off_c, 0, 59, 95
2, 165360, Note_on_c, 0, 64, 95
2, 165360, Note_on_c, 0, 62, 95
2, 165360, Note_on_c, 0, 59, 95
2, 165600, Note_off_c, 0, 64, 95
2, 165600, Note_off_c, 0, 62, 95
2, 165600, Note_off_c, 0, 59, 95
2, 165600, Note_on_c, 0, 64, 95
2, 165840, Note_off_c, 0, 64, 95
2, 165840, Note_on_c, 0, 64, 95
2, 166080, Note_off_c, 0, 64, 95
2, 166080, Note_on_c, 0, 64, 95
2, 166080, Note_on_c, 0, 62, 95
2, 166080, Note_on_c, 0, 59, 95
2, 166320, Note_off_c, 0, 64, 95
2, 166320, Note_off_c, 0, 62, 95
2, 166320, Note_off_c, 0, 59, 95
2, 166320, Note_on_c, 0, 64, 95
2, 166320, Note_on_c, 0, 62, 95
2, 166320, Note_on_c, 0, 59, 95
2, 166560, Note_off_c, 0, 64, 95
2, 166560, Note_off_c, 0, 62, 95
2, 166560, Note_off_c, 0, 59, 95
2, 166560, Note_on_c, 0, 64, 95
2, 166800, Note_off_c, 0, 64, 95
2, 166800, Note_on_c, 0, 64, 95
2, 167040, Note_off_c, 0, 64, 95
2, 167040, Note_on_c, 0, 64, 95
2, 167040, Note_on_c, 0, 62, 95
2, 167040, Note_on_c, 0, 59, 95
2, 167280, Note_off_c, 0, 64, 95
2, 167280, Note_off_c, 0, 62, 95
2, 167280, Note_off_c, 0, 59, 95
2, 167280, Note_on_c, 0, 64, 95
2, 167280, Note_on_c, 0, 62, 95
2, 167280, Note_on_c, 0, 59, 95
2, 167520, Note_off_c, 0, 64, 95
2, 167520, Note_off_c, 0, 62, 95
2, 167520, Note_off_c, 0, 59, 95
2, 167520, Note_on_c, 0, 64, 95
2, 167760, Note_off_c, 0, 64, 95
2, 167760, Note_on_c, 0, 64, 95
2, 168000, Note_off_c, 0, 64, 95
2, 168000, Note_on_c, 0, 64, 95
2, 168000, Note_on_c, 0, 62, 95
2, 168000, Note_on_c, 0, 59, 95
2, 168240, Note_off_c, 0, 64, 95
2, 168240, Note_off_c, 0, 62, 95
2, 168240, Note_off_c, 0, 59, 95
2, 168240, Note_on_c, 0, 64, 95
2, 168240, Note_on_c, 0, 62, 95
2, 168240, Note_on_c, 0, 59, 95
2, 168480, Note_off_c, 0, 64, 95
2, 168480, Note_off_c, 0, 62, 95
2, 168480, Note_off_c, 0, 59, 95
2, 168480, Note_on_c, 0, 64, 95
2, 168720, Note_off_c, 0, 64, 95
2, 168720, Note_on_c, 0, 64, 95
2, 168960, Note_off_c, 0, 64, 95
2, 168960, Note_on_c, 0, 67, 95
2, 168960, Note_on_c, 0, 62, 95
2, 169200, Note_off_c, 0, 67, 95
2, 169200, Note_off_c, 0, 62, 95
2, 169200, Note_on_c, 0, 67, 95
2, 169200, Note_on_c, 0, 62, 95
2, 169440, Note_off_c, 0, 67, 95
2, 169440, Note_off_c, 0, 62, 95
2, 169440, Note_on_c, 0, 66, 95
2, 169440, Note_on_c, 0, 62, 95
2, 169680, Note_off_c, 0, 66, 95
2, 169680, Note_off_c, 0, 62, 95
2, 169680, Note_on_c, 0, 58, 95
2, 169920, Note_off_c, 0, 58, 95
2, 169920, Note_on_c, 0, 67, 95
2, 169920, Note_on_c, 0, 62, 95
2, 170160, Note_off_c, 0, 67, 95
2, 170160, Note_off_c, 0, 62, 95
2, 170160, Note_on_c, 0, 67, 95
2, 170160, Note_on_c, 0, 62, 95
2, 170400, Note_off_c, 0, 67, 95
2, 170400, Note_off_c, 0, 62, 95
2, 170400, Note_on_c, 0, 66, 95
2, 170400, Note_on_c, 0, 62, 95
2, 170640, Note_off_c, 0, 66, 95
2, 170640, Note_off_c, 0, 62, 95
2, 170640, Note_on_c, 0, 58, 95
2, 170880, Note_off_c, 0, 58, 95
2, 170880, Note_on_c, 0, 67, 95
2, 170880, Note_on_c, 0, 62, 95
2, 171120, Note_off_c, 0, 67, 95
2, 171120, Note_off_c, 0, 62, 95
2, 171120, Note_on_c, 0, 67, 95
2, 171120, Note_on_c, 0, 62, 95
2, 171360, Note_off_c, 0, 67, 95
2, 171360, Note_off_c, 0, 62, 95
2, 171360, Note_on_c, 0, 66, 95
2, 171360, Note_on_c, 0, 62, 95
2, 171600, Note_off_c, 0, 66, 95
2, 171600, Note_off_c, 0, 62, 95
2, 171600, Note_on_c, 0, 58, 95
2, 171840, Note_off_c, 0, 58, 95
2, 171840, Note_on_c, 0, 67, 95
2, 171840, Note_on_c, 0, 62, 95
2, 172080, Note_off_c, 0, 67, 95
2, 172080, Note_off_c, 0, 62, 95
2, 172080, Note_on_c, 0, 67, 95
2, 172080, Note_on_c, 0, 62, 95
2, 172320, Note_off_c, 0, 67, 95
2, 172320, Note_off_c, 0, 62, 95
2, 172320, Note_on_c, 0, 66, 95
2, 172320, Note_on_c, 0, 62, 95
2, 172560, Note_off_c, 0, 66, 95
2, 172560, Note_off_c, 0, 62, 95
2, 172560, Note_on_c, 0, 58, 95
2, 172800, Note_off_c, 0, 58, 95
2, 172800, Note_on_c, 0, 67, 95
2, 172800, Note_on_c, 0, 62, 95
2, 173040, Note_off_c, 0, 67, 95
2, 173040, Note_off_c, 0, 62, 95
2, 173040, Note_on_c, 0, 67, 95
2, 173040, Note_on_c, 0, 62, 95
2, 173280, Note_off_c, 0, 67, 95
2, 173280, Note_off_c, 0, 62, 95
2, 173280, Note_on_c, 0, 66, 95
2, 173280, Note_on_c, 0, 62, 95
2, 173520, Note_off_c, 0, 66, 95
2, 173520, Note_off_c, 0, 62, 95
2, 173520, Note_on_c, 0, 58, 95
2, 173760, Note_off_c, 0, 58, 95
2, 173760, Note_on_c, 0, 67, 95
2, 173760, Note_on_c, 0, 62, 95
2, 174000, Note_off_c, 0, 67, 95
2, 174000, Note_off_c, 0, 62, 95
2, 174000, Note_on_c, 0, 67, 95
2, 174000, Note_on_c, 0, 62, 95
2, 174240, Note_off_c, 0, 67, 95
2, 174240, Note_off_c, 0, 62, 95
2, 174240, Note_on_c, 0, 66, 95
2, 174240, Note_on_c, 0, 62, 95
2, 174480, Note_off_c, 0, 66, 95
2, 174480, Note_off_c, 0, 62, 95
2, 174480, Note_on_c, 0, 58, 95
2, 174720, Note_off_c, 0, 58, 95
2, 174720, Note_on_c, 0, 67, 95
2, 174720, Note_on_c, 0, 62, 95
2, 174960, Note_off_c, 0, 67, 95
2, 174960, Note_off_c, 0, 62, 95
2, 174960, Note_on_c, 0, 67, 95
2, 174960, Note_on_c, 0, 62, 95
2, 175200, Note_off_c, 0, 67, 95
2, 175200, Note_off_c, 0, 62, 95
2, 175200, Note_on_c, 0, 66, 95
2, 175200, Note_on_c, 0, 62, 95
2, 175440, Note_off_c, 0, 66, 95
2, 175440, Note_off_c, 0, 62, 95
2, 175440, Note_on_c, 0, 58, 95
2, 175680, Note_off_c, 0, 58, 95
2, 175680, Note_on_c, 0, 67, 95
2, 175680, Note_on_c, 0, 62, 95
2, 175920, Note_off_c, 0, 67, 95
2, 175920, Note_off_c, 0, 62, 95
2, 175920, Note_on_c, 0, 67, 95
2, 175920, Note_on_c, 0, 62, 95
2, 176160, Note_off_c, 0, 67, 95
2, 176160, Note_off_c, 0, 62, 95
2, 176160, Note_on_c, 0, 66, 95
2, 176160, Note_on_c, 0, 62, 95
2, 176400, Note_off_c, 0, 66, 95
2, 176400, Note_off_c, 0, 62, 95
2, 176400, Note_on_c, 0, 58, 95
2, 176640, Note_off_c, 0, 58, 95
2, 176640, Note_on_c, 0, 64, 95
2, 176640, Note_on_c, 0, 62, 95
2, 176880, Note_off_c, 0, 64, 95
2, 176880, Note_off_c, 0, 62, 95
2, 176880, Note_on_c, 0, 64, 95
2, 176880, Note_on_c, 0, 62, 95
2, 177120, Note_off_c, 0, 64, 95
2, 177120, Note_off_c, 0, 62, 95
2, 177120, Note_on_c, 0, 57, 95
2, 177360, Note_off_c, 0, 57, 95
2, 177360, Note_on_c, 0, 57, 95
2, 177600, Note_off_c, 0, 57, 95
2, 177600, Note_on_c, 0, 64, 95
2, 177600, Note_on_c, 0, 62, 95
2, 177840, Note_off_c, 0, 64, 95
2, 177840, Note_off_c, 0, 62, 95
2, 177840, Note_on_c, 0, 64, 95
2, 177840, Note_on_c, 0, 62, 95
2, 178080, Note_off_c, 0, 64, 95
2, 178080, Note_off_c, 0, 62, 95
2, 178080, Note_on_c, 0, 57, 95
2, 178320, Note_off_c, 0, 57, 95
2, 178320, Note_on_c, 0, 57, 95
2, 178560, Note_off_c, 0, 57, 95
2, 178560, Note_on_c, 0, 64, 95
2, 178560, Note_on_c, 0, 62, 95
2, 178800, Note_off_c, 0, 64, 95
2, 178800, Note_off_c, 0, 62, 95
2, 178800, Note_on_c, 0, 64, 95
2, 178800, Note_on_c, 0, 62, 95
2, 179040, Note_off_c, 0, 64, 95
2, 179040, Note_off_c, 0, 62, 95
2, 179040, Note_on_c, 0, 57, 95
2, 179280, Note_off_c, 0, 57, 95
2, 179280, Note_on_c, 0, 57, 95
2, 179520, Note_off_c, 0, 57, 95
2, 179520, Note_on_c, 0, 64, 95
2, 179520, Note_on_c, 0, 62, 95
2, 179760, Note_off_c, 0, 64, 95
2, 179760, Note_off_c, 0, 62, 95
2, 179760, Note_on_c, 0, 64, 95
2, 179760, Note_on_c, 0, 62, 95
2, 180000, Note_off_c, 0, 64, 95
2, 180000, Note_off_c, 0, 62, 95
2, 180000, Note_on_c, 0, 57, 95
2, 180240, Note_off_c, 0, 57, 95
2, 180240, Note_on_c, 0, 57, 95
2, 180480, Note_off_c, 0, 57, 95
2, 180480, Note_on_c, 0, 66, 95
2, 180480, Note_on_c, 0, 62, 95
2, 180480, Note_on_c, 0, 59, 95
2, 184320, Note_off_c, 0, 66, 95
2, 184320, Note_off_c, 0, 62, 95
2, 184320, Note_off_c, 0, 59, 95
2, 184320, Note_on_c, 0, 67, 95
2, 184320, Note_on_c, 0, 64, 95
2, 184320, Note_on_c, 0, 60, 95
2, 188160, Note_off_c, 0, 67, 95
2, 188160, Note_off_c, 0, 64, 95
2, 188160, Note_off_c, 0, 60, 95
2, 188160, Note_on_c, 0, 69, 95
2, 188160, Note_on_c, 0, 66, 95
2, 188160, Note_on_c, 0, 62, 95
2, 192000, Note_off_c, 0, 69, 95
2, 192000, Note_off_c, 0, 66, 95
2, 192000, Note_off_c, 0, 62, 95
2, 192000, Note_on_c, 0, 71, 95
2, 192000, Note_on_c, 0, 67, 95
2, 192000, Note_on_c, 0, 64, 95
2, 195840, Note_off_c, 0, 71, 95
2, 195840, Note_off_c, 0, 67, 95
2, 195840, Note_off_c, 0, 64, 95
2, 195840, Note_on_c, 0, 71, 95
2, 195840, Note_on_c, 0, 67, 95
2, 195840, Note_on_c, 0, 64, 95
2, 199680, Note_off_c, 0, 71, 95
2, 199680, Note_off_c, 0, 67, 95
2, 199680, Note_off_c, 0, 64, 95
2, 199680, End_track
3, 0, Start_track
3, 0, Pitch_bend_c, 1, 8192
3, 0, Control_c, 1, 7, 63
3, 0, Control_c, 1, 10, 111
3, 0, Control_c, 1, 93, 0
3, 0, Control_c, 1, 91, 0
3, 0, Control_c, 1, 95, 0
3, 0, Control_c, 1, 92, 0
3, 0, Control_c, 1, 11, 127
3, 0, Program_c, 1, 48
3, 0, Note_on_c, 1, 71, 95
3, 0, Note_on_c, 1, 67, 95
3, 0, Note_on_c, 1, 64, 95
3, 3840, Note_off_c, 1, 71, 95
3, 3840, Note_off_c, 1, 67, 95
3, 3840, Note_off_c, 1, 64, 95
3, 3840, Note_on_c, 1, 71, 95
3, 3840, Note_on_c, 1, 67, 95
3, 3840, Note_on_c, 1, 64, 95
3, 7680, Note_off_c, 1, 71, 95
3, 7680, Note_off_c, 1, 67, 95
3, 7680, Note_off_c, 1, 64, 95
3, 7680, Note_on_c, 1, 71, 95
3, 7680, Note_on_c, 1, 67, 95
3, 7680, Note_on_c, 1, 64, 95
3, 11520, Note_off_c, 1, 71, 95
3, 11520, Note_off_c, 1, 67, 95
3, 11520, Note_off_c, 1, 64, 95
3, 11520, Note_on_c, 1, 71, 95
3, 11520, Note_on_c, 1, 67, 95
3, 11520, Note_on_c, 1, 64, 95
3, 15360, Note_off_c, 1, 71, 95
3, 15360, Note_off_c, 1, 67, 95
3, 15360, Note_off_c, 1, 64, 95
3, 15360, Note_on_c, 1, 74, 95
3, 15360, Note_on_c, 1, 70, 95
3, 15360, Note_on_c, 1, 67, 95
3, 19200, Note_off_c, 1, 74, 95
3, 19200, Note_off_c, 1, 70, 95
3, 19200, Note_off_c, 1, 67, 95
3, 19200, Note_on_c, 1, 74, 95
3, 19200, Note_on_c, 1, 70, 95
3, 19200, Note_on_c, 1, 67, 95
3, 23040, Note_off_c, 1, 74, 95
3, 23040, Note_off_c, 1, 70, 95
3, 23040, Note_off_c, 1, 67, 95
3, 23040, Note_on_c, 1, 76, 95
3, 23040, Note_on_c, 1, 73, 95
3, 23040, Note_on_c, 1, 69, 95
3, 23040, Note_on_c, 1, 67, 95
3, 26880, Note_off_c, 1, 76, 95
3, 26880, Note_off_c, 1, 73, 95
3, 26880, Note_off_c, 1, 69, 95
3, 26880, Note_off_c, 1, 67, 95
3, 26880, Note_on_c, 1, 76, 95
3, 26880, Note_on_c, 1, 73, 95
3, 26880, Note_on_c, 1, 69, 95
3, 26880, Note_on_c, 1, 67, 95
3, 28800, Note_off_c, 1, 76, 95
3, 28800, Note_off_c, 1, 73, 95
3, 28800, Note_off_c, 1, 69, 95
3, 28800, Note_off_c, 1, 67, 95
3, 28800, Note_on_c, 1, 74, 95
3, 28800, Note_on_c, 1, 71, 95
3, 28800, Note_on_c, 1, 69, 95
3, 28800, Note_on_c, 1, 66, 95
3, 30720, Note_off_c, 1, 74, 95
3, 30720, Note_off_c, 1, 71, 95
3, 30720, Note_off_c, 1, 69, 95
3, 30720, Note_off_c, 1, 66, 95
3, 30720, Note_on_c, 1, 64, 95
3, 30720, Note_on_c, 1, 71, 95
3, 30720, Note_on_c, 1, 67, 95
3, 34560, Note_off_c, 1, 64, 95
3, 34560, Note_off_c, 1, 71, 95
3, 34560, Note_off_c, 1, 67, 95
3, 34560, Note_on_c, 1, 64, 95
3, 34560, Note_on_c, 1, 71, 95
3, 34560, Note_on_c, 1, 67, 95
3, 38400, Note_off_c, 1, 64, 95
3, 38400, Note_off_c, 1, 71, 95
3, 38400, Note_off_c, 1, 67, 95
3, 38400, Note_on_c, 1, 64, 95
3, 38400, Note_on_c, 1, 71, 95
3, 38400, Note_on_c, 1, 67, 95
3, 38400, Note_on_c, 1, 62, 95
3, 42240, Note_off_c, 1, 64, 95
3, 42240, Note_off_c, 1, 71, 95
3, 42240, Note_off_c, 1, 67, 95
3, 42240, Note_off_c, 1, 62, 95
3, 42240, Note_on_c, 1, 64, 95
3, 42240, Note_on_c, 1, 71, 95
3, 42240, Note_on_c, 1, 67, 95
3, 42240, Note_on_c, 1, 62, 95
3, 46080, Note_off_c, 1, 64, 95
3, 46080, Note_off_c, 1, 71, 95
3, 46080, Note_off_c, 1, 67, 95
3, 46080, Note_off_c, 1, 62, 95
3, 46080, Note_on_c, 1, 64, 95
3, 46080, Note_on_c, 1, 72, 95
3, 46080, Note_on_c, 1, 69, 95
3, 46080, Note_on_c, 1, 67, 95
3, 49920, Note_off_c, 1, 64, 95
3, 49920, Note_off_c, 1, 72, 95
3, 49920, Note_off_c, 1, 69, 95
3, 49920, Note_off_c, 1, 67, 95
3, 49920, Note_on_c, 1, 64, 95
3, 49920, Note_on_c, 1, 72, 95
3, 49920, Note_on_c, 1, 69, 95
3, 49920, Note_on_c, 1, 67, 95
3, 53760, Note_off_c, 1, 64, 95
3, 53760, Note_off_c, 1, 72, 95
3, 53760, Note_off_c, 1, 69, 95
3, 53760, Note_off_c, 1, 67, 95
3, 53760, Note_on_c, 1, 64, 95
3, 53760, Note_on_c, 1, 71, 95
3, 53760, Note_on_c, 1, 69, 95
3, 53760, Note_on_c, 1, 66, 95
3, 57600, Note_off_c, 1, 64, 95
3, 57600, Note_off_c, 1, 71, 95
3, 57600, Note_off_c, 1, 69, 95
3, 57600, Note_off_c, 1, 66, 95
3, 57600, Note_on_c, 1, 64, 95
3, 57600, Note_on_c, 1, 71, 95
3, 57600, Note_on_c, 1, 69, 95
3, 57600, Note_on_c, 1, 66, 95
3, 61440, Note_off_c, 1, 64, 95
3, 61440, Note_off_c, 1, 71, 95
3, 61440, Note_off_c, 1, 69, 95
3, 61440, Note_off_c, 1, 66, 95
3, 61440, Note_on_c, 1, 64, 95
3, 61440, Note_on_c, 1, 71, 95
3, 61440, Note_on_c, 1, 67, 95
3, 61440, Note_on_c, 1, 62, 95
3, 65280, Note_off_c, 1, 64, 95
3, 65280, Note_off_c, 1, 71, 95
3, 65280, Note_off_c, 1, 67, 95
3, 65280, Note_off_c, 1, 62, 95
3, 65280, Note_on_c, 1, 64, 95
3, 65280, Note_on_c, 1, 71, 95
3, 65280, Note_on_c, 1, 67, 95
3, 69120, Note_off_c, 1, 64, 95
3, 69120, Note_off_c, 1, 71, 95
3, 69120, Note_off_c, 1, 67, 95
3, 69120, Note_on_c, 1, 64, 95
3, 69120, Note_on_c, 1, 72, 95
3, 69120, Note_on_c, 1, 70, 95
3, 69120, Note_on_c, 1, 67, 95
3, 72960, Note_off_c, 1, 64, 95
3, 72960, Note_off_c, 1, 72, 95
3, 72960, Note_off_c, 1, 70, 95
3, 72960, Note_off_c, 1, 67, 95
3, 72960, Note_on_c, 1, 64, 95
3, 72960, Note_on_c, 1, 72, 95
3, 72960, Note_on_c, 1, 70, 95
3, 72960, Note_on_c, 1, 67, 95
3, 76800, Note_off_c, 1, 64, 95
3, 76800, Note_off_c, 1, 72, 95
3, 76800, Note_off_c, 1, 70, 95
3, 76800, Note_off_c, 1, 67, 95
3, 76800, Note_on_c, 1, 64, 95
3, 76800, Note_on_c, 1, 71, 95
3, 76800, Note_on_c, 1, 67, 95
3, 80640, Note_off_c, 1, 64, 95
3, 80640, Note_off_c, 1, 71, 95
3, 80640, Note_off_c, 1, 67, 95
3, 80640, Note_on_c, 1, 64, 95
3, 80640, Note_on_c, 1, 71, 95
3, 80640, Note_on_c, 1, 67, 95
3, 84480, Note_off_c, 1, 64, 95
3, 84480, Note_off_c, 1, 71, 95
3, 84480, Note_off_c, 1, 67, 95
3, 84480, Note_on_c, 1, 64, 95
3, 84480, Note_on_c, 1, 72, 95
3, 84480, Note_on_c, 1, 70, 95
3, 84480, Note_on_c, 1, 67, 95
3, 88320, Note_off_c, 1, 64, 95
3, 88320, Note_off_c, 1, 72, 95
3, 88320, Note_off_c, 1, 70, 95
3, 88320, Note_off_c, 1, 67, 95
3, 88320, Note_on_c, 1, 64, 95
3, 88320, Note_on_c, 1, 72, 95
3, 88320, Note_on_c, 1, 70, 95
3, 88320, Note_on_c, 1, 67, 95
3, 92160, Note_off_c, 1, 64, 95
3, 92160, Note_off_c, 1, 72, 95
3, 92160, Note_off_c, 1, 70, 95
3, 92160, Note_off_c, 1, 67, 95
3, 92160, Note_on_c, 1, 64, 95
3, 92160, Note_on_c, 1, 71, 95
3, 92160, Note_on_c, 1, 67, 95
3, 96000, Note_off_c, 1, 64, 95
3, 96000, Note_off_c, 1, 71, 95
3, 96000, Note_off_c, 1, 67, 95
3, 96000, Note_on_c, 1, 64, 95
3, 96000, Note_on_c, 1, 71, 95
3, 96000, Note_on_c, 1, 67, 95
3, 99840, Note_off_c, 1, 64, 95
3, 99840, Note_off_c, 1, 71, 95
3, 99840, Note_off_c, 1, 67, 95
3, 99840, Note_on_c, 1, 70, 95
3, 99840, Note_on_c, 1, 67, 95
3, 99840, Note_on_c, 1, 62, 95
3, 103680, Note_off_c, 1, 70, 95
3, 103680, Note_off_c, 1, 67, 95
3, 103680, Note_off_c, 1, 62, 95
3, 103680, Note_on_c, 1, 70, 95
3, 103680, Note_on_c, 1, 67, 95
3, 103680, Note_on_c, 1, 62, 95
3, 107520, Note_off_c, 1, 70, 95
3, 107520, Note_off_c, 1, 67, 95
3, 107520, Note_off_c, 1, 62, 95
3, 107520, Note_on_c, 1, 64, 95
3, 107520, Note_on_c, 1, 69, 95
3, 107520, Note_on_c, 1, 62, 95
3, 111360, Note_off_c, 1, 64, 95
3, 111360, Note_off_c, 1, 69, 95
3, 111360, Note_off_c, 1, 62, 95
3, 111360, Note_on_c, 1, 64, 95
3, 111360, Note_on_c, 1, 69, 95
3, 111360, Note_on_c, 1, 62, 95
3, 113280, Note_off_c, 1, 64, 95
3, 113280, Note_off_c, 1, 69, 95
3, 113280, Note_off_c, 1, 62, 95
3, 113280, Note_on_c, 1, 71, 95
3, 113280, Note_on_c, 1, 66, 95
3, 115200, Note_off_c, 1, 71, 95
3, 115200, Note_off_c, 1, 66, 95
3, 115200, Note_on_c, 1, 64, 95
3, 115200, Note_on_c, 1, 71, 95
3, 115200, Note_on_c, 1, 67, 95
3, 119040, Note_off_c, 1, 64, 95
3, 119040, Note_off_c, 1, 71, 95
3, 119040, Note_off_c, 1, 67, 95
3, 119040, Note_on_c, 1, 64, 95
3, 119040, Note_on_c, 1, 71, 95
3, 119040, Note_on_c, 1, 67, 95
3, 122880, Note_off_c, 1, 64, 95
3, 122880, Note_off_c, 1, 71, 95
3, 122880, Note_off_c, 1, 67, 95
3, 122880, Note_on_c, 1, 64, 95
3, 122880, Note_on_c, 1, 71, 95
3, 122880, Note_on_c, 1, 67, 95
3, 122880, Note_on_c, 1, 62, 95
3, 126720, Note_off_c, 1, 64, 95
3, 126720, Note_off_c, 1, 71, 95
3, 126720, Note_off_c, 1, 67, 95
3, 126720, Note_off_c, 1, 62, 95
3, 126720, Note_on_c, 1, 64, 95
3, 126720, Note_on_c, 1, 71, 95
3, 126720, Note_on_c, 1, 67, 95
3, 126720, Note_on_c, 1, 62, 95
3, 130560, Note_off_c, 1, 64, 95
3, 130560, Note_off_c, 1, 71, 95
3, 130560, Note_off_c, 1, 67, 95
3, 130560, Note_off_c, 1, 62, 95
3, 130560, Note_on_c, 1, 64, 95
3, 130560, Note_on_c, 1, 72, 95
3, 130560, Note_on_c, 1, 70, 95
3, 130560, Note_on_c, 1, 67, 95
3, 134400, Note_off_c, 1, 64, 95
3, 134400, Note_off_c, 1, 72, 95
3, 134400, Note_off_c, 1, 70, 95
3, 134400, Note_off_c, 1, 67, 95
3, 134400, Note_on_c, 1, 64, 95
3, 134400, Note_on_c, 1, 72, 95
3, 134400, Note_on_c, 1, 70, 95
3, 134400, Note_on_c, 1, 67, 95
3, 138240, Note_off_c, 1, 64, 95
3, 138240, Note_off_c, 1, 72, 95
3, 138240, Note_off_c, 1, 70, 95
3, 138240, Note_off_c, 1, 67, 95
3, 138240, Note_on_c, 1, 64, 95
3, 138240, Note_on_c, 1, 71, 95
3, 138240, Note_on_c, 1, 67, 95
3, 142080, Note_off_c, 1, 64, 95
3, 142080, Note_off_c, 1, 71, 95
3, 142080, Note_off_c, 1, 67, 95
3, 142080, Note_on_c, 1, 64, 95
3, 142080, Note_on_c, 1, 71, 95
3, 142080, Note_on_c, 1, 67, 95
3, 145920, Note_off_c, 1, 64, 95
3, 145920, Note_off_c, 1, 71, 95
3, 145920, Note_off_c, 1, 67, 95
3, 145920, Note_on_c, 1, 86, 95
3, 145920, Note_on_c, 1, 72, 95
3, 145920, Note_on_c, 1, 67, 95
3, 145920, Note_on_c, 1, 64, 95
3, 149760, Note_off_c, 1, 86, 95
3, 149760, Note_off_c, 1, 72, 95
3, 149760, Note_off_c, 1, 67, 95
3, 149760, Note_off_c, 1, 64, 95
3, 149760, Note_on_c, 1, 86, 95
3, 149760, Note_on_c, 1, 72, 95
3, 149760, Note_on_c, 1, 67, 95
3, 149760, Note_on_c, 1, 64, 95
3, 153600, Note_off_c, 1, 86, 95
3, 153600, Note_off_c, 1, 72, 95
3, 153600, Note_off_c, 1, 67, 95
3, 153600, Note_off_c, 1, 64, 95
3, 153600, Note_on_c, 1, 64, 95
3, 153600, Note_on_c, 1, 71, 95
3, 153600, Note_on_c, 1, 67, 95
3, 157440, Note_off_c, 1, 64, 95
3, 157440, Note_off_c, 1, 71, 95
3, 157440, Note_off_c, 1, 67, 95
3, 157440, Note_on_c, 1, 64, 95
3, 157440, Note_on_c, 1, 71, 95
3, 157440, Note_on_c, 1, 67, 95
3, 161280, Note_off_c, 1, 64, 95
3, 161280, Note_off_c, 1, 71, 95
3, 161280, Note_off_c, 1, 67, 95
3, 161280, Note_on_c, 1, 64, 95
3, 161280, Note_on_c, 1, 74, 95
3, 161280, Note_on_c, 1, 71, 95
3, 161280, Note_on_c, 1, 67, 95
3, 165120, Note_off_c, 1, 64, 95
3, 165120, Note_off_c, 1, 74, 95
3, 165120, Note_off_c, 1, 71, 95
3, 165120, Note_off_c, 1, 67, 95
3, 165120, Note_on_c, 1, 64, 95
3, 165120, Note_on_c, 1, 71, 95
3, 165120, Note_on_c, 1, 67, 95
3, 165120, Note_on_c, 1, 62, 95
3, 168960, Note_off_c, 1, 64, 95
3, 168960, Note_off_c, 1, 71, 95
3, 168960, Note_off_c, 1, 67, 95
3, 168960, Note_off_c, 1, 62, 95
3, 168960, Note_on_c, 1, 74, 95
3, 168960, Note_on_c, 1, 70, 95
3, 168960, Note_on_c, 1, 67, 95
3, 172800, Note_off_c, 1, 74, 95
3, 172800, Note_off_c, 1, 70, 95
3, 172800, Note_off_c, 1, 67, 95
3, 172800, Note_on_c, 1, 74, 95
3, 172800, Note_on_c, 1, 70, 95
3, 172800, Note_on_c, 1, 67, 95
3, 176640, Note_off_c, 1, 74, 95
3, 176640, Note_off_c, 1, 70, 95
3, 176640, Note_off_c, 1, 67, 95
3, 176640, Note_on_c, 1, 76, 95
3, 176640, Note_on_c, 1, 74, 95
3, 176640, Note_on_c, 1, 69, 95
3, 180480, Note_off_c, 1, 76, 95
3, 180480, Note_off_c, 1, 74, 95
3, 180480, Note_off_c, 1, 69, 95
3, 180480, Note_on_c, 1, 74, 95
3, 180480, Note_on_c, 1, 71, 95
3, 180480, Note_on_c, 1, 66, 95
3, 184320, Note_off_c, 1, 74, 95
3, 184320, Note_off_c, 1, 71, 95
3, 184320, Note_off_c, 1, 66, 95
3, 184320, Note_on_c, 1, 84, 95
3, 184320, Note_on_c, 1, 71, 95
3, 184320, Note_on_c, 1, 67, 95
3, 184320, Note_on_c, 1, 64, 95
3, 188160, Note_off_c, 1, 84, 95
3, 188160, Note_off_c, 1, 71, 95
3, 188160, Note_off_c, 1, 67, 95
3, 188160, Note_off_c, 1, 64, 95
3, 188160, Note_on_c, 1, 86, 95
3, 188160, Note_on_c, 1, 71, 95
3, 188160, Note_on_c, 1, 67, 95
3, 188160, Note_on_c, 1, 64, 95
3, 192000, Note_off_c, 1, 86, 95
3, 192000, Note_off_c, 1, 71, 95
3, 192000, Note_off_c, 1, 67, 95
3, 192000, Note_off_c, 1, 64, 95
3, 192000, Note_on_c, 1, 88, 95
3, 192000, Note_on_c, 1, 71, 95
3, 192000, Note_on_c, 1, 67, 95
3, 192000, Note_on_c, 1, 64, 95
3, 195840, Note_off_c, 1, 88, 95
3, 195840, Note_off_c, 1, 71, 95
3, 195840, Note_off_c, 1, 67, 95
3, 195840, Note_off_c, 1, 64, 95
3, 195840, Note_on_c, 1, 88, 95
3, 195840, Note_on_c, 1, 71, 95
3, 195840, Note_on_c, 1, 67, 95
3, 195840, Note_on_c, 1, 64, 95
3, 199680, Note_off_c, 1, 88, 95
3, 199680, Note_off_c, 1, 71, 95
3, 199680, Note_off_c, 1, 67, 95
3, 199680, Note_off_c, 1, 64, 95
3, 199680, End_track
4, 0, Start_track
4, 0, Pitch_bend_c, 4, 8192
4, 0, Control_c, 4, 7, 127
4, 0, Control_c, 4, 10, 63
4, 0, Control_c, 4, 93, 0
4, 0, Control_c, 4, 91, 47
4, 0, Control_c, 4, 95, 0
4, 0, Control_c, 4, 92, 0
4, 0, Control_c, 4, 11, 127
4, 0, Program_c, 4, 30
4, 5520, Note_on_c, 4, 59, 95
4, 5760, Note_off_c, 4, 59, 95
4, 5760, Pitch_bend_c, 4, 8192
4, 5760, Note_on_c, 4, 69, 95
4, 5781, Pitch_bend_c, 4, 8320
4, 5802, Pitch_bend_c, 4, 8448
4, 5823, Pitch_bend_c, 4, 8576
4, 5844, Pitch_bend_c, 4, 8704
4, 5865, Pitch_bend_c, 4, 8832
4, 5886, Pitch_bend_c, 4, 8960
4, 5907, Pitch_bend_c, 4, 9088
4, 5928, Pitch_bend_c, 4, 9216
4, 5949, Pitch_bend_c, 4, 9344
4, 5970, Pitch_bend_c, 4, 9472
4, 5991, Pitch_bend_c, 4, 9600
4, 6000, Pitch_bend_c, 4, 9600
4, 6240, Pitch_bend_c, 4, 9600
4, 6240, Pitch_bend_c, 4, 8192
4, 6240, Note_off_c, 4, 69, 95
4, 6240, Note_on_c, 4, 69, 95
4, 7200, Note_off_c, 4, 69, 95
4, 7200, Note_on_c, 4, 67, 95
4, 7360, Note_off_c, 4, 67, 95
4, 7360, Note_on_c, 4, 66, 95
4, 7520, Note_off_c, 4, 66, 95
4, 7520, Note_on_c, 4, 64, 95
4, 7680, Note_off_c, 4, 64, 95
4, 7680, Pitch_bend_c, 4, 8192
4, 7680, Note_on_c, 4, 66, 95
4, 7728, Pitch_bend_c, 4, 8320
4, 7776, Pitch_bend_c, 4, 8448
4, 7824, Pitch_bend_c, 4, 8576
4, 7872, Pitch_bend_c, 4, 8704
4, 7920, Pitch_bend_c, 4, 8832
4, 7920, Pitch_bend_c, 4, 8832
4, 10560, Pitch_bend_c, 4, 8832
4, 10560, Pitch_bend_c, 4, 8192
4, 10560, Note_off_c, 4, 66, 95
4, 13200, Note_on_c, 4, 59, 95
4, 13440, Note_off_c, 4, 59, 95
4, 13440, Pitch_bend_c, 4, 8192
4, 13440, Note_on_c, 4, 69, 95
4, 13461, Pitch_bend_c, 4, 8320
4, 13482, Pitch_bend_c, 4, 8448
4, 13503, Pitch_bend_c, 4, 8576
4, 13524, Pitch_bend_c, 4, 8704
4, 13545, Pitch_bend_c, 4, 8832
4, 13566, Pitch_bend_c, 4, 8960
4, 13587, Pitch_bend_c, 4, 9088
4, 13608, Pitch_bend_c, 4, 9216
4, 13629, Pitch_bend_c, 4, 9344
4, 13650, Pitch_bend_c, 4, 9472
4, 13671, Pitch_bend_c, 4, 9600
4, 13680, Pitch_bend_c, 4, 9600
4, 13920, Pitch_bend_c, 4, 9600
4, 13920, Pitch_bend_c, 4, 8192
4, 13920, Note_off_c, 4, 69, 95
4, 13920, Note_on_c, 4, 69, 95
4, 14880, Note_off_c, 4, 69, 95
4, 14880, Note_on_c, 4, 67, 95
4, 15040, Note_off_c, 4, 67, 95
4, 15040, Note_on_c, 4, 66, 95
4, 15200, Note_off_c, 4, 66, 95
4, 15200, Note_on_c, 4, 64, 95
4, 15360, Note_off_c, 4, 64, 95
4, 15360, Pitch_bend_c, 4, 8192
4, 15360, Note_on_c, 4, 66, 95
4, 15408, Pitch_bend_c, 4, 8320
4, 15456, Pitch_bend_c, 4, 8448
4, 15504, Pitch_bend_c, 4, 8576
4, 15552, Pitch_bend_c, 4, 8704
4, 15600, Pitch_bend_c, 4, 8832
4, 15600, Pitch_bend_c, 4, 8832
4, 18240, Pitch_bend_c, 4, 8832
4, 18240, Pitch_bend_c, 4, 8192
4, 18240, Note_off_c, 4, 66, 95
4, 21120, Note_on_c, 4, 64, 95
4, 21840, Note_off_c, 4, 64, 95
4, 21840, Note_on_c, 4, 66, 95
4, 22560, Note_off_c, 4, 66, 95
4, 22560, Pitch_bend_c, 4, 8832
4, 22560, Note_on_c, 4, 66, 95
4, 22720, Pitch_bend_c, 4, 8832
4, 22752, Pitch_bend_c, 4, 8704
4, 22784, Pitch_bend_c, 4, 8576
4, 22816, Pitch_bend_c, 4, 8448
4, 22848, Pitch_bend_c, 4, 8320
4, 22880, Pitch_bend_c, 4, 8192
4, 22880, Pitch_bend_c, 4, 8192
4, 23040, Pitch_bend_c, 4, 8192
4, 23040, Pitch_bend_c, 4, 8192
4, 23040, Note_off_c, 4, 66, 95
4, 23040, Note_on_c, 4, 64, 95
4, 26400, Note_off_c, 4, 64, 95
4, 28560, Note_on_c, 4, 59, 95
4, 28800, Note_off_c, 4, 59, 95
4, 28800, Pitch_bend_c, 4, 8192
4, 28800, Note_on_c, 4, 66, 95
4, 28848, Pitch_bend_c, 4, 8320
4, 28896, Pitch_bend_c, 4, 8448
4, 28944, Pitch_bend_c, 4, 8576
4, 28992, Pitch_bend_c, 4, 8704
4, 29040, Pitch_bend_c, 4, 8832
4, 29040, Pitch_bend_c, 4, 8832
4, 29280, Pitch_bend_c, 4, 8832
4, 29280, Pitch_bend_c, 4, 8192
4, 29280, Note_off_c, 4, 66, 95
4, 29280, Note_on_c, 4, 66, 95
4, 30240, Note_off_c, 4, 66, 95
4, 30240, Note_on_c, 4, 62, 95
4, 30480, Note_off_c, 4, 62, 95
4, 30480, Note_on_c, 4, 57, 95
4, 30720, Note_off_c, 4, 57, 95
4, 30720, Note_on_c, 4, 64, 95
4, 35040, Note_off_c, 4, 64, 95
4, 36240, Note_on_c, 4, 59, 95
4, 36480, Note_off_c, 4, 59, 95
4, 36480, Pitch_bend_c, 4, 8192
4, 36480, Note_on_c, 4, 69, 95
4, 36501, Pitch_bend_c, 4, 8320
4, 36522, Pitch_bend_c, 4, 8448
4, 36543, Pitch_bend_c, 4, 8576
4, 36564, Pitch_bend_c, 4, 8704
4, 36585, Pitch_bend_c, 4, 8832
4, 36606, Pitch_bend_c, 4, 8960
4, 36627, Pitch_bend_c, 4, 9088
4, 36648, Pitch_bend_c, 4, 9216
4, 36669, Pitch_bend_c, 4, 9344
4, 36690, Pitch_bend_c, 4, 9472
4, 36711, Pitch_bend_c, 4, 9600
4, 36720, Pitch_bend_c, 4, 9600
4, 36960, Pitch_bend_c, 4, 9600
4, 36960, Pitch_bend_c, 4, 8192
4, 36960, Note_off_c, 4, 69, 95
4, 36960, Note_on_c, 4, 69, 95
4, 37920, Note_off_c, 4, 69, 95
4, 37920, Note_on_c, 4, 67, 95
4, 38080, Note_off_c, 4, 67, 95
4, 38080, Note_on_c, 4, 66, 95
4, 38240, Note_off_c, 4, 66, 95
4, 38240, Note_on_c, 4, 64, 95
4, 38400, Note_off_c, 4, 64, 95
4, 38400, Pitch_bend_c, 4, 8192
4, 38400, Note_on_c, 4, 66, 95
4, 38448, Pitch_bend_c, 4, 8320
4, 38496, Pitch_bend_c, 4, 8448
4, 38544, Pitch_bend_c, 4, 8576
4, 38592, Pitch_bend_c, 4, 8704
4, 38640, Pitch_bend_c, 4, 8832
4, 38640, Pitch_bend_c, 4, 8832
4, 41280, Pitch_bend_c, 4, 8832
4, 41280, Pitch_bend_c, 4, 8192
4, 41280, Note_off_c, 4, 66, 95
4, 43920, Note_on_c, 4, 59, 95
4, 44160, Note_off_c, 4, 59, 95
4, 44160, Pitch_bend_c, 4, 8192
4, 44160, Note_on_c, 4, 69, 95
4, 44181, Pitch_bend_c, 4, 8320
4, 44202, Pitch_bend_c, 4, 8448
4, 44223, Pitch_bend_c, 4, 8576
4, 44244, Pitch_bend_c, 4, 8704
4, 44265, Pitch_bend_c, 4, 8832
4, 44286, Pitch_bend_c, 4, 8960
4, 44307, Pitch_bend_c, 4, 9088
4, 44328, Pitch_bend_c, 4, 9216
4, 44349, Pitch_bend_c, 4, 9344
4, 44370, Pitch_bend_c, 4, 9472
4, 44391, Pitch_bend_c, 4, 9600
4, 44400, Pitch_bend_c, 4, 9600
4, 44640, Pitch_bend_c, 4, 9600
4, 44640, Pitch_bend_c, 4, 8192
4, 44640, Note_off_c, 4, 69, 95
4, 44640, Note_on_c, 4, 69, 95
4, 45840, Note_off_c, 4, 69, 95
4, 45840, Note_on_c, 4, 64, 95
4, 46080, Note_off_c, 4, 64, 95
4, 46080, Pitch_bend_c, 4, 8192
4, 46080, Note_on_c, 4, 72, 95
4, 46104, Pitch_bend_c, 4, 8320
4, 46128, Pitch_bend_c, 4, 8448
4, 46152, Pitch_bend_c, 4, 8576
4, 46176, Pitch_bend_c, 4, 8704
4, 46200, Pitch_bend_c, 4, 8832
4, 46224, Pitch_bend_c, 4, 8960
4, 46248, Pitch_bend_c, 4, 9088
4, 46272, Pitch_bend_c, 4, 9216
4, 46296, Pitch_bend_c, 4, 9344
4, 46320, Pitch_bend_c, 4, 9472
4, 46344, Pitch_bend_c, 4, 9600
4, 46350, Pitch_bend_c, 4, 9600
4, 46620, Pitch_bend_c, 4, 9600
4, 46644, Pitch_bend_c, 4, 9472
4, 46668, Pitch_bend_c, 4, 9344
4, 46692, Pitch_bend_c, 4, 9216
4, 46716, Pitch_bend_c, 4, 9088
4, 46740, Pitch_bend_c, 4, 8960
4, 46764, Pitch_bend_c, 4, 8832
4, 46788, Pitch_bend_c, 4, 8704
4, 46812, Pitch_bend_c, 4, 8576
4, 46836, Pitch_bend_c, 4, 8448
4, 46860, Pitch_bend_c, 4, 8320
4, 46884, Pitch_bend_c, 4, 8192
4, 46890, Pitch_bend_c, 4, 8192
4, 47160, Pitch_bend_c, 4, 8192
4, 47184, Pitch_bend_c, 4, 8320
4, 47208, Pitch_bend_c, 4, 8448
4, 47232, Pitch_bend_c, 4, 8576
4, 47256, Pitch_bend_c, 4, 8704
4, 47280, Pitch_bend_c, 4, 8832
4, 47304, Pitch_bend_c, 4, 8960
4, 47328, Pitch_bend_c, 4, 9088
4, 47352, Pitch_bend_c, 4, 9216
4, 47376, Pitch_bend_c, 4, 9344
4, 47400, Pitch_bend_c, 4, 9472
4, 47424, Pitch_bend_c, 4, 9600
4, 47430, Pitch_bend_c, 4, 9600
4, 49320, Pitch_bend_c, 4, 9600
4, 49320, Pitch_bend_c, 4, 8192
4, 49320, Note_off_c, 4, 72, 95
4, 49320, Note_on_c, 4, 69, 95
4, 49440, Note_off_c, 4, 69, 95
4, 49440, Pitch_bend_c, 4, 8832
4, 49440, Note_on_c, 4, 71, 95
4, 50240, Pitch_bend_c, 4, 8832
4, 50400, Pitch_bend_c, 4, 8704
4, 50560, Pitch_bend_c, 4, 8576
4, 50720, Pitch_bend_c, 4, 8448
4, 50880, Pitch_bend_c, 4, 8320
4, 51040, Pitch_bend_c, 4, 8192
4, 51040, Pitch_bend_c, 4, 8192
4, 51840, Pitch_bend_c, 4, 8192
4, 51840, Pitch_bend_c, 4, 8192
4, 51840, Note_off_c, 4, 71, 95
4, 51840, Pitch_bend_c, 4, 9600
4, 51840, Note_on_c, 4, 79, 95
4, 52320, Pitch_bend_c, 4, 9600
4, 52363, Pitch_bend_c, 4, 9472
4, 52406, Pitch_bend_c, 4, 9344
4, 52449, Pitch_bend_c, 4, 9216
4, 52492, Pitch_bend_c, 4, 9088
4, 52535, Pitch_bend_c, 4, 8960
4, 52578, Pitch_bend_c, 4, 8832
4, 52621, Pitch_bend_c, 4, 8704
4, 52664, Pitch_bend_c, 4, 8576
4, 52707, Pitch_bend_c, 4, 8448
4, 52750, Pitch_bend_c, 4, 8320
4, 52793, Pitch_bend_c, 4, 8192
4, 52800, Pitch_bend_c, 4, 8192
4, 53280, Pitch_bend_c, 4, 8192
4, 53280, Pitch_bend_c, 4, 8192
4, 53280, Note_off_c, 4, 79, 95
4, 53280, Note_on_c, 4, 76, 95
4, 53520, Note_off_c, 4, 76, 95
4, 53520, Note_on_c, 4, 74, 95
4, 53760, Note_off_c, 4, 74, 95
4, 53760, Note_on_c, 4, 78, 95
4, 56160, Note_off_c, 4, 78, 95
4, 59520, Pitch_bend_c, 4, 9600
4, 59520, Note_on_c, 4, 79, 95
4, 60000, Pitch_bend_c, 4, 9600
4, 60043, Pitch_bend_c, 4, 9472
4, 60086, Pitch_bend_c, 4, 9344
4, 60129, Pitch_bend_c, 4, 9216
4, 60172, Pitch_bend_c, 4, 9088
4, 60215, Pitch_bend_c, 4, 8960
4, 60258, Pitch_bend_c, 4, 8832
4, 60301, Pitch_bend_c, 4, 8704
4, 60344, Pitch_bend_c, 4, 8576
4, 60387, Pitch_bend_c, 4, 8448
4, 60430, Pitch_bend_c, 4, 8320
4, 60473, Pitch_bend_c, 4, 8192
4, 60480, Pitch_bend_c, 4, 8192
4, 60960, Pitch_bend_c, 4, 8192
4, 60960, Pitch_bend_c, 4, 8192
4, 60960, Note_off_c, 4, 79, 95
4, 60960, Note_on_c, 4, 74, 95
4, 61200, Note_off_c, 4, 74, 95
4, 61200, Note_on_c, 4, 69, 95
4, 61440, Note_off_c, 4, 69, 95
4, 61440, Note_on_c, 4, 76, 95
4, 65280, Note_on_c, 4, 88, 47
4, 66960, Note_off_c, 4, 76, 95
4, 66960, Note_on_c, 4, 59, 95
4, 67200, Note_off_c, 4, 88, 47
4, 67200, Note_off_c, 4, 59, 95
4, 67200, Pitch_bend_c, 4, 8192
4, 67200, Note_on_c, 4, 69, 95
4, 67232, Pitch_bend_c, 4, 8320
4, 67264, Pitch_bend_c, 4, 8448
4, 67296, Pitch_bend_c, 4, 8576
4, 67328, Pitch_bend_c, 4, 8704
4, 67360, Pitch_bend_c, 4, 8832
4, 67392, Pitch_bend_c, 4, 8960
4, 67424, Pitch_bend_c, 4, 9088
4, 67456, Pitch_bend_c, 4, 9216
4, 67488, Pitch_bend_c, 4, 9344
4, 67520, Pitch_bend_c, 4, 9472
4, 67552, Pitch_bend_c, 4, 9600
4, 67560, Pitch_bend_c, 4, 9600
4, 67920, Pitch_bend_c, 4, 9600
4, 67920, Pitch_bend_c, 4, 8192
4, 67920, Note_off_c, 4, 69, 95
4, 67920, Pitch_bend_c, 4, 9600
4, 67920, Note_on_c, 4, 69, 95
4, 68160, Pitch_bend_c, 4, 9600
4, 68181, Pitch_bend_c, 4, 9472
4, 68202, Pitch_bend_c, 4, 9344
4, 68223, Pitch_bend_c, 4, 9216
4, 68244, Pitch_bend_c, 4, 9088
4, 68265, Pitch_bend_c, 4, 8960
4, 68286, Pitch_bend_c, 4, 8832
4, 68307, Pitch_bend_c, 4, 8704
4, 68328, Pitch_bend_c, 4, 8576
4, 68349, Pitch_bend_c, 4, 8448
4, 68370, Pitch_bend_c, 4, 8320
4, 68391, Pitch_bend_c, 4, 8192
4, 68400, Pitch_bend_c, 4, 8192
4, 68640, Pitch_bend_c, 4, 8192
4, 68640, Pitch_bend_c, 4, 8192
4, 68640, Note_off_c, 4, 69, 95
4, 68640, Pitch_bend_c, 4, 8448
4, 68640, Note_on_c, 4, 64, 95
4, 68800, Pitch_bend_c, 4, 8448
4, 68880, Pitch_bend_c, 4, 8320
4, 68960, Pitch_bend_c, 4, 8192
4, 68960, Pitch_bend_c, 4, 8192
4, 69120, Pitch_bend_c, 4, 8192
4, 69120, Pitch_bend_c, 4, 8192
4, 69120, Note_off_c, 4, 64, 95
4, 69120, Note_on_c, 4, 64, 95
4, 72960, Note_off_c, 4, 64, 95
4, 74160, Pitch_bend_c, 4, 8192
4, 74160, Note_on_c, 4, 67, 95
4, 74192, Pitch_bend_c, 4, 8320
4, 74224, Pitch_bend_c, 4, 8448
4, 74256, Pitch_bend_c, 4, 8576
4, 74288, Pitch_bend_c, 4, 8704
4, 74320, Pitch_bend_c, 4, 8832
4, 74352, Pitch_bend_c, 4, 8960
4, 74384, Pitch_bend_c, 4, 9088
4, 74416, Pitch_bend_c, 4, 9216
4, 74448, Pitch_bend_c, 4, 9344
4, 74480, Pitch_bend_c, 4, 9472
4, 74512, Pitch_bend_c, 4, 9600
4, 74520, Pitch_bend_c, 4, 9600
4, 74880, Pitch_bend_c, 4, 9600
4, 74880, Pitch_bend_c, 4, 8192
4, 74880, Note_off_c, 4, 67, 95
4, 75120, Pitch_bend_c, 4, 8192
4, 75120, Note_on_c, 4, 69, 95
4, 75147, Pitch_bend_c, 4, 8320
4, 75174, Pitch_bend_c, 4, 8448
4, 75201, Pitch_bend_c, 4, 8576
4, 75228, Pitch_bend_c, 4, 8704
4, 75255, Pitch_bend_c, 4, 8832
4, 75282, Pitch_bend_c, 4, 8960
4, 75309, Pitch_bend_c, 4, 9088
4, 75336, Pitch_bend_c, 4, 9216
4, 75363, Pitch_bend_c, 4, 9344
4, 75390, Pitch_bend_c, 4, 9472
4, 75417, Pitch_bend_c, 4, 9600
4, 75420, Pitch_bend_c, 4, 9600
4, 76320, Pitch_bend_c, 4, 9600
4, 76320, Pitch_bend_c, 4, 8192
4, 76320, Note_off_c, 4, 69, 95
4, 76320, Note_on_c, 4, 74, 95
4, 76560, Note_off_c, 4, 74, 95
4, 76560, Note_on_c, 4, 71, 95
4, 76800, Note_off_c, 4, 71, 95
4, 76800, Note_on_c, 4, 69, 95
4, 77280, Note_off_c, 4, 69, 95
4, 77280, Note_on_c, 4, 67, 95
4, 77400, Note_off_c, 4, 67, 95
4, 77400, Note_on_c, 4, 64, 70
4, 80640, Note_off_c, 4, 64, 70
4, 80640, Pitch_bend_c, 4, 8192
4, 80640, Note_on_c, 4, 69, 95
4, 80672, Pitch_bend_c, 4, 8320
4, 80704, Pitch_bend_c, 4, 8448
4, 80736, Pitch_bend_c, 4, 8576
4, 80768, Pitch_bend_c, 4, 8704
4, 80800, Pitch_bend_c, 4, 8832
4, 80832, Pitch_bend_c, 4, 8960
4, 80864, Pitch_bend_c, 4, 9088
4, 80896, Pitch_bend_c, 4, 9216
4, 80928, Pitch_bend_c, 4, 9344
4, 80960, Pitch_bend_c, 4, 9472
4, 80992, Pitch_bend_c, 4, 9600
4, 81000, Pitch_bend_c, 4, 9600
4, 81360, Pitch_bend_c, 4, 9600
4, 81360, Pitch_bend_c, 4, 8192
4, 81360, Note_off_c, 4, 69, 95
4, 81360, Pitch_bend_c, 4, 8192
4, 81360, Note_on_c, 4, 72, 95
4, 81387, Pitch_bend_c, 4, 8320
4, 81414, Pitch_bend_c, 4, 8448
4, 81441, Pitch_bend_c, 4, 8576
4, 81468, Pitch_bend_c, 4, 8704
4, 81495, Pitch_bend_c, 4, 8832
4, 81522, Pitch_bend_c, 4, 8960
4, 81549, Pitch_bend_c, 4, 9088
4, 81576, Pitch_bend_c, 4, 9216
4, 81603, Pitch_bend_c, 4, 9344
4, 81630, Pitch_bend_c, 4, 9472
4, 81657, Pitch_bend_c, 4, 9600
4, 81660, Pitch_bend_c, 4, 9600
4, 81960, Pitch_bend_c, 4, 9600
4, 82260, Pitch_bend_c, 4, 9600
4, 82287, Pitch_bend_c, 4, 9472
4, 82314, Pitch_bend_c, 4, 9344
4, 82341, Pitch_bend_c, 4, 9216
4, 82368, Pitch_bend_c, 4, 9088
4, 82395, Pitch_bend_c, 4, 8960
4, 82422, Pitch_bend_c, 4, 8832
4, 82449, Pitch_bend_c, 4, 8704
4, 82476, Pitch_bend_c, 4, 8576
4, 82503, Pitch_bend_c, 4, 8448
4, 82530, Pitch_bend_c, 4, 8320
4, 82557, Pitch_bend_c, 4, 8192
4, 82560, Pitch_bend_c, 4, 8192
4, 82560, Pitch_bend_c, 4, 8192
4, 82560, Note_off_c, 4, 72, 95
4, 82560, Note_on_c, 4, 69, 95
4, 84000, Note_off_c, 4, 69, 95
4, 84000, Note_on_c, 4, 67, 95
4, 84240, Note_off_c, 4, 67, 95
4, 84240, Note_on_c, 4, 69, 95
4, 84480, Note_off_c, 4, 69, 95
4, 84480, Pitch_bend_c, 4, 8192
4, 84480, Note_on_c, 4, 69, 95
4, 84512, Pitch_bend_c, 4, 8320
4, 84544, Pitch_bend_c, 4, 8448
4, 84576, Pitch_bend_c, 4, 8576
4, 84608, Pitch_bend_c, 4, 8704
4, 84640, Pitch_bend_c, 4, 8832
4, 84672, Pitch_bend_c, 4, 8960
4, 84704, Pitch_bend_c, 4, 9088
4, 84736, Pitch_bend_c, 4, 9216
4, 84768, Pitch_bend_c, 4, 9344
4, 84800, Pitch_bend_c, 4, 9472
4, 84832, Pitch_bend_c, 4, 9600
4, 84840, Pitch_bend_c, 4, 9600
4, 85200, Pitch_bend_c, 4, 9600
4, 85200, Pitch_bend_c, 4, 8192
4, 85200, Note_off_c, 4, 69, 95
4, 85200, Note_on_c, 4, 74, 95
4, 85440, Note_off_c, 4, 74, 95
4, 85440, Note_on_c, 4, 69, 95
4, 86160, Note_off_c, 4, 69, 95
4, 86160, Note_on_c, 4, 67, 95
4, 86400, Note_off_c, 4, 67, 95
4, 86400, Note_on_c, 4, 64, 95
4, 88320, Note_off_c, 4, 64, 95
4, 89280, Note_on_c, 4, 67, 95
4, 90720, Note_off_c, 4, 67, 95
4, 90720, Note_on_c, 4, 64, 95
4, 90960, Note_off_c, 4, 64, 95
4, 90960, Note_on_c, 4, 62, 95
4, 91200, Note_off_c, 4, 62, 95
4, 91200, Note_on_c, 4, 64, 95
4, 91440, Note_off_c, 4, 64, 95
4, 91440, Note_on_c, 4, 67, 95
4, 91680, Note_off_c, 4, 67, 95
4, 91680, Note_on_c, 4, 64, 95
4, 91760, Note_off_c, 4, 64, 95
4, 91760, Note_on_c, 4, 67, 95
4, 91840, Note_off_c, 4, 67, 95
4, 91840, Note_on_c, 4, 64, 95
4, 91920, Note_off_c, 4, 64, 95
4, 91920, Note_on_c, 4, 62, 95
4, 92160, Note_off_c, 4, 62, 95
4, 92160, Pitch_bend_c, 4, 8192
4, 92160, Note_on_c, 4, 63, 95
4, 92208, Pitch_bend_c, 4, 8320
4, 92256, Pitch_bend_c, 4, 8448
4, 92304, Pitch_bend_c, 4, 8576
4, 92352, Pitch_bend_c, 4, 8704
4, 92400, Pitch_bend_c, 4, 8832
4, 92400, Pitch_bend_c, 4, 8832
4, 92640, Pitch_bend_c, 4, 8832
4, 92640, Pitch_bend_c, 4, 8192
4, 92640, Note_off_c, 4, 63, 95
4, 92640, Pitch_bend_c, 4, 8192
4, 92640, Note_on_c, 4, 63, 95
4, 92680, Pitch_bend_c, 4, 8320
4, 92720, Pitch_bend_c, 4, 8448
4, 92760, Pitch_bend_c, 4, 8576
4, 92800, Pitch_bend_c, 4, 8704
4, 92840, Pitch_bend_c, 4, 8832
4, 92840, Pitch_bend_c, 4, 8832
4, 95040, Pitch_bend_c, 4, 8832
4, 95040, Pitch_bend_c, 4, 8192
4, 95040, Note_off_c, 4, 63, 95
4, 95520, Note_on_c, 4, 69, 95
4, 95760, Note_off_c, 4, 69, 95
4, 95760, Note_on_c, 4, 71, 95
4, 96000, Note_off_c, 4, 71, 95
4, 96000, Note_on_c, 4, 76, 95
4, 97440, Note_off_c, 4, 76, 95
4, 98400, Note_on_c, 4, 76, 95
4, 98640, Note_off_c, 4, 76, 95
4, 98640, Note_on_c, 4, 78, 95
4, 98880, Note_off_c, 4, 78, 95
4, 98880, Note_on_c, 4, 79, 95
4, 99120, Note_off_c, 4, 79, 95
4, 99120, Note_on_c, 4, 78, 95
4, 99360, Note_off_c, 4, 78, 95
4, 99360, Pitch_bend_c, 4, 8192
4, 99360, Note_on_c, 4, 76, 95
4, 99381, Pitch_bend_c, 4, 8320
4, 99402, Pitch_bend_c, 4, 8448
4, 99423, Pitch_bend_c, 4, 8576
4, 99444, Pitch_bend_c, 4, 8704
4, 99465, Pitch_bend_c, 4, 8832
4, 99486, Pitch_bend_c, 4, 8960
4, 99507, Pitch_bend_c, 4, 9088
4, 99528, Pitch_bend_c, 4, 9216
4, 99549, Pitch_bend_c, 4, 9344
4, 99570, Pitch_bend_c, 4, 9472
4, 99591, Pitch_bend_c, 4, 9600
4, 99600, Pitch_bend_c, 4, 9600
4, 99840, Pitch_bend_c, 4, 9600
4, 99840, Pitch_bend_c, 4, 8192
4, 99840, Note_off_c, 4, 76, 95
4, 99840, Note_on_c, 4, 79, 95
4, 100080, Note_off_c, 4, 79, 95
4, 100080, Note_on_c, 4, 78, 95
4, 100200, Note_off_c, 4, 78, 95
4, 100200, Pitch_bend_c, 4, 8192
4, 100200, Note_on_c, 4, 76, 95
4, 100210, Pitch_bend_c, 4, 8320
4, 100220, Pitch_bend_c, 4, 8448
4, 100230, Pitch_bend_c, 4, 8576
4, 100240, Pitch_bend_c, 4, 8704
4, 100250, Pitch_bend_c, 4, 8832
4, 100260, Pitch_bend_c, 4, 8960
4, 100270, Pitch_bend_c, 4, 9088
4, 100280, Pitch_bend_c, 4, 9216
4, 100290, Pitch_bend_c, 4, 9344
4, 100300, Pitch_bend_c, 4, 9472
4, 100310, Pitch_bend_c, 4, 9600
4, 100320, Pitch_bend_c, 4, 9600
4, 100440, Pitch_bend_c, 4, 9600
4, 100440, Pitch_bend_c, 4, 8192
4, 100440, Note_off_c, 4, 76, 95
4, 100440, Pitch_bend_c, 4, 8192
4, 100440, Note_on_c, 4, 76, 95
4, 100460, Pitch_bend_c, 4, 8320
4, 100480, Pitch_bend_c, 4, 8448
4, 100500, Pitch_bend_c, 4, 8576
4, 100520, Pitch_bend_c, 4, 8704
4, 100540, Pitch_bend_c, 4, 8832
4, 100560, Pitch_bend_c, 4, 8960
4, 100580, Pitch_bend_c, 4, 9088
4, 100600, Pitch_bend_c, 4, 9216
4, 100620, Pitch_bend_c, 4, 9344
4, 100640, Pitch_bend_c, 4, 9472
4, 100660, Pitch_bend_c, 4, 9600
4, 100660, Pitch_bend_c, 4, 9600
4, 101760, Pitch_bend_c, 4, 9600
4, 101760, Pitch_bend_c, 4, 8192
4, 101760, Note_off_c, 4, 76, 95
4, 104160, Note_on_c, 4, 81, 95
4, 104640, Note_off_c, 4, 81, 95
4, 104640, Note_on_c, 4, 79, 95
4, 105600, Note_off_c, 4, 79, 95
4, 106080, Pitch_bend_c, 4, 8192
4, 106080, Note_on_c, 4, 74, 95
4, 106123, Pitch_bend_c, 4, 8320
4, 106166, Pitch_bend_c, 4, 8448
4, 106209, Pitch_bend_c, 4, 8576
4, 106252, Pitch_bend_c, 4, 8704
4, 106295, Pitch_bend_c, 4, 8832
4, 106338, Pitch_bend_c, 4, 8960
4, 106381, Pitch_bend_c, 4, 9088
4, 106424, Pitch_bend_c, 4, 9216
4, 106467, Pitch_bend_c, 4, 9344
4, 106510, Pitch_bend_c, 4, 9472
4, 106553, Pitch_bend_c, 4, 9600
4, 106560, Pitch_bend_c, 4, 9600
4, 107040, Pitch_bend_c, 4, 9600
4, 107040, Pitch_bend_c, 4, 8192
4, 107040, Note_off_c, 4, 74, 95
4, 107040, Note_on_c, 4, 71, 95
4, 107280, Note_off_c, 4, 71, 95
4, 107280, Note_on_c, 4, 69, 95
4, 107520, Note_off_c, 4, 69, 95
4, 107520, Pitch_bend_c, 4, 8192
4, 107520, Note_on_c, 4, 67, 95
4, 107536, Pitch_bend_c, 4, 8320
4, 107552, Pitch_bend_c, 4, 8448
4, 107568, Pitch_bend_c, 4, 8576
4, 107584, Pitch_bend_c, 4, 8704
4, 107600, Pitch_bend_c, 4, 8832
4, 107616, Pitch_bend_c, 4, 8960
4, 107632, Pitch_bend_c, 4, 9088
4, 107648, Pitch_bend_c, 4, 9216
4, 107664, Pitch_bend_c, 4, 9344
4, 107680, Pitch_bend_c, 4, 9472
4, 107696, Pitch_bend_c, 4, 9600
4, 107700, Pitch_bend_c, 4, 9600
4, 107880, Pitch_bend_c, 4, 9600
4, 107880, Pitch_bend_c, 4, 8192
4, 107880, Note_off_c, 4, 67, 95
4, 107880, Note_on_c, 4, 67, 95
4, 108120, Note_off_c, 4, 67, 95
4, 108120, Note_on_c, 4, 64, 95
4, 109920, Note_off_c, 4, 64, 95
4, 112320, Note_on_c, 4, 74, 95
4, 112560, Note_off_c, 4, 74, 95
4, 112560, Pitch_bend_c, 4, 8192
4, 112560, Note_on_c, 4, 69, 95
4, 112592, Pitch_bend_c, 4, 8320
4, 112624, Pitch_bend_c, 4, 8448
4, 112656, Pitch_bend_c, 4, 8576
4, 112688, Pitch_bend_c, 4, 8704
4, 112720, Pitch_bend_c, 4, 8832
4, 112752, Pitch_bend_c, 4, 8960
4, 112784, Pitch_bend_c, 4, 9088
4, 112816, Pitch_bend_c, 4, 9216
4, 112848, Pitch_bend_c, 4, 9344
4, 112880, Pitch_bend_c, 4, 9472
4, 112912, Pitch_bend_c, 4, 9600
4, 112920, Pitch_bend_c, 4, 9600
4, 113280, Pitch_bend_c, 4, 9600
4, 113280, Pitch_bend_c, 4, 8192
4, 113280, Note_off_c, 4, 69, 95
4, 113280, Note_on_c, 4, 74, 95
4, 113520, Note_off_c, 4, 74, 95
4, 113520, Pitch_bend_c, 4, 8192
4, 113520, Note_on_c, 4, 69, 95
4, 113552, Pitch_bend_c, 4, 8320
4, 113584, Pitch_bend_c, 4, 8448
4, 113616, Pitch_bend_c, 4, 8576
4, 113648, Pitch_bend_c, 4, 8704
4, 113680, Pitch_bend_c, 4, 8832
4, 113712, Pitch_bend_c, 4, 8960
4, 113744, Pitch_bend_c, 4, 9088
4, 113776, Pitch_bend_c, 4, 9216
4, 113808, Pitch_bend_c, 4, 9344
4, 113840, Pitch_bend_c, 4, 9472
4, 113872, Pitch_bend_c, 4, 9600
4, 113880, Pitch_bend_c, 4, 9600
4, 114240, Pitch_bend_c, 4, 9600
4, 114240, Pitch_bend_c, 4, 8192
4, 114240, Note_off_c, 4, 69, 95
4, 114240, Pitch_bend_c, 4, 9600
4, 114240, Note_on_c, 4, 69, 95
4, 114560, Pitch_bend_c, 4, 9600
4, 114589, Pitch_bend_c, 4, 9472
4, 114618, Pitch_bend_c, 4, 9344
4, 114647, Pitch_bend_c, 4, 9216
4, 114676, Pitch_bend_c, 4, 9088
4, 114705, Pitch_bend_c, 4, 8960
4, 114734, Pitch_bend_c, 4, 8832
4, 114763, Pitch_bend_c, 4, 8704
4, 114792, Pitch_bend_c, 4, 8576
4, 114821, Pitch_bend_c, 4, 8448
4, 114850, Pitch_bend_c, 4, 8320
4, 114879, Pitch_bend_c, 4, 8192
4, 114880, Pitch_bend_c, 4, 8192
4, 115200, Pitch_bend_c, 4, 8192
4, 115200, Pitch_bend_c, 4, 8192
4, 115200, Note_off_c, 4, 69, 95
4, 115200, Pitch_bend_c, 4, 8192
4, 115200, Note_on_c, 4, 63, 95
4, 115232, Pitch_bend_c, 4, 8320
4, 115264, Pitch_bend_c, 4, 8448
4, 115296, Pitch_bend_c, 4, 8576
4, 115328, Pitch_bend_c, 4, 8704
4, 115360, Pitch_bend_c, 4, 8832
4, 115360, Pitch_bend_c, 4, 8832
4, 115520, Pitch_bend_c, 4, 8832
4, 115520, Pitch_bend_c, 4, 8192
4, 115520, Note_off_c, 4, 63, 95
4, 115520, Pitch_bend_c, 4, 8192
4, 115520, Note_on_c, 4, 63, 95
4, 115552, Pitch_bend_c, 4, 8320
4, 115584, Pitch_bend_c, 4, 8448
4, 115616, Pitch_bend_c, 4, 8576
4, 115648, Pitch_bend_c, 4, 8704
4, 115680, Pitch_bend_c, 4, 8832
4, 115680, Pitch_bend_c, 4, 8832
4, 115840, Pitch_bend_c, 4, 8832
4, 115840, Pitch_bend_c, 4, 8192
4, 115840, Note_off_c, 4, 63, 95
4, 115840, Pitch_bend_c, 4, 8192
4, 115840, Note_on_c, 4, 63, 95
4, 115872, Pitch_bend_c, 4, 8320
4, 115904, Pitch_bend_c, 4, 8448
4, 115936, Pitch_bend_c, 4, 8576
4, 115968, Pitch_bend_c, 4, 8704
4, 116000, Pitch_bend_c, 4, 8832
4, 116000, Pitch_bend_c, 4, 8832
4, 116160, Pitch_bend_c, 4, 8832
4, 116160, Pitch_bend_c, 4, 8192
4, 116160, Note_off_c, 4, 63, 95
4, 116160, Pitch_bend_c, 4, 8192
4, 116160, Note_on_c, 4, 63, 95
4, 116192, Pitch_bend_c, 4, 8320
4, 116224, Pitch_bend_c, 4, 8448
4, 116256, Pitch_bend_c, 4, 8576
4, 116288, Pitch_bend_c, 4, 8704
4, 116320, Pitch_bend_c, 4, 8832
4, 116320, Pitch_bend_c, 4, 8832
4, 116480, Pitch_bend_c, 4, 8832
4, 116480, Pitch_bend_c, 4, 8192
4, 116480, Note_off_c, 4, 63, 95
4, 116480, Pitch_bend_c, 4, 8192
4, 116480, Note_on_c, 4, 63, 95
4, 116512, Pitch_bend_c, 4, 8320
4, 116544, Pitch_bend_c, 4, 8448
4, 116576, Pitch_bend_c, 4, 8576
4, 116608, Pitch_bend_c, 4, 8704
4, 116640, Pitch_bend_c, 4, 8832
4, 116640, Pitch_bend_c, 4, 8832
4, 116800, Pitch_bend_c, 4, 8832
4, 116800, Pitch_bend_c, 4, 8192
4, 116800, Note_off_c, 4, 63, 95
4, 116800, Pitch_bend_c, 4, 8192
4, 116800, Note_on_c, 4, 63, 95
4, 116832, Pitch_bend_c, 4, 8320
4, 116864, Pitch_bend_c, 4, 8448
4, 116896, Pitch_bend_c, 4, 8576
4, 116928, Pitch_bend_c, 4, 8704
4, 116960, Pitch_bend_c, 4, 8832
4, 116960, Pitch_bend_c, 4, 8832
4, 117120, Pitch_bend_c, 4, 8832
4, 117120, Pitch_bend_c, 4, 8192
4, 117120, Note_off_c, 4, 63, 95
4, 117120, Note_on_c, 4, 64, 95
4, 117280, Note_off_c, 4, 64, 95
4, 117280, Note_on_c, 4, 62, 95
4, 117440, Note_off_c, 4, 62, 95
4, 117440, Note_on_c, 4, 59, 95
4, 117600, Note_off_c, 4, 59, 95
4, 117600, Note_on_c, 4, 57, 95
4, 118080, Note_off_c, 4, 57, 95
4, 118080, Note_on_c, 4, 57, 95
4, 118200, Note_off_c, 4, 57, 95
4, 118200, Note_on_c, 4, 57, 95
4, 118440, Note_off_c, 4, 57, 95
4, 118440, Note_on_c, 4, 57, 95
4, 118680, Note_off_c, 4, 57, 95
4, 118680, Note_on_c, 4, 55, 95
4, 118800, Note_off_c, 4, 55, 95
4, 118800, Note_on_c, 4, 52, 95
4, 118920, Note_off_c, 4, 52, 95
4, 118920, Note_on_c, 4, 50, 95
4, 119040, Note_off_c, 4, 50, 95
4, 119040, Note_on_c, 4, 52, 95
4, 119160, Note_off_c, 4, 52, 95
4, 119160, Note_on_c, 4, 50, 95
4, 119280, Note_off_c, 4, 50, 95
4, 119280, Pitch_bend_c, 4, 8192
4, 119280, Note_on_c, 4, 52, 95
4, 119820, Pitch_bend_c, 4, 8192
4, 119836, Pitch_bend_c, 4, 8064
4, 119852, Pitch_bend_c, 4, 7936
4, 119868, Pitch_bend_c, 4, 7808
4, 119884, Pitch_bend_c, 4, 7680
4, 119900, Pitch_bend_c, 4, 7552
4, 119916, Pitch_bend_c, 4, 7424
4, 119932, Pitch_bend_c, 4, 7296
4, 119948, Pitch_bend_c, 4, 7168
4, 119964, Pitch_bend_c, 4, 7040
4, 119980, Pitch_bend_c, 4, 6912
4, 119996, Pitch_bend_c, 4, 6784
4, 120000, Pitch_bend_c, 4, 6784
4, 120000, Pitch_bend_c, 4, 8192
4, 120000, Note_off_c, 4, 52, 95
4, 122160, Note_on_c, 4, 43, 95
4, 122400, Note_off_c, 4, 43, 95
4, 122400, Note_on_c, 4, 47, 95
4, 122880, Note_off_c, 4, 47, 95
4, 122880, Note_on_c, 4, 50, 95
4, 123120, Note_off_c, 4, 50, 95
4, 123120, Note_on_c, 4, 50, 95
4, 124320, Note_off_c, 4, 50, 95
4, 124320, Note_on_c, 4, 52, 95
4, 125280, Note_off_c, 4, 52, 95
4, 128160, Pitch_bend_c, 4, 8192
4, 128160, Note_on_c, 4, 62, 95
4, 128181, Pitch_bend_c, 4, 8320
4, 128202, Pitch_bend_c, 4, 8448
4, 128223, Pitch_bend_c, 4, 8576
4, 128244, Pitch_bend_c, 4, 8704
4, 128265, Pitch_bend_c, 4, 8832
4, 128286, Pitch_bend_c, 4, 8960
4, 128307, Pitch_bend_c, 4, 9088
4, 128328, Pitch_bend_c, 4, 9216
4, 128349, Pitch_bend_c, 4, 9344
4, 128370, Pitch_bend_c, 4, 9472
4, 128391, Pitch_bend_c, 4, 9600
4, 128400, Pitch_bend_c, 4, 9600
4, 129120, Pitch_bend_c, 4, 9600
4, 129120, Pitch_bend_c, 4, 8192
4, 129120, Note_off_c, 4, 62, 95
4, 129600, Note_on_c, 4, 57, 95
4, 129840, Note_off_c, 4, 57, 95
4, 129840, Note_on_c, 4, 55, 95
4, 129960, Note_off_c, 4, 55, 95
4, 129960, Note_on_c, 4, 57, 95
4, 130200, Note_off_c, 4, 57, 95
4, 130200, Note_on_c, 4, 55, 95
4, 130320, Note_off_c, 4, 55, 95
4, 130320, Note_on_c, 4, 57, 95
4, 130440, Note_off_c, 4, 57, 95
4, 130440, Note_on_c, 4, 55, 95
4, 130560, Note_off_c, 4, 55, 95
4, 130560, Note_on_c, 4, 52, 95
4, 130800, Note_off_c, 4, 52, 95
4, 130800, Pitch_bend_c, 4, 8192
4, 130800, Note_on_c, 4, 50, 95
4, 130808, Pitch_bend_c, 4, 8320
4, 130816, Pitch_bend_c, 4, 8448
4, 130824, Pitch_bend_c, 4, 8576
4, 130832, Pitch_bend_c, 4, 8704
4, 130840, Pitch_bend_c, 4, 8832
4, 130848, Pitch_bend_c, 4, 8960
4, 130856, Pitch_bend_c, 4, 9088
4, 130864, Pitch_bend_c, 4, 9216
4, 130872, Pitch_bend_c, 4, 9344
4, 130880, Pitch_bend_c, 4, 9472
4, 130888, Pitch_bend_c, 4, 9600
4, 130890, Pitch_bend_c, 4, 9600
4, 131160, Pitch_bend_c, 4, 9600
4, 131160, Pitch_bend_c, 4, 8192
4, 131160, Note_off_c, 4, 50, 95
4, 131160, Note_on_c, 4, 50, 95
4, 131280, Note_off_c, 4, 50, 95
4, 131280, Note_on_c, 4, 47, 95
4, 131400, Note_off_c, 4, 47, 95
4, 131400, Note_on_c, 4, 45, 95
4, 131640, Note_off_c, 4, 45, 95
4, 131640, Note_on_c, 4, 42, 95
4, 131880, Note_off_c, 4, 42, 95
4, 131880, Note_on_c, 4, 48, 95
4, 132000, Note_off_c, 4, 48, 95
4, 132000, Note_on_c, 4, 48, 95
4, 134400, Note_off_c, 4, 48, 95
4, 136800, Note_on_c, 4, 64, 95
4, 137040, Note_off_c, 4, 64, 95
4, 137040, Note_on_c, 4, 67, 95
4, 137280, Note_off_c, 4, 67, 95
4, 137280, Pitch_bend_c, 4, 8192
4, 137280, Note_on_c, 4, 69, 95
4, 137301, Pitch_bend_c, 4, 8320
4, 137322, Pitch_bend_c, 4, 8448
4, 137343, Pitch_bend_c, 4, 8576
4, 137364, Pitch_bend_c, 4, 8704
4, 137385, Pitch_bend_c, 4, 8832
4, 137406, Pitch_bend_c, 4, 8960
4, 137427, Pitch_bend_c, 4, 9088
4, 137448, Pitch_bend_c, 4, 9216
4, 137469, Pitch_bend_c, 4, 9344
4, 137490, Pitch_bend_c, 4, 9472
4, 137511, Pitch_bend_c, 4, 9600
4, 137520, Pitch_bend_c, 4, 9600
4, 138240, Pitch_bend_c, 4, 9600
4, 138240, Pitch_bend_c, 4, 8192
4, 138240, Note_off_c, 4, 69, 95
4, 138240, Note_on_c, 4, 69, 95
4, 138720, Note_off_c, 4, 69, 95
4, 138720, Note_on_c, 4, 64, 95
4, 138960, Note_off_c, 4, 64, 95
4, 138960, Note_on_c, 4, 64, 95
4, 140640, Note_off_c, 4, 64, 95
4, 140640, Note_on_c, 4, 64, 15
4, 140640, Note_on_c, 4, 76, 47
4, 140760, Note_off_c, 4, 64, 15
4, 140760, Note_off_c, 4, 76, 47
4, 140880, Note_on_c, 4, 64, 15
4, 140880, Note_on_c, 4, 76, 47
4, 141000, Note_off_c, 4, 64, 15
4, 141000, Note_off_c, 4, 76, 47
4, 141600, Note_on_c, 4, 69, 95
4, 141840, Note_off_c, 4, 69, 95
4, 141840, Note_on_c, 4, 71, 95
4, 142080, Note_off_c, 4, 71, 95
4, 142080, Note_on_c, 4, 76, 95
4, 143520, Note_off_c, 4, 76, 95
4, 144000, Note_on_c, 4, 79, 95
4, 144480, Note_off_c, 4, 79, 95
4, 144480, Note_on_c, 4, 76, 95
4, 144600, Note_off_c, 4, 76, 95
4, 144600, Note_on_c, 4, 71, 95
4, 144960, Note_off_c, 4, 71, 95
4, 144960, Note_on_c, 4, 71, 95
4, 145200, Note_off_c, 4, 71, 95
4, 145200, Note_on_c, 4, 69, 95
4, 145440, Note_off_c, 4, 69, 95
4, 145440, Note_on_c, 4, 67, 95
4, 145600, Note_off_c, 4, 67, 95
4, 145600, Note_on_c, 4, 69, 95
4, 145760, Note_off_c, 4, 69, 95
4, 145760, Note_on_c, 4, 71, 95
4, 145920, Note_off_c, 4, 71, 95
4, 145920, Note_on_c, 4, 74, 95
4, 146160, Note_off_c, 4, 74, 95
4, 146160, Pitch_bend_c, 4, 8192
4, 146160, Note_on_c, 4, 71, 95
4, 147420, Pitch_bend_c, 4, 8192
4, 147458, Pitch_bend_c, 4, 8064
4, 147496, Pitch_bend_c, 4, 7936
4, 147534, Pitch_bend_c, 4, 7808
4, 147572, Pitch_bend_c, 4, 7680
4, 147610, Pitch_bend_c, 4, 7552
4, 147648, Pitch_bend_c, 4, 7424
4, 147686, Pitch_bend_c, 4, 7296
4, 147724, Pitch_bend_c, 4, 7168
4, 147762, Pitch_bend_c, 4, 7040
4, 147800, Pitch_bend_c, 4, 6912
4, 147838, Pitch_bend_c, 4, 6784
4, 147840, Pitch_bend_c, 4, 6784
4, 147840, Pitch_bend_c, 4, 8192
4, 147840, Note_off_c, 4, 71, 95
4, 149760, Note_on_c, 4, 76, 31
4, 149760, Note_on_c, 4, 69, 31
4, 149760, Pitch_bend_c, 4, 8192
4, 149760, Note_on_c, 4, 67, 127
4, 149803, Pitch_bend_c, 4, 8320
4, 149846, Pitch_bend_c, 4, 8448
4, 149889, Pitch_bend_c, 4, 8576
4, 149932, Pitch_bend_c, 4, 8704
4, 149975, Pitch_bend_c, 4, 8832
4, 150018, Pitch_bend_c, 4, 8960
4, 150061, Pitch_bend_c, 4, 9088
4, 150104, Pitch_bend_c, 4, 9216
4, 150147, Pitch_bend_c, 4, 9344
4, 150190, Pitch_bend_c, 4, 9472
4, 150233, Pitch_bend_c, 4, 9600
4, 150240, Pitch_bend_c, 4, 9600
4, 150720, Note_off_c, 4, 76, 31
4, 150720, Note_off_c, 4, 69, 31
4, 150720, Pitch_bend_c, 4, 9600
4, 150720, Pitch_bend_c, 4, 8192
4, 150720, Note_off_c, 4, 67, 127
4, 150960, Pitch_bend_c, 4, 8192
4, 150960, Note_on_c, 4, 71, 127
4, 151032, Pitch_bend_c, 4, 8320
4, 151104, Pitch_bend_c, 4, 8448
4, 151176, Pitch_bend_c, 4, 8576
4, 151248, Pitch_bend_c, 4, 8704
4, 151320, Pitch_bend_c, 4, 8832
4, 151320, Pitch_bend_c, 4, 8832
4, 151680, Pitch_bend_c, 4, 8832
4, 151680, Pitch_bend_c, 4, 8192
4, 151680, Note_off_c, 4, 71, 127
4, 151920, Pitch_bend_c, 4, 8192
4, 151920, Note_on_c, 4, 74, 95
4, 151952, Pitch_bend_c, 4, 8320
4, 151984, Pitch_bend_c, 4, 8448
4, 152016, Pitch_bend_c, 4, 8576
4, 152048, Pitch_bend_c, 4, 8704
4, 152080, Pitch_bend_c, 4, 8832
4, 152112, Pitch_bend_c, 4, 8960
4, 152144, Pitch_bend_c, 4, 9088
4, 152176, Pitch_bend_c, 4, 9216
4, 152208, Pitch_bend_c, 4, 9344
4, 152240, Pitch_bend_c, 4, 9472
4, 152272, Pitch_bend_c, 4, 9600
4, 152280, Pitch_bend_c, 4, 9600
4, 152640, Pitch_bend_c, 4, 9600
4, 152640, Pitch_bend_c, 4, 8192
4, 152640, Note_off_c, 4, 74, 95
4, 153120, Note_on_c, 4, 76, 95
4, 153240, Note_off_c, 4, 76, 95
4, 153240, Note_on_c, 4, 76, 95
4, 153600, Note_off_c, 4, 76, 95
4, 153600, Note_on_c, 4, 79, 95
4, 153840, Note_off_c, 4, 79, 95
4, 153840, Note_on_c, 4, 78, 95
4, 154080, Note_off_c, 4, 78, 95
4, 154080, Note_on_c, 4, 76, 95
4, 154560, Note_off_c, 4, 76, 95
4, 154560, Note_on_c, 4, 76, 95
4, 155040, Note_off_c, 4, 76, 95
4, 155040, Note_on_c, 4, 74, 95
4, 155280, Note_off_c, 4, 74, 95
4, 155280, Note_on_c, 4, 76, 95
4, 156000, Note_off_c, 4, 76, 95
4, 156000, Note_on_c, 4, 78, 95
4, 156240, Note_off_c, 4, 78, 95
4, 156960, Note_on_c, 4, 76, 95
4, 157200, Note_off_c, 4, 76, 95
4, 157200, Note_on_c, 4, 78, 95
4, 157440, Note_off_c, 4, 78, 95
4, 157440, Note_on_c, 4, 79, 95
4, 157680, Note_off_c, 4, 79, 95
4, 157680, Note_on_c, 4, 78, 95
4, 157920, Note_off_c, 4, 78, 95
4, 157920, Note_on_c, 4, 76, 95
4, 158400, Note_off_c, 4, 76, 95
4, 158400, Note_on_c, 4, 76, 95
4, 158880, Note_off_c, 4, 76, 95
4, 158880, Note_on_c, 4, 74, 95
4, 159120, Note_off_c, 4, 74, 95
4, 159120, Note_on_c, 4, 76, 95
4, 159840, Note_off_c, 4, 76, 95
4, 159840, Note_on_c, 4, 78, 95
4, 160080, Note_off_c, 4, 78, 95
4, 160800, Note_on_c, 4, 81, 95
4, 162720, Note_off_c, 4, 81, 95
4, 162720, Note_on_c, 4, 76, 95
4, 162960, Note_off_c, 4, 76, 95
4, 162960, Note_on_c, 4, 76, 79
4, 164160, Note_off_c, 4, 76, 79
4, 166800, Note_on_c, 4, 64, 95
4, 166920, Note_off_c, 4, 64, 95
4, 166920, Note_on_c, 4, 67, 95
4, 167040, Note_off_c, 4, 67, 95
4, 167040, Note_on_c, 4, 71, 95
4, 167280, Note_off_c, 4, 71, 95
4, 167280, Note_on_c, 4, 69, 95
4, 167520, Note_off_c, 4, 69, 95
4, 167520, Note_on_c, 4, 67, 95
4, 168240, Note_off_c, 4, 67, 95
4, 168240, Note_on_c, 4, 69, 95
4, 168960, Note_off_c, 4, 69, 95
4, 168960, Note_on_c, 4, 69, 95
4, 169200, Note_off_c, 4, 69, 95
4, 169200, Note_on_c, 4, 67, 95
4, 169440, Note_off_c, 4, 67, 95
4, 169440, Note_on_c, 4, 64, 95
4, 170880, Note_off_c, 4, 64, 95
4, 174720, Note_on_c, 4, 64, 95
4, 175440, Note_off_c, 4, 64, 95
4, 175440, Note_on_c, 4, 66, 95
4, 176160, Note_off_c, 4, 66, 95
4, 176160, Pitch_bend_c, 4, 8832
4, 176160, Note_on_c, 4, 66, 95
4, 176320, Pitch_bend_c, 4, 8832
4, 176352, Pitch_bend_c, 4, 8704
4, 176384, Pitch_bend_c, 4, 8576
4, 176416, Pitch_bend_c, 4, 8448
4, 176448, Pitch_bend_c, 4, 8320
4, 176480, Pitch_bend_c, 4, 8192
4, 176480, Pitch_bend_c, 4, 8192
4, 176640, Pitch_bend_c, 4, 8192
4, 176640, Pitch_bend_c, 4, 8192
4, 176640, Note_off_c, 4, 66, 95
4, 176640, Note_on_c, 4, 64, 95
4, 178560, Note_off_c, 4, 64, 95
4, 181920, Note_on_c, 4, 59, 95
4, 182400, Note_off_c, 4, 59, 95
4, 182400, Pitch_bend_c, 4, 8192
4, 182400, Note_on_c, 4, 66, 95
4, 182448, Pitch_bend_c, 4, 8320
4, 182496, Pitch_bend_c, 4, 8448
4, 182544, Pitch_bend_c, 4, 8576
4, 182592, Pitch_bend_c, 4, 8704
4, 182640, Pitch_bend_c, 4, 8832
4, 182640, Pitch_bend_c, 4, 8832
4, 182880, Pitch_bend_c, 4, 8832
4, 182880, Pitch_bend_c, 4, 8192
4, 182880, Note_off_c, 4, 66, 95
4, 182880, Note_on_c, 4, 66, 95
4, 183840, Note_off_c, 4, 66, 95
4, 183840, Note_on_c, 4, 62, 95
4, 184080, Note_off_c, 4, 62, 95
4, 184080, Note_on_c, 4, 57, 95
4, 184320, Note_off_c, 4, 57, 95
4, 184320, Note_on_c, 4, 64, 95
4, 186880, Note_off_c, 4, 64, 95
4, 186880, Note_on_c, 4, 62, 95
4, 187040, Note_off_c, 4, 62, 95
4, 187040, Note_on_c, 4, 59, 95
4, 187200, Note_off_c, 4, 59, 95
4, 187200, Note_on_c, 4, 57, 95
4, 187840, Note_off_c, 4, 57, 95
4, 187840, Note_on_c, 4, 55, 95
4, 188000, Note_off_c, 4, 55, 95
4, 188000, Note_on_c, 4, 52, 95
4, 188160, Note_off_c, 4, 52, 95
4, 188640, Note_on_c, 4, 59, 95
4, 188800, Note_off_c, 4, 59, 95
4, 188800, Note_on_c, 4, 62, 95
4, 188960, Note_off_c, 4, 62, 95
4, 188960, Note_on_c, 4, 64, 95
4, 189120, Note_off_c, 4, 64, 95
4, 189120, Note_on_c, 4, 67, 95
4, 189840, Note_off_c, 4, 67, 95
4, 189840, Note_on_c, 4, 64, 95
4, 191040, Note_off_c, 4, 64, 95
4, 191760, Note_on_c, 4, 71, 95
4, 199680, Note_off_c, 4, 71, 95
4, 199680, End_track
5, 0, Start_track
5, 0, Pitch_bend_c, 5, 8192
5, 0, Control_c, 5, 7, 127
5, 0, Control_c, 5, 10, 63
5, 0, Control_c, 5, 93, 0
5, 0, Control_c, 5, 91, 0
5, 0, Control_c, 5, 95, 0
5, 0, Control_c, 5, 92, 0
5, 0, Control_c, 5, 11, 127
5, 0, Program_c, 5, 33
5, 7440, Note_on_c, 5, 40, 95
5, 7680, Note_off_c, 5, 40, 95
5, 7680, Note_on_c, 5, 40, 95
5, 11280, Note_off_c, 5, 40, 95
5, 11280, Note_on_c, 5, 40, 95
5, 11520, Note_off_c, 5, 40, 95
5, 11520, Note_on_c, 5, 40, 95
5, 15120, Note_off_c, 5, 40, 95
5, 15120, Note_on_c, 5, 40, 95
5, 15360, Note_off_c, 5, 40, 95
5, 15360, Note_on_c, 5, 43, 95
5, 18960, Note_off_c, 5, 43, 95
5, 18960, Note_on_c, 5, 43, 95
5, 19200, Note_off_c, 5, 43, 95
5, 19200, Note_on_c, 5, 43, 95
5, 22800, Note_off_c, 5, 43, 95
5, 22800, Note_on_c, 5, 43, 95
5, 23040, Note_off_c, 5, 43, 95
5, 23040, Note_on_c, 5, 45, 95
5, 26640, Note_off_c, 5, 45, 95
5, 26640, Note_on_c, 5, 45, 95
5, 26880, Note_off_c, 5, 45, 95
5, 26880, Note_on_c, 5, 45, 95
5, 28800, Note_off_c, 5, 45, 95
5, 28800, Note_on_c, 5, 35, 95
5, 30480, Note_off_c, 5, 35, 95
5, 30480, Note_on_c, 5, 35, 95
5, 30720, Note_off_c, 5, 35, 95
5, 30720, Note_on_c, 5, 40, 95
5, 34320, Note_off_c, 5, 40, 95
5, 34320, Note_on_c, 5, 40, 95
5, 34560, Note_off_c, 5, 40, 95
5, 34560, Note_on_c, 5, 40, 95
5, 38160, Note_off_c, 5, 40, 95
5, 38160, Note_on_c, 5, 40, 95
5, 38400, Note_off_c, 5, 40, 95
5, 38400, Note_on_c, 5, 40, 95
5, 42000, Note_off_c, 5, 40, 95
5, 42000, Note_on_c, 5, 40, 95
5, 42240, Note_off_c, 5, 40, 95
5, 42240, Note_on_c, 5, 40, 95
5, 45840, Note_off_c, 5, 40, 95
5, 45840, Note_on_c, 5, 40, 95
5, 46080, Note_off_c, 5, 40, 95
5, 46080, Note_on_c, 5, 45, 95
5, 49680, Note_off_c, 5, 45, 95
5, 49680, Note_on_c, 5, 45, 95
5, 49920, Note_off_c, 5, 45, 95
5, 49920, Note_on_c, 5, 45, 95
5, 53520, Note_off_c, 5, 45, 95
5, 53520, Note_on_c, 5, 45, 95
5, 53760, Note_off_c, 5, 45, 95
5, 53760, Note_on_c, 5, 35, 95
5, 57360, Note_off_c, 5, 35, 95
5, 57360, Note_on_c, 5, 35, 95
5, 57600, Note_off_c, 5, 35, 95
5, 57600, Note_on_c, 5, 35, 95
5, 61200, Note_off_c, 5, 35, 95
5, 61200, Note_on_c, 5, 35, 95
5, 61440, Note_off_c, 5, 35, 95
5, 61440, Note_on_c, 5, 40, 95
5, 65040, Note_off_c, 5, 40, 95
5, 65040, Note_on_c, 5, 40, 95
5, 65280, Note_off_c, 5, 40, 95
5, 65280, Note_on_c, 5, 36, 95
5, 68880, Note_off_c, 5, 36, 95
5, 68880, Note_on_c, 5, 36, 95
5, 69120, Note_off_c, 5, 36, 95
5, 69120, Note_on_c, 5, 36, 95
5, 72720, Note_off_c, 5, 36, 95
5, 72720, Note_on_c, 5, 36, 95
5, 72960, Note_off_c, 5, 36, 95
5, 72960, Note_on_c, 5, 36, 95
5, 76560, Note_off_c, 5, 36, 95
5, 76560, Note_on_c, 5, 36, 95
5, 76800, Note_off_c, 5, 36, 95
5, 76800, Note_on_c, 5, 40, 95
5, 80400, Note_off_c, 5, 40, 95
5, 80400, Note_on_c, 5, 40, 95
5, 80640, Note_off_c, 5, 40, 95
5, 80640, Note_on_c, 5, 40, 95
5, 84240, Note_off_c, 5, 40, 95
5, 84240, Note_on_c, 5, 40, 95
5, 84480, Note_off_c, 5, 40, 95
5, 84480, Note_on_c, 5, 36, 95
5, 88080, Note_off_c, 5, 36, 95
5, 88080, Note_on_c, 5, 36, 95
5, 88320, Note_off_c, 5, 36, 95
5, 88320, Note_on_c, 5, 36, 95
5, 91920, Note_off_c, 5, 36, 95
5, 91920, Note_on_c, 5, 36, 95
5, 92160, Note_off_c, 5, 36, 95
5, 92160, Note_on_c, 5, 40, 95
5, 95760, Note_off_c, 5, 40, 95
5, 95760, Note_on_c, 5, 40, 95
5, 96000, Note_off_c, 5, 40, 95
5, 96000, Note_on_c, 5, 40, 95
5, 99600, Note_off_c, 5, 40, 95
5, 99600, Note_on_c, 5, 40, 95
5, 99840, Note_off_c, 5, 40, 95
5, 99840, Note_on_c, 5, 43, 95
5, 103440, Note_off_c, 5, 43, 95
5, 103440, Note_on_c, 5, 43, 95
5, 103680, Note_off_c, 5, 43, 95
5, 103680, Note_on_c, 5, 43, 95
5, 107280, Note_off_c, 5, 43, 95
5, 107280, Note_on_c, 5, 43, 95
5, 107520, Note_off_c, 5, 43, 95
5, 107520, Note_on_c, 5, 33, 95
5, 111120, Note_off_c, 5, 33, 95
5, 111120, Note_on_c, 5, 33, 95
5, 111360, Note_off_c, 5, 33, 95
5, 111360, Note_on_c, 5, 33, 95
5, 113280, Note_off_c, 5, 33, 95
5, 113280, Note_on_c, 5, 35, 95
5, 114960, Note_off_c, 5, 35, 95
5, 114960, Note_on_c, 5, 35, 95
5, 115200, Note_off_c, 5, 35, 95
5, 115200, Note_on_c, 5, 40, 95
5, 118800, Note_off_c, 5, 40, 95
5, 118800, Note_on_c, 5, 40, 95
5, 119040, Note_off_c, 5, 40, 95
5, 119040, Note_on_c, 5, 40, 95
5, 122640, Note_off_c, 5, 40, 95
5, 122640, Note_on_c, 5, 40, 95
5, 122880, Note_off_c, 5, 40, 95
5, 122880, Note_on_c, 5, 43, 95
5, 126480, Note_off_c, 5, 43, 95
5, 126480, Note_on_c, 5, 43, 95
5, 126720, Note_off_c, 5, 43, 95
5, 126720, Note_on_c, 5, 40, 95
5, 130320, Note_off_c, 5, 40, 95
5, 130320, Note_on_c, 5, 40, 95
5, 130560, Note_off_c, 5, 40, 95
5, 130560, Note_on_c, 5, 36, 95
5, 134160, Note_off_c, 5, 36, 95
5, 134160, Note_on_c, 5, 36, 95
5, 134400, Note_off_c, 5, 36, 95
5, 134400, Note_on_c, 5, 36, 95
5, 138000, Note_off_c, 5, 36, 95
5, 138000, Note_on_c, 5, 36, 95
5, 138240, Note_off_c, 5, 36, 95
5, 138240, Note_on_c, 5, 40, 95
5, 141840, Note_off_c, 5, 40, 95
5, 141840, Note_on_c, 5, 40, 95
5, 142080, Note_off_c, 5, 40, 95
5, 142080, Note_on_c, 5, 40, 95
5, 145680, Note_off_c, 5, 40, 95
5, 145680, Note_on_c, 5, 40, 95
5, 145920, Note_off_c, 5, 40, 95
5, 145920, Note_on_c, 5, 36, 95
5, 149520, Note_off_c, 5, 36, 95
5, 149520, Note_on_c, 5, 36, 95
5, 149760, Note_off_c, 5, 36, 95
5, 149760, Note_on_c, 5, 36, 95
5, 153360, Note_off_c, 5, 36, 95
5, 153360, Note_on_c, 5, 36, 95
5, 153600, Note_off_c, 5, 36, 95
5, 153600, Note_on_c, 5, 40, 95
5, 157200, Note_off_c, 5, 40, 95
5, 157200, Note_on_c, 5, 40, 95
5, 157440, Note_off_c, 5, 40, 95
5, 157440, Note_on_c, 5, 40, 95
5, 161040, Note_off_c, 5, 40, 95
5, 161040, Note_on_c, 5, 40, 95
5, 161280, Note_off_c, 5, 40, 95
5, 161280, Note_on_c, 5, 40, 95
5, 164880, Note_off_c, 5, 40, 95
5, 164880, Note_on_c, 5, 40, 95
5, 165120, Note_off_c, 5, 40, 95
5, 165120, Note_on_c, 5, 40, 95
5, 168720, Note_off_c, 5, 40, 95
5, 168720, Note_on_c, 5, 40, 95
5, 168960, Note_off_c, 5, 40, 95
5, 168960, Note_on_c, 5, 43, 95
5, 172560, Note_off_c, 5, 43, 95
5, 172560, Note_on_c, 5, 43, 95
5, 172800, Note_off_c, 5, 43, 95
5, 172800, Note_on_c, 5, 43, 95
5, 176400, Note_off_c, 5, 43, 95
5, 176400, Note_on_c, 5, 43, 95
5, 176640, Note_off_c, 5, 43, 95
5, 176640, Note_on_c, 5, 45, 95
5, 180240, Note_off_c, 5, 45, 95
5, 180240, Note_on_c, 5, 45, 95
5, 180480, Note_off_c, 5, 45, 95
5, 180480, Note_on_c, 5, 35, 95
5, 184080, Note_off_c, 5, 35, 95
5, 184080, Note_on_c, 5, 35, 95
5, 184320, Note_off_c, 5, 35, 95
5, 184320, Note_on_c, 5, 36, 95
5, 187920, Note_off_c, 5, 36, 95
5, 187920, Note_on_c, 5, 36, 95
5, 188160, Note_off_c, 5, 36, 95
5, 188160, Note_on_c, 5, 38, 95
5, 191760, Note_off_c, 5, 38, 95
5, 191760, Note_on_c, 5, 38, 95
5, 192000, Note_off_c, 5, 38, 95
5, 192000, Note_on_c, 5, 40, 95
5, 195600, Note_off_c, 5, 40, 95
5, 195600, Note_on_c, 5, 40, 95
5, 195840, Note_off_c, 5, 40, 95
5, 195840, Note_on_c, 5, 40, 95
5, 199680, Note_off_c, 5, 40, 95
5, 199680, End_track
6, 0, Start_track
6, 0, Pitch_bend_c, 9, 8192
6, 0, Control_c, 9, 7, 127
6, 0, Control_c, 9, 10, 63
6, 0, Control_c, 9, 93, 0
6, 0, Control_c, 9, 91, 0
6, 0, Control_c, 9, 95, 0
6, 0, Control_c, 9, 92, 0
6, 0, Control_c, 9, 11, 127
6, 0, Program_c, 9, 0
6, 0, Note_on_c, 9, 42, 95
6, 0, Note_on_c, 9, 36, 95
6, 480, Note_off_c, 9, 42, 95
6, 480, Note_off_c, 9, 36, 95
6, 480, Note_on_c, 9, 42, 95
6, 960, Note_off_c, 9, 42, 95
6, 960, Note_on_c, 9, 42, 95
6, 960, Note_on_c, 9, 38, 95
6, 1440, Note_off_c, 9, 42, 95
6, 1440, Note_off_c, 9, 38, 95
6, 1440, Note_on_c, 9, 42, 95
6, 1920, Note_off_c, 9, 42, 95
6, 1920, Note_on_c, 9, 42, 95
6, 2400, Note_off_c, 9, 42, 95
6, 2400, Note_on_c, 9, 42, 95
6, 2880, Note_off_c, 9, 42, 95
6, 2880, Note_on_c, 9, 42, 95
6, 2880, Note_on_c, 9, 38, 95
6, 3360, Note_off_c, 9, 42, 95
6, 3360, Note_off_c, 9, 38, 95
6, 3360, Note_on_c, 9, 42, 95
6, 3840, Note_off_c, 9, 42, 95
6, 3840, Note_on_c, 9, 42, 95
6, 3840, Note_on_c, 9, 36, 95
6, 4320, Note_off_c, 9, 42, 95
6, 4320, Note_off_c, 9, 36, 95
6, 4320, Note_on_c, 9, 42, 95
6, 4800, Note_off_c, 9, 42, 95
6, 4800, Note_on_c, 9, 42, 95
6, 4800, Note_on_c, 9, 38, 95
6, 5280, Note_off_c, 9, 42, 95
6, 5280, Note_off_c, 9, 38, 95
6, 5280, Note_on_c, 9, 42, 95
6, 5760, Note_off_c, 9, 42, 95
6, 5760, Note_on_c, 9, 42, 95
6, 6240, Note_off_c, 9, 42, 95
6, 6240, Note_on_c, 9, 42, 95
6, 6720, Note_off_c, 9, 42, 95
6, 6720, Note_on_c, 9, 42, 95
6, 6720, Note_on_c, 9, 38, 95
6, 7200, Note_off_c, 9, 42, 95
6, 7200, Note_off_c, 9, 38, 95
6, 7200, Note_on_c, 9, 42, 95
6, 7680, Note_off_c, 9, 42, 95
6, 7680, Note_on_c, 9, 35, 95
6, 7920, Note_off_c, 9, 35, 95
6, 7920, Note_on_c, 9, 36, 95
6, 8160, Note_off_c, 9, 36, 95
6, 8160, Note_on_c, 9, 42, 95
6, 8640, Note_off_c, 9, 42, 95
6, 8640, Note_on_c, 9, 42, 95
6, 8640, Note_on_c, 9, 38, 95
6, 9120, Note_off_c, 9, 42, 95
6, 9120, Note_off_c, 9, 38, 95
6, 9120, Note_on_c, 9, 42, 95
6, 9600, Note_off_c, 9, 42, 95
6, 9600, Note_on_c, 9, 42, 95
6, 10080, Note_off_c, 9, 42, 95
6, 10080, Note_on_c, 9, 42, 95
6, 10560, Note_off_c, 9, 42, 95
6, 10560, Note_on_c, 9, 42, 95
6, 10560, Note_on_c, 9, 38, 95
6, 11040, Note_off_c, 9, 42, 95
6, 11040, Note_off_c, 9, 38, 95
6, 11040, Note_on_c, 9, 42, 95
6, 11520, Note_off_c, 9, 42, 95
6, 11520, Note_on_c, 9, 42, 95
6, 11520, Note_on_c, 9, 36, 95
6, 12000, Note_off_c, 9, 42, 95
6, 12000, Note_off_c, 9, 36, 95
6, 12000, Note_on_c, 9, 42, 95
6, 12480, Note_off_c, 9, 42, 95
6, 12480, Note_on_c, 9, 42, 95
6, 12480, Note_on_c, 9, 38, 95
6, 12960, Note_off_c, 9, 42, 95
6, 12960, Note_off_c, 9, 38, 95
6, 12960, Note_on_c, 9, 42, 95
6, 13440, Note_off_c, 9, 42, 95
6, 13440, Note_on_c, 9, 42, 95
6, 13920, Note_off_c, 9, 42, 95
6, 13920, Note_on_c, 9, 42, 95
6, 14400, Note_off_c, 9, 42, 95
6, 14400, Note_on_c, 9, 42, 95
6, 14400, Note_on_c, 9, 38, 95
6, 14880, Note_off_c, 9, 42, 95
6, 14880, Note_off_c, 9, 38, 95
6, 14880, Note_on_c, 9, 42, 95
6, 15360, Note_off_c, 9, 42, 95
6, 15360, Note_on_c, 9, 35, 95
6, 15600, Note_off_c, 9, 35, 95
6, 15600, Note_on_c, 9, 36, 95
6, 15840, Note_off_c, 9, 36, 95
6, 15840, Note_on_c, 9, 42, 95
6, 16320, Note_off_c, 9, 42, 95
6, 16320, Note_on_c, 9, 42, 95
6, 16320, Note_on_c, 9, 38, 95
6, 16800, Note_off_c, 9, 42, 95
6, 16800, Note_off_c, 9, 38, 95
6, 16800, Note_on_c, 9, 42, 95
6, 17280, Note_off_c, 9, 42, 95
6, 17280, Note_on_c, 9, 42, 95
6, 17760, Note_off_c, 9, 42, 95
6, 17760, Note_on_c, 9, 42, 95
6, 18240, Note_off_c, 9, 42, 95
6, 18240, Note_on_c, 9, 42, 95
6, 18240, Note_on_c, 9, 38, 95
6, 18720, Note_off_c, 9, 42, 95
6, 18720, Note_off_c, 9, 38, 95
6, 18720, Note_on_c, 9, 42, 95
6, 19200, Note_off_c, 9, 42, 95
6, 19200, Note_on_c, 9, 42, 95
6, 19200, Note_on_c, 9, 36, 95
6, 19680, Note_off_c, 9, 42, 95
6, 19680, Note_off_c, 9, 36, 95
6, 19680, Note_on_c, 9, 42, 95
6, 20160, Note_off_c, 9, 42, 95
6, 20160, Note_on_c, 9, 42, 95
6, 20160, Note_on_c, 9, 38, 95
6, 20640, Note_off_c, 9, 42, 95
6, 20640, Note_off_c, 9, 38, 95
6, 20640, Note_on_c, 9, 42, 95
6, 21120, Note_off_c, 9, 42, 95
6, 21120, Note_on_c, 9, 42, 95
6, 21600, Note_off_c, 9, 42, 95
6, 21600, Note_on_c, 9, 42, 95
6, 22080, Note_off_c, 9, 42, 95
6, 22080, Note_on_c, 9, 42, 95
6, 22080, Note_on_c, 9, 38, 95
6, 22560, Note_off_c, 9, 42, 95
6, 22560, Note_off_c, 9, 38, 95
6, 22560, Note_on_c, 9, 42, 95
6, 23040, Note_off_c, 9, 42, 95
6, 23040, Note_on_c, 9, 35, 95
6, 23280, Note_off_c, 9, 35, 95
6, 23280, Note_on_c, 9, 36, 95
6, 23520, Note_off_c, 9, 36, 95
6, 23520, Note_on_c, 9, 42, 95
6, 24000, Note_off_c, 9, 42, 95
6, 24000, Note_on_c, 9, 42, 95
6, 24000, Note_on_c, 9, 38, 95
6, 24480, Note_off_c, 9, 42, 95
6, 24480, Note_off_c, 9, 38, 95
6, 24480, Note_on_c, 9, 42, 95
6, 24960, Note_off_c, 9, 42, 95
6, 24960, Note_on_c, 9, 42, 95
6, 25440, Note_off_c, 9, 42, 95
6, 25440, Note_on_c, 9, 42, 95
6, 25920, Note_off_c, 9, 42, 95
6, 25920, Note_on_c, 9, 42, 95
6, 25920, Note_on_c, 9, 38, 95
6, 26400, Note_off_c, 9, 42, 95
6, 26400, Note_off_c, 9, 38, 95
6, 26400, Note_on_c, 9, 42, 95
6, 26880, Note_off_c, 9, 42, 95
6, 26880, Note_on_c, 9, 42, 95
6, 26880, Note_on_c, 9, 36, 95
6, 27360, Note_off_c, 9, 42, 95
6, 27360, Note_off_c, 9, 36, 95
6, 27360, Note_on_c, 9, 42, 95
6, 27840, Note_off_c, 9, 42, 95
6, 27840, Note_on_c, 9, 42, 95
6, 27840, Note_on_c, 9, 38, 95
6, 28320, Note_off_c, 9, 42, 95
6, 28320, Note_off_c, 9, 38, 95
6, 28320, Note_on_c, 9, 42, 95
6, 28800, Note_off_c, 9, 42, 95
6, 28800, Note_on_c, 9, 42, 95
6, 29280, Note_off_c, 9, 42, 95
6, 29280, Note_on_c, 9, 42, 95
6, 29760, Note_off_c, 9, 42, 95
6, 29760, Note_on_c, 9, 42, 95
6, 29760, Note_on_c, 9, 38, 95
6, 30240, Note_off_c, 9, 42, 95
6, 30240, Note_off_c, 9, 38, 95
6, 30240, Note_on_c, 9, 42, 95
6, 30720, Note_off_c, 9, 42, 95
6, 30720, Note_on_c, 9, 35, 95
6, 30960, Note_off_c, 9, 35, 95
6, 30960, Note_on_c, 9, 36, 95
6, 31200, Note_off_c, 9, 36, 95
6, 31200, Note_on_c, 9, 42, 95
6, 31680, Note_off_c, 9, 42, 95
6, 31680, Note_on_c, 9, 42, 95
6, 31680, Note_on_c, 9, 38, 95
6, 32160, Note_off_c, 9, 42, 95
6, 32160, Note_off_c, 9, 38, 95
6, 32160, Note_on_c, 9, 42, 95
6, 32640, Note_off_c, 9, 42, 95
6, 32640, Note_on_c, 9, 42, 95
6, 33120, Note_off_c, 9, 42, 95
6, 33120, Note_on_c, 9, 42, 95
6, 33600, Note_off_c, 9, 42, 95
6, 33600, Note_on_c, 9, 42, 95
6, 33600, Note_on_c, 9, 38, 95
6, 34080, Note_off_c, 9, 42, 95
6, 34080, Note_off_c, 9, 38, 95
6, 34080, Note_on_c, 9, 42, 95
6, 34560, Note_off_c, 9, 42, 95
6, 34560, Note_on_c, 9, 42, 95
6, 34560, Note_on_c, 9, 36, 95
6, 35040, Note_off_c, 9, 42, 95
6, 35040, Note_off_c, 9, 36, 95
6, 35040, Note_on_c, 9, 42, 95
6, 35520, Note_off_c, 9, 42, 95
6, 35520, Note_on_c, 9, 42, 95
6, 35520, Note_on_c, 9, 38, 95
6, 36000, Note_off_c, 9, 42, 95
6, 36000, Note_off_c, 9, 38, 95
6, 36000, Note_on_c, 9, 42, 95
6, 36480, Note_off_c, 9, 42, 95
6, 36480, Note_on_c, 9, 42, 95
6, 36960, Note_off_c, 9, 42, 95
6, 36960, Note_on_c, 9, 42, 95
6, 37440, Note_off_c, 9, 42, 95
6, 37440, Note_on_c, 9, 42, 95
6, 37440, Note_on_c, 9, 38, 95
6, 37920, Note_off_c, 9, 42, 95
6, 37920, Note_off_c, 9, 38, 95
6, 37920, Note_on_c, 9, 42, 95
6, 38400, Note_off_c, 9, 42, 95
6, 38400, Note_on_c, 9, 35, 95
6, 38640, Note_off_c, 9, 35, 95
6, 38640, Note_on_c, 9, 36, 95
6, 38880, Note_off_c, 9, 36, 95
6, 38880, Note_on_c, 9, 42, 95
6, 39360, Note_off_c, 9, 42, 95
6, 39360, Note_on_c, 9, 42, 95
6, 39360, Note_on_c, 9, 38, 95
6, 39840, Note_off_c, 9, 42, 95
6, 39840, Note_off_c, 9, 38, 95
6, 39840, Note_on_c, 9, 42, 95
6, 40320, Note_off_c, 9, 42, 95
6, 40320, Note_on_c, 9, 42, 95
6, 40800, Note_off_c, 9, 42, 95
6, 40800, Note_on_c, 9, 42, 95
6, 41280, Note_off_c, 9, 42, 95
6, 41280, Note_on_c, 9, 42, 95
6, 41280, Note_on_c, 9, 38, 95
6, 41760, Note_off_c, 9, 42, 95
6, 41760, Note_off_c, 9, 38, 95
6, 41760, Note_on_c, 9, 42, 95
6, 42240, Note_off_c, 9, 42, 95
6, 42240, Note_on_c, 9, 42, 95
6, 42240, Note_on_c, 9, 36, 95
6, 42720, Note_off_c, 9, 42, 95
6, 42720, Note_off_c, 9, 36, 95
6, 42720, Note_on_c, 9, 42, 95
6, 43200, Note_off_c, 9, 42, 95
6, 43200, Note_on_c, 9, 42, 95
6, 43200, Note_on_c, 9, 38, 95
6, 43680, Note_off_c, 9, 42, 95
6, 43680, Note_off_c, 9, 38, 95
6, 43680, Note_on_c, 9, 42, 95
6, 44160, Note_off_c, 9, 42, 95
6, 44160, Note_on_c, 9, 42, 95
6, 44640, Note_off_c, 9, 42, 95
6, 44640, Note_on_c, 9, 42, 95
6, 45120, Note_off_c, 9, 42, 95
6, 45120, Note_on_c, 9, 42, 95
6, 45120, Note_on_c, 9, 38, 95
6, 45600, Note_off_c, 9, 42, 95
6, 45600, Note_off_c, 9, 38, 95
6, 45600, Note_on_c, 9, 42, 95
6, 46080, Note_off_c, 9, 42, 95
6, 46080, Note_on_c, 9, 35, 95
6, 46320, Note_off_c, 9, 35, 95
6, 46320, Note_on_c, 9, 36, 95
6, 46560, Note_off_c, 9, 36, 95
6, 46560, Note_on_c, 9, 42, 95
6, 47040, Note_off_c, 9, 42, 95
6, 47040, Note_on_c, 9, 42, 95
6, 47040, Note_on_c, 9, 38, 95
6, 47520, Note_off_c, 9, 42, 95
6, 47520, Note_off_c, 9, 38, 95
6, 47520, Note_on_c, 9, 42, 95
6, 48000, Note_off_c, 9, 42, 95
6, 48000, Note_on_c, 9, 42, 95
6, 48480, Note_off_c, 9, 42, 95
6, 48480, Note_on_c, 9, 42, 95
6, 48960, Note_off_c, 9, 42, 95
6, 48960, Note_on_c, 9, 42, 95
6, 48960, Note_on_c, 9, 38, 95
6, 49440, Note_off_c, 9, 42, 95
6, 49440, Note_off_c, 9, 38, 95
6, 49440, Note_on_c, 9, 42, 95
6, 49920, Note_off_c, 9, 42, 95
6, 49920, Note_on_c, 9, 42, 95
6, 49920, Note_on_c, 9, 36, 95
6, 50400, Note_off_c, 9, 42, 95
6, 50400, Note_off_c, 9, 36, 95
6, 50400, Note_on_c, 9, 42, 95
6, 50880, Note_off_c, 9, 42, 95
6, 50880, Note_on_c, 9, 42, 95
6, 50880, Note_on_c, 9, 38, 95
6, 51360, Note_off_c, 9, 42, 95
6, 51360, Note_off_c, 9, 38, 95
6, 51360, Note_on_c, 9, 42, 95
6, 51840, Note_off_c, 9, 42, 95
6, 51840, Note_on_c, 9, 42, 95
6, 52320, Note_off_c, 9, 42, 95
6, 52320, Note_on_c, 9, 42, 95
6, 52800, Note_off_c, 9, 42, 95
6, 52800, Note_on_c, 9, 42, 95
6, 52800, Note_on_c, 9, 38, 95
6, 53280, Note_off_c, 9, 42, 95
6, 53280, Note_off_c, 9, 38, 95
6, 53280, Note_on_c, 9, 42, 95
6, 53760, Note_off_c, 9, 42, 95
6, 53760, Note_on_c, 9, 35, 95
6, 54000, Note_off_c, 9, 35, 95
6, 54000, Note_on_c, 9, 36, 95
6, 54240, Note_off_c, 9, 36, 95
6, 54240, Note_on_c, 9, 42, 95
6, 54720, Note_off_c, 9, 42, 95
6, 54720, Note_on_c, 9, 42, 95
6, 54720, Note_on_c, 9, 38, 95
6, 55200, Note_off_c, 9, 42, 95
6, 55200, Note_off_c, 9, 38, 95
6, 55200, Note_on_c, 9, 42, 95
6, 55680, Note_off_c, 9, 42, 95
6, 55680, Note_on_c, 9, 42, 95
6, 56160, Note_off_c, 9, 42, 95
6, 56160, Note_on_c, 9, 42, 95
6, 56640, Note_off_c, 9, 42, 95
6, 56640, Note_on_c, 9, 42, 95
6, 56640, Note_on_c, 9, 38, 95
6, 57120, Note_off_c, 9, 42, 95
6, 57120, Note_off_c, 9, 38, 95
6, 57120, Note_on_c, 9, 42, 95
6, 57600, Note_off_c, 9, 42, 95
6, 57600, Note_on_c, 9, 42, 95
6, 57600, Note_on_c, 9, 36, 95
6, 58080, Note_off_c, 9, 42, 95
6, 58080, Note_off_c, 9, 36, 95
6, 58080, Note_on_c, 9, 42, 95
6, 58560, Note_off_c, 9, 42, 95
6, 58560, Note_on_c, 9, 42, 95
6, 58560, Note_on_c, 9, 38, 95
6, 59040, Note_off_c, 9, 42, 95
6, 59040, Note_off_c, 9, 38, 95
6, 59040, Note_on_c, 9, 42, 95
6, 59520, Note_off_c, 9, 42, 95
6, 59520, Note_on_c, 9, 42, 95
6, 60000, Note_off_c, 9, 42, 95
6, 60000, Note_on_c, 9, 42, 95
6, 60480, Note_off_c, 9, 42, 95
6, 60480, Note_on_c, 9, 42, 95
6, 60480, Note_on_c, 9, 38, 95
6, 60960, Note_off_c, 9, 42, 95
6, 60960, Note_off_c, 9, 38, 95
6, 60960, Note_on_c, 9, 42, 95
6, 61440, Note_off_c, 9, 42, 95
6, 61440, Note_on_c, 9, 35, 95
6, 61680, Note_off_c, 9, 35, 95
6, 61680, Note_on_c, 9, 36, 95
6, 61920, Note_off_c, 9, 36, 95
6, 61920, Note_on_c, 9, 42, 95
6, 62400, Note_off_c, 9, 42, 95
6, 62400, Note_on_c, 9, 42, 95
6, 62400, Note_on_c, 9, 38, 95
6, 62880, Note_off_c, 9, 42, 95
6, 62880, Note_off_c, 9, 38, 95
6, 62880, Note_on_c, 9, 42, 95
6, 63360, Note_off_c, 9, 42, 95
6, 63360, Note_on_c, 9, 42, 95
6, 63840, Note_off_c, 9, 42, 95
6, 63840, Note_on_c, 9, 42, 95
6, 64320, Note_off_c, 9, 42, 95
6, 64320, Note_on_c, 9, 42, 95
6, 64320, Note_on_c, 9, 38, 95
6, 64800, Note_off_c, 9, 42, 95
6, 64800, Note_off_c, 9, 38, 95
6, 64800, Note_on_c, 9, 42, 95
6, 65280, Note_off_c, 9, 42, 95
6, 65280, Note_on_c, 9, 42, 95
6, 65280, Note_on_c, 9, 36, 95
6, 65760, Note_off_c, 9, 42, 95
6, 65760, Note_off_c, 9, 36, 95
6, 65760, Note_on_c, 9, 42, 95
6, 66240, Note_off_c, 9, 42, 95
6, 66240, Note_on_c, 9, 42, 95
6, 66240, Note_on_c, 9, 38, 95
6, 66720, Note_off_c, 9, 42, 95
6, 66720, Note_off_c, 9, 38, 95
6, 66720, Note_on_c, 9, 42, 95
6, 67200, Note_off_c, 9, 42, 95
6, 67200, Note_on_c, 9, 42, 95
6, 67680, Note_off_c, 9, 42, 95
6, 67680, Note_on_c, 9, 42, 95
6, 68160, Note_off_c, 9, 42, 95
6, 68160, Note_on_c, 9, 42, 95
6, 68160, Note_on_c, 9, 38, 95
6, 68640, Note_off_c, 9, 42, 95
6, 68640, Note_off_c, 9, 38, 95
6, 68640, Note_on_c, 9, 42, 95
6, 69120, Note_off_c, 9, 42, 95
6, 69120, Note_on_c, 9, 35, 95
6, 69360, Note_off_c, 9, 35, 95
6, 69360, Note_on_c, 9, 36, 95
6, 69600, Note_off_c, 9, 36, 95
6, 69600, Note_on_c, 9, 42, 95
6, 70080, Note_off_c, 9, 42, 95
6, 70080, Note_on_c, 9, 42, 95
6, 70080, Note_on_c, 9, 38, 95
6, 70560, Note_off_c, 9, 42, 95
6, 70560, Note_off_c, 9, 38, 95
6, 70560, Note_on_c, 9, 42, 95
6, 71040, Note_off_c, 9, 42, 95
6, 71040, Note_on_c, 9, 42, 95
6, 71520, Note_off_c, 9, 42, 95
6, 71520, Note_on_c, 9, 42, 95
6, 72000, Note_off_c, 9, 42, 95
6, 72000, Note_on_c, 9, 42, 95
6, 72000, Note_on_c, 9, 38, 95
6, 72480, Note_off_c, 9, 42, 95
6, 72480, Note_off_c, 9, 38, 95
6, 72480, Note_on_c, 9, 42, 95
6, 72960, Note_off_c, 9, 42, 95
6, 72960, Note_on_c, 9, 42, 95
6, 72960, Note_on_c, 9, 36, 95
6, 73440, Note_off_c, 9, 42, 95
6, 73440, Note_off_c, 9, 36, 95
6, 73440, Note_on_c, 9, 42, 95
6, 73920, Note_off_c, 9, 42, 95
6, 73920, Note_on_c, 9, 42, 95
6, 73920, Note_on_c, 9, 38, 95
6, 74400, Note_off_c, 9, 42, 95
6, 74400, Note_off_c, 9, 38, 95
6, 74400, Note_on_c, 9, 42, 95
6, 74880, Note_off_c, 9, 42, 95
6, 74880, Note_on_c, 9, 42, 95
6, 75360, Note_off_c, 9, 42, 95
6, 75360, Note_on_c, 9, 42, 95
6, 75840, Note_off_c, 9, 42, 95
6, 75840, Note_on_c, 9, 42, 95
6, 75840, Note_on_c, 9, 38, 95
6, 76320, Note_off_c, 9, 42, 95
6, 76320, Note_off_c, 9, 38, 95
6, 76320, Note_on_c, 9, 42, 95
6, 76800, Note_off_c, 9, 42, 95
6, 76800, Note_on_c, 9, 35, 95
6, 77040, Note_off_c, 9, 35, 95
6, 77040, Note_on_c, 9, 36, 95
6, 77280, Note_off_c, 9, 36, 95
6, 77280, Note_on_c, 9, 42, 95
6, 77760, Note_off_c, 9, 42, 95
6, 77760, Note_on_c, 9, 42, 95
6, 77760, Note_on_c, 9, 38, 95
6, 78240, Note_off_c, 9, 42, 95
6, 78240, Note_off_c, 9, 38, 95
6, 78240, Note_on_c, 9, 42, 95
6, 78720, Note_off_c, 9, 42, 95
6, 78720, Note_on_c, 9, 42, 95
6, 79200, Note_off_c, 9, 42, 95
6, 79200, Note_on_c, 9, 42, 95
6, 79680, Note_off_c, 9, 42, 95
6, 79680, Note_on_c, 9, 42, 95
6, 79680, Note_on_c, 9, 38, 95
6, 80160, Note_off_c, 9, 42, 95
6, 80160, Note_off_c, 9, 38, 95
6, 80160, Note_on_c, 9, 42, 95
6, 80640, Note_off_c, 9, 42, 95
6, 80640, Note_on_c, 9, 42, 95
6, 80640, Note_on_c, 9, 36, 95
6, 81120, Note_off_c, 9, 42, 95
6, 81120, Note_off_c, 9, 36, 95
6, 81120, Note_on_c, 9, 42, 95
6, 81600, Note_off_c, 9, 42, 95
6, 81600, Note_on_c, 9, 42, 95
6, 81600, Note_on_c, 9, 38, 95
6, 82080, Note_off_c, 9, 42, 95
6, 82080, Note_off_c, 9, 38, 95
6, 82080, Note_on_c, 9, 42, 95
6, 82560, Note_off_c, 9, 42, 95
6, 82560, Note_on_c, 9, 42, 95
6, 83040, Note_off_c, 9, 42, 95
6, 83040, Note_on_c, 9, 42, 95
6, 83520, Note_off_c, 9, 42, 95
6, 83520, Note_on_c, 9, 42, 95
6, 83520, Note_on_c, 9, 38, 95
6, 84000, Note_off_c, 9, 42, 95
6, 84000, Note_off_c, 9, 38, 95
6, 84000, Note_on_c, 9, 42, 95
6, 84480, Note_off_c, 9, 42, 95
6, 84480, Note_on_c, 9, 35, 95
6, 84720, Note_off_c, 9, 35, 95
6, 84720, Note_on_c, 9, 36, 95
6, 84960, Note_off_c, 9, 36, 95
6, 84960, Note_on_c, 9, 42, 95
6, 85440, Note_off_c, 9, 42, 95
6, 85440, Note_on_c, 9, 42, 95
6, 85440, Note_on_c, 9, 38, 95
6, 85920, Note_off_c, 9, 42, 95
6, 85920, Note_off_c, 9, 38, 95
6, 85920, Note_on_c, 9, 42, 95
6, 86400, Note_off_c, 9, 42, 95
6, 86400, Note_on_c, 9, 42, 95
6, 86880, Note_off_c, 9, 42, 95
6, 86880, Note_on_c, 9, 42, 95
6, 87360, Note_off_c, 9, 42, 95
6, 87360, Note_on_c, 9, 42, 95
6, 87360, Note_on_c, 9, 38, 95
6, 87840, Note_off_c, 9, 42, 95
6, 87840, Note_off_c, 9, 38, 95
6, 87840, Note_on_c, 9, 42, 95
6, 88320, Note_off_c, 9, 42, 95
6, 88320, Note_on_c, 9, 42, 95
6, 88320, Note_on_c, 9, 36, 95
6, 88800, Note_off_c, 9, 42, 95
6, 88800, Note_off_c, 9, 36, 95
6, 88800, Note_on_c, 9, 42, 95
6, 89280, Note_off_c, 9, 42, 95
6, 89280, Note_on_c, 9, 42, 95
6, 89280, Note_on_c, 9, 38, 95
6, 89760, Note_off_c, 9, 42, 95
6, 89760, Note_off_c, 9, 38, 95
6, 89760, Note_on_c, 9, 42, 95
6, 90240, Note_off_c, 9, 42, 95
6, 90240, Note_on_c, 9, 42, 95
6, 90720, Note_off_c, 9, 42, 95
6, 90720, Note_on_c, 9, 42, 95
6, 91200, Note_off_c, 9, 42, 95
6, 91200, Note_on_c, 9, 42, 95
6, 91200, Note_on_c, 9, 38, 95
6, 91680, Note_off_c, 9, 42, 95
6, 91680, Note_off_c, 9, 38, 95
6, 91680, Note_on_c, 9, 42, 95
6, 92160, Note_off_c, 9, 42, 95
6, 92160, Note_on_c, 9, 35, 95
6, 92400, Note_off_c, 9, 35, 95
6, 92400, Note_on_c, 9, 36, 95
6, 92640, Note_off_c, 9, 36, 95
6, 92640, Note_on_c, 9, 42, 95
6, 93120, Note_off_c, 9, 42, 95
6, 93120, Note_on_c, 9, 42, 95
6, 93120, Note_on_c, 9, 38, 95
6, 93600, Note_off_c, 9, 42, 95
6, 93600, Note_off_c, 9, 38, 95
6, 93600, Note_on_c, 9, 42, 95
6, 94080, Note_off_c, 9, 42, 95
6, 94080, Note_on_c, 9, 42, 95
6, 94560, Note_off_c, 9, 42, 95
6, 94560, Note_on_c, 9, 42, 95
6, 95040, Note_off_c, 9, 42, 95
6, 95040, Note_on_c, 9, 42, 95
6, 95040, Note_on_c, 9, 38, 95
6, 95520, Note_off_c, 9, 42, 95
6, 95520, Note_off_c, 9, 38, 95
6, 95520, Note_on_c, 9, 42, 95
6, 96000, Note_off_c, 9, 42, 95
6, 96000, Note_on_c, 9, 42, 95
6, 96000, Note_on_c, 9, 36, 95
6, 96480, Note_off_c, 9, 42, 95
6, 96480, Note_off_c, 9, 36, 95
6, 96480, Note_on_c, 9, 42, 95
6, 96960, Note_off_c, 9, 42, 95
6, 96960, Note_on_c, 9, 42, 95
6, 96960, Note_on_c, 9, 38, 95
6, 97440, Note_off_c, 9, 42, 95
6, 97440, Note_off_c, 9, 38, 95
6, 97440, Note_on_c, 9, 42, 95
6, 97920, Note_off_c, 9, 42, 95
6, 97920, Note_on_c, 9, 42, 95
6, 98400, Note_off_c, 9, 42, 95
6, 98400, Note_on_c, 9, 42, 95
6, 98880, Note_off_c, 9, 42, 95
6, 98880, Note_on_c, 9, 42, 95
6, 98880, Note_on_c, 9, 38, 95
6, 99360, Note_off_c, 9, 42, 95
6, 99360, Note_off_c, 9, 38, 95
6, 99360, Note_on_c, 9, 42, 95
6, 99840, Note_off_c, 9, 42, 95
6, 99840, Note_on_c, 9, 35, 95
6, 100080, Note_off_c, 9, 35, 95
6, 100080, Note_on_c, 9, 36, 95
6, 100320, Note_off_c, 9, 36, 95
6, 100320, Note_on_c, 9, 42, 95
6, 100800, Note_off_c, 9, 42, 95
6, 100800, Note_on_c, 9, 42, 95
6, 100800, Note_on_c, 9, 38, 95
6, 101280, Note_off_c, 9, 42, 95
6, 101280, Note_off_c, 9, 38, 95
6, 101280, Note_on_c, 9, 42, 95
6, 101760, Note_off_c, 9, 42, 95
6, 101760, Note_on_c, 9, 42, 95
6, 102240, Note_off_c, 9, 42, 95
6, 102240, Note_on_c, 9, 42, 95
6, 102720, Note_off_c, 9, 42, 95
6, 102720, Note_on_c, 9, 42, 95
6, 102720, Note_on_c, 9, 38, 95
6, 103200, Note_off_c, 9, 42, 95
6, 103200, Note_off_c, 9, 38, 95
6, 103200, Note_on_c, 9, 42, 95
6, 103680, Note_off_c, 9, 42, 95
6, 103680, Note_on_c, 9, 42, 95
6, 103680, Note_on_c, 9, 36, 95
6, 104160, Note_off_c, 9, 42, 95
6, 104160, Note_off_c, 9, 36, 95
6, 104160, Note_on_c, 9, 42, 95
6, 104640, Note_off_c, 9, 42, 95
6, 104640, Note_on_c, 9, 42, 95
6, 104640, Note_on_c, 9, 38, 95
6, 105120, Note_off_c, 9, 42, 95
6, 105120, Note_off_c, 9, 38, 95
6, 105120, Note_on_c, 9, 42, 95
6, 105600, Note_off_c, 9, 42, 95
6, 105600, Note_on_c, 9, 42, 95
6, 106080, Note_off_c, 9, 42, 95
6, 106080, Note_on_c, 9, 42, 95
6, 106560, Note_off_c, 9, 42, 95
6, 106560, Note_on_c, 9, 42, 95
6, 106560, Note_on_c, 9, 38, 95
6, 107040, Note_off_c, 9, 42, 95
6, 107040, Note_off_c, 9, 38, 95
6, 107040, Note_on_c, 9, 42, 95
6, 107520, Note_off_c, 9, 42, 95
6, 107520, Note_on_c, 9, 35, 95
6, 107760, Note_off_c, 9, 35, 95
6, 107760, Note_on_c, 9, 36, 95
6, 108000, Note_off_c, 9, 36, 95
6, 108000, Note_on_c, 9, 42, 95
6, 108480, Note_off_c, 9, 42, 95
6, 108480, Note_on_c, 9, 42, 95
6, 108480, Note_on_c, 9, 38, 95
6, 108960, Note_off_c, 9, 42, 95
6, 108960, Note_off_c, 9, 38, 95
6, 108960, Note_on_c, 9, 42, 95
6, 109440, Note_off_c, 9, 42, 95
6, 109440, Note_on_c, 9, 42, 95
6, 109920, Note_off_c, 9, 42, 95
6, 109920, Note_on_c, 9, 42, 95
6, 110400, Note_off_c, 9, 42, 95
6, 110400, Note_on_c, 9, 42, 95
6, 110400, Note_on_c, 9, 38, 95
6, 110880, Note_off_c, 9, 42, 95
6, 110880, Note_off_c, 9, 38, 95
6, 110880, Note_on_c, 9, 42, 95
6, 111360, Note_off_c, 9, 42, 95
6, 111360, Note_on_c, 9, 42, 95
6, 111360, Note_on_c, 9, 36, 95
6, 111840, Note_off_c, 9, 42, 95
6, 111840, Note_off_c, 9, 36, 95
6, 111840, Note_on_c, 9, 42, 95
6, 112320, Note_off_c, 9, 42, 95
6, 112320, Note_on_c, 9, 42, 95
6, 112320, Note_on_c, 9, 38, 95
6, 112800, Note_off_c, 9, 42, 95
6, 112800, Note_off_c, 9, 38, 95
6, 112800, Note_on_c, 9, 42, 95
6, 113280, Note_off_c, 9, 42, 95
6, 113280, Note_on_c, 9, 42, 95
6, 113760, Note_off_c, 9, 42, 95
6, 113760, Note_on_c, 9, 42, 95
6, 114240, Note_off_c, 9, 42, 95
6, 114240, Note_on_c, 9, 42, 95
6, 114240, Note_on_c, 9, 38, 95
6, 114720, Note_off_c, 9, 42, 95
6, 114720, Note_off_c, 9, 38, 95
6, 114720, Note_on_c, 9, 42, 95
6, 115200, Note_off_c, 9, 42, 95
6, 115200, Note_on_c, 9, 35, 95
6, 115440, Note_off_c, 9, 35, 95
6, 115440, Note_on_c, 9, 36, 95
6, 115680, Note_off_c, 9, 36, 95
6, 115680, Note_on_c, 9, 42, 95
6, 116160, Note_off_c, 9, 42, 95
6, 116160, Note_on_c, 9, 42, 95
6, 116160, Note_on_c, 9, 38, 95
6, 116640, Note_off_c, 9, 42, 95
6, 116640, Note_off_c, 9, 38, 95
6, 116640, Note_on_c, 9, 42, 95
6, 117120, Note_off_c, 9, 42, 95
6, 117120, Note_on_c, 9, 42, 95
6, 117600, Note_off_c, 9, 42, 95
6, 117600, Note_on_c, 9, 42, 95
6, 118080, Note_off_c, 9, 42, 95
6, 118080, Note_on_c, 9, 42, 95
6, 118080, Note_on_c, 9, 38, 95
6, 118560, Note_off_c, 9, 42, 95
6, 118560, Note_off_c, 9, 38, 95
6, 118560, Note_on_c, 9, 42, 95
6, 119040, Note_off_c, 9, 42, 95
6, 119040, Note_on_c, 9, 42, 95
6, 119040, Note_on_c, 9, 36, 95
6, 119520, Note_off_c, 9, 42, 95
6, 119520, Note_off_c, 9, 36, 95
6, 119520, Note_on_c, 9, 42, 95
6, 120000, Note_off_c, 9, 42, 95
6, 120000, Note_on_c, 9, 42, 95
6, 120000, Note_on_c, 9, 38, 95
6, 120480, Note_off_c, 9, 42, 95
6, 120480, Note_off_c, 9, 38, 95
6, 120480, Note_on_c, 9, 42, 95
6, 120960, Note_off_c, 9, 42, 95
6, 120960, Note_on_c, 9, 42, 95
6, 121440, Note_off_c, 9, 42, 95
6, 121440, Note_on_c, 9, 42, 95
6, 121920, Note_off_c, 9, 42, 95
6, 121920, Note_on_c, 9, 42, 95
6, 121920, Note_on_c, 9, 38, 95
6, 122400, Note_off_c, 9, 42, 95
6, 122400, Note_off_c, 9, 38, 95
6, 122400, Note_on_c, 9, 42, 95
6, 122880, Note_off_c, 9, 42, 95
6, 122880, Note_on_c, 9, 35, 95
6, 123120, Note_off_c, 9, 35, 95
6, 123120, Note_on_c, 9, 36, 95
6, 123360, Note_off_c, 9, 36, 95
6, 123360, Note_on_c, 9, 42, 95
6, 123840, Note_off_c, 9, 42, 95
6, 123840, Note_on_c, 9, 42, 95
6, 123840, Note_on_c, 9, 38, 95
6, 124320, Note_off_c, 9, 42, 95
6, 124320, Note_off_c, 9, 38, 95
6, 124320, Note_on_c, 9, 42, 95
6, 124800, Note_off_c, 9, 42, 95
6, 124800, Note_on_c, 9, 42, 95
6, 125280, Note_off_c, 9, 42, 95
6, 125280, Note_on_c, 9, 42, 95
6, 125760, Note_off_c, 9, 42, 95
6, 125760, Note_on_c, 9, 42, 95
6, 125760, Note_on_c, 9, 38, 95
6, 126240, Note_off_c, 9, 42, 95
6, 126240, Note_off_c, 9, 38, 95
6, 126240, Note_on_c, 9, 42, 95
6, 126720, Note_off_c, 9, 42, 95
6, 126720, Note_on_c, 9, 42, 95
6, 126720, Note_on_c, 9, 36, 95
6, 127200, Note_off_c, 9, 42, 95
6, 127200, Note_off_c, 9, 36, 95
6, 127200, Note_on_c, 9, 42, 95
6, 127680, Note_off_c, 9, 42, 95
6, 127680, Note_on_c, 9, 42, 95
6, 127680, Note_on_c, 9, 38, 95
6, 128160, Note_off_c, 9, 42, 95
6, 128160, Note_off_c, 9, 38, 95
6, 128160, Note_on_c, 9, 42, 95
6, 128640, Note_off_c, 9, 42, 95
6, 128640, Note_on_c, 9, 42, 95
6, 129120, Note_off_c, 9, 42, 95
6, 129120, Note_on_c, 9, 42, 95
6, 129600, Note_off_c, 9, 42, 95
6, 129600, Note_on_c, 9, 42, 95
6, 129600, Note_on_c, 9, 38, 95
6, 130080, Note_off_c, 9, 42, 95
6, 130080, Note_off_c, 9, 38, 95
6, 130080, Note_on_c, 9, 42, 95
6, 130560, Note_off_c, 9, 42, 95
6, 130560, Note_on_c, 9, 35, 95
6, 130800, Note_off_c, 9, 35, 95
6, 130800, Note_on_c, 9, 36, 95
6, 131040, Note_off_c, 9, 36, 95
6, 131040, Note_on_c, 9, 42, 95
6, 131520, Note_off_c, 9, 42, 95
6, 131520, Note_on_c, 9, 42, 95
6, 131520, Note_on_c, 9, 38, 95
6, 132000, Note_off_c, 9, 42, 95
6, 132000, Note_off_c, 9, 38, 95
6, 132000, Note_on_c, 9, 42, 95
6, 132480, Note_off_c, 9, 42, 95
6, 132480, Note_on_c, 9, 42, 95
6, 132960, Note_off_c, 9, 42, 95
6, 132960, Note_on_c, 9, 42, 95
6, 133440, Note_off_c, 9, 42, 95
6, 133440, Note_on_c, 9, 42, 95
6, 133440, Note_on_c, 9, 38, 95
6, 133920, Note_off_c, 9, 42, 95
6, 133920, Note_off_c, 9, 38, 95
6, 133920, Note_on_c, 9, 42, 95
6, 134400, Note_off_c, 9, 42, 95
6, 134400, Note_on_c, 9, 42, 95
6, 134400, Note_on_c, 9, 36, 95
6, 134880, Note_off_c, 9, 42, 95
6, 134880, Note_off_c, 9, 36, 95
6, 134880, Note_on_c, 9, 42, 95
6, 135360, Note_off_c, 9, 42, 95
6, 135360, Note_on_c, 9, 42, 95
6, 135360, Note_on_c, 9, 38, 95
6, 135840, Note_off_c, 9, 42, 95
6, 135840, Note_off_c, 9, 38, 95
6, 135840, Note_on_c, 9, 42, 95
6, 136320, Note_off_c, 9, 42, 95
6, 136320, Note_on_c, 9, 42, 95
6, 136800, Note_off_c, 9, 42, 95
6, 136800, Note_on_c, 9, 42, 95
6, 137280, Note_off_c, 9, 42, 95
6, 137280, Note_on_c, 9, 42, 95
6, 137280, Note_on_c, 9, 38, 95
6, 137760, Note_off_c, 9, 42, 95
6, 137760, Note_off_c, 9, 38, 95
6, 137760, Note_on_c, 9, 42, 95
6, 138240, Note_off_c, 9, 42, 95
6, 138240, Note_on_c, 9, 35, 95
6, 138480, Note_off_c, 9, 35, 95
6, 138480, Note_on_c, 9, 36, 95
6, 138720, Note_off_c, 9, 36, 95
6, 138720, Note_on_c, 9, 42, 95
6, 139200, Note_off_c, 9, 42, 95
6, 139200, Note_on_c, 9, 42, 95
6, 139200, Note_on_c, 9, 38, 95
6, 139680, Note_off_c, 9, 42, 95
6, 139680, Note_off_c, 9, 38, 95
6, 139680, Note_on_c, 9, 42, 95
6, 140160, Note_off_c, 9, 42, 95
6, 140160, Note_on_c, 9, 42, 95
6, 140640, Note_off_c, 9, 42, 95
6, 140640, Note_on_c, 9, 42, 95
6, 141120, Note_off_c, 9, 42, 95
6, 141120, Note_on_c, 9, 42, 95
6, 141120, Note_on_c, 9, 38, 95
6, 141600, Note_off_c, 9, 42, 95
6, 141600, Note_off_c, 9, 38, 95
6, 141600, Note_on_c, 9, 42, 95
6, 142080, Note_off_c, 9, 42, 95
6, 142080, Note_on_c, 9, 42, 95
6, 142080, Note_on_c, 9, 36, 95
6, 142560, Note_off_c, 9, 42, 95
6, 142560, Note_off_c, 9, 36, 95
6, 142560, Note_on_c, 9, 42, 95
6, 143040, Note_off_c, 9, 42, 95
6, 143040, Note_on_c, 9, 42, 95
6, 143040, Note_on_c, 9, 38, 95
6, 143520, Note_off_c, 9, 42, 95
6, 143520, Note_off_c, 9, 38, 95
6, 143520, Note_on_c, 9, 42, 95
6, 144000, Note_off_c, 9, 42, 95
6, 144000, Note_on_c, 9, 42, 95
6, 144480, Note_off_c, 9, 42, 95
6, 144480, Note_on_c, 9, 42, 95
6, 144960, Note_off_c, 9, 42, 95
6, 144960, Note_on_c, 9, 42, 95
6, 144960, Note_on_c, 9, 38, 95
6, 145440, Note_off_c, 9, 42, 95
6, 145440, Note_off_c, 9, 38, 95
6, 145440, Note_on_c, 9, 42, 95
6, 145920, Note_off_c, 9, 42, 95
6, 145920, Note_on_c, 9, 35, 95
6, 146160, Note_off_c, 9, 35, 95
6, 146160, Note_on_c, 9, 36, 95
6, 146400, Note_off_c, 9, 36, 95
6, 146400, Note_on_c, 9, 42, 95
6, 146880, Note_off_c, 9, 42, 95
6, 146880, Note_on_c, 9, 42, 95
6, 146880, Note_on_c, 9, 38, 95
6, 147360, Note_off_c, 9, 42, 95
6, 147360, Note_off_c, 9, 38, 95
6, 147360, Note_on_c, 9, 42, 95
6, 147840, Note_off_c, 9, 42, 95
6, 147840, Note_on_c, 9, 42, 95
6, 148320, Note_off_c, 9, 42, 95
6, 148320, Note_on_c, 9, 42, 95
6, 148800, Note_off_c, 9, 42, 95
6, 148800, Note_on_c, 9, 42, 95
6, 148800, Note_on_c, 9, 38, 95
6, 149280, Note_off_c, 9, 42, 95
6, 149280, Note_off_c, 9, 38, 95
6, 149280, Note_on_c, 9, 42, 95
6, 149760, Note_off_c, 9, 42, 95
6, 149760, Note_on_c, 9, 42, 95
6, 149760, Note_on_c, 9, 36, 95
6, 150240, Note_off_c, 9, 42, 95
6, 150240, Note_off_c, 9, 36, 95
6, 150240, Note_on_c, 9, 42, 95
6, 150720, Note_off_c, 9, 42, 95
6, 150720, Note_on_c, 9, 42, 95
6, 150720, Note_on_c, 9, 38, 95
6, 151200, Note_off_c, 9, 42, 95
6, 151200, Note_off_c, 9, 38, 95
6, 151200, Note_on_c, 9, 42, 95
6, 151680, Note_off_c, 9, 42, 95
6, 151680, Note_on_c, 9, 42, 95
6, 152160, Note_off_c, 9, 42, 95
6, 152160, Note_on_c, 9, 42, 95
6, 152640, Note_off_c, 9, 42, 95
6, 152640, Note_on_c, 9, 42, 95
6, 152640, Note_on_c, 9, 38, 95
6, 153120, Note_off_c, 9, 42, 95
6, 153120, Note_off_c, 9, 38, 95
6, 153120, Note_on_c, 9, 42, 95
6, 153600, Note_off_c, 9, 42, 95
6, 153600, Note_on_c, 9, 35, 95
6, 153840, Note_off_c, 9, 35, 95
6, 153840, Note_on_c, 9, 36, 95
6, 154080, Note_off_c, 9, 36, 95
6, 154080, Note_on_c, 9, 42, 95
6, 154560, Note_off_c, 9, 42, 95
6, 154560, Note_on_c, 9, 42, 95
6, 154560, Note_on_c, 9, 38, 95
6, 155040, Note_off_c, 9, 42, 95
6, 155040, Note_off_c, 9, 38, 95
6, 155040, Note_on_c, 9, 42, 95
6, 155520, Note_off_c, 9, 42, 95
6, 155520, Note_on_c, 9, 42, 95
6, 156000, Note_off_c, 9, 42, 95
6, 156000, Note_on_c, 9, 42, 95
6, 156480, Note_off_c, 9, 42, 95
6, 156480, Note_on_c, 9, 42, 95
6, 156480, Note_on_c, 9, 38, 95
6, 156960, Note_off_c, 9, 42, 95
6, 156960, Note_off_c, 9, 38, 95
6, 156960, Note_on_c, 9, 42, 95
6, 157440, Note_off_c, 9, 42, 95
6, 157440, Note_on_c, 9, 42, 95
6, 157440, Note_on_c, 9, 36, 95
6, 157920, Note_off_c, 9, 42, 95
6, 157920, Note_off_c, 9, 36, 95
6, 157920, Note_on_c, 9, 42, 95
6, 158400, Note_off_c, 9, 42, 95
6, 158400, Note_on_c, 9, 42, 95
6, 158400, Note_on_c, 9, 38, 95
6, 158880, Note_off_c, 9, 42, 95
6, 158880, Note_off_c, 9, 38, 95
6, 158880, Note_on_c, 9, 42, 95
6, 159360, Note_off_c, 9, 42, 95
6, 159360, Note_on_c, 9, 42, 95
6, 159840, Note_off_c, 9, 42, 95
6, 159840, Note_on_c, 9, 42, 95
6, 160320, Note_off_c, 9, 42, 95
6, 160320, Note_on_c, 9, 42, 95
6, 160320, Note_on_c, 9, 38, 95
6, 160800, Note_off_c, 9, 42, 95
6, 160800, Note_off_c, 9, 38, 95
6, 160800, Note_on_c, 9, 42, 95
6, 161280, Note_off_c, 9, 42, 95
6, 161280, Note_on_c, 9, 35, 95
6, 161520, Note_off_c, 9, 35, 95
6, 161520, Note_on_c, 9, 36, 95
6, 161760, Note_off_c, 9, 36, 95
6, 161760, Note_on_c, 9, 42, 95
6, 162240, Note_off_c, 9, 42, 95
6, 162240, Note_on_c, 9, 42, 95
6, 162240, Note_on_c, 9, 38, 95
6, 162720, Note_off_c, 9, 42, 95
6, 162720, Note_off_c, 9, 38, 95
6, 162720, Note_on_c, 9, 42, 95
6, 163200, Note_off_c, 9, 42, 95
6, 163200, Note_on_c, 9, 42, 95
6, 163680, Note_off_c, 9, 42, 95
6, 163680, Note_on_c, 9, 42, 95
6, 164160, Note_off_c, 9, 42, 95
6, 164160, Note_on_c, 9, 42, 95
6, 164160, Note_on_c, 9, 38, 95
6, 164640, Note_off_c, 9, 42, 95
6, 164640, Note_off_c, 9, 38, 95
6, 164640, Note_on_c, 9, 42, 95
6, 165120, Note_off_c, 9, 42, 95
6, 165120, Note_on_c, 9, 42, 95
6, 165120, Note_on_c, 9, 36, 95
6, 165600, Note_off_c, 9, 42, 95
6, 165600, Note_off_c, 9, 36, 95
6, 165600, Note_on_c, 9, 42, 95
6, 166080, Note_off_c, 9, 42, 95
6, 166080, Note_on_c, 9, 42, 95
6, 166080, Note_on_c, 9, 38, 95
6, 166560, Note_off_c, 9, 42, 95
6, 166560, Note_off_c, 9, 38, 95
6, 166560, Note_on_c, 9, 42, 95
6, 167040, Note_off_c, 9, 42, 95
6, 167040, Note_on_c, 9, 42, 95
6, 167520, Note_off_c, 9, 42, 95
6, 167520, Note_on_c, 9, 42, 95
6, 168000, Note_off_c, 9, 42, 95
6, 168000, Note_on_c, 9, 42, 95
6, 168000, Note_on_c, 9, 38, 95
6, 168480, Note_off_c, 9, 42, 95
6, 168480, Note_off_c, 9, 38, 95
6, 168480, Note_on_c, 9, 42, 95
6, 168960, Note_off_c, 9, 42, 95
6, 168960, Note_on_c, 9, 35, 95
6, 169200, Note_off_c, 9, 35, 95
6, 169200, Note_on_c, 9, 36, 95
6, 169440, Note_off_c, 9, 36, 95
6, 169440, Note_on_c, 9, 42, 95
6, 169920, Note_off_c, 9, 42, 95
6, 169920, Note_on_c, 9, 42, 95
6, 169920, Note_on_c, 9, 38, 95
6, 170400, Note_off_c, 9, 42, 95
6, 170400, Note_off_c, 9, 38, 95
6, 170400, Note_on_c, 9, 42, 95
6, 170880, Note_off_c, 9, 42, 95
6, 170880, Note_on_c, 9, 42, 95
6, 171360, Note_off_c, 9, 42, 95
6, 171360, Note_on_c, 9, 42, 95
6, 171840, Note_off_c, 9, 42, 95
6, 171840, Note_on_c, 9, 42, 95
6, 171840, Note_on_c, 9, 38, 95
6, 172320, Note_off_c, 9, 42, 95
6, 172320, Note_off_c, 9, 38, 95
6, 172320, Note_on_c, 9, 42, 95
6, 172800, Note_off_c, 9, 42, 95
6, 172800, Note_on_c, 9, 42, 95
6, 172800, Note_on_c, 9, 36, 95
6, 173280, Note_off_c, 9, 42, 95
6, 173280, Note_off_c, 9, 36, 95
6, 173280, Note_on_c, 9, 42, 95
6, 173760, Note_off_c, 9, 42, 95
6, 173760, Note_on_c, 9, 42, 95
6, 173760, Note_on_c, 9, 38, 95
6, 174240, Note_off_c, 9, 42, 95
6, 174240, Note_off_c, 9, 38, 95
6, 174240, Note_on_c, 9, 42, 95
6, 174720, Note_off_c, 9, 42, 95
6, 174720, Note_on_c, 9, 42, 95
6, 175200, Note_off_c, 9, 42, 95
6, 175200, Note_on_c, 9, 42, 95
6, 175680, Note_off_c, 9, 42, 95
6, 175680, Note_on_c, 9, 42, 95
6, 175680, Note_on_c, 9, 38, 95
6, 176160, Note_off_c, 9, 42, 95
6, 176160, Note_off_c, 9, 38, 95
6, 176160, Note_on_c, 9, 42, 95
6, 176640, Note_off_c, 9, 42, 95
6, 176640, Note_on_c, 9, 35, 95
6, 176880, Note_off_c, 9, 35, 95
6, 176880, Note_on_c, 9, 36, 95
6, 177120, Note_off_c, 9, 36, 95
6, 177120, Note_on_c, 9, 42, 95
6, 177600, Note_off_c, 9, 42, 95
6, 177600, Note_on_c, 9, 42, 95
6, 177600, Note_on_c, 9, 38, 95
6, 178080, Note_off_c, 9, 42, 95
6, 178080, Note_off_c, 9, 38, 95
6, 178080, Note_on_c, 9, 42, 95
6, 178560, Note_off_c, 9, 42, 95
6, 178560, Note_on_c, 9, 42, 95
6, 179040, Note_off_c, 9, 42, 95
6, 179040, Note_on_c, 9, 42, 95
6, 179520, Note_off_c, 9, 42, 95
6, 179520, Note_on_c, 9, 42, 95
6, 179520, Note_on_c, 9, 38, 95
6, 180000, Note_off_c, 9, 42, 95
6, 180000, Note_off_c, 9, 38, 95
6, 180000, Note_on_c, 9, 42, 95
6, 180480, Note_off_c, 9, 42, 95
6, 180480, End_track
0, 0, End_of_file
