0, 0, Header, 1, 5, 960
1, 0, Start_track
1, 0, Control_c, 0, 101, 0
1, 0, Control_c, 0, 100, 0
1, 0, Control_c, 0, 6, 12
1, 0, Control_c, 0, 38, 0
1, 0, Control_c, 1, 101, 0
1, 0, Control_c, 1, 100, 0
1, 0, Control_c, 1, 6, 12
1, 0, Control_c, 1, 38, 0
1, 0, Control_c, 2, 101, 0
1, 0, Control_c, 2, 100, 0
1, 0, Control_c, 2, 6, 12
1, 0, Control_c, 2, 38, 0
1, 0, Control_c, 3, 101, 0
1, 0, Control_c, 3, 100, 0
1, 0, Control_c, 3, 6, 12
1, 0, Control_c, 3, 38, 0
1, 0, Control_c, 4, 101, 0
1, 0, Control_c, 4, 100, 0
1, 0, Control_c, 4, 6, 12
1, 0, Control_c, 4, 38, 0
1, 0, Control_c, 5, 101, 0
1, 0, Control_c, 5, 100, 0
1, 0, Control_c, 5, 6, 12
1, 0, Control_c, 5, 38, 0
1, 0, Control_c, 6, 101, 0
1, 0, Control_c, 6, 100, 0
1, 0, Control_c, 6, 6, 12
1, 0, Control_c, 6, 38, 0
1, 0, Control_c, 7, 101, 0
1, 0, Control_c, 7, 100, 0
1, 0, Control_c, 7, 6, 12
1, 0, Control_c, 7, 38, 0
1, 0, Control_c, 8, 101, 0
1, 0, Control_c, 8, 100, 0
1, 0, Control_c, 8, 6, 12
1, 0, Control_c, 8, 38, 0
1, 0, Control_c, 9, 101, 0
1, 0, Control_c, 9, 100, 0
1, 0, Control_c, 9, 6, 12
1, 0, Control_c, 9, 38, 0
1, 0, Control_c, 10, 101, 0
1, 0, Control_c, 10, 100, 0
1, 0, Control_c, 10, 6, 12
1, 0, Control_c, 10, 38, 0
1, 0, Control_c, 11, 101, 0
1, 0, Control_c, 11, 100, 0
1, 0, Control_c, 11, 6, 12
1, 0, Control_c, 11, 38, 0
1, 0, Control_c, 12, 101, 0
1, 0, Control_c, 12, 100, 0
1, 0, Control_c, 12, 6, 12
1, 0, Control_c, 12, 38, 0
1, 0, Control_c, 13, 101, 0
1, 0, Control_c, 13, 100, 0
1, 0, Control_c, 13, 6, 12
1, 0, Control_c, 13, 38, 0
1, 0, Control_c, 14, 101, 0
1, 0, Control_c, 14, 100, 0
1, 0, Control_c, 14, 6, 12
1, 0, Control_c, 14, 38, 0
1, 0, Control_c, 15, 101, 0
1, 0, Control_c, 15, 100, 0
1, 0, Control_c, 15, 6, 12
1, 0, Control_c, 15, 38, 0
1, 0, Time_signature, 4, 2, 24, 8
1, 0, Tempo, 750000
1, 3840, Tempo, 600000
1, 3840, End_track
2, 0, Start_track
2, 0, Pitch_bend_c, 0, 8192
2, 0, Control_c, 0, 7, 127
2, 0, Control_c, 0, 10, 63
2, 0, Control_c, 0, 93, 0
2, 0, Control_c, 0, 91, 0
2, 0, Control_c, 0, 95, 0
2, 0, Control_c, 0, 92, 0
2, 0, Control_c, 0, 11, 127
2, 0, Program_c, 0, 26
2, 0, Control_c, 1, 7, 127
2, 0, Control_c, 1, 10, 63
2, 0, Control_c, 1, 93, 0
2, 0, Control_c, 1, 91, 0
2, 0, Control_c, 1, 95, 0
2, 0, Control_c, 1, 92, 0
2, 0, Control_c, 1, 11, 127
2, 0, Program_c, 1, 26
2, 240, Note_on_c, 0, 74, 95
2, 720, Note_off_c, 0, 74, 95
2, 720, Note_on_c, 0, 69, 95
2, 960, Note_off_c, 0, 69, 95
2, 960, Note_on_c, 0, 67, 95
2, 1200, Note_off_c, 0, 67, 95
2, 1200, Note_on_c, 0, 65, 95
2, 1440, Note_off_c, 0, 65, 95
2, 1440, Note_on_c, 0, 62, 95
2, 1680, Note_off_c, 0, 62, 95
2, 1680, Note_on_c, 0, 57, 95
2, 1920, Note_off_c, 0, 57, 95
2, 1920, Note_on_c, 0, 55, 95
2, 2160, Note_off_c, 0, 55, 95
2, 2160, Note_on_c, 0, 53, 95
2, 2400, Note_off_c, 0, 53, 95
2, 2400, Note_on_c, 0, 50, 95
2, 2640, Note_off_c, 0, 50, 95
2, 2640, Note_on_c, 0, 45, 95
2, 2880, Note_off_c, 0, 45, 95
2, 2880, Note_on_c, 0, 48, 95
2, 3840, Note_off_c, 0, 48, 95
2, 3840, Note_on_c, 0, 58, 95
2, 4080, Note_off_c, 0, 58, 95
2, 4080, Note_on_c, 0, 57, 95
2, 4320, Note_off_c, 0, 57, 95
2, 4320, Note_on_c, 0, 55, 95
2, 4560, Note_off_c, 0, 55, 95
2, 4560, Note_on_c, 0, 50, 95
2, 4800, Note_off_c, 0, 50, 95
2, 5280, Note_on_c, 0, 55, 95
2, 5760, Note_off_c, 0, 55, 95
2, 6720, Note_on_c, 0, 55, 95
2, 7200, Note_off_c, 0, 55, 95
2, 7680, Note_on_c, 0, 50, 95
2, 11280, Note_off_c, 0, 50, 95
2, 11280, Note_on_c, 0, 50, 95
2, 11520, Note_off_c, 0, 50, 95
2, 11520, Note_on_c, 0, 58, 95
2, 11760, Note_off_c, 0, 58, 95
2, 11760, Note_on_c, 0, 57, 95
2, 12000, Note_off_c, 0, 57, 95
2, 12000, Note_on_c, 0, 55, 95
2, 12240, Note_off_c, 0, 55, 95
2, 12240, Note_on_c, 0, 50, 95
2, 12480, Note_off_c, 0, 50, 95
2, 12960, Note_on_c, 0, 46, 95
2, 15360, Note_off_c, 0, 46, 95
2, 15360, Note_on_c, 0, 55, 95
2, 18960, Note_off_c, 0, 55, 95
2, 18960, Note_on_c, 0, 50, 95
2, 19200, Note_off_c, 0, 50, 95
2, 19200, Note_on_c, 0, 58, 95
2, 19440, Note_off_c, 0, 58, 95
2, 19440, Note_on_c, 0, 57, 95
2, 19680, Note_off_c, 0, 57, 95
2, 19680, Note_on_c, 0, 55, 95
2, 19920, Note_off_c, 0, 55, 95
2, 19920, Note_on_c, 0, 50, 95
2, 20160, Note_off_c, 0, 50, 95
2, 20160, Note_on_c, 0, 62, 95
2, 22800, Note_off_c, 0, 62, 95
2, 22800, Note_on_c, 0, 58, 95
2, 23040, Note_off_c, 0, 58, 95
2, 23040, Note_on_c, 0, 65, 95
2, 26640, Note_off_c, 0, 65, 95
2, 26640, Note_on_c, 0, 58, 95
2, 26880, Note_off_c, 0, 58, 95
2, 26880, Note_on_c, 0, 67, 95
2, 34560, Note_off_c, 0, 67, 95
2, 46080, Note_on_c, 0, 51, 95
2, 46800, Note_off_c, 0, 51, 95
2, 46800, Note_on_c, 0, 53, 95
2, 47040, Note_off_c, 0, 53, 95
2, 47040, Note_on_c, 0, 55, 95
2, 47520, Note_off_c, 0, 55, 95
2, 47520, Note_on_c, 0, 55, 95
2, 47760, Note_off_c, 0, 55, 95
2, 47760, Note_on_c, 0, 58, 95
2, 48000, Note_off_c, 0, 58, 95
2, 48000, Note_on_c, 0, 60, 95
2, 48240, Note_off_c, 0, 60, 95
2, 48240, Note_on_c, 0, 63, 95
2, 53760, Note_off_c, 0, 63, 95
2, 53760, Note_on_c, 0, 59, 95
2, 54000, Note_off_c, 0, 59, 95
2, 54000, Note_on_c, 0, 58, 95
2, 54240, Note_off_c, 0, 58, 95
2, 54240, Note_on_c, 0, 55, 95
2, 54480, Note_off_c, 0, 55, 95
2, 54480, Note_on_c, 0, 53, 95
2, 55440, Note_off_c, 0, 53, 95
2, 55440, Note_on_c, 0, 55, 95
2, 55560, Note_off_c, 0, 55, 95
2, 55560, Note_on_c, 0, 53, 95
2, 55680, Note_off_c, 0, 53, 95
2, 55680, Note_on_c, 0, 51, 95
2, 61440, Note_off_c, 0, 51, 95
2, 61440, Note_on_c, 0, 46, 95
2, 62160, Note_off_c, 0, 46, 95
2, 62160, Note_on_c, 0, 48, 95
2, 62400, Note_off_c, 0, 48, 95
2, 62400, Note_on_c, 0, 50, 95
2, 62880, Note_off_c, 0, 50, 95
2, 62880, Note_on_c, 0, 50, 95
2, 63120, Note_off_c, 0, 50, 95
2, 63120, Note_on_c, 0, 53, 95
2, 63360, Note_off_c, 0, 53, 95
2, 63360, Note_on_c, 0, 55, 95
2, 63600, Note_off_c, 0, 55, 95
2, 63600, Note_on_c, 0, 60, 95
2, 69120, Note_off_c, 0, 60, 95
2, 69120, Note_on_c, 0, 57, 95
2, 69360, Note_off_c, 0, 57, 95
2, 69360, Note_on_c, 0, 56, 95
2, 69600, Note_off_c, 0, 56, 95
2, 69600, Note_on_c, 0, 51, 95
2, 69840, Note_off_c, 0, 51, 95
2, 69840, Note_on_c, 0, 62, 95
2, 72960, Note_off_c, 0, 62, 95
2, 72960, Note_on_c, 0, 45, 95
2, 73200, Note_off_c, 0, 45, 95
2, 73200, Note_on_c, 0, 46, 95
2, 73440, Note_off_c, 0, 46, 95
2, 73440, Note_on_c, 0, 57, 95
2, 73680, Note_off_c, 0, 57, 95
2, 73680, Note_on_c, 0, 50, 95
2, 73920, Note_off_c, 0, 50, 95
2, 74400, Note_on_c, 0, 51, 95
2, 74880, Note_off_c, 0, 51, 95
2, 119040, Note_on_c, 0, 51, 95
2, 119760, Note_off_c, 0, 51, 95
2, 119760, Note_on_c, 0, 53, 95
2, 120000, Note_off_c, 0, 53, 95
2, 120000, Note_on_c, 0, 55, 95
2, 120480, Note_off_c, 0, 55, 95
2, 120480, Note_on_c, 0, 55, 95
2, 120720, Note_off_c, 0, 55, 95
2, 120720, Note_on_c, 0, 58, 95
2, 120960, Note_off_c, 0, 58, 95
2, 120960, Note_on_c, 0, 60, 95
2, 121200, Note_off_c, 0, 60, 95
2, 121200, Note_on_c, 0, 63, 95
2, 126720, Note_off_c, 0, 63, 95
2, 126720, Note_on_c, 0, 59, 95
2, 126960, Note_off_c, 0, 59, 95
2, 126960, Note_on_c, 0, 58, 95
2, 127200, Note_off_c, 0, 58, 95
2, 127200, Note_on_c, 0, 55, 95
2, 127440, Note_off_c, 0, 55, 95
2, 127440, Note_on_c, 0, 53, 95
2, 128400, Note_off_c, 0, 53, 95
2, 128400, Note_on_c, 0, 55, 95
2, 128520, Note_off_c, 0, 55, 95
2, 128520, Note_on_c, 0, 53, 95
2, 128640, Note_off_c, 0, 53, 95
2, 128640, Note_on_c, 0, 51, 95
2, 134400, Note_off_c, 0, 51, 95
2, 134400, Note_on_c, 0, 46, 95
2, 135120, Note_off_c, 0, 46, 95
2, 135120, Note_on_c, 0, 48, 95
2, 135360, Note_off_c, 0, 48, 95
2, 135360, Note_on_c, 0, 50, 95
2, 135840, Note_off_c, 0, 50, 95
2, 135840, Note_on_c, 0, 50, 95
2, 136080, Note_off_c, 0, 50, 95
2, 136080, Note_on_c, 0, 53, 95
2, 136320, Note_off_c, 0, 53, 95
2, 136320, Note_on_c, 0, 55, 95
2, 136560, Note_off_c, 0, 55, 95
2, 136560, Note_on_c, 0, 60, 95
2, 142080, Note_off_c, 0, 60, 95
2, 142080, Note_on_c, 0, 57, 95
2, 142320, Note_off_c, 0, 57, 95
2, 142320, Note_on_c, 0, 56, 95
2, 142560, Note_off_c, 0, 56, 95
2, 142560, Note_on_c, 0, 51, 95
2, 142800, Note_off_c, 0, 51, 95
2, 142800, Note_on_c, 0, 62, 95
2, 145920, Note_off_c, 0, 62, 95
2, 145920, Note_on_c, 0, 45, 95
2, 146160, Note_off_c, 0, 45, 95
2, 146160, Note_on_c, 0, 46, 95
2, 146400, Note_off_c, 0, 46, 95
2, 146400, Note_on_c, 0, 57, 95
2, 146640, Note_off_c, 0, 57, 95
2, 146640, Note_on_c, 0, 50, 95
2, 146880, Note_off_c, 0, 50, 95
2, 147360, Note_on_c, 0, 51, 95
2, 147840, Note_off_c, 0, 51, 95
2, 147840, End_track
3, 0, Start_track
3, 0, Pitch_bend_c, 2, 8192
3, 0, Control_c, 2, 7, 127
3, 0, Control_c, 2, 10, 63
3, 0, Control_c, 2, 93, 0
3, 0, Control_c, 2, 91, 0
3, 0, Control_c, 2, 95, 0
3, 0, Control_c, 2, 92, 0
3, 0, Control_c, 2, 11, 127
3, 0, Program_c, 2, 35
3, 0, Control_c, 3, 7, 127
3, 0, Control_c, 3, 10, 63
3, 0, Control_c, 3, 93, 0
3, 0, Control_c, 3, 91, 0
3, 0, Control_c, 3, 95, 0
3, 0, Control_c, 3, 92, 0
3, 0, Control_c, 3, 11, 127
3, 0, Program_c, 3, 35
3, 3840, Note_on_c, 2, 31, 95
3, 4560, Note_off_c, 2, 31, 95
3, 4560, Note_on_c, 2, 43, 95
3, 5280, Note_off_c, 2, 43, 95
3, 5280, Note_on_c, 2, 31, 95
3, 6000, Note_off_c, 2, 31, 95
3, 6000, Note_on_c, 2, 43, 95
3, 7440, Note_off_c, 2, 43, 95
3, 7440, Note_on_c, 2, 31, 95
3, 7680, Note_off_c, 2, 31, 95
3, 7680, Note_on_c, 2, 31, 95
3, 8400, Note_off_c, 2, 31, 95
3, 8400, Note_on_c, 2, 43, 95
3, 9120, Note_off_c, 2, 43, 95
3, 9120, Note_on_c, 2, 31, 95
3, 9840, Note_off_c, 2, 31, 95
3, 9840, Note_on_c, 2, 43, 95
3, 11280, Note_off_c, 2, 43, 95
3, 11280, Note_on_c, 2, 31, 95
3, 11520, Note_off_c, 2, 31, 95
3, 11520, Note_on_c, 2, 31, 95
3, 12240, Note_off_c, 2, 31, 95
3, 12240, Note_on_c, 2, 43, 95
3, 12960, Note_off_c, 2, 43, 95
3, 12960, Note_on_c, 2, 31, 95
3, 13680, Note_off_c, 2, 31, 95
3, 13680, Note_on_c, 2, 43, 95
3, 15120, Note_off_c, 2, 43, 95
3, 15120, Note_on_c, 2, 31, 95
3, 15360, Note_off_c, 2, 31, 95
3, 15360, Note_on_c, 2, 31, 95
3, 16080, Note_off_c, 2, 31, 95
3, 16080, Note_on_c, 2, 43, 95
3, 16800, Note_off_c, 2, 43, 95
3, 16800, Note_on_c, 2, 31, 95
3, 17520, Note_off_c, 2, 31, 95
3, 17520, Note_on_c, 2, 43, 95
3, 18960, Note_off_c, 2, 43, 95
3, 18960, Note_on_c, 2, 31, 95
3, 19200, Note_off_c, 2, 31, 95
3, 19200, Note_on_c, 2, 31, 95
3, 19920, Note_off_c, 2, 31, 95
3, 19920, Note_on_c, 2, 43, 95
3, 20640, Note_off_c, 2, 43, 95
3, 20640, Note_on_c, 2, 31, 95
3, 21360, Note_off_c, 2, 31, 95
3, 21360, Note_on_c, 2, 43, 95
3, 22800, Note_off_c, 2, 43, 95
3, 22800, Note_on_c, 2, 31, 95
3, 23040, Note_off_c, 2, 31, 95
3, 23040, Note_on_c, 2, 29, 95
3, 23760, Note_off_c, 2, 29, 95
3, 23760, Note_on_c, 2, 41, 95
3, 24480, Note_off_c, 2, 41, 95
3, 24480, Note_on_c, 2, 29, 95
3, 25200, Note_off_c, 2, 29, 95
3, 25200, Note_on_c, 2, 41, 95
3, 26640, Note_off_c, 2, 41, 95
3, 26640, Note_on_c, 2, 29, 95
3, 26880, Note_off_c, 2, 29, 95
3, 26880, Note_on_c, 2, 34, 95
3, 27600, Note_off_c, 2, 34, 95
3, 27600, Note_on_c, 2, 46, 95
3, 28320, Note_off_c, 2, 46, 95
3, 28320, Note_on_c, 2, 34, 95
3, 29040, Note_off_c, 2, 34, 95
3, 29040, Note_on_c, 2, 46, 95
3, 30480, Note_off_c, 2, 46, 95
3, 30480, Note_on_c, 2, 34, 95
3, 30720, Note_off_c, 2, 34, 95
3, 30720, Note_on_c, 2, 39, 95
3, 31440, Note_off_c, 2, 39, 95
3, 31440, Note_on_c, 2, 51, 95
3, 32160, Note_off_c, 2, 51, 95
3, 32160, Note_on_c, 2, 39, 95
3, 32880, Note_off_c, 2, 39, 95
3, 32880, Note_on_c, 2, 51, 95
3, 34320, Note_off_c, 2, 51, 95
3, 34320, Note_on_c, 2, 39, 95
3, 34560, Note_off_c, 2, 39, 95
3, 34560, Note_on_c, 2, 31, 95
3, 35280, Note_off_c, 2, 31, 95
3, 35280, Note_on_c, 2, 43, 95
3, 36000, Note_off_c, 2, 43, 95
3, 36000, Note_on_c, 2, 31, 95
3, 36720, Note_off_c, 2, 31, 95
3, 36720, Note_on_c, 2, 43, 95
3, 38160, Note_off_c, 2, 43, 95
3, 38160, Note_on_c, 2, 31, 95
3, 38400, Note_off_c, 2, 31, 95
3, 38400, Note_on_c, 2, 31, 95
3, 39120, Note_off_c, 2, 31, 95
3, 39120, Note_on_c, 2, 43, 95
3, 39840, Note_off_c, 2, 43, 95
3, 39840, Note_on_c, 2, 31, 95
3, 40560, Note_off_c, 2, 31, 95
3, 40560, Note_on_c, 2, 43, 95
3, 42000, Note_off_c, 2, 43, 95
3, 42000, Note_on_c, 2, 31, 95
3, 42240, Note_off_c, 2, 31, 95
3, 42240, Note_on_c, 2, 31, 95
3, 42960, Note_off_c, 2, 31, 95
3, 42960, Note_on_c, 2, 43, 95
3, 43680, Note_off_c, 2, 43, 95
3, 43680, Note_on_c, 2, 31, 95
3, 44400, Note_off_c, 2, 31, 95
3, 44400, Note_on_c, 2, 43, 95
3, 45840, Note_off_c, 2, 43, 95
3, 45840, Note_on_c, 2, 31, 95
3, 46080, Note_off_c, 2, 31, 95
3, 46080, Note_on_c, 2, 31, 95
3, 46800, Note_off_c, 2, 31, 95
3, 46800, Note_on_c, 2, 43, 95
3, 47520, Note_off_c, 2, 43, 95
3, 47520, Note_on_c, 2, 31, 95
3, 48240, Note_off_c, 2, 31, 95
3, 48240, Note_on_c, 2, 43, 95
3, 49680, Note_off_c, 2, 43, 95
3, 49680, Note_on_c, 2, 31, 95
3, 49920, Note_off_c, 2, 31, 95
3, 49920, Note_on_c, 2, 31, 95
3, 50640, Note_off_c, 2, 31, 95
3, 50640, Note_on_c, 2, 43, 95
3, 51360, Note_off_c, 2, 43, 95
3, 51360, Note_on_c, 2, 31, 95
3, 52080, Note_off_c, 2, 31, 95
3, 52080, Note_on_c, 2, 43, 95
3, 53520, Note_off_c, 2, 43, 95
3, 53520, Note_on_c, 2, 31, 95
3, 53760, Note_off_c, 2, 31, 95
3, 53760, Note_on_c, 2, 31, 95
3, 54480, Note_off_c, 2, 31, 95
3, 54480, Note_on_c, 2, 43, 95
3, 55200, Note_off_c, 2, 43, 95
3, 55200, Note_on_c, 2, 31, 95
3, 55920, Note_off_c, 2, 31, 95
3, 55920, Note_on_c, 2, 43, 95
3, 57360, Note_off_c, 2, 43, 95
3, 57360, Note_on_c, 2, 31, 95
3, 57600, Note_off_c, 2, 31, 95
3, 57600, Note_on_c, 2, 31, 95
3, 58320, Note_off_c, 2, 31, 95
3, 58320, Note_on_c, 2, 43, 95
3, 59040, Note_off_c, 2, 43, 95
3, 59040, Note_on_c, 2, 31, 95
3, 59760, Note_off_c, 2, 31, 95
3, 59760, Note_on_c, 2, 43, 95
3, 61200, Note_off_c, 2, 43, 95
3, 61200, Note_on_c, 2, 31, 95
3, 61440, Note_off_c, 2, 31, 95
3, 61440, Note_on_c, 2, 31, 95
3, 62160, Note_off_c, 2, 31, 95
3, 62160, Note_on_c, 2, 43, 95
3, 62880, Note_off_c, 2, 43, 95
3, 62880, Note_on_c, 2, 31, 95
3, 63600, Note_off_c, 2, 31, 95
3, 63600, Note_on_c, 2, 43, 95
3, 65040, Note_off_c, 2, 43, 95
3, 65040, Note_on_c, 2, 31, 95
3, 65280, Note_off_c, 2, 31, 95
3, 65280, Note_on_c, 2, 31, 95
3, 66000, Note_off_c, 2, 31, 95
3, 66000, Note_on_c, 2, 43, 95
3, 66720, Note_off_c, 2, 43, 95
3, 66720, Note_on_c, 2, 31, 95
3, 67440, Note_off_c, 2, 31, 95
3, 67440, Note_on_c, 2, 43, 95
3, 68880, Note_off_c, 2, 43, 95
3, 68880, Note_on_c, 2, 31, 95
3, 69120, Note_off_c, 2, 31, 95
3, 69120, Note_on_c, 2, 31, 95
3, 69840, Note_off_c, 2, 31, 95
3, 69840, Note_on_c, 2, 43, 95
3, 70560, Note_off_c, 2, 43, 95
3, 70560, Note_on_c, 2, 31, 95
3, 71280, Note_off_c, 2, 31, 95
3, 71280, Note_on_c, 2, 43, 95
3, 72720, Note_off_c, 2, 43, 95
3, 72720, Note_on_c, 2, 31, 95
3, 72960, Note_off_c, 2, 31, 95
3, 76800, Note_on_c, 2, 51, 95
3, 77040, Note_off_c, 2, 51, 95
3, 77040, Note_on_c, 2, 50, 95
3, 77280, Note_off_c, 2, 50, 95
3, 77280, Note_on_c, 2, 48, 95
3, 77520, Note_off_c, 2, 48, 95
3, 77520, Note_on_c, 2, 50, 95
3, 77760, Note_off_c, 2, 50, 95
3, 77760, Note_on_c, 2, 45, 95
3, 78240, Note_off_c, 2, 45, 95
3, 78240, Note_on_c, 2, 50, 95
3, 78480, Note_off_c, 2, 50, 95
3, 78480, Note_on_c, 2, 43, 95
3, 78960, Note_off_c, 2, 43, 95
3, 78960, Note_on_c, 2, 50, 95
3, 79200, Note_off_c, 2, 50, 95
3, 79200, Note_on_c, 2, 41, 95
3, 80640, Note_off_c, 2, 41, 95
3, 80640, Note_on_c, 2, 33, 95
3, 80880, Note_off_c, 2, 33, 95
3, 80880, Note_on_c, 2, 39, 95
3, 81120, Note_off_c, 2, 39, 95
3, 81120, Note_on_c, 2, 45, 95
3, 81360, Note_off_c, 2, 45, 95
3, 81360, Note_on_c, 2, 38, 95
3, 81600, Note_off_c, 2, 38, 95
3, 82080, Note_on_c, 2, 39, 95
3, 82560, Note_off_c, 2, 39, 95
3, 84480, Note_on_c, 2, 51, 95
3, 84720, Note_off_c, 2, 51, 95
3, 84720, Note_on_c, 2, 50, 95
3, 84960, Note_off_c, 2, 50, 95
3, 84960, Note_on_c, 2, 48, 95
3, 85200, Note_off_c, 2, 48, 95
3, 85200, Note_on_c, 2, 50, 95
3, 85440, Note_off_c, 2, 50, 95
3, 85440, Note_on_c, 2, 45, 95
3, 85920, Note_off_c, 2, 45, 95
3, 85920, Note_on_c, 2, 50, 95
3, 86160, Note_off_c, 2, 50, 95
3, 86160, Note_on_c, 2, 43, 95
3, 86640, Note_off_c, 2, 43, 95
3, 86640, Note_on_c, 2, 50, 95
3, 86880, Note_off_c, 2, 50, 95
3, 86880, Note_on_c, 2, 41, 95
3, 88320, Note_off_c, 2, 41, 95
3, 88320, Note_on_c, 2, 38, 95
3, 89760, Note_off_c, 2, 38, 95
3, 89760, Note_on_c, 2, 38, 95
3, 92160, Note_off_c, 2, 38, 95
3, 92160, Note_on_c, 2, 38, 95
3, 93600, Note_off_c, 2, 38, 95
3, 93600, Note_on_c, 2, 38, 95
3, 96000, Note_off_c, 2, 38, 95
3, 96000, Note_on_c, 2, 38, 95
3, 96240, Note_off_c, 2, 38, 95
3, 96240, Note_on_c, 2, 38, 95
3, 96480, Note_off_c, 2, 38, 95
3, 97680, Note_on_c, 2, 38, 95
3, 97920, Note_off_c, 2, 38, 95
3, 98640, Note_on_c, 2, 39, 95
3, 98880, Note_off_c, 2, 39, 95
3, 99840, Note_on_c, 2, 41, 95
3, 100080, Note_off_c, 2, 41, 95
3, 100080, Note_on_c, 2, 41, 95
3, 100320, Note_off_c, 2, 41, 95
3, 101520, Note_on_c, 2, 41, 95
3, 101760, Note_off_c, 2, 41, 95
3, 102480, Note_on_c, 2, 39, 95
3, 102720, Note_off_c, 2, 39, 95
3, 103680, Note_on_c, 2, 38, 95
3, 103920, Note_off_c, 2, 38, 95
3, 103920, Note_on_c, 2, 38, 95
3, 104160, Note_off_c, 2, 38, 95
3, 105360, Note_on_c, 2, 38, 95
3, 105600, Note_off_c, 2, 38, 95
3, 106320, Note_on_c, 2, 39, 95
3, 106560, Note_off_c, 2, 39, 95
3, 107520, Note_on_c, 2, 41, 95
3, 107760, Note_off_c, 2, 41, 95
3, 107760, Note_on_c, 2, 41, 95
3, 108000, Note_off_c, 2, 41, 95
3, 109200, Note_on_c, 2, 41, 95
3, 109440, Note_off_c, 2, 41, 95
3, 110160, Note_on_c, 2, 39, 95
3, 110400, Note_off_c, 2, 39, 95
3, 111360, Note_on_c, 2, 38, 95
3, 111600, Note_off_c, 2, 38, 95
3, 111600, Note_on_c, 2, 38, 95
3, 111840, Note_off_c, 2, 38, 95
3, 113040, Note_on_c, 2, 38, 95
3, 113280, Note_off_c, 2, 38, 95
3, 114000, Note_on_c, 2, 38, 95
3, 114240, Note_off_c, 2, 38, 95
3, 115200, Note_on_c, 2, 38, 95
3, 115440, Note_off_c, 2, 38, 95
3, 115440, Note_on_c, 2, 38, 95
3, 115680, Note_off_c, 2, 38, 95
3, 118080, Note_on_c, 2, 29, 95
3, 118560, Note_off_c, 2, 29, 95
3, 118560, Note_on_c, 2, 31, 95
3, 119040, Note_off_c, 2, 31, 95
3, 119040, Note_on_c, 2, 31, 95
3, 119760, Note_off_c, 2, 31, 95
3, 119760, Note_on_c, 2, 43, 95
3, 120480, Note_off_c, 2, 43, 95
3, 120480, Note_on_c, 2, 31, 95
3, 121200, Note_off_c, 2, 31, 95
3, 121200, Note_on_c, 2, 43, 95
3, 122640, Note_off_c, 2, 43, 95
3, 122640, Note_on_c, 2, 31, 95
3, 122880, Note_off_c, 2, 31, 95
3, 122880, Note_on_c, 2, 31, 95
3, 123600, Note_off_c, 2, 31, 95
3, 123600, Note_on_c, 2, 43, 95
3, 124320, Note_off_c, 2, 43, 95
3, 124320, Note_on_c, 2, 31, 95
3, 125040, Note_off_c, 2, 31, 95
3, 125040, Note_on_c, 2, 43, 95
3, 126480, Note_off_c, 2, 43, 95
3, 126480, Note_on_c, 2, 31, 95
3, 126720, Note_off_c, 2, 31, 95
3, 126720, Note_on_c, 2, 31, 95
3, 127440, Note_off_c, 2, 31, 95
3, 127440, Note_on_c, 2, 43, 95
3, 128160, Note_off_c, 2, 43, 95
3, 128160, Note_on_c, 2, 31, 95
3, 128880, Note_off_c, 2, 31, 95
3, 128880, Note_on_c, 2, 43, 95
3, 130320, Note_off_c, 2, 43, 95
3, 130320, Note_on_c, 2, 31, 95
3, 130560, Note_off_c, 2, 31, 95
3, 130560, Note_on_c, 2, 31, 95
3, 131280, Note_off_c, 2, 31, 95
3, 131280, Note_on_c, 2, 43, 95
3, 132000, Note_off_c, 2, 43, 95
3, 132000, Note_on_c, 2, 31, 95
3, 132720, Note_off_c, 2, 31, 95
3, 132720, Note_on_c, 2, 43, 95
3, 134160, Note_off_c, 2, 43, 95
3, 134160, Note_on_c, 2, 31, 95
3, 134400, Note_off_c, 2, 31, 95
3, 134400, Note_on_c, 2, 31, 95
3, 135120, Note_off_c, 2, 31, 95
3, 135120, Note_on_c, 2, 43, 95
3, 135840, Note_off_c, 2, 43, 95
3, 135840, Note_on_c, 2, 31, 95
3, 136560, Note_off_c, 2, 31, 95
3, 136560, Note_on_c, 2, 43, 95
3, 138000, Note_off_c, 2, 43, 95
3, 138000, Note_on_c, 2, 31, 95
3, 138240, Note_off_c, 2, 31, 95
3, 138240, Note_on_c, 2, 31, 95
3, 138960, Note_off_c, 2, 31, 95
3, 138960, Note_on_c, 2, 43, 95
3, 139680, Note_off_c, 2, 43, 95
3, 139680, Note_on_c, 2, 31, 95
3, 140400, Note_off_c, 2, 31, 95
3, 140400, Note_on_c, 2, 43, 95
3, 141840, Note_off_c, 2, 43, 95
3, 141840, Note_on_c, 2, 31, 95
3, 142080, Note_off_c, 2, 31, 95
3, 142080, Note_on_c, 2, 31, 95
3, 142800, Note_off_c, 2, 31, 95
3, 142800, Note_on_c, 2, 43, 95
3, 143520, Note_off_c, 2, 43, 95
3, 143520, Note_on_c, 2, 31, 95
3, 144240, Note_off_c, 2, 31, 95
3, 144240, Note_on_c, 2, 43, 95
3, 145680, Note_off_c, 2, 43, 95
3, 145680, Note_on_c, 2, 31, 95
3, 145920, Note_off_c, 2, 31, 95
3, 145920, End_track
4, 0, Start_track
4, 0, Pitch_bend_c, 4, 8192
4, 0, Control_c, 4, 7, 39
4, 0, Control_c, 4, 10, 63
4, 0, Control_c, 4, 93, 0
4, 0, Control_c, 4, 91, 0
4, 0, Control_c, 4, 95, 0
4, 0, Control_c, 4, 92, 0
4, 0, Control_c, 4, 11, 127
4, 0, Program_c, 4, 66
4, 0, Control_c, 5, 7, 39
4, 0, Control_c, 5, 10, 63
4, 0, Control_c, 5, 93, 0
4, 0, Control_c, 5, 91, 0
4, 0, Control_c, 5, 95, 0
4, 0, Control_c, 5, 92, 0
4, 0, Control_c, 5, 11, 127
4, 0, Program_c, 5, 66
4, 3840, Note_on_c, 4, 58, 95
4, 4080, Note_off_c, 4, 58, 95
4, 4080, Note_on_c, 4, 57, 95
4, 4320, Note_off_c, 4, 57, 95
4, 4320, Note_on_c, 4, 55, 95
4, 4560, Note_off_c, 4, 55, 95
4, 4560, Note_on_c, 4, 50, 95
4, 4800, Note_off_c, 4, 50, 95
4, 5280, Note_on_c, 4, 55, 95
4, 5760, Note_off_c, 4, 55, 95
4, 6720, Note_on_c, 4, 55, 95
4, 7200, Note_off_c, 4, 55, 95
4, 7680, Note_on_c, 4, 50, 95
4, 11280, Note_off_c, 4, 50, 95
4, 11280, Note_on_c, 4, 50, 95
4, 11520, Note_off_c, 4, 50, 95
4, 11520, Note_on_c, 4, 58, 95
4, 11760, Note_off_c, 4, 58, 95
4, 11760, Note_on_c, 4, 57, 95
4, 12000, Note_off_c, 4, 57, 95
4, 12000, Note_on_c, 4, 55, 95
4, 12240, Note_off_c, 4, 55, 95
4, 12240, Note_on_c, 4, 50, 95
4, 12480, Note_off_c, 4, 50, 95
4, 12960, Note_on_c, 4, 46, 95
4, 15360, Note_off_c, 4, 46, 95
4, 15360, Note_on_c, 4, 55, 95
4, 18960, Note_off_c, 4, 55, 95
4, 18960, Note_on_c, 4, 50, 95
4, 19200, Note_off_c, 4, 50, 95
4, 19200, Note_on_c, 4, 58, 95
4, 19440, Note_off_c, 4, 58, 95
4, 19440, Note_on_c, 4, 57, 95
4, 19680, Note_off_c, 4, 57, 95
4, 19680, Note_on_c, 4, 55, 95
4, 19920, Note_off_c, 4, 55, 95
4, 19920, Note_on_c, 4, 50, 95
4, 20160, Note_off_c, 4, 50, 95
4, 20160, Note_on_c, 4, 62, 95
4, 22800, Note_off_c, 4, 62, 95
4, 22800, Note_on_c, 4, 58, 95
4, 23040, Note_off_c, 4, 58, 95
4, 23040, Note_on_c, 4, 65, 95
4, 26640, Note_off_c, 4, 65, 95
4, 26640, Note_on_c, 4, 58, 95
4, 26880, Note_off_c, 4, 58, 95
4, 26880, Note_on_c, 4, 67, 95
4, 34560, Note_off_c, 4, 67, 95
4, 46080, Note_on_c, 4, 51, 95
4, 46800, Note_off_c, 4, 51, 95
4, 46800, Note_on_c, 4, 53, 95
4, 47040, Note_off_c, 4, 53, 95
4, 47040, Note_on_c, 4, 55, 95
4, 47520, Note_off_c, 4, 55, 95
4, 47520, Note_on_c, 4, 55, 95
4, 47760, Note_off_c, 4, 55, 95
4, 47760, Note_on_c, 4, 58, 95
4, 48000, Note_off_c, 4, 58, 95
4, 48000, Note_on_c, 4, 60, 95
4, 48240, Note_off_c, 4, 60, 95
4, 48240, Note_on_c, 4, 63, 95
4, 53760, Note_off_c, 4, 63, 95
4, 53760, Note_on_c, 4, 59, 95
4, 54000, Note_off_c, 4, 59, 95
4, 54000, Note_on_c, 4, 58, 95
4, 54240, Note_off_c, 4, 58, 95
4, 54240, Note_on_c, 4, 55, 95
4, 54480, Note_off_c, 4, 55, 95
4, 54480, Note_on_c, 4, 53, 95
4, 55440, Note_off_c, 4, 53, 95
4, 55440, Note_on_c, 4, 55, 95
4, 55560, Note_off_c, 4, 55, 95
4, 55560, Note_on_c, 4, 53, 95
4, 55680, Note_off_c, 4, 53, 95
4, 55680, Note_on_c, 4, 51, 95
4, 61440, Note_off_c, 4, 51, 95
4, 61440, Note_on_c, 4, 46, 95
4, 62160, Note_off_c, 4, 46, 95
4, 62160, Note_on_c, 4, 48, 95
4, 62400, Note_off_c, 4, 48, 95
4, 62400, Note_on_c, 4, 50, 95
4, 62880, Note_off_c, 4, 50, 95
4, 62880, Note_on_c, 4, 50, 95
4, 63120, Note_off_c, 4, 50, 95
4, 63120, Note_on_c, 4, 53, 95
4, 63360, Note_off_c, 4, 53, 95
4, 63360, Note_on_c, 4, 55, 95
4, 63600, Note_off_c, 4, 55, 95
4, 63600, Note_on_c, 4, 60, 95
4, 69120, Note_off_c, 4, 60, 95
4, 69120, Note_on_c, 4, 57, 95
4, 69360, Note_off_c, 4, 57, 95
4, 69360, Note_on_c, 4, 56, 95
4, 69600, Note_off_c, 4, 56, 95
4, 69600, Note_on_c, 4, 51, 95
4, 69840, Note_off_c, 4, 51, 95
4, 69840, Note_on_c, 4, 62, 95
4, 72960, Note_off_c, 4, 62, 95
4, 72960, Note_on_c, 4, 45, 95
4, 73200, Note_off_c, 4, 45, 95
4, 73200, Note_on_c, 4, 46, 95
4, 73440, Note_off_c, 4, 46, 95
4, 73440, Note_on_c, 4, 57, 95
4, 73680, Note_off_c, 4, 57, 95
4, 73680, Note_on_c, 4, 50, 95
4, 73920, Note_off_c, 4, 50, 95
4, 74400, Note_on_c, 4, 51, 95
4, 74880, Note_off_c, 4, 51, 95
4, 103680, Note_on_c, 4, 48, 95
4, 106560, Note_off_c, 4, 48, 95
4, 106560, Note_on_c, 4, 49, 95
4, 107520, Note_off_c, 4, 49, 95
4, 107520, Note_on_c, 4, 50, 95
4, 108480, Note_off_c, 4, 50, 95
4, 108480, Note_on_c, 4, 53, 95
4, 109440, Note_off_c, 4, 53, 95
4, 109440, Note_on_c, 4, 57, 95
4, 110400, Note_off_c, 4, 57, 95
4, 110400, Note_on_c, 4, 61, 95
4, 111360, Note_off_c, 4, 61, 95
4, 111360, Note_on_c, 4, 60, 95
4, 115200, Note_off_c, 4, 60, 95
4, 119040, Note_on_c, 4, 51, 95
4, 119760, Note_off_c, 4, 51, 95
4, 119760, Note_on_c, 4, 53, 95
4, 120000, Note_off_c, 4, 53, 95
4, 120000, Note_on_c, 4, 55, 95
4, 120480, Note_off_c, 4, 55, 95
4, 120480, Note_on_c, 4, 55, 95
4, 120720, Note_off_c, 4, 55, 95
4, 120720, Note_on_c, 4, 58, 95
4, 120960, Note_off_c, 4, 58, 95
4, 120960, Note_on_c, 4, 60, 95
4, 121200, Note_off_c, 4, 60, 95
4, 121200, Note_on_c, 4, 63, 95
4, 126720, Note_off_c, 4, 63, 95
4, 126720, Note_on_c, 4, 59, 95
4, 126960, Note_off_c, 4, 59, 95
4, 126960, Note_on_c, 4, 58, 95
4, 127200, Note_off_c, 4, 58, 95
4, 127200, Note_on_c, 4, 55, 95
4, 127440, Note_off_c, 4, 55, 95
4, 127440, Note_on_c, 4, 53, 95
4, 128400, Note_off_c, 4, 53, 95
4, 128400, Note_on_c, 4, 55, 95
4, 128520, Note_off_c, 4, 55, 95
4, 128520, Note_on_c, 4, 53, 95
4, 128640, Note_off_c, 4, 53, 95
4, 128640, Note_on_c, 4, 51, 95
4, 134400, Note_off_c, 4, 51, 95
4, 134400, Note_on_c, 4, 46, 95
4, 135120, Note_off_c, 4, 46, 95
4, 135120, Note_on_c, 4, 48, 95
4, 135360, Note_off_c, 4, 48, 95
4, 135360, Note_on_c, 4, 50, 95
4, 135840, Note_off_c, 4, 50, 95
4, 135840, Note_on_c, 4, 50, 95
4, 136080, Note_off_c, 4, 50, 95
4, 136080, Note_on_c, 4, 53, 95
4, 136320, Note_off_c, 4, 53, 95
4, 136320, Note_on_c, 4, 55, 95
4, 136560, Note_off_c, 4, 55, 95
4, 136560, Note_on_c, 4, 60, 95
4, 142080, Note_off_c, 4, 60, 95
4, 142080, Note_on_c, 4, 57, 95
4, 142320, Note_off_c, 4, 57, 95
4, 142320, Note_on_c, 4, 56, 95
4, 142560, Note_off_c, 4, 56, 95
4, 142560, Note_on_c, 4, 51, 95
4, 142800, Note_off_c, 4, 51, 95
4, 142800, Note_on_c, 4, 62, 95
4, 145920, Note_off_c, 4, 62, 95
4, 145920, Note_on_c, 4, 45, 95
4, 146160, Note_off_c, 4, 45, 95
4, 146160, Note_on_c, 4, 46, 95
4, 146400, Note_off_c, 4, 46, 95
4, 146400, Note_on_c, 4, 57, 95
4, 146640, Note_off_c, 4, 57, 95
4, 146640, Note_on_c, 4, 50, 95
4, 146880, Note_off_c, 4, 50, 95
4, 147360, Note_on_c, 4, 51, 95
4, 147840, Note_off_c, 4, 51, 95
4, 147840, End_track
5, 0, Start_track
5, 0, Pitch_bend_c, 9, 8192
5, 0, Control_c, 9, 7, 127
5, 0, Control_c, 9, 10, 63
5, 0, Control_c, 9, 93, 0
5, 0, Control_c, 9, 91, 0
5, 0, Control_c, 9, 95, 0
5, 0, Control_c, 9, 92, 0
5, 0, Control_c, 9, 11, 127
5, 0, Program_c, 9, 0
5, 3840, Note_on_c, 9, 37, 63
5, 3840, Note_on_c, 9, 42, 95
5, 4080, Note_off_c, 9, 37, 63
5, 4080, Note_off_c, 9, 42, 95
5, 4320, Note_on_c, 9, 46, 79
5, 4680, Note_off_c, 9, 46, 79
5, 4800, Note_on_c, 9, 37, 63
5, 4800, Note_on_c, 9, 42, 79
5, 5040, Note_off_c, 9, 37, 63
5, 5040, Note_off_c, 9, 42, 79
5, 5280, Note_on_c, 9, 46, 79
5, 5640, Note_off_c, 9, 46, 79
5, 5760, Note_on_c, 9, 37, 63
5, 5760, Note_on_c, 9, 42, 79
5, 6000, Note_off_c, 9, 37, 63
5, 6000, Note_off_c, 9, 42, 79
5, 6240, Note_on_c, 9, 46, 63
5, 6480, Note_off_c, 9, 46, 63
5, 6720, Note_on_c, 9, 37, 63
5, 6720, Note_on_c, 9, 42, 79
5, 6960, Note_off_c, 9, 37, 63
5, 6960, Note_off_c, 9, 42, 79
5, 7200, Note_on_c, 9, 46, 95
5, 7680, Note_off_c, 9, 46, 95
5, 7680, Note_on_c, 9, 37, 63
5, 7680, Note_on_c, 9, 42, 95
5, 7920, Note_off_c, 9, 37, 63
5, 7920, Note_off_c, 9, 42, 95
5, 8160, Note_on_c, 9, 46, 79
5, 8520, Note_off_c, 9, 46, 79
5, 8640, Note_on_c, 9, 37, 63
5, 8640, Note_on_c, 9, 42, 79
5, 8880, Note_off_c, 9, 37, 63
5, 8880, Note_off_c, 9, 42, 79
5, 9120, Note_on_c, 9, 46, 79
5, 9480, Note_off_c, 9, 46, 79
5, 9600, Note_on_c, 9, 37, 63
5, 9600, Note_on_c, 9, 42, 79
5, 9840, Note_off_c, 9, 37, 63
5, 9840, Note_off_c, 9, 42, 79
5, 10080, Note_on_c, 9, 46, 63
5, 10320, Note_off_c, 9, 46, 63
5, 10560, Note_on_c, 9, 37, 63
5, 10560, Note_on_c, 9, 42, 79
5, 10800, Note_off_c, 9, 37, 63
5, 10800, Note_off_c, 9, 42, 79
5, 11040, Note_on_c, 9, 46, 95
5, 11520, Note_off_c, 9, 46, 95
5, 11520, Note_on_c, 9, 37, 63
5, 11520, Note_on_c, 9, 42, 95
5, 11760, Note_off_c, 9, 37, 63
5, 11760, Note_off_c, 9, 42, 95
5, 12000, Note_on_c, 9, 46, 79
5, 12360, Note_off_c, 9, 46, 79
5, 12480, Note_on_c, 9, 37, 63
5, 12480, Note_on_c, 9, 42, 79
5, 12720, Note_off_c, 9, 37, 63
5, 12720, Note_off_c, 9, 42, 79
5, 12960, Note_on_c, 9, 46, 79
5, 13320, Note_off_c, 9, 46, 79
5, 13440, Note_on_c, 9, 37, 63
5, 13440, Note_on_c, 9, 42, 79
5, 13680, Note_off_c, 9, 37, 63
5, 13680, Note_off_c, 9, 42, 79
5, 13920, Note_on_c, 9, 46, 63
5, 14160, Note_off_c, 9, 46, 63
5, 14400, Note_on_c, 9, 37, 63
5, 14400, Note_on_c, 9, 42, 79
5, 14640, Note_off_c, 9, 37, 63
5, 14640, Note_off_c, 9, 42, 79
5, 14880, Note_on_c, 9, 46, 95
5, 15360, Note_off_c, 9, 46, 95
5, 15360, Note_on_c, 9, 37, 63
5, 15360, Note_on_c, 9, 42, 95
5, 15600, Note_off_c, 9, 37, 63
5, 15600, Note_off_c, 9, 42, 95
5, 15840, Note_on_c, 9, 46, 79
5, 16200, Note_off_c, 9, 46, 79
5, 16320, Note_on_c, 9, 37, 63
5, 16320, Note_on_c, 9, 42, 79
5, 16560, Note_off_c, 9, 37, 63
5, 16560, Note_off_c, 9, 42, 79
5, 16800, Note_on_c, 9, 46, 79
5, 17160, Note_off_c, 9, 46, 79
5, 17280, Note_on_c, 9, 37, 63
5, 17280, Note_on_c, 9, 42, 79
5, 17520, Note_off_c, 9, 37, 63
5, 17520, Note_off_c, 9, 42, 79
5, 17760, Note_on_c, 9, 46, 63
5, 18000, Note_off_c, 9, 46, 63
5, 18240, Note_on_c, 9, 37, 63
5, 18240, Note_on_c, 9, 42, 79
5, 18480, Note_off_c, 9, 37, 63
5, 18480, Note_off_c, 9, 42, 79
5, 18720, Note_on_c, 9, 46, 95
5, 19200, Note_off_c, 9, 46, 95
5, 19200, Note_on_c, 9, 37, 63
5, 19200, Note_on_c, 9, 42, 95
5, 19440, Note_off_c, 9, 37, 63
5, 19440, Note_off_c, 9, 42, 95
5, 19680, Note_on_c, 9, 46, 79
5, 20040, Note_off_c, 9, 46, 79
5, 20160, Note_on_c, 9, 37, 63
5, 20160, Note_on_c, 9, 42, 79
5, 20400, Note_off_c, 9, 37, 63
5, 20400, Note_off_c, 9, 42, 79
5, 20640, Note_on_c, 9, 46, 79
5, 21000, Note_off_c, 9, 46, 79
5, 21120, Note_on_c, 9, 37, 63
5, 21120, Note_on_c, 9, 42, 79
5, 21360, Note_off_c, 9, 37, 63
5, 21360, Note_off_c, 9, 42, 79
5, 21600, Note_on_c, 9, 46, 63
5, 21840, Note_off_c, 9, 46, 63
5, 22080, Note_on_c, 9, 37, 63
5, 22080, Note_on_c, 9, 42, 79
5, 22320, Note_off_c, 9, 37, 63
5, 22320, Note_off_c, 9, 42, 79
5, 22560, Note_on_c, 9, 46, 95
5, 23040, Note_off_c, 9, 46, 95
5, 23040, Note_on_c, 9, 37, 63
5, 23040, Note_on_c, 9, 42, 95
5, 23280, Note_off_c, 9, 37, 63
5, 23280, Note_off_c, 9, 42, 95
5, 23520, Note_on_c, 9, 46, 79
5, 23880, Note_off_c, 9, 46, 79
5, 24000, Note_on_c, 9, 37, 63
5, 24000, Note_on_c, 9, 42, 79
5, 24240, Note_off_c, 9, 37, 63
5, 24240, Note_off_c, 9, 42, 79
5, 24480, Note_on_c, 9, 46, 79
5, 24840, Note_off_c, 9, 46, 79
5, 24960, Note_on_c, 9, 37, 63
5, 24960, Note_on_c, 9, 42, 79
5, 25200, Note_off_c, 9, 37, 63
5, 25200, Note_off_c, 9, 42, 79
5, 25440, Note_on_c, 9, 46, 63
5, 25680, Note_off_c, 9, 46, 63
5, 25920, Note_on_c, 9, 37, 63
5, 25920, Note_on_c, 9, 42, 79
5, 26160, Note_off_c, 9, 37, 63
5, 26160, Note_off_c, 9, 42, 79
5, 26400, Note_on_c, 9, 46, 95
5, 26880, Note_off_c, 9, 46, 95
5, 26880, Note_on_c, 9, 37, 63
5, 26880, Note_on_c, 9, 42, 95
5, 27120, Note_off_c, 9, 37, 63
5, 27120, Note_off_c, 9, 42, 95
5, 27360, Note_on_c, 9, 46, 79
5, 27720, Note_off_c, 9, 46, 79
5, 27840, Note_on_c, 9, 37, 63
5, 27840, Note_on_c, 9, 42, 79
5, 28080, Note_off_c, 9, 37, 63
5, 28080, Note_off_c, 9, 42, 79
5, 28320, Note_on_c, 9, 46, 79
5, 28680, Note_off_c, 9, 46, 79
5, 28800, Note_on_c, 9, 37, 63
5, 28800, Note_on_c, 9, 42, 79
5, 29040, Note_off_c, 9, 37, 63
5, 29040, Note_off_c, 9, 42, 79
5, 29280, Note_on_c, 9, 46, 63
5, 29520, Note_off_c, 9, 46, 63
5, 29760, Note_on_c, 9, 37, 63
5, 29760, Note_on_c, 9, 42, 79
5, 30000, Note_off_c, 9, 37, 63
5, 30000, Note_off_c, 9, 42, 79
5, 30240, Note_on_c, 9, 46, 95
5, 30720, Note_off_c, 9, 46, 95
5, 30720, Note_on_c, 9, 37, 63
5, 30720, Note_on_c, 9, 42, 95
5, 30960, Note_off_c, 9, 37, 63
5, 30960, Note_off_c, 9, 42, 95
5, 31200, Note_on_c, 9, 46, 79
5, 31560, Note_off_c, 9, 46, 79
5, 31680, Note_on_c, 9, 37, 63
5, 31680, Note_on_c, 9, 42, 79
5, 31920, Note_off_c, 9, 37, 63
5, 31920, Note_off_c, 9, 42, 79
5, 32160, Note_on_c, 9, 46, 79
5, 32520, Note_off_c, 9, 46, 79
5, 32640, Note_on_c, 9, 37, 63
5, 32640, Note_on_c, 9, 42, 79
5, 32880, Note_off_c, 9, 37, 63
5, 32880, Note_off_c, 9, 42, 79
5, 33120, Note_on_c, 9, 46, 63
5, 33360, Note_off_c, 9, 46, 63
5, 33600, Note_on_c, 9, 37, 63
5, 33600, Note_on_c, 9, 42, 79
5, 33840, Note_off_c, 9, 37, 63
5, 33840, Note_off_c, 9, 42, 79
5, 34080, Note_on_c, 9, 46, 95
5, 34560, Note_off_c, 9, 46, 95
5, 34560, Note_on_c, 9, 37, 63
5, 34560, Note_on_c, 9, 42, 95
5, 34800, Note_off_c, 9, 37, 63
5, 34800, Note_off_c, 9, 42, 95
5, 35040, Note_on_c, 9, 46, 79
5, 35400, Note_off_c, 9, 46, 79
5, 35520, Note_on_c, 9, 37, 63
5, 35520, Note_on_c, 9, 42, 79
5, 35760, Note_off_c, 9, 37, 63
5, 35760, Note_off_c, 9, 42, 79
5, 36000, Note_on_c, 9, 46, 79
5, 36360, Note_off_c, 9, 46, 79
5, 36480, Note_on_c, 9, 37, 63
5, 36480, Note_on_c, 9, 42, 79
5, 36720, Note_off_c, 9, 37, 63
5, 36720, Note_off_c, 9, 42, 79
5, 36960, Note_on_c, 9, 46, 63
5, 37200, Note_off_c, 9, 46, 63
5, 37440, Note_on_c, 9, 37, 63
5, 37440, Note_on_c, 9, 42, 79
5, 37680, Note_off_c, 9, 37, 63
5, 37680, Note_off_c, 9, 42, 79
5, 37920, Note_on_c, 9, 46, 95
5, 38400, Note_off_c, 9, 46, 95
5, 38400, Note_on_c, 9, 37, 63
5, 38400, Note_on_c, 9, 42, 95
5, 38640, Note_off_c, 9, 37, 63
5, 38640, Note_off_c, 9, 42, 95
5, 38880, Note_on_c, 9, 46, 79
5, 39240, Note_off_c, 9, 46, 79
5, 39360, Note_on_c, 9, 37, 63
5, 39360, Note_on_c, 9, 42, 79
5, 39600, Note_off_c, 9, 37, 63
5, 39600, Note_off_c, 9, 42, 79
5, 39840, Note_on_c, 9, 46, 79
5, 40200, Note_off_c, 9, 46, 79
5, 40320, Note_on_c, 9, 37, 63
5, 40320, Note_on_c, 9, 42, 79
5, 40560, Note_off_c, 9, 37, 63
5, 40560, Note_off_c, 9, 42, 79
5, 40800, Note_on_c, 9, 46, 63
5, 41040, Note_off_c, 9, 46, 63
5, 41280, Note_on_c, 9, 37, 63
5, 41280, Note_on_c, 9, 42, 79
5, 41520, Note_off_c, 9, 37, 63
5, 41520, Note_off_c, 9, 42, 79
5, 41760, Note_on_c, 9, 46, 95
5, 42240, Note_off_c, 9, 46, 95
5, 42240, Note_on_c, 9, 37, 63
5, 42240, Note_on_c, 9, 42, 95
5, 42480, Note_off_c, 9, 37, 63
5, 42480, Note_off_c, 9, 42, 95
5, 42720, Note_on_c, 9, 46, 79
5, 43080, Note_off_c, 9, 46, 79
5, 43200, Note_on_c, 9, 37, 63
5, 43200, Note_on_c, 9, 42, 79
5, 43440, Note_off_c, 9, 37, 63
5, 43440, Note_off_c, 9, 42, 79
5, 43680, Note_on_c, 9, 46, 79
5, 44040, Note_off_c, 9, 46, 79
5, 44160, Note_on_c, 9, 37, 63
5, 44160, Note_on_c, 9, 42, 79
5, 44400, Note_off_c, 9, 37, 63
5, 44400, Note_off_c, 9, 42, 79
5, 44640, Note_on_c, 9, 46, 63
5, 44880, Note_off_c, 9, 46, 63
5, 45120, Note_on_c, 9, 37, 63
5, 45120, Note_on_c, 9, 42, 79
5, 45360, Note_off_c, 9, 37, 63
5, 45360, Note_off_c, 9, 42, 79
5, 45600, Note_on_c, 9, 46, 95
5, 46080, Note_off_c, 9, 46, 95
5, 46080, Note_on_c, 9, 37, 63
5, 46080, Note_on_c, 9, 42, 95
5, 46320, Note_off_c, 9, 37, 63
5, 46320, Note_off_c, 9, 42, 95
5, 46560, Note_on_c, 9, 46, 79
5, 46920, Note_off_c, 9, 46, 79
5, 47040, Note_on_c, 9, 37, 63
5, 47040, Note_on_c, 9, 42, 79
5, 47280, Note_off_c, 9, 37, 63
5, 47280, Note_off_c, 9, 42, 79
5, 47520, Note_on_c, 9, 46, 79
5, 47880, Note_off_c, 9, 46, 79
5, 48000, Note_on_c, 9, 37, 63
5, 48000, Note_on_c, 9, 42, 79
5, 48240, Note_off_c, 9, 37, 63
5, 48240, Note_off_c, 9, 42, 79
5, 48480, Note_on_c, 9, 46, 63
5, 48720, Note_off_c, 9, 46, 63
5, 48960, Note_on_c, 9, 37, 63
5, 48960, Note_on_c, 9, 42, 79
5, 49200, Note_off_c, 9, 37, 63
5, 49200, Note_off_c, 9, 42, 79
5, 49440, Note_on_c, 9, 46, 95
5, 49920, Note_off_c, 9, 46, 95
5, 49920, Note_on_c, 9, 37, 63
5, 49920, Note_on_c, 9, 42, 95
5, 50160, Note_off_c, 9, 37, 63
5, 50160, Note_off_c, 9, 42, 95
5, 50400, Note_on_c, 9, 46, 79
5, 50760, Note_off_c, 9, 46, 79
5, 50880, Note_on_c, 9, 37, 63
5, 50880, Note_on_c, 9, 42, 79
5, 51120, Note_off_c, 9, 37, 63
5, 51120, Note_off_c, 9, 42, 79
5, 51360, Note_on_c, 9, 46, 79
5, 51720, Note_off_c, 9, 46, 79
5, 51840, Note_on_c, 9, 37, 63
5, 51840, Note_on_c, 9, 42, 79
5, 52080, Note_off_c, 9, 37, 63
5, 52080, Note_off_c, 9, 42, 79
5, 52320, Note_on_c, 9, 46, 63
5, 52560, Note_off_c, 9, 46, 63
5, 52800, Note_on_c, 9, 37, 63
5, 52800, Note_on_c, 9, 42, 79
5, 53040, Note_off_c, 9, 37, 63
5, 53040, Note_off_c, 9, 42, 79
5, 53280, Note_on_c, 9, 46, 95
5, 53760, Note_off_c, 9, 46, 95
5, 53760, Note_on_c, 9, 37, 63
5, 53760, Note_on_c, 9, 42, 95
5, 54000, Note_off_c, 9, 37, 63
5, 54000, Note_off_c, 9, 42, 95
5, 54240, Note_on_c, 9, 46, 79
5, 54600, Note_off_c, 9, 46, 79
5, 54720, Note_on_c, 9, 37, 63
5, 54720, Note_on_c, 9, 42, 79
5, 54960, Note_off_c, 9, 37, 63
5, 54960, Note_off_c, 9, 42, 79
5, 55200, Note_on_c, 9, 46, 79
5, 55560, Note_off_c, 9, 46, 79
5, 55680, Note_on_c, 9, 37, 63
5, 55680, Note_on_c, 9, 42, 79
5, 55920, Note_off_c, 9, 37, 63
5, 55920, Note_off_c, 9, 42, 79
5, 56160, Note_on_c, 9, 46, 63
5, 56400, Note_off_c, 9, 46, 63
5, 56640, Note_on_c, 9, 37, 63
5, 56640, Note_on_c, 9, 42, 79
5, 56880, Note_off_c, 9, 37, 63
5, 56880, Note_off_c, 9, 42, 79
5, 57120, Note_on_c, 9, 46, 95
5, 57600, Note_off_c, 9, 46, 95
5, 57600, Note_on_c, 9, 37, 63
5, 57600, Note_on_c, 9, 42, 95
5, 57840, Note_off_c, 9, 37, 63
5, 57840, Note_off_c, 9, 42, 95
5, 58080, Note_on_c, 9, 46, 79
5, 58440, Note_off_c, 9, 46, 79
5, 58560, Note_on_c, 9, 37, 63
5, 58560, Note_on_c, 9, 42, 79
5, 58800, Note_off_c, 9, 37, 63
5, 58800, Note_off_c, 9, 42, 79
5, 59040, Note_on_c, 9, 46, 79
5, 59400, Note_off_c, 9, 46, 79
5, 59520, Note_on_c, 9, 37, 63
5, 59520, Note_on_c, 9, 42, 79
5, 59760, Note_off_c, 9, 37, 63
5, 59760, Note_off_c, 9, 42, 79
5, 60000, Note_on_c, 9, 46, 63
5, 60240, Note_off_c, 9, 46, 63
5, 60480, Note_on_c, 9, 37, 63
5, 60480, Note_on_c, 9, 42, 79
5, 60720, Note_off_c, 9, 37, 63
5, 60720, Note_off_c, 9, 42, 79
5, 60960, Note_on_c, 9, 46, 95
5, 61440, Note_off_c, 9, 46, 95
5, 61440, Note_on_c, 9, 37, 63
5, 61440, Note_on_c, 9, 42, 95
5, 61680, Note_off_c, 9, 37, 63
5, 61680, Note_off_c, 9, 42, 95
5, 61920, Note_on_c, 9, 46, 79
5, 62280, Note_off_c, 9, 46, 79
5, 62400, Note_on_c, 9, 37, 63
5, 62400, Note_on_c, 9, 42, 79
5, 62640, Note_off_c, 9, 37, 63
5, 62640, Note_off_c, 9, 42, 79
5, 62880, Note_on_c, 9, 46, 79
5, 63240, Note_off_c, 9, 46, 79
5, 63360, Note_on_c, 9, 37, 63
5, 63360, Note_on_c, 9, 42, 79
5, 63600, Note_off_c, 9, 37, 63
5, 63600, Note_off_c, 9, 42, 79
5, 63840, Note_on_c, 9, 46, 63
5, 64080, Note_off_c, 9, 46, 63
5, 64320, Note_on_c, 9, 37, 63
5, 64320, Note_on_c, 9, 42, 79
5, 64560, Note_off_c, 9, 37, 63
5, 64560, Note_off_c, 9, 42, 79
5, 64800, Note_on_c, 9, 46, 95
5, 65280, Note_off_c, 9, 46, 95
5, 65280, Note_on_c, 9, 37, 63
5, 65280, Note_on_c, 9, 42, 95
5, 65520, Note_off_c, 9, 37, 63
5, 65520, Note_off_c, 9, 42, 95
5, 65760, Note_on_c, 9, 46, 79
5, 66120, Note_off_c, 9, 46, 79
5, 66240, Note_on_c, 9, 37, 63
5, 66240, Note_on_c, 9, 42, 79
5, 66480, Note_off_c, 9, 37, 63
5, 66480, Note_off_c, 9, 42, 79
5, 66720, Note_on_c, 9, 46, 79
5, 67080, Note_off_c, 9, 46, 79
5, 67200, Note_on_c, 9, 37, 63
5, 67200, Note_on_c, 9, 42, 79
5, 67440, Note_off_c, 9, 37, 63
5, 67440, Note_off_c, 9, 42, 79
5, 67680, Note_on_c, 9, 46, 63
5, 67920, Note_off_c, 9, 46, 63
5, 68160, Note_on_c, 9, 37, 63
5, 68160, Note_on_c, 9, 42, 79
5, 68400, Note_off_c, 9, 37, 63
5, 68400, Note_off_c, 9, 42, 79
5, 68640, Note_on_c, 9, 46, 95
5, 69120, Note_off_c, 9, 46, 95
5, 69120, Note_on_c, 9, 37, 63
5, 69120, Note_on_c, 9, 42, 95
5, 69360, Note_off_c, 9, 37, 63
5, 69360, Note_off_c, 9, 42, 95
5, 69600, Note_on_c, 9, 46, 79
5, 69960, Note_off_c, 9, 46, 79
5, 70080, Note_on_c, 9, 37, 63
5, 70080, Note_on_c, 9, 42, 79
5, 70320, Note_off_c, 9, 37, 63
5, 70320, Note_off_c, 9, 42, 79
5, 70560, Note_on_c, 9, 46, 79
5, 70920, Note_off_c, 9, 46, 79
5, 71040, Note_on_c, 9, 37, 63
5, 71040, Note_on_c, 9, 42, 79
5, 71280, Note_off_c, 9, 37, 63
5, 71280, Note_off_c, 9, 42, 79
5, 71520, Note_on_c, 9, 46, 63
5, 71760, Note_off_c, 9, 46, 63
5, 72000, Note_on_c, 9, 37, 63
5, 72000, Note_on_c, 9, 42, 79
5, 72240, Note_off_c, 9, 37, 63
5, 72240, Note_off_c, 9, 42, 79
5, 72480, Note_on_c, 9, 46, 95
5, 72960, Note_off_c, 9, 46, 95
5, 72960, Note_on_c, 9, 42, 95
5, 73920, Note_off_c, 9, 42, 95
5, 73920, Note_on_c, 9, 35, 95
5, 73920, Note_on_c, 9, 42, 95
5, 74880, Note_off_c, 9, 35, 95
5, 74880, Note_off_c, 9, 42, 95
5, 76800, Note_on_c, 9, 37, 63
5, 76800, Note_on_c, 9, 42, 95
5, 77040, Note_off_c, 9, 37, 63
5, 77040, Note_off_c, 9, 42, 95
5, 77280, Note_on_c, 9, 46, 79
5, 77640, Note_off_c, 9, 46, 79
5, 77760, Note_on_c, 9, 37, 63
5, 77760, Note_on_c, 9, 42, 79
5, 78000, Note_off_c, 9, 37, 63
5, 78000, Note_off_c, 9, 42, 79
5, 78240, Note_on_c, 9, 46, 79
5, 78600, Note_off_c, 9, 46, 79
5, 78720, Note_on_c, 9, 37, 63
5, 78720, Note_on_c, 9, 42, 79
5, 78960, Note_off_c, 9, 37, 63
5, 78960, Note_off_c, 9, 42, 79
5, 79200, Note_on_c, 9, 46, 63
5, 79440, Note_off_c, 9, 46, 63
5, 79680, Note_on_c, 9, 37, 63
5, 79680, Note_on_c, 9, 42, 79
5, 79920, Note_off_c, 9, 37, 63
5, 79920, Note_off_c, 9, 42, 79
5, 80160, Note_on_c, 9, 46, 95
5, 80640, Note_off_c, 9, 46, 95
5, 80640, Note_on_c, 9, 42, 95
5, 81600, Note_off_c, 9, 42, 95
5, 81600, Note_on_c, 9, 35, 95
5, 81600, Note_on_c, 9, 42, 95
5, 82560, Note_off_c, 9, 35, 95
5, 82560, Note_off_c, 9, 42, 95
5, 84480, Note_on_c, 9, 37, 63
5, 84480, Note_on_c, 9, 42, 95
5, 84720, Note_off_c, 9, 37, 63
5, 84720, Note_off_c, 9, 42, 95
5, 84960, Note_on_c, 9, 46, 79
5, 85320, Note_off_c, 9, 46, 79
5, 85440, Note_on_c, 9, 37, 63
5, 85440, Note_on_c, 9, 42, 79
5, 85680, Note_off_c, 9, 37, 63
5, 85680, Note_off_c, 9, 42, 79
5, 85920, Note_on_c, 9, 46, 79
5, 86280, Note_off_c, 9, 46, 79
5, 86400, Note_on_c, 9, 37, 63
5, 86400, Note_on_c, 9, 42, 79
5, 86640, Note_off_c, 9, 37, 63
5, 86640, Note_off_c, 9, 42, 79
5, 86880, Note_on_c, 9, 46, 63
5, 87120, Note_off_c, 9, 46, 63
5, 87360, Note_on_c, 9, 37, 63
5, 87360, Note_on_c, 9, 42, 79
5, 87600, Note_off_c, 9, 37, 63
5, 87600, Note_off_c, 9, 42, 79
5, 87840, Note_on_c, 9, 46, 95
5, 88320, Note_off_c, 9, 46, 95
5, 88320, Note_on_c, 9, 37, 63
5, 88320, Note_on_c, 9, 42, 95
5, 88560, Note_off_c, 9, 37, 63
5, 88560, Note_off_c, 9, 42, 95
5, 88800, Note_on_c, 9, 46, 79
5, 89160, Note_off_c, 9, 46, 79
5, 89280, Note_on_c, 9, 37, 63
5, 89280, Note_on_c, 9, 42, 79
5, 89520, Note_off_c, 9, 37, 63
5, 89520, Note_off_c, 9, 42, 79
5, 89760, Note_on_c, 9, 46, 79
5, 90120, Note_off_c, 9, 46, 79
5, 90240, Note_on_c, 9, 37, 63
5, 90240, Note_on_c, 9, 42, 79
5, 90480, Note_off_c, 9, 37, 63
5, 90480, Note_off_c, 9, 42, 79
5, 90720, Note_on_c, 9, 46, 63
5, 90960, Note_off_c, 9, 46, 63
5, 91200, Note_on_c, 9, 37, 63
5, 91200, Note_on_c, 9, 42, 79
5, 91440, Note_off_c, 9, 37, 63
5, 91440, Note_off_c, 9, 42, 79
5, 91680, Note_on_c, 9, 46, 95
5, 92160, Note_off_c, 9, 46, 95
5, 92160, Note_on_c, 9, 37, 63
5, 92160, Note_on_c, 9, 42, 95
5, 92400, Note_off_c, 9, 37, 63
5, 92400, Note_off_c, 9, 42, 95
5, 92640, Note_on_c, 9, 46, 79
5, 93000, Note_off_c, 9, 46, 79
5, 93120, Note_on_c, 9, 37, 63
5, 93120, Note_on_c, 9, 42, 79
5, 93360, Note_off_c, 9, 37, 63
5, 93360, Note_off_c, 9, 42, 79
5, 93600, Note_on_c, 9, 46, 79
5, 93960, Note_off_c, 9, 46, 79
5, 94080, Note_on_c, 9, 37, 63
5, 94080, Note_on_c, 9, 42, 79
5, 94320, Note_off_c, 9, 37, 63
5, 94320, Note_off_c, 9, 42, 79
5, 94560, Note_on_c, 9, 46, 63
5, 94800, Note_off_c, 9, 46, 63
5, 95040, Note_on_c, 9, 37, 63
5, 95040, Note_on_c, 9, 42, 79
5, 95280, Note_off_c, 9, 37, 63
5, 95280, Note_off_c, 9, 42, 79
5, 95520, Note_on_c, 9, 46, 95
5, 96000, Note_off_c, 9, 46, 95
5, 96000, Note_on_c, 9, 37, 63
5, 96000, Note_on_c, 9, 42, 95
5, 96240, Note_off_c, 9, 37, 63
5, 96240, Note_off_c, 9, 42, 95
5, 96480, Note_on_c, 9, 46, 79
5, 96840, Note_off_c, 9, 46, 79
5, 96960, Note_on_c, 9, 37, 63
5, 96960, Note_on_c, 9, 42, 79
5, 97200, Note_off_c, 9, 37, 63
5, 97200, Note_off_c, 9, 42, 79
5, 97440, Note_on_c, 9, 46, 79
5, 97800, Note_off_c, 9, 46, 79
5, 97920, Note_on_c, 9, 37, 63
5, 97920, Note_on_c, 9, 42, 79
5, 98160, Note_off_c, 9, 37, 63
5, 98160, Note_off_c, 9, 42, 79
5, 98400, Note_on_c, 9, 46, 63
5, 98640, Note_off_c, 9, 46, 63
5, 98880, Note_on_c, 9, 37, 63
5, 98880, Note_on_c, 9, 42, 79
5, 99120, Note_off_c, 9, 37, 63
5, 99120, Note_off_c, 9, 42, 79
5, 99360, Note_on_c, 9, 46, 95
5, 99840, Note_off_c, 9, 46, 95
5, 99840, Note_on_c, 9, 37, 63
5, 99840, Note_on_c, 9, 42, 95
5, 100080, Note_off_c, 9, 37, 63
5, 100080, Note_off_c, 9, 42, 95
5, 100320, Note_on_c, 9, 46, 79
5, 100680, Note_off_c, 9, 46, 79
5, 100800, Note_on_c, 9, 37, 63
5, 100800, Note_on_c, 9, 42, 79
5, 101040, Note_off_c, 9, 37, 63
5, 101040, Note_off_c, 9, 42, 79
5, 101280, Note_on_c, 9, 46, 79
5, 101640, Note_off_c, 9, 46, 79
5, 101760, Note_on_c, 9, 37, 63
5, 101760, Note_on_c, 9, 42, 79
5, 102000, Note_off_c, 9, 37, 63
5, 102000, Note_off_c, 9, 42, 79
5, 102240, Note_on_c, 9, 46, 63
5, 102480, Note_off_c, 9, 46, 63
5, 102720, Note_on_c, 9, 37, 63
5, 102720, Note_on_c, 9, 42, 79
5, 102960, Note_off_c, 9, 37, 63
5, 102960, Note_off_c, 9, 42, 79
5, 103200, Note_on_c, 9, 46, 95
5, 103680, Note_off_c, 9, 46, 95
5, 103680, Note_on_c, 9, 37, 63
5, 103680, Note_on_c, 9, 42, 95
5, 103920, Note_off_c, 9, 37, 63
5, 103920, Note_off_c, 9, 42, 95
5, 104160, Note_on_c, 9, 46, 79
5, 104520, Note_off_c, 9, 46, 79
5, 104640, Note_on_c, 9, 37, 63
5, 104640, Note_on_c, 9, 42, 79
5, 104880, Note_off_c, 9, 37, 63
5, 104880, Note_off_c, 9, 42, 79
5, 105120, Note_on_c, 9, 46, 79
5, 105480, Note_off_c, 9, 46, 79
5, 105600, Note_on_c, 9, 37, 63
5, 105600, Note_on_c, 9, 42, 79
5, 105840, Note_off_c, 9, 37, 63
5, 105840, Note_off_c, 9, 42, 79
5, 106080, Note_on_c, 9, 46, 63
5, 106320, Note_off_c, 9, 46, 63
5, 106560, Note_on_c, 9, 37, 63
5, 106560, Note_on_c, 9, 42, 79
5, 106800, Note_off_c, 9, 37, 63
5, 106800, Note_off_c, 9, 42, 79
5, 107040, Note_on_c, 9, 46, 95
5, 107520, Note_off_c, 9, 46, 95
5, 107520, Note_on_c, 9, 37, 63
5, 107520, Note_on_c, 9, 42, 95
5, 107760, Note_off_c, 9, 37, 63
5, 107760, Note_off_c, 9, 42, 95
5, 108000, Note_on_c, 9, 46, 79
5, 108360, Note_off_c, 9, 46, 79
5, 108480, Note_on_c, 9, 37, 63
5, 108480, Note_on_c, 9, 42, 79
5, 108720, Note_off_c, 9, 37, 63
5, 108720, Note_off_c, 9, 42, 79
5, 108960, Note_on_c, 9, 46, 79
5, 109320, Note_off_c, 9, 46, 79
5, 109440, Note_on_c, 9, 37, 63
5, 109440, Note_on_c, 9, 42, 79
5, 109680, Note_off_c, 9, 37, 63
5, 109680, Note_off_c, 9, 42, 79
5, 109920, Note_on_c, 9, 46, 63
5, 110160, Note_off_c, 9, 46, 63
5, 110400, Note_on_c, 9, 37, 63
5, 110400, Note_on_c, 9, 42, 79
5, 110640, Note_off_c, 9, 37, 63
5, 110640, Note_off_c, 9, 42, 79
5, 110880, Note_on_c, 9, 46, 95
5, 111360, Note_off_c, 9, 46, 95
5, 111360, Note_on_c, 9, 37, 63
5, 111360, Note_on_c, 9, 42, 95
5, 111600, Note_off_c, 9, 37, 63
5, 111600, Note_off_c, 9, 42, 95
5, 111840, Note_on_c, 9, 46, 79
5, 112200, Note_off_c, 9, 46, 79
5, 112320, Note_on_c, 9, 37, 63
5, 112320, Note_on_c, 9, 42, 79
5, 112560, Note_off_c, 9, 37, 63
5, 112560, Note_off_c, 9, 42, 79
5, 112800, Note_on_c, 9, 46, 79
5, 113160, Note_off_c, 9, 46, 79
5, 113280, Note_on_c, 9, 37, 63
5, 113280, Note_on_c, 9, 42, 79
5, 113520, Note_off_c, 9, 37, 63
5, 113520, Note_off_c, 9, 42, 79
5, 113760, Note_on_c, 9, 46, 63
5, 114000, Note_off_c, 9, 46, 63
5, 114240, Note_on_c, 9, 37, 63
5, 114240, Note_on_c, 9, 42, 79
5, 114480, Note_off_c, 9, 37, 63
5, 114480, Note_off_c, 9, 42, 79
5, 114720, Note_on_c, 9, 46, 95
5, 115200, Note_off_c, 9, 46, 95
5, 115200, Note_on_c, 9, 37, 63
5, 115200, Note_on_c, 9, 42, 95
5, 115440, Note_off_c, 9, 37, 63
5, 115440, Note_off_c, 9, 42, 95
5, 115680, Note_on_c, 9, 46, 79
5, 116040, Note_off_c, 9, 46, 79
5, 116160, Note_on_c, 9, 37, 63
5, 116160, Note_on_c, 9, 42, 79
5, 116400, Note_off_c, 9, 37, 63
5, 116400, Note_off_c, 9, 42, 79
5, 116640, Note_on_c, 9, 46, 79
5, 117000, Note_off_c, 9, 46, 79
5, 117120, Note_on_c, 9, 37, 63
5, 117120, Note_on_c, 9, 42, 79
5, 117360, Note_off_c, 9, 37, 63
5, 117360, Note_off_c, 9, 42, 79
5, 117600, Note_on_c, 9, 46, 63
5, 117840, Note_off_c, 9, 46, 63
5, 118080, Note_on_c, 9, 37, 63
5, 118080, Note_on_c, 9, 42, 79
5, 118320, Note_off_c, 9, 37, 63
5, 118320, Note_off_c, 9, 42, 79
5, 118560, Note_on_c, 9, 46, 95
5, 119040, Note_off_c, 9, 46, 95
5, 119040, Note_on_c, 9, 37, 63
5, 119040, Note_on_c, 9, 42, 95
5, 119280, Note_off_c, 9, 37, 63
5, 119280, Note_off_c, 9, 42, 95
5, 119520, Note_on_c, 9, 46, 79
5, 119880, Note_off_c, 9, 46, 79
5, 120000, Note_on_c, 9, 37, 63
5, 120000, Note_on_c, 9, 42, 79
5, 120240, Note_off_c, 9, 37, 63
5, 120240, Note_off_c, 9, 42, 79
5, 120480, Note_on_c, 9, 46, 79
5, 120840, Note_off_c, 9, 46, 79
5, 120960, Note_on_c, 9, 37, 63
5, 120960, Note_on_c, 9, 42, 79
5, 121200, Note_off_c, 9, 37, 63
5, 121200, Note_off_c, 9, 42, 79
5, 121440, Note_on_c, 9, 46, 63
5, 121680, Note_off_c, 9, 46, 63
5, 121920, Note_on_c, 9, 37, 63
5, 121920, Note_on_c, 9, 42, 79
5, 122160, Note_off_c, 9, 37, 63
5, 122160, Note_off_c, 9, 42, 79
5, 122400, Note_on_c, 9, 46, 95
5, 122880, Note_off_c, 9, 46, 95
5, 122880, Note_on_c, 9, 37, 63
5, 122880, Note_on_c, 9, 42, 95
5, 123120, Note_off_c, 9, 37, 63
5, 123120, Note_off_c, 9, 42, 95
5, 123360, Note_on_c, 9, 46, 79
5, 123720, Note_off_c, 9, 46, 79
5, 123840, Note_on_c, 9, 37, 63
5, 123840, Note_on_c, 9, 42, 79
5, 124080, Note_off_c, 9, 37, 63
5, 124080, Note_off_c, 9, 42, 79
5, 124320, Note_on_c, 9, 46, 79
5, 124680, Note_off_c, 9, 46, 79
5, 124800, Note_on_c, 9, 37, 63
5, 124800, Note_on_c, 9, 42, 79
5, 125040, Note_off_c, 9, 37, 63
5, 125040, Note_off_c, 9, 42, 79
5, 125280, Note_on_c, 9, 46, 63
5, 125520, Note_off_c, 9, 46, 63
5, 125760, Note_on_c, 9, 37, 63
5, 125760, Note_on_c, 9, 42, 79
5, 126000, Note_off_c, 9, 37, 63
5, 126000, Note_off_c, 9, 42, 79
5, 126240, Note_on_c, 9, 46, 95
5, 126720, Note_off_c, 9, 46, 95
5, 126720, Note_on_c, 9, 37, 63
5, 126720, Note_on_c, 9, 42, 95
5, 126960, Note_off_c, 9, 37, 63
5, 126960, Note_off_c, 9, 42, 95
5, 127200, Note_on_c, 9, 46, 79
5, 127560, Note_off_c, 9, 46, 79
5, 127680, Note_on_c, 9, 37, 63
5, 127680, Note_on_c, 9, 42, 79
5, 127920, Note_off_c, 9, 37, 63
5, 127920, Note_off_c, 9, 42, 79
5, 128160, Note_on_c, 9, 46, 79
5, 128520, Note_off_c, 9, 46, 79
5, 128640, Note_on_c, 9, 37, 63
5, 128640, Note_on_c, 9, 42, 79
5, 128880, Note_off_c, 9, 37, 63
5, 128880, Note_off_c, 9, 42, 79
5, 129120, Note_on_c, 9, 46, 63
5, 129360, Note_off_c, 9, 46, 63
5, 129600, Note_on_c, 9, 37, 63
5, 129600, Note_on_c, 9, 42, 79
5, 129840, Note_off_c, 9, 37, 63
5, 129840, Note_off_c, 9, 42, 79
5, 130080, Note_on_c, 9, 46, 95
5, 130560, Note_off_c, 9, 46, 95
5, 130560, Note_on_c, 9, 37, 63
5, 130560, Note_on_c, 9, 42, 95
5, 130800, Note_off_c, 9, 37, 63
5, 130800, Note_off_c, 9, 42, 95
5, 131040, Note_on_c, 9, 46, 79
5, 131400, Note_off_c, 9, 46, 79
5, 131520, Note_on_c, 9, 37, 63
5, 131520, Note_on_c, 9, 42, 79
5, 131760, Note_off_c, 9, 37, 63
5, 131760, Note_off_c, 9, 42, 79
5, 132000, Note_on_c, 9, 46, 79
5, 132360, Note_off_c, 9, 46, 79
5, 132480, Note_on_c, 9, 37, 63
5, 132480, Note_on_c, 9, 42, 79
5, 132720, Note_off_c, 9, 37, 63
5, 132720, Note_off_c, 9, 42, 79
5, 132960, Note_on_c, 9, 46, 63
5, 133200, Note_off_c, 9, 46, 63
5, 133440, Note_on_c, 9, 37, 63
5, 133440, Note_on_c, 9, 42, 79
5, 133680, Note_off_c, 9, 37, 63
5, 133680, Note_off_c, 9, 42, 79
5, 133920, Note_on_c, 9, 46, 95
5, 134400, Note_off_c, 9, 46, 95
5, 134400, Note_on_c, 9, 37, 63
5, 134400, Note_on_c, 9, 42, 95
5, 134640, Note_off_c, 9, 37, 63
5, 134640, Note_off_c, 9, 42, 95
5, 134880, Note_on_c, 9, 46, 79
5, 135240, Note_off_c, 9, 46, 79
5, 135360, Note_on_c, 9, 37, 63
5, 135360, Note_on_c, 9, 42, 79
5, 135600, Note_off_c, 9, 37, 63
5, 135600, Note_off_c, 9, 42, 79
5, 135840, Note_on_c, 9, 46, 79
5, 136200, Note_off_c, 9, 46, 79
5, 136320, Note_on_c, 9, 37, 63
5, 136320, Note_on_c, 9, 42, 79
5, 136560, Note_off_c, 9, 37, 63
5, 136560, Note_off_c, 9, 42, 79
5, 136800, Note_on_c, 9, 46, 63
5, 137040, Note_off_c, 9, 46, 63
5, 137280, Note_on_c, 9, 37, 63
5, 137280, Note_on_c, 9, 42, 79
5, 137520, Note_off_c, 9, 37, 63
5, 137520, Note_off_c, 9, 42, 79
5, 137760, Note_on_c, 9, 46, 95
5, 138240, Note_off_c, 9, 46, 95
5, 138240, Note_on_c, 9, 37, 63
5, 138240, Note_on_c, 9, 42, 95
5, 138480, Note_off_c, 9, 37, 63
5, 138480, Note_off_c, 9, 42, 95
5, 138720, Note_on_c, 9, 46, 79
5, 139080, Note_off_c, 9, 46, 79
5, 139200, Note_on_c, 9, 37, 63
5, 139200, Note_on_c, 9, 42, 79
5, 139440, Note_off_c, 9, 37, 63
5, 139440, Note_off_c, 9, 42, 79
5, 139680, Note_on_c, 9, 46, 79
5, 140040, Note_off_c, 9, 46, 79
5, 140160, Note_on_c, 9, 37, 63
5, 140160, Note_on_c, 9, 42, 79
5, 140400, Note_off_c, 9, 37, 63
5, 140400, Note_off_c, 9, 42, 79
5, 140640, Note_on_c, 9, 46, 63
5, 140880, Note_off_c, 9, 46, 63
5, 141120, Note_on_c, 9, 37, 63
5, 141120, Note_on_c, 9, 42, 79
5, 141360, Note_off_c, 9, 37, 63
5, 141360, Note_off_c, 9, 42, 79
5, 141600, Note_on_c, 9, 46, 95
5, 142080, Note_off_c, 9, 46, 95
5, 142080, Note_on_c, 9, 37, 63
5, 142080, Note_on_c, 9, 42, 95
5, 142320, Note_off_c, 9, 37, 63
5, 142320, Note_off_c, 9, 42, 95
5, 142560, Note_on_c, 9, 46, 79
5, 142920, Note_off_c, 9, 46, 79
5, 143040, Note_on_c, 9, 37, 63
5, 143040, Note_on_c, 9, 42, 79
5, 143280, Note_off_c, 9, 37, 63
5, 143280, Note_off_c, 9, 42, 79
5, 143520, Note_on_c, 9, 46, 79
5, 143880, Note_off_c, 9, 46, 79
5, 144000, Note_on_c, 9, 37, 63
5, 144000, Note_on_c, 9, 42, 79
5, 144240, Note_off_c, 9, 37, 63
5, 144240, Note_off_c, 9, 42, 79
5, 144480, Note_on_c, 9, 46, 63
5, 144720, Note_off_c, 9, 46, 63
5, 144960, Note_on_c, 9, 37, 63
5, 144960, Note_on_c, 9, 42, 79
5, 145200, Note_off_c, 9, 37, 63
5, 145200, Note_off_c, 9, 42, 79
5, 145440, Note_on_c, 9, 46, 95
5, 145920, Note_off_c, 9, 46, 95
5, 145920, End_track
0, 0, End_of_file
