0, 0, Header, 1, 10, 192
1, 0, Start_track
1, 0, Title_t, "Elegy"
1, 0, Text_t, "By David Palmer"
1, 0, Copyright_t, "Adam Bodkin"
1, 0, Text_t, "Generated by NoteWorthy Composer"
1, 0, Tempo, 666666
1, 0, Key_signature, -1, "major"
1, 0, Time_signature, 4, 2, 24, 8
1, 39168, Tempo, 714285
1, 39216, Tempo, 731707
1, 39264, Tempo, 750000
1, 39312, Tempo, 769230
1, 39360, Tempo, 800000
1, 39424, Tempo, 821917
1, 39488, Tempo, 845070
1, 39552, Tempo, 882352
1, 39600, Tempo, 909090
1, 39648, Tempo, 937500
1, 39696, Tempo, 967741
1, 39744, Tempo, 1016949
1, 39936, Tempo, 666666
1, 39936, End_track
2, 0, Start_track
2, 0, MIDI_port, 0
2, 0, Title_t, "Acoustic 1"
2, 0, Program_c, 0, 24
2, 0, Control_c, 0, 7, 127
2, 0, Control_c, 0, 10, 64
2, 0, Note_on_c, 0, 69, 75
2, 22, Note_on_c, 0, 69, 0
2, 24, Note_on_c, 0, 77, 75
2, 928, Note_on_c, 0, 77, 0
2, 960, Note_on_c, 0, 76, 75
2, 1054, Note_on_c, 0, 76, 0
2, 1056, Note_on_c, 0, 77, 75
2, 1150, Note_on_c, 0, 77, 0
2, 1152, Note_on_c, 0, 76, 75
2, 1246, Note_on_c, 0, 76, 0
2, 1248, Note_on_c, 0, 74, 75
2, 1342, Note_on_c, 0, 74, 0
2, 1344, Note_on_c, 0, 76, 75
2, 1438, Note_on_c, 0, 76, 0
2, 1440, Note_on_c, 0, 72, 75
2, 1534, Note_on_c, 0, 72, 0
2, 1536, Note_on_c, 0, 70, 75
2, 1558, Note_on_c, 0, 70, 0
2, 1560, Note_on_c, 0, 74, 75
2, 2398, Note_on_c, 0, 74, 0
2, 2400, Note_on_c, 0, 72, 75
2, 2494, Note_on_c, 0, 72, 0
2, 2496, Note_on_c, 0, 70, 75
2, 2590, Note_on_c, 0, 70, 0
2, 2592, Note_on_c, 0, 69, 75
2, 2686, Note_on_c, 0, 69, 0
2, 2688, Note_on_c, 0, 67, 75
2, 2782, Note_on_c, 0, 67, 0
2, 2784, Note_on_c, 0, 69, 75
2, 2878, Note_on_c, 0, 69, 0
2, 2880, Note_on_c, 0, 70, 75
2, 2974, Note_on_c, 0, 70, 0
2, 2976, Note_on_c, 0, 67, 75
2, 3070, Note_on_c, 0, 67, 0
2, 3072, Note_on_c, 0, 65, 75
2, 3094, Note_on_c, 0, 65, 0
2, 3096, Note_on_c, 0, 69, 75
2, 4000, Note_on_c, 0, 69, 0
2, 4032, Note_on_c, 0, 70, 75
2, 4126, Note_on_c, 0, 70, 0
2, 4128, Note_on_c, 0, 69, 75
2, 4222, Note_on_c, 0, 69, 0
2, 4224, Note_on_c, 0, 67, 75
2, 4318, Note_on_c, 0, 67, 0
2, 4320, Note_on_c, 0, 65, 75
2, 4414, Note_on_c, 0, 65, 0
2, 4416, Note_on_c, 0, 67, 75
2, 4510, Note_on_c, 0, 67, 0
2, 4512, Note_on_c, 0, 64, 75
2, 4606, Note_on_c, 0, 64, 0
2, 4608, Note_on_c, 0, 65, 75
2, 4654, Note_on_c, 0, 65, 0
2, 4656, Note_on_c, 0, 67, 75
2, 4702, Note_on_c, 0, 67, 0
2, 4704, Note_on_c, 0, 69, 75
2, 5328, Note_on_c, 0, 69, 0
2, 5568, Note_on_c, 0, 70, 75
2, 5662, Note_on_c, 0, 70, 0
2, 5664, Note_on_c, 0, 69, 75
2, 5686, Note_on_c, 0, 69, 0
2, 5688, Note_on_c, 0, 70, 75
2, 5710, Note_on_c, 0, 70, 0
2, 5712, Note_on_c, 0, 69, 75
2, 5734, Note_on_c, 0, 69, 0
2, 5736, Note_on_c, 0, 69, 75
2, 5758, Note_on_c, 0, 69, 0
2, 5760, Note_on_c, 0, 67, 75
2, 5854, Note_on_c, 0, 67, 0
2, 5856, Note_on_c, 0, 65, 75
2, 5950, Note_on_c, 0, 65, 0
2, 5952, Note_on_c, 0, 64, 75
2, 6046, Note_on_c, 0, 64, 0
2, 6048, Note_on_c, 0, 65, 75
2, 6142, Note_on_c, 0, 65, 0
2, 6144, Note_on_c, 0, 69, 75
2, 6166, Note_on_c, 0, 69, 0
2, 6168, Note_on_c, 0, 77, 75
2, 7072, Note_on_c, 0, 77, 0
2, 7104, Note_on_c, 0, 76, 75
2, 7198, Note_on_c, 0, 76, 0
2, 7200, Note_on_c, 0, 77, 75
2, 7294, Note_on_c, 0, 77, 0
2, 7296, Note_on_c, 0, 76, 75
2, 7390, Note_on_c, 0, 76, 0
2, 7392, Note_on_c, 0, 74, 75
2, 7486, Note_on_c, 0, 74, 0
2, 7488, Note_on_c, 0, 76, 75
2, 7582, Note_on_c, 0, 76, 0
2, 7584, Note_on_c, 0, 72, 75
2, 7678, Note_on_c, 0, 72, 0
2, 7680, Note_on_c, 0, 70, 75
2, 7702, Note_on_c, 0, 70, 0
2, 7704, Note_on_c, 0, 74, 75
2, 8542, Note_on_c, 0, 74, 0
2, 8544, Note_on_c, 0, 72, 75
2, 8638, Note_on_c, 0, 72, 0
2, 8640, Note_on_c, 0, 70, 75
2, 8734, Note_on_c, 0, 70, 0
2, 8736, Note_on_c, 0, 69, 75
2, 8830, Note_on_c, 0, 69, 0
2, 8832, Note_on_c, 0, 67, 75
2, 8926, Note_on_c, 0, 67, 0
2, 8928, Note_on_c, 0, 69, 75
2, 9022, Note_on_c, 0, 69, 0
2, 9024, Note_on_c, 0, 70, 75
2, 9118, Note_on_c, 0, 70, 0
2, 9120, Note_on_c, 0, 67, 75
2, 9214, Note_on_c, 0, 67, 0
2, 9216, Note_on_c, 0, 65, 75
2, 9238, Note_on_c, 0, 65, 0
2, 9240, Note_on_c, 0, 69, 75
2, 10144, Note_on_c, 0, 69, 0
2, 10176, Note_on_c, 0, 70, 75
2, 10270, Note_on_c, 0, 70, 0
2, 10272, Note_on_c, 0, 69, 75
2, 10366, Note_on_c, 0, 69, 0
2, 10368, Note_on_c, 0, 67, 75
2, 10462, Note_on_c, 0, 67, 0
2, 10464, Note_on_c, 0, 65, 75
2, 10558, Note_on_c, 0, 65, 0
2, 10560, Note_on_c, 0, 67, 75
2, 10654, Note_on_c, 0, 67, 0
2, 10656, Note_on_c, 0, 64, 75
2, 10750, Note_on_c, 0, 64, 0
2, 10752, Note_on_c, 0, 65, 75
2, 10798, Note_on_c, 0, 65, 0
2, 10800, Note_on_c, 0, 67, 75
2, 10846, Note_on_c, 0, 67, 0
2, 10848, Note_on_c, 0, 69, 75
2, 11472, Note_on_c, 0, 69, 0
2, 11712, Note_on_c, 0, 70, 75
2, 11806, Note_on_c, 0, 70, 0
2, 11808, Note_on_c, 0, 69, 75
2, 11902, Note_on_c, 0, 69, 0
2, 11904, Note_on_c, 0, 67, 75
2, 11998, Note_on_c, 0, 67, 0
2, 12000, Note_on_c, 0, 65, 75
2, 12094, Note_on_c, 0, 65, 0
2, 12096, Note_on_c, 0, 64, 75
2, 12190, Note_on_c, 0, 64, 0
2, 12192, Note_on_c, 0, 65, 75
2, 12286, Note_on_c, 0, 65, 0
2, 12288, Note_on_c, 0, 65, 75
2, 13216, Note_on_c, 0, 65, 0
2, 13248, Note_on_c, 0, 69, 75
2, 13408, Note_on_c, 0, 69, 0
2, 13440, Note_on_c, 0, 69, 75
2, 13600, Note_on_c, 0, 69, 0
2, 13632, Note_on_c, 0, 72, 75
2, 13792, Note_on_c, 0, 72, 0
2, 13824, Note_on_c, 0, 74, 75
2, 14686, Note_on_c, 0, 74, 0
2, 14688, Note_on_c, 0, 72, 75
2, 14782, Note_on_c, 0, 72, 0
2, 14784, Note_on_c, 0, 74, 75
2, 14878, Note_on_c, 0, 74, 0
2, 14880, Note_on_c, 0, 75, 75
2, 14974, Note_on_c, 0, 75, 0
2, 14976, Note_on_c, 0, 72, 75
2, 15070, Note_on_c, 0, 72, 0
2, 15072, Note_on_c, 0, 70, 75
2, 15166, Note_on_c, 0, 70, 0
2, 15168, Note_on_c, 0, 72, 75
2, 15262, Note_on_c, 0, 72, 0
2, 15264, Note_on_c, 0, 69, 75
2, 15358, Note_on_c, 0, 69, 0
2, 15360, Note_on_c, 0, 69, 75
2, 15382, Note_on_c, 0, 69, 0
2, 15384, Note_on_c, 0, 77, 75
2, 16288, Note_on_c, 0, 77, 0
2, 16320, Note_on_c, 0, 75, 75
2, 16414, Note_on_c, 0, 75, 0
2, 16416, Note_on_c, 0, 77, 75
2, 16462, Note_on_c, 0, 77, 0
2, 16464, Note_on_c, 0, 79, 75
2, 16510, Note_on_c, 0, 79, 0
2, 16512, Note_on_c, 0, 75, 75
2, 16606, Note_on_c, 0, 75, 0
2, 16608, Note_on_c, 0, 74, 75
2, 16702, Note_on_c, 0, 74, 0
2, 16704, Note_on_c, 0, 75, 75
2, 16798, Note_on_c, 0, 75, 0
2, 16800, Note_on_c, 0, 72, 75
2, 16894, Note_on_c, 0, 72, 0
2, 16896, Note_on_c, 0, 70, 75
2, 16942, Note_on_c, 0, 70, 0
2, 16944, Note_on_c, 0, 72, 75
2, 16990, Note_on_c, 0, 72, 0
2, 16992, Note_on_c, 0, 74, 75
2, 17824, Note_on_c, 0, 74, 0
2, 17856, Note_on_c, 0, 72, 75
2, 17950, Note_on_c, 0, 72, 0
2, 17952, Note_on_c, 0, 74, 75
2, 17998, Note_on_c, 0, 74, 0
2, 18000, Note_on_c, 0, 75, 75
2, 18046, Note_on_c, 0, 75, 0
2, 18048, Note_on_c, 0, 72, 75
2, 18142, Note_on_c, 0, 72, 0
2, 18144, Note_on_c, 0, 70, 75
2, 18238, Note_on_c, 0, 70, 0
2, 18240, Note_on_c, 0, 72, 75
2, 18334, Note_on_c, 0, 72, 0
2, 18336, Note_on_c, 0, 69, 75
2, 18430, Note_on_c, 0, 69, 0
2, 18432, Note_on_c, 0, 70, 75
2, 18478, Note_on_c, 0, 70, 0
2, 18480, Note_on_c, 0, 72, 75
2, 18526, Note_on_c, 0, 72, 0
2, 18528, Note_on_c, 0, 74, 75
2, 19360, Note_on_c, 0, 74, 0
2, 19392, Note_on_c, 0, 72, 75
2, 19486, Note_on_c, 0, 72, 0
2, 19488, Note_on_c, 0, 74, 75
2, 19534, Note_on_c, 0, 74, 0
2, 19536, Note_on_c, 0, 75, 75
2, 19582, Note_on_c, 0, 75, 0
2, 19584, Note_on_c, 0, 72, 75
2, 19678, Note_on_c, 0, 72, 0
2, 19680, Note_on_c, 0, 70, 75
2, 19774, Note_on_c, 0, 70, 0
2, 19776, Note_on_c, 0, 72, 75
2, 19870, Note_on_c, 0, 72, 0
2, 19872, Note_on_c, 0, 69, 75
2, 19966, Note_on_c, 0, 69, 0
2, 19968, Note_on_c, 0, 70, 75
2, 20062, Note_on_c, 0, 70, 0
2, 20064, Note_on_c, 0, 72, 75
2, 20158, Note_on_c, 0, 72, 0
2, 20160, Note_on_c, 0, 74, 75
2, 20254, Note_on_c, 0, 74, 0
2, 20256, Note_on_c, 0, 70, 75
2, 20350, Note_on_c, 0, 70, 0
2, 20352, Note_on_c, 0, 69, 75
2, 20446, Note_on_c, 0, 69, 0
2, 20448, Note_on_c, 0, 70, 75
2, 20542, Note_on_c, 0, 70, 0
2, 20544, Note_on_c, 0, 72, 75
2, 20638, Note_on_c, 0, 72, 0
2, 20640, Note_on_c, 0, 69, 75
2, 20734, Note_on_c, 0, 69, 0
2, 20736, Note_on_c, 0, 70, 75
2, 20830, Note_on_c, 0, 70, 0
2, 20832, Note_on_c, 0, 69, 75
2, 20926, Note_on_c, 0, 69, 0
2, 20928, Note_on_c, 0, 67, 75
2, 21022, Note_on_c, 0, 67, 0
2, 21024, Note_on_c, 0, 65, 75
2, 21118, Note_on_c, 0, 65, 0
2, 21120, Note_on_c, 0, 64, 75
2, 21214, Note_on_c, 0, 64, 0
2, 21216, Note_on_c, 0, 72, 75
2, 21310, Note_on_c, 0, 72, 0
2, 21312, Note_on_c, 0, 74, 75
2, 21406, Note_on_c, 0, 74, 0
2, 21408, Note_on_c, 0, 76, 75
2, 21502, Note_on_c, 0, 76, 0
2, 21504, Note_on_c, 0, 69, 75
2, 21526, Note_on_c, 0, 69, 0
2, 21528, Note_on_c, 0, 77, 75
2, 22432, Note_on_c, 0, 77, 0
2, 22464, Note_on_c, 0, 76, 75
2, 22558, Note_on_c, 0, 76, 0
2, 22560, Note_on_c, 0, 77, 75
2, 22654, Note_on_c, 0, 77, 0
2, 22656, Note_on_c, 0, 76, 75
2, 22750, Note_on_c, 0, 76, 0
2, 22752, Note_on_c, 0, 74, 75
2, 22846, Note_on_c, 0, 74, 0
2, 22848, Note_on_c, 0, 76, 75
2, 22942, Note_on_c, 0, 76, 0
2, 22944, Note_on_c, 0, 72, 75
2, 23038, Note_on_c, 0, 72, 0
2, 23040, Note_on_c, 0, 70, 75
2, 23062, Note_on_c, 0, 70, 0
2, 23064, Note_on_c, 0, 74, 75
2, 23902, Note_on_c, 0, 74, 0
2, 23904, Note_on_c, 0, 72, 75
2, 23998, Note_on_c, 0, 72, 0
2, 24000, Note_on_c, 0, 70, 75
2, 24094, Note_on_c, 0, 70, 0
2, 24096, Note_on_c, 0, 69, 75
2, 24190, Note_on_c, 0, 69, 0
2, 24192, Note_on_c, 0, 67, 75
2, 24286, Note_on_c, 0, 67, 0
2, 24288, Note_on_c, 0, 69, 75
2, 24382, Note_on_c, 0, 69, 0
2, 24384, Note_on_c, 0, 70, 75
2, 24478, Note_on_c, 0, 70, 0
2, 24480, Note_on_c, 0, 67, 75
2, 24574, Note_on_c, 0, 67, 0
2, 24576, Note_on_c, 0, 65, 75
2, 24598, Note_on_c, 0, 65, 0
2, 24600, Note_on_c, 0, 69, 75
2, 25504, Note_on_c, 0, 69, 0
2, 25536, Note_on_c, 0, 70, 75
2, 25630, Note_on_c, 0, 70, 0
2, 25632, Note_on_c, 0, 69, 75
2, 25726, Note_on_c, 0, 69, 0
2, 25728, Note_on_c, 0, 67, 75
2, 25822, Note_on_c, 0, 67, 0
2, 25824, Note_on_c, 0, 65, 75
2, 25918, Note_on_c, 0, 65, 0
2, 25920, Note_on_c, 0, 67, 75
2, 26014, Note_on_c, 0, 67, 0
2, 26016, Note_on_c, 0, 64, 75
2, 26110, Note_on_c, 0, 64, 0
2, 26112, Note_on_c, 0, 65, 75
2, 26158, Note_on_c, 0, 65, 0
2, 26160, Note_on_c, 0, 67, 75
2, 26206, Note_on_c, 0, 67, 0
2, 26208, Note_on_c, 0, 69, 75
2, 26832, Note_on_c, 0, 69, 0
2, 27072, Note_on_c, 0, 70, 75
2, 27166, Note_on_c, 0, 70, 0
2, 27168, Note_on_c, 0, 69, 75
2, 27190, Note_on_c, 0, 69, 0
2, 27192, Note_on_c, 0, 70, 75
2, 27214, Note_on_c, 0, 70, 0
2, 27216, Note_on_c, 0, 69, 75
2, 27238, Note_on_c, 0, 69, 0
2, 27240, Note_on_c, 0, 69, 75
2, 27262, Note_on_c, 0, 69, 0
2, 27264, Note_on_c, 0, 67, 75
2, 27358, Note_on_c, 0, 67, 0
2, 27360, Note_on_c, 0, 65, 75
2, 27454, Note_on_c, 0, 65, 0
2, 27456, Note_on_c, 0, 64, 75
2, 27550, Note_on_c, 0, 64, 0
2, 27552, Note_on_c, 0, 65, 75
2, 27646, Note_on_c, 0, 65, 0
2, 27648, Note_on_c, 0, 65, 75
2, 28576, Note_on_c, 0, 65, 0
2, 28608, Note_on_c, 0, 69, 75
2, 28768, Note_on_c, 0, 69, 0
2, 28800, Note_on_c, 0, 69, 75
2, 28960, Note_on_c, 0, 69, 0
2, 28992, Note_on_c, 0, 72, 75
2, 29152, Note_on_c, 0, 72, 0
2, 29184, Note_on_c, 0, 74, 75
2, 30046, Note_on_c, 0, 74, 0
2, 30048, Note_on_c, 0, 72, 75
2, 30142, Note_on_c, 0, 72, 0
2, 30144, Note_on_c, 0, 74, 75
2, 30238, Note_on_c, 0, 74, 0
2, 30240, Note_on_c, 0, 75, 75
2, 30334, Note_on_c, 0, 75, 0
2, 30336, Note_on_c, 0, 72, 75
2, 30430, Note_on_c, 0, 72, 0
2, 30432, Note_on_c, 0, 70, 75
2, 30526, Note_on_c, 0, 70, 0
2, 30528, Note_on_c, 0, 72, 75
2, 30622, Note_on_c, 0, 72, 0
2, 30624, Note_on_c, 0, 69, 75
2, 30718, Note_on_c, 0, 69, 0
2, 30720, Note_on_c, 0, 69, 75
2, 30742, Note_on_c, 0, 69, 0
2, 30744, Note_on_c, 0, 77, 75
2, 31648, Note_on_c, 0, 77, 0
2, 31680, Note_on_c, 0, 75, 75
2, 31774, Note_on_c, 0, 75, 0
2, 31776, Note_on_c, 0, 77, 75
2, 31822, Note_on_c, 0, 77, 0
2, 31824, Note_on_c, 0, 79, 75
2, 31870, Note_on_c, 0, 79, 0
2, 31872, Note_on_c, 0, 75, 75
2, 31966, Note_on_c, 0, 75, 0
2, 31968, Note_on_c, 0, 74, 75
2, 32062, Note_on_c, 0, 74, 0
2, 32064, Note_on_c, 0, 75, 75
2, 32158, Note_on_c, 0, 75, 0
2, 32160, Note_on_c, 0, 72, 75
2, 32254, Note_on_c, 0, 72, 0
2, 32256, Note_on_c, 0, 70, 75
2, 32302, Note_on_c, 0, 70, 0
2, 32304, Note_on_c, 0, 72, 75
2, 32350, Note_on_c, 0, 72, 0
2, 32352, Note_on_c, 0, 74, 75
2, 33184, Note_on_c, 0, 74, 0
2, 33216, Note_on_c, 0, 72, 75
2, 33310, Note_on_c, 0, 72, 0
2, 33312, Note_on_c, 0, 74, 75
2, 33358, Note_on_c, 0, 74, 0
2, 33360, Note_on_c, 0, 75, 75
2, 33406, Note_on_c, 0, 75, 0
2, 33408, Note_on_c, 0, 72, 75
2, 33502, Note_on_c, 0, 72, 0
2, 33504, Note_on_c, 0, 70, 75
2, 33598, Note_on_c, 0, 70, 0
2, 33600, Note_on_c, 0, 72, 75
2, 33694, Note_on_c, 0, 72, 0
2, 33696, Note_on_c, 0, 69, 75
2, 33790, Note_on_c, 0, 69, 0
2, 33792, Note_on_c, 0, 58, 75
2, 33838, Note_on_c, 0, 58, 0
2, 33840, Note_on_c, 0, 60, 75
2, 33886, Note_on_c, 0, 60, 0
2, 33888, Note_on_c, 0, 62, 75
2, 34720, Note_on_c, 0, 62, 0
2, 34752, Note_on_c, 0, 63, 75
2, 34846, Note_on_c, 0, 63, 0
2, 34848, Note_on_c, 0, 65, 75
2, 34894, Note_on_c, 0, 65, 0
2, 34896, Note_on_c, 0, 67, 75
2, 34942, Note_on_c, 0, 67, 0
2, 34944, Note_on_c, 0, 63, 75
2, 35038, Note_on_c, 0, 63, 0
2, 35040, Note_on_c, 0, 62, 75
2, 35134, Note_on_c, 0, 62, 0
2, 35136, Note_on_c, 0, 63, 75
2, 35230, Note_on_c, 0, 63, 0
2, 35232, Note_on_c, 0, 60, 75
2, 35326, Note_on_c, 0, 60, 0
2, 35328, Note_on_c, 0, 62, 75
2, 35374, Note_on_c, 0, 62, 0
2, 35376, Note_on_c, 0, 63, 75
2, 35422, Note_on_c, 0, 63, 0
2, 35424, Note_on_c, 0, 65, 75
2, 36048, Note_on_c, 0, 65, 0
2, 36096, Note_on_c, 0, 65, 75
2, 36142, Note_on_c, 0, 65, 0
2, 36144, Note_on_c, 0, 67, 75
2, 36190, Note_on_c, 0, 67, 0
2, 36192, Note_on_c, 0, 69, 75
2, 36816, Note_on_c, 0, 69, 0
2, 36864, Note_on_c, 0, 67, 75
2, 36910, Note_on_c, 0, 67, 0
2, 36912, Note_on_c, 0, 69, 75
2, 36958, Note_on_c, 0, 69, 0
2, 36960, Note_on_c, 0, 70, 75
2, 37584, Note_on_c, 0, 70, 0
2, 37632, Note_on_c, 0, 70, 75
2, 38160, Note_on_c, 0, 70, 0
2, 38208, Note_on_c, 0, 69, 75
2, 38368, Note_on_c, 0, 69, 0
2, 38400, Note_on_c, 0, 67, 75
2, 39888, Note_on_c, 0, 67, 0
2, 39936, Note_on_c, 0, 69, 75
2, 39958, Note_on_c, 0, 69, 0
2, 39960, Note_on_c, 0, 77, 75
2, 40864, Note_on_c, 0, 77, 0
2, 40896, Note_on_c, 0, 76, 75
2, 40990, Note_on_c, 0, 76, 0
2, 40992, Note_on_c, 0, 77, 75
2, 41086, Note_on_c, 0, 77, 0
2, 41088, Note_on_c, 0, 76, 75
2, 41182, Note_on_c, 0, 76, 0
2, 41184, Note_on_c, 0, 74, 75
2, 41278, Note_on_c, 0, 74, 0
2, 41280, Note_on_c, 0, 76, 75
2, 41374, Note_on_c, 0, 76, 0
2, 41376, Note_on_c, 0, 72, 75
2, 41470, Note_on_c, 0, 72, 0
2, 41472, Note_on_c, 0, 70, 75
2, 41494, Note_on_c, 0, 70, 0
2, 41496, Note_on_c, 0, 74, 75
2, 42334, Note_on_c, 0, 74, 0
2, 42336, Note_on_c, 0, 72, 75
2, 42430, Note_on_c, 0, 72, 0
2, 42432, Note_on_c, 0, 70, 75
2, 42526, Note_on_c, 0, 70, 0
2, 42528, Note_on_c, 0, 69, 75
2, 42622, Note_on_c, 0, 69, 0
2, 42624, Note_on_c, 0, 67, 75
2, 42718, Note_on_c, 0, 67, 0
2, 42720, Note_on_c, 0, 69, 75
2, 42814, Note_on_c, 0, 69, 0
2, 42816, Note_on_c, 0, 70, 75
2, 42910, Note_on_c, 0, 70, 0
2, 42912, Note_on_c, 0, 67, 75
2, 43006, Note_on_c, 0, 67, 0
2, 43008, Note_on_c, 0, 65, 75
2, 43030, Note_on_c, 0, 65, 0
2, 43032, Note_on_c, 0, 69, 75
2, 43936, Note_on_c, 0, 69, 0
2, 43968, Note_on_c, 0, 70, 75
2, 44062, Note_on_c, 0, 70, 0
2, 44064, Note_on_c, 0, 69, 75
2, 44158, Note_on_c, 0, 69, 0
2, 44160, Note_on_c, 0, 67, 75
2, 44254, Note_on_c, 0, 67, 0
2, 44256, Note_on_c, 0, 65, 75
2, 44350, Note_on_c, 0, 65, 0
2, 44352, Note_on_c, 0, 67, 75
2, 44446, Note_on_c, 0, 67, 0
2, 44448, Note_on_c, 0, 64, 75
2, 44542, Note_on_c, 0, 64, 0
2, 44544, Note_on_c, 0, 65, 75
2, 44590, Note_on_c, 0, 65, 0
2, 44592, Note_on_c, 0, 67, 75
2, 44638, Note_on_c, 0, 67, 0
2, 44640, Note_on_c, 0, 69, 75
2, 45264, Note_on_c, 0, 69, 0
2, 45504, Note_on_c, 0, 70, 75
2, 45598, Note_on_c, 0, 70, 0
2, 45600, Note_on_c, 0, 69, 75
2, 45694, Note_on_c, 0, 69, 0
2, 45696, Note_on_c, 0, 67, 75
2, 45790, Note_on_c, 0, 67, 0
2, 45792, Note_on_c, 0, 65, 75
2, 45886, Note_on_c, 0, 65, 0
2, 45888, Note_on_c, 0, 64, 75
2, 45982, Note_on_c, 0, 64, 0
2, 45984, Note_on_c, 0, 65, 75
2, 46078, Note_on_c, 0, 65, 0
2, 46080, Note_on_c, 0, 69, 75
2, 46102, Note_on_c, 0, 69, 0
2, 46104, Note_on_c, 0, 77, 75
2, 47008, Note_on_c, 0, 77, 0
2, 47040, Note_on_c, 0, 76, 75
2, 47134, Note_on_c, 0, 76, 0
2, 47136, Note_on_c, 0, 77, 75
2, 47230, Note_on_c, 0, 77, 0
2, 47232, Note_on_c, 0, 76, 75
2, 47326, Note_on_c, 0, 76, 0
2, 47328, Note_on_c, 0, 74, 75
2, 47422, Note_on_c, 0, 74, 0
2, 47424, Note_on_c, 0, 76, 75
2, 47518, Note_on_c, 0, 76, 0
2, 47520, Note_on_c, 0, 72, 75
2, 47614, Note_on_c, 0, 72, 0
2, 47616, Note_on_c, 0, 70, 75
2, 47638, Note_on_c, 0, 70, 0
2, 47640, Note_on_c, 0, 74, 75
2, 48478, Note_on_c, 0, 74, 0
2, 48480, Note_on_c, 0, 72, 75
2, 48574, Note_on_c, 0, 72, 0
2, 48576, Note_on_c, 0, 70, 75
2, 48670, Note_on_c, 0, 70, 0
2, 48672, Note_on_c, 0, 69, 75
2, 48766, Note_on_c, 0, 69, 0
2, 48768, Note_on_c, 0, 67, 75
2, 48862, Note_on_c, 0, 67, 0
2, 48864, Note_on_c, 0, 69, 75
2, 48958, Note_on_c, 0, 69, 0
2, 48960, Note_on_c, 0, 70, 75
2, 49054, Note_on_c, 0, 70, 0
2, 49056, Note_on_c, 0, 67, 75
2, 49150, Note_on_c, 0, 67, 0
2, 49152, Note_on_c, 0, 65, 75
2, 49174, Note_on_c, 0, 65, 0
2, 49176, Note_on_c, 0, 69, 75
2, 50080, Note_on_c, 0, 69, 0
2, 50112, Note_on_c, 0, 70, 75
2, 50206, Note_on_c, 0, 70, 0
2, 50208, Note_on_c, 0, 69, 75
2, 50302, Note_on_c, 0, 69, 0
2, 50304, Note_on_c, 0, 67, 75
2, 50398, Note_on_c, 0, 67, 0
2, 50400, Note_on_c, 0, 65, 75
2, 50494, Note_on_c, 0, 65, 0
2, 50496, Note_on_c, 0, 67, 75
2, 50590, Note_on_c, 0, 67, 0
2, 50592, Note_on_c, 0, 64, 75
2, 50686, Note_on_c, 0, 64, 0
2, 50688, Note_on_c, 0, 65, 75
2, 50734, Note_on_c, 0, 65, 0
2, 50736, Note_on_c, 0, 67, 75
2, 50782, Note_on_c, 0, 67, 0
2, 50784, Note_on_c, 0, 69, 75
2, 51408, Note_on_c, 0, 69, 0
2, 51648, Note_on_c, 0, 70, 75
2, 51742, Note_on_c, 0, 70, 0
2, 51744, Note_on_c, 0, 69, 75
2, 51838, Note_on_c, 0, 69, 0
2, 51840, Note_on_c, 0, 67, 75
2, 51934, Note_on_c, 0, 67, 0
2, 51936, Note_on_c, 0, 65, 75
2, 52030, Note_on_c, 0, 65, 0
2, 52032, Note_on_c, 0, 64, 75
2, 52126, Note_on_c, 0, 64, 0
2, 52128, Note_on_c, 0, 65, 75
2, 52222, Note_on_c, 0, 65, 0
2, 52224, Note_on_c, 0, 69, 75
2, 52246, Note_on_c, 0, 69, 0
2, 52248, Note_on_c, 0, 77, 75
2, 53152, Note_on_c, 0, 77, 0
2, 53184, Note_on_c, 0, 76, 75
2, 53278, Note_on_c, 0, 76, 0
2, 53280, Note_on_c, 0, 77, 75
2, 53374, Note_on_c, 0, 77, 0
2, 53376, Note_on_c, 0, 76, 75
2, 53470, Note_on_c, 0, 76, 0
2, 53472, Note_on_c, 0, 74, 75
2, 53566, Note_on_c, 0, 74, 0
2, 53568, Note_on_c, 0, 76, 75
2, 53662, Note_on_c, 0, 76, 0
2, 53664, Note_on_c, 0, 72, 75
2, 53758, Note_on_c, 0, 72, 0
2, 53760, Control_c, 0, 7, 127
2, 53760, Note_on_c, 0, 70, 75
2, 53782, Note_on_c, 0, 70, 0
2, 53784, Note_on_c, 0, 74, 75
2, 53794, Control_c, 0, 7, 126
2, 53829, Control_c, 0, 7, 125
2, 53864, Control_c, 0, 7, 124
2, 53899, Control_c, 0, 7, 123
2, 53934, Control_c, 0, 7, 122
2, 53969, Control_c, 0, 7, 121
2, 54004, Control_c, 0, 7, 120
2, 54039, Control_c, 0, 7, 119
2, 54074, Control_c, 0, 7, 118
2, 54109, Control_c, 0, 7, 117
2, 54144, Control_c, 0, 7, 116
2, 54178, Control_c, 0, 7, 115
2, 54213, Control_c, 0, 7, 114
2, 54248, Control_c, 0, 7, 113
2, 54283, Control_c, 0, 7, 112
2, 54318, Control_c, 0, 7, 111
2, 54353, Control_c, 0, 7, 110
2, 54388, Control_c, 0, 7, 109
2, 54423, Control_c, 0, 7, 108
2, 54458, Control_c, 0, 7, 107
2, 54493, Control_c, 0, 7, 106
2, 54528, Control_c, 0, 7, 105
2, 54582, Control_c, 0, 7, 104
2, 54622, Note_on_c, 0, 74, 0
2, 54624, Note_on_c, 0, 72, 75
2, 54637, Control_c, 0, 7, 103
2, 54692, Control_c, 0, 7, 102
2, 54718, Note_on_c, 0, 72, 0
2, 54720, Note_on_c, 0, 70, 75
2, 54747, Control_c, 0, 7, 101
2, 54802, Control_c, 0, 7, 100
2, 54814, Note_on_c, 0, 70, 0
2, 54816, Note_on_c, 0, 69, 75
2, 54857, Control_c, 0, 7, 99
2, 54910, Note_on_c, 0, 69, 0
2, 54912, Control_c, 0, 7, 98
2, 54912, Note_on_c, 0, 67, 75
2, 54966, Control_c, 0, 7, 97
2, 55006, Note_on_c, 0, 67, 0
2, 55008, Note_on_c, 0, 69, 75
2, 55021, Control_c, 0, 7, 96
2, 55076, Control_c, 0, 7, 95
2, 55102, Note_on_c, 0, 69, 0
2, 55104, Note_on_c, 0, 70, 75
2, 55131, Control_c, 0, 7, 94
2, 55186, Control_c, 0, 7, 93
2, 55198, Note_on_c, 0, 70, 0
2, 55200, Note_on_c, 0, 67, 75
2, 55241, Control_c, 0, 7, 92
2, 55294, Note_on_c, 0, 67, 0
2, 55296, Control_c, 0, 7, 91
2, 55296, Note_on_c, 0, 65, 75
2, 55318, Note_on_c, 0, 65, 0
2, 55320, Note_on_c, 0, 69, 75
2, 55350, Control_c, 0, 7, 90
2, 55405, Control_c, 0, 7, 89
2, 55460, Control_c, 0, 7, 88
2, 55515, Control_c, 0, 7, 87
2, 55570, Control_c, 0, 7, 86
2, 55625, Control_c, 0, 7, 85
2, 55680, Control_c, 0, 7, 84
2, 55734, Control_c, 0, 7, 83
2, 55789, Control_c, 0, 7, 82
2, 55844, Control_c, 0, 7, 81
2, 55899, Control_c, 0, 7, 80
2, 55954, Control_c, 0, 7, 79
2, 56009, Control_c, 0, 7, 78
2, 56064, Control_c, 0, 7, 77
2, 56064, Control_c, 0, 7, 64
2, 56112, Control_c, 0, 7, 63
2, 56160, Control_c, 0, 7, 62
2, 56208, Control_c, 0, 7, 61
2, 56224, Note_on_c, 0, 69, 0
2, 56256, Control_c, 0, 7, 60
2, 56256, Note_on_c, 0, 70, 75
2, 56304, Control_c, 0, 7, 59
2, 56350, Note_on_c, 0, 70, 0
2, 56352, Control_c, 0, 7, 58
2, 56352, Note_on_c, 0, 69, 75
2, 56400, Control_c, 0, 7, 57
2, 56446, Note_on_c, 0, 69, 0
2, 56448, Control_c, 0, 7, 56
2, 56448, Note_on_c, 0, 67, 75
2, 56496, Control_c, 0, 7, 55
2, 56542, Note_on_c, 0, 67, 0
2, 56544, Control_c, 0, 7, 54
2, 56544, Note_on_c, 0, 65, 75
2, 56592, Control_c, 0, 7, 53
2, 56638, Note_on_c, 0, 65, 0
2, 56640, Control_c, 0, 7, 52
2, 56640, Note_on_c, 0, 67, 75
2, 56688, Control_c, 0, 7, 51
2, 56734, Note_on_c, 0, 67, 0
2, 56736, Control_c, 0, 7, 50
2, 56736, Note_on_c, 0, 64, 75
2, 56784, Control_c, 0, 7, 49
2, 56830, Note_on_c, 0, 64, 0
2, 56832, Control_c, 0, 7, 48
2, 56832, Note_on_c, 0, 65, 75
2, 56878, Note_on_c, 0, 65, 0
2, 56880, Note_on_c, 0, 67, 75
2, 56896, Control_c, 0, 7, 47
2, 56926, Note_on_c, 0, 67, 0
2, 56928, Note_on_c, 0, 69, 75
2, 56960, Control_c, 0, 7, 46
2, 57024, Control_c, 0, 7, 45
2, 57088, Control_c, 0, 7, 44
2, 57152, Control_c, 0, 7, 43
2, 57216, Control_c, 0, 7, 42
2, 57280, Control_c, 0, 7, 41
2, 57344, Control_c, 0, 7, 40
2, 57408, Control_c, 0, 7, 39
2, 57472, Control_c, 0, 7, 38
2, 57536, Control_c, 0, 7, 37
2, 57552, Note_on_c, 0, 69, 0
2, 57600, Control_c, 0, 7, 36
2, 57651, Control_c, 0, 7, 35
2, 57702, Control_c, 0, 7, 34
2, 57753, Control_c, 0, 7, 33
2, 57792, Note_on_c, 0, 70, 75
2, 57804, Control_c, 0, 7, 32
2, 57856, Control_c, 0, 7, 31
2, 57886, Note_on_c, 0, 70, 0
2, 57888, Note_on_c, 0, 69, 75
2, 57907, Control_c, 0, 7, 30
2, 57958, Control_c, 0, 7, 29
2, 57982, Note_on_c, 0, 69, 0
2, 57984, Note_on_c, 0, 67, 75
2, 58009, Control_c, 0, 7, 28
2, 58060, Control_c, 0, 7, 27
2, 58078, Note_on_c, 0, 67, 0
2, 58080, Note_on_c, 0, 65, 75
2, 58112, Control_c, 0, 7, 26
2, 58163, Control_c, 0, 7, 25
2, 58174, Note_on_c, 0, 65, 0
2, 58176, Note_on_c, 0, 64, 75
2, 58214, Control_c, 0, 7, 24
2, 58265, Control_c, 0, 7, 23
2, 58270, Note_on_c, 0, 64, 0
2, 58272, Note_on_c, 0, 65, 75
2, 58316, Control_c, 0, 7, 22
2, 58366, Note_on_c, 0, 65, 0
2, 58368, Control_c, 0, 7, 21
2, 58368, Note_on_c, 0, 77, 75
2, 59088, Note_on_c, 0, 77, 0
2, 59088, End_track
3, 0, Start_track
3, 0, MIDI_port, 0
3, 0, Title_t, "Acoustic2"
3, 0, Program_c, 0, 24
3, 0, Control_c, 0, 7, 127
3, 0, Control_c, 0, 10, 64
3, 0, Note_on_c, 0, 53, 75
3, 336, Note_on_c, 0, 53, 0
3, 384, Note_on_c, 0, 52, 75
3, 720, Note_on_c, 0, 52, 0
3, 768, Note_on_c, 0, 50, 75
3, 1104, Note_on_c, 0, 50, 0
3, 1152, Note_on_c, 0, 48, 75
3, 1488, Note_on_c, 0, 48, 0
3, 1536, Note_on_c, 0, 46, 75
3, 1872, Note_on_c, 0, 46, 0
3, 1920, Note_on_c, 0, 45, 75
3, 2256, Note_on_c, 0, 45, 0
3, 2304, Note_on_c, 0, 43, 75
3, 2640, Note_on_c, 0, 43, 0
3, 2688, Note_on_c, 0, 48, 75
3, 3024, Note_on_c, 0, 48, 0
3, 3072, Note_on_c, 0, 53, 75
3, 3408, Note_on_c, 0, 53, 0
3, 3456, Note_on_c, 0, 52, 75
3, 3792, Note_on_c, 0, 52, 0
3, 3840, Note_on_c, 0, 50, 75
3, 4176, Note_on_c, 0, 50, 0
3, 4224, Note_on_c, 0, 48, 75
3, 4560, Note_on_c, 0, 48, 0
3, 4608, Note_on_c, 0, 50, 75
3, 4944, Note_on_c, 0, 50, 0
3, 4992, Note_on_c, 0, 48, 75
3, 5328, Note_on_c, 0, 48, 0
3, 5376, Note_on_c, 0, 46, 75
3, 5712, Note_on_c, 0, 46, 0
3, 5760, Note_on_c, 0, 48, 75
3, 6096, Note_on_c, 0, 48, 0
3, 6144, Note_on_c, 0, 53, 75
3, 6480, Note_on_c, 0, 53, 0
3, 6528, Note_on_c, 0, 52, 75
3, 6864, Note_on_c, 0, 52, 0
3, 6912, Note_on_c, 0, 50, 75
3, 7248, Note_on_c, 0, 50, 0
3, 7296, Note_on_c, 0, 48, 75
3, 7632, Note_on_c, 0, 48, 0
3, 7680, Note_on_c, 0, 46, 75
3, 8016, Note_on_c, 0, 46, 0
3, 8064, Note_on_c, 0, 45, 75
3, 8400, Note_on_c, 0, 45, 0
3, 8448, Note_on_c, 0, 43, 75
3, 8784, Note_on_c, 0, 43, 0
3, 8832, Note_on_c, 0, 48, 75
3, 9168, Note_on_c, 0, 48, 0
3, 9216, Note_on_c, 0, 53, 75
3, 9552, Note_on_c, 0, 53, 0
3, 9600, Note_on_c, 0, 52, 75
3, 9936, Note_on_c, 0, 52, 0
3, 9984, Note_on_c, 0, 50, 75
3, 10320, Note_on_c, 0, 50, 0
3, 10368, Note_on_c, 0, 48, 75
3, 10704, Note_on_c, 0, 48, 0
3, 10752, Note_on_c, 0, 50, 75
3, 11088, Note_on_c, 0, 50, 0
3, 11136, Note_on_c, 0, 48, 75
3, 11472, Note_on_c, 0, 48, 0
3, 11520, Note_on_c, 0, 46, 75
3, 11856, Note_on_c, 0, 46, 0
3, 11904, Note_on_c, 0, 48, 75
3, 12240, Note_on_c, 0, 48, 0
3, 12288, Note_on_c, 0, 53, 75
3, 12816, Note_on_c, 0, 53, 0
3, 12864, Note_on_c, 0, 52, 75
3, 13024, Note_on_c, 0, 52, 0
3, 13056, Note_on_c, 0, 50, 75
3, 13584, Note_on_c, 0, 50, 0
3, 13632, Note_on_c, 0, 48, 75
3, 13792, Note_on_c, 0, 48, 0
3, 13824, Note_on_c, 0, 46, 75
3, 14160, Note_on_c, 0, 46, 0
3, 14208, Note_on_c, 0, 58, 75
3, 14368, Note_on_c, 0, 58, 0
3, 14400, Note_on_c, 0, 57, 75
3, 14560, Note_on_c, 0, 57, 0
3, 14592, Note_on_c, 0, 55, 75
3, 14928, Note_on_c, 0, 55, 0
3, 14976, Note_on_c, 0, 53, 75
3, 15232, Note_on_c, 0, 53, 0
3, 15264, Note_on_c, 0, 51, 75
3, 15358, Note_on_c, 0, 51, 0
3, 15360, Note_on_c, 0, 50, 75
3, 15696, Note_on_c, 0, 50, 0
3, 15744, Note_on_c, 0, 62, 75
3, 15904, Note_on_c, 0, 62, 0
3, 15936, Note_on_c, 0, 60, 75
3, 16096, Note_on_c, 0, 60, 0
3, 16128, Note_on_c, 0, 58, 75
3, 16464, Note_on_c, 0, 58, 0
3, 16512, Note_on_c, 0, 57, 75
3, 16848, Note_on_c, 0, 57, 0
3, 16896, Note_on_c, 0, 55, 75
3, 17232, Note_on_c, 0, 55, 0
3, 17280, Note_on_c, 0, 53, 75
3, 17616, Note_on_c, 0, 53, 0
3, 17664, Note_on_c, 0, 51, 75
3, 18000, Note_on_c, 0, 51, 0
3, 18048, Note_on_c, 0, 50, 75
3, 18384, Note_on_c, 0, 50, 0
3, 18432, Note_on_c, 0, 55, 75
3, 18768, Note_on_c, 0, 55, 0
3, 18816, Note_on_c, 0, 53, 75
3, 19152, Note_on_c, 0, 53, 0
3, 19200, Note_on_c, 0, 51, 75
3, 19536, Note_on_c, 0, 51, 0
3, 19584, Note_on_c, 0, 53, 75
3, 19920, Note_on_c, 0, 53, 0
3, 19968, Note_on_c, 0, 46, 75
3, 20304, Note_on_c, 0, 46, 0
3, 20352, Note_on_c, 0, 45, 75
3, 20688, Note_on_c, 0, 45, 0
3, 20736, Note_on_c, 0, 43, 75
3, 21072, Note_on_c, 0, 43, 0
3, 21120, Note_on_c, 0, 48, 75
3, 21456, Note_on_c, 0, 48, 0
3, 21504, Note_on_c, 0, 53, 75
3, 21840, Note_on_c, 0, 53, 0
3, 21888, Note_on_c, 0, 52, 75
3, 22224, Note_on_c, 0, 52, 0
3, 22272, Note_on_c, 0, 50, 75
3, 22608, Note_on_c, 0, 50, 0
3, 22656, Note_on_c, 0, 48, 75
3, 22992, Note_on_c, 0, 48, 0
3, 23040, Note_on_c, 0, 46, 75
3, 23376, Note_on_c, 0, 46, 0
3, 23424, Note_on_c, 0, 45, 75
3, 23760, Note_on_c, 0, 45, 0
3, 23808, Note_on_c, 0, 43, 75
3, 24144, Note_on_c, 0, 43, 0
3, 24192, Note_on_c, 0, 48, 75
3, 24528, Note_on_c, 0, 48, 0
3, 24576, Note_on_c, 0, 53, 75
3, 24912, Note_on_c, 0, 53, 0
3, 24960, Note_on_c, 0, 52, 75
3, 25296, Note_on_c, 0, 52, 0
3, 25344, Note_on_c, 0, 50, 75
3, 25680, Note_on_c, 0, 50, 0
3, 25728, Note_on_c, 0, 48, 75
3, 26064, Note_on_c, 0, 48, 0
3, 26112, Note_on_c, 0, 50, 75
3, 26448, Note_on_c, 0, 50, 0
3, 26496, Note_on_c, 0, 48, 75
3, 26832, Note_on_c, 0, 48, 0
3, 26880, Note_on_c, 0, 46, 75
3, 27216, Note_on_c, 0, 46, 0
3, 27264, Note_on_c, 0, 48, 75
3, 27600, Note_on_c, 0, 48, 0
3, 27648, Note_on_c, 0, 53, 75
3, 28176, Note_on_c, 0, 53, 0
3, 28224, Note_on_c, 0, 52, 75
3, 28384, Note_on_c, 0, 52, 0
3, 28416, Note_on_c, 0, 50, 75
3, 28416, Note_on_c, 0, 57, 75
3, 28510, Note_on_c, 0, 57, 0
3, 28512, Note_on_c, 0, 62, 75
3, 28606, Note_on_c, 0, 62, 0
3, 28608, Note_on_c, 0, 65, 75
3, 28702, Note_on_c, 0, 65, 0
3, 28704, Note_on_c, 0, 62, 75
3, 28798, Note_on_c, 0, 62, 0
3, 28800, Note_on_c, 0, 69, 75
3, 28894, Note_on_c, 0, 69, 0
3, 28896, Note_on_c, 0, 65, 75
3, 28944, Note_on_c, 0, 50, 0
3, 28990, Note_on_c, 0, 65, 0
3, 28992, Note_on_c, 0, 48, 75
3, 28992, Note_on_c, 0, 64, 75
3, 29086, Note_on_c, 0, 64, 0
3, 29088, Note_on_c, 0, 60, 75
3, 29152, Note_on_c, 0, 48, 0
3, 29182, Note_on_c, 0, 60, 0
3, 29184, Note_on_c, 0, 46, 75
3, 29520, Note_on_c, 0, 46, 0
3, 29568, Note_on_c, 0, 58, 75
3, 29728, Note_on_c, 0, 58, 0
3, 29760, Note_on_c, 0, 57, 75
3, 29920, Note_on_c, 0, 57, 0
3, 29952, Note_on_c, 0, 55, 75
3, 30288, Note_on_c, 0, 55, 0
3, 30336, Note_on_c, 0, 53, 75
3, 30592, Note_on_c, 0, 53, 0
3, 30624, Note_on_c, 0, 51, 75
3, 30718, Note_on_c, 0, 51, 0
3, 30720, Note_on_c, 0, 50, 75
3, 31056, Note_on_c, 0, 50, 0
3, 31104, Note_on_c, 0, 62, 75
3, 31264, Note_on_c, 0, 62, 0
3, 31296, Note_on_c, 0, 60, 75
3, 31456, Note_on_c, 0, 60, 0
3, 31488, Note_on_c, 0, 59, 75
3, 31648, Note_on_c, 0, 59, 0
3, 31680, Note_on_c, 0, 60, 75
3, 31840, Note_on_c, 0, 60, 0
3, 31872, Note_on_c, 0, 54, 75
3, 32208, Note_on_c, 0, 54, 0
3, 32256, Note_on_c, 0, 55, 75
3, 32592, Note_on_c, 0, 55, 0
3, 32640, Note_on_c, 0, 53, 75
3, 32976, Note_on_c, 0, 53, 0
3, 33024, Note_on_c, 0, 51, 75
3, 33360, Note_on_c, 0, 51, 0
3, 33408, Note_on_c, 0, 50, 75
3, 33744, Note_on_c, 0, 50, 0
3, 33792, Note_on_c, 0, 55, 75
3, 34128, Note_on_c, 0, 55, 0
3, 34176, Note_on_c, 0, 53, 75
3, 34512, Note_on_c, 0, 53, 0
3, 34560, Note_on_c, 0, 51, 75
3, 34896, Note_on_c, 0, 51, 0
3, 34944, Note_on_c, 0, 53, 75
3, 35280, Note_on_c, 0, 53, 0
3, 35328, Note_on_c, 0, 46, 75
3, 35422, Note_on_c, 0, 46, 0
3, 35424, Note_on_c, 0, 46, 75
3, 35518, Note_on_c, 0, 46, 0
3, 35520, Note_on_c, 0, 46, 75
3, 35614, Note_on_c, 0, 46, 0
3, 35616, Note_on_c, 0, 46, 75
3, 35710, Note_on_c, 0, 46, 0
3, 35712, Note_on_c, 0, 46, 75
3, 35806, Note_on_c, 0, 46, 0
3, 35808, Note_on_c, 0, 46, 75
3, 35902, Note_on_c, 0, 46, 0
3, 35904, Note_on_c, 0, 46, 75
3, 35998, Note_on_c, 0, 46, 0
3, 36000, Note_on_c, 0, 46, 75
3, 36094, Note_on_c, 0, 46, 0
3, 36096, Note_on_c, 0, 45, 75
3, 36190, Note_on_c, 0, 45, 0
3, 36192, Note_on_c, 0, 45, 75
3, 36286, Note_on_c, 0, 45, 0
3, 36288, Note_on_c, 0, 45, 75
3, 36382, Note_on_c, 0, 45, 0
3, 36384, Note_on_c, 0, 45, 75
3, 36478, Note_on_c, 0, 45, 0
3, 36480, Note_on_c, 0, 45, 75
3, 36574, Note_on_c, 0, 45, 0
3, 36576, Note_on_c, 0, 45, 75
3, 36670, Note_on_c, 0, 45, 0
3, 36672, Note_on_c, 0, 45, 75
3, 36766, Note_on_c, 0, 45, 0
3, 36768, Note_on_c, 0, 45, 75
3, 36862, Note_on_c, 0, 45, 0
3, 36864, Note_on_c, 0, 43, 75
3, 36958, Note_on_c, 0, 43, 0
3, 36960, Note_on_c, 0, 43, 75
3, 37054, Note_on_c, 0, 43, 0
3, 37056, Note_on_c, 0, 43, 75
3, 37150, Note_on_c, 0, 43, 0
3, 37152, Note_on_c, 0, 43, 75
3, 37246, Note_on_c, 0, 43, 0
3, 37248, Note_on_c, 0, 55, 75
3, 37408, Note_on_c, 0, 55, 0
3, 37440, Note_on_c, 0, 53, 75
3, 37600, Note_on_c, 0, 53, 0
3, 37632, Note_on_c, 0, 52, 75
3, 37968, Note_on_c, 0, 52, 0
3, 38016, Note_on_c, 0, 53, 75
3, 38352, Note_on_c, 0, 53, 0
3, 38400, Note_on_c, 0, 60, 75
3, 39120, Note_on_c, 0, 60, 0
3, 39168, Note_on_c, 0, 48, 75
3, 39168, Note_on_c, 0, 60, 75
3, 39328, Note_on_c, 0, 60, 0
3, 39360, Note_on_c, 0, 60, 75
3, 39520, Note_on_c, 0, 60, 0
3, 39552, Note_on_c, 0, 60, 75
3, 39712, Note_on_c, 0, 60, 0
3, 39744, Note_on_c, 0, 60, 75
3, 39888, Note_on_c, 0, 48, 0
3, 39904, Note_on_c, 0, 60, 0
3, 39936, Note_on_c, 0, 53, 75
3, 40272, Note_on_c, 0, 53, 0
3, 40320, Note_on_c, 0, 52, 75
3, 40656, Note_on_c, 0, 52, 0
3, 40704, Note_on_c, 0, 50, 75
3, 41040, Note_on_c, 0, 50, 0
3, 41088, Note_on_c, 0, 48, 75
3, 41424, Note_on_c, 0, 48, 0
3, 41472, Note_on_c, 0, 46, 75
3, 41808, Note_on_c, 0, 46, 0
3, 41856, Note_on_c, 0, 45, 75
3, 42192, Note_on_c, 0, 45, 0
3, 42240, Note_on_c, 0, 43, 75
3, 42576, Note_on_c, 0, 43, 0
3, 42624, Note_on_c, 0, 48, 75
3, 42960, Note_on_c, 0, 48, 0
3, 43008, Note_on_c, 0, 53, 75
3, 43344, Note_on_c, 0, 53, 0
3, 43392, Note_on_c, 0, 52, 75
3, 43728, Note_on_c, 0, 52, 0
3, 43776, Note_on_c, 0, 50, 75
3, 44112, Note_on_c, 0, 50, 0
3, 44160, Note_on_c, 0, 48, 75
3, 44496, Note_on_c, 0, 48, 0
3, 44544, Note_on_c, 0, 50, 75
3, 44880, Note_on_c, 0, 50, 0
3, 44928, Note_on_c, 0, 48, 75
3, 45264, Note_on_c, 0, 48, 0
3, 45312, Note_on_c, 0, 46, 75
3, 45648, Note_on_c, 0, 46, 0
3, 45696, Note_on_c, 0, 48, 75
3, 46032, Note_on_c, 0, 48, 0
3, 46080, Note_on_c, 0, 53, 75
3, 46416, Note_on_c, 0, 53, 0
3, 46464, Note_on_c, 0, 52, 75
3, 46800, Note_on_c, 0, 52, 0
3, 46848, Note_on_c, 0, 50, 75
3, 47184, Note_on_c, 0, 50, 0
3, 47232, Note_on_c, 0, 48, 75
3, 47568, Note_on_c, 0, 48, 0
3, 47616, Note_on_c, 0, 46, 75
3, 47952, Note_on_c, 0, 46, 0
3, 48000, Note_on_c, 0, 45, 75
3, 48336, Note_on_c, 0, 45, 0
3, 48384, Note_on_c, 0, 43, 75
3, 48720, Note_on_c, 0, 43, 0
3, 48768, Note_on_c, 0, 48, 75
3, 49104, Note_on_c, 0, 48, 0
3, 49152, Note_on_c, 0, 53, 75
3, 49488, Note_on_c, 0, 53, 0
3, 49536, Note_on_c, 0, 52, 75
3, 49872, Note_on_c, 0, 52, 0
3, 49920, Note_on_c, 0, 50, 75
3, 50256, Note_on_c, 0, 50, 0
3, 50304, Note_on_c, 0, 48, 75
3, 50640, Note_on_c, 0, 48, 0
3, 50688, Note_on_c, 0, 50, 75
3, 51024, Note_on_c, 0, 50, 0
3, 51072, Note_on_c, 0, 48, 75
3, 51408, Note_on_c, 0, 48, 0
3, 51456, Note_on_c, 0, 46, 75
3, 51792, Note_on_c, 0, 46, 0
3, 51840, Note_on_c, 0, 48, 75
3, 52176, Note_on_c, 0, 48, 0
3, 52224, Note_on_c, 0, 53, 75
3, 52560, Note_on_c, 0, 53, 0
3, 52608, Note_on_c, 0, 52, 75
3, 52944, Note_on_c, 0, 52, 0
3, 52992, Note_on_c, 0, 50, 75
3, 53328, Note_on_c, 0, 50, 0
3, 53376, Note_on_c, 0, 48, 75
3, 53712, Note_on_c, 0, 48, 0
3, 53760, Control_c, 0, 7, 127
3, 53760, Note_on_c, 0, 46, 75
3, 53794, Control_c, 0, 7, 126
3, 53829, Control_c, 0, 7, 125
3, 53864, Control_c, 0, 7, 124
3, 53899, Control_c, 0, 7, 123
3, 53934, Control_c, 0, 7, 122
3, 53969, Control_c, 0, 7, 121
3, 54004, Control_c, 0, 7, 120
3, 54039, Control_c, 0, 7, 119
3, 54074, Control_c, 0, 7, 118
3, 54096, Note_on_c, 0, 46, 0
3, 54109, Control_c, 0, 7, 117
3, 54144, Control_c, 0, 7, 116
3, 54144, Note_on_c, 0, 45, 75
3, 54178, Control_c, 0, 7, 115
3, 54213, Control_c, 0, 7, 114
3, 54248, Control_c, 0, 7, 113
3, 54283, Control_c, 0, 7, 112
3, 54318, Control_c, 0, 7, 111
3, 54353, Control_c, 0, 7, 110
3, 54388, Control_c, 0, 7, 109
3, 54423, Control_c, 0, 7, 108
3, 54458, Control_c, 0, 7, 107
3, 54480, Note_on_c, 0, 45, 0
3, 54493, Control_c, 0, 7, 106
3, 54528, Control_c, 0, 7, 105
3, 54528, Note_on_c, 0, 43, 75
3, 54582, Control_c, 0, 7, 104
3, 54637, Control_c, 0, 7, 103
3, 54692, Control_c, 0, 7, 102
3, 54747, Control_c, 0, 7, 101
3, 54802, Control_c, 0, 7, 100
3, 54857, Control_c, 0, 7, 99
3, 54864, Note_on_c, 0, 43, 0
3, 54912, Control_c, 0, 7, 98
3, 54912, Note_on_c, 0, 48, 75
3, 54966, Control_c, 0, 7, 97
3, 55021, Control_c, 0, 7, 96
3, 55076, Control_c, 0, 7, 95
3, 55131, Control_c, 0, 7, 94
3, 55186, Control_c, 0, 7, 93
3, 55241, Control_c, 0, 7, 92
3, 55248, Note_on_c, 0, 48, 0
3, 55296, Control_c, 0, 7, 91
3, 55296, Note_on_c, 0, 53, 75
3, 55350, Control_c, 0, 7, 90
3, 55405, Control_c, 0, 7, 89
3, 55460, Control_c, 0, 7, 88
3, 55515, Control_c, 0, 7, 87
3, 55570, Control_c, 0, 7, 86
3, 55625, Control_c, 0, 7, 85
3, 55632, Note_on_c, 0, 53, 0
3, 55680, Control_c, 0, 7, 84
3, 55680, Note_on_c, 0, 52, 75
3, 55734, Control_c, 0, 7, 83
3, 55789, Control_c, 0, 7, 82
3, 55844, Control_c, 0, 7, 81
3, 55899, Control_c, 0, 7, 80
3, 55954, Control_c, 0, 7, 79
3, 56009, Control_c, 0, 7, 78
3, 56016, Note_on_c, 0, 52, 0
3, 56064, Control_c, 0, 7, 77
3, 56064, Control_c, 0, 7, 64
3, 56064, Note_on_c, 0, 50, 75
3, 56112, Control_c, 0, 7, 63
3, 56160, Control_c, 0, 7, 62
3, 56208, Control_c, 0, 7, 61
3, 56256, Control_c, 0, 7, 60
3, 56304, Control_c, 0, 7, 59
3, 56352, Control_c, 0, 7, 58
3, 56400, Control_c, 0, 7, 57
3, 56400, Note_on_c, 0, 50, 0
3, 56448, Control_c, 0, 7, 56
3, 56448, Note_on_c, 0, 48, 75
3, 56496, Control_c, 0, 7, 55
3, 56544, Control_c, 0, 7, 54
3, 56592, Control_c, 0, 7, 53
3, 56640, Control_c, 0, 7, 52
3, 56688, Control_c, 0, 7, 51
3, 56736, Control_c, 0, 7, 50
3, 56784, Control_c, 0, 7, 49
3, 56784, Note_on_c, 0, 48, 0
3, 56832, Control_c, 0, 7, 48
3, 56832, Note_on_c, 0, 50, 75
3, 56896, Control_c, 0, 7, 47
3, 56960, Control_c, 0, 7, 46
3, 57024, Control_c, 0, 7, 45
3, 57088, Control_c, 0, 7, 44
3, 57152, Control_c, 0, 7, 43
3, 57168, Note_on_c, 0, 50, 0
3, 57216, Control_c, 0, 7, 42
3, 57216, Note_on_c, 0, 48, 75
3, 57280, Control_c, 0, 7, 41
3, 57344, Control_c, 0, 7, 40
3, 57408, Control_c, 0, 7, 39
3, 57472, Control_c, 0, 7, 38
3, 57536, Control_c, 0, 7, 37
3, 57552, Note_on_c, 0, 48, 0
3, 57600, Control_c, 0, 7, 36
3, 57600, Note_on_c, 0, 46, 75
3, 57651, Control_c, 0, 7, 35
3, 57702, Control_c, 0, 7, 34
3, 57753, Control_c, 0, 7, 33
3, 57804, Control_c, 0, 7, 32
3, 57856, Control_c, 0, 7, 31
3, 57907, Control_c, 0, 7, 30
3, 57936, Note_on_c, 0, 46, 0
3, 57958, Control_c, 0, 7, 29
3, 57984, Note_on_c, 0, 48, 75
3, 58009, Control_c, 0, 7, 28
3, 58060, Control_c, 0, 7, 27
3, 58112, Control_c, 0, 7, 26
3, 58163, Control_c, 0, 7, 25
3, 58214, Control_c, 0, 7, 24
3, 58265, Control_c, 0, 7, 23
3, 58316, Control_c, 0, 7, 22
3, 58320, Note_on_c, 0, 48, 0
3, 58368, Control_c, 0, 7, 21
3, 58368, Note_on_c, 0, 41, 75
3, 59088, Note_on_c, 0, 41, 0
3, 59088, End_track
4, 0, Start_track
4, 0, MIDI_port, 0
4, 0, Title_t, "Acoustic & Electric"
4, 0, Program_c, 1, 24
4, 0, Control_c, 1, 7, 127
4, 0, Control_c, 1, 10, 64
4, 3072, Note_on_c, 1, 65, 60
4, 3166, Note_on_c, 1, 65, 0
4, 3168, Note_on_c, 1, 60, 60
4, 3262, Note_on_c, 1, 60, 0
4, 3264, Note_on_c, 1, 69, 60
4, 3358, Note_on_c, 1, 69, 0
4, 3360, Note_on_c, 1, 65, 60
4, 3454, Note_on_c, 1, 65, 0
4, 3456, Note_on_c, 1, 64, 60
4, 3550, Note_on_c, 1, 64, 0
4, 3552, Note_on_c, 1, 60, 60
4, 3646, Note_on_c, 1, 60, 0
4, 3648, Note_on_c, 1, 69, 60
4, 3742, Note_on_c, 1, 69, 0
4, 3744, Note_on_c, 1, 65, 60
4, 3838, Note_on_c, 1, 65, 0
4, 3840, Note_on_c, 1, 62, 60
4, 3934, Note_on_c, 1, 62, 0
4, 3936, Note_on_c, 1, 58, 60
4, 4030, Note_on_c, 1, 58, 0
4, 4032, Note_on_c, 1, 65, 60
4, 4126, Note_on_c, 1, 65, 0
4, 4128, Note_on_c, 1, 62, 60
4, 4222, Note_on_c, 1, 62, 0
4, 4224, Note_on_c, 1, 60, 60
4, 4318, Note_on_c, 1, 60, 0
4, 4320, Note_on_c, 1, 58, 60
4, 4414, Note_on_c, 1, 58, 0
4, 4416, Note_on_c, 1, 64, 60
4, 4510, Note_on_c, 1, 64, 0
4, 4512, Note_on_c, 1, 60, 60
4, 4606, Note_on_c, 1, 60, 0
4, 4608, Note_on_c, 1, 62, 60
4, 4702, Note_on_c, 1, 62, 0
4, 4704, Note_on_c, 1, 57, 60
4, 4798, Note_on_c, 1, 57, 0
4, 4800, Note_on_c, 1, 65, 60
4, 4894, Note_on_c, 1, 65, 0
4, 4896, Note_on_c, 1, 62, 60
4, 4990, Note_on_c, 1, 62, 0
4, 4992, Note_on_c, 1, 60, 60
4, 5086, Note_on_c, 1, 60, 0
4, 5088, Note_on_c, 1, 57, 60
4, 5182, Note_on_c, 1, 57, 0
4, 5184, Note_on_c, 1, 64, 60
4, 5278, Note_on_c, 1, 64, 0
4, 5280, Note_on_c, 1, 60, 60
4, 5374, Note_on_c, 1, 60, 0
4, 5376, Note_on_c, 1, 53, 60
4, 5470, Note_on_c, 1, 53, 0
4, 5472, Note_on_c, 1, 58, 60
4, 5566, Note_on_c, 1, 58, 0
4, 5568, Note_on_c, 1, 62, 60
4, 5662, Note_on_c, 1, 62, 0
4, 5664, Note_on_c, 1, 65, 60
4, 5758, Note_on_c, 1, 65, 0
4, 5760, Note_on_c, 1, 64, 60
4, 5854, Note_on_c, 1, 64, 0
4, 5856, Note_on_c, 1, 55, 60
4, 5950, Note_on_c, 1, 55, 0
4, 5952, Note_on_c, 1, 60, 60
4, 6046, Note_on_c, 1, 60, 0
4, 6048, Note_on_c, 1, 58, 60
4, 6142, Note_on_c, 1, 58, 0
4, 6144, Note_on_c, 1, 65, 60
4, 6238, Note_on_c, 1, 65, 0
4, 6240, Note_on_c, 1, 60, 60
4, 6334, Note_on_c, 1, 60, 0
4, 6336, Note_on_c, 1, 69, 60
4, 6430, Note_on_c, 1, 69, 0
4, 6432, Note_on_c, 1, 65, 60
4, 6526, Note_on_c, 1, 65, 0
4, 6528, Note_on_c, 1, 64, 60
4, 6622, Note_on_c, 1, 64, 0
4, 6624, Note_on_c, 1, 60, 60
4, 6718, Note_on_c, 1, 60, 0
4, 6720, Note_on_c, 1, 69, 60
4, 6814, Note_on_c, 1, 69, 0
4, 6816, Note_on_c, 1, 65, 60
4, 6910, Note_on_c, 1, 65, 0
4, 6912, Note_on_c, 1, 62, 60
4, 7006, Note_on_c, 1, 62, 0
4, 7008, Note_on_c, 1, 58, 60
4, 7102, Note_on_c, 1, 58, 0
4, 7104, Note_on_c, 1, 70, 60
4, 7198, Note_on_c, 1, 70, 0
4, 7200, Note_on_c, 1, 65, 60
4, 7294, Note_on_c, 1, 65, 0
4, 7296, Note_on_c, 1, 60, 60
4, 7390, Note_on_c, 1, 60, 0
4, 7392, Note_on_c, 1, 57, 60
4, 7486, Note_on_c, 1, 57, 0
4, 7488, Note_on_c, 1, 69, 60
4, 7582, Note_on_c, 1, 69, 0
4, 7584, Note_on_c, 1, 65, 60
4, 7678, Note_on_c, 1, 65, 0
4, 7680, Note_on_c, 1, 58, 60
4, 7774, Note_on_c, 1, 58, 0
4, 7776, Note_on_c, 1, 53, 60
4, 7870, Note_on_c, 1, 53, 0
4, 7872, Note_on_c, 1, 62, 60
4, 7966, Note_on_c, 1, 62, 0
4, 7968, Note_on_c, 1, 58, 60
4, 8062, Note_on_c, 1, 58, 0
4, 8064, Note_on_c, 1, 57, 60
4, 8158, Note_on_c, 1, 57, 0
4, 8160, Note_on_c, 1, 53, 60
4, 8254, Note_on_c, 1, 53, 0
4, 8256, Note_on_c, 1, 62, 60
4, 8350, Note_on_c, 1, 62, 0
4, 8352, Note_on_c, 1, 58, 60
4, 8446, Note_on_c, 1, 58, 0
4, 8448, Note_on_c, 1, 55, 60
4, 8542, Note_on_c, 1, 55, 0
4, 8544, Note_on_c, 1, 58, 60
4, 8638, Note_on_c, 1, 58, 0
4, 8640, Note_on_c, 1, 62, 60
4, 8734, Note_on_c, 1, 62, 0
4, 8736, Note_on_c, 1, 58, 60
4, 8830, Note_on_c, 1, 58, 0
4, 8832, Note_on_c, 1, 60, 60
4, 8926, Note_on_c, 1, 60, 0
4, 8928, Note_on_c, 1, 64, 60
4, 9022, Note_on_c, 1, 64, 0
4, 9024, Note_on_c, 1, 67, 60
4, 9118, Note_on_c, 1, 67, 0
4, 9120, Note_on_c, 1, 64, 60
4, 9214, Note_on_c, 1, 64, 0
4, 9216, Note_on_c, 1, 65, 60
4, 9310, Note_on_c, 1, 65, 0
4, 9312, Note_on_c, 1, 60, 60
4, 9406, Note_on_c, 1, 60, 0
4, 9408, Note_on_c, 1, 69, 60
4, 9502, Note_on_c, 1, 69, 0
4, 9504, Note_on_c, 1, 65, 60
4, 9598, Note_on_c, 1, 65, 0
4, 9600, Note_on_c, 1, 64, 60
4, 9694, Note_on_c, 1, 64, 0
4, 9696, Note_on_c, 1, 60, 60
4, 9790, Note_on_c, 1, 60, 0
4, 9792, Note_on_c, 1, 69, 60
4, 9886, Note_on_c, 1, 69, 0
4, 9888, Note_on_c, 1, 65, 60
4, 9982, Note_on_c, 1, 65, 0
4, 9984, Note_on_c, 1, 62, 60
4, 10078, Note_on_c, 1, 62, 0
4, 10080, Note_on_c, 1, 58, 60
4, 10174, Note_on_c, 1, 58, 0
4, 10176, Note_on_c, 1, 65, 60
4, 10270, Note_on_c, 1, 65, 0
4, 10272, Note_on_c, 1, 62, 60
4, 10366, Note_on_c, 1, 62, 0
4, 10368, Note_on_c, 1, 60, 60
4, 10462, Note_on_c, 1, 60, 0
4, 10464, Note_on_c, 1, 58, 60
4, 10558, Note_on_c, 1, 58, 0
4, 10560, Note_on_c, 1, 64, 60
4, 10654, Note_on_c, 1, 64, 0
4, 10656, Note_on_c, 1, 60, 60
4, 10750, Note_on_c, 1, 60, 0
4, 10752, Note_on_c, 1, 62, 60
4, 10846, Note_on_c, 1, 62, 0
4, 10848, Note_on_c, 1, 57, 60
4, 10942, Note_on_c, 1, 57, 0
4, 10944, Note_on_c, 1, 65, 60
4, 11038, Note_on_c, 1, 65, 0
4, 11040, Note_on_c, 1, 62, 60
4, 11134, Note_on_c, 1, 62, 0
4, 11136, Note_on_c, 1, 60, 60
4, 11230, Note_on_c, 1, 60, 0
4, 11232, Note_on_c, 1, 57, 60
4, 11326, Note_on_c, 1, 57, 0
4, 11328, Note_on_c, 1, 64, 60
4, 11422, Note_on_c, 1, 64, 0
4, 11424, Note_on_c, 1, 60, 60
4, 11518, Note_on_c, 1, 60, 0
4, 11520, Note_on_c, 1, 53, 60
4, 11614, Note_on_c, 1, 53, 0
4, 11616, Note_on_c, 1, 58, 60
4, 11710, Note_on_c, 1, 58, 0
4, 11712, Note_on_c, 1, 62, 60
4, 11806, Note_on_c, 1, 62, 0
4, 11808, Note_on_c, 1, 65, 60
4, 11902, Note_on_c, 1, 65, 0
4, 11904, Note_on_c, 1, 64, 60
4, 11998, Note_on_c, 1, 64, 0
4, 12000, Note_on_c, 1, 55, 60
4, 12094, Note_on_c, 1, 55, 0
4, 12096, Note_on_c, 1, 60, 60
4, 12190, Note_on_c, 1, 60, 0
4, 12192, Note_on_c, 1, 58, 60
4, 12286, Note_on_c, 1, 58, 0
4, 12288, Note_on_c, 1, 57, 60
4, 12382, Note_on_c, 1, 57, 0
4, 12384, Note_on_c, 1, 60, 60
4, 12478, Note_on_c, 1, 60, 0
4, 12480, Note_on_c, 1, 65, 60
4, 12574, Note_on_c, 1, 65, 0
4, 12576, Note_on_c, 1, 60, 60
4, 12670, Note_on_c, 1, 60, 0
4, 12672, Note_on_c, 1, 69, 60
4, 12766, Note_on_c, 1, 69, 0
4, 12768, Note_on_c, 1, 65, 60
4, 12862, Note_on_c, 1, 65, 0
4, 12864, Note_on_c, 1, 60, 60
4, 12958, Note_on_c, 1, 60, 0
4, 12960, Note_on_c, 1, 57, 60
4, 13054, Note_on_c, 1, 57, 0
4, 13056, Note_on_c, 1, 57, 60
4, 13150, Note_on_c, 1, 57, 0
4, 13152, Note_on_c, 1, 62, 60
4, 13246, Note_on_c, 1, 62, 0
4, 13248, Note_on_c, 1, 65, 60
4, 13342, Note_on_c, 1, 65, 0
4, 13344, Note_on_c, 1, 62, 60
4, 13438, Note_on_c, 1, 62, 0
4, 13440, Note_on_c, 1, 69, 60
4, 13534, Note_on_c, 1, 69, 0
4, 13536, Note_on_c, 1, 65, 60
4, 13630, Note_on_c, 1, 65, 0
4, 13632, Note_on_c, 1, 64, 60
4, 13726, Note_on_c, 1, 64, 0
4, 13728, Note_on_c, 1, 60, 60
4, 13822, Note_on_c, 1, 60, 0
4, 13824, Note_on_c, 1, 53, 60
4, 13918, Note_on_c, 1, 53, 0
4, 13920, Note_on_c, 1, 58, 60
4, 14014, Note_on_c, 1, 58, 0
4, 14016, Note_on_c, 1, 62, 60
4, 14110, Note_on_c, 1, 62, 0
4, 14112, Note_on_c, 1, 58, 60
4, 14206, Note_on_c, 1, 58, 0
4, 14208, Note_on_c, 1, 70, 60
4, 14302, Note_on_c, 1, 70, 0
4, 14304, Note_on_c, 1, 65, 60
4, 14398, Note_on_c, 1, 65, 0
4, 14400, Note_on_c, 1, 64, 60
4, 14494, Note_on_c, 1, 64, 0
4, 14496, Note_on_c, 1, 60, 60
4, 14590, Note_on_c, 1, 60, 0
4, 14592, Note_on_c, 1, 55, 60
4, 14686, Note_on_c, 1, 55, 0
4, 14688, Note_on_c, 1, 58, 60
4, 14782, Note_on_c, 1, 58, 0
4, 14784, Note_on_c, 1, 62, 60
4, 14878, Note_on_c, 1, 62, 0
4, 14880, Note_on_c, 1, 58, 60
4, 14974, Note_on_c, 1, 58, 0
4, 14976, Note_on_c, 1, 69, 60
4, 15070, Note_on_c, 1, 69, 0
4, 15072, Note_on_c, 1, 67, 60
4, 15166, Note_on_c, 1, 67, 0
4, 15168, Note_on_c, 1, 69, 60
4, 15262, Note_on_c, 1, 69, 0
4, 15264, Note_on_c, 1, 65, 60
4, 15358, Note_on_c, 1, 65, 0
4, 15360, Note_on_c, 1, 57, 60
4, 15454, Note_on_c, 1, 57, 0
4, 15456, Note_on_c, 1, 62, 60
4, 15550, Note_on_c, 1, 62, 0
4, 15552, Note_on_c, 1, 65, 60
4, 15646, Note_on_c, 1, 65, 0
4, 15648, Note_on_c, 1, 62, 60
4, 15742, Note_on_c, 1, 62, 0
4, 15744, Note_on_c, 1, 69, 60
4, 15838, Note_on_c, 1, 69, 0
4, 15840, Note_on_c, 1, 62, 60
4, 15934, Note_on_c, 1, 62, 0
4, 15936, Note_on_c, 1, 67, 60
4, 16030, Note_on_c, 1, 67, 0
4, 16032, Note_on_c, 1, 60, 60
4, 16126, Note_on_c, 1, 60, 0
4, 16128, Note_on_c, 1, 58, 60
4, 16222, Note_on_c, 1, 58, 0
4, 16224, Note_on_c, 1, 62, 60
4, 16318, Note_on_c, 1, 62, 0
4, 16320, Note_on_c, 1, 65, 60
4, 16414, Note_on_c, 1, 65, 0
4, 16416, Note_on_c, 1, 62, 60
4, 16510, Note_on_c, 1, 62, 0
4, 16512, Note_on_c, 1, 57, 60
4, 16606, Note_on_c, 1, 57, 0
4, 16608, Note_on_c, 1, 60, 60
4, 16702, Note_on_c, 1, 60, 0
4, 16704, Note_on_c, 1, 63, 60
4, 16798, Note_on_c, 1, 63, 0
4, 16800, Note_on_c, 1, 57, 60
4, 16894, Note_on_c, 1, 57, 0
4, 16896, Note_on_c, 1, 58, 60
4, 16990, Note_on_c, 1, 58, 0
4, 16992, Note_on_c, 1, 62, 60
4, 17086, Note_on_c, 1, 62, 0
4, 17088, Note_on_c, 1, 67, 60
4, 17182, Note_on_c, 1, 67, 0
4, 17184, Note_on_c, 1, 70, 60
4, 17278, Note_on_c, 1, 70, 0
4, 17280, Note_on_c, 1, 69, 60
4, 17374, Note_on_c, 1, 69, 0
4, 17376, Note_on_c, 1, 70, 60
4, 17470, Note_on_c, 1, 70, 0
4, 17472, Note_on_c, 1, 69, 60
4, 17566, Note_on_c, 1, 69, 0
4, 17568, Note_on_c, 1, 62, 60
4, 17662, Note_on_c, 1, 62, 0
4, 17664, Note_on_c, 1, 55, 60
4, 17758, Note_on_c, 1, 55, 0
4, 17760, Note_on_c, 1, 53, 60
4, 17854, Note_on_c, 1, 53, 0
4, 17856, Note_on_c, 1, 51, 60
4, 17950, Note_on_c, 1, 51, 0
4, 17952, Note_on_c, 1, 53, 60
4, 17998, Note_on_c, 1, 53, 0
4, 18000, Note_on_c, 1, 55, 60
4, 18046, Note_on_c, 1, 55, 0
4, 18048, Note_on_c, 1, 57, 60
4, 18142, Note_on_c, 1, 57, 0
4, 18144, Note_on_c, 1, 55, 60
4, 18238, Note_on_c, 1, 55, 0
4, 18240, Note_on_c, 1, 57, 60
4, 18334, Note_on_c, 1, 57, 0
4, 18336, Note_on_c, 1, 54, 60
4, 18430, Note_on_c, 1, 54, 0
4, 18432, Note_on_c, 1, 55, 60
4, 18526, Note_on_c, 1, 55, 0
4, 18528, Note_on_c, 1, 50, 60
4, 18622, Note_on_c, 1, 50, 0
4, 18624, Note_on_c, 1, 55, 60
4, 18718, Note_on_c, 1, 55, 0
4, 18720, Note_on_c, 1, 58, 60
4, 18814, Note_on_c, 1, 58, 0
4, 18816, Note_on_c, 1, 57, 60
4, 18910, Note_on_c, 1, 57, 0
4, 18912, Note_on_c, 1, 58, 60
4, 19006, Note_on_c, 1, 58, 0
4, 19008, Note_on_c, 1, 57, 60
4, 19102, Note_on_c, 1, 57, 0
4, 19104, Note_on_c, 1, 50, 60
4, 19198, Note_on_c, 1, 50, 0
4, 19200, Note_on_c, 1, 55, 60
4, 19246, Note_on_c, 1, 55, 0
4, 19248, Note_on_c, 1, 57, 60
4, 19294, Note_on_c, 1, 57, 0
4, 19296, Note_on_c, 1, 58, 60
4, 19390, Note_on_c, 1, 58, 0
4, 19392, Note_on_c, 1, 55, 60
4, 19486, Note_on_c, 1, 55, 0
4, 19488, Note_on_c, 1, 58, 60
4, 19582, Note_on_c, 1, 58, 0
4, 19584, Note_on_c, 1, 57, 60
4, 19678, Note_on_c, 1, 57, 0
4, 19680, Note_on_c, 1, 58, 60
4, 19774, Note_on_c, 1, 58, 0
4, 19776, Note_on_c, 1, 60, 60
4, 19870, Note_on_c, 1, 60, 0
4, 19872, Note_on_c, 1, 57, 60
4, 19966, Note_on_c, 1, 57, 0
4, 19968, Note_on_c, 1, 58, 60
4, 20062, Note_on_c, 1, 58, 0
4, 20064, Note_on_c, 1, 62, 60
4, 20158, Note_on_c, 1, 62, 0
4, 20160, Note_on_c, 1, 65, 60
4, 20254, Note_on_c, 1, 65, 0
4, 20256, Note_on_c, 1, 58, 60
4, 20350, Note_on_c, 1, 58, 0
4, 20352, Note_on_c, 1, 57, 60
4, 20446, Note_on_c, 1, 57, 0
4, 20448, Note_on_c, 1, 58, 60
4, 20542, Note_on_c, 1, 58, 0
4, 20544, Note_on_c, 1, 65, 60
4, 20638, Note_on_c, 1, 65, 0
4, 20640, Note_on_c, 1, 57, 60
4, 20734, Note_on_c, 1, 57, 0
4, 20736, Note_on_c, 1, 55, 60
4, 20830, Note_on_c, 1, 55, 0
4, 20832, Note_on_c, 1, 58, 60
4, 20926, Note_on_c, 1, 58, 0
4, 20928, Note_on_c, 1, 62, 60
4, 21022, Note_on_c, 1, 62, 0
4, 21024, Note_on_c, 1, 67, 60
4, 21118, Note_on_c, 1, 67, 0
4, 21120, Note_on_c, 1, 60, 60
4, 21214, Note_on_c, 1, 60, 0
4, 21216, Note_on_c, 1, 72, 60
4, 21310, Note_on_c, 1, 72, 0
4, 21312, Note_on_c, 1, 74, 60
4, 21406, Note_on_c, 1, 74, 0
4, 21408, Note_on_c, 1, 76, 60
4, 21502, Note_on_c, 1, 76, 0
4, 21504, Note_on_c, 1, 65, 60
4, 21598, Note_on_c, 1, 65, 0
4, 21600, Note_on_c, 1, 60, 60
4, 21694, Note_on_c, 1, 60, 0
4, 21696, Note_on_c, 1, 69, 60
4, 21790, Note_on_c, 1, 69, 0
4, 21792, Note_on_c, 1, 65, 60
4, 21886, Note_on_c, 1, 65, 0
4, 21888, Note_on_c, 1, 64, 60
4, 21982, Note_on_c, 1, 64, 0
4, 21984, Note_on_c, 1, 60, 60
4, 22078, Note_on_c, 1, 60, 0
4, 22080, Note_on_c, 1, 69, 60
4, 22174, Note_on_c, 1, 69, 0
4, 22176, Note_on_c, 1, 65, 60
4, 22270, Note_on_c, 1, 65, 0
4, 22272, Note_on_c, 1, 62, 60
4, 22366, Note_on_c, 1, 62, 0
4, 22368, Note_on_c, 1, 58, 60
4, 22462, Note_on_c, 1, 58, 0
4, 22464, Note_on_c, 1, 70, 60
4, 22558, Note_on_c, 1, 70, 0
4, 22560, Note_on_c, 1, 65, 60
4, 22654, Note_on_c, 1, 65, 0
4, 22656, Note_on_c, 1, 60, 60
4, 22750, Note_on_c, 1, 60, 0
4, 22752, Note_on_c, 1, 57, 60
4, 22846, Note_on_c, 1, 57, 0
4, 22848, Note_on_c, 1, 69, 60
4, 22942, Note_on_c, 1, 69, 0
4, 22944, Note_on_c, 1, 65, 60
4, 23038, Note_on_c, 1, 65, 0
4, 23040, Note_on_c, 1, 58, 60
4, 23134, Note_on_c, 1, 58, 0
4, 23136, Note_on_c, 1, 53, 60
4, 23230, Note_on_c, 1, 53, 0
4, 23232, Note_on_c, 1, 62, 60
4, 23326, Note_on_c, 1, 62, 0
4, 23328, Note_on_c, 1, 58, 60
4, 23422, Note_on_c, 1, 58, 0
4, 23424, Note_on_c, 1, 57, 60
4, 23518, Note_on_c, 1, 57, 0
4, 23520, Note_on_c, 1, 53, 60
4, 23614, Note_on_c, 1, 53, 0
4, 23616, Note_on_c, 1, 62, 60
4, 23710, Note_on_c, 1, 62, 0
4, 23712, Note_on_c, 1, 58, 60
4, 23806, Note_on_c, 1, 58, 0
4, 23808, Note_on_c, 1, 55, 60
4, 23902, Note_on_c, 1, 55, 0
4, 23904, Note_on_c, 1, 58, 60
4, 23998, Note_on_c, 1, 58, 0
4, 24000, Note_on_c, 1, 62, 60
4, 24094, Note_on_c, 1, 62, 0
4, 24096, Note_on_c, 1, 58, 60
4, 24190, Note_on_c, 1, 58, 0
4, 24192, Note_on_c, 1, 60, 60
4, 24286, Note_on_c, 1, 60, 0
4, 24288, Note_on_c, 1, 64, 60
4, 24382, Note_on_c, 1, 64, 0
4, 24384, Note_on_c, 1, 67, 60
4, 24478, Note_on_c, 1, 67, 0
4, 24480, Note_on_c, 1, 64, 60
4, 24574, Note_on_c, 1, 64, 0
4, 24576, Note_on_c, 1, 65, 60
4, 24670, Note_on_c, 1, 65, 0
4, 24672, Note_on_c, 1, 60, 60
4, 24766, Note_on_c, 1, 60, 0
4, 24768, Note_on_c, 1, 69, 60
4, 24862, Note_on_c, 1, 69, 0
4, 24864, Note_on_c, 1, 65, 60
4, 24958, Note_on_c, 1, 65, 0
4, 24960, Note_on_c, 1, 64, 60
4, 25054, Note_on_c, 1, 64, 0
4, 25056, Note_on_c, 1, 60, 60
4, 25150, Note_on_c, 1, 60, 0
4, 25152, Note_on_c, 1, 69, 60
4, 25246, Note_on_c, 1, 69, 0
4, 25248, Note_on_c, 1, 65, 60
4, 25342, Note_on_c, 1, 65, 0
4, 25344, Note_on_c, 1, 62, 60
4, 25438, Note_on_c, 1, 62, 0
4, 25440, Note_on_c, 1, 58, 60
4, 25534, Note_on_c, 1, 58, 0
4, 25536, Note_on_c, 1, 65, 60
4, 25630, Note_on_c, 1, 65, 0
4, 25632, Note_on_c, 1, 62, 60
4, 25726, Note_on_c, 1, 62, 0
4, 25728, Note_on_c, 1, 60, 60
4, 25822, Note_on_c, 1, 60, 0
4, 25824, Note_on_c, 1, 58, 60
4, 25918, Note_on_c, 1, 58, 0
4, 25920, Note_on_c, 1, 64, 60
4, 26014, Note_on_c, 1, 64, 0
4, 26016, Note_on_c, 1, 60, 60
4, 26110, Note_on_c, 1, 60, 0
4, 26112, Note_on_c, 1, 62, 60
4, 26206, Note_on_c, 1, 62, 0
4, 26208, Note_on_c, 1, 57, 60
4, 26302, Note_on_c, 1, 57, 0
4, 26304, Note_on_c, 1, 65, 60
4, 26398, Note_on_c, 1, 65, 0
4, 26400, Note_on_c, 1, 62, 60
4, 26494, Note_on_c, 1, 62, 0
4, 26496, Note_on_c, 1, 60, 60
4, 26590, Note_on_c, 1, 60, 0
4, 26592, Note_on_c, 1, 57, 60
4, 26686, Note_on_c, 1, 57, 0
4, 26688, Note_on_c, 1, 64, 60
4, 26782, Note_on_c, 1, 64, 0
4, 26784, Note_on_c, 1, 60, 60
4, 26878, Note_on_c, 1, 60, 0
4, 26880, Note_on_c, 1, 53, 60
4, 26974, Note_on_c, 1, 53, 0
4, 26976, Note_on_c, 1, 58, 60
4, 27070, Note_on_c, 1, 58, 0
4, 27072, Note_on_c, 1, 62, 60
4, 27166, Note_on_c, 1, 62, 0
4, 27168, Note_on_c, 1, 65, 60
4, 27262, Note_on_c, 1, 65, 0
4, 27264, Note_on_c, 1, 64, 60
4, 27358, Note_on_c, 1, 64, 0
4, 27360, Note_on_c, 1, 55, 60
4, 27454, Note_on_c, 1, 55, 0
4, 27456, Note_on_c, 1, 60, 60
4, 27550, Note_on_c, 1, 60, 0
4, 27552, Note_on_c, 1, 58, 60
4, 27646, Note_on_c, 1, 58, 0
4, 27648, Note_on_c, 1, 57, 60
4, 27742, Note_on_c, 1, 57, 0
4, 27744, Note_on_c, 1, 60, 60
4, 27838, Note_on_c, 1, 60, 0
4, 27840, Note_on_c, 1, 65, 60
4, 27934, Note_on_c, 1, 65, 0
4, 27936, Note_on_c, 1, 60, 60
4, 28030, Note_on_c, 1, 60, 0
4, 28032, Note_on_c, 1, 69, 60
4, 28126, Note_on_c, 1, 69, 0
4, 28128, Note_on_c, 1, 65, 60
4, 28222, Note_on_c, 1, 65, 0
4, 28224, Note_on_c, 1, 60, 60
4, 28318, Note_on_c, 1, 60, 0
4, 28320, Note_on_c, 1, 57, 60
4, 28414, Note_on_c, 1, 57, 0
4, 28608, Program_c, 1, 30
4, 28800, Note_on_c, 1, 69, 75
4, 28960, Note_on_c, 1, 69, 0
4, 28992, Pitch_bend_c, 1, 0
4, 28992, Note_on_c, 1, 74, 75
4, 28994, Pitch_bend_c, 1, 100
4, 28996, Pitch_bend_c, 1, 200
4, 28999, Pitch_bend_c, 1, 300
4, 29001, Pitch_bend_c, 1, 400
4, 29003, Pitch_bend_c, 1, 500
4, 29006, Pitch_bend_c, 1, 600
4, 29008, Pitch_bend_c, 1, 700
4, 29010, Pitch_bend_c, 1, 800
4, 29013, Pitch_bend_c, 1, 900
4, 29015, Pitch_bend_c, 1, 1000
4, 29018, Pitch_bend_c, 1, 1100
4, 29020, Pitch_bend_c, 1, 1200
4, 29022, Pitch_bend_c, 1, 1300
4, 29025, Pitch_bend_c, 1, 1400
4, 29027, Pitch_bend_c, 1, 1500
4, 29029, Pitch_bend_c, 1, 1600
4, 29032, Pitch_bend_c, 1, 1700
4, 29034, Pitch_bend_c, 1, 1800
4, 29037, Pitch_bend_c, 1, 1900
4, 29039, Pitch_bend_c, 1, 2000
4, 29041, Pitch_bend_c, 1, 2100
4, 29044, Pitch_bend_c, 1, 2200
4, 29046, Pitch_bend_c, 1, 2300
4, 29048, Pitch_bend_c, 1, 2400
4, 29051, Pitch_bend_c, 1, 2500
4, 29053, Pitch_bend_c, 1, 2600
4, 29056, Pitch_bend_c, 1, 2700
4, 29058, Pitch_bend_c, 1, 2800
4, 29060, Pitch_bend_c, 1, 2900
4, 29063, Pitch_bend_c, 1, 3000
4, 29065, Pitch_bend_c, 1, 3100
4, 29067, Pitch_bend_c, 1, 3200
4, 29070, Pitch_bend_c, 1, 3300
4, 29072, Pitch_bend_c, 1, 3400
4, 29074, Pitch_bend_c, 1, 3500
4, 29077, Pitch_bend_c, 1, 3600
4, 29079, Pitch_bend_c, 1, 3700
4, 29082, Pitch_bend_c, 1, 3800
4, 29084, Pitch_bend_c, 1, 3900
4, 29086, Pitch_bend_c, 1, 4000
4, 29089, Pitch_bend_c, 1, 4100
4, 29091, Pitch_bend_c, 1, 4200
4, 29093, Pitch_bend_c, 1, 4300
4, 29096, Pitch_bend_c, 1, 4400
4, 29098, Pitch_bend_c, 1, 4500
4, 29101, Pitch_bend_c, 1, 4600
4, 29103, Pitch_bend_c, 1, 4700
4, 29105, Pitch_bend_c, 1, 4800
4, 29108, Pitch_bend_c, 1, 4900
4, 29110, Pitch_bend_c, 1, 5000
4, 29112, Pitch_bend_c, 1, 5100
4, 29115, Pitch_bend_c, 1, 5200
4, 29117, Pitch_bend_c, 1, 5300
4, 29120, Pitch_bend_c, 1, 5400
4, 29122, Pitch_bend_c, 1, 5500
4, 29124, Pitch_bend_c, 1, 5600
4, 29127, Pitch_bend_c, 1, 5700
4, 29129, Pitch_bend_c, 1, 5800
4, 29131, Pitch_bend_c, 1, 5900
4, 29134, Pitch_bend_c, 1, 6000
4, 29136, Pitch_bend_c, 1, 6100
4, 29138, Pitch_bend_c, 1, 6200
4, 29141, Pitch_bend_c, 1, 6300
4, 29143, Pitch_bend_c, 1, 6400
4, 29146, Pitch_bend_c, 1, 6500
4, 29148, Pitch_bend_c, 1, 6600
4, 29150, Pitch_bend_c, 1, 6700
4, 29153, Pitch_bend_c, 1, 6800
4, 29155, Pitch_bend_c, 1, 6900
4, 29157, Pitch_bend_c, 1, 7000
4, 29160, Pitch_bend_c, 1, 7100
4, 29162, Pitch_bend_c, 1, 7200
4, 29165, Pitch_bend_c, 1, 7300
4, 29167, Pitch_bend_c, 1, 7400
4, 29169, Pitch_bend_c, 1, 7500
4, 29172, Pitch_bend_c, 1, 7600
4, 29174, Pitch_bend_c, 1, 7700
4, 29176, Pitch_bend_c, 1, 7800
4, 29179, Pitch_bend_c, 1, 7900
4, 29181, Pitch_bend_c, 1, 8000
4, 29184, Pitch_bend_c, 1, 8192
4, 30046, Note_on_c, 1, 74, 0
4, 30048, Note_on_c, 1, 72, 75
4, 30142, Note_on_c, 1, 72, 0
4, 30144, Note_on_c, 1, 74, 75
4, 30238, Note_on_c, 1, 74, 0
4, 30240, Pitch_bend_c, 1, 12231
4, 30240, Note_on_c, 1, 74, 75
4, 30241, Pitch_bend_c, 1, 12146
4, 30242, Pitch_bend_c, 1, 12062
4, 30243, Pitch_bend_c, 1, 11978
4, 30244, Pitch_bend_c, 1, 11894
4, 30245, Pitch_bend_c, 1, 11810
4, 30246, Pitch_bend_c, 1, 11726
4, 30247, Pitch_bend_c, 1, 11641
4, 30248, Pitch_bend_c, 1, 11557
4, 30249, Pitch_bend_c, 1, 11473
4, 30250, Pitch_bend_c, 1, 11389
4, 30251, Pitch_bend_c, 1, 11305
4, 30252, Pitch_bend_c, 1, 11221
4, 30253, Pitch_bend_c, 1, 11137
4, 30254, Pitch_bend_c, 1, 11052
4, 30255, Pitch_bend_c, 1, 10968
4, 30256, Pitch_bend_c, 1, 10884
4, 30257, Pitch_bend_c, 1, 10800
4, 30258, Pitch_bend_c, 1, 10716
4, 30259, Pitch_bend_c, 1, 10632
4, 30260, Pitch_bend_c, 1, 10548
4, 30261, Pitch_bend_c, 1, 10463
4, 30262, Pitch_bend_c, 1, 10379
4, 30263, Pitch_bend_c, 1, 10295
4, 30264, Pitch_bend_c, 1, 10211
4, 30265, Pitch_bend_c, 1, 10127
4, 30266, Pitch_bend_c, 1, 10043
4, 30267, Pitch_bend_c, 1, 9959
4, 30268, Pitch_bend_c, 1, 9874
4, 30269, Pitch_bend_c, 1, 9790
4, 30270, Pitch_bend_c, 1, 9706
4, 30271, Pitch_bend_c, 1, 9622
4, 30272, Pitch_bend_c, 1, 9538
4, 30273, Pitch_bend_c, 1, 9454
4, 30274, Pitch_bend_c, 1, 9370
4, 30275, Pitch_bend_c, 1, 9285
4, 30276, Pitch_bend_c, 1, 9201
4, 30277, Pitch_bend_c, 1, 9117
4, 30278, Pitch_bend_c, 1, 9033
4, 30279, Pitch_bend_c, 1, 8949
4, 30280, Pitch_bend_c, 1, 8865
4, 30281, Pitch_bend_c, 1, 8781
4, 30282, Pitch_bend_c, 1, 8696
4, 30283, Pitch_bend_c, 1, 8612
4, 30284, Pitch_bend_c, 1, 8528
4, 30285, Pitch_bend_c, 1, 8444
4, 30286, Pitch_bend_c, 1, 8360
4, 30287, Pitch_bend_c, 1, 8276
4, 30288, Pitch_bend_c, 1, 8192
4, 30289, Pitch_bend_c, 1, 8021
4, 30290, Pitch_bend_c, 1, 7850
4, 30291, Pitch_bend_c, 1, 7680
4, 30292, Pitch_bend_c, 1, 7509
4, 30293, Pitch_bend_c, 1, 7338
4, 30294, Pitch_bend_c, 1, 7168
4, 30295, Pitch_bend_c, 1, 6997
4, 30296, Pitch_bend_c, 1, 6826
4, 30297, Pitch_bend_c, 1, 6656
4, 30298, Pitch_bend_c, 1, 6485
4, 30299, Pitch_bend_c, 1, 6314
4, 30300, Pitch_bend_c, 1, 6144
4, 30301, Pitch_bend_c, 1, 5973
4, 30302, Pitch_bend_c, 1, 5802
4, 30303, Pitch_bend_c, 1, 5632
4, 30304, Pitch_bend_c, 1, 5461
4, 30305, Pitch_bend_c, 1, 5290
4, 30306, Pitch_bend_c, 1, 5120
4, 30307, Pitch_bend_c, 1, 4949
4, 30308, Pitch_bend_c, 1, 4778
4, 30309, Pitch_bend_c, 1, 4608
4, 30310, Pitch_bend_c, 1, 4437
4, 30311, Pitch_bend_c, 1, 4266
4, 30312, Pitch_bend_c, 1, 4096
4, 30313, Pitch_bend_c, 1, 3925
4, 30314, Pitch_bend_c, 1, 3754
4, 30315, Pitch_bend_c, 1, 3584
4, 30316, Pitch_bend_c, 1, 3413
4, 30317, Pitch_bend_c, 1, 3242
4, 30318, Pitch_bend_c, 1, 3072
4, 30319, Pitch_bend_c, 1, 2901
4, 30320, Pitch_bend_c, 1, 2730
4, 30321, Pitch_bend_c, 1, 2560
4, 30322, Pitch_bend_c, 1, 2389
4, 30323, Pitch_bend_c, 1, 2218
4, 30324, Pitch_bend_c, 1, 2048
4, 30325, Pitch_bend_c, 1, 1877
4, 30326, Pitch_bend_c, 1, 1706
4, 30327, Pitch_bend_c, 1, 1536
4, 30328, Pitch_bend_c, 1, 1365
4, 30329, Pitch_bend_c, 1, 1194
4, 30330, Pitch_bend_c, 1, 1024
4, 30331, Pitch_bend_c, 1, 853
4, 30332, Pitch_bend_c, 1, 682
4, 30333, Pitch_bend_c, 1, 512
4, 30334, Pitch_bend_c, 1, 341
4, 30335, Pitch_bend_c, 1, 170
4, 30336, Pitch_bend_c, 1, 0
4, 30430, Note_on_c, 1, 74, 0
4, 30432, Pitch_bend_c, 1, 8192
4, 30432, Note_on_c, 1, 70, 75
4, 30526, Note_on_c, 1, 70, 0
4, 30528, Note_on_c, 1, 72, 75
4, 30574, Note_on_c, 1, 72, 0
4, 30576, Note_on_c, 1, 70, 75
4, 30622, Note_on_c, 1, 70, 0
4, 30624, Note_on_c, 1, 69, 75
4, 30718, Note_on_c, 1, 69, 0
4, 30720, Pitch_bend_c, 1, 0
4, 30720, Note_on_c, 1, 77, 75
4, 30721, Pitch_bend_c, 1, 192
4, 30722, Pitch_bend_c, 1, 352
4, 30723, Pitch_bend_c, 1, 512
4, 30724, Pitch_bend_c, 1, 704
4, 30725, Pitch_bend_c, 1, 864
4, 30726, Pitch_bend_c, 1, 1024
4, 30727, Pitch_bend_c, 1, 1216
4, 30728, Pitch_bend_c, 1, 1376
4, 30729, Pitch_bend_c, 1, 1536
4, 30730, Pitch_bend_c, 1, 1728
4, 30731, Pitch_bend_c, 1, 1888
4, 30732, Pitch_bend_c, 1, 2048
4, 30733, Pitch_bend_c, 1, 2240
4, 30734, Pitch_bend_c, 1, 2400
4, 30735, Pitch_bend_c, 1, 2560
4, 30736, Pitch_bend_c, 1, 2752
4, 30737, Pitch_bend_c, 1, 2912
4, 30738, Pitch_bend_c, 1, 3072
4, 30739, Pitch_bend_c, 1, 3264
4, 30740, Pitch_bend_c, 1, 3424
4, 30741, Pitch_bend_c, 1, 3584
4, 30742, Pitch_bend_c, 1, 3776
4, 30743, Pitch_bend_c, 1, 3936
4, 30744, Pitch_bend_c, 1, 4096
4, 30745, Pitch_bend_c, 1, 4288
4, 30746, Pitch_bend_c, 1, 4448
4, 30747, Pitch_bend_c, 1, 4608
4, 30748, Pitch_bend_c, 1, 4800
4, 30749, Pitch_bend_c, 1, 4960
4, 30750, Pitch_bend_c, 1, 5120
4, 30751, Pitch_bend_c, 1, 5312
4, 30752, Pitch_bend_c, 1, 5472
4, 30753, Pitch_bend_c, 1, 5632
4, 30754, Pitch_bend_c, 1, 5824
4, 30755, Pitch_bend_c, 1, 5984
4, 30756, Pitch_bend_c, 1, 6144
4, 30757, Pitch_bend_c, 1, 6336
4, 30758, Pitch_bend_c, 1, 6496
4, 30759, Pitch_bend_c, 1, 6656
4, 30760, Pitch_bend_c, 1, 6848
4, 30761, Pitch_bend_c, 1, 7008
4, 30762, Pitch_bend_c, 1, 7168
4, 30763, Pitch_bend_c, 1, 7360
4, 30764, Pitch_bend_c, 1, 7520
4, 30765, Pitch_bend_c, 1, 7680
4, 30766, Pitch_bend_c, 1, 7872
4, 30767, Pitch_bend_c, 1, 8032
4, 30768, Pitch_bend_c, 1, 8192
4, 31648, Note_on_c, 1, 77, 0
4, 31680, Note_on_c, 1, 75, 75
4, 31774, Note_on_c, 1, 75, 0
4, 31776, Note_on_c, 1, 77, 75
4, 31822, Note_on_c, 1, 77, 0
4, 31824, Note_on_c, 1, 79, 75
4, 31870, Note_on_c, 1, 79, 0
4, 31872, Note_on_c, 1, 75, 75
4, 31894, Note_on_c, 1, 75, 0
4, 31896, Note_on_c, 1, 75, 75
4, 31918, Note_on_c, 1, 75, 0
4, 31920, Note_on_c, 1, 77, 75
4, 31942, Note_on_c, 1, 77, 0
4, 31944, Note_on_c, 1, 75, 75
4, 31966, Note_on_c, 1, 75, 0
4, 31968, Note_on_c, 1, 74, 75
4, 32062, Note_on_c, 1, 74, 0
4, 32064, Note_on_c, 1, 75, 75
4, 32158, Note_on_c, 1, 75, 0
4, 32160, Note_on_c, 1, 72, 75
4, 32254, Note_on_c, 1, 72, 0
4, 32256, Note_on_c, 1, 70, 75
4, 32302, Note_on_c, 1, 70, 0
4, 32304, Note_on_c, 1, 72, 75
4, 32350, Note_on_c, 1, 72, 0
4, 32352, Pitch_bend_c, 1, 0
4, 32352, Note_on_c, 1, 74, 75
4, 32353, Pitch_bend_c, 1, 192
4, 32354, Pitch_bend_c, 1, 352
4, 32355, Pitch_bend_c, 1, 512
4, 32356, Pitch_bend_c, 1, 704
4, 32357, Pitch_bend_c, 1, 864
4, 32358, Pitch_bend_c, 1, 1024
4, 32359, Pitch_bend_c, 1, 1216
4, 32360, Pitch_bend_c, 1, 1376
4, 32361, Pitch_bend_c, 1, 1536
4, 32362, Pitch_bend_c, 1, 1728
4, 32363, Pitch_bend_c, 1, 1888
4, 32364, Pitch_bend_c, 1, 2048
4, 32365, Pitch_bend_c, 1, 2240
4, 32366, Pitch_bend_c, 1, 2400
4, 32367, Pitch_bend_c, 1, 2560
4, 32368, Pitch_bend_c, 1, 2752
4, 32369, Pitch_bend_c, 1, 2912
4, 32370, Pitch_bend_c, 1, 3072
4, 32371, Pitch_bend_c, 1, 3264
4, 32372, Pitch_bend_c, 1, 3424
4, 32373, Pitch_bend_c, 1, 3584
4, 32374, Pitch_bend_c, 1, 3776
4, 32375, Pitch_bend_c, 1, 3936
4, 32376, Pitch_bend_c, 1, 4096
4, 32377, Pitch_bend_c, 1, 4288
4, 32378, Pitch_bend_c, 1, 4448
4, 32379, Pitch_bend_c, 1, 4608
4, 32380, Pitch_bend_c, 1, 4800
4, 32381, Pitch_bend_c, 1, 4960
4, 32382, Pitch_bend_c, 1, 5120
4, 32383, Pitch_bend_c, 1, 5312
4, 32384, Pitch_bend_c, 1, 5472
4, 32385, Pitch_bend_c, 1, 5632
4, 32386, Pitch_bend_c, 1, 5824
4, 32387, Pitch_bend_c, 1, 5984
4, 32388, Pitch_bend_c, 1, 6144
4, 32389, Pitch_bend_c, 1, 6336
4, 32390, Pitch_bend_c, 1, 6496
4, 32391, Pitch_bend_c, 1, 6656
4, 32392, Pitch_bend_c, 1, 6848
4, 32393, Pitch_bend_c, 1, 7008
4, 32394, Pitch_bend_c, 1, 7168
4, 32395, Pitch_bend_c, 1, 7360
4, 32396, Pitch_bend_c, 1, 7520
4, 32397, Pitch_bend_c, 1, 7680
4, 32398, Pitch_bend_c, 1, 7872
4, 32399, Pitch_bend_c, 1, 8032
4, 32400, Pitch_bend_c, 1, 8192
4, 33184, Note_on_c, 1, 74, 0
4, 33216, Note_on_c, 1, 72, 75
4, 33310, Note_on_c, 1, 72, 0
4, 33312, Note_on_c, 1, 74, 75
4, 33358, Note_on_c, 1, 74, 0
4, 33360, Note_on_c, 1, 75, 75
4, 33406, Note_on_c, 1, 75, 0
4, 33408, Note_on_c, 1, 72, 75
4, 33438, Note_on_c, 1, 72, 0
4, 33440, Note_on_c, 1, 74, 75
4, 33470, Note_on_c, 1, 74, 0
4, 33472, Note_on_c, 1, 72, 75
4, 33502, Note_on_c, 1, 72, 0
4, 33504, Note_on_c, 1, 70, 75
4, 33598, Note_on_c, 1, 70, 0
4, 33600, Note_on_c, 1, 72, 75
4, 33694, Note_on_c, 1, 72, 0
4, 33696, Note_on_c, 1, 69, 75
4, 33790, Note_on_c, 1, 69, 0
4, 33792, Note_on_c, 1, 58, 75
4, 33838, Note_on_c, 1, 58, 0
4, 33840, Note_on_c, 1, 60, 75
4, 33886, Note_on_c, 1, 60, 0
4, 33888, Pitch_bend_c, 1, 0
4, 33888, Note_on_c, 1, 62, 75
4, 33889, Pitch_bend_c, 1, 192
4, 33890, Pitch_bend_c, 1, 352
4, 33891, Pitch_bend_c, 1, 512
4, 33892, Pitch_bend_c, 1, 704
4, 33893, Pitch_bend_c, 1, 864
4, 33894, Pitch_bend_c, 1, 1024
4, 33895, Pitch_bend_c, 1, 1216
4, 33896, Pitch_bend_c, 1, 1376
4, 33897, Pitch_bend_c, 1, 1536
4, 33898, Pitch_bend_c, 1, 1728
4, 33899, Pitch_bend_c, 1, 1888
4, 33900, Pitch_bend_c, 1, 2048
4, 33901, Pitch_bend_c, 1, 2240
4, 33902, Pitch_bend_c, 1, 2400
4, 33903, Pitch_bend_c, 1, 2560
4, 33904, Pitch_bend_c, 1, 2752
4, 33905, Pitch_bend_c, 1, 2912
4, 33906, Pitch_bend_c, 1, 3072
4, 33907, Pitch_bend_c, 1, 3264
4, 33908, Pitch_bend_c, 1, 3424
4, 33909, Pitch_bend_c, 1, 3584
4, 33910, Pitch_bend_c, 1, 3776
4, 33911, Pitch_bend_c, 1, 3936
4, 33912, Pitch_bend_c, 1, 4096
4, 33913, Pitch_bend_c, 1, 4288
4, 33914, Pitch_bend_c, 1, 4448
4, 33915, Pitch_bend_c, 1, 4608
4, 33916, Pitch_bend_c, 1, 4800
4, 33917, Pitch_bend_c, 1, 4960
4, 33918, Pitch_bend_c, 1, 5120
4, 33919, Pitch_bend_c, 1, 5312
4, 33920, Pitch_bend_c, 1, 5472
4, 33921, Pitch_bend_c, 1, 5632
4, 33922, Pitch_bend_c, 1, 5824
4, 33923, Pitch_bend_c, 1, 5984
4, 33924, Pitch_bend_c, 1, 6144
4, 33925, Pitch_bend_c, 1, 6336
4, 33926, Pitch_bend_c, 1, 6496
4, 33927, Pitch_bend_c, 1, 6656
4, 33928, Pitch_bend_c, 1, 6848
4, 33929, Pitch_bend_c, 1, 7008
4, 33930, Pitch_bend_c, 1, 7168
4, 33931, Pitch_bend_c, 1, 7360
4, 33932, Pitch_bend_c, 1, 7520
4, 33933, Pitch_bend_c, 1, 7680
4, 33934, Pitch_bend_c, 1, 7872
4, 33935, Pitch_bend_c, 1, 8032
4, 33936, Pitch_bend_c, 1, 8192
4, 34720, Note_on_c, 1, 62, 0
4, 34752, Note_on_c, 1, 63, 75
4, 34846, Note_on_c, 1, 63, 0
4, 34848, Note_on_c, 1, 65, 75
4, 34894, Note_on_c, 1, 65, 0
4, 34896, Note_on_c, 1, 67, 75
4, 34942, Note_on_c, 1, 67, 0
4, 34944, Note_on_c, 1, 63, 75
4, 34976, Note_on_c, 1, 63, 0
4, 35040, Note_on_c, 1, 62, 75
4, 35134, Note_on_c, 1, 62, 0
4, 35136, Note_on_c, 1, 63, 75
4, 35230, Note_on_c, 1, 63, 0
4, 35232, Note_on_c, 1, 60, 75
4, 35326, Note_on_c, 1, 60, 0
4, 35328, Note_on_c, 1, 62, 75
4, 35374, Note_on_c, 1, 62, 0
4, 35376, Note_on_c, 1, 63, 75
4, 35422, Note_on_c, 1, 63, 0
4, 35424, Pitch_bend_c, 1, 0
4, 35424, Note_on_c, 1, 65, 75
4, 35425, Pitch_bend_c, 1, 192
4, 35426, Pitch_bend_c, 1, 352
4, 35427, Pitch_bend_c, 1, 512
4, 35428, Pitch_bend_c, 1, 704
4, 35429, Pitch_bend_c, 1, 864
4, 35430, Pitch_bend_c, 1, 1024
4, 35431, Pitch_bend_c, 1, 1216
4, 35432, Pitch_bend_c, 1, 1376
4, 35433, Pitch_bend_c, 1, 1536
4, 35434, Pitch_bend_c, 1, 1728
4, 35435, Pitch_bend_c, 1, 1888
4, 35436, Pitch_bend_c, 1, 2048
4, 35437, Pitch_bend_c, 1, 2240
4, 35438, Pitch_bend_c, 1, 2400
4, 35439, Pitch_bend_c, 1, 2560
4, 35440, Pitch_bend_c, 1, 2752
4, 35441, Pitch_bend_c, 1, 2912
4, 35442, Pitch_bend_c, 1, 3072
4, 35443, Pitch_bend_c, 1, 3264
4, 35444, Pitch_bend_c, 1, 3424
4, 35445, Pitch_bend_c, 1, 3584
4, 35446, Pitch_bend_c, 1, 3776
4, 35447, Pitch_bend_c, 1, 3936
4, 35448, Pitch_bend_c, 1, 4096
4, 35449, Pitch_bend_c, 1, 4288
4, 35450, Pitch_bend_c, 1, 4448
4, 35451, Pitch_bend_c, 1, 4608
4, 35452, Pitch_bend_c, 1, 4800
4, 35453, Pitch_bend_c, 1, 4960
4, 35454, Pitch_bend_c, 1, 5120
4, 35455, Pitch_bend_c, 1, 5312
4, 35456, Pitch_bend_c, 1, 5472
4, 35457, Pitch_bend_c, 1, 5632
4, 35458, Pitch_bend_c, 1, 5824
4, 35459, Pitch_bend_c, 1, 5984
4, 35460, Pitch_bend_c, 1, 6144
4, 35461, Pitch_bend_c, 1, 6336
4, 35462, Pitch_bend_c, 1, 6496
4, 35463, Pitch_bend_c, 1, 6656
4, 35464, Pitch_bend_c, 1, 6848
4, 35465, Pitch_bend_c, 1, 7008
4, 35466, Pitch_bend_c, 1, 7168
4, 35467, Pitch_bend_c, 1, 7360
4, 35468, Pitch_bend_c, 1, 7520
4, 35469, Pitch_bend_c, 1, 7680
4, 35470, Pitch_bend_c, 1, 7872
4, 35471, Pitch_bend_c, 1, 8032
4, 35472, Pitch_bend_c, 1, 8192
4, 36048, Note_on_c, 1, 65, 0
4, 36096, Note_on_c, 1, 65, 75
4, 36142, Note_on_c, 1, 65, 0
4, 36144, Note_on_c, 1, 67, 75
4, 36190, Note_on_c, 1, 67, 0
4, 36192, Pitch_bend_c, 1, 0
4, 36192, Note_on_c, 1, 69, 75
4, 36193, Pitch_bend_c, 1, 192
4, 36194, Pitch_bend_c, 1, 352
4, 36195, Pitch_bend_c, 1, 512
4, 36196, Pitch_bend_c, 1, 704
4, 36197, Pitch_bend_c, 1, 864
4, 36198, Pitch_bend_c, 1, 1024
4, 36199, Pitch_bend_c, 1, 1216
4, 36200, Pitch_bend_c, 1, 1376
4, 36201, Pitch_bend_c, 1, 1536
4, 36202, Pitch_bend_c, 1, 1728
4, 36203, Pitch_bend_c, 1, 1888
4, 36204, Pitch_bend_c, 1, 2048
4, 36205, Pitch_bend_c, 1, 2240
4, 36206, Pitch_bend_c, 1, 2400
4, 36207, Pitch_bend_c, 1, 2560
4, 36208, Pitch_bend_c, 1, 2752
4, 36209, Pitch_bend_c, 1, 2912
4, 36210, Pitch_bend_c, 1, 3072
4, 36211, Pitch_bend_c, 1, 3264
4, 36212, Pitch_bend_c, 1, 3424
4, 36213, Pitch_bend_c, 1, 3584
4, 36214, Pitch_bend_c, 1, 3776
4, 36215, Pitch_bend_c, 1, 3936
4, 36216, Pitch_bend_c, 1, 4096
4, 36217, Pitch_bend_c, 1, 4288
4, 36218, Pitch_bend_c, 1, 4448
4, 36219, Pitch_bend_c, 1, 4608
4, 36220, Pitch_bend_c, 1, 4800
4, 36221, Pitch_bend_c, 1, 4960
4, 36222, Pitch_bend_c, 1, 5120
4, 36223, Pitch_bend_c, 1, 5312
4, 36224, Pitch_bend_c, 1, 5472
4, 36225, Pitch_bend_c, 1, 5632
4, 36226, Pitch_bend_c, 1, 5824
4, 36227, Pitch_bend_c, 1, 5984
4, 36228, Pitch_bend_c, 1, 6144
4, 36229, Pitch_bend_c, 1, 6336
4, 36230, Pitch_bend_c, 1, 6496
4, 36231, Pitch_bend_c, 1, 6656
4, 36232, Pitch_bend_c, 1, 6848
4, 36233, Pitch_bend_c, 1, 7008
4, 36234, Pitch_bend_c, 1, 7168
4, 36235, Pitch_bend_c, 1, 7360
4, 36236, Pitch_bend_c, 1, 7520
4, 36237, Pitch_bend_c, 1, 7680
4, 36238, Pitch_bend_c, 1, 7872
4, 36239, Pitch_bend_c, 1, 8032
4, 36240, Pitch_bend_c, 1, 8192
4, 36816, Note_on_c, 1, 69, 0
4, 36864, Note_on_c, 1, 67, 75
4, 36910, Note_on_c, 1, 67, 0
4, 36912, Note_on_c, 1, 69, 75
4, 36958, Note_on_c, 1, 69, 0
4, 36960, Pitch_bend_c, 1, 0
4, 36960, Note_on_c, 1, 70, 75
4, 36961, Pitch_bend_c, 1, 192
4, 36962, Pitch_bend_c, 1, 352
4, 36963, Pitch_bend_c, 1, 512
4, 36964, Pitch_bend_c, 1, 704
4, 36965, Pitch_bend_c, 1, 864
4, 36966, Pitch_bend_c, 1, 1024
4, 36967, Pitch_bend_c, 1, 1216
4, 36968, Pitch_bend_c, 1, 1376
4, 36969, Pitch_bend_c, 1, 1536
4, 36970, Pitch_bend_c, 1, 1728
4, 36971, Pitch_bend_c, 1, 1888
4, 36972, Pitch_bend_c, 1, 2048
4, 36973, Pitch_bend_c, 1, 2240
4, 36974, Pitch_bend_c, 1, 2400
4, 36975, Pitch_bend_c, 1, 2560
4, 36976, Pitch_bend_c, 1, 2752
4, 36977, Pitch_bend_c, 1, 2912
4, 36978, Pitch_bend_c, 1, 3072
4, 36979, Pitch_bend_c, 1, 3264
4, 36980, Pitch_bend_c, 1, 3424
4, 36981, Pitch_bend_c, 1, 3584
4, 36982, Pitch_bend_c, 1, 3776
4, 36983, Pitch_bend_c, 1, 3936
4, 36984, Pitch_bend_c, 1, 4096
4, 36985, Pitch_bend_c, 1, 4288
4, 36986, Pitch_bend_c, 1, 4448
4, 36987, Pitch_bend_c, 1, 4608
4, 36988, Pitch_bend_c, 1, 4800
4, 36989, Pitch_bend_c, 1, 4960
4, 36990, Pitch_bend_c, 1, 5120
4, 36991, Pitch_bend_c, 1, 5312
4, 36992, Pitch_bend_c, 1, 5472
4, 36993, Pitch_bend_c, 1, 5632
4, 36994, Pitch_bend_c, 1, 5824
4, 36995, Pitch_bend_c, 1, 5984
4, 36996, Pitch_bend_c, 1, 6144
4, 36997, Pitch_bend_c, 1, 6336
4, 36998, Pitch_bend_c, 1, 6496
4, 36999, Pitch_bend_c, 1, 6656
4, 37000, Pitch_bend_c, 1, 6848
4, 37001, Pitch_bend_c, 1, 7008
4, 37002, Pitch_bend_c, 1, 7168
4, 37003, Pitch_bend_c, 1, 7360
4, 37004, Pitch_bend_c, 1, 7520
4, 37005, Pitch_bend_c, 1, 7680
4, 37006, Pitch_bend_c, 1, 7872
4, 37007, Pitch_bend_c, 1, 8032
4, 37008, Pitch_bend_c, 1, 8192
4, 37584, Note_on_c, 1, 70, 0
4, 37632, Pitch_bend_c, 1, 0
4, 37632, Note_on_c, 1, 70, 75
4, 37633, Pitch_bend_c, 1, 192
4, 37634, Pitch_bend_c, 1, 352
4, 37635, Pitch_bend_c, 1, 512
4, 37636, Pitch_bend_c, 1, 704
4, 37637, Pitch_bend_c, 1, 864
4, 37638, Pitch_bend_c, 1, 1024
4, 37639, Pitch_bend_c, 1, 1216
4, 37640, Pitch_bend_c, 1, 1376
4, 37641, Pitch_bend_c, 1, 1536
4, 37642, Pitch_bend_c, 1, 1728
4, 37643, Pitch_bend_c, 1, 1888
4, 37644, Pitch_bend_c, 1, 2048
4, 37645, Pitch_bend_c, 1, 2240
4, 37646, Pitch_bend_c, 1, 2400
4, 37647, Pitch_bend_c, 1, 2560
4, 37648, Pitch_bend_c, 1, 2752
4, 37649, Pitch_bend_c, 1, 2912
4, 37650, Pitch_bend_c, 1, 3072
4, 37651, Pitch_bend_c, 1, 3264
4, 37652, Pitch_bend_c, 1, 3424
4, 37653, Pitch_bend_c, 1, 3584
4, 37654, Pitch_bend_c, 1, 3776
4, 37655, Pitch_bend_c, 1, 3936
4, 37656, Pitch_bend_c, 1, 4096
4, 37657, Pitch_bend_c, 1, 4288
4, 37658, Pitch_bend_c, 1, 4448
4, 37659, Pitch_bend_c, 1, 4608
4, 37660, Pitch_bend_c, 1, 4800
4, 37661, Pitch_bend_c, 1, 4960
4, 37662, Pitch_bend_c, 1, 5120
4, 37663, Pitch_bend_c, 1, 5312
4, 37664, Pitch_bend_c, 1, 5472
4, 37665, Pitch_bend_c, 1, 5632
4, 37666, Pitch_bend_c, 1, 5824
4, 37667, Pitch_bend_c, 1, 5984
4, 37668, Pitch_bend_c, 1, 6144
4, 37669, Pitch_bend_c, 1, 6336
4, 37670, Pitch_bend_c, 1, 6496
4, 37671, Pitch_bend_c, 1, 6656
4, 37672, Pitch_bend_c, 1, 6848
4, 37673, Pitch_bend_c, 1, 7008
4, 37674, Pitch_bend_c, 1, 7168
4, 37675, Pitch_bend_c, 1, 7360
4, 37676, Pitch_bend_c, 1, 7520
4, 37677, Pitch_bend_c, 1, 7680
4, 37678, Pitch_bend_c, 1, 7872
4, 37679, Pitch_bend_c, 1, 8032
4, 37680, Pitch_bend_c, 1, 8192
4, 38160, Note_on_c, 1, 70, 0
4, 38208, Note_on_c, 1, 69, 75
4, 38368, Note_on_c, 1, 69, 0
4, 38400, Note_on_c, 1, 67, 75
4, 39888, Note_on_c, 1, 67, 0
4, 39936, Program_c, 1, 24
4, 43008, Note_on_c, 1, 65, 60
4, 43102, Note_on_c, 1, 65, 0
4, 43104, Note_on_c, 1, 60, 60
4, 43198, Note_on_c, 1, 60, 0
4, 43200, Note_on_c, 1, 69, 60
4, 43294, Note_on_c, 1, 69, 0
4, 43296, Note_on_c, 1, 65, 60
4, 43390, Note_on_c, 1, 65, 0
4, 43392, Note_on_c, 1, 64, 60
4, 43486, Note_on_c, 1, 64, 0
4, 43488, Note_on_c, 1, 60, 60
4, 43582, Note_on_c, 1, 60, 0
4, 43584, Note_on_c, 1, 69, 60
4, 43678, Note_on_c, 1, 69, 0
4, 43680, Note_on_c, 1, 65, 60
4, 43774, Note_on_c, 1, 65, 0
4, 43776, Note_on_c, 1, 62, 60
4, 43870, Note_on_c, 1, 62, 0
4, 43872, Note_on_c, 1, 58, 60
4, 43966, Note_on_c, 1, 58, 0
4, 43968, Note_on_c, 1, 65, 60
4, 44062, Note_on_c, 1, 65, 0
4, 44064, Note_on_c, 1, 62, 60
4, 44158, Note_on_c, 1, 62, 0
4, 44160, Note_on_c, 1, 60, 60
4, 44254, Note_on_c, 1, 60, 0
4, 44256, Note_on_c, 1, 58, 60
4, 44350, Note_on_c, 1, 58, 0
4, 44352, Note_on_c, 1, 64, 60
4, 44446, Note_on_c, 1, 64, 0
4, 44448, Note_on_c, 1, 60, 60
4, 44542, Note_on_c, 1, 60, 0
4, 44544, Note_on_c, 1, 62, 60
4, 44638, Note_on_c, 1, 62, 0
4, 44640, Note_on_c, 1, 57, 60
4, 44734, Note_on_c, 1, 57, 0
4, 44736, Note_on_c, 1, 65, 60
4, 44830, Note_on_c, 1, 65, 0
4, 44832, Note_on_c, 1, 62, 60
4, 44926, Note_on_c, 1, 62, 0
4, 44928, Note_on_c, 1, 60, 60
4, 45022, Note_on_c, 1, 60, 0
4, 45024, Note_on_c, 1, 57, 60
4, 45118, Note_on_c, 1, 57, 0
4, 45120, Note_on_c, 1, 64, 60
4, 45214, Note_on_c, 1, 64, 0
4, 45216, Note_on_c, 1, 60, 60
4, 45310, Note_on_c, 1, 60, 0
4, 45312, Note_on_c, 1, 53, 60
4, 45406, Note_on_c, 1, 53, 0
4, 45408, Note_on_c, 1, 58, 60
4, 45502, Note_on_c, 1, 58, 0
4, 45504, Note_on_c, 1, 62, 60
4, 45598, Note_on_c, 1, 62, 0
4, 45600, Note_on_c, 1, 65, 60
4, 45694, Note_on_c, 1, 65, 0
4, 45696, Note_on_c, 1, 64, 60
4, 45790, Note_on_c, 1, 64, 0
4, 45792, Note_on_c, 1, 55, 60
4, 45886, Note_on_c, 1, 55, 0
4, 45888, Note_on_c, 1, 60, 60
4, 45982, Note_on_c, 1, 60, 0
4, 45984, Note_on_c, 1, 58, 60
4, 46078, Note_on_c, 1, 58, 0
4, 46080, Program_c, 1, 29
4, 46080, Pitch_bend_c, 1, 0
4, 46080, Note_on_c, 1, 77, 60
4, 46081, Pitch_bend_c, 1, 192
4, 46082, Pitch_bend_c, 1, 352
4, 46083, Pitch_bend_c, 1, 512
4, 46084, Pitch_bend_c, 1, 704
4, 46085, Pitch_bend_c, 1, 864
4, 46086, Pitch_bend_c, 1, 1024
4, 46087, Pitch_bend_c, 1, 1216
4, 46088, Pitch_bend_c, 1, 1376
4, 46089, Pitch_bend_c, 1, 1536
4, 46090, Pitch_bend_c, 1, 1728
4, 46091, Pitch_bend_c, 1, 1888
4, 46092, Pitch_bend_c, 1, 2048
4, 46093, Pitch_bend_c, 1, 2240
4, 46094, Pitch_bend_c, 1, 2400
4, 46095, Pitch_bend_c, 1, 2560
4, 46096, Pitch_bend_c, 1, 2752
4, 46097, Pitch_bend_c, 1, 2912
4, 46098, Pitch_bend_c, 1, 3072
4, 46099, Pitch_bend_c, 1, 3264
4, 46100, Pitch_bend_c, 1, 3424
4, 46101, Pitch_bend_c, 1, 3584
4, 46102, Pitch_bend_c, 1, 3776
4, 46103, Pitch_bend_c, 1, 3936
4, 46104, Pitch_bend_c, 1, 4096
4, 46105, Pitch_bend_c, 1, 4288
4, 46106, Pitch_bend_c, 1, 4448
4, 46107, Pitch_bend_c, 1, 4608
4, 46108, Pitch_bend_c, 1, 4800
4, 46109, Pitch_bend_c, 1, 4960
4, 46110, Pitch_bend_c, 1, 5120
4, 46111, Pitch_bend_c, 1, 5312
4, 46112, Pitch_bend_c, 1, 5472
4, 46113, Pitch_bend_c, 1, 5632
4, 46114, Pitch_bend_c, 1, 5824
4, 46115, Pitch_bend_c, 1, 5984
4, 46116, Pitch_bend_c, 1, 6144
4, 46117, Pitch_bend_c, 1, 6336
4, 46118, Pitch_bend_c, 1, 6496
4, 46119, Pitch_bend_c, 1, 6656
4, 46120, Pitch_bend_c, 1, 6848
4, 46121, Pitch_bend_c, 1, 7008
4, 46122, Pitch_bend_c, 1, 7168
4, 46123, Pitch_bend_c, 1, 7360
4, 46124, Pitch_bend_c, 1, 7520
4, 46125, Pitch_bend_c, 1, 7680
4, 46126, Pitch_bend_c, 1, 7872
4, 46127, Pitch_bend_c, 1, 8032
4, 46128, Pitch_bend_c, 1, 8192
4, 47008, Note_on_c, 1, 77, 0
4, 47040, Note_on_c, 1, 76, 60
4, 47134, Note_on_c, 1, 76, 0
4, 47136, Note_on_c, 1, 77, 60
4, 47230, Note_on_c, 1, 77, 0
4, 47232, Note_on_c, 1, 76, 60
4, 47326, Note_on_c, 1, 76, 0
4, 47328, Note_on_c, 1, 74, 60
4, 47422, Note_on_c, 1, 74, 0
4, 47424, Note_on_c, 1, 76, 60
4, 47518, Note_on_c, 1, 76, 0
4, 47520, Note_on_c, 1, 72, 60
4, 47614, Note_on_c, 1, 72, 0
4, 47616, Pitch_bend_c, 1, 0
4, 47616, Note_on_c, 1, 74, 60
4, 47617, Pitch_bend_c, 1, 192
4, 47618, Pitch_bend_c, 1, 352
4, 47619, Pitch_bend_c, 1, 512
4, 47620, Pitch_bend_c, 1, 704
4, 47621, Pitch_bend_c, 1, 864
4, 47622, Pitch_bend_c, 1, 1024
4, 47623, Pitch_bend_c, 1, 1216
4, 47624, Pitch_bend_c, 1, 1376
4, 47625, Pitch_bend_c, 1, 1536
4, 47626, Pitch_bend_c, 1, 1728
4, 47627, Pitch_bend_c, 1, 1888
4, 47628, Pitch_bend_c, 1, 2048
4, 47629, Pitch_bend_c, 1, 2240
4, 47630, Pitch_bend_c, 1, 2400
4, 47631, Pitch_bend_c, 1, 2560
4, 47632, Pitch_bend_c, 1, 2752
4, 47633, Pitch_bend_c, 1, 2912
4, 47634, Pitch_bend_c, 1, 3072
4, 47635, Pitch_bend_c, 1, 3264
4, 47636, Pitch_bend_c, 1, 3424
4, 47637, Pitch_bend_c, 1, 3584
4, 47638, Pitch_bend_c, 1, 3776
4, 47639, Pitch_bend_c, 1, 3936
4, 47640, Pitch_bend_c, 1, 4096
4, 47641, Pitch_bend_c, 1, 4288
4, 47642, Pitch_bend_c, 1, 4448
4, 47643, Pitch_bend_c, 1, 4608
4, 47644, Pitch_bend_c, 1, 4800
4, 47645, Pitch_bend_c, 1, 4960
4, 47646, Pitch_bend_c, 1, 5120
4, 47647, Pitch_bend_c, 1, 5312
4, 47648, Pitch_bend_c, 1, 5472
4, 47649, Pitch_bend_c, 1, 5632
4, 47650, Pitch_bend_c, 1, 5824
4, 47651, Pitch_bend_c, 1, 5984
4, 47652, Pitch_bend_c, 1, 6144
4, 47653, Pitch_bend_c, 1, 6336
4, 47654, Pitch_bend_c, 1, 6496
4, 47655, Pitch_bend_c, 1, 6656
4, 47656, Pitch_bend_c, 1, 6848
4, 47657, Pitch_bend_c, 1, 7008
4, 47658, Pitch_bend_c, 1, 7168
4, 47659, Pitch_bend_c, 1, 7360
4, 47660, Pitch_bend_c, 1, 7520
4, 47661, Pitch_bend_c, 1, 7680
4, 47662, Pitch_bend_c, 1, 7872
4, 47663, Pitch_bend_c, 1, 8032
4, 47664, Pitch_bend_c, 1, 8192
4, 48478, Note_on_c, 1, 74, 0
4, 48480, Note_on_c, 1, 72, 60
4, 48574, Note_on_c, 1, 72, 0
4, 48576, Note_on_c, 1, 70, 60
4, 48670, Note_on_c, 1, 70, 0
4, 48672, Note_on_c, 1, 69, 60
4, 48766, Note_on_c, 1, 69, 0
4, 48768, Note_on_c, 1, 67, 60
4, 48862, Note_on_c, 1, 67, 0
4, 48864, Note_on_c, 1, 69, 60
4, 48958, Note_on_c, 1, 69, 0
4, 48960, Note_on_c, 1, 70, 60
4, 49054, Note_on_c, 1, 70, 0
4, 49056, Note_on_c, 1, 67, 60
4, 49150, Note_on_c, 1, 67, 0
4, 49152, Pitch_bend_c, 1, 0
4, 49152, Note_on_c, 1, 69, 60
4, 49153, Pitch_bend_c, 1, 192
4, 49154, Pitch_bend_c, 1, 352
4, 49155, Pitch_bend_c, 1, 512
4, 49156, Pitch_bend_c, 1, 704
4, 49157, Pitch_bend_c, 1, 864
4, 49158, Pitch_bend_c, 1, 1024
4, 49159, Pitch_bend_c, 1, 1216
4, 49160, Pitch_bend_c, 1, 1376
4, 49161, Pitch_bend_c, 1, 1536
4, 49162, Pitch_bend_c, 1, 1728
4, 49163, Pitch_bend_c, 1, 1888
4, 49164, Pitch_bend_c, 1, 2048
4, 49165, Pitch_bend_c, 1, 2240
4, 49166, Pitch_bend_c, 1, 2400
4, 49167, Pitch_bend_c, 1, 2560
4, 49168, Pitch_bend_c, 1, 2752
4, 49169, Pitch_bend_c, 1, 2912
4, 49170, Pitch_bend_c, 1, 3072
4, 49171, Pitch_bend_c, 1, 3264
4, 49172, Pitch_bend_c, 1, 3424
4, 49173, Pitch_bend_c, 1, 3584
4, 49174, Pitch_bend_c, 1, 3776
4, 49175, Pitch_bend_c, 1, 3936
4, 49176, Pitch_bend_c, 1, 4096
4, 49177, Pitch_bend_c, 1, 4288
4, 49178, Pitch_bend_c, 1, 4448
4, 49179, Pitch_bend_c, 1, 4608
4, 49180, Pitch_bend_c, 1, 4800
4, 49181, Pitch_bend_c, 1, 4960
4, 49182, Pitch_bend_c, 1, 5120
4, 49183, Pitch_bend_c, 1, 5312
4, 49184, Pitch_bend_c, 1, 5472
4, 49185, Pitch_bend_c, 1, 5632
4, 49186, Pitch_bend_c, 1, 5824
4, 49187, Pitch_bend_c, 1, 5984
4, 49188, Pitch_bend_c, 1, 6144
4, 49189, Pitch_bend_c, 1, 6336
4, 49190, Pitch_bend_c, 1, 6496
4, 49191, Pitch_bend_c, 1, 6656
4, 49192, Pitch_bend_c, 1, 6848
4, 49193, Pitch_bend_c, 1, 7008
4, 49194, Pitch_bend_c, 1, 7168
4, 49195, Pitch_bend_c, 1, 7360
4, 49196, Pitch_bend_c, 1, 7520
4, 49197, Pitch_bend_c, 1, 7680
4, 49198, Pitch_bend_c, 1, 7872
4, 49199, Pitch_bend_c, 1, 8032
4, 49200, Pitch_bend_c, 1, 8192
4, 50080, Note_on_c, 1, 69, 0
4, 50112, Note_on_c, 1, 70, 60
4, 50206, Note_on_c, 1, 70, 0
4, 50208, Note_on_c, 1, 69, 60
4, 50302, Note_on_c, 1, 69, 0
4, 50304, Note_on_c, 1, 67, 60
4, 50398, Note_on_c, 1, 67, 0
4, 50400, Note_on_c, 1, 65, 60
4, 50494, Note_on_c, 1, 65, 0
4, 50496, Note_on_c, 1, 67, 60
4, 50590, Note_on_c, 1, 67, 0
4, 50592, Note_on_c, 1, 64, 60
4, 50686, Note_on_c, 1, 64, 0
4, 50688, Note_on_c, 1, 65, 60
4, 50734, Note_on_c, 1, 65, 0
4, 50736, Note_on_c, 1, 67, 60
4, 50782, Note_on_c, 1, 67, 0
4, 50784, Pitch_bend_c, 1, 0
4, 50784, Note_on_c, 1, 69, 60
4, 50785, Pitch_bend_c, 1, 192
4, 50786, Pitch_bend_c, 1, 352
4, 50787, Pitch_bend_c, 1, 512
4, 50788, Pitch_bend_c, 1, 704
4, 50789, Pitch_bend_c, 1, 864
4, 50790, Pitch_bend_c, 1, 1024
4, 50791, Pitch_bend_c, 1, 1216
4, 50792, Pitch_bend_c, 1, 1376
4, 50793, Pitch_bend_c, 1, 1536
4, 50794, Pitch_bend_c, 1, 1728
4, 50795, Pitch_bend_c, 1, 1888
4, 50796, Pitch_bend_c, 1, 2048
4, 50797, Pitch_bend_c, 1, 2240
4, 50798, Pitch_bend_c, 1, 2400
4, 50799, Pitch_bend_c, 1, 2560
4, 50800, Pitch_bend_c, 1, 2752
4, 50801, Pitch_bend_c, 1, 2912
4, 50802, Pitch_bend_c, 1, 3072
4, 50803, Pitch_bend_c, 1, 3264
4, 50804, Pitch_bend_c, 1, 3424
4, 50805, Pitch_bend_c, 1, 3584
4, 50806, Pitch_bend_c, 1, 3776
4, 50807, Pitch_bend_c, 1, 3936
4, 50808, Pitch_bend_c, 1, 4096
4, 50809, Pitch_bend_c, 1, 4288
4, 50810, Pitch_bend_c, 1, 4448
4, 50811, Pitch_bend_c, 1, 4608
4, 50812, Pitch_bend_c, 1, 4800
4, 50813, Pitch_bend_c, 1, 4960
4, 50814, Pitch_bend_c, 1, 5120
4, 50815, Pitch_bend_c, 1, 5312
4, 50816, Pitch_bend_c, 1, 5472
4, 50817, Pitch_bend_c, 1, 5632
4, 50818, Pitch_bend_c, 1, 5824
4, 50819, Pitch_bend_c, 1, 5984
4, 50820, Pitch_bend_c, 1, 6144
4, 50821, Pitch_bend_c, 1, 6336
4, 50822, Pitch_bend_c, 1, 6496
4, 50823, Pitch_bend_c, 1, 6656
4, 50824, Pitch_bend_c, 1, 6848
4, 50825, Pitch_bend_c, 1, 7008
4, 50826, Pitch_bend_c, 1, 7168
4, 50827, Pitch_bend_c, 1, 7360
4, 50828, Pitch_bend_c, 1, 7520
4, 50829, Pitch_bend_c, 1, 7680
4, 50830, Pitch_bend_c, 1, 7872
4, 50831, Pitch_bend_c, 1, 8032
4, 50832, Pitch_bend_c, 1, 8192
4, 51408, Note_on_c, 1, 69, 0
4, 51648, Note_on_c, 1, 70, 60
4, 51742, Note_on_c, 1, 70, 0
4, 51744, Note_on_c, 1, 69, 60
4, 51838, Note_on_c, 1, 69, 0
4, 51840, Note_on_c, 1, 67, 60
4, 51934, Note_on_c, 1, 67, 0
4, 51936, Note_on_c, 1, 65, 60
4, 52030, Note_on_c, 1, 65, 0
4, 52032, Note_on_c, 1, 64, 60
4, 52126, Note_on_c, 1, 64, 0
4, 52128, Note_on_c, 1, 65, 60
4, 52222, Note_on_c, 1, 65, 0
4, 52224, Pitch_bend_c, 1, 0
4, 52224, Note_on_c, 1, 77, 60
4, 52225, Pitch_bend_c, 1, 192
4, 52226, Pitch_bend_c, 1, 352
4, 52227, Pitch_bend_c, 1, 512
4, 52228, Pitch_bend_c, 1, 704
4, 52229, Pitch_bend_c, 1, 864
4, 52230, Pitch_bend_c, 1, 1024
4, 52231, Pitch_bend_c, 1, 1216
4, 52232, Pitch_bend_c, 1, 1376
4, 52233, Pitch_bend_c, 1, 1536
4, 52234, Pitch_bend_c, 1, 1728
4, 52235, Pitch_bend_c, 1, 1888
4, 52236, Pitch_bend_c, 1, 2048
4, 52237, Pitch_bend_c, 1, 2240
4, 52238, Pitch_bend_c, 1, 2400
4, 52239, Pitch_bend_c, 1, 2560
4, 52240, Pitch_bend_c, 1, 2752
4, 52241, Pitch_bend_c, 1, 2912
4, 52242, Pitch_bend_c, 1, 3072
4, 52243, Pitch_bend_c, 1, 3264
4, 52244, Pitch_bend_c, 1, 3424
4, 52245, Pitch_bend_c, 1, 3584
4, 52246, Pitch_bend_c, 1, 3776
4, 52247, Pitch_bend_c, 1, 3936
4, 52248, Pitch_bend_c, 1, 4096
4, 52249, Pitch_bend_c, 1, 4288
4, 52250, Pitch_bend_c, 1, 4448
4, 52251, Pitch_bend_c, 1, 4608
4, 52252, Pitch_bend_c, 1, 4800
4, 52253, Pitch_bend_c, 1, 4960
4, 52254, Pitch_bend_c, 1, 5120
4, 52255, Pitch_bend_c, 1, 5312
4, 52256, Pitch_bend_c, 1, 5472
4, 52257, Pitch_bend_c, 1, 5632
4, 52258, Pitch_bend_c, 1, 5824
4, 52259, Pitch_bend_c, 1, 5984
4, 52260, Pitch_bend_c, 1, 6144
4, 52261, Pitch_bend_c, 1, 6336
4, 52262, Pitch_bend_c, 1, 6496
4, 52263, Pitch_bend_c, 1, 6656
4, 52264, Pitch_bend_c, 1, 6848
4, 52265, Pitch_bend_c, 1, 7008
4, 52266, Pitch_bend_c, 1, 7168
4, 52267, Pitch_bend_c, 1, 7360
4, 52268, Pitch_bend_c, 1, 7520
4, 52269, Pitch_bend_c, 1, 7680
4, 52270, Pitch_bend_c, 1, 7872
4, 52271, Pitch_bend_c, 1, 8032
4, 52272, Pitch_bend_c, 1, 8192
4, 53152, Note_on_c, 1, 77, 0
4, 53184, Note_on_c, 1, 76, 60
4, 53278, Note_on_c, 1, 76, 0
4, 53280, Note_on_c, 1, 77, 60
4, 53374, Note_on_c, 1, 77, 0
4, 53376, Note_on_c, 1, 76, 60
4, 53470, Note_on_c, 1, 76, 0
4, 53472, Note_on_c, 1, 74, 60
4, 53566, Note_on_c, 1, 74, 0
4, 53568, Note_on_c, 1, 76, 60
4, 53662, Note_on_c, 1, 76, 0
4, 53664, Note_on_c, 1, 72, 60
4, 53758, Note_on_c, 1, 72, 0
4, 53760, Control_c, 1, 7, 127
4, 53760, Pitch_bend_c, 1, 0
4, 53760, Note_on_c, 1, 74, 60
4, 53761, Pitch_bend_c, 1, 192
4, 53762, Pitch_bend_c, 1, 352
4, 53763, Pitch_bend_c, 1, 512
4, 53764, Pitch_bend_c, 1, 704
4, 53765, Pitch_bend_c, 1, 864
4, 53766, Pitch_bend_c, 1, 1024
4, 53767, Pitch_bend_c, 1, 1216
4, 53768, Pitch_bend_c, 1, 1376
4, 53769, Pitch_bend_c, 1, 1536
4, 53770, Pitch_bend_c, 1, 1728
4, 53771, Pitch_bend_c, 1, 1888
4, 53772, Pitch_bend_c, 1, 2048
4, 53773, Pitch_bend_c, 1, 2240
4, 53774, Pitch_bend_c, 1, 2400
4, 53775, Pitch_bend_c, 1, 2560
4, 53776, Pitch_bend_c, 1, 2752
4, 53777, Pitch_bend_c, 1, 2912
4, 53778, Pitch_bend_c, 1, 3072
4, 53779, Pitch_bend_c, 1, 3264
4, 53780, Pitch_bend_c, 1, 3424
4, 53781, Pitch_bend_c, 1, 3584
4, 53782, Pitch_bend_c, 1, 3776
4, 53783, Pitch_bend_c, 1, 3936
4, 53784, Pitch_bend_c, 1, 4096
4, 53785, Pitch_bend_c, 1, 4288
4, 53786, Pitch_bend_c, 1, 4448
4, 53787, Pitch_bend_c, 1, 4608
4, 53788, Pitch_bend_c, 1, 4800
4, 53789, Pitch_bend_c, 1, 4960
4, 53790, Pitch_bend_c, 1, 5120
4, 53791, Pitch_bend_c, 1, 5312
4, 53792, Pitch_bend_c, 1, 5472
4, 53793, Pitch_bend_c, 1, 5632
4, 53794, Control_c, 1, 7, 126
4, 53794, Pitch_bend_c, 1, 5824
4, 53795, Pitch_bend_c, 1, 5984
4, 53796, Pitch_bend_c, 1, 6144
4, 53797, Pitch_bend_c, 1, 6336
4, 53798, Pitch_bend_c, 1, 6496
4, 53799, Pitch_bend_c, 1, 6656
4, 53800, Pitch_bend_c, 1, 6848
4, 53801, Pitch_bend_c, 1, 7008
4, 53802, Pitch_bend_c, 1, 7168
4, 53803, Pitch_bend_c, 1, 7360
4, 53804, Pitch_bend_c, 1, 7520
4, 53805, Pitch_bend_c, 1, 7680
4, 53806, Pitch_bend_c, 1, 7872
4, 53807, Pitch_bend_c, 1, 8032
4, 53808, Pitch_bend_c, 1, 8192
4, 53829, Control_c, 1, 7, 125
4, 53864, Control_c, 1, 7, 124
4, 53899, Control_c, 1, 7, 123
4, 53934, Control_c, 1, 7, 122
4, 53969, Control_c, 1, 7, 121
4, 54004, Control_c, 1, 7, 120
4, 54039, Control_c, 1, 7, 119
4, 54074, Control_c, 1, 7, 118
4, 54109, Control_c, 1, 7, 117
4, 54144, Control_c, 1, 7, 116
4, 54178, Control_c, 1, 7, 115
4, 54213, Control_c, 1, 7, 114
4, 54248, Control_c, 1, 7, 113
4, 54283, Control_c, 1, 7, 112
4, 54318, Control_c, 1, 7, 111
4, 54353, Control_c, 1, 7, 110
4, 54388, Control_c, 1, 7, 109
4, 54423, Control_c, 1, 7, 108
4, 54458, Control_c, 1, 7, 107
4, 54493, Control_c, 1, 7, 106
4, 54528, Control_c, 1, 7, 105
4, 54582, Control_c, 1, 7, 104
4, 54622, Note_on_c, 1, 74, 0
4, 54624, Note_on_c, 1, 72, 60
4, 54637, Control_c, 1, 7, 103
4, 54692, Control_c, 1, 7, 102
4, 54718, Note_on_c, 1, 72, 0
4, 54720, Note_on_c, 1, 70, 60
4, 54747, Control_c, 1, 7, 101
4, 54802, Control_c, 1, 7, 100
4, 54814, Note_on_c, 1, 70, 0
4, 54816, Note_on_c, 1, 69, 60
4, 54857, Control_c, 1, 7, 99
4, 54910, Note_on_c, 1, 69, 0
4, 54912, Control_c, 1, 7, 98
4, 54912, Note_on_c, 1, 67, 60
4, 54966, Control_c, 1, 7, 97
4, 55006, Note_on_c, 1, 67, 0
4, 55008, Note_on_c, 1, 69, 60
4, 55021, Control_c, 1, 7, 96
4, 55076, Control_c, 1, 7, 95
4, 55102, Note_on_c, 1, 69, 0
4, 55104, Note_on_c, 1, 70, 60
4, 55131, Control_c, 1, 7, 94
4, 55186, Control_c, 1, 7, 93
4, 55198, Note_on_c, 1, 70, 0
4, 55200, Note_on_c, 1, 67, 60
4, 55241, Control_c, 1, 7, 92
4, 55294, Note_on_c, 1, 67, 0
4, 55296, Control_c, 1, 7, 91
4, 55296, Pitch_bend_c, 1, 0
4, 55296, Note_on_c, 1, 69, 60
4, 55297, Pitch_bend_c, 1, 192
4, 55298, Pitch_bend_c, 1, 352
4, 55299, Pitch_bend_c, 1, 512
4, 55300, Pitch_bend_c, 1, 704
4, 55301, Pitch_bend_c, 1, 864
4, 55302, Pitch_bend_c, 1, 1024
4, 55303, Pitch_bend_c, 1, 1216
4, 55304, Pitch_bend_c, 1, 1376
4, 55305, Pitch_bend_c, 1, 1536
4, 55306, Pitch_bend_c, 1, 1728
4, 55307, Pitch_bend_c, 1, 1888
4, 55308, Pitch_bend_c, 1, 2048
4, 55309, Pitch_bend_c, 1, 2240
4, 55310, Pitch_bend_c, 1, 2400
4, 55311, Pitch_bend_c, 1, 2560
4, 55312, Pitch_bend_c, 1, 2752
4, 55313, Pitch_bend_c, 1, 2912
4, 55314, Pitch_bend_c, 1, 3072
4, 55315, Pitch_bend_c, 1, 3264
4, 55316, Pitch_bend_c, 1, 3424
4, 55317, Pitch_bend_c, 1, 3584
4, 55318, Pitch_bend_c, 1, 3776
4, 55319, Pitch_bend_c, 1, 3936
4, 55320, Pitch_bend_c, 1, 4096
4, 55321, Pitch_bend_c, 1, 4288
4, 55322, Pitch_bend_c, 1, 4448
4, 55323, Pitch_bend_c, 1, 4608
4, 55324, Pitch_bend_c, 1, 4800
4, 55325, Pitch_bend_c, 1, 4960
4, 55326, Pitch_bend_c, 1, 5120
4, 55327, Pitch_bend_c, 1, 5312
4, 55328, Pitch_bend_c, 1, 5472
4, 55329, Pitch_bend_c, 1, 5632
4, 55330, Pitch_bend_c, 1, 5824
4, 55331, Pitch_bend_c, 1, 5984
4, 55332, Pitch_bend_c, 1, 6144
4, 55333, Pitch_bend_c, 1, 6336
4, 55334, Pitch_bend_c, 1, 6496
4, 55335, Pitch_bend_c, 1, 6656
4, 55336, Pitch_bend_c, 1, 6848
4, 55337, Pitch_bend_c, 1, 7008
4, 55338, Pitch_bend_c, 1, 7168
4, 55339, Pitch_bend_c, 1, 7360
4, 55340, Pitch_bend_c, 1, 7520
4, 55341, Pitch_bend_c, 1, 7680
4, 55342, Pitch_bend_c, 1, 7872
4, 55343, Pitch_bend_c, 1, 8032
4, 55344, Pitch_bend_c, 1, 8192
4, 55350, Control_c, 1, 7, 90
4, 55405, Control_c, 1, 7, 89
4, 55460, Control_c, 1, 7, 88
4, 55515, Control_c, 1, 7, 87
4, 55570, Control_c, 1, 7, 86
4, 55625, Control_c, 1, 7, 85
4, 55680, Control_c, 1, 7, 84
4, 55734, Control_c, 1, 7, 83
4, 55789, Control_c, 1, 7, 82
4, 55844, Control_c, 1, 7, 81
4, 55899, Control_c, 1, 7, 80
4, 55954, Control_c, 1, 7, 79
4, 56009, Control_c, 1, 7, 78
4, 56064, Control_c, 1, 7, 77
4, 56064, Control_c, 1, 7, 64
4, 56112, Control_c, 1, 7, 63
4, 56160, Control_c, 1, 7, 62
4, 56208, Control_c, 1, 7, 61
4, 56224, Note_on_c, 1, 69, 0
4, 56256, Control_c, 1, 7, 60
4, 56256, Note_on_c, 1, 70, 60
4, 56304, Control_c, 1, 7, 59
4, 56350, Note_on_c, 1, 70, 0
4, 56352, Control_c, 1, 7, 58
4, 56352, Note_on_c, 1, 69, 60
4, 56400, Control_c, 1, 7, 57
4, 56446, Note_on_c, 1, 69, 0
4, 56448, Control_c, 1, 7, 56
4, 56448, Note_on_c, 1, 67, 60
4, 56496, Control_c, 1, 7, 55
4, 56542, Note_on_c, 1, 67, 0
4, 56544, Control_c, 1, 7, 54
4, 56544, Note_on_c, 1, 65, 60
4, 56592, Control_c, 1, 7, 53
4, 56638, Note_on_c, 1, 65, 0
4, 56640, Control_c, 1, 7, 52
4, 56640, Note_on_c, 1, 67, 60
4, 56688, Control_c, 1, 7, 51
4, 56734, Note_on_c, 1, 67, 0
4, 56736, Control_c, 1, 7, 50
4, 56736, Note_on_c, 1, 64, 60
4, 56784, Control_c, 1, 7, 49
4, 56830, Note_on_c, 1, 64, 0
4, 56832, Control_c, 1, 7, 48
4, 56832, Note_on_c, 1, 65, 60
4, 56878, Note_on_c, 1, 65, 0
4, 56880, Note_on_c, 1, 67, 60
4, 56896, Control_c, 1, 7, 47
4, 56926, Note_on_c, 1, 67, 0
4, 56928, Pitch_bend_c, 1, 0
4, 56928, Note_on_c, 1, 69, 60
4, 56929, Pitch_bend_c, 1, 192
4, 56930, Pitch_bend_c, 1, 352
4, 56931, Pitch_bend_c, 1, 512
4, 56932, Pitch_bend_c, 1, 704
4, 56933, Pitch_bend_c, 1, 864
4, 56934, Pitch_bend_c, 1, 1024
4, 56935, Pitch_bend_c, 1, 1216
4, 56936, Pitch_bend_c, 1, 1376
4, 56937, Pitch_bend_c, 1, 1536
4, 56938, Pitch_bend_c, 1, 1728
4, 56939, Pitch_bend_c, 1, 1888
4, 56940, Pitch_bend_c, 1, 2048
4, 56941, Pitch_bend_c, 1, 2240
4, 56942, Pitch_bend_c, 1, 2400
4, 56943, Pitch_bend_c, 1, 2560
4, 56944, Pitch_bend_c, 1, 2752
4, 56945, Pitch_bend_c, 1, 2912
4, 56946, Pitch_bend_c, 1, 3072
4, 56947, Pitch_bend_c, 1, 3264
4, 56948, Pitch_bend_c, 1, 3424
4, 56949, Pitch_bend_c, 1, 3584
4, 56950, Pitch_bend_c, 1, 3776
4, 56951, Pitch_bend_c, 1, 3936
4, 56952, Pitch_bend_c, 1, 4096
4, 56953, Pitch_bend_c, 1, 4288
4, 56954, Pitch_bend_c, 1, 4448
4, 56955, Pitch_bend_c, 1, 4608
4, 56956, Pitch_bend_c, 1, 4800
4, 56957, Pitch_bend_c, 1, 4960
4, 56958, Pitch_bend_c, 1, 5120
4, 56959, Pitch_bend_c, 1, 5312
4, 56960, Control_c, 1, 7, 46
4, 56960, Pitch_bend_c, 1, 5472
4, 56961, Pitch_bend_c, 1, 5632
4, 56962, Pitch_bend_c, 1, 5824
4, 56963, Pitch_bend_c, 1, 5984
4, 56964, Pitch_bend_c, 1, 6144
4, 56965, Pitch_bend_c, 1, 6336
4, 56966, Pitch_bend_c, 1, 6496
4, 56967, Pitch_bend_c, 1, 6656
4, 56968, Pitch_bend_c, 1, 6848
4, 56969, Pitch_bend_c, 1, 7008
4, 56970, Pitch_bend_c, 1, 7168
4, 56971, Pitch_bend_c, 1, 7360
4, 56972, Pitch_bend_c, 1, 7520
4, 56973, Pitch_bend_c, 1, 7680
4, 56974, Pitch_bend_c, 1, 7872
4, 56975, Pitch_bend_c, 1, 8032
4, 56976, Pitch_bend_c, 1, 8192
4, 57024, Control_c, 1, 7, 45
4, 57088, Control_c, 1, 7, 44
4, 57152, Control_c, 1, 7, 43
4, 57216, Control_c, 1, 7, 42
4, 57280, Control_c, 1, 7, 41
4, 57344, Control_c, 1, 7, 40
4, 57408, Control_c, 1, 7, 39
4, 57472, Control_c, 1, 7, 38
4, 57536, Control_c, 1, 7, 37
4, 57552, Note_on_c, 1, 69, 0
4, 57600, Control_c, 1, 7, 36
4, 57651, Control_c, 1, 7, 35
4, 57702, Control_c, 1, 7, 34
4, 57753, Control_c, 1, 7, 33
4, 57792, Note_on_c, 1, 70, 60
4, 57804, Control_c, 1, 7, 32
4, 57856, Control_c, 1, 7, 31
4, 57886, Note_on_c, 1, 70, 0
4, 57888, Note_on_c, 1, 69, 60
4, 57907, Control_c, 1, 7, 30
4, 57958, Control_c, 1, 7, 29
4, 57982, Note_on_c, 1, 69, 0
4, 57984, Note_on_c, 1, 67, 60
4, 58009, Control_c, 1, 7, 28
4, 58060, Control_c, 1, 7, 27
4, 58078, Note_on_c, 1, 67, 0
4, 58080, Note_on_c, 1, 65, 60
4, 58112, Control_c, 1, 7, 26
4, 58163, Control_c, 1, 7, 25
4, 58174, Note_on_c, 1, 65, 0
4, 58176, Note_on_c, 1, 64, 60
4, 58214, Control_c, 1, 7, 24
4, 58265, Control_c, 1, 7, 23
4, 58270, Note_on_c, 1, 64, 0
4, 58272, Note_on_c, 1, 65, 60
4, 58316, Control_c, 1, 7, 22
4, 58366, Note_on_c, 1, 65, 0
4, 58368, Control_c, 1, 7, 21
4, 58368, Note_on_c, 1, 77, 60
4, 59088, Note_on_c, 1, 77, 0
4, 59088, End_track
5, 0, Start_track
5, 0, MIDI_port, 0
5, 0, Title_t, "Flute"
5, 0, Program_c, 2, 73
5, 0, Control_c, 2, 7, 127
5, 0, Control_c, 2, 10, 64
5, 6144, Note_on_c, 2, 69, 60
5, 6166, Note_on_c, 2, 69, 0
5, 6168, Note_on_c, 2, 77, 60
5, 7072, Note_on_c, 2, 77, 0
5, 7104, Note_on_c, 2, 76, 60
5, 7198, Note_on_c, 2, 76, 0
5, 7200, Note_on_c, 2, 77, 60
5, 7294, Note_on_c, 2, 77, 0
5, 7296, Note_on_c, 2, 76, 60
5, 7390, Note_on_c, 2, 76, 0
5, 7392, Note_on_c, 2, 74, 60
5, 7486, Note_on_c, 2, 74, 0
5, 7488, Note_on_c, 2, 76, 60
5, 7582, Note_on_c, 2, 76, 0
5, 7584, Note_on_c, 2, 72, 60
5, 7678, Note_on_c, 2, 72, 0
5, 7680, Note_on_c, 2, 70, 60
5, 7702, Note_on_c, 2, 70, 0
5, 7704, Note_on_c, 2, 74, 60
5, 8542, Note_on_c, 2, 74, 0
5, 8544, Note_on_c, 2, 72, 60
5, 8638, Note_on_c, 2, 72, 0
5, 8640, Note_on_c, 2, 70, 60
5, 8734, Note_on_c, 2, 70, 0
5, 8736, Note_on_c, 2, 69, 60
5, 8830, Note_on_c, 2, 69, 0
5, 8832, Note_on_c, 2, 67, 60
5, 8926, Note_on_c, 2, 67, 0
5, 8928, Note_on_c, 2, 69, 60
5, 9022, Note_on_c, 2, 69, 0
5, 9024, Note_on_c, 2, 70, 60
5, 9118, Note_on_c, 2, 70, 0
5, 9120, Note_on_c, 2, 67, 60
5, 9214, Note_on_c, 2, 67, 0
5, 9216, Note_on_c, 2, 65, 60
5, 9238, Note_on_c, 2, 65, 0
5, 9240, Note_on_c, 2, 69, 60
5, 10144, Note_on_c, 2, 69, 0
5, 10176, Note_on_c, 2, 70, 60
5, 10270, Note_on_c, 2, 70, 0
5, 10272, Note_on_c, 2, 69, 60
5, 10366, Note_on_c, 2, 69, 0
5, 10368, Note_on_c, 2, 67, 60
5, 10462, Note_on_c, 2, 67, 0
5, 10464, Note_on_c, 2, 65, 60
5, 10558, Note_on_c, 2, 65, 0
5, 10560, Note_on_c, 2, 67, 60
5, 10654, Note_on_c, 2, 67, 0
5, 10656, Note_on_c, 2, 64, 60
5, 10750, Note_on_c, 2, 64, 0
5, 10752, Note_on_c, 2, 65, 60
5, 10798, Note_on_c, 2, 65, 0
5, 10800, Note_on_c, 2, 67, 60
5, 10846, Note_on_c, 2, 67, 0
5, 10848, Note_on_c, 2, 69, 60
5, 11472, Note_on_c, 2, 69, 0
5, 11712, Note_on_c, 2, 70, 60
5, 11806, Note_on_c, 2, 70, 0
5, 11808, Note_on_c, 2, 69, 60
5, 11902, Note_on_c, 2, 69, 0
5, 11904, Note_on_c, 2, 67, 60
5, 11998, Note_on_c, 2, 67, 0
5, 12000, Note_on_c, 2, 65, 60
5, 12094, Note_on_c, 2, 65, 0
5, 12096, Note_on_c, 2, 64, 60
5, 12190, Note_on_c, 2, 64, 0
5, 12192, Note_on_c, 2, 65, 60
5, 12286, Note_on_c, 2, 65, 0
5, 12288, Note_on_c, 2, 65, 60
5, 13216, Note_on_c, 2, 65, 0
5, 13248, Note_on_c, 2, 69, 60
5, 13408, Note_on_c, 2, 69, 0
5, 13440, Note_on_c, 2, 69, 60
5, 13600, Note_on_c, 2, 69, 0
5, 13632, Note_on_c, 2, 72, 60
5, 13792, Note_on_c, 2, 72, 0
5, 13824, Note_on_c, 2, 70, 60
5, 13824, Note_on_c, 2, 74, 60
5, 14350, Note_on_c, 2, 70, 0
5, 14400, Note_on_c, 2, 70, 60
5, 14446, Note_on_c, 2, 70, 0
5, 14448, Note_on_c, 2, 69, 60
5, 14494, Note_on_c, 2, 69, 0
5, 14496, Note_on_c, 2, 67, 60
5, 14542, Note_on_c, 2, 67, 0
5, 14544, Note_on_c, 2, 65, 60
5, 14590, Note_on_c, 2, 65, 0
5, 14592, Note_on_c, 2, 67, 60
5, 14686, Note_on_c, 2, 74, 0
5, 14688, Note_on_c, 2, 72, 60
5, 14782, Note_on_c, 2, 72, 0
5, 14784, Note_on_c, 2, 74, 60
5, 14878, Note_on_c, 2, 74, 0
5, 14880, Note_on_c, 2, 75, 60
5, 14928, Note_on_c, 2, 67, 0
5, 14974, Note_on_c, 2, 75, 0
5, 14976, Note_on_c, 2, 69, 60
5, 14976, Note_on_c, 2, 72, 60
5, 15070, Note_on_c, 2, 69, 0
5, 15070, Note_on_c, 2, 72, 0
5, 15072, Note_on_c, 2, 67, 60
5, 15072, Note_on_c, 2, 70, 60
5, 15166, Note_on_c, 2, 67, 0
5, 15166, Note_on_c, 2, 70, 0
5, 15168, Note_on_c, 2, 69, 60
5, 15168, Note_on_c, 2, 72, 60
5, 15262, Note_on_c, 2, 69, 0
5, 15262, Note_on_c, 2, 72, 0
5, 15264, Note_on_c, 2, 65, 60
5, 15264, Note_on_c, 2, 69, 60
5, 15358, Note_on_c, 2, 65, 0
5, 15358, Note_on_c, 2, 69, 0
5, 15360, Note_on_c, 2, 69, 60
5, 15382, Note_on_c, 2, 69, 0
5, 15384, Note_on_c, 2, 74, 60
5, 15384, Note_on_c, 2, 77, 60
5, 15838, Note_on_c, 2, 74, 0
5, 15840, Note_on_c, 2, 74, 60
5, 15886, Note_on_c, 2, 74, 0
5, 15888, Note_on_c, 2, 75, 60
5, 15934, Note_on_c, 2, 75, 0
5, 15936, Note_on_c, 2, 74, 60
5, 15982, Note_on_c, 2, 74, 0
5, 15984, Note_on_c, 2, 72, 60
5, 16030, Note_on_c, 2, 72, 0
5, 16032, Note_on_c, 2, 70, 60
5, 16078, Note_on_c, 2, 70, 0
5, 16080, Note_on_c, 2, 69, 60
5, 16126, Note_on_c, 2, 69, 0
5, 16128, Note_on_c, 2, 70, 60
5, 16288, Note_on_c, 2, 70, 0
5, 16288, Note_on_c, 2, 77, 0
5, 16320, Note_on_c, 2, 72, 60
5, 16320, Note_on_c, 2, 75, 60
5, 16414, Note_on_c, 2, 72, 0
5, 16414, Note_on_c, 2, 75, 0
5, 16416, Note_on_c, 2, 74, 60
5, 16416, Note_on_c, 2, 77, 60
5, 16462, Note_on_c, 2, 74, 0
5, 16462, Note_on_c, 2, 77, 0
5, 16464, Note_on_c, 2, 75, 60
5, 16464, Note_on_c, 2, 79, 60
5, 16510, Note_on_c, 2, 75, 0
5, 16510, Note_on_c, 2, 79, 0
5, 16512, Note_on_c, 2, 72, 60
5, 16512, Note_on_c, 2, 75, 60
5, 16606, Note_on_c, 2, 72, 0
5, 16606, Note_on_c, 2, 75, 0
5, 16608, Note_on_c, 2, 70, 60
5, 16608, Note_on_c, 2, 74, 60
5, 16702, Note_on_c, 2, 70, 0
5, 16702, Note_on_c, 2, 74, 0
5, 16704, Note_on_c, 2, 72, 60
5, 16704, Note_on_c, 2, 75, 60
5, 16798, Note_on_c, 2, 72, 0
5, 16798, Note_on_c, 2, 75, 0
5, 16800, Note_on_c, 2, 69, 60
5, 16800, Note_on_c, 2, 72, 60
5, 16894, Note_on_c, 2, 69, 0
5, 16894, Note_on_c, 2, 72, 0
5, 16896, Note_on_c, 2, 67, 60
5, 16896, Note_on_c, 2, 70, 60
5, 16942, Note_on_c, 2, 67, 0
5, 16942, Note_on_c, 2, 70, 0
5, 16944, Note_on_c, 2, 69, 60
5, 16944, Note_on_c, 2, 72, 60
5, 16990, Note_on_c, 2, 69, 0
5, 16990, Note_on_c, 2, 72, 0
5, 16992, Note_on_c, 2, 70, 60
5, 16992, Note_on_c, 2, 74, 60
5, 17824, Note_on_c, 2, 70, 0
5, 17824, Note_on_c, 2, 74, 0
5, 17856, Note_on_c, 2, 72, 60
5, 17950, Note_on_c, 2, 72, 0
5, 17952, Note_on_c, 2, 74, 60
5, 17998, Note_on_c, 2, 74, 0
5, 18000, Note_on_c, 2, 75, 60
5, 18046, Note_on_c, 2, 75, 0
5, 18048, Note_on_c, 2, 69, 60
5, 18048, Note_on_c, 2, 72, 60
5, 18142, Note_on_c, 2, 69, 0
5, 18142, Note_on_c, 2, 72, 0
5, 18144, Note_on_c, 2, 67, 60
5, 18144, Note_on_c, 2, 70, 60
5, 18238, Note_on_c, 2, 67, 0
5, 18238, Note_on_c, 2, 70, 0
5, 18240, Note_on_c, 2, 69, 60
5, 18240, Note_on_c, 2, 72, 60
5, 18334, Note_on_c, 2, 69, 0
5, 18334, Note_on_c, 2, 72, 0
5, 18336, Note_on_c, 2, 66, 60
5, 18336, Note_on_c, 2, 69, 60
5, 18430, Note_on_c, 2, 66, 0
5, 18430, Note_on_c, 2, 69, 0
5, 18432, Note_on_c, 2, 67, 60
5, 18432, Note_on_c, 2, 70, 60
5, 18478, Note_on_c, 2, 67, 0
5, 18478, Note_on_c, 2, 70, 0
5, 18480, Note_on_c, 2, 69, 60
5, 18480, Note_on_c, 2, 72, 60
5, 18526, Note_on_c, 2, 69, 0
5, 18526, Note_on_c, 2, 72, 0
5, 18528, Note_on_c, 2, 70, 60
5, 18528, Note_on_c, 2, 74, 60
5, 19360, Note_on_c, 2, 70, 0
5, 19360, Note_on_c, 2, 74, 0
5, 19392, Note_on_c, 2, 72, 60
5, 19392, Note_on_c, 2, 75, 60
5, 19486, Note_on_c, 2, 72, 0
5, 19486, Note_on_c, 2, 75, 0
5, 19488, Note_on_c, 2, 74, 60
5, 19488, Note_on_c, 2, 77, 60
5, 19534, Note_on_c, 2, 74, 0
5, 19534, Note_on_c, 2, 77, 0
5, 19536, Note_on_c, 2, 75, 60
5, 19536, Note_on_c, 2, 79, 60
5, 19582, Note_on_c, 2, 75, 0
5, 19582, Note_on_c, 2, 79, 0
5, 19584, Note_on_c, 2, 72, 60
5, 19584, Note_on_c, 2, 75, 60
5, 19678, Note_on_c, 2, 72, 0
5, 19678, Note_on_c, 2, 75, 0
5, 19680, Note_on_c, 2, 70, 60
5, 19680, Note_on_c, 2, 74, 60
5, 19774, Note_on_c, 2, 70, 0
5, 19774, Note_on_c, 2, 74, 0
5, 19776, Note_on_c, 2, 72, 60
5, 19776, Note_on_c, 2, 75, 60
5, 19870, Note_on_c, 2, 72, 0
5, 19870, Note_on_c, 2, 75, 0
5, 19872, Note_on_c, 2, 69, 60
5, 19872, Note_on_c, 2, 72, 60
5, 19966, Note_on_c, 2, 69, 0
5, 19966, Note_on_c, 2, 72, 0
5, 19968, Note_on_c, 2, 70, 60
5, 19968, Note_on_c, 2, 74, 60
5, 20062, Note_on_c, 2, 70, 0
5, 20062, Note_on_c, 2, 74, 0
5, 20064, Note_on_c, 2, 72, 60
5, 20064, Note_on_c, 2, 75, 60
5, 20158, Note_on_c, 2, 72, 0
5, 20158, Note_on_c, 2, 75, 0
5, 20160, Note_on_c, 2, 74, 60
5, 20160, Note_on_c, 2, 77, 60
5, 20254, Note_on_c, 2, 74, 0
5, 20254, Note_on_c, 2, 77, 0
5, 20256, Note_on_c, 2, 70, 60
5, 20256, Note_on_c, 2, 74, 60
5, 20350, Note_on_c, 2, 70, 0
5, 20350, Note_on_c, 2, 74, 0
5, 20352, Note_on_c, 2, 69, 60
5, 20352, Note_on_c, 2, 72, 60
5, 20446, Note_on_c, 2, 69, 0
5, 20446, Note_on_c, 2, 72, 0
5, 20448, Note_on_c, 2, 70, 60
5, 20448, Note_on_c, 2, 74, 60
5, 20542, Note_on_c, 2, 70, 0
5, 20542, Note_on_c, 2, 74, 0
5, 20544, Note_on_c, 2, 72, 60
5, 20544, Note_on_c, 2, 75, 60
5, 20638, Note_on_c, 2, 72, 0
5, 20638, Note_on_c, 2, 75, 0
5, 20640, Note_on_c, 2, 69, 60
5, 20640, Note_on_c, 2, 72, 60
5, 20734, Note_on_c, 2, 69, 0
5, 20734, Note_on_c, 2, 72, 0
5, 20736, Note_on_c, 2, 70, 60
5, 20736, Note_on_c, 2, 74, 60
5, 20830, Note_on_c, 2, 70, 0
5, 20830, Note_on_c, 2, 74, 0
5, 20832, Note_on_c, 2, 69, 60
5, 20832, Note_on_c, 2, 72, 60
5, 20926, Note_on_c, 2, 69, 0
5, 20926, Note_on_c, 2, 72, 0
5, 20928, Note_on_c, 2, 67, 60
5, 20928, Note_on_c, 2, 70, 60
5, 21022, Note_on_c, 2, 67, 0
5, 21022, Note_on_c, 2, 70, 0
5, 21024, Note_on_c, 2, 65, 60
5, 21024, Note_on_c, 2, 69, 60
5, 21118, Note_on_c, 2, 65, 0
5, 21118, Note_on_c, 2, 69, 0
5, 21120, Note_on_c, 2, 64, 60
5, 21120, Note_on_c, 2, 67, 60
5, 21456, Note_on_c, 2, 64, 0
5, 21456, Note_on_c, 2, 67, 0
5, 21504, Note_on_c, 2, 69, 60
5, 21526, Note_on_c, 2, 69, 0
5, 21528, Note_on_c, 2, 65, 60
5, 21528, Note_on_c, 2, 77, 60
5, 22432, Note_on_c, 2, 65, 0
5, 22432, Note_on_c, 2, 77, 0
5, 24864, Note_on_c, 2, 72, 60
5, 24864, Note_on_c, 2, 81, 60
5, 24958, Note_on_c, 2, 72, 0
5, 24958, Note_on_c, 2, 81, 0
5, 24960, Note_on_c, 2, 81, 60
5, 24960, Note_on_c, 2, 84, 60
5, 25054, Note_on_c, 2, 81, 0
5, 25054, Note_on_c, 2, 84, 0
5, 25056, Note_on_c, 2, 82, 60
5, 25056, Note_on_c, 2, 86, 60
5, 25150, Note_on_c, 2, 82, 0
5, 25150, Note_on_c, 2, 86, 0
5, 25152, Note_on_c, 2, 81, 60
5, 25152, Note_on_c, 2, 84, 60
5, 25246, Note_on_c, 2, 81, 0
5, 25246, Note_on_c, 2, 84, 0
5, 25248, Note_on_c, 2, 79, 60
5, 25248, Note_on_c, 2, 82, 60
5, 25342, Note_on_c, 2, 79, 0
5, 25342, Note_on_c, 2, 82, 0
5, 25344, Note_on_c, 2, 77, 60
5, 25344, Note_on_c, 2, 81, 60
5, 25600, Note_on_c, 2, 81, 0
5, 25680, Note_on_c, 2, 77, 0
5, 26400, Note_on_c, 2, 69, 60
5, 26400, Note_on_c, 2, 77, 60
5, 26494, Note_on_c, 2, 69, 0
5, 26494, Note_on_c, 2, 77, 0
5, 26496, Note_on_c, 2, 77, 60
5, 26496, Note_on_c, 2, 81, 60
5, 26590, Note_on_c, 2, 77, 0
5, 26590, Note_on_c, 2, 81, 0
5, 26592, Note_on_c, 2, 79, 60
5, 26592, Note_on_c, 2, 82, 60
5, 26686, Note_on_c, 2, 79, 0
5, 26686, Note_on_c, 2, 82, 0
5, 26688, Note_on_c, 2, 77, 60
5, 26688, Note_on_c, 2, 81, 60
5, 26782, Note_on_c, 2, 77, 0
5, 26782, Note_on_c, 2, 81, 0
5, 26784, Note_on_c, 2, 76, 60
5, 26784, Note_on_c, 2, 79, 60
5, 26878, Note_on_c, 2, 76, 0
5, 26878, Note_on_c, 2, 79, 0
5, 26880, Note_on_c, 2, 74, 60
5, 26880, Note_on_c, 2, 77, 60
5, 27216, Note_on_c, 2, 74, 0
5, 27216, Note_on_c, 2, 77, 0
5, 27264, Note_on_c, 2, 76, 60
5, 27264, Note_on_c, 2, 79, 60
5, 27600, Note_on_c, 2, 76, 0
5, 27600, Note_on_c, 2, 79, 0
5, 27648, Note_on_c, 2, 77, 60
5, 27648, Note_on_c, 2, 81, 60
5, 28368, Note_on_c, 2, 77, 0
5, 28368, Note_on_c, 2, 81, 0
5, 35712, Note_on_c, 2, 77, 60
5, 35758, Note_on_c, 2, 77, 0
5, 35760, Note_on_c, 2, 75, 60
5, 35806, Note_on_c, 2, 75, 0
5, 35808, Note_on_c, 2, 74, 60
5, 35854, Note_on_c, 2, 74, 0
5, 35904, Note_on_c, 2, 74, 60
5, 35950, Note_on_c, 2, 74, 0
5, 35952, Note_on_c, 2, 72, 60
5, 35998, Note_on_c, 2, 72, 0
5, 36000, Note_on_c, 2, 70, 60
5, 36094, Note_on_c, 2, 70, 0
5, 36480, Note_on_c, 2, 81, 60
5, 36526, Note_on_c, 2, 81, 0
5, 36528, Note_on_c, 2, 79, 60
5, 36574, Note_on_c, 2, 79, 0
5, 36576, Note_on_c, 2, 77, 60
5, 36622, Note_on_c, 2, 77, 0
5, 36672, Note_on_c, 2, 77, 60
5, 36718, Note_on_c, 2, 77, 0
5, 36720, Note_on_c, 2, 76, 60
5, 36766, Note_on_c, 2, 76, 0
5, 36768, Note_on_c, 2, 74, 60
5, 36862, Note_on_c, 2, 74, 0
5, 37248, Note_on_c, 2, 86, 60
5, 37294, Note_on_c, 2, 86, 0
5, 37296, Note_on_c, 2, 87, 60
5, 37342, Note_on_c, 2, 87, 0
5, 37344, Note_on_c, 2, 86, 60
5, 37390, Note_on_c, 2, 86, 0
5, 37392, Note_on_c, 2, 84, 60
5, 37438, Note_on_c, 2, 84, 0
5, 37440, Note_on_c, 2, 82, 60
5, 37486, Note_on_c, 2, 82, 0
5, 37488, Note_on_c, 2, 81, 60
5, 37534, Note_on_c, 2, 81, 0
5, 37536, Note_on_c, 2, 79, 60
5, 37630, Note_on_c, 2, 79, 0
5, 37632, Note_on_c, 2, 84, 60
5, 38352, Note_on_c, 2, 84, 0
5, 38400, Note_on_c, 2, 91, 60
5, 38560, Note_on_c, 2, 91, 0
5, 38592, Note_on_c, 2, 84, 60
5, 38614, Note_on_c, 2, 84, 0
5, 38616, Note_on_c, 2, 82, 60
5, 38638, Note_on_c, 2, 82, 0
5, 38640, Note_on_c, 2, 81, 60
5, 38662, Note_on_c, 2, 81, 0
5, 38664, Note_on_c, 2, 79, 60
5, 38686, Note_on_c, 2, 79, 0
5, 38688, Note_on_c, 2, 77, 60
5, 38710, Note_on_c, 2, 77, 0
5, 38712, Note_on_c, 2, 76, 60
5, 38746, Note_on_c, 2, 76, 0
5, 38748, Note_on_c, 2, 74, 60
5, 38782, Note_on_c, 2, 74, 0
5, 38784, Note_on_c, 2, 72, 60
5, 38944, Note_on_c, 2, 72, 0
5, 38976, Note_on_c, 2, 77, 60
5, 39136, Note_on_c, 2, 77, 0
5, 39168, Note_on_c, 2, 76, 60
5, 39646, Note_on_c, 2, 76, 0
5, 39648, Note_on_c, 2, 76, 60
5, 39672, Note_on_c, 2, 76, 0
5, 39672, Note_on_c, 2, 77, 60
5, 39696, Note_on_c, 2, 77, 0
5, 39696, Note_on_c, 2, 76, 60
5, 39720, Note_on_c, 2, 76, 0
5, 39720, Note_on_c, 2, 77, 60
5, 39742, Note_on_c, 2, 77, 0
5, 39744, Note_on_c, 2, 74, 60
5, 39838, Note_on_c, 2, 74, 0
5, 39840, Note_on_c, 2, 76, 60
5, 39934, Note_on_c, 2, 76, 0
5, 39936, Note_on_c, 2, 69, 60
5, 39958, Note_on_c, 2, 69, 0
5, 39960, Note_on_c, 2, 77, 60
5, 40864, Note_on_c, 2, 77, 0
5, 40896, Note_on_c, 2, 76, 60
5, 40990, Note_on_c, 2, 76, 0
5, 40992, Note_on_c, 2, 77, 60
5, 41086, Note_on_c, 2, 77, 0
5, 41088, Note_on_c, 2, 76, 60
5, 41182, Note_on_c, 2, 76, 0
5, 41184, Note_on_c, 2, 74, 60
5, 41278, Note_on_c, 2, 74, 0
5, 41280, Note_on_c, 2, 76, 60
5, 41374, Note_on_c, 2, 76, 0
5, 41376, Note_on_c, 2, 72, 60
5, 41470, Note_on_c, 2, 72, 0
5, 41472, Note_on_c, 2, 70, 60
5, 41494, Note_on_c, 2, 70, 0
5, 41496, Note_on_c, 2, 74, 60
5, 42334, Note_on_c, 2, 74, 0
5, 42336, Note_on_c, 2, 72, 60
5, 42430, Note_on_c, 2, 72, 0
5, 42432, Note_on_c, 2, 70, 60
5, 42526, Note_on_c, 2, 70, 0
5, 42528, Note_on_c, 2, 69, 60
5, 42622, Note_on_c, 2, 69, 0
5, 42624, Note_on_c, 2, 67, 60
5, 42718, Note_on_c, 2, 67, 0
5, 42720, Note_on_c, 2, 69, 60
5, 42814, Note_on_c, 2, 69, 0
5, 42816, Note_on_c, 2, 70, 60
5, 42910, Note_on_c, 2, 70, 0
5, 42912, Note_on_c, 2, 67, 60
5, 43006, Note_on_c, 2, 67, 0
5, 43008, Note_on_c, 2, 65, 60
5, 43030, Note_on_c, 2, 65, 0
5, 43032, Note_on_c, 2, 69, 60
5, 43936, Note_on_c, 2, 69, 0
5, 43968, Note_on_c, 2, 70, 60
5, 44062, Note_on_c, 2, 70, 0
5, 44064, Note_on_c, 2, 69, 60
5, 44158, Note_on_c, 2, 69, 0
5, 44160, Note_on_c, 2, 67, 60
5, 44254, Note_on_c, 2, 67, 0
5, 44256, Note_on_c, 2, 65, 60
5, 44350, Note_on_c, 2, 65, 0
5, 44352, Note_on_c, 2, 67, 60
5, 44446, Note_on_c, 2, 67, 0
5, 44448, Note_on_c, 2, 64, 60
5, 44542, Note_on_c, 2, 64, 0
5, 44544, Note_on_c, 2, 65, 60
5, 44590, Note_on_c, 2, 65, 0
5, 44592, Note_on_c, 2, 67, 60
5, 44638, Note_on_c, 2, 67, 0
5, 44640, Note_on_c, 2, 69, 60
5, 45264, Note_on_c, 2, 69, 0
5, 45504, Note_on_c, 2, 70, 60
5, 45598, Note_on_c, 2, 70, 0
5, 45600, Note_on_c, 2, 69, 60
5, 45694, Note_on_c, 2, 69, 0
5, 45696, Note_on_c, 2, 67, 60
5, 45696, Note_on_c, 2, 91, 60
5, 45742, Note_on_c, 2, 91, 0
5, 45744, Note_on_c, 2, 89, 60
5, 45758, Note_on_c, 2, 89, 0
5, 45760, Note_on_c, 2, 91, 60
5, 45774, Note_on_c, 2, 91, 0
5, 45776, Note_on_c, 2, 89, 60
5, 45790, Note_on_c, 2, 67, 0
5, 45790, Note_on_c, 2, 89, 0
5, 45792, Note_on_c, 2, 65, 60
5, 45792, Note_on_c, 2, 88, 60
5, 45838, Note_on_c, 2, 88, 0
5, 45840, Note_on_c, 2, 86, 60
5, 45886, Note_on_c, 2, 65, 0
5, 45886, Note_on_c, 2, 86, 0
5, 45888, Note_on_c, 2, 64, 60
5, 45888, Note_on_c, 2, 84, 60
5, 45934, Note_on_c, 2, 84, 0
5, 45936, Note_on_c, 2, 82, 60
5, 45982, Note_on_c, 2, 64, 0
5, 45982, Note_on_c, 2, 82, 0
5, 45984, Note_on_c, 2, 65, 60
5, 45984, Note_on_c, 2, 81, 60
5, 46030, Note_on_c, 2, 81, 0
5, 46032, Note_on_c, 2, 79, 60
5, 46078, Note_on_c, 2, 65, 0
5, 46078, Note_on_c, 2, 79, 0
5, 46080, Note_on_c, 2, 69, 60
5, 46102, Note_on_c, 2, 69, 0
5, 46104, Note_on_c, 2, 77, 60
5, 47008, Note_on_c, 2, 77, 0
5, 51840, Note_on_c, 2, 91, 60
5, 51886, Note_on_c, 2, 91, 0
5, 51888, Note_on_c, 2, 89, 60
5, 51902, Note_on_c, 2, 89, 0
5, 51904, Note_on_c, 2, 91, 60
5, 51918, Note_on_c, 2, 91, 0
5, 51920, Note_on_c, 2, 89, 60
5, 51934, Note_on_c, 2, 89, 0
5, 51936, Note_on_c, 2, 88, 60
5, 51982, Note_on_c, 2, 88, 0
5, 51984, Note_on_c, 2, 86, 60
5, 52030, Note_on_c, 2, 86, 0
5, 52032, Note_on_c, 2, 84, 60
5, 52078, Note_on_c, 2, 84, 0
5, 52080, Note_on_c, 2, 82, 60
5, 52126, Note_on_c, 2, 82, 0
5, 52128, Note_on_c, 2, 81, 60
5, 52174, Note_on_c, 2, 81, 0
5, 52176, Note_on_c, 2, 79, 60
5, 52222, Note_on_c, 2, 79, 0
5, 53760, Control_c, 2, 7, 127
5, 53794, Control_c, 2, 7, 126
5, 53829, Control_c, 2, 7, 125
5, 53864, Control_c, 2, 7, 124
5, 53899, Control_c, 2, 7, 123
5, 53934, Control_c, 2, 7, 122
5, 53969, Control_c, 2, 7, 121
5, 54004, Control_c, 2, 7, 120
5, 54039, Control_c, 2, 7, 119
5, 54074, Control_c, 2, 7, 118
5, 54109, Control_c, 2, 7, 117
5, 54144, Control_c, 2, 7, 116
5, 54178, Control_c, 2, 7, 115
5, 54213, Control_c, 2, 7, 114
5, 54248, Control_c, 2, 7, 113
5, 54283, Control_c, 2, 7, 112
5, 54318, Control_c, 2, 7, 111
5, 54353, Control_c, 2, 7, 110
5, 54388, Control_c, 2, 7, 109
5, 54423, Control_c, 2, 7, 108
5, 54458, Control_c, 2, 7, 107
5, 54493, Control_c, 2, 7, 106
5, 54528, Control_c, 2, 7, 105
5, 54582, Control_c, 2, 7, 104
5, 54637, Control_c, 2, 7, 103
5, 54692, Control_c, 2, 7, 102
5, 54747, Control_c, 2, 7, 101
5, 54802, Control_c, 2, 7, 100
5, 54857, Control_c, 2, 7, 99
5, 54912, Control_c, 2, 7, 98
5, 54966, Control_c, 2, 7, 97
5, 55021, Control_c, 2, 7, 96
5, 55076, Control_c, 2, 7, 95
5, 55131, Control_c, 2, 7, 94
5, 55186, Control_c, 2, 7, 93
5, 55241, Control_c, 2, 7, 92
5, 55296, Control_c, 2, 7, 91
5, 55350, Control_c, 2, 7, 90
5, 55405, Control_c, 2, 7, 89
5, 55460, Control_c, 2, 7, 88
5, 55515, Control_c, 2, 7, 87
5, 55570, Control_c, 2, 7, 86
5, 55625, Control_c, 2, 7, 85
5, 55680, Control_c, 2, 7, 84
5, 55734, Control_c, 2, 7, 83
5, 55789, Control_c, 2, 7, 82
5, 55844, Control_c, 2, 7, 81
5, 55899, Control_c, 2, 7, 80
5, 55954, Control_c, 2, 7, 79
5, 56009, Control_c, 2, 7, 78
5, 56064, Control_c, 2, 7, 77
5, 56064, Control_c, 2, 7, 64
5, 56112, Control_c, 2, 7, 63
5, 56160, Control_c, 2, 7, 62
5, 56208, Control_c, 2, 7, 61
5, 56256, Control_c, 2, 7, 60
5, 56304, Control_c, 2, 7, 59
5, 56352, Control_c, 2, 7, 58
5, 56400, Control_c, 2, 7, 57
5, 56448, Control_c, 2, 7, 56
5, 56496, Control_c, 2, 7, 55
5, 56544, Control_c, 2, 7, 54
5, 56592, Control_c, 2, 7, 53
5, 56640, Control_c, 2, 7, 52
5, 56688, Control_c, 2, 7, 51
5, 56736, Control_c, 2, 7, 50
5, 56784, Control_c, 2, 7, 49
5, 56832, Control_c, 2, 7, 48
5, 56896, Control_c, 2, 7, 47
5, 56960, Control_c, 2, 7, 46
5, 57024, Control_c, 2, 7, 45
5, 57088, Control_c, 2, 7, 44
5, 57152, Control_c, 2, 7, 43
5, 57216, Control_c, 2, 7, 42
5, 57280, Control_c, 2, 7, 41
5, 57344, Control_c, 2, 7, 40
5, 57408, Control_c, 2, 7, 39
5, 57472, Control_c, 2, 7, 38
5, 57536, Control_c, 2, 7, 37
5, 57600, Control_c, 2, 7, 36
5, 57651, Control_c, 2, 7, 35
5, 57702, Control_c, 2, 7, 34
5, 57753, Control_c, 2, 7, 33
5, 57804, Control_c, 2, 7, 32
5, 57856, Control_c, 2, 7, 31
5, 57907, Control_c, 2, 7, 30
5, 57958, Control_c, 2, 7, 29
5, 58009, Control_c, 2, 7, 28
5, 58060, Control_c, 2, 7, 27
5, 58112, Control_c, 2, 7, 26
5, 58163, Control_c, 2, 7, 25
5, 58214, Control_c, 2, 7, 24
5, 58265, Control_c, 2, 7, 23
5, 58316, Control_c, 2, 7, 22
5, 58368, Control_c, 2, 7, 21
5, 58368, End_track
6, 0, Start_track
6, 0, MIDI_port, 0
6, 0, Title_t, "Staff-1"
6, 0, Program_c, 3, 33
6, 0, Control_c, 3, 7, 127
6, 0, Control_c, 3, 10, 64
6, 12288, Note_on_c, 3, 41, 75
6, 12816, Note_on_c, 3, 41, 0
6, 12864, Note_on_c, 3, 40, 75
6, 13024, Note_on_c, 3, 40, 0
6, 13056, Note_on_c, 3, 38, 75
6, 13584, Note_on_c, 3, 38, 0
6, 13632, Note_on_c, 3, 36, 75
6, 13792, Note_on_c, 3, 36, 0
6, 13824, Note_on_c, 3, 34, 75
6, 14160, Note_on_c, 3, 34, 0
6, 14208, Note_on_c, 3, 46, 75
6, 14368, Note_on_c, 3, 46, 0
6, 14400, Note_on_c, 3, 45, 75
6, 14560, Note_on_c, 3, 45, 0
6, 14592, Note_on_c, 3, 43, 75
6, 14928, Note_on_c, 3, 43, 0
6, 14976, Note_on_c, 3, 41, 75
6, 15232, Note_on_c, 3, 41, 0
6, 15264, Note_on_c, 3, 39, 75
6, 15358, Note_on_c, 3, 39, 0
6, 15360, Note_on_c, 3, 38, 75
6, 15696, Note_on_c, 3, 38, 0
6, 15744, Note_on_c, 3, 50, 75
6, 15904, Note_on_c, 3, 50, 0
6, 15936, Note_on_c, 3, 48, 75
6, 16096, Note_on_c, 3, 48, 0
6, 16128, Note_on_c, 3, 46, 75
6, 16464, Note_on_c, 3, 46, 0
6, 16512, Note_on_c, 3, 45, 75
6, 16848, Note_on_c, 3, 45, 0
6, 16896, Note_on_c, 3, 43, 75
6, 17232, Note_on_c, 3, 43, 0
6, 17280, Note_on_c, 3, 41, 75
6, 17616, Note_on_c, 3, 41, 0
6, 17664, Note_on_c, 3, 39, 75
6, 18000, Note_on_c, 3, 39, 0
6, 18048, Note_on_c, 3, 38, 75
6, 18384, Note_on_c, 3, 38, 0
6, 18432, Note_on_c, 3, 43, 75
6, 18768, Note_on_c, 3, 43, 0
6, 18816, Note_on_c, 3, 41, 75
6, 19152, Note_on_c, 3, 41, 0
6, 19200, Note_on_c, 3, 39, 75
6, 19536, Note_on_c, 3, 39, 0
6, 19584, Note_on_c, 3, 41, 75
6, 19920, Note_on_c, 3, 41, 0
6, 19968, Note_on_c, 3, 34, 75
6, 20304, Note_on_c, 3, 34, 0
6, 20352, Note_on_c, 3, 33, 75
6, 20688, Note_on_c, 3, 33, 0
6, 20736, Note_on_c, 3, 31, 75
6, 21072, Note_on_c, 3, 31, 0
6, 21120, Note_on_c, 3, 36, 75
6, 21456, Note_on_c, 3, 36, 0
6, 21504, Note_on_c, 3, 41, 75
6, 21840, Note_on_c, 3, 41, 0
6, 21888, Note_on_c, 3, 40, 75
6, 22224, Note_on_c, 3, 40, 0
6, 22272, Note_on_c, 3, 38, 75
6, 22608, Note_on_c, 3, 38, 0
6, 22656, Note_on_c, 3, 36, 75
6, 22992, Note_on_c, 3, 36, 0
6, 23040, Note_on_c, 3, 34, 75
6, 23376, Note_on_c, 3, 34, 0
6, 23424, Note_on_c, 3, 33, 75
6, 23760, Note_on_c, 3, 33, 0
6, 23808, Note_on_c, 3, 31, 75
6, 24144, Note_on_c, 3, 31, 0
6, 24192, Note_on_c, 3, 36, 75
6, 24528, Note_on_c, 3, 36, 0
6, 24576, Note_on_c, 3, 41, 75
6, 24912, Note_on_c, 3, 41, 0
6, 24960, Note_on_c, 3, 40, 75
6, 25296, Note_on_c, 3, 40, 0
6, 25344, Note_on_c, 3, 38, 75
6, 25680, Note_on_c, 3, 38, 0
6, 25728, Note_on_c, 3, 36, 75
6, 26064, Note_on_c, 3, 36, 0
6, 26112, Note_on_c, 3, 38, 75
6, 26448, Note_on_c, 3, 38, 0
6, 26496, Note_on_c, 3, 36, 75
6, 26832, Note_on_c, 3, 36, 0
6, 26880, Note_on_c, 3, 34, 75
6, 27216, Note_on_c, 3, 34, 0
6, 27264, Note_on_c, 3, 36, 75
6, 27600, Note_on_c, 3, 36, 0
6, 27648, Note_on_c, 3, 41, 75
6, 28176, Note_on_c, 3, 41, 0
6, 28224, Note_on_c, 3, 40, 75
6, 28384, Note_on_c, 3, 40, 0
6, 28416, Note_on_c, 3, 38, 75
6, 28944, Note_on_c, 3, 38, 0
6, 28992, Note_on_c, 3, 36, 75
6, 29152, Note_on_c, 3, 36, 0
6, 29184, Note_on_c, 3, 34, 75
6, 29520, Note_on_c, 3, 34, 0
6, 29568, Note_on_c, 3, 46, 75
6, 29728, Note_on_c, 3, 46, 0
6, 29760, Note_on_c, 3, 45, 75
6, 29920, Note_on_c, 3, 45, 0
6, 29952, Note_on_c, 3, 43, 75
6, 30288, Note_on_c, 3, 43, 0
6, 30336, Note_on_c, 3, 41, 75
6, 30592, Note_on_c, 3, 41, 0
6, 30624, Note_on_c, 3, 39, 75
6, 30718, Note_on_c, 3, 39, 0
6, 30720, Note_on_c, 3, 38, 75
6, 31056, Note_on_c, 3, 38, 0
6, 31104, Note_on_c, 3, 50, 75
6, 31264, Note_on_c, 3, 50, 0
6, 31296, Note_on_c, 3, 48, 75
6, 31456, Note_on_c, 3, 48, 0
6, 31488, Note_on_c, 3, 47, 75
6, 31648, Note_on_c, 3, 47, 0
6, 31680, Note_on_c, 3, 48, 75
6, 31840, Note_on_c, 3, 48, 0
6, 31872, Note_on_c, 3, 42, 75
6, 32208, Note_on_c, 3, 42, 0
6, 32256, Note_on_c, 3, 43, 75
6, 32512, Note_on_c, 3, 43, 0
6, 32544, Note_on_c, 3, 43, 75
6, 32638, Note_on_c, 3, 43, 0
6, 32640, Note_on_c, 3, 41, 75
6, 32896, Note_on_c, 3, 41, 0
6, 32928, Note_on_c, 3, 41, 75
6, 33022, Note_on_c, 3, 41, 0
6, 33024, Note_on_c, 3, 39, 75
6, 33280, Note_on_c, 3, 39, 0
6, 33312, Note_on_c, 3, 39, 75
6, 33406, Note_on_c, 3, 39, 0
6, 33408, Note_on_c, 3, 38, 75
6, 33664, Note_on_c, 3, 38, 0
6, 33696, Note_on_c, 3, 38, 75
6, 33790, Note_on_c, 3, 38, 0
6, 33792, Note_on_c, 3, 43, 75
6, 34048, Note_on_c, 3, 43, 0
6, 34080, Note_on_c, 3, 43, 75
6, 34174, Note_on_c, 3, 43, 0
6, 34176, Note_on_c, 3, 41, 75
6, 34432, Note_on_c, 3, 41, 0
6, 34464, Note_on_c, 3, 41, 75
6, 34558, Note_on_c, 3, 41, 0
6, 34560, Note_on_c, 3, 39, 75
6, 34816, Note_on_c, 3, 39, 0
6, 34848, Note_on_c, 3, 39, 75
6, 34942, Note_on_c, 3, 39, 0
6, 34944, Note_on_c, 3, 41, 75
6, 35280, Note_on_c, 3, 41, 0
6, 35328, Note_on_c, 3, 34, 75
6, 35422, Note_on_c, 3, 34, 0
6, 35424, Note_on_c, 3, 34, 75
6, 35518, Note_on_c, 3, 34, 0
6, 35520, Note_on_c, 3, 34, 75
6, 35614, Note_on_c, 3, 34, 0
6, 35616, Note_on_c, 3, 34, 75
6, 35710, Note_on_c, 3, 34, 0
6, 35712, Note_on_c, 3, 34, 75
6, 35806, Note_on_c, 3, 34, 0
6, 35808, Note_on_c, 3, 34, 75
6, 35902, Note_on_c, 3, 34, 0
6, 35904, Note_on_c, 3, 34, 75
6, 35998, Note_on_c, 3, 34, 0
6, 36000, Note_on_c, 3, 34, 75
6, 36094, Note_on_c, 3, 34, 0
6, 36096, Note_on_c, 3, 33, 75
6, 36190, Note_on_c, 3, 33, 0
6, 36192, Note_on_c, 3, 33, 75
6, 36286, Note_on_c, 3, 33, 0
6, 36288, Note_on_c, 3, 33, 75
6, 36382, Note_on_c, 3, 33, 0
6, 36384, Note_on_c, 3, 33, 75
6, 36478, Note_on_c, 3, 33, 0
6, 36480, Note_on_c, 3, 45, 75
6, 36574, Note_on_c, 3, 45, 0
6, 36576, Note_on_c, 3, 45, 75
6, 36670, Note_on_c, 3, 45, 0
6, 36672, Note_on_c, 3, 33, 75
6, 36766, Note_on_c, 3, 33, 0
6, 36768, Note_on_c, 3, 33, 75
6, 36862, Note_on_c, 3, 33, 0
6, 36864, Note_on_c, 3, 31, 75
6, 36958, Note_on_c, 3, 31, 0
6, 36960, Note_on_c, 3, 31, 75
6, 37054, Note_on_c, 3, 31, 0
6, 37056, Note_on_c, 3, 31, 75
6, 37150, Note_on_c, 3, 31, 0
6, 37152, Note_on_c, 3, 31, 75
6, 37246, Note_on_c, 3, 31, 0
6, 37248, Note_on_c, 3, 43, 75
6, 37408, Note_on_c, 3, 43, 0
6, 37440, Note_on_c, 3, 41, 75
6, 37600, Note_on_c, 3, 41, 0
6, 37632, Note_on_c, 3, 40, 75
6, 37968, Note_on_c, 3, 40, 0
6, 38016, Note_on_c, 3, 41, 75
6, 38352, Note_on_c, 3, 41, 0
6, 38400, Note_on_c, 3, 48, 75
6, 39120, Note_on_c, 3, 48, 0
6, 39168, Note_on_c, 3, 36, 75
6, 39888, Note_on_c, 3, 36, 0
6, 39936, Note_on_c, 3, 41, 75
6, 40272, Note_on_c, 3, 41, 0
6, 40320, Note_on_c, 3, 40, 75
6, 40656, Note_on_c, 3, 40, 0
6, 40704, Note_on_c, 3, 38, 75
6, 41040, Note_on_c, 3, 38, 0
6, 41088, Note_on_c, 3, 36, 75
6, 41424, Note_on_c, 3, 36, 0
6, 41472, Note_on_c, 3, 34, 75
6, 41808, Note_on_c, 3, 34, 0
6, 41856, Note_on_c, 3, 33, 75
6, 42192, Note_on_c, 3, 33, 0
6, 42240, Note_on_c, 3, 31, 75
6, 42576, Note_on_c, 3, 31, 0
6, 42624, Note_on_c, 3, 36, 75
6, 42960, Note_on_c, 3, 36, 0
6, 43008, Note_on_c, 3, 41, 75
6, 43344, Note_on_c, 3, 41, 0
6, 43392, Note_on_c, 3, 40, 75
6, 43728, Note_on_c, 3, 40, 0
6, 43776, Note_on_c, 3, 38, 75
6, 44112, Note_on_c, 3, 38, 0
6, 44160, Note_on_c, 3, 36, 75
6, 44496, Note_on_c, 3, 36, 0
6, 44544, Note_on_c, 3, 38, 75
6, 44880, Note_on_c, 3, 38, 0
6, 44928, Note_on_c, 3, 36, 75
6, 45264, Note_on_c, 3, 36, 0
6, 45312, Note_on_c, 3, 34, 75
6, 45648, Note_on_c, 3, 34, 0
6, 45696, Note_on_c, 3, 36, 75
6, 46032, Note_on_c, 3, 36, 0
6, 46080, Note_on_c, 3, 41, 75
6, 46240, Note_on_c, 3, 41, 0
6, 46272, Note_on_c, 3, 48, 75
6, 46304, Note_on_c, 3, 48, 0
6, 46368, Note_on_c, 3, 41, 75
6, 46462, Note_on_c, 3, 41, 0
6, 46464, Note_on_c, 3, 40, 75
6, 46624, Note_on_c, 3, 40, 0
6, 46656, Note_on_c, 3, 48, 75
6, 46688, Note_on_c, 3, 48, 0
6, 46752, Note_on_c, 3, 40, 75
6, 46846, Note_on_c, 3, 40, 0
6, 46848, Note_on_c, 3, 38, 75
6, 47008, Note_on_c, 3, 38, 0
6, 47040, Note_on_c, 3, 45, 75
6, 47072, Note_on_c, 3, 45, 0
6, 47136, Note_on_c, 3, 38, 75
6, 47230, Note_on_c, 3, 38, 0
6, 47232, Note_on_c, 3, 36, 75
6, 47392, Note_on_c, 3, 36, 0
6, 47424, Note_on_c, 3, 45, 75
6, 47456, Note_on_c, 3, 45, 0
6, 47520, Note_on_c, 3, 36, 75
6, 47614, Note_on_c, 3, 36, 0
6, 47616, Note_on_c, 3, 34, 75
6, 47776, Note_on_c, 3, 34, 0
6, 47808, Note_on_c, 3, 41, 75
6, 47840, Note_on_c, 3, 41, 0
6, 47904, Note_on_c, 3, 34, 75
6, 47998, Note_on_c, 3, 34, 0
6, 48000, Note_on_c, 3, 33, 75
6, 48160, Note_on_c, 3, 33, 0
6, 48192, Note_on_c, 3, 41, 75
6, 48224, Note_on_c, 3, 41, 0
6, 48288, Note_on_c, 3, 33, 75
6, 48382, Note_on_c, 3, 33, 0
6, 48384, Note_on_c, 3, 31, 75
6, 48544, Note_on_c, 3, 31, 0
6, 48576, Note_on_c, 3, 43, 75
6, 48608, Note_on_c, 3, 43, 0
6, 48672, Note_on_c, 3, 38, 75
6, 48766, Note_on_c, 3, 38, 0
6, 48768, Note_on_c, 3, 36, 75
6, 48928, Note_on_c, 3, 36, 0
6, 48960, Note_on_c, 3, 48, 75
6, 49120, Note_on_c, 3, 48, 0
6, 49152, Note_on_c, 3, 41, 75
6, 49312, Note_on_c, 3, 41, 0
6, 49344, Note_on_c, 3, 48, 75
6, 49376, Note_on_c, 3, 48, 0
6, 49440, Note_on_c, 3, 41, 75
6, 49534, Note_on_c, 3, 41, 0
6, 49536, Note_on_c, 3, 40, 75
6, 49696, Note_on_c, 3, 40, 0
6, 49728, Note_on_c, 3, 48, 75
6, 49760, Note_on_c, 3, 48, 0
6, 49824, Note_on_c, 3, 40, 75
6, 49918, Note_on_c, 3, 40, 0
6, 49920, Note_on_c, 3, 38, 75
6, 50080, Note_on_c, 3, 38, 0
6, 50112, Note_on_c, 3, 45, 75
6, 50144, Note_on_c, 3, 45, 0
6, 50208, Note_on_c, 3, 38, 75
6, 50302, Note_on_c, 3, 38, 0
6, 50304, Note_on_c, 3, 36, 75
6, 50464, Note_on_c, 3, 36, 0
6, 50496, Note_on_c, 3, 45, 75
6, 50528, Note_on_c, 3, 45, 0
6, 50592, Note_on_c, 3, 36, 75
6, 50686, Note_on_c, 3, 36, 0
6, 50688, Note_on_c, 3, 38, 75
6, 50848, Note_on_c, 3, 38, 0
6, 50880, Note_on_c, 3, 45, 75
6, 50912, Note_on_c, 3, 45, 0
6, 50976, Note_on_c, 3, 38, 75
6, 51070, Note_on_c, 3, 38, 0
6, 51072, Note_on_c, 3, 36, 75
6, 51232, Note_on_c, 3, 36, 0
6, 51264, Note_on_c, 3, 45, 75
6, 51296, Note_on_c, 3, 45, 0
6, 51360, Note_on_c, 3, 36, 75
6, 51454, Note_on_c, 3, 36, 0
6, 51456, Note_on_c, 3, 34, 75
6, 51616, Note_on_c, 3, 34, 0
6, 51648, Note_on_c, 3, 41, 75
6, 51680, Note_on_c, 3, 41, 0
6, 51744, Note_on_c, 3, 34, 75
6, 51838, Note_on_c, 3, 34, 0
6, 51840, Note_on_c, 3, 36, 75
6, 52000, Note_on_c, 3, 36, 0
6, 52032, Note_on_c, 3, 48, 75
6, 52192, Note_on_c, 3, 48, 0
6, 52224, Note_on_c, 3, 41, 75
6, 52384, Note_on_c, 3, 41, 0
6, 52416, Note_on_c, 3, 48, 75
6, 52448, Note_on_c, 3, 48, 0
6, 52512, Note_on_c, 3, 41, 75
6, 52606, Note_on_c, 3, 41, 0
6, 52608, Note_on_c, 3, 40, 75
6, 52768, Note_on_c, 3, 40, 0
6, 52800, Note_on_c, 3, 48, 75
6, 52832, Note_on_c, 3, 48, 0
6, 52896, Note_on_c, 3, 40, 75
6, 52990, Note_on_c, 3, 40, 0
6, 52992, Note_on_c, 3, 38, 75
6, 53152, Note_on_c, 3, 38, 0
6, 53184, Note_on_c, 3, 45, 75
6, 53216, Note_on_c, 3, 45, 0
6, 53280, Note_on_c, 3, 38, 75
6, 53374, Note_on_c, 3, 38, 0
6, 53376, Note_on_c, 3, 36, 75
6, 53536, Note_on_c, 3, 36, 0
6, 53568, Note_on_c, 3, 45, 75
6, 53600, Note_on_c, 3, 45, 0
6, 53664, Note_on_c, 3, 36, 75
6, 53758, Note_on_c, 3, 36, 0
6, 53760, Control_c, 3, 7, 127
6, 53760, Note_on_c, 3, 34, 75
6, 53794, Control_c, 3, 7, 126
6, 53829, Control_c, 3, 7, 125
6, 53864, Control_c, 3, 7, 124
6, 53899, Control_c, 3, 7, 123
6, 53920, Note_on_c, 3, 34, 0
6, 53934, Control_c, 3, 7, 122
6, 53952, Note_on_c, 3, 41, 75
6, 53969, Control_c, 3, 7, 121
6, 53984, Note_on_c, 3, 41, 0
6, 54004, Control_c, 3, 7, 120
6, 54039, Control_c, 3, 7, 119
6, 54048, Note_on_c, 3, 34, 75
6, 54074, Control_c, 3, 7, 118
6, 54109, Control_c, 3, 7, 117
6, 54142, Note_on_c, 3, 34, 0
6, 54144, Control_c, 3, 7, 116
6, 54144, Note_on_c, 3, 33, 75
6, 54178, Control_c, 3, 7, 115
6, 54213, Control_c, 3, 7, 114
6, 54248, Control_c, 3, 7, 113
6, 54283, Control_c, 3, 7, 112
6, 54304, Note_on_c, 3, 33, 0
6, 54318, Control_c, 3, 7, 111
6, 54336, Note_on_c, 3, 41, 75
6, 54353, Control_c, 3, 7, 110
6, 54368, Note_on_c, 3, 41, 0
6, 54388, Control_c, 3, 7, 109
6, 54423, Control_c, 3, 7, 108
6, 54432, Note_on_c, 3, 33, 75
6, 54458, Control_c, 3, 7, 107
6, 54493, Control_c, 3, 7, 106
6, 54526, Note_on_c, 3, 33, 0
6, 54528, Control_c, 3, 7, 105
6, 54528, Note_on_c, 3, 31, 75
6, 54582, Control_c, 3, 7, 104
6, 54637, Control_c, 3, 7, 103
6, 54688, Note_on_c, 3, 31, 0
6, 54692, Control_c, 3, 7, 102
6, 54720, Note_on_c, 3, 43, 75
6, 54747, Control_c, 3, 7, 101
6, 54752, Note_on_c, 3, 43, 0
6, 54802, Control_c, 3, 7, 100
6, 54816, Note_on_c, 3, 38, 75
6, 54857, Control_c, 3, 7, 99
6, 54910, Note_on_c, 3, 38, 0
6, 54912, Control_c, 3, 7, 98
6, 54912, Note_on_c, 3, 36, 75
6, 54966, Control_c, 3, 7, 97
6, 55021, Control_c, 3, 7, 96
6, 55072, Note_on_c, 3, 36, 0
6, 55076, Control_c, 3, 7, 95
6, 55104, Note_on_c, 3, 48, 75
6, 55131, Control_c, 3, 7, 94
6, 55186, Control_c, 3, 7, 93
6, 55241, Control_c, 3, 7, 92
6, 55264, Note_on_c, 3, 48, 0
6, 55296, Control_c, 3, 7, 91
6, 55296, Note_on_c, 3, 41, 75
6, 55350, Control_c, 3, 7, 90
6, 55405, Control_c, 3, 7, 89
6, 55456, Note_on_c, 3, 41, 0
6, 55460, Control_c, 3, 7, 88
6, 55488, Note_on_c, 3, 48, 75
6, 55515, Control_c, 3, 7, 87
6, 55520, Note_on_c, 3, 48, 0
6, 55570, Control_c, 3, 7, 86
6, 55584, Note_on_c, 3, 41, 75
6, 55625, Control_c, 3, 7, 85
6, 55678, Note_on_c, 3, 41, 0
6, 55680, Control_c, 3, 7, 84
6, 55680, Note_on_c, 3, 40, 75
6, 55734, Control_c, 3, 7, 83
6, 55789, Control_c, 3, 7, 82
6, 55840, Note_on_c, 3, 40, 0
6, 55844, Control_c, 3, 7, 81
6, 55872, Note_on_c, 3, 48, 75
6, 55899, Control_c, 3, 7, 80
6, 55904, Note_on_c, 3, 48, 0
6, 55954, Control_c, 3, 7, 79
6, 55968, Note_on_c, 3, 40, 75
6, 56009, Control_c, 3, 7, 78
6, 56062, Note_on_c, 3, 40, 0
6, 56064, Control_c, 3, 7, 77
6, 56064, Control_c, 3, 7, 64
6, 56064, Note_on_c, 3, 38, 75
6, 56112, Control_c, 3, 7, 63
6, 56160, Control_c, 3, 7, 62
6, 56208, Control_c, 3, 7, 61
6, 56224, Note_on_c, 3, 38, 0
6, 56256, Control_c, 3, 7, 60
6, 56256, Note_on_c, 3, 45, 75
6, 56288, Note_on_c, 3, 45, 0
6, 56304, Control_c, 3, 7, 59
6, 56352, Control_c, 3, 7, 58
6, 56352, Note_on_c, 3, 38, 75
6, 56400, Control_c, 3, 7, 57
6, 56446, Note_on_c, 3, 38, 0
6, 56448, Control_c, 3, 7, 56
6, 56448, Note_on_c, 3, 36, 75
6, 56496, Control_c, 3, 7, 55
6, 56544, Control_c, 3, 7, 54
6, 56592, Control_c, 3, 7, 53
6, 56608, Note_on_c, 3, 36, 0
6, 56640, Control_c, 3, 7, 52
6, 56640, Note_on_c, 3, 45, 75
6, 56672, Note_on_c, 3, 45, 0
6, 56688, Control_c, 3, 7, 51
6, 56736, Control_c, 3, 7, 50
6, 56736, Note_on_c, 3, 36, 75
6, 56784, Control_c, 3, 7, 49
6, 56830, Note_on_c, 3, 36, 0
6, 56832, Control_c, 3, 7, 48
6, 56832, Note_on_c, 3, 38, 75
6, 56896, Control_c, 3, 7, 47
6, 56960, Control_c, 3, 7, 46
6, 56992, Note_on_c, 3, 38, 0
6, 57024, Control_c, 3, 7, 45
6, 57024, Note_on_c, 3, 45, 75
6, 57056, Note_on_c, 3, 45, 0
6, 57088, Control_c, 3, 7, 44
6, 57120, Note_on_c, 3, 38, 75
6, 57152, Control_c, 3, 7, 43
6, 57214, Note_on_c, 3, 38, 0
6, 57216, Control_c, 3, 7, 42
6, 57216, Note_on_c, 3, 36, 75
6, 57280, Control_c, 3, 7, 41
6, 57344, Control_c, 3, 7, 40
6, 57376, Note_on_c, 3, 36, 0
6, 57408, Control_c, 3, 7, 39
6, 57408, Note_on_c, 3, 45, 75
6, 57440, Note_on_c, 3, 45, 0
6, 57472, Control_c, 3, 7, 38
6, 57504, Note_on_c, 3, 36, 75
6, 57536, Control_c, 3, 7, 37
6, 57598, Note_on_c, 3, 36, 0
6, 57600, Control_c, 3, 7, 36
6, 57600, Note_on_c, 3, 34, 75
6, 57651, Control_c, 3, 7, 35
6, 57702, Control_c, 3, 7, 34
6, 57753, Control_c, 3, 7, 33
6, 57760, Note_on_c, 3, 34, 0
6, 57792, Note_on_c, 3, 41, 75
6, 57804, Control_c, 3, 7, 32
6, 57824, Note_on_c, 3, 41, 0
6, 57856, Control_c, 3, 7, 31
6, 57888, Note_on_c, 3, 34, 75
6, 57907, Control_c, 3, 7, 30
6, 57958, Control_c, 3, 7, 29
6, 57982, Note_on_c, 3, 34, 0
6, 57984, Note_on_c, 3, 36, 75
6, 58009, Control_c, 3, 7, 28
6, 58060, Control_c, 3, 7, 27
6, 58112, Control_c, 3, 7, 26
6, 58144, Note_on_c, 3, 36, 0
6, 58163, Control_c, 3, 7, 25
6, 58176, Note_on_c, 3, 48, 75
6, 58214, Control_c, 3, 7, 24
6, 58265, Control_c, 3, 7, 23
6, 58316, Control_c, 3, 7, 22
6, 58336, Note_on_c, 3, 48, 0
6, 58368, Control_c, 3, 7, 21
6, 58368, Note_on_c, 3, 41, 75
6, 59088, Note_on_c, 3, 41, 0
6, 59088, End_track
7, 0, Start_track
7, 0, MIDI_port, 0
7, 0, Title_t, "Drums"
7, 0, Program_c, 9, 0
7, 0, Control_c, 9, 7, 127
7, 0, Control_c, 9, 10, 64
7, 13824, Note_on_c, 9, 36, 60
7, 13984, Note_on_c, 9, 36, 0
7, 14016, Note_on_c, 9, 42, 60
7, 14176, Note_on_c, 9, 42, 0
7, 14208, Note_on_c, 9, 42, 60
7, 14368, Note_on_c, 9, 42, 0
7, 14400, Note_on_c, 9, 42, 60
7, 14560, Note_on_c, 9, 42, 0
7, 14592, Note_on_c, 9, 36, 60
7, 14752, Note_on_c, 9, 36, 0
7, 14784, Note_on_c, 9, 37, 60
7, 14784, Note_on_c, 9, 42, 60
7, 14944, Note_on_c, 9, 37, 0
7, 14944, Note_on_c, 9, 42, 0
7, 14976, Note_on_c, 9, 42, 60
7, 15136, Note_on_c, 9, 42, 0
7, 15168, Note_on_c, 9, 37, 60
7, 15168, Note_on_c, 9, 42, 60
7, 15328, Note_on_c, 9, 37, 0
7, 15328, Note_on_c, 9, 42, 0
7, 15360, Note_on_c, 9, 36, 60
7, 15520, Note_on_c, 9, 36, 0
7, 15552, Note_on_c, 9, 37, 60
7, 15552, Note_on_c, 9, 42, 60
7, 15712, Note_on_c, 9, 37, 0
7, 15712, Note_on_c, 9, 42, 0
7, 15744, Note_on_c, 9, 42, 60
7, 15904, Note_on_c, 9, 42, 0
7, 15936, Note_on_c, 9, 37, 60
7, 15936, Note_on_c, 9, 42, 60
7, 16096, Note_on_c, 9, 37, 0
7, 16096, Note_on_c, 9, 42, 0
7, 16128, Note_on_c, 9, 36, 60
7, 16288, Note_on_c, 9, 36, 0
7, 16320, Note_on_c, 9, 37, 60
7, 16320, Note_on_c, 9, 42, 60
7, 16480, Note_on_c, 9, 37, 0
7, 16480, Note_on_c, 9, 42, 0
7, 16512, Note_on_c, 9, 42, 60
7, 16672, Note_on_c, 9, 42, 0
7, 16704, Note_on_c, 9, 37, 60
7, 16704, Note_on_c, 9, 42, 60
7, 16864, Note_on_c, 9, 37, 0
7, 16864, Note_on_c, 9, 42, 0
7, 16896, Note_on_c, 9, 36, 60
7, 17056, Note_on_c, 9, 36, 0
7, 17088, Note_on_c, 9, 37, 60
7, 17088, Note_on_c, 9, 42, 60
7, 17248, Note_on_c, 9, 37, 0
7, 17248, Note_on_c, 9, 42, 0
7, 17280, Note_on_c, 9, 42, 60
7, 17440, Note_on_c, 9, 42, 0
7, 17472, Note_on_c, 9, 37, 60
7, 17472, Note_on_c, 9, 42, 60
7, 17632, Note_on_c, 9, 37, 0
7, 17632, Note_on_c, 9, 42, 0
7, 17664, Note_on_c, 9, 36, 60
7, 17824, Note_on_c, 9, 36, 0
7, 17856, Note_on_c, 9, 37, 60
7, 17856, Note_on_c, 9, 42, 60
7, 18016, Note_on_c, 9, 37, 0
7, 18016, Note_on_c, 9, 42, 0
7, 18048, Note_on_c, 9, 42, 60
7, 18208, Note_on_c, 9, 42, 0
7, 18240, Note_on_c, 9, 37, 60
7, 18240, Note_on_c, 9, 42, 60
7, 18400, Note_on_c, 9, 37, 0
7, 18400, Note_on_c, 9, 42, 0
7, 18432, Note_on_c, 9, 36, 60
7, 18592, Note_on_c, 9, 36, 0
7, 18624, Note_on_c, 9, 37, 60
7, 18624, Note_on_c, 9, 42, 60
7, 18784, Note_on_c, 9, 37, 0
7, 18784, Note_on_c, 9, 42, 0
7, 18816, Note_on_c, 9, 42, 60
7, 18976, Note_on_c, 9, 42, 0
7, 19008, Note_on_c, 9, 37, 60
7, 19008, Note_on_c, 9, 42, 60
7, 19168, Note_on_c, 9, 37, 0
7, 19168, Note_on_c, 9, 42, 0
7, 19200, Note_on_c, 9, 36, 60
7, 19360, Note_on_c, 9, 36, 0
7, 19392, Note_on_c, 9, 37, 60
7, 19392, Note_on_c, 9, 42, 60
7, 19552, Note_on_c, 9, 37, 0
7, 19552, Note_on_c, 9, 42, 0
7, 19584, Note_on_c, 9, 42, 60
7, 19744, Note_on_c, 9, 42, 0
7, 19776, Note_on_c, 9, 37, 60
7, 19776, Note_on_c, 9, 42, 60
7, 19936, Note_on_c, 9, 37, 0
7, 19936, Note_on_c, 9, 42, 0
7, 19968, Note_on_c, 9, 36, 60
7, 19968, Note_on_c, 9, 52, 60
7, 20128, Note_on_c, 9, 36, 0
7, 20128, Note_on_c, 9, 52, 0
7, 20160, Note_on_c, 9, 37, 60
7, 20160, Note_on_c, 9, 42, 60
7, 20320, Note_on_c, 9, 37, 0
7, 20320, Note_on_c, 9, 42, 0
7, 20352, Note_on_c, 9, 42, 60
7, 20352, Note_on_c, 9, 52, 60
7, 20512, Note_on_c, 9, 42, 0
7, 20512, Note_on_c, 9, 52, 0
7, 20544, Note_on_c, 9, 37, 60
7, 20544, Note_on_c, 9, 42, 60
7, 20704, Note_on_c, 9, 37, 0
7, 20704, Note_on_c, 9, 42, 0
7, 20736, Note_on_c, 9, 36, 60
7, 20736, Note_on_c, 9, 52, 60
7, 20896, Note_on_c, 9, 36, 0
7, 20896, Note_on_c, 9, 52, 0
7, 20928, Note_on_c, 9, 37, 60
7, 20928, Note_on_c, 9, 42, 60
7, 21088, Note_on_c, 9, 37, 0
7, 21088, Note_on_c, 9, 42, 0
7, 21120, Note_on_c, 9, 42, 60
7, 21214, Note_on_c, 9, 42, 0
7, 21216, Note_on_c, 9, 47, 60
7, 21310, Note_on_c, 9, 47, 0
7, 21312, Note_on_c, 9, 37, 60
7, 21312, Note_on_c, 9, 42, 60
7, 21312, Note_on_c, 9, 45, 60
7, 21406, Note_on_c, 9, 37, 0
7, 21406, Note_on_c, 9, 42, 0
7, 21406, Note_on_c, 9, 45, 0
7, 21408, Note_on_c, 9, 41, 60
7, 21502, Note_on_c, 9, 41, 0
7, 21504, Note_on_c, 9, 36, 60
7, 21504, Note_on_c, 9, 42, 60
7, 21504, Note_on_c, 9, 52, 60
7, 21598, Note_on_c, 9, 36, 0
7, 21598, Note_on_c, 9, 42, 0
7, 21598, Note_on_c, 9, 52, 0
7, 21600, Note_on_c, 9, 42, 60
7, 21694, Note_on_c, 9, 42, 0
7, 21696, Note_on_c, 9, 42, 60
7, 21790, Note_on_c, 9, 42, 0
7, 21792, Note_on_c, 9, 36, 60
7, 21792, Note_on_c, 9, 42, 60
7, 21886, Note_on_c, 9, 36, 0
7, 21886, Note_on_c, 9, 42, 0
7, 21888, Note_on_c, 9, 38, 60
7, 21888, Note_on_c, 9, 42, 60
7, 21982, Note_on_c, 9, 38, 0
7, 21982, Note_on_c, 9, 42, 0
7, 21984, Note_on_c, 9, 42, 60
7, 22078, Note_on_c, 9, 42, 0
7, 22080, Note_on_c, 9, 42, 60
7, 22174, Note_on_c, 9, 42, 0
7, 22176, Note_on_c, 9, 42, 60
7, 22270, Note_on_c, 9, 42, 0
7, 22272, Note_on_c, 9, 36, 60
7, 22272, Note_on_c, 9, 42, 60
7, 22366, Note_on_c, 9, 36, 0
7, 22366, Note_on_c, 9, 42, 0
7, 22368, Note_on_c, 9, 42, 60
7, 22462, Note_on_c, 9, 42, 0
7, 22464, Note_on_c, 9, 42, 60
7, 22558, Note_on_c, 9, 42, 0
7, 22560, Note_on_c, 9, 36, 60
7, 22560, Note_on_c, 9, 42, 60
7, 22654, Note_on_c, 9, 36, 0
7, 22654, Note_on_c, 9, 42, 0
7, 22656, Note_on_c, 9, 38, 60
7, 22656, Note_on_c, 9, 42, 60
7, 22750, Note_on_c, 9, 38, 0
7, 22750, Note_on_c, 9, 42, 0
7, 22752, Note_on_c, 9, 42, 60
7, 22846, Note_on_c, 9, 42, 0
7, 22848, Note_on_c, 9, 42, 60
7, 22942, Note_on_c, 9, 42, 0
7, 22944, Note_on_c, 9, 42, 60
7, 23038, Note_on_c, 9, 42, 0
7, 23040, Note_on_c, 9, 36, 60
7, 23040, Note_on_c, 9, 42, 60
7, 23134, Note_on_c, 9, 36, 0
7, 23134, Note_on_c, 9, 42, 0
7, 23136, Note_on_c, 9, 42, 60
7, 23230, Note_on_c, 9, 42, 0
7, 23232, Note_on_c, 9, 42, 60
7, 23326, Note_on_c, 9, 42, 0
7, 23328, Note_on_c, 9, 36, 60
7, 23328, Note_on_c, 9, 42, 60
7, 23422, Note_on_c, 9, 36, 0
7, 23422, Note_on_c, 9, 42, 0
7, 23424, Note_on_c, 9, 38, 60
7, 23424, Note_on_c, 9, 42, 60
7, 23518, Note_on_c, 9, 38, 0
7, 23518, Note_on_c, 9, 42, 0
7, 23520, Note_on_c, 9, 42, 60
7, 23614, Note_on_c, 9, 42, 0
7, 23616, Note_on_c, 9, 42, 60
7, 23710, Note_on_c, 9, 42, 0
7, 23712, Note_on_c, 9, 42, 60
7, 23806, Note_on_c, 9, 42, 0
7, 23808, Note_on_c, 9, 36, 60
7, 23808, Note_on_c, 9, 42, 60
7, 23902, Note_on_c, 9, 36, 0
7, 23902, Note_on_c, 9, 42, 0
7, 23904, Note_on_c, 9, 42, 60
7, 23998, Note_on_c, 9, 42, 0
7, 24000, Note_on_c, 9, 42, 60
7, 24094, Note_on_c, 9, 42, 0
7, 24096, Note_on_c, 9, 36, 60
7, 24096, Note_on_c, 9, 42, 60
7, 24190, Note_on_c, 9, 36, 0
7, 24190, Note_on_c, 9, 42, 0
7, 24192, Note_on_c, 9, 38, 60
7, 24192, Note_on_c, 9, 42, 60
7, 24286, Note_on_c, 9, 38, 0
7, 24286, Note_on_c, 9, 42, 0
7, 24288, Note_on_c, 9, 42, 60
7, 24382, Note_on_c, 9, 42, 0
7, 24384, Note_on_c, 9, 42, 60
7, 24478, Note_on_c, 9, 42, 0
7, 24480, Note_on_c, 9, 38, 60
7, 24480, Note_on_c, 9, 42, 60
7, 24574, Note_on_c, 9, 38, 0
7, 24574, Note_on_c, 9, 42, 0
7, 24576, Note_on_c, 9, 36, 60
7, 24576, Note_on_c, 9, 42, 60
7, 24670, Note_on_c, 9, 36, 0
7, 24670, Note_on_c, 9, 42, 0
7, 24672, Note_on_c, 9, 42, 60
7, 24766, Note_on_c, 9, 42, 0
7, 24768, Note_on_c, 9, 42, 60
7, 24862, Note_on_c, 9, 42, 0
7, 24864, Note_on_c, 9, 36, 60
7, 24864, Note_on_c, 9, 42, 60
7, 24958, Note_on_c, 9, 36, 0
7, 24958, Note_on_c, 9, 42, 0
7, 24960, Note_on_c, 9, 38, 60
7, 24960, Note_on_c, 9, 42, 60
7, 25054, Note_on_c, 9, 38, 0
7, 25054, Note_on_c, 9, 42, 0
7, 25056, Note_on_c, 9, 42, 60
7, 25150, Note_on_c, 9, 42, 0
7, 25152, Note_on_c, 9, 42, 60
7, 25246, Note_on_c, 9, 42, 0
7, 25248, Note_on_c, 9, 42, 60
7, 25342, Note_on_c, 9, 42, 0
7, 25344, Note_on_c, 9, 36, 60
7, 25344, Note_on_c, 9, 42, 60
7, 25438, Note_on_c, 9, 36, 0
7, 25438, Note_on_c, 9, 42, 0
7, 25440, Note_on_c, 9, 42, 60
7, 25534, Note_on_c, 9, 42, 0
7, 25536, Note_on_c, 9, 42, 60
7, 25630, Note_on_c, 9, 42, 0
7, 25632, Note_on_c, 9, 36, 60
7, 25632, Note_on_c, 9, 42, 60
7, 25726, Note_on_c, 9, 36, 0
7, 25726, Note_on_c, 9, 42, 0
7, 25728, Note_on_c, 9, 38, 60
7, 25728, Note_on_c, 9, 42, 60
7, 25822, Note_on_c, 9, 38, 0
7, 25822, Note_on_c, 9, 42, 0
7, 25824, Note_on_c, 9, 42, 60
7, 25918, Note_on_c, 9, 42, 0
7, 25920, Note_on_c, 9, 42, 60
7, 26014, Note_on_c, 9, 42, 0
7, 26016, Note_on_c, 9, 42, 60
7, 26110, Note_on_c, 9, 42, 0
7, 26112, Note_on_c, 9, 36, 60
7, 26112, Note_on_c, 9, 42, 60
7, 26206, Note_on_c, 9, 36, 0
7, 26206, Note_on_c, 9, 42, 0
7, 26208, Note_on_c, 9, 42, 60
7, 26302, Note_on_c, 9, 42, 0
7, 26304, Note_on_c, 9, 42, 60
7, 26398, Note_on_c, 9, 42, 0
7, 26400, Note_on_c, 9, 36, 60
7, 26400, Note_on_c, 9, 42, 60
7, 26494, Note_on_c, 9, 36, 0
7, 26494, Note_on_c, 9, 42, 0
7, 26496, Note_on_c, 9, 38, 60
7, 26496, Note_on_c, 9, 42, 60
7, 26590, Note_on_c, 9, 38, 0
7, 26590, Note_on_c, 9, 42, 0
7, 26592, Note_on_c, 9, 42, 60
7, 26686, Note_on_c, 9, 42, 0
7, 26688, Note_on_c, 9, 42, 60
7, 26782, Note_on_c, 9, 42, 0
7, 26784, Note_on_c, 9, 42, 60
7, 26878, Note_on_c, 9, 42, 0
7, 26880, Note_on_c, 9, 36, 60
7, 26880, Note_on_c, 9, 42, 60
7, 26974, Note_on_c, 9, 36, 0
7, 26974, Note_on_c, 9, 42, 0
7, 26976, Note_on_c, 9, 42, 60
7, 27070, Note_on_c, 9, 42, 0
7, 27072, Note_on_c, 9, 42, 60
7, 27166, Note_on_c, 9, 42, 0
7, 27168, Note_on_c, 9, 36, 60
7, 27168, Note_on_c, 9, 42, 60
7, 27262, Note_on_c, 9, 36, 0
7, 27262, Note_on_c, 9, 42, 0
7, 27264, Note_on_c, 9, 38, 60
7, 27264, Note_on_c, 9, 42, 60
7, 27358, Note_on_c, 9, 38, 0
7, 27358, Note_on_c, 9, 42, 0
7, 27360, Note_on_c, 9, 42, 60
7, 27454, Note_on_c, 9, 42, 0
7, 27456, Note_on_c, 9, 38, 60
7, 27456, Note_on_c, 9, 42, 60
7, 27550, Note_on_c, 9, 38, 0
7, 27550, Note_on_c, 9, 42, 0
7, 27552, Note_on_c, 9, 42, 60
7, 27646, Note_on_c, 9, 42, 0
7, 27648, Note_on_c, 9, 36, 60
7, 27648, Note_on_c, 9, 42, 60
7, 27742, Note_on_c, 9, 36, 0
7, 27742, Note_on_c, 9, 42, 0
7, 27744, Note_on_c, 9, 42, 60
7, 27838, Note_on_c, 9, 42, 0
7, 27840, Note_on_c, 9, 42, 60
7, 27934, Note_on_c, 9, 42, 0
7, 27936, Note_on_c, 9, 36, 60
7, 27936, Note_on_c, 9, 42, 60
7, 28030, Note_on_c, 9, 36, 0
7, 28030, Note_on_c, 9, 42, 0
7, 28032, Note_on_c, 9, 38, 60
7, 28032, Note_on_c, 9, 42, 60
7, 28126, Note_on_c, 9, 38, 0
7, 28126, Note_on_c, 9, 42, 0
7, 28128, Note_on_c, 9, 42, 60
7, 28222, Note_on_c, 9, 42, 0
7, 28224, Note_on_c, 9, 42, 60
7, 28318, Note_on_c, 9, 42, 0
7, 28320, Note_on_c, 9, 42, 60
7, 28414, Note_on_c, 9, 42, 0
7, 28416, Note_on_c, 9, 36, 60
7, 28416, Note_on_c, 9, 42, 60
7, 28510, Note_on_c, 9, 36, 0
7, 28510, Note_on_c, 9, 42, 0
7, 28512, Note_on_c, 9, 42, 60
7, 28606, Note_on_c, 9, 42, 0
7, 28608, Note_on_c, 9, 42, 60
7, 28702, Note_on_c, 9, 42, 0
7, 28704, Note_on_c, 9, 36, 60
7, 28704, Note_on_c, 9, 42, 60
7, 28750, Note_on_c, 9, 36, 0
7, 28750, Note_on_c, 9, 42, 0
7, 28752, Note_on_c, 9, 38, 60
7, 28798, Note_on_c, 9, 38, 0
7, 28800, Note_on_c, 9, 38, 60
7, 28800, Note_on_c, 9, 42, 60
7, 28800, Note_on_c, 9, 47, 60
7, 28846, Note_on_c, 9, 38, 0
7, 28846, Note_on_c, 9, 42, 0
7, 28846, Note_on_c, 9, 47, 0
7, 28848, Note_on_c, 9, 47, 60
7, 28894, Note_on_c, 9, 47, 0
7, 28896, Note_on_c, 9, 42, 60
7, 28896, Note_on_c, 9, 47, 60
7, 28942, Note_on_c, 9, 42, 0
7, 28942, Note_on_c, 9, 47, 0
7, 28944, Note_on_c, 9, 45, 60
7, 28990, Note_on_c, 9, 45, 0
7, 28992, Note_on_c, 9, 42, 60
7, 28992, Note_on_c, 9, 45, 60
7, 29038, Note_on_c, 9, 42, 0
7, 29038, Note_on_c, 9, 45, 0
7, 29040, Note_on_c, 9, 45, 60
7, 29086, Note_on_c, 9, 45, 0
7, 29088, Note_on_c, 9, 41, 60
7, 29088, Note_on_c, 9, 42, 60
7, 29134, Note_on_c, 9, 41, 0
7, 29134, Note_on_c, 9, 42, 0
7, 29136, Note_on_c, 9, 41, 60
7, 29182, Note_on_c, 9, 41, 0
7, 29184, Note_on_c, 9, 36, 60
7, 29184, Note_on_c, 9, 42, 60
7, 29184, Note_on_c, 9, 52, 60
7, 29278, Note_on_c, 9, 36, 0
7, 29278, Note_on_c, 9, 42, 0
7, 29278, Note_on_c, 9, 52, 0
7, 29280, Note_on_c, 9, 42, 60
7, 29374, Note_on_c, 9, 42, 0
7, 29376, Note_on_c, 9, 38, 60
7, 29376, Note_on_c, 9, 42, 60
7, 29470, Note_on_c, 9, 38, 0
7, 29470, Note_on_c, 9, 42, 0
7, 29472, Note_on_c, 9, 42, 60
7, 29566, Note_on_c, 9, 42, 0
7, 29568, Note_on_c, 9, 36, 60
7, 29568, Note_on_c, 9, 42, 60
7, 29662, Note_on_c, 9, 36, 0
7, 29662, Note_on_c, 9, 42, 0
7, 29664, Note_on_c, 9, 36, 60
7, 29664, Note_on_c, 9, 42, 60
7, 29758, Note_on_c, 9, 36, 0
7, 29758, Note_on_c, 9, 42, 0
7, 29760, Note_on_c, 9, 38, 60
7, 29760, Note_on_c, 9, 42, 60
7, 29854, Note_on_c, 9, 38, 0
7, 29854, Note_on_c, 9, 42, 0
7, 29856, Note_on_c, 9, 42, 60
7, 29950, Note_on_c, 9, 42, 0
7, 29952, Note_on_c, 9, 36, 60
7, 29952, Note_on_c, 9, 42, 60
7, 30046, Note_on_c, 9, 36, 0
7, 30046, Note_on_c, 9, 42, 0
7, 30048, Note_on_c, 9, 42, 60
7, 30142, Note_on_c, 9, 42, 0
7, 30144, Note_on_c, 9, 38, 60
7, 30144, Note_on_c, 9, 42, 60
7, 30238, Note_on_c, 9, 38, 0
7, 30238, Note_on_c, 9, 42, 0
7, 30240, Note_on_c, 9, 42, 60
7, 30334, Note_on_c, 9, 42, 0
7, 30336, Note_on_c, 9, 36, 60
7, 30336, Note_on_c, 9, 42, 60
7, 30430, Note_on_c, 9, 36, 0
7, 30430, Note_on_c, 9, 42, 0
7, 30432, Note_on_c, 9, 36, 60
7, 30432, Note_on_c, 9, 42, 60
7, 30526, Note_on_c, 9, 36, 0
7, 30526, Note_on_c, 9, 42, 0
7, 30528, Note_on_c, 9, 38, 60
7, 30528, Note_on_c, 9, 42, 60
7, 30622, Note_on_c, 9, 38, 0
7, 30622, Note_on_c, 9, 42, 0
7, 30624, Note_on_c, 9, 42, 60
7, 30718, Note_on_c, 9, 42, 0
7, 30720, Note_on_c, 9, 36, 60
7, 30720, Note_on_c, 9, 42, 60
7, 30814, Note_on_c, 9, 36, 0
7, 30814, Note_on_c, 9, 42, 0
7, 30816, Note_on_c, 9, 42, 60
7, 30910, Note_on_c, 9, 42, 0
7, 30912, Note_on_c, 9, 38, 60
7, 30912, Note_on_c, 9, 42, 60
7, 30912, Note_on_c, 9, 52, 60
7, 31006, Note_on_c, 9, 38, 0
7, 31006, Note_on_c, 9, 42, 0
7, 31006, Note_on_c, 9, 52, 0
7, 31008, Note_on_c, 9, 42, 60
7, 31102, Note_on_c, 9, 42, 0
7, 31104, Note_on_c, 9, 36, 60
7, 31104, Note_on_c, 9, 42, 60
7, 31198, Note_on_c, 9, 36, 0
7, 31198, Note_on_c, 9, 42, 0
7, 31200, Note_on_c, 9, 36, 60
7, 31200, Note_on_c, 9, 42, 60
7, 31200, Note_on_c, 9, 52, 60
7, 31294, Note_on_c, 9, 36, 0
7, 31294, Note_on_c, 9, 42, 0
7, 31294, Note_on_c, 9, 52, 0
7, 31296, Note_on_c, 9, 38, 60
7, 31296, Note_on_c, 9, 42, 60
7, 31390, Note_on_c, 9, 38, 0
7, 31390, Note_on_c, 9, 42, 0
7, 31392, Note_on_c, 9, 42, 60
7, 31486, Note_on_c, 9, 42, 0
7, 31488, Note_on_c, 9, 36, 60
7, 31488, Note_on_c, 9, 42, 60
7, 31582, Note_on_c, 9, 36, 0
7, 31582, Note_on_c, 9, 42, 0
7, 31584, Note_on_c, 9, 42, 60
7, 31678, Note_on_c, 9, 42, 0
7, 31680, Note_on_c, 9, 38, 60
7, 31680, Note_on_c, 9, 42, 60
7, 31680, Note_on_c, 9, 52, 60
7, 31774, Note_on_c, 9, 38, 0
7, 31774, Note_on_c, 9, 42, 0
7, 31774, Note_on_c, 9, 52, 0
7, 31776, Note_on_c, 9, 42, 60
7, 31870, Note_on_c, 9, 42, 0
7, 31872, Note_on_c, 9, 36, 60
7, 31872, Note_on_c, 9, 42, 60
7, 31966, Note_on_c, 9, 36, 0
7, 31966, Note_on_c, 9, 42, 0
7, 31968, Note_on_c, 9, 36, 60
7, 31968, Note_on_c, 9, 42, 60
7, 32062, Note_on_c, 9, 36, 0
7, 32062, Note_on_c, 9, 42, 0
7, 32064, Note_on_c, 9, 38, 60
7, 32064, Note_on_c, 9, 42, 60
7, 32158, Note_on_c, 9, 38, 0
7, 32158, Note_on_c, 9, 42, 0
7, 32160, Note_on_c, 9, 42, 60
7, 32254, Note_on_c, 9, 42, 0
7, 32256, Note_on_c, 9, 36, 60
7, 32256, Note_on_c, 9, 42, 60
7, 32350, Note_on_c, 9, 36, 0
7, 32350, Note_on_c, 9, 42, 0
7, 32352, Note_on_c, 9, 42, 60
7, 32446, Note_on_c, 9, 42, 0
7, 32448, Note_on_c, 9, 38, 60
7, 32448, Note_on_c, 9, 42, 60
7, 32448, Note_on_c, 9, 52, 60
7, 32542, Note_on_c, 9, 38, 0
7, 32542, Note_on_c, 9, 42, 0
7, 32542, Note_on_c, 9, 52, 0
7, 32544, Note_on_c, 9, 42, 60
7, 32638, Note_on_c, 9, 42, 0
7, 32640, Note_on_c, 9, 36, 60
7, 32640, Note_on_c, 9, 42, 60
7, 32734, Note_on_c, 9, 36, 0
7, 32734, Note_on_c, 9, 42, 0
7, 32736, Note_on_c, 9, 36, 60
7, 32736, Note_on_c, 9, 42, 60
7, 32830, Note_on_c, 9, 36, 0
7, 32830, Note_on_c, 9, 42, 0
7, 32832, Note_on_c, 9, 38, 60
7, 32832, Note_on_c, 9, 42, 60
7, 32832, Note_on_c, 9, 52, 60
7, 32926, Note_on_c, 9, 38, 0
7, 32926, Note_on_c, 9, 42, 0
7, 32926, Note_on_c, 9, 52, 0
7, 32928, Note_on_c, 9, 42, 60
7, 33022, Note_on_c, 9, 42, 0
7, 33024, Note_on_c, 9, 36, 60
7, 33024, Note_on_c, 9, 42, 60
7, 33118, Note_on_c, 9, 36, 0
7, 33118, Note_on_c, 9, 42, 0
7, 33120, Note_on_c, 9, 42, 60
7, 33214, Note_on_c, 9, 42, 0
7, 33216, Note_on_c, 9, 38, 60
7, 33216, Note_on_c, 9, 42, 60
7, 33216, Note_on_c, 9, 52, 60
7, 33310, Note_on_c, 9, 38, 0
7, 33310, Note_on_c, 9, 42, 0
7, 33310, Note_on_c, 9, 52, 0
7, 33312, Note_on_c, 9, 42, 60
7, 33406, Note_on_c, 9, 42, 0
7, 33408, Note_on_c, 9, 36, 60
7, 33408, Note_on_c, 9, 42, 60
7, 33502, Note_on_c, 9, 36, 0
7, 33502, Note_on_c, 9, 42, 0
7, 33504, Note_on_c, 9, 36, 60
7, 33504, Note_on_c, 9, 42, 60
7, 33598, Note_on_c, 9, 36, 0
7, 33598, Note_on_c, 9, 42, 0
7, 33600, Note_on_c, 9, 38, 60
7, 33600, Note_on_c, 9, 42, 60
7, 33694, Note_on_c, 9, 38, 0
7, 33694, Note_on_c, 9, 42, 0
7, 33696, Note_on_c, 9, 42, 60
7, 33790, Note_on_c, 9, 42, 0
7, 33792, Note_on_c, 9, 36, 60
7, 33792, Note_on_c, 9, 42, 60
7, 33886, Note_on_c, 9, 36, 0
7, 33886, Note_on_c, 9, 42, 0
7, 33888, Note_on_c, 9, 42, 60
7, 33982, Note_on_c, 9, 42, 0
7, 33984, Note_on_c, 9, 38, 60
7, 33984, Note_on_c, 9, 42, 60
7, 33984, Note_on_c, 9, 52, 60
7, 34078, Note_on_c, 9, 38, 0
7, 34078, Note_on_c, 9, 42, 0
7, 34078, Note_on_c, 9, 52, 0
7, 34080, Note_on_c, 9, 42, 60
7, 34174, Note_on_c, 9, 42, 0
7, 34176, Note_on_c, 9, 36, 60
7, 34176, Note_on_c, 9, 42, 60
7, 34270, Note_on_c, 9, 36, 0
7, 34270, Note_on_c, 9, 42, 0
7, 34272, Note_on_c, 9, 36, 60
7, 34272, Note_on_c, 9, 42, 60
7, 34366, Note_on_c, 9, 36, 0
7, 34366, Note_on_c, 9, 42, 0
7, 34368, Note_on_c, 9, 38, 60
7, 34368, Note_on_c, 9, 42, 60
7, 34368, Note_on_c, 9, 52, 60
7, 34462, Note_on_c, 9, 38, 0
7, 34462, Note_on_c, 9, 42, 0
7, 34462, Note_on_c, 9, 52, 0
7, 34464, Note_on_c, 9, 42, 60
7, 34558, Note_on_c, 9, 42, 0
7, 34560, Note_on_c, 9, 36, 60
7, 34560, Note_on_c, 9, 42, 60
7, 34654, Note_on_c, 9, 36, 0
7, 34654, Note_on_c, 9, 42, 0
7, 34656, Note_on_c, 9, 42, 60
7, 34750, Note_on_c, 9, 42, 0
7, 34752, Note_on_c, 9, 38, 60
7, 34752, Note_on_c, 9, 42, 60
7, 34846, Note_on_c, 9, 38, 0
7, 34846, Note_on_c, 9, 42, 0
7, 34848, Note_on_c, 9, 38, 60
7, 34848, Note_on_c, 9, 42, 60
7, 34894, Note_on_c, 9, 38, 0
7, 34894, Note_on_c, 9, 42, 0
7, 34896, Note_on_c, 9, 38, 60
7, 34942, Note_on_c, 9, 38, 0
7, 34944, Note_on_c, 9, 36, 60
7, 34944, Note_on_c, 9, 42, 60
7, 34944, Note_on_c, 9, 47, 60
7, 34990, Note_on_c, 9, 36, 0
7, 34990, Note_on_c, 9, 42, 0
7, 34990, Note_on_c, 9, 47, 0
7, 34992, Note_on_c, 9, 47, 60
7, 35038, Note_on_c, 9, 47, 0
7, 35040, Note_on_c, 9, 36, 60
7, 35040, Note_on_c, 9, 42, 60
7, 35040, Note_on_c, 9, 47, 60
7, 35086, Note_on_c, 9, 36, 0
7, 35086, Note_on_c, 9, 42, 0
7, 35086, Note_on_c, 9, 47, 0
7, 35088, Note_on_c, 9, 45, 60
7, 35134, Note_on_c, 9, 45, 0
7, 35136, Note_on_c, 9, 38, 60
7, 35136, Note_on_c, 9, 42, 60
7, 35136, Note_on_c, 9, 45, 60
7, 35182, Note_on_c, 9, 38, 0
7, 35182, Note_on_c, 9, 42, 0
7, 35182, Note_on_c, 9, 45, 0
7, 35184, Note_on_c, 9, 45, 60
7, 35230, Note_on_c, 9, 45, 0
7, 35232, Note_on_c, 9, 41, 60
7, 35232, Note_on_c, 9, 42, 60
7, 35278, Note_on_c, 9, 41, 0
7, 35278, Note_on_c, 9, 42, 0
7, 35280, Note_on_c, 9, 41, 60
7, 35326, Note_on_c, 9, 41, 0
7, 35328, Note_on_c, 9, 36, 60
7, 35328, Note_on_c, 9, 42, 60
7, 35328, Note_on_c, 9, 52, 60
7, 35422, Note_on_c, 9, 36, 0
7, 35422, Note_on_c, 9, 42, 0
7, 35422, Note_on_c, 9, 52, 0
7, 35424, Note_on_c, 9, 42, 60
7, 35518, Note_on_c, 9, 42, 0
7, 35520, Note_on_c, 9, 38, 60
7, 35520, Note_on_c, 9, 42, 60
7, 35614, Note_on_c, 9, 38, 0
7, 35614, Note_on_c, 9, 42, 0
7, 35616, Note_on_c, 9, 42, 60
7, 35710, Note_on_c, 9, 42, 0
7, 35712, Note_on_c, 9, 36, 60
7, 35712, Note_on_c, 9, 42, 60
7, 35712, Note_on_c, 9, 47, 60
7, 35758, Note_on_c, 9, 36, 0
7, 35758, Note_on_c, 9, 42, 0
7, 35758, Note_on_c, 9, 47, 0
7, 35760, Note_on_c, 9, 47, 60
7, 35806, Note_on_c, 9, 47, 0
7, 35808, Note_on_c, 9, 36, 60
7, 35808, Note_on_c, 9, 42, 60
7, 35808, Note_on_c, 9, 47, 60
7, 35902, Note_on_c, 9, 36, 0
7, 35902, Note_on_c, 9, 42, 0
7, 35902, Note_on_c, 9, 47, 0
7, 35904, Note_on_c, 9, 38, 60
7, 35904, Note_on_c, 9, 42, 60
7, 35904, Note_on_c, 9, 45, 60
7, 35950, Note_on_c, 9, 38, 0
7, 35950, Note_on_c, 9, 42, 0
7, 35950, Note_on_c, 9, 45, 0
7, 35952, Note_on_c, 9, 45, 60
7, 35998, Note_on_c, 9, 45, 0
7, 36000, Note_on_c, 9, 42, 60
7, 36000, Note_on_c, 9, 45, 60
7, 36094, Note_on_c, 9, 42, 0
7, 36094, Note_on_c, 9, 45, 0
7, 36096, Note_on_c, 9, 36, 60
7, 36096, Note_on_c, 9, 42, 60
7, 36096, Note_on_c, 9, 52, 60
7, 36190, Note_on_c, 9, 36, 0
7, 36190, Note_on_c, 9, 42, 0
7, 36190, Note_on_c, 9, 52, 0
7, 36192, Note_on_c, 9, 42, 60
7, 36286, Note_on_c, 9, 42, 0
7, 36288, Note_on_c, 9, 38, 60
7, 36288, Note_on_c, 9, 42, 60
7, 36382, Note_on_c, 9, 38, 0
7, 36382, Note_on_c, 9, 42, 0
7, 36384, Note_on_c, 9, 42, 60
7, 36478, Note_on_c, 9, 42, 0
7, 36480, Note_on_c, 9, 36, 60
7, 36480, Note_on_c, 9, 42, 60
7, 36480, Note_on_c, 9, 47, 60
7, 36526, Note_on_c, 9, 36, 0
7, 36526, Note_on_c, 9, 42, 0
7, 36526, Note_on_c, 9, 47, 0
7, 36528, Note_on_c, 9, 47, 60
7, 36574, Note_on_c, 9, 47, 0
7, 36576, Note_on_c, 9, 36, 60
7, 36576, Note_on_c, 9, 42, 60
7, 36576, Note_on_c, 9, 47, 60
7, 36670, Note_on_c, 9, 36, 0
7, 36670, Note_on_c, 9, 42, 0
7, 36670, Note_on_c, 9, 47, 0
7, 36672, Note_on_c, 9, 38, 60
7, 36672, Note_on_c, 9, 42, 60
7, 36672, Note_on_c, 9, 45, 60
7, 36718, Note_on_c, 9, 38, 0
7, 36718, Note_on_c, 9, 42, 0
7, 36718, Note_on_c, 9, 45, 0
7, 36720, Note_on_c, 9, 45, 60
7, 36766, Note_on_c, 9, 45, 0
7, 36768, Note_on_c, 9, 42, 60
7, 36768, Note_on_c, 9, 45, 60
7, 36862, Note_on_c, 9, 42, 0
7, 36862, Note_on_c, 9, 45, 0
7, 36864, Note_on_c, 9, 36, 60
7, 36864, Note_on_c, 9, 42, 60
7, 36864, Note_on_c, 9, 52, 60
7, 36958, Note_on_c, 9, 36, 0
7, 36958, Note_on_c, 9, 42, 0
7, 36958, Note_on_c, 9, 52, 0
7, 36960, Note_on_c, 9, 42, 60
7, 37054, Note_on_c, 9, 42, 0
7, 37056, Note_on_c, 9, 38, 60
7, 37056, Note_on_c, 9, 42, 60
7, 37150, Note_on_c, 9, 38, 0
7, 37150, Note_on_c, 9, 42, 0
7, 37152, Note_on_c, 9, 38, 60
7, 37152, Note_on_c, 9, 42, 60
7, 37198, Note_on_c, 9, 38, 0
7, 37198, Note_on_c, 9, 42, 0
7, 37200, Note_on_c, 9, 38, 60
7, 37246, Note_on_c, 9, 38, 0
7, 37248, Note_on_c, 9, 36, 60
7, 37248, Note_on_c, 9, 42, 60
7, 37248, Note_on_c, 9, 47, 60
7, 37294, Note_on_c, 9, 36, 0
7, 37294, Note_on_c, 9, 42, 0
7, 37294, Note_on_c, 9, 47, 0
7, 37296, Note_on_c, 9, 47, 60
7, 37342, Note_on_c, 9, 47, 0
7, 37344, Note_on_c, 9, 36, 60
7, 37344, Note_on_c, 9, 42, 60
7, 37344, Note_on_c, 9, 47, 60
7, 37390, Note_on_c, 9, 36, 0
7, 37390, Note_on_c, 9, 42, 0
7, 37390, Note_on_c, 9, 47, 0
7, 37392, Note_on_c, 9, 45, 60
7, 37438, Note_on_c, 9, 45, 0
7, 37440, Note_on_c, 9, 38, 60
7, 37440, Note_on_c, 9, 42, 60
7, 37440, Note_on_c, 9, 45, 60
7, 37486, Note_on_c, 9, 38, 0
7, 37486, Note_on_c, 9, 42, 0
7, 37486, Note_on_c, 9, 45, 0
7, 37488, Note_on_c, 9, 45, 60
7, 37534, Note_on_c, 9, 45, 0
7, 37536, Note_on_c, 9, 41, 60
7, 37536, Note_on_c, 9, 42, 60
7, 37582, Note_on_c, 9, 41, 0
7, 37582, Note_on_c, 9, 42, 0
7, 37584, Note_on_c, 9, 41, 60
7, 37630, Note_on_c, 9, 41, 0
7, 37632, Note_on_c, 9, 36, 60
7, 37632, Note_on_c, 9, 38, 60
7, 37632, Note_on_c, 9, 52, 60
7, 38352, Note_on_c, 9, 36, 0
7, 38352, Note_on_c, 9, 38, 0
7, 38352, Note_on_c, 9, 52, 0
7, 39936, Note_on_c, 9, 46, 60
7, 40272, Note_on_c, 9, 46, 0
7, 40320, Note_on_c, 9, 46, 60
7, 40656, Note_on_c, 9, 46, 0
7, 40704, Note_on_c, 9, 46, 60
7, 41040, Note_on_c, 9, 46, 0
7, 41088, Note_on_c, 9, 46, 60
7, 41424, Note_on_c, 9, 46, 0
7, 41472, Note_on_c, 9, 46, 60
7, 41808, Note_on_c, 9, 46, 0
7, 41856, Note_on_c, 9, 46, 60
7, 42192, Note_on_c, 9, 46, 0
7, 42240, Note_on_c, 9, 46, 60
7, 42576, Note_on_c, 9, 46, 0
7, 42624, Note_on_c, 9, 46, 60
7, 42960, Note_on_c, 9, 46, 0
7, 43008, Note_on_c, 9, 36, 60
7, 43008, Note_on_c, 9, 46, 60
7, 43168, Note_on_c, 9, 36, 0
7, 43168, Note_on_c, 9, 46, 0
7, 43200, Note_on_c, 9, 46, 60
7, 43360, Note_on_c, 9, 46, 0
7, 43392, Note_on_c, 9, 38, 60
7, 43392, Note_on_c, 9, 46, 60
7, 43552, Note_on_c, 9, 38, 0
7, 43552, Note_on_c, 9, 46, 0
7, 43584, Note_on_c, 9, 46, 60
7, 43744, Note_on_c, 9, 46, 0
7, 43776, Note_on_c, 9, 36, 60
7, 43776, Note_on_c, 9, 46, 60
7, 43936, Note_on_c, 9, 36, 0
7, 43936, Note_on_c, 9, 46, 0
7, 43968, Note_on_c, 9, 46, 60
7, 44128, Note_on_c, 9, 46, 0
7, 44160, Note_on_c, 9, 38, 60
7, 44160, Note_on_c, 9, 46, 60
7, 44320, Note_on_c, 9, 38, 0
7, 44320, Note_on_c, 9, 46, 0
7, 44352, Note_on_c, 9, 46, 60
7, 44512, Note_on_c, 9, 46, 0
7, 44544, Note_on_c, 9, 36, 60
7, 44544, Note_on_c, 9, 46, 60
7, 44704, Note_on_c, 9, 36, 0
7, 44704, Note_on_c, 9, 46, 0
7, 44736, Note_on_c, 9, 46, 60
7, 44896, Note_on_c, 9, 46, 0
7, 44928, Note_on_c, 9, 38, 60
7, 44928, Note_on_c, 9, 46, 60
7, 45088, Note_on_c, 9, 38, 0
7, 45088, Note_on_c, 9, 46, 0
7, 45120, Note_on_c, 9, 46, 60
7, 45280, Note_on_c, 9, 46, 0
7, 45312, Note_on_c, 9, 36, 60
7, 45312, Note_on_c, 9, 46, 60
7, 45472, Note_on_c, 9, 36, 0
7, 45472, Note_on_c, 9, 46, 0
7, 45504, Note_on_c, 9, 46, 60
7, 45664, Note_on_c, 9, 46, 0
7, 45696, Note_on_c, 9, 38, 60
7, 45696, Note_on_c, 9, 46, 60
7, 45742, Note_on_c, 9, 38, 0
7, 45742, Note_on_c, 9, 46, 0
7, 45744, Note_on_c, 9, 46, 60
7, 45790, Note_on_c, 9, 46, 0
7, 45792, Note_on_c, 9, 46, 60
7, 45886, Note_on_c, 9, 46, 0
7, 45888, Note_on_c, 9, 46, 60
7, 45934, Note_on_c, 9, 46, 0
7, 45936, Note_on_c, 9, 45, 60
7, 45982, Note_on_c, 9, 45, 0
7, 45984, Note_on_c, 9, 43, 60
7, 46078, Note_on_c, 9, 43, 0
7, 46080, Note_on_c, 9, 36, 60
7, 46080, Note_on_c, 9, 42, 60
7, 46174, Note_on_c, 9, 36, 0
7, 46174, Note_on_c, 9, 42, 0
7, 46176, Note_on_c, 9, 42, 60
7, 46270, Note_on_c, 9, 42, 0
7, 46272, Note_on_c, 9, 42, 60
7, 46272, Note_on_c, 9, 52, 60
7, 46366, Note_on_c, 9, 42, 0
7, 46366, Note_on_c, 9, 52, 0
7, 46368, Note_on_c, 9, 36, 60
7, 46368, Note_on_c, 9, 42, 60
7, 46462, Note_on_c, 9, 36, 0
7, 46462, Note_on_c, 9, 42, 0
7, 46464, Note_on_c, 9, 38, 60
7, 46464, Note_on_c, 9, 42, 60
7, 46558, Note_on_c, 9, 38, 0
7, 46558, Note_on_c, 9, 42, 0
7, 46560, Note_on_c, 9, 42, 60
7, 46654, Note_on_c, 9, 42, 0
7, 46656, Note_on_c, 9, 42, 60
7, 46656, Note_on_c, 9, 52, 60
7, 46750, Note_on_c, 9, 42, 0
7, 46750, Note_on_c, 9, 52, 0
7, 46752, Note_on_c, 9, 42, 60
7, 46846, Note_on_c, 9, 42, 0
7, 46848, Note_on_c, 9, 36, 60
7, 46848, Note_on_c, 9, 42, 60
7, 46942, Note_on_c, 9, 36, 0
7, 46942, Note_on_c, 9, 42, 0
7, 46944, Note_on_c, 9, 42, 60
7, 47038, Note_on_c, 9, 42, 0
7, 47040, Note_on_c, 9, 42, 60
7, 47040, Note_on_c, 9, 52, 60
7, 47134, Note_on_c, 9, 42, 0
7, 47134, Note_on_c, 9, 52, 0
7, 47136, Note_on_c, 9, 36, 60
7, 47136, Note_on_c, 9, 42, 60
7, 47230, Note_on_c, 9, 36, 0
7, 47230, Note_on_c, 9, 42, 0
7, 47232, Note_on_c, 9, 38, 60
7, 47232, Note_on_c, 9, 42, 60
7, 47326, Note_on_c, 9, 38, 0
7, 47326, Note_on_c, 9, 42, 0
7, 47328, Note_on_c, 9, 42, 60
7, 47422, Note_on_c, 9, 42, 0
7, 47424, Note_on_c, 9, 42, 60
7, 47424, Note_on_c, 9, 52, 60
7, 47518, Note_on_c, 9, 42, 0
7, 47518, Note_on_c, 9, 52, 0
7, 47520, Note_on_c, 9, 42, 60
7, 47614, Note_on_c, 9, 42, 0
7, 47616, Note_on_c, 9, 36, 60
7, 47616, Note_on_c, 9, 42, 60
7, 47710, Note_on_c, 9, 36, 0
7, 47710, Note_on_c, 9, 42, 0
7, 47712, Note_on_c, 9, 42, 60
7, 47806, Note_on_c, 9, 42, 0
7, 47808, Note_on_c, 9, 42, 60
7, 47808, Note_on_c, 9, 52, 60
7, 47902, Note_on_c, 9, 42, 0
7, 47902, Note_on_c, 9, 52, 0
7, 47904, Note_on_c, 9, 36, 60
7, 47904, Note_on_c, 9, 42, 60
7, 47998, Note_on_c, 9, 36, 0
7, 47998, Note_on_c, 9, 42, 0
7, 48000, Note_on_c, 9, 38, 60
7, 48000, Note_on_c, 9, 42, 60
7, 48094, Note_on_c, 9, 38, 0
7, 48094, Note_on_c, 9, 42, 0
7, 48096, Note_on_c, 9, 42, 60
7, 48190, Note_on_c, 9, 42, 0
7, 48192, Note_on_c, 9, 42, 60
7, 48192, Note_on_c, 9, 52, 60
7, 48286, Note_on_c, 9, 42, 0
7, 48286, Note_on_c, 9, 52, 0
7, 48288, Note_on_c, 9, 42, 60
7, 48382, Note_on_c, 9, 42, 0
7, 48384, Note_on_c, 9, 36, 60
7, 48384, Note_on_c, 9, 42, 60
7, 48478, Note_on_c, 9, 36, 0
7, 48478, Note_on_c, 9, 42, 0
7, 48480, Note_on_c, 9, 42, 60
7, 48574, Note_on_c, 9, 42, 0
7, 48576, Note_on_c, 9, 42, 60
7, 48576, Note_on_c, 9, 52, 60
7, 48670, Note_on_c, 9, 42, 0
7, 48670, Note_on_c, 9, 52, 0
7, 48672, Note_on_c, 9, 36, 60
7, 48672, Note_on_c, 9, 42, 60
7, 48766, Note_on_c, 9, 36, 0
7, 48766, Note_on_c, 9, 42, 0
7, 48768, Note_on_c, 9, 38, 60
7, 48768, Note_on_c, 9, 42, 60
7, 48862, Note_on_c, 9, 38, 0
7, 48862, Note_on_c, 9, 42, 0
7, 48864, Note_on_c, 9, 42, 60
7, 48958, Note_on_c, 9, 42, 0
7, 48960, Note_on_c, 9, 42, 60
7, 48960, Note_on_c, 9, 52, 60
7, 49054, Note_on_c, 9, 42, 0
7, 49054, Note_on_c, 9, 52, 0
7, 49056, Note_on_c, 9, 42, 60
7, 49150, Note_on_c, 9, 42, 0
7, 49152, Note_on_c, 9, 36, 60
7, 49152, Note_on_c, 9, 42, 60
7, 49246, Note_on_c, 9, 36, 0
7, 49246, Note_on_c, 9, 42, 0
7, 49248, Note_on_c, 9, 42, 60
7, 49342, Note_on_c, 9, 42, 0
7, 49344, Note_on_c, 9, 42, 60
7, 49344, Note_on_c, 9, 52, 60
7, 49438, Note_on_c, 9, 42, 0
7, 49438, Note_on_c, 9, 52, 0
7, 49440, Note_on_c, 9, 36, 60
7, 49440, Note_on_c, 9, 42, 60
7, 49534, Note_on_c, 9, 36, 0
7, 49534, Note_on_c, 9, 42, 0
7, 49536, Note_on_c, 9, 38, 60
7, 49536, Note_on_c, 9, 42, 60
7, 49630, Note_on_c, 9, 38, 0
7, 49630, Note_on_c, 9, 42, 0
7, 49632, Note_on_c, 9, 42, 60
7, 49726, Note_on_c, 9, 42, 0
7, 49728, Note_on_c, 9, 42, 60
7, 49728, Note_on_c, 9, 52, 60
7, 49822, Note_on_c, 9, 42, 0
7, 49822, Note_on_c, 9, 52, 0
7, 49824, Note_on_c, 9, 42, 60
7, 49918, Note_on_c, 9, 42, 0
7, 49920, Note_on_c, 9, 36, 60
7, 49920, Note_on_c, 9, 42, 60
7, 50014, Note_on_c, 9, 36, 0
7, 50014, Note_on_c, 9, 42, 0
7, 50016, Note_on_c, 9, 42, 60
7, 50110, Note_on_c, 9, 42, 0
7, 50112, Note_on_c, 9, 42, 60
7, 50112, Note_on_c, 9, 52, 60
7, 50206, Note_on_c, 9, 42, 0
7, 50206, Note_on_c, 9, 52, 0
7, 50208, Note_on_c, 9, 36, 60
7, 50208, Note_on_c, 9, 42, 60
7, 50302, Note_on_c, 9, 36, 0
7, 50302, Note_on_c, 9, 42, 0
7, 50304, Note_on_c, 9, 38, 60
7, 50304, Note_on_c, 9, 42, 60
7, 50398, Note_on_c, 9, 38, 0
7, 50398, Note_on_c, 9, 42, 0
7, 50400, Note_on_c, 9, 42, 60
7, 50494, Note_on_c, 9, 42, 0
7, 50496, Note_on_c, 9, 42, 60
7, 50496, Note_on_c, 9, 52, 60
7, 50590, Note_on_c, 9, 42, 0
7, 50590, Note_on_c, 9, 52, 0
7, 50592, Note_on_c, 9, 42, 60
7, 50686, Note_on_c, 9, 42, 0
7, 50688, Note_on_c, 9, 36, 60
7, 50688, Note_on_c, 9, 42, 60
7, 50782, Note_on_c, 9, 36, 0
7, 50782, Note_on_c, 9, 42, 0
7, 50784, Note_on_c, 9, 42, 60
7, 50878, Note_on_c, 9, 42, 0
7, 50880, Note_on_c, 9, 42, 60
7, 50880, Note_on_c, 9, 52, 60
7, 50974, Note_on_c, 9, 42, 0
7, 50974, Note_on_c, 9, 52, 0
7, 50976, Note_on_c, 9, 36, 60
7, 50976, Note_on_c, 9, 42, 60
7, 51070, Note_on_c, 9, 36, 0
7, 51070, Note_on_c, 9, 42, 0
7, 51072, Note_on_c, 9, 38, 60
7, 51072, Note_on_c, 9, 42, 60
7, 51166, Note_on_c, 9, 38, 0
7, 51166, Note_on_c, 9, 42, 0
7, 51168, Note_on_c, 9, 42, 60
7, 51262, Note_on_c, 9, 42, 0
7, 51264, Note_on_c, 9, 42, 60
7, 51264, Note_on_c, 9, 52, 60
7, 51358, Note_on_c, 9, 42, 0
7, 51358, Note_on_c, 9, 52, 0
7, 51360, Note_on_c, 9, 42, 60
7, 51454, Note_on_c, 9, 42, 0
7, 51456, Note_on_c, 9, 36, 60
7, 51456, Note_on_c, 9, 42, 60
7, 51550, Note_on_c, 9, 36, 0
7, 51550, Note_on_c, 9, 42, 0
7, 51552, Note_on_c, 9, 42, 60
7, 51646, Note_on_c, 9, 42, 0
7, 51648, Note_on_c, 9, 42, 60
7, 51648, Note_on_c, 9, 52, 60
7, 51742, Note_on_c, 9, 42, 0
7, 51742, Note_on_c, 9, 52, 0
7, 51744, Note_on_c, 9, 36, 60
7, 51744, Note_on_c, 9, 42, 60
7, 51838, Note_on_c, 9, 36, 0
7, 51838, Note_on_c, 9, 42, 0
7, 51840, Note_on_c, 9, 38, 60
7, 51840, Note_on_c, 9, 42, 60
7, 51934, Note_on_c, 9, 38, 0
7, 51934, Note_on_c, 9, 42, 0
7, 51936, Note_on_c, 9, 42, 60
7, 52030, Note_on_c, 9, 42, 0
7, 52032, Note_on_c, 9, 42, 60
7, 52032, Note_on_c, 9, 52, 60
7, 52126, Note_on_c, 9, 42, 0
7, 52126, Note_on_c, 9, 52, 0
7, 52128, Note_on_c, 9, 42, 60
7, 52222, Note_on_c, 9, 42, 0
7, 52224, Note_on_c, 9, 36, 60
7, 52224, Note_on_c, 9, 42, 60
7, 52224, Note_on_c, 9, 52, 60
7, 52318, Note_on_c, 9, 36, 0
7, 52318, Note_on_c, 9, 42, 0
7, 52318, Note_on_c, 9, 52, 0
7, 52320, Note_on_c, 9, 42, 60
7, 52414, Note_on_c, 9, 42, 0
7, 52416, Note_on_c, 9, 42, 60
7, 52510, Note_on_c, 9, 42, 0
7, 52512, Note_on_c, 9, 36, 60
7, 52512, Note_on_c, 9, 42, 60
7, 52606, Note_on_c, 9, 36, 0
7, 52606, Note_on_c, 9, 42, 0
7, 52608, Note_on_c, 9, 38, 60
7, 52608, Note_on_c, 9, 42, 60
7, 52608, Note_on_c, 9, 52, 60
7, 52702, Note_on_c, 9, 38, 0
7, 52702, Note_on_c, 9, 42, 0
7, 52702, Note_on_c, 9, 52, 0
7, 52704, Note_on_c, 9, 42, 60
7, 52798, Note_on_c, 9, 42, 0
7, 52800, Note_on_c, 9, 42, 60
7, 52894, Note_on_c, 9, 42, 0
7, 52896, Note_on_c, 9, 42, 60
7, 52990, Note_on_c, 9, 42, 0
7, 52992, Note_on_c, 9, 36, 60
7, 52992, Note_on_c, 9, 42, 60
7, 52992, Note_on_c, 9, 52, 60
7, 53086, Note_on_c, 9, 36, 0
7, 53086, Note_on_c, 9, 42, 0
7, 53086, Note_on_c, 9, 52, 0
7, 53088, Note_on_c, 9, 42, 60
7, 53182, Note_on_c, 9, 42, 0
7, 53184, Note_on_c, 9, 42, 60
7, 53278, Note_on_c, 9, 42, 0
7, 53280, Note_on_c, 9, 36, 60
7, 53280, Note_on_c, 9, 42, 60
7, 53374, Note_on_c, 9, 36, 0
7, 53374, Note_on_c, 9, 42, 0
7, 53376, Note_on_c, 9, 38, 60
7, 53376, Note_on_c, 9, 42, 60
7, 53376, Note_on_c, 9, 52, 60
7, 53470, Note_on_c, 9, 38, 0
7, 53470, Note_on_c, 9, 42, 0
7, 53470, Note_on_c, 9, 52, 0
7, 53472, Note_on_c, 9, 42, 60
7, 53566, Note_on_c, 9, 42, 0
7, 53568, Note_on_c, 9, 42, 60
7, 53662, Note_on_c, 9, 42, 0
7, 53664, Note_on_c, 9, 42, 60
7, 53758, Note_on_c, 9, 42, 0
7, 53760, Control_c, 9, 7, 127
7, 53760, Note_on_c, 9, 36, 60
7, 53760, Note_on_c, 9, 42, 60
7, 53760, Note_on_c, 9, 52, 60
7, 53794, Control_c, 9, 7, 126
7, 53829, Control_c, 9, 7, 125
7, 53854, Note_on_c, 9, 36, 0
7, 53854, Note_on_c, 9, 42, 0
7, 53854, Note_on_c, 9, 52, 0
7, 53856, Note_on_c, 9, 42, 60
7, 53864, Control_c, 9, 7, 124
7, 53899, Control_c, 9, 7, 123
7, 53934, Control_c, 9, 7, 122
7, 53950, Note_on_c, 9, 42, 0
7, 53952, Note_on_c, 9, 42, 60
7, 53969, Control_c, 9, 7, 121
7, 54004, Control_c, 9, 7, 120
7, 54039, Control_c, 9, 7, 119
7, 54046, Note_on_c, 9, 42, 0
7, 54048, Note_on_c, 9, 36, 60
7, 54048, Note_on_c, 9, 42, 60
7, 54074, Control_c, 9, 7, 118
7, 54109, Control_c, 9, 7, 117
7, 54142, Note_on_c, 9, 36, 0
7, 54142, Note_on_c, 9, 42, 0
7, 54144, Control_c, 9, 7, 116
7, 54144, Note_on_c, 9, 38, 60
7, 54144, Note_on_c, 9, 42, 60
7, 54144, Note_on_c, 9, 52, 60
7, 54178, Control_c, 9, 7, 115
7, 54213, Control_c, 9, 7, 114
7, 54238, Note_on_c, 9, 38, 0
7, 54238, Note_on_c, 9, 42, 0
7, 54238, Note_on_c, 9, 52, 0
7, 54240, Note_on_c, 9, 42, 60
7, 54248, Control_c, 9, 7, 113
7, 54283, Control_c, 9, 7, 112
7, 54318, Control_c, 9, 7, 111
7, 54334, Note_on_c, 9, 42, 0
7, 54336, Note_on_c, 9, 42, 60
7, 54353, Control_c, 9, 7, 110
7, 54388, Control_c, 9, 7, 109
7, 54423, Control_c, 9, 7, 108
7, 54430, Note_on_c, 9, 42, 0
7, 54432, Note_on_c, 9, 42, 60
7, 54458, Control_c, 9, 7, 107
7, 54493, Control_c, 9, 7, 106
7, 54526, Note_on_c, 9, 42, 0
7, 54528, Control_c, 9, 7, 105
7, 54528, Note_on_c, 9, 36, 60
7, 54528, Note_on_c, 9, 42, 60
7, 54528, Note_on_c, 9, 52, 60
7, 54582, Control_c, 9, 7, 104
7, 54622, Note_on_c, 9, 36, 0
7, 54622, Note_on_c, 9, 42, 0
7, 54622, Note_on_c, 9, 52, 0
7, 54624, Note_on_c, 9, 42, 60
7, 54637, Control_c, 9, 7, 103
7, 54692, Control_c, 9, 7, 102
7, 54718, Note_on_c, 9, 42, 0
7, 54720, Note_on_c, 9, 42, 60
7, 54747, Control_c, 9, 7, 101
7, 54802, Control_c, 9, 7, 100
7, 54814, Note_on_c, 9, 42, 0
7, 54816, Note_on_c, 9, 36, 60
7, 54816, Note_on_c, 9, 42, 60
7, 54857, Control_c, 9, 7, 99
7, 54910, Note_on_c, 9, 36, 0
7, 54910, Note_on_c, 9, 42, 0
7, 54912, Control_c, 9, 7, 98
7, 54912, Note_on_c, 9, 38, 60
7, 54912, Note_on_c, 9, 42, 60
7, 54912, Note_on_c, 9, 52, 60
7, 54966, Control_c, 9, 7, 97
7, 55006, Note_on_c, 9, 38, 0
7, 55006, Note_on_c, 9, 42, 0
7, 55006, Note_on_c, 9, 52, 0
7, 55008, Note_on_c, 9, 42, 60
7, 55021, Control_c, 9, 7, 96
7, 55076, Control_c, 9, 7, 95
7, 55102, Note_on_c, 9, 42, 0
7, 55104, Note_on_c, 9, 42, 60
7, 55131, Control_c, 9, 7, 94
7, 55186, Control_c, 9, 7, 93
7, 55198, Note_on_c, 9, 42, 0
7, 55200, Note_on_c, 9, 42, 60
7, 55241, Control_c, 9, 7, 92
7, 55294, Note_on_c, 9, 42, 0
7, 55296, Control_c, 9, 7, 91
7, 55296, Note_on_c, 9, 36, 60
7, 55296, Note_on_c, 9, 42, 60
7, 55296, Note_on_c, 9, 52, 60
7, 55350, Control_c, 9, 7, 90
7, 55390, Note_on_c, 9, 36, 0
7, 55390, Note_on_c, 9, 42, 0
7, 55390, Note_on_c, 9, 52, 0
7, 55392, Note_on_c, 9, 42, 60
7, 55405, Control_c, 9, 7, 89
7, 55460, Control_c, 9, 7, 88
7, 55486, Note_on_c, 9, 42, 0
7, 55488, Note_on_c, 9, 42, 60
7, 55515, Control_c, 9, 7, 87
7, 55570, Control_c, 9, 7, 86
7, 55582, Note_on_c, 9, 42, 0
7, 55584, Note_on_c, 9, 36, 60
7, 55584, Note_on_c, 9, 42, 60
7, 55625, Control_c, 9, 7, 85
7, 55678, Note_on_c, 9, 36, 0
7, 55678, Note_on_c, 9, 42, 0
7, 55680, Control_c, 9, 7, 84
7, 55680, Note_on_c, 9, 38, 60
7, 55680, Note_on_c, 9, 42, 60
7, 55680, Note_on_c, 9, 52, 60
7, 55734, Control_c, 9, 7, 83
7, 55774, Note_on_c, 9, 38, 0
7, 55774, Note_on_c, 9, 42, 0
7, 55774, Note_on_c, 9, 52, 0
7, 55776, Note_on_c, 9, 42, 60
7, 55789, Control_c, 9, 7, 82
7, 55844, Control_c, 9, 7, 81
7, 55870, Note_on_c, 9, 42, 0
7, 55872, Note_on_c, 9, 42, 60
7, 55899, Control_c, 9, 7, 80
7, 55954, Control_c, 9, 7, 79
7, 55966, Note_on_c, 9, 42, 0
7, 55968, Note_on_c, 9, 42, 60
7, 56009, Control_c, 9, 7, 78
7, 56062, Note_on_c, 9, 42, 0
7, 56064, Control_c, 9, 7, 77
7, 56064, Control_c, 9, 7, 64
7, 56064, Note_on_c, 9, 36, 60
7, 56064, Note_on_c, 9, 42, 60
7, 56064, Note_on_c, 9, 52, 60
7, 56112, Control_c, 9, 7, 63
7, 56158, Note_on_c, 9, 36, 0
7, 56158, Note_on_c, 9, 42, 0
7, 56158, Note_on_c, 9, 52, 0
7, 56160, Control_c, 9, 7, 62
7, 56160, Note_on_c, 9, 42, 60
7, 56208, Control_c, 9, 7, 61
7, 56254, Note_on_c, 9, 42, 0
7, 56256, Control_c, 9, 7, 60
7, 56256, Note_on_c, 9, 42, 60
7, 56304, Control_c, 9, 7, 59
7, 56350, Note_on_c, 9, 42, 0
7, 56352, Control_c, 9, 7, 58
7, 56352, Note_on_c, 9, 36, 60
7, 56352, Note_on_c, 9, 42, 60
7, 56400, Control_c, 9, 7, 57
7, 56446, Note_on_c, 9, 36, 0
7, 56446, Note_on_c, 9, 42, 0
7, 56448, Control_c, 9, 7, 56
7, 56448, Note_on_c, 9, 38, 60
7, 56448, Note_on_c, 9, 42, 60
7, 56448, Note_on_c, 9, 52, 60
7, 56496, Control_c, 9, 7, 55
7, 56542, Note_on_c, 9, 38, 0
7, 56542, Note_on_c, 9, 42, 0
7, 56542, Note_on_c, 9, 52, 0
7, 56544, Control_c, 9, 7, 54
7, 56544, Note_on_c, 9, 42, 60
7, 56592, Control_c, 9, 7, 53
7, 56638, Note_on_c, 9, 42, 0
7, 56640, Control_c, 9, 7, 52
7, 56640, Note_on_c, 9, 42, 60
7, 56688, Control_c, 9, 7, 51
7, 56734, Note_on_c, 9, 42, 0
7, 56736, Control_c, 9, 7, 50
7, 56736, Note_on_c, 9, 42, 60
7, 56784, Control_c, 9, 7, 49
7, 56830, Note_on_c, 9, 42, 0
7, 56832, Control_c, 9, 7, 48
7, 56832, Note_on_c, 9, 36, 60
7, 56832, Note_on_c, 9, 42, 60
7, 56832, Note_on_c, 9, 52, 60
7, 56896, Control_c, 9, 7, 47
7, 56926, Note_on_c, 9, 36, 0
7, 56926, Note_on_c, 9, 42, 0
7, 56926, Note_on_c, 9, 52, 0
7, 56928, Note_on_c, 9, 42, 60
7, 56960, Control_c, 9, 7, 46
7, 57022, Note_on_c, 9, 42, 0
7, 57024, Control_c, 9, 7, 45
7, 57024, Note_on_c, 9, 42, 60
7, 57088, Control_c, 9, 7, 44
7, 57118, Note_on_c, 9, 42, 0
7, 57120, Note_on_c, 9, 36, 60
7, 57120, Note_on_c, 9, 42, 60
7, 57152, Control_c, 9, 7, 43
7, 57214, Note_on_c, 9, 36, 0
7, 57214, Note_on_c, 9, 42, 0
7, 57216, Control_c, 9, 7, 42
7, 57216, Note_on_c, 9, 38, 60
7, 57216, Note_on_c, 9, 42, 60
7, 57216, Note_on_c, 9, 52, 60
7, 57280, Control_c, 9, 7, 41
7, 57310, Note_on_c, 9, 38, 0
7, 57310, Note_on_c, 9, 42, 0
7, 57310, Note_on_c, 9, 52, 0
7, 57312, Note_on_c, 9, 42, 60
7, 57344, Control_c, 9, 7, 40
7, 57406, Note_on_c, 9, 42, 0
7, 57408, Control_c, 9, 7, 39
7, 57408, Note_on_c, 9, 42, 60
7, 57472, Control_c, 9, 7, 38
7, 57502, Note_on_c, 9, 42, 0
7, 57504, Note_on_c, 9, 42, 60
7, 57536, Control_c, 9, 7, 37
7, 57598, Note_on_c, 9, 42, 0
7, 57600, Control_c, 9, 7, 36
7, 57600, Note_on_c, 9, 36, 60
7, 57600, Note_on_c, 9, 42, 60
7, 57600, Note_on_c, 9, 52, 60
7, 57651, Control_c, 9, 7, 35
7, 57694, Note_on_c, 9, 36, 0
7, 57694, Note_on_c, 9, 42, 0
7, 57694, Note_on_c, 9, 52, 0
7, 57696, Note_on_c, 9, 42, 60
7, 57702, Control_c, 9, 7, 34
7, 57753, Control_c, 9, 7, 33
7, 57790, Note_on_c, 9, 42, 0
7, 57792, Note_on_c, 9, 42, 60
7, 57804, Control_c, 9, 7, 32
7, 57856, Control_c, 9, 7, 31
7, 57886, Note_on_c, 9, 42, 0
7, 57888, Note_on_c, 9, 36, 60
7, 57888, Note_on_c, 9, 42, 60
7, 57907, Control_c, 9, 7, 30
7, 57958, Control_c, 9, 7, 29
7, 57982, Note_on_c, 9, 36, 0
7, 57982, Note_on_c, 9, 42, 0
7, 57984, Note_on_c, 9, 38, 60
7, 57984, Note_on_c, 9, 42, 60
7, 57984, Note_on_c, 9, 52, 60
7, 58009, Control_c, 9, 7, 28
7, 58060, Control_c, 9, 7, 27
7, 58078, Note_on_c, 9, 38, 0
7, 58078, Note_on_c, 9, 42, 0
7, 58078, Note_on_c, 9, 52, 0
7, 58080, Note_on_c, 9, 42, 60
7, 58112, Control_c, 9, 7, 26
7, 58163, Control_c, 9, 7, 25
7, 58174, Note_on_c, 9, 42, 0
7, 58176, Note_on_c, 9, 42, 60
7, 58214, Control_c, 9, 7, 24
7, 58265, Control_c, 9, 7, 23
7, 58270, Note_on_c, 9, 42, 0
7, 58272, Note_on_c, 9, 42, 60
7, 58316, Control_c, 9, 7, 22
7, 58366, Note_on_c, 9, 42, 0
7, 58368, Control_c, 9, 7, 21
7, 58368, Note_on_c, 9, 36, 60
7, 58368, Note_on_c, 9, 38, 60
7, 58368, Note_on_c, 9, 52, 60
7, 59088, Note_on_c, 9, 36, 0
7, 59088, Note_on_c, 9, 38, 0
7, 59088, Note_on_c, 9, 52, 0
7, 59088, End_track
8, 0, Start_track
8, 0, MIDI_port, 0
8, 0, Title_t, "Strings"
8, 0, Program_c, 4, 48
8, 0, Control_c, 4, 7, 127
8, 0, Control_c, 4, 10, 64
8, 10752, Note_on_c, 4, 65, 45
8, 10752, Note_on_c, 4, 69, 45
8, 10752, Note_on_c, 4, 74, 45
8, 11136, Note_on_c, 4, 65, 0
8, 11136, Note_on_c, 4, 69, 0
8, 11136, Note_on_c, 4, 74, 0
8, 11136, Note_on_c, 4, 64, 45
8, 11136, Note_on_c, 4, 67, 45
8, 11136, Note_on_c, 4, 72, 45
8, 11520, Note_on_c, 4, 64, 0
8, 11520, Note_on_c, 4, 67, 0
8, 11520, Note_on_c, 4, 72, 0
8, 11520, Note_on_c, 4, 62, 60
8, 11520, Note_on_c, 4, 65, 60
8, 11520, Note_on_c, 4, 70, 60
8, 11904, Note_on_c, 4, 62, 0
8, 11904, Note_on_c, 4, 65, 0
8, 11904, Note_on_c, 4, 70, 0
8, 11904, Note_on_c, 4, 64, 60
8, 11904, Note_on_c, 4, 67, 60
8, 11904, Note_on_c, 4, 72, 60
8, 12192, Note_on_c, 4, 72, 0
8, 12192, Note_on_c, 4, 70, 60
8, 12240, Note_on_c, 4, 64, 0
8, 12240, Note_on_c, 4, 67, 0
8, 12288, Note_on_c, 4, 70, 0
8, 12288, Note_on_c, 4, 60, 60
8, 12288, Note_on_c, 4, 65, 60
8, 12288, Note_on_c, 4, 69, 60
8, 13216, Note_on_c, 4, 60, 0
8, 13216, Note_on_c, 4, 65, 0
8, 13216, Note_on_c, 4, 69, 0
8, 21504, Note_on_c, 4, 77, 60
8, 22432, Note_on_c, 4, 77, 0
8, 22464, Note_on_c, 4, 76, 60
8, 22558, Note_on_c, 4, 76, 0
8, 22560, Note_on_c, 4, 77, 60
8, 22654, Note_on_c, 4, 77, 0
8, 22656, Note_on_c, 4, 76, 60
8, 22750, Note_on_c, 4, 76, 0
8, 22752, Note_on_c, 4, 74, 60
8, 22846, Note_on_c, 4, 74, 0
8, 22848, Note_on_c, 4, 76, 60
8, 22942, Note_on_c, 4, 76, 0
8, 22944, Note_on_c, 4, 72, 60
8, 23038, Note_on_c, 4, 72, 0
8, 23040, Note_on_c, 4, 74, 60
8, 23902, Note_on_c, 4, 74, 0
8, 23904, Note_on_c, 4, 72, 60
8, 23998, Note_on_c, 4, 72, 0
8, 24000, Note_on_c, 4, 70, 60
8, 24094, Note_on_c, 4, 70, 0
8, 24096, Note_on_c, 4, 69, 60
8, 24190, Note_on_c, 4, 69, 0
8, 24192, Note_on_c, 4, 67, 60
8, 24286, Note_on_c, 4, 67, 0
8, 24288, Note_on_c, 4, 69, 60
8, 24382, Note_on_c, 4, 69, 0
8, 24384, Note_on_c, 4, 70, 60
8, 24478, Note_on_c, 4, 70, 0
8, 24480, Note_on_c, 4, 67, 60
8, 24574, Note_on_c, 4, 67, 0
8, 24576, Note_on_c, 4, 69, 60
8, 25504, Note_on_c, 4, 69, 0
8, 25536, Note_on_c, 4, 70, 60
8, 25630, Note_on_c, 4, 70, 0
8, 25632, Note_on_c, 4, 69, 60
8, 25726, Note_on_c, 4, 69, 0
8, 25728, Note_on_c, 4, 67, 60
8, 25822, Note_on_c, 4, 67, 0
8, 25824, Note_on_c, 4, 65, 60
8, 25918, Note_on_c, 4, 65, 0
8, 25920, Note_on_c, 4, 67, 60
8, 26014, Note_on_c, 4, 67, 0
8, 26016, Note_on_c, 4, 64, 60
8, 26110, Note_on_c, 4, 64, 0
8, 26112, Note_on_c, 4, 65, 60
8, 26158, Note_on_c, 4, 65, 0
8, 26160, Note_on_c, 4, 67, 60
8, 26206, Note_on_c, 4, 67, 0
8, 26208, Note_on_c, 4, 69, 60
8, 26832, Note_on_c, 4, 69, 0
8, 27072, Note_on_c, 4, 70, 60
8, 27166, Note_on_c, 4, 70, 0
8, 27168, Note_on_c, 4, 69, 60
8, 27262, Note_on_c, 4, 69, 0
8, 27264, Note_on_c, 4, 67, 60
8, 27358, Note_on_c, 4, 67, 0
8, 27360, Note_on_c, 4, 65, 60
8, 27454, Note_on_c, 4, 65, 0
8, 27456, Note_on_c, 4, 64, 60
8, 27550, Note_on_c, 4, 64, 0
8, 27552, Note_on_c, 4, 65, 60
8, 27646, Note_on_c, 4, 65, 0
8, 27648, Note_on_c, 4, 65, 60
8, 28576, Note_on_c, 4, 65, 0
8, 28608, Note_on_c, 4, 69, 60
8, 28768, Note_on_c, 4, 69, 0
8, 28800, Note_on_c, 4, 69, 60
8, 28960, Note_on_c, 4, 69, 0
8, 28992, Note_on_c, 4, 72, 60
8, 29152, Note_on_c, 4, 72, 0
8, 31680, Note_on_c, 4, 75, 60
8, 31840, Note_on_c, 4, 75, 0
8, 31872, Note_on_c, 4, 78, 60
8, 32032, Note_on_c, 4, 78, 0
8, 32064, Note_on_c, 4, 84, 60
8, 32224, Note_on_c, 4, 84, 0
8, 32256, Note_on_c, 4, 82, 60
8, 32512, Note_on_c, 4, 82, 0
8, 32544, Note_on_c, 4, 74, 60
8, 32638, Note_on_c, 4, 74, 0
8, 32640, Note_on_c, 4, 81, 60
8, 32734, Note_on_c, 4, 81, 0
8, 32736, Note_on_c, 4, 82, 60
8, 32830, Note_on_c, 4, 82, 0
8, 32832, Note_on_c, 4, 81, 60
8, 32926, Note_on_c, 4, 81, 0
8, 32928, Note_on_c, 4, 74, 60
8, 33022, Note_on_c, 4, 74, 0
8, 33024, Note_on_c, 4, 79, 60
8, 33744, Note_on_c, 4, 79, 0
8, 34080, Note_on_c, 4, 82, 60
8, 34174, Note_on_c, 4, 82, 0
8, 34176, Note_on_c, 4, 81, 60
8, 34270, Note_on_c, 4, 81, 0
8, 34272, Note_on_c, 4, 82, 60
8, 34366, Note_on_c, 4, 82, 0
8, 34368, Note_on_c, 4, 81, 60
8, 34462, Note_on_c, 4, 81, 0
8, 34464, Note_on_c, 4, 74, 60
8, 34558, Note_on_c, 4, 74, 0
8, 34560, Note_on_c, 4, 79, 60
8, 34896, Note_on_c, 4, 79, 0
8, 35040, Note_on_c, 4, 81, 60
8, 35086, Note_on_c, 4, 81, 0
8, 35088, Note_on_c, 4, 82, 60
8, 35134, Note_on_c, 4, 82, 0
8, 35136, Note_on_c, 4, 81, 60
8, 35182, Note_on_c, 4, 81, 0
8, 35184, Note_on_c, 4, 79, 60
8, 35230, Note_on_c, 4, 79, 0
8, 35232, Note_on_c, 4, 81, 60
8, 35278, Note_on_c, 4, 81, 0
8, 35280, Note_on_c, 4, 82, 60
8, 35326, Note_on_c, 4, 82, 0
8, 35328, Note_on_c, 4, 82, 60
8, 35566, Note_on_c, 4, 82, 0
8, 35568, Note_on_c, 4, 84, 60
8, 35614, Note_on_c, 4, 84, 0
8, 35616, Note_on_c, 4, 82, 60
8, 35662, Note_on_c, 4, 82, 0
8, 35664, Note_on_c, 4, 84, 60
8, 35710, Note_on_c, 4, 84, 0
8, 35712, Note_on_c, 4, 86, 60
8, 36334, Note_on_c, 4, 86, 0
8, 36336, Note_on_c, 4, 88, 60
8, 36382, Note_on_c, 4, 88, 0
8, 36384, Note_on_c, 4, 86, 60
8, 36430, Note_on_c, 4, 86, 0
8, 36432, Note_on_c, 4, 88, 60
8, 36478, Note_on_c, 4, 88, 0
8, 36480, Note_on_c, 4, 89, 60
8, 36816, Note_on_c, 4, 89, 0
8, 36864, Note_on_c, 4, 91, 60
8, 37392, Note_on_c, 4, 91, 0
8, 37440, Note_on_c, 4, 86, 60
8, 37600, Note_on_c, 4, 86, 0
8, 37632, Note_on_c, 4, 84, 60
8, 38400, Note_on_c, 4, 72, 60
8, 39168, Note_on_c, 4, 76, 60
8, 39888, Note_on_c, 4, 72, 0
8, 39888, Note_on_c, 4, 76, 0
8, 39888, Note_on_c, 4, 84, 0
8, 39936, Note_on_c, 4, 89, 60
8, 40864, Note_on_c, 4, 89, 0
8, 40896, Note_on_c, 4, 88, 60
8, 40990, Note_on_c, 4, 88, 0
8, 40992, Note_on_c, 4, 89, 60
8, 41086, Note_on_c, 4, 89, 0
8, 41088, Note_on_c, 4, 88, 60
8, 41182, Note_on_c, 4, 88, 0
8, 41184, Note_on_c, 4, 86, 60
8, 41278, Note_on_c, 4, 86, 0
8, 41280, Note_on_c, 4, 88, 60
8, 41374, Note_on_c, 4, 88, 0
8, 41376, Note_on_c, 4, 84, 60
8, 41470, Note_on_c, 4, 84, 0
8, 41472, Note_on_c, 4, 86, 60
8, 42334, Note_on_c, 4, 86, 0
8, 42336, Note_on_c, 4, 84, 60
8, 42430, Note_on_c, 4, 84, 0
8, 42432, Note_on_c, 4, 82, 60
8, 42526, Note_on_c, 4, 82, 0
8, 42528, Note_on_c, 4, 81, 60
8, 42622, Note_on_c, 4, 81, 0
8, 42624, Note_on_c, 4, 79, 60
8, 42718, Note_on_c, 4, 79, 0
8, 42720, Note_on_c, 4, 81, 60
8, 42814, Note_on_c, 4, 81, 0
8, 42816, Note_on_c, 4, 82, 60
8, 42910, Note_on_c, 4, 82, 0
8, 42912, Note_on_c, 4, 79, 60
8, 43006, Note_on_c, 4, 79, 0
8, 43008, Note_on_c, 4, 81, 60
8, 43936, Note_on_c, 4, 81, 0
8, 43968, Note_on_c, 4, 82, 60
8, 44062, Note_on_c, 4, 82, 0
8, 44064, Note_on_c, 4, 81, 60
8, 44158, Note_on_c, 4, 81, 0
8, 44160, Note_on_c, 4, 79, 60
8, 44254, Note_on_c, 4, 79, 0
8, 44256, Note_on_c, 4, 77, 60
8, 44350, Note_on_c, 4, 77, 0
8, 44352, Note_on_c, 4, 79, 60
8, 44446, Note_on_c, 4, 79, 0
8, 44448, Note_on_c, 4, 76, 60
8, 44542, Note_on_c, 4, 76, 0
8, 44544, Note_on_c, 4, 77, 60
8, 44590, Note_on_c, 4, 77, 0
8, 44592, Note_on_c, 4, 79, 60
8, 44638, Note_on_c, 4, 79, 0
8, 44640, Note_on_c, 4, 81, 60
8, 45264, Note_on_c, 4, 81, 0
8, 45504, Note_on_c, 4, 82, 60
8, 45598, Note_on_c, 4, 82, 0
8, 45600, Note_on_c, 4, 81, 60
8, 45694, Note_on_c, 4, 81, 0
8, 45696, Note_on_c, 4, 79, 60
8, 45790, Note_on_c, 4, 79, 0
8, 45792, Note_on_c, 4, 77, 60
8, 45886, Note_on_c, 4, 77, 0
8, 45888, Note_on_c, 4, 76, 60
8, 45982, Note_on_c, 4, 76, 0
8, 45984, Note_on_c, 4, 77, 60
8, 46078, Note_on_c, 4, 77, 0
8, 46080, Note_on_c, 4, 89, 60
8, 47008, Note_on_c, 4, 89, 0
8, 47040, Note_on_c, 4, 88, 60
8, 47134, Note_on_c, 4, 88, 0
8, 47136, Note_on_c, 4, 89, 60
8, 47230, Note_on_c, 4, 89, 0
8, 47232, Note_on_c, 4, 88, 60
8, 47326, Note_on_c, 4, 88, 0
8, 47328, Note_on_c, 4, 86, 60
8, 47422, Note_on_c, 4, 86, 0
8, 47424, Note_on_c, 4, 88, 60
8, 47518, Note_on_c, 4, 88, 0
8, 47520, Note_on_c, 4, 84, 60
8, 47614, Note_on_c, 4, 84, 0
8, 47616, Note_on_c, 4, 86, 60
8, 48478, Note_on_c, 4, 86, 0
8, 48480, Note_on_c, 4, 84, 60
8, 48574, Note_on_c, 4, 84, 0
8, 48576, Note_on_c, 4, 82, 60
8, 48670, Note_on_c, 4, 82, 0
8, 48672, Note_on_c, 4, 81, 60
8, 48766, Note_on_c, 4, 81, 0
8, 48768, Note_on_c, 4, 79, 60
8, 48862, Note_on_c, 4, 79, 0
8, 48864, Note_on_c, 4, 81, 60
8, 48958, Note_on_c, 4, 81, 0
8, 48960, Note_on_c, 4, 82, 60
8, 49054, Note_on_c, 4, 82, 0
8, 49056, Note_on_c, 4, 79, 60
8, 49150, Note_on_c, 4, 79, 0
8, 49152, Note_on_c, 4, 81, 60
8, 50080, Note_on_c, 4, 81, 0
8, 50112, Note_on_c, 4, 82, 60
8, 50206, Note_on_c, 4, 82, 0
8, 50208, Note_on_c, 4, 81, 60
8, 50302, Note_on_c, 4, 81, 0
8, 50304, Note_on_c, 4, 79, 60
8, 50398, Note_on_c, 4, 79, 0
8, 50400, Note_on_c, 4, 77, 60
8, 50494, Note_on_c, 4, 77, 0
8, 50496, Note_on_c, 4, 79, 60
8, 50590, Note_on_c, 4, 79, 0
8, 50592, Note_on_c, 4, 76, 60
8, 50686, Note_on_c, 4, 76, 0
8, 50688, Note_on_c, 4, 69, 60
8, 50688, Note_on_c, 4, 74, 60
8, 50688, Note_on_c, 4, 77, 60
8, 51072, Note_on_c, 4, 69, 0
8, 51072, Note_on_c, 4, 74, 0
8, 51072, Note_on_c, 4, 77, 0
8, 51072, Note_on_c, 4, 67, 60
8, 51072, Note_on_c, 4, 72, 60
8, 51072, Note_on_c, 4, 76, 60
8, 51456, Note_on_c, 4, 67, 0
8, 51456, Note_on_c, 4, 72, 0
8, 51456, Note_on_c, 4, 76, 0
8, 51456, Note_on_c, 4, 65, 60
8, 51456, Note_on_c, 4, 70, 60
8, 51456, Note_on_c, 4, 74, 60
8, 51840, Note_on_c, 4, 65, 0
8, 51840, Note_on_c, 4, 70, 0
8, 51840, Note_on_c, 4, 74, 0
8, 51840, Note_on_c, 4, 64, 60
8, 51840, Note_on_c, 4, 67, 60
8, 51840, Note_on_c, 4, 72, 60
8, 52224, Note_on_c, 4, 64, 0
8, 52224, Note_on_c, 4, 67, 0
8, 52224, Note_on_c, 4, 72, 0
8, 52224, Note_on_c, 4, 69, 60
8, 52224, Note_on_c, 4, 72, 60
8, 52224, Note_on_c, 4, 77, 60
8, 52608, Note_on_c, 4, 69, 0
8, 52608, Note_on_c, 4, 72, 0
8, 52608, Note_on_c, 4, 77, 0
8, 52608, Note_on_c, 4, 69, 60
8, 52608, Note_on_c, 4, 72, 60
8, 52608, Note_on_c, 4, 76, 60
8, 52992, Note_on_c, 4, 69, 0
8, 52992, Note_on_c, 4, 72, 0
8, 52992, Note_on_c, 4, 76, 0
8, 52992, Note_on_c, 4, 65, 60
8, 52992, Note_on_c, 4, 70, 60
8, 52992, Note_on_c, 4, 74, 60
8, 53376, Note_on_c, 4, 65, 0
8, 53376, Note_on_c, 4, 70, 0
8, 53376, Note_on_c, 4, 74, 0
8, 53376, Note_on_c, 4, 64, 60
8, 53376, Note_on_c, 4, 67, 60
8, 53376, Note_on_c, 4, 72, 60
8, 53760, Note_on_c, 4, 64, 0
8, 53760, Note_on_c, 4, 67, 0
8, 53760, Note_on_c, 4, 72, 0
8, 53760, Control_c, 4, 7, 127
8, 53760, Note_on_c, 4, 62, 60
8, 53760, Note_on_c, 4, 65, 60
8, 53760, Note_on_c, 4, 70, 60
8, 53794, Control_c, 4, 7, 126
8, 53829, Control_c, 4, 7, 125
8, 53864, Control_c, 4, 7, 124
8, 53899, Control_c, 4, 7, 123
8, 53934, Control_c, 4, 7, 122
8, 53969, Control_c, 4, 7, 121
8, 54004, Control_c, 4, 7, 120
8, 54039, Control_c, 4, 7, 119
8, 54074, Control_c, 4, 7, 118
8, 54109, Control_c, 4, 7, 117
8, 54144, Control_c, 4, 7, 116
8, 54144, Note_on_c, 4, 62, 0
8, 54144, Note_on_c, 4, 65, 0
8, 54144, Note_on_c, 4, 70, 0
8, 54144, Note_on_c, 4, 60, 60
8, 54144, Note_on_c, 4, 65, 60
8, 54144, Note_on_c, 4, 69, 60
8, 54178, Control_c, 4, 7, 115
8, 54213, Control_c, 4, 7, 114
8, 54248, Control_c, 4, 7, 113
8, 54283, Control_c, 4, 7, 112
8, 54318, Control_c, 4, 7, 111
8, 54353, Control_c, 4, 7, 110
8, 54388, Control_c, 4, 7, 109
8, 54423, Control_c, 4, 7, 108
8, 54458, Control_c, 4, 7, 107
8, 54493, Control_c, 4, 7, 106
8, 54528, Control_c, 4, 7, 105
8, 54528, Note_on_c, 4, 60, 0
8, 54528, Note_on_c, 4, 65, 0
8, 54528, Note_on_c, 4, 69, 0
8, 54528, Note_on_c, 4, 58, 60
8, 54528, Note_on_c, 4, 62, 60
8, 54528, Note_on_c, 4, 67, 60
8, 54582, Control_c, 4, 7, 104
8, 54637, Control_c, 4, 7, 103
8, 54692, Control_c, 4, 7, 102
8, 54747, Control_c, 4, 7, 101
8, 54802, Control_c, 4, 7, 100
8, 54857, Control_c, 4, 7, 99
8, 54912, Control_c, 4, 7, 98
8, 54912, Note_on_c, 4, 58, 0
8, 54912, Note_on_c, 4, 62, 0
8, 54912, Note_on_c, 4, 67, 0
8, 54912, Note_on_c, 4, 60, 60
8, 54912, Note_on_c, 4, 64, 60
8, 54912, Note_on_c, 4, 67, 60
8, 54966, Control_c, 4, 7, 97
8, 55021, Control_c, 4, 7, 96
8, 55076, Control_c, 4, 7, 95
8, 55131, Control_c, 4, 7, 94
8, 55186, Control_c, 4, 7, 93
8, 55241, Control_c, 4, 7, 92
8, 55296, Control_c, 4, 7, 91
8, 55296, Note_on_c, 4, 60, 0
8, 55296, Note_on_c, 4, 64, 0
8, 55296, Note_on_c, 4, 67, 0
8, 55296, Note_on_c, 4, 60, 60
8, 55296, Note_on_c, 4, 65, 60
8, 55296, Note_on_c, 4, 69, 60
8, 55350, Control_c, 4, 7, 90
8, 55405, Control_c, 4, 7, 89
8, 55460, Control_c, 4, 7, 88
8, 55515, Control_c, 4, 7, 87
8, 55570, Control_c, 4, 7, 86
8, 55625, Control_c, 4, 7, 85
8, 55680, Control_c, 4, 7, 84
8, 55680, Note_on_c, 4, 60, 0
8, 55680, Note_on_c, 4, 65, 0
8, 55680, Note_on_c, 4, 69, 0
8, 55680, Note_on_c, 4, 60, 60
8, 55680, Note_on_c, 4, 64, 60
8, 55680, Note_on_c, 4, 69, 60
8, 55734, Control_c, 4, 7, 83
8, 55789, Control_c, 4, 7, 82
8, 55844, Control_c, 4, 7, 81
8, 55899, Control_c, 4, 7, 80
8, 55954, Control_c, 4, 7, 79
8, 56009, Control_c, 4, 7, 78
8, 56064, Control_c, 4, 7, 77
8, 56064, Note_on_c, 4, 60, 0
8, 56064, Note_on_c, 4, 64, 0
8, 56064, Note_on_c, 4, 69, 0
8, 56064, Control_c, 4, 7, 64
8, 56064, Note_on_c, 4, 62, 60
8, 56064, Note_on_c, 4, 65, 60
8, 56064, Note_on_c, 4, 70, 60
8, 56112, Control_c, 4, 7, 63
8, 56160, Control_c, 4, 7, 62
8, 56208, Control_c, 4, 7, 61
8, 56256, Control_c, 4, 7, 60
8, 56304, Control_c, 4, 7, 59
8, 56352, Control_c, 4, 7, 58
8, 56400, Control_c, 4, 7, 57
8, 56448, Control_c, 4, 7, 56
8, 56448, Note_on_c, 4, 62, 0
8, 56448, Note_on_c, 4, 65, 0
8, 56448, Note_on_c, 4, 70, 0
8, 56448, Note_on_c, 4, 64, 60
8, 56448, Note_on_c, 4, 67, 60
8, 56448, Note_on_c, 4, 72, 60
8, 56496, Control_c, 4, 7, 55
8, 56544, Control_c, 4, 7, 54
8, 56592, Control_c, 4, 7, 53
8, 56640, Control_c, 4, 7, 52
8, 56688, Control_c, 4, 7, 51
8, 56736, Control_c, 4, 7, 50
8, 56784, Control_c, 4, 7, 49
8, 56832, Control_c, 4, 7, 48
8, 56832, Note_on_c, 4, 64, 0
8, 56832, Note_on_c, 4, 67, 0
8, 56832, Note_on_c, 4, 72, 0
8, 56832, Note_on_c, 4, 65, 60
8, 56832, Note_on_c, 4, 69, 60
8, 56832, Note_on_c, 4, 74, 60
8, 56896, Control_c, 4, 7, 47
8, 56960, Control_c, 4, 7, 46
8, 57024, Control_c, 4, 7, 45
8, 57088, Control_c, 4, 7, 44
8, 57152, Control_c, 4, 7, 43
8, 57216, Control_c, 4, 7, 42
8, 57216, Note_on_c, 4, 65, 0
8, 57216, Note_on_c, 4, 69, 0
8, 57216, Note_on_c, 4, 74, 0
8, 57216, Note_on_c, 4, 64, 60
8, 57216, Note_on_c, 4, 67, 60
8, 57216, Note_on_c, 4, 72, 60
8, 57280, Control_c, 4, 7, 41
8, 57344, Control_c, 4, 7, 40
8, 57408, Control_c, 4, 7, 39
8, 57472, Control_c, 4, 7, 38
8, 57536, Control_c, 4, 7, 37
8, 57600, Control_c, 4, 7, 36
8, 57600, Note_on_c, 4, 64, 0
8, 57600, Note_on_c, 4, 67, 0
8, 57600, Note_on_c, 4, 72, 0
8, 57600, Note_on_c, 4, 62, 60
8, 57600, Note_on_c, 4, 65, 60
8, 57600, Note_on_c, 4, 70, 60
8, 57651, Control_c, 4, 7, 35
8, 57702, Control_c, 4, 7, 34
8, 57753, Control_c, 4, 7, 33
8, 57804, Control_c, 4, 7, 32
8, 57856, Control_c, 4, 7, 31
8, 57907, Control_c, 4, 7, 30
8, 57958, Control_c, 4, 7, 29
8, 57984, Note_on_c, 4, 62, 0
8, 57984, Note_on_c, 4, 65, 0
8, 57984, Note_on_c, 4, 70, 0
8, 57984, Note_on_c, 4, 64, 60
8, 57984, Note_on_c, 4, 67, 60
8, 57984, Note_on_c, 4, 72, 60
8, 58009, Control_c, 4, 7, 28
8, 58060, Control_c, 4, 7, 27
8, 58112, Control_c, 4, 7, 26
8, 58163, Control_c, 4, 7, 25
8, 58214, Control_c, 4, 7, 24
8, 58265, Control_c, 4, 7, 23
8, 58316, Control_c, 4, 7, 22
8, 58368, Control_c, 4, 7, 21
8, 58368, Note_on_c, 4, 64, 0
8, 58368, Note_on_c, 4, 67, 0
8, 58368, Note_on_c, 4, 72, 0
8, 58368, Note_on_c, 4, 69, 60
8, 58368, Note_on_c, 4, 72, 60
8, 58368, Note_on_c, 4, 77, 60
8, 59136, Note_on_c, 4, 69, 0
8, 59136, Note_on_c, 4, 72, 0
8, 59136, Note_on_c, 4, 77, 0
8, 59136, End_track
9, 0, Start_track
9, 0, MIDI_port, 0
9, 0, Title_t, "Cello"
9, 0, Program_c, 5, 44
9, 0, Control_c, 5, 7, 127
9, 0, Control_c, 5, 10, 64
9, 6144, Note_on_c, 5, 53, 75
9, 6480, Note_on_c, 5, 53, 0
9, 6528, Note_on_c, 5, 52, 75
9, 6864, Note_on_c, 5, 52, 0
9, 6912, Note_on_c, 5, 50, 75
9, 7248, Note_on_c, 5, 50, 0
9, 7296, Note_on_c, 5, 48, 75
9, 7632, Note_on_c, 5, 48, 0
9, 7680, Note_on_c, 5, 46, 75
9, 8016, Note_on_c, 5, 46, 0
9, 8064, Note_on_c, 5, 45, 75
9, 8400, Note_on_c, 5, 45, 0
9, 8448, Note_on_c, 5, 43, 75
9, 8784, Note_on_c, 5, 43, 0
9, 8832, Note_on_c, 5, 48, 75
9, 9168, Note_on_c, 5, 48, 0
9, 9216, Note_on_c, 5, 53, 75
9, 9552, Note_on_c, 5, 53, 0
9, 9600, Note_on_c, 5, 52, 75
9, 9936, Note_on_c, 5, 52, 0
9, 9984, Note_on_c, 5, 50, 75
9, 10320, Note_on_c, 5, 50, 0
9, 10368, Note_on_c, 5, 48, 75
9, 10704, Note_on_c, 5, 48, 0
9, 10752, Note_on_c, 5, 50, 75
9, 11088, Note_on_c, 5, 50, 0
9, 11136, Note_on_c, 5, 48, 75
9, 11472, Note_on_c, 5, 48, 0
9, 11520, Note_on_c, 5, 46, 75
9, 11856, Note_on_c, 5, 46, 0
9, 11904, Note_on_c, 5, 48, 75
9, 12240, Note_on_c, 5, 48, 0
9, 12288, Note_on_c, 5, 41, 75
9, 12816, Note_on_c, 5, 41, 0
9, 12864, Note_on_c, 5, 40, 75
9, 13024, Note_on_c, 5, 40, 0
9, 13056, Note_on_c, 5, 38, 75
9, 13584, Note_on_c, 5, 38, 0
9, 13632, Note_on_c, 5, 36, 75
9, 13792, Note_on_c, 5, 36, 0
9, 19968, Note_on_c, 5, 46, 75
9, 20304, Note_on_c, 5, 46, 0
9, 20352, Note_on_c, 5, 45, 75
9, 20688, Note_on_c, 5, 45, 0
9, 20736, Note_on_c, 5, 43, 75
9, 21072, Note_on_c, 5, 43, 0
9, 21120, Note_on_c, 5, 48, 75
9, 21456, Note_on_c, 5, 48, 0
9, 21504, Note_on_c, 5, 65, 75
9, 22432, Note_on_c, 5, 65, 0
9, 22464, Note_on_c, 5, 64, 75
9, 22558, Note_on_c, 5, 64, 0
9, 22560, Note_on_c, 5, 65, 75
9, 22654, Note_on_c, 5, 65, 0
9, 22656, Note_on_c, 5, 64, 75
9, 22750, Note_on_c, 5, 64, 0
9, 22752, Note_on_c, 5, 62, 75
9, 22846, Note_on_c, 5, 62, 0
9, 22848, Note_on_c, 5, 64, 75
9, 22942, Note_on_c, 5, 64, 0
9, 22944, Note_on_c, 5, 60, 75
9, 23038, Note_on_c, 5, 60, 0
9, 23040, Note_on_c, 5, 62, 75
9, 23902, Note_on_c, 5, 62, 0
9, 23904, Note_on_c, 5, 60, 75
9, 23998, Note_on_c, 5, 60, 0
9, 24000, Note_on_c, 5, 58, 75
9, 24094, Note_on_c, 5, 58, 0
9, 24096, Note_on_c, 5, 57, 75
9, 24190, Note_on_c, 5, 57, 0
9, 24192, Note_on_c, 5, 55, 75
9, 24286, Note_on_c, 5, 55, 0
9, 24288, Note_on_c, 5, 57, 75
9, 24382, Note_on_c, 5, 57, 0
9, 24384, Note_on_c, 5, 58, 75
9, 24478, Note_on_c, 5, 58, 0
9, 24480, Note_on_c, 5, 55, 75
9, 24574, Note_on_c, 5, 55, 0
9, 24576, Note_on_c, 5, 57, 75
9, 25504, Note_on_c, 5, 57, 0
9, 25536, Note_on_c, 5, 58, 75
9, 25630, Note_on_c, 5, 58, 0
9, 25632, Note_on_c, 5, 57, 75
9, 25726, Note_on_c, 5, 57, 0
9, 25728, Note_on_c, 5, 55, 75
9, 25822, Note_on_c, 5, 55, 0
9, 25824, Note_on_c, 5, 53, 75
9, 25918, Note_on_c, 5, 53, 0
9, 25920, Note_on_c, 5, 55, 75
9, 26014, Note_on_c, 5, 55, 0
9, 26016, Note_on_c, 5, 52, 75
9, 26110, Note_on_c, 5, 52, 0
9, 26112, Note_on_c, 5, 53, 75
9, 26158, Note_on_c, 5, 53, 0
9, 26160, Note_on_c, 5, 55, 75
9, 26206, Note_on_c, 5, 55, 0
9, 26208, Note_on_c, 5, 57, 75
9, 26832, Note_on_c, 5, 57, 0
9, 27072, Note_on_c, 5, 58, 75
9, 27166, Note_on_c, 5, 58, 0
9, 27168, Note_on_c, 5, 57, 75
9, 27262, Note_on_c, 5, 57, 0
9, 27264, Note_on_c, 5, 55, 75
9, 27358, Note_on_c, 5, 55, 0
9, 27360, Note_on_c, 5, 53, 75
9, 27454, Note_on_c, 5, 53, 0
9, 27456, Note_on_c, 5, 52, 75
9, 27550, Note_on_c, 5, 52, 0
9, 27552, Note_on_c, 5, 53, 75
9, 27646, Note_on_c, 5, 53, 0
9, 27648, Note_on_c, 5, 53, 75
9, 28176, Note_on_c, 5, 53, 0
9, 28224, Note_on_c, 5, 52, 75
9, 28384, Note_on_c, 5, 52, 0
9, 28416, Note_on_c, 5, 50, 75
9, 28944, Note_on_c, 5, 50, 0
9, 28992, Note_on_c, 5, 48, 75
9, 29152, Note_on_c, 5, 48, 0
9, 29184, Note_on_c, 5, 46, 75
9, 29520, Note_on_c, 5, 46, 0
9, 29568, Note_on_c, 5, 58, 75
9, 29728, Note_on_c, 5, 58, 0
9, 29760, Note_on_c, 5, 57, 75
9, 29920, Note_on_c, 5, 57, 0
9, 29952, Note_on_c, 5, 55, 75
9, 30288, Note_on_c, 5, 55, 0
9, 30336, Note_on_c, 5, 53, 75
9, 30592, Note_on_c, 5, 53, 0
9, 30624, Note_on_c, 5, 51, 75
9, 30718, Note_on_c, 5, 51, 0
9, 30720, Note_on_c, 5, 50, 75
9, 31056, Note_on_c, 5, 50, 0
9, 31104, Note_on_c, 5, 62, 75
9, 31264, Note_on_c, 5, 62, 0
9, 31296, Note_on_c, 5, 60, 75
9, 31456, Note_on_c, 5, 60, 0
9, 31488, Note_on_c, 5, 59, 75
9, 31648, Note_on_c, 5, 59, 0
9, 31680, Note_on_c, 5, 60, 75
9, 31840, Note_on_c, 5, 60, 0
9, 31872, Note_on_c, 5, 54, 75
9, 32208, Note_on_c, 5, 54, 0
9, 32256, Note_on_c, 5, 55, 75
9, 32592, Note_on_c, 5, 55, 0
9, 32640, Note_on_c, 5, 53, 75
9, 32976, Note_on_c, 5, 53, 0
9, 33024, Note_on_c, 5, 51, 75
9, 33360, Note_on_c, 5, 51, 0
9, 33408, Note_on_c, 5, 50, 75
9, 33744, Note_on_c, 5, 50, 0
9, 33792, Note_on_c, 5, 55, 75
9, 34128, Note_on_c, 5, 55, 0
9, 34176, Note_on_c, 5, 53, 75
9, 34512, Note_on_c, 5, 53, 0
9, 34560, Note_on_c, 5, 51, 75
9, 34896, Note_on_c, 5, 51, 0
9, 34944, Note_on_c, 5, 53, 75
9, 35280, Note_on_c, 5, 53, 0
9, 35328, Note_on_c, 5, 46, 75
9, 35422, Note_on_c, 5, 46, 0
9, 35424, Note_on_c, 5, 46, 75
9, 35518, Note_on_c, 5, 46, 0
9, 35520, Note_on_c, 5, 46, 75
9, 35614, Note_on_c, 5, 46, 0
9, 35616, Note_on_c, 5, 46, 75
9, 35710, Note_on_c, 5, 46, 0
9, 35712, Note_on_c, 5, 46, 75
9, 35806, Note_on_c, 5, 46, 0
9, 35808, Note_on_c, 5, 46, 75
9, 35902, Note_on_c, 5, 46, 0
9, 35904, Note_on_c, 5, 46, 75
9, 35998, Note_on_c, 5, 46, 0
9, 36000, Note_on_c, 5, 46, 75
9, 36094, Note_on_c, 5, 46, 0
9, 36096, Note_on_c, 5, 45, 75
9, 36190, Note_on_c, 5, 45, 0
9, 36192, Note_on_c, 5, 45, 75
9, 36286, Note_on_c, 5, 45, 0
9, 36288, Note_on_c, 5, 45, 75
9, 36382, Note_on_c, 5, 45, 0
9, 36384, Note_on_c, 5, 45, 75
9, 36478, Note_on_c, 5, 45, 0
9, 36480, Note_on_c, 5, 57, 75
9, 36574, Note_on_c, 5, 57, 0
9, 36576, Note_on_c, 5, 57, 75
9, 36670, Note_on_c, 5, 57, 0
9, 36672, Note_on_c, 5, 45, 75
9, 36766, Note_on_c, 5, 45, 0
9, 36768, Note_on_c, 5, 45, 75
9, 36862, Note_on_c, 5, 45, 0
9, 36864, Note_on_c, 5, 43, 75
9, 36958, Note_on_c, 5, 43, 0
9, 36960, Note_on_c, 5, 43, 75
9, 37054, Note_on_c, 5, 43, 0
9, 37056, Note_on_c, 5, 43, 75
9, 37150, Note_on_c, 5, 43, 0
9, 37152, Note_on_c, 5, 43, 75
9, 37246, Note_on_c, 5, 43, 0
9, 37248, Note_on_c, 5, 55, 75
9, 37408, Note_on_c, 5, 55, 0
9, 37440, Note_on_c, 5, 53, 75
9, 37600, Note_on_c, 5, 53, 0
9, 37632, Note_on_c, 5, 52, 75
9, 37968, Note_on_c, 5, 52, 0
9, 38016, Note_on_c, 5, 53, 75
9, 38352, Note_on_c, 5, 53, 0
9, 38400, Note_on_c, 5, 60, 75
9, 39120, Note_on_c, 5, 60, 0
9, 39168, Note_on_c, 5, 48, 75
9, 39888, Note_on_c, 5, 48, 0
9, 39936, Note_on_c, 5, 53, 75
9, 40272, Note_on_c, 5, 53, 0
9, 40320, Note_on_c, 5, 52, 75
9, 40656, Note_on_c, 5, 52, 0
9, 40704, Note_on_c, 5, 50, 75
9, 41040, Note_on_c, 5, 50, 0
9, 41088, Note_on_c, 5, 48, 75
9, 41424, Note_on_c, 5, 48, 0
9, 41472, Note_on_c, 5, 46, 75
9, 41808, Note_on_c, 5, 46, 0
9, 41856, Note_on_c, 5, 45, 75
9, 42192, Note_on_c, 5, 45, 0
9, 42240, Note_on_c, 5, 43, 75
9, 42576, Note_on_c, 5, 43, 0
9, 42624, Note_on_c, 5, 48, 75
9, 42960, Note_on_c, 5, 48, 0
9, 43008, Note_on_c, 5, 53, 75
9, 43344, Note_on_c, 5, 53, 0
9, 43392, Note_on_c, 5, 52, 75
9, 43728, Note_on_c, 5, 52, 0
9, 43776, Note_on_c, 5, 50, 75
9, 44112, Note_on_c, 5, 50, 0
9, 44160, Note_on_c, 5, 48, 75
9, 44496, Note_on_c, 5, 48, 0
9, 44544, Note_on_c, 5, 50, 75
9, 44880, Note_on_c, 5, 50, 0
9, 44928, Note_on_c, 5, 48, 75
9, 45264, Note_on_c, 5, 48, 0
9, 45312, Note_on_c, 5, 46, 75
9, 45648, Note_on_c, 5, 46, 0
9, 45696, Note_on_c, 5, 48, 75
9, 46032, Note_on_c, 5, 48, 0
9, 46080, Note_on_c, 5, 53, 75
9, 46416, Note_on_c, 5, 53, 0
9, 46464, Note_on_c, 5, 52, 75
9, 46800, Note_on_c, 5, 52, 0
9, 46848, Note_on_c, 5, 50, 75
9, 47184, Note_on_c, 5, 50, 0
9, 47232, Note_on_c, 5, 48, 75
9, 47568, Note_on_c, 5, 48, 0
9, 47616, Note_on_c, 5, 46, 75
9, 47952, Note_on_c, 5, 46, 0
9, 48000, Note_on_c, 5, 45, 75
9, 48336, Note_on_c, 5, 45, 0
9, 48384, Note_on_c, 5, 43, 75
9, 48720, Note_on_c, 5, 43, 0
9, 48768, Note_on_c, 5, 48, 75
9, 49104, Note_on_c, 5, 48, 0
9, 49152, Note_on_c, 5, 53, 75
9, 49488, Note_on_c, 5, 53, 0
9, 49536, Note_on_c, 5, 52, 75
9, 49872, Note_on_c, 5, 52, 0
9, 49920, Note_on_c, 5, 50, 75
9, 50256, Note_on_c, 5, 50, 0
9, 50304, Note_on_c, 5, 48, 75
9, 50640, Note_on_c, 5, 48, 0
9, 50688, Note_on_c, 5, 50, 75
9, 51024, Note_on_c, 5, 50, 0
9, 51072, Note_on_c, 5, 48, 75
9, 51408, Note_on_c, 5, 48, 0
9, 51456, Note_on_c, 5, 46, 75
9, 51792, Note_on_c, 5, 46, 0
9, 51840, Note_on_c, 5, 48, 75
9, 52176, Note_on_c, 5, 48, 0
9, 52224, Note_on_c, 5, 53, 75
9, 52560, Note_on_c, 5, 53, 0
9, 52608, Note_on_c, 5, 52, 75
9, 52944, Note_on_c, 5, 52, 0
9, 52992, Note_on_c, 5, 50, 75
9, 53328, Note_on_c, 5, 50, 0
9, 53376, Note_on_c, 5, 48, 75
9, 53712, Note_on_c, 5, 48, 0
9, 53760, Control_c, 5, 7, 127
9, 53760, Note_on_c, 5, 46, 75
9, 53794, Control_c, 5, 7, 126
9, 53829, Control_c, 5, 7, 125
9, 53864, Control_c, 5, 7, 124
9, 53899, Control_c, 5, 7, 123
9, 53934, Control_c, 5, 7, 122
9, 53969, Control_c, 5, 7, 121
9, 54004, Control_c, 5, 7, 120
9, 54039, Control_c, 5, 7, 119
9, 54074, Control_c, 5, 7, 118
9, 54096, Note_on_c, 5, 46, 0
9, 54109, Control_c, 5, 7, 117
9, 54144, Control_c, 5, 7, 116
9, 54144, Note_on_c, 5, 45, 75
9, 54178, Control_c, 5, 7, 115
9, 54213, Control_c, 5, 7, 114
9, 54248, Control_c, 5, 7, 113
9, 54283, Control_c, 5, 7, 112
9, 54318, Control_c, 5, 7, 111
9, 54353, Control_c, 5, 7, 110
9, 54388, Control_c, 5, 7, 109
9, 54423, Control_c, 5, 7, 108
9, 54458, Control_c, 5, 7, 107
9, 54480, Note_on_c, 5, 45, 0
9, 54493, Control_c, 5, 7, 106
9, 54528, Control_c, 5, 7, 105
9, 54528, Note_on_c, 5, 43, 75
9, 54582, Control_c, 5, 7, 104
9, 54637, Control_c, 5, 7, 103
9, 54692, Control_c, 5, 7, 102
9, 54747, Control_c, 5, 7, 101
9, 54802, Control_c, 5, 7, 100
9, 54857, Control_c, 5, 7, 99
9, 54864, Note_on_c, 5, 43, 0
9, 54912, Control_c, 5, 7, 98
9, 54912, Note_on_c, 5, 48, 75
9, 54966, Control_c, 5, 7, 97
9, 55021, Control_c, 5, 7, 96
9, 55076, Control_c, 5, 7, 95
9, 55131, Control_c, 5, 7, 94
9, 55186, Control_c, 5, 7, 93
9, 55241, Control_c, 5, 7, 92
9, 55248, Note_on_c, 5, 48, 0
9, 55296, Control_c, 5, 7, 91
9, 55296, Note_on_c, 5, 53, 75
9, 55350, Control_c, 5, 7, 90
9, 55405, Control_c, 5, 7, 89
9, 55460, Control_c, 5, 7, 88
9, 55515, Control_c, 5, 7, 87
9, 55570, Control_c, 5, 7, 86
9, 55625, Control_c, 5, 7, 85
9, 55632, Note_on_c, 5, 53, 0
9, 55680, Control_c, 5, 7, 84
9, 55680, Note_on_c, 5, 52, 75
9, 55734, Control_c, 5, 7, 83
9, 55789, Control_c, 5, 7, 82
9, 55844, Control_c, 5, 7, 81
9, 55899, Control_c, 5, 7, 80
9, 55954, Control_c, 5, 7, 79
9, 56009, Control_c, 5, 7, 78
9, 56016, Note_on_c, 5, 52, 0
9, 56064, Control_c, 5, 7, 77
9, 56064, Control_c, 5, 7, 64
9, 56064, Note_on_c, 5, 50, 75
9, 56112, Control_c, 5, 7, 63
9, 56160, Control_c, 5, 7, 62
9, 56208, Control_c, 5, 7, 61
9, 56256, Control_c, 5, 7, 60
9, 56304, Control_c, 5, 7, 59
9, 56352, Control_c, 5, 7, 58
9, 56400, Control_c, 5, 7, 57
9, 56400, Note_on_c, 5, 50, 0
9, 56448, Control_c, 5, 7, 56
9, 56448, Note_on_c, 5, 48, 75
9, 56496, Control_c, 5, 7, 55
9, 56544, Control_c, 5, 7, 54
9, 56592, Control_c, 5, 7, 53
9, 56640, Control_c, 5, 7, 52
9, 56688, Control_c, 5, 7, 51
9, 56736, Control_c, 5, 7, 50
9, 56784, Control_c, 5, 7, 49
9, 56784, Note_on_c, 5, 48, 0
9, 56832, Control_c, 5, 7, 48
9, 56832, Note_on_c, 5, 50, 75
9, 56896, Control_c, 5, 7, 47
9, 56960, Control_c, 5, 7, 46
9, 57024, Control_c, 5, 7, 45
9, 57088, Control_c, 5, 7, 44
9, 57152, Control_c, 5, 7, 43
9, 57168, Note_on_c, 5, 50, 0
9, 57216, Control_c, 5, 7, 42
9, 57216, Note_on_c, 5, 48, 75
9, 57280, Control_c, 5, 7, 41
9, 57344, Control_c, 5, 7, 40
9, 57408, Control_c, 5, 7, 39
9, 57472, Control_c, 5, 7, 38
9, 57536, Control_c, 5, 7, 37
9, 57552, Note_on_c, 5, 48, 0
9, 57600, Control_c, 5, 7, 36
9, 57600, Note_on_c, 5, 46, 75
9, 57651, Control_c, 5, 7, 35
9, 57702, Control_c, 5, 7, 34
9, 57753, Control_c, 5, 7, 33
9, 57804, Control_c, 5, 7, 32
9, 57856, Control_c, 5, 7, 31
9, 57907, Control_c, 5, 7, 30
9, 57936, Note_on_c, 5, 46, 0
9, 57958, Control_c, 5, 7, 29
9, 57984, Note_on_c, 5, 48, 75
9, 58009, Control_c, 5, 7, 28
9, 58060, Control_c, 5, 7, 27
9, 58112, Control_c, 5, 7, 26
9, 58163, Control_c, 5, 7, 25
9, 58214, Control_c, 5, 7, 24
9, 58265, Control_c, 5, 7, 23
9, 58316, Control_c, 5, 7, 22
9, 58320, Note_on_c, 5, 48, 0
9, 58368, Control_c, 5, 7, 21
9, 58368, Note_on_c, 5, 41, 75
9, 59088, Note_on_c, 5, 41, 0
9, 59088, End_track
10, 0, Start_track
10, 0, MIDI_port, 0
10, 0, Title_t, "Elegy"
10, 0, Program_c, 6, 17
10, 0, Control_c, 6, 7, 127
10, 0, Control_c, 6, 10, 64
10, 1536, Note_on_c, 6, 65, 45
10, 1536, Note_on_c, 6, 70, 45
10, 1536, Note_on_c, 6, 74, 45
10, 1920, Note_on_c, 6, 65, 0
10, 1920, Note_on_c, 6, 70, 0
10, 1920, Note_on_c, 6, 74, 0
10, 1920, Note_on_c, 6, 62, 45
10, 1920, Note_on_c, 6, 65, 45
10, 1920, Note_on_c, 6, 69, 45
10, 2304, Note_on_c, 6, 62, 0
10, 2304, Note_on_c, 6, 65, 0
10, 2304, Note_on_c, 6, 69, 0
10, 2304, Note_on_c, 6, 62, 45
10, 2304, Note_on_c, 6, 67, 45
10, 2304, Note_on_c, 6, 70, 45
10, 2688, Note_on_c, 6, 62, 0
10, 2688, Note_on_c, 6, 67, 0
10, 2688, Note_on_c, 6, 70, 0
10, 2688, Note_on_c, 6, 64, 45
10, 2688, Note_on_c, 6, 67, 45
10, 2688, Note_on_c, 6, 72, 45
10, 3072, Note_on_c, 6, 64, 0
10, 3072, Note_on_c, 6, 67, 0
10, 3072, Note_on_c, 6, 72, 0
10, 3072, Note_on_c, 6, 60, 45
10, 3072, Note_on_c, 6, 65, 45
10, 3456, Note_on_c, 6, 60, 0
10, 3456, Note_on_c, 6, 65, 0
10, 3456, Note_on_c, 6, 69, 45
10, 3456, Note_on_c, 6, 72, 45
10, 3840, Note_on_c, 6, 69, 0
10, 3840, Note_on_c, 6, 72, 0
10, 3840, Note_on_c, 6, 65, 45
10, 3840, Note_on_c, 6, 70, 45
10, 3840, Note_on_c, 6, 74, 45
10, 4224, Note_on_c, 6, 65, 0
10, 4224, Note_on_c, 6, 70, 0
10, 4224, Note_on_c, 6, 74, 0
10, 4224, Note_on_c, 6, 67, 45
10, 4224, Note_on_c, 6, 72, 45
10, 4224, Note_on_c, 6, 76, 45
10, 4608, Note_on_c, 6, 67, 0
10, 4608, Note_on_c, 6, 72, 0
10, 4608, Note_on_c, 6, 76, 0
10, 4608, Note_on_c, 6, 69, 45
10, 4608, Note_on_c, 6, 74, 45
10, 4608, Note_on_c, 6, 77, 45
10, 4992, Note_on_c, 6, 69, 0
10, 4992, Note_on_c, 6, 74, 0
10, 4992, Note_on_c, 6, 77, 0
10, 4992, Note_on_c, 6, 67, 45
10, 4992, Note_on_c, 6, 72, 45
10, 4992, Note_on_c, 6, 76, 45
10, 5248, Note_on_c, 6, 76, 0
10, 5280, Note_on_c, 6, 72, 45
10, 5328, Note_on_c, 6, 67, 0
10, 5328, Note_on_c, 6, 72, 0
10, 5374, Note_on_c, 6, 72, 0
10, 5376, Note_on_c, 6, 65, 45
10, 5376, Note_on_c, 6, 70, 45
10, 5376, Note_on_c, 6, 74, 45
10, 5632, Note_on_c, 6, 74, 0
10, 5664, Note_on_c, 6, 72, 45
10, 5712, Note_on_c, 6, 65, 0
10, 5712, Note_on_c, 6, 70, 0
10, 5758, Note_on_c, 6, 72, 0
10, 5760, Note_on_c, 6, 70, 45
10, 5854, Note_on_c, 6, 70, 0
10, 5856, Note_on_c, 6, 69, 45
10, 5950, Note_on_c, 6, 69, 0
10, 5952, Note_on_c, 6, 67, 45
10, 6046, Note_on_c, 6, 67, 0
10, 6048, Note_on_c, 6, 65, 45
10, 6142, Note_on_c, 6, 65, 0
10, 6240, Note_on_c, 6, 60, 75
10, 6334, Note_on_c, 6, 60, 0
10, 6336, Note_on_c, 6, 69, 75
10, 6430, Note_on_c, 6, 69, 0
10, 6432, Note_on_c, 6, 65, 75
10, 6526, Note_on_c, 6, 65, 0
10, 6624, Note_on_c, 6, 60, 75
10, 6718, Note_on_c, 6, 60, 0
10, 6720, Note_on_c, 6, 69, 75
10, 6814, Note_on_c, 6, 69, 0
10, 6816, Note_on_c, 6, 65, 75
10, 6910, Note_on_c, 6, 65, 0
10, 7008, Note_on_c, 6, 58, 75
10, 7102, Note_on_c, 6, 58, 0
10, 7104, Note_on_c, 6, 70, 75
10, 7198, Note_on_c, 6, 70, 0
10, 7200, Note_on_c, 6, 65, 75
10, 7294, Note_on_c, 6, 65, 0
10, 7392, Note_on_c, 6, 57, 75
10, 7486, Note_on_c, 6, 57, 0
10, 7488, Note_on_c, 6, 69, 75
10, 7582, Note_on_c, 6, 69, 0
10, 7584, Note_on_c, 6, 65, 75
10, 7678, Note_on_c, 6, 65, 0
10, 7776, Note_on_c, 6, 53, 75
10, 7870, Note_on_c, 6, 53, 0
10, 7872, Note_on_c, 6, 62, 75
10, 7966, Note_on_c, 6, 62, 0
10, 7968, Note_on_c, 6, 58, 75
10, 8062, Note_on_c, 6, 58, 0
10, 8160, Note_on_c, 6, 53, 75
10, 8254, Note_on_c, 6, 53, 0
10, 8256, Note_on_c, 6, 62, 75
10, 8350, Note_on_c, 6, 62, 0
10, 8352, Note_on_c, 6, 58, 75
10, 8446, Note_on_c, 6, 58, 0
10, 8544, Note_on_c, 6, 58, 75
10, 8638, Note_on_c, 6, 58, 0
10, 8640, Note_on_c, 6, 62, 75
10, 8734, Note_on_c, 6, 62, 0
10, 8736, Note_on_c, 6, 58, 75
10, 8830, Note_on_c, 6, 58, 0
10, 8928, Note_on_c, 6, 64, 75
10, 9022, Note_on_c, 6, 64, 0
10, 9024, Note_on_c, 6, 67, 75
10, 9118, Note_on_c, 6, 67, 0
10, 9120, Note_on_c, 6, 64, 75
10, 9214, Note_on_c, 6, 64, 0
10, 9312, Note_on_c, 6, 60, 75
10, 9406, Note_on_c, 6, 60, 0
10, 9408, Note_on_c, 6, 69, 75
10, 9502, Note_on_c, 6, 69, 0
10, 9504, Note_on_c, 6, 65, 75
10, 9598, Note_on_c, 6, 65, 0
10, 9696, Note_on_c, 6, 60, 75
10, 9790, Note_on_c, 6, 60, 0
10, 9792, Note_on_c, 6, 69, 75
10, 9886, Note_on_c, 6, 69, 0
10, 9888, Note_on_c, 6, 65, 75
10, 9982, Note_on_c, 6, 65, 0
10, 10080, Note_on_c, 6, 58, 75
10, 10174, Note_on_c, 6, 58, 0
10, 10176, Note_on_c, 6, 65, 75
10, 10270, Note_on_c, 6, 65, 0
10, 10272, Note_on_c, 6, 62, 75
10, 10366, Note_on_c, 6, 62, 0
10, 10464, Note_on_c, 6, 58, 75
10, 10558, Note_on_c, 6, 58, 0
10, 10560, Note_on_c, 6, 64, 75
10, 10654, Note_on_c, 6, 64, 0
10, 10656, Note_on_c, 6, 60, 75
10, 10750, Note_on_c, 6, 60, 0
10, 10848, Note_on_c, 6, 57, 75
10, 10942, Note_on_c, 6, 57, 0
10, 10944, Note_on_c, 6, 65, 75
10, 11038, Note_on_c, 6, 65, 0
10, 11040, Note_on_c, 6, 62, 75
10, 11134, Note_on_c, 6, 62, 0
10, 11232, Note_on_c, 6, 57, 75
10, 11326, Note_on_c, 6, 57, 0
10, 11328, Note_on_c, 6, 64, 75
10, 11422, Note_on_c, 6, 64, 0
10, 11424, Note_on_c, 6, 60, 75
10, 11518, Note_on_c, 6, 60, 0
10, 11616, Note_on_c, 6, 58, 75
10, 11710, Note_on_c, 6, 58, 0
10, 11712, Note_on_c, 6, 62, 75
10, 11806, Note_on_c, 6, 62, 0
10, 11808, Note_on_c, 6, 65, 75
10, 11902, Note_on_c, 6, 65, 0
10, 11904, Note_on_c, 6, 64, 75
10, 11998, Note_on_c, 6, 64, 0
10, 12000, Note_on_c, 6, 55, 75
10, 12094, Note_on_c, 6, 55, 0
10, 12096, Note_on_c, 6, 60, 75
10, 12190, Note_on_c, 6, 60, 0
10, 12192, Note_on_c, 6, 58, 75
10, 12286, Note_on_c, 6, 58, 0
10, 12288, Note_on_c, 6, 57, 75
10, 12382, Note_on_c, 6, 57, 0
10, 12384, Note_on_c, 6, 60, 75
10, 12478, Note_on_c, 6, 60, 0
10, 12480, Note_on_c, 6, 65, 75
10, 12574, Note_on_c, 6, 65, 0
10, 12576, Note_on_c, 6, 60, 75
10, 12670, Note_on_c, 6, 60, 0
10, 12672, Note_on_c, 6, 69, 75
10, 12766, Note_on_c, 6, 69, 0
10, 12768, Note_on_c, 6, 65, 75
10, 12862, Note_on_c, 6, 65, 0
10, 12864, Note_on_c, 6, 60, 75
10, 12958, Note_on_c, 6, 60, 0
10, 12960, Note_on_c, 6, 57, 75
10, 13054, Note_on_c, 6, 57, 0
10, 13056, Note_on_c, 6, 57, 75
10, 13150, Note_on_c, 6, 57, 0
10, 13152, Note_on_c, 6, 62, 75
10, 13246, Note_on_c, 6, 62, 0
10, 13248, Note_on_c, 6, 65, 75
10, 13342, Note_on_c, 6, 65, 0
10, 13344, Note_on_c, 6, 62, 75
10, 13438, Note_on_c, 6, 62, 0
10, 13440, Note_on_c, 6, 69, 75
10, 13534, Note_on_c, 6, 69, 0
10, 13536, Note_on_c, 6, 65, 75
10, 13630, Note_on_c, 6, 65, 0
10, 13632, Note_on_c, 6, 64, 75
10, 13726, Note_on_c, 6, 64, 0
10, 13728, Note_on_c, 6, 60, 75
10, 13822, Note_on_c, 6, 60, 0
10, 21600, Note_on_c, 6, 60, 75
10, 21694, Note_on_c, 6, 60, 0
10, 21696, Note_on_c, 6, 69, 75
10, 21790, Note_on_c, 6, 69, 0
10, 21792, Note_on_c, 6, 65, 75
10, 21886, Note_on_c, 6, 65, 0
10, 21984, Note_on_c, 6, 60, 75
10, 22078, Note_on_c, 6, 60, 0
10, 22080, Note_on_c, 6, 69, 75
10, 22174, Note_on_c, 6, 69, 0
10, 22176, Note_on_c, 6, 65, 75
10, 22270, Note_on_c, 6, 65, 0
10, 22368, Note_on_c, 6, 58, 75
10, 22462, Note_on_c, 6, 58, 0
10, 22464, Note_on_c, 6, 70, 75
10, 22558, Note_on_c, 6, 70, 0
10, 22560, Note_on_c, 6, 65, 75
10, 22654, Note_on_c, 6, 65, 0
10, 22752, Note_on_c, 6, 57, 75
10, 22846, Note_on_c, 6, 57, 0
10, 22848, Note_on_c, 6, 69, 75
10, 22942, Note_on_c, 6, 69, 0
10, 22944, Note_on_c, 6, 65, 75
10, 23038, Note_on_c, 6, 65, 0
10, 23136, Note_on_c, 6, 53, 75
10, 23230, Note_on_c, 6, 53, 0
10, 23232, Note_on_c, 6, 62, 75
10, 23326, Note_on_c, 6, 62, 0
10, 23328, Note_on_c, 6, 58, 75
10, 23422, Note_on_c, 6, 58, 0
10, 23520, Note_on_c, 6, 53, 75
10, 23614, Note_on_c, 6, 53, 0
10, 23616, Note_on_c, 6, 62, 75
10, 23710, Note_on_c, 6, 62, 0
10, 23712, Note_on_c, 6, 58, 75
10, 23806, Note_on_c, 6, 58, 0
10, 23904, Note_on_c, 6, 58, 75
10, 23998, Note_on_c, 6, 58, 0
10, 24000, Note_on_c, 6, 62, 75
10, 24094, Note_on_c, 6, 62, 0
10, 24096, Note_on_c, 6, 58, 75
10, 24190, Note_on_c, 6, 58, 0
10, 24288, Note_on_c, 6, 64, 75
10, 24382, Note_on_c, 6, 64, 0
10, 24384, Note_on_c, 6, 67, 75
10, 24478, Note_on_c, 6, 67, 0
10, 24480, Note_on_c, 6, 64, 75
10, 24574, Note_on_c, 6, 64, 0
10, 24672, Note_on_c, 6, 60, 75
10, 24766, Note_on_c, 6, 60, 0
10, 24768, Note_on_c, 6, 69, 75
10, 24862, Note_on_c, 6, 69, 0
10, 24864, Note_on_c, 6, 65, 75
10, 24958, Note_on_c, 6, 65, 0
10, 25056, Note_on_c, 6, 60, 75
10, 25150, Note_on_c, 6, 60, 0
10, 25152, Note_on_c, 6, 69, 75
10, 25246, Note_on_c, 6, 69, 0
10, 25248, Note_on_c, 6, 65, 75
10, 25342, Note_on_c, 6, 65, 0
10, 25440, Note_on_c, 6, 58, 75
10, 25534, Note_on_c, 6, 58, 0
10, 25536, Note_on_c, 6, 65, 75
10, 25630, Note_on_c, 6, 65, 0
10, 25632, Note_on_c, 6, 62, 75
10, 25726, Note_on_c, 6, 62, 0
10, 25824, Note_on_c, 6, 58, 75
10, 25918, Note_on_c, 6, 58, 0
10, 25920, Note_on_c, 6, 64, 75
10, 26014, Note_on_c, 6, 64, 0
10, 26016, Note_on_c, 6, 60, 75
10, 26110, Note_on_c, 6, 60, 0
10, 26208, Note_on_c, 6, 57, 75
10, 26302, Note_on_c, 6, 57, 0
10, 26304, Note_on_c, 6, 65, 75
10, 26398, Note_on_c, 6, 65, 0
10, 26400, Note_on_c, 6, 62, 75
10, 26494, Note_on_c, 6, 62, 0
10, 26592, Note_on_c, 6, 57, 75
10, 26686, Note_on_c, 6, 57, 0
10, 26688, Note_on_c, 6, 64, 75
10, 26782, Note_on_c, 6, 64, 0
10, 26784, Note_on_c, 6, 60, 75
10, 26878, Note_on_c, 6, 60, 0
10, 26880, Note_on_c, 6, 53, 75
10, 26974, Note_on_c, 6, 53, 0
10, 26976, Note_on_c, 6, 58, 75
10, 27070, Note_on_c, 6, 58, 0
10, 27072, Note_on_c, 6, 62, 75
10, 27166, Note_on_c, 6, 62, 0
10, 27168, Note_on_c, 6, 65, 75
10, 27262, Note_on_c, 6, 65, 0
10, 27264, Note_on_c, 6, 64, 75
10, 27358, Note_on_c, 6, 64, 0
10, 27360, Note_on_c, 6, 55, 75
10, 27454, Note_on_c, 6, 55, 0
10, 27456, Note_on_c, 6, 60, 75
10, 27550, Note_on_c, 6, 60, 0
10, 27552, Note_on_c, 6, 58, 75
10, 27646, Note_on_c, 6, 58, 0
10, 27648, Note_on_c, 6, 57, 75
10, 27742, Note_on_c, 6, 57, 0
10, 27744, Note_on_c, 6, 60, 75
10, 27838, Note_on_c, 6, 60, 0
10, 27840, Note_on_c, 6, 65, 75
10, 27934, Note_on_c, 6, 65, 0
10, 27936, Note_on_c, 6, 60, 75
10, 28030, Note_on_c, 6, 60, 0
10, 28032, Note_on_c, 6, 69, 75
10, 28126, Note_on_c, 6, 69, 0
10, 28128, Note_on_c, 6, 65, 75
10, 28222, Note_on_c, 6, 65, 0
10, 28224, Note_on_c, 6, 60, 75
10, 28318, Note_on_c, 6, 60, 0
10, 28320, Note_on_c, 6, 57, 75
10, 28414, Note_on_c, 6, 57, 0
10, 28416, Note_on_c, 6, 57, 75
10, 28510, Note_on_c, 6, 57, 0
10, 28512, Note_on_c, 6, 62, 75
10, 28606, Note_on_c, 6, 62, 0
10, 28608, Note_on_c, 6, 65, 75
10, 28702, Note_on_c, 6, 65, 0
10, 28704, Note_on_c, 6, 62, 75
10, 28798, Note_on_c, 6, 62, 0
10, 28800, Note_on_c, 6, 69, 75
10, 28894, Note_on_c, 6, 69, 0
10, 28896, Note_on_c, 6, 65, 75
10, 28990, Note_on_c, 6, 65, 0
10, 28992, Note_on_c, 6, 64, 75
10, 29086, Note_on_c, 6, 64, 0
10, 29088, Note_on_c, 6, 60, 75
10, 29182, Note_on_c, 6, 60, 0
10, 29184, Note_on_c, 6, 65, 75
10, 29184, Note_on_c, 6, 70, 75
10, 29184, Note_on_c, 6, 77, 75
10, 29904, Note_on_c, 6, 65, 0
10, 29904, Note_on_c, 6, 70, 0
10, 29904, Note_on_c, 6, 77, 0
10, 30720, Note_on_c, 6, 69, 75
10, 30720, Note_on_c, 6, 74, 75
10, 30720, Note_on_c, 6, 77, 75
10, 31440, Note_on_c, 6, 69, 0
10, 31440, Note_on_c, 6, 74, 0
10, 31440, Note_on_c, 6, 77, 0
10, 32256, Note_on_c, 6, 70, 75
10, 32256, Note_on_c, 6, 74, 75
10, 32256, Note_on_c, 6, 79, 75
10, 32592, Note_on_c, 6, 70, 0
10, 32592, Note_on_c, 6, 74, 0
10, 32592, Note_on_c, 6, 79, 0
10, 32640, Note_on_c, 6, 69, 75
10, 32640, Note_on_c, 6, 72, 75
10, 32640, Note_on_c, 6, 77, 75
10, 32976, Note_on_c, 6, 69, 0
10, 32976, Note_on_c, 6, 72, 0
10, 32976, Note_on_c, 6, 77, 0
10, 33024, Note_on_c, 6, 67, 75
10, 33024, Note_on_c, 6, 70, 75
10, 33024, Note_on_c, 6, 75, 75
10, 33360, Note_on_c, 6, 67, 0
10, 33360, Note_on_c, 6, 70, 0
10, 33360, Note_on_c, 6, 75, 0
10, 33408, Note_on_c, 6, 66, 75
10, 33408, Note_on_c, 6, 69, 75
10, 33408, Note_on_c, 6, 74, 75
10, 33744, Note_on_c, 6, 66, 0
10, 33744, Note_on_c, 6, 69, 0
10, 33744, Note_on_c, 6, 74, 0
10, 33792, Note_on_c, 6, 70, 75
10, 33792, Note_on_c, 6, 74, 75
10, 33792, Note_on_c, 6, 79, 75
10, 34128, Note_on_c, 6, 70, 0
10, 34128, Note_on_c, 6, 74, 0
10, 34128, Note_on_c, 6, 79, 0
10, 34176, Note_on_c, 6, 69, 75
10, 34176, Note_on_c, 6, 72, 75
10, 34176, Note_on_c, 6, 77, 75
10, 34512, Note_on_c, 6, 69, 0
10, 34512, Note_on_c, 6, 72, 0
10, 34512, Note_on_c, 6, 77, 0
10, 34560, Note_on_c, 6, 67, 75
10, 34560, Note_on_c, 6, 70, 75
10, 34560, Note_on_c, 6, 75, 75
10, 34896, Note_on_c, 6, 67, 0
10, 34896, Note_on_c, 6, 70, 0
10, 34896, Note_on_c, 6, 75, 0
10, 34944, Note_on_c, 6, 69, 75
10, 34944, Note_on_c, 6, 72, 75
10, 34944, Note_on_c, 6, 77, 75
10, 35280, Note_on_c, 6, 69, 0
10, 35280, Note_on_c, 6, 72, 0
10, 35280, Note_on_c, 6, 77, 0
10, 35328, Note_on_c, 6, 65, 75
10, 35328, Note_on_c, 6, 70, 75
10, 36048, Note_on_c, 6, 65, 0
10, 36048, Note_on_c, 6, 70, 0
10, 36096, Note_on_c, 6, 65, 75
10, 36096, Note_on_c, 6, 69, 75
10, 36816, Note_on_c, 6, 65, 0
10, 36816, Note_on_c, 6, 69, 0
10, 36864, Note_on_c, 6, 62, 75
10, 36864, Note_on_c, 6, 67, 75
10, 37584, Note_on_c, 6, 62, 0
10, 37584, Note_on_c, 6, 67, 0
10, 37632, Note_on_c, 6, 60, 75
10, 37632, Note_on_c, 6, 64, 75
10, 37632, Note_on_c, 6, 67, 75
10, 37968, Note_on_c, 6, 60, 0
10, 37968, Note_on_c, 6, 64, 0
10, 37968, Note_on_c, 6, 67, 0
10, 38016, Note_on_c, 6, 60, 75
10, 38016, Note_on_c, 6, 65, 75
10, 38016, Note_on_c, 6, 69, 75
10, 38352, Note_on_c, 6, 60, 0
10, 38352, Note_on_c, 6, 65, 0
10, 38352, Note_on_c, 6, 69, 0
10, 38400, Note_on_c, 6, 67, 75
10, 38400, Note_on_c, 6, 72, 75
10, 38400, Note_on_c, 6, 77, 75
10, 39120, Note_on_c, 6, 67, 0
10, 39120, Note_on_c, 6, 72, 0
10, 39120, Note_on_c, 6, 77, 0
10, 39168, Note_on_c, 6, 67, 75
10, 39168, Note_on_c, 6, 72, 75
10, 39168, Note_on_c, 6, 76, 75
10, 39888, Note_on_c, 6, 67, 0
10, 39888, Note_on_c, 6, 72, 0
10, 39888, Note_on_c, 6, 76, 0
10, 43008, Note_on_c, 6, 60, 75
10, 43008, Note_on_c, 6, 65, 75
10, 43392, Note_on_c, 6, 60, 0
10, 43392, Note_on_c, 6, 65, 0
10, 43392, Note_on_c, 6, 69, 75
10, 43392, Note_on_c, 6, 72, 75
10, 43776, Note_on_c, 6, 69, 0
10, 43776, Note_on_c, 6, 72, 0
10, 43776, Note_on_c, 6, 65, 75
10, 43776, Note_on_c, 6, 70, 75
10, 43776, Note_on_c, 6, 74, 75
10, 44160, Note_on_c, 6, 65, 0
10, 44160, Note_on_c, 6, 70, 0
10, 44160, Note_on_c, 6, 74, 0
10, 44160, Note_on_c, 6, 67, 75
10, 44160, Note_on_c, 6, 72, 75
10, 44160, Note_on_c, 6, 76, 75
10, 44544, Note_on_c, 6, 67, 0
10, 44544, Note_on_c, 6, 72, 0
10, 44544, Note_on_c, 6, 76, 0
10, 44544, Note_on_c, 6, 69, 75
10, 44544, Note_on_c, 6, 74, 75
10, 44544, Note_on_c, 6, 77, 75
10, 44928, Note_on_c, 6, 69, 0
10, 44928, Note_on_c, 6, 74, 0
10, 44928, Note_on_c, 6, 77, 0
10, 44928, Note_on_c, 6, 67, 75
10, 44928, Note_on_c, 6, 72, 75
10, 44928, Note_on_c, 6, 76, 75
10, 45184, Note_on_c, 6, 76, 0
10, 45216, Note_on_c, 6, 72, 75
10, 45264, Note_on_c, 6, 67, 0
10, 45264, Note_on_c, 6, 72, 0
10, 45310, Note_on_c, 6, 72, 0
10, 45312, Note_on_c, 6, 65, 75
10, 45312, Note_on_c, 6, 70, 75
10, 45312, Note_on_c, 6, 74, 75
10, 45568, Note_on_c, 6, 74, 0
10, 45600, Note_on_c, 6, 72, 75
10, 45648, Note_on_c, 6, 65, 0
10, 45648, Note_on_c, 6, 70, 0
10, 45694, Note_on_c, 6, 72, 0
10, 45696, Note_on_c, 6, 70, 75
10, 45790, Note_on_c, 6, 70, 0
10, 45792, Note_on_c, 6, 69, 75
10, 45886, Note_on_c, 6, 69, 0
10, 45888, Note_on_c, 6, 67, 75
10, 45982, Note_on_c, 6, 67, 0
10, 45984, Note_on_c, 6, 65, 75
10, 46078, Note_on_c, 6, 65, 0
10, 46176, Note_on_c, 6, 60, 75
10, 46270, Note_on_c, 6, 60, 0
10, 46272, Note_on_c, 6, 69, 75
10, 46366, Note_on_c, 6, 69, 0
10, 46368, Note_on_c, 6, 65, 75
10, 46462, Note_on_c, 6, 65, 0
10, 46560, Note_on_c, 6, 60, 75
10, 46654, Note_on_c, 6, 60, 0
10, 46656, Note_on_c, 6, 69, 75
10, 46750, Note_on_c, 6, 69, 0
10, 46752, Note_on_c, 6, 65, 75
10, 46846, Note_on_c, 6, 65, 0
10, 46944, Note_on_c, 6, 58, 75
10, 47038, Note_on_c, 6, 58, 0
10, 47040, Note_on_c, 6, 70, 75
10, 47134, Note_on_c, 6, 70, 0
10, 47136, Note_on_c, 6, 65, 75
10, 47230, Note_on_c, 6, 65, 0
10, 47328, Note_on_c, 6, 57, 75
10, 47422, Note_on_c, 6, 57, 0
10, 47424, Note_on_c, 6, 69, 75
10, 47518, Note_on_c, 6, 69, 0
10, 47520, Note_on_c, 6, 65, 75
10, 47614, Note_on_c, 6, 65, 0
10, 47712, Note_on_c, 6, 53, 75
10, 47806, Note_on_c, 6, 53, 0
10, 47808, Note_on_c, 6, 62, 75
10, 47902, Note_on_c, 6, 62, 0
10, 47904, Note_on_c, 6, 58, 75
10, 47998, Note_on_c, 6, 58, 0
10, 48096, Note_on_c, 6, 53, 75
10, 48190, Note_on_c, 6, 53, 0
10, 48192, Note_on_c, 6, 62, 75
10, 48286, Note_on_c, 6, 62, 0
10, 48288, Note_on_c, 6, 58, 75
10, 48382, Note_on_c, 6, 58, 0
10, 48480, Note_on_c, 6, 58, 75
10, 48574, Note_on_c, 6, 58, 0
10, 48576, Note_on_c, 6, 62, 75
10, 48670, Note_on_c, 6, 62, 0
10, 48672, Note_on_c, 6, 58, 75
10, 48766, Note_on_c, 6, 58, 0
10, 48864, Note_on_c, 6, 64, 75
10, 48958, Note_on_c, 6, 64, 0
10, 48960, Note_on_c, 6, 67, 75
10, 49054, Note_on_c, 6, 67, 0
10, 49056, Note_on_c, 6, 64, 75
10, 49150, Note_on_c, 6, 64, 0
10, 49248, Note_on_c, 6, 60, 75
10, 49342, Note_on_c, 6, 60, 0
10, 49344, Note_on_c, 6, 69, 75
10, 49438, Note_on_c, 6, 69, 0
10, 49440, Note_on_c, 6, 65, 75
10, 49534, Note_on_c, 6, 65, 0
10, 49632, Note_on_c, 6, 60, 75
10, 49726, Note_on_c, 6, 60, 0
10, 49728, Note_on_c, 6, 69, 75
10, 49822, Note_on_c, 6, 69, 0
10, 49824, Note_on_c, 6, 65, 75
10, 49918, Note_on_c, 6, 65, 0
10, 50016, Note_on_c, 6, 58, 75
10, 50110, Note_on_c, 6, 58, 0
10, 50112, Note_on_c, 6, 65, 75
10, 50206, Note_on_c, 6, 65, 0
10, 50208, Note_on_c, 6, 62, 75
10, 50302, Note_on_c, 6, 62, 0
10, 50400, Note_on_c, 6, 58, 75
10, 50494, Note_on_c, 6, 58, 0
10, 50496, Note_on_c, 6, 64, 75
10, 50590, Note_on_c, 6, 64, 0
10, 50592, Note_on_c, 6, 60, 75
10, 50686, Note_on_c, 6, 60, 0
10, 50784, Note_on_c, 6, 57, 75
10, 50878, Note_on_c, 6, 57, 0
10, 50880, Note_on_c, 6, 65, 75
10, 50974, Note_on_c, 6, 65, 0
10, 50976, Note_on_c, 6, 62, 75
10, 51070, Note_on_c, 6, 62, 0
10, 51168, Note_on_c, 6, 57, 75
10, 51262, Note_on_c, 6, 57, 0
10, 51264, Note_on_c, 6, 64, 75
10, 51358, Note_on_c, 6, 64, 0
10, 51360, Note_on_c, 6, 60, 75
10, 51454, Note_on_c, 6, 60, 0
10, 51552, Note_on_c, 6, 58, 75
10, 51646, Note_on_c, 6, 58, 0
10, 51648, Note_on_c, 6, 62, 75
10, 51742, Note_on_c, 6, 62, 0
10, 51744, Note_on_c, 6, 65, 75
10, 51838, Note_on_c, 6, 65, 0
10, 51840, Note_on_c, 6, 64, 75
10, 51934, Note_on_c, 6, 64, 0
10, 51936, Note_on_c, 6, 55, 75
10, 52030, Note_on_c, 6, 55, 0
10, 52032, Note_on_c, 6, 60, 75
10, 52126, Note_on_c, 6, 60, 0
10, 52128, Note_on_c, 6, 58, 75
10, 52222, Note_on_c, 6, 58, 0
10, 52320, Note_on_c, 6, 60, 75
10, 52414, Note_on_c, 6, 60, 0
10, 52416, Note_on_c, 6, 69, 75
10, 52510, Note_on_c, 6, 69, 0
10, 52512, Note_on_c, 6, 65, 75
10, 52606, Note_on_c, 6, 65, 0
10, 52704, Note_on_c, 6, 60, 75
10, 52798, Note_on_c, 6, 60, 0
10, 52800, Note_on_c, 6, 69, 75
10, 52894, Note_on_c, 6, 69, 0
10, 52896, Note_on_c, 6, 65, 75
10, 52990, Note_on_c, 6, 65, 0
10, 53088, Note_on_c, 6, 58, 75
10, 53182, Note_on_c, 6, 58, 0
10, 53184, Note_on_c, 6, 70, 75
10, 53278, Note_on_c, 6, 70, 0
10, 53280, Note_on_c, 6, 65, 75
10, 53374, Note_on_c, 6, 65, 0
10, 53472, Note_on_c, 6, 57, 75
10, 53566, Note_on_c, 6, 57, 0
10, 53568, Note_on_c, 6, 69, 75
10, 53662, Note_on_c, 6, 69, 0
10, 53664, Note_on_c, 6, 65, 75
10, 53758, Note_on_c, 6, 65, 0
10, 53760, Control_c, 6, 7, 127
10, 53794, Control_c, 6, 7, 126
10, 53829, Control_c, 6, 7, 125
10, 53856, Note_on_c, 6, 53, 75
10, 53864, Control_c, 6, 7, 124
10, 53899, Control_c, 6, 7, 123
10, 53934, Control_c, 6, 7, 122
10, 53950, Note_on_c, 6, 53, 0
10, 53952, Note_on_c, 6, 62, 75
10, 53969, Control_c, 6, 7, 121
10, 54004, Control_c, 6, 7, 120
10, 54039, Control_c, 6, 7, 119
10, 54046, Note_on_c, 6, 62, 0
10, 54048, Note_on_c, 6, 58, 75
10, 54074, Control_c, 6, 7, 118
10, 54109, Control_c, 6, 7, 117
10, 54142, Note_on_c, 6, 58, 0
10, 54144, Control_c, 6, 7, 116
10, 54178, Control_c, 6, 7, 115
10, 54213, Control_c, 6, 7, 114
10, 54240, Note_on_c, 6, 53, 75
10, 54248, Control_c, 6, 7, 113
10, 54283, Control_c, 6, 7, 112
10, 54318, Control_c, 6, 7, 111
10, 54334, Note_on_c, 6, 53, 0
10, 54336, Note_on_c, 6, 62, 75
10, 54353, Control_c, 6, 7, 110
10, 54388, Control_c, 6, 7, 109
10, 54423, Control_c, 6, 7, 108
10, 54430, Note_on_c, 6, 62, 0
10, 54432, Note_on_c, 6, 58, 75
10, 54458, Control_c, 6, 7, 107
10, 54493, Control_c, 6, 7, 106
10, 54526, Note_on_c, 6, 58, 0
10, 54528, Control_c, 6, 7, 105
10, 54582, Control_c, 6, 7, 104
10, 54624, Note_on_c, 6, 58, 75
10, 54637, Control_c, 6, 7, 103
10, 54692, Control_c, 6, 7, 102
10, 54718, Note_on_c, 6, 58, 0
10, 54720, Note_on_c, 6, 62, 75
10, 54747, Control_c, 6, 7, 101
10, 54802, Control_c, 6, 7, 100
10, 54814, Note_on_c, 6, 62, 0
10, 54816, Note_on_c, 6, 58, 75
10, 54857, Control_c, 6, 7, 99
10, 54910, Note_on_c, 6, 58, 0
10, 54912, Control_c, 6, 7, 98
10, 54966, Control_c, 6, 7, 97
10, 55008, Note_on_c, 6, 64, 75
10, 55021, Control_c, 6, 7, 96
10, 55076, Control_c, 6, 7, 95
10, 55102, Note_on_c, 6, 64, 0
10, 55104, Note_on_c, 6, 67, 75
10, 55131, Control_c, 6, 7, 94
10, 55186, Control_c, 6, 7, 93
10, 55198, Note_on_c, 6, 67, 0
10, 55200, Note_on_c, 6, 64, 75
10, 55241, Control_c, 6, 7, 92
10, 55294, Note_on_c, 6, 64, 0
10, 55296, Control_c, 6, 7, 91
10, 55350, Control_c, 6, 7, 90
10, 55392, Note_on_c, 6, 60, 75
10, 55405, Control_c, 6, 7, 89
10, 55460, Control_c, 6, 7, 88
10, 55486, Note_on_c, 6, 60, 0
10, 55488, Note_on_c, 6, 69, 75
10, 55515, Control_c, 6, 7, 87
10, 55570, Control_c, 6, 7, 86
10, 55582, Note_on_c, 6, 69, 0
10, 55584, Note_on_c, 6, 65, 75
10, 55625, Control_c, 6, 7, 85
10, 55678, Note_on_c, 6, 65, 0
10, 55680, Control_c, 6, 7, 84
10, 55734, Control_c, 6, 7, 83
10, 55776, Note_on_c, 6, 60, 75
10, 55789, Control_c, 6, 7, 82
10, 55844, Control_c, 6, 7, 81
10, 55870, Note_on_c, 6, 60, 0
10, 55872, Note_on_c, 6, 69, 75
10, 55899, Control_c, 6, 7, 80
10, 55954, Control_c, 6, 7, 79
10, 55966, Note_on_c, 6, 69, 0
10, 55968, Note_on_c, 6, 65, 75
10, 56009, Control_c, 6, 7, 78
10, 56062, Note_on_c, 6, 65, 0
10, 56064, Control_c, 6, 7, 77
10, 56064, Control_c, 6, 7, 64
10, 56112, Control_c, 6, 7, 63
10, 56160, Control_c, 6, 7, 62
10, 56160, Note_on_c, 6, 58, 75
10, 56208, Control_c, 6, 7, 61
10, 56254, Note_on_c, 6, 58, 0
10, 56256, Control_c, 6, 7, 60
10, 56256, Note_on_c, 6, 65, 75
10, 56304, Control_c, 6, 7, 59
10, 56350, Note_on_c, 6, 65, 0
10, 56352, Control_c, 6, 7, 58
10, 56352, Note_on_c, 6, 62, 75
10, 56400, Control_c, 6, 7, 57
10, 56446, Note_on_c, 6, 62, 0
10, 56448, Control_c, 6, 7, 56
10, 56496, Control_c, 6, 7, 55
10, 56544, Control_c, 6, 7, 54
10, 56544, Note_on_c, 6, 58, 75
10, 56592, Control_c, 6, 7, 53
10, 56638, Note_on_c, 6, 58, 0
10, 56640, Control_c, 6, 7, 52
10, 56640, Note_on_c, 6, 64, 75
10, 56688, Control_c, 6, 7, 51
10, 56734, Note_on_c, 6, 64, 0
10, 56736, Control_c, 6, 7, 50
10, 56736, Note_on_c, 6, 60, 75
10, 56784, Control_c, 6, 7, 49
10, 56830, Note_on_c, 6, 60, 0
10, 56832, Control_c, 6, 7, 48
10, 56896, Control_c, 6, 7, 47
10, 56928, Note_on_c, 6, 57, 75
10, 56960, Control_c, 6, 7, 46
10, 57022, Note_on_c, 6, 57, 0
10, 57024, Control_c, 6, 7, 45
10, 57024, Note_on_c, 6, 65, 75
10, 57088, Control_c, 6, 7, 44
10, 57118, Note_on_c, 6, 65, 0
10, 57120, Note_on_c, 6, 62, 75
10, 57152, Control_c, 6, 7, 43
10, 57214, Note_on_c, 6, 62, 0
10, 57216, Control_c, 6, 7, 42
10, 57280, Control_c, 6, 7, 41
10, 57312, Note_on_c, 6, 57, 75
10, 57344, Control_c, 6, 7, 40
10, 57406, Note_on_c, 6, 57, 0
10, 57408, Control_c, 6, 7, 39
10, 57408, Note_on_c, 6, 64, 75
10, 57472, Control_c, 6, 7, 38
10, 57502, Note_on_c, 6, 64, 0
10, 57504, Note_on_c, 6, 60, 75
10, 57536, Control_c, 6, 7, 37
10, 57598, Note_on_c, 6, 60, 0
10, 57600, Control_c, 6, 7, 36
10, 57651, Control_c, 6, 7, 35
10, 57696, Note_on_c, 6, 58, 75
10, 57702, Control_c, 6, 7, 34
10, 57753, Control_c, 6, 7, 33
10, 57790, Note_on_c, 6, 58, 0
10, 57792, Note_on_c, 6, 62, 75
10, 57804, Control_c, 6, 7, 32
10, 57856, Control_c, 6, 7, 31
10, 57886, Note_on_c, 6, 62, 0
10, 57888, Note_on_c, 6, 65, 75
10, 57907, Control_c, 6, 7, 30
10, 57958, Control_c, 6, 7, 29
10, 57982, Note_on_c, 6, 65, 0
10, 57984, Note_on_c, 6, 64, 75
10, 58009, Control_c, 6, 7, 28
10, 58060, Control_c, 6, 7, 27
10, 58078, Note_on_c, 6, 64, 0
10, 58080, Note_on_c, 6, 55, 75
10, 58112, Control_c, 6, 7, 26
10, 58163, Control_c, 6, 7, 25
10, 58174, Note_on_c, 6, 55, 0
10, 58176, Note_on_c, 6, 60, 75
10, 58214, Control_c, 6, 7, 24
10, 58265, Control_c, 6, 7, 23
10, 58270, Note_on_c, 6, 60, 0
10, 58272, Note_on_c, 6, 58, 75
10, 58316, Control_c, 6, 7, 22
10, 58366, Note_on_c, 6, 58, 0
10, 58368, Control_c, 6, 7, 21
10, 58368, Note_on_c, 6, 60, 75
10, 59088, Note_on_c, 6, 60, 0
10, 59088, End_track
0, 0, End_of_file
