0, 0, Header, 0, 1, 384
1, 0, Start_track
1, 0, Title_t, "El Lute"
1, 0, Tempo, 555545
1, 0, Time_signature, 4, 2, 24, 8
1, 0, Control_c, 0, 121, 0
1, 0, Control_c, 0, 11, 127
1, 0, Control_c, 0, 0, 0
1, 0, Control_c, 0, 32, 0
1, 0, Control_c, 0, 101, 0
1, 0, Control_c, 0, 100, 0
1, 0, Control_c, 0, 6, 2
1, 0, Control_c, 0, 101, 0
1, 0, Control_c, 0, 100, 0
1, 0, Control_c, 0, 7, 73
1, 0, Control_c, 0, 10, 87
1, 0, Control_c, 1, 121, 0
1, 0, Control_c, 1, 11, 127
1, 0, Control_c, 1, 0, 0
1, 0, Control_c, 1, 32, 0
1, 0, Control_c, 1, 101, 0
1, 0, Control_c, 1, 100, 0
1, 0, Control_c, 1, 6, 2
1, 0, Control_c, 1, 101, 0
1, 0, Control_c, 1, 100, 0
1, 0, Control_c, 2, 121, 0
1, 0, Control_c, 2, 11, 127
1, 0, Control_c, 2, 0, 0
1, 0, Control_c, 2, 32, 0
1, 0, Control_c, 2, 101, 0
1, 0, Control_c, 2, 100, 0
1, 0, Control_c, 2, 6, 2
1, 0, Control_c, 2, 101, 0
1, 0, Control_c, 2, 100, 0
1, 0, Control_c, 3, 121, 0
1, 0, Control_c, 3, 11, 127
1, 0, Control_c, 3, 0, 0
1, 0, Control_c, 3, 32, 0
1, 0, Control_c, 3, 101, 0
1, 0, Control_c, 3, 100, 0
1, 0, Control_c, 3, 6, 2
1, 0, Control_c, 3, 101, 0
1, 0, Control_c, 3, 100, 0
1, 0, Control_c, 10, 121, 0
1, 0, Control_c, 10, 11, 127
1, 0, Control_c, 10, 0, 0
1, 0, Control_c, 10, 32, 0
1, 0, Control_c, 10, 101, 0
1, 0, Control_c, 10, 100, 0
1, 0, Control_c, 10, 6, 2
1, 0, Control_c, 10, 101, 0
1, 0, Control_c, 10, 100, 0
1, 0, Control_c, 9, 121, 0
1, 0, Control_c, 9, 11, 127
1, 0, Control_c, 9, 0, 0
1, 0, Control_c, 9, 32, 0
1, 0, Control_c, 9, 101, 0
1, 0, Control_c, 9, 100, 0
1, 0, Control_c, 9, 6, 2
1, 0, Control_c, 9, 101, 0
1, 0, Control_c, 9, 100, 0
1, 0, Control_c, 8, 121, 0
1, 0, Control_c, 8, 11, 127
1, 0, Control_c, 8, 0, 0
1, 0, Control_c, 8, 32, 0
1, 0, Control_c, 8, 101, 0
1, 0, Control_c, 8, 100, 0
1, 0, Control_c, 8, 6, 2
1, 0, Control_c, 8, 101, 0
1, 0, Control_c, 8, 100, 0
1, 0, Control_c, 7, 121, 0
1, 0, Control_c, 7, 11, 127
1, 0, Control_c, 7, 0, 0
1, 0, Control_c, 7, 32, 0
1, 0, Control_c, 7, 101, 0
1, 0, Control_c, 7, 100, 0
1, 0, Control_c, 7, 6, 2
1, 0, Control_c, 7, 101, 0
1, 0, Control_c, 7, 100, 0
1, 0, Control_c, 5, 121, 0
1, 0, Control_c, 5, 11, 127
1, 0, Control_c, 5, 0, 0
1, 0, Control_c, 5, 32, 0
1, 0, Control_c, 5, 101, 0
1, 0, Control_c, 5, 100, 0
1, 0, Control_c, 5, 6, 2
1, 0, Control_c, 5, 101, 0
1, 0, Control_c, 5, 100, 0
1, 0, Control_c, 6, 121, 0
1, 0, Control_c, 6, 11, 127
1, 0, Control_c, 6, 0, 0
1, 0, Control_c, 6, 32, 0
1, 0, Control_c, 6, 101, 0
1, 0, Control_c, 6, 100, 0
1, 0, Control_c, 6, 6, 2
1, 0, Control_c, 6, 101, 0
1, 0, Control_c, 6, 100, 0
1, 0, Control_c, 4, 121, 0
1, 0, Control_c, 4, 11, 127
1, 0, Control_c, 4, 0, 0
1, 0, Control_c, 4, 32, 0
1, 0, Control_c, 4, 101, 0
1, 0, Control_c, 4, 100, 0
1, 0, Control_c, 4, 6, 2
1, 0, Control_c, 4, 101, 0
1, 0, Control_c, 4, 100, 0
1, 2, Program_c, 9, 0
1, 4, Control_c, 9, 7, 100
1, 4, Control_c, 9, 10, 64
1, 4, Control_c, 9, 91, 98
1, 4, Control_c, 9, 93, 0
1, 6, Program_c, 5, 22
1, 6, Control_c, 5, 7, 77
1, 6, Control_c, 5, 10, 85
1, 8, Control_c, 5, 91, 110
1, 8, Control_c, 5, 93, 20
1, 8, Program_c, 6, 91
1, 8, Control_c, 6, 7, 64
1, 10, Program_c, 3, 75
1, 10, Control_c, 6, 10, 33
1, 10, Control_c, 6, 91, 110
1, 10, Control_c, 6, 93, 55
1, 12, Control_c, 3, 7, 72
1, 12, Control_c, 3, 10, 80
1, 12, Control_c, 3, 91, 112
1, 14, Control_c, 3, 93, 55
1, 14, Program_c, 7, 33
1, 14, Control_c, 7, 7, 101
1, 14, Control_c, 7, 10, 64
1, 16, Program_c, 0, 48
1, 16, Control_c, 0, 91, 108
1, 16, Control_c, 0, 93, 33
1, 16, Control_c, 7, 91, 0
1, 16, Control_c, 7, 93, 10
1, 16, Program_c, 4, 30
1, 16, Control_c, 4, 7, 68
1, 16, Control_c, 4, 10, 77
1, 16, Control_c, 4, 91, 106
1, 16, Control_c, 4, 93, 50
1, 18, Program_c, 2, 25
1, 18, Control_c, 2, 7, 72
1, 18, Control_c, 2, 10, 120
1, 18, Control_c, 2, 91, 106
1, 20, Program_c, 1, 60
1, 20, Control_c, 1, 7, 79
1, 20, Control_c, 1, 10, 97
1, 20, Control_c, 2, 93, 52
1, 22, Control_c, 1, 91, 105
1, 22, Control_c, 1, 93, 14
1, 22, Program_c, 8, 52
1, 22, Control_c, 8, 7, 90
1, 24, Control_c, 8, 10, 20
1, 24, Control_c, 8, 91, 109
1, 24, Control_c, 8, 93, 13
1, 26, Program_c, 10, 6
1, 26, Control_c, 10, 7, 86
1, 26, Control_c, 10, 10, 18
1, 26, Control_c, 10, 91, 110
1, 28, Control_c, 10, 93, 63
1, 1922, Note_on_c, 3, 68, 92
1, 1922, Note_on_c, 3, 72, 92
1, 1922, Note_on_c, 7, 32, 108
1, 1924, Note_on_c, 0, 56, 83
1, 1924, Note_on_c, 0, 60, 94
1, 1924, Note_on_c, 8, 56, 102
1, 1924, Note_on_c, 8, 60, 104
1, 2230, Note_off_c, 8, 56, 102
1, 2246, Note_off_c, 3, 68, 92
1, 2248, Note_off_c, 0, 56, 83
1, 2278, Note_off_c, 8, 60, 104
1, 2306, Note_off_c, 7, 32, 108
1, 2306, Note_on_c, 3, 70, 96
1, 2308, Note_on_c, 0, 58, 89
1, 2308, Note_on_c, 3, 73, 92
1, 2308, Note_on_c, 7, 34, 97
1, 2310, Note_off_c, 3, 72, 92
1, 2310, Note_on_c, 0, 61, 83
1, 2310, Note_on_c, 8, 58, 106
1, 2310, Note_on_c, 8, 61, 95
1, 2328, Note_off_c, 0, 60, 94
1, 2652, Note_off_c, 3, 70, 96
1, 2660, Note_off_c, 8, 58, 106
1, 2666, Note_off_c, 3, 73, 92
1, 2674, Note_off_c, 0, 61, 83
1, 2674, Note_off_c, 0, 58, 89
1, 2690, Note_on_c, 3, 72, 107
1, 2690, Note_on_c, 3, 75, 90
1, 2690, Note_on_c, 7, 36, 101
1, 2692, Note_on_c, 0, 60, 105
1, 2692, Note_on_c, 0, 63, 79
1, 2692, Note_on_c, 8, 60, 106
1, 2694, Note_off_c, 8, 61, 95
1, 2694, Note_on_c, 8, 63, 95
1, 2698, Note_off_c, 7, 34, 97
1, 3014, Note_off_c, 8, 60, 106
1, 3018, Note_off_c, 8, 63, 95
1, 3032, Note_off_c, 3, 75, 90
1, 3042, Note_off_c, 3, 72, 107
1, 3052, Note_off_c, 0, 60, 105
1, 3064, Note_off_c, 0, 63, 79
1, 3074, Note_on_c, 3, 77, 112
1, 3076, Note_on_c, 0, 61, 85
1, 3076, Note_on_c, 0, 65, 94
1, 3076, Note_on_c, 3, 73, 98
1, 3076, Note_on_c, 7, 37, 86
1, 3078, Note_on_c, 8, 61, 86
1, 3078, Note_on_c, 8, 65, 104
1, 3086, Note_off_c, 7, 36, 101
1, 3508, Note_off_c, 7, 37, 86
1, 3650, Note_on_c, 7, 37, 88
1, 3738, Note_off_c, 7, 37, 88
1, 3842, Note_on_c, 7, 37, 80
1, 4120, Control_c, 3, 1, 3
1, 4150, Control_c, 3, 1, 15
1, 4182, Control_c, 3, 1, 23
1, 4230, Control_c, 3, 1, 32
1, 4268, Control_c, 3, 1, 38
1, 4318, Note_off_c, 7, 37, 80
1, 4318, Control_c, 3, 1, 45
1, 4514, Note_on_c, 0, 56, 42
1, 4610, Note_on_c, 7, 37, 76
1, 4658, Note_off_c, 3, 73, 98
1, 4662, Note_off_c, 3, 77, 112
1, 4866, Note_off_c, 8, 61, 86
1, 4868, Note_off_c, 8, 65, 104
1, 4994, Note_on_c, 3, 73, 96
1, 4994, Note_on_c, 3, 77, 110
1, 4996, Note_on_c, 8, 61, 111
1, 4996, Note_on_c, 8, 65, 111
1, 5034, Note_off_c, 7, 37, 76
1, 5186, Note_on_c, 7, 37, 68
1, 5266, Note_off_c, 7, 37, 68
1, 5310, Note_off_c, 3, 73, 96
1, 5318, Note_off_c, 8, 65, 111
1, 5326, Note_off_c, 3, 77, 110
1, 5378, Note_on_c, 3, 77, 110
1, 5378, Note_on_c, 3, 80, 94
1, 5380, Note_on_c, 8, 65, 120
1, 5380, Note_on_c, 8, 68, 104
1, 5380, Note_on_c, 7, 37, 91
1, 5390, Note_off_c, 8, 61, 111
1, 5666, Note_off_c, 3, 77, 110
1, 5688, Note_off_c, 3, 80, 94
1, 5690, Note_off_c, 8, 65, 120
1, 5714, Note_off_c, 8, 68, 104
1, 5762, Note_on_c, 3, 77, 107
1, 5762, Note_on_c, 3, 85, 105
1, 5762, Note_on_c, 8, 65, 114
1, 5764, Note_on_c, 8, 73, 106
1, 5890, Note_off_c, 7, 37, 91
1, 6058, Note_off_c, 8, 65, 114
1, 6058, Note_off_c, 3, 77, 107
1, 6078, Note_off_c, 8, 73, 106
1, 6082, Note_off_c, 3, 85, 105
1, 6090, Note_off_c, 0, 65, 94
1, 6122, Note_off_c, 0, 61, 85
1, 6146, Note_on_c, 3, 80, 98
1, 6146, Note_on_c, 3, 84, 103
1, 6148, Note_on_c, 0, 60, 75
1, 6148, Note_on_c, 0, 63, 62
1, 6148, Note_on_c, 7, 32, 93
1, 6150, Note_on_c, 8, 68, 86
1, 6150, Note_on_c, 8, 72, 93
1, 6548, Note_off_c, 7, 32, 93
1, 6722, Note_on_c, 7, 32, 68
1, 6810, Note_off_c, 7, 32, 68
1, 6914, Note_on_c, 7, 32, 88
1, 7050, Control_c, 3, 1, 1
1, 7106, Control_c, 3, 1, 3
1, 7158, Control_c, 3, 1, 5
1, 7214, Control_c, 3, 1, 12
1, 7254, Control_c, 3, 1, 16
1, 7294, Control_c, 3, 1, 19
1, 7334, Control_c, 3, 1, 22
1, 7402, Control_c, 3, 1, 29
1, 7428, Note_off_c, 7, 32, 88
1, 7442, Control_c, 3, 1, 31
1, 7510, Control_c, 3, 1, 33
1, 7562, Control_c, 3, 1, 36
1, 7668, Note_off_c, 8, 72, 93
1, 7682, Note_on_c, 7, 32, 74
1, 7684, Note_off_c, 8, 68, 86
1, 7746, Note_off_c, 3, 84, 103
1, 7752, Note_off_c, 3, 80, 98
1, 8060, Note_off_c, 7, 32, 74
1, 8066, Note_on_c, 3, 72, 87
1, 8066, Note_on_c, 3, 80, 94
1, 8066, Note_on_c, 8, 60, 102
1, 8068, Note_on_c, 8, 68, 99
1, 8258, Note_on_c, 7, 32, 67
1, 8330, Note_off_c, 8, 60, 102
1, 8330, Note_off_c, 3, 72, 87
1, 8334, Note_off_c, 7, 32, 67
1, 8342, Note_off_c, 8, 68, 99
1, 8348, Note_off_c, 3, 80, 94
1, 8450, Note_on_c, 3, 72, 98
1, 8450, Note_on_c, 3, 80, 96
1, 8452, Note_on_c, 8, 60, 84
1, 8452, Note_on_c, 8, 68, 99
1, 8452, Note_on_c, 7, 32, 95
1, 8730, Note_off_c, 8, 60, 84
1, 8754, Note_off_c, 3, 72, 98
1, 8786, Note_off_c, 8, 68, 99
1, 8818, Note_off_c, 3, 80, 96
1, 8834, Note_on_c, 3, 70, 105
1, 8834, Note_on_c, 3, 79, 98
1, 8834, Note_on_c, 8, 67, 89
1, 8836, Note_on_c, 8, 58, 104
1, 8894, Note_off_c, 7, 32, 95
1, 9026, Note_off_c, 0, 60, 75
1, 9052, Note_off_c, 0, 56, 42
1, 9070, Note_off_c, 0, 63, 62
1, 9106, Note_off_c, 3, 70, 105
1, 9130, Note_off_c, 8, 58, 104
1, 9162, Note_off_c, 3, 79, 98
1, 9202, Note_off_c, 8, 67, 89
1, 9218, Note_on_c, 3, 73, 107
1, 9220, Note_on_c, 0, 67, 61
1, 9220, Note_on_c, 3, 82, 92
1, 9220, Note_on_c, 7, 39, 76
1, 9222, Note_on_c, 0, 58, 69
1, 9222, Note_on_c, 0, 63, 56
1, 9222, Note_on_c, 8, 61, 95
1, 9222, Note_on_c, 8, 70, 91
1, 9650, Note_off_c, 7, 39, 76
1, 9748, Note_off_c, 3, 73, 107
1, 9750, Note_off_c, 8, 61, 95
1, 9758, Note_off_c, 3, 82, 92
1, 9766, Note_off_c, 8, 70, 91
1, 9794, Note_on_c, 3, 72, 98
1, 9794, Note_on_c, 3, 80, 94
1, 9796, Note_on_c, 8, 60, 106
1, 9796, Note_on_c, 8, 68, 95
1, 9796, Note_on_c, 7, 39, 65
1, 9862, Note_off_c, 7, 39, 65
1, 9902, Note_off_c, 3, 72, 98
1, 9914, Note_off_c, 8, 60, 106
1, 9958, Note_off_c, 8, 68, 95
1, 9964, Note_off_c, 3, 80, 94
1, 9986, Note_on_c, 3, 70, 90
1, 9986, Note_on_c, 3, 79, 96
1, 9988, Note_on_c, 8, 58, 97
1, 9988, Note_on_c, 8, 67, 97
1, 9988, Note_on_c, 7, 39, 93
1, 10452, Note_off_c, 7, 39, 93
1, 10476, Note_off_c, 3, 70, 90
1, 10514, Note_off_c, 8, 67, 97
1, 10526, Note_off_c, 8, 58, 97
1, 10556, Note_off_c, 3, 79, 96
1, 10562, Note_on_c, 3, 68, 98
1, 10562, Note_on_c, 3, 77, 98
1, 10562, Note_on_c, 7, 34, 70
1, 10564, Note_on_c, 8, 56, 91
1, 10564, Note_on_c, 8, 65, 91
1, 10700, Note_off_c, 3, 77, 98
1, 10706, Note_off_c, 8, 65, 91
1, 10706, Note_off_c, 3, 68, 98
1, 10720, Note_off_c, 8, 56, 91
1, 10754, Note_off_c, 7, 34, 70
1, 10754, Note_off_c, 0, 63, 56
1, 10756, Note_on_c, 0, 63, 73
1, 10756, Note_on_c, 3, 67, 107
1, 10756, Note_on_c, 3, 75, 96
1, 10756, Note_on_c, 7, 27, 78
1, 10758, Note_on_c, 0, 55, 81
1, 10758, Note_on_c, 8, 55, 95
1, 10758, Note_on_c, 8, 63, 95
1, 10770, Note_off_c, 0, 67, 61
1, 10788, Note_off_c, 0, 63, 73
1, 10792, Note_off_c, 0, 58, 69
1, 11146, Note_off_c, 7, 27, 78
1, 11330, Note_on_c, 7, 27, 68
1, 11390, Note_off_c, 7, 27, 68
1, 11522, Note_on_c, 7, 27, 82
1, 11714, Note_on_c, 2, 55, 115
1, 11906, Note_on_c, 2, 58, 105
1, 12098, Note_on_c, 2, 63, 85
1, 12522, Note_off_c, 8, 55, 95
1, 12548, Note_off_c, 8, 63, 95
1, 12604, Note_off_c, 3, 67, 107
1, 12674, Note_on_c, 3, 67, 52
1, 12674, Note_on_c, 3, 70, 105
1, 12674, Note_on_c, 8, 55, 99
1, 12674, Note_on_c, 8, 58, 91
1, 12692, Note_off_c, 3, 75, 96
1, 12820, Note_off_c, 3, 70, 105
1, 12822, Note_off_c, 8, 58, 91
1, 12824, Note_off_c, 8, 55, 99
1, 12836, Note_off_c, 3, 67, 52
1, 12866, Note_on_c, 3, 70, 96
1, 12866, Note_on_c, 3, 73, 94
1, 12866, Note_on_c, 8, 58, 91
1, 12866, Note_on_c, 8, 61, 95
1, 13012, Note_off_c, 3, 70, 96
1, 13014, Note_off_c, 0, 55, 81
1, 13016, Note_off_c, 7, 27, 82
1, 13026, Note_off_c, 3, 73, 94
1, 13034, Note_off_c, 8, 61, 95
1, 13038, Note_off_c, 8, 58, 91
1, 13052, Note_off_c, 2, 55, 115
1, 13058, Note_on_c, 3, 68, 77
1, 13058, Note_on_c, 3, 72, 94
1, 13060, Note_on_c, 0, 56, 55
1, 13060, Note_on_c, 0, 60, 68
1, 13060, Note_on_c, 7, 32, 95
1, 13062, Note_on_c, 2, 60, 92
1, 13062, Note_on_c, 8, 56, 72
1, 13062, Note_on_c, 8, 60, 93
1, 13070, Note_off_c, 2, 58, 105
1, 13078, Note_off_c, 2, 63, 85
1, 13250, Note_on_c, 2, 63, 100
1, 13442, Note_on_c, 2, 68, 92
1, 13478, Note_off_c, 7, 32, 95
1, 13622, Note_off_c, 2, 60, 92
1, 13634, Note_on_c, 2, 72, 94
1, 13634, Note_on_c, 7, 32, 60
1, 13698, Note_off_c, 7, 32, 60
1, 13826, Note_on_c, 7, 32, 97
1, 13858, Note_off_c, 2, 63, 100
1, 14002, Note_off_c, 2, 68, 92
1, 14018, Note_off_c, 7, 32, 97
1, 14018, Note_on_c, 7, 39, 97
1, 14082, Note_off_c, 2, 72, 94
1, 14210, Note_on_c, 7, 36, 80
1, 14220, Note_off_c, 7, 39, 97
1, 14338, Control_c, 3, 1, 1
1, 14378, Control_c, 3, 1, 5
1, 14402, Note_on_c, 7, 34, 65
1, 14408, Note_off_c, 7, 36, 80
1, 14418, Control_c, 3, 1, 12
1, 14458, Control_c, 3, 1, 15
1, 14506, Control_c, 3, 1, 19
1, 14574, Control_c, 3, 1, 24
1, 14582, Note_off_c, 7, 34, 65
1, 14594, Note_on_c, 7, 32, 82
1, 14596, Note_on_c, 2, 60, 87
1, 14622, Control_c, 3, 1, 28
1, 14786, Note_on_c, 2, 63, 69
1, 14918, Control_c, 3, 1, 25
1, 14950, Control_c, 3, 1, 23
1, 14978, Note_on_c, 2, 68, 67
1, 14986, Note_off_c, 2, 60, 87
1, 15006, Control_c, 3, 1, 18
1, 15014, Note_off_c, 7, 32, 82
1, 15064, Control_c, 3, 1, 11
1, 15094, Control_c, 3, 1, 6
1, 15098, Note_off_c, 3, 72, 94
1, 15108, Note_off_c, 3, 68, 77
1, 15138, Control_c, 3, 1, 0
1, 15162, Note_off_c, 2, 63, 69
1, 15170, Note_on_c, 2, 72, 75
1, 15170, Note_on_c, 7, 32, 78
1, 15226, Note_off_c, 7, 32, 78
1, 15362, Note_on_c, 7, 32, 106
1, 15554, Note_on_c, 7, 39, 93
1, 15556, Note_off_c, 7, 32, 106
1, 15608, Note_off_c, 2, 72, 75
1, 15612, Note_off_c, 2, 68, 67
1, 15746, Note_on_c, 7, 36, 82
1, 15754, Note_off_c, 7, 39, 93
1, 15862, Note_off_c, 8, 60, 93
1, 15874, Note_off_c, 8, 56, 72
1, 15922, Note_off_c, 7, 36, 82
1, 15938, Note_on_c, 7, 34, 59
1, 16110, Note_off_c, 7, 34, 59
1, 16130, Note_off_c, 0, 60, 68
1, 16130, Note_on_c, 9, 36, 94
1, 16130, Note_on_c, 9, 42, 92
1, 16132, Note_on_c, 0, 60, 96
1, 16132, Note_on_c, 0, 68, 98
1, 16132, Note_on_c, 7, 32, 113
1, 16134, Note_on_c, 2, 72, 100
1, 16134, Note_on_c, 9, 49, 105
1, 16140, Note_off_c, 0, 60, 96
1, 16140, Note_off_c, 0, 56, 55
1, 16204, Note_off_c, 9, 49, 105
1, 16212, Note_off_c, 9, 42, 92
1, 16322, Note_off_c, 9, 36, 94
1, 16322, Note_on_c, 3, 80, 110
1, 16322, Note_on_c, 3, 84, 115
1, 16322, Note_on_c, 9, 42, 60
1, 16324, Note_on_c, 2, 63, 92
1, 16324, Note_on_c, 10, 68, 115
1, 16324, Note_on_c, 10, 72, 112
1, 16396, Note_off_c, 10, 72, 112
1, 16396, Note_off_c, 9, 42, 60
1, 16408, Note_off_c, 10, 68, 115
1, 16426, Note_off_c, 2, 72, 100
1, 16428, Note_off_c, 3, 84, 115
1, 16434, Note_off_c, 3, 80, 110
1, 16514, Note_on_c, 3, 80, 112
1, 16514, Note_on_c, 3, 84, 115
1, 16514, Note_on_c, 9, 42, 58
1, 16516, Note_on_c, 2, 68, 92
1, 16516, Note_on_c, 10, 68, 112
1, 16516, Note_on_c, 10, 72, 115
1, 16566, Note_off_c, 7, 32, 113
1, 16578, Note_off_c, 9, 42, 58
1, 16584, Note_off_c, 10, 68, 112
1, 16586, Note_off_c, 10, 72, 115
1, 16618, Note_off_c, 3, 84, 115
1, 16626, Note_off_c, 3, 80, 112
1, 16680, Note_off_c, 2, 63, 92
1, 16706, Note_on_c, 3, 80, 121
1, 16706, Note_on_c, 9, 36, 87
1, 16706, Note_on_c, 9, 42, 83
1, 16708, Note_on_c, 2, 72, 87
1, 16708, Note_on_c, 3, 84, 118
1, 16708, Note_on_c, 7, 32, 72
1, 16710, Note_on_c, 10, 68, 115
1, 16710, Note_on_c, 10, 72, 115
1, 16754, Note_off_c, 2, 68, 92
1, 16778, Note_off_c, 9, 42, 83
1, 16804, Note_off_c, 9, 36, 87
1, 16868, Note_off_c, 0, 68, 98
1, 16882, Note_off_c, 2, 72, 87
1, 16886, Note_off_c, 7, 32, 72
1, 16898, Note_on_c, 9, 36, 109
1, 16900, Note_on_c, 0, 63, 77
1, 16900, Note_on_c, 0, 67, 92
1, 16900, Note_on_c, 9, 42, 94
1, 16900, Note_on_c, 7, 39, 106
1, 16902, Note_on_c, 2, 70, 96
1, 16986, Note_off_c, 9, 42, 94
1, 17020, Note_off_c, 10, 72, 115
1, 17030, Note_off_c, 10, 68, 115
1, 17030, Note_off_c, 3, 84, 118
1, 17050, Note_off_c, 9, 36, 109
1, 17070, Note_off_c, 3, 80, 121
1, 17090, Note_on_c, 3, 79, 115
1, 17090, Note_on_c, 3, 82, 103
1, 17090, Note_on_c, 9, 42, 60
1, 17092, Note_on_c, 2, 63, 75
1, 17092, Note_on_c, 10, 67, 112
1, 17092, Note_on_c, 10, 70, 110
1, 17158, Note_off_c, 9, 42, 60
1, 17158, Note_off_c, 2, 70, 96
1, 17164, Note_off_c, 10, 67, 112
1, 17172, Note_off_c, 10, 70, 110
1, 17188, Note_off_c, 3, 79, 115
1, 17210, Note_off_c, 3, 82, 103
1, 17282, Note_on_c, 3, 79, 121
1, 17282, Note_on_c, 3, 82, 118
1, 17282, Note_on_c, 9, 37, 112
1, 17282, Note_on_c, 9, 42, 98
1, 17284, Note_on_c, 2, 67, 94
1, 17284, Note_on_c, 10, 67, 112
1, 17284, Note_on_c, 10, 70, 112
1, 17306, Note_off_c, 2, 63, 75
1, 17348, Note_off_c, 9, 42, 98
1, 17350, Note_off_c, 10, 70, 112
1, 17350, Note_off_c, 10, 67, 112
1, 17374, Note_off_c, 7, 39, 106
1, 17384, Note_off_c, 3, 79, 121
1, 17400, Note_off_c, 3, 82, 118
1, 17420, Note_off_c, 9, 37, 112
1, 17474, Note_on_c, 3, 79, 121
1, 17474, Note_on_c, 3, 82, 107
1, 17474, Note_on_c, 9, 42, 64
1, 17476, Note_on_c, 2, 70, 96
1, 17476, Note_on_c, 10, 70, 112
1, 17476, Note_on_c, 7, 39, 54
1, 17478, Note_on_c, 10, 67, 118
1, 17482, Note_off_c, 2, 67, 94
1, 17538, Note_off_c, 9, 42, 64
1, 17638, Note_off_c, 2, 70, 96
1, 17654, Note_off_c, 7, 39, 54
1, 17666, Note_off_c, 0, 63, 77
1, 17668, Note_on_c, 0, 65, 96
1, 17668, Note_on_c, 9, 36, 96
1, 17668, Note_on_c, 9, 42, 100
1, 17668, Note_on_c, 7, 37, 93
1, 17670, Note_on_c, 0, 61, 67
1, 17670, Note_on_c, 2, 68, 105
1, 17676, Note_off_c, 0, 67, 92
1, 17742, Note_off_c, 9, 42, 100
1, 17784, Note_off_c, 3, 79, 121
1, 17806, Note_off_c, 10, 67, 118
1, 17826, Note_off_c, 3, 82, 107
1, 17838, Note_off_c, 9, 36, 96
1, 17846, Note_off_c, 10, 70, 112
1, 17858, Note_on_c, 3, 80, 118
1, 17858, Note_on_c, 9, 42, 64
1, 17860, Note_on_c, 2, 61, 92
1, 17860, Note_on_c, 3, 77, 121
1, 17860, Note_on_c, 10, 65, 112
1, 17862, Note_on_c, 10, 68, 107
1, 17900, Note_off_c, 2, 68, 105
1, 17918, Note_off_c, 10, 68, 107
1, 17918, Note_off_c, 10, 65, 112
1, 17930, Note_off_c, 9, 42, 64
1, 17932, Note_off_c, 3, 77, 121
1, 17976, Note_off_c, 3, 80, 118
1, 18050, Note_on_c, 3, 77, 112
1, 18050, Note_on_c, 3, 80, 121
1, 18050, Note_on_c, 9, 42, 79
1, 18052, Note_on_c, 2, 65, 90
1, 18052, Note_on_c, 10, 65, 110
1, 18052, Note_on_c, 10, 68, 118
1, 18114, Note_off_c, 10, 65, 110
1, 18114, Note_off_c, 9, 42, 79
1, 18120, Note_off_c, 10, 68, 118
1, 18150, Note_off_c, 3, 77, 112
1, 18160, Note_off_c, 3, 80, 121
1, 18162, Note_off_c, 7, 37, 93
1, 18242, Note_on_c, 3, 77, 110
1, 18242, Note_on_c, 3, 80, 121
1, 18242, Note_on_c, 9, 36, 89
1, 18242, Note_on_c, 9, 42, 89
1, 18244, Note_on_c, 2, 68, 87
1, 18244, Note_on_c, 10, 68, 118
1, 18244, Note_on_c, 7, 37, 82
1, 18246, Note_on_c, 10, 65, 112
1, 18258, Note_off_c, 2, 61, 92
1, 18280, Note_off_c, 2, 65, 90
1, 18300, Note_off_c, 9, 42, 89
1, 18322, Note_off_c, 9, 36, 89
1, 18398, Note_off_c, 0, 61, 67
1, 18418, Note_off_c, 7, 37, 82
1, 18434, Note_on_c, 9, 36, 98
1, 18434, Note_on_c, 9, 42, 100
1, 18436, Note_on_c, 0, 55, 89
1, 18436, Note_on_c, 0, 63, 87
1, 18436, Note_on_c, 7, 39, 95
1, 18438, Note_off_c, 2, 68, 87
1, 18438, Note_on_c, 2, 70, 98
1, 18442, Note_off_c, 0, 65, 96
1, 18498, Note_off_c, 10, 68, 118
1, 18502, Note_off_c, 10, 65, 112
1, 18510, Note_off_c, 9, 42, 100
1, 18514, Note_off_c, 3, 80, 121
1, 18518, Note_off_c, 3, 77, 110
1, 18626, Note_on_c, 3, 75, 110
1, 18626, Note_on_c, 9, 42, 67
1, 18628, Note_on_c, 2, 63, 92
1, 18628, Note_on_c, 3, 79, 110
1, 18628, Note_on_c, 10, 63, 110
1, 18628, Note_on_c, 10, 67, 112
1, 18644, Note_off_c, 9, 36, 98
1, 18662, Note_off_c, 2, 70, 98
1, 18676, Note_off_c, 9, 42, 67
1, 18738, Note_off_c, 3, 79, 110
1, 18744, Note_off_c, 3, 75, 110
1, 18766, Note_off_c, 10, 67, 112
1, 18780, Note_off_c, 10, 63, 110
1, 18818, Note_on_c, 3, 73, 96
1, 18818, Note_on_c, 3, 77, 85
1, 18818, Note_on_c, 9, 37, 114
1, 18818, Note_on_c, 9, 42, 105
1, 18820, Note_on_c, 2, 67, 90
1, 18820, Note_on_c, 10, 61, 107
1, 18820, Note_on_c, 10, 65, 90
1, 18822, Note_on_c, 10, 64, 90
1, 18846, Note_off_c, 10, 64, 90
1, 18860, Note_off_c, 10, 65, 90
1, 18874, Note_off_c, 2, 63, 92
1, 18882, Note_off_c, 9, 42, 105
1, 18892, Note_off_c, 10, 61, 107
1, 18922, Note_off_c, 3, 73, 96
1, 18924, Note_off_c, 9, 37, 114
1, 18942, Note_off_c, 3, 77, 85
1, 18954, Note_off_c, 7, 39, 95
1, 19010, Note_on_c, 3, 73, 112
1, 19010, Note_on_c, 3, 77, 105
1, 19010, Note_on_c, 9, 46, 98
1, 19012, Note_on_c, 2, 70, 90
1, 19012, Note_on_c, 10, 61, 115
1, 19012, Note_on_c, 7, 39, 60
1, 19014, Note_on_c, 10, 65, 107
1, 19018, Note_off_c, 2, 67, 90
1, 19082, Note_off_c, 9, 46, 98
1, 19174, Note_off_c, 2, 70, 90
1, 19198, Note_off_c, 0, 55, 89
1, 19202, Note_off_c, 7, 39, 60
1, 19202, Note_off_c, 0, 63, 87
1, 19204, Note_on_c, 9, 36, 100
1, 19204, Note_on_c, 9, 42, 112
1, 19204, Note_on_c, 7, 32, 95
1, 19206, Note_on_c, 0, 56, 71
1, 19206, Note_on_c, 0, 60, 69
1, 19206, Note_on_c, 2, 72, 96
1, 19282, Note_off_c, 9, 42, 112
1, 19322, Note_off_c, 10, 61, 115
1, 19332, Note_off_c, 3, 73, 112
1, 19346, Note_off_c, 10, 65, 107
1, 19354, Note_off_c, 9, 36, 100
1, 19358, Note_off_c, 3, 77, 105
1, 19394, Note_on_c, 3, 72, 112
1, 19394, Note_on_c, 3, 75, 110
1, 19394, Note_on_c, 9, 42, 79
1, 19396, Note_on_c, 2, 63, 68
1, 19396, Note_on_c, 10, 60, 98
1, 19396, Note_on_c, 10, 63, 115
1, 19410, Note_off_c, 2, 72, 96
1, 19458, Note_off_c, 9, 42, 79
1, 19476, Note_off_c, 10, 60, 98
1, 19522, Note_off_c, 10, 63, 115
1, 19522, Note_off_c, 3, 72, 112
1, 19548, Note_off_c, 3, 75, 110
1, 19586, Note_on_c, 3, 68, 110
1, 19586, Note_on_c, 3, 72, 107
1, 19586, Note_on_c, 9, 42, 85
1, 19588, Note_on_c, 2, 68, 77
1, 19588, Note_on_c, 10, 56, 112
1, 19588, Note_on_c, 10, 60, 107
1, 19602, Note_off_c, 7, 32, 95
1, 19642, Note_off_c, 10, 56, 112
1, 19646, Note_off_c, 9, 42, 85
1, 19650, Note_off_c, 10, 60, 107
1, 19704, Note_off_c, 3, 72, 107
1, 19764, Note_off_c, 3, 68, 110
1, 19768, Note_off_c, 2, 63, 68
1, 19778, Note_on_c, 3, 75, 100
1, 19778, Note_on_c, 9, 36, 100
1, 19778, Note_on_c, 9, 42, 83
1, 19780, Note_on_c, 2, 72, 96
1, 19780, Note_on_c, 3, 72, 112
1, 19780, Note_on_c, 7, 32, 88
1, 19782, Note_on_c, 10, 60, 110
1, 19782, Note_on_c, 10, 63, 98
1, 19794, Note_off_c, 2, 68, 77
1, 19838, Note_off_c, 9, 42, 83
1, 19844, Note_off_c, 7, 32, 88
1, 19866, Note_off_c, 9, 36, 100
1, 19970, Note_on_c, 9, 36, 112
1, 19970, Note_on_c, 9, 42, 107
1, 19972, Note_on_c, 2, 63, 65
1, 19972, Note_on_c, 7, 32, 104
1, 20034, Note_off_c, 9, 42, 107
1, 20034, Note_off_c, 2, 72, 96
1, 20118, Note_off_c, 9, 36, 112
1, 20162, Note_on_c, 2, 68, 79
1, 20162, Note_on_c, 9, 42, 77
1, 20218, Note_off_c, 9, 42, 77
1, 20308, Note_off_c, 2, 68, 79
1, 20330, Note_off_c, 2, 63, 65
1, 20354, Note_on_c, 2, 68, 96
1, 20354, Note_on_c, 2, 72, 107
1, 20354, Note_on_c, 9, 37, 112
1, 20354, Note_on_c, 9, 42, 100
1, 20364, Note_off_c, 7, 32, 104
1, 20418, Note_off_c, 9, 42, 100
1, 20488, Note_off_c, 9, 37, 112
1, 20546, Note_on_c, 9, 42, 81
1, 20546, Note_on_c, 7, 27, 82
1, 20548, Note_off_c, 2, 72, 107
1, 20548, Note_on_c, 2, 63, 71
1, 20558, Note_off_c, 2, 68, 96
1, 20598, Note_off_c, 9, 42, 81
1, 20598, Note_off_c, 10, 63, 98
1, 20602, Note_off_c, 10, 60, 110
1, 20724, Control_c, 3, 1, 1
1, 20732, Note_off_c, 7, 27, 82
1, 20738, Note_on_c, 9, 36, 112
1, 20738, Note_on_c, 9, 42, 102
1, 20740, Note_on_c, 0, 63, 58
1, 20740, Note_on_c, 2, 72, 96
1, 20740, Note_on_c, 7, 32, 95
1, 20742, Note_off_c, 0, 56, 71
1, 20742, Note_on_c, 2, 68, 90
1, 20754, Note_off_c, 2, 63, 71
1, 20802, Note_off_c, 9, 42, 102
1, 20914, Note_off_c, 9, 36, 112
1, 20926, Note_off_c, 2, 68, 90
1, 20926, Note_off_c, 2, 72, 96
1, 20930, Note_on_c, 2, 60, 94
1, 20930, Note_on_c, 9, 42, 77
1, 20950, Note_off_c, 3, 72, 112
1, 20962, Note_off_c, 3, 75, 100
1, 20978, Note_off_c, 9, 42, 77
1, 21122, Note_on_c, 2, 63, 90
1, 21122, Note_on_c, 9, 42, 81
1, 21146, Note_off_c, 7, 32, 95
1, 21174, Note_off_c, 2, 60, 94
1, 21186, Note_off_c, 9, 42, 81
1, 21314, Note_on_c, 9, 36, 100
1, 21314, Note_on_c, 9, 42, 94
1, 21314, Note_on_c, 7, 32, 86
1, 21316, Note_on_c, 2, 68, 92
1, 21316, Note_on_c, 2, 72, 94
1, 21332, Note_off_c, 2, 63, 90
1, 21370, Note_off_c, 9, 42, 94
1, 21394, Note_off_c, 7, 32, 86
1, 21414, Note_off_c, 9, 36, 100
1, 21496, Note_off_c, 2, 72, 94
1, 21506, Note_on_c, 9, 36, 112
1, 21506, Note_on_c, 9, 42, 105
1, 21508, Note_on_c, 2, 63, 66
1, 21508, Note_on_c, 7, 32, 104
1, 21512, Note_off_c, 2, 68, 92
1, 21582, Note_off_c, 9, 42, 105
1, 21642, Note_off_c, 9, 36, 112
1, 21698, Note_on_c, 3, 80, 105
1, 21698, Note_on_c, 3, 84, 115
1, 21698, Note_on_c, 9, 42, 81
1, 21700, Note_on_c, 2, 60, 77
1, 21700, Note_on_c, 10, 68, 110
1, 21700, Note_on_c, 10, 72, 98
1, 21746, Note_off_c, 2, 63, 66
1, 21756, Note_off_c, 9, 42, 81
1, 21846, Note_off_c, 10, 68, 110
1, 21858, Note_off_c, 10, 72, 98
1, 21864, Note_off_c, 3, 80, 105
1, 21868, Note_off_c, 3, 84, 115
1, 21890, Note_on_c, 9, 37, 117
1, 21890, Note_on_c, 9, 42, 112
1, 21892, Note_on_c, 2, 68, 87
1, 21892, Note_on_c, 2, 72, 92
1, 21892, Note_on_c, 3, 82, 118
1, 21892, Note_on_c, 3, 85, 105
1, 21894, Note_off_c, 2, 60, 77
1, 21894, Note_on_c, 10, 70, 112
1, 21894, Note_on_c, 10, 73, 107
1, 21950, Note_off_c, 9, 42, 112
1, 21992, Note_off_c, 7, 32, 104
1, 22002, Note_off_c, 9, 37, 117
1, 22030, Note_off_c, 10, 73, 107
1, 22054, Note_off_c, 10, 70, 112
1, 22054, Note_off_c, 3, 82, 118
1, 22054, Note_off_c, 2, 68, 87
1, 22062, Note_off_c, 2, 72, 92
1, 22066, Note_off_c, 3, 85, 105
1, 22082, Note_on_c, 3, 80, 124
1, 22082, Note_on_c, 3, 84, 118
1, 22082, Note_on_c, 9, 46, 77
1, 22084, Note_on_c, 2, 63, 73
1, 22084, Note_on_c, 10, 68, 103
1, 22084, Note_on_c, 10, 72, 107
1, 22084, Note_on_c, 7, 32, 52
1, 22134, Note_off_c, 9, 46, 77
1, 22170, Note_off_c, 0, 60, 69
1, 22214, Note_off_c, 0, 63, 58
1, 22232, Note_off_c, 7, 32, 52
1, 22274, Note_on_c, 9, 36, 105
1, 22274, Note_on_c, 9, 42, 109
1, 22276, Note_on_c, 0, 63, 71
1, 22276, Note_on_c, 0, 67, 83
1, 22276, Note_on_c, 7, 39, 93
1, 22278, Note_on_c, 2, 70, 94
1, 22280, Note_off_c, 2, 63, 73
1, 22344, Note_off_c, 9, 42, 109
1, 22404, Note_off_c, 3, 80, 124
1, 22418, Note_off_c, 10, 72, 107
1, 22418, Note_off_c, 10, 68, 103
1, 22420, Note_off_c, 9, 36, 105
1, 22452, Note_off_c, 3, 84, 118
1, 22466, Note_on_c, 3, 79, 115
1, 22466, Note_on_c, 3, 82, 100
1, 22466, Note_on_c, 9, 42, 67
1, 22468, Note_on_c, 2, 63, 68
1, 22468, Note_on_c, 10, 67, 112
1, 22468, Note_on_c, 10, 70, 105
1, 22488, Note_off_c, 2, 70, 94
1, 22530, Note_off_c, 9, 42, 67
1, 22582, Note_off_c, 10, 67, 112
1, 22586, Note_off_c, 3, 79, 115
1, 22594, Note_off_c, 3, 82, 100
1, 22618, Note_off_c, 10, 70, 105
1, 22658, Note_on_c, 3, 77, 110
1, 22658, Note_on_c, 3, 80, 110
1, 22658, Note_on_c, 9, 42, 109
1, 22660, Note_on_c, 2, 67, 94
1, 22660, Note_on_c, 10, 65, 110
1, 22660, Note_on_c, 10, 68, 105
1, 22694, Note_off_c, 7, 39, 93
1, 22738, Note_off_c, 10, 65, 110
1, 22742, Note_off_c, 9, 42, 109
1, 22766, Note_off_c, 10, 68, 105
1, 22778, Note_off_c, 3, 77, 110
1, 22818, Note_off_c, 3, 80, 110
1, 22850, Note_off_c, 2, 67, 94
1, 22850, Note_on_c, 9, 36, 87
1, 22850, Note_on_c, 9, 42, 79
1, 22852, Note_on_c, 3, 79, 112
1, 22852, Note_on_c, 3, 82, 103
1, 22852, Note_on_c, 7, 39, 72
1, 22854, Note_on_c, 2, 70, 90
1, 22854, Note_on_c, 10, 67, 105
1, 22854, Note_on_c, 10, 70, 107
1, 22878, Note_off_c, 2, 63, 68
1, 22914, Note_off_c, 7, 39, 72
1, 22926, Note_off_c, 9, 42, 79
1, 22948, Note_off_c, 9, 36, 87
1, 23042, Note_on_c, 9, 36, 107
1, 23042, Note_on_c, 9, 42, 114
1, 23044, Note_on_c, 7, 39, 97
1, 23116, Note_off_c, 9, 42, 114
1, 23182, Note_off_c, 9, 36, 107
1, 23234, Note_on_c, 2, 58, 92
1, 23234, Note_on_c, 9, 42, 79
1, 23310, Note_off_c, 9, 42, 79
1, 23378, Note_off_c, 2, 70, 90
1, 23426, Note_on_c, 9, 37, 114
1, 23426, Note_on_c, 9, 42, 105
1, 23428, Note_on_c, 2, 63, 77
1, 23506, Note_off_c, 9, 42, 105
1, 23574, Note_off_c, 9, 37, 114
1, 23618, Note_on_c, 2, 67, 90
1, 23618, Note_on_c, 9, 42, 77
1, 23682, Control_c, 3, 1, 3
1, 23684, Note_off_c, 9, 42, 77
1, 23700, Note_off_c, 7, 39, 97
1, 23714, Note_on_c, 0, 65, 83
1, 23752, Note_off_c, 3, 82, 103
1, 23756, Note_off_c, 3, 79, 112
1, 23758, Note_off_c, 0, 67, 83
1, 23762, Note_off_c, 2, 67, 90
1, 23768, Note_off_c, 2, 58, 92
1, 23778, Note_off_c, 0, 63, 71
1, 23794, Note_off_c, 2, 63, 77
1, 23806, Control_c, 3, 1, 2
1, 23810, Note_on_c, 9, 36, 109
1, 23812, Note_on_c, 0, 61, 71
1, 23812, Note_on_c, 9, 42, 105
1, 23812, Note_on_c, 7, 37, 95
1, 23814, Note_on_c, 2, 68, 94
1, 23818, Note_off_c, 10, 67, 105
1, 23826, Note_off_c, 10, 70, 107
1, 23890, Note_off_c, 9, 42, 105
1, 23976, Note_off_c, 9, 36, 109
1, 24002, Note_on_c, 2, 56, 83
1, 24002, Note_on_c, 9, 42, 79
1, 24020, Note_off_c, 2, 68, 94
1, 24076, Note_off_c, 9, 42, 79
1, 24194, Note_on_c, 2, 61, 73
1, 24194, Note_on_c, 9, 42, 67
1, 24228, Note_off_c, 7, 37, 95
1, 24258, Note_off_c, 9, 42, 67
1, 24378, Note_off_c, 2, 56, 83
1, 24386, Note_on_c, 9, 36, 100
1, 24386, Note_on_c, 9, 42, 94
1, 24386, Note_on_c, 7, 37, 72
1, 24388, Note_on_c, 2, 68, 105
1, 24414, Note_off_c, 2, 61, 73
1, 24444, Note_off_c, 7, 37, 72
1, 24450, Note_off_c, 9, 42, 94
1, 24494, Note_off_c, 9, 36, 100
1, 24578, Note_on_c, 9, 36, 112
1, 24578, Note_on_c, 9, 42, 109
1, 24580, Note_on_c, 2, 56, 60
1, 24580, Note_on_c, 7, 37, 95
1, 24658, Note_off_c, 2, 68, 105
1, 24666, Note_off_c, 9, 42, 109
1, 24726, Note_off_c, 9, 36, 112
1, 24770, Note_on_c, 3, 77, 115
1, 24770, Note_on_c, 3, 80, 112
1, 24770, Note_on_c, 9, 42, 73
1, 24772, Note_on_c, 2, 61, 73
1, 24772, Note_on_c, 10, 65, 118
1, 24772, Note_on_c, 10, 68, 110
1, 24840, Note_off_c, 9, 42, 73
1, 24906, Note_off_c, 10, 65, 118
1, 24910, Note_off_c, 3, 77, 115
1, 24918, Note_off_c, 10, 68, 110
1, 24922, Note_off_c, 3, 80, 112
1, 24962, Note_on_c, 3, 77, 115
1, 24962, Note_on_c, 9, 37, 114
1, 24962, Note_on_c, 9, 42, 107
1, 24964, Note_on_c, 2, 65, 90
1, 24964, Note_on_c, 2, 68, 105
1, 24964, Note_on_c, 3, 80, 110
1, 24964, Note_on_c, 10, 68, 98
1, 24966, Note_on_c, 10, 65, 105
1, 24984, Note_off_c, 2, 61, 73
1, 24988, Note_off_c, 2, 56, 60
1, 25026, Note_off_c, 9, 42, 107
1, 25086, Note_off_c, 10, 65, 105
1, 25086, Note_off_c, 10, 68, 98
1, 25090, Note_off_c, 3, 77, 115
1, 25100, Note_off_c, 9, 37, 114
1, 25108, Note_off_c, 3, 80, 110
1, 25154, Note_off_c, 2, 65, 90
1, 25154, Note_on_c, 3, 75, 112
1, 25154, Note_on_c, 9, 46, 94
1, 25156, Note_on_c, 2, 61, 85
1, 25156, Note_on_c, 3, 80, 110
1, 25156, Note_on_c, 10, 63, 112
1, 25158, Note_on_c, 10, 68, 105
1, 25170, Note_off_c, 2, 68, 105
1, 25208, Note_off_c, 9, 46, 94
1, 25212, Note_off_c, 7, 37, 95
1, 25302, Note_off_c, 0, 65, 83
1, 25346, Note_off_c, 2, 61, 85
1, 25346, Note_on_c, 9, 36, 98
1, 25348, Note_on_c, 0, 60, 67
1, 25348, Note_on_c, 9, 42, 112
1, 25348, Note_on_c, 7, 32, 99
1, 25350, Note_on_c, 0, 63, 75
1, 25350, Note_on_c, 2, 68, 96
1, 25410, Note_off_c, 0, 61, 71
1, 25418, Note_off_c, 9, 42, 112
1, 25438, Note_off_c, 10, 63, 112
1, 25442, Note_off_c, 3, 75, 112
1, 25450, Note_off_c, 10, 68, 105
1, 25464, Note_off_c, 3, 80, 110
1, 25512, Note_off_c, 9, 36, 98
1, 25538, Note_on_c, 3, 80, 112
1, 25538, Note_on_c, 3, 84, 118
1, 25538, Note_on_c, 9, 42, 71
1, 25540, Note_on_c, 2, 60, 87
1, 25540, Note_on_c, 10, 68, 96
1, 25540, Note_on_c, 10, 72, 112
1, 25546, Note_off_c, 2, 68, 96
1, 25606, Note_off_c, 9, 42, 71
1, 25678, Note_off_c, 3, 84, 118
1, 25690, Note_off_c, 10, 72, 112
1, 25698, Note_off_c, 3, 80, 112
1, 25706, Note_off_c, 10, 68, 96
1, 25730, Note_on_c, 3, 79, 112
1, 25730, Note_on_c, 3, 82, 103
1, 25730, Note_on_c, 9, 42, 83
1, 25732, Note_on_c, 2, 63, 85
1, 25732, Note_on_c, 10, 67, 100
1, 25732, Note_on_c, 10, 70, 103
1, 25746, Note_off_c, 7, 32, 99
1, 25790, Note_off_c, 9, 42, 83
1, 25802, Note_off_c, 2, 60, 87
1, 25868, Note_off_c, 10, 67, 100
1, 25882, Note_off_c, 10, 70, 103
1, 25882, Note_off_c, 3, 82, 103
1, 25882, Note_off_c, 3, 79, 112
1, 25922, Note_on_c, 3, 80, 110
1, 25922, Note_on_c, 9, 36, 102
1, 25922, Note_on_c, 9, 42, 89
1, 25924, Note_on_c, 2, 68, 92
1, 25924, Note_on_c, 2, 72, 92
1, 25924, Note_on_c, 3, 84, 118
1, 25924, Note_on_c, 7, 32, 70
1, 25926, Note_on_c, 10, 68, 85
1, 25926, Note_on_c, 10, 72, 94
1, 25940, Note_off_c, 2, 63, 85
1, 25980, Note_off_c, 9, 42, 89
1, 25994, Note_off_c, 7, 32, 70
1, 26012, Note_off_c, 9, 36, 102
1, 26114, Note_on_c, 9, 36, 114
1, 26114, Note_on_c, 9, 42, 100
1, 26116, Note_on_c, 2, 60, 81
1, 26116, Note_on_c, 7, 32, 97
1, 26134, Note_off_c, 2, 72, 92
1, 26162, Note_off_c, 2, 68, 92
1, 26186, Note_off_c, 9, 42, 100
1, 26242, Note_off_c, 9, 36, 114
1, 26306, Note_on_c, 2, 63, 81
1, 26306, Note_on_c, 9, 42, 67
1, 26362, Note_off_c, 9, 42, 67
1, 26420, Note_off_c, 2, 60, 81
1, 26498, Control_c, 3, 1, 2
1, 26498, Note_on_c, 9, 37, 117
1, 26498, Note_on_c, 9, 42, 100
1, 26500, Note_on_c, 2, 68, 92
1, 26500, Note_on_c, 2, 72, 94
1, 26504, Note_off_c, 2, 63, 81
1, 26538, Control_c, 3, 1, 8
1, 26554, Note_off_c, 7, 32, 97
1, 26558, Note_off_c, 9, 42, 100
1, 26574, Control_c, 3, 1, 16
1, 26614, Control_c, 3, 1, 25
1, 26638, Note_off_c, 9, 37, 117
1, 26650, Control_c, 3, 1, 37
1, 26690, Note_off_c, 2, 72, 94
1, 26690, Note_on_c, 9, 42, 79
1, 26692, Note_off_c, 2, 68, 92
1, 26692, Note_on_c, 2, 63, 77
1, 26692, Note_on_c, 7, 27, 80
1, 26716, Control_c, 3, 1, 43
1, 26742, Note_off_c, 9, 42, 79
1, 26746, Control_c, 3, 1, 47
1, 26828, Control_c, 3, 1, 51
1, 26838, Note_off_c, 10, 72, 94
1, 26842, Note_off_c, 10, 68, 85
1, 26852, Note_off_c, 3, 84, 118
1, 26856, Note_off_c, 3, 80, 110
1, 26868, Note_off_c, 7, 27, 80
1, 26882, Note_on_c, 9, 36, 102
1, 26884, Note_on_c, 2, 68, 90
1, 26884, Note_on_c, 2, 72, 96
1, 26884, Note_on_c, 9, 42, 94
1, 26884, Note_on_c, 7, 32, 101
1, 26892, Note_off_c, 2, 63, 77
1, 26954, Note_off_c, 9, 42, 94
1, 27004, Note_off_c, 9, 36, 102
1, 27052, Note_off_c, 2, 72, 96
1, 27074, Note_on_c, 2, 60, 90
1, 27074, Note_on_c, 9, 42, 66
1, 27084, Note_off_c, 2, 68, 90
1, 27146, Note_off_c, 9, 42, 66
1, 27266, Note_on_c, 2, 63, 90
1, 27266, Note_on_c, 9, 42, 79
1, 27284, Note_off_c, 2, 60, 90
1, 27298, Note_off_c, 7, 32, 101
1, 27322, Note_off_c, 9, 42, 79
1, 27458, Note_on_c, 9, 36, 98
1, 27458, Note_on_c, 9, 42, 89
1, 27458, Note_on_c, 7, 32, 63
1, 27460, Note_off_c, 2, 63, 90
1, 27460, Note_on_c, 2, 68, 90
1, 27460, Note_on_c, 2, 72, 94
1, 27514, Note_off_c, 9, 42, 89
1, 27524, Note_off_c, 9, 36, 98
1, 27530, Note_off_c, 7, 32, 63
1, 27650, Note_on_c, 9, 36, 120
1, 27650, Note_on_c, 9, 42, 102
1, 27652, Note_on_c, 2, 60, 79
1, 27652, Note_on_c, 7, 32, 78
1, 27656, Note_off_c, 2, 72, 94
1, 27682, Note_off_c, 2, 68, 90
1, 27718, Note_off_c, 9, 42, 102
1, 27764, Note_off_c, 9, 36, 120
1, 27842, Note_on_c, 3, 84, 110
1, 27842, Note_on_c, 9, 42, 75
1, 27844, Note_on_c, 2, 63, 81
1, 27844, Note_on_c, 3, 80, 110
1, 27844, Note_on_c, 10, 68, 98
1, 27844, Note_on_c, 10, 72, 94
1, 27882, Note_off_c, 2, 60, 79
1, 27906, Note_off_c, 9, 42, 75
1, 27996, Note_off_c, 10, 68, 98
1, 28002, Note_off_c, 10, 72, 94
1, 28004, Note_off_c, 3, 80, 110
1, 28008, Note_off_c, 3, 84, 110
1, 28034, Note_on_c, 3, 82, 110
1, 28034, Note_on_c, 9, 37, 120
1, 28034, Note_on_c, 9, 42, 105
1, 28036, Note_on_c, 2, 68, 92
1, 28036, Note_on_c, 2, 72, 94
1, 28036, Note_on_c, 3, 85, 92
1, 28038, Note_on_c, 10, 70, 94
1, 28038, Note_on_c, 10, 73, 94
1, 28052, Note_off_c, 2, 63, 81
1, 28098, Note_off_c, 9, 42, 105
1, 28122, Note_off_c, 9, 37, 120
1, 28166, Note_off_c, 10, 73, 94
1, 28188, Note_off_c, 10, 70, 94
1, 28188, Note_off_c, 3, 82, 110
1, 28196, Note_off_c, 3, 85, 92
1, 28210, Note_off_c, 2, 72, 94
1, 28226, Note_off_c, 2, 68, 92
1, 28226, Note_on_c, 3, 80, 112
1, 28226, Note_on_c, 3, 84, 107
1, 28226, Note_on_c, 9, 46, 94
1, 28228, Note_on_c, 2, 63, 69
1, 28228, Note_on_c, 10, 68, 96
1, 28228, Note_on_c, 10, 72, 103
1, 28282, Note_off_c, 9, 46, 94
1, 28296, Note_off_c, 7, 32, 78
1, 28346, Note_off_c, 0, 63, 75
1, 28372, Note_off_c, 0, 60, 67
1, 28418, Note_on_c, 9, 36, 112
1, 28420, Note_on_c, 0, 63, 65
1, 28420, Note_on_c, 0, 67, 87
1, 28420, Note_on_c, 9, 42, 112
1, 28420, Note_on_c, 7, 39, 93
1, 28422, Note_on_c, 2, 70, 94
1, 28460, Note_off_c, 2, 63, 69
1, 28484, Note_off_c, 9, 42, 112
1, 28516, Note_off_c, 9, 36, 112
1, 28530, Note_off_c, 3, 80, 112
1, 28568, Note_off_c, 3, 84, 107
1, 28588, Note_off_c, 10, 68, 96
1, 28594, Note_off_c, 10, 72, 103
1, 28610, Note_on_c, 3, 82, 103
1, 28610, Note_on_c, 9, 42, 75
1, 28612, Note_on_c, 2, 58, 85
1, 28612, Note_on_c, 3, 79, 112
1, 28612, Note_on_c, 10, 67, 107
1, 28612, Note_on_c, 10, 70, 100
1, 28674, Note_off_c, 9, 42, 75
1, 28692, Note_off_c, 2, 70, 94
1, 28718, Note_off_c, 3, 79, 112
1, 28722, Note_off_c, 10, 67, 107
1, 28730, Note_off_c, 3, 82, 103
1, 28770, Note_off_c, 10, 70, 100
1, 28802, Note_on_c, 3, 77, 112
1, 28802, Note_on_c, 3, 80, 110
1, 28802, Note_on_c, 9, 42, 85
1, 28804, Note_on_c, 2, 63, 75
1, 28804, Note_on_c, 10, 65, 110
1, 28804, Note_on_c, 10, 68, 94
1, 28850, Note_off_c, 7, 39, 93
1, 28852, Note_off_c, 9, 42, 85
1, 28882, Note_off_c, 10, 65, 110
1, 28910, Note_off_c, 10, 68, 94
1, 28924, Note_off_c, 3, 77, 112
1, 28964, Note_off_c, 3, 80, 110
1, 28988, Note_off_c, 2, 58, 85
1, 28994, Note_on_c, 3, 82, 112
1, 28994, Note_on_c, 9, 36, 105
1, 28994, Note_on_c, 9, 42, 94
1, 28996, Note_on_c, 2, 67, 98
1, 28996, Note_on_c, 3, 79, 115
1, 28996, Note_on_c, 7, 39, 80
1, 28998, Note_on_c, 2, 70, 94
1, 28998, Note_on_c, 10, 67, 105
1, 28998, Note_on_c, 10, 70, 98
1, 29014, Note_off_c, 2, 63, 75
1, 29054, Note_off_c, 9, 42, 94
1, 29068, Note_off_c, 9, 36, 105
1, 29080, Note_off_c, 7, 39, 80
1, 29186, Note_on_c, 9, 36, 120
1, 29186, Note_on_c, 9, 42, 102
1, 29188, Note_on_c, 2, 58, 77
1, 29188, Note_on_c, 7, 39, 93
1, 29240, Note_off_c, 2, 70, 94
1, 29252, Note_off_c, 9, 42, 102
1, 29262, Note_off_c, 2, 67, 98
1, 29306, Note_off_c, 9, 36, 120
1, 29378, Note_on_c, 2, 63, 79
1, 29378, Note_on_c, 9, 42, 77
1, 29428, Note_off_c, 9, 42, 77
1, 29482, Control_c, 3, 1, 2
1, 29518, Control_c, 3, 1, 15
1, 29558, Control_c, 3, 1, 23
1, 29570, Note_off_c, 2, 58, 77
1, 29570, Note_on_c, 9, 37, 117
1, 29570, Note_on_c, 9, 42, 114
1, 29572, Note_off_c, 2, 63, 79
1, 29572, Note_on_c, 2, 67, 96
1, 29572, Note_on_c, 2, 70, 92
1, 29612, Control_c, 3, 1, 29
1, 29636, Note_off_c, 7, 39, 93
1, 29642, Note_off_c, 9, 42, 114
1, 29642, Control_c, 3, 1, 36
1, 29688, Control_c, 3, 1, 40
1, 29702, Note_off_c, 9, 37, 117
1, 29718, Control_c, 3, 1, 45
1, 29762, Note_off_c, 2, 70, 92
1, 29762, Note_on_c, 9, 42, 81
1, 29762, Note_on_c, 7, 34, 95
1, 29764, Note_off_c, 2, 67, 96
1, 29764, Note_on_c, 2, 63, 73
1, 29786, Note_off_c, 10, 67, 105
1, 29794, Note_off_c, 10, 70, 98
1, 29826, Note_off_c, 9, 42, 81
1, 29858, Note_off_c, 3, 79, 115
1, 29862, Note_off_c, 3, 82, 112
1, 29910, Control_c, 3, 1, 35
1, 29938, Note_off_c, 7, 34, 95
1, 29944, Control_c, 3, 1, 3
1, 29954, Note_on_c, 9, 36, 114
1, 29954, Note_on_c, 9, 42, 102
1, 29956, Note_off_c, 2, 63, 73
1, 29956, Note_on_c, 2, 70, 100
1, 29956, Note_on_c, 7, 39, 91
1, 30026, Note_off_c, 9, 42, 102
1, 30088, Note_off_c, 9, 36, 114
1, 30146, Note_on_c, 2, 58, 79
1, 30146, Note_on_c, 9, 42, 89
1, 30218, Note_off_c, 9, 42, 89
1, 30312, Note_off_c, 2, 70, 100
1, 30338, Note_on_c, 2, 63, 96
1, 30338, Note_on_c, 9, 42, 79
1, 30398, Note_off_c, 7, 39, 91
1, 30410, Note_off_c, 9, 42, 79
1, 30530, Note_on_c, 9, 36, 98
1, 30530, Note_on_c, 9, 42, 89
1, 30530, Note_on_c, 7, 39, 66
1, 30532, Note_on_c, 2, 67, 98
1, 30536, Note_off_c, 2, 63, 96
1, 30590, Note_off_c, 9, 42, 89
1, 30610, Note_off_c, 2, 58, 79
1, 30626, Note_off_c, 9, 36, 98
1, 30626, Note_on_c, 0, 65, 87
1, 30634, Note_off_c, 0, 67, 87
1, 30690, Note_off_c, 0, 63, 65
1, 30698, Note_off_c, 2, 67, 98
1, 30706, Note_off_c, 7, 39, 66
1, 30722, Note_on_c, 9, 36, 120
1, 30722, Note_on_c, 9, 42, 102
1, 30724, Note_on_c, 0, 61, 79
1, 30724, Note_on_c, 2, 68, 90
1, 30724, Note_on_c, 7, 37, 99
1, 30726, Note_on_c, 2, 65, 107
1, 30796, Note_off_c, 9, 42, 102
1, 30872, Note_off_c, 9, 36, 120
1, 30914, Note_on_c, 3, 77, 115
1, 30914, Note_on_c, 9, 42, 81
1, 30916, Note_on_c, 2, 61, 90
1, 30916, Note_on_c, 3, 80, 112
1, 30916, Note_on_c, 10, 65, 112
1, 30916, Note_on_c, 10, 68, 107
1, 30940, Note_off_c, 2, 65, 107
1, 30972, Note_off_c, 2, 68, 90
1, 30978, Note_off_c, 9, 42, 81
1, 31022, Note_off_c, 10, 65, 112
1, 31048, Note_off_c, 10, 68, 107
1, 31052, Note_off_c, 3, 77, 115
1, 31060, Note_off_c, 3, 80, 112
1, 31106, Note_on_c, 3, 77, 115
1, 31106, Note_on_c, 9, 37, 120
1, 31106, Note_on_c, 9, 42, 107
1, 31108, Note_on_c, 2, 65, 92
1, 31108, Note_on_c, 3, 80, 105
1, 31108, Note_on_c, 10, 65, 103
1, 31110, Note_on_c, 10, 68, 92
1, 31164, Note_off_c, 9, 42, 107
1, 31196, Note_off_c, 9, 37, 120
1, 31214, Note_off_c, 10, 65, 103
1, 31214, Note_off_c, 7, 37, 99
1, 31226, Note_off_c, 10, 68, 92
1, 31246, Note_off_c, 3, 77, 115
1, 31256, Note_off_c, 3, 80, 105
1, 31298, Note_on_c, 3, 80, 103
1, 31298, Note_on_c, 9, 46, 96
1, 31300, Note_on_c, 2, 68, 87
1, 31300, Note_on_c, 3, 75, 110
1, 31300, Note_on_c, 7, 37, 61
1, 31302, Note_off_c, 2, 65, 92
1, 31302, Note_on_c, 10, 63, 100
1, 31302, Note_on_c, 10, 68, 94
1, 31330, Note_off_c, 2, 61, 90
1, 31358, Note_off_c, 9, 46, 96
1, 31410, Note_off_c, 0, 65, 87
1, 31434, Note_off_c, 2, 68, 87
1, 31490, Note_off_c, 7, 37, 61
1, 31490, Note_on_c, 9, 36, 117
1, 31492, Note_on_c, 0, 60, 66
1, 31492, Note_on_c, 0, 68, 66
1, 31492, Note_on_c, 9, 42, 112
1, 31492, Note_on_c, 7, 32, 76
1, 31494, Note_on_c, 2, 68, 96
1, 31494, Note_on_c, 8, 60, 67
1, 31494, Note_on_c, 8, 68, 82
1, 31510, Note_off_c, 0, 61, 79
1, 31556, Note_off_c, 9, 42, 112
1, 31596, Note_off_c, 9, 36, 117
1, 31596, Note_off_c, 10, 63, 100
1, 31610, Note_off_c, 3, 75, 110
1, 31630, Note_off_c, 10, 68, 94
1, 31638, Note_off_c, 3, 80, 103
1, 31682, Note_on_c, 3, 80, 110
1, 31682, Note_on_c, 3, 84, 118
1, 31682, Note_on_c, 9, 42, 81
1, 31684, Note_on_c, 2, 60, 68
1, 31684, Note_on_c, 10, 68, 105
1, 31684, Note_on_c, 10, 72, 115
1, 31720, Note_off_c, 2, 68, 96
1, 31746, Note_off_c, 9, 42, 81
1, 31820, Note_off_c, 10, 72, 115
1, 31838, Note_off_c, 10, 68, 105
1, 31842, Note_off_c, 3, 84, 118
1, 31842, Note_off_c, 3, 80, 110
1, 31874, Note_on_c, 3, 79, 110
1, 31874, Note_on_c, 9, 42, 89
1, 31876, Note_on_c, 2, 63, 75
1, 31876, Note_on_c, 3, 82, 98
1, 31876, Note_on_c, 10, 67, 107
1, 31876, Note_on_c, 10, 70, 98
1, 31882, Note_off_c, 7, 32, 76
1, 31928, Note_off_c, 9, 42, 89
1, 32002, Note_off_c, 10, 67, 107
1, 32022, Note_off_c, 10, 70, 98
1, 32034, Note_off_c, 3, 82, 98
1, 32040, Note_off_c, 3, 79, 110
1, 32066, Note_on_c, 3, 84, 115
1, 32066, Note_on_c, 9, 36, 112
1, 32066, Note_on_c, 9, 42, 100
1, 32068, Note_on_c, 2, 72, 105
1, 32068, Note_on_c, 3, 80, 100
1, 32068, Note_on_c, 7, 32, 78
1, 32070, Note_on_c, 10, 68, 107
1, 32070, Note_on_c, 10, 72, 115
1, 32098, Note_off_c, 2, 63, 75
1, 32130, Note_off_c, 9, 42, 100
1, 32142, Note_off_c, 7, 32, 78
1, 32142, Note_off_c, 9, 36, 112
1, 32258, Note_on_c, 9, 36, 114
1, 32260, Note_on_c, 2, 63, 63
1, 32260, Note_on_c, 9, 42, 107
1, 32260, Note_on_c, 7, 32, 95
1, 32280, Note_off_c, 2, 60, 68
1, 32332, Note_off_c, 9, 42, 107
1, 32362, Note_off_c, 9, 36, 114
1, 32450, Note_on_c, 2, 60, 85
1, 32450, Note_on_c, 9, 42, 89
1, 32514, Note_off_c, 9, 42, 89
1, 32610, Control_c, 3, 1, 4
1, 32642, Note_on_c, 0, 63, 47
1, 32642, Note_on_c, 9, 37, 120
1, 32642, Note_on_c, 9, 42, 114
1, 32644, Note_on_c, 2, 68, 103
1, 32654, Note_off_c, 2, 63, 63
1, 32668, Control_c, 3, 1, 5
1, 32694, Note_off_c, 7, 32, 95
1, 32696, Note_off_c, 9, 42, 114
1, 32696, Note_off_c, 2, 60, 85
1, 32706, Control_c, 3, 1, 9
1, 32708, Note_off_c, 9, 37, 120
1, 32746, Control_c, 3, 1, 14
1, 32782, Control_c, 3, 1, 16
1, 32822, Control_c, 3, 1, 18
1, 32834, Note_on_c, 9, 46, 87
1, 32834, Note_on_c, 7, 39, 68
1, 32836, Note_on_c, 2, 60, 92
1, 32836, Note_on_c, 2, 63, 42
1, 32882, Note_off_c, 9, 46, 87
1, 32898, Note_off_c, 2, 68, 103
1, 32900, Note_off_c, 2, 63, 42
1, 32900, Note_off_c, 2, 72, 105
1, 32906, Control_c, 3, 1, 24
1, 32942, Control_c, 3, 1, 26
1, 33018, Note_off_c, 7, 39, 68
1, 33026, Note_on_c, 9, 36, 107
1, 33026, Note_on_c, 9, 42, 105
1, 33028, Note_on_c, 2, 68, 92
1, 33028, Note_on_c, 2, 72, 94
1, 33028, Note_on_c, 7, 32, 88
1, 33074, Note_off_c, 3, 80, 100
1, 33074, Note_off_c, 3, 84, 115
1, 33098, Note_off_c, 9, 42, 105
1, 33108, Note_off_c, 9, 36, 107
1, 33718, Note_off_c, 2, 60, 92
1, 33780, Note_off_c, 10, 72, 115
1, 33788, Note_off_c, 10, 68, 107
1, 33956, Note_off_c, 0, 60, 66
1, 34028, Note_off_c, 2, 72, 94
1, 34054, Note_off_c, 7, 32, 88
1, 34066, Note_off_c, 2, 68, 92
1, 34078, Note_off_c, 0, 68, 66
1, 34090, Note_off_c, 0, 63, 47
1, 34290, Note_off_c, 8, 60, 67
1, 34296, Note_off_c, 8, 68, 82
1, 35506, Note_on_c, 6, 68, 87
1, 35510, Note_on_c, 6, 72, 95
1, 35522, Note_on_c, 9, 42, 71
1, 35522, Note_on_c, 9, 45, 79
1, 35526, Note_on_c, 5, 72, 87
1, 35582, Note_off_c, 9, 42, 71
1, 35598, Note_off_c, 9, 45, 79
1, 35610, Note_off_c, 6, 68, 87
1, 35618, Note_off_c, 6, 72, 95
1, 35618, Note_on_c, 9, 42, 67
1, 35654, Note_off_c, 5, 72, 87
1, 35676, Note_off_c, 9, 42, 67
1, 35698, Note_on_c, 6, 68, 82
1, 35702, Note_on_c, 6, 72, 93
1, 35708, Note_on_c, 5, 72, 91
1, 35714, Note_on_c, 9, 41, 81
1, 35714, Note_on_c, 9, 46, 92
1, 35714, Note_on_c, 7, 39, 65
1, 35772, Note_off_c, 9, 46, 92
1, 35796, Note_off_c, 6, 68, 82
1, 35798, Note_off_c, 9, 41, 81
1, 35798, Note_off_c, 5, 72, 91
1, 35806, Note_off_c, 6, 72, 93
1, 35896, Note_on_c, 6, 72, 102
1, 35900, Note_on_c, 6, 68, 85
1, 35910, Note_on_c, 5, 72, 95
1, 36082, Note_off_c, 7, 39, 65
1, 36098, Note_on_c, 9, 36, 98
1, 36100, Note_on_c, 0, 51, 55
1, 36100, Note_on_c, 9, 42, 87
1, 36100, Note_on_c, 7, 32, 99
1, 36102, Note_on_c, 0, 56, 67
1, 36102, Note_on_c, 0, 60, 63
1, 36102, Note_on_c, 2, 72, 96
1, 36102, Note_on_c, 9, 49, 94
1, 36162, Note_off_c, 9, 42, 87
1, 36184, Note_off_c, 9, 49, 94
1, 36188, Control_c, 5, 1, 2
1, 36218, Note_off_c, 9, 36, 98
1, 36218, Control_c, 5, 1, 16
1, 36258, Control_c, 5, 1, 26
1, 36264, Note_off_c, 6, 68, 85
1, 36280, Note_off_c, 6, 72, 102
1, 36290, Note_on_c, 2, 63, 73
1, 36290, Note_on_c, 9, 42, 55
1, 36292, Note_on_c, 10, 56, 85
1, 36294, Note_on_c, 6, 70, 100
1, 36294, Note_on_c, 6, 73, 91
1, 36306, Note_on_c, 5, 73, 85
1, 36322, Note_off_c, 5, 72, 95
1, 36346, Control_c, 5, 1, 0
1, 36350, Note_off_c, 9, 42, 55
1, 36362, Note_off_c, 2, 72, 96
1, 36438, Note_off_c, 6, 70, 100
1, 36442, Note_off_c, 6, 73, 91
1, 36482, Note_off_c, 10, 56, 85
1, 36482, Note_on_c, 9, 37, 96
1, 36482, Note_on_c, 9, 42, 92
1, 36484, Note_on_c, 2, 68, 71
1, 36484, Note_on_c, 10, 60, 103
1, 36486, Note_on_c, 6, 75, 78
1, 36490, Note_on_c, 5, 75, 87
1, 36490, Note_on_c, 6, 72, 93
1, 36498, Note_off_c, 5, 73, 85
1, 36514, Note_off_c, 2, 63, 73
1, 36520, Note_off_c, 7, 32, 99
1, 36556, Note_off_c, 9, 42, 92
1, 36574, Note_off_c, 6, 72, 93
1, 36582, Note_off_c, 6, 75, 78
1, 36586, Note_off_c, 9, 37, 96
1, 36594, Note_off_c, 5, 75, 87
1, 36596, Note_off_c, 2, 68, 71
1, 36660, Note_off_c, 10, 60, 103
1, 36674, Note_on_c, 9, 36, 77
1, 36674, Note_on_c, 9, 42, 63
1, 36674, Note_on_c, 5, 75, 87
1, 36676, Note_on_c, 2, 72, 94
1, 36676, Note_on_c, 7, 32, 93
1, 36676, Note_on_c, 6, 72, 95
1, 36678, Note_on_c, 2, 68, 90
1, 36678, Note_on_c, 10, 63, 85
1, 36678, Note_on_c, 6, 75, 89
1, 36740, Note_off_c, 7, 32, 93
1, 36748, Note_off_c, 9, 42, 63
1, 36768, Note_off_c, 9, 36, 77
1, 36866, Note_on_c, 9, 36, 100
1, 36866, Note_on_c, 9, 42, 92
1, 36868, Note_on_c, 2, 60, 75
1, 36868, Note_on_c, 7, 32, 93
1, 36878, Note_off_c, 2, 68, 90
1, 36878, Note_off_c, 2, 72, 94
1, 36946, Note_off_c, 9, 42, 92
1, 37004, Note_off_c, 9, 36, 100
1, 37026, Note_off_c, 6, 75, 89
1, 37030, Note_off_c, 6, 72, 95
1, 37054, Note_on_c, 6, 70, 91
1, 37058, Note_off_c, 5, 75, 87
1, 37058, Note_on_c, 9, 42, 60
1, 37060, Note_on_c, 2, 63, 69
1, 37060, Note_on_c, 5, 73, 91
1, 37060, Note_on_c, 6, 73, 87
1, 37090, Note_off_c, 2, 60, 75
1, 37124, Note_off_c, 9, 42, 60
1, 37218, Note_off_c, 6, 70, 91
1, 37220, Note_off_c, 5, 73, 91
1, 37230, Note_off_c, 2, 63, 69
1, 37234, Note_off_c, 6, 73, 87
1, 37246, Note_on_c, 5, 72, 91
1, 37250, Note_on_c, 2, 68, 90
1, 37250, Note_on_c, 2, 72, 96
1, 37250, Note_on_c, 9, 37, 102
1, 37250, Note_on_c, 9, 42, 94
1, 37256, Note_on_c, 6, 68, 87
1, 37260, Note_on_c, 6, 72, 89
1, 37300, Note_off_c, 7, 32, 93
1, 37326, Note_off_c, 9, 42, 94
1, 37334, Note_off_c, 5, 72, 91
1, 37334, Note_on_c, 5, 1, 68
1, 37338, Note_off_c, 5, 1, 68
1, 37340, Note_on_c, 5, 1, 72
1, 37372, Note_off_c, 9, 37, 102
1, 37388, Note_off_c, 5, 1, 72
1, 37442, Note_on_c, 9, 42, 61
1, 37442, Note_on_c, 5, 72, 93
1, 37444, Note_off_c, 2, 72, 96
1, 37444, Note_on_c, 2, 63, 73
1, 37444, Note_on_c, 7, 27, 68
1, 37452, Note_off_c, 6, 68, 87
1, 37454, Note_on_c, 6, 68, 87
1, 37456, Note_off_c, 6, 72, 89
1, 37458, Note_off_c, 2, 68, 90
1, 37458, Note_on_c, 6, 72, 95
1, 37494, Note_off_c, 10, 63, 85
1, 37508, Note_off_c, 9, 42, 61
1, 37602, Note_off_c, 7, 27, 68
1, 37602, Note_off_c, 2, 63, 73
1, 37634, Note_on_c, 9, 36, 100
1, 37634, Note_on_c, 9, 42, 98
1, 37636, Note_on_c, 2, 68, 90
1, 37636, Note_on_c, 2, 72, 96
1, 37636, Note_on_c, 7, 32, 93
1, 37700, Note_off_c, 9, 42, 98
1, 37736, Note_off_c, 9, 36, 100
1, 37802, Note_off_c, 2, 72, 96
1, 37804, Note_off_c, 6, 68, 87
1, 37816, Note_off_c, 6, 72, 95
1, 37826, Note_on_c, 2, 60, 94
1, 37826, Note_on_c, 10, 56, 69
1, 37826, Note_on_c, 9, 42, 57
1, 37832, Note_off_c, 5, 72, 93
1, 37838, Note_on_c, 5, 73, 87
1, 37838, Note_on_c, 6, 70, 98
1, 37842, Note_on_c, 6, 73, 87
1, 37858, Note_off_c, 2, 68, 90
1, 37884, Note_off_c, 9, 42, 57
1, 37992, Note_off_c, 6, 70, 98
1, 37996, Note_off_c, 6, 73, 87
1, 38008, Note_off_c, 5, 73, 87
1, 38018, Note_on_c, 9, 37, 94
1, 38018, Note_on_c, 9, 42, 92
1, 38018, Note_on_c, 5, 75, 80
1, 38020, Note_on_c, 2, 63, 94
1, 38020, Note_on_c, 10, 60, 79
1, 38024, Note_on_c, 6, 75, 74
1, 38028, Note_on_c, 6, 72, 91
1, 38036, Note_off_c, 2, 60, 94
1, 38042, Note_off_c, 10, 56, 69
1, 38078, Note_off_c, 7, 32, 93
1, 38090, Note_off_c, 9, 42, 92
1, 38114, Note_off_c, 6, 72, 91
1, 38114, Note_off_c, 5, 75, 80
1, 38116, Note_off_c, 6, 75, 74
1, 38122, Note_off_c, 9, 37, 94
1, 38210, Note_on_c, 9, 36, 75
1, 38210, Note_on_c, 9, 42, 75
1, 38210, Note_on_c, 5, 75, 76
1, 38212, Note_on_c, 2, 68, 94
1, 38212, Note_on_c, 2, 72, 92
1, 38212, Note_on_c, 7, 32, 82
1, 38214, Note_on_c, 10, 63, 64
1, 38218, Note_off_c, 2, 63, 94
1, 38218, Note_on_c, 6, 75, 87
1, 38222, Note_on_c, 6, 72, 100
1, 38282, Note_off_c, 9, 42, 75
1, 38306, Note_off_c, 7, 32, 82
1, 38310, Note_off_c, 9, 36, 75
1, 38402, Note_on_c, 9, 36, 98
1, 38402, Note_on_c, 9, 42, 100
1, 38404, Note_on_c, 2, 63, 64
1, 38404, Note_on_c, 7, 32, 88
1, 38408, Note_off_c, 2, 68, 94
1, 38412, Note_off_c, 2, 72, 92
1, 38490, Note_off_c, 9, 42, 100
1, 38514, Control_c, 5, 1, 2
1, 38536, Note_off_c, 9, 36, 98
1, 38554, Control_c, 5, 1, 11
1, 38590, Control_c, 5, 1, 25
1, 38594, Note_on_c, 2, 60, 90
1, 38594, Note_on_c, 9, 42, 68
1, 38620, Control_c, 5, 1, 30
1, 38630, Note_off_c, 2, 63, 64
1, 38652, Note_off_c, 9, 42, 68
1, 38670, Note_off_c, 10, 60, 79
1, 38678, Control_c, 5, 1, 38
1, 38718, Control_c, 5, 1, 45
1, 38782, Note_off_c, 10, 63, 64
1, 38786, Note_on_c, 9, 37, 100
1, 38786, Note_on_c, 9, 42, 98
1, 38788, Note_on_c, 2, 68, 94
1, 38788, Note_on_c, 2, 72, 96
1, 38790, Note_off_c, 2, 60, 90
1, 38822, Control_c, 5, 1, 31
1, 38842, Note_off_c, 6, 72, 100
1, 38854, Note_off_c, 6, 75, 87
1, 38854, Control_c, 5, 1, 0
1, 38866, Note_off_c, 9, 42, 98
1, 38894, Note_off_c, 7, 32, 88
1, 38930, Note_off_c, 5, 75, 76
1, 38946, Note_off_c, 9, 37, 100
1, 38962, Note_off_c, 2, 72, 96
1, 38962, Note_on_c, 5, 72, 95
1, 38970, Note_on_c, 6, 72, 78
1, 38974, Note_on_c, 6, 68, 74
1, 38978, Note_on_c, 2, 60, 75
1, 38978, Note_on_c, 9, 42, 61
1, 38980, Note_off_c, 2, 68, 94
1, 39034, Note_off_c, 9, 42, 61
1, 39058, Note_off_c, 6, 68, 74
1, 39064, Note_off_c, 5, 72, 95
1, 39066, Note_off_c, 6, 72, 78
1, 39164, Note_off_c, 2, 60, 75
1, 39170, Note_on_c, 9, 36, 98
1, 39170, Note_on_c, 9, 42, 100
1, 39172, Note_on_c, 2, 68, 81
1, 39172, Note_on_c, 2, 72, 87
1, 39172, Note_on_c, 7, 32, 97
1, 39174, Note_on_c, 5, 72, 102
1, 39182, Note_on_c, 6, 68, 98
1, 39182, Note_on_c, 6, 72, 95
1, 39254, Note_off_c, 9, 42, 100
1, 39338, Note_off_c, 6, 72, 95
1, 39342, Note_off_c, 6, 68, 98
1, 39356, Note_off_c, 9, 36, 98
1, 39358, Note_on_c, 6, 70, 89
1, 39362, Note_off_c, 5, 72, 102
1, 39362, Note_on_c, 9, 42, 61
1, 39362, Note_on_c, 6, 73, 82
1, 39364, Note_on_c, 2, 60, 77
1, 39364, Note_on_c, 10, 56, 90
1, 39370, Note_off_c, 2, 72, 87
1, 39374, Note_on_c, 5, 73, 91
1, 39396, Note_off_c, 2, 68, 81
1, 39430, Note_off_c, 9, 42, 61
1, 39492, Note_off_c, 6, 70, 89
1, 39500, Note_off_c, 6, 73, 82
1, 39538, Note_off_c, 5, 73, 91
1, 39546, Note_on_c, 6, 72, 100
1, 39550, Note_off_c, 10, 56, 90
1, 39550, Note_on_c, 5, 75, 91
1, 39550, Note_on_c, 6, 75, 72
1, 39554, Note_on_c, 2, 63, 87
1, 39554, Note_on_c, 9, 37, 98
1, 39554, Note_on_c, 9, 42, 92
1, 39556, Note_on_c, 10, 60, 100
1, 39592, Note_off_c, 7, 32, 97
1, 39602, Note_off_c, 2, 60, 77
1, 39634, Note_off_c, 9, 42, 92
1, 39638, Note_off_c, 5, 75, 91
1, 39640, Note_off_c, 6, 75, 72
1, 39640, Note_off_c, 6, 72, 100
1, 39666, Note_off_c, 9, 37, 98
1, 39738, Note_off_c, 10, 60, 100
1, 39746, Note_off_c, 2, 63, 87
1, 39746, Note_on_c, 9, 36, 70
1, 39746, Note_on_c, 9, 42, 66
1, 39746, Note_on_c, 7, 32, 66
1, 39748, Note_on_c, 2, 68, 92
1, 39748, Note_on_c, 2, 72, 94
1, 39748, Note_on_c, 10, 63, 69
1, 39750, Note_on_c, 5, 75, 91
1, 39750, Note_on_c, 6, 72, 87
1, 39752, Note_on_c, 6, 75, 85
1, 39818, Note_off_c, 9, 42, 66
1, 39826, Note_off_c, 7, 32, 66
1, 39838, Note_off_c, 9, 36, 70
1, 39934, Note_off_c, 2, 72, 94
1, 39938, Note_on_c, 9, 36, 105
1, 39938, Note_on_c, 9, 42, 102
1, 39940, Note_on_c, 2, 60, 69
1, 39940, Note_on_c, 7, 32, 95
1, 40004, Note_off_c, 2, 68, 92
1, 40034, Note_off_c, 9, 42, 102
1, 40066, Note_off_c, 9, 36, 105
1, 40098, Note_off_c, 6, 75, 85
1, 40100, Note_off_c, 6, 72, 87
1, 40106, Note_off_c, 5, 75, 91
1, 40124, Note_on_c, 5, 73, 102
1, 40130, Note_on_c, 2, 63, 85
1, 40130, Note_on_c, 9, 42, 68
1, 40138, Note_on_c, 6, 70, 85
1, 40142, Note_on_c, 6, 73, 74
1, 40146, Note_off_c, 2, 60, 69
1, 40202, Note_off_c, 9, 42, 68
1, 40286, Note_off_c, 6, 70, 85
1, 40298, Note_off_c, 5, 73, 102
1, 40306, Note_off_c, 6, 73, 74
1, 40306, Note_off_c, 2, 63, 85
1, 40318, Note_on_c, 5, 72, 89
1, 40322, Note_on_c, 9, 37, 109
1, 40322, Note_on_c, 9, 42, 98
1, 40324, Note_on_c, 2, 68, 92
1, 40324, Note_on_c, 2, 72, 94
1, 40326, Note_on_c, 6, 68, 82
1, 40330, Note_on_c, 6, 72, 89
1, 40338, Note_off_c, 10, 63, 69
1, 40390, Note_off_c, 7, 32, 95
1, 40398, Note_off_c, 9, 42, 98
1, 40398, Note_off_c, 5, 72, 89
1, 40418, Note_off_c, 6, 68, 82
1, 40424, Note_off_c, 6, 72, 89
1, 40460, Note_off_c, 9, 37, 109
1, 40498, Note_off_c, 2, 68, 92
1, 40514, Note_on_c, 9, 42, 67
1, 40514, Note_on_c, 5, 72, 95
1, 40516, Note_on_c, 2, 63, 71
1, 40516, Note_on_c, 7, 27, 74
1, 40522, Note_off_c, 2, 72, 94
1, 40524, Note_on_c, 6, 68, 89
1, 40530, Note_on_c, 6, 72, 89
1, 40586, Note_off_c, 9, 42, 67
1, 40686, Note_off_c, 7, 27, 74
1, 40706, Note_on_c, 9, 36, 105
1, 40708, Note_on_c, 2, 68, 90
1, 40708, Note_on_c, 2, 72, 94
1, 40708, Note_on_c, 9, 42, 94
1, 40708, Note_on_c, 7, 32, 93
1, 40714, Note_off_c, 2, 63, 71
1, 40786, Note_off_c, 9, 42, 94
1, 40814, Note_off_c, 6, 68, 89
1, 40834, Note_off_c, 9, 36, 105
1, 40838, Note_off_c, 2, 72, 94
1, 40846, Note_off_c, 6, 72, 89
1, 40898, Note_on_c, 2, 60, 83
1, 40898, Note_on_c, 9, 42, 63
1, 40898, Note_on_c, 6, 67, 91
1, 40900, Note_on_c, 10, 56, 87
1, 40902, Note_on_c, 6, 70, 85
1, 40906, Note_on_c, 5, 70, 93
1, 40916, Note_off_c, 5, 72, 95
1, 40930, Note_off_c, 2, 68, 90
1, 40958, Note_off_c, 9, 42, 63
1, 41080, Note_off_c, 2, 60, 83
1, 41090, Note_on_c, 2, 63, 90
1, 41090, Note_on_c, 9, 37, 109
1, 41090, Note_on_c, 9, 42, 96
1, 41092, Note_on_c, 10, 60, 90
1, 41102, Note_off_c, 10, 56, 87
1, 41134, Note_off_c, 7, 32, 93
1, 41162, Note_off_c, 9, 42, 96
1, 41186, Note_off_c, 9, 37, 109
1, 41186, Note_off_c, 6, 67, 91
1, 41234, Note_off_c, 6, 70, 85
1, 41274, Note_off_c, 5, 70, 93
1, 41278, Note_off_c, 2, 63, 90
1, 41282, Note_on_c, 9, 36, 67
1, 41282, Note_on_c, 9, 42, 66
1, 41284, Note_on_c, 7, 32, 69
1, 41284, Note_on_c, 5, 68, 95
1, 41284, Note_on_c, 6, 65, 91
1, 41286, Note_off_c, 10, 60, 90
1, 41286, Note_on_c, 2, 68, 92
1, 41286, Note_on_c, 2, 72, 94
1, 41286, Note_on_c, 10, 63, 63
1, 41288, Note_on_c, 6, 68, 76
1, 41352, Note_off_c, 9, 42, 66
1, 41366, Note_off_c, 7, 32, 69
1, 41368, Note_off_c, 9, 36, 67
1, 41380, Note_off_c, 5, 68, 95
1, 41382, Note_off_c, 6, 65, 91
1, 41384, Note_off_c, 6, 68, 76
1, 41474, Note_off_c, 2, 72, 94
1, 41474, Note_on_c, 9, 36, 112
1, 41474, Note_on_c, 9, 42, 105
1, 41476, Note_on_c, 2, 60, 77
1, 41476, Note_on_c, 7, 32, 97
1, 41484, Note_on_c, 5, 68, 95
1, 41486, Note_on_c, 6, 68, 91
1, 41490, Note_on_c, 6, 65, 91
1, 41562, Note_off_c, 9, 42, 105
1, 41562, Note_off_c, 2, 68, 92
1, 41596, Note_off_c, 9, 36, 112
1, 41658, Note_off_c, 6, 65, 91
1, 41662, Note_off_c, 2, 60, 77
1, 41666, Note_on_c, 2, 63, 94
1, 41666, Note_on_c, 9, 42, 71
1, 41710, Note_off_c, 6, 68, 91
1, 41736, Note_off_c, 9, 42, 71
1, 41736, Note_off_c, 5, 68, 95
1, 41758, Note_on_c, 5, 67, 98
1, 41758, Note_on_c, 6, 67, 91
1, 41762, Note_on_c, 6, 63, 85
1, 41838, Note_off_c, 2, 63, 94
1, 41858, Note_on_c, 2, 72, 105
1, 41858, Note_on_c, 9, 37, 107
1, 41858, Note_on_c, 9, 42, 94
1, 41860, Note_on_c, 2, 68, 90
1, 41894, Note_off_c, 6, 67, 91
1, 41916, Note_off_c, 7, 32, 97
1, 41918, Note_off_c, 9, 42, 94
1, 41928, Note_off_c, 6, 63, 85
1, 41938, Note_off_c, 10, 63, 63
1, 41946, Note_off_c, 9, 37, 107
1, 42028, Note_off_c, 5, 67, 98
1, 42046, Note_on_c, 5, 65, 91
1, 42046, Note_on_c, 6, 60, 89
1, 42050, Note_on_c, 9, 46, 89
1, 42050, Note_on_c, 6, 65, 91
1, 42052, Note_on_c, 2, 63, 75
1, 42052, Note_on_c, 7, 32, 59
1, 42054, Note_off_c, 2, 72, 105
1, 42090, Note_off_c, 0, 51, 55
1, 42104, Note_off_c, 2, 68, 90
1, 42118, Note_off_c, 9, 46, 89
1, 42122, Note_off_c, 0, 60, 63
1, 42130, Note_off_c, 0, 56, 67
1, 42154, Note_off_c, 6, 60, 89
1, 42162, Note_off_c, 6, 65, 91
1, 42202, Note_off_c, 2, 63, 75
1, 42232, Note_off_c, 7, 32, 59
1, 42242, Note_off_c, 5, 65, 91
1, 42242, Note_on_c, 9, 36, 102
1, 42244, Note_on_c, 9, 42, 107
1, 42244, Note_on_c, 7, 37, 97
1, 42244, Note_on_c, 5, 73, 105
1, 42246, Note_on_c, 0, 53, 66
1, 42246, Note_on_c, 0, 56, 63
1, 42246, Note_on_c, 0, 61, 61
1, 42246, Note_on_c, 2, 68, 90
1, 42248, Note_on_c, 2, 73, 100
1, 42266, Note_on_c, 6, 65, 98
1, 42270, Note_on_c, 6, 73, 98
1, 42318, Note_off_c, 9, 42, 107
1, 42370, Note_off_c, 9, 36, 102
1, 42396, Note_off_c, 6, 73, 98
1, 42396, Note_off_c, 6, 65, 98
1, 42418, Note_off_c, 5, 73, 105
1, 42434, Note_on_c, 2, 61, 77
1, 42434, Note_on_c, 10, 56, 90
1, 42434, Note_on_c, 9, 42, 66
1, 42450, Note_off_c, 2, 73, 100
1, 42476, Note_off_c, 2, 68, 90
1, 42502, Note_off_c, 9, 42, 66
1, 42508, Note_on_c, 5, 73, 93
1, 42514, Note_on_c, 6, 65, 89
1, 42518, Note_on_c, 6, 73, 89
1, 42626, Note_on_c, 2, 65, 92
1, 42626, Note_on_c, 9, 37, 107
1, 42626, Note_on_c, 9, 42, 100
1, 42628, Note_on_c, 10, 61, 90
1, 42642, Note_off_c, 7, 37, 97
1, 42646, Note_off_c, 10, 56, 90
1, 42702, Note_off_c, 9, 42, 100
1, 42732, Note_off_c, 9, 37, 107
1, 42782, Note_off_c, 2, 65, 92
1, 42814, Note_off_c, 2, 61, 77
1, 42818, Note_on_c, 9, 36, 73
1, 42818, Note_on_c, 9, 42, 79
1, 42818, Note_on_c, 7, 37, 76
1, 42820, Note_on_c, 2, 68, 92
1, 42820, Note_on_c, 2, 73, 90
1, 42820, Note_on_c, 10, 65, 92
1, 42884, Note_off_c, 9, 42, 79
1, 42886, Note_off_c, 7, 37, 76
1, 42906, Note_off_c, 9, 36, 73
1, 42908, Control_c, 5, 1, 5
1, 42956, Control_c, 5, 1, 14
1, 42988, Control_c, 5, 1, 16
1, 43010, Note_on_c, 9, 36, 100
1, 43012, Note_on_c, 2, 61, 75
1, 43012, Note_on_c, 9, 42, 102
1, 43012, Note_on_c, 7, 37, 93
1, 43018, Control_c, 5, 1, 18
1, 43026, Note_off_c, 2, 68, 92
1, 43030, Note_off_c, 2, 73, 90
1, 43054, Control_c, 5, 1, 24
1, 43090, Note_off_c, 9, 42, 102
1, 43106, Control_c, 5, 1, 26
1, 43146, Note_off_c, 9, 36, 100
1, 43154, Control_c, 5, 1, 36
1, 43202, Note_off_c, 2, 61, 75
1, 43202, Note_on_c, 9, 42, 81
1, 43204, Note_on_c, 2, 65, 98
1, 43278, Note_off_c, 9, 42, 81
1, 43286, Control_c, 5, 1, 35
1, 43326, Control_c, 5, 1, 25
1, 43342, Note_off_c, 2, 65, 98
1, 43352, Note_off_c, 5, 73, 93
1, 43366, Control_c, 5, 1, 0
1, 43394, Note_on_c, 2, 73, 92
1, 43394, Note_on_c, 9, 37, 107
1, 43394, Note_on_c, 9, 42, 98
1, 43396, Note_on_c, 2, 68, 94
1, 43464, Note_off_c, 9, 42, 98
1, 43468, Note_off_c, 10, 65, 92
1, 43482, Note_off_c, 10, 61, 90
1, 43530, Note_off_c, 9, 37, 107
1, 43534, Note_off_c, 6, 65, 89
1, 43556, Note_off_c, 6, 73, 89
1, 43562, Note_off_c, 7, 37, 93
1, 43576, Note_off_c, 2, 68, 94
1, 43580, Note_off_c, 2, 73, 92
1, 43586, Note_on_c, 2, 65, 77
1, 43586, Note_on_c, 9, 42, 75
1, 43586, Note_on_c, 7, 32, 86
1, 43650, Note_off_c, 9, 42, 75
1, 43742, Note_off_c, 2, 65, 77
1, 43756, Note_off_c, 7, 32, 86
1, 43778, Note_on_c, 9, 42, 105
1, 43780, Note_on_c, 2, 68, 81
1, 43780, Note_on_c, 2, 73, 96
1, 43780, Note_on_c, 9, 36, 102
1, 43780, Note_on_c, 7, 37, 88
1, 43854, Note_off_c, 9, 42, 105
1, 43916, Note_off_c, 9, 36, 102
1, 43970, Note_on_c, 2, 65, 110
1, 43970, Note_on_c, 9, 42, 77
1, 43972, Note_on_c, 10, 56, 92
1, 43974, Note_off_c, 2, 68, 81
1, 43976, Note_off_c, 2, 73, 96
1, 44030, Note_off_c, 9, 42, 77
1, 44162, Note_on_c, 2, 68, 85
1, 44162, Note_on_c, 9, 37, 107
1, 44162, Note_on_c, 9, 42, 105
1, 44164, Note_on_c, 10, 61, 77
1, 44186, Note_off_c, 10, 56, 92
1, 44222, Note_off_c, 7, 37, 88
1, 44232, Note_off_c, 9, 42, 105
1, 44290, Note_off_c, 9, 37, 107
1, 44354, Note_on_c, 9, 42, 73
1, 44354, Note_on_c, 7, 37, 69
1, 44356, Note_on_c, 2, 73, 98
1, 44356, Note_on_c, 10, 65, 75
1, 44410, Note_off_c, 9, 42, 73
1, 44426, Note_off_c, 7, 37, 69
1, 44546, Note_on_c, 9, 42, 105
1, 44548, Note_on_c, 1, 65, 102
1, 44548, Note_on_c, 1, 73, 96
1, 44548, Note_on_c, 9, 36, 107
1, 44548, Note_on_c, 7, 37, 104
1, 44550, Note_on_c, 1, 68, 92
1, 44598, Note_off_c, 1, 68, 92
1, 44610, Note_off_c, 1, 65, 102
1, 44610, Note_off_c, 9, 42, 105
1, 44622, Note_off_c, 1, 73, 96
1, 44626, Note_off_c, 9, 36, 107
1, 44654, Note_off_c, 10, 65, 75
1, 44654, Note_off_c, 2, 73, 98
1, 44654, Note_off_c, 10, 61, 77
1, 44654, Note_off_c, 2, 65, 110
1, 44658, Note_off_c, 2, 68, 85
1, 44680, Note_off_c, 7, 37, 104
1, 44738, Note_on_c, 9, 36, 92
1, 44738, Note_on_c, 9, 42, 96
1, 44738, Note_on_c, 7, 36, 97
1, 44740, Note_on_c, 0, 60, 71
1, 44740, Note_on_c, 2, 65, 94
1, 44740, Note_on_c, 2, 68, 90
1, 44742, Note_on_c, 1, 65, 94
1, 44742, Note_on_c, 1, 68, 96
1, 44742, Note_on_c, 1, 72, 96
1, 44742, Note_on_c, 2, 72, 94
1, 44744, Note_off_c, 0, 61, 61
1, 44744, Note_on_c, 10, 60, 79
1, 44744, Note_on_c, 10, 63, 81
1, 44804, Note_off_c, 9, 42, 96
1, 44824, Note_off_c, 9, 36, 92
1, 44910, Note_off_c, 1, 72, 96
1, 44918, Note_off_c, 1, 68, 96
1, 44918, Note_off_c, 1, 65, 94
1, 44930, Note_on_c, 9, 37, 98
1, 44930, Note_on_c, 9, 42, 94
1, 44972, Note_off_c, 10, 63, 81
1, 44972, Note_off_c, 10, 60, 79
1, 44994, Note_off_c, 9, 42, 94
1, 44994, Note_off_c, 2, 72, 94
1, 45000, Note_off_c, 2, 65, 94
1, 45002, Note_off_c, 2, 68, 90
1, 45010, Note_off_c, 9, 37, 98
1, 45010, Note_off_c, 7, 36, 97
1, 45010, Note_off_c, 0, 53, 66
1, 45018, Note_off_c, 0, 60, 71
1, 45022, Note_off_c, 0, 56, 63
1, 45122, Note_on_c, 9, 36, 107
1, 45122, Note_on_c, 9, 42, 109
1, 45122, Note_on_c, 7, 34, 97
1, 45124, Note_on_c, 0, 53, 60
1, 45124, Note_on_c, 0, 58, 68
1, 45124, Note_on_c, 0, 61, 65
1, 45124, Note_on_c, 2, 70, 94
1, 45126, Note_on_c, 1, 61, 71
1, 45126, Note_on_c, 1, 65, 96
1, 45126, Note_on_c, 1, 70, 92
1, 45126, Note_on_c, 2, 73, 96
1, 45188, Note_off_c, 9, 42, 109
1, 45228, Note_off_c, 9, 36, 107
1, 45314, Note_on_c, 9, 42, 87
1, 45372, Note_off_c, 9, 42, 87
1, 45506, Note_on_c, 9, 36, 100
1, 45506, Note_on_c, 9, 42, 94
1, 45508, Note_on_c, 2, 61, 94
1, 45508, Note_on_c, 10, 58, 79
1, 45508, Note_on_c, 6, 70, 93
1, 45510, Note_on_c, 6, 73, 89
1, 45514, Note_on_c, 5, 73, 93
1, 45554, Note_off_c, 2, 73, 96
1, 45560, Note_off_c, 2, 70, 94
1, 45570, Note_off_c, 9, 42, 94
1, 45588, Note_off_c, 9, 36, 100
1, 45596, Note_off_c, 6, 70, 93
1, 45602, Note_off_c, 6, 73, 89
1, 45634, Note_off_c, 5, 73, 93
1, 45694, Note_on_c, 6, 70, 93
1, 45698, Note_on_c, 9, 37, 100
1, 45698, Note_on_c, 9, 42, 98
1, 45700, Note_on_c, 2, 65, 94
1, 45700, Note_on_c, 10, 61, 79
1, 45700, Note_on_c, 6, 73, 89
1, 45704, Note_on_c, 5, 73, 89
1, 45748, Note_off_c, 7, 34, 97
1, 45762, Note_off_c, 9, 42, 98
1, 45780, Note_off_c, 6, 70, 93
1, 45782, Note_off_c, 5, 73, 89
1, 45786, Note_off_c, 6, 73, 89
1, 45802, Note_off_c, 9, 37, 100
1, 45874, Note_off_c, 2, 65, 94
1, 45886, Note_on_c, 6, 70, 98
1, 45890, Note_off_c, 2, 61, 94
1, 45890, Note_on_c, 9, 36, 81
1, 45890, Note_on_c, 9, 42, 79
1, 45892, Note_on_c, 2, 70, 103
1, 45892, Note_on_c, 2, 73, 107
1, 45892, Note_on_c, 7, 34, 82
1, 45892, Note_on_c, 6, 73, 89
1, 45894, Note_on_c, 10, 65, 67
1, 45894, Note_on_c, 5, 73, 100
1, 45954, Note_off_c, 9, 42, 79
1, 45972, Note_off_c, 9, 36, 81
1, 46010, Note_off_c, 7, 34, 82
1, 46082, Note_off_c, 1, 65, 96
1, 46082, Note_on_c, 9, 36, 92
1, 46082, Note_on_c, 9, 42, 107
1, 46084, Note_on_c, 7, 34, 93
1, 46086, Note_off_c, 1, 61, 71
1, 46102, Note_off_c, 1, 70, 92
1, 46162, Note_off_c, 9, 42, 107
1, 46162, Note_off_c, 10, 58, 79
1, 46194, Note_off_c, 9, 36, 92
1, 46206, Note_off_c, 6, 70, 98
1, 46244, Note_off_c, 6, 73, 89
1, 46258, Note_off_c, 5, 73, 100
1, 46266, Note_on_c, 6, 72, 93
1, 46270, Note_on_c, 6, 75, 74
1, 46274, Note_off_c, 10, 61, 79
1, 46274, Note_on_c, 2, 65, 94
1, 46274, Note_on_c, 9, 42, 79
1, 46278, Note_on_c, 5, 75, 100
1, 46326, Note_off_c, 9, 42, 79
1, 46358, Note_off_c, 2, 70, 103
1, 46370, Note_off_c, 2, 73, 107
1, 46418, Note_off_c, 6, 72, 93
1, 46420, Note_off_c, 6, 75, 74
1, 46440, Note_off_c, 5, 75, 100
1, 46444, Note_off_c, 10, 65, 67
1, 46454, Note_on_c, 6, 73, 85
1, 46458, Note_on_c, 6, 77, 91
1, 46462, Note_on_c, 5, 77, 102
1, 46466, Note_on_c, 2, 61, 90
1, 46466, Note_on_c, 9, 37, 109
1, 46466, Note_on_c, 9, 42, 102
1, 46508, Note_off_c, 2, 65, 94
1, 46522, Note_off_c, 7, 34, 93
1, 46538, Note_off_c, 9, 42, 102
1, 46546, Note_off_c, 6, 77, 91
1, 46548, Note_off_c, 6, 73, 85
1, 46556, Note_off_c, 5, 77, 102
1, 46598, Note_off_c, 9, 37, 109
1, 46658, Note_on_c, 9, 42, 66
1, 46658, Note_on_c, 5, 77, 105
1, 46660, Note_on_c, 7, 29, 84
1, 46660, Note_on_c, 6, 73, 105
1, 46660, Note_on_c, 6, 77, 107
1, 46662, Note_on_c, 2, 65, 73
1, 46722, Note_off_c, 9, 42, 66
1, 46808, Note_off_c, 2, 65, 73
1, 46836, Note_off_c, 7, 29, 84
1, 46850, Note_on_c, 9, 36, 107
1, 46850, Note_on_c, 9, 42, 105
1, 46852, Note_on_c, 2, 73, 94
1, 46852, Note_on_c, 7, 34, 91
1, 46890, Control_c, 5, 1, 2
1, 46914, Note_off_c, 2, 61, 90
1, 46918, Note_off_c, 9, 42, 105
1, 46926, Control_c, 5, 1, 14
1, 46962, Note_off_c, 6, 77, 107
1, 46966, Control_c, 5, 1, 21
1, 46974, Note_off_c, 9, 36, 107
1, 47010, Note_off_c, 6, 73, 105
1, 47034, Note_on_c, 6, 72, 93
1, 47038, Note_on_c, 6, 75, 82
1, 47042, Note_on_c, 2, 65, 77
1, 47042, Note_on_c, 9, 42, 65
1, 47044, Note_on_c, 10, 58, 90
1, 47046, Note_on_c, 5, 75, 98
1, 47060, Note_off_c, 5, 77, 105
1, 47078, Control_c, 5, 1, 0
1, 47100, Note_off_c, 9, 42, 65
1, 47106, Note_off_c, 2, 73, 94
1, 47170, Note_off_c, 6, 72, 93
1, 47208, Note_off_c, 6, 75, 82
1, 47230, Note_off_c, 5, 75, 98
1, 47230, Note_on_c, 5, 73, 98
1, 47234, Note_on_c, 9, 37, 100
1, 47234, Note_on_c, 9, 42, 98
1, 47234, Note_on_c, 6, 70, 100
1, 47236, Note_on_c, 2, 70, 77
1, 47236, Note_on_c, 10, 61, 87
1, 47238, Note_on_c, 6, 73, 91
1, 47252, Note_off_c, 10, 58, 90
1, 47288, Note_off_c, 7, 34, 91
1, 47298, Note_off_c, 6, 70, 100
1, 47302, Note_off_c, 6, 73, 91
1, 47302, Note_off_c, 9, 42, 98
1, 47310, Note_off_c, 5, 73, 98
1, 47320, Note_off_c, 2, 70, 77
1, 47330, Note_off_c, 9, 37, 100
1, 47406, Note_off_c, 2, 65, 77
1, 47426, Note_on_c, 9, 36, 73
1, 47426, Note_on_c, 9, 42, 81
1, 47428, Note_on_c, 2, 70, 98
1, 47428, Note_on_c, 2, 73, 98
1, 47428, Note_on_c, 7, 34, 74
1, 47430, Note_on_c, 10, 65, 94
1, 47434, Note_on_c, 5, 73, 107
1, 47434, Note_on_c, 6, 73, 89
1, 47436, Note_off_c, 10, 61, 87
1, 47438, Note_on_c, 6, 70, 98
1, 47486, Note_off_c, 9, 42, 81
1, 47506, Note_off_c, 7, 34, 74
1, 47508, Note_off_c, 9, 36, 73
1, 47618, Note_on_c, 9, 36, 114
1, 47618, Note_on_c, 9, 42, 112
1, 47620, Note_on_c, 2, 61, 73
1, 47620, Note_on_c, 7, 34, 88
1, 47692, Note_off_c, 9, 42, 112
1, 47732, Note_off_c, 6, 70, 98
1, 47742, Note_off_c, 2, 70, 98
1, 47746, Note_off_c, 9, 36, 114
1, 47790, Note_off_c, 6, 73, 89
1, 47790, Note_off_c, 5, 73, 107
1, 47810, Note_off_c, 2, 73, 98
1, 47810, Note_on_c, 9, 42, 75
1, 47810, Note_on_c, 5, 75, 105
1, 47812, Note_on_c, 2, 65, 90
1, 47812, Note_on_c, 6, 72, 91
1, 47818, Note_on_c, 6, 75, 74
1, 47870, Note_off_c, 9, 42, 75
1, 47926, Note_off_c, 6, 72, 91
1, 47934, Note_off_c, 6, 75, 74
1, 47980, Note_off_c, 5, 75, 105
1, 47988, Note_off_c, 2, 65, 90
1, 47994, Note_on_c, 6, 73, 93
1, 47998, Note_on_c, 5, 77, 98
1, 47998, Note_on_c, 6, 77, 105
1, 48002, Note_on_c, 9, 37, 112
1, 48002, Note_on_c, 9, 42, 98
1, 48004, Note_on_c, 2, 70, 100
1, 48004, Note_on_c, 2, 73, 94
1, 48046, Note_off_c, 2, 61, 73
1, 48056, Note_off_c, 7, 34, 88
1, 48074, Note_off_c, 9, 42, 98
1, 48074, Note_off_c, 6, 73, 93
1, 48078, Note_off_c, 6, 77, 105
1, 48082, Note_off_c, 10, 65, 94
1, 48092, Note_off_c, 5, 77, 98
1, 48114, Note_off_c, 9, 37, 112
1, 48190, Note_on_c, 6, 73, 89
1, 48194, Note_on_c, 9, 42, 59
1, 48194, Note_on_c, 5, 77, 105
1, 48196, Note_on_c, 2, 65, 81
1, 48196, Note_on_c, 7, 29, 66
1, 48196, Note_on_c, 6, 77, 102
1, 48212, Note_off_c, 2, 73, 94
1, 48226, Note_off_c, 2, 70, 100
1, 48250, Note_off_c, 9, 42, 59
1, 48312, Control_c, 5, 1, 1
1, 48354, Control_c, 5, 1, 14
1, 48386, Note_off_c, 7, 29, 66
1, 48386, Note_on_c, 9, 36, 109
1, 48388, Note_on_c, 2, 61, 90
1, 48388, Note_on_c, 9, 42, 100
1, 48388, Note_on_c, 7, 34, 88
1, 48418, Note_off_c, 2, 65, 81
1, 48458, Note_off_c, 9, 42, 100
1, 48518, Note_off_c, 9, 36, 109
1, 48578, Note_on_c, 2, 65, 87
1, 48578, Note_on_c, 9, 42, 64
1, 48580, Note_on_c, 10, 58, 87
1, 48638, Note_off_c, 9, 42, 64
1, 48722, Note_off_c, 6, 77, 102
1, 48762, Note_off_c, 6, 73, 89
1, 48770, Note_on_c, 9, 37, 109
1, 48770, Note_on_c, 9, 42, 96
1, 48772, Note_on_c, 2, 70, 85
1, 48772, Note_on_c, 10, 61, 79
1, 48786, Note_off_c, 10, 58, 87
1, 48814, Note_off_c, 7, 34, 88
1, 48834, Note_off_c, 9, 42, 96
1, 48842, Note_off_c, 5, 77, 105
1, 48866, Note_off_c, 9, 37, 109
1, 48958, Note_on_c, 5, 73, 105
1, 48962, Note_on_c, 9, 36, 66
1, 48962, Note_on_c, 9, 42, 79
1, 48962, Note_on_c, 7, 34, 66
1, 48964, Note_on_c, 2, 73, 87
1, 48964, Note_on_c, 10, 65, 77
1, 48966, Note_on_c, 6, 70, 100
1, 48970, Note_on_c, 6, 73, 95
1, 48972, Note_off_c, 10, 61, 79
1, 49022, Note_off_c, 9, 42, 79
1, 49028, Note_off_c, 9, 36, 66
1, 49034, Note_off_c, 7, 34, 66
1, 49048, Note_off_c, 6, 70, 100
1, 49052, Note_off_c, 6, 73, 95
1, 49062, Note_off_c, 5, 73, 105
1, 49150, Note_on_c, 5, 73, 107
1, 49154, Note_on_c, 9, 36, 112
1, 49154, Note_on_c, 9, 42, 109
1, 49156, Note_on_c, 7, 34, 91
1, 49156, Note_on_c, 6, 70, 93
1, 49160, Note_on_c, 6, 73, 98
1, 49222, Note_off_c, 2, 61, 90
1, 49228, Note_off_c, 9, 42, 109
1, 49268, Note_off_c, 9, 36, 112
1, 49308, Note_off_c, 6, 73, 98
1, 49332, Note_off_c, 6, 70, 93
1, 49346, Note_off_c, 2, 65, 87
1, 49346, Note_on_c, 9, 42, 81
1, 49346, Note_on_c, 5, 72, 102
1, 49348, Note_on_c, 2, 61, 94
1, 49350, Note_on_c, 6, 68, 91
1, 49350, Note_on_c, 6, 72, 87
1, 49382, Note_off_c, 5, 73, 107
1, 49406, Note_off_c, 9, 42, 81
1, 49510, Note_off_c, 6, 68, 91
1, 49524, Note_off_c, 5, 72, 102
1, 49526, Note_off_c, 6, 72, 87
1, 49538, Note_on_c, 9, 37, 112
1, 49538, Note_on_c, 9, 42, 98
1, 49538, Note_on_c, 5, 70, 98
1, 49540, Note_on_c, 2, 65, 103
1, 49542, Note_on_c, 6, 67, 93
1, 49542, Note_on_c, 6, 70, 89
1, 49554, Note_off_c, 2, 73, 87
1, 49564, Note_off_c, 2, 70, 85
1, 49596, Note_off_c, 9, 42, 98
1, 49614, Note_off_c, 9, 37, 112
1, 49642, Note_off_c, 6, 67, 93
1, 49642, Note_off_c, 7, 34, 91
1, 49642, Note_off_c, 10, 65, 77
1, 49694, Note_off_c, 6, 70, 89
1, 49708, Note_off_c, 5, 70, 98
1, 49722, Note_off_c, 2, 61, 94
1, 49726, Note_on_c, 6, 65, 98
1, 49730, Note_on_c, 9, 46, 70
1, 49730, Note_on_c, 5, 68, 89
1, 49732, Note_on_c, 2, 70, 75
1, 49732, Note_on_c, 7, 29, 68
1, 49732, Note_on_c, 6, 68, 87
1, 49784, Note_off_c, 9, 46, 70
1, 49814, Note_off_c, 2, 65, 103
1, 49846, Note_off_c, 0, 53, 60
1, 49858, Note_off_c, 0, 61, 65
1, 49858, Note_off_c, 0, 58, 68
1, 49892, Note_off_c, 2, 70, 75
1, 49892, Note_off_c, 6, 65, 98
1, 49906, Note_off_c, 6, 68, 87
1, 49910, Note_off_c, 7, 29, 68
1, 49922, Note_on_c, 9, 36, 112
1, 49924, Note_on_c, 0, 58, 58
1, 49924, Note_on_c, 0, 63, 61
1, 49924, Note_on_c, 9, 42, 96
1, 49924, Note_on_c, 7, 27, 101
1, 49926, Note_on_c, 0, 55, 61
1, 49926, Note_on_c, 2, 70, 103
1, 49946, Note_off_c, 5, 68, 89
1, 50002, Note_off_c, 9, 42, 96
1, 50066, Note_off_c, 9, 36, 112
1, 50098, Note_on_c, 6, 67, 98
1, 50102, Note_on_c, 6, 63, 91
1, 50108, Note_on_c, 5, 67, 93
1, 50114, Note_on_c, 2, 58, 87
1, 50114, Note_on_c, 9, 42, 56
1, 50116, Note_on_c, 10, 55, 105
1, 50178, Note_off_c, 9, 42, 56
1, 50206, Note_off_c, 2, 70, 103
1, 50218, Note_off_c, 6, 63, 91
1, 50226, Note_off_c, 6, 67, 98
1, 50250, Note_off_c, 5, 67, 93
1, 50294, Note_off_c, 10, 55, 105
1, 50298, Note_on_c, 6, 63, 82
1, 50302, Note_on_c, 6, 67, 95
1, 50306, Note_on_c, 2, 63, 105
1, 50306, Note_on_c, 9, 37, 94
1, 50306, Note_on_c, 9, 42, 89
1, 50308, Note_on_c, 10, 58, 92
1, 50310, Note_on_c, 5, 67, 80
1, 50366, Note_off_c, 7, 27, 101
1, 50382, Note_off_c, 9, 42, 89
1, 50394, Note_off_c, 6, 67, 95
1, 50398, Note_off_c, 9, 37, 94
1, 50398, Note_off_c, 6, 63, 82
1, 50402, Note_off_c, 5, 67, 80
1, 50418, Note_off_c, 2, 58, 87
1, 50486, Note_on_c, 6, 63, 91
1, 50486, Note_on_c, 6, 67, 102
1, 50490, Note_off_c, 10, 58, 92
1, 50498, Note_on_c, 9, 36, 79
1, 50498, Note_on_c, 9, 42, 56
1, 50498, Note_on_c, 7, 27, 61
1, 50500, Note_on_c, 2, 67, 96
1, 50500, Note_on_c, 2, 70, 100
1, 50500, Note_on_c, 10, 63, 77
1, 50502, Note_on_c, 5, 67, 98
1, 50510, Note_off_c, 2, 63, 105
1, 50556, Note_off_c, 7, 27, 61
1, 50566, Note_off_c, 9, 42, 56
1, 50582, Note_off_c, 9, 36, 79
1, 50690, Note_on_c, 9, 36, 105
1, 50690, Note_on_c, 9, 42, 102
1, 50692, Note_on_c, 7, 27, 91
1, 50750, Note_off_c, 6, 63, 91
1, 50776, Note_off_c, 9, 42, 102
1, 50826, Note_off_c, 9, 36, 105
1, 50830, Note_off_c, 6, 67, 102
1, 50866, Note_off_c, 5, 67, 98
1, 50870, Note_on_c, 6, 68, 89
1, 50874, Note_on_c, 6, 65, 91
1, 50882, Note_on_c, 2, 58, 79
1, 50882, Note_on_c, 9, 42, 59
1, 50884, Note_on_c, 5, 68, 85
1, 50904, Note_off_c, 2, 67, 96
1, 50946, Note_off_c, 9, 42, 59
1, 50946, Note_off_c, 2, 70, 100
1, 50950, Note_off_c, 6, 65, 91
1, 51014, Note_off_c, 6, 68, 89
1, 51050, Note_off_c, 5, 68, 85
1, 51062, Note_on_c, 6, 67, 91
1, 51066, Note_on_c, 6, 70, 89
1, 51070, Note_on_c, 5, 70, 91
1, 51074, Note_on_c, 2, 63, 107
1, 51074, Note_on_c, 9, 37, 109
1, 51074, Note_on_c, 9, 42, 102
1, 51134, Note_off_c, 6, 67, 91
1, 51140, Note_off_c, 6, 70, 89
1, 51148, Note_off_c, 9, 42, 102
1, 51176, Note_off_c, 9, 37, 109
1, 51176, Note_off_c, 5, 70, 91
1, 51252, Note_off_c, 7, 27, 91
1, 51258, Note_on_c, 6, 67, 100
1, 51262, Note_on_c, 6, 70, 89
1, 51266, Note_on_c, 9, 36, 69
1, 51266, Note_on_c, 9, 42, 66
1, 51266, Note_on_c, 5, 70, 95
1, 51268, Note_on_c, 2, 67, 90
1, 51268, Note_on_c, 7, 34, 95
1, 51282, Note_off_c, 10, 63, 77
1, 51292, Note_off_c, 2, 63, 107
1, 51342, Note_off_c, 9, 42, 66
1, 51346, Note_off_c, 9, 36, 69
1, 51450, Note_off_c, 7, 34, 95
1, 51458, Note_on_c, 9, 36, 98
1, 51458, Note_on_c, 9, 42, 107
1, 51460, Note_on_c, 2, 70, 105
1, 51460, Note_on_c, 7, 39, 95
1, 51484, Note_off_c, 2, 58, 79
1, 51506, Note_off_c, 2, 67, 90
1, 51544, Note_off_c, 9, 42, 107
1, 51544, Note_off_c, 6, 67, 100
1, 51586, Note_off_c, 6, 70, 89
1, 51588, Note_off_c, 9, 36, 98
1, 51642, Note_off_c, 5, 70, 95
1, 51646, Note_on_c, 5, 72, 102
1, 51646, Note_on_c, 6, 68, 91
1, 51650, Note_on_c, 9, 42, 60
1, 51650, Note_on_c, 6, 72, 93
1, 51652, Note_on_c, 2, 58, 94
1, 51652, Note_on_c, 10, 55, 98
1, 51724, Note_off_c, 9, 42, 60
1, 51738, Note_off_c, 6, 68, 91
1, 51746, Note_off_c, 6, 72, 93
1, 51810, Note_off_c, 5, 72, 102
1, 51810, Note_off_c, 2, 70, 105
1, 51836, Note_on_c, 6, 70, 100
1, 51842, Note_on_c, 9, 37, 112
1, 51842, Note_on_c, 9, 42, 114
1, 51842, Note_on_c, 5, 73, 102
1, 51844, Note_off_c, 10, 55, 98
1, 51844, Note_on_c, 2, 63, 112
1, 51844, Note_on_c, 10, 58, 92
1, 51846, Note_on_c, 6, 73, 87
1, 51930, Note_off_c, 9, 42, 114
1, 51946, Note_off_c, 9, 37, 112
1, 52014, Note_off_c, 10, 58, 92
1, 52024, Note_off_c, 2, 58, 94
1, 52034, Note_on_c, 2, 67, 96
1, 52034, Note_on_c, 9, 36, 94
1, 52034, Note_on_c, 9, 42, 75
1, 52036, Note_on_c, 10, 63, 81
1, 52082, Note_off_c, 5, 73, 102
1, 52090, Note_off_c, 7, 39, 95
1, 52098, Note_off_c, 2, 63, 112
1, 52106, Note_off_c, 6, 70, 100
1, 52110, Note_off_c, 9, 42, 75
1, 52118, Note_off_c, 6, 73, 87
1, 52126, Note_off_c, 9, 36, 94
1, 52130, Note_off_c, 0, 55, 61
1, 52140, Note_off_c, 0, 58, 58
1, 52142, Note_off_c, 0, 63, 61
1, 52172, Note_off_c, 2, 67, 96
1, 52226, Note_off_c, 10, 63, 81
1, 52226, Note_on_c, 9, 42, 96
1, 52228, Note_on_c, 9, 36, 100
1, 52228, Note_on_c, 6, 73, 100
1, 52228, Note_on_c, 6, 77, 110
1, 52230, Note_on_c, 0, 56, 75
1, 52230, Note_on_c, 0, 61, 71
1, 52230, Note_on_c, 0, 65, 92
1, 52230, Note_on_c, 7, 32, 99
1, 52232, Note_on_c, 2, 73, 98
1, 52238, Note_on_c, 5, 77, 107
1, 52306, Note_off_c, 9, 42, 96
1, 52340, Note_off_c, 9, 36, 100
1, 52360, Note_off_c, 0, 65, 92
1, 52372, Note_off_c, 6, 77, 110
1, 52378, Note_off_c, 0, 61, 71
1, 52382, Note_off_c, 6, 73, 100
1, 52406, Note_on_c, 6, 72, 100
1, 52410, Note_on_c, 6, 75, 87
1, 52414, Note_off_c, 5, 77, 107
1, 52418, Note_on_c, 0, 63, 73
1, 52418, Note_on_c, 9, 42, 50
1, 52420, Note_on_c, 0, 60, 87
1, 52420, Note_on_c, 2, 63, 94
1, 52420, Note_on_c, 10, 56, 87
1, 52424, Note_on_c, 5, 75, 89
1, 52478, Note_off_c, 9, 42, 50
1, 52478, Note_off_c, 2, 73, 98
1, 52530, Note_off_c, 6, 72, 100
1, 52532, Note_off_c, 6, 75, 87
1, 52572, Note_off_c, 5, 75, 89
1, 52590, Note_off_c, 0, 60, 87
1, 52602, Note_on_c, 6, 70, 110
1, 52606, Note_off_c, 0, 63, 73
1, 52606, Note_on_c, 6, 73, 100
1, 52610, Note_on_c, 9, 37, 92
1, 52610, Note_on_c, 9, 42, 98
1, 52610, Note_on_c, 5, 73, 85
1, 52612, Note_on_c, 0, 58, 81
1, 52612, Note_on_c, 0, 61, 81
1, 52612, Note_on_c, 2, 68, 90
1, 52612, Note_on_c, 10, 60, 83
1, 52616, Note_off_c, 10, 56, 87
1, 52626, Note_off_c, 7, 32, 99
1, 52670, Note_off_c, 2, 63, 94
1, 52678, Note_off_c, 9, 42, 98
1, 52696, Note_off_c, 9, 37, 92
1, 52714, Note_off_c, 6, 70, 110
1, 52716, Note_off_c, 6, 73, 100
1, 52734, Note_off_c, 5, 73, 85
1, 52756, Note_off_c, 0, 58, 81
1, 52776, Note_off_c, 0, 61, 81
1, 52796, Note_off_c, 10, 60, 83
1, 52798, Note_on_c, 6, 72, 102
1, 52798, Note_on_c, 6, 75, 87
1, 52802, Note_on_c, 9, 36, 67
1, 52802, Note_on_c, 9, 42, 81
1, 52802, Note_on_c, 7, 32, 76
1, 52804, Note_on_c, 0, 60, 87
1, 52804, Note_on_c, 0, 63, 62
1, 52804, Note_on_c, 2, 72, 100
1, 52806, Note_on_c, 10, 63, 75
1, 52810, Note_on_c, 5, 75, 82
1, 52866, Note_off_c, 7, 32, 76
1, 52866, Note_off_c, 9, 42, 81
1, 52882, Note_off_c, 9, 36, 67
1, 52994, Note_on_c, 9, 42, 105
1, 52996, Note_on_c, 2, 63, 64
1, 52996, Note_on_c, 9, 36, 107
1, 52996, Note_on_c, 7, 32, 84
1, 53016, Note_off_c, 2, 68, 90
1, 53048, Note_off_c, 2, 72, 100
1, 53066, Note_off_c, 9, 42, 105
1, 53102, Note_off_c, 9, 36, 107
1, 53186, Note_on_c, 2, 68, 92
1, 53186, Note_on_c, 9, 42, 70
1, 53250, Note_off_c, 9, 42, 70
1, 53250, Note_off_c, 2, 63, 64
1, 53294, Control_c, 5, 1, 5
1, 53342, Control_c, 5, 1, 12
1, 53366, Note_off_c, 2, 68, 92
1, 53378, Note_on_c, 9, 37, 112
1, 53378, Note_on_c, 9, 42, 114
1, 53380, Note_on_c, 2, 72, 103
1, 53380, Control_c, 5, 1, 21
1, 53384, Note_off_c, 10, 63, 75
1, 53420, Control_c, 5, 1, 31
1, 53444, Note_off_c, 9, 42, 114
1, 53482, Control_c, 5, 1, 35
1, 53492, Note_off_c, 9, 37, 112
1, 53528, Note_off_c, 7, 32, 84
1, 53528, Control_c, 5, 1, 39
1, 53570, Note_on_c, 2, 68, 83
1, 53570, Note_on_c, 9, 42, 62
1, 53570, Note_on_c, 7, 27, 93
1, 53598, Note_off_c, 2, 72, 103
1, 53634, Note_off_c, 9, 42, 62
1, 53662, Control_c, 5, 1, 37
1, 53668, Note_off_c, 5, 75, 82
1, 53702, Control_c, 5, 1, 0
1, 53742, Note_off_c, 7, 27, 93
1, 53762, Note_on_c, 9, 36, 105
1, 53764, Note_on_c, 2, 72, 103
1, 53764, Note_on_c, 9, 42, 100
1, 53764, Note_on_c, 7, 32, 93
1, 53774, Note_off_c, 2, 68, 83
1, 53814, Note_off_c, 6, 72, 102
1, 53818, Note_off_c, 6, 75, 87
1, 53838, Note_off_c, 9, 42, 100
1, 53876, Note_off_c, 9, 36, 105
1, 53954, Note_on_c, 2, 60, 96
1, 53954, Note_on_c, 10, 56, 96
1, 53954, Note_on_c, 9, 42, 50
1, 53970, Note_off_c, 2, 72, 103
1, 54002, Note_off_c, 9, 42, 50
1, 54146, Note_off_c, 10, 56, 96
1, 54146, Note_on_c, 2, 63, 85
1, 54146, Note_on_c, 9, 37, 105
1, 54146, Note_on_c, 9, 42, 100
1, 54148, Note_on_c, 10, 60, 87
1, 54188, Note_off_c, 7, 32, 93
1, 54218, Note_off_c, 9, 42, 100
1, 54238, Note_off_c, 9, 37, 105
1, 54314, Note_off_c, 2, 63, 85
1, 54322, Note_off_c, 10, 60, 87
1, 54338, Note_on_c, 9, 36, 69
1, 54338, Note_on_c, 9, 42, 85
1, 54338, Note_on_c, 7, 32, 78
1, 54340, Note_on_c, 2, 68, 92
1, 54340, Note_on_c, 2, 72, 98
1, 54340, Note_on_c, 10, 63, 60
1, 54362, Note_off_c, 2, 60, 96
1, 54398, Note_off_c, 9, 42, 85
1, 54398, Note_off_c, 9, 36, 69
1, 54402, Note_off_c, 7, 32, 78
1, 54530, Note_on_c, 9, 36, 107
1, 54530, Note_on_c, 9, 42, 114
1, 54532, Note_on_c, 2, 60, 75
1, 54532, Note_on_c, 7, 32, 97
1, 54574, Note_off_c, 2, 72, 98
1, 54574, Note_off_c, 2, 68, 92
1, 54606, Note_off_c, 9, 42, 114
1, 54632, Note_off_c, 9, 36, 107
1, 54714, Note_on_c, 5, 72, 102
1, 54718, Note_on_c, 6, 68, 98
1, 54718, Note_on_c, 6, 72, 98
1, 54722, Note_on_c, 2, 63, 79
1, 54722, Note_on_c, 9, 42, 73
1, 54780, Note_off_c, 9, 42, 73
1, 54852, Note_off_c, 2, 60, 75
1, 54874, Note_off_c, 6, 68, 98
1, 54882, Note_off_c, 6, 72, 98
1, 54904, Note_off_c, 5, 72, 102
1, 54906, Note_on_c, 5, 73, 91
1, 54910, Note_on_c, 6, 70, 102
1, 54914, Note_on_c, 9, 37, 109
1, 54914, Note_on_c, 9, 42, 107
1, 54914, Note_on_c, 6, 73, 89
1, 54916, Note_on_c, 2, 68, 90
1, 54916, Note_on_c, 2, 72, 92
1, 54924, Note_off_c, 2, 63, 79
1, 54974, Note_off_c, 9, 42, 107
1, 54980, Note_off_c, 7, 32, 97
1, 54990, Note_off_c, 9, 37, 109
1, 55046, Note_off_c, 6, 70, 102
1, 55046, Note_off_c, 5, 73, 91
1, 55058, Note_off_c, 6, 73, 89
1, 55098, Note_on_c, 5, 72, 98
1, 55102, Note_on_c, 6, 68, 100
1, 55102, Note_on_c, 6, 72, 105
1, 55106, Note_on_c, 2, 63, 75
1, 55106, Note_on_c, 9, 46, 92
1, 55106, Note_on_c, 7, 32, 66
1, 55118, Note_off_c, 2, 72, 92
1, 55122, Note_off_c, 2, 68, 90
1, 55138, Note_off_c, 10, 63, 60
1, 55162, Note_off_c, 0, 56, 75
1, 55166, Note_off_c, 9, 46, 92
1, 55194, Note_off_c, 0, 60, 87
1, 55286, Note_off_c, 7, 32, 66
1, 55298, Note_on_c, 9, 36, 109
1, 55298, Note_on_c, 9, 42, 102
1, 55300, Note_on_c, 0, 55, 59
1, 55300, Note_on_c, 0, 58, 73
1, 55300, Note_on_c, 7, 39, 93
1, 55302, Note_on_c, 2, 70, 98
1, 55336, Note_off_c, 2, 63, 75
1, 55372, Note_off_c, 9, 42, 102
1, 55380, Note_off_c, 5, 72, 98
1, 55390, Note_off_c, 9, 36, 109
1, 55398, Note_off_c, 6, 68, 100
1, 55436, Note_off_c, 6, 72, 105
1, 55476, Note_on_c, 6, 70, 87
1, 55478, Note_on_c, 6, 67, 91
1, 55486, Note_on_c, 5, 70, 100
1, 55490, Note_on_c, 2, 58, 92
1, 55490, Note_on_c, 9, 42, 62
1, 55492, Note_on_c, 10, 55, 94
1, 55516, Note_off_c, 2, 70, 98
1, 55542, Note_off_c, 9, 42, 62
1, 55574, Note_off_c, 6, 67, 91
1, 55578, Note_off_c, 6, 70, 87
1, 55656, Note_off_c, 10, 55, 94
1, 55674, Note_on_c, 6, 65, 91
1, 55678, Note_off_c, 5, 70, 100
1, 55678, Note_on_c, 5, 68, 82
1, 55678, Note_on_c, 6, 68, 91
1, 55682, Note_on_c, 2, 63, 66
1, 55682, Note_on_c, 9, 37, 114
1, 55682, Note_on_c, 9, 42, 109
1, 55684, Note_on_c, 10, 58, 79
1, 55738, Note_off_c, 7, 39, 93
1, 55754, Note_off_c, 9, 42, 109
1, 55758, Note_off_c, 9, 37, 114
1, 55762, Note_off_c, 6, 65, 91
1, 55766, Note_off_c, 6, 68, 91
1, 55832, Note_off_c, 5, 68, 82
1, 55854, Note_off_c, 10, 58, 79
1, 55870, Note_on_c, 5, 70, 87
1, 55874, Note_off_c, 2, 63, 66
1, 55874, Note_on_c, 9, 36, 71
1, 55874, Note_on_c, 9, 42, 73
1, 55876, Note_on_c, 2, 67, 98
1, 55876, Note_on_c, 7, 39, 80
1, 55876, Note_on_c, 6, 67, 85
1, 55878, Note_on_c, 2, 70, 100
1, 55878, Note_on_c, 10, 63, 75
1, 55878, Note_on_c, 6, 70, 87
1, 55880, Note_off_c, 2, 58, 92
1, 55938, Note_off_c, 9, 42, 73
1, 55946, Note_off_c, 7, 39, 80
1, 55946, Note_off_c, 9, 36, 71
1, 56066, Note_on_c, 9, 36, 112
1, 56066, Note_on_c, 9, 42, 102
1, 56068, Note_on_c, 2, 58, 69
1, 56068, Note_on_c, 7, 39, 80
1, 56088, Note_off_c, 2, 67, 98
1, 56104, Note_off_c, 2, 70, 100
1, 56136, Note_off_c, 9, 42, 102
1, 56158, Note_off_c, 9, 36, 112
1, 56258, Note_on_c, 2, 63, 103
1, 56258, Note_on_c, 9, 42, 67
1, 56322, Note_off_c, 9, 42, 67
1, 56450, Note_on_c, 2, 70, 98
1, 56450, Note_on_c, 9, 37, 117
1, 56450, Note_on_c, 9, 42, 102
1, 56452, Note_on_c, 2, 67, 96
1, 56476, Note_off_c, 2, 63, 103
1, 56504, Note_off_c, 10, 63, 75
1, 56516, Note_off_c, 9, 42, 102
1, 56548, Note_off_c, 9, 37, 117
1, 56638, Note_off_c, 7, 39, 80
1, 56642, Note_on_c, 9, 42, 66
1, 56642, Note_on_c, 7, 34, 76
1, 56644, Note_on_c, 2, 63, 61
1, 56646, Note_off_c, 2, 67, 96
1, 56648, Note_off_c, 2, 70, 98
1, 56658, Note_off_c, 2, 58, 69
1, 56710, Note_off_c, 9, 42, 66
1, 56810, Note_off_c, 5, 70, 87
1, 56822, Note_off_c, 0, 58, 73
1, 56826, Note_off_c, 2, 63, 61
1, 56826, Note_off_c, 6, 67, 85
1, 56834, Note_off_c, 6, 70, 87
1, 56834, Note_on_c, 9, 36, 107
1, 56836, Note_on_c, 2, 70, 103
1, 56836, Note_on_c, 9, 42, 94
1, 56836, Note_on_c, 7, 39, 93
1, 56858, Note_off_c, 7, 34, 76
1, 56904, Note_off_c, 9, 42, 94
1, 56932, Note_off_c, 9, 36, 107
1, 57026, Note_on_c, 2, 58, 77
1, 57026, Note_on_c, 9, 42, 53
1, 57028, Note_on_c, 10, 55, 94
1, 57078, Note_off_c, 9, 42, 53
1, 57086, Note_off_c, 2, 70, 103
1, 57178, Note_off_c, 10, 55, 94
1, 57218, Note_on_c, 9, 37, 114
1, 57218, Note_on_c, 9, 42, 98
1, 57220, Note_on_c, 2, 63, 87
1, 57220, Note_on_c, 10, 58, 87
1, 57282, Note_off_c, 7, 39, 93
1, 57286, Note_off_c, 9, 42, 98
1, 57308, Note_off_c, 9, 37, 114
1, 57330, Note_off_c, 2, 58, 77
1, 57394, Note_off_c, 10, 58, 87
1, 57410, Note_on_c, 9, 36, 77
1, 57410, Note_on_c, 9, 42, 67
1, 57410, Note_on_c, 7, 39, 80
1, 57412, Note_on_c, 2, 67, 98
1, 57412, Note_on_c, 2, 70, 94
1, 57412, Note_on_c, 10, 63, 73
1, 57418, Note_off_c, 2, 63, 87
1, 57474, Note_off_c, 9, 42, 67
1, 57480, Note_off_c, 9, 36, 77
1, 57510, Note_off_c, 7, 39, 80
1, 57594, Note_off_c, 2, 70, 94
1, 57598, Note_on_c, 6, 61, 102
1, 57598, Note_on_c, 6, 70, 100
1, 57602, Note_on_c, 9, 36, 112
1, 57604, Note_on_c, 9, 42, 117
1, 57604, Note_on_c, 7, 39, 80
1, 57604, Note_on_c, 5, 70, 100
1, 57606, Note_on_c, 2, 58, 73
1, 57618, Note_off_c, 2, 67, 98
1, 57682, Note_off_c, 9, 42, 117
1, 57702, Note_off_c, 9, 36, 112
1, 57794, Note_on_c, 2, 63, 94
1, 57794, Note_on_c, 9, 42, 68
1, 57812, Note_off_c, 2, 58, 73
1, 57854, Note_off_c, 9, 42, 68
1, 57986, Note_on_c, 2, 67, 94
1, 57986, Note_on_c, 9, 37, 112
1, 57986, Note_on_c, 9, 42, 105
1, 57988, Note_on_c, 2, 70, 94
1, 58002, Note_off_c, 2, 63, 94
1, 58012, Note_off_c, 6, 70, 100
1, 58036, Note_off_c, 6, 61, 102
1, 58052, Note_off_c, 9, 42, 105
1, 58070, Note_off_c, 5, 70, 100
1, 58074, Note_off_c, 9, 37, 112
1, 58084, Note_off_c, 10, 63, 73
1, 58162, Note_on_c, 5, 72, 107
1, 58162, Note_on_c, 6, 63, 89
1, 58164, Note_off_c, 7, 39, 80
1, 58166, Note_on_c, 6, 72, 89
1, 58174, Note_off_c, 2, 67, 94
1, 58178, Note_on_c, 2, 63, 73
1, 58178, Note_on_c, 9, 46, 81
1, 58178, Note_on_c, 7, 34, 84
1, 58186, Note_off_c, 2, 70, 94
1, 58232, Note_off_c, 0, 55, 59
1, 58242, Note_off_c, 9, 46, 81
1, 58282, Note_off_c, 6, 63, 89
1, 58286, Note_off_c, 6, 72, 89
1, 58340, Note_off_c, 2, 63, 73
1, 58356, Note_off_c, 5, 72, 107
1, 58362, Note_off_c, 7, 34, 84
1, 58362, Note_on_c, 6, 61, 91
1, 58362, Note_on_c, 6, 70, 87
1, 58366, Note_on_c, 5, 70, 80
1, 58370, Note_off_c, 0, 63, 62
1, 58370, Note_on_c, 9, 36, 102
1, 58370, Note_on_c, 9, 42, 105
1, 58372, Note_on_c, 0, 56, 59
1, 58372, Note_on_c, 0, 60, 67
1, 58372, Note_on_c, 7, 32, 93
1, 58374, Note_on_c, 2, 72, 94
1, 58446, Note_off_c, 9, 42, 105
1, 58470, Note_off_c, 9, 36, 102
1, 58562, Note_on_c, 2, 60, 81
1, 58562, Note_on_c, 9, 42, 62
1, 58564, Note_on_c, 10, 56, 87
1, 58566, Note_off_c, 2, 72, 94
1, 58596, Note_off_c, 6, 61, 91
1, 58626, Note_off_c, 9, 42, 62
1, 58670, Note_off_c, 6, 70, 87
1, 58730, Note_on_c, 6, 60, 80
1, 58734, Note_off_c, 5, 70, 80
1, 58734, Note_on_c, 6, 68, 70
1, 58742, Note_on_c, 5, 68, 74
1, 58754, Note_on_c, 2, 63, 94
1, 58754, Note_on_c, 9, 37, 112
1, 58754, Note_on_c, 9, 42, 107
1, 58756, Note_off_c, 10, 56, 87
1, 58756, Note_on_c, 10, 60, 87
1, 58780, Note_off_c, 2, 60, 81
1, 58818, Note_off_c, 7, 32, 93
1, 58824, Note_off_c, 9, 42, 107
1, 58842, Note_off_c, 9, 37, 112
1, 58946, Note_on_c, 9, 36, 73
1, 58946, Note_on_c, 9, 42, 77
1, 58946, Note_on_c, 7, 32, 78
1, 58948, Note_off_c, 10, 60, 87
1, 58948, Note_on_c, 2, 68, 94
1, 58948, Note_on_c, 2, 72, 105
1, 58948, Note_on_c, 10, 63, 87
1, 58972, Note_off_c, 2, 63, 94
1, 59004, Note_off_c, 9, 42, 77
1, 59018, Note_off_c, 9, 36, 73
1, 59138, Note_on_c, 9, 36, 109
1, 59138, Note_on_c, 9, 42, 107
1, 59140, Note_on_c, 2, 60, 77
1, 59156, Note_off_c, 2, 72, 105
1, 59194, Note_off_c, 2, 68, 94
1, 59214, Note_off_c, 9, 42, 107
1, 59220, Note_off_c, 9, 36, 109
1, 59270, Note_off_c, 7, 32, 78
1, 59274, Control_c, 5, 1, 4
1, 59330, Note_on_c, 9, 37, 92
1, 59330, Note_on_c, 9, 42, 85
1, 59330, Control_c, 5, 1, 9
1, 59332, Note_on_c, 2, 63, 98
1, 59332, Note_on_c, 10, 60, 90
1, 59332, Note_on_c, 7, 32, 91
1, 59342, Note_off_c, 10, 63, 87
1, 59368, Control_c, 5, 1, 16
1, 59380, Note_off_c, 9, 42, 85
1, 59382, Note_off_c, 9, 37, 92
1, 59398, Control_c, 5, 1, 21
1, 59430, Note_off_c, 7, 32, 91
1, 59458, Control_c, 5, 1, 26
1, 59502, Note_off_c, 2, 60, 77
1, 59506, Control_c, 5, 1, 36
1, 59510, Note_off_c, 10, 60, 90
1, 59522, Note_on_c, 9, 37, 117
1, 59522, Note_on_c, 9, 42, 109
1, 59522, Note_on_c, 7, 32, 101
1, 59524, Note_on_c, 2, 68, 96
1, 59524, Note_on_c, 2, 72, 105
1, 59524, Note_on_c, 10, 63, 92
1, 59534, Note_off_c, 2, 63, 98
1, 59578, Note_off_c, 9, 42, 109
1, 59586, Note_off_c, 9, 37, 117
1, 59618, Note_off_c, 6, 68, 70
1, 59620, Note_off_c, 6, 60, 80
1, 59622, Control_c, 5, 1, 37
1, 59690, Note_off_c, 2, 72, 105
1, 59690, Note_off_c, 7, 32, 101
1, 59698, Control_c, 5, 1, 22
1, 59708, Note_off_c, 10, 63, 92
1, 59714, Note_on_c, 2, 60, 100
1, 59714, Note_on_c, 9, 46, 96
1, 59714, Note_on_c, 7, 27, 74
1, 59716, Note_on_c, 10, 60, 90
1, 59726, Note_off_c, 2, 68, 96
1, 59730, Note_off_c, 5, 68, 74
1, 59730, Control_c, 5, 1, 0
1, 59770, Note_off_c, 9, 46, 96
1, 59878, Note_off_c, 10, 60, 90
1, 59894, Note_off_c, 7, 27, 74
1, 59906, Note_on_c, 9, 36, 107
1, 59906, Note_on_c, 9, 42, 112
1, 59908, Note_on_c, 3, 68, 105
1, 59908, Note_on_c, 3, 72, 103
1, 59908, Note_on_c, 7, 32, 84
1, 59910, Note_on_c, 2, 68, 107
1, 59910, Note_on_c, 10, 68, 94
1, 59910, Note_on_c, 9, 49, 58
1, 59990, Note_off_c, 9, 42, 112
1, 59996, Note_off_c, 9, 49, 58
1, 60002, Note_on_c, 3, 70, 107
1, 60002, Note_on_c, 3, 73, 92
1, 60008, Note_off_c, 9, 36, 107
1, 60014, Note_off_c, 3, 72, 103
1, 60014, Note_off_c, 3, 68, 105
1, 60098, Note_on_c, 3, 68, 92
1, 60098, Note_on_c, 3, 72, 83
1, 60104, Note_off_c, 3, 70, 107
1, 60108, Note_off_c, 3, 73, 92
1, 60184, Note_off_c, 3, 68, 92
1, 60194, Note_off_c, 0, 60, 67
1, 60194, Note_on_c, 3, 70, 92
1, 60194, Note_on_c, 3, 73, 77
1, 60206, Note_off_c, 0, 56, 59
1, 60212, Note_off_c, 3, 72, 83
1, 60274, Note_off_c, 3, 73, 77
1, 60290, Note_off_c, 3, 70, 92
1, 60290, Note_on_c, 5, 68, 100
1, 60290, Note_on_c, 6, 68, 110
1, 60292, Note_on_c, 3, 68, 94
1, 60292, Note_on_c, 3, 72, 96
1, 60364, Note_off_c, 10, 68, 94
1, 60418, Note_off_c, 5, 68, 100
1, 60426, Note_off_c, 6, 68, 110
1, 60482, Note_on_c, 9, 38, 54
1, 60482, Note_on_c, 6, 68, 107
1, 60486, Note_on_c, 5, 68, 91
1, 60574, Note_off_c, 9, 38, 54
1, 60602, Note_off_c, 6, 68, 107
1, 60642, Note_off_c, 5, 68, 91
1, 60674, Note_on_c, 9, 38, 68
1, 60674, Note_on_c, 5, 72, 102
1, 60676, Note_on_c, 9, 45, 77
1, 60678, Note_off_c, 2, 60, 100
1, 60678, Note_on_c, 6, 68, 107
1, 60682, Note_on_c, 6, 72, 107
1, 60690, Note_off_c, 3, 72, 96
1, 60690, Note_off_c, 3, 68, 94
1, 60696, Note_off_c, 7, 32, 84
1, 60700, Note_off_c, 2, 68, 107
1, 60758, Note_off_c, 9, 45, 77
1, 60770, Note_off_c, 9, 38, 68
1, 60798, Note_off_c, 6, 68, 107
1, 60802, Note_off_c, 5, 72, 102
1, 60822, Note_off_c, 6, 72, 107
1, 60862, Note_on_c, 5, 72, 98
1, 60866, Note_on_c, 9, 38, 96
1, 60866, Note_on_c, 9, 45, 75
1, 60878, Note_on_c, 6, 72, 107
1, 60882, Note_on_c, 6, 68, 105
1, 60938, Note_off_c, 9, 45, 75
1, 60948, Note_off_c, 9, 38, 96
1, 60978, Note_off_c, 6, 68, 105
1, 60996, Note_off_c, 6, 72, 107
1, 61010, Note_off_c, 5, 72, 98
1, 61042, Note_on_c, 5, 75, 105
1, 61058, Note_on_c, 9, 38, 112
1, 61058, Note_on_c, 9, 41, 100
1, 61058, Note_on_c, 9, 45, 94
1, 61062, Note_on_c, 6, 72, 102
1, 61066, Note_on_c, 6, 75, 85
1, 61128, Note_off_c, 9, 45, 94
1, 61132, Note_off_c, 9, 41, 100
1, 61144, Note_off_c, 9, 38, 112
1, 61182, Note_off_c, 6, 72, 102
1, 61192, Note_off_c, 5, 75, 105
1, 61194, Note_off_c, 6, 75, 85
1, 61238, Note_on_c, 5, 75, 91
1, 61250, Note_on_c, 9, 38, 120
1, 61250, Note_on_c, 6, 72, 107
1, 61252, Note_on_c, 9, 41, 103
1, 61254, Note_on_c, 6, 75, 85
1, 61334, Note_off_c, 9, 38, 120
1, 61342, Note_off_c, 9, 41, 103
1, 61374, Note_off_c, 6, 72, 107
1, 61386, Note_off_c, 6, 75, 85
1, 61406, Note_off_c, 5, 75, 91
1, 61438, Note_on_c, 5, 77, 105
1, 61438, Note_on_c, 6, 77, 98
1, 61442, Note_on_c, 9, 42, 102
1, 61444, Note_on_c, 9, 36, 114
1, 61444, Note_on_c, 7, 37, 99
1, 61444, Note_on_c, 6, 73, 100
1, 61446, Note_on_c, 0, 68, 83
1, 61446, Note_on_c, 0, 77, 73
1, 61446, Note_on_c, 0, 85, 71
1, 61446, Note_on_c, 9, 49, 107
1, 61448, Note_on_c, 1, 61, 112
1, 61518, Note_off_c, 9, 49, 107
1, 61522, Note_off_c, 9, 42, 102
1, 61572, Note_off_c, 9, 36, 114
1, 61634, Note_on_c, 9, 42, 54
1, 61698, Note_off_c, 9, 42, 54
1, 61710, Note_off_c, 5, 77, 105
1, 61738, Note_off_c, 6, 77, 98
1, 61742, Note_off_c, 6, 73, 100
1, 61818, Note_on_c, 6, 73, 107
1, 61822, Note_on_c, 6, 77, 113
1, 61826, Note_on_c, 9, 38, 98
1, 61826, Note_on_c, 9, 42, 89
1, 61828, Note_on_c, 2, 56, 94
1, 61828, Note_on_c, 2, 61, 94
1, 61828, Note_on_c, 2, 65, 96
1, 61828, Note_on_c, 5, 77, 107
1, 61858, Note_off_c, 7, 37, 99
1, 61902, Note_off_c, 9, 42, 89
1, 61926, Note_off_c, 2, 56, 94
1, 61930, Note_off_c, 2, 61, 94
1, 61940, Note_off_c, 9, 38, 98
1, 61946, Note_off_c, 2, 65, 96
1, 61950, Note_off_c, 6, 77, 113
1, 61956, Note_off_c, 6, 73, 107
1, 62002, Note_on_c, 6, 72, 102
1, 62006, Note_off_c, 5, 77, 107
1, 62006, Note_on_c, 6, 75, 89
1, 62012, Note_on_c, 5, 75, 91
1, 62018, Note_on_c, 9, 36, 98
1, 62018, Note_on_c, 9, 42, 83
1, 62018, Note_on_c, 7, 37, 97
1, 62020, Note_on_c, 2, 56, 83
1, 62020, Note_on_c, 2, 61, 79
1, 62020, Note_on_c, 2, 65, 107
1, 62088, Note_off_c, 9, 42, 83
1, 62100, Note_off_c, 7, 37, 97
1, 62118, Note_off_c, 9, 36, 98
1, 62142, Note_off_c, 6, 72, 102
1, 62158, Note_off_c, 6, 75, 89
1, 62196, Note_on_c, 6, 73, 91
1, 62196, Note_on_c, 6, 77, 95
1, 62200, Note_off_c, 5, 75, 91
1, 62210, Note_on_c, 9, 36, 114
1, 62210, Note_on_c, 9, 42, 105
1, 62212, Note_on_c, 7, 37, 106
1, 62212, Note_on_c, 5, 77, 98
1, 62286, Note_off_c, 9, 42, 105
1, 62286, Note_off_c, 2, 56, 83
1, 62308, Note_off_c, 2, 61, 79
1, 62324, Note_off_c, 2, 65, 107
1, 62344, Note_off_c, 9, 36, 114
1, 62402, Note_on_c, 2, 56, 65
1, 62402, Note_on_c, 2, 65, 75
1, 62402, Note_on_c, 9, 42, 60
1, 62404, Note_on_c, 2, 61, 54
1, 62456, Note_off_c, 9, 42, 60
1, 62460, Note_off_c, 2, 56, 65
1, 62466, Note_off_c, 2, 61, 54
1, 62472, Note_off_c, 2, 65, 75
1, 62482, Note_off_c, 1, 61, 112
1, 62594, Note_on_c, 9, 38, 117
1, 62594, Note_on_c, 9, 42, 100
1, 62596, Note_on_c, 2, 56, 87
1, 62596, Note_on_c, 2, 61, 94
1, 62596, Note_on_c, 2, 65, 107
1, 62634, Note_off_c, 7, 37, 106
1, 62658, Note_off_c, 9, 42, 100
1, 62702, Note_off_c, 2, 56, 87
1, 62716, Note_off_c, 2, 65, 107
1, 62724, Note_off_c, 2, 61, 94
1, 62738, Note_off_c, 9, 38, 117
1, 62748, Control_c, 5, 1, 1
1, 62778, Control_c, 5, 1, 8
1, 62786, Note_on_c, 9, 42, 64
1, 62786, Note_on_c, 7, 32, 97
1, 62788, Note_on_c, 1, 56, 126
1, 62788, Note_on_c, 2, 56, 81
1, 62788, Note_on_c, 2, 61, 77
1, 62788, Note_on_c, 2, 65, 103
1, 62818, Control_c, 5, 1, 30
1, 62846, Note_off_c, 9, 42, 64
1, 62856, Control_c, 5, 1, 43
1, 62948, Note_off_c, 1, 56, 126
1, 62954, Note_off_c, 7, 32, 97
1, 62978, Note_on_c, 9, 36, 102
1, 62978, Note_on_c, 9, 42, 102
1, 62980, Note_on_c, 1, 61, 117
1, 62980, Note_on_c, 7, 37, 106
1, 62982, Control_c, 5, 1, 45
1, 63014, Note_off_c, 2, 56, 81
1, 63022, Note_off_c, 2, 65, 103
1, 63022, Note_off_c, 6, 77, 95
1, 63026, Note_off_c, 2, 61, 77
1, 63042, Note_off_c, 6, 73, 91
1, 63044, Note_off_c, 9, 42, 102
1, 63050, Control_c, 5, 1, 39
1, 63090, Control_c, 5, 1, 0
1, 63102, Note_off_c, 5, 77, 98
1, 63116, Note_off_c, 9, 36, 102
1, 63166, Note_on_c, 5, 77, 110
1, 63170, Note_on_c, 2, 56, 71
1, 63170, Note_on_c, 2, 61, 73
1, 63170, Note_on_c, 2, 65, 81
1, 63170, Note_on_c, 9, 42, 66
1, 63174, Note_on_c, 6, 73, 82
1, 63174, Note_on_c, 6, 77, 93
1, 63224, Note_off_c, 9, 42, 66
1, 63238, Note_off_c, 2, 65, 81
1, 63242, Note_off_c, 2, 61, 73
1, 63242, Note_off_c, 2, 56, 71
1, 63278, Note_off_c, 6, 73, 82
1, 63294, Note_off_c, 6, 77, 93
1, 63318, Note_off_c, 5, 77, 110
1, 63362, Note_on_c, 9, 38, 112
1, 63362, Note_on_c, 9, 42, 100
1, 63362, Note_on_c, 5, 77, 110
1, 63364, Note_on_c, 2, 56, 75
1, 63364, Note_on_c, 2, 61, 73
1, 63364, Note_on_c, 2, 65, 92
1, 63372, Note_on_c, 6, 73, 89
1, 63378, Note_on_c, 6, 77, 95
1, 63418, Note_off_c, 7, 37, 106
1, 63430, Note_off_c, 2, 65, 92
1, 63434, Note_off_c, 2, 61, 73
1, 63434, Note_off_c, 9, 42, 100
1, 63438, Note_off_c, 2, 56, 75
1, 63470, Note_off_c, 9, 38, 112
1, 63498, Note_off_c, 6, 73, 89
1, 63510, Note_off_c, 5, 77, 110
1, 63530, Note_off_c, 6, 77, 95
1, 63550, Note_on_c, 5, 79, 107
1, 63554, Note_on_c, 9, 36, 96
1, 63554, Note_on_c, 9, 42, 85
1, 63556, Note_on_c, 2, 56, 94
1, 63556, Note_on_c, 2, 61, 92
1, 63556, Note_on_c, 7, 37, 99
1, 63556, Note_on_c, 6, 79, 91
1, 63558, Note_on_c, 2, 65, 107
1, 63558, Note_on_c, 6, 75, 91
1, 63622, Note_off_c, 9, 42, 85
1, 63634, Note_off_c, 7, 37, 99
1, 63642, Note_off_c, 9, 36, 96
1, 63698, Note_off_c, 6, 75, 91
1, 63700, Note_off_c, 5, 79, 107
1, 63708, Note_off_c, 6, 79, 91
1, 63734, Note_off_c, 2, 65, 107
1, 63736, Note_off_c, 2, 61, 92
1, 63738, Note_on_c, 5, 80, 110
1, 63740, Note_off_c, 2, 56, 94
1, 63746, Note_on_c, 9, 36, 114
1, 63746, Note_on_c, 9, 42, 114
1, 63748, Note_on_c, 7, 37, 106
1, 63750, Note_on_c, 6, 77, 102
1, 63754, Note_on_c, 6, 80, 98
1, 63826, Note_off_c, 9, 42, 114
1, 63874, Note_off_c, 9, 36, 114
1, 63938, Note_on_c, 2, 56, 65
1, 63938, Note_on_c, 2, 61, 58
1, 63938, Note_on_c, 9, 42, 66
1, 63940, Note_on_c, 2, 65, 59
1, 63974, Note_off_c, 2, 65, 59
1, 63978, Note_off_c, 2, 61, 58
1, 63982, Note_off_c, 2, 56, 65
1, 64002, Note_off_c, 9, 42, 66
1, 64130, Note_on_c, 2, 56, 83
1, 64130, Note_on_c, 9, 38, 112
1, 64130, Note_on_c, 9, 42, 120
1, 64132, Note_on_c, 2, 61, 94
1, 64132, Note_on_c, 2, 65, 103
1, 64198, Note_off_c, 7, 37, 106
1, 64206, Note_off_c, 9, 42, 120
1, 64216, Note_off_c, 2, 65, 103
1, 64226, Note_off_c, 2, 56, 83
1, 64232, Note_off_c, 2, 61, 94
1, 64274, Note_off_c, 9, 38, 112
1, 64274, Note_off_c, 6, 80, 98
1, 64286, Note_off_c, 6, 77, 102
1, 64292, Note_off_c, 5, 80, 110
1, 64300, Note_on_c, 5, 79, 98
1, 64314, Note_on_c, 6, 75, 87
1, 64318, Note_on_c, 6, 79, 89
1, 64322, Note_on_c, 9, 42, 67
1, 64322, Note_on_c, 7, 37, 78
1, 64324, Note_on_c, 2, 56, 85
1, 64324, Note_on_c, 2, 61, 73
1, 64324, Note_on_c, 2, 65, 94
1, 64328, Note_off_c, 1, 61, 117
1, 64390, Note_off_c, 9, 42, 67
1, 64436, Note_off_c, 6, 79, 89
1, 64436, Note_off_c, 5, 79, 98
1, 64440, Note_off_c, 6, 75, 87
1, 64484, Note_off_c, 0, 77, 73
1, 64490, Note_off_c, 2, 65, 94
1, 64498, Note_off_c, 2, 61, 73
1, 64498, Note_off_c, 7, 37, 78
1, 64498, Note_off_c, 0, 85, 71
1, 64502, Note_on_c, 5, 77, 93
1, 64506, Note_off_c, 2, 56, 85
1, 64514, Note_on_c, 9, 36, 114
1, 64514, Note_on_c, 9, 42, 109
1, 64516, Note_on_c, 0, 84, 83
1, 64516, Note_on_c, 7, 32, 108
1, 64516, Note_on_c, 6, 73, 89
1, 64518, Note_on_c, 0, 75, 59
1, 64518, Note_on_c, 1, 56, 114
1, 64518, Note_on_c, 6, 77, 98
1, 64582, Note_off_c, 9, 42, 109
1, 64618, Note_off_c, 9, 36, 114
1, 64692, Note_off_c, 6, 73, 89
1, 64694, Note_off_c, 6, 77, 98
1, 64706, Note_on_c, 2, 60, 68
1, 64706, Note_on_c, 2, 63, 67
1, 64706, Note_on_c, 9, 42, 61
1, 64708, Note_off_c, 5, 77, 93
1, 64708, Note_on_c, 2, 68, 77
1, 64758, Note_off_c, 2, 68, 77
1, 64758, Note_off_c, 2, 63, 67
1, 64762, Note_off_c, 9, 42, 61
1, 64762, Note_off_c, 2, 60, 68
1, 64778, Note_on_c, 5, 75, 76
1, 64790, Note_on_c, 6, 72, 85
1, 64794, Note_on_c, 6, 75, 72
1, 64898, Note_on_c, 2, 60, 90
1, 64898, Note_on_c, 9, 38, 107
1, 64898, Note_on_c, 9, 42, 100
1, 64900, Note_on_c, 2, 63, 87
1, 64900, Note_on_c, 2, 68, 92
1, 64914, Note_off_c, 7, 32, 108
1, 64962, Note_off_c, 9, 42, 100
1, 64986, Note_off_c, 9, 38, 107
1, 64994, Note_off_c, 2, 68, 92
1, 64994, Note_off_c, 2, 63, 87
1, 64994, Note_off_c, 2, 60, 90
1, 65090, Note_on_c, 9, 36, 96
1, 65090, Note_on_c, 9, 42, 81
1, 65092, Note_on_c, 2, 60, 96
1, 65092, Note_on_c, 2, 63, 94
1, 65092, Note_on_c, 2, 68, 96
1, 65092, Note_on_c, 7, 32, 80
1, 65150, Note_off_c, 9, 42, 81
1, 65154, Note_off_c, 7, 32, 80
1, 65176, Note_off_c, 9, 36, 96
1, 65282, Note_on_c, 9, 36, 112
1, 65282, Note_on_c, 9, 42, 100
1, 65284, Note_on_c, 7, 32, 95
1, 65306, Note_off_c, 2, 60, 96
1, 65316, Control_c, 5, 1, 1
1, 65338, Note_off_c, 2, 63, 94
1, 65350, Note_off_c, 2, 68, 96
1, 65354, Note_off_c, 9, 42, 100
1, 65358, Control_c, 5, 1, 4
1, 65406, Note_off_c, 9, 36, 112
1, 65406, Control_c, 5, 1, 16
1, 65446, Control_c, 5, 1, 21
1, 65450, Note_off_c, 1, 56, 114
1, 65474, Note_on_c, 2, 60, 66
1, 65474, Note_on_c, 2, 63, 65
1, 65474, Note_on_c, 9, 42, 65
1, 65476, Note_on_c, 1, 63, 126
1, 65476, Note_on_c, 2, 68, 71
1, 65522, Control_c, 5, 1, 23
1, 65526, Note_off_c, 9, 42, 65
1, 65530, Note_off_c, 2, 68, 71
1, 65530, Note_off_c, 2, 63, 65
1, 65534, Note_off_c, 2, 60, 66
1, 65562, Control_c, 5, 1, 25
1, 65570, Note_off_c, 1, 63, 126
1, 65646, Note_off_c, 7, 32, 95
1, 65666, Note_on_c, 9, 38, 117
1, 65666, Note_on_c, 9, 42, 105
1, 65666, Control_c, 5, 1, 17
1, 65668, Note_on_c, 2, 60, 90
1, 65668, Note_on_c, 2, 63, 87
1, 65668, Note_on_c, 2, 68, 90
1, 65698, Control_c, 5, 1, 0
1, 65732, Note_off_c, 9, 42, 105
1, 65770, Note_off_c, 2, 63, 87
1, 65770, Note_off_c, 2, 60, 90
1, 65778, Note_off_c, 2, 68, 90
1, 65810, Note_off_c, 9, 38, 117
1, 65858, Note_on_c, 9, 42, 66
1, 65858, Note_on_c, 7, 27, 101
1, 65860, Note_on_c, 1, 63, 126
1, 65860, Note_on_c, 2, 60, 85
1, 65860, Note_on_c, 2, 63, 83
1, 65860, Note_on_c, 2, 68, 92
1, 65922, Note_off_c, 9, 42, 66
1, 65962, Note_off_c, 0, 68, 83
1, 65966, Note_off_c, 5, 75, 76
1, 66034, Note_off_c, 1, 63, 126
1, 66046, Note_off_c, 7, 27, 101
1, 66050, Note_on_c, 9, 36, 114
1, 66050, Note_on_c, 9, 42, 107
1, 66052, Note_on_c, 0, 72, 50
1, 66052, Note_on_c, 0, 87, 69
1, 66052, Note_on_c, 7, 32, 101
1, 66054, Note_on_c, 0, 80, 59
1, 66054, Note_on_c, 1, 56, 123
1, 66056, Note_off_c, 6, 72, 85
1, 66066, Note_off_c, 0, 75, 59
1, 66078, Note_off_c, 0, 84, 83
1, 66082, Note_off_c, 6, 75, 72
1, 66102, Note_off_c, 2, 60, 85
1, 66118, Note_off_c, 9, 42, 107
1, 66122, Note_off_c, 2, 63, 83
1, 66142, Note_off_c, 2, 68, 92
1, 66162, Note_off_c, 9, 36, 114
1, 66230, Note_on_c, 6, 72, 89
1, 66234, Note_on_c, 6, 80, 93
1, 66242, Note_on_c, 2, 63, 64
1, 66242, Note_on_c, 2, 68, 75
1, 66242, Note_on_c, 9, 42, 66
1, 66244, Note_on_c, 2, 60, 67
1, 66250, Note_on_c, 5, 80, 107
1, 66298, Note_off_c, 9, 42, 66
1, 66302, Note_off_c, 2, 60, 67
1, 66306, Note_off_c, 2, 68, 75
1, 66306, Note_off_c, 2, 63, 64
1, 66324, Note_off_c, 6, 72, 89
1, 66334, Note_off_c, 6, 80, 93
1, 66392, Note_off_c, 5, 80, 107
1, 66424, Note_on_c, 6, 72, 98
1, 66428, Note_on_c, 6, 80, 98
1, 66434, Note_on_c, 9, 38, 120
1, 66434, Note_on_c, 9, 42, 107
1, 66434, Note_on_c, 5, 80, 91
1, 66436, Note_on_c, 2, 60, 90
1, 66436, Note_on_c, 2, 63, 77
1, 66436, Note_on_c, 2, 68, 92
1, 66500, Note_off_c, 6, 72, 98
1, 66510, Note_off_c, 9, 42, 107
1, 66510, Note_off_c, 6, 80, 98
1, 66510, Note_off_c, 7, 32, 101
1, 66514, Note_off_c, 2, 63, 77
1, 66518, Note_off_c, 2, 60, 90
1, 66522, Note_off_c, 2, 68, 92
1, 66548, Note_off_c, 9, 38, 120
1, 66568, Note_off_c, 5, 80, 91
1, 66622, Note_on_c, 5, 80, 95
1, 66622, Note_on_c, 6, 72, 105
1, 66626, Note_on_c, 9, 36, 81
1, 66626, Note_on_c, 9, 42, 81
1, 66626, Note_on_c, 6, 80, 100
1, 66628, Note_on_c, 2, 60, 87
1, 66628, Note_on_c, 2, 63, 87
1, 66628, Note_on_c, 2, 68, 92
1, 66628, Note_on_c, 7, 32, 88
1, 66690, Note_off_c, 9, 42, 81
1, 66706, Note_off_c, 7, 32, 88
1, 66706, Note_off_c, 9, 36, 81
1, 66818, Note_on_c, 9, 36, 112
1, 66818, Note_on_c, 9, 42, 112
1, 66820, Note_on_c, 7, 32, 95
1, 66838, Note_off_c, 2, 63, 87
1, 66838, Note_off_c, 2, 60, 87
1, 66872, Note_off_c, 2, 68, 92
1, 66894, Note_off_c, 9, 42, 112
1, 66900, Note_off_c, 6, 72, 105
1, 66914, Note_off_c, 9, 36, 112
1, 66966, Note_off_c, 6, 80, 100
1, 66986, Note_off_c, 5, 80, 95
1, 67002, Note_on_c, 5, 79, 100
1, 67006, Note_on_c, 6, 70, 105
1, 67010, Note_on_c, 9, 42, 75
1, 67010, Note_on_c, 6, 79, 98
1, 67012, Note_on_c, 2, 60, 61
1, 67012, Note_on_c, 2, 63, 45
1, 67012, Note_on_c, 2, 68, 64
1, 67048, Note_off_c, 2, 63, 45
1, 67058, Note_off_c, 2, 60, 61
1, 67060, Note_off_c, 2, 68, 64
1, 67070, Note_off_c, 9, 42, 75
1, 67074, Note_off_c, 6, 70, 105
1, 67100, Note_off_c, 6, 79, 98
1, 67122, Note_off_c, 5, 79, 100
1, 67196, Note_on_c, 5, 79, 107
1, 67202, Note_on_c, 2, 60, 92
1, 67202, Note_on_c, 9, 38, 112
1, 67202, Note_on_c, 9, 42, 107
1, 67204, Note_on_c, 2, 63, 81
1, 67204, Note_on_c, 2, 68, 87
1, 67206, Note_on_c, 6, 79, 100
1, 67210, Note_on_c, 6, 70, 98
1, 67258, Note_off_c, 9, 42, 107
1, 67268, Note_off_c, 9, 38, 112
1, 67272, Note_off_c, 7, 32, 95
1, 67282, Note_off_c, 6, 70, 98
1, 67286, Note_off_c, 2, 60, 92
1, 67290, Note_off_c, 2, 68, 87
1, 67290, Note_off_c, 2, 63, 81
1, 67300, Note_off_c, 6, 79, 100
1, 67358, Note_off_c, 5, 79, 107
1, 67394, Note_off_c, 1, 56, 123
1, 67394, Note_on_c, 9, 46, 89
1, 67394, Note_on_c, 7, 32, 80
1, 67396, Note_on_c, 2, 60, 75
1, 67396, Note_on_c, 2, 63, 66
1, 67396, Note_on_c, 2, 68, 81
1, 67402, Note_on_c, 5, 82, 105
1, 67402, Note_on_c, 6, 73, 105
1, 67406, Note_on_c, 6, 82, 91
1, 67438, Note_off_c, 0, 80, 59
1, 67442, Note_off_c, 9, 46, 89
1, 67470, Note_off_c, 0, 72, 50
1, 67476, Note_off_c, 2, 63, 66
1, 67480, Note_off_c, 2, 60, 75
1, 67484, Note_off_c, 2, 68, 81
1, 67586, Note_off_c, 7, 32, 80
1, 67586, Note_on_c, 9, 36, 114
1, 67588, Note_on_c, 0, 79, 62
1, 67588, Note_on_c, 9, 42, 112
1, 67588, Note_on_c, 7, 39, 99
1, 67590, Note_on_c, 0, 70, 59
1, 67590, Note_on_c, 1, 63, 126
1, 67650, Note_off_c, 9, 42, 112
1, 67676, Note_off_c, 9, 36, 114
1, 67702, Note_off_c, 6, 73, 105
1, 67716, Note_off_c, 6, 82, 91
1, 67758, Note_off_c, 5, 82, 105
1, 67766, Note_on_c, 6, 72, 105
1, 67774, Note_on_c, 6, 80, 89
1, 67778, Note_on_c, 2, 63, 73
1, 67778, Note_on_c, 9, 42, 73
1, 67780, Note_on_c, 2, 58, 66
1, 67780, Note_on_c, 2, 67, 79
1, 67790, Note_on_c, 5, 80, 102
1, 67828, Note_off_c, 2, 58, 66
1, 67838, Note_off_c, 9, 42, 73
1, 67846, Note_off_c, 2, 63, 73
1, 67852, Note_off_c, 2, 67, 79
1, 67866, Note_off_c, 6, 72, 105
1, 67908, Note_off_c, 6, 80, 89
1, 67942, Note_off_c, 5, 80, 102
1, 67964, Note_on_c, 6, 70, 98
1, 67966, Note_on_c, 6, 79, 95
1, 67970, Note_on_c, 2, 63, 87
1, 67970, Note_on_c, 2, 67, 90
1, 67970, Note_on_c, 9, 38, 112
1, 67970, Note_on_c, 9, 42, 100
1, 67972, Note_on_c, 2, 58, 92
1, 67974, Note_on_c, 5, 79, 105
1, 68022, Note_off_c, 7, 39, 99
1, 68030, Note_off_c, 6, 79, 95
1, 68034, Note_off_c, 9, 42, 100
1, 68040, Note_off_c, 2, 58, 92
1, 68050, Note_off_c, 2, 63, 87
1, 68052, Note_off_c, 6, 70, 98
1, 68054, Note_off_c, 9, 38, 112
1, 68054, Note_off_c, 2, 67, 90
1, 68148, Note_off_c, 5, 79, 105
1, 68158, Note_on_c, 6, 77, 95
1, 68162, Note_on_c, 9, 36, 87
1, 68162, Note_on_c, 9, 42, 87
1, 68162, Note_on_c, 6, 68, 98
1, 68164, Note_on_c, 2, 58, 96
1, 68164, Note_on_c, 2, 67, 92
1, 68164, Note_on_c, 7, 39, 86
1, 68166, Note_on_c, 2, 63, 85
1, 68174, Note_on_c, 5, 77, 102
1, 68218, Note_off_c, 9, 42, 87
1, 68228, Note_off_c, 9, 36, 87
1, 68246, Note_off_c, 7, 39, 86
1, 68354, Note_on_c, 9, 36, 117
1, 68354, Note_on_c, 9, 42, 114
1, 68356, Note_on_c, 0, 82, 89
1, 68356, Note_on_c, 7, 39, 95
1, 68360, Note_off_c, 0, 87, 69
1, 68366, Note_off_c, 2, 58, 96
1, 68376, Note_off_c, 2, 67, 92
1, 68398, Note_off_c, 2, 63, 85
1, 68422, Note_off_c, 9, 42, 114
1, 68450, Note_off_c, 6, 68, 98
1, 68452, Note_off_c, 6, 77, 95
1, 68466, Note_off_c, 9, 36, 117
1, 68474, Note_off_c, 5, 77, 102
1, 68538, Note_on_c, 5, 75, 95
1, 68542, Note_on_c, 6, 67, 102
1, 68546, Note_on_c, 9, 42, 79
1, 68546, Note_on_c, 6, 75, 87
1, 68548, Note_on_c, 2, 58, 77
1, 68548, Note_on_c, 2, 63, 71
1, 68548, Note_on_c, 2, 67, 79
1, 68602, Note_off_c, 2, 58, 77
1, 68606, Note_off_c, 9, 42, 79
1, 68610, Note_off_c, 2, 63, 71
1, 68614, Note_off_c, 2, 67, 79
1, 68618, Note_off_c, 6, 67, 102
1, 68636, Note_off_c, 6, 75, 87
1, 68694, Note_off_c, 5, 75, 95
1, 68732, Note_on_c, 5, 75, 87
1, 68738, Note_on_c, 9, 38, 112
1, 68738, Note_on_c, 9, 42, 102
1, 68738, Note_on_c, 6, 67, 91
1, 68740, Note_on_c, 0, 84, 92
1, 68740, Note_on_c, 2, 63, 73
1, 68740, Note_on_c, 6, 75, 95
1, 68742, Note_on_c, 2, 58, 81
1, 68742, Note_on_c, 2, 67, 75
1, 68746, Note_off_c, 0, 82, 89
1, 68790, Note_off_c, 7, 39, 95
1, 68794, Note_off_c, 2, 58, 81
1, 68802, Note_off_c, 9, 42, 102
1, 68802, Note_off_c, 1, 63, 126
1, 68806, Note_off_c, 2, 67, 75
1, 68812, Note_off_c, 2, 63, 73
1, 68812, Note_off_c, 6, 67, 91
1, 68830, Note_off_c, 6, 75, 95
1, 68838, Note_off_c, 9, 38, 112
1, 68866, Note_off_c, 5, 75, 87
1, 68916, Note_on_c, 5, 75, 89
1, 68930, Note_on_c, 2, 58, 77
1, 68930, Note_on_c, 9, 42, 77
1, 68930, Note_on_c, 7, 34, 95
1, 68932, Note_on_c, 1, 63, 120
1, 68932, Note_on_c, 2, 63, 73
1, 68932, Note_on_c, 2, 67, 79
1, 68934, Note_on_c, 6, 75, 93
1, 68938, Note_on_c, 6, 67, 100
1, 68986, Note_off_c, 9, 42, 77
1, 69018, Note_off_c, 1, 63, 120
1, 69098, Note_off_c, 7, 34, 95
1, 69114, Note_off_c, 0, 84, 92
1, 69122, Note_on_c, 9, 36, 120
1, 69124, Note_on_c, 0, 85, 73
1, 69124, Note_on_c, 9, 42, 105
1, 69124, Note_on_c, 7, 39, 106
1, 69126, Note_on_c, 1, 63, 123
1, 69134, Note_off_c, 2, 67, 79
1, 69138, Note_off_c, 2, 58, 77
1, 69154, Note_off_c, 2, 63, 73
1, 69156, Note_off_c, 5, 75, 89
1, 69188, Note_off_c, 9, 42, 105
1, 69246, Note_off_c, 9, 36, 120
1, 69314, Note_on_c, 2, 63, 65
1, 69314, Note_on_c, 9, 42, 83
1, 69316, Note_on_c, 2, 58, 81
1, 69316, Note_on_c, 2, 67, 67
1, 69374, Note_off_c, 2, 67, 67
1, 69374, Note_off_c, 2, 58, 81
1, 69374, Note_off_c, 2, 63, 65
1, 69378, Note_off_c, 9, 42, 83
1, 69396, Note_off_c, 6, 67, 100
1, 69502, Note_off_c, 6, 75, 93
1, 69506, Note_on_c, 9, 38, 94
1, 69506, Note_on_c, 9, 42, 98
1, 69506, Note_on_c, 6, 67, 105
1, 69508, Note_on_c, 2, 58, 85
1, 69508, Note_on_c, 2, 63, 71
1, 69508, Note_on_c, 2, 67, 79
1, 69508, Note_on_c, 5, 70, 102
1, 69510, Note_on_c, 6, 70, 95
1, 69534, Note_off_c, 7, 39, 106
1, 69566, Note_off_c, 9, 42, 98
1, 69570, Note_off_c, 2, 58, 85
1, 69574, Note_off_c, 2, 63, 71
1, 69578, Note_off_c, 6, 67, 105
1, 69586, Note_off_c, 6, 70, 95
1, 69594, Note_off_c, 2, 67, 79
1, 69618, Note_off_c, 9, 38, 94
1, 69646, Note_off_c, 5, 70, 102
1, 69692, Note_on_c, 5, 70, 95
1, 69698, Note_on_c, 9, 36, 100
1, 69698, Note_on_c, 9, 42, 107
1, 69698, Note_on_c, 7, 39, 86
1, 69700, Note_on_c, 2, 58, 90
1, 69700, Note_on_c, 2, 63, 79
1, 69700, Note_on_c, 2, 67, 92
1, 69702, Note_on_c, 6, 67, 102
1, 69706, Note_on_c, 6, 70, 107
1, 69762, Note_off_c, 9, 42, 107
1, 69768, Note_off_c, 6, 67, 102
1, 69772, Note_off_c, 6, 70, 107
1, 69778, Note_off_c, 7, 39, 86
1, 69786, Note_off_c, 9, 36, 100
1, 69810, Note_off_c, 5, 70, 95
1, 69890, Note_on_c, 9, 36, 117
1, 69890, Note_on_c, 9, 42, 112
1, 69892, Note_off_c, 2, 58, 90
1, 69892, Note_on_c, 7, 39, 104
1, 69892, Note_on_c, 6, 67, 107
1, 69894, Note_on_c, 6, 70, 107
1, 69902, Note_off_c, 2, 67, 92
1, 69902, Note_on_c, 5, 70, 107
1, 69912, Note_off_c, 2, 63, 79
1, 69966, Note_off_c, 9, 42, 112
1, 69988, Note_off_c, 6, 67, 107
1, 70002, Note_off_c, 9, 36, 117
1, 70056, Note_off_c, 6, 70, 107
1, 70078, Note_on_c, 6, 72, 95
1, 70082, Note_off_c, 5, 70, 107
1, 70082, Note_on_c, 9, 42, 85
1, 70082, Note_on_c, 6, 68, 93
1, 70084, Note_on_c, 2, 58, 87
1, 70084, Note_on_c, 2, 63, 92
1, 70084, Note_on_c, 2, 67, 92
1, 70090, Note_on_c, 5, 72, 93
1, 70142, Note_off_c, 9, 42, 85
1, 70154, Note_off_c, 2, 63, 92
1, 70162, Note_off_c, 2, 67, 92
1, 70180, Note_off_c, 2, 58, 87
1, 70202, Note_off_c, 6, 68, 93
1, 70210, Note_off_c, 6, 72, 95
1, 70254, Note_off_c, 5, 72, 93
1, 70270, Note_on_c, 6, 73, 91
1, 70274, Note_on_c, 9, 38, 112
1, 70274, Note_on_c, 9, 42, 105
1, 70276, Note_off_c, 0, 85, 73
1, 70276, Note_on_c, 0, 87, 67
1, 70276, Note_on_c, 6, 70, 110
1, 70280, Note_on_c, 5, 73, 89
1, 70338, Note_off_c, 9, 42, 105
1, 70354, Note_off_c, 6, 70, 110
1, 70362, Note_off_c, 6, 73, 91
1, 70366, Note_off_c, 9, 38, 112
1, 70372, Note_off_c, 5, 73, 89
1, 70402, Note_off_c, 7, 39, 104
1, 70458, Note_on_c, 6, 73, 107
1, 70460, Note_on_c, 6, 77, 110
1, 70466, Note_on_c, 2, 58, 98
1, 70466, Note_on_c, 9, 42, 85
1, 70466, Note_on_c, 7, 34, 93
1, 70468, Note_off_c, 1, 63, 123
1, 70468, Note_on_c, 2, 63, 81
1, 70468, Note_on_c, 2, 67, 90
1, 70470, Note_on_c, 5, 73, 102
1, 70526, Note_off_c, 9, 42, 85
1, 70540, Note_off_c, 2, 63, 81
1, 70558, Note_off_c, 2, 67, 90
1, 70562, Note_off_c, 2, 58, 98
1, 70610, Note_off_c, 7, 34, 93
1, 70658, Note_off_c, 0, 87, 67
1, 70660, Note_on_c, 0, 89, 68
1, 70660, Note_on_c, 9, 36, 120
1, 70660, Note_on_c, 9, 42, 107
1, 70660, Note_on_c, 7, 32, 91
1, 70662, Note_on_c, 1, 56, 126
1, 70670, Note_off_c, 0, 79, 62
1, 70726, Note_off_c, 9, 42, 107
1, 70770, Note_off_c, 9, 36, 120
1, 70772, Note_off_c, 6, 77, 110
1, 70802, Note_off_c, 6, 73, 107
1, 70814, Note_off_c, 5, 73, 102
1, 70818, Note_off_c, 0, 70, 59
1, 70842, Note_on_c, 6, 72, 105
1, 70846, Note_on_c, 6, 75, 95
1, 70850, Note_on_c, 0, 87, 67
1, 70850, Note_on_c, 2, 63, 63
1, 70850, Note_on_c, 9, 42, 89
1, 70852, Note_on_c, 2, 60, 64
1, 70852, Note_on_c, 2, 68, 60
1, 70854, Note_on_c, 5, 72, 100
1, 70866, Note_off_c, 0, 89, 68
1, 70886, Note_off_c, 2, 68, 60
1, 70886, Note_off_c, 2, 60, 64
1, 70898, Note_off_c, 2, 63, 63
1, 70900, Note_off_c, 9, 42, 89
1, 70946, Note_on_c, 0, 68, 65
1, 70946, Note_on_c, 0, 75, 47
1, 70958, Note_off_c, 6, 72, 105
1, 70964, Note_off_c, 6, 75, 95
1, 71006, Note_off_c, 5, 72, 100
1, 71034, Note_on_c, 6, 70, 113
1, 71038, Note_on_c, 6, 73, 95
1, 71042, Note_on_c, 9, 38, 109
1, 71042, Note_on_c, 9, 42, 100
1, 71044, Note_on_c, 2, 60, 90
1, 71044, Note_on_c, 2, 63, 87
1, 71044, Note_on_c, 2, 68, 92
1, 71044, Note_on_c, 5, 70, 100
1, 71066, Note_off_c, 7, 32, 91
1, 71098, Note_off_c, 9, 42, 100
1, 71110, Note_off_c, 2, 60, 90
1, 71124, Note_off_c, 2, 68, 92
1, 71128, Note_off_c, 2, 63, 87
1, 71138, Note_off_c, 9, 38, 109
1, 71170, Note_off_c, 6, 70, 113
1, 71186, Note_off_c, 6, 73, 95
1, 71222, Note_off_c, 5, 70, 100
1, 71226, Note_on_c, 6, 72, 102
1, 71230, Note_on_c, 6, 75, 89
1, 71234, Note_on_c, 9, 36, 87
1, 71234, Note_on_c, 9, 42, 96
1, 71234, Note_on_c, 7, 32, 97
1, 71236, Note_on_c, 2, 60, 90
1, 71236, Note_on_c, 2, 63, 87
1, 71236, Note_on_c, 2, 68, 96
1, 71238, Note_on_c, 5, 72, 91
1, 71290, Note_off_c, 9, 42, 96
1, 71308, Note_off_c, 9, 36, 87
1, 71314, Note_off_c, 7, 32, 97
1, 71410, Note_off_c, 2, 60, 90
1, 71426, Note_on_c, 9, 36, 117
1, 71426, Note_on_c, 9, 42, 117
1, 71428, Note_on_c, 7, 32, 97
1, 71442, Note_off_c, 2, 68, 96
1, 71444, Note_off_c, 2, 63, 87
1, 71450, Note_off_c, 1, 56, 126
1, 71492, Note_off_c, 9, 42, 117
1, 71546, Note_off_c, 9, 36, 117
1, 71618, Note_on_c, 2, 60, 71
1, 71618, Note_on_c, 2, 63, 65
1, 71618, Note_on_c, 2, 68, 81
1, 71618, Note_on_c, 9, 42, 85
1, 71620, Note_on_c, 1, 63, 126
1, 71670, Note_off_c, 2, 60, 71
1, 71672, Note_off_c, 2, 68, 81
1, 71676, Note_off_c, 9, 42, 85
1, 71682, Note_off_c, 2, 63, 65
1, 71720, Note_off_c, 1, 63, 126
1, 71788, Note_off_c, 7, 32, 97
1, 71810, Note_on_c, 2, 68, 96
1, 71810, Note_on_c, 9, 38, 117
1, 71810, Note_on_c, 9, 42, 109
1, 71812, Note_on_c, 2, 60, 92
1, 71812, Note_on_c, 2, 63, 92
1, 71878, Note_off_c, 9, 42, 109
1, 71894, Note_off_c, 2, 60, 92
1, 71896, Note_off_c, 2, 68, 96
1, 71900, Note_off_c, 2, 63, 92
1, 71928, Note_off_c, 9, 38, 117
1, 72002, Note_on_c, 2, 60, 92
1, 72002, Note_on_c, 9, 42, 92
1, 72002, Note_on_c, 7, 27, 104
1, 72004, Note_on_c, 1, 63, 126
1, 72004, Note_on_c, 2, 63, 92
1, 72004, Note_on_c, 2, 68, 98
1, 72052, Note_off_c, 9, 42, 92
1, 72178, Note_off_c, 1, 63, 126
1, 72194, Note_on_c, 9, 36, 117
1, 72194, Note_on_c, 9, 42, 112
1, 72196, Note_on_c, 0, 80, 61
1, 72196, Note_on_c, 1, 56, 120
1, 72196, Note_on_c, 7, 32, 86
1, 72198, Note_off_c, 7, 27, 104
1, 72214, Note_off_c, 5, 72, 91
1, 72234, Note_off_c, 2, 60, 92
1, 72242, Note_off_c, 0, 87, 67
1, 72250, Note_off_c, 6, 72, 102
1, 72258, Note_off_c, 9, 42, 112
1, 72260, Note_off_c, 2, 68, 98
1, 72260, Note_off_c, 2, 63, 92
1, 72264, Note_off_c, 6, 75, 89
1, 72290, Note_on_c, 0, 84, 85
1, 72298, Note_off_c, 9, 36, 117
1, 72386, Note_on_c, 2, 60, 79
1, 72386, Note_on_c, 2, 63, 73
1, 72386, Note_on_c, 9, 42, 75
1, 72388, Note_on_c, 2, 68, 85
1, 72388, Note_on_c, 9, 48, 73
1, 72434, Note_off_c, 9, 42, 75
1, 72438, Note_off_c, 2, 68, 85
1, 72442, Note_off_c, 2, 60, 79
1, 72450, Note_off_c, 9, 48, 73
1, 72450, Note_off_c, 2, 63, 73
1, 72566, Note_on_c, 5, 68, 93
1, 72578, Note_on_c, 2, 63, 90
1, 72578, Note_on_c, 9, 38, 117
1, 72578, Note_on_c, 9, 42, 109
1, 72580, Note_on_c, 2, 60, 85
1, 72580, Note_on_c, 2, 68, 94
1, 72580, Note_on_c, 9, 48, 92
1, 72580, Note_on_c, 6, 68, 110
1, 72636, Note_off_c, 2, 68, 94
1, 72636, Note_off_c, 2, 60, 85
1, 72642, Note_off_c, 7, 32, 86
1, 72646, Note_off_c, 9, 42, 109
1, 72646, Note_off_c, 2, 63, 90
1, 72650, Note_off_c, 9, 48, 92
1, 72668, Note_off_c, 9, 38, 117
1, 72686, Note_off_c, 6, 68, 110
1, 72718, Note_off_c, 5, 68, 93
1, 72762, Note_on_c, 5, 68, 93
1, 72770, Note_on_c, 9, 36, 75
1, 72770, Note_on_c, 9, 42, 79
1, 72772, Note_on_c, 2, 63, 92
1, 72772, Note_on_c, 7, 32, 91
1, 72772, Note_on_c, 6, 68, 107
1, 72774, Note_on_c, 2, 60, 87
1, 72774, Note_on_c, 2, 68, 98
1, 72774, Note_on_c, 9, 48, 87
1, 72820, Note_off_c, 9, 42, 79
1, 72838, Note_off_c, 9, 48, 87
1, 72846, Note_off_c, 9, 36, 75
1, 72870, Note_off_c, 6, 68, 107
1, 72874, Note_off_c, 7, 32, 91
1, 72938, Note_off_c, 5, 68, 93
1, 72950, Note_off_c, 2, 60, 87
1, 72950, Note_on_c, 5, 72, 102
1, 72950, Note_on_c, 6, 72, 105
1, 72954, Note_off_c, 2, 68, 98
1, 72954, Note_on_c, 6, 68, 105
1, 72962, Note_off_c, 2, 63, 92
1, 72962, Note_on_c, 9, 36, 114
1, 72964, Note_on_c, 9, 42, 109
1, 72964, Note_on_c, 9, 45, 100
1, 72964, Note_on_c, 7, 32, 91
1, 73026, Note_off_c, 9, 45, 100
1, 73030, Note_off_c, 9, 42, 109
1, 73030, Note_off_c, 0, 84, 85
1, 73058, Note_off_c, 6, 68, 105
1, 73062, Note_off_c, 9, 36, 114
1, 73074, Note_off_c, 7, 32, 91
1, 73076, Note_off_c, 6, 72, 105
1, 73094, Note_off_c, 5, 72, 102
1, 73140, Note_on_c, 5, 72, 95
1, 73144, Note_on_c, 6, 72, 105
1, 73146, Note_on_c, 6, 68, 102
1, 73154, Note_on_c, 9, 38, 81
1, 73154, Note_on_c, 9, 42, 79
1, 73154, Note_on_c, 7, 32, 97
1, 73156, Note_on_c, 2, 60, 90
1, 73156, Note_on_c, 2, 63, 87
1, 73156, Note_on_c, 2, 68, 94
1, 73156, Note_on_c, 9, 45, 96
1, 73210, Note_off_c, 9, 45, 96
1, 73214, Note_off_c, 9, 42, 79
1, 73230, Note_off_c, 9, 38, 81
1, 73234, Note_off_c, 2, 60, 90
1, 73238, Note_off_c, 2, 68, 94
1, 73242, Note_off_c, 2, 63, 87
1, 73252, Note_off_c, 6, 68, 102
1, 73260, Note_off_c, 6, 72, 105
1, 73286, Note_off_c, 5, 72, 95
1, 73330, Note_on_c, 5, 75, 98
1, 73346, Note_on_c, 9, 38, 114
1, 73346, Note_on_c, 9, 42, 117
1, 73346, Note_on_c, 6, 72, 102
1, 73348, Note_on_c, 9, 41, 98
1, 73348, Note_on_c, 9, 45, 87
1, 73350, Note_on_c, 6, 75, 91
1, 73386, Note_off_c, 7, 32, 97
1, 73404, Note_off_c, 9, 42, 117
1, 73416, Note_off_c, 9, 38, 114
1, 73422, Note_off_c, 9, 45, 87
1, 73422, Note_off_c, 9, 41, 98
1, 73450, Note_off_c, 6, 72, 102
1, 73462, Note_off_c, 6, 75, 91
1, 73466, Note_off_c, 5, 75, 98
1, 73522, Note_on_c, 5, 75, 91
1, 73534, Note_on_c, 6, 72, 107
1, 73538, Note_on_c, 9, 46, 112
1, 73538, Note_on_c, 6, 75, 87
1, 73540, Note_on_c, 2, 60, 92
1, 73540, Note_on_c, 2, 63, 87
1, 73540, Note_on_c, 2, 68, 94
1, 73540, Note_on_c, 7, 32, 108
1, 73542, Note_on_c, 9, 41, 98
1, 73554, Note_off_c, 1, 56, 120
1, 73570, Note_off_c, 0, 75, 47
1, 73570, Note_off_c, 0, 68, 65
1, 73594, Note_off_c, 9, 46, 112
1, 73602, Note_off_c, 2, 60, 92
1, 73610, Note_off_c, 2, 63, 87
1, 73614, Note_off_c, 2, 68, 94
1, 73636, Note_off_c, 6, 72, 107
1, 73646, Note_off_c, 9, 41, 98
1, 73656, Note_off_c, 6, 75, 87
1, 73656, Note_off_c, 5, 75, 91
1, 73674, Note_off_c, 0, 80, 61
1, 73706, Note_off_c, 7, 32, 108
1, 73726, Note_on_c, 6, 73, 105
1, 73726, Note_on_c, 6, 77, 107
1, 73730, Note_on_c, 9, 36, 112
1, 73730, Note_on_c, 9, 42, 114
1, 73732, Note_on_c, 0, 85, 79
1, 73732, Note_on_c, 7, 37, 104
1, 73732, Note_on_c, 5, 77, 102
1, 73734, Note_on_c, 0, 68, 73
1, 73734, Note_on_c, 0, 77, 75
1, 73734, Note_on_c, 9, 49, 92
1, 73736, Note_on_c, 1, 61, 117
1, 73794, Note_off_c, 9, 49, 92
1, 73800, Note_off_c, 9, 42, 114
1, 73838, Note_off_c, 9, 36, 112
1, 73922, Note_on_c, 2, 61, 90
1, 73922, Note_on_c, 2, 68, 73
1, 73922, Note_on_c, 9, 42, 67
1, 73924, Note_on_c, 2, 65, 87
1, 73974, Note_off_c, 9, 42, 67
1, 73992, Note_off_c, 2, 68, 73
1, 73992, Note_off_c, 2, 61, 90
1, 73994, Note_off_c, 2, 65, 87
1, 74006, Note_off_c, 5, 77, 102
1, 74014, Note_off_c, 6, 77, 107
1, 74020, Note_off_c, 6, 73, 105
1, 74114, Note_on_c, 9, 38, 114
1, 74114, Note_on_c, 9, 42, 107
1, 74114, Note_on_c, 5, 77, 105
1, 74116, Note_on_c, 2, 61, 94
1, 74116, Note_on_c, 2, 65, 92
1, 74116, Note_on_c, 2, 68, 85
1, 74116, Note_on_c, 6, 73, 107
1, 74118, Note_on_c, 6, 77, 113
1, 74170, Note_off_c, 7, 37, 104
1, 74178, Note_off_c, 9, 42, 107
1, 74184, Note_off_c, 2, 65, 92
1, 74202, Note_off_c, 2, 68, 85
1, 74206, Note_off_c, 2, 61, 94
1, 74206, Note_off_c, 9, 38, 114
1, 74258, Note_off_c, 6, 77, 113
1, 74260, Note_off_c, 6, 73, 107
1, 74290, Note_off_c, 5, 77, 105
1, 74302, Note_on_c, 5, 75, 93
1, 74306, Note_on_c, 9, 36, 92
1, 74306, Note_on_c, 9, 42, 81
1, 74306, Note_on_c, 7, 37, 74
1, 74308, Note_on_c, 2, 61, 94
1, 74308, Note_on_c, 2, 65, 94
1, 74308, Note_on_c, 2, 68, 79
1, 74310, Note_on_c, 6, 72, 105
1, 74314, Note_on_c, 6, 75, 93
1, 74360, Note_off_c, 9, 42, 81
1, 74378, Note_off_c, 2, 68, 79
1, 74378, Note_off_c, 2, 65, 94
1, 74378, Note_off_c, 7, 37, 74
1, 74382, Note_off_c, 9, 36, 92
1, 74390, Note_off_c, 2, 61, 94
1, 74428, Note_off_c, 5, 75, 93
1, 74436, Note_off_c, 6, 72, 105
1, 74444, Note_off_c, 6, 75, 93
1, 74490, Note_on_c, 6, 77, 107
1, 74494, Note_on_c, 5, 77, 107
1, 74494, Note_on_c, 6, 73, 102
1, 74498, Note_on_c, 9, 36, 112
1, 74500, Note_on_c, 9, 42, 105
1, 74500, Note_on_c, 7, 37, 104
1, 74566, Note_off_c, 9, 42, 105
1, 74594, Note_off_c, 9, 36, 112
1, 74690, Note_on_c, 2, 65, 94
1, 74690, Note_on_c, 2, 68, 85
1, 74690, Note_on_c, 9, 42, 85
1, 74692, Note_on_c, 2, 61, 90
1, 74742, Note_off_c, 2, 61, 90
1, 74746, Note_off_c, 9, 42, 85
1, 74746, Note_off_c, 2, 65, 94
1, 74754, Note_off_c, 2, 68, 85
1, 74818, Note_off_c, 1, 61, 117
1, 74882, Note_on_c, 2, 61, 90
1, 74882, Note_on_c, 9, 38, 107
1, 74882, Note_on_c, 9, 42, 107
1, 74884, Note_on_c, 2, 65, 92
1, 74884, Note_on_c, 2, 68, 90
1, 74906, Note_off_c, 7, 37, 104
1, 74938, Note_off_c, 2, 65, 92
1, 74946, Note_off_c, 9, 42, 107
1, 74946, Note_off_c, 2, 61, 90
1, 74948, Note_off_c, 2, 68, 90
1, 74954, Control_c, 5, 1, 1
1, 74988, Note_off_c, 9, 38, 107
1, 75002, Control_c, 5, 1, 8
1, 75034, Control_c, 5, 1, 15
1, 75074, Note_on_c, 2, 61, 92
1, 75074, Note_on_c, 9, 42, 85
1, 75074, Note_on_c, 7, 32, 84
1, 75076, Note_on_c, 1, 56, 123
1, 75076, Note_on_c, 2, 65, 94
1, 75076, Note_on_c, 2, 68, 81
1, 75082, Control_c, 5, 1, 18
1, 75118, Control_c, 5, 1, 21
1, 75122, Note_off_c, 9, 42, 85
1, 75150, Control_c, 5, 1, 23
1, 75190, Note_off_c, 2, 65, 94
1, 75190, Control_c, 5, 1, 28
1, 75194, Note_off_c, 2, 68, 81
1, 75222, Note_off_c, 1, 56, 123
1, 75234, Note_off_c, 2, 61, 92
1, 75250, Note_off_c, 7, 32, 84
1, 75266, Note_on_c, 9, 36, 114
1, 75268, Note_on_c, 9, 42, 107
1, 75268, Note_on_c, 7, 37, 95
1, 75270, Note_on_c, 1, 61, 109
1, 75270, Note_on_c, 1, 65, 120
1, 75272, Control_c, 5, 1, 33
1, 75334, Note_off_c, 9, 42, 107
1, 75358, Note_off_c, 6, 77, 107
1, 75362, Note_off_c, 5, 77, 107
1, 75364, Note_off_c, 6, 73, 102
1, 75368, Note_off_c, 9, 36, 114
1, 75388, Control_c, 5, 1, 23
1, 75420, Control_c, 5, 1, 0
1, 75446, Note_on_c, 5, 77, 102
1, 75458, Note_on_c, 2, 61, 92
1, 75458, Note_on_c, 2, 65, 94
1, 75458, Note_on_c, 9, 42, 81
1, 75460, Note_on_c, 2, 68, 79
1, 75470, Note_on_c, 6, 73, 89
1, 75470, Note_on_c, 6, 77, 98
1, 75506, Note_off_c, 9, 42, 81
1, 75522, Note_off_c, 2, 65, 94
1, 75522, Note_off_c, 2, 61, 92
1, 75532, Note_off_c, 2, 68, 79
1, 75572, Note_off_c, 6, 73, 89
1, 75594, Note_off_c, 6, 77, 98
1, 75604, Note_off_c, 5, 77, 102
1, 75644, Note_on_c, 5, 77, 105
1, 75650, Note_on_c, 9, 38, 109
1, 75650, Note_on_c, 9, 42, 105
1, 75658, Note_on_c, 6, 73, 91
1, 75662, Note_on_c, 6, 77, 98
1, 75710, Note_off_c, 9, 42, 105
1, 75716, Note_off_c, 9, 38, 109
1, 75716, Note_off_c, 7, 37, 95
1, 75786, Note_off_c, 6, 73, 91
1, 75806, Note_off_c, 6, 77, 98
1, 75826, Note_off_c, 5, 77, 105
1, 75838, Note_on_c, 6, 79, 91
1, 75842, Note_on_c, 9, 36, 102
1, 75842, Note_on_c, 9, 42, 94
1, 75844, Note_on_c, 7, 37, 93
1, 75844, Note_on_c, 5, 79, 110
1, 75844, Note_on_c, 6, 75, 95
1, 75846, Note_on_c, 2, 61, 92
1, 75846, Note_on_c, 2, 65, 96
1, 75846, Note_on_c, 2, 68, 87
1, 75900, Note_off_c, 9, 42, 94
1, 75914, Note_off_c, 2, 68, 87
1, 75914, Note_off_c, 2, 65, 96
1, 75918, Note_off_c, 9, 36, 102
1, 75922, Note_off_c, 7, 37, 93
1, 75924, Note_off_c, 2, 61, 92
1, 75976, Note_off_c, 6, 75, 95
1, 75988, Note_off_c, 6, 79, 91
1, 75994, Note_off_c, 5, 79, 110
1, 76026, Note_on_c, 6, 77, 102
1, 76030, Note_on_c, 5, 80, 102
1, 76030, Note_on_c, 6, 80, 89
1, 76034, Note_on_c, 9, 36, 109
1, 76034, Note_on_c, 9, 42, 117
1, 76036, Note_on_c, 7, 37, 93
1, 76102, Note_off_c, 9, 42, 117
1, 76132, Note_off_c, 9, 36, 109
1, 76226, Note_on_c, 2, 61, 90
1, 76226, Note_on_c, 9, 42, 81
1, 76228, Note_on_c, 2, 65, 79
1, 76228, Note_on_c, 2, 68, 73
1, 76268, Note_off_c, 9, 42, 81
1, 76274, Note_off_c, 2, 65, 79
1, 76280, Note_off_c, 2, 68, 73
1, 76290, Note_off_c, 2, 61, 90
1, 76418, Note_on_c, 2, 61, 87
1, 76418, Note_on_c, 2, 65, 92
1, 76418, Note_on_c, 9, 38, 114
1, 76418, Note_on_c, 9, 42, 117
1, 76420, Note_on_c, 2, 68, 92
1, 76474, Note_off_c, 9, 42, 117
1, 76478, Note_off_c, 2, 65, 92
1, 76478, Note_off_c, 7, 37, 93
1, 76484, Note_off_c, 2, 61, 87
1, 76488, Note_off_c, 2, 68, 92
1, 76506, Note_off_c, 9, 38, 114
1, 76550, Note_off_c, 1, 65, 120
1, 76570, Note_off_c, 6, 77, 102
1, 76582, Note_off_c, 6, 80, 89
1, 76586, Note_off_c, 1, 61, 109
1, 76594, Note_off_c, 5, 80, 102
1, 76596, Note_on_c, 6, 79, 93
1, 76600, Note_on_c, 6, 75, 91
1, 76606, Note_on_c, 5, 79, 100
1, 76610, Note_on_c, 9, 42, 77
1, 76610, Note_on_c, 7, 37, 97
1, 76612, Note_on_c, 2, 61, 92
1, 76612, Note_on_c, 2, 65, 98
1, 76612, Note_on_c, 2, 68, 81
1, 76654, Note_off_c, 9, 42, 77
1, 76690, Note_off_c, 2, 65, 98
1, 76690, Note_off_c, 2, 61, 92
1, 76698, Note_off_c, 2, 68, 81
1, 76716, Note_off_c, 0, 77, 75
1, 76756, Note_off_c, 6, 75, 91
1, 76770, Note_off_c, 6, 79, 93
1, 76780, Note_off_c, 5, 79, 100
1, 76780, Note_off_c, 0, 85, 79
1, 76790, Note_off_c, 7, 37, 97
1, 76802, Note_on_c, 9, 42, 107
1, 76804, Note_on_c, 9, 36, 114
1, 76804, Note_on_c, 7, 32, 97
1, 76804, Note_on_c, 5, 77, 87
1, 76806, Note_on_c, 0, 75, 65
1, 76806, Note_on_c, 0, 84, 73
1, 76806, Note_on_c, 1, 56, 123
1, 76810, Note_on_c, 6, 77, 95
1, 76814, Note_on_c, 6, 73, 93
1, 76860, Note_off_c, 9, 42, 107
1, 76892, Note_off_c, 9, 36, 114
1, 76994, Note_on_c, 2, 63, 85
1, 76994, Note_on_c, 2, 68, 81
1, 76994, Note_on_c, 9, 42, 81
1, 76998, Note_off_c, 6, 73, 93
1, 77004, Note_off_c, 6, 77, 95
1, 77042, Note_off_c, 9, 42, 81
1, 77050, Note_off_c, 5, 77, 87
1, 77066, Note_off_c, 2, 68, 81
1, 77066, Note_off_c, 2, 63, 85
1, 77066, Note_on_c, 6, 72, 68
1, 77070, Note_on_c, 6, 75, 68
1, 77082, Note_on_c, 5, 75, 87
1, 77186, Note_on_c, 2, 63, 92
1, 77186, Note_on_c, 9, 38, 100
1, 77186, Note_on_c, 9, 42, 102
1, 77188, Note_on_c, 2, 60, 85
1, 77188, Note_on_c, 2, 68, 92
1, 77220, Note_off_c, 7, 32, 97
1, 77246, Note_off_c, 9, 42, 102
1, 77250, Note_off_c, 2, 60, 85
1, 77250, Note_off_c, 9, 38, 100
1, 77260, Note_off_c, 2, 63, 92
1, 77268, Note_off_c, 2, 68, 92
1, 77378, Note_on_c, 9, 36, 94
1, 77378, Note_on_c, 9, 42, 96
1, 77378, Note_on_c, 7, 32, 93
1, 77380, Note_on_c, 2, 60, 96
1, 77380, Note_on_c, 2, 63, 87
1, 77380, Note_on_c, 2, 68, 87
1, 77430, Note_off_c, 9, 42, 96
1, 77442, Note_off_c, 9, 36, 94
1, 77450, Note_off_c, 7, 32, 93
1, 77494, Note_off_c, 2, 63, 87
1, 77498, Note_off_c, 2, 60, 96
1, 77506, Note_off_c, 2, 68, 87
1, 77570, Note_on_c, 9, 36, 117
1, 77570, Note_on_c, 9, 42, 112
1, 77572, Note_on_c, 7, 32, 99
1, 77636, Note_off_c, 9, 42, 112
1, 77660, Control_c, 5, 1, 2
1, 77698, Control_c, 5, 1, 8
1, 77700, Note_off_c, 9, 36, 117
1, 77762, Note_on_c, 2, 60, 87
1, 77762, Note_on_c, 2, 63, 75
1, 77762, Note_on_c, 9, 42, 77
1, 77764, Note_on_c, 2, 68, 81
1, 77778, Control_c, 5, 1, 14
1, 77814, Control_c, 5, 1, 21
1, 77818, Note_off_c, 9, 42, 77
1, 77834, Note_off_c, 2, 63, 75
1, 77834, Note_off_c, 2, 60, 87
1, 77838, Note_off_c, 2, 68, 81
1, 77844, Control_c, 5, 1, 26
1, 77898, Note_off_c, 1, 56, 123
1, 77922, Control_c, 5, 1, 33
1, 77954, Note_on_c, 9, 38, 117
1, 77954, Note_on_c, 9, 42, 114
1, 77990, Note_off_c, 7, 32, 99
1, 78010, Control_c, 5, 1, 36
1, 78018, Note_off_c, 9, 42, 114
1, 78050, Note_off_c, 0, 68, 73
1, 78058, Note_off_c, 9, 38, 117
1, 78146, Note_on_c, 9, 42, 77
1, 78146, Note_on_c, 7, 27, 104
1, 78148, Note_on_c, 1, 63, 123
1, 78148, Note_on_c, 2, 60, 73
1, 78148, Note_on_c, 2, 63, 73
1, 78148, Note_on_c, 2, 68, 77
1, 78194, Note_off_c, 9, 42, 77
1, 78206, Note_off_c, 2, 60, 73
1, 78220, Note_off_c, 2, 68, 77
1, 78220, Note_off_c, 2, 63, 73
1, 78222, Control_c, 5, 1, 26
1, 78230, Note_off_c, 5, 75, 87
1, 78238, Note_off_c, 6, 72, 68
1, 78252, Note_off_c, 6, 75, 68
1, 78254, Control_c, 5, 1, 12
1, 78290, Control_c, 5, 1, 0
1, 78318, Note_off_c, 7, 27, 104
1, 78338, Note_on_c, 9, 36, 112
1, 78338, Note_on_c, 9, 42, 109
1, 78340, Note_on_c, 0, 72, 83
1, 78340, Note_on_c, 0, 80, 60
1, 78340, Note_on_c, 7, 32, 97
1, 78342, Note_on_c, 0, 87, 71
1, 78342, Note_on_c, 1, 56, 107
1, 78344, Note_off_c, 1, 63, 123
1, 78360, Note_off_c, 0, 75, 65
1, 78370, Note_off_c, 0, 84, 73
1, 78414, Note_off_c, 9, 42, 109
1, 78450, Note_off_c, 9, 36, 112
1, 78522, Note_on_c, 6, 72, 110
1, 78522, Note_on_c, 6, 80, 102
1, 78530, Note_on_c, 2, 60, 90
1, 78530, Note_on_c, 2, 63, 81
1, 78530, Note_on_c, 9, 42, 67
1, 78532, Note_on_c, 2, 68, 81
1, 78538, Note_on_c, 5, 80, 107
1, 78588, Note_off_c, 9, 42, 67
1, 78642, Note_off_c, 6, 72, 110
1, 78644, Note_off_c, 6, 80, 102
1, 78650, Note_off_c, 5, 80, 107
1, 78718, Note_on_c, 6, 72, 105
1, 78722, Note_on_c, 9, 38, 114
1, 78722, Note_on_c, 9, 42, 105
1, 78722, Note_on_c, 5, 80, 102
1, 78724, Note_on_c, 6, 80, 107
1, 78746, Note_off_c, 2, 60, 90
1, 78750, Note_off_c, 2, 63, 81
1, 78754, Note_off_c, 2, 68, 81
1, 78762, Note_off_c, 7, 32, 97
1, 78794, Note_off_c, 9, 42, 105
1, 78806, Note_off_c, 6, 72, 105
1, 78822, Note_off_c, 6, 80, 107
1, 78822, Note_off_c, 9, 38, 114
1, 78844, Note_off_c, 5, 80, 102
1, 78910, Note_on_c, 6, 72, 105
1, 78910, Note_on_c, 6, 80, 110
1, 78914, Note_on_c, 9, 36, 96
1, 78914, Note_on_c, 9, 42, 81
1, 78914, Note_on_c, 5, 80, 102
1, 78916, Note_on_c, 2, 60, 92
1, 78916, Note_on_c, 2, 63, 81
1, 78916, Note_on_c, 2, 68, 85
1, 78916, Note_on_c, 7, 32, 86
1, 78974, Note_off_c, 9, 42, 81
1, 78982, Note_off_c, 2, 60, 92
1, 78984, Note_off_c, 7, 32, 86
1, 78986, Note_off_c, 2, 68, 85
1, 78986, Note_off_c, 2, 63, 81
1, 78996, Note_off_c, 9, 36, 96
1, 79106, Note_on_c, 9, 36, 112
1, 79106, Note_on_c, 9, 42, 102
1, 79108, Note_on_c, 7, 32, 93
1, 79170, Note_off_c, 6, 72, 105
1, 79172, Note_off_c, 9, 42, 102
1, 79182, Note_off_c, 6, 80, 110
1, 79204, Note_off_c, 9, 36, 112
1, 79250, Note_off_c, 5, 80, 102
1, 79286, Note_on_c, 5, 79, 107
1, 79290, Note_on_c, 6, 70, 107
1, 79294, Note_on_c, 6, 79, 105
1, 79298, Note_on_c, 2, 60, 94
1, 79298, Note_on_c, 2, 63, 81
1, 79298, Note_on_c, 9, 42, 81
1, 79300, Note_on_c, 2, 68, 87
1, 79356, Note_off_c, 9, 42, 81
1, 79364, Note_off_c, 2, 63, 81
1, 79366, Note_off_c, 2, 60, 94
1, 79374, Note_off_c, 2, 68, 87
1, 79386, Note_off_c, 6, 70, 107
1, 79402, Note_off_c, 5, 79, 107
1, 79422, Note_off_c, 6, 79, 105
1, 79486, Note_on_c, 6, 79, 105
1, 79490, Note_on_c, 9, 38, 120
1, 79490, Note_on_c, 9, 42, 109
1, 79492, Note_on_c, 2, 60, 85
1, 79492, Note_on_c, 2, 68, 85
1, 79492, Note_on_c, 5, 79, 110
1, 79492, Note_on_c, 6, 70, 107
1, 79494, Note_on_c, 2, 63, 73
1, 79540, Note_off_c, 9, 42, 109
1, 79548, Note_off_c, 9, 38, 120
1, 79554, Note_off_c, 2, 63, 73
1, 79556, Note_off_c, 2, 60, 85
1, 79566, Note_off_c, 2, 68, 85
1, 79576, Note_off_c, 6, 70, 107
1, 79580, Note_off_c, 0, 80, 60
1, 79592, Note_off_c, 0, 72, 83
1, 79602, Note_off_c, 7, 32, 93
1, 79608, Note_off_c, 6, 79, 105
1, 79626, Note_off_c, 5, 79, 110
1, 79678, Note_on_c, 6, 73, 95
1, 79682, Note_on_c, 9, 46, 94
1, 79682, Note_on_c, 6, 82, 100
1, 79684, Note_on_c, 2, 60, 87
1, 79684, Note_on_c, 2, 63, 81
1, 79684, Note_on_c, 2, 68, 83
1, 79684, Note_on_c, 7, 32, 95
1, 79686, Note_on_c, 5, 82, 102
1, 79720, Note_off_c, 9, 46, 94
1, 79752, Note_off_c, 2, 60, 87
1, 79756, Note_off_c, 2, 63, 81
1, 79762, Note_off_c, 2, 68, 83
1, 79764, Note_off_c, 1, 56, 107
1, 79786, Note_off_c, 0, 87, 71
1, 79828, Note_off_c, 7, 32, 95
1, 79874, Note_on_c, 9, 36, 109
1, 79874, Note_on_c, 9, 42, 98
1, 79876, Note_on_c, 0, 58, 75
1, 79876, Note_on_c, 0, 67, 71
1, 79876, Note_on_c, 7, 27, 113
1, 79878, Note_on_c, 0, 75, 73
1, 79878, Note_on_c, 1, 51, 107
1, 79878, Note_on_c, 1, 63, 109
1, 79878, Note_on_c, 2, 70, 105
1, 79926, Note_off_c, 5, 82, 102
1, 79934, Note_off_c, 6, 73, 95
1, 79938, Note_off_c, 6, 82, 100
1, 79950, Note_off_c, 9, 42, 98
1, 79998, Note_off_c, 9, 36, 109
1, 80066, Note_on_c, 9, 42, 66
1, 80066, Note_on_c, 5, 80, 107
1, 80066, Note_on_c, 6, 72, 93
1, 80068, Note_on_c, 2, 58, 98
1, 80070, Note_on_c, 6, 80, 93
1, 80124, Note_off_c, 9, 42, 66
1, 80164, Note_off_c, 6, 72, 93
1, 80174, Note_off_c, 2, 70, 105
1, 80194, Note_off_c, 6, 80, 93
1, 80226, Note_off_c, 5, 80, 107
1, 80250, Note_on_c, 5, 79, 102
1, 80258, Note_on_c, 2, 63, 105
1, 80258, Note_on_c, 9, 38, 114
1, 80258, Note_on_c, 9, 42, 100
1, 80266, Note_on_c, 6, 79, 102
1, 80268, Note_on_c, 6, 70, 89
1, 80276, Note_off_c, 2, 58, 98
1, 80278, Note_off_c, 7, 27, 113
1, 80330, Note_off_c, 9, 42, 100
1, 80354, Note_off_c, 9, 38, 114
1, 80362, Note_off_c, 6, 79, 102
1, 80366, Note_off_c, 6, 70, 89
1, 80450, Note_on_c, 9, 36, 94
1, 80450, Note_on_c, 9, 42, 73
1, 80452, Note_off_c, 5, 79, 102
1, 80452, Note_on_c, 2, 67, 94
1, 80452, Note_on_c, 7, 27, 97
1, 80454, Note_on_c, 6, 68, 102
1, 80456, Note_on_c, 5, 77, 107
1, 80458, Note_on_c, 6, 77, 100
1, 80518, Note_off_c, 9, 42, 73
1, 80530, Note_off_c, 7, 27, 97
1, 80538, Note_off_c, 9, 36, 94
1, 80642, Note_on_c, 9, 36, 114
1, 80642, Note_on_c, 9, 42, 105
1, 80644, Note_on_c, 7, 27, 111
1, 80682, Note_off_c, 1, 51, 107
1, 80686, Note_off_c, 1, 63, 109
1, 80712, Note_off_c, 9, 42, 105
1, 80744, Note_off_c, 6, 77, 100
1, 80754, Note_off_c, 5, 77, 107
1, 80754, Note_off_c, 6, 68, 102
1, 80770, Note_off_c, 9, 36, 114
1, 80818, Note_on_c, 6, 67, 98
1, 80820, Note_off_c, 2, 63, 105
1, 80822, Note_on_c, 6, 75, 91
1, 80830, Note_on_c, 5, 75, 102
1, 80834, Note_on_c, 2, 58, 100
1, 80834, Note_on_c, 9, 42, 77
1, 80836, Note_on_c, 1, 51, 120
1, 80836, Note_on_c, 1, 63, 117
1, 80886, Note_off_c, 9, 42, 77
1, 80894, Note_off_c, 2, 67, 94
1, 80898, Note_off_c, 6, 67, 98
1, 80914, Note_off_c, 6, 75, 91
1, 80962, Note_off_c, 5, 75, 102
1, 80978, Note_off_c, 1, 51, 120
1, 80980, Note_off_c, 1, 63, 117
1, 81018, Note_on_c, 6, 75, 91
1, 81022, Note_on_c, 6, 67, 100
1, 81026, Note_on_c, 9, 38, 117
1, 81026, Note_on_c, 9, 42, 105
1, 81028, Note_on_c, 2, 63, 118
1, 81028, Note_on_c, 5, 75, 93
1, 81090, Note_off_c, 9, 42, 105
1, 81098, Note_off_c, 6, 67, 100
1, 81114, Note_off_c, 6, 75, 91
1, 81142, Note_off_c, 5, 75, 93
1, 81156, Note_off_c, 9, 38, 117
1, 81162, Note_off_c, 7, 27, 111
1, 81218, Note_on_c, 9, 42, 79
1, 81218, Note_on_c, 5, 75, 89
1, 81220, Note_on_c, 1, 51, 109
1, 81220, Note_on_c, 1, 63, 107
1, 81220, Note_on_c, 2, 67, 98
1, 81220, Note_on_c, 7, 34, 111
1, 81222, Note_on_c, 6, 75, 100
1, 81224, Note_on_c, 6, 67, 100
1, 81282, Note_off_c, 1, 51, 109
1, 81282, Note_off_c, 9, 42, 79
1, 81294, Note_off_c, 1, 63, 107
1, 81394, Note_off_c, 7, 34, 111
1, 81410, Note_on_c, 9, 36, 117
1, 81410, Note_on_c, 9, 42, 102
1, 81412, Note_on_c, 1, 51, 112
1, 81412, Note_on_c, 2, 70, 100
1, 81412, Note_on_c, 7, 39, 95
1, 81414, Note_off_c, 2, 58, 100
1, 81414, Note_on_c, 1, 63, 109
1, 81442, Note_off_c, 2, 67, 98
1, 81480, Note_off_c, 9, 42, 102
1, 81518, Note_off_c, 6, 67, 100
1, 81518, Note_off_c, 2, 63, 118
1, 81542, Note_off_c, 9, 36, 117
1, 81588, Note_off_c, 5, 75, 89
1, 81602, Note_off_c, 6, 75, 100
1, 81602, Note_on_c, 9, 42, 81
1, 81602, Note_on_c, 6, 67, 102
1, 81604, Note_on_c, 2, 58, 112
1, 81606, Note_on_c, 5, 70, 107
1, 81606, Note_on_c, 6, 70, 100
1, 81656, Note_off_c, 9, 42, 81
1, 81674, Note_off_c, 2, 70, 100
1, 81684, Note_off_c, 6, 67, 102
1, 81726, Note_off_c, 6, 70, 100
1, 81752, Note_off_c, 5, 70, 107
1, 81794, Note_on_c, 9, 38, 117
1, 81794, Note_on_c, 9, 42, 105
1, 81794, Note_on_c, 5, 70, 91
1, 81796, Note_on_c, 2, 63, 118
1, 81796, Note_on_c, 7, 34, 99
1, 81798, Note_off_c, 7, 39, 95
1, 81806, Note_on_c, 6, 67, 107
1, 81806, Note_on_c, 6, 70, 107
1, 81828, Note_off_c, 2, 58, 112
1, 81846, Note_off_c, 9, 42, 105
1, 81864, Note_off_c, 9, 38, 117
1, 81874, Note_off_c, 1, 51, 112
1, 81890, Note_off_c, 6, 67, 107
1, 81954, Note_off_c, 6, 70, 107
1, 81974, Note_on_c, 5, 72, 100
1, 81978, Note_off_c, 2, 63, 118
1, 81986, Note_on_c, 9, 46, 96
1, 81986, Note_on_c, 6, 67, 105
1, 81988, Note_on_c, 2, 67, 81
1, 81988, Note_on_c, 7, 36, 108
1, 81990, Note_on_c, 6, 72, 100
1, 81994, Note_off_c, 5, 70, 91
1, 81996, Note_off_c, 7, 34, 99
1, 82030, Note_off_c, 9, 46, 96
1, 82068, Note_off_c, 6, 67, 105
1, 82076, Note_off_c, 6, 72, 100
1, 82082, Note_off_c, 2, 67, 81
1, 82108, Note_off_c, 5, 72, 100
1, 82114, Note_off_c, 0, 67, 71
1, 82134, Note_off_c, 0, 75, 73
1, 82138, Note_off_c, 1, 63, 109
1, 82146, Note_off_c, 0, 58, 75
1, 82162, Note_off_c, 7, 36, 108
1, 82178, Note_on_c, 9, 36, 112
1, 82178, Note_on_c, 9, 42, 107
1, 82180, Note_on_c, 0, 65, 89
1, 82180, Note_on_c, 0, 73, 89
1, 82180, Note_on_c, 7, 37, 99
1, 82182, Note_on_c, 1, 61, 112
1, 82182, Note_on_c, 2, 65, 110
1, 82182, Note_on_c, 2, 73, 112
1, 82182, Note_on_c, 9, 49, 87
1, 82184, Note_on_c, 6, 65, 105
1, 82188, Note_on_c, 6, 73, 100
1, 82198, Note_on_c, 5, 73, 89
1, 82238, Note_off_c, 9, 49, 87
1, 82258, Note_off_c, 9, 42, 107
1, 82282, Note_off_c, 9, 36, 112
1, 82690, Control_c, 5, 1, 3
1, 82728, Control_c, 5, 1, 7
1, 82758, Control_c, 5, 1, 12
1, 82798, Control_c, 5, 1, 17
1, 82844, Control_c, 5, 1, 22
1, 82882, Control_c, 5, 1, 26
1, 82890, Note_off_c, 2, 65, 110
1, 82914, Control_c, 5, 1, 28
1, 82924, Note_off_c, 2, 73, 112
1, 82946, Note_on_c, 1, 65, 114
1, 82970, Control_c, 5, 1, 31
1, 83138, Note_on_c, 9, 42, 98
1, 83176, Note_off_c, 9, 42, 98
1, 83234, Note_on_c, 9, 42, 87
1, 83268, Note_off_c, 9, 42, 87
1, 83320, Note_off_c, 6, 65, 105
1, 83330, Note_on_c, 9, 46, 105
1, 83342, Control_c, 5, 1, 29
1, 83370, Note_off_c, 9, 46, 105
1, 83374, Control_c, 5, 1, 24
1, 83406, Note_off_c, 6, 73, 100
1, 83428, Control_c, 5, 1, 17
1, 83436, Note_off_c, 0, 65, 89
1, 83442, Note_off_c, 0, 73, 89
1, 83462, Note_off_c, 7, 37, 99
1, 83464, Control_c, 5, 1, 0
1, 83506, Note_off_c, 5, 73, 89
1, 83518, Note_on_c, 5, 72, 107
1, 83522, Note_on_c, 0, 63, 87
1, 83522, Note_on_c, 0, 72, 92
1, 83522, Note_on_c, 6, 72, 89
1, 83526, Note_on_c, 6, 63, 95
1, 83650, Note_off_c, 6, 63, 95
1, 83652, Note_off_c, 6, 72, 89
1, 83654, Note_off_c, 0, 63, 87
1, 83658, Note_off_c, 1, 65, 114
1, 83662, Note_off_c, 1, 61, 112
1, 83670, Note_off_c, 0, 72, 92
1, 83714, Note_off_c, 5, 72, 107
1, 83716, Note_on_c, 0, 70, 98
1, 83716, Note_on_c, 9, 36, 117
1, 83716, Note_on_c, 9, 42, 112
1, 83716, Note_on_c, 7, 32, 104
1, 83718, Note_on_c, 0, 61, 100
1, 83718, Note_on_c, 9, 49, 87
1, 83718, Note_on_c, 5, 70, 93
1, 83724, Note_on_c, 6, 61, 91
1, 83730, Note_on_c, 6, 70, 89
1, 83778, Note_off_c, 9, 49, 87
1, 83780, Note_off_c, 9, 42, 112
1, 83858, Note_off_c, 9, 36, 117
1, 83878, Note_off_c, 6, 70, 89
1, 83890, Note_off_c, 6, 61, 91
1, 83890, Note_off_c, 0, 61, 100
1, 83906, Note_on_c, 2, 63, 112
1, 83906, Note_on_c, 9, 42, 63
1, 83908, Note_on_c, 10, 56, 96
1, 83958, Note_off_c, 5, 70, 93
1, 83962, Note_off_c, 9, 42, 63
1, 83966, Note_off_c, 0, 70, 98
1, 83980, Note_on_c, 5, 68, 85
1, 83982, Note_on_c, 6, 60, 85
1, 83986, Note_on_c, 6, 68, 78
1, 84002, Note_on_c, 0, 60, 85
1, 84002, Note_on_c, 0, 68, 68
1, 84066, Note_off_c, 0, 60, 85
1, 84072, Note_off_c, 0, 68, 68
1, 84092, Note_off_c, 7, 32, 104
1, 84098, Note_on_c, 3, 84, 98
1, 84098, Note_on_c, 9, 38, 112
1, 84098, Note_on_c, 9, 42, 100
1, 84100, Note_on_c, 0, 56, 77
1, 84100, Note_on_c, 0, 63, 98
1, 84100, Note_on_c, 0, 72, 96
1, 84100, Note_on_c, 3, 75, 107
1, 84102, Note_on_c, 2, 68, 94
1, 84102, Note_on_c, 10, 60, 105
1, 84104, Note_off_c, 10, 56, 96
1, 84154, Note_off_c, 9, 42, 100
1, 84164, Note_off_c, 3, 84, 98
1, 84194, Note_off_c, 3, 75, 107
1, 84194, Note_off_c, 9, 38, 112
1, 84194, Note_on_c, 3, 77, 92
1, 84194, Note_on_c, 3, 85, 73
1, 84196, Note_on_c, 0, 73, 79
1, 84200, Note_off_c, 0, 72, 96
1, 84266, Note_off_c, 0, 73, 79
1, 84266, Note_off_c, 3, 85, 73
1, 84286, Note_off_c, 3, 77, 92
1, 84290, Note_on_c, 3, 75, 90
1, 84290, Note_on_c, 3, 84, 87
1, 84290, Note_on_c, 9, 36, 85
1, 84290, Note_on_c, 9, 42, 85
1, 84292, Note_on_c, 0, 72, 77
1, 84292, Note_on_c, 2, 72, 98
1, 84292, Note_on_c, 7, 32, 76
1, 84294, Note_on_c, 10, 63, 90
1, 84308, Note_off_c, 10, 60, 105
1, 84342, Note_off_c, 7, 32, 76
1, 84342, Note_off_c, 9, 42, 85
1, 84358, Note_off_c, 9, 36, 85
1, 84362, Note_off_c, 3, 84, 87
1, 84370, Note_off_c, 3, 75, 90
1, 84386, Note_on_c, 0, 73, 71
1, 84386, Note_on_c, 3, 77, 79
1, 84386, Note_on_c, 3, 85, 83
1, 84388, Note_off_c, 0, 72, 77
1, 84456, Note_off_c, 3, 85, 83
1, 84460, Note_off_c, 0, 73, 71
1, 84482, Note_on_c, 9, 36, 102
1, 84482, Note_on_c, 9, 42, 105
1, 84484, Note_on_c, 3, 75, 90
1, 84484, Note_on_c, 3, 84, 90
1, 84484, Note_on_c, 7, 32, 104
1, 84486, Note_off_c, 3, 77, 79
1, 84486, Note_on_c, 0, 72, 79
1, 84486, Note_on_c, 2, 60, 75
1, 84500, Note_off_c, 2, 63, 112
1, 84546, Note_off_c, 9, 42, 105
1, 84550, Note_off_c, 3, 84, 90
1, 84572, Note_off_c, 3, 75, 90
1, 84578, Note_on_c, 0, 73, 75
1, 84578, Note_on_c, 3, 77, 90
1, 84578, Note_on_c, 3, 85, 87
1, 84586, Note_off_c, 0, 72, 79
1, 84594, Note_off_c, 9, 36, 102
1, 84610, Note_off_c, 2, 68, 94
1, 84618, Note_off_c, 2, 72, 98
1, 84650, Note_off_c, 3, 85, 87
1, 84662, Note_off_c, 0, 73, 75
1, 84674, Note_on_c, 3, 84, 87
1, 84674, Note_on_c, 9, 42, 65
1, 84676, Note_on_c, 0, 72, 81
1, 84676, Note_on_c, 2, 63, 90
1, 84676, Note_on_c, 3, 75, 81
1, 84680, Note_off_c, 3, 77, 90
1, 84730, Note_off_c, 9, 42, 65
1, 84742, Note_off_c, 3, 84, 87
1, 84766, Note_off_c, 3, 75, 81
1, 84770, Note_on_c, 0, 73, 81
1, 84770, Note_on_c, 3, 77, 87
1, 84770, Note_on_c, 3, 85, 90
1, 84772, Note_off_c, 0, 72, 81
1, 84846, Note_off_c, 3, 85, 90
1, 84846, Note_off_c, 0, 73, 81
1, 84866, Note_on_c, 3, 75, 81
1, 84866, Note_on_c, 3, 84, 98
1, 84866, Note_on_c, 9, 38, 114
1, 84866, Note_on_c, 9, 42, 100
1, 84868, Note_on_c, 0, 72, 79
1, 84868, Note_on_c, 2, 68, 96
1, 84868, Note_on_c, 2, 72, 96
1, 84870, Note_off_c, 3, 77, 87
1, 84870, Note_off_c, 2, 60, 75
1, 84870, Control_c, 5, 1, 6
1, 84898, Note_off_c, 7, 32, 104
1, 84908, Note_off_c, 2, 63, 90
1, 84930, Note_off_c, 9, 42, 100
1, 84936, Note_off_c, 10, 63, 90
1, 84940, Note_off_c, 3, 84, 98
1, 84946, Control_c, 5, 1, 8
1, 84958, Note_off_c, 3, 75, 81
1, 84962, Note_on_c, 0, 73, 77
1, 84962, Note_on_c, 3, 77, 90
1, 84962, Note_on_c, 3, 85, 96
1, 84964, Note_off_c, 0, 72, 79
1, 84986, Control_c, 5, 1, 14
1, 84996, Note_off_c, 9, 38, 114
1, 85022, Control_c, 5, 1, 17
1, 85030, Note_off_c, 3, 85, 96
1, 85044, Note_off_c, 0, 73, 77
1, 85058, Note_off_c, 3, 77, 90
1, 85058, Note_on_c, 3, 84, 94
1, 85058, Note_on_c, 9, 42, 77
1, 85060, Note_on_c, 0, 72, 81
1, 85060, Note_on_c, 3, 75, 90
1, 85060, Note_on_c, 7, 27, 86
1, 85062, Note_on_c, 2, 63, 65
1, 85070, Control_c, 5, 1, 21
1, 85078, Note_off_c, 2, 72, 96
1, 85096, Note_off_c, 2, 68, 96
1, 85108, Note_off_c, 9, 42, 77
1, 85130, Note_off_c, 3, 84, 94
1, 85134, Note_off_c, 6, 68, 78
1, 85138, Note_off_c, 6, 60, 85
1, 85146, Note_off_c, 3, 75, 90
1, 85154, Note_on_c, 0, 73, 81
1, 85154, Note_on_c, 3, 77, 85
1, 85154, Note_on_c, 3, 85, 83
1, 85166, Note_off_c, 0, 72, 81
1, 85174, Control_c, 5, 1, 23
1, 85206, Control_c, 5, 1, 25
1, 85228, Note_off_c, 3, 85, 83
1, 85242, Note_off_c, 0, 73, 81
1, 85250, Note_off_c, 3, 77, 85
1, 85252, Note_on_c, 3, 75, 77
1, 85252, Note_on_c, 3, 84, 71
1, 85252, Note_on_c, 9, 36, 109
1, 85252, Note_on_c, 9, 42, 102
1, 85254, Note_on_c, 0, 72, 68
1, 85254, Note_on_c, 2, 68, 96
1, 85254, Note_on_c, 7, 32, 97
1, 85256, Note_on_c, 2, 72, 96
1, 85266, Note_off_c, 7, 27, 86
1, 85282, Note_off_c, 2, 63, 65
1, 85304, Note_off_c, 5, 68, 85
1, 85314, Note_off_c, 9, 42, 102
1, 85318, Control_c, 5, 1, 16
1, 85350, Control_c, 5, 1, 0
1, 85370, Note_off_c, 9, 36, 109
1, 85442, Note_on_c, 2, 60, 92
1, 85442, Note_on_c, 9, 42, 81
1, 85444, Note_on_c, 10, 56, 110
1, 85466, Note_off_c, 2, 72, 96
1, 85498, Note_off_c, 9, 42, 81
1, 85498, Note_off_c, 2, 68, 96
1, 85634, Note_on_c, 2, 63, 96
1, 85634, Note_on_c, 9, 38, 117
1, 85634, Note_on_c, 9, 42, 112
1, 85636, Note_on_c, 10, 60, 103
1, 85636, Note_on_c, 9, 48, 90
1, 85650, Note_off_c, 10, 56, 110
1, 85658, Note_off_c, 7, 32, 97
1, 85698, Note_off_c, 9, 42, 112
1, 85704, Note_off_c, 3, 84, 71
1, 85706, Note_off_c, 3, 75, 77
1, 85718, Note_off_c, 9, 48, 90
1, 85726, Note_off_c, 9, 38, 117
1, 85826, Note_on_c, 9, 36, 85
1, 85826, Note_on_c, 9, 42, 89
1, 85826, Note_on_c, 7, 32, 86
1, 85828, Note_on_c, 2, 68, 94
1, 85828, Note_on_c, 2, 72, 96
1, 85828, Note_on_c, 9, 48, 92
1, 85830, Note_on_c, 10, 63, 87
1, 85842, Note_off_c, 2, 60, 92
1, 85844, Note_off_c, 2, 63, 96
1, 85876, Note_off_c, 9, 42, 89
1, 85890, Note_off_c, 9, 48, 92
1, 85894, Note_off_c, 7, 32, 86
1, 85898, Note_off_c, 9, 36, 85
1, 85938, Note_off_c, 10, 60, 103
1, 86018, Note_on_c, 9, 36, 109
1, 86018, Note_on_c, 9, 42, 102
1, 86020, Note_on_c, 2, 60, 87
1, 86020, Note_on_c, 9, 45, 92
1, 86020, Note_on_c, 7, 32, 95
1, 86050, Note_off_c, 2, 72, 96
1, 86066, Note_off_c, 2, 68, 94
1, 86076, Note_off_c, 9, 45, 92
1, 86076, Note_off_c, 9, 42, 102
1, 86104, Note_off_c, 9, 36, 109
1, 86210, Note_on_c, 9, 38, 98
1, 86210, Note_on_c, 9, 42, 94
1, 86212, Note_on_c, 2, 63, 98
1, 86212, Note_on_c, 9, 45, 92
1, 86218, Note_off_c, 10, 63, 87
1, 86234, Note_off_c, 2, 60, 87
1, 86260, Note_off_c, 9, 42, 94
1, 86264, Note_off_c, 9, 45, 92
1, 86272, Note_off_c, 9, 38, 98
1, 86402, Note_on_c, 2, 68, 90
1, 86402, Note_on_c, 2, 72, 92
1, 86402, Note_on_c, 9, 38, 117
1, 86402, Note_on_c, 9, 42, 117
1, 86404, Note_on_c, 9, 41, 92
1, 86418, Note_off_c, 2, 63, 98
1, 86452, Note_off_c, 9, 41, 92
1, 86460, Note_off_c, 9, 42, 117
1, 86484, Note_off_c, 9, 38, 117
1, 86498, Note_on_c, 9, 41, 92
1, 86532, Note_off_c, 7, 32, 95
1, 86542, Note_off_c, 9, 41, 92
1, 86594, Note_off_c, 2, 72, 92
1, 86594, Note_on_c, 2, 63, 94
1, 86594, Note_on_c, 9, 46, 109
1, 86596, Note_on_c, 9, 41, 94
1, 86606, Note_off_c, 0, 56, 77
1, 86610, Note_off_c, 0, 63, 98
1, 86638, Note_off_c, 2, 68, 90
1, 86646, Note_off_c, 9, 41, 94
1, 86658, Note_off_c, 9, 46, 109
1, 86680, Note_off_c, 0, 72, 68
1, 86690, Note_off_c, 2, 63, 94
1, 86786, Note_on_c, 9, 36, 117
1, 86786, Note_on_c, 9, 42, 114
1, 86788, Note_on_c, 0, 60, 67
1, 86788, Note_on_c, 0, 68, 65
1, 86788, Note_on_c, 7, 32, 113
1, 86790, Note_on_c, 2, 72, 100
1, 86790, Note_on_c, 9, 49, 103
1, 86820, Note_off_c, 9, 49, 103
1, 86852, Note_off_c, 9, 42, 114
1, 86906, Note_off_c, 9, 36, 117
1, 86978, Note_on_c, 3, 80, 110
1, 86978, Note_on_c, 3, 84, 115
1, 86978, Note_on_c, 9, 42, 81
1, 86980, Note_on_c, 2, 63, 92
1, 86980, Note_on_c, 10, 68, 115
1, 86980, Note_on_c, 10, 72, 112
1, 87032, Note_off_c, 9, 42, 81
1, 87054, Note_off_c, 10, 72, 112
1, 87064, Note_off_c, 10, 68, 115
1, 87082, Note_off_c, 2, 72, 100
1, 87086, Note_off_c, 3, 84, 115
1, 87090, Note_off_c, 3, 80, 110
1, 87170, Note_on_c, 9, 38, 112
1, 87170, Note_on_c, 9, 42, 109
1, 87172, Note_on_c, 2, 68, 92
1, 87172, Note_on_c, 3, 80, 112
1, 87172, Note_on_c, 3, 84, 115
1, 87174, Note_on_c, 10, 68, 112
1, 87174, Note_on_c, 10, 72, 115
1, 87222, Note_off_c, 7, 32, 113
1, 87230, Note_off_c, 9, 42, 109
1, 87242, Note_off_c, 10, 72, 115
1, 87242, Note_off_c, 10, 68, 112
1, 87250, Note_off_c, 9, 38, 112
1, 87274, Note_off_c, 3, 84, 115
1, 87282, Note_off_c, 3, 80, 112
1, 87336, Note_off_c, 2, 63, 92
1, 87362, Note_on_c, 3, 80, 121
1, 87362, Note_on_c, 9, 36, 100
1, 87362, Note_on_c, 9, 42, 92
1, 87364, Note_on_c, 2, 72, 87
1, 87364, Note_on_c, 3, 84, 118
1, 87364, Note_on_c, 7, 32, 72
1, 87366, Note_on_c, 10, 68, 115
1, 87366, Note_on_c, 10, 72, 115
1, 87410, Note_off_c, 2, 68, 92
1, 87412, Note_off_c, 9, 42, 92
1, 87432, Note_off_c, 9, 36, 100
1, 87508, Note_off_c, 0, 60, 67
1, 87524, Note_off_c, 0, 68, 65
1, 87538, Note_off_c, 2, 72, 87
1, 87540, Note_off_c, 7, 32, 72
1, 87554, Note_on_c, 9, 36, 120
1, 87554, Note_on_c, 9, 42, 112
1, 87556, Note_on_c, 0, 63, 67
1, 87556, Note_on_c, 0, 67, 85
1, 87556, Note_on_c, 7, 39, 106
1, 87558, Note_on_c, 2, 70, 96
1, 87622, Note_off_c, 9, 42, 112
1, 87660, Note_off_c, 9, 36, 120
1, 87678, Note_off_c, 10, 72, 115
1, 87686, Note_off_c, 10, 68, 115
1, 87686, Note_off_c, 3, 84, 118
1, 87726, Note_off_c, 3, 80, 121
1, 87746, Note_on_c, 3, 79, 115
1, 87746, Note_on_c, 3, 82, 103
1, 87746, Note_on_c, 9, 42, 81
1, 87748, Note_on_c, 2, 63, 75
1, 87748, Note_on_c, 10, 67, 112
1, 87748, Note_on_c, 10, 70, 110
1, 87800, Note_off_c, 9, 42, 81
1, 87812, Note_off_c, 2, 70, 96
1, 87822, Note_off_c, 10, 67, 112
1, 87828, Note_off_c, 10, 70, 110
1, 87844, Note_off_c, 3, 79, 115
1, 87866, Note_off_c, 3, 82, 103
1, 87938, Note_on_c, 3, 82, 118
1, 87938, Note_on_c, 9, 38, 112
1, 87938, Note_on_c, 9, 42, 114
1, 87940, Note_on_c, 2, 67, 94
1, 87940, Note_on_c, 3, 79, 121
1, 87940, Note_on_c, 10, 67, 112
1, 87942, Note_on_c, 10, 70, 112
1, 87962, Note_off_c, 2, 63, 75
1, 88006, Note_off_c, 10, 70, 112
1, 88006, Note_off_c, 10, 67, 112
1, 88006, Note_off_c, 9, 42, 114
1, 88028, Note_off_c, 7, 39, 106
1, 88040, Note_off_c, 3, 79, 121
1, 88054, Note_off_c, 9, 38, 112
1, 88056, Note_off_c, 3, 82, 118
1, 88130, Note_on_c, 3, 82, 107
1, 88130, Note_on_c, 9, 42, 77
1, 88132, Note_on_c, 2, 70, 96
1, 88132, Note_on_c, 3, 79, 121
1, 88132, Note_on_c, 7, 39, 54
1, 88134, Note_on_c, 10, 67, 118
1, 88134, Note_on_c, 10, 70, 112
1, 88136, Note_off_c, 2, 67, 94
1, 88186, Note_off_c, 9, 42, 77
1, 88242, Note_off_c, 0, 63, 67
1, 88292, Note_off_c, 2, 70, 96
1, 88310, Note_off_c, 7, 39, 54
1, 88316, Note_off_c, 0, 67, 85
1, 88322, Note_on_c, 9, 36, 114
1, 88322, Note_on_c, 9, 42, 107
1, 88324, Note_on_c, 0, 61, 75
1, 88324, Note_on_c, 0, 65, 87
1, 88324, Note_on_c, 7, 37, 93
1, 88326, Note_on_c, 2, 68, 105
1, 88382, Note_off_c, 9, 42, 107
1, 88440, Note_off_c, 3, 79, 121
1, 88458, Note_off_c, 9, 36, 114
1, 88460, Note_off_c, 10, 67, 118
1, 88482, Note_off_c, 3, 82, 107
1, 88500, Note_off_c, 10, 70, 112
1, 88514, Note_on_c, 3, 77, 121
1, 88514, Note_on_c, 3, 80, 118
1, 88514, Note_on_c, 9, 42, 75
1, 88516, Note_on_c, 2, 61, 92
1, 88516, Note_on_c, 10, 65, 112
1, 88516, Note_on_c, 10, 68, 107
1, 88558, Note_off_c, 9, 42, 75
1, 88558, Note_off_c, 2, 68, 105
1, 88572, Note_off_c, 10, 68, 107
1, 88572, Note_off_c, 10, 65, 112
1, 88590, Note_off_c, 3, 77, 121
1, 88632, Note_off_c, 3, 80, 118
1, 88706, Note_on_c, 3, 77, 112
1, 88706, Note_on_c, 9, 38, 114
1, 88706, Note_on_c, 9, 42, 107
1, 88708, Note_on_c, 2, 65, 90
1, 88708, Note_on_c, 3, 80, 121
1, 88708, Note_on_c, 10, 68, 118
1, 88710, Note_on_c, 10, 65, 110
1, 88770, Note_off_c, 10, 65, 110
1, 88770, Note_off_c, 9, 42, 107
1, 88778, Note_off_c, 10, 68, 118
1, 88790, Note_off_c, 9, 38, 114
1, 88806, Note_off_c, 3, 77, 112
1, 88818, Note_off_c, 3, 80, 121
1, 88818, Note_off_c, 7, 37, 93
1, 88898, Note_on_c, 9, 36, 83
1, 88898, Note_on_c, 9, 42, 85
1, 88900, Note_on_c, 2, 68, 87
1, 88900, Note_on_c, 3, 77, 110
1, 88900, Note_on_c, 3, 80, 121
1, 88900, Note_on_c, 7, 37, 82
1, 88902, Note_on_c, 10, 65, 112
1, 88902, Note_on_c, 10, 68, 118
1, 88914, Note_off_c, 2, 61, 92
1, 88936, Note_off_c, 2, 65, 90
1, 88946, Note_off_c, 9, 42, 85
1, 88964, Note_off_c, 9, 36, 83
1, 89062, Note_off_c, 0, 65, 87
1, 89074, Note_off_c, 7, 37, 82
1, 89082, Note_off_c, 0, 61, 75
1, 89090, Note_on_c, 9, 36, 114
1, 89090, Note_on_c, 9, 42, 112
1, 89092, Note_on_c, 0, 63, 67
1, 89092, Note_on_c, 0, 67, 73
1, 89092, Note_on_c, 2, 70, 98
1, 89092, Note_on_c, 7, 39, 95
1, 89094, Note_off_c, 2, 68, 87
1, 89150, Note_off_c, 9, 42, 112
1, 89154, Note_off_c, 10, 68, 118
1, 89156, Note_off_c, 10, 65, 112
1, 89170, Note_off_c, 3, 80, 121
1, 89172, Note_off_c, 3, 77, 110
1, 89178, Note_off_c, 9, 36, 114
1, 89282, Note_on_c, 3, 75, 110
1, 89282, Note_on_c, 3, 79, 110
1, 89282, Note_on_c, 9, 42, 81
1, 89284, Note_on_c, 2, 63, 92
1, 89284, Note_on_c, 10, 63, 110
1, 89284, Note_on_c, 10, 67, 112
1, 89316, Note_off_c, 2, 70, 98
1, 89330, Note_off_c, 9, 42, 81
1, 89394, Note_off_c, 3, 79, 110
1, 89400, Note_off_c, 3, 75, 110
1, 89420, Note_off_c, 10, 67, 112
1, 89438, Note_off_c, 10, 63, 110
1, 89474, Note_on_c, 9, 38, 114
1, 89474, Note_on_c, 9, 42, 109
1, 89476, Note_on_c, 2, 67, 90
1, 89476, Note_on_c, 3, 73, 96
1, 89476, Note_on_c, 3, 77, 85
1, 89476, Note_on_c, 10, 61, 107
1, 89478, Note_on_c, 10, 64, 90
1, 89478, Note_on_c, 10, 65, 90
1, 89500, Note_off_c, 10, 64, 90
1, 89518, Note_off_c, 10, 65, 90
1, 89524, Note_off_c, 9, 42, 109
1, 89528, Note_off_c, 2, 63, 92
1, 89550, Note_off_c, 10, 61, 107
1, 89550, Note_off_c, 9, 38, 114
1, 89576, Note_off_c, 3, 73, 96
1, 89598, Note_off_c, 3, 77, 85
1, 89610, Note_off_c, 7, 39, 95
1, 89666, Note_on_c, 3, 73, 112
1, 89666, Note_on_c, 3, 77, 105
1, 89666, Note_on_c, 9, 46, 92
1, 89668, Note_on_c, 2, 70, 90
1, 89668, Note_on_c, 10, 61, 115
1, 89668, Note_on_c, 7, 39, 60
1, 89670, Note_on_c, 10, 65, 107
1, 89672, Note_off_c, 2, 67, 90
1, 89704, Note_off_c, 9, 46, 92
1, 89748, Note_off_c, 0, 67, 73
1, 89828, Note_off_c, 2, 70, 90
1, 89854, Note_off_c, 0, 63, 67
1, 89858, Note_off_c, 7, 39, 60
1, 89858, Note_on_c, 9, 42, 105
1, 89860, Note_on_c, 0, 60, 66
1, 89860, Note_on_c, 9, 36, 114
1, 89860, Note_on_c, 7, 32, 95
1, 89862, Note_on_c, 0, 68, 66
1, 89862, Note_on_c, 2, 72, 96
1, 89908, Note_off_c, 9, 42, 105
1, 89926, Note_off_c, 9, 36, 114
1, 89978, Note_off_c, 10, 61, 115
1, 89990, Note_off_c, 3, 73, 112
1, 90002, Note_off_c, 10, 65, 107
1, 90012, Note_off_c, 3, 77, 105
1, 90050, Note_on_c, 3, 72, 112
1, 90050, Note_on_c, 3, 75, 110
1, 90050, Note_on_c, 9, 42, 77
1, 90052, Note_on_c, 2, 63, 68
1, 90052, Note_on_c, 10, 60, 98
1, 90052, Note_on_c, 10, 63, 115
1, 90066, Note_off_c, 2, 72, 96
1, 90094, Note_off_c, 9, 42, 77
1, 90132, Note_off_c, 10, 60, 98
1, 90178, Note_off_c, 10, 63, 115
1, 90178, Note_off_c, 3, 72, 112
1, 90206, Note_off_c, 3, 75, 110
1, 90242, Note_on_c, 3, 68, 110
1, 90242, Note_on_c, 9, 38, 117
1, 90242, Note_on_c, 9, 42, 102
1, 90244, Note_on_c, 2, 68, 77
1, 90244, Note_on_c, 3, 72, 107
1, 90244, Note_on_c, 10, 60, 107
1, 90246, Note_on_c, 10, 56, 112
1, 90258, Note_off_c, 7, 32, 95
1, 90290, Note_off_c, 9, 42, 102
1, 90296, Note_off_c, 10, 56, 112
1, 90306, Note_off_c, 10, 60, 107
1, 90322, Note_off_c, 9, 38, 117
1, 90362, Note_off_c, 3, 72, 107
1, 90420, Note_off_c, 3, 68, 110
1, 90426, Note_off_c, 2, 63, 68
1, 90434, Note_on_c, 3, 75, 100
1, 90434, Note_on_c, 9, 36, 92
1, 90434, Note_on_c, 9, 42, 83
1, 90436, Note_on_c, 2, 72, 96
1, 90436, Note_on_c, 3, 72, 112
1, 90436, Note_on_c, 7, 32, 88
1, 90438, Note_on_c, 10, 60, 110
1, 90438, Note_on_c, 10, 63, 98
1, 90450, Note_off_c, 2, 68, 77
1, 90478, Note_off_c, 9, 42, 83
1, 90500, Note_off_c, 9, 36, 92
1, 90502, Note_off_c, 7, 32, 88
1, 90626, Note_on_c, 9, 36, 114
1, 90626, Note_on_c, 9, 42, 114
1, 90628, Note_on_c, 2, 63, 65
1, 90628, Note_on_c, 7, 32, 104
1, 90690, Note_off_c, 9, 42, 114
1, 90690, Note_off_c, 2, 72, 96
1, 90738, Note_off_c, 9, 36, 114
1, 90818, Note_on_c, 2, 68, 79
1, 90818, Note_on_c, 9, 42, 70
1, 90870, Note_off_c, 9, 42, 70
1, 90964, Note_off_c, 2, 68, 79
1, 90984, Note_off_c, 2, 63, 65
1, 91010, Note_on_c, 2, 68, 96
1, 91010, Note_on_c, 9, 38, 114
1, 91010, Note_on_c, 9, 42, 114
1, 91012, Note_on_c, 2, 72, 107
1, 91022, Note_off_c, 7, 32, 104
1, 91076, Note_off_c, 9, 42, 114
1, 91102, Note_off_c, 9, 38, 114
1, 91202, Note_on_c, 9, 42, 77
1, 91202, Note_on_c, 7, 27, 82
1, 91204, Note_on_c, 2, 63, 71
1, 91206, Note_off_c, 2, 72, 107
1, 91214, Note_off_c, 2, 68, 96
1, 91250, Note_off_c, 9, 42, 77
1, 91252, Note_off_c, 10, 63, 98
1, 91256, Note_off_c, 10, 60, 110
1, 91382, Control_c, 3, 1, 1
1, 91390, Note_off_c, 7, 27, 82
1, 91394, Note_on_c, 9, 36, 114
1, 91394, Note_on_c, 9, 42, 105
1, 91396, Note_on_c, 2, 68, 90
1, 91396, Note_on_c, 2, 72, 96
1, 91396, Note_on_c, 7, 32, 95
1, 91410, Note_off_c, 2, 63, 71
1, 91450, Note_off_c, 9, 42, 105
1, 91482, Note_off_c, 9, 36, 114
1, 91582, Note_off_c, 2, 72, 96
1, 91582, Note_off_c, 2, 68, 90
1, 91586, Note_on_c, 2, 60, 94
1, 91586, Note_on_c, 9, 42, 81
1, 91606, Note_off_c, 3, 72, 112
1, 91618, Note_off_c, 3, 75, 100
1, 91628, Note_off_c, 9, 42, 81
1, 91778, Note_on_c, 2, 63, 90
1, 91778, Note_on_c, 9, 38, 117
1, 91778, Note_on_c, 9, 42, 107
1, 91802, Note_off_c, 7, 32, 95
1, 91830, Note_off_c, 2, 60, 94
1, 91834, Note_off_c, 9, 42, 107
1, 91860, Note_off_c, 9, 38, 117
1, 91970, Note_on_c, 9, 36, 85
1, 91970, Note_on_c, 9, 42, 89
1, 91970, Note_on_c, 7, 32, 86
1, 91972, Note_on_c, 2, 68, 92
1, 91972, Note_on_c, 2, 72, 94
1, 91988, Note_off_c, 2, 63, 90
1, 92018, Note_off_c, 9, 42, 89
1, 92040, Note_off_c, 9, 36, 85
1, 92050, Note_off_c, 7, 32, 86
1, 92154, Note_off_c, 2, 72, 94
1, 92162, Note_on_c, 9, 36, 117
1, 92162, Note_on_c, 9, 42, 107
1, 92164, Note_on_c, 2, 63, 66
1, 92164, Note_on_c, 7, 32, 104
1, 92168, Note_off_c, 2, 68, 92
1, 92238, Note_off_c, 9, 42, 107
1, 92284, Note_off_c, 9, 36, 117
1, 92354, Note_on_c, 3, 80, 105
1, 92354, Note_on_c, 3, 84, 115
1, 92354, Note_on_c, 9, 42, 87
1, 92356, Note_on_c, 2, 60, 77
1, 92356, Note_on_c, 10, 68, 110
1, 92356, Note_on_c, 10, 72, 98
1, 92402, Note_off_c, 2, 63, 66
1, 92406, Note_off_c, 9, 42, 87
1, 92502, Note_off_c, 10, 68, 110
1, 92514, Note_off_c, 10, 72, 98
1, 92522, Note_off_c, 3, 80, 105
1, 92524, Note_off_c, 3, 84, 115
1, 92546, Note_on_c, 3, 85, 105
1, 92546, Note_on_c, 9, 38, 109
1, 92546, Note_on_c, 9, 42, 114
1, 92548, Note_on_c, 2, 68, 87
1, 92548, Note_on_c, 2, 72, 92
1, 92548, Note_on_c, 3, 82, 118
1, 92548, Note_on_c, 10, 70, 112
1, 92550, Note_off_c, 2, 60, 77
1, 92550, Note_on_c, 10, 73, 107
1, 92602, Note_off_c, 9, 42, 114
1, 92646, Note_off_c, 9, 38, 109
1, 92648, Note_off_c, 7, 32, 104
1, 92684, Note_off_c, 10, 73, 107
1, 92710, Note_off_c, 10, 70, 112
1, 92710, Note_off_c, 3, 82, 118
1, 92710, Note_off_c, 2, 68, 87
1, 92718, Note_off_c, 2, 72, 92
1, 92722, Note_off_c, 3, 85, 105
1, 92738, Note_on_c, 3, 80, 124
1, 92738, Note_on_c, 3, 84, 118
1, 92738, Note_on_c, 9, 46, 100
1, 92740, Note_on_c, 2, 63, 73
1, 92740, Note_on_c, 10, 68, 103
1, 92740, Note_on_c, 10, 72, 107
1, 92740, Note_on_c, 7, 32, 52
1, 92786, Note_off_c, 9, 46, 100
1, 92836, Note_off_c, 0, 60, 66
1, 92872, Note_off_c, 0, 68, 66
1, 92890, Note_off_c, 7, 32, 52
1, 92930, Note_on_c, 9, 36, 117
1, 92932, Note_on_c, 0, 63, 67
1, 92932, Note_on_c, 0, 67, 67
1, 92932, Note_on_c, 9, 42, 112
1, 92932, Note_on_c, 7, 39, 93
1, 92934, Note_on_c, 2, 70, 94
1, 92938, Note_off_c, 2, 63, 73
1, 92996, Note_off_c, 9, 42, 112
1, 93016, Note_off_c, 9, 36, 117
1, 93062, Note_off_c, 3, 80, 124
1, 93074, Note_off_c, 10, 72, 107
1, 93074, Note_off_c, 10, 68, 103
1, 93110, Note_off_c, 3, 84, 118
1, 93122, Note_on_c, 3, 82, 100
1, 93122, Note_on_c, 9, 42, 77
1, 93124, Note_on_c, 2, 63, 68
1, 93124, Note_on_c, 3, 79, 115
1, 93124, Note_on_c, 10, 67, 112
1, 93124, Note_on_c, 10, 70, 105
1, 93146, Note_off_c, 2, 70, 94
1, 93160, Note_off_c, 9, 42, 77
1, 93236, Note_off_c, 10, 67, 112
1, 93240, Note_off_c, 3, 79, 115
1, 93250, Note_off_c, 3, 82, 100
1, 93272, Note_off_c, 10, 70, 105
1, 93314, Note_on_c, 3, 77, 110
1, 93314, Note_on_c, 3, 80, 110
1, 93314, Note_on_c, 9, 38, 120
1, 93314, Note_on_c, 9, 42, 105
1, 93316, Note_on_c, 2, 67, 94
1, 93316, Note_on_c, 10, 65, 110
1, 93316, Note_on_c, 10, 68, 105
1, 93348, Note_off_c, 7, 39, 93
1, 93366, Note_off_c, 9, 42, 105
1, 93394, Note_off_c, 10, 65, 110
1, 93402, Note_off_c, 9, 38, 120
1, 93420, Note_off_c, 10, 68, 105
1, 93434, Note_off_c, 3, 77, 110
1, 93474, Note_off_c, 3, 80, 110
1, 93506, Note_off_c, 2, 67, 94
1, 93506, Note_on_c, 9, 36, 89
1, 93506, Note_on_c, 9, 42, 89
1, 93508, Note_on_c, 2, 70, 90
1, 93508, Note_on_c, 3, 79, 112
1, 93508, Note_on_c, 3, 82, 103
1, 93508, Note_on_c, 7, 39, 72
1, 93510, Note_on_c, 10, 67, 105
1, 93510, Note_on_c, 10, 70, 107
1, 93532, Note_off_c, 2, 63, 68
1, 93564, Note_off_c, 9, 42, 89
1, 93570, Note_off_c, 7, 39, 72
1, 93582, Note_off_c, 9, 36, 89
1, 93698, Note_on_c, 9, 36, 120
1, 93700, Note_on_c, 9, 42, 105
1, 93700, Note_on_c, 7, 39, 97
1, 93766, Note_off_c, 9, 42, 105
1, 93812, Note_off_c, 9, 36, 120
1, 93890, Note_on_c, 2, 58, 92
1, 93890, Note_on_c, 9, 42, 87
1, 93946, Note_off_c, 9, 42, 87
1, 94034, Note_off_c, 2, 70, 90
1, 94082, Note_on_c, 2, 63, 77
1, 94082, Note_on_c, 9, 38, 109
1, 94082, Note_on_c, 9, 42, 114
1, 94150, Note_off_c, 9, 42, 114
1, 94222, Note_off_c, 9, 38, 109
1, 94274, Note_on_c, 2, 67, 90
1, 94274, Note_on_c, 9, 46, 96
1, 94338, Control_c, 3, 1, 3
1, 94344, Note_off_c, 9, 46, 96
1, 94356, Note_off_c, 7, 39, 97
1, 94410, Note_off_c, 3, 82, 103
1, 94412, Note_off_c, 3, 79, 112
1, 94418, Note_off_c, 2, 67, 90
1, 94424, Note_off_c, 2, 58, 92
1, 94436, Note_off_c, 0, 63, 67
1, 94450, Note_off_c, 2, 63, 77
1, 94462, Control_c, 3, 1, 2
1, 94466, Note_on_c, 9, 36, 109
1, 94468, Note_on_c, 0, 61, 34
1, 94468, Note_on_c, 0, 65, 79
1, 94468, Note_on_c, 9, 42, 109
1, 94468, Note_on_c, 7, 37, 95
1, 94470, Note_on_c, 2, 68, 94
1, 94474, Note_off_c, 10, 67, 105
1, 94482, Note_off_c, 10, 70, 107
1, 94488, Note_off_c, 0, 67, 67
1, 94538, Note_off_c, 9, 42, 109
1, 94590, Note_off_c, 9, 36, 109
1, 94658, Note_on_c, 2, 56, 83
1, 94658, Note_on_c, 9, 42, 81
1, 94676, Note_off_c, 2, 68, 94
1, 94716, Note_off_c, 9, 42, 81
1, 94850, Note_on_c, 2, 61, 73
1, 94850, Note_on_c, 9, 38, 112
1, 94850, Note_on_c, 9, 42, 107
1, 94884, Note_off_c, 7, 37, 95
1, 94918, Note_off_c, 9, 42, 107
1, 94936, Note_off_c, 9, 38, 112
1, 95032, Note_off_c, 2, 56, 83
1, 95042, Note_on_c, 9, 36, 85
1, 95042, Note_on_c, 9, 42, 83
1, 95042, Note_on_c, 7, 37, 72
1, 95044, Note_on_c, 2, 68, 105
1, 95070, Note_off_c, 2, 61, 73
1, 95098, Note_off_c, 9, 42, 83
1, 95102, Note_off_c, 7, 37, 72
1, 95126, Note_off_c, 9, 36, 85
1, 95234, Note_on_c, 9, 36, 120
1, 95234, Note_on_c, 9, 42, 114
1, 95236, Note_on_c, 2, 56, 60
1, 95236, Note_on_c, 7, 37, 95
1, 95304, Note_off_c, 9, 42, 114
1, 95314, Note_off_c, 2, 68, 105
1, 95350, Note_off_c, 9, 36, 120
1, 95426, Note_on_c, 3, 77, 115
1, 95426, Note_on_c, 3, 80, 112
1, 95426, Note_on_c, 9, 42, 83
1, 95428, Note_on_c, 2, 61, 73
1, 95428, Note_on_c, 10, 65, 118
1, 95428, Note_on_c, 10, 68, 110
1, 95480, Note_off_c, 9, 42, 83
1, 95562, Note_off_c, 10, 65, 118
1, 95566, Note_off_c, 3, 77, 115
1, 95574, Note_off_c, 10, 68, 110
1, 95578, Note_off_c, 3, 80, 112
1, 95618, Note_on_c, 3, 77, 115
1, 95618, Note_on_c, 9, 38, 120
1, 95618, Note_on_c, 9, 42, 112
1, 95620, Note_on_c, 2, 65, 90
1, 95620, Note_on_c, 2, 68, 105
1, 95620, Note_on_c, 3, 80, 110
1, 95620, Note_on_c, 10, 68, 98
1, 95622, Note_on_c, 10, 65, 105
1, 95642, Note_off_c, 2, 61, 73
1, 95646, Note_off_c, 2, 56, 60
1, 95682, Note_off_c, 9, 42, 112
1, 95706, Note_off_c, 9, 38, 120
1, 95740, Note_off_c, 10, 65, 105
1, 95740, Note_off_c, 10, 68, 98
1, 95746, Note_off_c, 3, 77, 115
1, 95766, Note_off_c, 3, 80, 110
1, 95810, Note_off_c, 2, 65, 90
1, 95810, Note_on_c, 3, 75, 112
1, 95810, Note_on_c, 3, 80, 110
1, 95810, Note_on_c, 9, 46, 96
1, 95812, Note_on_c, 2, 61, 85
1, 95812, Note_on_c, 10, 63, 112
1, 95812, Note_on_c, 10, 68, 105
1, 95826, Note_off_c, 2, 68, 105
1, 95870, Note_off_c, 9, 46, 96
1, 95870, Note_off_c, 7, 37, 95
1, 95910, Note_off_c, 0, 61, 34
1, 95986, Note_off_c, 0, 65, 79
1, 96002, Note_off_c, 2, 61, 85
1, 96002, Note_on_c, 9, 36, 107
1, 96002, Note_on_c, 9, 42, 105
1, 96004, Note_on_c, 0, 60, 46
1, 96004, Note_on_c, 0, 63, 67
1, 96004, Note_on_c, 7, 32, 99
1, 96006, Note_on_c, 2, 68, 96
1, 96068, Note_off_c, 9, 42, 105
1, 96094, Note_off_c, 10, 63, 112
1, 96098, Note_off_c, 3, 75, 112
1, 96100, Note_off_c, 9, 36, 107
1, 96104, Note_off_c, 10, 68, 105
1, 96122, Note_off_c, 3, 80, 110
1, 96194, Note_on_c, 3, 80, 112
1, 96194, Note_on_c, 3, 84, 118
1, 96194, Note_on_c, 9, 42, 73
1, 96196, Note_on_c, 2, 60, 87
1, 96196, Note_on_c, 10, 68, 96
1, 96196, Note_on_c, 10, 72, 112
1, 96202, Note_off_c, 2, 68, 96
1, 96246, Note_off_c, 9, 42, 73
1, 96332, Note_off_c, 3, 84, 118
1, 96346, Note_off_c, 10, 72, 112
1, 96354, Note_off_c, 3, 80, 112
1, 96360, Note_off_c, 10, 68, 96
1, 96386, Note_on_c, 9, 38, 114
1, 96386, Note_on_c, 9, 42, 105
1, 96388, Note_on_c, 2, 63, 85
1, 96388, Note_on_c, 3, 79, 112
1, 96388, Note_on_c, 3, 82, 103
1, 96388, Note_on_c, 10, 67, 100
1, 96390, Note_on_c, 10, 70, 103
1, 96402, Note_off_c, 7, 32, 99
1, 96450, Note_off_c, 9, 42, 105
1, 96458, Note_off_c, 2, 60, 87
1, 96472, Note_off_c, 9, 38, 114
1, 96526, Note_off_c, 10, 67, 100
1, 96538, Note_off_c, 10, 70, 103
1, 96538, Note_off_c, 3, 82, 103
1, 96538, Note_off_c, 3, 79, 112
1, 96578, Note_on_c, 9, 36, 105
1, 96578, Note_on_c, 9, 42, 92
1, 96580, Note_on_c, 3, 80, 110
1, 96580, Note_on_c, 3, 84, 118
1, 96580, Note_on_c, 7, 32, 70
1, 96582, Note_on_c, 2, 68, 92
1, 96582, Note_on_c, 2, 72, 92
1, 96582, Note_on_c, 10, 68, 85
1, 96582, Note_on_c, 10, 72, 94
1, 96598, Note_off_c, 2, 63, 85
1, 96634, Note_off_c, 9, 42, 92
1, 96650, Note_off_c, 7, 32, 70
1, 96652, Note_off_c, 9, 36, 105
1, 96770, Note_on_c, 9, 36, 114
1, 96770, Note_on_c, 9, 42, 107
1, 96772, Note_on_c, 2, 60, 81
1, 96772, Note_on_c, 7, 32, 97
1, 96788, Note_off_c, 2, 72, 92
1, 96818, Note_off_c, 2, 68, 92
1, 96850, Note_off_c, 9, 42, 107
1, 96880, Note_off_c, 9, 36, 114
1, 96962, Note_on_c, 2, 63, 81
1, 96962, Note_on_c, 9, 42, 83
1, 97018, Note_off_c, 9, 42, 83
1, 97078, Note_off_c, 2, 60, 81
1, 97154, Note_on_c, 9, 38, 117
1, 97154, Note_on_c, 9, 42, 107
1, 97156, Note_on_c, 2, 68, 92
1, 97156, Note_on_c, 2, 72, 94
1, 97162, Note_off_c, 2, 63, 81
1, 97164, Control_c, 3, 1, 4
1, 97202, Control_c, 3, 1, 10
1, 97208, Note_off_c, 7, 32, 97
1, 97218, Note_off_c, 9, 42, 107
1, 97240, Control_c, 3, 1, 18
1, 97274, Note_off_c, 9, 38, 117
1, 97276, Control_c, 3, 1, 28
1, 97306, Control_c, 3, 1, 37
1, 97346, Note_off_c, 2, 72, 94
1, 97346, Note_on_c, 9, 42, 87
1, 97348, Note_off_c, 2, 68, 92
1, 97348, Note_on_c, 2, 63, 77
1, 97348, Note_on_c, 7, 27, 80
1, 97362, Control_c, 3, 1, 40
1, 97402, Control_c, 3, 1, 47
1, 97406, Note_off_c, 9, 42, 87
1, 97486, Control_c, 3, 1, 51
1, 97494, Note_off_c, 10, 72, 94
1, 97496, Note_off_c, 10, 68, 85
1, 97510, Note_off_c, 3, 84, 118
1, 97514, Note_off_c, 3, 80, 110
1, 97524, Note_off_c, 7, 27, 80
1, 97538, Note_on_c, 9, 36, 117
1, 97538, Note_on_c, 9, 42, 109
1, 97540, Note_on_c, 2, 68, 90
1, 97540, Note_on_c, 2, 72, 96
1, 97540, Note_on_c, 7, 32, 101
1, 97548, Note_off_c, 2, 63, 77
1, 97606, Note_off_c, 9, 42, 109
1, 97666, Note_off_c, 9, 36, 117
1, 97710, Note_off_c, 2, 72, 96
1, 97730, Note_on_c, 2, 60, 90
1, 97730, Note_on_c, 9, 42, 70
1, 97742, Note_off_c, 2, 68, 90
1, 97786, Note_off_c, 9, 42, 70
1, 97922, Note_on_c, 9, 38, 114
1, 97922, Note_on_c, 9, 42, 102
1, 97924, Note_on_c, 2, 63, 90
1, 97940, Note_off_c, 2, 60, 90
1, 97954, Note_off_c, 7, 32, 101
1, 97976, Note_off_c, 9, 42, 102
1, 98010, Note_off_c, 9, 38, 114
1, 98114, Note_on_c, 9, 36, 94
1, 98114, Note_on_c, 9, 42, 89
1, 98114, Note_on_c, 7, 32, 63
1, 98116, Note_off_c, 2, 63, 90
1, 98116, Note_on_c, 2, 68, 90
1, 98116, Note_on_c, 2, 72, 94
1, 98166, Note_off_c, 9, 42, 89
1, 98186, Note_off_c, 7, 32, 63
1, 98190, Note_off_c, 9, 36, 94
1, 98306, Note_on_c, 9, 36, 117
1, 98306, Note_on_c, 9, 42, 117
1, 98308, Note_on_c, 2, 60, 79
1, 98308, Note_on_c, 7, 32, 78
1, 98314, Note_off_c, 2, 72, 94
1, 98338, Note_off_c, 2, 68, 90
1, 98378, Note_off_c, 9, 42, 117
1, 98410, Note_off_c, 9, 36, 117
1, 98498, Note_on_c, 3, 80, 110
1, 98498, Note_on_c, 3, 84, 110
1, 98498, Note_on_c, 9, 42, 89
1, 98500, Note_on_c, 2, 63, 81
1, 98500, Note_on_c, 10, 68, 98
1, 98500, Note_on_c, 10, 72, 94
1, 98538, Note_off_c, 2, 60, 79
1, 98554, Note_off_c, 9, 42, 89
1, 98654, Note_off_c, 10, 68, 98
1, 98658, Note_off_c, 10, 72, 94
1, 98662, Note_off_c, 3, 80, 110
1, 98664, Note_off_c, 3, 84, 110
1, 98690, Note_on_c, 3, 82, 110
1, 98690, Note_on_c, 9, 38, 109
1, 98690, Note_on_c, 9, 42, 107
1, 98692, Note_on_c, 2, 68, 92
1, 98692, Note_on_c, 2, 72, 94
1, 98692, Note_on_c, 3, 85, 92
1, 98694, Note_on_c, 10, 70, 94
1, 98694, Note_on_c, 10, 73, 94
1, 98708, Note_off_c, 2, 63, 81
1, 98738, Note_off_c, 9, 42, 107
1, 98768, Note_off_c, 9, 38, 109
1, 98820, Note_off_c, 10, 73, 94
1, 98846, Note_off_c, 10, 70, 94
1, 98846, Note_off_c, 3, 82, 110
1, 98854, Note_off_c, 3, 85, 92
1, 98866, Note_off_c, 2, 72, 94
1, 98882, Note_off_c, 2, 68, 92
1, 98882, Note_on_c, 3, 80, 112
1, 98882, Note_on_c, 3, 84, 107
1, 98882, Note_on_c, 9, 46, 92
1, 98884, Note_on_c, 2, 63, 69
1, 98884, Note_on_c, 10, 68, 96
1, 98884, Note_on_c, 10, 72, 103
1, 98936, Note_off_c, 9, 46, 92
1, 98952, Note_off_c, 7, 32, 78
1, 98962, Note_off_c, 0, 60, 46
1, 98978, Note_off_c, 0, 63, 67
1, 99074, Note_on_c, 9, 36, 114
1, 99074, Note_on_c, 9, 42, 102
1, 99076, Note_on_c, 0, 63, 62
1, 99076, Note_on_c, 0, 67, 52
1, 99076, Note_on_c, 7, 39, 93
1, 99078, Note_on_c, 2, 70, 94
1, 99116, Note_off_c, 2, 63, 69
1, 99138, Note_off_c, 9, 42, 102
1, 99174, Note_off_c, 9, 36, 114
1, 99186, Note_off_c, 3, 80, 112
1, 99224, Note_off_c, 3, 84, 107
1, 99246, Note_off_c, 10, 68, 96
1, 99250, Note_off_c, 10, 72, 103
1, 99266, Note_on_c, 3, 79, 112
1, 99266, Note_on_c, 3, 82, 103
1, 99266, Note_on_c, 9, 42, 64
1, 99268, Note_on_c, 2, 58, 85
1, 99268, Note_on_c, 10, 67, 107
1, 99268, Note_on_c, 10, 70, 100
1, 99310, Note_off_c, 9, 42, 64
1, 99348, Note_off_c, 2, 70, 94
1, 99372, Note_off_c, 3, 79, 112
1, 99378, Note_off_c, 10, 67, 107
1, 99386, Note_off_c, 3, 82, 103
1, 99426, Note_off_c, 10, 70, 100
1, 99458, Note_on_c, 3, 80, 110
1, 99458, Note_on_c, 9, 38, 117
1, 99458, Note_on_c, 9, 42, 107
1, 99460, Note_on_c, 2, 63, 75
1, 99460, Note_on_c, 3, 77, 112
1, 99460, Note_on_c, 10, 65, 110
1, 99460, Note_on_c, 10, 68, 94
1, 99506, Note_off_c, 7, 39, 93
1, 99518, Note_off_c, 9, 42, 107
1, 99538, Note_off_c, 10, 65, 110
1, 99556, Note_off_c, 9, 38, 117
1, 99566, Note_off_c, 10, 68, 94
1, 99582, Note_off_c, 3, 77, 112
1, 99620, Note_off_c, 3, 80, 110
1, 99646, Note_off_c, 2, 58, 85
1, 99650, Note_on_c, 3, 79, 115
1, 99650, Note_on_c, 3, 82, 112
1, 99650, Note_on_c, 9, 36, 98
1, 99650, Note_on_c, 9, 42, 85
1, 99652, Note_on_c, 2, 67, 98
1, 99652, Note_on_c, 2, 70, 94
1, 99652, Note_on_c, 7, 39, 80
1, 99654, Note_on_c, 10, 67, 105
1, 99654, Note_on_c, 10, 70, 98
1, 99670, Note_off_c, 2, 63, 75
1, 99700, Note_off_c, 9, 42, 85
1, 99730, Note_off_c, 9, 36, 98
1, 99738, Note_off_c, 7, 39, 80
1, 99842, Note_on_c, 9, 36, 117
1, 99842, Note_on_c, 9, 42, 107
1, 99844, Note_on_c, 2, 58, 77
1, 99844, Note_on_c, 7, 39, 93
1, 99898, Note_off_c, 2, 70, 94
1, 99910, Note_off_c, 9, 42, 107
1, 99918, Note_off_c, 2, 67, 98
1, 99950, Note_off_c, 9, 36, 117
1, 100034, Note_on_c, 2, 63, 79
1, 100034, Note_on_c, 9, 42, 81
1, 100090, Note_off_c, 9, 42, 81
1, 100138, Control_c, 3, 1, 2
1, 100174, Control_c, 3, 1, 15
1, 100214, Control_c, 3, 1, 23
1, 100226, Note_off_c, 2, 58, 77
1, 100226, Note_on_c, 2, 70, 92
1, 100226, Note_on_c, 9, 38, 114
1, 100226, Note_on_c, 9, 42, 109
1, 100228, Note_off_c, 2, 63, 79
1, 100228, Note_on_c, 2, 67, 96
1, 100250, Control_c, 3, 1, 26
1, 100290, Note_off_c, 9, 42, 109
1, 100290, Control_c, 3, 1, 33
1, 100294, Note_off_c, 7, 39, 93
1, 100326, Control_c, 3, 1, 38
1, 100346, Note_off_c, 9, 38, 114
1, 100374, Control_c, 3, 1, 45
1, 100418, Note_off_c, 2, 70, 92
1, 100418, Note_on_c, 9, 42, 85
1, 100418, Note_on_c, 7, 34, 95
1, 100420, Note_off_c, 2, 67, 96
1, 100420, Note_on_c, 2, 63, 73
1, 100440, Note_off_c, 10, 67, 105
1, 100450, Note_off_c, 10, 70, 98
1, 100476, Note_off_c, 9, 42, 85
1, 100514, Note_off_c, 3, 79, 115
1, 100516, Note_off_c, 3, 82, 112
1, 100566, Control_c, 3, 1, 35
1, 100594, Note_off_c, 7, 34, 95
1, 100602, Control_c, 3, 1, 3
1, 100610, Note_on_c, 9, 36, 117
1, 100612, Note_on_c, 2, 70, 100
1, 100612, Note_on_c, 9, 42, 102
1, 100612, Note_on_c, 7, 39, 91
1, 100614, Note_off_c, 2, 63, 73
1, 100682, Note_off_c, 9, 42, 102
1, 100712, Note_off_c, 9, 36, 117
1, 100802, Note_on_c, 2, 58, 79
1, 100802, Note_on_c, 9, 42, 77
1, 100854, Note_off_c, 9, 42, 77
1, 100970, Note_off_c, 2, 70, 100
1, 100994, Note_on_c, 2, 63, 96
1, 100994, Note_on_c, 9, 38, 109
1, 100994, Note_on_c, 9, 42, 105
1, 101054, Note_off_c, 9, 42, 105
1, 101054, Note_off_c, 7, 39, 91
1, 101082, Note_off_c, 9, 38, 109
1, 101186, Note_on_c, 9, 36, 98
1, 101186, Note_on_c, 9, 42, 94
1, 101186, Note_on_c, 7, 39, 66
1, 101188, Note_on_c, 2, 67, 98
1, 101192, Note_off_c, 2, 63, 96
1, 101242, Note_off_c, 9, 42, 94
1, 101258, Note_off_c, 9, 36, 98
1, 101266, Note_off_c, 2, 58, 79
1, 101342, Note_off_c, 0, 67, 52
1, 101352, Note_off_c, 2, 67, 98
1, 101362, Note_off_c, 7, 39, 66
1, 101362, Note_off_c, 0, 63, 62
1, 101378, Note_on_c, 9, 36, 117
1, 101378, Note_on_c, 9, 42, 105
1, 101380, Note_on_c, 0, 61, 63
1, 101380, Note_on_c, 0, 65, 79
1, 101380, Note_on_c, 7, 37, 99
1, 101382, Note_on_c, 2, 65, 107
1, 101382, Note_on_c, 2, 68, 90
1, 101444, Note_off_c, 9, 42, 105
1, 101464, Note_off_c, 9, 36, 117
1, 101570, Note_on_c, 3, 77, 115
1, 101570, Note_on_c, 9, 38, 92
1, 101570, Note_on_c, 9, 42, 81
1, 101572, Note_on_c, 2, 61, 90
1, 101572, Note_on_c, 3, 80, 112
1, 101572, Note_on_c, 10, 65, 112
1, 101572, Note_on_c, 10, 68, 107
1, 101598, Note_off_c, 2, 65, 107
1, 101618, Note_off_c, 9, 42, 81
1, 101630, Note_off_c, 2, 68, 90
1, 101638, Note_off_c, 9, 38, 92
1, 101678, Note_off_c, 10, 65, 112
1, 101704, Note_off_c, 10, 68, 107
1, 101710, Note_off_c, 3, 77, 115
1, 101716, Note_off_c, 3, 80, 112
1, 101762, Note_on_c, 3, 77, 115
1, 101762, Note_on_c, 3, 80, 105
1, 101762, Note_on_c, 9, 38, 123
1, 101762, Note_on_c, 9, 42, 112
1, 101764, Note_on_c, 2, 65, 92
1, 101764, Note_on_c, 10, 65, 103
1, 101764, Note_on_c, 10, 68, 92
1, 101814, Note_off_c, 9, 42, 112
1, 101826, Note_off_c, 9, 38, 123
1, 101868, Note_off_c, 10, 65, 103
1, 101868, Note_off_c, 7, 37, 99
1, 101882, Note_off_c, 10, 68, 92
1, 101902, Note_off_c, 3, 77, 115
1, 101914, Note_off_c, 3, 80, 105
1, 101954, Note_on_c, 3, 75, 110
1, 101954, Note_on_c, 3, 80, 103
1, 101954, Note_on_c, 9, 46, 92
1, 101956, Note_on_c, 2, 68, 87
1, 101956, Note_on_c, 10, 68, 94
1, 101956, Note_on_c, 7, 37, 61
1, 101958, Note_off_c, 2, 65, 92
1, 101958, Note_on_c, 10, 63, 100
1, 101986, Note_off_c, 2, 61, 90
1, 102004, Note_off_c, 9, 46, 92
1, 102088, Note_off_c, 2, 68, 87
1, 102088, Note_off_c, 0, 61, 63
1, 102146, Note_off_c, 7, 37, 61
1, 102148, Note_on_c, 0, 60, 73
1, 102148, Note_on_c, 9, 36, 117
1, 102148, Note_on_c, 9, 42, 105
1, 102148, Note_on_c, 7, 32, 76
1, 102150, Note_on_c, 0, 68, 63
1, 102150, Note_on_c, 2, 68, 112
1, 102150, Note_on_c, 8, 60, 86
1, 102152, Note_on_c, 8, 68, 76
1, 102174, Note_off_c, 0, 65, 79
1, 102214, Note_off_c, 9, 42, 105
1, 102244, Note_off_c, 9, 36, 117
1, 102254, Note_off_c, 10, 63, 100
1, 102266, Note_off_c, 3, 75, 110
1, 102286, Note_off_c, 10, 68, 94
1, 102294, Note_off_c, 3, 80, 103
1, 102338, Note_on_c, 3, 80, 110
1, 102338, Note_on_c, 3, 84, 118
1, 102338, Note_on_c, 9, 42, 65
1, 102340, Note_on_c, 2, 60, 77
1, 102340, Note_on_c, 10, 68, 105
1, 102340, Note_on_c, 10, 72, 115
1, 102394, Note_off_c, 9, 42, 65
1, 102478, Note_off_c, 10, 72, 115
1, 102492, Note_off_c, 10, 68, 105
1, 102498, Note_off_c, 3, 84, 118
1, 102498, Note_off_c, 3, 80, 110
1, 102530, Note_on_c, 9, 38, 114
1, 102530, Note_on_c, 9, 42, 100
1, 102532, Note_on_c, 2, 63, 85
1, 102532, Note_on_c, 3, 79, 110
1, 102532, Note_on_c, 3, 82, 98
1, 102532, Note_on_c, 10, 70, 98
1, 102534, Note_on_c, 10, 67, 107
1, 102536, Note_off_c, 7, 32, 76
1, 102548, Note_off_c, 2, 68, 112
1, 102590, Note_off_c, 9, 42, 100
1, 102612, Note_off_c, 9, 38, 114
1, 102658, Note_off_c, 10, 67, 107
1, 102676, Note_off_c, 10, 70, 98
1, 102690, Note_off_c, 3, 82, 98
1, 102698, Note_off_c, 3, 79, 110
1, 102722, Note_on_c, 3, 84, 115
1, 102722, Note_on_c, 9, 36, 94
1, 102722, Note_on_c, 9, 42, 92
1, 102724, Note_on_c, 2, 68, 115
1, 102724, Note_on_c, 3, 80, 100
1, 102724, Note_on_c, 7, 32, 78
1, 102726, Note_on_c, 10, 68, 107
1, 102726, Note_on_c, 10, 72, 115
1, 102776, Note_off_c, 9, 42, 92
1, 102788, Note_off_c, 9, 36, 94
1, 102796, Note_off_c, 7, 32, 78
1, 102914, Note_on_c, 9, 36, 114
1, 102914, Note_on_c, 9, 42, 109
1, 102916, Note_on_c, 7, 32, 95
1, 102968, Note_off_c, 2, 60, 77
1, 102978, Note_off_c, 9, 42, 109
1, 103012, Note_off_c, 9, 36, 114
1, 103038, Note_off_c, 2, 63, 85
1, 103106, Note_on_c, 2, 60, 85
1, 103106, Note_on_c, 9, 42, 92
1, 103162, Note_off_c, 9, 42, 92
1, 103266, Control_c, 3, 1, 4
1, 103298, Note_on_c, 9, 38, 117
1, 103298, Note_on_c, 9, 42, 107
1, 103300, Note_on_c, 2, 63, 73
1, 103326, Control_c, 3, 1, 5
1, 103338, Note_off_c, 2, 60, 85
1, 103348, Note_off_c, 9, 42, 107
1, 103350, Note_off_c, 7, 32, 95
1, 103362, Note_off_c, 9, 38, 117
1, 103362, Control_c, 3, 1, 9
1, 103402, Control_c, 3, 1, 14
1, 103438, Control_c, 3, 1, 16
1, 103478, Control_c, 3, 1, 18
1, 103490, Note_on_c, 9, 46, 98
1, 103490, Note_on_c, 7, 39, 68
1, 103492, Note_on_c, 2, 60, 65
1, 103514, Note_off_c, 2, 68, 115
1, 103532, Note_off_c, 9, 46, 98
1, 103560, Control_c, 3, 1, 24
1, 103582, Note_off_c, 2, 63, 73
1, 103596, Control_c, 3, 1, 26
1, 103652, Note_off_c, 2, 60, 65
1, 103672, Note_off_c, 7, 39, 68
1, 103682, Note_on_c, 9, 36, 115
1, 103682, Note_on_c, 9, 42, 115
1, 103684, Note_on_c, 2, 56, 87
1, 103684, Note_on_c, 2, 68, 98
1, 103684, Note_on_c, 7, 32, 87
1, 103698, Note_off_c, 0, 60, 73
1, 103730, Note_off_c, 3, 80, 100
1, 103730, Note_off_c, 3, 84, 115
1, 103790, Note_off_c, 9, 42, 115
1, 103832, Note_off_c, 9, 36, 115
1, 103874, Note_on_c, 2, 60, 64
1, 103874, Note_on_c, 9, 42, 59
1, 103932, Note_off_c, 9, 42, 59
1, 103960, Note_off_c, 0, 68, 63
1, 104066, Note_on_c, 2, 63, 63
1, 104066, Note_on_c, 9, 38, 112
1, 104066, Note_on_c, 9, 42, 100
1, 104072, Note_off_c, 2, 68, 98
1, 104102, Note_off_c, 7, 32, 87
1, 104132, Note_off_c, 9, 42, 100
1, 104196, Note_off_c, 9, 38, 112
1, 104258, Note_on_c, 9, 36, 98
1, 104258, Note_on_c, 9, 42, 94
1, 104258, Note_on_c, 7, 32, 87
1, 104260, Note_on_c, 2, 68, 85
1, 104322, Note_off_c, 9, 42, 94
1, 104338, Note_off_c, 7, 32, 87
1, 104346, Note_off_c, 9, 36, 98
1, 104438, Note_off_c, 10, 72, 115
1, 104444, Note_off_c, 10, 68, 107
1, 104450, Note_on_c, 9, 36, 115
1, 104450, Note_on_c, 9, 42, 112
1, 104452, Note_on_c, 7, 32, 90
1, 104510, Note_off_c, 2, 60, 64
1, 104530, Note_off_c, 9, 42, 112
1, 104536, Note_off_c, 2, 63, 63
1, 104578, Note_off_c, 9, 36, 115
1, 104642, Note_on_c, 2, 60, 63
1, 104642, Note_on_c, 9, 42, 79
1, 104706, Note_off_c, 9, 42, 79
1, 104774, Note_off_c, 7, 32, 90
1, 104834, Note_on_c, 9, 38, 112
1, 104834, Note_on_c, 9, 42, 103
1, 104836, Note_on_c, 2, 63, 65
1, 104836, Note_on_c, 7, 39, 94
1, 104862, Note_off_c, 2, 60, 63
1, 104882, Note_off_c, 9, 42, 103
1, 104900, Note_off_c, 9, 38, 112
1, 105002, Note_off_c, 2, 56, 87
1, 105026, Note_on_c, 2, 60, 54
1, 105026, Note_on_c, 9, 46, 90
1, 105062, Note_off_c, 2, 68, 85
1, 105082, Note_off_c, 9, 46, 90
1, 105140, Note_off_c, 7, 39, 94
1, 105154, Note_off_c, 2, 63, 65
1, 105218, Note_on_c, 9, 36, 75
1, 105218, Note_on_c, 9, 42, 92
1, 105220, Note_on_c, 2, 56, 79
1, 105220, Note_on_c, 2, 68, 85
1, 105220, Note_on_c, 7, 32, 68
1, 105222, Note_on_c, 9, 49, 59
1, 105300, Note_off_c, 9, 42, 92
1, 105310, Note_off_c, 9, 36, 75
1, 105356, Note_off_c, 9, 49, 59
1, 106106, Note_off_c, 8, 60, 86
1, 106258, Note_off_c, 8, 68, 76
1, 106378, Note_off_c, 2, 60, 54
1, 106386, Note_off_c, 2, 56, 79
1, 106388, Note_off_c, 2, 68, 85
1, 106536, Note_off_c, 7, 32, 68
1, 106754, Note_on_c, 9, 36, 98
1, 106754, Note_on_c, 9, 42, 96
1, 106756, Note_on_c, 0, 56, 67
1, 106756, Note_on_c, 0, 59, 67
1, 106756, Note_on_c, 7, 32, 88
1, 106758, Note_on_c, 0, 63, 62
1, 106758, Note_on_c, 2, 56, 94
1, 106758, Note_on_c, 9, 49, 49
1, 106796, Note_off_c, 9, 49, 49
1, 106816, Note_off_c, 9, 42, 96
1, 106868, Note_off_c, 9, 36, 98
1, 106946, Note_on_c, 3, 80, 110
1, 106946, Note_on_c, 9, 42, 53
1, 106946, Note_on_c, 4, 71, 120
1, 106948, Note_on_c, 2, 59, 75
1, 107000, Note_off_c, 9, 42, 53
1, 107082, Note_off_c, 4, 71, 120
1, 107082, Note_off_c, 3, 80, 110
1, 107138, Note_on_c, 3, 80, 110
1, 107138, Note_on_c, 9, 37, 100
1, 107138, Note_on_c, 9, 42, 92
1, 107140, Note_on_c, 2, 63, 65
1, 107140, Note_on_c, 4, 71, 114
1, 107150, Note_off_c, 7, 32, 88
1, 107202, Note_off_c, 9, 42, 92
1, 107218, Note_off_c, 4, 71, 114
1, 107222, Note_off_c, 2, 59, 75
1, 107230, Note_off_c, 2, 63, 65
1, 107234, Note_off_c, 9, 37, 100
1, 107258, Note_off_c, 3, 80, 110
1, 107290, Pitch_bend_c, 4, 7601
1, 107304, Pitch_bend_c, 4, 5828
1, 107322, Pitch_bend_c, 4, 5406
1, 107330, Note_on_c, 9, 36, 81
1, 107330, Note_on_c, 9, 42, 67
1, 107332, Note_on_c, 3, 80, 110
1, 107332, Note_on_c, 7, 32, 72
1, 107332, Note_on_c, 4, 71, 114
1, 107334, Note_on_c, 2, 59, 85
1, 107334, Note_on_c, 2, 63, 85
1, 107334, Note_on_c, 2, 68, 94
1, 107358, Pitch_bend_c, 4, 5490
1, 107378, Pitch_bend_c, 4, 8192
1, 107396, Note_off_c, 9, 42, 67
1, 107400, Note_off_c, 7, 32, 72
1, 107426, Note_off_c, 9, 36, 81
1, 107466, Note_off_c, 2, 56, 94
1, 107522, Note_on_c, 9, 36, 105
1, 107522, Note_on_c, 9, 42, 100
1, 107524, Note_on_c, 7, 32, 91
1, 107594, Note_off_c, 9, 42, 100
1, 107652, Note_off_c, 9, 36, 105
1, 107672, Note_off_c, 3, 80, 110
1, 107714, Note_on_c, 3, 83, 118
1, 107714, Note_on_c, 9, 42, 55
1, 107716, Note_off_c, 2, 59, 85
1, 107716, Note_on_c, 2, 56, 75
1, 107716, Note_on_c, 4, 75, 114
1, 107726, Note_off_c, 4, 71, 114
1, 107766, Note_off_c, 2, 63, 85
1, 107778, Note_off_c, 9, 42, 55
1, 107834, Note_off_c, 4, 75, 114
1, 107838, Note_off_c, 3, 83, 118
1, 107896, Note_off_c, 2, 68, 94
1, 107906, Note_on_c, 3, 83, 112
1, 107906, Note_on_c, 9, 37, 107
1, 107906, Note_on_c, 9, 42, 94
1, 107908, Note_on_c, 2, 59, 71
1, 107908, Note_on_c, 4, 75, 112
1, 107950, Note_off_c, 7, 32, 91
1, 107972, Note_off_c, 9, 42, 94
1, 108002, Note_off_c, 4, 75, 112
1, 108002, Note_off_c, 3, 83, 112
1, 108030, Note_off_c, 9, 37, 107
1, 108098, Note_on_c, 3, 83, 112
1, 108098, Note_on_c, 9, 42, 52
1, 108100, Note_on_c, 2, 63, 64
1, 108100, Note_on_c, 7, 27, 76
1, 108100, Note_on_c, 4, 75, 120
1, 108106, Note_off_c, 2, 56, 75
1, 108110, Pitch_bend_c, 4, 7179
1, 108130, Pitch_bend_c, 4, 4730
1, 108156, Note_off_c, 9, 42, 52
1, 108158, Pitch_bend_c, 4, 5237
1, 108178, Note_off_c, 2, 59, 71
1, 108178, Pitch_bend_c, 4, 8192
1, 108184, Note_off_c, 2, 63, 64
1, 108290, Note_on_c, 9, 36, 102
1, 108290, Note_on_c, 9, 42, 96
1, 108292, Note_on_c, 2, 68, 94
1, 108292, Note_on_c, 7, 32, 88
1, 108300, Note_off_c, 7, 27, 76
1, 108354, Note_off_c, 9, 42, 96
1, 108426, Note_off_c, 9, 36, 102
1, 108466, Note_off_c, 3, 83, 112
1, 108470, Note_off_c, 4, 75, 120
1, 108482, Note_on_c, 3, 82, 105
1, 108482, Note_on_c, 9, 42, 51
1, 108482, Note_on_c, 4, 73, 123
1, 108484, Note_on_c, 2, 59, 73
1, 108542, Note_off_c, 9, 42, 51
1, 108650, Note_off_c, 3, 82, 105
1, 108668, Note_off_c, 4, 73, 123
1, 108674, Note_on_c, 3, 80, 105
1, 108674, Note_on_c, 9, 37, 100
1, 108674, Note_on_c, 9, 42, 96
1, 108676, Note_on_c, 2, 56, 65
1, 108676, Note_on_c, 4, 71, 107
1, 108684, Note_off_c, 2, 68, 94
1, 108714, Note_off_c, 7, 32, 88
1, 108740, Note_off_c, 9, 42, 96
1, 108748, Note_off_c, 4, 71, 107
1, 108754, Note_off_c, 2, 59, 73
1, 108766, Note_off_c, 9, 37, 100
1, 108798, Note_off_c, 3, 80, 105
1, 108866, Note_on_c, 3, 80, 98
1, 108866, Note_on_c, 9, 36, 67
1, 108866, Note_on_c, 9, 42, 62
1, 108868, Note_on_c, 2, 63, 85
1, 108868, Note_on_c, 7, 32, 72
1, 108868, Note_on_c, 4, 71, 117
1, 108870, Note_on_c, 2, 68, 81
1, 108930, Note_off_c, 9, 42, 62
1, 108930, Pitch_bend_c, 4, 7939
1, 108942, Note_off_c, 9, 36, 67
1, 108946, Note_off_c, 7, 32, 72
1, 108956, Pitch_bend_c, 4, 8192
1, 109058, Note_on_c, 9, 36, 100
1, 109058, Note_on_c, 9, 42, 100
1, 109060, Note_on_c, 7, 32, 84
1, 109134, Note_off_c, 9, 42, 100
1, 109160, Note_off_c, 9, 36, 100
1, 109250, Note_on_c, 2, 59, 77
1, 109250, Note_on_c, 9, 42, 60
1, 109282, Note_off_c, 2, 56, 65
1, 109306, Note_off_c, 9, 42, 60
1, 109326, Control_c, 4, 1, 5
1, 109366, Control_c, 4, 1, 22
1, 109400, Note_off_c, 7, 32, 84
1, 109410, Control_c, 4, 1, 32
1, 109436, Note_on_c, 5, 63, 87
1, 109442, Note_on_c, 9, 37, 109
1, 109442, Note_on_c, 9, 42, 96
1, 109442, Note_on_c, 7, 39, 88
1, 109444, Note_on_c, 2, 56, 71
1, 109450, Control_c, 4, 1, 36
1, 109490, Note_off_c, 9, 42, 96
1, 109502, Note_off_c, 9, 37, 109
1, 109516, Note_off_c, 2, 59, 77
1, 109534, Note_off_c, 2, 63, 85
1, 109610, Note_off_c, 3, 80, 98
1, 109634, Note_on_c, 2, 59, 66
1, 109634, Note_on_c, 2, 63, 26
1, 109634, Note_on_c, 9, 46, 92
1, 109678, Note_off_c, 9, 46, 92
1, 109730, Note_off_c, 5, 63, 87
1, 109794, Note_off_c, 2, 56, 71
1, 109802, Note_off_c, 7, 39, 88
1, 109802, Note_off_c, 4, 71, 117
1, 109804, Control_c, 4, 1, 35
1, 109818, Note_off_c, 2, 63, 26
1, 109822, Note_on_c, 5, 63, 85
1, 109826, Note_on_c, 9, 36, 100
1, 109828, Note_on_c, 9, 42, 102
1, 109828, Note_on_c, 7, 32, 88
1, 109830, Note_on_c, 9, 49, 58
1, 109834, Note_off_c, 2, 68, 81
1, 109834, Control_c, 4, 1, 0
1, 109866, Note_off_c, 2, 59, 66
1, 109880, Note_off_c, 9, 49, 58
1, 109890, Note_off_c, 9, 42, 102
1, 109928, Note_off_c, 9, 36, 100
1, 110018, Note_on_c, 2, 68, 77
1, 110018, Note_on_c, 9, 42, 54
1, 110020, Note_on_c, 2, 59, 83
1, 110020, Note_on_c, 2, 63, 62
1, 110020, Note_on_c, 10, 56, 94
1, 110074, Note_off_c, 9, 42, 54
1, 110136, Note_off_c, 5, 63, 85
1, 110154, Note_off_c, 2, 59, 83
1, 110166, Note_off_c, 2, 63, 62
1, 110166, Note_off_c, 2, 68, 77
1, 110202, Note_off_c, 10, 56, 94
1, 110210, Note_on_c, 9, 37, 109
1, 110210, Note_on_c, 9, 42, 105
1, 110210, Note_on_c, 5, 63, 82
1, 110212, Note_on_c, 2, 59, 66
1, 110212, Note_on_c, 2, 63, 68
1, 110212, Note_on_c, 2, 68, 62
1, 110212, Note_on_c, 10, 59, 75
1, 110234, Note_off_c, 7, 32, 88
1, 110274, Note_off_c, 9, 42, 105
1, 110296, Note_off_c, 9, 37, 109
1, 110302, Note_off_c, 5, 63, 82
1, 110334, Note_off_c, 2, 63, 68
1, 110340, Note_off_c, 2, 59, 66
1, 110342, Note_off_c, 2, 68, 62
1, 110386, Note_off_c, 10, 59, 75
1, 110402, Note_on_c, 9, 36, 83
1, 110402, Note_on_c, 9, 42, 67
1, 110402, Note_on_c, 7, 32, 76
1, 110404, Note_on_c, 2, 59, 73
1, 110404, Note_on_c, 2, 63, 65
1, 110404, Note_on_c, 2, 68, 71
1, 110406, Note_on_c, 10, 63, 71
1, 110410, Note_on_c, 5, 63, 74
1, 110466, Note_off_c, 7, 32, 76
1, 110474, Note_off_c, 9, 42, 67
1, 110490, Note_off_c, 9, 36, 83
1, 110594, Note_on_c, 9, 36, 100
1, 110596, Note_on_c, 9, 42, 105
1, 110596, Note_on_c, 7, 32, 88
1, 110652, Note_off_c, 2, 59, 73
1, 110670, Note_off_c, 9, 42, 105
1, 110692, Note_off_c, 2, 63, 65
1, 110702, Note_off_c, 2, 68, 71
1, 110714, Note_off_c, 9, 36, 100
1, 110786, Note_on_c, 2, 59, 73
1, 110786, Note_on_c, 2, 63, 65
1, 110786, Note_on_c, 9, 42, 63
1, 110788, Note_on_c, 2, 68, 71
1, 110788, Note_on_c, 10, 59, 79
1, 110794, Note_off_c, 10, 63, 71
1, 110846, Note_off_c, 9, 42, 63
1, 110872, Control_c, 5, 1, 1
1, 110902, Control_c, 5, 1, 8
1, 110950, Control_c, 5, 1, 14
1, 110966, Note_off_c, 10, 59, 79
1, 110978, Note_on_c, 10, 56, 49
1, 110978, Note_on_c, 9, 37, 109
1, 110978, Note_on_c, 9, 42, 94
1, 110990, Control_c, 5, 1, 18
1, 111010, Note_off_c, 2, 59, 73
1, 111026, Note_off_c, 7, 32, 88
1, 111030, Note_off_c, 2, 63, 65
1, 111042, Note_off_c, 9, 42, 94
1, 111044, Note_off_c, 2, 68, 71
1, 111092, Note_off_c, 9, 37, 109
1, 111138, Note_off_c, 10, 56, 49
1, 111150, Control_c, 5, 1, 0
1, 111170, Note_on_c, 2, 63, 77
1, 111170, Note_on_c, 9, 42, 57
1, 111170, Note_on_c, 7, 27, 55
1, 111172, Note_on_c, 2, 59, 90
1, 111172, Note_on_c, 2, 68, 90
1, 111172, Note_on_c, 10, 59, 54
1, 111230, Note_off_c, 9, 42, 57
1, 111244, Note_off_c, 5, 63, 74
1, 111326, Note_off_c, 7, 27, 55
1, 111352, Note_on_c, 5, 63, 87
1, 111362, Note_on_c, 9, 42, 94
1, 111364, Note_on_c, 9, 36, 107
1, 111364, Note_on_c, 7, 32, 97
1, 111426, Note_off_c, 9, 42, 94
1, 111428, Note_off_c, 2, 59, 90
1, 111460, Note_off_c, 2, 68, 90
1, 111466, Note_off_c, 2, 63, 77
1, 111470, Note_off_c, 9, 36, 107
1, 111496, Note_off_c, 5, 63, 87
1, 111550, Note_on_c, 5, 63, 70
1, 111554, Note_on_c, 2, 63, 61
1, 111554, Note_on_c, 9, 42, 55
1, 111556, Note_on_c, 2, 59, 66
1, 111556, Note_on_c, 2, 68, 73
1, 111556, Note_on_c, 10, 56, 71
1, 111558, Note_off_c, 10, 59, 54
1, 111612, Note_off_c, 9, 42, 55
1, 111618, Note_off_c, 2, 68, 73
1, 111624, Note_off_c, 2, 63, 61
1, 111628, Note_off_c, 2, 59, 66
1, 111650, Note_off_c, 5, 63, 70
1, 111726, Note_off_c, 10, 56, 71
1, 111742, Note_on_c, 5, 63, 62
1, 111746, Note_on_c, 2, 59, 71
1, 111746, Note_on_c, 2, 63, 64
1, 111746, Note_on_c, 9, 37, 109
1, 111746, Note_on_c, 9, 42, 94
1, 111748, Note_on_c, 2, 68, 69
1, 111748, Note_on_c, 10, 59, 85
1, 111788, Note_off_c, 7, 32, 97
1, 111796, Note_off_c, 2, 63, 64
1, 111798, Note_off_c, 2, 68, 69
1, 111806, Note_off_c, 9, 42, 94
1, 111806, Note_off_c, 2, 59, 71
1, 111826, Note_off_c, 5, 63, 62
1, 111838, Note_off_c, 9, 37, 109
1, 111924, Note_off_c, 10, 59, 85
1, 111938, Note_on_c, 9, 36, 81
1, 111938, Note_on_c, 9, 42, 83
1, 111938, Note_on_c, 7, 32, 80
1, 111940, Note_on_c, 2, 59, 92
1, 111940, Note_on_c, 2, 63, 81
1, 111940, Note_on_c, 2, 68, 79
1, 111942, Note_on_c, 10, 63, 65
1, 111942, Note_on_c, 5, 63, 80
1, 111998, Note_off_c, 9, 42, 83
1, 112006, Note_off_c, 7, 32, 80
1, 112020, Note_off_c, 9, 36, 81
1, 112130, Note_on_c, 9, 36, 109
1, 112130, Note_on_c, 9, 42, 107
1, 112132, Note_on_c, 7, 32, 93
1, 112200, Note_off_c, 9, 42, 107
1, 112222, Note_off_c, 2, 59, 92
1, 112232, Note_off_c, 9, 36, 109
1, 112294, Note_off_c, 10, 63, 65
1, 112294, Note_off_c, 2, 68, 79
1, 112298, Note_off_c, 2, 63, 81
1, 112322, Note_on_c, 2, 59, 79
1, 112322, Note_on_c, 2, 63, 79
1, 112322, Note_on_c, 9, 42, 70
1, 112324, Note_on_c, 2, 68, 85
1, 112324, Note_on_c, 10, 59, 75
1, 112380, Note_off_c, 9, 42, 70
1, 112402, Control_c, 5, 1, 5
1, 112434, Note_off_c, 5, 63, 80
1, 112462, Control_c, 5, 1, 0
1, 112492, Note_off_c, 10, 59, 75
1, 112510, Note_on_c, 5, 63, 82
1, 112514, Note_on_c, 10, 56, 57
1, 112514, Note_on_c, 9, 37, 107
1, 112514, Note_on_c, 9, 42, 92
1, 112566, Note_off_c, 9, 42, 92
1, 112594, Note_off_c, 9, 37, 107
1, 112690, Note_off_c, 7, 32, 93
1, 112706, Note_on_c, 9, 46, 75
1, 112722, Note_off_c, 0, 59, 67
1, 112748, Note_off_c, 10, 56, 57
1, 112748, Note_off_c, 0, 56, 67
1, 112766, Note_off_c, 9, 46, 75
1, 112786, Note_off_c, 5, 63, 82
1, 112790, Note_off_c, 0, 63, 62
1, 112806, Note_off_c, 2, 68, 85
1, 112830, Note_off_c, 2, 59, 79
1, 112846, Note_off_c, 2, 63, 79
1, 112892, Note_on_c, 5, 63, 82
1, 112898, Note_on_c, 9, 36, 98
1, 112898, Note_on_c, 9, 42, 105
1, 112900, Note_on_c, 0, 55, 75
1, 112900, Note_on_c, 0, 58, 62
1, 112900, Note_on_c, 0, 63, 67
1, 112900, Note_on_c, 7, 39, 88
1, 112970, Note_off_c, 9, 42, 105
1, 113000, Note_off_c, 9, 36, 98
1, 113042, Note_off_c, 5, 63, 82
1, 113074, Note_on_c, 5, 58, 68
1, 113090, Note_on_c, 2, 58, 83
1, 113090, Note_on_c, 2, 63, 71
1, 113090, Note_on_c, 9, 42, 64
1, 113092, Note_on_c, 2, 67, 92
1, 113092, Note_on_c, 10, 55, 92
1, 113148, Note_off_c, 9, 42, 64
1, 113178, Note_off_c, 5, 58, 68
1, 113186, Note_off_c, 2, 63, 71
1, 113188, Note_off_c, 2, 58, 83
1, 113192, Note_off_c, 2, 67, 92
1, 113266, Note_off_c, 10, 55, 92
1, 113282, Note_on_c, 2, 63, 63
1, 113282, Note_on_c, 2, 67, 87
1, 113282, Note_on_c, 9, 37, 112
1, 113282, Note_on_c, 9, 42, 98
1, 113284, Note_on_c, 2, 58, 62
1, 113284, Note_on_c, 10, 58, 77
1, 113284, Note_on_c, 5, 58, 70
1, 113346, Note_off_c, 9, 42, 98
1, 113346, Note_off_c, 7, 39, 88
1, 113350, Note_off_c, 2, 63, 63
1, 113354, Note_off_c, 2, 58, 62
1, 113362, Note_off_c, 9, 37, 112
1, 113364, Note_off_c, 2, 67, 87
1, 113368, Note_off_c, 5, 58, 70
1, 113458, Note_off_c, 10, 58, 77
1, 113474, Note_on_c, 9, 36, 69
1, 113474, Note_on_c, 9, 42, 73
1, 113476, Note_on_c, 2, 58, 73
1, 113476, Note_on_c, 2, 63, 65
1, 113476, Note_on_c, 2, 67, 92
1, 113476, Note_on_c, 7, 39, 80
1, 113478, Note_on_c, 10, 63, 71
1, 113486, Note_on_c, 5, 58, 70
1, 113534, Note_off_c, 9, 42, 73
1, 113540, Note_off_c, 7, 39, 80
1, 113550, Note_off_c, 9, 36, 69
1, 113666, Note_on_c, 9, 36, 102
1, 113666, Note_on_c, 9, 42, 105
1, 113668, Note_on_c, 7, 39, 84
1, 113730, Note_off_c, 2, 67, 92
1, 113734, Note_off_c, 9, 42, 105
1, 113734, Note_off_c, 2, 58, 73
1, 113736, Note_off_c, 2, 63, 65
1, 113768, Note_off_c, 9, 36, 102
1, 113858, Note_on_c, 3, 75, 121
1, 113858, Note_on_c, 9, 42, 66
1, 113858, Note_on_c, 4, 67, 109
1, 113860, Note_on_c, 2, 58, 75
1, 113860, Note_on_c, 2, 63, 68
1, 113860, Note_on_c, 2, 67, 100
1, 113860, Note_on_c, 4, 63, 107
1, 113862, Note_on_c, 10, 58, 66
1, 113870, Note_off_c, 10, 63, 71
1, 113908, Note_off_c, 9, 42, 66
1, 113942, Note_off_c, 4, 63, 107
1, 113946, Note_off_c, 3, 75, 121
1, 113964, Note_off_c, 4, 67, 109
1, 114050, Note_on_c, 9, 37, 112
1, 114050, Note_on_c, 9, 42, 98
1, 114052, Note_on_c, 3, 75, 127
1, 114052, Note_on_c, 4, 63, 100
1, 114052, Note_on_c, 4, 67, 109
1, 114054, Note_off_c, 10, 58, 66
1, 114054, Note_on_c, 10, 55, 63
1, 114058, Control_c, 5, 1, 7
1, 114098, Control_c, 5, 1, 15
1, 114114, Note_off_c, 9, 42, 98
1, 114130, Note_off_c, 4, 63, 100
1, 114138, Note_off_c, 4, 67, 109
1, 114138, Note_off_c, 2, 58, 75
1, 114138, Note_off_c, 7, 39, 84
1, 114140, Note_off_c, 2, 67, 100
1, 114146, Note_off_c, 9, 37, 112
1, 114146, Note_off_c, 2, 63, 68
1, 114146, Control_c, 5, 1, 17
1, 114162, Note_off_c, 3, 75, 127
1, 114186, Control_c, 5, 1, 21
1, 114230, Note_off_c, 10, 55, 63
1, 114242, Note_on_c, 3, 75, 124
1, 114242, Note_on_c, 9, 42, 65
1, 114244, Note_on_c, 3, 82, 68
1, 114244, Note_on_c, 7, 34, 97
1, 114244, Note_on_c, 4, 63, 109
1, 114244, Note_on_c, 4, 67, 114
1, 114246, Note_on_c, 2, 58, 64
1, 114246, Note_on_c, 2, 63, 60
1, 114246, Note_on_c, 2, 67, 61
1, 114248, Note_on_c, 10, 58, 55
1, 114264, Note_off_c, 3, 82, 68
1, 114298, Note_off_c, 9, 42, 65
1, 114354, Control_c, 5, 1, 16
1, 114394, Control_c, 5, 1, 0
1, 114434, Note_on_c, 9, 36, 105
1, 114434, Note_on_c, 9, 42, 96
1, 114436, Note_on_c, 7, 27, 80
1, 114458, Note_off_c, 10, 58, 55
1, 114466, Note_off_c, 7, 34, 97
1, 114472, Note_off_c, 2, 67, 61
1, 114486, Note_off_c, 2, 58, 64
1, 114490, Note_off_c, 2, 63, 60
1, 114502, Note_off_c, 9, 42, 96
1, 114522, Note_off_c, 3, 75, 124
1, 114526, Note_off_c, 4, 63, 109
1, 114538, Note_off_c, 9, 36, 105
1, 114586, Note_off_c, 4, 67, 114
1, 114626, Note_on_c, 3, 79, 112
1, 114626, Note_on_c, 9, 42, 64
1, 114628, Note_on_c, 2, 63, 71
1, 114628, Note_on_c, 2, 67, 85
1, 114628, Note_on_c, 4, 67, 100
1, 114628, Note_on_c, 4, 70, 94
1, 114630, Note_on_c, 2, 58, 71
1, 114630, Note_on_c, 10, 55, 61
1, 114658, Note_off_c, 5, 58, 70
1, 114674, Note_off_c, 9, 42, 64
1, 114686, Note_off_c, 2, 58, 71
1, 114690, Note_off_c, 4, 67, 100
1, 114690, Note_off_c, 2, 67, 85
1, 114692, Note_off_c, 2, 63, 71
1, 114702, Note_off_c, 4, 70, 94
1, 114722, Note_off_c, 3, 79, 112
1, 114818, Note_off_c, 10, 55, 61
1, 114818, Note_on_c, 9, 37, 109
1, 114818, Note_on_c, 9, 42, 98
1, 114820, Note_on_c, 3, 79, 121
1, 114820, Note_on_c, 4, 67, 94
1, 114820, Note_on_c, 4, 70, 98
1, 114822, Note_on_c, 2, 58, 68
1, 114822, Note_on_c, 2, 63, 64
1, 114822, Note_on_c, 2, 67, 73
1, 114822, Note_on_c, 10, 58, 75
1, 114866, Note_off_c, 7, 27, 80
1, 114872, Note_off_c, 2, 58, 68
1, 114876, Note_off_c, 4, 67, 94
1, 114876, Note_off_c, 9, 42, 98
1, 114878, Note_off_c, 2, 63, 64
1, 114882, Note_off_c, 4, 70, 98
1, 114886, Note_off_c, 2, 67, 73
1, 114894, Note_off_c, 9, 37, 109
1, 114938, Note_off_c, 3, 79, 121
1, 114988, Note_off_c, 10, 58, 75
1, 115010, Note_on_c, 3, 79, 121
1, 115010, Note_on_c, 9, 36, 60
1, 115010, Note_on_c, 9, 42, 71
1, 115012, Note_on_c, 7, 27, 76
1, 115012, Note_on_c, 4, 67, 100
1, 115012, Note_on_c, 4, 70, 105
1, 115014, Note_on_c, 2, 58, 75
1, 115014, Note_on_c, 2, 63, 65
1, 115014, Note_on_c, 2, 67, 65
1, 115014, Note_on_c, 2, 68, 53
1, 115016, Note_on_c, 10, 63, 81
1, 115074, Note_off_c, 9, 42, 71
1, 115078, Note_off_c, 9, 36, 60
1, 115100, Note_off_c, 2, 68, 53
1, 115110, Note_off_c, 7, 27, 76
1, 115202, Note_on_c, 9, 36, 112
1, 115202, Note_on_c, 9, 42, 109
1, 115204, Note_on_c, 7, 27, 82
1, 115266, Note_off_c, 2, 58, 75
1, 115268, Note_off_c, 2, 63, 65
1, 115270, Note_off_c, 2, 67, 65
1, 115272, Note_off_c, 9, 42, 109
1, 115310, Note_off_c, 9, 36, 112
1, 115362, Note_off_c, 4, 67, 100
1, 115382, Note_off_c, 10, 63, 81
1, 115382, Note_off_c, 4, 70, 105
1, 115384, Note_off_c, 3, 79, 121
1, 115394, Note_on_c, 3, 80, 115
1, 115394, Note_on_c, 9, 42, 67
1, 115394, Note_on_c, 4, 71, 100
1, 115396, Note_on_c, 2, 58, 92
1, 115396, Note_on_c, 2, 63, 77
1, 115396, Note_on_c, 2, 67, 98
1, 115396, Note_on_c, 4, 68, 96
1, 115398, Note_on_c, 10, 58, 58
1, 115454, Note_off_c, 9, 42, 67
1, 115530, Note_off_c, 4, 68, 96
1, 115530, Note_off_c, 4, 71, 100
1, 115572, Note_off_c, 3, 80, 115
1, 115574, Note_off_c, 10, 58, 58
1, 115586, Note_on_c, 3, 82, 118
1, 115586, Note_on_c, 9, 37, 109
1, 115586, Note_on_c, 9, 42, 100
1, 115588, Note_on_c, 10, 55, 66
1, 115588, Note_on_c, 4, 70, 112
1, 115588, Note_on_c, 4, 73, 109
1, 115638, Note_off_c, 9, 42, 100
1, 115656, Note_off_c, 9, 37, 109
1, 115710, Note_off_c, 7, 27, 82
1, 115770, Note_off_c, 10, 55, 66
1, 115778, Note_on_c, 9, 46, 81
1, 115778, Note_on_c, 7, 34, 95
1, 115780, Note_on_c, 10, 58, 65
1, 115786, Note_off_c, 4, 70, 112
1, 115806, Note_off_c, 4, 73, 109
1, 115828, Note_off_c, 9, 46, 81
1, 115836, Note_off_c, 0, 63, 67
1, 115848, Note_off_c, 3, 82, 118
1, 115874, Note_off_c, 2, 58, 92
1, 115880, Note_off_c, 2, 67, 98
1, 115894, Pitch_bend_c, 4, 5659
1, 115900, Note_off_c, 10, 58, 65
1, 115900, Note_off_c, 2, 63, 77
1, 115910, Pitch_bend_c, 4, 3632
1, 115930, Pitch_bend_c, 4, 2872
1, 115938, Note_off_c, 0, 58, 62
1, 115962, Note_off_c, 7, 34, 95
1, 115962, Note_off_c, 0, 55, 75
1, 115970, Note_on_c, 9, 42, 105
1, 115972, Note_on_c, 3, 88, 115
1, 115972, Note_on_c, 9, 36, 112
1, 115972, Note_on_c, 7, 37, 80
1, 115974, Note_on_c, 0, 61, 60
1, 115974, Note_on_c, 0, 64, 69
1, 115974, Note_on_c, 4, 76, 109
1, 115974, Note_on_c, 4, 80, 100
1, 115976, Note_on_c, 0, 68, 75
1, 115980, Pitch_bend_c, 4, 3717
1, 115994, Pitch_bend_c, 4, 4139
1, 116010, Pitch_bend_c, 4, 4899
1, 116030, Pitch_bend_c, 4, 5574
1, 116038, Note_off_c, 9, 42, 105
1, 116050, Note_off_c, 9, 36, 112
1, 116050, Pitch_bend_c, 4, 6925
1, 116070, Pitch_bend_c, 4, 8192
1, 116162, Note_on_c, 2, 61, 87
1, 116162, Note_on_c, 2, 68, 87
1, 116162, Note_on_c, 9, 42, 70
1, 116164, Note_on_c, 2, 64, 85
1, 116164, Note_on_c, 10, 56, 67
1, 116210, Note_off_c, 9, 42, 70
1, 116232, Note_off_c, 2, 64, 85
1, 116236, Note_off_c, 2, 61, 87
1, 116248, Note_off_c, 2, 68, 87
1, 116354, Note_on_c, 2, 61, 71
1, 116354, Note_on_c, 9, 37, 109
1, 116354, Note_on_c, 9, 42, 100
1, 116356, Note_off_c, 10, 56, 67
1, 116356, Note_on_c, 2, 64, 79
1, 116356, Note_on_c, 2, 68, 81
1, 116356, Note_on_c, 10, 61, 92
1, 116358, Note_on_c, 5, 64, 100
1, 116402, Note_off_c, 7, 37, 80
1, 116414, Note_off_c, 9, 42, 100
1, 116434, Note_off_c, 2, 64, 79
1, 116434, Note_off_c, 9, 37, 109
1, 116436, Note_off_c, 2, 61, 71
1, 116450, Note_off_c, 2, 68, 81
1, 116492, Control_c, 4, 1, 7
1, 116510, Note_off_c, 5, 64, 100
1, 116530, Control_c, 4, 1, 19
1, 116546, Note_on_c, 9, 36, 68
1, 116546, Note_on_c, 9, 42, 75
1, 116546, Note_on_c, 7, 37, 82
1, 116548, Note_on_c, 2, 61, 85
1, 116548, Note_on_c, 2, 64, 92
1, 116548, Note_on_c, 2, 68, 92
1, 116550, Note_on_c, 10, 64, 100
1, 116550, Note_on_c, 5, 64, 93
1, 116562, Note_off_c, 10, 61, 92
1, 116566, Control_c, 4, 1, 26
1, 116600, Note_off_c, 9, 42, 75
1, 116606, Control_c, 4, 1, 35
1, 116622, Note_off_c, 9, 36, 68
1, 116630, Note_off_c, 7, 37, 82
1, 116642, Control_c, 4, 1, 37
1, 116682, Control_c, 4, 1, 42
1, 116686, Note_off_c, 5, 64, 93
1, 116716, Control_c, 4, 1, 47
1, 116734, Note_on_c, 5, 64, 93
1, 116738, Note_on_c, 9, 36, 107
1, 116738, Note_on_c, 9, 42, 105
1, 116740, Note_on_c, 7, 37, 93
1, 116766, Note_off_c, 2, 64, 92
1, 116770, Note_off_c, 2, 68, 92
1, 116774, Control_c, 4, 1, 52
1, 116778, Note_off_c, 2, 61, 85
1, 116790, Note_off_c, 3, 88, 115
1, 116810, Note_off_c, 9, 42, 105
1, 116842, Note_off_c, 9, 36, 107
1, 116856, Control_c, 4, 1, 59
1, 116878, Note_off_c, 5, 64, 93
1, 116898, Control_c, 4, 1, 61
1, 116922, Note_on_c, 5, 64, 91
1, 116930, Note_off_c, 10, 64, 100
1, 116930, Note_on_c, 2, 68, 94
1, 116930, Note_on_c, 9, 42, 75
1, 116932, Note_on_c, 2, 61, 92
1, 116932, Note_on_c, 2, 64, 98
1, 116932, Note_on_c, 10, 61, 79
1, 116942, Control_c, 4, 1, 65
1, 116986, Note_off_c, 9, 42, 75
1, 117002, Control_c, 4, 1, 67
1, 117066, Note_off_c, 5, 64, 91
1, 117084, Control_c, 4, 1, 72
1, 117110, Note_on_c, 5, 64, 91
1, 117122, Note_off_c, 10, 61, 79
1, 117122, Note_on_c, 10, 56, 66
1, 117122, Note_on_c, 9, 37, 109
1, 117122, Note_on_c, 9, 42, 102
1, 117158, Control_c, 4, 1, 74
1, 117186, Note_off_c, 9, 42, 102
1, 117198, Note_off_c, 2, 61, 92
1, 117198, Control_c, 4, 1, 77
1, 117202, Note_off_c, 2, 64, 98
1, 117202, Note_off_c, 2, 68, 94
1, 117202, Note_off_c, 7, 37, 93
1, 117222, Note_off_c, 9, 37, 109
1, 117236, Note_off_c, 5, 64, 91
1, 117304, Note_off_c, 10, 56, 66
1, 117306, Note_on_c, 5, 64, 93
1, 117314, Note_on_c, 2, 61, 79
1, 117314, Note_on_c, 9, 42, 66
1, 117314, Note_on_c, 7, 32, 78
1, 117316, Note_on_c, 2, 64, 83
1, 117316, Note_on_c, 2, 68, 87
1, 117316, Note_on_c, 10, 61, 63
1, 117366, Note_off_c, 9, 42, 66
1, 117398, Note_off_c, 2, 64, 83
1, 117442, Note_off_c, 2, 61, 79
1, 117462, Control_c, 4, 1, 70
1, 117484, Note_off_c, 7, 32, 78
1, 117498, Note_off_c, 10, 61, 63
1, 117498, Control_c, 4, 1, 54
1, 117506, Note_on_c, 9, 42, 94
1, 117508, Note_on_c, 9, 36, 112
1, 117508, Note_on_c, 7, 37, 86
1, 117514, Note_off_c, 2, 68, 87
1, 117534, Control_c, 4, 1, 30
1, 117564, Note_off_c, 9, 42, 94
1, 117564, Control_c, 4, 1, 0
1, 117596, Note_off_c, 9, 36, 112
1, 117670, Note_off_c, 4, 76, 109
1, 117678, Note_off_c, 4, 80, 100
1, 117698, Note_on_c, 9, 42, 67
1, 117698, Control_c, 5, 1, 3
1, 117700, Note_on_c, 2, 61, 79
1, 117700, Note_on_c, 2, 64, 85
1, 117700, Note_on_c, 2, 68, 87
1, 117702, Note_on_c, 10, 56, 75
1, 117738, Control_c, 5, 1, 5
1, 117746, Note_off_c, 2, 64, 85
1, 117758, Note_off_c, 9, 42, 67
1, 117764, Note_off_c, 2, 61, 79
1, 117768, Note_off_c, 2, 68, 87
1, 117778, Control_c, 5, 1, 7
1, 117846, Note_off_c, 5, 64, 93
1, 117884, Note_off_c, 10, 56, 75
1, 117884, Control_c, 5, 1, 0
1, 117890, Note_on_c, 9, 37, 114
1, 117890, Note_on_c, 9, 42, 96
1, 117890, Note_on_c, 5, 64, 98
1, 117892, Note_on_c, 2, 61, 63
1, 117892, Note_on_c, 2, 64, 63
1, 117892, Note_on_c, 2, 68, 68
1, 117892, Note_on_c, 10, 61, 79
1, 117930, Note_off_c, 7, 37, 86
1, 117946, Note_off_c, 2, 64, 63
1, 117950, Note_off_c, 9, 42, 96
1, 117958, Note_off_c, 2, 68, 68
1, 117958, Note_off_c, 2, 61, 63
1, 117970, Note_off_c, 9, 37, 114
1, 118034, Note_off_c, 5, 64, 98
1, 118082, Note_on_c, 9, 36, 77
1, 118082, Note_on_c, 9, 42, 81
1, 118082, Note_on_c, 7, 37, 74
1, 118084, Note_on_c, 2, 61, 79
1, 118084, Note_on_c, 2, 64, 79
1, 118084, Note_on_c, 2, 68, 83
1, 118084, Note_on_c, 10, 64, 94
1, 118086, Note_on_c, 5, 64, 93
1, 118098, Note_off_c, 10, 61, 79
1, 118146, Note_off_c, 9, 42, 81
1, 118154, Note_off_c, 7, 37, 74
1, 118158, Note_off_c, 9, 36, 77
1, 118220, Note_off_c, 5, 64, 93
1, 118274, Note_on_c, 9, 36, 112
1, 118274, Note_on_c, 9, 42, 107
1, 118276, Note_on_c, 7, 37, 76
1, 118276, Note_on_c, 5, 64, 91
1, 118338, Note_off_c, 2, 64, 79
1, 118340, Note_off_c, 2, 61, 79
1, 118346, Note_off_c, 7, 37, 76
1, 118346, Note_off_c, 9, 42, 107
1, 118346, Note_off_c, 2, 68, 83
1, 118364, Note_off_c, 9, 36, 112
1, 118410, Note_off_c, 5, 64, 91
1, 118462, Note_on_c, 5, 64, 89
1, 118466, Note_on_c, 9, 42, 81
1, 118466, Note_on_c, 7, 37, 82
1, 118468, Note_on_c, 2, 61, 73
1, 118468, Note_on_c, 2, 64, 79
1, 118468, Note_on_c, 2, 68, 77
1, 118468, Note_on_c, 10, 61, 66
1, 118472, Note_off_c, 10, 64, 94
1, 118526, Note_off_c, 9, 42, 81
1, 118580, Note_off_c, 5, 64, 89
1, 118638, Note_off_c, 2, 64, 79
1, 118650, Note_off_c, 2, 68, 77
1, 118654, Note_off_c, 10, 61, 66
1, 118654, Note_off_c, 2, 61, 73
1, 118658, Note_on_c, 10, 56, 75
1, 118658, Note_on_c, 9, 37, 112
1, 118658, Note_on_c, 9, 42, 100
1, 118666, Note_on_c, 5, 64, 87
1, 118722, Note_off_c, 9, 42, 100
1, 118748, Note_off_c, 9, 37, 112
1, 118750, Note_off_c, 7, 37, 82
1, 118782, Note_off_c, 5, 64, 87
1, 118826, Note_off_c, 10, 56, 75
1, 118850, Note_on_c, 9, 42, 77
1, 118850, Note_on_c, 7, 32, 91
1, 118852, Note_on_c, 2, 61, 73
1, 118852, Note_on_c, 2, 64, 79
1, 118852, Note_on_c, 2, 68, 77
1, 118852, Note_on_c, 10, 61, 66
1, 118854, Note_on_c, 5, 64, 89
1, 118898, Note_off_c, 9, 42, 77
1, 118978, Note_off_c, 10, 61, 66
1, 119030, Note_off_c, 7, 32, 91
1, 119042, Note_on_c, 9, 36, 114
1, 119044, Note_on_c, 9, 42, 98
1, 119044, Note_on_c, 7, 37, 97
1, 119090, Note_off_c, 2, 68, 77
1, 119096, Note_off_c, 2, 64, 79
1, 119096, Note_off_c, 2, 61, 73
1, 119110, Note_off_c, 9, 42, 98
1, 119118, Note_off_c, 9, 36, 114
1, 119234, Note_on_c, 2, 61, 75
1, 119234, Note_on_c, 2, 68, 69
1, 119234, Note_on_c, 9, 42, 70
1, 119236, Note_on_c, 2, 64, 75
1, 119236, Note_on_c, 10, 56, 81
1, 119282, Note_off_c, 9, 42, 70
1, 119298, Note_off_c, 2, 64, 75
1, 119298, Note_off_c, 2, 68, 69
1, 119302, Note_off_c, 2, 61, 75
1, 119330, Control_c, 5, 1, 5
1, 119378, Control_c, 5, 1, 11
1, 119414, Note_off_c, 10, 56, 81
1, 119426, Note_on_c, 9, 37, 114
1, 119426, Note_on_c, 9, 42, 96
1, 119428, Note_on_c, 2, 61, 65
1, 119428, Note_on_c, 2, 64, 67
1, 119428, Note_on_c, 2, 68, 71
1, 119428, Note_on_c, 10, 61, 83
1, 119442, Note_off_c, 7, 37, 97
1, 119446, Control_c, 5, 1, 16
1, 119482, Note_off_c, 2, 64, 67
1, 119486, Note_off_c, 9, 42, 96
1, 119490, Note_off_c, 2, 68, 71
1, 119490, Note_off_c, 2, 61, 65
1, 119506, Note_off_c, 9, 37, 114
1, 119602, Note_off_c, 10, 61, 83
1, 119618, Note_on_c, 9, 36, 79
1, 119618, Note_on_c, 9, 42, 71
1, 119618, Note_on_c, 7, 37, 78
1, 119620, Note_on_c, 2, 61, 73
1, 119620, Note_on_c, 2, 64, 81
1, 119620, Note_on_c, 2, 68, 77
1, 119620, Note_on_c, 10, 64, 98
1, 119634, Control_c, 5, 1, 18
1, 119668, Note_off_c, 9, 42, 71
1, 119682, Note_off_c, 7, 37, 78
1, 119682, Note_off_c, 9, 36, 79
1, 119702, Control_c, 5, 1, 21
1, 119790, Control_c, 5, 1, 0
1, 119810, Note_on_c, 9, 36, 114
1, 119810, Note_on_c, 9, 42, 102
1, 119812, Note_on_c, 7, 37, 88
1, 119868, Note_off_c, 2, 68, 77
1, 119868, Note_off_c, 2, 64, 81
1, 119868, Note_off_c, 2, 61, 73
1, 119874, Note_off_c, 9, 42, 102
1, 119898, Note_off_c, 5, 64, 89
1, 119910, Note_off_c, 9, 36, 114
1, 119990, Note_on_c, 5, 64, 93
1, 120002, Note_on_c, 2, 68, 73
1, 120002, Note_on_c, 9, 42, 79
1, 120004, Note_on_c, 2, 61, 66
1, 120004, Note_on_c, 2, 64, 75
1, 120004, Note_on_c, 10, 61, 75
1, 120010, Note_off_c, 10, 64, 98
1, 120052, Note_off_c, 9, 42, 79
1, 120124, Note_off_c, 5, 64, 93
1, 120182, Note_off_c, 10, 61, 75
1, 120190, Note_on_c, 5, 64, 107
1, 120194, Note_on_c, 10, 56, 69
1, 120194, Note_on_c, 9, 37, 117
1, 120194, Note_on_c, 9, 42, 102
1, 120236, Note_off_c, 9, 42, 102
1, 120260, Note_off_c, 9, 37, 117
1, 120270, Note_off_c, 2, 68, 73
1, 120276, Note_off_c, 2, 61, 66
1, 120286, Note_off_c, 2, 64, 75
1, 120348, Note_off_c, 10, 56, 69
1, 120370, Note_off_c, 5, 64, 107
1, 120378, Note_on_c, 5, 66, 93
1, 120386, Note_on_c, 2, 61, 69
1, 120386, Note_on_c, 2, 68, 75
1, 120386, Note_on_c, 9, 46, 89
1, 120388, Note_on_c, 2, 64, 73
1, 120388, Note_on_c, 10, 61, 65
1, 120428, Note_off_c, 9, 46, 89
1, 120460, Note_off_c, 7, 37, 88
1, 120468, Note_off_c, 10, 61, 65
1, 120532, Note_off_c, 5, 66, 93
1, 120540, Note_off_c, 2, 64, 73
1, 120540, Note_off_c, 2, 61, 69
1, 120546, Note_off_c, 2, 68, 75
1, 120558, Note_off_c, 0, 64, 69
1, 120568, Note_off_c, 0, 68, 75
1, 120572, Note_off_c, 0, 61, 60
1, 120578, Note_on_c, 9, 36, 117
1, 120578, Note_on_c, 9, 42, 98
1, 120580, Note_on_c, 0, 55, 98
1, 120580, Note_on_c, 0, 64, 100
1, 120580, Note_on_c, 7, 39, 84
1, 120582, Note_on_c, 0, 51, 77
1, 120582, Note_on_c, 10, 64, 110
1, 120590, Note_on_c, 5, 64, 107
1, 120648, Note_off_c, 9, 42, 98
1, 120692, Note_off_c, 9, 36, 117
1, 120742, Note_off_c, 10, 64, 110
1, 120762, Note_off_c, 0, 64, 100
1, 120770, Note_off_c, 5, 64, 107
1, 120770, Note_on_c, 0, 63, 94
1, 120770, Note_on_c, 2, 55, 87
1, 120770, Note_on_c, 9, 42, 61
1, 120772, Note_on_c, 2, 58, 79
1, 120772, Note_on_c, 2, 63, 79
1, 120772, Note_on_c, 10, 63, 77
1, 120778, Note_on_c, 5, 63, 102
1, 120834, Note_off_c, 9, 42, 61
1, 120842, Note_off_c, 2, 58, 79
1, 120854, Note_off_c, 2, 63, 79
1, 120854, Note_off_c, 2, 55, 87
1, 120948, Note_off_c, 5, 63, 102
1, 120952, Note_off_c, 10, 63, 77
1, 120958, Note_off_c, 0, 63, 94
1, 120958, Note_on_c, 5, 61, 89
1, 120962, Note_on_c, 0, 61, 85
1, 120962, Note_on_c, 9, 37, 94
1, 120962, Note_on_c, 9, 42, 92
1, 120964, Note_on_c, 2, 55, 87
1, 120964, Note_on_c, 2, 58, 85
1, 120964, Note_on_c, 2, 63, 85
1, 120964, Note_on_c, 10, 61, 69
1, 120990, Note_off_c, 7, 39, 84
1, 121028, Note_off_c, 9, 42, 92
1, 121038, Note_off_c, 2, 58, 85
1, 121048, Note_off_c, 2, 63, 85
1, 121048, Note_off_c, 2, 55, 87
1, 121058, Note_off_c, 9, 37, 94
1, 121130, Note_off_c, 10, 61, 69
1, 121150, Note_off_c, 5, 61, 89
1, 121154, Note_on_c, 9, 36, 69
1, 121154, Note_on_c, 9, 42, 79
1, 121154, Note_on_c, 7, 39, 86
1, 121156, Note_on_c, 0, 63, 71
1, 121156, Note_on_c, 2, 55, 73
1, 121156, Note_on_c, 2, 58, 77
1, 121156, Note_on_c, 2, 63, 75
1, 121158, Note_on_c, 10, 63, 85
1, 121160, Note_off_c, 0, 61, 85
1, 121160, Note_on_c, 5, 63, 85
1, 121214, Note_off_c, 9, 42, 79
1, 121234, Note_off_c, 9, 36, 69
1, 121236, Note_off_c, 7, 39, 86
1, 121308, Note_off_c, 2, 58, 77
1, 121322, Note_off_c, 2, 55, 73
1, 121330, Note_off_c, 2, 63, 75
1, 121346, Note_on_c, 9, 36, 107
1, 121346, Note_on_c, 9, 42, 100
1, 121348, Note_on_c, 7, 39, 95
1, 121416, Note_off_c, 9, 42, 100
1, 121460, Note_off_c, 9, 36, 107
1, 121538, Note_on_c, 3, 63, 110
1, 121538, Note_on_c, 3, 67, 110
1, 121538, Note_on_c, 9, 42, 65
1, 121540, Note_on_c, 2, 55, 81
1, 121540, Note_on_c, 2, 63, 73
1, 121540, Note_on_c, 4, 63, 114
1, 121540, Note_on_c, 4, 67, 114
1, 121542, Note_on_c, 2, 58, 69
1, 121542, Note_on_c, 10, 58, 73
1, 121550, Note_off_c, 10, 63, 85
1, 121596, Note_off_c, 9, 42, 65
1, 121684, Note_off_c, 4, 63, 114
1, 121690, Note_off_c, 2, 58, 69
1, 121690, Note_off_c, 3, 63, 110
1, 121694, Note_off_c, 2, 55, 81
1, 121700, Note_off_c, 2, 63, 73
1, 121722, Note_off_c, 10, 58, 73
1, 121726, Note_off_c, 3, 67, 110
1, 121730, Note_on_c, 3, 65, 110
1, 121730, Note_on_c, 3, 68, 94
1, 121730, Note_on_c, 9, 37, 109
1, 121730, Note_on_c, 9, 42, 98
1, 121732, Note_on_c, 10, 55, 73
1, 121732, Note_on_c, 4, 65, 112
1, 121732, Note_on_c, 4, 68, 102
1, 121734, Note_off_c, 4, 67, 114
1, 121798, Note_off_c, 9, 42, 98
1, 121826, Note_off_c, 9, 37, 109
1, 121850, Control_c, 5, 1, 2
1, 121860, Note_off_c, 4, 65, 112
1, 121874, Note_off_c, 3, 65, 110
1, 121882, Control_c, 5, 1, 5
1, 121902, Note_off_c, 7, 39, 95
1, 121906, Note_off_c, 4, 68, 102
1, 121906, Note_off_c, 3, 68, 94
1, 121914, Note_off_c, 10, 55, 73
1, 121922, Note_on_c, 3, 67, 107
1, 121922, Note_on_c, 3, 70, 100
1, 121922, Note_on_c, 9, 42, 67
1, 121924, Note_on_c, 7, 34, 78
1, 121924, Note_on_c, 4, 67, 109
1, 121924, Note_on_c, 4, 70, 98
1, 121926, Note_on_c, 2, 55, 71
1, 121926, Note_on_c, 2, 58, 64
1, 121926, Note_on_c, 2, 63, 65
1, 121926, Note_on_c, 10, 58, 60
1, 121938, Control_c, 5, 1, 11
1, 121978, Control_c, 5, 1, 18
1, 121986, Note_off_c, 9, 42, 67
1, 122036, Control_c, 5, 1, 23
1, 122066, Control_c, 5, 1, 25
1, 122102, Note_off_c, 7, 34, 78
1, 122114, Note_on_c, 9, 36, 100
1, 122114, Note_on_c, 9, 42, 98
1, 122116, Note_on_c, 7, 27, 93
1, 122126, Note_off_c, 10, 58, 60
1, 122130, Note_off_c, 2, 55, 71
1, 122134, Control_c, 5, 1, 28
1, 122142, Note_off_c, 2, 58, 64
1, 122164, Note_off_c, 2, 63, 65
1, 122188, Note_off_c, 9, 42, 98
1, 122232, Note_off_c, 9, 36, 100
1, 122254, Note_off_c, 3, 67, 107
1, 122258, Note_off_c, 3, 70, 100
1, 122282, Note_off_c, 4, 67, 109
1, 122286, Note_off_c, 4, 70, 98
1, 122306, Note_on_c, 3, 68, 92
1, 122306, Note_on_c, 3, 71, 98
1, 122306, Note_on_c, 9, 42, 68
1, 122308, Note_on_c, 2, 55, 85
1, 122308, Note_on_c, 2, 63, 73
1, 122308, Note_on_c, 4, 68, 96
1, 122308, Note_on_c, 4, 71, 107
1, 122310, Note_on_c, 2, 58, 79
1, 122310, Note_on_c, 10, 55, 92
1, 122374, Note_off_c, 9, 42, 68
1, 122404, Note_off_c, 4, 68, 96
1, 122404, Note_off_c, 3, 68, 92
1, 122408, Note_off_c, 4, 71, 107
1, 122422, Note_off_c, 3, 71, 98
1, 122490, Note_off_c, 2, 55, 85
1, 122498, Note_on_c, 3, 73, 94
1, 122498, Note_on_c, 9, 37, 109
1, 122498, Note_on_c, 9, 42, 98
1, 122500, Note_on_c, 3, 70, 98
1, 122500, Note_on_c, 4, 70, 107
1, 122500, Note_on_c, 4, 73, 102
1, 122502, Note_off_c, 2, 58, 79
1, 122502, Note_on_c, 10, 58, 81
1, 122506, Note_off_c, 10, 55, 92
1, 122518, Control_c, 5, 1, 17
1, 122522, Note_off_c, 2, 63, 73
1, 122556, Control_c, 5, 1, 0
1, 122562, Note_off_c, 9, 42, 98
1, 122574, Note_off_c, 7, 27, 93
1, 122582, Note_off_c, 5, 63, 85
1, 122584, Note_off_c, 9, 37, 109
1, 122598, Note_off_c, 4, 70, 107
1, 122606, Note_off_c, 3, 70, 98
1, 122614, Note_off_c, 4, 73, 102
1, 122622, Note_off_c, 3, 73, 94
1, 122642, Note_off_c, 10, 58, 81
1, 122690, Note_on_c, 9, 36, 102
1, 122690, Note_on_c, 9, 42, 89
1, 122692, Note_on_c, 3, 71, 110
1, 122692, Note_on_c, 3, 75, 87
1, 122692, Note_on_c, 7, 27, 76
1, 122692, Note_on_c, 4, 75, 83
1, 122694, Note_on_c, 2, 55, 81
1, 122694, Note_on_c, 2, 58, 71
1, 122694, Note_on_c, 2, 63, 73
1, 122694, Note_on_c, 4, 71, 105
1, 122696, Note_on_c, 10, 63, 81
1, 122746, Note_off_c, 0, 55, 98
1, 122754, Note_off_c, 9, 42, 89
1, 122766, Note_off_c, 9, 36, 102
1, 122774, Note_off_c, 2, 58, 71
1, 122778, Note_off_c, 2, 55, 81
1, 122778, Note_off_c, 0, 51, 77
1, 122790, Note_off_c, 0, 63, 71
1, 122794, Note_off_c, 2, 63, 73
1, 122830, Note_off_c, 10, 63, 81
1, 122844, Note_off_c, 7, 27, 76
1, 122882, Note_on_c, 9, 36, 117
1, 122882, Note_on_c, 9, 42, 92
1, 122884, Note_on_c, 0, 56, 81
1, 122884, Note_on_c, 0, 63, 77
1, 122884, Note_on_c, 7, 32, 76
1, 122902, Note_off_c, 3, 71, 110
1, 122916, Note_off_c, 3, 75, 87
1, 122946, Note_off_c, 9, 42, 92
1, 122986, Note_off_c, 9, 36, 117
1, 123002, Note_off_c, 4, 71, 105
1, 123002, Note_off_c, 4, 75, 83
1, 123036, Pitch_bend_c, 4, 6925
1, 123054, Pitch_bend_c, 4, 5152
1, 123074, Note_on_c, 3, 82, 112
1, 123074, Note_on_c, 3, 85, 98
1, 123074, Note_on_c, 9, 42, 66
1, 123076, Note_on_c, 4, 82, 109
1, 123076, Note_on_c, 4, 85, 112
1, 123076, Pitch_bend_c, 4, 3801
1, 123078, Note_on_c, 0, 70, 71
1, 123078, Note_on_c, 0, 73, 73
1, 123078, Note_on_c, 2, 56, 85
1, 123078, Note_on_c, 2, 59, 92
1, 123080, Note_on_c, 2, 63, 68
1, 123080, Note_on_c, 10, 56, 85
1, 123086, Note_off_c, 0, 63, 77
1, 123090, Pitch_bend_c, 4, 3379
1, 123126, Pitch_bend_c, 4, 3970
1, 123138, Note_off_c, 9, 42, 66
1, 123140, Pitch_bend_c, 4, 6588
1, 123162, Pitch_bend_c, 4, 8192
1, 123266, Note_off_c, 10, 56, 85
1, 123266, Note_off_c, 7, 32, 76
1, 123266, Note_on_c, 9, 42, 92
1, 123268, Note_on_c, 10, 59, 83
1, 123268, Note_on_c, 9, 37, 92
1, 123298, Note_off_c, 2, 59, 92
1, 123300, Note_off_c, 2, 56, 85
1, 123302, Note_off_c, 2, 63, 68
1, 123334, Note_off_c, 9, 42, 92
1, 123342, Note_off_c, 9, 37, 92
1, 123426, Note_off_c, 10, 59, 83
1, 123458, Note_on_c, 9, 36, 68
1, 123458, Note_on_c, 9, 42, 83
1, 123458, Note_on_c, 7, 32, 93
1, 123460, Note_on_c, 2, 56, 85
1, 123460, Note_on_c, 2, 59, 92
1, 123460, Note_on_c, 2, 63, 77
1, 123462, Note_on_c, 10, 63, 92
1, 123518, Note_off_c, 9, 42, 83
1, 123530, Note_off_c, 7, 32, 93
1, 123534, Note_off_c, 2, 56, 85
1, 123534, Note_off_c, 9, 36, 68
1, 123538, Note_off_c, 2, 63, 77
1, 123538, Note_off_c, 2, 59, 92
1, 123650, Note_on_c, 9, 36, 100
1, 123652, Note_on_c, 9, 42, 102
1, 123652, Note_on_c, 7, 32, 93
1, 123724, Note_off_c, 9, 42, 102
1, 123772, Note_off_c, 9, 36, 100
1, 123796, Note_off_c, 0, 73, 73
1, 123800, Note_off_c, 0, 70, 71
1, 123800, Note_off_c, 4, 85, 112
1, 123810, Note_off_c, 4, 82, 109
1, 123810, Note_off_c, 3, 85, 98
1, 123810, Note_off_c, 3, 82, 112
1, 123830, Note_off_c, 10, 63, 92
1, 123842, Note_on_c, 3, 80, 107
1, 123842, Note_on_c, 3, 83, 107
1, 123842, Note_on_c, 9, 42, 67
1, 123844, Note_on_c, 0, 71, 109
1, 123844, Note_on_c, 4, 80, 117
1, 123844, Note_on_c, 4, 83, 112
1, 123844, Note_on_c, 4, 85, 64
1, 123846, Note_on_c, 0, 68, 94
1, 123846, Note_on_c, 2, 56, 83
1, 123846, Note_on_c, 2, 59, 96
1, 123846, Note_on_c, 2, 63, 79
1, 123848, Note_on_c, 10, 59, 79
1, 123862, Note_off_c, 4, 85, 64
1, 123902, Note_off_c, 9, 42, 67
1, 123930, Note_off_c, 2, 56, 83
1, 123942, Note_off_c, 2, 63, 79
1, 123942, Note_off_c, 2, 59, 96
1, 124006, Note_off_c, 0, 68, 94
1, 124018, Note_off_c, 4, 83, 112
1, 124018, Note_off_c, 4, 80, 117
1, 124020, Note_off_c, 0, 71, 109
1, 124024, Note_off_c, 10, 59, 79
1, 124024, Note_off_c, 3, 80, 107
1, 124034, Note_on_c, 3, 79, 112
1, 124034, Note_on_c, 9, 37, 107
1, 124034, Note_on_c, 9, 42, 100
1, 124036, Note_on_c, 3, 82, 110
1, 124036, Note_on_c, 4, 79, 107
1, 124036, Note_on_c, 4, 82, 105
1, 124038, Note_on_c, 0, 67, 94
1, 124038, Note_on_c, 0, 70, 94
1, 124038, Note_on_c, 2, 56, 73
1, 124038, Note_on_c, 2, 59, 92
1, 124040, Note_off_c, 3, 83, 107
1, 124040, Note_on_c, 2, 63, 77
1, 124040, Note_on_c, 10, 56, 53
1, 124046, Note_off_c, 7, 32, 93
1, 124106, Note_off_c, 9, 42, 100
1, 124114, Note_off_c, 2, 63, 77
1, 124114, Note_off_c, 2, 59, 92
1, 124114, Note_off_c, 2, 56, 73
1, 124146, Note_off_c, 0, 67, 94
1, 124154, Note_off_c, 9, 37, 107
1, 124168, Note_off_c, 4, 79, 107
1, 124182, Note_off_c, 10, 56, 53
1, 124194, Note_off_c, 3, 79, 112
1, 124210, Note_off_c, 0, 70, 94
1, 124210, Note_off_c, 4, 82, 105
1, 124222, Note_off_c, 3, 82, 110
1, 124226, Note_on_c, 3, 83, 94
1, 124226, Note_on_c, 9, 42, 60
1, 124228, Note_on_c, 3, 80, 94
1, 124228, Note_on_c, 7, 27, 95
1, 124228, Note_on_c, 4, 80, 109
1, 124228, Note_on_c, 4, 83, 112
1, 124230, Note_on_c, 0, 68, 79
1, 124230, Note_on_c, 0, 71, 94
1, 124230, Note_on_c, 2, 59, 94
1, 124232, Note_on_c, 2, 56, 77
1, 124232, Note_on_c, 2, 63, 77
1, 124232, Note_on_c, 10, 59, 66
1, 124290, Note_off_c, 9, 42, 60
1, 124312, Note_off_c, 2, 56, 77
1, 124312, Note_off_c, 2, 59, 94
1, 124316, Note_off_c, 2, 63, 77
1, 124392, Note_off_c, 10, 59, 66
1, 124398, Note_off_c, 7, 27, 95
1, 124418, Note_on_c, 9, 36, 109
1, 124418, Note_on_c, 9, 42, 100
1, 124420, Note_on_c, 7, 32, 93
1, 124498, Note_off_c, 9, 42, 100
1, 124534, Note_off_c, 9, 36, 109
1, 124610, Note_on_c, 2, 59, 96
1, 124610, Note_on_c, 2, 63, 79
1, 124610, Note_on_c, 9, 42, 64
1, 124612, Note_on_c, 2, 56, 90
1, 124612, Note_on_c, 10, 56, 69
1, 124674, Note_off_c, 9, 42, 64
1, 124764, Control_c, 4, 1, 8
1, 124778, Note_off_c, 10, 56, 69
1, 124802, Note_on_c, 9, 37, 107
1, 124802, Note_on_c, 9, 42, 100
1, 124802, Control_c, 4, 1, 18
1, 124804, Note_on_c, 10, 59, 90
1, 124822, Note_off_c, 7, 32, 93
1, 124828, Note_off_c, 2, 59, 96
1, 124834, Note_off_c, 2, 56, 90
1, 124838, Control_c, 4, 1, 26
1, 124842, Note_off_c, 2, 63, 79
1, 124874, Note_off_c, 9, 42, 100
1, 124894, Note_off_c, 9, 37, 107
1, 124900, Control_c, 4, 1, 33
1, 124930, Control_c, 4, 1, 38
1, 124978, Note_off_c, 10, 59, 90
1, 124986, Control_c, 4, 1, 40
1, 124994, Note_on_c, 9, 36, 70
1, 124994, Note_on_c, 9, 42, 67
1, 124994, Note_on_c, 7, 32, 91
1, 124996, Note_on_c, 2, 56, 71
1, 124996, Note_on_c, 2, 59, 79
1, 124996, Note_on_c, 2, 63, 75
1, 124998, Note_on_c, 10, 63, 85
1, 125052, Note_off_c, 7, 32, 91
1, 125058, Control_c, 4, 1, 45
1, 125062, Note_off_c, 9, 42, 67
1, 125066, Note_off_c, 2, 56, 71
1, 125070, Note_off_c, 2, 59, 79
1, 125078, Note_off_c, 2, 63, 75
1, 125078, Note_off_c, 9, 36, 70
1, 125094, Control_c, 4, 1, 50
1, 125186, Note_on_c, 9, 36, 102
1, 125186, Note_on_c, 9, 42, 102
1, 125188, Note_on_c, 7, 32, 97
1, 125214, Control_c, 4, 1, 52
1, 125268, Note_off_c, 9, 42, 102
1, 125316, Note_off_c, 9, 36, 102
1, 125350, Control_c, 4, 1, 57
1, 125354, Note_off_c, 10, 63, 85
1, 125358, Note_off_c, 3, 80, 94
1, 125378, Note_off_c, 3, 83, 94
1, 125378, Note_on_c, 2, 56, 92
1, 125378, Note_on_c, 2, 59, 96
1, 125378, Note_on_c, 9, 42, 77
1, 125380, Note_on_c, 2, 63, 87
1, 125380, Note_on_c, 10, 59, 77
1, 125442, Note_off_c, 9, 42, 77
1, 125482, Note_off_c, 2, 59, 96
1, 125486, Note_off_c, 2, 56, 92
1, 125498, Note_off_c, 2, 63, 87
1, 125554, Note_off_c, 10, 59, 77
1, 125562, Note_on_c, 5, 59, 100
1, 125570, Note_on_c, 2, 56, 64
1, 125570, Note_on_c, 2, 59, 81
1, 125570, Note_on_c, 9, 37, 117
1, 125570, Note_on_c, 9, 42, 100
1, 125572, Note_on_c, 2, 63, 65
1, 125572, Note_on_c, 10, 56, 69
1, 125596, Control_c, 4, 1, 59
1, 125630, Note_off_c, 9, 42, 100
1, 125644, Note_off_c, 4, 83, 112
1, 125650, Note_off_c, 4, 80, 109
1, 125658, Note_off_c, 2, 59, 81
1, 125662, Note_off_c, 9, 37, 117
1, 125662, Control_c, 4, 1, 30
1, 125666, Note_off_c, 2, 56, 64
1, 125672, Note_off_c, 2, 63, 65
1, 125698, Control_c, 4, 1, 0
1, 125730, Note_off_c, 10, 56, 69
1, 125738, Note_off_c, 7, 32, 97
1, 125748, Note_on_c, 5, 61, 93
1, 125752, Note_off_c, 5, 59, 100
1, 125762, Note_on_c, 2, 56, 85
1, 125762, Note_on_c, 2, 59, 90
1, 125762, Note_on_c, 9, 46, 77
1, 125764, Note_on_c, 2, 63, 83
1, 125764, Note_on_c, 10, 59, 58
1, 125794, Note_off_c, 0, 56, 81
1, 125812, Note_off_c, 9, 46, 77
1, 125828, Note_off_c, 10, 59, 58
1, 125842, Note_off_c, 2, 59, 90
1, 125854, Note_off_c, 2, 56, 85
1, 125864, Note_off_c, 2, 63, 83
1, 125918, Note_off_c, 5, 61, 93
1, 125932, Note_off_c, 0, 68, 79
1, 125934, Note_on_c, 5, 59, 105
1, 125946, Note_off_c, 0, 71, 94
1, 125954, Note_on_c, 9, 36, 114
1, 125956, Note_on_c, 0, 67, 59
1, 125956, Note_on_c, 9, 42, 107
1, 125956, Note_on_c, 7, 39, 99
1, 125958, Note_on_c, 0, 61, 68
1, 125958, Note_on_c, 0, 63, 43
1, 126034, Note_off_c, 9, 42, 107
1, 126066, Note_off_c, 9, 36, 114
1, 126126, Note_off_c, 5, 59, 105
1, 126142, Note_on_c, 5, 58, 91
1, 126146, Note_on_c, 2, 53, 59
1, 126146, Note_on_c, 2, 63, 85
1, 126146, Note_on_c, 9, 42, 57
1, 126148, Note_on_c, 2, 55, 66
1, 126148, Note_on_c, 2, 58, 71
1, 126148, Note_on_c, 10, 55, 90
1, 126194, Note_off_c, 2, 53, 59
1, 126210, Note_off_c, 9, 42, 57
1, 126314, Note_off_c, 10, 55, 90
1, 126318, Note_off_c, 5, 58, 91
1, 126322, Note_on_c, 5, 56, 89
1, 126338, Note_on_c, 10, 58, 75
1, 126338, Note_on_c, 9, 37, 112
1, 126338, Note_on_c, 9, 42, 98
1, 126366, Note_off_c, 2, 55, 66
1, 126380, Note_off_c, 2, 58, 71
1, 126388, Note_off_c, 7, 39, 99
1, 126402, Note_off_c, 2, 63, 85
1, 126408, Note_off_c, 9, 42, 98
1, 126434, Note_off_c, 9, 37, 112
1, 126490, Note_off_c, 10, 58, 75
1, 126514, Note_off_c, 5, 56, 89
1, 126524, Note_on_c, 5, 58, 87
1, 126530, Note_on_c, 9, 36, 81
1, 126530, Note_on_c, 9, 42, 62
1, 126530, Note_on_c, 7, 39, 88
1, 126532, Note_on_c, 2, 55, 87
1, 126532, Note_on_c, 2, 58, 75
1, 126532, Note_on_c, 2, 63, 81
1, 126532, Note_on_c, 10, 63, 87
1, 126594, Note_off_c, 7, 39, 88
1, 126602, Note_off_c, 9, 42, 62
1, 126606, Note_off_c, 9, 36, 81
1, 126610, Note_off_c, 2, 58, 75
1, 126618, Note_off_c, 2, 55, 87
1, 126622, Note_off_c, 2, 63, 81
1, 126722, Note_on_c, 9, 36, 112
1, 126722, Note_on_c, 9, 42, 112
1, 126724, Note_on_c, 7, 39, 95
1, 126806, Note_off_c, 9, 42, 112
1, 126840, Note_off_c, 9, 36, 112
1, 126884, Note_off_c, 10, 63, 87
1, 126910, Note_on_c, 4, 67, 107
1, 126914, Note_on_c, 3, 67, 112
1, 126914, Note_on_c, 3, 75, 100
1, 126914, Note_on_c, 9, 42, 64
1, 126916, Note_on_c, 2, 55, 92
1, 126916, Note_on_c, 2, 58, 83
1, 126916, Note_on_c, 2, 63, 83
1, 126916, Note_on_c, 10, 58, 65
1, 126918, Note_on_c, 4, 75, 102
1, 126974, Note_off_c, 9, 42, 64
1, 127050, Note_off_c, 2, 55, 92
1, 127058, Note_off_c, 2, 58, 83
1, 127066, Note_off_c, 4, 75, 102
1, 127068, Note_off_c, 2, 63, 83
1, 127068, Note_off_c, 4, 67, 107
1, 127074, Note_off_c, 3, 75, 100
1, 127076, Note_off_c, 3, 67, 112
1, 127090, Note_off_c, 10, 58, 65
1, 127102, Control_c, 5, 1, 1
1, 127106, Note_on_c, 3, 68, 103
1, 127106, Note_on_c, 3, 75, 98
1, 127106, Note_on_c, 9, 37, 117
1, 127106, Note_on_c, 9, 42, 105
1, 127108, Note_on_c, 2, 58, 81
1, 127108, Note_on_c, 4, 68, 107
1, 127108, Note_on_c, 4, 75, 110
1, 127110, Note_on_c, 2, 55, 79
1, 127110, Note_on_c, 2, 63, 77
1, 127110, Note_on_c, 10, 55, 68
1, 127134, Control_c, 5, 1, 4
1, 127174, Control_c, 5, 1, 7
1, 127180, Note_off_c, 9, 42, 105
1, 127198, Note_off_c, 2, 55, 79
1, 127202, Note_off_c, 2, 58, 81
1, 127210, Note_off_c, 9, 37, 117
1, 127214, Control_c, 5, 1, 15
1, 127226, Note_off_c, 2, 63, 77
1, 127250, Control_c, 5, 1, 18
1, 127256, Note_off_c, 3, 75, 98
1, 127260, Note_off_c, 4, 75, 110
1, 127266, Note_off_c, 4, 68, 107
1, 127266, Note_off_c, 3, 68, 103
1, 127266, Note_off_c, 7, 39, 95
1, 127292, Note_off_c, 10, 55, 68
1, 127298, Note_on_c, 3, 70, 110
1, 127298, Note_on_c, 3, 75, 100
1, 127298, Note_on_c, 9, 42, 59
1, 127300, Note_on_c, 2, 55, 75
1, 127300, Note_on_c, 2, 63, 75
1, 127300, Note_on_c, 7, 34, 93
1, 127302, Note_on_c, 2, 58, 77
1, 127302, Note_on_c, 10, 58, 65
1, 127302, Note_on_c, 4, 75, 113
1, 127306, Note_on_c, 4, 70, 107
1, 127322, Control_c, 5, 1, 23
1, 127358, Note_off_c, 9, 42, 59
1, 127362, Control_c, 5, 1, 25
1, 127400, Note_off_c, 10, 58, 65
1, 127418, Control_c, 5, 1, 28
1, 127482, Note_off_c, 7, 34, 93
1, 127486, Note_off_c, 2, 55, 75
1, 127490, Note_on_c, 9, 42, 98
1, 127492, Note_on_c, 0, 75, 64
1, 127492, Note_on_c, 9, 36, 114
1, 127492, Note_on_c, 7, 27, 95
1, 127498, Note_off_c, 2, 58, 77
1, 127506, Control_c, 5, 1, 32
1, 127512, Note_off_c, 0, 67, 59
1, 127514, Note_off_c, 2, 63, 75
1, 127558, Note_off_c, 9, 42, 98
1, 127566, Control_c, 5, 1, 35
1, 127588, Note_off_c, 4, 75, 113
1, 127602, Note_off_c, 3, 75, 100
1, 127606, Note_off_c, 9, 36, 114
1, 127614, Note_off_c, 4, 70, 107
1, 127618, Note_off_c, 3, 70, 110
1, 127646, Control_c, 5, 1, 36
1, 127682, Note_on_c, 3, 70, 107
1, 127682, Note_on_c, 3, 73, 94
1, 127682, Note_on_c, 9, 42, 66
1, 127684, Note_on_c, 2, 55, 90
1, 127684, Note_on_c, 4, 70, 113
1, 127684, Note_on_c, 4, 73, 111
1, 127686, Note_on_c, 2, 58, 79
1, 127686, Note_on_c, 2, 63, 87
1, 127686, Note_on_c, 10, 55, 81
1, 127706, Control_c, 5, 1, 38
1, 127742, Note_off_c, 9, 42, 66
1, 127762, Control_c, 5, 1, 42
1, 127810, Note_off_c, 3, 70, 107
1, 127844, Note_off_c, 4, 73, 111
1, 127850, Note_off_c, 10, 55, 81
1, 127866, Note_off_c, 3, 73, 94
1, 127874, Note_off_c, 4, 70, 113
1, 127874, Note_on_c, 9, 37, 112
1, 127874, Note_on_c, 9, 42, 96
1, 127876, Note_on_c, 3, 68, 105
1, 127876, Note_on_c, 3, 71, 107
1, 127876, Note_on_c, 4, 68, 101
1, 127878, Note_on_c, 10, 58, 73
1, 127878, Note_on_c, 4, 71, 93
1, 127934, Note_off_c, 2, 55, 90
1, 127938, Note_off_c, 9, 42, 96
1, 127950, Note_off_c, 2, 58, 79
1, 127958, Note_off_c, 9, 37, 112
1, 127970, Note_off_c, 2, 63, 87
1, 128002, Control_c, 5, 1, 37
1, 128014, Note_off_c, 10, 58, 73
1, 128036, Note_off_c, 3, 68, 105
1, 128038, Control_c, 5, 1, 23
1, 128042, Note_off_c, 4, 71, 93
1, 128042, Note_off_c, 4, 68, 101
1, 128046, Note_off_c, 3, 71, 107
1, 128058, Note_off_c, 7, 27, 95
1, 128066, Note_on_c, 3, 67, 107
1, 128066, Note_on_c, 9, 36, 67
1, 128066, Note_on_c, 9, 42, 75
1, 128068, Note_on_c, 3, 70, 94
1, 128068, Note_on_c, 7, 34, 97
1, 128068, Note_on_c, 4, 67, 125
1, 128068, Note_on_c, 4, 70, 113
1, 128070, Note_on_c, 2, 55, 90
1, 128070, Note_on_c, 2, 58, 73
1, 128070, Note_on_c, 2, 63, 81
1, 128072, Note_on_c, 10, 63, 110
1, 128078, Control_c, 5, 1, 11
1, 128118, Control_c, 5, 1, 5
1, 128126, Note_off_c, 9, 42, 75
1, 128132, Note_off_c, 9, 36, 67
1, 128158, Control_c, 5, 1, 0
1, 128244, Note_off_c, 2, 55, 90
1, 128248, Note_off_c, 7, 34, 97
1, 128258, Note_on_c, 9, 36, 114
1, 128258, Note_on_c, 9, 42, 109
1, 128260, Note_on_c, 7, 39, 93
1, 128270, Note_off_c, 2, 58, 73
1, 128296, Note_off_c, 2, 63, 81
1, 128316, Note_off_c, 5, 58, 87
1, 128330, Note_off_c, 9, 42, 109
1, 128382, Note_off_c, 9, 36, 114
1, 128446, Note_off_c, 10, 63, 110
1, 128450, Note_on_c, 2, 63, 77
1, 128450, Note_on_c, 9, 42, 70
1, 128452, Note_on_c, 2, 55, 77
1, 128452, Note_on_c, 2, 58, 73
1, 128452, Note_on_c, 10, 58, 77
1, 128454, Note_on_c, 5, 58, 72
1, 128504, Note_off_c, 9, 42, 70
1, 128534, Note_off_c, 2, 55, 77
1, 128536, Note_off_c, 2, 58, 73
1, 128546, Note_off_c, 2, 63, 77
1, 128554, Note_off_c, 5, 58, 72
1, 128642, Note_on_c, 2, 55, 77
1, 128642, Note_on_c, 9, 37, 112
1, 128642, Note_on_c, 9, 42, 94
1, 128644, Note_on_c, 2, 58, 71
1, 128644, Note_on_c, 2, 63, 85
1, 128644, Note_on_c, 10, 55, 92
1, 128646, Note_on_c, 5, 58, 98
1, 128652, Note_off_c, 10, 58, 77
1, 128702, Note_off_c, 9, 42, 94
1, 128702, Note_off_c, 7, 39, 93
1, 128718, Note_off_c, 4, 67, 125
1, 128722, Note_off_c, 9, 37, 112
1, 128734, Note_off_c, 4, 70, 113
1, 128746, Note_off_c, 2, 58, 71
1, 128746, Note_off_c, 2, 55, 77
1, 128756, Note_off_c, 2, 63, 85
1, 128834, Note_on_c, 9, 46, 85
1, 128834, Note_on_c, 5, 60, 82
1, 128836, Note_on_c, 2, 55, 92
1, 128836, Note_on_c, 2, 58, 90
1, 128836, Note_on_c, 2, 63, 87
1, 128836, Note_on_c, 7, 34, 88
1, 128838, Note_off_c, 5, 58, 98
1, 128838, Note_off_c, 3, 67, 107
1, 128838, Note_on_c, 10, 58, 75
1, 128846, Note_off_c, 3, 70, 94
1, 128862, Note_off_c, 10, 55, 92
1, 128890, Note_off_c, 9, 46, 85
1, 128904, Note_off_c, 2, 55, 92
1, 128914, Note_off_c, 2, 58, 90
1, 128942, Note_off_c, 2, 63, 87
1, 128982, Note_off_c, 10, 58, 75
1, 128996, Note_off_c, 0, 61, 68
1, 129000, Note_off_c, 0, 63, 43
1, 129016, Note_off_c, 5, 60, 82
1, 129016, Note_on_c, 5, 58, 82
1, 129020, Note_off_c, 7, 34, 88
1, 129026, Note_on_c, 9, 36, 107
1, 129026, Note_on_c, 9, 42, 102
1, 129028, Note_on_c, 0, 72, 68
1, 129028, Note_on_c, 0, 80, 66
1, 129028, Note_on_c, 7, 32, 91
1, 129038, Note_off_c, 0, 75, 64
1, 129102, Note_off_c, 9, 42, 102
1, 129118, Note_off_c, 9, 36, 107
1, 129210, Note_on_c, 5, 56, 82
1, 129218, Note_on_c, 2, 60, 85
1, 129218, Note_on_c, 2, 68, 87
1, 129218, Note_on_c, 9, 42, 63
1, 129220, Note_on_c, 2, 63, 83
1, 129220, Note_on_c, 10, 56, 79
1, 129236, Note_off_c, 5, 58, 82
1, 129282, Note_off_c, 9, 42, 63
1, 129384, Note_off_c, 5, 56, 82
1, 129396, Note_off_c, 10, 56, 79
1, 129398, Note_on_c, 5, 55, 87
1, 129410, Note_on_c, 9, 37, 112
1, 129410, Note_on_c, 9, 42, 98
1, 129412, Note_on_c, 10, 60, 77
1, 129420, Note_off_c, 7, 32, 91
1, 129442, Note_off_c, 2, 60, 85
1, 129458, Note_off_c, 2, 68, 87
1, 129460, Note_off_c, 2, 63, 83
1, 129476, Note_off_c, 9, 42, 98
1, 129490, Note_off_c, 9, 37, 112
1, 129576, Note_off_c, 5, 55, 87
1, 129578, Note_off_c, 10, 60, 77
1, 129598, Note_on_c, 5, 56, 78
1, 129602, Note_on_c, 9, 36, 94
1, 129602, Note_on_c, 9, 42, 87
1, 129602, Note_on_c, 7, 32, 95
1, 129604, Note_on_c, 2, 60, 83
1, 129604, Note_on_c, 2, 63, 77
1, 129604, Note_on_c, 2, 68, 81
1, 129604, Note_on_c, 10, 63, 83
1, 129652, Note_off_c, 9, 42, 87
1, 129670, Note_off_c, 7, 32, 95
1, 129670, Note_off_c, 9, 36, 94
1, 129732, Note_off_c, 2, 60, 83
1, 129764, Note_off_c, 2, 63, 77
1, 129774, Note_off_c, 2, 68, 81
1, 129794, Note_on_c, 9, 36, 109
1, 129794, Note_on_c, 9, 42, 98
1, 129796, Note_on_c, 7, 32, 99
1, 129860, Note_off_c, 9, 42, 98
1, 129890, Note_off_c, 9, 36, 109
1, 129972, Note_off_c, 10, 63, 83
1, 129986, Note_on_c, 3, 72, 107
1, 129986, Note_on_c, 9, 42, 87
1, 129986, Note_on_c, 4, 68, 120
1, 129988, Note_on_c, 0, 68, 77
1, 129988, Note_on_c, 2, 60, 96
1, 129988, Note_on_c, 2, 68, 90
1, 129990, Note_on_c, 2, 63, 94
1, 129990, Note_on_c, 10, 56, 92
1, 129990, Note_on_c, 9, 48, 105
1, 130042, Note_off_c, 9, 42, 87
1, 130058, Control_c, 5, 1, 12
1, 130062, Note_off_c, 9, 48, 105
1, 130090, Control_c, 5, 1, 21
1, 130104, Note_off_c, 2, 60, 96
1, 130124, Note_off_c, 2, 63, 94
1, 130124, Control_c, 5, 1, 29
1, 130132, Note_off_c, 2, 68, 90
1, 130166, Note_off_c, 3, 72, 107
1, 130166, Control_c, 5, 1, 39
1, 130178, Note_on_c, 9, 37, 112
1, 130178, Note_on_c, 9, 42, 98
1, 130180, Note_on_c, 3, 75, 98
1, 130180, Note_on_c, 9, 45, 77
1, 130180, Note_on_c, 4, 72, 114
1, 130182, Note_on_c, 10, 60, 100
1, 130202, Note_off_c, 4, 68, 120
1, 130210, Note_off_c, 10, 56, 92
1, 130226, Note_off_c, 7, 32, 99
1, 130226, Control_c, 5, 1, 38
1, 130232, Note_off_c, 9, 42, 98
1, 130250, Note_off_c, 9, 37, 112
1, 130258, Control_c, 5, 1, 0
1, 130290, Note_off_c, 9, 45, 77
1, 130370, Note_on_c, 3, 80, 112
1, 130370, Note_on_c, 9, 46, 94
1, 130372, Note_on_c, 2, 60, 85
1, 130372, Note_on_c, 7, 27, 97
1, 130372, Note_on_c, 4, 75, 105
1, 130374, Note_on_c, 2, 63, 81
1, 130374, Note_on_c, 2, 68, 87
1, 130374, Note_on_c, 9, 41, 87
1, 130376, Note_on_c, 10, 63, 105
1, 130380, Note_off_c, 10, 60, 100
1, 130390, Note_off_c, 3, 75, 98
1, 130394, Note_off_c, 4, 72, 114
1, 130410, Note_off_c, 5, 56, 78
1, 130418, Note_off_c, 9, 46, 94
1, 130430, Note_off_c, 2, 68, 87
1, 130430, Note_off_c, 2, 60, 85
1, 130434, Note_off_c, 2, 63, 81
1, 130530, Note_off_c, 9, 41, 87
1, 130562, Note_on_c, 3, 84, 96
1, 130564, Note_on_c, 2, 68, 94
1, 130564, Note_on_c, 7, 32, 91
1, 130564, Note_on_c, 4, 80, 112
1, 130566, Note_on_c, 2, 60, 96
1, 130566, Note_on_c, 2, 63, 92
1, 130566, Note_on_c, 10, 68, 100
1, 130566, Note_on_c, 9, 49, 79
1, 130568, Note_off_c, 10, 63, 105
1, 130568, Note_off_c, 7, 27, 97
1, 130568, Note_off_c, 3, 80, 112
1, 130570, Note_off_c, 4, 75, 105
1, 130650, Note_off_c, 9, 49, 79
1, 130888, Control_c, 4, 1, 5
1, 130924, Control_c, 4, 1, 21
1, 130954, Control_c, 4, 1, 28
1, 130996, Control_c, 4, 1, 38
1, 131026, Control_c, 4, 1, 45
1, 131062, Control_c, 4, 1, 51
1, 131108, Control_c, 4, 1, 54
1, 131138, Control_c, 4, 1, 57
1, 131180, Control_c, 4, 1, 61
1, 131194, Note_off_c, 0, 68, 77
1, 131218, Note_off_c, 3, 84, 96
1, 131218, Control_c, 4, 1, 67
1, 131282, Control_c, 4, 1, 69
1, 131322, Note_off_c, 2, 60, 96
1, 131326, Control_c, 4, 1, 71
1, 131330, Note_off_c, 2, 68, 94
1, 131340, Note_off_c, 2, 63, 92
1, 131396, Note_off_c, 0, 72, 68
1, 131400, Note_off_c, 10, 68, 100
1, 131400, Note_off_c, 0, 80, 66
1, 131454, Note_off_c, 7, 32, 91
1, 131502, Note_off_c, 4, 80, 112
1, 131502, Control_c, 4, 1, 53
1, 131506, Note_on_c, 6, 68, 87
1, 131510, Note_on_c, 6, 72, 95
1, 131522, Note_on_c, 9, 42, 71
1, 131526, Note_on_c, 5, 72, 87
1, 131538, Control_c, 4, 1, 0
1, 131582, Note_off_c, 9, 42, 71
1, 131610, Note_off_c, 6, 68, 87
1, 131618, Note_off_c, 6, 72, 95
1, 131618, Note_on_c, 9, 42, 67
1, 131654, Note_off_c, 5, 72, 87
1, 131678, Note_off_c, 9, 42, 67
1, 131698, Note_on_c, 6, 68, 82
1, 131702, Note_on_c, 6, 72, 93
1, 131710, Note_on_c, 5, 72, 91
1, 131714, Note_on_c, 9, 46, 92
1, 131772, Note_off_c, 9, 46, 92
1, 131798, Note_off_c, 5, 72, 91
1, 131798, Note_off_c, 6, 68, 82
1, 131804, Note_off_c, 6, 72, 93
1, 131898, Note_on_c, 6, 72, 102
1, 131902, Note_on_c, 6, 68, 85
1, 131910, Note_on_c, 5, 72, 95
1, 132098, Note_on_c, 9, 36, 98
1, 132098, Note_on_c, 9, 42, 87
1, 132100, Note_on_c, 0, 51, 60
1, 132100, Note_on_c, 0, 60, 77
1, 132100, Note_on_c, 7, 32, 99
1, 132102, Note_on_c, 0, 56, 60
1, 132102, Note_on_c, 2, 72, 96
1, 132102, Note_on_c, 9, 49, 65
1, 132162, Note_off_c, 9, 42, 87
1, 132174, Note_off_c, 9, 49, 65
1, 132218, Note_off_c, 9, 36, 98
1, 132218, Control_c, 5, 1, 16
1, 132258, Control_c, 5, 1, 26
1, 132264, Note_off_c, 6, 68, 85
1, 132280, Note_off_c, 6, 72, 102
1, 132290, Note_on_c, 2, 63, 73
1, 132290, Note_on_c, 10, 56, 85
1, 132290, Note_on_c, 9, 42, 55
1, 132294, Note_on_c, 6, 70, 100
1, 132294, Note_on_c, 6, 73, 91
1, 132306, Note_on_c, 5, 73, 85
1, 132322, Note_off_c, 5, 72, 95
1, 132346, Control_c, 5, 1, 0
1, 132350, Note_off_c, 9, 42, 55
1, 132360, Note_off_c, 2, 72, 96
1, 132436, Note_off_c, 6, 70, 100
1, 132440, Note_off_c, 6, 73, 91
1, 132482, Note_off_c, 10, 56, 85
1, 132482, Note_on_c, 9, 37, 96
1, 132482, Note_on_c, 9, 42, 92
1, 132484, Note_on_c, 2, 68, 71
1, 132484, Note_on_c, 10, 60, 103
1, 132486, Note_on_c, 6, 75, 78
1, 132490, Note_on_c, 5, 75, 87
1, 132490, Note_on_c, 6, 72, 93
1, 132498, Note_off_c, 5, 73, 85
1, 132514, Note_off_c, 2, 63, 73
1, 132522, Note_off_c, 7, 32, 99
1, 132558, Note_off_c, 9, 42, 92
1, 132574, Note_off_c, 6, 72, 93
1, 132580, Note_off_c, 6, 75, 78
1, 132586, Note_off_c, 9, 37, 96
1, 132594, Note_off_c, 5, 75, 87
1, 132596, Note_off_c, 2, 68, 71
1, 132662, Note_off_c, 10, 60, 103
1, 132674, Note_on_c, 9, 36, 77
1, 132674, Note_on_c, 9, 42, 63
1, 132676, Note_on_c, 7, 32, 93
1, 132676, Note_on_c, 5, 75, 87
1, 132676, Note_on_c, 6, 72, 95
1, 132678, Note_on_c, 2, 68, 90
1, 132678, Note_on_c, 2, 72, 94
1, 132678, Note_on_c, 10, 63, 85
1, 132678, Note_on_c, 6, 75, 89
1, 132740, Note_off_c, 7, 32, 93
1, 132750, Note_off_c, 9, 42, 63
1, 132770, Note_off_c, 9, 36, 77
1, 132866, Note_on_c, 9, 36, 100
1, 132866, Note_on_c, 9, 42, 92
1, 132868, Note_on_c, 2, 60, 75
1, 132868, Note_on_c, 7, 32, 93
1, 132876, Note_off_c, 2, 72, 94
1, 132876, Note_off_c, 2, 68, 90
1, 132946, Note_off_c, 9, 42, 92
1, 133004, Note_off_c, 9, 36, 100
1, 133026, Note_off_c, 6, 75, 89
1, 133028, Note_off_c, 6, 72, 95
1, 133054, Note_on_c, 6, 70, 91
1, 133058, Note_off_c, 5, 75, 87
1, 133058, Note_on_c, 9, 42, 60
1, 133058, Note_on_c, 5, 73, 91
1, 133060, Note_on_c, 2, 63, 69
1, 133060, Note_on_c, 6, 73, 87
1, 133090, Note_off_c, 2, 60, 75
1, 133126, Note_off_c, 9, 42, 60
1, 133218, Note_off_c, 6, 70, 91
1, 133220, Note_off_c, 5, 73, 91
1, 133230, Note_off_c, 2, 63, 69
1, 133234, Note_off_c, 6, 73, 87
1, 133244, Note_on_c, 5, 72, 91
1, 133250, Note_on_c, 2, 72, 96
1, 133250, Note_on_c, 9, 37, 102
1, 133250, Note_on_c, 9, 42, 94
1, 133252, Note_on_c, 2, 68, 90
1, 133258, Note_on_c, 6, 68, 87
1, 133262, Note_on_c, 6, 72, 89
1, 133302, Note_off_c, 7, 32, 93
1, 133326, Note_off_c, 9, 42, 94
1, 133334, Note_off_c, 6, 68, 87
1, 133334, Note_off_c, 5, 72, 91
1, 133342, Note_off_c, 6, 72, 89
1, 133374, Note_off_c, 9, 37, 102
1, 133442, Note_on_c, 9, 42, 61
1, 133442, Note_on_c, 5, 72, 93
1, 133444, Note_on_c, 2, 63, 73
1, 133444, Note_on_c, 7, 27, 68
1, 133446, Note_off_c, 2, 72, 96
1, 133454, Note_on_c, 6, 68, 87
1, 133458, Note_off_c, 2, 68, 90
1, 133458, Note_on_c, 6, 72, 95
1, 133494, Note_off_c, 10, 63, 85
1, 133510, Note_off_c, 9, 42, 61
1, 133602, Note_off_c, 7, 27, 68
1, 133602, Note_off_c, 2, 63, 73
1, 133636, Note_on_c, 2, 72, 96
1, 133636, Note_on_c, 9, 36, 100
1, 133636, Note_on_c, 9, 42, 98
1, 133636, Note_on_c, 7, 32, 93
1, 133638, Note_on_c, 2, 68, 90
1, 133700, Note_off_c, 9, 42, 98
1, 133736, Note_off_c, 9, 36, 100
1, 133802, Note_off_c, 2, 72, 96
1, 133806, Note_off_c, 6, 68, 87
1, 133818, Note_off_c, 6, 72, 95
1, 133826, Note_on_c, 2, 60, 94
1, 133826, Note_on_c, 10, 56, 69
1, 133826, Note_on_c, 9, 42, 57
1, 133832, Note_off_c, 5, 72, 93
1, 133836, Note_on_c, 5, 73, 87
1, 133836, Note_on_c, 6, 70, 98
1, 133842, Note_on_c, 6, 73, 87
1, 133858, Note_off_c, 2, 68, 90
1, 133886, Note_off_c, 9, 42, 57
1, 133994, Note_off_c, 6, 70, 98
1, 133998, Note_off_c, 6, 73, 87
1, 134008, Note_off_c, 5, 73, 87
1, 134018, Note_on_c, 9, 37, 94
1, 134018, Note_on_c, 9, 42, 92
1, 134018, Note_on_c, 5, 75, 80
1, 134020, Note_on_c, 2, 63, 94
1, 134020, Note_on_c, 10, 60, 79
1, 134026, Note_on_c, 6, 75, 74
1, 134030, Note_on_c, 6, 72, 91
1, 134038, Note_off_c, 2, 60, 94
1, 134042, Note_off_c, 10, 56, 69
1, 134078, Note_off_c, 7, 32, 93
1, 134088, Note_off_c, 9, 42, 92
1, 134114, Note_off_c, 6, 72, 91
1, 134114, Note_off_c, 5, 75, 80
1, 134116, Note_off_c, 6, 75, 74
1, 134120, Note_off_c, 9, 37, 94
1, 134210, Note_on_c, 9, 36, 75
1, 134210, Note_on_c, 9, 42, 75
1, 134210, Note_on_c, 5, 75, 76
1, 134212, Note_on_c, 2, 68, 94
1, 134212, Note_on_c, 2, 72, 92
1, 134212, Note_on_c, 7, 32, 82
1, 134214, Note_on_c, 10, 63, 64
1, 134218, Note_off_c, 2, 63, 94
1, 134218, Note_on_c, 6, 75, 87
1, 134222, Note_on_c, 6, 72, 100
1, 134282, Note_off_c, 9, 42, 75
1, 134306, Note_off_c, 7, 32, 82
1, 134308, Note_off_c, 9, 36, 75
1, 134402, Note_on_c, 9, 36, 98
1, 134404, Note_on_c, 2, 63, 64
1, 134404, Note_on_c, 9, 42, 100
1, 134404, Note_on_c, 7, 32, 88
1, 134410, Note_off_c, 2, 68, 94
1, 134414, Note_off_c, 2, 72, 92
1, 134488, Note_off_c, 9, 42, 100
1, 134524, Control_c, 5, 1, 6
1, 134538, Note_off_c, 9, 36, 98
1, 134554, Control_c, 5, 1, 11
1, 134590, Control_c, 5, 1, 25
1, 134594, Note_on_c, 2, 60, 90
1, 134594, Note_on_c, 9, 42, 68
1, 134622, Control_c, 5, 1, 30
1, 134628, Note_off_c, 2, 63, 64
1, 134654, Note_off_c, 9, 42, 68
1, 134670, Note_off_c, 10, 60, 79
1, 134678, Control_c, 5, 1, 38
1, 134716, Control_c, 5, 1, 45
1, 134780, Note_off_c, 10, 63, 64
1, 134786, Note_on_c, 2, 72, 96
1, 134786, Note_on_c, 9, 37, 100
1, 134786, Note_on_c, 9, 42, 98
1, 134788, Note_off_c, 2, 60, 90
1, 134788, Note_on_c, 2, 68, 94
1, 134820, Control_c, 5, 1, 31
1, 134842, Note_off_c, 6, 72, 100
1, 134854, Note_off_c, 6, 75, 87
1, 134854, Control_c, 5, 1, 0
1, 134866, Note_off_c, 9, 42, 98
1, 134892, Note_off_c, 7, 32, 88
1, 134930, Note_off_c, 5, 75, 76
1, 134946, Note_off_c, 9, 37, 100
1, 134962, Note_off_c, 2, 72, 96
1, 134962, Note_on_c, 5, 72, 95
1, 134968, Note_on_c, 6, 72, 78
1, 134972, Note_on_c, 6, 68, 74
1, 134978, Note_on_c, 2, 60, 75
1, 134978, Note_on_c, 9, 42, 61
1, 134980, Note_off_c, 2, 68, 94
1, 135034, Note_off_c, 9, 42, 61
1, 135058, Note_off_c, 6, 68, 74
1, 135066, Note_off_c, 6, 72, 78
1, 135066, Note_off_c, 5, 72, 95
1, 135166, Note_off_c, 2, 60, 75
1, 135170, Note_on_c, 9, 36, 98
1, 135172, Note_on_c, 2, 68, 81
1, 135172, Note_on_c, 2, 72, 87
1, 135172, Note_on_c, 9, 42, 100
1, 135172, Note_on_c, 7, 32, 97
1, 135174, Note_on_c, 5, 72, 102
1, 135182, Note_on_c, 6, 68, 98
1, 135182, Note_on_c, 6, 72, 95
1, 135254, Note_off_c, 9, 42, 100
1, 135336, Note_off_c, 6, 72, 95
1, 135340, Note_off_c, 6, 68, 98
1, 135358, Note_off_c, 9, 36, 98
1, 135358, Note_on_c, 6, 70, 89
1, 135362, Note_off_c, 5, 72, 102
1, 135362, Note_on_c, 9, 42, 61
1, 135362, Note_on_c, 6, 73, 82
1, 135364, Note_on_c, 2, 60, 77
1, 135364, Note_on_c, 10, 56, 90
1, 135370, Note_off_c, 2, 72, 87
1, 135374, Note_on_c, 5, 73, 91
1, 135398, Note_off_c, 2, 68, 81
1, 135430, Note_off_c, 9, 42, 61
1, 135492, Note_off_c, 6, 70, 89
1, 135502, Note_off_c, 6, 73, 82
1, 135538, Note_off_c, 5, 73, 91
1, 135546, Note_on_c, 6, 72, 100
1, 135550, Note_off_c, 10, 56, 90
1, 135550, Note_on_c, 5, 75, 91
1, 135552, Note_on_c, 6, 75, 72
1, 135554, Note_on_c, 9, 37, 98
1, 135554, Note_on_c, 9, 42, 92
1, 135556, Note_on_c, 2, 63, 87
1, 135556, Note_on_c, 10, 60, 100
1, 135592, Note_off_c, 7, 32, 97
1, 135602, Note_off_c, 2, 60, 77
1, 135634, Note_off_c, 9, 42, 92
1, 135636, Note_off_c, 5, 75, 91
1, 135642, Note_off_c, 6, 75, 72
1, 135642, Note_off_c, 6, 72, 100
1, 135666, Note_off_c, 9, 37, 98
1, 135736, Note_off_c, 10, 60, 100
1, 135746, Note_off_c, 2, 63, 87
1, 135746, Note_on_c, 9, 36, 70
1, 135746, Note_on_c, 9, 42, 66
1, 135748, Note_on_c, 2, 68, 92
1, 135748, Note_on_c, 2, 72, 94
1, 135748, Note_on_c, 10, 63, 69
1, 135748, Note_on_c, 7, 32, 66
1, 135750, Note_on_c, 5, 75, 91
1, 135750, Note_on_c, 6, 72, 87
1, 135754, Note_on_c, 6, 75, 85
1, 135818, Note_off_c, 9, 42, 66
1, 135826, Note_off_c, 7, 32, 66
1, 135838, Note_off_c, 9, 36, 70
1, 135934, Note_off_c, 2, 72, 94
1, 135938, Note_on_c, 9, 36, 105
1, 135940, Note_on_c, 2, 60, 69
1, 135940, Note_on_c, 9, 42, 102
1, 135940, Note_on_c, 7, 32, 95
1, 136004, Note_off_c, 2, 68, 92
1, 136034, Note_off_c, 9, 42, 102
1, 136066, Note_off_c, 9, 36, 105
1, 136098, Note_off_c, 6, 75, 85
1, 136100, Note_off_c, 6, 72, 87
1, 136104, Note_off_c, 5, 75, 91
1, 136126, Note_on_c, 5, 73, 102
1, 136130, Note_on_c, 2, 63, 85
1, 136130, Note_on_c, 9, 42, 68
1, 136138, Note_on_c, 6, 70, 85
1, 136140, Note_on_c, 6, 73, 74
1, 136146, Note_off_c, 2, 60, 69
1, 136202, Note_off_c, 9, 42, 68
1, 136286, Note_off_c, 6, 70, 85
1, 136298, Note_off_c, 5, 73, 102
1, 136306, Note_off_c, 6, 73, 74
1, 136306, Note_off_c, 2, 63, 85
1, 136318, Note_on_c, 5, 72, 89
1, 136322, Note_on_c, 9, 37, 109
1, 136322, Note_on_c, 9, 42, 98
1, 136324, Note_on_c, 2, 68, 92
1, 136324, Note_on_c, 2, 72, 94
1, 136324, Note_on_c, 6, 68, 82
1, 136328, Note_on_c, 6, 72, 89
1, 136338, Note_off_c, 10, 63, 69
1, 136388, Note_off_c, 7, 32, 95
1, 136396, Note_off_c, 9, 42, 98
1, 136396, Note_off_c, 5, 72, 89
1, 136418, Note_off_c, 6, 68, 82
1, 136426, Note_off_c, 6, 72, 89
1, 136462, Note_off_c, 9, 37, 109
1, 136498, Note_off_c, 2, 68, 92
1, 136514, Note_on_c, 9, 42, 67
1, 136514, Note_on_c, 7, 27, 74
1, 136514, Note_on_c, 5, 72, 95
1, 136516, Note_on_c, 2, 63, 71
1, 136520, Note_off_c, 2, 72, 94
1, 136526, Note_on_c, 6, 68, 89
1, 136530, Note_on_c, 6, 72, 89
1, 136584, Note_off_c, 9, 42, 67
1, 136686, Note_off_c, 7, 27, 74
1, 136706, Note_on_c, 9, 36, 105
1, 136708, Note_on_c, 2, 68, 90
1, 136708, Note_on_c, 2, 72, 94
1, 136708, Note_on_c, 9, 42, 94
1, 136708, Note_on_c, 7, 32, 93
1, 136714, Note_off_c, 2, 63, 71
1, 136786, Note_off_c, 9, 42, 94
1, 136814, Note_off_c, 6, 68, 89
1, 136834, Note_off_c, 9, 36, 105
1, 136838, Note_off_c, 2, 72, 94
1, 136844, Note_off_c, 6, 72, 89
1, 136898, Note_on_c, 9, 42, 63
1, 136898, Note_on_c, 6, 67, 91
1, 136900, Note_on_c, 2, 60, 83
1, 136900, Note_on_c, 10, 56, 87
1, 136902, Note_on_c, 6, 70, 85
1, 136906, Note_on_c, 5, 70, 93
1, 136916, Note_off_c, 5, 72, 95
1, 136930, Note_off_c, 2, 68, 90
1, 136956, Note_off_c, 9, 42, 63
1, 137082, Note_off_c, 2, 60, 83
1, 137090, Note_on_c, 2, 63, 90
1, 137090, Note_on_c, 9, 37, 109
1, 137090, Note_on_c, 9, 42, 96
1, 137092, Note_on_c, 10, 60, 90
1, 137100, Note_off_c, 10, 56, 87
1, 137132, Note_off_c, 7, 32, 93
1, 137162, Note_off_c, 9, 42, 96
1, 137186, Note_off_c, 9, 37, 109
1, 137186, Note_off_c, 6, 67, 91
1, 137234, Note_off_c, 6, 70, 85
1, 137274, Note_off_c, 5, 70, 93
1, 137278, Note_off_c, 2, 63, 90
1, 137282, Note_on_c, 9, 36, 67
1, 137282, Note_on_c, 9, 42, 66
1, 137282, Note_on_c, 5, 68, 95
1, 137284, Note_on_c, 2, 72, 94
1, 137284, Note_on_c, 7, 32, 69
1, 137284, Note_on_c, 6, 65, 91
1, 137286, Note_off_c, 10, 60, 90
1, 137286, Note_on_c, 2, 68, 92
1, 137286, Note_on_c, 10, 63, 63
1, 137288, Note_on_c, 6, 68, 76
1, 137354, Note_off_c, 9, 42, 66
1, 137364, Note_off_c, 7, 32, 69
1, 137368, Note_off_c, 9, 36, 67
1, 137380, Note_off_c, 5, 68, 95
1, 137382, Note_off_c, 6, 65, 91
1, 137384, Note_off_c, 6, 68, 76
1, 137474, Note_off_c, 2, 72, 94
1, 137474, Note_on_c, 9, 36, 112
1, 137474, Note_on_c, 9, 42, 105
1, 137476, Note_on_c, 2, 60, 77
1, 137476, Note_on_c, 7, 32, 97
1, 137486, Note_on_c, 5, 68, 95
1, 137486, Note_on_c, 6, 68, 91
1, 137490, Note_on_c, 6, 65, 91
1, 137562, Note_off_c, 9, 42, 105
1, 137562, Note_off_c, 2, 68, 92
1, 137598, Note_off_c, 9, 36, 112
1, 137658, Note_off_c, 6, 65, 91
1, 137662, Note_off_c, 2, 60, 77
1, 137666, Note_on_c, 2, 63, 94
1, 137666, Note_on_c, 9, 42, 71
1, 137710, Note_off_c, 6, 68, 91
1, 137738, Note_off_c, 9, 42, 71
1, 137738, Note_off_c, 5, 68, 95
1, 137758, Note_on_c, 5, 67, 98
1, 137758, Note_on_c, 6, 67, 91
1, 137762, Note_on_c, 6, 63, 85
1, 137836, Note_off_c, 2, 63, 94
1, 137858, Note_on_c, 2, 72, 105
1, 137858, Note_on_c, 9, 37, 107
1, 137858, Note_on_c, 9, 42, 94
1, 137860, Note_on_c, 2, 68, 90
1, 137894, Note_off_c, 6, 67, 91
1, 137918, Note_off_c, 9, 42, 94
1, 137918, Note_off_c, 7, 32, 97
1, 137930, Note_off_c, 6, 63, 85
1, 137938, Note_off_c, 10, 63, 63
1, 137944, Note_off_c, 9, 37, 107
1, 138030, Note_off_c, 5, 67, 98
1, 138030, Note_off_c, 0, 51, 60
1, 138046, Note_on_c, 5, 65, 91
1, 138046, Note_on_c, 6, 60, 89
1, 138050, Note_on_c, 9, 46, 89
1, 138050, Note_on_c, 6, 65, 91
1, 138052, Note_off_c, 2, 72, 105
1, 138052, Note_on_c, 2, 63, 75
1, 138052, Note_on_c, 7, 32, 59
1, 138104, Note_off_c, 2, 68, 90
1, 138110, Note_off_c, 0, 60, 77
1, 138118, Note_off_c, 9, 46, 89
1, 138154, Note_off_c, 6, 60, 89
1, 138162, Note_off_c, 6, 65, 91
1, 138200, Note_off_c, 2, 63, 75
1, 138200, Note_off_c, 0, 56, 60
1, 138234, Note_off_c, 7, 32, 59
1, 138242, Note_off_c, 5, 65, 91
1, 138242, Note_on_c, 9, 36, 102
1, 138242, Note_on_c, 9, 42, 107
1, 138244, Note_on_c, 0, 53, 69
1, 138244, Note_on_c, 7, 37, 97
1, 138244, Note_on_c, 5, 73, 105
1, 138246, Note_on_c, 0, 61, 79
1, 138246, Note_on_c, 2, 68, 90
1, 138246, Note_on_c, 2, 73, 100
1, 138266, Note_on_c, 6, 65, 98
1, 138270, Note_on_c, 6, 73, 98
1, 138316, Note_off_c, 9, 42, 107
1, 138368, Note_off_c, 9, 36, 102
1, 138398, Note_off_c, 6, 73, 98
1, 138398, Note_off_c, 6, 65, 98
1, 138418, Note_off_c, 5, 73, 105
1, 138434, Note_on_c, 2, 61, 77
1, 138434, Note_on_c, 10, 56, 90
1, 138434, Note_on_c, 9, 42, 66
1, 138450, Note_off_c, 2, 73, 100
1, 138478, Note_off_c, 2, 68, 90
1, 138500, Note_off_c, 9, 42, 66
1, 138510, Note_on_c, 5, 73, 93
1, 138514, Note_on_c, 6, 65, 89
1, 138518, Note_on_c, 6, 73, 89
1, 138626, Note_on_c, 9, 37, 107
1, 138626, Note_on_c, 9, 42, 100
1, 138628, Note_on_c, 2, 65, 92
1, 138628, Note_on_c, 10, 61, 90
1, 138642, Note_off_c, 7, 37, 97
1, 138646, Note_off_c, 10, 56, 90
1, 138702, Note_off_c, 9, 42, 100
1, 138732, Note_off_c, 9, 37, 107
1, 138782, Note_off_c, 2, 65, 92
1, 138814, Note_off_c, 2, 61, 77
1, 138818, Note_on_c, 9, 36, 73
1, 138818, Note_on_c, 9, 42, 79
1, 138820, Note_on_c, 2, 68, 92
1, 138820, Note_on_c, 2, 73, 90
1, 138820, Note_on_c, 7, 37, 76
1, 138822, Note_on_c, 10, 65, 92
1, 138886, Note_off_c, 7, 37, 76
1, 138886, Note_off_c, 9, 42, 79
1, 138904, Note_off_c, 9, 36, 73
1, 138910, Control_c, 5, 1, 5
1, 138958, Control_c, 5, 1, 14
1, 139010, Note_on_c, 9, 36, 100
1, 139010, Note_on_c, 9, 42, 102
1, 139012, Note_on_c, 2, 61, 75
1, 139012, Note_on_c, 7, 37, 93
1, 139018, Control_c, 5, 1, 18
1, 139026, Note_off_c, 2, 68, 92
1, 139028, Note_off_c, 2, 73, 90
1, 139052, Control_c, 5, 1, 24
1, 139090, Note_off_c, 9, 42, 102
1, 139106, Control_c, 5, 1, 26
1, 139146, Note_off_c, 9, 36, 100
1, 139154, Control_c, 5, 1, 36
1, 139202, Note_off_c, 2, 61, 75
1, 139202, Note_on_c, 2, 65, 98
1, 139202, Note_on_c, 9, 42, 81
1, 139278, Note_off_c, 9, 42, 81
1, 139304, Control_c, 5, 1, 31
1, 139336, Control_c, 5, 1, 19
1, 139340, Note_off_c, 2, 65, 98
1, 139354, Note_off_c, 5, 73, 93
1, 139366, Control_c, 5, 1, 0
1, 139394, Note_on_c, 2, 73, 92
1, 139394, Note_on_c, 9, 37, 107
1, 139394, Note_on_c, 9, 42, 98
1, 139396, Note_on_c, 2, 68, 94
1, 139466, Note_off_c, 9, 42, 98
1, 139470, Note_off_c, 10, 65, 92
1, 139482, Note_off_c, 10, 61, 90
1, 139530, Note_off_c, 9, 37, 107
1, 139534, Note_off_c, 6, 65, 89
1, 139556, Note_off_c, 6, 73, 89
1, 139560, Note_off_c, 7, 37, 93
1, 139578, Note_off_c, 2, 68, 94
1, 139582, Note_off_c, 2, 73, 92
1, 139586, Note_on_c, 9, 42, 75
1, 139586, Note_on_c, 7, 32, 86
1, 139588, Note_on_c, 2, 65, 77
1, 139650, Note_off_c, 9, 42, 75
1, 139740, Note_off_c, 2, 65, 77
1, 139758, Note_off_c, 7, 32, 86
1, 139780, Note_on_c, 2, 73, 96
1, 139780, Note_on_c, 9, 36, 102
1, 139780, Note_on_c, 9, 42, 105
1, 139780, Note_on_c, 7, 37, 88
1, 139782, Note_on_c, 2, 68, 81
1, 139852, Note_off_c, 9, 42, 105
1, 139916, Note_off_c, 9, 36, 102
1, 139970, Note_on_c, 2, 65, 110
1, 139970, Note_on_c, 9, 42, 77
1, 139972, Note_on_c, 10, 56, 92
1, 139974, Note_off_c, 2, 68, 81
1, 139978, Note_off_c, 2, 73, 96
1, 140030, Note_off_c, 9, 42, 77
1, 140162, Note_on_c, 9, 37, 107
1, 140162, Note_on_c, 9, 42, 105
1, 140164, Note_on_c, 2, 68, 85
1, 140164, Note_on_c, 10, 61, 77
1, 140184, Note_off_c, 10, 56, 92
1, 140220, Note_off_c, 7, 37, 88
1, 140234, Note_off_c, 9, 42, 105
1, 140290, Note_off_c, 9, 37, 107
1, 140354, Note_on_c, 9, 42, 73
1, 140354, Note_on_c, 7, 37, 69
1, 140356, Note_on_c, 2, 73, 98
1, 140356, Note_on_c, 10, 65, 75
1, 140408, Note_off_c, 9, 42, 73
1, 140426, Note_off_c, 7, 37, 69
1, 140546, Note_on_c, 9, 36, 107
1, 140546, Note_on_c, 9, 42, 105
1, 140548, Note_on_c, 1, 65, 102
1, 140548, Note_on_c, 1, 68, 92
1, 140548, Note_on_c, 1, 73, 96
1, 140548, Note_on_c, 7, 37, 104
1, 140596, Note_off_c, 1, 68, 92
1, 140610, Note_off_c, 1, 65, 102
1, 140610, Note_off_c, 9, 42, 105
1, 140622, Note_off_c, 1, 73, 96
1, 140626, Note_off_c, 9, 36, 107
1, 140654, Note_off_c, 10, 65, 75
1, 140654, Note_off_c, 2, 73, 98
1, 140654, Note_off_c, 2, 65, 110
1, 140656, Note_off_c, 10, 61, 77
1, 140658, Note_off_c, 2, 68, 85
1, 140682, Note_off_c, 7, 37, 104
1, 140738, Note_on_c, 9, 36, 92
1, 140738, Note_on_c, 9, 42, 96
1, 140738, Note_on_c, 7, 36, 97
1, 140740, Note_on_c, 0, 60, 71
1, 140740, Note_on_c, 2, 65, 94
1, 140740, Note_on_c, 2, 68, 90
1, 140740, Note_on_c, 2, 72, 94
1, 140742, Note_on_c, 1, 65, 94
1, 140742, Note_on_c, 1, 68, 96
1, 140742, Note_on_c, 1, 72, 96
1, 140744, Note_on_c, 10, 60, 79
1, 140744, Note_on_c, 10, 63, 81
1, 140754, Note_off_c, 0, 61, 79
1, 140804, Note_off_c, 9, 42, 96
1, 140824, Note_off_c, 9, 36, 92
1, 140910, Note_off_c, 1, 72, 96
1, 140916, Note_off_c, 1, 68, 96
1, 140916, Note_off_c, 1, 65, 94
1, 140930, Note_on_c, 9, 37, 98
1, 140930, Note_on_c, 9, 42, 94
1, 140974, Note_off_c, 10, 63, 81
1, 140974, Note_off_c, 10, 60, 79
1, 140994, Note_off_c, 9, 42, 94
1, 140994, Note_off_c, 2, 72, 94
1, 141000, Note_off_c, 2, 65, 94
1, 141002, Note_off_c, 2, 68, 90
1, 141010, Note_off_c, 9, 37, 98
1, 141010, Note_off_c, 7, 36, 97
1, 141074, Note_off_c, 0, 60, 71
1, 141122, Note_on_c, 9, 36, 107
1, 141122, Note_on_c, 9, 42, 109
1, 141124, Note_on_c, 0, 58, 73
1, 141124, Note_on_c, 0, 61, 58
1, 141124, Note_on_c, 2, 70, 94
1, 141124, Note_on_c, 7, 34, 97
1, 141126, Note_on_c, 1, 61, 71
1, 141126, Note_on_c, 1, 65, 96
1, 141126, Note_on_c, 1, 70, 92
1, 141126, Note_on_c, 2, 73, 96
1, 141188, Note_off_c, 9, 42, 109
1, 141230, Note_off_c, 9, 36, 107
1, 141314, Note_on_c, 9, 42, 87
1, 141372, Note_off_c, 9, 42, 87
1, 141506, Note_on_c, 9, 36, 100
1, 141506, Note_on_c, 9, 42, 94
1, 141506, Note_on_c, 6, 70, 93
1, 141508, Note_on_c, 2, 61, 94
1, 141508, Note_on_c, 10, 58, 79
1, 141510, Note_on_c, 6, 73, 89
1, 141514, Note_on_c, 5, 73, 93
1, 141554, Note_off_c, 2, 73, 96
1, 141562, Note_off_c, 2, 70, 94
1, 141570, Note_off_c, 9, 42, 94
1, 141588, Note_off_c, 9, 36, 100
1, 141598, Note_off_c, 6, 70, 93
1, 141602, Note_off_c, 6, 73, 89
1, 141634, Note_off_c, 5, 73, 93
1, 141692, Note_on_c, 6, 70, 93
1, 141698, Note_on_c, 9, 37, 100
1, 141698, Note_on_c, 9, 42, 98
1, 141698, Note_on_c, 6, 73, 89
1, 141700, Note_on_c, 2, 65, 94
1, 141700, Note_on_c, 10, 61, 79
1, 141706, Note_on_c, 5, 73, 89
1, 141750, Note_off_c, 7, 34, 97
1, 141762, Note_off_c, 9, 42, 98
1, 141782, Note_off_c, 5, 73, 89
1, 141782, Note_off_c, 6, 70, 93
1, 141786, Note_off_c, 6, 73, 89
1, 141800, Note_off_c, 9, 37, 100
1, 141874, Note_off_c, 2, 65, 94
1, 141886, Note_on_c, 6, 70, 98
1, 141890, Note_off_c, 2, 61, 94
1, 141890, Note_on_c, 9, 36, 81
1, 141890, Note_on_c, 9, 42, 79
1, 141892, Note_on_c, 2, 70, 103
1, 141892, Note_on_c, 7, 34, 82
1, 141892, Note_on_c, 6, 73, 89
1, 141894, Note_on_c, 2, 73, 107
1, 141894, Note_on_c, 10, 65, 67
1, 141894, Note_on_c, 5, 73, 100
1, 141954, Note_off_c, 9, 42, 79
1, 141974, Note_off_c, 9, 36, 81
1, 142010, Note_off_c, 7, 34, 82
1, 142082, Note_off_c, 1, 65, 96
1, 142082, Note_on_c, 9, 36, 92
1, 142084, Note_off_c, 1, 61, 71
1, 142084, Note_on_c, 9, 42, 107
1, 142084, Note_on_c, 7, 34, 93
1, 142100, Note_off_c, 1, 70, 92
1, 142162, Note_off_c, 9, 42, 107
1, 142162, Note_off_c, 10, 58, 79
1, 142194, Note_off_c, 9, 36, 92
1, 142204, Note_off_c, 6, 70, 98
1, 142244, Note_off_c, 6, 73, 89
1, 142258, Note_off_c, 5, 73, 100
1, 142266, Note_on_c, 6, 72, 93
1, 142270, Note_on_c, 6, 75, 74
1, 142274, Note_off_c, 10, 61, 79
1, 142274, Note_on_c, 2, 65, 94
1, 142274, Note_on_c, 9, 42, 79
1, 142276, Note_on_c, 5, 75, 100
1, 142324, Note_off_c, 9, 42, 79
1, 142358, Note_off_c, 2, 70, 103
1, 142370, Note_off_c, 2, 73, 107
1, 142418, Note_off_c, 6, 72, 93
1, 142420, Note_off_c, 6, 75, 74
1, 142442, Note_off_c, 5, 75, 100
1, 142446, Note_off_c, 10, 65, 67
1, 142454, Note_on_c, 6, 73, 85
1, 142458, Note_on_c, 6, 77, 91
1, 142460, Note_on_c, 5, 77, 102
1, 142466, Note_on_c, 2, 61, 90
1, 142466, Note_on_c, 9, 37, 109
1, 142466, Note_on_c, 9, 42, 102
1, 142510, Note_off_c, 2, 65, 94
1, 142522, Note_off_c, 7, 34, 93
1, 142536, Note_off_c, 9, 42, 102
1, 142546, Note_off_c, 6, 77, 91
1, 142548, Note_off_c, 6, 73, 85
1, 142558, Note_off_c, 5, 77, 102
1, 142598, Note_off_c, 9, 37, 109
1, 142658, Note_on_c, 9, 42, 66
1, 142658, Note_on_c, 5, 77, 105
1, 142658, Note_on_c, 6, 73, 105
1, 142660, Note_on_c, 2, 65, 73
1, 142660, Note_on_c, 7, 29, 84
1, 142660, Note_on_c, 6, 77, 107
1, 142722, Note_off_c, 9, 42, 66
1, 142810, Note_off_c, 2, 65, 73
1, 142838, Note_off_c, 7, 29, 84
1, 142850, Note_on_c, 9, 36, 107
1, 142850, Note_on_c, 9, 42, 105
1, 142852, Note_on_c, 2, 73, 94
1, 142852, Note_on_c, 7, 34, 91
1, 142898, Control_c, 5, 1, 4
1, 142914, Note_off_c, 2, 61, 90
1, 142918, Note_off_c, 9, 42, 105
1, 142936, Control_c, 5, 1, 16
1, 142962, Note_off_c, 6, 77, 107
1, 142966, Control_c, 5, 1, 21
1, 142974, Note_off_c, 9, 36, 107
1, 143010, Note_off_c, 6, 73, 105
1, 143034, Note_on_c, 6, 72, 93
1, 143038, Note_on_c, 6, 75, 82
1, 143042, Note_on_c, 2, 65, 77
1, 143042, Note_on_c, 9, 42, 65
1, 143044, Note_on_c, 10, 58, 90
1, 143046, Note_on_c, 5, 75, 98
1, 143060, Note_off_c, 5, 77, 105
1, 143078, Control_c, 5, 1, 0
1, 143102, Note_off_c, 9, 42, 65
1, 143106, Note_off_c, 2, 73, 94
1, 143170, Note_off_c, 6, 72, 93
1, 143208, Note_off_c, 6, 75, 82
1, 143230, Note_off_c, 5, 75, 98
1, 143230, Note_on_c, 5, 73, 98
1, 143234, Note_on_c, 9, 37, 100
1, 143234, Note_on_c, 9, 42, 98
1, 143234, Note_on_c, 6, 70, 100
1, 143236, Note_on_c, 2, 70, 77
1, 143236, Note_on_c, 10, 61, 87
1, 143238, Note_on_c, 6, 73, 91
1, 143252, Note_off_c, 10, 58, 90
1, 143290, Note_off_c, 7, 34, 91
1, 143298, Note_off_c, 6, 70, 100
1, 143302, Note_off_c, 6, 73, 91
1, 143302, Note_off_c, 9, 42, 98
1, 143308, Note_off_c, 5, 73, 98
1, 143322, Note_off_c, 2, 70, 77
1, 143330, Note_off_c, 9, 37, 100
1, 143406, Note_off_c, 2, 65, 77
1, 143426, Note_on_c, 9, 36, 73
1, 143426, Note_on_c, 9, 42, 81
1, 143426, Note_on_c, 7, 34, 74
1, 143428, Note_on_c, 2, 70, 98
1, 143428, Note_on_c, 2, 73, 98
1, 143428, Note_on_c, 10, 65, 94
1, 143434, Note_on_c, 5, 73, 107
1, 143434, Note_on_c, 6, 73, 89
1, 143438, Note_off_c, 10, 61, 87
1, 143438, Note_on_c, 6, 70, 98
1, 143486, Note_off_c, 9, 42, 81
1, 143506, Note_off_c, 7, 34, 74
1, 143510, Note_off_c, 9, 36, 73
1, 143618, Note_on_c, 9, 36, 114
1, 143618, Note_on_c, 9, 42, 112
1, 143620, Note_on_c, 2, 61, 73
1, 143620, Note_on_c, 7, 34, 88
1, 143694, Note_off_c, 9, 42, 112
1, 143734, Note_off_c, 6, 70, 98
1, 143742, Note_off_c, 2, 70, 98
1, 143746, Note_off_c, 9, 36, 114
1, 143788, Note_off_c, 6, 73, 89
1, 143788, Note_off_c, 5, 73, 107
1, 143810, Note_off_c, 2, 73, 98
1, 143810, Note_on_c, 9, 42, 75
1, 143810, Note_on_c, 5, 75, 105
1, 143812, Note_on_c, 2, 65, 90
1, 143812, Note_on_c, 6, 72, 91
1, 143816, Note_on_c, 6, 75, 74
1, 143870, Note_off_c, 9, 42, 75
1, 143926, Note_off_c, 6, 72, 91
1, 143932, Note_off_c, 6, 75, 74
1, 143982, Note_off_c, 5, 75, 105
1, 143990, Note_off_c, 2, 65, 90
1, 143994, Note_on_c, 6, 73, 93
1, 143998, Note_on_c, 5, 77, 98
1, 143998, Note_on_c, 6, 77, 105
1, 144002, Note_on_c, 2, 70, 100
1, 144002, Note_on_c, 9, 37, 112
1, 144002, Note_on_c, 9, 42, 98
1, 144004, Note_on_c, 2, 73, 94
1, 144044, Note_off_c, 2, 61, 73
1, 144056, Note_off_c, 7, 34, 88
1, 144074, Note_off_c, 9, 42, 98
1, 144074, Note_off_c, 6, 73, 93
1, 144076, Note_off_c, 6, 77, 105
1, 144082, Note_off_c, 10, 65, 94
1, 144094, Note_off_c, 5, 77, 98
1, 144114, Note_off_c, 9, 37, 112
1, 144188, Note_on_c, 6, 73, 89
1, 144194, Note_on_c, 9, 42, 59
1, 144194, Note_on_c, 5, 77, 105
1, 144196, Note_on_c, 2, 65, 81
1, 144196, Note_on_c, 7, 29, 66
1, 144196, Note_on_c, 6, 77, 102
1, 144214, Note_off_c, 2, 73, 94
1, 144226, Note_off_c, 2, 70, 100
1, 144250, Note_off_c, 9, 42, 59
1, 144314, Control_c, 5, 1, 1
1, 144354, Control_c, 5, 1, 14
1, 144386, Note_off_c, 7, 29, 66
1, 144386, Note_on_c, 9, 36, 109
1, 144388, Note_on_c, 2, 61, 90
1, 144388, Note_on_c, 9, 42, 100
1, 144388, Note_on_c, 7, 34, 88
1, 144418, Note_off_c, 2, 65, 81
1, 144458, Note_off_c, 9, 42, 100
1, 144516, Note_off_c, 9, 36, 109
1, 144578, Note_on_c, 2, 65, 87
1, 144578, Note_on_c, 9, 42, 64
1, 144580, Note_on_c, 10, 58, 87
1, 144636, Note_off_c, 9, 42, 64
1, 144722, Note_off_c, 6, 77, 102
1, 144762, Note_off_c, 6, 73, 89
1, 144770, Note_on_c, 2, 70, 85
1, 144770, Note_on_c, 9, 37, 109
1, 144770, Note_on_c, 9, 42, 96
1, 144772, Note_on_c, 10, 61, 79
1, 144786, Note_off_c, 10, 58, 87
1, 144812, Note_off_c, 7, 34, 88
1, 144834, Note_off_c, 9, 42, 96
1, 144842, Note_off_c, 5, 77, 105
1, 144866, Note_off_c, 9, 37, 109
1, 144958, Note_on_c, 5, 73, 105
1, 144962, Note_on_c, 9, 36, 66
1, 144962, Note_on_c, 9, 42, 79
1, 144962, Note_on_c, 7, 34, 66
1, 144964, Note_on_c, 2, 73, 87
1, 144964, Note_on_c, 10, 65, 77
1, 144966, Note_on_c, 6, 70, 100
1, 144970, Note_on_c, 6, 73, 95
1, 144974, Note_off_c, 10, 61, 79
1, 145022, Note_off_c, 9, 42, 79
1, 145028, Note_off_c, 9, 36, 66
1, 145032, Note_off_c, 7, 34, 66
1, 145050, Note_off_c, 6, 70, 100
1, 145054, Note_off_c, 6, 73, 95
1, 145062, Note_off_c, 5, 73, 105
1, 145148, Note_on_c, 5, 73, 107
1, 145154, Note_on_c, 9, 36, 112
1, 145154, Note_on_c, 9, 42, 109
1, 145156, Note_on_c, 7, 34, 91
1, 145158, Note_on_c, 6, 70, 93
1, 145162, Note_on_c, 6, 73, 98
1, 145222, Note_off_c, 2, 61, 90
1, 145230, Note_off_c, 9, 42, 109
1, 145268, Note_off_c, 9, 36, 112
1, 145310, Note_off_c, 6, 73, 98
1, 145334, Note_off_c, 6, 70, 93
1, 145346, Note_off_c, 2, 65, 87
1, 145346, Note_on_c, 9, 42, 81
1, 145348, Note_on_c, 2, 61, 94
1, 145348, Note_on_c, 5, 72, 102
1, 145350, Note_on_c, 6, 68, 91
1, 145350, Note_on_c, 6, 72, 87
1, 145382, Note_off_c, 5, 73, 107
1, 145404, Note_off_c, 9, 42, 81
1, 145508, Note_off_c, 6, 68, 91
1, 145524, Note_off_c, 5, 72, 102
1, 145526, Note_off_c, 6, 72, 87
1, 145538, Note_on_c, 9, 37, 112
1, 145538, Note_on_c, 9, 42, 98
1, 145538, Note_on_c, 5, 70, 98
1, 145540, Note_on_c, 2, 65, 103
1, 145542, Note_on_c, 6, 67, 93
1, 145542, Note_on_c, 6, 70, 89
1, 145554, Note_off_c, 2, 73, 87
1, 145566, Note_off_c, 2, 70, 85
1, 145598, Note_off_c, 9, 42, 98
1, 145614, Note_off_c, 9, 37, 112
1, 145642, Note_off_c, 6, 67, 93
1, 145642, Note_off_c, 7, 34, 91
1, 145642, Note_off_c, 10, 65, 77
1, 145692, Note_off_c, 6, 70, 89
1, 145710, Note_off_c, 5, 70, 98
1, 145720, Note_off_c, 2, 61, 94
1, 145726, Note_on_c, 6, 65, 98
1, 145730, Note_on_c, 9, 46, 70
1, 145730, Note_on_c, 5, 68, 89
1, 145732, Note_on_c, 2, 70, 75
1, 145732, Note_on_c, 7, 29, 68
1, 145732, Note_on_c, 6, 68, 87
1, 145786, Note_off_c, 9, 46, 70
1, 145812, Note_off_c, 2, 65, 103
1, 145892, Note_off_c, 6, 65, 98
1, 145894, Note_off_c, 2, 70, 75
1, 145906, Note_off_c, 6, 68, 87
1, 145910, Note_off_c, 7, 29, 68
1, 145912, Note_off_c, 0, 53, 69
1, 145922, Note_on_c, 9, 36, 112
1, 145922, Note_on_c, 9, 42, 96
1, 145924, Note_on_c, 0, 55, 73
1, 145924, Note_on_c, 0, 63, 75
1, 145924, Note_on_c, 7, 27, 101
1, 145926, Note_off_c, 0, 58, 73
1, 145926, Note_on_c, 2, 70, 103
1, 145928, Note_off_c, 0, 61, 58
1, 145944, Note_off_c, 5, 68, 89
1, 146002, Note_off_c, 9, 42, 96
1, 146066, Note_off_c, 9, 36, 112
1, 146098, Note_on_c, 6, 67, 98
1, 146102, Note_on_c, 6, 63, 91
1, 146110, Note_on_c, 5, 67, 93
1, 146114, Note_on_c, 2, 58, 87
1, 146114, Note_on_c, 10, 55, 105
1, 146114, Note_on_c, 9, 42, 56
1, 146178, Note_off_c, 9, 42, 56
1, 146204, Note_off_c, 2, 70, 103
1, 146218, Note_off_c, 6, 63, 91
1, 146226, Note_off_c, 6, 67, 98
1, 146248, Note_off_c, 5, 67, 93
1, 146292, Note_off_c, 10, 55, 105
1, 146298, Note_on_c, 6, 63, 82
1, 146302, Note_on_c, 6, 67, 95
1, 146306, Note_on_c, 2, 63, 105
1, 146306, Note_on_c, 9, 37, 94
1, 146306, Note_on_c, 9, 42, 89
1, 146308, Note_on_c, 10, 58, 92
1, 146310, Note_on_c, 5, 67, 80
1, 146366, Note_off_c, 7, 27, 101
1, 146382, Note_off_c, 9, 42, 89
1, 146392, Note_off_c, 6, 67, 95
1, 146396, Note_off_c, 6, 63, 82
1, 146398, Note_off_c, 9, 37, 94
1, 146402, Note_off_c, 5, 67, 80
1, 146418, Note_off_c, 2, 58, 87
1, 146486, Note_on_c, 6, 63, 91
1, 146486, Note_on_c, 6, 67, 102
1, 146490, Note_off_c, 10, 58, 92
1, 146498, Note_on_c, 9, 36, 79
1, 146498, Note_on_c, 9, 42, 56
1, 146498, Note_on_c, 7, 27, 61
1, 146500, Note_on_c, 2, 67, 96
1, 146500, Note_on_c, 2, 70, 100
1, 146500, Note_on_c, 10, 63, 77
1, 146502, Note_on_c, 5, 67, 98
1, 146508, Note_off_c, 2, 63, 105
1, 146558, Note_off_c, 7, 27, 61
1, 146566, Note_off_c, 9, 42, 56
1, 146580, Note_off_c, 9, 36, 79
1, 146690, Note_on_c, 9, 36, 105
1, 146690, Note_on_c, 9, 42, 102
1, 146692, Note_on_c, 7, 27, 91
1, 146750, Note_off_c, 6, 63, 91
1, 146776, Note_off_c, 9, 42, 102
1, 146826, Note_off_c, 9, 36, 105
1, 146830, Note_off_c, 6, 67, 102
1, 146866, Note_off_c, 5, 67, 98
1, 146868, Note_on_c, 6, 68, 89
1, 146872, Note_on_c, 6, 65, 91
1, 146882, Note_on_c, 2, 58, 79
1, 146882, Note_on_c, 9, 42, 59
1, 146886, Note_on_c, 5, 68, 85
1, 146904, Note_off_c, 2, 67, 96
1, 146946, Note_off_c, 9, 42, 59
1, 146946, Note_off_c, 2, 70, 100
1, 146948, Note_off_c, 6, 65, 91
1, 147012, Note_off_c, 6, 68, 89
1, 147050, Note_off_c, 5, 68, 85
1, 147062, Note_on_c, 6, 67, 91
1, 147066, Note_on_c, 6, 70, 89
1, 147070, Note_on_c, 5, 70, 91
1, 147074, Note_on_c, 2, 63, 107
1, 147074, Note_on_c, 9, 37, 109
1, 147074, Note_on_c, 9, 42, 102
1, 147132, Note_off_c, 6, 67, 91
1, 147140, Note_off_c, 6, 70, 89
1, 147150, Note_off_c, 9, 42, 102
1, 147176, Note_off_c, 5, 70, 91
1, 147178, Note_off_c, 9, 37, 109
1, 147252, Note_off_c, 7, 27, 91
1, 147258, Note_on_c, 6, 67, 100
1, 147262, Note_on_c, 6, 70, 89
1, 147266, Note_on_c, 9, 36, 69
1, 147266, Note_on_c, 9, 42, 66
1, 147268, Note_on_c, 2, 67, 90
1, 147268, Note_on_c, 7, 34, 95
1, 147268, Note_on_c, 5, 70, 95
1, 147282, Note_off_c, 10, 63, 77
1, 147294, Note_off_c, 2, 63, 107
1, 147342, Note_off_c, 9, 42, 66
1, 147346, Note_off_c, 9, 36, 69
1, 147450, Note_off_c, 7, 34, 95
1, 147458, Note_on_c, 9, 36, 98
1, 147458, Note_on_c, 9, 42, 107
1, 147460, Note_on_c, 2, 70, 105
1, 147460, Note_on_c, 7, 39, 95
1, 147484, Note_off_c, 2, 58, 79
1, 147506, Note_off_c, 2, 67, 90
1, 147546, Note_off_c, 9, 42, 107
1, 147546, Note_off_c, 6, 67, 100
1, 147586, Note_off_c, 6, 70, 89
1, 147588, Note_off_c, 9, 36, 98
1, 147640, Note_off_c, 5, 70, 95
1, 147644, Note_on_c, 5, 72, 102
1, 147644, Note_on_c, 6, 68, 91
1, 147650, Note_on_c, 2, 58, 94
1, 147650, Note_on_c, 9, 42, 60
1, 147650, Note_on_c, 6, 72, 93
1, 147652, Note_on_c, 10, 55, 98
1, 147726, Note_off_c, 9, 42, 60
1, 147738, Note_off_c, 6, 68, 91
1, 147746, Note_off_c, 6, 72, 93
1, 147810, Note_off_c, 5, 72, 102
1, 147810, Note_off_c, 2, 70, 105
1, 147838, Note_on_c, 6, 70, 100
1, 147842, Note_on_c, 9, 37, 112
1, 147842, Note_on_c, 9, 42, 114
1, 147842, Note_on_c, 5, 73, 102
1, 147844, Note_off_c, 10, 55, 98
1, 147844, Note_on_c, 2, 63, 112
1, 147844, Note_on_c, 10, 58, 92
1, 147846, Note_on_c, 6, 73, 87
1, 147930, Note_off_c, 9, 42, 114
1, 147944, Note_off_c, 9, 37, 112
1, 148012, Note_off_c, 10, 58, 92
1, 148026, Note_off_c, 2, 58, 94
1, 148034, Note_on_c, 2, 67, 96
1, 148034, Note_on_c, 9, 36, 94
1, 148034, Note_on_c, 9, 42, 75
1, 148036, Note_on_c, 10, 63, 81
1, 148082, Note_off_c, 5, 73, 102
1, 148090, Note_off_c, 7, 39, 95
1, 148098, Note_off_c, 2, 63, 112
1, 148106, Note_off_c, 6, 70, 100
1, 148110, Note_off_c, 9, 42, 75
1, 148116, Note_off_c, 6, 73, 87
1, 148124, Note_off_c, 9, 36, 94
1, 148174, Note_off_c, 2, 67, 96
1, 148226, Note_off_c, 10, 63, 81
1, 148226, Note_off_c, 0, 55, 73
1, 148226, Note_on_c, 9, 42, 96
1, 148228, Note_on_c, 9, 36, 100
1, 148228, Note_on_c, 6, 73, 100
1, 148228, Note_on_c, 6, 77, 110
1, 148230, Note_on_c, 0, 61, 77
1, 148230, Note_on_c, 0, 68, 66
1, 148230, Note_on_c, 0, 77, 85
1, 148230, Note_on_c, 7, 32, 99
1, 148232, Note_off_c, 0, 63, 75
1, 148232, Note_on_c, 2, 73, 98
1, 148238, Note_on_c, 5, 77, 107
1, 148306, Note_off_c, 9, 42, 96
1, 148340, Note_off_c, 9, 36, 100
1, 148374, Note_off_c, 6, 77, 110
1, 148380, Note_off_c, 6, 73, 100
1, 148406, Note_on_c, 6, 72, 100
1, 148408, Note_on_c, 6, 75, 87
1, 148412, Note_off_c, 5, 77, 107
1, 148418, Note_on_c, 2, 63, 94
1, 148418, Note_on_c, 9, 42, 50
1, 148420, Note_on_c, 10, 56, 87
1, 148426, Note_on_c, 5, 75, 89
1, 148478, Note_off_c, 9, 42, 50
1, 148478, Note_off_c, 2, 73, 98
1, 148530, Note_off_c, 6, 72, 100
1, 148532, Note_off_c, 6, 75, 87
1, 148574, Note_off_c, 5, 75, 89
1, 148602, Note_on_c, 6, 70, 110
1, 148606, Note_on_c, 6, 73, 100
1, 148610, Note_on_c, 9, 37, 92
1, 148610, Note_on_c, 9, 42, 98
1, 148612, Note_on_c, 2, 68, 90
1, 148612, Note_on_c, 10, 60, 83
1, 148612, Note_on_c, 5, 73, 85
1, 148618, Note_off_c, 10, 56, 87
1, 148626, Note_off_c, 7, 32, 99
1, 148646, Note_off_c, 0, 61, 77
1, 148668, Note_off_c, 2, 63, 94
1, 148678, Note_off_c, 9, 42, 98
1, 148698, Note_off_c, 9, 37, 92
1, 148714, Note_off_c, 6, 70, 110
1, 148716, Note_off_c, 6, 73, 100
1, 148734, Note_off_c, 5, 73, 85
1, 148786, Note_off_c, 0, 77, 85
1, 148798, Note_off_c, 10, 60, 83
1, 148798, Note_on_c, 6, 72, 102
1, 148798, Note_on_c, 6, 75, 87
1, 148802, Note_on_c, 9, 36, 67
1, 148802, Note_on_c, 9, 42, 81
1, 148802, Note_on_c, 7, 32, 76
1, 148804, Note_on_c, 0, 60, 73
1, 148804, Note_on_c, 0, 75, 73
1, 148804, Note_on_c, 2, 72, 100
1, 148806, Note_on_c, 10, 63, 75
1, 148810, Note_on_c, 5, 75, 82
1, 148866, Note_off_c, 7, 32, 76
1, 148866, Note_off_c, 9, 42, 81
1, 148882, Note_off_c, 9, 36, 67
1, 148994, Note_on_c, 9, 42, 105
1, 148996, Note_on_c, 2, 63, 64
1, 148996, Note_on_c, 9, 36, 107
1, 148996, Note_on_c, 7, 32, 84
1, 149016, Note_off_c, 2, 68, 90
1, 149050, Note_off_c, 2, 72, 100
1, 149066, Note_off_c, 9, 42, 105
1, 149102, Note_off_c, 9, 36, 107
1, 149186, Note_on_c, 2, 68, 92
1, 149186, Note_on_c, 9, 42, 70
1, 149250, Note_off_c, 9, 42, 70
1, 149250, Note_off_c, 2, 63, 64
1, 149292, Control_c, 5, 1, 5
1, 149342, Control_c, 5, 1, 12
1, 149366, Note_off_c, 2, 68, 92
1, 149378, Note_on_c, 2, 72, 103
1, 149378, Note_on_c, 9, 37, 112
1, 149378, Note_on_c, 9, 42, 114
1, 149382, Control_c, 5, 1, 21
1, 149386, Note_off_c, 10, 63, 75
1, 149422, Control_c, 5, 1, 31
1, 149444, Note_off_c, 9, 42, 114
1, 149480, Control_c, 5, 1, 35
1, 149492, Note_off_c, 9, 37, 112
1, 149530, Note_off_c, 7, 32, 84
1, 149530, Control_c, 5, 1, 39
1, 149570, Note_on_c, 9, 42, 62
1, 149570, Note_on_c, 7, 27, 93
1, 149572, Note_on_c, 2, 68, 83
1, 149596, Note_off_c, 2, 72, 103
1, 149634, Note_off_c, 9, 42, 62
1, 149660, Control_c, 5, 1, 37
1, 149668, Note_off_c, 5, 75, 82
1, 149702, Control_c, 5, 1, 0
1, 149740, Note_off_c, 7, 27, 93
1, 149762, Note_on_c, 9, 36, 105
1, 149764, Note_on_c, 2, 72, 103
1, 149764, Note_on_c, 9, 42, 100
1, 149764, Note_on_c, 7, 32, 93
1, 149772, Note_off_c, 2, 68, 83
1, 149812, Note_off_c, 6, 72, 102
1, 149816, Note_off_c, 6, 75, 87
1, 149838, Note_off_c, 9, 42, 100
1, 149878, Note_off_c, 9, 36, 105
1, 149954, Note_on_c, 2, 60, 96
1, 149954, Note_on_c, 9, 42, 50
1, 149956, Note_on_c, 10, 56, 96
1, 149970, Note_off_c, 2, 72, 103
1, 150002, Note_off_c, 9, 42, 50
1, 150146, Note_off_c, 10, 56, 96
1, 150146, Note_on_c, 2, 63, 85
1, 150146, Note_on_c, 9, 37, 105
1, 150146, Note_on_c, 9, 42, 100
1, 150148, Note_on_c, 10, 60, 87
1, 150190, Note_off_c, 7, 32, 93
1, 150216, Note_off_c, 9, 42, 100
1, 150238, Note_off_c, 9, 37, 105
1, 150314, Note_off_c, 2, 63, 85
1, 150322, Note_off_c, 10, 60, 87
1, 150338, Note_on_c, 9, 36, 69
1, 150338, Note_on_c, 9, 42, 85
1, 150338, Note_on_c, 7, 32, 78
1, 150340, Note_on_c, 2, 68, 92
1, 150340, Note_on_c, 2, 72, 98
1, 150340, Note_on_c, 10, 63, 60
1, 150360, Note_off_c, 2, 60, 96
1, 150396, Note_off_c, 9, 42, 85
1, 150396, Note_off_c, 9, 36, 69
1, 150402, Note_off_c, 7, 32, 78
1, 150530, Note_on_c, 9, 36, 107
1, 150530, Note_on_c, 9, 42, 114
1, 150532, Note_on_c, 0, 63, 62
1, 150532, Note_on_c, 2, 60, 75
1, 150532, Note_on_c, 7, 32, 97
1, 150534, Note_off_c, 0, 68, 66
1, 150562, Note_off_c, 0, 75, 73
1, 150574, Note_off_c, 2, 72, 98
1, 150574, Note_off_c, 2, 68, 92
1, 150606, Note_off_c, 9, 42, 114
1, 150632, Note_off_c, 9, 36, 107
1, 150714, Note_on_c, 5, 72, 102
1, 150718, Note_on_c, 6, 68, 98
1, 150718, Note_on_c, 6, 72, 98
1, 150722, Note_on_c, 2, 63, 79
1, 150722, Note_on_c, 9, 42, 73
1, 150782, Note_off_c, 9, 42, 73
1, 150852, Note_off_c, 2, 60, 75
1, 150872, Note_off_c, 6, 68, 98
1, 150882, Note_off_c, 6, 72, 98
1, 150906, Note_off_c, 5, 72, 102
1, 150906, Note_on_c, 5, 73, 91
1, 150908, Note_on_c, 6, 70, 102
1, 150914, Note_on_c, 9, 37, 109
1, 150914, Note_on_c, 9, 42, 107
1, 150914, Note_on_c, 6, 73, 89
1, 150916, Note_on_c, 2, 68, 90
1, 150916, Note_on_c, 2, 72, 92
1, 150924, Note_off_c, 2, 63, 79
1, 150974, Note_off_c, 9, 42, 107
1, 150980, Note_off_c, 7, 32, 97
1, 150988, Note_off_c, 9, 37, 109
1, 151046, Note_off_c, 6, 70, 102
1, 151046, Note_off_c, 5, 73, 91
1, 151058, Note_off_c, 6, 73, 89
1, 151098, Note_on_c, 5, 72, 98
1, 151102, Note_on_c, 6, 68, 100
1, 151102, Note_on_c, 6, 72, 105
1, 151106, Note_on_c, 2, 63, 75
1, 151106, Note_on_c, 9, 46, 92
1, 151106, Note_on_c, 7, 32, 66
1, 151118, Note_off_c, 2, 72, 92
1, 151122, Note_off_c, 2, 68, 90
1, 151138, Note_off_c, 10, 63, 60
1, 151166, Note_off_c, 9, 46, 92
1, 151186, Note_off_c, 0, 63, 62
1, 151282, Note_off_c, 0, 60, 73
1, 151286, Note_off_c, 7, 32, 66
1, 151298, Note_on_c, 9, 36, 109
1, 151300, Note_on_c, 0, 63, 61
1, 151300, Note_on_c, 9, 42, 102
1, 151300, Note_on_c, 7, 39, 93
1, 151302, Note_on_c, 0, 58, 41
1, 151302, Note_on_c, 0, 67, 56
1, 151302, Note_on_c, 2, 70, 98
1, 151338, Note_off_c, 2, 63, 75
1, 151374, Note_off_c, 9, 42, 102
1, 151382, Note_off_c, 5, 72, 98
1, 151388, Note_off_c, 9, 36, 109
1, 151396, Note_off_c, 6, 68, 100
1, 151438, Note_off_c, 6, 72, 105
1, 151478, Note_on_c, 6, 67, 91
1, 151478, Note_on_c, 6, 70, 87
1, 151486, Note_on_c, 5, 70, 100
1, 151490, Note_on_c, 2, 58, 92
1, 151490, Note_on_c, 9, 42, 62
1, 151492, Note_on_c, 10, 55, 94
1, 151518, Note_off_c, 2, 70, 98
1, 151542, Note_off_c, 9, 42, 62
1, 151572, Note_off_c, 6, 67, 91
1, 151576, Note_off_c, 6, 70, 87
1, 151658, Note_off_c, 10, 55, 94
1, 151674, Note_on_c, 6, 65, 91
1, 151678, Note_off_c, 5, 70, 100
1, 151678, Note_on_c, 5, 68, 82
1, 151678, Note_on_c, 6, 68, 91
1, 151682, Note_on_c, 2, 63, 66
1, 151682, Note_on_c, 9, 37, 114
1, 151682, Note_on_c, 9, 42, 109
1, 151684, Note_on_c, 10, 58, 79
1, 151738, Note_off_c, 7, 39, 93
1, 151752, Note_off_c, 9, 42, 109
1, 151756, Note_off_c, 9, 37, 114
1, 151762, Note_off_c, 6, 65, 91
1, 151764, Note_off_c, 6, 68, 91
1, 151834, Note_off_c, 5, 68, 82
1, 151854, Note_off_c, 10, 58, 79
1, 151868, Note_on_c, 5, 70, 87
1, 151874, Note_off_c, 2, 63, 66
1, 151874, Note_on_c, 9, 36, 71
1, 151874, Note_on_c, 9, 42, 73
1, 151874, Note_on_c, 6, 67, 85
1, 151876, Note_on_c, 2, 67, 98
1, 151876, Note_on_c, 2, 70, 100
1, 151876, Note_on_c, 7, 39, 80
1, 151878, Note_on_c, 10, 63, 75
1, 151878, Note_on_c, 6, 70, 87
1, 151882, Note_off_c, 2, 58, 92
1, 151938, Note_off_c, 9, 42, 73
1, 151946, Note_off_c, 7, 39, 80
1, 151946, Note_off_c, 9, 36, 71
1, 152066, Note_on_c, 9, 36, 112
1, 152066, Note_on_c, 9, 42, 102
1, 152068, Note_on_c, 2, 58, 69
1, 152068, Note_on_c, 7, 39, 80
1, 152088, Note_off_c, 2, 67, 98
1, 152104, Note_off_c, 2, 70, 100
1, 152138, Note_off_c, 9, 42, 102
1, 152156, Note_off_c, 9, 36, 112
1, 152258, Note_on_c, 2, 63, 103
1, 152258, Note_on_c, 9, 42, 67
1, 152322, Note_off_c, 9, 42, 67
1, 152450, Note_on_c, 9, 37, 117
1, 152450, Note_on_c, 9, 42, 102
1, 152452, Note_on_c, 2, 67, 96
1, 152452, Note_on_c, 2, 70, 98
1, 152478, Note_off_c, 2, 63, 103
1, 152504, Note_off_c, 10, 63, 75
1, 152518, Note_off_c, 9, 42, 102
1, 152548, Note_off_c, 9, 37, 117
1, 152636, Note_off_c, 7, 39, 80
1, 152642, Note_on_c, 9, 42, 66
1, 152642, Note_on_c, 7, 34, 76
1, 152644, Note_off_c, 2, 67, 96
1, 152644, Note_on_c, 2, 63, 61
1, 152650, Note_off_c, 2, 70, 98
1, 152658, Note_off_c, 2, 58, 69
1, 152698, Note_off_c, 0, 63, 61
1, 152708, Note_off_c, 9, 42, 66
1, 152808, Note_off_c, 5, 70, 87
1, 152822, Note_off_c, 0, 58, 41
1, 152826, Note_off_c, 2, 63, 61
1, 152826, Note_off_c, 6, 67, 85
1, 152834, Note_off_c, 6, 70, 87
1, 152836, Note_on_c, 0, 55, 67
1, 152836, Note_on_c, 9, 36, 107
1, 152836, Note_on_c, 9, 42, 94
1, 152836, Note_on_c, 7, 39, 93
1, 152838, Note_on_c, 0, 63, 70
1, 152838, Note_on_c, 2, 70, 103
1, 152846, Note_off_c, 0, 67, 56
1, 152856, Note_off_c, 7, 34, 76
1, 152906, Note_off_c, 9, 42, 94
1, 152932, Note_off_c, 9, 36, 107
1, 153026, Note_on_c, 2, 58, 77
1, 153026, Note_on_c, 9, 42, 53
1, 153028, Note_on_c, 10, 55, 94
1, 153076, Note_off_c, 9, 42, 53
1, 153084, Note_off_c, 2, 70, 103
1, 153178, Note_off_c, 10, 55, 94
1, 153218, Note_on_c, 9, 37, 114
1, 153218, Note_on_c, 9, 42, 98
1, 153220, Note_on_c, 2, 63, 87
1, 153220, Note_on_c, 10, 58, 87
1, 153282, Note_off_c, 7, 39, 93
1, 153286, Note_off_c, 9, 42, 98
1, 153310, Note_off_c, 9, 37, 114
1, 153330, Note_off_c, 2, 58, 77
1, 153394, Note_off_c, 10, 58, 87
1, 153410, Note_on_c, 9, 36, 77
1, 153410, Note_on_c, 9, 42, 67
1, 153410, Note_on_c, 7, 39, 80
1, 153412, Note_on_c, 2, 67, 98
1, 153412, Note_on_c, 2, 70, 94
1, 153412, Note_on_c, 10, 63, 73
1, 153418, Note_off_c, 2, 63, 87
1, 153474, Note_off_c, 9, 42, 67
1, 153480, Note_off_c, 9, 36, 77
1, 153510, Note_off_c, 7, 39, 80
1, 153592, Note_off_c, 2, 70, 94
1, 153596, Note_on_c, 6, 61, 102
1, 153596, Note_on_c, 6, 70, 100
1, 153602, Note_on_c, 9, 36, 112
1, 153602, Note_on_c, 9, 42, 117
1, 153604, Note_on_c, 2, 58, 73
1, 153604, Note_on_c, 7, 39, 80
1, 153604, Note_on_c, 5, 70, 100
1, 153618, Note_off_c, 2, 67, 98
1, 153682, Note_off_c, 9, 42, 117
1, 153700, Note_off_c, 9, 36, 112
1, 153794, Note_on_c, 2, 63, 94
1, 153794, Note_on_c, 9, 42, 68
1, 153812, Note_off_c, 2, 58, 73
1, 153852, Note_off_c, 9, 42, 68
1, 153986, Note_on_c, 2, 67, 94
1, 153986, Note_on_c, 9, 37, 112
1, 153986, Note_on_c, 9, 42, 105
1, 153988, Note_on_c, 2, 70, 94
1, 154002, Note_off_c, 2, 63, 94
1, 154014, Note_off_c, 6, 70, 100
1, 154036, Note_off_c, 6, 61, 102
1, 154054, Note_off_c, 9, 42, 105
1, 154068, Note_off_c, 5, 70, 100
1, 154072, Note_off_c, 9, 37, 112
1, 154086, Note_off_c, 10, 63, 73
1, 154162, Note_on_c, 5, 72, 107
1, 154162, Note_on_c, 6, 63, 89
1, 154166, Note_off_c, 7, 39, 80
1, 154166, Note_on_c, 6, 72, 89
1, 154174, Note_off_c, 2, 67, 94
1, 154178, Note_on_c, 9, 46, 81
1, 154178, Note_on_c, 7, 34, 84
1, 154180, Note_on_c, 2, 63, 73
1, 154184, Note_off_c, 2, 70, 94
1, 154242, Note_off_c, 9, 46, 81
1, 154242, Note_off_c, 0, 55, 67
1, 154282, Note_off_c, 6, 63, 89
1, 154286, Note_off_c, 6, 72, 89
1, 154340, Note_off_c, 2, 63, 73
1, 154358, Note_off_c, 5, 72, 107
1, 154360, Note_off_c, 7, 34, 84
1, 154360, Note_on_c, 6, 61, 91
1, 154362, Note_on_c, 6, 70, 87
1, 154364, Note_on_c, 5, 70, 80
1, 154370, Note_on_c, 9, 36, 102
1, 154370, Note_on_c, 9, 42, 105
1, 154372, Note_on_c, 0, 56, 52
1, 154372, Note_on_c, 0, 60, 83
1, 154372, Note_on_c, 7, 32, 93
1, 154374, Note_on_c, 2, 72, 94
1, 154378, Note_off_c, 0, 63, 70
1, 154444, Note_off_c, 9, 42, 105
1, 154470, Note_off_c, 9, 36, 102
1, 154562, Note_on_c, 2, 60, 81
1, 154562, Note_on_c, 9, 42, 62
1, 154564, Note_on_c, 10, 56, 87
1, 154566, Note_off_c, 2, 72, 94
1, 154596, Note_off_c, 6, 61, 91
1, 154626, Note_off_c, 9, 42, 62
1, 154670, Note_off_c, 6, 70, 87
1, 154728, Note_on_c, 6, 60, 80
1, 154732, Note_off_c, 5, 70, 80
1, 154734, Note_on_c, 6, 68, 70
1, 154742, Note_on_c, 5, 68, 74
1, 154754, Note_on_c, 2, 63, 94
1, 154754, Note_on_c, 9, 37, 112
1, 154754, Note_on_c, 9, 42, 107
1, 154756, Note_off_c, 10, 56, 87
1, 154756, Note_on_c, 10, 60, 87
1, 154782, Note_off_c, 2, 60, 81
1, 154818, Note_off_c, 7, 32, 93
1, 154826, Note_off_c, 9, 42, 107
1, 154840, Note_off_c, 9, 37, 112
1, 154946, Note_on_c, 9, 36, 73
1, 154946, Note_on_c, 9, 42, 77
1, 154948, Note_on_c, 2, 68, 94
1, 154948, Note_on_c, 2, 72, 105
1, 154948, Note_on_c, 10, 63, 87
1, 154948, Note_on_c, 7, 32, 78
1, 154950, Note_off_c, 10, 60, 87
1, 154974, Note_off_c, 2, 63, 94
1, 155006, Note_off_c, 9, 42, 77
1, 155018, Note_off_c, 9, 36, 73
1, 155138, Note_on_c, 9, 36, 109
1, 155138, Note_on_c, 9, 42, 107
1, 155140, Note_on_c, 2, 60, 77
1, 155156, Note_off_c, 2, 72, 105
1, 155194, Note_off_c, 2, 68, 94
1, 155212, Note_off_c, 9, 42, 107
1, 155220, Note_off_c, 9, 36, 109
1, 155262, Control_c, 5, 1, 2
1, 155270, Note_off_c, 7, 32, 78
1, 155302, Control_c, 5, 1, 6
1, 155330, Note_on_c, 9, 37, 92
1, 155330, Note_on_c, 9, 42, 85
1, 155332, Note_on_c, 2, 63, 98
1, 155332, Note_on_c, 9, 48, 92
1, 155332, Note_on_c, 7, 32, 91
1, 155334, Note_on_c, 10, 60, 90
1, 155342, Note_off_c, 10, 63, 87
1, 155342, Control_c, 5, 1, 14
1, 155382, Note_off_c, 9, 42, 85
1, 155382, Note_off_c, 9, 37, 92
1, 155398, Control_c, 5, 1, 21
1, 155428, Note_off_c, 7, 32, 91
1, 155458, Control_c, 5, 1, 26
1, 155500, Note_off_c, 9, 48, 92
1, 155500, Note_off_c, 2, 60, 77
1, 155506, Control_c, 5, 1, 36
1, 155510, Note_off_c, 10, 60, 90
1, 155522, Note_on_c, 9, 37, 117
1, 155522, Note_on_c, 9, 42, 109
1, 155524, Note_on_c, 2, 68, 96
1, 155524, Note_on_c, 2, 72, 105
1, 155524, Note_on_c, 9, 45, 77
1, 155524, Note_on_c, 7, 32, 101
1, 155526, Note_on_c, 10, 63, 92
1, 155534, Note_off_c, 2, 63, 98
1, 155576, Note_off_c, 9, 42, 109
1, 155586, Note_off_c, 9, 37, 117
1, 155618, Note_off_c, 6, 68, 70
1, 155620, Note_off_c, 6, 60, 80
1, 155622, Control_c, 5, 1, 37
1, 155688, Note_off_c, 7, 32, 101
1, 155688, Note_off_c, 2, 72, 105
1, 155698, Control_c, 5, 1, 22
1, 155710, Note_off_c, 10, 63, 92
1, 155714, Note_on_c, 9, 46, 96
1, 155714, Note_on_c, 7, 27, 74
1, 155716, Note_on_c, 2, 60, 100
1, 155716, Note_on_c, 10, 60, 90
1, 155716, Note_on_c, 9, 41, 75
1, 155720, Note_off_c, 9, 45, 77
1, 155724, Note_off_c, 2, 68, 96
1, 155730, Note_off_c, 5, 68, 74
1, 155730, Control_c, 5, 1, 0
1, 155770, Note_off_c, 9, 46, 96
1, 155876, Note_off_c, 10, 60, 90
1, 155894, Note_off_c, 7, 27, 74
1, 155898, Note_off_c, 9, 41, 75
1, 155906, Note_on_c, 9, 36, 107
1, 155906, Note_on_c, 9, 42, 112
1, 155908, Note_on_c, 3, 68, 105
1, 155908, Note_on_c, 3, 72, 103
1, 155908, Note_on_c, 7, 32, 84
1, 155910, Note_on_c, 0, 68, 75
1, 155910, Note_on_c, 2, 68, 107
1, 155910, Note_on_c, 9, 49, 79
1, 155912, Note_on_c, 10, 68, 94
1, 155990, Note_off_c, 9, 42, 112
1, 156002, Note_on_c, 3, 70, 107
1, 156002, Note_on_c, 3, 73, 92
1, 156010, Note_off_c, 9, 36, 107
1, 156012, Note_off_c, 3, 72, 103
1, 156012, Note_off_c, 3, 68, 105
1, 156024, Note_off_c, 9, 49, 79
1, 156098, Note_on_c, 3, 68, 92
1, 156098, Note_on_c, 3, 72, 83
1, 156104, Note_off_c, 3, 70, 107
1, 156110, Note_off_c, 3, 73, 92
1, 156186, Note_off_c, 3, 68, 92
1, 156194, Note_on_c, 3, 70, 92
1, 156194, Note_on_c, 3, 73, 77
1, 156212, Note_off_c, 3, 72, 83
1, 156274, Note_off_c, 3, 73, 77
1, 156286, Note_off_c, 0, 60, 83
1, 156290, Note_off_c, 3, 70, 92
1, 156290, Note_on_c, 5, 68, 100
1, 156290, Note_on_c, 6, 68, 110
1, 156292, Note_on_c, 3, 68, 94
1, 156292, Note_on_c, 3, 72, 96
1, 156366, Note_off_c, 10, 68, 94
1, 156366, Note_off_c, 0, 56, 52
1, 156382, Note_off_c, 0, 68, 75
1, 156418, Note_off_c, 5, 68, 100
1, 156424, Note_off_c, 6, 68, 110
1, 156482, Note_on_c, 9, 38, 54
1, 156482, Note_on_c, 6, 68, 107
1, 156486, Note_on_c, 5, 68, 91
1, 156572, Note_off_c, 9, 38, 54
1, 156600, Note_off_c, 6, 68, 107
1, 156642, Note_off_c, 5, 68, 91
1, 156674, Note_on_c, 9, 38, 68
1, 156676, Note_off_c, 2, 60, 100
1, 156676, Note_on_c, 9, 48, 92
1, 156676, Note_on_c, 5, 72, 102
1, 156678, Note_on_c, 6, 68, 107
1, 156680, Note_on_c, 6, 72, 107
1, 156690, Note_off_c, 3, 72, 96
1, 156690, Note_off_c, 3, 68, 94
1, 156698, Note_off_c, 7, 32, 84
1, 156702, Note_off_c, 2, 68, 107
1, 156766, Note_off_c, 9, 48, 92
1, 156770, Note_off_c, 9, 38, 68
1, 156796, Note_off_c, 6, 68, 107
1, 156802, Note_off_c, 5, 72, 102
1, 156820, Note_off_c, 6, 72, 107
1, 156860, Note_on_c, 5, 72, 98
1, 156866, Note_on_c, 9, 38, 96
1, 156866, Note_on_c, 9, 48, 87
1, 156878, Note_on_c, 6, 72, 107
1, 156882, Note_on_c, 6, 68, 105
1, 156946, Note_off_c, 9, 48, 87
1, 156948, Note_off_c, 9, 38, 96
1, 156978, Note_off_c, 6, 68, 105
1, 156996, Note_off_c, 6, 72, 107
1, 157010, Note_off_c, 5, 72, 98
1, 157042, Note_on_c, 5, 75, 105
1, 157058, Note_on_c, 9, 38, 112
1, 157058, Note_on_c, 9, 45, 96
1, 157062, Note_on_c, 6, 72, 102
1, 157066, Note_on_c, 6, 75, 85
1, 157146, Note_off_c, 9, 38, 112
1, 157154, Note_off_c, 9, 45, 96
1, 157182, Note_off_c, 6, 72, 102
1, 157192, Note_off_c, 6, 75, 85
1, 157192, Note_off_c, 5, 75, 105
1, 157238, Note_on_c, 5, 75, 91
1, 157250, Note_on_c, 9, 38, 120
1, 157250, Note_on_c, 6, 72, 107
1, 157252, Note_on_c, 9, 41, 96
1, 157252, Note_on_c, 9, 45, 100
1, 157254, Note_on_c, 6, 75, 85
1, 157334, Note_off_c, 9, 45, 100
1, 157334, Note_off_c, 9, 41, 96
1, 157334, Note_off_c, 9, 38, 120
1, 157374, Note_off_c, 6, 72, 107
1, 157384, Note_off_c, 6, 75, 85
1, 157406, Note_off_c, 5, 75, 91
1, 157438, Note_on_c, 5, 77, 105
1, 157438, Note_on_c, 6, 77, 98
1, 157442, Note_on_c, 9, 36, 114
1, 157442, Note_on_c, 9, 42, 102
1, 157444, Note_on_c, 0, 77, 73
1, 157444, Note_on_c, 7, 37, 99
1, 157444, Note_on_c, 6, 73, 100
1, 157446, Note_on_c, 0, 68, 75
1, 157446, Note_on_c, 0, 85, 68
1, 157446, Note_on_c, 9, 49, 107
1, 157448, Note_on_c, 1, 61, 112
1, 157490, Note_off_c, 9, 49, 107
1, 157522, Note_off_c, 9, 42, 102
1, 157572, Note_off_c, 9, 36, 114
1, 157634, Note_on_c, 9, 42, 54
1, 157698, Note_off_c, 9, 42, 54
1, 157708, Note_off_c, 5, 77, 105
1, 157738, Note_off_c, 6, 77, 98
1, 157740, Note_off_c, 6, 73, 100
1, 157816, Note_on_c, 6, 73, 107
1, 157820, Note_on_c, 6, 77, 113
1, 157826, Note_on_c, 9, 38, 98
1, 157826, Note_on_c, 9, 42, 89
1, 157826, Note_on_c, 5, 77, 107
1, 157828, Note_on_c, 2, 56, 94
1, 157828, Note_on_c, 2, 61, 94
1, 157828, Note_on_c, 2, 65, 96
1, 157858, Note_off_c, 7, 37, 99
1, 157902, Note_off_c, 9, 42, 89
1, 157924, Note_off_c, 2, 56, 94
1, 157928, Note_off_c, 2, 61, 94
1, 157940, Note_off_c, 9, 38, 98
1, 157946, Note_off_c, 2, 65, 96
1, 157950, Note_off_c, 6, 77, 113
1, 157956, Note_off_c, 6, 73, 107
1, 158002, Note_on_c, 6, 72, 102
1, 158006, Note_off_c, 5, 77, 107
1, 158006, Note_on_c, 6, 75, 89
1, 158014, Note_on_c, 5, 75, 91
1, 158018, Note_on_c, 9, 36, 98
1, 158018, Note_on_c, 9, 42, 83
1, 158018, Note_on_c, 7, 37, 97
1, 158020, Note_on_c, 2, 56, 83
1, 158020, Note_on_c, 2, 61, 79
1, 158020, Note_on_c, 2, 65, 107
1, 158088, Note_off_c, 9, 42, 83
1, 158102, Note_off_c, 7, 37, 97
1, 158116, Note_off_c, 9, 36, 98
1, 158142, Note_off_c, 6, 72, 102
1, 158158, Note_off_c, 6, 75, 89
1, 158198, Note_on_c, 6, 73, 91
1, 158198, Note_on_c, 6, 77, 95
1, 158202, Note_off_c, 5, 75, 91
1, 158210, Note_on_c, 9, 36, 114
1, 158210, Note_on_c, 9, 42, 105
1, 158212, Note_on_c, 7, 37, 106
1, 158212, Note_on_c, 5, 77, 98
1, 158286, Note_off_c, 9, 42, 105
1, 158286, Note_off_c, 2, 56, 83
1, 158310, Note_off_c, 2, 61, 79
1, 158326, Note_off_c, 2, 65, 107
1, 158346, Note_off_c, 9, 36, 114
1, 158402, Note_on_c, 2, 56, 65
1, 158402, Note_on_c, 2, 65, 75
1, 158402, Note_on_c, 9, 42, 60
1, 158404, Note_on_c, 2, 61, 54
1, 158458, Note_off_c, 9, 42, 60
1, 158462, Note_off_c, 2, 56, 65
1, 158466, Note_off_c, 2, 61, 54
1, 158474, Note_off_c, 2, 65, 75
1, 158482, Note_off_c, 1, 61, 112
1, 158594, Note_on_c, 2, 61, 94
1, 158594, Note_on_c, 9, 38, 117
1, 158594, Note_on_c, 9, 42, 100
1, 158596, Note_on_c, 2, 56, 87
1, 158596, Note_on_c, 2, 65, 107
1, 158634, Note_off_c, 7, 37, 106
1, 158658, Note_off_c, 9, 42, 100
1, 158700, Note_off_c, 2, 56, 87
1, 158718, Note_off_c, 2, 65, 107
1, 158724, Note_off_c, 2, 61, 94
1, 158738, Note_off_c, 9, 38, 117
1, 158776, Control_c, 5, 1, 8
1, 158786, Note_on_c, 2, 56, 81
1, 158786, Note_on_c, 9, 42, 64
1, 158786, Note_on_c, 7, 32, 97
1, 158788, Note_on_c, 1, 56, 126
1, 158788, Note_on_c, 2, 61, 77
1, 158788, Note_on_c, 2, 65, 103
1, 158818, Control_c, 5, 1, 30
1, 158844, Note_off_c, 9, 42, 64
1, 158858, Control_c, 5, 1, 43
1, 158948, Note_off_c, 1, 56, 126
1, 158952, Note_off_c, 7, 32, 97
1, 158980, Note_on_c, 1, 61, 117
1, 158980, Note_on_c, 9, 36, 102
1, 158980, Note_on_c, 9, 42, 102
1, 158980, Note_on_c, 7, 37, 106
1, 158982, Control_c, 5, 1, 45
1, 159014, Note_off_c, 2, 56, 81
1, 159022, Note_off_c, 2, 65, 103
1, 159022, Note_off_c, 6, 77, 95
1, 159026, Note_off_c, 2, 61, 77
1, 159042, Note_off_c, 6, 73, 91
1, 159044, Note_off_c, 9, 42, 102
1, 159050, Control_c, 5, 1, 39
1, 159090, Control_c, 5, 1, 0
1, 159100, Note_off_c, 5, 77, 98
1, 159118, Note_off_c, 9, 36, 102
1, 159166, Note_on_c, 5, 77, 110
1, 159170, Note_on_c, 2, 61, 73
1, 159170, Note_on_c, 2, 65, 81
1, 159170, Note_on_c, 9, 42, 66
1, 159172, Note_on_c, 2, 56, 71
1, 159174, Note_on_c, 6, 73, 82
1, 159174, Note_on_c, 6, 77, 93
1, 159226, Note_off_c, 9, 42, 66
1, 159238, Note_off_c, 2, 65, 81
1, 159242, Note_off_c, 2, 56, 71
1, 159242, Note_off_c, 2, 61, 73
1, 159278, Note_off_c, 6, 73, 82
1, 159292, Note_off_c, 6, 77, 93
1, 159318, Note_off_c, 5, 77, 110
1, 159362, Note_on_c, 9, 38, 112
1, 159362, Note_on_c, 9, 42, 100
1, 159362, Note_on_c, 5, 77, 110
1, 159364, Note_on_c, 2, 56, 75
1, 159364, Note_on_c, 2, 61, 73
1, 159364, Note_on_c, 2, 65, 92
1, 159374, Note_on_c, 6, 73, 89
1, 159378, Note_on_c, 6, 77, 95
1, 159418, Note_off_c, 7, 37, 106
1, 159428, Note_off_c, 2, 65, 92
1, 159432, Note_off_c, 2, 61, 73
1, 159432, Note_off_c, 9, 42, 100
1, 159436, Note_off_c, 2, 56, 75
1, 159468, Note_off_c, 9, 38, 112
1, 159496, Note_off_c, 6, 73, 89
1, 159510, Note_off_c, 5, 77, 110
1, 159530, Note_off_c, 6, 77, 95
1, 159550, Note_on_c, 5, 79, 107
1, 159554, Note_on_c, 9, 36, 96
1, 159554, Note_on_c, 9, 42, 85
1, 159554, Note_on_c, 6, 79, 91
1, 159556, Note_on_c, 2, 56, 94
1, 159556, Note_on_c, 2, 61, 92
1, 159556, Note_on_c, 2, 65, 107
1, 159556, Note_on_c, 7, 37, 99
1, 159558, Note_on_c, 6, 75, 91
1, 159620, Note_off_c, 9, 42, 85
1, 159634, Note_off_c, 7, 37, 99
1, 159642, Note_off_c, 9, 36, 96
1, 159698, Note_off_c, 6, 75, 91
1, 159700, Note_off_c, 5, 79, 107
1, 159710, Note_off_c, 6, 79, 91
1, 159734, Note_off_c, 2, 65, 107
1, 159738, Note_off_c, 2, 61, 92
1, 159738, Note_on_c, 5, 80, 110
1, 159742, Note_off_c, 2, 56, 94
1, 159746, Note_on_c, 9, 36, 114
1, 159746, Note_on_c, 9, 42, 114
1, 159748, Note_on_c, 7, 37, 106
1, 159750, Note_on_c, 6, 77, 102
1, 159754, Note_on_c, 6, 80, 98
1, 159826, Note_off_c, 9, 42, 114
1, 159874, Note_off_c, 9, 36, 114
1, 159938, Note_on_c, 2, 56, 65
1, 159938, Note_on_c, 2, 61, 58
1, 159938, Note_on_c, 9, 42, 66
1, 159940, Note_on_c, 2, 65, 59
1, 159974, Note_off_c, 2, 65, 59
1, 159978, Note_off_c, 2, 61, 58
1, 159982, Note_off_c, 2, 56, 65
1, 160002, Note_off_c, 9, 42, 66
1, 160130, Note_on_c, 2, 56, 83
1, 160130, Note_on_c, 9, 38, 112
1, 160130, Note_on_c, 9, 42, 120
1, 160132, Note_on_c, 2, 61, 94
1, 160132, Note_on_c, 2, 65, 103
1, 160198, Note_off_c, 7, 37, 106
1, 160204, Note_off_c, 9, 42, 120
1, 160218, Note_off_c, 2, 65, 103
1, 160226, Note_off_c, 2, 56, 83
1, 160232, Note_off_c, 2, 61, 94
1, 160274, Note_off_c, 9, 38, 112
1, 160274, Note_off_c, 6, 80, 98
1, 160284, Note_off_c, 6, 77, 102
1, 160294, Note_off_c, 5, 80, 110
1, 160302, Note_on_c, 5, 79, 98
1, 160312, Note_on_c, 6, 75, 87
1, 160318, Note_on_c, 6, 79, 89
1, 160322, Note_on_c, 2, 56, 85
1, 160322, Note_on_c, 9, 42, 67
1, 160322, Note_on_c, 7, 37, 78
1, 160324, Note_on_c, 2, 61, 73
1, 160324, Note_on_c, 2, 65, 94
1, 160330, Note_off_c, 1, 61, 117
1, 160388, Note_off_c, 9, 42, 67
1, 160438, Note_off_c, 6, 79, 89
1, 160438, Note_off_c, 5, 79, 98
1, 160440, Note_off_c, 6, 75, 87
1, 160490, Note_off_c, 2, 65, 94
1, 160498, Note_off_c, 2, 61, 73
1, 160498, Note_off_c, 7, 37, 78
1, 160502, Note_on_c, 5, 77, 93
1, 160506, Note_off_c, 2, 56, 85
1, 160514, Note_on_c, 9, 36, 114
1, 160516, Note_on_c, 9, 42, 109
1, 160516, Note_on_c, 7, 32, 108
1, 160516, Note_on_c, 6, 73, 89
1, 160518, Note_on_c, 1, 56, 114
1, 160518, Note_on_c, 6, 77, 98
1, 160580, Note_off_c, 9, 42, 109
1, 160616, Note_off_c, 9, 36, 114
1, 160670, Note_off_c, 0, 77, 73
1, 160694, Note_off_c, 6, 77, 98
1, 160694, Note_off_c, 6, 73, 89
1, 160706, Note_on_c, 0, 75, 75
1, 160706, Note_on_c, 0, 84, 70
1, 160706, Note_on_c, 9, 42, 61
1, 160708, Note_off_c, 5, 77, 93
1, 160708, Note_on_c, 2, 60, 68
1, 160708, Note_on_c, 2, 63, 67
1, 160708, Note_on_c, 2, 68, 77
1, 160742, Note_off_c, 0, 85, 68
1, 160756, Note_off_c, 2, 63, 67
1, 160758, Note_off_c, 2, 68, 77
1, 160762, Note_off_c, 2, 60, 68
1, 160762, Note_off_c, 9, 42, 61
1, 160778, Note_on_c, 5, 75, 76
1, 160790, Note_on_c, 6, 72, 85
1, 160792, Note_on_c, 6, 75, 72
1, 160898, Note_on_c, 9, 38, 107
1, 160898, Note_on_c, 9, 42, 100
1, 160900, Note_on_c, 2, 60, 90
1, 160900, Note_on_c, 2, 63, 87
1, 160900, Note_on_c, 2, 68, 92
1, 160914, Note_off_c, 7, 32, 108
1, 160962, Note_off_c, 9, 42, 100
1, 160984, Note_off_c, 9, 38, 107
1, 160994, Note_off_c, 2, 68, 92
1, 160994, Note_off_c, 2, 63, 87
1, 160994, Note_off_c, 2, 60, 90
1, 161090, Note_on_c, 9, 36, 96
1, 161090, Note_on_c, 9, 42, 81
1, 161090, Note_on_c, 7, 32, 80
1, 161092, Note_on_c, 2, 60, 96
1, 161092, Note_on_c, 2, 63, 94
1, 161092, Note_on_c, 2, 68, 96
1, 161150, Note_off_c, 9, 42, 81
1, 161154, Note_off_c, 7, 32, 80
1, 161178, Note_off_c, 9, 36, 96
1, 161282, Note_on_c, 9, 36, 112
1, 161282, Note_on_c, 9, 42, 100
1, 161284, Note_on_c, 7, 32, 95
1, 161304, Note_off_c, 2, 60, 96
1, 161318, Control_c, 5, 1, 1
1, 161338, Note_off_c, 2, 63, 94
1, 161350, Note_off_c, 2, 68, 96
1, 161354, Note_off_c, 9, 42, 100
1, 161358, Control_c, 5, 1, 4
1, 161406, Note_off_c, 9, 36, 112
1, 161406, Control_c, 5, 1, 16
1, 161446, Control_c, 5, 1, 21
1, 161450, Note_off_c, 1, 56, 114
1, 161474, Note_on_c, 2, 60, 66
1, 161474, Note_on_c, 2, 63, 65
1, 161474, Note_on_c, 9, 42, 65
1, 161476, Note_on_c, 1, 63, 126
1, 161476, Note_on_c, 2, 68, 71
1, 161522, Control_c, 5, 1, 23
1, 161524, Note_off_c, 9, 42, 65
1, 161528, Note_off_c, 2, 68, 71
1, 161528, Note_off_c, 2, 63, 65
1, 161532, Note_off_c, 2, 60, 66
1, 161560, Control_c, 5, 1, 25
1, 161570, Note_off_c, 1, 63, 126
1, 161646, Note_off_c, 7, 32, 95
1, 161666, Note_on_c, 9, 38, 117
1, 161666, Note_on_c, 9, 42, 105
1, 161668, Note_on_c, 2, 60, 90
1, 161668, Note_on_c, 2, 63, 87
1, 161668, Note_on_c, 2, 68, 90
1, 161668, Control_c, 5, 1, 17
1, 161698, Control_c, 5, 1, 0
1, 161732, Note_off_c, 9, 42, 105
1, 161770, Note_off_c, 2, 63, 87
1, 161770, Note_off_c, 2, 60, 90
1, 161778, Note_off_c, 2, 68, 90
1, 161810, Note_off_c, 9, 38, 117
1, 161858, Note_on_c, 2, 60, 85
1, 161858, Note_on_c, 9, 42, 66
1, 161858, Note_on_c, 7, 27, 101
1, 161860, Note_on_c, 1, 63, 126
1, 161860, Note_on_c, 2, 63, 83
1, 161860, Note_on_c, 2, 68, 92
1, 161908, Note_off_c, 0, 75, 75
1, 161922, Note_off_c, 9, 42, 66
1, 161946, Note_off_c, 0, 68, 75
1, 161964, Note_off_c, 5, 75, 76
1, 162034, Note_off_c, 1, 63, 126
1, 162044, Note_off_c, 7, 27, 101
1, 162050, Note_off_c, 0, 84, 70
1, 162050, Note_on_c, 9, 36, 114
1, 162052, Note_on_c, 0, 80, 75
1, 162052, Note_on_c, 9, 42, 107
1, 162052, Note_on_c, 7, 32, 101
1, 162054, Note_on_c, 0, 63, 62
1, 162054, Note_on_c, 0, 72, 73
1, 162054, Note_on_c, 1, 56, 123
1, 162058, Note_off_c, 6, 72, 85
1, 162082, Note_off_c, 6, 75, 72
1, 162102, Note_off_c, 2, 60, 85
1, 162116, Note_off_c, 9, 42, 107
1, 162122, Note_off_c, 2, 63, 83
1, 162140, Note_off_c, 2, 68, 92
1, 162162, Note_off_c, 9, 36, 114
1, 162230, Note_on_c, 6, 72, 89
1, 162234, Note_on_c, 6, 80, 93
1, 162242, Note_on_c, 2, 68, 75
1, 162242, Note_on_c, 9, 42, 66
1, 162244, Note_on_c, 2, 60, 67
1, 162244, Note_on_c, 2, 63, 64
1, 162250, Note_on_c, 5, 80, 107
1, 162296, Note_off_c, 9, 42, 66
1, 162300, Note_off_c, 2, 60, 67
1, 162306, Note_off_c, 2, 63, 64
1, 162306, Note_off_c, 2, 68, 75
1, 162326, Note_off_c, 6, 72, 89
1, 162332, Note_off_c, 6, 80, 93
1, 162394, Note_off_c, 5, 80, 107
1, 162426, Note_on_c, 6, 72, 98
1, 162430, Note_on_c, 6, 80, 98
1, 162434, Note_on_c, 9, 38, 120
1, 162434, Note_on_c, 9, 42, 107
1, 162434, Note_on_c, 5, 80, 91
1, 162436, Note_on_c, 2, 60, 90
1, 162436, Note_on_c, 2, 63, 77
1, 162436, Note_on_c, 2, 68, 92
1, 162502, Note_off_c, 6, 72, 98
1, 162510, Note_off_c, 9, 42, 107
1, 162510, Note_off_c, 6, 80, 98
1, 162510, Note_off_c, 7, 32, 101
1, 162514, Note_off_c, 2, 63, 77
1, 162516, Note_off_c, 2, 60, 90
1, 162520, Note_off_c, 2, 68, 92
1, 162548, Note_off_c, 9, 38, 120
1, 162570, Note_off_c, 5, 80, 91
1, 162622, Note_on_c, 5, 80, 95
1, 162622, Note_on_c, 6, 72, 105
1, 162626, Note_on_c, 9, 36, 81
1, 162626, Note_on_c, 9, 42, 81
1, 162626, Note_on_c, 6, 80, 100
1, 162628, Note_on_c, 2, 60, 87
1, 162628, Note_on_c, 2, 63, 87
1, 162628, Note_on_c, 7, 32, 88
1, 162630, Note_on_c, 2, 68, 92
1, 162690, Note_off_c, 9, 42, 81
1, 162704, Note_off_c, 9, 36, 81
1, 162706, Note_off_c, 7, 32, 88
1, 162818, Note_on_c, 9, 36, 112
1, 162818, Note_on_c, 9, 42, 112
1, 162820, Note_on_c, 7, 32, 95
1, 162836, Note_off_c, 2, 60, 87
1, 162838, Note_off_c, 2, 63, 87
1, 162874, Note_off_c, 2, 68, 92
1, 162892, Note_off_c, 9, 42, 112
1, 162902, Note_off_c, 6, 72, 105
1, 162914, Note_off_c, 9, 36, 112
1, 162964, Note_off_c, 6, 80, 100
1, 162986, Note_off_c, 5, 80, 95
1, 163000, Note_on_c, 5, 79, 100
1, 163004, Note_on_c, 6, 70, 105
1, 163010, Note_on_c, 2, 60, 61
1, 163010, Note_on_c, 9, 42, 75
1, 163010, Note_on_c, 6, 79, 98
1, 163012, Note_on_c, 2, 63, 45
1, 163012, Note_on_c, 2, 68, 64
1, 163048, Note_off_c, 2, 63, 45
1, 163058, Note_off_c, 2, 60, 61
1, 163060, Note_off_c, 2, 68, 64
1, 163068, Note_off_c, 9, 42, 75
1, 163074, Note_off_c, 6, 70, 105
1, 163100, Note_off_c, 6, 79, 98
1, 163122, Note_off_c, 5, 79, 100
1, 163198, Note_on_c, 5, 79, 107
1, 163202, Note_on_c, 2, 60, 92
1, 163202, Note_on_c, 9, 38, 112
1, 163202, Note_on_c, 9, 42, 107
1, 163204, Note_on_c, 2, 63, 81
1, 163204, Note_on_c, 2, 68, 87
1, 163206, Note_on_c, 6, 79, 100
1, 163210, Note_on_c, 6, 70, 98
1, 163256, Note_off_c, 9, 42, 107
1, 163268, Note_off_c, 9, 38, 112
1, 163274, Note_off_c, 7, 32, 95
1, 163282, Note_off_c, 6, 70, 98
1, 163286, Note_off_c, 2, 60, 92
1, 163288, Note_off_c, 2, 68, 87
1, 163288, Note_off_c, 2, 63, 81
1, 163302, Note_off_c, 6, 79, 100
1, 163330, Note_off_c, 0, 63, 62
1, 163358, Note_off_c, 5, 79, 107
1, 163364, Note_off_c, 0, 72, 73
1, 163394, Note_off_c, 1, 56, 123
1, 163394, Note_on_c, 9, 46, 89
1, 163394, Note_on_c, 7, 32, 80
1, 163396, Note_on_c, 2, 60, 75
1, 163396, Note_on_c, 2, 63, 66
1, 163396, Note_on_c, 2, 68, 81
1, 163400, Note_on_c, 5, 82, 105
1, 163400, Note_on_c, 6, 73, 105
1, 163404, Note_on_c, 6, 82, 91
1, 163442, Note_off_c, 9, 46, 89
1, 163478, Note_off_c, 2, 63, 66
1, 163480, Note_off_c, 2, 60, 75
1, 163486, Note_off_c, 2, 68, 81
1, 163562, Note_off_c, 0, 80, 75
1, 163586, Note_off_c, 7, 32, 80
1, 163586, Note_on_c, 9, 36, 114
1, 163586, Note_on_c, 9, 42, 112
1, 163588, Note_on_c, 0, 70, 59
1, 163588, Note_on_c, 0, 87, 64
1, 163588, Note_on_c, 7, 39, 99
1, 163590, Note_on_c, 0, 79, 50
1, 163590, Note_on_c, 1, 63, 126
1, 163650, Note_off_c, 9, 42, 112
1, 163676, Note_off_c, 9, 36, 114
1, 163700, Note_off_c, 6, 73, 105
1, 163716, Note_off_c, 6, 82, 91
1, 163758, Note_off_c, 5, 82, 105
1, 163764, Note_on_c, 6, 72, 105
1, 163774, Note_on_c, 6, 80, 89
1, 163778, Note_on_c, 2, 63, 73
1, 163778, Note_on_c, 2, 67, 79
1, 163778, Note_on_c, 9, 42, 73
1, 163780, Note_on_c, 2, 58, 66
1, 163790, Note_on_c, 5, 80, 102
1, 163830, Note_off_c, 2, 58, 66
1, 163836, Note_off_c, 9, 42, 73
1, 163844, Note_off_c, 2, 63, 73
1, 163854, Note_off_c, 2, 67, 79
1, 163866, Note_off_c, 6, 72, 105
1, 163908, Note_off_c, 6, 80, 89
1, 163942, Note_off_c, 5, 80, 102
1, 163966, Note_on_c, 6, 70, 98
1, 163966, Note_on_c, 6, 79, 95
1, 163970, Note_on_c, 2, 67, 90
1, 163970, Note_on_c, 9, 38, 112
1, 163970, Note_on_c, 9, 42, 100
1, 163972, Note_on_c, 2, 58, 92
1, 163972, Note_on_c, 2, 63, 87
1, 163974, Note_on_c, 5, 79, 105
1, 164020, Note_off_c, 7, 39, 99
1, 164028, Note_off_c, 6, 79, 95
1, 164034, Note_off_c, 9, 42, 100
1, 164042, Note_off_c, 2, 58, 92
1, 164050, Note_off_c, 2, 63, 87
1, 164054, Note_off_c, 9, 38, 112
1, 164054, Note_off_c, 2, 67, 90
1, 164054, Note_off_c, 6, 70, 98
1, 164148, Note_off_c, 5, 79, 105
1, 164158, Note_on_c, 6, 77, 95
1, 164162, Note_on_c, 9, 36, 87
1, 164162, Note_on_c, 9, 42, 87
1, 164162, Note_on_c, 6, 68, 98
1, 164164, Note_on_c, 2, 58, 96
1, 164164, Note_on_c, 2, 67, 92
1, 164164, Note_on_c, 7, 39, 86
1, 164166, Note_on_c, 2, 63, 85
1, 164172, Note_on_c, 5, 77, 102
1, 164218, Note_off_c, 9, 42, 87
1, 164230, Note_off_c, 9, 36, 87
1, 164244, Note_off_c, 7, 39, 86
1, 164354, Note_on_c, 9, 36, 117
1, 164354, Note_on_c, 9, 42, 114
1, 164356, Note_on_c, 0, 82, 87
1, 164356, Note_on_c, 7, 39, 95
1, 164366, Note_off_c, 2, 58, 96
1, 164366, Note_off_c, 0, 87, 64
1, 164378, Note_off_c, 2, 67, 92
1, 164396, Note_off_c, 2, 63, 85
1, 164422, Note_off_c, 9, 42, 114
1, 164450, Note_off_c, 6, 68, 98
1, 164452, Note_off_c, 6, 77, 95
1, 164466, Note_off_c, 9, 36, 117
1, 164472, Note_off_c, 5, 77, 102
1, 164536, Note_on_c, 5, 75, 95
1, 164542, Note_on_c, 6, 67, 102
1, 164546, Note_on_c, 2, 63, 71
1, 164546, Note_on_c, 9, 42, 79
1, 164546, Note_on_c, 6, 75, 87
1, 164548, Note_on_c, 2, 58, 77
1, 164548, Note_on_c, 2, 67, 79
1, 164600, Note_off_c, 2, 58, 77
1, 164606, Note_off_c, 9, 42, 79
1, 164610, Note_off_c, 2, 63, 71
1, 164612, Note_off_c, 2, 67, 79
1, 164618, Note_off_c, 6, 67, 102
1, 164638, Note_off_c, 6, 75, 87
1, 164694, Note_off_c, 5, 75, 95
1, 164724, Note_off_c, 0, 82, 87
1, 164734, Note_on_c, 5, 75, 87
1, 164738, Note_on_c, 9, 38, 112
1, 164738, Note_on_c, 9, 42, 102
1, 164738, Note_on_c, 6, 67, 91
1, 164740, Note_on_c, 0, 84, 75
1, 164740, Note_on_c, 2, 63, 73
1, 164740, Note_on_c, 6, 75, 95
1, 164742, Note_on_c, 2, 58, 81
1, 164742, Note_on_c, 2, 67, 75
1, 164790, Note_off_c, 7, 39, 95
1, 164794, Note_off_c, 2, 58, 81
1, 164802, Note_off_c, 9, 42, 102
1, 164802, Note_off_c, 1, 63, 126
1, 164806, Note_off_c, 2, 67, 75
1, 164814, Note_off_c, 2, 63, 73
1, 164814, Note_off_c, 6, 67, 91
1, 164828, Note_off_c, 6, 75, 95
1, 164838, Note_off_c, 9, 38, 112
1, 164866, Note_off_c, 5, 75, 87
1, 164918, Note_on_c, 5, 75, 89
1, 164930, Note_on_c, 9, 42, 77
1, 164930, Note_on_c, 7, 34, 95
1, 164932, Note_on_c, 1, 63, 120
1, 164932, Note_on_c, 2, 58, 77
1, 164932, Note_on_c, 2, 63, 73
1, 164932, Note_on_c, 2, 67, 79
1, 164934, Note_on_c, 6, 75, 93
1, 164938, Note_on_c, 6, 67, 100
1, 164984, Note_off_c, 9, 42, 77
1, 165016, Note_off_c, 1, 63, 120
1, 165098, Note_off_c, 7, 34, 95
1, 165118, Note_off_c, 0, 84, 75
1, 165124, Note_on_c, 9, 36, 120
1, 165124, Note_on_c, 9, 42, 105
1, 165124, Note_on_c, 7, 39, 106
1, 165126, Note_on_c, 0, 85, 65
1, 165126, Note_on_c, 1, 63, 123
1, 165132, Note_off_c, 2, 67, 79
1, 165138, Note_off_c, 2, 58, 77
1, 165154, Note_off_c, 2, 63, 73
1, 165158, Note_off_c, 5, 75, 89
1, 165188, Note_off_c, 9, 42, 105
1, 165246, Note_off_c, 9, 36, 120
1, 165314, Note_on_c, 2, 63, 65
1, 165314, Note_on_c, 2, 67, 67
1, 165314, Note_on_c, 9, 42, 83
1, 165316, Note_on_c, 2, 58, 81
1, 165374, Note_off_c, 2, 58, 81
1, 165374, Note_off_c, 2, 67, 67
1, 165374, Note_off_c, 2, 63, 65
1, 165378, Note_off_c, 9, 42, 83
1, 165398, Note_off_c, 6, 67, 100
1, 165500, Note_off_c, 6, 75, 93
1, 165506, Note_on_c, 9, 38, 94
1, 165506, Note_on_c, 9, 42, 98
1, 165506, Note_on_c, 6, 67, 105
1, 165508, Note_on_c, 2, 58, 85
1, 165508, Note_on_c, 2, 63, 71
1, 165508, Note_on_c, 2, 67, 79
1, 165510, Note_on_c, 5, 70, 102
1, 165510, Note_on_c, 6, 70, 95
1, 165532, Note_off_c, 7, 39, 106
1, 165564, Note_off_c, 9, 42, 98
1, 165570, Note_off_c, 2, 58, 85
1, 165572, Note_off_c, 2, 63, 71
1, 165578, Note_off_c, 6, 67, 105
1, 165586, Note_off_c, 6, 70, 95
1, 165594, Note_off_c, 2, 67, 79
1, 165618, Note_off_c, 9, 38, 94
1, 165644, Note_off_c, 5, 70, 102
1, 165694, Note_on_c, 5, 70, 95
1, 165698, Note_on_c, 9, 36, 100
1, 165698, Note_on_c, 9, 42, 107
1, 165700, Note_on_c, 2, 58, 90
1, 165700, Note_on_c, 2, 63, 79
1, 165700, Note_on_c, 2, 67, 92
1, 165700, Note_on_c, 7, 39, 86
1, 165702, Note_on_c, 6, 67, 102
1, 165706, Note_on_c, 6, 70, 107
1, 165762, Note_off_c, 9, 42, 107
1, 165770, Note_off_c, 6, 67, 102
1, 165774, Note_off_c, 6, 70, 107
1, 165778, Note_off_c, 7, 39, 86
1, 165784, Note_off_c, 9, 36, 100
1, 165810, Note_off_c, 5, 70, 95
1, 165890, Note_on_c, 9, 36, 117
1, 165890, Note_on_c, 9, 42, 112
1, 165892, Note_off_c, 2, 58, 90
1, 165892, Note_on_c, 7, 39, 104
1, 165892, Note_on_c, 6, 67, 107
1, 165894, Note_on_c, 6, 70, 107
1, 165900, Note_off_c, 2, 67, 92
1, 165900, Note_on_c, 5, 70, 107
1, 165914, Note_off_c, 2, 63, 79
1, 165966, Note_off_c, 9, 42, 112
1, 165988, Note_off_c, 6, 67, 107
1, 166002, Note_off_c, 9, 36, 117
1, 166056, Note_off_c, 6, 70, 107
1, 166078, Note_on_c, 6, 72, 95
1, 166082, Note_off_c, 5, 70, 107
1, 166082, Note_on_c, 9, 42, 85
1, 166082, Note_on_c, 6, 68, 93
1, 166084, Note_on_c, 2, 58, 87
1, 166084, Note_on_c, 2, 63, 92
1, 166084, Note_on_c, 2, 67, 92
1, 166090, Note_on_c, 5, 72, 93
1, 166142, Note_off_c, 9, 42, 85
1, 166152, Note_off_c, 2, 63, 92
1, 166162, Note_off_c, 2, 67, 92
1, 166182, Note_off_c, 2, 58, 87
1, 166202, Note_off_c, 6, 68, 93
1, 166210, Note_off_c, 6, 72, 95
1, 166254, Note_off_c, 5, 72, 93
1, 166268, Note_on_c, 6, 73, 91
1, 166274, Note_on_c, 9, 38, 112
1, 166274, Note_on_c, 9, 42, 105
1, 166274, Note_on_c, 6, 70, 110
1, 166282, Note_on_c, 5, 73, 89
1, 166338, Note_off_c, 9, 42, 105
1, 166354, Note_off_c, 6, 70, 110
1, 166362, Note_off_c, 6, 73, 91
1, 166366, Note_off_c, 9, 38, 112
1, 166372, Note_off_c, 5, 73, 89
1, 166398, Note_off_c, 0, 79, 50
1, 166402, Note_off_c, 7, 39, 104
1, 166450, Note_off_c, 0, 70, 59
1, 166458, Note_on_c, 6, 73, 107
1, 166462, Note_on_c, 6, 77, 110
1, 166466, Note_on_c, 9, 42, 85
1, 166466, Note_on_c, 7, 34, 93
1, 166468, Note_on_c, 2, 58, 98
1, 166468, Note_on_c, 2, 63, 81
1, 166468, Note_on_c, 2, 67, 90
1, 166470, Note_off_c, 1, 63, 123
1, 166470, Note_on_c, 5, 73, 102
1, 166524, Note_off_c, 9, 42, 85
1, 166542, Note_off_c, 2, 63, 81
1, 166556, Note_off_c, 2, 67, 90
1, 166562, Note_off_c, 2, 58, 98
1, 166610, Note_off_c, 7, 34, 93
1, 166658, Note_on_c, 9, 36, 120
1, 166658, Note_on_c, 9, 42, 107
1, 166660, Note_on_c, 0, 68, 68
1, 166660, Note_on_c, 0, 75, 63
1, 166660, Note_on_c, 7, 32, 91
1, 166662, Note_on_c, 1, 56, 126
1, 166726, Note_off_c, 9, 42, 107
1, 166770, Note_off_c, 9, 36, 120
1, 166772, Note_off_c, 6, 77, 110
1, 166802, Note_off_c, 6, 73, 107
1, 166812, Note_off_c, 5, 73, 102
1, 166842, Note_on_c, 6, 72, 105
1, 166846, Note_on_c, 6, 75, 95
1, 166850, Note_on_c, 0, 84, 92
1, 166850, Note_on_c, 9, 42, 89
1, 166852, Note_on_c, 2, 60, 64
1, 166852, Note_on_c, 2, 63, 63
1, 166852, Note_on_c, 2, 68, 60
1, 166852, Note_on_c, 5, 72, 100
1, 166856, Note_off_c, 0, 85, 65
1, 166886, Note_off_c, 2, 68, 60
1, 166886, Note_off_c, 2, 60, 64
1, 166898, Note_off_c, 2, 63, 63
1, 166902, Note_off_c, 9, 42, 89
1, 166958, Note_off_c, 6, 72, 105
1, 166964, Note_off_c, 6, 75, 95
1, 167004, Note_off_c, 5, 72, 100
1, 167032, Note_on_c, 6, 70, 113
1, 167036, Note_on_c, 6, 73, 95
1, 167042, Note_on_c, 9, 38, 109
1, 167042, Note_on_c, 9, 42, 100
1, 167042, Note_on_c, 5, 70, 100
1, 167044, Note_on_c, 0, 82, 77
1, 167044, Note_on_c, 2, 60, 90
1, 167044, Note_on_c, 2, 63, 87
1, 167044, Note_on_c, 2, 68, 92
1, 167050, Note_off_c, 0, 84, 92
1, 167064, Note_off_c, 7, 32, 91
1, 167098, Note_off_c, 9, 42, 100
1, 167108, Note_off_c, 2, 60, 90
1, 167124, Note_off_c, 2, 68, 92
1, 167130, Note_off_c, 2, 63, 87
1, 167138, Note_off_c, 9, 38, 109
1, 167170, Note_off_c, 6, 70, 113
1, 167186, Note_off_c, 6, 73, 95
1, 167220, Note_off_c, 5, 70, 100
1, 167226, Note_off_c, 0, 82, 77
1, 167226, Note_on_c, 6, 72, 102
1, 167230, Note_on_c, 6, 75, 89
1, 167234, Note_on_c, 9, 36, 87
1, 167234, Note_on_c, 9, 42, 96
1, 167234, Note_on_c, 7, 32, 97
1, 167236, Note_on_c, 0, 84, 73
1, 167236, Note_on_c, 2, 60, 90
1, 167236, Note_on_c, 2, 63, 87
1, 167236, Note_on_c, 2, 68, 96
1, 167238, Note_on_c, 5, 72, 91
1, 167290, Note_off_c, 9, 42, 96
1, 167310, Note_off_c, 9, 36, 87
1, 167314, Note_off_c, 7, 32, 97
1, 167410, Note_off_c, 2, 60, 90
1, 167426, Note_on_c, 9, 36, 117
1, 167426, Note_on_c, 9, 42, 117
1, 167428, Note_on_c, 7, 32, 97
1, 167442, Note_off_c, 2, 68, 96
1, 167444, Note_off_c, 2, 63, 87
1, 167450, Note_off_c, 1, 56, 126
1, 167492, Note_off_c, 9, 42, 117
1, 167546, Note_off_c, 9, 36, 117
1, 167618, Note_on_c, 2, 63, 65
1, 167618, Note_on_c, 9, 42, 85
1, 167620, Note_on_c, 1, 63, 126
1, 167620, Note_on_c, 2, 60, 71
1, 167620, Note_on_c, 2, 68, 81
1, 167668, Note_off_c, 2, 60, 71
1, 167672, Note_off_c, 2, 68, 81
1, 167678, Note_off_c, 9, 42, 85
1, 167682, Note_off_c, 2, 63, 65
1, 167722, Note_off_c, 1, 63, 126
1, 167790, Note_off_c, 7, 32, 97
1, 167810, Note_on_c, 2, 63, 92
1, 167810, Note_on_c, 2, 68, 96
1, 167810, Note_on_c, 9, 38, 117
1, 167810, Note_on_c, 9, 42, 109
1, 167812, Note_on_c, 2, 60, 92
1, 167876, Note_off_c, 9, 42, 109
1, 167892, Note_off_c, 2, 60, 92
1, 167896, Note_off_c, 2, 68, 96
1, 167900, Note_off_c, 2, 63, 92
1, 167930, Note_off_c, 9, 38, 117
1, 168002, Note_on_c, 2, 60, 92
1, 168002, Note_on_c, 9, 42, 92
1, 168002, Note_on_c, 7, 27, 104
1, 168004, Note_on_c, 1, 63, 126
1, 168004, Note_on_c, 2, 63, 92
1, 168004, Note_on_c, 2, 68, 98
1, 168034, Note_off_c, 0, 75, 63
1, 168054, Note_off_c, 9, 42, 92
1, 168068, Note_off_c, 0, 68, 68
1, 168178, Note_off_c, 1, 63, 126
1, 168194, Note_on_c, 9, 42, 112
1, 168196, Note_on_c, 0, 72, 55
1, 168196, Note_on_c, 9, 36, 117
1, 168196, Note_on_c, 7, 32, 86
1, 168198, Note_off_c, 7, 27, 104
1, 168198, Note_on_c, 0, 63, 34
1, 168198, Note_on_c, 0, 80, 60
1, 168198, Note_on_c, 1, 56, 120
1, 168206, Note_off_c, 0, 84, 73
1, 168212, Note_off_c, 5, 72, 91
1, 168234, Note_off_c, 2, 60, 92
1, 168248, Note_off_c, 6, 72, 102
1, 168258, Note_off_c, 9, 42, 112
1, 168262, Note_off_c, 2, 68, 98
1, 168262, Note_off_c, 2, 63, 92
1, 168266, Note_off_c, 6, 75, 89
1, 168296, Note_off_c, 9, 36, 117
1, 168386, Note_on_c, 2, 60, 79
1, 168386, Note_on_c, 2, 63, 73
1, 168386, Note_on_c, 9, 42, 75
1, 168388, Note_on_c, 2, 68, 85
1, 168434, Note_off_c, 9, 42, 75
1, 168438, Note_off_c, 2, 68, 85
1, 168442, Note_off_c, 2, 60, 79
1, 168450, Note_off_c, 2, 63, 73
1, 168566, Note_on_c, 5, 68, 93
1, 168578, Note_on_c, 9, 38, 117
1, 168578, Note_on_c, 9, 42, 109
1, 168580, Note_on_c, 2, 60, 85
1, 168580, Note_on_c, 2, 63, 90
1, 168580, Note_on_c, 2, 68, 94
1, 168580, Note_on_c, 6, 68, 110
1, 168638, Note_off_c, 2, 68, 94
1, 168638, Note_off_c, 2, 60, 85
1, 168642, Note_off_c, 7, 32, 86
1, 168646, Note_off_c, 2, 63, 90
1, 168646, Note_off_c, 9, 42, 109
1, 168670, Note_off_c, 9, 38, 117
1, 168686, Note_off_c, 6, 68, 110
1, 168718, Note_off_c, 5, 68, 93
1, 168760, Note_on_c, 5, 68, 93
1, 168770, Note_on_c, 9, 36, 75
1, 168770, Note_on_c, 9, 42, 79
1, 168770, Note_on_c, 6, 68, 107
1, 168772, Note_on_c, 2, 60, 87
1, 168772, Note_on_c, 2, 63, 92
1, 168772, Note_on_c, 2, 68, 98
1, 168772, Note_on_c, 7, 32, 91
1, 168820, Note_off_c, 9, 42, 79
1, 168846, Note_off_c, 9, 36, 75
1, 168870, Note_off_c, 6, 68, 107
1, 168872, Note_off_c, 7, 32, 91
1, 168938, Note_off_c, 5, 68, 93
1, 168948, Note_off_c, 2, 60, 87
1, 168950, Note_on_c, 5, 72, 102
1, 168950, Note_on_c, 6, 72, 105
1, 168954, Note_off_c, 2, 68, 98
1, 168954, Note_on_c, 6, 68, 105
1, 168962, Note_off_c, 2, 63, 92
1, 168962, Note_on_c, 9, 36, 114
1, 168964, Note_on_c, 9, 42, 109
1, 168964, Note_on_c, 7, 32, 91
1, 169028, Note_off_c, 9, 42, 109
1, 169058, Note_off_c, 6, 68, 105
1, 169062, Note_off_c, 9, 36, 114
1, 169074, Note_off_c, 7, 32, 91
1, 169076, Note_off_c, 6, 72, 105
1, 169092, Note_off_c, 5, 72, 102
1, 169142, Note_on_c, 5, 72, 95
1, 169146, Note_on_c, 6, 68, 102
1, 169146, Note_on_c, 6, 72, 105
1, 169154, Note_on_c, 9, 38, 81
1, 169154, Note_on_c, 9, 42, 79
1, 169156, Note_on_c, 2, 60, 90
1, 169156, Note_on_c, 2, 63, 87
1, 169156, Note_on_c, 2, 68, 94
1, 169156, Note_on_c, 7, 32, 97
1, 169212, Note_off_c, 9, 42, 79
1, 169230, Note_off_c, 9, 38, 81
1, 169234, Note_off_c, 2, 60, 90
1, 169236, Note_off_c, 2, 68, 94
1, 169240, Note_off_c, 2, 63, 87
1, 169252, Note_off_c, 6, 68, 102
1, 169260, Note_off_c, 6, 72, 105
1, 169284, Note_off_c, 5, 72, 95
1, 169330, Note_on_c, 5, 75, 98
1, 169346, Note_on_c, 9, 38, 114
1, 169346, Note_on_c, 9, 42, 117
1, 169348, Note_on_c, 6, 72, 102
1, 169348, Note_on_c, 6, 75, 91
1, 169386, Note_off_c, 7, 32, 97
1, 169406, Note_off_c, 9, 42, 117
1, 169416, Note_off_c, 9, 38, 114
1, 169450, Note_off_c, 6, 72, 102
1, 169460, Note_off_c, 6, 75, 91
1, 169464, Note_off_c, 5, 75, 98
1, 169518, Note_off_c, 0, 63, 34
1, 169522, Note_on_c, 5, 75, 91
1, 169532, Note_on_c, 6, 72, 107
1, 169538, Note_on_c, 9, 46, 112
1, 169538, Note_on_c, 6, 75, 87
1, 169540, Note_on_c, 2, 60, 92
1, 169540, Note_on_c, 2, 63, 87
1, 169540, Note_on_c, 2, 68, 94
1, 169540, Note_on_c, 7, 32, 108
1, 169554, Note_off_c, 1, 56, 120
1, 169572, Note_off_c, 0, 72, 55
1, 169594, Note_off_c, 9, 46, 112
1, 169602, Note_off_c, 2, 60, 92
1, 169608, Note_off_c, 2, 63, 87
1, 169612, Note_off_c, 2, 68, 94
1, 169638, Note_off_c, 6, 72, 107
1, 169656, Note_off_c, 5, 75, 91
1, 169658, Note_off_c, 6, 75, 87
1, 169706, Note_off_c, 7, 32, 108
1, 169720, Note_off_c, 0, 80, 60
1, 169726, Note_on_c, 6, 73, 105
1, 169726, Note_on_c, 6, 77, 107
1, 169730, Note_on_c, 9, 36, 112
1, 169730, Note_on_c, 9, 42, 114
1, 169732, Note_on_c, 0, 77, 62
1, 169732, Note_on_c, 7, 37, 104
1, 169732, Note_on_c, 5, 77, 102
1, 169734, Note_on_c, 0, 68, 75
1, 169734, Note_on_c, 0, 85, 68
1, 169734, Note_on_c, 9, 49, 90
1, 169736, Note_on_c, 1, 61, 117
1, 169802, Note_off_c, 9, 42, 114
1, 169810, Note_off_c, 9, 49, 90
1, 169836, Note_off_c, 9, 36, 112
1, 169922, Note_on_c, 2, 61, 90
1, 169922, Note_on_c, 2, 68, 73
1, 169922, Note_on_c, 9, 42, 67
1, 169924, Note_on_c, 2, 65, 87
1, 169972, Note_off_c, 9, 42, 67
1, 169994, Note_off_c, 2, 65, 87
1, 169994, Note_off_c, 2, 68, 73
1, 169994, Note_off_c, 2, 61, 90
1, 170006, Note_off_c, 5, 77, 102
1, 170012, Note_off_c, 6, 77, 107
1, 170020, Note_off_c, 6, 73, 105
1, 170114, Note_on_c, 9, 38, 114
1, 170114, Note_on_c, 9, 42, 107
1, 170114, Note_on_c, 5, 77, 105
1, 170116, Note_on_c, 2, 61, 94
1, 170116, Note_on_c, 2, 65, 92
1, 170116, Note_on_c, 2, 68, 85
1, 170116, Note_on_c, 6, 73, 107
1, 170118, Note_on_c, 6, 77, 113
1, 170170, Note_off_c, 7, 37, 104
1, 170178, Note_off_c, 9, 42, 107
1, 170186, Note_off_c, 2, 65, 92
1, 170200, Note_off_c, 2, 68, 85
1, 170204, Note_off_c, 9, 38, 114
1, 170206, Note_off_c, 2, 61, 94
1, 170258, Note_off_c, 6, 77, 113
1, 170262, Note_off_c, 6, 73, 107
1, 170290, Note_off_c, 5, 77, 105
1, 170302, Note_on_c, 5, 75, 93
1, 170306, Note_on_c, 9, 36, 92
1, 170306, Note_on_c, 9, 42, 81
1, 170306, Note_on_c, 7, 37, 74
1, 170308, Note_on_c, 2, 61, 94
1, 170308, Note_on_c, 2, 65, 94
1, 170308, Note_on_c, 2, 68, 79
1, 170310, Note_on_c, 6, 72, 105
1, 170314, Note_on_c, 6, 75, 93
1, 170360, Note_off_c, 9, 42, 81
1, 170376, Note_off_c, 2, 68, 79
1, 170376, Note_off_c, 2, 65, 94
1, 170376, Note_off_c, 7, 37, 74
1, 170380, Note_off_c, 9, 36, 92
1, 170388, Note_off_c, 2, 61, 94
1, 170430, Note_off_c, 5, 75, 93
1, 170438, Note_off_c, 6, 72, 105
1, 170446, Note_off_c, 6, 75, 93
1, 170488, Note_on_c, 6, 77, 107
1, 170492, Note_on_c, 5, 77, 107
1, 170494, Note_on_c, 6, 73, 102
1, 170498, Note_on_c, 9, 36, 112
1, 170498, Note_on_c, 9, 42, 105
1, 170500, Note_on_c, 7, 37, 104
1, 170564, Note_off_c, 9, 42, 105
1, 170594, Note_off_c, 9, 36, 112
1, 170690, Note_on_c, 2, 65, 94
1, 170690, Note_on_c, 2, 68, 85
1, 170690, Note_on_c, 9, 42, 85
1, 170692, Note_on_c, 2, 61, 90
1, 170742, Note_off_c, 2, 61, 90
1, 170744, Note_off_c, 9, 42, 85
1, 170744, Note_off_c, 2, 65, 94
1, 170754, Note_off_c, 2, 68, 85
1, 170818, Note_off_c, 1, 61, 117
1, 170882, Note_on_c, 2, 61, 90
1, 170882, Note_on_c, 2, 68, 90
1, 170882, Note_on_c, 9, 38, 107
1, 170882, Note_on_c, 9, 42, 107
1, 170884, Note_on_c, 2, 65, 92
1, 170906, Note_off_c, 7, 37, 104
1, 170938, Note_off_c, 2, 65, 92
1, 170946, Note_off_c, 9, 42, 107
1, 170946, Note_off_c, 2, 61, 90
1, 170948, Note_off_c, 2, 68, 90
1, 170972, Control_c, 5, 1, 4
1, 170990, Note_off_c, 9, 38, 107
1, 171002, Control_c, 5, 1, 8
1, 171034, Control_c, 5, 1, 15
1, 171074, Note_on_c, 2, 61, 92
1, 171074, Note_on_c, 9, 42, 85
1, 171074, Note_on_c, 7, 32, 84
1, 171076, Note_on_c, 1, 56, 123
1, 171076, Note_on_c, 2, 65, 94
1, 171076, Note_on_c, 2, 68, 81
1, 171080, Control_c, 5, 1, 18
1, 171116, Control_c, 5, 1, 21
1, 171122, Note_off_c, 9, 42, 85
1, 171148, Control_c, 5, 1, 23
1, 171188, Note_off_c, 2, 65, 94
1, 171188, Control_c, 5, 1, 28
1, 171192, Note_off_c, 2, 68, 81
1, 171220, Note_off_c, 1, 56, 123
1, 171234, Note_off_c, 2, 61, 92
1, 171250, Note_off_c, 7, 32, 84
1, 171266, Note_on_c, 9, 36, 114
1, 171266, Note_on_c, 9, 42, 107
1, 171268, Note_on_c, 1, 61, 109
1, 171268, Note_on_c, 7, 37, 95
1, 171270, Note_on_c, 1, 65, 120
1, 171274, Control_c, 5, 1, 33
1, 171332, Note_off_c, 9, 42, 107
1, 171358, Note_off_c, 6, 77, 107
1, 171362, Note_off_c, 5, 77, 107
1, 171366, Note_off_c, 6, 73, 102
1, 171368, Note_off_c, 9, 36, 114
1, 171390, Control_c, 5, 1, 23
1, 171422, Control_c, 5, 1, 0
1, 171446, Note_on_c, 5, 77, 102
1, 171458, Note_on_c, 2, 61, 92
1, 171458, Note_on_c, 2, 65, 94
1, 171458, Note_on_c, 2, 68, 79
1, 171458, Note_on_c, 9, 42, 81
1, 171470, Note_on_c, 6, 73, 89
1, 171470, Note_on_c, 6, 77, 98
1, 171506, Note_off_c, 9, 42, 81
1, 171522, Note_off_c, 2, 65, 94
1, 171522, Note_off_c, 2, 61, 92
1, 171534, Note_off_c, 2, 68, 79
1, 171574, Note_off_c, 6, 73, 89
1, 171592, Note_off_c, 6, 77, 98
1, 171606, Note_off_c, 5, 77, 102
1, 171646, Note_on_c, 5, 77, 105
1, 171650, Note_on_c, 9, 38, 109
1, 171650, Note_on_c, 9, 42, 105
1, 171658, Note_on_c, 6, 73, 91
1, 171662, Note_on_c, 6, 77, 98
1, 171708, Note_off_c, 9, 42, 105
1, 171716, Note_off_c, 9, 38, 109
1, 171718, Note_off_c, 7, 37, 95
1, 171786, Note_off_c, 6, 73, 91
1, 171806, Note_off_c, 6, 77, 98
1, 171826, Note_off_c, 5, 77, 105
1, 171838, Note_on_c, 6, 79, 91
1, 171842, Note_on_c, 9, 36, 102
1, 171842, Note_on_c, 9, 42, 94
1, 171844, Note_on_c, 7, 37, 93
1, 171844, Note_on_c, 5, 79, 110
1, 171844, Note_on_c, 6, 75, 95
1, 171846, Note_on_c, 2, 61, 92
1, 171846, Note_on_c, 2, 65, 96
1, 171846, Note_on_c, 2, 68, 87
1, 171902, Note_off_c, 9, 42, 94
1, 171914, Note_off_c, 2, 68, 87
1, 171914, Note_off_c, 2, 65, 96
1, 171918, Note_off_c, 9, 36, 102
1, 171922, Note_off_c, 7, 37, 93
1, 171926, Note_off_c, 2, 61, 92
1, 171978, Note_off_c, 6, 75, 95
1, 171988, Note_off_c, 6, 79, 91
1, 171994, Note_off_c, 5, 79, 110
1, 172026, Note_on_c, 6, 77, 102
1, 172028, Note_on_c, 5, 80, 102
1, 172030, Note_on_c, 6, 80, 89
1, 172034, Note_on_c, 9, 36, 109
1, 172034, Note_on_c, 9, 42, 117
1, 172036, Note_on_c, 7, 37, 93
1, 172102, Note_off_c, 9, 42, 117
1, 172132, Note_off_c, 9, 36, 109
1, 172226, Note_on_c, 2, 61, 90
1, 172226, Note_on_c, 2, 68, 73
1, 172226, Note_on_c, 9, 42, 81
1, 172228, Note_on_c, 2, 65, 79
1, 172270, Note_off_c, 9, 42, 81
1, 172274, Note_off_c, 2, 65, 79
1, 172282, Note_off_c, 2, 68, 73
1, 172290, Note_off_c, 2, 61, 90
1, 172418, Note_on_c, 2, 61, 87
1, 172418, Note_on_c, 9, 38, 114
1, 172418, Note_on_c, 9, 42, 117
1, 172420, Note_on_c, 2, 65, 92
1, 172420, Note_on_c, 2, 68, 92
1, 172472, Note_off_c, 9, 42, 117
1, 172476, Note_off_c, 2, 65, 92
1, 172476, Note_off_c, 7, 37, 93
1, 172484, Note_off_c, 2, 61, 87
1, 172490, Note_off_c, 2, 68, 92
1, 172506, Note_off_c, 9, 38, 114
1, 172548, Note_off_c, 1, 65, 120
1, 172570, Note_off_c, 6, 77, 102
1, 172574, Note_off_c, 0, 68, 75
1, 172580, Note_off_c, 6, 80, 89
1, 172584, Note_off_c, 1, 61, 109
1, 172588, Note_off_c, 0, 77, 62
1, 172594, Note_off_c, 5, 80, 102
1, 172598, Note_on_c, 6, 79, 93
1, 172602, Note_on_c, 6, 75, 91
1, 172606, Note_on_c, 5, 79, 100
1, 172610, Note_on_c, 9, 42, 77
1, 172610, Note_on_c, 7, 37, 97
1, 172612, Note_on_c, 2, 61, 92
1, 172612, Note_on_c, 2, 65, 98
1, 172612, Note_on_c, 2, 68, 81
1, 172654, Note_off_c, 9, 42, 77
1, 172690, Note_off_c, 2, 65, 98
1, 172690, Note_off_c, 2, 61, 92
1, 172696, Note_off_c, 2, 68, 81
1, 172756, Note_off_c, 6, 75, 91
1, 172770, Note_off_c, 6, 79, 93
1, 172782, Note_off_c, 5, 79, 100
1, 172782, Note_off_c, 0, 85, 68
1, 172790, Note_off_c, 7, 37, 97
1, 172802, Note_on_c, 9, 36, 114
1, 172802, Note_on_c, 9, 42, 107
1, 172804, Note_on_c, 0, 75, 60
1, 172804, Note_on_c, 7, 32, 97
1, 172804, Note_on_c, 5, 77, 87
1, 172806, Note_on_c, 0, 68, 64
1, 172806, Note_on_c, 0, 89, 55
1, 172806, Note_on_c, 1, 56, 123
1, 172808, Note_on_c, 6, 77, 95
1, 172812, Note_on_c, 6, 73, 93
1, 172862, Note_off_c, 9, 42, 107
1, 172894, Note_off_c, 9, 36, 114
1, 172994, Note_on_c, 2, 63, 85
1, 172994, Note_on_c, 2, 68, 81
1, 172994, Note_on_c, 9, 42, 81
1, 172996, Note_off_c, 6, 73, 93
1, 173006, Note_off_c, 6, 77, 95
1, 173042, Note_off_c, 9, 42, 81
1, 173050, Note_off_c, 5, 77, 87
1, 173064, Note_off_c, 2, 68, 81
1, 173064, Note_off_c, 2, 63, 85
1, 173066, Note_on_c, 6, 72, 68
1, 173068, Note_on_c, 6, 75, 68
1, 173082, Note_on_c, 5, 75, 87
1, 173172, Note_off_c, 0, 89, 55
1, 173186, Note_on_c, 0, 87, 65
1, 173186, Note_on_c, 9, 38, 100
1, 173186, Note_on_c, 9, 42, 102
1, 173188, Note_on_c, 2, 60, 85
1, 173188, Note_on_c, 2, 63, 92
1, 173188, Note_on_c, 2, 68, 92
1, 173220, Note_off_c, 7, 32, 97
1, 173244, Note_off_c, 9, 42, 102
1, 173250, Note_off_c, 2, 60, 85
1, 173250, Note_off_c, 9, 38, 100
1, 173262, Note_off_c, 2, 63, 92
1, 173268, Note_off_c, 2, 68, 92
1, 173378, Note_on_c, 9, 36, 94
1, 173378, Note_on_c, 9, 42, 96
1, 173380, Note_on_c, 2, 60, 96
1, 173380, Note_on_c, 2, 63, 87
1, 173380, Note_on_c, 2, 68, 87
1, 173380, Note_on_c, 7, 32, 93
1, 173428, Note_off_c, 9, 42, 96
1, 173442, Note_off_c, 9, 36, 94
1, 173450, Note_off_c, 7, 32, 93
1, 173494, Note_off_c, 2, 63, 87
1, 173498, Note_off_c, 2, 60, 96
1, 173506, Note_off_c, 2, 68, 87
1, 173570, Note_on_c, 9, 36, 117
1, 173572, Note_on_c, 9, 42, 112
1, 173572, Note_on_c, 7, 32, 99
1, 173638, Note_off_c, 9, 42, 112
1, 173662, Control_c, 5, 1, 2
1, 173698, Control_c, 5, 1, 8
1, 173700, Note_off_c, 9, 36, 117
1, 173762, Note_on_c, 2, 60, 87
1, 173762, Note_on_c, 2, 63, 75
1, 173762, Note_on_c, 9, 42, 77
1, 173764, Note_on_c, 2, 68, 81
1, 173778, Control_c, 5, 1, 14
1, 173814, Control_c, 5, 1, 21
1, 173818, Note_off_c, 9, 42, 77
1, 173832, Note_off_c, 2, 63, 75
1, 173832, Note_off_c, 2, 60, 87
1, 173836, Note_off_c, 2, 68, 81
1, 173846, Control_c, 5, 1, 26
1, 173898, Note_off_c, 1, 56, 123
1, 173922, Control_c, 5, 1, 33
1, 173954, Note_on_c, 0, 82, 75
1, 173954, Note_on_c, 9, 38, 117
1, 173954, Note_on_c, 9, 42, 114
1, 173956, Note_off_c, 0, 87, 65
1, 173990, Note_off_c, 7, 32, 99
1, 174010, Control_c, 5, 1, 36
1, 174018, Note_off_c, 9, 42, 114
1, 174056, Note_off_c, 9, 38, 117
1, 174146, Note_on_c, 9, 42, 77
1, 174146, Note_on_c, 7, 27, 104
1, 174148, Note_on_c, 1, 63, 123
1, 174148, Note_on_c, 2, 60, 73
1, 174148, Note_on_c, 2, 63, 73
1, 174148, Note_on_c, 2, 68, 77
1, 174194, Note_off_c, 9, 42, 77
1, 174204, Note_off_c, 2, 60, 73
1, 174222, Note_off_c, 2, 68, 77
1, 174222, Note_off_c, 2, 63, 73
1, 174222, Control_c, 5, 1, 26
1, 174230, Note_off_c, 5, 75, 87
1, 174236, Note_off_c, 6, 72, 68
1, 174254, Note_off_c, 6, 75, 68
1, 174254, Control_c, 5, 1, 12
1, 174290, Control_c, 5, 1, 0
1, 174316, Note_off_c, 7, 27, 104
1, 174326, Note_off_c, 0, 82, 75
1, 174338, Note_on_c, 9, 36, 112
1, 174340, Note_on_c, 0, 84, 70
1, 174340, Note_on_c, 9, 42, 109
1, 174340, Note_on_c, 7, 32, 97
1, 174342, Note_on_c, 1, 56, 107
1, 174344, Note_off_c, 1, 63, 123
1, 174414, Note_off_c, 9, 42, 109
1, 174450, Note_off_c, 9, 36, 112
1, 174522, Note_on_c, 6, 72, 110
1, 174522, Note_on_c, 6, 80, 102
1, 174530, Note_on_c, 2, 60, 90
1, 174530, Note_on_c, 2, 63, 81
1, 174530, Note_on_c, 9, 42, 67
1, 174532, Note_on_c, 2, 68, 81
1, 174538, Note_on_c, 5, 80, 107
1, 174590, Note_off_c, 9, 42, 67
1, 174642, Note_off_c, 6, 72, 110
1, 174644, Note_off_c, 6, 80, 102
1, 174650, Note_off_c, 5, 80, 107
1, 174716, Note_on_c, 6, 72, 105
1, 174722, Note_on_c, 9, 38, 114
1, 174722, Note_on_c, 9, 42, 105
1, 174722, Note_on_c, 5, 80, 102
1, 174724, Note_on_c, 6, 80, 107
1, 174746, Note_off_c, 2, 60, 90
1, 174748, Note_off_c, 2, 63, 81
1, 174754, Note_off_c, 2, 68, 81
1, 174762, Note_off_c, 7, 32, 97
1, 174792, Note_off_c, 9, 42, 105
1, 174804, Note_off_c, 6, 72, 105
1, 174820, Note_off_c, 6, 80, 107
1, 174820, Note_off_c, 9, 38, 114
1, 174846, Note_off_c, 5, 80, 102
1, 174910, Note_on_c, 6, 72, 105
1, 174910, Note_on_c, 6, 80, 110
1, 174914, Note_on_c, 9, 36, 96
1, 174914, Note_on_c, 9, 42, 81
1, 174916, Note_on_c, 2, 60, 92
1, 174916, Note_on_c, 2, 63, 81
1, 174916, Note_on_c, 7, 32, 86
1, 174916, Note_on_c, 5, 80, 102
1, 174918, Note_on_c, 2, 68, 85
1, 174972, Note_off_c, 9, 42, 81
1, 174980, Note_off_c, 2, 60, 92
1, 174986, Note_off_c, 2, 68, 85
1, 174986, Note_off_c, 7, 32, 86
1, 174986, Note_off_c, 2, 63, 81
1, 174998, Note_off_c, 9, 36, 96
1, 175106, Note_on_c, 9, 36, 112
1, 175106, Note_on_c, 9, 42, 102
1, 175108, Note_on_c, 7, 32, 93
1, 175170, Note_off_c, 6, 72, 105
1, 175174, Note_off_c, 9, 42, 102
1, 175182, Note_off_c, 6, 80, 110
1, 175206, Note_off_c, 9, 36, 112
1, 175250, Note_off_c, 5, 80, 102
1, 175286, Note_on_c, 5, 79, 107
1, 175290, Note_on_c, 6, 70, 107
1, 175294, Note_on_c, 6, 79, 105
1, 175298, Note_on_c, 2, 63, 81
1, 175298, Note_on_c, 9, 42, 81
1, 175300, Note_on_c, 2, 60, 94
1, 175300, Note_on_c, 2, 68, 87
1, 175358, Note_off_c, 9, 42, 81
1, 175364, Note_off_c, 2, 63, 81
1, 175366, Note_off_c, 2, 60, 94
1, 175372, Note_off_c, 2, 68, 87
1, 175384, Note_off_c, 6, 70, 107
1, 175402, Note_off_c, 5, 79, 107
1, 175420, Note_off_c, 6, 79, 105
1, 175484, Note_on_c, 6, 79, 105
1, 175490, Note_on_c, 9, 38, 120
1, 175490, Note_on_c, 9, 42, 109
1, 175490, Note_on_c, 5, 79, 110
1, 175492, Note_on_c, 2, 60, 85
1, 175492, Note_on_c, 2, 63, 73
1, 175492, Note_on_c, 2, 68, 85
1, 175492, Note_on_c, 6, 70, 107
1, 175542, Note_off_c, 9, 42, 109
1, 175550, Note_off_c, 9, 38, 120
1, 175554, Note_off_c, 2, 63, 73
1, 175556, Note_off_c, 2, 60, 85
1, 175564, Note_off_c, 2, 68, 85
1, 175578, Note_off_c, 6, 70, 107
1, 175602, Note_off_c, 7, 32, 93
1, 175610, Note_off_c, 6, 79, 105
1, 175626, Note_off_c, 5, 79, 110
1, 175676, Note_on_c, 6, 73, 95
1, 175682, Note_on_c, 9, 46, 94
1, 175682, Note_on_c, 7, 32, 95
1, 175682, Note_on_c, 6, 82, 100
1, 175684, Note_on_c, 2, 60, 87
1, 175684, Note_on_c, 2, 63, 81
1, 175684, Note_on_c, 2, 68, 83
1, 175686, Note_on_c, 5, 82, 102
1, 175722, Note_off_c, 9, 46, 94
1, 175754, Note_off_c, 2, 60, 87
1, 175758, Note_off_c, 2, 63, 81
1, 175762, Note_off_c, 2, 68, 83
1, 175766, Note_off_c, 1, 56, 107
1, 175816, Note_off_c, 0, 75, 60
1, 175830, Note_off_c, 7, 32, 95
1, 175834, Note_off_c, 0, 68, 64
1, 175848, Note_off_c, 0, 84, 70
1, 175874, Note_on_c, 9, 36, 109
1, 175874, Note_on_c, 9, 42, 98
1, 175876, Note_on_c, 0, 58, 73
1, 175876, Note_on_c, 0, 67, 68
1, 175876, Note_on_c, 7, 27, 113
1, 175878, Note_on_c, 0, 75, 69
1, 175878, Note_on_c, 1, 51, 107
1, 175878, Note_on_c, 2, 70, 105
1, 175880, Note_on_c, 1, 63, 109
1, 175924, Note_off_c, 5, 82, 102
1, 175932, Note_off_c, 6, 73, 95
1, 175938, Note_off_c, 6, 82, 100
1, 175950, Note_off_c, 9, 42, 98
1, 175996, Note_off_c, 9, 36, 109
1, 176066, Note_on_c, 9, 42, 66
1, 176066, Note_on_c, 5, 80, 107
1, 176068, Note_on_c, 2, 58, 98
1, 176068, Note_on_c, 6, 72, 93
1, 176068, Note_on_c, 6, 80, 93
1, 176126, Note_off_c, 9, 42, 66
1, 176164, Note_off_c, 6, 72, 93
1, 176174, Note_off_c, 2, 70, 105
1, 176194, Note_off_c, 6, 80, 93
1, 176226, Note_off_c, 5, 80, 107
1, 176250, Note_on_c, 5, 79, 102
1, 176258, Note_on_c, 2, 63, 105
1, 176258, Note_on_c, 9, 38, 114
1, 176258, Note_on_c, 9, 42, 100
1, 176266, Note_on_c, 6, 79, 102
1, 176270, Note_on_c, 6, 70, 89
1, 176278, Note_off_c, 2, 58, 98
1, 176278, Note_off_c, 7, 27, 113
1, 176328, Note_off_c, 9, 42, 100
1, 176354, Note_off_c, 9, 38, 114
1, 176362, Note_off_c, 6, 79, 102
1, 176364, Note_off_c, 6, 70, 89
1, 176450, Note_on_c, 9, 36, 94
1, 176450, Note_on_c, 9, 42, 73
1, 176450, Note_on_c, 7, 27, 97
1, 176452, Note_on_c, 2, 67, 94
1, 176454, Note_off_c, 5, 79, 102
1, 176454, Note_on_c, 6, 68, 102
1, 176458, Note_on_c, 5, 77, 107
1, 176458, Note_on_c, 6, 77, 100
1, 176516, Note_off_c, 9, 42, 73
1, 176530, Note_off_c, 7, 27, 97
1, 176538, Note_off_c, 9, 36, 94
1, 176642, Note_on_c, 9, 36, 114
1, 176642, Note_on_c, 9, 42, 105
1, 176644, Note_on_c, 7, 27, 111
1, 176682, Note_off_c, 1, 51, 107
1, 176686, Note_off_c, 1, 63, 109
1, 176714, Note_off_c, 9, 42, 105
1, 176746, Note_off_c, 6, 77, 100
1, 176754, Note_off_c, 5, 77, 107
1, 176754, Note_off_c, 6, 68, 102
1, 176770, Note_off_c, 9, 36, 114
1, 176818, Note_on_c, 6, 67, 98
1, 176820, Note_off_c, 2, 63, 105
1, 176822, Note_on_c, 6, 75, 91
1, 176830, Note_on_c, 5, 75, 102
1, 176834, Note_on_c, 2, 58, 100
1, 176834, Note_on_c, 9, 42, 77
1, 176836, Note_on_c, 1, 51, 120
1, 176836, Note_on_c, 1, 63, 117
1, 176886, Note_off_c, 9, 42, 77
1, 176894, Note_off_c, 2, 67, 94
1, 176898, Note_off_c, 6, 67, 98
1, 176914, Note_off_c, 6, 75, 91
1, 176962, Note_off_c, 5, 75, 102
1, 176978, Note_off_c, 1, 51, 120
1, 176980, Note_off_c, 1, 63, 117
1, 177018, Note_on_c, 6, 75, 91
1, 177022, Note_on_c, 6, 67, 100
1, 177026, Note_on_c, 9, 38, 117
1, 177026, Note_on_c, 9, 42, 105
1, 177026, Note_on_c, 5, 75, 93
1, 177028, Note_on_c, 2, 63, 118
1, 177090, Note_off_c, 9, 42, 105
1, 177098, Note_off_c, 6, 67, 100
1, 177114, Note_off_c, 6, 75, 91
1, 177140, Note_off_c, 5, 75, 93
1, 177156, Note_off_c, 9, 38, 117
1, 177162, Note_off_c, 7, 27, 111
1, 177218, Note_on_c, 9, 42, 79
1, 177218, Note_on_c, 7, 34, 111
1, 177218, Note_on_c, 5, 75, 89
1, 177220, Note_on_c, 1, 51, 109
1, 177220, Note_on_c, 1, 63, 107
1, 177220, Note_on_c, 2, 67, 98
1, 177222, Note_on_c, 6, 75, 100
1, 177226, Note_on_c, 6, 67, 100
1, 177282, Note_off_c, 1, 51, 109
1, 177282, Note_off_c, 9, 42, 79
1, 177292, Note_off_c, 1, 63, 107
1, 177394, Note_off_c, 7, 34, 111
1, 177410, Note_on_c, 9, 36, 117
1, 177410, Note_on_c, 9, 42, 102
1, 177412, Note_on_c, 1, 51, 112
1, 177412, Note_on_c, 2, 70, 100
1, 177412, Note_on_c, 7, 39, 95
1, 177414, Note_off_c, 2, 58, 100
1, 177414, Note_on_c, 1, 63, 109
1, 177442, Note_off_c, 2, 67, 98
1, 177482, Note_off_c, 9, 42, 102
1, 177518, Note_off_c, 6, 67, 100
1, 177518, Note_off_c, 2, 63, 118
1, 177540, Note_off_c, 9, 36, 117
1, 177590, Note_off_c, 5, 75, 89
1, 177602, Note_off_c, 6, 75, 100
1, 177602, Note_on_c, 9, 42, 81
1, 177602, Note_on_c, 6, 67, 102
1, 177604, Note_on_c, 2, 58, 112
1, 177606, Note_on_c, 5, 70, 107
1, 177606, Note_on_c, 6, 70, 100
1, 177658, Note_off_c, 9, 42, 81
1, 177674, Note_off_c, 2, 70, 100
1, 177684, Note_off_c, 6, 67, 102
1, 177724, Note_off_c, 6, 70, 100
1, 177752, Note_off_c, 5, 70, 107
1, 177794, Note_on_c, 9, 38, 117
1, 177794, Note_on_c, 9, 42, 105
1, 177796, Note_off_c, 7, 39, 95
1, 177796, Note_on_c, 2, 63, 118
1, 177796, Note_on_c, 7, 34, 99
1, 177796, Note_on_c, 5, 70, 91
1, 177804, Note_on_c, 6, 67, 107
1, 177806, Note_on_c, 6, 70, 107
1, 177828, Note_off_c, 2, 58, 112
1, 177844, Note_off_c, 9, 42, 105
1, 177864, Note_off_c, 9, 38, 117
1, 177874, Note_off_c, 1, 51, 112
1, 177890, Note_off_c, 6, 67, 107
1, 177954, Note_off_c, 6, 70, 107
1, 177974, Note_on_c, 5, 72, 100
1, 177976, Note_off_c, 2, 63, 118
1, 177986, Note_on_c, 9, 46, 96
1, 177986, Note_on_c, 6, 67, 105
1, 177988, Note_on_c, 2, 67, 81
1, 177988, Note_on_c, 7, 36, 108
1, 177990, Note_on_c, 6, 72, 100
1, 177994, Note_off_c, 5, 70, 91
1, 177998, Note_off_c, 7, 34, 99
1, 178028, Note_off_c, 9, 46, 96
1, 178070, Note_off_c, 6, 67, 105
1, 178078, Note_off_c, 6, 72, 100
1, 178082, Note_off_c, 2, 67, 81
1, 178110, Note_off_c, 5, 72, 100
1, 178138, Note_off_c, 1, 63, 109
1, 178142, Note_off_c, 0, 67, 68
1, 178162, Note_off_c, 7, 36, 108
1, 178164, Note_off_c, 0, 75, 69
1, 178164, Note_off_c, 0, 58, 73
1, 178178, Note_on_c, 9, 36, 112
1, 178178, Note_on_c, 9, 42, 107
1, 178180, Note_on_c, 0, 65, 81
1, 178180, Note_on_c, 0, 73, 89
1, 178180, Note_on_c, 7, 37, 99
1, 178182, Note_on_c, 2, 65, 110
1, 178182, Note_on_c, 2, 73, 112
1, 178182, Note_on_c, 9, 49, 79
1, 178184, Note_on_c, 1, 61, 112
1, 178186, Note_on_c, 6, 65, 105
1, 178190, Note_on_c, 6, 73, 100
1, 178198, Note_on_c, 5, 73, 89
1, 178250, Note_off_c, 9, 49, 79
1, 178258, Note_off_c, 9, 42, 107
1, 178280, Note_off_c, 9, 36, 112
1, 178710, Control_c, 5, 1, 5
1, 178758, Control_c, 5, 1, 12
1, 178796, Control_c, 5, 1, 17
1, 178846, Control_c, 5, 1, 22
1, 178882, Control_c, 5, 1, 26
1, 178890, Note_off_c, 2, 65, 110
1, 178914, Control_c, 5, 1, 28
1, 178926, Note_off_c, 2, 73, 112
1, 178946, Note_on_c, 1, 65, 114
1, 178970, Control_c, 5, 1, 31
1, 179138, Note_on_c, 9, 42, 98
1, 179178, Note_off_c, 9, 42, 98
1, 179234, Note_on_c, 9, 42, 87
1, 179268, Note_off_c, 9, 42, 87
1, 179322, Note_off_c, 6, 65, 105
1, 179330, Note_on_c, 9, 46, 105
1, 179340, Control_c, 5, 1, 29
1, 179370, Note_off_c, 9, 46, 105
1, 179374, Control_c, 5, 1, 24
1, 179406, Note_off_c, 6, 73, 100
1, 179430, Control_c, 5, 1, 17
1, 179460, Note_off_c, 7, 37, 99
1, 179466, Control_c, 5, 1, 0
1, 179502, Note_off_c, 0, 73, 89
1, 179506, Note_off_c, 5, 73, 89
1, 179508, Note_off_c, 0, 65, 81
1, 179518, Note_on_c, 5, 72, 107
1, 179522, Note_on_c, 0, 72, 73
1, 179522, Note_on_c, 6, 72, 89
1, 179524, Note_on_c, 6, 63, 95
1, 179650, Note_off_c, 6, 63, 95
1, 179652, Note_off_c, 6, 72, 89
1, 179658, Note_off_c, 1, 65, 114
1, 179662, Note_off_c, 1, 61, 112
1, 179714, Note_off_c, 5, 72, 107
1, 179714, Note_on_c, 9, 36, 117
1, 179716, Note_on_c, 0, 61, 73
1, 179716, Note_on_c, 0, 63, 67
1, 179716, Note_on_c, 9, 42, 112
1, 179716, Note_on_c, 7, 32, 101
1, 179718, Note_on_c, 0, 70, 77
1, 179718, Note_on_c, 1, 56, 117
1, 179718, Note_on_c, 9, 49, 92
1, 179720, Note_on_c, 5, 70, 93
1, 179726, Note_on_c, 6, 61, 91
1, 179730, Note_on_c, 6, 70, 89
1, 179742, Note_off_c, 0, 72, 73
1, 179766, Note_off_c, 9, 49, 92
1, 179780, Note_off_c, 9, 42, 112
1, 179858, Note_off_c, 9, 36, 117
1, 179878, Note_off_c, 6, 70, 89
1, 179890, Note_off_c, 6, 61, 91
1, 179906, Note_on_c, 2, 63, 112
1, 179906, Note_on_c, 10, 56, 96
1, 179906, Note_on_c, 9, 42, 63
1, 179958, Note_off_c, 5, 70, 93
1, 179962, Note_off_c, 9, 42, 63
1, 179982, Note_off_c, 0, 61, 73
1, 179982, Note_on_c, 5, 68, 85
1, 179982, Note_on_c, 6, 60, 85
1, 179986, Note_on_c, 6, 68, 78
1, 179994, Note_off_c, 0, 70, 77
1, 180000, Note_off_c, 0, 63, 67
1, 180002, Note_on_c, 0, 56, 59
1, 180002, Note_on_c, 0, 63, 56
1, 180002, Note_on_c, 0, 68, 61
1, 180062, Note_off_c, 0, 68, 61
1, 180098, Note_on_c, 3, 84, 98
1, 180098, Note_on_c, 9, 38, 112
1, 180098, Note_on_c, 9, 42, 100
1, 180100, Note_on_c, 0, 72, 79
1, 180100, Note_on_c, 2, 68, 94
1, 180100, Note_on_c, 3, 75, 107
1, 180102, Note_on_c, 10, 60, 105
1, 180106, Note_off_c, 10, 56, 96
1, 180114, Note_off_c, 7, 32, 101
1, 180152, Note_off_c, 9, 42, 100
1, 180164, Note_off_c, 3, 84, 98
1, 180194, Note_off_c, 3, 75, 107
1, 180194, Note_off_c, 0, 72, 79
1, 180194, Note_off_c, 9, 38, 112
1, 180196, Note_on_c, 0, 73, 83
1, 180196, Note_on_c, 3, 77, 92
1, 180196, Note_on_c, 3, 85, 73
1, 180264, Note_off_c, 3, 85, 73
1, 180286, Note_off_c, 3, 77, 92
1, 180286, Note_off_c, 0, 73, 83
1, 180290, Note_on_c, 9, 36, 85
1, 180290, Note_on_c, 9, 42, 85
1, 180292, Note_on_c, 0, 72, 77
1, 180292, Note_on_c, 3, 75, 90
1, 180292, Note_on_c, 3, 84, 87
1, 180292, Note_on_c, 7, 32, 80
1, 180294, Note_on_c, 2, 72, 98
1, 180294, Note_on_c, 10, 63, 90
1, 180310, Note_off_c, 10, 60, 105
1, 180340, Note_off_c, 9, 42, 85
1, 180350, Note_off_c, 7, 32, 80
1, 180358, Note_off_c, 9, 36, 85
1, 180362, Note_off_c, 3, 84, 87
1, 180370, Note_off_c, 3, 75, 90
1, 180386, Note_on_c, 0, 73, 77
1, 180386, Note_on_c, 3, 77, 79
1, 180386, Note_on_c, 3, 85, 83
1, 180398, Note_off_c, 0, 72, 77
1, 180458, Note_off_c, 3, 85, 83
1, 180474, Note_off_c, 0, 73, 77
1, 180482, Note_on_c, 9, 36, 102
1, 180482, Note_on_c, 9, 42, 105
1, 180484, Note_on_c, 0, 72, 79
1, 180484, Note_on_c, 3, 75, 90
1, 180484, Note_on_c, 3, 84, 90
1, 180484, Note_on_c, 7, 32, 95
1, 180486, Note_off_c, 3, 77, 79
1, 180486, Note_off_c, 1, 56, 117
1, 180486, Note_on_c, 2, 60, 75
1, 180500, Note_off_c, 2, 63, 112
1, 180546, Note_off_c, 9, 42, 105
1, 180548, Note_off_c, 3, 84, 90
1, 180574, Note_off_c, 3, 75, 90
1, 180578, Note_on_c, 0, 73, 83
1, 180578, Note_on_c, 3, 77, 90
1, 180578, Note_on_c, 3, 85, 87
1, 180594, Note_off_c, 9, 36, 102
1, 180602, Note_off_c, 0, 72, 79
1, 180610, Note_off_c, 2, 68, 94
1, 180618, Note_off_c, 2, 72, 98
1, 180650, Note_off_c, 3, 85, 87
1, 180674, Note_on_c, 3, 75, 81
1, 180674, Note_on_c, 3, 84, 87
1, 180674, Note_on_c, 9, 42, 65
1, 180676, Note_on_c, 0, 72, 92
1, 180676, Note_on_c, 1, 63, 123
1, 180676, Note_on_c, 2, 63, 90
1, 180682, Note_off_c, 3, 77, 90
1, 180682, Note_off_c, 0, 73, 83
1, 180730, Note_off_c, 9, 42, 65
1, 180740, Note_off_c, 3, 84, 87
1, 180766, Note_off_c, 3, 75, 81
1, 180770, Note_on_c, 0, 73, 77
1, 180770, Note_on_c, 3, 77, 87
1, 180770, Note_on_c, 3, 85, 90
1, 180772, Note_off_c, 1, 63, 123
1, 180786, Note_off_c, 0, 72, 92
1, 180842, Note_off_c, 7, 32, 95
1, 180844, Note_off_c, 3, 85, 90
1, 180866, Note_on_c, 9, 38, 114
1, 180866, Note_on_c, 9, 42, 100
1, 180868, Note_on_c, 0, 72, 70
1, 180868, Note_on_c, 2, 72, 96
1, 180868, Note_on_c, 3, 75, 81
1, 180868, Note_on_c, 3, 84, 98
1, 180870, Note_off_c, 3, 77, 87
1, 180870, Note_off_c, 0, 73, 77
1, 180870, Note_on_c, 2, 68, 96
1, 180872, Note_off_c, 2, 60, 75
1, 180872, Control_c, 5, 1, 6
1, 180910, Note_off_c, 2, 63, 90
1, 180930, Note_off_c, 9, 42, 100
1, 180938, Note_off_c, 10, 63, 90
1, 180942, Note_off_c, 3, 84, 98
1, 180946, Control_c, 5, 1, 8
1, 180956, Note_off_c, 3, 75, 81
1, 180962, Note_on_c, 0, 73, 71
1, 180962, Note_on_c, 3, 77, 90
1, 180962, Note_on_c, 3, 85, 96
1, 180982, Note_off_c, 0, 72, 70
1, 180986, Control_c, 5, 1, 14
1, 180996, Note_off_c, 9, 38, 114
1, 181022, Control_c, 5, 1, 17
1, 181028, Note_off_c, 3, 85, 96
1, 181050, Note_off_c, 0, 73, 71
1, 181058, Note_off_c, 3, 77, 90
1, 181058, Note_on_c, 3, 84, 94
1, 181058, Note_on_c, 9, 42, 77
1, 181060, Note_on_c, 0, 72, 69
1, 181060, Note_on_c, 3, 75, 90
1, 181060, Note_on_c, 7, 27, 91
1, 181062, Note_on_c, 1, 63, 123
1, 181062, Note_on_c, 2, 63, 65
1, 181068, Control_c, 5, 1, 21
1, 181078, Note_off_c, 2, 72, 96
1, 181098, Note_off_c, 2, 68, 96
1, 181110, Note_off_c, 9, 42, 77
1, 181130, Note_off_c, 3, 84, 94
1, 181134, Note_off_c, 6, 68, 78
1, 181138, Note_off_c, 6, 60, 85
1, 181144, Note_off_c, 3, 75, 90
1, 181154, Note_on_c, 0, 73, 75
1, 181154, Note_on_c, 3, 77, 85
1, 181154, Note_on_c, 3, 85, 83
1, 181166, Note_off_c, 0, 72, 69
1, 181174, Control_c, 5, 1, 23
1, 181206, Control_c, 5, 1, 25
1, 181230, Note_off_c, 3, 85, 83
1, 181234, Note_off_c, 0, 73, 75
1, 181238, Note_off_c, 1, 63, 123
1, 181250, Note_off_c, 3, 77, 85
1, 181250, Note_on_c, 9, 36, 109
1, 181252, Note_on_c, 3, 75, 77
1, 181252, Note_on_c, 3, 84, 71
1, 181252, Note_on_c, 9, 42, 102
1, 181254, Note_on_c, 0, 72, 60
1, 181254, Note_on_c, 1, 56, 123
1, 181254, Note_on_c, 7, 32, 95
1, 181274, Note_off_c, 7, 27, 91
1, 181282, Note_off_c, 2, 63, 65
1, 181306, Note_off_c, 5, 68, 85
1, 181314, Note_off_c, 9, 42, 102
1, 181318, Control_c, 5, 1, 16
1, 181350, Control_c, 5, 1, 0
1, 181368, Note_off_c, 9, 36, 109
1, 181442, Note_on_c, 2, 60, 105
1, 181442, Note_on_c, 2, 63, 92
1, 181442, Note_on_c, 2, 68, 98
1, 181442, Note_on_c, 9, 42, 81
1, 181444, Note_on_c, 10, 56, 110
1, 181444, Note_on_c, 9, 48, 92
1, 181498, Note_off_c, 9, 42, 81
1, 181544, Note_off_c, 9, 48, 92
1, 181634, Note_on_c, 10, 60, 100
1, 181634, Note_on_c, 9, 38, 117
1, 181634, Note_on_c, 9, 42, 112
1, 181642, Note_off_c, 10, 56, 110
1, 181672, Note_off_c, 2, 60, 105
1, 181674, Note_off_c, 7, 32, 95
1, 181678, Note_off_c, 2, 68, 98
1, 181692, Note_off_c, 2, 63, 92
1, 181698, Note_off_c, 9, 42, 112
1, 181706, Note_off_c, 3, 84, 71
1, 181706, Note_off_c, 3, 75, 77
1, 181726, Note_off_c, 9, 38, 117
1, 181818, Note_off_c, 10, 60, 100
1, 181826, Note_on_c, 9, 36, 85
1, 181826, Note_on_c, 9, 42, 89
1, 181828, Note_on_c, 2, 60, 85
1, 181828, Note_on_c, 2, 63, 75
1, 181828, Note_on_c, 2, 68, 87
1, 181828, Note_on_c, 7, 32, 91
1, 181830, Note_on_c, 10, 63, 94
1, 181830, Note_on_c, 9, 45, 92
1, 181876, Note_off_c, 9, 42, 89
1, 181880, Note_off_c, 2, 63, 75
1, 181880, Note_off_c, 2, 60, 85
1, 181882, Note_off_c, 2, 68, 87
1, 181898, Note_off_c, 9, 36, 85
1, 181906, Note_off_c, 9, 45, 92
1, 182014, Note_off_c, 0, 72, 60
1, 182018, Note_on_c, 9, 36, 109
1, 182020, Note_on_c, 0, 73, 75
1, 182020, Note_on_c, 2, 63, 90
1, 182020, Note_on_c, 9, 42, 102
1, 182022, Note_on_c, 2, 61, 94
1, 182022, Note_on_c, 2, 68, 90
1, 182022, Note_on_c, 9, 48, 94
1, 182024, Note_off_c, 1, 56, 123
1, 182060, Note_off_c, 2, 68, 90
1, 182066, Note_off_c, 2, 63, 90
1, 182068, Note_off_c, 2, 61, 94
1, 182078, Note_off_c, 9, 42, 102
1, 182104, Note_off_c, 9, 36, 109
1, 182132, Note_off_c, 9, 48, 94
1, 182210, Note_on_c, 9, 38, 98
1, 182210, Note_on_c, 9, 42, 94
1, 182210, Note_on_c, 7, 39, 106
1, 182212, Note_on_c, 2, 61, 110
1, 182212, Note_on_c, 2, 63, 105
1, 182212, Note_on_c, 2, 68, 107
1, 182214, Note_on_c, 1, 63, 120
1, 182214, Note_on_c, 10, 61, 96
1, 182214, Note_on_c, 9, 45, 75
1, 182218, Note_off_c, 10, 63, 94
1, 182218, Note_off_c, 7, 32, 91
1, 182260, Note_off_c, 9, 42, 94
1, 182262, Note_off_c, 9, 45, 75
1, 182274, Note_off_c, 9, 38, 98
1, 182334, Note_off_c, 1, 63, 120
1, 182402, Note_on_c, 9, 38, 117
1, 182402, Note_on_c, 9, 42, 117
1, 182402, Note_on_c, 7, 44, 97
1, 182404, Note_off_c, 7, 39, 106
1, 182404, Note_on_c, 10, 56, 96
1, 182404, Note_on_c, 9, 45, 98
1, 182434, Note_off_c, 10, 61, 96
1, 182462, Note_off_c, 9, 42, 117
1, 182462, Note_off_c, 2, 68, 107
1, 182462, Note_off_c, 2, 63, 105
1, 182468, Note_off_c, 2, 61, 110
1, 182482, Note_off_c, 9, 45, 98
1, 182486, Note_off_c, 9, 38, 117
1, 182594, Note_on_c, 9, 46, 109
1, 182594, Note_on_c, 7, 39, 76
1, 182596, Note_on_c, 2, 61, 85
1, 182596, Note_on_c, 2, 63, 83
1, 182596, Note_on_c, 2, 68, 79
1, 182596, Note_on_c, 9, 41, 96
1, 182598, Note_on_c, 1, 63, 126
1, 182598, Note_on_c, 10, 61, 92
1, 182602, Note_off_c, 10, 56, 96
1, 182606, Note_off_c, 7, 44, 97
1, 182652, Note_off_c, 2, 68, 79
1, 182652, Note_off_c, 2, 63, 83
1, 182658, Note_off_c, 9, 46, 109
1, 182660, Note_off_c, 2, 61, 85
1, 182670, Note_off_c, 9, 41, 96
1, 182742, Note_off_c, 0, 63, 56
1, 182770, Note_off_c, 0, 73, 75
1, 182778, Note_off_c, 10, 61, 92
1, 182786, Note_off_c, 1, 63, 126
1, 182788, Note_on_c, 0, 72, 49
1, 182788, Note_on_c, 9, 36, 87
1, 182788, Note_on_c, 9, 42, 91
1, 182788, Note_on_c, 7, 32, 66
1, 182790, Note_on_c, 2, 60, 107
1, 182790, Note_on_c, 2, 63, 85
1, 182790, Note_on_c, 2, 68, 105
1, 182792, Note_on_c, 1, 56, 92
1, 182792, Note_on_c, 10, 56, 75
1, 182792, Note_on_c, 10, 60, 92
1, 182792, Note_on_c, 9, 49, 94
1, 182794, Note_off_c, 7, 39, 76
1, 182810, Note_off_c, 2, 63, 85
1, 182846, Note_off_c, 9, 49, 94
1, 182908, Note_off_c, 9, 42, 91
1, 182922, Note_off_c, 9, 36, 87
1, 183714, Note_off_c, 1, 56, 92
1, 183906, Note_off_c, 10, 56, 75
1, 183908, Note_off_c, 10, 60, 92
1, 184026, Note_off_c, 2, 68, 105
1, 184040, Note_off_c, 2, 60, 107
1, 184186, Note_off_c, 7, 32, 66
1, 184358, Note_off_c, 0, 56, 59
1, 184362, Note_off_c, 0, 72, 49
1, 185872, End_track
0, 0, End_of_file
