0, 0, Header, 1, 3, 960
1, 0, Start_track
1, 0, Control_c, 0, 101, 0
1, 0, Control_c, 0, 100, 0
1, 0, Control_c, 0, 6, 12
1, 0, Control_c, 0, 38, 0
1, 0, Control_c, 1, 101, 0
1, 0, Control_c, 1, 100, 0
1, 0, Control_c, 1, 6, 12
1, 0, Control_c, 1, 38, 0
1, 0, Control_c, 2, 101, 0
1, 0, Control_c, 2, 100, 0
1, 0, Control_c, 2, 6, 12
1, 0, Control_c, 2, 38, 0
1, 0, Control_c, 3, 101, 0
1, 0, Control_c, 3, 100, 0
1, 0, Control_c, 3, 6, 12
1, 0, Control_c, 3, 38, 0
1, 0, Control_c, 4, 101, 0
1, 0, Control_c, 4, 100, 0
1, 0, Control_c, 4, 6, 12
1, 0, Control_c, 4, 38, 0
1, 0, Control_c, 5, 101, 0
1, 0, Control_c, 5, 100, 0
1, 0, Control_c, 5, 6, 12
1, 0, Control_c, 5, 38, 0
1, 0, Control_c, 6, 101, 0
1, 0, Control_c, 6, 100, 0
1, 0, Control_c, 6, 6, 12
1, 0, Control_c, 6, 38, 0
1, 0, Control_c, 7, 101, 0
1, 0, Control_c, 7, 100, 0
1, 0, Control_c, 7, 6, 12
1, 0, Control_c, 7, 38, 0
1, 0, Control_c, 8, 101, 0
1, 0, Control_c, 8, 100, 0
1, 0, Control_c, 8, 6, 12
1, 0, Control_c, 8, 38, 0
1, 0, Control_c, 9, 101, 0
1, 0, Control_c, 9, 100, 0
1, 0, Control_c, 9, 6, 12
1, 0, Control_c, 9, 38, 0
1, 0, Control_c, 10, 101, 0
1, 0, Control_c, 10, 100, 0
1, 0, Control_c, 10, 6, 12
1, 0, Control_c, 10, 38, 0
1, 0, Control_c, 11, 101, 0
1, 0, Control_c, 11, 100, 0
1, 0, Control_c, 11, 6, 12
1, 0, Control_c, 11, 38, 0
1, 0, Control_c, 12, 101, 0
1, 0, Control_c, 12, 100, 0
1, 0, Control_c, 12, 6, 12
1, 0, Control_c, 12, 38, 0
1, 0, Control_c, 13, 101, 0
1, 0, Control_c, 13, 100, 0
1, 0, Control_c, 13, 6, 12
1, 0, Control_c, 13, 38, 0
1, 0, Control_c, 14, 101, 0
1, 0, Control_c, 14, 100, 0
1, 0, Control_c, 14, 6, 12
1, 0, Control_c, 14, 38, 0
1, 0, Control_c, 15, 101, 0
1, 0, Control_c, 15, 100, 0
1, 0, Control_c, 15, 6, 12
1, 0, Control_c, 15, 38, 0
1, 0, Time_signature, 3, 2, 24, 8
1, 0, Tempo, 500000
1, 0, End_track
2, 0, Start_track
2, 0, Pitch_bend_c, 2, 8192
2, 0, Control_c, 2, 7, 87
2, 0, Control_c, 2, 10, 63
2, 0, Control_c, 2, 93, 0
2, 0, Control_c, 2, 91, 0
2, 0, Control_c, 2, 95, 0
2, 0, Control_c, 2, 92, 0
2, 0, Control_c, 2, 11, 127
2, 0, Program_c, 2, 26
2, 0, Control_c, 3, 7, 87
2, 0, Control_c, 3, 10, 63
2, 0, Control_c, 3, 93, 0
2, 0, Control_c, 3, 91, 0
2, 0, Control_c, 3, 95, 0
2, 0, Control_c, 3, 92, 0
2, 0, Control_c, 3, 11, 127
2, 0, Program_c, 3, 26
2, 0, Note_on_c, 2, 48, 95
2, 480, Note_on_c, 2, 55, 95
2, 960, Note_off_c, 2, 55, 95
2, 960, Note_on_c, 2, 64, 95
2, 960, Note_on_c, 2, 59, 95
2, 960, Note_on_c, 2, 55, 95
2, 2880, Note_off_c, 2, 48, 95
2, 2880, Note_off_c, 2, 64, 95
2, 2880, Note_off_c, 2, 59, 95
2, 2880, Note_off_c, 2, 55, 95
2, 2880, Note_on_c, 2, 45, 95
2, 3360, Note_on_c, 2, 55, 95
2, 3840, Note_off_c, 2, 55, 95
2, 3840, Note_on_c, 2, 64, 95
2, 3840, Note_on_c, 2, 60, 95
2, 3840, Note_on_c, 2, 55, 95
2, 5760, Note_off_c, 2, 45, 95
2, 5760, Note_off_c, 2, 64, 95
2, 5760, Note_off_c, 2, 60, 95
2, 5760, Note_off_c, 2, 55, 95
2, 5760, Note_on_c, 2, 50, 95
2, 6240, Note_on_c, 2, 57, 95
2, 6720, Note_off_c, 2, 57, 95
2, 6720, Note_on_c, 2, 65, 95
2, 6720, Note_on_c, 2, 60, 95
2, 6720, Note_on_c, 2, 57, 95
2, 8640, Note_off_c, 2, 50, 95
2, 8640, Note_off_c, 2, 65, 95
2, 8640, Note_off_c, 2, 60, 95
2, 8640, Note_off_c, 2, 57, 95
2, 8640, Note_on_c, 2, 43, 95
2, 9600, Note_on_c, 2, 62, 95
2, 9600, Note_on_c, 2, 59, 95
2, 9600, Note_on_c, 2, 53, 95
2, 10560, Note_off_c, 2, 43, 95
2, 10560, Note_off_c, 2, 62, 95
2, 10560, Note_off_c, 2, 59, 95
2, 10560, Note_off_c, 2, 53, 95
2, 10560, Note_on_c, 2, 65, 95
2, 10560, Note_on_c, 2, 62, 95
2, 10560, Note_on_c, 2, 56, 95
2, 10560, Note_on_c, 2, 46, 95
2, 11520, Note_off_c, 2, 65, 95
2, 11520, Note_off_c, 2, 62, 95
2, 11520, Note_off_c, 2, 56, 95
2, 11520, Note_off_c, 2, 46, 95
2, 11520, Note_on_c, 2, 45, 95
2, 12480, Note_on_c, 2, 64, 95
2, 12480, Note_on_c, 2, 60, 95
2, 12480, Note_on_c, 2, 55, 95
2, 13440, Note_off_c, 2, 45, 95
2, 13440, Note_off_c, 2, 64, 95
2, 13440, Note_off_c, 2, 60, 95
2, 13440, Note_off_c, 2, 55, 95
2, 13440, Note_on_c, 2, 64, 95
2, 13440, Note_on_c, 2, 60, 95
2, 13440, Note_on_c, 2, 54, 95
2, 13440, Note_on_c, 2, 44, 95
2, 14400, Note_off_c, 2, 64, 95
2, 14400, Note_off_c, 2, 60, 95
2, 14400, Note_off_c, 2, 54, 95
2, 14400, Note_off_c, 2, 44, 95
2, 14400, Note_on_c, 2, 43, 95
2, 15360, Note_on_c, 2, 62, 95
2, 15360, Note_on_c, 2, 58, 95
2, 15360, Note_on_c, 2, 53, 95
2, 16320, Note_off_c, 2, 43, 95
2, 16320, Note_off_c, 2, 62, 95
2, 16320, Note_off_c, 2, 58, 95
2, 16320, Note_off_c, 2, 53, 95
2, 16320, Note_on_c, 2, 64, 95
2, 16320, Note_on_c, 2, 58, 95
2, 16320, Note_on_c, 2, 55, 95
2, 16320, Note_on_c, 2, 48, 95
2, 17280, Note_off_c, 2, 64, 95
2, 17280, Note_off_c, 2, 58, 95
2, 17280, Note_off_c, 2, 55, 95
2, 17280, Note_off_c, 2, 48, 95
2, 17280, Note_on_c, 2, 41, 95
2, 17760, Note_on_c, 2, 48, 95
2, 18240, Note_off_c, 2, 48, 95
2, 18240, Note_on_c, 2, 60, 95
2, 18240, Note_on_c, 2, 57, 95
2, 18240, Note_on_c, 2, 52, 95
2, 18240, Note_on_c, 2, 48, 95
2, 20160, Note_off_c, 2, 41, 95
2, 20160, Note_off_c, 2, 60, 95
2, 20160, Note_off_c, 2, 57, 95
2, 20160, Note_off_c, 2, 52, 95
2, 20160, Note_off_c, 2, 48, 95
2, 20160, Note_on_c, 2, 46, 95
2, 20640, Note_on_c, 2, 53, 95
2, 21120, Note_off_c, 2, 53, 95
2, 21120, Note_on_c, 2, 62, 95
2, 21120, Note_on_c, 2, 56, 95
2, 21120, Note_on_c, 2, 53, 95
2, 23040, Note_off_c, 2, 46, 95
2, 23040, Note_off_c, 2, 62, 95
2, 23040, Note_off_c, 2, 56, 95
2, 23040, Note_off_c, 2, 53, 95
2, 23040, Note_on_c, 2, 45, 95
2, 23520, Note_on_c, 2, 52, 95
2, 24000, Note_off_c, 2, 52, 95
2, 24000, Note_on_c, 2, 61, 95
2, 24000, Note_on_c, 2, 56, 95
2, 24000, Note_on_c, 2, 52, 95
2, 25920, Note_off_c, 2, 45, 95
2, 25920, Note_off_c, 2, 61, 95
2, 25920, Note_off_c, 2, 56, 95
2, 25920, Note_off_c, 2, 52, 95
2, 25920, Note_on_c, 2, 42, 95
2, 26400, Note_on_c, 2, 49, 95
2, 26880, Note_off_c, 2, 49, 95
2, 26880, Note_on_c, 2, 57, 95
2, 26880, Note_on_c, 2, 52, 95
2, 26880, Note_on_c, 2, 49, 95
2, 28800, Note_off_c, 2, 42, 95
2, 28800, Note_off_c, 2, 57, 95
2, 28800, Note_off_c, 2, 52, 95
2, 28800, Note_off_c, 2, 49, 95
2, 28800, Note_on_c, 2, 47, 95
2, 29280, Note_on_c, 2, 54, 95
2, 29760, Note_off_c, 2, 54, 95
2, 29760, Note_on_c, 2, 62, 95
2, 29760, Note_on_c, 2, 57, 95
2, 29760, Note_on_c, 2, 54, 95
2, 31680, Note_off_c, 2, 47, 95
2, 31680, Note_off_c, 2, 62, 95
2, 31680, Note_off_c, 2, 57, 95
2, 31680, Note_off_c, 2, 54, 95
2, 31680, Note_on_c, 2, 52, 95
2, 32640, Note_on_c, 2, 73, 95
2, 32640, Note_on_c, 2, 65, 95
2, 32640, Note_on_c, 2, 62, 95
2, 32640, Note_on_c, 2, 56, 95
2, 33600, Note_off_c, 2, 73, 95
2, 33600, Note_off_c, 2, 65, 95
2, 33600, Note_off_c, 2, 62, 95
2, 33600, Note_on_c, 2, 71, 95
2, 33600, Note_on_c, 2, 65, 95
2, 33600, Note_on_c, 2, 62, 95
2, 34560, Note_off_c, 2, 52, 95
2, 34560, Note_off_c, 2, 56, 95
2, 34560, Note_off_c, 2, 71, 95
2, 34560, Note_off_c, 2, 65, 95
2, 34560, Note_off_c, 2, 62, 95
2, 34560, Note_on_c, 2, 45, 95
2, 35040, Note_on_c, 2, 52, 95
2, 35520, Note_off_c, 2, 52, 95
2, 35520, Note_on_c, 2, 64, 95
2, 35520, Note_on_c, 2, 60, 95
2, 35520, Note_on_c, 2, 55, 95
2, 35520, Note_on_c, 2, 52, 95
2, 37440, Note_off_c, 2, 45, 95
2, 37440, Note_off_c, 2, 64, 95
2, 37440, Note_off_c, 2, 60, 95
2, 37440, Note_off_c, 2, 55, 95
2, 37440, Note_off_c, 2, 52, 95
2, 37440, Note_on_c, 2, 50, 95
2, 37920, Note_on_c, 2, 57, 95
2, 38400, Note_off_c, 2, 57, 95
2, 38400, Note_on_c, 2, 66, 95
2, 38400, Note_on_c, 2, 60, 95
2, 38400, Note_on_c, 2, 57, 95
2, 40320, Note_off_c, 2, 50, 95
2, 40320, Note_off_c, 2, 66, 95
2, 40320, Note_off_c, 2, 60, 95
2, 40320, Note_off_c, 2, 57, 95
2, 40320, Note_on_c, 2, 50, 95
2, 40800, Note_on_c, 2, 57, 95
2, 41280, Note_off_c, 2, 57, 95
2, 41280, Note_on_c, 2, 65, 95
2, 41280, Note_on_c, 2, 60, 95
2, 41280, Note_on_c, 2, 57, 95
2, 43200, Note_off_c, 2, 50, 95
2, 43200, Note_off_c, 2, 65, 95
2, 43200, Note_off_c, 2, 60, 95
2, 43200, Note_off_c, 2, 57, 95
2, 43200, Note_on_c, 2, 43, 95
2, 43680, Note_on_c, 2, 53, 95
2, 44160, Note_off_c, 2, 53, 95
2, 44160, Note_on_c, 2, 67, 95
2, 44160, Note_on_c, 2, 63, 95
2, 44160, Note_on_c, 2, 59, 95
2, 44160, Note_on_c, 2, 53, 95
2, 46080, Note_off_c, 2, 43, 95
2, 46080, Note_off_c, 2, 67, 95
2, 46080, Note_off_c, 2, 63, 95
2, 46080, Note_off_c, 2, 59, 95
2, 46080, Note_off_c, 2, 53, 95
2, 46080, Note_on_c, 2, 48, 95
2, 46560, Note_on_c, 2, 55, 95
2, 47040, Note_off_c, 2, 55, 95
2, 47040, Note_on_c, 2, 64, 95
2, 47040, Note_on_c, 2, 59, 95
2, 47040, Note_on_c, 2, 55, 95
2, 48960, Note_off_c, 2, 48, 95
2, 48960, Note_off_c, 2, 64, 95
2, 48960, Note_off_c, 2, 59, 95
2, 48960, Note_off_c, 2, 55, 95
2, 48960, Note_on_c, 2, 45, 95
2, 49440, Note_on_c, 2, 55, 95
2, 49920, Note_off_c, 2, 55, 95
2, 49920, Note_on_c, 2, 64, 95
2, 49920, Note_on_c, 2, 60, 95
2, 49920, Note_on_c, 2, 55, 95
2, 51840, Note_off_c, 2, 45, 95
2, 51840, Note_off_c, 2, 64, 95
2, 51840, Note_off_c, 2, 60, 95
2, 51840, Note_off_c, 2, 55, 95
2, 51840, Note_on_c, 2, 50, 95
2, 52320, Note_on_c, 2, 57, 95
2, 52800, Note_off_c, 2, 57, 95
2, 52800, Note_on_c, 2, 65, 95
2, 52800, Note_on_c, 2, 60, 95
2, 52800, Note_on_c, 2, 57, 95
2, 54720, Note_off_c, 2, 50, 95
2, 54720, Note_off_c, 2, 65, 95
2, 54720, Note_off_c, 2, 60, 95
2, 54720, Note_off_c, 2, 57, 95
2, 54720, Note_on_c, 2, 62, 95
2, 54720, Note_on_c, 2, 59, 95
2, 54720, Note_on_c, 2, 53, 95
2, 54720, Note_on_c, 2, 43, 95
2, 55680, Note_off_c, 2, 62, 95
2, 55680, Note_off_c, 2, 59, 95
2, 55680, Note_off_c, 2, 53, 95
2, 55680, Note_off_c, 2, 43, 95
2, 55680, Note_on_c, 2, 65, 95
2, 55680, Note_on_c, 2, 62, 95
2, 55680, Note_on_c, 2, 57, 95
2, 55680, Note_on_c, 2, 47, 95
2, 56640, Note_off_c, 2, 65, 95
2, 56640, Note_off_c, 2, 62, 95
2, 56640, Note_off_c, 2, 57, 95
2, 56640, Note_off_c, 2, 47, 95
2, 56640, Note_on_c, 2, 65, 95
2, 56640, Note_on_c, 2, 62, 95
2, 56640, Note_on_c, 2, 56, 95
2, 56640, Note_on_c, 2, 52, 95
2, 57600, Note_off_c, 2, 65, 95
2, 57600, Note_off_c, 2, 62, 95
2, 57600, Note_off_c, 2, 56, 95
2, 57600, Note_off_c, 2, 52, 95
2, 57600, Note_on_c, 2, 64, 95
2, 57600, Note_on_c, 2, 60, 95
2, 57600, Note_on_c, 2, 55, 95
2, 57600, Note_on_c, 2, 45, 95
2, 58560, Note_off_c, 2, 64, 95
2, 58560, Note_off_c, 2, 60, 95
2, 58560, Note_off_c, 2, 55, 95
2, 58560, Note_off_c, 2, 45, 95
2, 58560, Note_on_c, 2, 63, 95
2, 58560, Note_on_c, 2, 60, 95
2, 58560, Note_on_c, 2, 54, 95
2, 58560, Note_on_c, 2, 44, 95
2, 59520, Note_off_c, 2, 63, 95
2, 59520, Note_off_c, 2, 60, 95
2, 59520, Note_off_c, 2, 54, 95
2, 59520, Note_off_c, 2, 44, 95
2, 59520, Note_on_c, 2, 62, 95
2, 59520, Note_on_c, 2, 58, 95
2, 59520, Note_on_c, 2, 53, 95
2, 59520, Note_on_c, 2, 43, 95
2, 60480, Note_off_c, 2, 62, 95
2, 60480, Note_off_c, 2, 58, 95
2, 60480, Note_off_c, 2, 53, 95
2, 60480, Note_off_c, 2, 43, 95
2, 60480, Note_on_c, 2, 48, 95
2, 60960, Note_on_c, 2, 55, 95
2, 61440, Note_off_c, 2, 55, 95
2, 61440, Note_on_c, 2, 64, 95
2, 61440, Note_on_c, 2, 58, 95
2, 61440, Note_on_c, 2, 55, 95
2, 63360, Note_off_c, 2, 48, 95
2, 63360, Note_off_c, 2, 64, 95
2, 63360, Note_off_c, 2, 58, 95
2, 63360, Note_off_c, 2, 55, 95
2, 63360, Note_on_c, 2, 60, 95
2, 63360, Note_on_c, 2, 57, 95
2, 63360, Note_on_c, 2, 52, 95
2, 63360, Note_on_c, 2, 41, 95
2, 64320, Note_off_c, 2, 60, 95
2, 64320, Note_off_c, 2, 57, 95
2, 64320, Note_off_c, 2, 52, 95
2, 64320, Note_off_c, 2, 41, 95
2, 64320, Note_on_c, 2, 62, 95
2, 64320, Note_on_c, 2, 58, 95
2, 64320, Note_on_c, 2, 53, 95
2, 64320, Note_on_c, 2, 43, 95
2, 65280, Note_off_c, 2, 62, 95
2, 65280, Note_off_c, 2, 58, 95
2, 65280, Note_off_c, 2, 53, 95
2, 65280, Note_off_c, 2, 43, 95
2, 65280, Note_on_c, 2, 64, 95
2, 65280, Note_on_c, 2, 60, 95
2, 65280, Note_on_c, 2, 55, 95
2, 65280, Note_on_c, 2, 45, 95
2, 66240, Note_off_c, 2, 64, 95
2, 66240, Note_off_c, 2, 60, 95
2, 66240, Note_off_c, 2, 55, 95
2, 66240, Note_off_c, 2, 45, 95
2, 66240, Note_on_c, 2, 47, 95
2, 67200, Note_on_c, 2, 65, 95
2, 67200, Note_on_c, 2, 62, 95
2, 67200, Note_on_c, 2, 57, 95
2, 68160, Note_off_c, 2, 47, 95
2, 68160, Note_off_c, 2, 65, 95
2, 68160, Note_off_c, 2, 62, 95
2, 68160, Note_off_c, 2, 57, 95
2, 68160, Note_on_c, 2, 65, 95
2, 68160, Note_on_c, 2, 62, 95
2, 68160, Note_on_c, 2, 56, 95
2, 68160, Note_on_c, 2, 52, 95
2, 69120, Note_off_c, 2, 65, 95
2, 69120, Note_off_c, 2, 62, 95
2, 69120, Note_off_c, 2, 56, 95
2, 69120, Note_off_c, 2, 52, 95
2, 69120, Note_on_c, 2, 45, 95
2, 69600, Note_on_c, 2, 55, 95
2, 70080, Note_off_c, 2, 55, 95
2, 70080, Note_on_c, 2, 64, 95
2, 70080, Note_on_c, 2, 60, 95
2, 70080, Note_on_c, 2, 55, 95
2, 72000, Note_off_c, 2, 45, 95
2, 72000, Note_off_c, 2, 64, 95
2, 72000, Note_off_c, 2, 60, 95
2, 72000, Note_off_c, 2, 55, 95
2, 72000, Note_on_c, 2, 47, 95
2, 72480, Note_on_c, 2, 57, 95
2, 72960, Note_off_c, 2, 57, 95
2, 72960, Note_on_c, 2, 67, 95
2, 72960, Note_on_c, 2, 63, 95
2, 72960, Note_on_c, 2, 57, 95
2, 74880, Note_off_c, 2, 47, 95
2, 74880, Note_off_c, 2, 67, 95
2, 74880, Note_off_c, 2, 63, 95
2, 74880, Note_off_c, 2, 57, 95
2, 74880, Note_on_c, 2, 52, 95
2, 75360, Note_on_c, 2, 59, 95
2, 75840, Note_off_c, 2, 59, 95
2, 75840, Note_on_c, 2, 67, 95
2, 75840, Note_on_c, 2, 62, 95
2, 75840, Note_on_c, 2, 59, 95
2, 77760, Note_off_c, 2, 52, 95
2, 77760, Note_off_c, 2, 67, 95
2, 77760, Note_off_c, 2, 62, 95
2, 77760, Note_off_c, 2, 59, 95
2, 77760, Note_on_c, 2, 45, 95
2, 78240, Note_on_c, 2, 55, 95
2, 78720, Note_off_c, 2, 55, 95
2, 78720, Note_on_c, 2, 64, 95
2, 78720, Note_on_c, 2, 61, 95
2, 78720, Note_on_c, 2, 55, 95
2, 80640, Note_off_c, 2, 45, 95
2, 80640, Note_off_c, 2, 64, 95
2, 80640, Note_off_c, 2, 61, 95
2, 80640, Note_off_c, 2, 55, 95
2, 80640, Note_on_c, 2, 50, 95
2, 81120, Note_on_c, 2, 57, 95
2, 81600, Note_off_c, 2, 57, 95
2, 81600, Note_on_c, 2, 65, 95
2, 81600, Note_on_c, 2, 60, 95
2, 81600, Note_on_c, 2, 57, 95
2, 83520, Note_off_c, 2, 50, 95
2, 83520, Note_off_c, 2, 65, 95
2, 83520, Note_off_c, 2, 60, 95
2, 83520, Note_off_c, 2, 57, 95
2, 83520, Note_on_c, 2, 43, 95
2, 84000, Note_on_c, 2, 50, 95
2, 84480, Note_off_c, 2, 50, 95
2, 84480, Note_on_c, 2, 62, 95
2, 84480, Note_on_c, 2, 59, 95
2, 84480, Note_on_c, 2, 53, 95
2, 86400, Note_off_c, 2, 43, 95
2, 86400, Note_off_c, 2, 62, 95
2, 86400, Note_off_c, 2, 59, 95
2, 86400, Note_off_c, 2, 53, 95
2, 86400, Note_on_c, 2, 52, 95
2, 86880, Note_on_c, 2, 58, 95
2, 87360, Note_off_c, 2, 58, 95
2, 87360, Note_on_c, 2, 67, 95
2, 87360, Note_on_c, 2, 62, 95
2, 87360, Note_on_c, 2, 58, 95
2, 89280, Note_off_c, 2, 52, 95
2, 89280, Note_off_c, 2, 67, 95
2, 89280, Note_off_c, 2, 62, 95
2, 89280, Note_off_c, 2, 58, 95
2, 89280, Note_on_c, 2, 45, 95
2, 90240, Note_on_c, 2, 64, 95
2, 90240, Note_on_c, 2, 61, 95
2, 90240, Note_on_c, 2, 55, 95
2, 91200, Note_off_c, 2, 45, 95
2, 91200, Note_off_c, 2, 64, 95
2, 91200, Note_off_c, 2, 61, 95
2, 91200, Note_off_c, 2, 55, 95
2, 91200, Note_on_c, 2, 64, 95
2, 91200, Note_on_c, 2, 61, 95
2, 91200, Note_on_c, 2, 57, 95
2, 91200, Note_on_c, 2, 43, 95
2, 92160, Note_off_c, 2, 64, 95
2, 92160, Note_off_c, 2, 61, 95
2, 92160, Note_off_c, 2, 57, 95
2, 92160, Note_off_c, 2, 43, 95
2, 92160, Note_on_c, 2, 42, 95
2, 92640, Note_on_c, 2, 52, 95
2, 93120, Note_off_c, 2, 52, 95
2, 93120, Note_on_c, 2, 60, 95
2, 93120, Note_on_c, 2, 57, 95
2, 93120, Note_on_c, 2, 52, 95
2, 95040, Note_off_c, 2, 42, 95
2, 95040, Note_off_c, 2, 60, 95
2, 95040, Note_off_c, 2, 57, 95
2, 95040, Note_off_c, 2, 52, 95
2, 95040, Note_on_c, 2, 41, 95
2, 95520, Note_on_c, 2, 48, 95
2, 96000, Note_off_c, 2, 48, 95
2, 96000, Note_on_c, 2, 67, 95
2, 96000, Note_on_c, 2, 60, 95
2, 96000, Note_on_c, 2, 56, 95
2, 96000, Note_on_c, 2, 51, 95
2, 97920, Note_off_c, 2, 41, 95
2, 97920, Note_off_c, 2, 67, 95
2, 97920, Note_off_c, 2, 60, 95
2, 97920, Note_off_c, 2, 56, 95
2, 97920, Note_off_c, 2, 51, 95
2, 97920, Note_on_c, 2, 52, 95
2, 98400, Note_on_c, 2, 59, 95
2, 98880, Note_off_c, 2, 59, 95
2, 98880, Note_on_c, 2, 67, 95
2, 98880, Note_on_c, 2, 62, 95
2, 98880, Note_on_c, 2, 59, 95
2, 100800, Note_off_c, 2, 52, 95
2, 100800, Note_off_c, 2, 67, 95
2, 100800, Note_off_c, 2, 62, 95
2, 100800, Note_off_c, 2, 59, 95
2, 100800, Note_on_c, 2, 45, 95
2, 101280, Note_on_c, 2, 55, 95
2, 101760, Note_off_c, 2, 55, 95
2, 101760, Note_on_c, 2, 64, 95
2, 101760, Note_on_c, 2, 61, 95
2, 101760, Note_on_c, 2, 55, 95
2, 103680, Note_off_c, 2, 45, 95
2, 103680, Note_off_c, 2, 64, 95
2, 103680, Note_off_c, 2, 61, 95
2, 103680, Note_off_c, 2, 55, 95
2, 103680, Note_on_c, 2, 50, 95
2, 104160, Note_on_c, 2, 57, 95
2, 104640, Note_off_c, 2, 57, 95
2, 104640, Note_on_c, 2, 65, 95
2, 104640, Note_on_c, 2, 60, 95
2, 104640, Note_on_c, 2, 57, 95
2, 106560, Note_off_c, 2, 50, 95
2, 106560, Note_off_c, 2, 65, 95
2, 106560, Note_off_c, 2, 60, 95
2, 106560, Note_off_c, 2, 57, 95
2, 106560, Note_on_c, 2, 43, 95
2, 107040, Note_on_c, 2, 50, 95
2, 107520, Note_off_c, 2, 50, 95
2, 107520, Note_on_c, 2, 62, 95
2, 107520, Note_on_c, 2, 59, 95
2, 107520, Note_on_c, 2, 53, 95
2, 109440, Note_off_c, 2, 43, 95
2, 109440, Note_off_c, 2, 62, 95
2, 109440, Note_off_c, 2, 59, 95
2, 109440, Note_off_c, 2, 53, 95
2, 109440, Note_on_c, 2, 48, 95
2, 109920, Note_on_c, 2, 55, 95
2, 110400, Note_off_c, 2, 55, 95
2, 110400, Note_on_c, 2, 64, 95
2, 110400, Note_on_c, 2, 59, 95
2, 110400, Note_on_c, 2, 55, 95
2, 112320, Note_off_c, 2, 48, 95
2, 112320, Note_off_c, 2, 64, 95
2, 112320, Note_off_c, 2, 59, 95
2, 112320, Note_off_c, 2, 55, 95
2, 112320, Note_on_c, 2, 50, 95
2, 113280, Note_on_c, 2, 65, 95
2, 113280, Note_on_c, 2, 60, 95
2, 113280, Note_on_c, 2, 57, 95
2, 114240, Note_off_c, 2, 50, 95
2, 114240, Note_off_c, 2, 65, 95
2, 114240, Note_off_c, 2, 60, 95
2, 114240, Note_off_c, 2, 57, 95
2, 114240, Note_on_c, 2, 64, 95
2, 114240, Note_on_c, 2, 59, 95
2, 114240, Note_on_c, 2, 53, 95
2, 114240, Note_on_c, 2, 43, 95
2, 115200, Note_off_c, 2, 64, 95
2, 115200, Note_off_c, 2, 59, 95
2, 115200, Note_off_c, 2, 53, 95
2, 115200, Note_off_c, 2, 43, 95
2, 115200, Note_on_c, 2, 48, 95
2, 115680, Note_on_c, 2, 55, 95
2, 116160, Note_off_c, 2, 55, 95
2, 116160, Note_on_c, 2, 64, 95
2, 116160, Note_on_c, 2, 59, 95
2, 116160, Note_on_c, 2, 55, 95
2, 118080, Note_off_c, 2, 48, 95
2, 118080, Note_off_c, 2, 64, 95
2, 118080, Note_off_c, 2, 59, 95
2, 118080, Note_off_c, 2, 55, 95
2, 118080, Note_on_c, 2, 50, 95
2, 119040, Note_on_c, 2, 65, 95
2, 119040, Note_on_c, 2, 60, 95
2, 119040, Note_on_c, 2, 57, 95
2, 120000, Note_off_c, 2, 50, 95
2, 120000, Note_off_c, 2, 65, 95
2, 120000, Note_off_c, 2, 60, 95
2, 120000, Note_off_c, 2, 57, 95
2, 120000, Note_on_c, 2, 64, 95
2, 120000, Note_on_c, 2, 59, 95
2, 120000, Note_on_c, 2, 53, 95
2, 120000, Note_on_c, 2, 43, 95
2, 120960, Note_off_c, 2, 64, 95
2, 120960, Note_off_c, 2, 59, 95
2, 120960, Note_off_c, 2, 53, 95
2, 120960, Note_off_c, 2, 43, 95
2, 120960, Note_on_c, 2, 48, 95
2, 121020, Note_on_c, 2, 52, 95
2, 121080, Note_on_c, 2, 57, 95
2, 121140, Note_on_c, 2, 62, 95
2, 121200, Note_on_c, 2, 67, 95
2, 121260, Note_on_c, 2, 71, 95
2, 123840, Note_off_c, 2, 71, 95
2, 123840, Note_off_c, 2, 67, 95
2, 123840, Note_off_c, 2, 62, 95
2, 123840, Note_off_c, 2, 57, 95
2, 123840, Note_off_c, 2, 52, 95
2, 123840, Note_off_c, 2, 48, 95
2, 123840, End_track
3, 0, Start_track
3, 0, Pitch_bend_c, 0, 8192
3, 0, Control_c, 0, 7, 111
3, 0, Control_c, 0, 10, 63
3, 0, Control_c, 0, 93, 0
3, 0, Control_c, 0, 91, 0
3, 0, Control_c, 0, 95, 0
3, 0, Control_c, 0, 92, 0
3, 0, Control_c, 0, 11, 127
3, 0, Program_c, 0, 56
3, 0, Control_c, 1, 7, 111
3, 0, Control_c, 1, 10, 63
3, 0, Control_c, 1, 93, 0
3, 0, Control_c, 1, 91, 0
3, 0, Control_c, 1, 95, 0
3, 0, Control_c, 1, 92, 0
3, 0, Control_c, 1, 11, 127
3, 0, Program_c, 1, 56
3, 0, Note_on_c, 0, 63, 95
3, 240, Note_off_c, 0, 63, 95
3, 240, Note_on_c, 0, 64, 70
3, 480, Note_off_c, 0, 64, 70
3, 480, Note_on_c, 0, 71, 95
3, 960, Note_off_c, 0, 71, 95
3, 960, Note_on_c, 0, 67, 95
3, 2880, Note_off_c, 0, 67, 95
3, 2880, Note_on_c, 0, 63, 95
3, 3120, Note_off_c, 0, 63, 95
3, 3120, Note_on_c, 0, 64, 70
3, 3360, Note_off_c, 0, 64, 70
3, 3360, Note_on_c, 0, 71, 95
3, 3840, Note_off_c, 0, 71, 95
3, 3840, Note_on_c, 0, 67, 95
3, 5760, Note_off_c, 0, 67, 95
3, 5760, Note_on_c, 0, 63, 95
3, 6000, Note_off_c, 0, 63, 95
3, 6000, Note_on_c, 0, 64, 70
3, 6240, Note_off_c, 0, 64, 70
3, 6240, Note_on_c, 0, 71, 95
3, 6720, Note_off_c, 0, 71, 95
3, 6720, Note_on_c, 0, 67, 95
3, 9600, Note_off_c, 0, 67, 95
3, 9600, Note_on_c, 0, 64, 95
3, 11040, Note_off_c, 0, 64, 95
3, 11040, Note_on_c, 0, 62, 95
3, 11520, Note_off_c, 0, 62, 95
3, 11520, Note_on_c, 0, 60, 95
3, 12960, Note_off_c, 0, 60, 95
3, 12960, Note_on_c, 0, 62, 95
3, 13440, Note_off_c, 0, 62, 95
3, 13440, Note_on_c, 0, 64, 95
3, 14400, Note_off_c, 0, 64, 95
3, 14400, Note_on_c, 0, 69, 95
3, 16320, Note_off_c, 0, 69, 95
3, 16320, Note_on_c, 0, 67, 95
3, 17280, Note_off_c, 0, 67, 95
3, 17280, Note_on_c, 0, 60, 95
3, 22080, Note_off_c, 0, 60, 95
3, 22080, Note_on_c, 0, 62, 95
3, 23040, Note_off_c, 0, 62, 95
3, 23040, Note_on_c, 0, 64, 95
3, 23520, Note_off_c, 0, 64, 95
3, 23520, Note_on_c, 0, 57, 95
3, 24000, Note_off_c, 0, 57, 95
3, 24000, Note_on_c, 0, 57, 95
3, 25920, Note_off_c, 0, 57, 95
3, 25920, Note_on_c, 0, 64, 95
3, 26400, Note_off_c, 0, 64, 95
3, 26400, Note_on_c, 0, 57, 95
3, 26880, Note_off_c, 0, 57, 95
3, 26880, Note_on_c, 0, 57, 95
3, 28800, Note_off_c, 0, 57, 95
3, 28800, Note_on_c, 0, 64, 95
3, 29280, Note_off_c, 0, 64, 95
3, 29280, Note_on_c, 0, 57, 95
3, 29760, Note_off_c, 0, 57, 95
3, 29760, Note_on_c, 0, 57, 95
3, 31680, Note_off_c, 0, 57, 95
3, 31680, Note_on_c, 0, 57, 95
3, 32640, Note_off_c, 0, 57, 95
3, 32640, Note_on_c, 0, 57, 95
3, 33600, Note_off_c, 0, 57, 95
3, 33600, Note_on_c, 0, 59, 95
3, 34560, Note_off_c, 0, 59, 95
3, 34560, Note_on_c, 0, 60, 95
3, 35520, Note_off_c, 0, 60, 95
3, 35520, Note_on_c, 0, 62, 95
3, 36480, Note_off_c, 0, 62, 95
3, 36480, Note_on_c, 0, 64, 95
3, 37440, Note_off_c, 0, 64, 95
3, 37440, Note_on_c, 0, 74, 95
3, 38400, Note_off_c, 0, 74, 95
3, 38400, Note_on_c, 0, 72, 95
3, 39360, Note_off_c, 0, 72, 95
3, 39360, Note_on_c, 0, 69, 95
3, 40320, Note_off_c, 0, 69, 95
3, 40320, Note_on_c, 0, 62, 95
3, 43200, Note_off_c, 0, 62, 95
3, 43200, Note_on_c, 0, 63, 95
3, 46080, Note_off_c, 0, 63, 95
3, 46080, Note_on_c, 0, 63, 95
3, 46320, Note_off_c, 0, 63, 95
3, 46320, Note_on_c, 0, 64, 70
3, 46560, Note_off_c, 0, 64, 70
3, 46560, Note_on_c, 0, 71, 95
3, 47040, Note_off_c, 0, 71, 95
3, 47040, Note_on_c, 0, 67, 95
3, 48960, Note_off_c, 0, 67, 95
3, 48960, Note_on_c, 0, 63, 95
3, 49200, Note_off_c, 0, 63, 95
3, 49200, Note_on_c, 0, 64, 70
3, 49440, Note_off_c, 0, 64, 70
3, 49440, Note_on_c, 0, 71, 95
3, 49920, Note_off_c, 0, 71, 95
3, 49920, Note_on_c, 0, 67, 95
3, 51840, Note_off_c, 0, 67, 95
3, 51840, Note_on_c, 0, 63, 95
3, 52080, Note_off_c, 0, 63, 95
3, 52080, Note_on_c, 0, 64, 70
3, 52320, Note_off_c, 0, 64, 70
3, 52320, Note_on_c, 0, 71, 95
3, 52800, Note_off_c, 0, 71, 95
3, 52800, Note_on_c, 0, 67, 95
3, 54720, Note_off_c, 0, 67, 95
3, 54720, Note_on_c, 0, 67, 95
3, 55680, Note_off_c, 0, 67, 95
3, 55680, Note_on_c, 0, 67, 95
3, 56640, Note_off_c, 0, 67, 95
3, 56640, Note_on_c, 0, 65, 95
3, 57600, Note_off_c, 0, 65, 95
3, 57600, Note_on_c, 0, 64, 95
3, 59040, Note_off_c, 0, 64, 95
3, 59040, Note_on_c, 0, 65, 95
3, 59520, Note_off_c, 0, 65, 95
3, 59520, Note_on_c, 0, 67, 95
3, 60480, Note_off_c, 0, 67, 95
3, 60480, Note_on_c, 0, 76, 95
3, 61920, Note_off_c, 0, 76, 95
3, 61920, Note_on_c, 0, 74, 95
3, 62400, Note_off_c, 0, 74, 95
3, 62400, Note_on_c, 0, 72, 95
3, 63360, Note_off_c, 0, 72, 95
3, 63360, Note_on_c, 0, 69, 95
3, 66240, Note_off_c, 0, 69, 95
3, 66240, Note_on_c, 0, 71, 95
3, 69120, Note_off_c, 0, 71, 95
3, 69120, Note_on_c, 0, 72, 95
3, 70080, Note_off_c, 0, 72, 95
3, 70080, Note_on_c, 0, 71, 95
3, 71040, Note_off_c, 0, 71, 95
3, 71040, Note_on_c, 0, 69, 95
3, 72000, Note_off_c, 0, 69, 95
3, 72000, Note_on_c, 0, 67, 95
3, 73920, Note_off_c, 0, 67, 95
3, 73920, Note_on_c, 0, 66, 95
3, 74880, Note_off_c, 0, 66, 95
3, 74880, Note_on_c, 0, 67, 95
3, 75360, Note_off_c, 0, 67, 95
3, 75360, Note_on_c, 0, 69, 95
3, 75840, Note_off_c, 0, 69, 95
3, 75840, Note_on_c, 0, 71, 95
3, 78720, Note_off_c, 0, 71, 95
3, 78720, Note_on_c, 0, 69, 95
3, 79680, Note_off_c, 0, 69, 95
3, 79680, Note_on_c, 0, 67, 95
3, 80640, Note_off_c, 0, 67, 95
3, 80640, Note_on_c, 0, 65, 95
3, 81120, Note_off_c, 0, 65, 95
3, 81120, Note_on_c, 0, 67, 95
3, 81600, Note_off_c, 0, 67, 95
3, 81600, Note_on_c, 0, 69, 95
3, 84480, Note_off_c, 0, 69, 95
3, 84480, Note_on_c, 0, 67, 95
3, 85920, Note_off_c, 0, 67, 95
3, 85920, Note_on_c, 0, 65, 95
3, 86400, Note_off_c, 0, 65, 95
3, 86400, Note_on_c, 0, 64, 95
3, 86880, Note_off_c, 0, 64, 95
3, 86880, Note_on_c, 0, 65, 95
3, 87360, Note_off_c, 0, 65, 95
3, 87360, Note_on_c, 0, 67, 95
3, 90240, Note_off_c, 0, 67, 95
3, 90240, Note_on_c, 0, 69, 95
3, 91200, Note_off_c, 0, 69, 95
3, 91200, Note_on_c, 0, 71, 95
3, 92160, Note_off_c, 0, 71, 95
3, 92160, Note_on_c, 0, 72, 95
3, 93120, Note_off_c, 0, 72, 95
3, 93120, Note_on_c, 0, 71, 95
3, 94080, Note_off_c, 0, 71, 95
3, 94080, Note_on_c, 0, 69, 95
3, 95040, Note_off_c, 0, 69, 95
3, 95040, Note_on_c, 0, 67, 95
3, 96960, Note_off_c, 0, 67, 95
3, 96960, Note_on_c, 0, 65, 95
3, 97920, Note_off_c, 0, 65, 95
3, 97920, Note_on_c, 0, 64, 95
3, 98400, Note_off_c, 0, 64, 95
3, 98400, Note_on_c, 0, 71, 95
3, 98880, Note_off_c, 0, 71, 95
3, 98880, Note_on_c, 0, 67, 95
3, 101760, Note_off_c, 0, 67, 95
3, 101760, Note_on_c, 0, 67, 95
3, 102720, Note_off_c, 0, 67, 95
3, 102720, Note_on_c, 0, 65, 95
3, 103680, Note_off_c, 0, 65, 95
3, 103680, Note_on_c, 0, 64, 95
3, 104160, Note_off_c, 0, 64, 95
3, 104160, Note_on_c, 0, 71, 95
3, 104640, Note_off_c, 0, 71, 95
3, 104640, Note_on_c, 0, 67, 95
3, 106560, Note_off_c, 0, 67, 95
3, 106560, Note_on_c, 0, 64, 95
3, 107040, Note_off_c, 0, 64, 95
3, 107040, Note_on_c, 0, 71, 95
3, 107520, Note_off_c, 0, 71, 95
3, 107520, Note_on_c, 0, 67, 95
3, 108960, Note_off_c, 0, 67, 95
3, 108960, Note_on_c, 0, 74, 95
3, 109440, Note_off_c, 0, 74, 95
3, 109440, Note_on_c, 0, 72, 95
3, 112320, Note_off_c, 0, 72, 95
3, 112320, Note_on_c, 0, 72, 95
3, 114240, Note_off_c, 0, 72, 95
3, 114240, End_track
0, 0, End_of_file
