0, 0, Header, 1, 7, 120
1, 0, Start_track
1, 0, Time_signature, 4, 2, 24, 8
1, 0, Key_signature, -4, "major"
1, 0, Tempo, 500000
1, 0, End_track
2, 0, Start_track
2, 0, MIDI_port, 0
2, 0, Title_t, "Vocal"
2, 0, Program_c, 0, 85
2, 0, Control_c, 0, 7, 110
2, 6180, Note_on_c, 0, 68, 100
2, 6239, Note_on_c, 0, 68, 0
2, 6240, Note_on_c, 0, 72, 100
2, 6299, Note_on_c, 0, 72, 0
2, 6300, Note_on_c, 0, 75, 100
2, 6419, Note_on_c, 0, 75, 0
2, 6420, Note_on_c, 0, 75, 100
2, 6599, Note_on_c, 0, 75, 0
2, 6600, Note_on_c, 0, 72, 100
2, 6659, Note_on_c, 0, 72, 0
2, 6660, Note_on_c, 0, 75, 100
2, 6839, Note_on_c, 0, 75, 0
2, 6840, Note_on_c, 0, 70, 100
2, 6899, Note_on_c, 0, 70, 0
2, 6900, Note_on_c, 0, 72, 100
2, 7079, Note_on_c, 0, 72, 0
2, 7080, Note_on_c, 0, 72, 100
2, 7139, Note_on_c, 0, 72, 0
2, 7140, Note_on_c, 0, 73, 100
2, 7319, Note_on_c, 0, 73, 0
2, 7320, Note_on_c, 0, 73, 100
2, 7379, Note_on_c, 0, 73, 0
2, 7380, Note_on_c, 0, 73, 100
2, 7559, Note_on_c, 0, 73, 0
2, 7560, Note_on_c, 0, 72, 100
2, 7619, Note_on_c, 0, 72, 0
2, 7620, Note_on_c, 0, 72, 100
2, 7739, Note_on_c, 0, 72, 0
2, 7740, Note_on_c, 0, 72, 100
2, 7859, Note_on_c, 0, 72, 0
2, 7860, Note_on_c, 0, 72, 100
2, 7889, Note_on_c, 0, 72, 0
2, 7890, Note_on_c, 0, 70, 100
2, 7919, Note_on_c, 0, 70, 0
2, 7920, Note_on_c, 0, 68, 100
2, 8039, Note_on_c, 0, 68, 0
2, 8280, Note_on_c, 0, 72, 100
2, 8339, Note_on_c, 0, 72, 0
2, 8340, Note_on_c, 0, 75, 100
2, 8399, Note_on_c, 0, 75, 0
2, 8400, Note_on_c, 0, 75, 100
2, 8519, Note_on_c, 0, 75, 0
2, 8520, Note_on_c, 0, 72, 100
2, 8579, Note_on_c, 0, 72, 0
2, 8580, Note_on_c, 0, 75, 100
2, 8699, Note_on_c, 0, 75, 0
2, 8700, Note_on_c, 0, 70, 100
2, 8759, Note_on_c, 0, 70, 0
2, 8760, Note_on_c, 0, 70, 100
2, 8819, Note_on_c, 0, 70, 0
2, 8820, Note_on_c, 0, 72, 100
2, 8849, Note_on_c, 0, 72, 0
2, 8850, Note_on_c, 0, 70, 100
2, 8879, Note_on_c, 0, 70, 0
2, 8880, Note_on_c, 0, 68, 100
2, 8999, Note_on_c, 0, 68, 0
2, 9060, Note_on_c, 0, 68, 100
2, 9119, Note_on_c, 0, 68, 0
2, 9120, Note_on_c, 0, 73, 100
2, 9179, Note_on_c, 0, 73, 0
2, 9180, Note_on_c, 0, 73, 100
2, 9239, Note_on_c, 0, 73, 0
2, 9240, Note_on_c, 0, 73, 100
2, 9299, Note_on_c, 0, 73, 0
2, 9300, Note_on_c, 0, 73, 100
2, 9419, Note_on_c, 0, 73, 0
2, 9420, Note_on_c, 0, 72, 100
2, 9539, Note_on_c, 0, 72, 0
2, 9540, Note_on_c, 0, 70, 100
2, 9659, Note_on_c, 0, 70, 0
2, 9660, Note_on_c, 0, 70, 100
2, 9779, Note_on_c, 0, 70, 0
2, 9780, Note_on_c, 0, 72, 100
2, 9839, Note_on_c, 0, 72, 0
2, 9840, Note_on_c, 0, 70, 100
2, 9959, Note_on_c, 0, 70, 0
2, 10020, Note_on_c, 0, 68, 100
2, 10079, Note_on_c, 0, 68, 0
2, 10080, Note_on_c, 0, 72, 100
2, 10139, Note_on_c, 0, 72, 0
2, 10140, Note_on_c, 0, 75, 100
2, 10199, Note_on_c, 0, 75, 0
2, 10200, Note_on_c, 0, 75, 100
2, 10259, Note_on_c, 0, 75, 0
2, 10260, Note_on_c, 0, 75, 100
2, 10439, Note_on_c, 0, 75, 0
2, 10440, Note_on_c, 0, 72, 100
2, 10499, Note_on_c, 0, 72, 0
2, 10500, Note_on_c, 0, 75, 100
2, 10619, Note_on_c, 0, 75, 0
2, 10620, Note_on_c, 0, 70, 100
2, 10739, Note_on_c, 0, 70, 0
2, 10740, Note_on_c, 0, 72, 100
2, 10919, Note_on_c, 0, 72, 0
2, 10920, Note_on_c, 0, 72, 100
2, 10979, Note_on_c, 0, 72, 0
2, 10980, Note_on_c, 0, 72, 100
2, 11039, Note_on_c, 0, 72, 0
2, 11100, Note_on_c, 0, 72, 100
2, 11159, Note_on_c, 0, 72, 0
2, 11160, Note_on_c, 0, 73, 100
2, 11219, Note_on_c, 0, 73, 0
2, 11220, Note_on_c, 0, 73, 100
2, 11399, Note_on_c, 0, 73, 0
2, 11400, Note_on_c, 0, 72, 100
2, 11579, Note_on_c, 0, 72, 0
2, 11580, Note_on_c, 0, 70, 100
2, 11639, Note_on_c, 0, 70, 0
2, 11640, Note_on_c, 0, 68, 100
2, 11699, Note_on_c, 0, 68, 0
2, 11700, Note_on_c, 0, 68, 100
2, 11819, Note_on_c, 0, 68, 0
2, 11940, Note_on_c, 0, 68, 100
2, 11999, Note_on_c, 0, 68, 0
2, 12000, Note_on_c, 0, 72, 100
2, 12059, Note_on_c, 0, 72, 0
2, 12060, Note_on_c, 0, 75, 100
2, 12179, Note_on_c, 0, 75, 0
2, 12180, Note_on_c, 0, 75, 100
2, 12299, Note_on_c, 0, 75, 0
2, 12300, Note_on_c, 0, 75, 100
2, 12419, Note_on_c, 0, 75, 0
2, 12420, Note_on_c, 0, 75, 100
2, 12599, Note_on_c, 0, 75, 0
2, 12600, Note_on_c, 0, 70, 100
2, 12659, Note_on_c, 0, 70, 0
2, 12660, Note_on_c, 0, 72, 100
2, 12839, Note_on_c, 0, 72, 0
2, 12900, Note_on_c, 0, 68, 100
2, 12959, Note_on_c, 0, 68, 0
2, 12960, Note_on_c, 0, 72, 100
2, 13019, Note_on_c, 0, 72, 0
2, 13020, Note_on_c, 0, 68, 100
2, 13139, Note_on_c, 0, 68, 0
2, 13140, Note_on_c, 0, 68, 100
2, 13319, Note_on_c, 0, 68, 0
2, 13320, Note_on_c, 0, 72, 100
2, 13379, Note_on_c, 0, 72, 0
2, 13380, Note_on_c, 0, 70, 100
2, 13559, Note_on_c, 0, 70, 0
2, 13800, Note_on_c, 0, 72, 100
2, 13829, Note_on_c, 0, 72, 0
2, 13830, Note_on_c, 0, 70, 100
2, 13859, Note_on_c, 0, 70, 0
2, 13860, Note_on_c, 0, 68, 100
2, 13919, Note_on_c, 0, 68, 0
2, 13920, Note_on_c, 0, 68, 100
2, 14039, Note_on_c, 0, 68, 0
2, 14040, Note_on_c, 0, 68, 100
2, 14099, Note_on_c, 0, 68, 0
2, 14100, Note_on_c, 0, 68, 100
2, 14159, Note_on_c, 0, 68, 0
2, 14160, Note_on_c, 0, 72, 100
2, 14279, Note_on_c, 0, 72, 0
2, 14280, Note_on_c, 0, 75, 100
2, 14399, Note_on_c, 0, 75, 0
2, 14400, Note_on_c, 0, 77, 100
2, 14519, Note_on_c, 0, 77, 0
2, 14520, Note_on_c, 0, 77, 100
2, 14639, Note_on_c, 0, 77, 0
2, 14640, Note_on_c, 0, 77, 100
2, 14759, Note_on_c, 0, 77, 0
2, 14880, Note_on_c, 0, 72, 100
2, 14939, Note_on_c, 0, 72, 0
2, 14940, Note_on_c, 0, 77, 100
2, 15029, Note_on_c, 0, 77, 0
2, 15030, Note_on_c, 0, 75, 100
2, 15119, Note_on_c, 0, 75, 0
2, 15120, Note_on_c, 0, 72, 100
2, 15239, Note_on_c, 0, 72, 0
2, 15240, Note_on_c, 0, 72, 100
2, 15419, Note_on_c, 0, 72, 0
2, 15420, Note_on_c, 0, 70, 100
2, 15599, Note_on_c, 0, 70, 0
2, 15900, Note_on_c, 0, 68, 100
2, 15959, Note_on_c, 0, 68, 0
2, 15960, Note_on_c, 0, 68, 100
2, 16019, Note_on_c, 0, 68, 0
2, 16020, Note_on_c, 0, 68, 100
2, 16079, Note_on_c, 0, 68, 0
2, 16080, Note_on_c, 0, 72, 100
2, 16199, Note_on_c, 0, 72, 0
2, 16200, Note_on_c, 0, 75, 100
2, 16259, Note_on_c, 0, 75, 0
2, 16260, Note_on_c, 0, 77, 100
2, 16439, Note_on_c, 0, 77, 0
2, 16440, Note_on_c, 0, 77, 100
2, 16559, Note_on_c, 0, 77, 0
2, 16560, Note_on_c, 0, 77, 100
2, 16679, Note_on_c, 0, 77, 0
2, 16680, Note_on_c, 0, 75, 100
2, 16739, Note_on_c, 0, 75, 0
2, 16740, Note_on_c, 0, 75, 100
2, 16799, Note_on_c, 0, 75, 0
2, 16800, Note_on_c, 0, 77, 100
2, 16919, Note_on_c, 0, 77, 0
2, 16920, Note_on_c, 0, 75, 100
2, 17039, Note_on_c, 0, 75, 0
2, 17040, Note_on_c, 0, 72, 100
2, 17159, Note_on_c, 0, 72, 0
2, 17160, Note_on_c, 0, 68, 100
2, 17219, Note_on_c, 0, 68, 0
2, 17220, Note_on_c, 0, 72, 100
2, 17339, Note_on_c, 0, 72, 0
2, 17340, Note_on_c, 0, 70, 100
2, 17519, Note_on_c, 0, 70, 0
2, 17640, Note_on_c, 0, 68, 100
2, 17699, Note_on_c, 0, 68, 0
2, 17700, Note_on_c, 0, 70, 100
2, 17759, Note_on_c, 0, 70, 0
2, 17760, Note_on_c, 0, 72, 100
2, 17819, Note_on_c, 0, 72, 0
2, 17820, Note_on_c, 0, 72, 100
2, 17939, Note_on_c, 0, 72, 0
2, 17940, Note_on_c, 0, 72, 100
2, 18059, Note_on_c, 0, 72, 0
2, 18060, Note_on_c, 0, 70, 100
2, 18179, Note_on_c, 0, 70, 0
2, 18180, Note_on_c, 0, 68, 100
2, 18359, Note_on_c, 0, 68, 0
2, 18360, Note_on_c, 0, 68, 100
2, 18419, Note_on_c, 0, 68, 0
2, 18420, Note_on_c, 0, 70, 100
2, 18599, Note_on_c, 0, 70, 0
2, 18660, Note_on_c, 0, 68, 100
2, 18719, Note_on_c, 0, 68, 0
2, 18720, Note_on_c, 0, 72, 100
2, 18779, Note_on_c, 0, 72, 0
2, 18780, Note_on_c, 0, 75, 100
2, 18899, Note_on_c, 0, 75, 0
2, 18900, Note_on_c, 0, 75, 100
2, 19019, Note_on_c, 0, 75, 0
2, 19020, Note_on_c, 0, 75, 100
2, 19139, Note_on_c, 0, 75, 0
2, 19140, Note_on_c, 0, 75, 100
2, 19199, Note_on_c, 0, 75, 0
2, 19200, Note_on_c, 0, 77, 100
2, 19259, Note_on_c, 0, 77, 0
2, 19260, Note_on_c, 0, 75, 100
2, 19319, Note_on_c, 0, 75, 0
2, 19320, Note_on_c, 0, 75, 100
2, 19379, Note_on_c, 0, 75, 0
2, 19380, Note_on_c, 0, 72, 100
2, 19409, Note_on_c, 0, 72, 0
2, 19410, Note_on_c, 0, 70, 100
2, 19439, Note_on_c, 0, 70, 0
2, 19440, Note_on_c, 0, 68, 100
2, 19559, Note_on_c, 0, 68, 0
2, 19680, Note_on_c, 0, 72, 100
2, 19739, Note_on_c, 0, 72, 0
2, 19740, Note_on_c, 0, 75, 100
2, 19859, Note_on_c, 0, 75, 0
2, 19860, Note_on_c, 0, 75, 100
2, 19979, Note_on_c, 0, 75, 0
2, 19980, Note_on_c, 0, 75, 100
2, 20099, Note_on_c, 0, 75, 0
2, 20100, Note_on_c, 0, 77, 100
2, 20219, Note_on_c, 0, 77, 0
2, 20220, Note_on_c, 0, 75, 100
2, 20339, Note_on_c, 0, 75, 0
2, 20340, Note_on_c, 0, 72, 100
2, 20519, Note_on_c, 0, 72, 0
2, 20580, Note_on_c, 0, 63, 100
2, 20639, Note_on_c, 0, 63, 0
2, 20640, Note_on_c, 0, 65, 100
2, 20699, Note_on_c, 0, 65, 0
2, 20700, Note_on_c, 0, 68, 100
2, 20759, Note_on_c, 0, 68, 0
2, 20760, Note_on_c, 0, 68, 100
2, 20819, Note_on_c, 0, 68, 0
2, 20820, Note_on_c, 0, 72, 100
2, 20999, Note_on_c, 0, 72, 0
2, 21600, Note_on_c, 0, 65, 100
2, 21659, Note_on_c, 0, 65, 0
2, 21660, Note_on_c, 0, 68, 100
2, 21719, Note_on_c, 0, 68, 0
2, 21720, Note_on_c, 0, 68, 100
2, 21779, Note_on_c, 0, 68, 0
2, 21780, Note_on_c, 0, 72, 100
2, 22019, Note_on_c, 0, 72, 0
2, 22020, Note_on_c, 0, 73, 100
2, 22049, Note_on_c, 0, 73, 0
2, 22050, Note_on_c, 0, 72, 100
2, 22079, Note_on_c, 0, 72, 0
2, 22080, Note_on_c, 0, 68, 100
2, 22139, Note_on_c, 0, 68, 0
2, 22140, Note_on_c, 0, 70, 100
2, 22439, Note_on_c, 0, 70, 0
2, 22440, Note_on_c, 0, 70, 100
2, 22499, Note_on_c, 0, 70, 0
2, 22500, Note_on_c, 0, 68, 100
2, 22559, Note_on_c, 0, 68, 0
2, 22560, Note_on_c, 0, 70, 100
2, 22619, Note_on_c, 0, 70, 0
2, 22620, Note_on_c, 0, 68, 100
2, 22679, Note_on_c, 0, 68, 0
2, 22680, Note_on_c, 0, 68, 100
2, 22799, Note_on_c, 0, 68, 0
2, 25320, Note_on_c, 0, 68, 100
2, 25439, Note_on_c, 0, 68, 0
2, 25440, Note_on_c, 0, 72, 100
2, 25499, Note_on_c, 0, 72, 0
2, 25500, Note_on_c, 0, 75, 100
2, 25619, Note_on_c, 0, 75, 0
2, 25620, Note_on_c, 0, 75, 100
2, 25799, Note_on_c, 0, 75, 0
2, 25800, Note_on_c, 0, 72, 100
2, 25859, Note_on_c, 0, 72, 0
2, 25860, Note_on_c, 0, 75, 100
2, 26039, Note_on_c, 0, 75, 0
2, 26040, Note_on_c, 0, 70, 100
2, 26099, Note_on_c, 0, 70, 0
2, 26100, Note_on_c, 0, 72, 100
2, 26279, Note_on_c, 0, 72, 0
2, 26280, Note_on_c, 0, 72, 100
2, 26339, Note_on_c, 0, 72, 0
2, 26340, Note_on_c, 0, 73, 100
2, 26519, Note_on_c, 0, 73, 0
2, 26520, Note_on_c, 0, 73, 100
2, 26579, Note_on_c, 0, 73, 0
2, 26580, Note_on_c, 0, 73, 100
2, 26759, Note_on_c, 0, 73, 0
2, 26760, Note_on_c, 0, 72, 100
2, 26819, Note_on_c, 0, 72, 0
2, 26820, Note_on_c, 0, 72, 100
2, 26939, Note_on_c, 0, 72, 0
2, 26940, Note_on_c, 0, 72, 100
2, 27059, Note_on_c, 0, 72, 0
2, 27060, Note_on_c, 0, 72, 100
2, 27089, Note_on_c, 0, 72, 0
2, 27090, Note_on_c, 0, 70, 100
2, 27119, Note_on_c, 0, 70, 0
2, 27120, Note_on_c, 0, 68, 100
2, 27239, Note_on_c, 0, 68, 0
2, 27420, Note_on_c, 0, 72, 100
2, 27479, Note_on_c, 0, 72, 0
2, 27480, Note_on_c, 0, 72, 100
2, 27539, Note_on_c, 0, 72, 0
2, 27540, Note_on_c, 0, 75, 100
2, 27599, Note_on_c, 0, 75, 0
2, 27600, Note_on_c, 0, 75, 100
2, 27719, Note_on_c, 0, 75, 0
2, 27720, Note_on_c, 0, 72, 100
2, 27779, Note_on_c, 0, 72, 0
2, 27780, Note_on_c, 0, 75, 100
2, 27899, Note_on_c, 0, 75, 0
2, 27900, Note_on_c, 0, 70, 100
2, 28019, Note_on_c, 0, 70, 0
2, 28020, Note_on_c, 0, 72, 100
2, 28049, Note_on_c, 0, 72, 0
2, 28050, Note_on_c, 0, 70, 100
2, 28079, Note_on_c, 0, 70, 0
2, 28080, Note_on_c, 0, 68, 100
2, 28199, Note_on_c, 0, 68, 0
2, 28200, Note_on_c, 0, 68, 100
2, 28259, Note_on_c, 0, 68, 0
2, 28260, Note_on_c, 0, 68, 100
2, 28319, Note_on_c, 0, 68, 0
2, 28320, Note_on_c, 0, 73, 100
2, 28379, Note_on_c, 0, 73, 0
2, 28380, Note_on_c, 0, 73, 100
2, 28439, Note_on_c, 0, 73, 0
2, 28440, Note_on_c, 0, 73, 100
2, 28499, Note_on_c, 0, 73, 0
2, 28500, Note_on_c, 0, 73, 100
2, 28559, Note_on_c, 0, 73, 0
2, 28560, Note_on_c, 0, 72, 100
2, 28619, Note_on_c, 0, 72, 0
2, 28620, Note_on_c, 0, 72, 100
2, 28679, Note_on_c, 0, 72, 0
2, 28680, Note_on_c, 0, 70, 100
2, 28739, Note_on_c, 0, 70, 0
2, 28740, Note_on_c, 0, 70, 100
2, 28859, Note_on_c, 0, 70, 0
2, 28860, Note_on_c, 0, 70, 100
2, 28979, Note_on_c, 0, 70, 0
2, 28980, Note_on_c, 0, 72, 100
2, 29039, Note_on_c, 0, 72, 0
2, 29040, Note_on_c, 0, 70, 100
2, 29159, Note_on_c, 0, 70, 0
2, 29400, Note_on_c, 0, 75, 100
2, 29459, Note_on_c, 0, 75, 0
2, 29460, Note_on_c, 0, 75, 100
2, 29519, Note_on_c, 0, 75, 0
2, 29520, Note_on_c, 0, 75, 100
2, 29639, Note_on_c, 0, 75, 0
2, 29640, Note_on_c, 0, 72, 100
2, 29699, Note_on_c, 0, 72, 0
2, 29700, Note_on_c, 0, 75, 100
2, 29819, Note_on_c, 0, 75, 0
2, 29820, Note_on_c, 0, 70, 100
2, 29939, Note_on_c, 0, 70, 0
2, 29940, Note_on_c, 0, 72, 100
2, 30119, Note_on_c, 0, 72, 0
2, 30120, Note_on_c, 0, 72, 100
2, 30179, Note_on_c, 0, 72, 0
2, 30180, Note_on_c, 0, 72, 100
2, 30239, Note_on_c, 0, 72, 0
2, 30300, Note_on_c, 0, 72, 100
2, 30359, Note_on_c, 0, 72, 0
2, 30360, Note_on_c, 0, 73, 100
2, 30419, Note_on_c, 0, 73, 0
2, 30420, Note_on_c, 0, 73, 100
2, 30599, Note_on_c, 0, 73, 0
2, 30600, Note_on_c, 0, 72, 100
2, 30779, Note_on_c, 0, 72, 0
2, 30780, Note_on_c, 0, 70, 100
2, 30839, Note_on_c, 0, 70, 0
2, 30840, Note_on_c, 0, 68, 100
2, 30899, Note_on_c, 0, 68, 0
2, 30900, Note_on_c, 0, 68, 100
2, 31019, Note_on_c, 0, 68, 0
2, 31140, Note_on_c, 0, 68, 100
2, 31199, Note_on_c, 0, 68, 0
2, 31200, Note_on_c, 0, 72, 100
2, 31259, Note_on_c, 0, 72, 0
2, 31260, Note_on_c, 0, 75, 100
2, 31379, Note_on_c, 0, 75, 0
2, 31380, Note_on_c, 0, 75, 100
2, 31439, Note_on_c, 0, 75, 0
2, 31440, Note_on_c, 0, 75, 100
2, 31499, Note_on_c, 0, 75, 0
2, 31500, Note_on_c, 0, 75, 100
2, 31619, Note_on_c, 0, 75, 0
2, 31620, Note_on_c, 0, 75, 100
2, 31799, Note_on_c, 0, 75, 0
2, 31800, Note_on_c, 0, 70, 100
2, 31859, Note_on_c, 0, 70, 0
2, 31860, Note_on_c, 0, 72, 100
2, 32039, Note_on_c, 0, 72, 0
2, 32100, Note_on_c, 0, 68, 100
2, 32159, Note_on_c, 0, 68, 0
2, 32160, Note_on_c, 0, 72, 100
2, 32219, Note_on_c, 0, 72, 0
2, 32220, Note_on_c, 0, 68, 100
2, 32339, Note_on_c, 0, 68, 0
2, 32340, Note_on_c, 0, 68, 100
2, 32519, Note_on_c, 0, 68, 0
2, 32520, Note_on_c, 0, 72, 100
2, 32579, Note_on_c, 0, 72, 0
2, 32580, Note_on_c, 0, 70, 100
2, 32759, Note_on_c, 0, 70, 0
2, 33060, Note_on_c, 0, 68, 100
2, 33119, Note_on_c, 0, 68, 0
2, 33120, Note_on_c, 0, 68, 100
2, 33239, Note_on_c, 0, 68, 0
2, 33240, Note_on_c, 0, 68, 100
2, 33299, Note_on_c, 0, 68, 0
2, 33300, Note_on_c, 0, 68, 100
2, 33359, Note_on_c, 0, 68, 0
2, 33360, Note_on_c, 0, 72, 100
2, 33479, Note_on_c, 0, 72, 0
2, 33480, Note_on_c, 0, 75, 100
2, 33599, Note_on_c, 0, 75, 0
2, 33600, Note_on_c, 0, 77, 100
2, 33719, Note_on_c, 0, 77, 0
2, 33720, Note_on_c, 0, 77, 100
2, 33839, Note_on_c, 0, 77, 0
2, 33840, Note_on_c, 0, 77, 100
2, 33959, Note_on_c, 0, 77, 0
2, 34080, Note_on_c, 0, 72, 100
2, 34139, Note_on_c, 0, 72, 0
2, 34140, Note_on_c, 0, 77, 100
2, 34229, Note_on_c, 0, 77, 0
2, 34230, Note_on_c, 0, 75, 100
2, 34319, Note_on_c, 0, 75, 0
2, 34320, Note_on_c, 0, 72, 100
2, 34439, Note_on_c, 0, 72, 0
2, 34440, Note_on_c, 0, 72, 100
2, 34619, Note_on_c, 0, 72, 0
2, 34620, Note_on_c, 0, 70, 100
2, 34799, Note_on_c, 0, 70, 0
2, 35100, Note_on_c, 0, 68, 100
2, 35159, Note_on_c, 0, 68, 0
2, 35160, Note_on_c, 0, 68, 100
2, 35219, Note_on_c, 0, 68, 0
2, 35220, Note_on_c, 0, 68, 100
2, 35279, Note_on_c, 0, 68, 0
2, 35280, Note_on_c, 0, 72, 100
2, 35399, Note_on_c, 0, 72, 0
2, 35400, Note_on_c, 0, 75, 100
2, 35459, Note_on_c, 0, 75, 0
2, 35460, Note_on_c, 0, 77, 100
2, 35639, Note_on_c, 0, 77, 0
2, 35640, Note_on_c, 0, 77, 100
2, 35759, Note_on_c, 0, 77, 0
2, 35760, Note_on_c, 0, 77, 100
2, 35879, Note_on_c, 0, 77, 0
2, 35880, Note_on_c, 0, 75, 100
2, 35939, Note_on_c, 0, 75, 0
2, 35940, Note_on_c, 0, 75, 100
2, 35999, Note_on_c, 0, 75, 0
2, 36000, Note_on_c, 0, 77, 100
2, 36119, Note_on_c, 0, 77, 0
2, 36120, Note_on_c, 0, 75, 100
2, 36239, Note_on_c, 0, 75, 0
2, 36240, Note_on_c, 0, 72, 100
2, 36359, Note_on_c, 0, 72, 0
2, 36360, Note_on_c, 0, 68, 100
2, 36419, Note_on_c, 0, 68, 0
2, 36420, Note_on_c, 0, 72, 100
2, 36539, Note_on_c, 0, 72, 0
2, 36540, Note_on_c, 0, 70, 100
2, 36719, Note_on_c, 0, 70, 0
2, 36840, Note_on_c, 0, 68, 100
2, 36899, Note_on_c, 0, 68, 0
2, 36900, Note_on_c, 0, 70, 100
2, 36959, Note_on_c, 0, 70, 0
2, 36960, Note_on_c, 0, 72, 100
2, 37019, Note_on_c, 0, 72, 0
2, 37020, Note_on_c, 0, 72, 100
2, 37139, Note_on_c, 0, 72, 0
2, 37140, Note_on_c, 0, 72, 100
2, 37259, Note_on_c, 0, 72, 0
2, 37260, Note_on_c, 0, 70, 100
2, 37379, Note_on_c, 0, 70, 0
2, 37380, Note_on_c, 0, 68, 100
2, 37559, Note_on_c, 0, 68, 0
2, 37560, Note_on_c, 0, 68, 100
2, 37619, Note_on_c, 0, 68, 0
2, 37620, Note_on_c, 0, 70, 100
2, 37799, Note_on_c, 0, 70, 0
2, 37860, Note_on_c, 0, 68, 100
2, 37919, Note_on_c, 0, 68, 0
2, 37920, Note_on_c, 0, 72, 100
2, 37979, Note_on_c, 0, 72, 0
2, 37980, Note_on_c, 0, 75, 100
2, 38099, Note_on_c, 0, 75, 0
2, 38100, Note_on_c, 0, 75, 100
2, 38219, Note_on_c, 0, 75, 0
2, 38220, Note_on_c, 0, 75, 100
2, 38339, Note_on_c, 0, 75, 0
2, 38340, Note_on_c, 0, 75, 100
2, 38399, Note_on_c, 0, 75, 0
2, 38400, Note_on_c, 0, 77, 100
2, 38459, Note_on_c, 0, 77, 0
2, 38460, Note_on_c, 0, 75, 100
2, 38519, Note_on_c, 0, 75, 0
2, 38520, Note_on_c, 0, 75, 100
2, 38579, Note_on_c, 0, 75, 0
2, 38580, Note_on_c, 0, 72, 100
2, 38609, Note_on_c, 0, 72, 0
2, 38610, Note_on_c, 0, 70, 100
2, 38639, Note_on_c, 0, 70, 0
2, 38640, Note_on_c, 0, 68, 100
2, 38759, Note_on_c, 0, 68, 0
2, 38880, Note_on_c, 0, 72, 100
2, 38939, Note_on_c, 0, 72, 0
2, 38940, Note_on_c, 0, 75, 100
2, 39059, Note_on_c, 0, 75, 0
2, 39060, Note_on_c, 0, 75, 100
2, 39179, Note_on_c, 0, 75, 0
2, 39180, Note_on_c, 0, 75, 100
2, 39299, Note_on_c, 0, 75, 0
2, 39300, Note_on_c, 0, 77, 100
2, 39419, Note_on_c, 0, 77, 0
2, 39420, Note_on_c, 0, 75, 100
2, 39539, Note_on_c, 0, 75, 0
2, 39540, Note_on_c, 0, 72, 100
2, 39719, Note_on_c, 0, 72, 0
2, 39780, Note_on_c, 0, 63, 100
2, 39839, Note_on_c, 0, 63, 0
2, 39840, Note_on_c, 0, 65, 100
2, 39899, Note_on_c, 0, 65, 0
2, 39900, Note_on_c, 0, 68, 100
2, 39959, Note_on_c, 0, 68, 0
2, 39960, Note_on_c, 0, 68, 100
2, 40019, Note_on_c, 0, 68, 0
2, 40020, Note_on_c, 0, 72, 100
2, 40199, Note_on_c, 0, 72, 0
2, 40800, Note_on_c, 0, 65, 100
2, 40859, Note_on_c, 0, 65, 0
2, 40860, Note_on_c, 0, 68, 100
2, 40919, Note_on_c, 0, 68, 0
2, 40920, Note_on_c, 0, 68, 100
2, 40979, Note_on_c, 0, 68, 0
2, 40980, Note_on_c, 0, 72, 100
2, 41219, Note_on_c, 0, 72, 0
2, 41220, Note_on_c, 0, 73, 100
2, 41249, Note_on_c, 0, 73, 0
2, 41250, Note_on_c, 0, 72, 100
2, 41279, Note_on_c, 0, 72, 0
2, 41280, Note_on_c, 0, 68, 100
2, 41339, Note_on_c, 0, 68, 0
2, 41340, Note_on_c, 0, 70, 100
2, 41639, Note_on_c, 0, 70, 0
2, 41640, Note_on_c, 0, 70, 100
2, 41699, Note_on_c, 0, 70, 0
2, 41700, Note_on_c, 0, 68, 100
2, 41759, Note_on_c, 0, 68, 0
2, 41760, Note_on_c, 0, 70, 100
2, 41819, Note_on_c, 0, 70, 0
2, 41820, Note_on_c, 0, 68, 100
2, 41879, Note_on_c, 0, 68, 0
2, 41880, Note_on_c, 0, 68, 100
2, 41999, Note_on_c, 0, 68, 0
2, 44640, Note_on_c, 0, 72, 100
2, 44699, Note_on_c, 0, 72, 0
2, 44700, Note_on_c, 0, 75, 100
2, 44819, Note_on_c, 0, 75, 0
2, 44820, Note_on_c, 0, 75, 100
2, 44999, Note_on_c, 0, 75, 0
2, 45000, Note_on_c, 0, 72, 100
2, 45059, Note_on_c, 0, 72, 0
2, 45060, Note_on_c, 0, 75, 100
2, 45239, Note_on_c, 0, 75, 0
2, 45240, Note_on_c, 0, 70, 100
2, 45299, Note_on_c, 0, 70, 0
2, 45300, Note_on_c, 0, 72, 100
2, 45479, Note_on_c, 0, 72, 0
2, 45480, Note_on_c, 0, 72, 100
2, 45539, Note_on_c, 0, 72, 0
2, 45540, Note_on_c, 0, 73, 100
2, 45719, Note_on_c, 0, 73, 0
2, 45720, Note_on_c, 0, 73, 100
2, 45779, Note_on_c, 0, 73, 0
2, 45780, Note_on_c, 0, 73, 100
2, 45959, Note_on_c, 0, 73, 0
2, 45960, Note_on_c, 0, 72, 100
2, 46019, Note_on_c, 0, 72, 0
2, 46020, Note_on_c, 0, 72, 100
2, 46139, Note_on_c, 0, 72, 0
2, 46140, Note_on_c, 0, 72, 100
2, 46259, Note_on_c, 0, 72, 0
2, 46260, Note_on_c, 0, 72, 100
2, 46289, Note_on_c, 0, 72, 0
2, 46290, Note_on_c, 0, 70, 100
2, 46319, Note_on_c, 0, 70, 0
2, 46320, Note_on_c, 0, 68, 100
2, 46439, Note_on_c, 0, 68, 0
2, 46680, Note_on_c, 0, 72, 100
2, 46739, Note_on_c, 0, 72, 0
2, 46740, Note_on_c, 0, 75, 100
2, 46799, Note_on_c, 0, 75, 0
2, 46800, Note_on_c, 0, 75, 100
2, 46919, Note_on_c, 0, 75, 0
2, 46920, Note_on_c, 0, 72, 100
2, 46979, Note_on_c, 0, 72, 0
2, 46980, Note_on_c, 0, 75, 100
2, 47099, Note_on_c, 0, 75, 0
2, 47100, Note_on_c, 0, 70, 100
2, 47159, Note_on_c, 0, 70, 0
2, 47160, Note_on_c, 0, 70, 100
2, 47219, Note_on_c, 0, 70, 0
2, 47220, Note_on_c, 0, 72, 100
2, 47249, Note_on_c, 0, 72, 0
2, 47250, Note_on_c, 0, 70, 100
2, 47279, Note_on_c, 0, 70, 0
2, 47280, Note_on_c, 0, 68, 100
2, 47399, Note_on_c, 0, 68, 0
2, 47460, Note_on_c, 0, 68, 100
2, 47519, Note_on_c, 0, 68, 0
2, 47520, Note_on_c, 0, 73, 100
2, 47639, Note_on_c, 0, 73, 0
2, 47640, Note_on_c, 0, 73, 100
2, 47699, Note_on_c, 0, 73, 0
2, 47700, Note_on_c, 0, 73, 100
2, 47819, Note_on_c, 0, 73, 0
2, 47820, Note_on_c, 0, 72, 100
2, 47939, Note_on_c, 0, 72, 0
2, 47940, Note_on_c, 0, 70, 100
2, 48059, Note_on_c, 0, 70, 0
2, 48060, Note_on_c, 0, 70, 100
2, 48179, Note_on_c, 0, 70, 0
2, 48180, Note_on_c, 0, 72, 100
2, 48239, Note_on_c, 0, 72, 0
2, 48240, Note_on_c, 0, 70, 100
2, 48359, Note_on_c, 0, 70, 0
2, 48600, Note_on_c, 0, 75, 100
2, 48659, Note_on_c, 0, 75, 0
2, 48660, Note_on_c, 0, 75, 100
2, 48839, Note_on_c, 0, 75, 0
2, 48840, Note_on_c, 0, 72, 100
2, 48899, Note_on_c, 0, 72, 0
2, 48900, Note_on_c, 0, 75, 100
2, 48959, Note_on_c, 0, 75, 0
2, 48960, Note_on_c, 0, 75, 100
2, 49019, Note_on_c, 0, 75, 0
2, 49020, Note_on_c, 0, 70, 100
2, 49139, Note_on_c, 0, 70, 0
2, 49140, Note_on_c, 0, 72, 100
2, 49319, Note_on_c, 0, 72, 0
2, 49320, Note_on_c, 0, 72, 100
2, 49379, Note_on_c, 0, 72, 0
2, 49380, Note_on_c, 0, 72, 100
2, 49439, Note_on_c, 0, 72, 0
2, 49500, Note_on_c, 0, 72, 100
2, 49559, Note_on_c, 0, 72, 0
2, 49560, Note_on_c, 0, 73, 100
2, 49619, Note_on_c, 0, 73, 0
2, 49620, Note_on_c, 0, 73, 100
2, 49859, Note_on_c, 0, 73, 0
2, 49980, Note_on_c, 0, 70, 100
2, 50039, Note_on_c, 0, 70, 0
2, 50040, Note_on_c, 0, 68, 100
2, 50099, Note_on_c, 0, 68, 0
2, 50100, Note_on_c, 0, 68, 100
2, 50219, Note_on_c, 0, 68, 0
2, 50340, Note_on_c, 0, 68, 100
2, 50399, Note_on_c, 0, 68, 0
2, 50400, Note_on_c, 0, 72, 100
2, 50459, Note_on_c, 0, 72, 0
2, 50460, Note_on_c, 0, 75, 100
2, 50579, Note_on_c, 0, 75, 0
2, 50580, Note_on_c, 0, 75, 100
2, 50699, Note_on_c, 0, 75, 0
2, 50700, Note_on_c, 0, 75, 100
2, 50819, Note_on_c, 0, 75, 0
2, 50820, Note_on_c, 0, 75, 100
2, 50999, Note_on_c, 0, 75, 0
2, 51000, Note_on_c, 0, 70, 100
2, 51059, Note_on_c, 0, 70, 0
2, 51060, Note_on_c, 0, 72, 100
2, 51239, Note_on_c, 0, 72, 0
2, 51300, Note_on_c, 0, 68, 100
2, 51359, Note_on_c, 0, 68, 0
2, 51360, Note_on_c, 0, 72, 100
2, 51419, Note_on_c, 0, 72, 0
2, 51420, Note_on_c, 0, 68, 100
2, 51539, Note_on_c, 0, 68, 0
2, 51540, Note_on_c, 0, 68, 100
2, 51719, Note_on_c, 0, 68, 0
2, 51720, Note_on_c, 0, 72, 100
2, 51779, Note_on_c, 0, 72, 0
2, 51780, Note_on_c, 0, 70, 100
2, 51959, Note_on_c, 0, 70, 0
2, 52200, Note_on_c, 0, 68, 100
2, 52319, Note_on_c, 0, 68, 0
2, 52320, Note_on_c, 0, 72, 100
2, 52379, Note_on_c, 0, 72, 0
2, 52380, Note_on_c, 0, 72, 100
2, 52499, Note_on_c, 0, 72, 0
2, 52500, Note_on_c, 0, 72, 100
2, 52619, Note_on_c, 0, 72, 0
2, 52620, Note_on_c, 0, 70, 100
2, 52739, Note_on_c, 0, 70, 0
2, 52740, Note_on_c, 0, 68, 100
2, 52919, Note_on_c, 0, 68, 0
2, 52920, Note_on_c, 0, 68, 100
2, 52979, Note_on_c, 0, 68, 0
2, 52980, Note_on_c, 0, 70, 100
2, 53159, Note_on_c, 0, 70, 0
2, 53220, Note_on_c, 0, 68, 100
2, 53279, Note_on_c, 0, 68, 0
2, 53280, Note_on_c, 0, 72, 100
2, 53339, Note_on_c, 0, 72, 0
2, 53340, Note_on_c, 0, 75, 100
2, 53459, Note_on_c, 0, 75, 0
2, 53460, Note_on_c, 0, 75, 100
2, 53579, Note_on_c, 0, 75, 0
2, 53580, Note_on_c, 0, 75, 100
2, 53699, Note_on_c, 0, 75, 0
2, 53700, Note_on_c, 0, 75, 100
2, 53759, Note_on_c, 0, 75, 0
2, 53760, Note_on_c, 0, 77, 100
2, 53819, Note_on_c, 0, 77, 0
2, 53820, Note_on_c, 0, 75, 100
2, 53879, Note_on_c, 0, 75, 0
2, 53880, Note_on_c, 0, 75, 100
2, 53939, Note_on_c, 0, 75, 0
2, 53940, Note_on_c, 0, 72, 100
2, 53969, Note_on_c, 0, 72, 0
2, 53970, Note_on_c, 0, 70, 100
2, 53999, Note_on_c, 0, 70, 0
2, 54000, Note_on_c, 0, 68, 100
2, 54119, Note_on_c, 0, 68, 0
2, 54240, Note_on_c, 0, 72, 100
2, 54299, Note_on_c, 0, 72, 0
2, 54300, Note_on_c, 0, 75, 100
2, 54419, Note_on_c, 0, 75, 0
2, 54420, Note_on_c, 0, 75, 100
2, 54539, Note_on_c, 0, 75, 0
2, 54540, Note_on_c, 0, 75, 100
2, 54659, Note_on_c, 0, 75, 0
2, 54660, Note_on_c, 0, 77, 100
2, 54779, Note_on_c, 0, 77, 0
2, 54780, Note_on_c, 0, 75, 100
2, 54899, Note_on_c, 0, 75, 0
2, 54900, Note_on_c, 0, 72, 100
2, 55079, Note_on_c, 0, 72, 0
2, 55140, Note_on_c, 0, 63, 100
2, 55199, Note_on_c, 0, 63, 0
2, 55200, Note_on_c, 0, 65, 100
2, 55259, Note_on_c, 0, 65, 0
2, 55260, Note_on_c, 0, 68, 100
2, 55319, Note_on_c, 0, 68, 0
2, 55320, Note_on_c, 0, 68, 100
2, 55379, Note_on_c, 0, 68, 0
2, 55380, Note_on_c, 0, 72, 100
2, 55559, Note_on_c, 0, 72, 0
2, 56160, Note_on_c, 0, 65, 100
2, 56219, Note_on_c, 0, 65, 0
2, 56220, Note_on_c, 0, 68, 100
2, 56279, Note_on_c, 0, 68, 0
2, 56280, Note_on_c, 0, 68, 100
2, 56339, Note_on_c, 0, 68, 0
2, 56340, Note_on_c, 0, 72, 100
2, 56579, Note_on_c, 0, 72, 0
2, 56580, Note_on_c, 0, 73, 100
2, 56609, Note_on_c, 0, 73, 0
2, 56610, Note_on_c, 0, 72, 100
2, 56639, Note_on_c, 0, 72, 0
2, 56640, Note_on_c, 0, 68, 100
2, 56699, Note_on_c, 0, 68, 0
2, 56700, Note_on_c, 0, 70, 100
2, 56999, Note_on_c, 0, 70, 0
2, 57000, Note_on_c, 0, 70, 100
2, 57059, Note_on_c, 0, 70, 0
2, 57060, Note_on_c, 0, 68, 100
2, 57119, Note_on_c, 0, 68, 0
2, 57120, Note_on_c, 0, 70, 100
2, 57179, Note_on_c, 0, 70, 0
2, 57180, Note_on_c, 0, 68, 100
2, 57239, Note_on_c, 0, 68, 0
2, 57240, Note_on_c, 0, 68, 100
2, 57359, Note_on_c, 0, 68, 0
2, 57359, End_track
3, 0, Start_track
3, 0, MIDI_port, 0
3, 0, Title_t, "Piano"
3, 0, Program_c, 1, 0
3, 0, Control_c, 1, 7, 100
3, 300, Note_on_c, 1, 56, 100
3, 300, Note_on_c, 1, 60, 100
3, 300, Note_on_c, 1, 63, 100
3, 419, Note_on_c, 1, 63, 0
3, 419, Note_on_c, 1, 60, 0
3, 419, Note_on_c, 1, 56, 0
3, 420, Note_on_c, 1, 63, 100
3, 420, Note_on_c, 1, 60, 100
3, 420, Note_on_c, 1, 56, 100
3, 659, Note_on_c, 1, 56, 0
3, 659, Note_on_c, 1, 60, 0
3, 659, Note_on_c, 1, 63, 0
3, 660, Note_on_c, 1, 58, 100
3, 660, Note_on_c, 1, 56, 100
3, 660, Note_on_c, 1, 63, 100
3, 719, Note_on_c, 1, 63, 0
3, 719, Note_on_c, 1, 56, 0
3, 719, Note_on_c, 1, 58, 0
3, 720, Note_on_c, 1, 56, 100
3, 720, Note_on_c, 1, 58, 100
3, 720, Note_on_c, 1, 63, 100
3, 899, Note_on_c, 1, 63, 0
3, 899, Note_on_c, 1, 58, 0
3, 899, Note_on_c, 1, 56, 0
3, 900, Note_on_c, 1, 56, 100
3, 900, Note_on_c, 1, 60, 100
3, 900, Note_on_c, 1, 63, 100
3, 959, Note_on_c, 1, 63, 0
3, 959, Note_on_c, 1, 60, 0
3, 959, Note_on_c, 1, 56, 0
3, 960, Note_on_c, 1, 63, 100
3, 960, Note_on_c, 1, 60, 100
3, 960, Note_on_c, 1, 56, 100
3, 1139, Note_on_c, 1, 56, 0
3, 1139, Note_on_c, 1, 60, 0
3, 1139, Note_on_c, 1, 63, 0
3, 1140, Note_on_c, 1, 56, 100
3, 1140, Note_on_c, 1, 58, 100
3, 1140, Note_on_c, 1, 63, 100
3, 1199, Note_on_c, 1, 63, 0
3, 1199, Note_on_c, 1, 58, 0
3, 1199, Note_on_c, 1, 56, 0
3, 1200, Note_on_c, 1, 56, 100
3, 1200, Note_on_c, 1, 58, 100
3, 1200, Note_on_c, 1, 63, 100
3, 1379, Note_on_c, 1, 63, 0
3, 1379, Note_on_c, 1, 58, 0
3, 1379, Note_on_c, 1, 56, 0
3, 1380, Note_on_c, 1, 56, 100
3, 1380, Note_on_c, 1, 61, 100
3, 1380, Note_on_c, 1, 63, 100
3, 1439, Note_on_c, 1, 63, 0
3, 1439, Note_on_c, 1, 61, 0
3, 1439, Note_on_c, 1, 56, 0
3, 1440, Note_on_c, 1, 56, 100
3, 1440, Note_on_c, 1, 61, 100
3, 1440, Note_on_c, 1, 63, 100
3, 1619, Note_on_c, 1, 63, 0
3, 1619, Note_on_c, 1, 61, 0
3, 1619, Note_on_c, 1, 56, 0
3, 1620, Note_on_c, 1, 56, 100
3, 1620, Note_on_c, 1, 60, 100
3, 1620, Note_on_c, 1, 63, 100
3, 1679, Note_on_c, 1, 63, 0
3, 1679, Note_on_c, 1, 60, 0
3, 1679, Note_on_c, 1, 56, 0
3, 1680, Note_on_c, 1, 63, 100
3, 1680, Note_on_c, 1, 60, 100
3, 1680, Note_on_c, 1, 56, 100
3, 1859, Note_on_c, 1, 56, 0
3, 1859, Note_on_c, 1, 60, 0
3, 1859, Note_on_c, 1, 63, 0
3, 1860, Note_on_c, 1, 58, 100
3, 1860, Note_on_c, 1, 55, 100
3, 1860, Note_on_c, 1, 63, 100
3, 1919, Note_on_c, 1, 63, 0
3, 1919, Note_on_c, 1, 55, 0
3, 1919, Note_on_c, 1, 58, 0
3, 1920, Note_on_c, 1, 55, 100
3, 1920, Note_on_c, 1, 58, 100
3, 1920, Note_on_c, 1, 63, 100
3, 2099, Note_on_c, 1, 63, 0
3, 2099, Note_on_c, 1, 58, 0
3, 2099, Note_on_c, 1, 55, 0
3, 2100, Note_on_c, 1, 56, 100
3, 2100, Note_on_c, 1, 53, 100
3, 2100, Note_on_c, 1, 63, 100
3, 2159, Note_on_c, 1, 63, 0
3, 2159, Note_on_c, 1, 53, 0
3, 2159, Note_on_c, 1, 56, 0
3, 2160, Note_on_c, 1, 63, 100
3, 2160, Note_on_c, 1, 56, 100
3, 2160, Note_on_c, 1, 53, 100
3, 2339, Note_on_c, 1, 53, 0
3, 2339, Note_on_c, 1, 56, 0
3, 2339, Note_on_c, 1, 63, 0
3, 2340, Note_on_c, 1, 51, 100
3, 2340, Note_on_c, 1, 55, 100
3, 2340, Note_on_c, 1, 58, 100
3, 2340, Note_on_c, 1, 63, 100
3, 2399, Note_on_c, 1, 63, 0
3, 2399, Note_on_c, 1, 51, 0
3, 2399, Note_on_c, 1, 55, 0
3, 2399, Note_on_c, 1, 58, 0
3, 2400, Note_on_c, 1, 51, 100
3, 2400, Note_on_c, 1, 55, 100
3, 2400, Note_on_c, 1, 58, 100
3, 2400, Note_on_c, 1, 63, 100
3, 2579, Note_on_c, 1, 63, 0
3, 2579, Note_on_c, 1, 51, 0
3, 2579, Note_on_c, 1, 55, 0
3, 2579, Note_on_c, 1, 58, 0
3, 2580, Note_on_c, 1, 53, 100
3, 2580, Note_on_c, 1, 56, 100
3, 2580, Note_on_c, 1, 61, 100
3, 2580, Note_on_c, 1, 63, 100
3, 2639, Note_on_c, 1, 63, 0
3, 2639, Note_on_c, 1, 53, 0
3, 2639, Note_on_c, 1, 56, 0
3, 2639, Note_on_c, 1, 61, 0
3, 2640, Note_on_c, 1, 53, 100
3, 2640, Note_on_c, 1, 56, 100
3, 2640, Note_on_c, 1, 61, 100
3, 2640, Note_on_c, 1, 63, 100
3, 2999, Note_on_c, 1, 63, 0
3, 2999, Note_on_c, 1, 53, 0
3, 2999, Note_on_c, 1, 56, 0
3, 2999, Note_on_c, 1, 61, 0
3, 3000, Note_on_c, 1, 58, 100
3, 3029, Note_on_c, 1, 58, 0
3, 3030, Note_on_c, 1, 60, 100
3, 3059, Note_on_c, 1, 60, 0
3, 3060, Note_on_c, 1, 63, 100
3, 3119, Note_on_c, 1, 63, 0
3, 3120, Note_on_c, 1, 58, 100
3, 3120, Note_on_c, 1, 63, 100
3, 3149, Note_on_c, 1, 58, 0
3, 3150, Note_on_c, 1, 60, 100
3, 3179, Note_on_c, 1, 60, 0
3, 3179, Note_on_c, 1, 63, 0
3, 3180, Note_on_c, 1, 63, 100
3, 3180, Note_on_c, 1, 56, 100
3, 3239, Note_on_c, 1, 56, 0
3, 3239, Note_on_c, 1, 63, 0
3, 3240, Note_on_c, 1, 56, 100
3, 3240, Note_on_c, 1, 63, 100
3, 3299, Note_on_c, 1, 63, 0
3, 3299, Note_on_c, 1, 56, 0
3, 3300, Note_on_c, 1, 56, 100
3, 3300, Note_on_c, 1, 60, 100
3, 3300, Note_on_c, 1, 63, 100
3, 3359, Note_on_c, 1, 63, 0
3, 3359, Note_on_c, 1, 60, 0
3, 3359, Note_on_c, 1, 56, 0
3, 3360, Note_on_c, 1, 56, 100
3, 3360, Note_on_c, 1, 60, 100
3, 3360, Note_on_c, 1, 63, 100
3, 3539, Note_on_c, 1, 63, 0
3, 3539, Note_on_c, 1, 60, 0
3, 3539, Note_on_c, 1, 56, 0
3, 3540, Note_on_c, 1, 58, 100
3, 3540, Note_on_c, 1, 56, 100
3, 3540, Note_on_c, 1, 63, 100
3, 3599, Note_on_c, 1, 63, 0
3, 3599, Note_on_c, 1, 56, 0
3, 3599, Note_on_c, 1, 58, 0
3, 3600, Note_on_c, 1, 56, 100
3, 3600, Note_on_c, 1, 58, 100
3, 3600, Note_on_c, 1, 63, 100
3, 3779, Note_on_c, 1, 63, 0
3, 3779, Note_on_c, 1, 58, 0
3, 3779, Note_on_c, 1, 56, 0
3, 3780, Note_on_c, 1, 56, 100
3, 3780, Note_on_c, 1, 60, 100
3, 3780, Note_on_c, 1, 63, 100
3, 3839, Note_on_c, 1, 63, 0
3, 3839, Note_on_c, 1, 60, 0
3, 3839, Note_on_c, 1, 56, 0
3, 3840, Note_on_c, 1, 63, 100
3, 3840, Note_on_c, 1, 60, 100
3, 3840, Note_on_c, 1, 56, 100
3, 4019, Note_on_c, 1, 56, 0
3, 4019, Note_on_c, 1, 60, 0
3, 4019, Note_on_c, 1, 63, 0
3, 4020, Note_on_c, 1, 56, 100
3, 4020, Note_on_c, 1, 58, 100
3, 4020, Note_on_c, 1, 63, 100
3, 4079, Note_on_c, 1, 63, 0
3, 4079, Note_on_c, 1, 58, 0
3, 4079, Note_on_c, 1, 56, 0
3, 4080, Note_on_c, 1, 56, 100
3, 4080, Note_on_c, 1, 58, 100
3, 4080, Note_on_c, 1, 63, 100
3, 4259, Note_on_c, 1, 63, 0
3, 4259, Note_on_c, 1, 58, 0
3, 4259, Note_on_c, 1, 56, 0
3, 4260, Note_on_c, 1, 56, 100
3, 4260, Note_on_c, 1, 61, 100
3, 4260, Note_on_c, 1, 63, 100
3, 4319, Note_on_c, 1, 63, 0
3, 4319, Note_on_c, 1, 61, 0
3, 4319, Note_on_c, 1, 56, 0
3, 4320, Note_on_c, 1, 56, 100
3, 4320, Note_on_c, 1, 61, 100
3, 4320, Note_on_c, 1, 63, 100
3, 4499, Note_on_c, 1, 63, 0
3, 4499, Note_on_c, 1, 61, 0
3, 4499, Note_on_c, 1, 56, 0
3, 4500, Note_on_c, 1, 56, 100
3, 4500, Note_on_c, 1, 60, 100
3, 4500, Note_on_c, 1, 63, 100
3, 4559, Note_on_c, 1, 63, 0
3, 4559, Note_on_c, 1, 60, 0
3, 4559, Note_on_c, 1, 56, 0
3, 4560, Note_on_c, 1, 63, 100
3, 4560, Note_on_c, 1, 60, 100
3, 4560, Note_on_c, 1, 56, 100
3, 4739, Note_on_c, 1, 56, 0
3, 4739, Note_on_c, 1, 60, 0
3, 4739, Note_on_c, 1, 63, 0
3, 4740, Note_on_c, 1, 58, 100
3, 4740, Note_on_c, 1, 55, 100
3, 4740, Note_on_c, 1, 63, 100
3, 4799, Note_on_c, 1, 63, 0
3, 4799, Note_on_c, 1, 55, 0
3, 4799, Note_on_c, 1, 58, 0
3, 4800, Note_on_c, 1, 55, 100
3, 4800, Note_on_c, 1, 58, 100
3, 4800, Note_on_c, 1, 63, 100
3, 4979, Note_on_c, 1, 63, 0
3, 4979, Note_on_c, 1, 58, 0
3, 4979, Note_on_c, 1, 55, 0
3, 4980, Note_on_c, 1, 56, 100
3, 4980, Note_on_c, 1, 53, 100
3, 4980, Note_on_c, 1, 63, 100
3, 5039, Note_on_c, 1, 63, 0
3, 5039, Note_on_c, 1, 53, 0
3, 5039, Note_on_c, 1, 56, 0
3, 5040, Note_on_c, 1, 63, 100
3, 5040, Note_on_c, 1, 56, 100
3, 5040, Note_on_c, 1, 53, 100
3, 5219, Note_on_c, 1, 53, 0
3, 5219, Note_on_c, 1, 56, 0
3, 5219, Note_on_c, 1, 63, 0
3, 5220, Note_on_c, 1, 51, 100
3, 5220, Note_on_c, 1, 55, 100
3, 5220, Note_on_c, 1, 58, 100
3, 5220, Note_on_c, 1, 63, 100
3, 5279, Note_on_c, 1, 63, 0
3, 5279, Note_on_c, 1, 51, 0
3, 5279, Note_on_c, 1, 55, 0
3, 5279, Note_on_c, 1, 58, 0
3, 5280, Note_on_c, 1, 51, 100
3, 5280, Note_on_c, 1, 55, 100
3, 5280, Note_on_c, 1, 58, 100
3, 5280, Note_on_c, 1, 63, 100
3, 5459, Note_on_c, 1, 63, 0
3, 5459, Note_on_c, 1, 51, 0
3, 5459, Note_on_c, 1, 55, 0
3, 5459, Note_on_c, 1, 58, 0
3, 5460, Note_on_c, 1, 53, 100
3, 5460, Note_on_c, 1, 56, 100
3, 5460, Note_on_c, 1, 61, 100
3, 5460, Note_on_c, 1, 63, 100
3, 5519, Note_on_c, 1, 63, 0
3, 5519, Note_on_c, 1, 53, 0
3, 5519, Note_on_c, 1, 56, 0
3, 5519, Note_on_c, 1, 61, 0
3, 5520, Note_on_c, 1, 53, 100
3, 5520, Note_on_c, 1, 56, 100
3, 5520, Note_on_c, 1, 61, 100
3, 5520, Note_on_c, 1, 63, 100
3, 5999, Note_on_c, 1, 63, 0
3, 5999, Note_on_c, 1, 53, 0
3, 5999, Note_on_c, 1, 56, 0
3, 5999, Note_on_c, 1, 61, 0
3, 6000, Note_on_c, 1, 63, 100
3, 6019, Note_on_c, 1, 63, 0
3, 6020, Note_on_c, 1, 60, 100
3, 6039, Note_on_c, 1, 60, 0
3, 6040, Note_on_c, 1, 58, 100
3, 6059, Note_on_c, 1, 58, 0
3, 6060, Note_on_c, 1, 56, 100
3, 6119, Note_on_c, 1, 56, 0
3, 6120, Note_on_c, 1, 58, 100
3, 6179, Note_on_c, 1, 58, 0
3, 6180, Note_on_c, 1, 56, 100
3, 6239, Note_on_c, 1, 56, 0
3, 7920, Note_on_c, 1, 56, 100
3, 7920, Note_on_c, 1, 61, 100
3, 7950, Note_on_c, 1, 61, 0
3, 7950, Note_on_c, 1, 63, 100
3, 7980, Note_on_c, 1, 63, 0
3, 7980, Note_on_c, 1, 56, 0
3, 7980, Note_on_c, 1, 68, 100
3, 8040, Note_on_c, 1, 68, 0
3, 8040, Note_on_c, 1, 61, 100
3, 8070, Note_on_c, 1, 61, 0
3, 8070, Note_on_c, 1, 60, 100
3, 8100, Note_on_c, 1, 60, 0
3, 8100, Note_on_c, 1, 56, 100
3, 8280, Note_on_c, 1, 56, 0
3, 13920, Note_on_c, 1, 68, 75
3, 13920, Note_on_c, 1, 63, 75
3, 13920, Note_on_c, 1, 60, 75
3, 14159, Note_on_c, 1, 60, 0
3, 14159, Note_on_c, 1, 63, 0
3, 14159, Note_on_c, 1, 68, 0
3, 14160, Note_on_c, 1, 67, 75
3, 14160, Note_on_c, 1, 63, 75
3, 14160, Note_on_c, 1, 58, 75
3, 14399, Note_on_c, 1, 58, 0
3, 14399, Note_on_c, 1, 63, 0
3, 14399, Note_on_c, 1, 67, 0
3, 14400, Note_on_c, 1, 56, 75
3, 14400, Note_on_c, 1, 65, 75
3, 14400, Note_on_c, 1, 61, 75
3, 14639, Note_on_c, 1, 61, 0
3, 14639, Note_on_c, 1, 65, 0
3, 14639, Note_on_c, 1, 56, 0
3, 14640, Note_on_c, 1, 61, 75
3, 14640, Note_on_c, 1, 65, 75
3, 14640, Note_on_c, 1, 56, 75
3, 14879, Note_on_c, 1, 56, 0
3, 14879, Note_on_c, 1, 65, 0
3, 14879, Note_on_c, 1, 61, 0
3, 14880, Note_on_c, 1, 60, 75
3, 14880, Note_on_c, 1, 68, 75
3, 14880, Note_on_c, 1, 63, 75
3, 15119, Note_on_c, 1, 63, 0
3, 15119, Note_on_c, 1, 68, 0
3, 15119, Note_on_c, 1, 60, 0
3, 15120, Note_on_c, 1, 61, 75
3, 15120, Note_on_c, 1, 65, 75
3, 15120, Note_on_c, 1, 56, 75
3, 15359, Note_on_c, 1, 56, 0
3, 15359, Note_on_c, 1, 65, 0
3, 15359, Note_on_c, 1, 61, 0
3, 15360, Note_on_c, 1, 58, 75
3, 15360, Note_on_c, 1, 55, 75
3, 15360, Note_on_c, 1, 63, 75
3, 15539, Note_on_c, 1, 63, 0
3, 15539, Note_on_c, 1, 55, 0
3, 15539, Note_on_c, 1, 58, 0
3, 15540, Note_on_c, 1, 67, 100
3, 15540, Note_on_c, 1, 58, 100
3, 15659, Note_on_c, 1, 58, 0
3, 15659, Note_on_c, 1, 67, 0
3, 15660, Note_on_c, 1, 65, 100
3, 15660, Note_on_c, 1, 56, 100
3, 15719, Note_on_c, 1, 56, 0
3, 15719, Note_on_c, 1, 65, 0
3, 15720, Note_on_c, 1, 67, 100
3, 15720, Note_on_c, 1, 58, 100
3, 15779, Note_on_c, 1, 58, 0
3, 15779, Note_on_c, 1, 67, 0
3, 15780, Note_on_c, 1, 67, 100
3, 15780, Note_on_c, 1, 58, 100
3, 15839, Note_on_c, 1, 58, 0
3, 15839, Note_on_c, 1, 67, 0
3, 15840, Note_on_c, 1, 68, 100
3, 15840, Note_on_c, 1, 63, 100
3, 15840, Note_on_c, 1, 60, 100
3, 16079, Note_on_c, 1, 60, 0
3, 16079, Note_on_c, 1, 63, 0
3, 16079, Note_on_c, 1, 68, 0
3, 16080, Note_on_c, 1, 67, 75
3, 16080, Note_on_c, 1, 63, 75
3, 16080, Note_on_c, 1, 58, 75
3, 16319, Note_on_c, 1, 58, 0
3, 16319, Note_on_c, 1, 63, 0
3, 16319, Note_on_c, 1, 67, 0
3, 16320, Note_on_c, 1, 56, 75
3, 16320, Note_on_c, 1, 65, 75
3, 16320, Note_on_c, 1, 61, 75
3, 16559, Note_on_c, 1, 61, 0
3, 16559, Note_on_c, 1, 65, 0
3, 16559, Note_on_c, 1, 56, 0
3, 16560, Note_on_c, 1, 61, 75
3, 16560, Note_on_c, 1, 65, 75
3, 16560, Note_on_c, 1, 56, 75
3, 16799, Note_on_c, 1, 56, 0
3, 16799, Note_on_c, 1, 65, 0
3, 16799, Note_on_c, 1, 61, 0
3, 16800, Note_on_c, 1, 60, 75
3, 16800, Note_on_c, 1, 68, 75
3, 16800, Note_on_c, 1, 63, 75
3, 17039, Note_on_c, 1, 63, 0
3, 17039, Note_on_c, 1, 68, 0
3, 17039, Note_on_c, 1, 60, 0
3, 17040, Note_on_c, 1, 61, 75
3, 17040, Note_on_c, 1, 65, 75
3, 17040, Note_on_c, 1, 56, 75
3, 17279, Note_on_c, 1, 56, 0
3, 17279, Note_on_c, 1, 65, 0
3, 17279, Note_on_c, 1, 61, 0
3, 17280, Note_on_c, 1, 58, 75
3, 17280, Note_on_c, 1, 55, 75
3, 17280, Note_on_c, 1, 63, 75
3, 17759, Note_on_c, 1, 63, 0
3, 17759, Note_on_c, 1, 55, 0
3, 17759, Note_on_c, 1, 58, 0
3, 17760, Note_on_c, 1, 60, 75
3, 17760, Note_on_c, 1, 56, 75
3, 17760, Note_on_c, 1, 51, 75
3, 17939, Note_on_c, 1, 51, 0
3, 17939, Note_on_c, 1, 56, 0
3, 17939, Note_on_c, 1, 60, 0
3, 17940, Note_on_c, 1, 51, 75
3, 17940, Note_on_c, 1, 55, 75
3, 17940, Note_on_c, 1, 60, 75
3, 18179, Note_on_c, 1, 60, 0
3, 18179, Note_on_c, 1, 55, 0
3, 18179, Note_on_c, 1, 51, 0
3, 18180, Note_on_c, 1, 56, 75
3, 18180, Note_on_c, 1, 53, 75
3, 18180, Note_on_c, 1, 51, 75
3, 18359, Note_on_c, 1, 51, 0
3, 18359, Note_on_c, 1, 53, 0
3, 18359, Note_on_c, 1, 56, 0
3, 18360, Note_on_c, 1, 56, 75
3, 18419, Note_on_c, 1, 56, 0
3, 18420, Note_on_c, 1, 58, 75
3, 18420, Note_on_c, 1, 53, 75
3, 18420, Note_on_c, 1, 51, 75
3, 18719, Note_on_c, 1, 51, 0
3, 18719, Note_on_c, 1, 53, 0
3, 18719, Note_on_c, 1, 58, 0
3, 18720, Note_on_c, 1, 63, 75
3, 18720, Note_on_c, 1, 56, 75
3, 18720, Note_on_c, 1, 60, 75
3, 18899, Note_on_c, 1, 60, 0
3, 18899, Note_on_c, 1, 56, 0
3, 18899, Note_on_c, 1, 63, 0
3, 18900, Note_on_c, 1, 55, 75
3, 18900, Note_on_c, 1, 58, 75
3, 18900, Note_on_c, 1, 63, 75
3, 19199, Note_on_c, 1, 63, 0
3, 19199, Note_on_c, 1, 58, 0
3, 19199, Note_on_c, 1, 55, 0
3, 19200, Note_on_c, 1, 56, 75
3, 19200, Note_on_c, 1, 61, 75
3, 19200, Note_on_c, 1, 65, 75
3, 19439, Note_on_c, 1, 65, 0
3, 19439, Note_on_c, 1, 61, 0
3, 19439, Note_on_c, 1, 56, 0
3, 19440, Note_on_c, 1, 56, 75
3, 19440, Note_on_c, 1, 53, 75
3, 19559, Note_on_c, 1, 53, 0
3, 19559, Note_on_c, 1, 56, 0
3, 19560, Note_on_c, 1, 56, 75
3, 19560, Note_on_c, 1, 53, 75
3, 19560, Note_on_c, 1, 63, 75
3, 19679, Note_on_c, 1, 63, 0
3, 19679, Note_on_c, 1, 53, 0
3, 19679, Note_on_c, 1, 56, 0
3, 19680, Note_on_c, 1, 60, 75
3, 19680, Note_on_c, 1, 56, 75
3, 19680, Note_on_c, 1, 51, 75
3, 19859, Note_on_c, 1, 51, 0
3, 19859, Note_on_c, 1, 56, 0
3, 19859, Note_on_c, 1, 60, 0
3, 19860, Note_on_c, 1, 51, 75
3, 19860, Note_on_c, 1, 55, 75
3, 19860, Note_on_c, 1, 60, 75
3, 20099, Note_on_c, 1, 60, 0
3, 20099, Note_on_c, 1, 55, 0
3, 20099, Note_on_c, 1, 51, 0
3, 20100, Note_on_c, 1, 56, 75
3, 20100, Note_on_c, 1, 53, 75
3, 20100, Note_on_c, 1, 51, 75
3, 20279, Note_on_c, 1, 51, 0
3, 20279, Note_on_c, 1, 53, 0
3, 20279, Note_on_c, 1, 56, 0
3, 20280, Note_on_c, 1, 56, 75
3, 20339, Note_on_c, 1, 56, 0
3, 20340, Note_on_c, 1, 58, 75
3, 20340, Note_on_c, 1, 53, 75
3, 20340, Note_on_c, 1, 51, 75
3, 20639, Note_on_c, 1, 51, 0
3, 20639, Note_on_c, 1, 53, 0
3, 20639, Note_on_c, 1, 58, 0
3, 20640, Note_on_c, 1, 63, 75
3, 20640, Note_on_c, 1, 56, 75
3, 20640, Note_on_c, 1, 60, 75
3, 20819, Note_on_c, 1, 60, 0
3, 20819, Note_on_c, 1, 56, 0
3, 20819, Note_on_c, 1, 63, 0
3, 20820, Note_on_c, 1, 55, 75
3, 20820, Note_on_c, 1, 58, 75
3, 20820, Note_on_c, 1, 63, 75
3, 21119, Note_on_c, 1, 63, 0
3, 21119, Note_on_c, 1, 58, 0
3, 21119, Note_on_c, 1, 55, 0
3, 21120, Note_on_c, 1, 56, 75
3, 21120, Note_on_c, 1, 61, 75
3, 21120, Note_on_c, 1, 65, 75
3, 21299, Note_on_c, 1, 65, 0
3, 21299, Note_on_c, 1, 61, 0
3, 21299, Note_on_c, 1, 56, 0
3, 21300, Note_on_c, 1, 65, 75
3, 21300, Note_on_c, 1, 56, 75
3, 21300, Note_on_c, 1, 61, 75
3, 21479, Note_on_c, 1, 61, 0
3, 21479, Note_on_c, 1, 56, 0
3, 21479, Note_on_c, 1, 65, 0
3, 21480, Note_on_c, 1, 61, 75
3, 21480, Note_on_c, 1, 65, 75
3, 21480, Note_on_c, 1, 56, 75
3, 21599, Note_on_c, 1, 56, 0
3, 21599, Note_on_c, 1, 65, 0
3, 21599, Note_on_c, 1, 61, 0
3, 21600, Note_on_c, 1, 65, 75
3, 21600, Note_on_c, 1, 56, 75
3, 21600, Note_on_c, 1, 60, 75
3, 21779, Note_on_c, 1, 60, 0
3, 21779, Note_on_c, 1, 56, 0
3, 21779, Note_on_c, 1, 65, 0
3, 21780, Note_on_c, 1, 65, 75
3, 21780, Note_on_c, 1, 60, 75
3, 21780, Note_on_c, 1, 56, 75
3, 22079, Note_on_c, 1, 56, 0
3, 22079, Note_on_c, 1, 60, 0
3, 22079, Note_on_c, 1, 65, 0
3, 22080, Note_on_c, 1, 55, 75
3, 22080, Note_on_c, 1, 58, 75
3, 22080, Note_on_c, 1, 63, 75
3, 22259, Note_on_c, 1, 63, 0
3, 22259, Note_on_c, 1, 58, 0
3, 22259, Note_on_c, 1, 55, 0
3, 22260, Note_on_c, 1, 55, 75
3, 22260, Note_on_c, 1, 58, 75
3, 22260, Note_on_c, 1, 63, 75
3, 22439, Note_on_c, 1, 63, 0
3, 22439, Note_on_c, 1, 58, 0
3, 22439, Note_on_c, 1, 55, 0
3, 22440, Note_on_c, 1, 55, 75
3, 22440, Note_on_c, 1, 58, 75
3, 22440, Note_on_c, 1, 63, 75
3, 22559, Note_on_c, 1, 63, 0
3, 22559, Note_on_c, 1, 58, 0
3, 22559, Note_on_c, 1, 55, 0
3, 22560, Note_on_c, 1, 56, 75
3, 22560, Note_on_c, 1, 60, 75
3, 22560, Note_on_c, 1, 63, 75
3, 22739, Note_on_c, 1, 63, 0
3, 22739, Note_on_c, 1, 60, 0
3, 22739, Note_on_c, 1, 56, 0
3, 22740, Note_on_c, 1, 58, 100
3, 22740, Note_on_c, 1, 56, 100
3, 22740, Note_on_c, 1, 63, 100
3, 22799, Note_on_c, 1, 63, 0
3, 22799, Note_on_c, 1, 56, 0
3, 22799, Note_on_c, 1, 58, 0
3, 22800, Note_on_c, 1, 56, 100
3, 22800, Note_on_c, 1, 58, 100
3, 22800, Note_on_c, 1, 63, 100
3, 22979, Note_on_c, 1, 63, 0
3, 22979, Note_on_c, 1, 58, 0
3, 22979, Note_on_c, 1, 56, 0
3, 22980, Note_on_c, 1, 56, 100
3, 22980, Note_on_c, 1, 60, 100
3, 22980, Note_on_c, 1, 63, 100
3, 23039, Note_on_c, 1, 63, 0
3, 23039, Note_on_c, 1, 60, 0
3, 23039, Note_on_c, 1, 56, 0
3, 23040, Note_on_c, 1, 63, 100
3, 23040, Note_on_c, 1, 60, 100
3, 23040, Note_on_c, 1, 56, 100
3, 23219, Note_on_c, 1, 56, 0
3, 23219, Note_on_c, 1, 60, 0
3, 23219, Note_on_c, 1, 63, 0
3, 23220, Note_on_c, 1, 56, 100
3, 23220, Note_on_c, 1, 58, 100
3, 23220, Note_on_c, 1, 63, 100
3, 23279, Note_on_c, 1, 63, 0
3, 23279, Note_on_c, 1, 58, 0
3, 23279, Note_on_c, 1, 56, 0
3, 23280, Note_on_c, 1, 56, 100
3, 23280, Note_on_c, 1, 58, 100
3, 23280, Note_on_c, 1, 63, 100
3, 23459, Note_on_c, 1, 63, 0
3, 23459, Note_on_c, 1, 58, 0
3, 23459, Note_on_c, 1, 56, 0
3, 23460, Note_on_c, 1, 56, 100
3, 23460, Note_on_c, 1, 61, 100
3, 23460, Note_on_c, 1, 63, 100
3, 23519, Note_on_c, 1, 63, 0
3, 23519, Note_on_c, 1, 61, 0
3, 23519, Note_on_c, 1, 56, 0
3, 23520, Note_on_c, 1, 56, 100
3, 23520, Note_on_c, 1, 61, 100
3, 23520, Note_on_c, 1, 63, 100
3, 23699, Note_on_c, 1, 63, 0
3, 23699, Note_on_c, 1, 61, 0
3, 23699, Note_on_c, 1, 56, 0
3, 23700, Note_on_c, 1, 56, 100
3, 23700, Note_on_c, 1, 60, 100
3, 23700, Note_on_c, 1, 63, 100
3, 23759, Note_on_c, 1, 63, 0
3, 23759, Note_on_c, 1, 60, 0
3, 23759, Note_on_c, 1, 56, 0
3, 23760, Note_on_c, 1, 63, 100
3, 23760, Note_on_c, 1, 60, 100
3, 23760, Note_on_c, 1, 56, 100
3, 23939, Note_on_c, 1, 56, 0
3, 23939, Note_on_c, 1, 60, 0
3, 23939, Note_on_c, 1, 63, 0
3, 23940, Note_on_c, 1, 58, 100
3, 23940, Note_on_c, 1, 55, 100
3, 23940, Note_on_c, 1, 63, 100
3, 23999, Note_on_c, 1, 63, 0
3, 23999, Note_on_c, 1, 55, 0
3, 23999, Note_on_c, 1, 58, 0
3, 24000, Note_on_c, 1, 55, 100
3, 24000, Note_on_c, 1, 58, 100
3, 24000, Note_on_c, 1, 63, 100
3, 24179, Note_on_c, 1, 63, 0
3, 24179, Note_on_c, 1, 58, 0
3, 24179, Note_on_c, 1, 55, 0
3, 24180, Note_on_c, 1, 56, 100
3, 24180, Note_on_c, 1, 53, 100
3, 24180, Note_on_c, 1, 63, 100
3, 24239, Note_on_c, 1, 63, 0
3, 24239, Note_on_c, 1, 53, 0
3, 24239, Note_on_c, 1, 56, 0
3, 24240, Note_on_c, 1, 63, 100
3, 24240, Note_on_c, 1, 56, 100
3, 24240, Note_on_c, 1, 53, 100
3, 24419, Note_on_c, 1, 53, 0
3, 24419, Note_on_c, 1, 56, 0
3, 24419, Note_on_c, 1, 63, 0
3, 24420, Note_on_c, 1, 51, 100
3, 24420, Note_on_c, 1, 55, 100
3, 24420, Note_on_c, 1, 58, 100
3, 24420, Note_on_c, 1, 63, 100
3, 24479, Note_on_c, 1, 63, 0
3, 24479, Note_on_c, 1, 51, 0
3, 24479, Note_on_c, 1, 55, 0
3, 24479, Note_on_c, 1, 58, 0
3, 24480, Note_on_c, 1, 51, 100
3, 24480, Note_on_c, 1, 55, 100
3, 24480, Note_on_c, 1, 58, 100
3, 24480, Note_on_c, 1, 63, 100
3, 24659, Note_on_c, 1, 63, 0
3, 24659, Note_on_c, 1, 51, 0
3, 24659, Note_on_c, 1, 55, 0
3, 24659, Note_on_c, 1, 58, 0
3, 24660, Note_on_c, 1, 53, 100
3, 24660, Note_on_c, 1, 56, 100
3, 24660, Note_on_c, 1, 61, 100
3, 24660, Note_on_c, 1, 63, 100
3, 24719, Note_on_c, 1, 63, 0
3, 24719, Note_on_c, 1, 53, 0
3, 24719, Note_on_c, 1, 56, 0
3, 24719, Note_on_c, 1, 61, 0
3, 24720, Note_on_c, 1, 53, 100
3, 24720, Note_on_c, 1, 56, 100
3, 24720, Note_on_c, 1, 61, 100
3, 24720, Note_on_c, 1, 63, 100
3, 25439, Note_on_c, 1, 63, 0
3, 25439, Note_on_c, 1, 53, 0
3, 25439, Note_on_c, 1, 56, 0
3, 25439, Note_on_c, 1, 61, 0
3, 27120, Note_on_c, 1, 56, 100
3, 27120, Note_on_c, 1, 61, 100
3, 27150, Note_on_c, 1, 61, 0
3, 27150, Note_on_c, 1, 63, 100
3, 27180, Note_on_c, 1, 63, 0
3, 27180, Note_on_c, 1, 56, 0
3, 27180, Note_on_c, 1, 68, 100
3, 27240, Note_on_c, 1, 68, 0
3, 27240, Note_on_c, 1, 61, 100
3, 27270, Note_on_c, 1, 61, 0
3, 27270, Note_on_c, 1, 60, 100
3, 27300, Note_on_c, 1, 60, 0
3, 27300, Note_on_c, 1, 56, 100
3, 27480, Note_on_c, 1, 56, 0
3, 33120, Note_on_c, 1, 68, 75
3, 33120, Note_on_c, 1, 63, 75
3, 33120, Note_on_c, 1, 60, 75
3, 33359, Note_on_c, 1, 60, 0
3, 33359, Note_on_c, 1, 63, 0
3, 33359, Note_on_c, 1, 68, 0
3, 33360, Note_on_c, 1, 67, 75
3, 33360, Note_on_c, 1, 63, 75
3, 33360, Note_on_c, 1, 58, 75
3, 33599, Note_on_c, 1, 58, 0
3, 33599, Note_on_c, 1, 63, 0
3, 33599, Note_on_c, 1, 67, 0
3, 33600, Note_on_c, 1, 56, 75
3, 33600, Note_on_c, 1, 65, 75
3, 33600, Note_on_c, 1, 61, 75
3, 33839, Note_on_c, 1, 61, 0
3, 33839, Note_on_c, 1, 65, 0
3, 33839, Note_on_c, 1, 56, 0
3, 33840, Note_on_c, 1, 61, 75
3, 33840, Note_on_c, 1, 65, 75
3, 33840, Note_on_c, 1, 56, 75
3, 34079, Note_on_c, 1, 56, 0
3, 34079, Note_on_c, 1, 65, 0
3, 34079, Note_on_c, 1, 61, 0
3, 34080, Note_on_c, 1, 60, 75
3, 34080, Note_on_c, 1, 68, 75
3, 34080, Note_on_c, 1, 63, 75
3, 34319, Note_on_c, 1, 63, 0
3, 34319, Note_on_c, 1, 68, 0
3, 34319, Note_on_c, 1, 60, 0
3, 34320, Note_on_c, 1, 61, 75
3, 34320, Note_on_c, 1, 65, 75
3, 34320, Note_on_c, 1, 56, 75
3, 34559, Note_on_c, 1, 56, 0
3, 34559, Note_on_c, 1, 65, 0
3, 34559, Note_on_c, 1, 61, 0
3, 34560, Note_on_c, 1, 58, 75
3, 34560, Note_on_c, 1, 55, 75
3, 34560, Note_on_c, 1, 63, 75
3, 34739, Note_on_c, 1, 63, 0
3, 34739, Note_on_c, 1, 55, 0
3, 34739, Note_on_c, 1, 58, 0
3, 34740, Note_on_c, 1, 67, 100
3, 34740, Note_on_c, 1, 58, 100
3, 34859, Note_on_c, 1, 58, 0
3, 34859, Note_on_c, 1, 67, 0
3, 34860, Note_on_c, 1, 65, 100
3, 34860, Note_on_c, 1, 56, 100
3, 34919, Note_on_c, 1, 56, 0
3, 34919, Note_on_c, 1, 65, 0
3, 34920, Note_on_c, 1, 67, 100
3, 34920, Note_on_c, 1, 58, 100
3, 34979, Note_on_c, 1, 58, 0
3, 34979, Note_on_c, 1, 67, 0
3, 34980, Note_on_c, 1, 67, 100
3, 34980, Note_on_c, 1, 58, 100
3, 35039, Note_on_c, 1, 58, 0
3, 35039, Note_on_c, 1, 67, 0
3, 35040, Note_on_c, 1, 68, 100
3, 35040, Note_on_c, 1, 63, 100
3, 35040, Note_on_c, 1, 60, 100
3, 35279, Note_on_c, 1, 60, 0
3, 35279, Note_on_c, 1, 63, 0
3, 35279, Note_on_c, 1, 68, 0
3, 35280, Note_on_c, 1, 67, 75
3, 35280, Note_on_c, 1, 63, 75
3, 35280, Note_on_c, 1, 58, 75
3, 35519, Note_on_c, 1, 58, 0
3, 35519, Note_on_c, 1, 63, 0
3, 35519, Note_on_c, 1, 67, 0
3, 35520, Note_on_c, 1, 56, 75
3, 35520, Note_on_c, 1, 65, 75
3, 35520, Note_on_c, 1, 61, 75
3, 35759, Note_on_c, 1, 61, 0
3, 35759, Note_on_c, 1, 65, 0
3, 35759, Note_on_c, 1, 56, 0
3, 35760, Note_on_c, 1, 61, 75
3, 35760, Note_on_c, 1, 65, 75
3, 35760, Note_on_c, 1, 56, 75
3, 35999, Note_on_c, 1, 56, 0
3, 35999, Note_on_c, 1, 65, 0
3, 35999, Note_on_c, 1, 61, 0
3, 36000, Note_on_c, 1, 60, 75
3, 36000, Note_on_c, 1, 68, 75
3, 36000, Note_on_c, 1, 63, 75
3, 36239, Note_on_c, 1, 63, 0
3, 36239, Note_on_c, 1, 68, 0
3, 36239, Note_on_c, 1, 60, 0
3, 36240, Note_on_c, 1, 61, 75
3, 36240, Note_on_c, 1, 65, 75
3, 36240, Note_on_c, 1, 56, 75
3, 36479, Note_on_c, 1, 56, 0
3, 36479, Note_on_c, 1, 65, 0
3, 36479, Note_on_c, 1, 61, 0
3, 36480, Note_on_c, 1, 58, 75
3, 36480, Note_on_c, 1, 55, 75
3, 36480, Note_on_c, 1, 63, 75
3, 36959, Note_on_c, 1, 63, 0
3, 36959, Note_on_c, 1, 55, 0
3, 36959, Note_on_c, 1, 58, 0
3, 36960, Note_on_c, 1, 60, 75
3, 36960, Note_on_c, 1, 56, 75
3, 36960, Note_on_c, 1, 51, 75
3, 37139, Note_on_c, 1, 51, 0
3, 37139, Note_on_c, 1, 56, 0
3, 37139, Note_on_c, 1, 60, 0
3, 37140, Note_on_c, 1, 51, 75
3, 37140, Note_on_c, 1, 55, 75
3, 37140, Note_on_c, 1, 60, 75
3, 37379, Note_on_c, 1, 60, 0
3, 37379, Note_on_c, 1, 55, 0
3, 37379, Note_on_c, 1, 51, 0
3, 37380, Note_on_c, 1, 56, 75
3, 37380, Note_on_c, 1, 53, 75
3, 37380, Note_on_c, 1, 51, 75
3, 37559, Note_on_c, 1, 51, 0
3, 37559, Note_on_c, 1, 53, 0
3, 37559, Note_on_c, 1, 56, 0
3, 37560, Note_on_c, 1, 56, 75
3, 37619, Note_on_c, 1, 56, 0
3, 37620, Note_on_c, 1, 58, 75
3, 37620, Note_on_c, 1, 53, 75
3, 37620, Note_on_c, 1, 51, 75
3, 37919, Note_on_c, 1, 51, 0
3, 37919, Note_on_c, 1, 53, 0
3, 37919, Note_on_c, 1, 58, 0
3, 37920, Note_on_c, 1, 63, 75
3, 37920, Note_on_c, 1, 56, 75
3, 37920, Note_on_c, 1, 60, 75
3, 38099, Note_on_c, 1, 60, 0
3, 38099, Note_on_c, 1, 56, 0
3, 38099, Note_on_c, 1, 63, 0
3, 38100, Note_on_c, 1, 55, 75
3, 38100, Note_on_c, 1, 58, 75
3, 38100, Note_on_c, 1, 63, 75
3, 38399, Note_on_c, 1, 63, 0
3, 38399, Note_on_c, 1, 58, 0
3, 38399, Note_on_c, 1, 55, 0
3, 38400, Note_on_c, 1, 56, 75
3, 38400, Note_on_c, 1, 61, 75
3, 38400, Note_on_c, 1, 65, 75
3, 38639, Note_on_c, 1, 65, 0
3, 38639, Note_on_c, 1, 61, 0
3, 38639, Note_on_c, 1, 56, 0
3, 38640, Note_on_c, 1, 56, 75
3, 38640, Note_on_c, 1, 53, 75
3, 38759, Note_on_c, 1, 53, 0
3, 38759, Note_on_c, 1, 56, 0
3, 38760, Note_on_c, 1, 56, 75
3, 38760, Note_on_c, 1, 53, 75
3, 38760, Note_on_c, 1, 63, 75
3, 38879, Note_on_c, 1, 63, 0
3, 38879, Note_on_c, 1, 53, 0
3, 38879, Note_on_c, 1, 56, 0
3, 38880, Note_on_c, 1, 60, 75
3, 38880, Note_on_c, 1, 56, 75
3, 38880, Note_on_c, 1, 51, 75
3, 39059, Note_on_c, 1, 51, 0
3, 39059, Note_on_c, 1, 56, 0
3, 39059, Note_on_c, 1, 60, 0
3, 39060, Note_on_c, 1, 51, 75
3, 39060, Note_on_c, 1, 55, 75
3, 39060, Note_on_c, 1, 60, 75
3, 39299, Note_on_c, 1, 60, 0
3, 39299, Note_on_c, 1, 55, 0
3, 39299, Note_on_c, 1, 51, 0
3, 39300, Note_on_c, 1, 56, 75
3, 39300, Note_on_c, 1, 53, 75
3, 39300, Note_on_c, 1, 51, 75
3, 39479, Note_on_c, 1, 51, 0
3, 39479, Note_on_c, 1, 53, 0
3, 39479, Note_on_c, 1, 56, 0
3, 39480, Note_on_c, 1, 56, 75
3, 39539, Note_on_c, 1, 56, 0
3, 39540, Note_on_c, 1, 58, 75
3, 39540, Note_on_c, 1, 53, 75
3, 39540, Note_on_c, 1, 51, 75
3, 39839, Note_on_c, 1, 51, 0
3, 39839, Note_on_c, 1, 53, 0
3, 39839, Note_on_c, 1, 58, 0
3, 39840, Note_on_c, 1, 63, 75
3, 39840, Note_on_c, 1, 56, 75
3, 39840, Note_on_c, 1, 60, 75
3, 40019, Note_on_c, 1, 60, 0
3, 40019, Note_on_c, 1, 56, 0
3, 40019, Note_on_c, 1, 63, 0
3, 40020, Note_on_c, 1, 55, 75
3, 40020, Note_on_c, 1, 58, 75
3, 40020, Note_on_c, 1, 63, 75
3, 40319, Note_on_c, 1, 63, 0
3, 40319, Note_on_c, 1, 58, 0
3, 40319, Note_on_c, 1, 55, 0
3, 40320, Note_on_c, 1, 56, 75
3, 40320, Note_on_c, 1, 61, 75
3, 40320, Note_on_c, 1, 65, 75
3, 40499, Note_on_c, 1, 65, 0
3, 40499, Note_on_c, 1, 61, 0
3, 40499, Note_on_c, 1, 56, 0
3, 40500, Note_on_c, 1, 65, 75
3, 40500, Note_on_c, 1, 56, 75
3, 40500, Note_on_c, 1, 61, 75
3, 40679, Note_on_c, 1, 61, 0
3, 40679, Note_on_c, 1, 56, 0
3, 40679, Note_on_c, 1, 65, 0
3, 40680, Note_on_c, 1, 61, 75
3, 40680, Note_on_c, 1, 65, 75
3, 40680, Note_on_c, 1, 56, 75
3, 40799, Note_on_c, 1, 56, 0
3, 40799, Note_on_c, 1, 65, 0
3, 40799, Note_on_c, 1, 61, 0
3, 40800, Note_on_c, 1, 65, 75
3, 40800, Note_on_c, 1, 56, 75
3, 40800, Note_on_c, 1, 60, 75
3, 40979, Note_on_c, 1, 60, 0
3, 40979, Note_on_c, 1, 56, 0
3, 40979, Note_on_c, 1, 65, 0
3, 40980, Note_on_c, 1, 65, 75
3, 40980, Note_on_c, 1, 60, 75
3, 40980, Note_on_c, 1, 56, 75
3, 41279, Note_on_c, 1, 56, 0
3, 41279, Note_on_c, 1, 60, 0
3, 41279, Note_on_c, 1, 65, 0
3, 41280, Note_on_c, 1, 55, 75
3, 41280, Note_on_c, 1, 58, 75
3, 41280, Note_on_c, 1, 63, 75
3, 41459, Note_on_c, 1, 63, 0
3, 41459, Note_on_c, 1, 58, 0
3, 41459, Note_on_c, 1, 55, 0
3, 41460, Note_on_c, 1, 55, 75
3, 41460, Note_on_c, 1, 58, 75
3, 41460, Note_on_c, 1, 63, 75
3, 41639, Note_on_c, 1, 63, 0
3, 41639, Note_on_c, 1, 58, 0
3, 41639, Note_on_c, 1, 55, 0
3, 41640, Note_on_c, 1, 55, 75
3, 41640, Note_on_c, 1, 58, 75
3, 41640, Note_on_c, 1, 63, 75
3, 41759, Note_on_c, 1, 63, 0
3, 41759, Note_on_c, 1, 58, 0
3, 41759, Note_on_c, 1, 55, 0
3, 41760, Note_on_c, 1, 56, 75
3, 41760, Note_on_c, 1, 60, 75
3, 41760, Note_on_c, 1, 63, 75
3, 41939, Note_on_c, 1, 63, 0
3, 41939, Note_on_c, 1, 60, 0
3, 41939, Note_on_c, 1, 56, 0
3, 41940, Note_on_c, 1, 58, 100
3, 41940, Note_on_c, 1, 56, 100
3, 41940, Note_on_c, 1, 63, 100
3, 41999, Note_on_c, 1, 63, 0
3, 41999, Note_on_c, 1, 56, 0
3, 41999, Note_on_c, 1, 58, 0
3, 42000, Note_on_c, 1, 56, 100
3, 42000, Note_on_c, 1, 58, 100
3, 42000, Note_on_c, 1, 63, 100
3, 42179, Note_on_c, 1, 63, 0
3, 42179, Note_on_c, 1, 58, 0
3, 42179, Note_on_c, 1, 56, 0
3, 42180, Note_on_c, 1, 56, 100
3, 42180, Note_on_c, 1, 60, 100
3, 42180, Note_on_c, 1, 63, 100
3, 42239, Note_on_c, 1, 63, 0
3, 42239, Note_on_c, 1, 60, 0
3, 42239, Note_on_c, 1, 56, 0
3, 42240, Note_on_c, 1, 63, 100
3, 42240, Note_on_c, 1, 60, 100
3, 42240, Note_on_c, 1, 56, 100
3, 42419, Note_on_c, 1, 56, 0
3, 42419, Note_on_c, 1, 60, 0
3, 42419, Note_on_c, 1, 63, 0
3, 42420, Note_on_c, 1, 56, 100
3, 42420, Note_on_c, 1, 58, 100
3, 42420, Note_on_c, 1, 63, 100
3, 42479, Note_on_c, 1, 63, 0
3, 42479, Note_on_c, 1, 58, 0
3, 42479, Note_on_c, 1, 56, 0
3, 42480, Note_on_c, 1, 56, 100
3, 42480, Note_on_c, 1, 58, 100
3, 42480, Note_on_c, 1, 63, 100
3, 42659, Note_on_c, 1, 63, 0
3, 42659, Note_on_c, 1, 58, 0
3, 42659, Note_on_c, 1, 56, 0
3, 42660, Note_on_c, 1, 56, 100
3, 42660, Note_on_c, 1, 61, 100
3, 42660, Note_on_c, 1, 63, 100
3, 42719, Note_on_c, 1, 63, 0
3, 42719, Note_on_c, 1, 61, 0
3, 42719, Note_on_c, 1, 56, 0
3, 42720, Note_on_c, 1, 56, 100
3, 42720, Note_on_c, 1, 61, 100
3, 42720, Note_on_c, 1, 63, 100
3, 42899, Note_on_c, 1, 63, 0
3, 42899, Note_on_c, 1, 61, 0
3, 42899, Note_on_c, 1, 56, 0
3, 42900, Note_on_c, 1, 56, 100
3, 42900, Note_on_c, 1, 60, 100
3, 42900, Note_on_c, 1, 63, 100
3, 42959, Note_on_c, 1, 63, 0
3, 42959, Note_on_c, 1, 60, 0
3, 42959, Note_on_c, 1, 56, 0
3, 42960, Note_on_c, 1, 63, 100
3, 42960, Note_on_c, 1, 60, 100
3, 42960, Note_on_c, 1, 56, 100
3, 43139, Note_on_c, 1, 56, 0
3, 43139, Note_on_c, 1, 60, 0
3, 43139, Note_on_c, 1, 63, 0
3, 43140, Note_on_c, 1, 58, 100
3, 43140, Note_on_c, 1, 55, 100
3, 43140, Note_on_c, 1, 63, 100
3, 43199, Note_on_c, 1, 63, 0
3, 43199, Note_on_c, 1, 55, 0
3, 43199, Note_on_c, 1, 58, 0
3, 43200, Note_on_c, 1, 55, 100
3, 43200, Note_on_c, 1, 58, 100
3, 43200, Note_on_c, 1, 63, 100
3, 43379, Note_on_c, 1, 63, 0
3, 43379, Note_on_c, 1, 58, 0
3, 43379, Note_on_c, 1, 55, 0
3, 43380, Note_on_c, 1, 56, 100
3, 43380, Note_on_c, 1, 53, 100
3, 43380, Note_on_c, 1, 63, 100
3, 43439, Note_on_c, 1, 63, 0
3, 43439, Note_on_c, 1, 53, 0
3, 43439, Note_on_c, 1, 56, 0
3, 43440, Note_on_c, 1, 63, 100
3, 43440, Note_on_c, 1, 56, 100
3, 43440, Note_on_c, 1, 53, 100
3, 43619, Note_on_c, 1, 53, 0
3, 43619, Note_on_c, 1, 56, 0
3, 43619, Note_on_c, 1, 63, 0
3, 43620, Note_on_c, 1, 51, 100
3, 43620, Note_on_c, 1, 55, 100
3, 43620, Note_on_c, 1, 58, 100
3, 43620, Note_on_c, 1, 63, 100
3, 43679, Note_on_c, 1, 63, 0
3, 43679, Note_on_c, 1, 51, 0
3, 43679, Note_on_c, 1, 55, 0
3, 43679, Note_on_c, 1, 58, 0
3, 43680, Note_on_c, 1, 51, 100
3, 43680, Note_on_c, 1, 55, 100
3, 43680, Note_on_c, 1, 58, 100
3, 43680, Note_on_c, 1, 63, 100
3, 43859, Note_on_c, 1, 63, 0
3, 43859, Note_on_c, 1, 51, 0
3, 43859, Note_on_c, 1, 55, 0
3, 43859, Note_on_c, 1, 58, 0
3, 43860, Note_on_c, 1, 53, 100
3, 43860, Note_on_c, 1, 56, 100
3, 43860, Note_on_c, 1, 61, 100
3, 43860, Note_on_c, 1, 63, 100
3, 43919, Note_on_c, 1, 63, 0
3, 43919, Note_on_c, 1, 53, 0
3, 43919, Note_on_c, 1, 56, 0
3, 43919, Note_on_c, 1, 61, 0
3, 43920, Note_on_c, 1, 53, 100
3, 43920, Note_on_c, 1, 56, 100
3, 43920, Note_on_c, 1, 61, 100
3, 43920, Note_on_c, 1, 63, 100
3, 44639, Note_on_c, 1, 63, 0
3, 44639, Note_on_c, 1, 53, 0
3, 44639, Note_on_c, 1, 56, 0
3, 44639, Note_on_c, 1, 61, 0
3, 46320, Note_on_c, 1, 56, 100
3, 46320, Note_on_c, 1, 61, 100
3, 46350, Note_on_c, 1, 61, 0
3, 46350, Note_on_c, 1, 63, 100
3, 46380, Note_on_c, 1, 63, 0
3, 46380, Note_on_c, 1, 56, 0
3, 46380, Note_on_c, 1, 68, 100
3, 46440, Note_on_c, 1, 68, 0
3, 46440, Note_on_c, 1, 61, 100
3, 46470, Note_on_c, 1, 61, 0
3, 46470, Note_on_c, 1, 60, 100
3, 46500, Note_on_c, 1, 60, 0
3, 46500, Note_on_c, 1, 56, 100
3, 46680, Note_on_c, 1, 56, 0
3, 52320, Note_on_c, 1, 60, 75
3, 52320, Note_on_c, 1, 56, 75
3, 52320, Note_on_c, 1, 51, 75
3, 52499, Note_on_c, 1, 51, 0
3, 52499, Note_on_c, 1, 56, 0
3, 52499, Note_on_c, 1, 60, 0
3, 52500, Note_on_c, 1, 51, 75
3, 52500, Note_on_c, 1, 55, 75
3, 52500, Note_on_c, 1, 60, 75
3, 52739, Note_on_c, 1, 60, 0
3, 52739, Note_on_c, 1, 55, 0
3, 52739, Note_on_c, 1, 51, 0
3, 52740, Note_on_c, 1, 56, 75
3, 52740, Note_on_c, 1, 53, 75
3, 52740, Note_on_c, 1, 51, 75
3, 52919, Note_on_c, 1, 51, 0
3, 52919, Note_on_c, 1, 53, 0
3, 52919, Note_on_c, 1, 56, 0
3, 52920, Note_on_c, 1, 56, 75
3, 52979, Note_on_c, 1, 56, 0
3, 52980, Note_on_c, 1, 58, 75
3, 52980, Note_on_c, 1, 53, 75
3, 52980, Note_on_c, 1, 51, 75
3, 53279, Note_on_c, 1, 51, 0
3, 53279, Note_on_c, 1, 53, 0
3, 53279, Note_on_c, 1, 58, 0
3, 53280, Note_on_c, 1, 63, 75
3, 53280, Note_on_c, 1, 56, 75
3, 53280, Note_on_c, 1, 60, 75
3, 53459, Note_on_c, 1, 60, 0
3, 53459, Note_on_c, 1, 56, 0
3, 53459, Note_on_c, 1, 63, 0
3, 53460, Note_on_c, 1, 55, 75
3, 53460, Note_on_c, 1, 58, 75
3, 53460, Note_on_c, 1, 63, 75
3, 53759, Note_on_c, 1, 63, 0
3, 53759, Note_on_c, 1, 58, 0
3, 53759, Note_on_c, 1, 55, 0
3, 53760, Note_on_c, 1, 56, 75
3, 53760, Note_on_c, 1, 61, 75
3, 53760, Note_on_c, 1, 65, 75
3, 53999, Note_on_c, 1, 65, 0
3, 53999, Note_on_c, 1, 61, 0
3, 53999, Note_on_c, 1, 56, 0
3, 54000, Note_on_c, 1, 56, 75
3, 54000, Note_on_c, 1, 53, 75
3, 54119, Note_on_c, 1, 53, 0
3, 54119, Note_on_c, 1, 56, 0
3, 54120, Note_on_c, 1, 56, 75
3, 54120, Note_on_c, 1, 53, 75
3, 54120, Note_on_c, 1, 63, 75
3, 54239, Note_on_c, 1, 63, 0
3, 54239, Note_on_c, 1, 53, 0
3, 54239, Note_on_c, 1, 56, 0
3, 54240, Note_on_c, 1, 60, 75
3, 54240, Note_on_c, 1, 56, 75
3, 54240, Note_on_c, 1, 51, 75
3, 54419, Note_on_c, 1, 51, 0
3, 54419, Note_on_c, 1, 56, 0
3, 54419, Note_on_c, 1, 60, 0
3, 54420, Note_on_c, 1, 51, 75
3, 54420, Note_on_c, 1, 55, 75
3, 54420, Note_on_c, 1, 60, 75
3, 54659, Note_on_c, 1, 60, 0
3, 54659, Note_on_c, 1, 55, 0
3, 54659, Note_on_c, 1, 51, 0
3, 54660, Note_on_c, 1, 56, 75
3, 54660, Note_on_c, 1, 53, 75
3, 54660, Note_on_c, 1, 51, 75
3, 54839, Note_on_c, 1, 51, 0
3, 54839, Note_on_c, 1, 53, 0
3, 54839, Note_on_c, 1, 56, 0
3, 54840, Note_on_c, 1, 56, 75
3, 54899, Note_on_c, 1, 56, 0
3, 54900, Note_on_c, 1, 58, 75
3, 54900, Note_on_c, 1, 53, 75
3, 54900, Note_on_c, 1, 51, 75
3, 55199, Note_on_c, 1, 51, 0
3, 55199, Note_on_c, 1, 53, 0
3, 55199, Note_on_c, 1, 58, 0
3, 55200, Note_on_c, 1, 63, 75
3, 55200, Note_on_c, 1, 56, 75
3, 55200, Note_on_c, 1, 60, 75
3, 55379, Note_on_c, 1, 60, 0
3, 55379, Note_on_c, 1, 56, 0
3, 55379, Note_on_c, 1, 63, 0
3, 55380, Note_on_c, 1, 55, 75
3, 55380, Note_on_c, 1, 58, 75
3, 55380, Note_on_c, 1, 63, 75
3, 55679, Note_on_c, 1, 63, 0
3, 55679, Note_on_c, 1, 58, 0
3, 55679, Note_on_c, 1, 55, 0
3, 55680, Note_on_c, 1, 56, 75
3, 55680, Note_on_c, 1, 61, 75
3, 55680, Note_on_c, 1, 65, 75
3, 55859, Note_on_c, 1, 65, 0
3, 55859, Note_on_c, 1, 61, 0
3, 55859, Note_on_c, 1, 56, 0
3, 55860, Note_on_c, 1, 65, 75
3, 55860, Note_on_c, 1, 56, 75
3, 55860, Note_on_c, 1, 61, 75
3, 56039, Note_on_c, 1, 61, 0
3, 56039, Note_on_c, 1, 56, 0
3, 56039, Note_on_c, 1, 65, 0
3, 56040, Note_on_c, 1, 61, 75
3, 56040, Note_on_c, 1, 65, 75
3, 56040, Note_on_c, 1, 56, 75
3, 56159, Note_on_c, 1, 56, 0
3, 56159, Note_on_c, 1, 65, 0
3, 56159, Note_on_c, 1, 61, 0
3, 56160, Note_on_c, 1, 65, 75
3, 56160, Note_on_c, 1, 56, 75
3, 56160, Note_on_c, 1, 60, 75
3, 56339, Note_on_c, 1, 60, 0
3, 56339, Note_on_c, 1, 56, 0
3, 56339, Note_on_c, 1, 65, 0
3, 56340, Note_on_c, 1, 65, 75
3, 56340, Note_on_c, 1, 60, 75
3, 56340, Note_on_c, 1, 56, 75
3, 56639, Note_on_c, 1, 56, 0
3, 56639, Note_on_c, 1, 60, 0
3, 56639, Note_on_c, 1, 65, 0
3, 56640, Note_on_c, 1, 55, 75
3, 56640, Note_on_c, 1, 58, 75
3, 56640, Note_on_c, 1, 63, 75
3, 56819, Note_on_c, 1, 63, 0
3, 56819, Note_on_c, 1, 58, 0
3, 56819, Note_on_c, 1, 55, 0
3, 56820, Note_on_c, 1, 55, 75
3, 56820, Note_on_c, 1, 58, 75
3, 56820, Note_on_c, 1, 63, 75
3, 56999, Note_on_c, 1, 63, 0
3, 56999, Note_on_c, 1, 58, 0
3, 56999, Note_on_c, 1, 55, 0
3, 57000, Note_on_c, 1, 55, 75
3, 57000, Note_on_c, 1, 58, 75
3, 57000, Note_on_c, 1, 63, 75
3, 57119, Note_on_c, 1, 63, 0
3, 57119, Note_on_c, 1, 58, 0
3, 57119, Note_on_c, 1, 55, 0
3, 57120, Note_on_c, 1, 56, 75
3, 57120, Note_on_c, 1, 60, 75
3, 57120, Note_on_c, 1, 63, 75
3, 57299, Note_on_c, 1, 63, 0
3, 57299, Note_on_c, 1, 60, 0
3, 57299, Note_on_c, 1, 56, 0
3, 57300, Note_on_c, 1, 58, 100
3, 57300, Note_on_c, 1, 56, 100
3, 57300, Note_on_c, 1, 63, 100
3, 57359, Note_on_c, 1, 63, 0
3, 57359, Note_on_c, 1, 56, 0
3, 57359, Note_on_c, 1, 58, 0
3, 57360, Note_on_c, 1, 56, 100
3, 57360, Note_on_c, 1, 58, 100
3, 57360, Note_on_c, 1, 63, 100
3, 57539, Note_on_c, 1, 63, 0
3, 57539, Note_on_c, 1, 58, 0
3, 57539, Note_on_c, 1, 56, 0
3, 57540, Note_on_c, 1, 56, 100
3, 57540, Note_on_c, 1, 60, 100
3, 57540, Note_on_c, 1, 63, 100
3, 57599, Note_on_c, 1, 63, 0
3, 57599, Note_on_c, 1, 60, 0
3, 57599, Note_on_c, 1, 56, 0
3, 57600, Note_on_c, 1, 63, 100
3, 57600, Note_on_c, 1, 60, 100
3, 57600, Note_on_c, 1, 56, 100
3, 57779, Note_on_c, 1, 56, 0
3, 57779, Note_on_c, 1, 60, 0
3, 57779, Note_on_c, 1, 63, 0
3, 57780, Note_on_c, 1, 56, 100
3, 57780, Note_on_c, 1, 58, 100
3, 57780, Note_on_c, 1, 63, 100
3, 57839, Note_on_c, 1, 63, 0
3, 57839, Note_on_c, 1, 58, 0
3, 57839, Note_on_c, 1, 56, 0
3, 57840, Note_on_c, 1, 56, 100
3, 57840, Note_on_c, 1, 58, 100
3, 57840, Note_on_c, 1, 63, 100
3, 58019, Note_on_c, 1, 63, 0
3, 58019, Note_on_c, 1, 58, 0
3, 58019, Note_on_c, 1, 56, 0
3, 58020, Note_on_c, 1, 56, 100
3, 58020, Note_on_c, 1, 61, 100
3, 58020, Note_on_c, 1, 63, 100
3, 58079, Note_on_c, 1, 63, 0
3, 58079, Note_on_c, 1, 61, 0
3, 58079, Note_on_c, 1, 56, 0
3, 58080, Note_on_c, 1, 56, 100
3, 58080, Note_on_c, 1, 61, 100
3, 58080, Note_on_c, 1, 63, 100
3, 58259, Note_on_c, 1, 63, 0
3, 58259, Note_on_c, 1, 61, 0
3, 58259, Note_on_c, 1, 56, 0
3, 58260, Note_on_c, 1, 56, 100
3, 58260, Note_on_c, 1, 60, 100
3, 58260, Note_on_c, 1, 63, 100
3, 58319, Note_on_c, 1, 63, 0
3, 58319, Note_on_c, 1, 60, 0
3, 58319, Note_on_c, 1, 56, 0
3, 58320, Note_on_c, 1, 63, 100
3, 58320, Note_on_c, 1, 60, 100
3, 58320, Note_on_c, 1, 56, 100
3, 58499, Note_on_c, 1, 56, 0
3, 58499, Note_on_c, 1, 60, 0
3, 58499, Note_on_c, 1, 63, 0
3, 58500, Note_on_c, 1, 58, 100
3, 58500, Note_on_c, 1, 55, 100
3, 58500, Note_on_c, 1, 63, 100
3, 58559, Note_on_c, 1, 63, 0
3, 58559, Note_on_c, 1, 55, 0
3, 58559, Note_on_c, 1, 58, 0
3, 58560, Note_on_c, 1, 55, 100
3, 58560, Note_on_c, 1, 58, 100
3, 58560, Note_on_c, 1, 63, 100
3, 58739, Note_on_c, 1, 63, 0
3, 58739, Note_on_c, 1, 58, 0
3, 58739, Note_on_c, 1, 55, 0
3, 58740, Note_on_c, 1, 56, 100
3, 58740, Note_on_c, 1, 53, 100
3, 58740, Note_on_c, 1, 63, 100
3, 58799, Note_on_c, 1, 63, 0
3, 58799, Note_on_c, 1, 53, 0
3, 58799, Note_on_c, 1, 56, 0
3, 58800, Note_on_c, 1, 63, 100
3, 58800, Note_on_c, 1, 56, 100
3, 58800, Note_on_c, 1, 53, 100
3, 58979, Note_on_c, 1, 53, 0
3, 58979, Note_on_c, 1, 56, 0
3, 58979, Note_on_c, 1, 63, 0
3, 58980, Note_on_c, 1, 51, 100
3, 58980, Note_on_c, 1, 55, 100
3, 58980, Note_on_c, 1, 58, 100
3, 58980, Note_on_c, 1, 63, 100
3, 59039, Note_on_c, 1, 63, 0
3, 59039, Note_on_c, 1, 51, 0
3, 59039, Note_on_c, 1, 55, 0
3, 59039, Note_on_c, 1, 58, 0
3, 59040, Note_on_c, 1, 51, 100
3, 59040, Note_on_c, 1, 55, 100
3, 59040, Note_on_c, 1, 58, 100
3, 59040, Note_on_c, 1, 63, 100
3, 59219, Note_on_c, 1, 63, 0
3, 59219, Note_on_c, 1, 51, 0
3, 59219, Note_on_c, 1, 55, 0
3, 59219, Note_on_c, 1, 58, 0
3, 59220, Note_on_c, 1, 53, 100
3, 59220, Note_on_c, 1, 56, 100
3, 59220, Note_on_c, 1, 61, 100
3, 59220, Note_on_c, 1, 63, 100
3, 59279, Note_on_c, 1, 63, 0
3, 59279, Note_on_c, 1, 53, 0
3, 59279, Note_on_c, 1, 56, 0
3, 59279, Note_on_c, 1, 61, 0
3, 59280, Note_on_c, 1, 53, 100
3, 59280, Note_on_c, 1, 56, 100
3, 59280, Note_on_c, 1, 61, 100
3, 59280, Note_on_c, 1, 63, 100
3, 59939, Note_on_c, 1, 63, 0
3, 59939, Note_on_c, 1, 53, 0
3, 59939, Note_on_c, 1, 56, 0
3, 59939, Note_on_c, 1, 61, 0
3, 59940, Note_on_c, 1, 60, 100
3, 59940, Note_on_c, 1, 56, 100
3, 59940, Note_on_c, 1, 63, 100
3, 59999, Note_on_c, 1, 63, 0
3, 59999, Note_on_c, 1, 56, 0
3, 59999, Note_on_c, 1, 60, 0
3, 60000, Control_c, 1, 7, 50
3, 60000, Control_c, 1, 7, 100
3, 60000, Control_c, 1, 7, 100
3, 60000, Control_c, 1, 7, 100
3, 60000, Note_on_c, 1, 60, 100
3, 60000, Note_on_c, 1, 63, 100
3, 60000, Note_on_c, 1, 56, 100
3, 60028, Control_c, 1, 7, 99
3, 60028, Control_c, 1, 7, 99
3, 60028, Control_c, 1, 7, 99
3, 60057, Control_c, 1, 7, 49
3, 60057, Control_c, 1, 7, 98
3, 60057, Control_c, 1, 7, 98
3, 60057, Control_c, 1, 7, 98
3, 60086, Control_c, 1, 7, 97
3, 60086, Control_c, 1, 7, 97
3, 60086, Control_c, 1, 7, 97
3, 60115, Control_c, 1, 7, 48
3, 60115, Control_c, 1, 7, 96
3, 60115, Control_c, 1, 7, 96
3, 60115, Control_c, 1, 7, 96
3, 60143, Control_c, 1, 7, 95
3, 60143, Control_c, 1, 7, 95
3, 60143, Control_c, 1, 7, 95
3, 60172, Control_c, 1, 7, 47
3, 60172, Control_c, 1, 7, 94
3, 60172, Control_c, 1, 7, 94
3, 60172, Control_c, 1, 7, 94
3, 60179, Note_on_c, 1, 56, 0
3, 60179, Note_on_c, 1, 63, 0
3, 60179, Note_on_c, 1, 60, 0
3, 60179, Note_on_c, 1, 58, 100
3, 60179, Note_on_c, 1, 56, 100
3, 60179, Note_on_c, 1, 63, 100
3, 60201, Control_c, 1, 7, 93
3, 60201, Control_c, 1, 7, 93
3, 60201, Control_c, 1, 7, 93
3, 60230, Control_c, 1, 7, 46
3, 60230, Control_c, 1, 7, 92
3, 60230, Control_c, 1, 7, 92
3, 60230, Control_c, 1, 7, 92
3, 60238, Note_on_c, 1, 63, 0
3, 60238, Note_on_c, 1, 56, 0
3, 60238, Note_on_c, 1, 58, 0
3, 60239, Note_on_c, 1, 56, 100
3, 60239, Note_on_c, 1, 58, 100
3, 60239, Note_on_c, 1, 63, 100
3, 60259, Control_c, 1, 7, 91
3, 60259, Control_c, 1, 7, 91
3, 60259, Control_c, 1, 7, 91
3, 60287, Control_c, 1, 7, 45
3, 60287, Control_c, 1, 7, 90
3, 60287, Control_c, 1, 7, 90
3, 60287, Control_c, 1, 7, 90
3, 60316, Control_c, 1, 7, 89
3, 60316, Control_c, 1, 7, 89
3, 60316, Control_c, 1, 7, 89
3, 60345, Control_c, 1, 7, 44
3, 60345, Control_c, 1, 7, 88
3, 60345, Control_c, 1, 7, 88
3, 60345, Control_c, 1, 7, 88
3, 60374, Control_c, 1, 7, 87
3, 60374, Control_c, 1, 7, 87
3, 60374, Control_c, 1, 7, 87
3, 60403, Control_c, 1, 7, 43
3, 60403, Control_c, 1, 7, 86
3, 60403, Control_c, 1, 7, 86
3, 60403, Control_c, 1, 7, 86
3, 60418, Note_on_c, 1, 63, 0
3, 60418, Note_on_c, 1, 58, 0
3, 60418, Note_on_c, 1, 56, 0
3, 60419, Note_on_c, 1, 56, 100
3, 60419, Note_on_c, 1, 60, 100
3, 60419, Note_on_c, 1, 63, 100
3, 60431, Control_c, 1, 7, 85
3, 60431, Control_c, 1, 7, 85
3, 60431, Control_c, 1, 7, 85
3, 60460, Control_c, 1, 7, 42
3, 60460, Control_c, 1, 7, 84
3, 60460, Control_c, 1, 7, 84
3, 60460, Control_c, 1, 7, 84
3, 60478, Note_on_c, 1, 63, 0
3, 60478, Note_on_c, 1, 60, 0
3, 60478, Note_on_c, 1, 56, 0
3, 60479, Note_on_c, 1, 63, 100
3, 60479, Note_on_c, 1, 60, 100
3, 60479, Note_on_c, 1, 56, 100
3, 60489, Control_c, 1, 7, 83
3, 60489, Control_c, 1, 7, 83
3, 60489, Control_c, 1, 7, 83
3, 60518, Control_c, 1, 7, 41
3, 60518, Control_c, 1, 7, 82
3, 60518, Control_c, 1, 7, 82
3, 60518, Control_c, 1, 7, 82
3, 60547, Control_c, 1, 7, 81
3, 60547, Control_c, 1, 7, 81
3, 60547, Control_c, 1, 7, 81
3, 60575, Control_c, 1, 7, 40
3, 60575, Control_c, 1, 7, 80
3, 60575, Control_c, 1, 7, 80
3, 60575, Control_c, 1, 7, 80
3, 60604, Control_c, 1, 7, 79
3, 60604, Control_c, 1, 7, 79
3, 60604, Control_c, 1, 7, 79
3, 60633, Control_c, 1, 7, 39
3, 60633, Control_c, 1, 7, 78
3, 60633, Control_c, 1, 7, 78
3, 60633, Control_c, 1, 7, 78
3, 60658, Note_on_c, 1, 56, 0
3, 60658, Note_on_c, 1, 60, 0
3, 60658, Note_on_c, 1, 63, 0
3, 60659, Note_on_c, 1, 56, 100
3, 60659, Note_on_c, 1, 58, 100
3, 60659, Note_on_c, 1, 63, 100
3, 60662, Control_c, 1, 7, 77
3, 60662, Control_c, 1, 7, 77
3, 60662, Control_c, 1, 7, 77
3, 60690, Control_c, 1, 7, 38
3, 60690, Control_c, 1, 7, 76
3, 60690, Control_c, 1, 7, 76
3, 60690, Control_c, 1, 7, 76
3, 60718, Note_on_c, 1, 63, 0
3, 60718, Note_on_c, 1, 58, 0
3, 60718, Note_on_c, 1, 56, 0
3, 60719, Control_c, 1, 7, 75
3, 60719, Control_c, 1, 7, 75
3, 60719, Control_c, 1, 7, 75
3, 60719, Note_on_c, 1, 56, 100
3, 60719, Note_on_c, 1, 58, 100
3, 60719, Note_on_c, 1, 63, 100
3, 60748, Control_c, 1, 7, 37
3, 60748, Control_c, 1, 7, 74
3, 60748, Control_c, 1, 7, 74
3, 60748, Control_c, 1, 7, 74
3, 60777, Control_c, 1, 7, 73
3, 60777, Control_c, 1, 7, 73
3, 60777, Control_c, 1, 7, 73
3, 60806, Control_c, 1, 7, 36
3, 60806, Control_c, 1, 7, 72
3, 60806, Control_c, 1, 7, 72
3, 60806, Control_c, 1, 7, 72
3, 60834, Control_c, 1, 7, 71
3, 60834, Control_c, 1, 7, 71
3, 60834, Control_c, 1, 7, 71
3, 60863, Control_c, 1, 7, 35
3, 60863, Control_c, 1, 7, 70
3, 60863, Control_c, 1, 7, 70
3, 60863, Control_c, 1, 7, 70
3, 60892, Control_c, 1, 7, 69
3, 60892, Control_c, 1, 7, 69
3, 60892, Control_c, 1, 7, 69
3, 60898, Note_on_c, 1, 63, 0
3, 60898, Note_on_c, 1, 58, 0
3, 60898, Note_on_c, 1, 56, 0
3, 60899, Note_on_c, 1, 56, 100
3, 60899, Note_on_c, 1, 61, 100
3, 60899, Note_on_c, 1, 63, 100
3, 60921, Control_c, 1, 7, 34
3, 60921, Control_c, 1, 7, 68
3, 60921, Control_c, 1, 7, 68
3, 60921, Control_c, 1, 7, 68
3, 60950, Control_c, 1, 7, 67
3, 60950, Control_c, 1, 7, 67
3, 60950, Control_c, 1, 7, 67
3, 60958, Note_on_c, 1, 63, 0
3, 60958, Note_on_c, 1, 61, 0
3, 60958, Note_on_c, 1, 56, 0
3, 60959, Note_on_c, 1, 56, 100
3, 60959, Note_on_c, 1, 61, 100
3, 60959, Note_on_c, 1, 63, 100
3, 60978, Control_c, 1, 7, 33
3, 60978, Control_c, 1, 7, 66
3, 60978, Control_c, 1, 7, 66
3, 60978, Control_c, 1, 7, 66
3, 61007, Control_c, 1, 7, 65
3, 61007, Control_c, 1, 7, 65
3, 61007, Control_c, 1, 7, 65
3, 61036, Control_c, 1, 7, 32
3, 61036, Control_c, 1, 7, 64
3, 61036, Control_c, 1, 7, 64
3, 61036, Control_c, 1, 7, 64
3, 61065, Control_c, 1, 7, 63
3, 61065, Control_c, 1, 7, 63
3, 61065, Control_c, 1, 7, 63
3, 61094, Control_c, 1, 7, 31
3, 61094, Control_c, 1, 7, 62
3, 61094, Control_c, 1, 7, 62
3, 61094, Control_c, 1, 7, 62
3, 61122, Control_c, 1, 7, 61
3, 61122, Control_c, 1, 7, 61
3, 61122, Control_c, 1, 7, 61
3, 61138, Note_on_c, 1, 63, 0
3, 61138, Note_on_c, 1, 61, 0
3, 61138, Note_on_c, 1, 56, 0
3, 61139, Note_on_c, 1, 56, 100
3, 61139, Note_on_c, 1, 60, 100
3, 61139, Note_on_c, 1, 63, 100
3, 61151, Control_c, 1, 7, 30
3, 61151, Control_c, 1, 7, 60
3, 61151, Control_c, 1, 7, 60
3, 61151, Control_c, 1, 7, 60
3, 61180, Control_c, 1, 7, 59
3, 61180, Control_c, 1, 7, 59
3, 61180, Control_c, 1, 7, 59
3, 61198, Note_on_c, 1, 63, 0
3, 61198, Note_on_c, 1, 60, 0
3, 61198, Note_on_c, 1, 56, 0
3, 61199, Note_on_c, 1, 63, 100
3, 61199, Note_on_c, 1, 60, 100
3, 61199, Note_on_c, 1, 56, 100
3, 61209, Control_c, 1, 7, 29
3, 61209, Control_c, 1, 7, 58
3, 61209, Control_c, 1, 7, 58
3, 61209, Control_c, 1, 7, 58
3, 61237, Control_c, 1, 7, 57
3, 61237, Control_c, 1, 7, 57
3, 61237, Control_c, 1, 7, 57
3, 61266, Control_c, 1, 7, 28
3, 61266, Control_c, 1, 7, 56
3, 61266, Control_c, 1, 7, 56
3, 61266, Control_c, 1, 7, 56
3, 61295, Control_c, 1, 7, 55
3, 61295, Control_c, 1, 7, 55
3, 61295, Control_c, 1, 7, 55
3, 61324, Control_c, 1, 7, 27
3, 61324, Control_c, 1, 7, 54
3, 61324, Control_c, 1, 7, 54
3, 61324, Control_c, 1, 7, 54
3, 61353, Control_c, 1, 7, 53
3, 61353, Control_c, 1, 7, 53
3, 61353, Control_c, 1, 7, 53
3, 61378, Note_on_c, 1, 56, 0
3, 61378, Note_on_c, 1, 60, 0
3, 61378, Note_on_c, 1, 63, 0
3, 61379, Note_on_c, 1, 58, 100
3, 61379, Note_on_c, 1, 55, 100
3, 61379, Note_on_c, 1, 63, 100
3, 61381, Control_c, 1, 7, 26
3, 61381, Control_c, 1, 7, 52
3, 61381, Control_c, 1, 7, 52
3, 61381, Control_c, 1, 7, 52
3, 61410, Control_c, 1, 7, 51
3, 61410, Control_c, 1, 7, 51
3, 61410, Control_c, 1, 7, 51
3, 61438, Note_on_c, 1, 63, 0
3, 61438, Note_on_c, 1, 55, 0
3, 61438, Note_on_c, 1, 58, 0
3, 61439, Control_c, 1, 7, 25
3, 61439, Control_c, 1, 7, 50
3, 61439, Control_c, 1, 7, 50
3, 61439, Control_c, 1, 7, 50
3, 61439, Note_on_c, 1, 55, 100
3, 61439, Note_on_c, 1, 58, 100
3, 61439, Note_on_c, 1, 63, 100
3, 61468, Control_c, 1, 7, 49
3, 61468, Control_c, 1, 7, 49
3, 61468, Control_c, 1, 7, 49
3, 61497, Control_c, 1, 7, 24
3, 61497, Control_c, 1, 7, 48
3, 61497, Control_c, 1, 7, 48
3, 61497, Control_c, 1, 7, 48
3, 61525, Control_c, 1, 7, 47
3, 61525, Control_c, 1, 7, 47
3, 61525, Control_c, 1, 7, 47
3, 61554, Control_c, 1, 7, 23
3, 61554, Control_c, 1, 7, 46
3, 61554, Control_c, 1, 7, 46
3, 61554, Control_c, 1, 7, 46
3, 61583, Control_c, 1, 7, 45
3, 61583, Control_c, 1, 7, 45
3, 61583, Control_c, 1, 7, 45
3, 61612, Control_c, 1, 7, 22
3, 61612, Control_c, 1, 7, 44
3, 61612, Control_c, 1, 7, 44
3, 61612, Control_c, 1, 7, 44
3, 61618, Note_on_c, 1, 63, 0
3, 61618, Note_on_c, 1, 58, 0
3, 61618, Note_on_c, 1, 55, 0
3, 61619, Note_on_c, 1, 56, 100
3, 61619, Note_on_c, 1, 53, 100
3, 61619, Note_on_c, 1, 63, 100
3, 61641, Control_c, 1, 7, 43
3, 61641, Control_c, 1, 7, 43
3, 61641, Control_c, 1, 7, 43
3, 61669, Control_c, 1, 7, 21
3, 61669, Control_c, 1, 7, 42
3, 61669, Control_c, 1, 7, 42
3, 61669, Control_c, 1, 7, 42
3, 61678, Note_on_c, 1, 63, 0
3, 61678, Note_on_c, 1, 53, 0
3, 61678, Note_on_c, 1, 56, 0
3, 61679, Note_on_c, 1, 63, 100
3, 61679, Note_on_c, 1, 56, 100
3, 61679, Note_on_c, 1, 53, 100
3, 61698, Control_c, 1, 7, 41
3, 61698, Control_c, 1, 7, 41
3, 61698, Control_c, 1, 7, 41
3, 61727, Control_c, 1, 7, 20
3, 61727, Control_c, 1, 7, 40
3, 61727, Control_c, 1, 7, 40
3, 61727, Control_c, 1, 7, 40
3, 61756, Control_c, 1, 7, 39
3, 61756, Control_c, 1, 7, 39
3, 61756, Control_c, 1, 7, 39
3, 61784, Control_c, 1, 7, 19
3, 61784, Control_c, 1, 7, 38
3, 61784, Control_c, 1, 7, 38
3, 61784, Control_c, 1, 7, 38
3, 61813, Control_c, 1, 7, 37
3, 61813, Control_c, 1, 7, 37
3, 61813, Control_c, 1, 7, 37
3, 61842, Control_c, 1, 7, 18
3, 61842, Control_c, 1, 7, 36
3, 61842, Control_c, 1, 7, 36
3, 61842, Control_c, 1, 7, 36
3, 61858, Note_on_c, 1, 53, 0
3, 61858, Note_on_c, 1, 56, 0
3, 61858, Note_on_c, 1, 63, 0
3, 61859, Note_on_c, 1, 51, 100
3, 61859, Note_on_c, 1, 55, 100
3, 61859, Note_on_c, 1, 58, 100
3, 61859, Note_on_c, 1, 63, 100
3, 61871, Control_c, 1, 7, 35
3, 61871, Control_c, 1, 7, 35
3, 61871, Control_c, 1, 7, 35
3, 61900, Control_c, 1, 7, 17
3, 61900, Control_c, 1, 7, 34
3, 61900, Control_c, 1, 7, 34
3, 61900, Control_c, 1, 7, 34
3, 61918, Note_on_c, 1, 63, 0
3, 61918, Note_on_c, 1, 51, 0
3, 61918, Note_on_c, 1, 55, 0
3, 61918, Note_on_c, 1, 58, 0
3, 61919, Note_on_c, 1, 51, 100
3, 61919, Note_on_c, 1, 55, 100
3, 61919, Note_on_c, 1, 58, 100
3, 61919, Note_on_c, 1, 63, 100
3, 61928, Control_c, 1, 7, 33
3, 61928, Control_c, 1, 7, 33
3, 61928, Control_c, 1, 7, 33
3, 61957, Control_c, 1, 7, 16
3, 61957, Control_c, 1, 7, 32
3, 61957, Control_c, 1, 7, 32
3, 61957, Control_c, 1, 7, 32
3, 61986, Control_c, 1, 7, 31
3, 61986, Control_c, 1, 7, 31
3, 61986, Control_c, 1, 7, 31
3, 62015, Control_c, 1, 7, 15
3, 62015, Control_c, 1, 7, 30
3, 62015, Control_c, 1, 7, 30
3, 62015, Control_c, 1, 7, 30
3, 62044, Control_c, 1, 7, 29
3, 62044, Control_c, 1, 7, 29
3, 62044, Control_c, 1, 7, 29
3, 62072, Control_c, 1, 7, 14
3, 62072, Control_c, 1, 7, 28
3, 62072, Control_c, 1, 7, 28
3, 62072, Control_c, 1, 7, 28
3, 62098, Note_on_c, 1, 63, 0
3, 62098, Note_on_c, 1, 51, 0
3, 62098, Note_on_c, 1, 55, 0
3, 62098, Note_on_c, 1, 58, 0
3, 62099, Note_on_c, 1, 53, 100
3, 62099, Note_on_c, 1, 56, 100
3, 62099, Note_on_c, 1, 61, 100
3, 62099, Note_on_c, 1, 63, 100
3, 62101, Control_c, 1, 7, 27
3, 62101, Control_c, 1, 7, 27
3, 62101, Control_c, 1, 7, 27
3, 62130, Control_c, 1, 7, 13
3, 62130, Control_c, 1, 7, 26
3, 62130, Control_c, 1, 7, 26
3, 62130, Control_c, 1, 7, 26
3, 62158, Note_on_c, 1, 63, 0
3, 62158, Note_on_c, 1, 53, 0
3, 62158, Note_on_c, 1, 56, 0
3, 62158, Note_on_c, 1, 61, 0
3, 62159, Control_c, 1, 7, 25
3, 62159, Control_c, 1, 7, 25
3, 62159, Control_c, 1, 7, 25
3, 62159, Note_on_c, 1, 53, 100
3, 62159, Note_on_c, 1, 56, 100
3, 62159, Note_on_c, 1, 61, 100
3, 62159, Note_on_c, 1, 63, 100
3, 62188, Control_c, 1, 7, 12
3, 62188, Control_c, 1, 7, 24
3, 62188, Control_c, 1, 7, 24
3, 62188, Control_c, 1, 7, 24
3, 62216, Control_c, 1, 7, 23
3, 62216, Control_c, 1, 7, 23
3, 62216, Control_c, 1, 7, 23
3, 62245, Control_c, 1, 7, 11
3, 62245, Control_c, 1, 7, 22
3, 62245, Control_c, 1, 7, 22
3, 62245, Control_c, 1, 7, 22
3, 62274, Control_c, 1, 7, 21
3, 62274, Control_c, 1, 7, 21
3, 62274, Control_c, 1, 7, 21
3, 62303, Control_c, 1, 7, 10
3, 62303, Control_c, 1, 7, 20
3, 62303, Control_c, 1, 7, 20
3, 62303, Control_c, 1, 7, 20
3, 62331, Control_c, 1, 7, 19
3, 62331, Control_c, 1, 7, 19
3, 62331, Control_c, 1, 7, 19
3, 62360, Control_c, 1, 7, 9
3, 62360, Control_c, 1, 7, 18
3, 62360, Control_c, 1, 7, 18
3, 62360, Control_c, 1, 7, 18
3, 62389, Control_c, 1, 7, 17
3, 62389, Control_c, 1, 7, 17
3, 62389, Control_c, 1, 7, 17
3, 62418, Control_c, 1, 7, 8
3, 62418, Control_c, 1, 7, 16
3, 62418, Control_c, 1, 7, 16
3, 62418, Control_c, 1, 7, 16
3, 62447, Control_c, 1, 7, 15
3, 62447, Control_c, 1, 7, 15
3, 62447, Control_c, 1, 7, 15
3, 62475, Control_c, 1, 7, 7
3, 62475, Control_c, 1, 7, 14
3, 62475, Control_c, 1, 7, 14
3, 62475, Control_c, 1, 7, 14
3, 62504, Control_c, 1, 7, 13
3, 62504, Control_c, 1, 7, 13
3, 62504, Control_c, 1, 7, 13
3, 62533, Control_c, 1, 7, 6
3, 62533, Control_c, 1, 7, 12
3, 62533, Control_c, 1, 7, 12
3, 62533, Control_c, 1, 7, 12
3, 62562, Control_c, 1, 7, 11
3, 62562, Control_c, 1, 7, 11
3, 62562, Control_c, 1, 7, 11
3, 62591, Control_c, 1, 7, 5
3, 62591, Control_c, 1, 7, 10
3, 62591, Control_c, 1, 7, 10
3, 62591, Control_c, 1, 7, 10
3, 62619, Control_c, 1, 7, 9
3, 62619, Control_c, 1, 7, 9
3, 62619, Control_c, 1, 7, 9
3, 62648, Control_c, 1, 7, 4
3, 62648, Control_c, 1, 7, 8
3, 62648, Control_c, 1, 7, 8
3, 62648, Control_c, 1, 7, 8
3, 62677, Control_c, 1, 7, 7
3, 62677, Control_c, 1, 7, 7
3, 62677, Control_c, 1, 7, 7
3, 62706, Control_c, 1, 7, 3
3, 62706, Control_c, 1, 7, 6
3, 62706, Control_c, 1, 7, 6
3, 62706, Control_c, 1, 7, 6
3, 62735, Control_c, 1, 7, 5
3, 62735, Control_c, 1, 7, 5
3, 62735, Control_c, 1, 7, 5
3, 62763, Control_c, 1, 7, 2
3, 62763, Control_c, 1, 7, 4
3, 62763, Control_c, 1, 7, 4
3, 62763, Control_c, 1, 7, 4
3, 62792, Control_c, 1, 7, 3
3, 62792, Control_c, 1, 7, 3
3, 62792, Control_c, 1, 7, 3
3, 62818, Note_on_c, 1, 63, 0
3, 62818, Note_on_c, 1, 53, 0
3, 62818, Note_on_c, 1, 56, 0
3, 62818, Note_on_c, 1, 61, 0
3, 62821, Control_c, 1, 7, 1
3, 62821, Control_c, 1, 7, 2
3, 62821, Control_c, 1, 7, 2
3, 62821, Control_c, 1, 7, 2
3, 62850, Control_c, 1, 7, 1
3, 62850, Control_c, 1, 7, 1
3, 62850, Control_c, 1, 7, 1
3, 62879, Control_c, 1, 7, 0
3, 62879, Control_c, 1, 7, 0
3, 62879, Control_c, 1, 7, 0
3, 62879, Control_c, 1, 7, 0
3, 62879, End_track
4, 0, Start_track
4, 0, MIDI_port, 0
4, 0, Title_t, "Synth"
4, 0, Program_c, 2, 50
4, 0, Control_c, 2, 7, 50
4, 300, Note_on_c, 2, 56, 100
4, 300, Note_on_c, 2, 60, 100
4, 300, Note_on_c, 2, 63, 100
4, 419, Note_on_c, 2, 63, 0
4, 419, Note_on_c, 2, 60, 0
4, 419, Note_on_c, 2, 56, 0
4, 420, Note_on_c, 2, 56, 100
4, 420, Note_on_c, 2, 60, 100
4, 420, Note_on_c, 2, 63, 100
4, 659, Note_on_c, 2, 63, 0
4, 659, Note_on_c, 2, 60, 0
4, 659, Note_on_c, 2, 56, 0
4, 660, Note_on_c, 2, 58, 100
4, 660, Note_on_c, 2, 56, 100
4, 660, Note_on_c, 2, 63, 100
4, 719, Note_on_c, 2, 63, 0
4, 719, Note_on_c, 2, 56, 0
4, 719, Note_on_c, 2, 58, 0
4, 720, Note_on_c, 2, 56, 100
4, 720, Note_on_c, 2, 58, 100
4, 720, Note_on_c, 2, 63, 100
4, 899, Note_on_c, 2, 63, 0
4, 899, Note_on_c, 2, 58, 0
4, 899, Note_on_c, 2, 56, 0
4, 900, Note_on_c, 2, 56, 100
4, 900, Note_on_c, 2, 60, 100
4, 900, Note_on_c, 2, 63, 100
4, 959, Note_on_c, 2, 63, 0
4, 959, Note_on_c, 2, 60, 0
4, 959, Note_on_c, 2, 56, 0
4, 960, Note_on_c, 2, 63, 100
4, 960, Note_on_c, 2, 60, 100
4, 960, Note_on_c, 2, 56, 100
4, 1139, Note_on_c, 2, 56, 0
4, 1139, Note_on_c, 2, 60, 0
4, 1139, Note_on_c, 2, 63, 0
4, 1140, Note_on_c, 2, 56, 100
4, 1140, Note_on_c, 2, 58, 100
4, 1140, Note_on_c, 2, 63, 100
4, 1199, Note_on_c, 2, 63, 0
4, 1199, Note_on_c, 2, 58, 0
4, 1199, Note_on_c, 2, 56, 0
4, 1200, Note_on_c, 2, 56, 100
4, 1200, Note_on_c, 2, 58, 100
4, 1200, Note_on_c, 2, 63, 100
4, 1379, Note_on_c, 2, 63, 0
4, 1379, Note_on_c, 2, 58, 0
4, 1379, Note_on_c, 2, 56, 0
4, 1380, Note_on_c, 2, 56, 100
4, 1380, Note_on_c, 2, 61, 100
4, 1380, Note_on_c, 2, 63, 100
4, 1439, Note_on_c, 2, 63, 0
4, 1439, Note_on_c, 2, 61, 0
4, 1439, Note_on_c, 2, 56, 0
4, 1440, Note_on_c, 2, 56, 100
4, 1440, Note_on_c, 2, 61, 100
4, 1440, Note_on_c, 2, 63, 100
4, 1619, Note_on_c, 2, 63, 0
4, 1619, Note_on_c, 2, 61, 0
4, 1619, Note_on_c, 2, 56, 0
4, 1620, Note_on_c, 2, 56, 100
4, 1620, Note_on_c, 2, 60, 100
4, 1620, Note_on_c, 2, 63, 100
4, 1679, Note_on_c, 2, 63, 0
4, 1679, Note_on_c, 2, 60, 0
4, 1679, Note_on_c, 2, 56, 0
4, 1680, Note_on_c, 2, 63, 100
4, 1680, Note_on_c, 2, 60, 100
4, 1680, Note_on_c, 2, 56, 100
4, 1859, Note_on_c, 2, 56, 0
4, 1859, Note_on_c, 2, 60, 0
4, 1859, Note_on_c, 2, 63, 0
4, 1860, Note_on_c, 2, 58, 100
4, 1860, Note_on_c, 2, 55, 100
4, 1860, Note_on_c, 2, 63, 100
4, 1919, Note_on_c, 2, 63, 0
4, 1919, Note_on_c, 2, 55, 0
4, 1919, Note_on_c, 2, 58, 0
4, 1920, Note_on_c, 2, 55, 100
4, 1920, Note_on_c, 2, 58, 100
4, 1920, Note_on_c, 2, 63, 100
4, 2099, Note_on_c, 2, 63, 0
4, 2099, Note_on_c, 2, 58, 0
4, 2099, Note_on_c, 2, 55, 0
4, 2100, Note_on_c, 2, 56, 100
4, 2100, Note_on_c, 2, 53, 100
4, 2100, Note_on_c, 2, 63, 100
4, 2159, Note_on_c, 2, 63, 0
4, 2159, Note_on_c, 2, 53, 0
4, 2159, Note_on_c, 2, 56, 0
4, 2160, Note_on_c, 2, 63, 100
4, 2160, Note_on_c, 2, 56, 100
4, 2160, Note_on_c, 2, 53, 100
4, 2339, Note_on_c, 2, 53, 0
4, 2339, Note_on_c, 2, 56, 0
4, 2339, Note_on_c, 2, 63, 0
4, 2340, Note_on_c, 2, 51, 100
4, 2340, Note_on_c, 2, 55, 100
4, 2340, Note_on_c, 2, 58, 100
4, 2340, Note_on_c, 2, 63, 100
4, 2399, Note_on_c, 2, 63, 0
4, 2399, Note_on_c, 2, 51, 0
4, 2399, Note_on_c, 2, 55, 0
4, 2399, Note_on_c, 2, 58, 0
4, 2400, Note_on_c, 2, 51, 100
4, 2400, Note_on_c, 2, 55, 100
4, 2400, Note_on_c, 2, 58, 100
4, 2400, Note_on_c, 2, 63, 100
4, 2579, Note_on_c, 2, 63, 0
4, 2579, Note_on_c, 2, 51, 0
4, 2579, Note_on_c, 2, 55, 0
4, 2579, Note_on_c, 2, 58, 0
4, 2580, Note_on_c, 2, 53, 100
4, 2580, Note_on_c, 2, 56, 100
4, 2580, Note_on_c, 2, 61, 100
4, 2580, Note_on_c, 2, 63, 100
4, 2639, Note_on_c, 2, 63, 0
4, 2639, Note_on_c, 2, 53, 0
4, 2639, Note_on_c, 2, 56, 0
4, 2639, Note_on_c, 2, 61, 0
4, 2640, Note_on_c, 2, 53, 100
4, 2640, Note_on_c, 2, 56, 100
4, 2640, Note_on_c, 2, 61, 100
4, 2640, Note_on_c, 2, 63, 100
4, 3299, Note_on_c, 2, 63, 0
4, 3299, Note_on_c, 2, 53, 0
4, 3299, Note_on_c, 2, 56, 0
4, 3299, Note_on_c, 2, 61, 0
4, 3300, Note_on_c, 2, 56, 100
4, 3300, Note_on_c, 2, 60, 100
4, 3300, Note_on_c, 2, 63, 100
4, 3359, Note_on_c, 2, 63, 0
4, 3359, Note_on_c, 2, 60, 0
4, 3359, Note_on_c, 2, 56, 0
4, 3360, Note_on_c, 2, 56, 100
4, 3360, Note_on_c, 2, 60, 100
4, 3360, Note_on_c, 2, 63, 100
4, 3539, Note_on_c, 2, 63, 0
4, 3539, Note_on_c, 2, 60, 0
4, 3539, Note_on_c, 2, 56, 0
4, 3540, Note_on_c, 2, 58, 100
4, 3540, Note_on_c, 2, 56, 100
4, 3540, Note_on_c, 2, 63, 100
4, 3599, Note_on_c, 2, 63, 0
4, 3599, Note_on_c, 2, 56, 0
4, 3599, Note_on_c, 2, 58, 0
4, 3600, Note_on_c, 2, 56, 100
4, 3600, Note_on_c, 2, 58, 100
4, 3600, Note_on_c, 2, 63, 100
4, 3779, Note_on_c, 2, 63, 0
4, 3779, Note_on_c, 2, 58, 0
4, 3779, Note_on_c, 2, 56, 0
4, 3780, Note_on_c, 2, 56, 100
4, 3780, Note_on_c, 2, 60, 100
4, 3780, Note_on_c, 2, 63, 100
4, 3839, Note_on_c, 2, 63, 0
4, 3839, Note_on_c, 2, 60, 0
4, 3839, Note_on_c, 2, 56, 0
4, 3840, Note_on_c, 2, 63, 100
4, 3840, Note_on_c, 2, 60, 100
4, 3840, Note_on_c, 2, 56, 100
4, 4019, Note_on_c, 2, 56, 0
4, 4019, Note_on_c, 2, 60, 0
4, 4019, Note_on_c, 2, 63, 0
4, 4020, Note_on_c, 2, 56, 100
4, 4020, Note_on_c, 2, 58, 100
4, 4020, Note_on_c, 2, 63, 100
4, 4079, Note_on_c, 2, 63, 0
4, 4079, Note_on_c, 2, 58, 0
4, 4079, Note_on_c, 2, 56, 0
4, 4080, Note_on_c, 2, 56, 100
4, 4080, Note_on_c, 2, 58, 100
4, 4080, Note_on_c, 2, 63, 100
4, 4259, Note_on_c, 2, 63, 0
4, 4259, Note_on_c, 2, 58, 0
4, 4259, Note_on_c, 2, 56, 0
4, 4260, Note_on_c, 2, 56, 100
4, 4260, Note_on_c, 2, 61, 100
4, 4260, Note_on_c, 2, 63, 100
4, 4319, Note_on_c, 2, 63, 0
4, 4319, Note_on_c, 2, 61, 0
4, 4319, Note_on_c, 2, 56, 0
4, 4320, Note_on_c, 2, 56, 100
4, 4320, Note_on_c, 2, 61, 100
4, 4320, Note_on_c, 2, 63, 100
4, 4499, Note_on_c, 2, 63, 0
4, 4499, Note_on_c, 2, 61, 0
4, 4499, Note_on_c, 2, 56, 0
4, 4500, Note_on_c, 2, 56, 100
4, 4500, Note_on_c, 2, 60, 100
4, 4500, Note_on_c, 2, 63, 100
4, 4559, Note_on_c, 2, 63, 0
4, 4559, Note_on_c, 2, 60, 0
4, 4559, Note_on_c, 2, 56, 0
4, 4560, Note_on_c, 2, 63, 100
4, 4560, Note_on_c, 2, 60, 100
4, 4560, Note_on_c, 2, 56, 100
4, 4739, Note_on_c, 2, 56, 0
4, 4739, Note_on_c, 2, 60, 0
4, 4739, Note_on_c, 2, 63, 0
4, 4740, Note_on_c, 2, 58, 100
4, 4740, Note_on_c, 2, 55, 100
4, 4740, Note_on_c, 2, 63, 100
4, 4799, Note_on_c, 2, 63, 0
4, 4799, Note_on_c, 2, 55, 0
4, 4799, Note_on_c, 2, 58, 0
4, 4800, Note_on_c, 2, 55, 100
4, 4800, Note_on_c, 2, 58, 100
4, 4800, Note_on_c, 2, 63, 100
4, 4979, Note_on_c, 2, 63, 0
4, 4979, Note_on_c, 2, 58, 0
4, 4979, Note_on_c, 2, 55, 0
4, 4980, Note_on_c, 2, 56, 100
4, 4980, Note_on_c, 2, 53, 100
4, 4980, Note_on_c, 2, 63, 100
4, 5039, Note_on_c, 2, 63, 0
4, 5039, Note_on_c, 2, 53, 0
4, 5039, Note_on_c, 2, 56, 0
4, 5040, Note_on_c, 2, 63, 100
4, 5040, Note_on_c, 2, 56, 100
4, 5040, Note_on_c, 2, 53, 100
4, 5219, Note_on_c, 2, 53, 0
4, 5219, Note_on_c, 2, 56, 0
4, 5219, Note_on_c, 2, 63, 0
4, 5220, Note_on_c, 2, 51, 100
4, 5220, Note_on_c, 2, 55, 100
4, 5220, Note_on_c, 2, 58, 100
4, 5220, Note_on_c, 2, 63, 100
4, 5279, Note_on_c, 2, 63, 0
4, 5279, Note_on_c, 2, 51, 0
4, 5279, Note_on_c, 2, 55, 0
4, 5279, Note_on_c, 2, 58, 0
4, 5280, Note_on_c, 2, 51, 100
4, 5280, Note_on_c, 2, 55, 100
4, 5280, Note_on_c, 2, 58, 100
4, 5280, Note_on_c, 2, 63, 100
4, 5459, Note_on_c, 2, 63, 0
4, 5459, Note_on_c, 2, 51, 0
4, 5459, Note_on_c, 2, 55, 0
4, 5459, Note_on_c, 2, 58, 0
4, 5460, Note_on_c, 2, 53, 100
4, 5460, Note_on_c, 2, 56, 100
4, 5460, Note_on_c, 2, 61, 100
4, 5460, Note_on_c, 2, 63, 100
4, 5519, Note_on_c, 2, 63, 0
4, 5519, Note_on_c, 2, 53, 0
4, 5519, Note_on_c, 2, 56, 0
4, 5519, Note_on_c, 2, 61, 0
4, 5520, Note_on_c, 2, 53, 100
4, 5520, Note_on_c, 2, 56, 100
4, 5520, Note_on_c, 2, 61, 100
4, 5520, Note_on_c, 2, 63, 100
4, 6239, Note_on_c, 2, 63, 0
4, 6239, Note_on_c, 2, 53, 0
4, 6239, Note_on_c, 2, 56, 0
4, 6239, Note_on_c, 2, 61, 0
4, 6240, Note_on_c, 2, 63, 100
4, 6240, Note_on_c, 2, 60, 100
4, 6240, Note_on_c, 2, 58, 100
4, 7199, Note_on_c, 2, 58, 0
4, 7199, Note_on_c, 2, 60, 0
4, 7199, Note_on_c, 2, 63, 0
4, 7200, Note_on_c, 2, 56, 100
4, 7200, Note_on_c, 2, 53, 100
4, 7200, Note_on_c, 2, 51, 100
4, 8159, Note_on_c, 2, 51, 0
4, 8159, Note_on_c, 2, 53, 0
4, 8159, Note_on_c, 2, 56, 0
4, 8160, Note_on_c, 2, 63, 100
4, 8160, Note_on_c, 2, 60, 100
4, 8160, Note_on_c, 2, 58, 100
4, 9119, Note_on_c, 2, 58, 0
4, 9119, Note_on_c, 2, 60, 0
4, 9119, Note_on_c, 2, 63, 0
4, 9120, Note_on_c, 2, 56, 100
4, 9120, Note_on_c, 2, 53, 100
4, 9120, Note_on_c, 2, 51, 100
4, 9599, Note_on_c, 2, 51, 0
4, 9599, Note_on_c, 2, 53, 0
4, 9599, Note_on_c, 2, 56, 0
4, 9600, Note_on_c, 2, 58, 100
4, 9600, Note_on_c, 2, 55, 100
4, 9600, Note_on_c, 2, 53, 100
4, 10079, Note_on_c, 2, 53, 0
4, 10079, Note_on_c, 2, 55, 0
4, 10079, Note_on_c, 2, 58, 0
4, 10080, Note_on_c, 2, 63, 100
4, 10080, Note_on_c, 2, 60, 100
4, 10080, Note_on_c, 2, 58, 100
4, 11039, Note_on_c, 2, 58, 0
4, 11039, Note_on_c, 2, 60, 0
4, 11039, Note_on_c, 2, 63, 0
4, 11040, Note_on_c, 2, 56, 100
4, 11040, Note_on_c, 2, 53, 100
4, 11040, Note_on_c, 2, 51, 100
4, 11999, Note_on_c, 2, 51, 0
4, 11999, Note_on_c, 2, 53, 0
4, 11999, Note_on_c, 2, 56, 0
4, 12000, Note_on_c, 2, 63, 100
4, 12000, Note_on_c, 2, 60, 100
4, 12000, Note_on_c, 2, 58, 100
4, 12959, Note_on_c, 2, 58, 0
4, 12959, Note_on_c, 2, 60, 0
4, 12959, Note_on_c, 2, 63, 0
4, 12960, Note_on_c, 2, 60, 100
4, 12960, Note_on_c, 2, 68, 100
4, 12960, Note_on_c, 2, 63, 100
4, 13139, Note_on_c, 2, 63, 0
4, 13139, Note_on_c, 2, 68, 0
4, 13139, Note_on_c, 2, 60, 0
4, 13140, Note_on_c, 2, 53, 100
4, 13140, Note_on_c, 2, 61, 100
4, 13140, Note_on_c, 2, 56, 100
4, 13379, Note_on_c, 2, 56, 0
4, 13379, Note_on_c, 2, 61, 0
4, 13379, Note_on_c, 2, 53, 0
4, 13380, Note_on_c, 2, 65, 100
4, 13380, Note_on_c, 2, 61, 100
4, 13380, Note_on_c, 2, 58, 100
4, 13919, Note_on_c, 2, 58, 0
4, 13919, Note_on_c, 2, 61, 0
4, 13919, Note_on_c, 2, 65, 0
4, 13920, Note_on_c, 2, 68, 100
4, 13920, Note_on_c, 2, 63, 100
4, 13920, Note_on_c, 2, 60, 100
4, 14159, Note_on_c, 2, 60, 0
4, 14159, Note_on_c, 2, 63, 0
4, 14159, Note_on_c, 2, 68, 0
4, 14160, Note_on_c, 2, 67, 100
4, 14160, Note_on_c, 2, 63, 100
4, 14160, Note_on_c, 2, 58, 100
4, 14399, Note_on_c, 2, 58, 0
4, 14399, Note_on_c, 2, 63, 0
4, 14399, Note_on_c, 2, 67, 0
4, 14400, Note_on_c, 2, 56, 100
4, 14400, Note_on_c, 2, 65, 100
4, 14400, Note_on_c, 2, 61, 100
4, 14639, Note_on_c, 2, 61, 0
4, 14639, Note_on_c, 2, 65, 0
4, 14639, Note_on_c, 2, 56, 0
4, 14640, Note_on_c, 2, 61, 100
4, 14640, Note_on_c, 2, 65, 100
4, 14640, Note_on_c, 2, 56, 100
4, 14879, Note_on_c, 2, 56, 0
4, 14879, Note_on_c, 2, 65, 0
4, 14879, Note_on_c, 2, 61, 0
4, 14880, Note_on_c, 2, 60, 100
4, 14880, Note_on_c, 2, 68, 100
4, 14880, Note_on_c, 2, 63, 100
4, 15119, Note_on_c, 2, 63, 0
4, 15119, Note_on_c, 2, 68, 0
4, 15119, Note_on_c, 2, 60, 0
4, 15120, Note_on_c, 2, 61, 100
4, 15120, Note_on_c, 2, 65, 100
4, 15120, Note_on_c, 2, 56, 100
4, 15359, Note_on_c, 2, 56, 0
4, 15359, Note_on_c, 2, 65, 0
4, 15359, Note_on_c, 2, 61, 0
4, 15360, Note_on_c, 2, 58, 100
4, 15360, Note_on_c, 2, 55, 100
4, 15360, Note_on_c, 2, 63, 100
4, 15839, Note_on_c, 2, 63, 0
4, 15839, Note_on_c, 2, 55, 0
4, 15839, Note_on_c, 2, 58, 0
4, 15840, Note_on_c, 2, 68, 100
4, 15840, Note_on_c, 2, 63, 100
4, 15840, Note_on_c, 2, 60, 100
4, 16079, Note_on_c, 2, 60, 0
4, 16079, Note_on_c, 2, 63, 0
4, 16079, Note_on_c, 2, 68, 0
4, 16080, Note_on_c, 2, 67, 100
4, 16080, Note_on_c, 2, 63, 100
4, 16080, Note_on_c, 2, 58, 100
4, 16319, Note_on_c, 2, 58, 0
4, 16319, Note_on_c, 2, 63, 0
4, 16319, Note_on_c, 2, 67, 0
4, 16320, Note_on_c, 2, 56, 100
4, 16320, Note_on_c, 2, 65, 100
4, 16320, Note_on_c, 2, 61, 100
4, 16559, Note_on_c, 2, 61, 0
4, 16559, Note_on_c, 2, 65, 0
4, 16559, Note_on_c, 2, 56, 0
4, 16560, Note_on_c, 2, 61, 100
4, 16560, Note_on_c, 2, 65, 100
4, 16560, Note_on_c, 2, 56, 100
4, 16799, Note_on_c, 2, 56, 0
4, 16799, Note_on_c, 2, 65, 0
4, 16799, Note_on_c, 2, 61, 0
4, 16800, Note_on_c, 2, 60, 100
4, 16800, Note_on_c, 2, 68, 100
4, 16800, Note_on_c, 2, 63, 100
4, 17039, Note_on_c, 2, 63, 0
4, 17039, Note_on_c, 2, 68, 0
4, 17039, Note_on_c, 2, 60, 0
4, 17040, Note_on_c, 2, 61, 100
4, 17040, Note_on_c, 2, 65, 100
4, 17040, Note_on_c, 2, 56, 100
4, 17279, Note_on_c, 2, 56, 0
4, 17279, Note_on_c, 2, 65, 0
4, 17279, Note_on_c, 2, 61, 0
4, 17280, Note_on_c, 2, 58, 100
4, 17280, Note_on_c, 2, 55, 100
4, 17280, Note_on_c, 2, 63, 100
4, 17759, Note_on_c, 2, 63, 0
4, 17759, Note_on_c, 2, 55, 0
4, 17759, Note_on_c, 2, 58, 0
4, 17760, Note_on_c, 2, 60, 100
4, 17760, Note_on_c, 2, 56, 100
4, 17760, Note_on_c, 2, 51, 100
4, 17939, Note_on_c, 2, 51, 0
4, 17939, Note_on_c, 2, 56, 0
4, 17939, Note_on_c, 2, 60, 0
4, 17940, Note_on_c, 2, 51, 100
4, 17940, Note_on_c, 2, 55, 100
4, 17940, Note_on_c, 2, 60, 100
4, 18179, Note_on_c, 2, 60, 0
4, 18179, Note_on_c, 2, 55, 0
4, 18179, Note_on_c, 2, 51, 0
4, 18180, Note_on_c, 2, 56, 100
4, 18180, Note_on_c, 2, 53, 100
4, 18180, Note_on_c, 2, 51, 100
4, 18419, Note_on_c, 2, 56, 0
4, 18420, Note_on_c, 2, 58, 100
4, 18719, Note_on_c, 2, 58, 0
4, 18719, Note_on_c, 2, 51, 0
4, 18719, Note_on_c, 2, 53, 0
4, 18720, Note_on_c, 2, 63, 100
4, 18720, Note_on_c, 2, 56, 100
4, 18720, Note_on_c, 2, 60, 100
4, 18899, Note_on_c, 2, 60, 0
4, 18899, Note_on_c, 2, 56, 0
4, 18899, Note_on_c, 2, 63, 0
4, 18900, Note_on_c, 2, 55, 100
4, 18900, Note_on_c, 2, 58, 100
4, 18900, Note_on_c, 2, 63, 100
4, 19199, Note_on_c, 2, 63, 0
4, 19199, Note_on_c, 2, 58, 0
4, 19199, Note_on_c, 2, 55, 0
4, 19200, Note_on_c, 2, 56, 100
4, 19200, Note_on_c, 2, 61, 100
4, 19200, Note_on_c, 2, 65, 100
4, 19439, Note_on_c, 2, 65, 0
4, 19439, Note_on_c, 2, 61, 0
4, 19439, Note_on_c, 2, 56, 0
4, 19440, Note_on_c, 2, 63, 100
4, 19440, Note_on_c, 2, 56, 100
4, 19440, Note_on_c, 2, 53, 100
4, 19679, Note_on_c, 2, 53, 0
4, 19679, Note_on_c, 2, 56, 0
4, 19679, Note_on_c, 2, 63, 0
4, 19680, Note_on_c, 2, 60, 100
4, 19680, Note_on_c, 2, 56, 100
4, 19680, Note_on_c, 2, 51, 100
4, 19859, Note_on_c, 2, 51, 0
4, 19859, Note_on_c, 2, 56, 0
4, 19859, Note_on_c, 2, 60, 0
4, 19860, Note_on_c, 2, 51, 100
4, 19860, Note_on_c, 2, 55, 100
4, 19860, Note_on_c, 2, 60, 100
4, 20099, Note_on_c, 2, 60, 0
4, 20099, Note_on_c, 2, 55, 0
4, 20099, Note_on_c, 2, 51, 0
4, 20100, Note_on_c, 2, 56, 100
4, 20100, Note_on_c, 2, 53, 100
4, 20100, Note_on_c, 2, 51, 100
4, 20339, Note_on_c, 2, 56, 0
4, 20340, Note_on_c, 2, 58, 100
4, 20639, Note_on_c, 2, 58, 0
4, 20639, Note_on_c, 2, 51, 0
4, 20639, Note_on_c, 2, 53, 0
4, 20640, Note_on_c, 2, 63, 100
4, 20640, Note_on_c, 2, 56, 100
4, 20640, Note_on_c, 2, 60, 100
4, 20819, Note_on_c, 2, 60, 0
4, 20819, Note_on_c, 2, 56, 0
4, 20819, Note_on_c, 2, 63, 0
4, 20820, Note_on_c, 2, 55, 100
4, 20820, Note_on_c, 2, 58, 100
4, 20820, Note_on_c, 2, 63, 100
4, 21119, Note_on_c, 2, 63, 0
4, 21119, Note_on_c, 2, 58, 0
4, 21119, Note_on_c, 2, 55, 0
4, 21120, Note_on_c, 2, 56, 100
4, 21120, Note_on_c, 2, 61, 100
4, 21120, Note_on_c, 2, 65, 100
4, 21599, Note_on_c, 2, 65, 0
4, 21599, Note_on_c, 2, 61, 0
4, 21599, Note_on_c, 2, 56, 0
4, 21600, Note_on_c, 2, 63, 100
4, 21600, Note_on_c, 2, 56, 100
4, 21600, Note_on_c, 2, 60, 100
4, 22079, Note_on_c, 2, 60, 0
4, 22079, Note_on_c, 2, 56, 0
4, 22079, Note_on_c, 2, 63, 0
4, 22080, Note_on_c, 2, 55, 100
4, 22080, Note_on_c, 2, 58, 100
4, 22080, Note_on_c, 2, 63, 100
4, 22559, Note_on_c, 2, 63, 0
4, 22559, Note_on_c, 2, 58, 0
4, 22559, Note_on_c, 2, 55, 0
4, 22560, Note_on_c, 2, 56, 100
4, 22560, Note_on_c, 2, 60, 100
4, 22560, Note_on_c, 2, 63, 100
4, 22739, Note_on_c, 2, 63, 0
4, 22739, Note_on_c, 2, 60, 0
4, 22739, Note_on_c, 2, 56, 0
4, 22740, Note_on_c, 2, 58, 100
4, 22740, Note_on_c, 2, 56, 100
4, 22740, Note_on_c, 2, 63, 100
4, 22799, Note_on_c, 2, 63, 0
4, 22799, Note_on_c, 2, 56, 0
4, 22799, Note_on_c, 2, 58, 0
4, 22800, Note_on_c, 2, 56, 100
4, 22800, Note_on_c, 2, 58, 100
4, 22800, Note_on_c, 2, 63, 100
4, 22979, Note_on_c, 2, 63, 0
4, 22979, Note_on_c, 2, 58, 0
4, 22979, Note_on_c, 2, 56, 0
4, 22980, Note_on_c, 2, 56, 100
4, 22980, Note_on_c, 2, 60, 100
4, 22980, Note_on_c, 2, 63, 100
4, 23039, Note_on_c, 2, 63, 0
4, 23039, Note_on_c, 2, 60, 0
4, 23039, Note_on_c, 2, 56, 0
4, 23040, Note_on_c, 2, 63, 100
4, 23040, Note_on_c, 2, 60, 100
4, 23040, Note_on_c, 2, 56, 100
4, 23219, Note_on_c, 2, 56, 0
4, 23219, Note_on_c, 2, 60, 0
4, 23219, Note_on_c, 2, 63, 0
4, 23220, Note_on_c, 2, 56, 100
4, 23220, Note_on_c, 2, 58, 100
4, 23220, Note_on_c, 2, 63, 100
4, 23279, Note_on_c, 2, 63, 0
4, 23279, Note_on_c, 2, 58, 0
4, 23279, Note_on_c, 2, 56, 0
4, 23280, Note_on_c, 2, 56, 100
4, 23280, Note_on_c, 2, 58, 100
4, 23280, Note_on_c, 2, 63, 100
4, 23459, Note_on_c, 2, 63, 0
4, 23459, Note_on_c, 2, 58, 0
4, 23459, Note_on_c, 2, 56, 0
4, 23460, Note_on_c, 2, 56, 100
4, 23460, Note_on_c, 2, 61, 100
4, 23460, Note_on_c, 2, 63, 100
4, 23519, Note_on_c, 2, 63, 0
4, 23519, Note_on_c, 2, 61, 0
4, 23519, Note_on_c, 2, 56, 0
4, 23520, Note_on_c, 2, 56, 100
4, 23520, Note_on_c, 2, 61, 100
4, 23520, Note_on_c, 2, 63, 100
4, 23699, Note_on_c, 2, 63, 0
4, 23699, Note_on_c, 2, 61, 0
4, 23699, Note_on_c, 2, 56, 0
4, 23700, Note_on_c, 2, 56, 100
4, 23700, Note_on_c, 2, 60, 100
4, 23700, Note_on_c, 2, 63, 100
4, 23759, Note_on_c, 2, 63, 0
4, 23759, Note_on_c, 2, 60, 0
4, 23759, Note_on_c, 2, 56, 0
4, 23760, Note_on_c, 2, 63, 100
4, 23760, Note_on_c, 2, 60, 100
4, 23760, Note_on_c, 2, 56, 100
4, 23939, Note_on_c, 2, 56, 0
4, 23939, Note_on_c, 2, 60, 0
4, 23939, Note_on_c, 2, 63, 0
4, 23940, Note_on_c, 2, 58, 100
4, 23940, Note_on_c, 2, 55, 100
4, 23940, Note_on_c, 2, 63, 100
4, 23999, Note_on_c, 2, 63, 0
4, 23999, Note_on_c, 2, 55, 0
4, 23999, Note_on_c, 2, 58, 0
4, 24000, Note_on_c, 2, 55, 100
4, 24000, Note_on_c, 2, 58, 100
4, 24000, Note_on_c, 2, 63, 100
4, 24179, Note_on_c, 2, 63, 0
4, 24179, Note_on_c, 2, 58, 0
4, 24179, Note_on_c, 2, 55, 0
4, 24180, Note_on_c, 2, 56, 100
4, 24180, Note_on_c, 2, 53, 100
4, 24180, Note_on_c, 2, 63, 100
4, 24239, Note_on_c, 2, 63, 0
4, 24239, Note_on_c, 2, 53, 0
4, 24239, Note_on_c, 2, 56, 0
4, 24240, Note_on_c, 2, 63, 100
4, 24240, Note_on_c, 2, 56, 100
4, 24240, Note_on_c, 2, 53, 100
4, 24419, Note_on_c, 2, 53, 0
4, 24419, Note_on_c, 2, 56, 0
4, 24419, Note_on_c, 2, 63, 0
4, 24420, Note_on_c, 2, 51, 100
4, 24420, Note_on_c, 2, 55, 100
4, 24420, Note_on_c, 2, 58, 100
4, 24420, Note_on_c, 2, 63, 100
4, 24479, Note_on_c, 2, 63, 0
4, 24479, Note_on_c, 2, 51, 0
4, 24479, Note_on_c, 2, 55, 0
4, 24479, Note_on_c, 2, 58, 0
4, 24480, Note_on_c, 2, 51, 100
4, 24480, Note_on_c, 2, 55, 100
4, 24480, Note_on_c, 2, 58, 100
4, 24480, Note_on_c, 2, 63, 100
4, 24659, Note_on_c, 2, 63, 0
4, 24659, Note_on_c, 2, 51, 0
4, 24659, Note_on_c, 2, 55, 0
4, 24659, Note_on_c, 2, 58, 0
4, 24660, Note_on_c, 2, 53, 100
4, 24660, Note_on_c, 2, 56, 100
4, 24660, Note_on_c, 2, 61, 100
4, 24660, Note_on_c, 2, 63, 100
4, 24719, Note_on_c, 2, 63, 0
4, 24719, Note_on_c, 2, 53, 0
4, 24719, Note_on_c, 2, 56, 0
4, 24719, Note_on_c, 2, 61, 0
4, 24720, Note_on_c, 2, 53, 100
4, 24720, Note_on_c, 2, 56, 100
4, 24720, Note_on_c, 2, 61, 100
4, 24720, Note_on_c, 2, 63, 100
4, 25439, Note_on_c, 2, 63, 0
4, 25439, Note_on_c, 2, 53, 0
4, 25439, Note_on_c, 2, 56, 0
4, 25439, Note_on_c, 2, 61, 0
4, 25440, Note_on_c, 2, 63, 100
4, 25440, Note_on_c, 2, 60, 100
4, 25440, Note_on_c, 2, 58, 100
4, 26399, Note_on_c, 2, 58, 0
4, 26399, Note_on_c, 2, 60, 0
4, 26399, Note_on_c, 2, 63, 0
4, 26400, Note_on_c, 2, 56, 100
4, 26400, Note_on_c, 2, 53, 100
4, 26400, Note_on_c, 2, 51, 100
4, 27359, Note_on_c, 2, 51, 0
4, 27359, Note_on_c, 2, 53, 0
4, 27359, Note_on_c, 2, 56, 0
4, 27360, Note_on_c, 2, 63, 100
4, 27360, Note_on_c, 2, 60, 100
4, 27360, Note_on_c, 2, 58, 100
4, 28319, Note_on_c, 2, 58, 0
4, 28319, Note_on_c, 2, 60, 0
4, 28319, Note_on_c, 2, 63, 0
4, 28320, Note_on_c, 2, 56, 100
4, 28320, Note_on_c, 2, 53, 100
4, 28320, Note_on_c, 2, 51, 100
4, 28799, Note_on_c, 2, 51, 0
4, 28799, Note_on_c, 2, 53, 0
4, 28799, Note_on_c, 2, 56, 0
4, 28800, Note_on_c, 2, 58, 100
4, 28800, Note_on_c, 2, 55, 100
4, 28800, Note_on_c, 2, 53, 100
4, 29279, Note_on_c, 2, 53, 0
4, 29279, Note_on_c, 2, 55, 0
4, 29279, Note_on_c, 2, 58, 0
4, 29280, Note_on_c, 2, 63, 100
4, 29280, Note_on_c, 2, 60, 100
4, 29280, Note_on_c, 2, 58, 100
4, 30239, Note_on_c, 2, 58, 0
4, 30239, Note_on_c, 2, 60, 0
4, 30239, Note_on_c, 2, 63, 0
4, 30240, Note_on_c, 2, 56, 100
4, 30240, Note_on_c, 2, 53, 100
4, 30240, Note_on_c, 2, 51, 100
4, 31199, Note_on_c, 2, 51, 0
4, 31199, Note_on_c, 2, 53, 0
4, 31199, Note_on_c, 2, 56, 0
4, 31200, Note_on_c, 2, 63, 100
4, 31200, Note_on_c, 2, 60, 100
4, 31200, Note_on_c, 2, 58, 100
4, 32159, Note_on_c, 2, 58, 0
4, 32159, Note_on_c, 2, 60, 0
4, 32159, Note_on_c, 2, 63, 0
4, 32160, Note_on_c, 2, 60, 100
4, 32160, Note_on_c, 2, 68, 100
4, 32160, Note_on_c, 2, 63, 100
4, 32339, Note_on_c, 2, 63, 0
4, 32339, Note_on_c, 2, 68, 0
4, 32339, Note_on_c, 2, 60, 0
4, 32340, Note_on_c, 2, 53, 100
4, 32340, Note_on_c, 2, 61, 100
4, 32340, Note_on_c, 2, 56, 100
4, 32579, Note_on_c, 2, 56, 0
4, 32579, Note_on_c, 2, 61, 0
4, 32579, Note_on_c, 2, 53, 0
4, 32580, Note_on_c, 2, 65, 100
4, 32580, Note_on_c, 2, 61, 100
4, 32580, Note_on_c, 2, 58, 100
4, 33119, Note_on_c, 2, 58, 0
4, 33119, Note_on_c, 2, 61, 0
4, 33119, Note_on_c, 2, 65, 0
4, 33120, Note_on_c, 2, 68, 100
4, 33120, Note_on_c, 2, 63, 100
4, 33120, Note_on_c, 2, 60, 100
4, 33359, Note_on_c, 2, 60, 0
4, 33359, Note_on_c, 2, 63, 0
4, 33359, Note_on_c, 2, 68, 0
4, 33360, Note_on_c, 2, 67, 100
4, 33360, Note_on_c, 2, 63, 100
4, 33360, Note_on_c, 2, 58, 100
4, 33599, Note_on_c, 2, 58, 0
4, 33599, Note_on_c, 2, 63, 0
4, 33599, Note_on_c, 2, 67, 0
4, 33600, Note_on_c, 2, 56, 100
4, 33600, Note_on_c, 2, 65, 100
4, 33600, Note_on_c, 2, 61, 100
4, 33839, Note_on_c, 2, 61, 0
4, 33839, Note_on_c, 2, 65, 0
4, 33839, Note_on_c, 2, 56, 0
4, 33840, Note_on_c, 2, 61, 100
4, 33840, Note_on_c, 2, 65, 100
4, 33840, Note_on_c, 2, 56, 100
4, 34079, Note_on_c, 2, 56, 0
4, 34079, Note_on_c, 2, 65, 0
4, 34079, Note_on_c, 2, 61, 0
4, 34080, Note_on_c, 2, 60, 100
4, 34080, Note_on_c, 2, 68, 100
4, 34080, Note_on_c, 2, 63, 100
4, 34319, Note_on_c, 2, 63, 0
4, 34319, Note_on_c, 2, 68, 0
4, 34319, Note_on_c, 2, 60, 0
4, 34320, Note_on_c, 2, 61, 100
4, 34320, Note_on_c, 2, 65, 100
4, 34320, Note_on_c, 2, 56, 100
4, 34559, Note_on_c, 2, 56, 0
4, 34559, Note_on_c, 2, 65, 0
4, 34559, Note_on_c, 2, 61, 0
4, 34560, Note_on_c, 2, 58, 100
4, 34560, Note_on_c, 2, 55, 100
4, 34560, Note_on_c, 2, 63, 100
4, 35039, Note_on_c, 2, 63, 0
4, 35039, Note_on_c, 2, 55, 0
4, 35039, Note_on_c, 2, 58, 0
4, 35040, Note_on_c, 2, 68, 100
4, 35040, Note_on_c, 2, 63, 100
4, 35040, Note_on_c, 2, 60, 100
4, 35279, Note_on_c, 2, 60, 0
4, 35279, Note_on_c, 2, 63, 0
4, 35279, Note_on_c, 2, 68, 0
4, 35280, Note_on_c, 2, 67, 100
4, 35280, Note_on_c, 2, 63, 100
4, 35280, Note_on_c, 2, 58, 100
4, 35519, Note_on_c, 2, 58, 0
4, 35519, Note_on_c, 2, 63, 0
4, 35519, Note_on_c, 2, 67, 0
4, 35520, Note_on_c, 2, 56, 100
4, 35520, Note_on_c, 2, 65, 100
4, 35520, Note_on_c, 2, 61, 100
4, 35759, Note_on_c, 2, 61, 0
4, 35759, Note_on_c, 2, 65, 0
4, 35759, Note_on_c, 2, 56, 0
4, 35760, Note_on_c, 2, 61, 100
4, 35760, Note_on_c, 2, 65, 100
4, 35760, Note_on_c, 2, 56, 100
4, 35999, Note_on_c, 2, 56, 0
4, 35999, Note_on_c, 2, 65, 0
4, 35999, Note_on_c, 2, 61, 0
4, 36000, Note_on_c, 2, 60, 100
4, 36000, Note_on_c, 2, 68, 100
4, 36000, Note_on_c, 2, 63, 100
4, 36239, Note_on_c, 2, 63, 0
4, 36239, Note_on_c, 2, 68, 0
4, 36239, Note_on_c, 2, 60, 0
4, 36240, Note_on_c, 2, 61, 100
4, 36240, Note_on_c, 2, 65, 100
4, 36240, Note_on_c, 2, 56, 100
4, 36479, Note_on_c, 2, 56, 0
4, 36479, Note_on_c, 2, 65, 0
4, 36479, Note_on_c, 2, 61, 0
4, 36480, Note_on_c, 2, 58, 100
4, 36480, Note_on_c, 2, 55, 100
4, 36480, Note_on_c, 2, 63, 100
4, 36959, Note_on_c, 2, 63, 0
4, 36959, Note_on_c, 2, 55, 0
4, 36959, Note_on_c, 2, 58, 0
4, 36960, Note_on_c, 2, 60, 100
4, 36960, Note_on_c, 2, 56, 100
4, 36960, Note_on_c, 2, 51, 100
4, 37139, Note_on_c, 2, 51, 0
4, 37139, Note_on_c, 2, 56, 0
4, 37139, Note_on_c, 2, 60, 0
4, 37140, Note_on_c, 2, 51, 100
4, 37140, Note_on_c, 2, 55, 100
4, 37140, Note_on_c, 2, 60, 100
4, 37379, Note_on_c, 2, 60, 0
4, 37379, Note_on_c, 2, 55, 0
4, 37379, Note_on_c, 2, 51, 0
4, 37380, Note_on_c, 2, 56, 100
4, 37380, Note_on_c, 2, 53, 100
4, 37380, Note_on_c, 2, 51, 100
4, 37619, Note_on_c, 2, 56, 0
4, 37620, Note_on_c, 2, 58, 100
4, 37919, Note_on_c, 2, 58, 0
4, 37919, Note_on_c, 2, 51, 0
4, 37919, Note_on_c, 2, 53, 0
4, 37920, Note_on_c, 2, 63, 100
4, 37920, Note_on_c, 2, 56, 100
4, 37920, Note_on_c, 2, 60, 100
4, 38099, Note_on_c, 2, 60, 0
4, 38099, Note_on_c, 2, 56, 0
4, 38099, Note_on_c, 2, 63, 0
4, 38100, Note_on_c, 2, 55, 100
4, 38100, Note_on_c, 2, 58, 100
4, 38100, Note_on_c, 2, 63, 100
4, 38399, Note_on_c, 2, 63, 0
4, 38399, Note_on_c, 2, 58, 0
4, 38399, Note_on_c, 2, 55, 0
4, 38400, Note_on_c, 2, 56, 100
4, 38400, Note_on_c, 2, 61, 100
4, 38400, Note_on_c, 2, 65, 100
4, 38639, Note_on_c, 2, 65, 0
4, 38639, Note_on_c, 2, 61, 0
4, 38639, Note_on_c, 2, 56, 0
4, 38640, Note_on_c, 2, 63, 100
4, 38640, Note_on_c, 2, 56, 100
4, 38640, Note_on_c, 2, 53, 100
4, 38879, Note_on_c, 2, 53, 0
4, 38879, Note_on_c, 2, 56, 0
4, 38879, Note_on_c, 2, 63, 0
4, 38880, Note_on_c, 2, 60, 100
4, 38880, Note_on_c, 2, 56, 100
4, 38880, Note_on_c, 2, 51, 100
4, 39059, Note_on_c, 2, 51, 0
4, 39059, Note_on_c, 2, 56, 0
4, 39059, Note_on_c, 2, 60, 0
4, 39060, Note_on_c, 2, 51, 100
4, 39060, Note_on_c, 2, 55, 100
4, 39060, Note_on_c, 2, 60, 100
4, 39299, Note_on_c, 2, 60, 0
4, 39299, Note_on_c, 2, 55, 0
4, 39299, Note_on_c, 2, 51, 0
4, 39300, Note_on_c, 2, 56, 100
4, 39300, Note_on_c, 2, 53, 100
4, 39300, Note_on_c, 2, 51, 100
4, 39539, Note_on_c, 2, 56, 0
4, 39540, Note_on_c, 2, 58, 100
4, 39839, Note_on_c, 2, 58, 0
4, 39839, Note_on_c, 2, 51, 0
4, 39839, Note_on_c, 2, 53, 0
4, 39840, Note_on_c, 2, 63, 100
4, 39840, Note_on_c, 2, 56, 100
4, 39840, Note_on_c, 2, 60, 100
4, 40019, Note_on_c, 2, 60, 0
4, 40019, Note_on_c, 2, 56, 0
4, 40019, Note_on_c, 2, 63, 0
4, 40020, Note_on_c, 2, 55, 100
4, 40020, Note_on_c, 2, 58, 100
4, 40020, Note_on_c, 2, 63, 100
4, 40319, Note_on_c, 2, 63, 0
4, 40319, Note_on_c, 2, 58, 0
4, 40319, Note_on_c, 2, 55, 0
4, 40320, Note_on_c, 2, 56, 100
4, 40320, Note_on_c, 2, 61, 100
4, 40320, Note_on_c, 2, 65, 100
4, 40799, Note_on_c, 2, 65, 0
4, 40799, Note_on_c, 2, 61, 0
4, 40799, Note_on_c, 2, 56, 0
4, 40800, Note_on_c, 2, 63, 100
4, 40800, Note_on_c, 2, 56, 100
4, 40800, Note_on_c, 2, 60, 100
4, 41279, Note_on_c, 2, 60, 0
4, 41279, Note_on_c, 2, 56, 0
4, 41279, Note_on_c, 2, 63, 0
4, 41280, Note_on_c, 2, 55, 100
4, 41280, Note_on_c, 2, 58, 100
4, 41280, Note_on_c, 2, 63, 100
4, 41759, Note_on_c, 2, 63, 0
4, 41759, Note_on_c, 2, 58, 0
4, 41759, Note_on_c, 2, 55, 0
4, 41760, Note_on_c, 2, 56, 100
4, 41760, Note_on_c, 2, 60, 100
4, 41760, Note_on_c, 2, 63, 100
4, 41939, Note_on_c, 2, 63, 0
4, 41939, Note_on_c, 2, 60, 0
4, 41939, Note_on_c, 2, 56, 0
4, 41940, Note_on_c, 2, 58, 100
4, 41940, Note_on_c, 2, 56, 100
4, 41940, Note_on_c, 2, 63, 100
4, 41999, Note_on_c, 2, 63, 0
4, 41999, Note_on_c, 2, 56, 0
4, 41999, Note_on_c, 2, 58, 0
4, 42000, Note_on_c, 2, 56, 100
4, 42000, Note_on_c, 2, 58, 100
4, 42000, Note_on_c, 2, 63, 100
4, 42179, Note_on_c, 2, 63, 0
4, 42179, Note_on_c, 2, 58, 0
4, 42179, Note_on_c, 2, 56, 0
4, 42180, Note_on_c, 2, 56, 100
4, 42180, Note_on_c, 2, 60, 100
4, 42180, Note_on_c, 2, 63, 100
4, 42239, Note_on_c, 2, 63, 0
4, 42239, Note_on_c, 2, 60, 0
4, 42239, Note_on_c, 2, 56, 0
4, 42240, Note_on_c, 2, 63, 100
4, 42240, Note_on_c, 2, 60, 100
4, 42240, Note_on_c, 2, 56, 100
4, 42419, Note_on_c, 2, 56, 0
4, 42419, Note_on_c, 2, 60, 0
4, 42419, Note_on_c, 2, 63, 0
4, 42420, Note_on_c, 2, 56, 100
4, 42420, Note_on_c, 2, 58, 100
4, 42420, Note_on_c, 2, 63, 100
4, 42479, Note_on_c, 2, 63, 0
4, 42479, Note_on_c, 2, 58, 0
4, 42479, Note_on_c, 2, 56, 0
4, 42480, Note_on_c, 2, 56, 100
4, 42480, Note_on_c, 2, 58, 100
4, 42480, Note_on_c, 2, 63, 100
4, 42659, Note_on_c, 2, 63, 0
4, 42659, Note_on_c, 2, 58, 0
4, 42659, Note_on_c, 2, 56, 0
4, 42660, Note_on_c, 2, 56, 100
4, 42660, Note_on_c, 2, 61, 100
4, 42660, Note_on_c, 2, 63, 100
4, 42719, Note_on_c, 2, 63, 0
4, 42719, Note_on_c, 2, 61, 0
4, 42719, Note_on_c, 2, 56, 0
4, 42720, Note_on_c, 2, 56, 100
4, 42720, Note_on_c, 2, 61, 100
4, 42720, Note_on_c, 2, 63, 100
4, 42899, Note_on_c, 2, 63, 0
4, 42899, Note_on_c, 2, 61, 0
4, 42899, Note_on_c, 2, 56, 0
4, 42900, Note_on_c, 2, 56, 100
4, 42900, Note_on_c, 2, 60, 100
4, 42900, Note_on_c, 2, 63, 100
4, 42959, Note_on_c, 2, 63, 0
4, 42959, Note_on_c, 2, 60, 0
4, 42959, Note_on_c, 2, 56, 0
4, 42960, Note_on_c, 2, 63, 100
4, 42960, Note_on_c, 2, 60, 100
4, 42960, Note_on_c, 2, 56, 100
4, 43139, Note_on_c, 2, 56, 0
4, 43139, Note_on_c, 2, 60, 0
4, 43139, Note_on_c, 2, 63, 0
4, 43140, Note_on_c, 2, 58, 100
4, 43140, Note_on_c, 2, 55, 100
4, 43140, Note_on_c, 2, 63, 100
4, 43199, Note_on_c, 2, 63, 0
4, 43199, Note_on_c, 2, 55, 0
4, 43199, Note_on_c, 2, 58, 0
4, 43200, Note_on_c, 2, 55, 100
4, 43200, Note_on_c, 2, 58, 100
4, 43200, Note_on_c, 2, 63, 100
4, 43379, Note_on_c, 2, 63, 0
4, 43379, Note_on_c, 2, 58, 0
4, 43379, Note_on_c, 2, 55, 0
4, 43380, Note_on_c, 2, 56, 100
4, 43380, Note_on_c, 2, 53, 100
4, 43380, Note_on_c, 2, 63, 100
4, 43439, Note_on_c, 2, 63, 0
4, 43439, Note_on_c, 2, 53, 0
4, 43439, Note_on_c, 2, 56, 0
4, 43440, Note_on_c, 2, 63, 100
4, 43440, Note_on_c, 2, 56, 100
4, 43440, Note_on_c, 2, 53, 100
4, 43619, Note_on_c, 2, 53, 0
4, 43619, Note_on_c, 2, 56, 0
4, 43619, Note_on_c, 2, 63, 0
4, 43620, Note_on_c, 2, 51, 100
4, 43620, Note_on_c, 2, 55, 100
4, 43620, Note_on_c, 2, 58, 100
4, 43620, Note_on_c, 2, 63, 100
4, 43679, Note_on_c, 2, 63, 0
4, 43679, Note_on_c, 2, 51, 0
4, 43679, Note_on_c, 2, 55, 0
4, 43679, Note_on_c, 2, 58, 0
4, 43680, Note_on_c, 2, 51, 100
4, 43680, Note_on_c, 2, 55, 100
4, 43680, Note_on_c, 2, 58, 100
4, 43680, Note_on_c, 2, 63, 100
4, 43859, Note_on_c, 2, 63, 0
4, 43859, Note_on_c, 2, 51, 0
4, 43859, Note_on_c, 2, 55, 0
4, 43859, Note_on_c, 2, 58, 0
4, 43860, Note_on_c, 2, 53, 100
4, 43860, Note_on_c, 2, 56, 100
4, 43860, Note_on_c, 2, 61, 100
4, 43860, Note_on_c, 2, 63, 100
4, 43919, Note_on_c, 2, 63, 0
4, 43919, Note_on_c, 2, 53, 0
4, 43919, Note_on_c, 2, 56, 0
4, 43919, Note_on_c, 2, 61, 0
4, 43920, Note_on_c, 2, 53, 100
4, 43920, Note_on_c, 2, 56, 100
4, 43920, Note_on_c, 2, 61, 100
4, 43920, Note_on_c, 2, 63, 100
4, 44639, Note_on_c, 2, 63, 0
4, 44639, Note_on_c, 2, 53, 0
4, 44639, Note_on_c, 2, 56, 0
4, 44639, Note_on_c, 2, 61, 0
4, 44640, Note_on_c, 2, 63, 100
4, 44640, Note_on_c, 2, 60, 100
4, 44640, Note_on_c, 2, 58, 100
4, 45599, Note_on_c, 2, 58, 0
4, 45599, Note_on_c, 2, 60, 0
4, 45599, Note_on_c, 2, 63, 0
4, 45600, Note_on_c, 2, 56, 100
4, 45600, Note_on_c, 2, 53, 100
4, 45600, Note_on_c, 2, 51, 100
4, 46559, Note_on_c, 2, 51, 0
4, 46559, Note_on_c, 2, 53, 0
4, 46559, Note_on_c, 2, 56, 0
4, 46560, Note_on_c, 2, 63, 100
4, 46560, Note_on_c, 2, 60, 100
4, 46560, Note_on_c, 2, 58, 100
4, 47519, Note_on_c, 2, 58, 0
4, 47519, Note_on_c, 2, 60, 0
4, 47519, Note_on_c, 2, 63, 0
4, 47520, Note_on_c, 2, 56, 100
4, 47520, Note_on_c, 2, 53, 100
4, 47520, Note_on_c, 2, 51, 100
4, 47999, Note_on_c, 2, 51, 0
4, 47999, Note_on_c, 2, 53, 0
4, 47999, Note_on_c, 2, 56, 0
4, 48000, Note_on_c, 2, 58, 100
4, 48000, Note_on_c, 2, 55, 100
4, 48000, Note_on_c, 2, 53, 100
4, 48479, Note_on_c, 2, 53, 0
4, 48479, Note_on_c, 2, 55, 0
4, 48479, Note_on_c, 2, 58, 0
4, 48480, Note_on_c, 2, 63, 100
4, 48480, Note_on_c, 2, 60, 100
4, 48480, Note_on_c, 2, 58, 100
4, 49439, Note_on_c, 2, 58, 0
4, 49439, Note_on_c, 2, 60, 0
4, 49439, Note_on_c, 2, 63, 0
4, 49440, Note_on_c, 2, 56, 100
4, 49440, Note_on_c, 2, 53, 100
4, 49440, Note_on_c, 2, 51, 100
4, 50399, Note_on_c, 2, 51, 0
4, 50399, Note_on_c, 2, 53, 0
4, 50399, Note_on_c, 2, 56, 0
4, 50400, Note_on_c, 2, 63, 100
4, 50400, Note_on_c, 2, 60, 100
4, 50400, Note_on_c, 2, 58, 100
4, 51359, Note_on_c, 2, 58, 0
4, 51359, Note_on_c, 2, 60, 0
4, 51359, Note_on_c, 2, 63, 0
4, 51360, Note_on_c, 2, 60, 100
4, 51360, Note_on_c, 2, 68, 100
4, 51360, Note_on_c, 2, 63, 100
4, 51539, Note_on_c, 2, 63, 0
4, 51539, Note_on_c, 2, 68, 0
4, 51539, Note_on_c, 2, 60, 0
4, 51540, Note_on_c, 2, 53, 100
4, 51540, Note_on_c, 2, 61, 100
4, 51540, Note_on_c, 2, 56, 100
4, 51779, Note_on_c, 2, 56, 0
4, 51779, Note_on_c, 2, 61, 0
4, 51779, Note_on_c, 2, 53, 0
4, 51780, Note_on_c, 2, 65, 100
4, 51780, Note_on_c, 2, 61, 100
4, 51780, Note_on_c, 2, 58, 100
4, 52319, Note_on_c, 2, 58, 0
4, 52319, Note_on_c, 2, 61, 0
4, 52319, Note_on_c, 2, 65, 0
4, 52320, Note_on_c, 2, 60, 100
4, 52320, Note_on_c, 2, 56, 100
4, 52320, Note_on_c, 2, 51, 100
4, 52499, Note_on_c, 2, 51, 0
4, 52499, Note_on_c, 2, 56, 0
4, 52499, Note_on_c, 2, 60, 0
4, 52500, Note_on_c, 2, 51, 100
4, 52500, Note_on_c, 2, 55, 100
4, 52500, Note_on_c, 2, 60, 100
4, 52739, Note_on_c, 2, 60, 0
4, 52739, Note_on_c, 2, 55, 0
4, 52739, Note_on_c, 2, 51, 0
4, 52740, Note_on_c, 2, 56, 100
4, 52740, Note_on_c, 2, 53, 100
4, 52740, Note_on_c, 2, 51, 100
4, 52979, Note_on_c, 2, 56, 0
4, 52980, Note_on_c, 2, 58, 100
4, 53279, Note_on_c, 2, 58, 0
4, 53279, Note_on_c, 2, 51, 0
4, 53279, Note_on_c, 2, 53, 0
4, 53280, Note_on_c, 2, 63, 100
4, 53280, Note_on_c, 2, 56, 100
4, 53280, Note_on_c, 2, 60, 100
4, 53459, Note_on_c, 2, 60, 0
4, 53459, Note_on_c, 2, 56, 0
4, 53459, Note_on_c, 2, 63, 0
4, 53460, Note_on_c, 2, 55, 100
4, 53460, Note_on_c, 2, 58, 100
4, 53460, Note_on_c, 2, 63, 100
4, 53759, Note_on_c, 2, 63, 0
4, 53759, Note_on_c, 2, 58, 0
4, 53759, Note_on_c, 2, 55, 0
4, 53760, Note_on_c, 2, 56, 100
4, 53760, Note_on_c, 2, 61, 100
4, 53760, Note_on_c, 2, 65, 100
4, 53999, Note_on_c, 2, 65, 0
4, 53999, Note_on_c, 2, 61, 0
4, 53999, Note_on_c, 2, 56, 0
4, 54000, Note_on_c, 2, 63, 100
4, 54000, Note_on_c, 2, 56, 100
4, 54000, Note_on_c, 2, 53, 100
4, 54239, Note_on_c, 2, 53, 0
4, 54239, Note_on_c, 2, 56, 0
4, 54239, Note_on_c, 2, 63, 0
4, 54240, Note_on_c, 2, 60, 100
4, 54240, Note_on_c, 2, 56, 100
4, 54240, Note_on_c, 2, 51, 100
4, 54419, Note_on_c, 2, 51, 0
4, 54419, Note_on_c, 2, 56, 0
4, 54419, Note_on_c, 2, 60, 0
4, 54420, Note_on_c, 2, 51, 100
4, 54420, Note_on_c, 2, 55, 100
4, 54420, Note_on_c, 2, 60, 100
4, 54659, Note_on_c, 2, 60, 0
4, 54659, Note_on_c, 2, 55, 0
4, 54659, Note_on_c, 2, 51, 0
4, 54660, Note_on_c, 2, 56, 100
4, 54660, Note_on_c, 2, 53, 100
4, 54660, Note_on_c, 2, 51, 100
4, 54899, Note_on_c, 2, 56, 0
4, 54900, Note_on_c, 2, 58, 100
4, 55199, Note_on_c, 2, 58, 0
4, 55199, Note_on_c, 2, 51, 0
4, 55199, Note_on_c, 2, 53, 0
4, 55200, Note_on_c, 2, 63, 100
4, 55200, Note_on_c, 2, 56, 100
4, 55200, Note_on_c, 2, 60, 100
4, 55379, Note_on_c, 2, 60, 0
4, 55379, Note_on_c, 2, 56, 0
4, 55379, Note_on_c, 2, 63, 0
4, 55380, Note_on_c, 2, 55, 100
4, 55380, Note_on_c, 2, 58, 100
4, 55380, Note_on_c, 2, 63, 100
4, 55679, Note_on_c, 2, 63, 0
4, 55679, Note_on_c, 2, 58, 0
4, 55679, Note_on_c, 2, 55, 0
4, 55680, Note_on_c, 2, 56, 100
4, 55680, Note_on_c, 2, 61, 100
4, 55680, Note_on_c, 2, 65, 100
4, 56159, Note_on_c, 2, 65, 0
4, 56159, Note_on_c, 2, 61, 0
4, 56159, Note_on_c, 2, 56, 0
4, 56160, Note_on_c, 2, 63, 100
4, 56160, Note_on_c, 2, 56, 100
4, 56160, Note_on_c, 2, 60, 100
4, 56639, Note_on_c, 2, 60, 0
4, 56639, Note_on_c, 2, 56, 0
4, 56639, Note_on_c, 2, 63, 0
4, 56640, Note_on_c, 2, 55, 100
4, 56640, Note_on_c, 2, 58, 100
4, 56640, Note_on_c, 2, 63, 100
4, 57119, Note_on_c, 2, 63, 0
4, 57119, Note_on_c, 2, 58, 0
4, 57119, Note_on_c, 2, 55, 0
4, 57120, Note_on_c, 2, 56, 100
4, 57120, Note_on_c, 2, 60, 100
4, 57120, Note_on_c, 2, 63, 100
4, 57299, Note_on_c, 2, 63, 0
4, 57299, Note_on_c, 2, 60, 0
4, 57299, Note_on_c, 2, 56, 0
4, 57300, Note_on_c, 2, 58, 100
4, 57300, Note_on_c, 2, 56, 100
4, 57300, Note_on_c, 2, 63, 100
4, 57359, Note_on_c, 2, 63, 0
4, 57359, Note_on_c, 2, 56, 0
4, 57359, Note_on_c, 2, 58, 0
4, 57360, Note_on_c, 2, 56, 100
4, 57360, Note_on_c, 2, 58, 100
4, 57360, Note_on_c, 2, 63, 100
4, 57539, Note_on_c, 2, 63, 0
4, 57539, Note_on_c, 2, 58, 0
4, 57539, Note_on_c, 2, 56, 0
4, 57540, Note_on_c, 2, 56, 100
4, 57540, Note_on_c, 2, 60, 100
4, 57540, Note_on_c, 2, 63, 100
4, 57599, Note_on_c, 2, 63, 0
4, 57599, Note_on_c, 2, 60, 0
4, 57599, Note_on_c, 2, 56, 0
4, 57600, Note_on_c, 2, 63, 100
4, 57600, Note_on_c, 2, 60, 100
4, 57600, Note_on_c, 2, 56, 100
4, 57779, Note_on_c, 2, 56, 0
4, 57779, Note_on_c, 2, 60, 0
4, 57779, Note_on_c, 2, 63, 0
4, 57780, Note_on_c, 2, 56, 100
4, 57780, Note_on_c, 2, 58, 100
4, 57780, Note_on_c, 2, 63, 100
4, 57839, Note_on_c, 2, 63, 0
4, 57839, Note_on_c, 2, 58, 0
4, 57839, Note_on_c, 2, 56, 0
4, 57840, Note_on_c, 2, 56, 100
4, 57840, Note_on_c, 2, 58, 100
4, 57840, Note_on_c, 2, 63, 100
4, 58019, Note_on_c, 2, 63, 0
4, 58019, Note_on_c, 2, 58, 0
4, 58019, Note_on_c, 2, 56, 0
4, 58020, Note_on_c, 2, 56, 100
4, 58020, Note_on_c, 2, 61, 100
4, 58020, Note_on_c, 2, 63, 100
4, 58079, Note_on_c, 2, 63, 0
4, 58079, Note_on_c, 2, 61, 0
4, 58079, Note_on_c, 2, 56, 0
4, 58080, Note_on_c, 2, 56, 100
4, 58080, Note_on_c, 2, 61, 100
4, 58080, Note_on_c, 2, 63, 100
4, 58259, Note_on_c, 2, 63, 0
4, 58259, Note_on_c, 2, 61, 0
4, 58259, Note_on_c, 2, 56, 0
4, 58260, Note_on_c, 2, 56, 100
4, 58260, Note_on_c, 2, 60, 100
4, 58260, Note_on_c, 2, 63, 100
4, 58319, Note_on_c, 2, 63, 0
4, 58319, Note_on_c, 2, 60, 0
4, 58319, Note_on_c, 2, 56, 0
4, 58320, Note_on_c, 2, 63, 100
4, 58320, Note_on_c, 2, 60, 100
4, 58320, Note_on_c, 2, 56, 100
4, 58499, Note_on_c, 2, 56, 0
4, 58499, Note_on_c, 2, 60, 0
4, 58499, Note_on_c, 2, 63, 0
4, 58500, Note_on_c, 2, 58, 100
4, 58500, Note_on_c, 2, 55, 100
4, 58500, Note_on_c, 2, 63, 100
4, 58559, Note_on_c, 2, 63, 0
4, 58559, Note_on_c, 2, 55, 0
4, 58559, Note_on_c, 2, 58, 0
4, 58560, Note_on_c, 2, 55, 100
4, 58560, Note_on_c, 2, 58, 100
4, 58560, Note_on_c, 2, 63, 100
4, 58739, Note_on_c, 2, 63, 0
4, 58739, Note_on_c, 2, 58, 0
4, 58739, Note_on_c, 2, 55, 0
4, 58740, Note_on_c, 2, 56, 100
4, 58740, Note_on_c, 2, 53, 100
4, 58740, Note_on_c, 2, 63, 100
4, 58799, Note_on_c, 2, 63, 0
4, 58799, Note_on_c, 2, 53, 0
4, 58799, Note_on_c, 2, 56, 0
4, 58800, Note_on_c, 2, 63, 100
4, 58800, Note_on_c, 2, 56, 100
4, 58800, Note_on_c, 2, 53, 100
4, 58979, Note_on_c, 2, 53, 0
4, 58979, Note_on_c, 2, 56, 0
4, 58979, Note_on_c, 2, 63, 0
4, 58980, Note_on_c, 2, 51, 100
4, 58980, Note_on_c, 2, 55, 100
4, 58980, Note_on_c, 2, 58, 100
4, 58980, Note_on_c, 2, 63, 100
4, 59039, Note_on_c, 2, 63, 0
4, 59039, Note_on_c, 2, 51, 0
4, 59039, Note_on_c, 2, 55, 0
4, 59039, Note_on_c, 2, 58, 0
4, 59040, Note_on_c, 2, 51, 100
4, 59040, Note_on_c, 2, 55, 100
4, 59040, Note_on_c, 2, 58, 100
4, 59040, Note_on_c, 2, 63, 100
4, 59219, Note_on_c, 2, 63, 0
4, 59219, Note_on_c, 2, 51, 0
4, 59219, Note_on_c, 2, 55, 0
4, 59219, Note_on_c, 2, 58, 0
4, 59220, Note_on_c, 2, 53, 100
4, 59220, Note_on_c, 2, 56, 100
4, 59220, Note_on_c, 2, 61, 100
4, 59220, Note_on_c, 2, 63, 100
4, 59279, Note_on_c, 2, 63, 0
4, 59279, Note_on_c, 2, 53, 0
4, 59279, Note_on_c, 2, 56, 0
4, 59279, Note_on_c, 2, 61, 0
4, 59280, Note_on_c, 2, 53, 100
4, 59280, Note_on_c, 2, 56, 100
4, 59280, Note_on_c, 2, 61, 100
4, 59280, Note_on_c, 2, 63, 100
4, 59939, Note_on_c, 2, 63, 0
4, 59939, Note_on_c, 2, 53, 0
4, 59939, Note_on_c, 2, 56, 0
4, 59939, Note_on_c, 2, 61, 0
4, 59940, Note_on_c, 2, 56, 100
4, 59940, Note_on_c, 2, 61, 100
4, 59940, Note_on_c, 2, 63, 100
4, 59999, Note_on_c, 2, 63, 0
4, 59999, Note_on_c, 2, 61, 0
4, 59999, Note_on_c, 2, 56, 0
4, 60000, Control_c, 2, 7, 50
4, 60000, Note_on_c, 2, 60, 100
4, 60000, Note_on_c, 2, 56, 100
4, 60000, Note_on_c, 2, 63, 100
4, 60057, Control_c, 2, 7, 49
4, 60115, Control_c, 2, 7, 48
4, 60172, Control_c, 2, 7, 47
4, 60179, Note_on_c, 2, 63, 0
4, 60179, Note_on_c, 2, 56, 0
4, 60179, Note_on_c, 2, 60, 0
4, 60179, Note_on_c, 2, 58, 100
4, 60179, Note_on_c, 2, 56, 100
4, 60179, Note_on_c, 2, 63, 100
4, 60230, Control_c, 2, 7, 46
4, 60238, Note_on_c, 2, 63, 0
4, 60238, Note_on_c, 2, 56, 0
4, 60238, Note_on_c, 2, 58, 0
4, 60239, Note_on_c, 2, 56, 100
4, 60239, Note_on_c, 2, 58, 100
4, 60239, Note_on_c, 2, 63, 100
4, 60287, Control_c, 2, 7, 45
4, 60345, Control_c, 2, 7, 44
4, 60403, Control_c, 2, 7, 43
4, 60418, Note_on_c, 2, 63, 0
4, 60418, Note_on_c, 2, 58, 0
4, 60418, Note_on_c, 2, 56, 0
4, 60419, Note_on_c, 2, 56, 100
4, 60419, Note_on_c, 2, 60, 100
4, 60419, Note_on_c, 2, 63, 100
4, 60460, Control_c, 2, 7, 42
4, 60478, Note_on_c, 2, 63, 0
4, 60478, Note_on_c, 2, 60, 0
4, 60478, Note_on_c, 2, 56, 0
4, 60479, Note_on_c, 2, 63, 100
4, 60479, Note_on_c, 2, 60, 100
4, 60479, Note_on_c, 2, 56, 100
4, 60518, Control_c, 2, 7, 41
4, 60575, Control_c, 2, 7, 40
4, 60633, Control_c, 2, 7, 39
4, 60658, Note_on_c, 2, 56, 0
4, 60658, Note_on_c, 2, 60, 0
4, 60658, Note_on_c, 2, 63, 0
4, 60659, Note_on_c, 2, 56, 100
4, 60659, Note_on_c, 2, 58, 100
4, 60659, Note_on_c, 2, 63, 100
4, 60690, Control_c, 2, 7, 38
4, 60718, Note_on_c, 2, 63, 0
4, 60718, Note_on_c, 2, 58, 0
4, 60718, Note_on_c, 2, 56, 0
4, 60719, Note_on_c, 2, 56, 100
4, 60719, Note_on_c, 2, 58, 100
4, 60719, Note_on_c, 2, 63, 100
4, 60748, Control_c, 2, 7, 37
4, 60806, Control_c, 2, 7, 36
4, 60863, Control_c, 2, 7, 35
4, 60898, Note_on_c, 2, 63, 0
4, 60898, Note_on_c, 2, 58, 0
4, 60898, Note_on_c, 2, 56, 0
4, 60899, Note_on_c, 2, 56, 100
4, 60899, Note_on_c, 2, 61, 100
4, 60899, Note_on_c, 2, 63, 100
4, 60921, Control_c, 2, 7, 34
4, 60958, Note_on_c, 2, 63, 0
4, 60958, Note_on_c, 2, 61, 0
4, 60958, Note_on_c, 2, 56, 0
4, 60959, Note_on_c, 2, 56, 100
4, 60959, Note_on_c, 2, 61, 100
4, 60959, Note_on_c, 2, 63, 100
4, 60978, Control_c, 2, 7, 33
4, 61036, Control_c, 2, 7, 32
4, 61094, Control_c, 2, 7, 31
4, 61138, Note_on_c, 2, 63, 0
4, 61138, Note_on_c, 2, 61, 0
4, 61138, Note_on_c, 2, 56, 0
4, 61139, Note_on_c, 2, 56, 100
4, 61139, Note_on_c, 2, 60, 100
4, 61139, Note_on_c, 2, 63, 100
4, 61151, Control_c, 2, 7, 30
4, 61198, Note_on_c, 2, 63, 0
4, 61198, Note_on_c, 2, 60, 0
4, 61198, Note_on_c, 2, 56, 0
4, 61199, Note_on_c, 2, 63, 100
4, 61199, Note_on_c, 2, 60, 100
4, 61199, Note_on_c, 2, 56, 100
4, 61209, Control_c, 2, 7, 29
4, 61266, Control_c, 2, 7, 28
4, 61324, Control_c, 2, 7, 27
4, 61378, Note_on_c, 2, 56, 0
4, 61378, Note_on_c, 2, 60, 0
4, 61378, Note_on_c, 2, 63, 0
4, 61379, Note_on_c, 2, 58, 100
4, 61379, Note_on_c, 2, 55, 100
4, 61379, Note_on_c, 2, 63, 100
4, 61381, Control_c, 2, 7, 26
4, 61438, Note_on_c, 2, 63, 0
4, 61438, Note_on_c, 2, 55, 0
4, 61438, Note_on_c, 2, 58, 0
4, 61439, Control_c, 2, 7, 25
4, 61439, Note_on_c, 2, 55, 100
4, 61439, Note_on_c, 2, 58, 100
4, 61439, Note_on_c, 2, 63, 100
4, 61497, Control_c, 2, 7, 24
4, 61554, Control_c, 2, 7, 23
4, 61612, Control_c, 2, 7, 22
4, 61618, Note_on_c, 2, 63, 0
4, 61618, Note_on_c, 2, 58, 0
4, 61618, Note_on_c, 2, 55, 0
4, 61619, Note_on_c, 2, 56, 100
4, 61619, Note_on_c, 2, 53, 100
4, 61619, Note_on_c, 2, 63, 100
4, 61669, Control_c, 2, 7, 21
4, 61678, Note_on_c, 2, 63, 0
4, 61678, Note_on_c, 2, 53, 0
4, 61678, Note_on_c, 2, 56, 0
4, 61679, Note_on_c, 2, 63, 100
4, 61679, Note_on_c, 2, 56, 100
4, 61679, Note_on_c, 2, 53, 100
4, 61727, Control_c, 2, 7, 20
4, 61784, Control_c, 2, 7, 19
4, 61842, Control_c, 2, 7, 18
4, 61858, Note_on_c, 2, 53, 0
4, 61858, Note_on_c, 2, 56, 0
4, 61858, Note_on_c, 2, 63, 0
4, 61859, Note_on_c, 2, 51, 100
4, 61859, Note_on_c, 2, 55, 100
4, 61859, Note_on_c, 2, 58, 100
4, 61859, Note_on_c, 2, 63, 100
4, 61900, Control_c, 2, 7, 17
4, 61918, Note_on_c, 2, 63, 0
4, 61918, Note_on_c, 2, 51, 0
4, 61918, Note_on_c, 2, 55, 0
4, 61918, Note_on_c, 2, 58, 0
4, 61919, Note_on_c, 2, 51, 100
4, 61919, Note_on_c, 2, 55, 100
4, 61919, Note_on_c, 2, 58, 100
4, 61919, Note_on_c, 2, 63, 100
4, 61957, Control_c, 2, 7, 16
4, 62015, Control_c, 2, 7, 15
4, 62072, Control_c, 2, 7, 14
4, 62098, Note_on_c, 2, 63, 0
4, 62098, Note_on_c, 2, 51, 0
4, 62098, Note_on_c, 2, 55, 0
4, 62098, Note_on_c, 2, 58, 0
4, 62099, Note_on_c, 2, 53, 100
4, 62099, Note_on_c, 2, 56, 100
4, 62099, Note_on_c, 2, 61, 100
4, 62099, Note_on_c, 2, 63, 100
4, 62130, Control_c, 2, 7, 13
4, 62158, Note_on_c, 2, 63, 0
4, 62158, Note_on_c, 2, 53, 0
4, 62158, Note_on_c, 2, 56, 0
4, 62158, Note_on_c, 2, 61, 0
4, 62159, Note_on_c, 2, 53, 100
4, 62159, Note_on_c, 2, 56, 100
4, 62159, Note_on_c, 2, 61, 100
4, 62159, Note_on_c, 2, 63, 100
4, 62188, Control_c, 2, 7, 12
4, 62245, Control_c, 2, 7, 11
4, 62303, Control_c, 2, 7, 10
4, 62360, Control_c, 2, 7, 9
4, 62418, Control_c, 2, 7, 8
4, 62475, Control_c, 2, 7, 7
4, 62533, Control_c, 2, 7, 6
4, 62591, Control_c, 2, 7, 5
4, 62648, Control_c, 2, 7, 4
4, 62706, Control_c, 2, 7, 3
4, 62763, Control_c, 2, 7, 2
4, 62821, Control_c, 2, 7, 1
4, 62878, Note_on_c, 2, 63, 0
4, 62878, Note_on_c, 2, 53, 0
4, 62878, Note_on_c, 2, 56, 0
4, 62878, Note_on_c, 2, 61, 0
4, 62879, Control_c, 2, 7, 0
4, 62879, End_track
5, 0, Start_track
5, 0, MIDI_port, 0
5, 0, Title_t, "Bass"
5, 0, Program_c, 3, 33
5, 0, Control_c, 3, 7, 100
5, 480, Note_on_c, 3, 32, 100
5, 720, Note_on_c, 3, 32, 0
5, 720, Note_on_c, 3, 32, 100
5, 900, Note_on_c, 3, 32, 0
5, 900, Note_on_c, 3, 32, 100
5, 960, Note_on_c, 3, 32, 0
5, 960, Note_on_c, 3, 32, 100
5, 1140, Note_on_c, 3, 32, 0
5, 1140, Note_on_c, 3, 32, 100
5, 1200, Note_on_c, 3, 32, 0
5, 1200, Note_on_c, 3, 32, 100
5, 1380, Note_on_c, 3, 32, 0
5, 1380, Note_on_c, 3, 34, 100
5, 1440, Note_on_c, 3, 34, 0
5, 1440, Note_on_c, 3, 34, 100
5, 1620, Note_on_c, 3, 34, 0
5, 1620, Note_on_c, 3, 34, 100
5, 1680, Note_on_c, 3, 34, 0
5, 1680, Note_on_c, 3, 34, 100
5, 1860, Note_on_c, 3, 34, 0
5, 1860, Note_on_c, 3, 41, 100
5, 1920, Note_on_c, 3, 41, 0
5, 1920, Note_on_c, 3, 41, 100
5, 2100, Note_on_c, 3, 41, 0
5, 2100, Note_on_c, 3, 39, 100
5, 2160, Note_on_c, 3, 39, 0
5, 2160, Note_on_c, 3, 39, 100
5, 2340, Note_on_c, 3, 39, 0
5, 2340, Note_on_c, 3, 37, 100
5, 2400, Note_on_c, 3, 37, 0
5, 2400, Note_on_c, 3, 37, 100
5, 3239, Note_on_c, 3, 37, 0
5, 3240, Note_on_c, 3, 41, 100
5, 3270, Note_on_c, 3, 41, 0
5, 3270, Note_on_c, 3, 43, 100
5, 3300, Note_on_c, 3, 43, 0
5, 3300, Note_on_c, 3, 44, 100
5, 3360, Note_on_c, 3, 44, 0
5, 3360, Note_on_c, 3, 32, 100
5, 3600, Note_on_c, 3, 32, 0
5, 3600, Note_on_c, 3, 32, 100
5, 3780, Note_on_c, 3, 32, 0
5, 3780, Note_on_c, 3, 32, 100
5, 3840, Note_on_c, 3, 32, 0
5, 3840, Note_on_c, 3, 32, 100
5, 4020, Note_on_c, 3, 32, 0
5, 4020, Note_on_c, 3, 32, 100
5, 4080, Note_on_c, 3, 32, 0
5, 4080, Note_on_c, 3, 32, 100
5, 4260, Note_on_c, 3, 32, 0
5, 4260, Note_on_c, 3, 34, 100
5, 4320, Note_on_c, 3, 34, 0
5, 4320, Note_on_c, 3, 34, 100
5, 4500, Note_on_c, 3, 34, 0
5, 4500, Note_on_c, 3, 34, 100
5, 4560, Note_on_c, 3, 34, 0
5, 4560, Note_on_c, 3, 34, 100
5, 4740, Note_on_c, 3, 34, 0
5, 4740, Note_on_c, 3, 41, 100
5, 4800, Note_on_c, 3, 41, 0
5, 4800, Note_on_c, 3, 41, 100
5, 4980, Note_on_c, 3, 41, 0
5, 4980, Note_on_c, 3, 39, 100
5, 5040, Note_on_c, 3, 39, 0
5, 5040, Note_on_c, 3, 39, 100
5, 5220, Note_on_c, 3, 39, 0
5, 5220, Note_on_c, 3, 37, 100
5, 5280, Note_on_c, 3, 37, 0
5, 5280, Note_on_c, 3, 37, 100
5, 5939, Note_on_c, 3, 37, 0
5, 5940, Note_on_c, 3, 37, 100
5, 5999, Note_on_c, 3, 37, 0
5, 6000, Note_on_c, 3, 41, 100
5, 6029, Note_on_c, 3, 41, 0
5, 6030, Note_on_c, 3, 43, 100
5, 6059, Note_on_c, 3, 43, 0
5, 6060, Note_on_c, 3, 44, 100
5, 6119, Note_on_c, 3, 44, 0
5, 6120, Note_on_c, 3, 41, 100
5, 6150, Note_on_c, 3, 41, 0
5, 6150, Note_on_c, 3, 43, 100
5, 6180, Note_on_c, 3, 43, 0
5, 6180, Note_on_c, 3, 44, 100
5, 6240, Note_on_c, 3, 44, 0
5, 6240, Note_on_c, 3, 32, 100
5, 6899, Note_on_c, 3, 32, 0
5, 6900, Note_on_c, 3, 44, 100
5, 7199, Note_on_c, 3, 44, 0
5, 7200, Note_on_c, 3, 37, 100
5, 7439, Note_on_c, 3, 37, 0
5, 7440, Note_on_c, 3, 37, 100
5, 7619, Note_on_c, 3, 37, 0
5, 7620, Note_on_c, 3, 37, 100
5, 7679, Note_on_c, 3, 37, 0
5, 7680, Note_on_c, 3, 37, 100
5, 8099, Note_on_c, 3, 37, 0
5, 8100, Note_on_c, 3, 32, 100
5, 8159, Note_on_c, 3, 32, 0
5, 8160, Note_on_c, 3, 32, 100
5, 8579, Note_on_c, 3, 32, 0
5, 8580, Note_on_c, 3, 32, 100
5, 8639, Note_on_c, 3, 32, 0
5, 8640, Note_on_c, 3, 32, 100
5, 8819, Note_on_c, 3, 32, 0
5, 8820, Note_on_c, 3, 32, 100
5, 8879, Note_on_c, 3, 32, 0
5, 8880, Note_on_c, 3, 32, 100
5, 9059, Note_on_c, 3, 32, 0
5, 9060, Note_on_c, 3, 37, 100
5, 9119, Note_on_c, 3, 37, 0
5, 9120, Note_on_c, 3, 37, 100
5, 9299, Note_on_c, 3, 37, 0
5, 9300, Note_on_c, 3, 49, 100
5, 9419, Note_on_c, 3, 49, 0
5, 9420, Note_on_c, 3, 48, 100
5, 9449, Note_on_c, 3, 48, 0
5, 9450, Note_on_c, 3, 49, 100
5, 9479, Note_on_c, 3, 49, 0
5, 9480, Note_on_c, 3, 48, 100
5, 9539, Note_on_c, 3, 48, 0
5, 9540, Note_on_c, 3, 46, 100
5, 9599, Note_on_c, 3, 46, 0
5, 9600, Note_on_c, 3, 37, 100
5, 10019, Note_on_c, 3, 37, 0
5, 10020, Note_on_c, 3, 44, 100
5, 10079, Note_on_c, 3, 44, 0
5, 10080, Note_on_c, 3, 32, 100
5, 10499, Note_on_c, 3, 32, 0
5, 10500, Note_on_c, 3, 32, 100
5, 10559, Note_on_c, 3, 32, 0
5, 10560, Note_on_c, 3, 32, 100
5, 10739, Note_on_c, 3, 32, 0
5, 10740, Note_on_c, 3, 32, 100
5, 10799, Note_on_c, 3, 32, 0
5, 10800, Note_on_c, 3, 32, 100
5, 10979, Note_on_c, 3, 32, 0
5, 10980, Note_on_c, 3, 37, 100
5, 11039, Note_on_c, 3, 37, 0
5, 11040, Note_on_c, 3, 37, 100
5, 11219, Note_on_c, 3, 37, 0
5, 11220, Note_on_c, 3, 37, 100
5, 11459, Note_on_c, 3, 37, 0
5, 11460, Note_on_c, 3, 37, 100
5, 11519, Note_on_c, 3, 37, 0
5, 11520, Note_on_c, 3, 37, 100
5, 11699, Note_on_c, 3, 37, 0
5, 11700, Note_on_c, 3, 37, 100
5, 11759, Note_on_c, 3, 37, 0
5, 11760, Note_on_c, 3, 37, 100
5, 11939, Note_on_c, 3, 37, 0
5, 11940, Note_on_c, 3, 32, 100
5, 11999, Note_on_c, 3, 32, 0
5, 12000, Note_on_c, 3, 32, 100
5, 12419, Note_on_c, 3, 32, 0
5, 12420, Note_on_c, 3, 32, 100
5, 12479, Note_on_c, 3, 32, 0
5, 12480, Note_on_c, 3, 32, 100
5, 12659, Note_on_c, 3, 32, 0
5, 12660, Note_on_c, 3, 32, 100
5, 12719, Note_on_c, 3, 32, 0
5, 12720, Note_on_c, 3, 32, 100
5, 12899, Note_on_c, 3, 32, 0
5, 12900, Note_on_c, 3, 37, 100
5, 12929, Note_on_c, 3, 37, 0
5, 12930, Note_on_c, 3, 39, 100
5, 12959, Note_on_c, 3, 39, 0
5, 12960, Note_on_c, 3, 41, 100
5, 13139, Note_on_c, 3, 41, 0
5, 13140, Note_on_c, 3, 37, 100
5, 13379, Note_on_c, 3, 37, 0
5, 13380, Note_on_c, 3, 39, 100
5, 13619, Note_on_c, 3, 39, 0
5, 13620, Note_on_c, 3, 39, 100
5, 13799, Note_on_c, 3, 39, 0
5, 13800, Note_on_c, 3, 37, 100
5, 13859, Note_on_c, 3, 37, 0
5, 13860, Note_on_c, 3, 39, 100
5, 13919, Note_on_c, 3, 39, 0
5, 13920, Note_on_c, 3, 41, 100
5, 14160, Note_on_c, 3, 41, 0
5, 14160, Note_on_c, 3, 36, 100
5, 14400, Note_on_c, 3, 36, 0
5, 14400, Note_on_c, 3, 34, 100
5, 14640, Note_on_c, 3, 34, 0
5, 14640, Note_on_c, 3, 37, 100
5, 14880, Note_on_c, 3, 37, 0
5, 14880, Note_on_c, 3, 41, 100
5, 15120, Note_on_c, 3, 41, 0
5, 15120, Note_on_c, 3, 37, 100
5, 15360, Note_on_c, 3, 37, 0
5, 15360, Note_on_c, 3, 39, 100
5, 15540, Note_on_c, 3, 39, 0
5, 15540, Note_on_c, 3, 39, 100
5, 15659, Note_on_c, 3, 39, 0
5, 15660, Note_on_c, 3, 37, 100
5, 15720, Note_on_c, 3, 37, 0
5, 15720, Note_on_c, 3, 39, 100
5, 15780, Note_on_c, 3, 39, 0
5, 15780, Note_on_c, 3, 44, 100
5, 15840, Note_on_c, 3, 44, 0
5, 15840, Note_on_c, 3, 41, 100
5, 16079, Note_on_c, 3, 41, 0
5, 16080, Note_on_c, 3, 36, 100
5, 16320, Note_on_c, 3, 36, 0
5, 16320, Note_on_c, 3, 34, 100
5, 16560, Note_on_c, 3, 34, 0
5, 16560, Note_on_c, 3, 37, 100
5, 16800, Note_on_c, 3, 37, 0
5, 16800, Note_on_c, 3, 41, 100
5, 17040, Note_on_c, 3, 41, 0
5, 17040, Note_on_c, 3, 37, 100
5, 17280, Note_on_c, 3, 37, 0
5, 17280, Note_on_c, 3, 39, 100
5, 17519, Note_on_c, 3, 39, 0
5, 17520, Note_on_c, 3, 51, 100
5, 17549, Note_on_c, 3, 51, 0
5, 17550, Note_on_c, 3, 53, 100
5, 17579, Note_on_c, 3, 53, 0
5, 17580, Note_on_c, 3, 51, 100
5, 17699, Note_on_c, 3, 51, 0
5, 17700, Note_on_c, 3, 39, 100
5, 17760, Note_on_c, 3, 39, 0
5, 17760, Note_on_c, 3, 32, 100
5, 17939, Note_on_c, 3, 32, 0
5, 17940, Note_on_c, 3, 39, 100
5, 18179, Note_on_c, 3, 39, 0
5, 18180, Note_on_c, 3, 37, 100
5, 18599, Note_on_c, 3, 37, 0
5, 18660, Note_on_c, 3, 39, 100
5, 18719, Note_on_c, 3, 39, 0
5, 18720, Note_on_c, 3, 41, 100
5, 18899, Note_on_c, 3, 41, 0
5, 18900, Note_on_c, 3, 36, 100
5, 18959, Note_on_c, 3, 36, 0
5, 18960, Note_on_c, 3, 36, 100
5, 19199, Note_on_c, 3, 36, 0
5, 19200, Note_on_c, 3, 34, 100
5, 19439, Note_on_c, 3, 34, 0
5, 19440, Note_on_c, 3, 37, 100
5, 19679, Note_on_c, 3, 37, 0
5, 19680, Note_on_c, 3, 32, 100
5, 19859, Note_on_c, 3, 32, 0
5, 19860, Note_on_c, 3, 39, 100
5, 20099, Note_on_c, 3, 39, 0
5, 20100, Note_on_c, 3, 37, 100
5, 20639, Note_on_c, 3, 37, 0
5, 20640, Note_on_c, 3, 41, 100
5, 20879, Note_on_c, 3, 41, 0
5, 20880, Note_on_c, 3, 36, 100
5, 21119, Note_on_c, 3, 36, 0
5, 21120, Note_on_c, 3, 34, 100
5, 21539, Note_on_c, 3, 34, 0
5, 21540, Note_on_c, 3, 37, 100
5, 21599, Note_on_c, 3, 37, 0
5, 21600, Note_on_c, 3, 37, 100
5, 22079, Note_on_c, 3, 37, 0
5, 22080, Note_on_c, 3, 39, 100
5, 22559, Note_on_c, 3, 39, 0
5, 22560, Note_on_c, 3, 32, 100
5, 22800, Note_on_c, 3, 32, 0
5, 22800, Note_on_c, 3, 32, 100
5, 22980, Note_on_c, 3, 32, 0
5, 22980, Note_on_c, 3, 32, 100
5, 23040, Note_on_c, 3, 32, 0
5, 23040, Note_on_c, 3, 32, 100
5, 23220, Note_on_c, 3, 32, 0
5, 23220, Note_on_c, 3, 32, 100
5, 23280, Note_on_c, 3, 32, 0
5, 23280, Note_on_c, 3, 32, 100
5, 23460, Note_on_c, 3, 32, 0
5, 23460, Note_on_c, 3, 34, 100
5, 23520, Note_on_c, 3, 34, 0
5, 23520, Note_on_c, 3, 34, 100
5, 23700, Note_on_c, 3, 34, 0
5, 23700, Note_on_c, 3, 34, 100
5, 23760, Note_on_c, 3, 34, 0
5, 23760, Note_on_c, 3, 34, 100
5, 23940, Note_on_c, 3, 34, 0
5, 23940, Note_on_c, 3, 41, 100
5, 24000, Note_on_c, 3, 41, 0
5, 24000, Note_on_c, 3, 41, 100
5, 24180, Note_on_c, 3, 41, 0
5, 24180, Note_on_c, 3, 39, 100
5, 24240, Note_on_c, 3, 39, 0
5, 24240, Note_on_c, 3, 39, 100
5, 24420, Note_on_c, 3, 39, 0
5, 24420, Note_on_c, 3, 37, 100
5, 24480, Note_on_c, 3, 37, 0
5, 24480, Note_on_c, 3, 37, 100
5, 25439, Note_on_c, 3, 37, 0
5, 25440, Note_on_c, 3, 32, 100
5, 26099, Note_on_c, 3, 32, 0
5, 26100, Note_on_c, 3, 44, 100
5, 26399, Note_on_c, 3, 44, 0
5, 26400, Note_on_c, 3, 37, 100
5, 26639, Note_on_c, 3, 37, 0
5, 26640, Note_on_c, 3, 37, 100
5, 26819, Note_on_c, 3, 37, 0
5, 26820, Note_on_c, 3, 37, 100
5, 26879, Note_on_c, 3, 37, 0
5, 26880, Note_on_c, 3, 37, 100
5, 27299, Note_on_c, 3, 37, 0
5, 27300, Note_on_c, 3, 32, 100
5, 27359, Note_on_c, 3, 32, 0
5, 27360, Note_on_c, 3, 32, 100
5, 27779, Note_on_c, 3, 32, 0
5, 27780, Note_on_c, 3, 32, 100
5, 27839, Note_on_c, 3, 32, 0
5, 27840, Note_on_c, 3, 32, 100
5, 28019, Note_on_c, 3, 32, 0
5, 28020, Note_on_c, 3, 32, 100
5, 28079, Note_on_c, 3, 32, 0
5, 28080, Note_on_c, 3, 32, 100
5, 28259, Note_on_c, 3, 32, 0
5, 28260, Note_on_c, 3, 37, 100
5, 28319, Note_on_c, 3, 37, 0
5, 28320, Note_on_c, 3, 37, 100
5, 28499, Note_on_c, 3, 37, 0
5, 28500, Note_on_c, 3, 49, 100
5, 28619, Note_on_c, 3, 49, 0
5, 28620, Note_on_c, 3, 48, 100
5, 28649, Note_on_c, 3, 48, 0
5, 28650, Note_on_c, 3, 49, 100
5, 28679, Note_on_c, 3, 49, 0
5, 28680, Note_on_c, 3, 48, 100
5, 28739, Note_on_c, 3, 48, 0
5, 28740, Note_on_c, 3, 46, 100
5, 28799, Note_on_c, 3, 46, 0
5, 28800, Note_on_c, 3, 37, 100
5, 29219, Note_on_c, 3, 37, 0
5, 29220, Note_on_c, 3, 44, 100
5, 29279, Note_on_c, 3, 44, 0
5, 29280, Note_on_c, 3, 32, 100
5, 29699, Note_on_c, 3, 32, 0
5, 29700, Note_on_c, 3, 32, 100
5, 29759, Note_on_c, 3, 32, 0
5, 29760, Note_on_c, 3, 32, 100
5, 29939, Note_on_c, 3, 32, 0
5, 29940, Note_on_c, 3, 32, 100
5, 29999, Note_on_c, 3, 32, 0
5, 30000, Note_on_c, 3, 32, 100
5, 30179, Note_on_c, 3, 32, 0
5, 30180, Note_on_c, 3, 37, 100
5, 30239, Note_on_c, 3, 37, 0
5, 30240, Note_on_c, 3, 37, 100
5, 30419, Note_on_c, 3, 37, 0
5, 30420, Note_on_c, 3, 37, 100
5, 30659, Note_on_c, 3, 37, 0
5, 30660, Note_on_c, 3, 37, 100
5, 30719, Note_on_c, 3, 37, 0
5, 30720, Note_on_c, 3, 37, 100
5, 30899, Note_on_c, 3, 37, 0
5, 30900, Note_on_c, 3, 37, 100
5, 30959, Note_on_c, 3, 37, 0
5, 30960, Note_on_c, 3, 37, 100
5, 31139, Note_on_c, 3, 37, 0
5, 31140, Note_on_c, 3, 32, 100
5, 31199, Note_on_c, 3, 32, 0
5, 31200, Note_on_c, 3, 32, 100
5, 31619, Note_on_c, 3, 32, 0
5, 31620, Note_on_c, 3, 32, 100
5, 31679, Note_on_c, 3, 32, 0
5, 31680, Note_on_c, 3, 32, 100
5, 31859, Note_on_c, 3, 32, 0
5, 31860, Note_on_c, 3, 32, 100
5, 31919, Note_on_c, 3, 32, 0
5, 31920, Note_on_c, 3, 32, 100
5, 32099, Note_on_c, 3, 32, 0
5, 32100, Note_on_c, 3, 37, 100
5, 32129, Note_on_c, 3, 37, 0
5, 32130, Note_on_c, 3, 39, 100
5, 32159, Note_on_c, 3, 39, 0
5, 32160, Note_on_c, 3, 41, 100
5, 32339, Note_on_c, 3, 41, 0
5, 32340, Note_on_c, 3, 37, 100
5, 32579, Note_on_c, 3, 37, 0
5, 32580, Note_on_c, 3, 39, 100
5, 32819, Note_on_c, 3, 39, 0
5, 32820, Note_on_c, 3, 39, 100
5, 32999, Note_on_c, 3, 39, 0
5, 33000, Note_on_c, 3, 37, 100
5, 33059, Note_on_c, 3, 37, 0
5, 33060, Note_on_c, 3, 39, 100
5, 33119, Note_on_c, 3, 39, 0
5, 33120, Note_on_c, 3, 41, 100
5, 33360, Note_on_c, 3, 41, 0
5, 33360, Note_on_c, 3, 36, 100
5, 33600, Note_on_c, 3, 36, 0
5, 33600, Note_on_c, 3, 34, 100
5, 33840, Note_on_c, 3, 34, 0
5, 33840, Note_on_c, 3, 37, 100
5, 34080, Note_on_c, 3, 37, 0
5, 34080, Note_on_c, 3, 41, 100
5, 34320, Note_on_c, 3, 41, 0
5, 34320, Note_on_c, 3, 37, 100
5, 34560, Note_on_c, 3, 37, 0
5, 34560, Note_on_c, 3, 39, 100
5, 34740, Note_on_c, 3, 39, 0
5, 34740, Note_on_c, 3, 39, 100
5, 34859, Note_on_c, 3, 39, 0
5, 34860, Note_on_c, 3, 37, 100
5, 34920, Note_on_c, 3, 37, 0
5, 34920, Note_on_c, 3, 39, 100
5, 34980, Note_on_c, 3, 39, 0
5, 34980, Note_on_c, 3, 44, 100
5, 35040, Note_on_c, 3, 44, 0
5, 35040, Note_on_c, 3, 41, 100
5, 35279, Note_on_c, 3, 41, 0
5, 35280, Note_on_c, 3, 36, 100
5, 35520, Note_on_c, 3, 36, 0
5, 35520, Note_on_c, 3, 34, 100
5, 35760, Note_on_c, 3, 34, 0
5, 35760, Note_on_c, 3, 37, 100
5, 36000, Note_on_c, 3, 37, 0
5, 36000, Note_on_c, 3, 41, 100
5, 36240, Note_on_c, 3, 41, 0
5, 36240, Note_on_c, 3, 37, 100
5, 36480, Note_on_c, 3, 37, 0
5, 36480, Note_on_c, 3, 39, 100
5, 36719, Note_on_c, 3, 39, 0
5, 36720, Note_on_c, 3, 51, 100
5, 36749, Note_on_c, 3, 51, 0
5, 36750, Note_on_c, 3, 53, 100
5, 36779, Note_on_c, 3, 53, 0
5, 36780, Note_on_c, 3, 51, 100
5, 36899, Note_on_c, 3, 51, 0
5, 36900, Note_on_c, 3, 39, 100
5, 36960, Note_on_c, 3, 39, 0
5, 36960, Note_on_c, 3, 32, 100
5, 37139, Note_on_c, 3, 32, 0
5, 37140, Note_on_c, 3, 39, 100
5, 37379, Note_on_c, 3, 39, 0
5, 37380, Note_on_c, 3, 37, 100
5, 37799, Note_on_c, 3, 37, 0
5, 37860, Note_on_c, 3, 39, 100
5, 37919, Note_on_c, 3, 39, 0
5, 37920, Note_on_c, 3, 41, 100
5, 38099, Note_on_c, 3, 41, 0
5, 38100, Note_on_c, 3, 36, 100
5, 38159, Note_on_c, 3, 36, 0
5, 38160, Note_on_c, 3, 36, 100
5, 38399, Note_on_c, 3, 36, 0
5, 38400, Note_on_c, 3, 34, 100
5, 38639, Note_on_c, 3, 34, 0
5, 38640, Note_on_c, 3, 37, 100
5, 38879, Note_on_c, 3, 37, 0
5, 38880, Note_on_c, 3, 32, 100
5, 39059, Note_on_c, 3, 32, 0
5, 39060, Note_on_c, 3, 39, 100
5, 39299, Note_on_c, 3, 39, 0
5, 39300, Note_on_c, 3, 37, 100
5, 39839, Note_on_c, 3, 37, 0
5, 39840, Note_on_c, 3, 41, 100
5, 40079, Note_on_c, 3, 41, 0
5, 40080, Note_on_c, 3, 36, 100
5, 40319, Note_on_c, 3, 36, 0
5, 40320, Note_on_c, 3, 34, 100
5, 40739, Note_on_c, 3, 34, 0
5, 40740, Note_on_c, 3, 37, 100
5, 40799, Note_on_c, 3, 37, 0
5, 40800, Note_on_c, 3, 37, 100
5, 41279, Note_on_c, 3, 37, 0
5, 41280, Note_on_c, 3, 39, 100
5, 41759, Note_on_c, 3, 39, 0
5, 41760, Note_on_c, 3, 32, 100
5, 42000, Note_on_c, 3, 32, 0
5, 42000, Note_on_c, 3, 32, 100
5, 42180, Note_on_c, 3, 32, 0
5, 42180, Note_on_c, 3, 32, 100
5, 42240, Note_on_c, 3, 32, 0
5, 42240, Note_on_c, 3, 32, 100
5, 42420, Note_on_c, 3, 32, 0
5, 42420, Note_on_c, 3, 32, 100
5, 42480, Note_on_c, 3, 32, 0
5, 42480, Note_on_c, 3, 32, 100
5, 42660, Note_on_c, 3, 32, 0
5, 42660, Note_on_c, 3, 34, 100
5, 42720, Note_on_c, 3, 34, 0
5, 42720, Note_on_c, 3, 34, 100
5, 42900, Note_on_c, 3, 34, 0
5, 42900, Note_on_c, 3, 34, 100
5, 42960, Note_on_c, 3, 34, 0
5, 42960, Note_on_c, 3, 34, 100
5, 43140, Note_on_c, 3, 34, 0
5, 43140, Note_on_c, 3, 41, 100
5, 43200, Note_on_c, 3, 41, 0
5, 43200, Note_on_c, 3, 41, 100
5, 43380, Note_on_c, 3, 41, 0
5, 43380, Note_on_c, 3, 39, 100
5, 43440, Note_on_c, 3, 39, 0
5, 43440, Note_on_c, 3, 39, 100
5, 43620, Note_on_c, 3, 39, 0
5, 43620, Note_on_c, 3, 37, 100
5, 43680, Note_on_c, 3, 37, 0
5, 43680, Note_on_c, 3, 37, 100
5, 44639, Note_on_c, 3, 37, 0
5, 44640, Note_on_c, 3, 32, 100
5, 45299, Note_on_c, 3, 32, 0
5, 45300, Note_on_c, 3, 44, 100
5, 45599, Note_on_c, 3, 44, 0
5, 45600, Note_on_c, 3, 37, 100
5, 45839, Note_on_c, 3, 37, 0
5, 45840, Note_on_c, 3, 37, 100
5, 46019, Note_on_c, 3, 37, 0
5, 46020, Note_on_c, 3, 37, 100
5, 46079, Note_on_c, 3, 37, 0
5, 46080, Note_on_c, 3, 37, 100
5, 46499, Note_on_c, 3, 37, 0
5, 46500, Note_on_c, 3, 32, 100
5, 46559, Note_on_c, 3, 32, 0
5, 46560, Note_on_c, 3, 32, 100
5, 46979, Note_on_c, 3, 32, 0
5, 46980, Note_on_c, 3, 32, 100
5, 47039, Note_on_c, 3, 32, 0
5, 47040, Note_on_c, 3, 32, 100
5, 47219, Note_on_c, 3, 32, 0
5, 47220, Note_on_c, 3, 32, 100
5, 47279, Note_on_c, 3, 32, 0
5, 47280, Note_on_c, 3, 32, 100
5, 47459, Note_on_c, 3, 32, 0
5, 47460, Note_on_c, 3, 37, 100
5, 47519, Note_on_c, 3, 37, 0
5, 47520, Note_on_c, 3, 37, 100
5, 47699, Note_on_c, 3, 37, 0
5, 47700, Note_on_c, 3, 49, 100
5, 47819, Note_on_c, 3, 49, 0
5, 47820, Note_on_c, 3, 48, 100
5, 47849, Note_on_c, 3, 48, 0
5, 47850, Note_on_c, 3, 49, 100
5, 47879, Note_on_c, 3, 49, 0
5, 47880, Note_on_c, 3, 48, 100
5, 47939, Note_on_c, 3, 48, 0
5, 47940, Note_on_c, 3, 46, 100
5, 47999, Note_on_c, 3, 46, 0
5, 48000, Note_on_c, 3, 37, 100
5, 48419, Note_on_c, 3, 37, 0
5, 48420, Note_on_c, 3, 44, 100
5, 48479, Note_on_c, 3, 44, 0
5, 48480, Note_on_c, 3, 32, 100
5, 48899, Note_on_c, 3, 32, 0
5, 48900, Note_on_c, 3, 32, 100
5, 48959, Note_on_c, 3, 32, 0
5, 48960, Note_on_c, 3, 32, 100
5, 49139, Note_on_c, 3, 32, 0
5, 49140, Note_on_c, 3, 32, 100
5, 49199, Note_on_c, 3, 32, 0
5, 49200, Note_on_c, 3, 32, 100
5, 49379, Note_on_c, 3, 32, 0
5, 49380, Note_on_c, 3, 37, 100
5, 49439, Note_on_c, 3, 37, 0
5, 49440, Note_on_c, 3, 37, 100
5, 49619, Note_on_c, 3, 37, 0
5, 49620, Note_on_c, 3, 37, 100
5, 49859, Note_on_c, 3, 37, 0
5, 49860, Note_on_c, 3, 37, 100
5, 49919, Note_on_c, 3, 37, 0
5, 49920, Note_on_c, 3, 37, 100
5, 50099, Note_on_c, 3, 37, 0
5, 50100, Note_on_c, 3, 37, 100
5, 50159, Note_on_c, 3, 37, 0
5, 50160, Note_on_c, 3, 37, 100
5, 50339, Note_on_c, 3, 37, 0
5, 50340, Note_on_c, 3, 32, 100
5, 50399, Note_on_c, 3, 32, 0
5, 50400, Note_on_c, 3, 32, 100
5, 50819, Note_on_c, 3, 32, 0
5, 50820, Note_on_c, 3, 32, 100
5, 50879, Note_on_c, 3, 32, 0
5, 50880, Note_on_c, 3, 32, 100
5, 51059, Note_on_c, 3, 32, 0
5, 51060, Note_on_c, 3, 32, 100
5, 51119, Note_on_c, 3, 32, 0
5, 51120, Note_on_c, 3, 32, 100
5, 51299, Note_on_c, 3, 32, 0
5, 51300, Note_on_c, 3, 37, 100
5, 51329, Note_on_c, 3, 37, 0
5, 51330, Note_on_c, 3, 39, 100
5, 51359, Note_on_c, 3, 39, 0
5, 51360, Note_on_c, 3, 41, 100
5, 51539, Note_on_c, 3, 41, 0
5, 51540, Note_on_c, 3, 37, 100
5, 51779, Note_on_c, 3, 37, 0
5, 51780, Note_on_c, 3, 39, 100
5, 51899, Note_on_c, 3, 39, 0
5, 51900, Note_on_c, 3, 39, 100
5, 51959, Note_on_c, 3, 39, 0
5, 51960, Note_on_c, 3, 51, 100
5, 51989, Note_on_c, 3, 51, 0
5, 51990, Note_on_c, 3, 53, 100
5, 52019, Note_on_c, 3, 53, 0
5, 52020, Note_on_c, 3, 39, 100
5, 52079, Note_on_c, 3, 39, 0
5, 52080, Note_on_c, 3, 53, 100
5, 52139, Note_on_c, 3, 53, 0
5, 52140, Note_on_c, 3, 51, 100
5, 52199, Note_on_c, 3, 51, 0
5, 52200, Note_on_c, 3, 49, 100
5, 52259, Note_on_c, 3, 49, 0
5, 52260, Note_on_c, 3, 48, 100
5, 52319, Note_on_c, 3, 48, 0
5, 52320, Note_on_c, 3, 44, 100
5, 52499, Note_on_c, 3, 44, 0
5, 52500, Note_on_c, 3, 39, 100
5, 52559, Note_on_c, 3, 39, 0
5, 52560, Note_on_c, 3, 39, 100
5, 52739, Note_on_c, 3, 39, 0
5, 52740, Note_on_c, 3, 37, 100
5, 53279, Note_on_c, 3, 37, 0
5, 53280, Note_on_c, 3, 41, 100
5, 53519, Note_on_c, 3, 41, 0
5, 53520, Note_on_c, 3, 36, 100
5, 53759, Note_on_c, 3, 36, 0
5, 53760, Note_on_c, 3, 34, 100
5, 53999, Note_on_c, 3, 34, 0
5, 54000, Note_on_c, 3, 37, 100
5, 54179, Note_on_c, 3, 37, 0
5, 54180, Note_on_c, 3, 32, 100
5, 54239, Note_on_c, 3, 32, 0
5, 54240, Note_on_c, 3, 32, 100
5, 54419, Note_on_c, 3, 32, 0
5, 54420, Note_on_c, 3, 39, 100
5, 54479, Note_on_c, 3, 39, 0
5, 54480, Note_on_c, 3, 39, 100
5, 54659, Note_on_c, 3, 39, 0
5, 54660, Note_on_c, 3, 37, 100
5, 54719, Note_on_c, 3, 37, 0
5, 54720, Note_on_c, 3, 37, 100
5, 55019, Note_on_c, 3, 37, 0
5, 55020, Note_on_c, 3, 37, 100
5, 55079, Note_on_c, 3, 37, 0
5, 55080, Note_on_c, 3, 39, 100
5, 55139, Note_on_c, 3, 39, 0
5, 55140, Note_on_c, 3, 44, 100
5, 55199, Note_on_c, 3, 44, 0
5, 55200, Note_on_c, 3, 41, 100
5, 55439, Note_on_c, 3, 41, 0
5, 55440, Note_on_c, 3, 36, 100
5, 55619, Note_on_c, 3, 36, 0
5, 55620, Note_on_c, 3, 36, 100
5, 55679, Note_on_c, 3, 36, 0
5, 55680, Note_on_c, 3, 34, 100
5, 55859, Note_on_c, 3, 34, 0
5, 55860, Note_on_c, 3, 34, 100
5, 55979, Note_on_c, 3, 34, 0
5, 55980, Note_on_c, 3, 41, 100
5, 56039, Note_on_c, 3, 41, 0
5, 56040, Note_on_c, 3, 39, 100
5, 56099, Note_on_c, 3, 39, 0
5, 56100, Note_on_c, 3, 36, 100
5, 56159, Note_on_c, 3, 36, 0
5, 56160, Note_on_c, 3, 37, 100
5, 56399, Note_on_c, 3, 37, 0
5, 56400, Note_on_c, 3, 53, 100
5, 56459, Note_on_c, 3, 53, 0
5, 56460, Note_on_c, 3, 51, 100
5, 56519, Note_on_c, 3, 51, 0
5, 56520, Note_on_c, 3, 48, 100
5, 56579, Note_on_c, 3, 48, 0
5, 56580, Note_on_c, 3, 49, 100
5, 56639, Note_on_c, 3, 49, 0
5, 56640, Note_on_c, 3, 51, 100
5, 56819, Note_on_c, 3, 51, 0
5, 56820, Note_on_c, 3, 39, 100
5, 56879, Note_on_c, 3, 39, 0
5, 56880, Note_on_c, 3, 39, 100
5, 57119, Note_on_c, 3, 39, 0
5, 57120, Note_on_c, 3, 32, 100
5, 57360, Note_on_c, 3, 32, 0
5, 57360, Note_on_c, 3, 32, 100
5, 57540, Note_on_c, 3, 32, 0
5, 57540, Note_on_c, 3, 32, 100
5, 57600, Note_on_c, 3, 32, 0
5, 57600, Note_on_c, 3, 32, 100
5, 57780, Note_on_c, 3, 32, 0
5, 57780, Note_on_c, 3, 32, 100
5, 57840, Note_on_c, 3, 32, 0
5, 57840, Note_on_c, 3, 32, 100
5, 57959, Note_on_c, 3, 32, 0
5, 57960, Note_on_c, 3, 41, 100
5, 57989, Note_on_c, 3, 41, 0
5, 57990, Note_on_c, 3, 43, 100
5, 58019, Note_on_c, 3, 43, 0
5, 58020, Note_on_c, 3, 44, 100
5, 58080, Note_on_c, 3, 44, 0
5, 58080, Note_on_c, 3, 34, 100
5, 58260, Note_on_c, 3, 34, 0
5, 58260, Note_on_c, 3, 34, 100
5, 58320, Note_on_c, 3, 34, 0
5, 58320, Note_on_c, 3, 34, 100
5, 58500, Note_on_c, 3, 34, 0
5, 58500, Note_on_c, 3, 41, 100
5, 58560, Note_on_c, 3, 41, 0
5, 58560, Note_on_c, 3, 41, 100
5, 58740, Note_on_c, 3, 41, 0
5, 58740, Note_on_c, 3, 39, 100
5, 58800, Note_on_c, 3, 39, 0
5, 58800, Note_on_c, 3, 39, 100
5, 58980, Note_on_c, 3, 39, 0
5, 58980, Note_on_c, 3, 37, 100
5, 59040, Note_on_c, 3, 37, 0
5, 59040, Note_on_c, 3, 37, 100
5, 59999, Note_on_c, 3, 37, 0
5, 60000, Control_c, 3, 7, 100
5, 60000, Control_c, 3, 7, 100
5, 60000, Control_c, 3, 7, 100
5, 60000, Note_on_c, 3, 32, 100
5, 60028, Control_c, 3, 7, 99
5, 60028, Control_c, 3, 7, 99
5, 60028, Control_c, 3, 7, 99
5, 60057, Control_c, 3, 7, 98
5, 60057, Control_c, 3, 7, 98
5, 60057, Control_c, 3, 7, 98
5, 60086, Control_c, 3, 7, 97
5, 60086, Control_c, 3, 7, 97
5, 60086, Control_c, 3, 7, 97
5, 60115, Control_c, 3, 7, 96
5, 60115, Control_c, 3, 7, 96
5, 60115, Control_c, 3, 7, 96
5, 60143, Control_c, 3, 7, 95
5, 60143, Control_c, 3, 7, 95
5, 60143, Control_c, 3, 7, 95
5, 60172, Control_c, 3, 7, 94
5, 60172, Control_c, 3, 7, 94
5, 60172, Control_c, 3, 7, 94
5, 60201, Control_c, 3, 7, 93
5, 60201, Control_c, 3, 7, 93
5, 60201, Control_c, 3, 7, 93
5, 60230, Control_c, 3, 7, 92
5, 60230, Control_c, 3, 7, 92
5, 60230, Control_c, 3, 7, 92
5, 60259, Control_c, 3, 7, 91
5, 60259, Control_c, 3, 7, 91
5, 60259, Control_c, 3, 7, 91
5, 60287, Control_c, 3, 7, 90
5, 60287, Control_c, 3, 7, 90
5, 60287, Control_c, 3, 7, 90
5, 60316, Control_c, 3, 7, 89
5, 60316, Control_c, 3, 7, 89
5, 60316, Control_c, 3, 7, 89
5, 60345, Control_c, 3, 7, 88
5, 60345, Control_c, 3, 7, 88
5, 60345, Control_c, 3, 7, 88
5, 60374, Control_c, 3, 7, 87
5, 60374, Control_c, 3, 7, 87
5, 60374, Control_c, 3, 7, 87
5, 60403, Control_c, 3, 7, 86
5, 60403, Control_c, 3, 7, 86
5, 60403, Control_c, 3, 7, 86
5, 60431, Control_c, 3, 7, 85
5, 60431, Control_c, 3, 7, 85
5, 60431, Control_c, 3, 7, 85
5, 60460, Control_c, 3, 7, 84
5, 60460, Control_c, 3, 7, 84
5, 60460, Control_c, 3, 7, 84
5, 60479, Note_on_c, 3, 32, 0
5, 60479, Note_on_c, 3, 32, 100
5, 60489, Control_c, 3, 7, 83
5, 60489, Control_c, 3, 7, 83
5, 60489, Control_c, 3, 7, 83
5, 60518, Control_c, 3, 7, 82
5, 60518, Control_c, 3, 7, 82
5, 60518, Control_c, 3, 7, 82
5, 60547, Control_c, 3, 7, 81
5, 60547, Control_c, 3, 7, 81
5, 60547, Control_c, 3, 7, 81
5, 60575, Control_c, 3, 7, 80
5, 60575, Control_c, 3, 7, 80
5, 60575, Control_c, 3, 7, 80
5, 60604, Control_c, 3, 7, 79
5, 60604, Control_c, 3, 7, 79
5, 60604, Control_c, 3, 7, 79
5, 60633, Control_c, 3, 7, 78
5, 60633, Control_c, 3, 7, 78
5, 60633, Control_c, 3, 7, 78
5, 60659, Note_on_c, 3, 32, 0
5, 60659, Note_on_c, 3, 32, 100
5, 60662, Control_c, 3, 7, 77
5, 60662, Control_c, 3, 7, 77
5, 60662, Control_c, 3, 7, 77
5, 60690, Control_c, 3, 7, 76
5, 60690, Control_c, 3, 7, 76
5, 60690, Control_c, 3, 7, 76
5, 60719, Note_on_c, 3, 32, 0
5, 60719, Control_c, 3, 7, 75
5, 60719, Control_c, 3, 7, 75
5, 60719, Control_c, 3, 7, 75
5, 60719, Note_on_c, 3, 32, 100
5, 60748, Control_c, 3, 7, 74
5, 60748, Control_c, 3, 7, 74
5, 60748, Control_c, 3, 7, 74
5, 60777, Control_c, 3, 7, 73
5, 60777, Control_c, 3, 7, 73
5, 60777, Control_c, 3, 7, 73
5, 60806, Control_c, 3, 7, 72
5, 60806, Control_c, 3, 7, 72
5, 60806, Control_c, 3, 7, 72
5, 60834, Control_c, 3, 7, 71
5, 60834, Control_c, 3, 7, 71
5, 60834, Control_c, 3, 7, 71
5, 60838, Note_on_c, 3, 32, 0
5, 60839, Note_on_c, 3, 41, 100
5, 60863, Control_c, 3, 7, 70
5, 60863, Control_c, 3, 7, 70
5, 60863, Control_c, 3, 7, 70
5, 60868, Note_on_c, 3, 41, 0
5, 60869, Note_on_c, 3, 43, 100
5, 60892, Control_c, 3, 7, 69
5, 60892, Control_c, 3, 7, 69
5, 60892, Control_c, 3, 7, 69
5, 60898, Note_on_c, 3, 43, 0
5, 60899, Note_on_c, 3, 44, 100
5, 60921, Control_c, 3, 7, 68
5, 60921, Control_c, 3, 7, 68
5, 60921, Control_c, 3, 7, 68
5, 60950, Control_c, 3, 7, 67
5, 60950, Control_c, 3, 7, 67
5, 60950, Control_c, 3, 7, 67
5, 60959, Note_on_c, 3, 44, 0
5, 60959, Note_on_c, 3, 34, 100
5, 60978, Control_c, 3, 7, 66
5, 60978, Control_c, 3, 7, 66
5, 60978, Control_c, 3, 7, 66
5, 61007, Control_c, 3, 7, 65
5, 61007, Control_c, 3, 7, 65
5, 61007, Control_c, 3, 7, 65
5, 61036, Control_c, 3, 7, 64
5, 61036, Control_c, 3, 7, 64
5, 61036, Control_c, 3, 7, 64
5, 61065, Control_c, 3, 7, 63
5, 61065, Control_c, 3, 7, 63
5, 61065, Control_c, 3, 7, 63
5, 61094, Control_c, 3, 7, 62
5, 61094, Control_c, 3, 7, 62
5, 61094, Control_c, 3, 7, 62
5, 61122, Control_c, 3, 7, 61
5, 61122, Control_c, 3, 7, 61
5, 61122, Control_c, 3, 7, 61
5, 61139, Note_on_c, 3, 34, 0
5, 61139, Note_on_c, 3, 34, 100
5, 61151, Control_c, 3, 7, 60
5, 61151, Control_c, 3, 7, 60
5, 61151, Control_c, 3, 7, 60
5, 61180, Control_c, 3, 7, 59
5, 61180, Control_c, 3, 7, 59
5, 61180, Control_c, 3, 7, 59
5, 61199, Note_on_c, 3, 34, 0
5, 61199, Note_on_c, 3, 34, 100
5, 61209, Control_c, 3, 7, 58
5, 61209, Control_c, 3, 7, 58
5, 61209, Control_c, 3, 7, 58
5, 61237, Control_c, 3, 7, 57
5, 61237, Control_c, 3, 7, 57
5, 61237, Control_c, 3, 7, 57
5, 61266, Control_c, 3, 7, 56
5, 61266, Control_c, 3, 7, 56
5, 61266, Control_c, 3, 7, 56
5, 61295, Control_c, 3, 7, 55
5, 61295, Control_c, 3, 7, 55
5, 61295, Control_c, 3, 7, 55
5, 61324, Control_c, 3, 7, 54
5, 61324, Control_c, 3, 7, 54
5, 61324, Control_c, 3, 7, 54
5, 61353, Control_c, 3, 7, 53
5, 61353, Control_c, 3, 7, 53
5, 61353, Control_c, 3, 7, 53
5, 61379, Note_on_c, 3, 34, 0
5, 61379, Note_on_c, 3, 41, 100
5, 61381, Control_c, 3, 7, 52
5, 61381, Control_c, 3, 7, 52
5, 61381, Control_c, 3, 7, 52
5, 61410, Control_c, 3, 7, 51
5, 61410, Control_c, 3, 7, 51
5, 61410, Control_c, 3, 7, 51
5, 61439, Note_on_c, 3, 41, 0
5, 61439, Control_c, 3, 7, 50
5, 61439, Control_c, 3, 7, 50
5, 61439, Control_c, 3, 7, 50
5, 61439, Note_on_c, 3, 41, 100
5, 61468, Control_c, 3, 7, 49
5, 61468, Control_c, 3, 7, 49
5, 61468, Control_c, 3, 7, 49
5, 61497, Control_c, 3, 7, 48
5, 61497, Control_c, 3, 7, 48
5, 61497, Control_c, 3, 7, 48
5, 61525, Control_c, 3, 7, 47
5, 61525, Control_c, 3, 7, 47
5, 61525, Control_c, 3, 7, 47
5, 61554, Control_c, 3, 7, 46
5, 61554, Control_c, 3, 7, 46
5, 61554, Control_c, 3, 7, 46
5, 61583, Control_c, 3, 7, 45
5, 61583, Control_c, 3, 7, 45
5, 61583, Control_c, 3, 7, 45
5, 61612, Control_c, 3, 7, 44
5, 61612, Control_c, 3, 7, 44
5, 61612, Control_c, 3, 7, 44
5, 61619, Note_on_c, 3, 41, 0
5, 61619, Note_on_c, 3, 39, 100
5, 61641, Control_c, 3, 7, 43
5, 61641, Control_c, 3, 7, 43
5, 61641, Control_c, 3, 7, 43
5, 61669, Control_c, 3, 7, 42
5, 61669, Control_c, 3, 7, 42
5, 61669, Control_c, 3, 7, 42
5, 61679, Note_on_c, 3, 39, 0
5, 61679, Note_on_c, 3, 39, 100
5, 61698, Control_c, 3, 7, 41
5, 61698, Control_c, 3, 7, 41
5, 61698, Control_c, 3, 7, 41
5, 61727, Control_c, 3, 7, 40
5, 61727, Control_c, 3, 7, 40
5, 61727, Control_c, 3, 7, 40
5, 61756, Control_c, 3, 7, 39
5, 61756, Control_c, 3, 7, 39
5, 61756, Control_c, 3, 7, 39
5, 61784, Control_c, 3, 7, 38
5, 61784, Control_c, 3, 7, 38
5, 61784, Control_c, 3, 7, 38
5, 61813, Control_c, 3, 7, 37
5, 61813, Control_c, 3, 7, 37
5, 61813, Control_c, 3, 7, 37
5, 61842, Control_c, 3, 7, 36
5, 61842, Control_c, 3, 7, 36
5, 61842, Control_c, 3, 7, 36
5, 61859, Note_on_c, 3, 39, 0
5, 61859, Note_on_c, 3, 37, 100
5, 61871, Control_c, 3, 7, 35
5, 61871, Control_c, 3, 7, 35
5, 61871, Control_c, 3, 7, 35
5, 61900, Control_c, 3, 7, 34
5, 61900, Control_c, 3, 7, 34
5, 61900, Control_c, 3, 7, 34
5, 61919, Note_on_c, 3, 37, 0
5, 61919, Note_on_c, 3, 37, 100
5, 61928, Control_c, 3, 7, 33
5, 61928, Control_c, 3, 7, 33
5, 61928, Control_c, 3, 7, 33
5, 61957, Control_c, 3, 7, 32
5, 61957, Control_c, 3, 7, 32
5, 61957, Control_c, 3, 7, 32
5, 61986, Control_c, 3, 7, 31
5, 61986, Control_c, 3, 7, 31
5, 61986, Control_c, 3, 7, 31
5, 62015, Control_c, 3, 7, 30
5, 62015, Control_c, 3, 7, 30
5, 62015, Control_c, 3, 7, 30
5, 62044, Control_c, 3, 7, 29
5, 62044, Control_c, 3, 7, 29
5, 62044, Control_c, 3, 7, 29
5, 62072, Control_c, 3, 7, 28
5, 62072, Control_c, 3, 7, 28
5, 62072, Control_c, 3, 7, 28
5, 62101, Control_c, 3, 7, 27
5, 62101, Control_c, 3, 7, 27
5, 62101, Control_c, 3, 7, 27
5, 62130, Control_c, 3, 7, 26
5, 62130, Control_c, 3, 7, 26
5, 62130, Control_c, 3, 7, 26
5, 62159, Control_c, 3, 7, 25
5, 62159, Control_c, 3, 7, 25
5, 62159, Control_c, 3, 7, 25
5, 62188, Control_c, 3, 7, 24
5, 62188, Control_c, 3, 7, 24
5, 62188, Control_c, 3, 7, 24
5, 62216, Control_c, 3, 7, 23
5, 62216, Control_c, 3, 7, 23
5, 62216, Control_c, 3, 7, 23
5, 62245, Control_c, 3, 7, 22
5, 62245, Control_c, 3, 7, 22
5, 62245, Control_c, 3, 7, 22
5, 62274, Control_c, 3, 7, 21
5, 62274, Control_c, 3, 7, 21
5, 62274, Control_c, 3, 7, 21
5, 62303, Control_c, 3, 7, 20
5, 62303, Control_c, 3, 7, 20
5, 62303, Control_c, 3, 7, 20
5, 62331, Control_c, 3, 7, 19
5, 62331, Control_c, 3, 7, 19
5, 62331, Control_c, 3, 7, 19
5, 62360, Control_c, 3, 7, 18
5, 62360, Control_c, 3, 7, 18
5, 62360, Control_c, 3, 7, 18
5, 62389, Control_c, 3, 7, 17
5, 62389, Control_c, 3, 7, 17
5, 62389, Control_c, 3, 7, 17
5, 62418, Control_c, 3, 7, 16
5, 62418, Control_c, 3, 7, 16
5, 62418, Control_c, 3, 7, 16
5, 62447, Control_c, 3, 7, 15
5, 62447, Control_c, 3, 7, 15
5, 62447, Control_c, 3, 7, 15
5, 62475, Control_c, 3, 7, 14
5, 62475, Control_c, 3, 7, 14
5, 62475, Control_c, 3, 7, 14
5, 62504, Control_c, 3, 7, 13
5, 62504, Control_c, 3, 7, 13
5, 62504, Control_c, 3, 7, 13
5, 62533, Control_c, 3, 7, 12
5, 62533, Control_c, 3, 7, 12
5, 62533, Control_c, 3, 7, 12
5, 62562, Control_c, 3, 7, 11
5, 62562, Control_c, 3, 7, 11
5, 62562, Control_c, 3, 7, 11
5, 62591, Control_c, 3, 7, 10
5, 62591, Control_c, 3, 7, 10
5, 62591, Control_c, 3, 7, 10
5, 62619, Control_c, 3, 7, 9
5, 62619, Control_c, 3, 7, 9
5, 62619, Control_c, 3, 7, 9
5, 62648, Control_c, 3, 7, 8
5, 62648, Control_c, 3, 7, 8
5, 62648, Control_c, 3, 7, 8
5, 62677, Control_c, 3, 7, 7
5, 62677, Control_c, 3, 7, 7
5, 62677, Control_c, 3, 7, 7
5, 62706, Control_c, 3, 7, 6
5, 62706, Control_c, 3, 7, 6
5, 62706, Control_c, 3, 7, 6
5, 62735, Control_c, 3, 7, 5
5, 62735, Control_c, 3, 7, 5
5, 62735, Control_c, 3, 7, 5
5, 62763, Control_c, 3, 7, 4
5, 62763, Control_c, 3, 7, 4
5, 62763, Control_c, 3, 7, 4
5, 62792, Control_c, 3, 7, 3
5, 62792, Control_c, 3, 7, 3
5, 62792, Control_c, 3, 7, 3
5, 62821, Control_c, 3, 7, 2
5, 62821, Control_c, 3, 7, 2
5, 62821, Control_c, 3, 7, 2
5, 62850, Control_c, 3, 7, 1
5, 62850, Control_c, 3, 7, 1
5, 62850, Control_c, 3, 7, 1
5, 62878, Note_on_c, 3, 37, 0
5, 62879, Control_c, 3, 7, 0
5, 62879, Control_c, 3, 7, 0
5, 62879, Control_c, 3, 7, 0
5, 62879, End_track
6, 0, Start_track
6, 0, MIDI_port, 0
6, 0, End_track
7, 0, Start_track
7, 0, MIDI_port, 0
7, 0, Title_t, "Drums"
7, 0, Control_c, 9, 7, 100
7, 480, Note_on_c, 9, 42, 100
7, 480, Note_on_c, 9, 35, 100
7, 494, Note_on_c, 9, 35, 0
7, 494, Note_on_c, 9, 42, 0
7, 540, Note_on_c, 9, 42, 100
7, 554, Note_on_c, 9, 42, 0
7, 600, Note_on_c, 9, 38, 100
7, 600, Note_on_c, 9, 42, 100
7, 600, Note_on_c, 9, 39, 60
7, 614, Note_on_c, 9, 39, 0
7, 614, Note_on_c, 9, 42, 0
7, 614, Note_on_c, 9, 38, 0
7, 660, Note_on_c, 9, 42, 100
7, 660, Note_on_c, 9, 35, 100
7, 674, Note_on_c, 9, 35, 0
7, 674, Note_on_c, 9, 42, 0
7, 720, Note_on_c, 9, 42, 100
7, 720, Note_on_c, 9, 35, 100
7, 734, Note_on_c, 9, 35, 0
7, 734, Note_on_c, 9, 42, 0
7, 780, Note_on_c, 9, 42, 100
7, 794, Note_on_c, 9, 42, 0
7, 840, Note_on_c, 9, 38, 100
7, 840, Note_on_c, 9, 42, 100
7, 840, Note_on_c, 9, 39, 60
7, 854, Note_on_c, 9, 39, 0
7, 854, Note_on_c, 9, 42, 0
7, 854, Note_on_c, 9, 38, 0
7, 900, Note_on_c, 9, 42, 100
7, 900, Note_on_c, 9, 35, 100
7, 914, Note_on_c, 9, 35, 0
7, 914, Note_on_c, 9, 42, 0
7, 960, Note_on_c, 9, 42, 100
7, 960, Note_on_c, 9, 35, 100
7, 974, Note_on_c, 9, 35, 0
7, 974, Note_on_c, 9, 42, 0
7, 1020, Note_on_c, 9, 42, 100
7, 1034, Note_on_c, 9, 42, 0
7, 1080, Note_on_c, 9, 38, 100
7, 1080, Note_on_c, 9, 42, 100
7, 1080, Note_on_c, 9, 39, 60
7, 1094, Note_on_c, 9, 39, 0
7, 1094, Note_on_c, 9, 42, 0
7, 1094, Note_on_c, 9, 38, 0
7, 1140, Note_on_c, 9, 42, 100
7, 1140, Note_on_c, 9, 35, 100
7, 1154, Note_on_c, 9, 35, 0
7, 1154, Note_on_c, 9, 42, 0
7, 1200, Note_on_c, 9, 42, 100
7, 1200, Note_on_c, 9, 35, 100
7, 1214, Note_on_c, 9, 35, 0
7, 1214, Note_on_c, 9, 42, 0
7, 1260, Note_on_c, 9, 42, 100
7, 1274, Note_on_c, 9, 42, 0
7, 1320, Note_on_c, 9, 38, 100
7, 1320, Note_on_c, 9, 42, 100
7, 1320, Note_on_c, 9, 39, 60
7, 1334, Note_on_c, 9, 39, 0
7, 1334, Note_on_c, 9, 42, 0
7, 1334, Note_on_c, 9, 38, 0
7, 1380, Note_on_c, 9, 42, 100
7, 1380, Note_on_c, 9, 35, 100
7, 1394, Note_on_c, 9, 35, 0
7, 1394, Note_on_c, 9, 42, 0
7, 1440, Note_on_c, 9, 42, 100
7, 1440, Note_on_c, 9, 35, 100
7, 1454, Note_on_c, 9, 35, 0
7, 1454, Note_on_c, 9, 42, 0
7, 1500, Note_on_c, 9, 42, 100
7, 1514, Note_on_c, 9, 42, 0
7, 1560, Note_on_c, 9, 38, 100
7, 1560, Note_on_c, 9, 42, 100
7, 1560, Note_on_c, 9, 39, 60
7, 1574, Note_on_c, 9, 39, 0
7, 1574, Note_on_c, 9, 42, 0
7, 1574, Note_on_c, 9, 38, 0
7, 1620, Note_on_c, 9, 42, 100
7, 1620, Note_on_c, 9, 35, 100
7, 1634, Note_on_c, 9, 35, 0
7, 1634, Note_on_c, 9, 42, 0
7, 1680, Note_on_c, 9, 42, 100
7, 1680, Note_on_c, 9, 35, 100
7, 1694, Note_on_c, 9, 35, 0
7, 1694, Note_on_c, 9, 42, 0
7, 1740, Note_on_c, 9, 42, 100
7, 1754, Note_on_c, 9, 42, 0
7, 1800, Note_on_c, 9, 38, 100
7, 1800, Note_on_c, 9, 42, 100
7, 1800, Note_on_c, 9, 39, 60
7, 1814, Note_on_c, 9, 39, 0
7, 1814, Note_on_c, 9, 42, 0
7, 1814, Note_on_c, 9, 38, 0
7, 1860, Note_on_c, 9, 42, 100
7, 1860, Note_on_c, 9, 35, 100
7, 1874, Note_on_c, 9, 35, 0
7, 1874, Note_on_c, 9, 42, 0
7, 1920, Note_on_c, 9, 42, 100
7, 1920, Note_on_c, 9, 35, 100
7, 1934, Note_on_c, 9, 35, 0
7, 1934, Note_on_c, 9, 42, 0
7, 1980, Note_on_c, 9, 42, 100
7, 1994, Note_on_c, 9, 42, 0
7, 2040, Note_on_c, 9, 38, 100
7, 2040, Note_on_c, 9, 42, 100
7, 2040, Note_on_c, 9, 39, 60
7, 2054, Note_on_c, 9, 39, 0
7, 2054, Note_on_c, 9, 42, 0
7, 2054, Note_on_c, 9, 38, 0
7, 2100, Note_on_c, 9, 42, 100
7, 2100, Note_on_c, 9, 35, 100
7, 2114, Note_on_c, 9, 35, 0
7, 2114, Note_on_c, 9, 42, 0
7, 2160, Note_on_c, 9, 42, 100
7, 2160, Note_on_c, 9, 35, 100
7, 2174, Note_on_c, 9, 35, 0
7, 2174, Note_on_c, 9, 42, 0
7, 2220, Note_on_c, 9, 42, 100
7, 2234, Note_on_c, 9, 42, 0
7, 2280, Note_on_c, 9, 38, 100
7, 2280, Note_on_c, 9, 42, 100
7, 2280, Note_on_c, 9, 39, 60
7, 2294, Note_on_c, 9, 39, 0
7, 2294, Note_on_c, 9, 42, 0
7, 2294, Note_on_c, 9, 38, 0
7, 2340, Note_on_c, 9, 42, 100
7, 2340, Note_on_c, 9, 35, 100
7, 2354, Note_on_c, 9, 35, 0
7, 2354, Note_on_c, 9, 42, 0
7, 2400, Note_on_c, 9, 42, 100
7, 2400, Note_on_c, 9, 35, 100
7, 2414, Note_on_c, 9, 35, 0
7, 2414, Note_on_c, 9, 42, 0
7, 2460, Note_on_c, 9, 42, 100
7, 2474, Note_on_c, 9, 42, 0
7, 2520, Note_on_c, 9, 38, 100
7, 2520, Note_on_c, 9, 42, 100
7, 2520, Note_on_c, 9, 39, 60
7, 2534, Note_on_c, 9, 39, 0
7, 2534, Note_on_c, 9, 42, 0
7, 2534, Note_on_c, 9, 38, 0
7, 2580, Note_on_c, 9, 42, 100
7, 2580, Note_on_c, 9, 35, 100
7, 2594, Note_on_c, 9, 35, 0
7, 2594, Note_on_c, 9, 42, 0
7, 2640, Note_on_c, 9, 42, 100
7, 2640, Note_on_c, 9, 35, 100
7, 2654, Note_on_c, 9, 35, 0
7, 2654, Note_on_c, 9, 42, 0
7, 2700, Note_on_c, 9, 42, 100
7, 2714, Note_on_c, 9, 42, 0
7, 2760, Note_on_c, 9, 38, 100
7, 2760, Note_on_c, 9, 42, 100
7, 2760, Note_on_c, 9, 39, 60
7, 2774, Note_on_c, 9, 39, 0
7, 2774, Note_on_c, 9, 42, 0
7, 2774, Note_on_c, 9, 38, 0
7, 2820, Note_on_c, 9, 42, 100
7, 2820, Note_on_c, 9, 35, 100
7, 2834, Note_on_c, 9, 35, 0
7, 2834, Note_on_c, 9, 42, 0
7, 2880, Note_on_c, 9, 42, 100
7, 2880, Note_on_c, 9, 35, 100
7, 2894, Note_on_c, 9, 35, 0
7, 2894, Note_on_c, 9, 42, 0
7, 2940, Note_on_c, 9, 42, 100
7, 2954, Note_on_c, 9, 42, 0
7, 3000, Note_on_c, 9, 38, 100
7, 3000, Note_on_c, 9, 42, 100
7, 3000, Note_on_c, 9, 39, 60
7, 3014, Note_on_c, 9, 39, 0
7, 3014, Note_on_c, 9, 42, 0
7, 3014, Note_on_c, 9, 38, 0
7, 3060, Note_on_c, 9, 42, 100
7, 3060, Note_on_c, 9, 35, 100
7, 3074, Note_on_c, 9, 35, 0
7, 3074, Note_on_c, 9, 42, 0
7, 3120, Note_on_c, 9, 42, 100
7, 3120, Note_on_c, 9, 35, 100
7, 3134, Note_on_c, 9, 35, 0
7, 3134, Note_on_c, 9, 42, 0
7, 3180, Note_on_c, 9, 42, 100
7, 3194, Note_on_c, 9, 42, 0
7, 3240, Note_on_c, 9, 38, 100
7, 3240, Note_on_c, 9, 42, 100
7, 3240, Note_on_c, 9, 39, 60
7, 3254, Note_on_c, 9, 39, 0
7, 3254, Note_on_c, 9, 42, 0
7, 3254, Note_on_c, 9, 38, 0
7, 3300, Note_on_c, 9, 42, 100
7, 3300, Note_on_c, 9, 35, 100
7, 3314, Note_on_c, 9, 35, 0
7, 3314, Note_on_c, 9, 42, 0
7, 3360, Note_on_c, 9, 42, 100
7, 3360, Note_on_c, 9, 35, 100
7, 3374, Note_on_c, 9, 35, 0
7, 3374, Note_on_c, 9, 42, 0
7, 3420, Note_on_c, 9, 42, 100
7, 3434, Note_on_c, 9, 42, 0
7, 3480, Note_on_c, 9, 38, 100
7, 3480, Note_on_c, 9, 42, 100
7, 3480, Note_on_c, 9, 39, 60
7, 3494, Note_on_c, 9, 39, 0
7, 3494, Note_on_c, 9, 42, 0
7, 3494, Note_on_c, 9, 38, 0
7, 3540, Note_on_c, 9, 42, 100
7, 3540, Note_on_c, 9, 35, 100
7, 3554, Note_on_c, 9, 35, 0
7, 3554, Note_on_c, 9, 42, 0
7, 3600, Note_on_c, 9, 42, 100
7, 3600, Note_on_c, 9, 35, 100
7, 3614, Note_on_c, 9, 35, 0
7, 3614, Note_on_c, 9, 42, 0
7, 3660, Note_on_c, 9, 42, 100
7, 3674, Note_on_c, 9, 42, 0
7, 3720, Note_on_c, 9, 38, 100
7, 3720, Note_on_c, 9, 42, 100
7, 3720, Note_on_c, 9, 39, 60
7, 3734, Note_on_c, 9, 39, 0
7, 3734, Note_on_c, 9, 42, 0
7, 3734, Note_on_c, 9, 38, 0
7, 3780, Note_on_c, 9, 42, 100
7, 3780, Note_on_c, 9, 35, 100
7, 3794, Note_on_c, 9, 35, 0
7, 3794, Note_on_c, 9, 42, 0
7, 3840, Note_on_c, 9, 42, 100
7, 3840, Note_on_c, 9, 35, 100
7, 3854, Note_on_c, 9, 35, 0
7, 3854, Note_on_c, 9, 42, 0
7, 3900, Note_on_c, 9, 42, 100
7, 3914, Note_on_c, 9, 42, 0
7, 3960, Note_on_c, 9, 38, 100
7, 3960, Note_on_c, 9, 42, 100
7, 3960, Note_on_c, 9, 39, 60
7, 3974, Note_on_c, 9, 39, 0
7, 3974, Note_on_c, 9, 42, 0
7, 3974, Note_on_c, 9, 38, 0
7, 4020, Note_on_c, 9, 42, 100
7, 4020, Note_on_c, 9, 35, 100
7, 4034, Note_on_c, 9, 35, 0
7, 4034, Note_on_c, 9, 42, 0
7, 4080, Note_on_c, 9, 42, 100
7, 4080, Note_on_c, 9, 35, 100
7, 4094, Note_on_c, 9, 35, 0
7, 4094, Note_on_c, 9, 42, 0
7, 4140, Note_on_c, 9, 42, 100
7, 4154, Note_on_c, 9, 42, 0
7, 4200, Note_on_c, 9, 38, 100
7, 4200, Note_on_c, 9, 42, 100
7, 4200, Note_on_c, 9, 39, 60
7, 4214, Note_on_c, 9, 39, 0
7, 4214, Note_on_c, 9, 42, 0
7, 4214, Note_on_c, 9, 38, 0
7, 4260, Note_on_c, 9, 42, 100
7, 4260, Note_on_c, 9, 35, 100
7, 4274, Note_on_c, 9, 35, 0
7, 4274, Note_on_c, 9, 42, 0
7, 4320, Note_on_c, 9, 42, 100
7, 4320, Note_on_c, 9, 35, 100
7, 4334, Note_on_c, 9, 35, 0
7, 4334, Note_on_c, 9, 42, 0
7, 4380, Note_on_c, 9, 42, 100
7, 4394, Note_on_c, 9, 42, 0
7, 4440, Note_on_c, 9, 38, 100
7, 4440, Note_on_c, 9, 42, 100
7, 4440, Note_on_c, 9, 39, 60
7, 4454, Note_on_c, 9, 39, 0
7, 4454, Note_on_c, 9, 42, 0
7, 4454, Note_on_c, 9, 38, 0
7, 4500, Note_on_c, 9, 42, 100
7, 4500, Note_on_c, 9, 35, 100
7, 4514, Note_on_c, 9, 35, 0
7, 4514, Note_on_c, 9, 42, 0
7, 4560, Note_on_c, 9, 42, 100
7, 4560, Note_on_c, 9, 35, 100
7, 4574, Note_on_c, 9, 35, 0
7, 4574, Note_on_c, 9, 42, 0
7, 4620, Note_on_c, 9, 42, 100
7, 4634, Note_on_c, 9, 42, 0
7, 4680, Note_on_c, 9, 38, 100
7, 4680, Note_on_c, 9, 42, 100
7, 4680, Note_on_c, 9, 39, 60
7, 4694, Note_on_c, 9, 39, 0
7, 4694, Note_on_c, 9, 42, 0
7, 4694, Note_on_c, 9, 38, 0
7, 4740, Note_on_c, 9, 42, 100
7, 4740, Note_on_c, 9, 35, 100
7, 4754, Note_on_c, 9, 35, 0
7, 4754, Note_on_c, 9, 42, 0
7, 4800, Note_on_c, 9, 42, 100
7, 4800, Note_on_c, 9, 35, 100
7, 4814, Note_on_c, 9, 35, 0
7, 4814, Note_on_c, 9, 42, 0
7, 4860, Note_on_c, 9, 42, 100
7, 4874, Note_on_c, 9, 42, 0
7, 4920, Note_on_c, 9, 38, 100
7, 4920, Note_on_c, 9, 42, 100
7, 4920, Note_on_c, 9, 39, 60
7, 4934, Note_on_c, 9, 39, 0
7, 4934, Note_on_c, 9, 42, 0
7, 4934, Note_on_c, 9, 38, 0
7, 4980, Note_on_c, 9, 42, 100
7, 4980, Note_on_c, 9, 35, 100
7, 4994, Note_on_c, 9, 35, 0
7, 4994, Note_on_c, 9, 42, 0
7, 5040, Note_on_c, 9, 42, 100
7, 5040, Note_on_c, 9, 35, 100
7, 5054, Note_on_c, 9, 35, 0
7, 5054, Note_on_c, 9, 42, 0
7, 5100, Note_on_c, 9, 42, 100
7, 5114, Note_on_c, 9, 42, 0
7, 5160, Note_on_c, 9, 38, 100
7, 5160, Note_on_c, 9, 42, 100
7, 5160, Note_on_c, 9, 39, 60
7, 5174, Note_on_c, 9, 39, 0
7, 5174, Note_on_c, 9, 42, 0
7, 5174, Note_on_c, 9, 38, 0
7, 5220, Note_on_c, 9, 42, 100
7, 5220, Note_on_c, 9, 35, 100
7, 5234, Note_on_c, 9, 35, 0
7, 5234, Note_on_c, 9, 42, 0
7, 5280, Note_on_c, 9, 42, 100
7, 5280, Note_on_c, 9, 35, 100
7, 5294, Note_on_c, 9, 35, 0
7, 5294, Note_on_c, 9, 42, 0
7, 5340, Note_on_c, 9, 42, 100
7, 5354, Note_on_c, 9, 42, 0
7, 5400, Note_on_c, 9, 38, 100
7, 5400, Note_on_c, 9, 42, 100
7, 5400, Note_on_c, 9, 39, 60
7, 5414, Note_on_c, 9, 39, 0
7, 5414, Note_on_c, 9, 42, 0
7, 5414, Note_on_c, 9, 38, 0
7, 5460, Note_on_c, 9, 42, 100
7, 5460, Note_on_c, 9, 35, 100
7, 5474, Note_on_c, 9, 35, 0
7, 5474, Note_on_c, 9, 42, 0
7, 5520, Note_on_c, 9, 42, 100
7, 5520, Note_on_c, 9, 35, 100
7, 5534, Note_on_c, 9, 35, 0
7, 5534, Note_on_c, 9, 42, 0
7, 5580, Note_on_c, 9, 42, 100
7, 5594, Note_on_c, 9, 42, 0
7, 5640, Note_on_c, 9, 38, 100
7, 5640, Note_on_c, 9, 42, 100
7, 5640, Note_on_c, 9, 39, 60
7, 5654, Note_on_c, 9, 39, 0
7, 5654, Note_on_c, 9, 42, 0
7, 5654, Note_on_c, 9, 38, 0
7, 5700, Note_on_c, 9, 42, 100
7, 5700, Note_on_c, 9, 35, 100
7, 5714, Note_on_c, 9, 35, 0
7, 5714, Note_on_c, 9, 42, 0
7, 5760, Note_on_c, 9, 42, 100
7, 5760, Note_on_c, 9, 35, 100
7, 5774, Note_on_c, 9, 35, 0
7, 5774, Note_on_c, 9, 42, 0
7, 5820, Note_on_c, 9, 42, 100
7, 5834, Note_on_c, 9, 42, 0
7, 5880, Note_on_c, 9, 38, 100
7, 5880, Note_on_c, 9, 42, 100
7, 5880, Note_on_c, 9, 39, 60
7, 5894, Note_on_c, 9, 39, 0
7, 5894, Note_on_c, 9, 42, 0
7, 5894, Note_on_c, 9, 38, 0
7, 5940, Note_on_c, 9, 42, 100
7, 5940, Note_on_c, 9, 35, 100
7, 5954, Note_on_c, 9, 35, 0
7, 5954, Note_on_c, 9, 42, 0
7, 6000, Note_on_c, 9, 42, 100
7, 6000, Note_on_c, 9, 35, 100
7, 6014, Note_on_c, 9, 35, 0
7, 6014, Note_on_c, 9, 42, 0
7, 6060, Note_on_c, 9, 42, 100
7, 6074, Note_on_c, 9, 42, 0
7, 6120, Note_on_c, 9, 38, 100
7, 6120, Note_on_c, 9, 42, 100
7, 6120, Note_on_c, 9, 39, 60
7, 6134, Note_on_c, 9, 39, 0
7, 6134, Note_on_c, 9, 42, 0
7, 6134, Note_on_c, 9, 38, 0
7, 6180, Note_on_c, 9, 42, 100
7, 6180, Note_on_c, 9, 35, 100
7, 6194, Note_on_c, 9, 35, 0
7, 6194, Note_on_c, 9, 42, 0
7, 6240, Note_on_c, 9, 42, 100
7, 6240, Note_on_c, 9, 35, 100
7, 6254, Note_on_c, 9, 35, 0
7, 6254, Note_on_c, 9, 42, 0
7, 6300, Note_on_c, 9, 42, 100
7, 6314, Note_on_c, 9, 42, 0
7, 6360, Note_on_c, 9, 38, 100
7, 6360, Note_on_c, 9, 42, 100
7, 6360, Note_on_c, 9, 39, 60
7, 6374, Note_on_c, 9, 39, 0
7, 6374, Note_on_c, 9, 42, 0
7, 6374, Note_on_c, 9, 38, 0
7, 6420, Note_on_c, 9, 42, 100
7, 6420, Note_on_c, 9, 35, 100
7, 6434, Note_on_c, 9, 35, 0
7, 6434, Note_on_c, 9, 42, 0
7, 6480, Note_on_c, 9, 42, 100
7, 6480, Note_on_c, 9, 35, 100
7, 6494, Note_on_c, 9, 35, 0
7, 6494, Note_on_c, 9, 42, 0
7, 6540, Note_on_c, 9, 42, 100
7, 6554, Note_on_c, 9, 42, 0
7, 6600, Note_on_c, 9, 38, 100
7, 6600, Note_on_c, 9, 42, 100
7, 6600, Note_on_c, 9, 39, 60
7, 6614, Note_on_c, 9, 39, 0
7, 6614, Note_on_c, 9, 42, 0
7, 6614, Note_on_c, 9, 38, 0
7, 6660, Note_on_c, 9, 42, 100
7, 6660, Note_on_c, 9, 35, 100
7, 6674, Note_on_c, 9, 35, 0
7, 6674, Note_on_c, 9, 42, 0
7, 6720, Note_on_c, 9, 42, 100
7, 6720, Note_on_c, 9, 35, 100
7, 6734, Note_on_c, 9, 35, 0
7, 6734, Note_on_c, 9, 42, 0
7, 6780, Note_on_c, 9, 42, 100
7, 6794, Note_on_c, 9, 42, 0
7, 6840, Note_on_c, 9, 38, 100
7, 6840, Note_on_c, 9, 42, 100
7, 6840, Note_on_c, 9, 39, 60
7, 6854, Note_on_c, 9, 39, 0
7, 6854, Note_on_c, 9, 42, 0
7, 6854, Note_on_c, 9, 38, 0
7, 6900, Note_on_c, 9, 42, 100
7, 6900, Note_on_c, 9, 35, 100
7, 6914, Note_on_c, 9, 35, 0
7, 6914, Note_on_c, 9, 42, 0
7, 6960, Note_on_c, 9, 42, 100
7, 6960, Note_on_c, 9, 35, 100
7, 6974, Note_on_c, 9, 35, 0
7, 6974, Note_on_c, 9, 42, 0
7, 7020, Note_on_c, 9, 42, 100
7, 7034, Note_on_c, 9, 42, 0
7, 7080, Note_on_c, 9, 38, 100
7, 7080, Note_on_c, 9, 42, 100
7, 7080, Note_on_c, 9, 39, 60
7, 7094, Note_on_c, 9, 39, 0
7, 7094, Note_on_c, 9, 42, 0
7, 7094, Note_on_c, 9, 38, 0
7, 7140, Note_on_c, 9, 42, 100
7, 7140, Note_on_c, 9, 35, 100
7, 7154, Note_on_c, 9, 35, 0
7, 7154, Note_on_c, 9, 42, 0
7, 7200, Note_on_c, 9, 42, 100
7, 7200, Note_on_c, 9, 35, 100
7, 7214, Note_on_c, 9, 35, 0
7, 7214, Note_on_c, 9, 42, 0
7, 7260, Note_on_c, 9, 42, 100
7, 7274, Note_on_c, 9, 42, 0
7, 7320, Note_on_c, 9, 38, 100
7, 7320, Note_on_c, 9, 42, 100
7, 7320, Note_on_c, 9, 39, 60
7, 7334, Note_on_c, 9, 39, 0
7, 7334, Note_on_c, 9, 42, 0
7, 7334, Note_on_c, 9, 38, 0
7, 7380, Note_on_c, 9, 42, 100
7, 7380, Note_on_c, 9, 35, 100
7, 7394, Note_on_c, 9, 35, 0
7, 7394, Note_on_c, 9, 42, 0
7, 7440, Note_on_c, 9, 42, 100
7, 7440, Note_on_c, 9, 35, 100
7, 7454, Note_on_c, 9, 35, 0
7, 7454, Note_on_c, 9, 42, 0
7, 7500, Note_on_c, 9, 42, 100
7, 7514, Note_on_c, 9, 42, 0
7, 7560, Note_on_c, 9, 38, 100
7, 7560, Note_on_c, 9, 42, 100
7, 7560, Note_on_c, 9, 39, 60
7, 7574, Note_on_c, 9, 39, 0
7, 7574, Note_on_c, 9, 42, 0
7, 7574, Note_on_c, 9, 38, 0
7, 7620, Note_on_c, 9, 42, 100
7, 7620, Note_on_c, 9, 35, 100
7, 7634, Note_on_c, 9, 35, 0
7, 7634, Note_on_c, 9, 42, 0
7, 7680, Note_on_c, 9, 42, 100
7, 7680, Note_on_c, 9, 35, 100
7, 7694, Note_on_c, 9, 35, 0
7, 7694, Note_on_c, 9, 42, 0
7, 7740, Note_on_c, 9, 42, 100
7, 7754, Note_on_c, 9, 42, 0
7, 7800, Note_on_c, 9, 38, 100
7, 7800, Note_on_c, 9, 42, 100
7, 7800, Note_on_c, 9, 39, 60
7, 7814, Note_on_c, 9, 39, 0
7, 7814, Note_on_c, 9, 42, 0
7, 7814, Note_on_c, 9, 38, 0
7, 7860, Note_on_c, 9, 42, 100
7, 7860, Note_on_c, 9, 35, 100
7, 7874, Note_on_c, 9, 35, 0
7, 7874, Note_on_c, 9, 42, 0
7, 7920, Note_on_c, 9, 42, 100
7, 7920, Note_on_c, 9, 35, 100
7, 7934, Note_on_c, 9, 35, 0
7, 7934, Note_on_c, 9, 42, 0
7, 7980, Note_on_c, 9, 42, 100
7, 7994, Note_on_c, 9, 42, 0
7, 8040, Note_on_c, 9, 38, 100
7, 8040, Note_on_c, 9, 42, 100
7, 8040, Note_on_c, 9, 39, 60
7, 8054, Note_on_c, 9, 39, 0
7, 8054, Note_on_c, 9, 42, 0
7, 8054, Note_on_c, 9, 38, 0
7, 8100, Note_on_c, 9, 42, 100
7, 8100, Note_on_c, 9, 35, 100
7, 8114, Note_on_c, 9, 35, 0
7, 8114, Note_on_c, 9, 42, 0
7, 8160, Note_on_c, 9, 42, 100
7, 8160, Note_on_c, 9, 35, 100
7, 8174, Note_on_c, 9, 35, 0
7, 8174, Note_on_c, 9, 42, 0
7, 8220, Note_on_c, 9, 42, 100
7, 8234, Note_on_c, 9, 42, 0
7, 8280, Note_on_c, 9, 38, 100
7, 8280, Note_on_c, 9, 42, 100
7, 8280, Note_on_c, 9, 39, 60
7, 8294, Note_on_c, 9, 39, 0
7, 8294, Note_on_c, 9, 42, 0
7, 8294, Note_on_c, 9, 38, 0
7, 8340, Note_on_c, 9, 42, 100
7, 8340, Note_on_c, 9, 35, 100
7, 8354, Note_on_c, 9, 35, 0
7, 8354, Note_on_c, 9, 42, 0
7, 8400, Note_on_c, 9, 42, 100
7, 8400, Note_on_c, 9, 35, 100
7, 8414, Note_on_c, 9, 35, 0
7, 8414, Note_on_c, 9, 42, 0
7, 8460, Note_on_c, 9, 42, 100
7, 8474, Note_on_c, 9, 42, 0
7, 8520, Note_on_c, 9, 38, 100
7, 8520, Note_on_c, 9, 42, 100
7, 8520, Note_on_c, 9, 39, 60
7, 8534, Note_on_c, 9, 39, 0
7, 8534, Note_on_c, 9, 42, 0
7, 8534, Note_on_c, 9, 38, 0
7, 8580, Note_on_c, 9, 42, 100
7, 8580, Note_on_c, 9, 35, 100
7, 8594, Note_on_c, 9, 35, 0
7, 8594, Note_on_c, 9, 42, 0
7, 8640, Note_on_c, 9, 42, 100
7, 8640, Note_on_c, 9, 35, 100
7, 8654, Note_on_c, 9, 35, 0
7, 8654, Note_on_c, 9, 42, 0
7, 8700, Note_on_c, 9, 42, 100
7, 8714, Note_on_c, 9, 42, 0
7, 8760, Note_on_c, 9, 38, 100
7, 8760, Note_on_c, 9, 42, 100
7, 8760, Note_on_c, 9, 39, 60
7, 8774, Note_on_c, 9, 39, 0
7, 8774, Note_on_c, 9, 42, 0
7, 8774, Note_on_c, 9, 38, 0
7, 8820, Note_on_c, 9, 42, 100
7, 8820, Note_on_c, 9, 35, 100
7, 8834, Note_on_c, 9, 35, 0
7, 8834, Note_on_c, 9, 42, 0
7, 8880, Note_on_c, 9, 42, 100
7, 8880, Note_on_c, 9, 35, 100
7, 8894, Note_on_c, 9, 35, 0
7, 8894, Note_on_c, 9, 42, 0
7, 8940, Note_on_c, 9, 42, 100
7, 8954, Note_on_c, 9, 42, 0
7, 9000, Note_on_c, 9, 38, 100
7, 9000, Note_on_c, 9, 42, 100
7, 9000, Note_on_c, 9, 39, 60
7, 9014, Note_on_c, 9, 39, 0
7, 9014, Note_on_c, 9, 42, 0
7, 9014, Note_on_c, 9, 38, 0
7, 9060, Note_on_c, 9, 42, 100
7, 9060, Note_on_c, 9, 35, 100
7, 9074, Note_on_c, 9, 35, 0
7, 9074, Note_on_c, 9, 42, 0
7, 9120, Note_on_c, 9, 42, 100
7, 9120, Note_on_c, 9, 35, 100
7, 9134, Note_on_c, 9, 35, 0
7, 9134, Note_on_c, 9, 42, 0
7, 9180, Note_on_c, 9, 42, 100
7, 9194, Note_on_c, 9, 42, 0
7, 9240, Note_on_c, 9, 38, 100
7, 9240, Note_on_c, 9, 42, 100
7, 9240, Note_on_c, 9, 39, 60
7, 9254, Note_on_c, 9, 39, 0
7, 9254, Note_on_c, 9, 42, 0
7, 9254, Note_on_c, 9, 38, 0
7, 9300, Note_on_c, 9, 42, 100
7, 9300, Note_on_c, 9, 35, 100
7, 9314, Note_on_c, 9, 35, 0
7, 9314, Note_on_c, 9, 42, 0
7, 9360, Note_on_c, 9, 42, 100
7, 9360, Note_on_c, 9, 35, 100
7, 9374, Note_on_c, 9, 35, 0
7, 9374, Note_on_c, 9, 42, 0
7, 9420, Note_on_c, 9, 42, 100
7, 9434, Note_on_c, 9, 42, 0
7, 9480, Note_on_c, 9, 38, 100
7, 9480, Note_on_c, 9, 42, 100
7, 9480, Note_on_c, 9, 39, 60
7, 9494, Note_on_c, 9, 39, 0
7, 9494, Note_on_c, 9, 42, 0
7, 9494, Note_on_c, 9, 38, 0
7, 9540, Note_on_c, 9, 42, 100
7, 9540, Note_on_c, 9, 35, 100
7, 9554, Note_on_c, 9, 35, 0
7, 9554, Note_on_c, 9, 42, 0
7, 9600, Note_on_c, 9, 42, 100
7, 9600, Note_on_c, 9, 35, 100
7, 9614, Note_on_c, 9, 35, 0
7, 9614, Note_on_c, 9, 42, 0
7, 9660, Note_on_c, 9, 42, 100
7, 9674, Note_on_c, 9, 42, 0
7, 9720, Note_on_c, 9, 38, 100
7, 9720, Note_on_c, 9, 42, 100
7, 9720, Note_on_c, 9, 39, 60
7, 9734, Note_on_c, 9, 39, 0
7, 9734, Note_on_c, 9, 42, 0
7, 9734, Note_on_c, 9, 38, 0
7, 9780, Note_on_c, 9, 42, 100
7, 9780, Note_on_c, 9, 35, 100
7, 9794, Note_on_c, 9, 35, 0
7, 9794, Note_on_c, 9, 42, 0
7, 9840, Note_on_c, 9, 42, 100
7, 9840, Note_on_c, 9, 35, 100
7, 9854, Note_on_c, 9, 35, 0
7, 9854, Note_on_c, 9, 42, 0
7, 9900, Note_on_c, 9, 42, 100
7, 9914, Note_on_c, 9, 42, 0
7, 9960, Note_on_c, 9, 38, 100
7, 9960, Note_on_c, 9, 42, 100
7, 9960, Note_on_c, 9, 39, 60
7, 9974, Note_on_c, 9, 39, 0
7, 9974, Note_on_c, 9, 42, 0
7, 9974, Note_on_c, 9, 38, 0
7, 10020, Note_on_c, 9, 42, 100
7, 10020, Note_on_c, 9, 35, 100
7, 10034, Note_on_c, 9, 35, 0
7, 10034, Note_on_c, 9, 42, 0
7, 10080, Note_on_c, 9, 42, 100
7, 10080, Note_on_c, 9, 35, 100
7, 10094, Note_on_c, 9, 35, 0
7, 10094, Note_on_c, 9, 42, 0
7, 10140, Note_on_c, 9, 42, 100
7, 10154, Note_on_c, 9, 42, 0
7, 10200, Note_on_c, 9, 38, 100
7, 10200, Note_on_c, 9, 42, 100
7, 10200, Note_on_c, 9, 39, 60
7, 10214, Note_on_c, 9, 39, 0
7, 10214, Note_on_c, 9, 42, 0
7, 10214, Note_on_c, 9, 38, 0
7, 10260, Note_on_c, 9, 42, 100
7, 10260, Note_on_c, 9, 35, 100
7, 10274, Note_on_c, 9, 35, 0
7, 10274, Note_on_c, 9, 42, 0
7, 10320, Note_on_c, 9, 42, 100
7, 10320, Note_on_c, 9, 35, 100
7, 10334, Note_on_c, 9, 35, 0
7, 10334, Note_on_c, 9, 42, 0
7, 10380, Note_on_c, 9, 42, 100
7, 10394, Note_on_c, 9, 42, 0
7, 10440, Note_on_c, 9, 38, 100
7, 10440, Note_on_c, 9, 42, 100
7, 10440, Note_on_c, 9, 39, 60
7, 10454, Note_on_c, 9, 39, 0
7, 10454, Note_on_c, 9, 42, 0
7, 10454, Note_on_c, 9, 38, 0
7, 10500, Note_on_c, 9, 42, 100
7, 10500, Note_on_c, 9, 35, 100
7, 10514, Note_on_c, 9, 35, 0
7, 10514, Note_on_c, 9, 42, 0
7, 10560, Note_on_c, 9, 42, 100
7, 10560, Note_on_c, 9, 35, 100
7, 10574, Note_on_c, 9, 35, 0
7, 10574, Note_on_c, 9, 42, 0
7, 10620, Note_on_c, 9, 42, 100
7, 10634, Note_on_c, 9, 42, 0
7, 10680, Note_on_c, 9, 38, 100
7, 10680, Note_on_c, 9, 42, 100
7, 10680, Note_on_c, 9, 39, 60
7, 10694, Note_on_c, 9, 39, 0
7, 10694, Note_on_c, 9, 42, 0
7, 10694, Note_on_c, 9, 38, 0
7, 10740, Note_on_c, 9, 42, 100
7, 10740, Note_on_c, 9, 35, 100
7, 10754, Note_on_c, 9, 35, 0
7, 10754, Note_on_c, 9, 42, 0
7, 10800, Note_on_c, 9, 42, 100
7, 10800, Note_on_c, 9, 35, 100
7, 10814, Note_on_c, 9, 35, 0
7, 10814, Note_on_c, 9, 42, 0
7, 10860, Note_on_c, 9, 42, 100
7, 10874, Note_on_c, 9, 42, 0
7, 10920, Note_on_c, 9, 38, 100
7, 10920, Note_on_c, 9, 42, 100
7, 10920, Note_on_c, 9, 39, 60
7, 10934, Note_on_c, 9, 39, 0
7, 10934, Note_on_c, 9, 42, 0
7, 10934, Note_on_c, 9, 38, 0
7, 10980, Note_on_c, 9, 42, 100
7, 10980, Note_on_c, 9, 35, 100
7, 10994, Note_on_c, 9, 35, 0
7, 10994, Note_on_c, 9, 42, 0
7, 11040, Note_on_c, 9, 42, 100
7, 11040, Note_on_c, 9, 35, 100
7, 11054, Note_on_c, 9, 35, 0
7, 11054, Note_on_c, 9, 42, 0
7, 11100, Note_on_c, 9, 42, 100
7, 11114, Note_on_c, 9, 42, 0
7, 11160, Note_on_c, 9, 38, 100
7, 11160, Note_on_c, 9, 42, 100
7, 11160, Note_on_c, 9, 39, 60
7, 11174, Note_on_c, 9, 39, 0
7, 11174, Note_on_c, 9, 42, 0
7, 11174, Note_on_c, 9, 38, 0
7, 11220, Note_on_c, 9, 42, 100
7, 11220, Note_on_c, 9, 35, 100
7, 11234, Note_on_c, 9, 35, 0
7, 11234, Note_on_c, 9, 42, 0
7, 11280, Note_on_c, 9, 42, 100
7, 11280, Note_on_c, 9, 35, 100
7, 11294, Note_on_c, 9, 35, 0
7, 11294, Note_on_c, 9, 42, 0
7, 11340, Note_on_c, 9, 42, 100
7, 11354, Note_on_c, 9, 42, 0
7, 11400, Note_on_c, 9, 38, 100
7, 11400, Note_on_c, 9, 42, 100
7, 11400, Note_on_c, 9, 39, 60
7, 11414, Note_on_c, 9, 39, 0
7, 11414, Note_on_c, 9, 42, 0
7, 11414, Note_on_c, 9, 38, 0
7, 11460, Note_on_c, 9, 42, 100
7, 11460, Note_on_c, 9, 35, 100
7, 11474, Note_on_c, 9, 35, 0
7, 11474, Note_on_c, 9, 42, 0
7, 11520, Note_on_c, 9, 42, 100
7, 11520, Note_on_c, 9, 35, 100
7, 11534, Note_on_c, 9, 35, 0
7, 11534, Note_on_c, 9, 42, 0
7, 11580, Note_on_c, 9, 42, 100
7, 11594, Note_on_c, 9, 42, 0
7, 11640, Note_on_c, 9, 38, 100
7, 11640, Note_on_c, 9, 42, 100
7, 11640, Note_on_c, 9, 39, 60
7, 11654, Note_on_c, 9, 39, 0
7, 11654, Note_on_c, 9, 42, 0
7, 11654, Note_on_c, 9, 38, 0
7, 11700, Note_on_c, 9, 42, 100
7, 11700, Note_on_c, 9, 35, 100
7, 11714, Note_on_c, 9, 35, 0
7, 11714, Note_on_c, 9, 42, 0
7, 11760, Note_on_c, 9, 42, 100
7, 11760, Note_on_c, 9, 35, 100
7, 11774, Note_on_c, 9, 35, 0
7, 11774, Note_on_c, 9, 42, 0
7, 11820, Note_on_c, 9, 42, 100
7, 11834, Note_on_c, 9, 42, 0
7, 11880, Note_on_c, 9, 38, 100
7, 11880, Note_on_c, 9, 42, 100
7, 11880, Note_on_c, 9, 39, 60
7, 11894, Note_on_c, 9, 39, 0
7, 11894, Note_on_c, 9, 42, 0
7, 11894, Note_on_c, 9, 38, 0
7, 11940, Note_on_c, 9, 42, 100
7, 11940, Note_on_c, 9, 35, 100
7, 11954, Note_on_c, 9, 35, 0
7, 11954, Note_on_c, 9, 42, 0
7, 12000, Note_on_c, 9, 42, 100
7, 12000, Note_on_c, 9, 35, 100
7, 12014, Note_on_c, 9, 35, 0
7, 12014, Note_on_c, 9, 42, 0
7, 12060, Note_on_c, 9, 42, 100
7, 12074, Note_on_c, 9, 42, 0
7, 12120, Note_on_c, 9, 38, 100
7, 12120, Note_on_c, 9, 42, 100
7, 12120, Note_on_c, 9, 39, 60
7, 12134, Note_on_c, 9, 39, 0
7, 12134, Note_on_c, 9, 42, 0
7, 12134, Note_on_c, 9, 38, 0
7, 12180, Note_on_c, 9, 42, 100
7, 12180, Note_on_c, 9, 35, 100
7, 12194, Note_on_c, 9, 35, 0
7, 12194, Note_on_c, 9, 42, 0
7, 12240, Note_on_c, 9, 42, 100
7, 12240, Note_on_c, 9, 35, 100
7, 12254, Note_on_c, 9, 35, 0
7, 12254, Note_on_c, 9, 42, 0
7, 12300, Note_on_c, 9, 42, 100
7, 12314, Note_on_c, 9, 42, 0
7, 12360, Note_on_c, 9, 38, 100
7, 12360, Note_on_c, 9, 42, 100
7, 12360, Note_on_c, 9, 39, 60
7, 12374, Note_on_c, 9, 39, 0
7, 12374, Note_on_c, 9, 42, 0
7, 12374, Note_on_c, 9, 38, 0
7, 12420, Note_on_c, 9, 42, 100
7, 12420, Note_on_c, 9, 35, 100
7, 12434, Note_on_c, 9, 35, 0
7, 12434, Note_on_c, 9, 42, 0
7, 12480, Note_on_c, 9, 42, 100
7, 12480, Note_on_c, 9, 35, 100
7, 12494, Note_on_c, 9, 35, 0
7, 12494, Note_on_c, 9, 42, 0
7, 12540, Note_on_c, 9, 42, 100
7, 12554, Note_on_c, 9, 42, 0
7, 12600, Note_on_c, 9, 38, 100
7, 12600, Note_on_c, 9, 42, 100
7, 12600, Note_on_c, 9, 39, 60
7, 12614, Note_on_c, 9, 39, 0
7, 12614, Note_on_c, 9, 42, 0
7, 12614, Note_on_c, 9, 38, 0
7, 12660, Note_on_c, 9, 42, 100
7, 12660, Note_on_c, 9, 35, 100
7, 12674, Note_on_c, 9, 35, 0
7, 12674, Note_on_c, 9, 42, 0
7, 12720, Note_on_c, 9, 42, 100
7, 12720, Note_on_c, 9, 35, 100
7, 12734, Note_on_c, 9, 35, 0
7, 12734, Note_on_c, 9, 42, 0
7, 12780, Note_on_c, 9, 42, 100
7, 12794, Note_on_c, 9, 42, 0
7, 12840, Note_on_c, 9, 38, 100
7, 12840, Note_on_c, 9, 42, 100
7, 12840, Note_on_c, 9, 39, 60
7, 12854, Note_on_c, 9, 39, 0
7, 12854, Note_on_c, 9, 42, 0
7, 12854, Note_on_c, 9, 38, 0
7, 12900, Note_on_c, 9, 42, 100
7, 12900, Note_on_c, 9, 35, 100
7, 12914, Note_on_c, 9, 35, 0
7, 12914, Note_on_c, 9, 42, 0
7, 12960, Note_on_c, 9, 42, 100
7, 12960, Note_on_c, 9, 35, 100
7, 12974, Note_on_c, 9, 35, 0
7, 12974, Note_on_c, 9, 42, 0
7, 13020, Note_on_c, 9, 42, 100
7, 13034, Note_on_c, 9, 42, 0
7, 13080, Note_on_c, 9, 38, 100
7, 13080, Note_on_c, 9, 42, 100
7, 13080, Note_on_c, 9, 39, 60
7, 13094, Note_on_c, 9, 39, 0
7, 13094, Note_on_c, 9, 42, 0
7, 13094, Note_on_c, 9, 38, 0
7, 13140, Note_on_c, 9, 42, 100
7, 13140, Note_on_c, 9, 35, 100
7, 13154, Note_on_c, 9, 35, 0
7, 13154, Note_on_c, 9, 42, 0
7, 13200, Note_on_c, 9, 42, 100
7, 13200, Note_on_c, 9, 35, 100
7, 13214, Note_on_c, 9, 35, 0
7, 13214, Note_on_c, 9, 42, 0
7, 13260, Note_on_c, 9, 42, 100
7, 13274, Note_on_c, 9, 42, 0
7, 13320, Note_on_c, 9, 38, 100
7, 13320, Note_on_c, 9, 42, 100
7, 13320, Note_on_c, 9, 39, 60
7, 13334, Note_on_c, 9, 39, 0
7, 13334, Note_on_c, 9, 42, 0
7, 13334, Note_on_c, 9, 38, 0
7, 13380, Note_on_c, 9, 42, 100
7, 13380, Note_on_c, 9, 35, 100
7, 13394, Note_on_c, 9, 35, 0
7, 13394, Note_on_c, 9, 42, 0
7, 13440, Note_on_c, 9, 42, 100
7, 13440, Note_on_c, 9, 35, 100
7, 13454, Note_on_c, 9, 35, 0
7, 13454, Note_on_c, 9, 42, 0
7, 13500, Note_on_c, 9, 42, 100
7, 13514, Note_on_c, 9, 42, 0
7, 13560, Note_on_c, 9, 38, 100
7, 13560, Note_on_c, 9, 42, 100
7, 13560, Note_on_c, 9, 39, 60
7, 13574, Note_on_c, 9, 39, 0
7, 13574, Note_on_c, 9, 42, 0
7, 13574, Note_on_c, 9, 38, 0
7, 13620, Note_on_c, 9, 42, 100
7, 13620, Note_on_c, 9, 35, 100
7, 13634, Note_on_c, 9, 35, 0
7, 13634, Note_on_c, 9, 42, 0
7, 13680, Note_on_c, 9, 42, 100
7, 13680, Note_on_c, 9, 35, 100
7, 13694, Note_on_c, 9, 35, 0
7, 13694, Note_on_c, 9, 42, 0
7, 13740, Note_on_c, 9, 42, 100
7, 13754, Note_on_c, 9, 42, 0
7, 13800, Note_on_c, 9, 38, 100
7, 13800, Note_on_c, 9, 42, 100
7, 13800, Note_on_c, 9, 39, 60
7, 13814, Note_on_c, 9, 39, 0
7, 13814, Note_on_c, 9, 42, 0
7, 13814, Note_on_c, 9, 38, 0
7, 13860, Note_on_c, 9, 42, 100
7, 13860, Note_on_c, 9, 35, 100
7, 13874, Note_on_c, 9, 35, 0
7, 13874, Note_on_c, 9, 42, 0
7, 13920, Note_on_c, 9, 42, 100
7, 13920, Note_on_c, 9, 35, 100
7, 13934, Note_on_c, 9, 35, 0
7, 13934, Note_on_c, 9, 42, 0
7, 13980, Note_on_c, 9, 42, 100
7, 13994, Note_on_c, 9, 42, 0
7, 14040, Note_on_c, 9, 38, 100
7, 14040, Note_on_c, 9, 42, 100
7, 14040, Note_on_c, 9, 39, 60
7, 14054, Note_on_c, 9, 39, 0
7, 14054, Note_on_c, 9, 42, 0
7, 14054, Note_on_c, 9, 38, 0
7, 14100, Note_on_c, 9, 42, 100
7, 14100, Note_on_c, 9, 35, 100
7, 14114, Note_on_c, 9, 35, 0
7, 14114, Note_on_c, 9, 42, 0
7, 14160, Note_on_c, 9, 42, 100
7, 14160, Note_on_c, 9, 35, 100
7, 14174, Note_on_c, 9, 35, 0
7, 14174, Note_on_c, 9, 42, 0
7, 14220, Note_on_c, 9, 42, 100
7, 14234, Note_on_c, 9, 42, 0
7, 14280, Note_on_c, 9, 38, 100
7, 14280, Note_on_c, 9, 42, 100
7, 14280, Note_on_c, 9, 39, 60
7, 14294, Note_on_c, 9, 39, 0
7, 14294, Note_on_c, 9, 42, 0
7, 14294, Note_on_c, 9, 38, 0
7, 14340, Note_on_c, 9, 42, 100
7, 14340, Note_on_c, 9, 35, 100
7, 14354, Note_on_c, 9, 35, 0
7, 14354, Note_on_c, 9, 42, 0
7, 14400, Note_on_c, 9, 42, 100
7, 14400, Note_on_c, 9, 35, 100
7, 14414, Note_on_c, 9, 35, 0
7, 14414, Note_on_c, 9, 42, 0
7, 14460, Note_on_c, 9, 42, 100
7, 14474, Note_on_c, 9, 42, 0
7, 14520, Note_on_c, 9, 38, 100
7, 14520, Note_on_c, 9, 42, 100
7, 14520, Note_on_c, 9, 39, 60
7, 14534, Note_on_c, 9, 39, 0
7, 14534, Note_on_c, 9, 42, 0
7, 14534, Note_on_c, 9, 38, 0
7, 14580, Note_on_c, 9, 42, 100
7, 14580, Note_on_c, 9, 35, 100
7, 14594, Note_on_c, 9, 35, 0
7, 14594, Note_on_c, 9, 42, 0
7, 14640, Note_on_c, 9, 42, 100
7, 14640, Note_on_c, 9, 35, 100
7, 14654, Note_on_c, 9, 35, 0
7, 14654, Note_on_c, 9, 42, 0
7, 14700, Note_on_c, 9, 42, 100
7, 14714, Note_on_c, 9, 42, 0
7, 14760, Note_on_c, 9, 38, 100
7, 14760, Note_on_c, 9, 42, 100
7, 14760, Note_on_c, 9, 39, 60
7, 14774, Note_on_c, 9, 39, 0
7, 14774, Note_on_c, 9, 42, 0
7, 14774, Note_on_c, 9, 38, 0
7, 14820, Note_on_c, 9, 42, 100
7, 14820, Note_on_c, 9, 35, 100
7, 14834, Note_on_c, 9, 35, 0
7, 14834, Note_on_c, 9, 42, 0
7, 14880, Note_on_c, 9, 42, 100
7, 14880, Note_on_c, 9, 35, 100
7, 14894, Note_on_c, 9, 35, 0
7, 14894, Note_on_c, 9, 42, 0
7, 14940, Note_on_c, 9, 42, 100
7, 14954, Note_on_c, 9, 42, 0
7, 15000, Note_on_c, 9, 38, 100
7, 15000, Note_on_c, 9, 42, 100
7, 15000, Note_on_c, 9, 39, 60
7, 15014, Note_on_c, 9, 39, 0
7, 15014, Note_on_c, 9, 42, 0
7, 15014, Note_on_c, 9, 38, 0
7, 15060, Note_on_c, 9, 42, 100
7, 15060, Note_on_c, 9, 35, 100
7, 15074, Note_on_c, 9, 35, 0
7, 15074, Note_on_c, 9, 42, 0
7, 15120, Note_on_c, 9, 42, 100
7, 15120, Note_on_c, 9, 35, 100
7, 15134, Note_on_c, 9, 35, 0
7, 15134, Note_on_c, 9, 42, 0
7, 15180, Note_on_c, 9, 42, 100
7, 15194, Note_on_c, 9, 42, 0
7, 15240, Note_on_c, 9, 38, 100
7, 15240, Note_on_c, 9, 42, 100
7, 15240, Note_on_c, 9, 39, 60
7, 15254, Note_on_c, 9, 39, 0
7, 15254, Note_on_c, 9, 42, 0
7, 15254, Note_on_c, 9, 38, 0
7, 15300, Note_on_c, 9, 42, 100
7, 15300, Note_on_c, 9, 35, 100
7, 15314, Note_on_c, 9, 35, 0
7, 15314, Note_on_c, 9, 42, 0
7, 15360, Note_on_c, 9, 42, 100
7, 15360, Note_on_c, 9, 35, 100
7, 15374, Note_on_c, 9, 35, 0
7, 15374, Note_on_c, 9, 42, 0
7, 15420, Note_on_c, 9, 42, 100
7, 15434, Note_on_c, 9, 42, 0
7, 15480, Note_on_c, 9, 38, 100
7, 15480, Note_on_c, 9, 42, 100
7, 15480, Note_on_c, 9, 39, 60
7, 15494, Note_on_c, 9, 39, 0
7, 15494, Note_on_c, 9, 42, 0
7, 15494, Note_on_c, 9, 38, 0
7, 15540, Note_on_c, 9, 42, 100
7, 15540, Note_on_c, 9, 35, 100
7, 15554, Note_on_c, 9, 35, 0
7, 15554, Note_on_c, 9, 42, 0
7, 15600, Note_on_c, 9, 42, 100
7, 15600, Note_on_c, 9, 35, 100
7, 15614, Note_on_c, 9, 35, 0
7, 15614, Note_on_c, 9, 42, 0
7, 15660, Note_on_c, 9, 42, 100
7, 15674, Note_on_c, 9, 42, 0
7, 15720, Note_on_c, 9, 38, 100
7, 15720, Note_on_c, 9, 42, 100
7, 15720, Note_on_c, 9, 39, 60
7, 15734, Note_on_c, 9, 39, 0
7, 15734, Note_on_c, 9, 42, 0
7, 15734, Note_on_c, 9, 38, 0
7, 15780, Note_on_c, 9, 42, 100
7, 15780, Note_on_c, 9, 35, 100
7, 15794, Note_on_c, 9, 35, 0
7, 15794, Note_on_c, 9, 42, 0
7, 15840, Note_on_c, 9, 42, 100
7, 15840, Note_on_c, 9, 35, 100
7, 15854, Note_on_c, 9, 35, 0
7, 15854, Note_on_c, 9, 42, 0
7, 15900, Note_on_c, 9, 42, 100
7, 15914, Note_on_c, 9, 42, 0
7, 15960, Note_on_c, 9, 38, 100
7, 15960, Note_on_c, 9, 42, 100
7, 15960, Note_on_c, 9, 39, 60
7, 15974, Note_on_c, 9, 39, 0
7, 15974, Note_on_c, 9, 42, 0
7, 15974, Note_on_c, 9, 38, 0
7, 16020, Note_on_c, 9, 42, 100
7, 16020, Note_on_c, 9, 35, 100
7, 16034, Note_on_c, 9, 35, 0
7, 16034, Note_on_c, 9, 42, 0
7, 16080, Note_on_c, 9, 42, 100
7, 16080, Note_on_c, 9, 35, 100
7, 16094, Note_on_c, 9, 35, 0
7, 16094, Note_on_c, 9, 42, 0
7, 16140, Note_on_c, 9, 42, 100
7, 16154, Note_on_c, 9, 42, 0
7, 16200, Note_on_c, 9, 38, 100
7, 16200, Note_on_c, 9, 42, 100
7, 16200, Note_on_c, 9, 39, 60
7, 16214, Note_on_c, 9, 39, 0
7, 16214, Note_on_c, 9, 42, 0
7, 16214, Note_on_c, 9, 38, 0
7, 16260, Note_on_c, 9, 42, 100
7, 16260, Note_on_c, 9, 35, 100
7, 16274, Note_on_c, 9, 35, 0
7, 16274, Note_on_c, 9, 42, 0
7, 16320, Note_on_c, 9, 42, 100
7, 16320, Note_on_c, 9, 35, 100
7, 16334, Note_on_c, 9, 35, 0
7, 16334, Note_on_c, 9, 42, 0
7, 16380, Note_on_c, 9, 42, 100
7, 16394, Note_on_c, 9, 42, 0
7, 16440, Note_on_c, 9, 38, 100
7, 16440, Note_on_c, 9, 42, 100
7, 16440, Note_on_c, 9, 39, 60
7, 16454, Note_on_c, 9, 39, 0
7, 16454, Note_on_c, 9, 42, 0
7, 16454, Note_on_c, 9, 38, 0
7, 16500, Note_on_c, 9, 42, 100
7, 16500, Note_on_c, 9, 35, 100
7, 16514, Note_on_c, 9, 35, 0
7, 16514, Note_on_c, 9, 42, 0
7, 16560, Note_on_c, 9, 42, 100
7, 16560, Note_on_c, 9, 35, 100
7, 16574, Note_on_c, 9, 35, 0
7, 16574, Note_on_c, 9, 42, 0
7, 16620, Note_on_c, 9, 42, 100
7, 16634, Note_on_c, 9, 42, 0
7, 16680, Note_on_c, 9, 38, 100
7, 16680, Note_on_c, 9, 42, 100
7, 16680, Note_on_c, 9, 39, 60
7, 16694, Note_on_c, 9, 39, 0
7, 16694, Note_on_c, 9, 42, 0
7, 16694, Note_on_c, 9, 38, 0
7, 16740, Note_on_c, 9, 42, 100
7, 16740, Note_on_c, 9, 35, 100
7, 16754, Note_on_c, 9, 35, 0
7, 16754, Note_on_c, 9, 42, 0
7, 16800, Note_on_c, 9, 42, 100
7, 16800, Note_on_c, 9, 35, 100
7, 16814, Note_on_c, 9, 35, 0
7, 16814, Note_on_c, 9, 42, 0
7, 16860, Note_on_c, 9, 42, 100
7, 16874, Note_on_c, 9, 42, 0
7, 16920, Note_on_c, 9, 38, 100
7, 16920, Note_on_c, 9, 42, 100
7, 16920, Note_on_c, 9, 39, 60
7, 16934, Note_on_c, 9, 39, 0
7, 16934, Note_on_c, 9, 42, 0
7, 16934, Note_on_c, 9, 38, 0
7, 16980, Note_on_c, 9, 42, 100
7, 16980, Note_on_c, 9, 35, 100
7, 16994, Note_on_c, 9, 35, 0
7, 16994, Note_on_c, 9, 42, 0
7, 17040, Note_on_c, 9, 42, 100
7, 17040, Note_on_c, 9, 35, 100
7, 17054, Note_on_c, 9, 35, 0
7, 17054, Note_on_c, 9, 42, 0
7, 17100, Note_on_c, 9, 42, 100
7, 17114, Note_on_c, 9, 42, 0
7, 17160, Note_on_c, 9, 38, 100
7, 17160, Note_on_c, 9, 42, 100
7, 17160, Note_on_c, 9, 39, 60
7, 17174, Note_on_c, 9, 39, 0
7, 17174, Note_on_c, 9, 42, 0
7, 17174, Note_on_c, 9, 38, 0
7, 17220, Note_on_c, 9, 42, 100
7, 17220, Note_on_c, 9, 35, 100
7, 17234, Note_on_c, 9, 35, 0
7, 17234, Note_on_c, 9, 42, 0
7, 17280, Note_on_c, 9, 42, 100
7, 17280, Note_on_c, 9, 35, 100
7, 17294, Note_on_c, 9, 35, 0
7, 17294, Note_on_c, 9, 42, 0
7, 17340, Note_on_c, 9, 42, 100
7, 17354, Note_on_c, 9, 42, 0
7, 17400, Note_on_c, 9, 38, 100
7, 17400, Note_on_c, 9, 42, 100
7, 17400, Note_on_c, 9, 39, 60
7, 17414, Note_on_c, 9, 39, 0
7, 17414, Note_on_c, 9, 42, 0
7, 17414, Note_on_c, 9, 38, 0
7, 17460, Note_on_c, 9, 42, 100
7, 17460, Note_on_c, 9, 35, 100
7, 17474, Note_on_c, 9, 35, 0
7, 17474, Note_on_c, 9, 42, 0
7, 17520, Note_on_c, 9, 42, 100
7, 17520, Note_on_c, 9, 35, 100
7, 17534, Note_on_c, 9, 35, 0
7, 17534, Note_on_c, 9, 42, 0
7, 17580, Note_on_c, 9, 42, 100
7, 17594, Note_on_c, 9, 42, 0
7, 17640, Note_on_c, 9, 38, 100
7, 17640, Note_on_c, 9, 42, 100
7, 17640, Note_on_c, 9, 39, 60
7, 17654, Note_on_c, 9, 39, 0
7, 17654, Note_on_c, 9, 42, 0
7, 17654, Note_on_c, 9, 38, 0
7, 17700, Note_on_c, 9, 42, 100
7, 17700, Note_on_c, 9, 35, 100
7, 17714, Note_on_c, 9, 35, 0
7, 17714, Note_on_c, 9, 42, 0
7, 17760, Note_on_c, 9, 42, 100
7, 17760, Note_on_c, 9, 35, 100
7, 17774, Note_on_c, 9, 35, 0
7, 17774, Note_on_c, 9, 42, 0
7, 17820, Note_on_c, 9, 42, 100
7, 17834, Note_on_c, 9, 42, 0
7, 17880, Note_on_c, 9, 38, 100
7, 17880, Note_on_c, 9, 42, 100
7, 17880, Note_on_c, 9, 39, 60
7, 17894, Note_on_c, 9, 39, 0
7, 17894, Note_on_c, 9, 42, 0
7, 17894, Note_on_c, 9, 38, 0
7, 17940, Note_on_c, 9, 42, 100
7, 17940, Note_on_c, 9, 35, 100
7, 17954, Note_on_c, 9, 35, 0
7, 17954, Note_on_c, 9, 42, 0
7, 18000, Note_on_c, 9, 42, 100
7, 18000, Note_on_c, 9, 35, 100
7, 18014, Note_on_c, 9, 35, 0
7, 18014, Note_on_c, 9, 42, 0
7, 18060, Note_on_c, 9, 42, 100
7, 18074, Note_on_c, 9, 42, 0
7, 18120, Note_on_c, 9, 38, 100
7, 18120, Note_on_c, 9, 42, 100
7, 18120, Note_on_c, 9, 39, 60
7, 18134, Note_on_c, 9, 39, 0
7, 18134, Note_on_c, 9, 42, 0
7, 18134, Note_on_c, 9, 38, 0
7, 18180, Note_on_c, 9, 42, 100
7, 18180, Note_on_c, 9, 35, 100
7, 18194, Note_on_c, 9, 35, 0
7, 18194, Note_on_c, 9, 42, 0
7, 18240, Note_on_c, 9, 42, 100
7, 18240, Note_on_c, 9, 35, 100
7, 18254, Note_on_c, 9, 35, 0
7, 18254, Note_on_c, 9, 42, 0
7, 18300, Note_on_c, 9, 42, 100
7, 18314, Note_on_c, 9, 42, 0
7, 18360, Note_on_c, 9, 38, 100
7, 18360, Note_on_c, 9, 42, 100
7, 18360, Note_on_c, 9, 39, 60
7, 18374, Note_on_c, 9, 39, 0
7, 18374, Note_on_c, 9, 42, 0
7, 18374, Note_on_c, 9, 38, 0
7, 18420, Note_on_c, 9, 42, 100
7, 18420, Note_on_c, 9, 35, 100
7, 18434, Note_on_c, 9, 35, 0
7, 18434, Note_on_c, 9, 42, 0
7, 18480, Note_on_c, 9, 42, 100
7, 18480, Note_on_c, 9, 35, 100
7, 18494, Note_on_c, 9, 35, 0
7, 18494, Note_on_c, 9, 42, 0
7, 18540, Note_on_c, 9, 42, 100
7, 18554, Note_on_c, 9, 42, 0
7, 18600, Note_on_c, 9, 38, 100
7, 18600, Note_on_c, 9, 42, 100
7, 18600, Note_on_c, 9, 39, 60
7, 18614, Note_on_c, 9, 39, 0
7, 18614, Note_on_c, 9, 42, 0
7, 18614, Note_on_c, 9, 38, 0
7, 18660, Note_on_c, 9, 42, 100
7, 18660, Note_on_c, 9, 35, 100
7, 18674, Note_on_c, 9, 35, 0
7, 18674, Note_on_c, 9, 42, 0
7, 18720, Note_on_c, 9, 42, 100
7, 18720, Note_on_c, 9, 35, 100
7, 18734, Note_on_c, 9, 35, 0
7, 18734, Note_on_c, 9, 42, 0
7, 18780, Note_on_c, 9, 42, 100
7, 18794, Note_on_c, 9, 42, 0
7, 18840, Note_on_c, 9, 38, 100
7, 18840, Note_on_c, 9, 42, 100
7, 18840, Note_on_c, 9, 39, 60
7, 18854, Note_on_c, 9, 39, 0
7, 18854, Note_on_c, 9, 42, 0
7, 18854, Note_on_c, 9, 38, 0
7, 18900, Note_on_c, 9, 42, 100
7, 18900, Note_on_c, 9, 35, 100
7, 18914, Note_on_c, 9, 35, 0
7, 18914, Note_on_c, 9, 42, 0
7, 18960, Note_on_c, 9, 42, 100
7, 18960, Note_on_c, 9, 35, 100
7, 18974, Note_on_c, 9, 35, 0
7, 18974, Note_on_c, 9, 42, 0
7, 19020, Note_on_c, 9, 42, 100
7, 19034, Note_on_c, 9, 42, 0
7, 19080, Note_on_c, 9, 38, 100
7, 19080, Note_on_c, 9, 42, 100
7, 19080, Note_on_c, 9, 39, 60
7, 19094, Note_on_c, 9, 39, 0
7, 19094, Note_on_c, 9, 42, 0
7, 19094, Note_on_c, 9, 38, 0
7, 19140, Note_on_c, 9, 42, 100
7, 19140, Note_on_c, 9, 35, 100
7, 19154, Note_on_c, 9, 35, 0
7, 19154, Note_on_c, 9, 42, 0
7, 19200, Note_on_c, 9, 42, 100
7, 19200, Note_on_c, 9, 35, 100
7, 19214, Note_on_c, 9, 35, 0
7, 19214, Note_on_c, 9, 42, 0
7, 19260, Note_on_c, 9, 42, 100
7, 19274, Note_on_c, 9, 42, 0
7, 19320, Note_on_c, 9, 38, 100
7, 19320, Note_on_c, 9, 42, 100
7, 19320, Note_on_c, 9, 39, 60
7, 19334, Note_on_c, 9, 39, 0
7, 19334, Note_on_c, 9, 42, 0
7, 19334, Note_on_c, 9, 38, 0
7, 19380, Note_on_c, 9, 42, 100
7, 19380, Note_on_c, 9, 35, 100
7, 19394, Note_on_c, 9, 35, 0
7, 19394, Note_on_c, 9, 42, 0
7, 19440, Note_on_c, 9, 42, 100
7, 19440, Note_on_c, 9, 35, 100
7, 19454, Note_on_c, 9, 35, 0
7, 19454, Note_on_c, 9, 42, 0
7, 19500, Note_on_c, 9, 42, 100
7, 19514, Note_on_c, 9, 42, 0
7, 19560, Note_on_c, 9, 38, 100
7, 19560, Note_on_c, 9, 42, 100
7, 19560, Note_on_c, 9, 39, 60
7, 19574, Note_on_c, 9, 39, 0
7, 19574, Note_on_c, 9, 42, 0
7, 19574, Note_on_c, 9, 38, 0
7, 19620, Note_on_c, 9, 42, 100
7, 19620, Note_on_c, 9, 35, 100
7, 19634, Note_on_c, 9, 35, 0
7, 19634, Note_on_c, 9, 42, 0
7, 19680, Note_on_c, 9, 42, 100
7, 19680, Note_on_c, 9, 35, 100
7, 19694, Note_on_c, 9, 35, 0
7, 19694, Note_on_c, 9, 42, 0
7, 19740, Note_on_c, 9, 42, 100
7, 19754, Note_on_c, 9, 42, 0
7, 19800, Note_on_c, 9, 38, 100
7, 19800, Note_on_c, 9, 42, 100
7, 19800, Note_on_c, 9, 39, 60
7, 19814, Note_on_c, 9, 39, 0
7, 19814, Note_on_c, 9, 42, 0
7, 19814, Note_on_c, 9, 38, 0
7, 19860, Note_on_c, 9, 42, 100
7, 19860, Note_on_c, 9, 35, 100
7, 19874, Note_on_c, 9, 35, 0
7, 19874, Note_on_c, 9, 42, 0
7, 19920, Note_on_c, 9, 42, 100
7, 19920, Note_on_c, 9, 35, 100
7, 19934, Note_on_c, 9, 35, 0
7, 19934, Note_on_c, 9, 42, 0
7, 19980, Note_on_c, 9, 42, 100
7, 19994, Note_on_c, 9, 42, 0
7, 20040, Note_on_c, 9, 38, 100
7, 20040, Note_on_c, 9, 42, 100
7, 20040, Note_on_c, 9, 39, 60
7, 20054, Note_on_c, 9, 39, 0
7, 20054, Note_on_c, 9, 42, 0
7, 20054, Note_on_c, 9, 38, 0
7, 20100, Note_on_c, 9, 42, 100
7, 20100, Note_on_c, 9, 35, 100
7, 20114, Note_on_c, 9, 35, 0
7, 20114, Note_on_c, 9, 42, 0
7, 20160, Note_on_c, 9, 42, 100
7, 20160, Note_on_c, 9, 35, 100
7, 20174, Note_on_c, 9, 35, 0
7, 20174, Note_on_c, 9, 42, 0
7, 20220, Note_on_c, 9, 42, 100
7, 20234, Note_on_c, 9, 42, 0
7, 20280, Note_on_c, 9, 38, 100
7, 20280, Note_on_c, 9, 42, 100
7, 20280, Note_on_c, 9, 39, 60
7, 20294, Note_on_c, 9, 39, 0
7, 20294, Note_on_c, 9, 42, 0
7, 20294, Note_on_c, 9, 38, 0
7, 20340, Note_on_c, 9, 42, 100
7, 20340, Note_on_c, 9, 35, 100
7, 20354, Note_on_c, 9, 35, 0
7, 20354, Note_on_c, 9, 42, 0
7, 20400, Note_on_c, 9, 42, 100
7, 20400, Note_on_c, 9, 35, 100
7, 20414, Note_on_c, 9, 35, 0
7, 20414, Note_on_c, 9, 42, 0
7, 20460, Note_on_c, 9, 42, 100
7, 20474, Note_on_c, 9, 42, 0
7, 20520, Note_on_c, 9, 38, 100
7, 20520, Note_on_c, 9, 42, 100
7, 20520, Note_on_c, 9, 39, 60
7, 20534, Note_on_c, 9, 39, 0
7, 20534, Note_on_c, 9, 42, 0
7, 20534, Note_on_c, 9, 38, 0
7, 20580, Note_on_c, 9, 42, 100
7, 20580, Note_on_c, 9, 35, 100
7, 20594, Note_on_c, 9, 35, 0
7, 20594, Note_on_c, 9, 42, 0
7, 20640, Note_on_c, 9, 42, 100
7, 20640, Note_on_c, 9, 35, 100
7, 20654, Note_on_c, 9, 35, 0
7, 20654, Note_on_c, 9, 42, 0
7, 20700, Note_on_c, 9, 42, 100
7, 20714, Note_on_c, 9, 42, 0
7, 20760, Note_on_c, 9, 38, 100
7, 20760, Note_on_c, 9, 42, 100
7, 20760, Note_on_c, 9, 39, 60
7, 20774, Note_on_c, 9, 39, 0
7, 20774, Note_on_c, 9, 42, 0
7, 20774, Note_on_c, 9, 38, 0
7, 20820, Note_on_c, 9, 42, 100
7, 20820, Note_on_c, 9, 35, 100
7, 20834, Note_on_c, 9, 35, 0
7, 20834, Note_on_c, 9, 42, 0
7, 20880, Note_on_c, 9, 42, 100
7, 20880, Note_on_c, 9, 35, 100
7, 20894, Note_on_c, 9, 35, 0
7, 20894, Note_on_c, 9, 42, 0
7, 20940, Note_on_c, 9, 42, 100
7, 20954, Note_on_c, 9, 42, 0
7, 21000, Note_on_c, 9, 38, 100
7, 21000, Note_on_c, 9, 42, 100
7, 21000, Note_on_c, 9, 39, 60
7, 21014, Note_on_c, 9, 39, 0
7, 21014, Note_on_c, 9, 42, 0
7, 21014, Note_on_c, 9, 38, 0
7, 21060, Note_on_c, 9, 42, 100
7, 21060, Note_on_c, 9, 35, 100
7, 21074, Note_on_c, 9, 35, 0
7, 21074, Note_on_c, 9, 42, 0
7, 21120, Note_on_c, 9, 42, 100
7, 21120, Note_on_c, 9, 35, 100
7, 21134, Note_on_c, 9, 35, 0
7, 21134, Note_on_c, 9, 42, 0
7, 21180, Note_on_c, 9, 42, 100
7, 21194, Note_on_c, 9, 42, 0
7, 21240, Note_on_c, 9, 38, 100
7, 21240, Note_on_c, 9, 42, 100
7, 21240, Note_on_c, 9, 39, 60
7, 21254, Note_on_c, 9, 39, 0
7, 21254, Note_on_c, 9, 42, 0
7, 21254, Note_on_c, 9, 38, 0
7, 21300, Note_on_c, 9, 42, 100
7, 21300, Note_on_c, 9, 35, 100
7, 21314, Note_on_c, 9, 35, 0
7, 21314, Note_on_c, 9, 42, 0
7, 21360, Note_on_c, 9, 42, 100
7, 21360, Note_on_c, 9, 35, 100
7, 21374, Note_on_c, 9, 35, 0
7, 21374, Note_on_c, 9, 42, 0
7, 21420, Note_on_c, 9, 42, 100
7, 21434, Note_on_c, 9, 42, 0
7, 21480, Note_on_c, 9, 38, 100
7, 21480, Note_on_c, 9, 42, 100
7, 21480, Note_on_c, 9, 39, 60
7, 21494, Note_on_c, 9, 39, 0
7, 21494, Note_on_c, 9, 42, 0
7, 21494, Note_on_c, 9, 38, 0
7, 21540, Note_on_c, 9, 42, 100
7, 21540, Note_on_c, 9, 35, 100
7, 21554, Note_on_c, 9, 35, 0
7, 21554, Note_on_c, 9, 42, 0
7, 21600, Note_on_c, 9, 42, 100
7, 21600, Note_on_c, 9, 35, 100
7, 21614, Note_on_c, 9, 35, 0
7, 21614, Note_on_c, 9, 42, 0
7, 21660, Note_on_c, 9, 42, 100
7, 21674, Note_on_c, 9, 42, 0
7, 21720, Note_on_c, 9, 38, 100
7, 21720, Note_on_c, 9, 42, 100
7, 21720, Note_on_c, 9, 39, 60
7, 21734, Note_on_c, 9, 39, 0
7, 21734, Note_on_c, 9, 42, 0
7, 21734, Note_on_c, 9, 38, 0
7, 21780, Note_on_c, 9, 42, 100
7, 21780, Note_on_c, 9, 35, 100
7, 21794, Note_on_c, 9, 35, 0
7, 21794, Note_on_c, 9, 42, 0
7, 21840, Note_on_c, 9, 42, 100
7, 21840, Note_on_c, 9, 35, 100
7, 21854, Note_on_c, 9, 35, 0
7, 21854, Note_on_c, 9, 42, 0
7, 21900, Note_on_c, 9, 42, 100
7, 21914, Note_on_c, 9, 42, 0
7, 21960, Note_on_c, 9, 38, 100
7, 21960, Note_on_c, 9, 42, 100
7, 21960, Note_on_c, 9, 39, 60
7, 21974, Note_on_c, 9, 39, 0
7, 21974, Note_on_c, 9, 42, 0
7, 21974, Note_on_c, 9, 38, 0
7, 22020, Note_on_c, 9, 42, 100
7, 22020, Note_on_c, 9, 35, 100
7, 22034, Note_on_c, 9, 35, 0
7, 22034, Note_on_c, 9, 42, 0
7, 22080, Note_on_c, 9, 42, 100
7, 22080, Note_on_c, 9, 35, 100
7, 22094, Note_on_c, 9, 35, 0
7, 22094, Note_on_c, 9, 42, 0
7, 22140, Note_on_c, 9, 42, 100
7, 22154, Note_on_c, 9, 42, 0
7, 22200, Note_on_c, 9, 38, 100
7, 22200, Note_on_c, 9, 42, 100
7, 22200, Note_on_c, 9, 39, 60
7, 22214, Note_on_c, 9, 39, 0
7, 22214, Note_on_c, 9, 42, 0
7, 22214, Note_on_c, 9, 38, 0
7, 22260, Note_on_c, 9, 42, 100
7, 22260, Note_on_c, 9, 35, 100
7, 22274, Note_on_c, 9, 35, 0
7, 22274, Note_on_c, 9, 42, 0
7, 22320, Note_on_c, 9, 42, 100
7, 22320, Note_on_c, 9, 35, 100
7, 22334, Note_on_c, 9, 35, 0
7, 22334, Note_on_c, 9, 42, 0
7, 22380, Note_on_c, 9, 42, 100
7, 22394, Note_on_c, 9, 42, 0
7, 22440, Note_on_c, 9, 38, 100
7, 22440, Note_on_c, 9, 42, 100
7, 22440, Note_on_c, 9, 39, 60
7, 22454, Note_on_c, 9, 39, 0
7, 22454, Note_on_c, 9, 42, 0
7, 22454, Note_on_c, 9, 38, 0
7, 22500, Note_on_c, 9, 42, 100
7, 22500, Note_on_c, 9, 35, 100
7, 22514, Note_on_c, 9, 35, 0
7, 22514, Note_on_c, 9, 42, 0
7, 22560, Note_on_c, 9, 42, 100
7, 22560, Note_on_c, 9, 35, 100
7, 22574, Note_on_c, 9, 35, 0
7, 22574, Note_on_c, 9, 42, 0
7, 22620, Note_on_c, 9, 42, 100
7, 22634, Note_on_c, 9, 42, 0
7, 22680, Note_on_c, 9, 38, 100
7, 22680, Note_on_c, 9, 42, 100
7, 22680, Note_on_c, 9, 39, 60
7, 22694, Note_on_c, 9, 39, 0
7, 22694, Note_on_c, 9, 42, 0
7, 22694, Note_on_c, 9, 38, 0
7, 22740, Note_on_c, 9, 42, 100
7, 22740, Note_on_c, 9, 35, 100
7, 22754, Note_on_c, 9, 35, 0
7, 22754, Note_on_c, 9, 42, 0
7, 22800, Note_on_c, 9, 42, 100
7, 22800, Note_on_c, 9, 35, 100
7, 22814, Note_on_c, 9, 35, 0
7, 22814, Note_on_c, 9, 42, 0
7, 22860, Note_on_c, 9, 42, 100
7, 22874, Note_on_c, 9, 42, 0
7, 22920, Note_on_c, 9, 38, 100
7, 22920, Note_on_c, 9, 42, 100
7, 22920, Note_on_c, 9, 39, 60
7, 22934, Note_on_c, 9, 39, 0
7, 22934, Note_on_c, 9, 42, 0
7, 22934, Note_on_c, 9, 38, 0
7, 22980, Note_on_c, 9, 42, 100
7, 22980, Note_on_c, 9, 35, 100
7, 22994, Note_on_c, 9, 35, 0
7, 22994, Note_on_c, 9, 42, 0
7, 23040, Note_on_c, 9, 42, 100
7, 23040, Note_on_c, 9, 35, 100
7, 23054, Note_on_c, 9, 35, 0
7, 23054, Note_on_c, 9, 42, 0
7, 23100, Note_on_c, 9, 42, 100
7, 23114, Note_on_c, 9, 42, 0
7, 23160, Note_on_c, 9, 38, 100
7, 23160, Note_on_c, 9, 42, 100
7, 23160, Note_on_c, 9, 39, 60
7, 23174, Note_on_c, 9, 39, 0
7, 23174, Note_on_c, 9, 42, 0
7, 23174, Note_on_c, 9, 38, 0
7, 23220, Note_on_c, 9, 42, 100
7, 23220, Note_on_c, 9, 35, 100
7, 23234, Note_on_c, 9, 35, 0
7, 23234, Note_on_c, 9, 42, 0
7, 23280, Note_on_c, 9, 42, 100
7, 23280, Note_on_c, 9, 35, 100
7, 23294, Note_on_c, 9, 35, 0
7, 23294, Note_on_c, 9, 42, 0
7, 23340, Note_on_c, 9, 42, 100
7, 23354, Note_on_c, 9, 42, 0
7, 23400, Note_on_c, 9, 38, 100
7, 23400, Note_on_c, 9, 42, 100
7, 23400, Note_on_c, 9, 39, 60
7, 23414, Note_on_c, 9, 39, 0
7, 23414, Note_on_c, 9, 42, 0
7, 23414, Note_on_c, 9, 38, 0
7, 23460, Note_on_c, 9, 42, 100
7, 23460, Note_on_c, 9, 35, 100
7, 23474, Note_on_c, 9, 35, 0
7, 23474, Note_on_c, 9, 42, 0
7, 23520, Note_on_c, 9, 42, 100
7, 23520, Note_on_c, 9, 35, 100
7, 23534, Note_on_c, 9, 35, 0
7, 23534, Note_on_c, 9, 42, 0
7, 23580, Note_on_c, 9, 42, 100
7, 23594, Note_on_c, 9, 42, 0
7, 23640, Note_on_c, 9, 38, 100
7, 23640, Note_on_c, 9, 42, 100
7, 23640, Note_on_c, 9, 39, 60
7, 23654, Note_on_c, 9, 39, 0
7, 23654, Note_on_c, 9, 42, 0
7, 23654, Note_on_c, 9, 38, 0
7, 23700, Note_on_c, 9, 42, 100
7, 23700, Note_on_c, 9, 35, 100
7, 23714, Note_on_c, 9, 35, 0
7, 23714, Note_on_c, 9, 42, 0
7, 23760, Note_on_c, 9, 42, 100
7, 23760, Note_on_c, 9, 35, 100
7, 23774, Note_on_c, 9, 35, 0
7, 23774, Note_on_c, 9, 42, 0
7, 23820, Note_on_c, 9, 42, 100
7, 23834, Note_on_c, 9, 42, 0
7, 23880, Note_on_c, 9, 38, 100
7, 23880, Note_on_c, 9, 42, 100
7, 23880, Note_on_c, 9, 39, 60
7, 23894, Note_on_c, 9, 39, 0
7, 23894, Note_on_c, 9, 42, 0
7, 23894, Note_on_c, 9, 38, 0
7, 23940, Note_on_c, 9, 42, 100
7, 23940, Note_on_c, 9, 35, 100
7, 23954, Note_on_c, 9, 35, 0
7, 23954, Note_on_c, 9, 42, 0
7, 24000, Note_on_c, 9, 42, 100
7, 24000, Note_on_c, 9, 35, 100
7, 24014, Note_on_c, 9, 35, 0
7, 24014, Note_on_c, 9, 42, 0
7, 24060, Note_on_c, 9, 42, 100
7, 24074, Note_on_c, 9, 42, 0
7, 24120, Note_on_c, 9, 38, 100
7, 24120, Note_on_c, 9, 42, 100
7, 24120, Note_on_c, 9, 39, 60
7, 24134, Note_on_c, 9, 39, 0
7, 24134, Note_on_c, 9, 42, 0
7, 24134, Note_on_c, 9, 38, 0
7, 24180, Note_on_c, 9, 42, 100
7, 24180, Note_on_c, 9, 35, 100
7, 24194, Note_on_c, 9, 35, 0
7, 24194, Note_on_c, 9, 42, 0
7, 24240, Note_on_c, 9, 42, 100
7, 24240, Note_on_c, 9, 35, 100
7, 24254, Note_on_c, 9, 35, 0
7, 24254, Note_on_c, 9, 42, 0
7, 24300, Note_on_c, 9, 42, 100
7, 24314, Note_on_c, 9, 42, 0
7, 24360, Note_on_c, 9, 38, 100
7, 24360, Note_on_c, 9, 42, 100
7, 24360, Note_on_c, 9, 39, 60
7, 24374, Note_on_c, 9, 39, 0
7, 24374, Note_on_c, 9, 42, 0
7, 24374, Note_on_c, 9, 38, 0
7, 24420, Note_on_c, 9, 42, 100
7, 24420, Note_on_c, 9, 35, 100
7, 24434, Note_on_c, 9, 35, 0
7, 24434, Note_on_c, 9, 42, 0
7, 24480, Note_on_c, 9, 42, 100
7, 24480, Note_on_c, 9, 35, 100
7, 24494, Note_on_c, 9, 35, 0
7, 24494, Note_on_c, 9, 42, 0
7, 24540, Note_on_c, 9, 42, 100
7, 24554, Note_on_c, 9, 42, 0
7, 24600, Note_on_c, 9, 38, 100
7, 24600, Note_on_c, 9, 42, 100
7, 24600, Note_on_c, 9, 39, 60
7, 24614, Note_on_c, 9, 39, 0
7, 24614, Note_on_c, 9, 42, 0
7, 24614, Note_on_c, 9, 38, 0
7, 24660, Note_on_c, 9, 42, 100
7, 24660, Note_on_c, 9, 35, 100
7, 24674, Note_on_c, 9, 35, 0
7, 24674, Note_on_c, 9, 42, 0
7, 24720, Note_on_c, 9, 42, 100
7, 24720, Note_on_c, 9, 35, 100
7, 24734, Note_on_c, 9, 35, 0
7, 24734, Note_on_c, 9, 42, 0
7, 24780, Note_on_c, 9, 42, 100
7, 24794, Note_on_c, 9, 42, 0
7, 24840, Note_on_c, 9, 38, 100
7, 24840, Note_on_c, 9, 42, 100
7, 24840, Note_on_c, 9, 39, 60
7, 24854, Note_on_c, 9, 39, 0
7, 24854, Note_on_c, 9, 42, 0
7, 24854, Note_on_c, 9, 38, 0
7, 24900, Note_on_c, 9, 42, 100
7, 24900, Note_on_c, 9, 35, 100
7, 24914, Note_on_c, 9, 35, 0
7, 24914, Note_on_c, 9, 42, 0
7, 24960, Note_on_c, 9, 42, 100
7, 24960, Note_on_c, 9, 35, 100
7, 24974, Note_on_c, 9, 35, 0
7, 24974, Note_on_c, 9, 42, 0
7, 25020, Note_on_c, 9, 42, 100
7, 25034, Note_on_c, 9, 42, 0
7, 25080, Note_on_c, 9, 38, 100
7, 25080, Note_on_c, 9, 42, 100
7, 25080, Note_on_c, 9, 39, 60
7, 25094, Note_on_c, 9, 39, 0
7, 25094, Note_on_c, 9, 42, 0
7, 25094, Note_on_c, 9, 38, 0
7, 25140, Note_on_c, 9, 42, 100
7, 25140, Note_on_c, 9, 35, 100
7, 25154, Note_on_c, 9, 35, 0
7, 25154, Note_on_c, 9, 42, 0
7, 25200, Note_on_c, 9, 42, 100
7, 25200, Note_on_c, 9, 35, 100
7, 25214, Note_on_c, 9, 35, 0
7, 25214, Note_on_c, 9, 42, 0
7, 25260, Note_on_c, 9, 42, 100
7, 25274, Note_on_c, 9, 42, 0
7, 25320, Note_on_c, 9, 38, 100
7, 25320, Note_on_c, 9, 42, 100
7, 25320, Note_on_c, 9, 39, 60
7, 25334, Note_on_c, 9, 39, 0
7, 25334, Note_on_c, 9, 42, 0
7, 25334, Note_on_c, 9, 38, 0
7, 25380, Note_on_c, 9, 42, 100
7, 25380, Note_on_c, 9, 35, 100
7, 25394, Note_on_c, 9, 35, 0
7, 25394, Note_on_c, 9, 42, 0
7, 25440, Note_on_c, 9, 42, 100
7, 25440, Note_on_c, 9, 35, 100
7, 25454, Note_on_c, 9, 35, 0
7, 25454, Note_on_c, 9, 42, 0
7, 25500, Note_on_c, 9, 42, 100
7, 25514, Note_on_c, 9, 42, 0
7, 25560, Note_on_c, 9, 38, 100
7, 25560, Note_on_c, 9, 42, 100
7, 25560, Note_on_c, 9, 39, 60
7, 25574, Note_on_c, 9, 39, 0
7, 25574, Note_on_c, 9, 42, 0
7, 25574, Note_on_c, 9, 38, 0
7, 25620, Note_on_c, 9, 42, 100
7, 25620, Note_on_c, 9, 35, 100
7, 25634, Note_on_c, 9, 35, 0
7, 25634, Note_on_c, 9, 42, 0
7, 25680, Note_on_c, 9, 42, 100
7, 25680, Note_on_c, 9, 35, 100
7, 25694, Note_on_c, 9, 35, 0
7, 25694, Note_on_c, 9, 42, 0
7, 25740, Note_on_c, 9, 42, 100
7, 25754, Note_on_c, 9, 42, 0
7, 25800, Note_on_c, 9, 38, 100
7, 25800, Note_on_c, 9, 42, 100
7, 25800, Note_on_c, 9, 39, 60
7, 25814, Note_on_c, 9, 39, 0
7, 25814, Note_on_c, 9, 42, 0
7, 25814, Note_on_c, 9, 38, 0
7, 25860, Note_on_c, 9, 42, 100
7, 25860, Note_on_c, 9, 35, 100
7, 25874, Note_on_c, 9, 35, 0
7, 25874, Note_on_c, 9, 42, 0
7, 25920, Note_on_c, 9, 42, 100
7, 25920, Note_on_c, 9, 35, 100
7, 25934, Note_on_c, 9, 35, 0
7, 25934, Note_on_c, 9, 42, 0
7, 25980, Note_on_c, 9, 42, 100
7, 25994, Note_on_c, 9, 42, 0
7, 26040, Note_on_c, 9, 38, 100
7, 26040, Note_on_c, 9, 42, 100
7, 26040, Note_on_c, 9, 39, 60
7, 26054, Note_on_c, 9, 39, 0
7, 26054, Note_on_c, 9, 42, 0
7, 26054, Note_on_c, 9, 38, 0
7, 26100, Note_on_c, 9, 42, 100
7, 26100, Note_on_c, 9, 35, 100
7, 26114, Note_on_c, 9, 35, 0
7, 26114, Note_on_c, 9, 42, 0
7, 26160, Note_on_c, 9, 42, 100
7, 26160, Note_on_c, 9, 35, 100
7, 26174, Note_on_c, 9, 35, 0
7, 26174, Note_on_c, 9, 42, 0
7, 26220, Note_on_c, 9, 42, 100
7, 26234, Note_on_c, 9, 42, 0
7, 26280, Note_on_c, 9, 38, 100
7, 26280, Note_on_c, 9, 42, 100
7, 26280, Note_on_c, 9, 39, 60
7, 26294, Note_on_c, 9, 39, 0
7, 26294, Note_on_c, 9, 42, 0
7, 26294, Note_on_c, 9, 38, 0
7, 26340, Note_on_c, 9, 42, 100
7, 26340, Note_on_c, 9, 35, 100
7, 26354, Note_on_c, 9, 35, 0
7, 26354, Note_on_c, 9, 42, 0
7, 26400, Note_on_c, 9, 42, 100
7, 26400, Note_on_c, 9, 35, 100
7, 26414, Note_on_c, 9, 35, 0
7, 26414, Note_on_c, 9, 42, 0
7, 26460, Note_on_c, 9, 42, 100
7, 26474, Note_on_c, 9, 42, 0
7, 26520, Note_on_c, 9, 38, 100
7, 26520, Note_on_c, 9, 42, 100
7, 26520, Note_on_c, 9, 39, 60
7, 26534, Note_on_c, 9, 39, 0
7, 26534, Note_on_c, 9, 42, 0
7, 26534, Note_on_c, 9, 38, 0
7, 26580, Note_on_c, 9, 42, 100
7, 26580, Note_on_c, 9, 35, 100
7, 26594, Note_on_c, 9, 35, 0
7, 26594, Note_on_c, 9, 42, 0
7, 26640, Note_on_c, 9, 42, 100
7, 26640, Note_on_c, 9, 35, 100
7, 26654, Note_on_c, 9, 35, 0
7, 26654, Note_on_c, 9, 42, 0
7, 26700, Note_on_c, 9, 42, 100
7, 26714, Note_on_c, 9, 42, 0
7, 26760, Note_on_c, 9, 38, 100
7, 26760, Note_on_c, 9, 42, 100
7, 26760, Note_on_c, 9, 39, 60
7, 26774, Note_on_c, 9, 39, 0
7, 26774, Note_on_c, 9, 42, 0
7, 26774, Note_on_c, 9, 38, 0
7, 26820, Note_on_c, 9, 42, 100
7, 26820, Note_on_c, 9, 35, 100
7, 26834, Note_on_c, 9, 35, 0
7, 26834, Note_on_c, 9, 42, 0
7, 26880, Note_on_c, 9, 42, 100
7, 26880, Note_on_c, 9, 35, 100
7, 26894, Note_on_c, 9, 35, 0
7, 26894, Note_on_c, 9, 42, 0
7, 26940, Note_on_c, 9, 42, 100
7, 26954, Note_on_c, 9, 42, 0
7, 27000, Note_on_c, 9, 38, 100
7, 27000, Note_on_c, 9, 42, 100
7, 27000, Note_on_c, 9, 39, 60
7, 27014, Note_on_c, 9, 39, 0
7, 27014, Note_on_c, 9, 42, 0
7, 27014, Note_on_c, 9, 38, 0
7, 27060, Note_on_c, 9, 42, 100
7, 27060, Note_on_c, 9, 35, 100
7, 27074, Note_on_c, 9, 35, 0
7, 27074, Note_on_c, 9, 42, 0
7, 27120, Note_on_c, 9, 42, 100
7, 27120, Note_on_c, 9, 35, 100
7, 27134, Note_on_c, 9, 35, 0
7, 27134, Note_on_c, 9, 42, 0
7, 27180, Note_on_c, 9, 42, 100
7, 27194, Note_on_c, 9, 42, 0
7, 27240, Note_on_c, 9, 38, 100
7, 27240, Note_on_c, 9, 42, 100
7, 27240, Note_on_c, 9, 39, 60
7, 27254, Note_on_c, 9, 39, 0
7, 27254, Note_on_c, 9, 42, 0
7, 27254, Note_on_c, 9, 38, 0
7, 27300, Note_on_c, 9, 42, 100
7, 27300, Note_on_c, 9, 35, 100
7, 27314, Note_on_c, 9, 35, 0
7, 27314, Note_on_c, 9, 42, 0
7, 27360, Note_on_c, 9, 42, 100
7, 27360, Note_on_c, 9, 35, 100
7, 27374, Note_on_c, 9, 35, 0
7, 27374, Note_on_c, 9, 42, 0
7, 27420, Note_on_c, 9, 42, 100
7, 27434, Note_on_c, 9, 42, 0
7, 27480, Note_on_c, 9, 38, 100
7, 27480, Note_on_c, 9, 42, 100
7, 27480, Note_on_c, 9, 39, 60
7, 27494, Note_on_c, 9, 39, 0
7, 27494, Note_on_c, 9, 42, 0
7, 27494, Note_on_c, 9, 38, 0
7, 27540, Note_on_c, 9, 42, 100
7, 27540, Note_on_c, 9, 35, 100
7, 27554, Note_on_c, 9, 35, 0
7, 27554, Note_on_c, 9, 42, 0
7, 27600, Note_on_c, 9, 42, 100
7, 27600, Note_on_c, 9, 35, 100
7, 27614, Note_on_c, 9, 35, 0
7, 27614, Note_on_c, 9, 42, 0
7, 27660, Note_on_c, 9, 42, 100
7, 27674, Note_on_c, 9, 42, 0
7, 27720, Note_on_c, 9, 38, 100
7, 27720, Note_on_c, 9, 42, 100
7, 27720, Note_on_c, 9, 39, 60
7, 27734, Note_on_c, 9, 39, 0
7, 27734, Note_on_c, 9, 42, 0
7, 27734, Note_on_c, 9, 38, 0
7, 27780, Note_on_c, 9, 42, 100
7, 27780, Note_on_c, 9, 35, 100
7, 27794, Note_on_c, 9, 35, 0
7, 27794, Note_on_c, 9, 42, 0
7, 27840, Note_on_c, 9, 42, 100
7, 27840, Note_on_c, 9, 35, 100
7, 27854, Note_on_c, 9, 35, 0
7, 27854, Note_on_c, 9, 42, 0
7, 27900, Note_on_c, 9, 42, 100
7, 27914, Note_on_c, 9, 42, 0
7, 27960, Note_on_c, 9, 38, 100
7, 27960, Note_on_c, 9, 42, 100
7, 27960, Note_on_c, 9, 39, 60
7, 27974, Note_on_c, 9, 39, 0
7, 27974, Note_on_c, 9, 42, 0
7, 27974, Note_on_c, 9, 38, 0
7, 28020, Note_on_c, 9, 42, 100
7, 28020, Note_on_c, 9, 35, 100
7, 28034, Note_on_c, 9, 35, 0
7, 28034, Note_on_c, 9, 42, 0
7, 28080, Note_on_c, 9, 42, 100
7, 28080, Note_on_c, 9, 35, 100
7, 28094, Note_on_c, 9, 35, 0
7, 28094, Note_on_c, 9, 42, 0
7, 28140, Note_on_c, 9, 42, 100
7, 28154, Note_on_c, 9, 42, 0
7, 28200, Note_on_c, 9, 38, 100
7, 28200, Note_on_c, 9, 42, 100
7, 28200, Note_on_c, 9, 39, 60
7, 28214, Note_on_c, 9, 39, 0
7, 28214, Note_on_c, 9, 42, 0
7, 28214, Note_on_c, 9, 38, 0
7, 28260, Note_on_c, 9, 42, 100
7, 28260, Note_on_c, 9, 35, 100
7, 28274, Note_on_c, 9, 35, 0
7, 28274, Note_on_c, 9, 42, 0
7, 28320, Note_on_c, 9, 42, 100
7, 28320, Note_on_c, 9, 35, 100
7, 28334, Note_on_c, 9, 35, 0
7, 28334, Note_on_c, 9, 42, 0
7, 28380, Note_on_c, 9, 42, 100
7, 28394, Note_on_c, 9, 42, 0
7, 28440, Note_on_c, 9, 38, 100
7, 28440, Note_on_c, 9, 42, 100
7, 28440, Note_on_c, 9, 39, 60
7, 28454, Note_on_c, 9, 39, 0
7, 28454, Note_on_c, 9, 42, 0
7, 28454, Note_on_c, 9, 38, 0
7, 28500, Note_on_c, 9, 42, 100
7, 28500, Note_on_c, 9, 35, 100
7, 28514, Note_on_c, 9, 35, 0
7, 28514, Note_on_c, 9, 42, 0
7, 28560, Note_on_c, 9, 42, 100
7, 28560, Note_on_c, 9, 35, 100
7, 28574, Note_on_c, 9, 35, 0
7, 28574, Note_on_c, 9, 42, 0
7, 28620, Note_on_c, 9, 42, 100
7, 28634, Note_on_c, 9, 42, 0
7, 28680, Note_on_c, 9, 38, 100
7, 28680, Note_on_c, 9, 42, 100
7, 28680, Note_on_c, 9, 39, 60
7, 28694, Note_on_c, 9, 39, 0
7, 28694, Note_on_c, 9, 42, 0
7, 28694, Note_on_c, 9, 38, 0
7, 28740, Note_on_c, 9, 42, 100
7, 28740, Note_on_c, 9, 35, 100
7, 28754, Note_on_c, 9, 35, 0
7, 28754, Note_on_c, 9, 42, 0
7, 28800, Note_on_c, 9, 42, 100
7, 28800, Note_on_c, 9, 35, 100
7, 28814, Note_on_c, 9, 35, 0
7, 28814, Note_on_c, 9, 42, 0
7, 28860, Note_on_c, 9, 42, 100
7, 28874, Note_on_c, 9, 42, 0
7, 28920, Note_on_c, 9, 38, 100
7, 28920, Note_on_c, 9, 42, 100
7, 28920, Note_on_c, 9, 39, 60
7, 28934, Note_on_c, 9, 39, 0
7, 28934, Note_on_c, 9, 42, 0
7, 28934, Note_on_c, 9, 38, 0
7, 28980, Note_on_c, 9, 42, 100
7, 28980, Note_on_c, 9, 35, 100
7, 28994, Note_on_c, 9, 35, 0
7, 28994, Note_on_c, 9, 42, 0
7, 29040, Note_on_c, 9, 42, 100
7, 29040, Note_on_c, 9, 35, 100
7, 29054, Note_on_c, 9, 35, 0
7, 29054, Note_on_c, 9, 42, 0
7, 29100, Note_on_c, 9, 42, 100
7, 29114, Note_on_c, 9, 42, 0
7, 29160, Note_on_c, 9, 38, 100
7, 29160, Note_on_c, 9, 42, 100
7, 29160, Note_on_c, 9, 39, 60
7, 29174, Note_on_c, 9, 39, 0
7, 29174, Note_on_c, 9, 42, 0
7, 29174, Note_on_c, 9, 38, 0
7, 29220, Note_on_c, 9, 42, 100
7, 29220, Note_on_c, 9, 35, 100
7, 29234, Note_on_c, 9, 35, 0
7, 29234, Note_on_c, 9, 42, 0
7, 29280, Note_on_c, 9, 42, 100
7, 29280, Note_on_c, 9, 35, 100
7, 29294, Note_on_c, 9, 35, 0
7, 29294, Note_on_c, 9, 42, 0
7, 29340, Note_on_c, 9, 42, 100
7, 29354, Note_on_c, 9, 42, 0
7, 29400, Note_on_c, 9, 38, 100
7, 29400, Note_on_c, 9, 42, 100
7, 29400, Note_on_c, 9, 39, 60
7, 29414, Note_on_c, 9, 39, 0
7, 29414, Note_on_c, 9, 42, 0
7, 29414, Note_on_c, 9, 38, 0
7, 29460, Note_on_c, 9, 42, 100
7, 29460, Note_on_c, 9, 35, 100
7, 29474, Note_on_c, 9, 35, 0
7, 29474, Note_on_c, 9, 42, 0
7, 29520, Note_on_c, 9, 42, 100
7, 29520, Note_on_c, 9, 35, 100
7, 29534, Note_on_c, 9, 35, 0
7, 29534, Note_on_c, 9, 42, 0
7, 29580, Note_on_c, 9, 42, 100
7, 29594, Note_on_c, 9, 42, 0
7, 29640, Note_on_c, 9, 38, 100
7, 29640, Note_on_c, 9, 42, 100
7, 29640, Note_on_c, 9, 39, 60
7, 29654, Note_on_c, 9, 39, 0
7, 29654, Note_on_c, 9, 42, 0
7, 29654, Note_on_c, 9, 38, 0
7, 29700, Note_on_c, 9, 42, 100
7, 29700, Note_on_c, 9, 35, 100
7, 29714, Note_on_c, 9, 35, 0
7, 29714, Note_on_c, 9, 42, 0
7, 29760, Note_on_c, 9, 42, 100
7, 29760, Note_on_c, 9, 35, 100
7, 29774, Note_on_c, 9, 35, 0
7, 29774, Note_on_c, 9, 42, 0
7, 29820, Note_on_c, 9, 42, 100
7, 29834, Note_on_c, 9, 42, 0
7, 29880, Note_on_c, 9, 38, 100
7, 29880, Note_on_c, 9, 42, 100
7, 29880, Note_on_c, 9, 39, 60
7, 29894, Note_on_c, 9, 39, 0
7, 29894, Note_on_c, 9, 42, 0
7, 29894, Note_on_c, 9, 38, 0
7, 29940, Note_on_c, 9, 42, 100
7, 29940, Note_on_c, 9, 35, 100
7, 29954, Note_on_c, 9, 35, 0
7, 29954, Note_on_c, 9, 42, 0
7, 30000, Note_on_c, 9, 42, 100
7, 30000, Note_on_c, 9, 35, 100
7, 30014, Note_on_c, 9, 35, 0
7, 30014, Note_on_c, 9, 42, 0
7, 30060, Note_on_c, 9, 42, 100
7, 30074, Note_on_c, 9, 42, 0
7, 30120, Note_on_c, 9, 38, 100
7, 30120, Note_on_c, 9, 42, 100
7, 30120, Note_on_c, 9, 39, 60
7, 30134, Note_on_c, 9, 39, 0
7, 30134, Note_on_c, 9, 42, 0
7, 30134, Note_on_c, 9, 38, 0
7, 30180, Note_on_c, 9, 42, 100
7, 30180, Note_on_c, 9, 35, 100
7, 30194, Note_on_c, 9, 35, 0
7, 30194, Note_on_c, 9, 42, 0
7, 30240, Note_on_c, 9, 42, 100
7, 30240, Note_on_c, 9, 35, 100
7, 30254, Note_on_c, 9, 35, 0
7, 30254, Note_on_c, 9, 42, 0
7, 30300, Note_on_c, 9, 42, 100
7, 30314, Note_on_c, 9, 42, 0
7, 30360, Note_on_c, 9, 38, 100
7, 30360, Note_on_c, 9, 42, 100
7, 30360, Note_on_c, 9, 39, 60
7, 30374, Note_on_c, 9, 39, 0
7, 30374, Note_on_c, 9, 42, 0
7, 30374, Note_on_c, 9, 38, 0
7, 30420, Note_on_c, 9, 42, 100
7, 30420, Note_on_c, 9, 35, 100
7, 30434, Note_on_c, 9, 35, 0
7, 30434, Note_on_c, 9, 42, 0
7, 30480, Note_on_c, 9, 42, 100
7, 30480, Note_on_c, 9, 35, 100
7, 30494, Note_on_c, 9, 35, 0
7, 30494, Note_on_c, 9, 42, 0
7, 30540, Note_on_c, 9, 42, 100
7, 30554, Note_on_c, 9, 42, 0
7, 30600, Note_on_c, 9, 38, 100
7, 30600, Note_on_c, 9, 42, 100
7, 30600, Note_on_c, 9, 39, 60
7, 30614, Note_on_c, 9, 39, 0
7, 30614, Note_on_c, 9, 42, 0
7, 30614, Note_on_c, 9, 38, 0
7, 30660, Note_on_c, 9, 42, 100
7, 30660, Note_on_c, 9, 35, 100
7, 30674, Note_on_c, 9, 35, 0
7, 30674, Note_on_c, 9, 42, 0
7, 30720, Note_on_c, 9, 42, 100
7, 30720, Note_on_c, 9, 35, 100
7, 30734, Note_on_c, 9, 35, 0
7, 30734, Note_on_c, 9, 42, 0
7, 30780, Note_on_c, 9, 42, 100
7, 30794, Note_on_c, 9, 42, 0
7, 30840, Note_on_c, 9, 38, 100
7, 30840, Note_on_c, 9, 42, 100
7, 30840, Note_on_c, 9, 39, 60
7, 30854, Note_on_c, 9, 39, 0
7, 30854, Note_on_c, 9, 42, 0
7, 30854, Note_on_c, 9, 38, 0
7, 30900, Note_on_c, 9, 42, 100
7, 30900, Note_on_c, 9, 35, 100
7, 30914, Note_on_c, 9, 35, 0
7, 30914, Note_on_c, 9, 42, 0
7, 30960, Note_on_c, 9, 42, 100
7, 30960, Note_on_c, 9, 35, 100
7, 30974, Note_on_c, 9, 35, 0
7, 30974, Note_on_c, 9, 42, 0
7, 31020, Note_on_c, 9, 42, 100
7, 31034, Note_on_c, 9, 42, 0
7, 31080, Note_on_c, 9, 38, 100
7, 31080, Note_on_c, 9, 42, 100
7, 31080, Note_on_c, 9, 39, 60
7, 31094, Note_on_c, 9, 39, 0
7, 31094, Note_on_c, 9, 42, 0
7, 31094, Note_on_c, 9, 38, 0
7, 31140, Note_on_c, 9, 42, 100
7, 31140, Note_on_c, 9, 35, 100
7, 31154, Note_on_c, 9, 35, 0
7, 31154, Note_on_c, 9, 42, 0
7, 31200, Note_on_c, 9, 42, 100
7, 31200, Note_on_c, 9, 35, 100
7, 31214, Note_on_c, 9, 35, 0
7, 31214, Note_on_c, 9, 42, 0
7, 31260, Note_on_c, 9, 42, 100
7, 31274, Note_on_c, 9, 42, 0
7, 31320, Note_on_c, 9, 38, 100
7, 31320, Note_on_c, 9, 42, 100
7, 31320, Note_on_c, 9, 39, 60
7, 31334, Note_on_c, 9, 39, 0
7, 31334, Note_on_c, 9, 42, 0
7, 31334, Note_on_c, 9, 38, 0
7, 31380, Note_on_c, 9, 42, 100
7, 31380, Note_on_c, 9, 35, 100
7, 31394, Note_on_c, 9, 35, 0
7, 31394, Note_on_c, 9, 42, 0
7, 31440, Note_on_c, 9, 42, 100
7, 31440, Note_on_c, 9, 35, 100
7, 31454, Note_on_c, 9, 35, 0
7, 31454, Note_on_c, 9, 42, 0
7, 31500, Note_on_c, 9, 42, 100
7, 31514, Note_on_c, 9, 42, 0
7, 31560, Note_on_c, 9, 38, 100
7, 31560, Note_on_c, 9, 42, 100
7, 31560, Note_on_c, 9, 39, 60
7, 31574, Note_on_c, 9, 39, 0
7, 31574, Note_on_c, 9, 42, 0
7, 31574, Note_on_c, 9, 38, 0
7, 31620, Note_on_c, 9, 42, 100
7, 31620, Note_on_c, 9, 35, 100
7, 31634, Note_on_c, 9, 35, 0
7, 31634, Note_on_c, 9, 42, 0
7, 31680, Note_on_c, 9, 42, 100
7, 31680, Note_on_c, 9, 35, 100
7, 31694, Note_on_c, 9, 35, 0
7, 31694, Note_on_c, 9, 42, 0
7, 31740, Note_on_c, 9, 42, 100
7, 31754, Note_on_c, 9, 42, 0
7, 31800, Note_on_c, 9, 38, 100
7, 31800, Note_on_c, 9, 42, 100
7, 31800, Note_on_c, 9, 39, 60
7, 31814, Note_on_c, 9, 39, 0
7, 31814, Note_on_c, 9, 42, 0
7, 31814, Note_on_c, 9, 38, 0
7, 31860, Note_on_c, 9, 42, 100
7, 31860, Note_on_c, 9, 35, 100
7, 31874, Note_on_c, 9, 35, 0
7, 31874, Note_on_c, 9, 42, 0
7, 31920, Note_on_c, 9, 42, 100
7, 31920, Note_on_c, 9, 35, 100
7, 31934, Note_on_c, 9, 35, 0
7, 31934, Note_on_c, 9, 42, 0
7, 31980, Note_on_c, 9, 42, 100
7, 31994, Note_on_c, 9, 42, 0
7, 32040, Note_on_c, 9, 38, 100
7, 32040, Note_on_c, 9, 42, 100
7, 32040, Note_on_c, 9, 39, 60
7, 32054, Note_on_c, 9, 39, 0
7, 32054, Note_on_c, 9, 42, 0
7, 32054, Note_on_c, 9, 38, 0
7, 32100, Note_on_c, 9, 42, 100
7, 32100, Note_on_c, 9, 35, 100
7, 32114, Note_on_c, 9, 35, 0
7, 32114, Note_on_c, 9, 42, 0
7, 32160, Note_on_c, 9, 42, 100
7, 32160, Note_on_c, 9, 35, 100
7, 32174, Note_on_c, 9, 35, 0
7, 32174, Note_on_c, 9, 42, 0
7, 32220, Note_on_c, 9, 42, 100
7, 32234, Note_on_c, 9, 42, 0
7, 32280, Note_on_c, 9, 38, 100
7, 32280, Note_on_c, 9, 42, 100
7, 32280, Note_on_c, 9, 39, 60
7, 32294, Note_on_c, 9, 39, 0
7, 32294, Note_on_c, 9, 42, 0
7, 32294, Note_on_c, 9, 38, 0
7, 32340, Note_on_c, 9, 42, 100
7, 32340, Note_on_c, 9, 35, 100
7, 32354, Note_on_c, 9, 35, 0
7, 32354, Note_on_c, 9, 42, 0
7, 32400, Note_on_c, 9, 42, 100
7, 32400, Note_on_c, 9, 35, 100
7, 32414, Note_on_c, 9, 35, 0
7, 32414, Note_on_c, 9, 42, 0
7, 32460, Note_on_c, 9, 42, 100
7, 32474, Note_on_c, 9, 42, 0
7, 32520, Note_on_c, 9, 38, 100
7, 32520, Note_on_c, 9, 42, 100
7, 32520, Note_on_c, 9, 39, 60
7, 32534, Note_on_c, 9, 39, 0
7, 32534, Note_on_c, 9, 42, 0
7, 32534, Note_on_c, 9, 38, 0
7, 32580, Note_on_c, 9, 42, 100
7, 32580, Note_on_c, 9, 35, 100
7, 32594, Note_on_c, 9, 35, 0
7, 32594, Note_on_c, 9, 42, 0
7, 32640, Note_on_c, 9, 42, 100
7, 32640, Note_on_c, 9, 35, 100
7, 32654, Note_on_c, 9, 35, 0
7, 32654, Note_on_c, 9, 42, 0
7, 32700, Note_on_c, 9, 42, 100
7, 32714, Note_on_c, 9, 42, 0
7, 32760, Note_on_c, 9, 38, 100
7, 32760, Note_on_c, 9, 42, 100
7, 32760, Note_on_c, 9, 39, 60
7, 32774, Note_on_c, 9, 39, 0
7, 32774, Note_on_c, 9, 42, 0
7, 32774, Note_on_c, 9, 38, 0
7, 32820, Note_on_c, 9, 42, 100
7, 32820, Note_on_c, 9, 35, 100
7, 32834, Note_on_c, 9, 35, 0
7, 32834, Note_on_c, 9, 42, 0
7, 32880, Note_on_c, 9, 42, 100
7, 32880, Note_on_c, 9, 35, 100
7, 32894, Note_on_c, 9, 35, 0
7, 32894, Note_on_c, 9, 42, 0
7, 32940, Note_on_c, 9, 42, 100
7, 32954, Note_on_c, 9, 42, 0
7, 33000, Note_on_c, 9, 38, 100
7, 33000, Note_on_c, 9, 42, 100
7, 33000, Note_on_c, 9, 39, 60
7, 33014, Note_on_c, 9, 39, 0
7, 33014, Note_on_c, 9, 42, 0
7, 33014, Note_on_c, 9, 38, 0
7, 33060, Note_on_c, 9, 42, 100
7, 33060, Note_on_c, 9, 35, 100
7, 33074, Note_on_c, 9, 35, 0
7, 33074, Note_on_c, 9, 42, 0
7, 33120, Note_on_c, 9, 42, 100
7, 33120, Note_on_c, 9, 35, 100
7, 33134, Note_on_c, 9, 35, 0
7, 33134, Note_on_c, 9, 42, 0
7, 33180, Note_on_c, 9, 42, 100
7, 33194, Note_on_c, 9, 42, 0
7, 33240, Note_on_c, 9, 38, 100
7, 33240, Note_on_c, 9, 42, 100
7, 33240, Note_on_c, 9, 39, 60
7, 33254, Note_on_c, 9, 39, 0
7, 33254, Note_on_c, 9, 42, 0
7, 33254, Note_on_c, 9, 38, 0
7, 33300, Note_on_c, 9, 42, 100
7, 33300, Note_on_c, 9, 35, 100
7, 33314, Note_on_c, 9, 35, 0
7, 33314, Note_on_c, 9, 42, 0
7, 33360, Note_on_c, 9, 42, 100
7, 33360, Note_on_c, 9, 35, 100
7, 33374, Note_on_c, 9, 35, 0
7, 33374, Note_on_c, 9, 42, 0
7, 33420, Note_on_c, 9, 42, 100
7, 33434, Note_on_c, 9, 42, 0
7, 33480, Note_on_c, 9, 38, 100
7, 33480, Note_on_c, 9, 42, 100
7, 33480, Note_on_c, 9, 39, 60
7, 33494, Note_on_c, 9, 39, 0
7, 33494, Note_on_c, 9, 42, 0
7, 33494, Note_on_c, 9, 38, 0
7, 33540, Note_on_c, 9, 42, 100
7, 33540, Note_on_c, 9, 35, 100
7, 33554, Note_on_c, 9, 35, 0
7, 33554, Note_on_c, 9, 42, 0
7, 33600, Note_on_c, 9, 42, 100
7, 33600, Note_on_c, 9, 35, 100
7, 33614, Note_on_c, 9, 35, 0
7, 33614, Note_on_c, 9, 42, 0
7, 33660, Note_on_c, 9, 42, 100
7, 33674, Note_on_c, 9, 42, 0
7, 33720, Note_on_c, 9, 38, 100
7, 33720, Note_on_c, 9, 42, 100
7, 33720, Note_on_c, 9, 39, 60
7, 33734, Note_on_c, 9, 39, 0
7, 33734, Note_on_c, 9, 42, 0
7, 33734, Note_on_c, 9, 38, 0
7, 33780, Note_on_c, 9, 42, 100
7, 33780, Note_on_c, 9, 35, 100
7, 33794, Note_on_c, 9, 35, 0
7, 33794, Note_on_c, 9, 42, 0
7, 33840, Note_on_c, 9, 42, 100
7, 33840, Note_on_c, 9, 35, 100
7, 33854, Note_on_c, 9, 35, 0
7, 33854, Note_on_c, 9, 42, 0
7, 33900, Note_on_c, 9, 42, 100
7, 33914, Note_on_c, 9, 42, 0
7, 33960, Note_on_c, 9, 38, 100
7, 33960, Note_on_c, 9, 42, 100
7, 33960, Note_on_c, 9, 39, 60
7, 33974, Note_on_c, 9, 39, 0
7, 33974, Note_on_c, 9, 42, 0
7, 33974, Note_on_c, 9, 38, 0
7, 34020, Note_on_c, 9, 42, 100
7, 34020, Note_on_c, 9, 35, 100
7, 34034, Note_on_c, 9, 35, 0
7, 34034, Note_on_c, 9, 42, 0
7, 34080, Note_on_c, 9, 42, 100
7, 34080, Note_on_c, 9, 35, 100
7, 34094, Note_on_c, 9, 35, 0
7, 34094, Note_on_c, 9, 42, 0
7, 34140, Note_on_c, 9, 42, 100
7, 34154, Note_on_c, 9, 42, 0
7, 34200, Note_on_c, 9, 38, 100
7, 34200, Note_on_c, 9, 42, 100
7, 34200, Note_on_c, 9, 39, 60
7, 34214, Note_on_c, 9, 39, 0
7, 34214, Note_on_c, 9, 42, 0
7, 34214, Note_on_c, 9, 38, 0
7, 34260, Note_on_c, 9, 42, 100
7, 34260, Note_on_c, 9, 35, 100
7, 34274, Note_on_c, 9, 35, 0
7, 34274, Note_on_c, 9, 42, 0
7, 34320, Note_on_c, 9, 42, 100
7, 34320, Note_on_c, 9, 35, 100
7, 34334, Note_on_c, 9, 35, 0
7, 34334, Note_on_c, 9, 42, 0
7, 34380, Note_on_c, 9, 42, 100
7, 34394, Note_on_c, 9, 42, 0
7, 34440, Note_on_c, 9, 38, 100
7, 34440, Note_on_c, 9, 42, 100
7, 34440, Note_on_c, 9, 39, 60
7, 34454, Note_on_c, 9, 39, 0
7, 34454, Note_on_c, 9, 42, 0
7, 34454, Note_on_c, 9, 38, 0
7, 34500, Note_on_c, 9, 42, 100
7, 34500, Note_on_c, 9, 35, 100
7, 34514, Note_on_c, 9, 35, 0
7, 34514, Note_on_c, 9, 42, 0
7, 34560, Note_on_c, 9, 42, 100
7, 34560, Note_on_c, 9, 35, 100
7, 34574, Note_on_c, 9, 35, 0
7, 34574, Note_on_c, 9, 42, 0
7, 34620, Note_on_c, 9, 42, 100
7, 34634, Note_on_c, 9, 42, 0
7, 34680, Note_on_c, 9, 38, 100
7, 34680, Note_on_c, 9, 42, 100
7, 34680, Note_on_c, 9, 39, 60
7, 34694, Note_on_c, 9, 39, 0
7, 34694, Note_on_c, 9, 42, 0
7, 34694, Note_on_c, 9, 38, 0
7, 34740, Note_on_c, 9, 42, 100
7, 34740, Note_on_c, 9, 35, 100
7, 34754, Note_on_c, 9, 35, 0
7, 34754, Note_on_c, 9, 42, 0
7, 34800, Note_on_c, 9, 42, 100
7, 34800, Note_on_c, 9, 35, 100
7, 34814, Note_on_c, 9, 35, 0
7, 34814, Note_on_c, 9, 42, 0
7, 34860, Note_on_c, 9, 42, 100
7, 34874, Note_on_c, 9, 42, 0
7, 34920, Note_on_c, 9, 38, 100
7, 34920, Note_on_c, 9, 42, 100
7, 34920, Note_on_c, 9, 39, 60
7, 34934, Note_on_c, 9, 39, 0
7, 34934, Note_on_c, 9, 42, 0
7, 34934, Note_on_c, 9, 38, 0
7, 34980, Note_on_c, 9, 42, 100
7, 34980, Note_on_c, 9, 35, 100
7, 34994, Note_on_c, 9, 35, 0
7, 34994, Note_on_c, 9, 42, 0
7, 35040, Note_on_c, 9, 42, 100
7, 35040, Note_on_c, 9, 35, 100
7, 35054, Note_on_c, 9, 35, 0
7, 35054, Note_on_c, 9, 42, 0
7, 35100, Note_on_c, 9, 42, 100
7, 35114, Note_on_c, 9, 42, 0
7, 35160, Note_on_c, 9, 38, 100
7, 35160, Note_on_c, 9, 42, 100
7, 35160, Note_on_c, 9, 39, 60
7, 35174, Note_on_c, 9, 39, 0
7, 35174, Note_on_c, 9, 42, 0
7, 35174, Note_on_c, 9, 38, 0
7, 35220, Note_on_c, 9, 42, 100
7, 35220, Note_on_c, 9, 35, 100
7, 35234, Note_on_c, 9, 35, 0
7, 35234, Note_on_c, 9, 42, 0
7, 35280, Note_on_c, 9, 42, 100
7, 35280, Note_on_c, 9, 35, 100
7, 35294, Note_on_c, 9, 35, 0
7, 35294, Note_on_c, 9, 42, 0
7, 35340, Note_on_c, 9, 42, 100
7, 35354, Note_on_c, 9, 42, 0
7, 35400, Note_on_c, 9, 38, 100
7, 35400, Note_on_c, 9, 42, 100
7, 35400, Note_on_c, 9, 39, 60
7, 35414, Note_on_c, 9, 39, 0
7, 35414, Note_on_c, 9, 42, 0
7, 35414, Note_on_c, 9, 38, 0
7, 35460, Note_on_c, 9, 42, 100
7, 35460, Note_on_c, 9, 35, 100
7, 35474, Note_on_c, 9, 35, 0
7, 35474, Note_on_c, 9, 42, 0
7, 35520, Note_on_c, 9, 42, 100
7, 35520, Note_on_c, 9, 35, 100
7, 35534, Note_on_c, 9, 35, 0
7, 35534, Note_on_c, 9, 42, 0
7, 35580, Note_on_c, 9, 42, 100
7, 35594, Note_on_c, 9, 42, 0
7, 35640, Note_on_c, 9, 38, 100
7, 35640, Note_on_c, 9, 42, 100
7, 35640, Note_on_c, 9, 39, 60
7, 35654, Note_on_c, 9, 39, 0
7, 35654, Note_on_c, 9, 42, 0
7, 35654, Note_on_c, 9, 38, 0
7, 35700, Note_on_c, 9, 42, 100
7, 35700, Note_on_c, 9, 35, 100
7, 35714, Note_on_c, 9, 35, 0
7, 35714, Note_on_c, 9, 42, 0
7, 35760, Note_on_c, 9, 42, 100
7, 35760, Note_on_c, 9, 35, 100
7, 35774, Note_on_c, 9, 35, 0
7, 35774, Note_on_c, 9, 42, 0
7, 35820, Note_on_c, 9, 42, 100
7, 35834, Note_on_c, 9, 42, 0
7, 35880, Note_on_c, 9, 38, 100
7, 35880, Note_on_c, 9, 42, 100
7, 35880, Note_on_c, 9, 39, 60
7, 35894, Note_on_c, 9, 39, 0
7, 35894, Note_on_c, 9, 42, 0
7, 35894, Note_on_c, 9, 38, 0
7, 35940, Note_on_c, 9, 42, 100
7, 35940, Note_on_c, 9, 35, 100
7, 35954, Note_on_c, 9, 35, 0
7, 35954, Note_on_c, 9, 42, 0
7, 36000, Note_on_c, 9, 42, 100
7, 36000, Note_on_c, 9, 35, 100
7, 36014, Note_on_c, 9, 35, 0
7, 36014, Note_on_c, 9, 42, 0
7, 36060, Note_on_c, 9, 42, 100
7, 36074, Note_on_c, 9, 42, 0
7, 36120, Note_on_c, 9, 38, 100
7, 36120, Note_on_c, 9, 42, 100
7, 36120, Note_on_c, 9, 39, 60
7, 36134, Note_on_c, 9, 39, 0
7, 36134, Note_on_c, 9, 42, 0
7, 36134, Note_on_c, 9, 38, 0
7, 36180, Note_on_c, 9, 42, 100
7, 36180, Note_on_c, 9, 35, 100
7, 36194, Note_on_c, 9, 35, 0
7, 36194, Note_on_c, 9, 42, 0
7, 36240, Note_on_c, 9, 42, 100
7, 36240, Note_on_c, 9, 35, 100
7, 36254, Note_on_c, 9, 35, 0
7, 36254, Note_on_c, 9, 42, 0
7, 36300, Note_on_c, 9, 42, 100
7, 36314, Note_on_c, 9, 42, 0
7, 36360, Note_on_c, 9, 38, 100
7, 36360, Note_on_c, 9, 42, 100
7, 36360, Note_on_c, 9, 39, 60
7, 36374, Note_on_c, 9, 39, 0
7, 36374, Note_on_c, 9, 42, 0
7, 36374, Note_on_c, 9, 38, 0
7, 36420, Note_on_c, 9, 42, 100
7, 36420, Note_on_c, 9, 35, 100
7, 36434, Note_on_c, 9, 35, 0
7, 36434, Note_on_c, 9, 42, 0
7, 36480, Note_on_c, 9, 42, 100
7, 36480, Note_on_c, 9, 35, 100
7, 36494, Note_on_c, 9, 35, 0
7, 36494, Note_on_c, 9, 42, 0
7, 36540, Note_on_c, 9, 42, 100
7, 36554, Note_on_c, 9, 42, 0
7, 36600, Note_on_c, 9, 38, 100
7, 36600, Note_on_c, 9, 42, 100
7, 36600, Note_on_c, 9, 39, 60
7, 36614, Note_on_c, 9, 39, 0
7, 36614, Note_on_c, 9, 42, 0
7, 36614, Note_on_c, 9, 38, 0
7, 36660, Note_on_c, 9, 42, 100
7, 36660, Note_on_c, 9, 35, 100
7, 36674, Note_on_c, 9, 35, 0
7, 36674, Note_on_c, 9, 42, 0
7, 36720, Note_on_c, 9, 42, 100
7, 36720, Note_on_c, 9, 35, 100
7, 36734, Note_on_c, 9, 35, 0
7, 36734, Note_on_c, 9, 42, 0
7, 36780, Note_on_c, 9, 42, 100
7, 36794, Note_on_c, 9, 42, 0
7, 36840, Note_on_c, 9, 38, 100
7, 36840, Note_on_c, 9, 42, 100
7, 36840, Note_on_c, 9, 39, 60
7, 36854, Note_on_c, 9, 39, 0
7, 36854, Note_on_c, 9, 42, 0
7, 36854, Note_on_c, 9, 38, 0
7, 36900, Note_on_c, 9, 42, 100
7, 36900, Note_on_c, 9, 35, 100
7, 36914, Note_on_c, 9, 35, 0
7, 36914, Note_on_c, 9, 42, 0
7, 36960, Note_on_c, 9, 42, 100
7, 36960, Note_on_c, 9, 35, 100
7, 36974, Note_on_c, 9, 35, 0
7, 36974, Note_on_c, 9, 42, 0
7, 37020, Note_on_c, 9, 42, 100
7, 37034, Note_on_c, 9, 42, 0
7, 37080, Note_on_c, 9, 38, 100
7, 37080, Note_on_c, 9, 42, 100
7, 37080, Note_on_c, 9, 39, 60
7, 37094, Note_on_c, 9, 39, 0
7, 37094, Note_on_c, 9, 42, 0
7, 37094, Note_on_c, 9, 38, 0
7, 37140, Note_on_c, 9, 42, 100
7, 37140, Note_on_c, 9, 35, 100
7, 37154, Note_on_c, 9, 35, 0
7, 37154, Note_on_c, 9, 42, 0
7, 37200, Note_on_c, 9, 42, 100
7, 37200, Note_on_c, 9, 35, 100
7, 37214, Note_on_c, 9, 35, 0
7, 37214, Note_on_c, 9, 42, 0
7, 37260, Note_on_c, 9, 42, 100
7, 37274, Note_on_c, 9, 42, 0
7, 37320, Note_on_c, 9, 38, 100
7, 37320, Note_on_c, 9, 42, 100
7, 37320, Note_on_c, 9, 39, 60
7, 37334, Note_on_c, 9, 39, 0
7, 37334, Note_on_c, 9, 42, 0
7, 37334, Note_on_c, 9, 38, 0
7, 37380, Note_on_c, 9, 42, 100
7, 37380, Note_on_c, 9, 35, 100
7, 37394, Note_on_c, 9, 35, 0
7, 37394, Note_on_c, 9, 42, 0
7, 37440, Note_on_c, 9, 42, 100
7, 37440, Note_on_c, 9, 35, 100
7, 37454, Note_on_c, 9, 35, 0
7, 37454, Note_on_c, 9, 42, 0
7, 37500, Note_on_c, 9, 42, 100
7, 37514, Note_on_c, 9, 42, 0
7, 37560, Note_on_c, 9, 38, 100
7, 37560, Note_on_c, 9, 42, 100
7, 37560, Note_on_c, 9, 39, 60
7, 37574, Note_on_c, 9, 39, 0
7, 37574, Note_on_c, 9, 42, 0
7, 37574, Note_on_c, 9, 38, 0
7, 37620, Note_on_c, 9, 42, 100
7, 37620, Note_on_c, 9, 35, 100
7, 37634, Note_on_c, 9, 35, 0
7, 37634, Note_on_c, 9, 42, 0
7, 37680, Note_on_c, 9, 42, 100
7, 37680, Note_on_c, 9, 35, 100
7, 37694, Note_on_c, 9, 35, 0
7, 37694, Note_on_c, 9, 42, 0
7, 37740, Note_on_c, 9, 42, 100
7, 37754, Note_on_c, 9, 42, 0
7, 37800, Note_on_c, 9, 38, 100
7, 37800, Note_on_c, 9, 42, 100
7, 37800, Note_on_c, 9, 39, 60
7, 37814, Note_on_c, 9, 39, 0
7, 37814, Note_on_c, 9, 42, 0
7, 37814, Note_on_c, 9, 38, 0
7, 37860, Note_on_c, 9, 42, 100
7, 37860, Note_on_c, 9, 35, 100
7, 37874, Note_on_c, 9, 35, 0
7, 37874, Note_on_c, 9, 42, 0
7, 37920, Note_on_c, 9, 42, 100
7, 37920, Note_on_c, 9, 35, 100
7, 37934, Note_on_c, 9, 35, 0
7, 37934, Note_on_c, 9, 42, 0
7, 37980, Note_on_c, 9, 42, 100
7, 37994, Note_on_c, 9, 42, 0
7, 38040, Note_on_c, 9, 38, 100
7, 38040, Note_on_c, 9, 42, 100
7, 38040, Note_on_c, 9, 39, 60
7, 38054, Note_on_c, 9, 39, 0
7, 38054, Note_on_c, 9, 42, 0
7, 38054, Note_on_c, 9, 38, 0
7, 38100, Note_on_c, 9, 42, 100
7, 38100, Note_on_c, 9, 35, 100
7, 38114, Note_on_c, 9, 35, 0
7, 38114, Note_on_c, 9, 42, 0
7, 38160, Note_on_c, 9, 42, 100
7, 38160, Note_on_c, 9, 35, 100
7, 38174, Note_on_c, 9, 35, 0
7, 38174, Note_on_c, 9, 42, 0
7, 38220, Note_on_c, 9, 42, 100
7, 38234, Note_on_c, 9, 42, 0
7, 38280, Note_on_c, 9, 38, 100
7, 38280, Note_on_c, 9, 42, 100
7, 38280, Note_on_c, 9, 39, 60
7, 38294, Note_on_c, 9, 39, 0
7, 38294, Note_on_c, 9, 42, 0
7, 38294, Note_on_c, 9, 38, 0
7, 38340, Note_on_c, 9, 42, 100
7, 38340, Note_on_c, 9, 35, 100
7, 38354, Note_on_c, 9, 35, 0
7, 38354, Note_on_c, 9, 42, 0
7, 38400, Note_on_c, 9, 42, 100
7, 38400, Note_on_c, 9, 35, 100
7, 38414, Note_on_c, 9, 35, 0
7, 38414, Note_on_c, 9, 42, 0
7, 38460, Note_on_c, 9, 42, 100
7, 38474, Note_on_c, 9, 42, 0
7, 38520, Note_on_c, 9, 38, 100
7, 38520, Note_on_c, 9, 42, 100
7, 38520, Note_on_c, 9, 39, 60
7, 38534, Note_on_c, 9, 39, 0
7, 38534, Note_on_c, 9, 42, 0
7, 38534, Note_on_c, 9, 38, 0
7, 38580, Note_on_c, 9, 42, 100
7, 38580, Note_on_c, 9, 35, 100
7, 38594, Note_on_c, 9, 35, 0
7, 38594, Note_on_c, 9, 42, 0
7, 38640, Note_on_c, 9, 42, 100
7, 38640, Note_on_c, 9, 35, 100
7, 38654, Note_on_c, 9, 35, 0
7, 38654, Note_on_c, 9, 42, 0
7, 38700, Note_on_c, 9, 42, 100
7, 38714, Note_on_c, 9, 42, 0
7, 38760, Note_on_c, 9, 38, 100
7, 38760, Note_on_c, 9, 42, 100
7, 38760, Note_on_c, 9, 39, 60
7, 38774, Note_on_c, 9, 39, 0
7, 38774, Note_on_c, 9, 42, 0
7, 38774, Note_on_c, 9, 38, 0
7, 38820, Note_on_c, 9, 42, 100
7, 38820, Note_on_c, 9, 35, 100
7, 38834, Note_on_c, 9, 35, 0
7, 38834, Note_on_c, 9, 42, 0
7, 38880, Note_on_c, 9, 42, 100
7, 38880, Note_on_c, 9, 35, 100
7, 38894, Note_on_c, 9, 35, 0
7, 38894, Note_on_c, 9, 42, 0
7, 38940, Note_on_c, 9, 42, 100
7, 38954, Note_on_c, 9, 42, 0
7, 39000, Note_on_c, 9, 38, 100
7, 39000, Note_on_c, 9, 42, 100
7, 39000, Note_on_c, 9, 39, 60
7, 39014, Note_on_c, 9, 39, 0
7, 39014, Note_on_c, 9, 42, 0
7, 39014, Note_on_c, 9, 38, 0
7, 39060, Note_on_c, 9, 42, 100
7, 39060, Note_on_c, 9, 35, 100
7, 39074, Note_on_c, 9, 35, 0
7, 39074, Note_on_c, 9, 42, 0
7, 39120, Note_on_c, 9, 42, 100
7, 39120, Note_on_c, 9, 35, 100
7, 39134, Note_on_c, 9, 35, 0
7, 39134, Note_on_c, 9, 42, 0
7, 39180, Note_on_c, 9, 42, 100
7, 39194, Note_on_c, 9, 42, 0
7, 39240, Note_on_c, 9, 38, 100
7, 39240, Note_on_c, 9, 42, 100
7, 39240, Note_on_c, 9, 39, 60
7, 39254, Note_on_c, 9, 39, 0
7, 39254, Note_on_c, 9, 42, 0
7, 39254, Note_on_c, 9, 38, 0
7, 39300, Note_on_c, 9, 42, 100
7, 39300, Note_on_c, 9, 35, 100
7, 39314, Note_on_c, 9, 35, 0
7, 39314, Note_on_c, 9, 42, 0
7, 39360, Note_on_c, 9, 42, 100
7, 39360, Note_on_c, 9, 35, 100
7, 39374, Note_on_c, 9, 35, 0
7, 39374, Note_on_c, 9, 42, 0
7, 39420, Note_on_c, 9, 42, 100
7, 39434, Note_on_c, 9, 42, 0
7, 39480, Note_on_c, 9, 38, 100
7, 39480, Note_on_c, 9, 42, 100
7, 39480, Note_on_c, 9, 39, 60
7, 39494, Note_on_c, 9, 39, 0
7, 39494, Note_on_c, 9, 42, 0
7, 39494, Note_on_c, 9, 38, 0
7, 39540, Note_on_c, 9, 42, 100
7, 39540, Note_on_c, 9, 35, 100
7, 39554, Note_on_c, 9, 35, 0
7, 39554, Note_on_c, 9, 42, 0
7, 39600, Note_on_c, 9, 42, 100
7, 39600, Note_on_c, 9, 35, 100
7, 39614, Note_on_c, 9, 35, 0
7, 39614, Note_on_c, 9, 42, 0
7, 39660, Note_on_c, 9, 42, 100
7, 39674, Note_on_c, 9, 42, 0
7, 39720, Note_on_c, 9, 38, 100
7, 39720, Note_on_c, 9, 42, 100
7, 39720, Note_on_c, 9, 39, 60
7, 39734, Note_on_c, 9, 39, 0
7, 39734, Note_on_c, 9, 42, 0
7, 39734, Note_on_c, 9, 38, 0
7, 39780, Note_on_c, 9, 42, 100
7, 39780, Note_on_c, 9, 35, 100
7, 39794, Note_on_c, 9, 35, 0
7, 39794, Note_on_c, 9, 42, 0
7, 39840, Note_on_c, 9, 42, 100
7, 39840, Note_on_c, 9, 35, 100
7, 39854, Note_on_c, 9, 35, 0
7, 39854, Note_on_c, 9, 42, 0
7, 39900, Note_on_c, 9, 42, 100
7, 39914, Note_on_c, 9, 42, 0
7, 39960, Note_on_c, 9, 38, 100
7, 39960, Note_on_c, 9, 42, 100
7, 39960, Note_on_c, 9, 39, 60
7, 39974, Note_on_c, 9, 39, 0
7, 39974, Note_on_c, 9, 42, 0
7, 39974, Note_on_c, 9, 38, 0
7, 40020, Note_on_c, 9, 42, 100
7, 40020, Note_on_c, 9, 35, 100
7, 40034, Note_on_c, 9, 35, 0
7, 40034, Note_on_c, 9, 42, 0
7, 40080, Note_on_c, 9, 42, 100
7, 40080, Note_on_c, 9, 35, 100
7, 40094, Note_on_c, 9, 35, 0
7, 40094, Note_on_c, 9, 42, 0
7, 40140, Note_on_c, 9, 42, 100
7, 40154, Note_on_c, 9, 42, 0
7, 40200, Note_on_c, 9, 38, 100
7, 40200, Note_on_c, 9, 42, 100
7, 40200, Note_on_c, 9, 39, 60
7, 40214, Note_on_c, 9, 39, 0
7, 40214, Note_on_c, 9, 42, 0
7, 40214, Note_on_c, 9, 38, 0
7, 40260, Note_on_c, 9, 42, 100
7, 40260, Note_on_c, 9, 35, 100
7, 40274, Note_on_c, 9, 35, 0
7, 40274, Note_on_c, 9, 42, 0
7, 40320, Note_on_c, 9, 42, 100
7, 40320, Note_on_c, 9, 35, 100
7, 40334, Note_on_c, 9, 35, 0
7, 40334, Note_on_c, 9, 42, 0
7, 40380, Note_on_c, 9, 42, 100
7, 40394, Note_on_c, 9, 42, 0
7, 40440, Note_on_c, 9, 38, 100
7, 40440, Note_on_c, 9, 42, 100
7, 40440, Note_on_c, 9, 39, 60
7, 40454, Note_on_c, 9, 39, 0
7, 40454, Note_on_c, 9, 42, 0
7, 40454, Note_on_c, 9, 38, 0
7, 40500, Note_on_c, 9, 42, 100
7, 40500, Note_on_c, 9, 35, 100
7, 40514, Note_on_c, 9, 35, 0
7, 40514, Note_on_c, 9, 42, 0
7, 40560, Note_on_c, 9, 42, 100
7, 40560, Note_on_c, 9, 35, 100
7, 40574, Note_on_c, 9, 35, 0
7, 40574, Note_on_c, 9, 42, 0
7, 40620, Note_on_c, 9, 42, 100
7, 40634, Note_on_c, 9, 42, 0
7, 40680, Note_on_c, 9, 38, 100
7, 40680, Note_on_c, 9, 42, 100
7, 40680, Note_on_c, 9, 39, 60
7, 40694, Note_on_c, 9, 39, 0
7, 40694, Note_on_c, 9, 42, 0
7, 40694, Note_on_c, 9, 38, 0
7, 40740, Note_on_c, 9, 42, 100
7, 40740, Note_on_c, 9, 35, 100
7, 40754, Note_on_c, 9, 35, 0
7, 40754, Note_on_c, 9, 42, 0
7, 40800, Note_on_c, 9, 42, 100
7, 40800, Note_on_c, 9, 35, 100
7, 40814, Note_on_c, 9, 35, 0
7, 40814, Note_on_c, 9, 42, 0
7, 40860, Note_on_c, 9, 42, 100
7, 40874, Note_on_c, 9, 42, 0
7, 40920, Note_on_c, 9, 38, 100
7, 40920, Note_on_c, 9, 42, 100
7, 40920, Note_on_c, 9, 39, 60
7, 40934, Note_on_c, 9, 39, 0
7, 40934, Note_on_c, 9, 42, 0
7, 40934, Note_on_c, 9, 38, 0
7, 40980, Note_on_c, 9, 42, 100
7, 40980, Note_on_c, 9, 35, 100
7, 40994, Note_on_c, 9, 35, 0
7, 40994, Note_on_c, 9, 42, 0
7, 41040, Note_on_c, 9, 42, 100
7, 41040, Note_on_c, 9, 35, 100
7, 41054, Note_on_c, 9, 35, 0
7, 41054, Note_on_c, 9, 42, 0
7, 41100, Note_on_c, 9, 42, 100
7, 41114, Note_on_c, 9, 42, 0
7, 41160, Note_on_c, 9, 38, 100
7, 41160, Note_on_c, 9, 42, 100
7, 41160, Note_on_c, 9, 39, 60
7, 41174, Note_on_c, 9, 39, 0
7, 41174, Note_on_c, 9, 42, 0
7, 41174, Note_on_c, 9, 38, 0
7, 41220, Note_on_c, 9, 42, 100
7, 41220, Note_on_c, 9, 35, 100
7, 41234, Note_on_c, 9, 35, 0
7, 41234, Note_on_c, 9, 42, 0
7, 41280, Note_on_c, 9, 42, 100
7, 41280, Note_on_c, 9, 35, 100
7, 41294, Note_on_c, 9, 35, 0
7, 41294, Note_on_c, 9, 42, 0
7, 41340, Note_on_c, 9, 42, 100
7, 41354, Note_on_c, 9, 42, 0
7, 41400, Note_on_c, 9, 38, 100
7, 41400, Note_on_c, 9, 42, 100
7, 41400, Note_on_c, 9, 39, 60
7, 41414, Note_on_c, 9, 39, 0
7, 41414, Note_on_c, 9, 42, 0
7, 41414, Note_on_c, 9, 38, 0
7, 41460, Note_on_c, 9, 42, 100
7, 41460, Note_on_c, 9, 35, 100
7, 41474, Note_on_c, 9, 35, 0
7, 41474, Note_on_c, 9, 42, 0
7, 41520, Note_on_c, 9, 42, 100
7, 41520, Note_on_c, 9, 35, 100
7, 41534, Note_on_c, 9, 35, 0
7, 41534, Note_on_c, 9, 42, 0
7, 41580, Note_on_c, 9, 42, 100
7, 41594, Note_on_c, 9, 42, 0
7, 41640, Note_on_c, 9, 38, 100
7, 41640, Note_on_c, 9, 42, 100
7, 41640, Note_on_c, 9, 39, 60
7, 41654, Note_on_c, 9, 39, 0
7, 41654, Note_on_c, 9, 42, 0
7, 41654, Note_on_c, 9, 38, 0
7, 41700, Note_on_c, 9, 42, 100
7, 41700, Note_on_c, 9, 35, 100
7, 41714, Note_on_c, 9, 35, 0
7, 41714, Note_on_c, 9, 42, 0
7, 41760, Note_on_c, 9, 42, 100
7, 41760, Note_on_c, 9, 35, 100
7, 41774, Note_on_c, 9, 35, 0
7, 41774, Note_on_c, 9, 42, 0
7, 41820, Note_on_c, 9, 42, 100
7, 41834, Note_on_c, 9, 42, 0
7, 41880, Note_on_c, 9, 38, 100
7, 41880, Note_on_c, 9, 42, 100
7, 41880, Note_on_c, 9, 39, 60
7, 41894, Note_on_c, 9, 39, 0
7, 41894, Note_on_c, 9, 42, 0
7, 41894, Note_on_c, 9, 38, 0
7, 41940, Note_on_c, 9, 42, 100
7, 41940, Note_on_c, 9, 35, 100
7, 41954, Note_on_c, 9, 35, 0
7, 41954, Note_on_c, 9, 42, 0
7, 42000, Note_on_c, 9, 42, 100
7, 42000, Note_on_c, 9, 35, 100
7, 42014, Note_on_c, 9, 35, 0
7, 42014, Note_on_c, 9, 42, 0
7, 42060, Note_on_c, 9, 42, 100
7, 42074, Note_on_c, 9, 42, 0
7, 42120, Note_on_c, 9, 38, 100
7, 42120, Note_on_c, 9, 42, 100
7, 42120, Note_on_c, 9, 39, 60
7, 42134, Note_on_c, 9, 39, 0
7, 42134, Note_on_c, 9, 42, 0
7, 42134, Note_on_c, 9, 38, 0
7, 42180, Note_on_c, 9, 42, 100
7, 42180, Note_on_c, 9, 35, 100
7, 42194, Note_on_c, 9, 35, 0
7, 42194, Note_on_c, 9, 42, 0
7, 42240, Note_on_c, 9, 42, 100
7, 42240, Note_on_c, 9, 35, 100
7, 42254, Note_on_c, 9, 35, 0
7, 42254, Note_on_c, 9, 42, 0
7, 42300, Note_on_c, 9, 42, 100
7, 42314, Note_on_c, 9, 42, 0
7, 42360, Note_on_c, 9, 38, 100
7, 42360, Note_on_c, 9, 42, 100
7, 42360, Note_on_c, 9, 39, 60
7, 42374, Note_on_c, 9, 39, 0
7, 42374, Note_on_c, 9, 42, 0
7, 42374, Note_on_c, 9, 38, 0
7, 42420, Note_on_c, 9, 42, 100
7, 42420, Note_on_c, 9, 35, 100
7, 42434, Note_on_c, 9, 35, 0
7, 42434, Note_on_c, 9, 42, 0
7, 42480, Note_on_c, 9, 42, 100
7, 42480, Note_on_c, 9, 35, 100
7, 42494, Note_on_c, 9, 35, 0
7, 42494, Note_on_c, 9, 42, 0
7, 42540, Note_on_c, 9, 42, 100
7, 42554, Note_on_c, 9, 42, 0
7, 42600, Note_on_c, 9, 38, 100
7, 42600, Note_on_c, 9, 42, 100
7, 42600, Note_on_c, 9, 39, 60
7, 42614, Note_on_c, 9, 39, 0
7, 42614, Note_on_c, 9, 42, 0
7, 42614, Note_on_c, 9, 38, 0
7, 42660, Note_on_c, 9, 42, 100
7, 42660, Note_on_c, 9, 35, 100
7, 42674, Note_on_c, 9, 35, 0
7, 42674, Note_on_c, 9, 42, 0
7, 42720, Note_on_c, 9, 42, 100
7, 42720, Note_on_c, 9, 35, 100
7, 42734, Note_on_c, 9, 35, 0
7, 42734, Note_on_c, 9, 42, 0
7, 42780, Note_on_c, 9, 42, 100
7, 42794, Note_on_c, 9, 42, 0
7, 42840, Note_on_c, 9, 38, 100
7, 42840, Note_on_c, 9, 42, 100
7, 42840, Note_on_c, 9, 39, 60
7, 42854, Note_on_c, 9, 39, 0
7, 42854, Note_on_c, 9, 42, 0
7, 42854, Note_on_c, 9, 38, 0
7, 42900, Note_on_c, 9, 42, 100
7, 42900, Note_on_c, 9, 35, 100
7, 42914, Note_on_c, 9, 35, 0
7, 42914, Note_on_c, 9, 42, 0
7, 42960, Note_on_c, 9, 42, 100
7, 42960, Note_on_c, 9, 35, 100
7, 42974, Note_on_c, 9, 35, 0
7, 42974, Note_on_c, 9, 42, 0
7, 43020, Note_on_c, 9, 42, 100
7, 43034, Note_on_c, 9, 42, 0
7, 43080, Note_on_c, 9, 38, 100
7, 43080, Note_on_c, 9, 42, 100
7, 43080, Note_on_c, 9, 39, 60
7, 43094, Note_on_c, 9, 39, 0
7, 43094, Note_on_c, 9, 42, 0
7, 43094, Note_on_c, 9, 38, 0
7, 43140, Note_on_c, 9, 42, 100
7, 43140, Note_on_c, 9, 35, 100
7, 43154, Note_on_c, 9, 35, 0
7, 43154, Note_on_c, 9, 42, 0
7, 43200, Note_on_c, 9, 42, 100
7, 43200, Note_on_c, 9, 35, 100
7, 43214, Note_on_c, 9, 35, 0
7, 43214, Note_on_c, 9, 42, 0
7, 43260, Note_on_c, 9, 42, 100
7, 43274, Note_on_c, 9, 42, 0
7, 43320, Note_on_c, 9, 38, 100
7, 43320, Note_on_c, 9, 42, 100
7, 43320, Note_on_c, 9, 39, 60
7, 43334, Note_on_c, 9, 39, 0
7, 43334, Note_on_c, 9, 42, 0
7, 43334, Note_on_c, 9, 38, 0
7, 43380, Note_on_c, 9, 42, 100
7, 43380, Note_on_c, 9, 35, 100
7, 43394, Note_on_c, 9, 35, 0
7, 43394, Note_on_c, 9, 42, 0
7, 43440, Note_on_c, 9, 42, 100
7, 43440, Note_on_c, 9, 35, 100
7, 43454, Note_on_c, 9, 35, 0
7, 43454, Note_on_c, 9, 42, 0
7, 43500, Note_on_c, 9, 42, 100
7, 43514, Note_on_c, 9, 42, 0
7, 43560, Note_on_c, 9, 38, 100
7, 43560, Note_on_c, 9, 42, 100
7, 43560, Note_on_c, 9, 39, 60
7, 43574, Note_on_c, 9, 39, 0
7, 43574, Note_on_c, 9, 42, 0
7, 43574, Note_on_c, 9, 38, 0
7, 43620, Note_on_c, 9, 42, 100
7, 43620, Note_on_c, 9, 35, 100
7, 43634, Note_on_c, 9, 35, 0
7, 43634, Note_on_c, 9, 42, 0
7, 43680, Note_on_c, 9, 42, 100
7, 43680, Note_on_c, 9, 35, 100
7, 43694, Note_on_c, 9, 35, 0
7, 43694, Note_on_c, 9, 42, 0
7, 43740, Note_on_c, 9, 42, 100
7, 43754, Note_on_c, 9, 42, 0
7, 43800, Note_on_c, 9, 38, 100
7, 43800, Note_on_c, 9, 42, 100
7, 43800, Note_on_c, 9, 39, 60
7, 43814, Note_on_c, 9, 39, 0
7, 43814, Note_on_c, 9, 42, 0
7, 43814, Note_on_c, 9, 38, 0
7, 43860, Note_on_c, 9, 42, 100
7, 43860, Note_on_c, 9, 35, 100
7, 43874, Note_on_c, 9, 35, 0
7, 43874, Note_on_c, 9, 42, 0
7, 43920, Note_on_c, 9, 42, 100
7, 43920, Note_on_c, 9, 35, 100
7, 43934, Note_on_c, 9, 35, 0
7, 43934, Note_on_c, 9, 42, 0
7, 43980, Note_on_c, 9, 42, 100
7, 43994, Note_on_c, 9, 42, 0
7, 44040, Note_on_c, 9, 38, 100
7, 44040, Note_on_c, 9, 42, 100
7, 44040, Note_on_c, 9, 39, 60
7, 44054, Note_on_c, 9, 39, 0
7, 44054, Note_on_c, 9, 42, 0
7, 44054, Note_on_c, 9, 38, 0
7, 44100, Note_on_c, 9, 42, 100
7, 44100, Note_on_c, 9, 35, 100
7, 44114, Note_on_c, 9, 35, 0
7, 44114, Note_on_c, 9, 42, 0
7, 44160, Note_on_c, 9, 42, 100
7, 44160, Note_on_c, 9, 35, 100
7, 44174, Note_on_c, 9, 35, 0
7, 44174, Note_on_c, 9, 42, 0
7, 44220, Note_on_c, 9, 42, 100
7, 44234, Note_on_c, 9, 42, 0
7, 44280, Note_on_c, 9, 38, 100
7, 44280, Note_on_c, 9, 42, 100
7, 44280, Note_on_c, 9, 39, 60
7, 44294, Note_on_c, 9, 39, 0
7, 44294, Note_on_c, 9, 42, 0
7, 44294, Note_on_c, 9, 38, 0
7, 44340, Note_on_c, 9, 42, 100
7, 44340, Note_on_c, 9, 35, 100
7, 44354, Note_on_c, 9, 35, 0
7, 44354, Note_on_c, 9, 42, 0
7, 44400, Note_on_c, 9, 42, 100
7, 44400, Note_on_c, 9, 35, 100
7, 44414, Note_on_c, 9, 35, 0
7, 44414, Note_on_c, 9, 42, 0
7, 44460, Note_on_c, 9, 42, 100
7, 44474, Note_on_c, 9, 42, 0
7, 44520, Note_on_c, 9, 38, 100
7, 44520, Note_on_c, 9, 42, 100
7, 44520, Note_on_c, 9, 39, 60
7, 44534, Note_on_c, 9, 39, 0
7, 44534, Note_on_c, 9, 42, 0
7, 44534, Note_on_c, 9, 38, 0
7, 44580, Note_on_c, 9, 42, 100
7, 44580, Note_on_c, 9, 35, 100
7, 44594, Note_on_c, 9, 35, 0
7, 44594, Note_on_c, 9, 42, 0
7, 44640, Note_on_c, 9, 42, 100
7, 44640, Note_on_c, 9, 35, 100
7, 44654, Note_on_c, 9, 35, 0
7, 44654, Note_on_c, 9, 42, 0
7, 44700, Note_on_c, 9, 42, 100
7, 44714, Note_on_c, 9, 42, 0
7, 44760, Note_on_c, 9, 38, 100
7, 44760, Note_on_c, 9, 42, 100
7, 44760, Note_on_c, 9, 39, 60
7, 44774, Note_on_c, 9, 39, 0
7, 44774, Note_on_c, 9, 42, 0
7, 44774, Note_on_c, 9, 38, 0
7, 44820, Note_on_c, 9, 42, 100
7, 44820, Note_on_c, 9, 35, 100
7, 44834, Note_on_c, 9, 35, 0
7, 44834, Note_on_c, 9, 42, 0
7, 44880, Note_on_c, 9, 42, 100
7, 44880, Note_on_c, 9, 35, 100
7, 44894, Note_on_c, 9, 35, 0
7, 44894, Note_on_c, 9, 42, 0
7, 44940, Note_on_c, 9, 42, 100
7, 44954, Note_on_c, 9, 42, 0
7, 45000, Note_on_c, 9, 38, 100
7, 45000, Note_on_c, 9, 42, 100
7, 45000, Note_on_c, 9, 39, 60
7, 45014, Note_on_c, 9, 39, 0
7, 45014, Note_on_c, 9, 42, 0
7, 45014, Note_on_c, 9, 38, 0
7, 45060, Note_on_c, 9, 42, 100
7, 45060, Note_on_c, 9, 35, 100
7, 45074, Note_on_c, 9, 35, 0
7, 45074, Note_on_c, 9, 42, 0
7, 45120, Note_on_c, 9, 42, 100
7, 45120, Note_on_c, 9, 35, 100
7, 45134, Note_on_c, 9, 35, 0
7, 45134, Note_on_c, 9, 42, 0
7, 45180, Note_on_c, 9, 42, 100
7, 45194, Note_on_c, 9, 42, 0
7, 45240, Note_on_c, 9, 38, 100
7, 45240, Note_on_c, 9, 42, 100
7, 45240, Note_on_c, 9, 39, 60
7, 45254, Note_on_c, 9, 39, 0
7, 45254, Note_on_c, 9, 42, 0
7, 45254, Note_on_c, 9, 38, 0
7, 45300, Note_on_c, 9, 42, 100
7, 45300, Note_on_c, 9, 35, 100
7, 45314, Note_on_c, 9, 35, 0
7, 45314, Note_on_c, 9, 42, 0
7, 45360, Note_on_c, 9, 42, 100
7, 45360, Note_on_c, 9, 35, 100
7, 45374, Note_on_c, 9, 35, 0
7, 45374, Note_on_c, 9, 42, 0
7, 45420, Note_on_c, 9, 42, 100
7, 45434, Note_on_c, 9, 42, 0
7, 45480, Note_on_c, 9, 38, 100
7, 45480, Note_on_c, 9, 42, 100
7, 45480, Note_on_c, 9, 39, 60
7, 45494, Note_on_c, 9, 39, 0
7, 45494, Note_on_c, 9, 42, 0
7, 45494, Note_on_c, 9, 38, 0
7, 45540, Note_on_c, 9, 42, 100
7, 45540, Note_on_c, 9, 35, 100
7, 45554, Note_on_c, 9, 35, 0
7, 45554, Note_on_c, 9, 42, 0
7, 45600, Note_on_c, 9, 42, 100
7, 45600, Note_on_c, 9, 35, 100
7, 45614, Note_on_c, 9, 35, 0
7, 45614, Note_on_c, 9, 42, 0
7, 45660, Note_on_c, 9, 42, 100
7, 45674, Note_on_c, 9, 42, 0
7, 45720, Note_on_c, 9, 38, 100
7, 45720, Note_on_c, 9, 42, 100
7, 45720, Note_on_c, 9, 39, 60
7, 45734, Note_on_c, 9, 39, 0
7, 45734, Note_on_c, 9, 42, 0
7, 45734, Note_on_c, 9, 38, 0
7, 45780, Note_on_c, 9, 42, 100
7, 45780, Note_on_c, 9, 35, 100
7, 45794, Note_on_c, 9, 35, 0
7, 45794, Note_on_c, 9, 42, 0
7, 45840, Note_on_c, 9, 42, 100
7, 45840, Note_on_c, 9, 35, 100
7, 45854, Note_on_c, 9, 35, 0
7, 45854, Note_on_c, 9, 42, 0
7, 45900, Note_on_c, 9, 42, 100
7, 45914, Note_on_c, 9, 42, 0
7, 45960, Note_on_c, 9, 38, 100
7, 45960, Note_on_c, 9, 42, 100
7, 45960, Note_on_c, 9, 39, 60
7, 45974, Note_on_c, 9, 39, 0
7, 45974, Note_on_c, 9, 42, 0
7, 45974, Note_on_c, 9, 38, 0
7, 46020, Note_on_c, 9, 42, 100
7, 46020, Note_on_c, 9, 35, 100
7, 46034, Note_on_c, 9, 35, 0
7, 46034, Note_on_c, 9, 42, 0
7, 46080, Note_on_c, 9, 42, 100
7, 46080, Note_on_c, 9, 35, 100
7, 46094, Note_on_c, 9, 35, 0
7, 46094, Note_on_c, 9, 42, 0
7, 46140, Note_on_c, 9, 42, 100
7, 46154, Note_on_c, 9, 42, 0
7, 46200, Note_on_c, 9, 38, 100
7, 46200, Note_on_c, 9, 42, 100
7, 46200, Note_on_c, 9, 39, 60
7, 46214, Note_on_c, 9, 39, 0
7, 46214, Note_on_c, 9, 42, 0
7, 46214, Note_on_c, 9, 38, 0
7, 46260, Note_on_c, 9, 42, 100
7, 46260, Note_on_c, 9, 35, 100
7, 46274, Note_on_c, 9, 35, 0
7, 46274, Note_on_c, 9, 42, 0
7, 46320, Note_on_c, 9, 42, 100
7, 46320, Note_on_c, 9, 35, 100
7, 46334, Note_on_c, 9, 35, 0
7, 46334, Note_on_c, 9, 42, 0
7, 46380, Note_on_c, 9, 42, 100
7, 46394, Note_on_c, 9, 42, 0
7, 46440, Note_on_c, 9, 38, 100
7, 46440, Note_on_c, 9, 42, 100
7, 46440, Note_on_c, 9, 39, 60
7, 46454, Note_on_c, 9, 39, 0
7, 46454, Note_on_c, 9, 42, 0
7, 46454, Note_on_c, 9, 38, 0
7, 46500, Note_on_c, 9, 42, 100
7, 46500, Note_on_c, 9, 35, 100
7, 46514, Note_on_c, 9, 35, 0
7, 46514, Note_on_c, 9, 42, 0
7, 46560, Note_on_c, 9, 42, 100
7, 46560, Note_on_c, 9, 35, 100
7, 46574, Note_on_c, 9, 35, 0
7, 46574, Note_on_c, 9, 42, 0
7, 46620, Note_on_c, 9, 42, 100
7, 46634, Note_on_c, 9, 42, 0
7, 46680, Note_on_c, 9, 38, 100
7, 46680, Note_on_c, 9, 42, 100
7, 46680, Note_on_c, 9, 39, 60
7, 46694, Note_on_c, 9, 39, 0
7, 46694, Note_on_c, 9, 42, 0
7, 46694, Note_on_c, 9, 38, 0
7, 46740, Note_on_c, 9, 42, 100
7, 46740, Note_on_c, 9, 35, 100
7, 46754, Note_on_c, 9, 35, 0
7, 46754, Note_on_c, 9, 42, 0
7, 46800, Note_on_c, 9, 42, 100
7, 46800, Note_on_c, 9, 35, 100
7, 46814, Note_on_c, 9, 35, 0
7, 46814, Note_on_c, 9, 42, 0
7, 46860, Note_on_c, 9, 42, 100
7, 46874, Note_on_c, 9, 42, 0
7, 46920, Note_on_c, 9, 38, 100
7, 46920, Note_on_c, 9, 42, 100
7, 46920, Note_on_c, 9, 39, 60
7, 46934, Note_on_c, 9, 39, 0
7, 46934, Note_on_c, 9, 42, 0
7, 46934, Note_on_c, 9, 38, 0
7, 46980, Note_on_c, 9, 42, 100
7, 46980, Note_on_c, 9, 35, 100
7, 46994, Note_on_c, 9, 35, 0
7, 46994, Note_on_c, 9, 42, 0
7, 47040, Note_on_c, 9, 42, 100
7, 47040, Note_on_c, 9, 35, 100
7, 47054, Note_on_c, 9, 35, 0
7, 47054, Note_on_c, 9, 42, 0
7, 47100, Note_on_c, 9, 42, 100
7, 47114, Note_on_c, 9, 42, 0
7, 47160, Note_on_c, 9, 38, 100
7, 47160, Note_on_c, 9, 42, 100
7, 47160, Note_on_c, 9, 39, 60
7, 47174, Note_on_c, 9, 39, 0
7, 47174, Note_on_c, 9, 42, 0
7, 47174, Note_on_c, 9, 38, 0
7, 47220, Note_on_c, 9, 42, 100
7, 47220, Note_on_c, 9, 35, 100
7, 47234, Note_on_c, 9, 35, 0
7, 47234, Note_on_c, 9, 42, 0
7, 47280, Note_on_c, 9, 42, 100
7, 47280, Note_on_c, 9, 35, 100
7, 47294, Note_on_c, 9, 35, 0
7, 47294, Note_on_c, 9, 42, 0
7, 47340, Note_on_c, 9, 42, 100
7, 47354, Note_on_c, 9, 42, 0
7, 47400, Note_on_c, 9, 38, 100
7, 47400, Note_on_c, 9, 42, 100
7, 47400, Note_on_c, 9, 39, 60
7, 47414, Note_on_c, 9, 39, 0
7, 47414, Note_on_c, 9, 42, 0
7, 47414, Note_on_c, 9, 38, 0
7, 47460, Note_on_c, 9, 42, 100
7, 47460, Note_on_c, 9, 35, 100
7, 47474, Note_on_c, 9, 35, 0
7, 47474, Note_on_c, 9, 42, 0
7, 47520, Note_on_c, 9, 42, 100
7, 47520, Note_on_c, 9, 35, 100
7, 47534, Note_on_c, 9, 35, 0
7, 47534, Note_on_c, 9, 42, 0
7, 47580, Note_on_c, 9, 42, 100
7, 47594, Note_on_c, 9, 42, 0
7, 47640, Note_on_c, 9, 38, 100
7, 47640, Note_on_c, 9, 42, 100
7, 47640, Note_on_c, 9, 39, 60
7, 47654, Note_on_c, 9, 39, 0
7, 47654, Note_on_c, 9, 42, 0
7, 47654, Note_on_c, 9, 38, 0
7, 47700, Note_on_c, 9, 42, 100
7, 47700, Note_on_c, 9, 35, 100
7, 47714, Note_on_c, 9, 35, 0
7, 47714, Note_on_c, 9, 42, 0
7, 47760, Note_on_c, 9, 42, 100
7, 47760, Note_on_c, 9, 35, 100
7, 47774, Note_on_c, 9, 35, 0
7, 47774, Note_on_c, 9, 42, 0
7, 47820, Note_on_c, 9, 42, 100
7, 47834, Note_on_c, 9, 42, 0
7, 47880, Note_on_c, 9, 38, 100
7, 47880, Note_on_c, 9, 42, 100
7, 47880, Note_on_c, 9, 39, 60
7, 47894, Note_on_c, 9, 39, 0
7, 47894, Note_on_c, 9, 42, 0
7, 47894, Note_on_c, 9, 38, 0
7, 47940, Note_on_c, 9, 42, 100
7, 47940, Note_on_c, 9, 35, 100
7, 47954, Note_on_c, 9, 35, 0
7, 47954, Note_on_c, 9, 42, 0
7, 48000, Note_on_c, 9, 42, 100
7, 48000, Note_on_c, 9, 35, 100
7, 48014, Note_on_c, 9, 35, 0
7, 48014, Note_on_c, 9, 42, 0
7, 48060, Note_on_c, 9, 42, 100
7, 48074, Note_on_c, 9, 42, 0
7, 48120, Note_on_c, 9, 38, 100
7, 48120, Note_on_c, 9, 42, 100
7, 48120, Note_on_c, 9, 39, 60
7, 48134, Note_on_c, 9, 39, 0
7, 48134, Note_on_c, 9, 42, 0
7, 48134, Note_on_c, 9, 38, 0
7, 48180, Note_on_c, 9, 42, 100
7, 48180, Note_on_c, 9, 35, 100
7, 48194, Note_on_c, 9, 35, 0
7, 48194, Note_on_c, 9, 42, 0
7, 48240, Note_on_c, 9, 42, 100
7, 48240, Note_on_c, 9, 35, 100
7, 48254, Note_on_c, 9, 35, 0
7, 48254, Note_on_c, 9, 42, 0
7, 48300, Note_on_c, 9, 42, 100
7, 48314, Note_on_c, 9, 42, 0
7, 48360, Note_on_c, 9, 38, 100
7, 48360, Note_on_c, 9, 42, 100
7, 48360, Note_on_c, 9, 39, 60
7, 48374, Note_on_c, 9, 39, 0
7, 48374, Note_on_c, 9, 42, 0
7, 48374, Note_on_c, 9, 38, 0
7, 48420, Note_on_c, 9, 42, 100
7, 48420, Note_on_c, 9, 35, 100
7, 48434, Note_on_c, 9, 35, 0
7, 48434, Note_on_c, 9, 42, 0
7, 48480, Note_on_c, 9, 42, 100
7, 48480, Note_on_c, 9, 35, 100
7, 48494, Note_on_c, 9, 35, 0
7, 48494, Note_on_c, 9, 42, 0
7, 48540, Note_on_c, 9, 42, 100
7, 48554, Note_on_c, 9, 42, 0
7, 48600, Note_on_c, 9, 38, 100
7, 48600, Note_on_c, 9, 42, 100
7, 48600, Note_on_c, 9, 39, 60
7, 48614, Note_on_c, 9, 39, 0
7, 48614, Note_on_c, 9, 42, 0
7, 48614, Note_on_c, 9, 38, 0
7, 48660, Note_on_c, 9, 42, 100
7, 48660, Note_on_c, 9, 35, 100
7, 48674, Note_on_c, 9, 35, 0
7, 48674, Note_on_c, 9, 42, 0
7, 48720, Note_on_c, 9, 42, 100
7, 48720, Note_on_c, 9, 35, 100
7, 48734, Note_on_c, 9, 35, 0
7, 48734, Note_on_c, 9, 42, 0
7, 48780, Note_on_c, 9, 42, 100
7, 48794, Note_on_c, 9, 42, 0
7, 48840, Note_on_c, 9, 38, 100
7, 48840, Note_on_c, 9, 42, 100
7, 48840, Note_on_c, 9, 39, 60
7, 48854, Note_on_c, 9, 39, 0
7, 48854, Note_on_c, 9, 42, 0
7, 48854, Note_on_c, 9, 38, 0
7, 48900, Note_on_c, 9, 42, 100
7, 48900, Note_on_c, 9, 35, 100
7, 48914, Note_on_c, 9, 35, 0
7, 48914, Note_on_c, 9, 42, 0
7, 48960, Note_on_c, 9, 42, 100
7, 48960, Note_on_c, 9, 35, 100
7, 48974, Note_on_c, 9, 35, 0
7, 48974, Note_on_c, 9, 42, 0
7, 49020, Note_on_c, 9, 42, 100
7, 49034, Note_on_c, 9, 42, 0
7, 49080, Note_on_c, 9, 38, 100
7, 49080, Note_on_c, 9, 42, 100
7, 49080, Note_on_c, 9, 39, 60
7, 49094, Note_on_c, 9, 39, 0
7, 49094, Note_on_c, 9, 42, 0
7, 49094, Note_on_c, 9, 38, 0
7, 49140, Note_on_c, 9, 42, 100
7, 49140, Note_on_c, 9, 35, 100
7, 49154, Note_on_c, 9, 35, 0
7, 49154, Note_on_c, 9, 42, 0
7, 49200, Note_on_c, 9, 42, 100
7, 49200, Note_on_c, 9, 35, 100
7, 49214, Note_on_c, 9, 35, 0
7, 49214, Note_on_c, 9, 42, 0
7, 49260, Note_on_c, 9, 42, 100
7, 49274, Note_on_c, 9, 42, 0
7, 49320, Note_on_c, 9, 38, 100
7, 49320, Note_on_c, 9, 42, 100
7, 49320, Note_on_c, 9, 39, 60
7, 49334, Note_on_c, 9, 39, 0
7, 49334, Note_on_c, 9, 42, 0
7, 49334, Note_on_c, 9, 38, 0
7, 49380, Note_on_c, 9, 42, 100
7, 49380, Note_on_c, 9, 35, 100
7, 49394, Note_on_c, 9, 35, 0
7, 49394, Note_on_c, 9, 42, 0
7, 49440, Note_on_c, 9, 42, 100
7, 49440, Note_on_c, 9, 35, 100
7, 49454, Note_on_c, 9, 35, 0
7, 49454, Note_on_c, 9, 42, 0
7, 49500, Note_on_c, 9, 42, 100
7, 49514, Note_on_c, 9, 42, 0
7, 49560, Note_on_c, 9, 38, 100
7, 49560, Note_on_c, 9, 42, 100
7, 49560, Note_on_c, 9, 39, 60
7, 49574, Note_on_c, 9, 39, 0
7, 49574, Note_on_c, 9, 42, 0
7, 49574, Note_on_c, 9, 38, 0
7, 49620, Note_on_c, 9, 42, 100
7, 49620, Note_on_c, 9, 35, 100
7, 49634, Note_on_c, 9, 35, 0
7, 49634, Note_on_c, 9, 42, 0
7, 49680, Note_on_c, 9, 42, 100
7, 49680, Note_on_c, 9, 35, 100
7, 49694, Note_on_c, 9, 35, 0
7, 49694, Note_on_c, 9, 42, 0
7, 49740, Note_on_c, 9, 42, 100
7, 49754, Note_on_c, 9, 42, 0
7, 49800, Note_on_c, 9, 38, 100
7, 49800, Note_on_c, 9, 42, 100
7, 49800, Note_on_c, 9, 39, 60
7, 49814, Note_on_c, 9, 39, 0
7, 49814, Note_on_c, 9, 42, 0
7, 49814, Note_on_c, 9, 38, 0
7, 49860, Note_on_c, 9, 42, 100
7, 49860, Note_on_c, 9, 35, 100
7, 49874, Note_on_c, 9, 35, 0
7, 49874, Note_on_c, 9, 42, 0
7, 49920, Note_on_c, 9, 42, 100
7, 49920, Note_on_c, 9, 35, 100
7, 49934, Note_on_c, 9, 35, 0
7, 49934, Note_on_c, 9, 42, 0
7, 49980, Note_on_c, 9, 42, 100
7, 49994, Note_on_c, 9, 42, 0
7, 50040, Note_on_c, 9, 38, 100
7, 50040, Note_on_c, 9, 42, 100
7, 50040, Note_on_c, 9, 39, 60
7, 50054, Note_on_c, 9, 39, 0
7, 50054, Note_on_c, 9, 42, 0
7, 50054, Note_on_c, 9, 38, 0
7, 50100, Note_on_c, 9, 42, 100
7, 50100, Note_on_c, 9, 35, 100
7, 50114, Note_on_c, 9, 35, 0
7, 50114, Note_on_c, 9, 42, 0
7, 50160, Note_on_c, 9, 42, 100
7, 50160, Note_on_c, 9, 35, 100
7, 50174, Note_on_c, 9, 35, 0
7, 50174, Note_on_c, 9, 42, 0
7, 50220, Note_on_c, 9, 42, 100
7, 50234, Note_on_c, 9, 42, 0
7, 50280, Note_on_c, 9, 38, 100
7, 50280, Note_on_c, 9, 42, 100
7, 50280, Note_on_c, 9, 39, 60
7, 50294, Note_on_c, 9, 39, 0
7, 50294, Note_on_c, 9, 42, 0
7, 50294, Note_on_c, 9, 38, 0
7, 50340, Note_on_c, 9, 42, 100
7, 50340, Note_on_c, 9, 35, 100
7, 50354, Note_on_c, 9, 35, 0
7, 50354, Note_on_c, 9, 42, 0
7, 50400, Note_on_c, 9, 42, 100
7, 50400, Note_on_c, 9, 35, 100
7, 50414, Note_on_c, 9, 35, 0
7, 50414, Note_on_c, 9, 42, 0
7, 50460, Note_on_c, 9, 42, 100
7, 50474, Note_on_c, 9, 42, 0
7, 50520, Note_on_c, 9, 38, 100
7, 50520, Note_on_c, 9, 42, 100
7, 50520, Note_on_c, 9, 39, 60
7, 50534, Note_on_c, 9, 39, 0
7, 50534, Note_on_c, 9, 42, 0
7, 50534, Note_on_c, 9, 38, 0
7, 50580, Note_on_c, 9, 42, 100
7, 50580, Note_on_c, 9, 35, 100
7, 50594, Note_on_c, 9, 35, 0
7, 50594, Note_on_c, 9, 42, 0
7, 50640, Note_on_c, 9, 42, 100
7, 50640, Note_on_c, 9, 35, 100
7, 50654, Note_on_c, 9, 35, 0
7, 50654, Note_on_c, 9, 42, 0
7, 50700, Note_on_c, 9, 42, 100
7, 50714, Note_on_c, 9, 42, 0
7, 50760, Note_on_c, 9, 38, 100
7, 50760, Note_on_c, 9, 42, 100
7, 50760, Note_on_c, 9, 39, 60
7, 50774, Note_on_c, 9, 39, 0
7, 50774, Note_on_c, 9, 42, 0
7, 50774, Note_on_c, 9, 38, 0
7, 50820, Note_on_c, 9, 42, 100
7, 50820, Note_on_c, 9, 35, 100
7, 50834, Note_on_c, 9, 35, 0
7, 50834, Note_on_c, 9, 42, 0
7, 50880, Note_on_c, 9, 42, 100
7, 50880, Note_on_c, 9, 35, 100
7, 50894, Note_on_c, 9, 35, 0
7, 50894, Note_on_c, 9, 42, 0
7, 50940, Note_on_c, 9, 42, 100
7, 50954, Note_on_c, 9, 42, 0
7, 51000, Note_on_c, 9, 38, 100
7, 51000, Note_on_c, 9, 42, 100
7, 51000, Note_on_c, 9, 39, 60
7, 51014, Note_on_c, 9, 39, 0
7, 51014, Note_on_c, 9, 42, 0
7, 51014, Note_on_c, 9, 38, 0
7, 51060, Note_on_c, 9, 42, 100
7, 51060, Note_on_c, 9, 35, 100
7, 51074, Note_on_c, 9, 35, 0
7, 51074, Note_on_c, 9, 42, 0
7, 51120, Note_on_c, 9, 42, 100
7, 51120, Note_on_c, 9, 35, 100
7, 51134, Note_on_c, 9, 35, 0
7, 51134, Note_on_c, 9, 42, 0
7, 51180, Note_on_c, 9, 42, 100
7, 51194, Note_on_c, 9, 42, 0
7, 51240, Note_on_c, 9, 38, 100
7, 51240, Note_on_c, 9, 42, 100
7, 51240, Note_on_c, 9, 39, 60
7, 51254, Note_on_c, 9, 39, 0
7, 51254, Note_on_c, 9, 42, 0
7, 51254, Note_on_c, 9, 38, 0
7, 51300, Note_on_c, 9, 42, 100
7, 51300, Note_on_c, 9, 35, 100
7, 51314, Note_on_c, 9, 35, 0
7, 51314, Note_on_c, 9, 42, 0
7, 51360, Note_on_c, 9, 42, 100
7, 51360, Note_on_c, 9, 35, 100
7, 51374, Note_on_c, 9, 35, 0
7, 51374, Note_on_c, 9, 42, 0
7, 51420, Note_on_c, 9, 42, 100
7, 51434, Note_on_c, 9, 42, 0
7, 51480, Note_on_c, 9, 38, 100
7, 51480, Note_on_c, 9, 42, 100
7, 51480, Note_on_c, 9, 39, 60
7, 51494, Note_on_c, 9, 39, 0
7, 51494, Note_on_c, 9, 42, 0
7, 51494, Note_on_c, 9, 38, 0
7, 51540, Note_on_c, 9, 42, 100
7, 51540, Note_on_c, 9, 35, 100
7, 51554, Note_on_c, 9, 35, 0
7, 51554, Note_on_c, 9, 42, 0
7, 51600, Note_on_c, 9, 42, 100
7, 51600, Note_on_c, 9, 35, 100
7, 51614, Note_on_c, 9, 35, 0
7, 51614, Note_on_c, 9, 42, 0
7, 51660, Note_on_c, 9, 42, 100
7, 51674, Note_on_c, 9, 42, 0
7, 51720, Note_on_c, 9, 38, 100
7, 51720, Note_on_c, 9, 42, 100
7, 51720, Note_on_c, 9, 39, 60
7, 51734, Note_on_c, 9, 39, 0
7, 51734, Note_on_c, 9, 42, 0
7, 51734, Note_on_c, 9, 38, 0
7, 51780, Note_on_c, 9, 42, 100
7, 51780, Note_on_c, 9, 35, 100
7, 51794, Note_on_c, 9, 35, 0
7, 51794, Note_on_c, 9, 42, 0
7, 51840, Note_on_c, 9, 42, 100
7, 51840, Note_on_c, 9, 35, 100
7, 51854, Note_on_c, 9, 35, 0
7, 51854, Note_on_c, 9, 42, 0
7, 51900, Note_on_c, 9, 42, 100
7, 51914, Note_on_c, 9, 42, 0
7, 51960, Note_on_c, 9, 38, 100
7, 51960, Note_on_c, 9, 42, 100
7, 51960, Note_on_c, 9, 39, 60
7, 51974, Note_on_c, 9, 39, 0
7, 51974, Note_on_c, 9, 42, 0
7, 51974, Note_on_c, 9, 38, 0
7, 52020, Note_on_c, 9, 42, 100
7, 52020, Note_on_c, 9, 35, 100
7, 52034, Note_on_c, 9, 35, 0
7, 52034, Note_on_c, 9, 42, 0
7, 52080, Note_on_c, 9, 42, 100
7, 52080, Note_on_c, 9, 35, 100
7, 52094, Note_on_c, 9, 35, 0
7, 52094, Note_on_c, 9, 42, 0
7, 52140, Note_on_c, 9, 42, 100
7, 52154, Note_on_c, 9, 42, 0
7, 52200, Note_on_c, 9, 38, 100
7, 52200, Note_on_c, 9, 42, 100
7, 52200, Note_on_c, 9, 39, 60
7, 52214, Note_on_c, 9, 39, 0
7, 52214, Note_on_c, 9, 42, 0
7, 52214, Note_on_c, 9, 38, 0
7, 52260, Note_on_c, 9, 42, 100
7, 52260, Note_on_c, 9, 35, 100
7, 52274, Note_on_c, 9, 35, 0
7, 52274, Note_on_c, 9, 42, 0
7, 52320, Note_on_c, 9, 42, 100
7, 52320, Note_on_c, 9, 35, 100
7, 52334, Note_on_c, 9, 35, 0
7, 52334, Note_on_c, 9, 42, 0
7, 52380, Note_on_c, 9, 42, 100
7, 52394, Note_on_c, 9, 42, 0
7, 52440, Note_on_c, 9, 38, 100
7, 52440, Note_on_c, 9, 42, 100
7, 52440, Note_on_c, 9, 39, 60
7, 52454, Note_on_c, 9, 39, 0
7, 52454, Note_on_c, 9, 42, 0
7, 52454, Note_on_c, 9, 38, 0
7, 52500, Note_on_c, 9, 42, 100
7, 52500, Note_on_c, 9, 35, 100
7, 52514, Note_on_c, 9, 35, 0
7, 52514, Note_on_c, 9, 42, 0
7, 52560, Note_on_c, 9, 42, 100
7, 52560, Note_on_c, 9, 35, 100
7, 52574, Note_on_c, 9, 35, 0
7, 52574, Note_on_c, 9, 42, 0
7, 52620, Note_on_c, 9, 42, 100
7, 52634, Note_on_c, 9, 42, 0
7, 52680, Note_on_c, 9, 38, 100
7, 52680, Note_on_c, 9, 42, 100
7, 52680, Note_on_c, 9, 39, 60
7, 52694, Note_on_c, 9, 39, 0
7, 52694, Note_on_c, 9, 42, 0
7, 52694, Note_on_c, 9, 38, 0
7, 52740, Note_on_c, 9, 42, 100
7, 52740, Note_on_c, 9, 35, 100
7, 52754, Note_on_c, 9, 35, 0
7, 52754, Note_on_c, 9, 42, 0
7, 52800, Note_on_c, 9, 42, 100
7, 52800, Note_on_c, 9, 35, 100
7, 52814, Note_on_c, 9, 35, 0
7, 52814, Note_on_c, 9, 42, 0
7, 52860, Note_on_c, 9, 42, 100
7, 52874, Note_on_c, 9, 42, 0
7, 52920, Note_on_c, 9, 38, 100
7, 52920, Note_on_c, 9, 42, 100
7, 52920, Note_on_c, 9, 39, 60
7, 52934, Note_on_c, 9, 39, 0
7, 52934, Note_on_c, 9, 42, 0
7, 52934, Note_on_c, 9, 38, 0
7, 52980, Note_on_c, 9, 42, 100
7, 52980, Note_on_c, 9, 35, 100
7, 52994, Note_on_c, 9, 35, 0
7, 52994, Note_on_c, 9, 42, 0
7, 53040, Note_on_c, 9, 42, 100
7, 53040, Note_on_c, 9, 35, 100
7, 53054, Note_on_c, 9, 35, 0
7, 53054, Note_on_c, 9, 42, 0
7, 53100, Note_on_c, 9, 42, 100
7, 53114, Note_on_c, 9, 42, 0
7, 53160, Note_on_c, 9, 38, 100
7, 53160, Note_on_c, 9, 42, 100
7, 53160, Note_on_c, 9, 39, 60
7, 53174, Note_on_c, 9, 39, 0
7, 53174, Note_on_c, 9, 42, 0
7, 53174, Note_on_c, 9, 38, 0
7, 53220, Note_on_c, 9, 42, 100
7, 53220, Note_on_c, 9, 35, 100
7, 53234, Note_on_c, 9, 35, 0
7, 53234, Note_on_c, 9, 42, 0
7, 53280, Note_on_c, 9, 42, 100
7, 53280, Note_on_c, 9, 35, 100
7, 53294, Note_on_c, 9, 35, 0
7, 53294, Note_on_c, 9, 42, 0
7, 53340, Note_on_c, 9, 42, 100
7, 53354, Note_on_c, 9, 42, 0
7, 53400, Note_on_c, 9, 38, 100
7, 53400, Note_on_c, 9, 42, 100
7, 53400, Note_on_c, 9, 39, 60
7, 53414, Note_on_c, 9, 39, 0
7, 53414, Note_on_c, 9, 42, 0
7, 53414, Note_on_c, 9, 38, 0
7, 53460, Note_on_c, 9, 42, 100
7, 53460, Note_on_c, 9, 35, 100
7, 53474, Note_on_c, 9, 35, 0
7, 53474, Note_on_c, 9, 42, 0
7, 53520, Note_on_c, 9, 42, 100
7, 53520, Note_on_c, 9, 35, 100
7, 53534, Note_on_c, 9, 35, 0
7, 53534, Note_on_c, 9, 42, 0
7, 53580, Note_on_c, 9, 42, 100
7, 53594, Note_on_c, 9, 42, 0
7, 53640, Note_on_c, 9, 38, 100
7, 53640, Note_on_c, 9, 42, 100
7, 53640, Note_on_c, 9, 39, 60
7, 53654, Note_on_c, 9, 39, 0
7, 53654, Note_on_c, 9, 42, 0
7, 53654, Note_on_c, 9, 38, 0
7, 53700, Note_on_c, 9, 42, 100
7, 53700, Note_on_c, 9, 35, 100
7, 53714, Note_on_c, 9, 35, 0
7, 53714, Note_on_c, 9, 42, 0
7, 53760, Note_on_c, 9, 42, 100
7, 53760, Note_on_c, 9, 35, 100
7, 53774, Note_on_c, 9, 35, 0
7, 53774, Note_on_c, 9, 42, 0
7, 53820, Note_on_c, 9, 42, 100
7, 53834, Note_on_c, 9, 42, 0
7, 53880, Note_on_c, 9, 38, 100
7, 53880, Note_on_c, 9, 42, 100
7, 53880, Note_on_c, 9, 39, 60
7, 53894, Note_on_c, 9, 39, 0
7, 53894, Note_on_c, 9, 42, 0
7, 53894, Note_on_c, 9, 38, 0
7, 53940, Note_on_c, 9, 42, 100
7, 53940, Note_on_c, 9, 35, 100
7, 53954, Note_on_c, 9, 35, 0
7, 53954, Note_on_c, 9, 42, 0
7, 54000, Note_on_c, 9, 42, 100
7, 54000, Note_on_c, 9, 35, 100
7, 54014, Note_on_c, 9, 35, 0
7, 54014, Note_on_c, 9, 42, 0
7, 54060, Note_on_c, 9, 42, 100
7, 54074, Note_on_c, 9, 42, 0
7, 54120, Note_on_c, 9, 38, 100
7, 54120, Note_on_c, 9, 42, 100
7, 54120, Note_on_c, 9, 39, 60
7, 54134, Note_on_c, 9, 39, 0
7, 54134, Note_on_c, 9, 42, 0
7, 54134, Note_on_c, 9, 38, 0
7, 54180, Note_on_c, 9, 42, 100
7, 54180, Note_on_c, 9, 35, 100
7, 54194, Note_on_c, 9, 35, 0
7, 54194, Note_on_c, 9, 42, 0
7, 54240, Note_on_c, 9, 42, 100
7, 54240, Note_on_c, 9, 35, 100
7, 54254, Note_on_c, 9, 35, 0
7, 54254, Note_on_c, 9, 42, 0
7, 54300, Note_on_c, 9, 42, 100
7, 54314, Note_on_c, 9, 42, 0
7, 54360, Note_on_c, 9, 38, 100
7, 54360, Note_on_c, 9, 42, 100
7, 54360, Note_on_c, 9, 39, 60
7, 54374, Note_on_c, 9, 39, 0
7, 54374, Note_on_c, 9, 42, 0
7, 54374, Note_on_c, 9, 38, 0
7, 54420, Note_on_c, 9, 42, 100
7, 54420, Note_on_c, 9, 35, 100
7, 54434, Note_on_c, 9, 35, 0
7, 54434, Note_on_c, 9, 42, 0
7, 54480, Note_on_c, 9, 42, 100
7, 54480, Note_on_c, 9, 35, 100
7, 54494, Note_on_c, 9, 35, 0
7, 54494, Note_on_c, 9, 42, 0
7, 54540, Note_on_c, 9, 42, 100
7, 54554, Note_on_c, 9, 42, 0
7, 54600, Note_on_c, 9, 38, 100
7, 54600, Note_on_c, 9, 42, 100
7, 54600, Note_on_c, 9, 39, 60
7, 54614, Note_on_c, 9, 39, 0
7, 54614, Note_on_c, 9, 42, 0
7, 54614, Note_on_c, 9, 38, 0
7, 54660, Note_on_c, 9, 42, 100
7, 54660, Note_on_c, 9, 35, 100
7, 54674, Note_on_c, 9, 35, 0
7, 54674, Note_on_c, 9, 42, 0
7, 54720, Note_on_c, 9, 42, 100
7, 54720, Note_on_c, 9, 35, 100
7, 54734, Note_on_c, 9, 35, 0
7, 54734, Note_on_c, 9, 42, 0
7, 54780, Note_on_c, 9, 42, 100
7, 54794, Note_on_c, 9, 42, 0
7, 54840, Note_on_c, 9, 38, 100
7, 54840, Note_on_c, 9, 42, 100
7, 54840, Note_on_c, 9, 39, 60
7, 54854, Note_on_c, 9, 39, 0
7, 54854, Note_on_c, 9, 42, 0
7, 54854, Note_on_c, 9, 38, 0
7, 54900, Note_on_c, 9, 42, 100
7, 54900, Note_on_c, 9, 35, 100
7, 54914, Note_on_c, 9, 35, 0
7, 54914, Note_on_c, 9, 42, 0
7, 54960, Note_on_c, 9, 42, 100
7, 54960, Note_on_c, 9, 35, 100
7, 54974, Note_on_c, 9, 35, 0
7, 54974, Note_on_c, 9, 42, 0
7, 55020, Note_on_c, 9, 42, 100
7, 55034, Note_on_c, 9, 42, 0
7, 55080, Note_on_c, 9, 38, 100
7, 55080, Note_on_c, 9, 42, 100
7, 55080, Note_on_c, 9, 39, 60
7, 55094, Note_on_c, 9, 39, 0
7, 55094, Note_on_c, 9, 42, 0
7, 55094, Note_on_c, 9, 38, 0
7, 55140, Note_on_c, 9, 42, 100
7, 55140, Note_on_c, 9, 35, 100
7, 55154, Note_on_c, 9, 35, 0
7, 55154, Note_on_c, 9, 42, 0
7, 55200, Note_on_c, 9, 42, 100
7, 55200, Note_on_c, 9, 35, 100
7, 55214, Note_on_c, 9, 35, 0
7, 55214, Note_on_c, 9, 42, 0
7, 55260, Note_on_c, 9, 42, 100
7, 55274, Note_on_c, 9, 42, 0
7, 55320, Note_on_c, 9, 38, 100
7, 55320, Note_on_c, 9, 42, 100
7, 55320, Note_on_c, 9, 39, 60
7, 55334, Note_on_c, 9, 39, 0
7, 55334, Note_on_c, 9, 42, 0
7, 55334, Note_on_c, 9, 38, 0
7, 55380, Note_on_c, 9, 42, 100
7, 55380, Note_on_c, 9, 35, 100
7, 55394, Note_on_c, 9, 35, 0
7, 55394, Note_on_c, 9, 42, 0
7, 55440, Note_on_c, 9, 42, 100
7, 55440, Note_on_c, 9, 35, 100
7, 55454, Note_on_c, 9, 35, 0
7, 55454, Note_on_c, 9, 42, 0
7, 55500, Note_on_c, 9, 42, 100
7, 55514, Note_on_c, 9, 42, 0
7, 55560, Note_on_c, 9, 38, 100
7, 55560, Note_on_c, 9, 42, 100
7, 55560, Note_on_c, 9, 39, 60
7, 55574, Note_on_c, 9, 39, 0
7, 55574, Note_on_c, 9, 42, 0
7, 55574, Note_on_c, 9, 38, 0
7, 55620, Note_on_c, 9, 42, 100
7, 55620, Note_on_c, 9, 35, 100
7, 55634, Note_on_c, 9, 35, 0
7, 55634, Note_on_c, 9, 42, 0
7, 55680, Note_on_c, 9, 42, 100
7, 55680, Note_on_c, 9, 35, 100
7, 55694, Note_on_c, 9, 35, 0
7, 55694, Note_on_c, 9, 42, 0
7, 55740, Note_on_c, 9, 42, 100
7, 55754, Note_on_c, 9, 42, 0
7, 55800, Note_on_c, 9, 38, 100
7, 55800, Note_on_c, 9, 42, 100
7, 55800, Note_on_c, 9, 39, 60
7, 55814, Note_on_c, 9, 39, 0
7, 55814, Note_on_c, 9, 42, 0
7, 55814, Note_on_c, 9, 38, 0
7, 55860, Note_on_c, 9, 42, 100
7, 55860, Note_on_c, 9, 35, 100
7, 55874, Note_on_c, 9, 35, 0
7, 55874, Note_on_c, 9, 42, 0
7, 55920, Note_on_c, 9, 42, 100
7, 55920, Note_on_c, 9, 35, 100
7, 55934, Note_on_c, 9, 35, 0
7, 55934, Note_on_c, 9, 42, 0
7, 55980, Note_on_c, 9, 42, 100
7, 55994, Note_on_c, 9, 42, 0
7, 56040, Note_on_c, 9, 38, 100
7, 56040, Note_on_c, 9, 42, 100
7, 56040, Note_on_c, 9, 39, 60
7, 56054, Note_on_c, 9, 39, 0
7, 56054, Note_on_c, 9, 42, 0
7, 56054, Note_on_c, 9, 38, 0
7, 56100, Note_on_c, 9, 42, 100
7, 56100, Note_on_c, 9, 35, 100
7, 56114, Note_on_c, 9, 35, 0
7, 56114, Note_on_c, 9, 42, 0
7, 56160, Note_on_c, 9, 42, 100
7, 56160, Note_on_c, 9, 35, 100
7, 56174, Note_on_c, 9, 35, 0
7, 56174, Note_on_c, 9, 42, 0
7, 56220, Note_on_c, 9, 42, 100
7, 56234, Note_on_c, 9, 42, 0
7, 56280, Note_on_c, 9, 38, 100
7, 56280, Note_on_c, 9, 42, 100
7, 56280, Note_on_c, 9, 39, 60
7, 56294, Note_on_c, 9, 39, 0
7, 56294, Note_on_c, 9, 42, 0
7, 56294, Note_on_c, 9, 38, 0
7, 56340, Note_on_c, 9, 42, 100
7, 56340, Note_on_c, 9, 35, 100
7, 56354, Note_on_c, 9, 35, 0
7, 56354, Note_on_c, 9, 42, 0
7, 56400, Note_on_c, 9, 42, 100
7, 56400, Note_on_c, 9, 35, 100
7, 56414, Note_on_c, 9, 35, 0
7, 56414, Note_on_c, 9, 42, 0
7, 56460, Note_on_c, 9, 42, 100
7, 56474, Note_on_c, 9, 42, 0
7, 56520, Note_on_c, 9, 38, 100
7, 56520, Note_on_c, 9, 42, 100
7, 56520, Note_on_c, 9, 39, 60
7, 56534, Note_on_c, 9, 39, 0
7, 56534, Note_on_c, 9, 42, 0
7, 56534, Note_on_c, 9, 38, 0
7, 56580, Note_on_c, 9, 42, 100
7, 56580, Note_on_c, 9, 35, 100
7, 56594, Note_on_c, 9, 35, 0
7, 56594, Note_on_c, 9, 42, 0
7, 56640, Note_on_c, 9, 42, 100
7, 56640, Note_on_c, 9, 35, 100
7, 56654, Note_on_c, 9, 35, 0
7, 56654, Note_on_c, 9, 42, 0
7, 56700, Note_on_c, 9, 42, 100
7, 56714, Note_on_c, 9, 42, 0
7, 56760, Note_on_c, 9, 38, 100
7, 56760, Note_on_c, 9, 42, 100
7, 56760, Note_on_c, 9, 39, 60
7, 56774, Note_on_c, 9, 39, 0
7, 56774, Note_on_c, 9, 42, 0
7, 56774, Note_on_c, 9, 38, 0
7, 56820, Note_on_c, 9, 42, 100
7, 56820, Note_on_c, 9, 35, 100
7, 56834, Note_on_c, 9, 35, 0
7, 56834, Note_on_c, 9, 42, 0
7, 56880, Note_on_c, 9, 42, 100
7, 56880, Note_on_c, 9, 35, 100
7, 56894, Note_on_c, 9, 35, 0
7, 56894, Note_on_c, 9, 42, 0
7, 56940, Note_on_c, 9, 42, 100
7, 56954, Note_on_c, 9, 42, 0
7, 57000, Note_on_c, 9, 38, 100
7, 57000, Note_on_c, 9, 42, 100
7, 57000, Note_on_c, 9, 39, 60
7, 57014, Note_on_c, 9, 39, 0
7, 57014, Note_on_c, 9, 42, 0
7, 57014, Note_on_c, 9, 38, 0
7, 57060, Note_on_c, 9, 42, 100
7, 57060, Note_on_c, 9, 35, 100
7, 57074, Note_on_c, 9, 35, 0
7, 57074, Note_on_c, 9, 42, 0
7, 57120, Note_on_c, 9, 42, 100
7, 57120, Note_on_c, 9, 35, 100
7, 57134, Note_on_c, 9, 35, 0
7, 57134, Note_on_c, 9, 42, 0
7, 57180, Note_on_c, 9, 42, 100
7, 57194, Note_on_c, 9, 42, 0
7, 57240, Note_on_c, 9, 38, 100
7, 57240, Note_on_c, 9, 42, 100
7, 57240, Note_on_c, 9, 39, 60
7, 57254, Note_on_c, 9, 39, 0
7, 57254, Note_on_c, 9, 42, 0
7, 57254, Note_on_c, 9, 38, 0
7, 57300, Note_on_c, 9, 42, 100
7, 57300, Note_on_c, 9, 35, 100
7, 57314, Note_on_c, 9, 35, 0
7, 57314, Note_on_c, 9, 42, 0
7, 57360, Note_on_c, 9, 42, 100
7, 57360, Note_on_c, 9, 35, 100
7, 57374, Note_on_c, 9, 35, 0
7, 57374, Note_on_c, 9, 42, 0
7, 57420, Note_on_c, 9, 42, 100
7, 57434, Note_on_c, 9, 42, 0
7, 57480, Note_on_c, 9, 38, 100
7, 57480, Note_on_c, 9, 42, 100
7, 57480, Note_on_c, 9, 39, 60
7, 57494, Note_on_c, 9, 39, 0
7, 57494, Note_on_c, 9, 42, 0
7, 57494, Note_on_c, 9, 38, 0
7, 57540, Note_on_c, 9, 42, 100
7, 57540, Note_on_c, 9, 35, 100
7, 57554, Note_on_c, 9, 35, 0
7, 57554, Note_on_c, 9, 42, 0
7, 57600, Note_on_c, 9, 42, 100
7, 57600, Note_on_c, 9, 35, 100
7, 57614, Note_on_c, 9, 35, 0
7, 57614, Note_on_c, 9, 42, 0
7, 57660, Note_on_c, 9, 42, 100
7, 57674, Note_on_c, 9, 42, 0
7, 57720, Note_on_c, 9, 38, 100
7, 57720, Note_on_c, 9, 42, 100
7, 57720, Note_on_c, 9, 39, 60
7, 57734, Note_on_c, 9, 39, 0
7, 57734, Note_on_c, 9, 42, 0
7, 57734, Note_on_c, 9, 38, 0
7, 57780, Note_on_c, 9, 42, 100
7, 57780, Note_on_c, 9, 35, 100
7, 57794, Note_on_c, 9, 35, 0
7, 57794, Note_on_c, 9, 42, 0
7, 57840, Note_on_c, 9, 42, 100
7, 57840, Note_on_c, 9, 35, 100
7, 57854, Note_on_c, 9, 35, 0
7, 57854, Note_on_c, 9, 42, 0
7, 57900, Note_on_c, 9, 42, 100
7, 57914, Note_on_c, 9, 42, 0
7, 57960, Note_on_c, 9, 38, 100
7, 57960, Note_on_c, 9, 42, 100
7, 57960, Note_on_c, 9, 39, 60
7, 57974, Note_on_c, 9, 39, 0
7, 57974, Note_on_c, 9, 42, 0
7, 57974, Note_on_c, 9, 38, 0
7, 58020, Note_on_c, 9, 42, 100
7, 58020, Note_on_c, 9, 35, 100
7, 58034, Note_on_c, 9, 35, 0
7, 58034, Note_on_c, 9, 42, 0
7, 58080, Note_on_c, 9, 42, 100
7, 58080, Note_on_c, 9, 35, 100
7, 58094, Note_on_c, 9, 35, 0
7, 58094, Note_on_c, 9, 42, 0
7, 58140, Note_on_c, 9, 42, 100
7, 58154, Note_on_c, 9, 42, 0
7, 58200, Note_on_c, 9, 38, 100
7, 58200, Note_on_c, 9, 42, 100
7, 58200, Note_on_c, 9, 39, 60
7, 58214, Note_on_c, 9, 39, 0
7, 58214, Note_on_c, 9, 42, 0
7, 58214, Note_on_c, 9, 38, 0
7, 58260, Note_on_c, 9, 42, 100
7, 58260, Note_on_c, 9, 35, 100
7, 58274, Note_on_c, 9, 35, 0
7, 58274, Note_on_c, 9, 42, 0
7, 58320, Note_on_c, 9, 42, 100
7, 58320, Note_on_c, 9, 35, 100
7, 58334, Note_on_c, 9, 35, 0
7, 58334, Note_on_c, 9, 42, 0
7, 58380, Note_on_c, 9, 42, 100
7, 58394, Note_on_c, 9, 42, 0
7, 58440, Note_on_c, 9, 38, 100
7, 58440, Note_on_c, 9, 42, 100
7, 58440, Note_on_c, 9, 39, 60
7, 58454, Note_on_c, 9, 39, 0
7, 58454, Note_on_c, 9, 42, 0
7, 58454, Note_on_c, 9, 38, 0
7, 58500, Note_on_c, 9, 42, 100
7, 58500, Note_on_c, 9, 35, 100
7, 58514, Note_on_c, 9, 35, 0
7, 58514, Note_on_c, 9, 42, 0
7, 58560, Note_on_c, 9, 42, 100
7, 58560, Note_on_c, 9, 35, 100
7, 58574, Note_on_c, 9, 35, 0
7, 58574, Note_on_c, 9, 42, 0
7, 58620, Note_on_c, 9, 42, 100
7, 58634, Note_on_c, 9, 42, 0
7, 58680, Note_on_c, 9, 38, 100
7, 58680, Note_on_c, 9, 42, 100
7, 58680, Note_on_c, 9, 39, 60
7, 58694, Note_on_c, 9, 39, 0
7, 58694, Note_on_c, 9, 42, 0
7, 58694, Note_on_c, 9, 38, 0
7, 58740, Note_on_c, 9, 42, 100
7, 58740, Note_on_c, 9, 35, 100
7, 58754, Note_on_c, 9, 35, 0
7, 58754, Note_on_c, 9, 42, 0
7, 58800, Note_on_c, 9, 42, 100
7, 58800, Note_on_c, 9, 35, 100
7, 58814, Note_on_c, 9, 35, 0
7, 58814, Note_on_c, 9, 42, 0
7, 58860, Note_on_c, 9, 42, 100
7, 58874, Note_on_c, 9, 42, 0
7, 58920, Note_on_c, 9, 38, 100
7, 58920, Note_on_c, 9, 42, 100
7, 58920, Note_on_c, 9, 39, 60
7, 58934, Note_on_c, 9, 39, 0
7, 58934, Note_on_c, 9, 42, 0
7, 58934, Note_on_c, 9, 38, 0
7, 58980, Note_on_c, 9, 42, 100
7, 58980, Note_on_c, 9, 35, 100
7, 58994, Note_on_c, 9, 35, 0
7, 58994, Note_on_c, 9, 42, 0
7, 59040, Note_on_c, 9, 42, 100
7, 59040, Note_on_c, 9, 35, 100
7, 59054, Note_on_c, 9, 35, 0
7, 59054, Note_on_c, 9, 42, 0
7, 59100, Note_on_c, 9, 42, 100
7, 59114, Note_on_c, 9, 42, 0
7, 59160, Note_on_c, 9, 38, 100
7, 59160, Note_on_c, 9, 42, 100
7, 59160, Note_on_c, 9, 39, 60
7, 59174, Note_on_c, 9, 39, 0
7, 59174, Note_on_c, 9, 42, 0
7, 59174, Note_on_c, 9, 38, 0
7, 59220, Note_on_c, 9, 42, 100
7, 59220, Note_on_c, 9, 35, 100
7, 59234, Note_on_c, 9, 35, 0
7, 59234, Note_on_c, 9, 42, 0
7, 59280, Note_on_c, 9, 42, 100
7, 59280, Note_on_c, 9, 35, 100
7, 59294, Note_on_c, 9, 35, 0
7, 59294, Note_on_c, 9, 42, 0
7, 59340, Note_on_c, 9, 42, 100
7, 59354, Note_on_c, 9, 42, 0
7, 59400, Note_on_c, 9, 38, 100
7, 59400, Note_on_c, 9, 42, 100
7, 59400, Note_on_c, 9, 39, 60
7, 59414, Note_on_c, 9, 39, 0
7, 59414, Note_on_c, 9, 42, 0
7, 59414, Note_on_c, 9, 38, 0
7, 59460, Note_on_c, 9, 42, 100
7, 59460, Note_on_c, 9, 35, 100
7, 59474, Note_on_c, 9, 35, 0
7, 59474, Note_on_c, 9, 42, 0
7, 59520, Note_on_c, 9, 42, 100
7, 59520, Note_on_c, 9, 35, 100
7, 59534, Note_on_c, 9, 35, 0
7, 59534, Note_on_c, 9, 42, 0
7, 59580, Note_on_c, 9, 42, 100
7, 59594, Note_on_c, 9, 42, 0
7, 59640, Note_on_c, 9, 38, 100
7, 59640, Note_on_c, 9, 42, 100
7, 59640, Note_on_c, 9, 39, 60
7, 59654, Note_on_c, 9, 39, 0
7, 59654, Note_on_c, 9, 42, 0
7, 59654, Note_on_c, 9, 38, 0
7, 59700, Note_on_c, 9, 42, 100
7, 59700, Note_on_c, 9, 35, 100
7, 59714, Note_on_c, 9, 35, 0
7, 59714, Note_on_c, 9, 42, 0
7, 59760, Note_on_c, 9, 42, 100
7, 59760, Note_on_c, 9, 35, 100
7, 59774, Note_on_c, 9, 35, 0
7, 59774, Note_on_c, 9, 42, 0
7, 59820, Note_on_c, 9, 42, 100
7, 59834, Note_on_c, 9, 42, 0
7, 59880, Note_on_c, 9, 38, 100
7, 59880, Note_on_c, 9, 42, 100
7, 59880, Note_on_c, 9, 39, 60
7, 59894, Note_on_c, 9, 39, 0
7, 59894, Note_on_c, 9, 42, 0
7, 59894, Note_on_c, 9, 38, 0
7, 59940, Note_on_c, 9, 42, 100
7, 59940, Note_on_c, 9, 35, 100
7, 59954, Note_on_c, 9, 35, 0
7, 59954, Note_on_c, 9, 42, 0
7, 60000, Control_c, 9, 7, 100
7, 60000, Control_c, 9, 7, 100
7, 60000, Control_c, 9, 7, 100
7, 60028, Control_c, 9, 7, 99
7, 60028, Control_c, 9, 7, 99
7, 60028, Control_c, 9, 7, 99
7, 60057, Control_c, 9, 7, 98
7, 60057, Control_c, 9, 7, 98
7, 60057, Control_c, 9, 7, 98
7, 60059, Note_on_c, 9, 42, 100
7, 60073, Note_on_c, 9, 42, 0
7, 60086, Control_c, 9, 7, 97
7, 60086, Control_c, 9, 7, 97
7, 60086, Control_c, 9, 7, 97
7, 60115, Control_c, 9, 7, 96
7, 60115, Control_c, 9, 7, 96
7, 60115, Control_c, 9, 7, 96
7, 60119, Note_on_c, 9, 38, 100
7, 60119, Note_on_c, 9, 42, 100
7, 60119, Note_on_c, 9, 39, 60
7, 60133, Note_on_c, 9, 39, 0
7, 60133, Note_on_c, 9, 42, 0
7, 60133, Note_on_c, 9, 38, 0
7, 60143, Control_c, 9, 7, 95
7, 60143, Control_c, 9, 7, 95
7, 60143, Control_c, 9, 7, 95
7, 60172, Control_c, 9, 7, 94
7, 60172, Control_c, 9, 7, 94
7, 60172, Control_c, 9, 7, 94
7, 60179, Note_on_c, 9, 42, 100
7, 60179, Note_on_c, 9, 35, 100
7, 60193, Note_on_c, 9, 35, 0
7, 60193, Note_on_c, 9, 42, 0
7, 60201, Control_c, 9, 7, 93
7, 60201, Control_c, 9, 7, 93
7, 60201, Control_c, 9, 7, 93
7, 60230, Control_c, 9, 7, 92
7, 60230, Control_c, 9, 7, 92
7, 60230, Control_c, 9, 7, 92
7, 60239, Note_on_c, 9, 42, 100
7, 60239, Note_on_c, 9, 35, 100
7, 60253, Note_on_c, 9, 35, 0
7, 60253, Note_on_c, 9, 42, 0
7, 60259, Control_c, 9, 7, 91
7, 60259, Control_c, 9, 7, 91
7, 60259, Control_c, 9, 7, 91
7, 60287, Control_c, 9, 7, 90
7, 60287, Control_c, 9, 7, 90
7, 60287, Control_c, 9, 7, 90
7, 60299, Note_on_c, 9, 42, 100
7, 60313, Note_on_c, 9, 42, 0
7, 60316, Control_c, 9, 7, 89
7, 60316, Control_c, 9, 7, 89
7, 60316, Control_c, 9, 7, 89
7, 60345, Control_c, 9, 7, 88
7, 60345, Control_c, 9, 7, 88
7, 60345, Control_c, 9, 7, 88
7, 60359, Note_on_c, 9, 38, 100
7, 60359, Note_on_c, 9, 42, 100
7, 60359, Note_on_c, 9, 39, 60
7, 60373, Note_on_c, 9, 39, 0
7, 60373, Note_on_c, 9, 42, 0
7, 60373, Note_on_c, 9, 38, 0
7, 60374, Control_c, 9, 7, 87
7, 60374, Control_c, 9, 7, 87
7, 60374, Control_c, 9, 7, 87
7, 60403, Control_c, 9, 7, 86
7, 60403, Control_c, 9, 7, 86
7, 60403, Control_c, 9, 7, 86
7, 60419, Note_on_c, 9, 42, 100
7, 60419, Note_on_c, 9, 35, 100
7, 60431, Control_c, 9, 7, 85
7, 60431, Control_c, 9, 7, 85
7, 60431, Control_c, 9, 7, 85
7, 60433, Note_on_c, 9, 35, 0
7, 60433, Note_on_c, 9, 42, 0
7, 60460, Control_c, 9, 7, 84
7, 60460, Control_c, 9, 7, 84
7, 60460, Control_c, 9, 7, 84
7, 60479, Note_on_c, 9, 42, 100
7, 60479, Note_on_c, 9, 35, 100
7, 60489, Control_c, 9, 7, 83
7, 60489, Control_c, 9, 7, 83
7, 60489, Control_c, 9, 7, 83
7, 60493, Note_on_c, 9, 35, 0
7, 60493, Note_on_c, 9, 42, 0
7, 60518, Control_c, 9, 7, 82
7, 60518, Control_c, 9, 7, 82
7, 60518, Control_c, 9, 7, 82
7, 60539, Note_on_c, 9, 42, 100
7, 60547, Control_c, 9, 7, 81
7, 60547, Control_c, 9, 7, 81
7, 60547, Control_c, 9, 7, 81
7, 60553, Note_on_c, 9, 42, 0
7, 60575, Control_c, 9, 7, 80
7, 60575, Control_c, 9, 7, 80
7, 60575, Control_c, 9, 7, 80
7, 60599, Note_on_c, 9, 38, 100
7, 60599, Note_on_c, 9, 42, 100
7, 60599, Note_on_c, 9, 39, 60
7, 60604, Control_c, 9, 7, 79
7, 60604, Control_c, 9, 7, 79
7, 60604, Control_c, 9, 7, 79
7, 60613, Note_on_c, 9, 39, 0
7, 60613, Note_on_c, 9, 42, 0
7, 60613, Note_on_c, 9, 38, 0
7, 60633, Control_c, 9, 7, 78
7, 60633, Control_c, 9, 7, 78
7, 60633, Control_c, 9, 7, 78
7, 60659, Note_on_c, 9, 42, 100
7, 60659, Note_on_c, 9, 35, 100
7, 60662, Control_c, 9, 7, 77
7, 60662, Control_c, 9, 7, 77
7, 60662, Control_c, 9, 7, 77
7, 60673, Note_on_c, 9, 35, 0
7, 60673, Note_on_c, 9, 42, 0
7, 60690, Control_c, 9, 7, 76
7, 60690, Control_c, 9, 7, 76
7, 60690, Control_c, 9, 7, 76
7, 60719, Control_c, 9, 7, 75
7, 60719, Control_c, 9, 7, 75
7, 60719, Control_c, 9, 7, 75
7, 60719, Note_on_c, 9, 42, 100
7, 60719, Note_on_c, 9, 35, 100
7, 60733, Note_on_c, 9, 35, 0
7, 60733, Note_on_c, 9, 42, 0
7, 60748, Control_c, 9, 7, 74
7, 60748, Control_c, 9, 7, 74
7, 60748, Control_c, 9, 7, 74
7, 60777, Control_c, 9, 7, 73
7, 60777, Control_c, 9, 7, 73
7, 60777, Control_c, 9, 7, 73
7, 60779, Note_on_c, 9, 42, 100
7, 60793, Note_on_c, 9, 42, 0
7, 60806, Control_c, 9, 7, 72
7, 60806, Control_c, 9, 7, 72
7, 60806, Control_c, 9, 7, 72
7, 60834, Control_c, 9, 7, 71
7, 60834, Control_c, 9, 7, 71
7, 60834, Control_c, 9, 7, 71
7, 60839, Note_on_c, 9, 38, 100
7, 60839, Note_on_c, 9, 42, 100
7, 60839, Note_on_c, 9, 39, 60
7, 60853, Note_on_c, 9, 39, 0
7, 60853, Note_on_c, 9, 42, 0
7, 60853, Note_on_c, 9, 38, 0
7, 60863, Control_c, 9, 7, 70
7, 60863, Control_c, 9, 7, 70
7, 60863, Control_c, 9, 7, 70
7, 60892, Control_c, 9, 7, 69
7, 60892, Control_c, 9, 7, 69
7, 60892, Control_c, 9, 7, 69
7, 60899, Note_on_c, 9, 42, 100
7, 60899, Note_on_c, 9, 35, 100
7, 60913, Note_on_c, 9, 35, 0
7, 60913, Note_on_c, 9, 42, 0
7, 60921, Control_c, 9, 7, 68
7, 60921, Control_c, 9, 7, 68
7, 60921, Control_c, 9, 7, 68
7, 60950, Control_c, 9, 7, 67
7, 60950, Control_c, 9, 7, 67
7, 60950, Control_c, 9, 7, 67
7, 60959, Note_on_c, 9, 42, 100
7, 60959, Note_on_c, 9, 35, 100
7, 60973, Note_on_c, 9, 35, 0
7, 60973, Note_on_c, 9, 42, 0
7, 60978, Control_c, 9, 7, 66
7, 60978, Control_c, 9, 7, 66
7, 60978, Control_c, 9, 7, 66
7, 61007, Control_c, 9, 7, 65
7, 61007, Control_c, 9, 7, 65
7, 61007, Control_c, 9, 7, 65
7, 61019, Note_on_c, 9, 42, 100
7, 61033, Note_on_c, 9, 42, 0
7, 61036, Control_c, 9, 7, 64
7, 61036, Control_c, 9, 7, 64
7, 61036, Control_c, 9, 7, 64
7, 61065, Control_c, 9, 7, 63
7, 61065, Control_c, 9, 7, 63
7, 61065, Control_c, 9, 7, 63
7, 61079, Note_on_c, 9, 38, 100
7, 61079, Note_on_c, 9, 42, 100
7, 61079, Note_on_c, 9, 39, 60
7, 61093, Note_on_c, 9, 39, 0
7, 61093, Note_on_c, 9, 42, 0
7, 61093, Note_on_c, 9, 38, 0
7, 61094, Control_c, 9, 7, 62
7, 61094, Control_c, 9, 7, 62
7, 61094, Control_c, 9, 7, 62
7, 61122, Control_c, 9, 7, 61
7, 61122, Control_c, 9, 7, 61
7, 61122, Control_c, 9, 7, 61
7, 61139, Note_on_c, 9, 42, 100
7, 61139, Note_on_c, 9, 35, 100
7, 61151, Control_c, 9, 7, 60
7, 61151, Control_c, 9, 7, 60
7, 61151, Control_c, 9, 7, 60
7, 61153, Note_on_c, 9, 35, 0
7, 61153, Note_on_c, 9, 42, 0
7, 61180, Control_c, 9, 7, 59
7, 61180, Control_c, 9, 7, 59
7, 61180, Control_c, 9, 7, 59
7, 61199, Note_on_c, 9, 42, 100
7, 61199, Note_on_c, 9, 35, 100
7, 61209, Control_c, 9, 7, 58
7, 61209, Control_c, 9, 7, 58
7, 61209, Control_c, 9, 7, 58
7, 61213, Note_on_c, 9, 35, 0
7, 61213, Note_on_c, 9, 42, 0
7, 61237, Control_c, 9, 7, 57
7, 61237, Control_c, 9, 7, 57
7, 61237, Control_c, 9, 7, 57
7, 61259, Note_on_c, 9, 42, 100
7, 61266, Control_c, 9, 7, 56
7, 61266, Control_c, 9, 7, 56
7, 61266, Control_c, 9, 7, 56
7, 61273, Note_on_c, 9, 42, 0
7, 61295, Control_c, 9, 7, 55
7, 61295, Control_c, 9, 7, 55
7, 61295, Control_c, 9, 7, 55
7, 61319, Note_on_c, 9, 38, 100
7, 61319, Note_on_c, 9, 42, 100
7, 61319, Note_on_c, 9, 39, 60
7, 61324, Control_c, 9, 7, 54
7, 61324, Control_c, 9, 7, 54
7, 61324, Control_c, 9, 7, 54
7, 61333, Note_on_c, 9, 39, 0
7, 61333, Note_on_c, 9, 42, 0
7, 61333, Note_on_c, 9, 38, 0
7, 61353, Control_c, 9, 7, 53
7, 61353, Control_c, 9, 7, 53
7, 61353, Control_c, 9, 7, 53
7, 61379, Note_on_c, 9, 42, 100
7, 61379, Note_on_c, 9, 35, 100
7, 61381, Control_c, 9, 7, 52
7, 61381, Control_c, 9, 7, 52
7, 61381, Control_c, 9, 7, 52
7, 61393, Note_on_c, 9, 35, 0
7, 61393, Note_on_c, 9, 42, 0
7, 61410, Control_c, 9, 7, 51
7, 61410, Control_c, 9, 7, 51
7, 61410, Control_c, 9, 7, 51
7, 61439, Control_c, 9, 7, 50
7, 61439, Control_c, 9, 7, 50
7, 61439, Control_c, 9, 7, 50
7, 61439, Note_on_c, 9, 42, 100
7, 61439, Note_on_c, 9, 35, 100
7, 61453, Note_on_c, 9, 35, 0
7, 61453, Note_on_c, 9, 42, 0
7, 61468, Control_c, 9, 7, 49
7, 61468, Control_c, 9, 7, 49
7, 61468, Control_c, 9, 7, 49
7, 61497, Control_c, 9, 7, 48
7, 61497, Control_c, 9, 7, 48
7, 61497, Control_c, 9, 7, 48
7, 61499, Note_on_c, 9, 42, 100
7, 61513, Note_on_c, 9, 42, 0
7, 61525, Control_c, 9, 7, 47
7, 61525, Control_c, 9, 7, 47
7, 61525, Control_c, 9, 7, 47
7, 61554, Control_c, 9, 7, 46
7, 61554, Control_c, 9, 7, 46
7, 61554, Control_c, 9, 7, 46
7, 61559, Note_on_c, 9, 38, 100
7, 61559, Note_on_c, 9, 42, 100
7, 61559, Note_on_c, 9, 39, 60
7, 61573, Note_on_c, 9, 39, 0
7, 61573, Note_on_c, 9, 42, 0
7, 61573, Note_on_c, 9, 38, 0
7, 61583, Control_c, 9, 7, 45
7, 61583, Control_c, 9, 7, 45
7, 61583, Control_c, 9, 7, 45
7, 61612, Control_c, 9, 7, 44
7, 61612, Control_c, 9, 7, 44
7, 61612, Control_c, 9, 7, 44
7, 61619, Note_on_c, 9, 42, 100
7, 61619, Note_on_c, 9, 35, 100
7, 61633, Note_on_c, 9, 35, 0
7, 61633, Note_on_c, 9, 42, 0
7, 61641, Control_c, 9, 7, 43
7, 61641, Control_c, 9, 7, 43
7, 61641, Control_c, 9, 7, 43
7, 61669, Control_c, 9, 7, 42
7, 61669, Control_c, 9, 7, 42
7, 61669, Control_c, 9, 7, 42
7, 61679, Note_on_c, 9, 42, 100
7, 61679, Note_on_c, 9, 35, 100
7, 61693, Note_on_c, 9, 35, 0
7, 61693, Note_on_c, 9, 42, 0
7, 61698, Control_c, 9, 7, 41
7, 61698, Control_c, 9, 7, 41
7, 61698, Control_c, 9, 7, 41
7, 61727, Control_c, 9, 7, 40
7, 61727, Control_c, 9, 7, 40
7, 61727, Control_c, 9, 7, 40
7, 61739, Note_on_c, 9, 42, 100
7, 61753, Note_on_c, 9, 42, 0
7, 61756, Control_c, 9, 7, 39
7, 61756, Control_c, 9, 7, 39
7, 61756, Control_c, 9, 7, 39
7, 61784, Control_c, 9, 7, 38
7, 61784, Control_c, 9, 7, 38
7, 61784, Control_c, 9, 7, 38
7, 61799, Note_on_c, 9, 38, 100
7, 61799, Note_on_c, 9, 42, 100
7, 61799, Note_on_c, 9, 39, 60
7, 61813, Note_on_c, 9, 39, 0
7, 61813, Note_on_c, 9, 42, 0
7, 61813, Note_on_c, 9, 38, 0
7, 61813, Control_c, 9, 7, 37
7, 61813, Control_c, 9, 7, 37
7, 61813, Control_c, 9, 7, 37
7, 61842, Control_c, 9, 7, 36
7, 61842, Control_c, 9, 7, 36
7, 61842, Control_c, 9, 7, 36
7, 61859, Note_on_c, 9, 42, 100
7, 61859, Note_on_c, 9, 35, 100
7, 61871, Control_c, 9, 7, 35
7, 61871, Control_c, 9, 7, 35
7, 61871, Control_c, 9, 7, 35
7, 61873, Note_on_c, 9, 35, 0
7, 61873, Note_on_c, 9, 42, 0
7, 61900, Control_c, 9, 7, 34
7, 61900, Control_c, 9, 7, 34
7, 61900, Control_c, 9, 7, 34
7, 61919, Note_on_c, 9, 42, 100
7, 61919, Note_on_c, 9, 35, 100
7, 61928, Control_c, 9, 7, 33
7, 61928, Control_c, 9, 7, 33
7, 61928, Control_c, 9, 7, 33
7, 61933, Note_on_c, 9, 35, 0
7, 61933, Note_on_c, 9, 42, 0
7, 61957, Control_c, 9, 7, 32
7, 61957, Control_c, 9, 7, 32
7, 61957, Control_c, 9, 7, 32
7, 61979, Note_on_c, 9, 42, 100
7, 61986, Control_c, 9, 7, 31
7, 61986, Control_c, 9, 7, 31
7, 61986, Control_c, 9, 7, 31
7, 61993, Note_on_c, 9, 42, 0
7, 62015, Control_c, 9, 7, 30
7, 62015, Control_c, 9, 7, 30
7, 62015, Control_c, 9, 7, 30
7, 62039, Note_on_c, 9, 38, 100
7, 62039, Note_on_c, 9, 42, 100
7, 62039, Note_on_c, 9, 39, 60
7, 62044, Control_c, 9, 7, 29
7, 62044, Control_c, 9, 7, 29
7, 62044, Control_c, 9, 7, 29
7, 62053, Note_on_c, 9, 39, 0
7, 62053, Note_on_c, 9, 42, 0
7, 62053, Note_on_c, 9, 38, 0
7, 62072, Control_c, 9, 7, 28
7, 62072, Control_c, 9, 7, 28
7, 62072, Control_c, 9, 7, 28
7, 62099, Note_on_c, 9, 42, 100
7, 62099, Note_on_c, 9, 35, 100
7, 62101, Control_c, 9, 7, 27
7, 62101, Control_c, 9, 7, 27
7, 62101, Control_c, 9, 7, 27
7, 62113, Note_on_c, 9, 35, 0
7, 62113, Note_on_c, 9, 42, 0
7, 62130, Control_c, 9, 7, 26
7, 62130, Control_c, 9, 7, 26
7, 62130, Control_c, 9, 7, 26
7, 62159, Control_c, 9, 7, 25
7, 62159, Control_c, 9, 7, 25
7, 62159, Control_c, 9, 7, 25
7, 62159, Note_on_c, 9, 42, 100
7, 62159, Note_on_c, 9, 35, 100
7, 62173, Note_on_c, 9, 35, 0
7, 62173, Note_on_c, 9, 42, 0
7, 62188, Control_c, 9, 7, 24
7, 62188, Control_c, 9, 7, 24
7, 62188, Control_c, 9, 7, 24
7, 62216, Control_c, 9, 7, 23
7, 62216, Control_c, 9, 7, 23
7, 62216, Control_c, 9, 7, 23
7, 62219, Note_on_c, 9, 42, 100
7, 62233, Note_on_c, 9, 42, 0
7, 62245, Control_c, 9, 7, 22
7, 62245, Control_c, 9, 7, 22
7, 62245, Control_c, 9, 7, 22
7, 62274, Control_c, 9, 7, 21
7, 62274, Control_c, 9, 7, 21
7, 62274, Control_c, 9, 7, 21
7, 62279, Note_on_c, 9, 38, 100
7, 62279, Note_on_c, 9, 42, 100
7, 62279, Note_on_c, 9, 39, 60
7, 62293, Note_on_c, 9, 39, 0
7, 62293, Note_on_c, 9, 42, 0
7, 62293, Note_on_c, 9, 38, 0
7, 62303, Control_c, 9, 7, 20
7, 62303, Control_c, 9, 7, 20
7, 62303, Control_c, 9, 7, 20
7, 62331, Control_c, 9, 7, 19
7, 62331, Control_c, 9, 7, 19
7, 62331, Control_c, 9, 7, 19
7, 62339, Note_on_c, 9, 42, 100
7, 62339, Note_on_c, 9, 35, 100
7, 62353, Note_on_c, 9, 35, 0
7, 62353, Note_on_c, 9, 42, 0
7, 62360, Control_c, 9, 7, 18
7, 62360, Control_c, 9, 7, 18
7, 62360, Control_c, 9, 7, 18
7, 62389, Control_c, 9, 7, 17
7, 62389, Control_c, 9, 7, 17
7, 62389, Control_c, 9, 7, 17
7, 62399, Note_on_c, 9, 42, 100
7, 62399, Note_on_c, 9, 35, 100
7, 62413, Note_on_c, 9, 35, 0
7, 62413, Note_on_c, 9, 42, 0
7, 62418, Control_c, 9, 7, 16
7, 62418, Control_c, 9, 7, 16
7, 62418, Control_c, 9, 7, 16
7, 62447, Control_c, 9, 7, 15
7, 62447, Control_c, 9, 7, 15
7, 62447, Control_c, 9, 7, 15
7, 62459, Note_on_c, 9, 42, 100
7, 62473, Note_on_c, 9, 42, 0
7, 62475, Control_c, 9, 7, 14
7, 62475, Control_c, 9, 7, 14
7, 62475, Control_c, 9, 7, 14
7, 62504, Control_c, 9, 7, 13
7, 62504, Control_c, 9, 7, 13
7, 62504, Control_c, 9, 7, 13
7, 62519, Note_on_c, 9, 38, 100
7, 62519, Note_on_c, 9, 42, 100
7, 62519, Note_on_c, 9, 39, 60
7, 62533, Note_on_c, 9, 39, 0
7, 62533, Note_on_c, 9, 42, 0
7, 62533, Note_on_c, 9, 38, 0
7, 62533, Control_c, 9, 7, 12
7, 62533, Control_c, 9, 7, 12
7, 62533, Control_c, 9, 7, 12
7, 62562, Control_c, 9, 7, 11
7, 62562, Control_c, 9, 7, 11
7, 62562, Control_c, 9, 7, 11
7, 62579, Note_on_c, 9, 42, 100
7, 62579, Note_on_c, 9, 35, 100
7, 62591, Control_c, 9, 7, 10
7, 62591, Control_c, 9, 7, 10
7, 62591, Control_c, 9, 7, 10
7, 62593, Note_on_c, 9, 35, 0
7, 62593, Note_on_c, 9, 42, 0
7, 62619, Control_c, 9, 7, 9
7, 62619, Control_c, 9, 7, 9
7, 62619, Control_c, 9, 7, 9
7, 62639, Note_on_c, 9, 42, 100
7, 62639, Note_on_c, 9, 35, 100
7, 62648, Control_c, 9, 7, 8
7, 62648, Control_c, 9, 7, 8
7, 62648, Control_c, 9, 7, 8
7, 62653, Note_on_c, 9, 35, 0
7, 62653, Note_on_c, 9, 42, 0
7, 62677, Control_c, 9, 7, 7
7, 62677, Control_c, 9, 7, 7
7, 62677, Control_c, 9, 7, 7
7, 62699, Note_on_c, 9, 42, 100
7, 62706, Control_c, 9, 7, 6
7, 62706, Control_c, 9, 7, 6
7, 62706, Control_c, 9, 7, 6
7, 62713, Note_on_c, 9, 42, 0
7, 62735, Control_c, 9, 7, 5
7, 62735, Control_c, 9, 7, 5
7, 62735, Control_c, 9, 7, 5
7, 62759, Note_on_c, 9, 38, 100
7, 62759, Note_on_c, 9, 42, 100
7, 62759, Note_on_c, 9, 39, 60
7, 62763, Control_c, 9, 7, 4
7, 62763, Control_c, 9, 7, 4
7, 62763, Control_c, 9, 7, 4
7, 62773, Note_on_c, 9, 39, 0
7, 62773, Note_on_c, 9, 42, 0
7, 62773, Note_on_c, 9, 38, 0
7, 62792, Control_c, 9, 7, 3
7, 62792, Control_c, 9, 7, 3
7, 62792, Control_c, 9, 7, 3
7, 62819, Note_on_c, 9, 42, 100
7, 62819, Note_on_c, 9, 35, 100
7, 62821, Control_c, 9, 7, 2
7, 62821, Control_c, 9, 7, 2
7, 62821, Control_c, 9, 7, 2
7, 62833, Note_on_c, 9, 35, 0
7, 62833, Note_on_c, 9, 42, 0
7, 62850, Control_c, 9, 7, 1
7, 62850, Control_c, 9, 7, 1
7, 62850, Control_c, 9, 7, 1
7, 62879, Control_c, 9, 7, 0
7, 62879, Control_c, 9, 7, 0
7, 62879, Control_c, 9, 7, 0
7, 62879, End_track
0, 0, End_of_file
