0, 0, Header, 1, 12, 192
1, 0, Start_track
1, 0, Time_signature, 4, 2, 24, 8
1, 0, Tempo, 1200000
1, 0, End_track
2, 0, Start_track
2, 0, MIDI_port, 0
2, 0, Title_t, "Piano               "
2, 0, Program_c, 0, 0
2, 144, Control_c, 0, 7, 127
2, 770, Note_on_c, 0, 70, 80
2, 772, Note_on_c, 0, 75, 78
2, 772, Note_on_c, 0, 79, 82
2, 1126, Note_off_c, 0, 79, 64
2, 1128, Note_off_c, 0, 70, 64
2, 1130, Note_off_c, 0, 75, 64
2, 1148, Note_on_c, 0, 80, 89
2, 1148, Note_on_c, 0, 75, 74
2, 1150, Note_on_c, 0, 70, 87
2, 1340, Note_on_c, 0, 79, 87
2, 1342, Note_off_c, 0, 80, 64
2, 1492, Note_off_c, 0, 75, 64
2, 1514, Note_off_c, 0, 70, 64
2, 1514, Note_off_c, 0, 79, 64
2, 1534, Note_on_c, 0, 70, 64
2, 1536, Note_on_c, 0, 77, 87
2, 1536, Note_on_c, 0, 74, 87
2, 1874, Note_off_c, 0, 74, 64
2, 1876, Note_off_c, 0, 77, 64
2, 1890, Note_off_c, 0, 70, 64
2, 1924, Note_on_c, 0, 72, 87
2, 1924, Note_on_c, 0, 70, 78
2, 1924, Note_on_c, 0, 75, 76
2, 2280, Note_off_c, 0, 75, 64
2, 2282, Note_off_c, 0, 72, 64
2, 2282, Note_off_c, 0, 70, 64
2, 2304, Note_on_c, 0, 72, 87
2, 2304, Note_on_c, 0, 75, 76
2, 2306, Note_on_c, 0, 68, 93
2, 2656, Note_off_c, 0, 68, 64
2, 2660, Note_off_c, 0, 72, 64
2, 2666, Note_off_c, 0, 75, 64
2, 2684, Note_on_c, 0, 74, 82
2, 2684, Note_on_c, 0, 67, 74
2, 2686, Note_on_c, 0, 70, 70
2, 3040, Note_off_c, 0, 67, 64
2, 3042, Note_off_c, 0, 74, 64
2, 3044, Note_off_c, 0, 70, 64
2, 3076, Note_on_c, 0, 72, 85
2, 3076, Note_on_c, 0, 68, 95
2, 3076, Note_on_c, 0, 65, 95
2, 3432, Note_off_c, 0, 65, 64
2, 3436, Note_off_c, 0, 68, 64
2, 3438, Note_off_c, 0, 72, 64
2, 3454, Note_on_c, 0, 68, 82
2, 3454, Note_on_c, 0, 72, 70
2, 3454, Note_on_c, 0, 65, 78
2, 3562, Note_off_c, 0, 65, 64
2, 3576, Note_off_c, 0, 68, 64
2, 3580, Note_on_c, 0, 65, 59
2, 3588, Note_off_c, 0, 72, 64
2, 3592, Note_on_c, 0, 68, 58
2, 3602, Note_on_c, 0, 72, 78
2, 3648, Note_on_c, 0, 75, 82
2, 3768, Note_off_c, 0, 72, 64
2, 3770, Note_off_c, 0, 65, 64
2, 3772, Note_off_c, 0, 68, 64
2, 3776, Note_off_c, 0, 75, 64
2, 3836, Note_on_c, 0, 79, 89
2, 3836, Note_on_c, 0, 70, 82
2, 3836, Note_on_c, 0, 75, 85
2, 4202, Note_off_c, 0, 70, 64
2, 4202, Note_off_c, 0, 79, 64
2, 4204, Note_off_c, 0, 75, 64
2, 4222, Note_on_c, 0, 80, 85
2, 4222, Note_on_c, 0, 75, 78
2, 4224, Note_on_c, 0, 70, 91
2, 4418, Note_on_c, 0, 79, 80
2, 4424, Note_off_c, 0, 80, 64
2, 4570, Note_off_c, 0, 75, 64
2, 4586, Note_off_c, 0, 79, 64
2, 4588, Note_off_c, 0, 70, 64
2, 4606, Note_on_c, 0, 77, 85
2, 4606, Note_on_c, 0, 70, 80
2, 4608, Note_on_c, 0, 74, 91
2, 4956, Note_off_c, 0, 74, 64
2, 4962, Note_off_c, 0, 77, 64
2, 4968, Note_off_c, 0, 70, 64
2, 4992, Note_on_c, 0, 72, 82
2, 4992, Note_on_c, 0, 75, 68
2, 4992, Note_on_c, 0, 70, 89
2, 5346, Note_off_c, 0, 70, 64
2, 5350, Note_off_c, 0, 72, 64
2, 5352, Note_off_c, 0, 75, 64
2, 5370, Note_on_c, 0, 75, 63
2, 5372, Note_on_c, 0, 72, 85
2, 5372, Note_on_c, 0, 68, 91
2, 5728, Note_off_c, 0, 68, 64
2, 5728, Note_off_c, 0, 72, 64
2, 5738, Note_off_c, 0, 75, 64
2, 5760, Note_on_c, 0, 74, 82
2, 5760, Note_on_c, 0, 67, 82
2, 5760, Note_on_c, 0, 70, 82
2, 6114, Note_off_c, 0, 67, 64
2, 6116, Note_off_c, 0, 74, 64
2, 6118, Note_off_c, 0, 70, 64
2, 6146, Note_on_c, 0, 72, 61
2, 6146, Note_on_c, 0, 68, 95
2, 6146, Note_on_c, 0, 65, 87
2, 6148, Note_on_c, 0, 71, 64
2, 6152, Note_off_c, 0, 71, 64
2, 6494, Note_off_c, 0, 65, 64
2, 6500, Note_off_c, 0, 68, 64
2, 6502, Note_off_c, 0, 72, 64
2, 6524, Note_on_c, 0, 72, 91
2, 6524, Note_on_c, 0, 68, 91
2, 6526, Note_on_c, 0, 65, 89
2, 6634, Note_off_c, 0, 65, 64
2, 6646, Note_off_c, 0, 68, 64
2, 6652, Note_on_c, 0, 65, 57
2, 6660, Note_off_c, 0, 72, 64
2, 6662, Note_on_c, 0, 68, 57
2, 6674, Note_on_c, 0, 72, 72
2, 6720, Note_on_c, 0, 75, 78
2, 6848, Note_off_c, 0, 65, 64
2, 6848, Note_off_c, 0, 68, 64
2, 6852, Note_off_c, 0, 72, 64
2, 6852, Note_off_c, 0, 75, 64
2, 6914, Note_on_c, 0, 70, 80
2, 6916, Note_on_c, 0, 75, 78
2, 6916, Note_on_c, 0, 79, 82
2, 7270, Note_off_c, 0, 79, 64
2, 7272, Note_off_c, 0, 70, 64
2, 7274, Note_off_c, 0, 75, 64
2, 7292, Note_on_c, 0, 80, 89
2, 7292, Note_on_c, 0, 75, 74
2, 7294, Note_on_c, 0, 70, 87
2, 7484, Note_on_c, 0, 79, 87
2, 7486, Note_off_c, 0, 80, 64
2, 7636, Note_off_c, 0, 75, 64
2, 7658, Note_off_c, 0, 70, 64
2, 7658, Note_off_c, 0, 79, 64
2, 7678, Note_on_c, 0, 70, 64
2, 7680, Note_on_c, 0, 77, 87
2, 7680, Note_on_c, 0, 74, 87
2, 8018, Note_off_c, 0, 74, 64
2, 8020, Note_off_c, 0, 77, 64
2, 8034, Note_off_c, 0, 70, 64
2, 8068, Note_on_c, 0, 72, 87
2, 8068, Note_on_c, 0, 70, 78
2, 8068, Note_on_c, 0, 75, 76
2, 8424, Note_off_c, 0, 75, 64
2, 8426, Note_off_c, 0, 72, 64
2, 8426, Note_off_c, 0, 70, 64
2, 8448, Note_on_c, 0, 72, 87
2, 8448, Note_on_c, 0, 75, 76
2, 8450, Note_on_c, 0, 68, 93
2, 8800, Note_off_c, 0, 68, 64
2, 8804, Note_off_c, 0, 72, 64
2, 8810, Note_off_c, 0, 75, 64
2, 8828, Note_on_c, 0, 74, 82
2, 8828, Note_on_c, 0, 67, 74
2, 8830, Note_on_c, 0, 70, 70
2, 9184, Note_off_c, 0, 67, 64
2, 9186, Note_off_c, 0, 74, 64
2, 9188, Note_off_c, 0, 70, 64
2, 9220, Note_on_c, 0, 72, 85
2, 9220, Note_on_c, 0, 68, 95
2, 9220, Note_on_c, 0, 65, 95
2, 9576, Note_off_c, 0, 65, 64
2, 9580, Note_off_c, 0, 68, 64
2, 9582, Note_off_c, 0, 72, 64
2, 9598, Note_on_c, 0, 68, 82
2, 9598, Note_on_c, 0, 72, 70
2, 9598, Note_on_c, 0, 65, 78
2, 9706, Note_off_c, 0, 65, 64
2, 9720, Note_off_c, 0, 68, 64
2, 9724, Note_on_c, 0, 65, 59
2, 9732, Note_off_c, 0, 72, 64
2, 9736, Note_on_c, 0, 68, 58
2, 9746, Note_on_c, 0, 72, 78
2, 9792, Note_on_c, 0, 75, 82
2, 9912, Note_off_c, 0, 72, 64
2, 9914, Note_off_c, 0, 65, 64
2, 9916, Note_off_c, 0, 68, 64
2, 9920, Note_off_c, 0, 75, 64
2, 9980, Note_on_c, 0, 79, 89
2, 9980, Note_on_c, 0, 70, 82
2, 9980, Note_on_c, 0, 75, 85
2, 10346, Note_off_c, 0, 70, 64
2, 10346, Note_off_c, 0, 79, 64
2, 10348, Note_off_c, 0, 75, 64
2, 10366, Note_on_c, 0, 80, 85
2, 10366, Note_on_c, 0, 75, 78
2, 10368, Note_on_c, 0, 70, 91
2, 10562, Note_on_c, 0, 79, 80
2, 10568, Note_off_c, 0, 80, 64
2, 10714, Note_off_c, 0, 75, 64
2, 10730, Note_off_c, 0, 79, 64
2, 10732, Note_off_c, 0, 70, 64
2, 10750, Note_on_c, 0, 77, 85
2, 10750, Note_on_c, 0, 70, 80
2, 10752, Note_on_c, 0, 74, 91
2, 11100, Note_off_c, 0, 74, 64
2, 11106, Note_off_c, 0, 77, 64
2, 11112, Note_off_c, 0, 70, 64
2, 11136, Note_on_c, 0, 72, 82
2, 11136, Note_on_c, 0, 75, 68
2, 11136, Note_on_c, 0, 70, 89
2, 11490, Note_off_c, 0, 70, 64
2, 11494, Note_off_c, 0, 72, 64
2, 11496, Note_off_c, 0, 75, 64
2, 11514, Note_on_c, 0, 75, 63
2, 11516, Note_on_c, 0, 72, 85
2, 11516, Note_on_c, 0, 68, 91
2, 11872, Note_off_c, 0, 68, 64
2, 11872, Note_off_c, 0, 72, 64
2, 11882, Note_off_c, 0, 75, 64
2, 11904, Note_on_c, 0, 74, 82
2, 11904, Note_on_c, 0, 67, 82
2, 11904, Note_on_c, 0, 70, 82
2, 12258, Note_off_c, 0, 67, 64
2, 12260, Note_off_c, 0, 74, 64
2, 12262, Note_off_c, 0, 70, 64
2, 12290, Note_on_c, 0, 72, 61
2, 12290, Note_on_c, 0, 68, 95
2, 12290, Note_on_c, 0, 65, 87
2, 12292, Note_on_c, 0, 71, 64
2, 12296, Note_off_c, 0, 71, 64
2, 12638, Note_off_c, 0, 65, 64
2, 12644, Note_off_c, 0, 68, 64
2, 12646, Note_off_c, 0, 72, 64
2, 12668, Note_on_c, 0, 72, 91
2, 12668, Note_on_c, 0, 68, 91
2, 12670, Note_on_c, 0, 65, 89
2, 12778, Note_off_c, 0, 65, 64
2, 12790, Note_off_c, 0, 68, 64
2, 12796, Note_on_c, 0, 65, 57
2, 12804, Note_off_c, 0, 72, 64
2, 12806, Note_on_c, 0, 68, 57
2, 12818, Note_on_c, 0, 72, 72
2, 12864, Note_on_c, 0, 75, 78
2, 12992, Note_off_c, 0, 65, 64
2, 12992, Note_off_c, 0, 68, 64
2, 12996, Note_off_c, 0, 72, 64
2, 12996, Note_off_c, 0, 75, 64
2, 13056, Note_on_c, 0, 72, 100
2, 13056, Note_on_c, 0, 75, 95
2, 13056, Note_on_c, 0, 79, 89
2, 13412, Note_off_c, 0, 72, 64
2, 13416, Note_off_c, 0, 79, 64
2, 13418, Note_off_c, 0, 75, 64
2, 13438, Note_on_c, 0, 79, 91
2, 13438, Note_on_c, 0, 75, 93
2, 13438, Note_on_c, 0, 71, 98
2, 13792, Note_off_c, 0, 79, 64
2, 13792, Note_off_c, 0, 71, 64
2, 13798, Note_off_c, 0, 75, 64
2, 13820, Note_on_c, 0, 75, 76
2, 13820, Note_on_c, 0, 79, 87
2, 13822, Note_on_c, 0, 70, 98
2, 14180, Note_off_c, 0, 75, 64
2, 14182, Note_off_c, 0, 70, 64
2, 14182, Note_off_c, 0, 79, 64
2, 14206, Note_on_c, 0, 69, 82
2, 14206, Note_on_c, 0, 72, 91
2, 14208, Note_on_c, 0, 77, 87
2, 14562, Note_off_c, 0, 77, 64
2, 14566, Note_off_c, 0, 69, 64
2, 14572, Note_off_c, 0, 72, 64
2, 14588, Note_on_c, 0, 72, 85
2, 14588, Note_on_c, 0, 75, 68
2, 14590, Note_on_c, 0, 68, 98
2, 14952, Note_off_c, 0, 68, 64
2, 14954, Note_off_c, 0, 72, 64
2, 14960, Note_off_c, 0, 75, 64
2, 14972, Note_on_c, 0, 74, 89
2, 14974, Note_on_c, 0, 70, 95
2, 14974, Note_on_c, 0, 67, 85
2, 15336, Note_off_c, 0, 74, 64
2, 15336, Note_off_c, 0, 67, 64
2, 15338, Note_off_c, 0, 70, 64
2, 15360, Note_on_c, 0, 72, 87
2, 15360, Note_on_c, 0, 68, 102
2, 15362, Note_on_c, 0, 65, 98
2, 15714, Note_off_c, 0, 65, 64
2, 15716, Note_off_c, 0, 68, 64
2, 15718, Note_off_c, 0, 72, 64
2, 15742, Note_on_c, 0, 72, 85
2, 15742, Note_on_c, 0, 68, 100
2, 15742, Note_on_c, 0, 65, 100
2, 15744, Note_on_c, 0, 75, 85
2, 15856, Note_off_c, 0, 65, 64
2, 15866, Note_off_c, 0, 68, 64
2, 15872, Note_on_c, 0, 65, 70
2, 15878, Note_off_c, 0, 72, 64
2, 15886, Note_off_c, 0, 75, 64
2, 15886, Note_on_c, 0, 68, 76
2, 15902, Note_on_c, 0, 72, 72
2, 15940, Note_on_c, 0, 75, 85
2, 16082, Note_off_c, 0, 65, 64
2, 16086, Note_off_c, 0, 68, 64
2, 16088, Note_off_c, 0, 72, 64
2, 16088, Note_off_c, 0, 75, 64
2, 16128, Note_on_c, 0, 79, 82
2, 16128, Note_on_c, 0, 70, 68
2, 16128, Note_on_c, 0, 75, 72
2, 16376, Note_off_c, 0, 79, 64
2, 16376, Note_off_c, 0, 70, 64
2, 16376, Note_off_c, 0, 75, 64
2, 16510, Note_on_c, 0, 80, 85
2, 16510, Note_on_c, 0, 75, 78
2, 16512, Note_on_c, 0, 70, 91
2, 16706, Note_on_c, 0, 79, 80
2, 16712, Note_off_c, 0, 80, 64
2, 16858, Note_off_c, 0, 75, 64
2, 16874, Note_off_c, 0, 79, 64
2, 16876, Note_off_c, 0, 70, 64
2, 16894, Note_on_c, 0, 77, 85
2, 16894, Note_on_c, 0, 70, 80
2, 16896, Note_on_c, 0, 74, 91
2, 17244, Note_off_c, 0, 74, 64
2, 17250, Note_off_c, 0, 77, 64
2, 17256, Note_off_c, 0, 70, 64
2, 17280, Note_on_c, 0, 72, 82
2, 17280, Note_on_c, 0, 75, 68
2, 17280, Note_on_c, 0, 70, 89
2, 17634, Note_off_c, 0, 70, 64
2, 17638, Note_off_c, 0, 72, 64
2, 17640, Note_off_c, 0, 75, 64
2, 17658, Note_on_c, 0, 75, 63
2, 17660, Note_on_c, 0, 72, 85
2, 17660, Note_on_c, 0, 68, 91
2, 18016, Note_off_c, 0, 68, 64
2, 18016, Note_off_c, 0, 72, 64
2, 18026, Note_off_c, 0, 75, 64
2, 18048, Note_on_c, 0, 74, 82
2, 18048, Note_on_c, 0, 67, 82
2, 18048, Note_on_c, 0, 70, 82
2, 18402, Note_off_c, 0, 67, 64
2, 18404, Note_off_c, 0, 74, 64
2, 18406, Note_off_c, 0, 70, 64
2, 18434, Note_on_c, 0, 72, 61
2, 18434, Note_on_c, 0, 68, 95
2, 18434, Note_on_c, 0, 65, 87
2, 18436, Note_on_c, 0, 71, 64
2, 18440, Note_off_c, 0, 71, 64
2, 18782, Note_off_c, 0, 65, 64
2, 18788, Note_off_c, 0, 68, 64
2, 18790, Note_off_c, 0, 72, 64
2, 18812, Note_on_c, 0, 72, 91
2, 18812, Note_on_c, 0, 68, 91
2, 18814, Note_on_c, 0, 65, 89
2, 18922, Note_off_c, 0, 65, 64
2, 18934, Note_off_c, 0, 68, 64
2, 18940, Note_on_c, 0, 65, 57
2, 18948, Note_off_c, 0, 72, 64
2, 18950, Note_on_c, 0, 68, 57
2, 18962, Note_on_c, 0, 72, 72
2, 19008, Note_on_c, 0, 75, 78
2, 19136, Note_off_c, 0, 65, 64
2, 19136, Note_off_c, 0, 68, 64
2, 19140, Note_off_c, 0, 72, 64
2, 19140, Note_off_c, 0, 75, 64
2, 19202, Note_on_c, 0, 70, 80
2, 19204, Note_on_c, 0, 75, 78
2, 19204, Note_on_c, 0, 79, 82
2, 19558, Note_off_c, 0, 79, 64
2, 19560, Note_off_c, 0, 70, 64
2, 19562, Note_off_c, 0, 75, 64
2, 19580, Note_on_c, 0, 80, 89
2, 19580, Note_on_c, 0, 75, 74
2, 19582, Note_on_c, 0, 70, 87
2, 19772, Note_on_c, 0, 79, 87
2, 19774, Note_off_c, 0, 80, 64
2, 19924, Note_off_c, 0, 75, 64
2, 19946, Note_off_c, 0, 70, 64
2, 19946, Note_off_c, 0, 79, 64
2, 19966, Note_on_c, 0, 70, 64
2, 19968, Note_on_c, 0, 77, 87
2, 19968, Note_on_c, 0, 74, 87
2, 20306, Note_off_c, 0, 74, 64
2, 20308, Note_off_c, 0, 77, 64
2, 20322, Note_off_c, 0, 70, 64
2, 20356, Note_on_c, 0, 72, 87
2, 20356, Note_on_c, 0, 70, 78
2, 20356, Note_on_c, 0, 75, 76
2, 20712, Note_off_c, 0, 75, 64
2, 20714, Note_off_c, 0, 72, 64
2, 20714, Note_off_c, 0, 70, 64
2, 20736, Note_on_c, 0, 72, 87
2, 20736, Note_on_c, 0, 75, 76
2, 20738, Note_on_c, 0, 68, 93
2, 21088, Note_off_c, 0, 68, 64
2, 21092, Note_off_c, 0, 72, 64
2, 21098, Note_off_c, 0, 75, 64
2, 21116, Note_on_c, 0, 74, 82
2, 21116, Note_on_c, 0, 67, 74
2, 21118, Note_on_c, 0, 70, 70
2, 21472, Note_off_c, 0, 67, 64
2, 21474, Note_off_c, 0, 74, 64
2, 21476, Note_off_c, 0, 70, 64
2, 21508, Note_on_c, 0, 72, 85
2, 21508, Note_on_c, 0, 68, 95
2, 21508, Note_on_c, 0, 65, 95
2, 21864, Note_off_c, 0, 65, 64
2, 21868, Note_off_c, 0, 68, 64
2, 21870, Note_off_c, 0, 72, 64
2, 21886, Note_on_c, 0, 68, 82
2, 21886, Note_on_c, 0, 72, 70
2, 21886, Note_on_c, 0, 65, 78
2, 21994, Note_off_c, 0, 65, 64
2, 22008, Note_off_c, 0, 68, 64
2, 22012, Note_on_c, 0, 65, 59
2, 22020, Note_off_c, 0, 72, 64
2, 22024, Note_on_c, 0, 68, 58
2, 22034, Note_on_c, 0, 72, 78
2, 22080, Note_on_c, 0, 75, 82
2, 22200, Note_off_c, 0, 72, 64
2, 22202, Note_off_c, 0, 65, 64
2, 22204, Note_off_c, 0, 68, 64
2, 22208, Note_off_c, 0, 75, 64
2, 22268, Note_on_c, 0, 79, 89
2, 22268, Note_on_c, 0, 70, 82
2, 22268, Note_on_c, 0, 75, 85
2, 22634, Note_off_c, 0, 70, 64
2, 22634, Note_off_c, 0, 79, 64
2, 22636, Note_off_c, 0, 75, 64
2, 22654, Note_on_c, 0, 80, 85
2, 22654, Note_on_c, 0, 75, 78
2, 22656, Note_on_c, 0, 70, 91
2, 22850, Note_on_c, 0, 79, 80
2, 22856, Note_off_c, 0, 80, 64
2, 23002, Note_off_c, 0, 75, 64
2, 23018, Note_off_c, 0, 79, 64
2, 23020, Note_off_c, 0, 70, 64
2, 23038, Note_on_c, 0, 77, 85
2, 23038, Note_on_c, 0, 70, 80
2, 23040, Note_on_c, 0, 74, 91
2, 23388, Note_off_c, 0, 74, 64
2, 23394, Note_off_c, 0, 77, 64
2, 23400, Note_off_c, 0, 70, 64
2, 23424, Note_on_c, 0, 72, 82
2, 23424, Note_on_c, 0, 75, 68
2, 23424, Note_on_c, 0, 70, 89
2, 23778, Note_off_c, 0, 70, 64
2, 23782, Note_off_c, 0, 72, 64
2, 23784, Note_off_c, 0, 75, 64
2, 23802, Note_on_c, 0, 75, 63
2, 23804, Note_on_c, 0, 72, 85
2, 23804, Note_on_c, 0, 68, 91
2, 24160, Note_off_c, 0, 68, 64
2, 24160, Note_off_c, 0, 72, 64
2, 24170, Note_off_c, 0, 75, 64
2, 24192, Note_on_c, 0, 74, 82
2, 24192, Note_on_c, 0, 67, 82
2, 24192, Note_on_c, 0, 70, 82
2, 24546, Note_off_c, 0, 67, 64
2, 24548, Note_off_c, 0, 74, 64
2, 24550, Note_off_c, 0, 70, 64
2, 24578, Note_on_c, 0, 72, 61
2, 24578, Note_on_c, 0, 68, 95
2, 24578, Note_on_c, 0, 65, 87
2, 24580, Note_on_c, 0, 71, 64
2, 24584, Note_off_c, 0, 71, 64
2, 24926, Note_off_c, 0, 65, 64
2, 24932, Note_off_c, 0, 68, 64
2, 24934, Note_off_c, 0, 72, 64
2, 24956, Note_on_c, 0, 72, 91
2, 24956, Note_on_c, 0, 68, 91
2, 24958, Note_on_c, 0, 65, 89
2, 25066, Note_off_c, 0, 65, 64
2, 25078, Note_off_c, 0, 68, 64
2, 25084, Note_on_c, 0, 65, 57
2, 25092, Note_off_c, 0, 72, 64
2, 25094, Note_on_c, 0, 68, 57
2, 25106, Note_on_c, 0, 72, 72
2, 25152, Note_on_c, 0, 75, 78
2, 25280, Note_off_c, 0, 65, 64
2, 25280, Note_off_c, 0, 68, 64
2, 25284, Note_off_c, 0, 72, 64
2, 25284, Note_off_c, 0, 75, 64
2, 25344, Note_on_c, 0, 72, 100
2, 25344, Note_on_c, 0, 75, 95
2, 25344, Note_on_c, 0, 79, 89
2, 25700, Note_off_c, 0, 72, 64
2, 25704, Note_off_c, 0, 79, 64
2, 25706, Note_off_c, 0, 75, 64
2, 25726, Note_on_c, 0, 79, 91
2, 25726, Note_on_c, 0, 75, 93
2, 25726, Note_on_c, 0, 71, 98
2, 26080, Note_off_c, 0, 79, 64
2, 26080, Note_off_c, 0, 71, 64
2, 26086, Note_off_c, 0, 75, 64
2, 26108, Note_on_c, 0, 75, 76
2, 26108, Note_on_c, 0, 79, 87
2, 26110, Note_on_c, 0, 70, 98
2, 26468, Note_off_c, 0, 75, 64
2, 26470, Note_off_c, 0, 70, 64
2, 26470, Note_off_c, 0, 79, 64
2, 26494, Note_on_c, 0, 69, 82
2, 26494, Note_on_c, 0, 72, 91
2, 26496, Note_on_c, 0, 77, 87
2, 26850, Note_off_c, 0, 77, 64
2, 26854, Note_off_c, 0, 69, 64
2, 26860, Note_off_c, 0, 72, 64
2, 26876, Note_on_c, 0, 72, 85
2, 26876, Note_on_c, 0, 75, 68
2, 26878, Note_on_c, 0, 68, 98
2, 27240, Note_off_c, 0, 68, 64
2, 27242, Note_off_c, 0, 72, 64
2, 27248, Note_off_c, 0, 75, 64
2, 27260, Note_on_c, 0, 74, 89
2, 27262, Note_on_c, 0, 70, 95
2, 27262, Note_on_c, 0, 67, 85
2, 27624, Note_off_c, 0, 74, 64
2, 27624, Note_off_c, 0, 67, 64
2, 27626, Note_off_c, 0, 70, 64
2, 27648, Note_on_c, 0, 72, 87
2, 27648, Note_on_c, 0, 68, 102
2, 27650, Note_on_c, 0, 65, 98
2, 28002, Note_off_c, 0, 65, 64
2, 28004, Note_off_c, 0, 68, 64
2, 28006, Note_off_c, 0, 72, 64
2, 28030, Note_on_c, 0, 72, 85
2, 28030, Note_on_c, 0, 68, 100
2, 28030, Note_on_c, 0, 65, 100
2, 28032, Note_on_c, 0, 75, 85
2, 28144, Note_off_c, 0, 65, 64
2, 28154, Note_off_c, 0, 68, 64
2, 28160, Note_on_c, 0, 65, 70
2, 28166, Note_off_c, 0, 72, 64
2, 28174, Note_off_c, 0, 75, 64
2, 28174, Note_on_c, 0, 68, 76
2, 28190, Note_on_c, 0, 72, 72
2, 28228, Note_on_c, 0, 75, 85
2, 28370, Note_off_c, 0, 65, 64
2, 28374, Note_off_c, 0, 68, 64
2, 28376, Note_off_c, 0, 72, 64
2, 28376, Note_off_c, 0, 75, 64
2, 28416, Note_on_c, 0, 79, 82
2, 28416, Note_on_c, 0, 70, 68
2, 28416, Note_on_c, 0, 75, 72
2, 28664, Note_off_c, 0, 79, 64
2, 28664, Note_off_c, 0, 70, 64
2, 28664, Note_off_c, 0, 75, 64
2, 28798, Note_on_c, 0, 80, 85
2, 28798, Note_on_c, 0, 75, 78
2, 28800, Note_on_c, 0, 70, 91
2, 28994, Note_on_c, 0, 79, 80
2, 29000, Note_off_c, 0, 80, 64
2, 29146, Note_off_c, 0, 75, 64
2, 29162, Note_off_c, 0, 79, 64
2, 29164, Note_off_c, 0, 70, 64
2, 29182, Note_on_c, 0, 77, 85
2, 29182, Note_on_c, 0, 70, 80
2, 29184, Note_on_c, 0, 74, 91
2, 29532, Note_off_c, 0, 74, 64
2, 29538, Note_off_c, 0, 77, 64
2, 29544, Note_off_c, 0, 70, 64
2, 29568, Note_on_c, 0, 72, 82
2, 29568, Note_on_c, 0, 75, 68
2, 29568, Note_on_c, 0, 70, 89
2, 29922, Note_off_c, 0, 70, 64
2, 29926, Note_off_c, 0, 72, 64
2, 29928, Note_off_c, 0, 75, 64
2, 29946, Note_on_c, 0, 75, 63
2, 29948, Note_on_c, 0, 72, 85
2, 29948, Note_on_c, 0, 68, 91
2, 30304, Note_off_c, 0, 68, 64
2, 30304, Note_off_c, 0, 72, 64
2, 30314, Note_off_c, 0, 75, 64
2, 30336, Note_on_c, 0, 74, 82
2, 30336, Note_on_c, 0, 67, 82
2, 30336, Note_on_c, 0, 70, 82
2, 30690, Note_off_c, 0, 67, 64
2, 30692, Note_off_c, 0, 74, 64
2, 30694, Note_off_c, 0, 70, 64
2, 30722, Note_on_c, 0, 72, 61
2, 30722, Note_on_c, 0, 68, 95
2, 30722, Note_on_c, 0, 65, 87
2, 30724, Note_on_c, 0, 71, 64
2, 30728, Note_off_c, 0, 71, 64
2, 31070, Note_off_c, 0, 65, 64
2, 31076, Note_off_c, 0, 68, 64
2, 31078, Note_off_c, 0, 72, 64
2, 31100, Note_on_c, 0, 72, 91
2, 31100, Note_on_c, 0, 68, 91
2, 31102, Note_on_c, 0, 65, 89
2, 31210, Note_off_c, 0, 65, 64
2, 31222, Note_off_c, 0, 68, 64
2, 31228, Note_on_c, 0, 65, 57
2, 31236, Note_off_c, 0, 72, 64
2, 31238, Note_on_c, 0, 68, 57
2, 31250, Note_on_c, 0, 72, 72
2, 31296, Note_on_c, 0, 75, 78
2, 31424, Note_off_c, 0, 65, 64
2, 31424, Note_off_c, 0, 68, 64
2, 31428, Note_off_c, 0, 72, 64
2, 31428, Note_off_c, 0, 75, 64
2, 31490, Note_on_c, 0, 70, 80
2, 31492, Note_on_c, 0, 75, 78
2, 31492, Note_on_c, 0, 79, 82
2, 31846, Note_off_c, 0, 79, 64
2, 31848, Note_off_c, 0, 70, 64
2, 31850, Note_off_c, 0, 75, 64
2, 31868, Note_on_c, 0, 80, 89
2, 31868, Note_on_c, 0, 75, 74
2, 31870, Note_on_c, 0, 70, 87
2, 32060, Note_on_c, 0, 79, 87
2, 32062, Note_off_c, 0, 80, 64
2, 32212, Note_off_c, 0, 75, 64
2, 32234, Note_off_c, 0, 70, 64
2, 32234, Note_off_c, 0, 79, 64
2, 32254, Note_on_c, 0, 70, 64
2, 32256, Note_on_c, 0, 77, 87
2, 32256, Note_on_c, 0, 74, 87
2, 32594, Note_off_c, 0, 74, 64
2, 32596, Note_off_c, 0, 77, 64
2, 32610, Note_off_c, 0, 70, 64
2, 32644, Note_on_c, 0, 72, 87
2, 32644, Note_on_c, 0, 70, 78
2, 32644, Note_on_c, 0, 75, 76
2, 33000, Note_off_c, 0, 75, 64
2, 33002, Note_off_c, 0, 72, 64
2, 33002, Note_off_c, 0, 70, 64
2, 33024, Note_on_c, 0, 72, 87
2, 33024, Note_on_c, 0, 75, 76
2, 33026, Note_on_c, 0, 68, 93
2, 33376, Note_off_c, 0, 68, 64
2, 33380, Note_off_c, 0, 72, 64
2, 33386, Note_off_c, 0, 75, 64
2, 33404, Note_on_c, 0, 74, 82
2, 33404, Note_on_c, 0, 67, 74
2, 33406, Note_on_c, 0, 70, 70
2, 33760, Note_off_c, 0, 67, 64
2, 33762, Note_off_c, 0, 74, 64
2, 33764, Note_off_c, 0, 70, 64
2, 33796, Note_on_c, 0, 72, 85
2, 33796, Note_on_c, 0, 68, 95
2, 33796, Note_on_c, 0, 65, 95
2, 34152, Note_off_c, 0, 65, 64
2, 34156, Note_off_c, 0, 68, 64
2, 34158, Note_off_c, 0, 72, 64
2, 34174, Note_on_c, 0, 68, 82
2, 34174, Note_on_c, 0, 72, 70
2, 34174, Note_on_c, 0, 65, 78
2, 34282, Note_off_c, 0, 65, 64
2, 34296, Note_off_c, 0, 68, 64
2, 34300, Note_on_c, 0, 65, 59
2, 34308, Note_off_c, 0, 72, 64
2, 34312, Note_on_c, 0, 68, 58
2, 34322, Note_on_c, 0, 72, 78
2, 34368, Note_on_c, 0, 75, 82
2, 34488, Note_off_c, 0, 72, 64
2, 34490, Note_off_c, 0, 65, 64
2, 34492, Note_off_c, 0, 68, 64
2, 34496, Note_off_c, 0, 75, 64
2, 34556, Note_on_c, 0, 79, 89
2, 34556, Note_on_c, 0, 70, 82
2, 34556, Note_on_c, 0, 75, 85
2, 34922, Note_off_c, 0, 70, 64
2, 34922, Note_off_c, 0, 79, 64
2, 34924, Note_off_c, 0, 75, 64
2, 34942, Note_on_c, 0, 80, 85
2, 34942, Note_on_c, 0, 75, 78
2, 34944, Note_on_c, 0, 70, 91
2, 35138, Note_on_c, 0, 79, 80
2, 35144, Note_off_c, 0, 80, 64
2, 35290, Note_off_c, 0, 75, 64
2, 35306, Note_off_c, 0, 79, 64
2, 35308, Note_off_c, 0, 70, 64
2, 35326, Note_on_c, 0, 77, 85
2, 35326, Note_on_c, 0, 70, 80
2, 35328, Note_on_c, 0, 74, 91
2, 35676, Note_off_c, 0, 74, 64
2, 35682, Note_off_c, 0, 77, 64
2, 35688, Note_off_c, 0, 70, 64
2, 35712, Note_on_c, 0, 72, 82
2, 35712, Note_on_c, 0, 75, 68
2, 35712, Note_on_c, 0, 70, 89
2, 36066, Note_off_c, 0, 70, 64
2, 36070, Note_off_c, 0, 72, 64
2, 36072, Note_off_c, 0, 75, 64
2, 36090, Note_on_c, 0, 75, 63
2, 36092, Note_on_c, 0, 72, 85
2, 36092, Note_on_c, 0, 68, 91
2, 36448, Note_off_c, 0, 68, 64
2, 36448, Note_off_c, 0, 72, 64
2, 36458, Note_off_c, 0, 75, 64
2, 36480, Note_on_c, 0, 74, 82
2, 36480, Note_on_c, 0, 67, 82
2, 36480, Note_on_c, 0, 70, 82
2, 36834, Note_off_c, 0, 67, 64
2, 36836, Note_off_c, 0, 74, 64
2, 36838, Note_off_c, 0, 70, 64
2, 36866, Note_on_c, 0, 72, 61
2, 36866, Note_on_c, 0, 68, 95
2, 36866, Note_on_c, 0, 65, 87
2, 36868, Note_on_c, 0, 71, 64
2, 36872, Note_off_c, 0, 71, 64
2, 37214, Note_off_c, 0, 65, 64
2, 37220, Note_off_c, 0, 68, 64
2, 37222, Note_off_c, 0, 72, 64
2, 37244, Note_on_c, 0, 72, 91
2, 37244, Note_on_c, 0, 68, 91
2, 37246, Note_on_c, 0, 65, 89
2, 37354, Note_off_c, 0, 65, 64
2, 37366, Note_off_c, 0, 68, 64
2, 37372, Note_on_c, 0, 65, 57
2, 37380, Note_off_c, 0, 72, 64
2, 37382, Note_on_c, 0, 68, 57
2, 37394, Note_on_c, 0, 72, 72
2, 37440, Note_on_c, 0, 75, 78
2, 37568, Note_off_c, 0, 65, 64
2, 37568, Note_off_c, 0, 68, 64
2, 37572, Note_off_c, 0, 72, 64
2, 37572, Note_off_c, 0, 75, 64
2, 37632, Note_on_c, 0, 72, 100
2, 37632, Note_on_c, 0, 75, 95
2, 37632, Note_on_c, 0, 79, 89
2, 37988, Note_off_c, 0, 72, 64
2, 37992, Note_off_c, 0, 79, 64
2, 37994, Note_off_c, 0, 75, 64
2, 38014, Note_on_c, 0, 79, 91
2, 38014, Note_on_c, 0, 75, 93
2, 38014, Note_on_c, 0, 71, 98
2, 38368, Note_off_c, 0, 79, 64
2, 38368, Note_off_c, 0, 71, 64
2, 38374, Note_off_c, 0, 75, 64
2, 38396, Note_on_c, 0, 75, 76
2, 38396, Note_on_c, 0, 79, 87
2, 38398, Note_on_c, 0, 70, 98
2, 38756, Note_off_c, 0, 75, 64
2, 38758, Note_off_c, 0, 70, 64
2, 38758, Note_off_c, 0, 79, 64
2, 38782, Note_on_c, 0, 69, 82
2, 38782, Note_on_c, 0, 72, 91
2, 38784, Note_on_c, 0, 77, 87
2, 39138, Note_off_c, 0, 77, 64
2, 39142, Note_off_c, 0, 69, 64
2, 39148, Note_off_c, 0, 72, 64
2, 39164, Note_on_c, 0, 72, 85
2, 39164, Note_on_c, 0, 75, 68
2, 39166, Note_on_c, 0, 68, 98
2, 39528, Note_off_c, 0, 68, 64
2, 39530, Note_off_c, 0, 72, 64
2, 39536, Note_off_c, 0, 75, 64
2, 39548, Note_on_c, 0, 74, 89
2, 39550, Note_on_c, 0, 70, 95
2, 39550, Note_on_c, 0, 67, 85
2, 39912, Note_off_c, 0, 74, 64
2, 39912, Note_off_c, 0, 67, 64
2, 39914, Note_off_c, 0, 70, 64
2, 39936, Note_on_c, 0, 72, 87
2, 39936, Note_on_c, 0, 68, 102
2, 39938, Note_on_c, 0, 65, 98
2, 40290, Note_off_c, 0, 65, 64
2, 40292, Note_off_c, 0, 68, 64
2, 40294, Note_off_c, 0, 72, 64
2, 40318, Note_on_c, 0, 72, 85
2, 40318, Note_on_c, 0, 68, 100
2, 40318, Note_on_c, 0, 65, 100
2, 40320, Note_on_c, 0, 75, 85
2, 40432, Note_off_c, 0, 65, 64
2, 40442, Note_off_c, 0, 68, 64
2, 40448, Note_on_c, 0, 65, 70
2, 40454, Note_off_c, 0, 72, 64
2, 40462, Note_off_c, 0, 75, 64
2, 40462, Note_on_c, 0, 68, 76
2, 40478, Note_on_c, 0, 72, 72
2, 40516, Note_on_c, 0, 75, 85
2, 40658, Note_off_c, 0, 65, 64
2, 40662, Note_off_c, 0, 68, 64
2, 40664, Note_off_c, 0, 72, 64
2, 40664, Note_off_c, 0, 75, 64
2, 40704, Note_on_c, 0, 79, 82
2, 40704, Note_on_c, 0, 70, 68
2, 40704, Note_on_c, 0, 75, 72
2, 40952, Note_off_c, 0, 79, 64
2, 40952, Note_off_c, 0, 70, 64
2, 40952, Note_off_c, 0, 75, 64
2, 41086, Note_on_c, 0, 80, 85
2, 41086, Note_on_c, 0, 75, 78
2, 41088, Note_on_c, 0, 70, 91
2, 41282, Note_on_c, 0, 79, 80
2, 41288, Note_off_c, 0, 80, 64
2, 41434, Note_off_c, 0, 75, 64
2, 41450, Note_off_c, 0, 79, 64
2, 41452, Note_off_c, 0, 70, 64
2, 41470, Note_on_c, 0, 77, 85
2, 41470, Note_on_c, 0, 70, 80
2, 41472, Note_on_c, 0, 74, 91
2, 41820, Note_off_c, 0, 74, 64
2, 41826, Note_off_c, 0, 77, 64
2, 41832, Note_off_c, 0, 70, 64
2, 41856, Note_on_c, 0, 72, 82
2, 41856, Note_on_c, 0, 75, 68
2, 41856, Note_on_c, 0, 70, 89
2, 42210, Note_off_c, 0, 70, 64
2, 42214, Note_off_c, 0, 72, 64
2, 42216, Note_off_c, 0, 75, 64
2, 42234, Note_on_c, 0, 75, 63
2, 42236, Note_on_c, 0, 72, 85
2, 42236, Note_on_c, 0, 68, 91
2, 42592, Note_off_c, 0, 68, 64
2, 42592, Note_off_c, 0, 72, 64
2, 42602, Note_off_c, 0, 75, 64
2, 42624, Note_on_c, 0, 74, 82
2, 42624, Note_on_c, 0, 67, 82
2, 42624, Note_on_c, 0, 70, 82
2, 42978, Note_off_c, 0, 67, 64
2, 42980, Note_off_c, 0, 74, 64
2, 42982, Note_off_c, 0, 70, 64
2, 43010, Note_on_c, 0, 72, 61
2, 43010, Note_on_c, 0, 68, 95
2, 43010, Note_on_c, 0, 65, 87
2, 43012, Note_on_c, 0, 71, 64
2, 43016, Note_off_c, 0, 71, 64
2, 43358, Note_off_c, 0, 65, 64
2, 43364, Note_off_c, 0, 68, 64
2, 43366, Note_off_c, 0, 72, 64
2, 43388, Note_on_c, 0, 72, 91
2, 43388, Note_on_c, 0, 68, 91
2, 43390, Note_on_c, 0, 65, 89
2, 43498, Note_off_c, 0, 65, 64
2, 43510, Note_off_c, 0, 68, 64
2, 43516, Note_on_c, 0, 65, 57
2, 43524, Note_off_c, 0, 72, 64
2, 43526, Note_on_c, 0, 68, 57
2, 43538, Note_on_c, 0, 72, 72
2, 43584, Note_on_c, 0, 75, 78
2, 43712, Note_off_c, 0, 65, 64
2, 43712, Note_off_c, 0, 68, 64
2, 43716, Note_off_c, 0, 72, 64
2, 43716, Note_off_c, 0, 75, 64
2, 43776, Note_on_c, 0, 79, 82
2, 43776, Note_on_c, 0, 70, 68
2, 43776, Note_on_c, 0, 75, 72
2, 44024, Note_off_c, 0, 79, 64
2, 44024, Note_off_c, 0, 70, 64
2, 44024, Note_off_c, 0, 75, 64
2, 44158, Note_on_c, 0, 80, 85
2, 44158, Note_on_c, 0, 75, 78
2, 44160, Note_on_c, 0, 70, 91
2, 44354, Note_on_c, 0, 79, 80
2, 44360, Note_off_c, 0, 80, 64
2, 44506, Note_off_c, 0, 75, 64
2, 44522, Note_off_c, 0, 79, 64
2, 44524, Note_off_c, 0, 70, 64
2, 44542, Note_on_c, 0, 77, 85
2, 44542, Note_on_c, 0, 70, 80
2, 44544, Note_on_c, 0, 74, 91
2, 44892, Note_off_c, 0, 74, 64
2, 44898, Note_off_c, 0, 77, 64
2, 44904, Note_off_c, 0, 70, 64
2, 44928, Note_on_c, 0, 72, 82
2, 44928, Note_on_c, 0, 75, 68
2, 44928, Note_on_c, 0, 70, 89
2, 45282, Note_off_c, 0, 70, 64
2, 45286, Note_off_c, 0, 72, 64
2, 45288, Note_off_c, 0, 75, 64
2, 45306, Note_on_c, 0, 75, 63
2, 45308, Note_on_c, 0, 72, 85
2, 45308, Note_on_c, 0, 68, 91
2, 45664, Note_off_c, 0, 68, 64
2, 45664, Note_off_c, 0, 72, 64
2, 45674, Note_off_c, 0, 75, 64
2, 45696, Note_on_c, 0, 74, 82
2, 45696, Note_on_c, 0, 67, 82
2, 45696, Note_on_c, 0, 70, 82
2, 46050, Note_off_c, 0, 67, 64
2, 46052, Note_off_c, 0, 74, 64
2, 46054, Note_off_c, 0, 70, 64
2, 46082, Note_on_c, 0, 72, 61
2, 46082, Note_on_c, 0, 68, 95
2, 46082, Note_on_c, 0, 65, 87
2, 46084, Note_on_c, 0, 71, 64
2, 46088, Note_off_c, 0, 71, 64
2, 46430, Note_off_c, 0, 65, 64
2, 46436, Note_off_c, 0, 68, 64
2, 46438, Note_off_c, 0, 72, 64
2, 46460, Note_on_c, 0, 72, 91
2, 46460, Note_on_c, 0, 68, 91
2, 46462, Note_on_c, 0, 65, 89
2, 46570, Note_off_c, 0, 65, 64
2, 46582, Note_off_c, 0, 68, 64
2, 46588, Note_on_c, 0, 65, 57
2, 46596, Note_off_c, 0, 72, 64
2, 46598, Note_on_c, 0, 68, 57
2, 46610, Note_on_c, 0, 72, 72
2, 46656, Note_on_c, 0, 75, 78
2, 46784, Note_off_c, 0, 65, 64
2, 46784, Note_off_c, 0, 68, 64
2, 46788, Note_off_c, 0, 72, 64
2, 46788, Note_off_c, 0, 75, 64
2, 46848, Note_on_c, 0, 79, 82
2, 46848, Note_on_c, 0, 70, 68
2, 46848, Note_on_c, 0, 75, 72
2, 47096, Note_off_c, 0, 79, 64
2, 47096, Note_off_c, 0, 70, 64
2, 47096, Note_off_c, 0, 75, 64
2, 47230, Note_on_c, 0, 80, 85
2, 47230, Note_on_c, 0, 75, 78
2, 47232, Note_on_c, 0, 70, 91
2, 47426, Note_on_c, 0, 79, 80
2, 47432, Note_off_c, 0, 80, 64
2, 47578, Note_off_c, 0, 75, 64
2, 47594, Note_off_c, 0, 79, 64
2, 47596, Note_off_c, 0, 70, 64
2, 47614, Note_on_c, 0, 77, 85
2, 47614, Note_on_c, 0, 70, 80
2, 47616, Note_on_c, 0, 74, 91
2, 47964, Note_off_c, 0, 74, 64
2, 47970, Note_off_c, 0, 77, 64
2, 47976, Note_off_c, 0, 70, 64
2, 48000, Note_on_c, 0, 72, 82
2, 48000, Note_on_c, 0, 75, 68
2, 48000, Note_on_c, 0, 70, 89
2, 48354, Note_off_c, 0, 70, 64
2, 48358, Note_off_c, 0, 72, 64
2, 48360, Note_off_c, 0, 75, 64
2, 48378, Note_on_c, 0, 75, 63
2, 48380, Note_on_c, 0, 72, 85
2, 48380, Note_on_c, 0, 68, 91
2, 48736, Note_off_c, 0, 68, 64
2, 48736, Note_off_c, 0, 72, 64
2, 48746, Note_off_c, 0, 75, 64
2, 48768, Note_on_c, 0, 74, 82
2, 48768, Note_on_c, 0, 67, 82
2, 48768, Note_on_c, 0, 70, 82
2, 49122, Note_off_c, 0, 67, 64
2, 49124, Note_off_c, 0, 74, 64
2, 49126, Note_off_c, 0, 70, 64
2, 49154, Note_on_c, 0, 72, 61
2, 49154, Note_on_c, 0, 68, 95
2, 49154, Note_on_c, 0, 65, 87
2, 49156, Note_on_c, 0, 71, 64
2, 49160, Note_off_c, 0, 71, 64
2, 49502, Note_off_c, 0, 65, 64
2, 49508, Note_off_c, 0, 68, 64
2, 49510, Note_off_c, 0, 72, 64
2, 49532, Note_on_c, 0, 72, 91
2, 49532, Note_on_c, 0, 68, 91
2, 49534, Note_on_c, 0, 65, 89
2, 49642, Note_off_c, 0, 65, 64
2, 49654, Note_off_c, 0, 68, 64
2, 49660, Note_on_c, 0, 65, 57
2, 49668, Note_off_c, 0, 72, 64
2, 49670, Note_on_c, 0, 68, 57
2, 49682, Note_on_c, 0, 72, 72
2, 49728, Note_on_c, 0, 75, 78
2, 49856, Note_off_c, 0, 65, 64
2, 49856, Note_off_c, 0, 68, 64
2, 49860, Note_off_c, 0, 72, 64
2, 49860, Note_off_c, 0, 75, 64
2, 49920, Note_on_c, 0, 79, 82
2, 49920, Note_on_c, 0, 70, 68
2, 49920, Note_on_c, 0, 75, 72
2, 50168, Note_off_c, 0, 79, 64
2, 50168, Note_off_c, 0, 70, 64
2, 50168, Note_off_c, 0, 75, 64
2, 50302, Note_on_c, 0, 80, 85
2, 50302, Note_on_c, 0, 75, 78
2, 50304, Note_on_c, 0, 70, 91
2, 50498, Note_on_c, 0, 79, 80
2, 50504, Note_off_c, 0, 80, 64
2, 50650, Note_off_c, 0, 75, 64
2, 50666, Note_off_c, 0, 79, 64
2, 50668, Note_off_c, 0, 70, 64
2, 50686, Note_on_c, 0, 77, 85
2, 50686, Note_on_c, 0, 70, 80
2, 50688, Note_on_c, 0, 74, 91
2, 51036, Note_off_c, 0, 74, 64
2, 51042, Note_off_c, 0, 77, 64
2, 51048, Note_off_c, 0, 70, 64
2, 51072, Note_on_c, 0, 72, 82
2, 51072, Note_on_c, 0, 75, 68
2, 51072, Note_on_c, 0, 70, 89
2, 51426, Note_off_c, 0, 70, 64
2, 51430, Note_off_c, 0, 72, 64
2, 51432, Note_off_c, 0, 75, 64
2, 51450, Note_on_c, 0, 75, 63
2, 51452, Note_on_c, 0, 72, 85
2, 51452, Note_on_c, 0, 68, 91
2, 51808, Note_off_c, 0, 68, 64
2, 51808, Note_off_c, 0, 72, 64
2, 51818, Note_off_c, 0, 75, 64
2, 51840, Note_on_c, 0, 74, 82
2, 51840, Note_on_c, 0, 67, 82
2, 51840, Note_on_c, 0, 70, 82
2, 52194, Note_off_c, 0, 67, 64
2, 52196, Note_off_c, 0, 74, 64
2, 52198, Note_off_c, 0, 70, 64
2, 52226, Note_on_c, 0, 72, 61
2, 52226, Note_on_c, 0, 68, 95
2, 52226, Note_on_c, 0, 65, 87
2, 52228, Note_on_c, 0, 71, 64
2, 52232, Note_off_c, 0, 71, 64
2, 52574, Note_off_c, 0, 65, 64
2, 52580, Note_off_c, 0, 68, 64
2, 52582, Note_off_c, 0, 72, 64
2, 52604, Note_on_c, 0, 72, 91
2, 52604, Note_on_c, 0, 68, 91
2, 52606, Note_on_c, 0, 65, 89
2, 52714, Note_off_c, 0, 65, 64
2, 52726, Note_off_c, 0, 68, 64
2, 52732, Note_on_c, 0, 65, 57
2, 52740, Note_off_c, 0, 72, 64
2, 52742, Note_on_c, 0, 68, 57
2, 52754, Note_on_c, 0, 72, 72
2, 52800, Note_on_c, 0, 75, 78
2, 52928, Note_off_c, 0, 65, 64
2, 52928, Note_off_c, 0, 68, 64
2, 52932, Note_off_c, 0, 72, 64
2, 52932, Note_off_c, 0, 75, 64
2, 52992, Note_on_c, 0, 70, 70
2, 52992, Note_on_c, 0, 67, 82
2, 52998, Note_on_c, 0, 75, 98
2, 53612, Note_off_c, 0, 75, 64
2, 53614, Note_off_c, 0, 70, 64
2, 53614, Note_off_c, 0, 67, 64
2, 53664, Control_c, 0, 7, 127
2, 53664, End_track
3, 0, Start_track
3, 0, MIDI_port, 0
3, 0, Title_t, "Guitar              "
3, 0, Program_c, 1, 26
3, 144, Control_c, 1, 7, 127
3, 6986, Note_on_c, 1, 46, 31
3, 7036, Note_off_c, 1, 46, 64
3, 7040, Note_on_c, 1, 48, 53
3, 7102, Note_off_c, 1, 48, 64
3, 7102, Note_on_c, 1, 51, 48
3, 7200, Note_off_c, 1, 51, 64
3, 7372, Note_on_c, 1, 46, 33
3, 7422, Note_off_c, 1, 46, 64
3, 7428, Note_on_c, 1, 48, 47
3, 7488, Note_off_c, 1, 48, 64
3, 7492, Note_on_c, 1, 51, 50
3, 7600, Note_off_c, 1, 51, 64
3, 7750, Note_on_c, 1, 46, 43
3, 7806, Note_off_c, 1, 46, 64
3, 7810, Note_on_c, 1, 48, 47
3, 7872, Note_off_c, 1, 48, 64
3, 7876, Note_on_c, 1, 51, 38
3, 7968, Note_off_c, 1, 51, 64
3, 8132, Note_on_c, 1, 46, 39
3, 8188, Note_off_c, 1, 46, 64
3, 8194, Note_on_c, 1, 48, 49
3, 8254, Note_off_c, 1, 48, 64
3, 8254, Note_on_c, 1, 51, 46
3, 8350, Note_off_c, 1, 51, 64
3, 8512, Note_on_c, 1, 46, 51
3, 8564, Note_off_c, 1, 46, 64
3, 8576, Note_on_c, 1, 48, 51
3, 8634, Note_off_c, 1, 48, 64
3, 8642, Note_on_c, 1, 55, 57
3, 8708, Note_off_c, 1, 55, 64
3, 8710, Note_on_c, 1, 53, 47
3, 8768, Note_off_c, 1, 53, 64
3, 8774, Note_on_c, 1, 51, 23
3, 8806, Note_off_c, 1, 51, 64
3, 8898, Note_on_c, 1, 46, 38
3, 8950, Note_off_c, 1, 46, 64
3, 8958, Note_on_c, 1, 48, 47
3, 9014, Note_off_c, 1, 48, 64
3, 9024, Note_on_c, 1, 55, 47
3, 9084, Note_off_c, 1, 55, 64
3, 9092, Note_on_c, 1, 53, 37
3, 9148, Note_off_c, 1, 53, 64
3, 9148, Note_on_c, 1, 51, 45
3, 9194, Note_off_c, 1, 51, 64
3, 9280, Note_on_c, 1, 46, 33
3, 9338, Note_off_c, 1, 46, 64
3, 9340, Note_on_c, 1, 48, 48
3, 9402, Note_off_c, 1, 48, 64
3, 9410, Note_on_c, 1, 51, 32
3, 9508, Note_off_c, 1, 51, 64
3, 9660, Note_on_c, 1, 46, 47
3, 9718, Note_off_c, 1, 46, 64
3, 9726, Note_on_c, 1, 48, 58
3, 9788, Note_off_c, 1, 48, 64
3, 9788, Note_on_c, 1, 53, 60
3, 9940, Note_off_c, 1, 53, 64
3, 10044, Note_on_c, 1, 46, 56
3, 10086, Note_off_c, 1, 46, 64
3, 10110, Note_on_c, 1, 48, 57
3, 10172, Note_off_c, 1, 48, 64
3, 10174, Note_on_c, 1, 51, 49
3, 10248, Note_off_c, 1, 51, 64
3, 10430, Note_on_c, 1, 46, 47
3, 10482, Note_off_c, 1, 46, 64
3, 10494, Note_on_c, 1, 48, 40
3, 10550, Note_off_c, 1, 48, 64
3, 10560, Note_on_c, 1, 51, 38
3, 10654, Note_off_c, 1, 51, 64
3, 10820, Note_on_c, 1, 46, 46
3, 10876, Note_off_c, 1, 46, 64
3, 10882, Note_on_c, 1, 48, 52
3, 10938, Note_off_c, 1, 48, 64
3, 10946, Note_on_c, 1, 51, 48
3, 11020, Note_off_c, 1, 51, 64
3, 11204, Note_on_c, 1, 46, 48
3, 11256, Note_off_c, 1, 46, 64
3, 11260, Note_on_c, 1, 48, 51
3, 11320, Note_off_c, 1, 48, 64
3, 11326, Note_on_c, 1, 51, 45
3, 11434, Note_off_c, 1, 51, 64
3, 11582, Note_on_c, 1, 46, 58
3, 11638, Note_off_c, 1, 46, 64
3, 11644, Note_on_c, 1, 48, 54
3, 11698, Note_off_c, 1, 48, 64
3, 11710, Note_on_c, 1, 55, 53
3, 11770, Note_off_c, 1, 55, 64
3, 11774, Note_on_c, 1, 53, 50
3, 11834, Note_on_c, 1, 51, 47
3, 11836, Note_off_c, 1, 53, 64
3, 11864, Note_off_c, 1, 51, 64
3, 11968, Note_on_c, 1, 46, 52
3, 12002, Note_off_c, 1, 46, 64
3, 12028, Note_on_c, 1, 48, 58
3, 12080, Note_off_c, 1, 48, 64
3, 12092, Note_on_c, 1, 55, 60
3, 12152, Note_off_c, 1, 55, 64
3, 12156, Note_on_c, 1, 53, 52
3, 12214, Note_off_c, 1, 53, 64
3, 12216, Note_on_c, 1, 51, 37
3, 12264, Note_off_c, 1, 51, 64
3, 12348, Note_on_c, 1, 46, 47
3, 12402, Note_off_c, 1, 46, 64
3, 12410, Note_on_c, 1, 48, 53
3, 12468, Note_off_c, 1, 48, 64
3, 12478, Note_on_c, 1, 51, 48
3, 12540, Note_off_c, 1, 51, 64
3, 12734, Note_on_c, 1, 46, 56
3, 12790, Note_off_c, 1, 46, 64
3, 12796, Note_on_c, 1, 48, 55
3, 12856, Note_off_c, 1, 48, 64
3, 12858, Note_on_c, 1, 53, 70
3, 12986, Note_off_c, 1, 53, 64
3, 16196, Note_on_c, 1, 46, 56
3, 16258, Note_off_c, 1, 46, 64
3, 16258, Note_on_c, 1, 48, 55
3, 16320, Note_off_c, 1, 48, 64
3, 16322, Note_on_c, 1, 51, 49
3, 16408, Note_off_c, 1, 51, 64
3, 16588, Note_on_c, 1, 46, 40
3, 16642, Note_off_c, 1, 46, 64
3, 16642, Note_on_c, 1, 48, 53
3, 16700, Note_off_c, 1, 48, 64
3, 16704, Note_on_c, 1, 51, 51
3, 16796, Note_off_c, 1, 51, 64
3, 16962, Note_on_c, 1, 46, 57
3, 17004, Note_off_c, 1, 46, 64
3, 17024, Note_on_c, 1, 48, 57
3, 17082, Note_off_c, 1, 48, 64
3, 17088, Note_on_c, 1, 51, 46
3, 17162, Note_off_c, 1, 51, 64
3, 17344, Note_on_c, 1, 46, 50
3, 17408, Note_off_c, 1, 46, 64
3, 17410, Note_on_c, 1, 48, 54
3, 17468, Note_off_c, 1, 48, 64
3, 17470, Note_on_c, 1, 51, 48
3, 17562, Note_off_c, 1, 51, 64
3, 17724, Note_on_c, 1, 46, 47
3, 17778, Note_off_c, 1, 46, 64
3, 17784, Note_on_c, 1, 48, 38
3, 17858, Note_on_c, 1, 55, 68
3, 17860, Note_off_c, 1, 48, 64
3, 17916, Note_on_c, 1, 53, 57
3, 17918, Note_off_c, 1, 55, 64
3, 17982, Note_off_c, 1, 53, 64
3, 17984, Note_on_c, 1, 51, 49
3, 18030, Note_off_c, 1, 51, 64
3, 18108, Note_on_c, 1, 46, 53
3, 18164, Note_off_c, 1, 46, 64
3, 18172, Note_on_c, 1, 48, 23
3, 18234, Note_off_c, 1, 48, 64
3, 18236, Note_on_c, 1, 55, 52
3, 18302, Note_on_c, 1, 53, 59
3, 18304, Note_off_c, 1, 55, 64
3, 18364, Note_off_c, 1, 53, 64
3, 18364, Note_on_c, 1, 51, 48
3, 18412, Note_off_c, 1, 51, 64
3, 18494, Note_on_c, 1, 46, 50
3, 18552, Note_off_c, 1, 46, 64
3, 18554, Note_on_c, 1, 48, 47
3, 18614, Note_off_c, 1, 48, 64
3, 18620, Note_on_c, 1, 51, 42
3, 18702, Note_off_c, 1, 51, 64
3, 18874, Note_on_c, 1, 46, 57
3, 18932, Note_off_c, 1, 46, 64
3, 18938, Note_on_c, 1, 48, 55
3, 19000, Note_off_c, 1, 48, 64
3, 19006, Note_on_c, 1, 53, 39
3, 19170, Note_off_c, 1, 53, 64
3, 19274, Note_on_c, 1, 46, 31
3, 19324, Note_off_c, 1, 46, 64
3, 19328, Note_on_c, 1, 48, 53
3, 19390, Note_off_c, 1, 48, 64
3, 19390, Note_on_c, 1, 51, 48
3, 19488, Note_off_c, 1, 51, 64
3, 19660, Note_on_c, 1, 46, 33
3, 19710, Note_off_c, 1, 46, 64
3, 19716, Note_on_c, 1, 48, 47
3, 19776, Note_off_c, 1, 48, 64
3, 19780, Note_on_c, 1, 51, 50
3, 19888, Note_off_c, 1, 51, 64
3, 20038, Note_on_c, 1, 46, 43
3, 20094, Note_off_c, 1, 46, 64
3, 20098, Note_on_c, 1, 48, 47
3, 20160, Note_off_c, 1, 48, 64
3, 20164, Note_on_c, 1, 51, 38
3, 20256, Note_off_c, 1, 51, 64
3, 20420, Note_on_c, 1, 46, 39
3, 20476, Note_off_c, 1, 46, 64
3, 20482, Note_on_c, 1, 48, 49
3, 20542, Note_off_c, 1, 48, 64
3, 20542, Note_on_c, 1, 51, 46
3, 20638, Note_off_c, 1, 51, 64
3, 20800, Note_on_c, 1, 46, 51
3, 20852, Note_off_c, 1, 46, 64
3, 20864, Note_on_c, 1, 48, 51
3, 20922, Note_off_c, 1, 48, 64
3, 20930, Note_on_c, 1, 55, 57
3, 20996, Note_off_c, 1, 55, 64
3, 20998, Note_on_c, 1, 53, 47
3, 21056, Note_off_c, 1, 53, 64
3, 21062, Note_on_c, 1, 51, 23
3, 21094, Note_off_c, 1, 51, 64
3, 21186, Note_on_c, 1, 46, 38
3, 21238, Note_off_c, 1, 46, 64
3, 21246, Note_on_c, 1, 48, 47
3, 21302, Note_off_c, 1, 48, 64
3, 21312, Note_on_c, 1, 55, 47
3, 21372, Note_off_c, 1, 55, 64
3, 21380, Note_on_c, 1, 53, 37
3, 21436, Note_off_c, 1, 53, 64
3, 21436, Note_on_c, 1, 51, 45
3, 21482, Note_off_c, 1, 51, 64
3, 21568, Note_on_c, 1, 46, 33
3, 21626, Note_off_c, 1, 46, 64
3, 21628, Note_on_c, 1, 48, 48
3, 21690, Note_off_c, 1, 48, 64
3, 21698, Note_on_c, 1, 51, 32
3, 21796, Note_off_c, 1, 51, 64
3, 21948, Note_on_c, 1, 46, 47
3, 22006, Note_off_c, 1, 46, 64
3, 22014, Note_on_c, 1, 48, 58
3, 22076, Note_off_c, 1, 48, 64
3, 22076, Note_on_c, 1, 53, 60
3, 22228, Note_off_c, 1, 53, 64
3, 22332, Note_on_c, 1, 46, 56
3, 22374, Note_off_c, 1, 46, 64
3, 22398, Note_on_c, 1, 48, 57
3, 22460, Note_off_c, 1, 48, 64
3, 22462, Note_on_c, 1, 51, 49
3, 22536, Note_off_c, 1, 51, 64
3, 22718, Note_on_c, 1, 46, 47
3, 22770, Note_off_c, 1, 46, 64
3, 22782, Note_on_c, 1, 48, 40
3, 22838, Note_off_c, 1, 48, 64
3, 22848, Note_on_c, 1, 51, 38
3, 22942, Note_off_c, 1, 51, 64
3, 23108, Note_on_c, 1, 46, 46
3, 23164, Note_off_c, 1, 46, 64
3, 23170, Note_on_c, 1, 48, 52
3, 23226, Note_off_c, 1, 48, 64
3, 23234, Note_on_c, 1, 51, 48
3, 23308, Note_off_c, 1, 51, 64
3, 23492, Note_on_c, 1, 46, 48
3, 23544, Note_off_c, 1, 46, 64
3, 23548, Note_on_c, 1, 48, 51
3, 23608, Note_off_c, 1, 48, 64
3, 23614, Note_on_c, 1, 51, 45
3, 23722, Note_off_c, 1, 51, 64
3, 23870, Note_on_c, 1, 46, 58
3, 23926, Note_off_c, 1, 46, 64
3, 23932, Note_on_c, 1, 48, 54
3, 23986, Note_off_c, 1, 48, 64
3, 23998, Note_on_c, 1, 55, 53
3, 24058, Note_off_c, 1, 55, 64
3, 24062, Note_on_c, 1, 53, 50
3, 24122, Note_on_c, 1, 51, 47
3, 24124, Note_off_c, 1, 53, 64
3, 24152, Note_off_c, 1, 51, 64
3, 24256, Note_on_c, 1, 46, 52
3, 24290, Note_off_c, 1, 46, 64
3, 24316, Note_on_c, 1, 48, 58
3, 24368, Note_off_c, 1, 48, 64
3, 24380, Note_on_c, 1, 55, 60
3, 24440, Note_off_c, 1, 55, 64
3, 24444, Note_on_c, 1, 53, 52
3, 24502, Note_off_c, 1, 53, 64
3, 24504, Note_on_c, 1, 51, 37
3, 24552, Note_off_c, 1, 51, 64
3, 24636, Note_on_c, 1, 46, 47
3, 24690, Note_off_c, 1, 46, 64
3, 24698, Note_on_c, 1, 48, 53
3, 24756, Note_off_c, 1, 48, 64
3, 24766, Note_on_c, 1, 51, 48
3, 24828, Note_off_c, 1, 51, 64
3, 25022, Note_on_c, 1, 46, 56
3, 25078, Note_off_c, 1, 46, 64
3, 25084, Note_on_c, 1, 48, 55
3, 25144, Note_off_c, 1, 48, 64
3, 25146, Note_on_c, 1, 53, 70
3, 25274, Note_off_c, 1, 53, 64
3, 31562, Note_on_c, 1, 46, 31
3, 31612, Note_off_c, 1, 46, 64
3, 31616, Note_on_c, 1, 48, 53
3, 31678, Note_off_c, 1, 48, 64
3, 31678, Note_on_c, 1, 51, 48
3, 31776, Note_off_c, 1, 51, 64
3, 31948, Note_on_c, 1, 46, 33
3, 31998, Note_off_c, 1, 46, 64
3, 32004, Note_on_c, 1, 48, 47
3, 32064, Note_off_c, 1, 48, 64
3, 32068, Note_on_c, 1, 51, 50
3, 32176, Note_off_c, 1, 51, 64
3, 32326, Note_on_c, 1, 46, 43
3, 32382, Note_off_c, 1, 46, 64
3, 32386, Note_on_c, 1, 48, 47
3, 32448, Note_off_c, 1, 48, 64
3, 32452, Note_on_c, 1, 51, 38
3, 32544, Note_off_c, 1, 51, 64
3, 32708, Note_on_c, 1, 46, 39
3, 32764, Note_off_c, 1, 46, 64
3, 32770, Note_on_c, 1, 48, 49
3, 32830, Note_off_c, 1, 48, 64
3, 32830, Note_on_c, 1, 51, 46
3, 32926, Note_off_c, 1, 51, 64
3, 33088, Note_on_c, 1, 46, 51
3, 33140, Note_off_c, 1, 46, 64
3, 33152, Note_on_c, 1, 48, 51
3, 33210, Note_off_c, 1, 48, 64
3, 33218, Note_on_c, 1, 55, 57
3, 33284, Note_off_c, 1, 55, 64
3, 33286, Note_on_c, 1, 53, 47
3, 33344, Note_off_c, 1, 53, 64
3, 33350, Note_on_c, 1, 51, 23
3, 33382, Note_off_c, 1, 51, 64
3, 33474, Note_on_c, 1, 46, 38
3, 33526, Note_off_c, 1, 46, 64
3, 33534, Note_on_c, 1, 48, 47
3, 33590, Note_off_c, 1, 48, 64
3, 33600, Note_on_c, 1, 55, 47
3, 33660, Note_off_c, 1, 55, 64
3, 33668, Note_on_c, 1, 53, 37
3, 33724, Note_off_c, 1, 53, 64
3, 33724, Note_on_c, 1, 51, 45
3, 33770, Note_off_c, 1, 51, 64
3, 33856, Note_on_c, 1, 46, 33
3, 33914, Note_off_c, 1, 46, 64
3, 33916, Note_on_c, 1, 48, 48
3, 33978, Note_off_c, 1, 48, 64
3, 33986, Note_on_c, 1, 51, 32
3, 34084, Note_off_c, 1, 51, 64
3, 34236, Note_on_c, 1, 46, 47
3, 34294, Note_off_c, 1, 46, 64
3, 34302, Note_on_c, 1, 48, 58
3, 34364, Note_off_c, 1, 48, 64
3, 34364, Note_on_c, 1, 53, 60
3, 34516, Note_off_c, 1, 53, 64
3, 34620, Note_on_c, 1, 46, 56
3, 34662, Note_off_c, 1, 46, 64
3, 34686, Note_on_c, 1, 48, 57
3, 34748, Note_off_c, 1, 48, 64
3, 34750, Note_on_c, 1, 51, 49
3, 34824, Note_off_c, 1, 51, 64
3, 35006, Note_on_c, 1, 46, 47
3, 35058, Note_off_c, 1, 46, 64
3, 35070, Note_on_c, 1, 48, 40
3, 35126, Note_off_c, 1, 48, 64
3, 35136, Note_on_c, 1, 51, 38
3, 35230, Note_off_c, 1, 51, 64
3, 35396, Note_on_c, 1, 46, 46
3, 35452, Note_off_c, 1, 46, 64
3, 35458, Note_on_c, 1, 48, 52
3, 35514, Note_off_c, 1, 48, 64
3, 35522, Note_on_c, 1, 51, 48
3, 35596, Note_off_c, 1, 51, 64
3, 35780, Note_on_c, 1, 46, 48
3, 35832, Note_off_c, 1, 46, 64
3, 35836, Note_on_c, 1, 48, 51
3, 35896, Note_off_c, 1, 48, 64
3, 35902, Note_on_c, 1, 51, 45
3, 36010, Note_off_c, 1, 51, 64
3, 36158, Note_on_c, 1, 46, 58
3, 36214, Note_off_c, 1, 46, 64
3, 36220, Note_on_c, 1, 48, 54
3, 36274, Note_off_c, 1, 48, 64
3, 36286, Note_on_c, 1, 55, 53
3, 36346, Note_off_c, 1, 55, 64
3, 36350, Note_on_c, 1, 53, 50
3, 36410, Note_on_c, 1, 51, 47
3, 36412, Note_off_c, 1, 53, 64
3, 36440, Note_off_c, 1, 51, 64
3, 36544, Note_on_c, 1, 46, 52
3, 36578, Note_off_c, 1, 46, 64
3, 36604, Note_on_c, 1, 48, 58
3, 36656, Note_off_c, 1, 48, 64
3, 36668, Note_on_c, 1, 55, 60
3, 36728, Note_off_c, 1, 55, 64
3, 36732, Note_on_c, 1, 53, 52
3, 36790, Note_off_c, 1, 53, 64
3, 36792, Note_on_c, 1, 51, 37
3, 36840, Note_off_c, 1, 51, 64
3, 36924, Note_on_c, 1, 46, 47
3, 36978, Note_off_c, 1, 46, 64
3, 36986, Note_on_c, 1, 48, 53
3, 37044, Note_off_c, 1, 48, 64
3, 37054, Note_on_c, 1, 51, 48
3, 37116, Note_off_c, 1, 51, 64
3, 37310, Note_on_c, 1, 46, 56
3, 37366, Note_off_c, 1, 46, 64
3, 37372, Note_on_c, 1, 48, 55
3, 37432, Note_off_c, 1, 48, 64
3, 37434, Note_on_c, 1, 53, 70
3, 37562, Note_off_c, 1, 53, 64
3, 40772, Note_on_c, 1, 46, 56
3, 40834, Note_off_c, 1, 46, 64
3, 40834, Note_on_c, 1, 48, 55
3, 40896, Note_off_c, 1, 48, 64
3, 40898, Note_on_c, 1, 51, 49
3, 40984, Note_off_c, 1, 51, 64
3, 41164, Note_on_c, 1, 46, 40
3, 41218, Note_off_c, 1, 46, 64
3, 41218, Note_on_c, 1, 48, 53
3, 41276, Note_off_c, 1, 48, 64
3, 41280, Note_on_c, 1, 51, 51
3, 41372, Note_off_c, 1, 51, 64
3, 41538, Note_on_c, 1, 46, 57
3, 41580, Note_off_c, 1, 46, 64
3, 41600, Note_on_c, 1, 48, 57
3, 41658, Note_off_c, 1, 48, 64
3, 41664, Note_on_c, 1, 51, 46
3, 41738, Note_off_c, 1, 51, 64
3, 41920, Note_on_c, 1, 46, 50
3, 41984, Note_off_c, 1, 46, 64
3, 41986, Note_on_c, 1, 48, 54
3, 42044, Note_off_c, 1, 48, 64
3, 42046, Note_on_c, 1, 51, 48
3, 42138, Note_off_c, 1, 51, 64
3, 42300, Note_on_c, 1, 46, 47
3, 42354, Note_off_c, 1, 46, 64
3, 42360, Note_on_c, 1, 48, 38
3, 42434, Note_on_c, 1, 55, 68
3, 42436, Note_off_c, 1, 48, 64
3, 42492, Note_on_c, 1, 53, 57
3, 42494, Note_off_c, 1, 55, 64
3, 42558, Note_off_c, 1, 53, 64
3, 42560, Note_on_c, 1, 51, 49
3, 42606, Note_off_c, 1, 51, 64
3, 42684, Note_on_c, 1, 46, 53
3, 42740, Note_off_c, 1, 46, 64
3, 42748, Note_on_c, 1, 48, 23
3, 42810, Note_off_c, 1, 48, 64
3, 42812, Note_on_c, 1, 55, 52
3, 42878, Note_on_c, 1, 53, 59
3, 42880, Note_off_c, 1, 55, 64
3, 42940, Note_off_c, 1, 53, 64
3, 42940, Note_on_c, 1, 51, 48
3, 42988, Note_off_c, 1, 51, 64
3, 43070, Note_on_c, 1, 46, 50
3, 43128, Note_off_c, 1, 46, 64
3, 43130, Note_on_c, 1, 48, 47
3, 43190, Note_off_c, 1, 48, 64
3, 43196, Note_on_c, 1, 51, 42
3, 43278, Note_off_c, 1, 51, 64
3, 43450, Note_on_c, 1, 46, 57
3, 43508, Note_off_c, 1, 46, 64
3, 43514, Note_on_c, 1, 48, 55
3, 43576, Note_off_c, 1, 48, 64
3, 43582, Note_on_c, 1, 53, 39
3, 43746, Note_off_c, 1, 53, 64
3, 43842, Note_on_c, 1, 46, 52
3, 43844, Note_off_c, 1, 46, 64
3, 43844, Note_on_c, 1, 46, 56
3, 43902, Note_on_c, 1, 48, 46
3, 43906, Note_off_c, 1, 46, 64
3, 43906, Note_off_c, 1, 48, 64
3, 43906, Note_on_c, 1, 48, 55
3, 43968, Note_off_c, 1, 48, 64
3, 43968, Note_on_c, 1, 51, 47
3, 43970, Note_off_c, 1, 51, 64
3, 43970, Note_on_c, 1, 51, 49
3, 44056, Note_off_c, 1, 51, 64
3, 44224, Note_on_c, 1, 46, 49
3, 44236, Note_off_c, 1, 46, 64
3, 44236, Note_on_c, 1, 46, 40
3, 44288, Note_on_c, 1, 48, 57
3, 44290, Note_off_c, 1, 46, 64
3, 44290, Note_off_c, 1, 48, 64
3, 44290, Note_on_c, 1, 48, 53
3, 44348, Note_off_c, 1, 48, 64
3, 44352, Note_on_c, 1, 51, 51
3, 44353, Note_off_c, 1, 51, 64
3, 44610, Note_on_c, 1, 46, 49
3, 44611, Note_off_c, 1, 46, 64
3, 44670, Note_on_c, 1, 48, 52
3, 44672, Note_off_c, 1, 48, 64
3, 44672, Note_on_c, 1, 48, 57
3, 44730, Note_off_c, 1, 48, 64
3, 44734, Note_on_c, 1, 51, 41
3, 44736, Note_off_c, 1, 51, 64
3, 44736, Note_on_c, 1, 51, 46
3, 44810, Note_off_c, 1, 51, 64
3, 44992, Note_on_c, 1, 46, 50
3, 44996, Note_off_c, 1, 46, 64
3, 44996, Note_on_c, 1, 46, 51
3, 45052, Note_on_c, 1, 48, 52
3, 45056, Note_off_c, 1, 46, 64
3, 45058, Note_off_c, 1, 48, 64
3, 45058, Note_on_c, 1, 48, 54
3, 45116, Note_off_c, 1, 48, 64
3, 45116, Note_on_c, 1, 51, 53
3, 45118, Note_off_c, 1, 51, 64
3, 45118, Note_on_c, 1, 51, 48
3, 45210, Note_off_c, 1, 51, 64
3, 45372, Note_on_c, 1, 46, 47
3, 45374, Note_off_c, 1, 46, 64
3, 45374, Note_on_c, 1, 46, 51
3, 45426, Note_off_c, 1, 46, 64
3, 45432, Note_on_c, 1, 48, 38
3, 45434, Note_off_c, 1, 48, 64
3, 45434, Note_on_c, 1, 48, 51
3, 45504, Note_on_c, 1, 55, 56
3, 45506, Note_off_c, 1, 55, 64
3, 45506, Note_on_c, 1, 55, 68
3, 45508, Note_off_c, 1, 48, 64
3, 45564, Note_on_c, 1, 53, 57
3, 45566, Note_off_c, 1, 55, 64
3, 45576, Note_off_c, 1, 53, 64
3, 45576, Note_on_c, 1, 53, 42
3, 45632, Note_on_c, 1, 51, 49
3, 45634, Note_off_c, 1, 53, 64
3, 45634, Note_off_c, 1, 51, 64
3, 45634, Note_on_c, 1, 51, 49
3, 45678, Note_off_c, 1, 51, 64
3, 45756, Note_on_c, 1, 46, 53
3, 45762, Note_off_c, 1, 46, 64
3, 45762, Note_on_c, 1, 46, 55
3, 45812, Note_off_c, 1, 46, 64
3, 45814, Note_on_c, 1, 48, 36
3, 45820, Note_off_c, 1, 48, 64
3, 45820, Note_on_c, 1, 48, 23
3, 45884, Note_on_c, 1, 55, 52
3, 45890, Note_off_c, 1, 48, 64
3, 45902, Note_off_c, 1, 55, 64
3, 45902, Note_on_c, 1, 55, 10
3, 45950, Note_on_c, 1, 53, 59
3, 45956, Note_off_c, 1, 55, 64
3, 45956, Note_off_c, 1, 53, 64
3, 45956, Note_on_c, 1, 53, 56
3, 46012, Note_off_c, 1, 53, 64
3, 46012, Note_on_c, 1, 51, 30
3, 46013, Note_off_c, 1, 51, 64
3, 46142, Note_on_c, 1, 46, 50
3, 46200, Note_off_c, 1, 46, 64
3, 46202, Note_on_c, 1, 48, 47
3, 46262, Note_off_c, 1, 48, 64
3, 46268, Note_on_c, 1, 51, 42
3, 46350, Note_off_c, 1, 51, 64
3, 46522, Note_on_c, 1, 46, 57
3, 46580, Note_off_c, 1, 46, 64
3, 46586, Note_on_c, 1, 48, 55
3, 46648, Note_off_c, 1, 48, 64
3, 46654, Note_on_c, 1, 53, 39
3, 46818, Note_off_c, 1, 53, 64
3, 46916, Note_on_c, 1, 46, 56
3, 46978, Note_off_c, 1, 46, 64
3, 46978, Note_on_c, 1, 48, 55
3, 47040, Note_off_c, 1, 48, 64
3, 47042, Note_on_c, 1, 51, 49
3, 47128, Note_off_c, 1, 51, 64
3, 47308, Note_on_c, 1, 46, 40
3, 47362, Note_off_c, 1, 46, 64
3, 47362, Note_on_c, 1, 48, 53
3, 47420, Note_off_c, 1, 48, 64
3, 47424, Note_on_c, 1, 51, 51
3, 47516, Note_off_c, 1, 51, 64
3, 47682, Note_on_c, 1, 46, 57
3, 47724, Note_off_c, 1, 46, 64
3, 47744, Note_on_c, 1, 48, 57
3, 47802, Note_off_c, 1, 48, 64
3, 47808, Note_on_c, 1, 51, 46
3, 47882, Note_off_c, 1, 51, 64
3, 48064, Note_on_c, 1, 46, 50
3, 48128, Note_off_c, 1, 46, 64
3, 48130, Note_on_c, 1, 48, 54
3, 48188, Note_off_c, 1, 48, 64
3, 48190, Note_on_c, 1, 51, 48
3, 48282, Note_off_c, 1, 51, 64
3, 48444, Note_on_c, 1, 46, 47
3, 48498, Note_off_c, 1, 46, 64
3, 48504, Note_on_c, 1, 48, 38
3, 48578, Note_on_c, 1, 55, 68
3, 48580, Note_off_c, 1, 48, 64
3, 48636, Note_on_c, 1, 53, 57
3, 48638, Note_off_c, 1, 55, 64
3, 48702, Note_off_c, 1, 53, 64
3, 48704, Note_on_c, 1, 51, 49
3, 48750, Note_off_c, 1, 51, 64
3, 48828, Note_on_c, 1, 46, 53
3, 48884, Note_off_c, 1, 46, 64
3, 48892, Note_on_c, 1, 48, 23
3, 48954, Note_off_c, 1, 48, 64
3, 48956, Note_on_c, 1, 55, 52
3, 49022, Note_on_c, 1, 53, 59
3, 49024, Note_off_c, 1, 55, 64
3, 49084, Note_off_c, 1, 53, 64
3, 49084, Note_on_c, 1, 51, 48
3, 49132, Note_off_c, 1, 51, 64
3, 49214, Note_on_c, 1, 46, 50
3, 49272, Note_off_c, 1, 46, 64
3, 49274, Note_on_c, 1, 48, 47
3, 49334, Note_off_c, 1, 48, 64
3, 49340, Note_on_c, 1, 51, 42
3, 49422, Note_off_c, 1, 51, 64
3, 49594, Note_on_c, 1, 46, 57
3, 49652, Note_off_c, 1, 46, 64
3, 49658, Note_on_c, 1, 48, 55
3, 49720, Note_off_c, 1, 48, 64
3, 49726, Note_on_c, 1, 53, 39
3, 49890, Note_off_c, 1, 53, 64
3, 49988, Note_on_c, 1, 46, 56
3, 50050, Note_off_c, 1, 46, 64
3, 50050, Note_on_c, 1, 48, 55
3, 50112, Note_off_c, 1, 48, 64
3, 50114, Note_on_c, 1, 51, 49
3, 50200, Note_off_c, 1, 51, 64
3, 50380, Note_on_c, 1, 46, 40
3, 50434, Note_off_c, 1, 46, 64
3, 50434, Note_on_c, 1, 48, 53
3, 50492, Note_off_c, 1, 48, 64
3, 50496, Note_on_c, 1, 51, 51
3, 50588, Note_off_c, 1, 51, 64
3, 50754, Note_on_c, 1, 46, 57
3, 50796, Note_off_c, 1, 46, 64
3, 50816, Note_on_c, 1, 48, 57
3, 50874, Note_off_c, 1, 48, 64
3, 50880, Note_on_c, 1, 51, 46
3, 50954, Note_off_c, 1, 51, 64
3, 51136, Note_on_c, 1, 46, 50
3, 51200, Note_off_c, 1, 46, 64
3, 51202, Note_on_c, 1, 48, 54
3, 51260, Note_off_c, 1, 48, 64
3, 51262, Note_on_c, 1, 51, 48
3, 51354, Note_off_c, 1, 51, 64
3, 51516, Note_on_c, 1, 46, 47
3, 51570, Note_off_c, 1, 46, 64
3, 51576, Note_on_c, 1, 48, 38
3, 51650, Note_on_c, 1, 55, 68
3, 51652, Note_off_c, 1, 48, 64
3, 51708, Note_on_c, 1, 53, 57
3, 51710, Note_off_c, 1, 55, 64
3, 51774, Note_off_c, 1, 53, 64
3, 51776, Note_on_c, 1, 51, 49
3, 51822, Note_off_c, 1, 51, 64
3, 51900, Note_on_c, 1, 46, 53
3, 51956, Note_off_c, 1, 46, 64
3, 51964, Note_on_c, 1, 48, 23
3, 52026, Note_off_c, 1, 48, 64
3, 52028, Note_on_c, 1, 55, 52
3, 52094, Note_on_c, 1, 53, 59
3, 52096, Note_off_c, 1, 55, 64
3, 52156, Note_off_c, 1, 53, 64
3, 52156, Note_on_c, 1, 51, 48
3, 52204, Note_off_c, 1, 51, 64
3, 52286, Note_on_c, 1, 46, 50
3, 52344, Note_off_c, 1, 46, 64
3, 52346, Note_on_c, 1, 48, 47
3, 52406, Note_off_c, 1, 48, 64
3, 52412, Note_on_c, 1, 51, 42
3, 52494, Note_off_c, 1, 51, 64
3, 52666, Note_on_c, 1, 46, 57
3, 52724, Note_off_c, 1, 46, 64
3, 52730, Note_on_c, 1, 48, 55
3, 52792, Note_off_c, 1, 48, 64
3, 52798, Note_on_c, 1, 53, 39
3, 52962, Note_off_c, 1, 53, 64
3, 52992, Note_on_c, 1, 51, 66
3, 53688, Note_off_c, 1, 51, 64
3, 53712, Control_c, 1, 7, 127
3, 53712, End_track
4, 0, Start_track
4, 0, MIDI_port, 0
4, 0, Title_t, "Strings             "
4, 0, Program_c, 2, 48
4, 144, Control_c, 2, 7, 127
4, 768, Note_on_c, 2, 87, 54
4, 770, Note_on_c, 2, 82, 71
4, 770, Note_on_c, 2, 91, 72
4, 1156, Note_on_c, 2, 92, 58
4, 1158, Note_off_c, 2, 91, 64
4, 1340, Note_on_c, 2, 91, 72
4, 1346, Note_off_c, 2, 92, 64
4, 1490, Note_off_c, 2, 82, 64
4, 1500, Note_on_c, 2, 82, 38
4, 1502, Note_off_c, 2, 87, 64
4, 1520, Note_off_c, 2, 91, 64
4, 1520, Note_on_c, 2, 86, 73
4, 1528, Note_on_c, 2, 89, 58
4, 1884, Note_off_c, 2, 86, 64
4, 1898, Note_off_c, 2, 89, 64
4, 1904, Channel_aftertouch_c, 2, 0
4, 1906, Channel_aftertouch_c, 2, 0
4, 1910, Channel_aftertouch_c, 2, 1
4, 1914, Note_on_c, 2, 84, 64
4, 1920, Channel_aftertouch_c, 2, 0
4, 1922, Channel_aftertouch_c, 2, 0
4, 1922, Note_on_c, 2, 87, 68
4, 2284, Note_off_c, 2, 82, 64
4, 2284, Note_off_c, 2, 87, 64
4, 2290, Note_off_c, 2, 84, 64
4, 2300, Note_on_c, 2, 84, 86
4, 2300, Note_on_c, 2, 87, 63
4, 2302, Note_on_c, 2, 80, 75
4, 2656, Note_off_c, 2, 80, 64
4, 2664, Note_off_c, 2, 84, 64
4, 2676, Note_on_c, 2, 79, 75
4, 2680, Note_off_c, 2, 87, 64
4, 2686, Note_on_c, 2, 82, 62
4, 2694, Note_on_c, 2, 86, 66
4, 3014, Note_off_c, 2, 79, 64
4, 3028, Note_off_c, 2, 82, 64
4, 3032, Note_off_c, 2, 86, 64
4, 3038, Note_on_c, 2, 77, 76
4, 3056, Note_on_c, 2, 80, 63
4, 3060, Note_on_c, 2, 84, 69
4, 3380, Channel_aftertouch_c, 2, 0
4, 3454, Note_on_c, 2, 89, 76
4, 3460, Channel_aftertouch_c, 2, 1
4, 3462, Channel_aftertouch_c, 2, 2
4, 3490, Channel_aftertouch_c, 2, 3
4, 3492, Channel_aftertouch_c, 2, 4
4, 3498, Channel_aftertouch_c, 2, 5
4, 3506, Channel_aftertouch_c, 2, 6
4, 3510, Channel_aftertouch_c, 2, 7
4, 3514, Channel_aftertouch_c, 2, 8
4, 3516, Channel_aftertouch_c, 2, 9
4, 3520, Channel_aftertouch_c, 2, 10
4, 3524, Channel_aftertouch_c, 2, 11
4, 3528, Channel_aftertouch_c, 2, 12
4, 3536, Channel_aftertouch_c, 2, 13
4, 3542, Channel_aftertouch_c, 2, 14
4, 3550, Channel_aftertouch_c, 2, 15
4, 3558, Channel_aftertouch_c, 2, 16
4, 3574, Channel_aftertouch_c, 2, 17
4, 3592, Channel_aftertouch_c, 2, 18
4, 3672, Channel_aftertouch_c, 2, 17
4, 3676, Channel_aftertouch_c, 2, 16
4, 3678, Channel_aftertouch_c, 2, 15
4, 3682, Channel_aftertouch_c, 2, 14
4, 3684, Channel_aftertouch_c, 2, 13
4, 3688, Channel_aftertouch_c, 2, 12
4, 3692, Channel_aftertouch_c, 2, 11
4, 3706, Channel_aftertouch_c, 2, 10
4, 3772, Channel_aftertouch_c, 2, 11
4, 3784, Channel_aftertouch_c, 2, 12
4, 3786, Note_off_c, 2, 77, 64
4, 3792, Note_off_c, 2, 80, 64
4, 3792, Channel_aftertouch_c, 2, 13
4, 3794, Note_off_c, 2, 84, 64
4, 3802, Channel_aftertouch_c, 2, 14
4, 3834, Channel_aftertouch_c, 2, 13
4, 3836, Channel_aftertouch_c, 2, 12
4, 3838, Channel_aftertouch_c, 2, 10
4, 3840, Channel_aftertouch_c, 2, 7
4, 3844, Channel_aftertouch_c, 2, 3
4, 3844, Note_on_c, 2, 90, 54
4, 3844, Note_on_c, 2, 87, 56
4, 3846, Channel_aftertouch_c, 2, 0
4, 3846, Note_on_c, 2, 82, 73
4, 3848, Note_off_c, 2, 89, 64
4, 3850, Channel_aftertouch_c, 2, 0
4, 3852, Note_on_c, 2, 91, 82
4, 3862, Note_off_c, 2, 90, 64
4, 4212, Note_off_c, 2, 82, 64
4, 4214, Note_off_c, 2, 87, 64
4, 4214, Note_off_c, 2, 91, 64
4, 4224, Note_on_c, 2, 87, 62
4, 4226, Note_on_c, 2, 92, 68
4, 4226, Note_on_c, 2, 82, 81
4, 4422, Note_off_c, 2, 92, 64
4, 4422, Note_on_c, 2, 91, 70
4, 4576, Note_off_c, 2, 82, 64
4, 4586, Note_off_c, 2, 87, 64
4, 4594, Note_on_c, 2, 82, 71
4, 4602, Note_off_c, 2, 91, 64
4, 4606, Note_on_c, 2, 86, 70
4, 4612, Note_on_c, 2, 89, 66
4, 4952, Note_off_c, 2, 86, 64
4, 4966, Note_off_c, 2, 89, 64
4, 4978, Channel_aftertouch_c, 2, 0
4, 4982, Note_on_c, 2, 84, 65
4, 4984, Note_on_c, 2, 83, 53
4, 4988, Note_off_c, 2, 83, 64
4, 4990, Channel_aftertouch_c, 2, 0
4, 4990, Note_on_c, 2, 87, 64
4, 5356, Note_off_c, 2, 82, 64
4, 5362, Note_off_c, 2, 84, 64
4, 5362, Note_off_c, 2, 87, 64
4, 5372, Note_on_c, 2, 84, 83
4, 5374, Note_on_c, 2, 87, 56
4, 5374, Note_on_c, 2, 80, 75
4, 5732, Note_off_c, 2, 80, 64
4, 5736, Note_off_c, 2, 84, 64
4, 5748, Note_off_c, 2, 87, 64
4, 5748, Note_on_c, 2, 79, 67
4, 5758, Note_on_c, 2, 82, 68
4, 5764, Note_on_c, 2, 86, 64
4, 6092, Note_off_c, 2, 79, 64
4, 6110, Note_off_c, 2, 82, 64
4, 6114, Note_off_c, 2, 86, 64
4, 6114, Note_on_c, 2, 77, 72
4, 6132, Note_on_c, 2, 80, 68
4, 6140, Note_on_c, 2, 84, 78
4, 6528, Note_on_c, 2, 89, 86
4, 6536, Channel_aftertouch_c, 2, 0
4, 6538, Channel_aftertouch_c, 2, 1
4, 6552, Channel_aftertouch_c, 2, 2
4, 6556, Channel_aftertouch_c, 2, 3
4, 6558, Channel_aftertouch_c, 2, 4
4, 6560, Channel_aftertouch_c, 2, 5
4, 6562, Channel_aftertouch_c, 2, 6
4, 6566, Channel_aftertouch_c, 2, 7
4, 6568, Channel_aftertouch_c, 2, 8
4, 6570, Channel_aftertouch_c, 2, 9
4, 6572, Channel_aftertouch_c, 2, 10
4, 6574, Channel_aftertouch_c, 2, 11
4, 6576, Channel_aftertouch_c, 2, 13
4, 6578, Channel_aftertouch_c, 2, 14
4, 6580, Channel_aftertouch_c, 2, 15
4, 6582, Channel_aftertouch_c, 2, 17
4, 6586, Channel_aftertouch_c, 2, 18
4, 6588, Channel_aftertouch_c, 2, 19
4, 6590, Channel_aftertouch_c, 2, 20
4, 6592, Channel_aftertouch_c, 2, 21
4, 6594, Channel_aftertouch_c, 2, 22
4, 6596, Channel_aftertouch_c, 2, 23
4, 6598, Channel_aftertouch_c, 2, 24
4, 6602, Channel_aftertouch_c, 2, 25
4, 6604, Channel_aftertouch_c, 2, 26
4, 6608, Channel_aftertouch_c, 2, 27
4, 6612, Channel_aftertouch_c, 2, 28
4, 6616, Channel_aftertouch_c, 2, 29
4, 6618, Channel_aftertouch_c, 2, 30
4, 6620, Channel_aftertouch_c, 2, 31
4, 6624, Channel_aftertouch_c, 2, 33
4, 6628, Channel_aftertouch_c, 2, 34
4, 6632, Channel_aftertouch_c, 2, 35
4, 6636, Channel_aftertouch_c, 2, 36
4, 6642, Channel_aftertouch_c, 2, 37
4, 6646, Channel_aftertouch_c, 2, 38
4, 6648, Channel_aftertouch_c, 2, 39
4, 6652, Channel_aftertouch_c, 2, 40
4, 6658, Channel_aftertouch_c, 2, 41
4, 6666, Channel_aftertouch_c, 2, 42
4, 6672, Channel_aftertouch_c, 2, 43
4, 6678, Channel_aftertouch_c, 2, 44
4, 6682, Channel_aftertouch_c, 2, 45
4, 6688, Channel_aftertouch_c, 2, 46
4, 6692, Channel_aftertouch_c, 2, 47
4, 6696, Channel_aftertouch_c, 2, 48
4, 6702, Channel_aftertouch_c, 2, 49
4, 6708, Channel_aftertouch_c, 2, 50
4, 6716, Channel_aftertouch_c, 2, 51
4, 6718, Channel_aftertouch_c, 2, 52
4, 6724, Channel_aftertouch_c, 2, 53
4, 6730, Channel_aftertouch_c, 2, 54
4, 6736, Channel_aftertouch_c, 2, 55
4, 6744, Channel_aftertouch_c, 2, 56
4, 6750, Channel_aftertouch_c, 2, 57
4, 6758, Channel_aftertouch_c, 2, 58
4, 6764, Channel_aftertouch_c, 2, 59
4, 6770, Channel_aftertouch_c, 2, 60
4, 6774, Channel_aftertouch_c, 2, 61
4, 6782, Channel_aftertouch_c, 2, 62
4, 6790, Channel_aftertouch_c, 2, 63
4, 6810, Channel_aftertouch_c, 2, 64
4, 6818, Channel_aftertouch_c, 2, 66
4, 6824, Channel_aftertouch_c, 2, 67
4, 6828, Channel_aftertouch_c, 2, 68
4, 6842, Channel_aftertouch_c, 2, 69
4, 6858, Channel_aftertouch_c, 2, 70
4, 6860, Channel_aftertouch_c, 2, 71
4, 6862, Channel_aftertouch_c, 2, 72
4, 6868, Channel_aftertouch_c, 2, 73
4, 6872, Channel_aftertouch_c, 2, 74
4, 6880, Channel_aftertouch_c, 2, 73
4, 6882, Channel_aftertouch_c, 2, 71
4, 6884, Channel_aftertouch_c, 2, 66
4, 6886, Channel_aftertouch_c, 2, 57
4, 6888, Channel_aftertouch_c, 2, 44
4, 6892, Channel_aftertouch_c, 2, 29
4, 6894, Note_off_c, 2, 80, 64
4, 6894, Note_off_c, 2, 89, 64
4, 6894, Channel_aftertouch_c, 2, 17
4, 6896, Note_off_c, 2, 77, 64
4, 6896, Channel_aftertouch_c, 2, 7
4, 6898, Note_off_c, 2, 84, 64
4, 6900, Channel_aftertouch_c, 2, 2
4, 6902, Channel_aftertouch_c, 2, 0
4, 6904, Channel_aftertouch_c, 2, 0
4, 13056, Note_on_c, 2, 72, 85
4, 13056, Note_on_c, 2, 79, 76
4, 13056, Note_on_c, 2, 84, 88
4, 13056, Note_on_c, 2, 75, 73
4, 13422, Note_off_c, 2, 72, 64
4, 13422, Note_off_c, 2, 84, 64
4, 13428, Note_off_c, 2, 75, 64
4, 13430, Note_off_c, 2, 79, 64
4, 13442, Note_on_c, 2, 79, 76
4, 13442, Note_on_c, 2, 75, 73
4, 13444, Note_on_c, 2, 83, 90
4, 13444, Note_on_c, 2, 71, 86
4, 13446, Note_on_c, 2, 72, 83
4, 13448, Channel_aftertouch_c, 2, 0
4, 13452, Note_off_c, 2, 72, 64
4, 13476, Channel_aftertouch_c, 2, 0
4, 13782, Note_off_c, 2, 83, 64
4, 13786, Note_off_c, 2, 71, 64
4, 13796, Note_off_c, 2, 75, 64
4, 13812, Note_off_c, 2, 79, 64
4, 13824, Note_on_c, 2, 79, 65
4, 13826, Note_on_c, 2, 75, 60
4, 13828, Note_on_c, 2, 70, 84
4, 13828, Note_on_c, 2, 82, 81
4, 14114, Note_off_c, 2, 79, 64
4, 14114, Note_off_c, 2, 75, 64
4, 14116, Note_off_c, 2, 82, 64
4, 14118, Note_off_c, 2, 70, 64
4, 14208, Note_on_c, 2, 77, 54
4, 14208, Note_on_c, 2, 81, 65
4, 14210, Note_on_c, 2, 69, 62
4, 14210, Note_on_c, 2, 72, 70
4, 14216, Channel_aftertouch_c, 2, 0
4, 14218, Channel_aftertouch_c, 2, 2
4, 14222, Channel_aftertouch_c, 2, 4
4, 14224, Channel_aftertouch_c, 2, 6
4, 14226, Channel_aftertouch_c, 2, 7
4, 14234, Channel_aftertouch_c, 2, 6
4, 14238, Channel_aftertouch_c, 2, 5
4, 14240, Channel_aftertouch_c, 2, 4
4, 14242, Channel_aftertouch_c, 2, 2
4, 14244, Channel_aftertouch_c, 2, 1
4, 14246, Channel_aftertouch_c, 2, 0
4, 14248, Channel_aftertouch_c, 2, 0
4, 14526, Note_off_c, 2, 77, 64
4, 14530, Note_off_c, 2, 81, 64
4, 14548, Note_off_c, 2, 69, 64
4, 14578, Note_off_c, 2, 72, 64
4, 14594, Note_on_c, 2, 75, 53
4, 14594, Note_on_c, 2, 72, 66
4, 14596, Note_on_c, 2, 80, 73
4, 14596, Note_on_c, 2, 68, 81
4, 14918, Note_off_c, 2, 72, 64
4, 14922, Note_off_c, 2, 75, 64
4, 14924, Note_off_c, 2, 68, 64
4, 14930, Note_off_c, 2, 80, 64
4, 14968, Note_on_c, 2, 74, 73
4, 14972, Note_on_c, 2, 70, 75
4, 14972, Note_on_c, 2, 67, 85
4, 14972, Note_on_c, 2, 79, 83
4, 14974, Note_on_c, 2, 77, 88
4, 15006, Note_off_c, 2, 77, 64
4, 15284, Note_off_c, 2, 74, 64
4, 15284, Note_off_c, 2, 79, 64
4, 15288, Note_off_c, 2, 70, 64
4, 15292, Note_off_c, 2, 67, 64
4, 15356, Note_on_c, 2, 68, 53
4, 15358, Note_on_c, 2, 72, 70
4, 15362, Note_on_c, 2, 77, 86
4, 15362, Note_on_c, 2, 65, 70
4, 15366, Note_on_c, 2, 75, 36
4, 15368, Channel_aftertouch_c, 2, 1
4, 15370, Note_off_c, 2, 75, 64
4, 15372, Channel_aftertouch_c, 2, 3
4, 15374, Channel_aftertouch_c, 2, 4
4, 15380, Channel_aftertouch_c, 2, 3
4, 15382, Channel_aftertouch_c, 2, 1
4, 15384, Channel_aftertouch_c, 2, 0
4, 15386, Channel_aftertouch_c, 2, 0
4, 15724, Note_off_c, 2, 65, 64
4, 15728, Note_off_c, 2, 77, 64
4, 15730, Note_off_c, 2, 68, 64
4, 15738, Note_on_c, 2, 68, 57
4, 15740, Note_on_c, 2, 75, 54
4, 15740, Note_on_c, 2, 65, 79
4, 15840, Note_on_c, 2, 77, 73
4, 15984, Channel_aftertouch_c, 2, 0
4, 16034, Channel_aftertouch_c, 2, 1
4, 16058, Channel_aftertouch_c, 2, 2
4, 16080, Channel_aftertouch_c, 2, 1
4, 16082, Channel_aftertouch_c, 2, 0
4, 16084, Channel_aftertouch_c, 2, 0
4, 16096, Note_off_c, 2, 72, 64
4, 16096, Note_off_c, 2, 68, 64
4, 16096, Note_off_c, 2, 75, 64
4, 16096, Note_off_c, 2, 65, 64
4, 16096, Note_off_c, 2, 77, 64
4, 16128, Channel_aftertouch_c, 2, 7
4, 16132, Channel_aftertouch_c, 2, 3
4, 16132, Note_on_c, 2, 90, 54
4, 16132, Note_on_c, 2, 87, 56
4, 16134, Channel_aftertouch_c, 2, 0
4, 16134, Note_on_c, 2, 82, 73
4, 16138, Channel_aftertouch_c, 2, 0
4, 16140, Note_on_c, 2, 91, 82
4, 16150, Note_off_c, 2, 90, 64
4, 16500, Note_off_c, 2, 82, 64
4, 16502, Note_off_c, 2, 87, 64
4, 16502, Note_off_c, 2, 91, 64
4, 16512, Note_on_c, 2, 87, 62
4, 16514, Note_on_c, 2, 92, 68
4, 16514, Note_on_c, 2, 82, 81
4, 16710, Note_off_c, 2, 92, 64
4, 16710, Note_on_c, 2, 91, 70
4, 16864, Note_off_c, 2, 82, 64
4, 16874, Note_off_c, 2, 87, 64
4, 16882, Note_on_c, 2, 82, 71
4, 16890, Note_off_c, 2, 91, 64
4, 16894, Note_on_c, 2, 86, 70
4, 16900, Note_on_c, 2, 89, 66
4, 17240, Note_off_c, 2, 86, 64
4, 17254, Note_off_c, 2, 89, 64
4, 17266, Channel_aftertouch_c, 2, 0
4, 17270, Note_on_c, 2, 84, 65
4, 17272, Note_on_c, 2, 83, 53
4, 17276, Note_off_c, 2, 83, 64
4, 17278, Channel_aftertouch_c, 2, 0
4, 17278, Note_on_c, 2, 87, 64
4, 17644, Note_off_c, 2, 82, 64
4, 17650, Note_off_c, 2, 84, 64
4, 17650, Note_off_c, 2, 87, 64
4, 17660, Note_on_c, 2, 84, 83
4, 17662, Note_on_c, 2, 87, 56
4, 17662, Note_on_c, 2, 80, 75
4, 18020, Note_off_c, 2, 80, 64
4, 18024, Note_off_c, 2, 84, 64
4, 18036, Note_off_c, 2, 87, 64
4, 18036, Note_on_c, 2, 79, 67
4, 18046, Note_on_c, 2, 82, 68
4, 18052, Note_on_c, 2, 86, 64
4, 18380, Note_off_c, 2, 79, 64
4, 18398, Note_off_c, 2, 82, 64
4, 18402, Note_off_c, 2, 86, 64
4, 18402, Note_on_c, 2, 77, 72
4, 18420, Note_on_c, 2, 80, 68
4, 18428, Note_on_c, 2, 84, 78
4, 18816, Note_on_c, 2, 89, 86
4, 18824, Channel_aftertouch_c, 2, 0
4, 18826, Channel_aftertouch_c, 2, 1
4, 18840, Channel_aftertouch_c, 2, 2
4, 18844, Channel_aftertouch_c, 2, 3
4, 18846, Channel_aftertouch_c, 2, 4
4, 18848, Channel_aftertouch_c, 2, 5
4, 18850, Channel_aftertouch_c, 2, 6
4, 18854, Channel_aftertouch_c, 2, 7
4, 18856, Channel_aftertouch_c, 2, 8
4, 18858, Channel_aftertouch_c, 2, 9
4, 18860, Channel_aftertouch_c, 2, 10
4, 18862, Channel_aftertouch_c, 2, 11
4, 18864, Channel_aftertouch_c, 2, 13
4, 18866, Channel_aftertouch_c, 2, 14
4, 18868, Channel_aftertouch_c, 2, 15
4, 18870, Channel_aftertouch_c, 2, 17
4, 18874, Channel_aftertouch_c, 2, 18
4, 18876, Channel_aftertouch_c, 2, 19
4, 18878, Channel_aftertouch_c, 2, 20
4, 18880, Channel_aftertouch_c, 2, 21
4, 18882, Channel_aftertouch_c, 2, 22
4, 18884, Channel_aftertouch_c, 2, 23
4, 18886, Channel_aftertouch_c, 2, 24
4, 18890, Channel_aftertouch_c, 2, 25
4, 18892, Channel_aftertouch_c, 2, 26
4, 18896, Channel_aftertouch_c, 2, 27
4, 18900, Channel_aftertouch_c, 2, 28
4, 18904, Channel_aftertouch_c, 2, 29
4, 18906, Channel_aftertouch_c, 2, 30
4, 18908, Channel_aftertouch_c, 2, 31
4, 18912, Channel_aftertouch_c, 2, 33
4, 18916, Channel_aftertouch_c, 2, 34
4, 18920, Channel_aftertouch_c, 2, 35
4, 18924, Channel_aftertouch_c, 2, 36
4, 18930, Channel_aftertouch_c, 2, 37
4, 18934, Channel_aftertouch_c, 2, 38
4, 18936, Channel_aftertouch_c, 2, 39
4, 18940, Channel_aftertouch_c, 2, 40
4, 18946, Channel_aftertouch_c, 2, 41
4, 18954, Channel_aftertouch_c, 2, 42
4, 18960, Channel_aftertouch_c, 2, 43
4, 18966, Channel_aftertouch_c, 2, 44
4, 18970, Channel_aftertouch_c, 2, 45
4, 18976, Channel_aftertouch_c, 2, 46
4, 18980, Channel_aftertouch_c, 2, 47
4, 18984, Channel_aftertouch_c, 2, 48
4, 18990, Channel_aftertouch_c, 2, 49
4, 18996, Channel_aftertouch_c, 2, 50
4, 19004, Channel_aftertouch_c, 2, 51
4, 19006, Channel_aftertouch_c, 2, 52
4, 19012, Channel_aftertouch_c, 2, 53
4, 19018, Channel_aftertouch_c, 2, 54
4, 19024, Channel_aftertouch_c, 2, 55
4, 19032, Channel_aftertouch_c, 2, 56
4, 19038, Channel_aftertouch_c, 2, 57
4, 19046, Channel_aftertouch_c, 2, 58
4, 19052, Channel_aftertouch_c, 2, 59
4, 19058, Channel_aftertouch_c, 2, 60
4, 19062, Channel_aftertouch_c, 2, 61
4, 19070, Channel_aftertouch_c, 2, 62
4, 19078, Channel_aftertouch_c, 2, 63
4, 19098, Channel_aftertouch_c, 2, 64
4, 19106, Channel_aftertouch_c, 2, 66
4, 19112, Channel_aftertouch_c, 2, 67
4, 19116, Channel_aftertouch_c, 2, 68
4, 19130, Channel_aftertouch_c, 2, 69
4, 19146, Channel_aftertouch_c, 2, 70
4, 19148, Channel_aftertouch_c, 2, 71
4, 19150, Channel_aftertouch_c, 2, 72
4, 19156, Channel_aftertouch_c, 2, 73
4, 19160, Channel_aftertouch_c, 2, 74
4, 19168, Channel_aftertouch_c, 2, 73
4, 19170, Channel_aftertouch_c, 2, 71
4, 19172, Channel_aftertouch_c, 2, 66
4, 19174, Channel_aftertouch_c, 2, 57
4, 19176, Channel_aftertouch_c, 2, 44
4, 19180, Channel_aftertouch_c, 2, 29
4, 19182, Note_off_c, 2, 80, 64
4, 19182, Note_off_c, 2, 89, 64
4, 19182, Channel_aftertouch_c, 2, 17
4, 19184, Note_off_c, 2, 77, 64
4, 19184, Channel_aftertouch_c, 2, 7
4, 19186, Note_off_c, 2, 84, 64
4, 19188, Channel_aftertouch_c, 2, 2
4, 19190, Channel_aftertouch_c, 2, 0
4, 19192, Channel_aftertouch_c, 2, 0
4, 25344, Note_on_c, 2, 72, 85
4, 25344, Note_on_c, 2, 79, 76
4, 25344, Note_on_c, 2, 84, 88
4, 25344, Note_on_c, 2, 75, 73
4, 25710, Note_off_c, 2, 72, 64
4, 25710, Note_off_c, 2, 84, 64
4, 25716, Note_off_c, 2, 75, 64
4, 25718, Note_off_c, 2, 79, 64
4, 25730, Note_on_c, 2, 79, 76
4, 25730, Note_on_c, 2, 75, 73
4, 25732, Note_on_c, 2, 83, 90
4, 25732, Note_on_c, 2, 71, 86
4, 25734, Note_on_c, 2, 72, 83
4, 25736, Channel_aftertouch_c, 2, 0
4, 25740, Note_off_c, 2, 72, 64
4, 25764, Channel_aftertouch_c, 2, 0
4, 26070, Note_off_c, 2, 83, 64
4, 26074, Note_off_c, 2, 71, 64
4, 26084, Note_off_c, 2, 75, 64
4, 26100, Note_off_c, 2, 79, 64
4, 26112, Note_on_c, 2, 79, 65
4, 26114, Note_on_c, 2, 75, 60
4, 26116, Note_on_c, 2, 70, 84
4, 26116, Note_on_c, 2, 82, 81
4, 26402, Note_off_c, 2, 79, 64
4, 26402, Note_off_c, 2, 75, 64
4, 26404, Note_off_c, 2, 82, 64
4, 26406, Note_off_c, 2, 70, 64
4, 26496, Note_on_c, 2, 77, 54
4, 26496, Note_on_c, 2, 81, 65
4, 26498, Note_on_c, 2, 69, 62
4, 26498, Note_on_c, 2, 72, 70
4, 26504, Channel_aftertouch_c, 2, 0
4, 26506, Channel_aftertouch_c, 2, 2
4, 26510, Channel_aftertouch_c, 2, 4
4, 26512, Channel_aftertouch_c, 2, 6
4, 26514, Channel_aftertouch_c, 2, 7
4, 26522, Channel_aftertouch_c, 2, 6
4, 26526, Channel_aftertouch_c, 2, 5
4, 26528, Channel_aftertouch_c, 2, 4
4, 26530, Channel_aftertouch_c, 2, 2
4, 26532, Channel_aftertouch_c, 2, 1
4, 26534, Channel_aftertouch_c, 2, 0
4, 26536, Channel_aftertouch_c, 2, 0
4, 26814, Note_off_c, 2, 77, 64
4, 26818, Note_off_c, 2, 81, 64
4, 26836, Note_off_c, 2, 69, 64
4, 26866, Note_off_c, 2, 72, 64
4, 26882, Note_on_c, 2, 75, 53
4, 26882, Note_on_c, 2, 72, 66
4, 26884, Note_on_c, 2, 80, 73
4, 26884, Note_on_c, 2, 68, 81
4, 27206, Note_off_c, 2, 72, 64
4, 27210, Note_off_c, 2, 75, 64
4, 27212, Note_off_c, 2, 68, 64
4, 27218, Note_off_c, 2, 80, 64
4, 27256, Note_on_c, 2, 74, 73
4, 27260, Note_on_c, 2, 70, 75
4, 27260, Note_on_c, 2, 67, 85
4, 27260, Note_on_c, 2, 79, 83
4, 27262, Note_on_c, 2, 77, 88
4, 27294, Note_off_c, 2, 77, 64
4, 27572, Note_off_c, 2, 74, 64
4, 27572, Note_off_c, 2, 79, 64
4, 27576, Note_off_c, 2, 70, 64
4, 27580, Note_off_c, 2, 67, 64
4, 27644, Note_on_c, 2, 68, 53
4, 27646, Note_on_c, 2, 72, 70
4, 27650, Note_on_c, 2, 77, 86
4, 27650, Note_on_c, 2, 65, 70
4, 27654, Note_on_c, 2, 75, 36
4, 27656, Channel_aftertouch_c, 2, 1
4, 27658, Note_off_c, 2, 75, 64
4, 27660, Channel_aftertouch_c, 2, 3
4, 27662, Channel_aftertouch_c, 2, 4
4, 27668, Channel_aftertouch_c, 2, 3
4, 27670, Channel_aftertouch_c, 2, 1
4, 27672, Channel_aftertouch_c, 2, 0
4, 27674, Channel_aftertouch_c, 2, 0
4, 28012, Note_off_c, 2, 65, 64
4, 28016, Note_off_c, 2, 77, 64
4, 28018, Note_off_c, 2, 68, 64
4, 28026, Note_on_c, 2, 68, 57
4, 28028, Note_on_c, 2, 75, 54
4, 28028, Note_on_c, 2, 65, 79
4, 28128, Note_on_c, 2, 77, 73
4, 28272, Channel_aftertouch_c, 2, 0
4, 28322, Channel_aftertouch_c, 2, 1
4, 28346, Channel_aftertouch_c, 2, 2
4, 28368, Channel_aftertouch_c, 2, 1
4, 28370, Channel_aftertouch_c, 2, 0
4, 28372, Channel_aftertouch_c, 2, 0
4, 28384, Note_off_c, 2, 72, 64
4, 28384, Note_off_c, 2, 68, 64
4, 28384, Note_off_c, 2, 75, 64
4, 28384, Note_off_c, 2, 65, 64
4, 28384, Note_off_c, 2, 77, 64
4, 28416, Channel_aftertouch_c, 2, 7
4, 28420, Channel_aftertouch_c, 2, 3
4, 28420, Note_on_c, 2, 90, 54
4, 28420, Note_on_c, 2, 87, 56
4, 28422, Channel_aftertouch_c, 2, 0
4, 28422, Note_on_c, 2, 82, 73
4, 28426, Channel_aftertouch_c, 2, 0
4, 28428, Note_on_c, 2, 91, 82
4, 28438, Note_off_c, 2, 90, 64
4, 28788, Note_off_c, 2, 82, 64
4, 28790, Note_off_c, 2, 87, 64
4, 28790, Note_off_c, 2, 91, 64
4, 28800, Note_on_c, 2, 87, 62
4, 28802, Note_on_c, 2, 92, 68
4, 28802, Note_on_c, 2, 82, 81
4, 28998, Note_off_c, 2, 92, 64
4, 28998, Note_on_c, 2, 91, 70
4, 29152, Note_off_c, 2, 82, 64
4, 29162, Note_off_c, 2, 87, 64
4, 29170, Note_on_c, 2, 82, 71
4, 29178, Note_off_c, 2, 91, 64
4, 29182, Note_on_c, 2, 86, 70
4, 29188, Note_on_c, 2, 89, 66
4, 29528, Note_off_c, 2, 86, 64
4, 29542, Note_off_c, 2, 89, 64
4, 29554, Channel_aftertouch_c, 2, 0
4, 29558, Note_on_c, 2, 84, 65
4, 29560, Note_on_c, 2, 83, 53
4, 29564, Note_off_c, 2, 83, 64
4, 29566, Channel_aftertouch_c, 2, 0
4, 29566, Note_on_c, 2, 87, 64
4, 29932, Note_off_c, 2, 82, 64
4, 29938, Note_off_c, 2, 84, 64
4, 29938, Note_off_c, 2, 87, 64
4, 29948, Note_on_c, 2, 84, 83
4, 29950, Note_on_c, 2, 87, 56
4, 29950, Note_on_c, 2, 80, 75
4, 30308, Note_off_c, 2, 80, 64
4, 30312, Note_off_c, 2, 84, 64
4, 30324, Note_off_c, 2, 87, 64
4, 30324, Note_on_c, 2, 79, 67
4, 30334, Note_on_c, 2, 82, 68
4, 30340, Note_on_c, 2, 86, 64
4, 30668, Note_off_c, 2, 79, 64
4, 30686, Note_off_c, 2, 82, 64
4, 30690, Note_off_c, 2, 86, 64
4, 30690, Note_on_c, 2, 77, 72
4, 30708, Note_on_c, 2, 80, 68
4, 30716, Note_on_c, 2, 84, 78
4, 31104, Note_on_c, 2, 89, 86
4, 31112, Channel_aftertouch_c, 2, 0
4, 31114, Channel_aftertouch_c, 2, 1
4, 31128, Channel_aftertouch_c, 2, 2
4, 31132, Channel_aftertouch_c, 2, 3
4, 31134, Channel_aftertouch_c, 2, 4
4, 31136, Channel_aftertouch_c, 2, 5
4, 31138, Channel_aftertouch_c, 2, 6
4, 31142, Channel_aftertouch_c, 2, 7
4, 31144, Channel_aftertouch_c, 2, 8
4, 31146, Channel_aftertouch_c, 2, 9
4, 31148, Channel_aftertouch_c, 2, 10
4, 31150, Channel_aftertouch_c, 2, 11
4, 31152, Channel_aftertouch_c, 2, 13
4, 31154, Channel_aftertouch_c, 2, 14
4, 31156, Channel_aftertouch_c, 2, 15
4, 31158, Channel_aftertouch_c, 2, 17
4, 31162, Channel_aftertouch_c, 2, 18
4, 31164, Channel_aftertouch_c, 2, 19
4, 31166, Channel_aftertouch_c, 2, 20
4, 31168, Channel_aftertouch_c, 2, 21
4, 31170, Channel_aftertouch_c, 2, 22
4, 31172, Channel_aftertouch_c, 2, 23
4, 31174, Channel_aftertouch_c, 2, 24
4, 31178, Channel_aftertouch_c, 2, 25
4, 31180, Channel_aftertouch_c, 2, 26
4, 31184, Channel_aftertouch_c, 2, 27
4, 31188, Channel_aftertouch_c, 2, 28
4, 31192, Channel_aftertouch_c, 2, 29
4, 31194, Channel_aftertouch_c, 2, 30
4, 31196, Channel_aftertouch_c, 2, 31
4, 31200, Channel_aftertouch_c, 2, 33
4, 31204, Channel_aftertouch_c, 2, 34
4, 31208, Channel_aftertouch_c, 2, 35
4, 31212, Channel_aftertouch_c, 2, 36
4, 31218, Channel_aftertouch_c, 2, 37
4, 31222, Channel_aftertouch_c, 2, 38
4, 31224, Channel_aftertouch_c, 2, 39
4, 31228, Channel_aftertouch_c, 2, 40
4, 31234, Channel_aftertouch_c, 2, 41
4, 31242, Channel_aftertouch_c, 2, 42
4, 31248, Channel_aftertouch_c, 2, 43
4, 31254, Channel_aftertouch_c, 2, 44
4, 31258, Channel_aftertouch_c, 2, 45
4, 31264, Channel_aftertouch_c, 2, 46
4, 31268, Channel_aftertouch_c, 2, 47
4, 31272, Channel_aftertouch_c, 2, 48
4, 31278, Channel_aftertouch_c, 2, 49
4, 31284, Channel_aftertouch_c, 2, 50
4, 31292, Channel_aftertouch_c, 2, 51
4, 31294, Channel_aftertouch_c, 2, 52
4, 31300, Channel_aftertouch_c, 2, 53
4, 31306, Channel_aftertouch_c, 2, 54
4, 31312, Channel_aftertouch_c, 2, 55
4, 31320, Channel_aftertouch_c, 2, 56
4, 31326, Channel_aftertouch_c, 2, 57
4, 31334, Channel_aftertouch_c, 2, 58
4, 31340, Channel_aftertouch_c, 2, 59
4, 31346, Channel_aftertouch_c, 2, 60
4, 31350, Channel_aftertouch_c, 2, 61
4, 31358, Channel_aftertouch_c, 2, 62
4, 31366, Channel_aftertouch_c, 2, 63
4, 31386, Channel_aftertouch_c, 2, 64
4, 31394, Channel_aftertouch_c, 2, 66
4, 31400, Channel_aftertouch_c, 2, 67
4, 31404, Channel_aftertouch_c, 2, 68
4, 31418, Channel_aftertouch_c, 2, 69
4, 31434, Channel_aftertouch_c, 2, 70
4, 31436, Channel_aftertouch_c, 2, 71
4, 31438, Channel_aftertouch_c, 2, 72
4, 31444, Channel_aftertouch_c, 2, 73
4, 31448, Channel_aftertouch_c, 2, 74
4, 31456, Channel_aftertouch_c, 2, 73
4, 31458, Channel_aftertouch_c, 2, 71
4, 31460, Channel_aftertouch_c, 2, 66
4, 31462, Channel_aftertouch_c, 2, 57
4, 31464, Channel_aftertouch_c, 2, 44
4, 31468, Channel_aftertouch_c, 2, 29
4, 31470, Note_off_c, 2, 80, 64
4, 31470, Note_off_c, 2, 89, 64
4, 31470, Channel_aftertouch_c, 2, 17
4, 31472, Note_off_c, 2, 77, 64
4, 31472, Channel_aftertouch_c, 2, 7
4, 31474, Note_off_c, 2, 84, 64
4, 31476, Channel_aftertouch_c, 2, 2
4, 31478, Channel_aftertouch_c, 2, 0
4, 31480, Channel_aftertouch_c, 2, 0
4, 37632, Note_on_c, 2, 72, 85
4, 37632, Note_on_c, 2, 79, 76
4, 37632, Note_on_c, 2, 84, 88
4, 37632, Note_on_c, 2, 75, 73
4, 37998, Note_off_c, 2, 72, 64
4, 37998, Note_off_c, 2, 84, 64
4, 38004, Note_off_c, 2, 75, 64
4, 38006, Note_off_c, 2, 79, 64
4, 38018, Note_on_c, 2, 79, 76
4, 38018, Note_on_c, 2, 75, 73
4, 38020, Note_on_c, 2, 83, 90
4, 38020, Note_on_c, 2, 71, 86
4, 38022, Note_on_c, 2, 72, 83
4, 38024, Channel_aftertouch_c, 2, 0
4, 38028, Note_off_c, 2, 72, 64
4, 38052, Channel_aftertouch_c, 2, 0
4, 38358, Note_off_c, 2, 83, 64
4, 38362, Note_off_c, 2, 71, 64
4, 38372, Note_off_c, 2, 75, 64
4, 38388, Note_off_c, 2, 79, 64
4, 38400, Note_on_c, 2, 79, 65
4, 38402, Note_on_c, 2, 75, 60
4, 38404, Note_on_c, 2, 70, 84
4, 38404, Note_on_c, 2, 82, 81
4, 38690, Note_off_c, 2, 79, 64
4, 38690, Note_off_c, 2, 75, 64
4, 38692, Note_off_c, 2, 82, 64
4, 38694, Note_off_c, 2, 70, 64
4, 38784, Note_on_c, 2, 77, 54
4, 38784, Note_on_c, 2, 81, 65
4, 38786, Note_on_c, 2, 69, 62
4, 38786, Note_on_c, 2, 72, 70
4, 38792, Channel_aftertouch_c, 2, 0
4, 38794, Channel_aftertouch_c, 2, 2
4, 38798, Channel_aftertouch_c, 2, 4
4, 38800, Channel_aftertouch_c, 2, 6
4, 38802, Channel_aftertouch_c, 2, 7
4, 38810, Channel_aftertouch_c, 2, 6
4, 38814, Channel_aftertouch_c, 2, 5
4, 38816, Channel_aftertouch_c, 2, 4
4, 38818, Channel_aftertouch_c, 2, 2
4, 38820, Channel_aftertouch_c, 2, 1
4, 38822, Channel_aftertouch_c, 2, 0
4, 38824, Channel_aftertouch_c, 2, 0
4, 39102, Note_off_c, 2, 77, 64
4, 39106, Note_off_c, 2, 81, 64
4, 39124, Note_off_c, 2, 69, 64
4, 39154, Note_off_c, 2, 72, 64
4, 39170, Note_on_c, 2, 75, 53
4, 39170, Note_on_c, 2, 72, 66
4, 39172, Note_on_c, 2, 80, 73
4, 39172, Note_on_c, 2, 68, 81
4, 39494, Note_off_c, 2, 72, 64
4, 39498, Note_off_c, 2, 75, 64
4, 39500, Note_off_c, 2, 68, 64
4, 39506, Note_off_c, 2, 80, 64
4, 39544, Note_on_c, 2, 74, 73
4, 39548, Note_on_c, 2, 70, 75
4, 39548, Note_on_c, 2, 67, 85
4, 39548, Note_on_c, 2, 79, 83
4, 39550, Note_on_c, 2, 77, 88
4, 39582, Note_off_c, 2, 77, 64
4, 39860, Note_off_c, 2, 74, 64
4, 39860, Note_off_c, 2, 79, 64
4, 39864, Note_off_c, 2, 70, 64
4, 39868, Note_off_c, 2, 67, 64
4, 39932, Note_on_c, 2, 68, 53
4, 39934, Note_on_c, 2, 72, 70
4, 39938, Note_on_c, 2, 77, 86
4, 39938, Note_on_c, 2, 65, 70
4, 39942, Note_on_c, 2, 75, 36
4, 39944, Channel_aftertouch_c, 2, 1
4, 39946, Note_off_c, 2, 75, 64
4, 39948, Channel_aftertouch_c, 2, 3
4, 39950, Channel_aftertouch_c, 2, 4
4, 39956, Channel_aftertouch_c, 2, 3
4, 39958, Channel_aftertouch_c, 2, 1
4, 39960, Channel_aftertouch_c, 2, 0
4, 39962, Channel_aftertouch_c, 2, 0
4, 40300, Note_off_c, 2, 65, 64
4, 40304, Note_off_c, 2, 77, 64
4, 40306, Note_off_c, 2, 68, 64
4, 40314, Note_on_c, 2, 68, 57
4, 40316, Note_on_c, 2, 75, 54
4, 40316, Note_on_c, 2, 65, 79
4, 40416, Note_on_c, 2, 77, 73
4, 40560, Channel_aftertouch_c, 2, 0
4, 40610, Channel_aftertouch_c, 2, 1
4, 40634, Channel_aftertouch_c, 2, 2
4, 40656, Channel_aftertouch_c, 2, 1
4, 40658, Channel_aftertouch_c, 2, 0
4, 40660, Channel_aftertouch_c, 2, 0
4, 40672, Note_off_c, 2, 72, 64
4, 40672, Note_off_c, 2, 68, 64
4, 40672, Note_off_c, 2, 75, 64
4, 40672, Note_off_c, 2, 65, 64
4, 40672, Note_off_c, 2, 77, 64
4, 40704, Channel_aftertouch_c, 2, 7
4, 40708, Channel_aftertouch_c, 2, 3
4, 40708, Note_on_c, 2, 90, 54
4, 40708, Note_on_c, 2, 87, 56
4, 40710, Channel_aftertouch_c, 2, 0
4, 40710, Note_on_c, 2, 82, 73
4, 40714, Channel_aftertouch_c, 2, 0
4, 40716, Note_on_c, 2, 91, 82
4, 40726, Note_off_c, 2, 90, 64
4, 41076, Note_off_c, 2, 82, 64
4, 41078, Note_off_c, 2, 87, 64
4, 41078, Note_off_c, 2, 91, 64
4, 41088, Note_on_c, 2, 87, 62
4, 41090, Note_on_c, 2, 92, 68
4, 41090, Note_on_c, 2, 82, 81
4, 41286, Note_off_c, 2, 92, 64
4, 41286, Note_on_c, 2, 91, 70
4, 41440, Note_off_c, 2, 82, 64
4, 41450, Note_off_c, 2, 87, 64
4, 41458, Note_on_c, 2, 82, 71
4, 41466, Note_off_c, 2, 91, 64
4, 41470, Note_on_c, 2, 86, 70
4, 41476, Note_on_c, 2, 89, 66
4, 41816, Note_off_c, 2, 86, 64
4, 41830, Note_off_c, 2, 89, 64
4, 41842, Channel_aftertouch_c, 2, 0
4, 41846, Note_on_c, 2, 84, 65
4, 41848, Note_on_c, 2, 83, 53
4, 41852, Note_off_c, 2, 83, 64
4, 41854, Channel_aftertouch_c, 2, 0
4, 41854, Note_on_c, 2, 87, 64
4, 42220, Note_off_c, 2, 82, 64
4, 42226, Note_off_c, 2, 84, 64
4, 42226, Note_off_c, 2, 87, 64
4, 42236, Note_on_c, 2, 84, 83
4, 42238, Note_on_c, 2, 87, 56
4, 42238, Note_on_c, 2, 80, 75
4, 42596, Note_off_c, 2, 80, 64
4, 42600, Note_off_c, 2, 84, 64
4, 42612, Note_off_c, 2, 87, 64
4, 42612, Note_on_c, 2, 79, 67
4, 42622, Note_on_c, 2, 82, 68
4, 42628, Note_on_c, 2, 86, 64
4, 42956, Note_off_c, 2, 79, 64
4, 42974, Note_off_c, 2, 82, 64
4, 42978, Note_off_c, 2, 86, 64
4, 42978, Note_on_c, 2, 77, 72
4, 42996, Note_on_c, 2, 80, 68
4, 43004, Note_on_c, 2, 84, 78
4, 43392, Note_on_c, 2, 89, 86
4, 43400, Channel_aftertouch_c, 2, 0
4, 43402, Channel_aftertouch_c, 2, 1
4, 43416, Channel_aftertouch_c, 2, 2
4, 43420, Channel_aftertouch_c, 2, 3
4, 43422, Channel_aftertouch_c, 2, 4
4, 43424, Channel_aftertouch_c, 2, 5
4, 43426, Channel_aftertouch_c, 2, 6
4, 43430, Channel_aftertouch_c, 2, 7
4, 43432, Channel_aftertouch_c, 2, 8
4, 43434, Channel_aftertouch_c, 2, 9
4, 43436, Channel_aftertouch_c, 2, 10
4, 43438, Channel_aftertouch_c, 2, 11
4, 43440, Channel_aftertouch_c, 2, 13
4, 43442, Channel_aftertouch_c, 2, 14
4, 43444, Channel_aftertouch_c, 2, 15
4, 43446, Channel_aftertouch_c, 2, 17
4, 43450, Channel_aftertouch_c, 2, 18
4, 43452, Channel_aftertouch_c, 2, 19
4, 43454, Channel_aftertouch_c, 2, 20
4, 43456, Channel_aftertouch_c, 2, 21
4, 43458, Channel_aftertouch_c, 2, 22
4, 43460, Channel_aftertouch_c, 2, 23
4, 43462, Channel_aftertouch_c, 2, 24
4, 43466, Channel_aftertouch_c, 2, 25
4, 43468, Channel_aftertouch_c, 2, 26
4, 43472, Channel_aftertouch_c, 2, 27
4, 43476, Channel_aftertouch_c, 2, 28
4, 43480, Channel_aftertouch_c, 2, 29
4, 43482, Channel_aftertouch_c, 2, 30
4, 43484, Channel_aftertouch_c, 2, 31
4, 43488, Channel_aftertouch_c, 2, 33
4, 43492, Channel_aftertouch_c, 2, 34
4, 43496, Channel_aftertouch_c, 2, 35
4, 43500, Channel_aftertouch_c, 2, 36
4, 43506, Channel_aftertouch_c, 2, 37
4, 43510, Channel_aftertouch_c, 2, 38
4, 43512, Channel_aftertouch_c, 2, 39
4, 43516, Channel_aftertouch_c, 2, 40
4, 43522, Channel_aftertouch_c, 2, 41
4, 43530, Channel_aftertouch_c, 2, 42
4, 43536, Channel_aftertouch_c, 2, 43
4, 43542, Channel_aftertouch_c, 2, 44
4, 43546, Channel_aftertouch_c, 2, 45
4, 43552, Channel_aftertouch_c, 2, 46
4, 43556, Channel_aftertouch_c, 2, 47
4, 43560, Channel_aftertouch_c, 2, 48
4, 43566, Channel_aftertouch_c, 2, 49
4, 43572, Channel_aftertouch_c, 2, 50
4, 43580, Channel_aftertouch_c, 2, 51
4, 43582, Channel_aftertouch_c, 2, 52
4, 43588, Channel_aftertouch_c, 2, 53
4, 43594, Channel_aftertouch_c, 2, 54
4, 43600, Channel_aftertouch_c, 2, 55
4, 43608, Channel_aftertouch_c, 2, 56
4, 43614, Channel_aftertouch_c, 2, 57
4, 43622, Channel_aftertouch_c, 2, 58
4, 43628, Channel_aftertouch_c, 2, 59
4, 43634, Channel_aftertouch_c, 2, 60
4, 43638, Channel_aftertouch_c, 2, 61
4, 43646, Channel_aftertouch_c, 2, 62
4, 43654, Channel_aftertouch_c, 2, 63
4, 43674, Channel_aftertouch_c, 2, 64
4, 43682, Channel_aftertouch_c, 2, 66
4, 43688, Channel_aftertouch_c, 2, 67
4, 43692, Channel_aftertouch_c, 2, 68
4, 43706, Channel_aftertouch_c, 2, 69
4, 43722, Channel_aftertouch_c, 2, 70
4, 43724, Channel_aftertouch_c, 2, 71
4, 43726, Channel_aftertouch_c, 2, 72
4, 43732, Channel_aftertouch_c, 2, 73
4, 43736, Channel_aftertouch_c, 2, 74
4, 43744, Channel_aftertouch_c, 2, 73
4, 43746, Channel_aftertouch_c, 2, 71
4, 43748, Channel_aftertouch_c, 2, 66
4, 43750, Channel_aftertouch_c, 2, 57
4, 43752, Channel_aftertouch_c, 2, 44
4, 43756, Channel_aftertouch_c, 2, 29
4, 43758, Note_off_c, 2, 80, 64
4, 43758, Note_off_c, 2, 89, 64
4, 43758, Channel_aftertouch_c, 2, 17
4, 43760, Note_off_c, 2, 77, 64
4, 43760, Channel_aftertouch_c, 2, 7
4, 43762, Note_off_c, 2, 84, 64
4, 43764, Channel_aftertouch_c, 2, 2
4, 43766, Channel_aftertouch_c, 2, 0
4, 43768, Channel_aftertouch_c, 2, 0
4, 43776, Channel_aftertouch_c, 2, 7
4, 43780, Channel_aftertouch_c, 2, 3
4, 43780, Note_on_c, 2, 90, 54
4, 43780, Note_on_c, 2, 87, 56
4, 43782, Channel_aftertouch_c, 2, 0
4, 43782, Note_on_c, 2, 82, 73
4, 43786, Channel_aftertouch_c, 2, 0
4, 43788, Note_on_c, 2, 91, 82
4, 43798, Note_off_c, 2, 90, 64
4, 44148, Note_off_c, 2, 82, 64
4, 44150, Note_off_c, 2, 87, 64
4, 44150, Note_off_c, 2, 91, 64
4, 44160, Note_on_c, 2, 87, 62
4, 44162, Note_on_c, 2, 92, 68
4, 44162, Note_on_c, 2, 82, 81
4, 44358, Note_off_c, 2, 92, 64
4, 44358, Note_on_c, 2, 91, 70
4, 44512, Note_off_c, 2, 82, 64
4, 44522, Note_off_c, 2, 87, 64
4, 44530, Note_on_c, 2, 82, 71
4, 44538, Note_off_c, 2, 91, 64
4, 44542, Note_on_c, 2, 86, 70
4, 44548, Note_on_c, 2, 89, 66
4, 44888, Note_off_c, 2, 86, 64
4, 44902, Note_off_c, 2, 89, 64
4, 44914, Channel_aftertouch_c, 2, 0
4, 44918, Note_on_c, 2, 84, 65
4, 44920, Note_on_c, 2, 83, 53
4, 44924, Note_off_c, 2, 83, 64
4, 44926, Channel_aftertouch_c, 2, 0
4, 44926, Note_on_c, 2, 87, 64
4, 45292, Note_off_c, 2, 82, 64
4, 45298, Note_off_c, 2, 84, 64
4, 45298, Note_off_c, 2, 87, 64
4, 45308, Note_on_c, 2, 84, 83
4, 45310, Note_on_c, 2, 87, 56
4, 45310, Note_on_c, 2, 80, 75
4, 45668, Note_off_c, 2, 80, 64
4, 45672, Note_off_c, 2, 84, 64
4, 45684, Note_off_c, 2, 87, 64
4, 45684, Note_on_c, 2, 79, 67
4, 45694, Note_on_c, 2, 82, 68
4, 45700, Note_on_c, 2, 86, 64
4, 46028, Note_off_c, 2, 79, 64
4, 46046, Note_off_c, 2, 82, 64
4, 46050, Note_off_c, 2, 86, 64
4, 46050, Note_on_c, 2, 77, 72
4, 46068, Note_on_c, 2, 80, 68
4, 46076, Note_on_c, 2, 84, 78
4, 46464, Note_on_c, 2, 89, 86
4, 46472, Channel_aftertouch_c, 2, 0
4, 46474, Channel_aftertouch_c, 2, 1
4, 46488, Channel_aftertouch_c, 2, 2
4, 46492, Channel_aftertouch_c, 2, 3
4, 46494, Channel_aftertouch_c, 2, 4
4, 46496, Channel_aftertouch_c, 2, 5
4, 46498, Channel_aftertouch_c, 2, 6
4, 46502, Channel_aftertouch_c, 2, 7
4, 46504, Channel_aftertouch_c, 2, 8
4, 46506, Channel_aftertouch_c, 2, 9
4, 46508, Channel_aftertouch_c, 2, 10
4, 46510, Channel_aftertouch_c, 2, 11
4, 46512, Channel_aftertouch_c, 2, 13
4, 46514, Channel_aftertouch_c, 2, 14
4, 46516, Channel_aftertouch_c, 2, 15
4, 46518, Channel_aftertouch_c, 2, 17
4, 46522, Channel_aftertouch_c, 2, 18
4, 46524, Channel_aftertouch_c, 2, 19
4, 46526, Channel_aftertouch_c, 2, 20
4, 46528, Channel_aftertouch_c, 2, 21
4, 46530, Channel_aftertouch_c, 2, 22
4, 46532, Channel_aftertouch_c, 2, 23
4, 46534, Channel_aftertouch_c, 2, 24
4, 46538, Channel_aftertouch_c, 2, 25
4, 46540, Channel_aftertouch_c, 2, 26
4, 46544, Channel_aftertouch_c, 2, 27
4, 46548, Channel_aftertouch_c, 2, 28
4, 46552, Channel_aftertouch_c, 2, 29
4, 46554, Channel_aftertouch_c, 2, 30
4, 46556, Channel_aftertouch_c, 2, 31
4, 46560, Channel_aftertouch_c, 2, 33
4, 46564, Channel_aftertouch_c, 2, 34
4, 46568, Channel_aftertouch_c, 2, 35
4, 46572, Channel_aftertouch_c, 2, 36
4, 46578, Channel_aftertouch_c, 2, 37
4, 46582, Channel_aftertouch_c, 2, 38
4, 46584, Channel_aftertouch_c, 2, 39
4, 46588, Channel_aftertouch_c, 2, 40
4, 46594, Channel_aftertouch_c, 2, 41
4, 46602, Channel_aftertouch_c, 2, 42
4, 46608, Channel_aftertouch_c, 2, 43
4, 46614, Channel_aftertouch_c, 2, 44
4, 46618, Channel_aftertouch_c, 2, 45
4, 46624, Channel_aftertouch_c, 2, 46
4, 46628, Channel_aftertouch_c, 2, 47
4, 46632, Channel_aftertouch_c, 2, 48
4, 46638, Channel_aftertouch_c, 2, 49
4, 46644, Channel_aftertouch_c, 2, 50
4, 46652, Channel_aftertouch_c, 2, 51
4, 46654, Channel_aftertouch_c, 2, 52
4, 46660, Channel_aftertouch_c, 2, 53
4, 46666, Channel_aftertouch_c, 2, 54
4, 46672, Channel_aftertouch_c, 2, 55
4, 46680, Channel_aftertouch_c, 2, 56
4, 46686, Channel_aftertouch_c, 2, 57
4, 46694, Channel_aftertouch_c, 2, 58
4, 46700, Channel_aftertouch_c, 2, 59
4, 46706, Channel_aftertouch_c, 2, 60
4, 46710, Channel_aftertouch_c, 2, 61
4, 46718, Channel_aftertouch_c, 2, 62
4, 46726, Channel_aftertouch_c, 2, 63
4, 46746, Channel_aftertouch_c, 2, 64
4, 46754, Channel_aftertouch_c, 2, 66
4, 46760, Channel_aftertouch_c, 2, 67
4, 46764, Channel_aftertouch_c, 2, 68
4, 46778, Channel_aftertouch_c, 2, 69
4, 46794, Channel_aftertouch_c, 2, 70
4, 46796, Channel_aftertouch_c, 2, 71
4, 46798, Channel_aftertouch_c, 2, 72
4, 46804, Channel_aftertouch_c, 2, 73
4, 46808, Channel_aftertouch_c, 2, 74
4, 46816, Channel_aftertouch_c, 2, 73
4, 46818, Channel_aftertouch_c, 2, 71
4, 46820, Channel_aftertouch_c, 2, 66
4, 46822, Channel_aftertouch_c, 2, 57
4, 46824, Channel_aftertouch_c, 2, 44
4, 46828, Channel_aftertouch_c, 2, 29
4, 46830, Note_off_c, 2, 80, 64
4, 46830, Note_off_c, 2, 89, 64
4, 46830, Channel_aftertouch_c, 2, 17
4, 46832, Note_off_c, 2, 77, 64
4, 46832, Channel_aftertouch_c, 2, 7
4, 46834, Note_off_c, 2, 84, 64
4, 46836, Channel_aftertouch_c, 2, 2
4, 46838, Channel_aftertouch_c, 2, 0
4, 46840, Channel_aftertouch_c, 2, 0
4, 46848, Channel_aftertouch_c, 2, 7
4, 46852, Channel_aftertouch_c, 2, 3
4, 46852, Note_on_c, 2, 90, 54
4, 46852, Note_on_c, 2, 87, 56
4, 46854, Channel_aftertouch_c, 2, 0
4, 46854, Note_on_c, 2, 82, 73
4, 46858, Channel_aftertouch_c, 2, 0
4, 46860, Note_on_c, 2, 91, 82
4, 46870, Note_off_c, 2, 90, 64
4, 47220, Note_off_c, 2, 82, 64
4, 47222, Note_off_c, 2, 87, 64
4, 47222, Note_off_c, 2, 91, 64
4, 47232, Note_on_c, 2, 87, 62
4, 47234, Note_on_c, 2, 92, 68
4, 47234, Note_on_c, 2, 82, 81
4, 47430, Note_off_c, 2, 92, 64
4, 47430, Note_on_c, 2, 91, 70
4, 47584, Note_off_c, 2, 82, 64
4, 47594, Note_off_c, 2, 87, 64
4, 47602, Note_on_c, 2, 82, 71
4, 47610, Note_off_c, 2, 91, 64
4, 47614, Note_on_c, 2, 86, 70
4, 47620, Note_on_c, 2, 89, 66
4, 47960, Note_off_c, 2, 86, 64
4, 47974, Note_off_c, 2, 89, 64
4, 47986, Channel_aftertouch_c, 2, 0
4, 47990, Note_on_c, 2, 84, 65
4, 47992, Note_on_c, 2, 83, 53
4, 47996, Note_off_c, 2, 83, 64
4, 47998, Channel_aftertouch_c, 2, 0
4, 47998, Note_on_c, 2, 87, 64
4, 48364, Note_off_c, 2, 82, 64
4, 48370, Note_off_c, 2, 84, 64
4, 48370, Note_off_c, 2, 87, 64
4, 48380, Note_on_c, 2, 84, 83
4, 48382, Note_on_c, 2, 87, 56
4, 48382, Note_on_c, 2, 80, 75
4, 48740, Note_off_c, 2, 80, 64
4, 48744, Note_off_c, 2, 84, 64
4, 48756, Note_off_c, 2, 87, 64
4, 48756, Note_on_c, 2, 79, 67
4, 48766, Note_on_c, 2, 82, 68
4, 48772, Note_on_c, 2, 86, 64
4, 49100, Note_off_c, 2, 79, 64
4, 49118, Note_off_c, 2, 82, 64
4, 49122, Note_off_c, 2, 86, 64
4, 49122, Note_on_c, 2, 77, 72
4, 49140, Note_on_c, 2, 80, 68
4, 49148, Note_on_c, 2, 84, 78
4, 49536, Note_on_c, 2, 89, 86
4, 49544, Channel_aftertouch_c, 2, 0
4, 49546, Channel_aftertouch_c, 2, 1
4, 49560, Channel_aftertouch_c, 2, 2
4, 49564, Channel_aftertouch_c, 2, 3
4, 49566, Channel_aftertouch_c, 2, 4
4, 49568, Channel_aftertouch_c, 2, 5
4, 49570, Channel_aftertouch_c, 2, 6
4, 49574, Channel_aftertouch_c, 2, 7
4, 49576, Channel_aftertouch_c, 2, 8
4, 49578, Channel_aftertouch_c, 2, 9
4, 49580, Channel_aftertouch_c, 2, 10
4, 49582, Channel_aftertouch_c, 2, 11
4, 49584, Channel_aftertouch_c, 2, 13
4, 49586, Channel_aftertouch_c, 2, 14
4, 49588, Channel_aftertouch_c, 2, 15
4, 49590, Channel_aftertouch_c, 2, 17
4, 49594, Channel_aftertouch_c, 2, 18
4, 49596, Channel_aftertouch_c, 2, 19
4, 49598, Channel_aftertouch_c, 2, 20
4, 49600, Channel_aftertouch_c, 2, 21
4, 49602, Channel_aftertouch_c, 2, 22
4, 49604, Channel_aftertouch_c, 2, 23
4, 49606, Channel_aftertouch_c, 2, 24
4, 49610, Channel_aftertouch_c, 2, 25
4, 49612, Channel_aftertouch_c, 2, 26
4, 49616, Channel_aftertouch_c, 2, 27
4, 49620, Channel_aftertouch_c, 2, 28
4, 49624, Channel_aftertouch_c, 2, 29
4, 49626, Channel_aftertouch_c, 2, 30
4, 49628, Channel_aftertouch_c, 2, 31
4, 49632, Channel_aftertouch_c, 2, 33
4, 49636, Channel_aftertouch_c, 2, 34
4, 49640, Channel_aftertouch_c, 2, 35
4, 49644, Channel_aftertouch_c, 2, 36
4, 49650, Channel_aftertouch_c, 2, 37
4, 49654, Channel_aftertouch_c, 2, 38
4, 49656, Channel_aftertouch_c, 2, 39
4, 49660, Channel_aftertouch_c, 2, 40
4, 49666, Channel_aftertouch_c, 2, 41
4, 49674, Channel_aftertouch_c, 2, 42
4, 49680, Channel_aftertouch_c, 2, 43
4, 49686, Channel_aftertouch_c, 2, 44
4, 49690, Channel_aftertouch_c, 2, 45
4, 49696, Channel_aftertouch_c, 2, 46
4, 49700, Channel_aftertouch_c, 2, 47
4, 49704, Channel_aftertouch_c, 2, 48
4, 49710, Channel_aftertouch_c, 2, 49
4, 49716, Channel_aftertouch_c, 2, 50
4, 49724, Channel_aftertouch_c, 2, 51
4, 49726, Channel_aftertouch_c, 2, 52
4, 49732, Channel_aftertouch_c, 2, 53
4, 49738, Channel_aftertouch_c, 2, 54
4, 49744, Channel_aftertouch_c, 2, 55
4, 49752, Channel_aftertouch_c, 2, 56
4, 49758, Channel_aftertouch_c, 2, 57
4, 49766, Channel_aftertouch_c, 2, 58
4, 49772, Channel_aftertouch_c, 2, 59
4, 49778, Channel_aftertouch_c, 2, 60
4, 49782, Channel_aftertouch_c, 2, 61
4, 49790, Channel_aftertouch_c, 2, 62
4, 49798, Channel_aftertouch_c, 2, 63
4, 49818, Channel_aftertouch_c, 2, 64
4, 49826, Channel_aftertouch_c, 2, 66
4, 49832, Channel_aftertouch_c, 2, 67
4, 49836, Channel_aftertouch_c, 2, 68
4, 49850, Channel_aftertouch_c, 2, 69
4, 49866, Channel_aftertouch_c, 2, 70
4, 49868, Channel_aftertouch_c, 2, 71
4, 49870, Channel_aftertouch_c, 2, 72
4, 49876, Channel_aftertouch_c, 2, 73
4, 49880, Channel_aftertouch_c, 2, 74
4, 49888, Channel_aftertouch_c, 2, 73
4, 49890, Channel_aftertouch_c, 2, 71
4, 49892, Channel_aftertouch_c, 2, 66
4, 49894, Channel_aftertouch_c, 2, 57
4, 49896, Channel_aftertouch_c, 2, 44
4, 49900, Channel_aftertouch_c, 2, 29
4, 49902, Note_off_c, 2, 80, 64
4, 49902, Note_off_c, 2, 89, 64
4, 49902, Channel_aftertouch_c, 2, 17
4, 49904, Note_off_c, 2, 77, 64
4, 49904, Channel_aftertouch_c, 2, 7
4, 49906, Note_off_c, 2, 84, 64
4, 49908, Channel_aftertouch_c, 2, 2
4, 49910, Channel_aftertouch_c, 2, 0
4, 49912, Channel_aftertouch_c, 2, 0
4, 49920, Channel_aftertouch_c, 2, 7
4, 49924, Channel_aftertouch_c, 2, 3
4, 49924, Note_on_c, 2, 90, 54
4, 49924, Note_on_c, 2, 87, 56
4, 49926, Channel_aftertouch_c, 2, 0
4, 49926, Note_on_c, 2, 82, 73
4, 49930, Channel_aftertouch_c, 2, 0
4, 49932, Note_on_c, 2, 91, 82
4, 49942, Note_off_c, 2, 90, 64
4, 50292, Note_off_c, 2, 82, 64
4, 50294, Note_off_c, 2, 87, 64
4, 50294, Note_off_c, 2, 91, 64
4, 50304, Note_on_c, 2, 87, 62
4, 50306, Note_on_c, 2, 92, 68
4, 50306, Note_on_c, 2, 82, 81
4, 50502, Note_off_c, 2, 92, 64
4, 50502, Note_on_c, 2, 91, 70
4, 50656, Note_off_c, 2, 82, 64
4, 50666, Note_off_c, 2, 87, 64
4, 50674, Note_on_c, 2, 82, 71
4, 50682, Note_off_c, 2, 91, 64
4, 50686, Note_on_c, 2, 86, 70
4, 50692, Note_on_c, 2, 89, 66
4, 51032, Note_off_c, 2, 86, 64
4, 51046, Note_off_c, 2, 89, 64
4, 51058, Channel_aftertouch_c, 2, 0
4, 51062, Note_on_c, 2, 84, 65
4, 51064, Note_on_c, 2, 83, 53
4, 51068, Note_off_c, 2, 83, 64
4, 51070, Channel_aftertouch_c, 2, 0
4, 51070, Note_on_c, 2, 87, 64
4, 51436, Note_off_c, 2, 82, 64
4, 51442, Note_off_c, 2, 84, 64
4, 51442, Note_off_c, 2, 87, 64
4, 51452, Note_on_c, 2, 84, 83
4, 51454, Note_on_c, 2, 87, 56
4, 51454, Note_on_c, 2, 80, 75
4, 51812, Note_off_c, 2, 80, 64
4, 51816, Note_off_c, 2, 84, 64
4, 51828, Note_off_c, 2, 87, 64
4, 51828, Note_on_c, 2, 79, 67
4, 51838, Note_on_c, 2, 82, 68
4, 51844, Note_on_c, 2, 86, 64
4, 52172, Note_off_c, 2, 79, 64
4, 52190, Note_off_c, 2, 82, 64
4, 52194, Note_off_c, 2, 86, 64
4, 52194, Note_on_c, 2, 77, 72
4, 52212, Note_on_c, 2, 80, 68
4, 52220, Note_on_c, 2, 84, 78
4, 52608, Note_on_c, 2, 89, 86
4, 52616, Channel_aftertouch_c, 2, 0
4, 52618, Channel_aftertouch_c, 2, 1
4, 52632, Channel_aftertouch_c, 2, 2
4, 52636, Channel_aftertouch_c, 2, 3
4, 52638, Channel_aftertouch_c, 2, 4
4, 52640, Channel_aftertouch_c, 2, 5
4, 52642, Channel_aftertouch_c, 2, 6
4, 52646, Channel_aftertouch_c, 2, 7
4, 52648, Channel_aftertouch_c, 2, 8
4, 52650, Channel_aftertouch_c, 2, 9
4, 52652, Channel_aftertouch_c, 2, 10
4, 52654, Channel_aftertouch_c, 2, 11
4, 52656, Channel_aftertouch_c, 2, 13
4, 52658, Channel_aftertouch_c, 2, 14
4, 52660, Channel_aftertouch_c, 2, 15
4, 52662, Channel_aftertouch_c, 2, 17
4, 52666, Channel_aftertouch_c, 2, 18
4, 52668, Channel_aftertouch_c, 2, 19
4, 52670, Channel_aftertouch_c, 2, 20
4, 52672, Channel_aftertouch_c, 2, 21
4, 52674, Channel_aftertouch_c, 2, 22
4, 52676, Channel_aftertouch_c, 2, 23
4, 52678, Channel_aftertouch_c, 2, 24
4, 52682, Channel_aftertouch_c, 2, 25
4, 52684, Channel_aftertouch_c, 2, 26
4, 52688, Channel_aftertouch_c, 2, 27
4, 52692, Channel_aftertouch_c, 2, 28
4, 52696, Channel_aftertouch_c, 2, 29
4, 52698, Channel_aftertouch_c, 2, 30
4, 52700, Channel_aftertouch_c, 2, 31
4, 52704, Channel_aftertouch_c, 2, 33
4, 52708, Channel_aftertouch_c, 2, 34
4, 52712, Channel_aftertouch_c, 2, 35
4, 52716, Channel_aftertouch_c, 2, 36
4, 52722, Channel_aftertouch_c, 2, 37
4, 52726, Channel_aftertouch_c, 2, 38
4, 52728, Channel_aftertouch_c, 2, 39
4, 52732, Channel_aftertouch_c, 2, 40
4, 52738, Channel_aftertouch_c, 2, 41
4, 52746, Channel_aftertouch_c, 2, 42
4, 52752, Channel_aftertouch_c, 2, 43
4, 52758, Channel_aftertouch_c, 2, 44
4, 52762, Channel_aftertouch_c, 2, 45
4, 52768, Channel_aftertouch_c, 2, 46
4, 52772, Channel_aftertouch_c, 2, 47
4, 52776, Channel_aftertouch_c, 2, 48
4, 52782, Channel_aftertouch_c, 2, 49
4, 52788, Channel_aftertouch_c, 2, 50
4, 52796, Channel_aftertouch_c, 2, 51
4, 52798, Channel_aftertouch_c, 2, 52
4, 52804, Channel_aftertouch_c, 2, 53
4, 52810, Channel_aftertouch_c, 2, 54
4, 52816, Channel_aftertouch_c, 2, 55
4, 52824, Channel_aftertouch_c, 2, 56
4, 52830, Channel_aftertouch_c, 2, 57
4, 52838, Channel_aftertouch_c, 2, 58
4, 52844, Channel_aftertouch_c, 2, 59
4, 52850, Channel_aftertouch_c, 2, 60
4, 52854, Channel_aftertouch_c, 2, 61
4, 52862, Channel_aftertouch_c, 2, 62
4, 52870, Channel_aftertouch_c, 2, 63
4, 52890, Channel_aftertouch_c, 2, 64
4, 52898, Channel_aftertouch_c, 2, 66
4, 52904, Channel_aftertouch_c, 2, 67
4, 52908, Channel_aftertouch_c, 2, 68
4, 52922, Channel_aftertouch_c, 2, 69
4, 52938, Channel_aftertouch_c, 2, 70
4, 52940, Channel_aftertouch_c, 2, 71
4, 52942, Channel_aftertouch_c, 2, 72
4, 52948, Channel_aftertouch_c, 2, 73
4, 52952, Channel_aftertouch_c, 2, 74
4, 52960, Channel_aftertouch_c, 2, 73
4, 52962, Channel_aftertouch_c, 2, 71
4, 52964, Channel_aftertouch_c, 2, 66
4, 52966, Channel_aftertouch_c, 2, 57
4, 52968, Channel_aftertouch_c, 2, 44
4, 52972, Channel_aftertouch_c, 2, 29
4, 52974, Note_off_c, 2, 80, 64
4, 52974, Note_off_c, 2, 89, 64
4, 52974, Channel_aftertouch_c, 2, 17
4, 52976, Note_off_c, 2, 77, 64
4, 52976, Channel_aftertouch_c, 2, 7
4, 52978, Note_off_c, 2, 84, 64
4, 52980, Channel_aftertouch_c, 2, 2
4, 52982, Channel_aftertouch_c, 2, 0
4, 52984, Channel_aftertouch_c, 2, 0
4, 52992, Note_on_c, 2, 82, 79
4, 52992, Note_on_c, 2, 79, 71
4, 52992, Note_on_c, 2, 75, 52
4, 52994, Note_on_c, 2, 87, 73
4, 53010, Channel_aftertouch_c, 2, 0
4, 53028, Channel_aftertouch_c, 2, 0
4, 53138, Channel_aftertouch_c, 2, 0
4, 53170, Channel_aftertouch_c, 2, 0
4, 53218, Channel_aftertouch_c, 2, 1
4, 53288, Channel_aftertouch_c, 2, 2
4, 53378, Channel_aftertouch_c, 2, 1
4, 53520, Channel_aftertouch_c, 2, 0
4, 53684, Channel_aftertouch_c, 2, 0
4, 53686, Channel_aftertouch_c, 2, 0
4, 53698, Note_off_c, 2, 79, 64
4, 53704, Note_off_c, 2, 87, 64
4, 53706, Note_off_c, 2, 82, 64
4, 53708, Note_off_c, 2, 75, 64
4, 53712, Control_c, 2, 7, 127
4, 53712, End_track
5, 0, Start_track
5, 0, MIDI_port, 0
5, 0, Title_t, "Bass                "
5, 0, Program_c, 3, 33
5, 144, Control_c, 3, 7, 127
5, 578, Note_on_c, 3, 46, 104
5, 636, Note_off_c, 3, 46, 64
5, 646, Note_on_c, 3, 48, 94
5, 696, Note_off_c, 3, 48, 64
5, 706, Note_on_c, 3, 50, 97
5, 756, Note_off_c, 3, 50, 64
5, 772, Note_on_c, 3, 51, 104
5, 778, Channel_aftertouch_c, 3, 0
5, 786, Channel_aftertouch_c, 3, 0
5, 1082, Note_off_c, 3, 51, 64
5, 1088, Note_on_c, 3, 46, 100
5, 1148, Note_off_c, 3, 46, 64
5, 1152, Note_on_c, 3, 51, 96
5, 1470, Note_off_c, 3, 51, 64
5, 1470, Note_on_c, 3, 46, 92
5, 1534, Note_off_c, 3, 46, 64
5, 1538, Note_on_c, 3, 48, 104
5, 1550, Channel_aftertouch_c, 3, 0
5, 1556, Channel_aftertouch_c, 3, 0
5, 1850, Note_off_c, 3, 48, 64
5, 1856, Note_on_c, 3, 43, 94
5, 1914, Note_off_c, 3, 43, 64
5, 1918, Note_on_c, 3, 48, 101
5, 2142, Note_off_c, 3, 48, 64
5, 2180, Note_on_c, 3, 48, 107
5, 2228, Note_off_c, 3, 48, 64
5, 2240, Note_on_c, 3, 46, 104
5, 2296, Note_off_c, 3, 46, 64
5, 2306, Note_on_c, 3, 44, 96
5, 2578, Note_off_c, 3, 44, 64
5, 2626, Note_on_c, 3, 44, 92
5, 2676, Note_off_c, 3, 44, 64
5, 2692, Note_on_c, 3, 43, 88
5, 2702, Channel_aftertouch_c, 3, 0
5, 2712, Channel_aftertouch_c, 3, 0
5, 2816, Note_off_c, 3, 43, 64
5, 2822, Note_on_c, 3, 48, 97
5, 2944, Note_off_c, 3, 48, 64
5, 2946, Note_on_c, 3, 55, 94
5, 3002, Note_off_c, 3, 55, 64
5, 3006, Note_on_c, 3, 48, 88
5, 3064, Note_off_c, 3, 48, 64
5, 3068, Note_on_c, 3, 41, 92
5, 3080, Channel_aftertouch_c, 3, 0
5, 3092, Channel_aftertouch_c, 3, 0
5, 3302, Note_off_c, 3, 41, 64
5, 3334, Note_on_c, 3, 43, 86
5, 3376, Note_off_c, 3, 43, 64
5, 3390, Note_on_c, 3, 44, 96
5, 3442, Note_off_c, 3, 44, 64
5, 3460, Note_on_c, 3, 46, 104
5, 3624, Note_off_c, 3, 46, 64
5, 3652, Note_on_c, 3, 46, 100
5, 3708, Note_off_c, 3, 46, 64
5, 3716, Note_on_c, 3, 48, 97
5, 3766, Note_off_c, 3, 48, 64
5, 3778, Note_on_c, 3, 50, 97
5, 3818, Note_off_c, 3, 50, 64
5, 3844, Note_on_c, 3, 51, 92
5, 4146, Note_off_c, 3, 51, 64
5, 4158, Note_on_c, 3, 46, 100
5, 4218, Note_off_c, 3, 46, 64
5, 4224, Note_on_c, 3, 51, 96
5, 4524, Note_off_c, 3, 51, 64
5, 4544, Note_on_c, 3, 46, 96
5, 4604, Note_off_c, 3, 46, 64
5, 4610, Note_on_c, 3, 48, 101
5, 4912, Note_off_c, 3, 48, 64
5, 4930, Note_on_c, 3, 43, 104
5, 4984, Note_off_c, 3, 43, 64
5, 4994, Note_on_c, 3, 48, 101
5, 5210, Note_off_c, 3, 48, 64
5, 5250, Note_on_c, 3, 48, 107
5, 5300, Note_off_c, 3, 48, 64
5, 5314, Note_on_c, 3, 46, 104
5, 5360, Note_off_c, 3, 46, 64
5, 5374, Note_on_c, 3, 44, 100
5, 5674, Note_off_c, 3, 44, 64
5, 5758, Note_on_c, 3, 43, 92
5, 5880, Note_off_c, 3, 43, 64
5, 5884, Note_on_c, 3, 48, 97
5, 6008, Note_off_c, 3, 48, 64
5, 6014, Note_on_c, 3, 55, 101
5, 6068, Note_off_c, 3, 55, 64
5, 6076, Note_on_c, 3, 48, 94
5, 6134, Note_off_c, 3, 48, 64
5, 6140, Note_on_c, 3, 41, 94
5, 6152, Channel_aftertouch_c, 3, 0
5, 6160, Channel_aftertouch_c, 3, 0
5, 6378, Note_off_c, 3, 41, 64
5, 6398, Note_on_c, 3, 43, 82
5, 6452, Note_off_c, 3, 43, 64
5, 6460, Note_on_c, 3, 44, 92
5, 6518, Note_off_c, 3, 44, 64
5, 6528, Note_on_c, 3, 46, 104
5, 6690, Note_off_c, 3, 46, 64
5, 6720, Note_on_c, 3, 46, 104
5, 6774, Note_off_c, 3, 46, 64
5, 6782, Note_on_c, 3, 48, 97
5, 6832, Note_off_c, 3, 48, 64
5, 6844, Note_on_c, 3, 50, 104
5, 6852, Channel_aftertouch_c, 3, 0
5, 6854, Channel_aftertouch_c, 3, 1
5, 6856, Channel_aftertouch_c, 3, 2
5, 6870, Channel_aftertouch_c, 3, 3
5, 6880, Channel_aftertouch_c, 3, 2
5, 6882, Channel_aftertouch_c, 3, 0
5, 6884, Channel_aftertouch_c, 3, 0
5, 6886, Note_off_c, 3, 50, 64
5, 6916, Note_on_c, 3, 51, 104
5, 6922, Channel_aftertouch_c, 3, 0
5, 6930, Channel_aftertouch_c, 3, 0
5, 7226, Note_off_c, 3, 51, 64
5, 7232, Note_on_c, 3, 46, 100
5, 7292, Note_off_c, 3, 46, 64
5, 7296, Note_on_c, 3, 51, 96
5, 7614, Note_off_c, 3, 51, 64
5, 7614, Note_on_c, 3, 46, 92
5, 7678, Note_off_c, 3, 46, 64
5, 7682, Note_on_c, 3, 48, 104
5, 7694, Channel_aftertouch_c, 3, 0
5, 7700, Channel_aftertouch_c, 3, 0
5, 7994, Note_off_c, 3, 48, 64
5, 8000, Note_on_c, 3, 43, 94
5, 8058, Note_off_c, 3, 43, 64
5, 8062, Note_on_c, 3, 48, 101
5, 8286, Note_off_c, 3, 48, 64
5, 8324, Note_on_c, 3, 48, 107
5, 8372, Note_off_c, 3, 48, 64
5, 8384, Note_on_c, 3, 46, 104
5, 8440, Note_off_c, 3, 46, 64
5, 8450, Note_on_c, 3, 44, 96
5, 8722, Note_off_c, 3, 44, 64
5, 8770, Note_on_c, 3, 44, 92
5, 8820, Note_off_c, 3, 44, 64
5, 8836, Note_on_c, 3, 43, 88
5, 8846, Channel_aftertouch_c, 3, 0
5, 8856, Channel_aftertouch_c, 3, 0
5, 8960, Note_off_c, 3, 43, 64
5, 8966, Note_on_c, 3, 48, 97
5, 9088, Note_off_c, 3, 48, 64
5, 9090, Note_on_c, 3, 55, 94
5, 9146, Note_off_c, 3, 55, 64
5, 9150, Note_on_c, 3, 48, 88
5, 9208, Note_off_c, 3, 48, 64
5, 9212, Note_on_c, 3, 41, 92
5, 9224, Channel_aftertouch_c, 3, 0
5, 9236, Channel_aftertouch_c, 3, 0
5, 9446, Note_off_c, 3, 41, 64
5, 9478, Note_on_c, 3, 43, 86
5, 9520, Note_off_c, 3, 43, 64
5, 9534, Note_on_c, 3, 44, 96
5, 9586, Note_off_c, 3, 44, 64
5, 9604, Note_on_c, 3, 46, 104
5, 9768, Note_off_c, 3, 46, 64
5, 9796, Note_on_c, 3, 46, 100
5, 9852, Note_off_c, 3, 46, 64
5, 9860, Note_on_c, 3, 48, 97
5, 9910, Note_off_c, 3, 48, 64
5, 9922, Note_on_c, 3, 50, 97
5, 9962, Note_off_c, 3, 50, 64
5, 9988, Note_on_c, 3, 51, 92
5, 10290, Note_off_c, 3, 51, 64
5, 10302, Note_on_c, 3, 46, 100
5, 10362, Note_off_c, 3, 46, 64
5, 10368, Note_on_c, 3, 51, 96
5, 10668, Note_off_c, 3, 51, 64
5, 10688, Note_on_c, 3, 46, 96
5, 10748, Note_off_c, 3, 46, 64
5, 10754, Note_on_c, 3, 48, 101
5, 11056, Note_off_c, 3, 48, 64
5, 11074, Note_on_c, 3, 43, 104
5, 11128, Note_off_c, 3, 43, 64
5, 11138, Note_on_c, 3, 48, 101
5, 11354, Note_off_c, 3, 48, 64
5, 11394, Note_on_c, 3, 48, 107
5, 11444, Note_off_c, 3, 48, 64
5, 11458, Note_on_c, 3, 46, 104
5, 11504, Note_off_c, 3, 46, 64
5, 11518, Note_on_c, 3, 44, 100
5, 11818, Note_off_c, 3, 44, 64
5, 11902, Note_on_c, 3, 43, 92
5, 12024, Note_off_c, 3, 43, 64
5, 12028, Note_on_c, 3, 48, 97
5, 12152, Note_off_c, 3, 48, 64
5, 12158, Note_on_c, 3, 55, 101
5, 12212, Note_off_c, 3, 55, 64
5, 12220, Note_on_c, 3, 48, 94
5, 12278, Note_off_c, 3, 48, 64
5, 12284, Note_on_c, 3, 41, 94
5, 12296, Channel_aftertouch_c, 3, 0
5, 12304, Channel_aftertouch_c, 3, 0
5, 12522, Note_off_c, 3, 41, 64
5, 12542, Note_on_c, 3, 43, 82
5, 12596, Note_off_c, 3, 43, 64
5, 12604, Note_on_c, 3, 44, 92
5, 12662, Note_off_c, 3, 44, 64
5, 12672, Note_on_c, 3, 46, 104
5, 12834, Note_off_c, 3, 46, 64
5, 12864, Note_on_c, 3, 46, 104
5, 12918, Note_off_c, 3, 46, 64
5, 12926, Note_on_c, 3, 48, 97
5, 12976, Note_off_c, 3, 48, 64
5, 12988, Note_on_c, 3, 50, 104
5, 12996, Channel_aftertouch_c, 3, 0
5, 12998, Channel_aftertouch_c, 3, 1
5, 13000, Channel_aftertouch_c, 3, 2
5, 13014, Channel_aftertouch_c, 3, 3
5, 13024, Channel_aftertouch_c, 3, 2
5, 13026, Channel_aftertouch_c, 3, 0
5, 13028, Channel_aftertouch_c, 3, 0
5, 13030, Note_off_c, 3, 50, 64
5, 13056, Note_on_c, 3, 48, 101
5, 13204, Channel_aftertouch_c, 3, 0
5, 13228, Channel_aftertouch_c, 3, 0
5, 13328, Channel_aftertouch_c, 3, 0
5, 13348, Note_off_c, 3, 48, 64
5, 13378, Note_on_c, 3, 48, 101
5, 13428, Note_off_c, 3, 48, 64
5, 13438, Note_on_c, 3, 47, 99
5, 13736, Note_off_c, 3, 47, 64
5, 13766, Note_on_c, 3, 47, 99
5, 13816, Note_off_c, 3, 47, 64
5, 13826, Note_on_c, 3, 46, 109
5, 14108, Note_off_c, 3, 46, 64
5, 14146, Note_on_c, 3, 46, 100
5, 14200, Note_off_c, 3, 46, 64
5, 14208, Note_on_c, 3, 45, 90
5, 14216, Channel_aftertouch_c, 3, 1
5, 14218, Channel_aftertouch_c, 3, 2
5, 14226, Channel_aftertouch_c, 3, 0
5, 14228, Channel_aftertouch_c, 3, 0
5, 14352, Channel_aftertouch_c, 3, 0
5, 14374, Channel_aftertouch_c, 3, 1
5, 14394, Channel_aftertouch_c, 3, 2
5, 14410, Channel_aftertouch_c, 3, 3
5, 14468, Channel_aftertouch_c, 3, 2
5, 14472, Channel_aftertouch_c, 3, 1
5, 14476, Channel_aftertouch_c, 3, 0
5, 14478, Channel_aftertouch_c, 3, 0
5, 14496, Note_off_c, 3, 45, 64
5, 14530, Note_on_c, 3, 45, 90
5, 14540, Channel_aftertouch_c, 3, 0
5, 14546, Channel_aftertouch_c, 3, 0
5, 14584, Note_off_c, 3, 45, 64
5, 14590, Note_on_c, 3, 44, 104
5, 14868, Note_off_c, 3, 44, 64
5, 14910, Note_on_c, 3, 44, 100
5, 14954, Note_off_c, 3, 44, 64
5, 14972, Note_on_c, 3, 43, 90
5, 14980, Channel_aftertouch_c, 3, 0
5, 14984, Channel_aftertouch_c, 3, 1
5, 14992, Channel_aftertouch_c, 3, 0
5, 14994, Channel_aftertouch_c, 3, 0
5, 15172, Channel_aftertouch_c, 3, 0
5, 15232, Channel_aftertouch_c, 3, 0
5, 15262, Note_off_c, 3, 43, 64
5, 15296, Note_on_c, 3, 43, 92
5, 15348, Note_off_c, 3, 43, 64
5, 15356, Note_on_c, 3, 41, 94
5, 15368, Channel_aftertouch_c, 3, 0
5, 15378, Channel_aftertouch_c, 3, 0
5, 15534, Channel_aftertouch_c, 3, 0
5, 15574, Channel_aftertouch_c, 3, 0
5, 15588, Note_off_c, 3, 41, 64
5, 15616, Note_on_c, 3, 43, 97
5, 15652, Note_off_c, 3, 43, 64
5, 15676, Note_on_c, 3, 44, 92
5, 15714, Note_off_c, 3, 44, 64
5, 15742, Note_on_c, 3, 46, 104
5, 15914, Note_off_c, 3, 46, 64
5, 15942, Note_on_c, 3, 46, 100
5, 15990, Note_off_c, 3, 46, 64
5, 15996, Note_on_c, 3, 48, 94
5, 16044, Note_off_c, 3, 48, 64
5, 16058, Note_on_c, 3, 50, 101
5, 16066, Channel_aftertouch_c, 3, 0
5, 16068, Channel_aftertouch_c, 3, 2
5, 16070, Channel_aftertouch_c, 3, 3
5, 16072, Channel_aftertouch_c, 3, 4
5, 16084, Channel_aftertouch_c, 3, 5
5, 16086, Channel_aftertouch_c, 3, 6
5, 16088, Channel_aftertouch_c, 3, 7
5, 16096, Channel_aftertouch_c, 3, 6
5, 16098, Channel_aftertouch_c, 3, 5
5, 16100, Channel_aftertouch_c, 3, 3
5, 16102, Channel_aftertouch_c, 3, 0
5, 16104, Note_off_c, 3, 50, 64
5, 16104, Channel_aftertouch_c, 3, 0
5, 16132, Note_on_c, 3, 51, 92
5, 16434, Note_off_c, 3, 51, 64
5, 16446, Note_on_c, 3, 46, 100
5, 16506, Note_off_c, 3, 46, 64
5, 16512, Note_on_c, 3, 51, 96
5, 16812, Note_off_c, 3, 51, 64
5, 16832, Note_on_c, 3, 46, 96
5, 16892, Note_off_c, 3, 46, 64
5, 16898, Note_on_c, 3, 48, 101
5, 17200, Note_off_c, 3, 48, 64
5, 17218, Note_on_c, 3, 43, 104
5, 17272, Note_off_c, 3, 43, 64
5, 17282, Note_on_c, 3, 48, 101
5, 17498, Note_off_c, 3, 48, 64
5, 17538, Note_on_c, 3, 48, 107
5, 17588, Note_off_c, 3, 48, 64
5, 17602, Note_on_c, 3, 46, 104
5, 17648, Note_off_c, 3, 46, 64
5, 17662, Note_on_c, 3, 44, 100
5, 17962, Note_off_c, 3, 44, 64
5, 18046, Note_on_c, 3, 43, 92
5, 18168, Note_off_c, 3, 43, 64
5, 18172, Note_on_c, 3, 48, 97
5, 18296, Note_off_c, 3, 48, 64
5, 18302, Note_on_c, 3, 55, 101
5, 18356, Note_off_c, 3, 55, 64
5, 18364, Note_on_c, 3, 48, 94
5, 18422, Note_off_c, 3, 48, 64
5, 18428, Note_on_c, 3, 41, 94
5, 18440, Channel_aftertouch_c, 3, 0
5, 18448, Channel_aftertouch_c, 3, 0
5, 18666, Note_off_c, 3, 41, 64
5, 18686, Note_on_c, 3, 43, 82
5, 18740, Note_off_c, 3, 43, 64
5, 18748, Note_on_c, 3, 44, 92
5, 18806, Note_off_c, 3, 44, 64
5, 18816, Note_on_c, 3, 46, 104
5, 18978, Note_off_c, 3, 46, 64
5, 19008, Note_on_c, 3, 46, 104
5, 19062, Note_off_c, 3, 46, 64
5, 19070, Note_on_c, 3, 48, 97
5, 19120, Note_off_c, 3, 48, 64
5, 19132, Note_on_c, 3, 50, 104
5, 19140, Channel_aftertouch_c, 3, 0
5, 19142, Channel_aftertouch_c, 3, 1
5, 19144, Channel_aftertouch_c, 3, 2
5, 19158, Channel_aftertouch_c, 3, 3
5, 19168, Channel_aftertouch_c, 3, 2
5, 19170, Channel_aftertouch_c, 3, 0
5, 19172, Channel_aftertouch_c, 3, 0
5, 19174, Note_off_c, 3, 50, 64
5, 19204, Note_on_c, 3, 51, 104
5, 19210, Channel_aftertouch_c, 3, 0
5, 19218, Channel_aftertouch_c, 3, 0
5, 19514, Note_off_c, 3, 51, 64
5, 19520, Note_on_c, 3, 46, 100
5, 19580, Note_off_c, 3, 46, 64
5, 19584, Note_on_c, 3, 51, 96
5, 19902, Note_off_c, 3, 51, 64
5, 19902, Note_on_c, 3, 46, 92
5, 19966, Note_off_c, 3, 46, 64
5, 19970, Note_on_c, 3, 48, 104
5, 19982, Channel_aftertouch_c, 3, 0
5, 19988, Channel_aftertouch_c, 3, 0
5, 20282, Note_off_c, 3, 48, 64
5, 20288, Note_on_c, 3, 43, 94
5, 20346, Note_off_c, 3, 43, 64
5, 20350, Note_on_c, 3, 48, 101
5, 20574, Note_off_c, 3, 48, 64
5, 20612, Note_on_c, 3, 48, 107
5, 20660, Note_off_c, 3, 48, 64
5, 20672, Note_on_c, 3, 46, 104
5, 20728, Note_off_c, 3, 46, 64
5, 20738, Note_on_c, 3, 44, 96
5, 21010, Note_off_c, 3, 44, 64
5, 21058, Note_on_c, 3, 44, 92
5, 21108, Note_off_c, 3, 44, 64
5, 21124, Note_on_c, 3, 43, 88
5, 21134, Channel_aftertouch_c, 3, 0
5, 21144, Channel_aftertouch_c, 3, 0
5, 21248, Note_off_c, 3, 43, 64
5, 21254, Note_on_c, 3, 48, 97
5, 21376, Note_off_c, 3, 48, 64
5, 21378, Note_on_c, 3, 55, 94
5, 21434, Note_off_c, 3, 55, 64
5, 21438, Note_on_c, 3, 48, 88
5, 21496, Note_off_c, 3, 48, 64
5, 21500, Note_on_c, 3, 41, 92
5, 21512, Channel_aftertouch_c, 3, 0
5, 21524, Channel_aftertouch_c, 3, 0
5, 21734, Note_off_c, 3, 41, 64
5, 21766, Note_on_c, 3, 43, 86
5, 21808, Note_off_c, 3, 43, 64
5, 21822, Note_on_c, 3, 44, 96
5, 21874, Note_off_c, 3, 44, 64
5, 21892, Note_on_c, 3, 46, 104
5, 22056, Note_off_c, 3, 46, 64
5, 22084, Note_on_c, 3, 46, 100
5, 22140, Note_off_c, 3, 46, 64
5, 22148, Note_on_c, 3, 48, 97
5, 22198, Note_off_c, 3, 48, 64
5, 22210, Note_on_c, 3, 50, 97
5, 22250, Note_off_c, 3, 50, 64
5, 22276, Note_on_c, 3, 51, 92
5, 22578, Note_off_c, 3, 51, 64
5, 22590, Note_on_c, 3, 46, 100
5, 22650, Note_off_c, 3, 46, 64
5, 22656, Note_on_c, 3, 51, 96
5, 22956, Note_off_c, 3, 51, 64
5, 22976, Note_on_c, 3, 46, 96
5, 23036, Note_off_c, 3, 46, 64
5, 23042, Note_on_c, 3, 48, 101
5, 23344, Note_off_c, 3, 48, 64
5, 23362, Note_on_c, 3, 43, 104
5, 23416, Note_off_c, 3, 43, 64
5, 23426, Note_on_c, 3, 48, 101
5, 23642, Note_off_c, 3, 48, 64
5, 23682, Note_on_c, 3, 48, 107
5, 23732, Note_off_c, 3, 48, 64
5, 23746, Note_on_c, 3, 46, 104
5, 23792, Note_off_c, 3, 46, 64
5, 23806, Note_on_c, 3, 44, 100
5, 24106, Note_off_c, 3, 44, 64
5, 24190, Note_on_c, 3, 43, 92
5, 24312, Note_off_c, 3, 43, 64
5, 24316, Note_on_c, 3, 48, 97
5, 24440, Note_off_c, 3, 48, 64
5, 24446, Note_on_c, 3, 55, 101
5, 24500, Note_off_c, 3, 55, 64
5, 24508, Note_on_c, 3, 48, 94
5, 24566, Note_off_c, 3, 48, 64
5, 24572, Note_on_c, 3, 41, 94
5, 24584, Channel_aftertouch_c, 3, 0
5, 24592, Channel_aftertouch_c, 3, 0
5, 24810, Note_off_c, 3, 41, 64
5, 24830, Note_on_c, 3, 43, 82
5, 24884, Note_off_c, 3, 43, 64
5, 24892, Note_on_c, 3, 44, 92
5, 24950, Note_off_c, 3, 44, 64
5, 24960, Note_on_c, 3, 46, 104
5, 25122, Note_off_c, 3, 46, 64
5, 25152, Note_on_c, 3, 46, 104
5, 25206, Note_off_c, 3, 46, 64
5, 25214, Note_on_c, 3, 48, 97
5, 25264, Note_off_c, 3, 48, 64
5, 25276, Note_on_c, 3, 50, 104
5, 25284, Channel_aftertouch_c, 3, 0
5, 25286, Channel_aftertouch_c, 3, 1
5, 25288, Channel_aftertouch_c, 3, 2
5, 25302, Channel_aftertouch_c, 3, 3
5, 25312, Channel_aftertouch_c, 3, 2
5, 25314, Channel_aftertouch_c, 3, 0
5, 25316, Channel_aftertouch_c, 3, 0
5, 25318, Note_off_c, 3, 50, 64
5, 25344, Note_on_c, 3, 48, 101
5, 25492, Channel_aftertouch_c, 3, 0
5, 25516, Channel_aftertouch_c, 3, 0
5, 25616, Channel_aftertouch_c, 3, 0
5, 25636, Note_off_c, 3, 48, 64
5, 25666, Note_on_c, 3, 48, 101
5, 25716, Note_off_c, 3, 48, 64
5, 25726, Note_on_c, 3, 47, 99
5, 26024, Note_off_c, 3, 47, 64
5, 26054, Note_on_c, 3, 47, 99
5, 26104, Note_off_c, 3, 47, 64
5, 26114, Note_on_c, 3, 46, 109
5, 26396, Note_off_c, 3, 46, 64
5, 26434, Note_on_c, 3, 46, 100
5, 26488, Note_off_c, 3, 46, 64
5, 26496, Note_on_c, 3, 45, 90
5, 26504, Channel_aftertouch_c, 3, 1
5, 26506, Channel_aftertouch_c, 3, 2
5, 26514, Channel_aftertouch_c, 3, 0
5, 26516, Channel_aftertouch_c, 3, 0
5, 26640, Channel_aftertouch_c, 3, 0
5, 26662, Channel_aftertouch_c, 3, 1
5, 26682, Channel_aftertouch_c, 3, 2
5, 26698, Channel_aftertouch_c, 3, 3
5, 26756, Channel_aftertouch_c, 3, 2
5, 26760, Channel_aftertouch_c, 3, 1
5, 26764, Channel_aftertouch_c, 3, 0
5, 26766, Channel_aftertouch_c, 3, 0
5, 26784, Note_off_c, 3, 45, 64
5, 26818, Note_on_c, 3, 45, 90
5, 26828, Channel_aftertouch_c, 3, 0
5, 26834, Channel_aftertouch_c, 3, 0
5, 26872, Note_off_c, 3, 45, 64
5, 26878, Note_on_c, 3, 44, 104
5, 27156, Note_off_c, 3, 44, 64
5, 27198, Note_on_c, 3, 44, 100
5, 27242, Note_off_c, 3, 44, 64
5, 27260, Note_on_c, 3, 43, 90
5, 27268, Channel_aftertouch_c, 3, 0
5, 27272, Channel_aftertouch_c, 3, 1
5, 27280, Channel_aftertouch_c, 3, 0
5, 27282, Channel_aftertouch_c, 3, 0
5, 27460, Channel_aftertouch_c, 3, 0
5, 27520, Channel_aftertouch_c, 3, 0
5, 27550, Note_off_c, 3, 43, 64
5, 27584, Note_on_c, 3, 43, 92
5, 27636, Note_off_c, 3, 43, 64
5, 27644, Note_on_c, 3, 41, 94
5, 27656, Channel_aftertouch_c, 3, 0
5, 27666, Channel_aftertouch_c, 3, 0
5, 27822, Channel_aftertouch_c, 3, 0
5, 27862, Channel_aftertouch_c, 3, 0
5, 27876, Note_off_c, 3, 41, 64
5, 27904, Note_on_c, 3, 43, 97
5, 27940, Note_off_c, 3, 43, 64
5, 27964, Note_on_c, 3, 44, 92
5, 28002, Note_off_c, 3, 44, 64
5, 28030, Note_on_c, 3, 46, 104
5, 28202, Note_off_c, 3, 46, 64
5, 28230, Note_on_c, 3, 46, 100
5, 28278, Note_off_c, 3, 46, 64
5, 28284, Note_on_c, 3, 48, 94
5, 28332, Note_off_c, 3, 48, 64
5, 28346, Note_on_c, 3, 50, 101
5, 28354, Channel_aftertouch_c, 3, 0
5, 28356, Channel_aftertouch_c, 3, 2
5, 28358, Channel_aftertouch_c, 3, 3
5, 28360, Channel_aftertouch_c, 3, 4
5, 28372, Channel_aftertouch_c, 3, 5
5, 28374, Channel_aftertouch_c, 3, 6
5, 28376, Channel_aftertouch_c, 3, 7
5, 28384, Channel_aftertouch_c, 3, 6
5, 28386, Channel_aftertouch_c, 3, 5
5, 28388, Channel_aftertouch_c, 3, 3
5, 28390, Channel_aftertouch_c, 3, 0
5, 28392, Note_off_c, 3, 50, 64
5, 28392, Channel_aftertouch_c, 3, 0
5, 28420, Note_on_c, 3, 51, 92
5, 28722, Note_off_c, 3, 51, 64
5, 28734, Note_on_c, 3, 46, 100
5, 28794, Note_off_c, 3, 46, 64
5, 28800, Note_on_c, 3, 51, 96
5, 29100, Note_off_c, 3, 51, 64
5, 29120, Note_on_c, 3, 46, 96
5, 29180, Note_off_c, 3, 46, 64
5, 29186, Note_on_c, 3, 48, 101
5, 29488, Note_off_c, 3, 48, 64
5, 29506, Note_on_c, 3, 43, 104
5, 29560, Note_off_c, 3, 43, 64
5, 29570, Note_on_c, 3, 48, 101
5, 29786, Note_off_c, 3, 48, 64
5, 29826, Note_on_c, 3, 48, 107
5, 29876, Note_off_c, 3, 48, 64
5, 29890, Note_on_c, 3, 46, 104
5, 29936, Note_off_c, 3, 46, 64
5, 29950, Note_on_c, 3, 44, 100
5, 30250, Note_off_c, 3, 44, 64
5, 30334, Note_on_c, 3, 43, 92
5, 30456, Note_off_c, 3, 43, 64
5, 30460, Note_on_c, 3, 48, 97
5, 30584, Note_off_c, 3, 48, 64
5, 30590, Note_on_c, 3, 55, 101
5, 30644, Note_off_c, 3, 55, 64
5, 30652, Note_on_c, 3, 48, 94
5, 30710, Note_off_c, 3, 48, 64
5, 30716, Note_on_c, 3, 41, 94
5, 30728, Channel_aftertouch_c, 3, 0
5, 30736, Channel_aftertouch_c, 3, 0
5, 30954, Note_off_c, 3, 41, 64
5, 30974, Note_on_c, 3, 43, 82
5, 31028, Note_off_c, 3, 43, 64
5, 31036, Note_on_c, 3, 44, 92
5, 31094, Note_off_c, 3, 44, 64
5, 31104, Note_on_c, 3, 46, 104
5, 31266, Note_off_c, 3, 46, 64
5, 31296, Note_on_c, 3, 46, 104
5, 31350, Note_off_c, 3, 46, 64
5, 31358, Note_on_c, 3, 48, 97
5, 31408, Note_off_c, 3, 48, 64
5, 31420, Note_on_c, 3, 50, 104
5, 31428, Channel_aftertouch_c, 3, 0
5, 31430, Channel_aftertouch_c, 3, 1
5, 31432, Channel_aftertouch_c, 3, 2
5, 31446, Channel_aftertouch_c, 3, 3
5, 31456, Channel_aftertouch_c, 3, 2
5, 31458, Channel_aftertouch_c, 3, 0
5, 31460, Channel_aftertouch_c, 3, 0
5, 31462, Note_off_c, 3, 50, 64
5, 31492, Note_on_c, 3, 51, 104
5, 31498, Channel_aftertouch_c, 3, 0
5, 31506, Channel_aftertouch_c, 3, 0
5, 31802, Note_off_c, 3, 51, 64
5, 31808, Note_on_c, 3, 46, 100
5, 31868, Note_off_c, 3, 46, 64
5, 31872, Note_on_c, 3, 51, 96
5, 32190, Note_off_c, 3, 51, 64
5, 32190, Note_on_c, 3, 46, 92
5, 32254, Note_off_c, 3, 46, 64
5, 32258, Note_on_c, 3, 48, 104
5, 32270, Channel_aftertouch_c, 3, 0
5, 32276, Channel_aftertouch_c, 3, 0
5, 32570, Note_off_c, 3, 48, 64
5, 32576, Note_on_c, 3, 43, 94
5, 32634, Note_off_c, 3, 43, 64
5, 32638, Note_on_c, 3, 48, 101
5, 32862, Note_off_c, 3, 48, 64
5, 32900, Note_on_c, 3, 48, 107
5, 32948, Note_off_c, 3, 48, 64
5, 32960, Note_on_c, 3, 46, 104
5, 33016, Note_off_c, 3, 46, 64
5, 33026, Note_on_c, 3, 44, 96
5, 33298, Note_off_c, 3, 44, 64
5, 33346, Note_on_c, 3, 44, 92
5, 33396, Note_off_c, 3, 44, 64
5, 33412, Note_on_c, 3, 43, 88
5, 33422, Channel_aftertouch_c, 3, 0
5, 33432, Channel_aftertouch_c, 3, 0
5, 33536, Note_off_c, 3, 43, 64
5, 33542, Note_on_c, 3, 48, 97
5, 33664, Note_off_c, 3, 48, 64
5, 33666, Note_on_c, 3, 55, 94
5, 33722, Note_off_c, 3, 55, 64
5, 33726, Note_on_c, 3, 48, 88
5, 33784, Note_off_c, 3, 48, 64
5, 33788, Note_on_c, 3, 41, 92
5, 33800, Channel_aftertouch_c, 3, 0
5, 33812, Channel_aftertouch_c, 3, 0
5, 34022, Note_off_c, 3, 41, 64
5, 34054, Note_on_c, 3, 43, 86
5, 34096, Note_off_c, 3, 43, 64
5, 34110, Note_on_c, 3, 44, 96
5, 34162, Note_off_c, 3, 44, 64
5, 34180, Note_on_c, 3, 46, 104
5, 34344, Note_off_c, 3, 46, 64
5, 34372, Note_on_c, 3, 46, 100
5, 34428, Note_off_c, 3, 46, 64
5, 34436, Note_on_c, 3, 48, 97
5, 34486, Note_off_c, 3, 48, 64
5, 34498, Note_on_c, 3, 50, 97
5, 34538, Note_off_c, 3, 50, 64
5, 34564, Note_on_c, 3, 51, 92
5, 34866, Note_off_c, 3, 51, 64
5, 34878, Note_on_c, 3, 46, 100
5, 34938, Note_off_c, 3, 46, 64
5, 34944, Note_on_c, 3, 51, 96
5, 35244, Note_off_c, 3, 51, 64
5, 35264, Note_on_c, 3, 46, 96
5, 35324, Note_off_c, 3, 46, 64
5, 35330, Note_on_c, 3, 48, 101
5, 35632, Note_off_c, 3, 48, 64
5, 35650, Note_on_c, 3, 43, 104
5, 35704, Note_off_c, 3, 43, 64
5, 35714, Note_on_c, 3, 48, 101
5, 35930, Note_off_c, 3, 48, 64
5, 35970, Note_on_c, 3, 48, 107
5, 36020, Note_off_c, 3, 48, 64
5, 36034, Note_on_c, 3, 46, 104
5, 36080, Note_off_c, 3, 46, 64
5, 36094, Note_on_c, 3, 44, 100
5, 36394, Note_off_c, 3, 44, 64
5, 36478, Note_on_c, 3, 43, 92
5, 36600, Note_off_c, 3, 43, 64
5, 36604, Note_on_c, 3, 48, 97
5, 36728, Note_off_c, 3, 48, 64
5, 36734, Note_on_c, 3, 55, 101
5, 36788, Note_off_c, 3, 55, 64
5, 36796, Note_on_c, 3, 48, 94
5, 36854, Note_off_c, 3, 48, 64
5, 36860, Note_on_c, 3, 41, 94
5, 36872, Channel_aftertouch_c, 3, 0
5, 36880, Channel_aftertouch_c, 3, 0
5, 37098, Note_off_c, 3, 41, 64
5, 37118, Note_on_c, 3, 43, 82
5, 37172, Note_off_c, 3, 43, 64
5, 37180, Note_on_c, 3, 44, 92
5, 37238, Note_off_c, 3, 44, 64
5, 37248, Note_on_c, 3, 46, 104
5, 37410, Note_off_c, 3, 46, 64
5, 37440, Note_on_c, 3, 46, 104
5, 37494, Note_off_c, 3, 46, 64
5, 37502, Note_on_c, 3, 48, 97
5, 37552, Note_off_c, 3, 48, 64
5, 37564, Note_on_c, 3, 50, 104
5, 37572, Channel_aftertouch_c, 3, 0
5, 37574, Channel_aftertouch_c, 3, 1
5, 37576, Channel_aftertouch_c, 3, 2
5, 37590, Channel_aftertouch_c, 3, 3
5, 37600, Channel_aftertouch_c, 3, 2
5, 37602, Channel_aftertouch_c, 3, 0
5, 37604, Channel_aftertouch_c, 3, 0
5, 37606, Note_off_c, 3, 50, 64
5, 37632, Note_on_c, 3, 48, 101
5, 37780, Channel_aftertouch_c, 3, 0
5, 37804, Channel_aftertouch_c, 3, 0
5, 37904, Channel_aftertouch_c, 3, 0
5, 37924, Note_off_c, 3, 48, 64
5, 37954, Note_on_c, 3, 48, 101
5, 38004, Note_off_c, 3, 48, 64
5, 38014, Note_on_c, 3, 47, 99
5, 38312, Note_off_c, 3, 47, 64
5, 38342, Note_on_c, 3, 47, 99
5, 38392, Note_off_c, 3, 47, 64
5, 38402, Note_on_c, 3, 46, 109
5, 38684, Note_off_c, 3, 46, 64
5, 38722, Note_on_c, 3, 46, 100
5, 38776, Note_off_c, 3, 46, 64
5, 38784, Note_on_c, 3, 45, 90
5, 38792, Channel_aftertouch_c, 3, 1
5, 38794, Channel_aftertouch_c, 3, 2
5, 38802, Channel_aftertouch_c, 3, 0
5, 38804, Channel_aftertouch_c, 3, 0
5, 38928, Channel_aftertouch_c, 3, 0
5, 38950, Channel_aftertouch_c, 3, 1
5, 38970, Channel_aftertouch_c, 3, 2
5, 38986, Channel_aftertouch_c, 3, 3
5, 39044, Channel_aftertouch_c, 3, 2
5, 39048, Channel_aftertouch_c, 3, 1
5, 39052, Channel_aftertouch_c, 3, 0
5, 39054, Channel_aftertouch_c, 3, 0
5, 39072, Note_off_c, 3, 45, 64
5, 39106, Note_on_c, 3, 45, 90
5, 39116, Channel_aftertouch_c, 3, 0
5, 39122, Channel_aftertouch_c, 3, 0
5, 39160, Note_off_c, 3, 45, 64
5, 39166, Note_on_c, 3, 44, 104
5, 39444, Note_off_c, 3, 44, 64
5, 39486, Note_on_c, 3, 44, 100
5, 39530, Note_off_c, 3, 44, 64
5, 39548, Note_on_c, 3, 43, 90
5, 39556, Channel_aftertouch_c, 3, 0
5, 39560, Channel_aftertouch_c, 3, 1
5, 39568, Channel_aftertouch_c, 3, 0
5, 39570, Channel_aftertouch_c, 3, 0
5, 39748, Channel_aftertouch_c, 3, 0
5, 39808, Channel_aftertouch_c, 3, 0
5, 39838, Note_off_c, 3, 43, 64
5, 39872, Note_on_c, 3, 43, 92
5, 39924, Note_off_c, 3, 43, 64
5, 39932, Note_on_c, 3, 41, 94
5, 39944, Channel_aftertouch_c, 3, 0
5, 39954, Channel_aftertouch_c, 3, 0
5, 40110, Channel_aftertouch_c, 3, 0
5, 40150, Channel_aftertouch_c, 3, 0
5, 40164, Note_off_c, 3, 41, 64
5, 40192, Note_on_c, 3, 43, 97
5, 40228, Note_off_c, 3, 43, 64
5, 40252, Note_on_c, 3, 44, 92
5, 40290, Note_off_c, 3, 44, 64
5, 40318, Note_on_c, 3, 46, 104
5, 40490, Note_off_c, 3, 46, 64
5, 40518, Note_on_c, 3, 46, 100
5, 40566, Note_off_c, 3, 46, 64
5, 40572, Note_on_c, 3, 48, 94
5, 40620, Note_off_c, 3, 48, 64
5, 40634, Note_on_c, 3, 50, 101
5, 40642, Channel_aftertouch_c, 3, 0
5, 40644, Channel_aftertouch_c, 3, 2
5, 40646, Channel_aftertouch_c, 3, 3
5, 40648, Channel_aftertouch_c, 3, 4
5, 40660, Channel_aftertouch_c, 3, 5
5, 40662, Channel_aftertouch_c, 3, 6
5, 40664, Channel_aftertouch_c, 3, 7
5, 40672, Channel_aftertouch_c, 3, 6
5, 40674, Channel_aftertouch_c, 3, 5
5, 40676, Channel_aftertouch_c, 3, 3
5, 40678, Channel_aftertouch_c, 3, 0
5, 40680, Note_off_c, 3, 50, 64
5, 40680, Channel_aftertouch_c, 3, 0
5, 40708, Note_on_c, 3, 51, 92
5, 41010, Note_off_c, 3, 51, 64
5, 41022, Note_on_c, 3, 46, 100
5, 41082, Note_off_c, 3, 46, 64
5, 41088, Note_on_c, 3, 51, 96
5, 41388, Note_off_c, 3, 51, 64
5, 41408, Note_on_c, 3, 46, 96
5, 41468, Note_off_c, 3, 46, 64
5, 41474, Note_on_c, 3, 48, 101
5, 41776, Note_off_c, 3, 48, 64
5, 41794, Note_on_c, 3, 43, 104
5, 41848, Note_off_c, 3, 43, 64
5, 41858, Note_on_c, 3, 48, 101
5, 42074, Note_off_c, 3, 48, 64
5, 42114, Note_on_c, 3, 48, 107
5, 42164, Note_off_c, 3, 48, 64
5, 42178, Note_on_c, 3, 46, 104
5, 42224, Note_off_c, 3, 46, 64
5, 42238, Note_on_c, 3, 44, 100
5, 42538, Note_off_c, 3, 44, 64
5, 42622, Note_on_c, 3, 43, 92
5, 42744, Note_off_c, 3, 43, 64
5, 42748, Note_on_c, 3, 48, 97
5, 42872, Note_off_c, 3, 48, 64
5, 42878, Note_on_c, 3, 55, 101
5, 42932, Note_off_c, 3, 55, 64
5, 42940, Note_on_c, 3, 48, 94
5, 42998, Note_off_c, 3, 48, 64
5, 43004, Note_on_c, 3, 41, 94
5, 43016, Channel_aftertouch_c, 3, 0
5, 43024, Channel_aftertouch_c, 3, 0
5, 43242, Note_off_c, 3, 41, 64
5, 43262, Note_on_c, 3, 43, 82
5, 43316, Note_off_c, 3, 43, 64
5, 43324, Note_on_c, 3, 44, 92
5, 43382, Note_off_c, 3, 44, 64
5, 43392, Note_on_c, 3, 46, 104
5, 43554, Note_off_c, 3, 46, 64
5, 43584, Note_on_c, 3, 46, 104
5, 43638, Note_off_c, 3, 46, 64
5, 43646, Note_on_c, 3, 48, 97
5, 43696, Note_off_c, 3, 48, 64
5, 43708, Note_on_c, 3, 50, 104
5, 43716, Channel_aftertouch_c, 3, 0
5, 43718, Channel_aftertouch_c, 3, 1
5, 43720, Channel_aftertouch_c, 3, 2
5, 43734, Channel_aftertouch_c, 3, 3
5, 43744, Channel_aftertouch_c, 3, 2
5, 43746, Channel_aftertouch_c, 3, 0
5, 43748, Channel_aftertouch_c, 3, 0
5, 43750, Note_off_c, 3, 50, 64
5, 43780, Note_on_c, 3, 51, 92
5, 44082, Note_off_c, 3, 51, 64
5, 44094, Note_on_c, 3, 46, 100
5, 44154, Note_off_c, 3, 46, 64
5, 44160, Note_on_c, 3, 51, 96
5, 44460, Note_off_c, 3, 51, 64
5, 44480, Note_on_c, 3, 46, 96
5, 44540, Note_off_c, 3, 46, 64
5, 44546, Note_on_c, 3, 48, 101
5, 44848, Note_off_c, 3, 48, 64
5, 44866, Note_on_c, 3, 43, 104
5, 44920, Note_off_c, 3, 43, 64
5, 44930, Note_on_c, 3, 48, 101
5, 45146, Note_off_c, 3, 48, 64
5, 45186, Note_on_c, 3, 48, 107
5, 45236, Note_off_c, 3, 48, 64
5, 45250, Note_on_c, 3, 46, 104
5, 45296, Note_off_c, 3, 46, 64
5, 45310, Note_on_c, 3, 44, 100
5, 45610, Note_off_c, 3, 44, 64
5, 45694, Note_on_c, 3, 43, 92
5, 45816, Note_off_c, 3, 43, 64
5, 45820, Note_on_c, 3, 48, 97
5, 45944, Note_off_c, 3, 48, 64
5, 45950, Note_on_c, 3, 55, 101
5, 46004, Note_off_c, 3, 55, 64
5, 46012, Note_on_c, 3, 48, 94
5, 46070, Note_off_c, 3, 48, 64
5, 46076, Note_on_c, 3, 41, 94
5, 46088, Channel_aftertouch_c, 3, 0
5, 46096, Channel_aftertouch_c, 3, 0
5, 46314, Note_off_c, 3, 41, 64
5, 46334, Note_on_c, 3, 43, 82
5, 46388, Note_off_c, 3, 43, 64
5, 46396, Note_on_c, 3, 44, 92
5, 46454, Note_off_c, 3, 44, 64
5, 46464, Note_on_c, 3, 46, 104
5, 46626, Note_off_c, 3, 46, 64
5, 46656, Note_on_c, 3, 46, 104
5, 46710, Note_off_c, 3, 46, 64
5, 46718, Note_on_c, 3, 48, 97
5, 46768, Note_off_c, 3, 48, 64
5, 46780, Note_on_c, 3, 50, 104
5, 46788, Channel_aftertouch_c, 3, 0
5, 46790, Channel_aftertouch_c, 3, 1
5, 46792, Channel_aftertouch_c, 3, 2
5, 46806, Channel_aftertouch_c, 3, 3
5, 46816, Channel_aftertouch_c, 3, 2
5, 46818, Channel_aftertouch_c, 3, 0
5, 46820, Channel_aftertouch_c, 3, 0
5, 46822, Note_off_c, 3, 50, 64
5, 46852, Note_on_c, 3, 51, 92
5, 47154, Note_off_c, 3, 51, 64
5, 47166, Note_on_c, 3, 46, 100
5, 47226, Note_off_c, 3, 46, 64
5, 47232, Note_on_c, 3, 51, 96
5, 47532, Note_off_c, 3, 51, 64
5, 47552, Note_on_c, 3, 46, 96
5, 47612, Note_off_c, 3, 46, 64
5, 47618, Note_on_c, 3, 48, 101
5, 47920, Note_off_c, 3, 48, 64
5, 47938, Note_on_c, 3, 43, 104
5, 47992, Note_off_c, 3, 43, 64
5, 48002, Note_on_c, 3, 48, 101
5, 48218, Note_off_c, 3, 48, 64
5, 48258, Note_on_c, 3, 48, 107
5, 48308, Note_off_c, 3, 48, 64
5, 48322, Note_on_c, 3, 46, 104
5, 48368, Note_off_c, 3, 46, 64
5, 48382, Note_on_c, 3, 44, 100
5, 48682, Note_off_c, 3, 44, 64
5, 48766, Note_on_c, 3, 43, 92
5, 48888, Note_off_c, 3, 43, 64
5, 48892, Note_on_c, 3, 48, 97
5, 49016, Note_off_c, 3, 48, 64
5, 49022, Note_on_c, 3, 55, 101
5, 49076, Note_off_c, 3, 55, 64
5, 49084, Note_on_c, 3, 48, 94
5, 49142, Note_off_c, 3, 48, 64
5, 49148, Note_on_c, 3, 41, 94
5, 49160, Channel_aftertouch_c, 3, 0
5, 49168, Channel_aftertouch_c, 3, 0
5, 49386, Note_off_c, 3, 41, 64
5, 49406, Note_on_c, 3, 43, 82
5, 49460, Note_off_c, 3, 43, 64
5, 49468, Note_on_c, 3, 44, 92
5, 49526, Note_off_c, 3, 44, 64
5, 49536, Note_on_c, 3, 46, 104
5, 49698, Note_off_c, 3, 46, 64
5, 49728, Note_on_c, 3, 46, 104
5, 49782, Note_off_c, 3, 46, 64
5, 49790, Note_on_c, 3, 48, 97
5, 49840, Note_off_c, 3, 48, 64
5, 49852, Note_on_c, 3, 50, 104
5, 49860, Channel_aftertouch_c, 3, 0
5, 49862, Channel_aftertouch_c, 3, 1
5, 49864, Channel_aftertouch_c, 3, 2
5, 49878, Channel_aftertouch_c, 3, 3
5, 49888, Channel_aftertouch_c, 3, 2
5, 49890, Channel_aftertouch_c, 3, 0
5, 49892, Channel_aftertouch_c, 3, 0
5, 49894, Note_off_c, 3, 50, 64
5, 49924, Note_on_c, 3, 51, 92
5, 50226, Note_off_c, 3, 51, 64
5, 50238, Note_on_c, 3, 46, 100
5, 50298, Note_off_c, 3, 46, 64
5, 50304, Note_on_c, 3, 51, 96
5, 50604, Note_off_c, 3, 51, 64
5, 50624, Note_on_c, 3, 46, 96
5, 50684, Note_off_c, 3, 46, 64
5, 50690, Note_on_c, 3, 48, 101
5, 50992, Note_off_c, 3, 48, 64
5, 51010, Note_on_c, 3, 43, 104
5, 51064, Note_off_c, 3, 43, 64
5, 51074, Note_on_c, 3, 48, 101
5, 51290, Note_off_c, 3, 48, 64
5, 51330, Note_on_c, 3, 48, 107
5, 51380, Note_off_c, 3, 48, 64
5, 51394, Note_on_c, 3, 46, 104
5, 51440, Note_off_c, 3, 46, 64
5, 51454, Note_on_c, 3, 44, 100
5, 51754, Note_off_c, 3, 44, 64
5, 51838, Note_on_c, 3, 43, 92
5, 51960, Note_off_c, 3, 43, 64
5, 51964, Note_on_c, 3, 48, 97
5, 52088, Note_off_c, 3, 48, 64
5, 52094, Note_on_c, 3, 55, 101
5, 52148, Note_off_c, 3, 55, 64
5, 52156, Note_on_c, 3, 48, 94
5, 52214, Note_off_c, 3, 48, 64
5, 52220, Note_on_c, 3, 41, 94
5, 52232, Channel_aftertouch_c, 3, 0
5, 52240, Channel_aftertouch_c, 3, 0
5, 52458, Note_off_c, 3, 41, 64
5, 52478, Note_on_c, 3, 43, 82
5, 52532, Note_off_c, 3, 43, 64
5, 52540, Note_on_c, 3, 44, 92
5, 52598, Note_off_c, 3, 44, 64
5, 52608, Note_on_c, 3, 46, 104
5, 52770, Note_off_c, 3, 46, 64
5, 52800, Note_on_c, 3, 46, 104
5, 52854, Note_off_c, 3, 46, 64
5, 52862, Note_on_c, 3, 48, 97
5, 52912, Note_off_c, 3, 48, 64
5, 52924, Note_on_c, 3, 50, 104
5, 52932, Channel_aftertouch_c, 3, 0
5, 52934, Channel_aftertouch_c, 3, 1
5, 52936, Channel_aftertouch_c, 3, 2
5, 52950, Channel_aftertouch_c, 3, 3
5, 52960, Channel_aftertouch_c, 3, 2
5, 52962, Channel_aftertouch_c, 3, 0
5, 52964, Channel_aftertouch_c, 3, 0
5, 52966, Note_off_c, 3, 50, 64
5, 52992, Note_on_c, 3, 51, 89
5, 53310, Note_on_c, 3, 46, 68
5, 53318, Note_off_c, 3, 51, 64
5, 53370, Note_off_c, 3, 46, 64
5, 53376, Note_on_c, 3, 39, 84
5, 53424, Control_c, 3, 7, 127
5, 53430, Channel_aftertouch_c, 3, 0
5, 53438, Channel_aftertouch_c, 3, 1
5, 53448, Channel_aftertouch_c, 3, 2
5, 53456, Channel_aftertouch_c, 3, 3
5, 53466, Channel_aftertouch_c, 3, 4
5, 53470, Channel_aftertouch_c, 3, 5
5, 53482, Channel_aftertouch_c, 3, 6
5, 53488, Channel_aftertouch_c, 3, 7
5, 53494, Channel_aftertouch_c, 3, 8
5, 53504, Channel_aftertouch_c, 3, 9
5, 53510, Channel_aftertouch_c, 3, 10
5, 53516, Channel_aftertouch_c, 3, 11
5, 53520, Channel_aftertouch_c, 3, 12
5, 53530, Channel_aftertouch_c, 3, 13
5, 53542, Channel_aftertouch_c, 3, 14
5, 53552, Channel_aftertouch_c, 3, 15
5, 53564, Channel_aftertouch_c, 3, 16
5, 53568, Channel_aftertouch_c, 3, 17
5, 53610, Channel_aftertouch_c, 3, 18
5, 53700, Channel_aftertouch_c, 3, 17
5, 53704, Channel_aftertouch_c, 3, 16
5, 53708, Channel_aftertouch_c, 3, 15
5, 53712, Channel_aftertouch_c, 3, 14
5, 53714, Channel_aftertouch_c, 3, 13
5, 53716, Channel_aftertouch_c, 3, 11
5, 53718, Channel_aftertouch_c, 3, 10
5, 53720, Channel_aftertouch_c, 3, 7
5, 53724, Channel_aftertouch_c, 3, 4
5, 53726, Channel_aftertouch_c, 3, 1
5, 53728, Channel_aftertouch_c, 3, 0
5, 53730, Channel_aftertouch_c, 3, 0
5, 53732, Note_off_c, 3, 39, 64
5, 53732, End_track
6, 0, Start_track
6, 0, MIDI_port, 0
6, 0, Title_t, "Drums               "
6, 0, Program_c, 9, 0
6, 144, Control_c, 9, 7, 127
6, 384, Note_on_c, 9, 38, 127
6, 384, Note_on_c, 9, 40, 127
6, 386, Note_off_c, 9, 38, 64
6, 386, Note_off_c, 9, 40, 64
6, 448, Note_on_c, 9, 36, 127
6, 450, Note_off_c, 9, 36, 64
6, 512, Note_on_c, 9, 36, 127
6, 514, Note_off_c, 9, 36, 64
6, 576, Note_on_c, 9, 38, 127
6, 576, Note_on_c, 9, 40, 127
6, 576, Note_on_c, 9, 50, 127
6, 578, Note_off_c, 9, 38, 64
6, 578, Note_off_c, 9, 40, 64
6, 578, Note_off_c, 9, 50, 64
6, 584, Note_on_c, 9, 38, 127
6, 584, Note_on_c, 9, 40, 127
6, 586, Note_off_c, 9, 38, 64
6, 586, Note_off_c, 9, 40, 64
6, 640, Note_on_c, 9, 36, 127
6, 640, Note_on_c, 9, 47, 112
6, 642, Note_off_c, 9, 36, 64
6, 642, Note_off_c, 9, 47, 64
6, 704, Note_on_c, 9, 36, 127
6, 704, Note_on_c, 9, 43, 96
6, 706, Note_off_c, 9, 36, 64
6, 706, Note_off_c, 9, 43, 64
6, 768, Note_on_c, 9, 36, 127
6, 768, Note_on_c, 9, 42, 80
6, 768, Note_on_c, 9, 49, 127
6, 770, Note_off_c, 9, 36, 64
6, 770, Note_off_c, 9, 42, 64
6, 770, Note_off_c, 9, 49, 64
6, 832, Note_on_c, 9, 42, 64
6, 834, Note_off_c, 9, 42, 64
6, 896, Note_on_c, 9, 42, 80
6, 896, Note_on_c, 9, 46, 48
6, 898, Note_off_c, 9, 42, 64
6, 898, Note_off_c, 9, 46, 64
6, 960, Note_on_c, 9, 42, 64
6, 960, Note_on_c, 9, 37, 127
6, 962, Note_off_c, 9, 42, 64
6, 962, Note_off_c, 9, 37, 64
6, 1024, Note_on_c, 9, 42, 80
6, 1026, Note_off_c, 9, 42, 64
6, 1088, Note_on_c, 9, 36, 127
6, 1088, Note_on_c, 9, 42, 64
6, 1090, Note_off_c, 9, 36, 64
6, 1090, Note_off_c, 9, 42, 64
6, 1152, Note_on_c, 9, 36, 127
6, 1152, Note_on_c, 9, 42, 80
6, 1154, Note_off_c, 9, 36, 64
6, 1154, Note_off_c, 9, 42, 64
6, 1216, Note_on_c, 9, 42, 64
6, 1218, Note_off_c, 9, 42, 64
6, 1280, Note_on_c, 9, 42, 80
6, 1280, Note_on_c, 9, 46, 48
6, 1282, Note_off_c, 9, 42, 64
6, 1282, Note_off_c, 9, 46, 64
6, 1344, Note_on_c, 9, 42, 64
6, 1344, Note_on_c, 9, 37, 127
6, 1346, Note_off_c, 9, 42, 64
6, 1346, Note_off_c, 9, 37, 64
6, 1408, Note_on_c, 9, 36, 127
6, 1408, Note_on_c, 9, 42, 80
6, 1410, Note_off_c, 9, 36, 64
6, 1410, Note_off_c, 9, 42, 64
6, 1472, Note_on_c, 9, 36, 127
6, 1472, Note_on_c, 9, 42, 64
6, 1474, Note_off_c, 9, 36, 64
6, 1474, Note_off_c, 9, 42, 64
6, 1536, Note_on_c, 9, 36, 127
6, 1536, Note_on_c, 9, 42, 80
6, 1538, Note_off_c, 9, 36, 64
6, 1538, Note_off_c, 9, 42, 64
6, 1600, Note_on_c, 9, 42, 64
6, 1602, Note_off_c, 9, 42, 64
6, 1664, Note_on_c, 9, 42, 80
6, 1664, Note_on_c, 9, 46, 48
6, 1666, Note_off_c, 9, 42, 64
6, 1666, Note_off_c, 9, 46, 64
6, 1728, Note_on_c, 9, 42, 64
6, 1728, Note_on_c, 9, 37, 127
6, 1730, Note_off_c, 9, 42, 64
6, 1730, Note_off_c, 9, 37, 64
6, 1792, Note_on_c, 9, 42, 80
6, 1794, Note_off_c, 9, 42, 64
6, 1856, Note_on_c, 9, 36, 127
6, 1856, Note_on_c, 9, 42, 64
6, 1858, Note_off_c, 9, 36, 64
6, 1858, Note_off_c, 9, 42, 64
6, 1920, Note_on_c, 9, 36, 127
6, 1920, Note_on_c, 9, 42, 80
6, 1922, Note_off_c, 9, 36, 64
6, 1922, Note_off_c, 9, 42, 64
6, 1984, Note_on_c, 9, 42, 64
6, 1986, Note_off_c, 9, 42, 64
6, 2048, Note_on_c, 9, 42, 80
6, 2048, Note_on_c, 9, 46, 48
6, 2050, Note_off_c, 9, 42, 64
6, 2050, Note_off_c, 9, 46, 64
6, 2112, Note_on_c, 9, 42, 64
6, 2112, Note_on_c, 9, 37, 127
6, 2114, Note_off_c, 9, 42, 64
6, 2114, Note_off_c, 9, 37, 64
6, 2176, Note_on_c, 9, 36, 127
6, 2176, Note_on_c, 9, 42, 80
6, 2178, Note_off_c, 9, 36, 64
6, 2178, Note_off_c, 9, 42, 64
6, 2240, Note_on_c, 9, 36, 127
6, 2240, Note_on_c, 9, 42, 64
6, 2242, Note_off_c, 9, 36, 64
6, 2242, Note_off_c, 9, 42, 64
6, 2304, Note_on_c, 9, 36, 127
6, 2304, Note_on_c, 9, 42, 80
6, 2306, Note_off_c, 9, 36, 64
6, 2306, Note_off_c, 9, 42, 64
6, 2368, Note_on_c, 9, 42, 64
6, 2370, Note_off_c, 9, 42, 64
6, 2432, Note_on_c, 9, 42, 80
6, 2432, Note_on_c, 9, 46, 48
6, 2434, Note_off_c, 9, 42, 64
6, 2434, Note_off_c, 9, 46, 64
6, 2496, Note_on_c, 9, 42, 64
6, 2496, Note_on_c, 9, 37, 127
6, 2498, Note_off_c, 9, 42, 64
6, 2498, Note_off_c, 9, 37, 64
6, 2560, Note_on_c, 9, 42, 80
6, 2562, Note_off_c, 9, 42, 64
6, 2624, Note_on_c, 9, 36, 127
6, 2624, Note_on_c, 9, 42, 64
6, 2626, Note_off_c, 9, 36, 64
6, 2626, Note_off_c, 9, 42, 64
6, 2688, Note_on_c, 9, 36, 127
6, 2688, Note_on_c, 9, 42, 80
6, 2690, Note_off_c, 9, 36, 64
6, 2690, Note_off_c, 9, 42, 64
6, 2752, Note_on_c, 9, 42, 64
6, 2754, Note_off_c, 9, 42, 64
6, 2816, Note_on_c, 9, 42, 80
6, 2816, Note_on_c, 9, 46, 48
6, 2818, Note_off_c, 9, 42, 64
6, 2818, Note_off_c, 9, 46, 64
6, 2880, Note_on_c, 9, 42, 64
6, 2880, Note_on_c, 9, 37, 127
6, 2882, Note_off_c, 9, 42, 64
6, 2882, Note_off_c, 9, 37, 64
6, 2944, Note_on_c, 9, 36, 127
6, 2944, Note_on_c, 9, 42, 80
6, 2946, Note_off_c, 9, 36, 64
6, 2946, Note_off_c, 9, 42, 64
6, 3008, Note_on_c, 9, 36, 127
6, 3008, Note_on_c, 9, 42, 64
6, 3010, Note_off_c, 9, 36, 64
6, 3010, Note_off_c, 9, 42, 64
6, 3072, Note_on_c, 9, 36, 127
6, 3072, Note_on_c, 9, 42, 80
6, 3074, Note_off_c, 9, 36, 64
6, 3074, Note_off_c, 9, 42, 64
6, 3136, Note_on_c, 9, 42, 64
6, 3138, Note_off_c, 9, 42, 64
6, 3200, Note_on_c, 9, 42, 80
6, 3200, Note_on_c, 9, 46, 48
6, 3202, Note_off_c, 9, 42, 64
6, 3202, Note_off_c, 9, 46, 64
6, 3264, Note_on_c, 9, 42, 64
6, 3264, Note_on_c, 9, 37, 127
6, 3266, Note_off_c, 9, 42, 64
6, 3266, Note_off_c, 9, 37, 64
6, 3328, Note_on_c, 9, 42, 80
6, 3330, Note_off_c, 9, 42, 64
6, 3392, Note_on_c, 9, 36, 127
6, 3392, Note_on_c, 9, 42, 64
6, 3394, Note_off_c, 9, 36, 64
6, 3394, Note_off_c, 9, 42, 64
6, 3456, Note_on_c, 9, 36, 127
6, 3456, Note_on_c, 9, 42, 80
6, 3458, Note_off_c, 9, 36, 64
6, 3458, Note_off_c, 9, 42, 64
6, 3520, Note_on_c, 9, 42, 64
6, 3522, Note_off_c, 9, 42, 64
6, 3584, Note_on_c, 9, 42, 80
6, 3584, Note_on_c, 9, 46, 48
6, 3586, Note_off_c, 9, 42, 64
6, 3586, Note_off_c, 9, 46, 64
6, 3648, Note_on_c, 9, 42, 64
6, 3648, Note_on_c, 9, 37, 127
6, 3650, Note_off_c, 9, 42, 64
6, 3650, Note_off_c, 9, 37, 64
6, 3712, Note_on_c, 9, 36, 127
6, 3712, Note_on_c, 9, 42, 80
6, 3714, Note_off_c, 9, 36, 64
6, 3714, Note_off_c, 9, 42, 64
6, 3776, Note_on_c, 9, 36, 127
6, 3776, Note_on_c, 9, 42, 64
6, 3778, Note_off_c, 9, 36, 64
6, 3778, Note_off_c, 9, 42, 64
6, 3840, Note_on_c, 9, 36, 127
6, 3840, Note_on_c, 9, 42, 80
6, 3842, Note_off_c, 9, 36, 64
6, 3842, Note_off_c, 9, 42, 64
6, 3904, Note_on_c, 9, 42, 64
6, 3906, Note_off_c, 9, 42, 64
6, 3968, Note_on_c, 9, 42, 80
6, 3968, Note_on_c, 9, 46, 48
6, 3970, Note_off_c, 9, 42, 64
6, 3970, Note_off_c, 9, 46, 64
6, 4032, Note_on_c, 9, 42, 64
6, 4032, Note_on_c, 9, 37, 127
6, 4034, Note_off_c, 9, 42, 64
6, 4034, Note_off_c, 9, 37, 64
6, 4096, Note_on_c, 9, 42, 80
6, 4098, Note_off_c, 9, 42, 64
6, 4160, Note_on_c, 9, 36, 127
6, 4160, Note_on_c, 9, 42, 64
6, 4162, Note_off_c, 9, 36, 64
6, 4162, Note_off_c, 9, 42, 64
6, 4224, Note_on_c, 9, 36, 127
6, 4224, Note_on_c, 9, 42, 80
6, 4226, Note_off_c, 9, 36, 64
6, 4226, Note_off_c, 9, 42, 64
6, 4288, Note_on_c, 9, 42, 64
6, 4290, Note_off_c, 9, 42, 64
6, 4352, Note_on_c, 9, 42, 80
6, 4352, Note_on_c, 9, 46, 48
6, 4354, Note_off_c, 9, 42, 64
6, 4354, Note_off_c, 9, 46, 64
6, 4416, Note_on_c, 9, 42, 64
6, 4416, Note_on_c, 9, 37, 127
6, 4418, Note_off_c, 9, 42, 64
6, 4418, Note_off_c, 9, 37, 64
6, 4480, Note_on_c, 9, 36, 127
6, 4480, Note_on_c, 9, 42, 80
6, 4482, Note_off_c, 9, 36, 64
6, 4482, Note_off_c, 9, 42, 64
6, 4544, Note_on_c, 9, 36, 127
6, 4544, Note_on_c, 9, 42, 64
6, 4546, Note_off_c, 9, 36, 64
6, 4546, Note_off_c, 9, 42, 64
6, 4608, Note_on_c, 9, 36, 127
6, 4608, Note_on_c, 9, 42, 80
6, 4610, Note_off_c, 9, 36, 64
6, 4610, Note_off_c, 9, 42, 64
6, 4672, Note_on_c, 9, 42, 64
6, 4674, Note_off_c, 9, 42, 64
6, 4736, Note_on_c, 9, 42, 80
6, 4736, Note_on_c, 9, 46, 48
6, 4738, Note_off_c, 9, 42, 64
6, 4738, Note_off_c, 9, 46, 64
6, 4800, Note_on_c, 9, 42, 64
6, 4800, Note_on_c, 9, 37, 127
6, 4802, Note_off_c, 9, 42, 64
6, 4802, Note_off_c, 9, 37, 64
6, 4864, Note_on_c, 9, 42, 80
6, 4866, Note_off_c, 9, 42, 64
6, 4928, Note_on_c, 9, 36, 127
6, 4928, Note_on_c, 9, 42, 64
6, 4930, Note_off_c, 9, 36, 64
6, 4930, Note_off_c, 9, 42, 64
6, 4992, Note_on_c, 9, 36, 127
6, 4992, Note_on_c, 9, 42, 80
6, 4994, Note_off_c, 9, 36, 64
6, 4994, Note_off_c, 9, 42, 64
6, 5056, Note_on_c, 9, 42, 64
6, 5058, Note_off_c, 9, 42, 64
6, 5120, Note_on_c, 9, 42, 80
6, 5120, Note_on_c, 9, 46, 48
6, 5122, Note_off_c, 9, 42, 64
6, 5122, Note_off_c, 9, 46, 64
6, 5184, Note_on_c, 9, 42, 64
6, 5184, Note_on_c, 9, 37, 127
6, 5186, Note_off_c, 9, 42, 64
6, 5186, Note_off_c, 9, 37, 64
6, 5248, Note_on_c, 9, 36, 127
6, 5248, Note_on_c, 9, 42, 80
6, 5250, Note_off_c, 9, 36, 64
6, 5250, Note_off_c, 9, 42, 64
6, 5312, Note_on_c, 9, 36, 127
6, 5312, Note_on_c, 9, 42, 64
6, 5314, Note_off_c, 9, 36, 64
6, 5314, Note_off_c, 9, 42, 64
6, 5376, Note_on_c, 9, 36, 127
6, 5376, Note_on_c, 9, 42, 80
6, 5378, Note_off_c, 9, 36, 64
6, 5378, Note_off_c, 9, 42, 64
6, 5440, Note_on_c, 9, 42, 64
6, 5442, Note_off_c, 9, 42, 64
6, 5504, Note_on_c, 9, 42, 80
6, 5504, Note_on_c, 9, 46, 48
6, 5506, Note_off_c, 9, 42, 64
6, 5506, Note_off_c, 9, 46, 64
6, 5568, Note_on_c, 9, 42, 64
6, 5568, Note_on_c, 9, 37, 127
6, 5570, Note_off_c, 9, 42, 64
6, 5570, Note_off_c, 9, 37, 64
6, 5632, Note_on_c, 9, 42, 80
6, 5634, Note_off_c, 9, 42, 64
6, 5696, Note_on_c, 9, 36, 127
6, 5696, Note_on_c, 9, 42, 64
6, 5698, Note_off_c, 9, 36, 64
6, 5698, Note_off_c, 9, 42, 64
6, 5760, Note_on_c, 9, 36, 127
6, 5760, Note_on_c, 9, 42, 80
6, 5762, Note_off_c, 9, 36, 64
6, 5762, Note_off_c, 9, 42, 64
6, 5824, Note_on_c, 9, 42, 64
6, 5826, Note_off_c, 9, 42, 64
6, 5888, Note_on_c, 9, 42, 80
6, 5888, Note_on_c, 9, 46, 48
6, 5890, Note_off_c, 9, 42, 64
6, 5890, Note_off_c, 9, 46, 64
6, 5952, Note_on_c, 9, 42, 64
6, 5952, Note_on_c, 9, 37, 127
6, 5954, Note_off_c, 9, 42, 64
6, 5954, Note_off_c, 9, 37, 64
6, 6016, Note_on_c, 9, 36, 127
6, 6016, Note_on_c, 9, 42, 80
6, 6018, Note_off_c, 9, 36, 64
6, 6018, Note_off_c, 9, 42, 64
6, 6080, Note_on_c, 9, 36, 127
6, 6080, Note_on_c, 9, 42, 64
6, 6082, Note_off_c, 9, 36, 64
6, 6082, Note_off_c, 9, 42, 64
6, 6144, Note_on_c, 9, 36, 127
6, 6144, Note_on_c, 9, 42, 80
6, 6146, Note_off_c, 9, 36, 64
6, 6146, Note_off_c, 9, 42, 64
6, 6208, Note_on_c, 9, 42, 64
6, 6210, Note_off_c, 9, 42, 64
6, 6272, Note_on_c, 9, 42, 80
6, 6272, Note_on_c, 9, 46, 48
6, 6274, Note_off_c, 9, 42, 64
6, 6274, Note_off_c, 9, 46, 64
6, 6336, Note_on_c, 9, 42, 64
6, 6336, Note_on_c, 9, 37, 127
6, 6338, Note_off_c, 9, 42, 64
6, 6338, Note_off_c, 9, 37, 64
6, 6400, Note_on_c, 9, 42, 80
6, 6402, Note_off_c, 9, 42, 64
6, 6464, Note_on_c, 9, 36, 127
6, 6464, Note_on_c, 9, 42, 64
6, 6466, Note_off_c, 9, 36, 64
6, 6466, Note_off_c, 9, 42, 64
6, 6528, Note_on_c, 9, 36, 127
6, 6528, Note_on_c, 9, 42, 80
6, 6530, Note_off_c, 9, 36, 64
6, 6530, Note_off_c, 9, 42, 64
6, 6592, Note_on_c, 9, 42, 64
6, 6594, Note_off_c, 9, 42, 64
6, 6656, Note_on_c, 9, 42, 80
6, 6656, Note_on_c, 9, 46, 48
6, 6658, Note_off_c, 9, 42, 64
6, 6658, Note_off_c, 9, 46, 64
6, 6720, Note_on_c, 9, 42, 64
6, 6720, Note_on_c, 9, 50, 127
6, 6720, Note_on_c, 9, 37, 127
6, 6722, Note_off_c, 9, 42, 64
6, 6722, Note_off_c, 9, 50, 64
6, 6722, Note_off_c, 9, 37, 64
6, 6784, Note_on_c, 9, 36, 127
6, 6784, Note_on_c, 9, 42, 80
6, 6784, Note_on_c, 9, 47, 112
6, 6786, Note_off_c, 9, 36, 64
6, 6786, Note_off_c, 9, 42, 64
6, 6786, Note_off_c, 9, 47, 64
6, 6848, Note_on_c, 9, 36, 127
6, 6848, Note_on_c, 9, 42, 64
6, 6848, Note_on_c, 9, 43, 96
6, 6850, Note_off_c, 9, 36, 64
6, 6850, Note_off_c, 9, 42, 64
6, 6850, Note_off_c, 9, 43, 64
6, 6912, Note_on_c, 9, 36, 127
6, 6912, Note_on_c, 9, 42, 80
6, 6914, Note_off_c, 9, 36, 64
6, 6914, Note_off_c, 9, 42, 64
6, 6976, Note_on_c, 9, 42, 64
6, 6978, Note_off_c, 9, 42, 64
6, 7040, Note_on_c, 9, 42, 80
6, 7040, Note_on_c, 9, 46, 48
6, 7042, Note_off_c, 9, 42, 64
6, 7042, Note_off_c, 9, 46, 64
6, 7104, Note_on_c, 9, 42, 64
6, 7104, Note_on_c, 9, 37, 127
6, 7106, Note_off_c, 9, 42, 64
6, 7106, Note_off_c, 9, 37, 64
6, 7168, Note_on_c, 9, 42, 80
6, 7170, Note_off_c, 9, 42, 64
6, 7232, Note_on_c, 9, 36, 127
6, 7232, Note_on_c, 9, 42, 64
6, 7234, Note_off_c, 9, 36, 64
6, 7234, Note_off_c, 9, 42, 64
6, 7296, Note_on_c, 9, 36, 127
6, 7296, Note_on_c, 9, 42, 80
6, 7298, Note_off_c, 9, 36, 64
6, 7298, Note_off_c, 9, 42, 64
6, 7360, Note_on_c, 9, 42, 64
6, 7362, Note_off_c, 9, 42, 64
6, 7424, Note_on_c, 9, 42, 80
6, 7424, Note_on_c, 9, 46, 48
6, 7426, Note_off_c, 9, 42, 64
6, 7426, Note_off_c, 9, 46, 64
6, 7488, Note_on_c, 9, 42, 64
6, 7488, Note_on_c, 9, 37, 127
6, 7490, Note_off_c, 9, 42, 64
6, 7490, Note_off_c, 9, 37, 64
6, 7552, Note_on_c, 9, 36, 127
6, 7552, Note_on_c, 9, 42, 80
6, 7554, Note_off_c, 9, 36, 64
6, 7554, Note_off_c, 9, 42, 64
6, 7616, Note_on_c, 9, 36, 127
6, 7616, Note_on_c, 9, 42, 64
6, 7618, Note_off_c, 9, 36, 64
6, 7618, Note_off_c, 9, 42, 64
6, 7680, Note_on_c, 9, 36, 127
6, 7680, Note_on_c, 9, 42, 80
6, 7682, Note_off_c, 9, 36, 64
6, 7682, Note_off_c, 9, 42, 64
6, 7744, Note_on_c, 9, 42, 64
6, 7746, Note_off_c, 9, 42, 64
6, 7808, Note_on_c, 9, 42, 80
6, 7808, Note_on_c, 9, 46, 48
6, 7810, Note_off_c, 9, 42, 64
6, 7810, Note_off_c, 9, 46, 64
6, 7872, Note_on_c, 9, 42, 64
6, 7872, Note_on_c, 9, 37, 127
6, 7874, Note_off_c, 9, 42, 64
6, 7874, Note_off_c, 9, 37, 64
6, 7936, Note_on_c, 9, 42, 80
6, 7938, Note_off_c, 9, 42, 64
6, 8000, Note_on_c, 9, 36, 127
6, 8000, Note_on_c, 9, 42, 64
6, 8002, Note_off_c, 9, 36, 64
6, 8002, Note_off_c, 9, 42, 64
6, 8064, Note_on_c, 9, 36, 127
6, 8064, Note_on_c, 9, 42, 80
6, 8066, Note_off_c, 9, 36, 64
6, 8066, Note_off_c, 9, 42, 64
6, 8128, Note_on_c, 9, 42, 64
6, 8130, Note_off_c, 9, 42, 64
6, 8192, Note_on_c, 9, 42, 80
6, 8192, Note_on_c, 9, 46, 48
6, 8194, Note_off_c, 9, 42, 64
6, 8194, Note_off_c, 9, 46, 64
6, 8256, Note_on_c, 9, 42, 64
6, 8256, Note_on_c, 9, 37, 127
6, 8258, Note_off_c, 9, 42, 64
6, 8258, Note_off_c, 9, 37, 64
6, 8320, Note_on_c, 9, 36, 127
6, 8320, Note_on_c, 9, 42, 80
6, 8322, Note_off_c, 9, 36, 64
6, 8322, Note_off_c, 9, 42, 64
6, 8384, Note_on_c, 9, 36, 127
6, 8384, Note_on_c, 9, 42, 64
6, 8386, Note_off_c, 9, 36, 64
6, 8386, Note_off_c, 9, 42, 64
6, 8448, Note_on_c, 9, 36, 127
6, 8448, Note_on_c, 9, 42, 80
6, 8450, Note_off_c, 9, 36, 64
6, 8450, Note_off_c, 9, 42, 64
6, 8512, Note_on_c, 9, 42, 64
6, 8514, Note_off_c, 9, 42, 64
6, 8576, Note_on_c, 9, 42, 80
6, 8576, Note_on_c, 9, 46, 48
6, 8578, Note_off_c, 9, 42, 64
6, 8578, Note_off_c, 9, 46, 64
6, 8640, Note_on_c, 9, 42, 64
6, 8640, Note_on_c, 9, 37, 127
6, 8642, Note_off_c, 9, 42, 64
6, 8642, Note_off_c, 9, 37, 64
6, 8704, Note_on_c, 9, 42, 80
6, 8706, Note_off_c, 9, 42, 64
6, 8768, Note_on_c, 9, 36, 127
6, 8768, Note_on_c, 9, 42, 64
6, 8770, Note_off_c, 9, 36, 64
6, 8770, Note_off_c, 9, 42, 64
6, 8832, Note_on_c, 9, 36, 127
6, 8832, Note_on_c, 9, 42, 80
6, 8834, Note_off_c, 9, 36, 64
6, 8834, Note_off_c, 9, 42, 64
6, 8896, Note_on_c, 9, 42, 64
6, 8898, Note_off_c, 9, 42, 64
6, 8960, Note_on_c, 9, 42, 80
6, 8960, Note_on_c, 9, 46, 48
6, 8962, Note_off_c, 9, 42, 64
6, 8962, Note_off_c, 9, 46, 64
6, 9024, Note_on_c, 9, 42, 64
6, 9024, Note_on_c, 9, 37, 127
6, 9026, Note_off_c, 9, 42, 64
6, 9026, Note_off_c, 9, 37, 64
6, 9088, Note_on_c, 9, 36, 127
6, 9088, Note_on_c, 9, 42, 80
6, 9090, Note_off_c, 9, 36, 64
6, 9090, Note_off_c, 9, 42, 64
6, 9152, Note_on_c, 9, 36, 127
6, 9152, Note_on_c, 9, 42, 64
6, 9154, Note_off_c, 9, 36, 64
6, 9154, Note_off_c, 9, 42, 64
6, 9216, Note_on_c, 9, 36, 127
6, 9216, Note_on_c, 9, 42, 80
6, 9218, Note_off_c, 9, 36, 64
6, 9218, Note_off_c, 9, 42, 64
6, 9280, Note_on_c, 9, 42, 64
6, 9282, Note_off_c, 9, 42, 64
6, 9344, Note_on_c, 9, 42, 80
6, 9344, Note_on_c, 9, 46, 48
6, 9346, Note_off_c, 9, 42, 64
6, 9346, Note_off_c, 9, 46, 64
6, 9408, Note_on_c, 9, 42, 64
6, 9408, Note_on_c, 9, 37, 127
6, 9410, Note_off_c, 9, 42, 64
6, 9410, Note_off_c, 9, 37, 64
6, 9472, Note_on_c, 9, 42, 80
6, 9474, Note_off_c, 9, 42, 64
6, 9536, Note_on_c, 9, 36, 127
6, 9536, Note_on_c, 9, 42, 64
6, 9538, Note_off_c, 9, 36, 64
6, 9538, Note_off_c, 9, 42, 64
6, 9600, Note_on_c, 9, 36, 127
6, 9600, Note_on_c, 9, 42, 80
6, 9602, Note_off_c, 9, 36, 64
6, 9602, Note_off_c, 9, 42, 64
6, 9664, Note_on_c, 9, 42, 64
6, 9666, Note_off_c, 9, 42, 64
6, 9728, Note_on_c, 9, 42, 80
6, 9728, Note_on_c, 9, 46, 48
6, 9730, Note_off_c, 9, 42, 64
6, 9730, Note_off_c, 9, 46, 64
6, 9792, Note_on_c, 9, 42, 64
6, 9792, Note_on_c, 9, 37, 127
6, 9794, Note_off_c, 9, 42, 64
6, 9794, Note_off_c, 9, 37, 64
6, 9856, Note_on_c, 9, 36, 127
6, 9856, Note_on_c, 9, 42, 80
6, 9858, Note_off_c, 9, 36, 64
6, 9858, Note_off_c, 9, 42, 64
6, 9920, Note_on_c, 9, 36, 127
6, 9920, Note_on_c, 9, 42, 64
6, 9922, Note_off_c, 9, 36, 64
6, 9922, Note_off_c, 9, 42, 64
6, 9984, Note_on_c, 9, 36, 127
6, 9984, Note_on_c, 9, 42, 80
6, 9986, Note_off_c, 9, 36, 64
6, 9986, Note_off_c, 9, 42, 64
6, 10048, Note_on_c, 9, 42, 64
6, 10050, Note_off_c, 9, 42, 64
6, 10112, Note_on_c, 9, 42, 80
6, 10112, Note_on_c, 9, 46, 48
6, 10114, Note_off_c, 9, 42, 64
6, 10114, Note_off_c, 9, 46, 64
6, 10176, Note_on_c, 9, 42, 64
6, 10176, Note_on_c, 9, 37, 127
6, 10178, Note_off_c, 9, 42, 64
6, 10178, Note_off_c, 9, 37, 64
6, 10240, Note_on_c, 9, 42, 80
6, 10242, Note_off_c, 9, 42, 64
6, 10304, Note_on_c, 9, 36, 127
6, 10304, Note_on_c, 9, 42, 64
6, 10306, Note_off_c, 9, 36, 64
6, 10306, Note_off_c, 9, 42, 64
6, 10368, Note_on_c, 9, 36, 127
6, 10368, Note_on_c, 9, 42, 80
6, 10370, Note_off_c, 9, 36, 64
6, 10370, Note_off_c, 9, 42, 64
6, 10432, Note_on_c, 9, 42, 64
6, 10434, Note_off_c, 9, 42, 64
6, 10496, Note_on_c, 9, 42, 80
6, 10496, Note_on_c, 9, 46, 48
6, 10498, Note_off_c, 9, 42, 64
6, 10498, Note_off_c, 9, 46, 64
6, 10560, Note_on_c, 9, 42, 64
6, 10560, Note_on_c, 9, 37, 127
6, 10562, Note_off_c, 9, 42, 64
6, 10562, Note_off_c, 9, 37, 64
6, 10624, Note_on_c, 9, 36, 127
6, 10624, Note_on_c, 9, 42, 80
6, 10626, Note_off_c, 9, 36, 64
6, 10626, Note_off_c, 9, 42, 64
6, 10688, Note_on_c, 9, 36, 127
6, 10688, Note_on_c, 9, 42, 64
6, 10690, Note_off_c, 9, 36, 64
6, 10690, Note_off_c, 9, 42, 64
6, 10752, Note_on_c, 9, 36, 127
6, 10752, Note_on_c, 9, 42, 80
6, 10754, Note_off_c, 9, 36, 64
6, 10754, Note_off_c, 9, 42, 64
6, 10816, Note_on_c, 9, 42, 64
6, 10818, Note_off_c, 9, 42, 64
6, 10880, Note_on_c, 9, 42, 80
6, 10880, Note_on_c, 9, 46, 48
6, 10882, Note_off_c, 9, 42, 64
6, 10882, Note_off_c, 9, 46, 64
6, 10944, Note_on_c, 9, 42, 64
6, 10944, Note_on_c, 9, 37, 127
6, 10946, Note_off_c, 9, 42, 64
6, 10946, Note_off_c, 9, 37, 64
6, 11008, Note_on_c, 9, 42, 80
6, 11010, Note_off_c, 9, 42, 64
6, 11072, Note_on_c, 9, 36, 127
6, 11072, Note_on_c, 9, 42, 64
6, 11074, Note_off_c, 9, 36, 64
6, 11074, Note_off_c, 9, 42, 64
6, 11136, Note_on_c, 9, 36, 127
6, 11136, Note_on_c, 9, 42, 80
6, 11138, Note_off_c, 9, 36, 64
6, 11138, Note_off_c, 9, 42, 64
6, 11200, Note_on_c, 9, 42, 64
6, 11202, Note_off_c, 9, 42, 64
6, 11264, Note_on_c, 9, 42, 80
6, 11264, Note_on_c, 9, 46, 48
6, 11266, Note_off_c, 9, 42, 64
6, 11266, Note_off_c, 9, 46, 64
6, 11328, Note_on_c, 9, 42, 64
6, 11328, Note_on_c, 9, 37, 127
6, 11330, Note_off_c, 9, 42, 64
6, 11330, Note_off_c, 9, 37, 64
6, 11392, Note_on_c, 9, 36, 127
6, 11392, Note_on_c, 9, 42, 80
6, 11394, Note_off_c, 9, 36, 64
6, 11394, Note_off_c, 9, 42, 64
6, 11456, Note_on_c, 9, 36, 127
6, 11456, Note_on_c, 9, 42, 64
6, 11458, Note_off_c, 9, 36, 64
6, 11458, Note_off_c, 9, 42, 64
6, 11520, Note_on_c, 9, 36, 127
6, 11520, Note_on_c, 9, 42, 80
6, 11522, Note_off_c, 9, 36, 64
6, 11522, Note_off_c, 9, 42, 64
6, 11584, Note_on_c, 9, 42, 64
6, 11586, Note_off_c, 9, 42, 64
6, 11648, Note_on_c, 9, 42, 80
6, 11648, Note_on_c, 9, 46, 48
6, 11650, Note_off_c, 9, 42, 64
6, 11650, Note_off_c, 9, 46, 64
6, 11712, Note_on_c, 9, 42, 64
6, 11712, Note_on_c, 9, 37, 127
6, 11714, Note_off_c, 9, 42, 64
6, 11714, Note_off_c, 9, 37, 64
6, 11776, Note_on_c, 9, 42, 80
6, 11778, Note_off_c, 9, 42, 64
6, 11840, Note_on_c, 9, 36, 127
6, 11840, Note_on_c, 9, 42, 64
6, 11842, Note_off_c, 9, 36, 64
6, 11842, Note_off_c, 9, 42, 64
6, 11904, Note_on_c, 9, 36, 127
6, 11904, Note_on_c, 9, 42, 80
6, 11906, Note_off_c, 9, 36, 64
6, 11906, Note_off_c, 9, 42, 64
6, 11968, Note_on_c, 9, 42, 64
6, 11970, Note_off_c, 9, 42, 64
6, 12032, Note_on_c, 9, 42, 80
6, 12032, Note_on_c, 9, 46, 48
6, 12034, Note_off_c, 9, 42, 64
6, 12034, Note_off_c, 9, 46, 64
6, 12096, Note_on_c, 9, 42, 64
6, 12096, Note_on_c, 9, 37, 127
6, 12098, Note_off_c, 9, 42, 64
6, 12098, Note_off_c, 9, 37, 64
6, 12160, Note_on_c, 9, 36, 127
6, 12160, Note_on_c, 9, 42, 80
6, 12162, Note_off_c, 9, 36, 64
6, 12162, Note_off_c, 9, 42, 64
6, 12224, Note_on_c, 9, 36, 127
6, 12224, Note_on_c, 9, 42, 64
6, 12226, Note_off_c, 9, 36, 64
6, 12226, Note_off_c, 9, 42, 64
6, 12288, Note_on_c, 9, 36, 127
6, 12288, Note_on_c, 9, 42, 80
6, 12290, Note_off_c, 9, 36, 64
6, 12290, Note_off_c, 9, 42, 64
6, 12352, Note_on_c, 9, 42, 64
6, 12354, Note_off_c, 9, 42, 64
6, 12416, Note_on_c, 9, 42, 80
6, 12416, Note_on_c, 9, 46, 48
6, 12418, Note_off_c, 9, 42, 64
6, 12418, Note_off_c, 9, 46, 64
6, 12480, Note_on_c, 9, 42, 64
6, 12480, Note_on_c, 9, 37, 127
6, 12482, Note_off_c, 9, 42, 64
6, 12482, Note_off_c, 9, 37, 64
6, 12544, Note_on_c, 9, 42, 80
6, 12546, Note_off_c, 9, 42, 64
6, 12608, Note_on_c, 9, 36, 127
6, 12608, Note_on_c, 9, 42, 64
6, 12610, Note_off_c, 9, 36, 64
6, 12610, Note_off_c, 9, 42, 64
6, 12672, Note_on_c, 9, 36, 127
6, 12672, Note_on_c, 9, 42, 80
6, 12674, Note_off_c, 9, 36, 64
6, 12674, Note_off_c, 9, 42, 64
6, 12736, Note_on_c, 9, 42, 64
6, 12738, Note_off_c, 9, 42, 64
6, 12800, Note_on_c, 9, 42, 80
6, 12800, Note_on_c, 9, 46, 48
6, 12802, Note_off_c, 9, 42, 64
6, 12802, Note_off_c, 9, 46, 64
6, 12864, Note_on_c, 9, 42, 64
6, 12864, Note_on_c, 9, 50, 127
6, 12864, Note_on_c, 9, 37, 127
6, 12866, Note_off_c, 9, 42, 64
6, 12866, Note_off_c, 9, 50, 64
6, 12866, Note_off_c, 9, 37, 64
6, 12928, Note_on_c, 9, 36, 127
6, 12928, Note_on_c, 9, 42, 80
6, 12928, Note_on_c, 9, 47, 112
6, 12930, Note_off_c, 9, 36, 64
6, 12930, Note_off_c, 9, 42, 64
6, 12930, Note_off_c, 9, 47, 64
6, 12992, Note_on_c, 9, 36, 127
6, 12992, Note_on_c, 9, 42, 64
6, 12992, Note_on_c, 9, 43, 96
6, 12994, Note_off_c, 9, 36, 64
6, 12994, Note_off_c, 9, 42, 64
6, 12994, Note_off_c, 9, 43, 64
6, 13056, Note_on_c, 9, 36, 127
6, 13056, Note_on_c, 9, 42, 80
6, 13056, Note_on_c, 9, 49, 127
6, 13058, Note_off_c, 9, 36, 64
6, 13058, Note_off_c, 9, 42, 64
6, 13058, Note_off_c, 9, 49, 64
6, 13120, Note_on_c, 9, 42, 64
6, 13122, Note_off_c, 9, 42, 64
6, 13184, Note_on_c, 9, 42, 80
6, 13184, Note_on_c, 9, 46, 48
6, 13186, Note_off_c, 9, 42, 64
6, 13186, Note_off_c, 9, 46, 64
6, 13248, Note_on_c, 9, 42, 64
6, 13248, Note_on_c, 9, 37, 127
6, 13250, Note_off_c, 9, 42, 64
6, 13250, Note_off_c, 9, 37, 64
6, 13312, Note_on_c, 9, 42, 80
6, 13314, Note_off_c, 9, 42, 64
6, 13376, Note_on_c, 9, 36, 127
6, 13376, Note_on_c, 9, 42, 64
6, 13378, Note_off_c, 9, 36, 64
6, 13378, Note_off_c, 9, 42, 64
6, 13440, Note_on_c, 9, 36, 127
6, 13440, Note_on_c, 9, 42, 80
6, 13442, Note_off_c, 9, 36, 64
6, 13442, Note_off_c, 9, 42, 64
6, 13504, Note_on_c, 9, 42, 64
6, 13506, Note_off_c, 9, 42, 64
6, 13568, Note_on_c, 9, 42, 80
6, 13568, Note_on_c, 9, 46, 48
6, 13570, Note_off_c, 9, 42, 64
6, 13570, Note_off_c, 9, 46, 64
6, 13632, Note_on_c, 9, 42, 64
6, 13632, Note_on_c, 9, 37, 127
6, 13634, Note_off_c, 9, 42, 64
6, 13634, Note_off_c, 9, 37, 64
6, 13696, Note_on_c, 9, 36, 127
6, 13696, Note_on_c, 9, 42, 80
6, 13698, Note_off_c, 9, 36, 64
6, 13698, Note_off_c, 9, 42, 64
6, 13760, Note_on_c, 9, 36, 127
6, 13760, Note_on_c, 9, 42, 64
6, 13762, Note_off_c, 9, 36, 64
6, 13762, Note_off_c, 9, 42, 64
6, 13824, Note_on_c, 9, 36, 127
6, 13824, Note_on_c, 9, 42, 80
6, 13826, Note_off_c, 9, 36, 64
6, 13826, Note_off_c, 9, 42, 64
6, 13888, Note_on_c, 9, 42, 64
6, 13890, Note_off_c, 9, 42, 64
6, 13952, Note_on_c, 9, 42, 80
6, 13952, Note_on_c, 9, 46, 48
6, 13954, Note_off_c, 9, 42, 64
6, 13954, Note_off_c, 9, 46, 64
6, 14016, Note_on_c, 9, 42, 64
6, 14016, Note_on_c, 9, 37, 127
6, 14018, Note_off_c, 9, 42, 64
6, 14018, Note_off_c, 9, 37, 64
6, 14080, Note_on_c, 9, 42, 80
6, 14082, Note_off_c, 9, 42, 64
6, 14144, Note_on_c, 9, 36, 127
6, 14144, Note_on_c, 9, 42, 64
6, 14146, Note_off_c, 9, 36, 64
6, 14146, Note_off_c, 9, 42, 64
6, 14208, Note_on_c, 9, 36, 127
6, 14208, Note_on_c, 9, 42, 80
6, 14210, Note_off_c, 9, 36, 64
6, 14210, Note_off_c, 9, 42, 64
6, 14272, Note_on_c, 9, 42, 64
6, 14274, Note_off_c, 9, 42, 64
6, 14336, Note_on_c, 9, 42, 80
6, 14336, Note_on_c, 9, 46, 48
6, 14338, Note_off_c, 9, 42, 64
6, 14338, Note_off_c, 9, 46, 64
6, 14400, Note_on_c, 9, 42, 64
6, 14400, Note_on_c, 9, 37, 127
6, 14402, Note_off_c, 9, 42, 64
6, 14402, Note_off_c, 9, 37, 64
6, 14464, Note_on_c, 9, 36, 127
6, 14464, Note_on_c, 9, 42, 80
6, 14466, Note_off_c, 9, 36, 64
6, 14466, Note_off_c, 9, 42, 64
6, 14528, Note_on_c, 9, 36, 127
6, 14528, Note_on_c, 9, 42, 64
6, 14530, Note_off_c, 9, 36, 64
6, 14530, Note_off_c, 9, 42, 64
6, 14592, Note_on_c, 9, 36, 127
6, 14592, Note_on_c, 9, 42, 80
6, 14592, Note_on_c, 9, 49, 127
6, 14594, Note_off_c, 9, 36, 64
6, 14594, Note_off_c, 9, 42, 64
6, 14594, Note_off_c, 9, 49, 64
6, 14656, Note_on_c, 9, 42, 64
6, 14658, Note_off_c, 9, 42, 64
6, 14720, Note_on_c, 9, 42, 80
6, 14720, Note_on_c, 9, 46, 48
6, 14722, Note_off_c, 9, 42, 64
6, 14722, Note_off_c, 9, 46, 64
6, 14784, Note_on_c, 9, 42, 64
6, 14784, Note_on_c, 9, 37, 127
6, 14786, Note_off_c, 9, 42, 64
6, 14786, Note_off_c, 9, 37, 64
6, 14848, Note_on_c, 9, 42, 80
6, 14850, Note_off_c, 9, 42, 64
6, 14912, Note_on_c, 9, 36, 127
6, 14912, Note_on_c, 9, 42, 64
6, 14914, Note_off_c, 9, 36, 64
6, 14914, Note_off_c, 9, 42, 64
6, 14976, Note_on_c, 9, 36, 127
6, 14976, Note_on_c, 9, 42, 80
6, 14978, Note_off_c, 9, 36, 64
6, 14978, Note_off_c, 9, 42, 64
6, 15040, Note_on_c, 9, 42, 64
6, 15042, Note_off_c, 9, 42, 64
6, 15104, Note_on_c, 9, 42, 80
6, 15104, Note_on_c, 9, 46, 48
6, 15106, Note_off_c, 9, 42, 64
6, 15106, Note_off_c, 9, 46, 64
6, 15168, Note_on_c, 9, 42, 64
6, 15168, Note_on_c, 9, 37, 127
6, 15170, Note_off_c, 9, 42, 64
6, 15170, Note_off_c, 9, 37, 64
6, 15232, Note_on_c, 9, 36, 127
6, 15232, Note_on_c, 9, 42, 80
6, 15234, Note_off_c, 9, 36, 64
6, 15234, Note_off_c, 9, 42, 64
6, 15296, Note_on_c, 9, 36, 127
6, 15296, Note_on_c, 9, 42, 64
6, 15298, Note_off_c, 9, 36, 64
6, 15298, Note_off_c, 9, 42, 64
6, 15360, Note_on_c, 9, 36, 127
6, 15360, Note_on_c, 9, 42, 80
6, 15362, Note_off_c, 9, 36, 64
6, 15362, Note_off_c, 9, 42, 64
6, 15424, Note_on_c, 9, 42, 64
6, 15426, Note_off_c, 9, 42, 64
6, 15488, Note_on_c, 9, 42, 80
6, 15488, Note_on_c, 9, 46, 48
6, 15490, Note_off_c, 9, 42, 64
6, 15490, Note_off_c, 9, 46, 64
6, 15552, Note_on_c, 9, 42, 64
6, 15552, Note_on_c, 9, 37, 127
6, 15554, Note_off_c, 9, 42, 64
6, 15554, Note_off_c, 9, 37, 64
6, 15616, Note_on_c, 9, 42, 80
6, 15618, Note_off_c, 9, 42, 64
6, 15680, Note_on_c, 9, 36, 127
6, 15680, Note_on_c, 9, 42, 64
6, 15682, Note_off_c, 9, 36, 64
6, 15682, Note_off_c, 9, 42, 64
6, 15744, Note_on_c, 9, 36, 127
6, 15744, Note_on_c, 9, 42, 80
6, 15746, Note_off_c, 9, 36, 64
6, 15746, Note_off_c, 9, 42, 64
6, 15808, Note_on_c, 9, 42, 64
6, 15810, Note_off_c, 9, 42, 64
6, 15872, Note_on_c, 9, 42, 80
6, 15872, Note_on_c, 9, 46, 48
6, 15874, Note_off_c, 9, 42, 64
6, 15874, Note_off_c, 9, 46, 64
6, 15936, Note_on_c, 9, 42, 64
6, 15936, Note_on_c, 9, 50, 127
6, 15936, Note_on_c, 9, 37, 127
6, 15938, Note_off_c, 9, 42, 64
6, 15938, Note_off_c, 9, 50, 64
6, 15938, Note_off_c, 9, 37, 64
6, 16000, Note_on_c, 9, 36, 127
6, 16000, Note_on_c, 9, 42, 80
6, 16000, Note_on_c, 9, 47, 112
6, 16002, Note_off_c, 9, 36, 64
6, 16002, Note_off_c, 9, 42, 64
6, 16002, Note_off_c, 9, 47, 64
6, 16064, Note_on_c, 9, 36, 127
6, 16064, Note_on_c, 9, 42, 64
6, 16064, Note_on_c, 9, 43, 96
6, 16066, Note_off_c, 9, 36, 64
6, 16066, Note_off_c, 9, 42, 64
6, 16066, Note_off_c, 9, 43, 64
6, 16128, Note_on_c, 9, 36, 127
6, 16128, Note_on_c, 9, 42, 80
6, 16130, Note_off_c, 9, 36, 64
6, 16130, Note_off_c, 9, 42, 64
6, 16192, Note_on_c, 9, 42, 64
6, 16194, Note_off_c, 9, 42, 64
6, 16256, Note_on_c, 9, 42, 80
6, 16256, Note_on_c, 9, 46, 48
6, 16258, Note_off_c, 9, 42, 64
6, 16258, Note_off_c, 9, 46, 64
6, 16320, Note_on_c, 9, 40, 127
6, 16320, Note_on_c, 9, 42, 64
6, 16320, Note_on_c, 9, 37, 127
6, 16320, Note_on_c, 9, 39, 127
6, 16322, Note_off_c, 9, 40, 64
6, 16322, Note_off_c, 9, 42, 64
6, 16322, Note_off_c, 9, 37, 64
6, 16322, Note_off_c, 9, 39, 64
6, 16384, Note_on_c, 9, 42, 80
6, 16386, Note_off_c, 9, 42, 64
6, 16448, Note_on_c, 9, 36, 127
6, 16448, Note_on_c, 9, 42, 64
6, 16450, Note_off_c, 9, 36, 64
6, 16450, Note_off_c, 9, 42, 64
6, 16512, Note_on_c, 9, 36, 127
6, 16512, Note_on_c, 9, 42, 80
6, 16514, Note_off_c, 9, 36, 64
6, 16514, Note_off_c, 9, 42, 64
6, 16576, Note_on_c, 9, 42, 64
6, 16578, Note_off_c, 9, 42, 64
6, 16640, Note_on_c, 9, 42, 80
6, 16640, Note_on_c, 9, 46, 48
6, 16642, Note_off_c, 9, 42, 64
6, 16642, Note_off_c, 9, 46, 64
6, 16704, Note_on_c, 9, 40, 127
6, 16704, Note_on_c, 9, 42, 64
6, 16704, Note_on_c, 9, 37, 127
6, 16704, Note_on_c, 9, 39, 127
6, 16706, Note_off_c, 9, 40, 64
6, 16706, Note_off_c, 9, 42, 64
6, 16706, Note_off_c, 9, 37, 64
6, 16706, Note_off_c, 9, 39, 64
6, 16768, Note_on_c, 9, 36, 127
6, 16768, Note_on_c, 9, 42, 80
6, 16770, Note_off_c, 9, 36, 64
6, 16770, Note_off_c, 9, 42, 64
6, 16832, Note_on_c, 9, 36, 127
6, 16832, Note_on_c, 9, 42, 64
6, 16834, Note_off_c, 9, 36, 64
6, 16834, Note_off_c, 9, 42, 64
6, 16896, Note_on_c, 9, 36, 127
6, 16896, Note_on_c, 9, 42, 80
6, 16898, Note_off_c, 9, 36, 64
6, 16898, Note_off_c, 9, 42, 64
6, 16960, Note_on_c, 9, 42, 64
6, 16962, Note_off_c, 9, 42, 64
6, 17024, Note_on_c, 9, 42, 80
6, 17024, Note_on_c, 9, 46, 48
6, 17026, Note_off_c, 9, 42, 64
6, 17026, Note_off_c, 9, 46, 64
6, 17088, Note_on_c, 9, 40, 127
6, 17088, Note_on_c, 9, 42, 64
6, 17088, Note_on_c, 9, 37, 127
6, 17088, Note_on_c, 9, 39, 127
6, 17090, Note_off_c, 9, 40, 64
6, 17090, Note_off_c, 9, 42, 64
6, 17090, Note_off_c, 9, 37, 64
6, 17090, Note_off_c, 9, 39, 64
6, 17152, Note_on_c, 9, 42, 80
6, 17154, Note_off_c, 9, 42, 64
6, 17216, Note_on_c, 9, 36, 127
6, 17216, Note_on_c, 9, 42, 64
6, 17218, Note_off_c, 9, 36, 64
6, 17218, Note_off_c, 9, 42, 64
6, 17280, Note_on_c, 9, 36, 127
6, 17280, Note_on_c, 9, 42, 80
6, 17282, Note_off_c, 9, 36, 64
6, 17282, Note_off_c, 9, 42, 64
6, 17344, Note_on_c, 9, 42, 64
6, 17346, Note_off_c, 9, 42, 64
6, 17408, Note_on_c, 9, 42, 80
6, 17408, Note_on_c, 9, 46, 48
6, 17410, Note_off_c, 9, 42, 64
6, 17410, Note_off_c, 9, 46, 64
6, 17472, Note_on_c, 9, 40, 127
6, 17472, Note_on_c, 9, 42, 64
6, 17472, Note_on_c, 9, 37, 127
6, 17472, Note_on_c, 9, 39, 127
6, 17474, Note_off_c, 9, 40, 64
6, 17474, Note_off_c, 9, 42, 64
6, 17474, Note_off_c, 9, 37, 64
6, 17474, Note_off_c, 9, 39, 64
6, 17536, Note_on_c, 9, 36, 127
6, 17536, Note_on_c, 9, 42, 80
6, 17538, Note_off_c, 9, 36, 64
6, 17538, Note_off_c, 9, 42, 64
6, 17600, Note_on_c, 9, 36, 127
6, 17600, Note_on_c, 9, 42, 64
6, 17602, Note_off_c, 9, 36, 64
6, 17602, Note_off_c, 9, 42, 64
6, 17664, Note_on_c, 9, 36, 127
6, 17664, Note_on_c, 9, 42, 80
6, 17666, Note_off_c, 9, 36, 64
6, 17666, Note_off_c, 9, 42, 64
6, 17728, Note_on_c, 9, 42, 64
6, 17730, Note_off_c, 9, 42, 64
6, 17792, Note_on_c, 9, 42, 80
6, 17792, Note_on_c, 9, 46, 48
6, 17794, Note_off_c, 9, 42, 64
6, 17794, Note_off_c, 9, 46, 64
6, 17856, Note_on_c, 9, 40, 127
6, 17856, Note_on_c, 9, 42, 64
6, 17856, Note_on_c, 9, 37, 127
6, 17856, Note_on_c, 9, 39, 127
6, 17858, Note_off_c, 9, 40, 64
6, 17858, Note_off_c, 9, 42, 64
6, 17858, Note_off_c, 9, 37, 64
6, 17858, Note_off_c, 9, 39, 64
6, 17920, Note_on_c, 9, 42, 80
6, 17922, Note_off_c, 9, 42, 64
6, 17984, Note_on_c, 9, 36, 127
6, 17984, Note_on_c, 9, 42, 64
6, 17986, Note_off_c, 9, 36, 64
6, 17986, Note_off_c, 9, 42, 64
6, 18048, Note_on_c, 9, 36, 127
6, 18048, Note_on_c, 9, 42, 80
6, 18050, Note_off_c, 9, 36, 64
6, 18050, Note_off_c, 9, 42, 64
6, 18112, Note_on_c, 9, 42, 64
6, 18114, Note_off_c, 9, 42, 64
6, 18176, Note_on_c, 9, 42, 80
6, 18176, Note_on_c, 9, 46, 48
6, 18178, Note_off_c, 9, 42, 64
6, 18178, Note_off_c, 9, 46, 64
6, 18240, Note_on_c, 9, 40, 127
6, 18240, Note_on_c, 9, 42, 64
6, 18240, Note_on_c, 9, 37, 127
6, 18240, Note_on_c, 9, 39, 127
6, 18242, Note_off_c, 9, 40, 64
6, 18242, Note_off_c, 9, 42, 64
6, 18242, Note_off_c, 9, 37, 64
6, 18242, Note_off_c, 9, 39, 64
6, 18304, Note_on_c, 9, 36, 127
6, 18304, Note_on_c, 9, 42, 80
6, 18306, Note_off_c, 9, 36, 64
6, 18306, Note_off_c, 9, 42, 64
6, 18368, Note_on_c, 9, 36, 127
6, 18368, Note_on_c, 9, 42, 64
6, 18370, Note_off_c, 9, 36, 64
6, 18370, Note_off_c, 9, 42, 64
6, 18432, Note_on_c, 9, 36, 127
6, 18432, Note_on_c, 9, 42, 80
6, 18434, Note_off_c, 9, 36, 64
6, 18434, Note_off_c, 9, 42, 64
6, 18496, Note_on_c, 9, 42, 64
6, 18498, Note_off_c, 9, 42, 64
6, 18560, Note_on_c, 9, 42, 80
6, 18560, Note_on_c, 9, 46, 48
6, 18562, Note_off_c, 9, 42, 64
6, 18562, Note_off_c, 9, 46, 64
6, 18624, Note_on_c, 9, 40, 127
6, 18624, Note_on_c, 9, 42, 64
6, 18624, Note_on_c, 9, 37, 127
6, 18624, Note_on_c, 9, 39, 127
6, 18626, Note_off_c, 9, 40, 64
6, 18626, Note_off_c, 9, 42, 64
6, 18626, Note_off_c, 9, 37, 64
6, 18626, Note_off_c, 9, 39, 64
6, 18688, Note_on_c, 9, 42, 80
6, 18690, Note_off_c, 9, 42, 64
6, 18752, Note_on_c, 9, 36, 127
6, 18752, Note_on_c, 9, 42, 64
6, 18754, Note_off_c, 9, 36, 64
6, 18754, Note_off_c, 9, 42, 64
6, 18816, Note_on_c, 9, 36, 127
6, 18816, Note_on_c, 9, 42, 80
6, 18818, Note_off_c, 9, 36, 64
6, 18818, Note_off_c, 9, 42, 64
6, 18880, Note_on_c, 9, 42, 64
6, 18882, Note_off_c, 9, 42, 64
6, 18944, Note_on_c, 9, 42, 80
6, 18944, Note_on_c, 9, 46, 48
6, 18946, Note_off_c, 9, 42, 64
6, 18946, Note_off_c, 9, 46, 64
6, 19008, Note_on_c, 9, 40, 127
6, 19008, Note_on_c, 9, 42, 64
6, 19008, Note_on_c, 9, 50, 127
6, 19008, Note_on_c, 9, 37, 127
6, 19008, Note_on_c, 9, 39, 127
6, 19010, Note_off_c, 9, 40, 64
6, 19010, Note_off_c, 9, 42, 64
6, 19010, Note_off_c, 9, 50, 64
6, 19010, Note_off_c, 9, 37, 64
6, 19010, Note_off_c, 9, 39, 64
6, 19072, Note_on_c, 9, 36, 127
6, 19072, Note_on_c, 9, 42, 80
6, 19072, Note_on_c, 9, 47, 112
6, 19074, Note_off_c, 9, 36, 64
6, 19074, Note_off_c, 9, 42, 64
6, 19074, Note_off_c, 9, 47, 64
6, 19136, Note_on_c, 9, 36, 127
6, 19136, Note_on_c, 9, 42, 64
6, 19136, Note_on_c, 9, 43, 96
6, 19138, Note_off_c, 9, 36, 64
6, 19138, Note_off_c, 9, 42, 64
6, 19138, Note_off_c, 9, 43, 64
6, 19200, Note_on_c, 9, 36, 127
6, 19200, Note_on_c, 9, 42, 80
6, 19202, Note_off_c, 9, 36, 64
6, 19202, Note_off_c, 9, 42, 64
6, 19264, Note_on_c, 9, 42, 64
6, 19266, Note_off_c, 9, 42, 64
6, 19328, Note_on_c, 9, 42, 80
6, 19328, Note_on_c, 9, 46, 48
6, 19330, Note_off_c, 9, 42, 64
6, 19330, Note_off_c, 9, 46, 64
6, 19392, Note_on_c, 9, 42, 64
6, 19392, Note_on_c, 9, 37, 127
6, 19394, Note_off_c, 9, 42, 64
6, 19394, Note_off_c, 9, 37, 64
6, 19456, Note_on_c, 9, 42, 80
6, 19458, Note_off_c, 9, 42, 64
6, 19520, Note_on_c, 9, 36, 127
6, 19520, Note_on_c, 9, 42, 64
6, 19522, Note_off_c, 9, 36, 64
6, 19522, Note_off_c, 9, 42, 64
6, 19584, Note_on_c, 9, 36, 127
6, 19584, Note_on_c, 9, 42, 80
6, 19586, Note_off_c, 9, 36, 64
6, 19586, Note_off_c, 9, 42, 64
6, 19648, Note_on_c, 9, 42, 64
6, 19650, Note_off_c, 9, 42, 64
6, 19712, Note_on_c, 9, 42, 80
6, 19712, Note_on_c, 9, 46, 48
6, 19714, Note_off_c, 9, 42, 64
6, 19714, Note_off_c, 9, 46, 64
6, 19776, Note_on_c, 9, 42, 64
6, 19776, Note_on_c, 9, 37, 127
6, 19778, Note_off_c, 9, 42, 64
6, 19778, Note_off_c, 9, 37, 64
6, 19840, Note_on_c, 9, 36, 127
6, 19840, Note_on_c, 9, 42, 80
6, 19842, Note_off_c, 9, 36, 64
6, 19842, Note_off_c, 9, 42, 64
6, 19904, Note_on_c, 9, 36, 127
6, 19904, Note_on_c, 9, 42, 64
6, 19906, Note_off_c, 9, 36, 64
6, 19906, Note_off_c, 9, 42, 64
6, 19968, Note_on_c, 9, 36, 127
6, 19968, Note_on_c, 9, 42, 80
6, 19970, Note_off_c, 9, 36, 64
6, 19970, Note_off_c, 9, 42, 64
6, 20032, Note_on_c, 9, 42, 64
6, 20034, Note_off_c, 9, 42, 64
6, 20096, Note_on_c, 9, 42, 80
6, 20096, Note_on_c, 9, 46, 48
6, 20098, Note_off_c, 9, 42, 64
6, 20098, Note_off_c, 9, 46, 64
6, 20160, Note_on_c, 9, 42, 64
6, 20160, Note_on_c, 9, 37, 127
6, 20162, Note_off_c, 9, 42, 64
6, 20162, Note_off_c, 9, 37, 64
6, 20224, Note_on_c, 9, 42, 80
6, 20226, Note_off_c, 9, 42, 64
6, 20288, Note_on_c, 9, 36, 127
6, 20288, Note_on_c, 9, 42, 64
6, 20290, Note_off_c, 9, 36, 64
6, 20290, Note_off_c, 9, 42, 64
6, 20352, Note_on_c, 9, 36, 127
6, 20352, Note_on_c, 9, 42, 80
6, 20354, Note_off_c, 9, 36, 64
6, 20354, Note_off_c, 9, 42, 64
6, 20416, Note_on_c, 9, 42, 64
6, 20418, Note_off_c, 9, 42, 64
6, 20480, Note_on_c, 9, 42, 80
6, 20480, Note_on_c, 9, 46, 48
6, 20482, Note_off_c, 9, 42, 64
6, 20482, Note_off_c, 9, 46, 64
6, 20544, Note_on_c, 9, 42, 64
6, 20544, Note_on_c, 9, 37, 127
6, 20546, Note_off_c, 9, 42, 64
6, 20546, Note_off_c, 9, 37, 64
6, 20608, Note_on_c, 9, 36, 127
6, 20608, Note_on_c, 9, 42, 80
6, 20610, Note_off_c, 9, 36, 64
6, 20610, Note_off_c, 9, 42, 64
6, 20672, Note_on_c, 9, 36, 127
6, 20672, Note_on_c, 9, 42, 64
6, 20674, Note_off_c, 9, 36, 64
6, 20674, Note_off_c, 9, 42, 64
6, 20736, Note_on_c, 9, 36, 127
6, 20736, Note_on_c, 9, 42, 80
6, 20738, Note_off_c, 9, 36, 64
6, 20738, Note_off_c, 9, 42, 64
6, 20800, Note_on_c, 9, 42, 64
6, 20802, Note_off_c, 9, 42, 64
6, 20864, Note_on_c, 9, 42, 80
6, 20864, Note_on_c, 9, 46, 48
6, 20866, Note_off_c, 9, 42, 64
6, 20866, Note_off_c, 9, 46, 64
6, 20928, Note_on_c, 9, 42, 64
6, 20928, Note_on_c, 9, 37, 127
6, 20930, Note_off_c, 9, 42, 64
6, 20930, Note_off_c, 9, 37, 64
6, 20992, Note_on_c, 9, 42, 80
6, 20994, Note_off_c, 9, 42, 64
6, 21056, Note_on_c, 9, 36, 127
6, 21056, Note_on_c, 9, 42, 64
6, 21058, Note_off_c, 9, 36, 64
6, 21058, Note_off_c, 9, 42, 64
6, 21120, Note_on_c, 9, 36, 127
6, 21120, Note_on_c, 9, 42, 80
6, 21122, Note_off_c, 9, 36, 64
6, 21122, Note_off_c, 9, 42, 64
6, 21184, Note_on_c, 9, 42, 64
6, 21186, Note_off_c, 9, 42, 64
6, 21248, Note_on_c, 9, 42, 80
6, 21248, Note_on_c, 9, 46, 48
6, 21250, Note_off_c, 9, 42, 64
6, 21250, Note_off_c, 9, 46, 64
6, 21312, Note_on_c, 9, 42, 64
6, 21312, Note_on_c, 9, 37, 127
6, 21314, Note_off_c, 9, 42, 64
6, 21314, Note_off_c, 9, 37, 64
6, 21376, Note_on_c, 9, 36, 127
6, 21376, Note_on_c, 9, 42, 80
6, 21378, Note_off_c, 9, 36, 64
6, 21378, Note_off_c, 9, 42, 64
6, 21440, Note_on_c, 9, 36, 127
6, 21440, Note_on_c, 9, 42, 64
6, 21442, Note_off_c, 9, 36, 64
6, 21442, Note_off_c, 9, 42, 64
6, 21504, Note_on_c, 9, 36, 127
6, 21504, Note_on_c, 9, 42, 80
6, 21506, Note_off_c, 9, 36, 64
6, 21506, Note_off_c, 9, 42, 64
6, 21568, Note_on_c, 9, 42, 64
6, 21570, Note_off_c, 9, 42, 64
6, 21632, Note_on_c, 9, 42, 80
6, 21632, Note_on_c, 9, 46, 48
6, 21634, Note_off_c, 9, 42, 64
6, 21634, Note_off_c, 9, 46, 64
6, 21696, Note_on_c, 9, 42, 64
6, 21696, Note_on_c, 9, 37, 127
6, 21698, Note_off_c, 9, 42, 64
6, 21698, Note_off_c, 9, 37, 64
6, 21760, Note_on_c, 9, 42, 80
6, 21762, Note_off_c, 9, 42, 64
6, 21824, Note_on_c, 9, 36, 127
6, 21824, Note_on_c, 9, 42, 64
6, 21826, Note_off_c, 9, 36, 64
6, 21826, Note_off_c, 9, 42, 64
6, 21888, Note_on_c, 9, 36, 127
6, 21888, Note_on_c, 9, 42, 80
6, 21890, Note_off_c, 9, 36, 64
6, 21890, Note_off_c, 9, 42, 64
6, 21952, Note_on_c, 9, 42, 64
6, 21954, Note_off_c, 9, 42, 64
6, 22016, Note_on_c, 9, 42, 80
6, 22016, Note_on_c, 9, 46, 48
6, 22018, Note_off_c, 9, 42, 64
6, 22018, Note_off_c, 9, 46, 64
6, 22080, Note_on_c, 9, 42, 64
6, 22080, Note_on_c, 9, 37, 127
6, 22082, Note_off_c, 9, 42, 64
6, 22082, Note_off_c, 9, 37, 64
6, 22144, Note_on_c, 9, 36, 127
6, 22144, Note_on_c, 9, 42, 80
6, 22146, Note_off_c, 9, 36, 64
6, 22146, Note_off_c, 9, 42, 64
6, 22208, Note_on_c, 9, 36, 127
6, 22208, Note_on_c, 9, 42, 64
6, 22210, Note_off_c, 9, 36, 64
6, 22210, Note_off_c, 9, 42, 64
6, 22272, Note_on_c, 9, 36, 127
6, 22272, Note_on_c, 9, 42, 80
6, 22274, Note_off_c, 9, 36, 64
6, 22274, Note_off_c, 9, 42, 64
6, 22336, Note_on_c, 9, 42, 64
6, 22338, Note_off_c, 9, 42, 64
6, 22400, Note_on_c, 9, 42, 80
6, 22400, Note_on_c, 9, 46, 48
6, 22402, Note_off_c, 9, 42, 64
6, 22402, Note_off_c, 9, 46, 64
6, 22464, Note_on_c, 9, 42, 64
6, 22464, Note_on_c, 9, 37, 127
6, 22466, Note_off_c, 9, 42, 64
6, 22466, Note_off_c, 9, 37, 64
6, 22528, Note_on_c, 9, 42, 80
6, 22530, Note_off_c, 9, 42, 64
6, 22592, Note_on_c, 9, 36, 127
6, 22592, Note_on_c, 9, 42, 64
6, 22594, Note_off_c, 9, 36, 64
6, 22594, Note_off_c, 9, 42, 64
6, 22656, Note_on_c, 9, 36, 127
6, 22656, Note_on_c, 9, 42, 80
6, 22658, Note_off_c, 9, 36, 64
6, 22658, Note_off_c, 9, 42, 64
6, 22720, Note_on_c, 9, 42, 64
6, 22722, Note_off_c, 9, 42, 64
6, 22784, Note_on_c, 9, 42, 80
6, 22784, Note_on_c, 9, 46, 48
6, 22786, Note_off_c, 9, 42, 64
6, 22786, Note_off_c, 9, 46, 64
6, 22848, Note_on_c, 9, 42, 64
6, 22848, Note_on_c, 9, 37, 127
6, 22850, Note_off_c, 9, 42, 64
6, 22850, Note_off_c, 9, 37, 64
6, 22912, Note_on_c, 9, 36, 127
6, 22912, Note_on_c, 9, 42, 80
6, 22914, Note_off_c, 9, 36, 64
6, 22914, Note_off_c, 9, 42, 64
6, 22976, Note_on_c, 9, 36, 127
6, 22976, Note_on_c, 9, 42, 64
6, 22978, Note_off_c, 9, 36, 64
6, 22978, Note_off_c, 9, 42, 64
6, 23040, Note_on_c, 9, 36, 127
6, 23040, Note_on_c, 9, 42, 80
6, 23042, Note_off_c, 9, 36, 64
6, 23042, Note_off_c, 9, 42, 64
6, 23104, Note_on_c, 9, 42, 64
6, 23106, Note_off_c, 9, 42, 64
6, 23168, Note_on_c, 9, 42, 80
6, 23168, Note_on_c, 9, 46, 48
6, 23170, Note_off_c, 9, 42, 64
6, 23170, Note_off_c, 9, 46, 64
6, 23232, Note_on_c, 9, 42, 64
6, 23232, Note_on_c, 9, 37, 127
6, 23234, Note_off_c, 9, 42, 64
6, 23234, Note_off_c, 9, 37, 64
6, 23296, Note_on_c, 9, 42, 80
6, 23298, Note_off_c, 9, 42, 64
6, 23360, Note_on_c, 9, 36, 127
6, 23360, Note_on_c, 9, 42, 64
6, 23362, Note_off_c, 9, 36, 64
6, 23362, Note_off_c, 9, 42, 64
6, 23424, Note_on_c, 9, 36, 127
6, 23424, Note_on_c, 9, 42, 80
6, 23426, Note_off_c, 9, 36, 64
6, 23426, Note_off_c, 9, 42, 64
6, 23488, Note_on_c, 9, 42, 64
6, 23490, Note_off_c, 9, 42, 64
6, 23552, Note_on_c, 9, 42, 80
6, 23552, Note_on_c, 9, 46, 48
6, 23554, Note_off_c, 9, 42, 64
6, 23554, Note_off_c, 9, 46, 64
6, 23616, Note_on_c, 9, 42, 64
6, 23616, Note_on_c, 9, 37, 127
6, 23618, Note_off_c, 9, 42, 64
6, 23618, Note_off_c, 9, 37, 64
6, 23680, Note_on_c, 9, 36, 127
6, 23680, Note_on_c, 9, 42, 80
6, 23682, Note_off_c, 9, 36, 64
6, 23682, Note_off_c, 9, 42, 64
6, 23744, Note_on_c, 9, 36, 127
6, 23744, Note_on_c, 9, 42, 64
6, 23746, Note_off_c, 9, 36, 64
6, 23746, Note_off_c, 9, 42, 64
6, 23808, Note_on_c, 9, 36, 127
6, 23808, Note_on_c, 9, 42, 80
6, 23810, Note_off_c, 9, 36, 64
6, 23810, Note_off_c, 9, 42, 64
6, 23872, Note_on_c, 9, 42, 64
6, 23874, Note_off_c, 9, 42, 64
6, 23936, Note_on_c, 9, 42, 80
6, 23936, Note_on_c, 9, 46, 48
6, 23938, Note_off_c, 9, 42, 64
6, 23938, Note_off_c, 9, 46, 64
6, 24000, Note_on_c, 9, 42, 64
6, 24000, Note_on_c, 9, 37, 127
6, 24002, Note_off_c, 9, 42, 64
6, 24002, Note_off_c, 9, 37, 64
6, 24064, Note_on_c, 9, 42, 80
6, 24066, Note_off_c, 9, 42, 64
6, 24128, Note_on_c, 9, 36, 127
6, 24128, Note_on_c, 9, 42, 64
6, 24130, Note_off_c, 9, 36, 64
6, 24130, Note_off_c, 9, 42, 64
6, 24192, Note_on_c, 9, 36, 127
6, 24192, Note_on_c, 9, 42, 80
6, 24194, Note_off_c, 9, 36, 64
6, 24194, Note_off_c, 9, 42, 64
6, 24256, Note_on_c, 9, 42, 64
6, 24258, Note_off_c, 9, 42, 64
6, 24320, Note_on_c, 9, 42, 80
6, 24320, Note_on_c, 9, 46, 48
6, 24322, Note_off_c, 9, 42, 64
6, 24322, Note_off_c, 9, 46, 64
6, 24384, Note_on_c, 9, 42, 64
6, 24384, Note_on_c, 9, 37, 127
6, 24386, Note_off_c, 9, 42, 64
6, 24386, Note_off_c, 9, 37, 64
6, 24448, Note_on_c, 9, 36, 127
6, 24448, Note_on_c, 9, 42, 80
6, 24450, Note_off_c, 9, 36, 64
6, 24450, Note_off_c, 9, 42, 64
6, 24512, Note_on_c, 9, 36, 127
6, 24512, Note_on_c, 9, 42, 64
6, 24514, Note_off_c, 9, 36, 64
6, 24514, Note_off_c, 9, 42, 64
6, 24576, Note_on_c, 9, 36, 127
6, 24576, Note_on_c, 9, 42, 80
6, 24578, Note_off_c, 9, 36, 64
6, 24578, Note_off_c, 9, 42, 64
6, 24640, Note_on_c, 9, 42, 64
6, 24642, Note_off_c, 9, 42, 64
6, 24704, Note_on_c, 9, 42, 80
6, 24704, Note_on_c, 9, 46, 48
6, 24706, Note_off_c, 9, 42, 64
6, 24706, Note_off_c, 9, 46, 64
6, 24768, Note_on_c, 9, 42, 64
6, 24768, Note_on_c, 9, 37, 127
6, 24770, Note_off_c, 9, 42, 64
6, 24770, Note_off_c, 9, 37, 64
6, 24832, Note_on_c, 9, 42, 80
6, 24834, Note_off_c, 9, 42, 64
6, 24896, Note_on_c, 9, 36, 127
6, 24896, Note_on_c, 9, 42, 64
6, 24898, Note_off_c, 9, 36, 64
6, 24898, Note_off_c, 9, 42, 64
6, 24960, Note_on_c, 9, 36, 127
6, 24960, Note_on_c, 9, 42, 80
6, 24962, Note_off_c, 9, 36, 64
6, 24962, Note_off_c, 9, 42, 64
6, 25024, Note_on_c, 9, 42, 64
6, 25026, Note_off_c, 9, 42, 64
6, 25088, Note_on_c, 9, 42, 80
6, 25088, Note_on_c, 9, 46, 48
6, 25090, Note_off_c, 9, 42, 64
6, 25090, Note_off_c, 9, 46, 64
6, 25152, Note_on_c, 9, 42, 64
6, 25152, Note_on_c, 9, 50, 127
6, 25152, Note_on_c, 9, 37, 127
6, 25154, Note_off_c, 9, 42, 64
6, 25154, Note_off_c, 9, 50, 64
6, 25154, Note_off_c, 9, 37, 64
6, 25216, Note_on_c, 9, 36, 127
6, 25216, Note_on_c, 9, 42, 80
6, 25216, Note_on_c, 9, 47, 112
6, 25218, Note_off_c, 9, 36, 64
6, 25218, Note_off_c, 9, 42, 64
6, 25218, Note_off_c, 9, 47, 64
6, 25280, Note_on_c, 9, 36, 127
6, 25280, Note_on_c, 9, 42, 64
6, 25280, Note_on_c, 9, 43, 96
6, 25282, Note_off_c, 9, 36, 64
6, 25282, Note_off_c, 9, 42, 64
6, 25282, Note_off_c, 9, 43, 64
6, 25344, Note_on_c, 9, 36, 127
6, 25344, Note_on_c, 9, 42, 80
6, 25344, Note_on_c, 9, 49, 127
6, 25346, Note_off_c, 9, 36, 64
6, 25346, Note_off_c, 9, 42, 64
6, 25346, Note_off_c, 9, 49, 64
6, 25408, Note_on_c, 9, 42, 64
6, 25410, Note_off_c, 9, 42, 64
6, 25472, Note_on_c, 9, 42, 80
6, 25472, Note_on_c, 9, 46, 48
6, 25474, Note_off_c, 9, 42, 64
6, 25474, Note_off_c, 9, 46, 64
6, 25536, Note_on_c, 9, 42, 64
6, 25536, Note_on_c, 9, 37, 127
6, 25538, Note_off_c, 9, 42, 64
6, 25538, Note_off_c, 9, 37, 64
6, 25600, Note_on_c, 9, 42, 80
6, 25602, Note_off_c, 9, 42, 64
6, 25664, Note_on_c, 9, 36, 127
6, 25664, Note_on_c, 9, 42, 64
6, 25666, Note_off_c, 9, 36, 64
6, 25666, Note_off_c, 9, 42, 64
6, 25728, Note_on_c, 9, 36, 127
6, 25728, Note_on_c, 9, 42, 80
6, 25730, Note_off_c, 9, 36, 64
6, 25730, Note_off_c, 9, 42, 64
6, 25792, Note_on_c, 9, 42, 64
6, 25794, Note_off_c, 9, 42, 64
6, 25856, Note_on_c, 9, 42, 80
6, 25856, Note_on_c, 9, 46, 48
6, 25858, Note_off_c, 9, 42, 64
6, 25858, Note_off_c, 9, 46, 64
6, 25920, Note_on_c, 9, 42, 64
6, 25920, Note_on_c, 9, 37, 127
6, 25922, Note_off_c, 9, 42, 64
6, 25922, Note_off_c, 9, 37, 64
6, 25984, Note_on_c, 9, 36, 127
6, 25984, Note_on_c, 9, 42, 80
6, 25986, Note_off_c, 9, 36, 64
6, 25986, Note_off_c, 9, 42, 64
6, 26048, Note_on_c, 9, 36, 127
6, 26048, Note_on_c, 9, 42, 64
6, 26050, Note_off_c, 9, 36, 64
6, 26050, Note_off_c, 9, 42, 64
6, 26112, Note_on_c, 9, 36, 127
6, 26112, Note_on_c, 9, 42, 80
6, 26114, Note_off_c, 9, 36, 64
6, 26114, Note_off_c, 9, 42, 64
6, 26176, Note_on_c, 9, 42, 64
6, 26178, Note_off_c, 9, 42, 64
6, 26240, Note_on_c, 9, 42, 80
6, 26240, Note_on_c, 9, 46, 48
6, 26242, Note_off_c, 9, 42, 64
6, 26242, Note_off_c, 9, 46, 64
6, 26304, Note_on_c, 9, 42, 64
6, 26304, Note_on_c, 9, 37, 127
6, 26306, Note_off_c, 9, 42, 64
6, 26306, Note_off_c, 9, 37, 64
6, 26368, Note_on_c, 9, 42, 80
6, 26370, Note_off_c, 9, 42, 64
6, 26432, Note_on_c, 9, 36, 127
6, 26432, Note_on_c, 9, 42, 64
6, 26434, Note_off_c, 9, 36, 64
6, 26434, Note_off_c, 9, 42, 64
6, 26496, Note_on_c, 9, 36, 127
6, 26496, Note_on_c, 9, 42, 80
6, 26498, Note_off_c, 9, 36, 64
6, 26498, Note_off_c, 9, 42, 64
6, 26560, Note_on_c, 9, 42, 64
6, 26562, Note_off_c, 9, 42, 64
6, 26624, Note_on_c, 9, 42, 80
6, 26624, Note_on_c, 9, 46, 48
6, 26626, Note_off_c, 9, 42, 64
6, 26626, Note_off_c, 9, 46, 64
6, 26688, Note_on_c, 9, 42, 64
6, 26688, Note_on_c, 9, 37, 127
6, 26690, Note_off_c, 9, 42, 64
6, 26690, Note_off_c, 9, 37, 64
6, 26752, Note_on_c, 9, 36, 127
6, 26752, Note_on_c, 9, 42, 80
6, 26754, Note_off_c, 9, 36, 64
6, 26754, Note_off_c, 9, 42, 64
6, 26816, Note_on_c, 9, 36, 127
6, 26816, Note_on_c, 9, 42, 64
6, 26818, Note_off_c, 9, 36, 64
6, 26818, Note_off_c, 9, 42, 64
6, 26880, Note_on_c, 9, 36, 127
6, 26880, Note_on_c, 9, 42, 80
6, 26880, Note_on_c, 9, 49, 127
6, 26882, Note_off_c, 9, 36, 64
6, 26882, Note_off_c, 9, 42, 64
6, 26882, Note_off_c, 9, 49, 64
6, 26944, Note_on_c, 9, 42, 64
6, 26946, Note_off_c, 9, 42, 64
6, 27008, Note_on_c, 9, 42, 80
6, 27008, Note_on_c, 9, 46, 48
6, 27010, Note_off_c, 9, 42, 64
6, 27010, Note_off_c, 9, 46, 64
6, 27072, Note_on_c, 9, 42, 64
6, 27072, Note_on_c, 9, 37, 127
6, 27074, Note_off_c, 9, 42, 64
6, 27074, Note_off_c, 9, 37, 64
6, 27136, Note_on_c, 9, 42, 80
6, 27138, Note_off_c, 9, 42, 64
6, 27200, Note_on_c, 9, 36, 127
6, 27200, Note_on_c, 9, 42, 64
6, 27202, Note_off_c, 9, 36, 64
6, 27202, Note_off_c, 9, 42, 64
6, 27264, Note_on_c, 9, 36, 127
6, 27264, Note_on_c, 9, 42, 80
6, 27266, Note_off_c, 9, 36, 64
6, 27266, Note_off_c, 9, 42, 64
6, 27328, Note_on_c, 9, 42, 64
6, 27330, Note_off_c, 9, 42, 64
6, 27392, Note_on_c, 9, 42, 80
6, 27392, Note_on_c, 9, 46, 48
6, 27394, Note_off_c, 9, 42, 64
6, 27394, Note_off_c, 9, 46, 64
6, 27456, Note_on_c, 9, 42, 64
6, 27456, Note_on_c, 9, 37, 127
6, 27458, Note_off_c, 9, 42, 64
6, 27458, Note_off_c, 9, 37, 64
6, 27520, Note_on_c, 9, 36, 127
6, 27520, Note_on_c, 9, 42, 80
6, 27522, Note_off_c, 9, 36, 64
6, 27522, Note_off_c, 9, 42, 64
6, 27584, Note_on_c, 9, 36, 127
6, 27584, Note_on_c, 9, 42, 64
6, 27586, Note_off_c, 9, 36, 64
6, 27586, Note_off_c, 9, 42, 64
6, 27648, Note_on_c, 9, 36, 127
6, 27648, Note_on_c, 9, 42, 80
6, 27650, Note_off_c, 9, 36, 64
6, 27650, Note_off_c, 9, 42, 64
6, 27712, Note_on_c, 9, 42, 64
6, 27714, Note_off_c, 9, 42, 64
6, 27776, Note_on_c, 9, 42, 80
6, 27776, Note_on_c, 9, 46, 48
6, 27778, Note_off_c, 9, 42, 64
6, 27778, Note_off_c, 9, 46, 64
6, 27840, Note_on_c, 9, 42, 64
6, 27840, Note_on_c, 9, 37, 127
6, 27842, Note_off_c, 9, 42, 64
6, 27842, Note_off_c, 9, 37, 64
6, 27904, Note_on_c, 9, 42, 80
6, 27906, Note_off_c, 9, 42, 64
6, 27968, Note_on_c, 9, 36, 127
6, 27968, Note_on_c, 9, 42, 64
6, 27970, Note_off_c, 9, 36, 64
6, 27970, Note_off_c, 9, 42, 64
6, 28032, Note_on_c, 9, 36, 127
6, 28032, Note_on_c, 9, 42, 80
6, 28034, Note_off_c, 9, 36, 64
6, 28034, Note_off_c, 9, 42, 64
6, 28096, Note_on_c, 9, 42, 64
6, 28098, Note_off_c, 9, 42, 64
6, 28160, Note_on_c, 9, 42, 80
6, 28160, Note_on_c, 9, 46, 48
6, 28162, Note_off_c, 9, 42, 64
6, 28162, Note_off_c, 9, 46, 64
6, 28224, Note_on_c, 9, 42, 64
6, 28224, Note_on_c, 9, 50, 127
6, 28224, Note_on_c, 9, 37, 127
6, 28226, Note_off_c, 9, 42, 64
6, 28226, Note_off_c, 9, 50, 64
6, 28226, Note_off_c, 9, 37, 64
6, 28288, Note_on_c, 9, 36, 127
6, 28288, Note_on_c, 9, 42, 80
6, 28288, Note_on_c, 9, 47, 112
6, 28290, Note_off_c, 9, 36, 64
6, 28290, Note_off_c, 9, 42, 64
6, 28290, Note_off_c, 9, 47, 64
6, 28352, Note_on_c, 9, 36, 127
6, 28352, Note_on_c, 9, 42, 64
6, 28352, Note_on_c, 9, 43, 96
6, 28354, Note_off_c, 9, 36, 64
6, 28354, Note_off_c, 9, 42, 64
6, 28354, Note_off_c, 9, 43, 64
6, 28416, Note_on_c, 9, 36, 127
6, 28416, Note_on_c, 9, 42, 80
6, 28418, Note_off_c, 9, 36, 64
6, 28418, Note_off_c, 9, 42, 64
6, 28480, Note_on_c, 9, 42, 64
6, 28482, Note_off_c, 9, 42, 64
6, 28544, Note_on_c, 9, 42, 80
6, 28544, Note_on_c, 9, 46, 48
6, 28546, Note_off_c, 9, 42, 64
6, 28546, Note_off_c, 9, 46, 64
6, 28608, Note_on_c, 9, 40, 127
6, 28608, Note_on_c, 9, 42, 64
6, 28608, Note_on_c, 9, 37, 127
6, 28608, Note_on_c, 9, 39, 127
6, 28610, Note_off_c, 9, 40, 64
6, 28610, Note_off_c, 9, 42, 64
6, 28610, Note_off_c, 9, 37, 64
6, 28610, Note_off_c, 9, 39, 64
6, 28672, Note_on_c, 9, 42, 80
6, 28674, Note_off_c, 9, 42, 64
6, 28736, Note_on_c, 9, 36, 127
6, 28736, Note_on_c, 9, 42, 64
6, 28738, Note_off_c, 9, 36, 64
6, 28738, Note_off_c, 9, 42, 64
6, 28800, Note_on_c, 9, 36, 127
6, 28800, Note_on_c, 9, 42, 80
6, 28802, Note_off_c, 9, 36, 64
6, 28802, Note_off_c, 9, 42, 64
6, 28864, Note_on_c, 9, 42, 64
6, 28866, Note_off_c, 9, 42, 64
6, 28928, Note_on_c, 9, 42, 80
6, 28928, Note_on_c, 9, 46, 48
6, 28930, Note_off_c, 9, 42, 64
6, 28930, Note_off_c, 9, 46, 64
6, 28992, Note_on_c, 9, 40, 127
6, 28992, Note_on_c, 9, 42, 64
6, 28992, Note_on_c, 9, 37, 127
6, 28992, Note_on_c, 9, 39, 127
6, 28994, Note_off_c, 9, 40, 64
6, 28994, Note_off_c, 9, 42, 64
6, 28994, Note_off_c, 9, 37, 64
6, 28994, Note_off_c, 9, 39, 64
6, 29056, Note_on_c, 9, 36, 127
6, 29056, Note_on_c, 9, 42, 80
6, 29058, Note_off_c, 9, 36, 64
6, 29058, Note_off_c, 9, 42, 64
6, 29120, Note_on_c, 9, 36, 127
6, 29120, Note_on_c, 9, 42, 64
6, 29122, Note_off_c, 9, 36, 64
6, 29122, Note_off_c, 9, 42, 64
6, 29184, Note_on_c, 9, 36, 127
6, 29184, Note_on_c, 9, 42, 80
6, 29186, Note_off_c, 9, 36, 64
6, 29186, Note_off_c, 9, 42, 64
6, 29248, Note_on_c, 9, 42, 64
6, 29250, Note_off_c, 9, 42, 64
6, 29312, Note_on_c, 9, 42, 80
6, 29312, Note_on_c, 9, 46, 48
6, 29314, Note_off_c, 9, 42, 64
6, 29314, Note_off_c, 9, 46, 64
6, 29376, Note_on_c, 9, 40, 127
6, 29376, Note_on_c, 9, 42, 64
6, 29376, Note_on_c, 9, 37, 127
6, 29376, Note_on_c, 9, 39, 127
6, 29378, Note_off_c, 9, 40, 64
6, 29378, Note_off_c, 9, 42, 64
6, 29378, Note_off_c, 9, 37, 64
6, 29378, Note_off_c, 9, 39, 64
6, 29440, Note_on_c, 9, 42, 80
6, 29442, Note_off_c, 9, 42, 64
6, 29504, Note_on_c, 9, 36, 127
6, 29504, Note_on_c, 9, 42, 64
6, 29506, Note_off_c, 9, 36, 64
6, 29506, Note_off_c, 9, 42, 64
6, 29568, Note_on_c, 9, 36, 127
6, 29568, Note_on_c, 9, 42, 80
6, 29570, Note_off_c, 9, 36, 64
6, 29570, Note_off_c, 9, 42, 64
6, 29632, Note_on_c, 9, 42, 64
6, 29634, Note_off_c, 9, 42, 64
6, 29696, Note_on_c, 9, 42, 80
6, 29696, Note_on_c, 9, 46, 48
6, 29698, Note_off_c, 9, 42, 64
6, 29698, Note_off_c, 9, 46, 64
6, 29760, Note_on_c, 9, 40, 127
6, 29760, Note_on_c, 9, 42, 64
6, 29760, Note_on_c, 9, 37, 127
6, 29760, Note_on_c, 9, 39, 127
6, 29762, Note_off_c, 9, 40, 64
6, 29762, Note_off_c, 9, 42, 64
6, 29762, Note_off_c, 9, 37, 64
6, 29762, Note_off_c, 9, 39, 64
6, 29824, Note_on_c, 9, 36, 127
6, 29824, Note_on_c, 9, 42, 80
6, 29826, Note_off_c, 9, 36, 64
6, 29826, Note_off_c, 9, 42, 64
6, 29888, Note_on_c, 9, 36, 127
6, 29888, Note_on_c, 9, 42, 64
6, 29890, Note_off_c, 9, 36, 64
6, 29890, Note_off_c, 9, 42, 64
6, 29952, Note_on_c, 9, 36, 127
6, 29952, Note_on_c, 9, 42, 80
6, 29954, Note_off_c, 9, 36, 64
6, 29954, Note_off_c, 9, 42, 64
6, 30016, Note_on_c, 9, 42, 64
6, 30018, Note_off_c, 9, 42, 64
6, 30080, Note_on_c, 9, 42, 80
6, 30080, Note_on_c, 9, 46, 48
6, 30082, Note_off_c, 9, 42, 64
6, 30082, Note_off_c, 9, 46, 64
6, 30144, Note_on_c, 9, 40, 127
6, 30144, Note_on_c, 9, 42, 64
6, 30144, Note_on_c, 9, 37, 127
6, 30144, Note_on_c, 9, 39, 127
6, 30146, Note_off_c, 9, 40, 64
6, 30146, Note_off_c, 9, 42, 64
6, 30146, Note_off_c, 9, 37, 64
6, 30146, Note_off_c, 9, 39, 64
6, 30208, Note_on_c, 9, 42, 80
6, 30210, Note_off_c, 9, 42, 64
6, 30272, Note_on_c, 9, 36, 127
6, 30272, Note_on_c, 9, 42, 64
6, 30274, Note_off_c, 9, 36, 64
6, 30274, Note_off_c, 9, 42, 64
6, 30336, Note_on_c, 9, 36, 127
6, 30336, Note_on_c, 9, 42, 80
6, 30338, Note_off_c, 9, 36, 64
6, 30338, Note_off_c, 9, 42, 64
6, 30400, Note_on_c, 9, 42, 64
6, 30402, Note_off_c, 9, 42, 64
6, 30464, Note_on_c, 9, 42, 80
6, 30464, Note_on_c, 9, 46, 48
6, 30466, Note_off_c, 9, 42, 64
6, 30466, Note_off_c, 9, 46, 64
6, 30528, Note_on_c, 9, 40, 127
6, 30528, Note_on_c, 9, 42, 64
6, 30528, Note_on_c, 9, 37, 127
6, 30528, Note_on_c, 9, 39, 127
6, 30530, Note_off_c, 9, 40, 64
6, 30530, Note_off_c, 9, 42, 64
6, 30530, Note_off_c, 9, 37, 64
6, 30530, Note_off_c, 9, 39, 64
6, 30592, Note_on_c, 9, 36, 127
6, 30592, Note_on_c, 9, 42, 80
6, 30594, Note_off_c, 9, 36, 64
6, 30594, Note_off_c, 9, 42, 64
6, 30656, Note_on_c, 9, 36, 127
6, 30656, Note_on_c, 9, 42, 64
6, 30658, Note_off_c, 9, 36, 64
6, 30658, Note_off_c, 9, 42, 64
6, 30720, Note_on_c, 9, 36, 127
6, 30720, Note_on_c, 9, 42, 80
6, 30722, Note_off_c, 9, 36, 64
6, 30722, Note_off_c, 9, 42, 64
6, 30784, Note_on_c, 9, 42, 64
6, 30786, Note_off_c, 9, 42, 64
6, 30848, Note_on_c, 9, 42, 80
6, 30848, Note_on_c, 9, 46, 48
6, 30850, Note_off_c, 9, 42, 64
6, 30850, Note_off_c, 9, 46, 64
6, 30912, Note_on_c, 9, 40, 127
6, 30912, Note_on_c, 9, 42, 64
6, 30912, Note_on_c, 9, 37, 127
6, 30912, Note_on_c, 9, 39, 127
6, 30914, Note_off_c, 9, 40, 64
6, 30914, Note_off_c, 9, 42, 64
6, 30914, Note_off_c, 9, 37, 64
6, 30914, Note_off_c, 9, 39, 64
6, 30976, Note_on_c, 9, 42, 80
6, 30978, Note_off_c, 9, 42, 64
6, 31040, Note_on_c, 9, 36, 127
6, 31040, Note_on_c, 9, 42, 64
6, 31042, Note_off_c, 9, 36, 64
6, 31042, Note_off_c, 9, 42, 64
6, 31104, Note_on_c, 9, 36, 127
6, 31104, Note_on_c, 9, 42, 80
6, 31106, Note_off_c, 9, 36, 64
6, 31106, Note_off_c, 9, 42, 64
6, 31168, Note_on_c, 9, 42, 64
6, 31170, Note_off_c, 9, 42, 64
6, 31232, Note_on_c, 9, 42, 80
6, 31232, Note_on_c, 9, 46, 48
6, 31234, Note_off_c, 9, 42, 64
6, 31234, Note_off_c, 9, 46, 64
6, 31296, Note_on_c, 9, 40, 127
6, 31296, Note_on_c, 9, 42, 64
6, 31296, Note_on_c, 9, 50, 127
6, 31296, Note_on_c, 9, 37, 127
6, 31296, Note_on_c, 9, 39, 127
6, 31298, Note_off_c, 9, 40, 64
6, 31298, Note_off_c, 9, 42, 64
6, 31298, Note_off_c, 9, 50, 64
6, 31298, Note_off_c, 9, 37, 64
6, 31298, Note_off_c, 9, 39, 64
6, 31360, Note_on_c, 9, 36, 127
6, 31360, Note_on_c, 9, 42, 80
6, 31360, Note_on_c, 9, 47, 112
6, 31362, Note_off_c, 9, 36, 64
6, 31362, Note_off_c, 9, 42, 64
6, 31362, Note_off_c, 9, 47, 64
6, 31424, Note_on_c, 9, 36, 127
6, 31424, Note_on_c, 9, 42, 64
6, 31424, Note_on_c, 9, 43, 96
6, 31426, Note_off_c, 9, 36, 64
6, 31426, Note_off_c, 9, 42, 64
6, 31426, Note_off_c, 9, 43, 64
6, 31488, Note_on_c, 9, 36, 127
6, 31488, Note_on_c, 9, 42, 80
6, 31490, Note_off_c, 9, 36, 64
6, 31490, Note_off_c, 9, 42, 64
6, 31552, Note_on_c, 9, 42, 64
6, 31554, Note_off_c, 9, 42, 64
6, 31616, Note_on_c, 9, 42, 80
6, 31616, Note_on_c, 9, 46, 48
6, 31618, Note_off_c, 9, 42, 64
6, 31618, Note_off_c, 9, 46, 64
6, 31680, Note_on_c, 9, 40, 127
6, 31680, Note_on_c, 9, 42, 64
6, 31680, Note_on_c, 9, 37, 127
6, 31680, Note_on_c, 9, 39, 127
6, 31682, Note_off_c, 9, 40, 64
6, 31682, Note_off_c, 9, 42, 64
6, 31682, Note_off_c, 9, 37, 64
6, 31682, Note_off_c, 9, 39, 64
6, 31744, Note_on_c, 9, 42, 80
6, 31746, Note_off_c, 9, 42, 64
6, 31808, Note_on_c, 9, 36, 127
6, 31808, Note_on_c, 9, 42, 64
6, 31810, Note_off_c, 9, 36, 64
6, 31810, Note_off_c, 9, 42, 64
6, 31872, Note_on_c, 9, 36, 127
6, 31872, Note_on_c, 9, 42, 80
6, 31874, Note_off_c, 9, 36, 64
6, 31874, Note_off_c, 9, 42, 64
6, 31936, Note_on_c, 9, 42, 64
6, 31938, Note_off_c, 9, 42, 64
6, 32000, Note_on_c, 9, 42, 80
6, 32000, Note_on_c, 9, 46, 48
6, 32002, Note_off_c, 9, 42, 64
6, 32002, Note_off_c, 9, 46, 64
6, 32064, Note_on_c, 9, 40, 127
6, 32064, Note_on_c, 9, 42, 64
6, 32064, Note_on_c, 9, 37, 127
6, 32064, Note_on_c, 9, 39, 127
6, 32066, Note_off_c, 9, 40, 64
6, 32066, Note_off_c, 9, 42, 64
6, 32066, Note_off_c, 9, 37, 64
6, 32066, Note_off_c, 9, 39, 64
6, 32128, Note_on_c, 9, 36, 127
6, 32128, Note_on_c, 9, 42, 80
6, 32130, Note_off_c, 9, 36, 64
6, 32130, Note_off_c, 9, 42, 64
6, 32192, Note_on_c, 9, 36, 127
6, 32192, Note_on_c, 9, 42, 64
6, 32194, Note_off_c, 9, 36, 64
6, 32194, Note_off_c, 9, 42, 64
6, 32256, Note_on_c, 9, 36, 127
6, 32256, Note_on_c, 9, 42, 80
6, 32258, Note_off_c, 9, 36, 64
6, 32258, Note_off_c, 9, 42, 64
6, 32320, Note_on_c, 9, 42, 64
6, 32322, Note_off_c, 9, 42, 64
6, 32384, Note_on_c, 9, 42, 80
6, 32384, Note_on_c, 9, 46, 48
6, 32386, Note_off_c, 9, 42, 64
6, 32386, Note_off_c, 9, 46, 64
6, 32448, Note_on_c, 9, 40, 127
6, 32448, Note_on_c, 9, 42, 64
6, 32448, Note_on_c, 9, 37, 127
6, 32448, Note_on_c, 9, 39, 127
6, 32450, Note_off_c, 9, 40, 64
6, 32450, Note_off_c, 9, 42, 64
6, 32450, Note_off_c, 9, 37, 64
6, 32450, Note_off_c, 9, 39, 64
6, 32512, Note_on_c, 9, 42, 80
6, 32514, Note_off_c, 9, 42, 64
6, 32576, Note_on_c, 9, 36, 127
6, 32576, Note_on_c, 9, 42, 64
6, 32578, Note_off_c, 9, 36, 64
6, 32578, Note_off_c, 9, 42, 64
6, 32640, Note_on_c, 9, 36, 127
6, 32640, Note_on_c, 9, 42, 80
6, 32642, Note_off_c, 9, 36, 64
6, 32642, Note_off_c, 9, 42, 64
6, 32704, Note_on_c, 9, 42, 64
6, 32706, Note_off_c, 9, 42, 64
6, 32768, Note_on_c, 9, 42, 80
6, 32768, Note_on_c, 9, 46, 48
6, 32770, Note_off_c, 9, 42, 64
6, 32770, Note_off_c, 9, 46, 64
6, 32832, Note_on_c, 9, 40, 127
6, 32832, Note_on_c, 9, 42, 64
6, 32832, Note_on_c, 9, 37, 127
6, 32832, Note_on_c, 9, 39, 127
6, 32834, Note_off_c, 9, 40, 64
6, 32834, Note_off_c, 9, 42, 64
6, 32834, Note_off_c, 9, 37, 64
6, 32834, Note_off_c, 9, 39, 64
6, 32896, Note_on_c, 9, 36, 127
6, 32896, Note_on_c, 9, 42, 80
6, 32898, Note_off_c, 9, 36, 64
6, 32898, Note_off_c, 9, 42, 64
6, 32960, Note_on_c, 9, 36, 127
6, 32960, Note_on_c, 9, 42, 64
6, 32962, Note_off_c, 9, 36, 64
6, 32962, Note_off_c, 9, 42, 64
6, 33024, Note_on_c, 9, 36, 127
6, 33024, Note_on_c, 9, 42, 80
6, 33026, Note_off_c, 9, 36, 64
6, 33026, Note_off_c, 9, 42, 64
6, 33088, Note_on_c, 9, 42, 64
6, 33090, Note_off_c, 9, 42, 64
6, 33152, Note_on_c, 9, 42, 80
6, 33152, Note_on_c, 9, 46, 48
6, 33154, Note_off_c, 9, 42, 64
6, 33154, Note_off_c, 9, 46, 64
6, 33216, Note_on_c, 9, 40, 127
6, 33216, Note_on_c, 9, 42, 64
6, 33216, Note_on_c, 9, 37, 127
6, 33216, Note_on_c, 9, 39, 127
6, 33218, Note_off_c, 9, 40, 64
6, 33218, Note_off_c, 9, 42, 64
6, 33218, Note_off_c, 9, 37, 64
6, 33218, Note_off_c, 9, 39, 64
6, 33280, Note_on_c, 9, 42, 80
6, 33282, Note_off_c, 9, 42, 64
6, 33344, Note_on_c, 9, 36, 127
6, 33344, Note_on_c, 9, 42, 64
6, 33346, Note_off_c, 9, 36, 64
6, 33346, Note_off_c, 9, 42, 64
6, 33408, Note_on_c, 9, 36, 127
6, 33408, Note_on_c, 9, 42, 80
6, 33410, Note_off_c, 9, 36, 64
6, 33410, Note_off_c, 9, 42, 64
6, 33472, Note_on_c, 9, 42, 64
6, 33474, Note_off_c, 9, 42, 64
6, 33536, Note_on_c, 9, 42, 80
6, 33536, Note_on_c, 9, 46, 48
6, 33538, Note_off_c, 9, 42, 64
6, 33538, Note_off_c, 9, 46, 64
6, 33600, Note_on_c, 9, 40, 127
6, 33600, Note_on_c, 9, 42, 64
6, 33600, Note_on_c, 9, 37, 127
6, 33600, Note_on_c, 9, 39, 127
6, 33602, Note_off_c, 9, 40, 64
6, 33602, Note_off_c, 9, 42, 64
6, 33602, Note_off_c, 9, 37, 64
6, 33602, Note_off_c, 9, 39, 64
6, 33664, Note_on_c, 9, 36, 127
6, 33664, Note_on_c, 9, 42, 80
6, 33666, Note_off_c, 9, 36, 64
6, 33666, Note_off_c, 9, 42, 64
6, 33728, Note_on_c, 9, 36, 127
6, 33728, Note_on_c, 9, 42, 64
6, 33730, Note_off_c, 9, 36, 64
6, 33730, Note_off_c, 9, 42, 64
6, 33792, Note_on_c, 9, 36, 127
6, 33792, Note_on_c, 9, 42, 80
6, 33794, Note_off_c, 9, 36, 64
6, 33794, Note_off_c, 9, 42, 64
6, 33856, Note_on_c, 9, 42, 64
6, 33858, Note_off_c, 9, 42, 64
6, 33920, Note_on_c, 9, 42, 80
6, 33920, Note_on_c, 9, 46, 48
6, 33922, Note_off_c, 9, 42, 64
6, 33922, Note_off_c, 9, 46, 64
6, 33984, Note_on_c, 9, 40, 127
6, 33984, Note_on_c, 9, 42, 64
6, 33984, Note_on_c, 9, 37, 127
6, 33984, Note_on_c, 9, 39, 127
6, 33986, Note_off_c, 9, 40, 64
6, 33986, Note_off_c, 9, 42, 64
6, 33986, Note_off_c, 9, 37, 64
6, 33986, Note_off_c, 9, 39, 64
6, 34048, Note_on_c, 9, 42, 80
6, 34050, Note_off_c, 9, 42, 64
6, 34112, Note_on_c, 9, 36, 127
6, 34112, Note_on_c, 9, 42, 64
6, 34114, Note_off_c, 9, 36, 64
6, 34114, Note_off_c, 9, 42, 64
6, 34176, Note_on_c, 9, 36, 127
6, 34176, Note_on_c, 9, 42, 80
6, 34178, Note_off_c, 9, 36, 64
6, 34178, Note_off_c, 9, 42, 64
6, 34240, Note_on_c, 9, 42, 64
6, 34242, Note_off_c, 9, 42, 64
6, 34304, Note_on_c, 9, 42, 80
6, 34304, Note_on_c, 9, 46, 48
6, 34306, Note_off_c, 9, 42, 64
6, 34306, Note_off_c, 9, 46, 64
6, 34368, Note_on_c, 9, 40, 127
6, 34368, Note_on_c, 9, 42, 64
6, 34368, Note_on_c, 9, 37, 127
6, 34368, Note_on_c, 9, 39, 127
6, 34370, Note_off_c, 9, 40, 64
6, 34370, Note_off_c, 9, 42, 64
6, 34370, Note_off_c, 9, 37, 64
6, 34370, Note_off_c, 9, 39, 64
6, 34432, Note_on_c, 9, 36, 127
6, 34432, Note_on_c, 9, 42, 80
6, 34434, Note_off_c, 9, 36, 64
6, 34434, Note_off_c, 9, 42, 64
6, 34496, Note_on_c, 9, 36, 127
6, 34496, Note_on_c, 9, 42, 64
6, 34498, Note_off_c, 9, 36, 64
6, 34498, Note_off_c, 9, 42, 64
6, 34560, Note_on_c, 9, 36, 127
6, 34560, Note_on_c, 9, 42, 80
6, 34562, Note_off_c, 9, 36, 64
6, 34562, Note_off_c, 9, 42, 64
6, 34624, Note_on_c, 9, 42, 64
6, 34626, Note_off_c, 9, 42, 64
6, 34688, Note_on_c, 9, 42, 80
6, 34688, Note_on_c, 9, 46, 48
6, 34690, Note_off_c, 9, 42, 64
6, 34690, Note_off_c, 9, 46, 64
6, 34752, Note_on_c, 9, 40, 127
6, 34752, Note_on_c, 9, 42, 64
6, 34752, Note_on_c, 9, 37, 127
6, 34752, Note_on_c, 9, 39, 127
6, 34754, Note_off_c, 9, 40, 64
6, 34754, Note_off_c, 9, 42, 64
6, 34754, Note_off_c, 9, 37, 64
6, 34754, Note_off_c, 9, 39, 64
6, 34816, Note_on_c, 9, 42, 80
6, 34818, Note_off_c, 9, 42, 64
6, 34880, Note_on_c, 9, 36, 127
6, 34880, Note_on_c, 9, 42, 64
6, 34882, Note_off_c, 9, 36, 64
6, 34882, Note_off_c, 9, 42, 64
6, 34944, Note_on_c, 9, 36, 127
6, 34944, Note_on_c, 9, 42, 80
6, 34946, Note_off_c, 9, 36, 64
6, 34946, Note_off_c, 9, 42, 64
6, 35008, Note_on_c, 9, 42, 64
6, 35010, Note_off_c, 9, 42, 64
6, 35072, Note_on_c, 9, 42, 80
6, 35072, Note_on_c, 9, 46, 48
6, 35074, Note_off_c, 9, 42, 64
6, 35074, Note_off_c, 9, 46, 64
6, 35136, Note_on_c, 9, 40, 127
6, 35136, Note_on_c, 9, 42, 64
6, 35136, Note_on_c, 9, 37, 127
6, 35136, Note_on_c, 9, 39, 127
6, 35138, Note_off_c, 9, 40, 64
6, 35138, Note_off_c, 9, 42, 64
6, 35138, Note_off_c, 9, 37, 64
6, 35138, Note_off_c, 9, 39, 64
6, 35200, Note_on_c, 9, 36, 127
6, 35200, Note_on_c, 9, 42, 80
6, 35202, Note_off_c, 9, 36, 64
6, 35202, Note_off_c, 9, 42, 64
6, 35264, Note_on_c, 9, 36, 127
6, 35264, Note_on_c, 9, 42, 64
6, 35266, Note_off_c, 9, 36, 64
6, 35266, Note_off_c, 9, 42, 64
6, 35328, Note_on_c, 9, 36, 127
6, 35328, Note_on_c, 9, 42, 80
6, 35330, Note_off_c, 9, 36, 64
6, 35330, Note_off_c, 9, 42, 64
6, 35392, Note_on_c, 9, 42, 64
6, 35394, Note_off_c, 9, 42, 64
6, 35456, Note_on_c, 9, 42, 80
6, 35456, Note_on_c, 9, 46, 48
6, 35458, Note_off_c, 9, 42, 64
6, 35458, Note_off_c, 9, 46, 64
6, 35520, Note_on_c, 9, 40, 127
6, 35520, Note_on_c, 9, 42, 64
6, 35520, Note_on_c, 9, 37, 127
6, 35520, Note_on_c, 9, 39, 127
6, 35522, Note_off_c, 9, 40, 64
6, 35522, Note_off_c, 9, 42, 64
6, 35522, Note_off_c, 9, 37, 64
6, 35522, Note_off_c, 9, 39, 64
6, 35584, Note_on_c, 9, 42, 80
6, 35586, Note_off_c, 9, 42, 64
6, 35648, Note_on_c, 9, 36, 127
6, 35648, Note_on_c, 9, 42, 64
6, 35650, Note_off_c, 9, 36, 64
6, 35650, Note_off_c, 9, 42, 64
6, 35712, Note_on_c, 9, 36, 127
6, 35712, Note_on_c, 9, 42, 80
6, 35714, Note_off_c, 9, 36, 64
6, 35714, Note_off_c, 9, 42, 64
6, 35776, Note_on_c, 9, 42, 64
6, 35778, Note_off_c, 9, 42, 64
6, 35840, Note_on_c, 9, 42, 80
6, 35840, Note_on_c, 9, 46, 48
6, 35842, Note_off_c, 9, 42, 64
6, 35842, Note_off_c, 9, 46, 64
6, 35904, Note_on_c, 9, 40, 127
6, 35904, Note_on_c, 9, 42, 64
6, 35904, Note_on_c, 9, 37, 127
6, 35904, Note_on_c, 9, 39, 127
6, 35906, Note_off_c, 9, 40, 64
6, 35906, Note_off_c, 9, 42, 64
6, 35906, Note_off_c, 9, 37, 64
6, 35906, Note_off_c, 9, 39, 64
6, 35968, Note_on_c, 9, 36, 127
6, 35968, Note_on_c, 9, 42, 80
6, 35970, Note_off_c, 9, 36, 64
6, 35970, Note_off_c, 9, 42, 64
6, 36032, Note_on_c, 9, 36, 127
6, 36032, Note_on_c, 9, 42, 64
6, 36034, Note_off_c, 9, 36, 64
6, 36034, Note_off_c, 9, 42, 64
6, 36096, Note_on_c, 9, 36, 127
6, 36096, Note_on_c, 9, 42, 80
6, 36098, Note_off_c, 9, 36, 64
6, 36098, Note_off_c, 9, 42, 64
6, 36160, Note_on_c, 9, 42, 64
6, 36162, Note_off_c, 9, 42, 64
6, 36224, Note_on_c, 9, 42, 80
6, 36224, Note_on_c, 9, 46, 48
6, 36226, Note_off_c, 9, 42, 64
6, 36226, Note_off_c, 9, 46, 64
6, 36288, Note_on_c, 9, 40, 127
6, 36288, Note_on_c, 9, 42, 64
6, 36288, Note_on_c, 9, 37, 127
6, 36288, Note_on_c, 9, 39, 127
6, 36290, Note_off_c, 9, 40, 64
6, 36290, Note_off_c, 9, 42, 64
6, 36290, Note_off_c, 9, 37, 64
6, 36290, Note_off_c, 9, 39, 64
6, 36352, Note_on_c, 9, 42, 80
6, 36354, Note_off_c, 9, 42, 64
6, 36416, Note_on_c, 9, 36, 127
6, 36416, Note_on_c, 9, 42, 64
6, 36418, Note_off_c, 9, 36, 64
6, 36418, Note_off_c, 9, 42, 64
6, 36480, Note_on_c, 9, 36, 127
6, 36480, Note_on_c, 9, 42, 80
6, 36482, Note_off_c, 9, 36, 64
6, 36482, Note_off_c, 9, 42, 64
6, 36544, Note_on_c, 9, 42, 64
6, 36546, Note_off_c, 9, 42, 64
6, 36608, Note_on_c, 9, 42, 80
6, 36608, Note_on_c, 9, 46, 48
6, 36610, Note_off_c, 9, 42, 64
6, 36610, Note_off_c, 9, 46, 64
6, 36672, Note_on_c, 9, 40, 127
6, 36672, Note_on_c, 9, 42, 64
6, 36672, Note_on_c, 9, 37, 127
6, 36672, Note_on_c, 9, 39, 127
6, 36674, Note_off_c, 9, 40, 64
6, 36674, Note_off_c, 9, 42, 64
6, 36674, Note_off_c, 9, 37, 64
6, 36674, Note_off_c, 9, 39, 64
6, 36736, Note_on_c, 9, 36, 127
6, 36736, Note_on_c, 9, 42, 80
6, 36738, Note_off_c, 9, 36, 64
6, 36738, Note_off_c, 9, 42, 64
6, 36800, Note_on_c, 9, 36, 127
6, 36800, Note_on_c, 9, 42, 64
6, 36802, Note_off_c, 9, 36, 64
6, 36802, Note_off_c, 9, 42, 64
6, 36864, Note_on_c, 9, 36, 127
6, 36864, Note_on_c, 9, 42, 80
6, 36866, Note_off_c, 9, 36, 64
6, 36866, Note_off_c, 9, 42, 64
6, 36928, Note_on_c, 9, 42, 64
6, 36930, Note_off_c, 9, 42, 64
6, 36992, Note_on_c, 9, 42, 80
6, 36992, Note_on_c, 9, 46, 48
6, 36994, Note_off_c, 9, 42, 64
6, 36994, Note_off_c, 9, 46, 64
6, 37056, Note_on_c, 9, 40, 127
6, 37056, Note_on_c, 9, 42, 64
6, 37056, Note_on_c, 9, 37, 127
6, 37056, Note_on_c, 9, 39, 127
6, 37058, Note_off_c, 9, 40, 64
6, 37058, Note_off_c, 9, 42, 64
6, 37058, Note_off_c, 9, 37, 64
6, 37058, Note_off_c, 9, 39, 64
6, 37120, Note_on_c, 9, 42, 80
6, 37122, Note_off_c, 9, 42, 64
6, 37184, Note_on_c, 9, 36, 127
6, 37184, Note_on_c, 9, 42, 64
6, 37186, Note_off_c, 9, 36, 64
6, 37186, Note_off_c, 9, 42, 64
6, 37248, Note_on_c, 9, 36, 127
6, 37248, Note_on_c, 9, 42, 80
6, 37250, Note_off_c, 9, 36, 64
6, 37250, Note_off_c, 9, 42, 64
6, 37312, Note_on_c, 9, 42, 64
6, 37314, Note_off_c, 9, 42, 64
6, 37376, Note_on_c, 9, 42, 80
6, 37376, Note_on_c, 9, 46, 48
6, 37378, Note_off_c, 9, 42, 64
6, 37378, Note_off_c, 9, 46, 64
6, 37440, Note_on_c, 9, 40, 127
6, 37440, Note_on_c, 9, 42, 64
6, 37440, Note_on_c, 9, 50, 127
6, 37440, Note_on_c, 9, 37, 127
6, 37440, Note_on_c, 9, 39, 127
6, 37442, Note_off_c, 9, 40, 64
6, 37442, Note_off_c, 9, 42, 64
6, 37442, Note_off_c, 9, 50, 64
6, 37442, Note_off_c, 9, 37, 64
6, 37442, Note_off_c, 9, 39, 64
6, 37504, Note_on_c, 9, 36, 127
6, 37504, Note_on_c, 9, 42, 80
6, 37504, Note_on_c, 9, 47, 112
6, 37506, Note_off_c, 9, 36, 64
6, 37506, Note_off_c, 9, 42, 64
6, 37506, Note_off_c, 9, 47, 64
6, 37568, Note_on_c, 9, 36, 127
6, 37568, Note_on_c, 9, 42, 64
6, 37568, Note_on_c, 9, 43, 96
6, 37570, Note_off_c, 9, 36, 64
6, 37570, Note_off_c, 9, 42, 64
6, 37570, Note_off_c, 9, 43, 64
6, 37632, Note_on_c, 9, 36, 127
6, 37632, Note_on_c, 9, 42, 80
6, 37634, Note_off_c, 9, 36, 64
6, 37634, Note_off_c, 9, 42, 64
6, 37696, Note_on_c, 9, 42, 64
6, 37698, Note_off_c, 9, 42, 64
6, 37760, Note_on_c, 9, 42, 80
6, 37760, Note_on_c, 9, 46, 48
6, 37762, Note_off_c, 9, 42, 64
6, 37762, Note_off_c, 9, 46, 64
6, 37824, Note_on_c, 9, 40, 127
6, 37824, Note_on_c, 9, 42, 64
6, 37824, Note_on_c, 9, 37, 127
6, 37824, Note_on_c, 9, 39, 127
6, 37826, Note_off_c, 9, 40, 64
6, 37826, Note_off_c, 9, 42, 64
6, 37826, Note_off_c, 9, 37, 64
6, 37826, Note_off_c, 9, 39, 64
6, 37888, Note_on_c, 9, 42, 80
6, 37890, Note_off_c, 9, 42, 64
6, 37952, Note_on_c, 9, 36, 127
6, 37952, Note_on_c, 9, 42, 64
6, 37954, Note_off_c, 9, 36, 64
6, 37954, Note_off_c, 9, 42, 64
6, 38016, Note_on_c, 9, 36, 127
6, 38016, Note_on_c, 9, 42, 80
6, 38018, Note_off_c, 9, 36, 64
6, 38018, Note_off_c, 9, 42, 64
6, 38080, Note_on_c, 9, 42, 64
6, 38082, Note_off_c, 9, 42, 64
6, 38144, Note_on_c, 9, 42, 80
6, 38144, Note_on_c, 9, 46, 48
6, 38146, Note_off_c, 9, 42, 64
6, 38146, Note_off_c, 9, 46, 64
6, 38208, Note_on_c, 9, 40, 127
6, 38208, Note_on_c, 9, 42, 64
6, 38208, Note_on_c, 9, 37, 127
6, 38208, Note_on_c, 9, 39, 127
6, 38210, Note_off_c, 9, 40, 64
6, 38210, Note_off_c, 9, 42, 64
6, 38210, Note_off_c, 9, 37, 64
6, 38210, Note_off_c, 9, 39, 64
6, 38272, Note_on_c, 9, 36, 127
6, 38272, Note_on_c, 9, 42, 80
6, 38274, Note_off_c, 9, 36, 64
6, 38274, Note_off_c, 9, 42, 64
6, 38336, Note_on_c, 9, 36, 127
6, 38336, Note_on_c, 9, 42, 64
6, 38338, Note_off_c, 9, 36, 64
6, 38338, Note_off_c, 9, 42, 64
6, 38400, Note_on_c, 9, 36, 127
6, 38400, Note_on_c, 9, 42, 80
6, 38402, Note_off_c, 9, 36, 64
6, 38402, Note_off_c, 9, 42, 64
6, 38464, Note_on_c, 9, 42, 64
6, 38466, Note_off_c, 9, 42, 64
6, 38528, Note_on_c, 9, 42, 80
6, 38528, Note_on_c, 9, 46, 48
6, 38530, Note_off_c, 9, 42, 64
6, 38530, Note_off_c, 9, 46, 64
6, 38592, Note_on_c, 9, 40, 127
6, 38592, Note_on_c, 9, 42, 64
6, 38592, Note_on_c, 9, 37, 127
6, 38592, Note_on_c, 9, 39, 127
6, 38594, Note_off_c, 9, 40, 64
6, 38594, Note_off_c, 9, 42, 64
6, 38594, Note_off_c, 9, 37, 64
6, 38594, Note_off_c, 9, 39, 64
6, 38656, Note_on_c, 9, 42, 80
6, 38658, Note_off_c, 9, 42, 64
6, 38720, Note_on_c, 9, 36, 127
6, 38720, Note_on_c, 9, 42, 64
6, 38722, Note_off_c, 9, 36, 64
6, 38722, Note_off_c, 9, 42, 64
6, 38784, Note_on_c, 9, 36, 127
6, 38784, Note_on_c, 9, 42, 80
6, 38786, Note_off_c, 9, 36, 64
6, 38786, Note_off_c, 9, 42, 64
6, 38848, Note_on_c, 9, 42, 64
6, 38850, Note_off_c, 9, 42, 64
6, 38912, Note_on_c, 9, 42, 80
6, 38912, Note_on_c, 9, 46, 48
6, 38914, Note_off_c, 9, 42, 64
6, 38914, Note_off_c, 9, 46, 64
6, 38976, Note_on_c, 9, 40, 127
6, 38976, Note_on_c, 9, 42, 64
6, 38976, Note_on_c, 9, 37, 127
6, 38976, Note_on_c, 9, 39, 127
6, 38978, Note_off_c, 9, 40, 64
6, 38978, Note_off_c, 9, 42, 64
6, 38978, Note_off_c, 9, 37, 64
6, 38978, Note_off_c, 9, 39, 64
6, 39040, Note_on_c, 9, 36, 127
6, 39040, Note_on_c, 9, 42, 80
6, 39042, Note_off_c, 9, 36, 64
6, 39042, Note_off_c, 9, 42, 64
6, 39104, Note_on_c, 9, 36, 127
6, 39104, Note_on_c, 9, 42, 64
6, 39106, Note_off_c, 9, 36, 64
6, 39106, Note_off_c, 9, 42, 64
6, 39168, Note_on_c, 9, 36, 127
6, 39168, Note_on_c, 9, 42, 80
6, 39170, Note_off_c, 9, 36, 64
6, 39170, Note_off_c, 9, 42, 64
6, 39232, Note_on_c, 9, 42, 64
6, 39234, Note_off_c, 9, 42, 64
6, 39296, Note_on_c, 9, 42, 80
6, 39296, Note_on_c, 9, 46, 48
6, 39298, Note_off_c, 9, 42, 64
6, 39298, Note_off_c, 9, 46, 64
6, 39360, Note_on_c, 9, 40, 127
6, 39360, Note_on_c, 9, 42, 64
6, 39360, Note_on_c, 9, 37, 127
6, 39360, Note_on_c, 9, 39, 127
6, 39362, Note_off_c, 9, 40, 64
6, 39362, Note_off_c, 9, 42, 64
6, 39362, Note_off_c, 9, 37, 64
6, 39362, Note_off_c, 9, 39, 64
6, 39424, Note_on_c, 9, 42, 80
6, 39426, Note_off_c, 9, 42, 64
6, 39488, Note_on_c, 9, 36, 127
6, 39488, Note_on_c, 9, 42, 64
6, 39490, Note_off_c, 9, 36, 64
6, 39490, Note_off_c, 9, 42, 64
6, 39552, Note_on_c, 9, 36, 127
6, 39552, Note_on_c, 9, 42, 80
6, 39554, Note_off_c, 9, 36, 64
6, 39554, Note_off_c, 9, 42, 64
6, 39616, Note_on_c, 9, 42, 64
6, 39618, Note_off_c, 9, 42, 64
6, 39680, Note_on_c, 9, 42, 80
6, 39680, Note_on_c, 9, 46, 48
6, 39682, Note_off_c, 9, 42, 64
6, 39682, Note_off_c, 9, 46, 64
6, 39744, Note_on_c, 9, 40, 127
6, 39744, Note_on_c, 9, 42, 64
6, 39744, Note_on_c, 9, 37, 127
6, 39744, Note_on_c, 9, 39, 127
6, 39746, Note_off_c, 9, 40, 64
6, 39746, Note_off_c, 9, 42, 64
6, 39746, Note_off_c, 9, 37, 64
6, 39746, Note_off_c, 9, 39, 64
6, 39808, Note_on_c, 9, 36, 127
6, 39808, Note_on_c, 9, 42, 80
6, 39810, Note_off_c, 9, 36, 64
6, 39810, Note_off_c, 9, 42, 64
6, 39872, Note_on_c, 9, 36, 127
6, 39872, Note_on_c, 9, 42, 64
6, 39874, Note_off_c, 9, 36, 64
6, 39874, Note_off_c, 9, 42, 64
6, 39936, Note_on_c, 9, 36, 127
6, 39936, Note_on_c, 9, 42, 80
6, 39938, Note_off_c, 9, 36, 64
6, 39938, Note_off_c, 9, 42, 64
6, 40000, Note_on_c, 9, 42, 64
6, 40002, Note_off_c, 9, 42, 64
6, 40064, Note_on_c, 9, 42, 80
6, 40064, Note_on_c, 9, 46, 48
6, 40066, Note_off_c, 9, 42, 64
6, 40066, Note_off_c, 9, 46, 64
6, 40128, Note_on_c, 9, 40, 127
6, 40128, Note_on_c, 9, 42, 64
6, 40128, Note_on_c, 9, 37, 127
6, 40128, Note_on_c, 9, 39, 127
6, 40130, Note_off_c, 9, 40, 64
6, 40130, Note_off_c, 9, 42, 64
6, 40130, Note_off_c, 9, 37, 64
6, 40130, Note_off_c, 9, 39, 64
6, 40192, Note_on_c, 9, 42, 80
6, 40194, Note_off_c, 9, 42, 64
6, 40256, Note_on_c, 9, 36, 127
6, 40256, Note_on_c, 9, 42, 64
6, 40258, Note_off_c, 9, 36, 64
6, 40258, Note_off_c, 9, 42, 64
6, 40320, Note_on_c, 9, 36, 64
6, 40320, Note_on_c, 9, 38, 64
6, 40320, Note_on_c, 9, 42, 80
6, 40322, Note_off_c, 9, 36, 64
6, 40322, Note_off_c, 9, 38, 64
6, 40322, Note_off_c, 9, 42, 64
6, 40352, Note_on_c, 9, 36, 80
6, 40352, Note_on_c, 9, 38, 80
6, 40354, Note_off_c, 9, 36, 64
6, 40354, Note_off_c, 9, 38, 64
6, 40384, Note_on_c, 9, 36, 96
6, 40384, Note_on_c, 9, 38, 96
6, 40384, Note_on_c, 9, 42, 64
6, 40386, Note_off_c, 9, 36, 64
6, 40386, Note_off_c, 9, 38, 64
6, 40386, Note_off_c, 9, 42, 64
6, 40416, Note_on_c, 9, 36, 112
6, 40416, Note_on_c, 9, 38, 112
6, 40418, Note_off_c, 9, 36, 64
6, 40418, Note_off_c, 9, 38, 64
6, 40448, Note_on_c, 9, 36, 127
6, 40448, Note_on_c, 9, 38, 127
6, 40448, Note_on_c, 9, 42, 80
6, 40448, Note_on_c, 9, 46, 48
6, 40450, Note_off_c, 9, 36, 64
6, 40450, Note_off_c, 9, 38, 64
6, 40450, Note_off_c, 9, 42, 64
6, 40450, Note_off_c, 9, 46, 64
6, 40512, Note_on_c, 9, 36, 48
6, 40512, Note_on_c, 9, 38, 48
6, 40512, Note_on_c, 9, 40, 127
6, 40512, Note_on_c, 9, 42, 64
6, 40512, Note_on_c, 9, 50, 127
6, 40512, Note_on_c, 9, 37, 127
6, 40512, Note_on_c, 9, 39, 127
6, 40514, Note_off_c, 9, 36, 64
6, 40514, Note_off_c, 9, 38, 64
6, 40514, Note_off_c, 9, 40, 64
6, 40514, Note_off_c, 9, 42, 64
6, 40514, Note_off_c, 9, 50, 64
6, 40514, Note_off_c, 9, 37, 64
6, 40514, Note_off_c, 9, 39, 64
6, 40544, Note_on_c, 9, 36, 64
6, 40544, Note_on_c, 9, 38, 64
6, 40546, Note_off_c, 9, 36, 64
6, 40546, Note_off_c, 9, 38, 64
6, 40576, Note_on_c, 9, 36, 80
6, 40576, Note_on_c, 9, 38, 80
6, 40576, Note_on_c, 9, 42, 80
6, 40576, Note_on_c, 9, 47, 112
6, 40578, Note_off_c, 9, 36, 64
6, 40578, Note_off_c, 9, 38, 64
6, 40578, Note_off_c, 9, 42, 64
6, 40578, Note_off_c, 9, 47, 64
6, 40608, Note_on_c, 9, 36, 96
6, 40608, Note_on_c, 9, 38, 96
6, 40610, Note_off_c, 9, 36, 64
6, 40610, Note_off_c, 9, 38, 64
6, 40640, Note_on_c, 9, 36, 112
6, 40640, Note_on_c, 9, 38, 112
6, 40640, Note_on_c, 9, 42, 64
6, 40640, Note_on_c, 9, 43, 96
6, 40642, Note_off_c, 9, 36, 64
6, 40642, Note_off_c, 9, 38, 64
6, 40642, Note_off_c, 9, 42, 64
6, 40642, Note_off_c, 9, 43, 64
6, 40672, Note_on_c, 9, 36, 127
6, 40672, Note_on_c, 9, 38, 127
6, 40674, Note_off_c, 9, 36, 64
6, 40674, Note_off_c, 9, 38, 64
6, 40704, Note_on_c, 9, 36, 127
6, 40704, Note_on_c, 9, 42, 80
6, 40706, Note_off_c, 9, 36, 64
6, 40706, Note_off_c, 9, 42, 64
6, 40768, Note_on_c, 9, 42, 64
6, 40770, Note_off_c, 9, 42, 64
6, 40832, Note_on_c, 9, 42, 80
6, 40832, Note_on_c, 9, 46, 48
6, 40834, Note_off_c, 9, 42, 64
6, 40834, Note_off_c, 9, 46, 64
6, 40896, Note_on_c, 9, 40, 127
6, 40896, Note_on_c, 9, 42, 64
6, 40896, Note_on_c, 9, 37, 127
6, 40896, Note_on_c, 9, 39, 127
6, 40898, Note_off_c, 9, 40, 64
6, 40898, Note_off_c, 9, 42, 64
6, 40898, Note_off_c, 9, 37, 64
6, 40898, Note_off_c, 9, 39, 64
6, 40960, Note_on_c, 9, 42, 80
6, 40962, Note_off_c, 9, 42, 64
6, 41024, Note_on_c, 9, 36, 127
6, 41024, Note_on_c, 9, 42, 64
6, 41026, Note_off_c, 9, 36, 64
6, 41026, Note_off_c, 9, 42, 64
6, 41088, Note_on_c, 9, 36, 127
6, 41088, Note_on_c, 9, 42, 80
6, 41090, Note_off_c, 9, 36, 64
6, 41090, Note_off_c, 9, 42, 64
6, 41152, Note_on_c, 9, 42, 64
6, 41154, Note_off_c, 9, 42, 64
6, 41216, Note_on_c, 9, 42, 80
6, 41216, Note_on_c, 9, 46, 48
6, 41218, Note_off_c, 9, 42, 64
6, 41218, Note_off_c, 9, 46, 64
6, 41280, Note_on_c, 9, 40, 127
6, 41280, Note_on_c, 9, 42, 64
6, 41280, Note_on_c, 9, 37, 127
6, 41280, Note_on_c, 9, 39, 127
6, 41282, Note_off_c, 9, 40, 64
6, 41282, Note_off_c, 9, 42, 64
6, 41282, Note_off_c, 9, 37, 64
6, 41282, Note_off_c, 9, 39, 64
6, 41344, Note_on_c, 9, 36, 127
6, 41344, Note_on_c, 9, 42, 80
6, 41346, Note_off_c, 9, 36, 64
6, 41346, Note_off_c, 9, 42, 64
6, 41408, Note_on_c, 9, 36, 127
6, 41408, Note_on_c, 9, 42, 64
6, 41410, Note_off_c, 9, 36, 64
6, 41410, Note_off_c, 9, 42, 64
6, 41472, Note_on_c, 9, 36, 127
6, 41472, Note_on_c, 9, 42, 80
6, 41474, Note_off_c, 9, 36, 64
6, 41474, Note_off_c, 9, 42, 64
6, 41536, Note_on_c, 9, 42, 64
6, 41538, Note_off_c, 9, 42, 64
6, 41600, Note_on_c, 9, 42, 80
6, 41600, Note_on_c, 9, 46, 48
6, 41602, Note_off_c, 9, 42, 64
6, 41602, Note_off_c, 9, 46, 64
6, 41664, Note_on_c, 9, 40, 127
6, 41664, Note_on_c, 9, 42, 64
6, 41664, Note_on_c, 9, 37, 127
6, 41664, Note_on_c, 9, 39, 127
6, 41666, Note_off_c, 9, 40, 64
6, 41666, Note_off_c, 9, 42, 64
6, 41666, Note_off_c, 9, 37, 64
6, 41666, Note_off_c, 9, 39, 64
6, 41728, Note_on_c, 9, 42, 80
6, 41730, Note_off_c, 9, 42, 64
6, 41792, Note_on_c, 9, 36, 127
6, 41792, Note_on_c, 9, 42, 64
6, 41794, Note_off_c, 9, 36, 64
6, 41794, Note_off_c, 9, 42, 64
6, 41856, Note_on_c, 9, 36, 127
6, 41856, Note_on_c, 9, 42, 80
6, 41858, Note_off_c, 9, 36, 64
6, 41858, Note_off_c, 9, 42, 64
6, 41920, Note_on_c, 9, 42, 64
6, 41922, Note_off_c, 9, 42, 64
6, 41984, Note_on_c, 9, 42, 80
6, 41984, Note_on_c, 9, 46, 48
6, 41986, Note_off_c, 9, 42, 64
6, 41986, Note_off_c, 9, 46, 64
6, 42048, Note_on_c, 9, 40, 127
6, 42048, Note_on_c, 9, 42, 64
6, 42048, Note_on_c, 9, 37, 127
6, 42048, Note_on_c, 9, 39, 127
6, 42050, Note_off_c, 9, 40, 64
6, 42050, Note_off_c, 9, 42, 64
6, 42050, Note_off_c, 9, 37, 64
6, 42050, Note_off_c, 9, 39, 64
6, 42112, Note_on_c, 9, 36, 127
6, 42112, Note_on_c, 9, 42, 80
6, 42114, Note_off_c, 9, 36, 64
6, 42114, Note_off_c, 9, 42, 64
6, 42176, Note_on_c, 9, 36, 127
6, 42176, Note_on_c, 9, 42, 64
6, 42178, Note_off_c, 9, 36, 64
6, 42178, Note_off_c, 9, 42, 64
6, 42240, Note_on_c, 9, 36, 127
6, 42240, Note_on_c, 9, 42, 80
6, 42242, Note_off_c, 9, 36, 64
6, 42242, Note_off_c, 9, 42, 64
6, 42304, Note_on_c, 9, 42, 64
6, 42306, Note_off_c, 9, 42, 64
6, 42368, Note_on_c, 9, 42, 80
6, 42368, Note_on_c, 9, 46, 48
6, 42370, Note_off_c, 9, 42, 64
6, 42370, Note_off_c, 9, 46, 64
6, 42432, Note_on_c, 9, 40, 127
6, 42432, Note_on_c, 9, 42, 64
6, 42432, Note_on_c, 9, 37, 127
6, 42432, Note_on_c, 9, 39, 127
6, 42434, Note_off_c, 9, 40, 64
6, 42434, Note_off_c, 9, 42, 64
6, 42434, Note_off_c, 9, 37, 64
6, 42434, Note_off_c, 9, 39, 64
6, 42496, Note_on_c, 9, 42, 80
6, 42498, Note_off_c, 9, 42, 64
6, 42560, Note_on_c, 9, 36, 127
6, 42560, Note_on_c, 9, 42, 64
6, 42562, Note_off_c, 9, 36, 64
6, 42562, Note_off_c, 9, 42, 64
6, 42624, Note_on_c, 9, 36, 127
6, 42624, Note_on_c, 9, 42, 80
6, 42626, Note_off_c, 9, 36, 64
6, 42626, Note_off_c, 9, 42, 64
6, 42688, Note_on_c, 9, 42, 64
6, 42690, Note_off_c, 9, 42, 64
6, 42752, Note_on_c, 9, 42, 80
6, 42752, Note_on_c, 9, 46, 48
6, 42754, Note_off_c, 9, 42, 64
6, 42754, Note_off_c, 9, 46, 64
6, 42816, Note_on_c, 9, 40, 127
6, 42816, Note_on_c, 9, 42, 64
6, 42816, Note_on_c, 9, 37, 127
6, 42816, Note_on_c, 9, 39, 127
6, 42818, Note_off_c, 9, 40, 64
6, 42818, Note_off_c, 9, 42, 64
6, 42818, Note_off_c, 9, 37, 64
6, 42818, Note_off_c, 9, 39, 64
6, 42880, Note_on_c, 9, 36, 127
6, 42880, Note_on_c, 9, 42, 80
6, 42882, Note_off_c, 9, 36, 64
6, 42882, Note_off_c, 9, 42, 64
6, 42944, Note_on_c, 9, 36, 127
6, 42944, Note_on_c, 9, 42, 64
6, 42946, Note_off_c, 9, 36, 64
6, 42946, Note_off_c, 9, 42, 64
6, 43008, Note_on_c, 9, 36, 127
6, 43008, Note_on_c, 9, 42, 80
6, 43010, Note_off_c, 9, 36, 64
6, 43010, Note_off_c, 9, 42, 64
6, 43072, Note_on_c, 9, 42, 64
6, 43074, Note_off_c, 9, 42, 64
6, 43136, Note_on_c, 9, 42, 80
6, 43136, Note_on_c, 9, 46, 48
6, 43138, Note_off_c, 9, 42, 64
6, 43138, Note_off_c, 9, 46, 64
6, 43200, Note_on_c, 9, 40, 127
6, 43200, Note_on_c, 9, 42, 64
6, 43200, Note_on_c, 9, 37, 127
6, 43200, Note_on_c, 9, 39, 127
6, 43202, Note_off_c, 9, 40, 64
6, 43202, Note_off_c, 9, 42, 64
6, 43202, Note_off_c, 9, 37, 64
6, 43202, Note_off_c, 9, 39, 64
6, 43264, Note_on_c, 9, 42, 80
6, 43266, Note_off_c, 9, 42, 64
6, 43328, Note_on_c, 9, 36, 127
6, 43328, Note_on_c, 9, 42, 64
6, 43330, Note_off_c, 9, 36, 64
6, 43330, Note_off_c, 9, 42, 64
6, 43392, Note_on_c, 9, 36, 127
6, 43392, Note_on_c, 9, 42, 80
6, 43394, Note_off_c, 9, 36, 64
6, 43394, Note_off_c, 9, 42, 64
6, 43456, Note_on_c, 9, 42, 64
6, 43458, Note_off_c, 9, 42, 64
6, 43520, Note_on_c, 9, 42, 80
6, 43520, Note_on_c, 9, 46, 48
6, 43522, Note_off_c, 9, 42, 64
6, 43522, Note_off_c, 9, 46, 64
6, 43584, Note_on_c, 9, 40, 127
6, 43584, Note_on_c, 9, 42, 64
6, 43584, Note_on_c, 9, 50, 127
6, 43584, Note_on_c, 9, 37, 127
6, 43584, Note_on_c, 9, 39, 127
6, 43586, Note_off_c, 9, 40, 64
6, 43586, Note_off_c, 9, 42, 64
6, 43586, Note_off_c, 9, 50, 64
6, 43586, Note_off_c, 9, 37, 64
6, 43586, Note_off_c, 9, 39, 64
6, 43648, Note_on_c, 9, 36, 127
6, 43648, Note_on_c, 9, 42, 80
6, 43648, Note_on_c, 9, 47, 112
6, 43650, Note_off_c, 9, 36, 64
6, 43650, Note_off_c, 9, 42, 64
6, 43650, Note_off_c, 9, 47, 64
6, 43712, Note_on_c, 9, 36, 127
6, 43712, Note_on_c, 9, 42, 64
6, 43712, Note_on_c, 9, 43, 96
6, 43714, Note_off_c, 9, 36, 64
6, 43714, Note_off_c, 9, 42, 64
6, 43714, Note_off_c, 9, 43, 64
6, 43776, Note_on_c, 9, 36, 127
6, 43776, Note_on_c, 9, 42, 80
6, 43778, Note_off_c, 9, 36, 64
6, 43778, Note_off_c, 9, 42, 64
6, 43840, Note_on_c, 9, 42, 64
6, 43842, Note_off_c, 9, 42, 64
6, 43904, Note_on_c, 9, 42, 80
6, 43904, Note_on_c, 9, 46, 48
6, 43906, Note_off_c, 9, 42, 64
6, 43906, Note_off_c, 9, 46, 64
6, 43968, Note_on_c, 9, 40, 127
6, 43968, Note_on_c, 9, 42, 64
6, 43968, Note_on_c, 9, 37, 127
6, 43968, Note_on_c, 9, 39, 127
6, 43970, Note_off_c, 9, 40, 64
6, 43970, Note_off_c, 9, 42, 64
6, 43970, Note_off_c, 9, 37, 64
6, 43970, Note_off_c, 9, 39, 64
6, 44032, Note_on_c, 9, 42, 80
6, 44034, Note_off_c, 9, 42, 64
6, 44096, Note_on_c, 9, 36, 127
6, 44096, Note_on_c, 9, 42, 64
6, 44098, Note_off_c, 9, 36, 64
6, 44098, Note_off_c, 9, 42, 64
6, 44160, Note_on_c, 9, 36, 127
6, 44160, Note_on_c, 9, 42, 80
6, 44162, Note_off_c, 9, 36, 64
6, 44162, Note_off_c, 9, 42, 64
6, 44224, Note_on_c, 9, 42, 64
6, 44226, Note_off_c, 9, 42, 64
6, 44288, Note_on_c, 9, 42, 80
6, 44288, Note_on_c, 9, 46, 48
6, 44290, Note_off_c, 9, 42, 64
6, 44290, Note_off_c, 9, 46, 64
6, 44352, Note_on_c, 9, 40, 127
6, 44352, Note_on_c, 9, 42, 64
6, 44352, Note_on_c, 9, 37, 127
6, 44352, Note_on_c, 9, 39, 127
6, 44354, Note_off_c, 9, 40, 64
6, 44354, Note_off_c, 9, 42, 64
6, 44354, Note_off_c, 9, 37, 64
6, 44354, Note_off_c, 9, 39, 64
6, 44416, Note_on_c, 9, 36, 127
6, 44416, Note_on_c, 9, 42, 80
6, 44418, Note_off_c, 9, 36, 64
6, 44418, Note_off_c, 9, 42, 64
6, 44480, Note_on_c, 9, 36, 127
6, 44480, Note_on_c, 9, 42, 64
6, 44482, Note_off_c, 9, 36, 64
6, 44482, Note_off_c, 9, 42, 64
6, 44544, Note_on_c, 9, 36, 127
6, 44544, Note_on_c, 9, 42, 80
6, 44546, Note_off_c, 9, 36, 64
6, 44546, Note_off_c, 9, 42, 64
6, 44608, Note_on_c, 9, 42, 64
6, 44610, Note_off_c, 9, 42, 64
6, 44672, Note_on_c, 9, 42, 80
6, 44672, Note_on_c, 9, 46, 48
6, 44674, Note_off_c, 9, 42, 64
6, 44674, Note_off_c, 9, 46, 64
6, 44736, Note_on_c, 9, 40, 127
6, 44736, Note_on_c, 9, 42, 64
6, 44736, Note_on_c, 9, 37, 127
6, 44736, Note_on_c, 9, 39, 127
6, 44738, Note_off_c, 9, 40, 64
6, 44738, Note_off_c, 9, 42, 64
6, 44738, Note_off_c, 9, 37, 64
6, 44738, Note_off_c, 9, 39, 64
6, 44800, Note_on_c, 9, 42, 80
6, 44802, Note_off_c, 9, 42, 64
6, 44864, Note_on_c, 9, 36, 127
6, 44864, Note_on_c, 9, 42, 64
6, 44866, Note_off_c, 9, 36, 64
6, 44866, Note_off_c, 9, 42, 64
6, 44928, Note_on_c, 9, 36, 127
6, 44928, Note_on_c, 9, 42, 80
6, 44930, Note_off_c, 9, 36, 64
6, 44930, Note_off_c, 9, 42, 64
6, 44992, Note_on_c, 9, 42, 64
6, 44994, Note_off_c, 9, 42, 64
6, 45056, Note_on_c, 9, 42, 80
6, 45056, Note_on_c, 9, 46, 48
6, 45058, Note_off_c, 9, 42, 64
6, 45058, Note_off_c, 9, 46, 64
6, 45120, Note_on_c, 9, 40, 127
6, 45120, Note_on_c, 9, 42, 64
6, 45120, Note_on_c, 9, 37, 127
6, 45120, Note_on_c, 9, 39, 127
6, 45122, Note_off_c, 9, 40, 64
6, 45122, Note_off_c, 9, 42, 64
6, 45122, Note_off_c, 9, 37, 64
6, 45122, Note_off_c, 9, 39, 64
6, 45184, Note_on_c, 9, 36, 127
6, 45184, Note_on_c, 9, 42, 80
6, 45186, Note_off_c, 9, 36, 64
6, 45186, Note_off_c, 9, 42, 64
6, 45248, Note_on_c, 9, 36, 127
6, 45248, Note_on_c, 9, 42, 64
6, 45250, Note_off_c, 9, 36, 64
6, 45250, Note_off_c, 9, 42, 64
6, 45312, Note_on_c, 9, 36, 127
6, 45312, Note_on_c, 9, 42, 80
6, 45314, Note_off_c, 9, 36, 64
6, 45314, Note_off_c, 9, 42, 64
6, 45376, Note_on_c, 9, 42, 64
6, 45378, Note_off_c, 9, 42, 64
6, 45440, Note_on_c, 9, 42, 80
6, 45440, Note_on_c, 9, 46, 48
6, 45442, Note_off_c, 9, 42, 64
6, 45442, Note_off_c, 9, 46, 64
6, 45504, Note_on_c, 9, 40, 127
6, 45504, Note_on_c, 9, 42, 64
6, 45504, Note_on_c, 9, 37, 127
6, 45504, Note_on_c, 9, 39, 127
6, 45506, Note_off_c, 9, 40, 64
6, 45506, Note_off_c, 9, 42, 64
6, 45506, Note_off_c, 9, 37, 64
6, 45506, Note_off_c, 9, 39, 64
6, 45568, Note_on_c, 9, 42, 80
6, 45570, Note_off_c, 9, 42, 64
6, 45632, Note_on_c, 9, 36, 127
6, 45632, Note_on_c, 9, 42, 64
6, 45634, Note_off_c, 9, 36, 64
6, 45634, Note_off_c, 9, 42, 64
6, 45696, Note_on_c, 9, 36, 127
6, 45696, Note_on_c, 9, 42, 80
6, 45698, Note_off_c, 9, 36, 64
6, 45698, Note_off_c, 9, 42, 64
6, 45760, Note_on_c, 9, 42, 64
6, 45762, Note_off_c, 9, 42, 64
6, 45824, Note_on_c, 9, 42, 80
6, 45824, Note_on_c, 9, 46, 48
6, 45826, Note_off_c, 9, 42, 64
6, 45826, Note_off_c, 9, 46, 64
6, 45888, Note_on_c, 9, 40, 127
6, 45888, Note_on_c, 9, 42, 64
6, 45888, Note_on_c, 9, 37, 127
6, 45888, Note_on_c, 9, 39, 127
6, 45890, Note_off_c, 9, 40, 64
6, 45890, Note_off_c, 9, 42, 64
6, 45890, Note_off_c, 9, 37, 64
6, 45890, Note_off_c, 9, 39, 64
6, 45952, Note_on_c, 9, 36, 127
6, 45952, Note_on_c, 9, 42, 80
6, 45954, Note_off_c, 9, 36, 64
6, 45954, Note_off_c, 9, 42, 64
6, 46016, Note_on_c, 9, 36, 127
6, 46016, Note_on_c, 9, 42, 64
6, 46018, Note_off_c, 9, 36, 64
6, 46018, Note_off_c, 9, 42, 64
6, 46080, Note_on_c, 9, 36, 127
6, 46080, Note_on_c, 9, 42, 80
6, 46082, Note_off_c, 9, 36, 64
6, 46082, Note_off_c, 9, 42, 64
6, 46144, Note_on_c, 9, 42, 64
6, 46146, Note_off_c, 9, 42, 64
6, 46208, Note_on_c, 9, 42, 80
6, 46208, Note_on_c, 9, 46, 48
6, 46210, Note_off_c, 9, 42, 64
6, 46210, Note_off_c, 9, 46, 64
6, 46272, Note_on_c, 9, 40, 127
6, 46272, Note_on_c, 9, 42, 64
6, 46272, Note_on_c, 9, 37, 127
6, 46272, Note_on_c, 9, 39, 127
6, 46274, Note_off_c, 9, 40, 64
6, 46274, Note_off_c, 9, 42, 64
6, 46274, Note_off_c, 9, 37, 64
6, 46274, Note_off_c, 9, 39, 64
6, 46336, Note_on_c, 9, 42, 80
6, 46338, Note_off_c, 9, 42, 64
6, 46400, Note_on_c, 9, 36, 127
6, 46400, Note_on_c, 9, 42, 64
6, 46402, Note_off_c, 9, 36, 64
6, 46402, Note_off_c, 9, 42, 64
6, 46464, Note_on_c, 9, 36, 127
6, 46464, Note_on_c, 9, 42, 80
6, 46466, Note_off_c, 9, 36, 64
6, 46466, Note_off_c, 9, 42, 64
6, 46528, Note_on_c, 9, 42, 64
6, 46530, Note_off_c, 9, 42, 64
6, 46592, Note_on_c, 9, 42, 80
6, 46592, Note_on_c, 9, 46, 48
6, 46594, Note_off_c, 9, 42, 64
6, 46594, Note_off_c, 9, 46, 64
6, 46656, Note_on_c, 9, 40, 127
6, 46656, Note_on_c, 9, 42, 64
6, 46656, Note_on_c, 9, 50, 127
6, 46656, Note_on_c, 9, 37, 127
6, 46656, Note_on_c, 9, 39, 127
6, 46658, Note_off_c, 9, 40, 64
6, 46658, Note_off_c, 9, 42, 64
6, 46658, Note_off_c, 9, 50, 64
6, 46658, Note_off_c, 9, 37, 64
6, 46658, Note_off_c, 9, 39, 64
6, 46720, Note_on_c, 9, 36, 127
6, 46720, Note_on_c, 9, 42, 80
6, 46720, Note_on_c, 9, 47, 112
6, 46722, Note_off_c, 9, 36, 64
6, 46722, Note_off_c, 9, 42, 64
6, 46722, Note_off_c, 9, 47, 64
6, 46784, Note_on_c, 9, 36, 127
6, 46784, Note_on_c, 9, 42, 64
6, 46784, Note_on_c, 9, 43, 96
6, 46786, Note_off_c, 9, 36, 64
6, 46786, Note_off_c, 9, 42, 64
6, 46786, Note_off_c, 9, 43, 64
6, 46848, Note_on_c, 9, 36, 127
6, 46848, Note_on_c, 9, 42, 80
6, 46850, Note_off_c, 9, 36, 64
6, 46850, Note_off_c, 9, 42, 64
6, 46912, Note_on_c, 9, 42, 64
6, 46914, Note_off_c, 9, 42, 64
6, 46976, Note_on_c, 9, 42, 80
6, 46976, Note_on_c, 9, 46, 48
6, 46978, Note_off_c, 9, 42, 64
6, 46978, Note_off_c, 9, 46, 64
6, 47040, Note_on_c, 9, 40, 127
6, 47040, Note_on_c, 9, 42, 64
6, 47040, Note_on_c, 9, 37, 127
6, 47040, Note_on_c, 9, 39, 127
6, 47042, Note_off_c, 9, 40, 64
6, 47042, Note_off_c, 9, 42, 64
6, 47042, Note_off_c, 9, 37, 64
6, 47042, Note_off_c, 9, 39, 64
6, 47104, Note_on_c, 9, 42, 80
6, 47106, Note_off_c, 9, 42, 64
6, 47168, Note_on_c, 9, 36, 127
6, 47168, Note_on_c, 9, 42, 64
6, 47170, Note_off_c, 9, 36, 64
6, 47170, Note_off_c, 9, 42, 64
6, 47232, Note_on_c, 9, 36, 127
6, 47232, Note_on_c, 9, 42, 80
6, 47234, Note_off_c, 9, 36, 64
6, 47234, Note_off_c, 9, 42, 64
6, 47296, Note_on_c, 9, 42, 64
6, 47298, Note_off_c, 9, 42, 64
6, 47360, Note_on_c, 9, 42, 80
6, 47360, Note_on_c, 9, 46, 48
6, 47362, Note_off_c, 9, 42, 64
6, 47362, Note_off_c, 9, 46, 64
6, 47424, Note_on_c, 9, 40, 127
6, 47424, Note_on_c, 9, 42, 64
6, 47424, Note_on_c, 9, 37, 127
6, 47424, Note_on_c, 9, 39, 127
6, 47426, Note_off_c, 9, 40, 64
6, 47426, Note_off_c, 9, 42, 64
6, 47426, Note_off_c, 9, 37, 64
6, 47426, Note_off_c, 9, 39, 64
6, 47488, Note_on_c, 9, 36, 127
6, 47488, Note_on_c, 9, 42, 80
6, 47490, Note_off_c, 9, 36, 64
6, 47490, Note_off_c, 9, 42, 64
6, 47552, Note_on_c, 9, 36, 127
6, 47552, Note_on_c, 9, 42, 64
6, 47554, Note_off_c, 9, 36, 64
6, 47554, Note_off_c, 9, 42, 64
6, 47616, Note_on_c, 9, 36, 127
6, 47616, Note_on_c, 9, 42, 80
6, 47618, Note_off_c, 9, 36, 64
6, 47618, Note_off_c, 9, 42, 64
6, 47680, Note_on_c, 9, 42, 64
6, 47682, Note_off_c, 9, 42, 64
6, 47744, Note_on_c, 9, 42, 80
6, 47744, Note_on_c, 9, 46, 48
6, 47746, Note_off_c, 9, 42, 64
6, 47746, Note_off_c, 9, 46, 64
6, 47808, Note_on_c, 9, 40, 127
6, 47808, Note_on_c, 9, 42, 64
6, 47808, Note_on_c, 9, 37, 127
6, 47808, Note_on_c, 9, 39, 127
6, 47810, Note_off_c, 9, 40, 64
6, 47810, Note_off_c, 9, 42, 64
6, 47810, Note_off_c, 9, 37, 64
6, 47810, Note_off_c, 9, 39, 64
6, 47872, Note_on_c, 9, 42, 80
6, 47874, Note_off_c, 9, 42, 64
6, 47936, Note_on_c, 9, 36, 127
6, 47936, Note_on_c, 9, 42, 64
6, 47938, Note_off_c, 9, 36, 64
6, 47938, Note_off_c, 9, 42, 64
6, 48000, Note_on_c, 9, 36, 127
6, 48000, Note_on_c, 9, 42, 80
6, 48002, Note_off_c, 9, 36, 64
6, 48002, Note_off_c, 9, 42, 64
6, 48064, Note_on_c, 9, 42, 64
6, 48066, Note_off_c, 9, 42, 64
6, 48128, Note_on_c, 9, 42, 80
6, 48128, Note_on_c, 9, 46, 48
6, 48130, Note_off_c, 9, 42, 64
6, 48130, Note_off_c, 9, 46, 64
6, 48192, Note_on_c, 9, 40, 127
6, 48192, Note_on_c, 9, 42, 64
6, 48192, Note_on_c, 9, 37, 127
6, 48192, Note_on_c, 9, 39, 127
6, 48194, Note_off_c, 9, 40, 64
6, 48194, Note_off_c, 9, 42, 64
6, 48194, Note_off_c, 9, 37, 64
6, 48194, Note_off_c, 9, 39, 64
6, 48256, Note_on_c, 9, 36, 127
6, 48256, Note_on_c, 9, 42, 80
6, 48258, Note_off_c, 9, 36, 64
6, 48258, Note_off_c, 9, 42, 64
6, 48320, Note_on_c, 9, 36, 127
6, 48320, Note_on_c, 9, 42, 64
6, 48322, Note_off_c, 9, 36, 64
6, 48322, Note_off_c, 9, 42, 64
6, 48384, Note_on_c, 9, 36, 127
6, 48384, Note_on_c, 9, 42, 80
6, 48386, Note_off_c, 9, 36, 64
6, 48386, Note_off_c, 9, 42, 64
6, 48448, Note_on_c, 9, 42, 64
6, 48450, Note_off_c, 9, 42, 64
6, 48512, Note_on_c, 9, 42, 80
6, 48512, Note_on_c, 9, 46, 48
6, 48514, Note_off_c, 9, 42, 64
6, 48514, Note_off_c, 9, 46, 64
6, 48576, Note_on_c, 9, 40, 127
6, 48576, Note_on_c, 9, 42, 64
6, 48576, Note_on_c, 9, 37, 127
6, 48576, Note_on_c, 9, 39, 127
6, 48578, Note_off_c, 9, 40, 64
6, 48578, Note_off_c, 9, 42, 64
6, 48578, Note_off_c, 9, 37, 64
6, 48578, Note_off_c, 9, 39, 64
6, 48640, Note_on_c, 9, 42, 80
6, 48642, Note_off_c, 9, 42, 64
6, 48704, Note_on_c, 9, 36, 127
6, 48704, Note_on_c, 9, 42, 64
6, 48706, Note_off_c, 9, 36, 64
6, 48706, Note_off_c, 9, 42, 64
6, 48768, Note_on_c, 9, 36, 127
6, 48768, Note_on_c, 9, 42, 80
6, 48770, Note_off_c, 9, 36, 64
6, 48770, Note_off_c, 9, 42, 64
6, 48832, Note_on_c, 9, 42, 64
6, 48834, Note_off_c, 9, 42, 64
6, 48896, Note_on_c, 9, 42, 80
6, 48896, Note_on_c, 9, 46, 48
6, 48898, Note_off_c, 9, 42, 64
6, 48898, Note_off_c, 9, 46, 64
6, 48960, Note_on_c, 9, 40, 127
6, 48960, Note_on_c, 9, 42, 64
6, 48960, Note_on_c, 9, 37, 127
6, 48960, Note_on_c, 9, 39, 127
6, 48962, Note_off_c, 9, 40, 64
6, 48962, Note_off_c, 9, 42, 64
6, 48962, Note_off_c, 9, 37, 64
6, 48962, Note_off_c, 9, 39, 64
6, 49024, Note_on_c, 9, 36, 127
6, 49024, Note_on_c, 9, 42, 80
6, 49026, Note_off_c, 9, 36, 64
6, 49026, Note_off_c, 9, 42, 64
6, 49088, Note_on_c, 9, 36, 127
6, 49088, Note_on_c, 9, 42, 64
6, 49090, Note_off_c, 9, 36, 64
6, 49090, Note_off_c, 9, 42, 64
6, 49152, Note_on_c, 9, 36, 127
6, 49152, Note_on_c, 9, 42, 80
6, 49154, Note_off_c, 9, 36, 64
6, 49154, Note_off_c, 9, 42, 64
6, 49216, Note_on_c, 9, 42, 64
6, 49218, Note_off_c, 9, 42, 64
6, 49280, Note_on_c, 9, 42, 80
6, 49280, Note_on_c, 9, 46, 48
6, 49282, Note_off_c, 9, 42, 64
6, 49282, Note_off_c, 9, 46, 64
6, 49344, Note_on_c, 9, 40, 127
6, 49344, Note_on_c, 9, 42, 64
6, 49344, Note_on_c, 9, 37, 127
6, 49344, Note_on_c, 9, 39, 127
6, 49346, Note_off_c, 9, 40, 64
6, 49346, Note_off_c, 9, 42, 64
6, 49346, Note_off_c, 9, 37, 64
6, 49346, Note_off_c, 9, 39, 64
6, 49408, Note_on_c, 9, 42, 80
6, 49410, Note_off_c, 9, 42, 64
6, 49472, Note_on_c, 9, 36, 127
6, 49472, Note_on_c, 9, 42, 64
6, 49474, Note_off_c, 9, 36, 64
6, 49474, Note_off_c, 9, 42, 64
6, 49536, Note_on_c, 9, 36, 127
6, 49536, Note_on_c, 9, 42, 80
6, 49538, Note_off_c, 9, 36, 64
6, 49538, Note_off_c, 9, 42, 64
6, 49600, Note_on_c, 9, 42, 64
6, 49602, Note_off_c, 9, 42, 64
6, 49664, Note_on_c, 9, 42, 80
6, 49664, Note_on_c, 9, 46, 48
6, 49666, Note_off_c, 9, 42, 64
6, 49666, Note_off_c, 9, 46, 64
6, 49728, Note_on_c, 9, 40, 127
6, 49728, Note_on_c, 9, 42, 64
6, 49728, Note_on_c, 9, 50, 127
6, 49728, Note_on_c, 9, 37, 127
6, 49728, Note_on_c, 9, 39, 127
6, 49730, Note_off_c, 9, 40, 64
6, 49730, Note_off_c, 9, 42, 64
6, 49730, Note_off_c, 9, 50, 64
6, 49730, Note_off_c, 9, 37, 64
6, 49730, Note_off_c, 9, 39, 64
6, 49792, Note_on_c, 9, 36, 127
6, 49792, Note_on_c, 9, 42, 80
6, 49792, Note_on_c, 9, 47, 112
6, 49794, Note_off_c, 9, 36, 64
6, 49794, Note_off_c, 9, 42, 64
6, 49794, Note_off_c, 9, 47, 64
6, 49856, Note_on_c, 9, 36, 127
6, 49856, Note_on_c, 9, 42, 64
6, 49856, Note_on_c, 9, 43, 96
6, 49858, Note_off_c, 9, 36, 64
6, 49858, Note_off_c, 9, 42, 64
6, 49858, Note_off_c, 9, 43, 64
6, 49920, Note_on_c, 9, 36, 127
6, 49920, Note_on_c, 9, 42, 80
6, 49922, Note_off_c, 9, 36, 64
6, 49922, Note_off_c, 9, 42, 64
6, 49984, Note_on_c, 9, 42, 64
6, 49986, Note_off_c, 9, 42, 64
6, 50048, Note_on_c, 9, 42, 80
6, 50048, Note_on_c, 9, 46, 48
6, 50050, Note_off_c, 9, 42, 64
6, 50050, Note_off_c, 9, 46, 64
6, 50112, Note_on_c, 9, 40, 127
6, 50112, Note_on_c, 9, 42, 64
6, 50112, Note_on_c, 9, 37, 127
6, 50112, Note_on_c, 9, 39, 127
6, 50114, Note_off_c, 9, 40, 64
6, 50114, Note_off_c, 9, 42, 64
6, 50114, Note_off_c, 9, 37, 64
6, 50114, Note_off_c, 9, 39, 64
6, 50176, Note_on_c, 9, 42, 80
6, 50178, Note_off_c, 9, 42, 64
6, 50240, Note_on_c, 9, 36, 127
6, 50240, Note_on_c, 9, 42, 64
6, 50242, Note_off_c, 9, 36, 64
6, 50242, Note_off_c, 9, 42, 64
6, 50304, Note_on_c, 9, 36, 127
6, 50304, Note_on_c, 9, 42, 80
6, 50306, Note_off_c, 9, 36, 64
6, 50306, Note_off_c, 9, 42, 64
6, 50368, Note_on_c, 9, 42, 64
6, 50370, Note_off_c, 9, 42, 64
6, 50432, Note_on_c, 9, 42, 80
6, 50432, Note_on_c, 9, 46, 48
6, 50434, Note_off_c, 9, 42, 64
6, 50434, Note_off_c, 9, 46, 64
6, 50496, Note_on_c, 9, 40, 127
6, 50496, Note_on_c, 9, 42, 64
6, 50496, Note_on_c, 9, 37, 127
6, 50496, Note_on_c, 9, 39, 127
6, 50498, Note_off_c, 9, 40, 64
6, 50498, Note_off_c, 9, 42, 64
6, 50498, Note_off_c, 9, 37, 64
6, 50498, Note_off_c, 9, 39, 64
6, 50560, Note_on_c, 9, 36, 127
6, 50560, Note_on_c, 9, 42, 80
6, 50562, Note_off_c, 9, 36, 64
6, 50562, Note_off_c, 9, 42, 64
6, 50624, Note_on_c, 9, 36, 127
6, 50624, Note_on_c, 9, 42, 64
6, 50626, Note_off_c, 9, 36, 64
6, 50626, Note_off_c, 9, 42, 64
6, 50688, Note_on_c, 9, 36, 127
6, 50688, Note_on_c, 9, 42, 80
6, 50690, Note_off_c, 9, 36, 64
6, 50690, Note_off_c, 9, 42, 64
6, 50752, Note_on_c, 9, 42, 64
6, 50754, Note_off_c, 9, 42, 64
6, 50816, Note_on_c, 9, 42, 80
6, 50816, Note_on_c, 9, 46, 48
6, 50818, Note_off_c, 9, 42, 64
6, 50818, Note_off_c, 9, 46, 64
6, 50880, Note_on_c, 9, 40, 127
6, 50880, Note_on_c, 9, 42, 64
6, 50880, Note_on_c, 9, 37, 127
6, 50880, Note_on_c, 9, 39, 127
6, 50882, Note_off_c, 9, 40, 64
6, 50882, Note_off_c, 9, 42, 64
6, 50882, Note_off_c, 9, 37, 64
6, 50882, Note_off_c, 9, 39, 64
6, 50944, Note_on_c, 9, 42, 80
6, 50946, Note_off_c, 9, 42, 64
6, 51008, Note_on_c, 9, 36, 127
6, 51008, Note_on_c, 9, 42, 64
6, 51010, Note_off_c, 9, 36, 64
6, 51010, Note_off_c, 9, 42, 64
6, 51072, Note_on_c, 9, 36, 127
6, 51072, Note_on_c, 9, 42, 80
6, 51074, Note_off_c, 9, 36, 64
6, 51074, Note_off_c, 9, 42, 64
6, 51136, Note_on_c, 9, 42, 64
6, 51138, Note_off_c, 9, 42, 64
6, 51200, Note_on_c, 9, 42, 80
6, 51200, Note_on_c, 9, 46, 48
6, 51202, Note_off_c, 9, 42, 64
6, 51202, Note_off_c, 9, 46, 64
6, 51264, Note_on_c, 9, 40, 127
6, 51264, Note_on_c, 9, 42, 64
6, 51264, Note_on_c, 9, 37, 127
6, 51264, Note_on_c, 9, 39, 127
6, 51266, Note_off_c, 9, 40, 64
6, 51266, Note_off_c, 9, 42, 64
6, 51266, Note_off_c, 9, 37, 64
6, 51266, Note_off_c, 9, 39, 64
6, 51328, Note_on_c, 9, 36, 127
6, 51328, Note_on_c, 9, 42, 80
6, 51330, Note_off_c, 9, 36, 64
6, 51330, Note_off_c, 9, 42, 64
6, 51392, Note_on_c, 9, 36, 127
6, 51392, Note_on_c, 9, 42, 64
6, 51394, Note_off_c, 9, 36, 64
6, 51394, Note_off_c, 9, 42, 64
6, 51456, Note_on_c, 9, 36, 127
6, 51456, Note_on_c, 9, 42, 80
6, 51458, Note_off_c, 9, 36, 64
6, 51458, Note_off_c, 9, 42, 64
6, 51520, Note_on_c, 9, 42, 64
6, 51522, Note_off_c, 9, 42, 64
6, 51584, Note_on_c, 9, 42, 80
6, 51584, Note_on_c, 9, 46, 48
6, 51586, Note_off_c, 9, 42, 64
6, 51586, Note_off_c, 9, 46, 64
6, 51648, Note_on_c, 9, 40, 127
6, 51648, Note_on_c, 9, 42, 64
6, 51648, Note_on_c, 9, 37, 127
6, 51648, Note_on_c, 9, 39, 127
6, 51650, Note_off_c, 9, 40, 64
6, 51650, Note_off_c, 9, 42, 64
6, 51650, Note_off_c, 9, 37, 64
6, 51650, Note_off_c, 9, 39, 64
6, 51712, Note_on_c, 9, 42, 80
6, 51714, Note_off_c, 9, 42, 64
6, 51776, Note_on_c, 9, 36, 127
6, 51776, Note_on_c, 9, 42, 64
6, 51778, Note_off_c, 9, 36, 64
6, 51778, Note_off_c, 9, 42, 64
6, 51840, Note_on_c, 9, 36, 127
6, 51840, Note_on_c, 9, 42, 80
6, 51842, Note_off_c, 9, 36, 64
6, 51842, Note_off_c, 9, 42, 64
6, 51904, Note_on_c, 9, 42, 64
6, 51906, Note_off_c, 9, 42, 64
6, 51968, Note_on_c, 9, 42, 80
6, 51968, Note_on_c, 9, 46, 48
6, 51970, Note_off_c, 9, 42, 64
6, 51970, Note_off_c, 9, 46, 64
6, 52032, Note_on_c, 9, 40, 127
6, 52032, Note_on_c, 9, 42, 64
6, 52032, Note_on_c, 9, 37, 127
6, 52032, Note_on_c, 9, 39, 127
6, 52034, Note_off_c, 9, 40, 64
6, 52034, Note_off_c, 9, 42, 64
6, 52034, Note_off_c, 9, 37, 64
6, 52034, Note_off_c, 9, 39, 64
6, 52096, Note_on_c, 9, 36, 127
6, 52096, Note_on_c, 9, 42, 80
6, 52098, Note_off_c, 9, 36, 64
6, 52098, Note_off_c, 9, 42, 64
6, 52160, Note_on_c, 9, 36, 127
6, 52160, Note_on_c, 9, 42, 64
6, 52162, Note_off_c, 9, 36, 64
6, 52162, Note_off_c, 9, 42, 64
6, 52224, Note_on_c, 9, 36, 127
6, 52224, Note_on_c, 9, 42, 80
6, 52226, Note_off_c, 9, 36, 64
6, 52226, Note_off_c, 9, 42, 64
6, 52288, Note_on_c, 9, 42, 64
6, 52290, Note_off_c, 9, 42, 64
6, 52352, Note_on_c, 9, 42, 80
6, 52352, Note_on_c, 9, 46, 48
6, 52354, Note_off_c, 9, 42, 64
6, 52354, Note_off_c, 9, 46, 64
6, 52416, Note_on_c, 9, 40, 127
6, 52416, Note_on_c, 9, 42, 64
6, 52416, Note_on_c, 9, 37, 127
6, 52416, Note_on_c, 9, 39, 127
6, 52418, Note_off_c, 9, 40, 64
6, 52418, Note_off_c, 9, 42, 64
6, 52418, Note_off_c, 9, 37, 64
6, 52418, Note_off_c, 9, 39, 64
6, 52480, Note_on_c, 9, 42, 80
6, 52482, Note_off_c, 9, 42, 64
6, 52544, Note_on_c, 9, 36, 127
6, 52544, Note_on_c, 9, 42, 64
6, 52546, Note_off_c, 9, 36, 64
6, 52546, Note_off_c, 9, 42, 64
6, 52608, Note_on_c, 9, 36, 127
6, 52608, Note_on_c, 9, 42, 80
6, 52610, Note_off_c, 9, 36, 64
6, 52610, Note_off_c, 9, 42, 64
6, 52672, Note_on_c, 9, 42, 64
6, 52674, Note_off_c, 9, 42, 64
6, 52736, Note_on_c, 9, 42, 80
6, 52736, Note_on_c, 9, 46, 48
6, 52738, Note_off_c, 9, 42, 64
6, 52738, Note_off_c, 9, 46, 64
6, 52800, Note_on_c, 9, 40, 127
6, 52800, Note_on_c, 9, 42, 64
6, 52800, Note_on_c, 9, 50, 127
6, 52800, Note_on_c, 9, 37, 127
6, 52800, Note_on_c, 9, 39, 127
6, 52802, Note_off_c, 9, 40, 64
6, 52802, Note_off_c, 9, 42, 64
6, 52802, Note_off_c, 9, 50, 64
6, 52802, Note_off_c, 9, 37, 64
6, 52802, Note_off_c, 9, 39, 64
6, 52864, Note_on_c, 9, 36, 127
6, 52864, Note_on_c, 9, 42, 80
6, 52864, Note_on_c, 9, 47, 112
6, 52866, Note_off_c, 9, 36, 64
6, 52866, Note_off_c, 9, 42, 64
6, 52866, Note_off_c, 9, 47, 64
6, 52928, Note_on_c, 9, 36, 127
6, 52928, Note_on_c, 9, 42, 64
6, 52928, Note_on_c, 9, 43, 96
6, 52930, Note_off_c, 9, 36, 64
6, 52930, Note_off_c, 9, 42, 64
6, 52930, Note_off_c, 9, 43, 64
6, 52992, Note_on_c, 9, 36, 127
6, 52992, Note_on_c, 9, 38, 127
6, 52992, Note_on_c, 9, 40, 127
6, 52992, Note_on_c, 9, 42, 127
6, 52992, Note_on_c, 9, 49, 127
6, 52994, Note_off_c, 9, 36, 64
6, 52994, Note_off_c, 9, 38, 64
6, 52994, Note_off_c, 9, 40, 64
6, 52994, Note_off_c, 9, 42, 64
6, 52994, Note_off_c, 9, 49, 64
6, 53088, Control_c, 9, 7, 127
6, 53088, End_track
7, 0, Start_track
7, 0, MIDI_port, 0
7, 0, Title_t, "===================="
7, 0, End_track
8, 0, Start_track
8, 0, MIDI_port, 0
8, 0, Title_t, "End Of The Road     "
8, 0, End_track
9, 0, Start_track
9, 0, MIDI_port, 0
9, 0, Title_t, "by Boyz II Men      "
9, 0, End_track
10, 0, Start_track
10, 0, MIDI_port, 0
10, 0, Title_t, "--------------------"
10, 0, End_track
11, 0, Start_track
11, 0, MIDI_port, 0
11, 0, Title_t, "Sequenced by        "
11, 0, End_track
12, 0, Start_track
12, 0, MIDI_port, 0
12, 0, Title_t, "Dennis Barbee       "
12, 0, End_track
0, 0, End_of_file
