0, 0, Header, 0, 1, 96
1, 0, Start_track
1, 0, Title_t, "Englishman\000"
1, 0, Tempo, 500000
1, 0, Time_signature, 4, 2, 24, 8
1, 0, Key_signature, 0, "major"
1, 0, System_exclusive, 5, 126, 127, 9, 1, 247
1, 103, Program_c, 1, 35
1, 104, Control_c, 1, 7, 127
1, 104, Control_c, 1, 10, 64
1, 104, Control_c, 1, 11, 127
1, 105, Control_c, 1, 91, 0
1, 105, Control_c, 1, 93, 0
1, 108, Program_c, 2, 0
1, 109, Control_c, 2, 7, 127
1, 109, Control_c, 2, 10, 34
1, 109, Control_c, 2, 11, 127
1, 110, Control_c, 2, 91, 99
1, 110, Control_c, 2, 93, 0
1, 113, Program_c, 3, 73
1, 114, Control_c, 3, 7, 127
1, 114, Control_c, 3, 10, 64
1, 114, Control_c, 3, 11, 127
1, 115, Control_c, 3, 91, 99
1, 115, Control_c, 3, 93, 30
1, 118, Program_c, 4, 45
1, 119, Control_c, 4, 7, 127
1, 119, Control_c, 4, 10, 104
1, 119, Control_c, 4, 11, 127
1, 120, Control_c, 4, 91, 99
1, 120, Control_c, 4, 93, 60
1, 123, Program_c, 5, 48
1, 124, Control_c, 5, 7, 127
1, 124, Control_c, 5, 10, 0
1, 124, Control_c, 5, 11, 127
1, 125, Control_c, 5, 91, 99
1, 125, Control_c, 5, 93, 60
1, 128, Program_c, 6, 6
1, 129, Control_c, 6, 7, 127
1, 129, Control_c, 6, 10, 127
1, 129, Control_c, 6, 11, 127
1, 130, Control_c, 6, 91, 99
1, 130, Control_c, 6, 93, 30
1, 133, Program_c, 7, 119
1, 134, Control_c, 7, 7, 127
1, 134, Control_c, 7, 10, 64
1, 134, Control_c, 7, 11, 70
1, 135, Control_c, 7, 91, 99
1, 135, Control_c, 7, 93, 63
1, 138, Program_c, 8, 64
1, 139, Control_c, 8, 7, 90
1, 139, Control_c, 8, 10, 84
1, 139, Control_c, 8, 11, 80
1, 140, Control_c, 8, 91, 99
1, 140, Control_c, 8, 93, 10
1, 144, Control_c, 9, 7, 127
1, 144, Control_c, 9, 11, 127
1, 145, Control_c, 9, 91, 50
1, 145, Control_c, 9, 93, 0
1, 148, Program_c, 10, 118
1, 149, Control_c, 10, 7, 110
1, 149, Control_c, 10, 10, 64
1, 149, Control_c, 10, 11, 100
1, 150, Control_c, 10, 91, 99
1, 150, Control_c, 10, 93, 63
1, 153, Program_c, 11, 73
1, 154, Control_c, 11, 7, 127
1, 154, Control_c, 11, 10, 64
1, 154, Control_c, 11, 11, 80
1, 155, Control_c, 11, 91, 99
1, 155, Control_c, 11, 93, 63
1, 158, Program_c, 12, 69
1, 159, Control_c, 12, 7, 90
1, 159, Control_c, 12, 10, 84
1, 159, Control_c, 12, 11, 80
1, 160, Control_c, 12, 91, 99
1, 160, Control_c, 12, 93, 10
1, 384, Tempo, 588235
1, 384, Time_signature, 4, 2, 24, 8
1, 384, Note_on_c, 9, 42, 74
1, 387, Note_off_c, 9, 42, 0
1, 480, Note_on_c, 9, 42, 74
1, 483, Note_off_c, 9, 42, 0
1, 576, Note_on_c, 9, 42, 74
1, 579, Note_off_c, 9, 42, 0
1, 672, Note_on_c, 9, 42, 74
1, 675, Note_off_c, 9, 42, 0
1, 768, Note_on_c, 1, 28, 74
1, 768, Note_on_c, 4, 52, 44
1, 768, Pitch_bend_c, 8, 129
1, 768, Note_on_c, 8, 78, 109
1, 768, Pitch_bend_c, 12, 129
1, 768, Note_on_c, 12, 78, 104
1, 784, Pitch_bend_c, 8, 8193
1, 784, Pitch_bend_c, 12, 8193
1, 814, Note_off_c, 4, 52, 0
1, 816, Note_on_c, 4, 62, 44
1, 816, Note_on_c, 4, 67, 44
1, 816, Note_on_c, 4, 71, 44
1, 816, Note_on_c, 9, 42, 79
1, 819, Note_off_c, 9, 42, 0
1, 862, Note_off_c, 4, 62, 0
1, 862, Note_off_c, 4, 67, 0
1, 862, Note_off_c, 4, 71, 0
1, 864, Note_on_c, 9, 35, 74
1, 867, Note_off_c, 9, 35, 0
1, 912, Note_on_c, 4, 62, 44
1, 912, Note_on_c, 4, 67, 44
1, 912, Note_on_c, 4, 71, 44
1, 912, Note_on_c, 9, 42, 79
1, 915, Note_off_c, 9, 42, 0
1, 958, Note_off_c, 1, 28, 0
1, 958, Note_off_c, 4, 62, 0
1, 958, Note_off_c, 4, 67, 0
1, 958, Note_off_c, 4, 71, 0
1, 960, Note_on_c, 1, 33, 74
1, 960, Note_on_c, 4, 57, 44
1, 1006, Note_off_c, 4, 57, 0
1, 1008, Note_on_c, 4, 64, 44
1, 1008, Note_on_c, 4, 69, 44
1, 1008, Note_on_c, 4, 73, 44
1, 1008, Note_on_c, 9, 42, 79
1, 1011, Note_off_c, 9, 42, 0
1, 1054, Note_off_c, 4, 64, 0
1, 1054, Note_off_c, 4, 69, 0
1, 1054, Note_off_c, 4, 73, 0
1, 1056, Note_on_c, 4, 57, 44
1, 1056, Note_on_c, 9, 35, 74
1, 1059, Note_off_c, 9, 35, 0
1, 1102, Note_off_c, 4, 57, 0
1, 1104, Note_on_c, 4, 64, 44
1, 1104, Note_on_c, 4, 69, 44
1, 1104, Note_on_c, 4, 73, 44
1, 1104, Note_on_c, 9, 42, 79
1, 1107, Note_off_c, 9, 42, 0
1, 1150, Note_off_c, 1, 33, 0
1, 1150, Note_off_c, 4, 64, 0
1, 1150, Note_off_c, 4, 69, 0
1, 1150, Note_off_c, 4, 73, 0
1, 1152, Note_on_c, 1, 35, 74
1, 1152, Note_on_c, 4, 59, 44
1, 1176, Control_c, 2, 64, 127
1, 1176, Note_on_c, 2, 54, 38
1, 1198, Note_off_c, 4, 59, 0
1, 1200, Note_on_c, 4, 66, 44
1, 1200, Note_on_c, 4, 71, 44
1, 1200, Note_on_c, 4, 74, 44
1, 1200, Note_on_c, 9, 42, 79
1, 1203, Note_off_c, 9, 42, 0
1, 1246, Note_off_c, 4, 66, 0
1, 1246, Note_off_c, 4, 71, 0
1, 1246, Note_off_c, 4, 74, 0
1, 1248, Note_on_c, 9, 35, 74
1, 1251, Note_off_c, 9, 35, 0
1, 1270, Note_off_c, 2, 54, 0
1, 1272, Note_on_c, 2, 69, 62
1, 1296, Note_on_c, 4, 66, 44
1, 1296, Note_on_c, 4, 71, 44
1, 1296, Note_on_c, 4, 74, 44
1, 1296, Note_on_c, 9, 42, 79
1, 1299, Note_off_c, 9, 42, 0
1, 1342, Note_off_c, 1, 35, 0
1, 1342, Note_off_c, 4, 66, 0
1, 1342, Note_off_c, 4, 71, 0
1, 1342, Note_off_c, 4, 74, 0
1, 1344, Note_on_c, 1, 35, 74
1, 1344, Note_on_c, 4, 59, 44
1, 1366, Note_off_c, 2, 69, 0
1, 1368, Note_on_c, 2, 81, 62
1, 1390, Note_off_c, 4, 59, 0
1, 1392, Note_on_c, 4, 66, 44
1, 1392, Note_on_c, 4, 71, 44
1, 1392, Note_on_c, 4, 74, 44
1, 1392, Note_on_c, 9, 42, 49
1, 1395, Note_off_c, 9, 42, 0
1, 1416, Note_on_c, 9, 42, 79
1, 1419, Note_off_c, 9, 42, 0
1, 1438, Note_off_c, 1, 35, 0
1, 1438, Note_off_c, 4, 66, 0
1, 1438, Note_off_c, 4, 71, 0
1, 1438, Note_off_c, 4, 74, 0
1, 1440, Note_on_c, 1, 33, 74
1, 1440, Note_on_c, 4, 57, 44
1, 1440, Note_on_c, 9, 35, 74
1, 1443, Note_off_c, 9, 35, 0
1, 1462, Note_off_c, 2, 81, 0
1, 1464, Note_on_c, 2, 83, 62
1, 1486, Note_off_c, 4, 57, 0
1, 1488, Note_on_c, 4, 64, 44
1, 1488, Note_on_c, 4, 69, 44
1, 1488, Note_on_c, 4, 73, 44
1, 1488, Note_on_c, 9, 42, 49
1, 1491, Note_off_c, 9, 42, 0
1, 1512, Note_on_c, 9, 42, 79
1, 1515, Note_off_c, 9, 42, 0
1, 1534, Note_off_c, 1, 33, 0
1, 1534, Note_off_c, 4, 64, 0
1, 1534, Note_off_c, 4, 69, 0
1, 1534, Note_off_c, 4, 73, 0
1, 1536, Control_c, 8, 1, 30
1, 1536, Control_c, 12, 1, 0
1, 1536, Note_on_c, 1, 28, 74
1, 1536, Note_on_c, 4, 52, 44
1, 1536, Note_on_c, 9, 42, 17
1, 1539, Note_off_c, 9, 42, 0
1, 1558, Note_off_c, 2, 83, 0
1, 1560, Note_on_c, 9, 42, 29
1, 1563, Note_off_c, 9, 42, 0
1, 1582, Note_off_c, 4, 52, 0
1, 1584, Note_on_c, 4, 62, 44
1, 1584, Note_on_c, 4, 67, 44
1, 1584, Note_on_c, 4, 71, 44
1, 1584, Note_on_c, 9, 42, 79
1, 1587, Note_off_c, 9, 42, 0
1, 1608, Note_on_c, 9, 42, 29
1, 1611, Note_off_c, 9, 42, 0
1, 1630, Note_off_c, 4, 62, 0
1, 1630, Note_off_c, 4, 67, 0
1, 1630, Note_off_c, 4, 71, 0
1, 1632, Note_on_c, 9, 35, 74
1, 1632, Note_on_c, 9, 42, 17
1, 1635, Note_off_c, 9, 35, 0
1, 1635, Note_off_c, 9, 42, 0
1, 1656, Note_on_c, 9, 42, 29
1, 1659, Note_off_c, 9, 42, 0
1, 1680, Note_on_c, 4, 62, 44
1, 1680, Note_on_c, 4, 67, 44
1, 1680, Note_on_c, 4, 71, 44
1, 1680, Note_on_c, 9, 42, 79
1, 1683, Note_off_c, 9, 42, 0
1, 1726, Note_off_c, 1, 28, 0
1, 1726, Note_off_c, 4, 62, 0
1, 1726, Note_off_c, 4, 67, 0
1, 1726, Note_off_c, 4, 71, 0
1, 1728, Note_on_c, 1, 33, 74
1, 1728, Note_on_c, 4, 57, 44
1, 1774, Note_off_c, 4, 57, 0
1, 1776, Note_on_c, 4, 64, 44
1, 1776, Note_on_c, 4, 69, 44
1, 1776, Note_on_c, 4, 73, 44
1, 1776, Note_on_c, 9, 42, 79
1, 1779, Note_off_c, 9, 42, 0
1, 1822, Note_off_c, 4, 64, 0
1, 1822, Note_off_c, 4, 69, 0
1, 1822, Note_off_c, 4, 73, 0
1, 1824, Note_on_c, 4, 57, 44
1, 1824, Note_on_c, 9, 35, 74
1, 1827, Note_off_c, 9, 35, 0
1, 1870, Note_off_c, 4, 57, 0
1, 1872, Note_on_c, 4, 64, 44
1, 1872, Note_on_c, 4, 69, 44
1, 1872, Note_on_c, 4, 73, 44
1, 1872, Note_on_c, 9, 42, 79
1, 1875, Note_off_c, 9, 42, 0
1, 1918, Note_off_c, 1, 33, 0
1, 1918, Note_off_c, 4, 64, 0
1, 1918, Note_off_c, 4, 69, 0
1, 1918, Note_off_c, 4, 73, 0
1, 1919, Control_c, 2, 64, 0
1, 1920, Note_on_c, 1, 35, 74
1, 1920, Note_on_c, 4, 59, 44
1, 1944, Control_c, 2, 64, 127
1, 1966, Note_off_c, 4, 59, 0
1, 1968, Note_on_c, 4, 66, 44
1, 1968, Note_on_c, 4, 71, 44
1, 1968, Note_on_c, 4, 74, 44
1, 1968, Note_on_c, 9, 42, 79
1, 1971, Note_off_c, 9, 42, 0
1, 2014, Note_off_c, 4, 66, 0
1, 2014, Note_off_c, 4, 71, 0
1, 2014, Note_off_c, 4, 74, 0
1, 2016, Note_on_c, 9, 35, 74
1, 2019, Note_off_c, 9, 35, 0
1, 2040, Note_on_c, 2, 73, 62
1, 2062, Note_off_c, 2, 73, 0
1, 2064, Control_c, 8, 11, 72
1, 2064, Control_c, 12, 11, 72
1, 2064, Note_on_c, 2, 74, 38
1, 2064, Note_on_c, 4, 66, 44
1, 2064, Note_on_c, 4, 71, 44
1, 2064, Note_on_c, 4, 74, 44
1, 2064, Note_on_c, 9, 42, 79
1, 2067, Note_off_c, 9, 42, 0
1, 2083, Note_off_c, 8, 78, 0
1, 2083, Note_off_c, 12, 78, 0
1, 2085, Note_on_c, 8, 78, 79
1, 2085, Note_on_c, 12, 78, 96
1, 2086, Note_off_c, 2, 74, 0
1, 2088, Note_on_c, 2, 81, 62
1, 2107, Note_off_c, 8, 78, 0
1, 2107, Note_off_c, 12, 78, 0
1, 2110, Note_off_c, 1, 35, 0
1, 2110, Note_off_c, 4, 66, 0
1, 2110, Note_off_c, 4, 71, 0
1, 2110, Note_off_c, 4, 74, 0
1, 2110, Note_off_c, 2, 81, 0
1, 2112, Note_on_c, 1, 35, 74
1, 2112, Note_on_c, 4, 59, 44
1, 2114, Note_on_c, 8, 78, 89
1, 2114, Note_on_c, 12, 78, 99
1, 2136, Note_off_c, 8, 78, 0
1, 2136, Note_off_c, 12, 78, 0
1, 2136, Note_on_c, 2, 85, 62
1, 2143, Note_on_c, 8, 76, 79
1, 2143, Note_on_c, 12, 76, 96
1, 2158, Note_off_c, 4, 59, 0
1, 2158, Note_off_c, 2, 85, 0
1, 2160, Note_on_c, 2, 86, 38
1, 2160, Note_on_c, 4, 66, 44
1, 2160, Note_on_c, 4, 71, 44
1, 2160, Note_on_c, 4, 74, 44
1, 2160, Note_on_c, 9, 42, 79
1, 2163, Note_off_c, 9, 42, 0
1, 2165, Note_off_c, 8, 76, 0
1, 2165, Note_off_c, 12, 76, 0
1, 2172, Note_on_c, 9, 42, 59
1, 2175, Note_off_c, 9, 42, 0
1, 2180, Note_on_c, 8, 74, 69
1, 2180, Note_on_c, 12, 74, 94
1, 2182, Note_off_c, 2, 86, 0
1, 2184, Note_on_c, 2, 93, 48
1, 2184, Note_on_c, 9, 42, 39
1, 2187, Note_off_c, 9, 42, 0
1, 2196, Note_on_c, 9, 42, 29
1, 2199, Note_off_c, 9, 42, 0
1, 2206, Note_off_c, 1, 35, 0
1, 2206, Note_off_c, 4, 66, 0
1, 2206, Note_off_c, 4, 71, 0
1, 2206, Note_off_c, 4, 74, 0
1, 2206, Note_off_c, 2, 93, 0
1, 2208, Note_off_c, 8, 74, 0
1, 2208, Note_off_c, 12, 74, 0
1, 2208, Note_on_c, 1, 33, 74
1, 2208, Note_on_c, 2, 95, 62
1, 2208, Note_on_c, 4, 57, 44
1, 2208, Note_on_c, 9, 35, 74
1, 2208, Note_on_c, 9, 42, 39
1, 2210, Note_on_c, 8, 73, 69
1, 2210, Note_on_c, 12, 73, 94
1, 2211, Note_off_c, 9, 35, 0
1, 2211, Note_off_c, 9, 42, 0
1, 2230, Note_off_c, 2, 95, 0
1, 2232, Note_on_c, 2, 90, 58
1, 2232, Note_on_c, 9, 42, 29
1, 2235, Note_off_c, 9, 42, 0
1, 2246, Note_off_c, 8, 73, 0
1, 2246, Note_off_c, 12, 73, 0
1, 2248, Note_on_c, 8, 74, 69
1, 2248, Note_on_c, 12, 74, 94
1, 2254, Note_off_c, 4, 57, 0
1, 2254, Note_off_c, 2, 90, 0
1, 2256, Note_on_c, 2, 86, 48
1, 2256, Note_on_c, 4, 64, 44
1, 2256, Note_on_c, 4, 69, 44
1, 2256, Note_on_c, 4, 73, 44
1, 2256, Note_on_c, 9, 42, 79
1, 2259, Note_off_c, 9, 42, 0
1, 2270, Note_off_c, 8, 74, 0
1, 2270, Note_off_c, 12, 74, 0
1, 2278, Note_off_c, 1, 33, 0
1, 2278, Note_off_c, 2, 86, 0
1, 2280, Note_on_c, 1, 35, 62
1, 2280, Note_on_c, 2, 85, 43
1, 2280, Note_on_c, 9, 42, 69
1, 2283, Note_off_c, 9, 42, 0
1, 2290, Note_on_c, 8, 66, 69
1, 2290, Note_on_c, 12, 66, 94
1, 2302, Note_off_c, 4, 64, 0
1, 2302, Note_off_c, 4, 69, 0
1, 2302, Note_off_c, 4, 73, 0
1, 2302, Note_off_c, 1, 35, 0
1, 2302, Note_off_c, 2, 85, 0
1, 2304, Note_on_c, 1, 28, 74
1, 2304, Note_on_c, 2, 83, 38
1, 2304, Note_on_c, 4, 52, 44
1, 2326, Note_off_c, 8, 66, 0
1, 2326, Note_off_c, 12, 66, 0
1, 2326, Note_off_c, 2, 83, 0
1, 2328, Note_on_c, 8, 71, 79
1, 2328, Note_on_c, 9, 42, 29
1, 2328, Note_on_c, 12, 71, 96
1, 2331, Note_off_c, 9, 42, 0
1, 2336, Pitch_bend_c, 8, 16257
1, 2336, Pitch_bend_c, 12, 16257
1, 2350, Note_off_c, 4, 52, 0
1, 2352, Note_on_c, 4, 62, 44
1, 2352, Note_on_c, 4, 67, 44
1, 2352, Note_on_c, 4, 71, 44
1, 2352, Note_on_c, 9, 42, 79
1, 2355, Note_off_c, 9, 42, 0
1, 2368, Control_c, 8, 11, 57
1, 2368, Control_c, 12, 11, 57
1, 2368, Pitch_bend_c, 8, 8193
1, 2368, Pitch_bend_c, 12, 8193
1, 2398, Note_off_c, 4, 62, 0
1, 2398, Note_off_c, 4, 67, 0
1, 2398, Note_off_c, 4, 71, 0
1, 2400, Note_on_c, 9, 35, 74
1, 2403, Note_off_c, 9, 35, 0
1, 2448, Note_on_c, 4, 62, 44
1, 2448, Note_on_c, 4, 67, 44
1, 2448, Note_on_c, 4, 71, 44
1, 2448, Note_on_c, 9, 42, 79
1, 2451, Note_off_c, 9, 42, 0
1, 2472, Control_c, 8, 11, 56
1, 2472, Control_c, 12, 11, 56
1, 2484, Control_c, 8, 11, 42
1, 2484, Control_c, 12, 11, 42
1, 2494, Note_off_c, 1, 28, 0
1, 2494, Note_off_c, 4, 62, 0
1, 2494, Note_off_c, 4, 67, 0
1, 2494, Note_off_c, 4, 71, 0
1, 2496, Control_c, 8, 11, 32
1, 2496, Control_c, 12, 11, 32
1, 2496, Note_on_c, 1, 33, 74
1, 2496, Note_on_c, 4, 57, 44
1, 2508, Control_c, 8, 11, 22
1, 2508, Control_c, 12, 11, 22
1, 2520, Control_c, 8, 11, 15
1, 2520, Control_c, 12, 11, 15
1, 2520, Note_on_c, 9, 42, 29
1, 2523, Note_off_c, 9, 42, 0
1, 2532, Control_c, 8, 11, 9
1, 2532, Control_c, 12, 11, 9
1, 2542, Note_off_c, 4, 57, 0
1, 2544, Note_on_c, 4, 64, 44
1, 2544, Note_on_c, 4, 69, 44
1, 2544, Note_on_c, 4, 73, 44
1, 2544, Note_on_c, 9, 42, 79
1, 2547, Note_off_c, 9, 42, 0
1, 2590, Note_off_c, 4, 64, 0
1, 2590, Note_off_c, 4, 69, 0
1, 2590, Note_off_c, 4, 73, 0
1, 2592, Note_on_c, 4, 57, 44
1, 2592, Note_on_c, 9, 35, 74
1, 2595, Note_off_c, 9, 35, 0
1, 2638, Note_off_c, 4, 57, 0
1, 2640, Note_on_c, 4, 64, 44
1, 2640, Note_on_c, 4, 69, 44
1, 2640, Note_on_c, 4, 73, 44
1, 2640, Note_on_c, 9, 42, 79
1, 2643, Note_off_c, 9, 42, 0
1, 2664, Control_c, 2, 64, 0
1, 2686, Note_off_c, 1, 33, 0
1, 2686, Note_off_c, 4, 64, 0
1, 2686, Note_off_c, 4, 69, 0
1, 2686, Note_off_c, 4, 73, 0
1, 2688, Control_c, 2, 64, 127
1, 2688, Note_on_c, 1, 35, 74
1, 2688, Note_on_c, 2, 78, 62
1, 2688, Note_on_c, 4, 59, 44
1, 2710, Note_off_c, 2, 78, 0
1, 2712, Note_on_c, 2, 66, 28
1, 2712, Note_on_c, 9, 42, 29
1, 2715, Note_off_c, 9, 42, 0
1, 2734, Note_off_c, 4, 59, 0
1, 2734, Note_off_c, 2, 66, 0
1, 2736, Note_on_c, 2, 73, 33
1, 2736, Note_on_c, 4, 66, 44
1, 2736, Note_on_c, 4, 71, 44
1, 2736, Note_on_c, 4, 74, 44
1, 2736, Note_on_c, 9, 42, 79
1, 2739, Note_off_c, 9, 42, 0
1, 2758, Note_off_c, 2, 73, 0
1, 2760, Note_on_c, 2, 74, 38
1, 2782, Note_off_c, 4, 66, 0
1, 2782, Note_off_c, 4, 71, 0
1, 2782, Note_off_c, 4, 74, 0
1, 2782, Note_off_c, 2, 74, 0
1, 2784, Note_on_c, 2, 78, 62
1, 2784, Note_on_c, 9, 35, 74
1, 2787, Note_off_c, 9, 35, 0
1, 2806, Note_off_c, 2, 78, 0
1, 2808, Note_on_c, 2, 66, 28
1, 2808, Note_on_c, 9, 42, 29
1, 2811, Note_off_c, 9, 42, 0
1, 2830, Note_off_c, 2, 66, 0
1, 2832, Note_on_c, 2, 73, 33
1, 2832, Note_on_c, 4, 66, 44
1, 2832, Note_on_c, 4, 71, 44
1, 2832, Note_on_c, 4, 74, 44
1, 2832, Note_on_c, 9, 42, 79
1, 2835, Note_off_c, 9, 42, 0
1, 2854, Note_off_c, 1, 35, 0
1, 2854, Note_off_c, 2, 73, 0
1, 2856, Note_on_c, 1, 30, 62
1, 2856, Note_on_c, 2, 74, 38
1, 2856, Note_on_c, 9, 42, 39
1, 2859, Note_off_c, 9, 42, 0
1, 2878, Note_off_c, 4, 66, 0
1, 2878, Note_off_c, 4, 71, 0
1, 2878, Note_off_c, 4, 74, 0
1, 2878, Note_off_c, 1, 30, 0
1, 2878, Note_off_c, 2, 74, 0
1, 2880, Note_on_c, 1, 35, 74
1, 2880, Note_on_c, 2, 78, 62
1, 2880, Note_on_c, 4, 59, 44
1, 2902, Note_off_c, 2, 78, 0
1, 2904, Note_on_c, 2, 66, 28
1, 2926, Note_off_c, 1, 35, 0
1, 2926, Note_off_c, 4, 59, 0
1, 2926, Note_off_c, 2, 66, 0
1, 2928, Note_on_c, 1, 37, 74
1, 2928, Note_on_c, 2, 73, 33
1, 2928, Note_on_c, 4, 66, 44
1, 2928, Note_on_c, 4, 71, 44
1, 2928, Note_on_c, 4, 74, 44
1, 2928, Note_on_c, 9, 42, 79
1, 2931, Note_off_c, 9, 42, 0
1, 2950, Note_off_c, 2, 73, 0
1, 2952, Note_on_c, 2, 74, 38
1, 2952, Note_on_c, 9, 42, 39
1, 2955, Note_off_c, 9, 42, 0
1, 2974, Note_off_c, 8, 71, 0
1, 2974, Note_off_c, 12, 71, 0
1, 2974, Note_off_c, 1, 37, 0
1, 2974, Note_off_c, 4, 66, 0
1, 2974, Note_off_c, 4, 71, 0
1, 2974, Note_off_c, 4, 74, 0
1, 2974, Note_off_c, 2, 74, 0
1, 2976, Control_c, 8, 11, 72
1, 2976, Control_c, 12, 11, 72
1, 2976, Note_on_c, 1, 38, 74
1, 2976, Note_on_c, 2, 78, 68
1, 2976, Note_on_c, 4, 57, 44
1, 2976, Pitch_bend_c, 8, 3841
1, 2976, Note_on_c, 8, 67, 126
1, 2976, Note_on_c, 9, 35, 74
1, 2976, Note_on_c, 9, 42, 29
1, 2976, Pitch_bend_c, 12, 3841
1, 2976, Note_on_c, 12, 67, 108
1, 2979, Note_off_c, 9, 35, 0
1, 2979, Note_off_c, 9, 42, 0
1, 2992, Pitch_bend_c, 8, 8065
1, 2992, Pitch_bend_c, 12, 8065
1, 2998, Note_off_c, 2, 78, 0
1, 3000, Note_on_c, 2, 66, 28
1, 3000, Note_on_c, 9, 42, 29
1, 3003, Note_off_c, 9, 42, 0
1, 3022, Note_off_c, 4, 57, 0
1, 3022, Note_off_c, 2, 66, 0
1, 3024, Note_on_c, 2, 73, 33
1, 3024, Note_on_c, 4, 64, 44
1, 3024, Note_on_c, 4, 69, 44
1, 3024, Note_on_c, 4, 73, 44
1, 3024, Note_on_c, 9, 46, 59
1, 3027, Note_off_c, 9, 46, 0
1, 3046, Note_off_c, 1, 38, 0
1, 3046, Note_off_c, 2, 73, 0
1, 3048, Note_on_c, 1, 35, 62
1, 3048, Note_on_c, 2, 74, 38
1, 3070, Note_off_c, 4, 64, 0
1, 3070, Note_off_c, 4, 69, 0
1, 3070, Note_off_c, 4, 73, 0
1, 3070, Note_off_c, 1, 35, 0
1, 3070, Note_off_c, 2, 74, 0
1, 3072, Note_on_c, 1, 28, 74
1, 3072, Note_on_c, 2, 78, 78
1, 3072, Note_on_c, 4, 52, 44
1, 3094, Note_off_c, 2, 78, 0
1, 3096, Note_on_c, 2, 66, 38
1, 3096, Note_on_c, 9, 42, 29
1, 3099, Note_off_c, 9, 42, 0
1, 3118, Note_off_c, 4, 52, 0
1, 3118, Note_off_c, 2, 66, 0
1, 3120, Note_on_c, 2, 73, 43
1, 3120, Note_on_c, 4, 62, 44
1, 3120, Note_on_c, 4, 67, 44
1, 3120, Note_on_c, 4, 71, 44
1, 3120, Note_on_c, 9, 42, 79
1, 3123, Note_off_c, 9, 42, 0
1, 3142, Note_off_c, 2, 73, 0
1, 3144, Note_on_c, 2, 74, 48
1, 3166, Note_off_c, 4, 62, 0
1, 3166, Note_off_c, 4, 67, 0
1, 3166, Note_off_c, 4, 71, 0
1, 3166, Note_off_c, 2, 74, 0
1, 3167, Control_c, 2, 64, 0
1, 3168, Control_c, 2, 64, 127
1, 3168, Note_on_c, 2, 79, 88
1, 3168, Note_on_c, 9, 35, 74
1, 3171, Note_off_c, 9, 35, 0
1, 3190, Note_off_c, 2, 79, 0
1, 3192, Note_on_c, 2, 67, 38
1, 3200, Pitch_bend_c, 8, 16257
1, 3200, Pitch_bend_c, 12, 16257
1, 3214, Note_off_c, 2, 67, 0
1, 3216, Note_on_c, 2, 73, 43
1, 3216, Note_on_c, 4, 62, 44
1, 3216, Note_on_c, 4, 67, 44
1, 3216, Note_on_c, 4, 71, 44
1, 3216, Note_on_c, 9, 42, 79
1, 3219, Note_off_c, 9, 42, 0
1, 3230, Note_off_c, 8, 67, 0
1, 3230, Note_off_c, 12, 67, 0
1, 3232, Pitch_bend_c, 8, 8193
1, 3232, Note_on_c, 8, 64, 79
1, 3232, Pitch_bend_c, 12, 8193
1, 3232, Note_on_c, 12, 64, 96
1, 3238, Note_off_c, 2, 73, 0
1, 3240, Note_on_c, 2, 74, 48
1, 3262, Note_off_c, 1, 28, 0
1, 3262, Note_off_c, 4, 62, 0
1, 3262, Note_off_c, 4, 67, 0
1, 3262, Note_off_c, 4, 71, 0
1, 3262, Note_off_c, 8, 64, 0
1, 3262, Note_off_c, 12, 64, 0
1, 3262, Note_off_c, 2, 74, 0
1, 3264, Note_on_c, 1, 33, 74
1, 3264, Note_on_c, 2, 79, 97
1, 3264, Note_on_c, 4, 57, 44
1, 3264, Note_on_c, 8, 66, 126
1, 3264, Note_on_c, 12, 66, 108
1, 3286, Note_off_c, 2, 79, 0
1, 3288, Note_on_c, 2, 67, 38
1, 3288, Note_on_c, 9, 42, 29
1, 3291, Note_off_c, 9, 42, 0
1, 3310, Note_off_c, 4, 57, 0
1, 3310, Note_off_c, 2, 67, 0
1, 3312, Note_on_c, 2, 73, 43
1, 3312, Note_on_c, 4, 64, 44
1, 3312, Note_on_c, 4, 69, 44
1, 3312, Note_on_c, 4, 73, 44
1, 3312, Note_on_c, 9, 42, 79
1, 3315, Note_off_c, 9, 42, 0
1, 3334, Note_off_c, 2, 73, 0
1, 3336, Note_on_c, 2, 74, 48
1, 3358, Note_off_c, 4, 64, 0
1, 3358, Note_off_c, 4, 69, 0
1, 3358, Note_off_c, 4, 73, 0
1, 3358, Note_off_c, 2, 74, 0
1, 3359, Control_c, 2, 64, 0
1, 3360, Control_c, 2, 64, 127
1, 3360, Note_on_c, 2, 78, 62
1, 3360, Note_on_c, 4, 57, 44
1, 3360, Note_on_c, 9, 35, 74
1, 3363, Note_off_c, 9, 35, 0
1, 3382, Note_off_c, 2, 78, 0
1, 3384, Note_on_c, 2, 66, 38
1, 3406, Note_off_c, 4, 57, 0
1, 3406, Note_off_c, 2, 66, 0
1, 3408, Note_on_c, 2, 73, 43
1, 3408, Note_on_c, 4, 64, 44
1, 3408, Note_on_c, 4, 69, 44
1, 3408, Note_on_c, 4, 73, 44
1, 3408, Note_on_c, 9, 42, 79
1, 3411, Note_off_c, 9, 42, 0
1, 3430, Note_off_c, 2, 73, 0
1, 3432, Note_on_c, 2, 74, 48
1, 3432, Note_on_c, 9, 42, 39
1, 3435, Note_off_c, 9, 42, 0
1, 3454, Note_off_c, 1, 33, 0
1, 3454, Note_off_c, 4, 64, 0
1, 3454, Note_off_c, 4, 69, 0
1, 3454, Note_off_c, 4, 73, 0
1, 3454, Note_off_c, 2, 74, 0
1, 3456, Note_on_c, 1, 35, 74
1, 3456, Note_on_c, 2, 78, 48
1, 3456, Note_on_c, 4, 59, 44
1, 3456, Note_on_c, 9, 42, 29
1, 3459, Note_off_c, 9, 42, 0
1, 3468, Note_on_c, 9, 42, 39
1, 3471, Note_off_c, 9, 42, 0
1, 3480, Note_on_c, 9, 42, 29
1, 3483, Note_off_c, 9, 42, 0
1, 3486, Note_off_c, 8, 66, 0
1, 3486, Note_off_c, 12, 66, 0
1, 3488, Note_on_c, 8, 67, 79
1, 3488, Note_on_c, 12, 67, 96
1, 3492, Note_on_c, 9, 42, 29
1, 3495, Note_off_c, 9, 42, 0
1, 3502, Note_off_c, 4, 59, 0
1, 3504, Note_on_c, 4, 66, 44
1, 3504, Note_on_c, 4, 71, 44
1, 3504, Note_on_c, 4, 74, 44
1, 3504, Note_on_c, 9, 42, 39
1, 3507, Note_off_c, 9, 42, 0
1, 3518, Note_off_c, 8, 67, 0
1, 3518, Note_off_c, 12, 67, 0
1, 3520, Note_on_c, 8, 69, 79
1, 3520, Note_on_c, 12, 69, 96
1, 3528, Note_on_c, 9, 42, 79
1, 3531, Note_off_c, 9, 42, 0
1, 3542, Note_off_c, 8, 69, 0
1, 3542, Note_off_c, 12, 69, 0
1, 3550, Note_off_c, 4, 66, 0
1, 3550, Note_off_c, 4, 71, 0
1, 3550, Note_off_c, 4, 74, 0
1, 3552, Note_on_c, 8, 64, 79
1, 3552, Note_on_c, 9, 35, 74
1, 3552, Note_on_c, 9, 42, 29
1, 3552, Note_on_c, 12, 64, 96
1, 3555, Note_off_c, 9, 35, 0
1, 3555, Note_off_c, 9, 42, 0
1, 3576, Note_on_c, 9, 42, 29
1, 3579, Note_off_c, 9, 42, 0
1, 3582, Note_off_c, 8, 64, 0
1, 3582, Note_off_c, 12, 64, 0
1, 3584, Note_on_c, 8, 66, 125
1, 3584, Note_on_c, 12, 66, 108
1, 3600, Note_on_c, 4, 66, 44
1, 3600, Note_on_c, 4, 71, 44
1, 3600, Note_on_c, 4, 74, 44
1, 3600, Note_on_c, 9, 42, 79
1, 3603, Note_off_c, 9, 42, 0
1, 3622, Note_off_c, 8, 66, 0
1, 3622, Note_off_c, 12, 66, 0
1, 3624, Note_on_c, 8, 67, 79
1, 3624, Note_on_c, 9, 42, 39
1, 3624, Note_on_c, 12, 67, 96
1, 3627, Note_off_c, 9, 42, 0
1, 3646, Note_off_c, 1, 35, 0
1, 3646, Note_off_c, 4, 66, 0
1, 3646, Note_off_c, 4, 71, 0
1, 3646, Note_off_c, 4, 74, 0
1, 3648, Note_on_c, 1, 35, 74
1, 3648, Note_on_c, 4, 59, 44
1, 3648, Note_on_c, 9, 42, 29
1, 3651, Note_off_c, 9, 42, 0
1, 3654, Note_off_c, 8, 67, 0
1, 3654, Note_off_c, 12, 67, 0
1, 3656, Note_on_c, 8, 69, 79
1, 3656, Note_on_c, 12, 69, 96
1, 3660, Note_on_c, 9, 42, 39
1, 3663, Note_off_c, 9, 42, 0
1, 3672, Note_on_c, 9, 42, 29
1, 3675, Note_off_c, 9, 42, 0
1, 3678, Note_off_c, 8, 69, 0
1, 3678, Note_off_c, 12, 69, 0
1, 3684, Note_on_c, 9, 42, 29
1, 3687, Note_off_c, 9, 42, 0
1, 3688, Note_on_c, 8, 64, 79
1, 3688, Note_on_c, 12, 64, 96
1, 3694, Note_off_c, 4, 59, 0
1, 3696, Note_on_c, 4, 66, 44
1, 3696, Note_on_c, 4, 71, 44
1, 3696, Note_on_c, 4, 74, 44
1, 3696, Note_on_c, 9, 42, 39
1, 3699, Note_off_c, 9, 42, 0
1, 3718, Note_off_c, 1, 35, 0
1, 3718, Note_off_c, 8, 64, 0
1, 3718, Note_off_c, 12, 64, 0
1, 3720, Note_on_c, 1, 30, 74
1, 3720, Note_on_c, 8, 66, 115
1, 3720, Note_on_c, 9, 42, 79
1, 3720, Note_on_c, 12, 66, 105
1, 3723, Note_off_c, 9, 42, 0
1, 3742, Note_off_c, 4, 66, 0
1, 3742, Note_off_c, 4, 71, 0
1, 3742, Note_off_c, 4, 74, 0
1, 3742, Note_off_c, 1, 30, 0
1, 3744, Note_on_c, 1, 33, 74
1, 3744, Note_on_c, 4, 57, 44
1, 3744, Note_on_c, 9, 35, 74
1, 3744, Note_on_c, 9, 42, 29
1, 3747, Note_off_c, 9, 35, 0
1, 3747, Note_off_c, 9, 42, 0
1, 3768, Note_on_c, 9, 42, 29
1, 3771, Note_off_c, 9, 42, 0
1, 3774, Note_off_c, 8, 66, 0
1, 3774, Note_off_c, 12, 66, 0
1, 3776, Note_on_c, 8, 64, 79
1, 3776, Note_on_c, 12, 64, 96
1, 3790, Note_off_c, 4, 57, 0
1, 3792, Note_on_c, 4, 64, 44
1, 3792, Note_on_c, 4, 69, 44
1, 3792, Note_on_c, 4, 73, 44
1, 3792, Note_on_c, 9, 55, 79
1, 3795, Note_off_c, 9, 55, 0
1, 3806, Note_off_c, 8, 64, 0
1, 3806, Note_off_c, 12, 64, 0
1, 3808, Note_on_c, 8, 62, 115
1, 3808, Note_on_c, 12, 62, 105
1, 3814, Note_off_c, 1, 33, 0
1, 3816, Note_on_c, 1, 35, 62
1, 3838, Note_off_c, 2, 78, 0
1, 3838, Note_off_c, 4, 64, 0
1, 3838, Note_off_c, 4, 69, 0
1, 3838, Note_off_c, 4, 73, 0
1, 3838, Note_off_c, 1, 35, 0
1, 3839, Control_c, 2, 64, 0
1, 3840, Note_on_c, 1, 28, 74
1, 3840, Note_on_c, 4, 52, 44
1, 3886, Note_off_c, 4, 52, 0
1, 3888, Note_on_c, 4, 62, 44
1, 3888, Note_on_c, 4, 67, 44
1, 3888, Note_on_c, 4, 71, 44
1, 3888, Note_on_c, 9, 42, 79
1, 3891, Note_off_c, 9, 42, 0
1, 3912, Note_on_c, 3, 54, 59
1, 3931, Note_off_c, 3, 54, 0
1, 3934, Note_off_c, 4, 62, 0
1, 3934, Note_off_c, 4, 67, 0
1, 3934, Note_off_c, 4, 71, 0
1, 3936, Control_c, 8, 11, 72
1, 3936, Note_on_c, 3, 59, 74
1, 3936, Note_on_c, 9, 35, 74
1, 3939, Note_off_c, 9, 35, 0
1, 3952, Control_c, 8, 11, 67
1, 3952, Control_c, 12, 11, 67
1, 3958, Note_off_c, 3, 59, 0
1, 3960, Note_on_c, 3, 62, 75
1, 3968, Control_c, 8, 11, 54
1, 3968, Control_c, 12, 11, 54
1, 3978, Note_off_c, 3, 62, 0
1, 3984, Control_c, 8, 11, 38
1, 3984, Control_c, 12, 11, 38
1, 3984, Note_on_c, 4, 62, 44
1, 3984, Note_on_c, 4, 67, 44
1, 3984, Note_on_c, 4, 71, 44
1, 3984, Note_on_c, 9, 37, 83
1, 3984, Note_on_c, 9, 42, 79
1, 3987, Note_off_c, 9, 37, 0
1, 3987, Note_off_c, 9, 42, 0
1, 4000, Control_c, 8, 11, 25
1, 4000, Control_c, 12, 11, 25
1, 4008, Note_on_c, 3, 64, 72
1, 4008, Note_on_c, 9, 42, 29
1, 4011, Note_off_c, 9, 42, 0
1, 4016, Control_c, 8, 11, 9
1, 4016, Control_c, 12, 11, 9
1, 4030, Note_off_c, 8, 62, 0
1, 4030, Note_off_c, 12, 62, 0
1, 4030, Note_off_c, 1, 28, 0
1, 4030, Note_off_c, 4, 62, 0
1, 4030, Note_off_c, 4, 67, 0
1, 4030, Note_off_c, 4, 71, 0
1, 4032, Note_on_c, 1, 33, 74
1, 4032, Note_on_c, 4, 57, 44
1, 4032, Note_on_c, 9, 42, 17
1, 4035, Note_off_c, 9, 42, 0
1, 4039, Note_off_c, 3, 64, 0
1, 4056, Note_on_c, 3, 61, 70
1, 4056, Note_on_c, 9, 42, 29
1, 4059, Note_off_c, 9, 42, 0
1, 4078, Note_off_c, 4, 57, 0
1, 4080, Note_off_c, 3, 61, 0
1, 4080, Note_on_c, 4, 64, 44
1, 4080, Note_on_c, 4, 69, 44
1, 4080, Note_on_c, 4, 73, 44
1, 4080, Note_on_c, 9, 42, 79
1, 4083, Note_off_c, 9, 42, 0
1, 4104, Note_on_c, 3, 57, 71
1, 4126, Note_off_c, 4, 64, 0
1, 4126, Note_off_c, 4, 69, 0
1, 4126, Note_off_c, 4, 73, 0
1, 4128, Control_c, 8, 11, 72
1, 4128, Control_c, 12, 11, 72
1, 4128, Note_on_c, 4, 57, 44
1, 4128, Note_on_c, 9, 35, 74
1, 4131, Note_off_c, 9, 35, 0
1, 4137, Note_off_c, 3, 57, 0
1, 4152, Note_on_c, 3, 55, 59
1, 4174, Note_off_c, 4, 57, 0
1, 4176, Note_off_c, 3, 55, 0
1, 4176, Note_on_c, 4, 64, 44
1, 4176, Note_on_c, 4, 69, 44
1, 4176, Note_on_c, 4, 73, 44
1, 4176, Note_on_c, 9, 37, 83
1, 4176, Note_on_c, 9, 42, 79
1, 4179, Note_off_c, 9, 37, 0
1, 4179, Note_off_c, 9, 42, 0
1, 4200, Note_on_c, 3, 54, 74
1, 4222, Note_off_c, 1, 33, 0
1, 4222, Note_off_c, 4, 64, 0
1, 4222, Note_off_c, 4, 69, 0
1, 4222, Note_off_c, 4, 73, 0
1, 4224, Note_on_c, 1, 35, 74
1, 4224, Note_on_c, 4, 59, 44
1, 4241, Note_off_c, 3, 54, 0
1, 4248, Note_on_c, 3, 61, 74
1, 4267, Note_off_c, 3, 61, 0
1, 4270, Note_off_c, 4, 59, 0
1, 4272, Note_on_c, 4, 66, 44
1, 4272, Note_on_c, 4, 71, 44
1, 4272, Note_on_c, 4, 74, 44
1, 4272, Note_on_c, 9, 42, 79
1, 4275, Note_off_c, 9, 42, 0
1, 4296, Note_on_c, 3, 61, 72
1, 4318, Note_off_c, 4, 66, 0
1, 4318, Note_off_c, 4, 71, 0
1, 4318, Note_off_c, 4, 74, 0
1, 4320, Note_on_c, 9, 35, 74
1, 4323, Note_off_c, 9, 35, 0
1, 4368, Note_on_c, 4, 66, 44
1, 4368, Note_on_c, 4, 71, 44
1, 4368, Note_on_c, 4, 74, 44
1, 4368, Note_on_c, 9, 37, 83
1, 4368, Note_on_c, 9, 42, 79
1, 4371, Note_off_c, 9, 37, 0
1, 4371, Note_off_c, 9, 42, 0
1, 4414, Note_off_c, 1, 35, 0
1, 4414, Note_off_c, 4, 66, 0
1, 4414, Note_off_c, 4, 71, 0
1, 4414, Note_off_c, 4, 74, 0
1, 4416, Note_on_c, 1, 35, 74
1, 4416, Note_on_c, 4, 59, 44
1, 4416, Note_on_c, 9, 42, 29
1, 4419, Note_off_c, 9, 42, 0
1, 4462, Note_off_c, 4, 59, 0
1, 4464, Note_on_c, 4, 66, 44
1, 4464, Note_on_c, 4, 71, 44
1, 4464, Note_on_c, 4, 74, 44
1, 4464, Note_on_c, 9, 42, 79
1, 4467, Note_off_c, 9, 42, 0
1, 4488, Note_on_c, 9, 42, 39
1, 4491, Note_off_c, 9, 42, 0
1, 4510, Note_off_c, 1, 35, 0
1, 4510, Note_off_c, 4, 66, 0
1, 4510, Note_off_c, 4, 71, 0
1, 4510, Note_off_c, 4, 74, 0
1, 4512, Note_on_c, 1, 33, 74
1, 4512, Note_on_c, 4, 57, 44
1, 4512, Note_on_c, 9, 35, 74
1, 4515, Note_off_c, 9, 35, 0
1, 4516, Note_off_c, 3, 61, 0
1, 4558, Note_off_c, 4, 57, 0
1, 4560, Note_on_c, 4, 64, 44
1, 4560, Note_on_c, 4, 69, 44
1, 4560, Note_on_c, 4, 73, 44
1, 4560, Note_on_c, 9, 37, 83
1, 4560, Note_on_c, 9, 42, 79
1, 4563, Note_off_c, 9, 37, 0
1, 4563, Note_off_c, 9, 42, 0
1, 4584, Note_on_c, 9, 37, 83
1, 4587, Note_off_c, 9, 37, 0
1, 4606, Note_off_c, 1, 33, 0
1, 4606, Note_off_c, 4, 64, 0
1, 4606, Note_off_c, 4, 69, 0
1, 4606, Note_off_c, 4, 73, 0
1, 4608, Note_on_c, 1, 28, 74
1, 4608, Note_on_c, 4, 52, 44
1, 4654, Note_off_c, 4, 52, 0
1, 4656, Note_on_c, 4, 62, 44
1, 4656, Note_on_c, 4, 67, 44
1, 4656, Note_on_c, 4, 71, 44
1, 4656, Note_on_c, 9, 42, 79
1, 4659, Note_off_c, 9, 42, 0
1, 4680, Note_on_c, 3, 54, 55
1, 4700, Note_off_c, 3, 54, 0
1, 4702, Note_off_c, 4, 62, 0
1, 4702, Note_off_c, 4, 67, 0
1, 4702, Note_off_c, 4, 71, 0
1, 4704, Note_on_c, 3, 59, 78
1, 4704, Note_on_c, 9, 35, 74
1, 4707, Note_off_c, 9, 35, 0
1, 4726, Note_off_c, 3, 59, 0
1, 4728, Note_on_c, 3, 62, 76
1, 4745, Note_off_c, 3, 62, 0
1, 4752, Note_on_c, 4, 62, 44
1, 4752, Note_on_c, 4, 67, 44
1, 4752, Note_on_c, 4, 71, 44
1, 4752, Note_on_c, 9, 37, 83
1, 4752, Note_on_c, 9, 42, 79
1, 4755, Note_off_c, 9, 37, 0
1, 4755, Note_off_c, 9, 42, 0
1, 4776, Note_on_c, 3, 64, 74
1, 4798, Note_off_c, 1, 28, 0
1, 4798, Note_off_c, 4, 62, 0
1, 4798, Note_off_c, 4, 67, 0
1, 4798, Note_off_c, 4, 71, 0
1, 4800, Note_on_c, 1, 33, 74
1, 4800, Note_on_c, 4, 57, 44
1, 4805, Note_off_c, 3, 64, 0
1, 4824, Note_on_c, 3, 61, 73
1, 4843, Note_off_c, 3, 61, 0
1, 4846, Note_off_c, 4, 57, 0
1, 4848, Note_on_c, 4, 64, 44
1, 4848, Note_on_c, 4, 69, 44
1, 4848, Note_on_c, 4, 73, 44
1, 4848, Note_on_c, 9, 42, 79
1, 4851, Note_off_c, 9, 42, 0
1, 4872, Note_on_c, 3, 57, 60
1, 4894, Note_off_c, 4, 64, 0
1, 4894, Note_off_c, 4, 69, 0
1, 4894, Note_off_c, 4, 73, 0
1, 4896, Note_on_c, 4, 57, 44
1, 4896, Note_on_c, 9, 35, 74
1, 4896, Note_on_c, 9, 42, 39
1, 4899, Note_off_c, 9, 35, 0
1, 4899, Note_off_c, 9, 42, 0
1, 4904, Note_off_c, 3, 57, 0
1, 4920, Note_on_c, 3, 55, 67
1, 4942, Note_off_c, 4, 57, 0
1, 4944, Note_on_c, 4, 64, 44
1, 4944, Note_on_c, 4, 69, 44
1, 4944, Note_on_c, 4, 73, 44
1, 4944, Note_on_c, 9, 37, 83
1, 4944, Note_on_c, 9, 42, 79
1, 4946, Note_off_c, 3, 55, 0
1, 4947, Note_off_c, 9, 37, 0
1, 4947, Note_off_c, 9, 42, 0
1, 4968, Note_on_c, 3, 54, 67
1, 4990, Note_off_c, 1, 33, 0
1, 4990, Note_off_c, 4, 64, 0
1, 4990, Note_off_c, 4, 69, 0
1, 4990, Note_off_c, 4, 73, 0
1, 4992, Note_on_c, 1, 35, 74
1, 4992, Note_on_c, 4, 59, 44
1, 4992, Note_on_c, 9, 42, 29
1, 4995, Note_off_c, 9, 42, 0
1, 5038, Note_off_c, 4, 59, 0
1, 5040, Note_on_c, 4, 66, 44
1, 5040, Note_on_c, 4, 71, 44
1, 5040, Note_on_c, 4, 74, 44
1, 5040, Note_on_c, 9, 42, 79
1, 5043, Note_off_c, 9, 42, 0
1, 5086, Note_off_c, 4, 66, 0
1, 5086, Note_off_c, 4, 71, 0
1, 5086, Note_off_c, 4, 74, 0
1, 5088, Note_on_c, 9, 35, 74
1, 5088, Note_on_c, 9, 42, 29
1, 5091, Note_off_c, 9, 35, 0
1, 5091, Note_off_c, 9, 42, 0
1, 5136, Control_c, 8, 11, 72
1, 5136, Note_on_c, 4, 66, 44
1, 5136, Note_on_c, 4, 71, 44
1, 5136, Note_on_c, 4, 74, 44
1, 5136, Note_on_c, 9, 37, 83
1, 5136, Note_on_c, 9, 42, 79
1, 5139, Note_off_c, 9, 37, 0
1, 5139, Note_off_c, 9, 42, 0
1, 5160, Control_c, 2, 64, 127
1, 5160, Note_on_c, 2, 66, 38
1, 5182, Note_off_c, 4, 66, 0
1, 5182, Note_off_c, 4, 71, 0
1, 5182, Note_off_c, 4, 74, 0
1, 5182, Note_off_c, 2, 66, 0
1, 5184, Note_on_c, 2, 73, 62
1, 5184, Note_on_c, 4, 59, 44
1, 5184, Note_on_c, 8, 76, 126
1, 5184, Note_on_c, 9, 42, 29
1, 5184, Note_on_c, 12, 76, 108
1, 5187, Note_off_c, 9, 42, 0
1, 5206, Note_off_c, 2, 73, 0
1, 5206, Note_off_c, 8, 76, 0
1, 5206, Note_off_c, 12, 76, 0
1, 5208, Note_on_c, 2, 69, 38
1, 5208, Note_on_c, 8, 73, 115
1, 5208, Note_on_c, 9, 37, 83
1, 5208, Note_on_c, 12, 73, 105
1, 5211, Note_off_c, 9, 37, 0
1, 5230, Note_off_c, 4, 59, 0
1, 5230, Note_off_c, 2, 69, 0
1, 5230, Note_off_c, 8, 73, 0
1, 5230, Note_off_c, 12, 73, 0
1, 5232, Note_on_c, 2, 81, 62
1, 5232, Note_on_c, 4, 66, 44
1, 5232, Note_on_c, 4, 71, 44
1, 5232, Note_on_c, 4, 74, 44
1, 5232, Note_on_c, 8, 69, 99
1, 5232, Note_on_c, 9, 42, 79
1, 5232, Note_on_c, 12, 69, 101
1, 5235, Note_off_c, 9, 42, 0
1, 5254, Note_off_c, 1, 35, 0
1, 5254, Note_off_c, 2, 81, 0
1, 5254, Note_off_c, 8, 69, 0
1, 5254, Note_off_c, 12, 69, 0
1, 5256, Note_on_c, 1, 30, 62
1, 5256, Note_on_c, 2, 76, 38
1, 5256, Note_on_c, 8, 67, 89
1, 5256, Note_on_c, 12, 67, 99
1, 5278, Note_off_c, 4, 66, 0
1, 5278, Note_off_c, 4, 71, 0
1, 5278, Note_off_c, 4, 74, 0
1, 5278, Note_off_c, 1, 30, 0
1, 5278, Note_off_c, 2, 76, 0
1, 5278, Note_off_c, 8, 67, 0
1, 5278, Note_off_c, 12, 67, 0
1, 5280, Note_on_c, 1, 33, 74
1, 5280, Note_on_c, 2, 85, 58
1, 5280, Note_on_c, 4, 57, 44
1, 5280, Note_on_c, 8, 66, 79
1, 5280, Note_on_c, 9, 35, 74
1, 5280, Note_on_c, 9, 42, 39
1, 5280, Note_on_c, 12, 66, 96
1, 5283, Note_off_c, 9, 35, 0
1, 5283, Note_off_c, 9, 42, 0
1, 5294, Note_off_c, 3, 54, 0
1, 5302, Note_off_c, 2, 85, 0
1, 5302, Note_off_c, 8, 66, 0
1, 5302, Note_off_c, 12, 66, 0
1, 5304, Note_on_c, 2, 86, 63
1, 5326, Note_off_c, 4, 57, 0
1, 5326, Note_off_c, 2, 86, 0
1, 5328, Note_on_c, 2, 93, 68
1, 5328, Note_on_c, 4, 64, 44
1, 5328, Note_on_c, 4, 69, 44
1, 5328, Note_on_c, 4, 73, 44
1, 5328, Pitch_bend_c, 8, 4609
1, 5328, Note_on_c, 8, 73, 115
1, 5328, Note_on_c, 9, 37, 83
1, 5328, Note_on_c, 9, 42, 59
1, 5328, Pitch_bend_c, 12, 4609
1, 5328, Note_on_c, 12, 73, 105
1, 5331, Note_off_c, 9, 37, 0
1, 5331, Note_off_c, 9, 42, 0
1, 5344, Pitch_bend_c, 8, 8193
1, 5344, Pitch_bend_c, 12, 8193
1, 5350, Note_off_c, 1, 33, 0
1, 5350, Note_off_c, 2, 93, 0
1, 5352, Note_on_c, 1, 35, 62
1, 5352, Note_on_c, 2, 95, 78
1, 5352, Note_on_c, 9, 37, 83
1, 5352, Note_on_c, 9, 42, 79
1, 5355, Note_off_c, 9, 37, 0
1, 5355, Note_off_c, 9, 42, 0
1, 5374, Note_off_c, 4, 64, 0
1, 5374, Note_off_c, 4, 69, 0
1, 5374, Note_off_c, 4, 73, 0
1, 5374, Note_off_c, 1, 35, 0
1, 5374, Note_off_c, 2, 95, 0
1, 5376, Note_on_c, 1, 28, 74
1, 5376, Note_on_c, 2, 90, 48
1, 5376, Note_on_c, 4, 52, 44
1, 5400, Pitch_bend_c, 8, 12289
1, 5400, Pitch_bend_c, 12, 12289
1, 5422, Note_off_c, 4, 52, 0
1, 5424, Note_on_c, 4, 62, 44
1, 5424, Note_on_c, 4, 67, 44
1, 5424, Note_on_c, 4, 71, 44
1, 5424, Pitch_bend_c, 8, 1
1, 5424, Note_on_c, 9, 42, 79
1, 5424, Pitch_bend_c, 12, 1
1, 5427, Note_off_c, 9, 42, 0
1, 5448, Note_on_c, 3, 54, 64
1, 5466, Note_off_c, 3, 54, 0
1, 5470, Note_off_c, 4, 62, 0
1, 5470, Note_off_c, 4, 67, 0
1, 5470, Note_off_c, 4, 71, 0
1, 5472, Note_on_c, 3, 59, 73
1, 5472, Note_on_c, 9, 35, 74
1, 5475, Note_off_c, 9, 35, 0
1, 5494, Note_off_c, 3, 59, 0
1, 5496, Note_on_c, 3, 62, 79
1, 5515, Note_off_c, 3, 62, 0
1, 5520, Note_on_c, 4, 62, 44
1, 5520, Note_on_c, 4, 67, 44
1, 5520, Note_on_c, 4, 71, 44
1, 5520, Note_on_c, 9, 37, 83
1, 5520, Note_on_c, 9, 42, 79
1, 5523, Note_off_c, 9, 37, 0
1, 5523, Note_off_c, 9, 42, 0
1, 5544, Note_on_c, 3, 64, 60
1, 5566, Note_off_c, 8, 73, 0
1, 5566, Note_off_c, 12, 73, 0
1, 5566, Note_off_c, 1, 28, 0
1, 5566, Note_off_c, 4, 62, 0
1, 5566, Note_off_c, 4, 67, 0
1, 5566, Note_off_c, 4, 71, 0
1, 5567, Note_off_c, 3, 64, 0
1, 5568, Note_on_c, 1, 33, 74
1, 5568, Note_on_c, 4, 57, 44
1, 5592, Note_on_c, 3, 61, 69
1, 5614, Note_off_c, 4, 57, 0
1, 5616, Note_on_c, 4, 64, 44
1, 5616, Note_on_c, 4, 69, 44
1, 5616, Note_on_c, 4, 73, 44
1, 5616, Note_on_c, 9, 42, 79
1, 5619, Note_off_c, 9, 42, 0
1, 5622, Note_off_c, 3, 61, 0
1, 5640, Note_on_c, 3, 57, 70
1, 5662, Note_off_c, 4, 64, 0
1, 5662, Note_off_c, 4, 69, 0
1, 5662, Note_off_c, 4, 73, 0
1, 5664, Note_on_c, 4, 57, 44
1, 5664, Note_on_c, 9, 35, 74
1, 5667, Note_off_c, 9, 35, 0
1, 5668, Note_off_c, 3, 57, 0
1, 5688, Note_on_c, 3, 55, 48
1, 5710, Note_off_c, 4, 57, 0
1, 5712, Note_on_c, 4, 64, 44
1, 5712, Note_on_c, 4, 69, 44
1, 5712, Note_on_c, 4, 73, 44
1, 5712, Note_on_c, 9, 37, 83
1, 5712, Note_on_c, 9, 42, 79
1, 5715, Note_off_c, 9, 37, 0
1, 5715, Note_off_c, 9, 42, 0
1, 5719, Note_off_c, 3, 55, 0
1, 5736, Note_on_c, 3, 54, 69
1, 5758, Note_off_c, 2, 90, 0
1, 5758, Note_off_c, 1, 33, 0
1, 5758, Note_off_c, 4, 64, 0
1, 5758, Note_off_c, 4, 69, 0
1, 5758, Note_off_c, 4, 73, 0
1, 5759, Control_c, 2, 64, 0
1, 5760, Note_on_c, 1, 35, 74
1, 5760, Note_on_c, 4, 59, 44
1, 5775, Note_off_c, 3, 54, 0
1, 5784, Note_on_c, 3, 61, 76
1, 5801, Note_off_c, 3, 61, 0
1, 5806, Note_off_c, 4, 59, 0
1, 5808, Note_on_c, 4, 66, 44
1, 5808, Note_on_c, 4, 71, 44
1, 5808, Note_on_c, 4, 74, 44
1, 5808, Note_on_c, 9, 42, 79
1, 5811, Note_off_c, 9, 42, 0
1, 5832, Note_on_c, 3, 61, 77
1, 5854, Note_off_c, 4, 66, 0
1, 5854, Note_off_c, 4, 71, 0
1, 5854, Note_off_c, 4, 74, 0
1, 5856, Note_on_c, 9, 35, 74
1, 5859, Note_off_c, 9, 35, 0
1, 5874, Note_off_c, 3, 61, 0
1, 5880, Note_on_c, 3, 59, 56
1, 5902, Note_off_c, 3, 59, 0
1, 5904, Note_on_c, 3, 61, 76
1, 5904, Note_on_c, 4, 66, 44
1, 5904, Note_on_c, 4, 71, 44
1, 5904, Note_on_c, 4, 74, 44
1, 5904, Note_on_c, 9, 37, 83
1, 5904, Note_on_c, 9, 42, 79
1, 5907, Note_off_c, 9, 37, 0
1, 5907, Note_off_c, 9, 42, 0
1, 5926, Note_off_c, 1, 35, 0
1, 5950, Note_off_c, 4, 66, 0
1, 5950, Note_off_c, 4, 71, 0
1, 5950, Note_off_c, 4, 74, 0
1, 5952, Note_on_c, 1, 35, 74
1, 5952, Note_on_c, 4, 59, 44
1, 5998, Note_off_c, 4, 59, 0
1, 6000, Note_on_c, 4, 66, 44
1, 6000, Note_on_c, 4, 71, 44
1, 6000, Note_on_c, 4, 74, 44
1, 6000, Note_on_c, 9, 42, 59
1, 6003, Note_off_c, 9, 42, 0
1, 6014, Note_off_c, 3, 61, 0
1, 6024, Note_on_c, 9, 42, 79
1, 6027, Note_off_c, 9, 42, 0
1, 6046, Note_off_c, 1, 35, 0
1, 6046, Note_off_c, 4, 66, 0
1, 6046, Note_off_c, 4, 71, 0
1, 6046, Note_off_c, 4, 74, 0
1, 6048, Note_on_c, 1, 33, 74
1, 6048, Note_on_c, 4, 57, 44
1, 6048, Note_on_c, 9, 35, 74
1, 6051, Note_off_c, 9, 35, 0
1, 6080, Note_on_c, 3, 59, 67
1, 6094, Note_off_c, 4, 57, 0
1, 6096, Note_on_c, 4, 64, 44
1, 6096, Note_on_c, 4, 69, 44
1, 6096, Note_on_c, 4, 73, 44
1, 6096, Note_on_c, 9, 37, 83
1, 6096, Note_on_c, 9, 42, 59
1, 6099, Note_off_c, 9, 37, 0
1, 6099, Note_off_c, 9, 42, 0
1, 6102, Note_off_c, 3, 59, 0
1, 6112, Note_on_c, 3, 61, 72
1, 6120, Note_on_c, 9, 37, 83
1, 6120, Note_on_c, 9, 42, 79
1, 6123, Note_off_c, 9, 37, 0
1, 6123, Note_off_c, 9, 42, 0
1, 6134, Note_off_c, 3, 61, 0
1, 6142, Note_off_c, 1, 33, 0
1, 6142, Note_off_c, 4, 64, 0
1, 6142, Note_off_c, 4, 69, 0
1, 6142, Note_off_c, 4, 73, 0
1, 6144, Note_on_c, 1, 28, 74
1, 6144, Note_on_c, 3, 62, 77
1, 6144, Note_on_c, 4, 52, 44
1, 6144, Note_on_c, 9, 42, 29
1, 6147, Note_off_c, 9, 42, 0
1, 6190, Note_off_c, 4, 52, 0
1, 6192, Note_on_c, 4, 62, 44
1, 6192, Note_on_c, 4, 67, 44
1, 6192, Note_on_c, 4, 71, 44
1, 6192, Note_on_c, 9, 42, 79
1, 6195, Note_off_c, 9, 42, 0
1, 6214, Note_off_c, 3, 62, 0
1, 6216, Note_on_c, 3, 62, 76
1, 6238, Note_off_c, 4, 62, 0
1, 6238, Note_off_c, 4, 67, 0
1, 6238, Note_off_c, 4, 71, 0
1, 6240, Note_on_c, 9, 35, 74
1, 6240, Note_on_c, 9, 42, 29
1, 6243, Note_off_c, 9, 35, 0
1, 6243, Note_off_c, 9, 42, 0
1, 6286, Note_off_c, 3, 62, 0
1, 6288, Control_c, 2, 64, 127
1, 6288, Note_on_c, 3, 62, 73
1, 6288, Note_on_c, 4, 62, 44
1, 6288, Note_on_c, 4, 67, 44
1, 6288, Note_on_c, 4, 71, 44
1, 6288, Note_on_c, 9, 37, 83
1, 6288, Note_on_c, 9, 42, 79
1, 6291, Note_off_c, 9, 37, 0
1, 6291, Note_off_c, 9, 42, 0
1, 6334, Note_off_c, 1, 28, 0
1, 6334, Note_off_c, 3, 62, 0
1, 6334, Note_off_c, 4, 62, 0
1, 6334, Note_off_c, 4, 67, 0
1, 6334, Note_off_c, 4, 71, 0
1, 6336, Note_on_c, 1, 33, 74
1, 6336, Note_on_c, 3, 61, 69
1, 6336, Note_on_c, 4, 57, 44
1, 6336, Note_on_c, 9, 42, 29
1, 6339, Note_off_c, 9, 42, 0
1, 6382, Note_off_c, 4, 57, 0
1, 6384, Note_on_c, 2, 81, 62
1, 6384, Note_on_c, 4, 64, 44
1, 6384, Note_on_c, 4, 69, 44
1, 6384, Note_on_c, 4, 73, 44
1, 6384, Note_on_c, 9, 42, 79
1, 6387, Note_off_c, 9, 42, 0
1, 6406, Note_off_c, 3, 61, 0
1, 6406, Note_off_c, 2, 81, 0
1, 6408, Note_on_c, 2, 74, 38
1, 6408, Note_on_c, 3, 57, 68
1, 6430, Note_off_c, 4, 64, 0
1, 6430, Note_off_c, 4, 69, 0
1, 6430, Note_off_c, 4, 73, 0
1, 6430, Note_off_c, 2, 74, 0
1, 6432, Note_on_c, 2, 73, 62
1, 6432, Note_on_c, 4, 57, 44
1, 6432, Note_on_c, 9, 35, 74
1, 6432, Note_on_c, 9, 42, 29
1, 6435, Note_off_c, 9, 35, 0
1, 6435, Note_off_c, 9, 42, 0
1, 6454, Note_off_c, 2, 73, 0
1, 6456, Note_on_c, 2, 66, 62
1, 6470, Note_off_c, 3, 57, 0
1, 6478, Note_off_c, 4, 57, 0
1, 6478, Note_off_c, 2, 66, 0
1, 6480, Note_on_c, 3, 61, 68
1, 6480, Note_on_c, 4, 64, 44
1, 6480, Note_on_c, 4, 69, 44
1, 6480, Note_on_c, 4, 73, 44
1, 6480, Note_on_c, 9, 37, 83
1, 6480, Note_on_c, 9, 42, 79
1, 6483, Note_off_c, 9, 37, 0
1, 6483, Note_off_c, 9, 42, 0
1, 6502, Note_off_c, 3, 61, 0
1, 6504, Note_on_c, 3, 59, 57
1, 6526, Note_off_c, 1, 33, 0
1, 6526, Note_off_c, 4, 64, 0
1, 6526, Note_off_c, 4, 69, 0
1, 6526, Note_off_c, 4, 73, 0
1, 6528, Note_on_c, 1, 35, 74
1, 6528, Note_on_c, 2, 81, 62
1, 6528, Note_on_c, 4, 59, 44
1, 6528, Note_on_c, 9, 42, 29
1, 6531, Note_off_c, 9, 42, 0
1, 6550, Note_off_c, 2, 81, 0
1, 6552, Note_on_c, 2, 74, 38
1, 6574, Note_off_c, 4, 59, 0
1, 6574, Note_off_c, 2, 74, 0
1, 6576, Note_on_c, 2, 73, 62
1, 6576, Note_on_c, 4, 66, 44
1, 6576, Note_on_c, 4, 71, 44
1, 6576, Note_on_c, 4, 74, 44
1, 6576, Note_on_c, 9, 42, 79
1, 6579, Note_off_c, 9, 42, 0
1, 6598, Note_off_c, 2, 73, 0
1, 6600, Note_on_c, 2, 66, 38
1, 6622, Note_off_c, 4, 66, 0
1, 6622, Note_off_c, 4, 71, 0
1, 6622, Note_off_c, 4, 74, 0
1, 6622, Note_off_c, 2, 66, 0
1, 6624, Note_on_c, 2, 73, 48
1, 6624, Pitch_bend_c, 8, 8193
1, 6624, Note_on_c, 9, 35, 74
1, 6624, Note_on_c, 9, 42, 29
1, 6624, Pitch_bend_c, 12, 8193
1, 6627, Note_off_c, 9, 35, 0
1, 6627, Note_off_c, 9, 42, 0
1, 6646, Note_off_c, 2, 73, 0
1, 6648, Note_on_c, 2, 74, 33
1, 6648, Note_on_c, 8, 81, 126
1, 6648, Note_on_c, 12, 81, 108
1, 6670, Note_off_c, 2, 74, 0
1, 6670, Note_off_c, 8, 81, 0
1, 6670, Note_off_c, 12, 81, 0
1, 6672, Note_on_c, 2, 73, 48
1, 6672, Note_on_c, 4, 66, 44
1, 6672, Note_on_c, 4, 71, 44
1, 6672, Note_on_c, 4, 74, 44
1, 6672, Note_on_c, 8, 78, 69
1, 6672, Note_on_c, 9, 37, 83
1, 6672, Note_on_c, 9, 42, 79
1, 6672, Note_on_c, 12, 78, 94
1, 6675, Note_off_c, 9, 37, 0
1, 6675, Note_off_c, 9, 42, 0
1, 6694, Note_off_c, 1, 35, 0
1, 6694, Note_off_c, 2, 73, 0
1, 6694, Note_off_c, 8, 78, 0
1, 6694, Note_off_c, 12, 78, 0
1, 6696, Note_on_c, 1, 30, 62
1, 6696, Note_on_c, 2, 66, 38
1, 6696, Note_on_c, 8, 73, 79
1, 6696, Note_on_c, 12, 73, 96
1, 6718, Note_off_c, 4, 66, 0
1, 6718, Note_off_c, 4, 71, 0
1, 6718, Note_off_c, 4, 74, 0
1, 6718, Note_off_c, 1, 30, 0
1, 6718, Note_off_c, 2, 66, 0
1, 6718, Note_off_c, 8, 73, 0
1, 6718, Note_off_c, 12, 73, 0
1, 6719, Control_c, 2, 64, 0
1, 6720, Note_on_c, 1, 35, 74
1, 6720, Note_on_c, 2, 62, 48
1, 6720, Note_on_c, 4, 59, 44
1, 6720, Note_on_c, 9, 42, 29
1, 6723, Note_off_c, 9, 42, 0
1, 6742, Note_off_c, 2, 62, 0
1, 6744, Note_on_c, 2, 54, 38
1, 6744, Note_on_c, 8, 76, 126
1, 6744, Note_on_c, 9, 37, 83
1, 6744, Note_on_c, 12, 76, 108
1, 6747, Note_off_c, 9, 37, 0
1, 6766, Note_off_c, 1, 35, 0
1, 6766, Note_off_c, 4, 59, 0
1, 6766, Note_off_c, 2, 54, 0
1, 6766, Note_off_c, 8, 76, 0
1, 6766, Note_off_c, 12, 76, 0
1, 6768, Note_on_c, 1, 37, 74
1, 6768, Note_on_c, 2, 64, 48
1, 6768, Note_on_c, 4, 66, 44
1, 6768, Note_on_c, 4, 71, 44
1, 6768, Note_on_c, 4, 74, 44
1, 6768, Note_on_c, 8, 71, 69
1, 6768, Note_on_c, 9, 37, 83
1, 6768, Note_on_c, 9, 42, 79
1, 6768, Note_on_c, 12, 71, 94
1, 6771, Note_off_c, 9, 37, 0
1, 6771, Note_off_c, 9, 42, 0
1, 6790, Note_off_c, 2, 64, 0
1, 6790, Note_off_c, 8, 71, 0
1, 6790, Note_off_c, 12, 71, 0
1, 6792, Note_on_c, 2, 54, 38
1, 6792, Note_on_c, 8, 69, 79
1, 6792, Note_on_c, 12, 69, 96
1, 6814, Note_off_c, 1, 37, 0
1, 6814, Note_off_c, 4, 66, 0
1, 6814, Note_off_c, 4, 71, 0
1, 6814, Note_off_c, 4, 74, 0
1, 6814, Note_off_c, 2, 54, 0
1, 6814, Note_off_c, 8, 69, 0
1, 6814, Note_off_c, 12, 69, 0
1, 6816, Note_on_c, 1, 38, 74
1, 6816, Note_on_c, 2, 57, 48
1, 6816, Note_on_c, 4, 57, 44
1, 6816, Note_on_c, 9, 35, 74
1, 6816, Note_on_c, 9, 54, 59
1, 6819, Note_off_c, 9, 35, 0
1, 6819, Note_off_c, 9, 54, 0
1, 6829, Note_off_c, 3, 59, 0
1, 6838, Note_off_c, 2, 57, 0
1, 6840, Note_on_c, 2, 54, 38
1, 6840, Note_on_c, 8, 69, 126
1, 6840, Note_on_c, 12, 69, 108
1, 6862, Note_off_c, 1, 38, 0
1, 6862, Note_off_c, 4, 57, 0
1, 6862, Note_off_c, 2, 54, 0
1, 6862, Note_off_c, 8, 69, 0
1, 6862, Note_off_c, 12, 69, 0
1, 6864, Note_on_c, 1, 35, 74
1, 6864, Note_on_c, 2, 61, 48
1, 6864, Note_on_c, 4, 64, 44
1, 6864, Note_on_c, 4, 69, 44
1, 6864, Note_on_c, 4, 73, 44
1, 6864, Note_on_c, 8, 66, 69
1, 6864, Note_on_c, 9, 37, 83
1, 6864, Note_on_c, 9, 54, 79
1, 6864, Note_on_c, 9, 55, 79
1, 6864, Note_on_c, 12, 66, 94
1, 6867, Note_off_c, 9, 37, 0
1, 6867, Note_off_c, 9, 54, 0
1, 6867, Note_off_c, 9, 55, 0
1, 6886, Note_off_c, 2, 61, 0
1, 6886, Note_off_c, 8, 66, 0
1, 6886, Note_off_c, 12, 66, 0
1, 6888, Note_on_c, 2, 54, 38
1, 6888, Note_on_c, 8, 67, 89
1, 6888, Note_on_c, 12, 67, 99
1, 6910, Note_off_c, 1, 35, 0
1, 6910, Note_off_c, 4, 64, 0
1, 6910, Note_off_c, 4, 69, 0
1, 6910, Note_off_c, 4, 73, 0
1, 6910, Note_off_c, 2, 54, 0
1, 6912, Note_on_c, 1, 28, 74
1, 6912, Note_on_c, 2, 59, 38
1, 6912, Note_on_c, 4, 52, 44
1, 6944, Control_c, 8, 11, 65
1, 6944, Control_c, 12, 11, 65
1, 6958, Note_off_c, 4, 52, 0
1, 6960, Control_c, 8, 11, 46
1, 6960, Control_c, 12, 11, 46
1, 6960, Note_on_c, 4, 62, 44
1, 6960, Note_on_c, 4, 67, 44
1, 6960, Note_on_c, 4, 71, 44
1, 6960, Note_on_c, 9, 42, 79
1, 6963, Note_off_c, 9, 42, 0
1, 6976, Control_c, 8, 11, 29
1, 6976, Control_c, 12, 11, 29
1, 6982, Note_off_c, 1, 28, 0
1, 6984, Note_on_c, 3, 54, 70
1, 6992, Control_c, 8, 11, 19
1, 6992, Control_c, 12, 11, 19
1, 7002, Note_off_c, 3, 54, 0
1, 7006, Note_off_c, 8, 67, 0
1, 7006, Note_off_c, 12, 67, 0
1, 7006, Note_off_c, 4, 62, 0
1, 7006, Note_off_c, 4, 67, 0
1, 7006, Note_off_c, 4, 71, 0
1, 7008, Note_on_c, 1, 28, 74
1, 7008, Note_on_c, 3, 59, 76
1, 7008, Note_on_c, 9, 35, 74
1, 7011, Note_off_c, 9, 35, 0
1, 7030, Note_off_c, 3, 59, 0
1, 7032, Note_on_c, 3, 62, 74
1, 7049, Note_off_c, 3, 62, 0
1, 7056, Note_on_c, 4, 62, 44
1, 7056, Note_on_c, 4, 67, 44
1, 7056, Note_on_c, 4, 71, 44
1, 7056, Note_on_c, 9, 37, 83
1, 7056, Note_on_c, 9, 42, 79
1, 7059, Note_off_c, 9, 37, 0
1, 7059, Note_off_c, 9, 42, 0
1, 7080, Note_on_c, 3, 64, 50
1, 7102, Note_off_c, 1, 28, 0
1, 7102, Note_off_c, 4, 62, 0
1, 7102, Note_off_c, 4, 67, 0
1, 7102, Note_off_c, 4, 71, 0
1, 7104, Control_c, 8, 11, 72
1, 7104, Control_c, 12, 11, 72
1, 7104, Note_on_c, 1, 33, 74
1, 7104, Note_on_c, 4, 57, 44
1, 7111, Note_off_c, 3, 64, 0
1, 7128, Note_on_c, 3, 61, 75
1, 7150, Note_off_c, 4, 57, 0
1, 7152, Note_on_c, 4, 64, 44
1, 7152, Note_on_c, 4, 69, 44
1, 7152, Note_on_c, 4, 73, 44
1, 7152, Note_on_c, 9, 42, 79
1, 7153, Note_off_c, 3, 61, 0
1, 7155, Note_off_c, 9, 42, 0
1, 7174, Note_off_c, 1, 33, 0
1, 7176, Note_on_c, 3, 57, 62
1, 7198, Note_off_c, 4, 64, 0
1, 7198, Note_off_c, 4, 69, 0
1, 7198, Note_off_c, 4, 73, 0
1, 7200, Note_on_c, 1, 33, 74
1, 7200, Note_on_c, 4, 57, 44
1, 7200, Note_on_c, 9, 35, 74
1, 7203, Note_off_c, 9, 35, 0
1, 7213, Note_off_c, 3, 57, 0
1, 7224, Note_on_c, 3, 55, 67
1, 7246, Note_off_c, 4, 57, 0
1, 7246, Note_off_c, 3, 55, 0
1, 7248, Note_on_c, 4, 64, 44
1, 7248, Note_on_c, 4, 69, 44
1, 7248, Note_on_c, 4, 73, 44
1, 7248, Note_on_c, 9, 37, 83
1, 7248, Note_on_c, 9, 42, 79
1, 7251, Note_off_c, 9, 37, 0
1, 7251, Note_off_c, 9, 42, 0
1, 7272, Note_on_c, 3, 54, 72
1, 7294, Note_off_c, 2, 59, 0
1, 7294, Note_off_c, 1, 33, 0
1, 7294, Note_off_c, 4, 64, 0
1, 7294, Note_off_c, 4, 69, 0
1, 7294, Note_off_c, 4, 73, 0
1, 7296, Note_on_c, 1, 35, 74
1, 7296, Note_on_c, 4, 59, 44
1, 7318, Note_off_c, 3, 54, 0
1, 7320, Note_on_c, 3, 61, 74
1, 7340, Note_off_c, 3, 61, 0
1, 7342, Note_off_c, 4, 59, 0
1, 7344, Note_on_c, 4, 66, 44
1, 7344, Note_on_c, 4, 71, 44
1, 7344, Note_on_c, 4, 74, 44
1, 7344, Note_on_c, 9, 42, 79
1, 7347, Note_off_c, 9, 42, 0
1, 7368, Note_on_c, 3, 61, 79
1, 7390, Note_off_c, 4, 66, 0
1, 7390, Note_off_c, 4, 71, 0
1, 7390, Note_off_c, 4, 74, 0
1, 7392, Note_on_c, 9, 35, 74
1, 7395, Note_off_c, 9, 35, 0
1, 7440, Control_c, 2, 64, 127
1, 7440, Note_on_c, 4, 66, 44
1, 7440, Note_on_c, 4, 71, 44
1, 7440, Note_on_c, 4, 74, 44
1, 7440, Note_on_c, 9, 37, 83
1, 7440, Note_on_c, 9, 42, 79
1, 7443, Note_off_c, 9, 37, 0
1, 7443, Note_off_c, 9, 42, 0
1, 7462, Note_off_c, 1, 35, 0
1, 7464, Note_on_c, 1, 30, 62
1, 7486, Note_off_c, 4, 66, 0
1, 7486, Note_off_c, 4, 71, 0
1, 7486, Note_off_c, 4, 74, 0
1, 7486, Note_off_c, 1, 30, 0
1, 7488, Note_on_c, 1, 35, 74
1, 7488, Note_on_c, 2, 73, 48
1, 7488, Note_on_c, 4, 59, 44
1, 7488, Note_on_c, 9, 42, 39
1, 7491, Note_off_c, 9, 42, 0
1, 7510, Note_off_c, 2, 73, 0
1, 7512, Note_on_c, 2, 74, 38
1, 7512, Note_on_c, 9, 42, 29
1, 7515, Note_off_c, 9, 42, 0
1, 7534, Note_off_c, 1, 35, 0
1, 7534, Note_off_c, 4, 59, 0
1, 7534, Note_off_c, 2, 74, 0
1, 7536, Note_on_c, 1, 37, 74
1, 7536, Note_on_c, 2, 81, 58
1, 7536, Note_on_c, 4, 66, 44
1, 7536, Note_on_c, 4, 71, 44
1, 7536, Note_on_c, 4, 74, 44
1, 7536, Note_on_c, 9, 42, 39
1, 7539, Note_off_c, 9, 42, 0
1, 7558, Note_off_c, 2, 81, 0
1, 7560, Note_on_c, 9, 42, 79
1, 7560, Note_on_c, 9, 59, 39
1, 7563, Note_off_c, 9, 42, 0
1, 7563, Note_off_c, 9, 59, 0
1, 7582, Note_off_c, 1, 37, 0
1, 7582, Note_off_c, 4, 66, 0
1, 7582, Note_off_c, 4, 71, 0
1, 7582, Note_off_c, 4, 74, 0
1, 7584, Note_on_c, 1, 38, 74
1, 7584, Note_on_c, 4, 57, 44
1, 7584, Note_on_c, 9, 35, 74
1, 7587, Note_off_c, 9, 35, 0
1, 7620, Note_off_c, 3, 61, 0
1, 7630, Note_off_c, 4, 57, 0
1, 7632, Note_on_c, 4, 64, 44
1, 7632, Note_on_c, 4, 69, 44
1, 7632, Note_on_c, 4, 73, 44
1, 7632, Note_on_c, 9, 37, 83
1, 7632, Note_on_c, 9, 42, 59
1, 7635, Note_off_c, 9, 37, 0
1, 7635, Note_off_c, 9, 42, 0
1, 7656, Note_on_c, 9, 37, 83
1, 7656, Note_on_c, 9, 42, 79
1, 7659, Note_off_c, 9, 37, 0
1, 7659, Note_off_c, 9, 42, 0
1, 7678, Note_off_c, 1, 38, 0
1, 7678, Note_off_c, 4, 64, 0
1, 7678, Note_off_c, 4, 69, 0
1, 7678, Note_off_c, 4, 73, 0
1, 7680, Note_on_c, 1, 28, 74
1, 7680, Note_on_c, 4, 52, 44
1, 7726, Note_off_c, 4, 52, 0
1, 7728, Note_on_c, 4, 62, 44
1, 7728, Note_on_c, 4, 67, 44
1, 7728, Note_on_c, 4, 71, 44
1, 7728, Note_on_c, 9, 42, 79
1, 7731, Note_off_c, 9, 42, 0
1, 7750, Note_off_c, 1, 28, 0
1, 7752, Note_on_c, 3, 54, 61
1, 7772, Note_off_c, 3, 54, 0
1, 7774, Note_off_c, 4, 62, 0
1, 7774, Note_off_c, 4, 67, 0
1, 7774, Note_off_c, 4, 71, 0
1, 7776, Note_on_c, 1, 28, 74
1, 7776, Note_on_c, 3, 59, 76
1, 7776, Note_on_c, 9, 35, 74
1, 7779, Note_off_c, 9, 35, 0
1, 7797, Note_off_c, 3, 59, 0
1, 7800, Note_on_c, 3, 62, 74
1, 7818, Note_off_c, 3, 62, 0
1, 7824, Note_on_c, 4, 62, 44
1, 7824, Note_on_c, 4, 67, 44
1, 7824, Note_on_c, 4, 71, 44
1, 7824, Note_on_c, 9, 37, 83
1, 7824, Note_on_c, 9, 42, 79
1, 7827, Note_off_c, 9, 37, 0
1, 7827, Note_off_c, 9, 42, 0
1, 7848, Note_on_c, 3, 64, 64
1, 7870, Note_off_c, 1, 28, 0
1, 7870, Note_off_c, 4, 62, 0
1, 7870, Note_off_c, 4, 67, 0
1, 7870, Note_off_c, 4, 71, 0
1, 7872, Control_c, 2, 64, 0
1, 7872, Note_on_c, 1, 33, 74
1, 7872, Note_on_c, 4, 57, 44
1, 7876, Note_off_c, 3, 64, 0
1, 7896, Note_on_c, 3, 61, 76
1, 7896, Note_on_c, 9, 37, 83
1, 7899, Note_off_c, 9, 37, 0
1, 7917, Note_off_c, 3, 61, 0
1, 7918, Note_off_c, 4, 57, 0
1, 7920, Note_on_c, 4, 64, 44
1, 7920, Note_on_c, 4, 69, 44
1, 7920, Note_on_c, 4, 73, 44
1, 7920, Note_on_c, 9, 42, 79
1, 7923, Note_off_c, 9, 42, 0
1, 7942, Note_off_c, 1, 33, 0
1, 7944, Note_on_c, 3, 57, 45
1, 7966, Note_off_c, 4, 64, 0
1, 7966, Note_off_c, 4, 69, 0
1, 7966, Note_off_c, 4, 73, 0
1, 7968, Note_off_c, 3, 57, 0
1, 7968, Note_on_c, 1, 33, 74
1, 7968, Note_on_c, 4, 57, 44
1, 7968, Note_on_c, 9, 35, 74
1, 7968, Note_on_c, 9, 42, 39
1, 7971, Note_off_c, 9, 35, 0
1, 7971, Note_off_c, 9, 42, 0
1, 7992, Note_on_c, 3, 55, 75
1, 8014, Note_off_c, 4, 57, 0
1, 8016, Note_on_c, 4, 64, 44
1, 8016, Note_on_c, 4, 69, 44
1, 8016, Note_on_c, 4, 73, 44
1, 8016, Note_on_c, 9, 37, 83
1, 8016, Note_on_c, 9, 42, 79
1, 8019, Note_off_c, 9, 37, 0
1, 8019, Note_off_c, 9, 42, 0
1, 8062, Note_off_c, 1, 33, 0
1, 8062, Note_off_c, 3, 55, 0
1, 8062, Note_off_c, 4, 64, 0
1, 8062, Note_off_c, 4, 69, 0
1, 8062, Note_off_c, 4, 73, 0
1, 8064, Note_on_c, 1, 35, 74
1, 8064, Note_on_c, 3, 54, 78
1, 8064, Note_on_c, 4, 59, 44
1, 8110, Note_off_c, 4, 59, 0
1, 8112, Note_on_c, 4, 66, 44
1, 8112, Note_on_c, 4, 71, 44
1, 8112, Note_on_c, 4, 74, 44
1, 8112, Note_on_c, 9, 42, 79
1, 8115, Note_off_c, 9, 42, 0
1, 8136, Note_on_c, 8, 74, 69
1, 8136, Note_on_c, 12, 74, 94
1, 8158, Note_off_c, 4, 66, 0
1, 8158, Note_off_c, 4, 71, 0
1, 8158, Note_off_c, 4, 74, 0
1, 8158, Note_off_c, 8, 74, 0
1, 8158, Note_off_c, 12, 74, 0
1, 8160, Note_on_c, 8, 76, 99
1, 8160, Note_on_c, 9, 35, 74
1, 8160, Note_on_c, 12, 76, 101
1, 8163, Note_off_c, 9, 35, 0
1, 8182, Note_off_c, 8, 76, 0
1, 8182, Note_off_c, 12, 76, 0
1, 8184, Note_on_c, 8, 78, 69
1, 8184, Note_on_c, 12, 78, 94
1, 8206, Note_off_c, 8, 78, 0
1, 8206, Note_off_c, 12, 78, 0
1, 8208, Note_on_c, 4, 66, 44
1, 8208, Note_on_c, 4, 71, 44
1, 8208, Note_on_c, 4, 74, 44
1, 8208, Note_on_c, 8, 79, 126
1, 8208, Note_on_c, 9, 37, 83
1, 8208, Note_on_c, 9, 42, 79
1, 8208, Note_on_c, 12, 79, 108
1, 8211, Note_off_c, 9, 37, 0
1, 8211, Note_off_c, 9, 42, 0
1, 8230, Note_off_c, 1, 35, 0
1, 8230, Note_off_c, 8, 79, 0
1, 8230, Note_off_c, 12, 79, 0
1, 8232, Note_on_c, 1, 30, 62
1, 8232, Note_on_c, 8, 78, 59
1, 8232, Note_on_c, 12, 78, 91
1, 8254, Note_off_c, 4, 66, 0
1, 8254, Note_off_c, 4, 71, 0
1, 8254, Note_off_c, 4, 74, 0
1, 8254, Note_off_c, 1, 30, 0
1, 8254, Note_off_c, 8, 78, 0
1, 8254, Note_off_c, 12, 78, 0
1, 8256, Note_on_c, 1, 35, 74
1, 8256, Note_on_c, 4, 59, 44
1, 8256, Note_on_c, 8, 79, 126
1, 8256, Note_on_c, 9, 42, 59
1, 8256, Note_on_c, 12, 79, 108
1, 8259, Note_off_c, 9, 42, 0
1, 8268, Note_on_c, 9, 42, 39
1, 8271, Note_off_c, 9, 42, 0
1, 8280, Note_on_c, 9, 42, 29
1, 8283, Note_off_c, 9, 42, 0
1, 8302, Note_off_c, 4, 59, 0
1, 8302, Note_off_c, 8, 79, 0
1, 8302, Note_off_c, 12, 79, 0
1, 8304, Note_on_c, 4, 66, 44
1, 8304, Note_on_c, 4, 71, 44
1, 8304, Note_on_c, 4, 74, 44
1, 8304, Note_on_c, 8, 78, 79
1, 8304, Note_on_c, 9, 42, 59
1, 8304, Note_on_c, 12, 78, 96
1, 8307, Note_off_c, 9, 42, 0
1, 8326, Note_off_c, 8, 78, 0
1, 8326, Note_off_c, 12, 78, 0
1, 8328, Note_on_c, 8, 76, 89
1, 8328, Note_on_c, 9, 37, 83
1, 8328, Note_on_c, 12, 76, 99
1, 8330, Note_off_c, 3, 54, 0
1, 8331, Note_off_c, 9, 37, 0
1, 8350, Note_off_c, 1, 35, 0
1, 8350, Note_off_c, 4, 66, 0
1, 8350, Note_off_c, 4, 71, 0
1, 8350, Note_off_c, 4, 74, 0
1, 8350, Note_off_c, 8, 76, 0
1, 8350, Note_off_c, 12, 76, 0
1, 8352, Note_on_c, 1, 33, 74
1, 8352, Note_on_c, 4, 57, 44
1, 8352, Note_on_c, 8, 74, 109
1, 8352, Note_on_c, 9, 35, 74
1, 8352, Note_on_c, 9, 54, 59
1, 8352, Note_on_c, 12, 74, 104
1, 8355, Note_off_c, 9, 35, 0
1, 8355, Note_off_c, 9, 54, 0
1, 8398, Note_off_c, 4, 57, 0
1, 8398, Note_off_c, 8, 74, 0
1, 8398, Note_off_c, 12, 74, 0
1, 8400, Note_on_c, 4, 64, 44
1, 8400, Note_on_c, 4, 69, 44
1, 8400, Note_on_c, 4, 73, 44
1, 8400, Note_on_c, 8, 76, 79
1, 8400, Note_on_c, 9, 46, 59
1, 8400, Note_on_c, 12, 76, 96
1, 8403, Note_off_c, 9, 46, 0
1, 8422, Note_off_c, 8, 76, 0
1, 8422, Note_off_c, 12, 76, 0
1, 8424, Note_on_c, 8, 74, 89
1, 8424, Note_on_c, 12, 74, 99
1, 8446, Note_off_c, 1, 33, 0
1, 8446, Note_off_c, 4, 64, 0
1, 8446, Note_off_c, 4, 69, 0
1, 8446, Note_off_c, 4, 73, 0
1, 8446, Note_off_c, 8, 74, 0
1, 8446, Note_off_c, 12, 74, 0
1, 8448, Note_on_c, 1, 28, 74
1, 8448, Note_on_c, 4, 52, 44
1, 8448, Note_on_c, 8, 73, 109
1, 8448, Note_on_c, 12, 73, 104
1, 8494, Note_off_c, 4, 52, 0
1, 8494, Note_off_c, 8, 73, 0
1, 8494, Note_off_c, 12, 73, 0
1, 8496, Note_on_c, 4, 62, 44
1, 8496, Note_on_c, 4, 67, 44
1, 8496, Note_on_c, 4, 71, 44
1, 8496, Note_on_c, 8, 74, 79
1, 8496, Note_on_c, 9, 42, 79
1, 8496, Note_on_c, 12, 74, 96
1, 8499, Note_off_c, 9, 42, 0
1, 8518, Note_off_c, 1, 28, 0
1, 8518, Note_off_c, 8, 74, 0
1, 8518, Note_off_c, 12, 74, 0
1, 8520, Note_on_c, 3, 64, 62
1, 8520, Note_on_c, 8, 73, 79
1, 8520, Note_on_c, 12, 73, 96
1, 8536, Note_off_c, 3, 64, 0
1, 8542, Note_off_c, 4, 62, 0
1, 8542, Note_off_c, 4, 67, 0
1, 8542, Note_off_c, 4, 71, 0
1, 8542, Note_off_c, 8, 73, 0
1, 8542, Note_off_c, 12, 73, 0
1, 8544, Note_on_c, 1, 28, 74
1, 8544, Note_on_c, 3, 67, 76
1, 8544, Note_on_c, 8, 71, 105
1, 8544, Note_on_c, 9, 35, 74
1, 8544, Note_on_c, 12, 71, 103
1, 8547, Note_off_c, 9, 35, 0
1, 8560, Note_off_c, 3, 67, 0
1, 8568, Note_on_c, 3, 67, 70
1, 8590, Note_off_c, 8, 71, 0
1, 8590, Note_off_c, 12, 71, 0
1, 8592, Note_on_c, 4, 62, 44
1, 8592, Note_on_c, 4, 67, 44
1, 8592, Note_on_c, 4, 71, 44
1, 8592, Note_on_c, 8, 73, 69
1, 8592, Note_on_c, 9, 37, 83
1, 8592, Note_on_c, 9, 42, 79
1, 8592, Note_on_c, 12, 73, 94
1, 8595, Note_off_c, 9, 37, 0
1, 8595, Note_off_c, 9, 42, 0
1, 8596, Note_off_c, 3, 67, 0
1, 8614, Note_off_c, 8, 73, 0
1, 8614, Note_off_c, 12, 73, 0
1, 8616, Note_on_c, 3, 69, 76
1, 8616, Note_on_c, 8, 74, 79
1, 8616, Note_on_c, 12, 74, 96
1, 8638, Note_off_c, 1, 28, 0
1, 8638, Note_off_c, 4, 62, 0
1, 8638, Note_off_c, 4, 67, 0
1, 8638, Note_off_c, 4, 71, 0
1, 8638, Note_off_c, 8, 74, 0
1, 8638, Note_off_c, 12, 74, 0
1, 8640, Note_on_c, 1, 33, 74
1, 8640, Note_on_c, 4, 57, 44
1, 8640, Note_on_c, 8, 76, 89
1, 8640, Note_on_c, 12, 76, 99
1, 8659, Note_off_c, 3, 69, 0
1, 8662, Note_off_c, 8, 76, 0
1, 8662, Note_off_c, 12, 76, 0
1, 8664, Note_on_c, 3, 67, 64
1, 8664, Note_on_c, 8, 74, 79
1, 8664, Note_on_c, 12, 74, 96
1, 8686, Note_off_c, 4, 57, 0
1, 8686, Note_off_c, 8, 74, 0
1, 8686, Note_off_c, 12, 74, 0
1, 8688, Note_on_c, 4, 64, 44
1, 8688, Note_on_c, 4, 69, 44
1, 8688, Note_on_c, 4, 73, 44
1, 8688, Note_on_c, 8, 73, 69
1, 8688, Note_on_c, 9, 42, 79
1, 8688, Note_on_c, 12, 73, 94
1, 8690, Note_off_c, 3, 67, 0
1, 8691, Note_off_c, 9, 42, 0
1, 8710, Note_off_c, 1, 33, 0
1, 8712, Note_on_c, 3, 66, 69
1, 8734, Note_off_c, 4, 64, 0
1, 8734, Note_off_c, 4, 69, 0
1, 8734, Note_off_c, 4, 73, 0
1, 8736, Note_on_c, 1, 33, 74
1, 8736, Note_on_c, 4, 57, 44
1, 8736, Note_on_c, 9, 35, 74
1, 8739, Note_off_c, 9, 35, 0
1, 8758, Note_off_c, 3, 66, 0
1, 8760, Note_on_c, 3, 64, 66
1, 8780, Note_off_c, 3, 64, 0
1, 8782, Note_off_c, 8, 73, 0
1, 8782, Note_off_c, 12, 73, 0
1, 8782, Note_off_c, 4, 57, 0
1, 8784, Note_on_c, 4, 64, 44
1, 8784, Note_on_c, 4, 69, 44
1, 8784, Note_on_c, 4, 73, 44
1, 8784, Note_on_c, 9, 37, 83
1, 8784, Note_on_c, 9, 42, 79
1, 8787, Note_off_c, 9, 37, 0
1, 8787, Note_off_c, 9, 42, 0
1, 8808, Note_on_c, 3, 66, 79
1, 8830, Note_off_c, 1, 33, 0
1, 8830, Note_off_c, 4, 64, 0
1, 8830, Note_off_c, 4, 69, 0
1, 8830, Note_off_c, 4, 73, 0
1, 8832, Note_on_c, 1, 35, 74
1, 8832, Note_on_c, 4, 59, 44
1, 8878, Note_off_c, 4, 59, 0
1, 8880, Note_on_c, 4, 66, 44
1, 8880, Note_on_c, 4, 71, 44
1, 8880, Note_on_c, 4, 74, 44
1, 8880, Note_on_c, 9, 42, 79
1, 8883, Note_off_c, 9, 42, 0
1, 8926, Note_off_c, 4, 66, 0
1, 8926, Note_off_c, 4, 71, 0
1, 8926, Note_off_c, 4, 74, 0
1, 8928, Note_on_c, 9, 35, 74
1, 8931, Note_off_c, 9, 35, 0
1, 8976, Control_c, 2, 64, 127
1, 8976, Note_on_c, 4, 66, 44
1, 8976, Note_on_c, 4, 71, 44
1, 8976, Note_on_c, 4, 74, 44
1, 8976, Note_on_c, 9, 37, 83
1, 8976, Note_on_c, 9, 42, 79
1, 8979, Note_off_c, 9, 37, 0
1, 8979, Note_off_c, 9, 42, 0
1, 8998, Note_off_c, 1, 35, 0
1, 9000, Note_on_c, 1, 30, 62
1, 9000, Note_on_c, 2, 59, 58
1, 9022, Note_off_c, 4, 66, 0
1, 9022, Note_off_c, 4, 71, 0
1, 9022, Note_off_c, 4, 74, 0
1, 9022, Note_off_c, 1, 30, 0
1, 9022, Note_off_c, 2, 59, 0
1, 9024, Note_on_c, 1, 35, 74
1, 9024, Note_on_c, 2, 61, 48
1, 9024, Note_on_c, 4, 59, 44
1, 9046, Note_off_c, 2, 61, 0
1, 9048, Note_on_c, 2, 62, 38
1, 9064, Note_off_c, 3, 66, 0
1, 9070, Note_off_c, 4, 59, 0
1, 9070, Note_off_c, 2, 62, 0
1, 9072, Note_on_c, 4, 66, 44
1, 9072, Note_on_c, 4, 71, 44
1, 9072, Note_on_c, 4, 74, 44
1, 9072, Note_on_c, 9, 42, 59
1, 9075, Note_off_c, 9, 42, 0
1, 9096, Note_on_c, 2, 69, 58
1, 9096, Note_on_c, 9, 42, 79
1, 9099, Note_off_c, 9, 42, 0
1, 9118, Note_off_c, 1, 35, 0
1, 9118, Note_off_c, 4, 66, 0
1, 9118, Note_off_c, 4, 71, 0
1, 9118, Note_off_c, 4, 74, 0
1, 9118, Note_off_c, 2, 69, 0
1, 9120, Note_on_c, 1, 33, 74
1, 9120, Note_on_c, 4, 57, 44
1, 9120, Note_on_c, 9, 35, 74
1, 9123, Note_off_c, 9, 35, 0
1, 9152, Note_on_c, 3, 59, 72
1, 9166, Note_off_c, 4, 57, 0
1, 9168, Note_on_c, 4, 64, 44
1, 9168, Note_on_c, 4, 69, 44
1, 9168, Note_on_c, 4, 73, 44
1, 9168, Note_on_c, 9, 37, 83
1, 9168, Note_on_c, 9, 42, 59
1, 9171, Note_off_c, 9, 37, 0
1, 9171, Note_off_c, 9, 42, 0
1, 9174, Note_off_c, 3, 59, 0
1, 9184, Note_on_c, 3, 61, 72
1, 9190, Note_off_c, 1, 33, 0
1, 9192, Note_on_c, 1, 35, 62
1, 9192, Note_on_c, 9, 37, 83
1, 9192, Note_on_c, 9, 42, 79
1, 9195, Note_off_c, 9, 37, 0
1, 9195, Note_off_c, 9, 42, 0
1, 9206, Note_off_c, 3, 61, 0
1, 9214, Note_off_c, 4, 64, 0
1, 9214, Note_off_c, 4, 69, 0
1, 9214, Note_off_c, 4, 73, 0
1, 9214, Note_off_c, 1, 35, 0
1, 9216, Note_on_c, 1, 28, 74
1, 9216, Note_on_c, 3, 62, 76
1, 9216, Note_on_c, 4, 52, 44
1, 9216, Note_on_c, 9, 42, 29
1, 9219, Note_off_c, 9, 42, 0
1, 9262, Note_off_c, 4, 52, 0
1, 9263, Note_off_c, 3, 62, 0
1, 9264, Note_on_c, 4, 62, 44
1, 9264, Note_on_c, 4, 67, 44
1, 9264, Note_on_c, 4, 71, 44
1, 9264, Note_on_c, 9, 42, 79
1, 9267, Note_off_c, 9, 42, 0
1, 9286, Note_off_c, 1, 28, 0
1, 9288, Note_on_c, 3, 62, 72
1, 9310, Note_off_c, 4, 62, 0
1, 9310, Note_off_c, 4, 67, 0
1, 9310, Note_off_c, 4, 71, 0
1, 9312, Note_on_c, 1, 28, 74
1, 9312, Note_on_c, 9, 35, 74
1, 9312, Note_on_c, 9, 42, 29
1, 9315, Note_off_c, 9, 35, 0
1, 9315, Note_off_c, 9, 42, 0
1, 9345, Note_off_c, 3, 62, 0
1, 9360, Note_on_c, 3, 62, 76
1, 9360, Note_on_c, 4, 62, 44
1, 9360, Note_on_c, 4, 67, 44
1, 9360, Note_on_c, 4, 71, 44
1, 9360, Note_on_c, 9, 37, 83
1, 9360, Note_on_c, 9, 42, 79
1, 9363, Note_off_c, 9, 37, 0
1, 9363, Note_off_c, 9, 42, 0
1, 9392, Note_off_c, 3, 62, 0
1, 9406, Note_off_c, 1, 28, 0
1, 9406, Note_off_c, 4, 62, 0
1, 9406, Note_off_c, 4, 67, 0
1, 9406, Note_off_c, 4, 71, 0
1, 9408, Note_on_c, 1, 33, 74
1, 9408, Note_on_c, 3, 61, 76
1, 9408, Note_on_c, 4, 57, 44
1, 9408, Note_on_c, 9, 42, 29
1, 9411, Note_off_c, 9, 42, 0
1, 9454, Note_off_c, 4, 57, 0
1, 9456, Note_on_c, 4, 64, 44
1, 9456, Note_on_c, 4, 69, 44
1, 9456, Note_on_c, 4, 73, 44
1, 9456, Note_on_c, 9, 42, 79
1, 9459, Note_off_c, 9, 42, 0
1, 9478, Note_off_c, 1, 33, 0
1, 9478, Note_off_c, 3, 61, 0
1, 9480, Note_on_c, 3, 57, 70
1, 9502, Note_off_c, 4, 64, 0
1, 9502, Note_off_c, 4, 69, 0
1, 9502, Note_off_c, 4, 73, 0
1, 9504, Note_on_c, 1, 33, 74
1, 9504, Note_on_c, 4, 57, 44
1, 9504, Note_on_c, 9, 35, 74
1, 9504, Note_on_c, 9, 42, 29
1, 9507, Note_off_c, 9, 35, 0
1, 9507, Note_off_c, 9, 42, 0
1, 9544, Note_off_c, 3, 57, 0
1, 9550, Note_off_c, 4, 57, 0
1, 9552, Control_c, 2, 64, 0
1, 9552, Note_on_c, 3, 59, 79
1, 9552, Note_on_c, 4, 64, 44
1, 9552, Note_on_c, 4, 69, 44
1, 9552, Note_on_c, 4, 73, 44
1, 9552, Note_on_c, 9, 37, 83
1, 9552, Note_on_c, 9, 42, 79
1, 9555, Note_off_c, 9, 37, 0
1, 9555, Note_off_c, 9, 42, 0
1, 9598, Note_off_c, 1, 33, 0
1, 9598, Note_off_c, 4, 64, 0
1, 9598, Note_off_c, 4, 69, 0
1, 9598, Note_off_c, 4, 73, 0
1, 9600, Note_on_c, 1, 35, 74
1, 9600, Note_on_c, 4, 59, 44
1, 9600, Note_on_c, 8, 71, 89
1, 9600, Note_on_c, 9, 42, 29
1, 9600, Note_on_c, 12, 71, 99
1, 9603, Note_off_c, 9, 42, 0
1, 9624, Note_on_c, 9, 37, 83
1, 9627, Note_off_c, 9, 37, 0
1, 9646, Note_off_c, 4, 59, 0
1, 9648, Note_on_c, 4, 66, 44
1, 9648, Note_on_c, 4, 71, 44
1, 9648, Note_on_c, 4, 74, 44
1, 9648, Note_on_c, 9, 42, 79
1, 9651, Note_off_c, 9, 42, 0
1, 9694, Note_off_c, 1, 35, 0
1, 9694, Note_off_c, 4, 66, 0
1, 9694, Note_off_c, 4, 71, 0
1, 9694, Note_off_c, 4, 74, 0
1, 9696, Note_on_c, 1, 35, 74
1, 9696, Note_on_c, 9, 35, 74
1, 9696, Note_on_c, 9, 42, 29
1, 9699, Note_off_c, 9, 35, 0
1, 9699, Note_off_c, 9, 42, 0
1, 9726, Note_off_c, 8, 71, 0
1, 9726, Note_off_c, 12, 71, 0
1, 9728, Note_on_c, 8, 71, 79
1, 9728, Note_on_c, 12, 71, 96
1, 9744, Note_on_c, 4, 66, 44
1, 9744, Note_on_c, 4, 71, 44
1, 9744, Note_on_c, 4, 74, 44
1, 9744, Note_on_c, 9, 37, 83
1, 9744, Note_on_c, 9, 42, 79
1, 9747, Note_off_c, 9, 37, 0
1, 9747, Note_off_c, 9, 42, 0
1, 9750, Note_off_c, 8, 71, 0
1, 9750, Note_off_c, 12, 71, 0
1, 9760, Note_on_c, 8, 73, 79
1, 9760, Note_on_c, 12, 73, 96
1, 9782, Note_off_c, 8, 73, 0
1, 9782, Note_off_c, 12, 73, 0
1, 9790, Note_off_c, 1, 35, 0
1, 9790, Note_off_c, 4, 66, 0
1, 9790, Note_off_c, 4, 71, 0
1, 9790, Note_off_c, 4, 74, 0
1, 9792, Note_on_c, 1, 35, 74
1, 9792, Note_on_c, 4, 59, 44
1, 9792, Note_on_c, 8, 70, 99
1, 9792, Note_on_c, 9, 42, 29
1, 9792, Note_on_c, 12, 70, 101
1, 9795, Note_off_c, 9, 42, 0
1, 9816, Note_on_c, 9, 37, 83
1, 9819, Note_off_c, 9, 37, 0
1, 9838, Note_off_c, 4, 59, 0
1, 9840, Note_on_c, 4, 66, 44
1, 9840, Note_on_c, 4, 71, 44
1, 9840, Note_on_c, 4, 74, 44
1, 9840, Note_on_c, 9, 37, 83
1, 9840, Note_on_c, 9, 42, 79
1, 9843, Note_off_c, 9, 37, 0
1, 9843, Note_off_c, 9, 42, 0
1, 9862, Note_off_c, 8, 70, 0
1, 9862, Note_off_c, 12, 70, 0
1, 9864, Note_on_c, 8, 71, 79
1, 9864, Note_on_c, 12, 71, 96
1, 9886, Note_off_c, 1, 35, 0
1, 9886, Note_off_c, 4, 66, 0
1, 9886, Note_off_c, 4, 71, 0
1, 9886, Note_off_c, 4, 74, 0
1, 9886, Note_off_c, 8, 71, 0
1, 9886, Note_off_c, 12, 71, 0
1, 9888, Note_off_c, 3, 59, 0
1, 9888, Note_on_c, 1, 33, 74
1, 9888, Note_on_c, 4, 57, 44
1, 9888, Note_on_c, 8, 73, 109
1, 9888, Note_on_c, 9, 35, 74
1, 9888, Note_on_c, 9, 54, 59
1, 9888, Note_on_c, 11, 66, 91
1, 9888, Note_on_c, 11, 69, 91
1, 9888, Note_on_c, 12, 73, 104
1, 9891, Note_off_c, 9, 35, 0
1, 9891, Note_off_c, 9, 54, 0
1, 9934, Note_off_c, 4, 57, 0
1, 9936, Note_on_c, 4, 64, 44
1, 9936, Note_on_c, 4, 69, 44
1, 9936, Note_on_c, 4, 73, 44
1, 9936, Note_on_c, 9, 37, 83
1, 9936, Note_on_c, 9, 54, 79
1, 9936, Note_on_c, 9, 55, 79
1, 9939, Note_off_c, 9, 37, 0
1, 9939, Note_off_c, 9, 54, 0
1, 9939, Note_off_c, 9, 55, 0
1, 9958, Note_off_c, 8, 73, 0
1, 9958, Note_off_c, 12, 73, 0
1, 9960, Note_on_c, 8, 74, 79
1, 9960, Note_on_c, 12, 74, 96
1, 9981, Note_off_c, 11, 66, 0
1, 9981, Note_off_c, 11, 69, 0
1, 9982, Note_off_c, 1, 33, 0
1, 9982, Note_off_c, 4, 64, 0
1, 9982, Note_off_c, 4, 69, 0
1, 9982, Note_off_c, 4, 73, 0
1, 9982, Note_off_c, 8, 74, 0
1, 9982, Note_off_c, 12, 74, 0
1, 9984, Note_on_c, 1, 28, 74
1, 9984, Note_on_c, 4, 52, 44
1, 9984, Note_on_c, 8, 76, 125
1, 9984, Note_on_c, 9, 42, 39
1, 9984, Note_on_c, 11, 62, 84
1, 9984, Note_on_c, 11, 66, 84
1, 9984, Note_on_c, 12, 76, 108
1, 9987, Note_off_c, 9, 42, 0
1, 10008, Note_on_c, 9, 42, 29
1, 10011, Note_off_c, 9, 42, 0
1, 10027, Note_off_c, 11, 62, 0
1, 10027, Note_off_c, 11, 66, 0
1, 10030, Note_off_c, 4, 52, 0
1, 10032, Note_on_c, 4, 62, 44
1, 10032, Note_on_c, 4, 67, 44
1, 10032, Note_on_c, 4, 71, 44
1, 10032, Note_on_c, 9, 42, 79
1, 10035, Note_off_c, 9, 42, 0
1, 10054, Note_off_c, 1, 28, 0
1, 10078, Note_off_c, 8, 76, 0
1, 10078, Note_off_c, 12, 76, 0
1, 10078, Note_off_c, 4, 62, 0
1, 10078, Note_off_c, 4, 67, 0
1, 10078, Note_off_c, 4, 71, 0
1, 10080, Control_c, 2, 11, 60
1, 10080, Note_on_c, 1, 28, 74
1, 10080, Note_on_c, 2, 64, 125
1, 10080, Note_on_c, 2, 69, 125
1, 10080, Note_on_c, 2, 73, 125
1, 10080, Note_on_c, 3, 62, 80
1, 10080, Note_on_c, 9, 35, 74
1, 10080, Note_on_c, 9, 42, 39
1, 10080, Note_on_c, 11, 66, 87
1, 10083, Note_off_c, 9, 35, 0
1, 10083, Note_off_c, 9, 42, 0
1, 10104, Note_off_c, 11, 66, 0
1, 10109, Note_off_c, 3, 62, 0
1, 10126, Note_off_c, 2, 64, 0
1, 10126, Note_off_c, 2, 69, 0
1, 10126, Note_off_c, 2, 73, 0
1, 10128, Note_on_c, 2, 62, 78
1, 10128, Note_on_c, 2, 71, 78
1, 10128, Note_on_c, 3, 62, 72
1, 10128, Note_on_c, 4, 62, 44
1, 10128, Note_on_c, 4, 67, 44
1, 10128, Note_on_c, 4, 71, 44
1, 10128, Note_on_c, 9, 37, 83
1, 10128, Note_on_c, 9, 42, 79
1, 10128, Note_on_c, 9, 59, 39
1, 10128, Note_on_c, 11, 66, 82
1, 10131, Note_off_c, 9, 37, 0
1, 10131, Note_off_c, 9, 42, 0
1, 10131, Note_off_c, 9, 59, 0
1, 10139, Note_off_c, 3, 62, 0
1, 10141, Note_off_c, 11, 66, 0
1, 10152, Note_on_c, 3, 62, 79
1, 10152, Note_on_c, 11, 66, 85
1, 10174, Note_off_c, 1, 28, 0
1, 10174, Note_off_c, 2, 62, 0
1, 10174, Note_off_c, 2, 71, 0
1, 10174, Note_off_c, 4, 62, 0
1, 10174, Note_off_c, 4, 67, 0
1, 10174, Note_off_c, 4, 71, 0
1, 10176, Note_on_c, 1, 33, 74
1, 10176, Note_on_c, 2, 64, 125
1, 10176, Note_on_c, 2, 69, 125
1, 10176, Note_on_c, 2, 73, 125
1, 10176, Note_on_c, 4, 57, 44
1, 10176, Note_on_c, 9, 42, 39
1, 10179, Note_off_c, 9, 42, 0
1, 10187, Note_off_c, 11, 66, 0
1, 10194, Note_off_c, 3, 62, 0
1, 10198, Note_off_c, 2, 64, 0
1, 10198, Note_off_c, 2, 69, 0
1, 10198, Note_off_c, 2, 73, 0
1, 10200, Note_on_c, 3, 61, 74
1, 10200, Note_on_c, 9, 42, 29
1, 10200, Note_on_c, 11, 64, 75
1, 10203, Note_off_c, 9, 42, 0
1, 10220, Note_off_c, 11, 64, 0
1, 10222, Note_off_c, 4, 57, 0
1, 10222, Note_off_c, 3, 61, 0
1, 10224, Control_c, 8, 11, 72
1, 10224, Control_c, 12, 11, 72
1, 10224, Note_on_c, 2, 62, 78
1, 10224, Note_on_c, 2, 71, 78
1, 10224, Note_on_c, 3, 59, 73
1, 10224, Note_on_c, 4, 64, 44
1, 10224, Note_on_c, 4, 69, 44
1, 10224, Note_on_c, 4, 73, 44
1, 10224, Note_on_c, 9, 42, 79
1, 10224, Note_on_c, 11, 62, 77
1, 10227, Note_off_c, 9, 42, 0
1, 10246, Note_off_c, 1, 33, 0
1, 10246, Note_off_c, 2, 62, 0
1, 10246, Note_off_c, 2, 71, 0
1, 10248, Note_on_c, 2, 64, 125
1, 10248, Note_on_c, 2, 69, 125
1, 10248, Note_on_c, 2, 73, 125
1, 10250, Note_off_c, 11, 62, 0
1, 10255, Note_off_c, 3, 59, 0
1, 10270, Note_off_c, 4, 64, 0
1, 10270, Note_off_c, 4, 69, 0
1, 10270, Note_off_c, 4, 73, 0
1, 10272, Note_on_c, 1, 33, 74
1, 10272, Note_on_c, 4, 57, 44
1, 10272, Pitch_bend_c, 8, 385
1, 10272, Note_on_c, 8, 78, 126
1, 10272, Note_on_c, 9, 35, 74
1, 10272, Note_on_c, 9, 42, 39
1, 10272, Pitch_bend_c, 12, 385
1, 10272, Note_on_c, 12, 78, 108
1, 10275, Note_off_c, 9, 35, 0
1, 10275, Note_off_c, 9, 42, 0
1, 10284, Pitch_bend_c, 8, 8193
1, 10284, Pitch_bend_c, 12, 8193
1, 10318, Note_off_c, 2, 64, 0
1, 10318, Note_off_c, 2, 69, 0
1, 10318, Note_off_c, 2, 73, 0
1, 10318, Note_off_c, 4, 57, 0
1, 10320, Note_on_c, 2, 62, 78
1, 10320, Note_on_c, 2, 71, 78
1, 10320, Note_on_c, 4, 64, 44
1, 10320, Note_on_c, 4, 69, 44
1, 10320, Note_on_c, 4, 73, 44
1, 10320, Note_on_c, 9, 37, 83
1, 10320, Note_on_c, 9, 42, 79
1, 10323, Note_off_c, 9, 37, 0
1, 10323, Note_off_c, 9, 42, 0
1, 10342, Note_off_c, 1, 33, 0
1, 10342, Note_off_c, 8, 78, 0
1, 10342, Note_off_c, 12, 78, 0
1, 10342, Note_off_c, 2, 62, 0
1, 10342, Note_off_c, 2, 71, 0
1, 10344, Note_on_c, 8, 76, 109
1, 10344, Note_on_c, 12, 76, 104
1, 10366, Note_off_c, 4, 64, 0
1, 10366, Note_off_c, 4, 69, 0
1, 10366, Note_off_c, 4, 73, 0
1, 10368, Note_on_c, 1, 35, 74
1, 10368, Note_on_c, 2, 64, 98
1, 10368, Note_on_c, 2, 69, 98
1, 10368, Note_on_c, 2, 73, 98
1, 10368, Note_on_c, 3, 61, 80
1, 10368, Note_on_c, 4, 59, 44
1, 10368, Note_on_c, 9, 42, 39
1, 10368, Note_on_c, 11, 64, 78
1, 10371, Note_off_c, 9, 42, 0
1, 10379, Note_off_c, 2, 64, 0
1, 10379, Note_off_c, 2, 69, 0
1, 10379, Note_off_c, 2, 73, 0
1, 10391, Note_off_c, 11, 64, 0
1, 10392, Note_on_c, 2, 62, 78
1, 10392, Note_on_c, 2, 71, 78
1, 10392, Note_on_c, 9, 37, 83
1, 10392, Note_on_c, 9, 42, 29
1, 10394, Note_off_c, 3, 61, 0
1, 10395, Note_off_c, 9, 37, 0
1, 10395, Note_off_c, 9, 42, 0
1, 10414, Note_off_c, 4, 59, 0
1, 10414, Note_off_c, 2, 62, 0
1, 10414, Note_off_c, 2, 71, 0
1, 10416, Note_on_c, 2, 64, 125
1, 10416, Note_on_c, 2, 69, 125
1, 10416, Note_on_c, 2, 73, 125
1, 10416, Note_on_c, 3, 61, 71
1, 10416, Note_on_c, 4, 66, 44
1, 10416, Note_on_c, 4, 71, 44
1, 10416, Note_on_c, 4, 74, 44
1, 10416, Note_on_c, 9, 42, 79
1, 10416, Note_on_c, 11, 64, 74
1, 10419, Note_off_c, 9, 42, 0
1, 10437, Note_off_c, 11, 64, 0
1, 10438, Note_off_c, 1, 35, 0
1, 10438, Note_off_c, 3, 61, 0
1, 10440, Note_on_c, 3, 64, 69
1, 10440, Note_on_c, 11, 67, 78
1, 10448, Control_c, 8, 11, 65
1, 10448, Control_c, 12, 11, 65
1, 10461, Note_off_c, 11, 67, 0
1, 10462, Note_off_c, 4, 66, 0
1, 10462, Note_off_c, 4, 71, 0
1, 10462, Note_off_c, 4, 74, 0
1, 10464, Control_c, 8, 11, 60
1, 10464, Control_c, 12, 11, 60
1, 10464, Note_on_c, 1, 35, 74
1, 10464, Note_on_c, 9, 35, 74
1, 10464, Note_on_c, 9, 42, 39
1, 10467, Note_off_c, 3, 64, 0
1, 10467, Note_off_c, 9, 35, 0
1, 10467, Note_off_c, 9, 42, 0
1, 10480, Control_c, 8, 11, 53
1, 10480, Control_c, 12, 11, 53
1, 10488, Note_on_c, 3, 64, 72
1, 10488, Note_on_c, 9, 42, 29
1, 10488, Note_on_c, 11, 67, 82
1, 10491, Note_off_c, 9, 42, 0
1, 10496, Control_c, 8, 11, 36
1, 10496, Control_c, 12, 11, 36
1, 10506, Note_off_c, 11, 67, 0
1, 10510, Note_off_c, 2, 64, 0
1, 10510, Note_off_c, 2, 69, 0
1, 10510, Note_off_c, 2, 73, 0
1, 10512, Control_c, 8, 11, 28
1, 10512, Control_c, 12, 11, 28
1, 10512, Note_on_c, 2, 62, 78
1, 10512, Note_on_c, 2, 71, 78
1, 10512, Note_on_c, 4, 66, 44
1, 10512, Note_on_c, 4, 71, 44
1, 10512, Note_on_c, 4, 74, 44
1, 10512, Note_on_c, 9, 42, 79
1, 10512, Note_on_c, 9, 59, 39
1, 10513, Note_off_c, 3, 64, 0
1, 10515, Note_off_c, 9, 42, 0
1, 10515, Note_off_c, 9, 59, 0
1, 10528, Control_c, 8, 11, 23
1, 10528, Control_c, 12, 11, 23
1, 10534, Note_off_c, 1, 35, 0
1, 10534, Note_off_c, 2, 62, 0
1, 10534, Note_off_c, 2, 71, 0
1, 10536, Note_on_c, 3, 62, 76
1, 10536, Note_on_c, 11, 66, 81
1, 10558, Note_off_c, 8, 76, 0
1, 10558, Note_off_c, 12, 76, 0
1, 10558, Note_off_c, 4, 66, 0
1, 10558, Note_off_c, 4, 71, 0
1, 10558, Note_off_c, 4, 74, 0
1, 10560, Note_on_c, 1, 35, 74
1, 10560, Note_on_c, 2, 64, 125
1, 10560, Note_on_c, 2, 69, 125
1, 10560, Note_on_c, 2, 73, 125
1, 10560, Note_on_c, 4, 59, 44
1, 10560, Note_on_c, 9, 37, 83
1, 10560, Note_on_c, 9, 42, 39
1, 10563, Note_off_c, 9, 37, 0
1, 10563, Note_off_c, 9, 42, 0
1, 10571, Note_off_c, 2, 64, 0
1, 10571, Note_off_c, 2, 69, 0
1, 10571, Note_off_c, 2, 73, 0
1, 10577, Note_off_c, 3, 62, 0
1, 10577, Note_off_c, 11, 66, 0
1, 10584, Note_on_c, 3, 61, 70
1, 10584, Note_on_c, 9, 42, 29
1, 10584, Note_on_c, 11, 64, 77
1, 10587, Note_off_c, 9, 42, 0
1, 10604, Note_off_c, 11, 64, 0
1, 10606, Note_off_c, 4, 59, 0
1, 10606, Note_off_c, 3, 61, 0
1, 10608, Note_on_c, 2, 62, 78
1, 10608, Note_on_c, 2, 71, 78
1, 10608, Note_on_c, 3, 59, 69
1, 10608, Note_on_c, 4, 66, 44
1, 10608, Note_on_c, 4, 71, 44
1, 10608, Note_on_c, 4, 74, 44
1, 10608, Note_on_c, 9, 42, 79
1, 10608, Note_on_c, 11, 62, 69
1, 10611, Note_off_c, 9, 42, 0
1, 10628, Note_off_c, 11, 62, 0
1, 10630, Note_off_c, 1, 35, 0
1, 10630, Note_off_c, 2, 62, 0
1, 10630, Note_off_c, 2, 71, 0
1, 10632, Note_on_c, 1, 30, 74
1, 10632, Note_on_c, 2, 64, 125
1, 10632, Note_on_c, 2, 69, 125
1, 10632, Note_on_c, 2, 73, 125
1, 10632, Note_on_c, 9, 37, 83
1, 10635, Note_off_c, 9, 37, 0
1, 10640, Note_off_c, 3, 59, 0
1, 10654, Note_off_c, 4, 66, 0
1, 10654, Note_off_c, 4, 71, 0
1, 10654, Note_off_c, 4, 74, 0
1, 10654, Note_off_c, 1, 30, 0
1, 10656, Note_on_c, 1, 33, 74
1, 10656, Note_on_c, 3, 59, 80
1, 10656, Note_on_c, 4, 57, 44
1, 10656, Note_on_c, 9, 35, 74
1, 10656, Note_on_c, 9, 42, 39
1, 10656, Note_on_c, 11, 62, 79
1, 10659, Note_off_c, 9, 35, 0
1, 10659, Note_off_c, 9, 42, 0
1, 10687, Note_off_c, 11, 62, 0
1, 10699, Note_off_c, 3, 59, 0
1, 10702, Note_off_c, 2, 64, 0
1, 10702, Note_off_c, 2, 69, 0
1, 10702, Note_off_c, 2, 73, 0
1, 10702, Note_off_c, 1, 33, 0
1, 10702, Note_off_c, 4, 57, 0
1, 10704, Note_on_c, 1, 35, 67
1, 10704, Note_on_c, 2, 62, 78
1, 10704, Note_on_c, 2, 71, 78
1, 10704, Note_on_c, 3, 61, 74
1, 10704, Note_on_c, 4, 64, 44
1, 10704, Note_on_c, 4, 69, 44
1, 10704, Note_on_c, 4, 73, 44
1, 10704, Note_on_c, 9, 37, 83
1, 10704, Note_on_c, 9, 46, 59
1, 10704, Note_on_c, 11, 64, 79
1, 10707, Note_off_c, 9, 37, 0
1, 10707, Note_off_c, 9, 46, 0
1, 10724, Note_off_c, 3, 61, 0
1, 10726, Note_off_c, 2, 62, 0
1, 10726, Note_off_c, 2, 71, 0
1, 10730, Note_off_c, 11, 64, 0
1, 10750, Note_off_c, 1, 35, 0
1, 10750, Note_off_c, 4, 64, 0
1, 10750, Note_off_c, 4, 69, 0
1, 10750, Note_off_c, 4, 73, 0
1, 10752, Control_c, 8, 11, 72
1, 10752, Control_c, 12, 11, 72
1, 10752, Note_on_c, 1, 28, 74
1, 10752, Note_on_c, 3, 62, 80
1, 10752, Note_on_c, 4, 52, 44
1, 10752, Note_on_c, 8, 66, 126
1, 10752, Note_on_c, 9, 42, 39
1, 10752, Note_on_c, 11, 66, 84
1, 10752, Note_on_c, 12, 66, 108
1, 10755, Note_off_c, 9, 42, 0
1, 10774, Note_off_c, 8, 66, 0
1, 10774, Note_off_c, 12, 66, 0
1, 10776, Note_on_c, 8, 69, 125
1, 10776, Note_on_c, 12, 69, 108
1, 10798, Note_off_c, 4, 52, 0
1, 10800, Control_c, 8, 11, 67
1, 10800, Control_c, 12, 11, 67
1, 10800, Note_on_c, 4, 62, 44
1, 10800, Note_on_c, 4, 67, 44
1, 10800, Note_on_c, 4, 71, 44
1, 10800, Note_on_c, 9, 42, 79
1, 10803, Note_off_c, 9, 42, 0
1, 10811, Note_off_c, 11, 66, 0
1, 10814, Note_off_c, 3, 62, 0
1, 10816, Control_c, 8, 11, 60
1, 10816, Control_c, 12, 11, 60
1, 10822, Note_off_c, 1, 28, 0
1, 10824, Note_on_c, 3, 62, 79
1, 10824, Note_on_c, 11, 66, 85
1, 10832, Control_c, 8, 11, 51
1, 10832, Control_c, 12, 11, 51
1, 10846, Note_off_c, 4, 62, 0
1, 10846, Note_off_c, 4, 67, 0
1, 10846, Note_off_c, 4, 71, 0
1, 10848, Control_c, 8, 11, 46
1, 10848, Control_c, 12, 11, 46
1, 10848, Note_on_c, 1, 28, 74
1, 10848, Note_on_c, 2, 64, 125
1, 10848, Note_on_c, 2, 69, 125
1, 10848, Note_on_c, 2, 73, 125
1, 10848, Note_on_c, 9, 35, 74
1, 10848, Note_on_c, 9, 42, 39
1, 10851, Note_off_c, 9, 35, 0
1, 10851, Note_off_c, 9, 42, 0
1, 10864, Control_c, 8, 11, 43
1, 10864, Control_c, 12, 11, 43
1, 10870, Note_off_c, 11, 66, 0
1, 10880, Note_off_c, 3, 62, 0
1, 10880, Control_c, 8, 11, 36
1, 10880, Control_c, 12, 11, 36
1, 10894, Note_off_c, 2, 64, 0
1, 10894, Note_off_c, 2, 69, 0
1, 10894, Note_off_c, 2, 73, 0
1, 10896, Control_c, 8, 11, 32
1, 10896, Control_c, 12, 11, 32
1, 10896, Note_on_c, 2, 62, 78
1, 10896, Note_on_c, 2, 71, 78
1, 10896, Note_on_c, 3, 62, 80
1, 10896, Note_on_c, 4, 62, 44
1, 10896, Note_on_c, 4, 67, 44
1, 10896, Note_on_c, 4, 71, 44
1, 10896, Note_on_c, 9, 37, 83
1, 10896, Note_on_c, 9, 42, 79
1, 10896, Note_on_c, 11, 66, 85
1, 10899, Note_off_c, 9, 37, 0
1, 10899, Note_off_c, 9, 42, 0
1, 10912, Control_c, 8, 11, 18
1, 10912, Control_c, 12, 11, 18
1, 10928, Control_c, 8, 11, 17
1, 10928, Control_c, 12, 11, 17
1, 10931, Note_off_c, 3, 62, 0
1, 10932, Note_off_c, 11, 66, 0
1, 10942, Note_off_c, 8, 69, 0
1, 10942, Note_off_c, 12, 69, 0
1, 10942, Note_off_c, 1, 28, 0
1, 10942, Note_off_c, 2, 62, 0
1, 10942, Note_off_c, 2, 71, 0
1, 10942, Note_off_c, 4, 62, 0
1, 10942, Note_off_c, 4, 67, 0
1, 10942, Note_off_c, 4, 71, 0
1, 10944, Note_on_c, 1, 33, 74
1, 10944, Note_on_c, 2, 64, 125
1, 10944, Note_on_c, 2, 69, 125
1, 10944, Note_on_c, 2, 73, 125
1, 10944, Note_on_c, 3, 61, 78
1, 10944, Note_on_c, 4, 57, 44
1, 10944, Note_on_c, 9, 42, 39
1, 10944, Note_on_c, 11, 64, 78
1, 10947, Note_off_c, 9, 42, 0
1, 10966, Note_off_c, 2, 64, 0
1, 10966, Note_off_c, 2, 69, 0
1, 10966, Note_off_c, 2, 73, 0
1, 10968, Note_on_c, 9, 42, 29
1, 10971, Note_off_c, 9, 42, 0
1, 10990, Note_off_c, 4, 57, 0
1, 10992, Control_c, 8, 11, 72
1, 10992, Control_c, 12, 11, 72
1, 10992, Note_on_c, 2, 62, 78
1, 10992, Note_on_c, 2, 71, 78
1, 10992, Note_on_c, 4, 64, 44
1, 10992, Note_on_c, 4, 69, 44
1, 10992, Note_on_c, 4, 73, 44
1, 10992, Note_on_c, 9, 42, 79
1, 10995, Note_off_c, 9, 42, 0
1, 11008, Note_off_c, 3, 61, 0
1, 11014, Note_off_c, 1, 33, 0
1, 11014, Note_off_c, 2, 62, 0
1, 11014, Note_off_c, 2, 71, 0
1, 11016, Note_on_c, 2, 64, 125
1, 11016, Note_on_c, 2, 69, 125
1, 11016, Note_on_c, 2, 73, 125
1, 11016, Note_on_c, 3, 57, 72
1, 11017, Note_off_c, 11, 64, 0
1, 11038, Note_off_c, 4, 64, 0
1, 11038, Note_off_c, 4, 69, 0
1, 11038, Note_off_c, 4, 73, 0
1, 11040, Note_on_c, 1, 33, 74
1, 11040, Note_on_c, 4, 57, 44
1, 11040, Note_on_c, 9, 35, 74
1, 11040, Note_on_c, 9, 42, 39
1, 11040, Note_on_c, 9, 59, 39
1, 11040, Note_on_c, 11, 59, 69
1, 11043, Note_off_c, 9, 35, 0
1, 11043, Note_off_c, 9, 42, 0
1, 11043, Note_off_c, 9, 59, 0
1, 11064, Note_on_c, 9, 42, 29
1, 11067, Note_off_c, 9, 42, 0
1, 11072, Note_on_c, 8, 76, 79
1, 11072, Note_on_c, 12, 76, 96
1, 11078, Note_off_c, 11, 59, 0
1, 11084, Note_off_c, 3, 57, 0
1, 11086, Note_off_c, 2, 64, 0
1, 11086, Note_off_c, 2, 69, 0
1, 11086, Note_off_c, 2, 73, 0
1, 11086, Note_off_c, 4, 57, 0
1, 11088, Note_on_c, 2, 62, 78
1, 11088, Note_on_c, 2, 71, 78
1, 11088, Note_on_c, 3, 59, 80
1, 11088, Note_on_c, 4, 64, 44
1, 11088, Note_on_c, 4, 69, 44
1, 11088, Note_on_c, 4, 73, 44
1, 11088, Note_on_c, 9, 37, 83
1, 11088, Note_on_c, 9, 42, 79
1, 11088, Note_on_c, 11, 62, 81
1, 11091, Note_off_c, 9, 37, 0
1, 11091, Note_off_c, 9, 42, 0
1, 11102, Note_off_c, 8, 76, 0
1, 11102, Note_off_c, 12, 76, 0
1, 11104, Note_on_c, 8, 74, 99
1, 11104, Note_on_c, 12, 74, 101
1, 11110, Note_off_c, 1, 33, 0
1, 11110, Note_off_c, 2, 62, 0
1, 11110, Note_off_c, 2, 71, 0
1, 11134, Note_off_c, 4, 64, 0
1, 11134, Note_off_c, 4, 69, 0
1, 11134, Note_off_c, 4, 73, 0
1, 11134, Note_off_c, 8, 74, 0
1, 11134, Note_off_c, 12, 74, 0
1, 11136, Note_on_c, 1, 35, 74
1, 11136, Note_on_c, 2, 64, 98
1, 11136, Note_on_c, 2, 69, 98
1, 11136, Note_on_c, 2, 73, 98
1, 11136, Note_on_c, 4, 59, 44
1, 11136, Pitch_bend_c, 8, 129
1, 11136, Note_on_c, 8, 66, 125
1, 11136, Note_on_c, 9, 42, 39
1, 11136, Pitch_bend_c, 12, 129
1, 11136, Note_on_c, 12, 66, 108
1, 11139, Note_off_c, 9, 42, 0
1, 11147, Note_off_c, 2, 64, 0
1, 11147, Note_off_c, 2, 69, 0
1, 11147, Note_off_c, 2, 73, 0
1, 11152, Pitch_bend_c, 8, 8193
1, 11152, Pitch_bend_c, 12, 8193
1, 11160, Note_on_c, 2, 62, 78
1, 11160, Note_on_c, 2, 71, 78
1, 11160, Note_on_c, 9, 42, 29
1, 11163, Note_off_c, 9, 42, 0
1, 11182, Note_off_c, 4, 59, 0
1, 11182, Note_off_c, 2, 62, 0
1, 11182, Note_off_c, 2, 71, 0
1, 11184, Note_on_c, 2, 64, 125
1, 11184, Note_on_c, 2, 69, 125
1, 11184, Note_on_c, 2, 73, 125
1, 11184, Note_on_c, 4, 66, 44
1, 11184, Note_on_c, 4, 71, 44
1, 11184, Note_on_c, 4, 74, 44
1, 11184, Note_on_c, 9, 42, 79
1, 11187, Note_off_c, 9, 42, 0
1, 11206, Note_off_c, 1, 35, 0
1, 11216, Pitch_bend_c, 8, 129
1, 11216, Pitch_bend_c, 12, 129
1, 11230, Note_off_c, 4, 66, 0
1, 11230, Note_off_c, 4, 71, 0
1, 11230, Note_off_c, 4, 74, 0
1, 11232, Note_on_c, 1, 35, 74
1, 11232, Pitch_bend_c, 8, 8065
1, 11232, Note_on_c, 9, 35, 74
1, 11232, Note_on_c, 9, 42, 39
1, 11232, Pitch_bend_c, 12, 8065
1, 11235, Note_off_c, 9, 35, 0
1, 11235, Note_off_c, 9, 42, 0
1, 11256, Note_on_c, 9, 42, 29
1, 11259, Note_off_c, 9, 42, 0
1, 11278, Note_off_c, 2, 64, 0
1, 11278, Note_off_c, 2, 69, 0
1, 11278, Note_off_c, 2, 73, 0
1, 11280, Note_on_c, 2, 62, 78
1, 11280, Note_on_c, 2, 71, 78
1, 11280, Note_on_c, 4, 66, 44
1, 11280, Note_on_c, 4, 71, 44
1, 11280, Note_on_c, 4, 74, 44
1, 11280, Note_on_c, 9, 37, 83
1, 11280, Note_on_c, 9, 42, 79
1, 11280, Note_on_c, 9, 59, 39
1, 11283, Note_off_c, 9, 37, 0
1, 11283, Note_off_c, 9, 42, 0
1, 11283, Note_off_c, 9, 59, 0
1, 11302, Note_off_c, 1, 35, 0
1, 11302, Note_off_c, 2, 62, 0
1, 11302, Note_off_c, 2, 71, 0
1, 11304, Note_on_c, 1, 30, 74
1, 11326, Note_off_c, 4, 66, 0
1, 11326, Note_off_c, 4, 71, 0
1, 11326, Note_off_c, 4, 74, 0
1, 11326, Note_off_c, 1, 30, 0
1, 11328, Note_on_c, 1, 35, 74
1, 11328, Note_on_c, 2, 64, 125
1, 11328, Note_on_c, 2, 69, 125
1, 11328, Note_on_c, 2, 73, 125
1, 11328, Note_on_c, 4, 59, 44
1, 11328, Note_on_c, 9, 42, 39
1, 11331, Note_off_c, 9, 42, 0
1, 11332, Note_off_c, 3, 59, 0
1, 11332, Note_off_c, 11, 62, 0
1, 11339, Note_off_c, 2, 64, 0
1, 11339, Note_off_c, 2, 69, 0
1, 11339, Note_off_c, 2, 73, 0
1, 11352, Note_on_c, 9, 42, 29
1, 11355, Note_off_c, 9, 42, 0
1, 11374, Note_off_c, 1, 35, 0
1, 11374, Note_off_c, 4, 59, 0
1, 11376, Note_on_c, 1, 37, 74
1, 11376, Note_on_c, 2, 62, 78
1, 11376, Note_on_c, 2, 71, 78
1, 11376, Note_on_c, 4, 66, 44
1, 11376, Note_on_c, 4, 71, 44
1, 11376, Note_on_c, 4, 74, 44
1, 11376, Note_on_c, 9, 37, 83
1, 11376, Note_on_c, 9, 42, 79
1, 11379, Note_off_c, 9, 37, 0
1, 11379, Note_off_c, 9, 42, 0
1, 11398, Note_off_c, 2, 62, 0
1, 11398, Note_off_c, 2, 71, 0
1, 11400, Note_on_c, 2, 64, 125
1, 11400, Note_on_c, 2, 69, 125
1, 11400, Note_on_c, 2, 73, 125
1, 11422, Note_off_c, 8, 66, 0
1, 11422, Note_off_c, 12, 66, 0
1, 11422, Note_off_c, 1, 37, 0
1, 11422, Note_off_c, 4, 66, 0
1, 11422, Note_off_c, 4, 71, 0
1, 11422, Note_off_c, 4, 74, 0
1, 11424, Note_on_c, 1, 38, 74
1, 11424, Note_on_c, 4, 57, 44
1, 11424, Note_on_c, 9, 35, 74
1, 11424, Note_on_c, 9, 42, 39
1, 11424, Note_on_c, 9, 54, 39
1, 11424, Note_on_c, 11, 66, 90
1, 11424, Note_on_c, 11, 69, 90
1, 11427, Note_off_c, 9, 35, 0
1, 11427, Note_off_c, 9, 42, 0
1, 11427, Note_off_c, 9, 54, 0
1, 11448, Note_on_c, 9, 37, 83
1, 11448, Note_on_c, 9, 42, 29
1, 11451, Note_off_c, 9, 37, 0
1, 11451, Note_off_c, 9, 42, 0
1, 11470, Note_off_c, 2, 64, 0
1, 11470, Note_off_c, 2, 69, 0
1, 11470, Note_off_c, 2, 73, 0
1, 11470, Note_off_c, 1, 38, 0
1, 11470, Note_off_c, 4, 57, 0
1, 11472, Note_on_c, 1, 33, 67
1, 11472, Note_on_c, 2, 62, 78
1, 11472, Note_on_c, 2, 71, 78
1, 11472, Note_on_c, 4, 64, 44
1, 11472, Note_on_c, 4, 69, 44
1, 11472, Note_on_c, 4, 73, 44
1, 11472, Note_on_c, 9, 42, 79
1, 11475, Note_off_c, 9, 42, 0
1, 11494, Note_off_c, 2, 62, 0
1, 11494, Note_off_c, 2, 71, 0
1, 11511, Note_off_c, 11, 66, 0
1, 11511, Note_off_c, 11, 69, 0
1, 11518, Note_off_c, 1, 33, 0
1, 11518, Note_off_c, 4, 64, 0
1, 11518, Note_off_c, 4, 69, 0
1, 11518, Note_off_c, 4, 73, 0
1, 11520, Note_on_c, 1, 28, 74
1, 11520, Note_on_c, 4, 52, 44
1, 11520, Note_on_c, 9, 42, 39
1, 11520, Note_on_c, 9, 55, 62
1, 11520, Note_on_c, 11, 62, 85
1, 11520, Note_on_c, 11, 66, 85
1, 11523, Note_off_c, 9, 42, 0
1, 11523, Note_off_c, 9, 55, 0
1, 11558, Note_off_c, 11, 62, 0
1, 11558, Note_off_c, 11, 66, 0
1, 11566, Note_off_c, 4, 52, 0
1, 11568, Note_on_c, 4, 62, 44
1, 11568, Note_on_c, 4, 67, 44
1, 11568, Note_on_c, 4, 71, 44
1, 11568, Note_on_c, 9, 42, 79
1, 11571, Note_off_c, 9, 42, 0
1, 11590, Note_off_c, 1, 28, 0
1, 11614, Note_off_c, 4, 62, 0
1, 11614, Note_off_c, 4, 67, 0
1, 11614, Note_off_c, 4, 71, 0
1, 11616, Note_on_c, 1, 28, 74
1, 11616, Note_on_c, 2, 64, 125
1, 11616, Note_on_c, 2, 69, 125
1, 11616, Note_on_c, 2, 73, 125
1, 11616, Note_on_c, 3, 62, 78
1, 11616, Note_on_c, 9, 35, 74
1, 11616, Note_on_c, 9, 42, 39
1, 11616, Note_on_c, 11, 66, 87
1, 11619, Note_off_c, 9, 35, 0
1, 11619, Note_off_c, 9, 42, 0
1, 11640, Note_off_c, 3, 62, 0
1, 11640, Note_on_c, 9, 42, 29
1, 11643, Note_off_c, 9, 42, 0
1, 11644, Note_off_c, 11, 66, 0
1, 11662, Note_off_c, 2, 64, 0
1, 11662, Note_off_c, 2, 69, 0
1, 11662, Note_off_c, 2, 73, 0
1, 11664, Note_on_c, 2, 62, 78
1, 11664, Note_on_c, 2, 71, 78
1, 11664, Note_on_c, 3, 62, 74
1, 11664, Note_on_c, 4, 62, 44
1, 11664, Note_on_c, 4, 67, 44
1, 11664, Note_on_c, 4, 71, 44
1, 11664, Note_on_c, 9, 37, 83
1, 11664, Note_on_c, 9, 42, 79
1, 11664, Note_on_c, 9, 59, 39
1, 11664, Note_on_c, 11, 66, 82
1, 11667, Note_off_c, 9, 37, 0
1, 11667, Note_off_c, 9, 42, 0
1, 11667, Note_off_c, 9, 59, 0
1, 11674, Note_off_c, 3, 62, 0
1, 11675, Note_off_c, 11, 66, 0
1, 11688, Note_on_c, 3, 62, 80
1, 11688, Note_on_c, 11, 66, 85
1, 11710, Note_off_c, 1, 28, 0
1, 11710, Note_off_c, 2, 62, 0
1, 11710, Note_off_c, 2, 71, 0
1, 11710, Note_off_c, 4, 62, 0
1, 11710, Note_off_c, 4, 67, 0
1, 11710, Note_off_c, 4, 71, 0
1, 11712, Note_on_c, 1, 33, 74
1, 11712, Note_on_c, 2, 64, 125
1, 11712, Note_on_c, 2, 69, 125
1, 11712, Note_on_c, 2, 73, 125
1, 11712, Note_on_c, 4, 57, 44
1, 11712, Note_on_c, 9, 42, 39
1, 11715, Note_off_c, 9, 42, 0
1, 11728, Note_off_c, 11, 66, 0
1, 11732, Note_off_c, 3, 62, 0
1, 11734, Note_off_c, 2, 64, 0
1, 11734, Note_off_c, 2, 69, 0
1, 11734, Note_off_c, 2, 73, 0
1, 11736, Note_on_c, 3, 61, 76
1, 11736, Note_on_c, 9, 42, 29
1, 11736, Note_on_c, 11, 64, 82
1, 11739, Note_off_c, 9, 42, 0
1, 11756, Note_off_c, 11, 64, 0
1, 11758, Note_off_c, 4, 57, 0
1, 11758, Note_off_c, 3, 61, 0
1, 11760, Note_on_c, 2, 62, 78
1, 11760, Note_on_c, 2, 71, 78
1, 11760, Note_on_c, 3, 59, 73
1, 11760, Note_on_c, 4, 64, 44
1, 11760, Note_on_c, 4, 69, 44
1, 11760, Note_on_c, 4, 73, 44
1, 11760, Note_on_c, 9, 42, 79
1, 11760, Note_on_c, 11, 62, 79
1, 11763, Note_off_c, 9, 42, 0
1, 11782, Note_off_c, 1, 33, 0
1, 11782, Note_off_c, 2, 62, 0
1, 11782, Note_off_c, 2, 71, 0
1, 11783, Note_off_c, 11, 62, 0
1, 11784, Note_on_c, 2, 64, 125
1, 11784, Note_on_c, 2, 69, 125
1, 11784, Note_on_c, 2, 73, 125
1, 11790, Note_off_c, 3, 59, 0
1, 11806, Note_off_c, 4, 64, 0
1, 11806, Note_off_c, 4, 69, 0
1, 11806, Note_off_c, 4, 73, 0
1, 11808, Note_on_c, 1, 33, 74
1, 11808, Note_on_c, 4, 57, 44
1, 11808, Pitch_bend_c, 8, 3841
1, 11808, Note_on_c, 8, 69, 109
1, 11808, Note_on_c, 9, 35, 74
1, 11808, Note_on_c, 9, 42, 39
1, 11808, Pitch_bend_c, 12, 3841
1, 11808, Note_on_c, 12, 69, 104
1, 11811, Note_off_c, 9, 35, 0
1, 11811, Note_off_c, 9, 42, 0
1, 11820, Pitch_bend_c, 8, 6273
1, 11820, Pitch_bend_c, 12, 6273
1, 11832, Pitch_bend_c, 8, 8193
1, 11832, Pitch_bend_c, 12, 8193
1, 11854, Note_off_c, 2, 64, 0
1, 11854, Note_off_c, 2, 69, 0
1, 11854, Note_off_c, 2, 73, 0
1, 11854, Note_off_c, 4, 57, 0
1, 11856, Note_on_c, 2, 62, 78
1, 11856, Note_on_c, 2, 71, 78
1, 11856, Note_on_c, 4, 64, 44
1, 11856, Note_on_c, 4, 69, 44
1, 11856, Note_on_c, 4, 73, 44
1, 11856, Note_on_c, 9, 37, 83
1, 11856, Note_on_c, 9, 42, 79
1, 11859, Note_off_c, 9, 37, 0
1, 11859, Note_off_c, 9, 42, 0
1, 11878, Note_off_c, 1, 33, 0
1, 11878, Note_off_c, 2, 62, 0
1, 11878, Note_off_c, 2, 71, 0
1, 11902, Note_off_c, 4, 64, 0
1, 11902, Note_off_c, 4, 69, 0
1, 11902, Note_off_c, 4, 73, 0
1, 11904, Note_on_c, 1, 35, 74
1, 11904, Note_on_c, 2, 64, 98
1, 11904, Note_on_c, 2, 69, 98
1, 11904, Note_on_c, 2, 73, 98
1, 11904, Note_on_c, 3, 61, 81
1, 11904, Note_on_c, 4, 59, 44
1, 11904, Note_on_c, 9, 42, 39
1, 11904, Note_on_c, 11, 64, 81
1, 11907, Note_off_c, 9, 42, 0
1, 11915, Note_off_c, 2, 64, 0
1, 11915, Note_off_c, 2, 69, 0
1, 11915, Note_off_c, 2, 73, 0
1, 11924, Note_off_c, 3, 61, 0
1, 11927, Note_off_c, 11, 64, 0
1, 11928, Note_on_c, 2, 62, 78
1, 11928, Note_on_c, 2, 71, 78
1, 11928, Note_on_c, 9, 42, 29
1, 11931, Note_off_c, 9, 42, 0
1, 11950, Note_off_c, 4, 59, 0
1, 11950, Note_off_c, 2, 62, 0
1, 11950, Note_off_c, 2, 71, 0
1, 11952, Note_on_c, 2, 64, 125
1, 11952, Note_on_c, 2, 69, 125
1, 11952, Note_on_c, 2, 73, 125
1, 11952, Note_on_c, 3, 61, 77
1, 11952, Note_on_c, 4, 66, 44
1, 11952, Note_on_c, 4, 71, 44
1, 11952, Note_on_c, 4, 74, 44
1, 11952, Note_on_c, 9, 42, 79
1, 11952, Note_on_c, 11, 64, 70
1, 11955, Note_off_c, 9, 42, 0
1, 11974, Note_off_c, 1, 35, 0
1, 11974, Note_off_c, 3, 61, 0
1, 11974, Note_off_c, 11, 64, 0
1, 11976, Note_on_c, 3, 64, 78
1, 11976, Note_on_c, 11, 67, 83
1, 11998, Note_off_c, 8, 69, 0
1, 11998, Note_off_c, 12, 69, 0
1, 11998, Note_off_c, 4, 66, 0
1, 11998, Note_off_c, 4, 71, 0
1, 11998, Note_off_c, 4, 74, 0
1, 11999, Note_off_c, 11, 67, 0
1, 12000, Note_on_c, 1, 35, 74
1, 12000, Note_on_c, 8, 66, 79
1, 12000, Note_on_c, 9, 35, 74
1, 12000, Note_on_c, 9, 42, 39
1, 12000, Note_on_c, 9, 59, 39
1, 12000, Note_on_c, 12, 66, 96
1, 12003, Note_off_c, 3, 64, 0
1, 12003, Note_off_c, 9, 35, 0
1, 12003, Note_off_c, 9, 42, 0
1, 12003, Note_off_c, 9, 59, 0
1, 12024, Note_on_c, 3, 64, 76
1, 12024, Note_on_c, 9, 42, 29
1, 12024, Note_on_c, 11, 67, 81
1, 12027, Note_off_c, 9, 42, 0
1, 12046, Note_off_c, 2, 64, 0
1, 12046, Note_off_c, 2, 69, 0
1, 12046, Note_off_c, 2, 73, 0
1, 12046, Note_off_c, 11, 67, 0
1, 12048, Note_on_c, 2, 62, 78
1, 12048, Note_on_c, 2, 71, 78
1, 12048, Note_on_c, 4, 66, 44
1, 12048, Note_on_c, 4, 71, 44
1, 12048, Note_on_c, 4, 74, 44
1, 12048, Note_on_c, 9, 42, 79
1, 12049, Note_off_c, 3, 64, 0
1, 12051, Note_off_c, 9, 42, 0
1, 12070, Note_off_c, 1, 35, 0
1, 12070, Note_off_c, 2, 62, 0
1, 12070, Note_off_c, 2, 71, 0
1, 12072, Note_on_c, 3, 62, 80
1, 12072, Note_on_c, 11, 66, 85
1, 12094, Note_off_c, 4, 66, 0
1, 12094, Note_off_c, 4, 71, 0
1, 12094, Note_off_c, 4, 74, 0
1, 12096, Note_on_c, 1, 35, 74
1, 12096, Note_on_c, 2, 64, 125
1, 12096, Note_on_c, 2, 69, 125
1, 12096, Note_on_c, 2, 73, 125
1, 12096, Note_on_c, 4, 59, 44
1, 12096, Note_on_c, 9, 37, 83
1, 12096, Note_on_c, 9, 42, 39
1, 12099, Note_off_c, 9, 37, 0
1, 12099, Note_off_c, 9, 42, 0
1, 12107, Note_off_c, 2, 64, 0
1, 12107, Note_off_c, 2, 69, 0
1, 12107, Note_off_c, 2, 73, 0
1, 12111, Note_off_c, 3, 62, 0
1, 12113, Note_off_c, 11, 66, 0
1, 12120, Note_on_c, 3, 61, 73
1, 12120, Note_on_c, 9, 42, 29
1, 12120, Note_on_c, 11, 64, 73
1, 12123, Note_off_c, 9, 42, 0
1, 12138, Note_off_c, 11, 64, 0
1, 12141, Note_off_c, 3, 61, 0
1, 12142, Note_off_c, 1, 35, 0
1, 12142, Note_off_c, 4, 59, 0
1, 12144, Note_on_c, 1, 37, 74
1, 12144, Note_on_c, 2, 62, 78
1, 12144, Note_on_c, 2, 71, 78
1, 12144, Note_on_c, 3, 59, 77
1, 12144, Note_on_c, 4, 66, 44
1, 12144, Note_on_c, 4, 71, 44
1, 12144, Note_on_c, 4, 74, 44
1, 12144, Note_on_c, 9, 42, 79
1, 12144, Note_on_c, 11, 62, 82
1, 12147, Note_off_c, 9, 42, 0
1, 12166, Note_off_c, 2, 62, 0
1, 12166, Note_off_c, 2, 71, 0
1, 12168, Note_off_c, 11, 62, 0
1, 12168, Note_on_c, 2, 64, 125
1, 12168, Note_on_c, 2, 69, 125
1, 12168, Note_on_c, 2, 73, 125
1, 12168, Note_on_c, 9, 37, 83
1, 12169, Note_off_c, 3, 59, 0
1, 12171, Note_off_c, 9, 37, 0
1, 12190, Note_off_c, 8, 66, 0
1, 12190, Note_off_c, 12, 66, 0
1, 12190, Note_off_c, 1, 37, 0
1, 12190, Note_off_c, 4, 66, 0
1, 12190, Note_off_c, 4, 71, 0
1, 12190, Note_off_c, 4, 74, 0
1, 12192, Note_on_c, 1, 38, 74
1, 12192, Note_on_c, 3, 59, 77
1, 12192, Note_on_c, 4, 57, 44
1, 12192, Note_on_c, 8, 69, 99
1, 12192, Note_on_c, 9, 35, 74
1, 12192, Note_on_c, 9, 42, 39
1, 12192, Note_on_c, 11, 62, 74
1, 12192, Note_on_c, 12, 69, 101
1, 12195, Note_off_c, 9, 35, 0
1, 12195, Note_off_c, 9, 42, 0
1, 12216, Note_on_c, 9, 42, 29
1, 12219, Note_off_c, 3, 59, 0
1, 12219, Note_off_c, 9, 42, 0
1, 12221, Note_off_c, 11, 62, 0
1, 12238, Note_off_c, 2, 64, 0
1, 12238, Note_off_c, 2, 69, 0
1, 12238, Note_off_c, 2, 73, 0
1, 12238, Note_off_c, 1, 38, 0
1, 12238, Note_off_c, 4, 57, 0
1, 12240, Note_on_c, 1, 33, 67
1, 12240, Note_on_c, 2, 62, 78
1, 12240, Note_on_c, 2, 71, 78
1, 12240, Note_on_c, 3, 61, 75
1, 12240, Note_on_c, 4, 64, 44
1, 12240, Note_on_c, 4, 69, 44
1, 12240, Note_on_c, 4, 73, 44
1, 12240, Note_on_c, 9, 37, 83
1, 12240, Note_on_c, 9, 46, 59
1, 12240, Note_on_c, 11, 64, 78
1, 12243, Note_off_c, 9, 37, 0
1, 12243, Note_off_c, 9, 46, 0
1, 12262, Note_off_c, 2, 62, 0
1, 12262, Note_off_c, 2, 71, 0
1, 12263, Note_off_c, 11, 64, 0
1, 12269, Note_off_c, 3, 61, 0
1, 12286, Note_off_c, 8, 69, 0
1, 12286, Note_off_c, 12, 69, 0
1, 12286, Note_off_c, 1, 33, 0
1, 12286, Note_off_c, 4, 64, 0
1, 12286, Note_off_c, 4, 69, 0
1, 12286, Note_off_c, 4, 73, 0
1, 12288, Note_on_c, 1, 28, 74
1, 12288, Note_on_c, 3, 62, 80
1, 12288, Note_on_c, 4, 52, 44
1, 12288, Note_on_c, 8, 66, 109
1, 12288, Note_on_c, 9, 42, 39
1, 12288, Note_on_c, 11, 66, 85
1, 12288, Note_on_c, 12, 66, 104
1, 12291, Note_off_c, 9, 42, 0
1, 12334, Note_off_c, 4, 52, 0
1, 12336, Note_on_c, 4, 62, 44
1, 12336, Note_on_c, 4, 67, 44
1, 12336, Note_on_c, 4, 71, 44
1, 12336, Note_on_c, 9, 42, 79
1, 12339, Note_off_c, 11, 66, 0
1, 12339, Note_off_c, 9, 42, 0
1, 12347, Note_off_c, 3, 62, 0
1, 12358, Note_off_c, 1, 28, 0
1, 12360, Note_on_c, 3, 62, 81
1, 12360, Note_on_c, 11, 66, 81
1, 12382, Note_off_c, 4, 62, 0
1, 12382, Note_off_c, 4, 67, 0
1, 12382, Note_off_c, 4, 71, 0
1, 12384, Note_on_c, 1, 28, 74
1, 12384, Note_on_c, 2, 64, 125
1, 12384, Note_on_c, 2, 69, 125
1, 12384, Note_on_c, 2, 73, 125
1, 12384, Note_on_c, 9, 35, 74
1, 12384, Note_on_c, 9, 42, 39
1, 12387, Note_off_c, 9, 35, 0
1, 12387, Note_off_c, 9, 42, 0
1, 12411, Note_off_c, 3, 62, 0
1, 12412, Note_off_c, 11, 66, 0
1, 12430, Note_off_c, 2, 64, 0
1, 12430, Note_off_c, 2, 69, 0
1, 12430, Note_off_c, 2, 73, 0
1, 12432, Note_on_c, 2, 62, 78
1, 12432, Note_on_c, 2, 71, 78
1, 12432, Note_on_c, 3, 62, 77
1, 12432, Note_on_c, 4, 62, 44
1, 12432, Note_on_c, 4, 67, 44
1, 12432, Note_on_c, 4, 71, 44
1, 12432, Note_on_c, 9, 37, 83
1, 12432, Note_on_c, 9, 42, 79
1, 12432, Note_on_c, 11, 66, 85
1, 12435, Note_off_c, 9, 37, 0
1, 12435, Note_off_c, 9, 42, 0
1, 12469, Note_off_c, 3, 62, 0
1, 12475, Note_off_c, 11, 66, 0
1, 12478, Note_off_c, 8, 66, 0
1, 12478, Note_off_c, 12, 66, 0
1, 12478, Note_off_c, 1, 28, 0
1, 12478, Note_off_c, 2, 62, 0
1, 12478, Note_off_c, 2, 71, 0
1, 12478, Note_off_c, 4, 62, 0
1, 12478, Note_off_c, 4, 67, 0
1, 12478, Note_off_c, 4, 71, 0
1, 12480, Note_on_c, 1, 33, 74
1, 12480, Note_on_c, 2, 64, 125
1, 12480, Note_on_c, 2, 69, 125
1, 12480, Note_on_c, 2, 73, 125
1, 12480, Note_on_c, 3, 61, 78
1, 12480, Note_on_c, 4, 57, 44
1, 12480, Note_on_c, 8, 62, 99
1, 12480, Note_on_c, 9, 42, 39
1, 12480, Note_on_c, 11, 64, 81
1, 12480, Note_on_c, 12, 62, 101
1, 12483, Note_off_c, 9, 42, 0
1, 12502, Note_off_c, 2, 64, 0
1, 12502, Note_off_c, 2, 69, 0
1, 12502, Note_off_c, 2, 73, 0
1, 12504, Note_on_c, 9, 42, 29
1, 12507, Note_off_c, 9, 42, 0
1, 12526, Note_off_c, 4, 57, 0
1, 12528, Note_on_c, 2, 62, 78
1, 12528, Note_on_c, 2, 71, 78
1, 12528, Note_on_c, 4, 64, 44
1, 12528, Note_on_c, 4, 69, 44
1, 12528, Note_on_c, 4, 73, 44
1, 12528, Note_on_c, 9, 42, 79
1, 12531, Note_off_c, 9, 42, 0
1, 12546, Note_off_c, 3, 61, 0
1, 12550, Note_off_c, 1, 33, 0
1, 12550, Note_off_c, 8, 62, 0
1, 12550, Note_off_c, 12, 62, 0
1, 12550, Note_off_c, 2, 62, 0
1, 12550, Note_off_c, 2, 71, 0
1, 12552, Note_on_c, 2, 64, 125
1, 12552, Note_on_c, 2, 69, 125
1, 12552, Note_on_c, 2, 73, 125
1, 12552, Note_on_c, 3, 57, 73
1, 12552, Note_on_c, 8, 64, 109
1, 12552, Note_on_c, 12, 64, 104
1, 12553, Note_off_c, 11, 64, 0
1, 12574, Note_off_c, 4, 64, 0
1, 12574, Note_off_c, 4, 69, 0
1, 12574, Note_off_c, 4, 73, 0
1, 12576, Note_on_c, 1, 33, 74
1, 12576, Note_on_c, 4, 57, 44
1, 12576, Note_on_c, 9, 35, 74
1, 12576, Note_on_c, 9, 42, 39
1, 12576, Note_on_c, 11, 61, 82
1, 12579, Note_off_c, 9, 35, 0
1, 12579, Note_off_c, 9, 42, 0
1, 12600, Note_on_c, 9, 42, 29
1, 12603, Note_off_c, 9, 42, 0
1, 12616, Note_off_c, 3, 57, 0
1, 12622, Note_off_c, 2, 64, 0
1, 12622, Note_off_c, 2, 69, 0
1, 12622, Note_off_c, 2, 73, 0
1, 12622, Note_off_c, 4, 57, 0
1, 12623, Note_off_c, 11, 61, 0
1, 12624, Note_on_c, 2, 62, 78
1, 12624, Note_on_c, 2, 71, 78
1, 12624, Note_on_c, 3, 59, 81
1, 12624, Note_on_c, 4, 64, 44
1, 12624, Note_on_c, 4, 69, 44
1, 12624, Note_on_c, 4, 73, 44
1, 12624, Note_on_c, 9, 37, 83
1, 12624, Note_on_c, 9, 42, 79
1, 12624, Note_on_c, 11, 62, 83
1, 12627, Note_off_c, 9, 37, 0
1, 12627, Note_off_c, 9, 42, 0
1, 12646, Note_off_c, 1, 33, 0
1, 12646, Note_off_c, 2, 62, 0
1, 12646, Note_off_c, 2, 71, 0
1, 12670, Note_off_c, 4, 64, 0
1, 12670, Note_off_c, 4, 69, 0
1, 12670, Note_off_c, 4, 73, 0
1, 12672, Note_on_c, 1, 35, 74
1, 12672, Note_on_c, 2, 64, 98
1, 12672, Note_on_c, 2, 69, 98
1, 12672, Note_on_c, 2, 73, 98
1, 12672, Note_on_c, 4, 59, 44
1, 12672, Note_on_c, 9, 42, 39
1, 12675, Note_off_c, 9, 42, 0
1, 12683, Note_off_c, 2, 64, 0
1, 12683, Note_off_c, 2, 69, 0
1, 12683, Note_off_c, 2, 73, 0
1, 12696, Note_on_c, 2, 62, 78
1, 12696, Note_on_c, 2, 71, 78
1, 12696, Note_on_c, 9, 42, 29
1, 12699, Note_off_c, 9, 42, 0
1, 12718, Note_off_c, 4, 59, 0
1, 12718, Note_off_c, 2, 62, 0
1, 12718, Note_off_c, 2, 71, 0
1, 12720, Note_on_c, 2, 64, 125
1, 12720, Note_on_c, 2, 69, 125
1, 12720, Note_on_c, 2, 73, 125
1, 12720, Note_on_c, 4, 66, 44
1, 12720, Note_on_c, 4, 71, 44
1, 12720, Note_on_c, 4, 74, 44
1, 12720, Note_on_c, 9, 42, 79
1, 12723, Note_off_c, 9, 42, 0
1, 12742, Note_off_c, 1, 35, 0
1, 12766, Note_off_c, 4, 66, 0
1, 12766, Note_off_c, 4, 71, 0
1, 12766, Note_off_c, 4, 74, 0
1, 12768, Note_on_c, 1, 35, 74
1, 12768, Note_on_c, 9, 35, 74
1, 12768, Note_on_c, 9, 42, 39
1, 12771, Note_off_c, 9, 35, 0
1, 12771, Note_off_c, 9, 42, 0
1, 12792, Note_on_c, 9, 42, 29
1, 12795, Note_off_c, 9, 42, 0
1, 12814, Note_off_c, 8, 64, 0
1, 12814, Note_off_c, 12, 64, 0
1, 12814, Note_off_c, 2, 64, 0
1, 12814, Note_off_c, 2, 69, 0
1, 12814, Note_off_c, 2, 73, 0
1, 12816, Note_on_c, 2, 62, 78
1, 12816, Note_on_c, 2, 71, 78
1, 12816, Note_on_c, 4, 66, 44
1, 12816, Note_on_c, 4, 71, 44
1, 12816, Note_on_c, 4, 74, 44
1, 12816, Note_on_c, 9, 37, 83
1, 12816, Note_on_c, 9, 42, 79
1, 12819, Note_off_c, 9, 37, 0
1, 12819, Note_off_c, 9, 42, 0
1, 12838, Note_off_c, 1, 35, 0
1, 12838, Note_off_c, 2, 62, 0
1, 12838, Note_off_c, 2, 71, 0
1, 12862, Note_off_c, 4, 66, 0
1, 12862, Note_off_c, 4, 71, 0
1, 12862, Note_off_c, 4, 74, 0
1, 12864, Note_on_c, 1, 35, 74
1, 12864, Note_on_c, 2, 64, 125
1, 12864, Note_on_c, 2, 69, 125
1, 12864, Note_on_c, 2, 73, 125
1, 12864, Note_on_c, 4, 59, 44
1, 12864, Note_on_c, 8, 71, 126
1, 12864, Note_on_c, 9, 42, 39
1, 12864, Note_on_c, 12, 71, 108
1, 12867, Note_off_c, 3, 59, 0
1, 12867, Note_off_c, 9, 42, 0
1, 12870, Note_off_c, 11, 62, 0
1, 12875, Note_off_c, 2, 64, 0
1, 12875, Note_off_c, 2, 69, 0
1, 12875, Note_off_c, 2, 73, 0
1, 12886, Note_off_c, 8, 71, 0
1, 12886, Note_off_c, 12, 71, 0
1, 12888, Note_on_c, 9, 42, 29
1, 12891, Note_off_c, 9, 42, 0
1, 12910, Note_off_c, 1, 35, 0
1, 12910, Note_off_c, 4, 59, 0
1, 12912, Note_on_c, 2, 62, 78
1, 12912, Note_on_c, 2, 71, 78
1, 12912, Note_on_c, 4, 66, 44
1, 12912, Note_on_c, 4, 71, 44
1, 12912, Note_on_c, 4, 74, 44
1, 12912, Note_on_c, 8, 78, 109
1, 12912, Note_on_c, 9, 42, 79
1, 12912, Note_on_c, 12, 78, 104
1, 12915, Note_off_c, 9, 42, 0
1, 12934, Note_off_c, 2, 62, 0
1, 12934, Note_off_c, 2, 71, 0
1, 12934, Note_off_c, 8, 78, 0
1, 12934, Note_off_c, 12, 78, 0
1, 12936, Note_on_c, 1, 30, 62
1, 12936, Note_on_c, 2, 64, 125
1, 12936, Note_on_c, 2, 69, 125
1, 12936, Note_on_c, 2, 73, 125
1, 12936, Note_on_c, 9, 37, 83
1, 12939, Note_off_c, 9, 37, 0
1, 12958, Note_off_c, 4, 66, 0
1, 12958, Note_off_c, 4, 71, 0
1, 12958, Note_off_c, 4, 74, 0
1, 12958, Note_off_c, 1, 30, 0
1, 12960, Note_on_c, 1, 33, 74
1, 12960, Note_on_c, 4, 57, 44
1, 12960, Note_on_c, 8, 78, 126
1, 12960, Note_on_c, 9, 35, 74
1, 12960, Note_on_c, 9, 37, 83
1, 12960, Note_on_c, 9, 42, 39
1, 12960, Note_on_c, 9, 54, 39
1, 12960, Note_on_c, 12, 78, 108
1, 12963, Note_off_c, 9, 35, 0
1, 12963, Note_off_c, 9, 37, 0
1, 12963, Note_off_c, 9, 42, 0
1, 12963, Note_off_c, 9, 54, 0
1, 12984, Note_on_c, 9, 42, 29
1, 12987, Note_off_c, 9, 42, 0
1, 13006, Note_off_c, 2, 64, 0
1, 13006, Note_off_c, 2, 69, 0
1, 13006, Note_off_c, 2, 73, 0
1, 13006, Note_off_c, 1, 33, 0
1, 13006, Note_off_c, 4, 57, 0
1, 13006, Note_off_c, 8, 78, 0
1, 13006, Note_off_c, 12, 78, 0
1, 13008, Note_on_c, 1, 35, 67
1, 13008, Note_on_c, 2, 62, 78
1, 13008, Note_on_c, 2, 71, 78
1, 13008, Note_on_c, 4, 64, 44
1, 13008, Note_on_c, 4, 69, 44
1, 13008, Note_on_c, 4, 73, 44
1, 13008, Note_on_c, 8, 76, 79
1, 13008, Note_on_c, 9, 42, 79
1, 13008, Note_on_c, 12, 76, 96
1, 13011, Note_off_c, 9, 42, 0
1, 13030, Note_off_c, 2, 62, 0
1, 13030, Note_off_c, 2, 71, 0
1, 13030, Note_off_c, 8, 76, 0
1, 13030, Note_off_c, 12, 76, 0
1, 13032, Note_on_c, 8, 78, 126
1, 13032, Note_on_c, 12, 78, 108
1, 13054, Note_off_c, 1, 35, 0
1, 13054, Note_off_c, 4, 64, 0
1, 13054, Note_off_c, 4, 69, 0
1, 13054, Note_off_c, 4, 73, 0
1, 13056, Note_on_c, 1, 28, 74
1, 13056, Note_on_c, 4, 52, 44
1, 13069, Note_off_c, 8, 78, 0
1, 13069, Note_off_c, 12, 78, 0
1, 13102, Note_off_c, 4, 52, 0
1, 13104, Note_on_c, 4, 62, 44
1, 13104, Note_on_c, 4, 67, 44
1, 13104, Note_on_c, 4, 71, 44
1, 13104, Note_on_c, 9, 42, 79
1, 13104, Note_on_c, 9, 53, 29
1, 13107, Note_off_c, 9, 42, 0
1, 13107, Note_off_c, 9, 53, 0
1, 13126, Note_off_c, 1, 28, 0
1, 13128, Note_on_c, 3, 54, 70
1, 13144, Note_off_c, 3, 54, 0
1, 13150, Note_off_c, 4, 62, 0
1, 13150, Note_off_c, 4, 67, 0
1, 13150, Note_off_c, 4, 71, 0
1, 13152, Note_on_c, 1, 28, 74
1, 13152, Note_on_c, 3, 59, 78
1, 13152, Note_on_c, 9, 35, 74
1, 13155, Note_off_c, 9, 35, 0
1, 13174, Note_off_c, 3, 59, 0
1, 13176, Note_on_c, 3, 62, 77
1, 13195, Note_off_c, 3, 62, 0
1, 13200, Note_on_c, 4, 62, 44
1, 13200, Note_on_c, 4, 67, 44
1, 13200, Note_on_c, 4, 71, 44
1, 13200, Note_on_c, 9, 37, 83
1, 13200, Note_on_c, 9, 42, 79
1, 13203, Note_off_c, 9, 37, 0
1, 13203, Note_off_c, 9, 42, 0
1, 13224, Note_on_c, 3, 64, 73
1, 13224, Note_on_c, 9, 42, 29
1, 13227, Note_off_c, 9, 42, 0
1, 13246, Note_off_c, 1, 28, 0
1, 13246, Note_off_c, 4, 62, 0
1, 13246, Note_off_c, 4, 67, 0
1, 13246, Note_off_c, 4, 71, 0
1, 13248, Note_off_c, 3, 64, 0
1, 13248, Note_on_c, 1, 33, 74
1, 13248, Note_on_c, 4, 57, 44
1, 13248, Note_on_c, 9, 42, 17
1, 13251, Note_off_c, 9, 42, 0
1, 13272, Note_on_c, 3, 61, 77
1, 13272, Note_on_c, 9, 42, 29
1, 13275, Note_off_c, 9, 42, 0
1, 13294, Note_off_c, 4, 57, 0
1, 13296, Note_off_c, 3, 61, 0
1, 13296, Note_on_c, 4, 64, 44
1, 13296, Note_on_c, 4, 69, 44
1, 13296, Note_on_c, 4, 73, 44
1, 13296, Note_on_c, 9, 42, 79
1, 13299, Note_off_c, 9, 42, 0
1, 13318, Note_off_c, 1, 33, 0
1, 13320, Note_on_c, 3, 57, 73
1, 13342, Note_off_c, 4, 64, 0
1, 13342, Note_off_c, 4, 69, 0
1, 13342, Note_off_c, 4, 73, 0
1, 13344, Note_on_c, 1, 33, 74
1, 13344, Note_on_c, 4, 57, 44
1, 13344, Note_on_c, 9, 35, 74
1, 13347, Note_off_c, 3, 57, 0
1, 13347, Note_off_c, 9, 35, 0
1, 13368, Note_on_c, 3, 55, 71
1, 13390, Note_off_c, 4, 57, 0
1, 13392, Note_on_c, 4, 64, 44
1, 13392, Note_on_c, 4, 69, 44
1, 13392, Note_on_c, 4, 73, 44
1, 13392, Note_on_c, 9, 37, 83
1, 13392, Note_on_c, 9, 42, 79
1, 13392, Note_on_c, 9, 53, 29
1, 13393, Note_off_c, 3, 55, 0
1, 13395, Note_off_c, 9, 37, 0
1, 13395, Note_off_c, 9, 42, 0
1, 13395, Note_off_c, 9, 53, 0
1, 13416, Note_on_c, 3, 54, 54
1, 13438, Note_off_c, 1, 33, 0
1, 13438, Note_off_c, 4, 64, 0
1, 13438, Note_off_c, 4, 69, 0
1, 13438, Note_off_c, 4, 73, 0
1, 13440, Control_c, 8, 11, 72
1, 13440, Note_on_c, 1, 35, 74
1, 13440, Note_on_c, 4, 59, 44
1, 13440, Note_on_c, 8, 66, 115
1, 13440, Note_on_c, 12, 66, 105
1, 13456, Note_off_c, 8, 66, 0
1, 13456, Note_off_c, 12, 66, 0
1, 13459, Note_off_c, 3, 54, 0
1, 13464, Note_on_c, 3, 61, 75
1, 13464, Note_on_c, 8, 66, 69
1, 13464, Note_on_c, 12, 66, 94
1, 13480, Note_off_c, 8, 66, 0
1, 13480, Note_off_c, 12, 66, 0
1, 13486, Note_off_c, 4, 59, 0
1, 13488, Note_on_c, 4, 66, 44
1, 13488, Note_on_c, 4, 71, 44
1, 13488, Note_on_c, 4, 74, 44
1, 13488, Note_on_c, 8, 64, 79
1, 13488, Note_on_c, 9, 42, 79
1, 13488, Note_on_c, 12, 64, 96
1, 13489, Note_off_c, 3, 61, 0
1, 13491, Note_off_c, 9, 42, 0
1, 13510, Note_off_c, 1, 35, 0
1, 13510, Note_off_c, 8, 64, 0
1, 13510, Note_off_c, 12, 64, 0
1, 13512, Note_on_c, 3, 61, 75
1, 13512, Note_on_c, 8, 66, 79
1, 13512, Note_on_c, 12, 66, 96
1, 13534, Note_off_c, 4, 66, 0
1, 13534, Note_off_c, 4, 71, 0
1, 13534, Note_off_c, 4, 74, 0
1, 13534, Note_off_c, 8, 66, 0
1, 13534, Note_off_c, 12, 66, 0
1, 13536, Note_on_c, 1, 35, 74
1, 13536, Note_on_c, 8, 69, 115
1, 13536, Note_on_c, 9, 35, 74
1, 13536, Note_on_c, 12, 69, 105
1, 13539, Note_off_c, 9, 35, 0
1, 13552, Note_off_c, 8, 69, 0
1, 13552, Note_off_c, 12, 69, 0
1, 13560, Note_on_c, 8, 69, 69
1, 13560, Note_on_c, 12, 69, 94
1, 13576, Note_off_c, 8, 69, 0
1, 13576, Note_off_c, 12, 69, 0
1, 13584, Note_on_c, 4, 66, 44
1, 13584, Note_on_c, 4, 71, 44
1, 13584, Note_on_c, 4, 74, 44
1, 13584, Note_on_c, 8, 66, 79
1, 13584, Note_on_c, 9, 37, 83
1, 13584, Note_on_c, 9, 42, 79
1, 13584, Note_on_c, 12, 66, 96
1, 13587, Note_off_c, 9, 37, 0
1, 13587, Note_off_c, 9, 42, 0
1, 13606, Note_off_c, 1, 35, 0
1, 13606, Note_off_c, 8, 66, 0
1, 13606, Note_off_c, 12, 66, 0
1, 13608, Note_on_c, 8, 69, 99
1, 13608, Note_on_c, 12, 69, 101
1, 13630, Note_off_c, 4, 66, 0
1, 13630, Note_off_c, 4, 71, 0
1, 13630, Note_off_c, 4, 74, 0
1, 13630, Note_off_c, 8, 69, 0
1, 13630, Note_off_c, 12, 69, 0
1, 13632, Note_on_c, 1, 35, 74
1, 13632, Note_on_c, 4, 59, 44
1, 13632, Note_on_c, 8, 71, 115
1, 13632, Note_on_c, 9, 42, 29
1, 13632, Note_on_c, 9, 53, 29
1, 13632, Note_on_c, 12, 71, 105
1, 13635, Note_off_c, 9, 42, 0
1, 13635, Note_off_c, 9, 53, 0
1, 13654, Note_off_c, 8, 71, 0
1, 13654, Note_off_c, 12, 71, 0
1, 13656, Note_on_c, 9, 37, 83
1, 13659, Note_off_c, 9, 37, 0
1, 13678, Note_off_c, 4, 59, 0
1, 13680, Note_on_c, 4, 66, 44
1, 13680, Note_on_c, 4, 71, 44
1, 13680, Note_on_c, 4, 74, 44
1, 13680, Pitch_bend_c, 8, 129
1, 13680, Note_on_c, 8, 78, 126
1, 13680, Note_on_c, 9, 42, 79
1, 13680, Pitch_bend_c, 12, 129
1, 13680, Note_on_c, 12, 78, 108
1, 13683, Note_off_c, 9, 42, 0
1, 13692, Pitch_bend_c, 8, 3841
1, 13692, Pitch_bend_c, 12, 3841
1, 13702, Note_off_c, 1, 35, 0
1, 13704, Pitch_bend_c, 8, 8193
1, 13704, Note_on_c, 9, 42, 39
1, 13704, Pitch_bend_c, 12, 8193
1, 13707, Note_off_c, 9, 42, 0
1, 13726, Note_off_c, 4, 66, 0
1, 13726, Note_off_c, 4, 71, 0
1, 13726, Note_off_c, 4, 74, 0
1, 13728, Note_on_c, 1, 35, 74
1, 13728, Note_on_c, 4, 57, 44
1, 13728, Note_on_c, 9, 35, 74
1, 13728, Note_on_c, 9, 53, 29
1, 13731, Note_off_c, 9, 35, 0
1, 13731, Note_off_c, 9, 53, 0
1, 13747, Note_off_c, 3, 61, 0
1, 13774, Note_off_c, 8, 78, 0
1, 13774, Note_off_c, 12, 78, 0
1, 13774, Note_off_c, 1, 35, 0
1, 13774, Note_off_c, 4, 57, 0
1, 13776, Note_on_c, 1, 38, 74
1, 13776, Note_on_c, 4, 64, 44
1, 13776, Note_on_c, 4, 69, 44
1, 13776, Note_on_c, 4, 73, 44
1, 13776, Note_on_c, 8, 76, 79
1, 13776, Note_on_c, 9, 37, 83
1, 13776, Note_on_c, 9, 42, 79
1, 13776, Note_on_c, 12, 76, 96
1, 13779, Note_off_c, 9, 37, 0
1, 13779, Note_off_c, 9, 42, 0
1, 13798, Note_off_c, 8, 76, 0
1, 13798, Note_off_c, 12, 76, 0
1, 13800, Note_on_c, 8, 78, 126
1, 13800, Note_on_c, 9, 37, 83
1, 13800, Note_on_c, 9, 53, 29
1, 13800, Note_on_c, 12, 78, 108
1, 13803, Note_off_c, 9, 37, 0
1, 13803, Note_off_c, 9, 53, 0
1, 13822, Note_off_c, 1, 38, 0
1, 13822, Note_off_c, 4, 64, 0
1, 13822, Note_off_c, 4, 69, 0
1, 13822, Note_off_c, 4, 73, 0
1, 13824, Note_on_c, 1, 28, 74
1, 13824, Note_on_c, 4, 52, 44
1, 13870, Note_off_c, 4, 52, 0
1, 13872, Note_on_c, 4, 62, 44
1, 13872, Note_on_c, 4, 67, 44
1, 13872, Note_on_c, 4, 71, 44
1, 13872, Note_on_c, 9, 42, 79
1, 13875, Note_off_c, 9, 42, 0
1, 13888, Control_c, 8, 11, 72
1, 13894, Note_off_c, 1, 28, 0
1, 13904, Control_c, 8, 11, 65
1, 13904, Control_c, 12, 11, 65
1, 13918, Note_off_c, 4, 62, 0
1, 13918, Note_off_c, 4, 67, 0
1, 13918, Note_off_c, 4, 71, 0
1, 13920, Control_c, 8, 11, 54
1, 13920, Control_c, 12, 11, 54
1, 13920, Note_on_c, 1, 28, 74
1, 13920, Note_on_c, 3, 59, 77
1, 13920, Note_on_c, 9, 35, 74
1, 13923, Note_off_c, 9, 35, 0
1, 13936, Control_c, 8, 11, 42
1, 13936, Control_c, 12, 11, 42
1, 13941, Note_off_c, 3, 59, 0
1, 13944, Note_on_c, 3, 62, 78
1, 13952, Control_c, 8, 11, 29
1, 13952, Control_c, 12, 11, 29
1, 13962, Note_off_c, 3, 62, 0
1, 13968, Control_c, 8, 11, 18
1, 13968, Control_c, 12, 11, 18
1, 13968, Note_on_c, 4, 62, 44
1, 13968, Note_on_c, 4, 67, 44
1, 13968, Note_on_c, 4, 71, 44
1, 13968, Note_on_c, 9, 37, 83
1, 13968, Note_on_c, 9, 42, 79
1, 13968, Note_on_c, 9, 53, 29
1, 13971, Note_off_c, 9, 37, 0
1, 13971, Note_off_c, 9, 42, 0
1, 13971, Note_off_c, 9, 53, 0
1, 13984, Control_c, 8, 11, 13
1, 13984, Control_c, 12, 11, 13
1, 13992, Note_on_c, 3, 64, 70
1, 14014, Note_off_c, 8, 78, 0
1, 14014, Note_off_c, 12, 78, 0
1, 14014, Note_off_c, 1, 28, 0
1, 14014, Note_off_c, 4, 62, 0
1, 14014, Note_off_c, 4, 67, 0
1, 14014, Note_off_c, 4, 71, 0
1, 14016, Note_off_c, 3, 64, 0
1, 14016, Note_on_c, 1, 33, 74
1, 14016, Note_on_c, 4, 57, 44
1, 14040, Note_on_c, 3, 61, 73
1, 14060, Note_off_c, 3, 61, 0
1, 14062, Note_off_c, 4, 57, 0
1, 14064, Note_on_c, 4, 64, 44
1, 14064, Note_on_c, 4, 69, 44
1, 14064, Note_on_c, 4, 73, 44
1, 14064, Note_on_c, 9, 42, 79
1, 14067, Note_off_c, 9, 42, 0
1, 14086, Note_off_c, 1, 33, 0
1, 14088, Note_on_c, 3, 57, 76
1, 14110, Note_off_c, 4, 64, 0
1, 14110, Note_off_c, 4, 69, 0
1, 14110, Note_off_c, 4, 73, 0
1, 14112, Note_on_c, 1, 33, 74
1, 14112, Note_on_c, 4, 57, 44
1, 14112, Note_on_c, 9, 35, 74
1, 14112, Note_on_c, 9, 42, 39
1, 14112, Note_on_c, 9, 53, 29
1, 14115, Note_off_c, 9, 35, 0
1, 14115, Note_off_c, 9, 42, 0
1, 14115, Note_off_c, 9, 53, 0
1, 14158, Note_off_c, 3, 57, 0
1, 14158, Note_off_c, 4, 57, 0
1, 14160, Note_on_c, 3, 55, 71
1, 14160, Note_on_c, 4, 64, 44
1, 14160, Note_on_c, 4, 69, 44
1, 14160, Note_on_c, 4, 73, 44
1, 14160, Note_on_c, 9, 37, 83
1, 14160, Note_on_c, 9, 42, 79
1, 14160, Note_on_c, 9, 53, 29
1, 14163, Note_off_c, 9, 37, 0
1, 14163, Note_off_c, 9, 42, 0
1, 14163, Note_off_c, 9, 53, 0
1, 14205, Note_off_c, 3, 55, 0
1, 14206, Note_off_c, 1, 33, 0
1, 14206, Note_off_c, 4, 64, 0
1, 14206, Note_off_c, 4, 69, 0
1, 14206, Note_off_c, 4, 73, 0
1, 14208, Note_on_c, 1, 35, 74
1, 14208, Note_on_c, 3, 54, 72
1, 14208, Note_on_c, 4, 59, 44
1, 14208, Note_on_c, 9, 42, 29
1, 14211, Note_off_c, 9, 42, 0
1, 14232, Note_on_c, 9, 37, 83
1, 14235, Note_off_c, 9, 37, 0
1, 14254, Note_off_c, 4, 59, 0
1, 14256, Note_on_c, 4, 66, 44
1, 14256, Note_on_c, 4, 71, 44
1, 14256, Note_on_c, 4, 74, 44
1, 14256, Note_on_c, 9, 42, 79
1, 14259, Note_off_c, 9, 42, 0
1, 14278, Note_off_c, 1, 35, 0
1, 14302, Note_off_c, 4, 66, 0
1, 14302, Note_off_c, 4, 71, 0
1, 14302, Note_off_c, 4, 74, 0
1, 14304, Note_on_c, 1, 35, 74
1, 14304, Note_on_c, 9, 35, 74
1, 14304, Note_on_c, 9, 42, 29
1, 14307, Note_off_c, 9, 35, 0
1, 14307, Note_off_c, 9, 42, 0
1, 14328, Note_on_c, 9, 37, 83
1, 14331, Note_off_c, 9, 37, 0
1, 14352, Note_on_c, 4, 66, 44
1, 14352, Note_on_c, 4, 71, 44
1, 14352, Note_on_c, 4, 74, 44
1, 14352, Note_on_c, 9, 42, 79
1, 14355, Note_off_c, 9, 42, 0
1, 14374, Note_off_c, 1, 35, 0
1, 14382, Note_on_c, 8, 86, 125
1, 14382, Note_on_c, 12, 86, 108
1, 14398, Note_off_c, 4, 66, 0
1, 14398, Note_off_c, 4, 71, 0
1, 14398, Note_off_c, 4, 74, 0
1, 14398, Note_off_c, 8, 86, 0
1, 14398, Note_off_c, 12, 86, 0
1, 14400, Note_on_c, 1, 35, 74
1, 14400, Note_on_c, 4, 59, 44
1, 14400, Note_on_c, 8, 85, 125
1, 14400, Note_on_c, 9, 42, 29
1, 14400, Note_on_c, 9, 53, 29
1, 14400, Note_on_c, 12, 85, 108
1, 14403, Note_off_c, 9, 42, 0
1, 14403, Note_off_c, 9, 53, 0
1, 14424, Note_on_c, 9, 37, 83
1, 14427, Note_off_c, 9, 37, 0
1, 14428, Note_off_c, 8, 85, 0
1, 14428, Note_off_c, 12, 85, 0
1, 14430, Note_on_c, 8, 81, 125
1, 14430, Note_on_c, 12, 81, 108
1, 14446, Note_off_c, 1, 35, 0
1, 14446, Note_off_c, 4, 59, 0
1, 14446, Note_off_c, 8, 81, 0
1, 14446, Note_off_c, 12, 81, 0
1, 14448, Note_on_c, 1, 37, 74
1, 14448, Note_on_c, 4, 66, 44
1, 14448, Note_on_c, 4, 71, 44
1, 14448, Note_on_c, 4, 74, 44
1, 14448, Note_on_c, 8, 76, 125
1, 14448, Note_on_c, 9, 42, 79
1, 14448, Note_on_c, 12, 76, 108
1, 14451, Note_off_c, 9, 42, 0
1, 14476, Note_off_c, 8, 76, 0
1, 14476, Note_off_c, 12, 76, 0
1, 14478, Note_on_c, 8, 71, 65
1, 14478, Note_on_c, 12, 71, 93
1, 14494, Note_off_c, 1, 37, 0
1, 14494, Note_off_c, 4, 66, 0
1, 14494, Note_off_c, 4, 71, 0
1, 14494, Note_off_c, 4, 74, 0
1, 14494, Note_off_c, 8, 71, 0
1, 14494, Note_off_c, 12, 71, 0
1, 14496, Note_on_c, 1, 38, 74
1, 14496, Note_on_c, 4, 57, 44
1, 14496, Note_on_c, 8, 78, 125
1, 14496, Note_on_c, 9, 35, 74
1, 14496, Note_on_c, 9, 42, 39
1, 14496, Note_on_c, 9, 53, 29
1, 14496, Note_on_c, 12, 78, 108
1, 14499, Note_off_c, 9, 35, 0
1, 14499, Note_off_c, 9, 42, 0
1, 14499, Note_off_c, 9, 53, 0
1, 14512, Note_off_c, 3, 54, 0
1, 14524, Note_off_c, 8, 78, 0
1, 14524, Note_off_c, 12, 78, 0
1, 14526, Note_on_c, 8, 74, 95
1, 14526, Note_on_c, 12, 74, 100
1, 14542, Note_off_c, 1, 38, 0
1, 14542, Note_off_c, 4, 57, 0
1, 14542, Note_off_c, 8, 74, 0
1, 14542, Note_off_c, 12, 74, 0
1, 14544, Note_on_c, 1, 33, 74
1, 14544, Note_on_c, 4, 64, 44
1, 14544, Note_on_c, 4, 69, 44
1, 14544, Note_on_c, 4, 73, 44
1, 14544, Note_on_c, 8, 73, 85
1, 14544, Note_on_c, 9, 37, 83
1, 14544, Note_on_c, 9, 42, 59
1, 14544, Note_on_c, 9, 59, 29
1, 14544, Note_on_c, 12, 73, 98
1, 14547, Note_off_c, 9, 37, 0
1, 14547, Note_off_c, 9, 42, 0
1, 14547, Note_off_c, 9, 59, 0
1, 14568, Note_on_c, 9, 37, 83
1, 14568, Note_on_c, 9, 42, 79
1, 14571, Note_off_c, 9, 37, 0
1, 14571, Note_off_c, 9, 42, 0
1, 14572, Note_off_c, 8, 73, 0
1, 14572, Note_off_c, 12, 73, 0
1, 14574, Note_on_c, 8, 71, 75
1, 14574, Note_on_c, 12, 71, 95
1, 14590, Note_off_c, 1, 33, 0
1, 14590, Note_off_c, 4, 64, 0
1, 14590, Note_off_c, 4, 69, 0
1, 14590, Note_off_c, 4, 73, 0
1, 14590, Note_off_c, 8, 71, 0
1, 14590, Note_off_c, 12, 71, 0
1, 14592, Note_on_c, 1, 28, 74
1, 14592, Note_on_c, 4, 52, 44
1, 14592, Note_on_c, 8, 74, 105
1, 14592, Note_on_c, 12, 74, 103
1, 14620, Note_off_c, 8, 74, 0
1, 14620, Note_off_c, 12, 74, 0
1, 14622, Note_on_c, 8, 73, 95
1, 14622, Note_on_c, 12, 73, 100
1, 14638, Note_off_c, 4, 52, 0
1, 14638, Note_off_c, 8, 73, 0
1, 14638, Note_off_c, 12, 73, 0
1, 14640, Note_on_c, 4, 62, 44
1, 14640, Note_on_c, 4, 67, 44
1, 14640, Note_on_c, 4, 71, 44
1, 14640, Note_on_c, 8, 71, 85
1, 14640, Note_on_c, 9, 42, 79
1, 14640, Note_on_c, 12, 71, 98
1, 14643, Note_off_c, 9, 42, 0
1, 14662, Note_off_c, 1, 28, 0
1, 14664, Note_on_c, 3, 55, 61
1, 14668, Note_off_c, 8, 71, 0
1, 14668, Note_off_c, 12, 71, 0
1, 14670, Note_on_c, 8, 64, 75
1, 14670, Note_on_c, 12, 64, 95
1, 14681, Note_off_c, 3, 55, 0
1, 14686, Note_off_c, 4, 62, 0
1, 14686, Note_off_c, 4, 67, 0
1, 14686, Note_off_c, 4, 71, 0
1, 14686, Note_off_c, 8, 64, 0
1, 14686, Note_off_c, 12, 64, 0
1, 14688, Note_on_c, 1, 28, 74
1, 14688, Note_on_c, 3, 59, 75
1, 14688, Note_on_c, 8, 67, 95
1, 14688, Note_on_c, 9, 35, 74
1, 14688, Note_on_c, 12, 67, 100
1, 14691, Note_off_c, 9, 35, 0
1, 14710, Note_off_c, 3, 59, 0
1, 14712, Note_on_c, 3, 62, 77
1, 14733, Note_off_c, 3, 62, 0
1, 14736, Note_on_c, 4, 62, 44
1, 14736, Note_on_c, 4, 67, 44
1, 14736, Note_on_c, 4, 71, 44
1, 14736, Note_on_c, 9, 37, 83
1, 14736, Note_on_c, 9, 42, 79
1, 14736, Note_on_c, 9, 53, 29
1, 14739, Note_off_c, 9, 37, 0
1, 14739, Note_off_c, 9, 42, 0
1, 14739, Note_off_c, 9, 53, 0
1, 14760, Note_on_c, 3, 64, 72
1, 14782, Note_off_c, 1, 28, 0
1, 14782, Note_off_c, 4, 62, 0
1, 14782, Note_off_c, 4, 67, 0
1, 14782, Note_off_c, 4, 71, 0
1, 14783, Note_off_c, 3, 64, 0
1, 14784, Note_on_c, 1, 33, 74
1, 14784, Note_on_c, 4, 57, 44
1, 14806, Note_off_c, 8, 67, 0
1, 14806, Note_off_c, 12, 67, 0
1, 14808, Note_on_c, 3, 61, 72
1, 14808, Note_on_c, 8, 69, 95
1, 14808, Note_on_c, 12, 69, 100
1, 14829, Note_off_c, 3, 61, 0
1, 14830, Note_off_c, 4, 57, 0
1, 14832, Note_on_c, 4, 64, 44
1, 14832, Note_on_c, 4, 69, 44
1, 14832, Note_on_c, 4, 73, 44
1, 14832, Note_on_c, 9, 42, 79
1, 14835, Note_off_c, 9, 42, 0
1, 14854, Note_off_c, 1, 33, 0
1, 14854, Note_off_c, 8, 69, 0
1, 14854, Note_off_c, 12, 69, 0
1, 14856, Note_on_c, 3, 57, 66
1, 14856, Note_on_c, 8, 67, 75
1, 14856, Note_on_c, 12, 67, 95
1, 14876, Note_off_c, 3, 57, 0
1, 14878, Note_off_c, 4, 64, 0
1, 14878, Note_off_c, 4, 69, 0
1, 14878, Note_off_c, 4, 73, 0
1, 14878, Note_off_c, 8, 67, 0
1, 14878, Note_off_c, 12, 67, 0
1, 14880, Note_on_c, 1, 33, 74
1, 14880, Note_on_c, 4, 57, 44
1, 14880, Note_on_c, 8, 66, 95
1, 14880, Note_on_c, 9, 35, 74
1, 14880, Note_on_c, 12, 66, 100
1, 14883, Note_off_c, 9, 35, 0
1, 14902, Note_off_c, 8, 66, 0
1, 14902, Note_off_c, 12, 66, 0
1, 14904, Note_on_c, 3, 55, 69
1, 14904, Note_on_c, 8, 64, 75
1, 14904, Note_on_c, 12, 64, 95
1, 14926, Note_off_c, 4, 57, 0
1, 14928, Note_off_c, 3, 55, 0
1, 14928, Note_on_c, 4, 64, 44
1, 14928, Note_on_c, 4, 69, 44
1, 14928, Note_on_c, 4, 73, 44
1, 14928, Note_on_c, 9, 37, 83
1, 14928, Note_on_c, 9, 42, 79
1, 14928, Note_on_c, 9, 59, 39
1, 14931, Note_off_c, 9, 37, 0
1, 14931, Note_off_c, 9, 42, 0
1, 14931, Note_off_c, 9, 59, 0
1, 14952, Note_on_c, 3, 54, 74
1, 14974, Note_off_c, 1, 33, 0
1, 14974, Note_off_c, 8, 64, 0
1, 14974, Note_off_c, 12, 64, 0
1, 14974, Note_off_c, 4, 64, 0
1, 14974, Note_off_c, 4, 69, 0
1, 14974, Note_off_c, 4, 73, 0
1, 14976, Note_on_c, 1, 35, 74
1, 14976, Note_on_c, 4, 59, 44
1, 14976, Note_on_c, 8, 62, 75
1, 14976, Note_on_c, 12, 62, 95
1, 14998, Note_off_c, 3, 54, 0
1, 15000, Note_on_c, 3, 61, 76
1, 15016, Note_off_c, 3, 61, 0
1, 15022, Note_off_c, 4, 59, 0
1, 15024, Note_on_c, 4, 66, 44
1, 15024, Note_on_c, 4, 71, 44
1, 15024, Note_on_c, 4, 74, 44
1, 15024, Note_on_c, 9, 42, 79
1, 15027, Note_off_c, 9, 42, 0
1, 15046, Note_off_c, 1, 35, 0
1, 15048, Note_on_c, 3, 61, 74
1, 15070, Note_off_c, 4, 66, 0
1, 15070, Note_off_c, 4, 71, 0
1, 15070, Note_off_c, 4, 74, 0
1, 15072, Note_on_c, 1, 35, 74
1, 15072, Note_on_c, 9, 35, 74
1, 15075, Note_off_c, 9, 35, 0
1, 15082, Note_off_c, 3, 61, 0
1, 15096, Note_on_c, 3, 59, 61
1, 15118, Note_off_c, 3, 59, 0
1, 15120, Note_on_c, 4, 66, 44
1, 15120, Note_on_c, 4, 71, 44
1, 15120, Note_on_c, 4, 74, 44
1, 15120, Note_on_c, 9, 37, 83
1, 15120, Note_on_c, 9, 42, 79
1, 15123, Note_off_c, 9, 37, 0
1, 15123, Note_off_c, 9, 42, 0
1, 15142, Note_off_c, 1, 35, 0
1, 15144, Note_on_c, 1, 30, 62
1, 15144, Note_on_c, 3, 61, 76
1, 15166, Note_off_c, 8, 62, 0
1, 15166, Note_off_c, 12, 62, 0
1, 15166, Note_off_c, 4, 66, 0
1, 15166, Note_off_c, 4, 71, 0
1, 15166, Note_off_c, 4, 74, 0
1, 15166, Note_off_c, 1, 30, 0
1, 15168, Note_on_c, 1, 35, 74
1, 15168, Note_on_c, 4, 59, 44
1, 15192, Note_on_c, 9, 37, 83
1, 15195, Note_off_c, 9, 37, 0
1, 15214, Note_off_c, 4, 59, 0
1, 15216, Note_on_c, 4, 66, 44
1, 15216, Note_on_c, 4, 71, 44
1, 15216, Note_on_c, 4, 74, 44
1, 15216, Note_on_c, 9, 42, 59
1, 15219, Note_off_c, 9, 42, 0
1, 15227, Note_off_c, 3, 61, 0
1, 15240, Note_on_c, 9, 42, 79
1, 15243, Note_off_c, 9, 42, 0
1, 15262, Note_off_c, 1, 35, 0
1, 15262, Note_off_c, 4, 66, 0
1, 15262, Note_off_c, 4, 71, 0
1, 15262, Note_off_c, 4, 74, 0
1, 15264, Note_on_c, 1, 33, 74
1, 15264, Note_on_c, 3, 59, 76
1, 15264, Note_on_c, 4, 57, 44
1, 15264, Note_on_c, 9, 35, 74
1, 15267, Note_off_c, 9, 35, 0
1, 15285, Note_off_c, 3, 59, 0
1, 15288, Note_on_c, 3, 61, 72
1, 15307, Note_off_c, 3, 61, 0
1, 15310, Note_off_c, 4, 57, 0
1, 15312, Note_on_c, 4, 64, 44
1, 15312, Note_on_c, 4, 69, 44
1, 15312, Note_on_c, 4, 73, 44
1, 15312, Note_on_c, 9, 37, 83
1, 15312, Note_on_c, 9, 42, 59
1, 15315, Note_off_c, 9, 37, 0
1, 15315, Note_off_c, 9, 42, 0
1, 15334, Note_off_c, 1, 33, 0
1, 15336, Note_on_c, 1, 35, 62
1, 15336, Note_on_c, 3, 62, 74
1, 15336, Note_on_c, 9, 37, 83
1, 15336, Note_on_c, 9, 42, 79
1, 15339, Note_off_c, 9, 37, 0
1, 15339, Note_off_c, 9, 42, 0
1, 15358, Note_off_c, 4, 64, 0
1, 15358, Note_off_c, 4, 69, 0
1, 15358, Note_off_c, 4, 73, 0
1, 15358, Note_off_c, 1, 35, 0
1, 15360, Note_on_c, 1, 28, 74
1, 15360, Note_on_c, 4, 52, 44
1, 15360, Note_on_c, 9, 42, 29
1, 15363, Note_off_c, 9, 42, 0
1, 15384, Note_on_c, 9, 37, 83
1, 15387, Note_off_c, 9, 37, 0
1, 15406, Note_off_c, 4, 52, 0
1, 15408, Note_on_c, 4, 62, 44
1, 15408, Note_on_c, 4, 67, 44
1, 15408, Note_on_c, 4, 71, 44
1, 15408, Note_on_c, 9, 37, 83
1, 15408, Note_on_c, 9, 42, 79
1, 15411, Note_off_c, 9, 37, 0
1, 15411, Note_off_c, 9, 42, 0
1, 15430, Note_off_c, 1, 28, 0
1, 15440, Note_off_c, 3, 62, 0
1, 15454, Note_off_c, 4, 62, 0
1, 15454, Note_off_c, 4, 67, 0
1, 15454, Note_off_c, 4, 71, 0
1, 15456, Note_on_c, 1, 28, 74
1, 15456, Note_on_c, 9, 35, 74
1, 15456, Note_on_c, 9, 42, 29
1, 15456, Note_on_c, 9, 55, 49
1, 15459, Note_off_c, 9, 35, 0
1, 15459, Note_off_c, 9, 42, 0
1, 15459, Note_off_c, 9, 55, 0
1, 15504, Note_on_c, 3, 62, 76
1, 15504, Note_on_c, 4, 62, 44
1, 15504, Note_on_c, 4, 67, 44
1, 15504, Note_on_c, 4, 71, 44
1, 15504, Note_on_c, 9, 37, 83
1, 15504, Note_on_c, 9, 42, 79
1, 15507, Note_off_c, 9, 37, 0
1, 15507, Note_off_c, 9, 42, 0
1, 15530, Note_off_c, 3, 62, 0
1, 15550, Note_off_c, 1, 28, 0
1, 15550, Note_off_c, 4, 62, 0
1, 15550, Note_off_c, 4, 67, 0
1, 15550, Note_off_c, 4, 71, 0
1, 15552, Note_on_c, 1, 33, 74
1, 15552, Note_on_c, 3, 61, 76
1, 15552, Note_on_c, 4, 57, 44
1, 15552, Note_on_c, 9, 42, 29
1, 15555, Note_off_c, 9, 42, 0
1, 15574, Note_off_c, 3, 61, 0
1, 15576, Note_on_c, 3, 59, 72
1, 15598, Note_off_c, 4, 57, 0
1, 15600, Note_off_c, 3, 59, 0
1, 15600, Note_on_c, 4, 64, 44
1, 15600, Note_on_c, 4, 69, 44
1, 15600, Note_on_c, 4, 73, 44
1, 15600, Note_on_c, 9, 42, 79
1, 15603, Note_off_c, 9, 42, 0
1, 15622, Note_off_c, 1, 33, 0
1, 15624, Note_on_c, 3, 57, 72
1, 15646, Note_off_c, 4, 64, 0
1, 15646, Note_off_c, 4, 69, 0
1, 15646, Note_off_c, 4, 73, 0
1, 15647, Note_off_c, 3, 57, 0
1, 15648, Note_on_c, 1, 33, 74
1, 15648, Note_on_c, 4, 57, 44
1, 15648, Note_on_c, 9, 35, 74
1, 15648, Note_on_c, 9, 42, 29
1, 15651, Note_off_c, 9, 35, 0
1, 15651, Note_off_c, 9, 42, 0
1, 15672, Note_on_c, 3, 59, 78
1, 15694, Note_off_c, 4, 57, 0
1, 15696, Control_c, 2, 64, 127
1, 15696, Note_on_c, 4, 64, 44
1, 15696, Note_on_c, 4, 69, 44
1, 15696, Note_on_c, 4, 73, 44
1, 15696, Note_on_c, 9, 37, 83
1, 15696, Note_on_c, 9, 42, 79
1, 15699, Note_off_c, 9, 37, 0
1, 15699, Note_off_c, 9, 42, 0
1, 15720, Control_c, 2, 11, 127
1, 15720, Note_on_c, 2, 86, 63
1, 15727, Note_off_c, 3, 59, 0
1, 15742, Note_off_c, 1, 33, 0
1, 15742, Note_off_c, 4, 64, 0
1, 15742, Note_off_c, 4, 69, 0
1, 15742, Note_off_c, 4, 73, 0
1, 15742, Note_off_c, 2, 86, 0
1, 15744, Note_on_c, 1, 35, 74
1, 15744, Note_on_c, 2, 85, 79
1, 15744, Note_on_c, 3, 59, 77
1, 15744, Note_on_c, 4, 59, 44
1, 15744, Note_on_c, 9, 42, 29
1, 15747, Note_off_c, 9, 42, 0
1, 15766, Note_off_c, 2, 85, 0
1, 15768, Note_on_c, 2, 78, 39
1, 15768, Note_on_c, 9, 37, 83
1, 15771, Note_off_c, 9, 37, 0
1, 15790, Note_off_c, 4, 59, 0
1, 15790, Note_off_c, 2, 78, 0
1, 15792, Note_on_c, 2, 73, 63
1, 15792, Note_on_c, 4, 66, 44
1, 15792, Note_on_c, 4, 71, 44
1, 15792, Note_on_c, 4, 74, 44
1, 15792, Note_on_c, 8, 73, 95
1, 15792, Note_on_c, 9, 42, 79
1, 15792, Note_on_c, 12, 73, 100
1, 15795, Note_off_c, 9, 42, 0
1, 15814, Note_off_c, 2, 73, 0
1, 15814, Note_off_c, 8, 73, 0
1, 15814, Note_off_c, 12, 73, 0
1, 15816, Note_on_c, 2, 74, 39
1, 15838, Note_off_c, 1, 35, 0
1, 15838, Note_off_c, 4, 66, 0
1, 15838, Note_off_c, 4, 71, 0
1, 15838, Note_off_c, 4, 74, 0
1, 15838, Note_off_c, 2, 74, 0
1, 15840, Note_on_c, 1, 35, 74
1, 15840, Note_on_c, 2, 81, 63
1, 15840, Note_on_c, 8, 74, 105
1, 15840, Note_on_c, 9, 35, 74
1, 15840, Note_on_c, 9, 37, 83
1, 15840, Note_on_c, 9, 42, 29
1, 15840, Note_on_c, 12, 74, 103
1, 15843, Note_off_c, 9, 35, 0
1, 15843, Note_off_c, 9, 37, 0
1, 15843, Note_off_c, 9, 42, 0
1, 15862, Note_off_c, 2, 81, 0
1, 15862, Note_off_c, 8, 74, 0
1, 15862, Note_off_c, 12, 74, 0
1, 15864, Note_on_c, 2, 76, 39
1, 15886, Note_off_c, 2, 76, 0
1, 15888, Note_on_c, 2, 85, 63
1, 15888, Note_on_c, 4, 66, 44
1, 15888, Note_on_c, 4, 71, 44
1, 15888, Note_on_c, 4, 74, 44
1, 15888, Note_on_c, 8, 76, 115
1, 15888, Note_on_c, 9, 42, 79
1, 15888, Note_on_c, 12, 76, 105
1, 15891, Note_off_c, 9, 42, 0
1, 15910, Note_off_c, 1, 35, 0
1, 15910, Note_off_c, 2, 85, 0
1, 15910, Note_off_c, 8, 76, 0
1, 15910, Note_off_c, 12, 76, 0
1, 15912, Note_on_c, 1, 30, 62
1, 15912, Note_on_c, 2, 78, 39
1, 15912, Note_on_c, 9, 37, 83
1, 15915, Note_off_c, 9, 37, 0
1, 15934, Note_off_c, 4, 66, 0
1, 15934, Note_off_c, 4, 71, 0
1, 15934, Note_off_c, 4, 74, 0
1, 15934, Note_off_c, 1, 30, 0
1, 15934, Note_off_c, 2, 78, 0
1, 15936, Note_on_c, 1, 35, 74
1, 15936, Note_on_c, 2, 95, 63
1, 15936, Note_on_c, 4, 59, 44
1, 15936, Pitch_bend_c, 8, 3585
1, 15936, Note_on_c, 8, 78, 125
1, 15936, Note_on_c, 9, 42, 29
1, 15936, Pitch_bend_c, 12, 3585
1, 15936, Note_on_c, 12, 78, 108
1, 15939, Note_off_c, 9, 42, 0
1, 15948, Pitch_bend_c, 8, 5761
1, 15948, Pitch_bend_c, 12, 5761
1, 15958, Note_off_c, 2, 95, 0
1, 15960, Pitch_bend_c, 8, 8193
1, 15960, Pitch_bend_c, 12, 8193
1, 15982, Note_off_c, 4, 59, 0
1, 15982, Note_off_c, 8, 78, 0
1, 15982, Note_off_c, 12, 78, 0
1, 15984, Note_on_c, 4, 66, 44
1, 15984, Note_on_c, 4, 71, 44
1, 15984, Note_on_c, 4, 74, 44
1, 15984, Note_on_c, 8, 76, 95
1, 15984, Note_on_c, 9, 37, 83
1, 15984, Note_on_c, 9, 42, 79
1, 15984, Note_on_c, 12, 76, 100
1, 15987, Note_off_c, 9, 37, 0
1, 15987, Note_off_c, 9, 42, 0
1, 16006, Note_off_c, 1, 35, 0
1, 16006, Note_off_c, 8, 76, 0
1, 16006, Note_off_c, 12, 76, 0
1, 16008, Note_on_c, 1, 30, 62
1, 16008, Note_on_c, 8, 74, 85
1, 16008, Note_on_c, 12, 74, 98
1, 16018, Note_off_c, 3, 59, 0
1, 16030, Note_off_c, 4, 66, 0
1, 16030, Note_off_c, 4, 71, 0
1, 16030, Note_off_c, 4, 74, 0
1, 16030, Note_off_c, 1, 30, 0
1, 16030, Note_off_c, 8, 74, 0
1, 16030, Note_off_c, 12, 74, 0
1, 16032, Note_on_c, 1, 33, 74
1, 16032, Note_on_c, 4, 57, 44
1, 16032, Note_on_c, 8, 73, 105
1, 16032, Note_on_c, 9, 35, 74
1, 16032, Note_on_c, 9, 37, 83
1, 16032, Note_on_c, 9, 54, 59
1, 16032, Note_on_c, 11, 66, 91
1, 16032, Note_on_c, 11, 69, 91
1, 16032, Note_on_c, 12, 73, 103
1, 16035, Note_off_c, 9, 35, 0
1, 16035, Note_off_c, 9, 37, 0
1, 16035, Note_off_c, 9, 54, 0
1, 16054, Note_off_c, 8, 73, 0
1, 16054, Note_off_c, 12, 73, 0
1, 16056, Note_on_c, 8, 74, 85
1, 16056, Note_on_c, 12, 74, 98
1, 16078, Note_off_c, 1, 33, 0
1, 16078, Note_off_c, 4, 57, 0
1, 16078, Note_off_c, 8, 74, 0
1, 16078, Note_off_c, 12, 74, 0
1, 16080, Note_on_c, 1, 35, 74
1, 16080, Note_on_c, 4, 64, 44
1, 16080, Note_on_c, 4, 69, 44
1, 16080, Note_on_c, 4, 73, 44
1, 16080, Note_on_c, 8, 73, 95
1, 16080, Note_on_c, 9, 54, 79
1, 16080, Note_on_c, 9, 55, 79
1, 16080, Note_on_c, 12, 73, 100
1, 16083, Note_off_c, 9, 54, 0
1, 16083, Note_off_c, 9, 55, 0
1, 16102, Note_off_c, 8, 73, 0
1, 16102, Note_off_c, 12, 73, 0
1, 16104, Control_c, 2, 64, 0
1, 16104, Note_on_c, 8, 69, 75
1, 16104, Note_on_c, 12, 69, 95
1, 16125, Note_off_c, 11, 66, 0
1, 16125, Note_off_c, 11, 69, 0
1, 16126, Note_off_c, 1, 35, 0
1, 16126, Note_off_c, 4, 64, 0
1, 16126, Note_off_c, 4, 69, 0
1, 16126, Note_off_c, 4, 73, 0
1, 16126, Note_off_c, 8, 69, 0
1, 16126, Note_off_c, 12, 69, 0
1, 16128, Note_on_c, 1, 28, 74
1, 16128, Note_on_c, 4, 52, 44
1, 16128, Note_on_c, 8, 71, 85
1, 16128, Note_on_c, 9, 42, 39
1, 16128, Note_on_c, 11, 62, 85
1, 16128, Note_on_c, 11, 66, 85
1, 16128, Note_on_c, 12, 71, 98
1, 16131, Note_off_c, 9, 42, 0
1, 16152, Note_on_c, 9, 42, 29
1, 16155, Note_off_c, 9, 42, 0
1, 16174, Note_off_c, 4, 52, 0
1, 16176, Note_on_c, 4, 62, 44
1, 16176, Note_on_c, 4, 67, 44
1, 16176, Note_on_c, 4, 71, 44
1, 16176, Note_on_c, 9, 42, 79
1, 16178, Note_off_c, 11, 62, 0
1, 16178, Note_off_c, 11, 66, 0
1, 16179, Note_off_c, 9, 42, 0
1, 16198, Note_off_c, 1, 28, 0
1, 16222, Note_off_c, 8, 71, 0
1, 16222, Note_off_c, 12, 71, 0
1, 16222, Note_off_c, 4, 62, 0
1, 16222, Note_off_c, 4, 67, 0
1, 16222, Note_off_c, 4, 71, 0
1, 16224, Control_c, 2, 11, 60
1, 16224, Note_on_c, 1, 28, 74
1, 16224, Note_on_c, 2, 64, 125
1, 16224, Note_on_c, 2, 69, 125
1, 16224, Note_on_c, 2, 73, 125
1, 16224, Note_on_c, 3, 62, 79
1, 16224, Note_on_c, 9, 35, 74
1, 16224, Note_on_c, 9, 42, 39
1, 16224, Note_on_c, 11, 66, 85
1, 16227, Note_off_c, 9, 35, 0
1, 16227, Note_off_c, 9, 42, 0
1, 16242, Note_off_c, 11, 66, 0
1, 16246, Note_off_c, 3, 62, 0
1, 16270, Note_off_c, 2, 64, 0
1, 16270, Note_off_c, 2, 69, 0
1, 16270, Note_off_c, 2, 73, 0
1, 16272, Note_on_c, 2, 62, 78
1, 16272, Note_on_c, 2, 71, 78
1, 16272, Note_on_c, 3, 62, 64
1, 16272, Note_on_c, 4, 62, 44
1, 16272, Note_on_c, 4, 67, 44
1, 16272, Note_on_c, 4, 71, 44
1, 16272, Note_on_c, 9, 37, 83
1, 16272, Note_on_c, 9, 42, 79
1, 16272, Note_on_c, 9, 59, 39
1, 16272, Note_on_c, 11, 66, 81
1, 16275, Note_off_c, 9, 37, 0
1, 16275, Note_off_c, 9, 42, 0
1, 16275, Note_off_c, 9, 59, 0
1, 16280, Note_off_c, 3, 62, 0
1, 16285, Note_off_c, 11, 66, 0
1, 16296, Note_on_c, 3, 62, 76
1, 16296, Note_on_c, 11, 66, 83
1, 16318, Note_off_c, 1, 28, 0
1, 16318, Note_off_c, 2, 62, 0
1, 16318, Note_off_c, 2, 71, 0
1, 16318, Note_off_c, 4, 62, 0
1, 16318, Note_off_c, 4, 67, 0
1, 16318, Note_off_c, 4, 71, 0
1, 16320, Note_on_c, 1, 33, 74
1, 16320, Note_on_c, 2, 64, 125
1, 16320, Note_on_c, 2, 69, 125
1, 16320, Note_on_c, 2, 73, 125
1, 16320, Note_on_c, 4, 57, 44
1, 16320, Note_on_c, 9, 42, 39
1, 16323, Note_off_c, 9, 42, 0
1, 16342, Note_off_c, 3, 62, 0
1, 16342, Note_off_c, 11, 66, 0
1, 16342, Note_off_c, 2, 64, 0
1, 16342, Note_off_c, 2, 69, 0
1, 16342, Note_off_c, 2, 73, 0
1, 16344, Note_on_c, 3, 61, 74
1, 16344, Note_on_c, 9, 42, 29
1, 16344, Note_on_c, 11, 64, 77
1, 16347, Note_off_c, 9, 42, 0
1, 16364, Note_off_c, 11, 64, 0
1, 16366, Note_off_c, 4, 57, 0
1, 16366, Note_off_c, 3, 61, 0
1, 16368, Note_on_c, 2, 62, 78
1, 16368, Note_on_c, 2, 71, 78
1, 16368, Note_on_c, 3, 59, 68
1, 16368, Note_on_c, 4, 64, 44
1, 16368, Note_on_c, 4, 69, 44
1, 16368, Note_on_c, 4, 73, 44
1, 16368, Note_on_c, 9, 42, 79
1, 16368, Note_on_c, 11, 62, 74
1, 16371, Note_off_c, 9, 42, 0
1, 16390, Note_off_c, 1, 33, 0
1, 16390, Note_off_c, 2, 62, 0
1, 16390, Note_off_c, 2, 71, 0
1, 16392, Note_on_c, 2, 64, 125
1, 16392, Note_on_c, 2, 69, 125
1, 16392, Note_on_c, 2, 73, 125
1, 16394, Note_off_c, 3, 59, 0
1, 16414, Note_off_c, 4, 64, 0
1, 16414, Note_off_c, 4, 69, 0
1, 16414, Note_off_c, 4, 73, 0
1, 16416, Note_off_c, 11, 62, 0
1, 16416, Note_on_c, 1, 33, 74
1, 16416, Note_on_c, 4, 57, 44
1, 16416, Note_on_c, 9, 35, 74
1, 16416, Note_on_c, 9, 42, 39
1, 16419, Note_off_c, 9, 35, 0
1, 16419, Note_off_c, 9, 42, 0
1, 16462, Note_off_c, 2, 64, 0
1, 16462, Note_off_c, 2, 69, 0
1, 16462, Note_off_c, 2, 73, 0
1, 16462, Note_off_c, 4, 57, 0
1, 16464, Note_on_c, 2, 62, 78
1, 16464, Note_on_c, 2, 71, 78
1, 16464, Note_on_c, 4, 64, 44
1, 16464, Note_on_c, 4, 69, 44
1, 16464, Note_on_c, 4, 73, 44
1, 16464, Note_on_c, 9, 37, 83
1, 16464, Note_on_c, 9, 42, 79
1, 16467, Note_off_c, 9, 37, 0
1, 16467, Note_off_c, 9, 42, 0
1, 16486, Note_off_c, 1, 33, 0
1, 16486, Note_off_c, 2, 62, 0
1, 16486, Note_off_c, 2, 71, 0
1, 16510, Note_off_c, 4, 64, 0
1, 16510, Note_off_c, 4, 69, 0
1, 16510, Note_off_c, 4, 73, 0
1, 16512, Control_c, 8, 11, 72
1, 16512, Control_c, 12, 11, 72
1, 16512, Note_on_c, 1, 35, 74
1, 16512, Note_on_c, 2, 64, 98
1, 16512, Note_on_c, 2, 69, 98
1, 16512, Note_on_c, 2, 73, 98
1, 16512, Note_on_c, 3, 61, 79
1, 16512, Note_on_c, 4, 59, 44
1, 16512, Note_on_c, 9, 42, 39
1, 16512, Note_on_c, 11, 64, 80
1, 16515, Note_off_c, 9, 42, 0
1, 16523, Note_off_c, 2, 64, 0
1, 16523, Note_off_c, 2, 69, 0
1, 16523, Note_off_c, 2, 73, 0
1, 16534, Note_off_c, 3, 61, 0
1, 16536, Note_on_c, 2, 62, 78
1, 16536, Note_on_c, 2, 71, 78
1, 16536, Note_on_c, 9, 42, 29
1, 16539, Note_off_c, 9, 42, 0
1, 16541, Note_off_c, 11, 64, 0
1, 16558, Note_off_c, 4, 59, 0
1, 16558, Note_off_c, 2, 62, 0
1, 16558, Note_off_c, 2, 71, 0
1, 16560, Note_on_c, 2, 64, 125
1, 16560, Note_on_c, 2, 69, 125
1, 16560, Note_on_c, 2, 73, 125
1, 16560, Note_on_c, 3, 61, 72
1, 16560, Note_on_c, 4, 66, 44
1, 16560, Note_on_c, 4, 71, 44
1, 16560, Note_on_c, 4, 74, 44
1, 16560, Note_on_c, 9, 42, 79
1, 16560, Note_on_c, 11, 64, 77
1, 16563, Note_off_c, 9, 42, 0
1, 16579, Note_off_c, 3, 61, 0
1, 16581, Note_off_c, 11, 64, 0
1, 16582, Note_off_c, 1, 35, 0
1, 16584, Note_on_c, 3, 64, 76
1, 16584, Note_on_c, 11, 67, 77
1, 16606, Note_off_c, 4, 66, 0
1, 16606, Note_off_c, 4, 71, 0
1, 16606, Note_off_c, 4, 74, 0
1, 16608, Note_on_c, 1, 35, 74
1, 16608, Note_on_c, 9, 35, 74
1, 16608, Note_on_c, 9, 42, 39
1, 16611, Note_off_c, 9, 35, 0
1, 16611, Note_off_c, 9, 42, 0
1, 16612, Note_off_c, 3, 64, 0
1, 16612, Note_off_c, 11, 67, 0
1, 16632, Note_on_c, 3, 64, 76
1, 16632, Note_on_c, 9, 42, 29
1, 16632, Note_on_c, 11, 67, 78
1, 16635, Note_off_c, 9, 42, 0
1, 16654, Note_off_c, 2, 64, 0
1, 16654, Note_off_c, 2, 69, 0
1, 16654, Note_off_c, 2, 73, 0
1, 16656, Note_off_c, 3, 64, 0
1, 16656, Note_on_c, 2, 62, 78
1, 16656, Note_on_c, 2, 71, 78
1, 16656, Note_on_c, 4, 66, 44
1, 16656, Note_on_c, 4, 71, 44
1, 16656, Note_on_c, 4, 74, 44
1, 16656, Note_on_c, 9, 37, 83
1, 16656, Note_on_c, 9, 42, 79
1, 16656, Note_on_c, 9, 59, 39
1, 16657, Note_off_c, 11, 67, 0
1, 16659, Note_off_c, 9, 37, 0
1, 16659, Note_off_c, 9, 42, 0
1, 16659, Note_off_c, 9, 59, 0
1, 16678, Note_off_c, 1, 35, 0
1, 16678, Note_off_c, 2, 62, 0
1, 16678, Note_off_c, 2, 71, 0
1, 16680, Note_on_c, 3, 62, 79
1, 16680, Note_on_c, 11, 66, 83
1, 16702, Note_off_c, 4, 66, 0
1, 16702, Note_off_c, 4, 71, 0
1, 16702, Note_off_c, 4, 74, 0
1, 16704, Note_on_c, 1, 35, 74
1, 16704, Note_on_c, 2, 64, 125
1, 16704, Note_on_c, 2, 69, 125
1, 16704, Note_on_c, 2, 73, 125
1, 16704, Note_on_c, 4, 59, 44
1, 16704, Note_on_c, 9, 42, 39
1, 16707, Note_off_c, 9, 42, 0
1, 16715, Note_off_c, 2, 64, 0
1, 16715, Note_off_c, 2, 69, 0
1, 16715, Note_off_c, 2, 73, 0
1, 16717, Note_off_c, 3, 62, 0
1, 16720, Note_off_c, 11, 66, 0
1, 16728, Note_on_c, 3, 61, 73
1, 16728, Note_on_c, 8, 73, 95
1, 16728, Note_on_c, 9, 42, 29
1, 16728, Note_on_c, 11, 64, 74
1, 16728, Note_on_c, 12, 73, 100
1, 16731, Note_off_c, 9, 42, 0
1, 16741, Note_off_c, 8, 73, 0
1, 16741, Note_off_c, 12, 73, 0
1, 16750, Note_off_c, 1, 35, 0
1, 16750, Note_off_c, 4, 59, 0
1, 16750, Note_off_c, 3, 61, 0
1, 16750, Note_off_c, 11, 64, 0
1, 16752, Note_on_c, 1, 37, 74
1, 16752, Note_on_c, 2, 62, 78
1, 16752, Note_on_c, 2, 71, 78
1, 16752, Note_on_c, 3, 59, 74
1, 16752, Note_on_c, 4, 66, 44
1, 16752, Note_on_c, 4, 71, 44
1, 16752, Note_on_c, 4, 74, 44
1, 16752, Note_on_c, 9, 42, 79
1, 16752, Note_on_c, 11, 62, 79
1, 16755, Note_off_c, 9, 42, 0
1, 16774, Note_off_c, 1, 37, 0
1, 16774, Note_off_c, 2, 62, 0
1, 16774, Note_off_c, 2, 71, 0
1, 16776, Note_off_c, 3, 59, 0
1, 16776, Note_on_c, 2, 64, 125
1, 16776, Note_on_c, 2, 69, 125
1, 16776, Note_on_c, 2, 73, 125
1, 16776, Note_on_c, 8, 74, 105
1, 16776, Note_on_c, 9, 42, 79
1, 16776, Note_on_c, 9, 59, 39
1, 16776, Note_on_c, 12, 74, 103
1, 16778, Note_off_c, 11, 62, 0
1, 16779, Note_off_c, 9, 42, 0
1, 16779, Note_off_c, 9, 59, 0
1, 16789, Note_off_c, 8, 74, 0
1, 16789, Note_off_c, 12, 74, 0
1, 16798, Note_off_c, 4, 66, 0
1, 16798, Note_off_c, 4, 71, 0
1, 16798, Note_off_c, 4, 74, 0
1, 16800, Note_on_c, 1, 38, 74
1, 16800, Note_on_c, 3, 59, 79
1, 16800, Note_on_c, 4, 57, 44
1, 16800, Note_on_c, 9, 35, 74
1, 16800, Note_on_c, 9, 37, 83
1, 16800, Note_on_c, 9, 42, 39
1, 16800, Note_on_c, 11, 62, 80
1, 16803, Note_off_c, 9, 35, 0
1, 16803, Note_off_c, 9, 37, 0
1, 16803, Note_off_c, 9, 42, 0
1, 16822, Note_off_c, 1, 38, 0
1, 16824, Note_on_c, 8, 76, 115
1, 16824, Note_on_c, 12, 76, 105
1, 16827, Note_off_c, 3, 59, 0
1, 16834, Note_off_c, 11, 62, 0
1, 16837, Note_off_c, 8, 76, 0
1, 16837, Note_off_c, 12, 76, 0
1, 16846, Note_off_c, 2, 64, 0
1, 16846, Note_off_c, 2, 69, 0
1, 16846, Note_off_c, 2, 73, 0
1, 16846, Note_off_c, 4, 57, 0
1, 16848, Note_on_c, 1, 30, 67
1, 16848, Note_on_c, 2, 62, 78
1, 16848, Note_on_c, 2, 71, 78
1, 16848, Note_on_c, 3, 61, 76
1, 16848, Note_on_c, 4, 64, 44
1, 16848, Note_on_c, 4, 69, 44
1, 16848, Note_on_c, 4, 73, 44
1, 16848, Note_on_c, 9, 42, 59
1, 16848, Note_on_c, 11, 64, 79
1, 16851, Note_off_c, 9, 42, 0
1, 16870, Note_off_c, 2, 62, 0
1, 16870, Note_off_c, 2, 71, 0
1, 16870, Note_off_c, 3, 61, 0
1, 16872, Pitch_bend_c, 8, 2177
1, 16872, Note_on_c, 8, 78, 125
1, 16872, Note_on_c, 9, 37, 83
1, 16872, Note_on_c, 9, 42, 79
1, 16872, Pitch_bend_c, 12, 2177
1, 16872, Note_on_c, 12, 78, 108
1, 16875, Note_off_c, 9, 37, 0
1, 16875, Note_off_c, 9, 42, 0
1, 16876, Note_off_c, 11, 64, 0
1, 16884, Pitch_bend_c, 8, 8065
1, 16884, Pitch_bend_c, 12, 8065
1, 16894, Note_off_c, 1, 30, 0
1, 16894, Note_off_c, 4, 64, 0
1, 16894, Note_off_c, 4, 69, 0
1, 16894, Note_off_c, 4, 73, 0
1, 16894, Note_off_c, 8, 78, 0
1, 16894, Note_off_c, 12, 78, 0
1, 16896, Note_on_c, 1, 28, 74
1, 16896, Note_on_c, 3, 62, 80
1, 16896, Note_on_c, 4, 52, 44
1, 16896, Note_on_c, 9, 42, 39
1, 16896, Note_on_c, 11, 66, 80
1, 16899, Note_off_c, 9, 42, 0
1, 16920, Note_on_c, 8, 73, 105
1, 16920, Note_on_c, 9, 42, 29
1, 16920, Note_on_c, 12, 73, 103
1, 16923, Note_off_c, 9, 42, 0
1, 16936, Note_off_c, 8, 73, 0
1, 16936, Note_off_c, 12, 73, 0
1, 16942, Note_off_c, 4, 52, 0
1, 16944, Note_on_c, 4, 62, 44
1, 16944, Note_on_c, 4, 67, 44
1, 16944, Note_on_c, 4, 71, 44
1, 16944, Note_on_c, 8, 66, 49
1, 16944, Note_on_c, 9, 42, 79
1, 16944, Note_on_c, 12, 66, 89
1, 16947, Note_off_c, 9, 42, 0
1, 16951, Note_off_c, 11, 66, 0
1, 16954, Note_off_c, 3, 62, 0
1, 16960, Note_off_c, 8, 66, 0
1, 16960, Note_off_c, 12, 66, 0
1, 16966, Note_off_c, 1, 28, 0
1, 16968, Note_on_c, 3, 62, 79
1, 16968, Note_on_c, 8, 71, 59
1, 16968, Note_on_c, 11, 66, 84
1, 16968, Note_on_c, 12, 71, 91
1, 16984, Note_off_c, 8, 71, 0
1, 16984, Note_off_c, 12, 71, 0
1, 16990, Note_off_c, 4, 62, 0
1, 16990, Note_off_c, 4, 67, 0
1, 16990, Note_off_c, 4, 71, 0
1, 16992, Note_on_c, 1, 28, 74
1, 16992, Note_on_c, 2, 64, 125
1, 16992, Note_on_c, 2, 69, 125
1, 16992, Note_on_c, 2, 73, 125
1, 16992, Note_on_c, 8, 73, 105
1, 16992, Note_on_c, 9, 35, 74
1, 16992, Note_on_c, 9, 42, 39
1, 16992, Note_on_c, 12, 73, 103
1, 16995, Note_off_c, 9, 35, 0
1, 16995, Note_off_c, 9, 42, 0
1, 17014, Note_off_c, 8, 73, 0
1, 17014, Note_off_c, 12, 73, 0
1, 17016, Note_on_c, 8, 66, 49
1, 17016, Note_on_c, 9, 42, 29
1, 17016, Note_on_c, 12, 66, 89
1, 17018, Note_off_c, 3, 62, 0
1, 17019, Note_off_c, 9, 42, 0
1, 17020, Note_off_c, 11, 66, 0
1, 17038, Note_off_c, 2, 64, 0
1, 17038, Note_off_c, 2, 69, 0
1, 17038, Note_off_c, 2, 73, 0
1, 17038, Note_off_c, 8, 66, 0
1, 17038, Note_off_c, 12, 66, 0
1, 17040, Note_on_c, 2, 62, 78
1, 17040, Note_on_c, 2, 71, 78
1, 17040, Note_on_c, 3, 62, 80
1, 17040, Note_on_c, 4, 62, 44
1, 17040, Note_on_c, 4, 67, 44
1, 17040, Note_on_c, 4, 71, 44
1, 17040, Note_on_c, 8, 71, 59
1, 17040, Note_on_c, 9, 37, 83
1, 17040, Note_on_c, 9, 42, 79
1, 17040, Note_on_c, 11, 66, 85
1, 17040, Note_on_c, 12, 71, 91
1, 17043, Note_off_c, 9, 37, 0
1, 17043, Note_off_c, 9, 42, 0
1, 17056, Note_off_c, 8, 71, 0
1, 17056, Note_off_c, 12, 71, 0
1, 17072, Note_off_c, 3, 62, 0
1, 17081, Note_off_c, 11, 66, 0
1, 17086, Note_off_c, 1, 28, 0
1, 17086, Note_off_c, 2, 62, 0
1, 17086, Note_off_c, 2, 71, 0
1, 17086, Note_off_c, 4, 62, 0
1, 17086, Note_off_c, 4, 67, 0
1, 17086, Note_off_c, 4, 71, 0
1, 17088, Note_on_c, 1, 33, 74
1, 17088, Note_on_c, 2, 64, 125
1, 17088, Note_on_c, 2, 69, 125
1, 17088, Note_on_c, 2, 73, 125
1, 17088, Note_on_c, 3, 61, 77
1, 17088, Note_on_c, 4, 57, 44
1, 17088, Note_on_c, 9, 42, 39
1, 17088, Note_on_c, 11, 64, 81
1, 17091, Note_off_c, 9, 42, 0
1, 17110, Note_off_c, 2, 64, 0
1, 17110, Note_off_c, 2, 69, 0
1, 17110, Note_off_c, 2, 73, 0
1, 17112, Note_on_c, 8, 73, 105
1, 17112, Note_on_c, 9, 42, 29
1, 17112, Note_on_c, 12, 73, 103
1, 17115, Note_off_c, 9, 42, 0
1, 17128, Note_off_c, 8, 73, 0
1, 17128, Note_off_c, 12, 73, 0
1, 17134, Note_off_c, 4, 57, 0
1, 17136, Note_on_c, 2, 62, 78
1, 17136, Note_on_c, 2, 71, 78
1, 17136, Note_on_c, 4, 64, 44
1, 17136, Note_on_c, 4, 69, 44
1, 17136, Note_on_c, 4, 73, 44
1, 17136, Note_on_c, 8, 66, 49
1, 17136, Note_on_c, 9, 42, 79
1, 17136, Note_on_c, 12, 66, 89
1, 17139, Note_off_c, 9, 42, 0
1, 17142, Note_off_c, 11, 64, 0
1, 17152, Note_off_c, 8, 66, 0
1, 17152, Note_off_c, 12, 66, 0
1, 17158, Note_off_c, 1, 33, 0
1, 17158, Note_off_c, 3, 61, 0
1, 17158, Note_off_c, 2, 62, 0
1, 17158, Note_off_c, 2, 71, 0
1, 17160, Note_on_c, 2, 64, 125
1, 17160, Note_on_c, 2, 69, 125
1, 17160, Note_on_c, 2, 73, 125
1, 17160, Note_on_c, 3, 57, 76
1, 17160, Note_on_c, 8, 71, 59
1, 17160, Note_on_c, 11, 61, 84
1, 17160, Note_on_c, 12, 71, 91
1, 17176, Note_off_c, 8, 71, 0
1, 17176, Note_off_c, 12, 71, 0
1, 17182, Note_off_c, 4, 64, 0
1, 17182, Note_off_c, 4, 69, 0
1, 17182, Note_off_c, 4, 73, 0
1, 17184, Note_on_c, 1, 33, 74
1, 17184, Note_on_c, 4, 57, 44
1, 17184, Note_on_c, 8, 73, 105
1, 17184, Note_on_c, 9, 35, 74
1, 17184, Note_on_c, 9, 42, 39
1, 17184, Note_on_c, 9, 59, 39
1, 17184, Note_on_c, 12, 73, 103
1, 17187, Note_off_c, 9, 35, 0
1, 17187, Note_off_c, 9, 42, 0
1, 17187, Note_off_c, 9, 59, 0
1, 17206, Note_off_c, 8, 73, 0
1, 17206, Note_off_c, 12, 73, 0
1, 17208, Note_on_c, 8, 66, 49
1, 17208, Note_on_c, 9, 42, 29
1, 17208, Note_on_c, 12, 66, 89
1, 17211, Note_off_c, 9, 42, 0
1, 17213, Note_off_c, 11, 61, 0
1, 17225, Note_off_c, 3, 57, 0
1, 17230, Note_off_c, 2, 64, 0
1, 17230, Note_off_c, 2, 69, 0
1, 17230, Note_off_c, 2, 73, 0
1, 17230, Note_off_c, 4, 57, 0
1, 17230, Note_off_c, 8, 66, 0
1, 17230, Note_off_c, 12, 66, 0
1, 17232, Note_on_c, 2, 62, 78
1, 17232, Note_on_c, 2, 71, 78
1, 17232, Note_on_c, 3, 59, 81
1, 17232, Note_on_c, 4, 64, 44
1, 17232, Note_on_c, 4, 69, 44
1, 17232, Note_on_c, 4, 73, 44
1, 17232, Note_on_c, 8, 71, 59
1, 17232, Note_on_c, 9, 37, 83
1, 17232, Note_on_c, 9, 42, 79
1, 17232, Note_on_c, 11, 62, 80
1, 17232, Note_on_c, 12, 71, 91
1, 17235, Note_off_c, 9, 37, 0
1, 17235, Note_off_c, 9, 42, 0
1, 17248, Note_off_c, 8, 71, 0
1, 17248, Note_off_c, 12, 71, 0
1, 17254, Note_off_c, 1, 33, 0
1, 17254, Note_off_c, 2, 62, 0
1, 17254, Note_off_c, 2, 71, 0
1, 17278, Note_off_c, 4, 64, 0
1, 17278, Note_off_c, 4, 69, 0
1, 17278, Note_off_c, 4, 73, 0
1, 17280, Note_on_c, 1, 35, 74
1, 17280, Note_on_c, 2, 64, 98
1, 17280, Note_on_c, 2, 69, 98
1, 17280, Note_on_c, 2, 73, 98
1, 17280, Note_on_c, 4, 59, 44
1, 17280, Note_on_c, 9, 42, 39
1, 17283, Note_off_c, 9, 42, 0
1, 17291, Note_off_c, 2, 64, 0
1, 17291, Note_off_c, 2, 69, 0
1, 17291, Note_off_c, 2, 73, 0
1, 17304, Note_on_c, 2, 62, 78
1, 17304, Note_on_c, 2, 71, 78
1, 17304, Note_on_c, 8, 73, 105
1, 17304, Note_on_c, 9, 42, 29
1, 17304, Note_on_c, 12, 73, 103
1, 17307, Note_off_c, 9, 42, 0
1, 17320, Note_off_c, 8, 73, 0
1, 17320, Note_off_c, 12, 73, 0
1, 17326, Note_off_c, 4, 59, 0
1, 17326, Note_off_c, 2, 62, 0
1, 17326, Note_off_c, 2, 71, 0
1, 17328, Note_on_c, 2, 64, 125
1, 17328, Note_on_c, 2, 69, 125
1, 17328, Note_on_c, 2, 73, 125
1, 17328, Note_on_c, 4, 66, 44
1, 17328, Note_on_c, 4, 71, 44
1, 17328, Note_on_c, 4, 74, 44
1, 17328, Note_on_c, 9, 42, 79
1, 17331, Note_off_c, 9, 42, 0
1, 17350, Note_off_c, 1, 35, 0
1, 17352, Note_on_c, 8, 73, 105
1, 17352, Note_on_c, 12, 73, 103
1, 17365, Note_off_c, 8, 73, 0
1, 17365, Note_off_c, 12, 73, 0
1, 17374, Note_off_c, 4, 66, 0
1, 17374, Note_off_c, 4, 71, 0
1, 17374, Note_off_c, 4, 74, 0
1, 17376, Note_on_c, 1, 35, 74
1, 17376, Note_on_c, 9, 35, 74
1, 17376, Note_on_c, 9, 42, 39
1, 17376, Note_on_c, 9, 56, 49
1, 17379, Note_off_c, 9, 35, 0
1, 17379, Note_off_c, 9, 42, 0
1, 17379, Note_off_c, 9, 56, 0
1, 17400, Note_on_c, 8, 71, 49
1, 17400, Note_on_c, 9, 42, 29
1, 17400, Note_on_c, 12, 71, 89
1, 17403, Note_off_c, 9, 42, 0
1, 17408, Note_on_c, 9, 56, 49
1, 17411, Note_off_c, 9, 56, 0
1, 17416, Note_off_c, 8, 71, 0
1, 17416, Note_off_c, 12, 71, 0
1, 17422, Note_off_c, 2, 64, 0
1, 17422, Note_off_c, 2, 69, 0
1, 17422, Note_off_c, 2, 73, 0
1, 17424, Note_on_c, 2, 62, 78
1, 17424, Note_on_c, 2, 71, 78
1, 17424, Note_on_c, 4, 66, 44
1, 17424, Note_on_c, 4, 71, 44
1, 17424, Note_on_c, 4, 74, 44
1, 17424, Note_on_c, 9, 42, 79
1, 17424, Note_on_c, 9, 59, 39
1, 17427, Note_off_c, 9, 42, 0
1, 17427, Note_off_c, 9, 59, 0
1, 17440, Note_on_c, 9, 56, 49
1, 17443, Note_off_c, 9, 56, 0
1, 17446, Note_off_c, 1, 35, 0
1, 17446, Note_off_c, 2, 62, 0
1, 17446, Note_off_c, 2, 71, 0
1, 17448, Note_on_c, 1, 30, 74
1, 17448, Note_on_c, 8, 73, 105
1, 17448, Note_on_c, 12, 73, 103
1, 17464, Note_off_c, 8, 73, 0
1, 17464, Note_off_c, 12, 73, 0
1, 17470, Note_off_c, 4, 66, 0
1, 17470, Note_off_c, 4, 71, 0
1, 17470, Note_off_c, 4, 74, 0
1, 17470, Note_off_c, 1, 30, 0
1, 17472, Note_on_c, 1, 35, 74
1, 17472, Note_on_c, 2, 64, 125
1, 17472, Note_on_c, 2, 69, 125
1, 17472, Note_on_c, 2, 73, 125
1, 17472, Note_on_c, 4, 59, 44
1, 17472, Note_on_c, 9, 42, 39
1, 17472, Note_on_c, 9, 56, 49
1, 17475, Note_off_c, 9, 42, 0
1, 17475, Note_off_c, 9, 56, 0
1, 17480, Note_off_c, 3, 59, 0
1, 17481, Note_off_c, 11, 62, 0
1, 17483, Note_off_c, 2, 64, 0
1, 17483, Note_off_c, 2, 69, 0
1, 17483, Note_off_c, 2, 73, 0
1, 17484, Note_on_c, 9, 42, 39
1, 17487, Note_off_c, 9, 42, 0
1, 17494, Note_off_c, 1, 35, 0
1, 17496, Note_on_c, 8, 71, 49
1, 17496, Note_on_c, 9, 42, 29
1, 17496, Note_on_c, 12, 71, 89
1, 17499, Note_off_c, 9, 42, 0
1, 17512, Note_off_c, 8, 71, 0
1, 17512, Note_off_c, 12, 71, 0
1, 17518, Note_off_c, 4, 59, 0
1, 17520, Note_on_c, 1, 37, 74
1, 17520, Note_on_c, 2, 62, 78
1, 17520, Note_on_c, 2, 71, 78
1, 17520, Note_on_c, 4, 66, 44
1, 17520, Note_on_c, 4, 71, 44
1, 17520, Note_on_c, 4, 74, 44
1, 17520, Note_on_c, 8, 73, 105
1, 17520, Note_on_c, 9, 42, 79
1, 17520, Note_on_c, 12, 73, 103
1, 17523, Note_off_c, 9, 42, 0
1, 17542, Note_off_c, 1, 37, 0
1, 17542, Note_off_c, 2, 62, 0
1, 17542, Note_off_c, 2, 71, 0
1, 17544, Note_on_c, 2, 64, 125
1, 17544, Note_on_c, 2, 69, 125
1, 17544, Note_on_c, 2, 73, 125
1, 17566, Note_off_c, 4, 66, 0
1, 17566, Note_off_c, 4, 71, 0
1, 17566, Note_off_c, 4, 74, 0
1, 17566, Note_off_c, 8, 73, 0
1, 17566, Note_off_c, 12, 73, 0
1, 17568, Note_on_c, 1, 38, 74
1, 17568, Note_on_c, 4, 57, 44
1, 17568, Note_on_c, 8, 71, 49
1, 17568, Note_on_c, 9, 35, 74
1, 17568, Note_on_c, 9, 42, 39
1, 17568, Note_on_c, 9, 54, 39
1, 17568, Note_on_c, 11, 66, 87
1, 17568, Note_on_c, 11, 69, 87
1, 17568, Note_on_c, 12, 71, 89
1, 17571, Note_off_c, 9, 35, 0
1, 17571, Note_off_c, 9, 42, 0
1, 17571, Note_off_c, 9, 54, 0
1, 17590, Note_off_c, 1, 38, 0
1, 17592, Note_on_c, 9, 42, 29
1, 17595, Note_off_c, 9, 42, 0
1, 17614, Note_off_c, 2, 64, 0
1, 17614, Note_off_c, 2, 69, 0
1, 17614, Note_off_c, 2, 73, 0
1, 17614, Note_off_c, 4, 57, 0
1, 17614, Note_off_c, 8, 71, 0
1, 17614, Note_off_c, 12, 71, 0
1, 17616, Note_on_c, 1, 33, 67
1, 17616, Note_on_c, 2, 62, 78
1, 17616, Note_on_c, 2, 71, 78
1, 17616, Note_on_c, 4, 64, 44
1, 17616, Note_on_c, 4, 69, 44
1, 17616, Note_on_c, 4, 73, 44
1, 17616, Note_on_c, 8, 73, 105
1, 17616, Note_on_c, 9, 46, 59
1, 17616, Note_on_c, 9, 55, 59
1, 17616, Note_on_c, 12, 73, 103
1, 17619, Note_off_c, 9, 46, 0
1, 17619, Note_off_c, 9, 55, 0
1, 17638, Note_off_c, 2, 62, 0
1, 17638, Note_off_c, 2, 71, 0
1, 17660, Note_off_c, 11, 66, 0
1, 17660, Note_off_c, 11, 69, 0
1, 17662, Note_off_c, 1, 33, 0
1, 17662, Note_off_c, 4, 64, 0
1, 17662, Note_off_c, 4, 69, 0
1, 17662, Note_off_c, 4, 73, 0
1, 17662, Note_off_c, 8, 73, 0
1, 17662, Note_off_c, 12, 73, 0
1, 17664, Note_on_c, 1, 28, 74
1, 17664, Note_on_c, 4, 52, 44
1, 17664, Note_on_c, 8, 66, 105
1, 17664, Note_on_c, 9, 42, 39
1, 17664, Note_on_c, 11, 62, 80
1, 17664, Note_on_c, 11, 66, 80
1, 17664, Note_on_c, 12, 66, 103
1, 17667, Note_off_c, 9, 42, 0
1, 17710, Note_off_c, 4, 52, 0
1, 17712, Note_on_c, 4, 62, 44
1, 17712, Note_on_c, 4, 67, 44
1, 17712, Note_on_c, 4, 71, 44
1, 17712, Note_on_c, 9, 42, 79
1, 17713, Note_off_c, 11, 62, 0
1, 17713, Note_off_c, 11, 66, 0
1, 17715, Note_off_c, 9, 42, 0
1, 17734, Note_off_c, 1, 28, 0
1, 17758, Note_off_c, 4, 62, 0
1, 17758, Note_off_c, 4, 67, 0
1, 17758, Note_off_c, 4, 71, 0
1, 17760, Note_on_c, 1, 28, 74
1, 17760, Note_on_c, 2, 64, 125
1, 17760, Note_on_c, 2, 69, 125
1, 17760, Note_on_c, 2, 73, 125
1, 17760, Note_on_c, 3, 62, 78
1, 17760, Note_on_c, 9, 35, 74
1, 17760, Note_on_c, 9, 42, 39
1, 17760, Note_on_c, 11, 66, 84
1, 17763, Note_off_c, 9, 35, 0
1, 17763, Note_off_c, 9, 42, 0
1, 17784, Note_on_c, 9, 42, 29
1, 17785, Note_off_c, 3, 62, 0
1, 17787, Note_off_c, 9, 42, 0
1, 17788, Note_off_c, 11, 66, 0
1, 17806, Note_off_c, 2, 64, 0
1, 17806, Note_off_c, 2, 69, 0
1, 17806, Note_off_c, 2, 73, 0
1, 17808, Note_on_c, 2, 62, 78
1, 17808, Note_on_c, 2, 71, 78
1, 17808, Note_on_c, 3, 62, 68
1, 17808, Note_on_c, 4, 62, 44
1, 17808, Note_on_c, 4, 67, 44
1, 17808, Note_on_c, 4, 71, 44
1, 17808, Note_on_c, 9, 37, 83
1, 17808, Note_on_c, 9, 42, 79
1, 17808, Note_on_c, 9, 59, 39
1, 17808, Note_on_c, 11, 66, 79
1, 17811, Note_off_c, 9, 37, 0
1, 17811, Note_off_c, 9, 42, 0
1, 17811, Note_off_c, 9, 59, 0
1, 17815, Note_off_c, 3, 62, 0
1, 17819, Note_off_c, 11, 66, 0
1, 17832, Note_on_c, 3, 62, 80
1, 17832, Note_on_c, 11, 66, 82
1, 17854, Note_off_c, 8, 66, 0
1, 17854, Note_off_c, 12, 66, 0
1, 17854, Note_off_c, 1, 28, 0
1, 17854, Note_off_c, 2, 62, 0
1, 17854, Note_off_c, 2, 71, 0
1, 17854, Note_off_c, 4, 62, 0
1, 17854, Note_off_c, 4, 67, 0
1, 17854, Note_off_c, 4, 71, 0
1, 17856, Note_on_c, 1, 33, 74
1, 17856, Note_on_c, 2, 64, 125
1, 17856, Note_on_c, 2, 69, 125
1, 17856, Note_on_c, 2, 73, 125
1, 17856, Note_on_c, 4, 57, 44
1, 17856, Note_on_c, 9, 42, 39
1, 17859, Note_off_c, 9, 42, 0
1, 17878, Note_off_c, 3, 62, 0
1, 17878, Note_off_c, 2, 64, 0
1, 17878, Note_off_c, 2, 69, 0
1, 17878, Note_off_c, 2, 73, 0
1, 17880, Note_off_c, 11, 66, 0
1, 17880, Note_on_c, 3, 61, 76
1, 17880, Note_on_c, 9, 42, 29
1, 17880, Note_on_c, 11, 64, 79
1, 17883, Note_off_c, 9, 42, 0
1, 17902, Note_off_c, 4, 57, 0
1, 17902, Note_off_c, 3, 61, 0
1, 17903, Note_off_c, 11, 64, 0
1, 17904, Note_on_c, 2, 62, 78
1, 17904, Note_on_c, 2, 71, 78
1, 17904, Note_on_c, 3, 59, 72
1, 17904, Note_on_c, 4, 64, 44
1, 17904, Note_on_c, 4, 69, 44
1, 17904, Note_on_c, 4, 73, 44
1, 17904, Note_on_c, 9, 42, 79
1, 17904, Note_on_c, 11, 62, 76
1, 17907, Note_off_c, 9, 42, 0
1, 17926, Note_off_c, 1, 33, 0
1, 17926, Note_off_c, 2, 62, 0
1, 17926, Note_off_c, 2, 71, 0
1, 17928, Note_on_c, 2, 64, 125
1, 17928, Note_on_c, 2, 69, 125
1, 17928, Note_on_c, 2, 73, 125
1, 17931, Note_off_c, 3, 59, 0
1, 17944, Note_off_c, 11, 62, 0
1, 17950, Note_off_c, 4, 64, 0
1, 17950, Note_off_c, 4, 69, 0
1, 17950, Note_off_c, 4, 73, 0
1, 17952, Note_on_c, 1, 33, 74
1, 17952, Note_on_c, 4, 57, 44
1, 17952, Note_on_c, 9, 35, 74
1, 17952, Note_on_c, 9, 42, 39
1, 17955, Note_off_c, 9, 35, 0
1, 17955, Note_off_c, 9, 42, 0
1, 17976, Note_on_c, 9, 42, 29
1, 17979, Note_off_c, 9, 42, 0
1, 17998, Note_off_c, 2, 64, 0
1, 17998, Note_off_c, 2, 69, 0
1, 17998, Note_off_c, 2, 73, 0
1, 17998, Note_off_c, 4, 57, 0
1, 18000, Note_on_c, 2, 62, 78
1, 18000, Note_on_c, 2, 71, 78
1, 18000, Note_on_c, 4, 64, 44
1, 18000, Note_on_c, 4, 69, 44
1, 18000, Note_on_c, 4, 73, 44
1, 18000, Note_on_c, 9, 37, 83
1, 18000, Note_on_c, 9, 42, 79
1, 18003, Note_off_c, 9, 37, 0
1, 18003, Note_off_c, 9, 42, 0
1, 18022, Note_off_c, 1, 33, 0
1, 18022, Note_off_c, 2, 62, 0
1, 18022, Note_off_c, 2, 71, 0
1, 18046, Note_off_c, 4, 64, 0
1, 18046, Note_off_c, 4, 69, 0
1, 18046, Note_off_c, 4, 73, 0
1, 18048, Note_on_c, 1, 35, 74
1, 18048, Note_on_c, 2, 64, 98
1, 18048, Note_on_c, 2, 69, 98
1, 18048, Note_on_c, 2, 73, 98
1, 18048, Note_on_c, 3, 61, 83
1, 18048, Note_on_c, 4, 59, 44
1, 18048, Note_on_c, 9, 42, 39
1, 18048, Note_on_c, 11, 64, 81
1, 18051, Note_off_c, 9, 42, 0
1, 18059, Note_off_c, 2, 64, 0
1, 18059, Note_off_c, 2, 69, 0
1, 18059, Note_off_c, 2, 73, 0
1, 18072, Note_off_c, 3, 61, 0
1, 18072, Note_on_c, 2, 62, 78
1, 18072, Note_on_c, 2, 71, 78
1, 18072, Note_on_c, 9, 42, 29
1, 18075, Note_off_c, 11, 64, 0
1, 18075, Note_off_c, 9, 42, 0
1, 18094, Note_off_c, 4, 59, 0
1, 18094, Note_off_c, 2, 62, 0
1, 18094, Note_off_c, 2, 71, 0
1, 18096, Note_on_c, 2, 64, 125
1, 18096, Note_on_c, 2, 69, 125
1, 18096, Note_on_c, 2, 73, 125
1, 18096, Note_on_c, 3, 61, 69
1, 18096, Note_on_c, 4, 66, 44
1, 18096, Note_on_c, 4, 71, 44
1, 18096, Note_on_c, 4, 74, 44
1, 18096, Note_on_c, 9, 42, 79
1, 18096, Note_on_c, 11, 64, 77
1, 18099, Note_off_c, 9, 42, 0
1, 18115, Note_off_c, 11, 64, 0
1, 18118, Note_off_c, 1, 35, 0
1, 18118, Note_off_c, 3, 61, 0
1, 18120, Note_on_c, 3, 64, 71
1, 18120, Note_on_c, 11, 67, 69
1, 18142, Note_off_c, 4, 66, 0
1, 18142, Note_off_c, 4, 71, 0
1, 18142, Note_off_c, 4, 74, 0
1, 18144, Note_on_c, 1, 35, 74
1, 18144, Note_on_c, 8, 73, 105
1, 18144, Note_on_c, 9, 35, 74
1, 18144, Note_on_c, 9, 37, 83
1, 18144, Note_on_c, 9, 42, 39
1, 18144, Note_on_c, 9, 59, 39
1, 18144, Note_on_c, 12, 73, 103
1, 18147, Note_off_c, 3, 64, 0
1, 18147, Note_off_c, 9, 35, 0
1, 18147, Note_off_c, 9, 37, 0
1, 18147, Note_off_c, 9, 42, 0
1, 18147, Note_off_c, 9, 59, 0
1, 18149, Note_off_c, 11, 67, 0
1, 18160, Note_off_c, 8, 73, 0
1, 18160, Note_off_c, 12, 73, 0
1, 18168, Note_on_c, 3, 64, 72
1, 18168, Note_on_c, 9, 42, 29
1, 18168, Note_on_c, 11, 67, 81
1, 18171, Note_off_c, 9, 42, 0
1, 18190, Note_off_c, 2, 64, 0
1, 18190, Note_off_c, 2, 69, 0
1, 18190, Note_off_c, 2, 73, 0
1, 18192, Note_on_c, 2, 62, 78
1, 18192, Note_on_c, 2, 71, 78
1, 18192, Note_on_c, 4, 66, 44
1, 18192, Note_on_c, 4, 71, 44
1, 18192, Note_on_c, 4, 74, 44
1, 18192, Note_on_c, 8, 71, 59
1, 18192, Note_on_c, 9, 42, 79
1, 18192, Note_on_c, 12, 71, 91
1, 18195, Note_off_c, 3, 64, 0
1, 18195, Note_off_c, 11, 67, 0
1, 18195, Note_off_c, 9, 42, 0
1, 18208, Note_off_c, 8, 71, 0
1, 18208, Note_off_c, 12, 71, 0
1, 18214, Note_off_c, 1, 35, 0
1, 18214, Note_off_c, 2, 62, 0
1, 18214, Note_off_c, 2, 71, 0
1, 18216, Note_on_c, 3, 62, 77
1, 18216, Note_on_c, 9, 37, 83
1, 18216, Note_on_c, 11, 66, 85
1, 18219, Note_off_c, 9, 37, 0
1, 18238, Note_off_c, 4, 66, 0
1, 18238, Note_off_c, 4, 71, 0
1, 18238, Note_off_c, 4, 74, 0
1, 18240, Note_on_c, 1, 35, 74
1, 18240, Note_on_c, 2, 64, 125
1, 18240, Note_on_c, 2, 69, 125
1, 18240, Note_on_c, 2, 73, 125
1, 18240, Note_on_c, 4, 59, 44
1, 18240, Note_on_c, 8, 73, 105
1, 18240, Note_on_c, 9, 42, 39
1, 18240, Note_on_c, 12, 73, 103
1, 18243, Note_off_c, 9, 42, 0
1, 18251, Note_off_c, 2, 64, 0
1, 18251, Note_off_c, 2, 69, 0
1, 18251, Note_off_c, 2, 73, 0
1, 18255, Note_off_c, 11, 66, 0
1, 18256, Note_off_c, 8, 73, 0
1, 18256, Note_off_c, 12, 73, 0
1, 18257, Note_off_c, 3, 62, 0
1, 18264, Note_on_c, 3, 61, 72
1, 18264, Note_on_c, 9, 42, 29
1, 18264, Note_on_c, 11, 64, 77
1, 18267, Note_off_c, 9, 42, 0
1, 18281, Note_off_c, 11, 64, 0
1, 18282, Note_off_c, 3, 61, 0
1, 18286, Note_off_c, 1, 35, 0
1, 18286, Note_off_c, 4, 59, 0
1, 18288, Note_on_c, 1, 37, 74
1, 18288, Note_on_c, 2, 62, 78
1, 18288, Note_on_c, 2, 71, 78
1, 18288, Note_on_c, 3, 59, 72
1, 18288, Note_on_c, 4, 66, 44
1, 18288, Note_on_c, 4, 71, 44
1, 18288, Note_on_c, 4, 74, 44
1, 18288, Note_on_c, 8, 71, 59
1, 18288, Note_on_c, 9, 37, 83
1, 18288, Note_on_c, 9, 42, 79
1, 18288, Note_on_c, 11, 62, 79
1, 18288, Note_on_c, 12, 71, 91
1, 18291, Note_off_c, 9, 37, 0
1, 18291, Note_off_c, 9, 42, 0
1, 18304, Note_off_c, 8, 71, 0
1, 18304, Note_off_c, 12, 71, 0
1, 18310, Note_off_c, 1, 37, 0
1, 18310, Note_off_c, 2, 62, 0
1, 18310, Note_off_c, 2, 71, 0
1, 18312, Note_on_c, 2, 64, 125
1, 18312, Note_on_c, 2, 69, 125
1, 18312, Note_on_c, 2, 73, 125
1, 18312, Note_on_c, 8, 73, 105
1, 18312, Note_on_c, 9, 42, 79
1, 18312, Note_on_c, 12, 73, 103
1, 18313, Note_off_c, 11, 62, 0
1, 18314, Note_off_c, 3, 59, 0
1, 18315, Note_off_c, 9, 42, 0
1, 18328, Note_off_c, 8, 73, 0
1, 18328, Note_off_c, 12, 73, 0
1, 18334, Note_off_c, 4, 66, 0
1, 18334, Note_off_c, 4, 71, 0
1, 18334, Note_off_c, 4, 74, 0
1, 18336, Note_on_c, 1, 38, 74
1, 18336, Note_on_c, 3, 59, 76
1, 18336, Note_on_c, 4, 57, 44
1, 18336, Note_on_c, 9, 35, 74
1, 18336, Note_on_c, 9, 42, 39
1, 18336, Note_on_c, 11, 62, 78
1, 18339, Note_off_c, 9, 35, 0
1, 18339, Note_off_c, 9, 42, 0
1, 18358, Note_off_c, 1, 38, 0
1, 18360, Note_on_c, 8, 66, 49
1, 18360, Note_on_c, 9, 42, 29
1, 18360, Note_on_c, 12, 66, 89
1, 18363, Note_off_c, 9, 42, 0
1, 18365, Note_off_c, 3, 59, 0
1, 18376, Note_off_c, 8, 66, 0
1, 18376, Note_off_c, 12, 66, 0
1, 18378, Note_off_c, 11, 62, 0
1, 18382, Note_off_c, 2, 64, 0
1, 18382, Note_off_c, 2, 69, 0
1, 18382, Note_off_c, 2, 73, 0
1, 18382, Note_off_c, 4, 57, 0
1, 18384, Note_on_c, 1, 33, 67
1, 18384, Note_on_c, 2, 62, 78
1, 18384, Note_on_c, 2, 71, 78
1, 18384, Note_on_c, 3, 61, 75
1, 18384, Note_on_c, 4, 64, 44
1, 18384, Note_on_c, 4, 69, 44
1, 18384, Note_on_c, 4, 73, 44
1, 18384, Note_on_c, 8, 71, 59
1, 18384, Note_on_c, 9, 37, 83
1, 18384, Note_on_c, 9, 46, 59
1, 18384, Note_on_c, 11, 64, 79
1, 18384, Note_on_c, 12, 71, 91
1, 18387, Note_off_c, 9, 37, 0
1, 18387, Note_off_c, 9, 46, 0
1, 18406, Note_off_c, 2, 62, 0
1, 18406, Note_off_c, 2, 71, 0
1, 18406, Note_off_c, 3, 61, 0
1, 18406, Note_off_c, 8, 71, 0
1, 18406, Note_off_c, 12, 71, 0
1, 18408, Note_on_c, 8, 73, 105
1, 18408, Note_on_c, 12, 73, 103
1, 18424, Note_off_c, 11, 64, 0
1, 18424, Note_off_c, 8, 73, 0
1, 18424, Note_off_c, 12, 73, 0
1, 18430, Note_off_c, 1, 33, 0
1, 18430, Note_off_c, 4, 64, 0
1, 18430, Note_off_c, 4, 69, 0
1, 18430, Note_off_c, 4, 73, 0
1, 18432, Note_on_c, 1, 28, 74
1, 18432, Note_on_c, 3, 62, 80
1, 18432, Note_on_c, 4, 52, 44
1, 18432, Note_on_c, 8, 66, 59
1, 18432, Note_on_c, 9, 42, 39
1, 18432, Note_on_c, 11, 66, 86
1, 18432, Note_on_c, 12, 66, 91
1, 18435, Note_off_c, 9, 42, 0
1, 18454, Note_off_c, 8, 66, 0
1, 18454, Note_off_c, 12, 66, 0
1, 18456, Note_on_c, 9, 42, 29
1, 18459, Note_off_c, 9, 42, 0
1, 18464, Note_on_c, 8, 73, 69
1, 18464, Note_on_c, 12, 73, 94
1, 18478, Note_off_c, 4, 52, 0
1, 18480, Note_on_c, 4, 62, 44
1, 18480, Note_on_c, 4, 67, 44
1, 18480, Note_on_c, 4, 71, 44
1, 18480, Note_on_c, 9, 42, 79
1, 18483, Note_off_c, 9, 42, 0
1, 18486, Note_off_c, 8, 73, 0
1, 18486, Note_off_c, 12, 73, 0
1, 18490, Note_off_c, 3, 62, 0
1, 18490, Note_off_c, 11, 66, 0
1, 18496, Note_on_c, 8, 74, 79
1, 18496, Note_on_c, 12, 74, 96
1, 18502, Note_off_c, 1, 28, 0
1, 18504, Note_on_c, 3, 62, 79
1, 18504, Note_on_c, 11, 66, 85
1, 18518, Note_off_c, 8, 74, 0
1, 18518, Note_off_c, 12, 74, 0
1, 18526, Note_off_c, 4, 62, 0
1, 18526, Note_off_c, 4, 67, 0
1, 18526, Note_off_c, 4, 71, 0
1, 18528, Note_on_c, 1, 28, 74
1, 18528, Note_on_c, 2, 64, 125
1, 18528, Note_on_c, 2, 69, 125
1, 18528, Note_on_c, 2, 73, 125
1, 18528, Note_on_c, 8, 76, 89
1, 18528, Note_on_c, 9, 35, 74
1, 18528, Note_on_c, 9, 42, 39
1, 18528, Note_on_c, 12, 76, 99
1, 18531, Note_off_c, 9, 35, 0
1, 18531, Note_off_c, 9, 42, 0
1, 18550, Note_off_c, 8, 76, 0
1, 18550, Note_off_c, 12, 76, 0
1, 18554, Note_off_c, 3, 62, 0
1, 18554, Note_off_c, 11, 66, 0
1, 18560, Note_on_c, 8, 78, 99
1, 18560, Note_on_c, 12, 78, 101
1, 18574, Note_off_c, 2, 64, 0
1, 18574, Note_off_c, 2, 69, 0
1, 18574, Note_off_c, 2, 73, 0
1, 18576, Note_on_c, 2, 62, 78
1, 18576, Note_on_c, 2, 71, 78
1, 18576, Note_on_c, 3, 62, 79
1, 18576, Note_on_c, 4, 62, 44
1, 18576, Note_on_c, 4, 67, 44
1, 18576, Note_on_c, 4, 71, 44
1, 18576, Note_on_c, 9, 37, 83
1, 18576, Note_on_c, 9, 42, 79
1, 18576, Note_on_c, 11, 66, 86
1, 18579, Note_off_c, 9, 37, 0
1, 18579, Note_off_c, 9, 42, 0
1, 18582, Note_off_c, 8, 78, 0
1, 18582, Note_off_c, 12, 78, 0
1, 18592, Note_on_c, 8, 76, 79
1, 18592, Note_on_c, 12, 76, 96
1, 18611, Note_off_c, 3, 62, 0
1, 18614, Note_off_c, 8, 76, 0
1, 18614, Note_off_c, 12, 76, 0
1, 18622, Note_off_c, 1, 28, 0
1, 18622, Note_off_c, 2, 62, 0
1, 18622, Note_off_c, 2, 71, 0
1, 18622, Note_off_c, 4, 62, 0
1, 18622, Note_off_c, 4, 67, 0
1, 18622, Note_off_c, 4, 71, 0
1, 18624, Note_on_c, 1, 33, 74
1, 18624, Note_on_c, 2, 64, 125
1, 18624, Note_on_c, 2, 69, 125
1, 18624, Note_on_c, 2, 73, 125
1, 18624, Note_on_c, 3, 61, 78
1, 18624, Note_on_c, 4, 57, 44
1, 18624, Pitch_bend_c, 8, 2817
1, 18624, Note_on_c, 8, 78, 125
1, 18624, Note_on_c, 9, 42, 39
1, 18624, Note_on_c, 11, 64, 82
1, 18624, Pitch_bend_c, 12, 2817
1, 18624, Note_on_c, 12, 78, 108
1, 18627, Note_off_c, 9, 42, 0
1, 18632, Note_off_c, 11, 66, 0
1, 18636, Pitch_bend_c, 8, 5377
1, 18636, Pitch_bend_c, 12, 5377
1, 18646, Note_off_c, 2, 64, 0
1, 18646, Note_off_c, 2, 69, 0
1, 18646, Note_off_c, 2, 73, 0
1, 18648, Pitch_bend_c, 8, 8193
1, 18648, Note_on_c, 9, 42, 29
1, 18648, Pitch_bend_c, 12, 8193
1, 18651, Note_off_c, 9, 42, 0
1, 18670, Note_off_c, 4, 57, 0
1, 18672, Note_on_c, 2, 62, 78
1, 18672, Note_on_c, 2, 71, 78
1, 18672, Note_on_c, 4, 64, 44
1, 18672, Note_on_c, 4, 69, 44
1, 18672, Note_on_c, 4, 73, 44
1, 18672, Note_on_c, 9, 42, 79
1, 18675, Note_off_c, 9, 42, 0
1, 18677, Note_off_c, 11, 64, 0
1, 18690, Note_off_c, 3, 61, 0
1, 18694, Note_off_c, 1, 33, 0
1, 18694, Note_off_c, 8, 78, 0
1, 18694, Note_off_c, 12, 78, 0
1, 18694, Note_off_c, 2, 62, 0
1, 18694, Note_off_c, 2, 71, 0
1, 18696, Note_on_c, 2, 64, 125
1, 18696, Note_on_c, 2, 69, 125
1, 18696, Note_on_c, 2, 73, 125
1, 18696, Note_on_c, 3, 57, 76
1, 18696, Note_on_c, 8, 76, 89
1, 18696, Note_on_c, 11, 61, 78
1, 18696, Note_on_c, 12, 76, 99
1, 18718, Note_off_c, 4, 64, 0
1, 18718, Note_off_c, 4, 69, 0
1, 18718, Note_off_c, 4, 73, 0
1, 18720, Note_on_c, 1, 33, 74
1, 18720, Note_on_c, 4, 57, 44
1, 18720, Note_on_c, 9, 35, 74
1, 18720, Note_on_c, 9, 42, 39
1, 18723, Note_off_c, 9, 35, 0
1, 18723, Note_off_c, 9, 42, 0
1, 18744, Note_on_c, 9, 42, 29
1, 18747, Note_off_c, 9, 42, 0
1, 18751, Note_off_c, 11, 61, 0
1, 18756, Note_off_c, 3, 57, 0
1, 18766, Note_off_c, 2, 64, 0
1, 18766, Note_off_c, 2, 69, 0
1, 18766, Note_off_c, 2, 73, 0
1, 18766, Note_off_c, 8, 76, 0
1, 18766, Note_off_c, 12, 76, 0
1, 18766, Note_off_c, 4, 57, 0
1, 18768, Note_on_c, 2, 62, 78
1, 18768, Note_on_c, 2, 71, 78
1, 18768, Note_on_c, 3, 59, 79
1, 18768, Note_on_c, 4, 64, 44
1, 18768, Note_on_c, 4, 69, 44
1, 18768, Note_on_c, 4, 73, 44
1, 18768, Note_on_c, 9, 37, 83
1, 18768, Note_on_c, 9, 42, 79
1, 18768, Note_on_c, 11, 62, 79
1, 18771, Note_off_c, 9, 37, 0
1, 18771, Note_off_c, 9, 42, 0
1, 18790, Note_off_c, 1, 33, 0
1, 18790, Note_off_c, 2, 62, 0
1, 18790, Note_off_c, 2, 71, 0
1, 18814, Note_off_c, 4, 64, 0
1, 18814, Note_off_c, 4, 69, 0
1, 18814, Note_off_c, 4, 73, 0
1, 18816, Note_on_c, 1, 35, 74
1, 18816, Note_on_c, 2, 64, 98
1, 18816, Note_on_c, 2, 69, 98
1, 18816, Note_on_c, 2, 73, 98
1, 18816, Note_on_c, 4, 59, 44
1, 18816, Note_on_c, 9, 42, 39
1, 18819, Note_off_c, 9, 42, 0
1, 18827, Note_off_c, 2, 64, 0
1, 18827, Note_off_c, 2, 69, 0
1, 18827, Note_off_c, 2, 73, 0
1, 18840, Note_on_c, 2, 62, 78
1, 18840, Note_on_c, 2, 71, 78
1, 18840, Note_on_c, 9, 42, 29
1, 18843, Note_off_c, 9, 42, 0
1, 18862, Note_off_c, 4, 59, 0
1, 18862, Note_off_c, 2, 62, 0
1, 18862, Note_off_c, 2, 71, 0
1, 18864, Note_on_c, 2, 64, 125
1, 18864, Note_on_c, 2, 69, 125
1, 18864, Note_on_c, 2, 73, 125
1, 18864, Note_on_c, 4, 66, 44
1, 18864, Note_on_c, 4, 71, 44
1, 18864, Note_on_c, 4, 74, 44
1, 18864, Note_on_c, 9, 42, 79
1, 18867, Note_off_c, 9, 42, 0
1, 18886, Note_off_c, 1, 35, 0
1, 18910, Note_off_c, 4, 66, 0
1, 18910, Note_off_c, 4, 71, 0
1, 18910, Note_off_c, 4, 74, 0
1, 18912, Note_on_c, 1, 35, 74
1, 18912, Note_on_c, 9, 35, 74
1, 18912, Note_on_c, 9, 42, 39
1, 18915, Note_off_c, 9, 35, 0
1, 18915, Note_off_c, 9, 42, 0
1, 18936, Note_on_c, 9, 42, 29
1, 18939, Note_off_c, 9, 42, 0
1, 18958, Note_off_c, 2, 64, 0
1, 18958, Note_off_c, 2, 69, 0
1, 18958, Note_off_c, 2, 73, 0
1, 18960, Note_on_c, 2, 62, 78
1, 18960, Note_on_c, 2, 71, 78
1, 18960, Note_on_c, 4, 66, 44
1, 18960, Note_on_c, 4, 71, 44
1, 18960, Note_on_c, 4, 74, 44
1, 18960, Note_on_c, 9, 42, 79
1, 18963, Note_off_c, 9, 42, 0
1, 18976, Note_on_c, 8, 71, 59
1, 18976, Note_on_c, 12, 71, 91
1, 18982, Note_off_c, 1, 35, 0
1, 18982, Note_off_c, 2, 62, 0
1, 18982, Note_off_c, 2, 71, 0
1, 18984, Note_on_c, 1, 30, 62
1, 18998, Note_off_c, 8, 71, 0
1, 18998, Note_off_c, 12, 71, 0
1, 19006, Note_off_c, 4, 66, 0
1, 19006, Note_off_c, 4, 71, 0
1, 19006, Note_off_c, 4, 74, 0
1, 19006, Note_off_c, 1, 30, 0
1, 19008, Control_c, 8, 11, 90
1, 19008, Control_c, 12, 11, 90
1, 19008, Note_on_c, 1, 35, 74
1, 19008, Note_on_c, 2, 64, 125
1, 19008, Note_on_c, 2, 69, 125
1, 19008, Note_on_c, 2, 73, 125
1, 19008, Note_on_c, 4, 59, 44
1, 19008, Note_on_c, 8, 73, 69
1, 19008, Note_on_c, 9, 37, 83
1, 19008, Note_on_c, 9, 42, 39
1, 19008, Note_on_c, 12, 73, 94
1, 19011, Note_off_c, 9, 37, 0
1, 19011, Note_off_c, 9, 42, 0
1, 19016, Note_off_c, 3, 59, 0
1, 19019, Note_off_c, 2, 64, 0
1, 19019, Note_off_c, 2, 69, 0
1, 19019, Note_off_c, 2, 73, 0
1, 19030, Note_off_c, 8, 73, 0
1, 19030, Note_off_c, 12, 73, 0
1, 19032, Note_on_c, 9, 42, 29
1, 19035, Note_off_c, 9, 42, 0
1, 19040, Note_on_c, 8, 74, 79
1, 19040, Note_on_c, 12, 74, 96
1, 19054, Note_off_c, 1, 35, 0
1, 19054, Note_off_c, 4, 59, 0
1, 19056, Note_on_c, 2, 62, 78
1, 19056, Note_on_c, 2, 71, 78
1, 19056, Note_on_c, 4, 66, 44
1, 19056, Note_on_c, 4, 71, 44
1, 19056, Note_on_c, 4, 74, 44
1, 19056, Note_on_c, 9, 42, 79
1, 19059, Note_off_c, 9, 42, 0
1, 19062, Note_off_c, 8, 74, 0
1, 19062, Note_off_c, 12, 74, 0
1, 19063, Note_off_c, 11, 62, 0
1, 19072, Note_on_c, 8, 76, 89
1, 19072, Note_on_c, 12, 76, 99
1, 19078, Note_off_c, 2, 62, 0
1, 19078, Note_off_c, 2, 71, 0
1, 19080, Note_on_c, 2, 64, 125
1, 19080, Note_on_c, 2, 69, 125
1, 19080, Note_on_c, 2, 73, 125
1, 19094, Note_off_c, 8, 76, 0
1, 19094, Note_off_c, 12, 76, 0
1, 19102, Note_off_c, 4, 66, 0
1, 19102, Note_off_c, 4, 71, 0
1, 19102, Note_off_c, 4, 74, 0
1, 19104, Note_on_c, 1, 37, 74
1, 19104, Note_on_c, 4, 57, 44
1, 19104, Note_on_c, 8, 78, 99
1, 19104, Note_on_c, 9, 35, 74
1, 19104, Note_on_c, 9, 42, 39
1, 19104, Note_on_c, 9, 54, 39
1, 19104, Note_on_c, 12, 78, 101
1, 19107, Note_off_c, 9, 35, 0
1, 19107, Note_off_c, 9, 42, 0
1, 19107, Note_off_c, 9, 54, 0
1, 19126, Note_off_c, 8, 78, 0
1, 19126, Note_off_c, 12, 78, 0
1, 19128, Note_on_c, 9, 42, 29
1, 19131, Note_off_c, 9, 42, 0
1, 19141, Note_on_c, 8, 79, 109
1, 19141, Note_on_c, 12, 79, 104
1, 19150, Note_off_c, 2, 64, 0
1, 19150, Note_off_c, 2, 69, 0
1, 19150, Note_off_c, 2, 73, 0
1, 19150, Note_off_c, 4, 57, 0
1, 19152, Note_on_c, 2, 62, 78
1, 19152, Note_on_c, 2, 71, 78
1, 19152, Note_on_c, 4, 64, 44
1, 19152, Note_on_c, 4, 69, 44
1, 19152, Note_on_c, 4, 73, 44
1, 19152, Note_on_c, 9, 46, 59
1, 19155, Note_off_c, 9, 46, 0
1, 19163, Note_off_c, 8, 79, 0
1, 19163, Note_off_c, 12, 79, 0
1, 19174, Note_off_c, 2, 62, 0
1, 19174, Note_off_c, 2, 71, 0
1, 19178, Pitch_bend_c, 8, 2177
1, 19178, Note_on_c, 8, 83, 125
1, 19178, Pitch_bend_c, 12, 2177
1, 19178, Note_on_c, 12, 83, 108
1, 19188, Pitch_bend_c, 8, 8193
1, 19188, Pitch_bend_c, 12, 8193
1, 19198, Note_off_c, 1, 37, 0
1, 19198, Note_off_c, 4, 64, 0
1, 19198, Note_off_c, 4, 69, 0
1, 19198, Note_off_c, 4, 73, 0
1, 19200, Note_on_c, 1, 38, 74
1, 19200, Note_on_c, 2, 66, 126
1, 19200, Note_on_c, 2, 69, 126
1, 19200, Note_on_c, 2, 74, 126
1, 19200, Note_on_c, 3, 66, 76
1, 19200, Note_on_c, 5, 66, 64
1, 19200, Note_on_c, 5, 74, 64
1, 19200, Note_on_c, 6, 66, 54
1, 19200, Note_on_c, 6, 74, 54
1, 19200, Note_on_c, 9, 42, 29
1, 19200, Note_on_c, 11, 57, 80
1, 19203, Note_off_c, 9, 42, 0
1, 19208, Note_off_c, 8, 83, 0
1, 19208, Note_off_c, 12, 83, 0
1, 19217, Note_off_c, 11, 57, 0
1, 19218, Note_off_c, 3, 66, 0
1, 19222, Note_off_c, 5, 66, 0
1, 19222, Note_off_c, 5, 74, 0
1, 19222, Note_off_c, 6, 66, 0
1, 19222, Note_off_c, 6, 74, 0
1, 19224, Note_on_c, 3, 66, 76
1, 19224, Note_on_c, 5, 62, 50
1, 19224, Note_on_c, 5, 69, 50
1, 19224, Note_on_c, 6, 62, 40
1, 19224, Note_on_c, 6, 69, 40
1, 19224, Note_on_c, 8, 81, 125
1, 19224, Note_on_c, 11, 57, 77
1, 19224, Note_on_c, 12, 81, 108
1, 19242, Note_off_c, 3, 66, 0
1, 19244, Note_off_c, 11, 57, 0
1, 19246, Note_off_c, 5, 62, 0
1, 19246, Note_off_c, 5, 69, 0
1, 19246, Note_off_c, 6, 62, 0
1, 19246, Note_off_c, 6, 69, 0
1, 19248, Note_on_c, 4, 62, 44
1, 19248, Note_on_c, 4, 66, 44
1, 19248, Note_on_c, 4, 69, 44
1, 19248, Note_on_c, 5, 57, 50
1, 19248, Note_on_c, 5, 66, 50
1, 19248, Note_on_c, 6, 57, 40
1, 19248, Note_on_c, 6, 66, 40
1, 19248, Note_on_c, 9, 42, 79
1, 19251, Note_off_c, 9, 42, 0
1, 19270, Note_off_c, 5, 57, 0
1, 19270, Note_off_c, 5, 66, 0
1, 19270, Note_off_c, 6, 57, 0
1, 19270, Note_off_c, 6, 66, 0
1, 19272, Note_on_c, 3, 66, 72
1, 19272, Note_on_c, 5, 62, 50
1, 19272, Note_on_c, 5, 69, 50
1, 19272, Note_on_c, 6, 62, 40
1, 19272, Note_on_c, 6, 69, 40
1, 19272, Note_on_c, 11, 57, 75
1, 19290, Note_off_c, 11, 57, 0
1, 19294, Note_off_c, 1, 38, 0
1, 19294, Note_off_c, 4, 62, 0
1, 19294, Note_off_c, 4, 66, 0
1, 19294, Note_off_c, 4, 69, 0
1, 19294, Note_off_c, 3, 66, 0
1, 19294, Note_off_c, 5, 62, 0
1, 19294, Note_off_c, 5, 69, 0
1, 19294, Note_off_c, 6, 62, 0
1, 19294, Note_off_c, 6, 69, 0
1, 19296, Note_on_c, 1, 38, 74
1, 19296, Note_on_c, 5, 66, 64
1, 19296, Note_on_c, 5, 74, 64
1, 19296, Note_on_c, 6, 66, 54
1, 19296, Note_on_c, 6, 74, 54
1, 19296, Note_on_c, 9, 35, 74
1, 19296, Note_on_c, 9, 42, 29
1, 19299, Note_off_c, 9, 35, 0
1, 19299, Note_off_c, 9, 42, 0
1, 19318, Note_off_c, 5, 66, 0
1, 19318, Note_off_c, 5, 74, 0
1, 19318, Note_off_c, 6, 66, 0
1, 19318, Note_off_c, 6, 74, 0
1, 19320, Note_on_c, 3, 66, 69
1, 19320, Note_on_c, 5, 62, 50
1, 19320, Note_on_c, 5, 69, 50
1, 19320, Note_on_c, 6, 62, 40
1, 19320, Note_on_c, 6, 69, 40
1, 19320, Note_on_c, 11, 57, 78
1, 19342, Note_off_c, 5, 62, 0
1, 19342, Note_off_c, 5, 69, 0
1, 19342, Note_off_c, 6, 62, 0
1, 19342, Note_off_c, 6, 69, 0
1, 19344, Note_off_c, 11, 57, 0
1, 19344, Note_on_c, 4, 62, 44
1, 19344, Note_on_c, 4, 66, 44
1, 19344, Note_on_c, 4, 69, 44
1, 19344, Note_on_c, 5, 57, 50
1, 19344, Note_on_c, 5, 66, 50
1, 19344, Note_on_c, 6, 57, 40
1, 19344, Note_on_c, 6, 66, 40
1, 19344, Note_on_c, 9, 37, 83
1, 19344, Note_on_c, 9, 42, 79
1, 19347, Note_off_c, 9, 37, 0
1, 19347, Note_off_c, 9, 42, 0
1, 19351, Note_off_c, 3, 66, 0
1, 19366, Note_off_c, 5, 57, 0
1, 19366, Note_off_c, 5, 66, 0
1, 19366, Note_off_c, 6, 57, 0
1, 19366, Note_off_c, 6, 66, 0
1, 19368, Note_on_c, 3, 69, 80
1, 19368, Note_on_c, 5, 62, 50
1, 19368, Note_on_c, 5, 69, 50
1, 19368, Note_on_c, 6, 62, 40
1, 19368, Note_on_c, 6, 69, 40
1, 19368, Note_on_c, 11, 62, 81
1, 19390, Note_off_c, 1, 38, 0
1, 19390, Note_off_c, 4, 62, 0
1, 19390, Note_off_c, 4, 66, 0
1, 19390, Note_off_c, 4, 69, 0
1, 19390, Note_off_c, 5, 62, 0
1, 19390, Note_off_c, 5, 69, 0
1, 19390, Note_off_c, 6, 62, 0
1, 19390, Note_off_c, 6, 69, 0
1, 19392, Note_on_c, 1, 30, 74
1, 19392, Note_on_c, 5, 66, 64
1, 19392, Note_on_c, 5, 74, 64
1, 19392, Note_on_c, 6, 66, 54
1, 19392, Note_on_c, 6, 74, 54
1, 19392, Note_on_c, 9, 42, 29
1, 19393, Note_off_c, 11, 62, 0
1, 19395, Note_off_c, 9, 42, 0
1, 19414, Note_off_c, 8, 81, 0
1, 19414, Note_off_c, 12, 81, 0
1, 19414, Note_off_c, 3, 69, 0
1, 19414, Note_off_c, 5, 66, 0
1, 19414, Note_off_c, 5, 74, 0
1, 19414, Note_off_c, 6, 66, 0
1, 19414, Note_off_c, 6, 74, 0
1, 19416, Note_on_c, 3, 69, 66
1, 19416, Note_on_c, 5, 62, 50
1, 19416, Note_on_c, 5, 69, 50
1, 19416, Note_on_c, 6, 62, 40
1, 19416, Note_on_c, 6, 69, 40
1, 19416, Note_on_c, 11, 62, 77
1, 19436, Note_off_c, 11, 62, 0
1, 19438, Note_off_c, 3, 69, 0
1, 19438, Note_off_c, 5, 62, 0
1, 19438, Note_off_c, 5, 69, 0
1, 19438, Note_off_c, 6, 62, 0
1, 19438, Note_off_c, 6, 69, 0
1, 19440, Note_on_c, 3, 66, 71
1, 19440, Note_on_c, 4, 62, 44
1, 19440, Note_on_c, 4, 66, 44
1, 19440, Note_on_c, 4, 69, 44
1, 19440, Note_on_c, 5, 57, 50
1, 19440, Note_on_c, 5, 66, 50
1, 19440, Note_on_c, 6, 57, 40
1, 19440, Note_on_c, 6, 66, 40
1, 19440, Note_on_c, 9, 42, 79
1, 19440, Note_on_c, 11, 57, 73
1, 19443, Note_off_c, 9, 42, 0
1, 19456, Note_on_c, 8, 78, 125
1, 19456, Note_on_c, 12, 78, 108
1, 19462, Note_off_c, 5, 57, 0
1, 19462, Note_off_c, 5, 66, 0
1, 19462, Note_off_c, 6, 57, 0
1, 19462, Note_off_c, 6, 66, 0
1, 19464, Note_on_c, 5, 62, 50
1, 19464, Note_on_c, 5, 69, 50
1, 19464, Note_on_c, 6, 62, 40
1, 19464, Note_on_c, 6, 69, 40
1, 19469, Note_off_c, 8, 78, 0
1, 19469, Note_off_c, 12, 78, 0
1, 19484, Note_off_c, 11, 57, 0
1, 19486, Note_off_c, 1, 30, 0
1, 19486, Note_off_c, 4, 62, 0
1, 19486, Note_off_c, 4, 66, 0
1, 19486, Note_off_c, 4, 69, 0
1, 19486, Note_off_c, 5, 62, 0
1, 19486, Note_off_c, 5, 69, 0
1, 19486, Note_off_c, 6, 62, 0
1, 19486, Note_off_c, 6, 69, 0
1, 19488, Note_on_c, 1, 38, 74
1, 19488, Note_on_c, 5, 66, 64
1, 19488, Note_on_c, 5, 74, 64
1, 19488, Note_on_c, 6, 66, 54
1, 19488, Note_on_c, 6, 74, 54
1, 19488, Note_on_c, 8, 74, 125
1, 19488, Note_on_c, 9, 35, 74
1, 19488, Note_on_c, 9, 42, 29
1, 19488, Note_on_c, 12, 74, 108
1, 19491, Note_off_c, 9, 35, 0
1, 19491, Note_off_c, 9, 42, 0
1, 19501, Note_off_c, 8, 74, 0
1, 19501, Note_off_c, 12, 74, 0
1, 19506, Note_off_c, 3, 66, 0
1, 19510, Note_off_c, 5, 66, 0
1, 19510, Note_off_c, 5, 74, 0
1, 19510, Note_off_c, 6, 66, 0
1, 19510, Note_off_c, 6, 74, 0
1, 19512, Note_on_c, 5, 62, 50
1, 19512, Note_on_c, 5, 69, 50
1, 19512, Note_on_c, 6, 62, 40
1, 19512, Note_on_c, 6, 69, 40
1, 19520, Note_on_c, 8, 76, 125
1, 19520, Note_on_c, 12, 76, 108
1, 19533, Note_off_c, 8, 76, 0
1, 19533, Note_off_c, 12, 76, 0
1, 19534, Note_off_c, 5, 62, 0
1, 19534, Note_off_c, 5, 69, 0
1, 19534, Note_off_c, 6, 62, 0
1, 19534, Note_off_c, 6, 69, 0
1, 19536, Note_on_c, 4, 62, 44
1, 19536, Note_on_c, 4, 66, 44
1, 19536, Note_on_c, 4, 69, 44
1, 19536, Note_on_c, 5, 57, 50
1, 19536, Note_on_c, 5, 66, 50
1, 19536, Note_on_c, 6, 57, 40
1, 19536, Note_on_c, 6, 66, 40
1, 19536, Note_on_c, 9, 37, 83
1, 19536, Note_on_c, 9, 42, 79
1, 19539, Note_off_c, 9, 37, 0
1, 19539, Note_off_c, 9, 42, 0
1, 19552, Note_on_c, 8, 78, 125
1, 19552, Note_on_c, 12, 78, 108
1, 19558, Note_off_c, 5, 57, 0
1, 19558, Note_off_c, 5, 66, 0
1, 19558, Note_off_c, 6, 57, 0
1, 19558, Note_off_c, 6, 66, 0
1, 19560, Note_on_c, 3, 66, 80
1, 19560, Note_on_c, 5, 62, 50
1, 19560, Note_on_c, 5, 69, 50
1, 19560, Note_on_c, 6, 62, 40
1, 19560, Note_on_c, 6, 69, 40
1, 19560, Note_on_c, 11, 57, 80
1, 19565, Note_off_c, 8, 78, 0
1, 19565, Note_off_c, 12, 78, 0
1, 19573, Note_off_c, 11, 57, 0
1, 19576, Note_off_c, 3, 66, 0
1, 19582, Note_off_c, 2, 66, 0
1, 19582, Note_off_c, 2, 69, 0
1, 19582, Note_off_c, 2, 74, 0
1, 19582, Note_off_c, 1, 38, 0
1, 19582, Note_off_c, 4, 62, 0
1, 19582, Note_off_c, 4, 66, 0
1, 19582, Note_off_c, 4, 69, 0
1, 19582, Note_off_c, 5, 62, 0
1, 19582, Note_off_c, 5, 69, 0
1, 19582, Note_off_c, 6, 62, 0
1, 19582, Note_off_c, 6, 69, 0
1, 19584, Note_on_c, 1, 33, 74
1, 19584, Note_on_c, 3, 64, 76
1, 19584, Note_on_c, 5, 64, 64
1, 19584, Note_on_c, 5, 73, 64
1, 19584, Note_on_c, 6, 64, 54
1, 19584, Note_on_c, 6, 73, 54
1, 19584, Note_on_c, 8, 79, 125
1, 19584, Note_on_c, 9, 42, 29
1, 19584, Note_on_c, 11, 57, 81
1, 19584, Note_on_c, 12, 79, 108
1, 19587, Note_off_c, 9, 42, 0
1, 19598, Note_off_c, 11, 57, 0
1, 19602, Note_off_c, 3, 64, 0
1, 19606, Note_off_c, 5, 64, 0
1, 19606, Note_off_c, 5, 73, 0
1, 19606, Note_off_c, 6, 64, 0
1, 19606, Note_off_c, 6, 73, 0
1, 19608, Note_on_c, 3, 64, 74
1, 19608, Note_on_c, 5, 61, 50
1, 19608, Note_on_c, 5, 69, 50
1, 19608, Note_on_c, 6, 61, 40
1, 19608, Note_on_c, 6, 69, 40
1, 19608, Note_on_c, 11, 57, 78
1, 19623, Note_off_c, 11, 57, 0
1, 19626, Note_off_c, 3, 64, 0
1, 19630, Note_off_c, 5, 61, 0
1, 19630, Note_off_c, 5, 69, 0
1, 19630, Note_off_c, 6, 61, 0
1, 19630, Note_off_c, 6, 69, 0
1, 19632, Note_on_c, 4, 61, 44
1, 19632, Note_on_c, 4, 64, 44
1, 19632, Note_on_c, 4, 69, 44
1, 19632, Note_on_c, 5, 57, 50
1, 19632, Note_on_c, 5, 64, 50
1, 19632, Note_on_c, 6, 57, 40
1, 19632, Note_on_c, 6, 64, 40
1, 19632, Note_on_c, 9, 42, 79
1, 19635, Note_off_c, 9, 42, 0
1, 19654, Note_off_c, 5, 57, 0
1, 19654, Note_off_c, 5, 64, 0
1, 19654, Note_off_c, 6, 57, 0
1, 19654, Note_off_c, 6, 64, 0
1, 19656, Note_on_c, 3, 64, 75
1, 19656, Note_on_c, 5, 61, 50
1, 19656, Note_on_c, 5, 69, 50
1, 19656, Note_on_c, 6, 61, 40
1, 19656, Note_on_c, 6, 69, 40
1, 19656, Note_on_c, 11, 57, 81
1, 19674, Note_off_c, 3, 64, 0
1, 19678, Note_off_c, 1, 33, 0
1, 19678, Note_off_c, 4, 61, 0
1, 19678, Note_off_c, 4, 64, 0
1, 19678, Note_off_c, 4, 69, 0
1, 19678, Note_off_c, 5, 61, 0
1, 19678, Note_off_c, 5, 69, 0
1, 19678, Note_off_c, 6, 61, 0
1, 19678, Note_off_c, 6, 69, 0
1, 19678, Note_off_c, 11, 57, 0
1, 19680, Note_on_c, 1, 33, 74
1, 19680, Note_on_c, 5, 64, 64
1, 19680, Note_on_c, 5, 73, 64
1, 19680, Note_on_c, 6, 64, 54
1, 19680, Note_on_c, 6, 73, 54
1, 19680, Note_on_c, 9, 35, 74
1, 19680, Note_on_c, 9, 42, 29
1, 19683, Note_off_c, 9, 35, 0
1, 19683, Note_off_c, 9, 42, 0
1, 19702, Note_off_c, 5, 64, 0
1, 19702, Note_off_c, 5, 73, 0
1, 19702, Note_off_c, 6, 64, 0
1, 19702, Note_off_c, 6, 73, 0
1, 19704, Note_on_c, 3, 64, 76
1, 19704, Note_on_c, 5, 61, 50
1, 19704, Note_on_c, 5, 69, 50
1, 19704, Note_on_c, 6, 61, 40
1, 19704, Note_on_c, 6, 69, 40
1, 19704, Note_on_c, 11, 57, 76
1, 19726, Note_off_c, 5, 61, 0
1, 19726, Note_off_c, 5, 69, 0
1, 19726, Note_off_c, 6, 61, 0
1, 19726, Note_off_c, 6, 69, 0
1, 19727, Note_off_c, 3, 64, 0
1, 19728, Note_on_c, 4, 61, 44
1, 19728, Note_on_c, 4, 64, 44
1, 19728, Note_on_c, 4, 69, 44
1, 19728, Note_on_c, 5, 57, 50
1, 19728, Note_on_c, 5, 64, 50
1, 19728, Note_on_c, 6, 57, 40
1, 19728, Note_on_c, 6, 64, 40
1, 19728, Note_on_c, 9, 37, 83
1, 19728, Note_on_c, 9, 42, 79
1, 19731, Note_off_c, 9, 37, 0
1, 19731, Note_off_c, 9, 42, 0
1, 19732, Note_off_c, 11, 57, 0
1, 19750, Note_off_c, 5, 57, 0
1, 19750, Note_off_c, 5, 64, 0
1, 19750, Note_off_c, 6, 57, 0
1, 19750, Note_off_c, 6, 64, 0
1, 19752, Note_on_c, 3, 67, 76
1, 19752, Note_on_c, 5, 61, 50
1, 19752, Note_on_c, 5, 69, 50
1, 19752, Note_on_c, 6, 61, 40
1, 19752, Note_on_c, 6, 69, 40
1, 19752, Note_on_c, 11, 61, 83
1, 19774, Note_off_c, 8, 79, 0
1, 19774, Note_off_c, 12, 79, 0
1, 19774, Note_off_c, 1, 33, 0
1, 19774, Note_off_c, 4, 61, 0
1, 19774, Note_off_c, 4, 64, 0
1, 19774, Note_off_c, 4, 69, 0
1, 19774, Note_off_c, 5, 61, 0
1, 19774, Note_off_c, 5, 69, 0
1, 19774, Note_off_c, 6, 61, 0
1, 19774, Note_off_c, 6, 69, 0
1, 19776, Note_on_c, 1, 33, 74
1, 19776, Note_on_c, 5, 64, 64
1, 19776, Note_on_c, 5, 73, 64
1, 19776, Note_on_c, 6, 64, 54
1, 19776, Note_on_c, 6, 73, 54
1, 19776, Note_on_c, 9, 42, 29
1, 19779, Note_off_c, 11, 61, 0
1, 19779, Note_off_c, 9, 42, 0
1, 19798, Note_off_c, 3, 67, 0
1, 19798, Note_off_c, 5, 64, 0
1, 19798, Note_off_c, 5, 73, 0
1, 19798, Note_off_c, 6, 64, 0
1, 19798, Note_off_c, 6, 73, 0
1, 19800, Note_on_c, 3, 67, 68
1, 19800, Note_on_c, 5, 61, 50
1, 19800, Note_on_c, 5, 69, 50
1, 19800, Note_on_c, 6, 61, 40
1, 19800, Note_on_c, 6, 69, 40
1, 19800, Note_on_c, 11, 61, 81
1, 19822, Note_off_c, 3, 67, 0
1, 19822, Note_off_c, 5, 61, 0
1, 19822, Note_off_c, 5, 69, 0
1, 19822, Note_off_c, 6, 61, 0
1, 19822, Note_off_c, 6, 69, 0
1, 19824, Note_on_c, 3, 64, 57
1, 19824, Note_on_c, 4, 61, 44
1, 19824, Note_on_c, 4, 64, 44
1, 19824, Note_on_c, 4, 69, 44
1, 19824, Note_on_c, 5, 57, 50
1, 19824, Note_on_c, 5, 64, 50
1, 19824, Note_on_c, 6, 57, 40
1, 19824, Note_on_c, 6, 64, 40
1, 19824, Note_on_c, 9, 42, 79
1, 19824, Note_on_c, 11, 57, 81
1, 19825, Note_off_c, 11, 61, 0
1, 19827, Note_off_c, 9, 42, 0
1, 19840, Note_on_c, 8, 76, 125
1, 19840, Note_on_c, 12, 76, 108
1, 19846, Note_off_c, 5, 57, 0
1, 19846, Note_off_c, 5, 64, 0
1, 19846, Note_off_c, 6, 57, 0
1, 19846, Note_off_c, 6, 64, 0
1, 19848, Note_on_c, 5, 61, 50
1, 19848, Note_on_c, 5, 69, 50
1, 19848, Note_on_c, 6, 61, 40
1, 19848, Note_on_c, 6, 69, 40
1, 19853, Note_off_c, 8, 76, 0
1, 19853, Note_off_c, 12, 76, 0
1, 19870, Note_off_c, 1, 33, 0
1, 19870, Note_off_c, 4, 61, 0
1, 19870, Note_off_c, 4, 64, 0
1, 19870, Note_off_c, 4, 69, 0
1, 19870, Note_off_c, 5, 61, 0
1, 19870, Note_off_c, 5, 69, 0
1, 19870, Note_off_c, 6, 61, 0
1, 19870, Note_off_c, 6, 69, 0
1, 19872, Note_on_c, 1, 33, 74
1, 19872, Note_on_c, 5, 64, 64
1, 19872, Note_on_c, 5, 73, 64
1, 19872, Note_on_c, 6, 64, 54
1, 19872, Note_on_c, 6, 73, 54
1, 19872, Note_on_c, 8, 71, 125
1, 19872, Note_on_c, 9, 35, 74
1, 19872, Note_on_c, 9, 42, 29
1, 19872, Note_on_c, 12, 71, 108
1, 19875, Note_off_c, 9, 35, 0
1, 19875, Note_off_c, 9, 42, 0
1, 19882, Note_off_c, 11, 57, 0
1, 19885, Note_off_c, 8, 71, 0
1, 19885, Note_off_c, 12, 71, 0
1, 19894, Note_off_c, 5, 64, 0
1, 19894, Note_off_c, 5, 73, 0
1, 19894, Note_off_c, 6, 64, 0
1, 19894, Note_off_c, 6, 73, 0
1, 19895, Note_off_c, 3, 64, 0
1, 19896, Note_on_c, 5, 61, 50
1, 19896, Note_on_c, 5, 69, 50
1, 19896, Note_on_c, 6, 61, 40
1, 19896, Note_on_c, 6, 69, 40
1, 19904, Note_on_c, 8, 67, 125
1, 19904, Note_on_c, 12, 67, 108
1, 19917, Note_off_c, 8, 67, 0
1, 19917, Note_off_c, 12, 67, 0
1, 19918, Note_off_c, 5, 61, 0
1, 19918, Note_off_c, 5, 69, 0
1, 19918, Note_off_c, 6, 61, 0
1, 19918, Note_off_c, 6, 69, 0
1, 19920, Note_on_c, 4, 61, 44
1, 19920, Note_on_c, 4, 64, 44
1, 19920, Note_on_c, 4, 69, 44
1, 19920, Note_on_c, 5, 57, 50
1, 19920, Note_on_c, 5, 64, 50
1, 19920, Note_on_c, 6, 57, 40
1, 19920, Note_on_c, 6, 64, 40
1, 19920, Note_on_c, 9, 37, 83
1, 19920, Note_on_c, 9, 42, 79
1, 19923, Note_off_c, 9, 37, 0
1, 19923, Note_off_c, 9, 42, 0
1, 19936, Note_on_c, 8, 64, 125
1, 19936, Note_on_c, 12, 64, 108
1, 19942, Note_off_c, 5, 57, 0
1, 19942, Note_off_c, 5, 64, 0
1, 19942, Note_off_c, 6, 57, 0
1, 19942, Note_off_c, 6, 64, 0
1, 19944, Note_on_c, 5, 61, 50
1, 19944, Note_on_c, 5, 69, 50
1, 19944, Note_on_c, 6, 61, 40
1, 19944, Note_on_c, 6, 69, 40
1, 19949, Note_off_c, 8, 64, 0
1, 19949, Note_off_c, 12, 64, 0
1, 19966, Note_off_c, 1, 33, 0
1, 19966, Note_off_c, 4, 61, 0
1, 19966, Note_off_c, 4, 64, 0
1, 19966, Note_off_c, 4, 69, 0
1, 19966, Note_off_c, 5, 61, 0
1, 19966, Note_off_c, 5, 69, 0
1, 19966, Note_off_c, 6, 61, 0
1, 19966, Note_off_c, 6, 69, 0
1, 19968, Note_on_c, 1, 35, 74
1, 19968, Note_on_c, 3, 62, 77
1, 19968, Note_on_c, 5, 62, 64
1, 19968, Note_on_c, 5, 71, 64
1, 19968, Note_on_c, 6, 62, 54
1, 19968, Note_on_c, 6, 71, 54
1, 19968, Note_on_c, 8, 66, 125
1, 19968, Note_on_c, 9, 42, 29
1, 19968, Note_on_c, 11, 54, 82
1, 19968, Note_on_c, 12, 66, 108
1, 19971, Note_off_c, 9, 42, 0
1, 19986, Note_off_c, 3, 62, 0
1, 19988, Note_off_c, 11, 54, 0
1, 19990, Note_off_c, 5, 62, 0
1, 19990, Note_off_c, 5, 71, 0
1, 19990, Note_off_c, 6, 62, 0
1, 19990, Note_off_c, 6, 71, 0
1, 19992, Note_on_c, 3, 62, 76
1, 19992, Note_on_c, 5, 59, 50
1, 19992, Note_on_c, 5, 66, 50
1, 19992, Note_on_c, 6, 59, 40
1, 19992, Note_on_c, 6, 66, 40
1, 19992, Note_on_c, 11, 54, 84
1, 20009, Note_off_c, 3, 62, 0
1, 20013, Note_off_c, 11, 54, 0
1, 20014, Note_off_c, 5, 59, 0
1, 20014, Note_off_c, 5, 66, 0
1, 20014, Note_off_c, 6, 59, 0
1, 20014, Note_off_c, 6, 66, 0
1, 20016, Note_on_c, 4, 59, 44
1, 20016, Note_on_c, 4, 62, 44
1, 20016, Note_on_c, 4, 66, 44
1, 20016, Note_on_c, 5, 54, 50
1, 20016, Note_on_c, 5, 62, 50
1, 20016, Note_on_c, 6, 54, 40
1, 20016, Note_on_c, 6, 62, 40
1, 20016, Note_on_c, 9, 42, 79
1, 20019, Note_off_c, 9, 42, 0
1, 20038, Note_off_c, 5, 54, 0
1, 20038, Note_off_c, 5, 62, 0
1, 20038, Note_off_c, 6, 54, 0
1, 20038, Note_off_c, 6, 62, 0
1, 20040, Note_on_c, 3, 62, 76
1, 20040, Note_on_c, 5, 59, 50
1, 20040, Note_on_c, 5, 66, 50
1, 20040, Note_on_c, 6, 59, 40
1, 20040, Note_on_c, 6, 66, 40
1, 20040, Note_on_c, 11, 54, 81
1, 20059, Note_off_c, 3, 62, 0
1, 20062, Note_off_c, 1, 35, 0
1, 20062, Note_off_c, 4, 59, 0
1, 20062, Note_off_c, 4, 62, 0
1, 20062, Note_off_c, 4, 66, 0
1, 20062, Note_off_c, 5, 59, 0
1, 20062, Note_off_c, 5, 66, 0
1, 20062, Note_off_c, 6, 59, 0
1, 20062, Note_off_c, 6, 66, 0
1, 20064, Note_off_c, 11, 54, 0
1, 20064, Note_on_c, 1, 35, 74
1, 20064, Note_on_c, 5, 62, 64
1, 20064, Note_on_c, 5, 71, 64
1, 20064, Note_on_c, 6, 62, 54
1, 20064, Note_on_c, 6, 71, 54
1, 20064, Note_on_c, 9, 35, 74
1, 20064, Note_on_c, 9, 42, 29
1, 20067, Note_off_c, 9, 35, 0
1, 20067, Note_off_c, 9, 42, 0
1, 20086, Note_off_c, 5, 62, 0
1, 20086, Note_off_c, 5, 71, 0
1, 20086, Note_off_c, 6, 62, 0
1, 20086, Note_off_c, 6, 71, 0
1, 20088, Note_on_c, 3, 62, 74
1, 20088, Note_on_c, 5, 59, 50
1, 20088, Note_on_c, 5, 66, 50
1, 20088, Note_on_c, 6, 59, 40
1, 20088, Note_on_c, 6, 66, 40
1, 20088, Note_on_c, 11, 54, 82
1, 20110, Note_off_c, 5, 59, 0
1, 20110, Note_off_c, 5, 66, 0
1, 20110, Note_off_c, 6, 59, 0
1, 20110, Note_off_c, 6, 66, 0
1, 20110, Note_off_c, 11, 54, 0
1, 20112, Note_off_c, 3, 62, 0
1, 20112, Note_on_c, 4, 59, 44
1, 20112, Note_on_c, 4, 62, 44
1, 20112, Note_on_c, 4, 66, 44
1, 20112, Note_on_c, 5, 54, 50
1, 20112, Note_on_c, 5, 62, 50
1, 20112, Note_on_c, 6, 54, 40
1, 20112, Note_on_c, 6, 62, 40
1, 20112, Note_on_c, 9, 37, 83
1, 20112, Note_on_c, 9, 42, 79
1, 20115, Note_off_c, 9, 37, 0
1, 20115, Note_off_c, 9, 42, 0
1, 20134, Note_off_c, 5, 54, 0
1, 20134, Note_off_c, 5, 62, 0
1, 20134, Note_off_c, 6, 54, 0
1, 20134, Note_off_c, 6, 62, 0
1, 20136, Note_on_c, 3, 66, 79
1, 20136, Note_on_c, 5, 59, 50
1, 20136, Note_on_c, 5, 66, 50
1, 20136, Note_on_c, 6, 59, 40
1, 20136, Note_on_c, 6, 66, 40
1, 20136, Note_on_c, 11, 59, 84
1, 20158, Note_off_c, 8, 66, 0
1, 20158, Note_off_c, 12, 66, 0
1, 20158, Note_off_c, 1, 35, 0
1, 20158, Note_off_c, 4, 59, 0
1, 20158, Note_off_c, 4, 62, 0
1, 20158, Note_off_c, 4, 66, 0
1, 20158, Note_off_c, 3, 66, 0
1, 20158, Note_off_c, 5, 59, 0
1, 20158, Note_off_c, 5, 66, 0
1, 20158, Note_off_c, 6, 59, 0
1, 20158, Note_off_c, 6, 66, 0
1, 20160, Note_on_c, 1, 35, 74
1, 20160, Note_on_c, 5, 62, 64
1, 20160, Note_on_c, 5, 71, 64
1, 20160, Note_on_c, 6, 62, 54
1, 20160, Note_on_c, 6, 71, 54
1, 20160, Note_on_c, 9, 42, 29
1, 20163, Note_off_c, 11, 59, 0
1, 20163, Note_off_c, 9, 42, 0
1, 20182, Note_off_c, 5, 62, 0
1, 20182, Note_off_c, 5, 71, 0
1, 20182, Note_off_c, 6, 62, 0
1, 20182, Note_off_c, 6, 71, 0
1, 20184, Note_on_c, 3, 66, 72
1, 20184, Note_on_c, 5, 59, 50
1, 20184, Note_on_c, 5, 66, 50
1, 20184, Note_on_c, 6, 59, 40
1, 20184, Note_on_c, 6, 66, 40
1, 20184, Note_on_c, 11, 59, 82
1, 20206, Note_off_c, 3, 66, 0
1, 20206, Note_off_c, 5, 59, 0
1, 20206, Note_off_c, 5, 66, 0
1, 20206, Note_off_c, 6, 59, 0
1, 20206, Note_off_c, 6, 66, 0
1, 20206, Note_off_c, 11, 59, 0
1, 20208, Note_on_c, 4, 59, 44
1, 20208, Note_on_c, 4, 62, 44
1, 20208, Note_on_c, 4, 66, 44
1, 20208, Note_on_c, 5, 54, 50
1, 20208, Note_on_c, 5, 62, 50
1, 20208, Note_on_c, 6, 54, 40
1, 20208, Note_on_c, 6, 62, 40
1, 20208, Note_on_c, 9, 42, 79
1, 20211, Note_off_c, 9, 42, 0
1, 20230, Note_off_c, 5, 54, 0
1, 20230, Note_off_c, 5, 62, 0
1, 20230, Note_off_c, 6, 54, 0
1, 20230, Note_off_c, 6, 62, 0
1, 20232, Note_on_c, 3, 62, 76
1, 20232, Note_on_c, 5, 59, 50
1, 20232, Note_on_c, 5, 66, 50
1, 20232, Note_on_c, 6, 59, 40
1, 20232, Note_on_c, 6, 66, 40
1, 20232, Note_on_c, 11, 54, 74
1, 20254, Note_off_c, 1, 35, 0
1, 20254, Note_off_c, 4, 59, 0
1, 20254, Note_off_c, 4, 62, 0
1, 20254, Note_off_c, 4, 66, 0
1, 20254, Note_off_c, 5, 59, 0
1, 20254, Note_off_c, 5, 66, 0
1, 20254, Note_off_c, 6, 59, 0
1, 20254, Note_off_c, 6, 66, 0
1, 20255, Note_off_c, 11, 54, 0
1, 20256, Note_on_c, 1, 35, 74
1, 20256, Note_on_c, 5, 62, 64
1, 20256, Note_on_c, 5, 71, 64
1, 20256, Note_on_c, 6, 62, 54
1, 20256, Note_on_c, 6, 71, 54
1, 20256, Note_on_c, 8, 71, 125
1, 20256, Note_on_c, 9, 35, 74
1, 20256, Note_on_c, 9, 42, 29
1, 20256, Note_on_c, 12, 71, 108
1, 20258, Note_off_c, 3, 62, 0
1, 20259, Note_off_c, 9, 35, 0
1, 20259, Note_off_c, 9, 42, 0
1, 20278, Note_off_c, 5, 62, 0
1, 20278, Note_off_c, 5, 71, 0
1, 20278, Note_off_c, 6, 62, 0
1, 20278, Note_off_c, 6, 71, 0
1, 20278, Note_off_c, 8, 71, 0
1, 20278, Note_off_c, 12, 71, 0
1, 20280, Note_on_c, 3, 62, 77
1, 20280, Note_on_c, 5, 59, 50
1, 20280, Note_on_c, 5, 66, 50
1, 20280, Note_on_c, 6, 59, 40
1, 20280, Note_on_c, 6, 66, 40
1, 20280, Note_on_c, 11, 54, 71
1, 20300, Note_off_c, 11, 54, 0
1, 20302, Note_off_c, 5, 59, 0
1, 20302, Note_off_c, 5, 66, 0
1, 20302, Note_off_c, 6, 59, 0
1, 20302, Note_off_c, 6, 66, 0
1, 20304, Note_off_c, 3, 62, 0
1, 20304, Note_on_c, 4, 59, 44
1, 20304, Note_on_c, 4, 62, 44
1, 20304, Note_on_c, 4, 66, 44
1, 20304, Note_on_c, 5, 54, 50
1, 20304, Note_on_c, 5, 62, 50
1, 20304, Note_on_c, 6, 54, 40
1, 20304, Note_on_c, 6, 62, 40
1, 20304, Note_on_c, 8, 71, 125
1, 20304, Note_on_c, 9, 37, 83
1, 20304, Note_on_c, 9, 42, 79
1, 20304, Note_on_c, 12, 71, 108
1, 20307, Note_off_c, 9, 37, 0
1, 20307, Note_off_c, 9, 42, 0
1, 20326, Note_off_c, 5, 54, 0
1, 20326, Note_off_c, 5, 62, 0
1, 20326, Note_off_c, 6, 54, 0
1, 20326, Note_off_c, 6, 62, 0
1, 20326, Note_off_c, 8, 71, 0
1, 20326, Note_off_c, 12, 71, 0
1, 20328, Note_on_c, 3, 61, 76
1, 20328, Note_on_c, 5, 59, 50
1, 20328, Note_on_c, 5, 66, 50
1, 20328, Note_on_c, 6, 59, 40
1, 20328, Note_on_c, 6, 66, 40
1, 20328, Note_on_c, 11, 54, 82
1, 20350, Note_off_c, 1, 35, 0
1, 20350, Note_off_c, 4, 59, 0
1, 20350, Note_off_c, 4, 62, 0
1, 20350, Note_off_c, 4, 66, 0
1, 20350, Note_off_c, 5, 59, 0
1, 20350, Note_off_c, 5, 66, 0
1, 20350, Note_off_c, 6, 59, 0
1, 20350, Note_off_c, 6, 66, 0
1, 20352, Note_on_c, 1, 30, 74
1, 20352, Note_on_c, 5, 61, 64
1, 20352, Note_on_c, 5, 70, 64
1, 20352, Note_on_c, 6, 61, 54
1, 20352, Note_on_c, 6, 70, 54
1, 20352, Note_on_c, 8, 70, 125
1, 20352, Note_on_c, 9, 42, 29
1, 20352, Note_on_c, 12, 70, 108
1, 20355, Note_off_c, 9, 42, 0
1, 20374, Note_off_c, 5, 61, 0
1, 20374, Note_off_c, 5, 70, 0
1, 20374, Note_off_c, 6, 61, 0
1, 20374, Note_off_c, 6, 70, 0
1, 20374, Note_off_c, 8, 70, 0
1, 20374, Note_off_c, 12, 70, 0
1, 20376, Note_on_c, 5, 58, 50
1, 20376, Note_on_c, 5, 66, 50
1, 20376, Note_on_c, 6, 58, 40
1, 20376, Note_on_c, 6, 66, 40
1, 20398, Note_off_c, 5, 58, 0
1, 20398, Note_off_c, 5, 66, 0
1, 20398, Note_off_c, 6, 58, 0
1, 20398, Note_off_c, 6, 66, 0
1, 20400, Note_on_c, 4, 58, 44
1, 20400, Note_on_c, 4, 61, 44
1, 20400, Note_on_c, 4, 66, 44
1, 20400, Note_on_c, 5, 54, 50
1, 20400, Note_on_c, 5, 61, 50
1, 20400, Note_on_c, 6, 54, 40
1, 20400, Note_on_c, 6, 61, 40
1, 20400, Note_on_c, 8, 70, 125
1, 20400, Note_on_c, 9, 42, 79
1, 20400, Note_on_c, 12, 70, 108
1, 20403, Note_off_c, 9, 42, 0
1, 20422, Note_off_c, 5, 54, 0
1, 20422, Note_off_c, 5, 61, 0
1, 20422, Note_off_c, 6, 54, 0
1, 20422, Note_off_c, 6, 61, 0
1, 20422, Note_off_c, 8, 70, 0
1, 20422, Note_off_c, 12, 70, 0
1, 20424, Note_on_c, 5, 58, 50
1, 20424, Note_on_c, 5, 66, 50
1, 20424, Note_on_c, 6, 58, 40
1, 20424, Note_on_c, 6, 66, 40
1, 20446, Note_off_c, 1, 30, 0
1, 20446, Note_off_c, 4, 58, 0
1, 20446, Note_off_c, 4, 61, 0
1, 20446, Note_off_c, 4, 66, 0
1, 20446, Note_off_c, 5, 58, 0
1, 20446, Note_off_c, 5, 66, 0
1, 20446, Note_off_c, 6, 58, 0
1, 20446, Note_off_c, 6, 66, 0
1, 20448, Note_on_c, 1, 30, 74
1, 20448, Note_on_c, 5, 61, 64
1, 20448, Note_on_c, 5, 70, 64
1, 20448, Note_on_c, 6, 61, 54
1, 20448, Note_on_c, 6, 70, 54
1, 20448, Note_on_c, 8, 71, 125
1, 20448, Note_on_c, 9, 35, 74
1, 20448, Note_on_c, 9, 42, 29
1, 20448, Note_on_c, 12, 71, 108
1, 20451, Note_off_c, 9, 35, 0
1, 20451, Note_off_c, 9, 42, 0
1, 20470, Note_off_c, 5, 61, 0
1, 20470, Note_off_c, 5, 70, 0
1, 20470, Note_off_c, 6, 61, 0
1, 20470, Note_off_c, 6, 70, 0
1, 20470, Note_off_c, 8, 71, 0
1, 20470, Note_off_c, 12, 71, 0
1, 20472, Note_on_c, 5, 58, 50
1, 20472, Note_on_c, 5, 66, 50
1, 20472, Note_on_c, 6, 58, 40
1, 20472, Note_on_c, 6, 66, 40
1, 20494, Note_off_c, 5, 58, 0
1, 20494, Note_off_c, 5, 66, 0
1, 20494, Note_off_c, 6, 58, 0
1, 20494, Note_off_c, 6, 66, 0
1, 20496, Note_on_c, 4, 58, 44
1, 20496, Note_on_c, 4, 61, 44
1, 20496, Note_on_c, 4, 66, 44
1, 20496, Note_on_c, 5, 54, 50
1, 20496, Note_on_c, 5, 61, 50
1, 20496, Note_on_c, 6, 54, 40
1, 20496, Note_on_c, 6, 61, 40
1, 20496, Note_on_c, 8, 71, 125
1, 20496, Note_on_c, 9, 37, 83
1, 20496, Note_on_c, 9, 42, 79
1, 20496, Note_on_c, 12, 71, 108
1, 20499, Note_off_c, 9, 37, 0
1, 20499, Note_off_c, 9, 42, 0
1, 20518, Note_off_c, 5, 54, 0
1, 20518, Note_off_c, 5, 61, 0
1, 20518, Note_off_c, 6, 54, 0
1, 20518, Note_off_c, 6, 61, 0
1, 20518, Note_off_c, 8, 71, 0
1, 20518, Note_off_c, 12, 71, 0
1, 20520, Note_on_c, 5, 58, 50
1, 20520, Note_on_c, 5, 66, 50
1, 20520, Note_on_c, 6, 58, 40
1, 20520, Note_on_c, 6, 66, 40
1, 20542, Note_off_c, 1, 30, 0
1, 20542, Note_off_c, 4, 58, 0
1, 20542, Note_off_c, 4, 61, 0
1, 20542, Note_off_c, 4, 66, 0
1, 20542, Note_off_c, 5, 58, 0
1, 20542, Note_off_c, 5, 66, 0
1, 20542, Note_off_c, 6, 58, 0
1, 20542, Note_off_c, 6, 66, 0
1, 20544, Note_on_c, 1, 30, 74
1, 20544, Note_on_c, 5, 61, 64
1, 20544, Note_on_c, 5, 70, 64
1, 20544, Note_on_c, 6, 61, 54
1, 20544, Note_on_c, 6, 70, 54
1, 20544, Note_on_c, 8, 73, 125
1, 20544, Note_on_c, 9, 42, 29
1, 20544, Note_on_c, 12, 73, 108
1, 20547, Note_off_c, 9, 42, 0
1, 20552, Note_off_c, 11, 54, 0
1, 20558, Note_off_c, 3, 61, 0
1, 20566, Note_off_c, 5, 61, 0
1, 20566, Note_off_c, 5, 70, 0
1, 20566, Note_off_c, 6, 61, 0
1, 20566, Note_off_c, 6, 70, 0
1, 20568, Note_on_c, 5, 58, 50
1, 20568, Note_on_c, 5, 66, 50
1, 20568, Note_on_c, 6, 58, 40
1, 20568, Note_on_c, 6, 66, 40
1, 20574, Note_off_c, 8, 73, 0
1, 20574, Note_off_c, 12, 73, 0
1, 20576, Note_on_c, 8, 74, 125
1, 20576, Note_on_c, 12, 74, 108
1, 20590, Note_off_c, 5, 58, 0
1, 20590, Note_off_c, 5, 66, 0
1, 20590, Note_off_c, 6, 58, 0
1, 20590, Note_off_c, 6, 66, 0
1, 20592, Note_on_c, 4, 58, 44
1, 20592, Note_on_c, 4, 61, 44
1, 20592, Note_on_c, 4, 66, 44
1, 20592, Note_on_c, 5, 54, 50
1, 20592, Note_on_c, 5, 61, 50
1, 20592, Note_on_c, 6, 54, 40
1, 20592, Note_on_c, 6, 61, 40
1, 20592, Note_on_c, 9, 42, 79
1, 20595, Note_off_c, 9, 42, 0
1, 20606, Note_off_c, 8, 74, 0
1, 20606, Note_off_c, 12, 74, 0
1, 20608, Note_on_c, 8, 76, 125
1, 20608, Note_on_c, 12, 76, 108
1, 20614, Note_off_c, 5, 54, 0
1, 20614, Note_off_c, 5, 61, 0
1, 20614, Note_off_c, 6, 54, 0
1, 20614, Note_off_c, 6, 61, 0
1, 20616, Note_on_c, 5, 58, 50
1, 20616, Note_on_c, 5, 66, 50
1, 20616, Note_on_c, 6, 58, 40
1, 20616, Note_on_c, 6, 66, 40
1, 20630, Note_off_c, 8, 76, 0
1, 20630, Note_off_c, 12, 76, 0
1, 20638, Note_off_c, 1, 30, 0
1, 20638, Note_off_c, 4, 58, 0
1, 20638, Note_off_c, 4, 61, 0
1, 20638, Note_off_c, 4, 66, 0
1, 20638, Note_off_c, 5, 58, 0
1, 20638, Note_off_c, 5, 66, 0
1, 20638, Note_off_c, 6, 58, 0
1, 20638, Note_off_c, 6, 66, 0
1, 20640, Note_on_c, 1, 30, 74
1, 20640, Note_on_c, 5, 61, 64
1, 20640, Note_on_c, 5, 70, 64
1, 20640, Note_on_c, 6, 61, 54
1, 20640, Note_on_c, 6, 70, 54
1, 20640, Pitch_bend_c, 8, 129
1, 20640, Note_on_c, 8, 76, 125
1, 20640, Note_on_c, 9, 35, 74
1, 20640, Note_on_c, 9, 42, 29
1, 20640, Pitch_bend_c, 12, 129
1, 20640, Note_on_c, 12, 76, 108
1, 20643, Note_off_c, 9, 35, 0
1, 20643, Note_off_c, 9, 42, 0
1, 20652, Pitch_bend_c, 8, 4353
1, 20652, Pitch_bend_c, 12, 4353
1, 20662, Note_off_c, 1, 30, 0
1, 20662, Note_off_c, 5, 61, 0
1, 20662, Note_off_c, 5, 70, 0
1, 20662, Note_off_c, 6, 61, 0
1, 20662, Note_off_c, 6, 70, 0
1, 20664, Note_on_c, 5, 58, 50
1, 20664, Note_on_c, 5, 66, 50
1, 20664, Note_on_c, 6, 58, 40
1, 20664, Note_on_c, 6, 66, 40
1, 20664, Pitch_bend_c, 8, 8193
1, 20664, Note_on_c, 9, 37, 83
1, 20664, Pitch_bend_c, 12, 8193
1, 20667, Note_off_c, 9, 37, 0
1, 20670, Note_off_c, 8, 76, 0
1, 20670, Note_off_c, 12, 76, 0
1, 20672, Note_on_c, 8, 74, 125
1, 20672, Note_on_c, 12, 74, 108
1, 20686, Note_off_c, 5, 58, 0
1, 20686, Note_off_c, 5, 66, 0
1, 20686, Note_off_c, 6, 58, 0
1, 20686, Note_off_c, 6, 66, 0
1, 20688, Note_on_c, 1, 30, 74
1, 20688, Note_on_c, 4, 58, 44
1, 20688, Note_on_c, 4, 61, 44
1, 20688, Note_on_c, 4, 66, 44
1, 20688, Note_on_c, 5, 54, 50
1, 20688, Note_on_c, 5, 61, 50
1, 20688, Note_on_c, 6, 54, 40
1, 20688, Note_on_c, 6, 61, 40
1, 20688, Note_on_c, 9, 46, 59
1, 20691, Note_off_c, 9, 46, 0
1, 20702, Note_off_c, 8, 74, 0
1, 20702, Note_off_c, 12, 74, 0
1, 20704, Note_on_c, 8, 73, 125
1, 20704, Note_on_c, 12, 73, 108
1, 20710, Note_off_c, 5, 54, 0
1, 20710, Note_off_c, 5, 61, 0
1, 20710, Note_off_c, 6, 54, 0
1, 20710, Note_off_c, 6, 61, 0
1, 20712, Note_on_c, 5, 58, 50
1, 20712, Note_on_c, 5, 66, 50
1, 20712, Note_on_c, 6, 58, 40
1, 20712, Note_on_c, 6, 66, 40
1, 20726, Note_off_c, 8, 73, 0
1, 20726, Note_off_c, 12, 73, 0
1, 20734, Note_off_c, 1, 30, 0
1, 20734, Note_off_c, 4, 58, 0
1, 20734, Note_off_c, 4, 61, 0
1, 20734, Note_off_c, 4, 66, 0
1, 20734, Note_off_c, 5, 58, 0
1, 20734, Note_off_c, 5, 66, 0
1, 20734, Note_off_c, 6, 58, 0
1, 20734, Note_off_c, 6, 66, 0
1, 20736, Note_on_c, 1, 31, 74
1, 20736, Note_on_c, 3, 59, 72
1, 20736, Note_on_c, 5, 62, 64
1, 20736, Note_on_c, 5, 71, 64
1, 20736, Note_on_c, 6, 62, 54
1, 20736, Note_on_c, 6, 71, 54
1, 20736, Note_on_c, 8, 74, 125
1, 20736, Note_on_c, 9, 42, 29
1, 20736, Note_on_c, 11, 50, 79
1, 20736, Note_on_c, 12, 74, 108
1, 20739, Note_off_c, 9, 42, 0
1, 20750, Note_off_c, 11, 50, 0
1, 20758, Note_off_c, 3, 59, 0
1, 20758, Note_off_c, 5, 62, 0
1, 20758, Note_off_c, 5, 71, 0
1, 20758, Note_off_c, 6, 62, 0
1, 20758, Note_off_c, 6, 71, 0
1, 20760, Note_on_c, 3, 59, 72
1, 20760, Note_on_c, 5, 59, 50
1, 20760, Note_on_c, 5, 67, 50
1, 20760, Note_on_c, 6, 59, 40
1, 20760, Note_on_c, 6, 67, 40
1, 20760, Note_on_c, 11, 50, 76
1, 20780, Note_off_c, 3, 59, 0
1, 20780, Note_off_c, 11, 50, 0
1, 20782, Note_off_c, 5, 59, 0
1, 20782, Note_off_c, 5, 67, 0
1, 20782, Note_off_c, 6, 59, 0
1, 20782, Note_off_c, 6, 67, 0
1, 20784, Note_on_c, 4, 59, 44
1, 20784, Note_on_c, 4, 62, 44
1, 20784, Note_on_c, 4, 67, 44
1, 20784, Note_on_c, 5, 55, 50
1, 20784, Note_on_c, 5, 62, 50
1, 20784, Note_on_c, 6, 55, 40
1, 20784, Note_on_c, 6, 62, 40
1, 20784, Note_on_c, 9, 42, 79
1, 20787, Note_off_c, 9, 42, 0
1, 20806, Note_off_c, 5, 55, 0
1, 20806, Note_off_c, 5, 62, 0
1, 20806, Note_off_c, 6, 55, 0
1, 20806, Note_off_c, 6, 62, 0
1, 20808, Note_on_c, 3, 59, 72
1, 20808, Note_on_c, 5, 59, 50
1, 20808, Note_on_c, 5, 67, 50
1, 20808, Note_on_c, 6, 59, 40
1, 20808, Note_on_c, 6, 67, 40
1, 20808, Note_on_c, 11, 50, 72
1, 20829, Note_off_c, 3, 59, 0
1, 20829, Note_off_c, 11, 50, 0
1, 20830, Note_off_c, 1, 31, 0
1, 20830, Note_off_c, 4, 59, 0
1, 20830, Note_off_c, 4, 62, 0
1, 20830, Note_off_c, 4, 67, 0
1, 20830, Note_off_c, 5, 59, 0
1, 20830, Note_off_c, 5, 67, 0
1, 20830, Note_off_c, 6, 59, 0
1, 20830, Note_off_c, 6, 67, 0
1, 20832, Note_on_c, 1, 31, 74
1, 20832, Note_on_c, 5, 62, 64
1, 20832, Note_on_c, 5, 71, 64
1, 20832, Note_on_c, 6, 62, 54
1, 20832, Note_on_c, 6, 71, 54
1, 20832, Note_on_c, 9, 35, 74
1, 20832, Note_on_c, 9, 42, 29
1, 20835, Note_off_c, 9, 35, 0
1, 20835, Note_off_c, 9, 42, 0
1, 20854, Note_off_c, 5, 62, 0
1, 20854, Note_off_c, 5, 71, 0
1, 20854, Note_off_c, 6, 62, 0
1, 20854, Note_off_c, 6, 71, 0
1, 20856, Note_on_c, 3, 59, 67
1, 20856, Note_on_c, 5, 59, 50
1, 20856, Note_on_c, 5, 67, 50
1, 20856, Note_on_c, 6, 59, 40
1, 20856, Note_on_c, 6, 67, 40
1, 20856, Note_on_c, 11, 50, 48
1, 20878, Note_off_c, 5, 59, 0
1, 20878, Note_off_c, 5, 67, 0
1, 20878, Note_off_c, 6, 59, 0
1, 20878, Note_off_c, 6, 67, 0
1, 20879, Note_off_c, 3, 59, 0
1, 20880, Note_on_c, 4, 59, 44
1, 20880, Note_on_c, 4, 62, 44
1, 20880, Note_on_c, 4, 67, 44
1, 20880, Note_on_c, 5, 55, 50
1, 20880, Note_on_c, 5, 62, 50
1, 20880, Note_on_c, 6, 55, 40
1, 20880, Note_on_c, 6, 62, 40
1, 20880, Note_on_c, 9, 37, 83
1, 20880, Note_on_c, 9, 42, 79
1, 20881, Note_off_c, 11, 50, 0
1, 20883, Note_off_c, 9, 37, 0
1, 20883, Note_off_c, 9, 42, 0
1, 20902, Note_off_c, 5, 55, 0
1, 20902, Note_off_c, 5, 62, 0
1, 20902, Note_off_c, 6, 55, 0
1, 20902, Note_off_c, 6, 62, 0
1, 20904, Note_on_c, 3, 62, 79
1, 20904, Note_on_c, 5, 59, 50
1, 20904, Note_on_c, 5, 67, 50
1, 20904, Note_on_c, 6, 59, 40
1, 20904, Note_on_c, 6, 67, 40
1, 20904, Note_on_c, 11, 55, 82
1, 20925, Note_off_c, 11, 55, 0
1, 20926, Note_off_c, 8, 74, 0
1, 20926, Note_off_c, 12, 74, 0
1, 20926, Note_off_c, 1, 31, 0
1, 20926, Note_off_c, 4, 59, 0
1, 20926, Note_off_c, 4, 62, 0
1, 20926, Note_off_c, 4, 67, 0
1, 20926, Note_off_c, 5, 59, 0
1, 20926, Note_off_c, 5, 67, 0
1, 20926, Note_off_c, 6, 59, 0
1, 20926, Note_off_c, 6, 67, 0
1, 20928, Note_on_c, 1, 31, 74
1, 20928, Note_on_c, 5, 62, 64
1, 20928, Note_on_c, 5, 71, 64
1, 20928, Note_on_c, 6, 62, 54
1, 20928, Note_on_c, 6, 71, 54
1, 20928, Note_on_c, 9, 42, 29
1, 20931, Note_off_c, 9, 42, 0
1, 20945, Note_off_c, 3, 62, 0
1, 20950, Note_off_c, 5, 62, 0
1, 20950, Note_off_c, 5, 71, 0
1, 20950, Note_off_c, 6, 62, 0
1, 20950, Note_off_c, 6, 71, 0
1, 20952, Note_on_c, 3, 62, 75
1, 20952, Note_on_c, 5, 59, 50
1, 20952, Note_on_c, 5, 67, 50
1, 20952, Note_on_c, 6, 59, 40
1, 20952, Note_on_c, 6, 67, 40
1, 20952, Note_on_c, 11, 55, 70
1, 20960, Note_on_c, 8, 71, 125
1, 20960, Note_on_c, 12, 71, 108
1, 20970, Note_off_c, 3, 62, 0
1, 20972, Note_off_c, 11, 55, 0
1, 20974, Note_off_c, 5, 59, 0
1, 20974, Note_off_c, 5, 67, 0
1, 20974, Note_off_c, 6, 59, 0
1, 20974, Note_off_c, 6, 67, 0
1, 20976, Note_on_c, 3, 59, 64
1, 20976, Note_on_c, 4, 59, 44
1, 20976, Note_on_c, 4, 62, 44
1, 20976, Note_on_c, 4, 67, 44
1, 20976, Note_on_c, 5, 55, 50
1, 20976, Note_on_c, 5, 62, 50
1, 20976, Note_on_c, 6, 55, 40
1, 20976, Note_on_c, 6, 62, 40
1, 20976, Note_on_c, 9, 42, 79
1, 20976, Note_on_c, 11, 50, 75
1, 20979, Note_off_c, 9, 42, 0
1, 20990, Note_off_c, 8, 71, 0
1, 20990, Note_off_c, 12, 71, 0
1, 20992, Note_on_c, 8, 74, 125
1, 20992, Note_on_c, 12, 74, 108
1, 20998, Note_off_c, 5, 55, 0
1, 20998, Note_off_c, 5, 62, 0
1, 20998, Note_off_c, 6, 55, 0
1, 20998, Note_off_c, 6, 62, 0
1, 21000, Note_on_c, 5, 59, 50
1, 21000, Note_on_c, 5, 67, 50
1, 21000, Note_on_c, 6, 59, 40
1, 21000, Note_on_c, 6, 67, 40
1, 21022, Note_off_c, 1, 31, 0
1, 21022, Note_off_c, 4, 59, 0
1, 21022, Note_off_c, 4, 62, 0
1, 21022, Note_off_c, 4, 67, 0
1, 21022, Note_off_c, 8, 74, 0
1, 21022, Note_off_c, 12, 74, 0
1, 21022, Note_off_c, 5, 59, 0
1, 21022, Note_off_c, 5, 67, 0
1, 21022, Note_off_c, 6, 59, 0
1, 21022, Note_off_c, 6, 67, 0
1, 21024, Note_on_c, 1, 31, 74
1, 21024, Note_on_c, 5, 62, 64
1, 21024, Note_on_c, 5, 71, 64
1, 21024, Note_on_c, 6, 62, 54
1, 21024, Note_on_c, 6, 71, 54
1, 21024, Note_on_c, 8, 79, 125
1, 21024, Note_on_c, 9, 35, 74
1, 21024, Note_on_c, 9, 42, 29
1, 21024, Note_on_c, 12, 79, 108
1, 21027, Note_off_c, 9, 35, 0
1, 21027, Note_off_c, 9, 42, 0
1, 21033, Note_off_c, 3, 59, 0
1, 21035, Note_off_c, 11, 50, 0
1, 21046, Note_off_c, 1, 31, 0
1, 21046, Note_off_c, 5, 62, 0
1, 21046, Note_off_c, 5, 71, 0
1, 21046, Note_off_c, 6, 62, 0
1, 21046, Note_off_c, 6, 71, 0
1, 21048, Note_on_c, 5, 59, 50
1, 21048, Note_on_c, 5, 67, 50
1, 21048, Note_on_c, 6, 59, 40
1, 21048, Note_on_c, 6, 67, 40
1, 21054, Note_off_c, 8, 79, 0
1, 21054, Note_off_c, 12, 79, 0
1, 21056, Note_on_c, 8, 81, 125
1, 21056, Note_on_c, 12, 81, 108
1, 21070, Note_off_c, 5, 59, 0
1, 21070, Note_off_c, 5, 67, 0
1, 21070, Note_off_c, 6, 59, 0
1, 21070, Note_off_c, 6, 67, 0
1, 21072, Note_on_c, 1, 31, 74
1, 21072, Note_on_c, 4, 59, 44
1, 21072, Note_on_c, 4, 62, 44
1, 21072, Note_on_c, 4, 67, 44
1, 21072, Note_on_c, 5, 55, 50
1, 21072, Note_on_c, 5, 62, 50
1, 21072, Note_on_c, 6, 55, 40
1, 21072, Note_on_c, 6, 62, 40
1, 21072, Pitch_bend_c, 8, 11905
1, 21072, Note_on_c, 9, 37, 83
1, 21072, Note_on_c, 9, 42, 79
1, 21072, Pitch_bend_c, 12, 11905
1, 21075, Note_off_c, 9, 37, 0
1, 21075, Note_off_c, 9, 42, 0
1, 21088, Pitch_bend_c, 8, 16257
1, 21088, Pitch_bend_c, 12, 16257
1, 21094, Note_off_c, 5, 55, 0
1, 21094, Note_off_c, 5, 62, 0
1, 21094, Note_off_c, 6, 55, 0
1, 21094, Note_off_c, 6, 62, 0
1, 21096, Note_on_c, 3, 59, 71
1, 21096, Note_on_c, 5, 59, 50
1, 21096, Note_on_c, 5, 67, 50
1, 21096, Note_on_c, 6, 59, 40
1, 21096, Note_on_c, 6, 67, 40
1, 21096, Note_on_c, 11, 50, 77
1, 21110, Note_off_c, 3, 59, 0
1, 21116, Note_off_c, 11, 50, 0
1, 21118, Note_off_c, 8, 81, 0
1, 21118, Note_off_c, 12, 81, 0
1, 21118, Note_off_c, 1, 31, 0
1, 21118, Note_off_c, 4, 59, 0
1, 21118, Note_off_c, 4, 62, 0
1, 21118, Note_off_c, 4, 67, 0
1, 21118, Note_off_c, 5, 59, 0
1, 21118, Note_off_c, 5, 67, 0
1, 21118, Note_off_c, 6, 59, 0
1, 21118, Note_off_c, 6, 67, 0
1, 21120, Note_on_c, 1, 33, 74
1, 21120, Note_on_c, 3, 61, 81
1, 21120, Note_on_c, 5, 64, 64
1, 21120, Note_on_c, 5, 73, 64
1, 21120, Note_on_c, 6, 64, 54
1, 21120, Note_on_c, 6, 73, 54
1, 21120, Pitch_bend_c, 8, 8193
1, 21120, Note_on_c, 8, 81, 125
1, 21120, Note_on_c, 9, 42, 29
1, 21120, Note_on_c, 11, 52, 80
1, 21120, Pitch_bend_c, 12, 8193
1, 21120, Note_on_c, 12, 81, 108
1, 21123, Note_off_c, 9, 42, 0
1, 21140, Note_off_c, 3, 61, 0
1, 21142, Note_off_c, 5, 64, 0
1, 21142, Note_off_c, 5, 73, 0
1, 21142, Note_off_c, 6, 64, 0
1, 21142, Note_off_c, 6, 73, 0
1, 21142, Note_off_c, 11, 52, 0
1, 21144, Note_on_c, 3, 61, 76
1, 21144, Note_on_c, 5, 61, 50
1, 21144, Note_on_c, 5, 69, 50
1, 21144, Note_on_c, 6, 61, 40
1, 21144, Note_on_c, 6, 69, 40
1, 21144, Note_on_c, 11, 52, 77
1, 21158, Note_off_c, 3, 61, 0
1, 21161, Note_off_c, 11, 52, 0
1, 21166, Note_off_c, 5, 61, 0
1, 21166, Note_off_c, 5, 69, 0
1, 21166, Note_off_c, 6, 61, 0
1, 21166, Note_off_c, 6, 69, 0
1, 21168, Note_on_c, 4, 61, 44
1, 21168, Note_on_c, 4, 64, 44
1, 21168, Note_on_c, 4, 69, 44
1, 21168, Note_on_c, 5, 57, 50
1, 21168, Note_on_c, 5, 64, 50
1, 21168, Note_on_c, 6, 57, 40
1, 21168, Note_on_c, 6, 64, 40
1, 21168, Note_on_c, 9, 42, 79
1, 21171, Note_off_c, 9, 42, 0
1, 21190, Note_off_c, 5, 57, 0
1, 21190, Note_off_c, 5, 64, 0
1, 21190, Note_off_c, 6, 57, 0
1, 21190, Note_off_c, 6, 64, 0
1, 21192, Note_on_c, 3, 61, 77
1, 21192, Note_on_c, 5, 61, 50
1, 21192, Note_on_c, 5, 69, 50
1, 21192, Note_on_c, 6, 61, 40
1, 21192, Note_on_c, 6, 69, 40
1, 21192, Note_on_c, 11, 52, 79
1, 21208, Note_off_c, 11, 52, 0
1, 21210, Note_off_c, 3, 61, 0
1, 21214, Note_off_c, 1, 33, 0
1, 21214, Note_off_c, 4, 61, 0
1, 21214, Note_off_c, 4, 64, 0
1, 21214, Note_off_c, 4, 69, 0
1, 21214, Note_off_c, 5, 61, 0
1, 21214, Note_off_c, 5, 69, 0
1, 21214, Note_off_c, 6, 61, 0
1, 21214, Note_off_c, 6, 69, 0
1, 21216, Note_on_c, 1, 33, 74
1, 21216, Note_on_c, 5, 64, 64
1, 21216, Note_on_c, 5, 73, 64
1, 21216, Note_on_c, 6, 64, 54
1, 21216, Note_on_c, 6, 73, 54
1, 21216, Note_on_c, 9, 35, 74
1, 21216, Note_on_c, 9, 42, 29
1, 21219, Note_off_c, 9, 35, 0
1, 21219, Note_off_c, 9, 42, 0
1, 21238, Note_off_c, 5, 64, 0
1, 21238, Note_off_c, 5, 73, 0
1, 21238, Note_off_c, 6, 64, 0
1, 21238, Note_off_c, 6, 73, 0
1, 21240, Note_on_c, 3, 61, 74
1, 21240, Note_on_c, 5, 61, 50
1, 21240, Note_on_c, 5, 69, 50
1, 21240, Note_on_c, 6, 61, 40
1, 21240, Note_on_c, 6, 69, 40
1, 21240, Note_on_c, 11, 52, 75
1, 21260, Note_off_c, 3, 61, 0
1, 21262, Note_off_c, 5, 61, 0
1, 21262, Note_off_c, 5, 69, 0
1, 21262, Note_off_c, 6, 61, 0
1, 21262, Note_off_c, 6, 69, 0
1, 21264, Note_on_c, 4, 61, 44
1, 21264, Note_on_c, 4, 64, 44
1, 21264, Note_on_c, 4, 69, 44
1, 21264, Note_on_c, 5, 57, 50
1, 21264, Note_on_c, 5, 64, 50
1, 21264, Note_on_c, 6, 57, 40
1, 21264, Note_on_c, 6, 64, 40
1, 21264, Note_on_c, 9, 37, 83
1, 21264, Note_on_c, 9, 42, 79
1, 21266, Note_off_c, 11, 52, 0
1, 21267, Note_off_c, 9, 37, 0
1, 21267, Note_off_c, 9, 42, 0
1, 21286, Note_off_c, 5, 57, 0
1, 21286, Note_off_c, 5, 64, 0
1, 21286, Note_off_c, 6, 57, 0
1, 21286, Note_off_c, 6, 64, 0
1, 21288, Note_on_c, 3, 64, 77
1, 21288, Note_on_c, 5, 61, 50
1, 21288, Note_on_c, 5, 69, 50
1, 21288, Note_on_c, 6, 61, 40
1, 21288, Note_on_c, 6, 69, 40
1, 21288, Note_on_c, 11, 57, 83
1, 21307, Note_off_c, 3, 64, 0
1, 21307, Note_off_c, 11, 57, 0
1, 21310, Note_off_c, 1, 33, 0
1, 21310, Note_off_c, 4, 61, 0
1, 21310, Note_off_c, 4, 64, 0
1, 21310, Note_off_c, 4, 69, 0
1, 21310, Note_off_c, 5, 61, 0
1, 21310, Note_off_c, 5, 69, 0
1, 21310, Note_off_c, 6, 61, 0
1, 21310, Note_off_c, 6, 69, 0
1, 21312, Note_on_c, 1, 33, 74
1, 21312, Note_on_c, 5, 64, 64
1, 21312, Note_on_c, 5, 73, 64
1, 21312, Note_on_c, 6, 64, 54
1, 21312, Note_on_c, 6, 73, 54
1, 21312, Note_on_c, 9, 42, 29
1, 21315, Note_off_c, 9, 42, 0
1, 21334, Note_off_c, 5, 64, 0
1, 21334, Note_off_c, 5, 73, 0
1, 21334, Note_off_c, 6, 64, 0
1, 21334, Note_off_c, 6, 73, 0
1, 21336, Note_on_c, 3, 64, 71
1, 21336, Note_on_c, 5, 61, 50
1, 21336, Note_on_c, 5, 69, 50
1, 21336, Note_on_c, 6, 61, 40
1, 21336, Note_on_c, 6, 69, 40
1, 21336, Note_on_c, 11, 57, 80
1, 21358, Note_off_c, 3, 64, 0
1, 21358, Note_off_c, 5, 61, 0
1, 21358, Note_off_c, 5, 69, 0
1, 21358, Note_off_c, 6, 61, 0
1, 21358, Note_off_c, 6, 69, 0
1, 21360, Note_on_c, 3, 61, 72
1, 21360, Note_on_c, 4, 61, 44
1, 21360, Note_on_c, 4, 64, 44
1, 21360, Note_on_c, 4, 69, 44
1, 21360, Note_on_c, 5, 57, 50
1, 21360, Note_on_c, 5, 64, 50
1, 21360, Note_on_c, 6, 57, 40
1, 21360, Note_on_c, 6, 64, 40
1, 21360, Note_on_c, 9, 42, 79
1, 21360, Note_on_c, 11, 52, 76
1, 21361, Note_off_c, 11, 57, 0
1, 21363, Note_off_c, 9, 42, 0
1, 21382, Note_off_c, 5, 57, 0
1, 21382, Note_off_c, 5, 64, 0
1, 21382, Note_off_c, 6, 57, 0
1, 21382, Note_off_c, 6, 64, 0
1, 21384, Note_on_c, 5, 61, 50
1, 21384, Note_on_c, 5, 69, 50
1, 21384, Note_on_c, 6, 61, 40
1, 21384, Note_on_c, 6, 69, 40
1, 21401, Note_off_c, 3, 61, 0
1, 21406, Note_off_c, 1, 33, 0
1, 21406, Note_off_c, 4, 61, 0
1, 21406, Note_off_c, 4, 64, 0
1, 21406, Note_off_c, 4, 69, 0
1, 21406, Note_off_c, 5, 61, 0
1, 21406, Note_off_c, 5, 69, 0
1, 21406, Note_off_c, 6, 61, 0
1, 21406, Note_off_c, 6, 69, 0
1, 21408, Note_on_c, 1, 33, 74
1, 21408, Note_on_c, 5, 64, 64
1, 21408, Note_on_c, 5, 73, 64
1, 21408, Note_on_c, 6, 64, 54
1, 21408, Note_on_c, 6, 73, 54
1, 21408, Note_on_c, 9, 35, 74
1, 21408, Note_on_c, 9, 42, 29
1, 21411, Note_off_c, 9, 35, 0
1, 21411, Note_off_c, 9, 42, 0
1, 21430, Note_off_c, 8, 81, 0
1, 21430, Note_off_c, 12, 81, 0
1, 21430, Note_off_c, 5, 64, 0
1, 21430, Note_off_c, 5, 73, 0
1, 21430, Note_off_c, 6, 64, 0
1, 21430, Note_off_c, 6, 73, 0
1, 21431, Note_off_c, 11, 52, 0
1, 21432, Note_on_c, 5, 61, 50
1, 21432, Note_on_c, 5, 69, 50
1, 21432, Note_on_c, 6, 61, 40
1, 21432, Note_on_c, 6, 69, 40
1, 21432, Pitch_bend_c, 8, 8449
1, 21432, Note_on_c, 8, 83, 125
1, 21432, Pitch_bend_c, 12, 8449
1, 21432, Note_on_c, 12, 83, 108
1, 21444, Pitch_bend_c, 8, 12417
1, 21444, Pitch_bend_c, 12, 12417
1, 21454, Note_off_c, 5, 61, 0
1, 21454, Note_off_c, 5, 69, 0
1, 21454, Note_off_c, 6, 61, 0
1, 21454, Note_off_c, 6, 69, 0
1, 21456, Note_on_c, 4, 61, 44
1, 21456, Note_on_c, 4, 64, 44
1, 21456, Note_on_c, 4, 69, 44
1, 21456, Note_on_c, 5, 57, 50
1, 21456, Note_on_c, 5, 64, 50
1, 21456, Note_on_c, 6, 57, 40
1, 21456, Note_on_c, 6, 64, 40
1, 21456, Pitch_bend_c, 8, 16257
1, 21456, Note_on_c, 9, 37, 83
1, 21456, Note_on_c, 9, 42, 79
1, 21456, Pitch_bend_c, 12, 16257
1, 21459, Note_off_c, 9, 37, 0
1, 21459, Note_off_c, 9, 42, 0
1, 21478, Note_off_c, 5, 57, 0
1, 21478, Note_off_c, 5, 64, 0
1, 21478, Note_off_c, 6, 57, 0
1, 21478, Note_off_c, 6, 64, 0
1, 21480, Note_on_c, 3, 59, 64
1, 21480, Note_on_c, 5, 61, 50
1, 21480, Note_on_c, 5, 69, 50
1, 21480, Note_on_c, 6, 61, 40
1, 21480, Note_on_c, 6, 69, 40
1, 21480, Pitch_bend_c, 8, 12417
1, 21480, Pitch_bend_c, 12, 12417
1, 21492, Pitch_bend_c, 8, 8193
1, 21492, Pitch_bend_c, 12, 8193
1, 21501, Note_off_c, 3, 59, 0
1, 21502, Note_off_c, 1, 33, 0
1, 21502, Note_off_c, 4, 61, 0
1, 21502, Note_off_c, 4, 64, 0
1, 21502, Note_off_c, 4, 69, 0
1, 21502, Note_off_c, 5, 61, 0
1, 21502, Note_off_c, 5, 69, 0
1, 21502, Note_off_c, 6, 61, 0
1, 21502, Note_off_c, 6, 69, 0
1, 21504, Note_on_c, 1, 34, 74
1, 21504, Note_on_c, 3, 64, 80
1, 21504, Note_on_c, 5, 66, 64
1, 21504, Note_on_c, 5, 73, 64
1, 21504, Note_on_c, 6, 66, 54
1, 21504, Note_on_c, 6, 73, 54
1, 21504, Pitch_bend_c, 8, 4353
1, 21504, Note_on_c, 9, 42, 29
1, 21504, Note_on_c, 11, 54, 80
1, 21504, Pitch_bend_c, 12, 4353
1, 21507, Note_off_c, 9, 42, 0
1, 21524, Note_off_c, 11, 54, 0
1, 21525, Note_off_c, 3, 64, 0
1, 21526, Note_off_c, 5, 66, 0
1, 21526, Note_off_c, 5, 73, 0
1, 21526, Note_off_c, 6, 66, 0
1, 21526, Note_off_c, 6, 73, 0
1, 21528, Note_on_c, 3, 64, 74
1, 21528, Note_on_c, 5, 61, 50
1, 21528, Note_on_c, 5, 70, 50
1, 21528, Note_on_c, 6, 61, 40
1, 21528, Note_on_c, 6, 70, 40
1, 21528, Note_on_c, 11, 54, 82
1, 21549, Note_off_c, 3, 64, 0
1, 21549, Note_off_c, 11, 54, 0
1, 21550, Note_off_c, 5, 61, 0
1, 21550, Note_off_c, 5, 70, 0
1, 21550, Note_off_c, 6, 61, 0
1, 21550, Note_off_c, 6, 70, 0
1, 21552, Note_on_c, 4, 61, 44
1, 21552, Note_on_c, 4, 66, 44
1, 21552, Note_on_c, 4, 70, 44
1, 21552, Note_on_c, 5, 58, 50
1, 21552, Note_on_c, 5, 66, 50
1, 21552, Note_on_c, 6, 58, 40
1, 21552, Note_on_c, 6, 66, 40
1, 21552, Note_on_c, 9, 42, 79
1, 21555, Note_off_c, 9, 42, 0
1, 21574, Note_off_c, 5, 58, 0
1, 21574, Note_off_c, 5, 66, 0
1, 21574, Note_off_c, 6, 58, 0
1, 21574, Note_off_c, 6, 66, 0
1, 21576, Note_on_c, 3, 64, 80
1, 21576, Note_on_c, 5, 61, 50
1, 21576, Note_on_c, 5, 70, 50
1, 21576, Note_on_c, 6, 61, 40
1, 21576, Note_on_c, 6, 70, 40
1, 21576, Note_on_c, 11, 54, 80
1, 21597, Note_off_c, 11, 54, 0
1, 21598, Note_off_c, 4, 61, 0
1, 21598, Note_off_c, 4, 66, 0
1, 21598, Note_off_c, 4, 70, 0
1, 21598, Note_off_c, 5, 61, 0
1, 21598, Note_off_c, 5, 70, 0
1, 21598, Note_off_c, 6, 61, 0
1, 21598, Note_off_c, 6, 70, 0
1, 21600, Note_on_c, 5, 66, 64
1, 21600, Note_on_c, 5, 73, 64
1, 21600, Note_on_c, 6, 66, 54
1, 21600, Note_on_c, 6, 73, 54
1, 21600, Note_on_c, 9, 35, 74
1, 21600, Note_on_c, 9, 42, 29
1, 21602, Note_off_c, 3, 64, 0
1, 21603, Note_off_c, 9, 35, 0
1, 21603, Note_off_c, 9, 42, 0
1, 21622, Note_off_c, 5, 66, 0
1, 21622, Note_off_c, 5, 73, 0
1, 21622, Note_off_c, 6, 66, 0
1, 21622, Note_off_c, 6, 73, 0
1, 21624, Note_on_c, 3, 66, 78
1, 21624, Note_on_c, 5, 61, 50
1, 21624, Note_on_c, 5, 70, 50
1, 21624, Note_on_c, 6, 61, 40
1, 21624, Note_on_c, 6, 70, 40
1, 21624, Note_on_c, 11, 58, 82
1, 21645, Note_off_c, 3, 66, 0
1, 21646, Note_off_c, 5, 61, 0
1, 21646, Note_off_c, 5, 70, 0
1, 21646, Note_off_c, 6, 61, 0
1, 21646, Note_off_c, 6, 70, 0
1, 21648, Note_on_c, 4, 61, 44
1, 21648, Note_on_c, 4, 66, 44
1, 21648, Note_on_c, 4, 70, 44
1, 21648, Note_on_c, 5, 58, 50
1, 21648, Note_on_c, 5, 66, 50
1, 21648, Note_on_c, 6, 58, 40
1, 21648, Note_on_c, 6, 66, 40
1, 21648, Note_on_c, 9, 37, 83
1, 21648, Note_on_c, 9, 42, 79
1, 21650, Note_off_c, 11, 58, 0
1, 21651, Note_off_c, 9, 37, 0
1, 21651, Note_off_c, 9, 42, 0
1, 21670, Note_off_c, 5, 58, 0
1, 21670, Note_off_c, 5, 66, 0
1, 21670, Note_off_c, 6, 58, 0
1, 21670, Note_off_c, 6, 66, 0
1, 21672, Note_on_c, 3, 67, 76
1, 21672, Note_on_c, 5, 61, 50
1, 21672, Note_on_c, 5, 70, 50
1, 21672, Note_on_c, 6, 61, 40
1, 21672, Note_on_c, 6, 70, 40
1, 21672, Note_on_c, 11, 61, 84
1, 21694, Note_off_c, 4, 61, 0
1, 21694, Note_off_c, 4, 66, 0
1, 21694, Note_off_c, 4, 70, 0
1, 21694, Note_off_c, 5, 61, 0
1, 21694, Note_off_c, 5, 70, 0
1, 21694, Note_off_c, 6, 61, 0
1, 21694, Note_off_c, 6, 70, 0
1, 21696, Note_on_c, 5, 66, 64
1, 21696, Note_on_c, 5, 73, 64
1, 21696, Note_on_c, 6, 66, 54
1, 21696, Note_on_c, 6, 73, 54
1, 21696, Note_on_c, 9, 42, 29
1, 21699, Note_off_c, 9, 42, 0
1, 21700, Note_off_c, 3, 67, 0
1, 21700, Note_off_c, 11, 61, 0
1, 21718, Note_off_c, 5, 66, 0
1, 21718, Note_off_c, 5, 73, 0
1, 21718, Note_off_c, 6, 66, 0
1, 21718, Note_off_c, 6, 73, 0
1, 21720, Note_on_c, 3, 66, 76
1, 21720, Note_on_c, 5, 61, 50
1, 21720, Note_on_c, 5, 70, 50
1, 21720, Note_on_c, 6, 61, 40
1, 21720, Note_on_c, 6, 70, 40
1, 21720, Note_on_c, 11, 58, 83
1, 21741, Note_off_c, 11, 58, 0
1, 21742, Note_off_c, 5, 61, 0
1, 21742, Note_off_c, 5, 70, 0
1, 21742, Note_off_c, 6, 61, 0
1, 21742, Note_off_c, 6, 70, 0
1, 21744, Note_on_c, 4, 61, 44
1, 21744, Note_on_c, 4, 66, 44
1, 21744, Note_on_c, 4, 70, 44
1, 21744, Note_on_c, 5, 58, 50
1, 21744, Note_on_c, 5, 66, 50
1, 21744, Note_on_c, 6, 58, 40
1, 21744, Note_on_c, 6, 66, 40
1, 21744, Note_on_c, 9, 42, 79
1, 21746, Note_off_c, 3, 66, 0
1, 21747, Note_off_c, 9, 42, 0
1, 21766, Note_off_c, 8, 83, 0
1, 21766, Note_off_c, 12, 83, 0
1, 21766, Note_off_c, 5, 58, 0
1, 21766, Note_off_c, 5, 66, 0
1, 21766, Note_off_c, 6, 58, 0
1, 21766, Note_off_c, 6, 66, 0
1, 21768, Note_on_c, 3, 64, 72
1, 21768, Note_on_c, 5, 61, 50
1, 21768, Note_on_c, 5, 70, 50
1, 21768, Note_on_c, 6, 61, 40
1, 21768, Note_on_c, 6, 70, 40
1, 21768, Note_on_c, 11, 54, 71
1, 21790, Note_off_c, 4, 61, 0
1, 21790, Note_off_c, 4, 66, 0
1, 21790, Note_off_c, 4, 70, 0
1, 21790, Note_off_c, 5, 61, 0
1, 21790, Note_off_c, 5, 70, 0
1, 21790, Note_off_c, 6, 61, 0
1, 21790, Note_off_c, 6, 70, 0
1, 21792, Note_on_c, 5, 66, 64
1, 21792, Note_on_c, 5, 73, 64
1, 21792, Note_on_c, 6, 66, 54
1, 21792, Note_on_c, 6, 73, 54
1, 21792, Pitch_bend_c, 8, 8193
1, 21792, Note_on_c, 8, 82, 125
1, 21792, Note_on_c, 9, 35, 74
1, 21792, Note_on_c, 9, 42, 29
1, 21792, Pitch_bend_c, 12, 8193
1, 21792, Note_on_c, 12, 82, 108
1, 21795, Note_off_c, 9, 35, 0
1, 21795, Note_off_c, 9, 42, 0
1, 21810, Note_off_c, 11, 54, 0
1, 21814, Note_off_c, 3, 64, 0
1, 21814, Note_off_c, 5, 66, 0
1, 21814, Note_off_c, 5, 73, 0
1, 21814, Note_off_c, 6, 66, 0
1, 21814, Note_off_c, 6, 73, 0
1, 21814, Note_off_c, 8, 82, 0
1, 21814, Note_off_c, 12, 82, 0
1, 21816, Note_on_c, 3, 66, 77
1, 21816, Note_on_c, 5, 61, 50
1, 21816, Note_on_c, 5, 70, 50
1, 21816, Note_on_c, 6, 61, 40
1, 21816, Note_on_c, 6, 70, 40
1, 21816, Note_on_c, 11, 58, 78
1, 21824, Note_on_c, 8, 83, 125
1, 21824, Note_on_c, 12, 83, 108
1, 21838, Note_off_c, 3, 66, 0
1, 21838, Note_off_c, 5, 61, 0
1, 21838, Note_off_c, 5, 70, 0
1, 21838, Note_off_c, 6, 61, 0
1, 21838, Note_off_c, 6, 70, 0
1, 21840, Note_on_c, 3, 66, 80
1, 21840, Note_on_c, 4, 61, 44
1, 21840, Note_on_c, 4, 66, 44
1, 21840, Note_on_c, 4, 70, 44
1, 21840, Note_on_c, 5, 58, 50
1, 21840, Note_on_c, 5, 66, 50
1, 21840, Note_on_c, 6, 58, 40
1, 21840, Note_on_c, 6, 66, 40
1, 21840, Note_on_c, 9, 37, 83
1, 21840, Note_on_c, 9, 42, 79
1, 21840, Note_on_c, 11, 59, 87
1, 21843, Note_off_c, 9, 37, 0
1, 21843, Note_off_c, 9, 42, 0
1, 21846, Note_off_c, 8, 83, 0
1, 21846, Note_off_c, 12, 83, 0
1, 21852, Note_off_c, 11, 58, 0
1, 21856, Note_on_c, 8, 85, 125
1, 21856, Note_on_c, 12, 85, 108
1, 21862, Note_off_c, 5, 58, 0
1, 21862, Note_off_c, 5, 66, 0
1, 21862, Note_off_c, 6, 58, 0
1, 21862, Note_off_c, 6, 66, 0
1, 21864, Note_on_c, 5, 61, 50
1, 21864, Note_on_c, 5, 70, 50
1, 21864, Note_on_c, 6, 61, 40
1, 21864, Note_on_c, 6, 70, 40
1, 21878, Note_off_c, 8, 85, 0
1, 21878, Note_off_c, 12, 85, 0
1, 21886, Note_off_c, 1, 34, 0
1, 21886, Note_off_c, 4, 61, 0
1, 21886, Note_off_c, 4, 66, 0
1, 21886, Note_off_c, 4, 70, 0
1, 21886, Note_off_c, 5, 61, 0
1, 21886, Note_off_c, 5, 70, 0
1, 21886, Note_off_c, 6, 61, 0
1, 21886, Note_off_c, 6, 70, 0
1, 21888, Note_on_c, 1, 35, 74
1, 21888, Note_on_c, 5, 66, 64
1, 21888, Note_on_c, 5, 74, 64
1, 21888, Note_on_c, 6, 66, 54
1, 21888, Note_on_c, 6, 74, 54
1, 21888, Note_on_c, 8, 86, 125
1, 21888, Note_on_c, 9, 42, 29
1, 21888, Note_on_c, 12, 86, 108
1, 21891, Note_off_c, 9, 42, 0
1, 21910, Note_off_c, 5, 66, 0
1, 21910, Note_off_c, 5, 74, 0
1, 21910, Note_off_c, 6, 66, 0
1, 21910, Note_off_c, 6, 74, 0
1, 21912, Note_on_c, 5, 62, 50
1, 21912, Note_on_c, 5, 71, 50
1, 21912, Note_on_c, 6, 62, 40
1, 21912, Note_on_c, 6, 71, 40
1, 21934, Note_off_c, 5, 62, 0
1, 21934, Note_off_c, 5, 71, 0
1, 21934, Note_off_c, 6, 62, 0
1, 21934, Note_off_c, 6, 71, 0
1, 21936, Note_on_c, 4, 62, 44
1, 21936, Note_on_c, 4, 66, 44
1, 21936, Note_on_c, 4, 71, 44
1, 21936, Note_on_c, 5, 59, 50
1, 21936, Note_on_c, 5, 66, 50
1, 21936, Note_on_c, 6, 59, 40
1, 21936, Note_on_c, 6, 66, 40
1, 21936, Note_on_c, 9, 42, 79
1, 21939, Note_off_c, 9, 42, 0
1, 21958, Note_off_c, 5, 59, 0
1, 21958, Note_off_c, 5, 66, 0
1, 21958, Note_off_c, 6, 59, 0
1, 21958, Note_off_c, 6, 66, 0
1, 21960, Note_on_c, 5, 62, 50
1, 21960, Note_on_c, 5, 71, 50
1, 21960, Note_on_c, 6, 62, 40
1, 21960, Note_on_c, 6, 71, 40
1, 21982, Note_off_c, 8, 86, 0
1, 21982, Note_off_c, 12, 86, 0
1, 21982, Note_off_c, 4, 62, 0
1, 21982, Note_off_c, 4, 66, 0
1, 21982, Note_off_c, 4, 71, 0
1, 21982, Note_off_c, 5, 62, 0
1, 21982, Note_off_c, 5, 71, 0
1, 21982, Note_off_c, 6, 62, 0
1, 21982, Note_off_c, 6, 71, 0
1, 21984, Control_c, 8, 11, 91
1, 21984, Control_c, 12, 11, 91
1, 21984, Note_on_c, 5, 66, 64
1, 21984, Note_on_c, 5, 74, 64
1, 21984, Note_on_c, 6, 66, 54
1, 21984, Note_on_c, 6, 74, 54
1, 21984, Note_on_c, 8, 83, 95
1, 21984, Note_on_c, 9, 35, 74
1, 21984, Note_on_c, 9, 42, 29
1, 21984, Note_on_c, 12, 83, 100
1, 21987, Note_off_c, 9, 35, 0
1, 21987, Note_off_c, 9, 42, 0
1, 22006, Note_off_c, 5, 66, 0
1, 22006, Note_off_c, 5, 74, 0
1, 22006, Note_off_c, 6, 66, 0
1, 22006, Note_off_c, 6, 74, 0
1, 22008, Control_c, 8, 11, 95
1, 22008, Control_c, 12, 11, 95
1, 22008, Note_on_c, 5, 62, 50
1, 22008, Note_on_c, 5, 71, 50
1, 22008, Note_on_c, 6, 62, 40
1, 22008, Note_on_c, 6, 71, 40
1, 22010, Note_off_c, 8, 83, 0
1, 22010, Note_off_c, 12, 83, 0
1, 22012, Note_on_c, 8, 86, 125
1, 22012, Note_on_c, 12, 86, 108
1, 22026, Note_off_c, 8, 86, 0
1, 22026, Note_off_c, 12, 86, 0
1, 22030, Note_off_c, 5, 62, 0
1, 22030, Note_off_c, 5, 71, 0
1, 22030, Note_off_c, 6, 62, 0
1, 22030, Note_off_c, 6, 71, 0
1, 22032, Control_c, 8, 11, 100
1, 22032, Control_c, 12, 11, 100
1, 22032, Note_on_c, 4, 62, 44
1, 22032, Note_on_c, 4, 66, 44
1, 22032, Note_on_c, 4, 71, 44
1, 22032, Note_on_c, 5, 59, 50
1, 22032, Note_on_c, 5, 66, 50
1, 22032, Note_on_c, 6, 59, 40
1, 22032, Note_on_c, 6, 66, 40
1, 22032, Note_on_c, 8, 85, 125
1, 22032, Note_on_c, 9, 37, 83
1, 22032, Note_on_c, 9, 42, 79
1, 22032, Note_on_c, 12, 85, 108
1, 22035, Note_off_c, 9, 37, 0
1, 22035, Note_off_c, 9, 42, 0
1, 22054, Note_off_c, 5, 59, 0
1, 22054, Note_off_c, 5, 66, 0
1, 22054, Note_off_c, 6, 59, 0
1, 22054, Note_off_c, 6, 66, 0
1, 22056, Control_c, 8, 11, 105
1, 22056, Control_c, 12, 11, 105
1, 22056, Note_on_c, 5, 62, 50
1, 22056, Note_on_c, 5, 71, 50
1, 22056, Note_on_c, 6, 62, 40
1, 22056, Note_on_c, 6, 71, 40
1, 22058, Note_off_c, 8, 85, 0
1, 22058, Note_off_c, 12, 85, 0
1, 22060, Note_on_c, 8, 83, 95
1, 22060, Note_on_c, 12, 83, 100
1, 22072, Note_off_c, 11, 59, 0
1, 22074, Note_off_c, 8, 83, 0
1, 22074, Note_off_c, 12, 83, 0
1, 22078, Note_off_c, 1, 35, 0
1, 22078, Note_off_c, 4, 62, 0
1, 22078, Note_off_c, 4, 66, 0
1, 22078, Note_off_c, 4, 71, 0
1, 22078, Note_off_c, 5, 62, 0
1, 22078, Note_off_c, 5, 71, 0
1, 22078, Note_off_c, 6, 62, 0
1, 22078, Note_off_c, 6, 71, 0
1, 22079, Note_off_c, 3, 66, 0
1, 22080, Control_c, 8, 11, 110
1, 22080, Control_c, 12, 11, 110
1, 22080, Note_on_c, 1, 35, 74
1, 22080, Note_on_c, 5, 66, 64
1, 22080, Note_on_c, 5, 74, 64
1, 22080, Note_on_c, 6, 66, 54
1, 22080, Note_on_c, 6, 74, 54
1, 22080, Note_on_c, 8, 76, 125
1, 22080, Note_on_c, 9, 55, 59
1, 22080, Note_on_c, 12, 76, 108
1, 22083, Note_off_c, 9, 55, 0
1, 22102, Note_off_c, 5, 66, 0
1, 22102, Note_off_c, 5, 74, 0
1, 22102, Note_off_c, 6, 66, 0
1, 22102, Note_off_c, 6, 74, 0
1, 22102, Note_off_c, 8, 76, 0
1, 22102, Note_off_c, 12, 76, 0
1, 22104, Control_c, 8, 11, 115
1, 22104, Control_c, 12, 11, 115
1, 22126, Note_off_c, 1, 35, 0
1, 22128, Control_c, 8, 11, 120
1, 22128, Control_c, 12, 11, 120
1, 22128, Note_on_c, 8, 83, 125
1, 22128, Note_on_c, 12, 83, 108
1, 22152, Control_c, 8, 11, 125
1, 22152, Control_c, 12, 11, 125
1, 22154, Note_off_c, 8, 83, 0
1, 22154, Note_off_c, 12, 83, 0
1, 22156, Note_on_c, 8, 81, 95
1, 22156, Note_on_c, 12, 81, 100
1, 22170, Note_off_c, 8, 81, 0
1, 22170, Note_off_c, 12, 81, 0
1, 22176, Control_c, 8, 11, 127
1, 22176, Control_c, 12, 11, 127
1, 22176, Note_on_c, 8, 78, 125
1, 22176, Note_on_c, 12, 78, 108
1, 22202, Note_off_c, 8, 78, 0
1, 22202, Note_off_c, 12, 78, 0
1, 22204, Note_on_c, 8, 76, 95
1, 22204, Note_on_c, 12, 76, 100
1, 22218, Note_off_c, 8, 76, 0
1, 22218, Note_off_c, 12, 76, 0
1, 22224, Pitch_bend_c, 8, 4737
1, 22224, Note_on_c, 8, 71, 125
1, 22224, Pitch_bend_c, 12, 4737
1, 22224, Note_on_c, 12, 71, 108
1, 22236, Pitch_bend_c, 8, 8193
1, 22236, Pitch_bend_c, 12, 8193
1, 22250, Note_off_c, 8, 71, 0
1, 22250, Note_off_c, 12, 71, 0
1, 22252, Note_on_c, 8, 66, 95
1, 22252, Note_on_c, 12, 66, 100
1, 22266, Note_off_c, 8, 66, 0
1, 22266, Note_off_c, 12, 66, 0
1, 22272, Tempo, 300000
1, 22272, Note_on_c, 1, 40, 74
1, 22272, Note_on_c, 8, 69, 126
1, 22272, Note_on_c, 12, 69, 108
1, 22312, Control_c, 4, 10, 24
1, 22318, Note_off_c, 8, 69, 0
1, 22318, Note_off_c, 12, 69, 0
1, 22336, Control_c, 2, 11, 85
1, 22336, Note_on_c, 2, 55, 125
1, 22336, Note_on_c, 2, 57, 125
1, 22336, Note_on_c, 2, 62, 125
1, 22336, Note_on_c, 2, 66, 125
1, 22336, Note_on_c, 4, 62, 44
1, 22336, Note_on_c, 4, 67, 44
1, 22336, Note_on_c, 4, 71, 44
1, 22366, Note_off_c, 1, 40, 0
1, 22368, Note_on_c, 1, 35, 74
1, 22368, Note_on_c, 8, 69, 126
1, 22368, Note_on_c, 9, 40, 17
1, 22368, Note_on_c, 9, 44, 59
1, 22368, Note_on_c, 9, 59, 61
1, 22368, Note_on_c, 12, 69, 108
1, 22371, Note_off_c, 9, 40, 0
1, 22371, Note_off_c, 9, 44, 0
1, 22371, Note_off_c, 9, 59, 0
1, 22382, Note_off_c, 4, 62, 0
1, 22382, Note_off_c, 4, 67, 0
1, 22382, Note_off_c, 4, 71, 0
1, 22414, Note_off_c, 8, 69, 0
1, 22414, Note_off_c, 12, 69, 0
1, 22428, Note_on_c, 9, 59, 51
1, 22431, Note_off_c, 9, 59, 0
1, 22462, Note_off_c, 1, 35, 0
1, 22464, Note_on_c, 1, 40, 74
1, 22464, Note_on_c, 8, 69, 126
1, 22464, Note_on_c, 9, 59, 61
1, 22464, Note_on_c, 12, 69, 108
1, 22467, Note_off_c, 9, 59, 0
1, 22510, Note_off_c, 8, 69, 0
1, 22510, Note_off_c, 12, 69, 0
1, 22520, Note_on_c, 8, 70, 95
1, 22520, Note_on_c, 12, 70, 100
1, 22558, Note_off_c, 1, 40, 0
1, 22558, Note_off_c, 8, 70, 0
1, 22558, Note_off_c, 12, 70, 0
1, 22560, Note_on_c, 1, 43, 74
1, 22560, Note_on_c, 8, 71, 126
1, 22560, Note_on_c, 9, 44, 59
1, 22560, Note_on_c, 9, 59, 61
1, 22560, Note_on_c, 12, 71, 108
1, 22563, Note_off_c, 9, 44, 0
1, 22563, Note_off_c, 9, 59, 0
1, 22606, Note_off_c, 8, 71, 0
1, 22606, Note_off_c, 12, 71, 0
1, 22616, Note_on_c, 8, 70, 95
1, 22616, Note_on_c, 12, 70, 100
1, 22620, Note_on_c, 9, 40, 59
1, 22620, Note_on_c, 9, 59, 51
1, 22623, Note_off_c, 9, 40, 0
1, 22623, Note_off_c, 9, 59, 0
1, 22654, Note_off_c, 1, 43, 0
1, 22654, Note_off_c, 8, 70, 0
1, 22654, Note_off_c, 12, 70, 0
1, 22656, Note_on_c, 1, 45, 74
1, 22656, Note_on_c, 8, 69, 126
1, 22656, Note_on_c, 9, 59, 61
1, 22656, Note_on_c, 12, 69, 108
1, 22659, Note_off_c, 9, 59, 0
1, 22702, Note_off_c, 8, 69, 0
1, 22702, Note_off_c, 12, 69, 0
1, 22716, Note_on_c, 9, 59, 51
1, 22719, Note_off_c, 9, 59, 0
1, 22720, Note_on_c, 4, 64, 44
1, 22720, Note_on_c, 4, 69, 44
1, 22720, Note_on_c, 4, 73, 44
1, 22750, Note_off_c, 1, 45, 0
1, 22752, Note_on_c, 1, 40, 74
1, 22752, Note_on_c, 8, 69, 115
1, 22752, Note_on_c, 9, 44, 59
1, 22752, Note_on_c, 9, 59, 61
1, 22752, Note_on_c, 12, 69, 105
1, 22755, Note_off_c, 9, 44, 0
1, 22755, Note_off_c, 9, 59, 0
1, 22766, Note_off_c, 4, 64, 0
1, 22766, Note_off_c, 4, 69, 0
1, 22766, Note_off_c, 4, 73, 0
1, 22798, Note_off_c, 8, 69, 0
1, 22798, Note_off_c, 12, 69, 0
1, 22814, Note_off_c, 1, 40, 0
1, 22816, Note_on_c, 1, 45, 50
1, 22846, Note_off_c, 1, 45, 0
1, 22848, Note_on_c, 1, 45, 74
1, 22848, Note_on_c, 8, 69, 95
1, 22848, Note_on_c, 9, 59, 61
1, 22848, Note_on_c, 12, 69, 100
1, 22851, Note_off_c, 9, 59, 0
1, 22894, Note_off_c, 8, 69, 0
1, 22894, Note_off_c, 12, 69, 0
1, 22908, Note_on_c, 9, 40, 59
1, 22910, Note_off_c, 1, 45, 0
1, 22911, Note_off_c, 9, 40, 0
1, 22912, Note_on_c, 1, 40, 50
1, 22942, Note_off_c, 1, 40, 0
1, 22944, Note_on_c, 1, 46, 74
1, 22944, Pitch_bend_c, 8, 129
1, 22944, Note_on_c, 8, 73, 126
1, 22944, Note_on_c, 9, 44, 59
1, 22944, Note_on_c, 9, 59, 61
1, 22944, Pitch_bend_c, 12, 129
1, 22944, Note_on_c, 12, 73, 108
1, 22947, Note_off_c, 9, 44, 0
1, 22947, Note_off_c, 9, 59, 0
1, 22956, Pitch_bend_c, 8, 4097
1, 22956, Pitch_bend_c, 12, 4097
1, 22968, Pitch_bend_c, 8, 8065
1, 22968, Pitch_bend_c, 12, 8065
1, 22990, Note_off_c, 8, 73, 0
1, 22990, Note_off_c, 12, 73, 0
1, 23004, Note_on_c, 9, 59, 51
1, 23006, Note_off_c, 1, 46, 0
1, 23007, Note_off_c, 9, 59, 0
1, 23008, Note_on_c, 1, 40, 50
1, 23038, Note_off_c, 1, 40, 0
1, 23040, Note_on_c, 1, 47, 74
1, 23040, Note_on_c, 9, 59, 61
1, 23043, Note_off_c, 9, 59, 0
1, 23054, Note_off_c, 2, 55, 0
1, 23054, Note_off_c, 2, 57, 0
1, 23054, Note_off_c, 2, 62, 0
1, 23054, Note_off_c, 2, 66, 0
1, 23096, Note_on_c, 8, 66, 35
1, 23096, Note_on_c, 12, 66, 85
1, 23104, Note_on_c, 2, 57, 125
1, 23104, Note_on_c, 2, 61, 125
1, 23104, Note_on_c, 2, 62, 125
1, 23104, Note_on_c, 2, 66, 125
1, 23104, Note_on_c, 4, 66, 44
1, 23104, Note_on_c, 4, 71, 44
1, 23104, Note_on_c, 4, 74, 44
1, 23134, Note_off_c, 1, 47, 0
1, 23134, Note_off_c, 8, 66, 0
1, 23134, Note_off_c, 12, 66, 0
1, 23136, Note_on_c, 1, 49, 74
1, 23136, Note_on_c, 8, 69, 126
1, 23136, Note_on_c, 9, 44, 59
1, 23136, Note_on_c, 9, 59, 61
1, 23136, Note_on_c, 12, 69, 108
1, 23139, Note_off_c, 9, 44, 0
1, 23139, Note_off_c, 9, 59, 0
1, 23150, Note_off_c, 4, 66, 0
1, 23150, Note_off_c, 4, 71, 0
1, 23150, Note_off_c, 4, 74, 0
1, 23182, Note_off_c, 8, 69, 0
1, 23182, Note_off_c, 12, 69, 0
1, 23192, Note_on_c, 8, 66, 35
1, 23192, Note_on_c, 12, 66, 85
1, 23196, Note_on_c, 9, 40, 59
1, 23199, Note_off_c, 9, 40, 0
1, 23230, Note_off_c, 1, 49, 0
1, 23230, Note_off_c, 8, 66, 0
1, 23230, Note_off_c, 12, 66, 0
1, 23232, Note_on_c, 1, 50, 74
1, 23232, Note_on_c, 8, 69, 126
1, 23232, Note_on_c, 9, 59, 61
1, 23232, Note_on_c, 12, 69, 108
1, 23235, Note_off_c, 9, 59, 0
1, 23263, Note_off_c, 8, 69, 0
1, 23263, Note_off_c, 12, 69, 0
1, 23284, Note_on_c, 8, 70, 115
1, 23284, Note_on_c, 12, 70, 105
1, 23292, Note_on_c, 9, 59, 51
1, 23294, Note_off_c, 1, 50, 0
1, 23295, Note_off_c, 9, 59, 0
1, 23296, Note_on_c, 1, 38, 50
1, 23315, Note_off_c, 8, 70, 0
1, 23315, Note_off_c, 12, 70, 0
1, 23326, Note_off_c, 1, 38, 0
1, 23328, Note_on_c, 1, 46, 74
1, 23328, Note_on_c, 8, 71, 126
1, 23328, Note_on_c, 9, 44, 59
1, 23328, Note_on_c, 9, 59, 61
1, 23328, Note_on_c, 12, 71, 108
1, 23331, Note_off_c, 9, 44, 0
1, 23331, Note_off_c, 9, 59, 0
1, 23359, Note_off_c, 8, 71, 0
1, 23359, Note_off_c, 12, 71, 0
1, 23378, Note_on_c, 8, 70, 115
1, 23378, Note_on_c, 12, 70, 105
1, 23410, Note_off_c, 8, 70, 0
1, 23410, Note_off_c, 12, 70, 0
1, 23422, Note_off_c, 1, 46, 0
1, 23424, Note_on_c, 1, 47, 74
1, 23424, Note_on_c, 8, 69, 126
1, 23424, Note_on_c, 9, 59, 61
1, 23424, Note_on_c, 12, 69, 108
1, 23427, Note_off_c, 9, 59, 0
1, 23470, Note_off_c, 8, 69, 0
1, 23470, Note_off_c, 12, 69, 0
1, 23480, Note_on_c, 8, 66, 35
1, 23480, Note_on_c, 12, 66, 85
1, 23484, Note_on_c, 9, 40, 39
1, 23487, Note_off_c, 9, 40, 0
1, 23488, Note_on_c, 4, 62, 44
1, 23488, Note_on_c, 4, 66, 44
1, 23488, Note_on_c, 4, 71, 44
1, 23518, Note_off_c, 1, 47, 0
1, 23518, Note_off_c, 8, 66, 0
1, 23518, Note_off_c, 12, 66, 0
1, 23520, Note_on_c, 1, 45, 74
1, 23520, Note_on_c, 8, 69, 115
1, 23520, Note_on_c, 9, 44, 59
1, 23520, Note_on_c, 9, 59, 61
1, 23520, Note_on_c, 12, 69, 105
1, 23523, Note_off_c, 9, 44, 0
1, 23523, Note_off_c, 9, 59, 0
1, 23534, Note_off_c, 2, 57, 0
1, 23534, Note_off_c, 2, 61, 0
1, 23534, Note_off_c, 2, 62, 0
1, 23534, Note_off_c, 2, 66, 0
1, 23534, Note_off_c, 4, 62, 0
1, 23534, Note_off_c, 4, 66, 0
1, 23534, Note_off_c, 4, 71, 0
1, 23566, Note_off_c, 8, 69, 0
1, 23566, Note_off_c, 12, 69, 0
1, 23576, Note_on_c, 8, 66, 35
1, 23576, Note_on_c, 12, 66, 85
1, 23580, Note_on_c, 9, 59, 51
1, 23583, Note_off_c, 9, 59, 0
1, 23584, Note_on_c, 2, 74, 98
1, 23584, Note_on_c, 2, 81, 125
1, 23584, Note_on_c, 2, 86, 125
1, 23595, Note_off_c, 2, 74, 0
1, 23595, Note_off_c, 2, 81, 0
1, 23595, Note_off_c, 2, 86, 0
1, 23614, Note_off_c, 1, 45, 0
1, 23614, Note_off_c, 8, 66, 0
1, 23614, Note_off_c, 12, 66, 0
1, 23616, Note_on_c, 1, 43, 74
1, 23616, Note_on_c, 8, 69, 95
1, 23616, Note_on_c, 9, 59, 61
1, 23616, Note_on_c, 12, 69, 100
1, 23619, Note_off_c, 9, 59, 0
1, 23662, Note_off_c, 8, 69, 0
1, 23662, Note_off_c, 12, 69, 0
1, 23680, Note_on_c, 2, 76, 98
1, 23680, Note_on_c, 2, 83, 125
1, 23680, Note_on_c, 2, 88, 125
1, 23691, Note_off_c, 2, 76, 0
1, 23691, Note_off_c, 2, 83, 0
1, 23691, Note_off_c, 2, 88, 0
1, 23710, Note_off_c, 1, 43, 0
1, 23712, Note_on_c, 1, 42, 74
1, 23712, Note_on_c, 9, 44, 59
1, 23712, Note_on_c, 9, 59, 61
1, 23715, Note_off_c, 9, 44, 0
1, 23715, Note_off_c, 9, 59, 0
1, 23760, Pitch_bend_c, 8, 129
1, 23760, Pitch_bend_c, 12, 129
1, 23768, Note_on_c, 8, 81, 126
1, 23768, Note_on_c, 12, 81, 108
1, 23772, Pitch_bend_c, 8, 4097
1, 23772, Note_on_c, 9, 40, 17
1, 23772, Note_on_c, 9, 59, 51
1, 23772, Pitch_bend_c, 12, 4097
1, 23775, Note_off_c, 9, 40, 0
1, 23775, Note_off_c, 9, 59, 0
1, 23784, Pitch_bend_c, 8, 8065
1, 23784, Pitch_bend_c, 12, 8065
1, 23806, Note_off_c, 1, 42, 0
1, 23808, Note_on_c, 1, 40, 74
1, 23808, Note_on_c, 9, 59, 61
1, 23811, Note_off_c, 9, 59, 0
1, 23814, Note_off_c, 8, 81, 0
1, 23814, Note_off_c, 12, 81, 0
1, 23864, Note_on_c, 8, 66, 35
1, 23864, Note_on_c, 12, 66, 85
1, 23868, Note_on_c, 9, 59, 51
1, 23871, Note_off_c, 9, 59, 0
1, 23872, Note_on_c, 2, 55, 98
1, 23872, Note_on_c, 2, 59, 98
1, 23872, Note_on_c, 2, 62, 98
1, 23872, Note_on_c, 2, 66, 98
1, 23872, Note_on_c, 2, 79, 98
1, 23872, Note_on_c, 2, 86, 125
1, 23872, Note_on_c, 2, 90, 125
1, 23872, Note_on_c, 4, 62, 44
1, 23872, Note_on_c, 4, 67, 44
1, 23872, Note_on_c, 4, 71, 44
1, 23883, Note_off_c, 2, 55, 0
1, 23883, Note_off_c, 2, 59, 0
1, 23883, Note_off_c, 2, 62, 0
1, 23883, Note_off_c, 2, 66, 0
1, 23883, Note_off_c, 2, 79, 0
1, 23883, Note_off_c, 2, 86, 0
1, 23883, Note_off_c, 2, 90, 0
1, 23902, Note_off_c, 1, 40, 0
1, 23902, Note_off_c, 8, 66, 0
1, 23902, Note_off_c, 12, 66, 0
1, 23904, Note_on_c, 1, 38, 74
1, 23904, Note_on_c, 8, 69, 126
1, 23904, Note_on_c, 9, 44, 59
1, 23904, Note_on_c, 9, 59, 61
1, 23904, Note_on_c, 12, 69, 108
1, 23907, Note_off_c, 9, 44, 0
1, 23907, Note_off_c, 9, 59, 0
1, 23918, Note_off_c, 4, 62, 0
1, 23918, Note_off_c, 4, 67, 0
1, 23918, Note_off_c, 4, 71, 0
1, 23950, Note_off_c, 8, 69, 0
1, 23950, Note_off_c, 12, 69, 0
1, 23960, Note_on_c, 8, 66, 35
1, 23960, Note_on_c, 12, 66, 85
1, 23998, Note_off_c, 1, 38, 0
1, 23998, Note_off_c, 8, 66, 0
1, 23998, Note_off_c, 12, 66, 0
1, 24000, Note_on_c, 1, 37, 74
1, 24000, Note_on_c, 2, 55, 98
1, 24000, Note_on_c, 2, 59, 98
1, 24000, Note_on_c, 2, 62, 98
1, 24000, Note_on_c, 2, 66, 98
1, 24000, Note_on_c, 2, 74, 124
1, 24000, Note_on_c, 2, 81, 124
1, 24000, Note_on_c, 2, 86, 124
1, 24000, Note_on_c, 8, 69, 126
1, 24000, Note_on_c, 9, 59, 71
1, 24000, Note_on_c, 12, 69, 108
1, 24003, Note_off_c, 9, 59, 0
1, 24046, Note_off_c, 8, 69, 0
1, 24046, Note_off_c, 12, 69, 0
1, 24056, Note_on_c, 8, 70, 115
1, 24056, Note_on_c, 12, 70, 105
1, 24094, Note_off_c, 1, 37, 0
1, 24096, Note_on_c, 1, 35, 74
1, 24096, Note_on_c, 9, 44, 59
1, 24096, Note_on_c, 9, 59, 61
1, 24099, Note_off_c, 9, 44, 0
1, 24099, Note_off_c, 9, 59, 0
1, 24102, Note_off_c, 8, 70, 0
1, 24102, Note_off_c, 12, 70, 0
1, 24142, Note_off_c, 2, 55, 0
1, 24142, Note_off_c, 2, 59, 0
1, 24142, Note_off_c, 2, 62, 0
1, 24142, Note_off_c, 2, 66, 0
1, 24142, Note_off_c, 2, 74, 0
1, 24142, Note_off_c, 2, 81, 0
1, 24142, Note_off_c, 2, 86, 0
1, 24152, Pitch_bend_c, 8, 3841
1, 24152, Note_on_c, 8, 71, 126
1, 24152, Pitch_bend_c, 12, 3841
1, 24152, Note_on_c, 12, 71, 108
1, 24156, Note_on_c, 9, 35, 59
1, 24156, Note_on_c, 9, 59, 71
1, 24159, Note_off_c, 9, 35, 0
1, 24159, Note_off_c, 9, 59, 0
1, 24160, Note_on_c, 2, 55, 98
1, 24160, Note_on_c, 2, 59, 98
1, 24160, Note_on_c, 2, 61, 98
1, 24160, Note_on_c, 2, 64, 98
1, 24160, Note_on_c, 2, 76, 98
1, 24160, Note_on_c, 2, 81, 125
1, 24160, Note_on_c, 2, 85, 125
1, 24168, Pitch_bend_c, 8, 8065
1, 24168, Pitch_bend_c, 12, 8065
1, 24190, Note_off_c, 1, 35, 0
1, 24192, Note_on_c, 1, 33, 74
1, 24198, Note_off_c, 8, 71, 0
1, 24198, Note_off_c, 12, 71, 0
1, 24218, Note_on_c, 8, 70, 115
1, 24218, Note_on_c, 12, 70, 105
1, 24252, Note_on_c, 9, 59, 51
1, 24254, Note_off_c, 8, 70, 0
1, 24254, Note_off_c, 12, 70, 0
1, 24255, Note_off_c, 9, 59, 0
1, 24256, Note_on_c, 4, 64, 44
1, 24256, Note_on_c, 4, 69, 44
1, 24256, Note_on_c, 4, 73, 44
1, 24282, Note_on_c, 8, 69, 126
1, 24282, Note_on_c, 12, 69, 108
1, 24286, Note_off_c, 1, 33, 0
1, 24288, Note_on_c, 1, 29, 74
1, 24288, Note_on_c, 9, 44, 59
1, 24288, Note_on_c, 9, 59, 61
1, 24291, Note_off_c, 9, 44, 0
1, 24291, Note_off_c, 9, 59, 0
1, 24302, Note_off_c, 4, 64, 0
1, 24302, Note_off_c, 4, 69, 0
1, 24302, Note_off_c, 4, 73, 0
1, 24312, Note_off_c, 8, 69, 0
1, 24312, Note_off_c, 12, 69, 0
1, 24326, Note_on_c, 8, 66, 115
1, 24326, Note_on_c, 12, 66, 105
1, 24350, Note_off_c, 2, 55, 0
1, 24350, Note_off_c, 2, 59, 0
1, 24350, Note_off_c, 2, 61, 0
1, 24350, Note_off_c, 2, 64, 0
1, 24350, Note_off_c, 2, 76, 0
1, 24350, Note_off_c, 2, 81, 0
1, 24350, Note_off_c, 2, 85, 0
1, 24352, Note_on_c, 2, 73, 98
1, 24352, Note_on_c, 2, 76, 98
1, 24352, Note_on_c, 2, 81, 125
1, 24361, Note_off_c, 8, 66, 0
1, 24361, Note_off_c, 12, 66, 0
1, 24363, Note_off_c, 2, 73, 0
1, 24363, Note_off_c, 2, 76, 0
1, 24363, Note_off_c, 2, 81, 0
1, 24371, Note_on_c, 8, 69, 126
1, 24371, Note_on_c, 12, 69, 108
1, 24382, Note_off_c, 1, 29, 0
1, 24384, Note_on_c, 1, 30, 74
1, 24384, Note_on_c, 9, 59, 61
1, 24387, Note_off_c, 9, 59, 0
1, 24409, Note_off_c, 8, 69, 0
1, 24409, Note_off_c, 12, 69, 0
1, 24421, Note_on_c, 8, 70, 115
1, 24421, Note_on_c, 12, 70, 105
1, 24444, Note_on_c, 9, 40, 17
1, 24444, Note_on_c, 9, 59, 61
1, 24447, Note_off_c, 9, 40, 0
1, 24447, Note_off_c, 9, 59, 0
1, 24448, Note_on_c, 2, 69, 98
1, 24448, Note_on_c, 2, 73, 98
1, 24448, Note_on_c, 2, 76, 125
1, 24451, Note_off_c, 8, 70, 0
1, 24451, Note_off_c, 12, 70, 0
1, 24459, Note_off_c, 2, 69, 0
1, 24459, Note_off_c, 2, 73, 0
1, 24459, Note_off_c, 2, 76, 0
1, 24471, Pitch_bend_c, 8, 3585
1, 24471, Note_on_c, 8, 71, 126
1, 24471, Pitch_bend_c, 12, 3585
1, 24471, Note_on_c, 12, 71, 108
1, 24478, Note_off_c, 1, 30, 0
1, 24480, Note_on_c, 1, 34, 74
1, 24480, Pitch_bend_c, 8, 5761
1, 24480, Note_on_c, 9, 44, 59
1, 24480, Pitch_bend_c, 12, 5761
1, 24483, Note_off_c, 9, 44, 0
1, 24492, Pitch_bend_c, 8, 8193
1, 24492, Pitch_bend_c, 12, 8193
1, 24534, Note_off_c, 8, 71, 0
1, 24534, Note_off_c, 12, 71, 0
1, 24536, Note_on_c, 8, 70, 115
1, 24536, Note_on_c, 12, 70, 105
1, 24540, Note_on_c, 9, 35, 59
1, 24540, Note_on_c, 9, 59, 61
1, 24543, Note_off_c, 9, 35, 0
1, 24543, Note_off_c, 9, 59, 0
1, 24544, Note_on_c, 2, 54, 98
1, 24544, Note_on_c, 2, 62, 98
1, 24544, Note_on_c, 2, 64, 98
1, 24544, Note_on_c, 2, 69, 98
1, 24544, Note_on_c, 2, 73, 98
1, 24544, Note_on_c, 2, 74, 125
1, 24566, Note_off_c, 8, 70, 0
1, 24566, Note_off_c, 12, 70, 0
1, 24574, Note_off_c, 1, 34, 0
1, 24576, Note_on_c, 1, 35, 74
1, 24576, Note_on_c, 8, 69, 126
1, 24576, Note_on_c, 9, 40, 59
1, 24576, Note_on_c, 9, 59, 61
1, 24576, Note_on_c, 12, 69, 108
1, 24579, Note_off_c, 9, 40, 0
1, 24579, Note_off_c, 9, 59, 0
1, 24622, Note_off_c, 8, 69, 0
1, 24622, Note_off_c, 12, 69, 0
1, 24632, Note_on_c, 8, 66, 115
1, 24632, Note_on_c, 12, 66, 105
1, 24640, Note_on_c, 4, 66, 44
1, 24640, Note_on_c, 4, 71, 44
1, 24640, Note_on_c, 4, 74, 44
1, 24670, Note_off_c, 2, 54, 0
1, 24670, Note_off_c, 2, 62, 0
1, 24670, Note_off_c, 2, 64, 0
1, 24670, Note_off_c, 2, 69, 0
1, 24670, Note_off_c, 2, 73, 0
1, 24670, Note_off_c, 2, 74, 0
1, 24670, Note_off_c, 1, 35, 0
1, 24670, Note_off_c, 8, 66, 0
1, 24670, Note_off_c, 12, 66, 0
1, 24672, Note_on_c, 1, 37, 74
1, 24672, Note_on_c, 2, 62, 125
1, 24672, Note_on_c, 8, 62, 95
1, 24672, Note_on_c, 9, 44, 59
1, 24672, Note_on_c, 12, 62, 100
1, 24675, Note_off_c, 9, 44, 0
1, 24686, Note_off_c, 4, 66, 0
1, 24686, Note_off_c, 4, 71, 0
1, 24686, Note_off_c, 4, 74, 0
1, 24718, Note_off_c, 2, 62, 0
1, 24718, Note_off_c, 8, 62, 0
1, 24718, Note_off_c, 12, 62, 0
1, 24728, Note_on_c, 8, 64, 126
1, 24728, Note_on_c, 12, 64, 108
1, 24732, Note_on_c, 9, 40, 39
1, 24732, Note_on_c, 9, 59, 61
1, 24735, Note_off_c, 9, 40, 0
1, 24735, Note_off_c, 9, 59, 0
1, 24736, Note_on_c, 2, 54, 125
1, 24766, Note_off_c, 1, 37, 0
1, 24768, Note_on_c, 1, 38, 74
1, 24782, Note_off_c, 2, 54, 0
1, 24828, Note_on_c, 9, 40, 17
1, 24828, Note_on_c, 9, 59, 61
1, 24831, Note_off_c, 9, 40, 0
1, 24831, Note_off_c, 9, 59, 0
1, 24862, Note_off_c, 1, 38, 0
1, 24864, Note_on_c, 1, 41, 74
1, 24864, Note_on_c, 9, 40, 39
1, 24864, Note_on_c, 9, 44, 59
1, 24864, Note_on_c, 9, 59, 61
1, 24867, Note_off_c, 9, 40, 0
1, 24867, Note_off_c, 9, 44, 0
1, 24867, Note_off_c, 9, 59, 0
1, 24870, Note_off_c, 8, 64, 0
1, 24870, Note_off_c, 12, 64, 0
1, 24928, Note_on_c, 2, 54, 98
1, 24928, Note_on_c, 2, 62, 98
1, 24928, Note_on_c, 2, 64, 125
1, 24928, Note_on_c, 2, 69, 98
1, 24928, Note_on_c, 2, 73, 125
1, 24939, Note_off_c, 2, 54, 0
1, 24939, Note_off_c, 2, 62, 0
1, 24939, Note_off_c, 2, 64, 0
1, 24939, Note_off_c, 2, 69, 0
1, 24939, Note_off_c, 2, 73, 0
1, 24958, Note_off_c, 1, 41, 0
1, 24960, Note_on_c, 1, 42, 74
1, 25016, Note_on_c, 8, 66, 55
1, 25016, Note_on_c, 12, 66, 90
1, 25020, Note_on_c, 9, 40, 39
1, 25020, Note_on_c, 9, 59, 61
1, 25023, Note_off_c, 9, 40, 0
1, 25023, Note_off_c, 9, 59, 0
1, 25024, Note_on_c, 2, 62, 98
1, 25024, Note_on_c, 2, 71, 98
1, 25024, Note_on_c, 4, 62, 44
1, 25024, Note_on_c, 4, 66, 44
1, 25024, Note_on_c, 4, 71, 44
1, 25046, Note_off_c, 2, 71, 0
1, 25054, Note_off_c, 1, 42, 0
1, 25054, Note_off_c, 8, 66, 0
1, 25054, Note_off_c, 12, 66, 0
1, 25054, Note_off_c, 2, 62, 0
1, 25056, Note_on_c, 1, 46, 74
1, 25056, Note_on_c, 2, 54, 98
1, 25056, Note_on_c, 2, 64, 125
1, 25056, Note_on_c, 2, 69, 98
1, 25056, Note_on_c, 2, 73, 125
1, 25056, Note_on_c, 8, 69, 126
1, 25056, Note_on_c, 9, 44, 59
1, 25056, Note_on_c, 12, 69, 108
1, 25059, Note_off_c, 9, 44, 0
1, 25070, Note_off_c, 4, 62, 0
1, 25070, Note_off_c, 4, 66, 0
1, 25070, Note_off_c, 4, 71, 0
1, 25102, Note_off_c, 8, 69, 0
1, 25102, Note_off_c, 12, 69, 0
1, 25112, Note_on_c, 8, 66, 55
1, 25112, Note_on_c, 12, 66, 90
1, 25116, Note_on_c, 9, 40, 17
1, 25116, Note_on_c, 9, 59, 61
1, 25119, Note_off_c, 9, 40, 0
1, 25119, Note_off_c, 9, 59, 0
1, 25150, Note_off_c, 1, 46, 0
1, 25150, Note_off_c, 8, 66, 0
1, 25150, Note_off_c, 12, 66, 0
1, 25152, Note_on_c, 1, 47, 74
1, 25152, Note_on_c, 8, 67, 126
1, 25152, Note_on_c, 9, 40, 39
1, 25152, Note_on_c, 9, 59, 61
1, 25152, Note_on_c, 12, 67, 108
1, 25155, Note_off_c, 9, 40, 0
1, 25155, Note_off_c, 9, 59, 0
1, 25198, Note_off_c, 8, 67, 0
1, 25198, Note_off_c, 12, 67, 0
1, 25208, Note_on_c, 8, 69, 115
1, 25208, Note_on_c, 12, 69, 105
1, 25230, Note_off_c, 8, 69, 0
1, 25230, Note_off_c, 12, 69, 0
1, 25246, Note_off_c, 2, 54, 0
1, 25246, Note_off_c, 2, 64, 0
1, 25246, Note_off_c, 2, 69, 0
1, 25246, Note_off_c, 2, 73, 0
1, 25246, Note_off_c, 1, 47, 0
1, 25248, Note_on_c, 1, 45, 74
1, 25248, Note_on_c, 2, 54, 125
1, 25248, Note_on_c, 2, 62, 125
1, 25248, Note_on_c, 8, 71, 126
1, 25248, Note_on_c, 9, 44, 59
1, 25248, Note_on_c, 12, 71, 108
1, 25251, Note_off_c, 9, 44, 0
1, 25285, Note_off_c, 8, 71, 0
1, 25285, Note_off_c, 12, 71, 0
1, 25304, Note_on_c, 8, 73, 115
1, 25304, Note_on_c, 12, 73, 105
1, 25308, Note_on_c, 9, 35, 59
1, 25308, Note_on_c, 9, 59, 61
1, 25311, Note_off_c, 9, 35, 0
1, 25311, Note_off_c, 9, 59, 0
1, 25342, Note_off_c, 1, 45, 0
1, 25342, Note_off_c, 2, 54, 0
1, 25342, Note_off_c, 2, 62, 0
1, 25342, Note_off_c, 8, 73, 0
1, 25342, Note_off_c, 12, 73, 0
1, 25344, Note_on_c, 1, 43, 74
1, 25344, Note_on_c, 8, 74, 126
1, 25344, Note_on_c, 12, 74, 108
1, 25381, Note_off_c, 8, 74, 0
1, 25381, Note_off_c, 12, 74, 0
1, 25400, Note_on_c, 8, 76, 55
1, 25400, Note_on_c, 12, 76, 90
1, 25404, Note_on_c, 9, 59, 61
1, 25407, Note_off_c, 9, 59, 0
1, 25408, Note_on_c, 4, 62, 44
1, 25408, Note_on_c, 4, 67, 44
1, 25408, Note_on_c, 4, 71, 44
1, 25422, Note_off_c, 8, 76, 0
1, 25422, Note_off_c, 12, 76, 0
1, 25438, Note_off_c, 1, 43, 0
1, 25440, Note_on_c, 1, 42, 74
1, 25440, Note_on_c, 2, 55, 98
1, 25440, Note_on_c, 2, 62, 98
1, 25440, Note_on_c, 2, 66, 98
1, 25440, Note_on_c, 2, 69, 98
1, 25440, Note_on_c, 8, 78, 126
1, 25440, Note_on_c, 9, 44, 59
1, 25440, Note_on_c, 9, 59, 61
1, 25440, Note_on_c, 12, 78, 108
1, 25443, Note_off_c, 9, 44, 0
1, 25443, Note_off_c, 9, 59, 0
1, 25454, Note_off_c, 4, 62, 0
1, 25454, Note_off_c, 4, 67, 0
1, 25454, Note_off_c, 4, 71, 0
1, 25471, Note_off_c, 8, 78, 0
1, 25471, Note_off_c, 12, 78, 0
1, 25488, Note_on_c, 8, 79, 95
1, 25488, Note_on_c, 12, 79, 100
1, 25494, Note_off_c, 8, 79, 0
1, 25494, Note_off_c, 12, 79, 0
1, 25496, Note_on_c, 8, 78, 95
1, 25496, Note_on_c, 12, 78, 100
1, 25534, Note_off_c, 1, 42, 0
1, 25534, Note_off_c, 2, 55, 0
1, 25534, Note_off_c, 2, 62, 0
1, 25534, Note_off_c, 2, 66, 0
1, 25534, Note_off_c, 2, 69, 0
1, 25534, Note_off_c, 8, 78, 0
1, 25534, Note_off_c, 12, 78, 0
1, 25536, Note_on_c, 1, 40, 74
1, 25536, Note_on_c, 8, 76, 126
1, 25536, Note_on_c, 12, 76, 108
1, 25582, Note_off_c, 8, 76, 0
1, 25582, Note_off_c, 12, 76, 0
1, 25592, Note_on_c, 8, 74, 95
1, 25592, Note_on_c, 12, 74, 100
1, 25596, Note_on_c, 9, 40, 39
1, 25596, Note_on_c, 9, 59, 61
1, 25599, Note_off_c, 9, 40, 0
1, 25599, Note_off_c, 9, 59, 0
1, 25630, Note_off_c, 1, 40, 0
1, 25630, Note_off_c, 8, 74, 0
1, 25630, Note_off_c, 12, 74, 0
1, 25632, Note_on_c, 1, 38, 74
1, 25632, Note_on_c, 2, 55, 98
1, 25632, Note_on_c, 2, 62, 98
1, 25632, Note_on_c, 2, 66, 98
1, 25632, Note_on_c, 2, 69, 98
1, 25632, Note_on_c, 8, 73, 95
1, 25632, Note_on_c, 9, 44, 59
1, 25632, Note_on_c, 12, 73, 100
1, 25635, Note_off_c, 9, 44, 0
1, 25678, Note_off_c, 8, 73, 0
1, 25678, Note_off_c, 12, 73, 0
1, 25692, Note_on_c, 9, 59, 61
1, 25695, Note_off_c, 9, 59, 0
1, 25726, Note_off_c, 1, 38, 0
1, 25726, Note_off_c, 2, 55, 0
1, 25726, Note_off_c, 2, 62, 0
1, 25726, Note_off_c, 2, 66, 0
1, 25726, Note_off_c, 2, 69, 0
1, 25728, Note_on_c, 1, 37, 74
1, 25728, Note_on_c, 8, 71, 126
1, 25728, Note_on_c, 9, 59, 61
1, 25728, Note_on_c, 12, 71, 108
1, 25731, Note_off_c, 9, 59, 0
1, 25764, Pitch_bend_c, 8, 7297
1, 25764, Pitch_bend_c, 12, 7297
1, 25774, Note_off_c, 8, 71, 0
1, 25774, Note_off_c, 12, 71, 0
1, 25776, Pitch_bend_c, 8, 6273
1, 25776, Pitch_bend_c, 12, 6273
1, 25784, Pitch_bend_c, 8, 8193
1, 25784, Note_on_c, 8, 69, 35
1, 25784, Pitch_bend_c, 12, 8193
1, 25784, Note_on_c, 12, 69, 85
1, 25792, Note_on_c, 4, 64, 44
1, 25792, Note_on_c, 4, 69, 44
1, 25792, Note_on_c, 4, 73, 44
1, 25822, Note_off_c, 1, 37, 0
1, 25822, Note_off_c, 8, 69, 0
1, 25822, Note_off_c, 12, 69, 0
1, 25824, Note_on_c, 1, 40, 74
1, 25824, Note_on_c, 8, 70, 75
1, 25824, Note_on_c, 9, 44, 59
1, 25824, Note_on_c, 12, 70, 95
1, 25827, Note_off_c, 9, 44, 0
1, 25838, Note_off_c, 4, 64, 0
1, 25838, Note_off_c, 4, 69, 0
1, 25838, Note_off_c, 4, 73, 0
1, 25870, Note_off_c, 8, 70, 0
1, 25870, Note_off_c, 12, 70, 0
1, 25880, Note_on_c, 8, 73, 75
1, 25880, Note_on_c, 12, 73, 95
1, 25884, Note_on_c, 9, 35, 59
1, 25884, Note_on_c, 9, 59, 61
1, 25887, Note_off_c, 9, 35, 0
1, 25887, Note_off_c, 9, 59, 0
1, 25888, Note_on_c, 2, 55, 98
1, 25888, Note_on_c, 2, 62, 98
1, 25888, Note_on_c, 2, 66, 98
1, 25888, Note_on_c, 2, 69, 98
1, 25918, Note_off_c, 1, 40, 0
1, 25918, Note_off_c, 8, 73, 0
1, 25918, Note_off_c, 12, 73, 0
1, 25920, Note_on_c, 1, 45, 74
1, 25920, Note_on_c, 8, 76, 95
1, 25920, Note_on_c, 12, 76, 100
1, 25966, Note_off_c, 8, 76, 0
1, 25966, Note_off_c, 12, 76, 0
1, 25976, Note_on_c, 8, 79, 126
1, 25976, Note_on_c, 12, 79, 108
1, 25980, Note_on_c, 9, 59, 61
1, 25983, Note_off_c, 9, 59, 0
1, 26004, Pitch_bend_c, 8, 6273
1, 26004, Pitch_bend_c, 12, 6273
1, 26014, Note_off_c, 1, 45, 0
1, 26016, Note_on_c, 1, 44, 74
1, 26016, Pitch_bend_c, 8, 4609
1, 26016, Note_on_c, 9, 35, 59
1, 26016, Note_on_c, 9, 44, 59
1, 26016, Note_on_c, 9, 59, 61
1, 26016, Pitch_bend_c, 12, 4609
1, 26019, Note_off_c, 9, 35, 0
1, 26019, Note_off_c, 9, 44, 0
1, 26019, Note_off_c, 9, 59, 0
1, 26070, Note_off_c, 8, 79, 0
1, 26070, Note_off_c, 12, 79, 0
1, 26072, Pitch_bend_c, 8, 8193
1, 26072, Note_on_c, 8, 76, 95
1, 26072, Pitch_bend_c, 12, 8193
1, 26072, Note_on_c, 12, 76, 100
1, 26110, Note_off_c, 1, 44, 0
1, 26110, Note_off_c, 8, 76, 0
1, 26110, Note_off_c, 12, 76, 0
1, 26112, Note_on_c, 1, 43, 74
1, 26112, Note_on_c, 8, 74, 95
1, 26112, Note_on_c, 12, 74, 100
1, 26126, Note_off_c, 2, 55, 0
1, 26126, Note_off_c, 2, 62, 0
1, 26126, Note_off_c, 2, 66, 0
1, 26126, Note_off_c, 2, 69, 0
1, 26143, Note_off_c, 8, 74, 0
1, 26143, Note_off_c, 12, 74, 0
1, 26163, Note_on_c, 8, 76, 126
1, 26163, Note_on_c, 12, 76, 108
1, 26172, Note_on_c, 9, 40, 39
1, 26172, Note_on_c, 9, 59, 61
1, 26175, Note_off_c, 9, 40, 0
1, 26175, Note_off_c, 9, 59, 0
1, 26176, Note_on_c, 2, 57, 98
1, 26176, Note_on_c, 2, 61, 98
1, 26176, Note_on_c, 2, 64, 98
1, 26176, Note_on_c, 2, 69, 125
1, 26176, Note_on_c, 4, 66, 44
1, 26176, Note_on_c, 4, 71, 44
1, 26176, Note_on_c, 4, 74, 44
1, 26194, Note_off_c, 8, 76, 0
1, 26194, Note_off_c, 12, 76, 0
1, 26206, Note_off_c, 1, 43, 0
1, 26208, Note_on_c, 1, 41, 74
1, 26208, Note_on_c, 8, 73, 95
1, 26208, Note_on_c, 9, 44, 59
1, 26208, Note_on_c, 12, 73, 100
1, 26211, Note_off_c, 9, 44, 0
1, 26222, Note_off_c, 4, 66, 0
1, 26222, Note_off_c, 4, 71, 0
1, 26222, Note_off_c, 4, 74, 0
1, 26239, Note_off_c, 8, 73, 0
1, 26239, Note_off_c, 12, 73, 0
1, 26259, Note_on_c, 8, 74, 126
1, 26259, Note_on_c, 12, 74, 108
1, 26268, Note_on_c, 9, 40, 17
1, 26268, Note_on_c, 9, 59, 61
1, 26271, Note_off_c, 9, 40, 0
1, 26271, Note_off_c, 9, 59, 0
1, 26290, Note_off_c, 8, 74, 0
1, 26290, Note_off_c, 12, 74, 0
1, 26302, Note_off_c, 2, 57, 0
1, 26302, Note_off_c, 2, 61, 0
1, 26302, Note_off_c, 2, 64, 0
1, 26302, Note_off_c, 2, 69, 0
1, 26302, Note_off_c, 1, 41, 0
1, 26304, Note_on_c, 1, 42, 74
1, 26304, Note_on_c, 2, 57, 98
1, 26304, Note_on_c, 2, 61, 98
1, 26304, Note_on_c, 2, 64, 98
1, 26304, Note_on_c, 2, 66, 125
1, 26304, Note_on_c, 8, 71, 126
1, 26304, Note_on_c, 9, 40, 39
1, 26304, Note_on_c, 9, 59, 61
1, 26304, Note_on_c, 12, 71, 108
1, 26307, Note_off_c, 9, 40, 0
1, 26307, Note_off_c, 9, 59, 0
1, 26335, Note_off_c, 8, 71, 0
1, 26335, Note_off_c, 12, 71, 0
1, 26355, Note_on_c, 8, 66, 55
1, 26355, Note_on_c, 12, 66, 90
1, 26386, Note_off_c, 8, 66, 0
1, 26386, Note_off_c, 12, 66, 0
1, 26398, Note_off_c, 1, 42, 0
1, 26400, Note_on_c, 1, 40, 74
1, 26400, Note_on_c, 8, 68, 95
1, 26400, Note_on_c, 9, 44, 59
1, 26400, Note_on_c, 12, 68, 100
1, 26403, Note_off_c, 9, 44, 0
1, 26446, Note_off_c, 2, 57, 0
1, 26446, Note_off_c, 2, 61, 0
1, 26446, Note_off_c, 2, 64, 0
1, 26446, Note_off_c, 2, 66, 0
1, 26446, Note_off_c, 8, 68, 0
1, 26446, Note_off_c, 12, 68, 0
1, 26451, Note_on_c, 8, 70, 115
1, 26451, Note_on_c, 12, 70, 105
1, 26460, Note_on_c, 9, 35, 59
1, 26460, Note_on_c, 9, 59, 71
1, 26463, Note_off_c, 9, 35, 0
1, 26463, Note_off_c, 9, 59, 0
1, 26464, Note_on_c, 2, 56, 98
1, 26464, Note_on_c, 2, 57, 98
1, 26464, Note_on_c, 2, 59, 98
1, 26464, Note_on_c, 2, 62, 98
1, 26464, Note_on_c, 2, 69, 125
1, 26489, Note_off_c, 8, 70, 0
1, 26489, Note_off_c, 12, 70, 0
1, 26494, Note_off_c, 1, 40, 0
1, 26496, Note_on_c, 1, 38, 74
1, 26496, Note_on_c, 8, 71, 126
1, 26496, Note_on_c, 12, 71, 108
1, 26542, Note_off_c, 8, 71, 0
1, 26542, Note_off_c, 12, 71, 0
1, 26552, Note_on_c, 8, 73, 95
1, 26552, Note_on_c, 12, 73, 100
1, 26556, Note_on_c, 9, 59, 61
1, 26559, Note_off_c, 9, 59, 0
1, 26560, Note_on_c, 4, 62, 44
1, 26560, Note_on_c, 4, 66, 44
1, 26560, Note_on_c, 4, 71, 44
1, 26590, Note_off_c, 2, 56, 0
1, 26590, Note_off_c, 2, 57, 0
1, 26590, Note_off_c, 2, 59, 0
1, 26590, Note_off_c, 2, 62, 0
1, 26590, Note_off_c, 2, 69, 0
1, 26590, Note_off_c, 1, 38, 0
1, 26590, Note_off_c, 8, 73, 0
1, 26590, Note_off_c, 12, 73, 0
1, 26592, Note_on_c, 1, 37, 74
1, 26592, Note_on_c, 2, 54, 98
1, 26592, Note_on_c, 2, 57, 98
1, 26592, Note_on_c, 2, 59, 98
1, 26592, Note_on_c, 2, 62, 98
1, 26592, Note_on_c, 2, 66, 125
1, 26592, Note_on_c, 8, 74, 126
1, 26592, Note_on_c, 9, 35, 29
1, 26592, Note_on_c, 9, 44, 59
1, 26592, Note_on_c, 9, 59, 61
1, 26592, Note_on_c, 12, 74, 108
1, 26595, Note_off_c, 9, 35, 0
1, 26595, Note_off_c, 9, 44, 0
1, 26595, Note_off_c, 9, 59, 0
1, 26606, Note_off_c, 4, 62, 0
1, 26606, Note_off_c, 4, 66, 0
1, 26606, Note_off_c, 4, 71, 0
1, 26638, Note_off_c, 8, 74, 0
1, 26638, Note_off_c, 12, 74, 0
1, 26648, Note_on_c, 8, 76, 75
1, 26648, Note_on_c, 12, 76, 95
1, 26652, Note_on_c, 9, 35, 59
1, 26652, Note_on_c, 9, 59, 71
1, 26655, Note_off_c, 9, 35, 0
1, 26655, Note_off_c, 9, 59, 0
1, 26686, Note_off_c, 1, 37, 0
1, 26686, Note_off_c, 8, 76, 0
1, 26686, Note_off_c, 12, 76, 0
1, 26688, Note_on_c, 1, 34, 74
1, 26688, Note_on_c, 8, 78, 126
1, 26688, Note_on_c, 12, 78, 108
1, 26719, Note_off_c, 8, 78, 0
1, 26719, Note_off_c, 12, 78, 0
1, 26744, Note_off_c, 8, 78, 0
1, 26744, Note_off_c, 12, 78, 0
1, 26744, Note_on_c, 8, 78, 126
1, 26744, Note_on_c, 12, 78, 108
1, 26746, Note_on_c, 8, 83, 126
1, 26746, Note_on_c, 12, 83, 108
1, 26782, Note_off_c, 1, 34, 0
1, 26782, Note_off_c, 8, 83, 0
1, 26782, Note_off_c, 12, 83, 0
1, 26784, Note_on_c, 1, 30, 74
1, 26784, Note_on_c, 8, 78, 115
1, 26784, Note_on_c, 9, 44, 59
1, 26784, Note_on_c, 9, 59, 61
1, 26784, Note_on_c, 12, 78, 105
1, 26787, Note_off_c, 9, 44, 0
1, 26787, Note_off_c, 9, 59, 0
1, 26830, Note_off_c, 2, 54, 0
1, 26830, Note_off_c, 2, 57, 0
1, 26830, Note_off_c, 2, 59, 0
1, 26830, Note_off_c, 2, 62, 0
1, 26830, Note_off_c, 2, 66, 0
1, 26830, Note_off_c, 8, 78, 0
1, 26830, Note_off_c, 12, 78, 0
1, 26840, Note_on_c, 8, 76, 95
1, 26840, Note_on_c, 12, 76, 100
1, 26844, Note_on_c, 9, 40, 39
1, 26844, Note_on_c, 9, 59, 71
1, 26847, Note_off_c, 9, 40, 0
1, 26847, Note_off_c, 9, 59, 0
1, 26848, Note_on_c, 2, 40, 98
1, 26848, Note_on_c, 2, 55, 98
1, 26848, Note_on_c, 2, 62, 98
1, 26848, Note_on_c, 2, 66, 98
1, 26848, Note_on_c, 2, 69, 125
1, 26878, Note_off_c, 1, 30, 0
1, 26878, Note_off_c, 8, 76, 0
1, 26878, Note_off_c, 12, 76, 0
1, 26880, Note_on_c, 1, 28, 74
1, 26880, Note_on_c, 8, 74, 75
1, 26880, Note_on_c, 12, 74, 95
1, 26911, Note_off_c, 8, 74, 0
1, 26911, Note_off_c, 12, 74, 0
1, 26936, Note_on_c, 8, 78, 126
1, 26936, Note_on_c, 12, 78, 108
1, 26944, Note_on_c, 4, 62, 44
1, 26944, Note_on_c, 4, 67, 44
1, 26944, Note_on_c, 4, 71, 44
1, 26974, Note_off_c, 1, 28, 0
1, 26974, Note_off_c, 8, 78, 0
1, 26974, Note_off_c, 12, 78, 0
1, 26976, Note_on_c, 1, 35, 74
1, 26976, Note_on_c, 8, 74, 95
1, 26976, Note_on_c, 9, 44, 59
1, 26976, Note_on_c, 9, 59, 61
1, 26976, Note_on_c, 12, 74, 100
1, 26979, Note_off_c, 9, 44, 0
1, 26979, Note_off_c, 9, 59, 0
1, 26990, Note_off_c, 4, 62, 0
1, 26990, Note_off_c, 4, 67, 0
1, 26990, Note_off_c, 4, 71, 0
1, 27007, Note_off_c, 8, 74, 0
1, 27007, Note_off_c, 12, 74, 0
1, 27032, Note_on_c, 8, 73, 75
1, 27032, Note_on_c, 12, 73, 95
1, 27036, Note_on_c, 9, 40, 39
1, 27036, Note_on_c, 9, 59, 71
1, 27039, Note_off_c, 9, 40, 0
1, 27039, Note_off_c, 9, 59, 0
1, 27070, Note_off_c, 1, 35, 0
1, 27070, Note_off_c, 8, 73, 0
1, 27070, Note_off_c, 12, 73, 0
1, 27072, Note_on_c, 1, 40, 74
1, 27072, Note_on_c, 8, 71, 126
1, 27072, Note_on_c, 12, 71, 108
1, 27118, Note_off_c, 8, 71, 0
1, 27118, Note_off_c, 12, 71, 0
1, 27132, Note_on_c, 9, 40, 17
1, 27132, Note_on_c, 9, 59, 61
1, 27134, Note_off_c, 2, 40, 0
1, 27134, Note_off_c, 2, 55, 0
1, 27134, Note_off_c, 2, 62, 0
1, 27134, Note_off_c, 2, 66, 0
1, 27134, Note_off_c, 2, 69, 0
1, 27135, Note_off_c, 9, 40, 0
1, 27135, Note_off_c, 9, 59, 0
1, 27136, Note_on_c, 2, 40, 98
1, 27136, Note_on_c, 2, 55, 98
1, 27136, Note_on_c, 2, 62, 98
1, 27136, Note_on_c, 2, 66, 98
1, 27136, Note_on_c, 2, 69, 125
1, 27147, Note_off_c, 2, 40, 0
1, 27147, Note_off_c, 2, 55, 0
1, 27147, Note_off_c, 2, 62, 0
1, 27147, Note_off_c, 2, 66, 0
1, 27147, Note_off_c, 2, 69, 0
1, 27166, Note_off_c, 1, 40, 0
1, 27168, Note_on_c, 1, 44, 74
1, 27168, Note_on_c, 8, 69, 95
1, 27168, Note_on_c, 9, 40, 39
1, 27168, Note_on_c, 9, 44, 59
1, 27168, Note_on_c, 9, 59, 61
1, 27168, Note_on_c, 12, 69, 100
1, 27171, Note_off_c, 9, 40, 0
1, 27171, Note_off_c, 9, 44, 0
1, 27171, Note_off_c, 9, 59, 0
1, 27232, Note_on_c, 2, 45, 98
1, 27232, Note_on_c, 2, 55, 98
1, 27232, Note_on_c, 2, 59, 98
1, 27232, Note_on_c, 2, 61, 98
1, 27232, Note_on_c, 2, 66, 98
1, 27232, Note_on_c, 2, 69, 98
1, 27262, Note_off_c, 1, 44, 0
1, 27262, Note_off_c, 8, 69, 0
1, 27262, Note_off_c, 12, 69, 0
1, 27264, Note_on_c, 1, 45, 74
1, 27264, Note_on_c, 8, 66, 126
1, 27264, Note_on_c, 9, 59, 61
1, 27264, Note_on_c, 12, 66, 108
1, 27267, Note_off_c, 9, 59, 0
1, 27324, Note_on_c, 9, 35, 59
1, 27324, Note_on_c, 9, 59, 71
1, 27327, Note_off_c, 9, 35, 0
1, 27327, Note_off_c, 9, 59, 0
1, 27328, Note_on_c, 4, 64, 44
1, 27328, Note_on_c, 4, 69, 44
1, 27328, Note_on_c, 4, 73, 44
1, 27358, Note_off_c, 1, 45, 0
1, 27358, Note_off_c, 8, 66, 0
1, 27358, Note_off_c, 12, 66, 0
1, 27360, Note_on_c, 1, 40, 74
1, 27360, Note_on_c, 8, 67, 95
1, 27360, Note_on_c, 9, 44, 59
1, 27360, Note_on_c, 12, 67, 100
1, 27363, Note_off_c, 9, 44, 0
1, 27374, Note_off_c, 4, 64, 0
1, 27374, Note_off_c, 4, 69, 0
1, 27374, Note_off_c, 4, 73, 0
1, 27406, Note_off_c, 8, 67, 0
1, 27406, Note_off_c, 12, 67, 0
1, 27454, Note_off_c, 1, 40, 0
1, 27456, Note_on_c, 1, 45, 74
1, 27456, Note_on_c, 8, 78, 126
1, 27456, Note_on_c, 9, 35, 59
1, 27456, Note_on_c, 9, 59, 61
1, 27456, Note_on_c, 12, 78, 108
1, 27459, Note_off_c, 9, 35, 0
1, 27459, Note_off_c, 9, 59, 0
1, 27550, Note_off_c, 1, 45, 0
1, 27550, Note_off_c, 8, 78, 0
1, 27550, Note_off_c, 12, 78, 0
1, 27552, Note_on_c, 1, 46, 74
1, 27552, Note_on_c, 8, 76, 95
1, 27552, Note_on_c, 9, 44, 59
1, 27552, Note_on_c, 9, 59, 51
1, 27552, Note_on_c, 12, 76, 100
1, 27555, Note_off_c, 9, 44, 0
1, 27555, Note_off_c, 9, 59, 0
1, 27598, Note_off_c, 8, 76, 0
1, 27598, Note_off_c, 12, 76, 0
1, 27612, Note_on_c, 9, 40, 39
1, 27612, Note_on_c, 9, 59, 71
1, 27615, Note_off_c, 9, 40, 0
1, 27615, Note_off_c, 9, 59, 0
1, 27646, Note_off_c, 1, 46, 0
1, 27648, Note_on_c, 1, 47, 74
1, 27662, Note_off_c, 2, 45, 0
1, 27662, Note_off_c, 2, 55, 0
1, 27662, Note_off_c, 2, 59, 0
1, 27662, Note_off_c, 2, 61, 0
1, 27662, Note_off_c, 2, 66, 0
1, 27662, Note_off_c, 2, 69, 0
1, 27704, Note_on_c, 8, 78, 95
1, 27704, Note_on_c, 12, 78, 100
1, 27708, Note_on_c, 9, 59, 51
1, 27711, Note_off_c, 9, 59, 0
1, 27712, Note_on_c, 4, 66, 44
1, 27712, Note_on_c, 4, 71, 44
1, 27712, Note_on_c, 4, 74, 44
1, 27742, Note_off_c, 1, 47, 0
1, 27742, Note_off_c, 8, 78, 0
1, 27742, Note_off_c, 12, 78, 0
1, 27744, Note_on_c, 1, 41, 74
1, 27744, Note_on_c, 8, 83, 126
1, 27744, Note_on_c, 9, 44, 59
1, 27744, Note_on_c, 9, 59, 61
1, 27744, Note_on_c, 12, 83, 108
1, 27747, Note_off_c, 9, 44, 0
1, 27747, Note_off_c, 9, 59, 0
1, 27758, Note_off_c, 4, 66, 0
1, 27758, Note_off_c, 4, 71, 0
1, 27758, Note_off_c, 4, 74, 0
1, 27790, Note_off_c, 8, 83, 0
1, 27790, Note_off_c, 12, 83, 0
1, 27800, Note_on_c, 8, 78, 95
1, 27800, Note_on_c, 12, 78, 100
1, 27838, Note_off_c, 1, 41, 0
1, 27838, Note_off_c, 8, 78, 0
1, 27838, Note_off_c, 12, 78, 0
1, 27840, Note_on_c, 1, 42, 74
1, 27840, Note_on_c, 8, 76, 126
1, 27840, Note_on_c, 9, 59, 61
1, 27840, Note_on_c, 12, 76, 108
1, 27843, Note_off_c, 9, 59, 0
1, 27886, Note_off_c, 8, 76, 0
1, 27886, Note_off_c, 12, 76, 0
1, 27900, Note_on_c, 9, 40, 39
1, 27900, Note_on_c, 9, 59, 71
1, 27903, Note_off_c, 9, 40, 0
1, 27903, Note_off_c, 9, 59, 0
1, 27934, Note_off_c, 1, 42, 0
1, 27936, Note_on_c, 1, 34, 74
1, 27936, Note_on_c, 8, 81, 126
1, 27936, Note_on_c, 9, 44, 59
1, 27936, Note_on_c, 12, 81, 108
1, 27939, Note_off_c, 9, 44, 0
1, 27958, Note_off_c, 8, 81, 0
1, 27958, Note_off_c, 12, 81, 0
1, 27960, Note_on_c, 8, 78, 69
1, 27960, Note_on_c, 12, 78, 94
1, 27982, Note_off_c, 8, 78, 0
1, 27982, Note_off_c, 12, 78, 0
1, 27984, Note_on_c, 8, 76, 69
1, 27984, Note_on_c, 12, 76, 94
1, 28006, Note_off_c, 8, 76, 0
1, 28006, Note_off_c, 12, 76, 0
1, 28008, Note_on_c, 8, 74, 69
1, 28008, Note_on_c, 12, 74, 94
1, 28030, Note_off_c, 1, 34, 0
1, 28030, Note_off_c, 8, 74, 0
1, 28030, Note_off_c, 12, 74, 0
1, 28032, Note_on_c, 1, 35, 74
1, 28032, Note_on_c, 7, 41, 126
1, 28032, Note_on_c, 7, 49, 126
1, 28032, Note_on_c, 9, 40, 39
1, 28032, Note_on_c, 9, 57, 61
1, 28035, Note_off_c, 9, 40, 0
1, 28035, Note_off_c, 9, 57, 0
1, 28056, Note_on_c, 8, 78, 126
1, 28056, Note_on_c, 12, 78, 108
1, 28078, Note_off_c, 8, 78, 0
1, 28078, Note_off_c, 12, 78, 0
1, 28080, Note_on_c, 8, 76, 69
1, 28080, Note_on_c, 12, 76, 94
1, 28102, Note_off_c, 8, 76, 0
1, 28102, Note_off_c, 12, 76, 0
1, 28104, Note_on_c, 8, 74, 69
1, 28104, Note_on_c, 12, 74, 94
1, 28126, Note_off_c, 1, 35, 0
1, 28126, Note_off_c, 8, 74, 0
1, 28126, Note_off_c, 12, 74, 0
1, 28128, Note_on_c, 8, 71, 59
1, 28128, Note_on_c, 12, 71, 91
1, 28150, Note_off_c, 8, 71, 0
1, 28150, Note_off_c, 12, 71, 0
1, 28152, Note_on_c, 8, 69, 49
1, 28152, Note_on_c, 12, 69, 89
1, 28174, Note_off_c, 8, 69, 0
1, 28174, Note_off_c, 12, 69, 0
1, 28200, Note_on_c, 8, 76, 99
1, 28200, Note_on_c, 12, 76, 101
1, 28222, Note_off_c, 8, 76, 0
1, 28222, Note_off_c, 12, 76, 0
1, 28224, Note_on_c, 8, 74, 59
1, 28224, Note_on_c, 9, 52, 126
1, 28224, Note_on_c, 9, 55, 71
1, 28224, Note_on_c, 12, 74, 91
1, 28227, Note_off_c, 9, 52, 0
1, 28227, Note_off_c, 9, 55, 0
1, 28246, Note_off_c, 8, 74, 0
1, 28246, Note_off_c, 12, 74, 0
1, 28248, Note_on_c, 8, 71, 49
1, 28248, Note_on_c, 12, 71, 89
1, 28270, Note_off_c, 8, 71, 0
1, 28270, Note_off_c, 12, 71, 0
1, 28272, Note_on_c, 8, 69, 39
1, 28272, Note_on_c, 12, 69, 86
1, 28294, Note_off_c, 8, 69, 0
1, 28294, Note_off_c, 12, 69, 0
1, 28320, Note_on_c, 8, 74, 89
1, 28320, Note_on_c, 12, 74, 99
1, 28342, Note_off_c, 8, 74, 0
1, 28342, Note_off_c, 12, 74, 0
1, 28344, Note_on_c, 8, 71, 59
1, 28344, Note_on_c, 12, 71, 91
1, 28366, Note_off_c, 8, 71, 0
1, 28366, Note_off_c, 12, 71, 0
1, 28368, Note_on_c, 8, 69, 49
1, 28368, Note_on_c, 12, 69, 89
1, 28390, Note_off_c, 8, 69, 0
1, 28390, Note_off_c, 12, 69, 0
1, 28392, Control_c, 9, 93, 63
1, 28392, Control_c, 9, 91, 99
1, 28392, Note_on_c, 8, 66, 39
1, 28392, Note_on_c, 12, 66, 86
1, 28402, Note_off_c, 8, 66, 0
1, 28402, Note_off_c, 12, 66, 0
1, 28404, Note_on_c, 8, 64, 99
1, 28404, Note_on_c, 12, 64, 101
1, 28414, Note_off_c, 7, 41, 0
1, 28414, Note_off_c, 7, 49, 0
1, 28415, Program_c, 9, 20
1, 28416, Tempo, 588235
1, 28416, Control_c, 9, 10, 64
1, 28416, Control_c, 9, 11, 100
1, 28416, Note_on_c, 9, 41, 59
1, 28416, Note_on_c, 9, 49, 126
1, 28416, Note_on_c, 9, 52, 126
1, 28416, Pitch_bend_c, 9, 8192
1, 28416, Note_on_c, 9, 36, 105
1, 28416, Pitch_bend_c, 10, 8192
1, 28416, Note_on_c, 10, 24, 126
1, 28419, Note_off_c, 9, 41, 0
1, 28419, Note_off_c, 9, 49, 0
1, 28419, Note_off_c, 9, 52, 0
1, 28419, Note_off_c, 9, 36, 0
1, 28438, Note_off_c, 10, 24, 0
1, 28512, Control_c, 8, 11, 127
1, 28512, Control_c, 9, 10, 64
1, 28512, Control_c, 10, 10, 64
1, 28512, Control_c, 12, 11, 67
1, 28512, Note_on_c, 9, 38, 126
1, 28512, Note_on_c, 9, 39, 77
1, 28515, Note_off_c, 9, 38, 0
1, 28515, Note_off_c, 9, 39, 0
1, 28524, Control_c, 8, 11, 120
1, 28528, Control_c, 12, 11, 61
1, 28536, Control_c, 8, 11, 116
1, 28544, Control_c, 12, 11, 56
1, 28548, Control_c, 8, 11, 104
1, 28560, Control_c, 8, 11, 96
1, 28560, Control_c, 12, 11, 44
1, 28572, Control_c, 8, 11, 91
1, 28576, Control_c, 12, 11, 36
1, 28584, Control_c, 8, 11, 87
1, 28584, Note_on_c, 9, 36, 105
1, 28584, Note_on_c, 9, 41, 59
1, 28584, Note_on_c, 10, 24, 126
1, 28587, Note_off_c, 9, 36, 0
1, 28587, Note_off_c, 9, 41, 0
1, 28592, Control_c, 12, 11, 29
1, 28595, Note_off_c, 8, 64, 0
1, 28595, Note_off_c, 12, 64, 0
1, 28596, Control_c, 8, 11, 79
1, 28606, Note_off_c, 10, 24, 0
1, 28608, Control_c, 8, 11, 75
1, 28608, Control_c, 12, 11, 23
1, 28620, Control_c, 8, 11, 60
1, 28624, Control_c, 12, 11, 11
1, 28632, Control_c, 8, 11, 50
1, 28632, Note_on_c, 9, 36, 105
1, 28632, Note_on_c, 9, 41, 59
1, 28632, Note_on_c, 10, 24, 126
1, 28635, Note_off_c, 9, 36, 0
1, 28635, Note_off_c, 9, 41, 0
1, 28644, Control_c, 8, 11, 48
1, 28654, Note_off_c, 10, 24, 0
1, 28656, Control_c, 9, 10, 127
1, 28656, Control_c, 10, 10, 127
1, 28656, Note_on_c, 9, 36, 105
1, 28656, Note_on_c, 9, 41, 59
1, 28656, Note_on_c, 10, 24, 126
1, 28659, Note_off_c, 9, 36, 0
1, 28659, Note_off_c, 9, 41, 0
1, 28678, Note_off_c, 10, 24, 0
1, 28680, Control_c, 9, 10, 0
1, 28680, Control_c, 10, 10, 0
1, 28680, Note_on_c, 9, 36, 105
1, 28680, Note_on_c, 9, 41, 59
1, 28680, Note_on_c, 10, 24, 126
1, 28683, Note_off_c, 9, 36, 0
1, 28683, Note_off_c, 9, 41, 0
1, 28702, Note_off_c, 10, 24, 0
1, 28704, Control_c, 9, 10, 64
1, 28704, Control_c, 10, 10, 64
1, 28704, Note_on_c, 9, 38, 126
1, 28704, Note_on_c, 9, 39, 77
1, 28707, Note_off_c, 9, 38, 0
1, 28707, Note_off_c, 9, 39, 0
1, 28752, Note_on_c, 9, 36, 105
1, 28752, Note_on_c, 9, 41, 59
1, 28752, Note_on_c, 10, 24, 126
1, 28755, Note_off_c, 9, 36, 0
1, 28755, Note_off_c, 9, 41, 0
1, 28768, Control_c, 8, 11, 72
1, 28768, Control_c, 12, 11, 72
1, 28774, Note_off_c, 10, 24, 0
1, 28800, Control_c, 9, 10, 126
1, 28800, Control_c, 10, 10, 126
1, 28800, Note_on_c, 9, 36, 105
1, 28800, Note_on_c, 9, 41, 59
1, 28800, Note_on_c, 10, 24, 126
1, 28803, Note_off_c, 9, 36, 0
1, 28803, Note_off_c, 9, 41, 0
1, 28822, Note_off_c, 10, 24, 0
1, 28824, Control_c, 9, 10, 0
1, 28824, Control_c, 10, 10, 0
1, 28824, Note_on_c, 9, 36, 105
1, 28824, Note_on_c, 9, 41, 59
1, 28824, Note_on_c, 10, 24, 126
1, 28827, Note_off_c, 9, 36, 0
1, 28827, Note_off_c, 9, 41, 0
1, 28846, Note_off_c, 10, 24, 0
1, 28896, Control_c, 9, 10, 64
1, 28896, Control_c, 10, 10, 64
1, 28896, Note_on_c, 9, 38, 126
1, 28896, Note_on_c, 9, 39, 105
1, 28899, Note_off_c, 9, 38, 0
1, 28899, Note_off_c, 9, 39, 0
1, 28968, Note_on_c, 9, 36, 105
1, 28968, Note_on_c, 9, 41, 59
1, 28968, Note_on_c, 10, 24, 126
1, 28971, Note_off_c, 9, 36, 0
1, 28971, Note_off_c, 9, 41, 0
1, 28990, Note_off_c, 10, 24, 0
1, 29016, Note_on_c, 9, 36, 105
1, 29016, Note_on_c, 9, 41, 59
1, 29016, Note_on_c, 10, 24, 126
1, 29019, Note_off_c, 9, 36, 0
1, 29019, Note_off_c, 9, 41, 0
1, 29038, Note_off_c, 10, 24, 0
1, 29040, Control_c, 9, 10, 127
1, 29040, Control_c, 10, 10, 127
1, 29040, Note_on_c, 9, 36, 105
1, 29040, Note_on_c, 9, 41, 59
1, 29040, Note_on_c, 10, 24, 126
1, 29043, Note_off_c, 9, 36, 0
1, 29043, Note_off_c, 9, 41, 0
1, 29062, Note_off_c, 10, 24, 0
1, 29064, Control_c, 9, 10, 0
1, 29064, Control_c, 10, 10, 0
1, 29064, Note_on_c, 9, 36, 105
1, 29064, Note_on_c, 9, 41, 59
1, 29064, Note_on_c, 10, 24, 126
1, 29067, Note_off_c, 9, 36, 0
1, 29067, Note_off_c, 9, 41, 0
1, 29086, Note_off_c, 10, 24, 0
1, 29088, Control_c, 9, 10, 64
1, 29088, Control_c, 10, 10, 64
1, 29088, Note_on_c, 9, 38, 126
1, 29088, Note_on_c, 9, 39, 77
1, 29091, Note_off_c, 9, 38, 0
1, 29091, Note_off_c, 9, 39, 0
1, 29136, Note_on_c, 9, 36, 105
1, 29136, Note_on_c, 9, 41, 59
1, 29136, Note_on_c, 10, 24, 126
1, 29139, Note_off_c, 9, 36, 0
1, 29139, Note_off_c, 9, 41, 0
1, 29158, Note_off_c, 10, 24, 0
1, 29184, Control_c, 9, 10, 126
1, 29184, Control_c, 10, 10, 126
1, 29184, Note_on_c, 9, 36, 105
1, 29184, Note_on_c, 9, 41, 59
1, 29184, Note_on_c, 10, 24, 126
1, 29187, Note_off_c, 9, 36, 0
1, 29187, Note_off_c, 9, 41, 0
1, 29206, Note_off_c, 10, 24, 0
1, 29208, Control_c, 9, 10, 0
1, 29208, Control_c, 10, 10, 0
1, 29208, Note_on_c, 9, 36, 105
1, 29208, Note_on_c, 9, 41, 59
1, 29208, Note_on_c, 10, 24, 126
1, 29211, Note_off_c, 9, 36, 0
1, 29211, Note_off_c, 9, 41, 0
1, 29230, Note_off_c, 10, 24, 0
1, 29280, Control_c, 9, 10, 64
1, 29280, Control_c, 10, 10, 64
1, 29280, Note_on_c, 9, 38, 126
1, 29280, Note_on_c, 9, 39, 77
1, 29283, Note_off_c, 9, 38, 0
1, 29283, Note_off_c, 9, 39, 0
1, 29352, Note_on_c, 9, 36, 105
1, 29352, Note_on_c, 9, 41, 59
1, 29352, Note_on_c, 10, 24, 126
1, 29355, Note_off_c, 9, 36, 0
1, 29355, Note_off_c, 9, 41, 0
1, 29374, Note_off_c, 10, 24, 0
1, 29400, Note_on_c, 9, 36, 105
1, 29400, Note_on_c, 9, 41, 59
1, 29400, Note_on_c, 10, 24, 126
1, 29403, Note_off_c, 9, 36, 0
1, 29403, Note_off_c, 9, 41, 0
1, 29422, Note_off_c, 10, 24, 0
1, 29424, Control_c, 9, 10, 127
1, 29424, Control_c, 10, 10, 127
1, 29424, Note_on_c, 9, 36, 105
1, 29424, Note_on_c, 9, 41, 59
1, 29424, Note_on_c, 10, 24, 126
1, 29427, Note_off_c, 9, 36, 0
1, 29427, Note_off_c, 9, 41, 0
1, 29446, Note_off_c, 10, 24, 0
1, 29448, Control_c, 9, 10, 0
1, 29448, Control_c, 10, 10, 0
1, 29448, Note_on_c, 9, 36, 105
1, 29448, Note_on_c, 9, 41, 59
1, 29448, Note_on_c, 10, 24, 126
1, 29451, Note_off_c, 9, 36, 0
1, 29451, Note_off_c, 9, 41, 0
1, 29470, Note_off_c, 10, 24, 0
1, 29472, Control_c, 9, 10, 64
1, 29472, Control_c, 10, 10, 64
1, 29472, Note_on_c, 9, 38, 126
1, 29472, Note_on_c, 9, 39, 77
1, 29475, Note_off_c, 9, 38, 0
1, 29475, Note_off_c, 9, 39, 0
1, 29520, Note_on_c, 9, 36, 105
1, 29520, Note_on_c, 9, 41, 59
1, 29520, Note_on_c, 10, 24, 126
1, 29523, Note_off_c, 9, 36, 0
1, 29523, Note_off_c, 9, 41, 0
1, 29542, Note_off_c, 10, 24, 0
1, 29568, Control_c, 9, 10, 126
1, 29568, Control_c, 10, 10, 126
1, 29568, Note_on_c, 9, 36, 105
1, 29568, Note_on_c, 9, 41, 59
1, 29568, Note_on_c, 10, 24, 126
1, 29571, Note_off_c, 9, 36, 0
1, 29571, Note_off_c, 9, 41, 0
1, 29590, Note_off_c, 10, 24, 0
1, 29592, Control_c, 9, 10, 0
1, 29592, Control_c, 10, 10, 0
1, 29592, Note_on_c, 9, 36, 105
1, 29592, Note_on_c, 9, 41, 59
1, 29592, Note_on_c, 10, 24, 126
1, 29595, Note_off_c, 9, 36, 0
1, 29595, Note_off_c, 9, 41, 0
1, 29614, Note_off_c, 10, 24, 0
1, 29664, Control_c, 9, 10, 64
1, 29664, Control_c, 10, 10, 64
1, 29664, Note_on_c, 9, 38, 126
1, 29664, Note_on_c, 9, 39, 77
1, 29667, Note_off_c, 9, 38, 0
1, 29667, Note_off_c, 9, 39, 0
1, 29736, Note_on_c, 9, 36, 105
1, 29736, Note_on_c, 9, 41, 59
1, 29736, Note_on_c, 10, 24, 126
1, 29739, Note_off_c, 9, 36, 0
1, 29739, Note_off_c, 9, 41, 0
1, 29758, Note_off_c, 10, 24, 0
1, 29760, Note_on_c, 7, 50, 59
1, 29760, Note_on_c, 7, 54, 59
1, 29784, Note_on_c, 9, 36, 105
1, 29784, Note_on_c, 9, 41, 59
1, 29784, Note_on_c, 10, 24, 126
1, 29787, Note_off_c, 9, 36, 0
1, 29787, Note_off_c, 9, 41, 0
1, 29806, Note_off_c, 10, 24, 0
1, 29808, Control_c, 9, 10, 127
1, 29808, Control_c, 10, 10, 127
1, 29808, Note_on_c, 9, 36, 105
1, 29808, Note_on_c, 9, 41, 59
1, 29808, Note_on_c, 10, 24, 126
1, 29811, Note_off_c, 9, 36, 0
1, 29811, Note_off_c, 9, 41, 0
1, 29830, Note_off_c, 10, 24, 0
1, 29832, Control_c, 9, 10, 0
1, 29832, Control_c, 10, 10, 0
1, 29832, Note_on_c, 9, 36, 105
1, 29832, Note_on_c, 9, 41, 59
1, 29832, Note_on_c, 10, 24, 126
1, 29835, Note_off_c, 9, 36, 0
1, 29835, Note_off_c, 9, 41, 0
1, 29854, Note_off_c, 10, 24, 0
1, 29856, Control_c, 9, 10, 64
1, 29856, Control_c, 10, 10, 64
1, 29856, Note_on_c, 9, 38, 126
1, 29856, Note_on_c, 9, 39, 77
1, 29859, Note_off_c, 9, 38, 0
1, 29859, Note_off_c, 9, 39, 0
1, 29950, Note_off_c, 7, 50, 0
1, 29950, Note_off_c, 7, 54, 0
1, 29951, Program_c, 9, 0
1, 29952, Control_c, 4, 10, 104
1, 29952, Control_c, 8, 11, 72
1, 29952, Control_c, 9, 91, 30
1, 29952, Control_c, 9, 11, 127
1, 29952, Note_on_c, 1, 28, 74
1, 29952, Note_on_c, 4, 52, 44
1, 29952, Note_on_c, 8, 64, 89
1, 29952, Note_on_c, 9, 42, 29
1, 29952, Note_on_c, 9, 52, 59
1, 29952, Note_on_c, 12, 64, 99
1, 29955, Note_off_c, 9, 42, 0
1, 29955, Note_off_c, 9, 52, 0
1, 29976, Control_c, 9, 93, 0
1, 29998, Note_off_c, 4, 52, 0
1, 30000, Note_on_c, 3, 59, 72
1, 30000, Note_on_c, 4, 62, 44
1, 30000, Note_on_c, 4, 67, 44
1, 30000, Note_on_c, 4, 71, 44
1, 30000, Note_on_c, 9, 42, 79
1, 30003, Note_off_c, 9, 42, 0
1, 30019, Note_off_c, 3, 59, 0
1, 30022, Note_off_c, 1, 28, 0
1, 30046, Note_off_c, 4, 62, 0
1, 30046, Note_off_c, 4, 67, 0
1, 30046, Note_off_c, 4, 71, 0
1, 30048, Note_on_c, 1, 28, 74
1, 30048, Note_on_c, 3, 62, 78
1, 30048, Note_on_c, 9, 35, 74
1, 30048, Note_on_c, 9, 42, 29
1, 30051, Note_off_c, 9, 35, 0
1, 30051, Note_off_c, 9, 42, 0
1, 30070, Note_off_c, 3, 62, 0
1, 30072, Note_on_c, 3, 59, 65
1, 30090, Note_off_c, 3, 59, 0
1, 30096, Note_on_c, 4, 62, 44
1, 30096, Note_on_c, 4, 67, 44
1, 30096, Note_on_c, 4, 71, 44
1, 30096, Note_on_c, 9, 37, 83
1, 30096, Note_on_c, 9, 42, 79
1, 30099, Note_off_c, 9, 37, 0
1, 30099, Note_off_c, 9, 42, 0
1, 30120, Note_on_c, 3, 64, 76
1, 30142, Note_off_c, 8, 64, 0
1, 30142, Note_off_c, 12, 64, 0
1, 30142, Note_off_c, 1, 28, 0
1, 30142, Note_off_c, 4, 62, 0
1, 30142, Note_off_c, 4, 67, 0
1, 30142, Note_off_c, 4, 71, 0
1, 30144, Note_on_c, 1, 33, 74
1, 30144, Note_on_c, 4, 57, 44
1, 30144, Note_on_c, 8, 66, 69
1, 30144, Note_on_c, 9, 42, 17
1, 30144, Note_on_c, 12, 66, 94
1, 30147, Note_off_c, 9, 42, 0
1, 30149, Note_off_c, 3, 64, 0
1, 30168, Note_on_c, 3, 61, 69
1, 30190, Note_off_c, 4, 57, 0
1, 30192, Note_on_c, 4, 64, 44
1, 30192, Note_on_c, 4, 69, 44
1, 30192, Note_on_c, 4, 73, 44
1, 30192, Note_on_c, 9, 42, 79
1, 30195, Note_off_c, 9, 42, 0
1, 30196, Note_off_c, 3, 61, 0
1, 30214, Note_off_c, 1, 33, 0
1, 30216, Note_on_c, 3, 57, 73
1, 30238, Note_off_c, 8, 66, 0
1, 30238, Note_off_c, 12, 66, 0
1, 30238, Note_off_c, 4, 64, 0
1, 30238, Note_off_c, 4, 69, 0
1, 30238, Note_off_c, 4, 73, 0
1, 30240, Note_on_c, 1, 33, 74
1, 30240, Note_on_c, 4, 57, 44
1, 30240, Pitch_bend_c, 8, 129
1, 30240, Note_on_c, 8, 73, 89
1, 30240, Note_on_c, 9, 35, 74
1, 30240, Note_on_c, 9, 42, 29
1, 30240, Pitch_bend_c, 12, 129
1, 30240, Note_on_c, 12, 73, 99
1, 30241, Note_off_c, 3, 57, 0
1, 30243, Note_off_c, 9, 35, 0
1, 30243, Note_off_c, 9, 42, 0
1, 30252, Pitch_bend_c, 8, 8193
1, 30252, Pitch_bend_c, 12, 8193
1, 30264, Note_on_c, 3, 55, 67
1, 30286, Note_off_c, 4, 57, 0
1, 30286, Note_off_c, 3, 55, 0
1, 30288, Note_on_c, 4, 64, 44
1, 30288, Note_on_c, 4, 69, 44
1, 30288, Note_on_c, 4, 73, 44
1, 30288, Note_on_c, 9, 37, 83
1, 30288, Note_on_c, 9, 42, 79
1, 30291, Note_off_c, 9, 37, 0
1, 30291, Note_off_c, 9, 42, 0
1, 30312, Note_on_c, 3, 54, 72
1, 30334, Note_off_c, 1, 33, 0
1, 30334, Note_off_c, 8, 73, 0
1, 30334, Note_off_c, 12, 73, 0
1, 30334, Note_off_c, 4, 64, 0
1, 30334, Note_off_c, 4, 69, 0
1, 30334, Note_off_c, 4, 73, 0
1, 30336, Note_on_c, 1, 35, 74
1, 30336, Note_on_c, 4, 59, 44
1, 30336, Note_on_c, 8, 74, 99
1, 30336, Note_on_c, 9, 42, 29
1, 30336, Note_on_c, 12, 74, 101
1, 30339, Note_off_c, 9, 42, 0
1, 30350, Note_off_c, 3, 54, 0
1, 30360, Note_on_c, 3, 61, 74
1, 30377, Note_off_c, 3, 61, 0
1, 30382, Note_off_c, 4, 59, 0
1, 30384, Note_on_c, 4, 66, 44
1, 30384, Note_on_c, 4, 71, 44
1, 30384, Note_on_c, 4, 74, 44
1, 30384, Note_on_c, 9, 42, 79
1, 30387, Note_off_c, 9, 42, 0
1, 30406, Note_off_c, 1, 35, 0
1, 30408, Note_on_c, 3, 61, 76
1, 30430, Note_off_c, 4, 66, 0
1, 30430, Note_off_c, 4, 71, 0
1, 30430, Note_off_c, 4, 74, 0
1, 30432, Note_on_c, 1, 35, 74
1, 30432, Note_on_c, 9, 35, 74
1, 30432, Note_on_c, 9, 42, 29
1, 30435, Note_off_c, 9, 35, 0
1, 30435, Note_off_c, 9, 42, 0
1, 30480, Note_on_c, 4, 66, 44
1, 30480, Note_on_c, 4, 71, 44
1, 30480, Note_on_c, 4, 74, 44
1, 30480, Note_on_c, 9, 37, 83
1, 30480, Note_on_c, 9, 42, 79
1, 30483, Note_off_c, 9, 37, 0
1, 30483, Note_off_c, 9, 42, 0
1, 30502, Note_off_c, 1, 35, 0
1, 30526, Note_off_c, 8, 74, 0
1, 30526, Note_off_c, 12, 74, 0
1, 30526, Note_off_c, 4, 66, 0
1, 30526, Note_off_c, 4, 71, 0
1, 30526, Note_off_c, 4, 74, 0
1, 30528, Note_on_c, 1, 35, 74
1, 30528, Note_on_c, 4, 59, 44
1, 30528, Note_on_c, 9, 42, 29
1, 30531, Note_off_c, 9, 42, 0
1, 30542, Note_off_c, 3, 61, 0
1, 30552, Control_c, 2, 64, 127
1, 30552, Control_c, 2, 11, 127
1, 30552, Note_on_c, 9, 42, 29
1, 30555, Note_off_c, 9, 42, 0
1, 30568, Note_on_c, 8, 74, 69
1, 30568, Note_on_c, 12, 74, 94
1, 30574, Note_off_c, 1, 35, 0
1, 30574, Note_off_c, 4, 59, 0
1, 30576, Note_on_c, 1, 30, 74
1, 30576, Note_on_c, 2, 81, 63
1, 30576, Note_on_c, 4, 66, 44
1, 30576, Note_on_c, 4, 71, 44
1, 30576, Note_on_c, 4, 74, 44
1, 30576, Note_on_c, 9, 42, 79
1, 30579, Note_off_c, 9, 42, 0
1, 30590, Note_off_c, 8, 74, 0
1, 30590, Note_off_c, 12, 74, 0
1, 30608, Note_on_c, 8, 71, 99
1, 30608, Note_on_c, 12, 71, 101
1, 30622, Note_off_c, 1, 30, 0
1, 30622, Note_off_c, 4, 66, 0
1, 30622, Note_off_c, 4, 71, 0
1, 30622, Note_off_c, 4, 74, 0
1, 30624, Note_on_c, 1, 33, 74
1, 30624, Note_on_c, 4, 57, 44
1, 30624, Note_on_c, 9, 35, 74
1, 30624, Note_on_c, 9, 42, 29
1, 30627, Note_off_c, 9, 35, 0
1, 30627, Note_off_c, 9, 42, 0
1, 30630, Note_off_c, 8, 71, 0
1, 30630, Note_off_c, 12, 71, 0
1, 30646, Note_off_c, 2, 81, 0
1, 30648, Note_on_c, 2, 85, 39
1, 30648, Note_on_c, 8, 71, 89
1, 30648, Note_on_c, 9, 42, 29
1, 30648, Note_on_c, 12, 71, 99
1, 30651, Note_off_c, 9, 42, 0
1, 30670, Note_off_c, 4, 57, 0
1, 30670, Note_off_c, 2, 85, 0
1, 30670, Note_off_c, 8, 71, 0
1, 30670, Note_off_c, 12, 71, 0
1, 30672, Note_on_c, 2, 86, 63
1, 30672, Note_on_c, 4, 64, 44
1, 30672, Note_on_c, 4, 69, 44
1, 30672, Note_on_c, 4, 73, 44
1, 30672, Note_on_c, 8, 69, 79
1, 30672, Note_on_c, 9, 37, 83
1, 30672, Note_on_c, 9, 42, 79
1, 30672, Note_on_c, 12, 69, 96
1, 30675, Note_off_c, 9, 37, 0
1, 30675, Note_off_c, 9, 42, 0
1, 30694, Note_off_c, 1, 33, 0
1, 30694, Note_off_c, 2, 86, 0
1, 30694, Note_off_c, 8, 69, 0
1, 30694, Note_off_c, 12, 69, 0
1, 30696, Note_on_c, 1, 35, 62
1, 30696, Note_on_c, 2, 85, 39
1, 30696, Note_on_c, 8, 66, 69
1, 30696, Note_on_c, 9, 37, 83
1, 30696, Note_on_c, 12, 66, 94
1, 30699, Note_off_c, 9, 37, 0
1, 30718, Note_off_c, 4, 64, 0
1, 30718, Note_off_c, 4, 69, 0
1, 30718, Note_off_c, 4, 73, 0
1, 30718, Note_off_c, 1, 35, 0
1, 30718, Note_off_c, 2, 85, 0
1, 30718, Note_off_c, 8, 66, 0
1, 30718, Note_off_c, 12, 66, 0
1, 30720, Note_on_c, 1, 28, 74
1, 30720, Note_on_c, 2, 86, 63
1, 30720, Note_on_c, 4, 52, 44
1, 30720, Note_on_c, 8, 67, 79
1, 30720, Note_on_c, 9, 42, 29
1, 30720, Note_on_c, 12, 67, 96
1, 30723, Note_off_c, 9, 42, 0
1, 30766, Note_off_c, 4, 52, 0
1, 30768, Note_on_c, 3, 59, 72
1, 30768, Note_on_c, 4, 62, 44
1, 30768, Note_on_c, 4, 67, 44
1, 30768, Note_on_c, 4, 71, 44
1, 30768, Note_on_c, 9, 42, 79
1, 30771, Note_off_c, 9, 42, 0
1, 30790, Note_off_c, 1, 28, 0
1, 30790, Note_off_c, 3, 59, 0
1, 30814, Note_off_c, 8, 67, 0
1, 30814, Note_off_c, 12, 67, 0
1, 30814, Note_off_c, 4, 62, 0
1, 30814, Note_off_c, 4, 67, 0
1, 30814, Note_off_c, 4, 71, 0
1, 30816, Note_on_c, 1, 28, 74
1, 30816, Note_on_c, 3, 62, 79
1, 30816, Pitch_bend_c, 8, 129
1, 30816, Note_on_c, 8, 78, 99
1, 30816, Note_on_c, 9, 35, 74
1, 30816, Note_on_c, 9, 42, 29
1, 30816, Pitch_bend_c, 12, 129
1, 30816, Note_on_c, 12, 78, 101
1, 30819, Note_off_c, 9, 35, 0
1, 30819, Note_off_c, 9, 42, 0
1, 30828, Pitch_bend_c, 8, 8193
1, 30828, Pitch_bend_c, 12, 8193
1, 30838, Note_off_c, 3, 62, 0
1, 30848, Note_on_c, 3, 59, 79
1, 30864, Note_on_c, 4, 62, 44
1, 30864, Note_on_c, 4, 67, 44
1, 30864, Note_on_c, 4, 71, 44
1, 30864, Note_on_c, 9, 37, 83
1, 30864, Note_on_c, 9, 42, 79
1, 30867, Note_off_c, 9, 37, 0
1, 30867, Note_off_c, 9, 42, 0
1, 30870, Note_off_c, 3, 59, 0
1, 30880, Note_on_c, 3, 62, 79
1, 30902, Note_off_c, 3, 62, 0
1, 30910, Note_off_c, 1, 28, 0
1, 30910, Note_off_c, 8, 78, 0
1, 30910, Note_off_c, 12, 78, 0
1, 30910, Note_off_c, 4, 62, 0
1, 30910, Note_off_c, 4, 67, 0
1, 30910, Note_off_c, 4, 71, 0
1, 30912, Note_on_c, 1, 33, 74
1, 30912, Note_on_c, 3, 64, 80
1, 30912, Note_on_c, 4, 57, 44
1, 30912, Note_on_c, 8, 76, 79
1, 30912, Note_on_c, 9, 42, 29
1, 30912, Note_on_c, 12, 76, 96
1, 30915, Note_off_c, 9, 42, 0
1, 30942, Note_off_c, 3, 64, 0
1, 30958, Note_off_c, 4, 57, 0
1, 30960, Note_on_c, 3, 61, 75
1, 30960, Note_on_c, 4, 64, 44
1, 30960, Note_on_c, 4, 69, 44
1, 30960, Note_on_c, 4, 73, 44
1, 30960, Note_on_c, 9, 42, 79
1, 30963, Note_off_c, 9, 42, 0
1, 30982, Note_off_c, 1, 33, 0
1, 30984, Note_off_c, 3, 61, 0
1, 31006, Note_off_c, 8, 76, 0
1, 31006, Note_off_c, 12, 76, 0
1, 31006, Note_off_c, 4, 64, 0
1, 31006, Note_off_c, 4, 69, 0
1, 31006, Note_off_c, 4, 73, 0
1, 31008, Note_on_c, 1, 33, 74
1, 31008, Note_on_c, 3, 57, 70
1, 31008, Note_on_c, 4, 57, 44
1, 31008, Pitch_bend_c, 8, 129
1, 31008, Note_on_c, 8, 81, 109
1, 31008, Note_on_c, 9, 35, 74
1, 31008, Note_on_c, 9, 42, 39
1, 31008, Pitch_bend_c, 12, 129
1, 31008, Note_on_c, 12, 81, 104
1, 31011, Note_off_c, 9, 35, 0
1, 31011, Note_off_c, 9, 42, 0
1, 31020, Pitch_bend_c, 8, 8065
1, 31020, Pitch_bend_c, 12, 8065
1, 31044, Note_off_c, 3, 57, 0
1, 31054, Note_off_c, 4, 57, 0
1, 31056, Note_on_c, 3, 55, 72
1, 31056, Note_on_c, 4, 64, 44
1, 31056, Note_on_c, 4, 69, 44
1, 31056, Note_on_c, 4, 73, 44
1, 31056, Note_on_c, 9, 37, 83
1, 31056, Note_on_c, 9, 42, 79
1, 31059, Note_off_c, 9, 37, 0
1, 31059, Note_off_c, 9, 42, 0
1, 31080, Pitch_bend_c, 8, 16257
1, 31080, Pitch_bend_c, 12, 16257
1, 31084, Note_off_c, 3, 55, 0
1, 31102, Note_off_c, 2, 86, 0
1, 31102, Note_off_c, 1, 33, 0
1, 31102, Note_off_c, 8, 81, 0
1, 31102, Note_off_c, 12, 81, 0
1, 31102, Note_off_c, 4, 64, 0
1, 31102, Note_off_c, 4, 69, 0
1, 31102, Note_off_c, 4, 73, 0
1, 31104, Control_c, 2, 64, 0
1, 31104, Note_on_c, 1, 35, 74
1, 31104, Note_on_c, 3, 54, 76
1, 31104, Note_on_c, 4, 59, 44
1, 31104, Pitch_bend_c, 8, 8193
1, 31104, Note_on_c, 8, 78, 99
1, 31104, Note_on_c, 9, 42, 29
1, 31104, Pitch_bend_c, 12, 8193
1, 31104, Note_on_c, 12, 78, 101
1, 31107, Note_off_c, 9, 42, 0
1, 31150, Note_off_c, 4, 59, 0
1, 31152, Note_on_c, 4, 66, 44
1, 31152, Note_on_c, 4, 71, 44
1, 31152, Note_on_c, 4, 74, 44
1, 31152, Note_on_c, 9, 42, 79
1, 31155, Note_off_c, 9, 42, 0
1, 31174, Note_off_c, 1, 35, 0
1, 31198, Note_off_c, 4, 66, 0
1, 31198, Note_off_c, 4, 71, 0
1, 31198, Note_off_c, 4, 74, 0
1, 31200, Note_on_c, 1, 35, 74
1, 31200, Note_on_c, 9, 35, 74
1, 31200, Note_on_c, 9, 42, 29
1, 31203, Note_off_c, 9, 35, 0
1, 31203, Note_off_c, 9, 42, 0
1, 31248, Note_on_c, 4, 66, 44
1, 31248, Note_on_c, 4, 71, 44
1, 31248, Note_on_c, 4, 74, 44
1, 31248, Note_on_c, 9, 37, 83
1, 31248, Note_on_c, 9, 42, 79
1, 31251, Note_off_c, 9, 37, 0
1, 31251, Note_off_c, 9, 42, 0
1, 31270, Note_off_c, 1, 35, 0
1, 31292, Note_off_c, 3, 54, 0
1, 31294, Note_off_c, 8, 78, 0
1, 31294, Note_off_c, 12, 78, 0
1, 31294, Note_off_c, 4, 66, 0
1, 31294, Note_off_c, 4, 71, 0
1, 31294, Note_off_c, 4, 74, 0
1, 31296, Note_on_c, 1, 35, 74
1, 31296, Note_on_c, 4, 59, 44
1, 31296, Note_on_c, 9, 42, 29
1, 31299, Note_off_c, 9, 42, 0
1, 31320, Note_on_c, 9, 37, 83
1, 31323, Note_off_c, 9, 37, 0
1, 31328, Note_on_c, 8, 78, 79
1, 31328, Note_on_c, 12, 78, 96
1, 31342, Note_off_c, 4, 59, 0
1, 31344, Note_on_c, 4, 66, 44
1, 31344, Note_on_c, 4, 71, 44
1, 31344, Note_on_c, 4, 74, 44
1, 31344, Note_on_c, 9, 42, 79
1, 31347, Note_off_c, 9, 42, 0
1, 31350, Note_off_c, 8, 78, 0
1, 31350, Note_off_c, 12, 78, 0
1, 31360, Note_on_c, 8, 78, 89
1, 31360, Note_on_c, 12, 78, 99
1, 31366, Note_off_c, 1, 35, 0
1, 31382, Note_off_c, 8, 78, 0
1, 31382, Note_off_c, 12, 78, 0
1, 31390, Note_off_c, 4, 66, 0
1, 31390, Note_off_c, 4, 71, 0
1, 31390, Note_off_c, 4, 74, 0
1, 31392, Note_on_c, 1, 33, 74
1, 31392, Note_on_c, 4, 57, 44
1, 31392, Note_on_c, 8, 78, 99
1, 31392, Note_on_c, 9, 35, 74
1, 31392, Note_on_c, 9, 42, 29
1, 31392, Note_on_c, 12, 78, 101
1, 31395, Note_off_c, 9, 35, 0
1, 31395, Note_off_c, 9, 42, 0
1, 31414, Note_off_c, 8, 78, 0
1, 31414, Note_off_c, 12, 78, 0
1, 31416, Note_on_c, 9, 42, 49
1, 31419, Note_off_c, 9, 42, 0
1, 31424, Note_on_c, 8, 83, 99
1, 31424, Note_on_c, 12, 83, 101
1, 31438, Note_off_c, 4, 57, 0
1, 31440, Note_on_c, 4, 64, 44
1, 31440, Note_on_c, 4, 69, 44
1, 31440, Note_on_c, 4, 73, 44
1, 31440, Note_on_c, 9, 37, 83
1, 31440, Note_on_c, 9, 46, 59
1, 31443, Note_off_c, 9, 37, 0
1, 31443, Note_off_c, 9, 46, 0
1, 31456, Pitch_bend_c, 8, 16257
1, 31456, Pitch_bend_c, 12, 16257
1, 31462, Note_off_c, 1, 33, 0
1, 31464, Note_on_c, 1, 35, 62
1, 31486, Note_off_c, 8, 83, 0
1, 31486, Note_off_c, 12, 83, 0
1, 31486, Note_off_c, 4, 64, 0
1, 31486, Note_off_c, 4, 69, 0
1, 31486, Note_off_c, 4, 73, 0
1, 31486, Note_off_c, 1, 35, 0
1, 31488, Note_on_c, 1, 28, 74
1, 31488, Note_on_c, 4, 52, 44
1, 31488, Pitch_bend_c, 8, 4097
1, 31488, Note_on_c, 8, 86, 109
1, 31488, Note_on_c, 9, 42, 29
1, 31488, Pitch_bend_c, 12, 4097
1, 31488, Note_on_c, 12, 86, 104
1, 31491, Note_off_c, 9, 42, 0
1, 31520, Pitch_bend_c, 8, 8193
1, 31520, Pitch_bend_c, 12, 8193
1, 31534, Note_off_c, 4, 52, 0
1, 31536, Note_on_c, 3, 59, 76
1, 31536, Note_on_c, 4, 62, 44
1, 31536, Note_on_c, 4, 67, 44
1, 31536, Note_on_c, 4, 71, 44
1, 31536, Note_on_c, 9, 42, 79
1, 31539, Note_off_c, 9, 42, 0
1, 31550, Note_off_c, 8, 86, 0
1, 31550, Note_off_c, 12, 86, 0
1, 31552, Note_on_c, 8, 86, 79
1, 31552, Note_on_c, 12, 86, 96
1, 31558, Note_off_c, 1, 28, 0
1, 31561, Note_off_c, 3, 59, 0
1, 31582, Note_off_c, 4, 62, 0
1, 31582, Note_off_c, 4, 67, 0
1, 31582, Note_off_c, 4, 71, 0
1, 31584, Note_on_c, 1, 28, 74
1, 31584, Note_on_c, 3, 62, 77
1, 31584, Note_on_c, 9, 35, 74
1, 31584, Note_on_c, 9, 42, 29
1, 31587, Note_off_c, 9, 35, 0
1, 31587, Note_off_c, 9, 42, 0
1, 31617, Note_off_c, 3, 62, 0
1, 31632, Note_on_c, 3, 59, 71
1, 31632, Note_on_c, 4, 62, 44
1, 31632, Note_on_c, 4, 67, 44
1, 31632, Note_on_c, 4, 71, 44
1, 31632, Note_on_c, 9, 37, 83
1, 31632, Note_on_c, 9, 42, 79
1, 31635, Note_off_c, 9, 37, 0
1, 31635, Note_off_c, 9, 42, 0
1, 31654, Note_off_c, 3, 59, 0
1, 31678, Note_off_c, 1, 28, 0
1, 31678, Note_off_c, 4, 62, 0
1, 31678, Note_off_c, 4, 67, 0
1, 31678, Note_off_c, 4, 71, 0
1, 31680, Note_on_c, 1, 33, 74
1, 31680, Note_on_c, 3, 64, 76
1, 31680, Note_on_c, 4, 57, 44
1, 31680, Note_on_c, 9, 42, 29
1, 31683, Note_off_c, 9, 42, 0
1, 31702, Note_off_c, 3, 64, 0
1, 31704, Note_on_c, 3, 61, 73
1, 31725, Note_off_c, 3, 61, 0
1, 31726, Note_off_c, 4, 57, 0
1, 31728, Note_on_c, 4, 64, 44
1, 31728, Note_on_c, 4, 69, 44
1, 31728, Note_on_c, 4, 73, 44
1, 31728, Note_on_c, 9, 42, 79
1, 31731, Note_off_c, 9, 42, 0
1, 31750, Note_off_c, 1, 33, 0
1, 31752, Note_on_c, 3, 57, 72
1, 31774, Note_off_c, 4, 64, 0
1, 31774, Note_off_c, 4, 69, 0
1, 31774, Note_off_c, 4, 73, 0
1, 31776, Note_on_c, 1, 33, 74
1, 31776, Note_on_c, 4, 57, 44
1, 31776, Note_on_c, 9, 35, 74
1, 31776, Note_on_c, 9, 42, 29
1, 31779, Note_off_c, 9, 35, 0
1, 31779, Note_off_c, 9, 42, 0
1, 31780, Note_off_c, 3, 57, 0
1, 31800, Note_on_c, 3, 55, 69
1, 31817, Note_off_c, 3, 55, 0
1, 31822, Note_off_c, 4, 57, 0
1, 31824, Note_on_c, 4, 64, 44
1, 31824, Note_on_c, 4, 69, 44
1, 31824, Note_on_c, 4, 73, 44
1, 31824, Note_on_c, 9, 37, 83
1, 31824, Note_on_c, 9, 42, 79
1, 31827, Note_off_c, 9, 37, 0
1, 31827, Note_off_c, 9, 42, 0
1, 31848, Note_on_c, 3, 54, 76
1, 31870, Note_off_c, 1, 33, 0
1, 31870, Note_off_c, 4, 64, 0
1, 31870, Note_off_c, 4, 69, 0
1, 31870, Note_off_c, 4, 73, 0
1, 31872, Note_on_c, 1, 35, 74
1, 31872, Note_on_c, 4, 59, 44
1, 31872, Note_on_c, 9, 42, 29
1, 31875, Note_off_c, 9, 42, 0
1, 31885, Note_off_c, 3, 54, 0
1, 31896, Control_c, 2, 64, 127
1, 31896, Note_on_c, 3, 61, 78
1, 31896, Note_on_c, 9, 37, 83
1, 31899, Note_off_c, 9, 37, 0
1, 31914, Note_off_c, 3, 61, 0
1, 31918, Note_off_c, 4, 59, 0
1, 31920, Note_on_c, 4, 66, 44
1, 31920, Note_on_c, 4, 71, 44
1, 31920, Note_on_c, 4, 74, 44
1, 31920, Note_on_c, 9, 42, 79
1, 31923, Note_off_c, 9, 42, 0
1, 31942, Note_off_c, 1, 35, 0
1, 31944, Note_on_c, 3, 61, 77
1, 31966, Note_off_c, 4, 66, 0
1, 31966, Note_off_c, 4, 71, 0
1, 31966, Note_off_c, 4, 74, 0
1, 31968, Note_on_c, 1, 35, 74
1, 31968, Note_on_c, 2, 78, 39
1, 31968, Note_on_c, 9, 35, 74
1, 31968, Note_on_c, 9, 42, 29
1, 31971, Note_off_c, 9, 35, 0
1, 31971, Note_off_c, 9, 42, 0
1, 31978, Note_off_c, 3, 61, 0
1, 31990, Note_off_c, 2, 78, 0
1, 31992, Note_on_c, 2, 85, 63
1, 31992, Note_on_c, 3, 59, 62
1, 32014, Note_off_c, 2, 85, 0
1, 32016, Note_on_c, 2, 81, 63
1, 32016, Note_on_c, 4, 66, 44
1, 32016, Note_on_c, 4, 71, 44
1, 32016, Note_on_c, 4, 74, 44
1, 32016, Note_on_c, 9, 37, 83
1, 32016, Note_on_c, 9, 42, 79
1, 32019, Note_off_c, 9, 37, 0
1, 32019, Note_off_c, 9, 42, 0
1, 32020, Note_off_c, 3, 59, 0
1, 32038, Note_off_c, 1, 35, 0
1, 32040, Note_on_c, 3, 61, 80
1, 32062, Note_off_c, 4, 66, 0
1, 32062, Note_off_c, 4, 71, 0
1, 32062, Note_off_c, 4, 74, 0
1, 32064, Note_on_c, 1, 35, 74
1, 32064, Note_on_c, 4, 59, 44
1, 32064, Note_on_c, 9, 42, 29
1, 32067, Note_off_c, 9, 42, 0
1, 32088, Note_on_c, 9, 37, 83
1, 32091, Note_off_c, 9, 37, 0
1, 32110, Note_off_c, 4, 59, 0
1, 32112, Note_on_c, 4, 66, 44
1, 32112, Note_on_c, 4, 71, 44
1, 32112, Note_on_c, 4, 74, 44
1, 32112, Note_on_c, 9, 42, 79
1, 32115, Note_off_c, 9, 42, 0
1, 32134, Note_off_c, 2, 81, 0
1, 32158, Note_off_c, 3, 61, 0
1, 32158, Note_off_c, 1, 35, 0
1, 32158, Note_off_c, 4, 66, 0
1, 32158, Note_off_c, 4, 71, 0
1, 32158, Note_off_c, 4, 74, 0
1, 32160, Note_on_c, 1, 33, 74
1, 32160, Note_on_c, 2, 78, 39
1, 32160, Note_on_c, 4, 57, 44
1, 32160, Note_on_c, 9, 35, 74
1, 32160, Note_on_c, 9, 42, 29
1, 32163, Note_off_c, 9, 35, 0
1, 32163, Note_off_c, 9, 42, 0
1, 32182, Note_off_c, 2, 78, 0
1, 32184, Note_on_c, 2, 85, 63
1, 32184, Note_on_c, 9, 42, 39
1, 32187, Note_off_c, 9, 42, 0
1, 32206, Note_off_c, 4, 57, 0
1, 32206, Note_off_c, 2, 85, 0
1, 32208, Note_on_c, 2, 81, 63
1, 32208, Note_on_c, 4, 64, 44
1, 32208, Note_on_c, 4, 69, 44
1, 32208, Note_on_c, 4, 73, 44
1, 32208, Note_on_c, 9, 37, 83
1, 32211, Note_off_c, 9, 37, 0
1, 32230, Note_off_c, 1, 33, 0
1, 32232, Note_on_c, 1, 35, 62
1, 32232, Note_on_c, 3, 55, 55
1, 32232, Note_on_c, 9, 37, 83
1, 32235, Note_off_c, 9, 37, 0
1, 32244, Note_off_c, 3, 55, 0
1, 32254, Note_off_c, 8, 86, 0
1, 32254, Note_off_c, 12, 86, 0
1, 32254, Note_off_c, 4, 64, 0
1, 32254, Note_off_c, 4, 69, 0
1, 32254, Note_off_c, 4, 73, 0
1, 32254, Note_off_c, 1, 35, 0
1, 32256, Note_on_c, 1, 28, 74
1, 32256, Note_on_c, 3, 62, 80
1, 32256, Note_on_c, 4, 52, 44
1, 32256, Note_on_c, 9, 42, 29
1, 32259, Note_off_c, 9, 42, 0
1, 32274, Note_off_c, 3, 62, 0
1, 32280, Note_on_c, 3, 62, 80
1, 32298, Note_off_c, 3, 62, 0
1, 32302, Note_off_c, 4, 52, 0
1, 32304, Note_on_c, 4, 62, 44
1, 32304, Note_on_c, 4, 67, 44
1, 32304, Note_on_c, 4, 71, 44
1, 32304, Note_on_c, 9, 42, 79
1, 32307, Note_off_c, 9, 42, 0
1, 32326, Note_off_c, 1, 28, 0
1, 32328, Note_on_c, 3, 62, 76
1, 32350, Note_off_c, 4, 62, 0
1, 32350, Note_off_c, 4, 67, 0
1, 32350, Note_off_c, 4, 71, 0
1, 32352, Note_on_c, 1, 28, 74
1, 32352, Note_on_c, 9, 35, 74
1, 32352, Note_on_c, 9, 42, 29
1, 32355, Note_off_c, 9, 35, 0
1, 32355, Note_off_c, 9, 42, 0
1, 32356, Note_off_c, 3, 62, 0
1, 32376, Note_on_c, 3, 62, 77
1, 32400, Note_on_c, 4, 62, 44
1, 32400, Note_on_c, 4, 67, 44
1, 32400, Note_on_c, 4, 71, 44
1, 32400, Note_on_c, 9, 37, 83
1, 32400, Note_on_c, 9, 42, 79
1, 32401, Note_off_c, 3, 62, 0
1, 32403, Note_off_c, 9, 37, 0
1, 32403, Note_off_c, 9, 42, 0
1, 32424, Note_on_c, 3, 61, 76
1, 32446, Note_off_c, 1, 28, 0
1, 32446, Note_off_c, 4, 62, 0
1, 32446, Note_off_c, 4, 67, 0
1, 32446, Note_off_c, 4, 71, 0
1, 32448, Note_on_c, 1, 33, 74
1, 32448, Note_on_c, 4, 57, 44
1, 32448, Note_on_c, 9, 42, 29
1, 32450, Note_off_c, 3, 61, 0
1, 32451, Note_off_c, 9, 42, 0
1, 32472, Note_on_c, 3, 59, 74
1, 32494, Note_off_c, 4, 57, 0
1, 32496, Note_on_c, 4, 64, 44
1, 32496, Note_on_c, 4, 69, 44
1, 32496, Note_on_c, 4, 73, 44
1, 32496, Note_on_c, 9, 42, 79
1, 32498, Note_off_c, 3, 59, 0
1, 32499, Note_off_c, 9, 42, 0
1, 32518, Note_off_c, 1, 33, 0
1, 32520, Note_on_c, 3, 57, 70
1, 32542, Note_off_c, 4, 64, 0
1, 32542, Note_off_c, 4, 69, 0
1, 32542, Note_off_c, 4, 73, 0
1, 32544, Note_on_c, 1, 33, 74
1, 32544, Note_on_c, 4, 57, 44
1, 32544, Note_on_c, 9, 35, 74
1, 32544, Note_on_c, 9, 42, 29
1, 32547, Note_off_c, 9, 35, 0
1, 32547, Note_off_c, 9, 42, 0
1, 32562, Note_off_c, 3, 57, 0
1, 32568, Note_on_c, 3, 59, 77
1, 32590, Note_off_c, 4, 57, 0
1, 32590, Note_off_c, 3, 59, 0
1, 32592, Control_c, 2, 64, 0
1, 32592, Note_on_c, 4, 64, 44
1, 32592, Note_on_c, 4, 69, 44
1, 32592, Note_on_c, 4, 73, 44
1, 32592, Note_on_c, 9, 37, 83
1, 32592, Note_on_c, 9, 42, 79
1, 32595, Note_off_c, 9, 37, 0
1, 32595, Note_off_c, 9, 42, 0
1, 32616, Note_on_c, 3, 59, 76
1, 32638, Note_off_c, 2, 81, 0
1, 32638, Note_off_c, 1, 33, 0
1, 32638, Note_off_c, 4, 64, 0
1, 32638, Note_off_c, 4, 69, 0
1, 32638, Note_off_c, 4, 73, 0
1, 32640, Control_c, 2, 64, 127
1, 32640, Note_on_c, 1, 35, 74
1, 32640, Note_on_c, 2, 81, 63
1, 32640, Note_on_c, 4, 59, 44
1, 32640, Note_on_c, 9, 42, 29
1, 32643, Note_off_c, 9, 42, 0
1, 32662, Note_off_c, 2, 81, 0
1, 32664, Note_on_c, 2, 76, 39
1, 32664, Note_on_c, 8, 74, 89
1, 32664, Note_on_c, 9, 42, 29
1, 32664, Note_on_c, 12, 74, 99
1, 32667, Note_off_c, 9, 42, 0
1, 32677, Note_off_c, 8, 74, 0
1, 32677, Note_off_c, 12, 74, 0
1, 32686, Note_off_c, 4, 59, 0
1, 32686, Note_off_c, 2, 76, 0
1, 32688, Note_on_c, 2, 78, 63
1, 32688, Note_on_c, 4, 66, 44
1, 32688, Note_on_c, 4, 71, 44
1, 32688, Note_on_c, 4, 74, 44
1, 32688, Note_on_c, 9, 42, 79
1, 32691, Note_off_c, 9, 42, 0
1, 32710, Note_off_c, 2, 78, 0
1, 32712, Note_on_c, 2, 85, 39
1, 32712, Note_on_c, 8, 74, 99
1, 32712, Note_on_c, 12, 74, 101
1, 32725, Note_off_c, 8, 74, 0
1, 32725, Note_off_c, 12, 74, 0
1, 32734, Note_off_c, 1, 35, 0
1, 32734, Note_off_c, 4, 66, 0
1, 32734, Note_off_c, 4, 71, 0
1, 32734, Note_off_c, 4, 74, 0
1, 32734, Note_off_c, 2, 85, 0
1, 32736, Note_on_c, 1, 35, 74
1, 32736, Note_on_c, 2, 93, 63
1, 32736, Note_on_c, 9, 35, 74
1, 32736, Note_on_c, 9, 42, 29
1, 32737, Note_off_c, 3, 59, 0
1, 32739, Note_off_c, 9, 35, 0
1, 32739, Note_off_c, 9, 42, 0
1, 32758, Note_off_c, 2, 93, 0
1, 32760, Note_on_c, 2, 88, 39
1, 32760, Note_on_c, 8, 76, 89
1, 32760, Note_on_c, 12, 76, 99
1, 32773, Note_off_c, 8, 76, 0
1, 32773, Note_off_c, 12, 76, 0
1, 32782, Note_off_c, 2, 88, 0
1, 32784, Note_on_c, 2, 90, 49
1, 32784, Note_on_c, 4, 66, 44
1, 32784, Note_on_c, 4, 71, 44
1, 32784, Note_on_c, 4, 74, 44
1, 32784, Note_on_c, 9, 37, 83
1, 32784, Note_on_c, 9, 42, 79
1, 32787, Note_off_c, 9, 37, 0
1, 32787, Note_off_c, 9, 42, 0
1, 32806, Note_off_c, 1, 35, 0
1, 32806, Note_off_c, 2, 90, 0
1, 32808, Note_on_c, 1, 30, 62
1, 32808, Note_on_c, 2, 95, 63
1, 32808, Note_on_c, 8, 76, 99
1, 32808, Note_on_c, 12, 76, 101
1, 32821, Note_off_c, 8, 76, 0
1, 32821, Note_off_c, 12, 76, 0
1, 32830, Note_off_c, 4, 66, 0
1, 32830, Note_off_c, 4, 71, 0
1, 32830, Note_off_c, 4, 74, 0
1, 32830, Note_off_c, 1, 30, 0
1, 32832, Note_on_c, 1, 35, 74
1, 32832, Note_on_c, 4, 59, 44
1, 32832, Note_on_c, 9, 42, 29
1, 32835, Note_off_c, 9, 42, 0
1, 32844, Note_on_c, 9, 42, 29
1, 32847, Note_off_c, 9, 42, 0
1, 32856, Note_on_c, 8, 73, 89
1, 32856, Note_on_c, 9, 42, 29
1, 32856, Note_on_c, 12, 73, 99
1, 32859, Note_off_c, 9, 42, 0
1, 32868, Note_on_c, 9, 42, 29
1, 32871, Note_off_c, 9, 42, 0
1, 32878, Note_off_c, 4, 59, 0
1, 32878, Note_off_c, 8, 73, 0
1, 32878, Note_off_c, 12, 73, 0
1, 32880, Note_on_c, 4, 66, 44
1, 32880, Note_on_c, 4, 71, 44
1, 32880, Note_on_c, 4, 74, 44
1, 32880, Note_on_c, 8, 69, 99
1, 32880, Note_on_c, 9, 42, 69
1, 32880, Note_on_c, 12, 69, 101
1, 32883, Note_off_c, 9, 42, 0
1, 32893, Note_off_c, 8, 69, 0
1, 32893, Note_off_c, 12, 69, 0
1, 32904, Note_on_c, 9, 42, 79
1, 32907, Note_off_c, 9, 42, 0
1, 32926, Note_off_c, 1, 35, 0
1, 32926, Note_off_c, 4, 66, 0
1, 32926, Note_off_c, 4, 71, 0
1, 32926, Note_off_c, 4, 74, 0
1, 32928, Note_on_c, 1, 33, 74
1, 32928, Note_on_c, 4, 57, 44
1, 32928, Note_on_c, 8, 74, 99
1, 32928, Note_on_c, 9, 35, 74
1, 32928, Note_on_c, 9, 42, 29
1, 32928, Note_on_c, 12, 74, 101
1, 32931, Note_off_c, 9, 35, 0
1, 32931, Note_off_c, 9, 42, 0
1, 32941, Note_off_c, 8, 74, 0
1, 32941, Note_off_c, 12, 74, 0
1, 32952, Note_on_c, 9, 42, 39
1, 32955, Note_off_c, 9, 42, 0
1, 32974, Note_off_c, 4, 57, 0
1, 32976, Note_on_c, 4, 64, 44
1, 32976, Note_on_c, 4, 69, 44
1, 32976, Note_on_c, 4, 73, 44
1, 32976, Note_on_c, 8, 73, 59
1, 32976, Note_on_c, 9, 54, 79
1, 32976, Note_on_c, 9, 55, 79
1, 32976, Note_on_c, 12, 73, 91
1, 32979, Note_off_c, 9, 54, 0
1, 32979, Note_off_c, 9, 55, 0
1, 32998, Note_off_c, 1, 33, 0
1, 32998, Note_off_c, 8, 73, 0
1, 32998, Note_off_c, 12, 73, 0
1, 33000, Note_on_c, 1, 35, 62
1, 33000, Note_on_c, 8, 69, 89
1, 33000, Note_on_c, 12, 69, 99
1, 33013, Note_off_c, 8, 69, 0
1, 33013, Note_off_c, 12, 69, 0
1, 33022, Note_off_c, 2, 95, 0
1, 33022, Note_off_c, 4, 64, 0
1, 33022, Note_off_c, 4, 69, 0
1, 33022, Note_off_c, 4, 73, 0
1, 33022, Note_off_c, 1, 35, 0
1, 33024, Note_on_c, 1, 28, 74
1, 33024, Note_on_c, 4, 52, 44
1, 33024, Note_on_c, 9, 42, 29
1, 33027, Note_off_c, 9, 42, 0
1, 33048, Note_on_c, 8, 69, 59
1, 33048, Note_on_c, 12, 69, 91
1, 33070, Note_off_c, 4, 52, 0
1, 33070, Note_off_c, 8, 69, 0
1, 33070, Note_off_c, 12, 69, 0
1, 33072, Note_on_c, 4, 62, 44
1, 33072, Note_on_c, 4, 67, 44
1, 33072, Note_on_c, 4, 71, 44
1, 33072, Note_on_c, 8, 66, 79
1, 33072, Note_on_c, 9, 42, 79
1, 33072, Note_on_c, 12, 66, 96
1, 33075, Note_off_c, 9, 42, 0
1, 33085, Note_off_c, 8, 66, 0
1, 33085, Note_off_c, 12, 66, 0
1, 33094, Note_off_c, 1, 28, 0
1, 33096, Note_on_c, 3, 54, 72
1, 33110, Note_off_c, 3, 54, 0
1, 33118, Note_off_c, 4, 62, 0
1, 33118, Note_off_c, 4, 67, 0
1, 33118, Note_off_c, 4, 71, 0
1, 33120, Note_on_c, 1, 28, 74
1, 33120, Note_on_c, 3, 59, 80
1, 33120, Note_on_c, 8, 67, 89
1, 33120, Note_on_c, 9, 35, 74
1, 33120, Note_on_c, 9, 42, 29
1, 33120, Note_on_c, 9, 54, 59
1, 33120, Note_on_c, 12, 67, 99
1, 33123, Note_off_c, 9, 35, 0
1, 33123, Note_off_c, 9, 42, 0
1, 33123, Note_off_c, 9, 54, 0
1, 33141, Note_off_c, 3, 59, 0
1, 33144, Note_on_c, 3, 62, 77
1, 33164, Note_off_c, 3, 62, 0
1, 33168, Note_on_c, 4, 62, 44
1, 33168, Note_on_c, 4, 67, 44
1, 33168, Note_on_c, 4, 71, 44
1, 33168, Note_on_c, 9, 37, 83
1, 33168, Note_on_c, 9, 42, 79
1, 33171, Note_off_c, 9, 37, 0
1, 33171, Note_off_c, 9, 42, 0
1, 33192, Note_on_c, 3, 64, 71
1, 33213, Note_off_c, 3, 64, 0
1, 33214, Note_off_c, 1, 28, 0
1, 33214, Note_off_c, 8, 67, 0
1, 33214, Note_off_c, 12, 67, 0
1, 33214, Note_off_c, 4, 62, 0
1, 33214, Note_off_c, 4, 67, 0
1, 33214, Note_off_c, 4, 71, 0
1, 33216, Note_on_c, 1, 33, 74
1, 33216, Note_on_c, 4, 57, 44
1, 33216, Note_on_c, 9, 42, 29
1, 33219, Note_off_c, 9, 42, 0
1, 33240, Note_on_c, 3, 61, 74
1, 33240, Note_on_c, 9, 37, 83
1, 33243, Note_off_c, 9, 37, 0
1, 33262, Note_off_c, 4, 57, 0
1, 33262, Note_off_c, 3, 61, 0
1, 33264, Note_on_c, 4, 64, 44
1, 33264, Note_on_c, 4, 69, 44
1, 33264, Note_on_c, 4, 73, 44
1, 33264, Note_on_c, 9, 37, 83
1, 33264, Note_on_c, 9, 42, 79
1, 33267, Note_off_c, 9, 37, 0
1, 33267, Note_off_c, 9, 42, 0
1, 33286, Note_off_c, 1, 33, 0
1, 33288, Note_on_c, 3, 57, 68
1, 33310, Note_off_c, 4, 64, 0
1, 33310, Note_off_c, 4, 69, 0
1, 33310, Note_off_c, 4, 73, 0
1, 33312, Note_on_c, 1, 33, 74
1, 33312, Note_on_c, 4, 57, 44
1, 33312, Note_on_c, 9, 35, 74
1, 33312, Note_on_c, 9, 42, 29
1, 33315, Note_off_c, 3, 57, 0
1, 33315, Note_off_c, 9, 35, 0
1, 33315, Note_off_c, 9, 42, 0
1, 33336, Note_on_c, 3, 55, 73
1, 33356, Note_off_c, 3, 55, 0
1, 33358, Note_off_c, 4, 57, 0
1, 33360, Control_c, 2, 64, 0
1, 33360, Note_on_c, 4, 64, 44
1, 33360, Note_on_c, 4, 69, 44
1, 33360, Note_on_c, 4, 73, 44
1, 33360, Note_on_c, 9, 37, 83
1, 33360, Note_on_c, 9, 42, 79
1, 33363, Note_off_c, 9, 37, 0
1, 33363, Note_off_c, 9, 42, 0
1, 33384, Note_on_c, 3, 54, 74
1, 33406, Note_off_c, 1, 33, 0
1, 33406, Note_off_c, 4, 64, 0
1, 33406, Note_off_c, 4, 69, 0
1, 33406, Note_off_c, 4, 73, 0
1, 33408, Note_on_c, 1, 35, 74
1, 33408, Note_on_c, 4, 59, 44
1, 33408, Note_on_c, 9, 42, 29
1, 33411, Note_off_c, 9, 42, 0
1, 33422, Note_off_c, 3, 54, 0
1, 33432, Note_on_c, 3, 61, 76
1, 33452, Note_off_c, 3, 61, 0
1, 33454, Note_off_c, 4, 59, 0
1, 33456, Note_on_c, 4, 66, 44
1, 33456, Note_on_c, 4, 71, 44
1, 33456, Note_on_c, 4, 74, 44
1, 33456, Note_on_c, 9, 42, 79
1, 33459, Note_off_c, 9, 42, 0
1, 33478, Note_off_c, 1, 35, 0
1, 33480, Control_c, 2, 64, 127
1, 33480, Note_on_c, 3, 61, 78
1, 33502, Note_off_c, 4, 66, 0
1, 33502, Note_off_c, 4, 71, 0
1, 33502, Note_off_c, 4, 74, 0
1, 33504, Note_on_c, 1, 35, 74
1, 33504, Note_on_c, 9, 35, 74
1, 33504, Note_on_c, 9, 42, 29
1, 33507, Note_off_c, 9, 35, 0
1, 33507, Note_off_c, 9, 42, 0
1, 33552, Note_on_c, 4, 66, 44
1, 33552, Note_on_c, 4, 71, 44
1, 33552, Note_on_c, 4, 74, 44
1, 33552, Note_on_c, 9, 37, 83
1, 33552, Note_on_c, 9, 42, 79
1, 33555, Note_off_c, 9, 37, 0
1, 33555, Note_off_c, 9, 42, 0
1, 33574, Note_off_c, 1, 35, 0
1, 33576, Note_on_c, 2, 98, 63
1, 33598, Note_off_c, 4, 66, 0
1, 33598, Note_off_c, 4, 71, 0
1, 33598, Note_off_c, 4, 74, 0
1, 33598, Note_off_c, 2, 98, 0
1, 33600, Note_on_c, 1, 35, 74
1, 33600, Note_on_c, 2, 100, 79
1, 33600, Note_on_c, 4, 59, 44
1, 33600, Note_on_c, 8, 81, 99
1, 33600, Note_on_c, 9, 42, 29
1, 33600, Note_on_c, 12, 81, 101
1, 33603, Note_off_c, 9, 42, 0
1, 33622, Note_off_c, 1, 35, 0
1, 33622, Note_off_c, 2, 100, 0
1, 33622, Note_off_c, 8, 81, 0
1, 33622, Note_off_c, 12, 81, 0
1, 33624, Note_on_c, 2, 93, 39
1, 33646, Note_off_c, 4, 59, 0
1, 33646, Note_off_c, 2, 93, 0
1, 33648, Note_on_c, 1, 37, 74
1, 33648, Note_on_c, 2, 88, 63
1, 33648, Note_on_c, 4, 66, 44
1, 33648, Note_on_c, 4, 71, 44
1, 33648, Note_on_c, 4, 74, 44
1, 33648, Note_on_c, 8, 76, 69
1, 33648, Note_on_c, 9, 42, 69
1, 33648, Note_on_c, 12, 76, 94
1, 33651, Note_off_c, 9, 42, 0
1, 33670, Note_off_c, 1, 37, 0
1, 33670, Note_off_c, 2, 88, 0
1, 33670, Note_off_c, 8, 76, 0
1, 33670, Note_off_c, 12, 76, 0
1, 33672, Note_on_c, 2, 86, 49
1, 33672, Note_on_c, 9, 42, 79
1, 33672, Note_on_c, 9, 59, 39
1, 33675, Note_off_c, 9, 42, 0
1, 33675, Note_off_c, 9, 59, 0
1, 33678, Note_on_c, 8, 71, 59
1, 33678, Note_on_c, 12, 71, 91
1, 33694, Note_off_c, 4, 66, 0
1, 33694, Note_off_c, 4, 71, 0
1, 33694, Note_off_c, 4, 74, 0
1, 33694, Note_off_c, 2, 86, 0
1, 33694, Note_off_c, 8, 71, 0
1, 33694, Note_off_c, 12, 71, 0
1, 33696, Note_on_c, 1, 38, 74
1, 33696, Note_on_c, 2, 85, 69
1, 33696, Note_on_c, 4, 57, 44
1, 33696, Note_on_c, 8, 69, 99
1, 33696, Note_on_c, 9, 35, 74
1, 33696, Note_on_c, 9, 42, 29
1, 33696, Note_on_c, 12, 69, 101
1, 33699, Note_off_c, 9, 35, 0
1, 33699, Note_off_c, 9, 42, 0
1, 33718, Note_off_c, 2, 85, 0
1, 33718, Note_off_c, 8, 69, 0
1, 33718, Note_off_c, 12, 69, 0
1, 33720, Note_on_c, 2, 81, 39
1, 33726, Note_on_c, 8, 74, 69
1, 33726, Note_on_c, 12, 74, 94
1, 33732, Pitch_bend_c, 8, 7425
1, 33732, Pitch_bend_c, 12, 7425
1, 33742, Note_off_c, 1, 38, 0
1, 33742, Note_off_c, 4, 57, 0
1, 33742, Note_off_c, 2, 81, 0
1, 33744, Note_on_c, 1, 30, 74
1, 33744, Note_on_c, 2, 76, 39
1, 33744, Note_on_c, 4, 64, 44
1, 33744, Note_on_c, 4, 69, 44
1, 33744, Note_on_c, 4, 73, 44
1, 33744, Pitch_bend_c, 8, 6657
1, 33744, Note_on_c, 9, 37, 83
1, 33744, Note_on_c, 9, 42, 79
1, 33744, Pitch_bend_c, 12, 6657
1, 33747, Note_off_c, 9, 37, 0
1, 33747, Note_off_c, 9, 42, 0
1, 33756, Pitch_bend_c, 8, 5121
1, 33756, Pitch_bend_c, 12, 5121
1, 33766, Note_off_c, 2, 76, 0
1, 33768, Note_on_c, 2, 74, 49
1, 33768, Pitch_bend_c, 8, 8193
1, 33768, Note_on_c, 9, 37, 83
1, 33768, Pitch_bend_c, 12, 8193
1, 33769, Note_off_c, 3, 61, 0
1, 33771, Note_off_c, 9, 37, 0
1, 33772, Note_off_c, 8, 74, 0
1, 33772, Note_off_c, 12, 74, 0
1, 33774, Note_on_c, 8, 62, 69
1, 33774, Note_on_c, 12, 62, 94
1, 33790, Note_off_c, 1, 30, 0
1, 33790, Note_off_c, 4, 64, 0
1, 33790, Note_off_c, 4, 69, 0
1, 33790, Note_off_c, 4, 73, 0
1, 33790, Note_off_c, 2, 74, 0
1, 33790, Note_off_c, 8, 62, 0
1, 33790, Note_off_c, 12, 62, 0
1, 33792, Note_on_c, 1, 28, 74
1, 33792, Note_on_c, 2, 73, 63
1, 33792, Note_on_c, 4, 52, 44
1, 33792, Note_on_c, 8, 64, 99
1, 33792, Note_on_c, 12, 64, 101
1, 33838, Note_off_c, 4, 52, 0
1, 33840, Note_on_c, 4, 62, 44
1, 33840, Note_on_c, 4, 67, 44
1, 33840, Note_on_c, 4, 71, 44
1, 33840, Note_on_c, 9, 42, 79
1, 33843, Note_off_c, 9, 42, 0
1, 33862, Note_off_c, 1, 28, 0
1, 33886, Note_off_c, 8, 64, 0
1, 33886, Note_off_c, 12, 64, 0
1, 33886, Note_off_c, 4, 62, 0
1, 33886, Note_off_c, 4, 67, 0
1, 33886, Note_off_c, 4, 71, 0
1, 33888, Note_on_c, 1, 28, 74
1, 33888, Note_on_c, 3, 59, 75
1, 33888, Note_on_c, 9, 35, 74
1, 33891, Note_off_c, 9, 35, 0
1, 33910, Note_off_c, 3, 59, 0
1, 33912, Note_on_c, 3, 62, 75
1, 33929, Note_off_c, 3, 62, 0
1, 33936, Note_on_c, 4, 62, 44
1, 33936, Note_on_c, 4, 67, 44
1, 33936, Note_on_c, 4, 71, 44
1, 33936, Note_on_c, 9, 37, 83
1, 33936, Note_on_c, 9, 42, 79
1, 33939, Note_off_c, 9, 37, 0
1, 33939, Note_off_c, 9, 42, 0
1, 33960, Note_on_c, 3, 64, 73
1, 33982, Note_off_c, 1, 28, 0
1, 33982, Note_off_c, 4, 62, 0
1, 33982, Note_off_c, 4, 67, 0
1, 33982, Note_off_c, 4, 71, 0
1, 33984, Note_on_c, 1, 33, 74
1, 33984, Note_on_c, 4, 57, 44
1, 33984, Note_on_c, 9, 42, 29
1, 33987, Note_off_c, 9, 42, 0
1, 33988, Note_off_c, 3, 64, 0
1, 34008, Note_on_c, 3, 61, 68
1, 34030, Note_off_c, 4, 57, 0
1, 34031, Note_off_c, 3, 61, 0
1, 34032, Note_on_c, 4, 64, 44
1, 34032, Note_on_c, 4, 69, 44
1, 34032, Note_on_c, 4, 73, 44
1, 34032, Note_on_c, 9, 42, 79
1, 34035, Note_off_c, 9, 42, 0
1, 34054, Note_off_c, 1, 33, 0
1, 34056, Note_on_c, 3, 57, 72
1, 34078, Note_off_c, 4, 64, 0
1, 34078, Note_off_c, 4, 69, 0
1, 34078, Note_off_c, 4, 73, 0
1, 34080, Note_on_c, 1, 33, 74
1, 34080, Note_on_c, 4, 57, 44
1, 34080, Note_on_c, 9, 35, 74
1, 34080, Note_on_c, 9, 42, 39
1, 34083, Note_off_c, 9, 35, 0
1, 34083, Note_off_c, 9, 42, 0
1, 34126, Note_off_c, 4, 57, 0
1, 34128, Note_on_c, 4, 64, 44
1, 34128, Note_on_c, 4, 69, 44
1, 34128, Note_on_c, 4, 73, 44
1, 34128, Note_on_c, 9, 37, 83
1, 34128, Note_on_c, 9, 42, 79
1, 34131, Note_off_c, 9, 37, 0
1, 34131, Note_off_c, 9, 42, 0
1, 34133, Note_off_c, 3, 57, 0
1, 34152, Control_c, 2, 64, 0
1, 34152, Note_on_c, 3, 55, 66
1, 34174, Note_off_c, 2, 73, 0
1, 34174, Note_off_c, 1, 33, 0
1, 34174, Note_off_c, 4, 64, 0
1, 34174, Note_off_c, 4, 69, 0
1, 34174, Note_off_c, 4, 73, 0
1, 34174, Note_off_c, 3, 55, 0
1, 34176, Note_on_c, 1, 35, 74
1, 34176, Note_on_c, 3, 54, 76
1, 34176, Note_on_c, 4, 59, 44
1, 34222, Note_off_c, 4, 59, 0
1, 34224, Control_c, 2, 64, 127
1, 34224, Note_on_c, 4, 66, 44
1, 34224, Note_on_c, 4, 71, 44
1, 34224, Note_on_c, 4, 74, 44
1, 34224, Note_on_c, 9, 42, 79
1, 34227, Note_off_c, 9, 42, 0
1, 34246, Note_off_c, 1, 35, 0
1, 34270, Note_off_c, 4, 66, 0
1, 34270, Note_off_c, 4, 71, 0
1, 34270, Note_off_c, 4, 74, 0
1, 34272, Control_c, 8, 11, 17
1, 34272, Control_c, 12, 11, 17
1, 34272, Note_on_c, 1, 35, 74
1, 34272, Pitch_bend_c, 8, 129
1, 34272, Note_on_c, 8, 71, 99
1, 34272, Note_on_c, 9, 35, 74
1, 34272, Pitch_bend_c, 12, 129
1, 34272, Note_on_c, 12, 71, 101
1, 34275, Note_off_c, 9, 35, 0
1, 34284, Control_c, 8, 11, 30
1, 34284, Control_c, 12, 11, 30
1, 34288, Pitch_bend_c, 8, 3969
1, 34288, Pitch_bend_c, 12, 3969
1, 34296, Control_c, 8, 11, 50
1, 34296, Control_c, 12, 11, 50
1, 34304, Pitch_bend_c, 8, 8193
1, 34304, Pitch_bend_c, 12, 8193
1, 34308, Control_c, 8, 11, 72
1, 34308, Control_c, 12, 11, 72
1, 34320, Note_on_c, 4, 66, 44
1, 34320, Note_on_c, 4, 71, 44
1, 34320, Note_on_c, 4, 74, 44
1, 34320, Note_on_c, 9, 37, 83
1, 34320, Note_on_c, 9, 42, 49
1, 34323, Note_off_c, 9, 37, 0
1, 34323, Note_off_c, 9, 42, 0
1, 34342, Note_off_c, 1, 35, 0
1, 34344, Note_on_c, 1, 30, 62
1, 34344, Note_on_c, 2, 83, 49
1, 34344, Note_on_c, 9, 42, 59
1, 34347, Note_off_c, 9, 42, 0
1, 34366, Note_off_c, 4, 66, 0
1, 34366, Note_off_c, 4, 71, 0
1, 34366, Note_off_c, 4, 74, 0
1, 34366, Note_off_c, 1, 30, 0
1, 34366, Note_off_c, 2, 83, 0
1, 34368, Note_on_c, 1, 35, 74
1, 34368, Note_on_c, 2, 85, 63
1, 34368, Note_on_c, 4, 59, 44
1, 34390, Note_off_c, 2, 85, 0
1, 34392, Note_on_c, 2, 86, 49
1, 34414, Note_off_c, 1, 35, 0
1, 34414, Note_off_c, 4, 59, 0
1, 34414, Note_off_c, 2, 86, 0
1, 34416, Note_on_c, 1, 37, 74
1, 34416, Note_on_c, 2, 93, 39
1, 34416, Note_on_c, 4, 66, 44
1, 34416, Note_on_c, 4, 71, 44
1, 34416, Note_on_c, 4, 74, 44
1, 34416, Note_on_c, 9, 42, 79
1, 34419, Note_off_c, 9, 42, 0
1, 34438, Note_off_c, 2, 93, 0
1, 34440, Note_off_c, 3, 54, 0
1, 34440, Note_on_c, 2, 95, 63
1, 34462, Note_off_c, 1, 37, 0
1, 34462, Note_off_c, 4, 66, 0
1, 34462, Note_off_c, 4, 71, 0
1, 34462, Note_off_c, 4, 74, 0
1, 34464, Note_on_c, 1, 38, 74
1, 34464, Note_on_c, 4, 57, 44
1, 34464, Note_on_c, 9, 35, 74
1, 34464, Note_on_c, 9, 42, 39
1, 34464, Note_on_c, 9, 54, 59
1, 34467, Note_off_c, 9, 35, 0
1, 34467, Note_off_c, 9, 42, 0
1, 34467, Note_off_c, 9, 54, 0
1, 34510, Note_off_c, 1, 38, 0
1, 34510, Note_off_c, 4, 57, 0
1, 34512, Note_on_c, 1, 30, 74
1, 34512, Note_on_c, 4, 64, 44
1, 34512, Note_on_c, 4, 69, 44
1, 34512, Note_on_c, 4, 73, 44
1, 34512, Note_on_c, 9, 37, 83
1, 34512, Note_on_c, 9, 46, 59
1, 34515, Note_off_c, 9, 37, 0
1, 34515, Note_off_c, 9, 46, 0
1, 34558, Note_off_c, 8, 71, 0
1, 34558, Note_off_c, 12, 71, 0
1, 34558, Note_off_c, 1, 30, 0
1, 34558, Note_off_c, 4, 64, 0
1, 34558, Note_off_c, 4, 69, 0
1, 34558, Note_off_c, 4, 73, 0
1, 34560, Note_on_c, 1, 28, 74
1, 34560, Note_on_c, 4, 52, 44
1, 34560, Note_on_c, 8, 67, 69
1, 34560, Note_on_c, 12, 67, 94
1, 34606, Note_off_c, 4, 52, 0
1, 34608, Control_c, 8, 11, 62
1, 34608, Control_c, 12, 11, 62
1, 34608, Note_on_c, 4, 62, 44
1, 34608, Note_on_c, 4, 67, 44
1, 34608, Note_on_c, 4, 71, 44
1, 34608, Note_on_c, 9, 42, 79
1, 34611, Note_off_c, 9, 42, 0
1, 34620, Control_c, 8, 11, 54
1, 34620, Control_c, 12, 11, 54
1, 34630, Note_off_c, 1, 28, 0
1, 34632, Control_c, 8, 11, 54
1, 34632, Control_c, 12, 11, 54
1, 34644, Control_c, 8, 11, 52
1, 34644, Control_c, 12, 11, 52
1, 34654, Note_off_c, 4, 62, 0
1, 34654, Note_off_c, 4, 67, 0
1, 34654, Note_off_c, 4, 71, 0
1, 34656, Control_c, 8, 11, 48
1, 34656, Control_c, 12, 11, 48
1, 34656, Note_on_c, 1, 28, 74
1, 34656, Note_on_c, 3, 59, 76
1, 34656, Note_on_c, 9, 35, 74
1, 34659, Note_off_c, 9, 35, 0
1, 34668, Control_c, 8, 11, 48
1, 34668, Control_c, 12, 11, 48
1, 34678, Note_off_c, 3, 59, 0
1, 34680, Control_c, 8, 11, 43
1, 34680, Control_c, 12, 11, 43
1, 34680, Note_on_c, 3, 62, 76
1, 34692, Control_c, 8, 11, 36
1, 34692, Control_c, 12, 11, 36
1, 34699, Note_off_c, 3, 62, 0
1, 34704, Control_c, 8, 11, 30
1, 34704, Control_c, 12, 11, 30
1, 34704, Note_on_c, 4, 62, 44
1, 34704, Note_on_c, 4, 67, 44
1, 34704, Note_on_c, 4, 71, 44
1, 34704, Note_on_c, 9, 37, 83
1, 34704, Note_on_c, 9, 42, 79
1, 34707, Note_off_c, 9, 37, 0
1, 34707, Note_off_c, 9, 42, 0
1, 34716, Control_c, 8, 11, 26
1, 34716, Control_c, 12, 11, 26
1, 34728, Control_c, 8, 11, 22
1, 34728, Control_c, 12, 11, 22
1, 34728, Note_on_c, 3, 64, 70
1, 34740, Control_c, 8, 11, 11
1, 34740, Control_c, 12, 11, 11
1, 34750, Note_off_c, 8, 67, 0
1, 34750, Note_off_c, 12, 67, 0
1, 34750, Note_off_c, 1, 28, 0
1, 34750, Note_off_c, 4, 62, 0
1, 34750, Note_off_c, 4, 67, 0
1, 34750, Note_off_c, 4, 71, 0
1, 34751, Note_off_c, 3, 64, 0
1, 34752, Control_c, 8, 11, 8
1, 34752, Control_c, 12, 11, 8
1, 34752, Note_on_c, 1, 33, 74
1, 34752, Note_on_c, 4, 57, 44
1, 34764, Control_c, 8, 11, 8
1, 34764, Control_c, 12, 11, 8
1, 34776, Note_on_c, 3, 61, 77
1, 34796, Note_off_c, 3, 61, 0
1, 34798, Note_off_c, 4, 57, 0
1, 34800, Note_on_c, 4, 64, 44
1, 34800, Note_on_c, 4, 69, 44
1, 34800, Note_on_c, 4, 73, 44
1, 34800, Note_on_c, 9, 42, 79
1, 34803, Note_off_c, 9, 42, 0
1, 34822, Note_off_c, 1, 33, 0
1, 34824, Note_on_c, 3, 57, 65
1, 34846, Note_off_c, 2, 95, 0
1, 34846, Note_off_c, 4, 64, 0
1, 34846, Note_off_c, 4, 69, 0
1, 34846, Note_off_c, 4, 73, 0
1, 34846, Note_off_c, 3, 57, 0
1, 34848, Control_c, 2, 64, 0
1, 34848, Note_on_c, 1, 33, 74
1, 34848, Note_on_c, 4, 57, 44
1, 34848, Note_on_c, 9, 35, 74
1, 34851, Note_off_c, 9, 35, 0
1, 34872, Note_on_c, 3, 55, 69
1, 34894, Note_off_c, 4, 57, 0
1, 34894, Note_off_c, 3, 55, 0
1, 34896, Note_on_c, 4, 64, 44
1, 34896, Note_on_c, 4, 69, 44
1, 34896, Note_on_c, 4, 73, 44
1, 34896, Note_on_c, 9, 37, 83
1, 34896, Note_on_c, 9, 42, 79
1, 34899, Note_off_c, 9, 37, 0
1, 34899, Note_off_c, 9, 42, 0
1, 34918, Note_off_c, 1, 33, 0
1, 34920, Note_on_c, 1, 30, 62
1, 34920, Note_on_c, 3, 54, 71
1, 34942, Note_off_c, 4, 64, 0
1, 34942, Note_off_c, 4, 69, 0
1, 34942, Note_off_c, 4, 73, 0
1, 34942, Note_off_c, 1, 30, 0
1, 34944, Control_c, 8, 11, 72
1, 34944, Control_c, 12, 11, 72
1, 34944, Note_on_c, 1, 35, 74
1, 34944, Note_on_c, 4, 59, 44
1, 34966, Note_off_c, 3, 54, 0
1, 34968, Note_on_c, 3, 61, 77
1, 34980, Note_off_c, 3, 61, 0
1, 34990, Note_off_c, 4, 59, 0
1, 34992, Note_on_c, 3, 61, 79
1, 34992, Note_on_c, 4, 66, 44
1, 34992, Note_on_c, 4, 71, 44
1, 34992, Note_on_c, 4, 74, 44
1, 34992, Note_on_c, 9, 42, 79
1, 34995, Note_off_c, 9, 42, 0
1, 35014, Note_off_c, 1, 35, 0
1, 35014, Note_off_c, 3, 61, 0
1, 35016, Note_on_c, 3, 59, 74
1, 35038, Note_off_c, 4, 66, 0
1, 35038, Note_off_c, 4, 71, 0
1, 35038, Note_off_c, 4, 74, 0
1, 35038, Note_off_c, 3, 59, 0
1, 35040, Note_on_c, 1, 35, 74
1, 35040, Note_on_c, 3, 61, 81
1, 35040, Note_on_c, 8, 64, 59
1, 35040, Note_on_c, 9, 35, 74
1, 35040, Note_on_c, 12, 64, 91
1, 35043, Note_off_c, 9, 35, 0
1, 35062, Note_off_c, 8, 64, 0
1, 35062, Note_off_c, 12, 64, 0
1, 35070, Note_on_c, 8, 64, 79
1, 35070, Note_on_c, 12, 64, 96
1, 35086, Note_off_c, 8, 64, 0
1, 35086, Note_off_c, 12, 64, 0
1, 35088, Note_on_c, 4, 66, 44
1, 35088, Note_on_c, 4, 71, 44
1, 35088, Note_on_c, 4, 74, 44
1, 35088, Note_on_c, 8, 69, 64
1, 35088, Note_on_c, 9, 37, 83
1, 35088, Note_on_c, 9, 42, 79
1, 35088, Note_on_c, 12, 69, 93
1, 35091, Note_off_c, 9, 37, 0
1, 35091, Note_off_c, 9, 42, 0
1, 35110, Note_off_c, 1, 35, 0
1, 35110, Note_off_c, 8, 69, 0
1, 35110, Note_off_c, 12, 69, 0
1, 35112, Note_on_c, 1, 30, 62
1, 35118, Note_on_c, 8, 69, 84
1, 35118, Note_on_c, 12, 69, 98
1, 35134, Note_off_c, 4, 66, 0
1, 35134, Note_off_c, 4, 71, 0
1, 35134, Note_off_c, 4, 74, 0
1, 35134, Note_off_c, 1, 30, 0
1, 35134, Note_off_c, 8, 69, 0
1, 35134, Note_off_c, 12, 69, 0
1, 35136, Note_on_c, 1, 35, 74
1, 35136, Note_on_c, 4, 59, 44
1, 35136, Note_on_c, 8, 71, 69
1, 35136, Note_on_c, 12, 71, 94
1, 35158, Note_off_c, 8, 71, 0
1, 35158, Note_off_c, 12, 71, 0
1, 35161, Note_off_c, 3, 61, 0
1, 35166, Note_on_c, 8, 71, 89
1, 35166, Note_on_c, 12, 71, 99
1, 35182, Note_off_c, 1, 35, 0
1, 35182, Note_off_c, 4, 59, 0
1, 35182, Note_off_c, 8, 71, 0
1, 35182, Note_off_c, 12, 71, 0
1, 35184, Note_on_c, 1, 30, 74
1, 35184, Note_on_c, 4, 66, 44
1, 35184, Note_on_c, 4, 71, 44
1, 35184, Note_on_c, 4, 74, 44
1, 35184, Note_on_c, 8, 73, 74
1, 35184, Note_on_c, 9, 42, 59
1, 35184, Note_on_c, 12, 73, 95
1, 35187, Note_off_c, 9, 42, 0
1, 35206, Note_off_c, 8, 73, 0
1, 35206, Note_off_c, 12, 73, 0
1, 35208, Note_on_c, 9, 42, 79
1, 35211, Note_off_c, 9, 42, 0
1, 35214, Note_on_c, 8, 73, 94
1, 35214, Note_on_c, 12, 73, 100
1, 35230, Note_off_c, 1, 30, 0
1, 35230, Note_off_c, 4, 66, 0
1, 35230, Note_off_c, 4, 71, 0
1, 35230, Note_off_c, 4, 74, 0
1, 35230, Note_off_c, 8, 73, 0
1, 35230, Note_off_c, 12, 73, 0
1, 35232, Note_on_c, 1, 33, 74
1, 35232, Note_on_c, 3, 59, 76
1, 35232, Note_on_c, 4, 57, 44
1, 35232, Note_on_c, 8, 74, 79
1, 35232, Note_on_c, 9, 35, 74
1, 35232, Note_on_c, 12, 74, 96
1, 35235, Note_off_c, 9, 35, 0
1, 35251, Note_off_c, 3, 59, 0
1, 35254, Note_off_c, 8, 74, 0
1, 35254, Note_off_c, 12, 74, 0
1, 35256, Note_on_c, 3, 61, 76
1, 35262, Note_on_c, 8, 74, 99
1, 35262, Note_on_c, 12, 74, 101
1, 35276, Note_off_c, 3, 61, 0
1, 35278, Note_off_c, 1, 33, 0
1, 35278, Note_off_c, 4, 57, 0
1, 35280, Note_on_c, 1, 35, 74
1, 35280, Note_on_c, 4, 64, 44
1, 35280, Note_on_c, 4, 69, 44
1, 35280, Note_on_c, 4, 73, 44
1, 35280, Note_on_c, 9, 37, 83
1, 35280, Note_on_c, 9, 42, 59
1, 35283, Note_off_c, 9, 37, 0
1, 35283, Note_off_c, 9, 42, 0
1, 35284, Note_off_c, 8, 74, 0
1, 35284, Note_off_c, 12, 74, 0
1, 35304, Note_on_c, 3, 62, 80
1, 35304, Note_on_c, 9, 37, 83
1, 35304, Note_on_c, 9, 42, 79
1, 35307, Note_off_c, 9, 37, 0
1, 35307, Note_off_c, 9, 42, 0
1, 35310, Note_on_c, 8, 74, 69
1, 35310, Note_on_c, 12, 74, 94
1, 35326, Note_off_c, 1, 35, 0
1, 35326, Note_off_c, 4, 64, 0
1, 35326, Note_off_c, 4, 69, 0
1, 35326, Note_off_c, 4, 73, 0
1, 35326, Note_off_c, 8, 74, 0
1, 35326, Note_off_c, 12, 74, 0
1, 35328, Note_on_c, 1, 28, 74
1, 35328, Note_on_c, 4, 52, 44
1, 35328, Note_on_c, 8, 73, 99
1, 35328, Note_on_c, 9, 42, 29
1, 35328, Note_on_c, 12, 73, 101
1, 35331, Note_off_c, 9, 42, 0
1, 35356, Note_off_c, 8, 73, 0
1, 35356, Note_off_c, 12, 73, 0
1, 35358, Note_on_c, 8, 64, 69
1, 35358, Note_on_c, 12, 64, 94
1, 35374, Note_off_c, 4, 52, 0
1, 35376, Note_on_c, 4, 62, 44
1, 35376, Note_on_c, 4, 67, 44
1, 35376, Note_on_c, 4, 71, 44
1, 35376, Note_on_c, 9, 42, 79
1, 35379, Note_off_c, 9, 42, 0
1, 35388, Note_off_c, 8, 64, 0
1, 35388, Note_off_c, 12, 64, 0
1, 35398, Note_off_c, 1, 28, 0
1, 35406, Note_on_c, 8, 66, 69
1, 35406, Note_on_c, 12, 66, 94
1, 35422, Note_off_c, 4, 62, 0
1, 35422, Note_off_c, 4, 67, 0
1, 35422, Note_off_c, 4, 71, 0
1, 35422, Note_off_c, 8, 66, 0
1, 35422, Note_off_c, 12, 66, 0
1, 35424, Note_off_c, 3, 62, 0
1, 35424, Note_on_c, 1, 28, 74
1, 35424, Note_on_c, 8, 67, 89
1, 35424, Note_on_c, 9, 35, 74
1, 35424, Note_on_c, 9, 42, 29
1, 35424, Note_on_c, 12, 67, 99
1, 35427, Note_off_c, 9, 35, 0
1, 35427, Note_off_c, 9, 42, 0
1, 35472, Note_on_c, 3, 62, 80
1, 35472, Note_on_c, 4, 62, 44
1, 35472, Note_on_c, 4, 67, 44
1, 35472, Note_on_c, 4, 71, 44
1, 35472, Note_on_c, 9, 37, 83
1, 35472, Note_on_c, 9, 42, 79
1, 35475, Note_off_c, 9, 37, 0
1, 35475, Note_off_c, 9, 42, 0
1, 35497, Note_off_c, 3, 62, 0
1, 35518, Note_off_c, 1, 28, 0
1, 35518, Note_off_c, 4, 62, 0
1, 35518, Note_off_c, 4, 67, 0
1, 35518, Note_off_c, 4, 71, 0
1, 35520, Note_on_c, 1, 33, 74
1, 35520, Note_on_c, 3, 61, 76
1, 35520, Note_on_c, 4, 57, 44
1, 35520, Note_on_c, 9, 42, 29
1, 35523, Note_off_c, 9, 42, 0
1, 35542, Note_off_c, 3, 61, 0
1, 35544, Note_on_c, 3, 59, 72
1, 35566, Note_off_c, 4, 57, 0
1, 35568, Note_on_c, 4, 64, 44
1, 35568, Note_on_c, 4, 69, 44
1, 35568, Note_on_c, 4, 73, 44
1, 35568, Note_on_c, 9, 42, 79
1, 35571, Note_off_c, 3, 59, 0
1, 35571, Note_off_c, 9, 42, 0
1, 35590, Note_off_c, 1, 33, 0
1, 35592, Note_on_c, 3, 57, 76
1, 35614, Note_off_c, 4, 64, 0
1, 35614, Note_off_c, 4, 69, 0
1, 35614, Note_off_c, 4, 73, 0
1, 35616, Note_on_c, 1, 33, 74
1, 35616, Note_on_c, 4, 57, 44
1, 35616, Note_on_c, 9, 35, 74
1, 35616, Note_on_c, 9, 42, 29
1, 35618, Note_off_c, 3, 57, 0
1, 35619, Note_off_c, 9, 35, 0
1, 35619, Note_off_c, 9, 42, 0
1, 35638, Note_off_c, 8, 67, 0
1, 35638, Note_off_c, 12, 67, 0
1, 35640, Note_on_c, 3, 59, 76
1, 35646, Note_on_c, 8, 69, 89
1, 35646, Note_on_c, 12, 69, 99
1, 35662, Note_off_c, 4, 57, 0
1, 35664, Note_on_c, 4, 64, 44
1, 35664, Note_on_c, 4, 69, 44
1, 35664, Note_on_c, 4, 73, 44
1, 35664, Note_on_c, 9, 37, 83
1, 35664, Note_on_c, 9, 42, 79
1, 35667, Note_off_c, 9, 37, 0
1, 35667, Note_off_c, 9, 42, 0
1, 35698, Note_off_c, 3, 59, 0
1, 35710, Note_off_c, 1, 33, 0
1, 35710, Note_off_c, 8, 69, 0
1, 35710, Note_off_c, 12, 69, 0
1, 35710, Note_off_c, 4, 64, 0
1, 35710, Note_off_c, 4, 69, 0
1, 35710, Note_off_c, 4, 73, 0
1, 35712, Note_on_c, 1, 35, 74
1, 35712, Note_on_c, 3, 59, 76
1, 35712, Note_on_c, 4, 59, 44
1, 35712, Note_on_c, 8, 66, 79
1, 35712, Note_on_c, 9, 42, 29
1, 35712, Note_on_c, 12, 66, 96
1, 35715, Note_off_c, 9, 42, 0
1, 35736, Note_on_c, 9, 42, 29
1, 35739, Note_off_c, 9, 42, 0
1, 35758, Note_off_c, 4, 59, 0
1, 35760, Note_on_c, 4, 66, 44
1, 35760, Note_on_c, 4, 71, 44
1, 35760, Note_on_c, 4, 74, 44
1, 35760, Note_on_c, 9, 42, 79
1, 35763, Note_off_c, 9, 42, 0
1, 35806, Note_off_c, 1, 35, 0
1, 35806, Note_off_c, 8, 66, 0
1, 35806, Note_off_c, 12, 66, 0
1, 35806, Note_off_c, 4, 66, 0
1, 35806, Note_off_c, 4, 71, 0
1, 35806, Note_off_c, 4, 74, 0
1, 35808, Note_on_c, 1, 35, 74
1, 35808, Note_on_c, 9, 35, 74
1, 35808, Note_on_c, 9, 42, 29
1, 35811, Note_off_c, 9, 35, 0
1, 35811, Note_off_c, 9, 42, 0
1, 35856, Note_on_c, 4, 66, 44
1, 35856, Note_on_c, 4, 71, 44
1, 35856, Note_on_c, 4, 74, 44
1, 35856, Note_on_c, 9, 37, 83
1, 35856, Note_on_c, 9, 42, 79
1, 35859, Note_off_c, 9, 37, 0
1, 35859, Note_off_c, 9, 42, 0
1, 35878, Note_off_c, 1, 35, 0
1, 35902, Note_off_c, 4, 66, 0
1, 35902, Note_off_c, 4, 71, 0
1, 35902, Note_off_c, 4, 74, 0
1, 35904, Note_on_c, 1, 35, 74
1, 35904, Note_on_c, 4, 59, 44
1, 35904, Note_on_c, 8, 66, 99
1, 35904, Note_on_c, 9, 42, 29
1, 35904, Note_on_c, 12, 66, 101
1, 35906, Note_off_c, 3, 59, 0
1, 35907, Note_off_c, 9, 42, 0
1, 35926, Note_off_c, 8, 66, 0
1, 35926, Note_off_c, 12, 66, 0
1, 35928, Note_on_c, 9, 37, 83
1, 35931, Note_off_c, 9, 37, 0
1, 35934, Note_on_c, 8, 69, 59
1, 35934, Note_on_c, 12, 69, 91
1, 35950, Note_off_c, 1, 35, 0
1, 35950, Note_off_c, 4, 59, 0
1, 35950, Note_off_c, 8, 69, 0
1, 35950, Note_off_c, 12, 69, 0
1, 35952, Note_on_c, 1, 37, 74
1, 35952, Note_on_c, 4, 66, 44
1, 35952, Note_on_c, 4, 71, 44
1, 35952, Note_on_c, 4, 74, 44
1, 35952, Note_on_c, 8, 66, 99
1, 35952, Note_on_c, 9, 42, 79
1, 35952, Note_on_c, 12, 66, 101
1, 35955, Note_off_c, 9, 42, 0
1, 35998, Note_off_c, 1, 37, 0
1, 35998, Note_off_c, 4, 66, 0
1, 35998, Note_off_c, 4, 71, 0
1, 35998, Note_off_c, 4, 74, 0
1, 35998, Note_off_c, 8, 66, 0
1, 35998, Note_off_c, 12, 66, 0
1, 36000, Note_on_c, 1, 38, 74
1, 36000, Note_on_c, 3, 59, 80
1, 36000, Note_on_c, 4, 57, 44
1, 36000, Note_on_c, 9, 35, 74
1, 36000, Note_on_c, 9, 54, 59
1, 36003, Note_off_c, 9, 35, 0
1, 36003, Note_off_c, 9, 54, 0
1, 36019, Note_off_c, 3, 59, 0
1, 36024, Note_on_c, 3, 61, 78
1, 36030, Note_on_c, 8, 64, 89
1, 36030, Note_on_c, 12, 64, 99
1, 36043, Note_off_c, 8, 64, 0
1, 36043, Note_off_c, 12, 64, 0
1, 36045, Note_off_c, 3, 61, 0
1, 36046, Note_off_c, 1, 38, 0
1, 36046, Note_off_c, 4, 57, 0
1, 36048, Note_on_c, 1, 30, 74
1, 36048, Note_on_c, 4, 64, 44
1, 36048, Note_on_c, 4, 69, 44
1, 36048, Note_on_c, 4, 73, 44
1, 36048, Note_on_c, 9, 37, 83
1, 36048, Note_on_c, 9, 54, 79
1, 36048, Note_on_c, 9, 55, 79
1, 36051, Note_off_c, 9, 37, 0
1, 36051, Note_off_c, 9, 54, 0
1, 36051, Note_off_c, 9, 55, 0
1, 36072, Note_on_c, 3, 62, 78
1, 36078, Note_on_c, 8, 66, 59
1, 36078, Note_on_c, 12, 66, 91
1, 36094, Note_off_c, 1, 30, 0
1, 36094, Note_off_c, 4, 64, 0
1, 36094, Note_off_c, 4, 69, 0
1, 36094, Note_off_c, 4, 73, 0
1, 36094, Note_off_c, 8, 66, 0
1, 36094, Note_off_c, 12, 66, 0
1, 36096, Note_on_c, 1, 28, 74
1, 36096, Note_on_c, 4, 52, 44
1, 36096, Note_on_c, 8, 67, 99
1, 36096, Note_on_c, 9, 42, 29
1, 36096, Note_on_c, 12, 67, 101
1, 36099, Note_off_c, 9, 42, 0
1, 36142, Note_off_c, 4, 52, 0
1, 36144, Note_on_c, 4, 62, 44
1, 36144, Note_on_c, 4, 67, 44
1, 36144, Note_on_c, 4, 71, 44
1, 36144, Note_on_c, 9, 42, 79
1, 36147, Note_off_c, 9, 42, 0
1, 36166, Note_off_c, 1, 28, 0
1, 36166, Note_off_c, 8, 67, 0
1, 36166, Note_off_c, 12, 67, 0
1, 36190, Note_off_c, 4, 62, 0
1, 36190, Note_off_c, 4, 67, 0
1, 36190, Note_off_c, 4, 71, 0
1, 36192, Control_c, 2, 11, 60
1, 36192, Note_on_c, 1, 28, 74
1, 36192, Note_on_c, 2, 64, 125
1, 36192, Note_on_c, 2, 69, 125
1, 36192, Note_on_c, 2, 73, 125
1, 36192, Note_on_c, 9, 35, 74
1, 36192, Note_on_c, 9, 42, 29
1, 36195, Note_off_c, 9, 35, 0
1, 36195, Note_off_c, 9, 42, 0
1, 36210, Note_off_c, 3, 62, 0
1, 36238, Note_off_c, 2, 64, 0
1, 36238, Note_off_c, 2, 69, 0
1, 36238, Note_off_c, 2, 73, 0
1, 36240, Note_on_c, 2, 62, 78
1, 36240, Note_on_c, 2, 71, 78
1, 36240, Note_on_c, 3, 62, 80
1, 36240, Note_on_c, 4, 62, 44
1, 36240, Note_on_c, 4, 67, 44
1, 36240, Note_on_c, 4, 71, 44
1, 36240, Note_on_c, 8, 67, 79
1, 36240, Note_on_c, 9, 37, 83
1, 36240, Note_on_c, 9, 42, 79
1, 36240, Note_on_c, 12, 67, 96
1, 36243, Note_off_c, 9, 37, 0
1, 36243, Note_off_c, 9, 42, 0
1, 36260, Note_off_c, 3, 62, 0
1, 36286, Note_off_c, 1, 28, 0
1, 36286, Note_off_c, 2, 62, 0
1, 36286, Note_off_c, 2, 71, 0
1, 36286, Note_off_c, 4, 62, 0
1, 36286, Note_off_c, 4, 67, 0
1, 36286, Note_off_c, 4, 71, 0
1, 36286, Note_off_c, 8, 67, 0
1, 36286, Note_off_c, 12, 67, 0
1, 36288, Note_on_c, 1, 33, 74
1, 36288, Note_on_c, 2, 64, 125
1, 36288, Note_on_c, 2, 69, 125
1, 36288, Note_on_c, 2, 73, 125
1, 36288, Note_on_c, 3, 61, 75
1, 36288, Note_on_c, 4, 57, 44
1, 36288, Note_on_c, 8, 64, 99
1, 36288, Note_on_c, 9, 42, 29
1, 36288, Note_on_c, 12, 64, 101
1, 36291, Note_off_c, 9, 42, 0
1, 36310, Note_off_c, 2, 64, 0
1, 36310, Note_off_c, 2, 69, 0
1, 36310, Note_off_c, 2, 73, 0
1, 36310, Note_off_c, 3, 61, 0
1, 36312, Note_on_c, 3, 59, 69
1, 36316, Note_off_c, 8, 64, 0
1, 36316, Note_off_c, 12, 64, 0
1, 36318, Note_on_c, 8, 62, 69
1, 36318, Note_on_c, 12, 62, 94
1, 36334, Note_off_c, 4, 57, 0
1, 36334, Note_off_c, 3, 59, 0
1, 36336, Note_on_c, 2, 62, 78
1, 36336, Note_on_c, 2, 71, 78
1, 36336, Note_on_c, 4, 64, 44
1, 36336, Note_on_c, 4, 69, 44
1, 36336, Note_on_c, 4, 73, 44
1, 36336, Note_on_c, 9, 42, 79
1, 36339, Note_off_c, 9, 42, 0
1, 36348, Note_off_c, 8, 62, 0
1, 36348, Note_off_c, 12, 62, 0
1, 36358, Note_off_c, 1, 33, 0
1, 36358, Note_off_c, 2, 62, 0
1, 36358, Note_off_c, 2, 71, 0
1, 36360, Note_on_c, 2, 64, 125
1, 36360, Note_on_c, 2, 69, 125
1, 36360, Note_on_c, 2, 73, 125
1, 36360, Note_on_c, 3, 57, 65
1, 36366, Note_on_c, 8, 61, 99
1, 36366, Note_on_c, 12, 61, 101
1, 36375, Note_off_c, 3, 57, 0
1, 36382, Note_off_c, 4, 64, 0
1, 36382, Note_off_c, 4, 69, 0
1, 36382, Note_off_c, 4, 73, 0
1, 36384, Note_on_c, 1, 33, 74
1, 36384, Note_on_c, 4, 57, 44
1, 36384, Note_on_c, 9, 35, 74
1, 36384, Note_on_c, 9, 42, 29
1, 36387, Note_off_c, 9, 35, 0
1, 36387, Note_off_c, 9, 42, 0
1, 36396, Note_off_c, 8, 61, 0
1, 36396, Note_off_c, 12, 61, 0
1, 36408, Note_on_c, 3, 59, 79
1, 36414, Note_on_c, 8, 64, 89
1, 36414, Note_on_c, 12, 64, 99
1, 36430, Note_off_c, 2, 64, 0
1, 36430, Note_off_c, 2, 69, 0
1, 36430, Note_off_c, 2, 73, 0
1, 36430, Note_off_c, 4, 57, 0
1, 36432, Note_on_c, 2, 62, 78
1, 36432, Note_on_c, 2, 71, 78
1, 36432, Note_on_c, 4, 64, 44
1, 36432, Note_on_c, 4, 69, 44
1, 36432, Note_on_c, 4, 73, 44
1, 36432, Note_on_c, 9, 37, 83
1, 36432, Note_on_c, 9, 42, 79
1, 36435, Note_off_c, 9, 37, 0
1, 36435, Note_off_c, 9, 42, 0
1, 36454, Note_off_c, 2, 62, 0
1, 36454, Note_off_c, 2, 71, 0
1, 36463, Note_off_c, 3, 59, 0
1, 36478, Note_off_c, 1, 33, 0
1, 36478, Note_off_c, 8, 64, 0
1, 36478, Note_off_c, 12, 64, 0
1, 36478, Note_off_c, 4, 64, 0
1, 36478, Note_off_c, 4, 69, 0
1, 36478, Note_off_c, 4, 73, 0
1, 36480, Note_on_c, 1, 35, 74
1, 36480, Note_on_c, 2, 64, 98
1, 36480, Note_on_c, 2, 69, 98
1, 36480, Note_on_c, 2, 73, 98
1, 36480, Note_on_c, 3, 59, 78
1, 36480, Note_on_c, 4, 59, 44
1, 36480, Note_on_c, 8, 62, 99
1, 36480, Note_on_c, 9, 42, 29
1, 36480, Note_on_c, 12, 62, 101
1, 36483, Note_off_c, 9, 42, 0
1, 36491, Note_off_c, 2, 64, 0
1, 36491, Note_off_c, 2, 69, 0
1, 36491, Note_off_c, 2, 73, 0
1, 36504, Note_on_c, 2, 62, 78
1, 36504, Note_on_c, 2, 71, 78
1, 36504, Note_on_c, 9, 42, 29
1, 36507, Note_off_c, 9, 42, 0
1, 36526, Note_off_c, 4, 59, 0
1, 36526, Note_off_c, 2, 62, 0
1, 36526, Note_off_c, 2, 71, 0
1, 36528, Note_on_c, 2, 64, 125
1, 36528, Note_on_c, 2, 69, 125
1, 36528, Note_on_c, 2, 73, 125
1, 36528, Note_on_c, 4, 66, 44
1, 36528, Note_on_c, 4, 71, 44
1, 36528, Note_on_c, 4, 74, 44
1, 36528, Note_on_c, 9, 42, 79
1, 36531, Note_off_c, 9, 42, 0
1, 36574, Note_off_c, 1, 35, 0
1, 36574, Note_off_c, 4, 66, 0
1, 36574, Note_off_c, 4, 71, 0
1, 36574, Note_off_c, 4, 74, 0
1, 36576, Note_on_c, 1, 35, 74
1, 36576, Note_on_c, 9, 35, 74
1, 36576, Note_on_c, 9, 42, 29
1, 36579, Note_off_c, 9, 35, 0
1, 36579, Note_off_c, 9, 42, 0
1, 36600, Note_on_c, 9, 42, 29
1, 36603, Note_off_c, 9, 42, 0
1, 36622, Note_off_c, 2, 64, 0
1, 36622, Note_off_c, 2, 69, 0
1, 36622, Note_off_c, 2, 73, 0
1, 36624, Note_on_c, 2, 62, 78
1, 36624, Note_on_c, 2, 71, 78
1, 36624, Note_on_c, 4, 66, 44
1, 36624, Note_on_c, 4, 71, 44
1, 36624, Note_on_c, 4, 74, 44
1, 36624, Note_on_c, 9, 42, 79
1, 36627, Note_off_c, 9, 42, 0
1, 36646, Note_off_c, 1, 35, 0
1, 36646, Note_off_c, 2, 62, 0
1, 36646, Note_off_c, 2, 71, 0
1, 36670, Note_off_c, 8, 62, 0
1, 36670, Note_off_c, 12, 62, 0
1, 36670, Note_off_c, 4, 66, 0
1, 36670, Note_off_c, 4, 71, 0
1, 36670, Note_off_c, 4, 74, 0
1, 36672, Note_on_c, 1, 35, 74
1, 36672, Note_on_c, 2, 64, 125
1, 36672, Note_on_c, 2, 69, 125
1, 36672, Note_on_c, 2, 73, 125
1, 36672, Note_on_c, 4, 59, 44
1, 36672, Note_on_c, 9, 37, 83
1, 36672, Note_on_c, 9, 42, 29
1, 36675, Note_off_c, 9, 37, 0
1, 36675, Note_off_c, 9, 42, 0
1, 36678, Note_off_c, 3, 59, 0
1, 36683, Note_off_c, 2, 64, 0
1, 36683, Note_off_c, 2, 69, 0
1, 36683, Note_off_c, 2, 73, 0
1, 36696, Note_on_c, 9, 42, 29
1, 36699, Note_off_c, 9, 42, 0
1, 36718, Note_off_c, 4, 59, 0
1, 36720, Note_on_c, 2, 62, 78
1, 36720, Note_on_c, 2, 71, 78
1, 36720, Note_on_c, 4, 66, 44
1, 36720, Note_on_c, 4, 71, 44
1, 36720, Note_on_c, 4, 74, 44
1, 36720, Note_on_c, 9, 42, 79
1, 36723, Note_off_c, 9, 42, 0
1, 36742, Note_off_c, 1, 35, 0
1, 36742, Note_off_c, 2, 62, 0
1, 36742, Note_off_c, 2, 71, 0
1, 36744, Note_on_c, 2, 64, 125
1, 36744, Note_on_c, 2, 69, 125
1, 36744, Note_on_c, 2, 73, 125
1, 36744, Note_on_c, 9, 37, 83
1, 36747, Note_off_c, 9, 37, 0
1, 36766, Note_off_c, 4, 66, 0
1, 36766, Note_off_c, 4, 71, 0
1, 36766, Note_off_c, 4, 74, 0
1, 36768, Note_on_c, 1, 33, 74
1, 36768, Note_on_c, 3, 59, 77
1, 36768, Note_on_c, 4, 57, 44
1, 36768, Note_on_c, 9, 35, 74
1, 36768, Note_on_c, 9, 42, 29
1, 36768, Note_on_c, 9, 54, 59
1, 36771, Note_off_c, 9, 35, 0
1, 36771, Note_off_c, 9, 42, 0
1, 36771, Note_off_c, 9, 54, 0
1, 36785, Note_off_c, 3, 59, 0
1, 36792, Note_on_c, 3, 61, 80
1, 36792, Note_on_c, 9, 42, 29
1, 36795, Note_off_c, 9, 42, 0
1, 36812, Note_off_c, 3, 61, 0
1, 36814, Note_off_c, 2, 64, 0
1, 36814, Note_off_c, 2, 69, 0
1, 36814, Note_off_c, 2, 73, 0
1, 36814, Note_off_c, 1, 33, 0
1, 36814, Note_off_c, 4, 57, 0
1, 36816, Note_on_c, 1, 35, 74
1, 36816, Note_on_c, 2, 62, 78
1, 36816, Note_on_c, 2, 71, 78
1, 36816, Note_on_c, 4, 64, 44
1, 36816, Note_on_c, 4, 69, 44
1, 36816, Note_on_c, 4, 73, 44
1, 36816, Note_on_c, 9, 37, 83
1, 36816, Note_on_c, 9, 42, 79
1, 36816, Note_on_c, 9, 54, 79
1, 36816, Note_on_c, 9, 55, 79
1, 36819, Note_off_c, 9, 37, 0
1, 36819, Note_off_c, 9, 42, 0
1, 36819, Note_off_c, 9, 54, 0
1, 36819, Note_off_c, 9, 55, 0
1, 36838, Note_off_c, 2, 62, 0
1, 36838, Note_off_c, 2, 71, 0
1, 36840, Note_on_c, 3, 62, 78
1, 36862, Note_off_c, 1, 35, 0
1, 36862, Note_off_c, 4, 64, 0
1, 36862, Note_off_c, 4, 69, 0
1, 36862, Note_off_c, 4, 73, 0
1, 36864, Note_on_c, 1, 28, 74
1, 36864, Note_on_c, 4, 52, 44
1, 36864, Note_on_c, 9, 42, 29
1, 36867, Note_off_c, 9, 42, 0
1, 36910, Note_off_c, 4, 52, 0
1, 36912, Note_on_c, 4, 62, 44
1, 36912, Note_on_c, 4, 67, 44
1, 36912, Note_on_c, 4, 71, 44
1, 36912, Note_on_c, 9, 42, 79
1, 36915, Note_off_c, 9, 42, 0
1, 36923, Note_off_c, 3, 62, 0
1, 36934, Note_off_c, 1, 28, 0
1, 36958, Note_off_c, 4, 62, 0
1, 36958, Note_off_c, 4, 67, 0
1, 36958, Note_off_c, 4, 71, 0
1, 36960, Note_on_c, 1, 28, 74
1, 36960, Note_on_c, 2, 64, 125
1, 36960, Note_on_c, 2, 69, 125
1, 36960, Note_on_c, 2, 73, 125
1, 36960, Note_on_c, 9, 35, 74
1, 36960, Note_on_c, 9, 42, 29
1, 36963, Note_off_c, 9, 35, 0
1, 36963, Note_off_c, 9, 42, 0
1, 36984, Note_on_c, 9, 42, 29
1, 36987, Note_off_c, 9, 42, 0
1, 37006, Note_off_c, 2, 64, 0
1, 37006, Note_off_c, 2, 69, 0
1, 37006, Note_off_c, 2, 73, 0
1, 37008, Note_on_c, 2, 62, 78
1, 37008, Note_on_c, 2, 71, 78
1, 37008, Note_on_c, 3, 62, 80
1, 37008, Note_on_c, 4, 62, 44
1, 37008, Note_on_c, 4, 67, 44
1, 37008, Note_on_c, 4, 71, 44
1, 37008, Note_on_c, 9, 37, 83
1, 37008, Note_on_c, 9, 42, 79
1, 37011, Note_off_c, 9, 37, 0
1, 37011, Note_off_c, 9, 42, 0
1, 37030, Note_off_c, 3, 62, 0
1, 37054, Note_off_c, 1, 28, 0
1, 37054, Note_off_c, 2, 62, 0
1, 37054, Note_off_c, 2, 71, 0
1, 37054, Note_off_c, 4, 62, 0
1, 37054, Note_off_c, 4, 67, 0
1, 37054, Note_off_c, 4, 71, 0
1, 37056, Note_on_c, 1, 33, 74
1, 37056, Note_on_c, 2, 64, 125
1, 37056, Note_on_c, 2, 69, 125
1, 37056, Note_on_c, 2, 73, 125
1, 37056, Note_on_c, 3, 61, 79
1, 37056, Note_on_c, 4, 57, 44
1, 37056, Note_on_c, 9, 42, 29
1, 37059, Note_off_c, 9, 42, 0
1, 37078, Note_off_c, 2, 64, 0
1, 37078, Note_off_c, 2, 69, 0
1, 37078, Note_off_c, 2, 73, 0
1, 37078, Note_off_c, 3, 61, 0
1, 37080, Note_on_c, 3, 59, 73
1, 37080, Note_on_c, 9, 42, 29
1, 37083, Note_off_c, 9, 42, 0
1, 37101, Note_off_c, 3, 59, 0
1, 37102, Note_off_c, 4, 57, 0
1, 37104, Note_on_c, 2, 62, 78
1, 37104, Note_on_c, 2, 71, 78
1, 37104, Note_on_c, 4, 64, 44
1, 37104, Note_on_c, 4, 69, 44
1, 37104, Note_on_c, 4, 73, 44
1, 37104, Note_on_c, 9, 42, 79
1, 37107, Note_off_c, 9, 42, 0
1, 37126, Note_off_c, 1, 33, 0
1, 37126, Note_off_c, 2, 62, 0
1, 37126, Note_off_c, 2, 71, 0
1, 37128, Note_on_c, 2, 64, 125
1, 37128, Note_on_c, 2, 69, 125
1, 37128, Note_on_c, 2, 73, 125
1, 37128, Note_on_c, 3, 57, 62
1, 37150, Note_off_c, 4, 64, 0
1, 37150, Note_off_c, 4, 69, 0
1, 37150, Note_off_c, 4, 73, 0
1, 37152, Note_off_c, 3, 57, 0
1, 37152, Note_on_c, 1, 33, 74
1, 37152, Note_on_c, 4, 57, 44
1, 37152, Note_on_c, 9, 35, 74
1, 37152, Note_on_c, 9, 42, 29
1, 37155, Note_off_c, 9, 35, 0
1, 37155, Note_off_c, 9, 42, 0
1, 37176, Note_on_c, 3, 59, 80
1, 37176, Note_on_c, 9, 42, 29
1, 37179, Note_off_c, 9, 42, 0
1, 37198, Note_off_c, 2, 64, 0
1, 37198, Note_off_c, 2, 69, 0
1, 37198, Note_off_c, 2, 73, 0
1, 37198, Note_off_c, 4, 57, 0
1, 37200, Note_on_c, 2, 62, 78
1, 37200, Note_on_c, 2, 71, 78
1, 37200, Note_on_c, 4, 64, 44
1, 37200, Note_on_c, 4, 69, 44
1, 37200, Note_on_c, 4, 73, 44
1, 37200, Note_on_c, 9, 37, 83
1, 37200, Note_on_c, 9, 42, 79
1, 37203, Note_off_c, 9, 37, 0
1, 37203, Note_off_c, 9, 42, 0
1, 37222, Note_off_c, 2, 62, 0
1, 37222, Note_off_c, 2, 71, 0
1, 37237, Note_off_c, 3, 59, 0
1, 37246, Note_off_c, 1, 33, 0
1, 37246, Note_off_c, 4, 64, 0
1, 37246, Note_off_c, 4, 69, 0
1, 37246, Note_off_c, 4, 73, 0
1, 37248, Note_on_c, 1, 35, 74
1, 37248, Note_on_c, 2, 64, 98
1, 37248, Note_on_c, 2, 69, 98
1, 37248, Note_on_c, 2, 73, 98
1, 37248, Note_on_c, 3, 59, 76
1, 37248, Note_on_c, 4, 59, 44
1, 37248, Note_on_c, 9, 42, 29
1, 37251, Note_off_c, 9, 42, 0
1, 37259, Note_off_c, 2, 64, 0
1, 37259, Note_off_c, 2, 69, 0
1, 37259, Note_off_c, 2, 73, 0
1, 37272, Note_on_c, 2, 62, 78
1, 37272, Note_on_c, 2, 71, 78
1, 37272, Note_on_c, 9, 42, 29
1, 37275, Note_off_c, 9, 42, 0
1, 37294, Note_off_c, 4, 59, 0
1, 37294, Note_off_c, 2, 62, 0
1, 37294, Note_off_c, 2, 71, 0
1, 37296, Note_on_c, 2, 64, 125
1, 37296, Note_on_c, 2, 69, 125
1, 37296, Note_on_c, 2, 73, 125
1, 37296, Note_on_c, 4, 66, 44
1, 37296, Note_on_c, 4, 71, 44
1, 37296, Note_on_c, 4, 74, 44
1, 37296, Note_on_c, 9, 42, 79
1, 37299, Note_off_c, 9, 42, 0
1, 37320, Note_on_c, 8, 66, 69
1, 37320, Note_on_c, 12, 66, 94
1, 37342, Note_off_c, 1, 35, 0
1, 37342, Note_off_c, 4, 66, 0
1, 37342, Note_off_c, 4, 71, 0
1, 37342, Note_off_c, 4, 74, 0
1, 37342, Note_off_c, 8, 66, 0
1, 37342, Note_off_c, 12, 66, 0
1, 37344, Note_on_c, 1, 35, 74
1, 37344, Note_on_c, 8, 71, 99
1, 37344, Note_on_c, 9, 35, 74
1, 37344, Note_on_c, 9, 42, 29
1, 37344, Note_on_c, 12, 71, 101
1, 37347, Note_off_c, 9, 35, 0
1, 37347, Note_off_c, 9, 42, 0
1, 37366, Note_off_c, 8, 71, 0
1, 37366, Note_off_c, 12, 71, 0
1, 37368, Note_on_c, 9, 42, 29
1, 37371, Note_off_c, 9, 42, 0
1, 37390, Note_off_c, 2, 64, 0
1, 37390, Note_off_c, 2, 69, 0
1, 37390, Note_off_c, 2, 73, 0
1, 37392, Note_on_c, 2, 62, 78
1, 37392, Note_on_c, 2, 71, 78
1, 37392, Note_on_c, 4, 66, 44
1, 37392, Note_on_c, 4, 71, 44
1, 37392, Note_on_c, 4, 74, 44
1, 37392, Note_on_c, 8, 71, 79
1, 37392, Note_on_c, 9, 42, 79
1, 37392, Note_on_c, 12, 71, 96
1, 37395, Note_off_c, 9, 42, 0
1, 37414, Note_off_c, 1, 35, 0
1, 37414, Note_off_c, 2, 62, 0
1, 37414, Note_off_c, 2, 71, 0
1, 37414, Note_off_c, 8, 71, 0
1, 37414, Note_off_c, 12, 71, 0
1, 37416, Note_on_c, 1, 30, 62
1, 37416, Note_on_c, 8, 73, 99
1, 37416, Note_on_c, 12, 73, 101
1, 37438, Note_off_c, 4, 66, 0
1, 37438, Note_off_c, 4, 71, 0
1, 37438, Note_off_c, 4, 74, 0
1, 37438, Note_off_c, 1, 30, 0
1, 37438, Note_off_c, 8, 73, 0
1, 37438, Note_off_c, 12, 73, 0
1, 37440, Note_on_c, 1, 35, 74
1, 37440, Note_on_c, 2, 64, 125
1, 37440, Note_on_c, 2, 69, 125
1, 37440, Note_on_c, 2, 73, 125
1, 37440, Note_on_c, 4, 59, 44
1, 37440, Note_on_c, 9, 37, 83
1, 37440, Note_on_c, 9, 42, 29
1, 37443, Note_off_c, 9, 37, 0
1, 37443, Note_off_c, 9, 42, 0
1, 37450, Note_off_c, 3, 59, 0
1, 37451, Note_off_c, 2, 64, 0
1, 37451, Note_off_c, 2, 69, 0
1, 37451, Note_off_c, 2, 73, 0
1, 37462, Note_off_c, 1, 35, 0
1, 37464, Note_on_c, 8, 73, 69
1, 37464, Note_on_c, 9, 42, 29
1, 37464, Note_on_c, 12, 73, 94
1, 37467, Note_off_c, 9, 42, 0
1, 37486, Note_off_c, 4, 59, 0
1, 37486, Note_off_c, 8, 73, 0
1, 37486, Note_off_c, 12, 73, 0
1, 37488, Note_on_c, 1, 37, 74
1, 37488, Note_on_c, 2, 62, 78
1, 37488, Note_on_c, 2, 71, 78
1, 37488, Note_on_c, 4, 66, 44
1, 37488, Note_on_c, 4, 71, 44
1, 37488, Note_on_c, 4, 74, 44
1, 37488, Note_on_c, 8, 74, 79
1, 37488, Note_on_c, 9, 42, 79
1, 37488, Note_on_c, 12, 74, 96
1, 37491, Note_off_c, 9, 42, 0
1, 37510, Note_off_c, 1, 37, 0
1, 37510, Note_off_c, 2, 62, 0
1, 37510, Note_off_c, 2, 71, 0
1, 37510, Note_off_c, 8, 74, 0
1, 37510, Note_off_c, 12, 74, 0
1, 37512, Note_on_c, 2, 64, 125
1, 37512, Note_on_c, 2, 69, 125
1, 37512, Note_on_c, 2, 73, 125
1, 37512, Note_on_c, 8, 76, 89
1, 37512, Note_on_c, 9, 37, 83
1, 37512, Note_on_c, 12, 76, 99
1, 37515, Note_off_c, 9, 37, 0
1, 37534, Note_off_c, 4, 66, 0
1, 37534, Note_off_c, 4, 71, 0
1, 37534, Note_off_c, 4, 74, 0
1, 37534, Note_off_c, 8, 76, 0
1, 37534, Note_off_c, 12, 76, 0
1, 37536, Control_c, 3, 10, 34
1, 37536, Control_c, 11, 10, 94
1, 37536, Note_on_c, 1, 38, 74
1, 37536, Note_on_c, 3, 59, 67
1, 37536, Note_on_c, 4, 57, 44
1, 37536, Pitch_bend_c, 8, 385
1, 37536, Note_on_c, 8, 78, 99
1, 37536, Note_on_c, 9, 35, 74
1, 37536, Note_on_c, 9, 42, 29
1, 37536, Note_on_c, 9, 54, 59
1, 37536, Note_on_c, 11, 66, 89
1, 37536, Note_on_c, 11, 69, 89
1, 37536, Pitch_bend_c, 12, 385
1, 37536, Note_on_c, 12, 78, 101
1, 37539, Note_off_c, 9, 35, 0
1, 37539, Note_off_c, 9, 42, 0
1, 37539, Note_off_c, 9, 54, 0
1, 37548, Pitch_bend_c, 8, 4097
1, 37548, Pitch_bend_c, 12, 4097
1, 37553, Note_off_c, 3, 59, 0
1, 37560, Note_on_c, 3, 61, 67
1, 37560, Pitch_bend_c, 8, 8193
1, 37560, Note_on_c, 9, 42, 29
1, 37560, Pitch_bend_c, 12, 8193
1, 37563, Note_off_c, 9, 42, 0
1, 37578, Note_off_c, 3, 61, 0
1, 37582, Note_off_c, 2, 64, 0
1, 37582, Note_off_c, 2, 69, 0
1, 37582, Note_off_c, 2, 73, 0
1, 37582, Note_off_c, 1, 38, 0
1, 37582, Note_off_c, 4, 57, 0
1, 37584, Note_on_c, 1, 30, 74
1, 37584, Note_on_c, 2, 62, 78
1, 37584, Note_on_c, 2, 71, 78
1, 37584, Note_on_c, 4, 64, 44
1, 37584, Note_on_c, 4, 69, 44
1, 37584, Note_on_c, 4, 73, 44
1, 37584, Note_on_c, 9, 37, 83
1, 37584, Note_on_c, 9, 42, 79
1, 37584, Note_on_c, 9, 54, 79
1, 37584, Note_on_c, 9, 55, 79
1, 37587, Note_off_c, 9, 37, 0
1, 37587, Note_off_c, 9, 42, 0
1, 37587, Note_off_c, 9, 54, 0
1, 37587, Note_off_c, 9, 55, 0
1, 37606, Note_off_c, 2, 62, 0
1, 37606, Note_off_c, 2, 71, 0
1, 37608, Note_on_c, 3, 62, 67
1, 37625, Note_off_c, 11, 66, 0
1, 37625, Note_off_c, 11, 69, 0
1, 37630, Note_off_c, 1, 30, 0
1, 37630, Note_off_c, 4, 64, 0
1, 37630, Note_off_c, 4, 69, 0
1, 37630, Note_off_c, 4, 73, 0
1, 37632, Note_on_c, 1, 28, 74
1, 37632, Note_on_c, 4, 52, 44
1, 37632, Note_on_c, 9, 42, 39
1, 37632, Note_on_c, 11, 62, 83
1, 37632, Note_on_c, 11, 66, 83
1, 37635, Note_off_c, 9, 42, 0
1, 37656, Note_on_c, 9, 42, 29
1, 37659, Note_off_c, 9, 42, 0
1, 37668, Note_off_c, 11, 62, 0
1, 37668, Note_off_c, 11, 66, 0
1, 37678, Note_off_c, 4, 52, 0
1, 37680, Note_on_c, 4, 62, 44
1, 37680, Note_on_c, 4, 67, 44
1, 37680, Note_on_c, 4, 71, 44
1, 37680, Note_on_c, 9, 42, 79
1, 37681, Note_off_c, 3, 62, 0
1, 37683, Note_off_c, 9, 42, 0
1, 37702, Note_off_c, 1, 28, 0
1, 37726, Note_off_c, 4, 62, 0
1, 37726, Note_off_c, 4, 67, 0
1, 37726, Note_off_c, 4, 71, 0
1, 37728, Note_on_c, 1, 28, 74
1, 37728, Note_on_c, 2, 64, 125
1, 37728, Note_on_c, 2, 69, 125
1, 37728, Note_on_c, 2, 73, 125
1, 37728, Note_on_c, 9, 35, 74
1, 37728, Note_on_c, 9, 42, 39
1, 37728, Note_on_c, 11, 62, 81
1, 37728, Note_on_c, 11, 66, 88
1, 37731, Note_off_c, 9, 35, 0
1, 37731, Note_off_c, 9, 42, 0
1, 37741, Note_off_c, 11, 62, 0
1, 37744, Note_off_c, 11, 66, 0
1, 37752, Note_on_c, 9, 42, 29
1, 37755, Note_off_c, 9, 42, 0
1, 37774, Note_off_c, 2, 64, 0
1, 37774, Note_off_c, 2, 69, 0
1, 37774, Note_off_c, 2, 73, 0
1, 37776, Note_on_c, 2, 62, 78
1, 37776, Note_on_c, 2, 71, 78
1, 37776, Note_on_c, 3, 62, 67
1, 37776, Note_on_c, 4, 62, 44
1, 37776, Note_on_c, 4, 67, 44
1, 37776, Note_on_c, 4, 71, 44
1, 37776, Note_on_c, 9, 37, 83
1, 37776, Note_on_c, 9, 42, 79
1, 37776, Note_on_c, 9, 59, 39
1, 37776, Note_on_c, 11, 62, 82
1, 37776, Note_on_c, 11, 66, 86
1, 37779, Note_off_c, 9, 37, 0
1, 37779, Note_off_c, 9, 42, 0
1, 37779, Note_off_c, 9, 59, 0
1, 37787, Note_off_c, 11, 62, 0
1, 37790, Note_off_c, 11, 66, 0
1, 37796, Note_off_c, 3, 62, 0
1, 37798, Note_off_c, 1, 28, 0
1, 37800, Note_on_c, 1, 30, 62
1, 37800, Note_on_c, 11, 62, 79
1, 37800, Note_on_c, 11, 66, 85
1, 37822, Note_off_c, 8, 78, 0
1, 37822, Note_off_c, 12, 78, 0
1, 37822, Note_off_c, 2, 62, 0
1, 37822, Note_off_c, 2, 71, 0
1, 37822, Note_off_c, 4, 62, 0
1, 37822, Note_off_c, 4, 67, 0
1, 37822, Note_off_c, 4, 71, 0
1, 37822, Note_off_c, 1, 30, 0
1, 37824, Note_on_c, 1, 33, 74
1, 37824, Note_on_c, 2, 64, 125
1, 37824, Note_on_c, 2, 69, 125
1, 37824, Note_on_c, 2, 73, 125
1, 37824, Note_on_c, 3, 61, 67
1, 37824, Note_on_c, 4, 57, 44
1, 37824, Note_on_c, 8, 76, 99
1, 37824, Note_on_c, 9, 42, 39
1, 37824, Note_on_c, 12, 76, 101
1, 37827, Note_off_c, 9, 42, 0
1, 37836, Note_off_c, 11, 62, 0
1, 37836, Note_off_c, 11, 66, 0
1, 37846, Note_off_c, 2, 64, 0
1, 37846, Note_off_c, 2, 69, 0
1, 37846, Note_off_c, 2, 73, 0
1, 37846, Note_off_c, 3, 61, 0
1, 37848, Note_on_c, 3, 59, 67
1, 37848, Note_on_c, 9, 42, 29
1, 37848, Note_on_c, 11, 61, 83
1, 37848, Note_on_c, 11, 64, 78
1, 37851, Note_off_c, 9, 42, 0
1, 37854, Note_off_c, 8, 76, 0
1, 37854, Note_off_c, 12, 76, 0
1, 37856, Note_on_c, 8, 74, 79
1, 37856, Note_on_c, 12, 74, 96
1, 37863, Note_off_c, 11, 64, 0
1, 37865, Note_off_c, 3, 59, 0
1, 37866, Note_off_c, 11, 61, 0
1, 37869, Note_off_c, 8, 74, 0
1, 37869, Note_off_c, 12, 74, 0
1, 37870, Note_off_c, 4, 57, 0
1, 37872, Note_on_c, 2, 62, 78
1, 37872, Note_on_c, 2, 71, 78
1, 37872, Note_on_c, 4, 64, 44
1, 37872, Note_on_c, 4, 69, 44
1, 37872, Note_on_c, 4, 73, 44
1, 37872, Note_on_c, 9, 42, 79
1, 37872, Note_on_c, 11, 59, 79
1, 37872, Note_on_c, 11, 62, 77
1, 37875, Note_off_c, 9, 42, 0
1, 37888, Note_on_c, 8, 73, 99
1, 37888, Note_on_c, 12, 73, 101
1, 37894, Note_off_c, 1, 33, 0
1, 37894, Note_off_c, 2, 62, 0
1, 37894, Note_off_c, 2, 71, 0
1, 37896, Note_off_c, 11, 62, 0
1, 37896, Note_on_c, 2, 64, 125
1, 37896, Note_on_c, 2, 69, 125
1, 37896, Note_on_c, 2, 73, 125
1, 37896, Note_on_c, 3, 57, 67
1, 37900, Note_off_c, 11, 59, 0
1, 37914, Note_off_c, 3, 57, 0
1, 37918, Note_off_c, 4, 64, 0
1, 37918, Note_off_c, 4, 69, 0
1, 37918, Note_off_c, 4, 73, 0
1, 37920, Note_on_c, 1, 33, 74
1, 37920, Note_on_c, 4, 57, 44
1, 37920, Note_on_c, 9, 35, 74
1, 37920, Note_on_c, 9, 42, 39
1, 37923, Note_off_c, 9, 35, 0
1, 37923, Note_off_c, 9, 42, 0
1, 37944, Note_on_c, 3, 59, 67
1, 37944, Note_on_c, 9, 42, 29
1, 37947, Note_off_c, 9, 42, 0
1, 37950, Note_off_c, 8, 73, 0
1, 37950, Note_off_c, 12, 73, 0
1, 37952, Note_on_c, 8, 76, 99
1, 37952, Note_on_c, 12, 76, 101
1, 37965, Note_off_c, 8, 76, 0
1, 37965, Note_off_c, 12, 76, 0
1, 37966, Note_off_c, 2, 64, 0
1, 37966, Note_off_c, 2, 69, 0
1, 37966, Note_off_c, 2, 73, 0
1, 37966, Note_off_c, 4, 57, 0
1, 37968, Note_on_c, 2, 62, 78
1, 37968, Note_on_c, 2, 71, 78
1, 37968, Note_on_c, 4, 64, 44
1, 37968, Note_on_c, 4, 69, 44
1, 37968, Note_on_c, 4, 73, 44
1, 37968, Note_on_c, 9, 37, 83
1, 37968, Note_on_c, 9, 42, 79
1, 37971, Note_off_c, 9, 37, 0
1, 37971, Note_off_c, 9, 42, 0
1, 37990, Note_off_c, 1, 33, 0
1, 37990, Note_off_c, 2, 62, 0
1, 37990, Note_off_c, 2, 71, 0
1, 37992, Note_on_c, 1, 30, 62
1, 38000, Note_off_c, 3, 59, 0
1, 38014, Note_off_c, 4, 64, 0
1, 38014, Note_off_c, 4, 69, 0
1, 38014, Note_off_c, 4, 73, 0
1, 38014, Note_off_c, 1, 30, 0
1, 38016, Note_on_c, 1, 35, 74
1, 38016, Note_on_c, 2, 64, 98
1, 38016, Note_on_c, 2, 69, 98
1, 38016, Note_on_c, 2, 73, 98
1, 38016, Note_on_c, 3, 59, 67
1, 38016, Note_on_c, 4, 59, 44
1, 38016, Note_on_c, 9, 42, 39
1, 38016, Note_on_c, 11, 61, 86
1, 38016, Note_on_c, 11, 64, 82
1, 38019, Note_off_c, 9, 42, 0
1, 38027, Note_off_c, 2, 64, 0
1, 38027, Note_off_c, 2, 69, 0
1, 38027, Note_off_c, 2, 73, 0
1, 38033, Note_off_c, 11, 61, 0
1, 38034, Note_off_c, 11, 64, 0
1, 38040, Note_on_c, 2, 62, 78
1, 38040, Note_on_c, 2, 71, 78
1, 38040, Note_on_c, 9, 42, 29
1, 38043, Note_off_c, 9, 42, 0
1, 38062, Note_off_c, 4, 59, 0
1, 38062, Note_off_c, 2, 62, 0
1, 38062, Note_off_c, 2, 71, 0
1, 38064, Note_on_c, 2, 64, 125
1, 38064, Note_on_c, 2, 69, 125
1, 38064, Note_on_c, 2, 73, 125
1, 38064, Note_on_c, 4, 66, 44
1, 38064, Note_on_c, 4, 71, 44
1, 38064, Note_on_c, 4, 74, 44
1, 38064, Note_on_c, 9, 42, 79
1, 38064, Note_on_c, 11, 61, 79
1, 38064, Note_on_c, 11, 64, 78
1, 38067, Note_off_c, 9, 42, 0
1, 38078, Note_off_c, 11, 64, 0
1, 38080, Note_on_c, 8, 74, 69
1, 38080, Note_on_c, 12, 74, 94
1, 38083, Note_off_c, 11, 61, 0
1, 38088, Note_on_c, 11, 64, 80
1, 38088, Note_on_c, 11, 67, 84
1, 38102, Note_off_c, 8, 74, 0
1, 38102, Note_off_c, 12, 74, 0
1, 38104, Note_off_c, 11, 64, 0
1, 38109, Note_off_c, 11, 67, 0
1, 38110, Note_off_c, 1, 35, 0
1, 38110, Note_off_c, 4, 66, 0
1, 38110, Note_off_c, 4, 71, 0
1, 38110, Note_off_c, 4, 74, 0
1, 38112, Note_on_c, 1, 35, 74
1, 38112, Note_on_c, 8, 73, 99
1, 38112, Note_on_c, 9, 35, 74
1, 38112, Note_on_c, 9, 37, 83
1, 38112, Note_on_c, 9, 42, 39
1, 38112, Note_on_c, 12, 73, 101
1, 38115, Note_off_c, 9, 35, 0
1, 38115, Note_off_c, 9, 37, 0
1, 38115, Note_off_c, 9, 42, 0
1, 38136, Note_on_c, 9, 42, 29
1, 38136, Note_on_c, 11, 64, 76
1, 38136, Note_on_c, 11, 67, 82
1, 38139, Note_off_c, 9, 42, 0
1, 38142, Note_off_c, 8, 73, 0
1, 38142, Note_off_c, 12, 73, 0
1, 38144, Note_on_c, 8, 71, 79
1, 38144, Note_on_c, 12, 71, 96
1, 38157, Note_off_c, 11, 64, 0
1, 38158, Note_off_c, 2, 64, 0
1, 38158, Note_off_c, 2, 69, 0
1, 38158, Note_off_c, 2, 73, 0
1, 38160, Note_off_c, 11, 67, 0
1, 38160, Note_on_c, 2, 62, 78
1, 38160, Note_on_c, 2, 71, 78
1, 38160, Note_on_c, 4, 66, 44
1, 38160, Note_on_c, 4, 71, 44
1, 38160, Note_on_c, 4, 74, 44
1, 38160, Note_on_c, 9, 42, 79
1, 38160, Note_on_c, 9, 59, 39
1, 38163, Note_off_c, 9, 42, 0
1, 38163, Note_off_c, 9, 59, 0
1, 38174, Note_off_c, 8, 71, 0
1, 38174, Note_off_c, 12, 71, 0
1, 38176, Note_on_c, 8, 74, 89
1, 38176, Note_on_c, 12, 74, 99
1, 38182, Note_off_c, 1, 35, 0
1, 38182, Note_off_c, 2, 62, 0
1, 38182, Note_off_c, 2, 71, 0
1, 38184, Note_on_c, 1, 30, 62
1, 38184, Note_on_c, 9, 37, 83
1, 38184, Note_on_c, 11, 62, 82
1, 38184, Note_on_c, 11, 66, 85
1, 38187, Note_off_c, 9, 37, 0
1, 38205, Note_off_c, 3, 59, 0
1, 38206, Note_off_c, 4, 66, 0
1, 38206, Note_off_c, 4, 71, 0
1, 38206, Note_off_c, 4, 74, 0
1, 38206, Note_off_c, 8, 74, 0
1, 38206, Note_off_c, 12, 74, 0
1, 38206, Note_off_c, 1, 30, 0
1, 38208, Note_on_c, 1, 35, 74
1, 38208, Note_on_c, 2, 64, 125
1, 38208, Note_on_c, 2, 69, 125
1, 38208, Note_on_c, 2, 73, 125
1, 38208, Note_on_c, 4, 59, 44
1, 38208, Note_on_c, 8, 73, 99
1, 38208, Note_on_c, 9, 42, 39
1, 38208, Note_on_c, 12, 73, 101
1, 38211, Note_off_c, 9, 42, 0
1, 38215, Note_off_c, 11, 62, 0
1, 38219, Note_off_c, 2, 64, 0
1, 38219, Note_off_c, 2, 69, 0
1, 38219, Note_off_c, 2, 73, 0
1, 38230, Note_off_c, 11, 66, 0
1, 38232, Note_on_c, 9, 42, 29
1, 38232, Note_on_c, 11, 61, 84
1, 38232, Note_on_c, 11, 64, 80
1, 38235, Note_off_c, 9, 42, 0
1, 38238, Note_off_c, 8, 73, 0
1, 38238, Note_off_c, 12, 73, 0
1, 38240, Note_on_c, 8, 71, 79
1, 38240, Note_on_c, 12, 71, 96
1, 38246, Note_off_c, 11, 64, 0
1, 38247, Note_off_c, 11, 61, 0
1, 38254, Note_off_c, 1, 35, 0
1, 38254, Note_off_c, 4, 59, 0
1, 38256, Note_on_c, 1, 30, 74
1, 38256, Note_on_c, 2, 62, 78
1, 38256, Note_on_c, 2, 71, 78
1, 38256, Note_on_c, 4, 66, 44
1, 38256, Note_on_c, 4, 71, 44
1, 38256, Note_on_c, 4, 74, 44
1, 38256, Note_on_c, 9, 37, 83
1, 38256, Note_on_c, 9, 42, 79
1, 38256, Note_on_c, 11, 59, 80
1, 38256, Note_on_c, 11, 62, 70
1, 38259, Note_off_c, 9, 37, 0
1, 38259, Note_off_c, 9, 42, 0
1, 38270, Note_off_c, 8, 71, 0
1, 38270, Note_off_c, 12, 71, 0
1, 38272, Note_on_c, 8, 69, 89
1, 38272, Note_on_c, 12, 69, 99
1, 38275, Note_off_c, 11, 62, 0
1, 38278, Note_off_c, 2, 62, 0
1, 38278, Note_off_c, 2, 71, 0
1, 38280, Note_on_c, 2, 64, 125
1, 38280, Note_on_c, 2, 69, 125
1, 38280, Note_on_c, 2, 73, 125
1, 38281, Note_off_c, 11, 59, 0
1, 38302, Note_off_c, 1, 30, 0
1, 38302, Note_off_c, 4, 66, 0
1, 38302, Note_off_c, 4, 71, 0
1, 38302, Note_off_c, 4, 74, 0
1, 38302, Note_off_c, 8, 69, 0
1, 38302, Note_off_c, 12, 69, 0
1, 38304, Note_on_c, 1, 33, 74
1, 38304, Note_on_c, 3, 59, 67
1, 38304, Note_on_c, 4, 57, 44
1, 38304, Note_on_c, 8, 66, 99
1, 38304, Note_on_c, 9, 35, 74
1, 38304, Note_on_c, 9, 42, 39
1, 38304, Note_on_c, 9, 54, 39
1, 38304, Note_on_c, 11, 59, 75
1, 38304, Note_on_c, 11, 62, 83
1, 38304, Note_on_c, 12, 66, 101
1, 38307, Note_off_c, 9, 35, 0
1, 38307, Note_off_c, 9, 42, 0
1, 38307, Note_off_c, 9, 54, 0
1, 38322, Note_off_c, 3, 59, 0
1, 38328, Note_on_c, 3, 61, 67
1, 38330, Note_off_c, 11, 62, 0
1, 38334, Note_off_c, 8, 66, 0
1, 38334, Note_off_c, 12, 66, 0
1, 38336, Note_on_c, 8, 64, 89
1, 38336, Note_on_c, 12, 64, 99
1, 38338, Note_off_c, 11, 59, 0
1, 38343, Note_off_c, 3, 61, 0
1, 38350, Note_off_c, 2, 64, 0
1, 38350, Note_off_c, 2, 69, 0
1, 38350, Note_off_c, 2, 73, 0
1, 38350, Note_off_c, 1, 33, 0
1, 38350, Note_off_c, 4, 57, 0
1, 38352, Note_on_c, 1, 35, 74
1, 38352, Note_on_c, 2, 62, 78
1, 38352, Note_on_c, 2, 71, 78
1, 38352, Note_on_c, 4, 64, 44
1, 38352, Note_on_c, 4, 69, 44
1, 38352, Note_on_c, 4, 73, 44
1, 38352, Note_on_c, 9, 37, 83
1, 38352, Note_on_c, 9, 56, 59
1, 38352, Note_on_c, 11, 61, 79
1, 38352, Note_on_c, 11, 64, 78
1, 38355, Note_off_c, 9, 37, 0
1, 38355, Note_off_c, 9, 56, 0
1, 38374, Note_off_c, 2, 62, 0
1, 38374, Note_off_c, 2, 71, 0
1, 38375, Note_off_c, 11, 64, 0
1, 38376, Note_on_c, 3, 62, 67
1, 38379, Note_off_c, 11, 61, 0
1, 38398, Note_off_c, 1, 35, 0
1, 38398, Note_off_c, 4, 64, 0
1, 38398, Note_off_c, 4, 69, 0
1, 38398, Note_off_c, 4, 73, 0
1, 38400, Note_on_c, 1, 28, 74
1, 38400, Note_on_c, 4, 52, 44
1, 38400, Note_on_c, 9, 42, 39
1, 38400, Note_on_c, 11, 62, 81
1, 38400, Note_on_c, 11, 66, 85
1, 38403, Note_off_c, 9, 42, 0
1, 38424, Note_on_c, 9, 42, 29
1, 38427, Note_off_c, 9, 42, 0
1, 38446, Note_off_c, 4, 52, 0
1, 38448, Note_on_c, 4, 62, 44
1, 38448, Note_on_c, 4, 67, 44
1, 38448, Note_on_c, 4, 71, 44
1, 38448, Note_on_c, 9, 42, 79
1, 38451, Note_off_c, 9, 42, 0
1, 38454, Note_off_c, 11, 62, 0
1, 38454, Note_off_c, 11, 66, 0
1, 38462, Note_off_c, 8, 64, 0
1, 38462, Note_off_c, 12, 64, 0
1, 38470, Note_off_c, 1, 28, 0
1, 38472, Note_on_c, 11, 62, 81
1, 38472, Note_on_c, 11, 66, 82
1, 38489, Note_off_c, 3, 62, 0
1, 38494, Note_off_c, 4, 62, 0
1, 38494, Note_off_c, 4, 67, 0
1, 38494, Note_off_c, 4, 71, 0
1, 38496, Note_on_c, 1, 28, 74
1, 38496, Note_on_c, 2, 64, 125
1, 38496, Note_on_c, 2, 69, 125
1, 38496, Note_on_c, 2, 73, 125
1, 38496, Note_on_c, 9, 35, 74
1, 38496, Note_on_c, 9, 42, 39
1, 38499, Note_off_c, 9, 35, 0
1, 38499, Note_off_c, 9, 42, 0
1, 38514, Note_off_c, 11, 62, 0
1, 38520, Note_on_c, 9, 42, 29
1, 38522, Note_off_c, 11, 66, 0
1, 38523, Note_off_c, 9, 42, 0
1, 38542, Note_off_c, 2, 64, 0
1, 38542, Note_off_c, 2, 69, 0
1, 38542, Note_off_c, 2, 73, 0
1, 38544, Note_on_c, 2, 62, 78
1, 38544, Note_on_c, 2, 71, 78
1, 38544, Note_on_c, 3, 62, 67
1, 38544, Note_on_c, 4, 62, 44
1, 38544, Note_on_c, 4, 67, 44
1, 38544, Note_on_c, 4, 71, 44
1, 38544, Note_on_c, 9, 37, 83
1, 38544, Note_on_c, 9, 42, 79
1, 38544, Note_on_c, 11, 62, 82
1, 38544, Note_on_c, 11, 66, 85
1, 38547, Note_off_c, 9, 37, 0
1, 38547, Note_off_c, 9, 42, 0
1, 38566, Note_off_c, 1, 28, 0
1, 38566, Note_off_c, 3, 62, 0
1, 38574, Note_off_c, 11, 62, 0
1, 38580, Note_off_c, 11, 66, 0
1, 38590, Note_off_c, 2, 62, 0
1, 38590, Note_off_c, 2, 71, 0
1, 38590, Note_off_c, 4, 62, 0
1, 38590, Note_off_c, 4, 67, 0
1, 38590, Note_off_c, 4, 71, 0
1, 38592, Note_on_c, 1, 33, 74
1, 38592, Note_on_c, 2, 64, 125
1, 38592, Note_on_c, 2, 69, 125
1, 38592, Note_on_c, 2, 73, 125
1, 38592, Note_on_c, 3, 61, 67
1, 38592, Note_on_c, 4, 57, 44
1, 38592, Note_on_c, 9, 42, 39
1, 38592, Note_on_c, 11, 61, 77
1, 38592, Note_on_c, 11, 64, 82
1, 38595, Note_off_c, 9, 42, 0
1, 38614, Note_off_c, 2, 64, 0
1, 38614, Note_off_c, 2, 69, 0
1, 38614, Note_off_c, 2, 73, 0
1, 38614, Note_off_c, 3, 61, 0
1, 38616, Note_on_c, 3, 59, 67
1, 38616, Note_on_c, 9, 42, 29
1, 38619, Note_off_c, 9, 42, 0
1, 38636, Note_off_c, 3, 59, 0
1, 38638, Note_off_c, 4, 57, 0
1, 38638, Note_off_c, 11, 64, 0
1, 38640, Note_on_c, 2, 62, 78
1, 38640, Note_on_c, 2, 71, 78
1, 38640, Note_on_c, 4, 64, 44
1, 38640, Note_on_c, 4, 69, 44
1, 38640, Note_on_c, 4, 73, 44
1, 38640, Note_on_c, 9, 42, 79
1, 38643, Note_off_c, 9, 42, 0
1, 38646, Note_off_c, 11, 61, 0
1, 38662, Note_off_c, 1, 33, 0
1, 38662, Note_off_c, 2, 62, 0
1, 38662, Note_off_c, 2, 71, 0
1, 38664, Note_on_c, 2, 64, 125
1, 38664, Note_on_c, 2, 69, 125
1, 38664, Note_on_c, 2, 73, 125
1, 38664, Note_on_c, 3, 57, 67
1, 38664, Note_on_c, 11, 57, 79
1, 38664, Note_on_c, 11, 61, 78
1, 38686, Note_off_c, 4, 64, 0
1, 38686, Note_off_c, 4, 69, 0
1, 38686, Note_off_c, 4, 73, 0
1, 38686, Note_off_c, 3, 57, 0
1, 38688, Note_on_c, 1, 33, 74
1, 38688, Note_on_c, 4, 57, 44
1, 38688, Note_on_c, 9, 35, 74
1, 38688, Note_on_c, 9, 42, 39
1, 38688, Note_on_c, 9, 59, 39
1, 38691, Note_off_c, 9, 35, 0
1, 38691, Note_off_c, 9, 42, 0
1, 38691, Note_off_c, 9, 59, 0
1, 38705, Note_off_c, 11, 57, 0
1, 38706, Note_off_c, 11, 61, 0
1, 38712, Note_on_c, 3, 59, 67
1, 38712, Note_on_c, 9, 42, 29
1, 38715, Note_off_c, 9, 42, 0
1, 38734, Note_off_c, 2, 64, 0
1, 38734, Note_off_c, 2, 69, 0
1, 38734, Note_off_c, 2, 73, 0
1, 38734, Note_off_c, 4, 57, 0
1, 38736, Note_on_c, 2, 62, 78
1, 38736, Note_on_c, 2, 71, 78
1, 38736, Note_on_c, 4, 64, 44
1, 38736, Note_on_c, 4, 69, 44
1, 38736, Note_on_c, 4, 73, 44
1, 38736, Note_on_c, 9, 37, 83
1, 38736, Note_on_c, 9, 42, 79
1, 38736, Note_on_c, 11, 59, 82
1, 38736, Note_on_c, 11, 62, 84
1, 38739, Note_off_c, 9, 37, 0
1, 38739, Note_off_c, 9, 42, 0
1, 38758, Note_off_c, 1, 33, 0
1, 38758, Note_off_c, 2, 62, 0
1, 38758, Note_off_c, 2, 71, 0
1, 38768, Note_off_c, 3, 59, 0
1, 38782, Note_off_c, 4, 64, 0
1, 38782, Note_off_c, 4, 69, 0
1, 38782, Note_off_c, 4, 73, 0
1, 38784, Note_on_c, 1, 35, 74
1, 38784, Note_on_c, 2, 64, 98
1, 38784, Note_on_c, 2, 69, 98
1, 38784, Note_on_c, 2, 73, 98
1, 38784, Note_on_c, 3, 59, 67
1, 38784, Note_on_c, 4, 59, 44
1, 38784, Note_on_c, 9, 42, 39
1, 38787, Note_off_c, 9, 42, 0
1, 38795, Note_off_c, 2, 64, 0
1, 38795, Note_off_c, 2, 69, 0
1, 38795, Note_off_c, 2, 73, 0
1, 38808, Note_on_c, 2, 62, 78
1, 38808, Note_on_c, 2, 71, 78
1, 38808, Note_on_c, 9, 42, 29
1, 38811, Note_off_c, 9, 42, 0
1, 38830, Note_off_c, 4, 59, 0
1, 38830, Note_off_c, 2, 62, 0
1, 38830, Note_off_c, 2, 71, 0
1, 38832, Note_on_c, 2, 64, 125
1, 38832, Note_on_c, 2, 69, 125
1, 38832, Note_on_c, 2, 73, 125
1, 38832, Note_on_c, 4, 66, 44
1, 38832, Note_on_c, 4, 71, 44
1, 38832, Note_on_c, 4, 74, 44
1, 38832, Note_on_c, 8, 73, 99
1, 38832, Note_on_c, 9, 42, 79
1, 38832, Note_on_c, 12, 73, 101
1, 38835, Note_off_c, 9, 42, 0
1, 38878, Note_off_c, 1, 35, 0
1, 38878, Note_off_c, 4, 66, 0
1, 38878, Note_off_c, 4, 71, 0
1, 38878, Note_off_c, 4, 74, 0
1, 38878, Note_off_c, 8, 73, 0
1, 38878, Note_off_c, 12, 73, 0
1, 38880, Note_on_c, 1, 35, 74
1, 38880, Note_on_c, 9, 35, 74
1, 38880, Note_on_c, 9, 42, 39
1, 38883, Note_off_c, 9, 35, 0
1, 38883, Note_off_c, 9, 42, 0
1, 38904, Note_on_c, 9, 42, 29
1, 38907, Note_off_c, 9, 42, 0
1, 38926, Note_off_c, 2, 64, 0
1, 38926, Note_off_c, 2, 69, 0
1, 38926, Note_off_c, 2, 73, 0
1, 38928, Note_on_c, 2, 62, 78
1, 38928, Note_on_c, 2, 71, 78
1, 38928, Note_on_c, 4, 66, 44
1, 38928, Note_on_c, 4, 71, 44
1, 38928, Note_on_c, 4, 74, 44
1, 38928, Note_on_c, 9, 42, 79
1, 38928, Note_on_c, 9, 59, 39
1, 38931, Note_off_c, 9, 42, 0
1, 38931, Note_off_c, 9, 59, 0
1, 38950, Note_off_c, 1, 35, 0
1, 38950, Note_off_c, 2, 62, 0
1, 38950, Note_off_c, 2, 71, 0
1, 38952, Note_on_c, 8, 74, 79
1, 38952, Note_on_c, 9, 37, 83
1, 38952, Note_on_c, 12, 74, 96
1, 38955, Note_off_c, 9, 37, 0
1, 38974, Note_off_c, 4, 66, 0
1, 38974, Note_off_c, 4, 71, 0
1, 38974, Note_off_c, 4, 74, 0
1, 38974, Note_off_c, 8, 74, 0
1, 38974, Note_off_c, 12, 74, 0
1, 38976, Note_on_c, 1, 35, 74
1, 38976, Note_on_c, 2, 64, 125
1, 38976, Note_on_c, 2, 69, 125
1, 38976, Note_on_c, 2, 73, 125
1, 38976, Note_on_c, 4, 59, 44
1, 38976, Note_on_c, 8, 76, 99
1, 38976, Note_on_c, 9, 42, 39
1, 38976, Note_on_c, 9, 56, 49
1, 38976, Note_on_c, 12, 76, 101
1, 38977, Note_off_c, 11, 62, 0
1, 38979, Note_off_c, 9, 42, 0
1, 38979, Note_off_c, 9, 56, 0
1, 38982, Note_off_c, 11, 59, 0
1, 38987, Note_off_c, 3, 59, 0
1, 38987, Note_off_c, 2, 64, 0
1, 38987, Note_off_c, 2, 69, 0
1, 38987, Note_off_c, 2, 73, 0
1, 39000, Note_on_c, 9, 42, 29
1, 39003, Note_off_c, 9, 42, 0
1, 39008, Note_on_c, 9, 56, 49
1, 39011, Note_off_c, 9, 56, 0
1, 39022, Note_off_c, 1, 35, 0
1, 39022, Note_off_c, 4, 59, 0
1, 39024, Note_on_c, 1, 37, 74
1, 39024, Note_on_c, 2, 62, 78
1, 39024, Note_on_c, 2, 71, 78
1, 39024, Note_on_c, 4, 66, 44
1, 39024, Note_on_c, 4, 71, 44
1, 39024, Note_on_c, 4, 74, 44
1, 39024, Note_on_c, 9, 42, 79
1, 39027, Note_off_c, 9, 42, 0
1, 39040, Note_on_c, 9, 56, 49
1, 39043, Note_off_c, 9, 56, 0
1, 39046, Note_off_c, 8, 76, 0
1, 39046, Note_off_c, 12, 76, 0
1, 39046, Note_off_c, 2, 62, 0
1, 39046, Note_off_c, 2, 71, 0
1, 39048, Note_on_c, 2, 64, 125
1, 39048, Note_on_c, 2, 69, 125
1, 39048, Note_on_c, 2, 73, 125
1, 39070, Note_off_c, 1, 37, 0
1, 39070, Note_off_c, 4, 66, 0
1, 39070, Note_off_c, 4, 71, 0
1, 39070, Note_off_c, 4, 74, 0
1, 39072, Note_on_c, 1, 38, 74
1, 39072, Note_on_c, 3, 59, 67
1, 39072, Note_on_c, 4, 57, 44
1, 39072, Pitch_bend_c, 8, 385
1, 39072, Note_on_c, 8, 78, 109
1, 39072, Note_on_c, 9, 35, 74
1, 39072, Note_on_c, 9, 42, 39
1, 39072, Note_on_c, 9, 56, 49
1, 39072, Note_on_c, 11, 66, 89
1, 39072, Note_on_c, 11, 69, 89
1, 39072, Pitch_bend_c, 12, 385
1, 39072, Note_on_c, 12, 78, 104
1, 39075, Note_off_c, 9, 35, 0
1, 39075, Note_off_c, 9, 42, 0
1, 39075, Note_off_c, 9, 56, 0
1, 39084, Pitch_bend_c, 8, 3969
1, 39084, Pitch_bend_c, 12, 3969
1, 39087, Note_off_c, 3, 59, 0
1, 39096, Note_on_c, 3, 61, 67
1, 39096, Pitch_bend_c, 8, 8193
1, 39096, Note_on_c, 9, 42, 29
1, 39096, Pitch_bend_c, 12, 8193
1, 39099, Note_off_c, 9, 42, 0
1, 39116, Note_off_c, 3, 61, 0
1, 39118, Note_off_c, 2, 64, 0
1, 39118, Note_off_c, 2, 69, 0
1, 39118, Note_off_c, 2, 73, 0
1, 39118, Note_off_c, 1, 38, 0
1, 39118, Note_off_c, 4, 57, 0
1, 39120, Note_on_c, 2, 62, 78
1, 39120, Note_on_c, 2, 71, 78
1, 39120, Note_on_c, 4, 64, 44
1, 39120, Note_on_c, 4, 69, 44
1, 39120, Note_on_c, 4, 73, 44
1, 39120, Note_on_c, 9, 37, 83
1, 39120, Note_on_c, 9, 42, 79
1, 39123, Note_off_c, 9, 37, 0
1, 39123, Note_off_c, 9, 42, 0
1, 39142, Note_off_c, 2, 62, 0
1, 39142, Note_off_c, 2, 71, 0
1, 39144, Note_on_c, 1, 30, 74
1, 39144, Note_on_c, 3, 62, 67
1, 39153, Note_off_c, 11, 66, 0
1, 39153, Note_off_c, 11, 69, 0
1, 39166, Note_off_c, 8, 78, 0
1, 39166, Note_off_c, 12, 78, 0
1, 39166, Note_off_c, 4, 64, 0
1, 39166, Note_off_c, 4, 69, 0
1, 39166, Note_off_c, 4, 73, 0
1, 39166, Note_off_c, 1, 30, 0
1, 39168, Note_on_c, 1, 28, 74
1, 39168, Note_on_c, 4, 52, 44
1, 39168, Note_on_c, 8, 74, 99
1, 39168, Note_on_c, 9, 42, 39
1, 39168, Note_on_c, 11, 62, 84
1, 39168, Note_on_c, 11, 66, 84
1, 39168, Note_on_c, 12, 74, 101
1, 39171, Note_off_c, 9, 42, 0
1, 39192, Note_on_c, 9, 42, 29
1, 39195, Note_off_c, 9, 42, 0
1, 39207, Note_off_c, 11, 62, 0
1, 39207, Note_off_c, 11, 66, 0
1, 39214, Note_off_c, 4, 52, 0
1, 39216, Note_on_c, 4, 62, 44
1, 39216, Note_on_c, 4, 67, 44
1, 39216, Note_on_c, 4, 71, 44
1, 39216, Note_on_c, 9, 42, 79
1, 39219, Note_off_c, 9, 42, 0
1, 39238, Note_off_c, 1, 28, 0
1, 39251, Note_off_c, 3, 62, 0
1, 39262, Note_off_c, 8, 74, 0
1, 39262, Note_off_c, 12, 74, 0
1, 39262, Note_off_c, 4, 62, 0
1, 39262, Note_off_c, 4, 67, 0
1, 39262, Note_off_c, 4, 71, 0
1, 39264, Note_on_c, 1, 28, 74
1, 39264, Note_on_c, 2, 64, 125
1, 39264, Note_on_c, 2, 69, 125
1, 39264, Note_on_c, 2, 73, 125
1, 39264, Note_on_c, 9, 35, 74
1, 39264, Note_on_c, 9, 42, 39
1, 39264, Note_on_c, 11, 62, 84
1, 39264, Note_on_c, 11, 66, 88
1, 39267, Note_off_c, 9, 35, 0
1, 39267, Note_off_c, 9, 42, 0
1, 39282, Note_off_c, 11, 62, 0
1, 39287, Note_off_c, 11, 66, 0
1, 39288, Note_on_c, 9, 42, 29
1, 39291, Note_off_c, 9, 42, 0
1, 39310, Note_off_c, 2, 64, 0
1, 39310, Note_off_c, 2, 69, 0
1, 39310, Note_off_c, 2, 73, 0
1, 39312, Note_on_c, 2, 62, 78
1, 39312, Note_on_c, 2, 71, 78
1, 39312, Note_on_c, 3, 62, 67
1, 39312, Note_on_c, 4, 62, 44
1, 39312, Note_on_c, 4, 67, 44
1, 39312, Note_on_c, 4, 71, 44
1, 39312, Note_on_c, 9, 37, 83
1, 39312, Note_on_c, 9, 42, 79
1, 39312, Note_on_c, 9, 59, 39
1, 39312, Note_on_c, 11, 62, 79
1, 39312, Note_on_c, 11, 66, 85
1, 39315, Note_off_c, 9, 37, 0
1, 39315, Note_off_c, 9, 42, 0
1, 39315, Note_off_c, 9, 59, 0
1, 39323, Note_off_c, 11, 62, 0
1, 39323, Note_off_c, 11, 66, 0
1, 39332, Note_off_c, 3, 62, 0
1, 39334, Note_off_c, 1, 28, 0
1, 39336, Note_on_c, 11, 62, 81
1, 39336, Note_on_c, 11, 66, 87
1, 39358, Note_off_c, 2, 62, 0
1, 39358, Note_off_c, 2, 71, 0
1, 39358, Note_off_c, 4, 62, 0
1, 39358, Note_off_c, 4, 67, 0
1, 39358, Note_off_c, 4, 71, 0
1, 39360, Note_on_c, 1, 33, 74
1, 39360, Note_on_c, 2, 64, 125
1, 39360, Note_on_c, 2, 69, 125
1, 39360, Note_on_c, 2, 73, 125
1, 39360, Note_on_c, 3, 61, 67
1, 39360, Note_on_c, 4, 57, 44
1, 39360, Note_on_c, 9, 42, 39
1, 39363, Note_off_c, 9, 42, 0
1, 39368, Note_off_c, 11, 62, 0
1, 39382, Note_off_c, 2, 64, 0
1, 39382, Note_off_c, 2, 69, 0
1, 39382, Note_off_c, 2, 73, 0
1, 39382, Note_off_c, 3, 61, 0
1, 39383, Note_off_c, 11, 66, 0
1, 39384, Note_on_c, 3, 59, 67
1, 39384, Note_on_c, 9, 42, 29
1, 39384, Note_on_c, 11, 61, 81
1, 39384, Note_on_c, 11, 64, 75
1, 39387, Note_off_c, 9, 42, 0
1, 39399, Note_off_c, 11, 64, 0
1, 39403, Note_off_c, 11, 61, 0
1, 39406, Note_off_c, 4, 57, 0
1, 39406, Note_off_c, 3, 59, 0
1, 39408, Note_on_c, 2, 62, 78
1, 39408, Note_on_c, 2, 71, 78
1, 39408, Note_on_c, 4, 64, 44
1, 39408, Note_on_c, 4, 69, 44
1, 39408, Note_on_c, 4, 73, 44
1, 39408, Note_on_c, 9, 42, 79
1, 39408, Note_on_c, 11, 59, 80
1, 39408, Note_on_c, 11, 62, 81
1, 39411, Note_off_c, 9, 42, 0
1, 39430, Note_off_c, 1, 33, 0
1, 39430, Note_off_c, 2, 62, 0
1, 39430, Note_off_c, 2, 71, 0
1, 39432, Note_off_c, 11, 59, 0
1, 39432, Note_on_c, 2, 64, 125
1, 39432, Note_on_c, 2, 69, 125
1, 39432, Note_on_c, 2, 73, 125
1, 39432, Note_on_c, 3, 57, 67
1, 39432, Note_on_c, 8, 78, 79
1, 39432, Note_on_c, 12, 78, 96
1, 39435, Note_off_c, 11, 62, 0
1, 39452, Note_off_c, 3, 57, 0
1, 39454, Note_off_c, 4, 64, 0
1, 39454, Note_off_c, 4, 69, 0
1, 39454, Note_off_c, 4, 73, 0
1, 39454, Note_off_c, 8, 78, 0
1, 39454, Note_off_c, 12, 78, 0
1, 39456, Note_on_c, 1, 33, 74
1, 39456, Note_on_c, 4, 57, 44
1, 39456, Note_on_c, 8, 79, 99
1, 39456, Note_on_c, 9, 35, 74
1, 39456, Note_on_c, 9, 42, 39
1, 39456, Note_on_c, 12, 79, 101
1, 39459, Note_off_c, 9, 35, 0
1, 39459, Note_off_c, 9, 42, 0
1, 39480, Note_on_c, 3, 59, 67
1, 39480, Note_on_c, 9, 42, 29
1, 39483, Note_off_c, 9, 42, 0
1, 39502, Note_off_c, 2, 64, 0
1, 39502, Note_off_c, 2, 69, 0
1, 39502, Note_off_c, 2, 73, 0
1, 39502, Note_off_c, 4, 57, 0
1, 39502, Note_off_c, 8, 79, 0
1, 39502, Note_off_c, 12, 79, 0
1, 39504, Note_on_c, 2, 62, 78
1, 39504, Note_on_c, 2, 71, 78
1, 39504, Note_on_c, 4, 64, 44
1, 39504, Note_on_c, 4, 69, 44
1, 39504, Note_on_c, 4, 73, 44
1, 39504, Note_on_c, 9, 37, 83
1, 39504, Note_on_c, 9, 42, 79
1, 39507, Note_off_c, 9, 37, 0
1, 39507, Note_off_c, 9, 42, 0
1, 39526, Note_off_c, 1, 33, 0
1, 39526, Note_off_c, 2, 62, 0
1, 39526, Note_off_c, 2, 71, 0
1, 39528, Note_on_c, 8, 79, 89
1, 39528, Note_on_c, 12, 79, 99
1, 39532, Note_off_c, 3, 59, 0
1, 39550, Note_off_c, 4, 64, 0
1, 39550, Note_off_c, 4, 69, 0
1, 39550, Note_off_c, 4, 73, 0
1, 39550, Note_off_c, 8, 79, 0
1, 39550, Note_off_c, 12, 79, 0
1, 39552, Note_on_c, 1, 35, 74
1, 39552, Note_on_c, 2, 64, 98
1, 39552, Note_on_c, 2, 69, 98
1, 39552, Note_on_c, 2, 73, 98
1, 39552, Note_on_c, 3, 59, 67
1, 39552, Note_on_c, 4, 59, 44
1, 39552, Note_on_c, 8, 78, 99
1, 39552, Note_on_c, 9, 42, 39
1, 39552, Note_on_c, 11, 61, 87
1, 39552, Note_on_c, 11, 64, 83
1, 39552, Note_on_c, 12, 78, 101
1, 39555, Note_off_c, 9, 42, 0
1, 39563, Note_off_c, 2, 64, 0
1, 39563, Note_off_c, 2, 69, 0
1, 39563, Note_off_c, 2, 73, 0
1, 39570, Note_off_c, 11, 61, 0
1, 39571, Note_off_c, 11, 64, 0
1, 39576, Note_on_c, 2, 62, 78
1, 39576, Note_on_c, 2, 71, 78
1, 39576, Note_on_c, 9, 42, 29
1, 39579, Note_off_c, 9, 42, 0
1, 39598, Note_off_c, 4, 59, 0
1, 39598, Note_off_c, 8, 78, 0
1, 39598, Note_off_c, 12, 78, 0
1, 39598, Note_off_c, 2, 62, 0
1, 39598, Note_off_c, 2, 71, 0
1, 39600, Note_on_c, 2, 64, 125
1, 39600, Note_on_c, 2, 69, 125
1, 39600, Note_on_c, 2, 73, 125
1, 39600, Note_on_c, 4, 66, 44
1, 39600, Note_on_c, 4, 71, 44
1, 39600, Note_on_c, 4, 74, 44
1, 39600, Note_on_c, 9, 42, 79
1, 39600, Note_on_c, 11, 61, 79
1, 39600, Note_on_c, 11, 64, 76
1, 39603, Note_off_c, 9, 42, 0
1, 39615, Note_off_c, 11, 64, 0
1, 39623, Note_off_c, 11, 61, 0
1, 39624, Note_on_c, 8, 78, 89
1, 39624, Note_on_c, 11, 64, 83
1, 39624, Note_on_c, 11, 67, 86
1, 39624, Note_on_c, 12, 78, 99
1, 39642, Note_off_c, 11, 64, 0
1, 39645, Note_off_c, 11, 67, 0
1, 39646, Note_off_c, 4, 66, 0
1, 39646, Note_off_c, 4, 71, 0
1, 39646, Note_off_c, 4, 74, 0
1, 39646, Note_off_c, 8, 78, 0
1, 39646, Note_off_c, 12, 78, 0
1, 39648, Note_on_c, 8, 79, 99
1, 39648, Note_on_c, 9, 35, 74
1, 39648, Note_on_c, 9, 37, 83
1, 39648, Note_on_c, 9, 42, 39
1, 39648, Note_on_c, 12, 79, 101
1, 39651, Note_off_c, 9, 35, 0
1, 39651, Note_off_c, 9, 37, 0
1, 39651, Note_off_c, 9, 42, 0
1, 39672, Note_on_c, 9, 42, 29
1, 39672, Note_on_c, 11, 64, 80
1, 39672, Note_on_c, 11, 67, 84
1, 39675, Note_off_c, 9, 42, 0
1, 39694, Note_off_c, 2, 64, 0
1, 39694, Note_off_c, 2, 69, 0
1, 39694, Note_off_c, 2, 73, 0
1, 39694, Note_off_c, 8, 79, 0
1, 39694, Note_off_c, 12, 79, 0
1, 39696, Note_off_c, 11, 67, 0
1, 39696, Note_on_c, 2, 62, 78
1, 39696, Note_on_c, 2, 71, 78
1, 39696, Note_on_c, 4, 66, 44
1, 39696, Note_on_c, 4, 71, 44
1, 39696, Note_on_c, 4, 74, 44
1, 39696, Note_on_c, 9, 42, 79
1, 39696, Note_on_c, 9, 59, 39
1, 39697, Note_off_c, 11, 64, 0
1, 39699, Note_off_c, 9, 42, 0
1, 39699, Note_off_c, 9, 59, 0
1, 39718, Note_off_c, 1, 35, 0
1, 39718, Note_off_c, 2, 62, 0
1, 39718, Note_off_c, 2, 71, 0
1, 39720, Note_on_c, 1, 30, 74
1, 39720, Note_on_c, 8, 78, 59
1, 39720, Note_on_c, 9, 37, 83
1, 39720, Note_on_c, 11, 62, 84
1, 39720, Note_on_c, 11, 66, 84
1, 39720, Note_on_c, 12, 78, 91
1, 39723, Note_off_c, 9, 37, 0
1, 39742, Note_off_c, 4, 66, 0
1, 39742, Note_off_c, 4, 71, 0
1, 39742, Note_off_c, 4, 74, 0
1, 39742, Note_off_c, 1, 30, 0
1, 39742, Note_off_c, 8, 78, 0
1, 39742, Note_off_c, 12, 78, 0
1, 39744, Note_off_c, 3, 59, 0
1, 39744, Note_on_c, 1, 35, 74
1, 39744, Note_on_c, 2, 64, 125
1, 39744, Note_on_c, 2, 69, 125
1, 39744, Note_on_c, 2, 73, 125
1, 39744, Note_on_c, 4, 59, 44
1, 39744, Pitch_bend_c, 8, 4097
1, 39744, Note_on_c, 8, 79, 99
1, 39744, Note_on_c, 9, 42, 39
1, 39744, Pitch_bend_c, 12, 4097
1, 39744, Note_on_c, 12, 79, 101
1, 39747, Note_off_c, 9, 42, 0
1, 39752, Note_off_c, 11, 62, 0
1, 39755, Note_off_c, 2, 64, 0
1, 39755, Note_off_c, 2, 69, 0
1, 39755, Note_off_c, 2, 73, 0
1, 39756, Pitch_bend_c, 8, 8193
1, 39756, Pitch_bend_c, 12, 8193
1, 39763, Note_off_c, 11, 66, 0
1, 39768, Note_on_c, 9, 42, 29
1, 39768, Note_on_c, 11, 61, 68
1, 39768, Note_on_c, 11, 64, 79
1, 39771, Note_off_c, 9, 42, 0
1, 39787, Note_off_c, 11, 64, 0
1, 39790, Note_off_c, 4, 59, 0
1, 39792, Note_off_c, 11, 61, 0
1, 39792, Note_on_c, 2, 62, 78
1, 39792, Note_on_c, 2, 71, 78
1, 39792, Note_on_c, 4, 66, 44
1, 39792, Note_on_c, 4, 71, 44
1, 39792, Note_on_c, 4, 74, 44
1, 39792, Note_on_c, 9, 42, 79
1, 39792, Note_on_c, 11, 59, 85
1, 39792, Note_on_c, 11, 62, 81
1, 39795, Note_off_c, 9, 42, 0
1, 39814, Note_off_c, 2, 62, 0
1, 39814, Note_off_c, 2, 71, 0
1, 39814, Note_off_c, 11, 59, 0
1, 39816, Note_off_c, 11, 62, 0
1, 39816, Note_on_c, 2, 64, 125
1, 39816, Note_on_c, 2, 69, 125
1, 39816, Note_on_c, 2, 73, 125
1, 39816, Note_on_c, 9, 37, 83
1, 39819, Note_off_c, 9, 37, 0
1, 39838, Note_off_c, 1, 35, 0
1, 39838, Note_off_c, 8, 79, 0
1, 39838, Note_off_c, 12, 79, 0
1, 39838, Note_off_c, 4, 66, 0
1, 39838, Note_off_c, 4, 71, 0
1, 39838, Note_off_c, 4, 74, 0
1, 39840, Note_on_c, 1, 33, 74
1, 39840, Note_on_c, 3, 59, 67
1, 39840, Note_on_c, 4, 57, 44
1, 39840, Note_on_c, 8, 78, 109
1, 39840, Note_on_c, 9, 35, 74
1, 39840, Note_on_c, 9, 42, 39
1, 39840, Note_on_c, 9, 54, 39
1, 39840, Note_on_c, 11, 59, 81
1, 39840, Note_on_c, 11, 62, 81
1, 39840, Note_on_c, 12, 78, 104
1, 39843, Note_off_c, 9, 35, 0
1, 39843, Note_off_c, 9, 42, 0
1, 39843, Note_off_c, 9, 54, 0
1, 39862, Note_off_c, 3, 59, 0
1, 39862, Note_off_c, 8, 78, 0
1, 39862, Note_off_c, 12, 78, 0
1, 39864, Note_on_c, 3, 61, 67
1, 39864, Note_on_c, 8, 74, 69
1, 39864, Note_on_c, 9, 42, 29
1, 39864, Note_on_c, 12, 74, 94
1, 39867, Note_off_c, 9, 42, 0
1, 39868, Note_off_c, 11, 62, 0
1, 39878, Note_off_c, 11, 59, 0
1, 39881, Note_off_c, 3, 61, 0
1, 39886, Note_off_c, 2, 64, 0
1, 39886, Note_off_c, 2, 69, 0
1, 39886, Note_off_c, 2, 73, 0
1, 39886, Note_off_c, 1, 33, 0
1, 39886, Note_off_c, 4, 57, 0
1, 39886, Note_off_c, 8, 74, 0
1, 39886, Note_off_c, 12, 74, 0
1, 39888, Note_on_c, 2, 62, 78
1, 39888, Note_on_c, 2, 71, 78
1, 39888, Note_on_c, 4, 64, 44
1, 39888, Note_on_c, 4, 69, 44
1, 39888, Note_on_c, 4, 73, 44
1, 39888, Note_on_c, 9, 37, 83
1, 39888, Note_on_c, 9, 42, 79
1, 39888, Note_on_c, 9, 56, 59
1, 39888, Note_on_c, 11, 61, 79
1, 39888, Note_on_c, 11, 64, 81
1, 39891, Note_off_c, 9, 37, 0
1, 39891, Note_off_c, 9, 42, 0
1, 39891, Note_off_c, 9, 56, 0
1, 39910, Note_off_c, 2, 62, 0
1, 39910, Note_off_c, 2, 71, 0
1, 39912, Note_on_c, 1, 35, 74
1, 39912, Note_on_c, 3, 62, 67
1, 39912, Note_on_c, 8, 76, 109
1, 39912, Note_on_c, 12, 76, 104
1, 39914, Note_off_c, 11, 64, 0
1, 39921, Note_off_c, 11, 61, 0
1, 39934, Note_off_c, 4, 64, 0
1, 39934, Note_off_c, 4, 69, 0
1, 39934, Note_off_c, 4, 73, 0
1, 39934, Note_off_c, 1, 35, 0
1, 39934, Note_off_c, 8, 76, 0
1, 39934, Note_off_c, 12, 76, 0
1, 39936, Note_on_c, 1, 28, 74
1, 39936, Note_on_c, 4, 52, 44
1, 39936, Note_on_c, 9, 42, 39
1, 39936, Note_on_c, 11, 62, 84
1, 39936, Note_on_c, 11, 66, 86
1, 39939, Note_off_c, 9, 42, 0
1, 39960, Note_on_c, 8, 76, 99
1, 39960, Note_on_c, 9, 42, 29
1, 39960, Note_on_c, 12, 76, 101
1, 39963, Note_off_c, 9, 42, 0
1, 39982, Note_off_c, 4, 52, 0
1, 39982, Note_off_c, 8, 76, 0
1, 39982, Note_off_c, 12, 76, 0
1, 39984, Note_on_c, 4, 62, 44
1, 39984, Note_on_c, 4, 67, 44
1, 39984, Note_on_c, 4, 71, 44
1, 39984, Note_on_c, 8, 71, 69
1, 39984, Note_on_c, 9, 42, 79
1, 39984, Note_on_c, 12, 71, 94
1, 39987, Note_off_c, 9, 42, 0
1, 39990, Note_off_c, 11, 62, 0
1, 39992, Note_off_c, 3, 62, 0
1, 39993, Note_off_c, 11, 66, 0
1, 40006, Note_off_c, 8, 71, 0
1, 40006, Note_off_c, 12, 71, 0
1, 40008, Note_on_c, 8, 73, 89
1, 40008, Note_on_c, 11, 62, 80
1, 40008, Note_on_c, 11, 66, 87
1, 40008, Note_on_c, 12, 73, 99
1, 40030, Note_off_c, 4, 62, 0
1, 40030, Note_off_c, 4, 67, 0
1, 40030, Note_off_c, 4, 71, 0
1, 40030, Note_off_c, 8, 73, 0
1, 40030, Note_off_c, 12, 73, 0
1, 40032, Note_on_c, 2, 64, 125
1, 40032, Note_on_c, 2, 69, 125
1, 40032, Note_on_c, 2, 73, 125
1, 40032, Pitch_bend_c, 8, 3969
1, 40032, Note_on_c, 8, 74, 109
1, 40032, Note_on_c, 9, 35, 74
1, 40032, Note_on_c, 9, 42, 39
1, 40032, Pitch_bend_c, 12, 3969
1, 40032, Note_on_c, 12, 74, 104
1, 40035, Note_off_c, 9, 35, 0
1, 40035, Note_off_c, 9, 42, 0
1, 40044, Pitch_bend_c, 8, 8193
1, 40044, Pitch_bend_c, 12, 8193
1, 40053, Note_off_c, 11, 62, 0
1, 40054, Note_off_c, 11, 66, 0
1, 40056, Note_on_c, 9, 42, 29
1, 40059, Note_off_c, 9, 42, 0
1, 40078, Note_off_c, 2, 64, 0
1, 40078, Note_off_c, 2, 69, 0
1, 40078, Note_off_c, 2, 73, 0
1, 40080, Note_on_c, 2, 62, 78
1, 40080, Note_on_c, 2, 71, 78
1, 40080, Note_on_c, 3, 62, 67
1, 40080, Note_on_c, 4, 62, 44
1, 40080, Note_on_c, 4, 67, 44
1, 40080, Note_on_c, 4, 71, 44
1, 40080, Note_on_c, 9, 37, 83
1, 40080, Note_on_c, 9, 42, 79
1, 40080, Note_on_c, 11, 62, 82
1, 40080, Note_on_c, 11, 66, 85
1, 40083, Note_off_c, 9, 37, 0
1, 40083, Note_off_c, 9, 42, 0
1, 40100, Note_off_c, 3, 62, 0
1, 40102, Note_off_c, 8, 74, 0
1, 40102, Note_off_c, 12, 74, 0
1, 40104, Note_on_c, 8, 73, 69
1, 40104, Note_on_c, 12, 73, 94
1, 40117, Note_off_c, 11, 62, 0
1, 40123, Note_off_c, 11, 66, 0
1, 40126, Note_off_c, 1, 28, 0
1, 40126, Note_off_c, 2, 62, 0
1, 40126, Note_off_c, 2, 71, 0
1, 40126, Note_off_c, 4, 62, 0
1, 40126, Note_off_c, 4, 67, 0
1, 40126, Note_off_c, 4, 71, 0
1, 40126, Note_off_c, 8, 73, 0
1, 40126, Note_off_c, 12, 73, 0
1, 40128, Note_on_c, 1, 33, 74
1, 40128, Note_on_c, 2, 64, 125
1, 40128, Note_on_c, 2, 69, 125
1, 40128, Note_on_c, 2, 73, 125
1, 40128, Note_on_c, 3, 61, 67
1, 40128, Note_on_c, 4, 57, 44
1, 40128, Note_on_c, 8, 64, 69
1, 40128, Note_on_c, 9, 42, 39
1, 40128, Note_on_c, 11, 61, 81
1, 40128, Note_on_c, 11, 64, 83
1, 40128, Note_on_c, 12, 64, 94
1, 40131, Note_off_c, 9, 42, 0
1, 40150, Note_off_c, 2, 64, 0
1, 40150, Note_off_c, 2, 69, 0
1, 40150, Note_off_c, 2, 73, 0
1, 40150, Note_off_c, 3, 61, 0
1, 40152, Note_on_c, 3, 59, 67
1, 40152, Note_on_c, 9, 42, 29
1, 40155, Note_off_c, 9, 42, 0
1, 40173, Note_off_c, 11, 64, 0
1, 40174, Note_off_c, 4, 57, 0
1, 40174, Note_off_c, 3, 59, 0
1, 40176, Note_on_c, 2, 62, 78
1, 40176, Note_on_c, 2, 71, 78
1, 40176, Note_on_c, 4, 64, 44
1, 40176, Note_on_c, 4, 69, 44
1, 40176, Note_on_c, 4, 73, 44
1, 40176, Note_on_c, 9, 42, 79
1, 40179, Note_off_c, 9, 42, 0
1, 40182, Note_off_c, 11, 61, 0
1, 40198, Note_off_c, 2, 62, 0
1, 40198, Note_off_c, 2, 71, 0
1, 40200, Note_on_c, 2, 64, 125
1, 40200, Note_on_c, 2, 69, 125
1, 40200, Note_on_c, 2, 73, 125
1, 40200, Note_on_c, 3, 57, 67
1, 40200, Note_on_c, 11, 57, 81
1, 40200, Note_on_c, 11, 61, 81
1, 40221, Note_off_c, 3, 57, 0
1, 40222, Note_off_c, 8, 64, 0
1, 40222, Note_off_c, 12, 64, 0
1, 40222, Note_off_c, 4, 64, 0
1, 40222, Note_off_c, 4, 69, 0
1, 40222, Note_off_c, 4, 73, 0
1, 40224, Note_on_c, 4, 57, 44
1, 40224, Pitch_bend_c, 8, 3969
1, 40224, Note_on_c, 8, 67, 79
1, 40224, Note_on_c, 9, 35, 74
1, 40224, Note_on_c, 9, 42, 39
1, 40224, Note_on_c, 9, 59, 39
1, 40224, Pitch_bend_c, 12, 3969
1, 40224, Note_on_c, 12, 67, 96
1, 40227, Note_off_c, 9, 35, 0
1, 40227, Note_off_c, 9, 42, 0
1, 40227, Note_off_c, 9, 59, 0
1, 40236, Pitch_bend_c, 8, 8193
1, 40236, Pitch_bend_c, 12, 8193
1, 40239, Note_off_c, 11, 57, 0
1, 40244, Note_off_c, 11, 61, 0
1, 40248, Note_on_c, 3, 59, 67
1, 40248, Note_on_c, 9, 42, 29
1, 40251, Note_off_c, 9, 42, 0
1, 40270, Note_off_c, 2, 64, 0
1, 40270, Note_off_c, 2, 69, 0
1, 40270, Note_off_c, 2, 73, 0
1, 40270, Note_off_c, 4, 57, 0
1, 40272, Note_on_c, 2, 62, 78
1, 40272, Note_on_c, 2, 71, 78
1, 40272, Note_on_c, 4, 64, 44
1, 40272, Note_on_c, 4, 69, 44
1, 40272, Note_on_c, 4, 73, 44
1, 40272, Note_on_c, 9, 37, 83
1, 40272, Note_on_c, 9, 42, 79
1, 40272, Note_on_c, 11, 59, 83
1, 40272, Note_on_c, 11, 62, 83
1, 40275, Note_off_c, 9, 37, 0
1, 40275, Note_off_c, 9, 42, 0
1, 40294, Note_off_c, 8, 67, 0
1, 40294, Note_off_c, 12, 67, 0
1, 40294, Note_off_c, 2, 62, 0
1, 40294, Note_off_c, 2, 71, 0
1, 40296, Note_on_c, 8, 66, 69
1, 40296, Note_on_c, 12, 66, 94
1, 40299, Note_off_c, 3, 59, 0
1, 40318, Note_off_c, 1, 33, 0
1, 40318, Note_off_c, 4, 64, 0
1, 40318, Note_off_c, 4, 69, 0
1, 40318, Note_off_c, 4, 73, 0
1, 40318, Note_off_c, 8, 66, 0
1, 40318, Note_off_c, 12, 66, 0
1, 40320, Note_on_c, 1, 35, 74
1, 40320, Note_on_c, 2, 64, 98
1, 40320, Note_on_c, 2, 69, 98
1, 40320, Note_on_c, 2, 73, 98
1, 40320, Note_on_c, 3, 59, 67
1, 40320, Note_on_c, 4, 59, 44
1, 40320, Note_on_c, 8, 62, 59
1, 40320, Note_on_c, 9, 42, 39
1, 40320, Note_on_c, 12, 62, 91
1, 40323, Note_off_c, 9, 42, 0
1, 40331, Note_off_c, 2, 64, 0
1, 40331, Note_off_c, 2, 69, 0
1, 40331, Note_off_c, 2, 73, 0
1, 40344, Note_on_c, 2, 62, 78
1, 40344, Note_on_c, 2, 71, 78
1, 40344, Note_on_c, 9, 42, 29
1, 40347, Note_off_c, 9, 42, 0
1, 40366, Note_off_c, 4, 59, 0
1, 40366, Note_off_c, 2, 62, 0
1, 40366, Note_off_c, 2, 71, 0
1, 40368, Note_on_c, 2, 64, 125
1, 40368, Note_on_c, 2, 69, 125
1, 40368, Note_on_c, 2, 73, 125
1, 40368, Note_on_c, 4, 66, 44
1, 40368, Note_on_c, 4, 71, 44
1, 40368, Note_on_c, 4, 74, 44
1, 40368, Note_on_c, 9, 42, 79
1, 40371, Note_off_c, 9, 42, 0
1, 40414, Note_off_c, 8, 62, 0
1, 40414, Note_off_c, 12, 62, 0
1, 40414, Note_off_c, 4, 66, 0
1, 40414, Note_off_c, 4, 71, 0
1, 40414, Note_off_c, 4, 74, 0
1, 40416, Note_on_c, 9, 35, 74
1, 40416, Note_on_c, 9, 42, 39
1, 40419, Note_off_c, 9, 35, 0
1, 40419, Note_off_c, 9, 42, 0
1, 40440, Note_on_c, 9, 42, 29
1, 40443, Note_off_c, 9, 42, 0
1, 40462, Note_off_c, 2, 64, 0
1, 40462, Note_off_c, 2, 69, 0
1, 40462, Note_off_c, 2, 73, 0
1, 40464, Note_on_c, 2, 62, 78
1, 40464, Note_on_c, 2, 71, 78
1, 40464, Note_on_c, 4, 66, 44
1, 40464, Note_on_c, 4, 71, 44
1, 40464, Note_on_c, 4, 74, 44
1, 40464, Note_on_c, 9, 42, 79
1, 40464, Note_on_c, 9, 59, 39
1, 40467, Note_off_c, 9, 42, 0
1, 40467, Note_off_c, 9, 59, 0
1, 40486, Note_off_c, 2, 62, 0
1, 40486, Note_off_c, 2, 71, 0
1, 40510, Note_off_c, 1, 35, 0
1, 40510, Note_off_c, 4, 66, 0
1, 40510, Note_off_c, 4, 71, 0
1, 40510, Note_off_c, 4, 74, 0
1, 40512, Note_on_c, 1, 35, 74
1, 40512, Note_on_c, 2, 64, 125
1, 40512, Note_on_c, 2, 69, 125
1, 40512, Note_on_c, 2, 73, 125
1, 40512, Note_on_c, 4, 59, 44
1, 40512, Note_on_c, 9, 37, 83
1, 40512, Note_on_c, 9, 42, 39
1, 40514, Note_off_c, 11, 62, 0
1, 40515, Note_off_c, 9, 37, 0
1, 40515, Note_off_c, 9, 42, 0
1, 40516, Note_off_c, 11, 59, 0
1, 40522, Note_off_c, 3, 59, 0
1, 40523, Note_off_c, 2, 64, 0
1, 40523, Note_off_c, 2, 69, 0
1, 40523, Note_off_c, 2, 73, 0
1, 40536, Note_on_c, 9, 42, 29
1, 40539, Note_off_c, 9, 42, 0
1, 40558, Note_off_c, 4, 59, 0
1, 40560, Note_on_c, 2, 62, 78
1, 40560, Note_on_c, 2, 71, 78
1, 40560, Note_on_c, 4, 66, 44
1, 40560, Note_on_c, 4, 71, 44
1, 40560, Note_on_c, 4, 74, 44
1, 40560, Note_on_c, 9, 42, 79
1, 40563, Note_off_c, 9, 42, 0
1, 40582, Note_off_c, 2, 62, 0
1, 40582, Note_off_c, 2, 71, 0
1, 40584, Note_on_c, 2, 64, 125
1, 40584, Note_on_c, 2, 69, 125
1, 40584, Note_on_c, 2, 73, 125
1, 40584, Note_on_c, 9, 37, 83
1, 40587, Note_off_c, 9, 37, 0
1, 40606, Note_off_c, 1, 35, 0
1, 40606, Note_off_c, 4, 66, 0
1, 40606, Note_off_c, 4, 71, 0
1, 40606, Note_off_c, 4, 74, 0
1, 40608, Note_on_c, 1, 33, 74
1, 40608, Note_on_c, 3, 59, 67
1, 40608, Note_on_c, 4, 57, 44
1, 40608, Pitch_bend_c, 8, 129
1, 40608, Note_on_c, 8, 71, 69
1, 40608, Note_on_c, 9, 35, 74
1, 40608, Note_on_c, 9, 42, 39
1, 40608, Note_on_c, 11, 66, 89
1, 40608, Note_on_c, 11, 69, 89
1, 40608, Pitch_bend_c, 12, 129
1, 40608, Note_on_c, 12, 71, 94
1, 40611, Note_off_c, 9, 35, 0
1, 40611, Note_off_c, 9, 42, 0
1, 40620, Pitch_bend_c, 8, 4097
1, 40620, Pitch_bend_c, 12, 4097
1, 40624, Note_off_c, 3, 59, 0
1, 40632, Note_on_c, 3, 61, 67
1, 40632, Pitch_bend_c, 8, 8193
1, 40632, Note_on_c, 9, 42, 29
1, 40632, Pitch_bend_c, 12, 8193
1, 40635, Note_off_c, 9, 42, 0
1, 40648, Note_off_c, 3, 61, 0
1, 40654, Note_off_c, 2, 64, 0
1, 40654, Note_off_c, 2, 69, 0
1, 40654, Note_off_c, 2, 73, 0
1, 40654, Note_off_c, 1, 33, 0
1, 40654, Note_off_c, 4, 57, 0
1, 40656, Note_on_c, 2, 62, 78
1, 40656, Note_on_c, 2, 71, 78
1, 40656, Note_on_c, 4, 64, 44
1, 40656, Note_on_c, 4, 69, 44
1, 40656, Note_on_c, 4, 73, 44
1, 40656, Note_on_c, 9, 37, 83
1, 40656, Note_on_c, 9, 42, 79
1, 40659, Note_off_c, 9, 37, 0
1, 40659, Note_off_c, 9, 42, 0
1, 40678, Note_off_c, 2, 62, 0
1, 40678, Note_off_c, 2, 71, 0
1, 40680, Note_on_c, 1, 35, 74
1, 40680, Note_on_c, 3, 62, 67
1, 40690, Note_off_c, 11, 66, 0
1, 40690, Note_off_c, 11, 69, 0
1, 40702, Note_off_c, 4, 64, 0
1, 40702, Note_off_c, 4, 69, 0
1, 40702, Note_off_c, 4, 73, 0
1, 40702, Note_off_c, 1, 35, 0
1, 40704, Control_c, 1, 11, 126
1, 40704, Control_c, 2, 11, 60
1, 40704, Control_c, 3, 11, 126
1, 40704, Control_c, 4, 11, 126
1, 40704, Control_c, 8, 11, 72
1, 40704, Control_c, 9, 11, 126
1, 40704, Control_c, 11, 11, 80
1, 40704, Note_on_c, 1, 28, 74
1, 40704, Note_on_c, 4, 52, 44
1, 40704, Note_on_c, 9, 42, 39
1, 40704, Note_on_c, 11, 62, 83
1, 40704, Note_on_c, 11, 66, 83
1, 40707, Note_off_c, 9, 42, 0
1, 40728, Note_on_c, 9, 42, 29
1, 40731, Note_off_c, 9, 42, 0
1, 40744, Note_off_c, 11, 62, 0
1, 40744, Note_off_c, 11, 66, 0
1, 40750, Note_off_c, 4, 52, 0
1, 40752, Note_on_c, 4, 62, 44
1, 40752, Note_on_c, 4, 67, 44
1, 40752, Note_on_c, 4, 71, 44
1, 40752, Note_on_c, 9, 42, 79
1, 40755, Note_off_c, 9, 42, 0
1, 40768, Control_c, 1, 11, 124
1, 40768, Control_c, 2, 11, 59
1, 40768, Control_c, 3, 11, 124
1, 40768, Control_c, 4, 11, 124
1, 40768, Control_c, 8, 11, 71
1, 40768, Control_c, 9, 11, 124
1, 40768, Control_c, 11, 11, 79
1, 40768, Control_c, 12, 11, 71
1, 40771, Note_off_c, 3, 62, 0
1, 40798, Note_off_c, 4, 62, 0
1, 40798, Note_off_c, 4, 67, 0
1, 40798, Note_off_c, 4, 71, 0
1, 40800, Note_on_c, 2, 64, 125
1, 40800, Note_on_c, 2, 69, 125
1, 40800, Note_on_c, 2, 73, 125
1, 40800, Note_on_c, 9, 35, 74
1, 40800, Note_on_c, 9, 42, 39
1, 40800, Note_on_c, 11, 62, 85
1, 40800, Note_on_c, 11, 66, 90
1, 40803, Note_off_c, 9, 35, 0
1, 40803, Note_off_c, 9, 42, 0
1, 40817, Note_off_c, 11, 62, 0
1, 40822, Note_off_c, 11, 66, 0
1, 40824, Note_on_c, 9, 42, 29
1, 40827, Note_off_c, 9, 42, 0
1, 40832, Control_c, 1, 11, 122
1, 40832, Control_c, 2, 11, 58
1, 40832, Control_c, 3, 11, 122
1, 40832, Control_c, 4, 11, 122
1, 40832, Control_c, 8, 11, 69
1, 40832, Control_c, 9, 11, 122
1, 40832, Control_c, 11, 11, 77
1, 40832, Control_c, 12, 11, 69
1, 40846, Note_off_c, 2, 64, 0
1, 40846, Note_off_c, 2, 69, 0
1, 40846, Note_off_c, 2, 73, 0
1, 40848, Note_on_c, 2, 62, 78
1, 40848, Note_on_c, 2, 71, 78
1, 40848, Note_on_c, 3, 62, 67
1, 40848, Note_on_c, 4, 62, 44
1, 40848, Note_on_c, 4, 67, 44
1, 40848, Note_on_c, 4, 71, 44
1, 40848, Note_on_c, 9, 37, 83
1, 40848, Note_on_c, 9, 42, 79
1, 40848, Note_on_c, 9, 59, 39
1, 40848, Note_on_c, 11, 62, 78
1, 40848, Note_on_c, 11, 66, 84
1, 40851, Note_off_c, 9, 37, 0
1, 40851, Note_off_c, 9, 42, 0
1, 40851, Note_off_c, 9, 59, 0
1, 40860, Note_off_c, 11, 66, 0
1, 40861, Note_off_c, 11, 62, 0
1, 40866, Note_off_c, 3, 62, 0
1, 40872, Note_on_c, 11, 62, 81
1, 40872, Note_on_c, 11, 66, 87
1, 40894, Note_off_c, 1, 28, 0
1, 40894, Note_off_c, 2, 62, 0
1, 40894, Note_off_c, 2, 71, 0
1, 40894, Note_off_c, 4, 62, 0
1, 40894, Note_off_c, 4, 67, 0
1, 40894, Note_off_c, 4, 71, 0
1, 40896, Control_c, 1, 11, 120
1, 40896, Control_c, 2, 11, 57
1, 40896, Control_c, 3, 11, 120
1, 40896, Control_c, 4, 11, 120
1, 40896, Control_c, 8, 11, 68
1, 40896, Control_c, 9, 11, 120
1, 40896, Control_c, 11, 11, 76
1, 40896, Control_c, 12, 11, 68
1, 40896, Note_on_c, 1, 33, 74
1, 40896, Note_on_c, 2, 64, 125
1, 40896, Note_on_c, 2, 69, 125
1, 40896, Note_on_c, 2, 73, 125
1, 40896, Note_on_c, 3, 61, 67
1, 40896, Note_on_c, 4, 57, 44
1, 40896, Note_on_c, 9, 42, 39
1, 40899, Note_off_c, 9, 42, 0
1, 40904, Note_off_c, 11, 62, 0
1, 40912, Note_off_c, 11, 66, 0
1, 40918, Note_off_c, 2, 64, 0
1, 40918, Note_off_c, 2, 69, 0
1, 40918, Note_off_c, 2, 73, 0
1, 40918, Note_off_c, 3, 61, 0
1, 40920, Note_on_c, 3, 59, 67
1, 40920, Note_on_c, 9, 42, 29
1, 40920, Note_on_c, 11, 61, 89
1, 40920, Note_on_c, 11, 64, 80
1, 40923, Note_off_c, 9, 42, 0
1, 40938, Note_off_c, 11, 64, 0
1, 40939, Note_off_c, 11, 61, 0
1, 40942, Note_off_c, 4, 57, 0
1, 40942, Note_off_c, 3, 59, 0
1, 40944, Note_on_c, 2, 62, 78
1, 40944, Note_on_c, 2, 71, 78
1, 40944, Note_on_c, 4, 64, 44
1, 40944, Note_on_c, 4, 69, 44
1, 40944, Note_on_c, 4, 73, 44
1, 40944, Note_on_c, 9, 42, 79
1, 40944, Note_on_c, 11, 59, 81
1, 40944, Note_on_c, 11, 62, 78
1, 40947, Note_off_c, 9, 42, 0
1, 40960, Control_c, 1, 11, 118
1, 40960, Control_c, 2, 11, 56
1, 40960, Control_c, 3, 11, 118
1, 40960, Control_c, 4, 11, 118
1, 40960, Control_c, 8, 11, 67
1, 40960, Control_c, 9, 11, 118
1, 40960, Control_c, 11, 11, 75
1, 40960, Control_c, 12, 11, 67
1, 40966, Note_off_c, 2, 62, 0
1, 40966, Note_off_c, 2, 71, 0
1, 40968, Note_on_c, 2, 64, 125
1, 40968, Note_on_c, 2, 69, 125
1, 40968, Note_on_c, 2, 73, 125
1, 40968, Note_on_c, 3, 57, 67
1, 40979, Note_off_c, 11, 59, 0
1, 40980, Note_off_c, 11, 62, 0
1, 40990, Note_off_c, 4, 64, 0
1, 40990, Note_off_c, 4, 69, 0
1, 40990, Note_off_c, 4, 73, 0
1, 40990, Note_off_c, 3, 57, 0
1, 40992, Note_on_c, 4, 57, 44
1, 40992, Note_on_c, 9, 35, 74
1, 40992, Note_on_c, 9, 42, 39
1, 40995, Note_off_c, 9, 35, 0
1, 40995, Note_off_c, 9, 42, 0
1, 41016, Note_on_c, 3, 59, 67
1, 41016, Note_on_c, 9, 42, 29
1, 41019, Note_off_c, 9, 42, 0
1, 41024, Control_c, 1, 11, 116
1, 41024, Control_c, 2, 11, 55
1, 41024, Control_c, 3, 11, 116
1, 41024, Control_c, 4, 11, 116
1, 41024, Control_c, 8, 11, 65
1, 41024, Control_c, 9, 11, 116
1, 41024, Control_c, 11, 11, 73
1, 41024, Control_c, 12, 11, 65
1, 41038, Note_off_c, 2, 64, 0
1, 41038, Note_off_c, 2, 69, 0
1, 41038, Note_off_c, 2, 73, 0
1, 41038, Note_off_c, 4, 57, 0
1, 41040, Note_on_c, 2, 62, 78
1, 41040, Note_on_c, 2, 71, 78
1, 41040, Note_on_c, 4, 64, 44
1, 41040, Note_on_c, 4, 69, 44
1, 41040, Note_on_c, 4, 73, 44
1, 41040, Note_on_c, 9, 37, 83
1, 41040, Note_on_c, 9, 42, 79
1, 41043, Note_off_c, 9, 37, 0
1, 41043, Note_off_c, 9, 42, 0
1, 41062, Note_off_c, 2, 62, 0
1, 41062, Note_off_c, 2, 71, 0
1, 41070, Note_off_c, 3, 59, 0
1, 41086, Note_off_c, 8, 71, 0
1, 41086, Note_off_c, 12, 71, 0
1, 41086, Note_off_c, 1, 33, 0
1, 41086, Note_off_c, 4, 64, 0
1, 41086, Note_off_c, 4, 69, 0
1, 41086, Note_off_c, 4, 73, 0
1, 41088, Control_c, 1, 11, 114
1, 41088, Control_c, 2, 11, 54
1, 41088, Control_c, 3, 11, 114
1, 41088, Control_c, 4, 11, 114
1, 41088, Control_c, 8, 11, 64
1, 41088, Control_c, 9, 11, 114
1, 41088, Control_c, 11, 11, 72
1, 41088, Control_c, 12, 11, 64
1, 41088, Note_on_c, 1, 35, 74
1, 41088, Note_on_c, 2, 64, 98
1, 41088, Note_on_c, 2, 69, 98
1, 41088, Note_on_c, 2, 73, 98
1, 41088, Note_on_c, 3, 59, 67
1, 41088, Note_on_c, 4, 59, 44
1, 41088, Note_on_c, 9, 37, 83
1, 41088, Note_on_c, 9, 42, 39
1, 41088, Note_on_c, 11, 61, 89
1, 41088, Note_on_c, 11, 64, 85
1, 41091, Note_off_c, 9, 37, 0
1, 41091, Note_off_c, 9, 42, 0
1, 41099, Note_off_c, 2, 64, 0
1, 41099, Note_off_c, 2, 69, 0
1, 41099, Note_off_c, 2, 73, 0
1, 41105, Note_off_c, 11, 61, 0
1, 41107, Note_off_c, 11, 64, 0
1, 41112, Note_on_c, 2, 62, 78
1, 41112, Note_on_c, 2, 71, 78
1, 41112, Note_on_c, 9, 42, 29
1, 41115, Note_off_c, 9, 42, 0
1, 41134, Note_off_c, 4, 59, 0
1, 41134, Note_off_c, 2, 62, 0
1, 41134, Note_off_c, 2, 71, 0
1, 41136, Note_on_c, 2, 64, 125
1, 41136, Note_on_c, 2, 69, 125
1, 41136, Note_on_c, 2, 73, 125
1, 41136, Note_on_c, 4, 66, 44
1, 41136, Note_on_c, 4, 71, 44
1, 41136, Note_on_c, 4, 74, 44
1, 41136, Note_on_c, 8, 71, 98
1, 41136, Note_on_c, 9, 42, 79
1, 41136, Note_on_c, 11, 61, 80
1, 41136, Note_on_c, 11, 64, 75
1, 41136, Note_on_c, 12, 71, 101
1, 41139, Note_off_c, 9, 42, 0
1, 41149, Note_off_c, 8, 71, 0
1, 41149, Note_off_c, 12, 71, 0
1, 41152, Note_off_c, 11, 64, 0
1, 41152, Control_c, 1, 11, 112
1, 41152, Control_c, 2, 11, 53
1, 41152, Control_c, 3, 11, 112
1, 41152, Control_c, 4, 11, 112
1, 41152, Control_c, 8, 11, 63
1, 41152, Control_c, 9, 11, 112
1, 41152, Control_c, 11, 11, 71
1, 41152, Control_c, 12, 11, 63
1, 41158, Note_off_c, 11, 61, 0
1, 41160, Note_on_c, 9, 37, 83
1, 41160, Note_on_c, 11, 64, 77
1, 41160, Note_on_c, 11, 67, 88
1, 41163, Note_off_c, 9, 37, 0
1, 41168, Note_on_c, 8, 64, 98
1, 41168, Note_on_c, 12, 64, 101
1, 41178, Note_off_c, 11, 64, 0
1, 41180, Note_off_c, 11, 67, 0
1, 41181, Note_off_c, 8, 64, 0
1, 41181, Note_off_c, 12, 64, 0
1, 41182, Note_off_c, 4, 66, 0
1, 41182, Note_off_c, 4, 71, 0
1, 41182, Note_off_c, 4, 74, 0
1, 41184, Note_on_c, 9, 35, 74
1, 41184, Note_on_c, 9, 42, 39
1, 41187, Note_off_c, 9, 35, 0
1, 41187, Note_off_c, 9, 42, 0
1, 41200, Note_on_c, 8, 71, 98
1, 41200, Note_on_c, 12, 71, 101
1, 41208, Note_on_c, 9, 42, 29
1, 41208, Note_on_c, 11, 64, 81
1, 41208, Note_on_c, 11, 67, 84
1, 41211, Note_off_c, 9, 42, 0
1, 41213, Note_off_c, 8, 71, 0
1, 41213, Note_off_c, 12, 71, 0
1, 41216, Control_c, 1, 11, 110
1, 41216, Control_c, 2, 11, 52
1, 41216, Control_c, 3, 11, 110
1, 41216, Control_c, 4, 11, 110
1, 41216, Control_c, 8, 11, 63
1, 41216, Control_c, 9, 11, 110
1, 41216, Control_c, 11, 11, 70
1, 41216, Control_c, 12, 11, 63
1, 41230, Note_off_c, 2, 64, 0
1, 41230, Note_off_c, 2, 69, 0
1, 41230, Note_off_c, 2, 73, 0
1, 41231, Note_off_c, 11, 64, 0
1, 41232, Note_on_c, 2, 62, 78
1, 41232, Note_on_c, 2, 71, 78
1, 41232, Note_on_c, 4, 66, 44
1, 41232, Note_on_c, 4, 71, 44
1, 41232, Note_on_c, 4, 74, 44
1, 41232, Note_on_c, 8, 64, 98
1, 41232, Note_on_c, 9, 37, 83
1, 41232, Note_on_c, 9, 42, 79
1, 41232, Note_on_c, 9, 59, 39
1, 41232, Note_on_c, 12, 64, 101
1, 41233, Note_off_c, 11, 67, 0
1, 41235, Note_off_c, 9, 37, 0
1, 41235, Note_off_c, 9, 42, 0
1, 41235, Note_off_c, 9, 59, 0
1, 41245, Note_off_c, 8, 64, 0
1, 41245, Note_off_c, 12, 64, 0
1, 41254, Note_off_c, 2, 62, 0
1, 41254, Note_off_c, 2, 71, 0
1, 41256, Note_on_c, 11, 62, 85
1, 41256, Note_on_c, 11, 66, 85
1, 41264, Note_on_c, 8, 71, 98
1, 41264, Note_on_c, 12, 71, 101
1, 41277, Note_off_c, 8, 71, 0
1, 41277, Note_off_c, 12, 71, 0
1, 41278, Note_off_c, 1, 35, 0
1, 41278, Note_off_c, 4, 66, 0
1, 41278, Note_off_c, 4, 71, 0
1, 41278, Note_off_c, 4, 74, 0
1, 41280, Control_c, 1, 11, 108
1, 41280, Control_c, 2, 11, 51
1, 41280, Control_c, 3, 11, 108
1, 41280, Control_c, 4, 11, 108
1, 41280, Control_c, 8, 11, 61
1, 41280, Control_c, 9, 11, 108
1, 41280, Control_c, 11, 11, 68
1, 41280, Control_c, 12, 11, 61
1, 41280, Note_on_c, 1, 35, 74
1, 41280, Note_on_c, 2, 64, 125
1, 41280, Note_on_c, 2, 69, 125
1, 41280, Note_on_c, 2, 73, 125
1, 41280, Note_on_c, 4, 59, 44
1, 41280, Note_on_c, 9, 37, 83
1, 41280, Note_on_c, 9, 42, 39
1, 41283, Note_off_c, 9, 37, 0
1, 41283, Note_off_c, 9, 42, 0
1, 41290, Note_off_c, 11, 62, 0
1, 41291, Note_off_c, 2, 64, 0
1, 41291, Note_off_c, 2, 69, 0
1, 41291, Note_off_c, 2, 73, 0
1, 41296, Note_on_c, 8, 64, 98
1, 41296, Note_on_c, 12, 64, 101
1, 41300, Note_off_c, 3, 59, 0
1, 41300, Note_off_c, 11, 66, 0
1, 41304, Note_on_c, 9, 42, 29
1, 41304, Note_on_c, 11, 61, 78
1, 41304, Note_on_c, 11, 64, 79
1, 41307, Note_off_c, 9, 42, 0
1, 41309, Note_off_c, 8, 64, 0
1, 41309, Note_off_c, 12, 64, 0
1, 41322, Note_off_c, 11, 64, 0
1, 41325, Note_off_c, 11, 61, 0
1, 41326, Note_off_c, 4, 59, 0
1, 41328, Note_on_c, 2, 62, 78
1, 41328, Note_on_c, 2, 71, 78
1, 41328, Note_on_c, 4, 66, 44
1, 41328, Note_on_c, 4, 71, 44
1, 41328, Note_on_c, 4, 74, 44
1, 41328, Note_on_c, 8, 71, 98
1, 41328, Note_on_c, 9, 42, 79
1, 41328, Note_on_c, 11, 59, 85
1, 41328, Note_on_c, 11, 62, 81
1, 41328, Note_on_c, 12, 71, 101
1, 41331, Note_off_c, 9, 42, 0
1, 41341, Note_off_c, 8, 71, 0
1, 41341, Note_off_c, 12, 71, 0
1, 41344, Control_c, 1, 11, 106
1, 41344, Control_c, 2, 11, 50
1, 41344, Control_c, 3, 11, 106
1, 41344, Control_c, 4, 11, 106
1, 41344, Control_c, 8, 11, 60
1, 41344, Control_c, 9, 11, 106
1, 41344, Control_c, 11, 11, 67
1, 41344, Control_c, 12, 11, 60
1, 41350, Note_off_c, 2, 62, 0
1, 41350, Note_off_c, 2, 71, 0
1, 41352, Note_off_c, 11, 59, 0
1, 41352, Note_off_c, 11, 62, 0
1, 41352, Note_on_c, 2, 64, 125
1, 41352, Note_on_c, 2, 69, 125
1, 41352, Note_on_c, 2, 73, 125
1, 41352, Note_on_c, 9, 37, 83
1, 41355, Note_off_c, 9, 37, 0
1, 41360, Note_on_c, 8, 64, 98
1, 41360, Note_on_c, 12, 64, 101
1, 41373, Note_off_c, 8, 64, 0
1, 41373, Note_off_c, 12, 64, 0
1, 41374, Note_off_c, 1, 35, 0
1, 41374, Note_off_c, 4, 66, 0
1, 41374, Note_off_c, 4, 71, 0
1, 41374, Note_off_c, 4, 74, 0
1, 41376, Note_on_c, 1, 33, 74
1, 41376, Note_on_c, 3, 59, 67
1, 41376, Note_on_c, 4, 57, 44
1, 41376, Note_on_c, 9, 35, 74
1, 41376, Note_on_c, 9, 42, 39
1, 41376, Note_on_c, 9, 54, 39
1, 41376, Note_on_c, 11, 59, 81
1, 41376, Note_on_c, 11, 62, 80
1, 41379, Note_off_c, 9, 35, 0
1, 41379, Note_off_c, 9, 42, 0
1, 41379, Note_off_c, 9, 54, 0
1, 41392, Note_on_c, 8, 71, 98
1, 41392, Note_on_c, 12, 71, 101
1, 41393, Note_off_c, 3, 59, 0
1, 41400, Note_on_c, 3, 61, 67
1, 41400, Note_on_c, 9, 42, 29
1, 41403, Note_off_c, 9, 42, 0
1, 41405, Note_off_c, 8, 71, 0
1, 41405, Note_off_c, 12, 71, 0
1, 41408, Control_c, 1, 11, 104
1, 41408, Control_c, 2, 11, 49
1, 41408, Control_c, 3, 11, 104
1, 41408, Control_c, 4, 11, 104
1, 41408, Control_c, 8, 11, 59
1, 41408, Control_c, 9, 11, 104
1, 41408, Control_c, 11, 11, 66
1, 41408, Control_c, 12, 11, 59
1, 41411, Note_off_c, 11, 62, 0
1, 41415, Note_off_c, 11, 59, 0
1, 41418, Note_off_c, 3, 61, 0
1, 41422, Note_off_c, 2, 64, 0
1, 41422, Note_off_c, 2, 69, 0
1, 41422, Note_off_c, 2, 73, 0
1, 41422, Note_off_c, 1, 33, 0
1, 41422, Note_off_c, 4, 57, 0
1, 41424, Note_on_c, 1, 35, 74
1, 41424, Note_on_c, 2, 62, 78
1, 41424, Note_on_c, 2, 71, 78
1, 41424, Note_on_c, 4, 64, 44
1, 41424, Note_on_c, 4, 69, 44
1, 41424, Note_on_c, 4, 73, 44
1, 41424, Note_on_c, 9, 37, 83
1, 41424, Note_on_c, 9, 42, 79
1, 41424, Note_on_c, 9, 56, 59
1, 41424, Note_on_c, 11, 61, 81
1, 41424, Note_on_c, 11, 64, 84
1, 41427, Note_off_c, 9, 37, 0
1, 41427, Note_off_c, 9, 42, 0
1, 41427, Note_off_c, 9, 56, 0
1, 41440, Note_on_c, 8, 64, 98
1, 41440, Note_on_c, 12, 64, 101
1, 41446, Note_off_c, 2, 62, 0
1, 41446, Note_off_c, 2, 71, 0
1, 41447, Note_off_c, 11, 64, 0
1, 41448, Note_on_c, 3, 62, 67
1, 41450, Note_off_c, 11, 61, 0
1, 41453, Note_off_c, 8, 64, 0
1, 41453, Note_off_c, 12, 64, 0
1, 41470, Note_off_c, 1, 35, 0
1, 41470, Note_off_c, 4, 64, 0
1, 41470, Note_off_c, 4, 69, 0
1, 41470, Note_off_c, 4, 73, 0
1, 41472, Control_c, 1, 11, 102
1, 41472, Control_c, 2, 11, 48
1, 41472, Control_c, 3, 11, 102
1, 41472, Control_c, 4, 11, 102
1, 41472, Control_c, 8, 11, 57
1, 41472, Control_c, 9, 11, 102
1, 41472, Control_c, 11, 11, 64
1, 41472, Control_c, 12, 11, 57
1, 41472, Note_on_c, 1, 28, 74
1, 41472, Note_on_c, 4, 52, 44
1, 41472, Note_on_c, 8, 66, 79
1, 41472, Note_on_c, 9, 42, 39
1, 41472, Note_on_c, 11, 62, 82
1, 41472, Note_on_c, 11, 66, 85
1, 41472, Note_on_c, 12, 66, 96
1, 41475, Note_off_c, 9, 42, 0
1, 41485, Note_off_c, 8, 66, 0
1, 41485, Note_off_c, 12, 66, 0
1, 41496, Note_on_c, 9, 42, 29
1, 41499, Note_off_c, 9, 42, 0
1, 41504, Note_on_c, 8, 71, 99
1, 41504, Note_on_c, 12, 71, 101
1, 41517, Note_off_c, 8, 71, 0
1, 41517, Note_off_c, 12, 71, 0
1, 41518, Note_off_c, 4, 52, 0
1, 41520, Note_on_c, 4, 62, 44
1, 41520, Note_on_c, 4, 67, 44
1, 41520, Note_on_c, 4, 71, 44
1, 41520, Note_on_c, 9, 42, 79
1, 41523, Note_off_c, 9, 42, 0
1, 41527, Note_off_c, 11, 66, 0
1, 41528, Note_off_c, 11, 62, 0
1, 41536, Control_c, 1, 11, 100
1, 41536, Control_c, 2, 11, 48
1, 41536, Control_c, 3, 11, 100
1, 41536, Control_c, 4, 11, 100
1, 41536, Control_c, 8, 11, 57
1, 41536, Control_c, 9, 11, 100
1, 41536, Control_c, 11, 11, 64
1, 41536, Control_c, 12, 11, 57
1, 41536, Note_on_c, 8, 73, 89
1, 41536, Note_on_c, 12, 73, 99
1, 41542, Note_off_c, 1, 28, 0
1, 41544, Note_on_c, 11, 62, 82
1, 41544, Note_on_c, 11, 66, 87
1, 41547, Note_off_c, 3, 62, 0
1, 41549, Note_off_c, 8, 73, 0
1, 41549, Note_off_c, 12, 73, 0
1, 41566, Note_off_c, 4, 62, 0
1, 41566, Note_off_c, 4, 67, 0
1, 41566, Note_off_c, 4, 71, 0
1, 41568, Note_on_c, 1, 28, 74
1, 41568, Note_on_c, 2, 64, 125
1, 41568, Note_on_c, 2, 69, 125
1, 41568, Note_on_c, 2, 73, 125
1, 41568, Note_on_c, 8, 74, 109
1, 41568, Note_on_c, 9, 35, 74
1, 41568, Note_on_c, 9, 42, 39
1, 41568, Note_on_c, 12, 74, 104
1, 41571, Note_off_c, 9, 35, 0
1, 41571, Note_off_c, 9, 42, 0
1, 41581, Note_off_c, 8, 74, 0
1, 41581, Note_off_c, 12, 74, 0
1, 41591, Note_off_c, 11, 62, 0
1, 41592, Note_off_c, 11, 66, 0
1, 41592, Note_on_c, 9, 42, 29
1, 41595, Note_off_c, 9, 42, 0
1, 41600, Control_c, 1, 11, 98
1, 41600, Control_c, 2, 11, 46
1, 41600, Control_c, 3, 11, 98
1, 41600, Control_c, 4, 11, 98
1, 41600, Control_c, 8, 11, 55
1, 41600, Control_c, 9, 11, 98
1, 41600, Control_c, 11, 11, 62
1, 41600, Control_c, 12, 11, 55
1, 41600, Note_on_c, 8, 66, 79
1, 41600, Note_on_c, 12, 66, 96
1, 41613, Note_off_c, 8, 66, 0
1, 41613, Note_off_c, 12, 66, 0
1, 41614, Note_off_c, 2, 64, 0
1, 41614, Note_off_c, 2, 69, 0
1, 41614, Note_off_c, 2, 73, 0
1, 41616, Note_on_c, 2, 62, 78
1, 41616, Note_on_c, 2, 71, 78
1, 41616, Note_on_c, 3, 62, 67
1, 41616, Note_on_c, 4, 62, 44
1, 41616, Note_on_c, 4, 67, 44
1, 41616, Note_on_c, 4, 71, 44
1, 41616, Note_on_c, 9, 37, 83
1, 41616, Note_on_c, 9, 42, 79
1, 41616, Note_on_c, 11, 62, 83
1, 41616, Note_on_c, 11, 66, 85
1, 41619, Note_off_c, 9, 37, 0
1, 41619, Note_off_c, 9, 42, 0
1, 41632, Note_on_c, 8, 71, 99
1, 41632, Note_on_c, 12, 71, 101
1, 41638, Note_off_c, 1, 28, 0
1, 41639, Note_off_c, 3, 62, 0
1, 41643, Note_off_c, 11, 62, 0
1, 41645, Note_off_c, 8, 71, 0
1, 41645, Note_off_c, 12, 71, 0
1, 41650, Note_off_c, 11, 66, 0
1, 41662, Note_off_c, 2, 62, 0
1, 41662, Note_off_c, 2, 71, 0
1, 41662, Note_off_c, 4, 62, 0
1, 41662, Note_off_c, 4, 67, 0
1, 41662, Note_off_c, 4, 71, 0
1, 41664, Control_c, 1, 11, 96
1, 41664, Control_c, 2, 11, 45
1, 41664, Control_c, 3, 11, 96
1, 41664, Control_c, 4, 11, 96
1, 41664, Control_c, 8, 11, 54
1, 41664, Control_c, 9, 11, 96
1, 41664, Control_c, 11, 11, 60
1, 41664, Control_c, 12, 11, 54
1, 41664, Note_on_c, 1, 33, 74
1, 41664, Note_on_c, 2, 64, 125
1, 41664, Note_on_c, 2, 69, 125
1, 41664, Note_on_c, 2, 73, 125
1, 41664, Note_on_c, 3, 61, 67
1, 41664, Note_on_c, 4, 57, 44
1, 41664, Note_on_c, 8, 73, 89
1, 41664, Note_on_c, 9, 42, 39
1, 41664, Note_on_c, 11, 61, 78
1, 41664, Note_on_c, 11, 64, 83
1, 41664, Note_on_c, 12, 73, 99
1, 41667, Note_off_c, 9, 42, 0
1, 41677, Note_off_c, 8, 73, 0
1, 41677, Note_off_c, 12, 73, 0
1, 41686, Note_off_c, 2, 64, 0
1, 41686, Note_off_c, 2, 69, 0
1, 41686, Note_off_c, 2, 73, 0
1, 41686, Note_off_c, 3, 61, 0
1, 41688, Note_on_c, 3, 59, 67
1, 41688, Note_on_c, 9, 42, 29
1, 41691, Note_off_c, 9, 42, 0
1, 41696, Note_on_c, 8, 74, 109
1, 41696, Note_on_c, 12, 74, 104
1, 41709, Note_off_c, 8, 74, 0
1, 41709, Note_off_c, 12, 74, 0
1, 41710, Note_off_c, 4, 57, 0
1, 41712, Note_off_c, 3, 59, 0
1, 41712, Note_on_c, 2, 62, 78
1, 41712, Note_on_c, 2, 71, 78
1, 41712, Note_on_c, 4, 64, 44
1, 41712, Note_on_c, 4, 69, 44
1, 41712, Note_on_c, 4, 73, 44
1, 41712, Note_on_c, 9, 42, 79
1, 41714, Note_off_c, 11, 64, 0
1, 41715, Note_off_c, 9, 42, 0
1, 41720, Note_off_c, 11, 61, 0
1, 41728, Control_c, 1, 11, 94
1, 41728, Control_c, 2, 11, 45
1, 41728, Control_c, 3, 11, 94
1, 41728, Control_c, 4, 11, 94
1, 41728, Control_c, 8, 11, 54
1, 41728, Control_c, 9, 11, 94
1, 41728, Control_c, 11, 11, 60
1, 41728, Control_c, 12, 11, 54
1, 41728, Note_on_c, 8, 64, 79
1, 41728, Note_on_c, 12, 64, 96
1, 41734, Note_off_c, 1, 33, 0
1, 41734, Note_off_c, 2, 62, 0
1, 41734, Note_off_c, 2, 71, 0
1, 41736, Note_on_c, 2, 64, 125
1, 41736, Note_on_c, 2, 69, 125
1, 41736, Note_on_c, 2, 73, 125
1, 41736, Note_on_c, 3, 57, 67
1, 41736, Note_on_c, 11, 57, 80
1, 41736, Note_on_c, 11, 61, 81
1, 41741, Note_off_c, 8, 64, 0
1, 41741, Note_off_c, 12, 64, 0
1, 41758, Note_off_c, 4, 64, 0
1, 41758, Note_off_c, 4, 69, 0
1, 41758, Note_off_c, 4, 73, 0
1, 41759, Note_off_c, 3, 57, 0
1, 41760, Note_on_c, 1, 33, 74
1, 41760, Note_on_c, 4, 57, 44
1, 41760, Note_on_c, 8, 66, 99
1, 41760, Note_on_c, 9, 35, 74
1, 41760, Note_on_c, 9, 42, 39
1, 41760, Note_on_c, 9, 59, 39
1, 41760, Note_on_c, 12, 66, 101
1, 41763, Note_off_c, 9, 35, 0
1, 41763, Note_off_c, 9, 42, 0
1, 41763, Note_off_c, 9, 59, 0
1, 41773, Note_off_c, 8, 66, 0
1, 41773, Note_off_c, 12, 66, 0
1, 41779, Note_off_c, 11, 57, 0
1, 41783, Note_off_c, 11, 61, 0
1, 41784, Note_on_c, 3, 59, 67
1, 41784, Note_on_c, 9, 42, 29
1, 41787, Note_off_c, 9, 42, 0
1, 41792, Control_c, 1, 11, 92
1, 41792, Control_c, 2, 11, 43
1, 41792, Control_c, 3, 11, 92
1, 41792, Control_c, 4, 11, 92
1, 41792, Control_c, 8, 11, 52
1, 41792, Control_c, 9, 11, 92
1, 41792, Control_c, 11, 11, 58
1, 41792, Control_c, 12, 11, 52
1, 41792, Note_on_c, 8, 71, 89
1, 41792, Note_on_c, 12, 71, 99
1, 41805, Note_off_c, 8, 71, 0
1, 41805, Note_off_c, 12, 71, 0
1, 41806, Note_off_c, 2, 64, 0
1, 41806, Note_off_c, 2, 69, 0
1, 41806, Note_off_c, 2, 73, 0
1, 41806, Note_off_c, 4, 57, 0
1, 41808, Note_on_c, 2, 62, 78
1, 41808, Note_on_c, 2, 71, 78
1, 41808, Note_on_c, 4, 64, 44
1, 41808, Note_on_c, 4, 69, 44
1, 41808, Note_on_c, 4, 73, 44
1, 41808, Note_on_c, 9, 37, 83
1, 41808, Note_on_c, 9, 42, 79
1, 41808, Note_on_c, 11, 59, 80
1, 41808, Note_on_c, 11, 62, 80
1, 41811, Note_off_c, 9, 37, 0
1, 41811, Note_off_c, 9, 42, 0
1, 41824, Note_on_c, 8, 74, 109
1, 41824, Note_on_c, 12, 74, 104
1, 41830, Note_off_c, 1, 33, 0
1, 41830, Note_off_c, 2, 62, 0
1, 41830, Note_off_c, 2, 71, 0
1, 41833, Note_off_c, 3, 59, 0
1, 41837, Note_off_c, 8, 74, 0
1, 41837, Note_off_c, 12, 74, 0
1, 41854, Note_off_c, 4, 64, 0
1, 41854, Note_off_c, 4, 69, 0
1, 41854, Note_off_c, 4, 73, 0
1, 41856, Control_c, 1, 11, 90
1, 41856, Control_c, 2, 11, 43
1, 41856, Control_c, 3, 11, 90
1, 41856, Control_c, 4, 11, 90
1, 41856, Control_c, 8, 11, 51
1, 41856, Control_c, 9, 11, 90
1, 41856, Control_c, 11, 11, 57
1, 41856, Control_c, 12, 11, 51
1, 41856, Note_on_c, 1, 35, 74
1, 41856, Note_on_c, 2, 64, 98
1, 41856, Note_on_c, 2, 69, 98
1, 41856, Note_on_c, 2, 73, 98
1, 41856, Note_on_c, 3, 59, 67
1, 41856, Note_on_c, 4, 59, 44
1, 41856, Note_on_c, 8, 73, 79
1, 41856, Note_on_c, 9, 42, 39
1, 41856, Note_on_c, 12, 73, 96
1, 41859, Note_off_c, 9, 42, 0
1, 41867, Note_off_c, 2, 64, 0
1, 41867, Note_off_c, 2, 69, 0
1, 41867, Note_off_c, 2, 73, 0
1, 41869, Note_off_c, 8, 73, 0
1, 41869, Note_off_c, 12, 73, 0
1, 41880, Note_on_c, 2, 62, 78
1, 41880, Note_on_c, 2, 71, 78
1, 41880, Note_on_c, 9, 37, 83
1, 41880, Note_on_c, 9, 42, 29
1, 41883, Note_off_c, 9, 37, 0
1, 41883, Note_off_c, 9, 42, 0
1, 41888, Note_on_c, 8, 66, 99
1, 41888, Note_on_c, 12, 66, 101
1, 41901, Note_off_c, 8, 66, 0
1, 41901, Note_off_c, 12, 66, 0
1, 41902, Note_off_c, 4, 59, 0
1, 41902, Note_off_c, 2, 62, 0
1, 41902, Note_off_c, 2, 71, 0
1, 41904, Note_on_c, 2, 64, 125
1, 41904, Note_on_c, 2, 69, 125
1, 41904, Note_on_c, 2, 73, 125
1, 41904, Note_on_c, 4, 66, 44
1, 41904, Note_on_c, 4, 71, 44
1, 41904, Note_on_c, 4, 74, 44
1, 41904, Note_on_c, 9, 42, 79
1, 41907, Note_off_c, 9, 42, 0
1, 41920, Control_c, 1, 11, 88
1, 41920, Control_c, 2, 11, 42
1, 41920, Control_c, 3, 11, 88
1, 41920, Control_c, 4, 11, 88
1, 41920, Control_c, 8, 11, 50
1, 41920, Control_c, 9, 11, 88
1, 41920, Control_c, 11, 11, 56
1, 41920, Control_c, 12, 11, 50
1, 41920, Note_on_c, 8, 69, 89
1, 41920, Note_on_c, 12, 69, 99
1, 41926, Note_off_c, 1, 35, 0
1, 41933, Note_off_c, 8, 69, 0
1, 41933, Note_off_c, 12, 69, 0
1, 41950, Note_off_c, 4, 66, 0
1, 41950, Note_off_c, 4, 71, 0
1, 41950, Note_off_c, 4, 74, 0
1, 41952, Note_on_c, 1, 35, 74
1, 41952, Note_on_c, 8, 73, 109
1, 41952, Note_on_c, 9, 35, 74
1, 41952, Note_on_c, 9, 42, 39
1, 41952, Note_on_c, 12, 73, 104
1, 41955, Note_off_c, 9, 35, 0
1, 41955, Note_off_c, 9, 42, 0
1, 41965, Note_off_c, 8, 73, 0
1, 41965, Note_off_c, 12, 73, 0
1, 41976, Note_on_c, 9, 42, 29
1, 41979, Note_off_c, 9, 42, 0
1, 41984, Control_c, 1, 11, 86
1, 41984, Control_c, 2, 11, 40
1, 41984, Control_c, 3, 11, 86
1, 41984, Control_c, 4, 11, 86
1, 41984, Control_c, 8, 11, 48
1, 41984, Control_c, 9, 11, 86
1, 41984, Control_c, 11, 11, 54
1, 41984, Control_c, 12, 11, 48
1, 41984, Note_on_c, 8, 71, 89
1, 41984, Note_on_c, 12, 71, 99
1, 41997, Note_off_c, 8, 71, 0
1, 41997, Note_off_c, 12, 71, 0
1, 41998, Note_off_c, 2, 64, 0
1, 41998, Note_off_c, 2, 69, 0
1, 41998, Note_off_c, 2, 73, 0
1, 42000, Note_on_c, 2, 62, 78
1, 42000, Note_on_c, 2, 71, 78
1, 42000, Note_on_c, 4, 66, 44
1, 42000, Note_on_c, 4, 71, 44
1, 42000, Note_on_c, 4, 74, 44
1, 42000, Note_on_c, 9, 37, 83
1, 42000, Note_on_c, 9, 42, 79
1, 42000, Note_on_c, 9, 59, 39
1, 42003, Note_off_c, 9, 37, 0
1, 42003, Note_off_c, 9, 42, 0
1, 42003, Note_off_c, 9, 59, 0
1, 42016, Note_on_c, 8, 66, 69
1, 42016, Note_on_c, 12, 66, 94
1, 42022, Note_off_c, 1, 35, 0
1, 42022, Note_off_c, 2, 62, 0
1, 42022, Note_off_c, 2, 71, 0
1, 42029, Note_off_c, 8, 66, 0
1, 42029, Note_off_c, 12, 66, 0
1, 42046, Note_off_c, 4, 66, 0
1, 42046, Note_off_c, 4, 71, 0
1, 42046, Note_off_c, 4, 74, 0
1, 42048, Control_c, 1, 11, 84
1, 42048, Control_c, 2, 11, 40
1, 42048, Control_c, 3, 11, 84
1, 42048, Control_c, 4, 11, 84
1, 42048, Control_c, 8, 11, 47
1, 42048, Control_c, 9, 11, 84
1, 42048, Control_c, 11, 11, 53
1, 42048, Control_c, 12, 11, 47
1, 42048, Note_on_c, 1, 35, 74
1, 42048, Note_on_c, 2, 64, 125
1, 42048, Note_on_c, 2, 69, 125
1, 42048, Note_on_c, 2, 73, 125
1, 42048, Note_on_c, 4, 59, 44
1, 42048, Note_on_c, 8, 69, 99
1, 42048, Note_on_c, 9, 42, 39
1, 42048, Note_on_c, 12, 69, 101
1, 42051, Note_off_c, 9, 42, 0
1, 42056, Note_off_c, 3, 59, 0
1, 42059, Note_off_c, 2, 64, 0
1, 42059, Note_off_c, 2, 69, 0
1, 42059, Note_off_c, 2, 73, 0
1, 42071, Note_off_c, 11, 62, 0
1, 42072, Note_on_c, 9, 37, 83
1, 42072, Note_on_c, 9, 42, 29
1, 42075, Note_off_c, 11, 59, 0
1, 42075, Note_off_c, 9, 37, 0
1, 42075, Note_off_c, 9, 42, 0
1, 42094, Note_off_c, 1, 35, 0
1, 42094, Note_off_c, 4, 59, 0
1, 42096, Note_on_c, 1, 37, 74
1, 42096, Note_on_c, 2, 62, 78
1, 42096, Note_on_c, 2, 71, 78
1, 42096, Note_on_c, 4, 66, 44
1, 42096, Note_on_c, 4, 71, 44
1, 42096, Note_on_c, 4, 74, 44
1, 42096, Note_on_c, 9, 42, 79
1, 42099, Note_off_c, 9, 42, 0
1, 42112, Control_c, 1, 11, 82
1, 42112, Control_c, 2, 11, 39
1, 42112, Control_c, 3, 11, 82
1, 42112, Control_c, 4, 11, 82
1, 42112, Control_c, 8, 11, 46
1, 42112, Control_c, 9, 11, 82
1, 42112, Control_c, 11, 11, 52
1, 42112, Control_c, 12, 11, 46
1, 42118, Note_off_c, 2, 62, 0
1, 42118, Note_off_c, 2, 71, 0
1, 42120, Note_on_c, 2, 64, 125
1, 42120, Note_on_c, 2, 69, 125
1, 42120, Note_on_c, 2, 73, 125
1, 42142, Note_off_c, 1, 37, 0
1, 42142, Note_off_c, 4, 66, 0
1, 42142, Note_off_c, 4, 71, 0
1, 42142, Note_off_c, 4, 74, 0
1, 42144, Note_on_c, 1, 38, 74
1, 42144, Note_on_c, 3, 59, 67
1, 42144, Note_on_c, 4, 57, 44
1, 42144, Note_on_c, 9, 35, 74
1, 42144, Note_on_c, 9, 42, 39
1, 42144, Note_on_c, 9, 54, 49
1, 42144, Note_on_c, 11, 66, 89
1, 42144, Note_on_c, 11, 69, 89
1, 42147, Note_off_c, 9, 35, 0
1, 42147, Note_off_c, 9, 42, 0
1, 42147, Note_off_c, 9, 54, 0
1, 42166, Note_off_c, 3, 59, 0
1, 42168, Note_on_c, 3, 61, 67
1, 42168, Note_on_c, 9, 42, 29
1, 42171, Note_off_c, 9, 42, 0
1, 42176, Control_c, 1, 11, 80
1, 42176, Control_c, 2, 11, 38
1, 42176, Control_c, 3, 11, 80
1, 42176, Control_c, 4, 11, 80
1, 42176, Control_c, 8, 11, 45
1, 42176, Control_c, 9, 11, 80
1, 42176, Control_c, 11, 11, 51
1, 42176, Control_c, 12, 11, 45
1, 42186, Note_off_c, 3, 61, 0
1, 42190, Note_off_c, 2, 64, 0
1, 42190, Note_off_c, 2, 69, 0
1, 42190, Note_off_c, 2, 73, 0
1, 42190, Note_off_c, 1, 38, 0
1, 42190, Note_off_c, 4, 57, 0
1, 42192, Note_on_c, 1, 30, 74
1, 42192, Note_on_c, 2, 62, 78
1, 42192, Note_on_c, 2, 71, 78
1, 42192, Note_on_c, 4, 64, 44
1, 42192, Note_on_c, 4, 69, 44
1, 42192, Note_on_c, 4, 73, 44
1, 42192, Note_on_c, 9, 37, 83
1, 42192, Note_on_c, 9, 42, 79
1, 42192, Note_on_c, 9, 55, 49
1, 42195, Note_off_c, 9, 37, 0
1, 42195, Note_off_c, 9, 42, 0
1, 42195, Note_off_c, 9, 55, 0
1, 42214, Note_off_c, 2, 62, 0
1, 42214, Note_off_c, 2, 71, 0
1, 42216, Note_on_c, 3, 62, 67
1, 42229, Note_off_c, 11, 66, 0
1, 42229, Note_off_c, 11, 69, 0
1, 42238, Note_off_c, 8, 69, 0
1, 42238, Note_off_c, 12, 69, 0
1, 42238, Note_off_c, 1, 30, 0
1, 42238, Note_off_c, 4, 64, 0
1, 42238, Note_off_c, 4, 69, 0
1, 42238, Note_off_c, 4, 73, 0
1, 42240, Control_c, 1, 11, 78
1, 42240, Control_c, 2, 11, 37
1, 42240, Control_c, 3, 11, 78
1, 42240, Control_c, 4, 11, 78
1, 42240, Control_c, 8, 11, 44
1, 42240, Control_c, 9, 11, 78
1, 42240, Control_c, 11, 11, 49
1, 42240, Control_c, 12, 11, 44
1, 42240, Note_on_c, 1, 28, 74
1, 42240, Note_on_c, 4, 52, 44
1, 42240, Note_on_c, 8, 66, 69
1, 42240, Note_on_c, 9, 42, 39
1, 42240, Note_on_c, 11, 62, 84
1, 42240, Note_on_c, 11, 66, 84
1, 42240, Note_on_c, 12, 66, 94
1, 42243, Note_off_c, 9, 42, 0
1, 42264, Note_on_c, 9, 42, 29
1, 42267, Note_off_c, 9, 42, 0
1, 42273, Note_off_c, 11, 62, 0
1, 42273, Note_off_c, 11, 66, 0
1, 42286, Note_off_c, 4, 52, 0
1, 42288, Note_on_c, 4, 62, 44
1, 42288, Note_on_c, 4, 67, 44
1, 42288, Note_on_c, 4, 71, 44
1, 42288, Note_on_c, 9, 42, 79
1, 42291, Note_off_c, 9, 42, 0
1, 42304, Control_c, 1, 11, 76
1, 42304, Control_c, 2, 11, 36
1, 42304, Control_c, 3, 11, 76
1, 42304, Control_c, 4, 11, 76
1, 42304, Control_c, 8, 11, 43
1, 42304, Control_c, 9, 11, 76
1, 42304, Control_c, 11, 11, 48
1, 42304, Control_c, 12, 11, 43
1, 42310, Note_off_c, 1, 28, 0
1, 42324, Note_off_c, 3, 62, 0
1, 42334, Note_off_c, 8, 66, 0
1, 42334, Note_off_c, 12, 66, 0
1, 42334, Note_off_c, 4, 62, 0
1, 42334, Note_off_c, 4, 67, 0
1, 42334, Note_off_c, 4, 71, 0
1, 42336, Note_on_c, 1, 28, 74
1, 42336, Note_on_c, 2, 64, 125
1, 42336, Note_on_c, 2, 69, 125
1, 42336, Note_on_c, 2, 73, 125
1, 42336, Note_on_c, 9, 35, 74
1, 42336, Note_on_c, 9, 42, 39
1, 42336, Note_on_c, 11, 62, 84
1, 42336, Note_on_c, 11, 66, 88
1, 42339, Note_off_c, 9, 35, 0
1, 42339, Note_off_c, 9, 42, 0
1, 42354, Note_off_c, 11, 62, 0
1, 42360, Note_off_c, 11, 66, 0
1, 42360, Note_on_c, 9, 42, 29
1, 42363, Note_off_c, 9, 42, 0
1, 42368, Control_c, 1, 11, 74
1, 42368, Control_c, 2, 11, 35
1, 42368, Control_c, 3, 11, 74
1, 42368, Control_c, 4, 11, 74
1, 42368, Control_c, 8, 11, 42
1, 42368, Control_c, 9, 11, 74
1, 42368, Control_c, 11, 11, 47
1, 42368, Control_c, 12, 11, 42
1, 42382, Note_off_c, 2, 64, 0
1, 42382, Note_off_c, 2, 69, 0
1, 42382, Note_off_c, 2, 73, 0
1, 42384, Note_on_c, 2, 62, 78
1, 42384, Note_on_c, 2, 71, 78
1, 42384, Note_on_c, 3, 62, 67
1, 42384, Note_on_c, 4, 62, 44
1, 42384, Note_on_c, 4, 67, 44
1, 42384, Note_on_c, 4, 71, 44
1, 42384, Note_on_c, 9, 37, 83
1, 42384, Note_on_c, 9, 42, 79
1, 42384, Note_on_c, 9, 59, 39
1, 42384, Note_on_c, 11, 62, 79
1, 42384, Note_on_c, 11, 66, 85
1, 42387, Note_off_c, 9, 37, 0
1, 42387, Note_off_c, 9, 42, 0
1, 42387, Note_off_c, 9, 59, 0
1, 42394, Note_off_c, 11, 62, 0
1, 42395, Note_off_c, 11, 66, 0
1, 42404, Note_off_c, 3, 62, 0
1, 42406, Note_off_c, 1, 28, 0
1, 42408, Note_on_c, 11, 62, 81
1, 42408, Note_on_c, 11, 66, 87
1, 42430, Note_off_c, 2, 62, 0
1, 42430, Note_off_c, 2, 71, 0
1, 42430, Note_off_c, 4, 62, 0
1, 42430, Note_off_c, 4, 67, 0
1, 42430, Note_off_c, 4, 71, 0
1, 42432, Control_c, 1, 11, 72
1, 42432, Control_c, 2, 11, 34
1, 42432, Control_c, 3, 11, 72
1, 42432, Control_c, 4, 11, 72
1, 42432, Control_c, 8, 11, 40
1, 42432, Control_c, 9, 11, 72
1, 42432, Control_c, 11, 11, 45
1, 42432, Control_c, 12, 11, 40
1, 42432, Note_on_c, 1, 33, 74
1, 42432, Note_on_c, 2, 64, 125
1, 42432, Note_on_c, 2, 69, 125
1, 42432, Note_on_c, 2, 73, 125
1, 42432, Note_on_c, 3, 61, 67
1, 42432, Note_on_c, 4, 57, 44
1, 42432, Note_on_c, 9, 42, 39
1, 42435, Note_off_c, 9, 42, 0
1, 42443, Note_off_c, 11, 62, 0
1, 42453, Note_off_c, 11, 66, 0
1, 42454, Note_off_c, 2, 64, 0
1, 42454, Note_off_c, 2, 69, 0
1, 42454, Note_off_c, 2, 73, 0
1, 42454, Note_off_c, 3, 61, 0
1, 42456, Note_on_c, 3, 59, 67
1, 42456, Note_on_c, 9, 42, 29
1, 42456, Note_on_c, 11, 61, 85
1, 42456, Note_on_c, 11, 64, 78
1, 42459, Note_off_c, 9, 42, 0
1, 42473, Note_off_c, 11, 64, 0
1, 42475, Note_off_c, 11, 61, 0
1, 42477, Note_off_c, 3, 59, 0
1, 42478, Note_off_c, 4, 57, 0
1, 42480, Note_on_c, 2, 62, 78
1, 42480, Note_on_c, 2, 71, 78
1, 42480, Note_on_c, 4, 64, 44
1, 42480, Note_on_c, 4, 69, 44
1, 42480, Note_on_c, 4, 73, 44
1, 42480, Note_on_c, 9, 42, 79
1, 42480, Note_on_c, 11, 59, 82
1, 42480, Note_on_c, 11, 62, 79
1, 42483, Note_off_c, 9, 42, 0
1, 42496, Control_c, 1, 11, 70
1, 42496, Control_c, 2, 11, 33
1, 42496, Control_c, 3, 11, 70
1, 42496, Control_c, 4, 11, 70
1, 42496, Control_c, 8, 11, 39
1, 42496, Control_c, 9, 11, 70
1, 42496, Control_c, 11, 11, 44
1, 42496, Control_c, 12, 11, 39
1, 42502, Note_off_c, 1, 33, 0
1, 42502, Note_off_c, 2, 62, 0
1, 42502, Note_off_c, 2, 71, 0
1, 42504, Note_on_c, 2, 64, 125
1, 42504, Note_on_c, 2, 69, 125
1, 42504, Note_on_c, 2, 73, 125
1, 42504, Note_on_c, 3, 57, 67
1, 42511, Note_off_c, 11, 59, 0
1, 42518, Note_off_c, 11, 62, 0
1, 42526, Note_off_c, 4, 64, 0
1, 42526, Note_off_c, 4, 69, 0
1, 42526, Note_off_c, 4, 73, 0
1, 42526, Note_off_c, 3, 57, 0
1, 42528, Note_on_c, 1, 33, 74
1, 42528, Note_on_c, 4, 57, 44
1, 42528, Note_on_c, 9, 35, 74
1, 42528, Note_on_c, 9, 42, 39
1, 42528, Note_on_c, 9, 56, 49
1, 42531, Note_off_c, 9, 35, 0
1, 42531, Note_off_c, 9, 42, 0
1, 42531, Note_off_c, 9, 56, 0
1, 42552, Note_on_c, 3, 59, 67
1, 42552, Note_on_c, 9, 42, 29
1, 42555, Note_off_c, 9, 42, 0
1, 42560, Control_c, 1, 11, 68
1, 42560, Control_c, 2, 11, 32
1, 42560, Control_c, 3, 11, 68
1, 42560, Control_c, 4, 11, 68
1, 42560, Control_c, 8, 11, 38
1, 42560, Control_c, 9, 11, 68
1, 42560, Control_c, 11, 11, 43
1, 42560, Control_c, 12, 11, 38
1, 42560, Note_on_c, 9, 56, 49
1, 42563, Note_off_c, 9, 56, 0
1, 42574, Note_off_c, 2, 64, 0
1, 42574, Note_off_c, 2, 69, 0
1, 42574, Note_off_c, 2, 73, 0
1, 42574, Note_off_c, 4, 57, 0
1, 42576, Note_on_c, 2, 62, 78
1, 42576, Note_on_c, 2, 71, 78
1, 42576, Note_on_c, 4, 64, 44
1, 42576, Note_on_c, 4, 69, 44
1, 42576, Note_on_c, 4, 73, 44
1, 42576, Note_on_c, 9, 37, 83
1, 42576, Note_on_c, 9, 42, 79
1, 42579, Note_off_c, 9, 37, 0
1, 42579, Note_off_c, 9, 42, 0
1, 42592, Note_on_c, 9, 56, 49
1, 42595, Note_off_c, 9, 56, 0
1, 42598, Note_off_c, 1, 33, 0
1, 42598, Note_off_c, 2, 62, 0
1, 42598, Note_off_c, 2, 71, 0
1, 42607, Note_off_c, 3, 59, 0
1, 42622, Note_off_c, 4, 64, 0
1, 42622, Note_off_c, 4, 69, 0
1, 42622, Note_off_c, 4, 73, 0
1, 42624, Control_c, 1, 11, 66
1, 42624, Control_c, 2, 11, 31
1, 42624, Control_c, 3, 11, 66
1, 42624, Control_c, 4, 11, 66
1, 42624, Control_c, 8, 11, 36
1, 42624, Control_c, 9, 11, 66
1, 42624, Control_c, 11, 11, 41
1, 42624, Control_c, 12, 11, 36
1, 42624, Note_on_c, 1, 35, 74
1, 42624, Note_on_c, 2, 64, 98
1, 42624, Note_on_c, 2, 69, 98
1, 42624, Note_on_c, 2, 73, 98
1, 42624, Note_on_c, 3, 59, 67
1, 42624, Note_on_c, 4, 59, 44
1, 42624, Note_on_c, 9, 42, 39
1, 42624, Note_on_c, 9, 56, 49
1, 42624, Note_on_c, 11, 61, 89
1, 42624, Note_on_c, 11, 64, 84
1, 42627, Note_off_c, 9, 42, 0
1, 42627, Note_off_c, 9, 56, 0
1, 42635, Note_off_c, 2, 64, 0
1, 42635, Note_off_c, 2, 69, 0
1, 42635, Note_off_c, 2, 73, 0
1, 42641, Note_off_c, 11, 61, 0
1, 42642, Note_off_c, 11, 64, 0
1, 42648, Note_on_c, 2, 62, 78
1, 42648, Note_on_c, 2, 71, 78
1, 42648, Note_on_c, 9, 42, 29
1, 42651, Note_off_c, 9, 42, 0
1, 42670, Note_off_c, 4, 59, 0
1, 42670, Note_off_c, 2, 62, 0
1, 42670, Note_off_c, 2, 71, 0
1, 42672, Note_on_c, 2, 64, 125
1, 42672, Note_on_c, 2, 69, 125
1, 42672, Note_on_c, 2, 73, 125
1, 42672, Note_on_c, 4, 66, 44
1, 42672, Note_on_c, 4, 71, 44
1, 42672, Note_on_c, 4, 74, 44
1, 42672, Pitch_bend_c, 8, 129
1, 42672, Note_on_c, 8, 69, 109
1, 42672, Note_on_c, 9, 42, 79
1, 42672, Note_on_c, 11, 61, 77
1, 42672, Note_on_c, 11, 64, 78
1, 42672, Pitch_bend_c, 12, 129
1, 42672, Note_on_c, 12, 69, 104
1, 42675, Note_off_c, 9, 42, 0
1, 42684, Pitch_bend_c, 8, 4865
1, 42684, Pitch_bend_c, 12, 4865
1, 42688, Control_c, 1, 11, 64
1, 42688, Control_c, 2, 11, 30
1, 42688, Control_c, 3, 11, 64
1, 42688, Control_c, 4, 11, 64
1, 42688, Control_c, 8, 11, 36
1, 42688, Control_c, 9, 11, 64
1, 42688, Control_c, 11, 11, 40
1, 42688, Control_c, 12, 11, 36
1, 42690, Note_off_c, 11, 64, 0
1, 42694, Note_off_c, 1, 35, 0
1, 42696, Note_off_c, 11, 61, 0
1, 42696, Pitch_bend_c, 8, 8321
1, 42696, Note_on_c, 11, 64, 77
1, 42696, Note_on_c, 11, 67, 88
1, 42696, Pitch_bend_c, 12, 8321
1, 42708, Pitch_bend_c, 8, 12289
1, 42708, Pitch_bend_c, 12, 12289
1, 42718, Note_off_c, 4, 66, 0
1, 42718, Note_off_c, 4, 71, 0
1, 42718, Note_off_c, 4, 74, 0
1, 42719, Note_off_c, 11, 64, 0
1, 42720, Note_on_c, 1, 35, 74
1, 42720, Pitch_bend_c, 8, 16257
1, 42720, Note_on_c, 9, 35, 74
1, 42720, Note_on_c, 9, 37, 83
1, 42720, Note_on_c, 9, 42, 39
1, 42720, Pitch_bend_c, 12, 16257
1, 42722, Note_off_c, 11, 67, 0
1, 42723, Note_off_c, 9, 35, 0
1, 42723, Note_off_c, 9, 37, 0
1, 42723, Note_off_c, 9, 42, 0
1, 42744, Note_on_c, 9, 42, 29
1, 42744, Note_on_c, 11, 64, 79
1, 42744, Note_on_c, 11, 67, 84
1, 42747, Note_off_c, 9, 42, 0
1, 42752, Control_c, 1, 11, 62
1, 42752, Control_c, 2, 11, 29
1, 42752, Control_c, 3, 11, 62
1, 42752, Control_c, 4, 11, 62
1, 42752, Control_c, 8, 11, 35
1, 42752, Control_c, 9, 11, 62
1, 42752, Control_c, 11, 11, 39
1, 42752, Control_c, 12, 11, 35
1, 42766, Note_off_c, 2, 64, 0
1, 42766, Note_off_c, 2, 69, 0
1, 42766, Note_off_c, 2, 73, 0
1, 42768, Note_on_c, 2, 62, 78
1, 42768, Note_on_c, 2, 71, 78
1, 42768, Note_on_c, 4, 66, 44
1, 42768, Note_on_c, 4, 71, 44
1, 42768, Note_on_c, 4, 74, 44
1, 42768, Note_on_c, 9, 42, 79
1, 42768, Note_on_c, 9, 59, 39
1, 42769, Note_off_c, 11, 64, 0
1, 42770, Note_off_c, 11, 67, 0
1, 42771, Note_off_c, 9, 42, 0
1, 42771, Note_off_c, 9, 59, 0
1, 42790, Note_off_c, 8, 69, 0
1, 42790, Note_off_c, 12, 69, 0
1, 42790, Note_off_c, 1, 35, 0
1, 42790, Note_off_c, 2, 62, 0
1, 42790, Note_off_c, 2, 71, 0
1, 42792, Note_on_c, 1, 30, 74
1, 42792, Pitch_bend_c, 8, 8193
1, 42792, Note_on_c, 8, 67, 59
1, 42792, Note_on_c, 9, 37, 83
1, 42792, Note_on_c, 11, 62, 85
1, 42792, Note_on_c, 11, 66, 84
1, 42792, Pitch_bend_c, 12, 8193
1, 42792, Note_on_c, 12, 67, 91
1, 42795, Note_off_c, 9, 37, 0
1, 42814, Note_off_c, 4, 66, 0
1, 42814, Note_off_c, 4, 71, 0
1, 42814, Note_off_c, 4, 74, 0
1, 42814, Note_off_c, 1, 30, 0
1, 42814, Note_off_c, 8, 67, 0
1, 42814, Note_off_c, 12, 67, 0
1, 42816, Control_c, 1, 11, 60
1, 42816, Control_c, 2, 11, 28
1, 42816, Control_c, 3, 11, 60
1, 42816, Control_c, 4, 11, 60
1, 42816, Control_c, 8, 11, 34
1, 42816, Control_c, 9, 11, 60
1, 42816, Control_c, 11, 11, 38
1, 42816, Control_c, 12, 11, 34
1, 42816, Note_on_c, 1, 35, 74
1, 42816, Note_on_c, 2, 64, 125
1, 42816, Note_on_c, 2, 69, 125
1, 42816, Note_on_c, 2, 73, 125
1, 42816, Note_on_c, 4, 59, 44
1, 42816, Note_on_c, 8, 66, 89
1, 42816, Note_on_c, 9, 42, 39
1, 42816, Note_on_c, 12, 66, 99
1, 42819, Note_off_c, 9, 42, 0
1, 42827, Note_off_c, 2, 64, 0
1, 42827, Note_off_c, 2, 69, 0
1, 42827, Note_off_c, 2, 73, 0
1, 42828, Note_off_c, 11, 62, 0
1, 42833, Note_off_c, 11, 66, 0
1, 42834, Note_off_c, 3, 59, 0
1, 42840, Note_on_c, 9, 42, 29
1, 42840, Note_on_c, 11, 61, 80
1, 42840, Note_on_c, 11, 64, 79
1, 42843, Note_off_c, 9, 42, 0
1, 42858, Note_off_c, 11, 64, 0
1, 42862, Note_off_c, 1, 35, 0
1, 42862, Note_off_c, 4, 59, 0
1, 42862, Note_off_c, 8, 66, 0
1, 42862, Note_off_c, 12, 66, 0
1, 42863, Note_off_c, 11, 61, 0
1, 42864, Note_on_c, 1, 30, 74
1, 42864, Note_on_c, 2, 62, 78
1, 42864, Note_on_c, 2, 71, 78
1, 42864, Note_on_c, 4, 66, 44
1, 42864, Note_on_c, 4, 71, 44
1, 42864, Note_on_c, 4, 74, 44
1, 42864, Note_on_c, 9, 37, 83
1, 42864, Note_on_c, 9, 42, 79
1, 42864, Note_on_c, 11, 59, 78
1, 42864, Note_on_c, 11, 62, 79
1, 42867, Note_off_c, 9, 37, 0
1, 42867, Note_off_c, 9, 42, 0
1, 42880, Control_c, 1, 11, 58
1, 42880, Control_c, 2, 11, 27
1, 42880, Control_c, 3, 11, 58
1, 42880, Control_c, 4, 11, 58
1, 42880, Control_c, 8, 11, 32
1, 42880, Control_c, 9, 11, 58
1, 42880, Control_c, 11, 11, 36
1, 42880, Control_c, 12, 11, 32
1, 42886, Note_off_c, 2, 62, 0
1, 42886, Note_off_c, 2, 71, 0
1, 42888, Note_off_c, 11, 62, 0
1, 42888, Note_on_c, 2, 64, 125
1, 42888, Note_on_c, 2, 69, 125
1, 42888, Note_on_c, 2, 73, 125
1, 42890, Note_off_c, 11, 59, 0
1, 42910, Note_off_c, 1, 30, 0
1, 42910, Note_off_c, 4, 66, 0
1, 42910, Note_off_c, 4, 71, 0
1, 42910, Note_off_c, 4, 74, 0
1, 42912, Note_on_c, 1, 33, 74
1, 42912, Note_on_c, 3, 59, 67
1, 42912, Note_on_c, 4, 57, 44
1, 42912, Note_on_c, 9, 35, 74
1, 42912, Note_on_c, 9, 42, 39
1, 42912, Note_on_c, 9, 54, 39
1, 42912, Note_on_c, 11, 59, 80
1, 42912, Note_on_c, 11, 62, 83
1, 42915, Note_off_c, 9, 35, 0
1, 42915, Note_off_c, 9, 42, 0
1, 42915, Note_off_c, 9, 54, 0
1, 42932, Note_off_c, 3, 59, 0
1, 42936, Note_off_c, 11, 62, 0
1, 42936, Note_on_c, 3, 61, 67
1, 42936, Pitch_bend_c, 8, 641
1, 42936, Note_on_c, 8, 71, 109
1, 42936, Note_on_c, 9, 42, 29
1, 42936, Pitch_bend_c, 12, 641
1, 42936, Note_on_c, 12, 71, 104
1, 42939, Note_off_c, 9, 42, 0
1, 42944, Control_c, 1, 11, 56
1, 42944, Control_c, 2, 11, 26
1, 42944, Control_c, 3, 11, 56
1, 42944, Control_c, 4, 11, 56
1, 42944, Control_c, 8, 11, 31
1, 42944, Control_c, 9, 11, 56
1, 42944, Control_c, 11, 11, 35
1, 42944, Control_c, 12, 11, 31
1, 42945, Note_off_c, 11, 59, 0
1, 42948, Pitch_bend_c, 8, 4097
1, 42948, Pitch_bend_c, 12, 4097
1, 42956, Note_off_c, 3, 61, 0
1, 42958, Note_off_c, 2, 64, 0
1, 42958, Note_off_c, 2, 69, 0
1, 42958, Note_off_c, 2, 73, 0
1, 42958, Note_off_c, 1, 33, 0
1, 42958, Note_off_c, 4, 57, 0
1, 42960, Note_on_c, 1, 35, 74
1, 42960, Note_on_c, 2, 62, 78
1, 42960, Note_on_c, 2, 71, 78
1, 42960, Note_on_c, 4, 64, 44
1, 42960, Note_on_c, 4, 69, 44
1, 42960, Note_on_c, 4, 73, 44
1, 42960, Pitch_bend_c, 8, 8193
1, 42960, Note_on_c, 9, 37, 83
1, 42960, Note_on_c, 9, 42, 79
1, 42960, Note_on_c, 9, 56, 59
1, 42960, Note_on_c, 11, 61, 79
1, 42960, Note_on_c, 11, 64, 79
1, 42960, Pitch_bend_c, 12, 8193
1, 42963, Note_off_c, 9, 37, 0
1, 42963, Note_off_c, 9, 42, 0
1, 42963, Note_off_c, 9, 56, 0
1, 42982, Note_off_c, 2, 62, 0
1, 42982, Note_off_c, 2, 71, 0
1, 42984, Note_on_c, 3, 62, 67
1, 42985, Note_off_c, 11, 64, 0
1, 42987, Note_off_c, 11, 61, 0
1, 43006, Note_off_c, 8, 71, 0
1, 43006, Note_off_c, 12, 71, 0
1, 43006, Note_off_c, 1, 35, 0
1, 43006, Note_off_c, 4, 64, 0
1, 43006, Note_off_c, 4, 69, 0
1, 43006, Note_off_c, 4, 73, 0
1, 43008, Control_c, 1, 11, 54
1, 43008, Control_c, 2, 11, 25
1, 43008, Control_c, 3, 11, 54
1, 43008, Control_c, 4, 11, 54
1, 43008, Control_c, 8, 11, 30
1, 43008, Control_c, 9, 11, 54
1, 43008, Control_c, 11, 11, 34
1, 43008, Control_c, 12, 11, 30
1, 43008, Note_on_c, 1, 28, 74
1, 43008, Note_on_c, 4, 52, 44
1, 43008, Note_on_c, 8, 66, 79
1, 43008, Note_on_c, 9, 42, 39
1, 43008, Note_on_c, 11, 62, 84
1, 43008, Note_on_c, 11, 66, 87
1, 43008, Note_on_c, 12, 66, 96
1, 43011, Note_off_c, 9, 42, 0
1, 43030, Note_off_c, 8, 66, 0
1, 43030, Note_off_c, 12, 66, 0
1, 43032, Note_on_c, 9, 42, 29
1, 43035, Note_off_c, 9, 42, 0
1, 43054, Note_off_c, 4, 52, 0
1, 43056, Note_on_c, 4, 62, 44
1, 43056, Note_on_c, 4, 67, 44
1, 43056, Note_on_c, 4, 71, 44
1, 43056, Note_on_c, 9, 42, 79
1, 43059, Note_off_c, 9, 42, 0
1, 43061, Note_off_c, 11, 62, 0
1, 43064, Note_off_c, 11, 66, 0
1, 43072, Control_c, 1, 11, 52
1, 43072, Control_c, 2, 11, 24
1, 43072, Control_c, 3, 11, 52
1, 43072, Control_c, 4, 11, 52
1, 43072, Control_c, 8, 11, 28
1, 43072, Control_c, 9, 11, 52
1, 43072, Control_c, 11, 11, 32
1, 43072, Control_c, 12, 11, 28
1, 43078, Note_off_c, 1, 28, 0
1, 43080, Note_on_c, 11, 62, 82
1, 43080, Note_on_c, 11, 66, 86
1, 43102, Note_off_c, 4, 62, 0
1, 43102, Note_off_c, 4, 67, 0
1, 43102, Note_off_c, 4, 71, 0
1, 43104, Note_on_c, 1, 28, 74
1, 43104, Note_on_c, 2, 64, 125
1, 43104, Note_on_c, 2, 69, 125
1, 43104, Note_on_c, 2, 73, 125
1, 43104, Note_on_c, 9, 35, 74
1, 43104, Note_on_c, 9, 42, 39
1, 43107, Note_off_c, 9, 35, 0
1, 43107, Note_off_c, 9, 42, 0
1, 43112, Note_off_c, 3, 62, 0
1, 43123, Note_off_c, 11, 62, 0
1, 43127, Note_off_c, 11, 66, 0
1, 43128, Note_on_c, 9, 42, 29
1, 43131, Note_off_c, 9, 42, 0
1, 43136, Control_c, 1, 11, 50
1, 43136, Control_c, 2, 11, 24
1, 43136, Control_c, 3, 11, 50
1, 43136, Control_c, 4, 11, 50
1, 43136, Control_c, 8, 11, 28
1, 43136, Control_c, 9, 11, 50
1, 43136, Control_c, 11, 11, 32
1, 43136, Control_c, 12, 11, 28
1, 43150, Note_off_c, 2, 64, 0
1, 43150, Note_off_c, 2, 69, 0
1, 43150, Note_off_c, 2, 73, 0
1, 43152, Note_on_c, 2, 62, 78
1, 43152, Note_on_c, 2, 71, 78
1, 43152, Note_on_c, 3, 62, 67
1, 43152, Note_on_c, 4, 62, 44
1, 43152, Note_on_c, 4, 67, 44
1, 43152, Note_on_c, 4, 71, 44
1, 43152, Pitch_bend_c, 8, 129
1, 43152, Note_on_c, 8, 73, 109
1, 43152, Note_on_c, 9, 37, 83
1, 43152, Note_on_c, 9, 42, 79
1, 43152, Note_on_c, 11, 62, 81
1, 43152, Note_on_c, 11, 66, 85
1, 43152, Pitch_bend_c, 12, 129
1, 43152, Note_on_c, 12, 73, 104
1, 43155, Note_off_c, 9, 37, 0
1, 43155, Note_off_c, 9, 42, 0
1, 43164, Pitch_bend_c, 8, 4097
1, 43164, Pitch_bend_c, 12, 4097
1, 43174, Note_off_c, 1, 28, 0
1, 43176, Pitch_bend_c, 8, 8193
1, 43176, Pitch_bend_c, 12, 8193
1, 43177, Note_off_c, 3, 62, 0
1, 43185, Note_off_c, 11, 62, 0
1, 43190, Note_off_c, 11, 66, 0
1, 43198, Note_off_c, 2, 62, 0
1, 43198, Note_off_c, 2, 71, 0
1, 43198, Note_off_c, 4, 62, 0
1, 43198, Note_off_c, 4, 67, 0
1, 43198, Note_off_c, 4, 71, 0
1, 43200, Control_c, 1, 11, 48
1, 43200, Control_c, 2, 11, 22
1, 43200, Control_c, 3, 11, 48
1, 43200, Control_c, 4, 11, 48
1, 43200, Control_c, 8, 11, 27
1, 43200, Control_c, 9, 11, 48
1, 43200, Control_c, 11, 11, 30
1, 43200, Control_c, 12, 11, 27
1, 43200, Note_on_c, 1, 33, 74
1, 43200, Note_on_c, 2, 64, 125
1, 43200, Note_on_c, 2, 69, 125
1, 43200, Note_on_c, 2, 73, 125
1, 43200, Note_on_c, 3, 61, 67
1, 43200, Note_on_c, 4, 57, 44
1, 43200, Note_on_c, 9, 42, 39
1, 43200, Note_on_c, 11, 61, 83
1, 43200, Note_on_c, 11, 64, 81
1, 43203, Note_off_c, 9, 42, 0
1, 43222, Note_off_c, 2, 64, 0
1, 43222, Note_off_c, 2, 69, 0
1, 43222, Note_off_c, 2, 73, 0
1, 43222, Note_off_c, 3, 61, 0
1, 43224, Note_on_c, 3, 59, 67
1, 43224, Note_on_c, 9, 42, 29
1, 43227, Note_off_c, 9, 42, 0
1, 43246, Note_off_c, 8, 73, 0
1, 43246, Note_off_c, 12, 73, 0
1, 43246, Note_off_c, 4, 57, 0
1, 43246, Note_off_c, 3, 59, 0
1, 43248, Note_on_c, 2, 62, 78
1, 43248, Note_on_c, 2, 71, 78
1, 43248, Note_on_c, 4, 64, 44
1, 43248, Note_on_c, 4, 69, 44
1, 43248, Note_on_c, 4, 73, 44
1, 43248, Note_on_c, 8, 66, 79
1, 43248, Note_on_c, 9, 42, 79
1, 43248, Note_on_c, 12, 66, 96
1, 43250, Note_off_c, 11, 64, 0
1, 43251, Note_off_c, 9, 42, 0
1, 43256, Note_off_c, 11, 61, 0
1, 43264, Control_c, 1, 11, 46
1, 43264, Control_c, 2, 11, 21
1, 43264, Control_c, 3, 11, 46
1, 43264, Control_c, 4, 11, 46
1, 43264, Control_c, 8, 11, 25
1, 43264, Control_c, 9, 11, 46
1, 43264, Control_c, 11, 11, 28
1, 43264, Control_c, 12, 11, 25
1, 43270, Note_off_c, 1, 33, 0
1, 43270, Note_off_c, 2, 62, 0
1, 43270, Note_off_c, 2, 71, 0
1, 43272, Note_on_c, 2, 64, 125
1, 43272, Note_on_c, 2, 69, 125
1, 43272, Note_on_c, 2, 73, 125
1, 43272, Note_on_c, 3, 57, 67
1, 43272, Note_on_c, 9, 37, 83
1, 43272, Note_on_c, 11, 57, 84
1, 43272, Note_on_c, 11, 61, 86
1, 43275, Note_off_c, 9, 37, 0
1, 43293, Note_off_c, 3, 57, 0
1, 43294, Note_off_c, 4, 64, 0
1, 43294, Note_off_c, 4, 69, 0
1, 43294, Note_off_c, 4, 73, 0
1, 43294, Note_off_c, 8, 66, 0
1, 43294, Note_off_c, 12, 66, 0
1, 43296, Note_on_c, 1, 33, 74
1, 43296, Note_on_c, 4, 57, 44
1, 43296, Note_on_c, 9, 35, 74
1, 43296, Note_on_c, 9, 42, 39
1, 43296, Note_on_c, 9, 59, 39
1, 43299, Note_off_c, 9, 35, 0
1, 43299, Note_off_c, 9, 42, 0
1, 43299, Note_off_c, 9, 59, 0
1, 43315, Note_off_c, 11, 57, 0
1, 43318, Note_off_c, 11, 61, 0
1, 43320, Note_on_c, 3, 59, 67
1, 43320, Note_on_c, 9, 42, 29
1, 43323, Note_off_c, 9, 42, 0
1, 43328, Control_c, 1, 11, 44
1, 43328, Control_c, 2, 11, 21
1, 43328, Control_c, 3, 11, 44
1, 43328, Control_c, 4, 11, 44
1, 43328, Control_c, 8, 11, 25
1, 43328, Control_c, 9, 11, 44
1, 43328, Control_c, 11, 11, 28
1, 43328, Control_c, 12, 11, 25
1, 43342, Note_off_c, 2, 64, 0
1, 43342, Note_off_c, 2, 69, 0
1, 43342, Note_off_c, 2, 73, 0
1, 43342, Note_off_c, 4, 57, 0
1, 43344, Note_on_c, 2, 62, 78
1, 43344, Note_on_c, 2, 71, 78
1, 43344, Note_on_c, 4, 64, 44
1, 43344, Note_on_c, 4, 69, 44
1, 43344, Note_on_c, 4, 73, 44
1, 43344, Note_on_c, 9, 37, 83
1, 43344, Note_on_c, 9, 42, 79
1, 43344, Note_on_c, 11, 59, 79
1, 43344, Note_on_c, 11, 62, 84
1, 43347, Note_off_c, 9, 37, 0
1, 43347, Note_off_c, 9, 42, 0
1, 43366, Note_off_c, 1, 33, 0
1, 43366, Note_off_c, 2, 62, 0
1, 43366, Note_off_c, 2, 71, 0
1, 43370, Note_off_c, 3, 59, 0
1, 43390, Note_off_c, 4, 64, 0
1, 43390, Note_off_c, 4, 69, 0
1, 43390, Note_off_c, 4, 73, 0
1, 43392, Control_c, 1, 11, 42
1, 43392, Control_c, 2, 11, 19
1, 43392, Control_c, 3, 11, 42
1, 43392, Control_c, 4, 11, 42
1, 43392, Control_c, 8, 11, 23
1, 43392, Control_c, 9, 11, 42
1, 43392, Control_c, 11, 11, 26
1, 43392, Control_c, 12, 11, 23
1, 43392, Note_on_c, 1, 35, 74
1, 43392, Note_on_c, 2, 64, 98
1, 43392, Note_on_c, 2, 69, 98
1, 43392, Note_on_c, 2, 73, 98
1, 43392, Note_on_c, 3, 59, 67
1, 43392, Note_on_c, 4, 59, 44
1, 43392, Note_on_c, 9, 42, 39
1, 43395, Note_off_c, 9, 42, 0
1, 43403, Note_off_c, 2, 64, 0
1, 43403, Note_off_c, 2, 69, 0
1, 43403, Note_off_c, 2, 73, 0
1, 43416, Note_on_c, 2, 62, 78
1, 43416, Note_on_c, 2, 71, 78
1, 43416, Note_on_c, 9, 42, 29
1, 43419, Note_off_c, 9, 42, 0
1, 43438, Note_off_c, 4, 59, 0
1, 43438, Note_off_c, 2, 62, 0
1, 43438, Note_off_c, 2, 71, 0
1, 43440, Note_on_c, 2, 64, 125
1, 43440, Note_on_c, 2, 69, 125
1, 43440, Note_on_c, 2, 73, 125
1, 43440, Note_on_c, 4, 66, 44
1, 43440, Note_on_c, 4, 71, 44
1, 43440, Note_on_c, 4, 74, 44
1, 43440, Pitch_bend_c, 8, 3969
1, 43440, Note_on_c, 8, 74, 109
1, 43440, Note_on_c, 9, 42, 79
1, 43440, Pitch_bend_c, 12, 3969
1, 43440, Note_on_c, 12, 74, 104
1, 43443, Note_off_c, 9, 42, 0
1, 43452, Pitch_bend_c, 8, 7937
1, 43452, Pitch_bend_c, 12, 7937
1, 43456, Control_c, 1, 11, 40
1, 43456, Control_c, 2, 11, 19
1, 43456, Control_c, 3, 11, 40
1, 43456, Control_c, 4, 11, 40
1, 43456, Control_c, 8, 11, 22
1, 43456, Control_c, 9, 11, 40
1, 43456, Control_c, 11, 11, 25
1, 43456, Control_c, 12, 11, 22
1, 43486, Note_off_c, 4, 66, 0
1, 43486, Note_off_c, 4, 71, 0
1, 43486, Note_off_c, 4, 74, 0
1, 43488, Note_on_c, 9, 35, 74
1, 43488, Note_on_c, 9, 37, 83
1, 43488, Note_on_c, 9, 42, 39
1, 43491, Note_off_c, 9, 35, 0
1, 43491, Note_off_c, 9, 37, 0
1, 43491, Note_off_c, 9, 42, 0
1, 43510, Note_off_c, 8, 74, 0
1, 43510, Note_off_c, 12, 74, 0
1, 43512, Note_on_c, 8, 71, 79
1, 43512, Note_on_c, 9, 42, 29
1, 43512, Note_on_c, 12, 71, 96
1, 43515, Note_off_c, 9, 42, 0
1, 43520, Control_c, 1, 11, 38
1, 43520, Control_c, 2, 11, 18
1, 43520, Control_c, 3, 11, 38
1, 43520, Control_c, 4, 11, 38
1, 43520, Control_c, 8, 11, 21
1, 43520, Control_c, 9, 11, 38
1, 43520, Control_c, 11, 11, 24
1, 43520, Control_c, 12, 11, 21
1, 43534, Note_off_c, 2, 64, 0
1, 43534, Note_off_c, 2, 69, 0
1, 43534, Note_off_c, 2, 73, 0
1, 43536, Note_on_c, 2, 62, 78
1, 43536, Note_on_c, 2, 71, 78
1, 43536, Note_on_c, 4, 66, 44
1, 43536, Note_on_c, 4, 71, 44
1, 43536, Note_on_c, 4, 74, 44
1, 43536, Note_on_c, 9, 42, 79
1, 43536, Note_on_c, 9, 59, 39
1, 43539, Note_off_c, 9, 42, 0
1, 43539, Note_off_c, 9, 59, 0
1, 43558, Note_off_c, 1, 35, 0
1, 43558, Note_off_c, 2, 62, 0
1, 43558, Note_off_c, 2, 71, 0
1, 43560, Note_on_c, 1, 30, 74
1, 43560, Note_on_c, 9, 37, 83
1, 43563, Note_off_c, 9, 37, 0
1, 43582, Note_off_c, 4, 66, 0
1, 43582, Note_off_c, 4, 71, 0
1, 43582, Note_off_c, 4, 74, 0
1, 43582, Note_off_c, 1, 30, 0
1, 43584, Control_c, 1, 11, 36
1, 43584, Control_c, 2, 11, 16
1, 43584, Control_c, 3, 11, 36
1, 43584, Control_c, 4, 11, 36
1, 43584, Control_c, 8, 11, 19
1, 43584, Control_c, 9, 11, 36
1, 43584, Control_c, 11, 11, 22
1, 43584, Control_c, 12, 11, 19
1, 43584, Note_on_c, 1, 35, 74
1, 43584, Note_on_c, 2, 64, 125
1, 43584, Note_on_c, 2, 69, 125
1, 43584, Note_on_c, 2, 73, 125
1, 43584, Note_on_c, 4, 59, 44
1, 43584, Note_on_c, 9, 42, 39
1, 43587, Note_off_c, 9, 42, 0
1, 43595, Note_off_c, 2, 64, 0
1, 43595, Note_off_c, 2, 69, 0
1, 43595, Note_off_c, 2, 73, 0
1, 43608, Note_on_c, 9, 42, 29
1, 43611, Note_off_c, 9, 42, 0
1, 43616, Note_off_c, 11, 62, 0
1, 43619, Note_off_c, 11, 59, 0
1, 43623, Note_off_c, 3, 59, 0
1, 43630, Note_off_c, 8, 71, 0
1, 43630, Note_off_c, 12, 71, 0
1, 43630, Note_off_c, 4, 59, 0
1, 43632, Note_on_c, 2, 62, 78
1, 43632, Note_on_c, 2, 71, 78
1, 43632, Note_on_c, 4, 66, 44
1, 43632, Note_on_c, 4, 71, 44
1, 43632, Note_on_c, 4, 74, 44
1, 43632, Note_on_c, 9, 42, 79
1, 43635, Note_off_c, 9, 42, 0
1, 43648, Control_c, 1, 11, 34
1, 43648, Control_c, 2, 11, 16
1, 43648, Control_c, 3, 11, 34
1, 43648, Control_c, 4, 11, 34
1, 43648, Control_c, 8, 11, 18
1, 43648, Control_c, 9, 11, 34
1, 43648, Control_c, 11, 11, 21
1, 43648, Control_c, 12, 11, 18
1, 43654, Note_off_c, 2, 62, 0
1, 43654, Note_off_c, 2, 71, 0
1, 43656, Note_on_c, 2, 64, 125
1, 43656, Note_on_c, 2, 69, 125
1, 43656, Note_on_c, 2, 73, 125
1, 43678, Note_off_c, 1, 35, 0
1, 43678, Note_off_c, 4, 66, 0
1, 43678, Note_off_c, 4, 71, 0
1, 43678, Note_off_c, 4, 74, 0
1, 43680, Note_on_c, 1, 33, 74
1, 43680, Note_on_c, 3, 59, 67
1, 43680, Note_on_c, 4, 57, 44
1, 43680, Note_on_c, 9, 35, 74
1, 43680, Note_on_c, 9, 37, 83
1, 43680, Note_on_c, 9, 42, 39
1, 43680, Note_on_c, 11, 66, 90
1, 43680, Note_on_c, 11, 69, 90
1, 43683, Note_off_c, 9, 35, 0
1, 43683, Note_off_c, 9, 37, 0
1, 43683, Note_off_c, 9, 42, 0
1, 43701, Note_off_c, 3, 59, 0
1, 43704, Note_on_c, 3, 61, 67
1, 43704, Note_on_c, 8, 69, 69
1, 43704, Note_on_c, 9, 42, 29
1, 43704, Note_on_c, 12, 69, 94
1, 43707, Note_off_c, 9, 42, 0
1, 43712, Control_c, 1, 11, 32
1, 43712, Control_c, 2, 11, 15
1, 43712, Control_c, 3, 11, 32
1, 43712, Control_c, 4, 11, 32
1, 43712, Control_c, 8, 11, 18
1, 43712, Control_c, 9, 11, 32
1, 43712, Control_c, 11, 11, 20
1, 43712, Control_c, 12, 11, 18
1, 43721, Note_off_c, 3, 61, 0
1, 43726, Note_off_c, 2, 64, 0
1, 43726, Note_off_c, 2, 69, 0
1, 43726, Note_off_c, 2, 73, 0
1, 43726, Note_off_c, 4, 57, 0
1, 43726, Note_off_c, 8, 69, 0
1, 43726, Note_off_c, 12, 69, 0
1, 43728, Note_on_c, 2, 62, 78
1, 43728, Note_on_c, 2, 71, 78
1, 43728, Note_on_c, 4, 64, 44
1, 43728, Note_on_c, 4, 69, 44
1, 43728, Note_on_c, 4, 73, 44
1, 43728, Note_on_c, 8, 71, 109
1, 43728, Note_on_c, 9, 42, 79
1, 43728, Note_on_c, 12, 71, 104
1, 43731, Note_off_c, 9, 42, 0
1, 43750, Note_off_c, 1, 33, 0
1, 43750, Note_off_c, 2, 62, 0
1, 43750, Note_off_c, 2, 71, 0
1, 43750, Note_off_c, 8, 71, 0
1, 43750, Note_off_c, 12, 71, 0
1, 43752, Note_on_c, 1, 35, 74
1, 43752, Note_on_c, 3, 62, 67
1, 43752, Note_on_c, 8, 74, 69
1, 43752, Note_on_c, 12, 74, 94
1, 43765, Note_off_c, 11, 66, 0
1, 43765, Note_off_c, 11, 69, 0
1, 43774, Note_off_c, 4, 64, 0
1, 43774, Note_off_c, 4, 69, 0
1, 43774, Note_off_c, 4, 73, 0
1, 43774, Note_off_c, 1, 35, 0
1, 43774, Note_off_c, 8, 74, 0
1, 43774, Note_off_c, 12, 74, 0
1, 43776, Control_c, 1, 11, 30
1, 43776, Control_c, 2, 11, 14
1, 43776, Control_c, 3, 11, 30
1, 43776, Control_c, 4, 11, 30
1, 43776, Control_c, 8, 11, 17
1, 43776, Control_c, 9, 11, 30
1, 43776, Control_c, 11, 11, 19
1, 43776, Control_c, 12, 11, 17
1, 43776, Note_on_c, 1, 28, 74
1, 43776, Note_on_c, 4, 52, 44
1, 43776, Note_on_c, 8, 76, 109
1, 43776, Note_on_c, 9, 42, 39
1, 43776, Note_on_c, 11, 62, 83
1, 43776, Note_on_c, 11, 66, 83
1, 43776, Note_on_c, 12, 76, 104
1, 43779, Note_off_c, 9, 42, 0
1, 43798, Note_off_c, 8, 76, 0
1, 43798, Note_off_c, 12, 76, 0
1, 43800, Note_on_c, 9, 42, 29
1, 43803, Note_off_c, 9, 42, 0
1, 43818, Note_off_c, 11, 62, 0
1, 43818, Note_off_c, 11, 66, 0
1, 43822, Note_off_c, 4, 52, 0
1, 43824, Note_on_c, 4, 62, 44
1, 43824, Note_on_c, 4, 67, 44
1, 43824, Note_on_c, 4, 71, 44
1, 43824, Pitch_bend_c, 8, 129
1, 43824, Note_on_c, 8, 78, 109
1, 43824, Note_on_c, 9, 42, 79
1, 43824, Pitch_bend_c, 12, 129
1, 43824, Note_on_c, 12, 78, 104
1, 43827, Note_off_c, 9, 42, 0
1, 43836, Pitch_bend_c, 8, 4097
1, 43836, Pitch_bend_c, 12, 4097
1, 43840, Control_c, 1, 11, 28
1, 43840, Control_c, 2, 11, 13
1, 43840, Control_c, 3, 11, 28
1, 43840, Control_c, 4, 11, 28
1, 43840, Control_c, 8, 11, 15
1, 43840, Control_c, 9, 11, 28
1, 43840, Control_c, 11, 11, 17
1, 43840, Control_c, 12, 11, 15
1, 43848, Pitch_bend_c, 8, 8193
1, 43848, Pitch_bend_c, 12, 8193
1, 43868, Note_off_c, 3, 62, 0
1, 43870, Note_off_c, 4, 62, 0
1, 43870, Note_off_c, 4, 67, 0
1, 43870, Note_off_c, 4, 71, 0
1, 43872, Note_on_c, 2, 64, 125
1, 43872, Note_on_c, 2, 69, 125
1, 43872, Note_on_c, 2, 73, 125
1, 43872, Note_on_c, 9, 35, 74
1, 43872, Note_on_c, 9, 42, 39
1, 43872, Note_on_c, 11, 62, 85
1, 43872, Note_on_c, 11, 66, 90
1, 43875, Note_off_c, 9, 35, 0
1, 43875, Note_off_c, 9, 42, 0
1, 43891, Note_off_c, 11, 62, 0
1, 43893, Note_off_c, 11, 66, 0
1, 43896, Note_on_c, 9, 42, 29
1, 43899, Note_off_c, 9, 42, 0
1, 43904, Control_c, 1, 11, 26
1, 43904, Control_c, 2, 11, 12
1, 43904, Control_c, 3, 11, 26
1, 43904, Control_c, 4, 11, 26
1, 43904, Control_c, 8, 11, 14
1, 43904, Control_c, 9, 11, 26
1, 43904, Control_c, 11, 11, 16
1, 43904, Control_c, 12, 11, 14
1, 43918, Note_off_c, 8, 78, 0
1, 43918, Note_off_c, 12, 78, 0
1, 43918, Note_off_c, 2, 64, 0
1, 43918, Note_off_c, 2, 69, 0
1, 43918, Note_off_c, 2, 73, 0
1, 43920, Note_on_c, 2, 62, 78
1, 43920, Note_on_c, 2, 71, 78
1, 43920, Note_on_c, 3, 62, 67
1, 43920, Note_on_c, 4, 62, 44
1, 43920, Note_on_c, 4, 67, 44
1, 43920, Note_on_c, 4, 71, 44
1, 43920, Note_on_c, 8, 74, 69
1, 43920, Note_on_c, 9, 37, 83
1, 43920, Note_on_c, 9, 42, 79
1, 43920, Note_on_c, 9, 59, 39
1, 43920, Note_on_c, 11, 62, 72
1, 43920, Note_on_c, 11, 66, 87
1, 43920, Note_on_c, 12, 74, 94
1, 43923, Note_off_c, 9, 37, 0
1, 43923, Note_off_c, 9, 42, 0
1, 43923, Note_off_c, 9, 59, 0
1, 43932, Note_off_c, 11, 62, 0
1, 43932, Note_off_c, 11, 66, 0
1, 43942, Note_off_c, 8, 74, 0
1, 43942, Note_off_c, 12, 74, 0
1, 43944, Note_on_c, 8, 71, 69
1, 43944, Note_on_c, 11, 62, 80
1, 43944, Note_on_c, 11, 66, 87
1, 43944, Note_on_c, 12, 71, 94
1, 43945, Note_off_c, 3, 62, 0
1, 43966, Note_off_c, 1, 28, 0
1, 43966, Note_off_c, 2, 62, 0
1, 43966, Note_off_c, 2, 71, 0
1, 43966, Note_off_c, 4, 62, 0
1, 43966, Note_off_c, 4, 67, 0
1, 43966, Note_off_c, 4, 71, 0
1, 43966, Note_off_c, 8, 71, 0
1, 43966, Note_off_c, 12, 71, 0
1, 43968, Control_c, 1, 11, 24
1, 43968, Control_c, 2, 11, 11
1, 43968, Control_c, 3, 11, 24
1, 43968, Control_c, 4, 11, 24
1, 43968, Control_c, 8, 11, 13
1, 43968, Control_c, 9, 11, 24
1, 43968, Control_c, 11, 11, 15
1, 43968, Control_c, 12, 11, 13
1, 43968, Note_on_c, 1, 33, 74
1, 43968, Note_on_c, 2, 64, 125
1, 43968, Note_on_c, 2, 69, 125
1, 43968, Note_on_c, 2, 73, 125
1, 43968, Note_on_c, 3, 61, 67
1, 43968, Note_on_c, 4, 57, 44
1, 43968, Pitch_bend_c, 8, 129
1, 43968, Note_on_c, 8, 76, 109
1, 43968, Note_on_c, 9, 42, 39
1, 43968, Pitch_bend_c, 12, 129
1, 43968, Note_on_c, 12, 76, 104
1, 43971, Note_off_c, 9, 42, 0
1, 43982, Note_off_c, 11, 62, 0
1, 43989, Note_off_c, 11, 66, 0
1, 43990, Note_off_c, 2, 64, 0
1, 43990, Note_off_c, 2, 69, 0
1, 43990, Note_off_c, 2, 73, 0
1, 43990, Note_off_c, 3, 61, 0
1, 43992, Note_on_c, 3, 59, 67
1, 43992, Pitch_bend_c, 8, 8193
1, 43992, Note_on_c, 9, 42, 29
1, 43992, Note_on_c, 11, 61, 88
1, 43992, Note_on_c, 11, 64, 79
1, 43992, Pitch_bend_c, 12, 8193
1, 43995, Note_off_c, 9, 42, 0
1, 44008, Note_off_c, 11, 64, 0
1, 44009, Note_off_c, 11, 61, 0
1, 44014, Note_off_c, 4, 57, 0
1, 44014, Note_off_c, 8, 76, 0
1, 44014, Note_off_c, 12, 76, 0
1, 44016, Note_on_c, 2, 62, 78
1, 44016, Note_on_c, 2, 71, 78
1, 44016, Note_on_c, 4, 64, 44
1, 44016, Note_on_c, 4, 69, 44
1, 44016, Note_on_c, 4, 73, 44
1, 44016, Note_on_c, 8, 76, 109
1, 44016, Note_on_c, 9, 42, 79
1, 44016, Note_on_c, 11, 59, 82
1, 44016, Note_on_c, 11, 62, 83
1, 44016, Note_on_c, 12, 76, 104
1, 44017, Note_off_c, 3, 59, 0
1, 44019, Note_off_c, 9, 42, 0
1, 44032, Control_c, 1, 11, 22
1, 44032, Control_c, 2, 11, 10
1, 44032, Control_c, 3, 11, 22
1, 44032, Control_c, 4, 11, 22
1, 44032, Control_c, 8, 11, 11
1, 44032, Control_c, 9, 11, 22
1, 44032, Control_c, 11, 11, 13
1, 44032, Control_c, 12, 11, 11
1, 44038, Note_off_c, 2, 62, 0
1, 44038, Note_off_c, 2, 71, 0
1, 44040, Note_on_c, 2, 64, 125
1, 44040, Note_on_c, 2, 69, 125
1, 44040, Note_on_c, 2, 73, 125
1, 44040, Note_on_c, 3, 57, 67
1, 44048, Note_off_c, 11, 59, 0
1, 44048, Note_off_c, 11, 62, 0
1, 44061, Note_off_c, 3, 57, 0
1, 44062, Note_off_c, 4, 64, 0
1, 44062, Note_off_c, 4, 69, 0
1, 44062, Note_off_c, 4, 73, 0
1, 44064, Note_on_c, 4, 57, 44
1, 44064, Note_on_c, 9, 35, 74
1, 44064, Note_on_c, 9, 42, 39
1, 44067, Note_off_c, 9, 35, 0
1, 44067, Note_off_c, 9, 42, 0
1, 44088, Note_on_c, 3, 59, 67
1, 44088, Note_on_c, 9, 42, 29
1, 44091, Note_off_c, 9, 42, 0
1, 44096, Control_c, 1, 11, 20
1, 44096, Control_c, 2, 11, 9
1, 44096, Control_c, 3, 11, 20
1, 44096, Control_c, 4, 11, 20
1, 44096, Control_c, 8, 11, 10
1, 44096, Control_c, 9, 11, 20
1, 44096, Control_c, 11, 11, 12
1, 44096, Control_c, 12, 11, 10
1, 44110, Note_off_c, 8, 76, 0
1, 44110, Note_off_c, 12, 76, 0
1, 44110, Note_off_c, 2, 64, 0
1, 44110, Note_off_c, 2, 69, 0
1, 44110, Note_off_c, 2, 73, 0
1, 44110, Note_off_c, 4, 57, 0
1, 44112, Note_on_c, 2, 62, 78
1, 44112, Note_on_c, 2, 71, 78
1, 44112, Note_on_c, 4, 64, 44
1, 44112, Note_on_c, 4, 69, 44
1, 44112, Note_on_c, 4, 73, 44
1, 44112, Note_on_c, 9, 37, 83
1, 44112, Note_on_c, 9, 42, 79
1, 44115, Note_off_c, 9, 37, 0
1, 44115, Note_off_c, 9, 42, 0
1, 44134, Note_off_c, 2, 62, 0
1, 44134, Note_off_c, 2, 71, 0
1, 44136, Note_on_c, 8, 69, 69
1, 44136, Note_on_c, 12, 69, 94
1, 44137, Note_off_c, 3, 59, 0
1, 44158, Note_off_c, 1, 33, 0
1, 44158, Note_off_c, 4, 64, 0
1, 44158, Note_off_c, 4, 69, 0
1, 44158, Note_off_c, 4, 73, 0
1, 44158, Note_off_c, 8, 69, 0
1, 44158, Note_off_c, 12, 69, 0
1, 44160, Control_c, 1, 11, 18
1, 44160, Control_c, 2, 11, 8
1, 44160, Control_c, 3, 11, 18
1, 44160, Control_c, 4, 11, 18
1, 44160, Control_c, 8, 11, 9
1, 44160, Control_c, 9, 11, 18
1, 44160, Control_c, 11, 11, 11
1, 44160, Control_c, 12, 11, 9
1, 44160, Note_on_c, 1, 35, 74
1, 44160, Note_on_c, 2, 64, 98
1, 44160, Note_on_c, 2, 69, 98
1, 44160, Note_on_c, 2, 73, 98
1, 44160, Note_on_c, 3, 59, 67
1, 44160, Note_on_c, 4, 59, 44
1, 44160, Note_on_c, 8, 71, 99
1, 44160, Note_on_c, 9, 42, 39
1, 44160, Note_on_c, 11, 61, 89
1, 44160, Note_on_c, 11, 64, 84
1, 44160, Note_on_c, 12, 71, 101
1, 44163, Note_off_c, 9, 42, 0
1, 44171, Note_off_c, 2, 64, 0
1, 44171, Note_off_c, 2, 69, 0
1, 44171, Note_off_c, 2, 73, 0
1, 44178, Note_off_c, 11, 61, 0
1, 44180, Note_off_c, 11, 64, 0
1, 44182, Note_off_c, 8, 71, 0
1, 44182, Note_off_c, 12, 71, 0
1, 44184, Note_on_c, 2, 62, 78
1, 44184, Note_on_c, 2, 71, 78
1, 44184, Note_on_c, 8, 74, 79
1, 44184, Note_on_c, 9, 42, 29
1, 44184, Note_on_c, 12, 74, 96
1, 44187, Note_off_c, 9, 42, 0
1, 44206, Note_off_c, 4, 59, 0
1, 44206, Note_off_c, 2, 62, 0
1, 44206, Note_off_c, 2, 71, 0
1, 44206, Note_off_c, 8, 74, 0
1, 44206, Note_off_c, 12, 74, 0
1, 44208, Note_on_c, 2, 64, 125
1, 44208, Note_on_c, 2, 69, 125
1, 44208, Note_on_c, 2, 73, 125
1, 44208, Note_on_c, 4, 66, 44
1, 44208, Note_on_c, 4, 71, 44
1, 44208, Note_on_c, 4, 74, 44
1, 44208, Note_on_c, 8, 76, 79
1, 44208, Note_on_c, 9, 42, 79
1, 44208, Note_on_c, 11, 61, 81
1, 44208, Note_on_c, 11, 64, 79
1, 44208, Note_on_c, 12, 76, 96
1, 44211, Note_off_c, 9, 42, 0
1, 44223, Note_off_c, 11, 64, 0
1, 44224, Control_c, 1, 11, 15
1, 44224, Control_c, 2, 11, 7
1, 44224, Control_c, 3, 11, 15
1, 44224, Control_c, 4, 11, 15
1, 44224, Control_c, 8, 11, 8
1, 44224, Control_c, 9, 11, 15
1, 44224, Control_c, 11, 11, 9
1, 44224, Control_c, 12, 11, 8
1, 44230, Note_off_c, 8, 76, 0
1, 44230, Note_off_c, 12, 76, 0
1, 44232, Pitch_bend_c, 8, 129
1, 44232, Note_on_c, 8, 78, 109
1, 44232, Note_on_c, 11, 64, 81
1, 44232, Note_on_c, 11, 67, 85
1, 44232, Pitch_bend_c, 12, 129
1, 44232, Note_on_c, 12, 78, 104
1, 44233, Note_off_c, 11, 61, 0
1, 44244, Pitch_bend_c, 8, 3969
1, 44244, Pitch_bend_c, 12, 3969
1, 44249, Note_off_c, 11, 64, 0
1, 44253, Note_off_c, 11, 67, 0
1, 44254, Note_off_c, 4, 66, 0
1, 44254, Note_off_c, 4, 71, 0
1, 44254, Note_off_c, 4, 74, 0
1, 44256, Pitch_bend_c, 8, 8193
1, 44256, Note_on_c, 9, 35, 74
1, 44256, Note_on_c, 9, 37, 83
1, 44256, Note_on_c, 9, 42, 39
1, 44256, Pitch_bend_c, 12, 8193
1, 44259, Note_off_c, 9, 35, 0
1, 44259, Note_off_c, 9, 37, 0
1, 44259, Note_off_c, 9, 42, 0
1, 44278, Note_off_c, 8, 78, 0
1, 44278, Note_off_c, 12, 78, 0
1, 44280, Note_on_c, 8, 79, 79
1, 44280, Note_on_c, 9, 42, 29
1, 44280, Note_on_c, 11, 64, 78
1, 44280, Note_on_c, 11, 67, 83
1, 44280, Note_on_c, 12, 79, 96
1, 44283, Note_off_c, 9, 42, 0
1, 44288, Control_c, 1, 11, 12
1, 44288, Control_c, 2, 11, 5
1, 44288, Control_c, 3, 11, 12
1, 44288, Control_c, 4, 11, 12
1, 44288, Control_c, 8, 11, 6
1, 44288, Control_c, 9, 11, 12
1, 44288, Control_c, 11, 11, 7
1, 44288, Control_c, 12, 11, 6
1, 44302, Note_off_c, 2, 64, 0
1, 44302, Note_off_c, 2, 69, 0
1, 44302, Note_off_c, 2, 73, 0
1, 44302, Note_off_c, 8, 79, 0
1, 44302, Note_off_c, 12, 79, 0
1, 44304, Note_on_c, 2, 62, 78
1, 44304, Note_on_c, 2, 71, 78
1, 44304, Note_on_c, 4, 66, 44
1, 44304, Note_on_c, 4, 71, 44
1, 44304, Note_on_c, 4, 74, 44
1, 44304, Pitch_bend_c, 8, 641
1, 44304, Note_on_c, 8, 78, 109
1, 44304, Note_on_c, 9, 42, 79
1, 44304, Note_on_c, 9, 59, 39
1, 44304, Pitch_bend_c, 12, 641
1, 44304, Note_on_c, 12, 78, 104
1, 44305, Note_off_c, 11, 67, 0
1, 44306, Note_off_c, 11, 64, 0
1, 44307, Note_off_c, 9, 42, 0
1, 44307, Note_off_c, 9, 59, 0
1, 44316, Pitch_bend_c, 8, 8193
1, 44316, Pitch_bend_c, 12, 8193
1, 44326, Note_off_c, 2, 62, 0
1, 44326, Note_off_c, 2, 71, 0
1, 44328, Note_on_c, 9, 37, 83
1, 44328, Note_on_c, 11, 62, 82
1, 44328, Note_on_c, 11, 66, 85
1, 44331, Note_off_c, 9, 37, 0
1, 44350, Note_off_c, 4, 66, 0
1, 44350, Note_off_c, 4, 71, 0
1, 44350, Note_off_c, 4, 74, 0
1, 44350, Note_off_c, 8, 78, 0
1, 44350, Note_off_c, 12, 78, 0
1, 44352, Control_c, 1, 11, 9
1, 44352, Control_c, 2, 11, 4
1, 44352, Control_c, 3, 11, 9
1, 44352, Control_c, 4, 11, 9
1, 44352, Control_c, 8, 11, 4
1, 44352, Control_c, 9, 11, 9
1, 44352, Control_c, 11, 11, 5
1, 44352, Control_c, 12, 11, 4
1, 44352, Note_on_c, 2, 64, 125
1, 44352, Note_on_c, 2, 69, 125
1, 44352, Note_on_c, 2, 73, 125
1, 44352, Note_on_c, 4, 59, 44
1, 44352, Note_on_c, 9, 42, 39
1, 44355, Note_off_c, 9, 42, 0
1, 44363, Note_off_c, 2, 64, 0
1, 44363, Note_off_c, 2, 69, 0
1, 44363, Note_off_c, 2, 73, 0
1, 44367, Note_off_c, 11, 66, 0
1, 44370, Note_off_c, 11, 62, 0
1, 44376, Note_on_c, 8, 69, 69
1, 44376, Note_on_c, 9, 42, 29
1, 44376, Note_on_c, 11, 61, 79
1, 44376, Note_on_c, 11, 64, 77
1, 44376, Note_on_c, 12, 69, 94
1, 44379, Note_off_c, 9, 42, 0
1, 44380, Note_off_c, 3, 59, 0
1, 44396, Note_off_c, 11, 64, 0
1, 44398, Note_off_c, 4, 59, 0
1, 44398, Note_off_c, 8, 69, 0
1, 44398, Note_off_c, 11, 61, 0
1, 44398, Note_off_c, 12, 69, 0
1, 44400, Note_on_c, 2, 62, 78
1, 44400, Note_on_c, 2, 71, 78
1, 44400, Note_on_c, 4, 66, 44
1, 44400, Note_on_c, 4, 71, 44
1, 44400, Note_on_c, 4, 74, 44
1, 44400, Note_on_c, 8, 71, 99
1, 44400, Note_on_c, 9, 37, 83
1, 44400, Note_on_c, 9, 42, 79
1, 44400, Note_on_c, 11, 59, 81
1, 44400, Note_on_c, 11, 62, 78
1, 44400, Note_on_c, 12, 71, 101
1, 44403, Note_off_c, 9, 37, 0
1, 44403, Note_off_c, 9, 42, 0
1, 44416, Control_c, 1, 11, 6
1, 44416, Control_c, 2, 11, 2
1, 44416, Control_c, 3, 11, 6
1, 44416, Control_c, 4, 11, 6
1, 44416, Control_c, 8, 11, 2
1, 44416, Control_c, 9, 11, 6
1, 44416, Control_c, 11, 11, 3
1, 44416, Control_c, 12, 11, 2
1, 44421, Note_off_c, 11, 62, 0
1, 44422, Note_off_c, 2, 62, 0
1, 44422, Note_off_c, 2, 71, 0
1, 44422, Note_off_c, 8, 71, 0
1, 44422, Note_off_c, 12, 71, 0
1, 44424, Note_on_c, 2, 64, 125
1, 44424, Note_on_c, 2, 69, 125
1, 44424, Note_on_c, 2, 73, 125
1, 44424, Note_on_c, 8, 74, 69
1, 44424, Note_on_c, 12, 74, 94
1, 44426, Note_off_c, 11, 59, 0
1, 44446, Note_off_c, 4, 66, 0
1, 44446, Note_off_c, 4, 71, 0
1, 44446, Note_off_c, 4, 74, 0
1, 44446, Note_off_c, 8, 74, 0
1, 44446, Note_off_c, 12, 74, 0
1, 44448, Note_on_c, 3, 59, 67
1, 44448, Note_on_c, 4, 57, 44
1, 44448, Note_on_c, 8, 74, 99
1, 44448, Note_on_c, 9, 35, 74
1, 44448, Note_on_c, 9, 42, 39
1, 44448, Note_on_c, 9, 54, 39
1, 44448, Note_on_c, 11, 59, 78
1, 44448, Note_on_c, 11, 62, 81
1, 44448, Note_on_c, 12, 74, 101
1, 44451, Note_off_c, 9, 35, 0
1, 44451, Note_off_c, 9, 42, 0
1, 44451, Note_off_c, 9, 54, 0
1, 44469, Note_off_c, 3, 59, 0
1, 44470, Note_off_c, 8, 74, 0
1, 44470, Note_off_c, 12, 74, 0
1, 44471, Note_off_c, 11, 62, 0
1, 44472, Note_on_c, 3, 61, 67
1, 44472, Note_on_c, 8, 76, 109
1, 44472, Note_on_c, 9, 42, 29
1, 44472, Note_on_c, 12, 76, 104
1, 44475, Note_off_c, 9, 42, 0
1, 44479, Note_off_c, 11, 59, 0
1, 44480, Control_c, 1, 11, 3
1, 44480, Control_c, 2, 11, 1
1, 44480, Control_c, 3, 11, 3
1, 44480, Control_c, 4, 11, 3
1, 44480, Control_c, 8, 11, 0
1, 44480, Control_c, 9, 11, 3
1, 44480, Control_c, 11, 11, 1
1, 44480, Control_c, 12, 11, 0
1, 44491, Note_off_c, 3, 61, 0
1, 44494, Note_off_c, 2, 64, 0
1, 44494, Note_off_c, 2, 69, 0
1, 44494, Note_off_c, 2, 73, 0
1, 44494, Note_off_c, 4, 57, 0
1, 44494, Note_off_c, 8, 76, 0
1, 44494, Note_off_c, 12, 76, 0
1, 44496, Note_on_c, 2, 62, 78
1, 44496, Note_on_c, 2, 71, 78
1, 44496, Note_on_c, 4, 64, 44
1, 44496, Note_on_c, 4, 69, 44
1, 44496, Note_on_c, 4, 73, 44
1, 44496, Note_on_c, 9, 37, 83
1, 44496, Note_on_c, 9, 42, 79
1, 44496, Note_on_c, 9, 56, 59
1, 44496, Note_on_c, 11, 61, 80
1, 44496, Note_on_c, 11, 64, 81
1, 44499, Note_off_c, 9, 37, 0
1, 44499, Note_off_c, 9, 42, 0
1, 44499, Note_off_c, 9, 56, 0
1, 44518, Note_off_c, 2, 62, 0
1, 44518, Note_off_c, 2, 71, 0
1, 44520, Note_on_c, 3, 62, 67
1, 44520, Note_on_c, 8, 76, 109
1, 44520, Note_on_c, 12, 76, 104
1, 44521, Note_off_c, 11, 64, 0
1, 44522, Note_off_c, 11, 61, 0
1, 44542, Note_off_c, 1, 35, 0
1, 44542, Note_off_c, 4, 64, 0
1, 44542, Note_off_c, 4, 69, 0
1, 44542, Note_off_c, 4, 73, 0
1, 44542, Note_off_c, 8, 76, 0
1, 44542, Note_off_c, 12, 76, 0
1, 44544, Control_c, 1, 11, 0
1, 44544, Control_c, 2, 11, 0
1, 44544, Control_c, 3, 11, 0
1, 44544, Control_c, 4, 11, 0
1, 44544, Control_c, 8, 11, 0
1, 44544, Control_c, 9, 11, 0
1, 44544, Control_c, 11, 11, 0
1, 44544, Control_c, 12, 11, 0
1, 44619, Note_off_c, 3, 62, 0
1, 44619, End_track
0, 0, End_of_file
