0, 0, Header, 1, 5, 960
1, 0, Start_track
1, 0, Control_c, 0, 101, 0
1, 0, Control_c, 0, 100, 0
1, 0, Control_c, 0, 6, 12
1, 0, Control_c, 0, 38, 0
1, 0, Control_c, 1, 101, 0
1, 0, Control_c, 1, 100, 0
1, 0, Control_c, 1, 6, 12
1, 0, Control_c, 1, 38, 0
1, 0, Control_c, 2, 101, 0
1, 0, Control_c, 2, 100, 0
1, 0, Control_c, 2, 6, 12
1, 0, Control_c, 2, 38, 0
1, 0, Control_c, 3, 101, 0
1, 0, Control_c, 3, 100, 0
1, 0, Control_c, 3, 6, 12
1, 0, Control_c, 3, 38, 0
1, 0, Control_c, 4, 101, 0
1, 0, Control_c, 4, 100, 0
1, 0, Control_c, 4, 6, 12
1, 0, Control_c, 4, 38, 0
1, 0, Control_c, 5, 101, 0
1, 0, Control_c, 5, 100, 0
1, 0, Control_c, 5, 6, 12
1, 0, Control_c, 5, 38, 0
1, 0, Control_c, 6, 101, 0
1, 0, Control_c, 6, 100, 0
1, 0, Control_c, 6, 6, 12
1, 0, Control_c, 6, 38, 0
1, 0, Control_c, 7, 101, 0
1, 0, Control_c, 7, 100, 0
1, 0, Control_c, 7, 6, 12
1, 0, Control_c, 7, 38, 0
1, 0, Control_c, 8, 101, 0
1, 0, Control_c, 8, 100, 0
1, 0, Control_c, 8, 6, 12
1, 0, Control_c, 8, 38, 0
1, 0, Control_c, 9, 101, 0
1, 0, Control_c, 9, 100, 0
1, 0, Control_c, 9, 6, 12
1, 0, Control_c, 9, 38, 0
1, 0, Control_c, 10, 101, 0
1, 0, Control_c, 10, 100, 0
1, 0, Control_c, 10, 6, 12
1, 0, Control_c, 10, 38, 0
1, 0, Control_c, 11, 101, 0
1, 0, Control_c, 11, 100, 0
1, 0, Control_c, 11, 6, 12
1, 0, Control_c, 11, 38, 0
1, 0, Control_c, 12, 101, 0
1, 0, Control_c, 12, 100, 0
1, 0, Control_c, 12, 6, 12
1, 0, Control_c, 12, 38, 0
1, 0, Control_c, 13, 101, 0
1, 0, Control_c, 13, 100, 0
1, 0, Control_c, 13, 6, 12
1, 0, Control_c, 13, 38, 0
1, 0, Control_c, 14, 101, 0
1, 0, Control_c, 14, 100, 0
1, 0, Control_c, 14, 6, 12
1, 0, Control_c, 14, 38, 0
1, 0, Control_c, 15, 101, 0
1, 0, Control_c, 15, 100, 0
1, 0, Control_c, 15, 6, 12
1, 0, Control_c, 15, 38, 0
1, 0, Time_signature, 4, 2, 24, 8
1, 0, Tempo, 571428
1, 103680, Tempo, 540540
1, 314880, Time_signature, 9, 3, 12, 8
1, 319200, Time_signature, 19, 4, 6, 8
1, 319200, End_track
2, 0, Start_track
2, 0, Pitch_bend_c, 0, 8192
2, 0, Control_c, 0, 7, 103
2, 0, Control_c, 0, 10, 63
2, 0, Control_c, 0, 93, 0
2, 0, Control_c, 0, 91, 0
2, 0, Control_c, 0, 95, 0
2, 0, Control_c, 0, 92, 0
2, 0, Control_c, 0, 11, 127
2, 0, Program_c, 0, 30
2, 0, Control_c, 1, 7, 103
2, 0, Control_c, 1, 10, 63
2, 0, Control_c, 1, 93, 0
2, 0, Control_c, 1, 91, 0
2, 0, Control_c, 1, 95, 0
2, 0, Control_c, 1, 92, 0
2, 0, Control_c, 1, 11, 127
2, 0, Program_c, 1, 30
2, 38880, Note_on_c, 0, 63, 95
2, 38880, Note_on_c, 0, 58, 95
2, 38880, Note_on_c, 0, 54, 95
2, 38932, Note_off_c, 0, 63, 95
2, 38932, Note_off_c, 0, 58, 95
2, 38932, Note_off_c, 0, 54, 95
2, 39120, Note_on_c, 0, 63, 95
2, 39120, Note_on_c, 0, 58, 95
2, 39120, Note_on_c, 0, 54, 95
2, 39172, Note_off_c, 0, 63, 95
2, 39172, Note_off_c, 0, 58, 95
2, 39172, Note_off_c, 0, 54, 95
2, 39360, Note_on_c, 0, 63, 95
2, 39360, Note_on_c, 0, 58, 95
2, 39360, Note_on_c, 0, 54, 95
2, 39412, Note_off_c, 0, 63, 95
2, 39412, Note_off_c, 0, 58, 95
2, 39412, Note_off_c, 0, 54, 95
2, 48960, Note_on_c, 1, 56, 95
2, 49080, Pitch_bend_c, 1, 7168
2, 49200, Pitch_bend_c, 1, 6144
2, 49320, Pitch_bend_c, 1, 5120
2, 49440, Pitch_bend_c, 1, 3968
2, 49560, Pitch_bend_c, 1, 2944
2, 49680, Pitch_bend_c, 1, 1920
2, 49800, Pitch_bend_c, 1, 896
2, 49920, Pitch_bend_c, 1, 0
2, 49920, Pitch_bend_c, 1, 8192
2, 49920, Note_off_c, 1, 56, 95
2, 49920, Note_on_c, 0, 51, 95
2, 49920, Note_on_c, 0, 44, 95
2, 57600, Note_off_c, 0, 51, 95
2, 57600, Note_off_c, 0, 44, 95
2, 57600, Note_on_c, 0, 54, 95
2, 57600, Note_on_c, 0, 47, 95
2, 58080, Note_off_c, 0, 54, 95
2, 58080, Note_off_c, 0, 47, 95
2, 58080, Note_on_c, 1, 56, 95
2, 58080, Note_on_c, 1, 49, 95
2, 59040, Note_off_c, 1, 56, 95
2, 59040, Note_off_c, 1, 49, 95
2, 65280, Note_on_c, 0, 55, 31
2, 65280, Note_on_c, 0, 51, 95
2, 65280, Note_on_c, 0, 44, 95
2, 69120, Note_off_c, 0, 55, 31
2, 72960, Note_off_c, 0, 51, 95
2, 72960, Note_off_c, 0, 44, 95
2, 72960, Note_on_c, 0, 56, 95
2, 72960, Note_on_c, 0, 49, 95
2, 73440, Note_off_c, 0, 56, 95
2, 73440, Note_off_c, 0, 49, 95
2, 73440, Note_on_c, 1, 58, 95
2, 73440, Note_on_c, 1, 51, 95
2, 74400, Note_off_c, 1, 58, 95
2, 74400, Note_off_c, 1, 51, 95
2, 74880, Note_on_c, 0, 75, 95
2, 74880, Note_on_c, 0, 70, 95
2, 76320, Note_off_c, 0, 75, 95
2, 76320, Note_off_c, 0, 70, 95
2, 76320, Note_on_c, 0, 73, 95
2, 76320, Note_on_c, 0, 68, 95
2, 77760, Note_off_c, 0, 73, 95
2, 77760, Note_off_c, 0, 68, 95
2, 77760, Note_on_c, 0, 70, 95
2, 77760, Note_on_c, 0, 65, 95
2, 79680, Note_off_c, 0, 70, 95
2, 79680, Note_off_c, 0, 65, 95
2, 80160, Note_on_c, 0, 68, 95
2, 80160, Note_on_c, 0, 63, 95
2, 80640, Note_off_c, 0, 68, 95
2, 80640, Note_off_c, 0, 63, 95
2, 80640, Note_on_c, 0, 71, 95
2, 80640, Note_on_c, 0, 66, 95
2, 81120, Note_off_c, 0, 71, 95
2, 81120, Note_off_c, 0, 66, 95
2, 81120, Note_on_c, 1, 71, 95
2, 81120, Note_on_c, 1, 66, 95
2, 81240, Pitch_bend_c, 1, 8832
2, 81240, Pitch_bend_c, 1, 8832
2, 81360, Pitch_bend_c, 1, 9600
2, 81360, Pitch_bend_c, 1, 8192
2, 81360, Note_off_c, 1, 71, 95
2, 81360, Pitch_bend_c, 1, 9600
2, 81360, Pitch_bend_c, 1, 8192
2, 81360, Note_off_c, 1, 66, 95
2, 81360, Note_on_c, 0, 73, 95
2, 81360, Note_on_c, 0, 68, 95
2, 82800, Note_off_c, 0, 73, 95
2, 82800, Note_off_c, 0, 68, 95
2, 83280, Note_on_c, 1, 54, 95
2, 83280, Note_on_c, 1, 47, 95
2, 83400, Pitch_bend_c, 1, 8832
2, 83400, Pitch_bend_c, 1, 8832
2, 83520, Pitch_bend_c, 1, 9600
2, 83520, Pitch_bend_c, 1, 8192
2, 83520, Note_off_c, 1, 54, 95
2, 83520, Pitch_bend_c, 1, 9600
2, 83520, Pitch_bend_c, 1, 8192
2, 83520, Note_off_c, 1, 47, 95
2, 83520, Note_on_c, 0, 56, 95
2, 83520, Note_on_c, 0, 49, 95
2, 84000, Note_off_c, 0, 56, 95
2, 84000, Note_off_c, 0, 49, 95
2, 84000, Note_on_c, 0, 54, 95
2, 84000, Note_on_c, 0, 47, 95
2, 84960, Note_off_c, 0, 54, 95
2, 84960, Note_off_c, 0, 47, 95
2, 84960, Note_on_c, 0, 55, 31
2, 84960, Note_on_c, 0, 51, 95
2, 84960, Note_on_c, 0, 44, 95
2, 86880, Note_off_c, 0, 55, 31
2, 86880, Note_off_c, 0, 51, 95
2, 86880, Note_off_c, 0, 44, 95
2, 86880, Note_on_c, 0, 51, 95
2, 86880, Note_on_c, 0, 44, 95
2, 87840, Note_off_c, 0, 51, 95
2, 87840, Note_off_c, 0, 44, 95
2, 87840, Note_on_c, 0, 51, 95
2, 87840, Note_on_c, 0, 44, 95
2, 90240, Note_on_c, 0, 55, 47
2, 96000, Note_off_c, 0, 51, 95
2, 96000, Note_off_c, 0, 44, 95
2, 96000, Note_off_c, 0, 55, 47
2, 96000, Pitch_bend_c, 1, 8192
2, 96000, Note_on_c, 1, 55, 95
2, 96288, Pitch_bend_c, 1, 8320
2, 96576, Pitch_bend_c, 1, 8448
2, 96864, Pitch_bend_c, 1, 8576
2, 97152, Pitch_bend_c, 1, 8704
2, 97440, Pitch_bend_c, 1, 8832
2, 97440, Pitch_bend_c, 1, 8832
2, 98880, Pitch_bend_c, 1, 8832
2, 98880, Pitch_bend_c, 1, 8192
2, 98880, Note_off_c, 1, 55, 95
2, 104640, Note_on_c, 1, 51, 95
2, 104760, Pitch_bend_c, 1, 6912
2, 104880, Pitch_bend_c, 1, 5632
2, 105000, Pitch_bend_c, 1, 4352
2, 105120, Pitch_bend_c, 1, 3072
2, 105240, Pitch_bend_c, 1, 1792
2, 105360, Pitch_bend_c, 1, 512
2, 105360, Pitch_bend_c, 1, 8192
2, 105360, Note_off_c, 1, 51, 95
2, 105360, Note_on_c, 1, 40, 95
2, 105480, Pitch_bend_c, 1, 13824
2, 105600, Pitch_bend_c, 1, 16256
2, 105600, Pitch_bend_c, 1, 8192
2, 105600, Note_off_c, 1, 40, 95
2, 105600, Note_on_c, 1, 56, 95
2, 105720, Pitch_bend_c, 1, 6784
2, 105840, Pitch_bend_c, 1, 5248
2, 105960, Pitch_bend_c, 1, 3712
2, 106080, Pitch_bend_c, 1, 2304
2, 106200, Pitch_bend_c, 1, 768
2, 106320, Pitch_bend_c, 1, 0
2, 106440, Pitch_bend_c, 1, 0
2, 106560, Pitch_bend_c, 1, 0
2, 106560, Pitch_bend_c, 1, 8192
2, 106560, Note_off_c, 1, 56, 95
2, 106560, Note_on_c, 0, 39, 95
2, 107040, Note_off_c, 0, 39, 95
2, 107040, Note_on_c, 0, 42, 95
2, 107151, Note_off_c, 0, 42, 95
2, 107520, Note_on_c, 0, 51, 95
2, 107520, Note_on_c, 0, 44, 95
2, 108000, Note_off_c, 0, 51, 95
2, 108000, Note_off_c, 0, 44, 95
2, 108000, Note_on_c, 0, 51, 95
2, 108000, Note_on_c, 0, 44, 95
2, 108480, Note_off_c, 0, 51, 95
2, 108480, Note_off_c, 0, 44, 95
2, 108960, Note_on_c, 0, 51, 95
2, 108960, Note_on_c, 0, 44, 95
2, 109440, Note_off_c, 0, 51, 95
2, 109440, Note_off_c, 0, 44, 95
2, 110400, Note_on_c, 0, 39, 95
2, 110511, Note_off_c, 0, 39, 95
2, 110880, Note_on_c, 0, 42, 95
2, 110991, Note_off_c, 0, 42, 95
2, 111360, Note_on_c, 0, 51, 95
2, 111360, Note_on_c, 0, 44, 95
2, 111840, Note_off_c, 0, 51, 95
2, 111840, Note_off_c, 0, 44, 95
2, 111840, Note_on_c, 0, 51, 95
2, 111840, Note_on_c, 0, 44, 95
2, 112320, Note_off_c, 0, 51, 95
2, 112320, Note_off_c, 0, 44, 95
2, 112800, Note_on_c, 0, 51, 95
2, 112800, Note_on_c, 0, 44, 95
2, 113280, Note_off_c, 0, 51, 95
2, 113280, Note_off_c, 0, 44, 95
2, 114240, Note_on_c, 0, 39, 95
2, 114351, Note_off_c, 0, 39, 95
2, 114720, Note_on_c, 0, 42, 95
2, 114831, Note_off_c, 0, 42, 95
2, 115200, Note_on_c, 0, 51, 95
2, 115200, Note_on_c, 0, 44, 95
2, 115680, Note_off_c, 0, 51, 95
2, 115680, Note_off_c, 0, 44, 95
2, 115680, Note_on_c, 0, 51, 95
2, 115680, Note_on_c, 0, 44, 95
2, 116160, Note_off_c, 0, 51, 95
2, 116160, Note_off_c, 0, 44, 95
2, 116640, Note_on_c, 0, 51, 95
2, 116640, Note_on_c, 0, 44, 95
2, 117120, Note_off_c, 0, 51, 95
2, 117120, Note_off_c, 0, 44, 95
2, 118080, Note_on_c, 0, 39, 95
2, 118191, Note_off_c, 0, 39, 95
2, 118560, Note_on_c, 0, 42, 95
2, 118671, Note_off_c, 0, 42, 95
2, 119040, Note_on_c, 0, 51, 95
2, 119040, Note_on_c, 0, 44, 95
2, 119520, Note_off_c, 0, 51, 95
2, 119520, Note_off_c, 0, 44, 95
2, 119520, Note_on_c, 0, 51, 95
2, 119520, Note_on_c, 0, 44, 95
2, 120000, Note_off_c, 0, 51, 95
2, 120000, Note_off_c, 0, 44, 95
2, 120480, Note_on_c, 0, 51, 95
2, 120480, Note_on_c, 0, 44, 95
2, 120960, Note_off_c, 0, 51, 95
2, 120960, Note_off_c, 0, 44, 95
2, 121920, Note_on_c, 0, 39, 95
2, 122031, Note_off_c, 0, 39, 95
2, 122400, Note_on_c, 0, 42, 95
2, 122511, Note_off_c, 0, 42, 95
2, 122880, Note_on_c, 0, 51, 95
2, 122880, Note_on_c, 0, 44, 95
2, 123360, Note_off_c, 0, 51, 95
2, 123360, Note_off_c, 0, 44, 95
2, 123360, Note_on_c, 0, 51, 95
2, 123360, Note_on_c, 0, 44, 95
2, 123840, Note_off_c, 0, 51, 95
2, 123840, Note_off_c, 0, 44, 95
2, 124320, Note_on_c, 0, 51, 95
2, 124320, Note_on_c, 0, 44, 95
2, 124800, Note_off_c, 0, 51, 95
2, 124800, Note_off_c, 0, 44, 95
2, 125760, Note_on_c, 0, 39, 95
2, 125871, Note_off_c, 0, 39, 95
2, 126240, Note_on_c, 0, 42, 95
2, 126351, Note_off_c, 0, 42, 95
2, 126720, Note_on_c, 0, 51, 95
2, 126720, Note_on_c, 0, 44, 95
2, 127200, Note_off_c, 0, 51, 95
2, 127200, Note_off_c, 0, 44, 95
2, 127200, Note_on_c, 0, 51, 95
2, 127200, Note_on_c, 0, 44, 95
2, 127680, Note_off_c, 0, 51, 95
2, 127680, Note_off_c, 0, 44, 95
2, 128160, Note_on_c, 0, 51, 95
2, 128160, Note_on_c, 0, 44, 95
2, 128640, Note_off_c, 0, 51, 95
2, 128640, Note_off_c, 0, 44, 95
2, 129600, Note_on_c, 0, 39, 95
2, 129711, Note_off_c, 0, 39, 95
2, 130080, Note_on_c, 0, 42, 95
2, 130191, Note_off_c, 0, 42, 95
2, 130560, Note_on_c, 0, 51, 95
2, 130560, Note_on_c, 0, 44, 95
2, 131040, Note_off_c, 0, 51, 95
2, 131040, Note_off_c, 0, 44, 95
2, 131040, Note_on_c, 0, 51, 95
2, 131040, Note_on_c, 0, 44, 95
2, 131520, Note_off_c, 0, 51, 95
2, 131520, Note_off_c, 0, 44, 95
2, 132000, Note_on_c, 0, 51, 95
2, 132000, Note_on_c, 0, 44, 95
2, 132480, Note_off_c, 0, 51, 95
2, 132480, Note_off_c, 0, 44, 95
2, 133440, Note_on_c, 0, 39, 95
2, 133551, Note_off_c, 0, 39, 95
2, 133920, Note_on_c, 0, 42, 95
2, 134031, Note_off_c, 0, 42, 95
2, 134400, Note_on_c, 0, 51, 95
2, 134400, Note_on_c, 0, 44, 95
2, 134880, Note_off_c, 0, 51, 95
2, 134880, Note_off_c, 0, 44, 95
2, 134880, Note_on_c, 0, 51, 95
2, 134880, Note_on_c, 0, 44, 95
2, 135360, Note_off_c, 0, 51, 95
2, 135360, Note_off_c, 0, 44, 95
2, 135840, Note_on_c, 0, 51, 95
2, 135840, Note_on_c, 0, 44, 95
2, 136320, Note_off_c, 0, 51, 95
2, 136320, Note_off_c, 0, 44, 95
2, 136800, Note_on_c, 1, 54, 95
2, 136920, Pitch_bend_c, 1, 8448
2, 137040, Pitch_bend_c, 1, 8832
2, 137160, Pitch_bend_c, 1, 9216
2, 137280, Pitch_bend_c, 1, 9600
2, 137280, Pitch_bend_c, 1, 8192
2, 137280, Note_off_c, 1, 54, 95
2, 137280, Note_on_c, 0, 56, 95
2, 137760, Note_off_c, 0, 56, 95
2, 137760, Note_on_c, 0, 59, 95
2, 138240, Note_off_c, 0, 59, 95
2, 138240, Note_on_c, 0, 68, 31
2, 138240, Note_on_c, 0, 63, 95
2, 139680, Note_off_c, 0, 68, 31
2, 139680, Note_off_c, 0, 63, 95
2, 139680, Note_on_c, 1, 62, 95
2, 139840, Pitch_bend_c, 1, 8192
2, 140000, Pitch_bend_c, 1, 8320
2, 140160, Pitch_bend_c, 1, 8192
2, 140320, Pitch_bend_c, 1, 8320
2, 140480, Pitch_bend_c, 1, 8192
2, 140640, Pitch_bend_c, 1, 8320
2, 140800, Pitch_bend_c, 1, 8192
2, 140960, Pitch_bend_c, 1, 8320
2, 141120, Pitch_bend_c, 1, 8192
2, 141280, Pitch_bend_c, 1, 8320
2, 141440, Pitch_bend_c, 1, 8192
2, 141600, Pitch_bend_c, 1, 8320
2, 141760, Pitch_bend_c, 1, 8192
2, 141920, Pitch_bend_c, 1, 8320
2, 142080, Pitch_bend_c, 1, 8192
2, 142240, Pitch_bend_c, 1, 8320
2, 142400, Pitch_bend_c, 1, 8192
2, 142560, Pitch_bend_c, 1, 8320
2, 142720, Pitch_bend_c, 1, 8192
2, 142880, Pitch_bend_c, 1, 8320
2, 143040, Pitch_bend_c, 1, 8192
2, 143200, Pitch_bend_c, 1, 8320
2, 143360, Pitch_bend_c, 1, 8192
2, 143520, Pitch_bend_c, 1, 8320
2, 143680, Pitch_bend_c, 1, 8192
2, 143840, Pitch_bend_c, 1, 8320
2, 144000, Pitch_bend_c, 1, 8192
2, 144160, Pitch_bend_c, 1, 8320
2, 144320, Pitch_bend_c, 1, 8192
2, 144480, Pitch_bend_c, 1, 8320
2, 144480, Pitch_bend_c, 1, 8192
2, 144480, Note_off_c, 1, 62, 95
2, 144480, Note_on_c, 0, 59, 95
2, 145440, Note_off_c, 0, 59, 95
2, 145440, Note_on_c, 0, 56, 95
2, 145920, Note_off_c, 0, 56, 95
2, 145920, Note_on_c, 0, 66, 95
2, 147360, Note_off_c, 0, 66, 95
2, 147360, Note_on_c, 1, 65, 95
2, 147520, Pitch_bend_c, 1, 8192
2, 147680, Pitch_bend_c, 1, 8320
2, 147840, Pitch_bend_c, 1, 8192
2, 148000, Pitch_bend_c, 1, 8320
2, 148160, Pitch_bend_c, 1, 8192
2, 148320, Pitch_bend_c, 1, 8320
2, 148480, Pitch_bend_c, 1, 8192
2, 148640, Pitch_bend_c, 1, 8320
2, 148800, Pitch_bend_c, 1, 8192
2, 148960, Pitch_bend_c, 1, 8320
2, 149120, Pitch_bend_c, 1, 8192
2, 149280, Pitch_bend_c, 1, 8320
2, 149440, Pitch_bend_c, 1, 8192
2, 149600, Pitch_bend_c, 1, 8320
2, 149760, Pitch_bend_c, 1, 8192
2, 149920, Pitch_bend_c, 1, 8320
2, 150080, Pitch_bend_c, 1, 8192
2, 150240, Pitch_bend_c, 1, 8320
2, 150400, Pitch_bend_c, 1, 8192
2, 150560, Pitch_bend_c, 1, 8320
2, 150720, Pitch_bend_c, 1, 8192
2, 150880, Pitch_bend_c, 1, 8320
2, 151040, Pitch_bend_c, 1, 8192
2, 151200, Pitch_bend_c, 1, 8320
2, 151360, Pitch_bend_c, 1, 8192
2, 151520, Pitch_bend_c, 1, 8320
2, 151680, Pitch_bend_c, 1, 8192
2, 151840, Pitch_bend_c, 1, 8320
2, 152000, Pitch_bend_c, 1, 8192
2, 152160, Pitch_bend_c, 1, 8320
2, 152160, Pitch_bend_c, 1, 8192
2, 152160, Note_off_c, 1, 65, 95
2, 152160, Note_on_c, 0, 56, 95
2, 153120, Note_off_c, 0, 56, 95
2, 153120, Note_on_c, 0, 59, 95
2, 153600, Note_off_c, 0, 59, 95
2, 153600, Note_on_c, 0, 63, 95
2, 155040, Note_off_c, 0, 63, 95
2, 155040, Note_on_c, 1, 62, 95
2, 155200, Pitch_bend_c, 1, 8192
2, 155360, Pitch_bend_c, 1, 8320
2, 155520, Pitch_bend_c, 1, 8192
2, 155680, Pitch_bend_c, 1, 8320
2, 155840, Pitch_bend_c, 1, 8192
2, 156000, Pitch_bend_c, 1, 8320
2, 156000, Pitch_bend_c, 1, 8192
2, 156000, Note_off_c, 1, 62, 95
2, 156000, Note_on_c, 0, 59, 95
2, 156960, Note_off_c, 0, 59, 95
2, 156960, Note_on_c, 0, 56, 95
2, 157440, Note_off_c, 0, 56, 95
2, 157440, Note_on_c, 0, 66, 95
2, 158880, Note_off_c, 0, 66, 95
2, 158880, Note_on_c, 0, 65, 95
2, 159840, Note_off_c, 0, 65, 95
2, 159840, Note_on_c, 0, 63, 95
2, 160800, Note_off_c, 0, 63, 95
2, 160800, Note_on_c, 0, 59, 95
2, 161280, Note_off_c, 0, 59, 95
2, 161280, Note_on_c, 0, 70, 95
2, 162720, Note_off_c, 0, 70, 95
2, 162720, Note_on_c, 0, 68, 95
2, 164640, Note_on_c, 0, 63, 47
2, 165120, Note_off_c, 0, 68, 95
2, 165120, Note_on_c, 0, 68, 95
2, 167520, Note_off_c, 0, 63, 47
2, 167520, Note_off_c, 0, 68, 95
2, 167520, Note_on_c, 0, 56, 95
2, 168000, Note_off_c, 0, 56, 95
2, 168000, Note_on_c, 0, 59, 95
2, 168480, Note_off_c, 0, 59, 95
2, 168480, Note_on_c, 0, 63, 95
2, 168960, Note_off_c, 0, 63, 95
2, 168960, Note_on_c, 0, 70, 95
2, 170400, Note_off_c, 0, 70, 95
2, 170400, Note_on_c, 0, 68, 95
2, 171360, Note_off_c, 0, 68, 95
2, 171360, Note_on_c, 0, 63, 95
2, 172320, Note_off_c, 0, 63, 95
2, 172320, Note_on_c, 0, 59, 95
2, 172800, Note_off_c, 0, 59, 95
2, 172800, Note_on_c, 1, 66, 95
2, 172960, Pitch_bend_c, 1, 8192
2, 173120, Pitch_bend_c, 1, 8320
2, 173280, Pitch_bend_c, 1, 8192
2, 173440, Pitch_bend_c, 1, 8320
2, 173600, Pitch_bend_c, 1, 8192
2, 173760, Pitch_bend_c, 1, 8320
2, 173920, Pitch_bend_c, 1, 8192
2, 174080, Pitch_bend_c, 1, 8320
2, 174240, Pitch_bend_c, 1, 8192
2, 174240, Pitch_bend_c, 1, 8320
2, 174240, Pitch_bend_c, 1, 8192
2, 174240, Note_off_c, 1, 66, 95
2, 174240, Note_on_c, 1, 65, 95
2, 174400, Pitch_bend_c, 1, 8192
2, 174560, Pitch_bend_c, 1, 8320
2, 174720, Pitch_bend_c, 1, 8192
2, 174880, Pitch_bend_c, 1, 8320
2, 175040, Pitch_bend_c, 1, 8192
2, 175200, Pitch_bend_c, 1, 8320
2, 175360, Pitch_bend_c, 1, 8192
2, 175520, Pitch_bend_c, 1, 8320
2, 175680, Pitch_bend_c, 1, 8192
2, 175840, Pitch_bend_c, 1, 8320
2, 176000, Pitch_bend_c, 1, 8192
2, 176160, Pitch_bend_c, 1, 8320
2, 176160, Pitch_bend_c, 1, 8192
2, 176160, Note_off_c, 1, 65, 95
2, 176160, Note_on_c, 0, 63, 95
2, 176640, Note_off_c, 0, 63, 95
2, 176640, Note_on_c, 0, 70, 95
2, 177360, Note_off_c, 0, 70, 95
2, 177360, Note_on_c, 0, 70, 95
2, 177600, Note_off_c, 0, 70, 95
2, 177600, Note_on_c, 0, 71, 70
2, 178080, Note_off_c, 0, 71, 70
2, 178080, Note_on_c, 0, 70, 95
2, 178560, Note_off_c, 0, 70, 95
2, 178560, Note_on_c, 0, 68, 95
2, 179280, Note_off_c, 0, 68, 95
2, 179280, Note_on_c, 0, 68, 31
2, 179280, Note_on_c, 0, 63, 95
2, 180000, Note_off_c, 0, 68, 31
2, 180000, Note_off_c, 0, 63, 95
2, 180000, Note_on_c, 0, 59, 95
2, 180480, Note_off_c, 0, 59, 95
2, 180480, Note_on_c, 1, 66, 95
2, 180640, Pitch_bend_c, 1, 8192
2, 180800, Pitch_bend_c, 1, 8320
2, 180960, Pitch_bend_c, 1, 8192
2, 181120, Pitch_bend_c, 1, 8320
2, 181280, Pitch_bend_c, 1, 8192
2, 181440, Pitch_bend_c, 1, 8320
2, 181600, Pitch_bend_c, 1, 8192
2, 181760, Pitch_bend_c, 1, 8320
2, 181920, Pitch_bend_c, 1, 8192
2, 181920, Pitch_bend_c, 1, 8320
2, 181920, Pitch_bend_c, 1, 8192
2, 181920, Note_off_c, 1, 66, 95
2, 181920, Note_on_c, 0, 65, 95
2, 182400, Note_off_c, 0, 65, 95
2, 182400, Note_on_c, 0, 56, 95
2, 182880, Note_off_c, 0, 56, 95
2, 182880, Note_on_c, 0, 58, 95
2, 183360, Note_off_c, 0, 58, 95
2, 183360, Note_on_c, 0, 59, 95
2, 183840, Note_off_c, 0, 59, 95
2, 183840, Note_on_c, 0, 63, 95
2, 184320, Note_off_c, 0, 63, 95
2, 184320, Note_on_c, 1, 62, 95
2, 184480, Pitch_bend_c, 1, 8192
2, 184640, Pitch_bend_c, 1, 8320
2, 184800, Pitch_bend_c, 1, 8192
2, 184960, Pitch_bend_c, 1, 8320
2, 185120, Pitch_bend_c, 1, 8192
2, 185280, Pitch_bend_c, 1, 8320
2, 185440, Pitch_bend_c, 1, 8192
2, 185600, Pitch_bend_c, 1, 8320
2, 185760, Pitch_bend_c, 1, 8192
2, 185920, Pitch_bend_c, 1, 8320
2, 186080, Pitch_bend_c, 1, 8192
2, 186240, Pitch_bend_c, 1, 8320
2, 186400, Pitch_bend_c, 1, 8192
2, 186560, Pitch_bend_c, 1, 8320
2, 186720, Pitch_bend_c, 1, 8192
2, 186880, Pitch_bend_c, 1, 8320
2, 187040, Pitch_bend_c, 1, 8192
2, 187200, Pitch_bend_c, 1, 8320
2, 187360, Pitch_bend_c, 1, 8192
2, 187520, Pitch_bend_c, 1, 8320
2, 187680, Pitch_bend_c, 1, 8192
2, 187840, Pitch_bend_c, 1, 8320
2, 188000, Pitch_bend_c, 1, 8192
2, 188160, Pitch_bend_c, 1, 8320
2, 188320, Pitch_bend_c, 1, 8192
2, 188480, Pitch_bend_c, 1, 8320
2, 188640, Pitch_bend_c, 1, 8192
2, 188800, Pitch_bend_c, 1, 8320
2, 188960, Pitch_bend_c, 1, 8192
2, 189120, Pitch_bend_c, 1, 8320
2, 189280, Pitch_bend_c, 1, 8192
2, 189440, Pitch_bend_c, 1, 8320
2, 189600, Pitch_bend_c, 1, 8192
2, 189760, Pitch_bend_c, 1, 8320
2, 189920, Pitch_bend_c, 1, 8192
2, 190080, Pitch_bend_c, 1, 8320
2, 190240, Pitch_bend_c, 1, 8192
2, 190400, Pitch_bend_c, 1, 8320
2, 190560, Pitch_bend_c, 1, 8192
2, 190560, Pitch_bend_c, 1, 8320
2, 190560, Pitch_bend_c, 1, 8192
2, 190560, Note_off_c, 1, 62, 95
2, 190560, Note_on_c, 1, 47, 95
2, 190680, Pitch_bend_c, 1, 8832
2, 190800, Pitch_bend_c, 1, 9600
2, 190800, Pitch_bend_c, 1, 8192
2, 190800, Note_off_c, 1, 47, 95
2, 190800, Note_on_c, 0, 49, 95
2, 191280, Note_off_c, 0, 49, 95
2, 191280, Note_on_c, 0, 47, 95
2, 192000, Note_off_c, 0, 47, 95
2, 192000, Note_on_c, 0, 51, 95
2, 192000, Note_on_c, 0, 44, 95
2, 192480, Note_off_c, 0, 51, 95
2, 192480, Note_off_c, 0, 44, 95
2, 192480, Note_on_c, 0, 51, 95
2, 192480, Note_on_c, 0, 44, 95
2, 192960, Note_off_c, 0, 51, 95
2, 192960, Note_off_c, 0, 44, 95
2, 193440, Note_on_c, 0, 51, 95
2, 193440, Note_on_c, 0, 44, 95
2, 193920, Note_off_c, 0, 51, 95
2, 193920, Note_off_c, 0, 44, 95
2, 194880, Note_on_c, 0, 39, 95
2, 194991, Note_off_c, 0, 39, 95
2, 195360, Note_on_c, 0, 42, 95
2, 195471, Note_off_c, 0, 42, 95
2, 195840, Note_on_c, 0, 51, 95
2, 195840, Note_on_c, 0, 44, 95
2, 196320, Note_off_c, 0, 51, 95
2, 196320, Note_off_c, 0, 44, 95
2, 196320, Note_on_c, 0, 51, 95
2, 196320, Note_on_c, 0, 44, 95
2, 196800, Note_off_c, 0, 51, 95
2, 196800, Note_off_c, 0, 44, 95
2, 197280, Note_on_c, 0, 51, 95
2, 197280, Note_on_c, 0, 44, 95
2, 197760, Note_off_c, 0, 51, 95
2, 197760, Note_off_c, 0, 44, 95
2, 198720, Note_on_c, 0, 39, 95
2, 198831, Note_off_c, 0, 39, 95
2, 199200, Note_on_c, 0, 42, 95
2, 199311, Note_off_c, 0, 42, 95
2, 199680, Note_on_c, 0, 51, 95
2, 199680, Note_on_c, 0, 44, 95
2, 200160, Note_off_c, 0, 51, 95
2, 200160, Note_off_c, 0, 44, 95
2, 200160, Note_on_c, 0, 51, 95
2, 200160, Note_on_c, 0, 44, 95
2, 200640, Note_off_c, 0, 51, 95
2, 200640, Note_off_c, 0, 44, 95
2, 201120, Note_on_c, 0, 51, 95
2, 201120, Note_on_c, 0, 44, 95
2, 201600, Note_off_c, 0, 51, 95
2, 201600, Note_off_c, 0, 44, 95
2, 202560, Note_on_c, 0, 39, 95
2, 202671, Note_off_c, 0, 39, 95
2, 203040, Note_on_c, 0, 42, 95
2, 203151, Note_off_c, 0, 42, 95
2, 203520, Note_on_c, 0, 51, 95
2, 203520, Note_on_c, 0, 44, 95
2, 204000, Note_off_c, 0, 51, 95
2, 204000, Note_off_c, 0, 44, 95
2, 204000, Note_on_c, 0, 51, 95
2, 204000, Note_on_c, 0, 44, 95
2, 204480, Note_off_c, 0, 51, 95
2, 204480, Note_off_c, 0, 44, 95
2, 204960, Note_on_c, 0, 51, 95
2, 204960, Note_on_c, 0, 44, 95
2, 205440, Note_off_c, 0, 51, 95
2, 205440, Note_off_c, 0, 44, 95
2, 206400, Note_on_c, 0, 39, 95
2, 206511, Note_off_c, 0, 39, 95
2, 206880, Note_on_c, 0, 42, 95
2, 206991, Note_off_c, 0, 42, 95
2, 207360, Note_on_c, 0, 51, 95
2, 207360, Note_on_c, 0, 44, 95
2, 207840, Note_off_c, 0, 51, 95
2, 207840, Note_off_c, 0, 44, 95
2, 207840, Note_on_c, 0, 51, 95
2, 207840, Note_on_c, 0, 44, 95
2, 208320, Note_off_c, 0, 51, 95
2, 208320, Note_off_c, 0, 44, 95
2, 208800, Note_on_c, 0, 51, 95
2, 208800, Note_on_c, 0, 44, 95
2, 209280, Note_off_c, 0, 51, 95
2, 209280, Note_off_c, 0, 44, 95
2, 210240, Note_on_c, 0, 39, 95
2, 210351, Note_off_c, 0, 39, 95
2, 210720, Note_on_c, 0, 42, 95
2, 210831, Note_off_c, 0, 42, 95
2, 211200, Note_on_c, 0, 51, 95
2, 211200, Note_on_c, 0, 44, 95
2, 211680, Note_off_c, 0, 51, 95
2, 211680, Note_off_c, 0, 44, 95
2, 211680, Note_on_c, 0, 51, 95
2, 211680, Note_on_c, 0, 44, 95
2, 212160, Note_off_c, 0, 51, 95
2, 212160, Note_off_c, 0, 44, 95
2, 212640, Note_on_c, 0, 51, 95
2, 212640, Note_on_c, 0, 44, 95
2, 213120, Note_off_c, 0, 51, 95
2, 213120, Note_off_c, 0, 44, 95
2, 214080, Note_on_c, 0, 39, 95
2, 214191, Note_off_c, 0, 39, 95
2, 214560, Note_on_c, 0, 42, 95
2, 214671, Note_off_c, 0, 42, 95
2, 215040, Note_on_c, 0, 51, 95
2, 215040, Note_on_c, 0, 44, 95
2, 215520, Note_off_c, 0, 51, 95
2, 215520, Note_off_c, 0, 44, 95
2, 215520, Note_on_c, 0, 51, 95
2, 215520, Note_on_c, 0, 44, 95
2, 216000, Note_off_c, 0, 51, 95
2, 216000, Note_off_c, 0, 44, 95
2, 216480, Note_on_c, 0, 51, 95
2, 216480, Note_on_c, 0, 44, 95
2, 216960, Note_off_c, 0, 51, 95
2, 216960, Note_off_c, 0, 44, 95
2, 217920, Note_on_c, 0, 39, 95
2, 218031, Note_off_c, 0, 39, 95
2, 218400, Note_on_c, 0, 42, 95
2, 218511, Note_off_c, 0, 42, 95
2, 218880, Note_on_c, 0, 51, 95
2, 218880, Note_on_c, 0, 44, 95
2, 219360, Note_off_c, 0, 51, 95
2, 219360, Note_off_c, 0, 44, 95
2, 219360, Note_on_c, 0, 51, 95
2, 219360, Note_on_c, 0, 44, 95
2, 219840, Note_off_c, 0, 51, 95
2, 219840, Note_off_c, 0, 44, 95
2, 220320, Note_on_c, 0, 51, 95
2, 220320, Note_on_c, 0, 44, 95
2, 220800, Note_off_c, 0, 51, 95
2, 220800, Note_off_c, 0, 44, 95
2, 221280, Note_on_c, 1, 66, 95
2, 221400, Pitch_bend_c, 1, 8448
2, 221520, Pitch_bend_c, 1, 8832
2, 221640, Pitch_bend_c, 1, 9216
2, 221760, Pitch_bend_c, 1, 9600
2, 221760, Pitch_bend_c, 1, 8192
2, 221760, Note_off_c, 1, 66, 95
2, 221760, Note_on_c, 0, 68, 95
2, 222240, Note_off_c, 0, 68, 95
2, 222240, Note_on_c, 0, 71, 95
2, 222720, Note_off_c, 0, 71, 95
2, 222720, Note_on_c, 1, 75, 95
2, 222880, Pitch_bend_c, 1, 8192
2, 223040, Pitch_bend_c, 1, 8320
2, 223200, Pitch_bend_c, 1, 8192
2, 223360, Pitch_bend_c, 1, 8320
2, 223520, Pitch_bend_c, 1, 8192
2, 223680, Pitch_bend_c, 1, 8320
2, 223840, Pitch_bend_c, 1, 8192
2, 224000, Pitch_bend_c, 1, 8320
2, 224160, Pitch_bend_c, 1, 8192
2, 224160, Pitch_bend_c, 1, 8320
2, 224160, Pitch_bend_c, 1, 8192
2, 224160, Note_off_c, 1, 75, 95
2, 224160, Note_on_c, 0, 74, 95
2, 224640, Note_off_c, 0, 74, 95
2, 224640, Note_on_c, 1, 74, 95
2, 224800, Pitch_bend_c, 1, 8192
2, 224960, Pitch_bend_c, 1, 8320
2, 225120, Pitch_bend_c, 1, 8192
2, 225280, Pitch_bend_c, 1, 8320
2, 225440, Pitch_bend_c, 1, 8192
2, 225600, Pitch_bend_c, 1, 8320
2, 225760, Pitch_bend_c, 1, 8192
2, 225920, Pitch_bend_c, 1, 8320
2, 226080, Pitch_bend_c, 1, 8192
2, 226240, Pitch_bend_c, 1, 8320
2, 226400, Pitch_bend_c, 1, 8192
2, 226560, Pitch_bend_c, 1, 8320
2, 226720, Pitch_bend_c, 1, 8192
2, 226880, Pitch_bend_c, 1, 8320
2, 227040, Pitch_bend_c, 1, 8192
2, 227200, Pitch_bend_c, 1, 8320
2, 227360, Pitch_bend_c, 1, 8192
2, 227520, Pitch_bend_c, 1, 8320
2, 227680, Pitch_bend_c, 1, 8192
2, 227840, Pitch_bend_c, 1, 8320
2, 228000, Pitch_bend_c, 1, 8192
2, 228160, Pitch_bend_c, 1, 8320
2, 228320, Pitch_bend_c, 1, 8192
2, 228480, Pitch_bend_c, 1, 8320
2, 228640, Pitch_bend_c, 1, 8192
2, 228800, Pitch_bend_c, 1, 8320
2, 228960, Pitch_bend_c, 1, 8192
2, 228960, Pitch_bend_c, 1, 8320
2, 228960, Pitch_bend_c, 1, 8192
2, 228960, Note_off_c, 1, 74, 95
2, 228960, Note_on_c, 0, 71, 95
2, 229920, Note_off_c, 0, 71, 95
2, 229920, Note_on_c, 0, 68, 95
2, 230400, Note_off_c, 0, 68, 95
2, 230400, Note_on_c, 1, 78, 95
2, 230560, Pitch_bend_c, 1, 8192
2, 230720, Pitch_bend_c, 1, 8320
2, 230880, Pitch_bend_c, 1, 8192
2, 231040, Pitch_bend_c, 1, 8320
2, 231200, Pitch_bend_c, 1, 8192
2, 231360, Pitch_bend_c, 1, 8320
2, 231520, Pitch_bend_c, 1, 8192
2, 231680, Pitch_bend_c, 1, 8320
2, 231840, Pitch_bend_c, 1, 8192
2, 231840, Pitch_bend_c, 1, 8320
2, 231840, Pitch_bend_c, 1, 8192
2, 231840, Note_off_c, 1, 78, 95
2, 231840, Note_on_c, 1, 77, 95
2, 232000, Pitch_bend_c, 1, 8192
2, 232160, Pitch_bend_c, 1, 8320
2, 232320, Pitch_bend_c, 1, 8192
2, 232480, Pitch_bend_c, 1, 8320
2, 232640, Pitch_bend_c, 1, 8192
2, 232800, Pitch_bend_c, 1, 8320
2, 232960, Pitch_bend_c, 1, 8192
2, 233120, Pitch_bend_c, 1, 8320
2, 233280, Pitch_bend_c, 1, 8192
2, 233440, Pitch_bend_c, 1, 8320
2, 233600, Pitch_bend_c, 1, 8192
2, 233760, Pitch_bend_c, 1, 8320
2, 233920, Pitch_bend_c, 1, 8192
2, 234080, Pitch_bend_c, 1, 8320
2, 234240, Pitch_bend_c, 1, 8192
2, 234400, Pitch_bend_c, 1, 8320
2, 234560, Pitch_bend_c, 1, 8192
2, 234720, Pitch_bend_c, 1, 8320
2, 234880, Pitch_bend_c, 1, 8192
2, 235040, Pitch_bend_c, 1, 8320
2, 235200, Pitch_bend_c, 1, 8192
2, 235360, Pitch_bend_c, 1, 8320
2, 235520, Pitch_bend_c, 1, 8192
2, 235680, Pitch_bend_c, 1, 8320
2, 235840, Pitch_bend_c, 1, 8192
2, 236000, Pitch_bend_c, 1, 8320
2, 236160, Pitch_bend_c, 1, 8192
2, 236320, Pitch_bend_c, 1, 8320
2, 236480, Pitch_bend_c, 1, 8192
2, 236640, Pitch_bend_c, 1, 8320
2, 236640, Pitch_bend_c, 1, 8192
2, 236640, Note_off_c, 1, 77, 95
2, 236640, Note_on_c, 0, 68, 95
2, 237600, Note_off_c, 0, 68, 95
2, 237600, Note_on_c, 0, 71, 95
2, 238080, Note_off_c, 0, 71, 95
2, 238080, Note_on_c, 1, 75, 95
2, 238240, Pitch_bend_c, 1, 8192
2, 238400, Pitch_bend_c, 1, 8320
2, 238560, Pitch_bend_c, 1, 8192
2, 238720, Pitch_bend_c, 1, 8320
2, 238880, Pitch_bend_c, 1, 8192
2, 239040, Pitch_bend_c, 1, 8320
2, 239200, Pitch_bend_c, 1, 8192
2, 239360, Pitch_bend_c, 1, 8320
2, 239520, Pitch_bend_c, 1, 8192
2, 239520, Pitch_bend_c, 1, 8320
2, 239520, Pitch_bend_c, 1, 8192
2, 239520, Note_off_c, 1, 75, 95
2, 239520, Note_on_c, 1, 74, 95
2, 239680, Pitch_bend_c, 1, 8192
2, 239840, Pitch_bend_c, 1, 8320
2, 240000, Pitch_bend_c, 1, 8192
2, 240160, Pitch_bend_c, 1, 8320
2, 240320, Pitch_bend_c, 1, 8192
2, 240480, Pitch_bend_c, 1, 8320
2, 240480, Pitch_bend_c, 1, 8192
2, 240480, Note_off_c, 1, 74, 95
2, 240480, Note_on_c, 0, 71, 95
2, 241440, Note_off_c, 0, 71, 95
2, 241440, Note_on_c, 0, 68, 95
2, 241680, Note_off_c, 0, 68, 95
2, 241920, Note_on_c, 1, 78, 95
2, 242080, Pitch_bend_c, 1, 8192
2, 242240, Pitch_bend_c, 1, 8320
2, 242400, Pitch_bend_c, 1, 8192
2, 242560, Pitch_bend_c, 1, 8320
2, 242720, Pitch_bend_c, 1, 8192
2, 242880, Pitch_bend_c, 1, 8320
2, 243040, Pitch_bend_c, 1, 8192
2, 243200, Pitch_bend_c, 1, 8320
2, 243360, Pitch_bend_c, 1, 8192
2, 243360, Pitch_bend_c, 1, 8320
2, 243360, Pitch_bend_c, 1, 8192
2, 243360, Note_off_c, 1, 78, 95
2, 243360, Note_on_c, 1, 77, 95
2, 243520, Pitch_bend_c, 1, 8192
2, 243680, Pitch_bend_c, 1, 8320
2, 243840, Pitch_bend_c, 1, 8192
2, 244000, Pitch_bend_c, 1, 8320
2, 244160, Pitch_bend_c, 1, 8192
2, 244320, Pitch_bend_c, 1, 8320
2, 244320, Pitch_bend_c, 1, 8192
2, 244320, Note_off_c, 1, 77, 95
2, 244320, Note_on_c, 0, 75, 95
2, 245280, Note_off_c, 0, 75, 95
2, 245280, Note_on_c, 0, 71, 95
2, 245760, Note_off_c, 0, 71, 95
2, 245760, Note_on_c, 1, 82, 95
2, 245920, Pitch_bend_c, 1, 8192
2, 246080, Pitch_bend_c, 1, 8320
2, 246240, Pitch_bend_c, 1, 8192
2, 246400, Pitch_bend_c, 1, 8320
2, 246560, Pitch_bend_c, 1, 8192
2, 246720, Pitch_bend_c, 1, 8320
2, 246880, Pitch_bend_c, 1, 8192
2, 247040, Pitch_bend_c, 1, 8320
2, 247200, Pitch_bend_c, 1, 8192
2, 247200, Pitch_bend_c, 1, 8320
2, 247200, Pitch_bend_c, 1, 8192
2, 247200, Note_off_c, 1, 82, 95
2, 247200, Note_on_c, 1, 80, 95
2, 247360, Pitch_bend_c, 1, 8192
2, 247520, Pitch_bend_c, 1, 8320
2, 247680, Pitch_bend_c, 1, 8192
2, 247840, Pitch_bend_c, 1, 8320
2, 248000, Pitch_bend_c, 1, 8192
2, 248160, Pitch_bend_c, 1, 8320
2, 248320, Pitch_bend_c, 1, 8192
2, 248480, Pitch_bend_c, 1, 8320
2, 248640, Pitch_bend_c, 1, 8192
2, 248800, Pitch_bend_c, 1, 8320
2, 248960, Pitch_bend_c, 1, 8192
2, 249120, Pitch_bend_c, 1, 8320
2, 249280, Pitch_bend_c, 1, 8192
2, 249440, Pitch_bend_c, 1, 8320
2, 249600, Pitch_bend_c, 1, 8192
2, 249600, Pitch_bend_c, 1, 8320
2, 249600, Pitch_bend_c, 1, 8192
2, 249600, Note_off_c, 1, 80, 95
2, 249600, Note_on_c, 0, 80, 95
2, 252000, Note_off_c, 0, 80, 95
2, 252000, Note_on_c, 0, 68, 95
2, 252480, Note_off_c, 0, 68, 95
2, 252480, Note_on_c, 0, 71, 95
2, 252960, Note_off_c, 0, 71, 95
2, 252960, Note_on_c, 0, 75, 95
2, 252960, Note_on_c, 0, 71, 31
2, 253440, Note_off_c, 0, 75, 95
2, 253440, Note_off_c, 0, 71, 31
2, 253440, Note_on_c, 0, 82, 95
2, 254400, Note_off_c, 0, 82, 95
2, 254880, Note_on_c, 0, 80, 95
2, 255840, Note_off_c, 0, 80, 95
2, 255840, Note_on_c, 0, 80, 31
2, 255840, Note_on_c, 0, 75, 95
2, 256800, Note_off_c, 0, 80, 31
2, 256800, Note_off_c, 0, 75, 95
2, 256800, Note_on_c, 0, 71, 95
2, 257280, Note_off_c, 0, 71, 95
2, 257280, Note_on_c, 1, 78, 95
2, 257440, Pitch_bend_c, 1, 8192
2, 257600, Pitch_bend_c, 1, 8320
2, 257760, Pitch_bend_c, 1, 8192
2, 257920, Pitch_bend_c, 1, 8320
2, 258080, Pitch_bend_c, 1, 8192
2, 258240, Pitch_bend_c, 1, 8320
2, 258240, Pitch_bend_c, 1, 8192
2, 258240, Note_off_c, 1, 78, 95
2, 258720, Note_on_c, 1, 77, 95
2, 258880, Pitch_bend_c, 1, 8192
2, 259040, Pitch_bend_c, 1, 8320
2, 259200, Pitch_bend_c, 1, 8192
2, 259360, Pitch_bend_c, 1, 8320
2, 259520, Pitch_bend_c, 1, 8192
2, 259680, Pitch_bend_c, 1, 8320
2, 259840, Pitch_bend_c, 1, 8192
2, 260000, Pitch_bend_c, 1, 8320
2, 260160, Pitch_bend_c, 1, 8192
2, 260160, Pitch_bend_c, 1, 8320
2, 260160, Pitch_bend_c, 1, 8192
2, 260160, Note_off_c, 1, 77, 95
2, 260640, Note_on_c, 0, 75, 95
2, 260880, Note_off_c, 0, 75, 95
2, 261120, Pitch_bend_c, 1, 8192
2, 261120, Note_on_c, 1, 82, 95
2, 261600, Pitch_bend_c, 1, 8192
2, 261696, Pitch_bend_c, 1, 8320
2, 261792, Pitch_bend_c, 1, 8448
2, 261888, Pitch_bend_c, 1, 8576
2, 261984, Pitch_bend_c, 1, 8704
2, 262080, Pitch_bend_c, 1, 8832
2, 262080, Pitch_bend_c, 1, 8832
2, 262560, Pitch_bend_c, 1, 8832
2, 262560, Pitch_bend_c, 1, 8192
2, 262560, Note_off_c, 1, 82, 95
2, 262560, Note_on_c, 0, 82, 95
2, 262800, Note_off_c, 0, 82, 95
2, 263040, Note_on_c, 0, 80, 95
2, 263760, Note_off_c, 0, 80, 95
2, 263760, Note_on_c, 0, 75, 95
2, 264480, Note_off_c, 0, 75, 95
2, 264480, Note_on_c, 0, 75, 31
2, 264480, Note_on_c, 0, 71, 95
2, 264720, Note_off_c, 0, 75, 31
2, 264720, Note_off_c, 0, 71, 95
2, 264960, Note_on_c, 1, 78, 95
2, 265120, Pitch_bend_c, 1, 8192
2, 265280, Pitch_bend_c, 1, 8320
2, 265440, Pitch_bend_c, 1, 8192
2, 265600, Pitch_bend_c, 1, 8320
2, 265760, Pitch_bend_c, 1, 8192
2, 265920, Pitch_bend_c, 1, 8320
2, 266080, Pitch_bend_c, 1, 8192
2, 266240, Pitch_bend_c, 1, 8320
2, 266400, Pitch_bend_c, 1, 8192
2, 266400, Pitch_bend_c, 1, 8320
2, 266400, Pitch_bend_c, 1, 8192
2, 266400, Note_off_c, 1, 78, 95
2, 266400, Note_on_c, 1, 77, 95
2, 266880, Note_off_c, 1, 77, 95
2, 266880, Note_on_c, 0, 44, 95
2, 267360, Note_off_c, 0, 44, 95
2, 267360, Note_on_c, 0, 46, 95
2, 267840, Note_off_c, 0, 46, 95
2, 267840, Note_on_c, 0, 47, 95
2, 268320, Note_off_c, 0, 47, 95
2, 268320, Note_on_c, 0, 51, 95
2, 268800, Note_off_c, 0, 51, 95
2, 268800, Note_on_c, 1, 50, 95
2, 268960, Pitch_bend_c, 1, 8192
2, 269120, Pitch_bend_c, 1, 8320
2, 269280, Pitch_bend_c, 1, 8192
2, 269440, Pitch_bend_c, 1, 8320
2, 269600, Pitch_bend_c, 1, 8192
2, 269760, Pitch_bend_c, 1, 8320
2, 269920, Pitch_bend_c, 1, 8192
2, 270080, Pitch_bend_c, 1, 8320
2, 270240, Pitch_bend_c, 1, 8192
2, 270400, Pitch_bend_c, 1, 8320
2, 270560, Pitch_bend_c, 1, 8192
2, 270720, Pitch_bend_c, 1, 8320
2, 270880, Pitch_bend_c, 1, 8192
2, 271040, Pitch_bend_c, 1, 8320
2, 271200, Pitch_bend_c, 1, 8192
2, 271360, Pitch_bend_c, 1, 8320
2, 271520, Pitch_bend_c, 1, 8192
2, 271680, Pitch_bend_c, 1, 8320
2, 271840, Pitch_bend_c, 1, 8192
2, 272000, Pitch_bend_c, 1, 8320
2, 272160, Pitch_bend_c, 1, 8192
2, 272320, Pitch_bend_c, 1, 8320
2, 272480, Pitch_bend_c, 1, 8192
2, 272640, Pitch_bend_c, 1, 8320
2, 272800, Pitch_bend_c, 1, 8192
2, 272960, Pitch_bend_c, 1, 8320
2, 273120, Pitch_bend_c, 1, 8192
2, 273280, Pitch_bend_c, 1, 8320
2, 273440, Pitch_bend_c, 1, 8192
2, 273600, Pitch_bend_c, 1, 8320
2, 273760, Pitch_bend_c, 1, 8192
2, 273920, Pitch_bend_c, 1, 8320
2, 274080, Pitch_bend_c, 1, 8192
2, 274240, Pitch_bend_c, 1, 8320
2, 274400, Pitch_bend_c, 1, 8192
2, 274560, Pitch_bend_c, 1, 8320
2, 274720, Pitch_bend_c, 1, 8192
2, 274880, Pitch_bend_c, 1, 8320
2, 275040, Pitch_bend_c, 1, 8192
2, 275040, Pitch_bend_c, 1, 8320
2, 275040, Pitch_bend_c, 1, 8192
2, 275040, Note_off_c, 1, 50, 95
2, 275040, Note_on_c, 1, 47, 95
2, 275160, Pitch_bend_c, 1, 8832
2, 275280, Pitch_bend_c, 1, 9600
2, 275280, Pitch_bend_c, 1, 8192
2, 275280, Note_off_c, 1, 47, 95
2, 275280, Note_on_c, 0, 49, 95
2, 275760, Note_off_c, 0, 49, 95
2, 275760, Note_on_c, 0, 47, 95
2, 276480, Note_off_c, 0, 47, 95
2, 276480, Note_on_c, 0, 44, 95
2, 277920, Note_off_c, 0, 44, 95
2, 277920, Note_on_c, 1, 80, 95
2, 278080, Pitch_bend_c, 1, 8192
2, 278240, Pitch_bend_c, 1, 8320
2, 278400, Pitch_bend_c, 1, 8192
2, 278560, Pitch_bend_c, 1, 8320
2, 278720, Pitch_bend_c, 1, 8192
2, 278880, Pitch_bend_c, 1, 8320
2, 279040, Pitch_bend_c, 1, 8192
2, 279200, Pitch_bend_c, 1, 8320
2, 279360, Pitch_bend_c, 1, 8192
2, 279360, Pitch_bend_c, 1, 8320
2, 279360, Pitch_bend_c, 1, 8192
2, 279360, Note_off_c, 1, 80, 95
2, 279360, Note_on_c, 1, 80, 95
2, 279520, Pitch_bend_c, 1, 8192
2, 279680, Pitch_bend_c, 1, 8320
2, 279840, Pitch_bend_c, 1, 8192
2, 280000, Pitch_bend_c, 1, 8320
2, 280160, Pitch_bend_c, 1, 8192
2, 280320, Pitch_bend_c, 1, 8320
2, 280320, Pitch_bend_c, 1, 8192
2, 280320, Note_off_c, 1, 80, 95
2, 280320, Note_on_c, 1, 80, 95
2, 280480, Pitch_bend_c, 1, 8192
2, 280640, Pitch_bend_c, 1, 8320
2, 280800, Pitch_bend_c, 1, 8192
2, 280960, Pitch_bend_c, 1, 8320
2, 281120, Pitch_bend_c, 1, 8192
2, 281280, Pitch_bend_c, 1, 8320
2, 281280, Pitch_bend_c, 1, 8192
2, 281280, Note_off_c, 1, 80, 95
2, 281280, Note_on_c, 1, 63, 47
2, 281400, Pitch_bend_c, 1, 6528
2, 281520, Pitch_bend_c, 1, 4864
2, 281640, Pitch_bend_c, 1, 3200
2, 281760, Pitch_bend_c, 1, 1536
2, 281880, Pitch_bend_c, 1, 0
2, 282000, Pitch_bend_c, 1, 0
2, 282120, Pitch_bend_c, 1, 0
2, 282240, Pitch_bend_c, 1, 0
2, 282240, Pitch_bend_c, 1, 8192
2, 282240, Note_off_c, 1, 63, 47
2, 282240, Note_on_c, 0, 44, 95
2, 282720, Note_off_c, 0, 44, 95
2, 282720, Note_on_c, 0, 46, 95
2, 283200, Note_off_c, 0, 46, 95
2, 283200, Note_on_c, 0, 47, 95
2, 283680, Note_off_c, 0, 47, 95
2, 283680, Note_on_c, 0, 51, 95
2, 284160, Note_off_c, 0, 51, 95
2, 284160, Note_on_c, 1, 50, 95
2, 284320, Pitch_bend_c, 1, 8192
2, 284480, Pitch_bend_c, 1, 8320
2, 284640, Pitch_bend_c, 1, 8192
2, 284800, Pitch_bend_c, 1, 8320
2, 284960, Pitch_bend_c, 1, 8192
2, 285120, Pitch_bend_c, 1, 8320
2, 285280, Pitch_bend_c, 1, 8192
2, 285440, Pitch_bend_c, 1, 8320
2, 285600, Pitch_bend_c, 1, 8192
2, 285760, Pitch_bend_c, 1, 8320
2, 285920, Pitch_bend_c, 1, 8192
2, 286080, Pitch_bend_c, 1, 8320
2, 286240, Pitch_bend_c, 1, 8192
2, 286400, Pitch_bend_c, 1, 8320
2, 286560, Pitch_bend_c, 1, 8192
2, 286720, Pitch_bend_c, 1, 8320
2, 286880, Pitch_bend_c, 1, 8192
2, 287040, Pitch_bend_c, 1, 8320
2, 287040, Pitch_bend_c, 1, 8192
2, 287040, Note_off_c, 1, 50, 95
2, 288000, Note_on_c, 1, 62, 95
2, 288160, Pitch_bend_c, 1, 8192
2, 288320, Pitch_bend_c, 1, 8320
2, 288480, Pitch_bend_c, 1, 8192
2, 288640, Pitch_bend_c, 1, 8320
2, 288800, Pitch_bend_c, 1, 8192
2, 288960, Pitch_bend_c, 1, 8320
2, 289120, Pitch_bend_c, 1, 8192
2, 289280, Pitch_bend_c, 1, 8320
2, 289440, Pitch_bend_c, 1, 8192
2, 289440, Pitch_bend_c, 1, 8320
2, 289440, Pitch_bend_c, 1, 8192
2, 289440, Note_off_c, 1, 62, 95
2, 289440, Note_on_c, 1, 74, 95
2, 289600, Pitch_bend_c, 1, 8192
2, 289760, Pitch_bend_c, 1, 8320
2, 289920, Pitch_bend_c, 1, 8192
2, 290080, Pitch_bend_c, 1, 8320
2, 290240, Pitch_bend_c, 1, 8192
2, 290400, Pitch_bend_c, 1, 8320
2, 290560, Pitch_bend_c, 1, 8192
2, 290720, Pitch_bend_c, 1, 8320
2, 290880, Pitch_bend_c, 1, 8192
2, 290880, Pitch_bend_c, 1, 8320
2, 290880, Pitch_bend_c, 1, 8192
2, 290880, Note_off_c, 1, 74, 95
2, 290880, Note_on_c, 1, 74, 95
2, 291040, Pitch_bend_c, 1, 8192
2, 291200, Pitch_bend_c, 1, 8320
2, 291360, Pitch_bend_c, 1, 8192
2, 291520, Pitch_bend_c, 1, 8320
2, 291680, Pitch_bend_c, 1, 8192
2, 291840, Pitch_bend_c, 1, 8320
2, 291840, Pitch_bend_c, 1, 8192
2, 291840, Note_off_c, 1, 74, 95
2, 291840, Note_on_c, 1, 74, 95
2, 292000, Pitch_bend_c, 1, 8192
2, 292160, Pitch_bend_c, 1, 8320
2, 292320, Pitch_bend_c, 1, 8192
2, 292480, Pitch_bend_c, 1, 8320
2, 292640, Pitch_bend_c, 1, 8192
2, 292800, Pitch_bend_c, 1, 8320
2, 292960, Pitch_bend_c, 1, 8192
2, 293120, Pitch_bend_c, 1, 8320
2, 293280, Pitch_bend_c, 1, 8192
2, 293280, Pitch_bend_c, 1, 8320
2, 293280, Pitch_bend_c, 1, 8192
2, 293280, Note_off_c, 1, 74, 95
2, 293280, Note_on_c, 0, 63, 79
2, 293340, Note_off_c, 0, 63, 79
2, 293340, Note_on_c, 0, 62, 79
2, 293400, Note_off_c, 0, 62, 79
2, 293400, Note_on_c, 0, 61, 79
2, 293460, Note_off_c, 0, 61, 79
2, 293460, Note_on_c, 0, 60, 79
2, 293520, Note_off_c, 0, 60, 79
2, 293520, Note_on_c, 0, 59, 79
2, 293580, Note_off_c, 0, 59, 79
2, 293580, Note_on_c, 0, 58, 79
2, 293640, Note_off_c, 0, 58, 79
2, 293640, Note_on_c, 0, 57, 79
2, 293700, Note_off_c, 0, 57, 79
2, 293700, Note_on_c, 0, 56, 79
2, 293760, Note_off_c, 0, 56, 79
2, 293760, Note_on_c, 0, 55, 79
2, 293820, Note_off_c, 0, 55, 79
2, 293820, Note_on_c, 0, 54, 79
2, 293880, Note_off_c, 0, 54, 79
2, 293880, Note_on_c, 0, 52, 79
2, 293940, Note_off_c, 0, 52, 79
2, 293940, Note_on_c, 0, 51, 79
2, 294000, Note_off_c, 0, 51, 79
2, 294000, Note_on_c, 0, 50, 79
2, 294060, Note_off_c, 0, 50, 79
2, 294060, Note_on_c, 0, 49, 79
2, 294120, Note_off_c, 0, 49, 79
2, 294120, Note_on_c, 0, 48, 79
2, 294180, Note_off_c, 0, 48, 79
2, 294180, Note_on_c, 0, 47, 79
2, 294240, Note_off_c, 0, 47, 79
2, 294240, Note_on_c, 0, 46, 79
2, 294300, Note_off_c, 0, 46, 79
2, 294300, Note_on_c, 0, 45, 79
2, 294360, Note_off_c, 0, 45, 79
2, 294360, Note_on_c, 0, 44, 79
2, 294420, Note_off_c, 0, 44, 79
2, 294420, Note_on_c, 0, 43, 79
2, 294480, Note_off_c, 0, 43, 79
2, 294480, Note_on_c, 0, 42, 79
2, 294540, Note_off_c, 0, 42, 79
2, 294540, Note_on_c, 0, 41, 79
2, 294600, Note_off_c, 0, 41, 79
2, 294720, Pitch_bend_c, 1, 8192
2, 294720, Note_on_c, 1, 56, 95
2, 294850, Pitch_bend_c, 1, 8320
2, 294980, Pitch_bend_c, 1, 8448
2, 295110, Pitch_bend_c, 1, 8576
2, 295240, Pitch_bend_c, 1, 8704
2, 295370, Pitch_bend_c, 1, 8832
2, 295500, Pitch_bend_c, 1, 8960
2, 295630, Pitch_bend_c, 1, 9088
2, 295760, Pitch_bend_c, 1, 9216
2, 295890, Pitch_bend_c, 1, 9344
2, 296020, Pitch_bend_c, 1, 9472
2, 296150, Pitch_bend_c, 1, 9600
2, 296160, Pitch_bend_c, 1, 9600
2, 297600, Pitch_bend_c, 1, 9600
2, 297600, Pitch_bend_c, 1, 8192
2, 297600, Note_off_c, 1, 56, 95
2, 298080, Note_on_c, 1, 47, 95
2, 298200, Pitch_bend_c, 1, 8832
2, 298320, Pitch_bend_c, 1, 9600
2, 298320, Pitch_bend_c, 1, 8192
2, 298320, Note_off_c, 1, 47, 95
2, 298320, Note_on_c, 0, 49, 95
2, 298800, Note_off_c, 0, 49, 95
2, 298800, Note_on_c, 0, 47, 95
2, 299520, Note_off_c, 0, 47, 95
2, 299520, Note_on_c, 0, 51, 95
2, 299520, Note_on_c, 0, 44, 95
2, 300000, Note_off_c, 0, 51, 95
2, 300000, Note_off_c, 0, 44, 95
2, 300000, Note_on_c, 0, 51, 95
2, 300000, Note_on_c, 0, 44, 95
2, 300480, Note_off_c, 0, 51, 95
2, 300480, Note_off_c, 0, 44, 95
2, 300960, Note_on_c, 0, 51, 95
2, 300960, Note_on_c, 0, 44, 95
2, 301440, Note_off_c, 0, 51, 95
2, 301440, Note_off_c, 0, 44, 95
2, 302400, Note_on_c, 0, 39, 95
2, 302511, Note_off_c, 0, 39, 95
2, 302880, Note_on_c, 0, 42, 95
2, 302991, Note_off_c, 0, 42, 95
2, 303360, Note_on_c, 0, 51, 95
2, 303360, Note_on_c, 0, 44, 95
2, 303840, Note_off_c, 0, 51, 95
2, 303840, Note_off_c, 0, 44, 95
2, 303840, Note_on_c, 0, 51, 95
2, 303840, Note_on_c, 0, 44, 95
2, 304320, Note_off_c, 0, 51, 95
2, 304320, Note_off_c, 0, 44, 95
2, 304800, Note_on_c, 0, 51, 95
2, 304800, Note_on_c, 0, 44, 95
2, 305280, Note_off_c, 0, 51, 95
2, 305280, Note_off_c, 0, 44, 95
2, 306240, Note_on_c, 0, 39, 95
2, 306351, Note_off_c, 0, 39, 95
2, 306720, Note_on_c, 0, 42, 95
2, 306831, Note_off_c, 0, 42, 95
2, 307200, Note_on_c, 0, 51, 95
2, 307200, Note_on_c, 0, 44, 95
2, 307680, Note_off_c, 0, 51, 95
2, 307680, Note_off_c, 0, 44, 95
2, 307680, Note_on_c, 0, 51, 95
2, 307680, Note_on_c, 0, 44, 95
2, 308160, Note_off_c, 0, 51, 95
2, 308160, Note_off_c, 0, 44, 95
2, 308640, Note_on_c, 0, 51, 95
2, 308640, Note_on_c, 0, 44, 95
2, 309120, Note_off_c, 0, 51, 95
2, 309120, Note_off_c, 0, 44, 95
2, 310080, Note_on_c, 0, 39, 95
2, 310191, Note_off_c, 0, 39, 95
2, 310560, Note_on_c, 0, 42, 95
2, 310671, Note_off_c, 0, 42, 95
2, 311040, Note_on_c, 0, 51, 95
2, 311040, Note_on_c, 0, 44, 95
2, 311520, Note_off_c, 0, 51, 95
2, 311520, Note_off_c, 0, 44, 95
2, 311520, Note_on_c, 0, 51, 95
2, 311520, Note_on_c, 0, 44, 95
2, 312000, Note_off_c, 0, 51, 95
2, 312000, Note_off_c, 0, 44, 95
2, 312480, Note_on_c, 0, 51, 95
2, 312480, Note_on_c, 0, 44, 95
2, 312960, Note_off_c, 0, 51, 95
2, 312960, Note_off_c, 0, 44, 95
2, 313920, Note_on_c, 1, 56, 95
2, 314040, Pitch_bend_c, 1, 7168
2, 314160, Pitch_bend_c, 1, 6144
2, 314280, Pitch_bend_c, 1, 5120
2, 314400, Pitch_bend_c, 1, 3968
2, 314520, Pitch_bend_c, 1, 2944
2, 314640, Pitch_bend_c, 1, 1920
2, 314760, Pitch_bend_c, 1, 896
2, 314880, Pitch_bend_c, 1, 0
2, 314880, Pitch_bend_c, 1, 8192
2, 314880, Note_off_c, 1, 56, 95
2, 314880, Note_on_c, 1, 44, 95
2, 315040, Pitch_bend_c, 1, 8192
2, 315200, Pitch_bend_c, 1, 8320
2, 315360, Pitch_bend_c, 1, 8192
2, 315520, Pitch_bend_c, 1, 8320
2, 315680, Pitch_bend_c, 1, 8192
2, 315840, Pitch_bend_c, 1, 8320
2, 316000, Pitch_bend_c, 1, 8192
2, 316160, Pitch_bend_c, 1, 8320
2, 316320, Pitch_bend_c, 1, 8192
2, 316320, Pitch_bend_c, 1, 8320
2, 316320, Pitch_bend_c, 1, 8192
2, 316320, Note_off_c, 1, 44, 95
2, 316320, Note_on_c, 0, 46, 95
2, 316800, Note_off_c, 0, 46, 95
2, 316800, Note_on_c, 0, 47, 95
2, 317280, Note_off_c, 0, 47, 95
2, 317280, Note_on_c, 0, 51, 95
2, 318240, Note_off_c, 0, 51, 95
2, 318240, Note_on_c, 0, 50, 95
2, 319200, Note_off_c, 0, 50, 95
2, 319200, Note_on_c, 0, 51, 70
2, 319360, Note_off_c, 0, 51, 70
2, 319360, Note_on_c, 0, 50, 70
2, 319520, Note_off_c, 0, 50, 70
2, 319520, Note_on_c, 0, 51, 70
2, 319680, Note_off_c, 0, 51, 70
2, 319680, Note_on_c, 0, 50, 70
2, 319840, Note_off_c, 0, 50, 70
2, 319840, Note_on_c, 0, 51, 70
2, 320000, Note_off_c, 0, 51, 70
2, 320000, Note_on_c, 0, 50, 70
2, 320160, Note_off_c, 0, 50, 70
2, 320160, Note_on_c, 0, 51, 70
2, 320320, Note_off_c, 0, 51, 70
2, 320320, Note_on_c, 0, 50, 70
2, 320480, Note_off_c, 0, 50, 70
2, 320480, Note_on_c, 0, 51, 70
2, 320640, Note_off_c, 0, 51, 70
2, 320640, Note_on_c, 1, 50, 70
2, 320800, Pitch_bend_c, 1, 8192
2, 320960, Pitch_bend_c, 1, 8320
2, 321120, Pitch_bend_c, 1, 8192
2, 321280, Pitch_bend_c, 1, 8320
2, 321440, Pitch_bend_c, 1, 8192
2, 321600, Pitch_bend_c, 1, 8320
2, 321760, Pitch_bend_c, 1, 8192
2, 321920, Pitch_bend_c, 1, 8320
2, 322080, Pitch_bend_c, 1, 8192
2, 322240, Pitch_bend_c, 1, 8320
2, 322320, Pitch_bend_c, 1, 8192
2, 322320, Pitch_bend_c, 1, 8320
2, 322320, Pitch_bend_c, 1, 8192
2, 322320, Note_off_c, 1, 50, 70
2, 322320, Note_on_c, 0, 44, 95
2, 322431, Note_off_c, 0, 44, 95
2, 322560, Note_on_c, 0, 44, 95
2, 322671, Note_off_c, 0, 44, 95
2, 322800, Note_on_c, 0, 44, 95
2, 322911, Note_off_c, 0, 44, 95
2, 323040, Note_on_c, 0, 44, 95
2, 323151, Note_off_c, 0, 44, 95
2, 323280, Note_on_c, 0, 51, 95
2, 323280, Note_on_c, 0, 44, 95
2, 323760, Note_off_c, 0, 51, 95
2, 323760, Note_off_c, 0, 44, 95
2, 323760, End_track
3, 0, Start_track
3, 0, Pitch_bend_c, 2, 8192
3, 0, Control_c, 2, 7, 103
3, 0, Control_c, 2, 10, 63
3, 0, Control_c, 2, 93, 0
3, 0, Control_c, 2, 91, 0
3, 0, Control_c, 2, 95, 0
3, 0, Control_c, 2, 92, 0
3, 0, Control_c, 2, 11, 127
3, 0, Program_c, 2, 33
3, 0, Control_c, 3, 7, 103
3, 0, Control_c, 3, 10, 63
3, 0, Control_c, 3, 93, 0
3, 0, Control_c, 3, 91, 0
3, 0, Control_c, 3, 95, 0
3, 0, Control_c, 3, 92, 0
3, 0, Control_c, 3, 11, 127
3, 0, Program_c, 3, 33
3, 49920, Note_on_c, 2, 27, 95
3, 57600, Note_off_c, 2, 27, 95
3, 57600, Note_on_c, 2, 35, 95
3, 58080, Note_off_c, 2, 35, 95
3, 58080, Note_on_c, 3, 37, 95
3, 59040, Note_off_c, 3, 37, 95
3, 65280, Note_on_c, 2, 27, 95
3, 72960, Note_off_c, 2, 27, 95
3, 72960, Note_on_c, 2, 37, 95
3, 73440, Note_off_c, 2, 37, 95
3, 73440, Note_on_c, 3, 39, 95
3, 74400, Note_off_c, 3, 39, 95
3, 83280, Note_on_c, 3, 35, 95
3, 83400, Pitch_bend_c, 3, 8832
3, 83520, Pitch_bend_c, 3, 9600
3, 83520, Pitch_bend_c, 3, 8192
3, 83520, Note_off_c, 3, 35, 95
3, 83520, Note_on_c, 2, 37, 95
3, 84000, Note_off_c, 2, 37, 95
3, 84000, Note_on_c, 2, 35, 95
3, 84960, Note_off_c, 2, 35, 95
3, 84960, Note_on_c, 2, 32, 95
3, 106560, Note_off_c, 2, 32, 95
3, 106560, Note_on_c, 2, 27, 95
3, 107040, Note_off_c, 2, 27, 95
3, 107040, Note_on_c, 2, 30, 95
3, 107520, Note_off_c, 2, 30, 95
3, 107520, Note_on_c, 2, 32, 95
3, 108000, Note_off_c, 2, 32, 95
3, 108000, Note_on_c, 2, 32, 95
3, 108480, Note_off_c, 2, 32, 95
3, 108960, Note_on_c, 2, 32, 95
3, 109440, Note_off_c, 2, 32, 95
3, 110400, Note_on_c, 2, 27, 95
3, 110880, Note_off_c, 2, 27, 95
3, 110880, Note_on_c, 2, 30, 95
3, 111360, Note_off_c, 2, 30, 95
3, 111360, Note_on_c, 2, 32, 95
3, 111840, Note_off_c, 2, 32, 95
3, 111840, Note_on_c, 2, 32, 95
3, 112320, Note_off_c, 2, 32, 95
3, 112800, Note_on_c, 2, 32, 95
3, 113280, Note_off_c, 2, 32, 95
3, 114240, Note_on_c, 2, 27, 95
3, 114720, Note_off_c, 2, 27, 95
3, 114720, Note_on_c, 2, 30, 95
3, 115200, Note_off_c, 2, 30, 95
3, 115200, Note_on_c, 2, 32, 95
3, 115680, Note_off_c, 2, 32, 95
3, 115680, Note_on_c, 2, 32, 95
3, 116160, Note_off_c, 2, 32, 95
3, 116640, Note_on_c, 2, 32, 95
3, 117120, Note_off_c, 2, 32, 95
3, 118080, Note_on_c, 2, 27, 95
3, 118560, Note_off_c, 2, 27, 95
3, 118560, Note_on_c, 2, 30, 95
3, 119040, Note_off_c, 2, 30, 95
3, 119040, Note_on_c, 2, 32, 95
3, 119520, Note_off_c, 2, 32, 95
3, 119520, Note_on_c, 2, 32, 95
3, 120000, Note_off_c, 2, 32, 95
3, 120480, Note_on_c, 2, 32, 95
3, 120960, Note_off_c, 2, 32, 95
3, 121920, Note_on_c, 2, 27, 95
3, 122400, Note_off_c, 2, 27, 95
3, 122400, Note_on_c, 2, 30, 95
3, 122880, Note_off_c, 2, 30, 95
3, 122880, Note_on_c, 2, 32, 95
3, 123360, Note_off_c, 2, 32, 95
3, 123360, Note_on_c, 2, 32, 95
3, 123840, Note_off_c, 2, 32, 95
3, 124320, Note_on_c, 2, 32, 95
3, 124800, Note_off_c, 2, 32, 95
3, 125760, Note_on_c, 2, 27, 95
3, 126240, Note_off_c, 2, 27, 95
3, 126240, Note_on_c, 2, 30, 95
3, 126720, Note_off_c, 2, 30, 95
3, 126720, Note_on_c, 2, 32, 95
3, 127200, Note_off_c, 2, 32, 95
3, 127200, Note_on_c, 2, 32, 95
3, 127680, Note_off_c, 2, 32, 95
3, 128160, Note_on_c, 2, 32, 95
3, 128640, Note_off_c, 2, 32, 95
3, 129600, Note_on_c, 2, 27, 95
3, 130080, Note_off_c, 2, 27, 95
3, 130080, Note_on_c, 2, 30, 95
3, 130560, Note_off_c, 2, 30, 95
3, 130560, Note_on_c, 2, 32, 95
3, 131040, Note_off_c, 2, 32, 95
3, 131040, Note_on_c, 2, 32, 95
3, 131520, Note_off_c, 2, 32, 95
3, 132000, Note_on_c, 2, 32, 95
3, 132480, Note_off_c, 2, 32, 95
3, 133440, Note_on_c, 2, 27, 95
3, 133920, Note_off_c, 2, 27, 95
3, 133920, Note_on_c, 2, 30, 95
3, 134400, Note_off_c, 2, 30, 95
3, 134400, Note_on_c, 2, 32, 95
3, 134880, Note_off_c, 2, 32, 95
3, 134880, Note_on_c, 2, 32, 95
3, 135360, Note_off_c, 2, 32, 95
3, 135840, Note_on_c, 2, 32, 95
3, 136320, Note_off_c, 2, 32, 95
3, 136800, Note_on_c, 2, 27, 95
3, 137280, Note_off_c, 2, 27, 95
3, 137280, Note_on_c, 2, 30, 95
3, 137760, Note_off_c, 2, 30, 95
3, 137760, Note_on_c, 2, 27, 95
3, 138240, Note_off_c, 2, 27, 95
3, 138240, Note_on_c, 2, 32, 95
3, 138720, Note_off_c, 2, 32, 95
3, 138720, Note_on_c, 2, 32, 95
3, 139200, Note_off_c, 2, 32, 95
3, 139680, Note_on_c, 2, 32, 95
3, 140160, Note_off_c, 2, 32, 95
3, 141120, Note_on_c, 2, 27, 95
3, 141600, Note_off_c, 2, 27, 95
3, 141600, Note_on_c, 2, 30, 95
3, 142080, Note_off_c, 2, 30, 95
3, 142080, Note_on_c, 2, 32, 95
3, 142560, Note_off_c, 2, 32, 95
3, 142560, Note_on_c, 2, 32, 95
3, 143040, Note_off_c, 2, 32, 95
3, 143520, Note_on_c, 2, 32, 95
3, 144000, Note_off_c, 2, 32, 95
3, 144960, Note_on_c, 2, 27, 95
3, 145440, Note_off_c, 2, 27, 95
3, 145440, Note_on_c, 2, 30, 95
3, 145920, Note_off_c, 2, 30, 95
3, 145920, Note_on_c, 2, 32, 95
3, 146400, Note_off_c, 2, 32, 95
3, 146400, Note_on_c, 2, 32, 95
3, 146880, Note_off_c, 2, 32, 95
3, 147360, Note_on_c, 2, 32, 95
3, 147840, Note_off_c, 2, 32, 95
3, 148800, Note_on_c, 2, 27, 95
3, 149280, Note_off_c, 2, 27, 95
3, 149280, Note_on_c, 2, 30, 95
3, 149760, Note_off_c, 2, 30, 95
3, 149760, Note_on_c, 2, 32, 95
3, 150240, Note_off_c, 2, 32, 95
3, 150240, Note_on_c, 2, 32, 95
3, 150720, Note_off_c, 2, 32, 95
3, 151200, Note_on_c, 2, 32, 95
3, 151680, Note_off_c, 2, 32, 95
3, 152160, Note_on_c, 2, 27, 95
3, 152640, Note_off_c, 2, 27, 95
3, 152640, Note_on_c, 2, 30, 95
3, 153120, Note_off_c, 2, 30, 95
3, 153120, Note_on_c, 2, 27, 95
3, 153600, Note_off_c, 2, 27, 95
3, 153600, Note_on_c, 2, 32, 95
3, 154080, Note_off_c, 2, 32, 95
3, 154080, Note_on_c, 2, 32, 95
3, 154560, Note_off_c, 2, 32, 95
3, 155040, Note_on_c, 2, 32, 95
3, 155520, Note_off_c, 2, 32, 95
3, 156480, Note_on_c, 2, 27, 95
3, 156960, Note_off_c, 2, 27, 95
3, 156960, Note_on_c, 2, 30, 95
3, 157440, Note_off_c, 2, 30, 95
3, 157440, Note_on_c, 2, 32, 95
3, 157920, Note_off_c, 2, 32, 95
3, 157920, Note_on_c, 2, 32, 95
3, 158400, Note_off_c, 2, 32, 95
3, 158880, Note_on_c, 2, 32, 95
3, 159360, Note_off_c, 2, 32, 95
3, 160320, Note_on_c, 2, 27, 95
3, 160800, Note_off_c, 2, 27, 95
3, 160800, Note_on_c, 2, 30, 95
3, 161280, Note_off_c, 2, 30, 95
3, 161280, Note_on_c, 2, 32, 95
3, 161760, Note_off_c, 2, 32, 95
3, 161760, Note_on_c, 2, 32, 95
3, 162240, Note_off_c, 2, 32, 95
3, 162720, Note_on_c, 2, 32, 95
3, 163200, Note_off_c, 2, 32, 95
3, 164160, Note_on_c, 2, 27, 95
3, 164640, Note_off_c, 2, 27, 95
3, 164640, Note_on_c, 2, 30, 95
3, 165120, Note_off_c, 2, 30, 95
3, 165120, Note_on_c, 2, 32, 95
3, 165600, Note_off_c, 2, 32, 95
3, 165600, Note_on_c, 2, 32, 95
3, 166080, Note_off_c, 2, 32, 95
3, 166560, Note_on_c, 2, 32, 95
3, 167040, Note_off_c, 2, 32, 95
3, 167520, Note_on_c, 2, 27, 95
3, 168000, Note_off_c, 2, 27, 95
3, 168000, Note_on_c, 2, 30, 95
3, 168480, Note_off_c, 2, 30, 95
3, 168480, Note_on_c, 2, 27, 95
3, 168960, Note_off_c, 2, 27, 95
3, 168960, Note_on_c, 2, 32, 95
3, 169440, Note_off_c, 2, 32, 95
3, 169440, Note_on_c, 2, 32, 95
3, 169920, Note_off_c, 2, 32, 95
3, 170400, Note_on_c, 2, 32, 95
3, 170880, Note_off_c, 2, 32, 95
3, 171360, Note_on_c, 2, 27, 95
3, 171840, Note_off_c, 2, 27, 95
3, 171840, Note_on_c, 2, 30, 95
3, 172320, Note_off_c, 2, 30, 95
3, 172320, Note_on_c, 2, 27, 95
3, 172800, Note_off_c, 2, 27, 95
3, 172800, Note_on_c, 2, 32, 95
3, 173280, Note_off_c, 2, 32, 95
3, 173280, Note_on_c, 2, 32, 95
3, 173760, Note_off_c, 2, 32, 95
3, 174240, Note_on_c, 2, 32, 95
3, 174720, Note_off_c, 2, 32, 95
3, 175200, Note_on_c, 2, 27, 95
3, 175680, Note_off_c, 2, 27, 95
3, 175680, Note_on_c, 2, 30, 95
3, 176160, Note_off_c, 2, 30, 95
3, 176160, Note_on_c, 2, 27, 95
3, 176640, Note_off_c, 2, 27, 95
3, 176640, Note_on_c, 2, 32, 95
3, 177120, Note_off_c, 2, 32, 95
3, 177120, Note_on_c, 2, 32, 95
3, 177600, Note_off_c, 2, 32, 95
3, 178080, Note_on_c, 2, 32, 95
3, 178560, Note_off_c, 2, 32, 95
3, 179040, Note_on_c, 2, 27, 95
3, 179520, Note_off_c, 2, 27, 95
3, 179520, Note_on_c, 2, 30, 95
3, 180000, Note_off_c, 2, 30, 95
3, 180000, Note_on_c, 2, 27, 95
3, 180480, Note_off_c, 2, 27, 95
3, 180480, Note_on_c, 2, 32, 95
3, 180960, Note_off_c, 2, 32, 95
3, 180960, Note_on_c, 2, 32, 95
3, 181440, Note_off_c, 2, 32, 95
3, 181920, Note_on_c, 2, 32, 95
3, 182400, Note_off_c, 2, 32, 95
3, 182400, Note_on_c, 2, 32, 95
3, 182880, Note_off_c, 2, 32, 95
3, 182880, Note_on_c, 2, 34, 95
3, 183360, Note_off_c, 2, 34, 95
3, 183360, Note_on_c, 2, 35, 95
3, 183840, Note_off_c, 2, 35, 95
3, 183840, Note_on_c, 2, 39, 95
3, 184320, Note_off_c, 2, 39, 95
3, 184320, Note_on_c, 2, 38, 95
3, 184800, Note_off_c, 2, 38, 95
3, 184800, Note_on_c, 2, 38, 95
3, 185280, Note_off_c, 2, 38, 95
3, 185760, Note_on_c, 2, 38, 95
3, 186240, Note_off_c, 2, 38, 95
3, 188160, Note_on_c, 2, 38, 95
3, 188640, Note_off_c, 2, 38, 95
3, 188640, Note_on_c, 2, 38, 95
3, 189120, Note_off_c, 2, 38, 95
3, 189600, Note_on_c, 2, 38, 95
3, 190080, Note_off_c, 2, 38, 95
3, 190560, Note_on_c, 3, 35, 95
3, 190680, Pitch_bend_c, 3, 8832
3, 190800, Pitch_bend_c, 3, 9600
3, 190800, Pitch_bend_c, 3, 8192
3, 190800, Note_off_c, 3, 35, 95
3, 190800, Note_on_c, 2, 37, 95
3, 191280, Note_off_c, 2, 37, 95
3, 191280, Note_on_c, 2, 35, 95
3, 192000, Note_off_c, 2, 35, 95
3, 192000, Note_on_c, 2, 32, 95
3, 192480, Note_off_c, 2, 32, 95
3, 192480, Note_on_c, 2, 32, 95
3, 192960, Note_off_c, 2, 32, 95
3, 193440, Note_on_c, 2, 32, 95
3, 193920, Note_off_c, 2, 32, 95
3, 194880, Note_on_c, 2, 27, 95
3, 195360, Note_off_c, 2, 27, 95
3, 195360, Note_on_c, 2, 30, 95
3, 195840, Note_off_c, 2, 30, 95
3, 195840, Note_on_c, 2, 32, 95
3, 196320, Note_off_c, 2, 32, 95
3, 196320, Note_on_c, 2, 32, 95
3, 196800, Note_off_c, 2, 32, 95
3, 197280, Note_on_c, 2, 32, 95
3, 197760, Note_off_c, 2, 32, 95
3, 198720, Note_on_c, 2, 27, 95
3, 199200, Note_off_c, 2, 27, 95
3, 199200, Note_on_c, 2, 30, 95
3, 199680, Note_off_c, 2, 30, 95
3, 199680, Note_on_c, 2, 32, 95
3, 200160, Note_off_c, 2, 32, 95
3, 200160, Note_on_c, 2, 32, 95
3, 200640, Note_off_c, 2, 32, 95
3, 201120, Note_on_c, 2, 32, 95
3, 201600, Note_off_c, 2, 32, 95
3, 202560, Note_on_c, 2, 27, 95
3, 203040, Note_off_c, 2, 27, 95
3, 203040, Note_on_c, 2, 30, 95
3, 203520, Note_off_c, 2, 30, 95
3, 203520, Note_on_c, 2, 32, 95
3, 204000, Note_off_c, 2, 32, 95
3, 204000, Note_on_c, 2, 32, 95
3, 204480, Note_off_c, 2, 32, 95
3, 204960, Note_on_c, 2, 32, 95
3, 205440, Note_off_c, 2, 32, 95
3, 206400, Note_on_c, 2, 27, 95
3, 206880, Note_off_c, 2, 27, 95
3, 206880, Note_on_c, 2, 30, 95
3, 207360, Note_off_c, 2, 30, 95
3, 207360, Note_on_c, 2, 32, 95
3, 207840, Note_off_c, 2, 32, 95
3, 207840, Note_on_c, 2, 32, 95
3, 208320, Note_off_c, 2, 32, 95
3, 208800, Note_on_c, 2, 32, 95
3, 209280, Note_off_c, 2, 32, 95
3, 210240, Note_on_c, 2, 27, 95
3, 210720, Note_off_c, 2, 27, 95
3, 210720, Note_on_c, 2, 30, 95
3, 211200, Note_off_c, 2, 30, 95
3, 211200, Note_on_c, 2, 32, 95
3, 211680, Note_off_c, 2, 32, 95
3, 211680, Note_on_c, 2, 32, 95
3, 212160, Note_off_c, 2, 32, 95
3, 212640, Note_on_c, 2, 32, 95
3, 213120, Note_off_c, 2, 32, 95
3, 214080, Note_on_c, 2, 27, 95
3, 214560, Note_off_c, 2, 27, 95
3, 214560, Note_on_c, 2, 30, 95
3, 215040, Note_off_c, 2, 30, 95
3, 215040, Note_on_c, 2, 32, 95
3, 215520, Note_off_c, 2, 32, 95
3, 215520, Note_on_c, 2, 32, 95
3, 216000, Note_off_c, 2, 32, 95
3, 216480, Note_on_c, 2, 32, 95
3, 216960, Note_off_c, 2, 32, 95
3, 217440, Note_on_c, 3, 37, 95
3, 217560, Pitch_bend_c, 3, 8832
3, 217680, Pitch_bend_c, 3, 9600
3, 217680, Pitch_bend_c, 3, 8192
3, 217680, Note_off_c, 3, 37, 95
3, 217680, Note_on_c, 2, 39, 95
3, 217920, Note_on_c, 2, 42, 95
3, 218880, Note_off_c, 2, 39, 95
3, 218880, Note_off_c, 2, 42, 95
3, 218880, Note_on_c, 3, 44, 95
3, 219000, Pitch_bend_c, 3, 8448
3, 219120, Pitch_bend_c, 3, 8704
3, 219240, Pitch_bend_c, 3, 8960
3, 219360, Pitch_bend_c, 3, 9216
3, 219480, Pitch_bend_c, 3, 9472
3, 219600, Pitch_bend_c, 3, 9728
3, 219720, Pitch_bend_c, 3, 9984
3, 219840, Pitch_bend_c, 3, 10240
3, 219840, Pitch_bend_c, 3, 8192
3, 219840, Note_off_c, 3, 44, 95
3, 219840, Note_on_c, 2, 47, 95
3, 220080, Note_off_c, 2, 47, 95
3, 220320, Note_on_c, 3, 44, 95
3, 221280, Note_off_c, 3, 44, 95
3, 221280, Note_on_c, 2, 27, 95
3, 221760, Note_off_c, 2, 27, 95
3, 221760, Note_on_c, 2, 30, 95
3, 222240, Note_off_c, 2, 30, 95
3, 222240, Note_on_c, 2, 27, 95
3, 222720, Note_off_c, 2, 27, 95
3, 222720, Note_on_c, 2, 32, 95
3, 223200, Note_off_c, 2, 32, 95
3, 223200, Note_on_c, 2, 32, 95
3, 223680, Note_off_c, 2, 32, 95
3, 224160, Note_on_c, 2, 32, 95
3, 224640, Note_off_c, 2, 32, 95
3, 225120, Note_on_c, 2, 27, 95
3, 225600, Note_off_c, 2, 27, 95
3, 225600, Note_on_c, 2, 30, 95
3, 226080, Note_off_c, 2, 30, 95
3, 226080, Note_on_c, 2, 27, 95
3, 226560, Note_off_c, 2, 27, 95
3, 226560, Note_on_c, 2, 32, 95
3, 227040, Note_off_c, 2, 32, 95
3, 227040, Note_on_c, 2, 32, 95
3, 227520, Note_off_c, 2, 32, 95
3, 228000, Note_on_c, 2, 32, 95
3, 228480, Note_off_c, 2, 32, 95
3, 228960, Note_on_c, 2, 27, 95
3, 229440, Note_off_c, 2, 27, 95
3, 229440, Note_on_c, 2, 30, 95
3, 229920, Note_off_c, 2, 30, 95
3, 229920, Note_on_c, 2, 27, 95
3, 230400, Note_off_c, 2, 27, 95
3, 230400, Note_on_c, 2, 32, 95
3, 230880, Note_off_c, 2, 32, 95
3, 230880, Note_on_c, 2, 32, 95
3, 231360, Note_off_c, 2, 32, 95
3, 231840, Note_on_c, 2, 32, 95
3, 232320, Note_off_c, 2, 32, 95
3, 232800, Note_on_c, 2, 27, 95
3, 233280, Note_off_c, 2, 27, 95
3, 233280, Note_on_c, 2, 30, 95
3, 233760, Note_off_c, 2, 30, 95
3, 233760, Note_on_c, 2, 27, 95
3, 234240, Note_off_c, 2, 27, 95
3, 234240, Note_on_c, 2, 32, 95
3, 234720, Note_off_c, 2, 32, 95
3, 234720, Note_on_c, 2, 32, 95
3, 235200, Note_off_c, 2, 32, 95
3, 235680, Note_on_c, 2, 32, 95
3, 236160, Note_off_c, 2, 32, 95
3, 236640, Note_on_c, 2, 27, 95
3, 237120, Note_off_c, 2, 27, 95
3, 237120, Note_on_c, 2, 30, 95
3, 237600, Note_off_c, 2, 30, 95
3, 237600, Note_on_c, 2, 27, 95
3, 238080, Note_off_c, 2, 27, 95
3, 238080, Note_on_c, 2, 32, 95
3, 238560, Note_off_c, 2, 32, 95
3, 238560, Note_on_c, 2, 32, 95
3, 239040, Note_off_c, 2, 32, 95
3, 239520, Note_on_c, 2, 32, 95
3, 240000, Note_off_c, 2, 32, 95
3, 240480, Note_on_c, 2, 27, 95
3, 240960, Note_off_c, 2, 27, 95
3, 240960, Note_on_c, 2, 30, 95
3, 241440, Note_off_c, 2, 30, 95
3, 241440, Note_on_c, 2, 27, 95
3, 241920, Note_off_c, 2, 27, 95
3, 241920, Note_on_c, 2, 32, 95
3, 242400, Note_off_c, 2, 32, 95
3, 242400, Note_on_c, 2, 32, 95
3, 242880, Note_off_c, 2, 32, 95
3, 243360, Note_on_c, 2, 32, 95
3, 243840, Note_off_c, 2, 32, 95
3, 244320, Note_on_c, 2, 27, 95
3, 244800, Note_off_c, 2, 27, 95
3, 244800, Note_on_c, 2, 30, 95
3, 245280, Note_off_c, 2, 30, 95
3, 245280, Note_on_c, 2, 27, 95
3, 245760, Note_off_c, 2, 27, 95
3, 245760, Note_on_c, 2, 32, 95
3, 246240, Note_off_c, 2, 32, 95
3, 246240, Note_on_c, 2, 32, 95
3, 246720, Note_off_c, 2, 32, 95
3, 247200, Note_on_c, 2, 32, 95
3, 247680, Note_off_c, 2, 32, 95
3, 248160, Note_on_c, 2, 27, 95
3, 248640, Note_off_c, 2, 27, 95
3, 248640, Note_on_c, 2, 30, 95
3, 249120, Note_off_c, 2, 30, 95
3, 249120, Note_on_c, 2, 27, 95
3, 249600, Note_off_c, 2, 27, 95
3, 249600, Note_on_c, 2, 32, 95
3, 250080, Note_off_c, 2, 32, 95
3, 250080, Note_on_c, 2, 32, 95
3, 250560, Note_off_c, 2, 32, 95
3, 251040, Note_on_c, 2, 32, 95
3, 251520, Note_off_c, 2, 32, 95
3, 252000, Note_on_c, 2, 27, 95
3, 252480, Note_off_c, 2, 27, 95
3, 252480, Note_on_c, 2, 30, 95
3, 252960, Note_off_c, 2, 30, 95
3, 252960, Note_on_c, 2, 27, 95
3, 253440, Note_off_c, 2, 27, 95
3, 253440, Note_on_c, 2, 32, 95
3, 253920, Note_off_c, 2, 32, 95
3, 253920, Note_on_c, 2, 32, 95
3, 254400, Note_off_c, 2, 32, 95
3, 254880, Note_on_c, 2, 32, 95
3, 255360, Note_off_c, 2, 32, 95
3, 255840, Note_on_c, 2, 27, 95
3, 256320, Note_off_c, 2, 27, 95
3, 256320, Note_on_c, 2, 30, 95
3, 256800, Note_off_c, 2, 30, 95
3, 256800, Note_on_c, 2, 27, 95
3, 257280, Note_off_c, 2, 27, 95
3, 257280, Note_on_c, 2, 32, 95
3, 257760, Note_off_c, 2, 32, 95
3, 257760, Note_on_c, 2, 32, 95
3, 258240, Note_off_c, 2, 32, 95
3, 258720, Note_on_c, 2, 32, 95
3, 259200, Note_off_c, 2, 32, 95
3, 259680, Note_on_c, 2, 27, 95
3, 260160, Note_off_c, 2, 27, 95
3, 260160, Note_on_c, 2, 30, 95
3, 260640, Note_off_c, 2, 30, 95
3, 260640, Note_on_c, 2, 27, 95
3, 261120, Note_off_c, 2, 27, 95
3, 261120, Note_on_c, 2, 32, 95
3, 261600, Note_off_c, 2, 32, 95
3, 261600, Note_on_c, 2, 32, 95
3, 262080, Note_off_c, 2, 32, 95
3, 262560, Note_on_c, 2, 32, 95
3, 263040, Note_off_c, 2, 32, 95
3, 263520, Note_on_c, 2, 27, 95
3, 264000, Note_off_c, 2, 27, 95
3, 264000, Note_on_c, 2, 30, 95
3, 264480, Note_off_c, 2, 30, 95
3, 264480, Note_on_c, 2, 27, 95
3, 264960, Note_off_c, 2, 27, 95
3, 264960, Note_on_c, 2, 32, 95
3, 265440, Note_off_c, 2, 32, 95
3, 265440, Note_on_c, 2, 32, 95
3, 265920, Note_off_c, 2, 32, 95
3, 266400, Note_on_c, 2, 32, 95
3, 266880, Note_off_c, 2, 32, 95
3, 266880, Note_on_c, 2, 32, 95
3, 267360, Note_off_c, 2, 32, 95
3, 267360, Note_on_c, 2, 34, 95
3, 267840, Note_off_c, 2, 34, 95
3, 267840, Note_on_c, 2, 35, 95
3, 268320, Note_off_c, 2, 35, 95
3, 268320, Note_on_c, 2, 39, 95
3, 268800, Note_off_c, 2, 39, 95
3, 268800, Note_on_c, 2, 38, 95
3, 269280, Note_off_c, 2, 38, 95
3, 269280, Note_on_c, 2, 38, 95
3, 269760, Note_off_c, 2, 38, 95
3, 270240, Note_on_c, 2, 38, 95
3, 272640, Note_off_c, 2, 38, 95
3, 272640, Note_on_c, 2, 38, 95
3, 273120, Note_off_c, 2, 38, 95
3, 273120, Note_on_c, 2, 38, 95
3, 273600, Note_off_c, 2, 38, 95
3, 274080, Note_on_c, 2, 38, 95
3, 274560, Note_off_c, 2, 38, 95
3, 275040, Note_on_c, 2, 37, 95
3, 275760, Note_off_c, 2, 37, 95
3, 275760, Note_on_c, 2, 35, 95
3, 276480, Note_off_c, 2, 35, 95
3, 276480, Note_on_c, 2, 32, 95
3, 276960, Note_off_c, 2, 32, 95
3, 276960, Note_on_c, 2, 32, 95
3, 277440, Note_off_c, 2, 32, 95
3, 277920, Note_on_c, 2, 32, 95
3, 278400, Note_off_c, 2, 32, 95
3, 279360, Note_on_c, 2, 27, 95
3, 279840, Note_off_c, 2, 27, 95
3, 279840, Note_on_c, 2, 30, 95
3, 280320, Note_off_c, 2, 30, 95
3, 280320, Note_on_c, 2, 32, 95
3, 280800, Note_off_c, 2, 32, 95
3, 280800, Note_on_c, 2, 32, 95
3, 281280, Note_off_c, 2, 32, 95
3, 281760, Note_on_c, 2, 32, 95
3, 282240, Note_off_c, 2, 32, 95
3, 282240, Note_on_c, 2, 32, 95
3, 282720, Note_off_c, 2, 32, 95
3, 282720, Note_on_c, 2, 34, 95
3, 283200, Note_off_c, 2, 34, 95
3, 283200, Note_on_c, 2, 35, 95
3, 283680, Note_off_c, 2, 35, 95
3, 283680, Note_on_c, 2, 39, 95
3, 284160, Note_off_c, 2, 39, 95
3, 284160, Note_on_c, 2, 38, 95
3, 284640, Note_off_c, 2, 38, 95
3, 284640, Note_on_c, 2, 38, 95
3, 285120, Note_off_c, 2, 38, 95
3, 285600, Note_on_c, 2, 38, 95
3, 288000, Note_off_c, 2, 38, 95
3, 288000, Note_on_c, 2, 38, 95
3, 288480, Note_off_c, 2, 38, 95
3, 288480, Note_on_c, 2, 38, 95
3, 288960, Note_off_c, 2, 38, 95
3, 289440, Note_on_c, 2, 38, 95
3, 291840, Note_off_c, 2, 38, 95
3, 291840, Note_on_c, 2, 38, 95
3, 292320, Note_off_c, 2, 38, 95
3, 292320, Note_on_c, 2, 38, 95
3, 292800, Note_off_c, 2, 38, 95
3, 293280, Note_on_c, 2, 38, 95
3, 295680, Note_off_c, 2, 38, 95
3, 295680, Note_on_c, 2, 38, 95
3, 296160, Note_off_c, 2, 38, 95
3, 296160, Note_on_c, 2, 38, 95
3, 296640, Note_off_c, 2, 38, 95
3, 297120, Note_on_c, 2, 38, 95
3, 297600, Note_off_c, 2, 38, 95
3, 298080, Note_on_c, 2, 37, 95
3, 298800, Note_off_c, 2, 37, 95
3, 298800, Note_on_c, 2, 35, 95
3, 299520, Note_off_c, 2, 35, 95
3, 299520, Note_on_c, 2, 32, 95
3, 300000, Note_off_c, 2, 32, 95
3, 300000, Note_on_c, 2, 32, 95
3, 300480, Note_off_c, 2, 32, 95
3, 300960, Note_on_c, 2, 32, 95
3, 301440, Note_off_c, 2, 32, 95
3, 302400, Note_on_c, 2, 27, 95
3, 302880, Note_off_c, 2, 27, 95
3, 302880, Note_on_c, 2, 30, 95
3, 303360, Note_off_c, 2, 30, 95
3, 303360, Note_on_c, 2, 32, 95
3, 303840, Note_off_c, 2, 32, 95
3, 303840, Note_on_c, 2, 32, 95
3, 304320, Note_off_c, 2, 32, 95
3, 304800, Note_on_c, 2, 32, 95
3, 305280, Note_off_c, 2, 32, 95
3, 306240, Note_on_c, 2, 27, 95
3, 306720, Note_off_c, 2, 27, 95
3, 306720, Note_on_c, 2, 30, 95
3, 307200, Note_off_c, 2, 30, 95
3, 307200, Note_on_c, 2, 32, 95
3, 307680, Note_off_c, 2, 32, 95
3, 307680, Note_on_c, 2, 32, 95
3, 308160, Note_off_c, 2, 32, 95
3, 308640, Note_on_c, 2, 32, 95
3, 309120, Note_off_c, 2, 32, 95
3, 310080, Note_on_c, 2, 27, 95
3, 310560, Note_off_c, 2, 27, 95
3, 310560, Note_on_c, 2, 30, 95
3, 311040, Note_off_c, 2, 30, 95
3, 311040, Note_on_c, 2, 32, 95
3, 311520, Note_off_c, 2, 32, 95
3, 311520, Note_on_c, 2, 32, 95
3, 312000, Note_off_c, 2, 32, 95
3, 312480, Note_on_c, 2, 32, 95
3, 312960, Note_off_c, 2, 32, 95
3, 314880, Note_on_c, 2, 32, 95
3, 316320, Note_off_c, 2, 32, 95
3, 316320, Note_on_c, 2, 34, 95
3, 316800, Note_off_c, 2, 34, 95
3, 316800, Note_on_c, 2, 35, 95
3, 317280, Note_off_c, 2, 35, 95
3, 317280, Note_on_c, 2, 39, 95
3, 318240, Note_off_c, 2, 39, 95
3, 318240, Note_on_c, 2, 38, 95
3, 322320, Note_off_c, 2, 38, 95
3, 322320, Note_on_c, 2, 32, 95
3, 322560, Note_off_c, 2, 32, 95
3, 322560, Note_on_c, 2, 32, 95
3, 322800, Note_off_c, 2, 32, 95
3, 322800, Note_on_c, 2, 32, 95
3, 323040, Note_off_c, 2, 32, 95
3, 323040, Note_on_c, 2, 32, 95
3, 323280, Note_off_c, 2, 32, 95
3, 323280, Note_on_c, 2, 32, 95
3, 323760, Note_off_c, 2, 32, 95
3, 323760, End_track
4, 0, Start_track
4, 0, Pitch_bend_c, 9, 8192
4, 0, Control_c, 9, 7, 103
4, 0, Control_c, 9, 10, 63
4, 0, Control_c, 9, 93, 0
4, 0, Control_c, 9, 91, 0
4, 0, Control_c, 9, 95, 0
4, 0, Control_c, 9, 92, 0
4, 0, Control_c, 9, 11, 127
4, 0, Program_c, 9, 0
4, 0, Note_on_c, 9, 42, 111
4, 240, Note_off_c, 9, 42, 111
4, 240, Note_on_c, 9, 42, 63
4, 480, Note_off_c, 9, 42, 63
4, 480, Note_on_c, 9, 42, 63
4, 720, Note_off_c, 9, 42, 63
4, 720, Note_on_c, 9, 42, 63
4, 960, Note_off_c, 9, 42, 63
4, 960, Note_on_c, 9, 42, 111
4, 1200, Note_off_c, 9, 42, 111
4, 1200, Note_on_c, 9, 42, 63
4, 1440, Note_off_c, 9, 42, 63
4, 1440, Note_on_c, 9, 42, 63
4, 1680, Note_off_c, 9, 42, 63
4, 1680, Note_on_c, 9, 42, 63
4, 1920, Note_off_c, 9, 42, 63
4, 1920, Note_on_c, 9, 42, 111
4, 2160, Note_off_c, 9, 42, 111
4, 2160, Note_on_c, 9, 42, 63
4, 2400, Note_off_c, 9, 42, 63
4, 2400, Note_on_c, 9, 42, 63
4, 2640, Note_off_c, 9, 42, 63
4, 2640, Note_on_c, 9, 42, 63
4, 2880, Note_off_c, 9, 42, 63
4, 2880, Note_on_c, 9, 42, 111
4, 3120, Note_off_c, 9, 42, 111
4, 3120, Note_on_c, 9, 42, 63
4, 3360, Note_off_c, 9, 42, 63
4, 3360, Note_on_c, 9, 42, 63
4, 3600, Note_off_c, 9, 42, 63
4, 3600, Note_on_c, 9, 42, 63
4, 3840, Note_off_c, 9, 42, 63
4, 3840, Note_on_c, 9, 42, 111
4, 4080, Note_off_c, 9, 42, 111
4, 4080, Note_on_c, 9, 42, 63
4, 4320, Note_off_c, 9, 42, 63
4, 4320, Note_on_c, 9, 42, 63
4, 4560, Note_off_c, 9, 42, 63
4, 4560, Note_on_c, 9, 42, 63
4, 4800, Note_off_c, 9, 42, 63
4, 4800, Note_on_c, 9, 42, 111
4, 5040, Note_off_c, 9, 42, 111
4, 5040, Note_on_c, 9, 42, 63
4, 5280, Note_off_c, 9, 42, 63
4, 5280, Note_on_c, 9, 42, 63
4, 5520, Note_off_c, 9, 42, 63
4, 5520, Note_on_c, 9, 42, 63
4, 5760, Note_off_c, 9, 42, 63
4, 5760, Note_on_c, 9, 42, 111
4, 6000, Note_off_c, 9, 42, 111
4, 6000, Note_on_c, 9, 42, 63
4, 6240, Note_off_c, 9, 42, 63
4, 6240, Note_on_c, 9, 42, 63
4, 6480, Note_off_c, 9, 42, 63
4, 6480, Note_on_c, 9, 42, 63
4, 6720, Note_off_c, 9, 42, 63
4, 6720, Note_on_c, 9, 42, 111
4, 6960, Note_off_c, 9, 42, 111
4, 6960, Note_on_c, 9, 42, 63
4, 7200, Note_off_c, 9, 42, 63
4, 7200, Note_on_c, 9, 42, 63
4, 7440, Note_off_c, 9, 42, 63
4, 7440, Note_on_c, 9, 42, 63
4, 7680, Note_off_c, 9, 42, 63
4, 7680, Note_on_c, 9, 42, 111
4, 7920, Note_off_c, 9, 42, 111
4, 7920, Note_on_c, 9, 42, 63
4, 8160, Note_off_c, 9, 42, 63
4, 8160, Note_on_c, 9, 42, 63
4, 8400, Note_off_c, 9, 42, 63
4, 8400, Note_on_c, 9, 42, 63
4, 8640, Note_off_c, 9, 42, 63
4, 8640, Note_on_c, 9, 42, 111
4, 8880, Note_off_c, 9, 42, 111
4, 8880, Note_on_c, 9, 42, 63
4, 9120, Note_off_c, 9, 42, 63
4, 9120, Note_on_c, 9, 42, 63
4, 9360, Note_off_c, 9, 42, 63
4, 9360, Note_on_c, 9, 42, 63
4, 9600, Note_off_c, 9, 42, 63
4, 9600, Note_on_c, 9, 42, 111
4, 9840, Note_off_c, 9, 42, 111
4, 9840, Note_on_c, 9, 42, 63
4, 10080, Note_off_c, 9, 42, 63
4, 10080, Note_on_c, 9, 42, 63
4, 10320, Note_off_c, 9, 42, 63
4, 10320, Note_on_c, 9, 42, 63
4, 10560, Note_off_c, 9, 42, 63
4, 10560, Note_on_c, 9, 42, 111
4, 10800, Note_off_c, 9, 42, 111
4, 10800, Note_on_c, 9, 42, 63
4, 11040, Note_off_c, 9, 42, 63
4, 11040, Note_on_c, 9, 42, 63
4, 11280, Note_off_c, 9, 42, 63
4, 11280, Note_on_c, 9, 42, 63
4, 11520, Note_off_c, 9, 42, 63
4, 11520, Note_on_c, 9, 42, 111
4, 11760, Note_off_c, 9, 42, 111
4, 11760, Note_on_c, 9, 42, 63
4, 12000, Note_off_c, 9, 42, 63
4, 12000, Note_on_c, 9, 42, 63
4, 12240, Note_off_c, 9, 42, 63
4, 12240, Note_on_c, 9, 42, 63
4, 12480, Note_off_c, 9, 42, 63
4, 12480, Note_on_c, 9, 42, 111
4, 12720, Note_off_c, 9, 42, 111
4, 12720, Note_on_c, 9, 42, 63
4, 12960, Note_off_c, 9, 42, 63
4, 12960, Note_on_c, 9, 42, 63
4, 13200, Note_off_c, 9, 42, 63
4, 13200, Note_on_c, 9, 42, 63
4, 13440, Note_off_c, 9, 42, 63
4, 13440, Note_on_c, 9, 42, 111
4, 13680, Note_off_c, 9, 42, 111
4, 13680, Note_on_c, 9, 42, 63
4, 13920, Note_off_c, 9, 42, 63
4, 13920, Note_on_c, 9, 42, 63
4, 14160, Note_off_c, 9, 42, 63
4, 14160, Note_on_c, 9, 42, 63
4, 14400, Note_off_c, 9, 42, 63
4, 14400, Note_on_c, 9, 42, 111
4, 14640, Note_off_c, 9, 42, 111
4, 14640, Note_on_c, 9, 42, 63
4, 14880, Note_off_c, 9, 42, 63
4, 14880, Note_on_c, 9, 42, 63
4, 15120, Note_off_c, 9, 42, 63
4, 15120, Note_on_c, 9, 42, 63
4, 15360, Note_off_c, 9, 42, 63
4, 15360, Note_on_c, 9, 42, 111
4, 15600, Note_off_c, 9, 42, 111
4, 15600, Note_on_c, 9, 42, 63
4, 15840, Note_off_c, 9, 42, 63
4, 15840, Note_on_c, 9, 42, 63
4, 16080, Note_off_c, 9, 42, 63
4, 16080, Note_on_c, 9, 42, 63
4, 16320, Note_off_c, 9, 42, 63
4, 16320, Note_on_c, 9, 42, 111
4, 16560, Note_off_c, 9, 42, 111
4, 16560, Note_on_c, 9, 42, 63
4, 16800, Note_off_c, 9, 42, 63
4, 16800, Note_on_c, 9, 42, 63
4, 17040, Note_off_c, 9, 42, 63
4, 17040, Note_on_c, 9, 42, 63
4, 17280, Note_off_c, 9, 42, 63
4, 17280, Note_on_c, 9, 42, 111
4, 17520, Note_off_c, 9, 42, 111
4, 17520, Note_on_c, 9, 42, 63
4, 17760, Note_off_c, 9, 42, 63
4, 17760, Note_on_c, 9, 42, 63
4, 18000, Note_off_c, 9, 42, 63
4, 18000, Note_on_c, 9, 42, 63
4, 18240, Note_off_c, 9, 42, 63
4, 18240, Note_on_c, 9, 42, 111
4, 18480, Note_off_c, 9, 42, 111
4, 18480, Note_on_c, 9, 42, 63
4, 18720, Note_off_c, 9, 42, 63
4, 18720, Note_on_c, 9, 42, 63
4, 18960, Note_off_c, 9, 42, 63
4, 18960, Note_on_c, 9, 42, 63
4, 19200, Note_off_c, 9, 42, 63
4, 19200, Note_on_c, 9, 42, 111
4, 19440, Note_off_c, 9, 42, 111
4, 19440, Note_on_c, 9, 42, 63
4, 19680, Note_off_c, 9, 42, 63
4, 19680, Note_on_c, 9, 42, 63
4, 19920, Note_off_c, 9, 42, 63
4, 19920, Note_on_c, 9, 42, 63
4, 20160, Note_off_c, 9, 42, 63
4, 20160, Note_on_c, 9, 42, 111
4, 20400, Note_off_c, 9, 42, 111
4, 20400, Note_on_c, 9, 42, 63
4, 20640, Note_off_c, 9, 42, 63
4, 20640, Note_on_c, 9, 42, 63
4, 20880, Note_off_c, 9, 42, 63
4, 20880, Note_on_c, 9, 42, 63
4, 21120, Note_off_c, 9, 42, 63
4, 21120, Note_on_c, 9, 42, 111
4, 21360, Note_off_c, 9, 42, 111
4, 21360, Note_on_c, 9, 42, 63
4, 21600, Note_off_c, 9, 42, 63
4, 21600, Note_on_c, 9, 42, 63
4, 21840, Note_off_c, 9, 42, 63
4, 21840, Note_on_c, 9, 42, 63
4, 22080, Note_off_c, 9, 42, 63
4, 22080, Note_on_c, 9, 42, 111
4, 22320, Note_off_c, 9, 42, 111
4, 22320, Note_on_c, 9, 42, 63
4, 22560, Note_off_c, 9, 42, 63
4, 22560, Note_on_c, 9, 42, 63
4, 22800, Note_off_c, 9, 42, 63
4, 22800, Note_on_c, 9, 42, 63
4, 23040, Note_off_c, 9, 42, 63
4, 23040, Note_on_c, 9, 42, 111
4, 23280, Note_off_c, 9, 42, 111
4, 23280, Note_on_c, 9, 42, 63
4, 23520, Note_off_c, 9, 42, 63
4, 23520, Note_on_c, 9, 42, 63
4, 23760, Note_off_c, 9, 42, 63
4, 23760, Note_on_c, 9, 42, 63
4, 24000, Note_off_c, 9, 42, 63
4, 24000, Note_on_c, 9, 42, 111
4, 24240, Note_off_c, 9, 42, 111
4, 24240, Note_on_c, 9, 42, 63
4, 24480, Note_off_c, 9, 42, 63
4, 24480, Note_on_c, 9, 42, 63
4, 24720, Note_off_c, 9, 42, 63
4, 24720, Note_on_c, 9, 42, 63
4, 24960, Note_off_c, 9, 42, 63
4, 24960, Note_on_c, 9, 42, 111
4, 25200, Note_off_c, 9, 42, 111
4, 25200, Note_on_c, 9, 42, 63
4, 25440, Note_off_c, 9, 42, 63
4, 25440, Note_on_c, 9, 42, 63
4, 25680, Note_off_c, 9, 42, 63
4, 25680, Note_on_c, 9, 42, 63
4, 25920, Note_off_c, 9, 42, 63
4, 25920, Note_on_c, 9, 42, 111
4, 26160, Note_off_c, 9, 42, 111
4, 26160, Note_on_c, 9, 42, 63
4, 26400, Note_off_c, 9, 42, 63
4, 26400, Note_on_c, 9, 42, 63
4, 26640, Note_off_c, 9, 42, 63
4, 26640, Note_on_c, 9, 42, 63
4, 26880, Note_off_c, 9, 42, 63
4, 26880, Note_on_c, 9, 42, 111
4, 27120, Note_off_c, 9, 42, 111
4, 27120, Note_on_c, 9, 42, 63
4, 27360, Note_off_c, 9, 42, 63
4, 27360, Note_on_c, 9, 42, 63
4, 27600, Note_off_c, 9, 42, 63
4, 27600, Note_on_c, 9, 42, 63
4, 27840, Note_off_c, 9, 42, 63
4, 27840, Note_on_c, 9, 42, 111
4, 28080, Note_off_c, 9, 42, 111
4, 28080, Note_on_c, 9, 42, 63
4, 28320, Note_off_c, 9, 42, 63
4, 28320, Note_on_c, 9, 42, 63
4, 28560, Note_off_c, 9, 42, 63
4, 28560, Note_on_c, 9, 42, 63
4, 28800, Note_off_c, 9, 42, 63
4, 28800, Note_on_c, 9, 42, 111
4, 29040, Note_off_c, 9, 42, 111
4, 29040, Note_on_c, 9, 42, 63
4, 29280, Note_off_c, 9, 42, 63
4, 29280, Note_on_c, 9, 42, 63
4, 29520, Note_off_c, 9, 42, 63
4, 29520, Note_on_c, 9, 42, 63
4, 29760, Note_off_c, 9, 42, 63
4, 29760, Note_on_c, 9, 42, 111
4, 30000, Note_off_c, 9, 42, 111
4, 30000, Note_on_c, 9, 42, 63
4, 30240, Note_off_c, 9, 42, 63
4, 30240, Note_on_c, 9, 42, 63
4, 30480, Note_off_c, 9, 42, 63
4, 30480, Note_on_c, 9, 42, 63
4, 30720, Note_off_c, 9, 42, 63
4, 30720, Note_on_c, 9, 42, 111
4, 30960, Note_off_c, 9, 42, 111
4, 30960, Note_on_c, 9, 42, 63
4, 31200, Note_off_c, 9, 42, 63
4, 31200, Note_on_c, 9, 42, 63
4, 31440, Note_off_c, 9, 42, 63
4, 31440, Note_on_c, 9, 42, 63
4, 31680, Note_off_c, 9, 42, 63
4, 31680, Note_on_c, 9, 42, 111
4, 31920, Note_off_c, 9, 42, 111
4, 31920, Note_on_c, 9, 42, 63
4, 32160, Note_off_c, 9, 42, 63
4, 32160, Note_on_c, 9, 42, 63
4, 32400, Note_off_c, 9, 42, 63
4, 32400, Note_on_c, 9, 42, 63
4, 32640, Note_off_c, 9, 42, 63
4, 32640, Note_on_c, 9, 42, 111
4, 32880, Note_off_c, 9, 42, 111
4, 32880, Note_on_c, 9, 42, 63
4, 33120, Note_off_c, 9, 42, 63
4, 33120, Note_on_c, 9, 42, 63
4, 33360, Note_off_c, 9, 42, 63
4, 33360, Note_on_c, 9, 42, 63
4, 33600, Note_off_c, 9, 42, 63
4, 33600, Note_on_c, 9, 42, 111
4, 33840, Note_off_c, 9, 42, 111
4, 33840, Note_on_c, 9, 42, 63
4, 34080, Note_off_c, 9, 42, 63
4, 34080, Note_on_c, 9, 42, 63
4, 34320, Note_off_c, 9, 42, 63
4, 34320, Note_on_c, 9, 42, 63
4, 34560, Note_off_c, 9, 42, 63
4, 34560, Note_on_c, 9, 42, 111
4, 34800, Note_off_c, 9, 42, 111
4, 34800, Note_on_c, 9, 42, 63
4, 35040, Note_off_c, 9, 42, 63
4, 35040, Note_on_c, 9, 42, 63
4, 35280, Note_off_c, 9, 42, 63
4, 35280, Note_on_c, 9, 42, 63
4, 35520, Note_off_c, 9, 42, 63
4, 35520, Note_on_c, 9, 42, 111
4, 35760, Note_off_c, 9, 42, 111
4, 35760, Note_on_c, 9, 42, 63
4, 36000, Note_off_c, 9, 42, 63
4, 36000, Note_on_c, 9, 42, 63
4, 36240, Note_off_c, 9, 42, 63
4, 36240, Note_on_c, 9, 42, 63
4, 36480, Note_off_c, 9, 42, 63
4, 36480, Note_on_c, 9, 42, 111
4, 36720, Note_off_c, 9, 42, 111
4, 36720, Note_on_c, 9, 42, 63
4, 36960, Note_off_c, 9, 42, 63
4, 36960, Note_on_c, 9, 42, 63
4, 37200, Note_off_c, 9, 42, 63
4, 37200, Note_on_c, 9, 42, 63
4, 37440, Note_off_c, 9, 42, 63
4, 37440, Note_on_c, 9, 42, 111
4, 37680, Note_off_c, 9, 42, 111
4, 37680, Note_on_c, 9, 42, 63
4, 37920, Note_off_c, 9, 42, 63
4, 37920, Note_on_c, 9, 42, 63
4, 38160, Note_off_c, 9, 42, 63
4, 38160, Note_on_c, 9, 42, 63
4, 38400, Note_off_c, 9, 42, 63
4, 38400, Note_on_c, 9, 42, 111
4, 38640, Note_off_c, 9, 42, 111
4, 38640, Note_on_c, 9, 42, 63
4, 38880, Note_off_c, 9, 42, 63
4, 38880, Note_on_c, 9, 42, 63
4, 39120, Note_off_c, 9, 42, 63
4, 39120, Note_on_c, 9, 42, 63
4, 39360, Note_off_c, 9, 42, 63
4, 39360, Note_on_c, 9, 42, 111
4, 39600, Note_off_c, 9, 42, 111
4, 39600, Note_on_c, 9, 42, 63
4, 39840, Note_off_c, 9, 42, 63
4, 39840, Note_on_c, 9, 42, 63
4, 40080, Note_off_c, 9, 42, 63
4, 40080, Note_on_c, 9, 42, 63
4, 40320, Note_off_c, 9, 42, 63
4, 40320, Note_on_c, 9, 42, 111
4, 40560, Note_off_c, 9, 42, 111
4, 40560, Note_on_c, 9, 42, 63
4, 40800, Note_off_c, 9, 42, 63
4, 40800, Note_on_c, 9, 42, 63
4, 41040, Note_off_c, 9, 42, 63
4, 41040, Note_on_c, 9, 42, 63
4, 41280, Note_off_c, 9, 42, 63
4, 41280, Note_on_c, 9, 42, 111
4, 41520, Note_off_c, 9, 42, 111
4, 41520, Note_on_c, 9, 42, 63
4, 41760, Note_off_c, 9, 42, 63
4, 41760, Note_on_c, 9, 42, 63
4, 42000, Note_off_c, 9, 42, 63
4, 42000, Note_on_c, 9, 42, 63
4, 42240, Note_off_c, 9, 42, 63
4, 42240, Note_on_c, 9, 42, 111
4, 42480, Note_off_c, 9, 42, 111
4, 42480, Note_on_c, 9, 42, 63
4, 42720, Note_off_c, 9, 42, 63
4, 42720, Note_on_c, 9, 42, 63
4, 42960, Note_off_c, 9, 42, 63
4, 42960, Note_on_c, 9, 42, 63
4, 43200, Note_off_c, 9, 42, 63
4, 43200, Note_on_c, 9, 42, 111
4, 43440, Note_off_c, 9, 42, 111
4, 43440, Note_on_c, 9, 42, 63
4, 43680, Note_off_c, 9, 42, 63
4, 43680, Note_on_c, 9, 42, 63
4, 43920, Note_off_c, 9, 42, 63
4, 43920, Note_on_c, 9, 42, 63
4, 44160, Note_off_c, 9, 42, 63
4, 44160, Note_on_c, 9, 42, 111
4, 44400, Note_off_c, 9, 42, 111
4, 44400, Note_on_c, 9, 42, 63
4, 44640, Note_off_c, 9, 42, 63
4, 44640, Note_on_c, 9, 42, 63
4, 44880, Note_off_c, 9, 42, 63
4, 44880, Note_on_c, 9, 42, 63
4, 45120, Note_off_c, 9, 42, 63
4, 45120, Note_on_c, 9, 42, 111
4, 45360, Note_off_c, 9, 42, 111
4, 45360, Note_on_c, 9, 42, 63
4, 45600, Note_off_c, 9, 42, 63
4, 45600, Note_on_c, 9, 42, 63
4, 45840, Note_off_c, 9, 42, 63
4, 45840, Note_on_c, 9, 42, 63
4, 46080, Note_off_c, 9, 42, 63
4, 46080, Note_on_c, 9, 46, 95
4, 47040, Note_off_c, 9, 46, 95
4, 47040, Note_on_c, 9, 46, 95
4, 48000, Note_off_c, 9, 46, 95
4, 48000, Note_on_c, 9, 46, 95
4, 48960, Note_off_c, 9, 46, 95
4, 48960, Note_on_c, 9, 46, 95
4, 49920, Note_off_c, 9, 46, 95
4, 49920, Note_on_c, 9, 49, 95
4, 49920, Note_on_c, 9, 36, 95
4, 50880, Note_off_c, 9, 49, 95
4, 50880, Note_off_c, 9, 36, 95
4, 50880, Note_on_c, 9, 42, 111
4, 51120, Note_off_c, 9, 42, 111
4, 51120, Note_on_c, 9, 42, 63
4, 51360, Note_off_c, 9, 42, 63
4, 51360, Note_on_c, 9, 42, 63
4, 51600, Note_off_c, 9, 42, 63
4, 51600, Note_on_c, 9, 42, 63
4, 51840, Note_off_c, 9, 42, 63
4, 51840, Note_on_c, 9, 42, 111
4, 52080, Note_off_c, 9, 42, 111
4, 52080, Note_on_c, 9, 42, 63
4, 52320, Note_off_c, 9, 42, 63
4, 52320, Note_on_c, 9, 42, 63
4, 52560, Note_off_c, 9, 42, 63
4, 52560, Note_on_c, 9, 42, 63
4, 52800, Note_off_c, 9, 42, 63
4, 52800, Note_on_c, 9, 42, 111
4, 53040, Note_off_c, 9, 42, 111
4, 53040, Note_on_c, 9, 42, 63
4, 53280, Note_off_c, 9, 42, 63
4, 53280, Note_on_c, 9, 42, 63
4, 53520, Note_off_c, 9, 42, 63
4, 53520, Note_on_c, 9, 42, 63
4, 53760, Note_off_c, 9, 42, 63
4, 53760, Note_on_c, 9, 42, 111
4, 54000, Note_off_c, 9, 42, 111
4, 54000, Note_on_c, 9, 42, 63
4, 54240, Note_off_c, 9, 42, 63
4, 54240, Note_on_c, 9, 42, 63
4, 54480, Note_off_c, 9, 42, 63
4, 54480, Note_on_c, 9, 42, 63
4, 54720, Note_off_c, 9, 42, 63
4, 54720, Note_on_c, 9, 42, 111
4, 54960, Note_off_c, 9, 42, 111
4, 54960, Note_on_c, 9, 42, 63
4, 55200, Note_off_c, 9, 42, 63
4, 55200, Note_on_c, 9, 42, 63
4, 55440, Note_off_c, 9, 42, 63
4, 55440, Note_on_c, 9, 42, 63
4, 55680, Note_off_c, 9, 42, 63
4, 55680, Note_on_c, 9, 42, 111
4, 55920, Note_off_c, 9, 42, 111
4, 55920, Note_on_c, 9, 42, 63
4, 56160, Note_off_c, 9, 42, 63
4, 56160, Note_on_c, 9, 42, 63
4, 56400, Note_off_c, 9, 42, 63
4, 56400, Note_on_c, 9, 42, 63
4, 56640, Note_off_c, 9, 42, 63
4, 56640, Note_on_c, 9, 46, 95
4, 57600, Note_off_c, 9, 46, 95
4, 57600, Note_on_c, 9, 57, 95
4, 57600, Note_on_c, 9, 36, 95
4, 58080, Note_off_c, 9, 57, 95
4, 58080, Note_off_c, 9, 36, 95
4, 58080, Note_on_c, 9, 57, 95
4, 58080, Note_on_c, 9, 36, 95
4, 58560, Note_off_c, 9, 57, 95
4, 58560, Note_off_c, 9, 36, 95
4, 58560, Note_on_c, 9, 42, 95
4, 58800, Note_off_c, 9, 42, 95
4, 58800, Note_on_c, 9, 42, 63
4, 59040, Note_off_c, 9, 42, 63
4, 59040, Note_on_c, 9, 42, 63
4, 59280, Note_off_c, 9, 42, 63
4, 59280, Note_on_c, 9, 42, 63
4, 59520, Note_off_c, 9, 42, 63
4, 59520, Note_on_c, 9, 42, 95
4, 59760, Note_off_c, 9, 42, 95
4, 59760, Note_on_c, 9, 42, 63
4, 60000, Note_off_c, 9, 42, 63
4, 60000, Note_on_c, 9, 42, 63
4, 60240, Note_off_c, 9, 42, 63
4, 60240, Note_on_c, 9, 42, 63
4, 60480, Note_off_c, 9, 42, 63
4, 60480, Note_on_c, 9, 42, 95
4, 60720, Note_off_c, 9, 42, 95
4, 60720, Note_on_c, 9, 42, 63
4, 60960, Note_off_c, 9, 42, 63
4, 60960, Note_on_c, 9, 42, 63
4, 61200, Note_off_c, 9, 42, 63
4, 61200, Note_on_c, 9, 42, 63
4, 61440, Note_off_c, 9, 42, 63
4, 61440, Note_on_c, 9, 42, 111
4, 61680, Note_off_c, 9, 42, 111
4, 61680, Note_on_c, 9, 42, 63
4, 61920, Note_off_c, 9, 42, 63
4, 61920, Note_on_c, 9, 42, 63
4, 62160, Note_off_c, 9, 42, 63
4, 62160, Note_on_c, 9, 42, 63
4, 62400, Note_off_c, 9, 42, 63
4, 62400, Note_on_c, 9, 42, 111
4, 62640, Note_off_c, 9, 42, 111
4, 62640, Note_on_c, 9, 42, 63
4, 62880, Note_off_c, 9, 42, 63
4, 62880, Note_on_c, 9, 42, 63
4, 63120, Note_off_c, 9, 42, 63
4, 63120, Note_on_c, 9, 42, 63
4, 63360, Note_off_c, 9, 42, 63
4, 63360, Note_on_c, 9, 40, 95
4, 63600, Note_off_c, 9, 40, 95
4, 63600, Note_on_c, 9, 40, 95
4, 63840, Note_off_c, 9, 40, 95
4, 63840, Note_on_c, 9, 47, 95
4, 64320, Note_off_c, 9, 47, 95
4, 64320, Note_on_c, 9, 42, 63
4, 65280, Note_off_c, 9, 42, 63
4, 65280, Note_on_c, 9, 57, 95
4, 65280, Note_on_c, 9, 36, 95
4, 66240, Note_off_c, 9, 57, 95
4, 66240, Note_off_c, 9, 36, 95
4, 66240, Note_on_c, 9, 42, 111
4, 66480, Note_off_c, 9, 42, 111
4, 66480, Note_on_c, 9, 42, 63
4, 66720, Note_off_c, 9, 42, 63
4, 66720, Note_on_c, 9, 42, 63
4, 66960, Note_off_c, 9, 42, 63
4, 66960, Note_on_c, 9, 42, 63
4, 67200, Note_off_c, 9, 42, 63
4, 67200, Note_on_c, 9, 42, 111
4, 67440, Note_off_c, 9, 42, 111
4, 67440, Note_on_c, 9, 42, 63
4, 67680, Note_off_c, 9, 42, 63
4, 67680, Note_on_c, 9, 42, 63
4, 67920, Note_off_c, 9, 42, 63
4, 67920, Note_on_c, 9, 42, 63
4, 68160, Note_off_c, 9, 42, 63
4, 68160, Note_on_c, 9, 42, 111
4, 68400, Note_off_c, 9, 42, 111
4, 68400, Note_on_c, 9, 42, 63
4, 68640, Note_off_c, 9, 42, 63
4, 68640, Note_on_c, 9, 42, 63
4, 68880, Note_off_c, 9, 42, 63
4, 68880, Note_on_c, 9, 42, 63
4, 69120, Note_off_c, 9, 42, 63
4, 69120, Note_on_c, 9, 42, 111
4, 69360, Note_off_c, 9, 42, 111
4, 69360, Note_on_c, 9, 42, 63
4, 69600, Note_off_c, 9, 42, 63
4, 69600, Note_on_c, 9, 42, 63
4, 69840, Note_off_c, 9, 42, 63
4, 69840, Note_on_c, 9, 42, 63
4, 70080, Note_off_c, 9, 42, 63
4, 70080, Note_on_c, 9, 42, 111
4, 70320, Note_off_c, 9, 42, 111
4, 70320, Note_on_c, 9, 42, 63
4, 70560, Note_off_c, 9, 42, 63
4, 70560, Note_on_c, 9, 42, 63
4, 70800, Note_off_c, 9, 42, 63
4, 70800, Note_on_c, 9, 42, 63
4, 71040, Note_off_c, 9, 42, 63
4, 71040, Note_on_c, 9, 42, 111
4, 71280, Note_off_c, 9, 42, 111
4, 71280, Note_on_c, 9, 42, 63
4, 71520, Note_off_c, 9, 42, 63
4, 71520, Note_on_c, 9, 42, 63
4, 71760, Note_off_c, 9, 42, 63
4, 71760, Note_on_c, 9, 42, 63
4, 72000, Note_off_c, 9, 42, 63
4, 72000, Note_on_c, 9, 46, 95
4, 72960, Note_off_c, 9, 46, 95
4, 72960, Note_on_c, 9, 57, 95
4, 72960, Note_on_c, 9, 36, 95
4, 73440, Note_off_c, 9, 57, 95
4, 73440, Note_off_c, 9, 36, 95
4, 73440, Note_on_c, 9, 57, 95
4, 73440, Note_on_c, 9, 36, 95
4, 73920, Note_off_c, 9, 57, 95
4, 73920, Note_off_c, 9, 36, 95
4, 73920, Note_on_c, 9, 42, 95
4, 74160, Note_off_c, 9, 42, 95
4, 74160, Note_on_c, 9, 42, 63
4, 74400, Note_off_c, 9, 42, 63
4, 74400, Note_on_c, 9, 42, 63
4, 74640, Note_off_c, 9, 42, 63
4, 74640, Note_on_c, 9, 42, 63
4, 74880, Note_off_c, 9, 42, 63
4, 74880, Note_on_c, 9, 42, 95
4, 75120, Note_off_c, 9, 42, 95
4, 75120, Note_on_c, 9, 42, 63
4, 75360, Note_off_c, 9, 42, 63
4, 75360, Note_on_c, 9, 42, 63
4, 75600, Note_off_c, 9, 42, 63
4, 75600, Note_on_c, 9, 42, 63
4, 75840, Note_off_c, 9, 42, 63
4, 75840, Note_on_c, 9, 42, 95
4, 76080, Note_off_c, 9, 42, 95
4, 76080, Note_on_c, 9, 42, 63
4, 76320, Note_off_c, 9, 42, 63
4, 76320, Note_on_c, 9, 42, 63
4, 76560, Note_off_c, 9, 42, 63
4, 76560, Note_on_c, 9, 42, 63
4, 76800, Note_off_c, 9, 42, 63
4, 76800, Note_on_c, 9, 42, 111
4, 77040, Note_off_c, 9, 42, 111
4, 77040, Note_on_c, 9, 42, 63
4, 77280, Note_off_c, 9, 42, 63
4, 77280, Note_on_c, 9, 42, 63
4, 77520, Note_off_c, 9, 42, 63
4, 77520, Note_on_c, 9, 42, 63
4, 77760, Note_off_c, 9, 42, 63
4, 77760, Note_on_c, 9, 42, 111
4, 78000, Note_off_c, 9, 42, 111
4, 78000, Note_on_c, 9, 42, 63
4, 78240, Note_off_c, 9, 42, 63
4, 78240, Note_on_c, 9, 42, 63
4, 78480, Note_off_c, 9, 42, 63
4, 78480, Note_on_c, 9, 42, 63
4, 78720, Note_off_c, 9, 42, 63
4, 78720, Note_on_c, 9, 42, 111
4, 78960, Note_off_c, 9, 42, 111
4, 78960, Note_on_c, 9, 42, 63
4, 79200, Note_off_c, 9, 42, 63
4, 79200, Note_on_c, 9, 42, 63
4, 79440, Note_off_c, 9, 42, 63
4, 79440, Note_on_c, 9, 42, 63
4, 79680, Note_off_c, 9, 42, 63
4, 79680, Note_on_c, 9, 42, 111
4, 79920, Note_off_c, 9, 42, 111
4, 79920, Note_on_c, 9, 42, 63
4, 80160, Note_off_c, 9, 42, 63
4, 80160, Note_on_c, 9, 42, 63
4, 80400, Note_off_c, 9, 42, 63
4, 80400, Note_on_c, 9, 42, 63
4, 80640, Note_off_c, 9, 42, 63
4, 80640, Note_on_c, 9, 42, 111
4, 80880, Note_off_c, 9, 42, 111
4, 80880, Note_on_c, 9, 42, 63
4, 81120, Note_off_c, 9, 42, 63
4, 81120, Note_on_c, 9, 42, 63
4, 81360, Note_off_c, 9, 42, 63
4, 81360, Note_on_c, 9, 42, 63
4, 81600, Note_off_c, 9, 42, 63
4, 81600, Note_on_c, 9, 42, 111
4, 81840, Note_off_c, 9, 42, 111
4, 81840, Note_on_c, 9, 42, 63
4, 82080, Note_off_c, 9, 42, 63
4, 82080, Note_on_c, 9, 42, 63
4, 82320, Note_off_c, 9, 42, 63
4, 82320, Note_on_c, 9, 42, 63
4, 82560, Note_off_c, 9, 42, 63
4, 82560, Note_on_c, 9, 40, 95
4, 82590, Note_on_c, 9, 40, 95
4, 83520, Note_off_c, 9, 40, 95
4, 83520, Note_off_c, 9, 40, 95
4, 83520, Note_on_c, 9, 57, 95
4, 83520, Note_on_c, 9, 36, 95
4, 84000, Note_off_c, 9, 57, 95
4, 84000, Note_off_c, 9, 36, 95
4, 84000, Note_on_c, 9, 57, 95
4, 84000, Note_on_c, 9, 36, 95
4, 84480, Note_off_c, 9, 57, 95
4, 84480, Note_off_c, 9, 36, 95
4, 84960, Note_on_c, 9, 57, 95
4, 84960, Note_on_c, 9, 36, 95
4, 85680, Note_off_c, 9, 57, 95
4, 85680, Note_off_c, 9, 36, 95
4, 86400, Note_on_c, 9, 46, 31
4, 86520, Note_off_c, 9, 46, 31
4, 86520, Note_on_c, 9, 46, 31
4, 86640, Note_off_c, 9, 46, 31
4, 86640, Note_on_c, 9, 46, 31
4, 86760, Note_off_c, 9, 46, 31
4, 86760, Note_on_c, 9, 46, 31
4, 86880, Note_off_c, 9, 46, 31
4, 86880, Note_on_c, 9, 46, 31
4, 87000, Note_off_c, 9, 46, 31
4, 87000, Note_on_c, 9, 46, 31
4, 87120, Note_off_c, 9, 46, 31
4, 87120, Note_on_c, 9, 46, 47
4, 87240, Note_off_c, 9, 46, 47
4, 87240, Note_on_c, 9, 46, 47
4, 87360, Note_off_c, 9, 46, 47
4, 87360, Note_on_c, 9, 46, 47
4, 87480, Note_off_c, 9, 46, 47
4, 87480, Note_on_c, 9, 46, 47
4, 87600, Note_off_c, 9, 46, 47
4, 87600, Note_on_c, 9, 46, 47
4, 87720, Note_off_c, 9, 46, 47
4, 87720, Note_on_c, 9, 46, 47
4, 87840, Note_off_c, 9, 46, 47
4, 87840, Note_on_c, 9, 46, 63
4, 87960, Note_off_c, 9, 46, 63
4, 87960, Note_on_c, 9, 46, 63
4, 88080, Note_off_c, 9, 46, 63
4, 88080, Note_on_c, 9, 46, 63
4, 88200, Note_off_c, 9, 46, 63
4, 88200, Note_on_c, 9, 46, 63
4, 88320, Note_off_c, 9, 46, 63
4, 88320, Note_on_c, 9, 46, 63
4, 88440, Note_off_c, 9, 46, 63
4, 88440, Note_on_c, 9, 46, 63
4, 88560, Note_off_c, 9, 46, 63
4, 88560, Note_on_c, 9, 46, 79
4, 88680, Note_off_c, 9, 46, 79
4, 88680, Note_on_c, 9, 46, 79
4, 88800, Note_off_c, 9, 46, 79
4, 88800, Note_on_c, 9, 46, 79
4, 88920, Note_off_c, 9, 46, 79
4, 88920, Note_on_c, 9, 46, 79
4, 89040, Note_off_c, 9, 46, 79
4, 89040, Note_on_c, 9, 46, 79
4, 89160, Note_off_c, 9, 46, 79
4, 89160, Note_on_c, 9, 46, 79
4, 89280, Note_off_c, 9, 46, 79
4, 89280, Note_on_c, 9, 46, 79
4, 89400, Note_off_c, 9, 46, 79
4, 89400, Note_on_c, 9, 46, 79
4, 89520, Note_off_c, 9, 46, 79
4, 89520, Note_on_c, 9, 46, 79
4, 89640, Note_off_c, 9, 46, 79
4, 89640, Note_on_c, 9, 57, 79
4, 89760, Note_off_c, 9, 57, 79
4, 89760, Note_on_c, 9, 57, 79
4, 89880, Note_off_c, 9, 57, 79
4, 89880, Note_on_c, 9, 57, 79
4, 90000, Note_off_c, 9, 57, 79
4, 90000, Note_on_c, 9, 57, 79
4, 90120, Note_off_c, 9, 57, 79
4, 90120, Note_on_c, 9, 57, 63
4, 90240, Note_off_c, 9, 57, 63
4, 90240, Note_on_c, 9, 57, 63
4, 90360, Note_off_c, 9, 57, 63
4, 90360, Note_on_c, 9, 57, 47
4, 90480, Note_off_c, 9, 57, 47
4, 90480, Note_on_c, 9, 57, 63
4, 90600, Note_off_c, 9, 57, 63
4, 90600, Note_on_c, 9, 57, 47
4, 90720, Note_off_c, 9, 57, 47
4, 90720, Note_on_c, 9, 57, 47
4, 90960, Note_off_c, 9, 57, 47
4, 90960, Note_on_c, 9, 51, 63
4, 91200, Note_off_c, 9, 51, 63
4, 91200, Note_on_c, 9, 51, 47
4, 91440, Note_off_c, 9, 51, 47
4, 91440, Note_on_c, 9, 51, 63
4, 91680, Note_off_c, 9, 51, 63
4, 91680, Note_on_c, 9, 51, 63
4, 91920, Note_off_c, 9, 51, 63
4, 91920, Note_on_c, 9, 51, 63
4, 92160, Note_off_c, 9, 51, 63
4, 92160, Note_on_c, 9, 51, 47
4, 92400, Note_off_c, 9, 51, 47
4, 92400, Note_on_c, 9, 51, 63
4, 92640, Note_off_c, 9, 51, 63
4, 92640, Note_on_c, 9, 51, 47
4, 92880, Note_off_c, 9, 51, 47
4, 92880, Note_on_c, 9, 51, 63
4, 93120, Note_off_c, 9, 51, 63
4, 93120, Note_on_c, 9, 51, 47
4, 93360, Note_off_c, 9, 51, 47
4, 93360, Note_on_c, 9, 51, 47
4, 93600, Note_off_c, 9, 51, 47
4, 93600, Note_on_c, 9, 51, 47
4, 93840, Note_off_c, 9, 51, 47
4, 93840, Note_on_c, 9, 51, 47
4, 94080, Note_off_c, 9, 51, 47
4, 94080, Note_on_c, 9, 51, 47
4, 94560, Note_off_c, 9, 51, 47
4, 94560, Note_on_c, 9, 51, 47
4, 95040, Note_off_c, 9, 51, 47
4, 95040, Note_on_c, 9, 51, 47
4, 95520, Note_off_c, 9, 51, 47
4, 95520, Note_on_c, 9, 51, 15
4, 96000, Note_off_c, 9, 51, 15
4, 103680, Note_on_c, 9, 46, 95
4, 104640, Note_off_c, 9, 46, 95
4, 104640, Note_on_c, 9, 46, 95
4, 105600, Note_off_c, 9, 46, 95
4, 105600, Note_on_c, 9, 46, 95
4, 106080, Note_off_c, 9, 46, 95
4, 106080, Note_on_c, 9, 36, 95
4, 106560, Note_off_c, 9, 36, 95
4, 106560, Note_on_c, 9, 40, 95
4, 106575, Note_on_c, 9, 40, 95
4, 107040, Note_off_c, 9, 40, 95
4, 107040, Note_off_c, 9, 40, 95
4, 107040, Note_on_c, 9, 36, 95
4, 107520, Note_off_c, 9, 36, 95
4, 107520, Note_on_c, 9, 57, 95
4, 107520, Note_on_c, 9, 36, 95
4, 108000, Note_off_c, 9, 57, 95
4, 108000, Note_off_c, 9, 36, 95
4, 108000, Note_on_c, 9, 36, 95
4, 108480, Note_off_c, 9, 36, 95
4, 108480, Note_on_c, 9, 42, 95
4, 108960, Note_off_c, 9, 42, 95
4, 108960, Note_on_c, 9, 40, 95
4, 109440, Note_off_c, 9, 40, 95
4, 109440, Note_on_c, 9, 42, 95
4, 109920, Note_off_c, 9, 42, 95
4, 109920, Note_on_c, 9, 36, 95
4, 110400, Note_off_c, 9, 36, 95
4, 110400, Note_on_c, 9, 42, 95
4, 110400, Note_on_c, 9, 40, 95
4, 110880, Note_off_c, 9, 42, 95
4, 110880, Note_off_c, 9, 40, 95
4, 110880, Note_on_c, 9, 42, 47
4, 111360, Note_off_c, 9, 42, 47
4, 111360, Note_on_c, 9, 42, 95
4, 111360, Note_on_c, 9, 36, 95
4, 111840, Note_off_c, 9, 42, 95
4, 111840, Note_off_c, 9, 36, 95
4, 111840, Note_on_c, 9, 36, 95
4, 112320, Note_off_c, 9, 36, 95
4, 112320, Note_on_c, 9, 42, 95
4, 112800, Note_off_c, 9, 42, 95
4, 112800, Note_on_c, 9, 40, 95
4, 113280, Note_off_c, 9, 40, 95
4, 113280, Note_on_c, 9, 42, 95
4, 113760, Note_off_c, 9, 42, 95
4, 113760, Note_on_c, 9, 36, 95
4, 114240, Note_off_c, 9, 36, 95
4, 114240, Note_on_c, 9, 42, 95
4, 114240, Note_on_c, 9, 40, 95
4, 114720, Note_off_c, 9, 42, 95
4, 114720, Note_off_c, 9, 40, 95
4, 114720, Note_on_c, 9, 42, 47
4, 115200, Note_off_c, 9, 42, 47
4, 115200, Note_on_c, 9, 42, 95
4, 115200, Note_on_c, 9, 36, 95
4, 115680, Note_off_c, 9, 42, 95
4, 115680, Note_off_c, 9, 36, 95
4, 115680, Note_on_c, 9, 36, 95
4, 116160, Note_off_c, 9, 36, 95
4, 116160, Note_on_c, 9, 42, 95
4, 116640, Note_off_c, 9, 42, 95
4, 116640, Note_on_c, 9, 40, 95
4, 117120, Note_off_c, 9, 40, 95
4, 117120, Note_on_c, 9, 42, 95
4, 117600, Note_off_c, 9, 42, 95
4, 117600, Note_on_c, 9, 36, 95
4, 118080, Note_off_c, 9, 36, 95
4, 118080, Note_on_c, 9, 42, 95
4, 118080, Note_on_c, 9, 40, 95
4, 118560, Note_off_c, 9, 42, 95
4, 118560, Note_off_c, 9, 40, 95
4, 118560, Note_on_c, 9, 42, 63
4, 118720, Note_off_c, 9, 42, 63
4, 118720, Note_on_c, 9, 42, 63
4, 118880, Note_off_c, 9, 42, 63
4, 118880, Note_on_c, 9, 42, 63
4, 119040, Note_off_c, 9, 42, 63
4, 119040, Note_on_c, 9, 42, 95
4, 119040, Note_on_c, 9, 36, 95
4, 119520, Note_off_c, 9, 42, 95
4, 119520, Note_off_c, 9, 36, 95
4, 119520, Note_on_c, 9, 36, 95
4, 120000, Note_off_c, 9, 36, 95
4, 120000, Note_on_c, 9, 42, 95
4, 120480, Note_off_c, 9, 42, 95
4, 120480, Note_on_c, 9, 40, 95
4, 120960, Note_off_c, 9, 40, 95
4, 120960, Note_on_c, 9, 42, 95
4, 121440, Note_off_c, 9, 42, 95
4, 121440, Note_on_c, 9, 36, 95
4, 121920, Note_off_c, 9, 36, 95
4, 121920, Note_on_c, 9, 42, 95
4, 121920, Note_on_c, 9, 40, 95
4, 122400, Note_off_c, 9, 42, 95
4, 122400, Note_off_c, 9, 40, 95
4, 122400, Note_on_c, 9, 42, 63
4, 122880, Note_off_c, 9, 42, 63
4, 122880, Note_on_c, 9, 42, 95
4, 122880, Note_on_c, 9, 36, 95
4, 123360, Note_off_c, 9, 42, 95
4, 123360, Note_off_c, 9, 36, 95
4, 123360, Note_on_c, 9, 36, 95
4, 123840, Note_off_c, 9, 36, 95
4, 123840, Note_on_c, 9, 42, 95
4, 124320, Note_off_c, 9, 42, 95
4, 124320, Note_on_c, 9, 40, 95
4, 124800, Note_off_c, 9, 40, 95
4, 124800, Note_on_c, 9, 42, 95
4, 125280, Note_off_c, 9, 42, 95
4, 125280, Note_on_c, 9, 36, 95
4, 125760, Note_off_c, 9, 36, 95
4, 125760, Note_on_c, 9, 42, 95
4, 125760, Note_on_c, 9, 40, 95
4, 126240, Note_off_c, 9, 42, 95
4, 126240, Note_off_c, 9, 40, 95
4, 126240, Note_on_c, 9, 42, 47
4, 126720, Note_off_c, 9, 42, 47
4, 126720, Note_on_c, 9, 42, 95
4, 126720, Note_on_c, 9, 36, 95
4, 127200, Note_off_c, 9, 42, 95
4, 127200, Note_off_c, 9, 36, 95
4, 127200, Note_on_c, 9, 36, 95
4, 127680, Note_off_c, 9, 36, 95
4, 127680, Note_on_c, 9, 42, 95
4, 128160, Note_off_c, 9, 42, 95
4, 128160, Note_on_c, 9, 40, 95
4, 128640, Note_off_c, 9, 40, 95
4, 128640, Note_on_c, 9, 42, 95
4, 129120, Note_off_c, 9, 42, 95
4, 129120, Note_on_c, 9, 36, 95
4, 129600, Note_off_c, 9, 36, 95
4, 129600, Note_on_c, 9, 42, 95
4, 129600, Note_on_c, 9, 40, 95
4, 130080, Note_off_c, 9, 42, 95
4, 130080, Note_off_c, 9, 40, 95
4, 130080, Note_on_c, 9, 42, 47
4, 130560, Note_off_c, 9, 42, 47
4, 130560, Note_on_c, 9, 42, 95
4, 130560, Note_on_c, 9, 36, 95
4, 131040, Note_off_c, 9, 42, 95
4, 131040, Note_off_c, 9, 36, 95
4, 131040, Note_on_c, 9, 36, 95
4, 131520, Note_off_c, 9, 36, 95
4, 131520, Note_on_c, 9, 42, 95
4, 132000, Note_off_c, 9, 42, 95
4, 132000, Note_on_c, 9, 40, 95
4, 132480, Note_off_c, 9, 40, 95
4, 132480, Note_on_c, 9, 42, 95
4, 132960, Note_off_c, 9, 42, 95
4, 132960, Note_on_c, 9, 36, 95
4, 133440, Note_off_c, 9, 36, 95
4, 133440, Note_on_c, 9, 42, 95
4, 133440, Note_on_c, 9, 40, 95
4, 133920, Note_off_c, 9, 42, 95
4, 133920, Note_off_c, 9, 40, 95
4, 133920, Note_on_c, 9, 42, 47
4, 134400, Note_off_c, 9, 42, 47
4, 134400, Note_on_c, 9, 42, 95
4, 134400, Note_on_c, 9, 36, 95
4, 134880, Note_off_c, 9, 42, 95
4, 134880, Note_off_c, 9, 36, 95
4, 134880, Note_on_c, 9, 36, 95
4, 135360, Note_off_c, 9, 36, 95
4, 135360, Note_on_c, 9, 42, 95
4, 135840, Note_off_c, 9, 42, 95
4, 135840, Note_on_c, 9, 40, 95
4, 136320, Note_off_c, 9, 40, 95
4, 136320, Note_on_c, 9, 42, 95
4, 136800, Note_off_c, 9, 42, 95
4, 136800, Note_on_c, 9, 36, 95
4, 137280, Note_off_c, 9, 36, 95
4, 137280, Note_on_c, 9, 49, 95
4, 137280, Note_on_c, 9, 40, 95
4, 138240, Note_off_c, 9, 49, 95
4, 138240, Note_off_c, 9, 40, 95
4, 138240, Note_on_c, 9, 42, 95
4, 138240, Note_on_c, 9, 36, 95
4, 138720, Note_off_c, 9, 42, 95
4, 138720, Note_off_c, 9, 36, 95
4, 138720, Note_on_c, 9, 36, 95
4, 139200, Note_off_c, 9, 36, 95
4, 139200, Note_on_c, 9, 42, 95
4, 139680, Note_off_c, 9, 42, 95
4, 139680, Note_on_c, 9, 40, 95
4, 140160, Note_off_c, 9, 40, 95
4, 140160, Note_on_c, 9, 42, 95
4, 140640, Note_off_c, 9, 42, 95
4, 140640, Note_on_c, 9, 36, 95
4, 141120, Note_off_c, 9, 36, 95
4, 141120, Note_on_c, 9, 42, 95
4, 141120, Note_on_c, 9, 40, 95
4, 141600, Note_off_c, 9, 42, 95
4, 141600, Note_off_c, 9, 40, 95
4, 141600, Note_on_c, 9, 42, 63
4, 141760, Note_off_c, 9, 42, 63
4, 141760, Note_on_c, 9, 42, 63
4, 141920, Note_off_c, 9, 42, 63
4, 141920, Note_on_c, 9, 42, 63
4, 142080, Note_off_c, 9, 42, 63
4, 142080, Note_on_c, 9, 42, 95
4, 142080, Note_on_c, 9, 36, 95
4, 142560, Note_off_c, 9, 42, 95
4, 142560, Note_off_c, 9, 36, 95
4, 142560, Note_on_c, 9, 36, 95
4, 143040, Note_off_c, 9, 36, 95
4, 143040, Note_on_c, 9, 42, 95
4, 143520, Note_off_c, 9, 42, 95
4, 143520, Note_on_c, 9, 40, 95
4, 144000, Note_off_c, 9, 40, 95
4, 144000, Note_on_c, 9, 42, 95
4, 144480, Note_off_c, 9, 42, 95
4, 144480, Note_on_c, 9, 36, 95
4, 144960, Note_off_c, 9, 36, 95
4, 144960, Note_on_c, 9, 42, 95
4, 144960, Note_on_c, 9, 40, 95
4, 145440, Note_off_c, 9, 42, 95
4, 145440, Note_off_c, 9, 40, 95
4, 145440, Note_on_c, 9, 42, 47
4, 145920, Note_off_c, 9, 42, 47
4, 145920, Note_on_c, 9, 42, 95
4, 145920, Note_on_c, 9, 36, 95
4, 146400, Note_off_c, 9, 42, 95
4, 146400, Note_off_c, 9, 36, 95
4, 146400, Note_on_c, 9, 36, 95
4, 146880, Note_off_c, 9, 36, 95
4, 146880, Note_on_c, 9, 42, 95
4, 147360, Note_off_c, 9, 42, 95
4, 147360, Note_on_c, 9, 40, 95
4, 147840, Note_off_c, 9, 40, 95
4, 147840, Note_on_c, 9, 42, 95
4, 148320, Note_off_c, 9, 42, 95
4, 148320, Note_on_c, 9, 36, 95
4, 148800, Note_off_c, 9, 36, 95
4, 148800, Note_on_c, 9, 42, 95
4, 148800, Note_on_c, 9, 40, 95
4, 149280, Note_off_c, 9, 42, 95
4, 149280, Note_off_c, 9, 40, 95
4, 149280, Note_on_c, 9, 42, 63
4, 149440, Note_off_c, 9, 42, 63
4, 149440, Note_on_c, 9, 42, 63
4, 149600, Note_off_c, 9, 42, 63
4, 149600, Note_on_c, 9, 42, 63
4, 149760, Note_off_c, 9, 42, 63
4, 149760, Note_on_c, 9, 42, 95
4, 149760, Note_on_c, 9, 36, 95
4, 150240, Note_off_c, 9, 42, 95
4, 150240, Note_off_c, 9, 36, 95
4, 150240, Note_on_c, 9, 36, 95
4, 150720, Note_off_c, 9, 36, 95
4, 150720, Note_on_c, 9, 42, 95
4, 151200, Note_off_c, 9, 42, 95
4, 151200, Note_on_c, 9, 40, 95
4, 151680, Note_off_c, 9, 40, 95
4, 151680, Note_on_c, 9, 42, 95
4, 152160, Note_off_c, 9, 42, 95
4, 152160, Note_on_c, 9, 36, 95
4, 152640, Note_off_c, 9, 36, 95
4, 152640, Note_on_c, 9, 46, 95
4, 152640, Note_on_c, 9, 40, 95
4, 153600, Note_off_c, 9, 46, 95
4, 153600, Note_off_c, 9, 40, 95
4, 153600, Note_on_c, 9, 44, 95
4, 153600, Note_on_c, 9, 36, 95
4, 154080, Note_off_c, 9, 44, 95
4, 154080, Note_off_c, 9, 36, 95
4, 154080, Note_on_c, 9, 36, 95
4, 154560, Note_off_c, 9, 36, 95
4, 154560, Note_on_c, 9, 42, 95
4, 155040, Note_off_c, 9, 42, 95
4, 155040, Note_on_c, 9, 40, 95
4, 155520, Note_off_c, 9, 40, 95
4, 155520, Note_on_c, 9, 42, 95
4, 156000, Note_off_c, 9, 42, 95
4, 156000, Note_on_c, 9, 36, 95
4, 156480, Note_off_c, 9, 36, 95
4, 156480, Note_on_c, 9, 42, 95
4, 156480, Note_on_c, 9, 40, 95
4, 156960, Note_off_c, 9, 42, 95
4, 156960, Note_off_c, 9, 40, 95
4, 156960, Note_on_c, 9, 42, 63
4, 157120, Note_off_c, 9, 42, 63
4, 157120, Note_on_c, 9, 42, 63
4, 157280, Note_off_c, 9, 42, 63
4, 157280, Note_on_c, 9, 42, 63
4, 157440, Note_off_c, 9, 42, 63
4, 157440, Note_on_c, 9, 42, 95
4, 157440, Note_on_c, 9, 36, 95
4, 157920, Note_off_c, 9, 42, 95
4, 157920, Note_off_c, 9, 36, 95
4, 157920, Note_on_c, 9, 36, 95
4, 158400, Note_off_c, 9, 36, 95
4, 158400, Note_on_c, 9, 42, 95
4, 158880, Note_off_c, 9, 42, 95
4, 158880, Note_on_c, 9, 40, 95
4, 159360, Note_off_c, 9, 40, 95
4, 159360, Note_on_c, 9, 42, 95
4, 159840, Note_off_c, 9, 42, 95
4, 159840, Note_on_c, 9, 36, 95
4, 160320, Note_off_c, 9, 36, 95
4, 160320, Note_on_c, 9, 42, 95
4, 160320, Note_on_c, 9, 40, 95
4, 160800, Note_off_c, 9, 42, 95
4, 160800, Note_off_c, 9, 40, 95
4, 160800, Note_on_c, 9, 42, 47
4, 161280, Note_off_c, 9, 42, 47
4, 161280, Note_on_c, 9, 42, 95
4, 161280, Note_on_c, 9, 36, 95
4, 161760, Note_off_c, 9, 42, 95
4, 161760, Note_off_c, 9, 36, 95
4, 161760, Note_on_c, 9, 36, 95
4, 162240, Note_off_c, 9, 36, 95
4, 162240, Note_on_c, 9, 42, 95
4, 162720, Note_off_c, 9, 42, 95
4, 162720, Note_on_c, 9, 40, 95
4, 163200, Note_off_c, 9, 40, 95
4, 163200, Note_on_c, 9, 42, 95
4, 163680, Note_off_c, 9, 42, 95
4, 163680, Note_on_c, 9, 36, 95
4, 164160, Note_off_c, 9, 36, 95
4, 164160, Note_on_c, 9, 42, 95
4, 164160, Note_on_c, 9, 40, 95
4, 164640, Note_off_c, 9, 42, 95
4, 164640, Note_off_c, 9, 40, 95
4, 164640, Note_on_c, 9, 42, 63
4, 164800, Note_off_c, 9, 42, 63
4, 164800, Note_on_c, 9, 42, 63
4, 164960, Note_off_c, 9, 42, 63
4, 164960, Note_on_c, 9, 42, 63
4, 165120, Note_off_c, 9, 42, 63
4, 165120, Note_on_c, 9, 42, 95
4, 165120, Note_on_c, 9, 36, 95
4, 165600, Note_off_c, 9, 42, 95
4, 165600, Note_off_c, 9, 36, 95
4, 165600, Note_on_c, 9, 36, 95
4, 166080, Note_off_c, 9, 36, 95
4, 166080, Note_on_c, 9, 42, 95
4, 166560, Note_off_c, 9, 42, 95
4, 166560, Note_on_c, 9, 40, 95
4, 167040, Note_off_c, 9, 40, 95
4, 167040, Note_on_c, 9, 42, 95
4, 167520, Note_off_c, 9, 42, 95
4, 167520, Note_on_c, 9, 36, 95
4, 168000, Note_off_c, 9, 36, 95
4, 168000, Note_on_c, 9, 55, 95
4, 168000, Note_on_c, 9, 40, 95
4, 168960, Note_off_c, 9, 55, 95
4, 168960, Note_off_c, 9, 40, 95
4, 168960, Note_on_c, 9, 42, 95
4, 168960, Note_on_c, 9, 36, 95
4, 169440, Note_off_c, 9, 42, 95
4, 169440, Note_off_c, 9, 36, 95
4, 169440, Note_on_c, 9, 36, 95
4, 169920, Note_off_c, 9, 36, 95
4, 169920, Note_on_c, 9, 42, 95
4, 170400, Note_off_c, 9, 42, 95
4, 170400, Note_on_c, 9, 40, 95
4, 170880, Note_off_c, 9, 40, 95
4, 170880, Note_on_c, 9, 42, 95
4, 171360, Note_off_c, 9, 42, 95
4, 171360, Note_on_c, 9, 36, 95
4, 171840, Note_off_c, 9, 36, 95
4, 171840, Note_on_c, 9, 42, 95
4, 171840, Note_on_c, 9, 40, 95
4, 172320, Note_off_c, 9, 42, 95
4, 172320, Note_off_c, 9, 40, 95
4, 172320, Note_on_c, 9, 42, 63
4, 172480, Note_off_c, 9, 42, 63
4, 172480, Note_on_c, 9, 42, 63
4, 172640, Note_off_c, 9, 42, 63
4, 172640, Note_on_c, 9, 42, 63
4, 172800, Note_off_c, 9, 42, 63
4, 172800, Note_on_c, 9, 42, 95
4, 172800, Note_on_c, 9, 36, 95
4, 173280, Note_off_c, 9, 42, 95
4, 173280, Note_off_c, 9, 36, 95
4, 173280, Note_on_c, 9, 36, 95
4, 173760, Note_off_c, 9, 36, 95
4, 173760, Note_on_c, 9, 42, 95
4, 174240, Note_off_c, 9, 42, 95
4, 174240, Note_on_c, 9, 40, 95
4, 174720, Note_off_c, 9, 40, 95
4, 174720, Note_on_c, 9, 42, 95
4, 175200, Note_off_c, 9, 42, 95
4, 175200, Note_on_c, 9, 36, 95
4, 175680, Note_off_c, 9, 36, 95
4, 175680, Note_on_c, 9, 42, 95
4, 175680, Note_on_c, 9, 40, 95
4, 176160, Note_off_c, 9, 42, 95
4, 176160, Note_off_c, 9, 40, 95
4, 176160, Note_on_c, 9, 42, 63
4, 176320, Note_off_c, 9, 42, 63
4, 176320, Note_on_c, 9, 42, 63
4, 176480, Note_off_c, 9, 42, 63
4, 176480, Note_on_c, 9, 42, 63
4, 176640, Note_off_c, 9, 42, 63
4, 176640, Note_on_c, 9, 42, 95
4, 176640, Note_on_c, 9, 36, 95
4, 177120, Note_off_c, 9, 42, 95
4, 177120, Note_off_c, 9, 36, 95
4, 177120, Note_on_c, 9, 36, 95
4, 177600, Note_off_c, 9, 36, 95
4, 177600, Note_on_c, 9, 42, 95
4, 178080, Note_off_c, 9, 42, 95
4, 178080, Note_on_c, 9, 40, 95
4, 178560, Note_off_c, 9, 40, 95
4, 178560, Note_on_c, 9, 42, 95
4, 179040, Note_off_c, 9, 42, 95
4, 179040, Note_on_c, 9, 36, 95
4, 179520, Note_off_c, 9, 36, 95
4, 179520, Note_on_c, 9, 42, 95
4, 179520, Note_on_c, 9, 40, 95
4, 180000, Note_off_c, 9, 42, 95
4, 180000, Note_off_c, 9, 40, 95
4, 180000, Note_on_c, 9, 42, 47
4, 180480, Note_off_c, 9, 42, 47
4, 180480, Note_on_c, 9, 42, 95
4, 180480, Note_on_c, 9, 36, 95
4, 180960, Note_off_c, 9, 42, 95
4, 180960, Note_off_c, 9, 36, 95
4, 180960, Note_on_c, 9, 36, 95
4, 181440, Note_off_c, 9, 36, 95
4, 181440, Note_on_c, 9, 46, 95
4, 181920, Note_off_c, 9, 46, 95
4, 181920, Note_on_c, 9, 36, 95
4, 182400, Note_off_c, 9, 36, 95
4, 182400, Note_on_c, 9, 40, 95
4, 182415, Note_on_c, 9, 40, 95
4, 182880, Note_off_c, 9, 40, 95
4, 182880, Note_off_c, 9, 40, 95
4, 182880, Note_on_c, 9, 36, 95
4, 183360, Note_off_c, 9, 36, 95
4, 183360, Note_on_c, 9, 47, 95
4, 183375, Note_on_c, 9, 47, 95
4, 183840, Note_off_c, 9, 47, 95
4, 183840, Note_off_c, 9, 47, 95
4, 183840, Note_on_c, 9, 36, 95
4, 184320, Note_off_c, 9, 36, 95
4, 184320, Note_on_c, 9, 49, 95
4, 184320, Note_on_c, 9, 36, 95
4, 185280, Note_off_c, 9, 49, 95
4, 185280, Note_off_c, 9, 36, 95
4, 185280, Note_on_c, 9, 42, 95
4, 185760, Note_off_c, 9, 42, 95
4, 185760, Note_on_c, 9, 40, 95
4, 186240, Note_off_c, 9, 40, 95
4, 186240, Note_on_c, 9, 42, 95
4, 186720, Note_off_c, 9, 42, 95
4, 186720, Note_on_c, 9, 36, 95
4, 187200, Note_off_c, 9, 36, 95
4, 187200, Note_on_c, 9, 42, 95
4, 187200, Note_on_c, 9, 40, 95
4, 187680, Note_off_c, 9, 42, 95
4, 187680, Note_off_c, 9, 40, 95
4, 187680, Note_on_c, 9, 42, 63
4, 187840, Note_off_c, 9, 42, 63
4, 187840, Note_on_c, 9, 42, 63
4, 188000, Note_off_c, 9, 42, 63
4, 188000, Note_on_c, 9, 42, 63
4, 188160, Note_off_c, 9, 42, 63
4, 188160, Note_on_c, 9, 42, 95
4, 188160, Note_on_c, 9, 36, 95
4, 188640, Note_off_c, 9, 42, 95
4, 188640, Note_off_c, 9, 36, 95
4, 188640, Note_on_c, 9, 36, 95
4, 189120, Note_off_c, 9, 36, 95
4, 189120, Note_on_c, 9, 46, 95
4, 189600, Note_off_c, 9, 46, 95
4, 189600, Note_on_c, 9, 36, 95
4, 190080, Note_off_c, 9, 36, 95
4, 190080, Note_on_c, 9, 40, 95
4, 190095, Note_on_c, 9, 40, 95
4, 190560, Note_off_c, 9, 40, 95
4, 190560, Note_off_c, 9, 40, 95
4, 190560, Note_on_c, 9, 49, 95
4, 190560, Note_on_c, 9, 36, 95
4, 191280, Note_off_c, 9, 49, 95
4, 191280, Note_off_c, 9, 36, 95
4, 191280, Note_on_c, 9, 57, 95
4, 191280, Note_on_c, 9, 36, 95
4, 192000, Note_off_c, 9, 57, 95
4, 192000, Note_off_c, 9, 36, 95
4, 192000, Note_on_c, 9, 57, 95
4, 192000, Note_on_c, 9, 36, 95
4, 192960, Note_off_c, 9, 57, 95
4, 192960, Note_off_c, 9, 36, 95
4, 192960, Note_on_c, 9, 42, 95
4, 193440, Note_off_c, 9, 42, 95
4, 193440, Note_on_c, 9, 40, 95
4, 193920, Note_off_c, 9, 40, 95
4, 193920, Note_on_c, 9, 42, 95
4, 194400, Note_off_c, 9, 42, 95
4, 194400, Note_on_c, 9, 36, 95
4, 194880, Note_off_c, 9, 36, 95
4, 194880, Note_on_c, 9, 42, 95
4, 194880, Note_on_c, 9, 40, 95
4, 195360, Note_off_c, 9, 42, 95
4, 195360, Note_off_c, 9, 40, 95
4, 195360, Note_on_c, 9, 42, 63
4, 195520, Note_off_c, 9, 42, 63
4, 195520, Note_on_c, 9, 42, 63
4, 195680, Note_off_c, 9, 42, 63
4, 195680, Note_on_c, 9, 42, 63
4, 195840, Note_off_c, 9, 42, 63
4, 195840, Note_on_c, 9, 42, 95
4, 195840, Note_on_c, 9, 36, 95
4, 196320, Note_off_c, 9, 42, 95
4, 196320, Note_off_c, 9, 36, 95
4, 196320, Note_on_c, 9, 36, 95
4, 196800, Note_off_c, 9, 36, 95
4, 196800, Note_on_c, 9, 42, 95
4, 197280, Note_off_c, 9, 42, 95
4, 197280, Note_on_c, 9, 40, 95
4, 197760, Note_off_c, 9, 40, 95
4, 197760, Note_on_c, 9, 42, 95
4, 198240, Note_off_c, 9, 42, 95
4, 198240, Note_on_c, 9, 36, 95
4, 198720, Note_off_c, 9, 36, 95
4, 198720, Note_on_c, 9, 42, 95
4, 198720, Note_on_c, 9, 40, 95
4, 199200, Note_off_c, 9, 42, 95
4, 199200, Note_off_c, 9, 40, 95
4, 199200, Note_on_c, 9, 42, 63
4, 199360, Note_off_c, 9, 42, 63
4, 199360, Note_on_c, 9, 42, 63
4, 199520, Note_off_c, 9, 42, 63
4, 199520, Note_on_c, 9, 42, 63
4, 199680, Note_off_c, 9, 42, 63
4, 199680, Note_on_c, 9, 42, 95
4, 199680, Note_on_c, 9, 36, 95
4, 200160, Note_off_c, 9, 42, 95
4, 200160, Note_off_c, 9, 36, 95
4, 200160, Note_on_c, 9, 36, 95
4, 200640, Note_off_c, 9, 36, 95
4, 200640, Note_on_c, 9, 42, 95
4, 201120, Note_off_c, 9, 42, 95
4, 201120, Note_on_c, 9, 40, 95
4, 201600, Note_off_c, 9, 40, 95
4, 201600, Note_on_c, 9, 42, 95
4, 202080, Note_off_c, 9, 42, 95
4, 202080, Note_on_c, 9, 36, 95
4, 202560, Note_off_c, 9, 36, 95
4, 202560, Note_on_c, 9, 46, 95
4, 202560, Note_on_c, 9, 40, 95
4, 203520, Note_off_c, 9, 46, 95
4, 203520, Note_off_c, 9, 40, 95
4, 203520, Note_on_c, 9, 46, 95
4, 203520, Note_on_c, 9, 36, 95
4, 204000, Note_off_c, 9, 46, 95
4, 204000, Note_off_c, 9, 36, 95
4, 204000, Note_on_c, 9, 46, 63
4, 204240, Note_off_c, 9, 46, 63
4, 204240, Note_on_c, 9, 40, 95
4, 204480, Note_off_c, 9, 40, 95
4, 204480, Note_on_c, 9, 40, 95
4, 204720, Note_off_c, 9, 40, 95
4, 204720, Note_on_c, 9, 40, 95
4, 204960, Note_off_c, 9, 40, 95
4, 204960, Note_on_c, 9, 40, 95
4, 205200, Note_off_c, 9, 40, 95
4, 205200, Note_on_c, 9, 40, 95
4, 205440, Note_off_c, 9, 40, 95
4, 205440, Note_on_c, 9, 47, 95
4, 205680, Note_off_c, 9, 47, 95
4, 205680, Note_on_c, 9, 47, 95
4, 205920, Note_off_c, 9, 47, 95
4, 205920, Note_on_c, 9, 47, 95
4, 206160, Note_off_c, 9, 47, 95
4, 206160, Note_on_c, 9, 45, 95
4, 206400, Note_off_c, 9, 45, 95
4, 206400, Note_on_c, 9, 40, 95
4, 206430, Note_on_c, 9, 40, 95
4, 207360, Note_off_c, 9, 40, 95
4, 207360, Note_off_c, 9, 40, 95
4, 207360, Note_on_c, 9, 57, 95
4, 207360, Note_on_c, 9, 36, 95
4, 208320, Note_off_c, 9, 57, 95
4, 208320, Note_off_c, 9, 36, 95
4, 208320, Note_on_c, 9, 42, 95
4, 208800, Note_off_c, 9, 42, 95
4, 208800, Note_on_c, 9, 40, 95
4, 209280, Note_off_c, 9, 40, 95
4, 209280, Note_on_c, 9, 42, 95
4, 209760, Note_off_c, 9, 42, 95
4, 209760, Note_on_c, 9, 36, 95
4, 210240, Note_off_c, 9, 36, 95
4, 210240, Note_on_c, 9, 42, 95
4, 210240, Note_on_c, 9, 40, 95
4, 210720, Note_off_c, 9, 42, 95
4, 210720, Note_off_c, 9, 40, 95
4, 210720, Note_on_c, 9, 42, 63
4, 210880, Note_off_c, 9, 42, 63
4, 210880, Note_on_c, 9, 42, 63
4, 211040, Note_off_c, 9, 42, 63
4, 211040, Note_on_c, 9, 42, 63
4, 211200, Note_off_c, 9, 42, 63
4, 211200, Note_on_c, 9, 42, 95
4, 211200, Note_on_c, 9, 36, 95
4, 211680, Note_off_c, 9, 42, 95
4, 211680, Note_off_c, 9, 36, 95
4, 211680, Note_on_c, 9, 36, 95
4, 212160, Note_off_c, 9, 36, 95
4, 212160, Note_on_c, 9, 42, 95
4, 212640, Note_off_c, 9, 42, 95
4, 212640, Note_on_c, 9, 40, 95
4, 213120, Note_off_c, 9, 40, 95
4, 213120, Note_on_c, 9, 42, 95
4, 213360, Note_off_c, 9, 42, 95
4, 213360, Note_on_c, 9, 36, 63
4, 213600, Note_off_c, 9, 36, 63
4, 213600, Note_on_c, 9, 36, 95
4, 213840, Note_off_c, 9, 36, 95
4, 213840, Note_on_c, 9, 36, 95
4, 214080, Note_off_c, 9, 36, 95
4, 214080, Note_on_c, 9, 42, 95
4, 214080, Note_on_c, 9, 40, 95
4, 214320, Note_off_c, 9, 42, 95
4, 214320, Note_off_c, 9, 40, 95
4, 214320, Note_on_c, 9, 36, 95
4, 214560, Note_off_c, 9, 36, 95
4, 214560, Note_on_c, 9, 42, 47
4, 215040, Note_off_c, 9, 42, 47
4, 215040, Note_on_c, 9, 42, 95
4, 215040, Note_on_c, 9, 36, 95
4, 215520, Note_off_c, 9, 42, 95
4, 215520, Note_off_c, 9, 36, 95
4, 215520, Note_on_c, 9, 36, 95
4, 216000, Note_off_c, 9, 36, 95
4, 216000, Note_on_c, 9, 42, 95
4, 216480, Note_off_c, 9, 42, 95
4, 216480, Note_on_c, 9, 40, 95
4, 216960, Note_off_c, 9, 40, 95
4, 216960, Note_on_c, 9, 42, 95
4, 217440, Note_off_c, 9, 42, 95
4, 217440, Note_on_c, 9, 36, 95
4, 217920, Note_off_c, 9, 36, 95
4, 217920, Note_on_c, 9, 42, 95
4, 217920, Note_on_c, 9, 40, 95
4, 218400, Note_off_c, 9, 42, 95
4, 218400, Note_off_c, 9, 40, 95
4, 218400, Note_on_c, 9, 42, 63
4, 218560, Note_off_c, 9, 42, 63
4, 218560, Note_on_c, 9, 42, 63
4, 218720, Note_off_c, 9, 42, 63
4, 218720, Note_on_c, 9, 42, 63
4, 218880, Note_off_c, 9, 42, 63
4, 218880, Note_on_c, 9, 42, 95
4, 218880, Note_on_c, 9, 36, 95
4, 219360, Note_off_c, 9, 42, 95
4, 219360, Note_off_c, 9, 36, 95
4, 219360, Note_on_c, 9, 42, 95
4, 219360, Note_on_c, 9, 36, 95
4, 219840, Note_off_c, 9, 42, 95
4, 219840, Note_off_c, 9, 36, 95
4, 219840, Note_on_c, 9, 46, 95
4, 220320, Note_off_c, 9, 46, 95
4, 220320, Note_on_c, 9, 36, 95
4, 220800, Note_off_c, 9, 36, 95
4, 220800, Note_on_c, 9, 40, 95
4, 220815, Note_on_c, 9, 40, 95
4, 221280, Note_off_c, 9, 40, 95
4, 221280, Note_off_c, 9, 40, 95
4, 221280, Note_on_c, 9, 36, 95
4, 221760, Note_off_c, 9, 36, 95
4, 221760, Note_on_c, 9, 47, 95
4, 221775, Note_on_c, 9, 47, 95
4, 222240, Note_off_c, 9, 47, 95
4, 222240, Note_off_c, 9, 47, 95
4, 222240, Note_on_c, 9, 36, 95
4, 222720, Note_off_c, 9, 36, 95
4, 222720, Note_on_c, 9, 49, 95
4, 222720, Note_on_c, 9, 36, 95
4, 223680, Note_off_c, 9, 49, 95
4, 223680, Note_off_c, 9, 36, 95
4, 223680, Note_on_c, 9, 42, 95
4, 224160, Note_off_c, 9, 42, 95
4, 224160, Note_on_c, 9, 40, 95
4, 224640, Note_off_c, 9, 40, 95
4, 224640, Note_on_c, 9, 42, 95
4, 225120, Note_off_c, 9, 42, 95
4, 225120, Note_on_c, 9, 36, 95
4, 225600, Note_off_c, 9, 36, 95
4, 225600, Note_on_c, 9, 42, 95
4, 225600, Note_on_c, 9, 40, 95
4, 226080, Note_off_c, 9, 42, 95
4, 226080, Note_off_c, 9, 40, 95
4, 226080, Note_on_c, 9, 42, 63
4, 226240, Note_off_c, 9, 42, 63
4, 226240, Note_on_c, 9, 42, 63
4, 226400, Note_off_c, 9, 42, 63
4, 226400, Note_on_c, 9, 42, 63
4, 226560, Note_off_c, 9, 42, 63
4, 226560, Note_on_c, 9, 42, 95
4, 226560, Note_on_c, 9, 36, 95
4, 227040, Note_off_c, 9, 42, 95
4, 227040, Note_off_c, 9, 36, 95
4, 227040, Note_on_c, 9, 36, 95
4, 227520, Note_off_c, 9, 36, 95
4, 227520, Note_on_c, 9, 42, 95
4, 228000, Note_off_c, 9, 42, 95
4, 228000, Note_on_c, 9, 40, 95
4, 228480, Note_off_c, 9, 40, 95
4, 228480, Note_on_c, 9, 42, 95
4, 228960, Note_off_c, 9, 42, 95
4, 228960, Note_on_c, 9, 36, 95
4, 229440, Note_off_c, 9, 36, 95
4, 229440, Note_on_c, 9, 46, 95
4, 229440, Note_on_c, 9, 40, 95
4, 230400, Note_off_c, 9, 46, 95
4, 230400, Note_off_c, 9, 40, 95
4, 230400, Note_on_c, 9, 42, 95
4, 230400, Note_on_c, 9, 36, 95
4, 230880, Note_off_c, 9, 42, 95
4, 230880, Note_off_c, 9, 36, 95
4, 230880, Note_on_c, 9, 36, 95
4, 231360, Note_off_c, 9, 36, 95
4, 231360, Note_on_c, 9, 42, 95
4, 231840, Note_off_c, 9, 42, 95
4, 231840, Note_on_c, 9, 40, 95
4, 232320, Note_off_c, 9, 40, 95
4, 232320, Note_on_c, 9, 42, 95
4, 232800, Note_off_c, 9, 42, 95
4, 232800, Note_on_c, 9, 36, 95
4, 233280, Note_off_c, 9, 36, 95
4, 233280, Note_on_c, 9, 42, 95
4, 233280, Note_on_c, 9, 40, 95
4, 233760, Note_off_c, 9, 42, 95
4, 233760, Note_off_c, 9, 40, 95
4, 233760, Note_on_c, 9, 42, 63
4, 233920, Note_off_c, 9, 42, 63
4, 233920, Note_on_c, 9, 42, 63
4, 234080, Note_off_c, 9, 42, 63
4, 234080, Note_on_c, 9, 42, 63
4, 234240, Note_off_c, 9, 42, 63
4, 234240, Note_on_c, 9, 42, 95
4, 234240, Note_on_c, 9, 36, 95
4, 234720, Note_off_c, 9, 42, 95
4, 234720, Note_off_c, 9, 36, 95
4, 234720, Note_on_c, 9, 36, 95
4, 235200, Note_off_c, 9, 36, 95
4, 235200, Note_on_c, 9, 42, 95
4, 235680, Note_off_c, 9, 42, 95
4, 235680, Note_on_c, 9, 40, 95
4, 236160, Note_off_c, 9, 40, 95
4, 236160, Note_on_c, 9, 42, 95
4, 236640, Note_off_c, 9, 42, 95
4, 236640, Note_on_c, 9, 36, 95
4, 237120, Note_off_c, 9, 36, 95
4, 237120, Note_on_c, 9, 46, 95
4, 237120, Note_on_c, 9, 40, 95
4, 238080, Note_off_c, 9, 46, 95
4, 238080, Note_off_c, 9, 40, 95
4, 238080, Note_on_c, 9, 42, 95
4, 238080, Note_on_c, 9, 36, 95
4, 238560, Note_off_c, 9, 42, 95
4, 238560, Note_off_c, 9, 36, 95
4, 238560, Note_on_c, 9, 36, 95
4, 239040, Note_off_c, 9, 36, 95
4, 239040, Note_on_c, 9, 42, 95
4, 239520, Note_off_c, 9, 42, 95
4, 239520, Note_on_c, 9, 40, 95
4, 240000, Note_off_c, 9, 40, 95
4, 240000, Note_on_c, 9, 42, 95
4, 240480, Note_off_c, 9, 42, 95
4, 240480, Note_on_c, 9, 36, 95
4, 240960, Note_off_c, 9, 36, 95
4, 240960, Note_on_c, 9, 42, 95
4, 240960, Note_on_c, 9, 40, 95
4, 241440, Note_off_c, 9, 42, 95
4, 241440, Note_off_c, 9, 40, 95
4, 241440, Note_on_c, 9, 42, 63
4, 241600, Note_off_c, 9, 42, 63
4, 241600, Note_on_c, 9, 42, 63
4, 241760, Note_off_c, 9, 42, 63
4, 241760, Note_on_c, 9, 42, 63
4, 241920, Note_off_c, 9, 42, 63
4, 241920, Note_on_c, 9, 42, 95
4, 241920, Note_on_c, 9, 36, 95
4, 242400, Note_off_c, 9, 42, 95
4, 242400, Note_off_c, 9, 36, 95
4, 242400, Note_on_c, 9, 36, 95
4, 242880, Note_off_c, 9, 36, 95
4, 242880, Note_on_c, 9, 42, 95
4, 243360, Note_off_c, 9, 42, 95
4, 243360, Note_on_c, 9, 40, 95
4, 243840, Note_off_c, 9, 40, 95
4, 243840, Note_on_c, 9, 42, 95
4, 244320, Note_off_c, 9, 42, 95
4, 244320, Note_on_c, 9, 36, 95
4, 244800, Note_off_c, 9, 36, 95
4, 244800, Note_on_c, 9, 46, 95
4, 244800, Note_on_c, 9, 40, 95
4, 245760, Note_off_c, 9, 46, 95
4, 245760, Note_off_c, 9, 40, 95
4, 245760, Note_on_c, 9, 42, 95
4, 245760, Note_on_c, 9, 36, 95
4, 246240, Note_off_c, 9, 42, 95
4, 246240, Note_off_c, 9, 36, 95
4, 246240, Note_on_c, 9, 36, 95
4, 246720, Note_off_c, 9, 36, 95
4, 246720, Note_on_c, 9, 42, 95
4, 247200, Note_off_c, 9, 42, 95
4, 247200, Note_on_c, 9, 40, 95
4, 247680, Note_off_c, 9, 40, 95
4, 247680, Note_on_c, 9, 42, 95
4, 248160, Note_off_c, 9, 42, 95
4, 248160, Note_on_c, 9, 36, 95
4, 248640, Note_off_c, 9, 36, 95
4, 248640, Note_on_c, 9, 46, 95
4, 248640, Note_on_c, 9, 40, 95
4, 249600, Note_off_c, 9, 46, 95
4, 249600, Note_off_c, 9, 40, 95
4, 249600, Note_on_c, 9, 42, 95
4, 249600, Note_on_c, 9, 36, 95
4, 250080, Note_off_c, 9, 42, 95
4, 250080, Note_off_c, 9, 36, 95
4, 250080, Note_on_c, 9, 36, 95
4, 250560, Note_off_c, 9, 36, 95
4, 250560, Note_on_c, 9, 42, 95
4, 251040, Note_off_c, 9, 42, 95
4, 251040, Note_on_c, 9, 40, 95
4, 251520, Note_off_c, 9, 40, 95
4, 251520, Note_on_c, 9, 46, 95
4, 252000, Note_off_c, 9, 46, 95
4, 252000, Note_on_c, 9, 36, 95
4, 252480, Note_off_c, 9, 36, 95
4, 252480, Note_on_c, 9, 47, 95
4, 252495, Note_on_c, 9, 47, 95
4, 252960, Note_off_c, 9, 47, 95
4, 252960, Note_off_c, 9, 47, 95
4, 252960, Note_on_c, 9, 36, 95
4, 253440, Note_off_c, 9, 36, 95
4, 253440, Note_on_c, 9, 57, 95
4, 253440, Note_on_c, 9, 36, 95
4, 253920, Note_off_c, 9, 57, 95
4, 253920, Note_off_c, 9, 36, 95
4, 253920, Note_on_c, 9, 36, 95
4, 254400, Note_off_c, 9, 36, 95
4, 254400, Note_on_c, 9, 42, 95
4, 254880, Note_off_c, 9, 42, 95
4, 254880, Note_on_c, 9, 40, 95
4, 255360, Note_off_c, 9, 40, 95
4, 255360, Note_on_c, 9, 42, 95
4, 255840, Note_off_c, 9, 42, 95
4, 255840, Note_on_c, 9, 36, 95
4, 256320, Note_off_c, 9, 36, 95
4, 256320, Note_on_c, 9, 42, 95
4, 256320, Note_on_c, 9, 40, 95
4, 256800, Note_off_c, 9, 42, 95
4, 256800, Note_off_c, 9, 40, 95
4, 256800, Note_on_c, 9, 42, 63
4, 256960, Note_off_c, 9, 42, 63
4, 256960, Note_on_c, 9, 42, 63
4, 257120, Note_off_c, 9, 42, 63
4, 257120, Note_on_c, 9, 42, 63
4, 257280, Note_off_c, 9, 42, 63
4, 257280, Note_on_c, 9, 42, 95
4, 257280, Note_on_c, 9, 36, 95
4, 257760, Note_off_c, 9, 42, 95
4, 257760, Note_off_c, 9, 36, 95
4, 257760, Note_on_c, 9, 36, 95
4, 258240, Note_off_c, 9, 36, 95
4, 258240, Note_on_c, 9, 42, 95
4, 258720, Note_off_c, 9, 42, 95
4, 258720, Note_on_c, 9, 40, 95
4, 259200, Note_off_c, 9, 40, 95
4, 259200, Note_on_c, 9, 42, 95
4, 259680, Note_off_c, 9, 42, 95
4, 259680, Note_on_c, 9, 36, 95
4, 260160, Note_off_c, 9, 36, 95
4, 260160, Note_on_c, 9, 46, 95
4, 260160, Note_on_c, 9, 40, 95
4, 261120, Note_off_c, 9, 46, 95
4, 261120, Note_off_c, 9, 40, 95
4, 261120, Note_on_c, 9, 42, 95
4, 261120, Note_on_c, 9, 36, 95
4, 261600, Note_off_c, 9, 42, 95
4, 261600, Note_off_c, 9, 36, 95
4, 261600, Note_on_c, 9, 36, 95
4, 262080, Note_off_c, 9, 36, 95
4, 262080, Note_on_c, 9, 42, 95
4, 262560, Note_off_c, 9, 42, 95
4, 262560, Note_on_c, 9, 40, 95
4, 263040, Note_off_c, 9, 40, 95
4, 263040, Note_on_c, 9, 42, 95
4, 263520, Note_off_c, 9, 42, 95
4, 263520, Note_on_c, 9, 36, 95
4, 264000, Note_off_c, 9, 36, 95
4, 264000, Note_on_c, 9, 42, 95
4, 264000, Note_on_c, 9, 40, 95
4, 264480, Note_off_c, 9, 42, 95
4, 264480, Note_off_c, 9, 40, 95
4, 264480, Note_on_c, 9, 42, 63
4, 264640, Note_off_c, 9, 42, 63
4, 264640, Note_on_c, 9, 42, 63
4, 264800, Note_off_c, 9, 42, 63
4, 264800, Note_on_c, 9, 42, 63
4, 264960, Note_off_c, 9, 42, 63
4, 264960, Note_on_c, 9, 42, 95
4, 264960, Note_on_c, 9, 36, 95
4, 265440, Note_off_c, 9, 42, 95
4, 265440, Note_off_c, 9, 36, 95
4, 265440, Note_on_c, 9, 36, 95
4, 265920, Note_off_c, 9, 36, 95
4, 265920, Note_on_c, 9, 46, 95
4, 266400, Note_off_c, 9, 46, 95
4, 266400, Note_on_c, 9, 36, 95
4, 266880, Note_off_c, 9, 36, 95
4, 266880, Note_on_c, 9, 40, 95
4, 266895, Note_on_c, 9, 40, 95
4, 267360, Note_off_c, 9, 40, 95
4, 267360, Note_off_c, 9, 40, 95
4, 267360, Note_on_c, 9, 36, 95
4, 267840, Note_off_c, 9, 36, 95
4, 267840, Note_on_c, 9, 47, 95
4, 267855, Note_on_c, 9, 47, 95
4, 268320, Note_off_c, 9, 47, 95
4, 268320, Note_off_c, 9, 47, 95
4, 268320, Note_on_c, 9, 36, 95
4, 268800, Note_off_c, 9, 36, 95
4, 268800, Note_on_c, 9, 49, 95
4, 268800, Note_on_c, 9, 36, 95
4, 269760, Note_off_c, 9, 49, 95
4, 269760, Note_off_c, 9, 36, 95
4, 269760, Note_on_c, 9, 42, 95
4, 270240, Note_off_c, 9, 42, 95
4, 270240, Note_on_c, 9, 40, 95
4, 270720, Note_off_c, 9, 40, 95
4, 270720, Note_on_c, 9, 42, 95
4, 271200, Note_off_c, 9, 42, 95
4, 271200, Note_on_c, 9, 36, 95
4, 271680, Note_off_c, 9, 36, 95
4, 271680, Note_on_c, 9, 40, 95
4, 272160, Note_off_c, 9, 40, 95
4, 272160, Note_on_c, 9, 42, 63
4, 272320, Note_off_c, 9, 42, 63
4, 272320, Note_on_c, 9, 42, 63
4, 272480, Note_off_c, 9, 42, 63
4, 272480, Note_on_c, 9, 42, 63
4, 272640, Note_off_c, 9, 42, 63
4, 272640, Note_on_c, 9, 42, 95
4, 272640, Note_on_c, 9, 36, 95
4, 273120, Note_off_c, 9, 42, 95
4, 273120, Note_off_c, 9, 36, 95
4, 273120, Note_on_c, 9, 36, 95
4, 273600, Note_off_c, 9, 36, 95
4, 273600, Note_on_c, 9, 46, 95
4, 274080, Note_off_c, 9, 46, 95
4, 274080, Note_on_c, 9, 36, 95
4, 274560, Note_off_c, 9, 36, 95
4, 274560, Note_on_c, 9, 40, 95
4, 274575, Note_on_c, 9, 40, 95
4, 275040, Note_off_c, 9, 40, 95
4, 275040, Note_off_c, 9, 40, 95
4, 275040, Note_on_c, 9, 49, 95
4, 275040, Note_on_c, 9, 36, 95
4, 275760, Note_off_c, 9, 49, 95
4, 275760, Note_off_c, 9, 36, 95
4, 275760, Note_on_c, 9, 57, 95
4, 275760, Note_on_c, 9, 36, 95
4, 276480, Note_off_c, 9, 57, 95
4, 276480, Note_off_c, 9, 36, 95
4, 276480, Note_on_c, 9, 57, 95
4, 276480, Note_on_c, 9, 36, 95
4, 277440, Note_off_c, 9, 57, 95
4, 277440, Note_off_c, 9, 36, 95
4, 277440, Note_on_c, 9, 42, 95
4, 277920, Note_off_c, 9, 42, 95
4, 277920, Note_on_c, 9, 40, 95
4, 278400, Note_off_c, 9, 40, 95
4, 278400, Note_on_c, 9, 42, 95
4, 278880, Note_off_c, 9, 42, 95
4, 278880, Note_on_c, 9, 36, 95
4, 279360, Note_off_c, 9, 36, 95
4, 279360, Note_on_c, 9, 46, 95
4, 279360, Note_on_c, 9, 40, 95
4, 280320, Note_off_c, 9, 46, 95
4, 280320, Note_off_c, 9, 40, 95
4, 280320, Note_on_c, 9, 46, 95
4, 280320, Note_on_c, 9, 36, 95
4, 280800, Note_off_c, 9, 46, 95
4, 280800, Note_off_c, 9, 36, 95
4, 280800, Note_on_c, 9, 36, 95
4, 281280, Note_off_c, 9, 36, 95
4, 281280, Note_on_c, 9, 40, 95
4, 281295, Note_on_c, 9, 40, 95
4, 281760, Note_off_c, 9, 40, 95
4, 281760, Note_off_c, 9, 40, 95
4, 281760, Note_on_c, 9, 36, 95
4, 282240, Note_off_c, 9, 36, 95
4, 282240, Note_on_c, 9, 40, 95
4, 282255, Note_on_c, 9, 40, 95
4, 282720, Note_off_c, 9, 40, 95
4, 282720, Note_off_c, 9, 40, 95
4, 282720, Note_on_c, 9, 36, 95
4, 283200, Note_off_c, 9, 36, 95
4, 283200, Note_on_c, 9, 40, 95
4, 283215, Note_on_c, 9, 40, 95
4, 283680, Note_off_c, 9, 40, 95
4, 283680, Note_off_c, 9, 40, 95
4, 283680, Note_on_c, 9, 36, 95
4, 284160, Note_off_c, 9, 36, 95
4, 284160, Note_on_c, 9, 57, 95
4, 284160, Note_on_c, 9, 36, 95
4, 285120, Note_off_c, 9, 57, 95
4, 285120, Note_off_c, 9, 36, 95
4, 285120, Note_on_c, 9, 42, 95
4, 285600, Note_off_c, 9, 42, 95
4, 285600, Note_on_c, 9, 40, 95
4, 286080, Note_off_c, 9, 40, 95
4, 286080, Note_on_c, 9, 42, 95
4, 286560, Note_off_c, 9, 42, 95
4, 286560, Note_on_c, 9, 36, 95
4, 287040, Note_off_c, 9, 36, 95
4, 287040, Note_on_c, 9, 46, 95
4, 287040, Note_on_c, 9, 40, 95
4, 287520, Note_off_c, 9, 46, 95
4, 287520, Note_off_c, 9, 40, 95
4, 287520, Note_on_c, 9, 44, 47
4, 288000, Note_off_c, 9, 44, 47
4, 288000, Note_on_c, 9, 42, 95
4, 288000, Note_on_c, 9, 36, 95
4, 288480, Note_off_c, 9, 42, 95
4, 288480, Note_off_c, 9, 36, 95
4, 288480, Note_on_c, 9, 36, 95
4, 288960, Note_off_c, 9, 36, 95
4, 288960, Note_on_c, 9, 42, 95
4, 289440, Note_off_c, 9, 42, 95
4, 289440, Note_on_c, 9, 40, 95
4, 289920, Note_off_c, 9, 40, 95
4, 289920, Note_on_c, 9, 42, 95
4, 290400, Note_off_c, 9, 42, 95
4, 290400, Note_on_c, 9, 36, 95
4, 290880, Note_off_c, 9, 36, 95
4, 290880, Note_on_c, 9, 46, 95
4, 290880, Note_on_c, 9, 40, 95
4, 291360, Note_off_c, 9, 46, 95
4, 291360, Note_off_c, 9, 40, 95
4, 291360, Note_on_c, 9, 44, 47
4, 291840, Note_off_c, 9, 44, 47
4, 291840, Note_on_c, 9, 42, 95
4, 291840, Note_on_c, 9, 36, 95
4, 292320, Note_off_c, 9, 42, 95
4, 292320, Note_off_c, 9, 36, 95
4, 292320, Note_on_c, 9, 36, 95
4, 292800, Note_off_c, 9, 36, 95
4, 292800, Note_on_c, 9, 42, 95
4, 293280, Note_off_c, 9, 42, 95
4, 293280, Note_on_c, 9, 40, 95
4, 293760, Note_off_c, 9, 40, 95
4, 293760, Note_on_c, 9, 42, 95
4, 294240, Note_off_c, 9, 42, 95
4, 294240, Note_on_c, 9, 36, 95
4, 294720, Note_off_c, 9, 36, 95
4, 294720, Note_on_c, 9, 46, 95
4, 294720, Note_on_c, 9, 40, 95
4, 295200, Note_off_c, 9, 46, 95
4, 295200, Note_off_c, 9, 40, 95
4, 295200, Note_on_c, 9, 44, 47
4, 295680, Note_off_c, 9, 44, 47
4, 295680, Note_on_c, 9, 40, 95
4, 295695, Note_on_c, 9, 40, 95
4, 296160, Note_off_c, 9, 40, 95
4, 296160, Note_off_c, 9, 40, 95
4, 296160, Note_on_c, 9, 36, 95
4, 296640, Note_off_c, 9, 36, 95
4, 296640, Note_on_c, 9, 40, 95
4, 296655, Note_on_c, 9, 40, 95
4, 297120, Note_off_c, 9, 40, 95
4, 297120, Note_off_c, 9, 40, 95
4, 297120, Note_on_c, 9, 36, 95
4, 297600, Note_off_c, 9, 36, 95
4, 297600, Note_on_c, 9, 40, 95
4, 297615, Note_on_c, 9, 40, 95
4, 298080, Note_off_c, 9, 40, 95
4, 298080, Note_off_c, 9, 40, 95
4, 298080, Note_on_c, 9, 49, 95
4, 298080, Note_on_c, 9, 36, 95
4, 298800, Note_off_c, 9, 49, 95
4, 298800, Note_off_c, 9, 36, 95
4, 298800, Note_on_c, 9, 49, 95
4, 298800, Note_on_c, 9, 36, 95
4, 299520, Note_off_c, 9, 49, 95
4, 299520, Note_off_c, 9, 36, 95
4, 299520, Note_on_c, 9, 57, 95
4, 299520, Note_on_c, 9, 36, 95
4, 300480, Note_off_c, 9, 57, 95
4, 300480, Note_off_c, 9, 36, 95
4, 300480, Note_on_c, 9, 42, 95
4, 300960, Note_off_c, 9, 42, 95
4, 300960, Note_on_c, 9, 40, 95
4, 301440, Note_off_c, 9, 40, 95
4, 301440, Note_on_c, 9, 42, 95
4, 301920, Note_off_c, 9, 42, 95
4, 301920, Note_on_c, 9, 36, 95
4, 302400, Note_off_c, 9, 36, 95
4, 302400, Note_on_c, 9, 46, 95
4, 302400, Note_on_c, 9, 40, 95
4, 303360, Note_off_c, 9, 46, 95
4, 303360, Note_off_c, 9, 40, 95
4, 303360, Note_on_c, 9, 42, 95
4, 303360, Note_on_c, 9, 36, 95
4, 303840, Note_off_c, 9, 42, 95
4, 303840, Note_off_c, 9, 36, 95
4, 303840, Note_on_c, 9, 36, 95
4, 304320, Note_off_c, 9, 36, 95
4, 304320, Note_on_c, 9, 42, 95
4, 304800, Note_off_c, 9, 42, 95
4, 304800, Note_on_c, 9, 40, 95
4, 305280, Note_off_c, 9, 40, 95
4, 305280, Note_on_c, 9, 42, 95
4, 305760, Note_off_c, 9, 42, 95
4, 305760, Note_on_c, 9, 36, 95
4, 306240, Note_off_c, 9, 36, 95
4, 306240, Note_on_c, 9, 46, 95
4, 306240, Note_on_c, 9, 40, 95
4, 307200, Note_off_c, 9, 46, 95
4, 307200, Note_off_c, 9, 40, 95
4, 307200, Note_on_c, 9, 42, 95
4, 307200, Note_on_c, 9, 36, 95
4, 307680, Note_off_c, 9, 42, 95
4, 307680, Note_off_c, 9, 36, 95
4, 307680, Note_on_c, 9, 36, 95
4, 308160, Note_off_c, 9, 36, 95
4, 308160, Note_on_c, 9, 42, 95
4, 308640, Note_off_c, 9, 42, 95
4, 308640, Note_on_c, 9, 40, 95
4, 309120, Note_off_c, 9, 40, 95
4, 309120, Note_on_c, 9, 42, 95
4, 309600, Note_off_c, 9, 42, 95
4, 309600, Note_on_c, 9, 36, 95
4, 310080, Note_off_c, 9, 36, 95
4, 310080, Note_on_c, 9, 42, 95
4, 310080, Note_on_c, 9, 40, 95
4, 310560, Note_off_c, 9, 42, 95
4, 310560, Note_off_c, 9, 40, 95
4, 310560, Note_on_c, 9, 42, 47
4, 311040, Note_off_c, 9, 42, 47
4, 311040, Note_on_c, 9, 42, 95
4, 311040, Note_on_c, 9, 36, 95
4, 311520, Note_off_c, 9, 42, 95
4, 311520, Note_off_c, 9, 36, 95
4, 311520, Note_on_c, 9, 40, 95
4, 312000, Note_off_c, 9, 40, 95
4, 312000, Note_on_c, 9, 40, 95
4, 312240, Note_off_c, 9, 40, 95
4, 312240, Note_on_c, 9, 40, 95
4, 312480, Note_off_c, 9, 40, 95
4, 312480, Note_on_c, 9, 40, 95
4, 312720, Note_off_c, 9, 40, 95
4, 312720, Note_on_c, 9, 40, 95
4, 312960, Note_off_c, 9, 40, 95
4, 312960, Note_on_c, 9, 40, 95
4, 313200, Note_off_c, 9, 40, 95
4, 313200, Note_on_c, 9, 40, 95
4, 313440, Note_off_c, 9, 40, 95
4, 313440, Note_on_c, 9, 40, 95
4, 313680, Note_off_c, 9, 40, 95
4, 313680, Note_on_c, 9, 36, 95
4, 313920, Note_off_c, 9, 36, 95
4, 313920, Note_on_c, 9, 40, 95
4, 313950, Note_on_c, 9, 40, 95
4, 314880, Note_off_c, 9, 40, 95
4, 314880, Note_off_c, 9, 40, 95
4, 314880, Note_on_c, 9, 49, 95
4, 314880, Note_on_c, 9, 36, 95
4, 316320, Note_off_c, 9, 49, 95
4, 316320, Note_off_c, 9, 36, 95
4, 316320, Note_on_c, 9, 57, 95
4, 316320, Note_on_c, 9, 36, 95
4, 316800, Note_off_c, 9, 57, 95
4, 316800, Note_off_c, 9, 36, 95
4, 316800, Note_on_c, 9, 57, 95
4, 316800, Note_on_c, 9, 36, 95
4, 317280, Note_off_c, 9, 57, 95
4, 317280, Note_off_c, 9, 36, 95
4, 317280, Note_on_c, 9, 57, 95
4, 317280, Note_on_c, 9, 36, 95
4, 318240, Note_off_c, 9, 57, 95
4, 318240, Note_off_c, 9, 36, 95
4, 318240, Note_on_c, 9, 49, 95
4, 318240, Note_on_c, 9, 36, 95
4, 319200, Note_off_c, 9, 49, 95
4, 319200, Note_off_c, 9, 36, 95
4, 320400, Note_on_c, 9, 46, 95
4, 321360, Note_off_c, 9, 46, 95
4, 321360, Note_on_c, 9, 46, 95
4, 322320, Note_off_c, 9, 46, 95
4, 322320, Note_on_c, 9, 40, 95
4, 322560, Note_off_c, 9, 40, 95
4, 322560, Note_on_c, 9, 40, 95
4, 322800, Note_off_c, 9, 40, 95
4, 322800, Note_on_c, 9, 40, 95
4, 323040, Note_off_c, 9, 40, 95
4, 323040, Note_on_c, 9, 40, 95
4, 323280, Note_off_c, 9, 40, 95
4, 323280, Note_on_c, 9, 40, 95
4, 323280, Note_on_c, 9, 36, 95
4, 323760, Note_off_c, 9, 40, 95
4, 323760, Note_off_c, 9, 36, 95
4, 323760, End_track
5, 0, Start_track
5, 0, Pitch_bend_c, 4, 8192
5, 0, Control_c, 4, 7, 103
5, 0, Control_c, 4, 10, 63
5, 0, Control_c, 4, 93, 0
5, 0, Control_c, 4, 91, 0
5, 0, Control_c, 4, 95, 0
5, 0, Control_c, 4, 92, 0
5, 0, Control_c, 4, 11, 127
5, 0, Program_c, 4, 30
5, 0, Control_c, 5, 7, 103
5, 0, Control_c, 5, 10, 63
5, 0, Control_c, 5, 93, 0
5, 0, Control_c, 5, 91, 0
5, 0, Control_c, 5, 95, 0
5, 0, Control_c, 5, 92, 0
5, 0, Control_c, 5, 11, 127
5, 0, Program_c, 5, 30
5, 96960, Control_c, 5, 11, 31
5, 96960, Pitch_bend_c, 5, 8192
5, 96960, Note_on_c, 5, 76, 95
5, 96980, Control_c, 5, 11, 32
5, 97000, Control_c, 5, 11, 33
5, 97020, Control_c, 5, 11, 34
5, 97040, Control_c, 5, 11, 35
5, 97047, Pitch_bend_c, 5, 8320
5, 97060, Control_c, 5, 11, 36
5, 97080, Control_c, 5, 11, 37
5, 97100, Control_c, 5, 11, 38
5, 97120, Control_c, 5, 11, 39
5, 97134, Pitch_bend_c, 5, 8448
5, 97140, Control_c, 5, 11, 40
5, 97160, Control_c, 5, 11, 41
5, 97180, Control_c, 5, 11, 42
5, 97200, Control_c, 5, 11, 43
5, 97220, Control_c, 5, 11, 44
5, 97221, Pitch_bend_c, 5, 8576
5, 97240, Control_c, 5, 11, 45
5, 97260, Control_c, 5, 11, 46
5, 97280, Control_c, 5, 11, 47
5, 97300, Control_c, 5, 11, 48
5, 97308, Pitch_bend_c, 5, 8704
5, 97320, Control_c, 5, 11, 49
5, 97340, Control_c, 5, 11, 50
5, 97360, Control_c, 5, 11, 51
5, 97380, Control_c, 5, 11, 52
5, 97395, Pitch_bend_c, 5, 8832
5, 97400, Control_c, 5, 11, 53
5, 97420, Control_c, 5, 11, 54
5, 97440, Control_c, 5, 11, 55
5, 97460, Control_c, 5, 11, 56
5, 97480, Control_c, 5, 11, 57
5, 97482, Pitch_bend_c, 5, 8960
5, 97500, Control_c, 5, 11, 58
5, 97520, Control_c, 5, 11, 59
5, 97540, Control_c, 5, 11, 60
5, 97560, Control_c, 5, 11, 61
5, 97569, Pitch_bend_c, 5, 9088
5, 97580, Control_c, 5, 11, 62
5, 97600, Control_c, 5, 11, 63
5, 97620, Control_c, 5, 11, 64
5, 97640, Control_c, 5, 11, 65
5, 97656, Pitch_bend_c, 5, 9216
5, 97660, Control_c, 5, 11, 66
5, 97680, Control_c, 5, 11, 67
5, 97700, Control_c, 5, 11, 68
5, 97720, Control_c, 5, 11, 69
5, 97740, Control_c, 5, 11, 70
5, 97743, Pitch_bend_c, 5, 9344
5, 97760, Control_c, 5, 11, 71
5, 97780, Control_c, 5, 11, 72
5, 97800, Control_c, 5, 11, 73
5, 97820, Control_c, 5, 11, 74
5, 97830, Pitch_bend_c, 5, 9472
5, 97840, Control_c, 5, 11, 75
5, 97860, Control_c, 5, 11, 76
5, 97880, Control_c, 5, 11, 77
5, 97900, Control_c, 5, 11, 78
5, 97917, Pitch_bend_c, 5, 9600
5, 97920, Control_c, 5, 11, 79
5, 97920, Pitch_bend_c, 5, 9600
5, 97940, Control_c, 5, 11, 80
5, 97960, Control_c, 5, 11, 81
5, 97980, Control_c, 5, 11, 82
5, 98000, Control_c, 5, 11, 83
5, 98020, Control_c, 5, 11, 84
5, 98040, Control_c, 5, 11, 85
5, 98060, Control_c, 5, 11, 86
5, 98080, Control_c, 5, 11, 87
5, 98100, Control_c, 5, 11, 88
5, 98120, Control_c, 5, 11, 89
5, 98140, Control_c, 5, 11, 90
5, 98160, Control_c, 5, 11, 91
5, 98180, Control_c, 5, 11, 92
5, 98200, Control_c, 5, 11, 93
5, 98220, Control_c, 5, 11, 94
5, 98240, Control_c, 5, 11, 95
5, 98260, Control_c, 5, 11, 96
5, 98280, Control_c, 5, 11, 97
5, 98300, Control_c, 5, 11, 98
5, 98320, Control_c, 5, 11, 99
5, 98340, Control_c, 5, 11, 100
5, 98360, Control_c, 5, 11, 101
5, 98380, Control_c, 5, 11, 102
5, 98400, Control_c, 5, 11, 103
5, 98420, Control_c, 5, 11, 104
5, 98440, Control_c, 5, 11, 105
5, 98460, Control_c, 5, 11, 106
5, 98480, Control_c, 5, 11, 107
5, 98500, Control_c, 5, 11, 108
5, 98520, Control_c, 5, 11, 109
5, 98540, Control_c, 5, 11, 110
5, 98560, Control_c, 5, 11, 111
5, 98580, Control_c, 5, 11, 112
5, 98600, Control_c, 5, 11, 113
5, 98620, Control_c, 5, 11, 114
5, 98640, Control_c, 5, 11, 115
5, 98660, Control_c, 5, 11, 116
5, 98680, Control_c, 5, 11, 117
5, 98700, Control_c, 5, 11, 118
5, 98720, Control_c, 5, 11, 119
5, 98740, Control_c, 5, 11, 120
5, 98760, Control_c, 5, 11, 121
5, 98780, Control_c, 5, 11, 122
5, 98800, Control_c, 5, 11, 123
5, 98820, Control_c, 5, 11, 124
5, 98840, Control_c, 5, 11, 125
5, 98860, Control_c, 5, 11, 126
5, 98880, Control_c, 5, 11, 127
5, 98880, Pitch_bend_c, 5, 9600
5, 98880, Pitch_bend_c, 5, 8192
5, 98880, Note_off_c, 5, 76, 95
5, 98880, Control_c, 5, 11, 31
5, 98880, Pitch_bend_c, 5, 8192
5, 98880, Note_on_c, 5, 76, 95
5, 98885, Control_c, 5, 11, 32
5, 98890, Control_c, 5, 11, 33
5, 98895, Control_c, 5, 11, 34
5, 98900, Control_c, 5, 11, 35
5, 98901, Pitch_bend_c, 5, 8320
5, 98905, Control_c, 5, 11, 36
5, 98910, Control_c, 5, 11, 37
5, 98915, Control_c, 5, 11, 38
5, 98920, Control_c, 5, 11, 39
5, 98922, Pitch_bend_c, 5, 8448
5, 98925, Control_c, 5, 11, 40
5, 98930, Control_c, 5, 11, 41
5, 98935, Control_c, 5, 11, 42
5, 98940, Control_c, 5, 11, 43
5, 98943, Pitch_bend_c, 5, 8576
5, 98945, Control_c, 5, 11, 44
5, 98950, Control_c, 5, 11, 45
5, 98955, Control_c, 5, 11, 46
5, 98960, Control_c, 5, 11, 47
5, 98964, Pitch_bend_c, 5, 8704
5, 98965, Control_c, 5, 11, 48
5, 98970, Control_c, 5, 11, 49
5, 98975, Control_c, 5, 11, 50
5, 98980, Control_c, 5, 11, 51
5, 98985, Control_c, 5, 11, 52
5, 98985, Pitch_bend_c, 5, 8832
5, 98990, Control_c, 5, 11, 53
5, 98995, Control_c, 5, 11, 54
5, 99000, Control_c, 5, 11, 55
5, 99005, Control_c, 5, 11, 56
5, 99006, Pitch_bend_c, 5, 8960
5, 99010, Control_c, 5, 11, 57
5, 99015, Control_c, 5, 11, 58
5, 99020, Control_c, 5, 11, 59
5, 99025, Control_c, 5, 11, 60
5, 99027, Pitch_bend_c, 5, 9088
5, 99030, Control_c, 5, 11, 61
5, 99035, Control_c, 5, 11, 62
5, 99040, Control_c, 5, 11, 63
5, 99045, Control_c, 5, 11, 64
5, 99048, Pitch_bend_c, 5, 9216
5, 99050, Control_c, 5, 11, 65
5, 99055, Control_c, 5, 11, 66
5, 99060, Control_c, 5, 11, 67
5, 99065, Control_c, 5, 11, 68
5, 99069, Pitch_bend_c, 5, 9344
5, 99070, Control_c, 5, 11, 69
5, 99075, Control_c, 5, 11, 70
5, 99080, Control_c, 5, 11, 71
5, 99085, Control_c, 5, 11, 72
5, 99090, Control_c, 5, 11, 73
5, 99090, Pitch_bend_c, 5, 9472
5, 99095, Control_c, 5, 11, 74
5, 99100, Control_c, 5, 11, 75
5, 99105, Control_c, 5, 11, 76
5, 99110, Control_c, 5, 11, 77
5, 99111, Pitch_bend_c, 5, 9600
5, 99115, Control_c, 5, 11, 78
5, 99120, Control_c, 5, 11, 79
5, 99120, Pitch_bend_c, 5, 9600
5, 99125, Control_c, 5, 11, 80
5, 99130, Control_c, 5, 11, 81
5, 99135, Control_c, 5, 11, 82
5, 99140, Control_c, 5, 11, 83
5, 99145, Control_c, 5, 11, 84
5, 99150, Control_c, 5, 11, 85
5, 99155, Control_c, 5, 11, 86
5, 99160, Control_c, 5, 11, 87
5, 99165, Control_c, 5, 11, 88
5, 99170, Control_c, 5, 11, 89
5, 99175, Control_c, 5, 11, 90
5, 99180, Control_c, 5, 11, 91
5, 99185, Control_c, 5, 11, 92
5, 99190, Control_c, 5, 11, 93
5, 99195, Control_c, 5, 11, 94
5, 99200, Control_c, 5, 11, 95
5, 99205, Control_c, 5, 11, 96
5, 99210, Control_c, 5, 11, 97
5, 99215, Control_c, 5, 11, 98
5, 99220, Control_c, 5, 11, 99
5, 99225, Control_c, 5, 11, 100
5, 99230, Control_c, 5, 11, 101
5, 99235, Control_c, 5, 11, 102
5, 99240, Control_c, 5, 11, 103
5, 99245, Control_c, 5, 11, 104
5, 99250, Control_c, 5, 11, 105
5, 99255, Control_c, 5, 11, 106
5, 99260, Control_c, 5, 11, 107
5, 99265, Control_c, 5, 11, 108
5, 99270, Control_c, 5, 11, 109
5, 99275, Control_c, 5, 11, 110
5, 99280, Control_c, 5, 11, 111
5, 99285, Control_c, 5, 11, 112
5, 99290, Control_c, 5, 11, 113
5, 99295, Control_c, 5, 11, 114
5, 99300, Control_c, 5, 11, 115
5, 99305, Control_c, 5, 11, 116
5, 99310, Control_c, 5, 11, 117
5, 99315, Control_c, 5, 11, 118
5, 99320, Control_c, 5, 11, 119
5, 99325, Control_c, 5, 11, 120
5, 99330, Control_c, 5, 11, 121
5, 99335, Control_c, 5, 11, 122
5, 99340, Control_c, 5, 11, 123
5, 99345, Control_c, 5, 11, 124
5, 99350, Control_c, 5, 11, 125
5, 99355, Control_c, 5, 11, 126
5, 99360, Control_c, 5, 11, 127
5, 99360, Pitch_bend_c, 5, 9600
5, 99360, Pitch_bend_c, 5, 8192
5, 99360, Note_off_c, 5, 76, 95
5, 99360, Control_c, 5, 11, 31
5, 99360, Pitch_bend_c, 5, 8192
5, 99360, Note_on_c, 5, 76, 95
5, 99405, Control_c, 5, 11, 32
5, 99450, Control_c, 5, 11, 33
5, 99495, Control_c, 5, 11, 34
5, 99540, Control_c, 5, 11, 35
5, 99585, Control_c, 5, 11, 36
5, 99621, Pitch_bend_c, 5, 8320
5, 99630, Control_c, 5, 11, 37
5, 99675, Control_c, 5, 11, 38
5, 99720, Control_c, 5, 11, 39
5, 99765, Control_c, 5, 11, 40
5, 99810, Control_c, 5, 11, 41
5, 99855, Control_c, 5, 11, 42
5, 99882, Pitch_bend_c, 5, 8448
5, 99900, Control_c, 5, 11, 43
5, 99945, Control_c, 5, 11, 44
5, 99990, Control_c, 5, 11, 45
5, 100035, Control_c, 5, 11, 46
5, 100080, Control_c, 5, 11, 47
5, 100125, Control_c, 5, 11, 48
5, 100143, Pitch_bend_c, 5, 8576
5, 100170, Control_c, 5, 11, 49
5, 100215, Control_c, 5, 11, 50
5, 100260, Control_c, 5, 11, 51
5, 100305, Control_c, 5, 11, 52
5, 100350, Control_c, 5, 11, 53
5, 100395, Control_c, 5, 11, 54
5, 100404, Pitch_bend_c, 5, 8704
5, 100440, Control_c, 5, 11, 55
5, 100485, Control_c, 5, 11, 56
5, 100530, Control_c, 5, 11, 57
5, 100575, Control_c, 5, 11, 58
5, 100620, Control_c, 5, 11, 59
5, 100665, Control_c, 5, 11, 60
5, 100665, Pitch_bend_c, 5, 8832
5, 100710, Control_c, 5, 11, 61
5, 100755, Control_c, 5, 11, 62
5, 100800, Control_c, 5, 11, 63
5, 100845, Control_c, 5, 11, 64
5, 100890, Control_c, 5, 11, 65
5, 100926, Pitch_bend_c, 5, 8960
5, 100935, Control_c, 5, 11, 66
5, 100980, Control_c, 5, 11, 67
5, 101025, Control_c, 5, 11, 68
5, 101070, Control_c, 5, 11, 69
5, 101115, Control_c, 5, 11, 70
5, 101160, Control_c, 5, 11, 71
5, 101187, Pitch_bend_c, 5, 9088
5, 101205, Control_c, 5, 11, 72
5, 101250, Control_c, 5, 11, 73
5, 101295, Control_c, 5, 11, 74
5, 101340, Control_c, 5, 11, 75
5, 101385, Control_c, 5, 11, 76
5, 101430, Control_c, 5, 11, 77
5, 101448, Pitch_bend_c, 5, 9216
5, 101475, Control_c, 5, 11, 78
5, 101520, Control_c, 5, 11, 79
5, 101565, Control_c, 5, 11, 80
5, 101610, Control_c, 5, 11, 81
5, 101655, Control_c, 5, 11, 82
5, 101700, Control_c, 5, 11, 83
5, 101709, Pitch_bend_c, 5, 9344
5, 101745, Control_c, 5, 11, 84
5, 101790, Control_c, 5, 11, 85
5, 101835, Control_c, 5, 11, 86
5, 101880, Control_c, 5, 11, 87
5, 101925, Control_c, 5, 11, 88
5, 101970, Control_c, 5, 11, 89
5, 101970, Pitch_bend_c, 5, 9472
5, 102015, Control_c, 5, 11, 90
5, 102060, Control_c, 5, 11, 91
5, 102105, Control_c, 5, 11, 92
5, 102150, Control_c, 5, 11, 93
5, 102195, Control_c, 5, 11, 94
5, 102231, Pitch_bend_c, 5, 9600
5, 102240, Control_c, 5, 11, 95
5, 102240, Pitch_bend_c, 5, 9600
5, 102285, Control_c, 5, 11, 96
5, 102305, Pitch_bend_c, 5, 9472
5, 102330, Control_c, 5, 11, 97
5, 102370, Pitch_bend_c, 5, 9344
5, 102375, Control_c, 5, 11, 98
5, 102420, Control_c, 5, 11, 99
5, 102435, Pitch_bend_c, 5, 9216
5, 102465, Control_c, 5, 11, 100
5, 102500, Pitch_bend_c, 5, 9088
5, 102510, Control_c, 5, 11, 101
5, 102555, Control_c, 5, 11, 102
5, 102565, Pitch_bend_c, 5, 8960
5, 102600, Control_c, 5, 11, 103
5, 102630, Pitch_bend_c, 5, 8832
5, 102645, Control_c, 5, 11, 104
5, 102690, Control_c, 5, 11, 105
5, 102695, Pitch_bend_c, 5, 8704
5, 102735, Control_c, 5, 11, 106
5, 102760, Pitch_bend_c, 5, 8576
5, 102780, Control_c, 5, 11, 107
5, 102825, Control_c, 5, 11, 108
5, 102825, Pitch_bend_c, 5, 8448
5, 102870, Control_c, 5, 11, 109
5, 102890, Pitch_bend_c, 5, 8320
5, 102915, Control_c, 5, 11, 110
5, 102955, Pitch_bend_c, 5, 8192
5, 102960, Control_c, 5, 11, 111
5, 102960, Pitch_bend_c, 5, 8192
5, 103005, Control_c, 5, 11, 112
5, 103025, Pitch_bend_c, 5, 8320
5, 103050, Control_c, 5, 11, 113
5, 103090, Pitch_bend_c, 5, 8448
5, 103095, Control_c, 5, 11, 114
5, 103140, Control_c, 5, 11, 115
5, 103155, Pitch_bend_c, 5, 8576
5, 103185, Control_c, 5, 11, 116
5, 103220, Pitch_bend_c, 5, 8704
5, 103230, Control_c, 5, 11, 117
5, 103275, Control_c, 5, 11, 118
5, 103285, Pitch_bend_c, 5, 8832
5, 103320, Control_c, 5, 11, 119
5, 103350, Pitch_bend_c, 5, 8960
5, 103365, Control_c, 5, 11, 120
5, 103410, Control_c, 5, 11, 121
5, 103415, Pitch_bend_c, 5, 9088
5, 103455, Control_c, 5, 11, 122
5, 103480, Pitch_bend_c, 5, 9216
5, 103500, Control_c, 5, 11, 123
5, 103545, Control_c, 5, 11, 124
5, 103545, Pitch_bend_c, 5, 9344
5, 103590, Control_c, 5, 11, 125
5, 103610, Pitch_bend_c, 5, 9472
5, 103635, Control_c, 5, 11, 126
5, 103675, Pitch_bend_c, 5, 9600
5, 103680, Control_c, 5, 11, 127
5, 103680, Pitch_bend_c, 5, 9600
5, 103680, Pitch_bend_c, 5, 8192
5, 103680, Note_off_c, 5, 76, 95
5, 131040, Note_on_c, 4, 51, 47
5, 131040, Note_on_c, 4, 44, 47
5, 131520, Note_off_c, 4, 51, 47
5, 131520, Note_off_c, 4, 44, 47
5, 131520, Note_on_c, 4, 51, 47
5, 131520, Note_on_c, 4, 44, 47
5, 132000, Note_off_c, 4, 51, 47
5, 132000, Note_off_c, 4, 44, 47
5, 132480, Note_on_c, 4, 51, 47
5, 132480, Note_on_c, 4, 44, 47
5, 132960, Note_off_c, 4, 51, 47
5, 132960, Note_off_c, 4, 44, 47
5, 133920, Note_on_c, 4, 39, 47
5, 134031, Note_off_c, 4, 39, 47
5, 134400, Note_on_c, 4, 42, 47
5, 134511, Note_off_c, 4, 42, 47
5, 134880, Note_on_c, 4, 51, 47
5, 134880, Note_on_c, 4, 44, 47
5, 135360, Note_off_c, 4, 51, 47
5, 135360, Note_off_c, 4, 44, 47
5, 135360, Note_on_c, 4, 51, 47
5, 135360, Note_on_c, 4, 44, 47
5, 135840, Note_off_c, 4, 51, 47
5, 135840, Note_off_c, 4, 44, 47
5, 192480, Note_on_c, 4, 51, 47
5, 192480, Note_on_c, 4, 44, 47
5, 192960, Note_off_c, 4, 51, 47
5, 192960, Note_off_c, 4, 44, 47
5, 192960, Note_on_c, 4, 51, 47
5, 192960, Note_on_c, 4, 44, 47
5, 193440, Note_off_c, 4, 51, 47
5, 193440, Note_off_c, 4, 44, 47
5, 193920, Note_on_c, 4, 51, 47
5, 193920, Note_on_c, 4, 44, 47
5, 194400, Note_off_c, 4, 51, 47
5, 194400, Note_off_c, 4, 44, 47
5, 293280, Note_on_c, 4, 63, 95
5, 293340, Note_off_c, 4, 63, 95
5, 293340, Note_on_c, 4, 62, 95
5, 293400, Note_off_c, 4, 62, 95
5, 293400, Note_on_c, 4, 61, 95
5, 293460, Note_off_c, 4, 61, 95
5, 293460, Note_on_c, 4, 60, 95
5, 293520, Note_off_c, 4, 60, 95
5, 293520, Note_on_c, 4, 59, 95
5, 293580, Note_off_c, 4, 59, 95
5, 293580, Note_on_c, 4, 58, 95
5, 293640, Note_off_c, 4, 58, 95
5, 293640, Note_on_c, 4, 57, 95
5, 293700, Note_off_c, 4, 57, 95
5, 293700, Note_on_c, 4, 56, 95
5, 293760, Note_off_c, 4, 56, 95
5, 293760, Note_on_c, 4, 55, 95
5, 293820, Note_off_c, 4, 55, 95
5, 293820, Note_on_c, 4, 54, 95
5, 293880, Note_off_c, 4, 54, 95
5, 293880, Note_on_c, 4, 53, 95
5, 293940, Note_off_c, 4, 53, 95
5, 293940, Note_on_c, 4, 52, 95
5, 294000, Note_off_c, 4, 52, 95
5, 294000, Note_on_c, 4, 51, 95
5, 294060, Note_off_c, 4, 51, 95
5, 294060, Note_on_c, 4, 50, 95
5, 294120, Note_off_c, 4, 50, 95
5, 294120, Note_on_c, 4, 49, 95
5, 294180, Note_off_c, 4, 49, 95
5, 294180, Note_on_c, 4, 48, 95
5, 294240, Note_off_c, 4, 48, 95
5, 294240, Note_on_c, 4, 47, 95
5, 294300, Note_off_c, 4, 47, 95
5, 294300, Note_on_c, 4, 46, 95
5, 294360, Note_off_c, 4, 46, 95
5, 294360, Note_on_c, 4, 45, 95
5, 294420, Note_off_c, 4, 45, 95
5, 294420, Note_on_c, 4, 44, 95
5, 294480, Note_off_c, 4, 44, 95
5, 294480, Note_on_c, 4, 43, 95
5, 294540, Note_off_c, 4, 43, 95
5, 294540, Note_on_c, 4, 42, 95
5, 294600, Note_off_c, 4, 42, 95
5, 294600, Note_on_c, 4, 41, 95
5, 294660, Note_off_c, 4, 41, 95
5, 294660, Note_on_c, 4, 40, 95
5, 294720, Note_off_c, 4, 40, 95
5, 300000, Note_on_c, 4, 51, 47
5, 300000, Note_on_c, 4, 44, 47
5, 300480, Note_off_c, 4, 51, 47
5, 300480, Note_off_c, 4, 44, 47
5, 300480, Note_on_c, 4, 51, 47
5, 300480, Note_on_c, 4, 44, 47
5, 300960, Note_off_c, 4, 51, 47
5, 300960, Note_off_c, 4, 44, 47
5, 301440, Note_on_c, 4, 51, 47
5, 301440, Note_on_c, 4, 44, 47
5, 301920, Note_off_c, 4, 51, 47
5, 301920, Note_off_c, 4, 44, 47
5, 302880, Note_on_c, 4, 39, 47
5, 302991, Note_off_c, 4, 39, 47
5, 303360, Note_on_c, 4, 42, 47
5, 303471, Note_off_c, 4, 42, 47
5, 303840, Note_on_c, 4, 51, 47
5, 303840, Note_on_c, 4, 44, 47
5, 304320, Note_off_c, 4, 51, 47
5, 304320, Note_off_c, 4, 44, 47
5, 304320, Note_on_c, 4, 51, 47
5, 304320, Note_on_c, 4, 44, 47
5, 304800, Note_off_c, 4, 51, 47
5, 304800, Note_off_c, 4, 44, 47
5, 304800, End_track
0, 0, End_of_file
