0, 0, Header, 1, 6, 96
1, 0, Start_track
1, 0, Time_signature, 4, 2, 24, 8
1, 0, Key_signature, 5, "major"
1, 0, Tempo, 1000000
1, 0, End_track
2, 0, Start_track
2, 0, MIDI_port, 0
2, 0, Title_t, "Soft Karaoke"
2, 0, Text_t, "@KMIDI KARAOKE FILE"
2, 0, Text_t, "@V0100"
2, 0, Text_t, "@I 05-27-94, 11:14, R.L."
2, 0, End_track
3, 0, Start_track
3, 0, MIDI_port, 0
3, 0, Title_t, "Words"
3, 0, Text_t, "@LENGL"
3, 0, Text_t, "@TFAITHFULLY"
3, 0, Text_t, "@TJourney"
3, 1440, Text_t, "\\High"
3, 1488, Text_t, "way"
3, 1536, Text_t, " run"
3, 1776, Text_t, " in"
3, 1824, Text_t, "to"
3, 1872, Text_t, " the"
3, 1920, Text_t, " mid"
3, 1992, Text_t, "night"
3, 2064, Text_t, " sun"
3, 2304, Text_t, "/Wheels"
3, 2352, Text_t, " go"
3, 2376, Text_t, " round"
3, 2424, Text_t, " and"
3, 2448, Text_t, " round"
3, 2568, Text_t, "/You're"
3, 2592, Text_t, " on"
3, 2640, Text_t, " my"
3, 2688, Text_t, " mind"
3, 3360, Text_t, "\\Rest"
3, 3408, Text_t, "less"
3, 3456, Text_t, " hearts"
3, 3744, Text_t, " sleep"
3, 3792, Text_t, " a"
3, 3840, Text_t, "lone"
3, 3912, Text_t, " to"
3, 3984, Text_t, "night"
3, 4224, Text_t, "/Send"
3, 4272, Text_t, "ing"
3, 4296, Text_t, " all"
3, 4344, Text_t, " my"
3, 4368, Text_t, " love"
3, 4488, Text_t, "/a"
3, 4512, Text_t, "long"
3, 4560, Text_t, " the"
3, 4608, Text_t, " wi"
3, 4752, Text_t, "re"
3, 4968, Text_t, "\\They"
3, 4992, Text_t, " say"
3, 5040, Text_t, " that"
3, 5064, Text_t, " the"
3, 5088, Text_t, " road"
3, 5136, Text_t, "/ain't"
3, 5160, Text_t, " no"
3, 5208, Text_t, " place"
3, 5256, Text_t, " to"
3, 5280, Text_t, " start"
3, 5328, Text_t, " a"
3, 5352, Text_t, " family"
3, 5808, Text_t, "/Right"
3, 5856, Text_t, " down"
3, 5904, Text_t, " the"
3, 5928, Text_t, " line"
3, 5976, Text_t, " it's"
3, 6000, Text_t, " been"
3, 6048, Text_t, " you"
3, 6096, Text_t, " and"
3, 6120, Text_t, " me"
3, 6504, Text_t, "\\And"
3, 6528, Text_t, " lo"
3, 6576, Text_t, "ving"
3, 6600, Text_t, " a"
3, 6624, Text_t, " mu"
3, 6672, Text_t, "sic"
3, 6696, Text_t, " man"
3, 6744, Text_t, "/ain't"
3, 6768, Text_t, " al"
3, 6792, Text_t, "ways"
3, 6816, Text_t, " what"
3, 6840, Text_t, " it's"
3, 6888, Text_t, " sup"
3, 6912, Text_t, "posed"
3, 6960, Text_t, " to"
3, 6984, Text_t, " be"
3, 7248, Text_t, "\\Oh"
3, 7296, Text_t, " girl,"
3, 7440, Text_t, " you"
3, 7464, Text_t, " stand"
3, 7608, Text_t, " by"
3, 7680, Text_t, " me"
3, 7992, Text_t, "/I'm"
3, 8040, Text_t, " for"
3, 8064, Text_t, "e"
3, 8136, Text_t, "ver"
3, 8208, Text_t, " yours,"
3, 8736, Text_t, " faith"
3, 8784, Text_t, "ful"
3, 8808, Text_t, "ly"
3, 10272, Text_t, "\\Cir"
3, 10320, Text_t, "cus"
3, 10368, Text_t, " life"
3, 10608, Text_t, " un"
3, 10656, Text_t, "der"
3, 10704, Text_t, " the"
3, 10752, Text_t, " big"
3, 10824, Text_t, " top"
3, 10896, Text_t, " world"
3, 11136, Text_t, "/We"
3, 11184, Text_t, " all"
3, 11208, Text_t, " need"
3, 11256, Text_t, " the"
3, 11280, Text_t, " clowns"
3, 11400, Text_t, " to"
3, 11424, Text_t, " make"
3, 11472, Text_t, " us"
3, 11520, Text_t, " laugh"
3, 12144, Text_t, "\\Through"
3, 12192, Text_t, " space"
3, 12240, Text_t, " and"
3, 12288, Text_t, " time"
3, 12528, Text_t, "/Al"
3, 12576, Text_t, "ways"
3, 12624, Text_t, " a"
3, 12672, Text_t, "no"
3, 12744, Text_t, "ther"
3, 12816, Text_t, " show"
3, 13056, Text_t, "/Wond"
3, 13104, Text_t, "ering"
3, 13128, Text_t, " where"
3, 13176, Text_t, " I"
3, 13200, Text_t, " am"
3, 13344, Text_t, " lost"
3, 13392, Text_t, " with"
3, 13440, Text_t, "out"
3, 13584, Text_t, " you"
3, 13800, Text_t, "\\And"
3, 13824, Text_t, " be"
3, 13872, Text_t, "ing"
3, 13896, Text_t, " a"
3, 13920, Text_t, "part"
3, 13968, Text_t, " ain't"
3, 13992, Text_t, " ea"
3, 14040, Text_t, "sy"
3, 14088, Text_t, "/in"
3, 14160, Text_t, " this"
3, 14208, Text_t, " love"
3, 14256, Text_t, " af"
3, 14280, Text_t, "fair"
3, 14640, Text_t, "/Two"
3, 14664, Text_t, " stran"
3, 14712, Text_t, "gers"
3, 14760, Text_t, " learn"
3, 14808, Text_t, " to"
3, 14832, Text_t, " fall"
3, 14856, Text_t, " in"
3, 14880, Text_t, " love"
3, 14928, Text_t, " a"
3, 14952, Text_t, "gain"
3, 15408, Text_t, "\\I"
3, 15432, Text_t, " get"
3, 15504, Text_t, " the"
3, 15528, Text_t, " joy"
3, 15600, Text_t, " of"
3, 15648, Text_t, " re"
3, 15696, Text_t, "dis"
3, 15744, Text_t, "co"
3, 15792, Text_t, "vering"
3, 15816, Text_t, " you"
3, 16080, Text_t, "/oh"
3, 16128, Text_t, " girl,"
3, 16272, Text_t, " you"
3, 16296, Text_t, " stand"
3, 16440, Text_t, " by"
3, 16512, Text_t, " me"
3, 16824, Text_t, "/I'm"
3, 16872, Text_t, " fo"
3, 16896, Text_t, "re"
3, 16968, Text_t, "ver"
3, 17040, Text_t, " yours,"
3, 17568, Text_t, " faith"
3, 17616, Text_t, "ful"
3, 17640, Text_t, "ly"
3, 19248, Text_t, "\\Oh"
3, 19320, Text_t, " oh"
3, 19392, Text_t, " oh"
3, 19464, Text_t, " oh"
3, 19536, Text_t, " oh,"
3, 19632, Text_t, " oh"
3, 19704, Text_t, " oh"
3, 19776, Text_t, " oh"
3, 19848, Text_t, " oh"
3, 19920, Text_t, " oh"
3, 20016, Text_t, "/oh"
3, 20088, Text_t, " oh"
3, 20160, Text_t, " oh"
3, 20232, Text_t, " oh"
3, 20304, Text_t, " oh"
3, 20352, Text_t, " oh,"
3, 20640, Text_t, " faith"
3, 20688, Text_t, "ful"
3, 20712, Text_t, "ly"
3, 21024, Text_t, "\\I'm"
3, 21072, Text_t, " still"
3, 21096, Text_t, " yours"
3, 21408, Text_t, "/I'm"
3, 21456, Text_t, " for"
3, 21480, Text_t, "e"
3, 21528, Text_t, "ver"
3, 21552, Text_t, " yours"
3, 21792, Text_t, "/E"
3, 21840, Text_t, "ver"
3, 21888, Text_t, " yours,"
3, 22176, Text_t, " faith"
3, 22224, Text_t, "ful"
3, 22248, Text_t, "ly"
3, 22248, End_track
4, 0, Start_track
4, 0, MIDI_port, 0
4, 0, Title_t, "Melody"
4, 0, Program_c, 0, 48
4, 0, Control_c, 0, 7, 110
4, 0, Control_c, 0, 10, 64
4, 54, Control_c, 0, 64, 127
4, 366, Control_c, 0, 64, 0
4, 384, Control_c, 0, 64, 127
4, 756, Control_c, 0, 64, 0
4, 768, Control_c, 0, 64, 127
4, 1128, Control_c, 0, 64, 0
4, 1146, Control_c, 0, 64, 127
4, 1440, Note_on_c, 0, 71, 64
4, 1488, Note_on_c, 0, 71, 0
4, 1488, Note_on_c, 0, 75, 64
4, 1512, Control_c, 0, 64, 0
4, 1536, Note_on_c, 0, 75, 0
4, 1536, Control_c, 0, 64, 127
4, 1536, Note_on_c, 0, 75, 64
4, 1537, Note_on_c, 0, 75, 0
4, 1776, Note_on_c, 0, 71, 64
4, 1808, Note_on_c, 0, 71, 0
4, 1824, Note_on_c, 0, 71, 64
4, 1856, Note_on_c, 0, 71, 0
4, 1872, Note_on_c, 0, 75, 64
4, 1902, Control_c, 0, 64, 0
4, 1904, Note_on_c, 0, 75, 0
4, 1920, Control_c, 0, 64, 127
4, 1920, Note_on_c, 0, 76, 64
4, 1968, Note_on_c, 0, 76, 0
4, 1992, Note_on_c, 0, 75, 64
4, 2040, Note_on_c, 0, 75, 0
4, 2064, Note_on_c, 0, 71, 64
4, 2160, Note_on_c, 0, 71, 0
4, 2280, Control_c, 0, 64, 0
4, 2304, Control_c, 0, 64, 127
4, 2304, Note_on_c, 0, 76, 64
4, 2336, Note_on_c, 0, 76, 0
4, 2352, Note_on_c, 0, 76, 64
4, 2368, Note_on_c, 0, 76, 0
4, 2376, Note_on_c, 0, 76, 64
4, 2408, Note_on_c, 0, 76, 0
4, 2424, Note_on_c, 0, 80, 64
4, 2440, Note_on_c, 0, 80, 0
4, 2448, Note_on_c, 0, 80, 64
4, 2512, Note_on_c, 0, 80, 0
4, 2544, Note_on_c, 0, 71, 64
4, 2576, Note_on_c, 0, 71, 0
4, 2592, Note_on_c, 0, 71, 64
4, 2624, Note_on_c, 0, 71, 0
4, 2640, Note_on_c, 0, 71, 64
4, 2664, Control_c, 0, 64, 0
4, 2672, Note_on_c, 0, 71, 0
4, 2682, Control_c, 0, 64, 127
4, 2688, Note_on_c, 0, 75, 64
4, 2816, Note_on_c, 0, 75, 0
4, 3060, Control_c, 0, 64, 0
4, 3072, Control_c, 0, 64, 127
4, 3360, Note_on_c, 0, 71, 64
4, 3408, Note_on_c, 0, 71, 0
4, 3408, Note_on_c, 0, 75, 64
4, 3444, Control_c, 0, 64, 0
4, 3456, Note_on_c, 0, 75, 0
4, 3456, Control_c, 0, 64, 127
4, 3456, Note_on_c, 0, 75, 64
4, 3648, Note_on_c, 0, 75, 0
4, 3776, Note_on_c, 0, 71, 64
4, 3808, Note_on_c, 0, 71, 0
4, 3808, Note_on_c, 0, 75, 64
4, 3822, Control_c, 0, 64, 0
4, 3834, Control_c, 0, 64, 127
4, 3840, Note_on_c, 0, 75, 0
4, 3840, Note_on_c, 0, 76, 64
4, 3912, Note_on_c, 0, 76, 0
4, 3912, Note_on_c, 0, 75, 64
4, 3984, Note_on_c, 0, 75, 0
4, 3984, Note_on_c, 0, 71, 64
4, 4128, Note_on_c, 0, 71, 0
4, 4212, Control_c, 0, 64, 0
4, 4224, Note_on_c, 0, 76, 64
4, 4230, Control_c, 0, 64, 127
4, 4272, Note_on_c, 0, 76, 0
4, 4272, Note_on_c, 0, 76, 64
4, 4296, Note_on_c, 0, 76, 0
4, 4296, Note_on_c, 0, 76, 64
4, 4344, Note_on_c, 0, 76, 0
4, 4344, Note_on_c, 0, 80, 64
4, 4392, Note_on_c, 0, 80, 0
4, 4392, Note_on_c, 0, 80, 64
4, 4464, Note_on_c, 0, 80, 0
4, 4464, Note_on_c, 0, 71, 64
4, 4512, Note_on_c, 0, 71, 0
4, 4512, Note_on_c, 0, 71, 64
4, 4560, Note_on_c, 0, 71, 0
4, 4560, Note_on_c, 0, 76, 64
4, 4590, Control_c, 0, 64, 0
4, 4608, Note_on_c, 0, 76, 0
4, 4608, Control_c, 0, 64, 127
4, 4608, Note_on_c, 0, 75, 64
4, 4752, Note_on_c, 0, 75, 0
4, 4752, Note_on_c, 0, 73, 64
4, 4896, Note_on_c, 0, 73, 0
4, 4968, Control_c, 0, 64, 0
4, 4968, Note_on_c, 0, 71, 64
4, 4986, Control_c, 0, 64, 127
4, 4992, Note_on_c, 0, 71, 0
4, 4992, Note_on_c, 0, 80, 64
4, 5040, Note_on_c, 0, 80, 0
4, 5040, Note_on_c, 0, 80, 64
4, 5064, Note_on_c, 0, 80, 0
4, 5064, Note_on_c, 0, 80, 64
4, 5088, Note_on_c, 0, 80, 0
4, 5088, Note_on_c, 0, 80, 64
4, 5136, Note_on_c, 0, 80, 0
4, 5136, Note_on_c, 0, 80, 64
4, 5160, Note_on_c, 0, 80, 0
4, 5160, Note_on_c, 0, 80, 64
4, 5208, Note_on_c, 0, 80, 0
4, 5208, Note_on_c, 0, 80, 64
4, 5256, Note_on_c, 0, 80, 0
4, 5256, Note_on_c, 0, 80, 64
4, 5280, Note_on_c, 0, 80, 0
4, 5280, Note_on_c, 0, 80, 64
4, 5328, Note_on_c, 0, 80, 0
4, 5328, Note_on_c, 0, 78, 64
4, 5352, Note_on_c, 0, 78, 0
4, 5352, Note_on_c, 0, 78, 64
4, 5358, Control_c, 0, 64, 0
4, 5370, Control_c, 0, 64, 127
4, 5400, Note_on_c, 0, 78, 0
4, 5400, Note_on_c, 0, 78, 64
4, 5472, Note_on_c, 0, 78, 0
4, 5754, Control_c, 0, 64, 0
4, 5766, Control_c, 0, 64, 127
4, 5808, Note_on_c, 0, 80, 64
4, 5856, Note_on_c, 0, 80, 0
4, 5856, Note_on_c, 0, 80, 64
4, 5904, Note_on_c, 0, 80, 0
4, 5904, Note_on_c, 0, 80, 64
4, 5928, Note_on_c, 0, 80, 0
4, 5928, Note_on_c, 0, 80, 64
4, 5976, Note_on_c, 0, 80, 0
4, 5976, Note_on_c, 0, 80, 64
4, 6000, Note_on_c, 0, 80, 0
4, 6000, Note_on_c, 0, 80, 64
4, 6048, Note_on_c, 0, 80, 0
4, 6048, Note_on_c, 0, 80, 64
4, 6096, Note_on_c, 0, 80, 0
4, 6096, Note_on_c, 0, 78, 64
4, 6120, Note_on_c, 0, 78, 0
4, 6120, Note_on_c, 0, 78, 64
4, 6126, Control_c, 0, 64, 0
4, 6144, Control_c, 0, 64, 127
4, 6240, Note_on_c, 0, 78, 0
4, 6498, Control_c, 0, 64, 0
4, 6504, Note_on_c, 0, 71, 64
4, 6520, Note_on_c, 0, 71, 0
4, 6522, Control_c, 0, 64, 127
4, 6528, Note_on_c, 0, 80, 64
4, 6560, Note_on_c, 0, 80, 0
4, 6576, Note_on_c, 0, 80, 64
4, 6592, Note_on_c, 0, 80, 0
4, 6600, Note_on_c, 0, 80, 64
4, 6616, Note_on_c, 0, 80, 0
4, 6624, Note_on_c, 0, 80, 64
4, 6656, Note_on_c, 0, 80, 0
4, 6672, Note_on_c, 0, 80, 64
4, 6688, Note_on_c, 0, 80, 0
4, 6696, Note_on_c, 0, 80, 64
4, 6728, Note_on_c, 0, 80, 0
4, 6744, Note_on_c, 0, 80, 64
4, 6776, Note_on_c, 0, 80, 0
4, 6792, Note_on_c, 0, 80, 64
4, 6824, Note_on_c, 0, 80, 0
4, 6840, Note_on_c, 0, 78, 64
4, 6856, Note_on_c, 0, 78, 0
4, 6864, Note_on_c, 0, 78, 64
4, 6880, Note_on_c, 0, 78, 0
4, 6888, Note_on_c, 0, 78, 64
4, 6894, Control_c, 0, 64, 0
4, 6904, Note_on_c, 0, 78, 0
4, 6912, Control_c, 0, 64, 127
4, 6912, Note_on_c, 0, 78, 64
4, 6944, Note_on_c, 0, 78, 0
4, 6960, Note_on_c, 0, 71, 64
4, 6976, Note_on_c, 0, 71, 0
4, 6984, Note_on_c, 0, 71, 64
4, 7064, Note_on_c, 0, 71, 0
4, 7248, Note_on_c, 0, 75, 64
4, 7272, Control_c, 0, 64, 0
4, 7280, Note_on_c, 0, 75, 0
4, 7296, Control_c, 0, 64, 127
4, 7296, Note_on_c, 0, 73, 64
4, 7392, Note_on_c, 0, 73, 0
4, 7440, Note_on_c, 0, 75, 64
4, 7456, Note_on_c, 0, 75, 0
4, 7464, Note_on_c, 0, 78, 64
4, 7576, Note_on_c, 0, 78, 0
4, 7632, Note_on_c, 0, 75, 64
4, 7662, Control_c, 0, 64, 0
4, 7664, Note_on_c, 0, 75, 0
4, 7680, Control_c, 0, 64, 127
4, 7680, Note_on_c, 0, 73, 64
4, 7744, Note_on_c, 0, 73, 0
4, 8000, Note_on_c, 0, 73, 64
4, 8021, Note_on_c, 0, 73, 0
4, 8032, Note_on_c, 0, 75, 64
4, 8046, Control_c, 0, 64, 0
4, 8053, Note_on_c, 0, 75, 0
4, 8058, Control_c, 0, 64, 127
4, 8064, Note_on_c, 0, 76, 64
4, 8112, Note_on_c, 0, 76, 0
4, 8136, Note_on_c, 0, 75, 64
4, 8184, Note_on_c, 0, 75, 0
4, 8208, Note_on_c, 0, 73, 64
4, 8272, Note_on_c, 0, 73, 0
4, 8304, Note_on_c, 0, 71, 64
4, 8400, Note_on_c, 0, 71, 0
4, 8418, Control_c, 0, 64, 0
4, 8442, Control_c, 0, 64, 127
4, 8736, Note_on_c, 0, 68, 64
4, 8784, Note_on_c, 0, 68, 0
4, 8784, Note_on_c, 0, 71, 64
4, 8808, Note_on_c, 0, 71, 0
4, 8808, Note_on_c, 0, 71, 64
4, 8820, Control_c, 0, 64, 0
4, 8832, Control_c, 0, 64, 127
4, 8928, Note_on_c, 0, 71, 0
4, 9198, Control_c, 0, 64, 0
4, 9216, Control_c, 0, 64, 127
4, 9582, Control_c, 0, 64, 0
4, 9600, Control_c, 0, 64, 127
4, 9972, Control_c, 0, 64, 0
4, 9984, Control_c, 0, 64, 127
4, 10272, Note_on_c, 0, 80, 64
4, 10320, Note_on_c, 0, 80, 0
4, 10320, Note_on_c, 0, 78, 64
4, 10350, Control_c, 0, 64, 0
4, 10368, Note_on_c, 0, 78, 0
4, 10368, Control_c, 0, 64, 127
4, 10368, Note_on_c, 0, 75, 64
4, 10432, Note_on_c, 0, 75, 0
4, 10608, Note_on_c, 0, 71, 64
4, 10640, Note_on_c, 0, 71, 0
4, 10656, Note_on_c, 0, 71, 64
4, 10688, Note_on_c, 0, 71, 0
4, 10704, Note_on_c, 0, 75, 64
4, 10734, Control_c, 0, 64, 0
4, 10736, Note_on_c, 0, 75, 0
4, 10746, Control_c, 0, 64, 127
4, 10752, Note_on_c, 0, 76, 64
4, 10800, Note_on_c, 0, 76, 0
4, 10824, Note_on_c, 0, 75, 64
4, 10872, Note_on_c, 0, 75, 0
4, 10896, Note_on_c, 0, 71, 64
4, 10992, Note_on_c, 0, 71, 0
4, 11124, Control_c, 0, 64, 0
4, 11136, Note_on_c, 0, 76, 64
4, 11142, Control_c, 0, 64, 127
4, 11168, Note_on_c, 0, 76, 0
4, 11184, Note_on_c, 0, 76, 64
4, 11200, Note_on_c, 0, 76, 0
4, 11208, Note_on_c, 0, 76, 64
4, 11240, Note_on_c, 0, 76, 0
4, 11256, Note_on_c, 0, 80, 64
4, 11272, Note_on_c, 0, 80, 0
4, 11280, Note_on_c, 0, 80, 64
4, 11344, Note_on_c, 0, 80, 0
4, 11376, Note_on_c, 0, 71, 64
4, 11408, Note_on_c, 0, 71, 0
4, 11424, Note_on_c, 0, 71, 64
4, 11456, Note_on_c, 0, 71, 0
4, 11472, Note_on_c, 0, 71, 64
4, 11504, Note_on_c, 0, 71, 0
4, 11514, Control_c, 0, 64, 0
4, 11520, Note_on_c, 0, 75, 64
4, 11526, Control_c, 0, 64, 127
4, 11648, Note_on_c, 0, 75, 0
4, 11898, Control_c, 0, 64, 0
4, 11910, Control_c, 0, 64, 127
4, 12192, Note_on_c, 0, 71, 64
4, 12240, Note_on_c, 0, 71, 0
4, 12240, Note_on_c, 0, 75, 64
4, 12276, Control_c, 0, 64, 0
4, 12288, Note_on_c, 0, 75, 0
4, 12288, Control_c, 0, 64, 127
4, 12288, Note_on_c, 0, 75, 64
4, 12480, Note_on_c, 0, 75, 0
4, 12608, Note_on_c, 0, 71, 64
4, 12640, Note_on_c, 0, 71, 0
4, 12640, Note_on_c, 0, 75, 64
4, 12666, Control_c, 0, 64, 0
4, 12672, Note_on_c, 0, 75, 0
4, 12672, Control_c, 0, 64, 127
4, 12672, Note_on_c, 0, 76, 64
4, 12744, Note_on_c, 0, 76, 0
4, 12744, Note_on_c, 0, 75, 64
4, 12816, Note_on_c, 0, 75, 0
4, 12816, Note_on_c, 0, 71, 64
4, 12960, Note_on_c, 0, 71, 0
4, 13038, Control_c, 0, 64, 0
4, 13056, Control_c, 0, 64, 127
4, 13056, Note_on_c, 0, 76, 64
4, 13104, Note_on_c, 0, 76, 0
4, 13104, Note_on_c, 0, 76, 64
4, 13128, Note_on_c, 0, 76, 0
4, 13128, Note_on_c, 0, 76, 64
4, 13176, Note_on_c, 0, 76, 0
4, 13176, Note_on_c, 0, 80, 64
4, 13224, Note_on_c, 0, 80, 0
4, 13224, Note_on_c, 0, 80, 64
4, 13296, Note_on_c, 0, 80, 0
4, 13296, Note_on_c, 0, 71, 64
4, 13344, Note_on_c, 0, 71, 0
4, 13344, Note_on_c, 0, 71, 64
4, 13392, Note_on_c, 0, 71, 0
4, 13392, Note_on_c, 0, 76, 64
4, 13416, Control_c, 0, 64, 0
4, 13434, Control_c, 0, 64, 127
4, 13440, Note_on_c, 0, 76, 0
4, 13440, Note_on_c, 0, 75, 64
4, 13584, Note_on_c, 0, 75, 0
4, 13584, Note_on_c, 0, 73, 64
4, 13728, Note_on_c, 0, 73, 0
4, 13794, Control_c, 0, 64, 0
4, 13800, Note_on_c, 0, 71, 64
4, 13818, Control_c, 0, 64, 127
4, 13824, Note_on_c, 0, 71, 0
4, 13824, Note_on_c, 0, 80, 64
4, 13872, Note_on_c, 0, 80, 0
4, 13872, Note_on_c, 0, 80, 64
4, 13896, Note_on_c, 0, 80, 0
4, 13896, Note_on_c, 0, 80, 64
4, 13920, Note_on_c, 0, 80, 0
4, 13920, Note_on_c, 0, 80, 64
4, 13968, Note_on_c, 0, 80, 0
4, 13968, Note_on_c, 0, 80, 64
4, 13992, Note_on_c, 0, 80, 0
4, 13992, Note_on_c, 0, 80, 64
4, 14040, Note_on_c, 0, 80, 0
4, 14040, Note_on_c, 0, 80, 64
4, 14088, Note_on_c, 0, 80, 0
4, 14088, Note_on_c, 0, 80, 64
4, 14112, Note_on_c, 0, 80, 0
4, 14112, Note_on_c, 0, 80, 64
4, 14160, Note_on_c, 0, 80, 0
4, 14160, Note_on_c, 0, 78, 64
4, 14178, Control_c, 0, 64, 0
4, 14184, Note_on_c, 0, 78, 0
4, 14184, Note_on_c, 0, 78, 64
4, 14202, Control_c, 0, 64, 127
4, 14232, Note_on_c, 0, 78, 0
4, 14232, Note_on_c, 0, 78, 64
4, 14304, Note_on_c, 0, 78, 0
4, 14574, Control_c, 0, 64, 0
4, 14592, Control_c, 0, 64, 127
4, 14640, Note_on_c, 0, 80, 64
4, 14688, Note_on_c, 0, 80, 0
4, 14688, Note_on_c, 0, 80, 64
4, 14736, Note_on_c, 0, 80, 0
4, 14736, Note_on_c, 0, 80, 64
4, 14760, Note_on_c, 0, 80, 0
4, 14760, Note_on_c, 0, 80, 64
4, 14808, Note_on_c, 0, 80, 0
4, 14808, Note_on_c, 0, 80, 64
4, 14832, Note_on_c, 0, 80, 0
4, 14832, Note_on_c, 0, 80, 64
4, 14880, Note_on_c, 0, 80, 0
4, 14880, Note_on_c, 0, 80, 64
4, 14928, Note_on_c, 0, 80, 0
4, 14928, Note_on_c, 0, 78, 64
4, 14952, Note_on_c, 0, 78, 0
4, 14952, Control_c, 0, 64, 0
4, 14952, Note_on_c, 0, 78, 64
4, 14976, Control_c, 0, 64, 127
4, 15072, Note_on_c, 0, 78, 0
4, 15330, Control_c, 0, 64, 0
4, 15336, Note_on_c, 0, 71, 64
4, 15352, Note_on_c, 0, 71, 0
4, 15360, Control_c, 0, 64, 127
4, 15360, Note_on_c, 0, 80, 64
4, 15392, Note_on_c, 0, 80, 0
4, 15408, Note_on_c, 0, 80, 64
4, 15424, Note_on_c, 0, 80, 0
4, 15432, Note_on_c, 0, 80, 64
4, 15448, Note_on_c, 0, 80, 0
4, 15456, Note_on_c, 0, 80, 64
4, 15488, Note_on_c, 0, 80, 0
4, 15504, Note_on_c, 0, 80, 64
4, 15520, Note_on_c, 0, 80, 0
4, 15528, Note_on_c, 0, 80, 64
4, 15560, Note_on_c, 0, 80, 0
4, 15576, Note_on_c, 0, 80, 64
4, 15608, Note_on_c, 0, 80, 0
4, 15624, Note_on_c, 0, 80, 64
4, 15656, Note_on_c, 0, 80, 0
4, 15672, Note_on_c, 0, 78, 64
4, 15688, Note_on_c, 0, 78, 0
4, 15696, Note_on_c, 0, 78, 64
4, 15712, Note_on_c, 0, 78, 0
4, 15720, Control_c, 0, 64, 0
4, 15720, Note_on_c, 0, 78, 64
4, 15736, Note_on_c, 0, 78, 0
4, 15744, Control_c, 0, 64, 127
4, 15744, Note_on_c, 0, 78, 64
4, 15776, Note_on_c, 0, 78, 0
4, 15792, Note_on_c, 0, 71, 64
4, 15808, Note_on_c, 0, 71, 0
4, 15816, Note_on_c, 0, 71, 64
4, 15896, Note_on_c, 0, 71, 0
4, 16080, Note_on_c, 0, 75, 64
4, 16098, Control_c, 0, 64, 0
4, 16112, Note_on_c, 0, 75, 0
4, 16128, Note_on_c, 0, 73, 64
4, 16134, Control_c, 0, 64, 127
4, 16224, Note_on_c, 0, 73, 0
4, 16272, Note_on_c, 0, 75, 64
4, 16288, Note_on_c, 0, 75, 0
4, 16296, Note_on_c, 0, 78, 64
4, 16408, Note_on_c, 0, 78, 0
4, 16464, Note_on_c, 0, 75, 64
4, 16494, Control_c, 0, 64, 0
4, 16496, Note_on_c, 0, 75, 0
4, 16512, Control_c, 0, 64, 127
4, 16512, Note_on_c, 0, 73, 64
4, 16576, Note_on_c, 0, 73, 0
4, 16832, Note_on_c, 0, 73, 64
4, 16853, Note_on_c, 0, 73, 0
4, 16864, Note_on_c, 0, 75, 64
4, 16878, Control_c, 0, 64, 0
4, 16885, Note_on_c, 0, 75, 0
4, 16896, Control_c, 0, 64, 127
4, 16896, Note_on_c, 0, 76, 64
4, 16944, Note_on_c, 0, 76, 0
4, 16968, Note_on_c, 0, 75, 64
4, 17016, Note_on_c, 0, 75, 0
4, 17040, Note_on_c, 0, 73, 64
4, 17104, Note_on_c, 0, 73, 0
4, 17136, Note_on_c, 0, 71, 64
4, 17232, Note_on_c, 0, 71, 0
4, 17244, Control_c, 0, 64, 0
4, 17274, Control_c, 0, 64, 127
4, 17568, Note_on_c, 0, 68, 64
4, 17616, Note_on_c, 0, 68, 0
4, 17616, Note_on_c, 0, 71, 64
4, 17640, Note_on_c, 0, 71, 0
4, 17640, Control_c, 0, 64, 0
4, 17640, Note_on_c, 0, 71, 64
4, 17664, Control_c, 0, 64, 127
4, 17760, Note_on_c, 0, 71, 0
4, 18024, Control_c, 0, 64, 0
4, 18042, Control_c, 0, 64, 127
4, 18408, Control_c, 0, 64, 0
4, 18432, Control_c, 0, 64, 127
4, 18798, Control_c, 0, 64, 0
4, 18810, Control_c, 0, 64, 127
4, 19176, Control_c, 0, 64, 0
4, 19194, Control_c, 0, 64, 127
4, 19248, Note_on_c, 0, 75, 64
4, 19320, Note_on_c, 0, 75, 0
4, 19320, Note_on_c, 0, 73, 64
4, 19392, Note_on_c, 0, 73, 0
4, 19392, Note_on_c, 0, 76, 64
4, 19464, Note_on_c, 0, 76, 0
4, 19464, Note_on_c, 0, 75, 64
4, 19572, Control_c, 0, 64, 0
4, 19584, Note_on_c, 0, 75, 0
4, 19584, Control_c, 0, 64, 127
4, 19632, Note_on_c, 0, 75, 64
4, 19704, Note_on_c, 0, 75, 0
4, 19704, Note_on_c, 0, 73, 64
4, 19776, Note_on_c, 0, 73, 0
4, 19776, Note_on_c, 0, 76, 64
4, 19848, Note_on_c, 0, 76, 0
4, 19848, Note_on_c, 0, 75, 64
4, 19920, Note_on_c, 0, 75, 0
4, 19920, Note_on_c, 0, 71, 64
4, 19968, Note_on_c, 0, 71, 0
4, 19968, Control_c, 0, 64, 0
4, 19974, Control_c, 0, 64, 127
4, 20016, Note_on_c, 0, 75, 64
4, 20088, Note_on_c, 0, 75, 0
4, 20088, Note_on_c, 0, 73, 64
4, 20160, Note_on_c, 0, 73, 0
4, 20160, Note_on_c, 0, 76, 64
4, 20232, Note_on_c, 0, 76, 0
4, 20232, Note_on_c, 0, 75, 64
4, 20304, Note_on_c, 0, 75, 0
4, 20304, Note_on_c, 0, 71, 64
4, 20334, Control_c, 0, 64, 0
4, 20352, Note_on_c, 0, 71, 0
4, 20352, Control_c, 0, 64, 127
4, 20352, Note_on_c, 0, 80, 64
4, 20640, Note_on_c, 0, 80, 0
4, 20640, Note_on_c, 0, 78, 64
4, 20712, Control_c, 0, 64, 0
4, 20730, Control_c, 0, 64, 127
4, 20736, Note_on_c, 0, 78, 0
4, 20784, Note_on_c, 0, 75, 64
4, 20856, Note_on_c, 0, 75, 0
4, 20856, Note_on_c, 0, 73, 64
4, 20928, Note_on_c, 0, 73, 0
4, 20928, Note_on_c, 0, 76, 64
4, 21000, Note_on_c, 0, 76, 0
4, 21000, Note_on_c, 0, 75, 64
4, 21108, Control_c, 0, 64, 0
4, 21120, Note_on_c, 0, 75, 0
4, 21126, Control_c, 0, 64, 127
4, 21168, Note_on_c, 0, 75, 64
4, 21240, Note_on_c, 0, 75, 0
4, 21240, Note_on_c, 0, 73, 64
4, 21312, Note_on_c, 0, 73, 0
4, 21312, Note_on_c, 0, 76, 64
4, 21384, Note_on_c, 0, 76, 0
4, 21384, Note_on_c, 0, 75, 64
4, 21456, Note_on_c, 0, 75, 0
4, 21456, Note_on_c, 0, 71, 64
4, 21492, Control_c, 0, 64, 0
4, 21504, Note_on_c, 0, 71, 0
4, 21510, Control_c, 0, 64, 127
4, 21552, Note_on_c, 0, 75, 64
4, 21624, Note_on_c, 0, 75, 0
4, 21624, Note_on_c, 0, 73, 64
4, 21696, Note_on_c, 0, 73, 0
4, 21696, Note_on_c, 0, 76, 64
4, 21768, Note_on_c, 0, 76, 0
4, 21768, Note_on_c, 0, 75, 64
4, 21840, Note_on_c, 0, 75, 0
4, 21840, Note_on_c, 0, 71, 64
4, 21870, Control_c, 0, 64, 0
4, 21888, Note_on_c, 0, 71, 0
4, 21888, Control_c, 0, 64, 127
4, 21888, Note_on_c, 0, 80, 64
4, 22176, Note_on_c, 0, 80, 0
4, 22176, Note_on_c, 0, 78, 64
4, 22254, Control_c, 0, 64, 0
4, 22272, Note_on_c, 0, 78, 0
4, 22320, Note_on_c, 0, 75, 64
4, 22392, Note_on_c, 0, 75, 0
4, 22392, Note_on_c, 0, 73, 64
4, 22464, Note_on_c, 0, 73, 0
4, 22464, Note_on_c, 0, 76, 64
4, 22536, Note_on_c, 0, 76, 0
4, 22536, Note_on_c, 0, 75, 64
4, 22638, Control_c, 0, 64, 0
4, 22656, Note_on_c, 0, 75, 0
4, 22656, Control_c, 0, 64, 127
4, 22704, Note_on_c, 0, 75, 64
4, 22776, Note_on_c, 0, 75, 0
4, 22776, Note_on_c, 0, 73, 64
4, 22848, Note_on_c, 0, 73, 0
4, 22848, Note_on_c, 0, 76, 64
4, 22920, Note_on_c, 0, 76, 0
4, 22920, Note_on_c, 0, 75, 64
4, 22992, Note_on_c, 0, 75, 0
4, 22992, Note_on_c, 0, 71, 64
4, 23034, Control_c, 0, 64, 0
4, 23040, Note_on_c, 0, 71, 0
4, 23046, Control_c, 0, 64, 127
4, 23088, Note_on_c, 0, 75, 64
4, 23160, Note_on_c, 0, 75, 0
4, 23160, Note_on_c, 0, 73, 64
4, 23232, Note_on_c, 0, 73, 0
4, 23232, Note_on_c, 0, 76, 64
4, 23304, Note_on_c, 0, 76, 0
4, 23304, Note_on_c, 0, 75, 64
4, 23376, Note_on_c, 0, 75, 0
4, 23376, Note_on_c, 0, 71, 64
4, 23394, Control_c, 0, 64, 0
4, 23418, Control_c, 0, 64, 127
4, 23424, Note_on_c, 0, 71, 0
4, 23424, Note_on_c, 0, 80, 64
4, 23712, Note_on_c, 0, 80, 0
4, 23712, Note_on_c, 0, 78, 64
4, 23784, Control_c, 0, 64, 0
4, 23808, Note_on_c, 0, 78, 0
4, 23808, Control_c, 0, 64, 127
4, 23856, Note_on_c, 0, 75, 64
4, 23928, Note_on_c, 0, 75, 0
4, 23928, Note_on_c, 0, 73, 64
4, 24000, Note_on_c, 0, 73, 0
4, 24000, Note_on_c, 0, 76, 64
4, 24072, Note_on_c, 0, 76, 0
4, 24072, Note_on_c, 0, 75, 64
4, 24180, Control_c, 0, 64, 0
4, 24192, Note_on_c, 0, 75, 0
4, 24198, Control_c, 0, 64, 127
4, 24240, Note_on_c, 0, 75, 64
4, 24312, Note_on_c, 0, 75, 0
4, 24312, Note_on_c, 0, 73, 64
4, 24384, Note_on_c, 0, 73, 0
4, 24384, Note_on_c, 0, 76, 64
4, 24456, Note_on_c, 0, 76, 0
4, 24456, Note_on_c, 0, 75, 64
4, 24528, Note_on_c, 0, 75, 0
4, 24528, Note_on_c, 0, 71, 64
4, 24564, Control_c, 0, 64, 0
4, 24576, Note_on_c, 0, 71, 0
4, 24582, Control_c, 0, 64, 127
4, 24624, Note_on_c, 0, 75, 64
4, 24696, Note_on_c, 0, 75, 0
4, 24696, Note_on_c, 0, 73, 64
4, 24768, Note_on_c, 0, 73, 0
4, 24768, Note_on_c, 0, 76, 64
4, 24840, Note_on_c, 0, 76, 0
4, 24840, Note_on_c, 0, 75, 64
4, 24912, Note_on_c, 0, 75, 0
4, 24912, Note_on_c, 0, 71, 64
4, 24930, Control_c, 0, 64, 0
4, 24960, Note_on_c, 0, 71, 0
4, 24966, Control_c, 0, 64, 127
4, 25344, Control_c, 0, 64, 0
4, 25344, End_track
5, 0, Start_track
5, 0, MIDI_port, 0
5, 0, Title_t, "Piano"
5, 0, Program_c, 1, 0
5, 0, Control_c, 1, 7, 127
5, 0, Control_c, 1, 10, 64
5, 0, Note_on_c, 1, 35, 64
5, 0, Note_on_c, 1, 47, 64
5, 48, Note_on_c, 1, 59, 64
5, 48, Note_on_c, 1, 63, 64
5, 54, Control_c, 1, 64, 127
5, 96, Note_on_c, 1, 47, 0
5, 96, Note_on_c, 1, 35, 0
5, 96, Note_on_c, 1, 54, 64
5, 120, Note_on_c, 1, 59, 0
5, 120, Note_on_c, 1, 63, 0
5, 120, Note_on_c, 1, 61, 64
5, 168, Note_on_c, 1, 54, 0
5, 168, Note_on_c, 1, 47, 64
5, 192, Note_on_c, 1, 47, 0
5, 192, Note_on_c, 1, 61, 0
5, 192, Note_on_c, 1, 47, 64
5, 192, Note_on_c, 1, 64, 64
5, 192, Note_on_c, 1, 59, 64
5, 264, Note_on_c, 1, 59, 0
5, 264, Note_on_c, 1, 64, 0
5, 264, Note_on_c, 1, 63, 64
5, 264, Note_on_c, 1, 59, 64
5, 288, Note_on_c, 1, 47, 0
5, 288, Note_on_c, 1, 35, 64
5, 288, Note_on_c, 1, 47, 64
5, 312, Note_on_c, 1, 59, 0
5, 312, Note_on_c, 1, 63, 0
5, 312, Note_on_c, 1, 54, 64
5, 336, Note_on_c, 1, 54, 0
5, 336, Note_on_c, 1, 61, 64
5, 360, Note_on_c, 1, 61, 0
5, 360, Note_on_c, 1, 63, 64
5, 366, Control_c, 1, 64, 0
5, 384, Note_on_c, 1, 63, 0
5, 384, Note_on_c, 1, 35, 0
5, 384, Note_on_c, 1, 47, 0
5, 384, Control_c, 1, 64, 127
5, 384, Note_on_c, 1, 32, 64
5, 384, Note_on_c, 1, 44, 64
5, 432, Note_on_c, 1, 59, 64
5, 432, Note_on_c, 1, 63, 64
5, 480, Note_on_c, 1, 44, 0
5, 480, Note_on_c, 1, 32, 0
5, 480, Note_on_c, 1, 44, 64
5, 504, Note_on_c, 1, 59, 0
5, 504, Note_on_c, 1, 63, 0
5, 504, Note_on_c, 1, 61, 64
5, 552, Note_on_c, 1, 44, 0
5, 552, Note_on_c, 1, 32, 64
5, 576, Note_on_c, 1, 32, 0
5, 576, Note_on_c, 1, 61, 0
5, 576, Note_on_c, 1, 32, 64
5, 576, Note_on_c, 1, 59, 64
5, 576, Note_on_c, 1, 64, 64
5, 648, Note_on_c, 1, 64, 0
5, 648, Note_on_c, 1, 59, 0
5, 648, Note_on_c, 1, 63, 64
5, 648, Note_on_c, 1, 59, 64
5, 672, Note_on_c, 1, 32, 0
5, 672, Note_on_c, 1, 44, 64
5, 696, Note_on_c, 1, 59, 0
5, 696, Note_on_c, 1, 63, 0
5, 696, Note_on_c, 1, 59, 64
5, 720, Note_on_c, 1, 59, 0
5, 720, Note_on_c, 1, 61, 64
5, 744, Note_on_c, 1, 61, 0
5, 744, Note_on_c, 1, 63, 64
5, 756, Control_c, 1, 64, 0
5, 768, Note_on_c, 1, 63, 0
5, 768, Note_on_c, 1, 44, 0
5, 768, Control_c, 1, 64, 127
5, 768, Note_on_c, 1, 30, 64
5, 768, Note_on_c, 1, 42, 64
5, 816, Note_on_c, 1, 59, 64
5, 816, Note_on_c, 1, 63, 64
5, 864, Note_on_c, 1, 42, 0
5, 864, Note_on_c, 1, 30, 0
5, 864, Note_on_c, 1, 42, 64
5, 888, Note_on_c, 1, 59, 0
5, 888, Note_on_c, 1, 63, 0
5, 888, Note_on_c, 1, 61, 64
5, 936, Note_on_c, 1, 42, 0
5, 936, Note_on_c, 1, 30, 64
5, 960, Note_on_c, 1, 30, 0
5, 960, Note_on_c, 1, 61, 0
5, 960, Note_on_c, 1, 30, 64
5, 960, Note_on_c, 1, 64, 64
5, 960, Note_on_c, 1, 59, 64
5, 1032, Note_on_c, 1, 59, 0
5, 1032, Note_on_c, 1, 64, 0
5, 1032, Note_on_c, 1, 63, 64
5, 1056, Note_on_c, 1, 30, 0
5, 1056, Note_on_c, 1, 42, 64
5, 1080, Note_on_c, 1, 63, 0
5, 1080, Note_on_c, 1, 59, 64
5, 1128, Control_c, 1, 64, 0
5, 1146, Control_c, 1, 64, 127
5, 1152, Note_on_c, 1, 59, 0
5, 1152, Note_on_c, 1, 42, 0
5, 1152, Note_on_c, 1, 40, 64
5, 1152, Note_on_c, 1, 28, 64
5, 1152, Note_on_c, 1, 56, 64
5, 1152, Note_on_c, 1, 52, 64
5, 1224, Note_on_c, 1, 52, 0
5, 1224, Note_on_c, 1, 56, 0
5, 1224, Note_on_c, 1, 56, 64
5, 1224, Note_on_c, 1, 64, 64
5, 1248, Note_on_c, 1, 28, 0
5, 1248, Note_on_c, 1, 40, 0
5, 1248, Note_on_c, 1, 40, 64
5, 1248, Note_on_c, 1, 28, 64
5, 1272, Note_on_c, 1, 56, 0
5, 1272, Note_on_c, 1, 64, 0
5, 1272, Note_on_c, 1, 58, 64
5, 1296, Note_on_c, 1, 58, 0
5, 1296, Note_on_c, 1, 40, 0
5, 1296, Note_on_c, 1, 28, 0
5, 1296, Note_on_c, 1, 40, 64
5, 1296, Note_on_c, 1, 28, 64
5, 1296, Note_on_c, 1, 59, 64
5, 1296, Note_on_c, 1, 64, 64
5, 1512, Control_c, 1, 64, 0
5, 1536, Note_on_c, 1, 64, 0
5, 1536, Note_on_c, 1, 40, 0
5, 1536, Note_on_c, 1, 28, 0
5, 1536, Note_on_c, 1, 59, 0
5, 1536, Control_c, 1, 64, 127
5, 1536, Note_on_c, 1, 35, 64
5, 1536, Note_on_c, 1, 47, 64
5, 1584, Note_on_c, 1, 59, 64
5, 1584, Note_on_c, 1, 63, 64
5, 1600, Note_on_c, 1, 47, 0
5, 1600, Note_on_c, 1, 35, 0
5, 1632, Note_on_c, 1, 59, 0
5, 1632, Note_on_c, 1, 63, 0
5, 1632, Note_on_c, 1, 54, 64
5, 1656, Note_on_c, 1, 61, 64
5, 1680, Note_on_c, 1, 54, 0
5, 1704, Note_on_c, 1, 61, 0
5, 1704, Note_on_c, 1, 47, 64
5, 1720, Note_on_c, 1, 47, 0
5, 1728, Note_on_c, 1, 47, 64
5, 1728, Note_on_c, 1, 59, 64
5, 1728, Note_on_c, 1, 64, 64
5, 1776, Note_on_c, 1, 64, 0
5, 1776, Note_on_c, 1, 59, 0
5, 1792, Note_on_c, 1, 47, 0
5, 1800, Note_on_c, 1, 59, 64
5, 1800, Note_on_c, 1, 63, 64
5, 1824, Note_on_c, 1, 47, 64
5, 1824, Note_on_c, 1, 35, 64
5, 1880, Note_on_c, 1, 63, 0
5, 1880, Note_on_c, 1, 59, 0
5, 1888, Note_on_c, 1, 47, 0
5, 1888, Note_on_c, 1, 35, 0
5, 1902, Control_c, 1, 64, 0
5, 1920, Control_c, 1, 64, 127
5, 1920, Note_on_c, 1, 44, 64
5, 1920, Note_on_c, 1, 32, 64
5, 1968, Note_on_c, 1, 59, 64
5, 1968, Note_on_c, 1, 63, 64
5, 1984, Note_on_c, 1, 32, 0
5, 1984, Note_on_c, 1, 44, 0
5, 2016, Note_on_c, 1, 59, 0
5, 2016, Note_on_c, 1, 63, 0
5, 2016, Note_on_c, 1, 44, 64
5, 2040, Note_on_c, 1, 61, 64
5, 2064, Note_on_c, 1, 44, 0
5, 2088, Note_on_c, 1, 61, 0
5, 2088, Note_on_c, 1, 32, 64
5, 2104, Note_on_c, 1, 32, 0
5, 2112, Note_on_c, 1, 32, 64
5, 2112, Note_on_c, 1, 64, 64
5, 2112, Note_on_c, 1, 59, 64
5, 2160, Note_on_c, 1, 59, 0
5, 2160, Note_on_c, 1, 64, 0
5, 2176, Note_on_c, 1, 32, 0
5, 2184, Note_on_c, 1, 63, 64
5, 2208, Note_on_c, 1, 44, 64
5, 2216, Note_on_c, 1, 63, 0
5, 2232, Note_on_c, 1, 59, 64
5, 2248, Note_on_c, 1, 59, 0
5, 2256, Note_on_c, 1, 56, 64
5, 2272, Note_on_c, 1, 44, 0
5, 2280, Control_c, 1, 64, 0
5, 2288, Note_on_c, 1, 56, 0
5, 2304, Control_c, 1, 64, 127
5, 2304, Note_on_c, 1, 28, 64
5, 2304, Note_on_c, 1, 40, 64
5, 2304, Note_on_c, 1, 52, 64
5, 2304, Note_on_c, 1, 56, 64
5, 2352, Note_on_c, 1, 56, 0
5, 2352, Note_on_c, 1, 52, 0
5, 2368, Note_on_c, 1, 40, 0
5, 2368, Note_on_c, 1, 28, 0
5, 2376, Note_on_c, 1, 56, 64
5, 2376, Note_on_c, 1, 64, 64
5, 2400, Note_on_c, 1, 40, 64
5, 2400, Note_on_c, 1, 28, 64
5, 2424, Note_on_c, 1, 64, 0
5, 2424, Note_on_c, 1, 56, 0
5, 2432, Note_on_c, 1, 40, 0
5, 2432, Note_on_c, 1, 28, 0
5, 2448, Note_on_c, 1, 40, 64
5, 2448, Note_on_c, 1, 28, 64
5, 2448, Note_on_c, 1, 64, 64
5, 2448, Note_on_c, 1, 59, 64
5, 2480, Note_on_c, 1, 59, 0
5, 2480, Note_on_c, 1, 64, 0
5, 2608, Note_on_c, 1, 28, 0
5, 2608, Note_on_c, 1, 40, 0
5, 2664, Control_c, 1, 64, 0
5, 2682, Control_c, 1, 64, 127
5, 2688, Note_on_c, 1, 35, 64
5, 2688, Note_on_c, 1, 47, 64
5, 2736, Note_on_c, 1, 59, 64
5, 2736, Note_on_c, 1, 63, 64
5, 2784, Note_on_c, 1, 63, 0
5, 2784, Note_on_c, 1, 35, 0
5, 2784, Note_on_c, 1, 47, 0
5, 2784, Note_on_c, 1, 59, 0
5, 2784, Note_on_c, 1, 54, 64
5, 2808, Note_on_c, 1, 61, 64
5, 2856, Note_on_c, 1, 61, 0
5, 2856, Note_on_c, 1, 54, 0
5, 2856, Note_on_c, 1, 47, 64
5, 2880, Note_on_c, 1, 47, 0
5, 2880, Note_on_c, 1, 47, 64
5, 2880, Note_on_c, 1, 64, 64
5, 2880, Note_on_c, 1, 59, 64
5, 2928, Note_on_c, 1, 59, 0
5, 2928, Note_on_c, 1, 64, 0
5, 2952, Note_on_c, 1, 63, 64
5, 2976, Note_on_c, 1, 47, 0
5, 2976, Note_on_c, 1, 47, 64
5, 2976, Note_on_c, 1, 35, 64
5, 2984, Note_on_c, 1, 63, 0
5, 3000, Note_on_c, 1, 59, 64
5, 3016, Note_on_c, 1, 59, 0
5, 3024, Note_on_c, 1, 61, 64
5, 3024, Note_on_c, 1, 66, 64
5, 3040, Note_on_c, 1, 66, 0
5, 3040, Note_on_c, 1, 61, 0
5, 3048, Note_on_c, 1, 66, 64
5, 3048, Note_on_c, 1, 63, 64
5, 3060, Control_c, 1, 64, 0
5, 3064, Note_on_c, 1, 63, 0
5, 3064, Note_on_c, 1, 66, 0
5, 3072, Note_on_c, 1, 35, 0
5, 3072, Note_on_c, 1, 47, 0
5, 3072, Control_c, 1, 64, 127
5, 3072, Note_on_c, 1, 47, 64
5, 3072, Note_on_c, 1, 35, 64
5, 3073, Note_on_c, 1, 35, 0
5, 3073, Note_on_c, 1, 47, 0
5, 3120, Note_on_c, 1, 59, 64
5, 3120, Note_on_c, 1, 63, 64
5, 3168, Note_on_c, 1, 54, 64
5, 3192, Note_on_c, 1, 63, 0
5, 3192, Note_on_c, 1, 59, 0
5, 3192, Note_on_c, 1, 61, 64
5, 3240, Note_on_c, 1, 54, 0
5, 3240, Note_on_c, 1, 47, 64
5, 3264, Note_on_c, 1, 47, 0
5, 3264, Note_on_c, 1, 61, 0
5, 3264, Note_on_c, 1, 47, 64
5, 3264, Note_on_c, 1, 59, 64
5, 3264, Note_on_c, 1, 64, 64
5, 3336, Note_on_c, 1, 64, 0
5, 3336, Note_on_c, 1, 59, 0
5, 3336, Note_on_c, 1, 63, 64
5, 3360, Note_on_c, 1, 47, 0
5, 3360, Note_on_c, 1, 47, 64
5, 3360, Note_on_c, 1, 35, 64
5, 3384, Note_on_c, 1, 63, 0
5, 3384, Note_on_c, 1, 63, 64
5, 3408, Note_on_c, 1, 63, 0
5, 3408, Note_on_c, 1, 54, 64
5, 3444, Control_c, 1, 64, 0
5, 3456, Note_on_c, 1, 54, 0
5, 3456, Note_on_c, 1, 35, 0
5, 3456, Note_on_c, 1, 47, 0
5, 3456, Control_c, 1, 64, 127
5, 3456, Note_on_c, 1, 47, 64
5, 3456, Note_on_c, 1, 35, 64
5, 3504, Note_on_c, 1, 59, 64
5, 3504, Note_on_c, 1, 63, 64
5, 3552, Note_on_c, 1, 35, 0
5, 3552, Note_on_c, 1, 47, 0
5, 3552, Note_on_c, 1, 54, 64
5, 3576, Note_on_c, 1, 59, 0
5, 3576, Note_on_c, 1, 63, 0
5, 3576, Note_on_c, 1, 61, 64
5, 3624, Note_on_c, 1, 54, 0
5, 3624, Note_on_c, 1, 47, 64
5, 3648, Note_on_c, 1, 47, 0
5, 3648, Note_on_c, 1, 61, 0
5, 3648, Note_on_c, 1, 47, 64
5, 3648, Note_on_c, 1, 59, 64
5, 3648, Note_on_c, 1, 64, 64
5, 3720, Note_on_c, 1, 64, 0
5, 3720, Note_on_c, 1, 59, 0
5, 3720, Note_on_c, 1, 63, 64
5, 3744, Note_on_c, 1, 47, 0
5, 3744, Note_on_c, 1, 47, 64
5, 3744, Note_on_c, 1, 35, 64
5, 3768, Note_on_c, 1, 63, 0
5, 3768, Note_on_c, 1, 59, 64
5, 3792, Note_on_c, 1, 59, 0
5, 3792, Note_on_c, 1, 61, 64
5, 3816, Note_on_c, 1, 61, 0
5, 3816, Note_on_c, 1, 63, 64
5, 3822, Control_c, 1, 64, 0
5, 3834, Control_c, 1, 64, 127
5, 3840, Note_on_c, 1, 63, 0
5, 3840, Note_on_c, 1, 35, 0
5, 3840, Note_on_c, 1, 47, 0
5, 3840, Note_on_c, 1, 44, 64
5, 3840, Note_on_c, 1, 32, 64
5, 3888, Note_on_c, 1, 59, 64
5, 3888, Note_on_c, 1, 63, 64
5, 3936, Note_on_c, 1, 32, 0
5, 3936, Note_on_c, 1, 44, 0
5, 3936, Note_on_c, 1, 44, 64
5, 3960, Note_on_c, 1, 59, 0
5, 3960, Note_on_c, 1, 63, 0
5, 3960, Note_on_c, 1, 61, 64
5, 4008, Note_on_c, 1, 44, 0
5, 4008, Note_on_c, 1, 32, 64
5, 4032, Note_on_c, 1, 32, 0
5, 4032, Note_on_c, 1, 61, 0
5, 4032, Note_on_c, 1, 32, 64
5, 4032, Note_on_c, 1, 59, 64
5, 4032, Note_on_c, 1, 64, 64
5, 4104, Note_on_c, 1, 64, 0
5, 4104, Note_on_c, 1, 59, 0
5, 4104, Note_on_c, 1, 63, 64
5, 4128, Note_on_c, 1, 32, 0
5, 4128, Note_on_c, 1, 44, 64
5, 4128, Note_on_c, 1, 32, 64
5, 4152, Note_on_c, 1, 63, 0
5, 4152, Note_on_c, 1, 59, 64
5, 4176, Note_on_c, 1, 59, 0
5, 4176, Note_on_c, 1, 56, 64
5, 4212, Control_c, 1, 64, 0
5, 4224, Note_on_c, 1, 56, 0
5, 4224, Note_on_c, 1, 32, 0
5, 4224, Note_on_c, 1, 44, 0
5, 4224, Note_on_c, 1, 40, 64
5, 4224, Note_on_c, 1, 28, 64
5, 4224, Note_on_c, 1, 52, 64
5, 4224, Note_on_c, 1, 56, 64
5, 4230, Control_c, 1, 64, 127
5, 4296, Note_on_c, 1, 56, 0
5, 4296, Note_on_c, 1, 52, 0
5, 4296, Note_on_c, 1, 56, 64
5, 4296, Note_on_c, 1, 64, 64
5, 4320, Note_on_c, 1, 28, 0
5, 4320, Note_on_c, 1, 40, 0
5, 4320, Note_on_c, 1, 40, 64
5, 4320, Note_on_c, 1, 28, 64
5, 4368, Note_on_c, 1, 28, 0
5, 4368, Note_on_c, 1, 64, 0
5, 4368, Note_on_c, 1, 56, 0
5, 4368, Note_on_c, 1, 40, 0
5, 4368, Note_on_c, 1, 28, 64
5, 4368, Note_on_c, 1, 40, 64
5, 4368, Note_on_c, 1, 64, 64
5, 4368, Note_on_c, 1, 56, 64
5, 4512, Note_on_c, 1, 56, 0
5, 4512, Note_on_c, 1, 64, 0
5, 4512, Note_on_c, 1, 63, 64
5, 4560, Note_on_c, 1, 63, 0
5, 4560, Note_on_c, 1, 64, 64
5, 4590, Control_c, 1, 64, 0
5, 4608, Note_on_c, 1, 64, 0
5, 4608, Note_on_c, 1, 40, 0
5, 4608, Note_on_c, 1, 28, 0
5, 4608, Control_c, 1, 64, 127
5, 4608, Note_on_c, 1, 42, 64
5, 4608, Note_on_c, 1, 30, 64
5, 4608, Note_on_c, 1, 59, 64
5, 4608, Note_on_c, 1, 63, 64
5, 4608, Note_on_c, 1, 68, 64
5, 4680, Note_on_c, 1, 68, 0
5, 4680, Note_on_c, 1, 59, 0
5, 4680, Note_on_c, 1, 63, 0
5, 4680, Note_on_c, 1, 59, 64
5, 4680, Note_on_c, 1, 68, 64
5, 4680, Note_on_c, 1, 63, 64
5, 4704, Note_on_c, 1, 30, 0
5, 4704, Note_on_c, 1, 42, 0
5, 4704, Note_on_c, 1, 42, 64
5, 4704, Note_on_c, 1, 30, 64
5, 4752, Note_on_c, 1, 30, 0
5, 4752, Note_on_c, 1, 68, 0
5, 4752, Note_on_c, 1, 63, 0
5, 4752, Note_on_c, 1, 59, 0
5, 4752, Note_on_c, 1, 42, 0
5, 4752, Note_on_c, 1, 42, 64
5, 4752, Note_on_c, 1, 30, 64
5, 4752, Note_on_c, 1, 58, 64
5, 4752, Note_on_c, 1, 61, 64
5, 4752, Note_on_c, 1, 66, 64
5, 4896, Note_on_c, 1, 66, 0
5, 4896, Note_on_c, 1, 58, 0
5, 4896, Note_on_c, 1, 42, 0
5, 4896, Note_on_c, 1, 30, 0
5, 4896, Note_on_c, 1, 61, 0
5, 4896, Note_on_c, 1, 42, 64
5, 4896, Note_on_c, 1, 58, 64
5, 4896, Note_on_c, 1, 54, 64
5, 4920, Note_on_c, 1, 54, 0
5, 4920, Note_on_c, 1, 58, 0
5, 4920, Note_on_c, 1, 59, 64
5, 4944, Note_on_c, 1, 59, 0
5, 4944, Note_on_c, 1, 61, 64
5, 4968, Note_on_c, 1, 61, 0
5, 4968, Control_c, 1, 64, 0
5, 4968, Note_on_c, 1, 59, 64
5, 4986, Control_c, 1, 64, 127
5, 4992, Note_on_c, 1, 59, 0
5, 4992, Note_on_c, 1, 42, 0
5, 4992, Note_on_c, 1, 52, 64
5, 4992, Note_on_c, 1, 40, 64
5, 4992, Note_on_c, 1, 59, 64
5, 4992, Note_on_c, 1, 68, 64
5, 4992, Note_on_c, 1, 64, 64
5, 5040, Note_on_c, 1, 64, 0
5, 5040, Note_on_c, 1, 59, 0
5, 5040, Note_on_c, 1, 68, 0
5, 5040, Note_on_c, 1, 68, 64
5, 5064, Note_on_c, 1, 68, 0
5, 5064, Note_on_c, 1, 68, 64
5, 5088, Note_on_c, 1, 68, 0
5, 5088, Note_on_c, 1, 59, 64
5, 5088, Note_on_c, 1, 64, 64
5, 5088, Note_on_c, 1, 68, 64
5, 5136, Note_on_c, 1, 68, 0
5, 5136, Note_on_c, 1, 59, 0
5, 5136, Note_on_c, 1, 64, 0
5, 5136, Note_on_c, 1, 68, 64
5, 5160, Note_on_c, 1, 68, 0
5, 5160, Note_on_c, 1, 68, 64
5, 5184, Note_on_c, 1, 68, 0
5, 5184, Note_on_c, 1, 40, 0
5, 5184, Note_on_c, 1, 52, 0
5, 5184, Note_on_c, 1, 56, 64
5, 5184, Note_on_c, 1, 44, 64
5, 5184, Note_on_c, 1, 68, 64
5, 5184, Note_on_c, 1, 59, 64
5, 5184, Note_on_c, 1, 63, 64
5, 5208, Note_on_c, 1, 63, 0
5, 5208, Note_on_c, 1, 68, 0
5, 5208, Note_on_c, 1, 59, 0
5, 5208, Note_on_c, 1, 68, 64
5, 5256, Note_on_c, 1, 68, 0
5, 5256, Note_on_c, 1, 68, 64
5, 5280, Note_on_c, 1, 68, 0
5, 5280, Note_on_c, 1, 44, 0
5, 5280, Note_on_c, 1, 56, 0
5, 5280, Note_on_c, 1, 44, 64
5, 5280, Note_on_c, 1, 32, 64
5, 5280, Note_on_c, 1, 59, 64
5, 5280, Note_on_c, 1, 68, 64
5, 5280, Note_on_c, 1, 63, 64
5, 5328, Note_on_c, 1, 63, 0
5, 5328, Note_on_c, 1, 59, 0
5, 5328, Note_on_c, 1, 68, 0
5, 5328, Note_on_c, 1, 66, 64
5, 5352, Note_on_c, 1, 66, 0
5, 5352, Note_on_c, 1, 32, 0
5, 5352, Note_on_c, 1, 44, 0
5, 5352, Note_on_c, 1, 35, 64
5, 5352, Note_on_c, 1, 47, 64
5, 5352, Note_on_c, 1, 66, 64
5, 5358, Control_c, 1, 64, 0
5, 5370, Control_c, 1, 64, 127
5, 5376, Note_on_c, 1, 47, 0
5, 5376, Note_on_c, 1, 35, 0
5, 5376, Note_on_c, 1, 47, 64
5, 5376, Note_on_c, 1, 35, 64
5, 5376, Note_on_c, 1, 59, 64
5, 5376, Note_on_c, 1, 63, 64
5, 5376, Note_on_c, 1, 66, 64
5, 5400, Note_on_c, 1, 66, 0
5, 5400, Note_on_c, 1, 59, 0
5, 5400, Note_on_c, 1, 66, 0
5, 5400, Note_on_c, 1, 63, 0
5, 5400, Note_on_c, 1, 66, 64
5, 5401, Note_on_c, 1, 66, 0
5, 5472, Note_on_c, 1, 47, 0
5, 5472, Note_on_c, 1, 35, 0
5, 5472, Note_on_c, 1, 47, 64
5, 5472, Note_on_c, 1, 35, 64
5, 5472, Note_on_c, 1, 54, 64
5, 5472, Note_on_c, 1, 59, 64
5, 5496, Note_on_c, 1, 59, 0
5, 5496, Note_on_c, 1, 54, 0
5, 5496, Note_on_c, 1, 61, 64
5, 5496, Note_on_c, 1, 54, 64
5, 5544, Note_on_c, 1, 54, 0
5, 5544, Note_on_c, 1, 61, 0
5, 5544, Note_on_c, 1, 54, 64
5, 5544, Note_on_c, 1, 64, 64
5, 5568, Note_on_c, 1, 35, 0
5, 5568, Note_on_c, 1, 47, 0
5, 5568, Note_on_c, 1, 35, 64
5, 5568, Note_on_c, 1, 47, 64
5, 5592, Note_on_c, 1, 54, 0
5, 5592, Note_on_c, 1, 64, 0
5, 5592, Note_on_c, 1, 63, 64
5, 5592, Note_on_c, 1, 54, 64
5, 5640, Note_on_c, 1, 54, 0
5, 5640, Note_on_c, 1, 63, 0
5, 5640, Note_on_c, 1, 54, 64
5, 5640, Note_on_c, 1, 61, 64
5, 5664, Note_on_c, 1, 61, 0
5, 5664, Note_on_c, 1, 47, 0
5, 5664, Note_on_c, 1, 35, 0
5, 5664, Note_on_c, 1, 54, 0
5, 5664, Note_on_c, 1, 35, 64
5, 5664, Note_on_c, 1, 47, 64
5, 5664, Note_on_c, 1, 63, 64
5, 5664, Note_on_c, 1, 54, 64
5, 5712, Note_on_c, 1, 54, 0
5, 5712, Note_on_c, 1, 63, 0
5, 5712, Note_on_c, 1, 54, 64
5, 5712, Note_on_c, 1, 59, 64
5, 5754, Control_c, 1, 64, 0
5, 5760, Note_on_c, 1, 59, 0
5, 5760, Note_on_c, 1, 35, 0
5, 5760, Note_on_c, 1, 47, 0
5, 5760, Note_on_c, 1, 54, 0
5, 5760, Note_on_c, 1, 52, 64
5, 5760, Note_on_c, 1, 40, 64
5, 5760, Note_on_c, 1, 56, 64
5, 5766, Control_c, 1, 64, 127
5, 5808, Note_on_c, 1, 56, 0
5, 5808, Note_on_c, 1, 68, 64
5, 5856, Note_on_c, 1, 68, 0
5, 5856, Note_on_c, 1, 40, 0
5, 5856, Note_on_c, 1, 52, 0
5, 5856, Note_on_c, 1, 40, 64
5, 5856, Note_on_c, 1, 68, 64
5, 5856, Note_on_c, 1, 64, 64
5, 5856, Note_on_c, 1, 59, 64
5, 5904, Note_on_c, 1, 59, 0
5, 5904, Note_on_c, 1, 64, 0
5, 5904, Note_on_c, 1, 68, 0
5, 5904, Note_on_c, 1, 68, 64
5, 5952, Note_on_c, 1, 40, 0
5, 5952, Note_on_c, 1, 56, 64
5, 5952, Note_on_c, 1, 44, 64
5, 5952, Note_on_c, 1, 59, 64
5, 5952, Note_on_c, 1, 63, 64
5, 5976, Note_on_c, 1, 63, 0
5, 5976, Note_on_c, 1, 68, 0
5, 5976, Note_on_c, 1, 59, 0
5, 5976, Note_on_c, 1, 68, 64
5, 6000, Note_on_c, 1, 68, 0
5, 6000, Note_on_c, 1, 68, 64
5, 6048, Note_on_c, 1, 68, 0
5, 6048, Note_on_c, 1, 44, 0
5, 6048, Note_on_c, 1, 56, 0
5, 6048, Note_on_c, 1, 44, 64
5, 6048, Note_on_c, 1, 32, 64
5, 6048, Note_on_c, 1, 68, 64
5, 6048, Note_on_c, 1, 59, 64
5, 6048, Note_on_c, 1, 63, 64
5, 6096, Note_on_c, 1, 63, 0
5, 6096, Note_on_c, 1, 68, 0
5, 6096, Note_on_c, 1, 59, 0
5, 6096, Note_on_c, 1, 66, 64
5, 6120, Note_on_c, 1, 32, 0
5, 6120, Note_on_c, 1, 44, 0
5, 6120, Note_on_c, 1, 47, 64
5, 6120, Note_on_c, 1, 35, 64
5, 6126, Control_c, 1, 64, 0
5, 6144, Note_on_c, 1, 35, 0
5, 6144, Note_on_c, 1, 47, 0
5, 6144, Note_on_c, 1, 66, 0
5, 6144, Control_c, 1, 64, 127
5, 6144, Note_on_c, 1, 35, 64
5, 6144, Note_on_c, 1, 47, 64
5, 6144, Note_on_c, 1, 59, 64
5, 6144, Note_on_c, 1, 66, 64
5, 6144, Note_on_c, 1, 63, 64
5, 6145, Note_on_c, 1, 66, 0
5, 6145, Note_on_c, 1, 47, 0
5, 6145, Note_on_c, 1, 35, 0
5, 6216, Note_on_c, 1, 59, 0
5, 6216, Note_on_c, 1, 63, 0
5, 6216, Note_on_c, 1, 54, 64
5, 6216, Note_on_c, 1, 59, 64
5, 6216, Note_on_c, 1, 61, 64
5, 6240, Note_on_c, 1, 35, 64
5, 6240, Note_on_c, 1, 47, 64
5, 6264, Note_on_c, 1, 61, 0
5, 6264, Note_on_c, 1, 54, 0
5, 6264, Note_on_c, 1, 59, 0
5, 6264, Note_on_c, 1, 54, 64
5, 6264, Note_on_c, 1, 59, 64
5, 6264, Note_on_c, 1, 63, 64
5, 6336, Note_on_c, 1, 63, 0
5, 6336, Note_on_c, 1, 54, 0
5, 6336, Note_on_c, 1, 47, 0
5, 6336, Note_on_c, 1, 35, 0
5, 6336, Note_on_c, 1, 59, 0
5, 6336, Note_on_c, 1, 35, 64
5, 6336, Note_on_c, 1, 47, 64
5, 6336, Note_on_c, 1, 56, 64
5, 6336, Note_on_c, 1, 64, 64
5, 6336, Note_on_c, 1, 59, 64
5, 6384, Note_on_c, 1, 59, 0
5, 6384, Note_on_c, 1, 56, 0
5, 6384, Note_on_c, 1, 64, 0
5, 6384, Note_on_c, 1, 56, 64
5, 6384, Note_on_c, 1, 59, 64
5, 6384, Note_on_c, 1, 64, 64
5, 6408, Note_on_c, 1, 64, 0
5, 6408, Note_on_c, 1, 56, 0
5, 6408, Note_on_c, 1, 59, 0
5, 6408, Note_on_c, 1, 56, 64
5, 6408, Note_on_c, 1, 59, 64
5, 6408, Note_on_c, 1, 64, 64
5, 6432, Note_on_c, 1, 47, 0
5, 6432, Note_on_c, 1, 35, 0
5, 6432, Note_on_c, 1, 35, 64
5, 6432, Note_on_c, 1, 47, 64
5, 6456, Note_on_c, 1, 59, 0
5, 6456, Note_on_c, 1, 64, 0
5, 6456, Note_on_c, 1, 56, 0
5, 6456, Note_on_c, 1, 63, 64
5, 6456, Note_on_c, 1, 54, 64
5, 6456, Note_on_c, 1, 59, 64
5, 6498, Control_c, 1, 64, 0
5, 6504, Note_on_c, 1, 59, 0
5, 6504, Note_on_c, 1, 63, 0
5, 6504, Note_on_c, 1, 54, 0
5, 6504, Note_on_c, 1, 59, 64
5, 6522, Control_c, 1, 64, 127
5, 6528, Note_on_c, 1, 59, 0
5, 6528, Note_on_c, 1, 35, 0
5, 6528, Note_on_c, 1, 47, 0
5, 6528, Note_on_c, 1, 52, 64
5, 6528, Note_on_c, 1, 40, 64
5, 6528, Note_on_c, 1, 59, 64
5, 6528, Note_on_c, 1, 68, 64
5, 6528, Note_on_c, 1, 64, 64
5, 6529, Note_on_c, 1, 59, 0
5, 6576, Note_on_c, 1, 68, 0
5, 6576, Note_on_c, 1, 64, 0
5, 6576, Note_on_c, 1, 68, 64
5, 6600, Note_on_c, 1, 68, 0
5, 6600, Note_on_c, 1, 68, 64
5, 6624, Note_on_c, 1, 68, 0
5, 6624, Note_on_c, 1, 40, 0
5, 6624, Note_on_c, 1, 52, 0
5, 6624, Note_on_c, 1, 40, 64
5, 6624, Note_on_c, 1, 59, 64
5, 6624, Note_on_c, 1, 68, 64
5, 6624, Note_on_c, 1, 64, 64
5, 6672, Note_on_c, 1, 64, 0
5, 6672, Note_on_c, 1, 68, 0
5, 6672, Note_on_c, 1, 59, 0
5, 6672, Note_on_c, 1, 68, 64
5, 6696, Note_on_c, 1, 68, 0
5, 6696, Note_on_c, 1, 68, 64
5, 6720, Note_on_c, 1, 68, 0
5, 6720, Note_on_c, 1, 40, 0
5, 6720, Note_on_c, 1, 44, 64
5, 6720, Note_on_c, 1, 56, 64
5, 6720, Note_on_c, 1, 59, 64
5, 6720, Note_on_c, 1, 68, 64
5, 6720, Note_on_c, 1, 63, 64
5, 6744, Note_on_c, 1, 63, 0
5, 6744, Note_on_c, 1, 59, 0
5, 6744, Note_on_c, 1, 68, 0
5, 6744, Note_on_c, 1, 68, 64
5, 6792, Note_on_c, 1, 68, 0
5, 6792, Note_on_c, 1, 68, 64
5, 6816, Note_on_c, 1, 56, 0
5, 6816, Note_on_c, 1, 44, 0
5, 6816, Note_on_c, 1, 44, 64
5, 6816, Note_on_c, 1, 32, 64
5, 6840, Note_on_c, 1, 68, 0
5, 6840, Note_on_c, 1, 66, 64
5, 6864, Note_on_c, 1, 66, 0
5, 6864, Note_on_c, 1, 66, 64
5, 6888, Note_on_c, 1, 66, 0
5, 6888, Note_on_c, 1, 66, 64
5, 6894, Control_c, 1, 64, 0
5, 6912, Note_on_c, 1, 66, 0
5, 6912, Note_on_c, 1, 32, 0
5, 6912, Note_on_c, 1, 44, 0
5, 6912, Control_c, 1, 64, 127
5, 6912, Note_on_c, 1, 35, 64
5, 6912, Note_on_c, 1, 47, 64
5, 6912, Note_on_c, 1, 59, 64
5, 6912, Note_on_c, 1, 63, 64
5, 6912, Note_on_c, 1, 66, 64
5, 6960, Note_on_c, 1, 66, 0
5, 6960, Note_on_c, 1, 59, 0
5, 6960, Note_on_c, 1, 63, 0
5, 6960, Note_on_c, 1, 59, 64
5, 6984, Note_on_c, 1, 59, 0
5, 6984, Note_on_c, 1, 54, 64
5, 6984, Note_on_c, 1, 59, 64
5, 7008, Note_on_c, 1, 47, 0
5, 7008, Note_on_c, 1, 35, 0
5, 7008, Note_on_c, 1, 47, 64
5, 7032, Note_on_c, 1, 54, 0
5, 7032, Note_on_c, 1, 59, 0
5, 7032, Note_on_c, 1, 54, 64
5, 7032, Note_on_c, 1, 61, 64
5, 7080, Note_on_c, 1, 61, 0
5, 7080, Note_on_c, 1, 54, 0
5, 7080, Note_on_c, 1, 47, 0
5, 7080, Note_on_c, 1, 35, 64
5, 7080, Note_on_c, 1, 54, 64
5, 7080, Note_on_c, 1, 64, 64
5, 7104, Note_on_c, 1, 35, 0
5, 7104, Note_on_c, 1, 35, 64
5, 7128, Note_on_c, 1, 64, 0
5, 7128, Note_on_c, 1, 54, 0
5, 7128, Note_on_c, 1, 54, 64
5, 7128, Note_on_c, 1, 63, 64
5, 7176, Note_on_c, 1, 63, 0
5, 7176, Note_on_c, 1, 54, 0
5, 7176, Note_on_c, 1, 54, 64
5, 7176, Note_on_c, 1, 61, 64
5, 7200, Note_on_c, 1, 61, 0
5, 7200, Note_on_c, 1, 54, 0
5, 7200, Note_on_c, 1, 35, 0
5, 7200, Note_on_c, 1, 35, 64
5, 7200, Note_on_c, 1, 47, 64
5, 7200, Note_on_c, 1, 54, 64
5, 7200, Note_on_c, 1, 63, 64
5, 7248, Note_on_c, 1, 63, 0
5, 7248, Note_on_c, 1, 54, 0
5, 7248, Note_on_c, 1, 54, 64
5, 7248, Note_on_c, 1, 63, 64
5, 7248, Note_on_c, 1, 59, 64
5, 7272, Control_c, 1, 64, 0
5, 7296, Note_on_c, 1, 59, 0
5, 7296, Note_on_c, 1, 54, 0
5, 7296, Note_on_c, 1, 35, 0
5, 7296, Note_on_c, 1, 47, 0
5, 7296, Note_on_c, 1, 63, 0
5, 7296, Control_c, 1, 64, 127
5, 7296, Note_on_c, 1, 42, 64
5, 7296, Note_on_c, 1, 58, 64
5, 7296, Note_on_c, 1, 54, 64
5, 7296, Note_on_c, 1, 61, 64
5, 7392, Note_on_c, 1, 42, 0
5, 7392, Note_on_c, 1, 42, 64
5, 7440, Note_on_c, 1, 58, 0
5, 7440, Note_on_c, 1, 61, 0
5, 7440, Note_on_c, 1, 54, 0
5, 7440, Note_on_c, 1, 63, 64
5, 7464, Note_on_c, 1, 63, 0
5, 7464, Note_on_c, 1, 66, 64
5, 7488, Note_on_c, 1, 66, 0
5, 7488, Note_on_c, 1, 42, 0
5, 7488, Note_on_c, 1, 39, 64
5, 7488, Note_on_c, 1, 58, 64
5, 7488, Note_on_c, 1, 63, 64
5, 7488, Note_on_c, 1, 66, 64
5, 7584, Note_on_c, 1, 39, 0
5, 7584, Note_on_c, 1, 51, 64
5, 7632, Note_on_c, 1, 58, 0
5, 7632, Note_on_c, 1, 66, 0
5, 7632, Note_on_c, 1, 63, 0
5, 7632, Note_on_c, 1, 63, 64
5, 7662, Control_c, 1, 64, 0
5, 7680, Note_on_c, 1, 63, 0
5, 7680, Note_on_c, 1, 51, 0
5, 7680, Control_c, 1, 64, 127
5, 7680, Note_on_c, 1, 42, 64
5, 7680, Note_on_c, 1, 58, 64
5, 7680, Note_on_c, 1, 54, 64
5, 7680, Note_on_c, 1, 61, 64
5, 7776, Note_on_c, 1, 61, 0
5, 7776, Note_on_c, 1, 42, 0
5, 7776, Note_on_c, 1, 58, 0
5, 7776, Note_on_c, 1, 54, 0
5, 7776, Note_on_c, 1, 54, 64
5, 7776, Note_on_c, 1, 58, 64
5, 7776, Note_on_c, 1, 66, 64
5, 7776, Note_on_c, 1, 61, 64
5, 7848, Note_on_c, 1, 61, 0
5, 7848, Note_on_c, 1, 54, 0
5, 7848, Note_on_c, 1, 58, 0
5, 7848, Note_on_c, 1, 66, 0
5, 7848, Note_on_c, 1, 42, 64
5, 7848, Note_on_c, 1, 58, 64
5, 7848, Note_on_c, 1, 66, 64
5, 7872, Note_on_c, 1, 42, 0
5, 7872, Note_on_c, 1, 42, 64
5, 7896, Note_on_c, 1, 66, 0
5, 7896, Note_on_c, 1, 58, 0
5, 7896, Note_on_c, 1, 59, 64
5, 7920, Note_on_c, 1, 59, 0
5, 7920, Note_on_c, 1, 61, 64
5, 7920, Note_on_c, 1, 66, 64
5, 7968, Note_on_c, 1, 66, 0
5, 7968, Note_on_c, 1, 61, 0
5, 7968, Note_on_c, 1, 42, 0
5, 7968, Note_on_c, 1, 42, 64
5, 7968, Note_on_c, 1, 61, 64
5, 8016, Note_on_c, 1, 61, 0
5, 8016, Note_on_c, 1, 63, 64
5, 8046, Control_c, 1, 64, 0
5, 8058, Control_c, 1, 64, 127
5, 8064, Note_on_c, 1, 63, 0
5, 8064, Note_on_c, 1, 42, 0
5, 8064, Note_on_c, 1, 61, 64
5, 8064, Note_on_c, 1, 49, 64
5, 8064, Note_on_c, 1, 56, 64
5, 8064, Note_on_c, 1, 61, 64
5, 8064, Note_on_c, 1, 64, 64
5, 8160, Note_on_c, 1, 64, 0
5, 8160, Note_on_c, 1, 56, 0
5, 8160, Note_on_c, 1, 61, 0
5, 8160, Note_on_c, 1, 61, 0
5, 8160, Note_on_c, 1, 56, 64
5, 8160, Note_on_c, 1, 61, 64
5, 8160, Note_on_c, 1, 64, 64
5, 8256, Note_on_c, 1, 64, 0
5, 8256, Note_on_c, 1, 49, 0
5, 8256, Note_on_c, 1, 56, 0
5, 8256, Note_on_c, 1, 61, 0
5, 8256, Note_on_c, 1, 49, 64
5, 8256, Note_on_c, 1, 56, 64
5, 8256, Note_on_c, 1, 61, 64
5, 8256, Note_on_c, 1, 64, 64
5, 8328, Note_on_c, 1, 64, 0
5, 8328, Note_on_c, 1, 61, 0
5, 8328, Note_on_c, 1, 56, 0
5, 8328, Note_on_c, 1, 56, 64
5, 8328, Note_on_c, 1, 61, 64
5, 8328, Note_on_c, 1, 64, 64
5, 8376, Note_on_c, 1, 64, 0
5, 8376, Note_on_c, 1, 49, 0
5, 8376, Note_on_c, 1, 56, 0
5, 8376, Note_on_c, 1, 61, 0
5, 8376, Note_on_c, 1, 51, 64
5, 8376, Note_on_c, 1, 54, 64
5, 8376, Note_on_c, 1, 63, 64
5, 8376, Note_on_c, 1, 59, 64
5, 8418, Control_c, 1, 64, 0
5, 8442, Control_c, 1, 64, 127
5, 8448, Note_on_c, 1, 59, 0
5, 8448, Note_on_c, 1, 51, 0
5, 8448, Note_on_c, 1, 54, 0
5, 8448, Note_on_c, 1, 63, 0
5, 8448, Note_on_c, 1, 52, 64
5, 8448, Note_on_c, 1, 40, 64
5, 8448, Note_on_c, 1, 64, 64
5, 8448, Note_on_c, 1, 56, 64
5, 8448, Note_on_c, 1, 59, 64
5, 8820, Control_c, 1, 64, 0
5, 8832, Note_on_c, 1, 59, 0
5, 8832, Note_on_c, 1, 64, 0
5, 8832, Note_on_c, 1, 52, 0
5, 8832, Note_on_c, 1, 40, 0
5, 8832, Note_on_c, 1, 56, 0
5, 8832, Control_c, 1, 64, 127
5, 8832, Note_on_c, 1, 47, 64
5, 8832, Note_on_c, 1, 59, 64
5, 8880, Note_on_c, 1, 59, 64
5, 8880, Note_on_c, 1, 63, 64
5, 8928, Note_on_c, 1, 59, 0
5, 8928, Note_on_c, 1, 47, 0
5, 8928, Note_on_c, 1, 59, 0
5, 8928, Note_on_c, 1, 66, 64
5, 8952, Note_on_c, 1, 63, 0
5, 8952, Note_on_c, 1, 61, 64
5, 9000, Note_on_c, 1, 66, 0
5, 9000, Note_on_c, 1, 59, 64
5, 9024, Note_on_c, 1, 59, 0
5, 9024, Note_on_c, 1, 61, 0
5, 9024, Note_on_c, 1, 59, 64
5, 9024, Note_on_c, 1, 59, 64
5, 9024, Note_on_c, 1, 64, 64
5, 9096, Note_on_c, 1, 64, 0
5, 9096, Note_on_c, 1, 59, 0
5, 9096, Note_on_c, 1, 59, 0
5, 9096, Note_on_c, 1, 59, 64
5, 9096, Note_on_c, 1, 63, 64
5, 9120, Note_on_c, 1, 59, 0
5, 9120, Note_on_c, 1, 47, 64
5, 9120, Note_on_c, 1, 59, 64
5, 9144, Note_on_c, 1, 59, 0
5, 9144, Note_on_c, 1, 63, 0
5, 9144, Note_on_c, 1, 59, 64
5, 9168, Note_on_c, 1, 59, 0
5, 9168, Note_on_c, 1, 61, 64
5, 9192, Note_on_c, 1, 61, 0
5, 9192, Note_on_c, 1, 63, 64
5, 9198, Control_c, 1, 64, 0
5, 9216, Note_on_c, 1, 63, 0
5, 9216, Note_on_c, 1, 47, 0
5, 9216, Control_c, 1, 64, 127
5, 9216, Note_on_c, 1, 56, 64
5, 9216, Note_on_c, 1, 44, 64
5, 9264, Note_on_c, 1, 59, 64
5, 9264, Note_on_c, 1, 63, 64
5, 9312, Note_on_c, 1, 44, 0
5, 9312, Note_on_c, 1, 56, 0
5, 9312, Note_on_c, 1, 56, 64
5, 9336, Note_on_c, 1, 59, 0
5, 9336, Note_on_c, 1, 63, 0
5, 9336, Note_on_c, 1, 61, 64
5, 9384, Note_on_c, 1, 56, 0
5, 9384, Note_on_c, 1, 44, 64
5, 9408, Note_on_c, 1, 44, 0
5, 9408, Note_on_c, 1, 61, 0
5, 9408, Note_on_c, 1, 44, 64
5, 9408, Note_on_c, 1, 59, 64
5, 9408, Note_on_c, 1, 64, 64
5, 9480, Note_on_c, 1, 64, 0
5, 9480, Note_on_c, 1, 59, 0
5, 9480, Note_on_c, 1, 63, 64
5, 9480, Note_on_c, 1, 59, 64
5, 9504, Note_on_c, 1, 44, 0
5, 9504, Note_on_c, 1, 56, 64
5, 9504, Note_on_c, 1, 44, 64
5, 9528, Note_on_c, 1, 59, 0
5, 9528, Note_on_c, 1, 63, 0
5, 9528, Note_on_c, 1, 59, 64
5, 9552, Note_on_c, 1, 59, 0
5, 9552, Note_on_c, 1, 61, 64
5, 9576, Note_on_c, 1, 61, 0
5, 9576, Note_on_c, 1, 63, 64
5, 9582, Control_c, 1, 64, 0
5, 9600, Note_on_c, 1, 63, 0
5, 9600, Note_on_c, 1, 56, 0
5, 9600, Note_on_c, 1, 44, 0
5, 9600, Control_c, 1, 64, 127
5, 9600, Note_on_c, 1, 54, 64
5, 9600, Note_on_c, 1, 42, 64
5, 9648, Note_on_c, 1, 59, 64
5, 9648, Note_on_c, 1, 63, 64
5, 9696, Note_on_c, 1, 42, 0
5, 9696, Note_on_c, 1, 54, 0
5, 9696, Note_on_c, 1, 54, 64
5, 9720, Note_on_c, 1, 59, 0
5, 9720, Note_on_c, 1, 63, 0
5, 9720, Note_on_c, 1, 61, 64
5, 9768, Note_on_c, 1, 54, 0
5, 9768, Note_on_c, 1, 42, 64
5, 9792, Note_on_c, 1, 42, 0
5, 9792, Note_on_c, 1, 61, 0
5, 9792, Note_on_c, 1, 42, 64
5, 9792, Note_on_c, 1, 64, 64
5, 9792, Note_on_c, 1, 59, 64
5, 9864, Note_on_c, 1, 59, 0
5, 9864, Note_on_c, 1, 64, 0
5, 9864, Note_on_c, 1, 63, 64
5, 9888, Note_on_c, 1, 42, 0
5, 9888, Note_on_c, 1, 54, 64
5, 9888, Note_on_c, 1, 42, 64
5, 9912, Note_on_c, 1, 63, 0
5, 9912, Note_on_c, 1, 59, 64
5, 9936, Note_on_c, 1, 59, 0
5, 9936, Note_on_c, 1, 54, 64
5, 9972, Control_c, 1, 64, 0
5, 9984, Note_on_c, 1, 54, 0
5, 9984, Note_on_c, 1, 42, 0
5, 9984, Note_on_c, 1, 54, 0
5, 9984, Control_c, 1, 64, 127
5, 9984, Note_on_c, 1, 40, 64
5, 9984, Note_on_c, 1, 28, 64
5, 9984, Note_on_c, 1, 56, 64
5, 9984, Note_on_c, 1, 59, 64
5, 9984, Note_on_c, 1, 64, 64
5, 10350, Control_c, 1, 64, 0
5, 10368, Note_on_c, 1, 64, 0
5, 10368, Note_on_c, 1, 56, 0
5, 10368, Note_on_c, 1, 40, 0
5, 10368, Note_on_c, 1, 28, 0
5, 10368, Note_on_c, 1, 59, 0
5, 10368, Control_c, 1, 64, 127
5, 10368, Note_on_c, 1, 35, 64
5, 10368, Note_on_c, 1, 47, 64
5, 10416, Note_on_c, 1, 59, 64
5, 10416, Note_on_c, 1, 63, 64
5, 10432, Note_on_c, 1, 47, 0
5, 10432, Note_on_c, 1, 35, 0
5, 10464, Note_on_c, 1, 59, 0
5, 10464, Note_on_c, 1, 63, 0
5, 10464, Note_on_c, 1, 54, 64
5, 10488, Note_on_c, 1, 61, 64
5, 10512, Note_on_c, 1, 54, 0
5, 10536, Note_on_c, 1, 61, 0
5, 10536, Note_on_c, 1, 47, 64
5, 10552, Note_on_c, 1, 47, 0
5, 10560, Note_on_c, 1, 47, 64
5, 10560, Note_on_c, 1, 59, 64
5, 10560, Note_on_c, 1, 64, 64
5, 10608, Note_on_c, 1, 64, 0
5, 10608, Note_on_c, 1, 59, 0
5, 10624, Note_on_c, 1, 47, 0
5, 10632, Note_on_c, 1, 59, 64
5, 10632, Note_on_c, 1, 63, 64
5, 10656, Note_on_c, 1, 47, 64
5, 10656, Note_on_c, 1, 35, 64
5, 10712, Note_on_c, 1, 63, 0
5, 10712, Note_on_c, 1, 59, 0
5, 10720, Note_on_c, 1, 47, 0
5, 10720, Note_on_c, 1, 35, 0
5, 10734, Control_c, 1, 64, 0
5, 10746, Control_c, 1, 64, 127
5, 10752, Note_on_c, 1, 44, 64
5, 10752, Note_on_c, 1, 32, 64
5, 10800, Note_on_c, 1, 59, 64
5, 10800, Note_on_c, 1, 63, 64
5, 10816, Note_on_c, 1, 32, 0
5, 10816, Note_on_c, 1, 44, 0
5, 10848, Note_on_c, 1, 59, 0
5, 10848, Note_on_c, 1, 63, 0
5, 10848, Note_on_c, 1, 44, 64
5, 10872, Note_on_c, 1, 61, 64
5, 10896, Note_on_c, 1, 44, 0
5, 10920, Note_on_c, 1, 61, 0
5, 10920, Note_on_c, 1, 32, 64
5, 10936, Note_on_c, 1, 32, 0
5, 10944, Note_on_c, 1, 32, 64
5, 10944, Note_on_c, 1, 64, 64
5, 10944, Note_on_c, 1, 59, 64
5, 10992, Note_on_c, 1, 59, 0
5, 10992, Note_on_c, 1, 64, 0
5, 11008, Note_on_c, 1, 32, 0
5, 11016, Note_on_c, 1, 63, 64
5, 11040, Note_on_c, 1, 44, 64
5, 11048, Note_on_c, 1, 63, 0
5, 11064, Note_on_c, 1, 59, 64
5, 11080, Note_on_c, 1, 59, 0
5, 11088, Note_on_c, 1, 56, 64
5, 11104, Note_on_c, 1, 44, 0
5, 11120, Note_on_c, 1, 56, 0
5, 11124, Control_c, 1, 64, 0
5, 11136, Note_on_c, 1, 28, 64
5, 11136, Note_on_c, 1, 40, 64
5, 11136, Note_on_c, 1, 52, 64
5, 11136, Note_on_c, 1, 56, 64
5, 11142, Control_c, 1, 64, 127
5, 11184, Note_on_c, 1, 56, 0
5, 11184, Note_on_c, 1, 52, 0
5, 11200, Note_on_c, 1, 40, 0
5, 11200, Note_on_c, 1, 28, 0
5, 11208, Note_on_c, 1, 56, 64
5, 11208, Note_on_c, 1, 64, 64
5, 11232, Note_on_c, 1, 40, 64
5, 11232, Note_on_c, 1, 28, 64
5, 11256, Note_on_c, 1, 64, 0
5, 11256, Note_on_c, 1, 56, 0
5, 11264, Note_on_c, 1, 40, 0
5, 11264, Note_on_c, 1, 28, 0
5, 11280, Note_on_c, 1, 40, 64
5, 11280, Note_on_c, 1, 28, 64
5, 11280, Note_on_c, 1, 64, 64
5, 11280, Note_on_c, 1, 59, 64
5, 11312, Note_on_c, 1, 59, 0
5, 11312, Note_on_c, 1, 64, 0
5, 11440, Note_on_c, 1, 28, 0
5, 11440, Note_on_c, 1, 40, 0
5, 11514, Control_c, 1, 64, 0
5, 11520, Note_on_c, 1, 35, 64
5, 11520, Note_on_c, 1, 47, 64
5, 11526, Control_c, 1, 64, 127
5, 11568, Note_on_c, 1, 59, 64
5, 11568, Note_on_c, 1, 63, 64
5, 11616, Note_on_c, 1, 63, 0
5, 11616, Note_on_c, 1, 35, 0
5, 11616, Note_on_c, 1, 47, 0
5, 11616, Note_on_c, 1, 59, 0
5, 11616, Note_on_c, 1, 54, 64
5, 11640, Note_on_c, 1, 61, 64
5, 11688, Note_on_c, 1, 61, 0
5, 11688, Note_on_c, 1, 54, 0
5, 11688, Note_on_c, 1, 47, 64
5, 11712, Note_on_c, 1, 47, 0
5, 11712, Note_on_c, 1, 47, 64
5, 11712, Note_on_c, 1, 64, 64
5, 11712, Note_on_c, 1, 59, 64
5, 11760, Note_on_c, 1, 59, 0
5, 11760, Note_on_c, 1, 64, 0
5, 11784, Note_on_c, 1, 63, 64
5, 11808, Note_on_c, 1, 47, 0
5, 11808, Note_on_c, 1, 47, 64
5, 11808, Note_on_c, 1, 35, 64
5, 11816, Note_on_c, 1, 63, 0
5, 11832, Note_on_c, 1, 59, 64
5, 11848, Note_on_c, 1, 59, 0
5, 11856, Note_on_c, 1, 61, 64
5, 11856, Note_on_c, 1, 66, 64
5, 11872, Note_on_c, 1, 66, 0
5, 11872, Note_on_c, 1, 61, 0
5, 11880, Note_on_c, 1, 66, 64
5, 11880, Note_on_c, 1, 63, 64
5, 11896, Note_on_c, 1, 63, 0
5, 11896, Note_on_c, 1, 66, 0
5, 11898, Control_c, 1, 64, 0
5, 11904, Note_on_c, 1, 35, 0
5, 11904, Note_on_c, 1, 47, 0
5, 11904, Note_on_c, 1, 47, 64
5, 11904, Note_on_c, 1, 35, 64
5, 11905, Note_on_c, 1, 35, 0
5, 11905, Note_on_c, 1, 47, 0
5, 11910, Control_c, 1, 64, 127
5, 11952, Note_on_c, 1, 59, 64
5, 11952, Note_on_c, 1, 63, 64
5, 12000, Note_on_c, 1, 54, 64
5, 12024, Note_on_c, 1, 63, 0
5, 12024, Note_on_c, 1, 59, 0
5, 12024, Note_on_c, 1, 61, 64
5, 12072, Note_on_c, 1, 54, 0
5, 12072, Note_on_c, 1, 47, 64
5, 12096, Note_on_c, 1, 47, 0
5, 12096, Note_on_c, 1, 61, 0
5, 12096, Note_on_c, 1, 47, 64
5, 12096, Note_on_c, 1, 59, 64
5, 12096, Note_on_c, 1, 64, 64
5, 12168, Note_on_c, 1, 64, 0
5, 12168, Note_on_c, 1, 59, 0
5, 12168, Note_on_c, 1, 63, 64
5, 12192, Note_on_c, 1, 47, 0
5, 12192, Note_on_c, 1, 47, 64
5, 12192, Note_on_c, 1, 35, 64
5, 12216, Note_on_c, 1, 63, 0
5, 12216, Note_on_c, 1, 63, 64
5, 12240, Note_on_c, 1, 63, 0
5, 12240, Note_on_c, 1, 54, 64
5, 12276, Control_c, 1, 64, 0
5, 12288, Note_on_c, 1, 54, 0
5, 12288, Note_on_c, 1, 35, 0
5, 12288, Note_on_c, 1, 47, 0
5, 12288, Control_c, 1, 64, 127
5, 12288, Note_on_c, 1, 47, 64
5, 12288, Note_on_c, 1, 35, 64
5, 12336, Note_on_c, 1, 59, 64
5, 12336, Note_on_c, 1, 63, 64
5, 12384, Note_on_c, 1, 35, 0
5, 12384, Note_on_c, 1, 47, 0
5, 12384, Note_on_c, 1, 54, 64
5, 12408, Note_on_c, 1, 59, 0
5, 12408, Note_on_c, 1, 63, 0
5, 12408, Note_on_c, 1, 61, 64
5, 12456, Note_on_c, 1, 54, 0
5, 12456, Note_on_c, 1, 47, 64
5, 12480, Note_on_c, 1, 47, 0
5, 12480, Note_on_c, 1, 61, 0
5, 12480, Note_on_c, 1, 47, 64
5, 12480, Note_on_c, 1, 59, 64
5, 12480, Note_on_c, 1, 64, 64
5, 12552, Note_on_c, 1, 64, 0
5, 12552, Note_on_c, 1, 59, 0
5, 12552, Note_on_c, 1, 63, 64
5, 12576, Note_on_c, 1, 47, 0
5, 12576, Note_on_c, 1, 47, 64
5, 12576, Note_on_c, 1, 35, 64
5, 12600, Note_on_c, 1, 63, 0
5, 12600, Note_on_c, 1, 59, 64
5, 12624, Note_on_c, 1, 59, 0
5, 12624, Note_on_c, 1, 61, 64
5, 12648, Note_on_c, 1, 61, 0
5, 12648, Note_on_c, 1, 63, 64
5, 12666, Control_c, 1, 64, 0
5, 12672, Note_on_c, 1, 63, 0
5, 12672, Note_on_c, 1, 35, 0
5, 12672, Note_on_c, 1, 47, 0
5, 12672, Control_c, 1, 64, 127
5, 12672, Note_on_c, 1, 44, 64
5, 12672, Note_on_c, 1, 32, 64
5, 12720, Note_on_c, 1, 59, 64
5, 12720, Note_on_c, 1, 63, 64
5, 12768, Note_on_c, 1, 32, 0
5, 12768, Note_on_c, 1, 44, 0
5, 12768, Note_on_c, 1, 44, 64
5, 12792, Note_on_c, 1, 59, 0
5, 12792, Note_on_c, 1, 63, 0
5, 12792, Note_on_c, 1, 61, 64
5, 12840, Note_on_c, 1, 44, 0
5, 12840, Note_on_c, 1, 32, 64
5, 12864, Note_on_c, 1, 32, 0
5, 12864, Note_on_c, 1, 61, 0
5, 12864, Note_on_c, 1, 32, 64
5, 12864, Note_on_c, 1, 59, 64
5, 12864, Note_on_c, 1, 64, 64
5, 12936, Note_on_c, 1, 64, 0
5, 12936, Note_on_c, 1, 59, 0
5, 12936, Note_on_c, 1, 63, 64
5, 12960, Note_on_c, 1, 32, 0
5, 12960, Note_on_c, 1, 44, 64
5, 12960, Note_on_c, 1, 32, 64
5, 12984, Note_on_c, 1, 63, 0
5, 12984, Note_on_c, 1, 59, 64
5, 13008, Note_on_c, 1, 59, 0
5, 13008, Note_on_c, 1, 56, 64
5, 13038, Control_c, 1, 64, 0
5, 13056, Note_on_c, 1, 56, 0
5, 13056, Note_on_c, 1, 32, 0
5, 13056, Note_on_c, 1, 44, 0
5, 13056, Control_c, 1, 64, 127
5, 13056, Note_on_c, 1, 40, 64
5, 13056, Note_on_c, 1, 28, 64
5, 13056, Note_on_c, 1, 52, 64
5, 13056, Note_on_c, 1, 56, 64
5, 13128, Note_on_c, 1, 56, 0
5, 13128, Note_on_c, 1, 52, 0
5, 13128, Note_on_c, 1, 56, 64
5, 13128, Note_on_c, 1, 64, 64
5, 13152, Note_on_c, 1, 28, 0
5, 13152, Note_on_c, 1, 40, 0
5, 13152, Note_on_c, 1, 40, 64
5, 13152, Note_on_c, 1, 28, 64
5, 13200, Note_on_c, 1, 28, 0
5, 13200, Note_on_c, 1, 64, 0
5, 13200, Note_on_c, 1, 56, 0
5, 13200, Note_on_c, 1, 40, 0
5, 13200, Note_on_c, 1, 28, 64
5, 13200, Note_on_c, 1, 40, 64
5, 13200, Note_on_c, 1, 64, 64
5, 13200, Note_on_c, 1, 56, 64
5, 13344, Note_on_c, 1, 56, 0
5, 13344, Note_on_c, 1, 64, 0
5, 13344, Note_on_c, 1, 63, 64
5, 13392, Note_on_c, 1, 63, 0
5, 13392, Note_on_c, 1, 64, 64
5, 13416, Control_c, 1, 64, 0
5, 13434, Control_c, 1, 64, 127
5, 13440, Note_on_c, 1, 64, 0
5, 13440, Note_on_c, 1, 40, 0
5, 13440, Note_on_c, 1, 28, 0
5, 13440, Note_on_c, 1, 42, 64
5, 13440, Note_on_c, 1, 30, 64
5, 13440, Note_on_c, 1, 59, 64
5, 13440, Note_on_c, 1, 63, 64
5, 13440, Note_on_c, 1, 68, 64
5, 13512, Note_on_c, 1, 68, 0
5, 13512, Note_on_c, 1, 59, 0
5, 13512, Note_on_c, 1, 63, 0
5, 13512, Note_on_c, 1, 59, 64
5, 13512, Note_on_c, 1, 68, 64
5, 13512, Note_on_c, 1, 63, 64
5, 13536, Note_on_c, 1, 30, 0
5, 13536, Note_on_c, 1, 42, 0
5, 13536, Note_on_c, 1, 42, 64
5, 13536, Note_on_c, 1, 30, 64
5, 13584, Note_on_c, 1, 30, 0
5, 13584, Note_on_c, 1, 68, 0
5, 13584, Note_on_c, 1, 63, 0
5, 13584, Note_on_c, 1, 59, 0
5, 13584, Note_on_c, 1, 42, 0
5, 13584, Note_on_c, 1, 42, 64
5, 13584, Note_on_c, 1, 30, 64
5, 13584, Note_on_c, 1, 58, 64
5, 13584, Note_on_c, 1, 61, 64
5, 13584, Note_on_c, 1, 66, 64
5, 13728, Note_on_c, 1, 66, 0
5, 13728, Note_on_c, 1, 58, 0
5, 13728, Note_on_c, 1, 42, 0
5, 13728, Note_on_c, 1, 30, 0
5, 13728, Note_on_c, 1, 61, 0
5, 13728, Note_on_c, 1, 42, 64
5, 13728, Note_on_c, 1, 58, 64
5, 13728, Note_on_c, 1, 54, 64
5, 13752, Note_on_c, 1, 54, 0
5, 13752, Note_on_c, 1, 58, 0
5, 13752, Note_on_c, 1, 59, 64
5, 13776, Note_on_c, 1, 59, 0
5, 13776, Note_on_c, 1, 61, 64
5, 13794, Control_c, 1, 64, 0
5, 13800, Note_on_c, 1, 61, 0
5, 13800, Note_on_c, 1, 59, 64
5, 13818, Control_c, 1, 64, 127
5, 13824, Note_on_c, 1, 59, 0
5, 13824, Note_on_c, 1, 42, 0
5, 13824, Note_on_c, 1, 52, 64
5, 13824, Note_on_c, 1, 40, 64
5, 13824, Note_on_c, 1, 59, 64
5, 13824, Note_on_c, 1, 68, 64
5, 13824, Note_on_c, 1, 64, 64
5, 13872, Note_on_c, 1, 64, 0
5, 13872, Note_on_c, 1, 59, 0
5, 13872, Note_on_c, 1, 68, 0
5, 13872, Note_on_c, 1, 68, 64
5, 13896, Note_on_c, 1, 68, 0
5, 13896, Note_on_c, 1, 68, 64
5, 13920, Note_on_c, 1, 68, 0
5, 13920, Note_on_c, 1, 59, 64
5, 13920, Note_on_c, 1, 64, 64
5, 13920, Note_on_c, 1, 68, 64
5, 13968, Note_on_c, 1, 68, 0
5, 13968, Note_on_c, 1, 59, 0
5, 13968, Note_on_c, 1, 64, 0
5, 13968, Note_on_c, 1, 68, 64
5, 13992, Note_on_c, 1, 68, 0
5, 13992, Note_on_c, 1, 68, 64
5, 14016, Note_on_c, 1, 68, 0
5, 14016, Note_on_c, 1, 40, 0
5, 14016, Note_on_c, 1, 52, 0
5, 14016, Note_on_c, 1, 56, 64
5, 14016, Note_on_c, 1, 44, 64
5, 14016, Note_on_c, 1, 68, 64
5, 14016, Note_on_c, 1, 59, 64
5, 14016, Note_on_c, 1, 63, 64
5, 14040, Note_on_c, 1, 63, 0
5, 14040, Note_on_c, 1, 68, 0
5, 14040, Note_on_c, 1, 59, 0
5, 14040, Note_on_c, 1, 68, 64
5, 14088, Note_on_c, 1, 68, 0
5, 14088, Note_on_c, 1, 68, 64
5, 14112, Note_on_c, 1, 68, 0
5, 14112, Note_on_c, 1, 44, 0
5, 14112, Note_on_c, 1, 56, 0
5, 14112, Note_on_c, 1, 44, 64
5, 14112, Note_on_c, 1, 32, 64
5, 14112, Note_on_c, 1, 59, 64
5, 14112, Note_on_c, 1, 68, 64
5, 14112, Note_on_c, 1, 63, 64
5, 14160, Note_on_c, 1, 63, 0
5, 14160, Note_on_c, 1, 59, 0
5, 14160, Note_on_c, 1, 68, 0
5, 14160, Note_on_c, 1, 66, 64
5, 14178, Control_c, 1, 64, 0
5, 14184, Note_on_c, 1, 66, 0
5, 14184, Note_on_c, 1, 32, 0
5, 14184, Note_on_c, 1, 44, 0
5, 14184, Note_on_c, 1, 35, 64
5, 14184, Note_on_c, 1, 47, 64
5, 14184, Note_on_c, 1, 66, 64
5, 14202, Control_c, 1, 64, 127
5, 14208, Note_on_c, 1, 47, 0
5, 14208, Note_on_c, 1, 35, 0
5, 14208, Note_on_c, 1, 47, 64
5, 14208, Note_on_c, 1, 35, 64
5, 14208, Note_on_c, 1, 59, 64
5, 14208, Note_on_c, 1, 63, 64
5, 14208, Note_on_c, 1, 66, 64
5, 14232, Note_on_c, 1, 66, 0
5, 14232, Note_on_c, 1, 59, 0
5, 14232, Note_on_c, 1, 66, 0
5, 14232, Note_on_c, 1, 63, 0
5, 14232, Note_on_c, 1, 66, 64
5, 14233, Note_on_c, 1, 66, 0
5, 14304, Note_on_c, 1, 47, 0
5, 14304, Note_on_c, 1, 35, 0
5, 14304, Note_on_c, 1, 47, 64
5, 14304, Note_on_c, 1, 35, 64
5, 14304, Note_on_c, 1, 54, 64
5, 14304, Note_on_c, 1, 59, 64
5, 14328, Note_on_c, 1, 59, 0
5, 14328, Note_on_c, 1, 54, 0
5, 14328, Note_on_c, 1, 61, 64
5, 14328, Note_on_c, 1, 54, 64
5, 14376, Note_on_c, 1, 54, 0
5, 14376, Note_on_c, 1, 61, 0
5, 14376, Note_on_c, 1, 54, 64
5, 14376, Note_on_c, 1, 64, 64
5, 14400, Note_on_c, 1, 35, 0
5, 14400, Note_on_c, 1, 47, 0
5, 14400, Note_on_c, 1, 35, 64
5, 14400, Note_on_c, 1, 47, 64
5, 14424, Note_on_c, 1, 54, 0
5, 14424, Note_on_c, 1, 64, 0
5, 14424, Note_on_c, 1, 63, 64
5, 14424, Note_on_c, 1, 54, 64
5, 14472, Note_on_c, 1, 54, 0
5, 14472, Note_on_c, 1, 63, 0
5, 14472, Note_on_c, 1, 54, 64
5, 14472, Note_on_c, 1, 61, 64
5, 14496, Note_on_c, 1, 61, 0
5, 14496, Note_on_c, 1, 47, 0
5, 14496, Note_on_c, 1, 35, 0
5, 14496, Note_on_c, 1, 54, 0
5, 14496, Note_on_c, 1, 35, 64
5, 14496, Note_on_c, 1, 47, 64
5, 14496, Note_on_c, 1, 63, 64
5, 14496, Note_on_c, 1, 54, 64
5, 14544, Note_on_c, 1, 54, 0
5, 14544, Note_on_c, 1, 63, 0
5, 14544, Note_on_c, 1, 54, 64
5, 14544, Note_on_c, 1, 59, 64
5, 14574, Control_c, 1, 64, 0
5, 14592, Note_on_c, 1, 59, 0
5, 14592, Note_on_c, 1, 35, 0
5, 14592, Note_on_c, 1, 47, 0
5, 14592, Note_on_c, 1, 54, 0
5, 14592, Control_c, 1, 64, 127
5, 14592, Note_on_c, 1, 52, 64
5, 14592, Note_on_c, 1, 40, 64
5, 14592, Note_on_c, 1, 56, 64
5, 14640, Note_on_c, 1, 56, 0
5, 14640, Note_on_c, 1, 68, 64
5, 14688, Note_on_c, 1, 68, 0
5, 14688, Note_on_c, 1, 40, 0
5, 14688, Note_on_c, 1, 52, 0
5, 14688, Note_on_c, 1, 40, 64
5, 14688, Note_on_c, 1, 68, 64
5, 14688, Note_on_c, 1, 64, 64
5, 14688, Note_on_c, 1, 59, 64
5, 14736, Note_on_c, 1, 59, 0
5, 14736, Note_on_c, 1, 64, 0
5, 14736, Note_on_c, 1, 68, 0
5, 14736, Note_on_c, 1, 68, 64
5, 14784, Note_on_c, 1, 40, 0
5, 14784, Note_on_c, 1, 56, 64
5, 14784, Note_on_c, 1, 44, 64
5, 14784, Note_on_c, 1, 59, 64
5, 14784, Note_on_c, 1, 63, 64
5, 14808, Note_on_c, 1, 63, 0
5, 14808, Note_on_c, 1, 68, 0
5, 14808, Note_on_c, 1, 59, 0
5, 14808, Note_on_c, 1, 68, 64
5, 14832, Note_on_c, 1, 68, 0
5, 14832, Note_on_c, 1, 68, 64
5, 14880, Note_on_c, 1, 68, 0
5, 14880, Note_on_c, 1, 44, 0
5, 14880, Note_on_c, 1, 56, 0
5, 14880, Note_on_c, 1, 44, 64
5, 14880, Note_on_c, 1, 32, 64
5, 14880, Note_on_c, 1, 68, 64
5, 14880, Note_on_c, 1, 59, 64
5, 14880, Note_on_c, 1, 63, 64
5, 14928, Note_on_c, 1, 63, 0
5, 14928, Note_on_c, 1, 68, 0
5, 14928, Note_on_c, 1, 59, 0
5, 14928, Note_on_c, 1, 66, 64
5, 14952, Note_on_c, 1, 32, 0
5, 14952, Note_on_c, 1, 44, 0
5, 14952, Control_c, 1, 64, 0
5, 14952, Note_on_c, 1, 47, 64
5, 14952, Note_on_c, 1, 35, 64
5, 14976, Note_on_c, 1, 35, 0
5, 14976, Note_on_c, 1, 47, 0
5, 14976, Note_on_c, 1, 66, 0
5, 14976, Control_c, 1, 64, 127
5, 14976, Note_on_c, 1, 35, 64
5, 14976, Note_on_c, 1, 47, 64
5, 14976, Note_on_c, 1, 59, 64
5, 14976, Note_on_c, 1, 66, 64
5, 14976, Note_on_c, 1, 63, 64
5, 14977, Note_on_c, 1, 66, 0
5, 14977, Note_on_c, 1, 47, 0
5, 14977, Note_on_c, 1, 35, 0
5, 15048, Note_on_c, 1, 59, 0
5, 15048, Note_on_c, 1, 63, 0
5, 15048, Note_on_c, 1, 54, 64
5, 15048, Note_on_c, 1, 59, 64
5, 15048, Note_on_c, 1, 61, 64
5, 15072, Note_on_c, 1, 35, 64
5, 15072, Note_on_c, 1, 47, 64
5, 15096, Note_on_c, 1, 61, 0
5, 15096, Note_on_c, 1, 54, 0
5, 15096, Note_on_c, 1, 59, 0
5, 15096, Note_on_c, 1, 54, 64
5, 15096, Note_on_c, 1, 59, 64
5, 15096, Note_on_c, 1, 63, 64
5, 15168, Note_on_c, 1, 63, 0
5, 15168, Note_on_c, 1, 54, 0
5, 15168, Note_on_c, 1, 47, 0
5, 15168, Note_on_c, 1, 35, 0
5, 15168, Note_on_c, 1, 59, 0
5, 15168, Note_on_c, 1, 35, 64
5, 15168, Note_on_c, 1, 47, 64
5, 15168, Note_on_c, 1, 56, 64
5, 15168, Note_on_c, 1, 64, 64
5, 15168, Note_on_c, 1, 59, 64
5, 15216, Note_on_c, 1, 59, 0
5, 15216, Note_on_c, 1, 56, 0
5, 15216, Note_on_c, 1, 64, 0
5, 15216, Note_on_c, 1, 56, 64
5, 15216, Note_on_c, 1, 59, 64
5, 15216, Note_on_c, 1, 64, 64
5, 15240, Note_on_c, 1, 64, 0
5, 15240, Note_on_c, 1, 56, 0
5, 15240, Note_on_c, 1, 59, 0
5, 15240, Note_on_c, 1, 56, 64
5, 15240, Note_on_c, 1, 59, 64
5, 15240, Note_on_c, 1, 64, 64
5, 15264, Note_on_c, 1, 47, 0
5, 15264, Note_on_c, 1, 35, 0
5, 15264, Note_on_c, 1, 35, 64
5, 15264, Note_on_c, 1, 47, 64
5, 15288, Note_on_c, 1, 59, 0
5, 15288, Note_on_c, 1, 64, 0
5, 15288, Note_on_c, 1, 56, 0
5, 15288, Note_on_c, 1, 63, 64
5, 15288, Note_on_c, 1, 54, 64
5, 15288, Note_on_c, 1, 59, 64
5, 15330, Control_c, 1, 64, 0
5, 15336, Note_on_c, 1, 59, 0
5, 15336, Note_on_c, 1, 63, 0
5, 15336, Note_on_c, 1, 54, 0
5, 15336, Note_on_c, 1, 59, 64
5, 15360, Note_on_c, 1, 59, 0
5, 15360, Note_on_c, 1, 35, 0
5, 15360, Note_on_c, 1, 47, 0
5, 15360, Control_c, 1, 64, 127
5, 15360, Note_on_c, 1, 52, 64
5, 15360, Note_on_c, 1, 40, 64
5, 15360, Note_on_c, 1, 59, 64
5, 15360, Note_on_c, 1, 68, 64
5, 15360, Note_on_c, 1, 64, 64
5, 15361, Note_on_c, 1, 59, 0
5, 15408, Note_on_c, 1, 68, 0
5, 15408, Note_on_c, 1, 64, 0
5, 15408, Note_on_c, 1, 68, 64
5, 15432, Note_on_c, 1, 68, 0
5, 15432, Note_on_c, 1, 68, 64
5, 15456, Note_on_c, 1, 68, 0
5, 15456, Note_on_c, 1, 40, 0
5, 15456, Note_on_c, 1, 52, 0
5, 15456, Note_on_c, 1, 40, 64
5, 15456, Note_on_c, 1, 59, 64
5, 15456, Note_on_c, 1, 68, 64
5, 15456, Note_on_c, 1, 64, 64
5, 15504, Note_on_c, 1, 64, 0
5, 15504, Note_on_c, 1, 68, 0
5, 15504, Note_on_c, 1, 59, 0
5, 15504, Note_on_c, 1, 68, 64
5, 15528, Note_on_c, 1, 68, 0
5, 15528, Note_on_c, 1, 68, 64
5, 15552, Note_on_c, 1, 68, 0
5, 15552, Note_on_c, 1, 40, 0
5, 15552, Note_on_c, 1, 44, 64
5, 15552, Note_on_c, 1, 56, 64
5, 15552, Note_on_c, 1, 59, 64
5, 15552, Note_on_c, 1, 68, 64
5, 15552, Note_on_c, 1, 63, 64
5, 15576, Note_on_c, 1, 63, 0
5, 15576, Note_on_c, 1, 59, 0
5, 15576, Note_on_c, 1, 68, 0
5, 15576, Note_on_c, 1, 68, 64
5, 15624, Note_on_c, 1, 68, 0
5, 15624, Note_on_c, 1, 68, 64
5, 15648, Note_on_c, 1, 56, 0
5, 15648, Note_on_c, 1, 44, 0
5, 15648, Note_on_c, 1, 44, 64
5, 15648, Note_on_c, 1, 32, 64
5, 15672, Note_on_c, 1, 68, 0
5, 15672, Note_on_c, 1, 66, 64
5, 15696, Note_on_c, 1, 66, 0
5, 15696, Note_on_c, 1, 66, 64
5, 15720, Note_on_c, 1, 66, 0
5, 15720, Control_c, 1, 64, 0
5, 15720, Note_on_c, 1, 66, 64
5, 15744, Note_on_c, 1, 66, 0
5, 15744, Note_on_c, 1, 32, 0
5, 15744, Note_on_c, 1, 44, 0
5, 15744, Control_c, 1, 64, 127
5, 15744, Note_on_c, 1, 35, 64
5, 15744, Note_on_c, 1, 47, 64
5, 15744, Note_on_c, 1, 59, 64
5, 15744, Note_on_c, 1, 63, 64
5, 15744, Note_on_c, 1, 66, 64
5, 15792, Note_on_c, 1, 66, 0
5, 15792, Note_on_c, 1, 59, 0
5, 15792, Note_on_c, 1, 63, 0
5, 15792, Note_on_c, 1, 59, 64
5, 15816, Note_on_c, 1, 59, 0
5, 15816, Note_on_c, 1, 54, 64
5, 15816, Note_on_c, 1, 59, 64
5, 15840, Note_on_c, 1, 47, 0
5, 15840, Note_on_c, 1, 35, 0
5, 15840, Note_on_c, 1, 47, 64
5, 15864, Note_on_c, 1, 54, 0
5, 15864, Note_on_c, 1, 59, 0
5, 15864, Note_on_c, 1, 54, 64
5, 15864, Note_on_c, 1, 61, 64
5, 15912, Note_on_c, 1, 61, 0
5, 15912, Note_on_c, 1, 54, 0
5, 15912, Note_on_c, 1, 47, 0
5, 15912, Note_on_c, 1, 35, 64
5, 15912, Note_on_c, 1, 54, 64
5, 15912, Note_on_c, 1, 64, 64
5, 15936, Note_on_c, 1, 35, 0
5, 15936, Note_on_c, 1, 35, 64
5, 15960, Note_on_c, 1, 64, 0
5, 15960, Note_on_c, 1, 54, 0
5, 15960, Note_on_c, 1, 54, 64
5, 15960, Note_on_c, 1, 63, 64
5, 16008, Note_on_c, 1, 63, 0
5, 16008, Note_on_c, 1, 54, 0
5, 16008, Note_on_c, 1, 54, 64
5, 16008, Note_on_c, 1, 61, 64
5, 16032, Note_on_c, 1, 61, 0
5, 16032, Note_on_c, 1, 54, 0
5, 16032, Note_on_c, 1, 35, 0
5, 16032, Note_on_c, 1, 35, 64
5, 16032, Note_on_c, 1, 47, 64
5, 16032, Note_on_c, 1, 54, 64
5, 16032, Note_on_c, 1, 63, 64
5, 16080, Note_on_c, 1, 63, 0
5, 16080, Note_on_c, 1, 54, 0
5, 16080, Note_on_c, 1, 54, 64
5, 16080, Note_on_c, 1, 63, 64
5, 16080, Note_on_c, 1, 59, 64
5, 16098, Control_c, 1, 64, 0
5, 16128, Note_on_c, 1, 59, 0
5, 16128, Note_on_c, 1, 54, 0
5, 16128, Note_on_c, 1, 35, 0
5, 16128, Note_on_c, 1, 47, 0
5, 16128, Note_on_c, 1, 63, 0
5, 16128, Note_on_c, 1, 42, 64
5, 16128, Note_on_c, 1, 58, 64
5, 16128, Note_on_c, 1, 54, 64
5, 16128, Note_on_c, 1, 61, 64
5, 16134, Control_c, 1, 64, 127
5, 16224, Note_on_c, 1, 42, 0
5, 16224, Note_on_c, 1, 42, 64
5, 16272, Note_on_c, 1, 58, 0
5, 16272, Note_on_c, 1, 61, 0
5, 16272, Note_on_c, 1, 54, 0
5, 16272, Note_on_c, 1, 63, 64
5, 16296, Note_on_c, 1, 63, 0
5, 16296, Note_on_c, 1, 66, 64
5, 16320, Note_on_c, 1, 66, 0
5, 16320, Note_on_c, 1, 42, 0
5, 16320, Note_on_c, 1, 39, 64
5, 16320, Note_on_c, 1, 58, 64
5, 16320, Note_on_c, 1, 63, 64
5, 16320, Note_on_c, 1, 66, 64
5, 16416, Note_on_c, 1, 39, 0
5, 16416, Note_on_c, 1, 51, 64
5, 16464, Note_on_c, 1, 58, 0
5, 16464, Note_on_c, 1, 66, 0
5, 16464, Note_on_c, 1, 63, 0
5, 16464, Note_on_c, 1, 63, 64
5, 16494, Control_c, 1, 64, 0
5, 16512, Note_on_c, 1, 63, 0
5, 16512, Note_on_c, 1, 51, 0
5, 16512, Control_c, 1, 64, 127
5, 16512, Note_on_c, 1, 42, 64
5, 16512, Note_on_c, 1, 58, 64
5, 16512, Note_on_c, 1, 54, 64
5, 16512, Note_on_c, 1, 61, 64
5, 16608, Note_on_c, 1, 61, 0
5, 16608, Note_on_c, 1, 42, 0
5, 16608, Note_on_c, 1, 58, 0
5, 16608, Note_on_c, 1, 54, 0
5, 16608, Note_on_c, 1, 54, 64
5, 16608, Note_on_c, 1, 58, 64
5, 16608, Note_on_c, 1, 66, 64
5, 16608, Note_on_c, 1, 61, 64
5, 16680, Note_on_c, 1, 61, 0
5, 16680, Note_on_c, 1, 54, 0
5, 16680, Note_on_c, 1, 58, 0
5, 16680, Note_on_c, 1, 66, 0
5, 16680, Note_on_c, 1, 42, 64
5, 16680, Note_on_c, 1, 58, 64
5, 16680, Note_on_c, 1, 66, 64
5, 16704, Note_on_c, 1, 42, 0
5, 16704, Note_on_c, 1, 42, 64
5, 16728, Note_on_c, 1, 66, 0
5, 16728, Note_on_c, 1, 58, 0
5, 16728, Note_on_c, 1, 59, 64
5, 16752, Note_on_c, 1, 59, 0
5, 16752, Note_on_c, 1, 61, 64
5, 16752, Note_on_c, 1, 66, 64
5, 16800, Note_on_c, 1, 66, 0
5, 16800, Note_on_c, 1, 61, 0
5, 16800, Note_on_c, 1, 42, 0
5, 16800, Note_on_c, 1, 42, 64
5, 16800, Note_on_c, 1, 61, 64
5, 16848, Note_on_c, 1, 61, 0
5, 16848, Note_on_c, 1, 63, 64
5, 16878, Control_c, 1, 64, 0
5, 16896, Note_on_c, 1, 63, 0
5, 16896, Note_on_c, 1, 42, 0
5, 16896, Control_c, 1, 64, 127
5, 16896, Note_on_c, 1, 61, 64
5, 16896, Note_on_c, 1, 49, 64
5, 16896, Note_on_c, 1, 56, 64
5, 16896, Note_on_c, 1, 61, 64
5, 16896, Note_on_c, 1, 64, 64
5, 16992, Note_on_c, 1, 64, 0
5, 16992, Note_on_c, 1, 56, 0
5, 16992, Note_on_c, 1, 61, 0
5, 16992, Note_on_c, 1, 61, 0
5, 16992, Note_on_c, 1, 56, 64
5, 16992, Note_on_c, 1, 61, 64
5, 16992, Note_on_c, 1, 64, 64
5, 17088, Note_on_c, 1, 64, 0
5, 17088, Note_on_c, 1, 49, 0
5, 17088, Note_on_c, 1, 56, 0
5, 17088, Note_on_c, 1, 61, 0
5, 17088, Note_on_c, 1, 49, 64
5, 17088, Note_on_c, 1, 56, 64
5, 17088, Note_on_c, 1, 61, 64
5, 17088, Note_on_c, 1, 64, 64
5, 17160, Note_on_c, 1, 64, 0
5, 17160, Note_on_c, 1, 61, 0
5, 17160, Note_on_c, 1, 56, 0
5, 17160, Note_on_c, 1, 56, 64
5, 17160, Note_on_c, 1, 61, 64
5, 17160, Note_on_c, 1, 64, 64
5, 17208, Note_on_c, 1, 64, 0
5, 17208, Note_on_c, 1, 49, 0
5, 17208, Note_on_c, 1, 56, 0
5, 17208, Note_on_c, 1, 61, 0
5, 17208, Note_on_c, 1, 51, 64
5, 17208, Note_on_c, 1, 54, 64
5, 17208, Note_on_c, 1, 63, 64
5, 17208, Note_on_c, 1, 59, 64
5, 17244, Control_c, 1, 64, 0
5, 17274, Control_c, 1, 64, 127
5, 17280, Note_on_c, 1, 59, 0
5, 17280, Note_on_c, 1, 51, 0
5, 17280, Note_on_c, 1, 54, 0
5, 17280, Note_on_c, 1, 63, 0
5, 17280, Note_on_c, 1, 52, 64
5, 17280, Note_on_c, 1, 40, 64
5, 17280, Note_on_c, 1, 64, 64
5, 17280, Note_on_c, 1, 56, 64
5, 17280, Note_on_c, 1, 59, 64
5, 17640, Control_c, 1, 64, 0
5, 17664, Note_on_c, 1, 59, 0
5, 17664, Note_on_c, 1, 64, 0
5, 17664, Note_on_c, 1, 52, 0
5, 17664, Note_on_c, 1, 40, 0
5, 17664, Note_on_c, 1, 56, 0
5, 17664, Control_c, 1, 64, 127
5, 17664, Note_on_c, 1, 47, 64
5, 17664, Note_on_c, 1, 59, 64
5, 17712, Note_on_c, 1, 59, 64
5, 17712, Note_on_c, 1, 63, 64
5, 17760, Note_on_c, 1, 59, 0
5, 17760, Note_on_c, 1, 47, 0
5, 17760, Note_on_c, 1, 59, 0
5, 17760, Note_on_c, 1, 66, 64
5, 17784, Note_on_c, 1, 63, 0
5, 17784, Note_on_c, 1, 61, 64
5, 17832, Note_on_c, 1, 66, 0
5, 17832, Note_on_c, 1, 59, 64
5, 17856, Note_on_c, 1, 59, 0
5, 17856, Note_on_c, 1, 61, 0
5, 17856, Note_on_c, 1, 59, 64
5, 17856, Note_on_c, 1, 59, 64
5, 17856, Note_on_c, 1, 64, 64
5, 17928, Note_on_c, 1, 64, 0
5, 17928, Note_on_c, 1, 59, 0
5, 17928, Note_on_c, 1, 59, 0
5, 17928, Note_on_c, 1, 59, 64
5, 17928, Note_on_c, 1, 63, 64
5, 17952, Note_on_c, 1, 59, 0
5, 17952, Note_on_c, 1, 47, 64
5, 17952, Note_on_c, 1, 59, 64
5, 17976, Note_on_c, 1, 59, 0
5, 17976, Note_on_c, 1, 63, 0
5, 17976, Note_on_c, 1, 59, 64
5, 18000, Note_on_c, 1, 59, 0
5, 18000, Note_on_c, 1, 61, 64
5, 18024, Note_on_c, 1, 61, 0
5, 18024, Control_c, 1, 64, 0
5, 18024, Note_on_c, 1, 63, 64
5, 18042, Control_c, 1, 64, 127
5, 18048, Note_on_c, 1, 63, 0
5, 18048, Note_on_c, 1, 47, 0
5, 18048, Note_on_c, 1, 56, 64
5, 18048, Note_on_c, 1, 44, 64
5, 18096, Note_on_c, 1, 59, 64
5, 18096, Note_on_c, 1, 63, 64
5, 18144, Note_on_c, 1, 44, 0
5, 18144, Note_on_c, 1, 56, 0
5, 18144, Note_on_c, 1, 56, 64
5, 18168, Note_on_c, 1, 59, 0
5, 18168, Note_on_c, 1, 63, 0
5, 18168, Note_on_c, 1, 61, 64
5, 18216, Note_on_c, 1, 56, 0
5, 18216, Note_on_c, 1, 44, 64
5, 18240, Note_on_c, 1, 44, 0
5, 18240, Note_on_c, 1, 61, 0
5, 18240, Note_on_c, 1, 44, 64
5, 18240, Note_on_c, 1, 59, 64
5, 18240, Note_on_c, 1, 64, 64
5, 18312, Note_on_c, 1, 64, 0
5, 18312, Note_on_c, 1, 59, 0
5, 18312, Note_on_c, 1, 63, 64
5, 18312, Note_on_c, 1, 59, 64
5, 18336, Note_on_c, 1, 44, 0
5, 18336, Note_on_c, 1, 56, 64
5, 18336, Note_on_c, 1, 44, 64
5, 18360, Note_on_c, 1, 59, 0
5, 18360, Note_on_c, 1, 63, 0
5, 18360, Note_on_c, 1, 59, 64
5, 18384, Note_on_c, 1, 59, 0
5, 18384, Note_on_c, 1, 61, 64
5, 18408, Note_on_c, 1, 61, 0
5, 18408, Control_c, 1, 64, 0
5, 18408, Note_on_c, 1, 63, 64
5, 18432, Note_on_c, 1, 63, 0
5, 18432, Note_on_c, 1, 56, 0
5, 18432, Note_on_c, 1, 44, 0
5, 18432, Control_c, 1, 64, 127
5, 18432, Note_on_c, 1, 54, 64
5, 18432, Note_on_c, 1, 42, 64
5, 18480, Note_on_c, 1, 59, 64
5, 18480, Note_on_c, 1, 63, 64
5, 18528, Note_on_c, 1, 42, 0
5, 18528, Note_on_c, 1, 54, 0
5, 18528, Note_on_c, 1, 54, 64
5, 18552, Note_on_c, 1, 59, 0
5, 18552, Note_on_c, 1, 63, 0
5, 18552, Note_on_c, 1, 61, 64
5, 18600, Note_on_c, 1, 54, 0
5, 18600, Note_on_c, 1, 42, 64
5, 18624, Note_on_c, 1, 42, 0
5, 18624, Note_on_c, 1, 61, 0
5, 18624, Note_on_c, 1, 42, 64
5, 18624, Note_on_c, 1, 64, 64
5, 18624, Note_on_c, 1, 59, 64
5, 18696, Note_on_c, 1, 59, 0
5, 18696, Note_on_c, 1, 64, 0
5, 18696, Note_on_c, 1, 63, 64
5, 18720, Note_on_c, 1, 42, 0
5, 18720, Note_on_c, 1, 54, 64
5, 18720, Note_on_c, 1, 42, 64
5, 18744, Note_on_c, 1, 63, 0
5, 18744, Note_on_c, 1, 59, 64
5, 18768, Note_on_c, 1, 59, 0
5, 18768, Note_on_c, 1, 54, 64
5, 18798, Control_c, 1, 64, 0
5, 18810, Control_c, 1, 64, 127
5, 18816, Note_on_c, 1, 54, 0
5, 18816, Note_on_c, 1, 42, 0
5, 18816, Note_on_c, 1, 54, 0
5, 18816, Note_on_c, 1, 40, 64
5, 18816, Note_on_c, 1, 28, 64
5, 18816, Note_on_c, 1, 56, 64
5, 18816, Note_on_c, 1, 64, 64
5, 18816, Note_on_c, 1, 59, 64
5, 19176, Control_c, 1, 64, 0
5, 19194, Control_c, 1, 64, 127
5, 19200, Note_on_c, 1, 59, 0
5, 19200, Note_on_c, 1, 56, 0
5, 19200, Note_on_c, 1, 40, 0
5, 19200, Note_on_c, 1, 28, 0
5, 19200, Note_on_c, 1, 64, 0
5, 19200, Note_on_c, 1, 47, 64
5, 19200, Note_on_c, 1, 35, 64
5, 19248, Note_on_c, 1, 59, 64
5, 19248, Note_on_c, 1, 63, 64
5, 19296, Note_on_c, 1, 35, 0
5, 19296, Note_on_c, 1, 47, 0
5, 19296, Note_on_c, 1, 54, 64
5, 19320, Note_on_c, 1, 59, 0
5, 19320, Note_on_c, 1, 63, 0
5, 19320, Note_on_c, 1, 61, 64
5, 19368, Note_on_c, 1, 54, 0
5, 19368, Note_on_c, 1, 47, 64
5, 19392, Note_on_c, 1, 47, 0
5, 19392, Note_on_c, 1, 61, 0
5, 19392, Note_on_c, 1, 47, 64
5, 19392, Note_on_c, 1, 59, 64
5, 19392, Note_on_c, 1, 64, 64
5, 19464, Note_on_c, 1, 64, 0
5, 19464, Note_on_c, 1, 59, 0
5, 19464, Note_on_c, 1, 59, 64
5, 19464, Note_on_c, 1, 63, 64
5, 19488, Note_on_c, 1, 47, 0
5, 19488, Note_on_c, 1, 35, 64
5, 19488, Note_on_c, 1, 47, 64
5, 19512, Note_on_c, 1, 63, 0
5, 19512, Note_on_c, 1, 59, 0
5, 19512, Note_on_c, 1, 59, 64
5, 19536, Note_on_c, 1, 59, 0
5, 19536, Note_on_c, 1, 61, 64
5, 19560, Note_on_c, 1, 61, 0
5, 19560, Note_on_c, 1, 63, 64
5, 19572, Control_c, 1, 64, 0
5, 19584, Note_on_c, 1, 63, 0
5, 19584, Note_on_c, 1, 35, 0
5, 19584, Note_on_c, 1, 47, 0
5, 19584, Control_c, 1, 64, 127
5, 19584, Note_on_c, 1, 44, 64
5, 19584, Note_on_c, 1, 32, 64
5, 19632, Note_on_c, 1, 59, 64
5, 19632, Note_on_c, 1, 63, 64
5, 19680, Note_on_c, 1, 32, 0
5, 19680, Note_on_c, 1, 44, 0
5, 19680, Note_on_c, 1, 44, 64
5, 19704, Note_on_c, 1, 59, 0
5, 19704, Note_on_c, 1, 63, 0
5, 19704, Note_on_c, 1, 61, 64
5, 19752, Note_on_c, 1, 44, 0
5, 19752, Note_on_c, 1, 32, 64
5, 19776, Note_on_c, 1, 32, 0
5, 19776, Note_on_c, 1, 61, 0
5, 19776, Note_on_c, 1, 32, 64
5, 19776, Note_on_c, 1, 59, 64
5, 19776, Note_on_c, 1, 64, 64
5, 19848, Note_on_c, 1, 64, 0
5, 19848, Note_on_c, 1, 59, 0
5, 19848, Note_on_c, 1, 63, 64
5, 19872, Note_on_c, 1, 32, 0
5, 19872, Note_on_c, 1, 44, 64
5, 19872, Note_on_c, 1, 32, 64
5, 19896, Note_on_c, 1, 63, 0
5, 19896, Note_on_c, 1, 59, 64
5, 19920, Note_on_c, 1, 59, 0
5, 19920, Note_on_c, 1, 61, 64
5, 19944, Note_on_c, 1, 61, 0
5, 19944, Note_on_c, 1, 63, 64
5, 19968, Note_on_c, 1, 63, 0
5, 19968, Note_on_c, 1, 32, 0
5, 19968, Note_on_c, 1, 44, 0
5, 19968, Control_c, 1, 64, 0
5, 19968, Note_on_c, 1, 30, 64
5, 19968, Note_on_c, 1, 42, 64
5, 19974, Control_c, 1, 64, 127
5, 20016, Note_on_c, 1, 63, 64
5, 20016, Note_on_c, 1, 59, 64
5, 20064, Note_on_c, 1, 42, 0
5, 20064, Note_on_c, 1, 30, 0
5, 20064, Note_on_c, 1, 42, 64
5, 20088, Note_on_c, 1, 63, 0
5, 20088, Note_on_c, 1, 59, 0
5, 20088, Note_on_c, 1, 61, 64
5, 20136, Note_on_c, 1, 42, 0
5, 20136, Note_on_c, 1, 30, 64
5, 20160, Note_on_c, 1, 30, 0
5, 20160, Note_on_c, 1, 61, 0
5, 20160, Note_on_c, 1, 30, 64
5, 20160, Note_on_c, 1, 59, 64
5, 20160, Note_on_c, 1, 64, 64
5, 20232, Note_on_c, 1, 64, 0
5, 20232, Note_on_c, 1, 59, 0
5, 20232, Note_on_c, 1, 63, 64
5, 20232, Note_on_c, 1, 59, 64
5, 20256, Note_on_c, 1, 30, 0
5, 20256, Note_on_c, 1, 42, 64
5, 20256, Note_on_c, 1, 30, 64
5, 20280, Note_on_c, 1, 59, 0
5, 20280, Note_on_c, 1, 63, 0
5, 20280, Note_on_c, 1, 59, 64
5, 20304, Note_on_c, 1, 59, 0
5, 20304, Note_on_c, 1, 54, 64
5, 20334, Control_c, 1, 64, 0
5, 20352, Note_on_c, 1, 54, 0
5, 20352, Note_on_c, 1, 42, 0
5, 20352, Note_on_c, 1, 30, 0
5, 20352, Control_c, 1, 64, 127
5, 20352, Note_on_c, 1, 40, 64
5, 20352, Note_on_c, 1, 28, 64
5, 20352, Note_on_c, 1, 56, 64
5, 20352, Note_on_c, 1, 59, 64
5, 20352, Note_on_c, 1, 64, 64
5, 20712, Control_c, 1, 64, 0
5, 20730, Control_c, 1, 64, 127
5, 20736, Note_on_c, 1, 64, 0
5, 20736, Note_on_c, 1, 56, 0
5, 20736, Note_on_c, 1, 40, 0
5, 20736, Note_on_c, 1, 28, 0
5, 20736, Note_on_c, 1, 59, 0
5, 20736, Note_on_c, 1, 47, 64
5, 20736, Note_on_c, 1, 35, 64
5, 20784, Note_on_c, 1, 59, 64
5, 20784, Note_on_c, 1, 63, 64
5, 20832, Note_on_c, 1, 35, 0
5, 20832, Note_on_c, 1, 47, 0
5, 20832, Note_on_c, 1, 54, 64
5, 20856, Note_on_c, 1, 59, 0
5, 20856, Note_on_c, 1, 63, 0
5, 20856, Note_on_c, 1, 61, 64
5, 20904, Note_on_c, 1, 54, 0
5, 20904, Note_on_c, 1, 47, 64
5, 20928, Note_on_c, 1, 47, 0
5, 20928, Note_on_c, 1, 61, 0
5, 20928, Note_on_c, 1, 47, 64
5, 20928, Note_on_c, 1, 59, 64
5, 20928, Note_on_c, 1, 64, 64
5, 21000, Note_on_c, 1, 64, 0
5, 21000, Note_on_c, 1, 59, 0
5, 21000, Note_on_c, 1, 59, 64
5, 21000, Note_on_c, 1, 63, 64
5, 21024, Note_on_c, 1, 47, 0
5, 21024, Note_on_c, 1, 35, 64
5, 21024, Note_on_c, 1, 47, 64
5, 21048, Note_on_c, 1, 63, 0
5, 21048, Note_on_c, 1, 59, 0
5, 21048, Note_on_c, 1, 59, 64
5, 21072, Note_on_c, 1, 59, 0
5, 21072, Note_on_c, 1, 61, 64
5, 21096, Note_on_c, 1, 61, 0
5, 21096, Note_on_c, 1, 63, 64
5, 21108, Control_c, 1, 64, 0
5, 21120, Note_on_c, 1, 63, 0
5, 21120, Note_on_c, 1, 35, 0
5, 21120, Note_on_c, 1, 47, 0
5, 21120, Note_on_c, 1, 44, 64
5, 21120, Note_on_c, 1, 32, 64
5, 21126, Control_c, 1, 64, 127
5, 21168, Note_on_c, 1, 59, 64
5, 21168, Note_on_c, 1, 63, 64
5, 21216, Note_on_c, 1, 32, 0
5, 21216, Note_on_c, 1, 44, 0
5, 21216, Note_on_c, 1, 44, 64
5, 21240, Note_on_c, 1, 59, 0
5, 21240, Note_on_c, 1, 63, 0
5, 21240, Note_on_c, 1, 61, 64
5, 21288, Note_on_c, 1, 44, 0
5, 21288, Note_on_c, 1, 32, 64
5, 21312, Note_on_c, 1, 32, 0
5, 21312, Note_on_c, 1, 61, 0
5, 21312, Note_on_c, 1, 32, 64
5, 21312, Note_on_c, 1, 59, 64
5, 21312, Note_on_c, 1, 64, 64
5, 21384, Note_on_c, 1, 64, 0
5, 21384, Note_on_c, 1, 59, 0
5, 21384, Note_on_c, 1, 63, 64
5, 21408, Note_on_c, 1, 32, 0
5, 21408, Note_on_c, 1, 44, 64
5, 21408, Note_on_c, 1, 32, 64
5, 21432, Note_on_c, 1, 63, 0
5, 21432, Note_on_c, 1, 59, 64
5, 21456, Note_on_c, 1, 59, 0
5, 21456, Note_on_c, 1, 61, 64
5, 21480, Note_on_c, 1, 61, 0
5, 21480, Note_on_c, 1, 63, 64
5, 21492, Control_c, 1, 64, 0
5, 21504, Note_on_c, 1, 63, 0
5, 21504, Note_on_c, 1, 32, 0
5, 21504, Note_on_c, 1, 44, 0
5, 21504, Note_on_c, 1, 30, 64
5, 21504, Note_on_c, 1, 42, 64
5, 21510, Control_c, 1, 64, 127
5, 21552, Note_on_c, 1, 63, 64
5, 21552, Note_on_c, 1, 59, 64
5, 21600, Note_on_c, 1, 42, 0
5, 21600, Note_on_c, 1, 30, 0
5, 21600, Note_on_c, 1, 42, 64
5, 21624, Note_on_c, 1, 63, 0
5, 21624, Note_on_c, 1, 59, 0
5, 21624, Note_on_c, 1, 61, 64
5, 21672, Note_on_c, 1, 42, 0
5, 21672, Note_on_c, 1, 30, 64
5, 21696, Note_on_c, 1, 30, 0
5, 21696, Note_on_c, 1, 61, 0
5, 21696, Note_on_c, 1, 30, 64
5, 21696, Note_on_c, 1, 59, 64
5, 21696, Note_on_c, 1, 64, 64
5, 21768, Note_on_c, 1, 64, 0
5, 21768, Note_on_c, 1, 59, 0
5, 21768, Note_on_c, 1, 63, 64
5, 21768, Note_on_c, 1, 59, 64
5, 21792, Note_on_c, 1, 30, 0
5, 21792, Note_on_c, 1, 42, 64
5, 21792, Note_on_c, 1, 30, 64
5, 21816, Note_on_c, 1, 59, 0
5, 21816, Note_on_c, 1, 63, 0
5, 21816, Note_on_c, 1, 59, 64
5, 21840, Note_on_c, 1, 59, 0
5, 21840, Note_on_c, 1, 54, 64
5, 21870, Control_c, 1, 64, 0
5, 21888, Note_on_c, 1, 54, 0
5, 21888, Note_on_c, 1, 42, 0
5, 21888, Note_on_c, 1, 30, 0
5, 21888, Control_c, 1, 64, 127
5, 21888, Note_on_c, 1, 40, 64
5, 21888, Note_on_c, 1, 28, 64
5, 21888, Note_on_c, 1, 56, 64
5, 21888, Note_on_c, 1, 59, 64
5, 21888, Note_on_c, 1, 64, 64
5, 22254, Control_c, 1, 64, 0
5, 22272, Note_on_c, 1, 64, 0
5, 22272, Note_on_c, 1, 56, 0
5, 22272, Note_on_c, 1, 40, 0
5, 22272, Note_on_c, 1, 28, 0
5, 22272, Note_on_c, 1, 59, 0
5, 22272, Note_on_c, 1, 47, 64
5, 22272, Note_on_c, 1, 35, 64
5, 22320, Note_on_c, 1, 59, 64
5, 22320, Note_on_c, 1, 63, 64
5, 22368, Note_on_c, 1, 35, 0
5, 22368, Note_on_c, 1, 47, 0
5, 22368, Note_on_c, 1, 54, 64
5, 22392, Note_on_c, 1, 59, 0
5, 22392, Note_on_c, 1, 63, 0
5, 22392, Note_on_c, 1, 61, 64
5, 22440, Note_on_c, 1, 54, 0
5, 22440, Note_on_c, 1, 47, 64
5, 22464, Note_on_c, 1, 47, 0
5, 22464, Note_on_c, 1, 61, 0
5, 22464, Note_on_c, 1, 47, 64
5, 22464, Note_on_c, 1, 59, 64
5, 22464, Note_on_c, 1, 64, 64
5, 22536, Note_on_c, 1, 64, 0
5, 22536, Note_on_c, 1, 59, 0
5, 22536, Note_on_c, 1, 59, 64
5, 22536, Note_on_c, 1, 63, 64
5, 22560, Note_on_c, 1, 47, 0
5, 22560, Note_on_c, 1, 35, 64
5, 22560, Note_on_c, 1, 47, 64
5, 22584, Note_on_c, 1, 63, 0
5, 22584, Note_on_c, 1, 59, 0
5, 22584, Note_on_c, 1, 59, 64
5, 22608, Note_on_c, 1, 59, 0
5, 22608, Note_on_c, 1, 61, 64
5, 22632, Note_on_c, 1, 61, 0
5, 22632, Note_on_c, 1, 63, 64
5, 22638, Control_c, 1, 64, 0
5, 22656, Note_on_c, 1, 63, 0
5, 22656, Note_on_c, 1, 35, 0
5, 22656, Note_on_c, 1, 47, 0
5, 22656, Control_c, 1, 64, 127
5, 22656, Note_on_c, 1, 44, 64
5, 22656, Note_on_c, 1, 32, 64
5, 22704, Note_on_c, 1, 59, 64
5, 22704, Note_on_c, 1, 63, 64
5, 22752, Note_on_c, 1, 32, 0
5, 22752, Note_on_c, 1, 44, 0
5, 22752, Note_on_c, 1, 44, 64
5, 22776, Note_on_c, 1, 59, 0
5, 22776, Note_on_c, 1, 63, 0
5, 22776, Note_on_c, 1, 61, 64
5, 22824, Note_on_c, 1, 44, 0
5, 22824, Note_on_c, 1, 32, 64
5, 22848, Note_on_c, 1, 32, 0
5, 22848, Note_on_c, 1, 61, 0
5, 22848, Note_on_c, 1, 32, 64
5, 22848, Note_on_c, 1, 59, 64
5, 22848, Note_on_c, 1, 64, 64
5, 22920, Note_on_c, 1, 64, 0
5, 22920, Note_on_c, 1, 59, 0
5, 22920, Note_on_c, 1, 63, 64
5, 22944, Note_on_c, 1, 32, 0
5, 22944, Note_on_c, 1, 44, 64
5, 22944, Note_on_c, 1, 32, 64
5, 22968, Note_on_c, 1, 63, 0
5, 22968, Note_on_c, 1, 59, 64
5, 22992, Note_on_c, 1, 59, 0
5, 22992, Note_on_c, 1, 61, 64
5, 23016, Note_on_c, 1, 61, 0
5, 23016, Note_on_c, 1, 63, 64
5, 23034, Control_c, 1, 64, 0
5, 23040, Note_on_c, 1, 63, 0
5, 23040, Note_on_c, 1, 32, 0
5, 23040, Note_on_c, 1, 44, 0
5, 23040, Note_on_c, 1, 30, 64
5, 23040, Note_on_c, 1, 42, 64
5, 23046, Control_c, 1, 64, 127
5, 23088, Note_on_c, 1, 63, 64
5, 23088, Note_on_c, 1, 59, 64
5, 23136, Note_on_c, 1, 42, 0
5, 23136, Note_on_c, 1, 30, 0
5, 23136, Note_on_c, 1, 42, 64
5, 23160, Note_on_c, 1, 63, 0
5, 23160, Note_on_c, 1, 59, 0
5, 23160, Note_on_c, 1, 61, 64
5, 23208, Note_on_c, 1, 42, 0
5, 23208, Note_on_c, 1, 30, 64
5, 23232, Note_on_c, 1, 30, 0
5, 23232, Note_on_c, 1, 61, 0
5, 23232, Note_on_c, 1, 30, 64
5, 23232, Note_on_c, 1, 59, 64
5, 23232, Note_on_c, 1, 64, 64
5, 23304, Note_on_c, 1, 64, 0
5, 23304, Note_on_c, 1, 59, 0
5, 23304, Note_on_c, 1, 63, 64
5, 23304, Note_on_c, 1, 59, 64
5, 23328, Note_on_c, 1, 30, 0
5, 23328, Note_on_c, 1, 42, 64
5, 23328, Note_on_c, 1, 30, 64
5, 23352, Note_on_c, 1, 59, 0
5, 23352, Note_on_c, 1, 63, 0
5, 23352, Note_on_c, 1, 59, 64
5, 23376, Note_on_c, 1, 59, 0
5, 23376, Note_on_c, 1, 54, 64
5, 23394, Control_c, 1, 64, 0
5, 23418, Control_c, 1, 64, 127
5, 23424, Note_on_c, 1, 54, 0
5, 23424, Note_on_c, 1, 42, 0
5, 23424, Note_on_c, 1, 30, 0
5, 23424, Note_on_c, 1, 40, 64
5, 23424, Note_on_c, 1, 28, 64
5, 23424, Note_on_c, 1, 56, 64
5, 23424, Note_on_c, 1, 59, 64
5, 23424, Note_on_c, 1, 64, 64
5, 23784, Control_c, 1, 64, 0
5, 23808, Note_on_c, 1, 64, 0
5, 23808, Note_on_c, 1, 56, 0
5, 23808, Note_on_c, 1, 40, 0
5, 23808, Note_on_c, 1, 28, 0
5, 23808, Note_on_c, 1, 59, 0
5, 23808, Control_c, 1, 64, 127
5, 23808, Note_on_c, 1, 47, 64
5, 23808, Note_on_c, 1, 35, 64
5, 23856, Note_on_c, 1, 59, 64
5, 23856, Note_on_c, 1, 63, 64
5, 23904, Note_on_c, 1, 35, 0
5, 23904, Note_on_c, 1, 47, 0
5, 23904, Note_on_c, 1, 54, 64
5, 23928, Note_on_c, 1, 59, 0
5, 23928, Note_on_c, 1, 63, 0
5, 23928, Note_on_c, 1, 61, 64
5, 23976, Note_on_c, 1, 54, 0
5, 23976, Note_on_c, 1, 47, 64
5, 24000, Note_on_c, 1, 47, 0
5, 24000, Note_on_c, 1, 61, 0
5, 24000, Note_on_c, 1, 47, 64
5, 24000, Note_on_c, 1, 59, 64
5, 24000, Note_on_c, 1, 64, 64
5, 24072, Note_on_c, 1, 64, 0
5, 24072, Note_on_c, 1, 59, 0
5, 24072, Note_on_c, 1, 59, 64
5, 24072, Note_on_c, 1, 63, 64
5, 24096, Note_on_c, 1, 47, 0
5, 24096, Note_on_c, 1, 35, 64
5, 24096, Note_on_c, 1, 47, 64
5, 24120, Note_on_c, 1, 63, 0
5, 24120, Note_on_c, 1, 59, 0
5, 24120, Note_on_c, 1, 59, 64
5, 24144, Note_on_c, 1, 59, 0
5, 24144, Note_on_c, 1, 61, 64
5, 24168, Note_on_c, 1, 61, 0
5, 24168, Note_on_c, 1, 63, 64
5, 24180, Control_c, 1, 64, 0
5, 24192, Note_on_c, 1, 63, 0
5, 24192, Note_on_c, 1, 35, 0
5, 24192, Note_on_c, 1, 47, 0
5, 24192, Note_on_c, 1, 44, 64
5, 24192, Note_on_c, 1, 32, 64
5, 24198, Control_c, 1, 64, 127
5, 24240, Note_on_c, 1, 59, 64
5, 24240, Note_on_c, 1, 63, 64
5, 24288, Note_on_c, 1, 32, 0
5, 24288, Note_on_c, 1, 44, 0
5, 24288, Note_on_c, 1, 44, 64
5, 24312, Note_on_c, 1, 59, 0
5, 24312, Note_on_c, 1, 63, 0
5, 24312, Note_on_c, 1, 61, 64
5, 24360, Note_on_c, 1, 44, 0
5, 24360, Note_on_c, 1, 32, 64
5, 24384, Note_on_c, 1, 32, 0
5, 24384, Note_on_c, 1, 61, 0
5, 24384, Note_on_c, 1, 32, 64
5, 24384, Note_on_c, 1, 59, 64
5, 24384, Note_on_c, 1, 64, 64
5, 24456, Note_on_c, 1, 64, 0
5, 24456, Note_on_c, 1, 59, 0
5, 24456, Note_on_c, 1, 63, 64
5, 24480, Note_on_c, 1, 32, 0
5, 24480, Note_on_c, 1, 44, 64
5, 24480, Note_on_c, 1, 32, 64
5, 24504, Note_on_c, 1, 63, 0
5, 24504, Note_on_c, 1, 59, 64
5, 24528, Note_on_c, 1, 59, 0
5, 24528, Note_on_c, 1, 61, 64
5, 24552, Note_on_c, 1, 61, 0
5, 24552, Note_on_c, 1, 63, 64
5, 24564, Control_c, 1, 64, 0
5, 24576, Note_on_c, 1, 63, 0
5, 24576, Note_on_c, 1, 32, 0
5, 24576, Note_on_c, 1, 44, 0
5, 24576, Note_on_c, 1, 30, 64
5, 24576, Note_on_c, 1, 42, 64
5, 24582, Control_c, 1, 64, 127
5, 24624, Note_on_c, 1, 63, 64
5, 24624, Note_on_c, 1, 59, 64
5, 24672, Note_on_c, 1, 42, 0
5, 24672, Note_on_c, 1, 30, 0
5, 24672, Note_on_c, 1, 42, 64
5, 24696, Note_on_c, 1, 63, 0
5, 24696, Note_on_c, 1, 59, 0
5, 24696, Note_on_c, 1, 61, 64
5, 24744, Note_on_c, 1, 42, 0
5, 24744, Note_on_c, 1, 30, 64
5, 24768, Note_on_c, 1, 30, 0
5, 24768, Note_on_c, 1, 61, 0
5, 24768, Note_on_c, 1, 30, 64
5, 24768, Note_on_c, 1, 59, 64
5, 24768, Note_on_c, 1, 64, 64
5, 24840, Note_on_c, 1, 64, 0
5, 24840, Note_on_c, 1, 59, 0
5, 24840, Note_on_c, 1, 63, 64
5, 24840, Note_on_c, 1, 59, 64
5, 24864, Note_on_c, 1, 30, 0
5, 24864, Note_on_c, 1, 42, 64
5, 24864, Note_on_c, 1, 30, 64
5, 24888, Note_on_c, 1, 59, 0
5, 24888, Note_on_c, 1, 63, 0
5, 24888, Note_on_c, 1, 59, 64
5, 24912, Note_on_c, 1, 59, 0
5, 24912, Note_on_c, 1, 54, 64
5, 24930, Control_c, 1, 64, 0
5, 24960, Note_on_c, 1, 54, 0
5, 24960, Note_on_c, 1, 42, 0
5, 24960, Note_on_c, 1, 30, 0
5, 24960, Note_on_c, 1, 40, 64
5, 24960, Note_on_c, 1, 28, 64
5, 24960, Note_on_c, 1, 56, 64
5, 24960, Note_on_c, 1, 59, 64
5, 24960, Note_on_c, 1, 64, 64
5, 24966, Control_c, 1, 64, 127
5, 25344, Note_on_c, 1, 64, 0
5, 25344, Note_on_c, 1, 56, 0
5, 25344, Note_on_c, 1, 40, 0
5, 25344, Note_on_c, 1, 28, 0
5, 25344, Note_on_c, 1, 59, 0
5, 25344, Control_c, 1, 64, 0
5, 25728, Text_t, "Reset Volume"
5, 25728, Control_c, 1, 7, 127
5, 25728, Control_c, 1, 7, 127
5, 25728, Control_c, 1, 7, 127
5, 25728, Control_c, 1, 7, 127
5, 25728, Control_c, 1, 7, 127
5, 25728, Control_c, 1, 7, 127
5, 25728, Control_c, 1, 7, 127
5, 25728, Control_c, 1, 7, 127
5, 25728, Control_c, 1, 7, 127
5, 25728, Control_c, 1, 7, 127
5, 25728, Control_c, 1, 7, 127
5, 25728, Control_c, 1, 7, 127
5, 25728, Control_c, 1, 7, 127
5, 25728, Control_c, 1, 7, 127
5, 25728, Control_c, 1, 7, 127
5, 25728, Control_c, 1, 7, 127
5, 25728, Text_t, "Reset Pan"
5, 25728, Control_c, 1, 10, 64
5, 25728, Control_c, 1, 10, 64
5, 25728, Control_c, 1, 10, 64
5, 25728, Control_c, 1, 10, 64
5, 25728, Control_c, 1, 10, 64
5, 25728, Control_c, 1, 10, 64
5, 25728, Control_c, 1, 10, 64
5, 25728, Control_c, 1, 10, 64
5, 25728, Control_c, 1, 10, 64
5, 25728, Control_c, 1, 10, 64
5, 25728, Control_c, 1, 10, 64
5, 25728, Control_c, 1, 10, 64
5, 25728, Control_c, 1, 10, 64
5, 25728, Control_c, 1, 10, 64
5, 25728, Control_c, 1, 10, 64
5, 25728, Control_c, 1, 10, 64
5, 25824, Text_t, "Reset Expression"
5, 25824, Control_c, 1, 11, 127
5, 25824, Control_c, 1, 11, 127
5, 25824, Control_c, 1, 11, 127
5, 25824, Control_c, 1, 11, 127
5, 25824, Control_c, 1, 11, 127
5, 25824, Control_c, 1, 11, 127
5, 25824, Control_c, 1, 11, 127
5, 25824, Control_c, 1, 11, 127
5, 25824, Control_c, 1, 11, 127
5, 25824, Control_c, 1, 11, 127
5, 25824, Control_c, 1, 11, 127
5, 25824, Control_c, 1, 11, 127
5, 25824, Control_c, 1, 11, 127
5, 25824, Control_c, 1, 11, 127
5, 25824, Control_c, 1, 11, 127
5, 25824, Control_c, 1, 11, 127
5, 25824, Text_t, "Reset Pitch Wheel"
5, 25824, Pitch_bend_c, 1, 8192
5, 25824, Pitch_bend_c, 1, 8192
5, 25824, Pitch_bend_c, 1, 8192
5, 25824, Pitch_bend_c, 1, 8192
5, 25824, Pitch_bend_c, 1, 8192
5, 25824, Pitch_bend_c, 1, 8192
5, 25824, Pitch_bend_c, 1, 8192
5, 25824, Pitch_bend_c, 1, 8192
5, 25824, Pitch_bend_c, 1, 8192
5, 25824, Pitch_bend_c, 1, 8192
5, 25824, Pitch_bend_c, 1, 8192
5, 25824, Pitch_bend_c, 1, 8192
5, 25824, Pitch_bend_c, 1, 8192
5, 25824, Pitch_bend_c, 1, 8192
5, 25824, Pitch_bend_c, 1, 8192
5, 25824, Pitch_bend_c, 1, 8192
5, 25824, Text_t, "Reset Modulation Wheel"
5, 25824, Control_c, 1, 1, 0
5, 25824, Control_c, 1, 1, 0
5, 25824, Control_c, 1, 1, 0
5, 25824, Control_c, 1, 1, 0
5, 25824, Control_c, 1, 1, 0
5, 25824, Control_c, 1, 1, 0
5, 25824, Control_c, 1, 1, 0
5, 25824, Control_c, 1, 1, 0
5, 25824, Control_c, 1, 1, 0
5, 25824, Control_c, 1, 1, 0
5, 25824, Control_c, 1, 1, 0
5, 25824, Control_c, 1, 1, 0
5, 25824, Control_c, 1, 1, 0
5, 25824, Control_c, 1, 1, 0
5, 25824, Control_c, 1, 1, 0
5, 25824, Control_c, 1, 1, 0
5, 25824, Text_t, "Reset Aftertouch"
5, 25824, Channel_aftertouch_c, 1, 0
5, 25824, Channel_aftertouch_c, 1, 0
5, 25824, Channel_aftertouch_c, 1, 0
5, 25824, Channel_aftertouch_c, 1, 0
5, 25824, Channel_aftertouch_c, 1, 0
5, 25824, Channel_aftertouch_c, 1, 0
5, 25824, Channel_aftertouch_c, 1, 0
5, 25824, Channel_aftertouch_c, 1, 0
5, 25824, Channel_aftertouch_c, 1, 0
5, 25824, Channel_aftertouch_c, 1, 0
5, 25824, Channel_aftertouch_c, 1, 0
5, 25824, Channel_aftertouch_c, 1, 0
5, 25824, Channel_aftertouch_c, 1, 0
5, 25824, Channel_aftertouch_c, 1, 0
5, 25824, Channel_aftertouch_c, 1, 0
5, 25824, Channel_aftertouch_c, 1, 0
5, 25824, End_track
6, 0, Start_track
6, 0, MIDI_port, 0
6, 0, Title_t, "Synth"
6, 0, Program_c, 2, 100
6, 0, Control_c, 2, 7, 127
6, 0, Control_c, 2, 10, 64
6, 8880, Note_on_c, 2, 83, 64
6, 8952, Note_on_c, 2, 83, 0
6, 8952, Note_on_c, 2, 78, 64
6, 9024, Note_on_c, 2, 78, 0
6, 9024, Note_on_c, 2, 76, 64
6, 9120, Note_on_c, 2, 76, 0
6, 9120, Note_on_c, 2, 75, 64
6, 9144, Note_on_c, 2, 75, 0
6, 9144, Note_on_c, 2, 76, 64
6, 9168, Note_on_c, 2, 76, 0
6, 9168, Note_on_c, 2, 78, 64
6, 9216, Note_on_c, 2, 78, 0
6, 9264, Note_on_c, 2, 83, 64
6, 9336, Note_on_c, 2, 83, 0
6, 9336, Note_on_c, 2, 78, 64
6, 9408, Note_on_c, 2, 78, 0
6, 9408, Note_on_c, 2, 76, 64
6, 9504, Note_on_c, 2, 76, 0
6, 9504, Note_on_c, 2, 75, 64
6, 9528, Note_on_c, 2, 75, 0
6, 9528, Note_on_c, 2, 76, 64
6, 9552, Note_on_c, 2, 76, 0
6, 9552, Note_on_c, 2, 78, 64
6, 9600, Note_on_c, 2, 78, 0
6, 9648, Note_on_c, 2, 83, 64
6, 9720, Note_on_c, 2, 83, 0
6, 9720, Note_on_c, 2, 78, 64
6, 9792, Note_on_c, 2, 78, 0
6, 9792, Note_on_c, 2, 76, 64
6, 9888, Note_on_c, 2, 76, 0
6, 9888, Note_on_c, 2, 75, 64
6, 9912, Note_on_c, 2, 75, 0
6, 9912, Note_on_c, 2, 76, 64
6, 9936, Note_on_c, 2, 76, 0
6, 9936, Note_on_c, 2, 78, 64
6, 9960, Note_on_c, 2, 78, 0
6, 9960, Note_on_c, 2, 83, 64
6, 9984, Note_on_c, 2, 83, 0
6, 9984, Note_on_c, 2, 76, 64
6, 10272, Note_on_c, 2, 76, 0
6, 17712, Note_on_c, 2, 83, 64
6, 17784, Note_on_c, 2, 83, 0
6, 17784, Note_on_c, 2, 78, 64
6, 17856, Note_on_c, 2, 78, 0
6, 17856, Note_on_c, 2, 76, 64
6, 17952, Note_on_c, 2, 76, 0
6, 17952, Note_on_c, 2, 75, 64
6, 17976, Note_on_c, 2, 75, 0
6, 17976, Note_on_c, 2, 76, 64
6, 18000, Note_on_c, 2, 76, 0
6, 18000, Note_on_c, 2, 78, 64
6, 18048, Note_on_c, 2, 78, 0
6, 18096, Note_on_c, 2, 83, 64
6, 18168, Note_on_c, 2, 83, 0
6, 18168, Note_on_c, 2, 78, 64
6, 18240, Note_on_c, 2, 78, 0
6, 18240, Note_on_c, 2, 76, 64
6, 18336, Note_on_c, 2, 76, 0
6, 18336, Note_on_c, 2, 75, 64
6, 18360, Note_on_c, 2, 75, 0
6, 18360, Note_on_c, 2, 76, 64
6, 18384, Note_on_c, 2, 76, 0
6, 18384, Note_on_c, 2, 78, 64
6, 18432, Note_on_c, 2, 78, 0
6, 18480, Note_on_c, 2, 83, 64
6, 18552, Note_on_c, 2, 83, 0
6, 18552, Note_on_c, 2, 78, 64
6, 18624, Note_on_c, 2, 78, 0
6, 18624, Note_on_c, 2, 76, 64
6, 18720, Note_on_c, 2, 76, 0
6, 18720, Note_on_c, 2, 75, 64
6, 18744, Note_on_c, 2, 75, 0
6, 18744, Note_on_c, 2, 76, 64
6, 18768, Note_on_c, 2, 76, 0
6, 18768, Note_on_c, 2, 78, 64
6, 18792, Note_on_c, 2, 78, 0
6, 18792, Note_on_c, 2, 83, 64
6, 18816, Note_on_c, 2, 83, 0
6, 18816, End_track
0, 0, End_of_file
