0, 0, Header, 1, 7, 384
1, 0, Start_track
1, 0, Tempo, 789470
1, 0, Time_signature, 6, 3, 24, 8
1, 101376, End_track
2, 0, Start_track
2, 0, Title_t, "Specials"
2, 0, System_exclusive, 10, 65, 16, 66, 18, 64, 0, 127, 0, 65, 247
2, 1152, End_track
3, 0, Start_track
3, 0, Title_t, "Piano 1"
3, 1152, Control_c, 0, 121, 0
3, 1248, Control_c, 0, 91, 80
3, 1248, Control_c, 0, 93, 40
3, 1248, Control_c, 0, 7, 110
3, 1344, Program_c, 0, 0
3, 8064, Note_on_c, 0, 55, 120
3, 8064, Note_on_c, 0, 40, 120
3, 8256, Note_off_c, 0, 40, 0
3, 8256, Note_off_c, 0, 55, 0
3, 8256, Note_on_c, 0, 59, 96
3, 8448, Note_off_c, 0, 59, 0
3, 8448, Note_on_c, 0, 64, 99
3, 8640, Note_off_c, 0, 64, 0
3, 8640, Note_on_c, 0, 64, 114
3, 8832, Note_off_c, 0, 64, 0
3, 8832, Note_on_c, 0, 59, 91
3, 9024, Note_off_c, 0, 59, 0
3, 9024, Note_on_c, 0, 55, 99
3, 9216, Note_off_c, 0, 55, 0
3, 9216, Note_on_c, 0, 47, 122
3, 9216, Note_on_c, 0, 35, 122
3, 9408, Note_off_c, 0, 35, 0
3, 9408, Note_off_c, 0, 47, 0
3, 9408, Note_on_c, 0, 50, 96
3, 9600, Note_off_c, 0, 50, 0
3, 9600, Note_on_c, 0, 54, 99
3, 9792, Note_off_c, 0, 54, 0
3, 9792, Note_on_c, 0, 54, 109
3, 9984, Note_off_c, 0, 54, 0
3, 9984, Note_on_c, 0, 50, 104
3, 10176, Note_off_c, 0, 50, 0
3, 10176, Note_on_c, 0, 47, 99
3, 10368, Note_off_c, 0, 47, 0
3, 10368, Note_on_c, 0, 55, 120
3, 10368, Note_on_c, 0, 40, 120
3, 10560, Note_off_c, 0, 40, 0
3, 10560, Note_off_c, 0, 55, 0
3, 10560, Note_on_c, 0, 59, 96
3, 10752, Note_off_c, 0, 59, 0
3, 10752, Note_on_c, 0, 64, 99
3, 10944, Note_off_c, 0, 64, 0
3, 10944, Note_on_c, 0, 64, 114
3, 11136, Note_off_c, 0, 64, 0
3, 11136, Note_on_c, 0, 59, 91
3, 11328, Note_off_c, 0, 59, 0
3, 11328, Note_on_c, 0, 55, 99
3, 11520, Note_off_c, 0, 55, 0
3, 11520, Note_on_c, 0, 47, 122
3, 11520, Note_on_c, 0, 35, 122
3, 11712, Note_off_c, 0, 35, 0
3, 11712, Note_off_c, 0, 47, 0
3, 11712, Note_on_c, 0, 50, 96
3, 11904, Note_off_c, 0, 50, 0
3, 11904, Note_on_c, 0, 54, 99
3, 12096, Note_off_c, 0, 54, 0
3, 12096, Note_on_c, 0, 54, 109
3, 12288, Note_off_c, 0, 54, 0
3, 12288, Note_on_c, 0, 50, 104
3, 12480, Note_off_c, 0, 50, 0
3, 12480, Note_on_c, 0, 47, 99
3, 12672, Note_off_c, 0, 47, 0
3, 12672, Note_on_c, 0, 55, 120
3, 12672, Note_on_c, 0, 40, 120
3, 12864, Note_off_c, 0, 40, 0
3, 12864, Note_off_c, 0, 55, 0
3, 12864, Note_on_c, 0, 59, 96
3, 13056, Note_off_c, 0, 59, 0
3, 13056, Note_on_c, 0, 64, 99
3, 13248, Note_off_c, 0, 64, 0
3, 13248, Note_on_c, 0, 64, 114
3, 13440, Note_off_c, 0, 64, 0
3, 13440, Note_on_c, 0, 59, 91
3, 13632, Note_off_c, 0, 59, 0
3, 13632, Note_on_c, 0, 55, 99
3, 13824, Note_off_c, 0, 55, 0
3, 13824, Note_on_c, 0, 47, 122
3, 13824, Note_on_c, 0, 35, 122
3, 14016, Note_off_c, 0, 35, 0
3, 14016, Note_off_c, 0, 47, 0
3, 14016, Note_on_c, 0, 50, 96
3, 14208, Note_off_c, 0, 50, 0
3, 14208, Note_on_c, 0, 54, 99
3, 14400, Note_off_c, 0, 54, 0
3, 14400, Note_on_c, 0, 54, 109
3, 14592, Note_off_c, 0, 54, 0
3, 14592, Note_on_c, 0, 50, 104
3, 14784, Note_off_c, 0, 50, 0
3, 14784, Note_on_c, 0, 47, 99
3, 14976, Note_off_c, 0, 47, 0
3, 14976, Note_on_c, 0, 55, 120
3, 14976, Note_on_c, 0, 40, 120
3, 15168, Note_off_c, 0, 40, 0
3, 15168, Note_off_c, 0, 55, 0
3, 15168, Note_on_c, 0, 59, 96
3, 15360, Note_off_c, 0, 59, 0
3, 15360, Note_on_c, 0, 64, 99
3, 15552, Note_off_c, 0, 64, 0
3, 15552, Note_on_c, 0, 64, 114
3, 15744, Note_off_c, 0, 64, 0
3, 15744, Note_on_c, 0, 59, 91
3, 15936, Note_off_c, 0, 59, 0
3, 15936, Note_on_c, 0, 55, 99
3, 16128, Note_off_c, 0, 55, 0
3, 16128, Note_on_c, 0, 47, 122
3, 16128, Note_on_c, 0, 35, 122
3, 16320, Note_off_c, 0, 35, 0
3, 16320, Note_off_c, 0, 47, 0
3, 16320, Note_on_c, 0, 50, 96
3, 16512, Note_off_c, 0, 50, 0
3, 16512, Note_on_c, 0, 54, 99
3, 16704, Note_off_c, 0, 54, 0
3, 16704, Note_on_c, 0, 54, 109
3, 16896, Note_off_c, 0, 54, 0
3, 16896, Note_on_c, 0, 50, 104
3, 17088, Note_off_c, 0, 50, 0
3, 17088, Note_on_c, 0, 47, 99
3, 17280, Note_off_c, 0, 47, 0
3, 17280, Note_on_c, 0, 55, 120
3, 17280, Note_on_c, 0, 40, 120
3, 17472, Note_off_c, 0, 40, 0
3, 17472, Note_off_c, 0, 55, 0
3, 17472, Note_on_c, 0, 59, 96
3, 17664, Note_off_c, 0, 59, 0
3, 17664, Note_on_c, 0, 64, 99
3, 17856, Note_off_c, 0, 64, 0
3, 17856, Note_on_c, 0, 64, 114
3, 18048, Note_off_c, 0, 64, 0
3, 18048, Note_on_c, 0, 59, 91
3, 18240, Note_off_c, 0, 59, 0
3, 18240, Note_on_c, 0, 55, 99
3, 18432, Note_off_c, 0, 55, 0
3, 18432, Note_on_c, 0, 47, 122
3, 18432, Note_on_c, 0, 35, 122
3, 18624, Note_off_c, 0, 35, 0
3, 18624, Note_off_c, 0, 47, 0
3, 18624, Note_on_c, 0, 50, 96
3, 18816, Note_off_c, 0, 50, 0
3, 18816, Note_on_c, 0, 54, 99
3, 19008, Note_off_c, 0, 54, 0
3, 19008, Note_on_c, 0, 54, 109
3, 19200, Note_off_c, 0, 54, 0
3, 19200, Note_on_c, 0, 50, 104
3, 19392, Note_off_c, 0, 50, 0
3, 19392, Note_on_c, 0, 47, 99
3, 19584, Note_off_c, 0, 47, 0
3, 19584, Note_on_c, 0, 55, 120
3, 19584, Note_on_c, 0, 40, 120
3, 19776, Note_off_c, 0, 40, 0
3, 19776, Note_off_c, 0, 55, 0
3, 19776, Note_on_c, 0, 59, 96
3, 19968, Note_off_c, 0, 59, 0
3, 19968, Note_on_c, 0, 64, 99
3, 20160, Note_off_c, 0, 64, 0
3, 20160, Note_on_c, 0, 64, 114
3, 20352, Note_off_c, 0, 64, 0
3, 20352, Note_on_c, 0, 59, 91
3, 20544, Note_off_c, 0, 59, 0
3, 20544, Note_on_c, 0, 55, 99
3, 20736, Note_off_c, 0, 55, 0
3, 20736, Note_on_c, 0, 47, 122
3, 20736, Note_on_c, 0, 35, 122
3, 20928, Note_off_c, 0, 35, 0
3, 20928, Note_off_c, 0, 47, 0
3, 20928, Note_on_c, 0, 50, 96
3, 21120, Note_off_c, 0, 50, 0
3, 21120, Note_on_c, 0, 54, 99
3, 21312, Note_off_c, 0, 54, 0
3, 21312, Note_on_c, 0, 54, 109
3, 21504, Note_off_c, 0, 54, 0
3, 21504, Note_on_c, 0, 50, 104
3, 21696, Note_off_c, 0, 50, 0
3, 21696, Note_on_c, 0, 47, 99
3, 21888, Note_off_c, 0, 47, 0
3, 21888, Note_on_c, 0, 55, 120
3, 21888, Note_on_c, 0, 40, 120
3, 22080, Note_off_c, 0, 40, 0
3, 22080, Note_off_c, 0, 55, 0
3, 22080, Note_on_c, 0, 59, 96
3, 22272, Note_off_c, 0, 59, 0
3, 22272, Note_on_c, 0, 64, 99
3, 22464, Note_off_c, 0, 64, 0
3, 22464, Note_on_c, 0, 64, 114
3, 22656, Note_off_c, 0, 64, 0
3, 22656, Note_on_c, 0, 59, 91
3, 22848, Note_off_c, 0, 59, 0
3, 22848, Note_on_c, 0, 55, 99
3, 23040, Note_off_c, 0, 55, 0
3, 23040, Note_on_c, 0, 47, 122
3, 23040, Note_on_c, 0, 35, 122
3, 23232, Note_off_c, 0, 35, 0
3, 23232, Note_off_c, 0, 47, 0
3, 23232, Note_on_c, 0, 50, 96
3, 23424, Note_off_c, 0, 50, 0
3, 23424, Note_on_c, 0, 54, 99
3, 23616, Note_off_c, 0, 54, 0
3, 23616, Note_on_c, 0, 54, 109
3, 23808, Note_off_c, 0, 54, 0
3, 23808, Note_on_c, 0, 50, 104
3, 24000, Note_off_c, 0, 50, 0
3, 24000, Note_on_c, 0, 47, 99
3, 24192, Note_off_c, 0, 47, 0
3, 24192, Note_on_c, 0, 55, 120
3, 24192, Note_on_c, 0, 40, 120
3, 24384, Note_off_c, 0, 40, 0
3, 24384, Note_off_c, 0, 55, 0
3, 24384, Note_on_c, 0, 59, 96
3, 24576, Note_off_c, 0, 59, 0
3, 24576, Note_on_c, 0, 64, 99
3, 24768, Note_off_c, 0, 64, 0
3, 24768, Note_on_c, 0, 64, 114
3, 24960, Note_off_c, 0, 64, 0
3, 24960, Note_on_c, 0, 59, 91
3, 25152, Note_off_c, 0, 59, 0
3, 25152, Note_on_c, 0, 55, 99
3, 25344, Note_off_c, 0, 55, 0
3, 25344, Note_on_c, 0, 47, 122
3, 25344, Note_on_c, 0, 35, 122
3, 25536, Note_off_c, 0, 35, 0
3, 25536, Note_off_c, 0, 47, 0
3, 25536, Note_on_c, 0, 50, 96
3, 25728, Note_off_c, 0, 50, 0
3, 25728, Note_on_c, 0, 54, 99
3, 25920, Note_off_c, 0, 54, 0
3, 25920, Note_on_c, 0, 54, 109
3, 26112, Note_off_c, 0, 54, 0
3, 26112, Note_on_c, 0, 50, 104
3, 26304, Note_off_c, 0, 50, 0
3, 26304, Note_on_c, 0, 47, 99
3, 26496, Note_off_c, 0, 47, 0
3, 26496, Note_on_c, 0, 55, 127
3, 26496, Note_on_c, 0, 64, 127
3, 26496, Note_on_c, 0, 59, 127
3, 26496, Note_on_c, 0, 40, 127
3, 26496, Note_on_c, 0, 52, 127
3, 26688, Note_off_c, 0, 52, 64
3, 26688, Note_off_c, 0, 40, 64
3, 26688, Note_off_c, 0, 59, 64
3, 26688, Note_off_c, 0, 64, 64
3, 26688, Note_off_c, 0, 55, 64
3, 26688, Note_on_c, 0, 67, 101
3, 26688, Note_on_c, 0, 55, 101
3, 26688, Note_on_c, 0, 64, 101
3, 26688, Note_on_c, 0, 59, 101
3, 26880, Note_off_c, 0, 59, 64
3, 26880, Note_off_c, 0, 64, 64
3, 26880, Note_off_c, 0, 55, 64
3, 26880, Note_off_c, 0, 67, 64
3, 26880, Note_on_c, 0, 67, 104
3, 26880, Note_on_c, 0, 55, 104
3, 26880, Note_on_c, 0, 64, 104
3, 26880, Note_on_c, 0, 59, 104
3, 27072, Note_off_c, 0, 59, 64
3, 27072, Note_off_c, 0, 64, 64
3, 27072, Note_off_c, 0, 55, 64
3, 27072, Note_off_c, 0, 67, 64
3, 27072, Note_on_c, 0, 67, 116
3, 27072, Note_on_c, 0, 55, 116
3, 27072, Note_on_c, 0, 64, 116
3, 27072, Note_on_c, 0, 59, 116
3, 27264, Note_off_c, 0, 59, 64
3, 27264, Note_off_c, 0, 64, 64
3, 27264, Note_off_c, 0, 55, 64
3, 27264, Note_off_c, 0, 67, 64
3, 27264, Note_on_c, 0, 55, 98
3, 27264, Note_on_c, 0, 64, 98
3, 27264, Note_on_c, 0, 59, 98
3, 27456, Note_off_c, 0, 59, 64
3, 27456, Note_off_c, 0, 64, 64
3, 27456, Note_off_c, 0, 55, 64
3, 27456, Note_on_c, 0, 67, 99
3, 27456, Note_on_c, 0, 55, 99
3, 27456, Note_on_c, 0, 64, 99
3, 27456, Note_on_c, 0, 59, 99
3, 27648, Note_off_c, 0, 59, 64
3, 27648, Note_off_c, 0, 64, 64
3, 27648, Note_off_c, 0, 55, 64
3, 27648, Note_off_c, 0, 67, 64
3, 27648, Note_on_c, 0, 59, 127
3, 27648, Note_on_c, 0, 54, 127
3, 27648, Note_on_c, 0, 47, 127
3, 27840, Note_off_c, 0, 59, 64
3, 27840, Note_on_c, 0, 62, 101
3, 27840, Note_on_c, 0, 59, 101
3, 28032, Note_off_c, 0, 59, 64
3, 28032, Note_off_c, 0, 62, 64
3, 28032, Note_on_c, 0, 62, 104
3, 28032, Note_on_c, 0, 59, 104
3, 28032, Note_on_c, 0, 66, 104
3, 28224, Note_off_c, 0, 66, 64
3, 28224, Note_off_c, 0, 59, 64
3, 28224, Note_off_c, 0, 62, 64
3, 28224, Note_on_c, 0, 62, 116
3, 28224, Note_on_c, 0, 59, 116
3, 28224, Note_on_c, 0, 66, 116
3, 28224, Note_on_c, 0, 71, 116
3, 28416, Note_off_c, 0, 71, 64
3, 28416, Note_off_c, 0, 66, 64
3, 28416, Note_off_c, 0, 59, 64
3, 28416, Note_off_c, 0, 62, 64
3, 28416, Note_on_c, 0, 62, 98
3, 28416, Note_on_c, 0, 59, 98
3, 28416, Note_on_c, 0, 66, 98
3, 28608, Note_off_c, 0, 66, 64
3, 28608, Note_off_c, 0, 59, 64
3, 28608, Note_off_c, 0, 62, 64
3, 28608, Note_on_c, 0, 62, 99
3, 28608, Note_on_c, 0, 59, 99
3, 28800, Note_off_c, 0, 59, 64
3, 28800, Note_off_c, 0, 62, 64
3, 28800, Note_off_c, 0, 47, 64
3, 28800, Note_off_c, 0, 54, 64
3, 28800, Note_on_c, 0, 55, 127
3, 28800, Note_on_c, 0, 64, 127
3, 28800, Note_on_c, 0, 59, 127
3, 28800, Note_on_c, 0, 40, 127
3, 28800, Note_on_c, 0, 52, 127
3, 28992, Note_off_c, 0, 52, 64
3, 28992, Note_off_c, 0, 40, 64
3, 28992, Note_off_c, 0, 59, 64
3, 28992, Note_off_c, 0, 64, 64
3, 28992, Note_off_c, 0, 55, 64
3, 28992, Note_on_c, 0, 67, 101
3, 28992, Note_on_c, 0, 55, 101
3, 28992, Note_on_c, 0, 64, 101
3, 28992, Note_on_c, 0, 59, 101
3, 29184, Note_off_c, 0, 59, 64
3, 29184, Note_off_c, 0, 64, 64
3, 29184, Note_off_c, 0, 55, 64
3, 29184, Note_off_c, 0, 67, 64
3, 29184, Note_on_c, 0, 67, 104
3, 29184, Note_on_c, 0, 55, 104
3, 29184, Note_on_c, 0, 64, 104
3, 29184, Note_on_c, 0, 59, 104
3, 29376, Note_off_c, 0, 59, 64
3, 29376, Note_off_c, 0, 64, 64
3, 29376, Note_off_c, 0, 55, 64
3, 29376, Note_off_c, 0, 67, 64
3, 29376, Note_on_c, 0, 67, 116
3, 29376, Note_on_c, 0, 55, 116
3, 29376, Note_on_c, 0, 64, 116
3, 29376, Note_on_c, 0, 59, 116
3, 29568, Note_off_c, 0, 59, 64
3, 29568, Note_off_c, 0, 64, 64
3, 29568, Note_off_c, 0, 55, 64
3, 29568, Note_off_c, 0, 67, 64
3, 29568, Note_on_c, 0, 55, 98
3, 29568, Note_on_c, 0, 64, 98
3, 29568, Note_on_c, 0, 59, 98
3, 29760, Note_off_c, 0, 59, 64
3, 29760, Note_off_c, 0, 64, 64
3, 29760, Note_off_c, 0, 55, 64
3, 29760, Note_on_c, 0, 67, 99
3, 29760, Note_on_c, 0, 55, 99
3, 29760, Note_on_c, 0, 64, 99
3, 29760, Note_on_c, 0, 59, 99
3, 29952, Note_off_c, 0, 59, 64
3, 29952, Note_off_c, 0, 64, 64
3, 29952, Note_off_c, 0, 55, 64
3, 29952, Note_off_c, 0, 67, 64
3, 29952, Note_on_c, 0, 59, 127
3, 29952, Note_on_c, 0, 54, 127
3, 29952, Note_on_c, 0, 47, 127
3, 30144, Note_off_c, 0, 59, 64
3, 30144, Note_on_c, 0, 62, 101
3, 30144, Note_on_c, 0, 59, 101
3, 30336, Note_off_c, 0, 59, 64
3, 30336, Note_off_c, 0, 62, 64
3, 30336, Note_on_c, 0, 62, 104
3, 30336, Note_on_c, 0, 59, 104
3, 30336, Note_on_c, 0, 66, 104
3, 30528, Note_off_c, 0, 66, 64
3, 30528, Note_off_c, 0, 59, 64
3, 30528, Note_off_c, 0, 62, 64
3, 30528, Note_on_c, 0, 62, 116
3, 30528, Note_on_c, 0, 59, 116
3, 30528, Note_on_c, 0, 66, 116
3, 30528, Note_on_c, 0, 71, 116
3, 30720, Note_off_c, 0, 71, 64
3, 30720, Note_off_c, 0, 66, 64
3, 30720, Note_off_c, 0, 59, 64
3, 30720, Note_off_c, 0, 62, 64
3, 30720, Note_on_c, 0, 62, 98
3, 30720, Note_on_c, 0, 59, 98
3, 30720, Note_on_c, 0, 66, 98
3, 30912, Note_off_c, 0, 66, 64
3, 30912, Note_off_c, 0, 59, 64
3, 30912, Note_off_c, 0, 62, 64
3, 30912, Note_on_c, 0, 62, 99
3, 30912, Note_on_c, 0, 59, 99
3, 31104, Note_off_c, 0, 59, 64
3, 31104, Note_off_c, 0, 62, 64
3, 31104, Note_off_c, 0, 47, 64
3, 31104, Note_off_c, 0, 54, 64
3, 31104, Note_on_c, 0, 55, 127
3, 31104, Note_on_c, 0, 64, 127
3, 31104, Note_on_c, 0, 59, 127
3, 31104, Note_on_c, 0, 40, 127
3, 31104, Note_on_c, 0, 52, 127
3, 31296, Note_off_c, 0, 52, 64
3, 31296, Note_off_c, 0, 40, 64
3, 31296, Note_off_c, 0, 59, 64
3, 31296, Note_off_c, 0, 64, 64
3, 31296, Note_off_c, 0, 55, 64
3, 31296, Note_on_c, 0, 67, 101
3, 31296, Note_on_c, 0, 55, 101
3, 31296, Note_on_c, 0, 64, 101
3, 31296, Note_on_c, 0, 59, 101
3, 31488, Note_off_c, 0, 59, 64
3, 31488, Note_off_c, 0, 64, 64
3, 31488, Note_off_c, 0, 55, 64
3, 31488, Note_off_c, 0, 67, 64
3, 31488, Note_on_c, 0, 67, 104
3, 31488, Note_on_c, 0, 55, 104
3, 31488, Note_on_c, 0, 64, 104
3, 31488, Note_on_c, 0, 59, 104
3, 31680, Note_off_c, 0, 59, 64
3, 31680, Note_off_c, 0, 64, 64
3, 31680, Note_off_c, 0, 55, 64
3, 31680, Note_off_c, 0, 67, 64
3, 31680, Note_on_c, 0, 67, 116
3, 31680, Note_on_c, 0, 55, 116
3, 31680, Note_on_c, 0, 64, 116
3, 31680, Note_on_c, 0, 59, 116
3, 31872, Note_off_c, 0, 59, 64
3, 31872, Note_off_c, 0, 64, 64
3, 31872, Note_off_c, 0, 55, 64
3, 31872, Note_off_c, 0, 67, 64
3, 31872, Note_on_c, 0, 55, 98
3, 31872, Note_on_c, 0, 64, 98
3, 31872, Note_on_c, 0, 59, 98
3, 32064, Note_off_c, 0, 59, 64
3, 32064, Note_off_c, 0, 64, 64
3, 32064, Note_off_c, 0, 55, 64
3, 32064, Note_on_c, 0, 67, 99
3, 32064, Note_on_c, 0, 55, 99
3, 32064, Note_on_c, 0, 64, 99
3, 32064, Note_on_c, 0, 59, 99
3, 32256, Note_off_c, 0, 59, 64
3, 32256, Note_off_c, 0, 64, 64
3, 32256, Note_off_c, 0, 55, 64
3, 32256, Note_off_c, 0, 67, 64
3, 32256, Note_on_c, 0, 59, 127
3, 32256, Note_on_c, 0, 54, 127
3, 32256, Note_on_c, 0, 47, 127
3, 32448, Note_off_c, 0, 59, 64
3, 32448, Note_on_c, 0, 62, 101
3, 32448, Note_on_c, 0, 59, 101
3, 32640, Note_off_c, 0, 59, 64
3, 32640, Note_off_c, 0, 62, 64
3, 32640, Note_on_c, 0, 62, 104
3, 32640, Note_on_c, 0, 59, 104
3, 32640, Note_on_c, 0, 66, 104
3, 32832, Note_off_c, 0, 66, 64
3, 32832, Note_off_c, 0, 59, 64
3, 32832, Note_off_c, 0, 62, 64
3, 32832, Note_on_c, 0, 62, 116
3, 32832, Note_on_c, 0, 59, 116
3, 32832, Note_on_c, 0, 66, 116
3, 32832, Note_on_c, 0, 71, 116
3, 33024, Note_off_c, 0, 71, 64
3, 33024, Note_off_c, 0, 66, 64
3, 33024, Note_off_c, 0, 59, 64
3, 33024, Note_off_c, 0, 62, 64
3, 33024, Note_on_c, 0, 62, 98
3, 33024, Note_on_c, 0, 59, 98
3, 33024, Note_on_c, 0, 66, 98
3, 33216, Note_off_c, 0, 66, 64
3, 33216, Note_off_c, 0, 59, 64
3, 33216, Note_off_c, 0, 62, 64
3, 33216, Note_on_c, 0, 62, 99
3, 33216, Note_on_c, 0, 59, 99
3, 33408, Note_off_c, 0, 59, 64
3, 33408, Note_off_c, 0, 62, 64
3, 33408, Note_off_c, 0, 47, 64
3, 33408, Note_off_c, 0, 54, 64
3, 33408, Note_on_c, 0, 55, 127
3, 33408, Note_on_c, 0, 64, 127
3, 33408, Note_on_c, 0, 59, 127
3, 33408, Note_on_c, 0, 40, 127
3, 33408, Note_on_c, 0, 52, 127
3, 33600, Note_off_c, 0, 52, 64
3, 33600, Note_off_c, 0, 40, 64
3, 33600, Note_off_c, 0, 59, 64
3, 33600, Note_off_c, 0, 64, 64
3, 33600, Note_off_c, 0, 55, 64
3, 33600, Note_on_c, 0, 67, 101
3, 33600, Note_on_c, 0, 55, 101
3, 33600, Note_on_c, 0, 64, 101
3, 33600, Note_on_c, 0, 59, 101
3, 33792, Note_off_c, 0, 59, 64
3, 33792, Note_off_c, 0, 64, 64
3, 33792, Note_off_c, 0, 55, 64
3, 33792, Note_off_c, 0, 67, 64
3, 33792, Note_on_c, 0, 67, 104
3, 33792, Note_on_c, 0, 55, 104
3, 33792, Note_on_c, 0, 64, 104
3, 33792, Note_on_c, 0, 59, 104
3, 33984, Note_off_c, 0, 59, 64
3, 33984, Note_off_c, 0, 64, 64
3, 33984, Note_off_c, 0, 55, 64
3, 33984, Note_off_c, 0, 67, 64
3, 33984, Note_on_c, 0, 67, 116
3, 33984, Note_on_c, 0, 55, 116
3, 33984, Note_on_c, 0, 64, 116
3, 33984, Note_on_c, 0, 59, 116
3, 34176, Note_off_c, 0, 59, 64
3, 34176, Note_off_c, 0, 64, 64
3, 34176, Note_off_c, 0, 55, 64
3, 34176, Note_off_c, 0, 67, 64
3, 34176, Note_on_c, 0, 55, 98
3, 34176, Note_on_c, 0, 64, 98
3, 34176, Note_on_c, 0, 59, 98
3, 34368, Note_off_c, 0, 59, 64
3, 34368, Note_off_c, 0, 64, 64
3, 34368, Note_off_c, 0, 55, 64
3, 34368, Note_on_c, 0, 67, 99
3, 34368, Note_on_c, 0, 55, 99
3, 34368, Note_on_c, 0, 64, 99
3, 34368, Note_on_c, 0, 59, 99
3, 34560, Note_off_c, 0, 59, 64
3, 34560, Note_off_c, 0, 64, 64
3, 34560, Note_off_c, 0, 55, 64
3, 34560, Note_off_c, 0, 67, 64
3, 34560, Note_on_c, 0, 59, 127
3, 34752, Note_off_c, 0, 59, 64
3, 34752, Note_on_c, 0, 62, 101
3, 34752, Note_on_c, 0, 59, 101
3, 34944, Note_off_c, 0, 59, 64
3, 34944, Note_off_c, 0, 62, 64
3, 35712, Note_on_c, 0, 55, 120
3, 35712, Note_on_c, 0, 40, 120
3, 35904, Note_off_c, 0, 40, 0
3, 35904, Note_off_c, 0, 55, 0
3, 35904, Note_on_c, 0, 59, 96
3, 36096, Note_off_c, 0, 59, 0
3, 36096, Note_on_c, 0, 64, 99
3, 36288, Note_off_c, 0, 64, 0
3, 36288, Note_on_c, 0, 64, 114
3, 36480, Note_off_c, 0, 64, 0
3, 36480, Note_on_c, 0, 59, 91
3, 36672, Note_off_c, 0, 59, 0
3, 36672, Note_on_c, 0, 55, 99
3, 36864, Note_off_c, 0, 55, 0
3, 36864, Note_on_c, 0, 47, 122
3, 36864, Note_on_c, 0, 35, 122
3, 37056, Note_off_c, 0, 35, 0
3, 37056, Note_off_c, 0, 47, 0
3, 37056, Note_on_c, 0, 50, 96
3, 37248, Note_off_c, 0, 50, 0
3, 37248, Note_on_c, 0, 54, 99
3, 37440, Note_off_c, 0, 54, 0
3, 37440, Note_on_c, 0, 54, 109
3, 37632, Note_off_c, 0, 54, 0
3, 37632, Note_on_c, 0, 50, 104
3, 37824, Note_off_c, 0, 50, 0
3, 37824, Note_on_c, 0, 47, 99
3, 38016, Note_off_c, 0, 47, 0
3, 38016, Note_on_c, 0, 55, 120
3, 38016, Note_on_c, 0, 40, 120
3, 38208, Note_off_c, 0, 40, 0
3, 38208, Note_off_c, 0, 55, 0
3, 38208, Note_on_c, 0, 59, 96
3, 38400, Note_off_c, 0, 59, 0
3, 38400, Note_on_c, 0, 64, 99
3, 38592, Note_off_c, 0, 64, 0
3, 38592, Note_on_c, 0, 64, 114
3, 38784, Note_off_c, 0, 64, 0
3, 38784, Note_on_c, 0, 59, 91
3, 38976, Note_off_c, 0, 59, 0
3, 38976, Note_on_c, 0, 55, 99
3, 39168, Note_off_c, 0, 55, 0
3, 39168, Note_on_c, 0, 47, 122
3, 39168, Note_on_c, 0, 35, 122
3, 39360, Note_off_c, 0, 35, 0
3, 39360, Note_off_c, 0, 47, 0
3, 39360, Note_on_c, 0, 50, 96
3, 39552, Note_off_c, 0, 50, 0
3, 39552, Note_on_c, 0, 54, 99
3, 39744, Note_off_c, 0, 54, 0
3, 39744, Note_on_c, 0, 54, 109
3, 39936, Note_off_c, 0, 54, 0
3, 39936, Note_on_c, 0, 50, 104
3, 40128, Note_off_c, 0, 50, 0
3, 40128, Note_on_c, 0, 47, 99
3, 40320, Note_off_c, 0, 47, 0
3, 40320, Note_on_c, 0, 55, 120
3, 40320, Note_on_c, 0, 40, 120
3, 40512, Note_off_c, 0, 40, 0
3, 40512, Note_off_c, 0, 55, 0
3, 40512, Note_on_c, 0, 59, 96
3, 40704, Note_off_c, 0, 59, 0
3, 40704, Note_on_c, 0, 64, 99
3, 40896, Note_off_c, 0, 64, 0
3, 40896, Note_on_c, 0, 64, 114
3, 41088, Note_off_c, 0, 64, 0
3, 41088, Note_on_c, 0, 59, 91
3, 41280, Note_off_c, 0, 59, 0
3, 41280, Note_on_c, 0, 55, 99
3, 41472, Note_off_c, 0, 55, 0
3, 41472, Note_on_c, 0, 47, 122
3, 41472, Note_on_c, 0, 35, 122
3, 41664, Note_off_c, 0, 35, 0
3, 41664, Note_off_c, 0, 47, 0
3, 41664, Note_on_c, 0, 50, 96
3, 41856, Note_off_c, 0, 50, 0
3, 41856, Note_on_c, 0, 54, 99
3, 42048, Note_off_c, 0, 54, 0
3, 42048, Note_on_c, 0, 54, 109
3, 42240, Note_off_c, 0, 54, 0
3, 42240, Note_on_c, 0, 50, 104
3, 42432, Note_off_c, 0, 50, 0
3, 42432, Note_on_c, 0, 47, 99
3, 42624, Note_off_c, 0, 47, 0
3, 42624, Note_on_c, 0, 55, 120
3, 42624, Note_on_c, 0, 40, 120
3, 42816, Note_off_c, 0, 40, 0
3, 42816, Note_off_c, 0, 55, 0
3, 42816, Note_on_c, 0, 59, 96
3, 43008, Note_off_c, 0, 59, 0
3, 43008, Note_on_c, 0, 64, 99
3, 43200, Note_off_c, 0, 64, 0
3, 43200, Note_on_c, 0, 64, 114
3, 43392, Note_off_c, 0, 64, 0
3, 43392, Note_on_c, 0, 59, 91
3, 43584, Note_off_c, 0, 59, 0
3, 43584, Note_on_c, 0, 55, 99
3, 43776, Note_off_c, 0, 55, 0
3, 43776, Note_on_c, 0, 47, 122
3, 43776, Note_on_c, 0, 35, 122
3, 43968, Note_off_c, 0, 35, 0
3, 43968, Note_off_c, 0, 47, 0
3, 43968, Note_on_c, 0, 50, 96
3, 44160, Note_off_c, 0, 50, 0
3, 44160, Note_on_c, 0, 54, 99
3, 44352, Note_off_c, 0, 54, 0
3, 44352, Note_on_c, 0, 54, 109
3, 44544, Note_off_c, 0, 54, 0
3, 44544, Note_on_c, 0, 50, 104
3, 44736, Note_off_c, 0, 50, 0
3, 44736, Note_on_c, 0, 47, 99
3, 44928, Note_off_c, 0, 47, 0
3, 44928, Note_on_c, 0, 55, 120
3, 44928, Note_on_c, 0, 40, 120
3, 45120, Note_off_c, 0, 40, 0
3, 45120, Note_off_c, 0, 55, 0
3, 45120, Note_on_c, 0, 59, 96
3, 45312, Note_off_c, 0, 59, 0
3, 45312, Note_on_c, 0, 64, 99
3, 45504, Note_off_c, 0, 64, 0
3, 45504, Note_on_c, 0, 64, 114
3, 45696, Note_off_c, 0, 64, 0
3, 45696, Note_on_c, 0, 59, 91
3, 45888, Note_off_c, 0, 59, 0
3, 45888, Note_on_c, 0, 55, 99
3, 46080, Note_off_c, 0, 55, 0
3, 46080, Note_on_c, 0, 47, 122
3, 46080, Note_on_c, 0, 35, 122
3, 46272, Note_off_c, 0, 35, 0
3, 46272, Note_off_c, 0, 47, 0
3, 46272, Note_on_c, 0, 50, 96
3, 46464, Note_off_c, 0, 50, 0
3, 46464, Note_on_c, 0, 54, 99
3, 46656, Note_off_c, 0, 54, 0
3, 46656, Note_on_c, 0, 54, 109
3, 46848, Note_off_c, 0, 54, 0
3, 46848, Note_on_c, 0, 50, 104
3, 47040, Note_off_c, 0, 50, 0
3, 47040, Note_on_c, 0, 47, 99
3, 47232, Note_off_c, 0, 47, 0
3, 47232, Note_on_c, 0, 55, 120
3, 47232, Note_on_c, 0, 40, 120
3, 47424, Note_off_c, 0, 40, 0
3, 47424, Note_off_c, 0, 55, 0
3, 47424, Note_on_c, 0, 59, 96
3, 47616, Note_off_c, 0, 59, 0
3, 47616, Note_on_c, 0, 64, 99
3, 47808, Note_off_c, 0, 64, 0
3, 47808, Note_on_c, 0, 64, 114
3, 48000, Note_off_c, 0, 64, 0
3, 48000, Note_on_c, 0, 59, 91
3, 48192, Note_off_c, 0, 59, 0
3, 48192, Note_on_c, 0, 55, 99
3, 48384, Note_off_c, 0, 55, 0
3, 48384, Note_on_c, 0, 47, 122
3, 48384, Note_on_c, 0, 35, 122
3, 48576, Note_off_c, 0, 35, 0
3, 48576, Note_off_c, 0, 47, 0
3, 48576, Note_on_c, 0, 50, 96
3, 48768, Note_off_c, 0, 50, 0
3, 48768, Note_on_c, 0, 54, 99
3, 48960, Note_off_c, 0, 54, 0
3, 48960, Note_on_c, 0, 54, 109
3, 49152, Note_off_c, 0, 54, 0
3, 49152, Note_on_c, 0, 50, 104
3, 49344, Note_off_c, 0, 50, 0
3, 49344, Note_on_c, 0, 47, 99
3, 49536, Note_off_c, 0, 47, 0
3, 49536, Note_on_c, 0, 55, 120
3, 49536, Note_on_c, 0, 40, 120
3, 49728, Note_off_c, 0, 40, 0
3, 49728, Note_off_c, 0, 55, 0
3, 49728, Note_on_c, 0, 59, 96
3, 49920, Note_off_c, 0, 59, 0
3, 49920, Note_on_c, 0, 64, 99
3, 50112, Note_off_c, 0, 64, 0
3, 50112, Note_on_c, 0, 64, 114
3, 50304, Note_off_c, 0, 64, 0
3, 50304, Note_on_c, 0, 59, 91
3, 50496, Note_off_c, 0, 59, 0
3, 50496, Note_on_c, 0, 55, 99
3, 50688, Note_off_c, 0, 55, 0
3, 50688, Note_on_c, 0, 47, 122
3, 50688, Note_on_c, 0, 35, 122
3, 50880, Note_off_c, 0, 35, 0
3, 50880, Note_off_c, 0, 47, 0
3, 50880, Note_on_c, 0, 50, 96
3, 51072, Note_off_c, 0, 50, 0
3, 51072, Note_on_c, 0, 54, 99
3, 51264, Note_off_c, 0, 54, 0
3, 51264, Note_on_c, 0, 54, 109
3, 51456, Note_off_c, 0, 54, 0
3, 51456, Note_on_c, 0, 50, 104
3, 51648, Note_off_c, 0, 50, 0
3, 51648, Note_on_c, 0, 47, 99
3, 51840, Note_off_c, 0, 47, 0
3, 51840, Note_on_c, 0, 55, 120
3, 51840, Note_on_c, 0, 40, 120
3, 52032, Note_off_c, 0, 40, 0
3, 52032, Note_off_c, 0, 55, 0
3, 52032, Note_on_c, 0, 59, 96
3, 52224, Note_off_c, 0, 59, 0
3, 52224, Note_on_c, 0, 64, 99
3, 52416, Note_off_c, 0, 64, 0
3, 52416, Note_on_c, 0, 64, 114
3, 52608, Note_off_c, 0, 64, 0
3, 52608, Note_on_c, 0, 59, 91
3, 52800, Note_off_c, 0, 59, 0
3, 52800, Note_on_c, 0, 55, 99
3, 52992, Note_off_c, 0, 55, 0
3, 52992, Note_on_c, 0, 47, 122
3, 52992, Note_on_c, 0, 35, 122
3, 53184, Note_off_c, 0, 35, 0
3, 53184, Note_off_c, 0, 47, 0
3, 53184, Note_on_c, 0, 50, 96
3, 53376, Note_off_c, 0, 50, 0
3, 53376, Note_on_c, 0, 54, 99
3, 53568, Note_off_c, 0, 54, 0
3, 53568, Note_on_c, 0, 54, 109
3, 53760, Note_off_c, 0, 54, 0
3, 53760, Note_on_c, 0, 50, 104
3, 53952, Note_off_c, 0, 50, 0
3, 53952, Note_on_c, 0, 47, 99
3, 54144, Note_off_c, 0, 47, 0
3, 54144, Note_on_c, 0, 55, 127
3, 54144, Note_on_c, 0, 64, 127
3, 54144, Note_on_c, 0, 59, 127
3, 54144, Note_on_c, 0, 40, 127
3, 54144, Note_on_c, 0, 52, 127
3, 54336, Note_off_c, 0, 52, 64
3, 54336, Note_off_c, 0, 40, 64
3, 54336, Note_off_c, 0, 59, 64
3, 54336, Note_off_c, 0, 64, 64
3, 54336, Note_off_c, 0, 55, 64
3, 54336, Note_on_c, 0, 67, 101
3, 54336, Note_on_c, 0, 55, 101
3, 54336, Note_on_c, 0, 64, 101
3, 54336, Note_on_c, 0, 59, 101
3, 54528, Note_off_c, 0, 59, 64
3, 54528, Note_off_c, 0, 64, 64
3, 54528, Note_off_c, 0, 55, 64
3, 54528, Note_off_c, 0, 67, 64
3, 54528, Note_on_c, 0, 67, 104
3, 54528, Note_on_c, 0, 55, 104
3, 54528, Note_on_c, 0, 64, 104
3, 54528, Note_on_c, 0, 59, 104
3, 54720, Note_off_c, 0, 59, 64
3, 54720, Note_off_c, 0, 64, 64
3, 54720, Note_off_c, 0, 55, 64
3, 54720, Note_off_c, 0, 67, 64
3, 54720, Note_on_c, 0, 67, 116
3, 54720, Note_on_c, 0, 55, 116
3, 54720, Note_on_c, 0, 64, 116
3, 54720, Note_on_c, 0, 59, 116
3, 54912, Note_off_c, 0, 59, 64
3, 54912, Note_off_c, 0, 64, 64
3, 54912, Note_off_c, 0, 55, 64
3, 54912, Note_off_c, 0, 67, 64
3, 54912, Note_on_c, 0, 55, 98
3, 54912, Note_on_c, 0, 64, 98
3, 54912, Note_on_c, 0, 59, 98
3, 55104, Note_off_c, 0, 59, 64
3, 55104, Note_off_c, 0, 64, 64
3, 55104, Note_off_c, 0, 55, 64
3, 55104, Note_on_c, 0, 67, 99
3, 55104, Note_on_c, 0, 55, 99
3, 55104, Note_on_c, 0, 64, 99
3, 55104, Note_on_c, 0, 59, 99
3, 55296, Note_off_c, 0, 59, 64
3, 55296, Note_off_c, 0, 64, 64
3, 55296, Note_off_c, 0, 55, 64
3, 55296, Note_off_c, 0, 67, 64
3, 55296, Note_on_c, 0, 59, 127
3, 55296, Note_on_c, 0, 54, 127
3, 55296, Note_on_c, 0, 47, 127
3, 55488, Note_off_c, 0, 59, 64
3, 55488, Note_on_c, 0, 62, 101
3, 55488, Note_on_c, 0, 59, 101
3, 55680, Note_off_c, 0, 59, 64
3, 55680, Note_off_c, 0, 62, 64
3, 55680, Note_on_c, 0, 62, 104
3, 55680, Note_on_c, 0, 59, 104
3, 55680, Note_on_c, 0, 66, 104
3, 55872, Note_off_c, 0, 66, 64
3, 55872, Note_off_c, 0, 59, 64
3, 55872, Note_off_c, 0, 62, 64
3, 55872, Note_on_c, 0, 62, 116
3, 55872, Note_on_c, 0, 59, 116
3, 55872, Note_on_c, 0, 66, 116
3, 55872, Note_on_c, 0, 71, 116
3, 56064, Note_off_c, 0, 71, 64
3, 56064, Note_off_c, 0, 66, 64
3, 56064, Note_off_c, 0, 59, 64
3, 56064, Note_off_c, 0, 62, 64
3, 56064, Note_on_c, 0, 62, 98
3, 56064, Note_on_c, 0, 59, 98
3, 56064, Note_on_c, 0, 66, 98
3, 56256, Note_off_c, 0, 66, 64
3, 56256, Note_off_c, 0, 59, 64
3, 56256, Note_off_c, 0, 62, 64
3, 56256, Note_on_c, 0, 62, 99
3, 56256, Note_on_c, 0, 59, 99
3, 56448, Note_off_c, 0, 59, 64
3, 56448, Note_off_c, 0, 62, 64
3, 56448, Note_off_c, 0, 47, 64
3, 56448, Note_off_c, 0, 54, 64
3, 56448, Note_on_c, 0, 55, 127
3, 56448, Note_on_c, 0, 64, 127
3, 56448, Note_on_c, 0, 59, 127
3, 56448, Note_on_c, 0, 40, 127
3, 56448, Note_on_c, 0, 52, 127
3, 56640, Note_off_c, 0, 52, 64
3, 56640, Note_off_c, 0, 40, 64
3, 56640, Note_off_c, 0, 59, 64
3, 56640, Note_off_c, 0, 64, 64
3, 56640, Note_off_c, 0, 55, 64
3, 56640, Note_on_c, 0, 67, 101
3, 56640, Note_on_c, 0, 55, 101
3, 56640, Note_on_c, 0, 64, 101
3, 56640, Note_on_c, 0, 59, 101
3, 56832, Note_off_c, 0, 59, 64
3, 56832, Note_off_c, 0, 64, 64
3, 56832, Note_off_c, 0, 55, 64
3, 56832, Note_off_c, 0, 67, 64
3, 56832, Note_on_c, 0, 67, 104
3, 56832, Note_on_c, 0, 55, 104
3, 56832, Note_on_c, 0, 64, 104
3, 56832, Note_on_c, 0, 59, 104
3, 57024, Note_off_c, 0, 59, 64
3, 57024, Note_off_c, 0, 64, 64
3, 57024, Note_off_c, 0, 55, 64
3, 57024, Note_off_c, 0, 67, 64
3, 57024, Note_on_c, 0, 67, 116
3, 57024, Note_on_c, 0, 55, 116
3, 57024, Note_on_c, 0, 64, 116
3, 57024, Note_on_c, 0, 59, 116
3, 57216, Note_off_c, 0, 59, 64
3, 57216, Note_off_c, 0, 64, 64
3, 57216, Note_off_c, 0, 55, 64
3, 57216, Note_off_c, 0, 67, 64
3, 57216, Note_on_c, 0, 55, 98
3, 57216, Note_on_c, 0, 64, 98
3, 57216, Note_on_c, 0, 59, 98
3, 57408, Note_off_c, 0, 59, 64
3, 57408, Note_off_c, 0, 64, 64
3, 57408, Note_off_c, 0, 55, 64
3, 57408, Note_on_c, 0, 67, 99
3, 57408, Note_on_c, 0, 55, 99
3, 57408, Note_on_c, 0, 64, 99
3, 57408, Note_on_c, 0, 59, 99
3, 57600, Note_off_c, 0, 59, 64
3, 57600, Note_off_c, 0, 64, 64
3, 57600, Note_off_c, 0, 55, 64
3, 57600, Note_off_c, 0, 67, 64
3, 57600, Note_on_c, 0, 59, 127
3, 57600, Note_on_c, 0, 54, 127
3, 57600, Note_on_c, 0, 47, 127
3, 57792, Note_off_c, 0, 59, 64
3, 57792, Note_on_c, 0, 62, 101
3, 57792, Note_on_c, 0, 59, 101
3, 57984, Note_off_c, 0, 59, 64
3, 57984, Note_off_c, 0, 62, 64
3, 57984, Note_on_c, 0, 62, 104
3, 57984, Note_on_c, 0, 59, 104
3, 57984, Note_on_c, 0, 66, 104
3, 58176, Note_off_c, 0, 66, 64
3, 58176, Note_off_c, 0, 59, 64
3, 58176, Note_off_c, 0, 62, 64
3, 58176, Note_on_c, 0, 62, 116
3, 58176, Note_on_c, 0, 59, 116
3, 58176, Note_on_c, 0, 66, 116
3, 58176, Note_on_c, 0, 71, 116
3, 58368, Note_off_c, 0, 71, 64
3, 58368, Note_off_c, 0, 66, 64
3, 58368, Note_off_c, 0, 59, 64
3, 58368, Note_off_c, 0, 62, 64
3, 58368, Note_on_c, 0, 62, 98
3, 58368, Note_on_c, 0, 59, 98
3, 58368, Note_on_c, 0, 66, 98
3, 58560, Note_off_c, 0, 66, 64
3, 58560, Note_off_c, 0, 59, 64
3, 58560, Note_off_c, 0, 62, 64
3, 58560, Note_on_c, 0, 62, 99
3, 58560, Note_on_c, 0, 59, 99
3, 58752, Note_off_c, 0, 59, 64
3, 58752, Note_off_c, 0, 62, 64
3, 58752, Note_off_c, 0, 47, 64
3, 58752, Note_off_c, 0, 54, 64
3, 58752, Note_on_c, 0, 55, 127
3, 58752, Note_on_c, 0, 64, 127
3, 58752, Note_on_c, 0, 59, 127
3, 58752, Note_on_c, 0, 40, 127
3, 58752, Note_on_c, 0, 52, 127
3, 58944, Note_off_c, 0, 52, 64
3, 58944, Note_off_c, 0, 40, 64
3, 58944, Note_off_c, 0, 59, 64
3, 58944, Note_off_c, 0, 64, 64
3, 58944, Note_off_c, 0, 55, 64
3, 58944, Note_on_c, 0, 67, 101
3, 58944, Note_on_c, 0, 55, 101
3, 58944, Note_on_c, 0, 64, 101
3, 58944, Note_on_c, 0, 59, 101
3, 59136, Note_off_c, 0, 59, 64
3, 59136, Note_off_c, 0, 64, 64
3, 59136, Note_off_c, 0, 55, 64
3, 59136, Note_off_c, 0, 67, 64
3, 59136, Note_on_c, 0, 67, 104
3, 59136, Note_on_c, 0, 55, 104
3, 59136, Note_on_c, 0, 64, 104
3, 59136, Note_on_c, 0, 59, 104
3, 59328, Note_off_c, 0, 59, 64
3, 59328, Note_off_c, 0, 64, 64
3, 59328, Note_off_c, 0, 55, 64
3, 59328, Note_off_c, 0, 67, 64
3, 59328, Note_on_c, 0, 67, 116
3, 59328, Note_on_c, 0, 55, 116
3, 59328, Note_on_c, 0, 64, 116
3, 59328, Note_on_c, 0, 59, 116
3, 59520, Note_off_c, 0, 59, 64
3, 59520, Note_off_c, 0, 64, 64
3, 59520, Note_off_c, 0, 55, 64
3, 59520, Note_off_c, 0, 67, 64
3, 59520, Note_on_c, 0, 55, 98
3, 59520, Note_on_c, 0, 64, 98
3, 59520, Note_on_c, 0, 59, 98
3, 59712, Note_off_c, 0, 59, 64
3, 59712, Note_off_c, 0, 64, 64
3, 59712, Note_off_c, 0, 55, 64
3, 59712, Note_on_c, 0, 67, 99
3, 59712, Note_on_c, 0, 55, 99
3, 59712, Note_on_c, 0, 64, 99
3, 59712, Note_on_c, 0, 59, 99
3, 59904, Note_off_c, 0, 59, 64
3, 59904, Note_off_c, 0, 64, 64
3, 59904, Note_off_c, 0, 55, 64
3, 59904, Note_off_c, 0, 67, 64
3, 59904, Note_on_c, 0, 59, 127
3, 59904, Note_on_c, 0, 54, 127
3, 59904, Note_on_c, 0, 47, 127
3, 60096, Note_off_c, 0, 59, 64
3, 60096, Note_on_c, 0, 62, 101
3, 60096, Note_on_c, 0, 59, 101
3, 60288, Note_off_c, 0, 59, 64
3, 60288, Note_off_c, 0, 62, 64
3, 60288, Note_on_c, 0, 62, 104
3, 60288, Note_on_c, 0, 59, 104
3, 60288, Note_on_c, 0, 66, 104
3, 60480, Note_off_c, 0, 66, 64
3, 60480, Note_off_c, 0, 59, 64
3, 60480, Note_off_c, 0, 62, 64
3, 60480, Note_on_c, 0, 62, 116
3, 60480, Note_on_c, 0, 59, 116
3, 60480, Note_on_c, 0, 66, 116
3, 60480, Note_on_c, 0, 71, 116
3, 60672, Note_off_c, 0, 71, 64
3, 60672, Note_off_c, 0, 66, 64
3, 60672, Note_off_c, 0, 59, 64
3, 60672, Note_off_c, 0, 62, 64
3, 60672, Note_on_c, 0, 62, 98
3, 60672, Note_on_c, 0, 59, 98
3, 60672, Note_on_c, 0, 66, 98
3, 60864, Note_off_c, 0, 66, 64
3, 60864, Note_off_c, 0, 59, 64
3, 60864, Note_off_c, 0, 62, 64
3, 60864, Note_on_c, 0, 62, 99
3, 60864, Note_on_c, 0, 59, 99
3, 61056, Note_off_c, 0, 59, 64
3, 61056, Note_off_c, 0, 62, 64
3, 61056, Note_off_c, 0, 47, 64
3, 61056, Note_off_c, 0, 54, 64
3, 61056, Note_on_c, 0, 55, 127
3, 61056, Note_on_c, 0, 64, 127
3, 61056, Note_on_c, 0, 59, 127
3, 61056, Note_on_c, 0, 40, 127
3, 61056, Note_on_c, 0, 52, 127
3, 61248, Note_off_c, 0, 52, 64
3, 61248, Note_off_c, 0, 40, 64
3, 61248, Note_off_c, 0, 59, 64
3, 61248, Note_off_c, 0, 64, 64
3, 61248, Note_off_c, 0, 55, 64
3, 61248, Note_on_c, 0, 67, 101
3, 61248, Note_on_c, 0, 55, 101
3, 61248, Note_on_c, 0, 64, 101
3, 61248, Note_on_c, 0, 59, 101
3, 61440, Note_off_c, 0, 59, 64
3, 61440, Note_off_c, 0, 64, 64
3, 61440, Note_off_c, 0, 55, 64
3, 61440, Note_off_c, 0, 67, 64
3, 61440, Note_on_c, 0, 67, 104
3, 61440, Note_on_c, 0, 55, 104
3, 61440, Note_on_c, 0, 64, 104
3, 61440, Note_on_c, 0, 59, 104
3, 61632, Note_off_c, 0, 59, 64
3, 61632, Note_off_c, 0, 64, 64
3, 61632, Note_off_c, 0, 55, 64
3, 61632, Note_off_c, 0, 67, 64
3, 61632, Note_on_c, 0, 67, 116
3, 61632, Note_on_c, 0, 55, 116
3, 61632, Note_on_c, 0, 64, 116
3, 61632, Note_on_c, 0, 59, 116
3, 61824, Note_off_c, 0, 59, 64
3, 61824, Note_off_c, 0, 64, 64
3, 61824, Note_off_c, 0, 55, 64
3, 61824, Note_off_c, 0, 67, 64
3, 61824, Note_on_c, 0, 55, 98
3, 61824, Note_on_c, 0, 64, 98
3, 61824, Note_on_c, 0, 59, 98
3, 62016, Note_off_c, 0, 59, 64
3, 62016, Note_off_c, 0, 64, 64
3, 62016, Note_off_c, 0, 55, 64
3, 62016, Note_on_c, 0, 67, 99
3, 62016, Note_on_c, 0, 55, 99
3, 62016, Note_on_c, 0, 64, 99
3, 62016, Note_on_c, 0, 59, 99
3, 62208, Note_off_c, 0, 59, 64
3, 62208, Note_off_c, 0, 64, 64
3, 62208, Note_off_c, 0, 55, 64
3, 62208, Note_off_c, 0, 67, 64
3, 62208, Note_on_c, 0, 59, 127
3, 62208, Note_on_c, 0, 54, 127
3, 62208, Note_on_c, 0, 47, 127
3, 62400, Note_off_c, 0, 59, 64
3, 62400, Note_on_c, 0, 62, 101
3, 62400, Note_on_c, 0, 59, 101
3, 62592, Note_off_c, 0, 59, 64
3, 62592, Note_off_c, 0, 62, 64
3, 62592, Note_on_c, 0, 62, 104
3, 62592, Note_on_c, 0, 59, 104
3, 62592, Note_on_c, 0, 66, 104
3, 62784, Note_off_c, 0, 66, 64
3, 62784, Note_off_c, 0, 59, 64
3, 62784, Note_off_c, 0, 62, 64
3, 62784, Note_on_c, 0, 62, 116
3, 62784, Note_on_c, 0, 59, 116
3, 62784, Note_on_c, 0, 66, 116
3, 62784, Note_on_c, 0, 71, 116
3, 62976, Note_off_c, 0, 71, 64
3, 62976, Note_off_c, 0, 66, 64
3, 62976, Note_off_c, 0, 59, 64
3, 62976, Note_off_c, 0, 62, 64
3, 62976, Note_on_c, 0, 62, 98
3, 62976, Note_on_c, 0, 59, 98
3, 62976, Note_on_c, 0, 66, 98
3, 63168, Note_off_c, 0, 66, 64
3, 63168, Note_off_c, 0, 59, 64
3, 63168, Note_off_c, 0, 62, 64
3, 63168, Note_on_c, 0, 62, 99
3, 63168, Note_on_c, 0, 59, 99
3, 63360, Note_off_c, 0, 59, 64
3, 63360, Note_off_c, 0, 62, 64
3, 63360, Note_off_c, 0, 47, 64
3, 63360, Note_off_c, 0, 54, 64
3, 63360, Note_on_c, 0, 55, 120
3, 63360, Note_on_c, 0, 40, 120
3, 63552, Note_off_c, 0, 40, 0
3, 63552, Note_off_c, 0, 55, 0
3, 63552, Note_on_c, 0, 59, 96
3, 63744, Note_off_c, 0, 59, 0
3, 63744, Note_on_c, 0, 64, 99
3, 63936, Note_off_c, 0, 64, 0
3, 63936, Note_on_c, 0, 64, 114
3, 64128, Note_off_c, 0, 64, 0
3, 64128, Note_on_c, 0, 59, 91
3, 64320, Note_off_c, 0, 59, 0
3, 64320, Note_on_c, 0, 55, 99
3, 64512, Note_off_c, 0, 55, 0
3, 64512, Note_on_c, 0, 47, 122
3, 64512, Note_on_c, 0, 35, 122
3, 64704, Note_off_c, 0, 35, 0
3, 64704, Note_off_c, 0, 47, 0
3, 64704, Note_on_c, 0, 50, 96
3, 64896, Note_off_c, 0, 50, 0
3, 64896, Note_on_c, 0, 54, 99
3, 65088, Note_off_c, 0, 54, 0
3, 65088, Note_on_c, 0, 54, 109
3, 65280, Note_off_c, 0, 54, 0
3, 65280, Note_on_c, 0, 50, 104
3, 65472, Note_off_c, 0, 50, 0
3, 65472, Note_on_c, 0, 47, 99
3, 65664, Note_off_c, 0, 47, 0
3, 65664, Note_on_c, 0, 55, 120
3, 65664, Note_on_c, 0, 40, 120
3, 65856, Note_off_c, 0, 40, 0
3, 65856, Note_off_c, 0, 55, 0
3, 65856, Note_on_c, 0, 59, 96
3, 66048, Note_off_c, 0, 59, 0
3, 66048, Note_on_c, 0, 64, 99
3, 66240, Note_off_c, 0, 64, 0
3, 66240, Note_on_c, 0, 64, 114
3, 66432, Note_off_c, 0, 64, 0
3, 66432, Note_on_c, 0, 59, 91
3, 66624, Note_off_c, 0, 59, 0
3, 66624, Note_on_c, 0, 55, 99
3, 66816, Note_off_c, 0, 55, 0
3, 66816, Note_on_c, 0, 47, 122
3, 66816, Note_on_c, 0, 35, 122
3, 67008, Note_off_c, 0, 35, 0
3, 67008, Note_off_c, 0, 47, 0
3, 67008, Note_on_c, 0, 50, 96
3, 67200, Note_off_c, 0, 50, 0
3, 67200, Note_on_c, 0, 54, 99
3, 67392, Note_off_c, 0, 54, 0
3, 67392, Note_on_c, 0, 54, 109
3, 67584, Note_off_c, 0, 54, 0
3, 67584, Note_on_c, 0, 50, 104
3, 67776, Note_off_c, 0, 50, 0
3, 67776, Note_on_c, 0, 47, 99
3, 67968, Note_off_c, 0, 47, 0
3, 67968, Note_on_c, 0, 55, 120
3, 67968, Note_on_c, 0, 40, 120
3, 68160, Note_off_c, 0, 40, 0
3, 68160, Note_off_c, 0, 55, 0
3, 68160, Note_on_c, 0, 59, 96
3, 68352, Note_off_c, 0, 59, 0
3, 68352, Note_on_c, 0, 64, 99
3, 68544, Note_off_c, 0, 64, 0
3, 68544, Note_on_c, 0, 64, 114
3, 68736, Note_off_c, 0, 64, 0
3, 68736, Note_on_c, 0, 59, 91
3, 68928, Note_off_c, 0, 59, 0
3, 68928, Note_on_c, 0, 55, 99
3, 69120, Note_off_c, 0, 55, 0
3, 69120, Note_on_c, 0, 47, 122
3, 69120, Note_on_c, 0, 35, 122
3, 69312, Note_off_c, 0, 35, 0
3, 69312, Note_off_c, 0, 47, 0
3, 69312, Note_on_c, 0, 50, 96
3, 69504, Note_off_c, 0, 50, 0
3, 69504, Note_on_c, 0, 54, 99
3, 69696, Note_off_c, 0, 54, 0
3, 69696, Note_on_c, 0, 54, 109
3, 69888, Note_off_c, 0, 54, 0
3, 69888, Note_on_c, 0, 50, 104
3, 70080, Note_off_c, 0, 50, 0
3, 70080, Note_on_c, 0, 47, 99
3, 70272, Note_off_c, 0, 47, 0
3, 70272, Note_on_c, 0, 55, 120
3, 70272, Note_on_c, 0, 40, 120
3, 70464, Note_off_c, 0, 40, 0
3, 70464, Note_off_c, 0, 55, 0
3, 70464, Note_on_c, 0, 59, 96
3, 70656, Note_off_c, 0, 59, 0
3, 70656, Note_on_c, 0, 64, 99
3, 70848, Note_off_c, 0, 64, 0
3, 70848, Note_on_c, 0, 64, 114
3, 71040, Note_off_c, 0, 64, 0
3, 71040, Note_on_c, 0, 59, 91
3, 71232, Note_off_c, 0, 59, 0
3, 71232, Note_on_c, 0, 55, 99
3, 71424, Note_off_c, 0, 55, 0
3, 71424, Note_on_c, 0, 47, 122
3, 71424, Note_on_c, 0, 35, 122
3, 71616, Note_off_c, 0, 35, 0
3, 71616, Note_off_c, 0, 47, 0
3, 71616, Note_on_c, 0, 50, 96
3, 71808, Note_off_c, 0, 50, 0
3, 71808, Note_on_c, 0, 54, 99
3, 72000, Note_off_c, 0, 54, 0
3, 72000, Note_on_c, 0, 54, 109
3, 72192, Note_off_c, 0, 54, 0
3, 72192, Note_on_c, 0, 50, 104
3, 72384, Note_off_c, 0, 50, 0
3, 72384, Note_on_c, 0, 47, 99
3, 72576, Note_off_c, 0, 47, 0
3, 72576, Note_on_c, 0, 55, 120
3, 72576, Note_on_c, 0, 40, 120
3, 72768, Note_off_c, 0, 40, 0
3, 72768, Note_off_c, 0, 55, 0
3, 72768, Note_on_c, 0, 59, 96
3, 72960, Note_off_c, 0, 59, 0
3, 72960, Note_on_c, 0, 64, 99
3, 73152, Note_off_c, 0, 64, 0
3, 73152, Note_on_c, 0, 64, 114
3, 73344, Note_off_c, 0, 64, 0
3, 73344, Note_on_c, 0, 59, 91
3, 73536, Note_off_c, 0, 59, 0
3, 73536, Note_on_c, 0, 55, 99
3, 73728, Note_off_c, 0, 55, 0
3, 73728, Note_on_c, 0, 47, 122
3, 73728, Note_on_c, 0, 35, 122
3, 73920, Note_off_c, 0, 35, 0
3, 73920, Note_off_c, 0, 47, 0
3, 73920, Note_on_c, 0, 50, 96
3, 74112, Note_off_c, 0, 50, 0
3, 74112, Note_on_c, 0, 54, 99
3, 74304, Note_off_c, 0, 54, 0
3, 74304, Note_on_c, 0, 54, 109
3, 74496, Note_off_c, 0, 54, 0
3, 74496, Note_on_c, 0, 50, 104
3, 74688, Note_off_c, 0, 50, 0
3, 74688, Note_on_c, 0, 47, 99
3, 74880, Note_off_c, 0, 47, 0
3, 74880, Note_on_c, 0, 55, 120
3, 74880, Note_on_c, 0, 40, 120
3, 75072, Note_off_c, 0, 40, 0
3, 75072, Note_off_c, 0, 55, 0
3, 75072, Note_on_c, 0, 59, 96
3, 75264, Note_off_c, 0, 59, 0
3, 75264, Note_on_c, 0, 64, 99
3, 75456, Note_off_c, 0, 64, 0
3, 75456, Note_on_c, 0, 64, 114
3, 75648, Note_off_c, 0, 64, 0
3, 75648, Note_on_c, 0, 59, 91
3, 75840, Note_off_c, 0, 59, 0
3, 75840, Note_on_c, 0, 55, 99
3, 76032, Note_off_c, 0, 55, 0
3, 76032, Note_on_c, 0, 47, 122
3, 76032, Note_on_c, 0, 35, 122
3, 76224, Note_off_c, 0, 35, 0
3, 76224, Note_off_c, 0, 47, 0
3, 76224, Note_on_c, 0, 50, 96
3, 76416, Note_off_c, 0, 50, 0
3, 76416, Note_on_c, 0, 54, 99
3, 76608, Note_off_c, 0, 54, 0
3, 76608, Note_on_c, 0, 54, 109
3, 76800, Note_off_c, 0, 54, 0
3, 76800, Note_on_c, 0, 50, 104
3, 76992, Note_off_c, 0, 50, 0
3, 76992, Note_on_c, 0, 47, 99
3, 77184, Note_off_c, 0, 47, 0
3, 77184, Note_on_c, 0, 55, 120
3, 77184, Note_on_c, 0, 40, 120
3, 77376, Note_off_c, 0, 40, 0
3, 77376, Note_off_c, 0, 55, 0
3, 77376, Note_on_c, 0, 59, 96
3, 77568, Note_off_c, 0, 59, 0
3, 77568, Note_on_c, 0, 64, 99
3, 77760, Note_off_c, 0, 64, 0
3, 77760, Note_on_c, 0, 64, 114
3, 77952, Note_off_c, 0, 64, 0
3, 77952, Note_on_c, 0, 59, 91
3, 78144, Note_off_c, 0, 59, 0
3, 78144, Note_on_c, 0, 55, 99
3, 78336, Note_off_c, 0, 55, 0
3, 78336, Note_on_c, 0, 47, 122
3, 78336, Note_on_c, 0, 35, 122
3, 78528, Note_off_c, 0, 35, 0
3, 78528, Note_off_c, 0, 47, 0
3, 78528, Note_on_c, 0, 50, 96
3, 78720, Note_off_c, 0, 50, 0
3, 78720, Note_on_c, 0, 54, 99
3, 78912, Note_off_c, 0, 54, 0
3, 78912, Note_on_c, 0, 54, 109
3, 79104, Note_off_c, 0, 54, 0
3, 79104, Note_on_c, 0, 50, 104
3, 79296, Note_off_c, 0, 50, 0
3, 79296, Note_on_c, 0, 47, 99
3, 79488, Note_off_c, 0, 47, 0
3, 79488, Note_on_c, 0, 55, 120
3, 79488, Note_on_c, 0, 40, 120
3, 79680, Note_off_c, 0, 40, 0
3, 79680, Note_off_c, 0, 55, 0
3, 79680, Note_on_c, 0, 59, 96
3, 79872, Note_off_c, 0, 59, 0
3, 79872, Note_on_c, 0, 64, 99
3, 80064, Note_off_c, 0, 64, 0
3, 80064, Note_on_c, 0, 64, 114
3, 80256, Note_off_c, 0, 64, 0
3, 80256, Note_on_c, 0, 59, 91
3, 80448, Note_off_c, 0, 59, 0
3, 80448, Note_on_c, 0, 55, 99
3, 80640, Note_off_c, 0, 55, 0
3, 80640, Note_on_c, 0, 47, 122
3, 80640, Note_on_c, 0, 35, 122
3, 80832, Note_off_c, 0, 35, 0
3, 80832, Note_off_c, 0, 47, 0
3, 80832, Note_on_c, 0, 50, 96
3, 81024, Note_off_c, 0, 50, 0
3, 81024, Note_on_c, 0, 54, 99
3, 81216, Note_off_c, 0, 54, 0
3, 81216, Note_on_c, 0, 54, 109
3, 81408, Note_off_c, 0, 54, 0
3, 81408, Note_on_c, 0, 50, 104
3, 81600, Note_off_c, 0, 50, 0
3, 81600, Note_on_c, 0, 47, 99
3, 81792, Note_off_c, 0, 47, 0
3, 81792, Note_on_c, 0, 55, 127
3, 81792, Note_on_c, 0, 64, 127
3, 81792, Note_on_c, 0, 59, 127
3, 81792, Note_on_c, 0, 40, 127
3, 81792, Note_on_c, 0, 52, 127
3, 81984, Note_off_c, 0, 52, 64
3, 81984, Note_off_c, 0, 40, 64
3, 81984, Note_off_c, 0, 59, 64
3, 81984, Note_off_c, 0, 64, 64
3, 81984, Note_off_c, 0, 55, 64
3, 81984, Note_on_c, 0, 67, 101
3, 81984, Note_on_c, 0, 55, 101
3, 81984, Note_on_c, 0, 64, 101
3, 81984, Note_on_c, 0, 59, 101
3, 82176, Note_off_c, 0, 59, 64
3, 82176, Note_off_c, 0, 64, 64
3, 82176, Note_off_c, 0, 55, 64
3, 82176, Note_off_c, 0, 67, 64
3, 82176, Note_on_c, 0, 67, 104
3, 82176, Note_on_c, 0, 55, 104
3, 82176, Note_on_c, 0, 64, 104
3, 82176, Note_on_c, 0, 59, 104
3, 82368, Note_off_c, 0, 59, 64
3, 82368, Note_off_c, 0, 64, 64
3, 82368, Note_off_c, 0, 55, 64
3, 82368, Note_off_c, 0, 67, 64
3, 82368, Note_on_c, 0, 67, 116
3, 82368, Note_on_c, 0, 55, 116
3, 82368, Note_on_c, 0, 64, 116
3, 82368, Note_on_c, 0, 59, 116
3, 82560, Note_off_c, 0, 59, 64
3, 82560, Note_off_c, 0, 64, 64
3, 82560, Note_off_c, 0, 55, 64
3, 82560, Note_off_c, 0, 67, 64
3, 82560, Note_on_c, 0, 55, 98
3, 82560, Note_on_c, 0, 64, 98
3, 82560, Note_on_c, 0, 59, 98
3, 82752, Note_off_c, 0, 59, 64
3, 82752, Note_off_c, 0, 64, 64
3, 82752, Note_off_c, 0, 55, 64
3, 82752, Note_on_c, 0, 67, 99
3, 82752, Note_on_c, 0, 55, 99
3, 82752, Note_on_c, 0, 64, 99
3, 82752, Note_on_c, 0, 59, 99
3, 82944, Note_off_c, 0, 59, 64
3, 82944, Note_off_c, 0, 64, 64
3, 82944, Note_off_c, 0, 55, 64
3, 82944, Note_off_c, 0, 67, 64
3, 82944, Note_on_c, 0, 59, 127
3, 82944, Note_on_c, 0, 54, 127
3, 82944, Note_on_c, 0, 47, 127
3, 83136, Note_off_c, 0, 59, 64
3, 83136, Note_on_c, 0, 62, 101
3, 83136, Note_on_c, 0, 59, 101
3, 83328, Note_off_c, 0, 59, 64
3, 83328, Note_off_c, 0, 62, 64
3, 83328, Note_on_c, 0, 62, 104
3, 83328, Note_on_c, 0, 59, 104
3, 83328, Note_on_c, 0, 66, 104
3, 83520, Note_off_c, 0, 66, 64
3, 83520, Note_off_c, 0, 59, 64
3, 83520, Note_off_c, 0, 62, 64
3, 83520, Note_on_c, 0, 62, 116
3, 83520, Note_on_c, 0, 59, 116
3, 83520, Note_on_c, 0, 66, 116
3, 83520, Note_on_c, 0, 71, 116
3, 83712, Note_off_c, 0, 71, 64
3, 83712, Note_off_c, 0, 66, 64
3, 83712, Note_off_c, 0, 59, 64
3, 83712, Note_off_c, 0, 62, 64
3, 83712, Note_on_c, 0, 62, 98
3, 83712, Note_on_c, 0, 59, 98
3, 83712, Note_on_c, 0, 66, 98
3, 83904, Note_off_c, 0, 66, 64
3, 83904, Note_off_c, 0, 59, 64
3, 83904, Note_off_c, 0, 62, 64
3, 83904, Note_on_c, 0, 62, 99
3, 83904, Note_on_c, 0, 59, 99
3, 84096, Note_off_c, 0, 59, 64
3, 84096, Note_off_c, 0, 62, 64
3, 84096, Note_off_c, 0, 47, 64
3, 84096, Note_off_c, 0, 54, 64
3, 84096, Note_on_c, 0, 55, 127
3, 84096, Note_on_c, 0, 64, 127
3, 84096, Note_on_c, 0, 59, 127
3, 84096, Note_on_c, 0, 40, 127
3, 84096, Note_on_c, 0, 52, 127
3, 84288, Note_off_c, 0, 52, 64
3, 84288, Note_off_c, 0, 40, 64
3, 84288, Note_off_c, 0, 59, 64
3, 84288, Note_off_c, 0, 64, 64
3, 84288, Note_off_c, 0, 55, 64
3, 84288, Note_on_c, 0, 67, 101
3, 84288, Note_on_c, 0, 55, 101
3, 84288, Note_on_c, 0, 64, 101
3, 84288, Note_on_c, 0, 59, 101
3, 84480, Note_off_c, 0, 59, 64
3, 84480, Note_off_c, 0, 64, 64
3, 84480, Note_off_c, 0, 55, 64
3, 84480, Note_off_c, 0, 67, 64
3, 84480, Note_on_c, 0, 67, 104
3, 84480, Note_on_c, 0, 55, 104
3, 84480, Note_on_c, 0, 64, 104
3, 84480, Note_on_c, 0, 59, 104
3, 84672, Note_off_c, 0, 59, 64
3, 84672, Note_off_c, 0, 64, 64
3, 84672, Note_off_c, 0, 55, 64
3, 84672, Note_off_c, 0, 67, 64
3, 84672, Note_on_c, 0, 67, 116
3, 84672, Note_on_c, 0, 55, 116
3, 84672, Note_on_c, 0, 64, 116
3, 84672, Note_on_c, 0, 59, 116
3, 84864, Note_off_c, 0, 59, 64
3, 84864, Note_off_c, 0, 64, 64
3, 84864, Note_off_c, 0, 55, 64
3, 84864, Note_off_c, 0, 67, 64
3, 84864, Note_on_c, 0, 55, 98
3, 84864, Note_on_c, 0, 64, 98
3, 84864, Note_on_c, 0, 59, 98
3, 85056, Note_off_c, 0, 59, 64
3, 85056, Note_off_c, 0, 64, 64
3, 85056, Note_off_c, 0, 55, 64
3, 85056, Note_on_c, 0, 67, 99
3, 85056, Note_on_c, 0, 55, 99
3, 85056, Note_on_c, 0, 64, 99
3, 85056, Note_on_c, 0, 59, 99
3, 85248, Note_off_c, 0, 59, 64
3, 85248, Note_off_c, 0, 64, 64
3, 85248, Note_off_c, 0, 55, 64
3, 85248, Note_off_c, 0, 67, 64
3, 85248, Note_on_c, 0, 59, 127
3, 85248, Note_on_c, 0, 54, 127
3, 85248, Note_on_c, 0, 47, 127
3, 85440, Note_off_c, 0, 59, 64
3, 85440, Note_on_c, 0, 62, 101
3, 85440, Note_on_c, 0, 59, 101
3, 85632, Note_off_c, 0, 59, 64
3, 85632, Note_off_c, 0, 62, 64
3, 85632, Note_on_c, 0, 62, 104
3, 85632, Note_on_c, 0, 59, 104
3, 85632, Note_on_c, 0, 66, 104
3, 85824, Note_off_c, 0, 66, 64
3, 85824, Note_off_c, 0, 59, 64
3, 85824, Note_off_c, 0, 62, 64
3, 85824, Note_on_c, 0, 62, 116
3, 85824, Note_on_c, 0, 59, 116
3, 85824, Note_on_c, 0, 66, 116
3, 85824, Note_on_c, 0, 71, 116
3, 86016, Note_off_c, 0, 71, 64
3, 86016, Note_off_c, 0, 66, 64
3, 86016, Note_off_c, 0, 59, 64
3, 86016, Note_off_c, 0, 62, 64
3, 86016, Note_on_c, 0, 62, 98
3, 86016, Note_on_c, 0, 59, 98
3, 86016, Note_on_c, 0, 66, 98
3, 86208, Note_off_c, 0, 66, 64
3, 86208, Note_off_c, 0, 59, 64
3, 86208, Note_off_c, 0, 62, 64
3, 86208, Note_on_c, 0, 62, 99
3, 86208, Note_on_c, 0, 59, 99
3, 86400, Note_off_c, 0, 59, 64
3, 86400, Note_off_c, 0, 62, 64
3, 86400, Note_off_c, 0, 47, 64
3, 86400, Note_off_c, 0, 54, 64
3, 86400, Note_on_c, 0, 55, 127
3, 86400, Note_on_c, 0, 64, 127
3, 86400, Note_on_c, 0, 59, 127
3, 86400, Note_on_c, 0, 40, 127
3, 86400, Note_on_c, 0, 52, 127
3, 86592, Note_off_c, 0, 52, 64
3, 86592, Note_off_c, 0, 40, 64
3, 86592, Note_off_c, 0, 59, 64
3, 86592, Note_off_c, 0, 64, 64
3, 86592, Note_off_c, 0, 55, 64
3, 86592, Note_on_c, 0, 67, 101
3, 86592, Note_on_c, 0, 55, 101
3, 86592, Note_on_c, 0, 64, 101
3, 86592, Note_on_c, 0, 59, 101
3, 86784, Note_off_c, 0, 59, 64
3, 86784, Note_off_c, 0, 64, 64
3, 86784, Note_off_c, 0, 55, 64
3, 86784, Note_off_c, 0, 67, 64
3, 86784, Note_on_c, 0, 67, 104
3, 86784, Note_on_c, 0, 55, 104
3, 86784, Note_on_c, 0, 64, 104
3, 86784, Note_on_c, 0, 59, 104
3, 86976, Note_off_c, 0, 59, 64
3, 86976, Note_off_c, 0, 64, 64
3, 86976, Note_off_c, 0, 55, 64
3, 86976, Note_off_c, 0, 67, 64
3, 86976, Note_on_c, 0, 67, 116
3, 86976, Note_on_c, 0, 55, 116
3, 86976, Note_on_c, 0, 64, 116
3, 86976, Note_on_c, 0, 59, 116
3, 87168, Note_off_c, 0, 59, 64
3, 87168, Note_off_c, 0, 64, 64
3, 87168, Note_off_c, 0, 55, 64
3, 87168, Note_off_c, 0, 67, 64
3, 87168, Note_on_c, 0, 55, 98
3, 87168, Note_on_c, 0, 64, 98
3, 87168, Note_on_c, 0, 59, 98
3, 87360, Note_off_c, 0, 59, 64
3, 87360, Note_off_c, 0, 64, 64
3, 87360, Note_off_c, 0, 55, 64
3, 87360, Note_on_c, 0, 67, 99
3, 87360, Note_on_c, 0, 55, 99
3, 87360, Note_on_c, 0, 64, 99
3, 87360, Note_on_c, 0, 59, 99
3, 87552, Note_off_c, 0, 59, 64
3, 87552, Note_off_c, 0, 64, 64
3, 87552, Note_off_c, 0, 55, 64
3, 87552, Note_off_c, 0, 67, 64
3, 87552, Note_on_c, 0, 59, 127
3, 87552, Note_on_c, 0, 54, 127
3, 87552, Note_on_c, 0, 47, 127
3, 87744, Note_off_c, 0, 59, 64
3, 87744, Note_on_c, 0, 62, 101
3, 87744, Note_on_c, 0, 59, 101
3, 87936, Note_off_c, 0, 59, 64
3, 87936, Note_off_c, 0, 62, 64
3, 87936, Note_on_c, 0, 62, 104
3, 87936, Note_on_c, 0, 59, 104
3, 87936, Note_on_c, 0, 66, 104
3, 88128, Note_off_c, 0, 66, 64
3, 88128, Note_off_c, 0, 59, 64
3, 88128, Note_off_c, 0, 62, 64
3, 88128, Note_on_c, 0, 62, 116
3, 88128, Note_on_c, 0, 59, 116
3, 88128, Note_on_c, 0, 66, 116
3, 88128, Note_on_c, 0, 71, 116
3, 88320, Note_off_c, 0, 71, 64
3, 88320, Note_off_c, 0, 66, 64
3, 88320, Note_off_c, 0, 59, 64
3, 88320, Note_off_c, 0, 62, 64
3, 88320, Note_on_c, 0, 62, 98
3, 88320, Note_on_c, 0, 59, 98
3, 88320, Note_on_c, 0, 66, 98
3, 88512, Note_off_c, 0, 66, 64
3, 88512, Note_off_c, 0, 59, 64
3, 88512, Note_off_c, 0, 62, 64
3, 88512, Note_on_c, 0, 62, 99
3, 88512, Note_on_c, 0, 59, 99
3, 88704, Note_off_c, 0, 59, 64
3, 88704, Note_off_c, 0, 62, 64
3, 88704, Note_off_c, 0, 47, 64
3, 88704, Note_off_c, 0, 54, 64
3, 88704, Note_on_c, 0, 55, 127
3, 88704, Note_on_c, 0, 64, 127
3, 88704, Note_on_c, 0, 59, 127
3, 88704, Note_on_c, 0, 40, 127
3, 88704, Note_on_c, 0, 52, 127
3, 88896, Note_off_c, 0, 52, 64
3, 88896, Note_off_c, 0, 40, 64
3, 88896, Note_off_c, 0, 59, 64
3, 88896, Note_off_c, 0, 64, 64
3, 88896, Note_off_c, 0, 55, 64
3, 88896, Note_on_c, 0, 67, 101
3, 88896, Note_on_c, 0, 55, 101
3, 88896, Note_on_c, 0, 64, 101
3, 88896, Note_on_c, 0, 59, 101
3, 89088, Note_off_c, 0, 59, 64
3, 89088, Note_off_c, 0, 64, 64
3, 89088, Note_off_c, 0, 55, 64
3, 89088, Note_off_c, 0, 67, 64
3, 89088, Note_on_c, 0, 67, 104
3, 89088, Note_on_c, 0, 55, 104
3, 89088, Note_on_c, 0, 64, 104
3, 89088, Note_on_c, 0, 59, 104
3, 89280, Note_off_c, 0, 59, 64
3, 89280, Note_off_c, 0, 64, 64
3, 89280, Note_off_c, 0, 55, 64
3, 89280, Note_off_c, 0, 67, 64
3, 89280, Note_on_c, 0, 67, 116
3, 89280, Note_on_c, 0, 55, 116
3, 89280, Note_on_c, 0, 64, 116
3, 89280, Note_on_c, 0, 59, 116
3, 89472, Note_off_c, 0, 59, 64
3, 89472, Note_off_c, 0, 64, 64
3, 89472, Note_off_c, 0, 55, 64
3, 89472, Note_off_c, 0, 67, 64
3, 89472, Note_on_c, 0, 55, 98
3, 89472, Note_on_c, 0, 64, 98
3, 89472, Note_on_c, 0, 59, 98
3, 89664, Note_off_c, 0, 59, 64
3, 89664, Note_off_c, 0, 64, 64
3, 89664, Note_off_c, 0, 55, 64
3, 89664, Note_on_c, 0, 67, 99
3, 89664, Note_on_c, 0, 55, 99
3, 89664, Note_on_c, 0, 64, 99
3, 89664, Note_on_c, 0, 59, 99
3, 89856, Note_off_c, 0, 59, 64
3, 89856, Note_off_c, 0, 64, 64
3, 89856, Note_off_c, 0, 55, 64
3, 89856, Note_off_c, 0, 67, 64
3, 89856, Note_on_c, 0, 59, 127
3, 89856, Note_on_c, 0, 54, 127
3, 89856, Note_on_c, 0, 47, 127
3, 90048, Note_off_c, 0, 59, 64
3, 90048, Note_on_c, 0, 62, 101
3, 90048, Note_on_c, 0, 59, 101
3, 90240, Note_off_c, 0, 59, 64
3, 90240, Note_off_c, 0, 62, 64
3, 90240, Note_on_c, 0, 62, 104
3, 90240, Note_on_c, 0, 59, 104
3, 90240, Note_on_c, 0, 66, 104
3, 90432, Note_off_c, 0, 66, 64
3, 90432, Note_off_c, 0, 59, 64
3, 90432, Note_off_c, 0, 62, 64
3, 90432, Note_on_c, 0, 62, 116
3, 90432, Note_on_c, 0, 59, 116
3, 90432, Note_on_c, 0, 66, 116
3, 90432, Note_on_c, 0, 71, 116
3, 90624, Note_off_c, 0, 71, 64
3, 90624, Note_off_c, 0, 66, 64
3, 90624, Note_off_c, 0, 59, 64
3, 90624, Note_off_c, 0, 62, 64
3, 90624, Note_on_c, 0, 62, 98
3, 90624, Note_on_c, 0, 59, 98
3, 90624, Note_on_c, 0, 66, 98
3, 90816, Note_off_c, 0, 66, 64
3, 90816, Note_off_c, 0, 59, 64
3, 90816, Note_off_c, 0, 62, 64
3, 90816, Note_on_c, 0, 62, 99
3, 90816, Note_on_c, 0, 59, 99
3, 91008, Note_off_c, 0, 59, 64
3, 91008, Note_off_c, 0, 62, 64
3, 91008, Note_off_c, 0, 47, 64
3, 91008, Note_off_c, 0, 54, 64
3, 91008, Note_on_c, 0, 55, 127
3, 91008, Note_on_c, 0, 64, 127
3, 91008, Note_on_c, 0, 59, 127
3, 91008, Note_on_c, 0, 40, 127
3, 91008, Note_on_c, 0, 52, 127
3, 91200, Note_off_c, 0, 52, 64
3, 91200, Note_off_c, 0, 40, 64
3, 91200, Note_off_c, 0, 59, 64
3, 91200, Note_off_c, 0, 64, 64
3, 91200, Note_off_c, 0, 55, 64
3, 91200, Note_on_c, 0, 67, 101
3, 91200, Note_on_c, 0, 55, 101
3, 91200, Note_on_c, 0, 64, 101
3, 91200, Note_on_c, 0, 59, 101
3, 91392, Note_off_c, 0, 59, 64
3, 91392, Note_off_c, 0, 64, 64
3, 91392, Note_off_c, 0, 55, 64
3, 91392, Note_off_c, 0, 67, 64
3, 91392, Note_on_c, 0, 67, 104
3, 91392, Note_on_c, 0, 55, 104
3, 91392, Note_on_c, 0, 64, 104
3, 91392, Note_on_c, 0, 59, 104
3, 91584, Note_off_c, 0, 59, 64
3, 91584, Note_off_c, 0, 64, 64
3, 91584, Note_off_c, 0, 55, 64
3, 91584, Note_off_c, 0, 67, 64
3, 91584, Note_on_c, 0, 67, 116
3, 91584, Note_on_c, 0, 55, 116
3, 91584, Note_on_c, 0, 64, 116
3, 91584, Note_on_c, 0, 59, 116
3, 91776, Note_off_c, 0, 59, 64
3, 91776, Note_off_c, 0, 64, 64
3, 91776, Note_off_c, 0, 55, 64
3, 91776, Note_off_c, 0, 67, 64
3, 91776, Note_on_c, 0, 55, 98
3, 91776, Note_on_c, 0, 64, 98
3, 91776, Note_on_c, 0, 59, 98
3, 91968, Note_off_c, 0, 59, 64
3, 91968, Note_off_c, 0, 64, 64
3, 91968, Note_off_c, 0, 55, 64
3, 91968, Note_on_c, 0, 67, 99
3, 91968, Note_on_c, 0, 55, 99
3, 91968, Note_on_c, 0, 64, 99
3, 91968, Note_on_c, 0, 59, 99
3, 92160, Note_off_c, 0, 59, 64
3, 92160, Note_off_c, 0, 64, 64
3, 92160, Note_off_c, 0, 55, 64
3, 92160, Note_off_c, 0, 67, 64
3, 92160, Note_on_c, 0, 59, 127
3, 92160, Note_on_c, 0, 54, 127
3, 92160, Note_on_c, 0, 47, 127
3, 92352, Note_off_c, 0, 59, 64
3, 92352, Note_on_c, 0, 62, 101
3, 92352, Note_on_c, 0, 59, 101
3, 92544, Note_off_c, 0, 59, 64
3, 92544, Note_off_c, 0, 62, 64
3, 92544, Note_on_c, 0, 62, 104
3, 92544, Note_on_c, 0, 59, 104
3, 92544, Note_on_c, 0, 66, 104
3, 92736, Note_off_c, 0, 66, 64
3, 92736, Note_off_c, 0, 59, 64
3, 92736, Note_off_c, 0, 62, 64
3, 92736, Note_on_c, 0, 62, 116
3, 92736, Note_on_c, 0, 59, 116
3, 92736, Note_on_c, 0, 66, 116
3, 92736, Note_on_c, 0, 71, 116
3, 92928, Note_off_c, 0, 71, 64
3, 92928, Note_off_c, 0, 66, 64
3, 92928, Note_off_c, 0, 59, 64
3, 92928, Note_off_c, 0, 62, 64
3, 92928, Note_on_c, 0, 62, 98
3, 92928, Note_on_c, 0, 59, 98
3, 92928, Note_on_c, 0, 66, 98
3, 93120, Note_off_c, 0, 66, 64
3, 93120, Note_off_c, 0, 59, 64
3, 93120, Note_off_c, 0, 62, 64
3, 93120, Note_on_c, 0, 62, 99
3, 93120, Note_on_c, 0, 59, 99
3, 93312, Note_off_c, 0, 59, 64
3, 93312, Note_off_c, 0, 62, 64
3, 93312, Note_off_c, 0, 47, 64
3, 93312, Note_off_c, 0, 54, 64
3, 93312, Note_on_c, 0, 55, 127
3, 93312, Note_on_c, 0, 64, 127
3, 93312, Note_on_c, 0, 59, 127
3, 93312, Note_on_c, 0, 40, 127
3, 93312, Note_on_c, 0, 52, 127
3, 93504, Note_off_c, 0, 52, 64
3, 93504, Note_off_c, 0, 40, 64
3, 93504, Note_off_c, 0, 59, 64
3, 93504, Note_off_c, 0, 64, 64
3, 93504, Note_off_c, 0, 55, 64
3, 93504, Note_on_c, 0, 67, 101
3, 93504, Note_on_c, 0, 55, 101
3, 93504, Note_on_c, 0, 64, 101
3, 93504, Note_on_c, 0, 59, 101
3, 93696, Note_off_c, 0, 59, 64
3, 93696, Note_off_c, 0, 64, 64
3, 93696, Note_off_c, 0, 55, 64
3, 93696, Note_off_c, 0, 67, 64
3, 93696, Note_on_c, 0, 67, 104
3, 93696, Note_on_c, 0, 55, 104
3, 93696, Note_on_c, 0, 64, 104
3, 93696, Note_on_c, 0, 59, 104
3, 93888, Note_off_c, 0, 59, 64
3, 93888, Note_off_c, 0, 64, 64
3, 93888, Note_off_c, 0, 55, 64
3, 93888, Note_off_c, 0, 67, 64
3, 93888, Note_on_c, 0, 67, 116
3, 93888, Note_on_c, 0, 55, 116
3, 93888, Note_on_c, 0, 64, 116
3, 93888, Note_on_c, 0, 59, 116
3, 94080, Note_off_c, 0, 59, 64
3, 94080, Note_off_c, 0, 64, 64
3, 94080, Note_off_c, 0, 55, 64
3, 94080, Note_off_c, 0, 67, 64
3, 94080, Note_on_c, 0, 55, 98
3, 94080, Note_on_c, 0, 64, 98
3, 94080, Note_on_c, 0, 59, 98
3, 94272, Note_off_c, 0, 59, 64
3, 94272, Note_off_c, 0, 64, 64
3, 94272, Note_off_c, 0, 55, 64
3, 94272, Note_on_c, 0, 67, 99
3, 94272, Note_on_c, 0, 55, 99
3, 94272, Note_on_c, 0, 64, 99
3, 94272, Note_on_c, 0, 59, 99
3, 94464, Note_off_c, 0, 59, 64
3, 94464, Note_off_c, 0, 64, 64
3, 94464, Note_off_c, 0, 55, 64
3, 94464, Note_off_c, 0, 67, 64
3, 94464, Note_on_c, 0, 59, 127
3, 94464, Note_on_c, 0, 54, 127
3, 94464, Note_on_c, 0, 47, 127
3, 94656, Note_off_c, 0, 59, 64
3, 94656, Note_on_c, 0, 62, 101
3, 94656, Note_on_c, 0, 59, 101
3, 94848, Note_off_c, 0, 59, 64
3, 94848, Note_off_c, 0, 62, 64
3, 94848, Note_on_c, 0, 62, 104
3, 94848, Note_on_c, 0, 59, 104
3, 94848, Note_on_c, 0, 66, 104
3, 95040, Note_off_c, 0, 66, 64
3, 95040, Note_off_c, 0, 59, 64
3, 95040, Note_off_c, 0, 62, 64
3, 95040, Note_on_c, 0, 62, 116
3, 95040, Note_on_c, 0, 59, 116
3, 95040, Note_on_c, 0, 66, 116
3, 95040, Note_on_c, 0, 71, 116
3, 95232, Note_off_c, 0, 71, 64
3, 95232, Note_off_c, 0, 66, 64
3, 95232, Note_off_c, 0, 59, 64
3, 95232, Note_off_c, 0, 62, 64
3, 95232, Note_on_c, 0, 62, 98
3, 95232, Note_on_c, 0, 59, 98
3, 95232, Note_on_c, 0, 66, 98
3, 95424, Note_off_c, 0, 66, 64
3, 95424, Note_off_c, 0, 59, 64
3, 95424, Note_off_c, 0, 62, 64
3, 95424, Note_on_c, 0, 62, 99
3, 95424, Note_on_c, 0, 59, 99
3, 95616, Note_off_c, 0, 59, 64
3, 95616, Note_off_c, 0, 62, 64
3, 95616, Note_off_c, 0, 47, 64
3, 95616, Note_off_c, 0, 54, 64
3, 95616, Note_on_c, 0, 55, 127
3, 95616, Note_on_c, 0, 64, 127
3, 95616, Note_on_c, 0, 59, 127
3, 95616, Note_on_c, 0, 40, 127
3, 95616, Note_on_c, 0, 52, 127
3, 95808, Note_off_c, 0, 52, 64
3, 95808, Note_off_c, 0, 40, 64
3, 95808, Note_off_c, 0, 59, 64
3, 95808, Note_off_c, 0, 64, 64
3, 95808, Note_off_c, 0, 55, 64
3, 95808, Note_on_c, 0, 67, 101
3, 95808, Note_on_c, 0, 55, 101
3, 95808, Note_on_c, 0, 64, 101
3, 95808, Note_on_c, 0, 59, 101
3, 96000, Note_off_c, 0, 59, 64
3, 96000, Note_off_c, 0, 64, 64
3, 96000, Note_off_c, 0, 55, 64
3, 96000, Note_off_c, 0, 67, 64
3, 96000, Note_on_c, 0, 67, 104
3, 96000, Note_on_c, 0, 55, 104
3, 96000, Note_on_c, 0, 64, 104
3, 96000, Note_on_c, 0, 59, 104
3, 96192, Note_off_c, 0, 59, 64
3, 96192, Note_off_c, 0, 64, 64
3, 96192, Note_off_c, 0, 55, 64
3, 96192, Note_off_c, 0, 67, 64
3, 96192, Note_on_c, 0, 67, 116
3, 96192, Note_on_c, 0, 55, 116
3, 96192, Note_on_c, 0, 64, 116
3, 96192, Note_on_c, 0, 59, 116
3, 96384, Note_off_c, 0, 59, 64
3, 96384, Note_off_c, 0, 64, 64
3, 96384, Note_off_c, 0, 55, 64
3, 96384, Note_off_c, 0, 67, 64
3, 96384, Note_on_c, 0, 55, 98
3, 96384, Note_on_c, 0, 64, 98
3, 96384, Note_on_c, 0, 59, 98
3, 96576, Note_off_c, 0, 59, 64
3, 96576, Note_off_c, 0, 64, 64
3, 96576, Note_off_c, 0, 55, 64
3, 96576, Note_on_c, 0, 67, 99
3, 96576, Note_on_c, 0, 55, 99
3, 96576, Note_on_c, 0, 64, 99
3, 96576, Note_on_c, 0, 59, 99
3, 96768, Note_off_c, 0, 59, 64
3, 96768, Note_off_c, 0, 64, 64
3, 96768, Note_off_c, 0, 55, 64
3, 96768, Note_off_c, 0, 67, 64
3, 96768, Note_on_c, 0, 59, 127
3, 96768, Note_on_c, 0, 54, 127
3, 96768, Note_on_c, 0, 47, 127
3, 96960, Note_off_c, 0, 59, 64
3, 96960, Note_on_c, 0, 62, 101
3, 96960, Note_on_c, 0, 59, 101
3, 97152, Note_off_c, 0, 59, 64
3, 97152, Note_off_c, 0, 62, 64
3, 97152, Note_on_c, 0, 62, 104
3, 97152, Note_on_c, 0, 59, 104
3, 97152, Note_on_c, 0, 66, 104
3, 97344, Note_off_c, 0, 66, 64
3, 97344, Note_off_c, 0, 59, 64
3, 97344, Note_off_c, 0, 62, 64
3, 97344, Note_on_c, 0, 62, 116
3, 97344, Note_on_c, 0, 59, 116
3, 97344, Note_on_c, 0, 66, 116
3, 97344, Note_on_c, 0, 71, 116
3, 97536, Note_off_c, 0, 71, 64
3, 97536, Note_off_c, 0, 66, 64
3, 97536, Note_off_c, 0, 59, 64
3, 97536, Note_off_c, 0, 62, 64
3, 97536, Note_on_c, 0, 62, 98
3, 97536, Note_on_c, 0, 59, 98
3, 97536, Note_on_c, 0, 66, 98
3, 97728, Note_off_c, 0, 66, 64
3, 97728, Note_off_c, 0, 59, 64
3, 97728, Note_off_c, 0, 62, 64
3, 97728, Note_on_c, 0, 62, 99
3, 97728, Note_on_c, 0, 59, 99
3, 97920, Note_off_c, 0, 59, 64
3, 97920, Note_off_c, 0, 62, 64
3, 97920, Note_off_c, 0, 47, 64
3, 97920, Note_off_c, 0, 54, 64
3, 97920, Note_on_c, 0, 55, 127
3, 97920, Note_on_c, 0, 64, 127
3, 97920, Note_on_c, 0, 59, 127
3, 97920, Note_on_c, 0, 40, 127
3, 97920, Note_on_c, 0, 52, 127
3, 98112, Note_off_c, 0, 52, 64
3, 98112, Note_off_c, 0, 40, 64
3, 98112, Note_off_c, 0, 59, 64
3, 98112, Note_off_c, 0, 64, 64
3, 98112, Note_off_c, 0, 55, 64
3, 98112, Note_on_c, 0, 67, 101
3, 98112, Note_on_c, 0, 55, 101
3, 98112, Note_on_c, 0, 64, 101
3, 98112, Note_on_c, 0, 59, 101
3, 98304, Note_off_c, 0, 59, 64
3, 98304, Note_off_c, 0, 64, 64
3, 98304, Note_off_c, 0, 55, 64
3, 98304, Note_off_c, 0, 67, 64
3, 98304, Note_on_c, 0, 67, 104
3, 98304, Note_on_c, 0, 55, 104
3, 98304, Note_on_c, 0, 64, 104
3, 98304, Note_on_c, 0, 59, 104
3, 98496, Note_off_c, 0, 59, 64
3, 98496, Note_off_c, 0, 64, 64
3, 98496, Note_off_c, 0, 55, 64
3, 98496, Note_off_c, 0, 67, 64
3, 98496, Note_on_c, 0, 67, 116
3, 98496, Note_on_c, 0, 55, 116
3, 98496, Note_on_c, 0, 64, 116
3, 98496, Note_on_c, 0, 59, 116
3, 98688, Note_off_c, 0, 59, 64
3, 98688, Note_off_c, 0, 64, 64
3, 98688, Note_off_c, 0, 55, 64
3, 98688, Note_off_c, 0, 67, 64
3, 98688, Note_on_c, 0, 55, 98
3, 98688, Note_on_c, 0, 64, 98
3, 98688, Note_on_c, 0, 59, 98
3, 98880, Note_off_c, 0, 59, 64
3, 98880, Note_off_c, 0, 64, 64
3, 98880, Note_off_c, 0, 55, 64
3, 98880, Note_on_c, 0, 67, 99
3, 98880, Note_on_c, 0, 55, 99
3, 98880, Note_on_c, 0, 64, 99
3, 98880, Note_on_c, 0, 59, 99
3, 99072, Note_off_c, 0, 59, 64
3, 99072, Note_off_c, 0, 64, 64
3, 99072, Note_off_c, 0, 55, 64
3, 99072, Note_off_c, 0, 67, 64
3, 99072, Note_on_c, 0, 59, 127
3, 99072, Note_on_c, 0, 54, 127
3, 99072, Note_on_c, 0, 47, 127
3, 99264, Note_off_c, 0, 59, 64
3, 99264, Note_on_c, 0, 62, 101
3, 99264, Note_on_c, 0, 59, 101
3, 99456, Note_off_c, 0, 59, 64
3, 99456, Note_off_c, 0, 62, 64
3, 99456, Note_on_c, 0, 62, 104
3, 99456, Note_on_c, 0, 59, 104
3, 99456, Note_on_c, 0, 66, 104
3, 99648, Note_off_c, 0, 66, 64
3, 99648, Note_off_c, 0, 59, 64
3, 99648, Note_off_c, 0, 62, 64
3, 99648, Note_on_c, 0, 62, 116
3, 99648, Note_on_c, 0, 59, 116
3, 99648, Note_on_c, 0, 66, 116
3, 99648, Note_on_c, 0, 71, 116
3, 99840, Note_off_c, 0, 71, 64
3, 99840, Note_off_c, 0, 66, 64
3, 99840, Note_off_c, 0, 59, 64
3, 99840, Note_off_c, 0, 62, 64
3, 99840, Note_on_c, 0, 62, 98
3, 99840, Note_on_c, 0, 59, 98
3, 99840, Note_on_c, 0, 66, 98
3, 100032, Note_off_c, 0, 66, 64
3, 100032, Note_off_c, 0, 59, 64
3, 100032, Note_off_c, 0, 62, 64
3, 100032, Note_on_c, 0, 62, 99
3, 100032, Note_on_c, 0, 59, 99
3, 100224, Note_off_c, 0, 59, 64
3, 100224, Note_off_c, 0, 62, 64
3, 100224, Note_off_c, 0, 47, 64
3, 100224, Note_off_c, 0, 54, 64
3, 100224, Note_on_c, 0, 55, 120
3, 100224, Note_on_c, 0, 40, 120
3, 100416, Note_off_c, 0, 40, 0
3, 100416, Note_off_c, 0, 55, 0
3, 100416, Note_on_c, 0, 59, 96
3, 100608, Note_off_c, 0, 59, 0
3, 100608, Note_on_c, 0, 64, 99
3, 100800, Note_off_c, 0, 64, 0
3, 100800, Note_on_c, 0, 64, 114
3, 100992, Note_off_c, 0, 64, 0
3, 100992, Note_on_c, 0, 59, 91
3, 101184, Note_off_c, 0, 59, 0
3, 101184, Note_on_c, 0, 55, 99
3, 101376, Note_off_c, 0, 55, 0
3, 101376, End_track
4, 0, Start_track
4, 0, Title_t, "Fing bass"
4, 1152, Control_c, 1, 121, 0
4, 1248, Control_c, 1, 91, 40
4, 1248, Control_c, 1, 93, 20
4, 1248, Control_c, 1, 7, 95
4, 1344, Program_c, 1, 33
4, 8064, Note_on_c, 1, 52, 127
4, 8256, Note_off_c, 1, 52, 64
4, 8256, Note_on_c, 1, 52, 104
4, 8448, Note_off_c, 1, 52, 64
4, 8448, Note_on_c, 1, 52, 102
4, 8640, Note_off_c, 1, 52, 64
4, 8640, Note_on_c, 1, 52, 119
4, 9216, Note_off_c, 1, 52, 64
4, 9216, Note_on_c, 1, 47, 127
4, 10176, Note_off_c, 1, 47, 64
4, 10176, Note_on_c, 1, 47, 111
4, 10368, Note_off_c, 1, 47, 64
4, 10368, Note_on_c, 1, 52, 127
4, 10560, Note_off_c, 1, 52, 64
4, 10560, Note_on_c, 1, 52, 104
4, 10752, Note_off_c, 1, 52, 64
4, 10752, Note_on_c, 1, 52, 102
4, 10944, Note_off_c, 1, 52, 64
4, 10944, Note_on_c, 1, 52, 119
4, 11520, Note_off_c, 1, 52, 64
4, 11520, Note_on_c, 1, 47, 127
4, 12480, Note_off_c, 1, 47, 64
4, 12480, Note_on_c, 1, 47, 111
4, 12672, Note_off_c, 1, 47, 64
4, 12672, Note_on_c, 1, 52, 127
4, 12864, Note_off_c, 1, 52, 64
4, 12864, Note_on_c, 1, 52, 104
4, 13056, Note_off_c, 1, 52, 64
4, 13056, Note_on_c, 1, 52, 102
4, 13248, Note_off_c, 1, 52, 64
4, 13248, Note_on_c, 1, 52, 119
4, 13824, Note_off_c, 1, 52, 64
4, 13824, Note_on_c, 1, 47, 127
4, 14784, Note_off_c, 1, 47, 64
4, 14784, Note_on_c, 1, 47, 111
4, 14976, Note_off_c, 1, 47, 64
4, 14976, Note_on_c, 1, 52, 127
4, 15168, Note_off_c, 1, 52, 64
4, 15168, Note_on_c, 1, 52, 104
4, 15360, Note_off_c, 1, 52, 64
4, 15360, Note_on_c, 1, 52, 102
4, 15552, Note_off_c, 1, 52, 64
4, 15552, Note_on_c, 1, 52, 119
4, 16128, Note_off_c, 1, 52, 64
4, 16128, Note_on_c, 1, 47, 127
4, 17088, Note_off_c, 1, 47, 64
4, 17088, Note_on_c, 1, 47, 111
4, 17280, Note_off_c, 1, 47, 64
4, 17280, Note_on_c, 1, 52, 127
4, 17472, Note_off_c, 1, 52, 64
4, 17472, Note_on_c, 1, 52, 104
4, 17664, Note_off_c, 1, 52, 64
4, 17664, Note_on_c, 1, 52, 102
4, 17856, Note_off_c, 1, 52, 64
4, 17856, Note_on_c, 1, 52, 119
4, 18432, Note_off_c, 1, 52, 64
4, 18432, Note_on_c, 1, 47, 127
4, 19392, Note_off_c, 1, 47, 64
4, 19392, Note_on_c, 1, 47, 111
4, 19584, Note_off_c, 1, 47, 64
4, 19584, Note_on_c, 1, 52, 127
4, 19776, Note_off_c, 1, 52, 64
4, 19776, Note_on_c, 1, 52, 104
4, 19968, Note_off_c, 1, 52, 64
4, 19968, Note_on_c, 1, 52, 102
4, 20160, Note_off_c, 1, 52, 64
4, 20160, Note_on_c, 1, 52, 119
4, 20736, Note_off_c, 1, 52, 64
4, 20736, Note_on_c, 1, 47, 127
4, 21696, Note_off_c, 1, 47, 64
4, 21696, Note_on_c, 1, 47, 111
4, 21888, Note_off_c, 1, 47, 64
4, 21888, Note_on_c, 1, 52, 127
4, 22080, Note_off_c, 1, 52, 64
4, 22080, Note_on_c, 1, 52, 104
4, 22272, Note_off_c, 1, 52, 64
4, 22272, Note_on_c, 1, 52, 102
4, 22464, Note_off_c, 1, 52, 64
4, 22464, Note_on_c, 1, 52, 119
4, 23040, Note_off_c, 1, 52, 64
4, 23040, Note_on_c, 1, 47, 127
4, 24000, Note_off_c, 1, 47, 64
4, 24000, Note_on_c, 1, 47, 111
4, 24192, Note_off_c, 1, 47, 64
4, 24192, Note_on_c, 1, 52, 127
4, 24384, Note_off_c, 1, 52, 64
4, 24384, Note_on_c, 1, 52, 104
4, 24576, Note_off_c, 1, 52, 64
4, 24576, Note_on_c, 1, 52, 102
4, 24768, Note_off_c, 1, 52, 64
4, 24768, Note_on_c, 1, 52, 119
4, 25344, Note_off_c, 1, 52, 64
4, 25344, Note_on_c, 1, 47, 127
4, 26304, Note_off_c, 1, 47, 64
4, 26304, Note_on_c, 1, 47, 111
4, 26496, Note_off_c, 1, 47, 64
4, 26496, Note_on_c, 1, 52, 127
4, 27456, Note_off_c, 1, 52, 64
4, 27456, Note_on_c, 1, 52, 98
4, 27648, Note_off_c, 1, 52, 64
4, 27648, Note_on_c, 1, 47, 127
4, 28224, Note_off_c, 1, 47, 64
4, 28224, Note_on_c, 1, 47, 116
4, 28416, Note_off_c, 1, 47, 64
4, 28416, Note_on_c, 1, 50, 99
4, 28608, Note_off_c, 1, 50, 64
4, 28608, Note_on_c, 1, 47, 99
4, 28800, Note_off_c, 1, 47, 64
4, 28800, Note_on_c, 1, 52, 127
4, 29760, Note_off_c, 1, 52, 64
4, 29760, Note_on_c, 1, 52, 98
4, 29952, Note_off_c, 1, 52, 64
4, 29952, Note_on_c, 1, 47, 127
4, 30528, Note_off_c, 1, 47, 64
4, 30528, Note_on_c, 1, 47, 116
4, 30720, Note_off_c, 1, 47, 64
4, 30720, Note_on_c, 1, 50, 99
4, 30912, Note_off_c, 1, 50, 64
4, 30912, Note_on_c, 1, 47, 99
4, 31104, Note_off_c, 1, 47, 64
4, 31104, Note_on_c, 1, 52, 127
4, 32064, Note_off_c, 1, 52, 64
4, 32064, Note_on_c, 1, 52, 98
4, 32256, Note_off_c, 1, 52, 64
4, 32256, Note_on_c, 1, 47, 127
4, 32832, Note_off_c, 1, 47, 64
4, 32832, Note_on_c, 1, 47, 116
4, 33024, Note_off_c, 1, 47, 64
4, 33024, Note_on_c, 1, 50, 99
4, 33216, Note_off_c, 1, 50, 64
4, 33216, Note_on_c, 1, 47, 99
4, 33408, Note_off_c, 1, 47, 64
4, 33408, Note_on_c, 1, 52, 127
4, 34368, Note_off_c, 1, 52, 64
4, 34368, Note_on_c, 1, 52, 98
4, 34560, Note_off_c, 1, 52, 64
4, 34560, Note_on_c, 1, 47, 127
4, 35136, Note_off_c, 1, 47, 64
4, 35712, Note_on_c, 1, 52, 127
4, 35904, Note_off_c, 1, 52, 64
4, 35904, Note_on_c, 1, 52, 104
4, 36096, Note_off_c, 1, 52, 64
4, 36096, Note_on_c, 1, 52, 102
4, 36288, Note_off_c, 1, 52, 64
4, 36288, Note_on_c, 1, 52, 119
4, 36864, Note_off_c, 1, 52, 64
4, 36864, Note_on_c, 1, 47, 127
4, 37824, Note_off_c, 1, 47, 64
4, 37824, Note_on_c, 1, 47, 111
4, 38016, Note_off_c, 1, 47, 64
4, 38016, Note_on_c, 1, 52, 127
4, 38208, Note_off_c, 1, 52, 64
4, 38208, Note_on_c, 1, 52, 104
4, 38400, Note_off_c, 1, 52, 64
4, 38400, Note_on_c, 1, 52, 102
4, 38592, Note_off_c, 1, 52, 64
4, 38592, Note_on_c, 1, 52, 119
4, 39168, Note_off_c, 1, 52, 64
4, 39168, Note_on_c, 1, 47, 127
4, 40128, Note_off_c, 1, 47, 64
4, 40128, Note_on_c, 1, 47, 111
4, 40320, Note_off_c, 1, 47, 64
4, 40320, Note_on_c, 1, 52, 127
4, 40512, Note_off_c, 1, 52, 64
4, 40512, Note_on_c, 1, 52, 104
4, 40704, Note_off_c, 1, 52, 64
4, 40704, Note_on_c, 1, 52, 102
4, 40896, Note_off_c, 1, 52, 64
4, 40896, Note_on_c, 1, 52, 119
4, 41472, Note_off_c, 1, 52, 64
4, 41472, Note_on_c, 1, 47, 127
4, 42432, Note_off_c, 1, 47, 64
4, 42432, Note_on_c, 1, 47, 111
4, 42624, Note_off_c, 1, 47, 64
4, 42624, Note_on_c, 1, 52, 127
4, 42816, Note_off_c, 1, 52, 64
4, 42816, Note_on_c, 1, 52, 104
4, 43008, Note_off_c, 1, 52, 64
4, 43008, Note_on_c, 1, 52, 102
4, 43200, Note_off_c, 1, 52, 64
4, 43200, Note_on_c, 1, 52, 119
4, 43776, Note_off_c, 1, 52, 64
4, 43776, Note_on_c, 1, 47, 127
4, 44736, Note_off_c, 1, 47, 64
4, 44736, Note_on_c, 1, 47, 111
4, 44928, Note_off_c, 1, 47, 64
4, 44928, Note_on_c, 1, 52, 127
4, 45120, Note_off_c, 1, 52, 64
4, 45120, Note_on_c, 1, 52, 104
4, 45312, Note_off_c, 1, 52, 64
4, 45312, Note_on_c, 1, 52, 102
4, 45504, Note_off_c, 1, 52, 64
4, 45504, Note_on_c, 1, 52, 119
4, 46080, Note_off_c, 1, 52, 64
4, 46080, Note_on_c, 1, 47, 127
4, 47040, Note_off_c, 1, 47, 64
4, 47040, Note_on_c, 1, 47, 111
4, 47232, Note_off_c, 1, 47, 64
4, 47232, Note_on_c, 1, 52, 127
4, 47424, Note_off_c, 1, 52, 64
4, 47424, Note_on_c, 1, 52, 104
4, 47616, Note_off_c, 1, 52, 64
4, 47616, Note_on_c, 1, 52, 102
4, 47808, Note_off_c, 1, 52, 64
4, 47808, Note_on_c, 1, 52, 119
4, 48384, Note_off_c, 1, 52, 64
4, 48384, Note_on_c, 1, 47, 127
4, 49344, Note_off_c, 1, 47, 64
4, 49344, Note_on_c, 1, 47, 111
4, 49536, Note_off_c, 1, 47, 64
4, 49536, Note_on_c, 1, 52, 127
4, 49728, Note_off_c, 1, 52, 64
4, 49728, Note_on_c, 1, 52, 104
4, 49920, Note_off_c, 1, 52, 64
4, 49920, Note_on_c, 1, 52, 102
4, 50112, Note_off_c, 1, 52, 64
4, 50112, Note_on_c, 1, 52, 119
4, 50688, Note_off_c, 1, 52, 64
4, 50688, Note_on_c, 1, 47, 127
4, 51648, Note_off_c, 1, 47, 64
4, 51648, Note_on_c, 1, 47, 111
4, 51840, Note_off_c, 1, 47, 64
4, 51840, Note_on_c, 1, 52, 127
4, 52032, Note_off_c, 1, 52, 64
4, 52032, Note_on_c, 1, 52, 104
4, 52224, Note_off_c, 1, 52, 64
4, 52224, Note_on_c, 1, 52, 102
4, 52416, Note_off_c, 1, 52, 64
4, 52416, Note_on_c, 1, 52, 119
4, 52992, Note_off_c, 1, 52, 64
4, 52992, Note_on_c, 1, 47, 127
4, 53952, Note_off_c, 1, 47, 64
4, 53952, Note_on_c, 1, 47, 111
4, 54144, Note_off_c, 1, 47, 64
4, 54144, Note_on_c, 1, 52, 127
4, 55104, Note_off_c, 1, 52, 64
4, 55104, Note_on_c, 1, 52, 98
4, 55296, Note_off_c, 1, 52, 64
4, 55296, Note_on_c, 1, 47, 127
4, 55872, Note_off_c, 1, 47, 64
4, 55872, Note_on_c, 1, 47, 116
4, 56064, Note_off_c, 1, 47, 64
4, 56064, Note_on_c, 1, 50, 99
4, 56256, Note_off_c, 1, 50, 64
4, 56256, Note_on_c, 1, 47, 99
4, 56448, Note_off_c, 1, 47, 64
4, 56448, Note_on_c, 1, 52, 127
4, 57408, Note_off_c, 1, 52, 64
4, 57408, Note_on_c, 1, 52, 98
4, 57600, Note_off_c, 1, 52, 64
4, 57600, Note_on_c, 1, 47, 127
4, 58176, Note_off_c, 1, 47, 64
4, 58176, Note_on_c, 1, 47, 116
4, 58368, Note_off_c, 1, 47, 64
4, 58368, Note_on_c, 1, 50, 99
4, 58560, Note_off_c, 1, 50, 64
4, 58560, Note_on_c, 1, 47, 99
4, 58752, Note_off_c, 1, 47, 64
4, 58752, Note_on_c, 1, 52, 127
4, 59712, Note_off_c, 1, 52, 64
4, 59712, Note_on_c, 1, 52, 98
4, 59904, Note_off_c, 1, 52, 64
4, 59904, Note_on_c, 1, 47, 127
4, 60480, Note_off_c, 1, 47, 64
4, 60480, Note_on_c, 1, 47, 116
4, 60672, Note_off_c, 1, 47, 64
4, 60672, Note_on_c, 1, 50, 99
4, 60864, Note_off_c, 1, 50, 64
4, 60864, Note_on_c, 1, 47, 99
4, 61056, Note_off_c, 1, 47, 64
4, 61056, Note_on_c, 1, 52, 127
4, 62016, Note_off_c, 1, 52, 64
4, 62016, Note_on_c, 1, 52, 98
4, 62208, Note_off_c, 1, 52, 64
4, 62208, Note_on_c, 1, 47, 127
4, 62784, Note_off_c, 1, 47, 64
4, 62784, Note_on_c, 1, 47, 116
4, 62976, Note_off_c, 1, 47, 64
4, 62976, Note_on_c, 1, 50, 99
4, 63168, Note_off_c, 1, 50, 64
4, 63168, Note_on_c, 1, 47, 99
4, 63360, Note_off_c, 1, 47, 64
4, 63360, Note_on_c, 1, 52, 127
4, 63552, Note_off_c, 1, 52, 64
4, 63552, Note_on_c, 1, 52, 104
4, 63744, Note_off_c, 1, 52, 64
4, 63744, Note_on_c, 1, 52, 102
4, 63936, Note_off_c, 1, 52, 64
4, 63936, Note_on_c, 1, 52, 119
4, 64512, Note_off_c, 1, 52, 64
4, 64512, Note_on_c, 1, 47, 127
4, 65472, Note_off_c, 1, 47, 64
4, 65472, Note_on_c, 1, 47, 111
4, 65664, Note_off_c, 1, 47, 64
4, 65664, Note_on_c, 1, 52, 127
4, 65856, Note_off_c, 1, 52, 64
4, 65856, Note_on_c, 1, 52, 104
4, 66048, Note_off_c, 1, 52, 64
4, 66048, Note_on_c, 1, 52, 102
4, 66240, Note_off_c, 1, 52, 64
4, 66240, Note_on_c, 1, 52, 119
4, 66816, Note_off_c, 1, 52, 64
4, 66816, Note_on_c, 1, 47, 127
4, 67776, Note_off_c, 1, 47, 64
4, 67776, Note_on_c, 1, 47, 111
4, 67968, Note_off_c, 1, 47, 64
4, 67968, Note_on_c, 1, 52, 127
4, 68160, Note_off_c, 1, 52, 64
4, 68160, Note_on_c, 1, 52, 104
4, 68352, Note_off_c, 1, 52, 64
4, 68352, Note_on_c, 1, 52, 102
4, 68544, Note_off_c, 1, 52, 64
4, 68544, Note_on_c, 1, 52, 119
4, 69120, Note_off_c, 1, 52, 64
4, 69120, Note_on_c, 1, 47, 127
4, 70080, Note_off_c, 1, 47, 64
4, 70080, Note_on_c, 1, 47, 111
4, 70272, Note_off_c, 1, 47, 64
4, 70272, Note_on_c, 1, 52, 127
4, 70464, Note_off_c, 1, 52, 64
4, 70464, Note_on_c, 1, 52, 104
4, 70656, Note_off_c, 1, 52, 64
4, 70656, Note_on_c, 1, 52, 102
4, 70848, Note_off_c, 1, 52, 64
4, 70848, Note_on_c, 1, 52, 119
4, 71424, Note_off_c, 1, 52, 64
4, 71424, Note_on_c, 1, 47, 127
4, 72384, Note_off_c, 1, 47, 64
4, 72384, Note_on_c, 1, 47, 111
4, 72576, Note_off_c, 1, 47, 64
4, 72576, Note_on_c, 1, 52, 127
4, 72768, Note_off_c, 1, 52, 64
4, 72768, Note_on_c, 1, 52, 104
4, 72960, Note_off_c, 1, 52, 64
4, 72960, Note_on_c, 1, 52, 102
4, 73152, Note_off_c, 1, 52, 64
4, 73152, Note_on_c, 1, 52, 119
4, 73728, Note_off_c, 1, 52, 64
4, 73728, Note_on_c, 1, 47, 127
4, 74688, Note_off_c, 1, 47, 64
4, 74688, Note_on_c, 1, 47, 111
4, 74880, Note_off_c, 1, 47, 64
4, 74880, Note_on_c, 1, 52, 127
4, 75072, Note_off_c, 1, 52, 64
4, 75072, Note_on_c, 1, 52, 104
4, 75264, Note_off_c, 1, 52, 64
4, 75264, Note_on_c, 1, 52, 102
4, 75456, Note_off_c, 1, 52, 64
4, 75456, Note_on_c, 1, 52, 119
4, 76032, Note_off_c, 1, 52, 64
4, 76032, Note_on_c, 1, 47, 127
4, 76992, Note_off_c, 1, 47, 64
4, 76992, Note_on_c, 1, 47, 111
4, 77184, Note_off_c, 1, 47, 64
4, 77184, Note_on_c, 1, 52, 127
4, 77376, Note_off_c, 1, 52, 64
4, 77376, Note_on_c, 1, 52, 104
4, 77568, Note_off_c, 1, 52, 64
4, 77568, Note_on_c, 1, 52, 102
4, 77760, Note_off_c, 1, 52, 64
4, 77760, Note_on_c, 1, 52, 119
4, 78336, Note_off_c, 1, 52, 64
4, 78336, Note_on_c, 1, 47, 127
4, 79296, Note_off_c, 1, 47, 64
4, 79296, Note_on_c, 1, 47, 111
4, 79488, Note_off_c, 1, 47, 64
4, 79488, Note_on_c, 1, 52, 127
4, 79680, Note_off_c, 1, 52, 64
4, 79680, Note_on_c, 1, 52, 104
4, 79872, Note_off_c, 1, 52, 64
4, 79872, Note_on_c, 1, 52, 102
4, 80064, Note_off_c, 1, 52, 64
4, 80064, Note_on_c, 1, 52, 119
4, 80640, Note_off_c, 1, 52, 64
4, 80640, Note_on_c, 1, 47, 127
4, 81600, Note_off_c, 1, 47, 64
4, 81600, Note_on_c, 1, 47, 111
4, 81792, Note_off_c, 1, 47, 64
4, 81792, Note_on_c, 1, 52, 127
4, 82752, Note_off_c, 1, 52, 64
4, 82752, Note_on_c, 1, 52, 98
4, 82944, Note_off_c, 1, 52, 64
4, 82944, Note_on_c, 1, 47, 127
4, 83520, Note_off_c, 1, 47, 64
4, 83520, Note_on_c, 1, 47, 116
4, 83712, Note_off_c, 1, 47, 64
4, 83712, Note_on_c, 1, 50, 99
4, 83904, Note_off_c, 1, 50, 64
4, 83904, Note_on_c, 1, 47, 99
4, 84096, Note_off_c, 1, 47, 64
4, 84096, Note_on_c, 1, 52, 127
4, 85056, Note_off_c, 1, 52, 64
4, 85056, Note_on_c, 1, 52, 98
4, 85248, Note_off_c, 1, 52, 64
4, 85248, Note_on_c, 1, 47, 127
4, 85824, Note_off_c, 1, 47, 64
4, 85824, Note_on_c, 1, 47, 116
4, 86016, Note_off_c, 1, 47, 64
4, 86016, Note_on_c, 1, 50, 99
4, 86208, Note_off_c, 1, 50, 64
4, 86208, Note_on_c, 1, 47, 99
4, 86400, Note_off_c, 1, 47, 64
4, 86400, Note_on_c, 1, 52, 127
4, 87360, Note_off_c, 1, 52, 64
4, 87360, Note_on_c, 1, 52, 98
4, 87552, Note_off_c, 1, 52, 64
4, 87552, Note_on_c, 1, 47, 127
4, 88128, Note_off_c, 1, 47, 64
4, 88128, Note_on_c, 1, 47, 116
4, 88320, Note_off_c, 1, 47, 64
4, 88320, Note_on_c, 1, 50, 99
4, 88512, Note_off_c, 1, 50, 64
4, 88512, Note_on_c, 1, 47, 99
4, 88704, Note_off_c, 1, 47, 64
4, 88704, Note_on_c, 1, 52, 127
4, 89664, Note_off_c, 1, 52, 64
4, 89664, Note_on_c, 1, 52, 98
4, 89856, Note_off_c, 1, 52, 64
4, 89856, Note_on_c, 1, 47, 127
4, 90432, Note_off_c, 1, 47, 64
4, 90432, Note_on_c, 1, 47, 116
4, 90624, Note_off_c, 1, 47, 64
4, 90624, Note_on_c, 1, 50, 99
4, 90816, Note_off_c, 1, 50, 64
4, 90816, Note_on_c, 1, 47, 99
4, 91008, Note_off_c, 1, 47, 64
4, 91008, Note_on_c, 1, 52, 127
4, 91968, Note_off_c, 1, 52, 64
4, 91968, Note_on_c, 1, 52, 98
4, 92160, Note_off_c, 1, 52, 64
4, 92160, Note_on_c, 1, 47, 127
4, 92736, Note_off_c, 1, 47, 64
4, 92736, Note_on_c, 1, 47, 116
4, 92928, Note_off_c, 1, 47, 64
4, 92928, Note_on_c, 1, 50, 99
4, 93120, Note_off_c, 1, 50, 64
4, 93120, Note_on_c, 1, 47, 99
4, 93312, Note_off_c, 1, 47, 64
4, 93312, Note_on_c, 1, 52, 127
4, 94272, Note_off_c, 1, 52, 64
4, 94272, Note_on_c, 1, 52, 98
4, 94464, Note_off_c, 1, 52, 64
4, 94464, Note_on_c, 1, 47, 127
4, 95040, Note_off_c, 1, 47, 64
4, 95040, Note_on_c, 1, 47, 116
4, 95232, Note_off_c, 1, 47, 64
4, 95232, Note_on_c, 1, 50, 99
4, 95424, Note_off_c, 1, 50, 64
4, 95424, Note_on_c, 1, 47, 99
4, 95616, Note_off_c, 1, 47, 64
4, 95616, Note_on_c, 1, 52, 127
4, 96576, Note_off_c, 1, 52, 64
4, 96576, Note_on_c, 1, 52, 98
4, 96768, Note_off_c, 1, 52, 64
4, 96768, Note_on_c, 1, 47, 127
4, 97344, Note_off_c, 1, 47, 64
4, 97344, Note_on_c, 1, 47, 116
4, 97536, Note_off_c, 1, 47, 64
4, 97536, Note_on_c, 1, 50, 99
4, 97728, Note_off_c, 1, 50, 64
4, 97728, Note_on_c, 1, 47, 99
4, 97920, Note_off_c, 1, 47, 64
4, 97920, Note_on_c, 1, 52, 127
4, 98880, Note_off_c, 1, 52, 64
4, 98880, Note_on_c, 1, 52, 98
4, 99072, Note_off_c, 1, 52, 64
4, 99072, Note_on_c, 1, 47, 127
4, 99648, Note_off_c, 1, 47, 64
4, 99648, Note_on_c, 1, 47, 116
4, 99840, Note_off_c, 1, 47, 64
4, 99840, Note_on_c, 1, 50, 99
4, 100032, Note_off_c, 1, 50, 64
4, 100032, Note_on_c, 1, 47, 99
4, 100224, Note_off_c, 1, 47, 64
4, 100224, End_track
5, 0, Start_track
5, 0, Title_t, "Strings"
5, 1152, Control_c, 2, 121, 0
5, 1248, Control_c, 2, 91, 70
5, 1248, Control_c, 2, 93, 35
5, 1248, Control_c, 2, 7, 95
5, 1344, Program_c, 2, 48
5, 27264, Note_on_c, 2, 67, 98
5, 27264, Note_on_c, 2, 64, 98
5, 27456, Note_off_c, 2, 64, 64
5, 27456, Note_off_c, 2, 67, 64
5, 27456, Note_on_c, 2, 59, 96
5, 27648, Note_off_c, 2, 59, 64
5, 27648, Note_on_c, 2, 62, 119
5, 27648, Note_on_c, 2, 59, 119
5, 28224, Note_off_c, 2, 59, 64
5, 28224, Note_off_c, 2, 62, 64
5, 29568, Note_on_c, 2, 67, 98
5, 29568, Note_on_c, 2, 64, 98
5, 29760, Note_off_c, 2, 64, 64
5, 29760, Note_off_c, 2, 67, 64
5, 29760, Note_on_c, 2, 59, 96
5, 29952, Note_off_c, 2, 59, 64
5, 29952, Note_on_c, 2, 62, 119
5, 29952, Note_on_c, 2, 59, 119
5, 30528, Note_off_c, 2, 59, 64
5, 30528, Note_off_c, 2, 62, 64
5, 31872, Note_on_c, 2, 67, 98
5, 31872, Note_on_c, 2, 64, 98
5, 32064, Note_off_c, 2, 64, 64
5, 32064, Note_off_c, 2, 67, 64
5, 32064, Note_on_c, 2, 59, 96
5, 32256, Note_off_c, 2, 59, 64
5, 32256, Note_on_c, 2, 62, 119
5, 32256, Note_on_c, 2, 59, 119
5, 32832, Note_off_c, 2, 59, 64
5, 32832, Note_off_c, 2, 62, 64
5, 34176, Note_on_c, 2, 67, 98
5, 34176, Note_on_c, 2, 64, 98
5, 34368, Note_off_c, 2, 64, 64
5, 34368, Note_off_c, 2, 67, 64
5, 34368, Note_on_c, 2, 59, 96
5, 34560, Note_off_c, 2, 59, 64
5, 34560, Note_on_c, 2, 62, 119
5, 34560, Note_on_c, 2, 59, 119
5, 35136, Note_off_c, 2, 59, 64
5, 35136, Note_off_c, 2, 62, 64
5, 54912, Note_on_c, 2, 67, 98
5, 54912, Note_on_c, 2, 64, 98
5, 55104, Note_off_c, 2, 64, 64
5, 55104, Note_off_c, 2, 67, 64
5, 55104, Note_on_c, 2, 59, 96
5, 55296, Note_off_c, 2, 59, 64
5, 55296, Note_on_c, 2, 62, 119
5, 55296, Note_on_c, 2, 59, 119
5, 55872, Note_off_c, 2, 59, 64
5, 55872, Note_off_c, 2, 62, 64
5, 57216, Note_on_c, 2, 67, 98
5, 57216, Note_on_c, 2, 64, 98
5, 57408, Note_off_c, 2, 64, 64
5, 57408, Note_off_c, 2, 67, 64
5, 57408, Note_on_c, 2, 59, 96
5, 57600, Note_off_c, 2, 59, 64
5, 57600, Note_on_c, 2, 62, 119
5, 57600, Note_on_c, 2, 59, 119
5, 58176, Note_off_c, 2, 59, 64
5, 58176, Note_off_c, 2, 62, 64
5, 59520, Note_on_c, 2, 67, 98
5, 59520, Note_on_c, 2, 64, 98
5, 59712, Note_off_c, 2, 64, 64
5, 59712, Note_off_c, 2, 67, 64
5, 59712, Note_on_c, 2, 59, 96
5, 59904, Note_off_c, 2, 59, 64
5, 59904, Note_on_c, 2, 62, 119
5, 59904, Note_on_c, 2, 59, 119
5, 60480, Note_off_c, 2, 59, 64
5, 60480, Note_off_c, 2, 62, 64
5, 61824, Note_on_c, 2, 67, 98
5, 61824, Note_on_c, 2, 64, 98
5, 62016, Note_off_c, 2, 64, 64
5, 62016, Note_off_c, 2, 67, 64
5, 62016, Note_on_c, 2, 59, 96
5, 62208, Note_off_c, 2, 59, 64
5, 62208, Note_on_c, 2, 62, 119
5, 62208, Note_on_c, 2, 59, 119
5, 62784, Note_off_c, 2, 59, 64
5, 62784, Note_off_c, 2, 62, 64
5, 82560, Note_on_c, 2, 67, 98
5, 82560, Note_on_c, 2, 64, 98
5, 82752, Note_off_c, 2, 64, 64
5, 82752, Note_off_c, 2, 67, 64
5, 82752, Note_on_c, 2, 59, 96
5, 82944, Note_off_c, 2, 59, 64
5, 82944, Note_on_c, 2, 62, 119
5, 82944, Note_on_c, 2, 59, 119
5, 83520, Note_off_c, 2, 59, 64
5, 83520, Note_off_c, 2, 62, 64
5, 84864, Note_on_c, 2, 67, 98
5, 84864, Note_on_c, 2, 64, 98
5, 85056, Note_off_c, 2, 64, 64
5, 85056, Note_off_c, 2, 67, 64
5, 85056, Note_on_c, 2, 59, 96
5, 85248, Note_off_c, 2, 59, 64
5, 85248, Note_on_c, 2, 62, 119
5, 85248, Note_on_c, 2, 59, 119
5, 85824, Note_off_c, 2, 59, 64
5, 85824, Note_off_c, 2, 62, 64
5, 87168, Note_on_c, 2, 67, 98
5, 87168, Note_on_c, 2, 64, 98
5, 87360, Note_off_c, 2, 64, 64
5, 87360, Note_off_c, 2, 67, 64
5, 87360, Note_on_c, 2, 59, 96
5, 87552, Note_off_c, 2, 59, 64
5, 87552, Note_on_c, 2, 62, 119
5, 87552, Note_on_c, 2, 59, 119
5, 88128, Note_off_c, 2, 59, 64
5, 88128, Note_off_c, 2, 62, 64
5, 89472, Note_on_c, 2, 67, 98
5, 89472, Note_on_c, 2, 64, 98
5, 89664, Note_off_c, 2, 64, 64
5, 89664, Note_off_c, 2, 67, 64
5, 89664, Note_on_c, 2, 59, 96
5, 89856, Note_off_c, 2, 59, 64
5, 89856, Note_on_c, 2, 62, 119
5, 89856, Note_on_c, 2, 59, 119
5, 90432, Note_off_c, 2, 59, 64
5, 90432, Note_off_c, 2, 62, 64
5, 91776, Note_on_c, 2, 67, 98
5, 91776, Note_on_c, 2, 64, 98
5, 91968, Note_off_c, 2, 64, 64
5, 91968, Note_off_c, 2, 67, 64
5, 91968, Note_on_c, 2, 59, 96
5, 92160, Note_off_c, 2, 59, 64
5, 92160, Note_on_c, 2, 62, 119
5, 92160, Note_on_c, 2, 59, 119
5, 92736, Note_off_c, 2, 59, 64
5, 92736, Note_off_c, 2, 62, 64
5, 94080, Note_on_c, 2, 67, 98
5, 94080, Note_on_c, 2, 64, 98
5, 94272, Note_off_c, 2, 64, 64
5, 94272, Note_off_c, 2, 67, 64
5, 94272, Note_on_c, 2, 59, 96
5, 94464, Note_off_c, 2, 59, 64
5, 94464, Note_on_c, 2, 62, 119
5, 94464, Note_on_c, 2, 59, 119
5, 95040, Note_off_c, 2, 59, 64
5, 95040, Note_off_c, 2, 62, 64
5, 96384, Note_on_c, 2, 67, 98
5, 96384, Note_on_c, 2, 64, 98
5, 96576, Note_off_c, 2, 64, 64
5, 96576, Note_off_c, 2, 67, 64
5, 96576, Note_on_c, 2, 59, 96
5, 96768, Note_off_c, 2, 59, 64
5, 96768, Note_on_c, 2, 62, 119
5, 96768, Note_on_c, 2, 59, 119
5, 97344, Note_off_c, 2, 59, 64
5, 97344, Note_off_c, 2, 62, 64
5, 98688, Note_on_c, 2, 67, 98
5, 98688, Note_on_c, 2, 64, 98
5, 98880, Note_off_c, 2, 64, 64
5, 98880, Note_off_c, 2, 67, 64
5, 98880, Note_on_c, 2, 59, 96
5, 99072, Note_off_c, 2, 59, 64
5, 99072, Note_on_c, 2, 62, 119
5, 99072, Note_on_c, 2, 59, 119
5, 99648, Note_off_c, 2, 59, 64
5, 99648, Note_off_c, 2, 62, 64
5, 100224, End_track
6, 0, Start_track
6, 0, Title_t, "Det.el.p.2"
6, 1152, Control_c, 3, 121, 0
6, 1248, Control_c, 3, 0, 8
6, 1344, Control_c, 3, 91, 100
6, 1344, Control_c, 3, 93, 60
6, 1344, Control_c, 3, 7, 127
6, 1440, Program_c, 3, 5
6, 3849, Note_on_c, 3, 74, 127
6, 4028, Note_on_c, 3, 71, 122
6, 4045, Note_off_c, 3, 74, 0
6, 4188, Note_off_c, 3, 71, 0
6, 4196, Note_on_c, 3, 67, 117
6, 4421, Note_on_c, 3, 69, 123
6, 4433, Note_off_c, 3, 67, 0
6, 4591, Note_on_c, 3, 67, 123
6, 4600, Note_off_c, 3, 69, 0
6, 5126, Note_off_c, 3, 67, 0
6, 5158, Pitch_bend_c, 3, 6690
6, 5167, Pitch_bend_c, 3, 4710
6, 5176, Note_on_c, 3, 71, 120
6, 5177, Pitch_bend_c, 3, 3720
6, 5187, Pitch_bend_c, 3, 2940
6, 5196, Pitch_bend_c, 3, 2580
6, 5216, Pitch_bend_c, 3, 2700
6, 5226, Pitch_bend_c, 3, 2940
6, 5235, Pitch_bend_c, 3, 3270
6, 5245, Pitch_bend_c, 3, 3540
6, 5255, Pitch_bend_c, 3, 4020
6, 5265, Pitch_bend_c, 3, 4500
6, 5274, Pitch_bend_c, 3, 5160
6, 5284, Pitch_bend_c, 3, 5790
6, 5294, Pitch_bend_c, 3, 6270
6, 5303, Pitch_bend_c, 3, 6630
6, 5313, Pitch_bend_c, 3, 6930
6, 5323, Pitch_bend_c, 3, 7170
6, 5333, Pitch_bend_c, 3, 7440
6, 5342, Pitch_bend_c, 3, 7620
6, 5352, Pitch_bend_c, 3, 7800
6, 5362, Pitch_bend_c, 3, 7860
6, 5372, Pitch_bend_c, 3, 7920
6, 5381, Pitch_bend_c, 3, 8040
6, 5401, Pitch_bend_c, 3, 8192
6, 5601, Note_on_c, 3, 69, 124
6, 5619, Note_off_c, 3, 71, 0
6, 5681, Note_on_c, 3, 67, 124
6, 5696, Note_off_c, 3, 69, 0
6, 5771, Note_on_c, 3, 69, 125
6, 5787, Note_off_c, 3, 67, 0
6, 5852, Note_on_c, 3, 67, 117
6, 5878, Note_off_c, 3, 69, 0
6, 5939, Note_off_c, 3, 67, 0
6, 5944, Note_on_c, 3, 64, 124
6, 6033, Note_on_c, 3, 67, 113
6, 6035, Note_off_c, 3, 64, 0
6, 6126, Note_off_c, 3, 67, 0
6, 6127, Note_on_c, 3, 64, 123
6, 6228, Note_on_c, 3, 62, 123
6, 6244, Note_off_c, 3, 64, 0
6, 6318, Note_on_c, 3, 64, 123
6, 6321, Note_off_c, 3, 62, 0
6, 6411, Note_on_c, 3, 62, 122
6, 6419, Note_off_c, 3, 64, 0
6, 6506, Note_off_c, 3, 62, 0
6, 6506, Note_on_c, 3, 59, 125
6, 6612, Note_on_c, 3, 57, 123
6, 6624, Note_off_c, 3, 59, 0
6, 7481, Note_on_c, 3, 62, 127
6, 7482, Note_off_c, 3, 57, 0
6, 7930, Note_off_c, 3, 62, 0
6, 8049, Note_on_c, 3, 62, 127
6, 8236, Note_on_c, 3, 64, 125
6, 8253, Note_off_c, 3, 62, 0
6, 9152, Note_off_c, 3, 64, 0
6, 9977, Note_on_c, 3, 67, 125
6, 10167, Note_on_c, 3, 64, 126
6, 10182, Note_off_c, 3, 67, 0
6, 10360, Note_on_c, 3, 67, 127
6, 10361, Note_off_c, 3, 64, 0
6, 11109, Note_off_c, 3, 67, 0
6, 11908, Note_on_c, 3, 67, 126
6, 12081, Note_on_c, 3, 69, 125
6, 12097, Note_off_c, 3, 67, 0
6, 12478, Note_on_c, 3, 67, 125
6, 12485, Note_off_c, 3, 69, 0
6, 12659, Note_on_c, 3, 71, 127
6, 12673, Note_off_c, 3, 67, 0
6, 13008, Note_off_c, 3, 71, 0
6, 13045, Note_on_c, 3, 71, 125
6, 13246, Note_off_c, 3, 71, 0
6, 14019, Note_on_c, 3, 64, 125
6, 14200, Note_on_c, 3, 62, 125
6, 14219, Note_off_c, 3, 64, 0
6, 14304, Note_off_c, 3, 62, 0
6, 14389, Note_on_c, 3, 62, 127
6, 14534, Note_off_c, 3, 62, 0
6, 14578, Note_on_c, 3, 62, 123
6, 14694, Note_off_c, 3, 62, 0
6, 14770, Note_on_c, 3, 62, 125
6, 14959, Note_on_c, 3, 64, 127
6, 14973, Note_off_c, 3, 62, 0
6, 15910, Note_off_c, 3, 64, 0
6, 16516, Note_on_c, 3, 64, 126
6, 16697, Note_off_c, 3, 64, 0
6, 16698, Note_on_c, 3, 67, 127
6, 16885, Note_on_c, 3, 64, 127
6, 16891, Note_off_c, 3, 67, 0
6, 17002, Note_off_c, 3, 64, 0
6, 17070, Note_on_c, 3, 64, 125
6, 17274, Note_on_c, 3, 67, 127
6, 17286, Note_off_c, 3, 64, 0
6, 18062, Note_off_c, 3, 67, 0
6, 18802, Note_on_c, 3, 62, 124
6, 18896, Note_off_c, 3, 62, 0
6, 18992, Note_on_c, 3, 62, 124
6, 19110, Note_off_c, 3, 62, 0
6, 19201, Note_on_c, 3, 62, 124
6, 19272, Note_off_c, 3, 62, 0
6, 19382, Note_on_c, 3, 62, 124
6, 19577, Note_on_c, 3, 64, 124
6, 19605, Note_off_c, 3, 62, 0
6, 21069, Note_off_c, 3, 64, 0
6, 21260, Pitch_bend_c, 3, 7080
6, 21270, Pitch_bend_c, 3, 4020
6, 21280, Pitch_bend_c, 3, 570
6, 21290, Pitch_bend_c, 3, 0
6, 21299, Note_on_c, 3, 71, 126
6, 21319, Pitch_bend_c, 3, 1230
6, 21329, Pitch_bend_c, 3, 3180
6, 21338, Pitch_bend_c, 3, 5280
6, 21348, Pitch_bend_c, 3, 7740
6, 21358, Pitch_bend_c, 3, 8192
6, 21368, Pitch_bend_c, 3, 8222
6, 21454, Note_off_c, 3, 71, 0
6, 21490, Note_on_c, 3, 71, 123
6, 21650, Note_off_c, 3, 71, 0
6, 21680, Note_on_c, 3, 71, 124
6, 21823, Note_off_c, 3, 71, 0
6, 21884, Note_on_c, 3, 70, 127
6, 21968, Note_on_c, 3, 69, 125
6, 21977, Note_off_c, 3, 70, 0
6, 22063, Note_off_c, 3, 69, 0
6, 22064, Note_on_c, 3, 67, 126
6, 22775, Note_off_c, 3, 67, 0
6, 23419, Note_on_c, 3, 64, 126
6, 23592, Note_off_c, 3, 64, 0
6, 23593, Note_on_c, 3, 67, 126
6, 23785, Note_on_c, 3, 64, 121
6, 23792, Note_off_c, 3, 67, 0
6, 23923, Note_off_c, 3, 64, 0
6, 23982, Note_on_c, 3, 64, 120
6, 24066, Note_off_c, 3, 64, 0
6, 24168, Note_on_c, 3, 64, 124
6, 24447, Note_on_c, 3, 62, 117
6, 24455, Note_off_c, 3, 64, 0
6, 24540, Note_off_c, 3, 62, 0
6, 24553, Note_on_c, 3, 59, 115
6, 25216, Note_off_c, 3, 59, 0
6, 25354, Note_on_c, 3, 59, 127
6, 25526, Note_on_c, 3, 62, 121
6, 25549, Note_off_c, 3, 59, 0
6, 25720, Note_on_c, 3, 64, 127
6, 25740, Note_off_c, 3, 62, 0
6, 25856, Note_off_c, 3, 64, 0
6, 25914, Note_on_c, 3, 64, 127
6, 26089, Note_on_c, 3, 67, 127
6, 26092, Note_off_c, 3, 64, 0
6, 26208, Note_off_c, 3, 67, 0
6, 26276, Note_on_c, 3, 67, 127
6, 26408, Note_off_c, 3, 67, 0
6, 26491, Note_on_c, 3, 67, 127
6, 26877, Note_on_c, 3, 64, 126
6, 26894, Note_off_c, 3, 67, 0
6, 27255, Note_on_c, 3, 71, 126
6, 27256, Note_off_c, 3, 64, 0
6, 27440, Note_on_c, 3, 69, 126
6, 27452, Note_off_c, 3, 71, 0
6, 27642, Note_on_c, 3, 71, 125
6, 27657, Note_off_c, 3, 69, 0
6, 27737, Note_on_c, 3, 69, 125
6, 27754, Note_off_c, 3, 71, 0
6, 27833, Note_on_c, 3, 67, 125
6, 27850, Note_off_c, 3, 69, 0
6, 28250, Note_off_c, 3, 67, 0
6, 28600, Note_on_c, 3, 62, 126
6, 28787, Note_on_c, 3, 64, 127
6, 28793, Note_off_c, 3, 62, 0
6, 29553, Note_on_c, 3, 67, 122
6, 29556, Note_off_c, 3, 64, 0
6, 29757, Note_off_c, 3, 67, 0
6, 29757, Note_on_c, 3, 64, 124
6, 29946, Note_on_c, 3, 67, 124
6, 29952, Note_off_c, 3, 64, 0
6, 30169, Note_off_c, 3, 67, 0
6, 30334, Note_on_c, 3, 59, 126
6, 30528, Note_on_c, 3, 62, 125
6, 30548, Note_off_c, 3, 59, 0
6, 30714, Note_on_c, 3, 64, 121
6, 30739, Note_off_c, 3, 62, 0
6, 30887, Note_off_c, 3, 64, 0
6, 30887, Note_on_c, 3, 66, 124
6, 31083, Note_on_c, 3, 67, 126
6, 31115, Note_off_c, 3, 66, 0
6, 31495, Note_on_c, 3, 64, 125
6, 31496, Note_off_c, 3, 67, 0
6, 31677, Note_off_c, 3, 64, 0
6, 31866, Note_on_c, 3, 71, 125
6, 32059, Note_on_c, 3, 69, 127
6, 32077, Note_off_c, 3, 71, 0
6, 32254, Note_on_c, 3, 71, 126
6, 32261, Note_off_c, 3, 69, 0
6, 32350, Note_on_c, 3, 69, 123
6, 32369, Note_off_c, 3, 71, 0
6, 32444, Note_on_c, 3, 67, 124
6, 32465, Note_off_c, 3, 69, 0
6, 32850, Note_off_c, 3, 67, 0
6, 33020, Note_on_c, 3, 62, 126
6, 33110, Note_off_c, 3, 62, 0
6, 33210, Note_on_c, 3, 62, 125
6, 33401, Note_on_c, 3, 64, 125
6, 33420, Note_off_c, 3, 62, 0
6, 34030, Note_off_c, 3, 64, 0
6, 34163, Note_on_c, 3, 67, 120
6, 34353, Note_off_c, 3, 67, 0
6, 34353, Note_on_c, 3, 64, 121
6, 34555, Note_on_c, 3, 67, 122
6, 34583, Note_off_c, 3, 64, 0
6, 34649, Note_off_c, 3, 67, 0
6, 34944, Note_on_c, 3, 74, 124
6, 35048, Note_off_c, 3, 74, 0
6, 35328, Note_on_c, 3, 76, 126
6, 35498, Note_off_c, 3, 76, 0
6, 35712, Note_on_c, 3, 76, 126
6, 35881, Note_on_c, 3, 74, 122
6, 35904, Note_off_c, 3, 76, 0
6, 35977, Note_on_c, 3, 71, 121
6, 35984, Note_off_c, 3, 74, 0
6, 36288, Note_off_c, 3, 71, 0
6, 36298, Note_on_c, 3, 69, 123
6, 36459, Note_on_c, 3, 67, 123
6, 36484, Note_off_c, 3, 69, 0
6, 36873, Note_off_c, 3, 67, 0
6, 37255, Note_on_c, 3, 64, 122
6, 37424, Note_on_c, 3, 67, 122
6, 37432, Note_off_c, 3, 64, 0
6, 37624, Note_off_c, 3, 67, 0
6, 37625, Note_on_c, 3, 64, 121
6, 37731, Note_off_c, 3, 64, 0
6, 37813, Note_on_c, 3, 64, 120
6, 37865, Note_off_c, 3, 64, 0
6, 38012, Note_on_c, 3, 64, 124
6, 38189, Note_on_c, 3, 67, 122
6, 38199, Note_off_c, 3, 64, 0
6, 39092, Note_off_c, 3, 67, 0
6, 39535, Note_on_c, 3, 67, 126
6, 39735, Note_on_c, 3, 69, 124
6, 39748, Note_off_c, 3, 67, 0
6, 39822, Note_on_c, 3, 67, 111
6, 39832, Note_off_c, 3, 69, 0
6, 39921, Note_on_c, 3, 69, 122
6, 39926, Note_off_c, 3, 67, 0
6, 40014, Note_on_c, 3, 67, 120
6, 40020, Note_off_c, 3, 69, 0
6, 40105, Note_on_c, 3, 69, 120
6, 40106, Note_off_c, 3, 67, 0
6, 40199, Note_on_c, 3, 67, 122
6, 40218, Note_off_c, 3, 69, 0
6, 40310, Note_on_c, 3, 71, 127
6, 40324, Note_off_c, 3, 67, 0
6, 40637, Note_off_c, 3, 71, 0
6, 40693, Note_on_c, 3, 71, 123
6, 41030, Note_off_c, 3, 71, 0
6, 41845, Note_on_c, 3, 62, 126
6, 41938, Note_off_c, 3, 62, 0
6, 42030, Note_on_c, 3, 62, 127
6, 42130, Note_off_c, 3, 62, 0
6, 42212, Note_on_c, 3, 62, 121
6, 42280, Note_off_c, 3, 62, 0
6, 42336, Note_on_c, 3, 62, 121
6, 42379, Note_off_c, 3, 62, 0
6, 42430, Note_on_c, 3, 62, 124
6, 42627, Note_on_c, 3, 64, 122
6, 42645, Note_off_c, 3, 62, 0
6, 42975, Note_off_c, 3, 64, 0
6, 42986, Note_on_c, 3, 59, 122
6, 43209, Note_on_c, 3, 62, 119
6, 43227, Note_off_c, 3, 59, 0
6, 43388, Note_off_c, 3, 62, 0
6, 43389, Note_on_c, 3, 64, 113
6, 43576, Note_off_c, 3, 64, 0
6, 43590, Note_on_c, 3, 59, 120
6, 43781, Note_on_c, 3, 62, 121
6, 43794, Note_off_c, 3, 59, 0
6, 43942, Note_on_c, 3, 64, 124
6, 43963, Note_off_c, 3, 62, 0
6, 44303, Note_on_c, 3, 70, 127
6, 44319, Note_off_c, 3, 64, 0
6, 44345, Note_on_c, 3, 71, 123
6, 44388, Note_off_c, 3, 70, 0
6, 44491, Note_off_c, 3, 71, 0
6, 44535, Note_on_c, 3, 71, 123
6, 44689, Note_off_c, 3, 71, 0
6, 44714, Note_on_c, 3, 71, 122
6, 44851, Note_off_c, 3, 71, 0
6, 44929, Note_on_c, 3, 70, 127
6, 45008, Note_off_c, 3, 70, 0
6, 45012, Note_on_c, 3, 69, 116
6, 45110, Note_on_c, 3, 67, 125
6, 45111, Note_off_c, 3, 69, 0
6, 45693, Note_off_c, 3, 67, 0
6, 46352, Note_on_c, 3, 59, 123
6, 46463, Note_on_c, 3, 64, 122
6, 46482, Note_off_c, 3, 59, 0
6, 46493, Note_off_c, 3, 64, 0
6, 46547, Note_on_c, 3, 64, 122
6, 46648, Note_off_c, 3, 64, 0
6, 46650, Note_on_c, 3, 67, 123
6, 46828, Note_on_c, 3, 64, 121
6, 46851, Note_off_c, 3, 67, 0
6, 46913, Note_off_c, 3, 64, 0
6, 47032, Note_on_c, 3, 64, 120
6, 47118, Note_off_c, 3, 64, 0
6, 47125, Note_on_c, 3, 62, 118
6, 47208, Note_off_c, 3, 62, 0
6, 47231, Note_on_c, 3, 64, 115
6, 47410, Note_on_c, 3, 62, 120
6, 47412, Note_off_c, 3, 64, 0
6, 47512, Note_on_c, 3, 64, 122
6, 47541, Note_off_c, 3, 62, 0
6, 47721, Note_on_c, 3, 67, 124
6, 47733, Note_off_c, 3, 64, 0
6, 48379, Note_off_c, 3, 67, 0
6, 48761, Note_on_c, 3, 74, 124
6, 48940, Note_on_c, 3, 76, 126
6, 48965, Note_off_c, 3, 74, 0
6, 49078, Note_off_c, 3, 76, 0
6, 49139, Note_on_c, 3, 76, 123
6, 49484, Note_off_c, 3, 76, 0
6, 49534, Note_on_c, 3, 76, 125
6, 49709, Note_on_c, 3, 74, 123
6, 49725, Note_off_c, 3, 76, 0
6, 49801, Note_on_c, 3, 71, 122
6, 49820, Note_off_c, 3, 74, 0
6, 50126, Note_on_c, 3, 69, 123
6, 50128, Note_off_c, 3, 71, 0
6, 50307, Note_on_c, 3, 67, 122
6, 50334, Note_off_c, 3, 69, 0
6, 50612, Note_on_c, 3, 69, 121
6, 50630, Note_off_c, 3, 67, 0
6, 50986, Note_on_c, 3, 62, 122
6, 51009, Note_off_c, 3, 69, 0
6, 51157, Note_off_c, 3, 62, 0
6, 51239, Note_on_c, 3, 62, 126
6, 51376, Note_off_c, 3, 62, 0
6, 51443, Note_on_c, 3, 62, 123
6, 51527, Note_off_c, 3, 62, 0
6, 51626, Note_on_c, 3, 62, 125
6, 51828, Note_on_c, 3, 67, 126
6, 51849, Note_off_c, 3, 62, 0
6, 52013, Note_on_c, 3, 64, 121
6, 52015, Note_off_c, 3, 67, 0
6, 52696, Note_off_c, 3, 64, 0
6, 53002, Note_on_c, 3, 59, 127
6, 53186, Note_on_c, 3, 62, 120
6, 53203, Note_off_c, 3, 59, 0
6, 53373, Note_on_c, 3, 64, 126
6, 53393, Note_off_c, 3, 62, 0
6, 53489, Note_off_c, 3, 64, 0
6, 53554, Note_on_c, 3, 64, 125
6, 53745, Note_on_c, 3, 66, 126
6, 53769, Note_off_c, 3, 64, 0
6, 53933, Note_on_c, 3, 67, 125
6, 53956, Note_off_c, 3, 66, 0
6, 54055, Note_off_c, 3, 67, 0
6, 54140, Note_on_c, 3, 67, 127
6, 54320, Note_on_c, 3, 66, 127
6, 54344, Note_off_c, 3, 67, 0
6, 54524, Note_on_c, 3, 64, 125
6, 54544, Note_off_c, 3, 66, 0
6, 54803, Note_off_c, 3, 64, 0
6, 54907, Note_on_c, 3, 71, 127
6, 55096, Note_on_c, 3, 69, 126
6, 55111, Note_off_c, 3, 71, 0
6, 55224, Note_off_c, 3, 69, 0
6, 55306, Note_on_c, 3, 71, 127
6, 55393, Note_on_c, 3, 69, 126
6, 55413, Note_off_c, 3, 71, 0
6, 55486, Note_on_c, 3, 67, 127
6, 55502, Note_off_c, 3, 69, 0
6, 55888, Note_off_c, 3, 67, 0
6, 56262, Note_on_c, 3, 62, 127
6, 56447, Note_on_c, 3, 64, 127
6, 56467, Note_off_c, 3, 62, 0
6, 57039, Note_off_c, 3, 64, 0
6, 57212, Note_on_c, 3, 67, 127
6, 57398, Note_on_c, 3, 64, 126
6, 57402, Note_off_c, 3, 67, 0
6, 57595, Note_on_c, 3, 67, 127
6, 57605, Note_off_c, 3, 64, 0
6, 57781, Note_off_c, 3, 67, 0
6, 57976, Note_on_c, 3, 59, 127
6, 58159, Note_on_c, 3, 62, 127
6, 58169, Note_off_c, 3, 59, 0
6, 58361, Note_on_c, 3, 64, 125
6, 58381, Note_off_c, 3, 62, 0
6, 58552, Note_on_c, 3, 66, 127
6, 58567, Note_off_c, 3, 64, 0
6, 58743, Note_on_c, 3, 67, 126
6, 58762, Note_off_c, 3, 66, 0
6, 59143, Note_on_c, 3, 64, 126
6, 59154, Note_off_c, 3, 67, 0
6, 59355, Note_off_c, 3, 64, 0
6, 59510, Note_on_c, 3, 71, 127
6, 59700, Note_on_c, 3, 69, 125
6, 59716, Note_off_c, 3, 71, 0
6, 59831, Note_off_c, 3, 69, 0
6, 59902, Note_on_c, 3, 71, 126
6, 59998, Note_on_c, 3, 69, 122
6, 60019, Note_off_c, 3, 71, 0
6, 60101, Note_on_c, 3, 67, 121
6, 60117, Note_off_c, 3, 69, 0
6, 60439, Note_off_c, 3, 67, 0
6, 60672, Note_on_c, 3, 62, 125
6, 60771, Note_off_c, 3, 62, 0
6, 60859, Note_on_c, 3, 62, 127
6, 61042, Note_on_c, 3, 64, 127
6, 61066, Note_off_c, 3, 62, 0
6, 61598, Note_off_c, 3, 64, 0
6, 61802, Note_on_c, 3, 67, 124
6, 61993, Note_on_c, 3, 64, 123
6, 61995, Note_off_c, 3, 67, 0
6, 62201, Note_on_c, 3, 67, 125
6, 62204, Note_off_c, 3, 64, 0
6, 62345, Note_off_c, 3, 67, 0
6, 62576, Note_on_c, 3, 62, 127
6, 62683, Note_off_c, 3, 62, 0
6, 62770, Note_on_c, 3, 62, 127
6, 62892, Note_off_c, 3, 62, 0
6, 62955, Note_on_c, 3, 62, 126
6, 63051, Note_off_c, 3, 62, 0
6, 63141, Note_on_c, 3, 62, 126
6, 63240, Note_off_c, 3, 62, 0
6, 63353, Note_on_c, 3, 59, 127
6, 63523, Note_off_c, 3, 59, 0
6, 63925, Note_on_c, 3, 64, 127
6, 64105, Note_off_c, 3, 64, 0
6, 64505, Note_on_c, 3, 62, 127
6, 64710, Note_off_c, 3, 62, 0
6, 65080, Note_on_c, 3, 66, 127
6, 65252, Note_off_c, 3, 66, 0
6, 65651, Note_on_c, 3, 67, 127
6, 66231, Note_on_c, 3, 64, 125
6, 66247, Note_off_c, 3, 67, 0
6, 66793, Note_off_c, 3, 64, 0
6, 66798, Note_on_c, 3, 59, 127
6, 67389, Note_on_c, 3, 62, 127
6, 67405, Note_off_c, 3, 59, 0
6, 67966, Note_off_c, 3, 62, 0
6, 67971, Note_on_c, 3, 59, 127
6, 68135, Note_off_c, 3, 59, 0
6, 68527, Note_on_c, 3, 64, 127
6, 68667, Note_off_c, 3, 64, 0
6, 69103, Note_on_c, 3, 62, 127
6, 69245, Note_off_c, 3, 62, 0
6, 69700, Note_on_c, 3, 66, 127
6, 69849, Note_off_c, 3, 66, 0
6, 70263, Note_on_c, 3, 67, 127
6, 70821, Note_on_c, 3, 64, 127
6, 70836, Note_off_c, 3, 67, 0
6, 71415, Note_off_c, 3, 64, 0
6, 71418, Note_on_c, 3, 59, 127
6, 71892, Note_off_c, 3, 59, 0
6, 71987, Note_on_c, 3, 59, 127
6, 72580, Note_on_c, 3, 71, 126
6, 72585, Note_off_c, 3, 59, 0
6, 72858, Note_on_c, 3, 69, 123
6, 72873, Note_off_c, 3, 71, 0
6, 72938, Note_on_c, 3, 67, 125
6, 72958, Note_off_c, 3, 69, 0
6, 73138, Note_on_c, 3, 69, 124
6, 73153, Note_off_c, 3, 67, 0
6, 73341, Note_on_c, 3, 67, 120
6, 73376, Note_off_c, 3, 69, 0
6, 73525, Note_on_c, 3, 66, 124
6, 73540, Note_off_c, 3, 67, 0
6, 73725, Note_on_c, 3, 67, 123
6, 73740, Note_off_c, 3, 66, 0
6, 73994, Note_on_c, 3, 66, 118
6, 74008, Note_off_c, 3, 67, 0
6, 74089, Note_off_c, 3, 66, 0
6, 74095, Note_on_c, 3, 64, 123
6, 74293, Note_on_c, 3, 66, 125
6, 74319, Note_off_c, 3, 64, 0
6, 74579, Note_on_c, 3, 64, 118
6, 74599, Note_off_c, 3, 66, 0
6, 74672, Note_on_c, 3, 62, 117
6, 74676, Note_off_c, 3, 64, 0
6, 74853, Note_on_c, 3, 64, 121
6, 74863, Note_off_c, 3, 62, 0
6, 75141, Note_on_c, 3, 62, 119
6, 75155, Note_off_c, 3, 64, 0
6, 75233, Note_off_c, 3, 62, 0
6, 75238, Note_on_c, 3, 59, 117
6, 75437, Note_off_c, 3, 59, 0
6, 75441, Note_on_c, 3, 62, 119
6, 75629, Note_on_c, 3, 59, 120
6, 75635, Note_off_c, 3, 62, 0
6, 75813, Note_on_c, 3, 57, 121
6, 75836, Note_off_c, 3, 59, 0
6, 76022, Note_on_c, 3, 59, 124
6, 76046, Note_off_c, 3, 57, 0
6, 76915, Note_off_c, 3, 59, 0
6, 77206, Note_on_c, 3, 71, 127
6, 77462, Note_on_c, 3, 69, 121
6, 77480, Note_off_c, 3, 71, 0
6, 77552, Note_on_c, 3, 67, 121
6, 77568, Note_off_c, 3, 69, 0
6, 77735, Note_on_c, 3, 69, 124
6, 77748, Note_off_c, 3, 67, 0
6, 77964, Note_on_c, 3, 67, 108
6, 77984, Note_off_c, 3, 69, 0
6, 78082, Note_off_c, 3, 67, 0
6, 78144, Note_on_c, 3, 66, 126
6, 78285, Note_off_c, 3, 66, 0
6, 78336, Note_on_c, 3, 67, 120
6, 78528, Note_off_c, 3, 67, 0
6, 78580, Note_on_c, 3, 66, 111
6, 78665, Note_off_c, 3, 66, 0
6, 78672, Note_on_c, 3, 64, 121
6, 78901, Note_on_c, 3, 66, 125
6, 78917, Note_off_c, 3, 64, 0
6, 79084, Note_on_c, 3, 64, 122
6, 79108, Note_off_c, 3, 66, 0
6, 79281, Note_on_c, 3, 62, 122
6, 79287, Note_off_c, 3, 64, 0
6, 79471, Note_on_c, 3, 64, 123
6, 79484, Note_off_c, 3, 62, 0
6, 80283, Note_off_c, 3, 64, 0
6, 80623, Note_on_c, 3, 59, 127
6, 80820, Note_on_c, 3, 62, 122
6, 80841, Note_off_c, 3, 59, 0
6, 81008, Note_on_c, 3, 64, 127
6, 81036, Note_off_c, 3, 62, 0
6, 81152, Note_off_c, 3, 64, 0
6, 81204, Note_on_c, 3, 64, 127
6, 81388, Note_off_c, 3, 64, 0
6, 81396, Note_on_c, 3, 67, 127
6, 81514, Note_off_c, 3, 67, 0
6, 81577, Note_on_c, 3, 67, 126
6, 81687, Note_off_c, 3, 67, 0
6, 81783, Note_on_c, 3, 67, 127
6, 82170, Note_on_c, 3, 64, 126
6, 82187, Note_off_c, 3, 67, 0
6, 82550, Note_on_c, 3, 71, 127
6, 82568, Note_off_c, 3, 64, 0
6, 82736, Note_on_c, 3, 69, 125
6, 82769, Note_off_c, 3, 71, 0
6, 82882, Note_off_c, 3, 69, 0
6, 82942, Note_on_c, 3, 71, 126
6, 83034, Note_on_c, 3, 69, 124
6, 83057, Note_off_c, 3, 71, 0
6, 83129, Note_on_c, 3, 67, 126
6, 83146, Note_off_c, 3, 69, 0
6, 83530, Note_off_c, 3, 67, 0
6, 83916, Note_on_c, 3, 62, 127
6, 84084, Note_on_c, 3, 64, 127
6, 84102, Note_off_c, 3, 62, 0
6, 84681, Note_off_c, 3, 64, 0
6, 84858, Note_on_c, 3, 67, 126
6, 85041, Note_on_c, 3, 64, 123
6, 85066, Note_off_c, 3, 67, 0
6, 85242, Note_on_c, 3, 67, 126
6, 85257, Note_off_c, 3, 64, 0
6, 85417, Note_off_c, 3, 67, 0
6, 85620, Note_on_c, 3, 59, 127
6, 85814, Note_on_c, 3, 62, 127
6, 85831, Note_off_c, 3, 59, 0
6, 86010, Note_on_c, 3, 64, 125
6, 86030, Note_off_c, 3, 62, 0
6, 86194, Note_on_c, 3, 66, 126
6, 86218, Note_off_c, 3, 64, 0
6, 86375, Note_off_c, 3, 66, 0
6, 86385, Note_on_c, 3, 67, 126
6, 86782, Note_off_c, 3, 67, 0
6, 86784, Note_on_c, 3, 64, 124
6, 86977, Note_off_c, 3, 64, 0
6, 87163, Note_on_c, 3, 71, 127
6, 87328, Note_off_c, 3, 71, 0
6, 87351, Note_on_c, 3, 69, 126
6, 87464, Note_off_c, 3, 69, 0
6, 87566, Note_on_c, 3, 71, 127
6, 87652, Note_on_c, 3, 69, 124
6, 87670, Note_off_c, 3, 71, 0
6, 87752, Note_on_c, 3, 67, 127
6, 87769, Note_off_c, 3, 69, 0
6, 88115, Note_off_c, 3, 67, 0
6, 88314, Note_on_c, 3, 62, 127
6, 88386, Note_off_c, 3, 62, 0
6, 88497, Note_on_c, 3, 62, 127
6, 88683, Note_on_c, 3, 64, 127
6, 88698, Note_off_c, 3, 62, 0
6, 89305, Note_off_c, 3, 64, 0
6, 89465, Note_on_c, 3, 67, 124
6, 89646, Note_on_c, 3, 64, 122
6, 89659, Note_off_c, 3, 67, 0
6, 89847, Note_on_c, 3, 67, 124
6, 89869, Note_off_c, 3, 64, 0
6, 90048, Note_off_c, 3, 67, 0
6, 90227, Note_on_c, 3, 57, 123
6, 90412, Note_on_c, 3, 59, 120
6, 90428, Note_off_c, 3, 57, 0
6, 90602, Note_on_c, 3, 62, 117
6, 90640, Note_off_c, 3, 59, 0
6, 90803, Note_on_c, 3, 64, 124
6, 90832, Note_off_c, 3, 62, 0
6, 90990, Note_on_c, 3, 67, 127
6, 91000, Note_off_c, 3, 64, 0
6, 91375, Note_on_c, 3, 64, 126
6, 91390, Note_off_c, 3, 67, 0
6, 91763, Note_off_c, 3, 64, 0
6, 91763, Note_on_c, 3, 71, 123
6, 91953, Note_on_c, 3, 69, 123
6, 91966, Note_off_c, 3, 71, 0
6, 92151, Note_on_c, 3, 71, 126
6, 92171, Note_off_c, 3, 69, 0
6, 92247, Note_on_c, 3, 69, 123
6, 92267, Note_off_c, 3, 71, 0
6, 92349, Note_on_c, 3, 67, 124
6, 92368, Note_off_c, 3, 69, 0
6, 92734, Note_off_c, 3, 67, 0
6, 92942, Note_on_c, 3, 62, 127
6, 93048, Note_off_c, 3, 62, 0
6, 93134, Note_on_c, 3, 62, 127
6, 93310, Note_on_c, 3, 64, 127
6, 93331, Note_off_c, 3, 62, 0
6, 93919, Note_off_c, 3, 64, 0
6, 94080, Note_on_c, 3, 67, 127
6, 94265, Note_on_c, 3, 64, 123
6, 94280, Note_off_c, 3, 67, 0
6, 94459, Note_on_c, 3, 67, 127
6, 94472, Note_off_c, 3, 64, 0
6, 94613, Note_off_c, 3, 67, 0
6, 94839, Note_on_c, 3, 59, 127
6, 95037, Note_on_c, 3, 62, 127
6, 95047, Note_off_c, 3, 59, 0
6, 95244, Note_on_c, 3, 64, 126
6, 95250, Note_off_c, 3, 62, 0
6, 95422, Note_on_c, 3, 66, 127
6, 95440, Note_off_c, 3, 64, 0
6, 95597, Note_on_c, 3, 67, 126
6, 95630, Note_off_c, 3, 66, 0
6, 95930, Note_off_c, 3, 67, 0
6, 95988, Note_on_c, 3, 64, 122
6, 96182, Note_off_c, 3, 64, 0
6, 96372, Note_on_c, 3, 71, 126
6, 96529, Note_off_c, 3, 71, 0
6, 96560, Note_on_c, 3, 69, 125
6, 96703, Note_off_c, 3, 69, 0
6, 96778, Note_on_c, 3, 71, 127
6, 96871, Note_on_c, 3, 69, 121
6, 96898, Note_off_c, 3, 71, 0
6, 96970, Note_on_c, 3, 67, 125
6, 96990, Note_off_c, 3, 69, 0
6, 97329, Note_off_c, 3, 67, 0
6, 97525, Note_on_c, 3, 62, 127
6, 97611, Note_off_c, 3, 62, 0
6, 97709, Note_on_c, 3, 62, 127
6, 97898, Note_on_c, 3, 64, 127
6, 97932, Note_off_c, 3, 62, 0
6, 98522, Note_off_c, 3, 64, 0
6, 98680, Note_on_c, 3, 67, 124
6, 98860, Note_on_c, 3, 64, 122
6, 98869, Note_off_c, 3, 67, 0
6, 99056, Note_on_c, 3, 67, 125
6, 99067, Note_off_c, 3, 64, 0
6, 99756, Note_off_c, 3, 67, 0
6, 100243, Note_on_c, 3, 64, 122
6, 101331, Note_off_c, 3, 64, 0
6, 101376, End_track
7, 0, Start_track
7, 0, Title_t, "Drums"
7, 1152, Control_c, 9, 121, 0
7, 1248, Control_c, 9, 91, 80
7, 1248, Control_c, 9, 93, 50
7, 1248, Control_c, 9, 7, 105
7, 1344, Program_c, 9, 0
7, 8064, Note_on_c, 9, 35, 127
7, 8064, Note_on_c, 9, 42, 127
7, 8256, Note_off_c, 9, 42, 64
7, 8256, Note_on_c, 9, 42, 98
7, 8448, Note_off_c, 9, 42, 64
7, 8448, Note_on_c, 9, 42, 95
7, 8640, Note_off_c, 9, 42, 64
7, 8640, Note_off_c, 9, 35, 64
7, 8640, Note_on_c, 9, 37, 107
7, 8640, Note_on_c, 9, 42, 113
7, 8832, Note_off_c, 9, 42, 64
7, 8832, Note_on_c, 9, 42, 95
7, 9024, Note_off_c, 9, 42, 64
7, 9024, Note_off_c, 9, 37, 64
7, 9024, Note_on_c, 9, 35, 92
7, 9024, Note_on_c, 9, 42, 92
7, 9216, Note_off_c, 9, 42, 64
7, 9216, Note_off_c, 9, 35, 64
7, 9216, Note_on_c, 9, 35, 127
7, 9216, Note_on_c, 9, 42, 127
7, 9408, Note_off_c, 9, 42, 64
7, 9408, Note_on_c, 9, 42, 98
7, 9600, Note_off_c, 9, 42, 64
7, 9600, Note_on_c, 9, 42, 95
7, 9792, Note_off_c, 9, 42, 64
7, 9792, Note_off_c, 9, 35, 64
7, 9792, Note_on_c, 9, 37, 107
7, 9792, Note_on_c, 9, 42, 113
7, 9984, Note_off_c, 9, 42, 64
7, 9984, Note_on_c, 9, 42, 95
7, 10176, Note_off_c, 9, 42, 64
7, 10176, Note_off_c, 9, 37, 64
7, 10176, Note_on_c, 9, 35, 92
7, 10176, Note_on_c, 9, 42, 92
7, 10368, Note_off_c, 9, 42, 64
7, 10368, Note_off_c, 9, 35, 64
7, 10368, Note_on_c, 9, 35, 127
7, 10368, Note_on_c, 9, 42, 127
7, 10560, Note_off_c, 9, 42, 64
7, 10560, Note_on_c, 9, 42, 98
7, 10752, Note_off_c, 9, 42, 64
7, 10752, Note_on_c, 9, 42, 95
7, 10944, Note_off_c, 9, 42, 64
7, 10944, Note_off_c, 9, 35, 64
7, 10944, Note_on_c, 9, 37, 107
7, 10944, Note_on_c, 9, 42, 113
7, 11136, Note_off_c, 9, 42, 64
7, 11136, Note_on_c, 9, 42, 95
7, 11328, Note_off_c, 9, 42, 64
7, 11328, Note_off_c, 9, 37, 64
7, 11328, Note_on_c, 9, 35, 92
7, 11328, Note_on_c, 9, 42, 92
7, 11520, Note_off_c, 9, 42, 64
7, 11520, Note_off_c, 9, 35, 64
7, 11520, Note_on_c, 9, 35, 127
7, 11520, Note_on_c, 9, 42, 127
7, 11712, Note_off_c, 9, 42, 64
7, 11712, Note_on_c, 9, 42, 98
7, 11904, Note_off_c, 9, 42, 64
7, 11904, Note_on_c, 9, 42, 95
7, 12096, Note_off_c, 9, 42, 64
7, 12096, Note_off_c, 9, 35, 64
7, 12096, Note_on_c, 9, 37, 107
7, 12096, Note_on_c, 9, 42, 113
7, 12288, Note_off_c, 9, 42, 64
7, 12288, Note_on_c, 9, 42, 95
7, 12480, Note_off_c, 9, 42, 64
7, 12480, Note_off_c, 9, 37, 64
7, 12480, Note_on_c, 9, 35, 92
7, 12480, Note_on_c, 9, 42, 92
7, 12672, Note_off_c, 9, 42, 64
7, 12672, Note_off_c, 9, 35, 64
7, 12672, Note_on_c, 9, 35, 127
7, 12672, Note_on_c, 9, 42, 127
7, 12864, Note_off_c, 9, 42, 64
7, 12864, Note_on_c, 9, 42, 98
7, 13056, Note_off_c, 9, 42, 64
7, 13056, Note_on_c, 9, 42, 95
7, 13248, Note_off_c, 9, 42, 64
7, 13248, Note_off_c, 9, 35, 64
7, 13248, Note_on_c, 9, 37, 107
7, 13248, Note_on_c, 9, 42, 113
7, 13440, Note_off_c, 9, 42, 64
7, 13440, Note_on_c, 9, 42, 95
7, 13632, Note_off_c, 9, 42, 64
7, 13632, Note_off_c, 9, 37, 64
7, 13632, Note_on_c, 9, 35, 92
7, 13632, Note_on_c, 9, 42, 92
7, 13824, Note_off_c, 9, 42, 64
7, 13824, Note_off_c, 9, 35, 64
7, 13824, Note_on_c, 9, 35, 127
7, 13824, Note_on_c, 9, 42, 127
7, 14016, Note_off_c, 9, 42, 64
7, 14016, Note_on_c, 9, 42, 98
7, 14208, Note_off_c, 9, 42, 64
7, 14208, Note_on_c, 9, 42, 95
7, 14400, Note_off_c, 9, 42, 64
7, 14400, Note_off_c, 9, 35, 64
7, 14400, Note_on_c, 9, 37, 107
7, 14400, Note_on_c, 9, 42, 113
7, 14592, Note_off_c, 9, 42, 64
7, 14592, Note_on_c, 9, 42, 95
7, 14784, Note_off_c, 9, 42, 64
7, 14784, Note_off_c, 9, 37, 64
7, 14784, Note_on_c, 9, 35, 92
7, 14784, Note_on_c, 9, 42, 92
7, 14976, Note_off_c, 9, 42, 64
7, 14976, Note_off_c, 9, 35, 64
7, 14976, Note_on_c, 9, 35, 127
7, 14976, Note_on_c, 9, 42, 127
7, 15168, Note_off_c, 9, 42, 64
7, 15168, Note_on_c, 9, 42, 98
7, 15360, Note_off_c, 9, 42, 64
7, 15360, Note_on_c, 9, 42, 95
7, 15552, Note_off_c, 9, 42, 64
7, 15552, Note_off_c, 9, 35, 64
7, 15552, Note_on_c, 9, 37, 107
7, 15552, Note_on_c, 9, 42, 113
7, 15744, Note_off_c, 9, 42, 64
7, 15744, Note_on_c, 9, 42, 95
7, 15936, Note_off_c, 9, 42, 64
7, 15936, Note_off_c, 9, 37, 64
7, 15936, Note_on_c, 9, 35, 92
7, 15936, Note_on_c, 9, 42, 92
7, 16128, Note_off_c, 9, 42, 64
7, 16128, Note_off_c, 9, 35, 64
7, 16128, Note_on_c, 9, 35, 127
7, 16128, Note_on_c, 9, 42, 127
7, 16320, Note_off_c, 9, 42, 64
7, 16320, Note_on_c, 9, 42, 98
7, 16512, Note_off_c, 9, 42, 64
7, 16512, Note_on_c, 9, 42, 95
7, 16704, Note_off_c, 9, 42, 64
7, 16704, Note_off_c, 9, 35, 64
7, 16704, Note_on_c, 9, 37, 107
7, 16704, Note_on_c, 9, 42, 113
7, 16896, Note_off_c, 9, 42, 64
7, 16896, Note_on_c, 9, 42, 95
7, 17088, Note_off_c, 9, 42, 64
7, 17088, Note_off_c, 9, 37, 64
7, 17088, Note_on_c, 9, 35, 92
7, 17088, Note_on_c, 9, 42, 92
7, 17280, Note_off_c, 9, 42, 64
7, 17280, Note_off_c, 9, 35, 64
7, 17280, Note_on_c, 9, 35, 127
7, 17280, Note_on_c, 9, 42, 127
7, 17472, Note_off_c, 9, 42, 64
7, 17472, Note_on_c, 9, 42, 98
7, 17664, Note_off_c, 9, 42, 64
7, 17664, Note_on_c, 9, 42, 95
7, 17856, Note_off_c, 9, 42, 64
7, 17856, Note_off_c, 9, 35, 64
7, 17856, Note_on_c, 9, 37, 107
7, 17856, Note_on_c, 9, 42, 113
7, 18048, Note_off_c, 9, 42, 64
7, 18048, Note_on_c, 9, 42, 95
7, 18240, Note_off_c, 9, 42, 64
7, 18240, Note_off_c, 9, 37, 64
7, 18240, Note_on_c, 9, 35, 92
7, 18240, Note_on_c, 9, 42, 92
7, 18432, Note_off_c, 9, 42, 64
7, 18432, Note_off_c, 9, 35, 64
7, 18432, Note_on_c, 9, 35, 127
7, 18432, Note_on_c, 9, 42, 127
7, 18624, Note_off_c, 9, 42, 64
7, 18624, Note_on_c, 9, 42, 98
7, 18816, Note_off_c, 9, 42, 64
7, 18816, Note_on_c, 9, 42, 95
7, 19008, Note_off_c, 9, 42, 64
7, 19008, Note_off_c, 9, 35, 64
7, 19008, Note_on_c, 9, 37, 107
7, 19008, Note_on_c, 9, 42, 113
7, 19200, Note_off_c, 9, 42, 64
7, 19200, Note_on_c, 9, 42, 95
7, 19392, Note_off_c, 9, 42, 64
7, 19392, Note_off_c, 9, 37, 64
7, 19392, Note_on_c, 9, 35, 92
7, 19392, Note_on_c, 9, 42, 92
7, 19584, Note_off_c, 9, 42, 64
7, 19584, Note_off_c, 9, 35, 64
7, 19584, Note_on_c, 9, 35, 127
7, 19584, Note_on_c, 9, 42, 127
7, 19776, Note_off_c, 9, 42, 64
7, 19776, Note_on_c, 9, 42, 98
7, 19968, Note_off_c, 9, 42, 64
7, 19968, Note_on_c, 9, 42, 95
7, 20160, Note_off_c, 9, 42, 64
7, 20160, Note_off_c, 9, 35, 64
7, 20160, Note_on_c, 9, 37, 107
7, 20160, Note_on_c, 9, 42, 113
7, 20352, Note_off_c, 9, 42, 64
7, 20352, Note_on_c, 9, 42, 95
7, 20544, Note_off_c, 9, 42, 64
7, 20544, Note_off_c, 9, 37, 64
7, 20544, Note_on_c, 9, 35, 92
7, 20544, Note_on_c, 9, 42, 92
7, 20736, Note_off_c, 9, 42, 64
7, 20736, Note_off_c, 9, 35, 64
7, 20736, Note_on_c, 9, 35, 127
7, 20736, Note_on_c, 9, 42, 127
7, 20928, Note_off_c, 9, 42, 64
7, 20928, Note_on_c, 9, 42, 98
7, 21120, Note_off_c, 9, 42, 64
7, 21120, Note_on_c, 9, 42, 95
7, 21312, Note_off_c, 9, 42, 64
7, 21312, Note_off_c, 9, 35, 64
7, 21312, Note_on_c, 9, 37, 107
7, 21312, Note_on_c, 9, 42, 113
7, 21504, Note_off_c, 9, 42, 64
7, 21504, Note_on_c, 9, 42, 95
7, 21696, Note_off_c, 9, 42, 64
7, 21696, Note_off_c, 9, 37, 64
7, 21696, Note_on_c, 9, 35, 92
7, 21696, Note_on_c, 9, 42, 92
7, 21888, Note_off_c, 9, 42, 64
7, 21888, Note_off_c, 9, 35, 64
7, 21888, Note_on_c, 9, 35, 127
7, 21888, Note_on_c, 9, 42, 127
7, 22080, Note_off_c, 9, 42, 64
7, 22080, Note_on_c, 9, 42, 98
7, 22272, Note_off_c, 9, 42, 64
7, 22272, Note_on_c, 9, 42, 95
7, 22464, Note_off_c, 9, 42, 64
7, 22464, Note_off_c, 9, 35, 64
7, 22464, Note_on_c, 9, 37, 107
7, 22464, Note_on_c, 9, 42, 113
7, 22656, Note_off_c, 9, 42, 64
7, 22656, Note_on_c, 9, 42, 95
7, 22848, Note_off_c, 9, 42, 64
7, 22848, Note_off_c, 9, 37, 64
7, 22848, Note_on_c, 9, 35, 92
7, 22848, Note_on_c, 9, 42, 92
7, 23040, Note_off_c, 9, 42, 64
7, 23040, Note_off_c, 9, 35, 64
7, 23040, Note_on_c, 9, 35, 127
7, 23040, Note_on_c, 9, 42, 127
7, 23232, Note_off_c, 9, 42, 64
7, 23232, Note_on_c, 9, 42, 98
7, 23424, Note_off_c, 9, 42, 64
7, 23424, Note_on_c, 9, 42, 95
7, 23616, Note_off_c, 9, 42, 64
7, 23616, Note_off_c, 9, 35, 64
7, 23616, Note_on_c, 9, 37, 107
7, 23616, Note_on_c, 9, 42, 113
7, 23808, Note_off_c, 9, 42, 64
7, 23808, Note_on_c, 9, 42, 95
7, 24000, Note_off_c, 9, 42, 64
7, 24000, Note_off_c, 9, 37, 64
7, 24000, Note_on_c, 9, 35, 92
7, 24000, Note_on_c, 9, 42, 92
7, 24192, Note_off_c, 9, 42, 64
7, 24192, Note_off_c, 9, 35, 64
7, 24192, Note_on_c, 9, 35, 127
7, 24192, Note_on_c, 9, 42, 127
7, 24384, Note_off_c, 9, 42, 64
7, 24384, Note_on_c, 9, 42, 98
7, 24576, Note_off_c, 9, 42, 64
7, 24576, Note_on_c, 9, 42, 95
7, 24768, Note_off_c, 9, 42, 64
7, 24768, Note_off_c, 9, 35, 64
7, 24768, Note_on_c, 9, 37, 107
7, 24768, Note_on_c, 9, 42, 113
7, 24960, Note_off_c, 9, 42, 64
7, 24960, Note_on_c, 9, 42, 95
7, 25152, Note_off_c, 9, 42, 64
7, 25152, Note_off_c, 9, 37, 64
7, 25152, Note_on_c, 9, 35, 92
7, 25152, Note_on_c, 9, 42, 92
7, 25344, Note_off_c, 9, 42, 64
7, 25344, Note_off_c, 9, 35, 64
7, 25344, Note_on_c, 9, 35, 127
7, 25344, Note_on_c, 9, 42, 127
7, 25536, Note_off_c, 9, 42, 64
7, 25536, Note_on_c, 9, 42, 98
7, 25728, Note_off_c, 9, 42, 64
7, 25728, Note_on_c, 9, 42, 95
7, 25920, Note_off_c, 9, 42, 64
7, 25920, Note_off_c, 9, 35, 64
7, 25920, Note_on_c, 9, 37, 107
7, 25920, Note_on_c, 9, 42, 113
7, 26112, Note_off_c, 9, 42, 64
7, 26112, Note_on_c, 9, 42, 95
7, 26304, Note_off_c, 9, 42, 64
7, 26304, Note_off_c, 9, 37, 64
7, 26304, Note_on_c, 9, 35, 92
7, 26304, Note_on_c, 9, 42, 92
7, 26496, Note_off_c, 9, 42, 64
7, 26496, Note_off_c, 9, 35, 64
7, 26496, Note_on_c, 9, 51, 127
7, 26496, Note_on_c, 9, 55, 127
7, 26496, Note_on_c, 9, 35, 127
7, 26496, Note_on_c, 9, 42, 127
7, 26688, Note_off_c, 9, 42, 64
7, 26688, Note_off_c, 9, 55, 64
7, 26688, Note_off_c, 9, 51, 64
7, 26688, Note_on_c, 9, 51, 99
7, 26688, Note_on_c, 9, 42, 99
7, 26880, Note_off_c, 9, 42, 64
7, 26880, Note_off_c, 9, 51, 64
7, 26880, Note_off_c, 9, 35, 64
7, 26880, Note_on_c, 9, 51, 95
7, 26880, Note_on_c, 9, 35, 95
7, 26880, Note_on_c, 9, 42, 95
7, 27072, Note_off_c, 9, 42, 64
7, 27072, Note_off_c, 9, 35, 64
7, 27072, Note_off_c, 9, 51, 64
7, 27072, Note_on_c, 9, 51, 116
7, 27072, Note_on_c, 9, 38, 111
7, 27072, Note_on_c, 9, 42, 116
7, 27264, Note_off_c, 9, 42, 64
7, 27264, Note_off_c, 9, 51, 64
7, 27264, Note_on_c, 9, 51, 102
7, 27264, Note_on_c, 9, 42, 102
7, 27456, Note_off_c, 9, 42, 64
7, 27456, Note_off_c, 9, 51, 64
7, 27456, Note_off_c, 9, 38, 64
7, 27456, Note_on_c, 9, 51, 92
7, 27456, Note_on_c, 9, 35, 95
7, 27456, Note_on_c, 9, 42, 92
7, 27648, Note_off_c, 9, 42, 64
7, 27648, Note_off_c, 9, 35, 64
7, 27648, Note_off_c, 9, 51, 64
7, 27648, Note_on_c, 9, 51, 127
7, 27648, Note_on_c, 9, 35, 127
7, 27648, Note_on_c, 9, 42, 127
7, 27840, Note_off_c, 9, 42, 64
7, 27840, Note_off_c, 9, 35, 64
7, 27840, Note_off_c, 9, 51, 64
7, 27840, Note_on_c, 9, 51, 99
7, 27840, Note_on_c, 9, 35, 99
7, 27840, Note_on_c, 9, 42, 99
7, 28032, Note_off_c, 9, 42, 64
7, 28032, Note_off_c, 9, 35, 64
7, 28032, Note_off_c, 9, 51, 64
7, 28032, Note_on_c, 9, 51, 95
7, 28032, Note_on_c, 9, 35, 95
7, 28032, Note_on_c, 9, 42, 95
7, 28224, Note_off_c, 9, 42, 64
7, 28224, Note_off_c, 9, 35, 64
7, 28224, Note_off_c, 9, 51, 64
7, 28224, Note_on_c, 9, 51, 116
7, 28224, Note_on_c, 9, 38, 116
7, 28224, Note_on_c, 9, 42, 116
7, 28416, Note_off_c, 9, 42, 64
7, 28416, Note_off_c, 9, 38, 64
7, 28416, Note_off_c, 9, 51, 64
7, 28416, Note_on_c, 9, 51, 102
7, 28416, Note_on_c, 9, 35, 102
7, 28416, Note_on_c, 9, 42, 102
7, 28608, Note_off_c, 9, 42, 64
7, 28608, Note_off_c, 9, 35, 64
7, 28608, Note_off_c, 9, 51, 64
7, 28608, Note_on_c, 9, 51, 92
7, 28608, Note_on_c, 9, 35, 92
7, 28608, Note_on_c, 9, 44, 92
7, 28800, Note_off_c, 9, 44, 64
7, 28800, Note_off_c, 9, 35, 64
7, 28800, Note_off_c, 9, 51, 64
7, 28800, Note_on_c, 9, 51, 127
7, 28800, Note_on_c, 9, 55, 127
7, 28800, Note_on_c, 9, 35, 127
7, 28800, Note_on_c, 9, 42, 127
7, 28992, Note_off_c, 9, 42, 64
7, 28992, Note_off_c, 9, 55, 64
7, 28992, Note_off_c, 9, 51, 64
7, 28992, Note_on_c, 9, 51, 99
7, 28992, Note_on_c, 9, 42, 99
7, 29184, Note_off_c, 9, 42, 64
7, 29184, Note_off_c, 9, 51, 64
7, 29184, Note_off_c, 9, 35, 64
7, 29184, Note_on_c, 9, 51, 95
7, 29184, Note_on_c, 9, 35, 95
7, 29184, Note_on_c, 9, 42, 95
7, 29376, Note_off_c, 9, 42, 64
7, 29376, Note_off_c, 9, 35, 64
7, 29376, Note_off_c, 9, 51, 64
7, 29376, Note_on_c, 9, 51, 116
7, 29376, Note_on_c, 9, 38, 111
7, 29376, Note_on_c, 9, 42, 116
7, 29568, Note_off_c, 9, 42, 64
7, 29568, Note_off_c, 9, 51, 64
7, 29568, Note_on_c, 9, 51, 102
7, 29568, Note_on_c, 9, 42, 102
7, 29760, Note_off_c, 9, 42, 64
7, 29760, Note_off_c, 9, 51, 64
7, 29760, Note_off_c, 9, 38, 64
7, 29760, Note_on_c, 9, 51, 92
7, 29760, Note_on_c, 9, 35, 95
7, 29760, Note_on_c, 9, 42, 92
7, 29952, Note_off_c, 9, 42, 64
7, 29952, Note_off_c, 9, 35, 64
7, 29952, Note_off_c, 9, 51, 64
7, 29952, Note_on_c, 9, 51, 127
7, 29952, Note_on_c, 9, 35, 127
7, 29952, Note_on_c, 9, 42, 127
7, 30144, Note_off_c, 9, 42, 64
7, 30144, Note_off_c, 9, 35, 64
7, 30144, Note_off_c, 9, 51, 64
7, 30144, Note_on_c, 9, 51, 99
7, 30144, Note_on_c, 9, 35, 99
7, 30144, Note_on_c, 9, 42, 99
7, 30336, Note_off_c, 9, 42, 64
7, 30336, Note_off_c, 9, 35, 64
7, 30336, Note_off_c, 9, 51, 64
7, 30336, Note_on_c, 9, 51, 95
7, 30336, Note_on_c, 9, 35, 95
7, 30336, Note_on_c, 9, 42, 95
7, 30528, Note_off_c, 9, 42, 64
7, 30528, Note_off_c, 9, 35, 64
7, 30528, Note_off_c, 9, 51, 64
7, 30528, Note_on_c, 9, 51, 116
7, 30528, Note_on_c, 9, 38, 116
7, 30528, Note_on_c, 9, 42, 116
7, 30720, Note_off_c, 9, 42, 64
7, 30720, Note_off_c, 9, 38, 64
7, 30720, Note_off_c, 9, 51, 64
7, 30720, Note_on_c, 9, 51, 102
7, 30720, Note_on_c, 9, 35, 102
7, 30720, Note_on_c, 9, 42, 102
7, 30912, Note_off_c, 9, 42, 64
7, 30912, Note_off_c, 9, 35, 64
7, 30912, Note_off_c, 9, 51, 64
7, 30912, Note_on_c, 9, 51, 92
7, 30912, Note_on_c, 9, 35, 92
7, 30912, Note_on_c, 9, 44, 92
7, 31104, Note_off_c, 9, 44, 64
7, 31104, Note_off_c, 9, 35, 64
7, 31104, Note_off_c, 9, 51, 64
7, 31104, Note_on_c, 9, 51, 127
7, 31104, Note_on_c, 9, 55, 127
7, 31104, Note_on_c, 9, 35, 127
7, 31104, Note_on_c, 9, 42, 127
7, 31296, Note_off_c, 9, 42, 64
7, 31296, Note_off_c, 9, 55, 64
7, 31296, Note_off_c, 9, 51, 64
7, 31296, Note_on_c, 9, 51, 99
7, 31296, Note_on_c, 9, 42, 99
7, 31488, Note_off_c, 9, 42, 64
7, 31488, Note_off_c, 9, 51, 64
7, 31488, Note_off_c, 9, 35, 64
7, 31488, Note_on_c, 9, 51, 95
7, 31488, Note_on_c, 9, 35, 95
7, 31488, Note_on_c, 9, 42, 95
7, 31680, Note_off_c, 9, 42, 64
7, 31680, Note_off_c, 9, 35, 64
7, 31680, Note_off_c, 9, 51, 64
7, 31680, Note_on_c, 9, 51, 116
7, 31680, Note_on_c, 9, 38, 111
7, 31680, Note_on_c, 9, 42, 116
7, 31872, Note_off_c, 9, 42, 64
7, 31872, Note_off_c, 9, 51, 64
7, 31872, Note_on_c, 9, 51, 102
7, 31872, Note_on_c, 9, 42, 102
7, 32064, Note_off_c, 9, 42, 64
7, 32064, Note_off_c, 9, 51, 64
7, 32064, Note_off_c, 9, 38, 64
7, 32064, Note_on_c, 9, 51, 92
7, 32064, Note_on_c, 9, 35, 95
7, 32064, Note_on_c, 9, 42, 92
7, 32256, Note_off_c, 9, 42, 64
7, 32256, Note_off_c, 9, 35, 64
7, 32256, Note_off_c, 9, 51, 64
7, 32256, Note_on_c, 9, 51, 127
7, 32256, Note_on_c, 9, 35, 127
7, 32256, Note_on_c, 9, 42, 127
7, 32448, Note_off_c, 9, 42, 64
7, 32448, Note_off_c, 9, 35, 64
7, 32448, Note_off_c, 9, 51, 64
7, 32448, Note_on_c, 9, 51, 99
7, 32448, Note_on_c, 9, 35, 99
7, 32448, Note_on_c, 9, 42, 99
7, 32640, Note_off_c, 9, 42, 64
7, 32640, Note_off_c, 9, 35, 64
7, 32640, Note_off_c, 9, 51, 64
7, 32640, Note_on_c, 9, 51, 95
7, 32640, Note_on_c, 9, 35, 95
7, 32640, Note_on_c, 9, 42, 95
7, 32832, Note_off_c, 9, 42, 64
7, 32832, Note_off_c, 9, 35, 64
7, 32832, Note_off_c, 9, 51, 64
7, 32832, Note_on_c, 9, 51, 116
7, 32832, Note_on_c, 9, 38, 116
7, 32832, Note_on_c, 9, 42, 116
7, 33024, Note_off_c, 9, 42, 64
7, 33024, Note_off_c, 9, 38, 64
7, 33024, Note_off_c, 9, 51, 64
7, 33024, Note_on_c, 9, 51, 102
7, 33024, Note_on_c, 9, 35, 102
7, 33024, Note_on_c, 9, 42, 102
7, 33216, Note_off_c, 9, 42, 64
7, 33216, Note_off_c, 9, 35, 64
7, 33216, Note_off_c, 9, 51, 64
7, 33216, Note_on_c, 9, 51, 92
7, 33216, Note_on_c, 9, 35, 92
7, 33216, Note_on_c, 9, 44, 92
7, 33408, Note_off_c, 9, 44, 64
7, 33408, Note_off_c, 9, 35, 64
7, 33408, Note_off_c, 9, 51, 64
7, 33408, Note_on_c, 9, 51, 127
7, 33408, Note_on_c, 9, 55, 127
7, 33408, Note_on_c, 9, 35, 127
7, 33408, Note_on_c, 9, 42, 127
7, 33600, Note_off_c, 9, 42, 64
7, 33600, Note_off_c, 9, 55, 64
7, 33600, Note_off_c, 9, 51, 64
7, 33600, Note_on_c, 9, 51, 99
7, 33600, Note_on_c, 9, 42, 99
7, 33792, Note_off_c, 9, 42, 64
7, 33792, Note_off_c, 9, 51, 64
7, 33792, Note_off_c, 9, 35, 64
7, 33792, Note_on_c, 9, 51, 95
7, 33792, Note_on_c, 9, 35, 95
7, 33792, Note_on_c, 9, 42, 95
7, 33984, Note_off_c, 9, 42, 64
7, 33984, Note_off_c, 9, 35, 64
7, 33984, Note_off_c, 9, 51, 64
7, 33984, Note_on_c, 9, 51, 116
7, 33984, Note_on_c, 9, 38, 111
7, 33984, Note_on_c, 9, 42, 116
7, 34176, Note_off_c, 9, 42, 64
7, 34176, Note_off_c, 9, 51, 64
7, 34176, Note_on_c, 9, 51, 102
7, 34176, Note_on_c, 9, 42, 102
7, 34368, Note_off_c, 9, 42, 64
7, 34368, Note_off_c, 9, 51, 64
7, 34368, Note_off_c, 9, 38, 64
7, 34368, Note_on_c, 9, 51, 92
7, 34368, Note_on_c, 9, 35, 95
7, 34368, Note_on_c, 9, 42, 92
7, 34560, Note_off_c, 9, 42, 64
7, 34560, Note_off_c, 9, 35, 64
7, 34560, Note_off_c, 9, 51, 64
7, 34560, Note_on_c, 9, 51, 127
7, 34560, Note_on_c, 9, 35, 127
7, 34560, Note_on_c, 9, 42, 127
7, 34752, Note_off_c, 9, 42, 64
7, 34752, Note_off_c, 9, 35, 64
7, 34752, Note_off_c, 9, 51, 64
7, 34752, Note_on_c, 9, 51, 99
7, 34752, Note_on_c, 9, 35, 99
7, 34752, Note_on_c, 9, 42, 99
7, 34944, Note_off_c, 9, 42, 64
7, 34944, Note_off_c, 9, 35, 64
7, 34944, Note_off_c, 9, 51, 64
7, 35712, Note_on_c, 9, 35, 127
7, 35712, Note_on_c, 9, 42, 127
7, 35904, Note_off_c, 9, 42, 64
7, 35904, Note_on_c, 9, 42, 98
7, 36096, Note_off_c, 9, 42, 64
7, 36096, Note_on_c, 9, 42, 95
7, 36288, Note_off_c, 9, 42, 64
7, 36288, Note_off_c, 9, 35, 64
7, 36288, Note_on_c, 9, 37, 107
7, 36288, Note_on_c, 9, 42, 113
7, 36480, Note_off_c, 9, 42, 64
7, 36480, Note_on_c, 9, 42, 95
7, 36672, Note_off_c, 9, 42, 64
7, 36672, Note_off_c, 9, 37, 64
7, 36672, Note_on_c, 9, 35, 92
7, 36672, Note_on_c, 9, 42, 92
7, 36864, Note_off_c, 9, 42, 64
7, 36864, Note_off_c, 9, 35, 64
7, 36864, Note_on_c, 9, 35, 127
7, 36864, Note_on_c, 9, 42, 127
7, 37056, Note_off_c, 9, 42, 64
7, 37056, Note_on_c, 9, 42, 98
7, 37248, Note_off_c, 9, 42, 64
7, 37248, Note_on_c, 9, 42, 95
7, 37440, Note_off_c, 9, 42, 64
7, 37440, Note_off_c, 9, 35, 64
7, 37440, Note_on_c, 9, 37, 107
7, 37440, Note_on_c, 9, 42, 113
7, 37632, Note_off_c, 9, 42, 64
7, 37632, Note_on_c, 9, 42, 95
7, 37824, Note_off_c, 9, 42, 64
7, 37824, Note_off_c, 9, 37, 64
7, 37824, Note_on_c, 9, 35, 92
7, 37824, Note_on_c, 9, 42, 92
7, 38016, Note_off_c, 9, 42, 64
7, 38016, Note_off_c, 9, 35, 64
7, 38016, Note_on_c, 9, 35, 127
7, 38016, Note_on_c, 9, 42, 127
7, 38208, Note_off_c, 9, 42, 64
7, 38208, Note_on_c, 9, 42, 98
7, 38400, Note_off_c, 9, 42, 64
7, 38400, Note_on_c, 9, 42, 95
7, 38592, Note_off_c, 9, 42, 64
7, 38592, Note_off_c, 9, 35, 64
7, 38592, Note_on_c, 9, 37, 107
7, 38592, Note_on_c, 9, 42, 113
7, 38784, Note_off_c, 9, 42, 64
7, 38784, Note_on_c, 9, 42, 95
7, 38976, Note_off_c, 9, 42, 64
7, 38976, Note_off_c, 9, 37, 64
7, 38976, Note_on_c, 9, 35, 92
7, 38976, Note_on_c, 9, 42, 92
7, 39168, Note_off_c, 9, 42, 64
7, 39168, Note_off_c, 9, 35, 64
7, 39168, Note_on_c, 9, 35, 127
7, 39168, Note_on_c, 9, 42, 127
7, 39360, Note_off_c, 9, 42, 64
7, 39360, Note_on_c, 9, 42, 98
7, 39552, Note_off_c, 9, 42, 64
7, 39552, Note_on_c, 9, 42, 95
7, 39744, Note_off_c, 9, 42, 64
7, 39744, Note_off_c, 9, 35, 64
7, 39744, Note_on_c, 9, 37, 107
7, 39744, Note_on_c, 9, 42, 113
7, 39936, Note_off_c, 9, 42, 64
7, 39936, Note_on_c, 9, 42, 95
7, 40128, Note_off_c, 9, 42, 64
7, 40128, Note_off_c, 9, 37, 64
7, 40128, Note_on_c, 9, 35, 92
7, 40128, Note_on_c, 9, 42, 92
7, 40320, Note_off_c, 9, 42, 64
7, 40320, Note_off_c, 9, 35, 64
7, 40320, Note_on_c, 9, 35, 127
7, 40320, Note_on_c, 9, 42, 127
7, 40512, Note_off_c, 9, 42, 64
7, 40512, Note_on_c, 9, 42, 98
7, 40704, Note_off_c, 9, 42, 64
7, 40704, Note_on_c, 9, 42, 95
7, 40896, Note_off_c, 9, 42, 64
7, 40896, Note_off_c, 9, 35, 64
7, 40896, Note_on_c, 9, 37, 107
7, 40896, Note_on_c, 9, 42, 113
7, 41088, Note_off_c, 9, 42, 64
7, 41088, Note_on_c, 9, 42, 95
7, 41280, Note_off_c, 9, 42, 64
7, 41280, Note_off_c, 9, 37, 64
7, 41280, Note_on_c, 9, 35, 92
7, 41280, Note_on_c, 9, 42, 92
7, 41472, Note_off_c, 9, 42, 64
7, 41472, Note_off_c, 9, 35, 64
7, 41472, Note_on_c, 9, 35, 127
7, 41472, Note_on_c, 9, 42, 127
7, 41664, Note_off_c, 9, 42, 64
7, 41664, Note_on_c, 9, 42, 98
7, 41856, Note_off_c, 9, 42, 64
7, 41856, Note_on_c, 9, 42, 95
7, 42048, Note_off_c, 9, 42, 64
7, 42048, Note_off_c, 9, 35, 64
7, 42048, Note_on_c, 9, 37, 107
7, 42048, Note_on_c, 9, 42, 113
7, 42240, Note_off_c, 9, 42, 64
7, 42240, Note_on_c, 9, 42, 95
7, 42432, Note_off_c, 9, 42, 64
7, 42432, Note_off_c, 9, 37, 64
7, 42432, Note_on_c, 9, 35, 92
7, 42432, Note_on_c, 9, 42, 92
7, 42624, Note_off_c, 9, 42, 64
7, 42624, Note_off_c, 9, 35, 64
7, 42624, Note_on_c, 9, 35, 127
7, 42624, Note_on_c, 9, 42, 127
7, 42816, Note_off_c, 9, 42, 64
7, 42816, Note_on_c, 9, 42, 98
7, 43008, Note_off_c, 9, 42, 64
7, 43008, Note_on_c, 9, 42, 95
7, 43200, Note_off_c, 9, 42, 64
7, 43200, Note_off_c, 9, 35, 64
7, 43200, Note_on_c, 9, 37, 107
7, 43200, Note_on_c, 9, 42, 113
7, 43392, Note_off_c, 9, 42, 64
7, 43392, Note_on_c, 9, 42, 95
7, 43584, Note_off_c, 9, 42, 64
7, 43584, Note_off_c, 9, 37, 64
7, 43584, Note_on_c, 9, 35, 92
7, 43584, Note_on_c, 9, 42, 92
7, 43776, Note_off_c, 9, 42, 64
7, 43776, Note_off_c, 9, 35, 64
7, 43776, Note_on_c, 9, 35, 127
7, 43776, Note_on_c, 9, 42, 127
7, 43968, Note_off_c, 9, 42, 64
7, 43968, Note_on_c, 9, 42, 98
7, 44160, Note_off_c, 9, 42, 64
7, 44160, Note_on_c, 9, 42, 95
7, 44352, Note_off_c, 9, 42, 64
7, 44352, Note_off_c, 9, 35, 64
7, 44352, Note_on_c, 9, 37, 107
7, 44352, Note_on_c, 9, 42, 113
7, 44544, Note_off_c, 9, 42, 64
7, 44544, Note_on_c, 9, 42, 95
7, 44736, Note_off_c, 9, 42, 64
7, 44736, Note_off_c, 9, 37, 64
7, 44736, Note_on_c, 9, 35, 92
7, 44736, Note_on_c, 9, 42, 92
7, 44928, Note_off_c, 9, 42, 64
7, 44928, Note_off_c, 9, 35, 64
7, 44928, Note_on_c, 9, 35, 127
7, 44928, Note_on_c, 9, 42, 127
7, 45120, Note_off_c, 9, 42, 64
7, 45120, Note_on_c, 9, 42, 98
7, 45312, Note_off_c, 9, 42, 64
7, 45312, Note_on_c, 9, 42, 95
7, 45504, Note_off_c, 9, 42, 64
7, 45504, Note_off_c, 9, 35, 64
7, 45504, Note_on_c, 9, 37, 107
7, 45504, Note_on_c, 9, 42, 113
7, 45696, Note_off_c, 9, 42, 64
7, 45696, Note_on_c, 9, 42, 95
7, 45888, Note_off_c, 9, 42, 64
7, 45888, Note_off_c, 9, 37, 64
7, 45888, Note_on_c, 9, 35, 92
7, 45888, Note_on_c, 9, 42, 92
7, 46080, Note_off_c, 9, 42, 64
7, 46080, Note_off_c, 9, 35, 64
7, 46080, Note_on_c, 9, 35, 127
7, 46080, Note_on_c, 9, 42, 127
7, 46272, Note_off_c, 9, 42, 64
7, 46272, Note_on_c, 9, 42, 98
7, 46464, Note_off_c, 9, 42, 64
7, 46464, Note_on_c, 9, 42, 95
7, 46656, Note_off_c, 9, 42, 64
7, 46656, Note_off_c, 9, 35, 64
7, 46656, Note_on_c, 9, 37, 107
7, 46656, Note_on_c, 9, 42, 113
7, 46848, Note_off_c, 9, 42, 64
7, 46848, Note_on_c, 9, 42, 95
7, 47040, Note_off_c, 9, 42, 64
7, 47040, Note_off_c, 9, 37, 64
7, 47040, Note_on_c, 9, 35, 92
7, 47040, Note_on_c, 9, 42, 92
7, 47232, Note_off_c, 9, 42, 64
7, 47232, Note_off_c, 9, 35, 64
7, 47232, Note_on_c, 9, 35, 127
7, 47232, Note_on_c, 9, 42, 127
7, 47424, Note_off_c, 9, 42, 64
7, 47424, Note_on_c, 9, 42, 98
7, 47616, Note_off_c, 9, 42, 64
7, 47616, Note_on_c, 9, 42, 95
7, 47808, Note_off_c, 9, 42, 64
7, 47808, Note_off_c, 9, 35, 64
7, 47808, Note_on_c, 9, 37, 107
7, 47808, Note_on_c, 9, 42, 113
7, 48000, Note_off_c, 9, 42, 64
7, 48000, Note_on_c, 9, 42, 95
7, 48192, Note_off_c, 9, 42, 64
7, 48192, Note_off_c, 9, 37, 64
7, 48192, Note_on_c, 9, 35, 92
7, 48192, Note_on_c, 9, 42, 92
7, 48384, Note_off_c, 9, 42, 64
7, 48384, Note_off_c, 9, 35, 64
7, 48384, Note_on_c, 9, 35, 127
7, 48384, Note_on_c, 9, 42, 127
7, 48576, Note_off_c, 9, 42, 64
7, 48576, Note_on_c, 9, 42, 98
7, 48768, Note_off_c, 9, 42, 64
7, 48768, Note_on_c, 9, 42, 95
7, 48960, Note_off_c, 9, 42, 64
7, 48960, Note_off_c, 9, 35, 64
7, 48960, Note_on_c, 9, 37, 107
7, 48960, Note_on_c, 9, 42, 113
7, 49152, Note_off_c, 9, 42, 64
7, 49152, Note_on_c, 9, 42, 95
7, 49344, Note_off_c, 9, 42, 64
7, 49344, Note_off_c, 9, 37, 64
7, 49344, Note_on_c, 9, 35, 92
7, 49344, Note_on_c, 9, 42, 92
7, 49536, Note_off_c, 9, 42, 64
7, 49536, Note_off_c, 9, 35, 64
7, 49536, Note_on_c, 9, 35, 127
7, 49536, Note_on_c, 9, 42, 127
7, 49728, Note_off_c, 9, 42, 64
7, 49728, Note_on_c, 9, 42, 98
7, 49920, Note_off_c, 9, 42, 64
7, 49920, Note_on_c, 9, 42, 95
7, 50112, Note_off_c, 9, 42, 64
7, 50112, Note_off_c, 9, 35, 64
7, 50112, Note_on_c, 9, 37, 107
7, 50112, Note_on_c, 9, 42, 113
7, 50304, Note_off_c, 9, 42, 64
7, 50304, Note_on_c, 9, 42, 95
7, 50496, Note_off_c, 9, 42, 64
7, 50496, Note_off_c, 9, 37, 64
7, 50496, Note_on_c, 9, 35, 92
7, 50496, Note_on_c, 9, 42, 92
7, 50688, Note_off_c, 9, 42, 64
7, 50688, Note_off_c, 9, 35, 64
7, 50688, Note_on_c, 9, 35, 127
7, 50688, Note_on_c, 9, 42, 127
7, 50880, Note_off_c, 9, 42, 64
7, 50880, Note_on_c, 9, 42, 98
7, 51072, Note_off_c, 9, 42, 64
7, 51072, Note_on_c, 9, 42, 95
7, 51264, Note_off_c, 9, 42, 64
7, 51264, Note_off_c, 9, 35, 64
7, 51264, Note_on_c, 9, 37, 107
7, 51264, Note_on_c, 9, 42, 113
7, 51456, Note_off_c, 9, 42, 64
7, 51456, Note_on_c, 9, 42, 95
7, 51648, Note_off_c, 9, 42, 64
7, 51648, Note_off_c, 9, 37, 64
7, 51648, Note_on_c, 9, 35, 92
7, 51648, Note_on_c, 9, 42, 92
7, 51840, Note_off_c, 9, 42, 64
7, 51840, Note_off_c, 9, 35, 64
7, 51840, Note_on_c, 9, 35, 127
7, 51840, Note_on_c, 9, 42, 127
7, 52032, Note_off_c, 9, 42, 64
7, 52032, Note_on_c, 9, 42, 98
7, 52224, Note_off_c, 9, 42, 64
7, 52224, Note_on_c, 9, 42, 95
7, 52416, Note_off_c, 9, 42, 64
7, 52416, Note_off_c, 9, 35, 64
7, 52416, Note_on_c, 9, 37, 107
7, 52416, Note_on_c, 9, 42, 113
7, 52608, Note_off_c, 9, 42, 64
7, 52608, Note_on_c, 9, 42, 95
7, 52800, Note_off_c, 9, 42, 64
7, 52800, Note_off_c, 9, 37, 64
7, 52800, Note_on_c, 9, 35, 92
7, 52800, Note_on_c, 9, 42, 92
7, 52992, Note_off_c, 9, 42, 64
7, 52992, Note_off_c, 9, 35, 64
7, 52992, Note_on_c, 9, 35, 127
7, 52992, Note_on_c, 9, 42, 127
7, 53184, Note_off_c, 9, 42, 64
7, 53184, Note_on_c, 9, 42, 98
7, 53376, Note_off_c, 9, 42, 64
7, 53376, Note_on_c, 9, 42, 95
7, 53568, Note_off_c, 9, 42, 64
7, 53568, Note_off_c, 9, 35, 64
7, 53568, Note_on_c, 9, 37, 107
7, 53568, Note_on_c, 9, 42, 113
7, 53760, Note_off_c, 9, 42, 64
7, 53760, Note_on_c, 9, 42, 95
7, 53952, Note_off_c, 9, 42, 64
7, 53952, Note_off_c, 9, 37, 64
7, 53952, Note_on_c, 9, 35, 92
7, 53952, Note_on_c, 9, 42, 92
7, 54144, Note_off_c, 9, 42, 64
7, 54144, Note_off_c, 9, 35, 64
7, 54144, Note_on_c, 9, 51, 127
7, 54144, Note_on_c, 9, 55, 127
7, 54144, Note_on_c, 9, 35, 127
7, 54144, Note_on_c, 9, 42, 127
7, 54336, Note_off_c, 9, 42, 64
7, 54336, Note_off_c, 9, 55, 64
7, 54336, Note_off_c, 9, 51, 64
7, 54336, Note_on_c, 9, 51, 99
7, 54336, Note_on_c, 9, 42, 99
7, 54528, Note_off_c, 9, 42, 64
7, 54528, Note_off_c, 9, 51, 64
7, 54528, Note_off_c, 9, 35, 64
7, 54528, Note_on_c, 9, 51, 95
7, 54528, Note_on_c, 9, 35, 95
7, 54528, Note_on_c, 9, 42, 95
7, 54720, Note_off_c, 9, 42, 64
7, 54720, Note_off_c, 9, 35, 64
7, 54720, Note_off_c, 9, 51, 64
7, 54720, Note_on_c, 9, 51, 116
7, 54720, Note_on_c, 9, 38, 111
7, 54720, Note_on_c, 9, 42, 116
7, 54912, Note_off_c, 9, 42, 64
7, 54912, Note_off_c, 9, 51, 64
7, 54912, Note_on_c, 9, 51, 102
7, 54912, Note_on_c, 9, 42, 102
7, 55104, Note_off_c, 9, 42, 64
7, 55104, Note_off_c, 9, 51, 64
7, 55104, Note_off_c, 9, 38, 64
7, 55104, Note_on_c, 9, 51, 92
7, 55104, Note_on_c, 9, 35, 95
7, 55104, Note_on_c, 9, 42, 92
7, 55296, Note_off_c, 9, 42, 64
7, 55296, Note_off_c, 9, 35, 64
7, 55296, Note_off_c, 9, 51, 64
7, 55296, Note_on_c, 9, 51, 127
7, 55296, Note_on_c, 9, 35, 127
7, 55296, Note_on_c, 9, 42, 127
7, 55488, Note_off_c, 9, 42, 64
7, 55488, Note_off_c, 9, 35, 64
7, 55488, Note_off_c, 9, 51, 64
7, 55488, Note_on_c, 9, 51, 99
7, 55488, Note_on_c, 9, 35, 99
7, 55488, Note_on_c, 9, 42, 99
7, 55680, Note_off_c, 9, 42, 64
7, 55680, Note_off_c, 9, 35, 64
7, 55680, Note_off_c, 9, 51, 64
7, 55680, Note_on_c, 9, 51, 95
7, 55680, Note_on_c, 9, 35, 95
7, 55680, Note_on_c, 9, 42, 95
7, 55872, Note_off_c, 9, 42, 64
7, 55872, Note_off_c, 9, 35, 64
7, 55872, Note_off_c, 9, 51, 64
7, 55872, Note_on_c, 9, 51, 116
7, 55872, Note_on_c, 9, 38, 116
7, 55872, Note_on_c, 9, 42, 116
7, 56064, Note_off_c, 9, 42, 64
7, 56064, Note_off_c, 9, 38, 64
7, 56064, Note_off_c, 9, 51, 64
7, 56064, Note_on_c, 9, 51, 102
7, 56064, Note_on_c, 9, 35, 102
7, 56064, Note_on_c, 9, 42, 102
7, 56256, Note_off_c, 9, 42, 64
7, 56256, Note_off_c, 9, 35, 64
7, 56256, Note_off_c, 9, 51, 64
7, 56256, Note_on_c, 9, 51, 92
7, 56256, Note_on_c, 9, 35, 92
7, 56256, Note_on_c, 9, 44, 92
7, 56448, Note_off_c, 9, 44, 64
7, 56448, Note_off_c, 9, 35, 64
7, 56448, Note_off_c, 9, 51, 64
7, 56448, Note_on_c, 9, 51, 127
7, 56448, Note_on_c, 9, 55, 127
7, 56448, Note_on_c, 9, 35, 127
7, 56448, Note_on_c, 9, 42, 127
7, 56640, Note_off_c, 9, 42, 64
7, 56640, Note_off_c, 9, 55, 64
7, 56640, Note_off_c, 9, 51, 64
7, 56640, Note_on_c, 9, 51, 99
7, 56640, Note_on_c, 9, 42, 99
7, 56832, Note_off_c, 9, 42, 64
7, 56832, Note_off_c, 9, 51, 64
7, 56832, Note_off_c, 9, 35, 64
7, 56832, Note_on_c, 9, 51, 95
7, 56832, Note_on_c, 9, 35, 95
7, 56832, Note_on_c, 9, 42, 95
7, 57024, Note_off_c, 9, 42, 64
7, 57024, Note_off_c, 9, 35, 64
7, 57024, Note_off_c, 9, 51, 64
7, 57024, Note_on_c, 9, 51, 116
7, 57024, Note_on_c, 9, 38, 111
7, 57024, Note_on_c, 9, 42, 116
7, 57216, Note_off_c, 9, 42, 64
7, 57216, Note_off_c, 9, 51, 64
7, 57216, Note_on_c, 9, 51, 102
7, 57216, Note_on_c, 9, 42, 102
7, 57408, Note_off_c, 9, 42, 64
7, 57408, Note_off_c, 9, 51, 64
7, 57408, Note_off_c, 9, 38, 64
7, 57408, Note_on_c, 9, 51, 92
7, 57408, Note_on_c, 9, 35, 95
7, 57408, Note_on_c, 9, 42, 92
7, 57600, Note_off_c, 9, 42, 64
7, 57600, Note_off_c, 9, 35, 64
7, 57600, Note_off_c, 9, 51, 64
7, 57600, Note_on_c, 9, 51, 127
7, 57600, Note_on_c, 9, 35, 127
7, 57600, Note_on_c, 9, 42, 127
7, 57792, Note_off_c, 9, 42, 64
7, 57792, Note_off_c, 9, 35, 64
7, 57792, Note_off_c, 9, 51, 64
7, 57792, Note_on_c, 9, 51, 99
7, 57792, Note_on_c, 9, 35, 99
7, 57792, Note_on_c, 9, 42, 99
7, 57984, Note_off_c, 9, 42, 64
7, 57984, Note_off_c, 9, 35, 64
7, 57984, Note_off_c, 9, 51, 64
7, 57984, Note_on_c, 9, 51, 95
7, 57984, Note_on_c, 9, 35, 95
7, 57984, Note_on_c, 9, 42, 95
7, 58176, Note_off_c, 9, 42, 64
7, 58176, Note_off_c, 9, 35, 64
7, 58176, Note_off_c, 9, 51, 64
7, 58176, Note_on_c, 9, 51, 116
7, 58176, Note_on_c, 9, 38, 116
7, 58176, Note_on_c, 9, 42, 116
7, 58368, Note_off_c, 9, 42, 64
7, 58368, Note_off_c, 9, 38, 64
7, 58368, Note_off_c, 9, 51, 64
7, 58368, Note_on_c, 9, 51, 102
7, 58368, Note_on_c, 9, 35, 102
7, 58368, Note_on_c, 9, 42, 102
7, 58560, Note_off_c, 9, 42, 64
7, 58560, Note_off_c, 9, 35, 64
7, 58560, Note_off_c, 9, 51, 64
7, 58560, Note_on_c, 9, 51, 92
7, 58560, Note_on_c, 9, 35, 92
7, 58560, Note_on_c, 9, 44, 92
7, 58752, Note_off_c, 9, 44, 64
7, 58752, Note_off_c, 9, 35, 64
7, 58752, Note_off_c, 9, 51, 64
7, 58752, Note_on_c, 9, 51, 127
7, 58752, Note_on_c, 9, 55, 127
7, 58752, Note_on_c, 9, 35, 127
7, 58752, Note_on_c, 9, 42, 127
7, 58944, Note_off_c, 9, 42, 64
7, 58944, Note_off_c, 9, 55, 64
7, 58944, Note_off_c, 9, 51, 64
7, 58944, Note_on_c, 9, 51, 99
7, 58944, Note_on_c, 9, 42, 99
7, 59136, Note_off_c, 9, 42, 64
7, 59136, Note_off_c, 9, 51, 64
7, 59136, Note_off_c, 9, 35, 64
7, 59136, Note_on_c, 9, 51, 95
7, 59136, Note_on_c, 9, 35, 95
7, 59136, Note_on_c, 9, 42, 95
7, 59328, Note_off_c, 9, 42, 64
7, 59328, Note_off_c, 9, 35, 64
7, 59328, Note_off_c, 9, 51, 64
7, 59328, Note_on_c, 9, 51, 116
7, 59328, Note_on_c, 9, 38, 111
7, 59328, Note_on_c, 9, 42, 116
7, 59520, Note_off_c, 9, 42, 64
7, 59520, Note_off_c, 9, 51, 64
7, 59520, Note_on_c, 9, 51, 102
7, 59520, Note_on_c, 9, 42, 102
7, 59712, Note_off_c, 9, 42, 64
7, 59712, Note_off_c, 9, 51, 64
7, 59712, Note_off_c, 9, 38, 64
7, 59712, Note_on_c, 9, 51, 92
7, 59712, Note_on_c, 9, 35, 95
7, 59712, Note_on_c, 9, 42, 92
7, 59904, Note_off_c, 9, 42, 64
7, 59904, Note_off_c, 9, 35, 64
7, 59904, Note_off_c, 9, 51, 64
7, 59904, Note_on_c, 9, 51, 127
7, 59904, Note_on_c, 9, 35, 127
7, 59904, Note_on_c, 9, 42, 127
7, 60096, Note_off_c, 9, 42, 64
7, 60096, Note_off_c, 9, 35, 64
7, 60096, Note_off_c, 9, 51, 64
7, 60096, Note_on_c, 9, 51, 99
7, 60096, Note_on_c, 9, 35, 99
7, 60096, Note_on_c, 9, 42, 99
7, 60288, Note_off_c, 9, 42, 64
7, 60288, Note_off_c, 9, 35, 64
7, 60288, Note_off_c, 9, 51, 64
7, 60288, Note_on_c, 9, 51, 95
7, 60288, Note_on_c, 9, 35, 95
7, 60288, Note_on_c, 9, 42, 95
7, 60480, Note_off_c, 9, 42, 64
7, 60480, Note_off_c, 9, 35, 64
7, 60480, Note_off_c, 9, 51, 64
7, 60480, Note_on_c, 9, 51, 116
7, 60480, Note_on_c, 9, 38, 116
7, 60480, Note_on_c, 9, 42, 116
7, 60672, Note_off_c, 9, 42, 64
7, 60672, Note_off_c, 9, 38, 64
7, 60672, Note_off_c, 9, 51, 64
7, 60672, Note_on_c, 9, 51, 102
7, 60672, Note_on_c, 9, 35, 102
7, 60672, Note_on_c, 9, 42, 102
7, 60864, Note_off_c, 9, 42, 64
7, 60864, Note_off_c, 9, 35, 64
7, 60864, Note_off_c, 9, 51, 64
7, 60864, Note_on_c, 9, 51, 92
7, 60864, Note_on_c, 9, 35, 92
7, 60864, Note_on_c, 9, 44, 92
7, 61056, Note_off_c, 9, 44, 64
7, 61056, Note_off_c, 9, 35, 64
7, 61056, Note_off_c, 9, 51, 64
7, 61056, Note_on_c, 9, 51, 127
7, 61056, Note_on_c, 9, 55, 127
7, 61056, Note_on_c, 9, 35, 127
7, 61056, Note_on_c, 9, 42, 127
7, 61248, Note_off_c, 9, 42, 64
7, 61248, Note_off_c, 9, 55, 64
7, 61248, Note_off_c, 9, 51, 64
7, 61248, Note_on_c, 9, 51, 99
7, 61248, Note_on_c, 9, 42, 99
7, 61440, Note_off_c, 9, 42, 64
7, 61440, Note_off_c, 9, 51, 64
7, 61440, Note_off_c, 9, 35, 64
7, 61440, Note_on_c, 9, 51, 95
7, 61440, Note_on_c, 9, 35, 95
7, 61440, Note_on_c, 9, 42, 95
7, 61632, Note_off_c, 9, 42, 64
7, 61632, Note_off_c, 9, 35, 64
7, 61632, Note_off_c, 9, 51, 64
7, 61632, Note_on_c, 9, 51, 116
7, 61632, Note_on_c, 9, 38, 111
7, 61632, Note_on_c, 9, 42, 116
7, 61824, Note_off_c, 9, 42, 64
7, 61824, Note_off_c, 9, 51, 64
7, 61824, Note_on_c, 9, 51, 102
7, 61824, Note_on_c, 9, 42, 102
7, 62016, Note_off_c, 9, 42, 64
7, 62016, Note_off_c, 9, 51, 64
7, 62016, Note_off_c, 9, 38, 64
7, 62016, Note_on_c, 9, 51, 92
7, 62016, Note_on_c, 9, 35, 95
7, 62016, Note_on_c, 9, 42, 92
7, 62208, Note_off_c, 9, 42, 64
7, 62208, Note_off_c, 9, 35, 64
7, 62208, Note_off_c, 9, 51, 64
7, 62208, Note_on_c, 9, 51, 127
7, 62208, Note_on_c, 9, 35, 127
7, 62208, Note_on_c, 9, 42, 127
7, 62400, Note_off_c, 9, 42, 64
7, 62400, Note_off_c, 9, 35, 64
7, 62400, Note_off_c, 9, 51, 64
7, 62400, Note_on_c, 9, 51, 99
7, 62400, Note_on_c, 9, 35, 99
7, 62400, Note_on_c, 9, 42, 99
7, 62592, Note_off_c, 9, 42, 64
7, 62592, Note_off_c, 9, 35, 64
7, 62592, Note_off_c, 9, 51, 64
7, 62592, Note_on_c, 9, 51, 95
7, 62592, Note_on_c, 9, 35, 95
7, 62592, Note_on_c, 9, 42, 95
7, 62784, Note_off_c, 9, 42, 64
7, 62784, Note_off_c, 9, 35, 64
7, 62784, Note_off_c, 9, 51, 64
7, 62784, Note_on_c, 9, 51, 116
7, 62784, Note_on_c, 9, 38, 116
7, 62784, Note_on_c, 9, 42, 116
7, 62976, Note_off_c, 9, 42, 64
7, 62976, Note_off_c, 9, 38, 64
7, 62976, Note_off_c, 9, 51, 64
7, 62976, Note_on_c, 9, 51, 102
7, 62976, Note_on_c, 9, 35, 102
7, 62976, Note_on_c, 9, 42, 102
7, 63168, Note_off_c, 9, 42, 64
7, 63168, Note_off_c, 9, 35, 64
7, 63168, Note_off_c, 9, 51, 64
7, 63168, Note_on_c, 9, 51, 92
7, 63168, Note_on_c, 9, 35, 92
7, 63168, Note_on_c, 9, 44, 92
7, 63360, Note_off_c, 9, 44, 64
7, 63360, Note_off_c, 9, 35, 64
7, 63360, Note_off_c, 9, 51, 64
7, 63360, Note_on_c, 9, 35, 127
7, 63360, Note_on_c, 9, 42, 127
7, 63552, Note_off_c, 9, 42, 64
7, 63552, Note_on_c, 9, 42, 98
7, 63744, Note_off_c, 9, 42, 64
7, 63744, Note_on_c, 9, 42, 95
7, 63936, Note_off_c, 9, 42, 64
7, 63936, Note_off_c, 9, 35, 64
7, 63936, Note_on_c, 9, 37, 107
7, 63936, Note_on_c, 9, 42, 113
7, 64128, Note_off_c, 9, 42, 64
7, 64128, Note_on_c, 9, 42, 95
7, 64320, Note_off_c, 9, 42, 64
7, 64320, Note_off_c, 9, 37, 64
7, 64320, Note_on_c, 9, 35, 92
7, 64320, Note_on_c, 9, 42, 92
7, 64512, Note_off_c, 9, 42, 64
7, 64512, Note_off_c, 9, 35, 64
7, 64512, Note_on_c, 9, 35, 127
7, 64512, Note_on_c, 9, 42, 127
7, 64704, Note_off_c, 9, 42, 64
7, 64704, Note_on_c, 9, 42, 98
7, 64896, Note_off_c, 9, 42, 64
7, 64896, Note_on_c, 9, 42, 95
7, 65088, Note_off_c, 9, 42, 64
7, 65088, Note_off_c, 9, 35, 64
7, 65088, Note_on_c, 9, 37, 107
7, 65088, Note_on_c, 9, 42, 113
7, 65280, Note_off_c, 9, 42, 64
7, 65280, Note_on_c, 9, 42, 95
7, 65472, Note_off_c, 9, 42, 64
7, 65472, Note_off_c, 9, 37, 64
7, 65472, Note_on_c, 9, 35, 92
7, 65472, Note_on_c, 9, 42, 92
7, 65664, Note_off_c, 9, 42, 64
7, 65664, Note_off_c, 9, 35, 64
7, 65664, Note_on_c, 9, 35, 127
7, 65664, Note_on_c, 9, 42, 127
7, 65856, Note_off_c, 9, 42, 64
7, 65856, Note_on_c, 9, 42, 98
7, 66048, Note_off_c, 9, 42, 64
7, 66048, Note_on_c, 9, 42, 95
7, 66240, Note_off_c, 9, 42, 64
7, 66240, Note_off_c, 9, 35, 64
7, 66240, Note_on_c, 9, 37, 107
7, 66240, Note_on_c, 9, 42, 113
7, 66432, Note_off_c, 9, 42, 64
7, 66432, Note_on_c, 9, 42, 95
7, 66624, Note_off_c, 9, 42, 64
7, 66624, Note_off_c, 9, 37, 64
7, 66624, Note_on_c, 9, 35, 92
7, 66624, Note_on_c, 9, 42, 92
7, 66816, Note_off_c, 9, 42, 64
7, 66816, Note_off_c, 9, 35, 64
7, 66816, Note_on_c, 9, 35, 127
7, 66816, Note_on_c, 9, 42, 127
7, 67008, Note_off_c, 9, 42, 64
7, 67008, Note_on_c, 9, 42, 98
7, 67200, Note_off_c, 9, 42, 64
7, 67200, Note_on_c, 9, 42, 95
7, 67392, Note_off_c, 9, 42, 64
7, 67392, Note_off_c, 9, 35, 64
7, 67392, Note_on_c, 9, 37, 107
7, 67392, Note_on_c, 9, 42, 113
7, 67584, Note_off_c, 9, 42, 64
7, 67584, Note_on_c, 9, 42, 95
7, 67776, Note_off_c, 9, 42, 64
7, 67776, Note_off_c, 9, 37, 64
7, 67776, Note_on_c, 9, 35, 92
7, 67776, Note_on_c, 9, 42, 92
7, 67968, Note_off_c, 9, 42, 64
7, 67968, Note_off_c, 9, 35, 64
7, 67968, Note_on_c, 9, 35, 127
7, 67968, Note_on_c, 9, 42, 127
7, 68160, Note_off_c, 9, 42, 64
7, 68160, Note_on_c, 9, 42, 98
7, 68352, Note_off_c, 9, 42, 64
7, 68352, Note_on_c, 9, 42, 95
7, 68544, Note_off_c, 9, 42, 64
7, 68544, Note_off_c, 9, 35, 64
7, 68544, Note_on_c, 9, 37, 107
7, 68544, Note_on_c, 9, 42, 113
7, 68736, Note_off_c, 9, 42, 64
7, 68736, Note_on_c, 9, 42, 95
7, 68928, Note_off_c, 9, 42, 64
7, 68928, Note_off_c, 9, 37, 64
7, 68928, Note_on_c, 9, 35, 92
7, 68928, Note_on_c, 9, 42, 92
7, 69120, Note_off_c, 9, 42, 64
7, 69120, Note_off_c, 9, 35, 64
7, 69120, Note_on_c, 9, 35, 127
7, 69120, Note_on_c, 9, 42, 127
7, 69312, Note_off_c, 9, 42, 64
7, 69312, Note_on_c, 9, 42, 98
7, 69504, Note_off_c, 9, 42, 64
7, 69504, Note_on_c, 9, 42, 95
7, 69696, Note_off_c, 9, 42, 64
7, 69696, Note_off_c, 9, 35, 64
7, 69696, Note_on_c, 9, 37, 107
7, 69696, Note_on_c, 9, 42, 113
7, 69888, Note_off_c, 9, 42, 64
7, 69888, Note_on_c, 9, 42, 95
7, 70080, Note_off_c, 9, 42, 64
7, 70080, Note_off_c, 9, 37, 64
7, 70080, Note_on_c, 9, 35, 92
7, 70080, Note_on_c, 9, 42, 92
7, 70272, Note_off_c, 9, 42, 64
7, 70272, Note_off_c, 9, 35, 64
7, 70272, Note_on_c, 9, 35, 127
7, 70272, Note_on_c, 9, 42, 127
7, 70464, Note_off_c, 9, 42, 64
7, 70464, Note_on_c, 9, 42, 98
7, 70656, Note_off_c, 9, 42, 64
7, 70656, Note_on_c, 9, 42, 95
7, 70848, Note_off_c, 9, 42, 64
7, 70848, Note_off_c, 9, 35, 64
7, 70848, Note_on_c, 9, 37, 107
7, 70848, Note_on_c, 9, 42, 113
7, 71040, Note_off_c, 9, 42, 64
7, 71040, Note_on_c, 9, 42, 95
7, 71232, Note_off_c, 9, 42, 64
7, 71232, Note_off_c, 9, 37, 64
7, 71232, Note_on_c, 9, 35, 92
7, 71232, Note_on_c, 9, 42, 92
7, 71424, Note_off_c, 9, 42, 64
7, 71424, Note_off_c, 9, 35, 64
7, 71424, Note_on_c, 9, 35, 127
7, 71424, Note_on_c, 9, 42, 127
7, 71616, Note_off_c, 9, 42, 64
7, 71616, Note_on_c, 9, 42, 98
7, 71808, Note_off_c, 9, 42, 64
7, 71808, Note_on_c, 9, 42, 95
7, 72000, Note_off_c, 9, 42, 64
7, 72000, Note_off_c, 9, 35, 64
7, 72000, Note_on_c, 9, 37, 107
7, 72000, Note_on_c, 9, 42, 113
7, 72192, Note_off_c, 9, 42, 64
7, 72192, Note_on_c, 9, 42, 95
7, 72384, Note_off_c, 9, 42, 64
7, 72384, Note_off_c, 9, 37, 64
7, 72384, Note_on_c, 9, 35, 92
7, 72384, Note_on_c, 9, 42, 92
7, 72576, Note_off_c, 9, 42, 64
7, 72576, Note_off_c, 9, 35, 64
7, 72576, Note_on_c, 9, 35, 127
7, 72576, Note_on_c, 9, 42, 127
7, 72768, Note_off_c, 9, 42, 64
7, 72768, Note_on_c, 9, 42, 98
7, 72960, Note_off_c, 9, 42, 64
7, 72960, Note_on_c, 9, 42, 95
7, 73152, Note_off_c, 9, 42, 64
7, 73152, Note_off_c, 9, 35, 64
7, 73152, Note_on_c, 9, 37, 107
7, 73152, Note_on_c, 9, 42, 113
7, 73344, Note_off_c, 9, 42, 64
7, 73344, Note_on_c, 9, 42, 95
7, 73536, Note_off_c, 9, 42, 64
7, 73536, Note_off_c, 9, 37, 64
7, 73536, Note_on_c, 9, 35, 92
7, 73536, Note_on_c, 9, 42, 92
7, 73728, Note_off_c, 9, 42, 64
7, 73728, Note_off_c, 9, 35, 64
7, 73728, Note_on_c, 9, 35, 127
7, 73728, Note_on_c, 9, 42, 127
7, 73920, Note_off_c, 9, 42, 64
7, 73920, Note_on_c, 9, 42, 98
7, 74112, Note_off_c, 9, 42, 64
7, 74112, Note_on_c, 9, 42, 95
7, 74304, Note_off_c, 9, 42, 64
7, 74304, Note_off_c, 9, 35, 64
7, 74304, Note_on_c, 9, 37, 107
7, 74304, Note_on_c, 9, 42, 113
7, 74496, Note_off_c, 9, 42, 64
7, 74496, Note_on_c, 9, 42, 95
7, 74688, Note_off_c, 9, 42, 64
7, 74688, Note_off_c, 9, 37, 64
7, 74688, Note_on_c, 9, 35, 92
7, 74688, Note_on_c, 9, 42, 92
7, 74880, Note_off_c, 9, 42, 64
7, 74880, Note_off_c, 9, 35, 64
7, 74880, Note_on_c, 9, 35, 127
7, 74880, Note_on_c, 9, 42, 127
7, 75072, Note_off_c, 9, 42, 64
7, 75072, Note_on_c, 9, 42, 98
7, 75264, Note_off_c, 9, 42, 64
7, 75264, Note_on_c, 9, 42, 95
7, 75456, Note_off_c, 9, 42, 64
7, 75456, Note_off_c, 9, 35, 64
7, 75456, Note_on_c, 9, 37, 107
7, 75456, Note_on_c, 9, 42, 113
7, 75648, Note_off_c, 9, 42, 64
7, 75648, Note_on_c, 9, 42, 95
7, 75840, Note_off_c, 9, 42, 64
7, 75840, Note_off_c, 9, 37, 64
7, 75840, Note_on_c, 9, 35, 92
7, 75840, Note_on_c, 9, 42, 92
7, 76032, Note_off_c, 9, 42, 64
7, 76032, Note_off_c, 9, 35, 64
7, 76032, Note_on_c, 9, 35, 127
7, 76032, Note_on_c, 9, 42, 127
7, 76224, Note_off_c, 9, 42, 64
7, 76224, Note_on_c, 9, 42, 98
7, 76416, Note_off_c, 9, 42, 64
7, 76416, Note_on_c, 9, 42, 95
7, 76608, Note_off_c, 9, 42, 64
7, 76608, Note_off_c, 9, 35, 64
7, 76608, Note_on_c, 9, 37, 107
7, 76608, Note_on_c, 9, 42, 113
7, 76800, Note_off_c, 9, 42, 64
7, 76800, Note_on_c, 9, 42, 95
7, 76992, Note_off_c, 9, 42, 64
7, 76992, Note_off_c, 9, 37, 64
7, 76992, Note_on_c, 9, 35, 92
7, 76992, Note_on_c, 9, 42, 92
7, 77184, Note_off_c, 9, 42, 64
7, 77184, Note_off_c, 9, 35, 64
7, 77184, Note_on_c, 9, 35, 127
7, 77184, Note_on_c, 9, 42, 127
7, 77376, Note_off_c, 9, 42, 64
7, 77376, Note_on_c, 9, 42, 98
7, 77568, Note_off_c, 9, 42, 64
7, 77568, Note_on_c, 9, 42, 95
7, 77760, Note_off_c, 9, 42, 64
7, 77760, Note_off_c, 9, 35, 64
7, 77760, Note_on_c, 9, 37, 107
7, 77760, Note_on_c, 9, 42, 113
7, 77952, Note_off_c, 9, 42, 64
7, 77952, Note_on_c, 9, 42, 95
7, 78144, Note_off_c, 9, 42, 64
7, 78144, Note_off_c, 9, 37, 64
7, 78144, Note_on_c, 9, 35, 92
7, 78144, Note_on_c, 9, 42, 92
7, 78336, Note_off_c, 9, 42, 64
7, 78336, Note_off_c, 9, 35, 64
7, 78336, Note_on_c, 9, 35, 127
7, 78336, Note_on_c, 9, 42, 127
7, 78528, Note_off_c, 9, 42, 64
7, 78528, Note_on_c, 9, 42, 98
7, 78720, Note_off_c, 9, 42, 64
7, 78720, Note_on_c, 9, 42, 95
7, 78912, Note_off_c, 9, 42, 64
7, 78912, Note_off_c, 9, 35, 64
7, 78912, Note_on_c, 9, 37, 107
7, 78912, Note_on_c, 9, 42, 113
7, 79104, Note_off_c, 9, 42, 64
7, 79104, Note_on_c, 9, 42, 95
7, 79296, Note_off_c, 9, 42, 64
7, 79296, Note_off_c, 9, 37, 64
7, 79296, Note_on_c, 9, 35, 92
7, 79296, Note_on_c, 9, 42, 92
7, 79488, Note_off_c, 9, 42, 64
7, 79488, Note_off_c, 9, 35, 64
7, 79488, Note_on_c, 9, 35, 127
7, 79488, Note_on_c, 9, 42, 127
7, 79680, Note_off_c, 9, 42, 64
7, 79680, Note_on_c, 9, 42, 98
7, 79872, Note_off_c, 9, 42, 64
7, 79872, Note_on_c, 9, 42, 95
7, 80064, Note_off_c, 9, 42, 64
7, 80064, Note_off_c, 9, 35, 64
7, 80064, Note_on_c, 9, 37, 107
7, 80064, Note_on_c, 9, 42, 113
7, 80256, Note_off_c, 9, 42, 64
7, 80256, Note_on_c, 9, 42, 95
7, 80448, Note_off_c, 9, 42, 64
7, 80448, Note_off_c, 9, 37, 64
7, 80448, Note_on_c, 9, 35, 92
7, 80448, Note_on_c, 9, 42, 92
7, 80640, Note_off_c, 9, 42, 64
7, 80640, Note_off_c, 9, 35, 64
7, 80640, Note_on_c, 9, 35, 127
7, 80640, Note_on_c, 9, 42, 127
7, 80832, Note_off_c, 9, 42, 64
7, 80832, Note_on_c, 9, 42, 98
7, 81024, Note_off_c, 9, 42, 64
7, 81024, Note_on_c, 9, 42, 95
7, 81216, Note_off_c, 9, 42, 64
7, 81216, Note_off_c, 9, 35, 64
7, 81216, Note_on_c, 9, 37, 107
7, 81216, Note_on_c, 9, 42, 113
7, 81408, Note_off_c, 9, 42, 64
7, 81408, Note_on_c, 9, 42, 95
7, 81600, Note_off_c, 9, 42, 64
7, 81600, Note_off_c, 9, 37, 64
7, 81600, Note_on_c, 9, 35, 92
7, 81600, Note_on_c, 9, 42, 92
7, 81792, Note_off_c, 9, 42, 64
7, 81792, Note_off_c, 9, 35, 64
7, 81792, Note_on_c, 9, 51, 127
7, 81792, Note_on_c, 9, 55, 127
7, 81792, Note_on_c, 9, 35, 127
7, 81792, Note_on_c, 9, 42, 127
7, 81984, Note_off_c, 9, 42, 64
7, 81984, Note_off_c, 9, 55, 64
7, 81984, Note_off_c, 9, 51, 64
7, 81984, Note_on_c, 9, 51, 99
7, 81984, Note_on_c, 9, 42, 99
7, 82176, Note_off_c, 9, 42, 64
7, 82176, Note_off_c, 9, 51, 64
7, 82176, Note_off_c, 9, 35, 64
7, 82176, Note_on_c, 9, 51, 95
7, 82176, Note_on_c, 9, 35, 95
7, 82176, Note_on_c, 9, 42, 95
7, 82368, Note_off_c, 9, 42, 64
7, 82368, Note_off_c, 9, 35, 64
7, 82368, Note_off_c, 9, 51, 64
7, 82368, Note_on_c, 9, 51, 116
7, 82368, Note_on_c, 9, 38, 111
7, 82368, Note_on_c, 9, 42, 116
7, 82560, Note_off_c, 9, 42, 64
7, 82560, Note_off_c, 9, 51, 64
7, 82560, Note_on_c, 9, 51, 102
7, 82560, Note_on_c, 9, 42, 102
7, 82752, Note_off_c, 9, 42, 64
7, 82752, Note_off_c, 9, 51, 64
7, 82752, Note_off_c, 9, 38, 64
7, 82752, Note_on_c, 9, 51, 92
7, 82752, Note_on_c, 9, 35, 95
7, 82752, Note_on_c, 9, 42, 92
7, 82944, Note_off_c, 9, 42, 64
7, 82944, Note_off_c, 9, 35, 64
7, 82944, Note_off_c, 9, 51, 64
7, 82944, Note_on_c, 9, 51, 127
7, 82944, Note_on_c, 9, 35, 127
7, 82944, Note_on_c, 9, 42, 127
7, 83136, Note_off_c, 9, 42, 64
7, 83136, Note_off_c, 9, 35, 64
7, 83136, Note_off_c, 9, 51, 64
7, 83136, Note_on_c, 9, 51, 99
7, 83136, Note_on_c, 9, 35, 99
7, 83136, Note_on_c, 9, 42, 99
7, 83328, Note_off_c, 9, 42, 64
7, 83328, Note_off_c, 9, 35, 64
7, 83328, Note_off_c, 9, 51, 64
7, 83328, Note_on_c, 9, 51, 95
7, 83328, Note_on_c, 9, 35, 95
7, 83328, Note_on_c, 9, 42, 95
7, 83520, Note_off_c, 9, 42, 64
7, 83520, Note_off_c, 9, 35, 64
7, 83520, Note_off_c, 9, 51, 64
7, 83520, Note_on_c, 9, 51, 116
7, 83520, Note_on_c, 9, 38, 116
7, 83520, Note_on_c, 9, 42, 116
7, 83712, Note_off_c, 9, 42, 64
7, 83712, Note_off_c, 9, 38, 64
7, 83712, Note_off_c, 9, 51, 64
7, 83712, Note_on_c, 9, 51, 102
7, 83712, Note_on_c, 9, 35, 102
7, 83712, Note_on_c, 9, 42, 102
7, 83904, Note_off_c, 9, 42, 64
7, 83904, Note_off_c, 9, 35, 64
7, 83904, Note_off_c, 9, 51, 64
7, 83904, Note_on_c, 9, 51, 92
7, 83904, Note_on_c, 9, 35, 92
7, 83904, Note_on_c, 9, 44, 92
7, 84096, Note_off_c, 9, 44, 64
7, 84096, Note_off_c, 9, 35, 64
7, 84096, Note_off_c, 9, 51, 64
7, 84096, Note_on_c, 9, 51, 127
7, 84096, Note_on_c, 9, 55, 127
7, 84096, Note_on_c, 9, 35, 127
7, 84096, Note_on_c, 9, 42, 127
7, 84288, Note_off_c, 9, 42, 64
7, 84288, Note_off_c, 9, 55, 64
7, 84288, Note_off_c, 9, 51, 64
7, 84288, Note_on_c, 9, 51, 99
7, 84288, Note_on_c, 9, 42, 99
7, 84480, Note_off_c, 9, 42, 64
7, 84480, Note_off_c, 9, 51, 64
7, 84480, Note_off_c, 9, 35, 64
7, 84480, Note_on_c, 9, 51, 95
7, 84480, Note_on_c, 9, 35, 95
7, 84480, Note_on_c, 9, 42, 95
7, 84672, Note_off_c, 9, 42, 64
7, 84672, Note_off_c, 9, 35, 64
7, 84672, Note_off_c, 9, 51, 64
7, 84672, Note_on_c, 9, 51, 116
7, 84672, Note_on_c, 9, 38, 111
7, 84672, Note_on_c, 9, 42, 116
7, 84864, Note_off_c, 9, 42, 64
7, 84864, Note_off_c, 9, 51, 64
7, 84864, Note_on_c, 9, 51, 102
7, 84864, Note_on_c, 9, 42, 102
7, 85056, Note_off_c, 9, 42, 64
7, 85056, Note_off_c, 9, 51, 64
7, 85056, Note_off_c, 9, 38, 64
7, 85056, Note_on_c, 9, 51, 92
7, 85056, Note_on_c, 9, 35, 95
7, 85056, Note_on_c, 9, 42, 92
7, 85248, Note_off_c, 9, 42, 64
7, 85248, Note_off_c, 9, 35, 64
7, 85248, Note_off_c, 9, 51, 64
7, 85248, Note_on_c, 9, 51, 127
7, 85248, Note_on_c, 9, 35, 127
7, 85248, Note_on_c, 9, 42, 127
7, 85440, Note_off_c, 9, 42, 64
7, 85440, Note_off_c, 9, 35, 64
7, 85440, Note_off_c, 9, 51, 64
7, 85440, Note_on_c, 9, 51, 99
7, 85440, Note_on_c, 9, 35, 99
7, 85440, Note_on_c, 9, 42, 99
7, 85632, Note_off_c, 9, 42, 64
7, 85632, Note_off_c, 9, 35, 64
7, 85632, Note_off_c, 9, 51, 64
7, 85632, Note_on_c, 9, 51, 95
7, 85632, Note_on_c, 9, 35, 95
7, 85632, Note_on_c, 9, 42, 95
7, 85824, Note_off_c, 9, 42, 64
7, 85824, Note_off_c, 9, 35, 64
7, 85824, Note_off_c, 9, 51, 64
7, 85824, Note_on_c, 9, 51, 116
7, 85824, Note_on_c, 9, 38, 116
7, 85824, Note_on_c, 9, 42, 116
7, 86016, Note_off_c, 9, 42, 64
7, 86016, Note_off_c, 9, 38, 64
7, 86016, Note_off_c, 9, 51, 64
7, 86016, Note_on_c, 9, 51, 102
7, 86016, Note_on_c, 9, 35, 102
7, 86016, Note_on_c, 9, 42, 102
7, 86208, Note_off_c, 9, 42, 64
7, 86208, Note_off_c, 9, 35, 64
7, 86208, Note_off_c, 9, 51, 64
7, 86208, Note_on_c, 9, 51, 92
7, 86208, Note_on_c, 9, 35, 92
7, 86208, Note_on_c, 9, 44, 92
7, 86400, Note_off_c, 9, 44, 64
7, 86400, Note_off_c, 9, 35, 64
7, 86400, Note_off_c, 9, 51, 64
7, 86400, Note_on_c, 9, 51, 127
7, 86400, Note_on_c, 9, 55, 127
7, 86400, Note_on_c, 9, 35, 127
7, 86400, Note_on_c, 9, 42, 127
7, 86592, Note_off_c, 9, 42, 64
7, 86592, Note_off_c, 9, 55, 64
7, 86592, Note_off_c, 9, 51, 64
7, 86592, Note_on_c, 9, 51, 99
7, 86592, Note_on_c, 9, 42, 99
7, 86784, Note_off_c, 9, 42, 64
7, 86784, Note_off_c, 9, 51, 64
7, 86784, Note_off_c, 9, 35, 64
7, 86784, Note_on_c, 9, 51, 95
7, 86784, Note_on_c, 9, 35, 95
7, 86784, Note_on_c, 9, 42, 95
7, 86976, Note_off_c, 9, 42, 64
7, 86976, Note_off_c, 9, 35, 64
7, 86976, Note_off_c, 9, 51, 64
7, 86976, Note_on_c, 9, 51, 116
7, 86976, Note_on_c, 9, 38, 111
7, 86976, Note_on_c, 9, 42, 116
7, 87168, Note_off_c, 9, 42, 64
7, 87168, Note_off_c, 9, 51, 64
7, 87168, Note_on_c, 9, 51, 102
7, 87168, Note_on_c, 9, 42, 102
7, 87360, Note_off_c, 9, 42, 64
7, 87360, Note_off_c, 9, 51, 64
7, 87360, Note_off_c, 9, 38, 64
7, 87360, Note_on_c, 9, 51, 92
7, 87360, Note_on_c, 9, 35, 95
7, 87360, Note_on_c, 9, 42, 92
7, 87552, Note_off_c, 9, 42, 64
7, 87552, Note_off_c, 9, 35, 64
7, 87552, Note_off_c, 9, 51, 64
7, 87552, Note_on_c, 9, 51, 127
7, 87552, Note_on_c, 9, 35, 127
7, 87552, Note_on_c, 9, 42, 127
7, 87744, Note_off_c, 9, 42, 64
7, 87744, Note_off_c, 9, 35, 64
7, 87744, Note_off_c, 9, 51, 64
7, 87744, Note_on_c, 9, 51, 99
7, 87744, Note_on_c, 9, 35, 99
7, 87744, Note_on_c, 9, 42, 99
7, 87936, Note_off_c, 9, 42, 64
7, 87936, Note_off_c, 9, 35, 64
7, 87936, Note_off_c, 9, 51, 64
7, 87936, Note_on_c, 9, 51, 95
7, 87936, Note_on_c, 9, 35, 95
7, 87936, Note_on_c, 9, 42, 95
7, 88128, Note_off_c, 9, 42, 64
7, 88128, Note_off_c, 9, 35, 64
7, 88128, Note_off_c, 9, 51, 64
7, 88128, Note_on_c, 9, 51, 116
7, 88128, Note_on_c, 9, 38, 116
7, 88128, Note_on_c, 9, 42, 116
7, 88320, Note_off_c, 9, 42, 64
7, 88320, Note_off_c, 9, 38, 64
7, 88320, Note_off_c, 9, 51, 64
7, 88320, Note_on_c, 9, 51, 102
7, 88320, Note_on_c, 9, 35, 102
7, 88320, Note_on_c, 9, 42, 102
7, 88512, Note_off_c, 9, 42, 64
7, 88512, Note_off_c, 9, 35, 64
7, 88512, Note_off_c, 9, 51, 64
7, 88512, Note_on_c, 9, 51, 92
7, 88512, Note_on_c, 9, 35, 92
7, 88512, Note_on_c, 9, 44, 92
7, 88704, Note_off_c, 9, 44, 64
7, 88704, Note_off_c, 9, 35, 64
7, 88704, Note_off_c, 9, 51, 64
7, 88704, Note_on_c, 9, 51, 127
7, 88704, Note_on_c, 9, 55, 127
7, 88704, Note_on_c, 9, 35, 127
7, 88704, Note_on_c, 9, 42, 127
7, 88896, Note_off_c, 9, 42, 64
7, 88896, Note_off_c, 9, 55, 64
7, 88896, Note_off_c, 9, 51, 64
7, 88896, Note_on_c, 9, 51, 99
7, 88896, Note_on_c, 9, 42, 99
7, 89088, Note_off_c, 9, 42, 64
7, 89088, Note_off_c, 9, 51, 64
7, 89088, Note_off_c, 9, 35, 64
7, 89088, Note_on_c, 9, 51, 95
7, 89088, Note_on_c, 9, 35, 95
7, 89088, Note_on_c, 9, 42, 95
7, 89280, Note_off_c, 9, 42, 64
7, 89280, Note_off_c, 9, 35, 64
7, 89280, Note_off_c, 9, 51, 64
7, 89280, Note_on_c, 9, 51, 116
7, 89280, Note_on_c, 9, 38, 111
7, 89280, Note_on_c, 9, 42, 116
7, 89472, Note_off_c, 9, 42, 64
7, 89472, Note_off_c, 9, 51, 64
7, 89472, Note_on_c, 9, 51, 102
7, 89472, Note_on_c, 9, 42, 102
7, 89664, Note_off_c, 9, 42, 64
7, 89664, Note_off_c, 9, 51, 64
7, 89664, Note_off_c, 9, 38, 64
7, 89664, Note_on_c, 9, 51, 92
7, 89664, Note_on_c, 9, 35, 95
7, 89664, Note_on_c, 9, 42, 92
7, 89856, Note_off_c, 9, 42, 64
7, 89856, Note_off_c, 9, 35, 64
7, 89856, Note_off_c, 9, 51, 64
7, 89856, Note_on_c, 9, 51, 127
7, 89856, Note_on_c, 9, 35, 127
7, 89856, Note_on_c, 9, 42, 127
7, 90048, Note_off_c, 9, 42, 64
7, 90048, Note_off_c, 9, 35, 64
7, 90048, Note_off_c, 9, 51, 64
7, 90048, Note_on_c, 9, 51, 99
7, 90048, Note_on_c, 9, 35, 99
7, 90048, Note_on_c, 9, 42, 99
7, 90240, Note_off_c, 9, 42, 64
7, 90240, Note_off_c, 9, 35, 64
7, 90240, Note_off_c, 9, 51, 64
7, 90240, Note_on_c, 9, 51, 95
7, 90240, Note_on_c, 9, 35, 95
7, 90240, Note_on_c, 9, 42, 95
7, 90432, Note_off_c, 9, 42, 64
7, 90432, Note_off_c, 9, 35, 64
7, 90432, Note_off_c, 9, 51, 64
7, 90432, Note_on_c, 9, 51, 116
7, 90432, Note_on_c, 9, 38, 116
7, 90432, Note_on_c, 9, 42, 116
7, 90624, Note_off_c, 9, 42, 64
7, 90624, Note_off_c, 9, 38, 64
7, 90624, Note_off_c, 9, 51, 64
7, 90624, Note_on_c, 9, 51, 102
7, 90624, Note_on_c, 9, 35, 102
7, 90624, Note_on_c, 9, 42, 102
7, 90816, Note_off_c, 9, 42, 64
7, 90816, Note_off_c, 9, 35, 64
7, 90816, Note_off_c, 9, 51, 64
7, 90816, Note_on_c, 9, 51, 92
7, 90816, Note_on_c, 9, 35, 92
7, 90816, Note_on_c, 9, 44, 92
7, 91008, Note_off_c, 9, 44, 64
7, 91008, Note_off_c, 9, 35, 64
7, 91008, Note_off_c, 9, 51, 64
7, 91008, Note_on_c, 9, 51, 127
7, 91008, Note_on_c, 9, 55, 127
7, 91008, Note_on_c, 9, 35, 127
7, 91008, Note_on_c, 9, 42, 127
7, 91200, Note_off_c, 9, 42, 64
7, 91200, Note_off_c, 9, 55, 64
7, 91200, Note_off_c, 9, 51, 64
7, 91200, Note_on_c, 9, 51, 99
7, 91200, Note_on_c, 9, 42, 99
7, 91392, Note_off_c, 9, 42, 64
7, 91392, Note_off_c, 9, 51, 64
7, 91392, Note_off_c, 9, 35, 64
7, 91392, Note_on_c, 9, 51, 95
7, 91392, Note_on_c, 9, 35, 95
7, 91392, Note_on_c, 9, 42, 95
7, 91584, Note_off_c, 9, 42, 64
7, 91584, Note_off_c, 9, 35, 64
7, 91584, Note_off_c, 9, 51, 64
7, 91584, Note_on_c, 9, 51, 116
7, 91584, Note_on_c, 9, 38, 111
7, 91584, Note_on_c, 9, 42, 116
7, 91776, Note_off_c, 9, 42, 64
7, 91776, Note_off_c, 9, 51, 64
7, 91776, Note_on_c, 9, 51, 102
7, 91776, Note_on_c, 9, 42, 102
7, 91968, Note_off_c, 9, 42, 64
7, 91968, Note_off_c, 9, 51, 64
7, 91968, Note_off_c, 9, 38, 64
7, 91968, Note_on_c, 9, 51, 92
7, 91968, Note_on_c, 9, 35, 95
7, 91968, Note_on_c, 9, 42, 92
7, 92160, Note_off_c, 9, 42, 64
7, 92160, Note_off_c, 9, 35, 64
7, 92160, Note_off_c, 9, 51, 64
7, 92160, Note_on_c, 9, 51, 127
7, 92160, Note_on_c, 9, 35, 127
7, 92160, Note_on_c, 9, 42, 127
7, 92352, Note_off_c, 9, 42, 64
7, 92352, Note_off_c, 9, 35, 64
7, 92352, Note_off_c, 9, 51, 64
7, 92352, Note_on_c, 9, 51, 99
7, 92352, Note_on_c, 9, 35, 99
7, 92352, Note_on_c, 9, 42, 99
7, 92544, Note_off_c, 9, 42, 64
7, 92544, Note_off_c, 9, 35, 64
7, 92544, Note_off_c, 9, 51, 64
7, 92544, Note_on_c, 9, 51, 95
7, 92544, Note_on_c, 9, 35, 95
7, 92544, Note_on_c, 9, 42, 95
7, 92736, Note_off_c, 9, 42, 64
7, 92736, Note_off_c, 9, 35, 64
7, 92736, Note_off_c, 9, 51, 64
7, 92736, Note_on_c, 9, 51, 116
7, 92736, Note_on_c, 9, 38, 116
7, 92736, Note_on_c, 9, 42, 116
7, 92928, Note_off_c, 9, 42, 64
7, 92928, Note_off_c, 9, 38, 64
7, 92928, Note_off_c, 9, 51, 64
7, 92928, Note_on_c, 9, 51, 102
7, 92928, Note_on_c, 9, 35, 102
7, 92928, Note_on_c, 9, 42, 102
7, 93120, Note_off_c, 9, 42, 64
7, 93120, Note_off_c, 9, 35, 64
7, 93120, Note_off_c, 9, 51, 64
7, 93120, Note_on_c, 9, 51, 92
7, 93120, Note_on_c, 9, 35, 92
7, 93120, Note_on_c, 9, 44, 92
7, 93312, Note_off_c, 9, 44, 64
7, 93312, Note_off_c, 9, 35, 64
7, 93312, Note_off_c, 9, 51, 64
7, 93312, Note_on_c, 9, 51, 127
7, 93312, Note_on_c, 9, 55, 127
7, 93312, Note_on_c, 9, 35, 127
7, 93312, Note_on_c, 9, 42, 127
7, 93504, Note_off_c, 9, 42, 64
7, 93504, Note_off_c, 9, 55, 64
7, 93504, Note_off_c, 9, 51, 64
7, 93504, Note_on_c, 9, 51, 99
7, 93504, Note_on_c, 9, 42, 99
7, 93696, Note_off_c, 9, 42, 64
7, 93696, Note_off_c, 9, 51, 64
7, 93696, Note_off_c, 9, 35, 64
7, 93696, Note_on_c, 9, 51, 95
7, 93696, Note_on_c, 9, 35, 95
7, 93696, Note_on_c, 9, 42, 95
7, 93888, Note_off_c, 9, 42, 64
7, 93888, Note_off_c, 9, 35, 64
7, 93888, Note_off_c, 9, 51, 64
7, 93888, Note_on_c, 9, 51, 116
7, 93888, Note_on_c, 9, 38, 111
7, 93888, Note_on_c, 9, 42, 116
7, 94080, Note_off_c, 9, 42, 64
7, 94080, Note_off_c, 9, 51, 64
7, 94080, Note_on_c, 9, 51, 102
7, 94080, Note_on_c, 9, 42, 102
7, 94272, Note_off_c, 9, 42, 64
7, 94272, Note_off_c, 9, 51, 64
7, 94272, Note_off_c, 9, 38, 64
7, 94272, Note_on_c, 9, 51, 92
7, 94272, Note_on_c, 9, 35, 95
7, 94272, Note_on_c, 9, 42, 92
7, 94464, Note_off_c, 9, 42, 64
7, 94464, Note_off_c, 9, 35, 64
7, 94464, Note_off_c, 9, 51, 64
7, 94464, Note_on_c, 9, 51, 127
7, 94464, Note_on_c, 9, 35, 127
7, 94464, Note_on_c, 9, 42, 127
7, 94656, Note_off_c, 9, 42, 64
7, 94656, Note_off_c, 9, 35, 64
7, 94656, Note_off_c, 9, 51, 64
7, 94656, Note_on_c, 9, 51, 99
7, 94656, Note_on_c, 9, 35, 99
7, 94656, Note_on_c, 9, 42, 99
7, 94848, Note_off_c, 9, 42, 64
7, 94848, Note_off_c, 9, 35, 64
7, 94848, Note_off_c, 9, 51, 64
7, 94848, Note_on_c, 9, 51, 95
7, 94848, Note_on_c, 9, 35, 95
7, 94848, Note_on_c, 9, 42, 95
7, 95040, Note_off_c, 9, 42, 64
7, 95040, Note_off_c, 9, 35, 64
7, 95040, Note_off_c, 9, 51, 64
7, 95040, Note_on_c, 9, 51, 116
7, 95040, Note_on_c, 9, 38, 116
7, 95040, Note_on_c, 9, 42, 116
7, 95232, Note_off_c, 9, 42, 64
7, 95232, Note_off_c, 9, 38, 64
7, 95232, Note_off_c, 9, 51, 64
7, 95232, Note_on_c, 9, 51, 102
7, 95232, Note_on_c, 9, 35, 102
7, 95232, Note_on_c, 9, 42, 102
7, 95424, Note_off_c, 9, 42, 64
7, 95424, Note_off_c, 9, 35, 64
7, 95424, Note_off_c, 9, 51, 64
7, 95424, Note_on_c, 9, 51, 92
7, 95424, Note_on_c, 9, 35, 92
7, 95424, Note_on_c, 9, 44, 92
7, 95616, Note_off_c, 9, 44, 64
7, 95616, Note_off_c, 9, 35, 64
7, 95616, Note_off_c, 9, 51, 64
7, 95616, Note_on_c, 9, 51, 127
7, 95616, Note_on_c, 9, 55, 127
7, 95616, Note_on_c, 9, 35, 127
7, 95616, Note_on_c, 9, 42, 127
7, 95808, Note_off_c, 9, 42, 64
7, 95808, Note_off_c, 9, 55, 64
7, 95808, Note_off_c, 9, 51, 64
7, 95808, Note_on_c, 9, 51, 99
7, 95808, Note_on_c, 9, 42, 99
7, 96000, Note_off_c, 9, 42, 64
7, 96000, Note_off_c, 9, 51, 64
7, 96000, Note_off_c, 9, 35, 64
7, 96000, Note_on_c, 9, 51, 95
7, 96000, Note_on_c, 9, 35, 95
7, 96000, Note_on_c, 9, 42, 95
7, 96192, Note_off_c, 9, 42, 64
7, 96192, Note_off_c, 9, 35, 64
7, 96192, Note_off_c, 9, 51, 64
7, 96192, Note_on_c, 9, 51, 116
7, 96192, Note_on_c, 9, 38, 111
7, 96192, Note_on_c, 9, 42, 116
7, 96384, Note_off_c, 9, 42, 64
7, 96384, Note_off_c, 9, 51, 64
7, 96384, Note_on_c, 9, 51, 102
7, 96384, Note_on_c, 9, 42, 102
7, 96576, Note_off_c, 9, 42, 64
7, 96576, Note_off_c, 9, 51, 64
7, 96576, Note_off_c, 9, 38, 64
7, 96576, Note_on_c, 9, 51, 92
7, 96576, Note_on_c, 9, 35, 95
7, 96576, Note_on_c, 9, 42, 92
7, 96768, Note_off_c, 9, 42, 64
7, 96768, Note_off_c, 9, 35, 64
7, 96768, Note_off_c, 9, 51, 64
7, 96768, Note_on_c, 9, 51, 127
7, 96768, Note_on_c, 9, 35, 127
7, 96768, Note_on_c, 9, 42, 127
7, 96960, Note_off_c, 9, 42, 64
7, 96960, Note_off_c, 9, 35, 64
7, 96960, Note_off_c, 9, 51, 64
7, 96960, Note_on_c, 9, 51, 99
7, 96960, Note_on_c, 9, 35, 99
7, 96960, Note_on_c, 9, 42, 99
7, 97152, Note_off_c, 9, 42, 64
7, 97152, Note_off_c, 9, 35, 64
7, 97152, Note_off_c, 9, 51, 64
7, 97152, Note_on_c, 9, 51, 95
7, 97152, Note_on_c, 9, 35, 95
7, 97152, Note_on_c, 9, 42, 95
7, 97344, Note_off_c, 9, 42, 64
7, 97344, Note_off_c, 9, 35, 64
7, 97344, Note_off_c, 9, 51, 64
7, 97344, Note_on_c, 9, 51, 116
7, 97344, Note_on_c, 9, 38, 116
7, 97344, Note_on_c, 9, 42, 116
7, 97536, Note_off_c, 9, 42, 64
7, 97536, Note_off_c, 9, 38, 64
7, 97536, Note_off_c, 9, 51, 64
7, 97536, Note_on_c, 9, 51, 102
7, 97536, Note_on_c, 9, 35, 102
7, 97536, Note_on_c, 9, 42, 102
7, 97728, Note_off_c, 9, 42, 64
7, 97728, Note_off_c, 9, 35, 64
7, 97728, Note_off_c, 9, 51, 64
7, 97728, Note_on_c, 9, 51, 92
7, 97728, Note_on_c, 9, 35, 92
7, 97728, Note_on_c, 9, 44, 92
7, 97920, Note_off_c, 9, 44, 64
7, 97920, Note_off_c, 9, 35, 64
7, 97920, Note_off_c, 9, 51, 64
7, 97920, Note_on_c, 9, 51, 127
7, 97920, Note_on_c, 9, 55, 127
7, 97920, Note_on_c, 9, 35, 127
7, 97920, Note_on_c, 9, 42, 127
7, 98112, Note_off_c, 9, 42, 64
7, 98112, Note_off_c, 9, 55, 64
7, 98112, Note_off_c, 9, 51, 64
7, 98112, Note_on_c, 9, 51, 99
7, 98112, Note_on_c, 9, 42, 99
7, 98304, Note_off_c, 9, 42, 64
7, 98304, Note_off_c, 9, 51, 64
7, 98304, Note_off_c, 9, 35, 64
7, 98304, Note_on_c, 9, 51, 95
7, 98304, Note_on_c, 9, 35, 95
7, 98304, Note_on_c, 9, 42, 95
7, 98496, Note_off_c, 9, 42, 64
7, 98496, Note_off_c, 9, 35, 64
7, 98496, Note_off_c, 9, 51, 64
7, 98496, Note_on_c, 9, 51, 116
7, 98496, Note_on_c, 9, 38, 111
7, 98496, Note_on_c, 9, 42, 116
7, 98688, Note_off_c, 9, 42, 64
7, 98688, Note_off_c, 9, 51, 64
7, 98688, Note_on_c, 9, 51, 102
7, 98688, Note_on_c, 9, 42, 102
7, 98880, Note_off_c, 9, 42, 64
7, 98880, Note_off_c, 9, 51, 64
7, 98880, Note_off_c, 9, 38, 64
7, 98880, Note_on_c, 9, 51, 92
7, 98880, Note_on_c, 9, 35, 95
7, 98880, Note_on_c, 9, 42, 92
7, 99072, Note_off_c, 9, 42, 64
7, 99072, Note_off_c, 9, 35, 64
7, 99072, Note_off_c, 9, 51, 64
7, 99072, Note_on_c, 9, 51, 127
7, 99072, Note_on_c, 9, 35, 127
7, 99072, Note_on_c, 9, 42, 127
7, 99264, Note_off_c, 9, 42, 64
7, 99264, Note_off_c, 9, 35, 64
7, 99264, Note_off_c, 9, 51, 64
7, 99264, Note_on_c, 9, 51, 99
7, 99264, Note_on_c, 9, 35, 99
7, 99264, Note_on_c, 9, 42, 99
7, 99456, Note_off_c, 9, 42, 64
7, 99456, Note_off_c, 9, 35, 64
7, 99456, Note_off_c, 9, 51, 64
7, 99456, Note_on_c, 9, 51, 95
7, 99456, Note_on_c, 9, 35, 95
7, 99456, Note_on_c, 9, 42, 95
7, 99648, Note_off_c, 9, 42, 64
7, 99648, Note_off_c, 9, 35, 64
7, 99648, Note_off_c, 9, 51, 64
7, 99648, Note_on_c, 9, 51, 116
7, 99648, Note_on_c, 9, 38, 116
7, 99648, Note_on_c, 9, 42, 116
7, 99840, Note_off_c, 9, 42, 64
7, 99840, Note_off_c, 9, 38, 64
7, 99840, Note_off_c, 9, 51, 64
7, 99840, Note_on_c, 9, 51, 102
7, 99840, Note_on_c, 9, 35, 102
7, 99840, Note_on_c, 9, 42, 102
7, 100032, Note_off_c, 9, 42, 64
7, 100032, Note_off_c, 9, 35, 64
7, 100032, Note_off_c, 9, 51, 64
7, 100032, Note_on_c, 9, 51, 92
7, 100032, Note_on_c, 9, 35, 92
7, 100032, Note_on_c, 9, 44, 92
7, 100224, Note_off_c, 9, 44, 64
7, 100224, Note_off_c, 9, 35, 64
7, 100224, Note_off_c, 9, 51, 64
7, 100224, End_track
0, 0, End_of_file
