0, 0, Header, 1, 12, 120
1, 0, Start_track
1, 0, Tempo, 625000
1, 0, Time_signature, 4, 2, 24, 8
1, 0, Key_signature, 0, "major"
1, 0, End_track
2, 0, Start_track
2, 0, End_track
3, 0, Start_track
3, 0, Title_t, "Bass\000"
3, 0, System_exclusive, 8, 67, 16, 76, 0, 0, 126, 0, 247
3, 0, Control_c, 1, 121, 0
3, 0, Program_c, 1, 33
3, 0, Control_c, 1, 7, 95
3, 0, Control_c, 1, 10, 64
3, 0, Control_c, 1, 91, 40
3, 0, Control_c, 1, 93, 0
3, 0, Control_c, 1, 123, 0
3, 0, Control_c, 1, 64, 0
3, 480, Note_on_c, 1, 36, 93
3, 874, Note_off_c, 1, 36, 0
3, 900, Note_on_c, 1, 41, 75
3, 940, Note_off_c, 1, 41, 0
3, 960, Note_on_c, 1, 34, 77
3, 1320, Note_on_c, 1, 41, 83
3, 1338, Note_off_c, 1, 34, 0
3, 1370, Note_off_c, 1, 41, 0
3, 1380, Note_on_c, 1, 43, 98
3, 1402, Note_off_c, 1, 43, 0
3, 1440, Note_on_c, 1, 36, 88
3, 1860, Note_on_c, 1, 29, 85
3, 1867, Note_off_c, 1, 36, 0
3, 1903, Note_off_c, 1, 29, 0
3, 1920, Note_on_c, 1, 34, 83
3, 2400, Note_off_c, 1, 34, 0
3, 2400, Note_on_c, 1, 34, 86
3, 2760, Note_on_c, 1, 34, 81
3, 2763, Note_off_c, 1, 34, 0
3, 2813, Note_off_c, 1, 34, 0
3, 2820, Note_on_c, 1, 34, 89
3, 2838, Note_off_c, 1, 34, 0
3, 2880, Note_on_c, 1, 38, 91
3, 3341, Note_off_c, 1, 38, 0
3, 3366, Note_on_c, 1, 39, 84
3, 3600, Note_off_c, 1, 39, 0
3, 3606, Note_on_c, 1, 41, 84
3, 3840, Note_off_c, 1, 41, 0
3, 3841, Note_on_c, 1, 34, 91
3, 4249, Note_off_c, 1, 34, 0
3, 4259, Note_on_c, 1, 34, 79
3, 4306, Note_off_c, 1, 34, 0
3, 4320, Note_on_c, 1, 36, 85
3, 4530, Note_off_c, 1, 36, 0
3, 4566, Note_on_c, 1, 39, 84
3, 4800, Note_off_c, 1, 39, 0
3, 4800, Note_on_c, 1, 34, 85
3, 5010, Note_off_c, 1, 34, 0
3, 5046, Note_on_c, 1, 31, 84
3, 5160, Note_off_c, 1, 31, 0
3, 5166, Note_on_c, 1, 31, 84
3, 5280, Note_off_c, 1, 31, 0
3, 5281, Note_on_c, 1, 36, 91
3, 5689, Note_off_c, 1, 36, 0
3, 5699, Note_on_c, 1, 36, 79
3, 5746, Note_off_c, 1, 36, 0
3, 5761, Note_on_c, 1, 41, 91
3, 6169, Note_off_c, 1, 41, 0
3, 6179, Note_on_c, 1, 41, 79
3, 6226, Note_off_c, 1, 41, 0
3, 6240, Note_on_c, 1, 34, 91
3, 6701, Note_off_c, 1, 34, 0
3, 6723, Note_on_c, 1, 38, 86
3, 7200, Note_off_c, 1, 38, 0
3, 7201, Note_on_c, 1, 39, 89
3, 7353, Note_off_c, 1, 39, 0
3, 7382, Note_on_c, 1, 39, 82
3, 7440, Note_off_c, 1, 39, 0
3, 7446, Note_on_c, 1, 41, 84
3, 7680, Note_off_c, 1, 41, 0
3, 7680, Note_on_c, 1, 34, 91
3, 8141, Note_off_c, 1, 34, 0
3, 8161, Note_on_c, 1, 36, 89
3, 8313, Note_off_c, 1, 36, 0
3, 8342, Note_on_c, 1, 36, 82
3, 8400, Note_off_c, 1, 36, 0
3, 8400, Note_on_c, 1, 27, 85
3, 8640, Note_off_c, 1, 27, 0
3, 8640, Note_on_c, 1, 34, 85
3, 8850, Note_off_c, 1, 34, 0
3, 8880, Note_on_c, 1, 31, 85
3, 9000, Note_off_c, 1, 31, 0
3, 9000, Note_on_c, 1, 31, 85
3, 9120, Note_off_c, 1, 31, 0
3, 9126, Note_on_c, 1, 36, 84
3, 9360, Note_off_c, 1, 36, 0
3, 9360, Note_on_c, 1, 29, 85
3, 9600, Note_off_c, 1, 29, 0
3, 9600, Note_on_c, 1, 34, 91
3, 10061, Note_off_c, 1, 34, 0
3, 10080, Note_on_c, 1, 39, 91
3, 10541, Note_off_c, 1, 39, 0
3, 10560, Note_on_c, 1, 39, 80
3, 11040, Note_off_c, 1, 39, 0
3, 11041, Note_on_c, 1, 34, 91
3, 11449, Note_off_c, 1, 34, 0
3, 11459, Note_on_c, 1, 34, 79
3, 11506, Note_off_c, 1, 34, 0
3, 11521, Note_on_c, 1, 34, 74
3, 11872, Note_off_c, 1, 34, 0
3, 11883, Note_on_c, 1, 34, 96
3, 12000, Note_off_c, 1, 34, 0
3, 12000, Note_on_c, 1, 31, 86
3, 12360, Note_on_c, 1, 31, 81
3, 12363, Note_off_c, 1, 31, 0
3, 12413, Note_off_c, 1, 31, 0
3, 12420, Note_on_c, 1, 31, 89
3, 12438, Note_off_c, 1, 31, 0
3, 12481, Note_on_c, 1, 36, 91
3, 12889, Note_off_c, 1, 36, 0
3, 12899, Note_on_c, 1, 36, 79
3, 12946, Note_off_c, 1, 36, 0
3, 12961, Note_on_c, 1, 36, 91
3, 13369, Note_off_c, 1, 36, 0
3, 13379, Note_on_c, 1, 36, 79
3, 13426, Note_off_c, 1, 36, 0
3, 13440, Note_on_c, 1, 41, 85
3, 13650, Note_off_c, 1, 41, 0
3, 13681, Note_on_c, 1, 41, 89
3, 13833, Note_off_c, 1, 41, 0
3, 13862, Note_on_c, 1, 41, 82
3, 13920, Note_off_c, 1, 41, 0
3, 13920, Note_on_c, 1, 34, 99
3, 14323, Note_off_c, 1, 34, 0
3, 14337, Note_on_c, 1, 34, 73
3, 14372, Note_off_c, 1, 34, 0
3, 14406, Note_on_c, 1, 38, 84
3, 14817, Note_off_c, 1, 38, 0
3, 14830, Note_on_c, 1, 38, 86
3, 14880, Note_off_c, 1, 38, 0
3, 14880, Note_on_c, 1, 39, 91
3, 15341, Note_off_c, 1, 39, 0
3, 15366, Note_on_c, 1, 34, 84
3, 15777, Note_off_c, 1, 34, 0
3, 15790, Note_on_c, 1, 34, 86
3, 15840, Note_off_c, 1, 34, 0
3, 15840, Note_on_c, 1, 36, 85
3, 16050, Note_off_c, 1, 36, 0
3, 16080, Note_on_c, 1, 27, 85
3, 16320, Note_off_c, 1, 27, 0
3, 16320, Note_on_c, 1, 34, 85
3, 16530, Note_off_c, 1, 34, 0
3, 16566, Note_on_c, 1, 31, 84
3, 16680, Note_off_c, 1, 31, 0
3, 16686, Note_on_c, 1, 31, 84
3, 16800, Note_off_c, 1, 31, 0
3, 16806, Note_on_c, 1, 36, 84
3, 17040, Note_off_c, 1, 36, 0
3, 17040, Note_on_c, 1, 41, 85
3, 17250, Note_off_c, 1, 41, 0
3, 17286, Note_on_c, 1, 34, 84
3, 17520, Note_off_c, 1, 34, 0
3, 17521, Note_on_c, 1, 41, 89
3, 17673, Note_off_c, 1, 41, 0
3, 17702, Note_on_c, 1, 41, 82
3, 17760, Note_off_c, 1, 41, 0
3, 17760, Note_on_c, 1, 34, 99
3, 18163, Note_off_c, 1, 34, 0
3, 18177, Note_on_c, 1, 34, 73
3, 18212, Note_off_c, 1, 34, 0
3, 18240, Note_on_c, 1, 38, 99
3, 18643, Note_off_c, 1, 38, 0
3, 18657, Note_on_c, 1, 38, 73
3, 18692, Note_off_c, 1, 38, 0
3, 18720, Note_on_c, 1, 27, 85
3, 18960, Note_off_c, 1, 27, 0
3, 18960, Note_on_c, 1, 41, 85
3, 19170, Note_off_c, 1, 41, 0
3, 19200, Note_on_c, 1, 34, 99
3, 19603, Note_off_c, 1, 34, 0
3, 19617, Note_on_c, 1, 34, 73
3, 19652, Note_off_c, 1, 34, 0
3, 19686, Note_on_c, 1, 36, 84
3, 19920, Note_off_c, 1, 36, 0
3, 19921, Note_on_c, 1, 39, 89
3, 20073, Note_off_c, 1, 39, 0
3, 20102, Note_on_c, 1, 39, 82
3, 20160, Note_off_c, 1, 39, 0
3, 20166, Note_on_c, 1, 34, 84
3, 20400, Note_off_c, 1, 34, 0
3, 20400, Note_on_c, 1, 31, 85
3, 20520, Note_off_c, 1, 31, 0
3, 20526, Note_on_c, 1, 31, 84
3, 20640, Note_off_c, 1, 31, 0
3, 20641, Note_on_c, 1, 36, 91
3, 21049, Note_off_c, 1, 36, 0
3, 21059, Note_on_c, 1, 36, 79
3, 21106, Note_off_c, 1, 36, 0
3, 21120, Note_on_c, 1, 41, 91
3, 21581, Note_off_c, 1, 41, 0
3, 21600, Note_on_c, 1, 34, 86
3, 21960, Note_on_c, 1, 34, 81
3, 21963, Note_off_c, 1, 34, 0
3, 22013, Note_off_c, 1, 34, 0
3, 22020, Note_on_c, 1, 34, 89
3, 22038, Note_off_c, 1, 34, 0
3, 22086, Note_on_c, 1, 38, 84
3, 22497, Note_off_c, 1, 38, 0
3, 22510, Note_on_c, 1, 38, 86
3, 22560, Note_off_c, 1, 38, 0
3, 22566, Note_on_c, 1, 39, 84
3, 22800, Note_off_c, 1, 39, 0
3, 22800, Note_on_c, 1, 41, 85
3, 23010, Note_off_c, 1, 41, 0
3, 23040, Note_on_c, 1, 34, 99
3, 23443, Note_off_c, 1, 34, 0
3, 23457, Note_on_c, 1, 34, 73
3, 23492, Note_off_c, 1, 34, 0
3, 23521, Note_on_c, 1, 36, 89
3, 23673, Note_off_c, 1, 36, 0
3, 23702, Note_on_c, 1, 36, 82
3, 23760, Note_off_c, 1, 36, 0
3, 23760, Note_on_c, 1, 27, 85
3, 24000, Note_off_c, 1, 27, 0
3, 24001, Note_on_c, 1, 34, 89
3, 24153, Note_off_c, 1, 34, 0
3, 24182, Note_on_c, 1, 34, 82
3, 24240, Note_off_c, 1, 34, 0
3, 24240, Note_on_c, 1, 31, 85
3, 24360, Note_off_c, 1, 31, 0
3, 24366, Note_on_c, 1, 31, 84
3, 24480, Note_off_c, 1, 31, 0
3, 24486, Note_on_c, 1, 36, 84
3, 24720, Note_off_c, 1, 36, 0
3, 24720, Note_on_c, 1, 29, 85
3, 24960, Note_off_c, 1, 29, 0
3, 24966, Note_on_c, 1, 34, 84
3, 25377, Note_off_c, 1, 34, 0
3, 25390, Note_on_c, 1, 34, 86
3, 25440, Note_off_c, 1, 34, 0
3, 25440, Note_on_c, 1, 39, 91
3, 25901, Note_off_c, 1, 39, 0
3, 25920, Note_on_c, 1, 39, 80
3, 26400, Note_off_c, 1, 39, 0
3, 26400, Note_on_c, 1, 34, 93
3, 26794, Note_off_c, 1, 34, 0
3, 26820, Note_on_c, 1, 34, 75
3, 26860, Note_off_c, 1, 34, 0
3, 26880, Note_on_c, 1, 34, 77
3, 27240, Note_on_c, 1, 34, 83
3, 27258, Note_off_c, 1, 34, 0
3, 27290, Note_off_c, 1, 34, 0
3, 27300, Note_on_c, 1, 34, 98
3, 27322, Note_off_c, 1, 34, 0
3, 27360, Note_on_c, 1, 31, 91
3, 27821, Note_off_c, 1, 31, 0
3, 27840, Note_on_c, 1, 36, 99
3, 28243, Note_off_c, 1, 36, 0
3, 28257, Note_on_c, 1, 36, 73
3, 28292, Note_off_c, 1, 36, 0
3, 28320, Note_on_c, 1, 36, 99
3, 28723, Note_off_c, 1, 36, 0
3, 28737, Note_on_c, 1, 36, 73
3, 28772, Note_off_c, 1, 36, 0
3, 28800, Note_on_c, 1, 41, 85
3, 29010, Note_off_c, 1, 41, 0
3, 29040, Note_on_c, 1, 29, 85
3, 29280, Note_off_c, 1, 29, 0
3, 29281, Note_on_c, 1, 34, 91
3, 29689, Note_off_c, 1, 34, 0
3, 29699, Note_on_c, 1, 34, 79
3, 29746, Note_off_c, 1, 34, 0
3, 29761, Note_on_c, 1, 38, 91
3, 30169, Note_off_c, 1, 38, 0
3, 30179, Note_on_c, 1, 38, 79
3, 30226, Note_off_c, 1, 38, 0
3, 30240, Note_on_c, 1, 39, 91
3, 30701, Note_off_c, 1, 39, 0
3, 30720, Note_on_c, 1, 34, 86
3, 31080, Note_on_c, 1, 34, 81
3, 31083, Note_off_c, 1, 34, 0
3, 31133, Note_off_c, 1, 34, 0
3, 31140, Note_on_c, 1, 34, 89
3, 31158, Note_off_c, 1, 34, 0
3, 31206, Note_on_c, 1, 36, 84
3, 31440, Note_off_c, 1, 36, 0
3, 31440, Note_on_c, 1, 27, 85
3, 31680, Note_off_c, 1, 27, 0
3, 31681, Note_on_c, 1, 34, 89
3, 31833, Note_off_c, 1, 34, 0
3, 31862, Note_on_c, 1, 34, 82
3, 31920, Note_off_c, 1, 34, 0
3, 31920, Note_on_c, 1, 31, 85
3, 32040, Note_off_c, 1, 31, 0
3, 32040, Note_on_c, 1, 31, 85
3, 32160, Note_off_c, 1, 31, 0
3, 32161, Note_on_c, 1, 36, 89
3, 32313, Note_off_c, 1, 36, 0
3, 32342, Note_on_c, 1, 36, 82
3, 32400, Note_off_c, 1, 36, 0
3, 32406, Note_on_c, 1, 41, 84
3, 32640, Note_off_c, 1, 41, 0
3, 32640, Note_on_c, 1, 34, 85
3, 32850, Note_off_c, 1, 34, 0
3, 32886, Note_on_c, 1, 39, 84
3, 33120, Note_off_c, 1, 39, 0
3, 33121, Note_on_c, 1, 34, 91
3, 33529, Note_off_c, 1, 34, 0
3, 33529, End_track
4, 0, Start_track
4, 0, Title_t, "Piano\000"
4, 0, Control_c, 2, 121, 0
4, 0, Program_c, 2, 0
4, 0, Control_c, 2, 7, 85
4, 0, Control_c, 2, 10, 74
4, 0, Control_c, 2, 91, 40
4, 0, Control_c, 2, 93, 0
4, 0, Control_c, 2, 123, 0
4, 0, Control_c, 2, 64, 0
4, 481, Note_on_c, 2, 69, 59
4, 483, Note_on_c, 2, 57, 69
4, 483, Note_on_c, 2, 60, 47
4, 483, Note_on_c, 2, 65, 61
4, 627, Control_c, 2, 64, 127
4, 747, Control_c, 2, 0, 0
4, 867, Control_c, 2, 0, 0
4, 986, Note_off_c, 2, 57, 0
4, 1018, Note_on_c, 2, 57, 76
4, 1043, Note_off_c, 2, 60, 0
4, 1079, Note_off_c, 2, 65, 0
4, 1139, Note_off_c, 2, 69, 0
4, 1144, Note_on_c, 2, 60, 44
4, 1259, Note_on_c, 2, 65, 52
4, 1321, Note_on_c, 2, 69, 64
4, 1375, Note_off_c, 2, 65, 0
4, 1377, Note_off_c, 2, 57, 0
4, 1380, Note_off_c, 2, 60, 0
4, 1380, Note_off_c, 2, 69, 0
4, 1440, Control_c, 2, 64, 0
4, 1440, Note_on_c, 2, 57, 75
4, 1440, Note_on_c, 2, 60, 42
4, 1440, Note_on_c, 2, 65, 57
4, 1440, Note_on_c, 2, 69, 63
4, 1530, Control_c, 2, 64, 127
4, 1708, Note_off_c, 2, 57, 0
4, 1740, Note_on_c, 2, 57, 75
4, 1750, Note_off_c, 2, 60, 0
4, 1776, Note_off_c, 2, 65, 0
4, 1800, Note_on_c, 2, 65, 86
4, 1802, Note_off_c, 2, 69, 0
4, 1860, Note_on_c, 2, 69, 76
4, 1920, Note_on_c, 2, 72, 63
4, 2187, Note_off_c, 2, 57, 0
4, 2311, Note_off_c, 2, 65, 0
4, 2320, Note_off_c, 2, 69, 0
4, 2324, Note_off_c, 2, 72, 0
4, 2400, Control_c, 2, 64, 0
4, 2400, Note_on_c, 2, 53, 64
4, 2400, Note_on_c, 2, 58, 31
4, 2400, Note_on_c, 2, 62, 50
4, 2400, Note_on_c, 2, 65, 43
4, 2729, Note_off_c, 2, 58, 0
4, 2760, Note_on_c, 2, 58, 54
4, 2880, Note_off_c, 2, 53, 0
4, 2880, Note_off_c, 2, 62, 0
4, 2880, Note_off_c, 2, 65, 0
4, 2880, Note_off_c, 2, 58, 0
4, 2880, Note_on_c, 2, 53, 64
4, 2880, Note_on_c, 2, 57, 31
4, 2880, Note_on_c, 2, 62, 50
4, 2880, Note_on_c, 2, 65, 43
4, 3209, Note_off_c, 2, 57, 0
4, 3240, Note_on_c, 2, 57, 54
4, 3360, Note_off_c, 2, 53, 0
4, 3360, Note_off_c, 2, 62, 0
4, 3360, Note_off_c, 2, 65, 0
4, 3360, Note_off_c, 2, 57, 0
4, 3360, Note_on_c, 2, 55, 58
4, 3360, Note_on_c, 2, 58, 39
4, 3360, Note_on_c, 2, 63, 34
4, 3360, Note_on_c, 2, 67, 66
4, 3378, Note_off_c, 2, 63, 0
4, 3456, Note_off_c, 2, 55, 0
4, 3480, Note_on_c, 2, 55, 64
4, 3530, Note_off_c, 2, 58, 0
4, 3530, Note_off_c, 2, 67, 0
4, 3530, Note_off_c, 2, 55, 0
4, 3540, Note_on_c, 2, 57, 67
4, 3540, Note_on_c, 2, 63, 63
4, 3560, Note_off_c, 2, 63, 0
4, 3838, Note_off_c, 2, 57, 0
4, 3840, Note_on_c, 2, 53, 64
4, 3840, Note_on_c, 2, 58, 31
4, 3840, Note_on_c, 2, 62, 50
4, 3840, Note_on_c, 2, 65, 43
4, 4169, Note_off_c, 2, 58, 0
4, 4200, Note_on_c, 2, 58, 54
4, 4320, Note_off_c, 2, 53, 0
4, 4320, Note_off_c, 2, 62, 0
4, 4320, Note_off_c, 2, 65, 0
4, 4320, Note_off_c, 2, 58, 0
4, 4320, Note_on_c, 2, 58, 52
4, 4320, Note_on_c, 2, 63, 73
4, 4320, Note_on_c, 2, 67, 58
4, 4440, Note_on_c, 2, 60, 50
4, 4560, Note_off_c, 2, 58, 0
4, 4560, Note_off_c, 2, 63, 0
4, 4560, Note_off_c, 2, 67, 0
4, 4560, Note_off_c, 2, 60, 0
4, 4560, Note_on_c, 2, 54, 67
4, 4560, Note_on_c, 2, 63, 63
4, 4800, Note_off_c, 2, 54, 0
4, 4800, Note_off_c, 2, 63, 0
4, 4800, Note_on_c, 2, 53, 52
4, 4800, Note_on_c, 2, 62, 73
4, 4800, Note_on_c, 2, 65, 58
4, 4920, Note_on_c, 2, 58, 50
4, 5040, Note_off_c, 2, 53, 0
4, 5040, Note_off_c, 2, 62, 0
4, 5040, Note_off_c, 2, 65, 0
4, 5040, Note_off_c, 2, 58, 0
4, 5040, Note_on_c, 2, 50, 67
4, 5040, Note_on_c, 2, 58, 63
4, 5160, Note_off_c, 2, 50, 0
4, 5160, Note_off_c, 2, 58, 0
4, 5160, Note_on_c, 2, 53, 67
4, 5160, Note_on_c, 2, 58, 63
4, 5210, Note_off_c, 2, 53, 0
4, 5210, Note_off_c, 2, 58, 0
4, 5220, Note_on_c, 2, 55, 51
4, 5220, Note_on_c, 2, 58, 59
4, 5220, Note_on_c, 2, 60, 49
4, 5220, Note_on_c, 2, 64, 56
4, 5536, Note_off_c, 2, 55, 0
4, 5579, Note_off_c, 2, 58, 0
4, 5580, Note_on_c, 2, 55, 49
4, 5619, Note_off_c, 2, 60, 0
4, 5640, Note_on_c, 2, 58, 62
4, 5700, Note_on_c, 2, 60, 51
4, 5758, Note_off_c, 2, 64, 0
4, 5760, Note_off_c, 2, 55, 0
4, 5760, Note_off_c, 2, 58, 0
4, 5760, Note_off_c, 2, 60, 0
4, 5760, Note_on_c, 2, 53, 51
4, 5760, Note_on_c, 2, 57, 59
4, 5760, Note_on_c, 2, 60, 49
4, 5760, Note_on_c, 2, 63, 56
4, 6018, Note_off_c, 2, 53, 0
4, 6060, Note_on_c, 2, 53, 49
4, 6061, Note_off_c, 2, 57, 0
4, 6101, Note_off_c, 2, 60, 0
4, 6120, Note_on_c, 2, 57, 62
4, 6180, Note_on_c, 2, 60, 51
4, 6240, Note_off_c, 2, 63, 0
4, 6240, Note_off_c, 2, 53, 0
4, 6240, Note_off_c, 2, 57, 0
4, 6240, Note_off_c, 2, 60, 0
4, 6240, Note_on_c, 2, 53, 51
4, 6240, Note_on_c, 2, 58, 65
4, 6240, Note_on_c, 2, 62, 39
4, 6240, Note_on_c, 2, 65, 53
4, 6535, Note_off_c, 2, 53, 0
4, 6600, Note_on_c, 2, 53, 76
4, 6720, Note_off_c, 2, 58, 0
4, 6720, Note_off_c, 2, 62, 0
4, 6720, Note_off_c, 2, 65, 0
4, 6720, Note_off_c, 2, 53, 0
4, 6720, Note_on_c, 2, 53, 64
4, 6720, Note_on_c, 2, 57, 31
4, 6720, Note_on_c, 2, 62, 50
4, 6720, Note_on_c, 2, 65, 43
4, 7049, Note_off_c, 2, 57, 0
4, 7080, Note_on_c, 2, 57, 54
4, 7200, Note_off_c, 2, 53, 0
4, 7200, Note_off_c, 2, 62, 0
4, 7200, Note_off_c, 2, 65, 0
4, 7200, Note_off_c, 2, 57, 0
4, 7200, Note_on_c, 2, 55, 52
4, 7200, Note_on_c, 2, 63, 73
4, 7200, Note_on_c, 2, 67, 58
4, 7320, Note_on_c, 2, 58, 50
4, 7440, Note_off_c, 2, 55, 0
4, 7440, Note_off_c, 2, 63, 0
4, 7440, Note_off_c, 2, 67, 0
4, 7440, Note_off_c, 2, 58, 0
4, 7440, Note_on_c, 2, 57, 58
4, 7440, Note_on_c, 2, 60, 39
4, 7440, Note_on_c, 2, 63, 34
4, 7440, Note_on_c, 2, 65, 66
4, 7458, Note_off_c, 2, 63, 0
4, 7536, Note_off_c, 2, 57, 0
4, 7560, Note_on_c, 2, 57, 64
4, 7620, Note_on_c, 2, 63, 51
4, 7680, Note_off_c, 2, 60, 0
4, 7680, Note_off_c, 2, 65, 0
4, 7680, Note_off_c, 2, 57, 0
4, 7680, Note_off_c, 2, 63, 0
4, 7680, Note_on_c, 2, 53, 51
4, 7680, Note_on_c, 2, 58, 59
4, 7680, Note_on_c, 2, 62, 49
4, 7680, Note_on_c, 2, 65, 56
4, 7938, Note_off_c, 2, 53, 0
4, 7980, Note_on_c, 2, 53, 49
4, 7981, Note_off_c, 2, 58, 0
4, 8021, Note_off_c, 2, 62, 0
4, 8040, Note_on_c, 2, 58, 62
4, 8100, Note_on_c, 2, 62, 51
4, 8160, Note_off_c, 2, 65, 0
4, 8160, Note_off_c, 2, 53, 0
4, 8160, Note_off_c, 2, 58, 0
4, 8160, Note_off_c, 2, 62, 0
4, 8160, Note_on_c, 2, 58, 52
4, 8160, Note_on_c, 2, 63, 73
4, 8160, Note_on_c, 2, 67, 58
4, 8280, Note_on_c, 2, 60, 50
4, 8400, Note_off_c, 2, 58, 0
4, 8400, Note_off_c, 2, 63, 0
4, 8400, Note_off_c, 2, 67, 0
4, 8400, Note_off_c, 2, 60, 0
4, 8400, Note_on_c, 2, 54, 67
4, 8400, Note_on_c, 2, 63, 63
4, 8640, Note_off_c, 2, 54, 0
4, 8640, Note_off_c, 2, 63, 0
4, 8640, Note_on_c, 2, 53, 67
4, 8640, Note_on_c, 2, 62, 63
4, 8880, Note_off_c, 2, 53, 0
4, 8880, Note_off_c, 2, 62, 0
4, 8880, Note_on_c, 2, 50, 67
4, 8880, Note_on_c, 2, 58, 63
4, 9000, Note_off_c, 2, 50, 0
4, 9000, Note_off_c, 2, 58, 0
4, 9000, Note_on_c, 2, 53, 73
4, 9059, Note_on_c, 2, 58, 55
4, 9120, Note_off_c, 2, 53, 0
4, 9120, Note_off_c, 2, 58, 0
4, 9120, Note_on_c, 2, 58, 67
4, 9120, Note_on_c, 2, 64, 63
4, 9360, Note_off_c, 2, 58, 0
4, 9360, Note_off_c, 2, 64, 0
4, 9360, Note_on_c, 2, 57, 58
4, 9360, Note_on_c, 2, 60, 39
4, 9360, Note_on_c, 2, 63, 34
4, 9360, Note_on_c, 2, 65, 66
4, 9378, Note_off_c, 2, 63, 0
4, 9456, Note_off_c, 2, 57, 0
4, 9480, Note_on_c, 2, 57, 64
4, 9540, Note_on_c, 2, 63, 51
4, 9600, Note_off_c, 2, 60, 0
4, 9600, Note_off_c, 2, 65, 0
4, 9600, Note_off_c, 2, 57, 0
4, 9600, Note_off_c, 2, 63, 0
4, 9600, Note_on_c, 2, 53, 51
4, 9600, Note_on_c, 2, 58, 59
4, 9600, Note_on_c, 2, 62, 49
4, 9600, Note_on_c, 2, 65, 56
4, 9858, Note_off_c, 2, 53, 0
4, 9900, Note_on_c, 2, 53, 49
4, 9901, Note_off_c, 2, 58, 0
4, 9941, Note_off_c, 2, 62, 0
4, 9960, Note_on_c, 2, 58, 62
4, 10020, Note_on_c, 2, 62, 51
4, 10080, Note_off_c, 2, 65, 0
4, 10080, Note_off_c, 2, 53, 0
4, 10080, Note_off_c, 2, 58, 0
4, 10080, Note_off_c, 2, 62, 0
4, 10081, Note_on_c, 2, 67, 59
4, 10083, Note_on_c, 2, 55, 69
4, 10083, Note_on_c, 2, 58, 47
4, 10083, Note_on_c, 2, 63, 61
4, 10227, Control_c, 2, 64, 127
4, 10347, Control_c, 2, 0, 0
4, 10467, Control_c, 2, 0, 0
4, 10586, Note_off_c, 2, 55, 0
4, 10618, Note_on_c, 2, 55, 76
4, 10643, Note_off_c, 2, 58, 0
4, 10679, Note_off_c, 2, 63, 0
4, 10739, Note_off_c, 2, 67, 0
4, 10744, Note_on_c, 2, 58, 44
4, 10859, Note_on_c, 2, 63, 52
4, 10921, Note_on_c, 2, 67, 64
4, 10975, Note_off_c, 2, 63, 0
4, 10977, Note_off_c, 2, 55, 0
4, 10980, Note_off_c, 2, 58, 0
4, 10980, Note_off_c, 2, 67, 0
4, 11040, Control_c, 2, 64, 0
4, 11040, Note_on_c, 2, 53, 75
4, 11040, Note_on_c, 2, 58, 42
4, 11040, Note_on_c, 2, 62, 57
4, 11040, Note_on_c, 2, 65, 63
4, 11130, Control_c, 2, 64, 127
4, 11308, Note_off_c, 2, 53, 0
4, 11340, Note_on_c, 2, 53, 75
4, 11350, Note_off_c, 2, 58, 0
4, 11376, Note_off_c, 2, 62, 0
4, 11400, Note_on_c, 2, 62, 86
4, 11402, Note_off_c, 2, 65, 0
4, 11460, Note_on_c, 2, 65, 76
4, 11520, Note_on_c, 2, 70, 63
4, 11787, Note_off_c, 2, 53, 0
4, 11911, Note_off_c, 2, 62, 0
4, 11920, Note_off_c, 2, 65, 0
4, 11924, Note_off_c, 2, 70, 0
4, 12000, Control_c, 2, 64, 0
4, 12000, Note_on_c, 2, 50, 64
4, 12000, Note_on_c, 2, 55, 31
4, 12000, Note_on_c, 2, 58, 50
4, 12000, Note_on_c, 2, 62, 43
4, 12329, Note_off_c, 2, 55, 0
4, 12360, Note_on_c, 2, 55, 54
4, 12480, Note_off_c, 2, 50, 0
4, 12480, Note_off_c, 2, 58, 0
4, 12480, Note_off_c, 2, 62, 0
4, 12480, Note_off_c, 2, 55, 0
4, 12480, Note_on_c, 2, 55, 51
4, 12480, Note_on_c, 2, 58, 59
4, 12480, Note_on_c, 2, 60, 49
4, 12480, Note_on_c, 2, 64, 56
4, 12738, Note_off_c, 2, 55, 0
4, 12780, Note_on_c, 2, 55, 49
4, 12781, Note_off_c, 2, 58, 0
4, 12821, Note_off_c, 2, 60, 0
4, 12840, Note_on_c, 2, 58, 62
4, 12900, Note_on_c, 2, 60, 51
4, 12960, Note_off_c, 2, 64, 0
4, 12960, Note_off_c, 2, 55, 0
4, 12960, Note_off_c, 2, 58, 0
4, 12960, Note_off_c, 2, 60, 0
4, 12960, Note_on_c, 2, 58, 64
4, 12960, Note_on_c, 2, 60, 31
4, 12960, Note_on_c, 2, 63, 50
4, 12960, Note_on_c, 2, 67, 43
4, 13289, Note_off_c, 2, 60, 0
4, 13320, Note_on_c, 2, 60, 54
4, 13370, Note_off_c, 2, 58, 0
4, 13370, Note_off_c, 2, 63, 0
4, 13370, Note_off_c, 2, 67, 0
4, 13370, Note_off_c, 2, 60, 0
4, 13380, Note_on_c, 2, 57, 67
4, 13380, Note_on_c, 2, 63, 63
4, 13610, Note_off_c, 2, 57, 0
4, 13610, Note_off_c, 2, 63, 0
4, 13620, Note_on_c, 2, 57, 52
4, 13620, Note_on_c, 2, 63, 73
4, 13620, Note_on_c, 2, 66, 58
4, 13800, Note_on_c, 2, 60, 50
4, 13918, Note_off_c, 2, 57, 0
4, 13918, Note_off_c, 2, 63, 0
4, 13918, Note_off_c, 2, 66, 0
4, 13920, Note_off_c, 2, 60, 0
4, 13920, Note_on_c, 2, 53, 51
4, 13920, Note_on_c, 2, 58, 65
4, 13920, Note_on_c, 2, 62, 39
4, 13920, Note_on_c, 2, 65, 53
4, 14215, Note_off_c, 2, 53, 0
4, 14280, Note_on_c, 2, 53, 76
4, 14400, Note_off_c, 2, 58, 0
4, 14400, Note_off_c, 2, 62, 0
4, 14400, Note_off_c, 2, 65, 0
4, 14400, Note_off_c, 2, 53, 0
4, 14400, Note_on_c, 2, 53, 51
4, 14400, Note_on_c, 2, 57, 59
4, 14400, Note_on_c, 2, 62, 49
4, 14400, Note_on_c, 2, 65, 56
4, 14658, Note_off_c, 2, 53, 0
4, 14700, Note_on_c, 2, 53, 49
4, 14701, Note_off_c, 2, 57, 0
4, 14741, Note_off_c, 2, 62, 0
4, 14760, Note_on_c, 2, 57, 62
4, 14820, Note_on_c, 2, 62, 51
4, 14880, Note_off_c, 2, 65, 0
4, 14880, Note_off_c, 2, 53, 0
4, 14880, Note_off_c, 2, 57, 0
4, 14880, Note_off_c, 2, 62, 0
4, 14880, Note_on_c, 2, 55, 51
4, 14880, Note_on_c, 2, 58, 59
4, 14880, Note_on_c, 2, 63, 49
4, 14880, Note_on_c, 2, 67, 56
4, 15138, Note_off_c, 2, 55, 0
4, 15180, Note_on_c, 2, 55, 49
4, 15181, Note_off_c, 2, 58, 0
4, 15221, Note_off_c, 2, 63, 0
4, 15240, Note_on_c, 2, 58, 62
4, 15300, Note_on_c, 2, 63, 51
4, 15360, Note_off_c, 2, 67, 0
4, 15360, Note_off_c, 2, 55, 0
4, 15360, Note_off_c, 2, 58, 0
4, 15360, Note_off_c, 2, 63, 0
4, 15360, Note_on_c, 2, 53, 51
4, 15360, Note_on_c, 2, 58, 65
4, 15360, Note_on_c, 2, 62, 39
4, 15360, Note_on_c, 2, 65, 53
4, 15655, Note_off_c, 2, 53, 0
4, 15720, Note_on_c, 2, 53, 76
4, 15840, Note_off_c, 2, 58, 0
4, 15840, Note_off_c, 2, 62, 0
4, 15840, Note_off_c, 2, 65, 0
4, 15840, Note_off_c, 2, 53, 0
4, 15840, Note_on_c, 2, 58, 52
4, 15840, Note_on_c, 2, 63, 73
4, 15840, Note_on_c, 2, 67, 58
4, 15960, Note_on_c, 2, 60, 50
4, 16080, Note_off_c, 2, 58, 0
4, 16080, Note_off_c, 2, 63, 0
4, 16080, Note_off_c, 2, 67, 0
4, 16080, Note_off_c, 2, 60, 0
4, 16080, Note_on_c, 2, 54, 67
4, 16080, Note_on_c, 2, 63, 63
4, 16320, Note_off_c, 2, 54, 0
4, 16320, Note_off_c, 2, 63, 0
4, 16320, Note_on_c, 2, 53, 58
4, 16320, Note_on_c, 2, 58, 39
4, 16320, Note_on_c, 2, 62, 34
4, 16320, Note_on_c, 2, 65, 66
4, 16338, Note_off_c, 2, 62, 0
4, 16416, Note_off_c, 2, 53, 0
4, 16440, Note_on_c, 2, 53, 64
4, 16500, Note_on_c, 2, 62, 51
4, 16560, Note_off_c, 2, 58, 0
4, 16560, Note_off_c, 2, 65, 0
4, 16560, Note_off_c, 2, 53, 0
4, 16560, Note_off_c, 2, 62, 0
4, 16560, Note_on_c, 2, 50, 67
4, 16560, Note_on_c, 2, 58, 63
4, 16680, Note_off_c, 2, 50, 0
4, 16680, Note_off_c, 2, 58, 0
4, 16680, Note_on_c, 2, 53, 73
4, 16739, Note_on_c, 2, 58, 55
4, 16800, Note_off_c, 2, 53, 0
4, 16800, Note_off_c, 2, 58, 0
4, 16800, Note_on_c, 2, 58, 67
4, 16800, Note_on_c, 2, 63, 63
4, 17040, Note_off_c, 2, 58, 0
4, 17040, Note_off_c, 2, 63, 0
4, 17040, Note_on_c, 2, 57, 67
4, 17040, Note_on_c, 2, 63, 63
4, 17280, Note_off_c, 2, 57, 0
4, 17280, Note_off_c, 2, 63, 0
4, 17280, Note_on_c, 2, 53, 67
4, 17280, Note_on_c, 2, 62, 63
4, 17520, Note_off_c, 2, 53, 0
4, 17520, Note_off_c, 2, 62, 0
4, 17520, Note_on_c, 2, 57, 52
4, 17520, Note_on_c, 2, 63, 73
4, 17520, Note_on_c, 2, 66, 58
4, 17640, Note_on_c, 2, 60, 50
4, 17760, Note_off_c, 2, 57, 0
4, 17760, Note_off_c, 2, 63, 0
4, 17760, Note_off_c, 2, 66, 0
4, 17760, Note_off_c, 2, 60, 0
4, 17760, Note_on_c, 2, 53, 51
4, 17760, Note_on_c, 2, 58, 59
4, 17760, Note_on_c, 2, 62, 49
4, 17760, Note_on_c, 2, 65, 56
4, 18018, Note_off_c, 2, 53, 0
4, 18060, Note_on_c, 2, 53, 49
4, 18061, Note_off_c, 2, 58, 0
4, 18101, Note_off_c, 2, 62, 0
4, 18120, Note_on_c, 2, 58, 62
4, 18180, Note_on_c, 2, 62, 51
4, 18240, Note_off_c, 2, 65, 0
4, 18240, Note_off_c, 2, 53, 0
4, 18240, Note_off_c, 2, 58, 0
4, 18240, Note_off_c, 2, 62, 0
4, 18240, Note_on_c, 2, 53, 51
4, 18240, Note_on_c, 2, 57, 65
4, 18240, Note_on_c, 2, 62, 39
4, 18240, Note_on_c, 2, 65, 53
4, 18535, Note_off_c, 2, 53, 0
4, 18600, Note_on_c, 2, 53, 76
4, 18650, Note_off_c, 2, 57, 0
4, 18650, Note_off_c, 2, 62, 0
4, 18650, Note_off_c, 2, 65, 0
4, 18650, Note_off_c, 2, 53, 0
4, 18660, Note_on_c, 2, 55, 67
4, 18660, Note_on_c, 2, 63, 63
4, 18958, Note_off_c, 2, 55, 0
4, 18958, Note_off_c, 2, 63, 0
4, 18960, Note_on_c, 2, 57, 67
4, 18960, Note_on_c, 2, 63, 63
4, 19200, Note_off_c, 2, 57, 0
4, 19200, Note_off_c, 2, 63, 0
4, 19200, Note_on_c, 2, 53, 51
4, 19200, Note_on_c, 2, 58, 59
4, 19200, Note_on_c, 2, 62, 49
4, 19200, Note_on_c, 2, 65, 56
4, 19458, Note_off_c, 2, 53, 0
4, 19500, Note_on_c, 2, 53, 49
4, 19501, Note_off_c, 2, 58, 0
4, 19541, Note_off_c, 2, 62, 0
4, 19560, Note_on_c, 2, 58, 62
4, 19620, Note_on_c, 2, 62, 51
4, 19680, Note_off_c, 2, 65, 0
4, 19680, Note_off_c, 2, 53, 0
4, 19680, Note_off_c, 2, 58, 0
4, 19680, Note_off_c, 2, 62, 0
4, 19680, Note_on_c, 2, 58, 52
4, 19680, Note_on_c, 2, 63, 73
4, 19680, Note_on_c, 2, 67, 58
4, 19800, Note_on_c, 2, 60, 50
4, 19920, Note_off_c, 2, 58, 0
4, 19920, Note_off_c, 2, 63, 0
4, 19920, Note_off_c, 2, 67, 0
4, 19920, Note_off_c, 2, 60, 0
4, 19920, Note_on_c, 2, 54, 52
4, 19920, Note_on_c, 2, 63, 73
4, 19920, Note_on_c, 2, 66, 58
4, 20040, Note_on_c, 2, 58, 50
4, 20160, Note_off_c, 2, 54, 0
4, 20160, Note_off_c, 2, 63, 0
4, 20160, Note_off_c, 2, 66, 0
4, 20160, Note_off_c, 2, 58, 0
4, 20160, Note_on_c, 2, 53, 58
4, 20160, Note_on_c, 2, 58, 39
4, 20160, Note_on_c, 2, 62, 34
4, 20160, Note_on_c, 2, 65, 66
4, 20178, Note_off_c, 2, 62, 0
4, 20256, Note_off_c, 2, 53, 0
4, 20280, Note_on_c, 2, 53, 64
4, 20340, Note_on_c, 2, 62, 51
4, 20400, Note_off_c, 2, 58, 0
4, 20400, Note_off_c, 2, 65, 0
4, 20400, Note_off_c, 2, 53, 0
4, 20400, Note_off_c, 2, 62, 0
4, 20400, Note_on_c, 2, 50, 67
4, 20400, Note_on_c, 2, 58, 63
4, 20520, Note_off_c, 2, 50, 0
4, 20520, Note_off_c, 2, 58, 0
4, 20520, Note_on_c, 2, 53, 73
4, 20579, Note_on_c, 2, 58, 55
4, 20640, Note_off_c, 2, 53, 0
4, 20640, Note_off_c, 2, 58, 0
4, 20640, Note_on_c, 2, 55, 51
4, 20640, Note_on_c, 2, 58, 59
4, 20640, Note_on_c, 2, 60, 49
4, 20640, Note_on_c, 2, 64, 56
4, 20898, Note_off_c, 2, 55, 0
4, 20940, Note_on_c, 2, 55, 49
4, 20941, Note_off_c, 2, 58, 0
4, 20981, Note_off_c, 2, 60, 0
4, 21000, Note_on_c, 2, 58, 62
4, 21060, Note_on_c, 2, 60, 51
4, 21120, Note_off_c, 2, 64, 0
4, 21120, Note_off_c, 2, 55, 0
4, 21120, Note_off_c, 2, 58, 0
4, 21120, Note_off_c, 2, 60, 0
4, 21120, Note_on_c, 2, 53, 51
4, 21120, Note_on_c, 2, 57, 65
4, 21120, Note_on_c, 2, 60, 39
4, 21120, Note_on_c, 2, 63, 53
4, 21415, Note_off_c, 2, 53, 0
4, 21480, Note_on_c, 2, 53, 76
4, 21600, Note_off_c, 2, 57, 0
4, 21600, Note_off_c, 2, 60, 0
4, 21600, Note_off_c, 2, 63, 0
4, 21600, Note_off_c, 2, 53, 0
4, 21600, Note_on_c, 2, 53, 51
4, 21600, Note_on_c, 2, 58, 65
4, 21600, Note_on_c, 2, 62, 39
4, 21600, Note_on_c, 2, 65, 53
4, 21895, Note_off_c, 2, 53, 0
4, 21960, Note_on_c, 2, 53, 76
4, 22080, Note_off_c, 2, 58, 0
4, 22080, Note_off_c, 2, 62, 0
4, 22080, Note_off_c, 2, 65, 0
4, 22080, Note_off_c, 2, 53, 0
4, 22080, Note_on_c, 2, 53, 64
4, 22080, Note_on_c, 2, 57, 31
4, 22080, Note_on_c, 2, 62, 50
4, 22080, Note_on_c, 2, 65, 43
4, 22409, Note_off_c, 2, 57, 0
4, 22440, Note_on_c, 2, 57, 54
4, 22560, Note_off_c, 2, 53, 0
4, 22560, Note_off_c, 2, 62, 0
4, 22560, Note_off_c, 2, 65, 0
4, 22560, Note_off_c, 2, 57, 0
4, 22560, Note_on_c, 2, 55, 52
4, 22560, Note_on_c, 2, 63, 73
4, 22560, Note_on_c, 2, 67, 58
4, 22680, Note_on_c, 2, 58, 50
4, 22800, Note_off_c, 2, 55, 0
4, 22800, Note_off_c, 2, 63, 0
4, 22800, Note_off_c, 2, 67, 0
4, 22800, Note_off_c, 2, 58, 0
4, 22800, Note_on_c, 2, 57, 67
4, 22800, Note_on_c, 2, 63, 63
4, 23040, Note_off_c, 2, 57, 0
4, 23040, Note_off_c, 2, 63, 0
4, 23040, Note_on_c, 2, 53, 64
4, 23040, Note_on_c, 2, 58, 31
4, 23040, Note_on_c, 2, 62, 50
4, 23040, Note_on_c, 2, 65, 43
4, 23369, Note_off_c, 2, 58, 0
4, 23400, Note_on_c, 2, 58, 54
4, 23520, Note_off_c, 2, 53, 0
4, 23520, Note_off_c, 2, 62, 0
4, 23520, Note_off_c, 2, 65, 0
4, 23520, Note_off_c, 2, 58, 0
4, 23520, Note_on_c, 2, 58, 67
4, 23520, Note_on_c, 2, 63, 63
4, 23760, Note_off_c, 2, 58, 0
4, 23760, Note_off_c, 2, 63, 0
4, 23760, Note_on_c, 2, 54, 67
4, 23760, Note_on_c, 2, 63, 63
4, 24000, Note_off_c, 2, 54, 0
4, 24000, Note_off_c, 2, 63, 0
4, 24000, Note_on_c, 2, 53, 67
4, 24000, Note_on_c, 2, 62, 63
4, 24240, Note_off_c, 2, 53, 0
4, 24240, Note_off_c, 2, 62, 0
4, 24240, Note_on_c, 2, 50, 67
4, 24240, Note_on_c, 2, 58, 63
4, 24360, Note_off_c, 2, 50, 0
4, 24360, Note_off_c, 2, 58, 0
4, 24360, Note_on_c, 2, 53, 67
4, 24360, Note_on_c, 2, 58, 63
4, 24480, Note_off_c, 2, 53, 0
4, 24480, Note_off_c, 2, 58, 0
4, 24480, Note_on_c, 2, 58, 52
4, 24480, Note_on_c, 2, 64, 73
4, 24480, Note_on_c, 2, 67, 58
4, 24600, Note_on_c, 2, 60, 50
4, 24720, Note_off_c, 2, 58, 0
4, 24720, Note_off_c, 2, 64, 0
4, 24720, Note_off_c, 2, 67, 0
4, 24720, Note_off_c, 2, 60, 0
4, 24720, Note_on_c, 2, 57, 67
4, 24720, Note_on_c, 2, 63, 63
4, 24960, Note_off_c, 2, 57, 0
4, 24960, Note_off_c, 2, 63, 0
4, 24960, Note_on_c, 2, 53, 51
4, 24960, Note_on_c, 2, 58, 65
4, 24960, Note_on_c, 2, 62, 39
4, 24960, Note_on_c, 2, 65, 53
4, 25255, Note_off_c, 2, 53, 0
4, 25320, Note_on_c, 2, 53, 76
4, 25440, Note_off_c, 2, 58, 0
4, 25440, Note_off_c, 2, 62, 0
4, 25440, Note_off_c, 2, 65, 0
4, 25440, Note_off_c, 2, 53, 0
4, 25440, Note_on_c, 2, 55, 63
4, 25440, Note_on_c, 2, 58, 63
4, 25440, Note_on_c, 2, 63, 63
4, 26400, Note_off_c, 2, 55, 0
4, 26400, Note_off_c, 2, 58, 0
4, 26400, Note_off_c, 2, 63, 0
4, 26400, Note_on_c, 2, 53, 68
4, 26400, Note_on_c, 2, 62, 41
4, 26400, Note_on_c, 2, 65, 58
4, 26490, Control_c, 2, 64, 127
4, 26649, Note_off_c, 2, 53, 0
4, 26700, Note_on_c, 2, 53, 67
4, 26820, Note_on_c, 2, 70, 56
4, 27015, Note_off_c, 2, 53, 0
4, 27060, Note_on_c, 2, 53, 61
4, 27066, Note_off_c, 2, 62, 0
4, 27081, Note_off_c, 2, 65, 0
4, 27120, Note_on_c, 2, 62, 47
4, 27240, Note_on_c, 2, 65, 63
4, 27278, Note_off_c, 2, 53, 0
4, 27294, Note_off_c, 2, 65, 0
4, 27302, Note_off_c, 2, 70, 0
4, 27302, Note_off_c, 2, 62, 0
4, 27360, Control_c, 2, 64, 0
4, 27360, Note_on_c, 2, 50, 51
4, 27360, Note_on_c, 2, 55, 65
4, 27360, Note_on_c, 2, 58, 39
4, 27360, Note_on_c, 2, 62, 53
4, 27655, Note_off_c, 2, 50, 0
4, 27720, Note_on_c, 2, 50, 76
4, 27840, Note_off_c, 2, 55, 0
4, 27840, Note_off_c, 2, 58, 0
4, 27840, Note_off_c, 2, 62, 0
4, 27840, Note_off_c, 2, 50, 0
4, 27840, Note_on_c, 2, 55, 51
4, 27840, Note_on_c, 2, 58, 59
4, 27840, Note_on_c, 2, 60, 49
4, 27840, Note_on_c, 2, 64, 56
4, 28098, Note_off_c, 2, 55, 0
4, 28140, Note_on_c, 2, 55, 49
4, 28141, Note_off_c, 2, 58, 0
4, 28181, Note_off_c, 2, 60, 0
4, 28200, Note_on_c, 2, 58, 62
4, 28250, Note_off_c, 2, 64, 0
4, 28250, Note_off_c, 2, 55, 0
4, 28250, Note_off_c, 2, 58, 0
4, 28260, Note_on_c, 2, 58, 64
4, 28260, Note_on_c, 2, 60, 31
4, 28260, Note_on_c, 2, 63, 50
4, 28260, Note_on_c, 2, 67, 43
4, 28280, Note_off_c, 2, 60, 0
4, 28680, Note_on_c, 2, 60, 54
4, 28730, Note_off_c, 2, 58, 0
4, 28730, Note_off_c, 2, 63, 0
4, 28730, Note_off_c, 2, 67, 0
4, 28730, Note_off_c, 2, 60, 0
4, 28740, Note_on_c, 2, 57, 52
4, 28740, Note_on_c, 2, 63, 73
4, 28740, Note_on_c, 2, 65, 58
4, 28920, Note_on_c, 2, 60, 50
4, 29038, Note_off_c, 2, 57, 0
4, 29038, Note_off_c, 2, 63, 0
4, 29038, Note_off_c, 2, 65, 0
4, 29040, Note_off_c, 2, 60, 0
4, 29040, Note_on_c, 2, 57, 58
4, 29040, Note_on_c, 2, 60, 39
4, 29040, Note_on_c, 2, 63, 34
4, 29040, Note_on_c, 2, 66, 66
4, 29058, Note_off_c, 2, 63, 0
4, 29136, Note_off_c, 2, 57, 0
4, 29160, Note_on_c, 2, 57, 64
4, 29220, Note_on_c, 2, 63, 51
4, 29280, Note_off_c, 2, 60, 0
4, 29280, Note_off_c, 2, 66, 0
4, 29280, Note_off_c, 2, 57, 0
4, 29280, Note_off_c, 2, 63, 0
4, 29280, Note_on_c, 2, 53, 51
4, 29280, Note_on_c, 2, 58, 59
4, 29280, Note_on_c, 2, 62, 49
4, 29280, Note_on_c, 2, 65, 56
4, 29538, Note_off_c, 2, 53, 0
4, 29580, Note_on_c, 2, 53, 49
4, 29581, Note_off_c, 2, 58, 0
4, 29621, Note_off_c, 2, 62, 0
4, 29640, Note_on_c, 2, 58, 62
4, 29700, Note_on_c, 2, 62, 51
4, 29760, Note_off_c, 2, 65, 0
4, 29760, Note_off_c, 2, 53, 0
4, 29760, Note_off_c, 2, 58, 0
4, 29760, Note_off_c, 2, 62, 0
4, 29760, Note_on_c, 2, 53, 51
4, 29760, Note_on_c, 2, 57, 59
4, 29760, Note_on_c, 2, 62, 49
4, 29760, Note_on_c, 2, 65, 56
4, 30018, Note_off_c, 2, 53, 0
4, 30060, Note_on_c, 2, 53, 49
4, 30061, Note_off_c, 2, 57, 0
4, 30101, Note_off_c, 2, 62, 0
4, 30120, Note_on_c, 2, 57, 62
4, 30180, Note_on_c, 2, 62, 51
4, 30240, Note_off_c, 2, 65, 0
4, 30240, Note_off_c, 2, 53, 0
4, 30240, Note_off_c, 2, 57, 0
4, 30240, Note_off_c, 2, 62, 0
4, 30240, Note_on_c, 2, 55, 51
4, 30240, Note_on_c, 2, 58, 65
4, 30240, Note_on_c, 2, 63, 39
4, 30240, Note_on_c, 2, 67, 53
4, 30535, Note_off_c, 2, 55, 0
4, 30600, Note_on_c, 2, 55, 76
4, 30720, Note_off_c, 2, 58, 0
4, 30720, Note_off_c, 2, 63, 0
4, 30720, Note_off_c, 2, 67, 0
4, 30720, Note_off_c, 2, 55, 0
4, 30720, Note_on_c, 2, 53, 51
4, 30720, Note_on_c, 2, 58, 65
4, 30720, Note_on_c, 2, 62, 39
4, 30720, Note_on_c, 2, 65, 53
4, 31015, Note_off_c, 2, 53, 0
4, 31080, Note_on_c, 2, 53, 76
4, 31200, Note_off_c, 2, 58, 0
4, 31200, Note_off_c, 2, 62, 0
4, 31200, Note_off_c, 2, 65, 0
4, 31200, Note_off_c, 2, 53, 0
4, 31200, Note_on_c, 2, 58, 52
4, 31200, Note_on_c, 2, 63, 73
4, 31200, Note_on_c, 2, 67, 58
4, 31320, Note_on_c, 2, 60, 50
4, 31440, Note_off_c, 2, 58, 0
4, 31440, Note_off_c, 2, 63, 0
4, 31440, Note_off_c, 2, 67, 0
4, 31440, Note_off_c, 2, 60, 0
4, 31440, Note_on_c, 2, 54, 58
4, 31440, Note_on_c, 2, 58, 39
4, 31440, Note_on_c, 2, 63, 34
4, 31440, Note_on_c, 2, 66, 66
4, 31458, Note_off_c, 2, 63, 0
4, 31536, Note_off_c, 2, 54, 0
4, 31560, Note_on_c, 2, 54, 64
4, 31620, Note_on_c, 2, 63, 51
4, 31680, Note_off_c, 2, 58, 0
4, 31680, Note_off_c, 2, 66, 0
4, 31680, Note_off_c, 2, 54, 0
4, 31680, Note_off_c, 2, 63, 0
4, 31680, Note_on_c, 2, 53, 58
4, 31680, Note_on_c, 2, 58, 39
4, 31680, Note_on_c, 2, 62, 34
4, 31680, Note_on_c, 2, 65, 66
4, 31698, Note_off_c, 2, 62, 0
4, 31776, Note_off_c, 2, 53, 0
4, 31800, Note_on_c, 2, 53, 64
4, 31850, Note_off_c, 2, 58, 0
4, 31850, Note_off_c, 2, 65, 0
4, 31850, Note_off_c, 2, 53, 0
4, 31860, Note_on_c, 2, 50, 67
4, 31860, Note_on_c, 2, 58, 63
4, 32038, Note_off_c, 2, 50, 0
4, 32038, Note_off_c, 2, 58, 0
4, 32040, Note_on_c, 2, 53, 73
4, 32099, Note_on_c, 2, 58, 55
4, 32160, Note_off_c, 2, 53, 0
4, 32160, Note_off_c, 2, 58, 0
4, 32160, Note_on_c, 2, 58, 58
4, 32160, Note_on_c, 2, 60, 39
4, 32160, Note_on_c, 2, 63, 34
4, 32160, Note_on_c, 2, 67, 66
4, 32178, Note_off_c, 2, 63, 0
4, 32256, Note_off_c, 2, 58, 0
4, 32280, Note_on_c, 2, 58, 64
4, 32340, Note_on_c, 2, 63, 51
4, 32400, Note_off_c, 2, 60, 0
4, 32400, Note_off_c, 2, 67, 0
4, 32400, Note_off_c, 2, 58, 0
4, 32400, Note_off_c, 2, 63, 0
4, 32400, Note_on_c, 2, 57, 67
4, 32400, Note_on_c, 2, 63, 63
4, 32640, Note_off_c, 2, 57, 0
4, 32640, Note_off_c, 2, 63, 0
4, 32640, Note_on_c, 2, 53, 52
4, 32640, Note_on_c, 2, 62, 73
4, 32640, Note_on_c, 2, 65, 58
4, 32760, Note_on_c, 2, 58, 50
4, 32880, Note_off_c, 2, 53, 0
4, 32880, Note_off_c, 2, 62, 0
4, 32880, Note_off_c, 2, 65, 0
4, 32880, Note_off_c, 2, 58, 0
4, 32880, Note_on_c, 2, 55, 52
4, 32880, Note_on_c, 2, 61, 73
4, 32880, Note_on_c, 2, 63, 58
4, 33000, Note_on_c, 2, 58, 50
4, 33120, Note_off_c, 2, 55, 0
4, 33120, Note_off_c, 2, 61, 0
4, 33120, Note_off_c, 2, 63, 0
4, 33120, Note_off_c, 2, 58, 0
4, 33120, Note_on_c, 2, 53, 51
4, 33120, Note_on_c, 2, 58, 59
4, 33120, Note_on_c, 2, 62, 49
4, 33120, Note_on_c, 2, 65, 56
4, 33378, Note_off_c, 2, 53, 0
4, 33420, Note_on_c, 2, 53, 49
4, 33421, Note_off_c, 2, 58, 0
4, 33461, Note_off_c, 2, 62, 0
4, 33600, Note_off_c, 2, 65, 0
4, 33600, Note_off_c, 2, 53, 0
4, 33600, Control_c, 2, 64, 0
4, 33600, End_track
5, 0, Start_track
5, 0, Title_t, "Guitar\000"
5, 0, Control_c, 3, 121, 0
5, 0, Program_c, 3, 25
5, 0, Control_c, 3, 7, 85
5, 0, Control_c, 3, 10, 44
5, 0, Control_c, 3, 91, 40
5, 0, Control_c, 3, 93, 0
5, 0, Control_c, 3, 123, 0
5, 0, Control_c, 3, 64, 0
5, 483, Note_on_c, 3, 41, 54
5, 483, Note_on_c, 3, 53, 45
5, 483, Note_on_c, 3, 57, 60
5, 483, Note_on_c, 3, 60, 66
5, 501, Control_c, 3, 64, 127
5, 546, Note_off_c, 3, 53, 0
5, 548, Note_off_c, 3, 60, 0
5, 557, Note_off_c, 3, 57, 0
5, 596, Note_on_c, 3, 57, 66
5, 598, Note_on_c, 3, 60, 63
5, 605, Note_off_c, 3, 41, 0
5, 612, Note_off_c, 3, 60, 0
5, 614, Note_off_c, 3, 57, 0
5, 661, Note_on_c, 3, 57, 59
5, 661, Note_on_c, 3, 60, 78
5, 672, Note_off_c, 3, 57, 0
5, 672, Note_off_c, 3, 60, 0
5, 722, Note_on_c, 3, 53, 44
5, 722, Note_on_c, 3, 57, 34
5, 737, Note_off_c, 3, 57, 0
5, 773, Note_off_c, 3, 53, 0
5, 780, Note_on_c, 3, 57, 53
5, 782, Note_on_c, 3, 60, 69
5, 794, Note_off_c, 3, 57, 0
5, 805, Note_off_c, 3, 60, 0
5, 841, Note_on_c, 3, 57, 50
5, 848, Note_on_c, 3, 53, 27
5, 850, Note_off_c, 3, 57, 0
5, 859, Note_off_c, 3, 53, 0
5, 897, Note_on_c, 3, 57, 48
5, 899, Note_on_c, 3, 60, 68
5, 926, Note_off_c, 3, 57, 0
5, 928, Note_off_c, 3, 60, 0
5, 962, Note_on_c, 3, 41, 47
5, 1012, Note_off_c, 3, 41, 0
5, 1075, Note_on_c, 3, 60, 65
5, 1077, Note_on_c, 3, 57, 39
5, 1092, Note_off_c, 3, 60, 0
5, 1095, Note_off_c, 3, 57, 0
5, 1142, Note_on_c, 3, 60, 61
5, 1144, Note_on_c, 3, 57, 39
5, 1155, Note_off_c, 3, 60, 0
5, 1157, Note_off_c, 3, 57, 0
5, 1203, Note_on_c, 3, 57, 37
5, 1209, Note_on_c, 3, 53, 39
5, 1214, Note_off_c, 3, 57, 0
5, 1256, Note_off_c, 3, 53, 0
5, 1257, Note_on_c, 3, 57, 63
5, 1259, Note_on_c, 3, 60, 38
5, 1281, Note_off_c, 3, 57, 0
5, 1295, Note_off_c, 3, 60, 0
5, 1326, Note_on_c, 3, 57, 42
5, 1331, Note_on_c, 3, 53, 45
5, 1337, Note_off_c, 3, 57, 0
5, 1346, Note_off_c, 3, 53, 0
5, 1380, Note_on_c, 3, 60, 44
5, 1384, Note_on_c, 3, 57, 34
5, 1396, Note_off_c, 3, 60, 0
5, 1398, Note_off_c, 3, 57, 0
5, 1440, Control_c, 3, 64, 0
5, 1440, Note_on_c, 3, 57, 70
5, 1441, Note_on_c, 3, 65, 58
5, 1443, Note_on_c, 3, 60, 64
5, 1445, Note_on_c, 3, 53, 54
5, 1458, Control_c, 3, 64, 127
5, 1495, Note_off_c, 3, 65, 0
5, 1497, Note_off_c, 3, 60, 0
5, 1497, Note_off_c, 3, 53, 0
5, 1506, Note_off_c, 3, 57, 0
5, 1562, Note_on_c, 3, 57, 38
5, 1564, Note_on_c, 3, 60, 61
5, 1566, Note_on_c, 3, 65, 37
5, 1578, Note_off_c, 3, 65, 0
5, 1580, Note_off_c, 3, 60, 0
5, 1584, Note_off_c, 3, 57, 0
5, 1625, Note_on_c, 3, 57, 45
5, 1625, Note_on_c, 3, 65, 52
5, 1629, Note_on_c, 3, 60, 44
5, 1640, Note_off_c, 3, 57, 0
5, 1641, Note_off_c, 3, 65, 0
5, 1641, Note_off_c, 3, 60, 0
5, 1681, Note_on_c, 3, 57, 43
5, 1688, Note_on_c, 3, 53, 52
5, 1699, Note_off_c, 3, 53, 0
5, 1701, Note_off_c, 3, 57, 0
5, 1739, Note_on_c, 3, 57, 66
5, 1757, Note_off_c, 3, 57, 0
5, 1795, Note_on_c, 3, 57, 54
5, 1796, Note_on_c, 3, 65, 45
5, 1800, Note_on_c, 3, 60, 37
5, 1811, Note_off_c, 3, 65, 0
5, 1813, Note_off_c, 3, 57, 0
5, 1813, Note_off_c, 3, 60, 0
5, 1858, Note_on_c, 3, 57, 39
5, 1865, Note_on_c, 3, 53, 33
5, 1876, Note_off_c, 3, 53, 0
5, 1881, Note_off_c, 3, 57, 0
5, 1915, Note_on_c, 3, 57, 54
5, 1917, Note_on_c, 3, 60, 63
5, 1917, Note_on_c, 3, 65, 50
5, 1942, Note_off_c, 3, 57, 0
5, 1942, Note_off_c, 3, 60, 0
5, 1946, Note_off_c, 3, 65, 0
5, 1987, Note_on_c, 3, 57, 56
5, 1996, Note_off_c, 3, 57, 0
5, 2040, Note_on_c, 3, 57, 51
5, 2045, Note_on_c, 3, 60, 21
5, 2056, Note_off_c, 3, 57, 0
5, 2058, Note_off_c, 3, 60, 0
5, 2097, Note_on_c, 3, 57, 68
5, 2099, Note_on_c, 3, 65, 53
5, 2101, Note_on_c, 3, 60, 43
5, 2121, Note_off_c, 3, 60, 0
5, 2122, Note_off_c, 3, 57, 0
5, 2131, Note_off_c, 3, 65, 0
5, 2159, Note_on_c, 3, 57, 52
5, 2169, Note_on_c, 3, 53, 31
5, 2178, Note_off_c, 3, 57, 0
5, 2180, Note_off_c, 3, 53, 0
5, 2216, Note_on_c, 3, 57, 76
5, 2232, Note_off_c, 3, 57, 0
5, 2281, Note_on_c, 3, 57, 77
5, 2281, Note_on_c, 3, 65, 46
5, 2283, Note_on_c, 3, 60, 44
5, 2290, Note_on_c, 3, 53, 27
5, 2292, Note_off_c, 3, 57, 0
5, 2294, Note_off_c, 3, 60, 0
5, 2297, Note_off_c, 3, 65, 0
5, 2299, Note_off_c, 3, 53, 0
5, 2400, Control_c, 3, 64, 0
5, 2403, Note_on_c, 3, 53, 57
5, 2404, Note_on_c, 3, 50, 55
5, 2412, Control_c, 3, 64, 127
5, 2446, Note_off_c, 3, 53, 0
5, 2446, Note_off_c, 3, 50, 0
5, 2504, Note_on_c, 3, 53, 43
5, 2509, Note_on_c, 3, 58, 60
5, 2522, Note_on_c, 3, 62, 55
5, 2549, Note_off_c, 3, 53, 0
5, 2554, Note_off_c, 3, 58, 0
5, 2559, Note_off_c, 3, 62, 0
5, 2695, Note_on_c, 3, 58, 60
5, 2700, Note_on_c, 3, 50, 45
5, 2738, Note_off_c, 3, 58, 0
5, 2738, Note_off_c, 3, 50, 0
5, 2759, Note_on_c, 3, 53, 36
5, 2776, Note_off_c, 3, 53, 0
5, 2817, Note_on_c, 3, 50, 41
5, 2817, Note_on_c, 3, 62, 51
5, 2844, Note_off_c, 3, 62, 0
5, 2850, Note_off_c, 3, 50, 0
5, 2880, Control_c, 3, 64, 0
5, 2881, Note_on_c, 3, 50, 68
5, 2883, Note_on_c, 3, 53, 59
5, 2955, Note_off_c, 3, 53, 0
5, 2996, Note_on_c, 3, 57, 71
5, 2998, Note_on_c, 3, 62, 59
5, 3002, Note_on_c, 3, 53, 53
5, 3004, Control_c, 3, 64, 127
5, 3014, Note_off_c, 3, 50, 0
5, 3027, Note_off_c, 3, 53, 0
5, 3029, Note_off_c, 3, 62, 0
5, 3034, Note_off_c, 3, 57, 0
5, 3056, Note_on_c, 3, 57, 76
5, 3065, Note_on_c, 3, 53, 23
5, 3083, Note_off_c, 3, 53, 0
5, 3095, Note_off_c, 3, 57, 0
5, 3119, Note_on_c, 3, 50, 33
5, 3169, Note_off_c, 3, 50, 0
5, 3177, Note_on_c, 3, 62, 61
5, 3178, Note_on_c, 3, 57, 68
5, 3214, Note_off_c, 3, 62, 0
5, 3222, Note_off_c, 3, 57, 0
5, 3240, Note_on_c, 3, 53, 48
5, 3267, Note_off_c, 3, 53, 0
5, 3303, Note_on_c, 3, 53, 41
5, 3324, Note_off_c, 3, 53, 0
5, 3360, Control_c, 3, 64, 0
5, 3360, Note_on_c, 3, 58, 69
5, 3360, Note_on_c, 3, 63, 59
5, 3362, Note_on_c, 3, 51, 41
5, 3363, Note_on_c, 3, 55, 58
5, 3376, Control_c, 3, 64, 127
5, 3408, Note_off_c, 3, 55, 0
5, 3410, Note_off_c, 3, 63, 0
5, 3412, Note_off_c, 3, 51, 0
5, 3414, Note_off_c, 3, 58, 0
5, 3432, Note_on_c, 3, 51, 32
5, 3443, Note_off_c, 3, 51, 0
5, 3482, Note_on_c, 3, 58, 76
5, 3484, Note_on_c, 3, 51, 52
5, 3484, Note_on_c, 3, 55, 67
5, 3484, Note_on_c, 3, 63, 73
5, 3518, Note_off_c, 3, 51, 0
5, 3520, Note_off_c, 3, 55, 0
5, 3524, Note_off_c, 3, 58, 0
5, 3526, Note_off_c, 3, 63, 0
5, 3540, Note_on_c, 3, 51, 17
5, 3540, Note_on_c, 3, 55, 11
5, 3563, Note_off_c, 3, 51, 0
5, 3565, Note_off_c, 3, 55, 0
5, 3600, Control_c, 3, 64, 0
5, 3600, Control_c, 3, 64, 127
5, 3605, Note_on_c, 3, 51, 59
5, 3605, Note_on_c, 3, 53, 68
5, 3675, Note_off_c, 3, 53, 0
5, 3682, Note_off_c, 3, 51, 0
5, 3720, Note_on_c, 3, 51, 43
5, 3720, Note_on_c, 3, 57, 65
5, 3720, Note_on_c, 3, 60, 53
5, 3722, Note_on_c, 3, 53, 53
5, 3763, Note_off_c, 3, 53, 0
5, 3765, Note_off_c, 3, 51, 0
5, 3769, Note_off_c, 3, 57, 0
5, 3769, Note_off_c, 3, 60, 0
5, 3783, Note_on_c, 3, 53, 40
5, 3785, Note_on_c, 3, 51, 22
5, 3840, Note_off_c, 3, 53, 0
5, 3840, Note_off_c, 3, 51, 0
5, 3840, Control_c, 3, 64, 0
5, 3843, Note_on_c, 3, 53, 57
5, 3844, Note_on_c, 3, 50, 55
5, 3852, Control_c, 3, 64, 127
5, 3886, Note_off_c, 3, 53, 0
5, 3886, Note_off_c, 3, 50, 0
5, 3944, Note_on_c, 3, 53, 43
5, 3949, Note_on_c, 3, 58, 60
5, 3962, Note_on_c, 3, 62, 55
5, 3989, Note_off_c, 3, 53, 0
5, 3994, Note_off_c, 3, 58, 0
5, 3999, Note_off_c, 3, 62, 0
5, 4135, Note_on_c, 3, 58, 60
5, 4140, Note_on_c, 3, 50, 45
5, 4178, Note_off_c, 3, 58, 0
5, 4178, Note_off_c, 3, 50, 0
5, 4199, Note_on_c, 3, 53, 36
5, 4216, Note_off_c, 3, 53, 0
5, 4257, Note_on_c, 3, 50, 41
5, 4257, Note_on_c, 3, 62, 51
5, 4284, Note_off_c, 3, 62, 0
5, 4290, Note_off_c, 3, 50, 0
5, 4320, Control_c, 3, 64, 0
5, 4320, Note_on_c, 3, 58, 69
5, 4320, Note_on_c, 3, 60, 59
5, 4322, Note_on_c, 3, 51, 41
5, 4323, Note_on_c, 3, 55, 58
5, 4336, Control_c, 3, 64, 127
5, 4368, Note_off_c, 3, 55, 0
5, 4370, Note_off_c, 3, 60, 0
5, 4372, Note_off_c, 3, 51, 0
5, 4374, Note_off_c, 3, 58, 0
5, 4392, Note_on_c, 3, 51, 32
5, 4403, Note_off_c, 3, 51, 0
5, 4442, Note_on_c, 3, 58, 76
5, 4444, Note_on_c, 3, 51, 52
5, 4444, Note_on_c, 3, 55, 67
5, 4444, Note_on_c, 3, 60, 73
5, 4478, Note_off_c, 3, 51, 0
5, 4480, Note_off_c, 3, 55, 0
5, 4484, Note_off_c, 3, 58, 0
5, 4486, Note_off_c, 3, 60, 0
5, 4500, Note_on_c, 3, 51, 17
5, 4500, Note_on_c, 3, 55, 11
5, 4523, Note_off_c, 3, 51, 0
5, 4525, Note_off_c, 3, 55, 0
5, 4560, Control_c, 3, 64, 0
5, 4560, Note_on_c, 3, 58, 69
5, 4560, Note_on_c, 3, 63, 59
5, 4562, Note_on_c, 3, 51, 41
5, 4563, Note_on_c, 3, 54, 58
5, 4576, Control_c, 3, 64, 127
5, 4608, Note_off_c, 3, 54, 0
5, 4610, Note_off_c, 3, 63, 0
5, 4612, Note_off_c, 3, 51, 0
5, 4614, Note_off_c, 3, 58, 0
5, 4632, Note_on_c, 3, 51, 32
5, 4643, Note_off_c, 3, 51, 0
5, 4682, Note_on_c, 3, 58, 76
5, 4684, Note_on_c, 3, 51, 52
5, 4684, Note_on_c, 3, 54, 67
5, 4684, Note_on_c, 3, 63, 73
5, 4700, Note_off_c, 3, 51, 0
5, 4700, Note_off_c, 3, 54, 0
5, 4724, Note_off_c, 3, 58, 0
5, 4726, Note_off_c, 3, 63, 0
5, 4740, Control_c, 3, 64, 0
5, 4740, Note_on_c, 3, 58, 69
5, 4740, Note_on_c, 3, 62, 59
5, 4742, Note_on_c, 3, 50, 41
5, 4743, Note_on_c, 3, 53, 58
5, 4816, Control_c, 3, 64, 127
5, 4846, Note_off_c, 3, 53, 0
5, 4848, Note_off_c, 3, 62, 0
5, 4850, Note_off_c, 3, 50, 0
5, 4852, Note_off_c, 3, 58, 0
5, 4872, Note_on_c, 3, 50, 32
5, 4883, Note_off_c, 3, 50, 0
5, 4922, Note_on_c, 3, 58, 76
5, 4924, Note_on_c, 3, 50, 52
5, 4924, Note_on_c, 3, 53, 67
5, 4924, Note_on_c, 3, 62, 73
5, 4958, Note_off_c, 3, 50, 0
5, 4960, Note_off_c, 3, 53, 0
5, 4964, Note_off_c, 3, 58, 0
5, 4966, Note_off_c, 3, 62, 0
5, 4980, Note_on_c, 3, 50, 17
5, 4980, Note_on_c, 3, 53, 11
5, 5003, Note_off_c, 3, 50, 0
5, 5005, Note_off_c, 3, 53, 0
5, 5040, Control_c, 3, 64, 0
5, 5040, Note_on_c, 3, 46, 38
5, 5040, Note_on_c, 3, 55, 63
5, 5109, Note_off_c, 3, 46, 0
5, 5115, Note_off_c, 3, 55, 0
5, 5160, Note_on_c, 3, 53, 69
5, 5160, Note_on_c, 3, 55, 59
5, 5162, Note_on_c, 3, 46, 41
5, 5163, Note_on_c, 3, 50, 58
5, 5176, Control_c, 3, 64, 127
5, 5208, Note_off_c, 3, 50, 0
5, 5210, Note_off_c, 3, 55, 0
5, 5212, Note_off_c, 3, 46, 0
5, 5214, Note_off_c, 3, 53, 0
5, 5232, Note_on_c, 3, 46, 32
5, 5243, Note_off_c, 3, 46, 0
5, 5280, Control_c, 3, 64, 0
5, 5283, Note_on_c, 3, 55, 57
5, 5284, Note_on_c, 3, 52, 55
5, 5292, Control_c, 3, 64, 127
5, 5326, Note_off_c, 3, 55, 0
5, 5326, Note_off_c, 3, 52, 0
5, 5384, Note_on_c, 3, 55, 43
5, 5389, Note_on_c, 3, 58, 60
5, 5402, Note_on_c, 3, 60, 55
5, 5429, Note_off_c, 3, 55, 0
5, 5434, Note_off_c, 3, 58, 0
5, 5439, Note_off_c, 3, 60, 0
5, 5575, Note_on_c, 3, 58, 60
5, 5580, Note_on_c, 3, 52, 45
5, 5618, Note_off_c, 3, 58, 0
5, 5618, Note_off_c, 3, 52, 0
5, 5639, Note_on_c, 3, 55, 36
5, 5656, Note_off_c, 3, 55, 0
5, 5697, Note_on_c, 3, 52, 41
5, 5697, Note_on_c, 3, 60, 51
5, 5724, Note_off_c, 3, 60, 0
5, 5730, Note_off_c, 3, 52, 0
5, 5760, Control_c, 3, 64, 0
5, 5763, Note_on_c, 3, 53, 57
5, 5764, Note_on_c, 3, 51, 55
5, 5772, Control_c, 3, 64, 127
5, 5806, Note_off_c, 3, 53, 0
5, 5806, Note_off_c, 3, 51, 0
5, 5864, Note_on_c, 3, 53, 43
5, 5869, Note_on_c, 3, 57, 60
5, 5882, Note_on_c, 3, 60, 55
5, 5909, Note_off_c, 3, 53, 0
5, 5914, Note_off_c, 3, 57, 0
5, 5919, Note_off_c, 3, 60, 0
5, 6055, Note_on_c, 3, 57, 60
5, 6060, Note_on_c, 3, 51, 45
5, 6098, Note_off_c, 3, 57, 0
5, 6098, Note_off_c, 3, 51, 0
5, 6119, Note_on_c, 3, 53, 36
5, 6136, Note_off_c, 3, 53, 0
5, 6177, Note_on_c, 3, 51, 41
5, 6177, Note_on_c, 3, 60, 51
5, 6204, Note_off_c, 3, 60, 0
5, 6210, Note_off_c, 3, 51, 0
5, 6240, Control_c, 3, 64, 0
5, 6240, Note_on_c, 3, 58, 65
5, 6241, Note_on_c, 3, 53, 53
5, 6243, Note_on_c, 3, 50, 45
5, 6281, Control_c, 3, 64, 127
5, 6321, Note_off_c, 3, 58, 0
5, 6321, Note_off_c, 3, 50, 0
5, 6322, Note_off_c, 3, 53, 0
5, 6364, Note_on_c, 3, 58, 56
5, 6411, Note_off_c, 3, 58, 0
5, 6427, Note_on_c, 3, 50, 43
5, 6445, Note_off_c, 3, 50, 0
5, 6483, Note_on_c, 3, 58, 46
5, 6485, Note_on_c, 3, 53, 44
5, 6517, Note_off_c, 3, 53, 0
5, 6519, Note_off_c, 3, 58, 0
5, 6542, Note_on_c, 3, 58, 51
5, 6625, Note_off_c, 3, 58, 0
5, 6720, Control_c, 3, 64, 0
5, 6720, Note_on_c, 3, 57, 65
5, 6721, Note_on_c, 3, 53, 53
5, 6723, Note_on_c, 3, 50, 45
5, 6761, Control_c, 3, 64, 127
5, 6801, Note_off_c, 3, 57, 0
5, 6801, Note_off_c, 3, 50, 0
5, 6802, Note_off_c, 3, 53, 0
5, 6844, Note_on_c, 3, 57, 56
5, 6891, Note_off_c, 3, 57, 0
5, 6907, Note_on_c, 3, 50, 43
5, 6925, Note_off_c, 3, 50, 0
5, 6963, Note_on_c, 3, 57, 46
5, 6965, Note_on_c, 3, 53, 44
5, 6997, Note_off_c, 3, 53, 0
5, 6999, Note_off_c, 3, 57, 0
5, 7022, Note_on_c, 3, 57, 51
5, 7105, Note_off_c, 3, 57, 0
5, 7200, Control_c, 3, 64, 0
5, 7200, Note_on_c, 3, 58, 55
5, 7200, Note_on_c, 3, 63, 45
5, 7203, Note_on_c, 3, 55, 44
5, 7216, Control_c, 3, 64, 127
5, 7248, Note_off_c, 3, 55, 0
5, 7250, Note_off_c, 3, 63, 0
5, 7254, Note_off_c, 3, 58, 0
5, 7322, Note_on_c, 3, 58, 62
5, 7324, Note_on_c, 3, 51, 38
5, 7324, Note_on_c, 3, 55, 53
5, 7324, Note_on_c, 3, 63, 59
5, 7358, Note_off_c, 3, 51, 0
5, 7360, Note_off_c, 3, 55, 0
5, 7364, Note_off_c, 3, 58, 0
5, 7366, Note_off_c, 3, 63, 0
5, 7440, Control_c, 3, 64, 0
5, 7440, Note_on_c, 3, 53, 56
5, 7443, Control_c, 3, 64, 127
5, 7446, Note_on_c, 3, 51, 33
5, 7502, Note_on_c, 3, 60, 50
5, 7504, Note_on_c, 3, 57, 64
5, 7580, Note_off_c, 3, 51, 0
5, 7582, Note_off_c, 3, 53, 0
5, 7587, Note_off_c, 3, 60, 0
5, 7591, Note_off_c, 3, 57, 0
5, 7623, Note_on_c, 3, 53, 53
5, 7625, Note_on_c, 3, 51, 48
5, 7655, Note_off_c, 3, 51, 0
5, 7663, Note_off_c, 3, 53, 0
5, 7680, Control_c, 3, 64, 0
5, 7680, Note_on_c, 3, 53, 70
5, 7681, Note_on_c, 3, 62, 58
5, 7683, Note_on_c, 3, 58, 64
5, 7685, Note_on_c, 3, 50, 54
5, 7698, Control_c, 3, 64, 127
5, 7735, Note_off_c, 3, 62, 0
5, 7737, Note_off_c, 3, 58, 0
5, 7737, Note_off_c, 3, 50, 0
5, 7746, Note_off_c, 3, 53, 0
5, 7802, Note_on_c, 3, 53, 38
5, 7804, Note_on_c, 3, 58, 61
5, 7806, Note_on_c, 3, 62, 37
5, 7818, Note_off_c, 3, 62, 0
5, 7820, Note_off_c, 3, 58, 0
5, 7824, Note_off_c, 3, 53, 0
5, 7865, Note_on_c, 3, 53, 45
5, 7865, Note_on_c, 3, 62, 52
5, 7869, Note_on_c, 3, 58, 44
5, 7880, Note_off_c, 3, 53, 0
5, 7881, Note_off_c, 3, 62, 0
5, 7881, Note_off_c, 3, 58, 0
5, 7921, Note_on_c, 3, 53, 43
5, 7928, Note_on_c, 3, 50, 52
5, 7939, Note_off_c, 3, 50, 0
5, 7941, Note_off_c, 3, 53, 0
5, 7979, Note_on_c, 3, 53, 66
5, 7997, Note_off_c, 3, 53, 0
5, 8035, Note_on_c, 3, 53, 54
5, 8036, Note_on_c, 3, 62, 45
5, 8040, Note_on_c, 3, 58, 37
5, 8051, Note_off_c, 3, 62, 0
5, 8053, Note_off_c, 3, 53, 0
5, 8053, Note_off_c, 3, 58, 0
5, 8098, Note_on_c, 3, 53, 39
5, 8105, Note_on_c, 3, 50, 33
5, 8116, Note_off_c, 3, 50, 0
5, 8121, Note_off_c, 3, 53, 0
5, 8160, Control_c, 3, 64, 0
5, 8160, Note_on_c, 3, 58, 55
5, 8160, Note_on_c, 3, 60, 45
5, 8163, Note_on_c, 3, 55, 44
5, 8176, Control_c, 3, 64, 127
5, 8208, Note_off_c, 3, 55, 0
5, 8210, Note_off_c, 3, 60, 0
5, 8214, Note_off_c, 3, 58, 0
5, 8282, Note_on_c, 3, 58, 62
5, 8284, Note_on_c, 3, 51, 38
5, 8284, Note_on_c, 3, 55, 53
5, 8284, Note_on_c, 3, 60, 59
5, 8318, Note_off_c, 3, 51, 0
5, 8320, Note_off_c, 3, 55, 0
5, 8324, Note_off_c, 3, 58, 0
5, 8326, Note_off_c, 3, 60, 0
5, 8400, Control_c, 3, 64, 0
5, 8400, Note_on_c, 3, 58, 69
5, 8400, Note_on_c, 3, 63, 59
5, 8402, Note_on_c, 3, 51, 41
5, 8403, Note_on_c, 3, 54, 58
5, 8416, Control_c, 3, 64, 127
5, 8448, Note_off_c, 3, 54, 0
5, 8450, Note_off_c, 3, 63, 0
5, 8452, Note_off_c, 3, 51, 0
5, 8454, Note_off_c, 3, 58, 0
5, 8472, Note_on_c, 3, 51, 32
5, 8483, Note_off_c, 3, 51, 0
5, 8522, Note_on_c, 3, 58, 76
5, 8524, Note_on_c, 3, 51, 52
5, 8524, Note_on_c, 3, 54, 67
5, 8524, Note_on_c, 3, 63, 73
5, 8558, Note_off_c, 3, 51, 0
5, 8560, Note_off_c, 3, 54, 0
5, 8564, Note_off_c, 3, 58, 0
5, 8566, Note_off_c, 3, 63, 0
5, 8580, Note_on_c, 3, 51, 17
5, 8580, Note_on_c, 3, 54, 11
5, 8603, Note_off_c, 3, 51, 0
5, 8605, Note_off_c, 3, 54, 0
5, 8640, Control_c, 3, 64, 0
5, 8640, Control_c, 3, 64, 127
5, 8645, Note_on_c, 3, 50, 59
5, 8645, Note_on_c, 3, 53, 68
5, 8715, Note_off_c, 3, 53, 0
5, 8722, Note_off_c, 3, 50, 0
5, 8760, Note_on_c, 3, 50, 43
5, 8760, Note_on_c, 3, 58, 65
5, 8760, Note_on_c, 3, 62, 53
5, 8762, Note_on_c, 3, 53, 53
5, 8803, Note_off_c, 3, 53, 0
5, 8805, Note_off_c, 3, 50, 0
5, 8809, Note_off_c, 3, 58, 0
5, 8809, Note_off_c, 3, 62, 0
5, 8823, Note_on_c, 3, 53, 40
5, 8825, Note_on_c, 3, 50, 22
5, 8880, Note_off_c, 3, 53, 0
5, 8880, Note_off_c, 3, 50, 0
5, 8880, Control_c, 3, 64, 0
5, 8880, Note_on_c, 3, 46, 38
5, 8880, Note_on_c, 3, 55, 63
5, 8949, Note_off_c, 3, 46, 0
5, 8955, Note_off_c, 3, 55, 0
5, 9000, Note_on_c, 3, 46, 38
5, 9000, Note_on_c, 3, 53, 63
5, 9069, Note_off_c, 3, 46, 0
5, 9075, Note_off_c, 3, 53, 0
5, 9120, Note_on_c, 3, 58, 55
5, 9120, Note_on_c, 3, 60, 45
5, 9123, Note_on_c, 3, 55, 44
5, 9136, Control_c, 3, 64, 127
5, 9168, Note_off_c, 3, 55, 0
5, 9170, Note_off_c, 3, 60, 0
5, 9174, Note_off_c, 3, 58, 0
5, 9242, Note_on_c, 3, 58, 62
5, 9244, Note_on_c, 3, 52, 38
5, 9244, Note_on_c, 3, 55, 53
5, 9244, Note_on_c, 3, 60, 59
5, 9278, Note_off_c, 3, 52, 0
5, 9280, Note_off_c, 3, 55, 0
5, 9284, Note_off_c, 3, 58, 0
5, 9286, Note_off_c, 3, 60, 0
5, 9360, Control_c, 3, 64, 0
5, 9360, Note_on_c, 3, 53, 56
5, 9363, Control_c, 3, 64, 127
5, 9366, Note_on_c, 3, 51, 33
5, 9422, Note_on_c, 3, 60, 50
5, 9424, Note_on_c, 3, 57, 64
5, 9500, Note_off_c, 3, 51, 0
5, 9502, Note_off_c, 3, 53, 0
5, 9507, Note_off_c, 3, 60, 0
5, 9511, Note_off_c, 3, 57, 0
5, 9543, Note_on_c, 3, 53, 53
5, 9545, Note_on_c, 3, 51, 48
5, 9575, Note_off_c, 3, 51, 0
5, 9583, Note_off_c, 3, 53, 0
5, 9600, Control_c, 3, 64, 0
5, 9601, Note_on_c, 3, 50, 68
5, 9603, Note_on_c, 3, 53, 59
5, 9675, Note_off_c, 3, 53, 0
5, 9716, Note_on_c, 3, 58, 71
5, 9718, Note_on_c, 3, 62, 59
5, 9722, Note_on_c, 3, 53, 53
5, 9724, Control_c, 3, 64, 127
5, 9734, Note_off_c, 3, 50, 0
5, 9747, Note_off_c, 3, 53, 0
5, 9749, Note_off_c, 3, 62, 0
5, 9754, Note_off_c, 3, 58, 0
5, 9776, Note_on_c, 3, 58, 76
5, 9785, Note_on_c, 3, 53, 23
5, 9803, Note_off_c, 3, 53, 0
5, 9815, Note_off_c, 3, 58, 0
5, 9839, Note_on_c, 3, 50, 33
5, 9889, Note_off_c, 3, 50, 0
5, 9897, Note_on_c, 3, 62, 61
5, 9898, Note_on_c, 3, 58, 68
5, 9934, Note_off_c, 3, 62, 0
5, 9942, Note_off_c, 3, 58, 0
5, 9960, Note_on_c, 3, 53, 48
5, 9987, Note_off_c, 3, 53, 0
5, 10023, Note_on_c, 3, 53, 41
5, 10044, Note_off_c, 3, 53, 0
5, 10080, Control_c, 3, 64, 0
5, 10080, Note_on_c, 3, 51, 44
5, 10080, Note_on_c, 3, 58, 65
5, 10080, Note_on_c, 3, 63, 67
5, 10081, Note_on_c, 3, 55, 60
5, 10092, Control_c, 3, 64, 127
5, 10142, Note_off_c, 3, 55, 0
5, 10146, Note_off_c, 3, 63, 0
5, 10149, Note_off_c, 3, 51, 0
5, 10155, Note_off_c, 3, 58, 0
5, 10200, Note_on_c, 3, 58, 65
5, 10200, Note_on_c, 3, 63, 69
5, 10203, Note_on_c, 3, 51, 44
5, 10205, Note_on_c, 3, 55, 56
5, 10234, Note_off_c, 3, 63, 0
5, 10234, Note_off_c, 3, 55, 0
5, 10236, Note_off_c, 3, 51, 0
5, 10238, Note_off_c, 3, 58, 0
5, 10266, Note_on_c, 3, 51, 49
5, 10277, Note_off_c, 3, 51, 0
5, 10277, Note_on_c, 3, 55, 14
5, 10293, Note_off_c, 3, 55, 0
5, 10317, Note_on_c, 3, 63, 67
5, 10319, Note_on_c, 3, 51, 32
5, 10319, Note_on_c, 3, 55, 44
5, 10319, Note_on_c, 3, 58, 57
5, 10346, Note_off_c, 3, 63, 0
5, 10346, Note_off_c, 3, 55, 0
5, 10348, Note_off_c, 3, 51, 0
5, 10348, Note_off_c, 3, 58, 0
5, 10378, Note_on_c, 3, 63, 58
5, 10380, Note_on_c, 3, 58, 56
5, 10382, Note_on_c, 3, 55, 55
5, 10384, Note_on_c, 3, 51, 40
5, 10459, Note_off_c, 3, 58, 0
5, 10459, Note_off_c, 3, 51, 0
5, 10463, Note_off_c, 3, 63, 0
5, 10474, Note_off_c, 3, 55, 0
5, 10499, Note_on_c, 3, 63, 49
5, 10500, Note_on_c, 3, 58, 64
5, 10502, Note_on_c, 3, 55, 37
5, 10504, Note_on_c, 3, 51, 25
5, 10569, Note_off_c, 3, 55, 0
5, 10578, Note_off_c, 3, 58, 0
5, 10580, Note_off_c, 3, 63, 0
5, 10598, Note_off_c, 3, 51, 0
5, 10623, Note_on_c, 3, 55, 39
5, 10641, Note_off_c, 3, 55, 0
5, 10675, Note_on_c, 3, 63, 71
5, 10679, Note_on_c, 3, 58, 72
5, 10681, Note_on_c, 3, 55, 64
5, 10684, Note_on_c, 3, 51, 24
5, 10717, Note_off_c, 3, 55, 0
5, 10721, Note_off_c, 3, 58, 0
5, 10721, Note_off_c, 3, 51, 0
5, 10722, Note_off_c, 3, 63, 0
5, 10739, Note_on_c, 3, 51, 26
5, 10746, Note_on_c, 3, 55, 33
5, 10753, Note_off_c, 3, 51, 0
5, 10762, Note_off_c, 3, 55, 0
5, 10800, Note_on_c, 3, 55, 58
5, 10800, Note_on_c, 3, 58, 66
5, 10803, Note_on_c, 3, 51, 42
5, 10805, Note_on_c, 3, 63, 44
5, 10816, Note_off_c, 3, 63, 0
5, 10820, Note_off_c, 3, 51, 0
5, 10825, Note_off_c, 3, 55, 0
5, 10826, Note_off_c, 3, 58, 0
5, 10857, Note_on_c, 3, 63, 62
5, 10859, Note_on_c, 3, 55, 53
5, 10859, Note_on_c, 3, 58, 62
5, 10863, Note_on_c, 3, 51, 40
5, 10901, Note_off_c, 3, 55, 0
5, 10906, Note_off_c, 3, 58, 0
5, 10906, Note_off_c, 3, 51, 0
5, 10910, Note_off_c, 3, 63, 0
5, 10921, Note_on_c, 3, 51, 42
5, 10921, Note_on_c, 3, 55, 56
5, 10931, Note_off_c, 3, 51, 0
5, 10940, Note_off_c, 3, 55, 0
5, 10980, Control_c, 3, 64, 0
5, 10983, Note_on_c, 3, 46, 54
5, 10983, Note_on_c, 3, 50, 45
5, 10983, Note_on_c, 3, 53, 60
5, 10983, Note_on_c, 3, 58, 66
5, 11061, Control_c, 3, 64, 127
5, 11104, Note_off_c, 3, 50, 0
5, 11106, Note_off_c, 3, 58, 0
5, 11115, Note_off_c, 3, 53, 0
5, 11156, Note_on_c, 3, 53, 66
5, 11158, Note_on_c, 3, 58, 63
5, 11163, Note_off_c, 3, 46, 0
5, 11172, Note_off_c, 3, 58, 0
5, 11174, Note_off_c, 3, 53, 0
5, 11221, Note_on_c, 3, 53, 59
5, 11221, Note_on_c, 3, 58, 78
5, 11232, Note_off_c, 3, 53, 0
5, 11232, Note_off_c, 3, 58, 0
5, 11282, Note_on_c, 3, 50, 44
5, 11282, Note_on_c, 3, 53, 34
5, 11297, Note_off_c, 3, 53, 0
5, 11333, Note_off_c, 3, 50, 0
5, 11340, Note_on_c, 3, 53, 53
5, 11342, Note_on_c, 3, 58, 69
5, 11354, Note_off_c, 3, 53, 0
5, 11365, Note_off_c, 3, 58, 0
5, 11401, Note_on_c, 3, 53, 50
5, 11408, Note_on_c, 3, 50, 27
5, 11410, Note_off_c, 3, 53, 0
5, 11419, Note_off_c, 3, 50, 0
5, 11457, Note_on_c, 3, 53, 48
5, 11459, Note_on_c, 3, 58, 68
5, 11486, Note_off_c, 3, 53, 0
5, 11488, Note_off_c, 3, 58, 0
5, 11522, Note_on_c, 3, 46, 47
5, 11572, Note_off_c, 3, 46, 0
5, 11635, Note_on_c, 3, 58, 65
5, 11637, Note_on_c, 3, 53, 39
5, 11652, Note_off_c, 3, 58, 0
5, 11655, Note_off_c, 3, 53, 0
5, 11702, Note_on_c, 3, 58, 61
5, 11704, Note_on_c, 3, 53, 39
5, 11715, Note_off_c, 3, 58, 0
5, 11717, Note_off_c, 3, 53, 0
5, 11763, Note_on_c, 3, 53, 37
5, 11769, Note_on_c, 3, 50, 39
5, 11774, Note_off_c, 3, 53, 0
5, 11816, Note_off_c, 3, 50, 0
5, 11817, Note_on_c, 3, 53, 63
5, 11819, Note_on_c, 3, 58, 38
5, 11841, Note_off_c, 3, 53, 0
5, 11855, Note_off_c, 3, 58, 0
5, 11886, Note_on_c, 3, 53, 42
5, 11891, Note_on_c, 3, 50, 45
5, 11897, Note_off_c, 3, 53, 0
5, 11906, Note_off_c, 3, 50, 0
5, 11940, Note_on_c, 3, 58, 44
5, 11944, Note_on_c, 3, 53, 34
5, 11956, Note_off_c, 3, 58, 0
5, 11958, Note_off_c, 3, 53, 0
5, 12000, Control_c, 3, 64, 0
5, 12001, Note_on_c, 3, 46, 68
5, 12003, Note_on_c, 3, 50, 59
5, 12075, Note_off_c, 3, 50, 0
5, 12116, Note_on_c, 3, 55, 71
5, 12118, Note_on_c, 3, 58, 59
5, 12122, Note_on_c, 3, 50, 53
5, 12124, Control_c, 3, 64, 127
5, 12134, Note_off_c, 3, 46, 0
5, 12147, Note_off_c, 3, 50, 0
5, 12149, Note_off_c, 3, 58, 0
5, 12154, Note_off_c, 3, 55, 0
5, 12176, Note_on_c, 3, 55, 76
5, 12185, Note_on_c, 3, 50, 23
5, 12203, Note_off_c, 3, 50, 0
5, 12215, Note_off_c, 3, 55, 0
5, 12239, Note_on_c, 3, 46, 33
5, 12289, Note_off_c, 3, 46, 0
5, 12297, Note_on_c, 3, 58, 61
5, 12298, Note_on_c, 3, 55, 68
5, 12334, Note_off_c, 3, 58, 0
5, 12342, Note_off_c, 3, 55, 0
5, 12360, Note_on_c, 3, 50, 48
5, 12380, Note_off_c, 3, 50, 0
5, 12420, Control_c, 3, 64, 0
5, 12425, Note_on_c, 3, 58, 73
5, 12490, Note_on_c, 3, 52, 44
5, 12490, Note_on_c, 3, 55, 58
5, 12490, Note_on_c, 3, 60, 55
5, 12514, Control_c, 3, 64, 127
5, 12543, Note_off_c, 3, 55, 0
5, 12546, Note_off_c, 3, 58, 0
5, 12548, Note_off_c, 3, 60, 0
5, 12555, Note_off_c, 3, 52, 0
5, 12606, Note_on_c, 3, 58, 71
5, 12606, Note_on_c, 3, 60, 63
5, 12608, Note_on_c, 3, 52, 43
5, 12609, Note_on_c, 3, 55, 55
5, 12624, Note_off_c, 3, 55, 0
5, 12645, Note_off_c, 3, 58, 0
5, 12645, Note_off_c, 3, 60, 0
5, 12645, Note_off_c, 3, 52, 0
5, 12669, Note_on_c, 3, 52, 33
5, 12676, Note_on_c, 3, 55, 29
5, 12681, Note_off_c, 3, 52, 0
5, 12687, Note_off_c, 3, 55, 0
5, 12719, Note_on_c, 3, 60, 48
5, 12721, Note_on_c, 3, 52, 32
5, 12723, Note_on_c, 3, 58, 52
5, 12725, Note_on_c, 3, 55, 43
5, 12735, Note_off_c, 3, 55, 0
5, 12741, Note_off_c, 3, 52, 0
5, 12741, Note_off_c, 3, 58, 0
5, 12746, Note_off_c, 3, 60, 0
5, 12781, Note_on_c, 3, 58, 64
5, 12781, Note_on_c, 3, 60, 63
5, 12782, Note_on_c, 3, 52, 45
5, 12782, Note_on_c, 3, 55, 58
5, 12844, Note_off_c, 3, 55, 0
5, 12851, Note_off_c, 3, 58, 0
5, 12856, Note_off_c, 3, 60, 0
5, 12860, Note_off_c, 3, 52, 0
5, 12905, Note_on_c, 3, 55, 38
5, 12910, Note_on_c, 3, 52, 34
5, 12921, Note_off_c, 3, 55, 0
5, 12921, Note_off_c, 3, 52, 0
5, 12960, Control_c, 3, 64, 0
5, 12960, Note_on_c, 3, 55, 70
5, 12961, Note_on_c, 3, 60, 58
5, 12963, Note_on_c, 3, 58, 64
5, 12965, Note_on_c, 3, 51, 54
5, 12978, Control_c, 3, 64, 127
5, 13015, Note_off_c, 3, 60, 0
5, 13017, Note_off_c, 3, 58, 0
5, 13017, Note_off_c, 3, 51, 0
5, 13026, Note_off_c, 3, 55, 0
5, 13082, Note_on_c, 3, 55, 38
5, 13084, Note_on_c, 3, 58, 61
5, 13086, Note_on_c, 3, 60, 37
5, 13098, Note_off_c, 3, 60, 0
5, 13100, Note_off_c, 3, 58, 0
5, 13104, Note_off_c, 3, 55, 0
5, 13145, Note_on_c, 3, 55, 45
5, 13145, Note_on_c, 3, 60, 52
5, 13149, Note_on_c, 3, 58, 44
5, 13160, Note_off_c, 3, 55, 0
5, 13161, Note_off_c, 3, 60, 0
5, 13161, Note_off_c, 3, 58, 0
5, 13201, Note_on_c, 3, 55, 43
5, 13208, Note_on_c, 3, 51, 52
5, 13219, Note_off_c, 3, 51, 0
5, 13221, Note_off_c, 3, 55, 0
5, 13259, Note_on_c, 3, 55, 66
5, 13277, Note_off_c, 3, 55, 0
5, 13315, Note_on_c, 3, 55, 54
5, 13316, Note_on_c, 3, 60, 45
5, 13320, Note_on_c, 3, 58, 37
5, 13331, Note_off_c, 3, 60, 0
5, 13333, Note_off_c, 3, 55, 0
5, 13333, Note_off_c, 3, 58, 0
5, 13378, Note_on_c, 3, 55, 39
5, 13385, Note_on_c, 3, 51, 33
5, 13396, Note_off_c, 3, 51, 0
5, 13401, Note_off_c, 3, 55, 0
5, 13440, Control_c, 3, 64, 0
5, 13440, Note_on_c, 3, 57, 69
5, 13440, Note_on_c, 3, 60, 59
5, 13442, Note_on_c, 3, 51, 41
5, 13443, Note_on_c, 3, 53, 58
5, 13456, Control_c, 3, 64, 127
5, 13488, Note_off_c, 3, 53, 0
5, 13490, Note_off_c, 3, 60, 0
5, 13492, Note_off_c, 3, 51, 0
5, 13494, Note_off_c, 3, 57, 0
5, 13512, Note_on_c, 3, 51, 32
5, 13523, Note_off_c, 3, 51, 0
5, 13562, Note_on_c, 3, 57, 76
5, 13564, Note_on_c, 3, 51, 52
5, 13564, Note_on_c, 3, 53, 67
5, 13564, Note_on_c, 3, 60, 73
5, 13598, Note_off_c, 3, 51, 0
5, 13600, Note_off_c, 3, 53, 0
5, 13604, Note_off_c, 3, 57, 0
5, 13606, Note_off_c, 3, 60, 0
5, 13620, Note_on_c, 3, 51, 17
5, 13620, Note_on_c, 3, 53, 11
5, 13643, Note_off_c, 3, 51, 0
5, 13645, Note_off_c, 3, 53, 0
5, 13680, Control_c, 3, 64, 0
5, 13680, Control_c, 3, 64, 127
5, 13680, Control_c, 3, 64, 0
5, 13681, Note_on_c, 3, 57, 59
5, 13698, Control_c, 3, 64, 127
5, 13773, Note_off_c, 3, 57, 0
5, 13800, Note_on_c, 3, 54, 57
5, 13802, Note_on_c, 3, 51, 44
5, 13849, Note_off_c, 3, 54, 0
5, 13860, Note_off_c, 3, 51, 0
5, 13863, Note_on_c, 3, 57, 41
5, 13892, Note_off_c, 3, 57, 0
5, 13920, Control_c, 3, 64, 0
5, 13925, Note_on_c, 3, 58, 73
5, 13930, Note_on_c, 3, 50, 44
5, 13930, Note_on_c, 3, 53, 58
5, 13930, Note_on_c, 3, 62, 55
5, 13954, Control_c, 3, 64, 127
5, 13983, Note_off_c, 3, 53, 0
5, 13988, Note_off_c, 3, 58, 0
5, 13988, Note_off_c, 3, 62, 0
5, 13995, Note_off_c, 3, 50, 0
5, 14046, Note_on_c, 3, 58, 71
5, 14046, Note_on_c, 3, 62, 63
5, 14048, Note_on_c, 3, 50, 43
5, 14049, Note_on_c, 3, 53, 55
5, 14064, Note_off_c, 3, 53, 0
5, 14085, Note_off_c, 3, 58, 0
5, 14085, Note_off_c, 3, 62, 0
5, 14085, Note_off_c, 3, 50, 0
5, 14109, Note_on_c, 3, 50, 33
5, 14116, Note_on_c, 3, 53, 29
5, 14121, Note_off_c, 3, 50, 0
5, 14127, Note_off_c, 3, 53, 0
5, 14159, Note_on_c, 3, 62, 48
5, 14161, Note_on_c, 3, 50, 32
5, 14163, Note_on_c, 3, 58, 52
5, 14165, Note_on_c, 3, 53, 43
5, 14175, Note_off_c, 3, 53, 0
5, 14181, Note_off_c, 3, 50, 0
5, 14181, Note_off_c, 3, 58, 0
5, 14186, Note_off_c, 3, 62, 0
5, 14221, Note_on_c, 3, 58, 64
5, 14221, Note_on_c, 3, 62, 63
5, 14222, Note_on_c, 3, 50, 45
5, 14222, Note_on_c, 3, 53, 58
5, 14284, Note_off_c, 3, 53, 0
5, 14291, Note_off_c, 3, 58, 0
5, 14296, Note_off_c, 3, 62, 0
5, 14300, Note_off_c, 3, 50, 0
5, 14345, Note_on_c, 3, 53, 38
5, 14350, Note_on_c, 3, 50, 34
5, 14361, Note_off_c, 3, 53, 0
5, 14361, Note_off_c, 3, 50, 0
5, 14400, Control_c, 3, 64, 0
5, 14400, Note_on_c, 3, 57, 65
5, 14401, Note_on_c, 3, 53, 53
5, 14403, Note_on_c, 3, 50, 45
5, 14441, Control_c, 3, 64, 127
5, 14481, Note_off_c, 3, 57, 0
5, 14481, Note_off_c, 3, 50, 0
5, 14482, Note_off_c, 3, 53, 0
5, 14524, Note_on_c, 3, 57, 56
5, 14571, Note_off_c, 3, 57, 0
5, 14587, Note_on_c, 3, 50, 43
5, 14605, Note_off_c, 3, 50, 0
5, 14643, Note_on_c, 3, 57, 46
5, 14645, Note_on_c, 3, 53, 44
5, 14677, Note_off_c, 3, 53, 0
5, 14679, Note_off_c, 3, 57, 0
5, 14702, Note_on_c, 3, 57, 51
5, 14785, Note_off_c, 3, 57, 0
5, 14880, Control_c, 3, 64, 0
5, 14880, Note_on_c, 3, 58, 65
5, 14881, Note_on_c, 3, 55, 53
5, 14883, Note_on_c, 3, 51, 45
5, 14921, Control_c, 3, 64, 127
5, 14961, Note_off_c, 3, 58, 0
5, 14961, Note_off_c, 3, 51, 0
5, 14962, Note_off_c, 3, 55, 0
5, 15004, Note_on_c, 3, 58, 56
5, 15051, Note_off_c, 3, 58, 0
5, 15067, Note_on_c, 3, 51, 43
5, 15085, Note_off_c, 3, 51, 0
5, 15123, Note_on_c, 3, 58, 46
5, 15125, Note_on_c, 3, 55, 44
5, 15157, Note_off_c, 3, 55, 0
5, 15159, Note_off_c, 3, 58, 0
5, 15182, Note_on_c, 3, 58, 51
5, 15265, Note_off_c, 3, 58, 0
5, 15360, Control_c, 3, 64, 0
5, 15361, Note_on_c, 3, 50, 68
5, 15363, Note_on_c, 3, 53, 59
5, 15435, Note_off_c, 3, 53, 0
5, 15476, Note_on_c, 3, 58, 71
5, 15478, Note_on_c, 3, 62, 59
5, 15482, Note_on_c, 3, 53, 53
5, 15484, Control_c, 3, 64, 127
5, 15494, Note_off_c, 3, 50, 0
5, 15507, Note_off_c, 3, 53, 0
5, 15509, Note_off_c, 3, 62, 0
5, 15514, Note_off_c, 3, 58, 0
5, 15536, Note_on_c, 3, 58, 76
5, 15545, Note_on_c, 3, 53, 23
5, 15563, Note_off_c, 3, 53, 0
5, 15575, Note_off_c, 3, 58, 0
5, 15599, Note_on_c, 3, 50, 33
5, 15649, Note_off_c, 3, 50, 0
5, 15657, Note_on_c, 3, 62, 61
5, 15658, Note_on_c, 3, 58, 68
5, 15694, Note_off_c, 3, 62, 0
5, 15702, Note_off_c, 3, 58, 0
5, 15720, Note_on_c, 3, 53, 48
5, 15747, Note_off_c, 3, 53, 0
5, 15783, Note_on_c, 3, 53, 41
5, 15804, Note_off_c, 3, 53, 0
5, 15840, Control_c, 3, 64, 0
5, 15840, Control_c, 3, 64, 127
5, 15845, Note_on_c, 3, 51, 59
5, 15845, Note_on_c, 3, 55, 68
5, 15915, Note_off_c, 3, 55, 0
5, 15922, Note_off_c, 3, 51, 0
5, 15960, Note_on_c, 3, 51, 43
5, 15960, Note_on_c, 3, 58, 65
5, 15960, Note_on_c, 3, 60, 53
5, 15962, Note_on_c, 3, 55, 53
5, 16003, Note_off_c, 3, 55, 0
5, 16005, Note_off_c, 3, 51, 0
5, 16009, Note_off_c, 3, 58, 0
5, 16009, Note_off_c, 3, 60, 0
5, 16023, Note_on_c, 3, 55, 40
5, 16025, Note_on_c, 3, 51, 22
5, 16080, Note_off_c, 3, 55, 0
5, 16080, Note_off_c, 3, 51, 0
5, 16080, Control_c, 3, 64, 0
5, 16080, Note_on_c, 3, 54, 56
5, 16083, Control_c, 3, 64, 127
5, 16086, Note_on_c, 3, 51, 33
5, 16142, Note_on_c, 3, 63, 50
5, 16144, Note_on_c, 3, 58, 64
5, 16220, Note_off_c, 3, 51, 0
5, 16222, Note_off_c, 3, 54, 0
5, 16227, Note_off_c, 3, 63, 0
5, 16231, Note_off_c, 3, 58, 0
5, 16263, Note_on_c, 3, 54, 53
5, 16265, Note_on_c, 3, 51, 48
5, 16295, Note_off_c, 3, 51, 0
5, 16303, Note_off_c, 3, 54, 0
5, 16320, Control_c, 3, 64, 0
5, 16320, Note_on_c, 3, 58, 69
5, 16320, Note_on_c, 3, 62, 59
5, 16322, Note_on_c, 3, 50, 41
5, 16323, Note_on_c, 3, 53, 58
5, 16336, Control_c, 3, 64, 127
5, 16368, Note_off_c, 3, 53, 0
5, 16370, Note_off_c, 3, 62, 0
5, 16372, Note_off_c, 3, 50, 0
5, 16374, Note_off_c, 3, 58, 0
5, 16392, Note_on_c, 3, 50, 32
5, 16403, Note_off_c, 3, 50, 0
5, 16442, Note_on_c, 3, 58, 76
5, 16444, Note_on_c, 3, 50, 52
5, 16444, Note_on_c, 3, 53, 67
5, 16444, Note_on_c, 3, 62, 73
5, 16478, Note_off_c, 3, 50, 0
5, 16480, Note_off_c, 3, 53, 0
5, 16484, Note_off_c, 3, 58, 0
5, 16486, Note_off_c, 3, 62, 0
5, 16500, Note_on_c, 3, 50, 17
5, 16500, Note_on_c, 3, 53, 11
5, 16523, Note_off_c, 3, 50, 0
5, 16525, Note_off_c, 3, 53, 0
5, 16560, Control_c, 3, 64, 0
5, 16560, Note_on_c, 3, 46, 38
5, 16560, Note_on_c, 3, 55, 63
5, 16629, Note_off_c, 3, 46, 0
5, 16635, Note_off_c, 3, 55, 0
5, 16680, Note_on_c, 3, 46, 38
5, 16680, Note_on_c, 3, 53, 63
5, 16749, Note_off_c, 3, 46, 0
5, 16755, Note_off_c, 3, 53, 0
5, 16800, Control_c, 3, 64, 127
5, 16805, Note_on_c, 3, 51, 59
5, 16805, Note_on_c, 3, 55, 68
5, 16875, Note_off_c, 3, 55, 0
5, 16882, Note_off_c, 3, 51, 0
5, 16920, Note_on_c, 3, 51, 43
5, 16920, Note_on_c, 3, 58, 65
5, 16920, Note_on_c, 3, 60, 53
5, 16922, Note_on_c, 3, 55, 53
5, 16963, Note_off_c, 3, 55, 0
5, 16965, Note_off_c, 3, 51, 0
5, 16969, Note_off_c, 3, 58, 0
5, 16969, Note_off_c, 3, 60, 0
5, 16983, Note_on_c, 3, 55, 40
5, 16985, Note_on_c, 3, 51, 22
5, 17040, Note_off_c, 3, 55, 0
5, 17040, Note_off_c, 3, 51, 0
5, 17040, Control_c, 3, 64, 0
5, 17040, Note_on_c, 3, 57, 55
5, 17040, Note_on_c, 3, 60, 45
5, 17043, Note_on_c, 3, 53, 44
5, 17056, Control_c, 3, 64, 127
5, 17088, Note_off_c, 3, 53, 0
5, 17090, Note_off_c, 3, 60, 0
5, 17094, Note_off_c, 3, 57, 0
5, 17162, Note_on_c, 3, 57, 62
5, 17164, Note_on_c, 3, 51, 38
5, 17164, Note_on_c, 3, 53, 53
5, 17164, Note_on_c, 3, 60, 59
5, 17198, Note_off_c, 3, 51, 0
5, 17200, Note_off_c, 3, 53, 0
5, 17204, Note_off_c, 3, 57, 0
5, 17206, Note_off_c, 3, 60, 0
5, 17280, Control_c, 3, 64, 0
5, 17280, Note_on_c, 3, 53, 56
5, 17283, Control_c, 3, 64, 127
5, 17286, Note_on_c, 3, 50, 33
5, 17342, Note_on_c, 3, 62, 50
5, 17344, Note_on_c, 3, 58, 64
5, 17420, Note_off_c, 3, 50, 0
5, 17422, Note_off_c, 3, 53, 0
5, 17427, Note_off_c, 3, 62, 0
5, 17431, Note_off_c, 3, 58, 0
5, 17463, Note_on_c, 3, 53, 53
5, 17465, Note_on_c, 3, 50, 48
5, 17495, Note_off_c, 3, 50, 0
5, 17503, Note_off_c, 3, 53, 0
5, 17520, Control_c, 3, 64, 0
5, 17520, Note_on_c, 3, 54, 56
5, 17523, Control_c, 3, 64, 127
5, 17526, Note_on_c, 3, 51, 33
5, 17582, Note_on_c, 3, 60, 50
5, 17584, Note_on_c, 3, 57, 64
5, 17660, Note_off_c, 3, 51, 0
5, 17662, Note_off_c, 3, 54, 0
5, 17667, Note_off_c, 3, 60, 0
5, 17671, Note_off_c, 3, 57, 0
5, 17703, Note_on_c, 3, 54, 53
5, 17705, Note_on_c, 3, 51, 48
5, 17735, Note_off_c, 3, 51, 0
5, 17743, Note_off_c, 3, 54, 0
5, 17760, Control_c, 3, 64, 0
5, 17763, Note_on_c, 3, 53, 57
5, 17764, Note_on_c, 3, 50, 55
5, 17772, Control_c, 3, 64, 127
5, 17806, Note_off_c, 3, 53, 0
5, 17806, Note_off_c, 3, 50, 0
5, 17864, Note_on_c, 3, 53, 43
5, 17869, Note_on_c, 3, 58, 60
5, 17882, Note_on_c, 3, 62, 55
5, 17909, Note_off_c, 3, 53, 0
5, 17914, Note_off_c, 3, 58, 0
5, 17919, Note_off_c, 3, 62, 0
5, 18055, Note_on_c, 3, 58, 60
5, 18060, Note_on_c, 3, 50, 45
5, 18098, Note_off_c, 3, 58, 0
5, 18098, Note_off_c, 3, 50, 0
5, 18119, Note_on_c, 3, 53, 36
5, 18136, Note_off_c, 3, 53, 0
5, 18177, Note_on_c, 3, 50, 41
5, 18177, Note_on_c, 3, 62, 51
5, 18204, Note_off_c, 3, 62, 0
5, 18210, Note_off_c, 3, 50, 0
5, 18240, Control_c, 3, 64, 0
5, 18245, Note_on_c, 3, 57, 73
5, 18250, Note_on_c, 3, 50, 44
5, 18250, Note_on_c, 3, 53, 58
5, 18250, Note_on_c, 3, 62, 55
5, 18274, Control_c, 3, 64, 127
5, 18303, Note_off_c, 3, 53, 0
5, 18308, Note_off_c, 3, 57, 0
5, 18308, Note_off_c, 3, 62, 0
5, 18315, Note_off_c, 3, 50, 0
5, 18366, Note_on_c, 3, 57, 71
5, 18366, Note_on_c, 3, 62, 63
5, 18368, Note_on_c, 3, 50, 43
5, 18369, Note_on_c, 3, 53, 55
5, 18384, Note_off_c, 3, 53, 0
5, 18405, Note_off_c, 3, 57, 0
5, 18405, Note_off_c, 3, 62, 0
5, 18405, Note_off_c, 3, 50, 0
5, 18429, Note_on_c, 3, 50, 33
5, 18436, Note_on_c, 3, 53, 29
5, 18441, Note_off_c, 3, 50, 0
5, 18447, Note_off_c, 3, 53, 0
5, 18479, Note_on_c, 3, 62, 48
5, 18481, Note_on_c, 3, 50, 32
5, 18483, Note_on_c, 3, 57, 52
5, 18485, Note_on_c, 3, 53, 43
5, 18495, Note_off_c, 3, 53, 0
5, 18501, Note_off_c, 3, 50, 0
5, 18501, Note_off_c, 3, 57, 0
5, 18506, Note_off_c, 3, 62, 0
5, 18541, Note_on_c, 3, 57, 64
5, 18541, Note_on_c, 3, 62, 63
5, 18542, Note_on_c, 3, 50, 45
5, 18542, Note_on_c, 3, 53, 58
5, 18604, Note_off_c, 3, 53, 0
5, 18611, Note_off_c, 3, 57, 0
5, 18616, Note_off_c, 3, 62, 0
5, 18620, Note_off_c, 3, 50, 0
5, 18665, Note_on_c, 3, 53, 38
5, 18670, Note_on_c, 3, 50, 34
5, 18681, Note_off_c, 3, 53, 0
5, 18681, Note_off_c, 3, 50, 0
5, 18720, Control_c, 3, 64, 0
5, 18720, Note_on_c, 3, 58, 69
5, 18720, Note_on_c, 3, 63, 59
5, 18722, Note_on_c, 3, 51, 41
5, 18723, Note_on_c, 3, 55, 58
5, 18736, Control_c, 3, 64, 127
5, 18768, Note_off_c, 3, 55, 0
5, 18770, Note_off_c, 3, 63, 0
5, 18772, Note_off_c, 3, 51, 0
5, 18774, Note_off_c, 3, 58, 0
5, 18792, Note_on_c, 3, 51, 32
5, 18803, Note_off_c, 3, 51, 0
5, 18842, Note_on_c, 3, 58, 76
5, 18844, Note_on_c, 3, 51, 52
5, 18844, Note_on_c, 3, 55, 67
5, 18844, Note_on_c, 3, 63, 73
5, 18878, Note_off_c, 3, 51, 0
5, 18880, Note_off_c, 3, 55, 0
5, 18884, Note_off_c, 3, 58, 0
5, 18886, Note_off_c, 3, 63, 0
5, 18900, Note_on_c, 3, 51, 17
5, 18900, Note_on_c, 3, 55, 11
5, 18923, Note_off_c, 3, 51, 0
5, 18925, Note_off_c, 3, 55, 0
5, 18960, Control_c, 3, 64, 0
5, 18960, Note_on_c, 3, 53, 56
5, 18963, Control_c, 3, 64, 127
5, 18966, Note_on_c, 3, 51, 33
5, 19022, Note_on_c, 3, 60, 50
5, 19024, Note_on_c, 3, 57, 64
5, 19100, Note_off_c, 3, 51, 0
5, 19102, Note_off_c, 3, 53, 0
5, 19107, Note_off_c, 3, 60, 0
5, 19111, Note_off_c, 3, 57, 0
5, 19143, Note_on_c, 3, 53, 53
5, 19145, Note_on_c, 3, 51, 48
5, 19175, Note_off_c, 3, 51, 0
5, 19183, Note_off_c, 3, 53, 0
5, 19200, Control_c, 3, 64, 0
5, 19200, Note_on_c, 3, 53, 70
5, 19201, Note_on_c, 3, 62, 58
5, 19203, Note_on_c, 3, 58, 64
5, 19205, Note_on_c, 3, 50, 54
5, 19218, Control_c, 3, 64, 127
5, 19255, Note_off_c, 3, 62, 0
5, 19257, Note_off_c, 3, 58, 0
5, 19257, Note_off_c, 3, 50, 0
5, 19266, Note_off_c, 3, 53, 0
5, 19322, Note_on_c, 3, 53, 38
5, 19324, Note_on_c, 3, 58, 61
5, 19326, Note_on_c, 3, 62, 37
5, 19338, Note_off_c, 3, 62, 0
5, 19340, Note_off_c, 3, 58, 0
5, 19344, Note_off_c, 3, 53, 0
5, 19385, Note_on_c, 3, 53, 45
5, 19385, Note_on_c, 3, 62, 52
5, 19389, Note_on_c, 3, 58, 44
5, 19400, Note_off_c, 3, 53, 0
5, 19401, Note_off_c, 3, 62, 0
5, 19401, Note_off_c, 3, 58, 0
5, 19441, Note_on_c, 3, 53, 43
5, 19448, Note_on_c, 3, 50, 52
5, 19459, Note_off_c, 3, 50, 0
5, 19461, Note_off_c, 3, 53, 0
5, 19499, Note_on_c, 3, 53, 66
5, 19517, Note_off_c, 3, 53, 0
5, 19555, Note_on_c, 3, 53, 54
5, 19556, Note_on_c, 3, 62, 45
5, 19560, Note_on_c, 3, 58, 37
5, 19571, Note_off_c, 3, 62, 0
5, 19573, Note_off_c, 3, 53, 0
5, 19573, Note_off_c, 3, 58, 0
5, 19618, Note_on_c, 3, 53, 39
5, 19625, Note_on_c, 3, 50, 33
5, 19636, Note_off_c, 3, 50, 0
5, 19641, Note_off_c, 3, 53, 0
5, 19680, Control_c, 3, 64, 0
5, 19680, Control_c, 3, 64, 127
5, 19685, Note_on_c, 3, 51, 59
5, 19685, Note_on_c, 3, 55, 68
5, 19755, Note_off_c, 3, 55, 0
5, 19762, Note_off_c, 3, 51, 0
5, 19800, Note_on_c, 3, 51, 43
5, 19800, Note_on_c, 3, 58, 65
5, 19800, Note_on_c, 3, 60, 53
5, 19802, Note_on_c, 3, 55, 53
5, 19843, Note_off_c, 3, 55, 0
5, 19845, Note_off_c, 3, 51, 0
5, 19849, Note_off_c, 3, 58, 0
5, 19849, Note_off_c, 3, 60, 0
5, 19863, Note_on_c, 3, 55, 40
5, 19865, Note_on_c, 3, 51, 22
5, 19920, Note_off_c, 3, 55, 0
5, 19920, Note_off_c, 3, 51, 0
5, 19920, Control_c, 3, 64, 0
5, 19920, Control_c, 3, 64, 127
5, 19925, Note_on_c, 3, 51, 59
5, 19925, Note_on_c, 3, 54, 68
5, 19995, Note_off_c, 3, 54, 0
5, 20002, Note_off_c, 3, 51, 0
5, 20040, Note_on_c, 3, 51, 43
5, 20040, Note_on_c, 3, 58, 65
5, 20040, Note_on_c, 3, 63, 53
5, 20042, Note_on_c, 3, 54, 53
5, 20083, Note_off_c, 3, 54, 0
5, 20085, Note_off_c, 3, 51, 0
5, 20089, Note_off_c, 3, 58, 0
5, 20089, Note_off_c, 3, 63, 0
5, 20103, Note_on_c, 3, 54, 40
5, 20105, Note_on_c, 3, 51, 22
5, 20160, Note_off_c, 3, 54, 0
5, 20160, Note_off_c, 3, 51, 0
5, 20160, Control_c, 3, 64, 0
5, 20160, Note_on_c, 3, 53, 56
5, 20163, Control_c, 3, 64, 127
5, 20166, Note_on_c, 3, 50, 33
5, 20222, Note_on_c, 3, 62, 50
5, 20224, Note_on_c, 3, 58, 64
5, 20300, Note_off_c, 3, 53, 0
5, 20300, Note_off_c, 3, 50, 0
5, 20307, Note_off_c, 3, 62, 0
5, 20311, Note_off_c, 3, 58, 0
5, 20340, Control_c, 3, 64, 0
5, 20340, Note_on_c, 3, 46, 38
5, 20340, Note_on_c, 3, 55, 63
5, 20467, Note_off_c, 3, 46, 0
5, 20473, Note_off_c, 3, 55, 0
5, 20520, Note_on_c, 3, 53, 69
5, 20520, Note_on_c, 3, 55, 59
5, 20522, Note_on_c, 3, 46, 41
5, 20523, Note_on_c, 3, 50, 58
5, 20536, Control_c, 3, 64, 127
5, 20568, Note_off_c, 3, 50, 0
5, 20570, Note_off_c, 3, 55, 0
5, 20572, Note_off_c, 3, 46, 0
5, 20574, Note_off_c, 3, 53, 0
5, 20592, Note_on_c, 3, 46, 32
5, 20603, Note_off_c, 3, 46, 0
5, 20640, Control_c, 3, 64, 0
5, 20640, Note_on_c, 3, 58, 65
5, 20641, Note_on_c, 3, 55, 53
5, 20643, Note_on_c, 3, 52, 45
5, 20681, Control_c, 3, 64, 127
5, 20721, Note_off_c, 3, 58, 0
5, 20721, Note_off_c, 3, 52, 0
5, 20722, Note_off_c, 3, 55, 0
5, 20764, Note_on_c, 3, 58, 56
5, 20811, Note_off_c, 3, 58, 0
5, 20827, Note_on_c, 3, 52, 43
5, 20845, Note_off_c, 3, 52, 0
5, 20883, Note_on_c, 3, 58, 46
5, 20885, Note_on_c, 3, 55, 44
5, 20917, Note_off_c, 3, 55, 0
5, 20919, Note_off_c, 3, 58, 0
5, 20942, Note_on_c, 3, 58, 51
5, 21025, Note_off_c, 3, 58, 0
5, 21120, Control_c, 3, 64, 0
5, 21125, Note_on_c, 3, 57, 73
5, 21130, Note_on_c, 3, 51, 44
5, 21130, Note_on_c, 3, 53, 58
5, 21130, Note_on_c, 3, 60, 55
5, 21154, Control_c, 3, 64, 127
5, 21183, Note_off_c, 3, 53, 0
5, 21188, Note_off_c, 3, 57, 0
5, 21188, Note_off_c, 3, 60, 0
5, 21195, Note_off_c, 3, 51, 0
5, 21246, Note_on_c, 3, 57, 71
5, 21246, Note_on_c, 3, 60, 63
5, 21248, Note_on_c, 3, 51, 43
5, 21249, Note_on_c, 3, 53, 55
5, 21264, Note_off_c, 3, 53, 0
5, 21285, Note_off_c, 3, 57, 0
5, 21285, Note_off_c, 3, 60, 0
5, 21285, Note_off_c, 3, 51, 0
5, 21309, Note_on_c, 3, 51, 33
5, 21316, Note_on_c, 3, 53, 29
5, 21321, Note_off_c, 3, 51, 0
5, 21327, Note_off_c, 3, 53, 0
5, 21359, Note_on_c, 3, 60, 48
5, 21361, Note_on_c, 3, 51, 32
5, 21363, Note_on_c, 3, 57, 52
5, 21365, Note_on_c, 3, 53, 43
5, 21375, Note_off_c, 3, 53, 0
5, 21381, Note_off_c, 3, 51, 0
5, 21381, Note_off_c, 3, 57, 0
5, 21386, Note_off_c, 3, 60, 0
5, 21421, Note_on_c, 3, 57, 64
5, 21421, Note_on_c, 3, 60, 63
5, 21422, Note_on_c, 3, 51, 45
5, 21422, Note_on_c, 3, 53, 58
5, 21484, Note_off_c, 3, 53, 0
5, 21491, Note_off_c, 3, 57, 0
5, 21496, Note_off_c, 3, 60, 0
5, 21500, Note_off_c, 3, 51, 0
5, 21545, Note_on_c, 3, 53, 38
5, 21550, Note_on_c, 3, 51, 34
5, 21561, Note_off_c, 3, 53, 0
5, 21561, Note_off_c, 3, 51, 0
5, 21600, Control_c, 3, 64, 0
5, 21601, Note_on_c, 3, 50, 68
5, 21603, Note_on_c, 3, 53, 59
5, 21675, Note_off_c, 3, 53, 0
5, 21716, Note_on_c, 3, 58, 71
5, 21718, Note_on_c, 3, 62, 59
5, 21722, Note_on_c, 3, 53, 53
5, 21724, Control_c, 3, 64, 127
5, 21734, Note_off_c, 3, 50, 0
5, 21747, Note_off_c, 3, 53, 0
5, 21749, Note_off_c, 3, 62, 0
5, 21754, Note_off_c, 3, 58, 0
5, 21776, Note_on_c, 3, 58, 76
5, 21785, Note_on_c, 3, 53, 23
5, 21803, Note_off_c, 3, 53, 0
5, 21815, Note_off_c, 3, 58, 0
5, 21839, Note_on_c, 3, 50, 33
5, 21889, Note_off_c, 3, 50, 0
5, 21897, Note_on_c, 3, 62, 61
5, 21898, Note_on_c, 3, 58, 68
5, 21934, Note_off_c, 3, 62, 0
5, 21942, Note_off_c, 3, 58, 0
5, 21960, Note_on_c, 3, 53, 48
5, 21987, Note_off_c, 3, 53, 0
5, 22023, Note_on_c, 3, 53, 41
5, 22044, Note_off_c, 3, 53, 0
5, 22080, Control_c, 3, 64, 0
5, 22080, Note_on_c, 3, 57, 65
5, 22081, Note_on_c, 3, 53, 53
5, 22083, Note_on_c, 3, 50, 45
5, 22121, Control_c, 3, 64, 127
5, 22161, Note_off_c, 3, 57, 0
5, 22161, Note_off_c, 3, 50, 0
5, 22162, Note_off_c, 3, 53, 0
5, 22204, Note_on_c, 3, 57, 56
5, 22251, Note_off_c, 3, 57, 0
5, 22267, Note_on_c, 3, 50, 43
5, 22285, Note_off_c, 3, 50, 0
5, 22323, Note_on_c, 3, 57, 46
5, 22325, Note_on_c, 3, 53, 44
5, 22357, Note_off_c, 3, 53, 0
5, 22359, Note_off_c, 3, 57, 0
5, 22382, Note_on_c, 3, 57, 51
5, 22465, Note_off_c, 3, 57, 0
5, 22560, Control_c, 3, 64, 0
5, 22560, Control_c, 3, 64, 127
5, 22565, Note_on_c, 3, 51, 59
5, 22565, Note_on_c, 3, 55, 68
5, 22635, Note_off_c, 3, 55, 0
5, 22642, Note_off_c, 3, 51, 0
5, 22680, Note_on_c, 3, 51, 43
5, 22680, Note_on_c, 3, 58, 65
5, 22680, Note_on_c, 3, 63, 53
5, 22682, Note_on_c, 3, 55, 53
5, 22723, Note_off_c, 3, 55, 0
5, 22725, Note_off_c, 3, 51, 0
5, 22729, Note_off_c, 3, 58, 0
5, 22729, Note_off_c, 3, 63, 0
5, 22743, Note_on_c, 3, 55, 40
5, 22745, Note_on_c, 3, 51, 22
5, 22800, Note_off_c, 3, 55, 0
5, 22800, Note_off_c, 3, 51, 0
5, 22800, Control_c, 3, 64, 0
5, 22800, Note_on_c, 3, 57, 69
5, 22800, Note_on_c, 3, 60, 59
5, 22802, Note_on_c, 3, 51, 41
5, 22803, Note_on_c, 3, 53, 58
5, 22816, Control_c, 3, 64, 127
5, 22848, Note_off_c, 3, 53, 0
5, 22850, Note_off_c, 3, 60, 0
5, 22852, Note_off_c, 3, 51, 0
5, 22854, Note_off_c, 3, 57, 0
5, 22872, Note_on_c, 3, 51, 32
5, 22883, Note_off_c, 3, 51, 0
5, 22922, Note_on_c, 3, 57, 76
5, 22924, Note_on_c, 3, 51, 52
5, 22924, Note_on_c, 3, 53, 67
5, 22924, Note_on_c, 3, 60, 73
5, 22958, Note_off_c, 3, 51, 0
5, 22960, Note_off_c, 3, 53, 0
5, 22964, Note_off_c, 3, 57, 0
5, 22966, Note_off_c, 3, 60, 0
5, 22980, Note_on_c, 3, 51, 17
5, 22980, Note_on_c, 3, 53, 11
5, 23003, Note_off_c, 3, 51, 0
5, 23005, Note_off_c, 3, 53, 0
5, 23040, Control_c, 3, 64, 0
5, 23040, Note_on_c, 3, 58, 65
5, 23041, Note_on_c, 3, 53, 53
5, 23043, Note_on_c, 3, 50, 45
5, 23081, Control_c, 3, 64, 127
5, 23121, Note_off_c, 3, 58, 0
5, 23121, Note_off_c, 3, 50, 0
5, 23122, Note_off_c, 3, 53, 0
5, 23164, Note_on_c, 3, 58, 56
5, 23211, Note_off_c, 3, 58, 0
5, 23227, Note_on_c, 3, 50, 43
5, 23245, Note_off_c, 3, 50, 0
5, 23283, Note_on_c, 3, 58, 46
5, 23285, Note_on_c, 3, 53, 44
5, 23317, Note_off_c, 3, 53, 0
5, 23319, Note_off_c, 3, 58, 0
5, 23342, Note_on_c, 3, 58, 51
5, 23425, Note_off_c, 3, 58, 0
5, 23520, Control_c, 3, 64, 0
5, 23520, Note_on_c, 3, 58, 69
5, 23520, Note_on_c, 3, 60, 59
5, 23522, Note_on_c, 3, 51, 41
5, 23523, Note_on_c, 3, 55, 58
5, 23536, Control_c, 3, 64, 127
5, 23568, Note_off_c, 3, 55, 0
5, 23570, Note_off_c, 3, 60, 0
5, 23572, Note_off_c, 3, 51, 0
5, 23574, Note_off_c, 3, 58, 0
5, 23592, Note_on_c, 3, 51, 32
5, 23603, Note_off_c, 3, 51, 0
5, 23642, Note_on_c, 3, 58, 76
5, 23644, Note_on_c, 3, 51, 52
5, 23644, Note_on_c, 3, 55, 67
5, 23644, Note_on_c, 3, 60, 73
5, 23678, Note_off_c, 3, 51, 0
5, 23680, Note_off_c, 3, 55, 0
5, 23684, Note_off_c, 3, 58, 0
5, 23686, Note_off_c, 3, 60, 0
5, 23700, Note_on_c, 3, 51, 17
5, 23700, Note_on_c, 3, 55, 11
5, 23723, Note_off_c, 3, 51, 0
5, 23725, Note_off_c, 3, 55, 0
5, 23760, Control_c, 3, 64, 0
5, 23760, Note_on_c, 3, 58, 69
5, 23760, Note_on_c, 3, 63, 59
5, 23762, Note_on_c, 3, 51, 41
5, 23763, Note_on_c, 3, 54, 58
5, 23776, Control_c, 3, 64, 127
5, 23808, Note_off_c, 3, 54, 0
5, 23810, Note_off_c, 3, 63, 0
5, 23812, Note_off_c, 3, 51, 0
5, 23814, Note_off_c, 3, 58, 0
5, 23832, Note_on_c, 3, 51, 32
5, 23843, Note_off_c, 3, 51, 0
5, 23882, Note_on_c, 3, 58, 76
5, 23884, Note_on_c, 3, 51, 52
5, 23884, Note_on_c, 3, 54, 67
5, 23884, Note_on_c, 3, 63, 73
5, 23918, Note_off_c, 3, 51, 0
5, 23920, Note_off_c, 3, 54, 0
5, 23924, Note_off_c, 3, 58, 0
5, 23926, Note_off_c, 3, 63, 0
5, 23940, Note_on_c, 3, 51, 17
5, 23940, Note_on_c, 3, 54, 11
5, 23963, Note_off_c, 3, 51, 0
5, 23965, Note_off_c, 3, 54, 0
5, 24000, Control_c, 3, 64, 0
5, 24000, Note_on_c, 3, 58, 69
5, 24000, Note_on_c, 3, 62, 59
5, 24002, Note_on_c, 3, 50, 41
5, 24003, Note_on_c, 3, 53, 58
5, 24016, Control_c, 3, 64, 127
5, 24048, Note_off_c, 3, 53, 0
5, 24050, Note_off_c, 3, 62, 0
5, 24052, Note_off_c, 3, 50, 0
5, 24054, Note_off_c, 3, 58, 0
5, 24072, Note_on_c, 3, 50, 32
5, 24083, Note_off_c, 3, 50, 0
5, 24122, Note_on_c, 3, 58, 76
5, 24124, Note_on_c, 3, 50, 52
5, 24124, Note_on_c, 3, 53, 67
5, 24124, Note_on_c, 3, 62, 73
5, 24158, Note_off_c, 3, 50, 0
5, 24160, Note_off_c, 3, 53, 0
5, 24164, Note_off_c, 3, 58, 0
5, 24166, Note_off_c, 3, 62, 0
5, 24180, Note_on_c, 3, 50, 17
5, 24180, Note_on_c, 3, 53, 11
5, 24203, Note_off_c, 3, 50, 0
5, 24205, Note_off_c, 3, 53, 0
5, 24240, Control_c, 3, 64, 0
5, 24240, Note_on_c, 3, 55, 69
5, 24240, Note_on_c, 3, 58, 59
5, 24242, Note_on_c, 3, 46, 41
5, 24243, Note_on_c, 3, 50, 58
5, 24256, Control_c, 3, 64, 127
5, 24288, Note_off_c, 3, 50, 0
5, 24290, Note_off_c, 3, 58, 0
5, 24292, Note_off_c, 3, 46, 0
5, 24294, Note_off_c, 3, 55, 0
5, 24312, Note_on_c, 3, 46, 32
5, 24323, Note_off_c, 3, 46, 0
5, 24360, Control_c, 3, 64, 0
5, 24360, Note_on_c, 3, 53, 69
5, 24360, Note_on_c, 3, 55, 59
5, 24362, Note_on_c, 3, 46, 41
5, 24363, Note_on_c, 3, 50, 58
5, 24376, Control_c, 3, 64, 127
5, 24408, Note_off_c, 3, 50, 0
5, 24410, Note_off_c, 3, 55, 0
5, 24412, Note_off_c, 3, 46, 0
5, 24414, Note_off_c, 3, 53, 0
5, 24432, Note_on_c, 3, 46, 32
5, 24443, Note_off_c, 3, 46, 0
5, 24480, Control_c, 3, 64, 0
5, 24480, Control_c, 3, 64, 127
5, 24485, Note_on_c, 3, 52, 59
5, 24485, Note_on_c, 3, 55, 68
5, 24555, Note_off_c, 3, 55, 0
5, 24562, Note_off_c, 3, 52, 0
5, 24600, Note_on_c, 3, 52, 43
5, 24600, Note_on_c, 3, 58, 65
5, 24600, Note_on_c, 3, 60, 53
5, 24602, Note_on_c, 3, 55, 53
5, 24643, Note_off_c, 3, 55, 0
5, 24645, Note_off_c, 3, 52, 0
5, 24649, Note_off_c, 3, 58, 0
5, 24649, Note_off_c, 3, 60, 0
5, 24663, Note_on_c, 3, 55, 40
5, 24665, Note_on_c, 3, 52, 22
5, 24720, Note_off_c, 3, 55, 0
5, 24720, Note_off_c, 3, 52, 0
5, 24720, Control_c, 3, 64, 0
5, 24720, Control_c, 3, 64, 127
5, 24720, Control_c, 3, 64, 0
5, 24721, Note_on_c, 3, 57, 59
5, 24738, Control_c, 3, 64, 127
5, 24813, Note_off_c, 3, 57, 0
5, 24840, Note_on_c, 3, 53, 57
5, 24842, Note_on_c, 3, 51, 44
5, 24889, Note_off_c, 3, 53, 0
5, 24900, Note_off_c, 3, 51, 0
5, 24903, Note_on_c, 3, 57, 41
5, 24932, Note_off_c, 3, 57, 0
5, 24960, Control_c, 3, 64, 0
5, 24963, Note_on_c, 3, 53, 57
5, 24964, Note_on_c, 3, 50, 55
5, 24972, Control_c, 3, 64, 127
5, 25006, Note_off_c, 3, 53, 0
5, 25006, Note_off_c, 3, 50, 0
5, 25064, Note_on_c, 3, 53, 43
5, 25069, Note_on_c, 3, 58, 60
5, 25082, Note_on_c, 3, 62, 55
5, 25109, Note_off_c, 3, 53, 0
5, 25114, Note_off_c, 3, 58, 0
5, 25119, Note_off_c, 3, 62, 0
5, 25255, Note_on_c, 3, 58, 60
5, 25260, Note_on_c, 3, 50, 45
5, 25298, Note_off_c, 3, 58, 0
5, 25298, Note_off_c, 3, 50, 0
5, 25319, Note_on_c, 3, 53, 36
5, 25336, Note_off_c, 3, 53, 0
5, 25377, Note_on_c, 3, 50, 41
5, 25377, Note_on_c, 3, 62, 51
5, 25404, Note_off_c, 3, 62, 0
5, 25410, Note_off_c, 3, 50, 0
5, 25440, Control_c, 3, 64, 0
5, 25441, Note_on_c, 3, 51, 68
5, 25443, Note_on_c, 3, 55, 59
5, 25515, Note_off_c, 3, 55, 0
5, 25556, Note_on_c, 3, 58, 71
5, 25558, Note_on_c, 3, 63, 59
5, 25562, Note_on_c, 3, 55, 53
5, 25564, Control_c, 3, 64, 127
5, 25574, Note_off_c, 3, 51, 0
5, 25587, Note_off_c, 3, 55, 0
5, 25589, Note_off_c, 3, 63, 0
5, 25594, Note_off_c, 3, 58, 0
5, 25616, Note_on_c, 3, 58, 76
5, 25625, Note_on_c, 3, 55, 23
5, 25643, Note_off_c, 3, 55, 0
5, 25655, Note_off_c, 3, 58, 0
5, 25679, Note_on_c, 3, 51, 33
5, 25729, Note_off_c, 3, 51, 0
5, 25737, Note_on_c, 3, 63, 61
5, 25738, Note_on_c, 3, 58, 68
5, 25774, Note_off_c, 3, 63, 0
5, 25782, Note_off_c, 3, 58, 0
5, 25800, Note_on_c, 3, 55, 48
5, 25827, Note_off_c, 3, 55, 0
5, 25863, Note_on_c, 3, 55, 41
5, 25884, Note_off_c, 3, 55, 0
5, 25919, Note_on_c, 3, 51, 52
5, 25920, Note_on_c, 3, 55, 24
5, 25962, Note_off_c, 3, 51, 0
5, 25969, Note_off_c, 3, 55, 0
5, 25982, Note_on_c, 3, 55, 25
5, 25994, Note_off_c, 3, 55, 0
5, 26041, Note_on_c, 3, 63, 44
5, 26043, Note_on_c, 3, 55, 41
5, 26045, Note_on_c, 3, 58, 41
5, 26057, Note_off_c, 3, 55, 0
5, 26061, Note_off_c, 3, 58, 0
5, 26073, Note_off_c, 3, 63, 0
5, 26099, Note_on_c, 3, 55, 52
5, 26158, Note_on_c, 3, 51, 63
5, 26174, Note_off_c, 3, 55, 0
5, 26183, Note_off_c, 3, 51, 0
5, 26221, Note_on_c, 3, 63, 60
5, 26225, Note_on_c, 3, 55, 45
5, 26227, Note_on_c, 3, 58, 47
5, 26245, Note_off_c, 3, 55, 0
5, 26252, Note_off_c, 3, 63, 0
5, 26252, Note_off_c, 3, 58, 0
5, 26284, Note_on_c, 3, 51, 48
5, 26342, Note_off_c, 3, 51, 0
5, 26400, Control_c, 3, 64, 0
5, 26401, Note_on_c, 3, 50, 68
5, 26403, Note_on_c, 3, 53, 59
5, 26475, Note_off_c, 3, 53, 0
5, 26516, Note_on_c, 3, 58, 71
5, 26518, Note_on_c, 3, 62, 59
5, 26522, Note_on_c, 3, 53, 53
5, 26524, Control_c, 3, 64, 127
5, 26534, Note_off_c, 3, 50, 0
5, 26547, Note_off_c, 3, 53, 0
5, 26549, Note_off_c, 3, 62, 0
5, 26554, Note_off_c, 3, 58, 0
5, 26576, Note_on_c, 3, 58, 76
5, 26585, Note_on_c, 3, 53, 23
5, 26603, Note_off_c, 3, 53, 0
5, 26615, Note_off_c, 3, 58, 0
5, 26639, Note_on_c, 3, 50, 33
5, 26689, Note_off_c, 3, 50, 0
5, 26697, Note_on_c, 3, 62, 61
5, 26698, Note_on_c, 3, 58, 68
5, 26734, Note_off_c, 3, 62, 0
5, 26742, Note_off_c, 3, 58, 0
5, 26760, Note_on_c, 3, 53, 48
5, 26787, Note_off_c, 3, 53, 0
5, 26823, Note_on_c, 3, 53, 41
5, 26844, Note_off_c, 3, 53, 0
5, 26879, Note_on_c, 3, 50, 52
5, 26880, Note_on_c, 3, 53, 24
5, 26922, Note_off_c, 3, 50, 0
5, 26929, Note_off_c, 3, 53, 0
5, 26942, Note_on_c, 3, 53, 25
5, 26954, Note_off_c, 3, 53, 0
5, 27001, Note_on_c, 3, 62, 44
5, 27003, Note_on_c, 3, 53, 41
5, 27005, Note_on_c, 3, 58, 41
5, 27017, Note_off_c, 3, 53, 0
5, 27021, Note_off_c, 3, 58, 0
5, 27033, Note_off_c, 3, 62, 0
5, 27059, Note_on_c, 3, 53, 52
5, 27118, Note_on_c, 3, 50, 63
5, 27134, Note_off_c, 3, 53, 0
5, 27143, Note_off_c, 3, 50, 0
5, 27181, Note_on_c, 3, 62, 60
5, 27185, Note_on_c, 3, 53, 45
5, 27187, Note_on_c, 3, 58, 47
5, 27205, Note_off_c, 3, 53, 0
5, 27212, Note_off_c, 3, 62, 0
5, 27212, Note_off_c, 3, 58, 0
5, 27244, Note_on_c, 3, 50, 48
5, 27302, Note_off_c, 3, 50, 0
5, 27360, Control_c, 3, 64, 0
5, 27363, Note_on_c, 3, 50, 57
5, 27364, Note_on_c, 3, 46, 55
5, 27372, Control_c, 3, 64, 127
5, 27406, Note_off_c, 3, 50, 0
5, 27406, Note_off_c, 3, 46, 0
5, 27464, Note_on_c, 3, 50, 43
5, 27469, Note_on_c, 3, 55, 60
5, 27482, Note_on_c, 3, 58, 55
5, 27509, Note_off_c, 3, 50, 0
5, 27514, Note_off_c, 3, 55, 0
5, 27519, Note_off_c, 3, 58, 0
5, 27655, Note_on_c, 3, 55, 60
5, 27660, Note_on_c, 3, 46, 45
5, 27698, Note_off_c, 3, 55, 0
5, 27698, Note_off_c, 3, 46, 0
5, 27719, Note_on_c, 3, 50, 36
5, 27736, Note_off_c, 3, 50, 0
5, 27777, Note_on_c, 3, 46, 41
5, 27777, Note_on_c, 3, 58, 51
5, 27804, Note_off_c, 3, 58, 0
5, 27810, Note_off_c, 3, 46, 0
5, 27840, Control_c, 3, 64, 0
5, 27843, Note_on_c, 3, 55, 57
5, 27844, Note_on_c, 3, 52, 55
5, 27852, Control_c, 3, 64, 127
5, 27886, Note_off_c, 3, 55, 0
5, 27886, Note_off_c, 3, 52, 0
5, 27944, Note_on_c, 3, 55, 43
5, 27949, Note_on_c, 3, 58, 60
5, 27962, Note_on_c, 3, 60, 55
5, 27989, Note_off_c, 3, 55, 0
5, 27994, Note_off_c, 3, 58, 0
5, 27999, Note_off_c, 3, 60, 0
5, 28135, Note_on_c, 3, 58, 60
5, 28140, Note_on_c, 3, 52, 45
5, 28178, Note_off_c, 3, 58, 0
5, 28178, Note_off_c, 3, 52, 0
5, 28199, Note_on_c, 3, 55, 36
5, 28216, Note_off_c, 3, 55, 0
5, 28257, Note_on_c, 3, 52, 41
5, 28257, Note_on_c, 3, 60, 51
5, 28284, Note_off_c, 3, 60, 0
5, 28290, Note_off_c, 3, 52, 0
5, 28320, Control_c, 3, 64, 0
5, 28320, Note_on_c, 3, 58, 65
5, 28321, Note_on_c, 3, 55, 53
5, 28323, Note_on_c, 3, 51, 45
5, 28361, Control_c, 3, 64, 127
5, 28401, Note_off_c, 3, 58, 0
5, 28401, Note_off_c, 3, 51, 0
5, 28402, Note_off_c, 3, 55, 0
5, 28444, Note_on_c, 3, 58, 56
5, 28491, Note_off_c, 3, 58, 0
5, 28507, Note_on_c, 3, 51, 43
5, 28525, Note_off_c, 3, 51, 0
5, 28563, Note_on_c, 3, 58, 46
5, 28565, Note_on_c, 3, 55, 44
5, 28597, Note_off_c, 3, 55, 0
5, 28599, Note_off_c, 3, 58, 0
5, 28622, Note_on_c, 3, 58, 51
5, 28705, Note_off_c, 3, 58, 0
5, 28800, Control_c, 3, 64, 0
5, 28800, Note_on_c, 3, 53, 56
5, 28803, Control_c, 3, 64, 127
5, 28806, Note_on_c, 3, 51, 33
5, 28862, Note_on_c, 3, 60, 50
5, 28864, Note_on_c, 3, 57, 64
5, 28940, Note_off_c, 3, 51, 0
5, 28942, Note_off_c, 3, 53, 0
5, 28947, Note_off_c, 3, 60, 0
5, 28951, Note_off_c, 3, 57, 0
5, 28983, Note_on_c, 3, 53, 53
5, 28985, Note_on_c, 3, 51, 48
5, 29015, Note_off_c, 3, 51, 0
5, 29023, Note_off_c, 3, 53, 0
5, 29040, Control_c, 3, 64, 0
5, 29040, Control_c, 3, 64, 127
5, 29040, Control_c, 3, 64, 0
5, 29041, Note_on_c, 3, 57, 59
5, 29058, Control_c, 3, 64, 127
5, 29133, Note_off_c, 3, 57, 0
5, 29160, Note_on_c, 3, 54, 57
5, 29162, Note_on_c, 3, 51, 44
5, 29209, Note_off_c, 3, 54, 0
5, 29220, Note_off_c, 3, 51, 0
5, 29223, Note_on_c, 3, 57, 41
5, 29252, Note_off_c, 3, 57, 0
5, 29280, Control_c, 3, 64, 0
5, 29283, Note_on_c, 3, 53, 57
5, 29284, Note_on_c, 3, 50, 55
5, 29292, Control_c, 3, 64, 127
5, 29326, Note_off_c, 3, 53, 0
5, 29326, Note_off_c, 3, 50, 0
5, 29384, Note_on_c, 3, 53, 43
5, 29389, Note_on_c, 3, 58, 60
5, 29402, Note_on_c, 3, 62, 55
5, 29429, Note_off_c, 3, 53, 0
5, 29434, Note_off_c, 3, 58, 0
5, 29439, Note_off_c, 3, 62, 0
5, 29575, Note_on_c, 3, 58, 60
5, 29580, Note_on_c, 3, 50, 45
5, 29618, Note_off_c, 3, 58, 0
5, 29618, Note_off_c, 3, 50, 0
5, 29639, Note_on_c, 3, 53, 36
5, 29656, Note_off_c, 3, 53, 0
5, 29697, Note_on_c, 3, 50, 41
5, 29697, Note_on_c, 3, 62, 51
5, 29724, Note_off_c, 3, 62, 0
5, 29730, Note_off_c, 3, 50, 0
5, 29760, Control_c, 3, 64, 0
5, 29761, Note_on_c, 3, 50, 68
5, 29763, Note_on_c, 3, 53, 59
5, 29835, Note_off_c, 3, 53, 0
5, 29876, Note_on_c, 3, 57, 71
5, 29878, Note_on_c, 3, 62, 59
5, 29882, Note_on_c, 3, 53, 53
5, 29884, Control_c, 3, 64, 127
5, 29894, Note_off_c, 3, 50, 0
5, 29907, Note_off_c, 3, 53, 0
5, 29909, Note_off_c, 3, 62, 0
5, 29914, Note_off_c, 3, 57, 0
5, 29936, Note_on_c, 3, 57, 76
5, 29945, Note_on_c, 3, 53, 23
5, 29963, Note_off_c, 3, 53, 0
5, 29975, Note_off_c, 3, 57, 0
5, 29999, Note_on_c, 3, 50, 33
5, 30049, Note_off_c, 3, 50, 0
5, 30057, Note_on_c, 3, 62, 61
5, 30058, Note_on_c, 3, 57, 68
5, 30094, Note_off_c, 3, 62, 0
5, 30102, Note_off_c, 3, 57, 0
5, 30120, Note_on_c, 3, 53, 48
5, 30147, Note_off_c, 3, 53, 0
5, 30183, Note_on_c, 3, 53, 41
5, 30204, Note_off_c, 3, 53, 0
5, 30240, Control_c, 3, 64, 0
5, 30241, Note_on_c, 3, 51, 68
5, 30243, Note_on_c, 3, 55, 59
5, 30315, Note_off_c, 3, 55, 0
5, 30356, Note_on_c, 3, 58, 71
5, 30358, Note_on_c, 3, 63, 59
5, 30362, Note_on_c, 3, 55, 53
5, 30364, Control_c, 3, 64, 127
5, 30374, Note_off_c, 3, 51, 0
5, 30387, Note_off_c, 3, 55, 0
5, 30389, Note_off_c, 3, 63, 0
5, 30394, Note_off_c, 3, 58, 0
5, 30416, Note_on_c, 3, 58, 76
5, 30425, Note_on_c, 3, 55, 23
5, 30443, Note_off_c, 3, 55, 0
5, 30455, Note_off_c, 3, 58, 0
5, 30479, Note_on_c, 3, 51, 33
5, 30529, Note_off_c, 3, 51, 0
5, 30537, Note_on_c, 3, 63, 61
5, 30538, Note_on_c, 3, 58, 68
5, 30574, Note_off_c, 3, 63, 0
5, 30582, Note_off_c, 3, 58, 0
5, 30600, Note_on_c, 3, 55, 48
5, 30627, Note_off_c, 3, 55, 0
5, 30663, Note_on_c, 3, 55, 41
5, 30684, Note_off_c, 3, 55, 0
5, 30720, Control_c, 3, 64, 0
5, 30721, Note_on_c, 3, 50, 68
5, 30723, Note_on_c, 3, 53, 59
5, 30795, Note_off_c, 3, 53, 0
5, 30836, Note_on_c, 3, 58, 71
5, 30838, Note_on_c, 3, 62, 59
5, 30842, Note_on_c, 3, 53, 53
5, 30844, Control_c, 3, 64, 127
5, 30854, Note_off_c, 3, 50, 0
5, 30867, Note_off_c, 3, 53, 0
5, 30869, Note_off_c, 3, 62, 0
5, 30874, Note_off_c, 3, 58, 0
5, 30896, Note_on_c, 3, 58, 76
5, 30905, Note_on_c, 3, 53, 23
5, 30923, Note_off_c, 3, 53, 0
5, 30935, Note_off_c, 3, 58, 0
5, 30959, Note_on_c, 3, 50, 33
5, 31009, Note_off_c, 3, 50, 0
5, 31017, Note_on_c, 3, 62, 61
5, 31018, Note_on_c, 3, 58, 68
5, 31054, Note_off_c, 3, 62, 0
5, 31062, Note_off_c, 3, 58, 0
5, 31080, Note_on_c, 3, 53, 48
5, 31107, Note_off_c, 3, 53, 0
5, 31143, Note_on_c, 3, 53, 41
5, 31164, Note_off_c, 3, 53, 0
5, 31200, Control_c, 3, 64, 0
5, 31200, Note_on_c, 3, 58, 55
5, 31200, Note_on_c, 3, 60, 45
5, 31203, Note_on_c, 3, 55, 44
5, 31216, Control_c, 3, 64, 127
5, 31248, Note_off_c, 3, 55, 0
5, 31250, Note_off_c, 3, 60, 0
5, 31254, Note_off_c, 3, 58, 0
5, 31322, Note_on_c, 3, 58, 62
5, 31324, Note_on_c, 3, 51, 38
5, 31324, Note_on_c, 3, 55, 53
5, 31324, Note_on_c, 3, 60, 59
5, 31358, Note_off_c, 3, 51, 0
5, 31360, Note_off_c, 3, 55, 0
5, 31364, Note_off_c, 3, 58, 0
5, 31366, Note_off_c, 3, 60, 0
5, 31440, Control_c, 3, 64, 0
5, 31440, Note_on_c, 3, 58, 69
5, 31440, Note_on_c, 3, 63, 59
5, 31442, Note_on_c, 3, 51, 41
5, 31443, Note_on_c, 3, 54, 58
5, 31456, Control_c, 3, 64, 127
5, 31488, Note_off_c, 3, 54, 0
5, 31490, Note_off_c, 3, 63, 0
5, 31492, Note_off_c, 3, 51, 0
5, 31494, Note_off_c, 3, 58, 0
5, 31512, Note_on_c, 3, 51, 32
5, 31523, Note_off_c, 3, 51, 0
5, 31562, Note_on_c, 3, 58, 76
5, 31564, Note_on_c, 3, 51, 52
5, 31564, Note_on_c, 3, 54, 67
5, 31564, Note_on_c, 3, 63, 73
5, 31598, Note_off_c, 3, 51, 0
5, 31600, Note_off_c, 3, 54, 0
5, 31604, Note_off_c, 3, 58, 0
5, 31606, Note_off_c, 3, 63, 0
5, 31620, Note_on_c, 3, 51, 17
5, 31620, Note_on_c, 3, 54, 11
5, 31643, Note_off_c, 3, 51, 0
5, 31645, Note_off_c, 3, 54, 0
5, 31680, Control_c, 3, 64, 0
5, 31680, Note_on_c, 3, 58, 69
5, 31680, Note_on_c, 3, 62, 59
5, 31682, Note_on_c, 3, 50, 41
5, 31683, Note_on_c, 3, 53, 58
5, 31696, Control_c, 3, 64, 127
5, 31728, Note_off_c, 3, 53, 0
5, 31730, Note_off_c, 3, 62, 0
5, 31732, Note_off_c, 3, 50, 0
5, 31734, Note_off_c, 3, 58, 0
5, 31752, Note_on_c, 3, 50, 32
5, 31763, Note_off_c, 3, 50, 0
5, 31802, Note_on_c, 3, 58, 76
5, 31804, Note_on_c, 3, 50, 52
5, 31804, Note_on_c, 3, 53, 67
5, 31804, Note_on_c, 3, 62, 73
5, 31838, Note_off_c, 3, 50, 0
5, 31840, Note_off_c, 3, 53, 0
5, 31844, Note_off_c, 3, 58, 0
5, 31846, Note_off_c, 3, 62, 0
5, 31860, Note_on_c, 3, 50, 17
5, 31860, Note_on_c, 3, 53, 11
5, 31883, Note_off_c, 3, 50, 0
5, 31885, Note_off_c, 3, 53, 0
5, 31920, Control_c, 3, 64, 0
5, 31920, Note_on_c, 3, 46, 38
5, 31920, Note_on_c, 3, 55, 63
5, 31989, Note_off_c, 3, 46, 0
5, 31995, Note_off_c, 3, 55, 0
5, 32040, Note_on_c, 3, 46, 38
5, 32040, Note_on_c, 3, 53, 63
5, 32109, Note_off_c, 3, 46, 0
5, 32115, Note_off_c, 3, 53, 0
5, 32160, Note_on_c, 3, 58, 69
5, 32160, Note_on_c, 3, 60, 59
5, 32162, Note_on_c, 3, 51, 41
5, 32163, Note_on_c, 3, 55, 58
5, 32176, Control_c, 3, 64, 127
5, 32208, Note_off_c, 3, 55, 0
5, 32210, Note_off_c, 3, 60, 0
5, 32212, Note_off_c, 3, 51, 0
5, 32214, Note_off_c, 3, 58, 0
5, 32232, Note_on_c, 3, 51, 32
5, 32243, Note_off_c, 3, 51, 0
5, 32282, Note_on_c, 3, 58, 76
5, 32284, Note_on_c, 3, 51, 52
5, 32284, Note_on_c, 3, 55, 67
5, 32284, Note_on_c, 3, 60, 73
5, 32318, Note_off_c, 3, 51, 0
5, 32320, Note_off_c, 3, 55, 0
5, 32324, Note_off_c, 3, 58, 0
5, 32326, Note_off_c, 3, 60, 0
5, 32340, Note_on_c, 3, 51, 17
5, 32340, Note_on_c, 3, 55, 11
5, 32363, Note_off_c, 3, 51, 0
5, 32365, Note_off_c, 3, 55, 0
5, 32400, Control_c, 3, 64, 0
5, 32400, Note_on_c, 3, 53, 56
5, 32403, Control_c, 3, 64, 127
5, 32406, Note_on_c, 3, 51, 33
5, 32462, Note_on_c, 3, 60, 50
5, 32464, Note_on_c, 3, 57, 64
5, 32540, Note_off_c, 3, 51, 0
5, 32542, Note_off_c, 3, 53, 0
5, 32547, Note_off_c, 3, 60, 0
5, 32551, Note_off_c, 3, 57, 0
5, 32583, Note_on_c, 3, 53, 53
5, 32585, Note_on_c, 3, 51, 48
5, 32615, Note_off_c, 3, 51, 0
5, 32623, Note_off_c, 3, 53, 0
5, 32640, Control_c, 3, 64, 0
5, 32640, Control_c, 3, 64, 127
5, 32645, Note_on_c, 3, 50, 59
5, 32645, Note_on_c, 3, 53, 68
5, 32715, Note_off_c, 3, 53, 0
5, 32722, Note_off_c, 3, 50, 0
5, 32760, Note_on_c, 3, 50, 43
5, 32760, Note_on_c, 3, 58, 65
5, 32760, Note_on_c, 3, 62, 53
5, 32762, Note_on_c, 3, 53, 53
5, 32803, Note_off_c, 3, 53, 0
5, 32805, Note_off_c, 3, 50, 0
5, 32809, Note_off_c, 3, 58, 0
5, 32809, Note_off_c, 3, 62, 0
5, 32823, Note_on_c, 3, 53, 40
5, 32825, Note_on_c, 3, 50, 22
5, 32880, Note_off_c, 3, 53, 0
5, 32880, Note_off_c, 3, 50, 0
5, 32880, Control_c, 3, 64, 0
5, 32880, Control_c, 3, 64, 127
5, 32880, Control_c, 3, 64, 0
5, 32881, Note_on_c, 3, 55, 59
5, 32898, Control_c, 3, 64, 127
5, 32973, Note_off_c, 3, 55, 0
5, 33000, Note_on_c, 3, 51, 57
5, 33002, Note_on_c, 3, 49, 44
5, 33049, Note_off_c, 3, 51, 0
5, 33060, Note_off_c, 3, 49, 0
5, 33063, Note_on_c, 3, 55, 41
5, 33092, Note_off_c, 3, 55, 0
5, 33120, Control_c, 3, 64, 0
5, 33121, Note_on_c, 3, 50, 68
5, 33123, Note_on_c, 3, 53, 59
5, 33195, Note_off_c, 3, 53, 0
5, 33236, Note_on_c, 3, 58, 71
5, 33238, Note_on_c, 3, 62, 59
5, 33242, Note_on_c, 3, 53, 53
5, 33244, Control_c, 3, 64, 127
5, 33254, Note_off_c, 3, 50, 0
5, 33267, Note_off_c, 3, 53, 0
5, 33269, Note_off_c, 3, 62, 0
5, 33274, Note_off_c, 3, 58, 0
5, 33296, Note_on_c, 3, 58, 76
5, 33305, Note_on_c, 3, 53, 23
5, 33323, Note_off_c, 3, 53, 0
5, 33335, Note_off_c, 3, 58, 0
5, 33359, Note_on_c, 3, 50, 33
5, 33409, Note_off_c, 3, 50, 0
5, 33417, Note_on_c, 3, 62, 61
5, 33418, Note_on_c, 3, 58, 68
5, 33454, Note_off_c, 3, 62, 0
5, 33462, Note_off_c, 3, 58, 0
5, 33600, Control_c, 3, 64, 0
5, 33600, Control_c, 3, 64, 0
5, 33600, End_track
6, 0, Start_track
6, 0, Title_t, "Melody 1\000"
6, 0, Control_c, 4, 121, 0
6, 0, Program_c, 4, 26
6, 0, Control_c, 4, 7, 95
6, 0, Control_c, 4, 10, 84
6, 0, Control_c, 4, 91, 110
6, 0, Control_c, 4, 93, 75
6, 0, Control_c, 4, 123, 0
6, 0, Control_c, 4, 1, 20
6, 0, Control_c, 4, 5, 127
6, 2400, Note_on_c, 4, 70, 78
6, 2760, Note_off_c, 4, 70, 0
6, 2760, Note_on_c, 4, 72, 78
6, 2880, Note_off_c, 4, 72, 0
6, 2880, Note_on_c, 4, 69, 78
6, 3000, Note_off_c, 4, 69, 0
6, 3000, Note_on_c, 4, 65, 78
6, 3360, Note_off_c, 4, 65, 0
6, 3420, Note_on_c, 4, 67, 78
6, 3480, Note_off_c, 4, 67, 0
6, 3480, Note_on_c, 4, 67, 78
6, 3540, Note_off_c, 4, 67, 0
6, 3540, Note_on_c, 4, 67, 78
6, 3600, Note_off_c, 4, 67, 0
6, 3600, Note_on_c, 4, 69, 78
6, 3780, Note_off_c, 4, 69, 0
6, 3780, Note_on_c, 4, 67, 68
6, 3835, Note_off_c, 4, 67, 0
6, 3840, Note_on_c, 4, 70, 61
6, 3870, Note_off_c, 4, 70, 0
6, 3870, Note_on_c, 4, 67, 58
6, 3900, Note_on_c, 4, 65, 76
6, 3910, Note_off_c, 4, 67, 0
6, 4200, Note_off_c, 4, 65, 0
6, 4440, Note_on_c, 4, 60, 78
6, 4500, Note_off_c, 4, 60, 0
6, 4500, Note_on_c, 4, 62, 78
6, 4560, Note_off_c, 4, 62, 0
6, 4560, Note_on_c, 4, 63, 78
6, 4640, Note_off_c, 4, 63, 0
6, 4640, Note_on_c, 4, 62, 78
6, 4720, Note_off_c, 4, 62, 0
6, 4720, Note_on_c, 4, 60, 78
6, 4800, Note_off_c, 4, 60, 0
6, 4800, Note_on_c, 4, 62, 78
6, 4970, Note_off_c, 4, 62, 0
6, 4980, Note_on_c, 4, 65, 78
6, 5040, Note_off_c, 4, 65, 0
6, 5040, Note_on_c, 4, 70, 78
6, 5280, Note_off_c, 4, 70, 0
6, 5400, Note_on_c, 4, 70, 78
6, 5520, Note_off_c, 4, 70, 0
6, 5520, Note_on_c, 4, 70, 78
6, 5600, Note_off_c, 4, 70, 0
6, 5600, Note_on_c, 4, 67, 78
6, 5680, Note_off_c, 4, 67, 0
6, 5680, Note_on_c, 4, 74, 78
6, 5760, Note_off_c, 4, 74, 0
6, 5760, Note_on_c, 4, 72, 78
6, 6000, Note_off_c, 4, 72, 0
6, 6000, Note_on_c, 4, 74, 78
6, 6080, Note_off_c, 4, 74, 0
6, 6080, Note_on_c, 4, 74, 78
6, 6160, Note_off_c, 4, 74, 0
6, 6160, Note_on_c, 4, 72, 78
6, 6240, Note_off_c, 4, 72, 0
6, 6240, Note_on_c, 4, 70, 78
6, 6600, Note_off_c, 4, 70, 0
6, 6600, Note_on_c, 4, 72, 78
6, 6720, Note_off_c, 4, 72, 0
6, 6720, Note_on_c, 4, 69, 78
6, 6840, Note_off_c, 4, 69, 0
6, 6840, Note_on_c, 4, 65, 78
6, 7200, Note_off_c, 4, 65, 0
6, 7260, Note_on_c, 4, 67, 78
6, 7320, Note_off_c, 4, 67, 0
6, 7320, Note_on_c, 4, 67, 78
6, 7380, Note_off_c, 4, 67, 0
6, 7380, Note_on_c, 4, 67, 78
6, 7440, Note_off_c, 4, 67, 0
6, 7440, Note_on_c, 4, 69, 78
6, 7620, Note_off_c, 4, 69, 0
6, 7620, Note_on_c, 4, 67, 68
6, 7675, Note_off_c, 4, 67, 0
6, 7680, Note_on_c, 4, 70, 61
6, 7710, Note_off_c, 4, 70, 0
6, 7710, Note_on_c, 4, 67, 58
6, 7740, Note_on_c, 4, 65, 76
6, 7750, Note_off_c, 4, 67, 0
6, 8160, Note_off_c, 4, 65, 0
6, 8280, Note_on_c, 4, 60, 78
6, 8340, Note_off_c, 4, 60, 0
6, 8340, Note_on_c, 4, 62, 78
6, 8400, Note_off_c, 4, 62, 0
6, 8400, Note_on_c, 4, 63, 78
6, 8480, Note_off_c, 4, 63, 0
6, 8480, Note_on_c, 4, 62, 78
6, 8560, Note_off_c, 4, 62, 0
6, 8560, Note_on_c, 4, 60, 78
6, 8640, Note_off_c, 4, 60, 0
6, 8640, Note_on_c, 4, 62, 78
6, 8820, Note_off_c, 4, 62, 0
6, 8820, Note_on_c, 4, 65, 78
6, 8880, Note_off_c, 4, 65, 0
6, 8880, Note_on_c, 4, 70, 78
6, 9120, Note_off_c, 4, 70, 0
6, 9240, Note_on_c, 4, 70, 78
6, 9300, Note_off_c, 4, 70, 0
6, 9300, Note_on_c, 4, 67, 78
6, 9360, Note_off_c, 4, 67, 0
6, 9360, Note_on_c, 4, 69, 78
6, 9440, Note_off_c, 4, 69, 0
6, 9440, Note_on_c, 4, 70, 78
6, 9520, Note_off_c, 4, 70, 0
6, 9520, Note_on_c, 4, 72, 78
6, 9600, Note_off_c, 4, 72, 0
6, 9600, Note_on_c, 4, 70, 78
6, 9840, Note_off_c, 4, 70, 0
6, 9840, Note_on_c, 4, 58, 78
6, 9920, Note_off_c, 4, 58, 0
6, 9920, Note_on_c, 4, 63, 78
6, 10000, Note_off_c, 4, 63, 0
6, 10000, Note_on_c, 4, 67, 78
6, 10080, Note_off_c, 4, 67, 0
6, 10080, Note_on_c, 4, 70, 78
6, 10140, Note_off_c, 4, 70, 0
6, 10140, Note_on_c, 4, 67, 78
6, 10680, Note_off_c, 4, 67, 0
6, 10680, Note_on_c, 4, 67, 78
6, 10740, Note_off_c, 4, 67, 0
6, 10740, Note_on_c, 4, 69, 78
6, 10800, Note_off_c, 4, 69, 0
6, 10800, Note_on_c, 4, 70, 78
6, 10880, Note_off_c, 4, 70, 0
6, 10880, Note_on_c, 4, 69, 78
6, 10960, Note_off_c, 4, 69, 0
6, 10960, Note_on_c, 4, 67, 78
6, 11040, Note_off_c, 4, 67, 0
6, 11040, Note_on_c, 4, 67, 78
6, 11100, Note_off_c, 4, 67, 0
6, 11100, Note_on_c, 4, 65, 78
6, 11640, Note_off_c, 4, 65, 0
6, 11640, Note_on_c, 4, 58, 78
6, 11760, Note_off_c, 4, 58, 0
6, 11760, Note_on_c, 4, 62, 78
6, 11880, Note_off_c, 4, 62, 0
6, 11880, Note_on_c, 4, 65, 78
6, 12000, Note_off_c, 4, 65, 0
6, 12000, Note_on_c, 4, 70, 78
6, 12120, Note_off_c, 4, 70, 0
6, 12120, Note_on_c, 4, 70, 78
6, 12600, Note_off_c, 4, 70, 0
6, 12600, Note_on_c, 4, 70, 78
6, 12720, Note_off_c, 4, 70, 0
6, 12720, Note_on_c, 4, 70, 78
6, 12780, Note_off_c, 4, 70, 0
6, 12780, Note_on_c, 4, 67, 78
6, 12900, Note_off_c, 4, 67, 0
6, 12900, Note_on_c, 4, 74, 78
6, 12960, Note_off_c, 4, 74, 0
6, 12960, Note_on_c, 4, 72, 78
6, 13560, Note_off_c, 4, 72, 0
6, 13560, Note_on_c, 4, 74, 78
6, 13680, Note_off_c, 4, 74, 0
6, 13680, Note_on_c, 4, 74, 78
6, 13800, Note_off_c, 4, 74, 0
6, 13800, Note_on_c, 4, 72, 78
6, 13920, Note_off_c, 4, 72, 0
6, 13920, Note_on_c, 4, 70, 78
6, 14280, Note_off_c, 4, 70, 0
6, 14280, Note_on_c, 4, 72, 78
6, 14400, Note_off_c, 4, 72, 0
6, 14400, Note_on_c, 4, 69, 78
6, 14520, Note_off_c, 4, 69, 0
6, 14520, Note_on_c, 4, 65, 78
6, 14880, Note_off_c, 4, 65, 0
6, 14940, Note_on_c, 4, 67, 78
6, 15000, Note_off_c, 4, 67, 0
6, 15000, Note_on_c, 4, 67, 78
6, 15060, Note_off_c, 4, 67, 0
6, 15060, Note_on_c, 4, 67, 78
6, 15120, Note_off_c, 4, 67, 0
6, 15120, Note_on_c, 4, 69, 78
6, 15300, Note_off_c, 4, 69, 0
6, 15300, Note_on_c, 4, 67, 68
6, 15355, Note_off_c, 4, 67, 0
6, 15360, Note_on_c, 4, 70, 61
6, 15390, Note_off_c, 4, 70, 0
6, 15390, Note_on_c, 4, 67, 58
6, 15420, Note_on_c, 4, 65, 77
6, 15430, Note_off_c, 4, 67, 0
6, 15820, Note_off_c, 4, 65, 0
6, 15960, Note_on_c, 4, 60, 78
6, 16020, Note_off_c, 4, 60, 0
6, 16020, Note_on_c, 4, 62, 78
6, 16080, Note_off_c, 4, 62, 0
6, 16080, Note_on_c, 4, 63, 78
6, 16160, Note_off_c, 4, 63, 0
6, 16160, Note_on_c, 4, 62, 78
6, 16240, Note_off_c, 4, 62, 0
6, 16240, Note_on_c, 4, 60, 78
6, 16320, Note_off_c, 4, 60, 0
6, 16320, Note_on_c, 4, 62, 78
6, 16500, Note_off_c, 4, 62, 0
6, 16500, Note_on_c, 4, 65, 78
6, 16560, Note_off_c, 4, 65, 0
6, 16560, Note_on_c, 4, 70, 78
6, 16920, Note_off_c, 4, 70, 0
6, 16920, Note_on_c, 4, 70, 78
6, 16980, Note_off_c, 4, 70, 0
6, 16980, Note_on_c, 4, 67, 78
6, 17040, Note_off_c, 4, 67, 0
6, 17040, Note_on_c, 4, 69, 78
6, 17100, Note_off_c, 4, 69, 0
6, 17100, Note_on_c, 4, 70, 78
6, 17160, Note_off_c, 4, 70, 0
6, 17160, Note_on_c, 4, 72, 78
6, 17280, Note_off_c, 4, 72, 0
6, 17280, Note_on_c, 4, 70, 78
6, 17520, Note_off_c, 4, 70, 0
6, 17760, Note_on_c, 4, 70, 78
6, 18120, Note_off_c, 4, 70, 0
6, 18120, Note_on_c, 4, 72, 78
6, 18240, Note_off_c, 4, 72, 0
6, 18240, Note_on_c, 4, 69, 78
6, 18360, Note_off_c, 4, 69, 0
6, 18360, Note_on_c, 4, 65, 78
6, 18720, Note_off_c, 4, 65, 0
6, 18780, Note_on_c, 4, 67, 78
6, 18840, Note_off_c, 4, 67, 0
6, 18840, Note_on_c, 4, 67, 78
6, 18900, Note_off_c, 4, 67, 0
6, 18900, Note_on_c, 4, 67, 78
6, 18960, Note_off_c, 4, 67, 0
6, 18960, Note_on_c, 4, 69, 78
6, 19140, Note_off_c, 4, 69, 0
6, 19140, Note_on_c, 4, 67, 68
6, 19195, Note_off_c, 4, 67, 0
6, 19200, Note_on_c, 4, 70, 61
6, 19230, Note_off_c, 4, 70, 0
6, 19230, Note_on_c, 4, 67, 58
6, 19260, Note_on_c, 4, 65, 76
6, 19270, Note_off_c, 4, 67, 0
6, 19660, Note_off_c, 4, 65, 0
6, 19800, Note_on_c, 4, 60, 78
6, 19860, Note_off_c, 4, 60, 0
6, 19860, Note_on_c, 4, 62, 78
6, 19920, Note_off_c, 4, 62, 0
6, 19920, Note_on_c, 4, 63, 78
6, 20000, Note_off_c, 4, 63, 0
6, 20000, Note_on_c, 4, 62, 78
6, 20080, Note_off_c, 4, 62, 0
6, 20080, Note_on_c, 4, 60, 78
6, 20160, Note_off_c, 4, 60, 0
6, 20160, Note_on_c, 4, 62, 78
6, 20340, Note_off_c, 4, 62, 0
6, 20340, Note_on_c, 4, 65, 78
6, 20400, Note_off_c, 4, 65, 0
6, 20400, Note_on_c, 4, 70, 78
6, 20640, Note_off_c, 4, 70, 0
6, 20760, Note_on_c, 4, 70, 78
6, 20880, Note_off_c, 4, 70, 0
6, 20880, Note_on_c, 4, 70, 78
6, 20960, Note_off_c, 4, 70, 0
6, 20960, Note_on_c, 4, 67, 78
6, 21040, Note_off_c, 4, 67, 0
6, 21040, Note_on_c, 4, 74, 78
6, 21120, Note_off_c, 4, 74, 0
6, 21120, Note_on_c, 4, 72, 78
6, 21360, Note_off_c, 4, 72, 0
6, 21360, Note_on_c, 4, 74, 78
6, 21440, Note_off_c, 4, 74, 0
6, 21440, Note_on_c, 4, 74, 78
6, 21520, Note_off_c, 4, 74, 0
6, 21520, Note_on_c, 4, 72, 78
6, 21600, Note_off_c, 4, 72, 0
6, 21600, Note_on_c, 4, 70, 78
6, 21960, Note_off_c, 4, 70, 0
6, 21960, Note_on_c, 4, 72, 78
6, 22080, Note_off_c, 4, 72, 0
6, 22080, Note_on_c, 4, 69, 78
6, 22200, Note_off_c, 4, 69, 0
6, 22200, Note_on_c, 4, 65, 78
6, 22560, Note_off_c, 4, 65, 0
6, 22620, Note_on_c, 4, 67, 78
6, 22680, Note_off_c, 4, 67, 0
6, 22680, Note_on_c, 4, 67, 78
6, 22740, Note_off_c, 4, 67, 0
6, 22740, Note_on_c, 4, 67, 78
6, 22800, Note_off_c, 4, 67, 0
6, 22800, Note_on_c, 4, 69, 78
6, 22980, Note_off_c, 4, 69, 0
6, 22980, Note_on_c, 4, 67, 68
6, 23035, Note_off_c, 4, 67, 0
6, 23040, Note_on_c, 4, 70, 61
6, 23070, Note_off_c, 4, 70, 0
6, 23070, Note_on_c, 4, 67, 58
6, 23100, Note_on_c, 4, 65, 76
6, 23110, Note_off_c, 4, 67, 0
6, 23500, Note_off_c, 4, 65, 0
6, 23640, Note_on_c, 4, 60, 78
6, 23700, Note_off_c, 4, 60, 0
6, 23700, Note_on_c, 4, 62, 78
6, 23760, Note_off_c, 4, 62, 0
6, 23760, Note_on_c, 4, 63, 78
6, 23840, Note_off_c, 4, 63, 0
6, 23840, Note_on_c, 4, 62, 78
6, 23920, Note_off_c, 4, 62, 0
6, 23920, Note_on_c, 4, 60, 78
6, 24000, Note_off_c, 4, 60, 0
6, 24000, Note_on_c, 4, 62, 78
6, 24180, Note_off_c, 4, 62, 0
6, 24180, Note_on_c, 4, 65, 78
6, 24240, Note_off_c, 4, 65, 0
6, 24240, Note_on_c, 4, 70, 78
6, 24480, Note_off_c, 4, 70, 0
6, 24600, Note_on_c, 4, 70, 78
6, 24660, Note_off_c, 4, 70, 0
6, 24660, Note_on_c, 4, 67, 78
6, 24720, Note_off_c, 4, 67, 0
6, 24720, Note_on_c, 4, 69, 78
6, 24800, Note_off_c, 4, 69, 0
6, 24800, Note_on_c, 4, 70, 78
6, 24880, Note_off_c, 4, 70, 0
6, 24880, Note_on_c, 4, 72, 78
6, 24960, Note_off_c, 4, 72, 0
6, 24960, Note_on_c, 4, 70, 78
6, 25200, Note_off_c, 4, 70, 0
6, 25200, Note_on_c, 4, 58, 78
6, 25280, Note_off_c, 4, 58, 0
6, 25280, Note_on_c, 4, 63, 78
6, 25360, Note_off_c, 4, 63, 0
6, 25360, Note_on_c, 4, 67, 78
6, 25440, Note_off_c, 4, 67, 0
6, 25440, Note_on_c, 4, 70, 78
6, 25500, Note_off_c, 4, 70, 0
6, 25500, Note_on_c, 4, 67, 78
6, 26040, Note_off_c, 4, 67, 0
6, 26040, Note_on_c, 4, 67, 78
6, 26100, Note_off_c, 4, 67, 0
6, 26100, Note_on_c, 4, 69, 78
6, 26160, Note_off_c, 4, 69, 0
6, 26160, Note_on_c, 4, 70, 78
6, 26240, Note_off_c, 4, 70, 0
6, 26240, Note_on_c, 4, 69, 78
6, 26320, Note_off_c, 4, 69, 0
6, 26320, Note_on_c, 4, 67, 78
6, 26400, Note_off_c, 4, 67, 0
6, 26400, Note_on_c, 4, 67, 78
6, 26460, Note_off_c, 4, 67, 0
6, 26460, Note_on_c, 4, 65, 78
6, 27000, Note_off_c, 4, 65, 0
6, 27000, Note_on_c, 4, 58, 78
6, 27120, Note_off_c, 4, 58, 0
6, 27120, Note_on_c, 4, 62, 78
6, 27240, Note_off_c, 4, 62, 0
6, 27240, Note_on_c, 4, 65, 78
6, 27360, Note_off_c, 4, 65, 0
6, 27360, Note_on_c, 4, 70, 78
6, 27480, Note_off_c, 4, 70, 0
6, 27480, Note_on_c, 4, 70, 78
6, 27960, Note_off_c, 4, 70, 0
6, 27960, Note_on_c, 4, 70, 78
6, 28080, Note_off_c, 4, 70, 0
6, 28080, Note_on_c, 4, 70, 78
6, 28140, Note_off_c, 4, 70, 0
6, 28140, Note_on_c, 4, 67, 78
6, 28260, Note_off_c, 4, 67, 0
6, 28260, Note_on_c, 4, 74, 78
6, 28320, Note_off_c, 4, 74, 0
6, 28320, Note_on_c, 4, 72, 78
6, 28920, Note_off_c, 4, 72, 0
6, 28920, Note_on_c, 4, 74, 78
6, 29040, Note_off_c, 4, 74, 0
6, 29040, Note_on_c, 4, 74, 78
6, 29160, Note_off_c, 4, 74, 0
6, 29160, Note_on_c, 4, 72, 78
6, 29280, Note_off_c, 4, 72, 0
6, 29280, Note_on_c, 4, 70, 78
6, 29640, Note_off_c, 4, 70, 0
6, 29640, Note_on_c, 4, 72, 78
6, 29760, Note_off_c, 4, 72, 0
6, 29760, Note_on_c, 4, 69, 78
6, 29880, Note_off_c, 4, 69, 0
6, 29880, Note_on_c, 4, 65, 78
6, 30240, Note_off_c, 4, 65, 0
6, 30300, Note_on_c, 4, 67, 78
6, 30360, Note_off_c, 4, 67, 0
6, 30360, Note_on_c, 4, 67, 78
6, 30420, Note_off_c, 4, 67, 0
6, 30420, Note_on_c, 4, 67, 78
6, 30480, Note_off_c, 4, 67, 0
6, 30480, Note_on_c, 4, 69, 78
6, 30660, Note_off_c, 4, 69, 0
6, 30660, Note_on_c, 4, 67, 68
6, 30715, Note_off_c, 4, 67, 0
6, 30720, Note_on_c, 4, 70, 61
6, 30750, Note_off_c, 4, 70, 0
6, 30750, Note_on_c, 4, 67, 58
6, 30780, Note_on_c, 4, 65, 76
6, 30790, Note_off_c, 4, 67, 0
6, 31180, Note_off_c, 4, 65, 0
6, 31320, Note_on_c, 4, 60, 78
6, 31380, Note_off_c, 4, 60, 0
6, 31380, Note_on_c, 4, 62, 78
6, 31440, Note_off_c, 4, 62, 0
6, 31440, Note_on_c, 4, 63, 78
6, 31520, Note_off_c, 4, 63, 0
6, 31520, Note_on_c, 4, 62, 78
6, 31600, Note_off_c, 4, 62, 0
6, 31600, Note_on_c, 4, 60, 78
6, 31680, Note_off_c, 4, 60, 0
6, 31680, Note_on_c, 4, 62, 78
6, 31860, Note_off_c, 4, 62, 0
6, 31860, Note_on_c, 4, 65, 78
6, 31920, Note_off_c, 4, 65, 0
6, 31920, Note_on_c, 4, 70, 78
6, 32280, Note_off_c, 4, 70, 0
6, 32280, Note_on_c, 4, 70, 78
6, 32340, Note_off_c, 4, 70, 0
6, 32340, Note_on_c, 4, 67, 78
6, 32400, Note_off_c, 4, 67, 0
6, 32400, Note_on_c, 4, 69, 78
6, 32460, Note_off_c, 4, 69, 0
6, 32460, Note_on_c, 4, 70, 78
6, 32520, Note_off_c, 4, 70, 0
6, 32520, Note_on_c, 4, 72, 78
6, 32640, Note_off_c, 4, 72, 0
6, 32640, Note_on_c, 4, 70, 78
6, 33600, Note_off_c, 4, 70, 0
6, 33600, End_track
7, 0, Start_track
7, 0, Title_t, "Melody 2\000"
7, 0, Program_c, 5, 50
7, 0, Control_c, 5, 7, 85
7, 0, Control_c, 5, 10, 34
7, 0, Control_c, 5, 91, 55
7, 0, Control_c, 5, 93, 60
7, 4, Control_c, 5, 121, 0
7, 4, Control_c, 5, 123, 0
7, 604, Note_on_c, 5, 60, 78
7, 664, Note_off_c, 5, 60, 0
7, 664, Note_on_c, 5, 62, 78
7, 724, Note_off_c, 5, 62, 0
7, 724, Note_on_c, 5, 63, 78
7, 804, Note_off_c, 5, 63, 0
7, 804, Note_on_c, 5, 62, 78
7, 884, Note_off_c, 5, 62, 0
7, 884, Note_on_c, 5, 60, 78
7, 964, Note_off_c, 5, 60, 0
7, 964, Note_on_c, 5, 62, 78
7, 1144, Note_off_c, 5, 62, 0
7, 1144, Note_on_c, 5, 65, 78
7, 1204, Note_off_c, 5, 65, 0
7, 1204, Note_on_c, 5, 70, 78
7, 1564, Note_off_c, 5, 70, 0
7, 1564, Note_on_c, 5, 70, 78
7, 1624, Note_off_c, 5, 70, 0
7, 1624, Note_on_c, 5, 67, 78
7, 1684, Note_off_c, 5, 67, 0
7, 1684, Note_on_c, 5, 69, 78
7, 1744, Note_off_c, 5, 69, 0
7, 1744, Note_on_c, 5, 70, 78
7, 1804, Note_off_c, 5, 70, 0
7, 1804, Note_on_c, 5, 72, 78
7, 1924, Note_off_c, 5, 72, 0
7, 1924, Note_on_c, 5, 70, 78
7, 2044, Note_off_c, 5, 70, 0
7, 2044, Note_on_c, 5, 74, 78
7, 2164, Note_off_c, 5, 74, 0
7, 2164, Note_on_c, 5, 74, 78
7, 2284, Note_off_c, 5, 74, 0
7, 2284, Note_on_c, 5, 72, 78
7, 2404, Note_off_c, 5, 72, 0
7, 2404, Note_on_c, 5, 70, 78
7, 2764, Note_off_c, 5, 70, 0
7, 2764, Note_on_c, 5, 72, 78
7, 2884, Note_off_c, 5, 72, 0
7, 2884, Note_on_c, 5, 69, 78
7, 3004, Note_off_c, 5, 69, 0
7, 3004, Note_on_c, 5, 65, 78
7, 3364, Note_off_c, 5, 65, 0
7, 3424, Note_on_c, 5, 67, 78
7, 3484, Note_off_c, 5, 67, 0
7, 3484, Note_on_c, 5, 67, 78
7, 3544, Note_off_c, 5, 67, 0
7, 3544, Note_on_c, 5, 67, 78
7, 3604, Note_off_c, 5, 67, 0
7, 3604, Note_on_c, 5, 69, 78
7, 3784, Note_off_c, 5, 69, 0
7, 3784, Note_on_c, 5, 67, 78
7, 3844, Note_off_c, 5, 67, 0
7, 3844, Note_on_c, 5, 70, 78
7, 3884, Note_off_c, 5, 70, 0
7, 3884, Note_on_c, 5, 67, 78
7, 3924, Note_off_c, 5, 67, 0
7, 3924, Note_on_c, 5, 65, 78
7, 4324, Note_off_c, 5, 65, 0
7, 4444, Note_on_c, 5, 60, 78
7, 4504, Note_off_c, 5, 60, 0
7, 4504, Note_on_c, 5, 62, 78
7, 4564, Note_off_c, 5, 62, 0
7, 4564, Note_on_c, 5, 63, 78
7, 4644, Note_off_c, 5, 63, 0
7, 4644, Note_on_c, 5, 62, 78
7, 4724, Note_off_c, 5, 62, 0
7, 4724, Note_on_c, 5, 60, 78
7, 4804, Note_off_c, 5, 60, 0
7, 4804, Note_on_c, 5, 62, 78
7, 4984, Note_off_c, 5, 62, 0
7, 4984, Note_on_c, 5, 65, 78
7, 5044, Note_off_c, 5, 65, 0
7, 5044, Note_on_c, 5, 70, 78
7, 5404, Note_off_c, 5, 70, 0
7, 5404, Note_on_c, 5, 70, 78
7, 5524, Note_off_c, 5, 70, 0
7, 5524, Note_on_c, 5, 70, 78
7, 5604, Note_off_c, 5, 70, 0
7, 5604, Note_on_c, 5, 67, 78
7, 5684, Note_off_c, 5, 67, 0
7, 5684, Note_on_c, 5, 74, 78
7, 5764, Note_off_c, 5, 74, 0
7, 5764, Note_on_c, 5, 72, 78
7, 6004, Note_off_c, 5, 72, 0
7, 6004, Note_on_c, 5, 74, 78
7, 6084, Note_off_c, 5, 74, 0
7, 6084, Note_on_c, 5, 74, 78
7, 6164, Note_off_c, 5, 74, 0
7, 6164, Note_on_c, 5, 72, 78
7, 6244, Note_off_c, 5, 72, 0
7, 6244, Note_on_c, 5, 70, 78
7, 6604, Note_off_c, 5, 70, 0
7, 6604, Note_on_c, 5, 72, 78
7, 6724, Note_off_c, 5, 72, 0
7, 6724, Note_on_c, 5, 69, 78
7, 6844, Note_off_c, 5, 69, 0
7, 6844, Note_on_c, 5, 65, 78
7, 7204, Note_off_c, 5, 65, 0
7, 7264, Note_on_c, 5, 67, 78
7, 7324, Note_off_c, 5, 67, 0
7, 7324, Note_on_c, 5, 67, 78
7, 7384, Note_off_c, 5, 67, 0
7, 7384, Note_on_c, 5, 67, 78
7, 7444, Note_off_c, 5, 67, 0
7, 7444, Note_on_c, 5, 69, 78
7, 7624, Note_off_c, 5, 69, 0
7, 7624, Note_on_c, 5, 67, 78
7, 7684, Note_off_c, 5, 67, 0
7, 7684, Note_on_c, 5, 70, 78
7, 7724, Note_off_c, 5, 70, 0
7, 7724, Note_on_c, 5, 67, 78
7, 7764, Note_off_c, 5, 67, 0
7, 7764, Note_on_c, 5, 65, 78
7, 8164, Note_off_c, 5, 65, 0
7, 8284, Note_on_c, 5, 60, 78
7, 8344, Note_off_c, 5, 60, 0
7, 8344, Note_on_c, 5, 62, 78
7, 8404, Note_off_c, 5, 62, 0
7, 8404, Note_on_c, 5, 63, 78
7, 8484, Note_off_c, 5, 63, 0
7, 8484, Note_on_c, 5, 62, 78
7, 8564, Note_off_c, 5, 62, 0
7, 8564, Note_on_c, 5, 60, 78
7, 8644, Note_off_c, 5, 60, 0
7, 8644, Note_on_c, 5, 62, 78
7, 8824, Note_off_c, 5, 62, 0
7, 8824, Note_on_c, 5, 65, 78
7, 8884, Note_off_c, 5, 65, 0
7, 8884, Note_on_c, 5, 70, 78
7, 9244, Note_off_c, 5, 70, 0
7, 9244, Note_on_c, 5, 70, 78
7, 9304, Note_off_c, 5, 70, 0
7, 9304, Note_on_c, 5, 67, 78
7, 9364, Note_off_c, 5, 67, 0
7, 9364, Note_on_c, 5, 69, 78
7, 9444, Note_off_c, 5, 69, 0
7, 9444, Note_on_c, 5, 70, 78
7, 9524, Note_off_c, 5, 70, 0
7, 9524, Note_on_c, 5, 72, 78
7, 9604, Note_off_c, 5, 72, 0
7, 9604, Note_on_c, 5, 70, 78
7, 9844, Note_off_c, 5, 70, 0
7, 9844, Note_on_c, 5, 58, 78
7, 9924, Note_off_c, 5, 58, 0
7, 9924, Note_on_c, 5, 63, 78
7, 10004, Note_off_c, 5, 63, 0
7, 10004, Note_on_c, 5, 67, 78
7, 10084, Note_off_c, 5, 67, 0
7, 10084, Note_on_c, 5, 70, 78
7, 10144, Note_off_c, 5, 70, 0
7, 10144, Note_on_c, 5, 67, 78
7, 10684, Note_off_c, 5, 67, 0
7, 10684, Note_on_c, 5, 67, 78
7, 10744, Note_off_c, 5, 67, 0
7, 10744, Note_on_c, 5, 69, 78
7, 10804, Note_off_c, 5, 69, 0
7, 10804, Note_on_c, 5, 67, 78
7, 10804, Note_on_c, 5, 70, 78
7, 10884, Note_off_c, 5, 67, 0
7, 10884, Note_off_c, 5, 70, 0
7, 10884, Note_on_c, 5, 69, 78
7, 10964, Note_off_c, 5, 69, 0
7, 10964, Note_on_c, 5, 67, 78
7, 11044, Note_off_c, 5, 67, 0
7, 11044, Note_on_c, 5, 67, 78
7, 11104, Note_off_c, 5, 67, 0
7, 11104, Note_on_c, 5, 65, 78
7, 11284, Note_off_c, 5, 65, 0
7, 11284, Note_on_c, 5, 70, 78
7, 11284, Note_on_c, 5, 77, 78
7, 11404, Note_off_c, 5, 70, 0
7, 11404, Note_off_c, 5, 77, 0
7, 11404, Note_on_c, 5, 65, 78
7, 11404, Note_on_c, 5, 74, 78
7, 11524, Note_off_c, 5, 65, 0
7, 11524, Note_off_c, 5, 74, 0
7, 11644, Note_on_c, 5, 58, 78
7, 11764, Note_off_c, 5, 58, 0
7, 11764, Note_on_c, 5, 62, 78
7, 11884, Note_off_c, 5, 62, 0
7, 11884, Note_on_c, 5, 65, 78
7, 12004, Note_off_c, 5, 65, 0
7, 12004, Note_on_c, 5, 70, 78
7, 12124, Note_off_c, 5, 70, 0
7, 12124, Note_on_c, 5, 70, 78
7, 12604, Note_off_c, 5, 70, 0
7, 12604, Note_on_c, 5, 70, 78
7, 12724, Note_off_c, 5, 70, 0
7, 12724, Note_on_c, 5, 70, 78
7, 12784, Note_off_c, 5, 70, 0
7, 12784, Note_on_c, 5, 67, 78
7, 12904, Note_off_c, 5, 67, 0
7, 12904, Note_on_c, 5, 74, 78
7, 12964, Note_off_c, 5, 74, 0
7, 12964, Note_on_c, 5, 72, 78
7, 13564, Note_off_c, 5, 72, 0
7, 13564, Note_on_c, 5, 74, 78
7, 13684, Note_off_c, 5, 74, 0
7, 13684, Note_on_c, 5, 74, 78
7, 13804, Note_off_c, 5, 74, 0
7, 13804, Note_on_c, 5, 72, 78
7, 13924, Note_off_c, 5, 72, 0
7, 13924, Note_on_c, 5, 70, 78
7, 14284, Note_off_c, 5, 70, 0
7, 14284, Note_on_c, 5, 72, 78
7, 14404, Note_off_c, 5, 72, 0
7, 14404, Note_on_c, 5, 69, 78
7, 14524, Note_off_c, 5, 69, 0
7, 14524, Note_on_c, 5, 65, 78
7, 14884, Note_off_c, 5, 65, 0
7, 14944, Note_on_c, 5, 67, 78
7, 15004, Note_off_c, 5, 67, 0
7, 15004, Note_on_c, 5, 67, 78
7, 15064, Note_off_c, 5, 67, 0
7, 15064, Note_on_c, 5, 67, 78
7, 15124, Note_off_c, 5, 67, 0
7, 15124, Note_on_c, 5, 69, 78
7, 15304, Note_off_c, 5, 69, 0
7, 15304, Note_on_c, 5, 67, 78
7, 15364, Note_off_c, 5, 67, 0
7, 15364, Note_on_c, 5, 70, 78
7, 15404, Note_off_c, 5, 70, 0
7, 15404, Note_on_c, 5, 67, 78
7, 15444, Note_off_c, 5, 67, 0
7, 15444, Note_on_c, 5, 65, 78
7, 15844, Note_off_c, 5, 65, 0
7, 15964, Note_on_c, 5, 60, 78
7, 16024, Note_off_c, 5, 60, 0
7, 16024, Note_on_c, 5, 62, 78
7, 16084, Note_off_c, 5, 62, 0
7, 16084, Note_on_c, 5, 63, 78
7, 16164, Note_off_c, 5, 63, 0
7, 16164, Note_on_c, 5, 62, 78
7, 16244, Note_off_c, 5, 62, 0
7, 16244, Note_on_c, 5, 60, 78
7, 16324, Note_off_c, 5, 60, 0
7, 16324, Note_on_c, 5, 62, 78
7, 16504, Note_off_c, 5, 62, 0
7, 16504, Note_on_c, 5, 65, 78
7, 16564, Note_off_c, 5, 65, 0
7, 16564, Note_on_c, 5, 70, 78
7, 16924, Note_off_c, 5, 70, 0
7, 16924, Note_on_c, 5, 70, 78
7, 16984, Note_off_c, 5, 70, 0
7, 16984, Note_on_c, 5, 67, 78
7, 17044, Note_off_c, 5, 67, 0
7, 17044, Note_on_c, 5, 69, 78
7, 17104, Note_off_c, 5, 69, 0
7, 17104, Note_on_c, 5, 70, 78
7, 17164, Note_off_c, 5, 70, 0
7, 17164, Note_on_c, 5, 72, 78
7, 17284, Note_off_c, 5, 72, 0
7, 17284, Note_on_c, 5, 70, 78
7, 17404, Note_off_c, 5, 70, 0
7, 17404, Note_on_c, 5, 74, 78
7, 17524, Note_off_c, 5, 74, 0
7, 17524, Note_on_c, 5, 74, 78
7, 17644, Note_off_c, 5, 74, 0
7, 17644, Note_on_c, 5, 72, 78
7, 17764, Note_off_c, 5, 72, 0
7, 17764, Note_on_c, 5, 70, 78
7, 18124, Note_off_c, 5, 70, 0
7, 18124, Note_on_c, 5, 72, 78
7, 18244, Note_off_c, 5, 72, 0
7, 18244, Note_on_c, 5, 69, 78
7, 18364, Note_off_c, 5, 69, 0
7, 18364, Note_on_c, 5, 65, 78
7, 18724, Note_off_c, 5, 65, 0
7, 18784, Note_on_c, 5, 67, 78
7, 18844, Note_off_c, 5, 67, 0
7, 18844, Note_on_c, 5, 67, 78
7, 18904, Note_off_c, 5, 67, 0
7, 18904, Note_on_c, 5, 67, 78
7, 18964, Note_off_c, 5, 67, 0
7, 18964, Note_on_c, 5, 69, 78
7, 19144, Note_off_c, 5, 69, 0
7, 19144, Note_on_c, 5, 67, 78
7, 19204, Note_off_c, 5, 67, 0
7, 19204, Note_on_c, 5, 70, 78
7, 19244, Note_off_c, 5, 70, 0
7, 19244, Note_on_c, 5, 67, 78
7, 19284, Note_off_c, 5, 67, 0
7, 19284, Note_on_c, 5, 65, 78
7, 19684, Note_off_c, 5, 65, 0
7, 19804, Note_on_c, 5, 60, 78
7, 19864, Note_off_c, 5, 60, 0
7, 19864, Note_on_c, 5, 62, 78
7, 19924, Note_off_c, 5, 62, 0
7, 19924, Note_on_c, 5, 63, 78
7, 20004, Note_off_c, 5, 63, 0
7, 20004, Note_on_c, 5, 62, 78
7, 20084, Note_off_c, 5, 62, 0
7, 20084, Note_on_c, 5, 60, 78
7, 20164, Note_off_c, 5, 60, 0
7, 20164, Note_on_c, 5, 62, 78
7, 20344, Note_off_c, 5, 62, 0
7, 20344, Note_on_c, 5, 65, 78
7, 20404, Note_off_c, 5, 65, 0
7, 20404, Note_on_c, 5, 70, 78
7, 20764, Note_off_c, 5, 70, 0
7, 20764, Note_on_c, 5, 70, 78
7, 20884, Note_off_c, 5, 70, 0
7, 20884, Note_on_c, 5, 70, 78
7, 20964, Note_off_c, 5, 70, 0
7, 20964, Note_on_c, 5, 67, 78
7, 21044, Note_off_c, 5, 67, 0
7, 21044, Note_on_c, 5, 74, 78
7, 21124, Note_off_c, 5, 74, 0
7, 21124, Note_on_c, 5, 72, 78
7, 21364, Note_off_c, 5, 72, 0
7, 21364, Note_on_c, 5, 74, 78
7, 21444, Note_off_c, 5, 74, 0
7, 21444, Note_on_c, 5, 74, 78
7, 21524, Note_off_c, 5, 74, 0
7, 21524, Note_on_c, 5, 72, 78
7, 21604, Note_off_c, 5, 72, 0
7, 21604, Note_on_c, 5, 70, 78
7, 21964, Note_off_c, 5, 70, 0
7, 21964, Note_on_c, 5, 72, 78
7, 22084, Note_off_c, 5, 72, 0
7, 22084, Note_on_c, 5, 69, 78
7, 22204, Note_off_c, 5, 69, 0
7, 22204, Note_on_c, 5, 65, 78
7, 22564, Note_off_c, 5, 65, 0
7, 22624, Note_on_c, 5, 67, 78
7, 22684, Note_off_c, 5, 67, 0
7, 22684, Note_on_c, 5, 67, 78
7, 22744, Note_off_c, 5, 67, 0
7, 22744, Note_on_c, 5, 67, 78
7, 22804, Note_off_c, 5, 67, 0
7, 22804, Note_on_c, 5, 69, 78
7, 22984, Note_off_c, 5, 69, 0
7, 22984, Note_on_c, 5, 67, 78
7, 23044, Note_off_c, 5, 67, 0
7, 23044, Note_on_c, 5, 70, 78
7, 23084, Note_off_c, 5, 70, 0
7, 23084, Note_on_c, 5, 67, 78
7, 23124, Note_off_c, 5, 67, 0
7, 23124, Note_on_c, 5, 65, 78
7, 23524, Note_off_c, 5, 65, 0
7, 23644, Note_on_c, 5, 60, 78
7, 23704, Note_off_c, 5, 60, 0
7, 23704, Note_on_c, 5, 62, 78
7, 23764, Note_off_c, 5, 62, 0
7, 23764, Note_on_c, 5, 63, 78
7, 23844, Note_off_c, 5, 63, 0
7, 23844, Note_on_c, 5, 62, 78
7, 23924, Note_off_c, 5, 62, 0
7, 23924, Note_on_c, 5, 60, 78
7, 24004, Note_off_c, 5, 60, 0
7, 24004, Note_on_c, 5, 62, 78
7, 24184, Note_off_c, 5, 62, 0
7, 24184, Note_on_c, 5, 65, 78
7, 24244, Note_off_c, 5, 65, 0
7, 24244, Note_on_c, 5, 70, 78
7, 24604, Note_off_c, 5, 70, 0
7, 24604, Note_on_c, 5, 70, 78
7, 24664, Note_off_c, 5, 70, 0
7, 24664, Note_on_c, 5, 67, 78
7, 24724, Note_off_c, 5, 67, 0
7, 24724, Note_on_c, 5, 69, 78
7, 24804, Note_off_c, 5, 69, 0
7, 24804, Note_on_c, 5, 70, 78
7, 24884, Note_off_c, 5, 70, 0
7, 24884, Note_on_c, 5, 72, 78
7, 24964, Note_off_c, 5, 72, 0
7, 24964, Note_on_c, 5, 70, 78
7, 25204, Note_off_c, 5, 70, 0
7, 25204, Note_on_c, 5, 58, 78
7, 25284, Note_off_c, 5, 58, 0
7, 25284, Note_on_c, 5, 63, 78
7, 25364, Note_off_c, 5, 63, 0
7, 25364, Note_on_c, 5, 67, 78
7, 25444, Note_off_c, 5, 67, 0
7, 25444, Note_on_c, 5, 70, 78
7, 25504, Note_off_c, 5, 70, 0
7, 25504, Note_on_c, 5, 67, 78
7, 26044, Note_off_c, 5, 67, 0
7, 26044, Note_on_c, 5, 67, 78
7, 26104, Note_off_c, 5, 67, 0
7, 26104, Note_on_c, 5, 69, 78
7, 26164, Note_off_c, 5, 69, 0
7, 26164, Note_on_c, 5, 67, 78
7, 26164, Note_on_c, 5, 70, 78
7, 26244, Note_off_c, 5, 67, 0
7, 26244, Note_off_c, 5, 70, 0
7, 26244, Note_on_c, 5, 69, 78
7, 26324, Note_off_c, 5, 69, 0
7, 26324, Note_on_c, 5, 67, 78
7, 26404, Note_off_c, 5, 67, 0
7, 26404, Note_on_c, 5, 67, 78
7, 26464, Note_off_c, 5, 67, 0
7, 26464, Note_on_c, 5, 65, 78
7, 26644, Note_off_c, 5, 65, 0
7, 26644, Note_on_c, 5, 70, 78
7, 26644, Note_on_c, 5, 77, 78
7, 26764, Note_off_c, 5, 70, 0
7, 26764, Note_off_c, 5, 77, 0
7, 26764, Note_on_c, 5, 65, 78
7, 26764, Note_on_c, 5, 74, 78
7, 26884, Note_off_c, 5, 65, 0
7, 26884, Note_off_c, 5, 74, 0
7, 27004, Note_on_c, 5, 58, 78
7, 27124, Note_off_c, 5, 58, 0
7, 27124, Note_on_c, 5, 62, 78
7, 27244, Note_off_c, 5, 62, 0
7, 27244, Note_on_c, 5, 65, 78
7, 27364, Note_off_c, 5, 65, 0
7, 27364, Note_on_c, 5, 70, 78
7, 27484, Note_off_c, 5, 70, 0
7, 27484, Note_on_c, 5, 70, 78
7, 27964, Note_off_c, 5, 70, 0
7, 27964, Note_on_c, 5, 70, 78
7, 28084, Note_off_c, 5, 70, 0
7, 28084, Note_on_c, 5, 70, 78
7, 28144, Note_off_c, 5, 70, 0
7, 28144, Note_on_c, 5, 67, 78
7, 28264, Note_off_c, 5, 67, 0
7, 28264, Note_on_c, 5, 74, 78
7, 28324, Note_off_c, 5, 74, 0
7, 28324, Note_on_c, 5, 72, 78
7, 28924, Note_off_c, 5, 72, 0
7, 28924, Note_on_c, 5, 74, 78
7, 29044, Note_off_c, 5, 74, 0
7, 29044, Note_on_c, 5, 74, 78
7, 29164, Note_off_c, 5, 74, 0
7, 29164, Note_on_c, 5, 72, 78
7, 29284, Note_off_c, 5, 72, 0
7, 29284, Note_on_c, 5, 70, 78
7, 29644, Note_off_c, 5, 70, 0
7, 29644, Note_on_c, 5, 72, 78
7, 29764, Note_off_c, 5, 72, 0
7, 29764, Note_on_c, 5, 69, 78
7, 29884, Note_off_c, 5, 69, 0
7, 29884, Note_on_c, 5, 65, 78
7, 30244, Note_off_c, 5, 65, 0
7, 30304, Note_on_c, 5, 67, 78
7, 30364, Note_off_c, 5, 67, 0
7, 30364, Note_on_c, 5, 67, 78
7, 30424, Note_off_c, 5, 67, 0
7, 30424, Note_on_c, 5, 67, 78
7, 30484, Note_off_c, 5, 67, 0
7, 30484, Note_on_c, 5, 69, 78
7, 30664, Note_off_c, 5, 69, 0
7, 30664, Note_on_c, 5, 67, 78
7, 30724, Note_off_c, 5, 67, 0
7, 30724, Note_on_c, 5, 70, 78
7, 30764, Note_off_c, 5, 70, 0
7, 30764, Note_on_c, 5, 67, 78
7, 30804, Note_off_c, 5, 67, 0
7, 30804, Note_on_c, 5, 65, 78
7, 31204, Note_off_c, 5, 65, 0
7, 31324, Note_on_c, 5, 60, 78
7, 31384, Note_off_c, 5, 60, 0
7, 31384, Note_on_c, 5, 62, 78
7, 31444, Note_off_c, 5, 62, 0
7, 31444, Note_on_c, 5, 63, 78
7, 31524, Note_off_c, 5, 63, 0
7, 31524, Note_on_c, 5, 62, 78
7, 31604, Note_off_c, 5, 62, 0
7, 31604, Note_on_c, 5, 60, 78
7, 31684, Note_off_c, 5, 60, 0
7, 31684, Note_on_c, 5, 62, 78
7, 31864, Note_off_c, 5, 62, 0
7, 31864, Note_on_c, 5, 65, 78
7, 31924, Note_off_c, 5, 65, 0
7, 31924, Note_on_c, 5, 70, 78
7, 32284, Note_off_c, 5, 70, 0
7, 32284, Note_on_c, 5, 70, 78
7, 32344, Note_off_c, 5, 70, 0
7, 32344, Note_on_c, 5, 67, 78
7, 32404, Note_off_c, 5, 67, 0
7, 32404, Note_on_c, 5, 69, 78
7, 32464, Note_off_c, 5, 69, 0
7, 32464, Note_on_c, 5, 70, 78
7, 32524, Note_off_c, 5, 70, 0
7, 32524, Note_on_c, 5, 72, 78
7, 32644, Note_off_c, 5, 72, 0
7, 32644, Note_on_c, 5, 70, 78
7, 32884, Note_off_c, 5, 70, 0
7, 32884, Note_on_c, 5, 67, 78
7, 33004, Note_off_c, 5, 67, 0
7, 33004, Note_on_c, 5, 67, 78
7, 33124, Note_off_c, 5, 67, 0
7, 33124, Note_on_c, 5, 58, 78
7, 33124, Note_on_c, 5, 62, 78
7, 33124, Note_on_c, 5, 65, 78
7, 33124, Note_on_c, 5, 70, 78
7, 33524, Note_off_c, 5, 58, 0
7, 33524, Note_off_c, 5, 62, 0
7, 33524, Note_off_c, 5, 65, 0
7, 33524, Note_off_c, 5, 70, 0
7, 33524, End_track
8, 0, Start_track
8, 0, Title_t, "Melody 3\000"
8, 0, Control_c, 6, 121, 0
8, 0, Program_c, 6, 0
8, 0, Control_c, 6, 7, 85
8, 0, Control_c, 6, 10, 24
8, 0, Control_c, 6, 91, 45
8, 0, Control_c, 6, 93, 50
8, 0, Control_c, 6, 123, 0
8, 600, Note_on_c, 6, 51, 75
8, 600, Note_on_c, 6, 55, 75
8, 720, Note_off_c, 6, 51, 0
8, 720, Note_off_c, 6, 55, 0
8, 720, Note_on_c, 6, 51, 75
8, 720, Note_on_c, 6, 58, 75
8, 960, Note_off_c, 6, 51, 0
8, 960, Note_off_c, 6, 58, 0
8, 1080, Note_on_c, 6, 53, 75
8, 1080, Note_on_c, 6, 58, 75
8, 1200, Note_off_c, 6, 53, 0
8, 1200, Note_off_c, 6, 58, 0
8, 1200, Note_on_c, 6, 58, 75
8, 1200, Note_on_c, 6, 62, 75
8, 1200, Note_on_c, 6, 67, 75
8, 1320, Note_off_c, 6, 58, 0
8, 1320, Note_off_c, 6, 62, 0
8, 1320, Note_off_c, 6, 67, 0
8, 1320, Note_on_c, 6, 58, 75
8, 1320, Note_on_c, 6, 62, 75
8, 1320, Note_on_c, 6, 65, 75
8, 1440, Note_off_c, 6, 58, 0
8, 1440, Note_off_c, 6, 62, 0
8, 1440, Note_off_c, 6, 65, 0
8, 1440, Note_on_c, 6, 58, 75
8, 1440, Note_on_c, 6, 63, 75
8, 1680, Note_off_c, 6, 58, 0
8, 1680, Note_off_c, 6, 63, 0
8, 1680, Note_on_c, 6, 60, 75
8, 1680, Note_on_c, 6, 63, 75
8, 1800, Note_off_c, 6, 60, 0
8, 1800, Note_off_c, 6, 63, 0
8, 1800, Note_on_c, 6, 63, 75
8, 1800, Note_on_c, 6, 69, 75
8, 1920, Note_off_c, 6, 63, 0
8, 1920, Note_off_c, 6, 69, 0
8, 1920, Note_on_c, 6, 62, 75
8, 1920, Note_on_c, 6, 65, 75
8, 2040, Note_off_c, 6, 62, 0
8, 2040, Note_off_c, 6, 65, 0
8, 2040, Note_on_c, 6, 65, 75
8, 2040, Note_on_c, 6, 70, 75
8, 2160, Note_off_c, 6, 65, 0
8, 2160, Note_off_c, 6, 70, 0
8, 2160, Note_on_c, 6, 63, 75
8, 2160, Note_on_c, 6, 66, 75
8, 2400, Note_off_c, 6, 63, 0
8, 2400, Note_off_c, 6, 66, 0
8, 2520, Note_on_c, 6, 58, 75
8, 2520, Note_on_c, 6, 62, 75
8, 2520, Note_on_c, 6, 65, 75
8, 2760, Note_off_c, 6, 58, 0
8, 2760, Note_off_c, 6, 62, 0
8, 2760, Note_off_c, 6, 65, 0
8, 2760, Note_on_c, 6, 62, 75
8, 2760, Note_on_c, 6, 65, 75
8, 2880, Note_off_c, 6, 62, 0
8, 2880, Note_off_c, 6, 65, 0
8, 3000, Note_on_c, 6, 57, 75
8, 3000, Note_on_c, 6, 62, 75
8, 3240, Note_off_c, 6, 57, 0
8, 3240, Note_off_c, 6, 62, 0
8, 3240, Note_on_c, 6, 53, 75
8, 3240, Note_on_c, 6, 57, 75
8, 3240, Note_on_c, 6, 62, 75
8, 3360, Note_off_c, 6, 53, 0
8, 3360, Note_off_c, 6, 57, 0
8, 3360, Note_off_c, 6, 62, 0
8, 3480, Note_on_c, 6, 58, 75
8, 3480, Note_on_c, 6, 63, 75
8, 3600, Note_off_c, 6, 58, 0
8, 3600, Note_off_c, 6, 63, 0
8, 3720, Note_on_c, 6, 60, 75
8, 3720, Note_on_c, 6, 63, 75
8, 3840, Note_off_c, 6, 60, 0
8, 3840, Note_off_c, 6, 63, 0
8, 3960, Note_on_c, 6, 58, 75
8, 3960, Note_on_c, 6, 62, 75
8, 4320, Note_off_c, 6, 58, 0
8, 4320, Note_off_c, 6, 62, 0
8, 4440, Note_on_c, 6, 51, 75
8, 4440, Note_on_c, 6, 55, 75
8, 4560, Note_off_c, 6, 51, 0
8, 4560, Note_off_c, 6, 55, 0
8, 4560, Note_on_c, 6, 51, 75
8, 4560, Note_on_c, 6, 58, 75
8, 4800, Note_off_c, 6, 51, 0
8, 4800, Note_off_c, 6, 58, 0
8, 4920, Note_on_c, 6, 53, 75
8, 4920, Note_on_c, 6, 58, 75
8, 5040, Note_off_c, 6, 53, 0
8, 5040, Note_off_c, 6, 58, 0
8, 5040, Note_on_c, 6, 58, 75
8, 5040, Note_on_c, 6, 62, 75
8, 5040, Note_on_c, 6, 67, 75
8, 5160, Note_off_c, 6, 58, 0
8, 5160, Note_off_c, 6, 62, 0
8, 5160, Note_off_c, 6, 67, 0
8, 5160, Note_on_c, 6, 58, 75
8, 5160, Note_on_c, 6, 62, 75
8, 5160, Note_on_c, 6, 65, 75
8, 5280, Note_off_c, 6, 58, 0
8, 5280, Note_off_c, 6, 62, 0
8, 5280, Note_off_c, 6, 65, 0
8, 5280, Note_on_c, 6, 58, 75
8, 5280, Note_on_c, 6, 64, 75
8, 5520, Note_off_c, 6, 58, 0
8, 5520, Note_off_c, 6, 64, 0
8, 5520, Note_on_c, 6, 62, 75
8, 5520, Note_on_c, 6, 64, 75
8, 5600, Note_off_c, 6, 62, 0
8, 5600, Note_off_c, 6, 64, 0
8, 5600, Note_on_c, 6, 58, 75
8, 5600, Note_on_c, 6, 64, 75
8, 5680, Note_off_c, 6, 58, 0
8, 5680, Note_off_c, 6, 64, 0
8, 5680, Note_on_c, 6, 64, 75
8, 5680, Note_on_c, 6, 70, 75
8, 5760, Note_off_c, 6, 64, 0
8, 5760, Note_off_c, 6, 70, 0
8, 5760, Note_on_c, 6, 60, 75
8, 5760, Note_on_c, 6, 63, 75
8, 5760, Note_on_c, 6, 69, 75
8, 6000, Note_off_c, 6, 60, 0
8, 6000, Note_off_c, 6, 63, 0
8, 6000, Note_off_c, 6, 69, 0
8, 6000, Note_on_c, 6, 63, 75
8, 6000, Note_on_c, 6, 69, 75
8, 6240, Note_off_c, 6, 63, 0
8, 6240, Note_off_c, 6, 69, 0
8, 6360, Note_on_c, 6, 58, 75
8, 6360, Note_on_c, 6, 62, 75
8, 6360, Note_on_c, 6, 65, 75
8, 6600, Note_off_c, 6, 58, 0
8, 6600, Note_off_c, 6, 62, 0
8, 6600, Note_off_c, 6, 65, 0
8, 6600, Note_on_c, 6, 62, 75
8, 6600, Note_on_c, 6, 65, 75
8, 6720, Note_off_c, 6, 62, 0
8, 6720, Note_off_c, 6, 65, 0
8, 6840, Note_on_c, 6, 57, 75
8, 6840, Note_on_c, 6, 62, 75
8, 7080, Note_off_c, 6, 57, 0
8, 7080, Note_off_c, 6, 62, 0
8, 7080, Note_on_c, 6, 53, 75
8, 7080, Note_on_c, 6, 57, 75
8, 7080, Note_on_c, 6, 62, 75
8, 7200, Note_off_c, 6, 53, 0
8, 7200, Note_off_c, 6, 57, 0
8, 7200, Note_off_c, 6, 62, 0
8, 7320, Note_on_c, 6, 58, 75
8, 7320, Note_on_c, 6, 63, 75
8, 7440, Note_off_c, 6, 58, 0
8, 7440, Note_off_c, 6, 63, 0
8, 7560, Note_on_c, 6, 60, 75
8, 7560, Note_on_c, 6, 63, 75
8, 7680, Note_off_c, 6, 60, 0
8, 7680, Note_off_c, 6, 63, 0
8, 7800, Note_on_c, 6, 58, 75
8, 7800, Note_on_c, 6, 62, 75
8, 8160, Note_off_c, 6, 58, 0
8, 8160, Note_off_c, 6, 62, 0
8, 8280, Note_on_c, 6, 51, 75
8, 8280, Note_on_c, 6, 55, 75
8, 8400, Note_off_c, 6, 51, 0
8, 8400, Note_off_c, 6, 55, 0
8, 8400, Note_on_c, 6, 51, 75
8, 8400, Note_on_c, 6, 58, 75
8, 8640, Note_off_c, 6, 51, 0
8, 8640, Note_off_c, 6, 58, 0
8, 8760, Note_on_c, 6, 53, 75
8, 8760, Note_on_c, 6, 58, 75
8, 8880, Note_off_c, 6, 53, 0
8, 8880, Note_off_c, 6, 58, 0
8, 8880, Note_on_c, 6, 58, 75
8, 8880, Note_on_c, 6, 62, 75
8, 8880, Note_on_c, 6, 67, 75
8, 9000, Note_off_c, 6, 58, 0
8, 9000, Note_off_c, 6, 62, 0
8, 9000, Note_off_c, 6, 67, 0
8, 9000, Note_on_c, 6, 58, 75
8, 9000, Note_on_c, 6, 62, 75
8, 9000, Note_on_c, 6, 65, 75
8, 9120, Note_off_c, 6, 58, 0
8, 9120, Note_off_c, 6, 62, 0
8, 9120, Note_off_c, 6, 65, 0
8, 9120, Note_on_c, 6, 58, 75
8, 9120, Note_on_c, 6, 64, 75
8, 9360, Note_off_c, 6, 58, 0
8, 9360, Note_off_c, 6, 64, 0
8, 9360, Note_on_c, 6, 60, 75
8, 9360, Note_on_c, 6, 63, 75
8, 9440, Note_off_c, 6, 60, 0
8, 9440, Note_off_c, 6, 63, 0
8, 9440, Note_on_c, 6, 60, 75
8, 9440, Note_on_c, 6, 63, 75
8, 9520, Note_off_c, 6, 60, 0
8, 9520, Note_off_c, 6, 63, 0
8, 9520, Note_on_c, 6, 63, 75
8, 9520, Note_on_c, 6, 69, 75
8, 9600, Note_off_c, 6, 63, 0
8, 9600, Note_off_c, 6, 69, 0
8, 9600, Note_on_c, 6, 62, 75
8, 9600, Note_on_c, 6, 65, 75
8, 9840, Note_off_c, 6, 62, 0
8, 9840, Note_off_c, 6, 65, 0
8, 10200, Note_on_c, 6, 58, 75
8, 10200, Note_on_c, 6, 63, 75
8, 10680, Note_off_c, 6, 58, 0
8, 10680, Note_off_c, 6, 63, 0
8, 10680, Note_on_c, 6, 58, 75
8, 10680, Note_on_c, 6, 63, 75
8, 10800, Note_off_c, 6, 58, 0
8, 10800, Note_off_c, 6, 63, 0
8, 10800, Note_on_c, 6, 58, 75
8, 10800, Note_on_c, 6, 63, 75
8, 11040, Note_off_c, 6, 58, 0
8, 11040, Note_off_c, 6, 63, 0
8, 11160, Note_on_c, 6, 58, 75
8, 11160, Note_on_c, 6, 62, 75
8, 11280, Note_off_c, 6, 58, 0
8, 11280, Note_off_c, 6, 62, 0
8, 11280, Note_on_c, 6, 62, 75
8, 11400, Note_off_c, 6, 62, 0
8, 11400, Note_on_c, 6, 58, 75
8, 11520, Note_off_c, 6, 58, 0
8, 11520, Note_on_c, 6, 62, 75
8, 11640, Note_off_c, 6, 62, 0
8, 11640, Note_on_c, 6, 50, 75
8, 11640, Note_on_c, 6, 53, 75
8, 11760, Note_off_c, 6, 50, 0
8, 11760, Note_off_c, 6, 53, 0
8, 11760, Note_on_c, 6, 53, 75
8, 11760, Note_on_c, 6, 58, 75
8, 11880, Note_off_c, 6, 53, 0
8, 11880, Note_off_c, 6, 58, 0
8, 11880, Note_on_c, 6, 58, 75
8, 11880, Note_on_c, 6, 62, 75
8, 12000, Note_off_c, 6, 58, 0
8, 12000, Note_off_c, 6, 62, 0
8, 12120, Note_on_c, 6, 58, 75
8, 12120, Note_on_c, 6, 62, 75
8, 12120, Note_on_c, 6, 67, 75
8, 12240, Note_off_c, 6, 58, 0
8, 12240, Note_off_c, 6, 62, 0
8, 12240, Note_off_c, 6, 67, 0
8, 12240, Note_on_c, 6, 58, 75
8, 12240, Note_on_c, 6, 62, 75
8, 12240, Note_on_c, 6, 66, 75
8, 12360, Note_off_c, 6, 58, 0
8, 12360, Note_off_c, 6, 62, 0
8, 12360, Note_off_c, 6, 66, 0
8, 12360, Note_on_c, 6, 58, 75
8, 12360, Note_on_c, 6, 62, 75
8, 12360, Note_on_c, 6, 65, 75
8, 12480, Note_off_c, 6, 58, 0
8, 12480, Note_off_c, 6, 62, 0
8, 12480, Note_off_c, 6, 65, 0
8, 12480, Note_on_c, 6, 58, 75
8, 12480, Note_on_c, 6, 64, 75
8, 12720, Note_off_c, 6, 58, 0
8, 12720, Note_off_c, 6, 64, 0
8, 12720, Note_on_c, 6, 62, 75
8, 12720, Note_on_c, 6, 64, 75
8, 12780, Note_off_c, 6, 62, 0
8, 12780, Note_off_c, 6, 64, 0
8, 12780, Note_on_c, 6, 58, 75
8, 12780, Note_on_c, 6, 64, 75
8, 12900, Note_off_c, 6, 58, 0
8, 12900, Note_off_c, 6, 64, 0
8, 12900, Note_on_c, 6, 64, 75
8, 12900, Note_on_c, 6, 70, 75
8, 12960, Note_off_c, 6, 64, 0
8, 12960, Note_off_c, 6, 70, 0
8, 13080, Note_on_c, 6, 60, 75
8, 13080, Note_on_c, 6, 63, 75
8, 13080, Note_on_c, 6, 70, 75
8, 13320, Note_off_c, 6, 60, 0
8, 13320, Note_off_c, 6, 63, 0
8, 13320, Note_off_c, 6, 70, 0
8, 13320, Note_on_c, 6, 60, 75
8, 13320, Note_on_c, 6, 63, 75
8, 13320, Note_on_c, 6, 70, 75
8, 13440, Note_off_c, 6, 60, 0
8, 13440, Note_off_c, 6, 63, 0
8, 13440, Note_off_c, 6, 70, 0
8, 13440, Note_on_c, 6, 60, 75
8, 13440, Note_on_c, 6, 63, 75
8, 13440, Note_on_c, 6, 69, 75
8, 13680, Note_off_c, 6, 60, 0
8, 13680, Note_off_c, 6, 63, 0
8, 13680, Note_off_c, 6, 69, 0
8, 13680, Note_on_c, 6, 63, 75
8, 13680, Note_on_c, 6, 66, 75
8, 13920, Note_off_c, 6, 63, 0
8, 13920, Note_off_c, 6, 66, 0
8, 14040, Note_on_c, 6, 58, 75
8, 14040, Note_on_c, 6, 62, 75
8, 14040, Note_on_c, 6, 65, 75
8, 14280, Note_off_c, 6, 58, 0
8, 14280, Note_off_c, 6, 62, 0
8, 14280, Note_off_c, 6, 65, 0
8, 14280, Note_on_c, 6, 62, 75
8, 14280, Note_on_c, 6, 65, 75
8, 14400, Note_off_c, 6, 62, 0
8, 14400, Note_off_c, 6, 65, 0
8, 14520, Note_on_c, 6, 57, 75
8, 14520, Note_on_c, 6, 62, 75
8, 14760, Note_off_c, 6, 57, 0
8, 14760, Note_off_c, 6, 62, 0
8, 14760, Note_on_c, 6, 53, 75
8, 14760, Note_on_c, 6, 57, 75
8, 14760, Note_on_c, 6, 62, 75
8, 14880, Note_off_c, 6, 53, 0
8, 14880, Note_off_c, 6, 57, 0
8, 14880, Note_off_c, 6, 62, 0
8, 15000, Note_on_c, 6, 58, 75
8, 15000, Note_on_c, 6, 63, 75
8, 15120, Note_off_c, 6, 58, 0
8, 15120, Note_off_c, 6, 63, 0
8, 15240, Note_on_c, 6, 57, 75
8, 15240, Note_on_c, 6, 63, 75
8, 15360, Note_off_c, 6, 57, 0
8, 15360, Note_off_c, 6, 63, 0
8, 15480, Note_on_c, 6, 58, 75
8, 15480, Note_on_c, 6, 62, 75
8, 15840, Note_off_c, 6, 58, 0
8, 15840, Note_off_c, 6, 62, 0
8, 15960, Note_on_c, 6, 51, 75
8, 15960, Note_on_c, 6, 55, 75
8, 16080, Note_off_c, 6, 51, 0
8, 16080, Note_off_c, 6, 55, 0
8, 16080, Note_on_c, 6, 51, 75
8, 16080, Note_on_c, 6, 58, 75
8, 16320, Note_off_c, 6, 51, 0
8, 16320, Note_off_c, 6, 58, 0
8, 16440, Note_on_c, 6, 53, 75
8, 16440, Note_on_c, 6, 58, 75
8, 16560, Note_off_c, 6, 53, 0
8, 16560, Note_off_c, 6, 58, 0
8, 16560, Note_on_c, 6, 58, 75
8, 16560, Note_on_c, 6, 62, 75
8, 16560, Note_on_c, 6, 67, 75
8, 16680, Note_off_c, 6, 58, 0
8, 16680, Note_off_c, 6, 62, 0
8, 16680, Note_off_c, 6, 67, 0
8, 16680, Note_on_c, 6, 58, 75
8, 16680, Note_on_c, 6, 62, 75
8, 16680, Note_on_c, 6, 65, 75
8, 16800, Note_off_c, 6, 58, 0
8, 16800, Note_off_c, 6, 62, 0
8, 16800, Note_off_c, 6, 65, 0
8, 16800, Note_on_c, 6, 58, 75
8, 16800, Note_on_c, 6, 63, 75
8, 17040, Note_off_c, 6, 58, 0
8, 17040, Note_off_c, 6, 63, 0
8, 17040, Note_on_c, 6, 60, 75
8, 17040, Note_on_c, 6, 63, 75
8, 17160, Note_off_c, 6, 60, 0
8, 17160, Note_off_c, 6, 63, 0
8, 17160, Note_on_c, 6, 63, 75
8, 17160, Note_on_c, 6, 69, 75
8, 17280, Note_off_c, 6, 63, 0
8, 17280, Note_off_c, 6, 69, 0
8, 17280, Note_on_c, 6, 62, 75
8, 17280, Note_on_c, 6, 65, 75
8, 17400, Note_off_c, 6, 62, 0
8, 17400, Note_off_c, 6, 65, 0
8, 17400, Note_on_c, 6, 65, 75
8, 17400, Note_on_c, 6, 70, 75
8, 17520, Note_off_c, 6, 65, 0
8, 17520, Note_off_c, 6, 70, 0
8, 17520, Note_on_c, 6, 63, 75
8, 17520, Note_on_c, 6, 66, 75
8, 17760, Note_off_c, 6, 63, 0
8, 17760, Note_off_c, 6, 66, 0
8, 17880, Note_on_c, 6, 58, 75
8, 17880, Note_on_c, 6, 62, 75
8, 17880, Note_on_c, 6, 65, 75
8, 18120, Note_off_c, 6, 58, 0
8, 18120, Note_off_c, 6, 62, 0
8, 18120, Note_off_c, 6, 65, 0
8, 18120, Note_on_c, 6, 62, 75
8, 18120, Note_on_c, 6, 65, 75
8, 18240, Note_off_c, 6, 62, 0
8, 18240, Note_off_c, 6, 65, 0
8, 18360, Note_on_c, 6, 57, 75
8, 18360, Note_on_c, 6, 62, 75
8, 18600, Note_off_c, 6, 57, 0
8, 18600, Note_off_c, 6, 62, 0
8, 18600, Note_on_c, 6, 53, 75
8, 18600, Note_on_c, 6, 57, 75
8, 18600, Note_on_c, 6, 62, 75
8, 18720, Note_off_c, 6, 53, 0
8, 18720, Note_off_c, 6, 57, 0
8, 18720, Note_off_c, 6, 62, 0
8, 18840, Note_on_c, 6, 58, 75
8, 18840, Note_on_c, 6, 63, 75
8, 18960, Note_off_c, 6, 58, 0
8, 18960, Note_off_c, 6, 63, 0
8, 19080, Note_on_c, 6, 60, 75
8, 19080, Note_on_c, 6, 63, 75
8, 19200, Note_off_c, 6, 60, 0
8, 19200, Note_off_c, 6, 63, 0
8, 19320, Note_on_c, 6, 58, 75
8, 19320, Note_on_c, 6, 62, 75
8, 19680, Note_off_c, 6, 58, 0
8, 19680, Note_off_c, 6, 62, 0
8, 19800, Note_on_c, 6, 51, 75
8, 19800, Note_on_c, 6, 55, 75
8, 19920, Note_off_c, 6, 51, 0
8, 19920, Note_off_c, 6, 55, 0
8, 19920, Note_on_c, 6, 51, 75
8, 19920, Note_on_c, 6, 58, 75
8, 20160, Note_off_c, 6, 51, 0
8, 20160, Note_off_c, 6, 58, 0
8, 20280, Note_on_c, 6, 53, 75
8, 20280, Note_on_c, 6, 58, 75
8, 20400, Note_off_c, 6, 53, 0
8, 20400, Note_off_c, 6, 58, 0
8, 20400, Note_on_c, 6, 58, 75
8, 20400, Note_on_c, 6, 62, 75
8, 20400, Note_on_c, 6, 67, 75
8, 20520, Note_off_c, 6, 58, 0
8, 20520, Note_off_c, 6, 62, 0
8, 20520, Note_off_c, 6, 67, 0
8, 20520, Note_on_c, 6, 58, 75
8, 20520, Note_on_c, 6, 62, 75
8, 20520, Note_on_c, 6, 65, 75
8, 20640, Note_off_c, 6, 58, 0
8, 20640, Note_off_c, 6, 62, 0
8, 20640, Note_off_c, 6, 65, 0
8, 20640, Note_on_c, 6, 58, 75
8, 20640, Note_on_c, 6, 64, 75
8, 20880, Note_off_c, 6, 58, 0
8, 20880, Note_off_c, 6, 64, 0
8, 20880, Note_on_c, 6, 62, 75
8, 20880, Note_on_c, 6, 64, 75
8, 20960, Note_off_c, 6, 62, 0
8, 20960, Note_off_c, 6, 64, 0
8, 20960, Note_on_c, 6, 58, 75
8, 20960, Note_on_c, 6, 64, 75
8, 21040, Note_off_c, 6, 58, 0
8, 21040, Note_off_c, 6, 64, 0
8, 21040, Note_on_c, 6, 64, 75
8, 21040, Note_on_c, 6, 70, 75
8, 21120, Note_off_c, 6, 64, 0
8, 21120, Note_off_c, 6, 70, 0
8, 21120, Note_on_c, 6, 60, 75
8, 21120, Note_on_c, 6, 63, 75
8, 21120, Note_on_c, 6, 69, 75
8, 21360, Note_off_c, 6, 60, 0
8, 21360, Note_off_c, 6, 63, 0
8, 21360, Note_off_c, 6, 69, 0
8, 21360, Note_on_c, 6, 63, 75
8, 21360, Note_on_c, 6, 69, 75
8, 21600, Note_off_c, 6, 63, 0
8, 21600, Note_off_c, 6, 69, 0
8, 21720, Note_on_c, 6, 58, 75
8, 21720, Note_on_c, 6, 62, 75
8, 21720, Note_on_c, 6, 65, 75
8, 21960, Note_off_c, 6, 58, 0
8, 21960, Note_off_c, 6, 62, 0
8, 21960, Note_off_c, 6, 65, 0
8, 21960, Note_on_c, 6, 62, 75
8, 21960, Note_on_c, 6, 65, 75
8, 22080, Note_off_c, 6, 62, 0
8, 22080, Note_off_c, 6, 65, 0
8, 22200, Note_on_c, 6, 57, 75
8, 22200, Note_on_c, 6, 62, 75
8, 22440, Note_off_c, 6, 57, 0
8, 22440, Note_off_c, 6, 62, 0
8, 22440, Note_on_c, 6, 53, 75
8, 22440, Note_on_c, 6, 57, 75
8, 22440, Note_on_c, 6, 62, 75
8, 22560, Note_off_c, 6, 53, 0
8, 22560, Note_off_c, 6, 57, 0
8, 22560, Note_off_c, 6, 62, 0
8, 22680, Note_on_c, 6, 58, 75
8, 22680, Note_on_c, 6, 63, 75
8, 22800, Note_off_c, 6, 58, 0
8, 22800, Note_off_c, 6, 63, 0
8, 22920, Note_on_c, 6, 60, 75
8, 22920, Note_on_c, 6, 63, 75
8, 23040, Note_off_c, 6, 60, 0
8, 23040, Note_off_c, 6, 63, 0
8, 23160, Note_on_c, 6, 58, 75
8, 23160, Note_on_c, 6, 62, 75
8, 23520, Note_off_c, 6, 58, 0
8, 23520, Note_off_c, 6, 62, 0
8, 23640, Note_on_c, 6, 51, 75
8, 23640, Note_on_c, 6, 55, 75
8, 23760, Note_off_c, 6, 51, 0
8, 23760, Note_off_c, 6, 55, 0
8, 23760, Note_on_c, 6, 51, 75
8, 23760, Note_on_c, 6, 58, 75
8, 24000, Note_off_c, 6, 51, 0
8, 24000, Note_off_c, 6, 58, 0
8, 24120, Note_on_c, 6, 53, 75
8, 24120, Note_on_c, 6, 58, 75
8, 24240, Note_off_c, 6, 53, 0
8, 24240, Note_off_c, 6, 58, 0
8, 24240, Note_on_c, 6, 58, 75
8, 24240, Note_on_c, 6, 62, 75
8, 24240, Note_on_c, 6, 67, 75
8, 24360, Note_off_c, 6, 58, 0
8, 24360, Note_off_c, 6, 62, 0
8, 24360, Note_off_c, 6, 67, 0
8, 24360, Note_on_c, 6, 58, 75
8, 24360, Note_on_c, 6, 62, 75
8, 24360, Note_on_c, 6, 65, 75
8, 24480, Note_off_c, 6, 58, 0
8, 24480, Note_off_c, 6, 62, 0
8, 24480, Note_off_c, 6, 65, 0
8, 24480, Note_on_c, 6, 58, 75
8, 24480, Note_on_c, 6, 64, 75
8, 24720, Note_off_c, 6, 58, 0
8, 24720, Note_off_c, 6, 64, 0
8, 24720, Note_on_c, 6, 60, 75
8, 24720, Note_on_c, 6, 63, 75
8, 24800, Note_off_c, 6, 60, 0
8, 24800, Note_off_c, 6, 63, 0
8, 24800, Note_on_c, 6, 60, 75
8, 24800, Note_on_c, 6, 63, 75
8, 24880, Note_off_c, 6, 60, 0
8, 24880, Note_off_c, 6, 63, 0
8, 24880, Note_on_c, 6, 63, 75
8, 24880, Note_on_c, 6, 69, 75
8, 24960, Note_off_c, 6, 63, 0
8, 24960, Note_off_c, 6, 69, 0
8, 24960, Note_on_c, 6, 62, 75
8, 24960, Note_on_c, 6, 65, 75
8, 25200, Note_off_c, 6, 62, 0
8, 25200, Note_off_c, 6, 65, 0
8, 25560, Note_on_c, 6, 58, 75
8, 25560, Note_on_c, 6, 63, 75
8, 26040, Note_off_c, 6, 58, 0
8, 26040, Note_off_c, 6, 63, 0
8, 26040, Note_on_c, 6, 58, 75
8, 26040, Note_on_c, 6, 63, 75
8, 26160, Note_off_c, 6, 58, 0
8, 26160, Note_off_c, 6, 63, 0
8, 26160, Note_on_c, 6, 58, 75
8, 26160, Note_on_c, 6, 63, 75
8, 26400, Note_off_c, 6, 58, 0
8, 26400, Note_off_c, 6, 63, 0
8, 26520, Note_on_c, 6, 58, 75
8, 26520, Note_on_c, 6, 62, 75
8, 26640, Note_off_c, 6, 58, 0
8, 26640, Note_off_c, 6, 62, 0
8, 26640, Note_on_c, 6, 62, 75
8, 26760, Note_off_c, 6, 62, 0
8, 26760, Note_on_c, 6, 58, 75
8, 26880, Note_off_c, 6, 58, 0
8, 26880, Note_on_c, 6, 62, 75
8, 27000, Note_off_c, 6, 62, 0
8, 27000, Note_on_c, 6, 50, 75
8, 27000, Note_on_c, 6, 53, 75
8, 27120, Note_off_c, 6, 50, 0
8, 27120, Note_off_c, 6, 53, 0
8, 27120, Note_on_c, 6, 53, 75
8, 27120, Note_on_c, 6, 58, 75
8, 27240, Note_off_c, 6, 53, 0
8, 27240, Note_off_c, 6, 58, 0
8, 27240, Note_on_c, 6, 58, 75
8, 27240, Note_on_c, 6, 62, 75
8, 27360, Note_off_c, 6, 58, 0
8, 27360, Note_off_c, 6, 62, 0
8, 27480, Note_on_c, 6, 58, 75
8, 27480, Note_on_c, 6, 62, 75
8, 27480, Note_on_c, 6, 67, 75
8, 27600, Note_off_c, 6, 58, 0
8, 27600, Note_off_c, 6, 62, 0
8, 27600, Note_off_c, 6, 67, 0
8, 27600, Note_on_c, 6, 58, 75
8, 27600, Note_on_c, 6, 62, 75
8, 27600, Note_on_c, 6, 66, 75
8, 27720, Note_off_c, 6, 58, 0
8, 27720, Note_off_c, 6, 62, 0
8, 27720, Note_off_c, 6, 66, 0
8, 27720, Note_on_c, 6, 58, 75
8, 27720, Note_on_c, 6, 62, 75
8, 27720, Note_on_c, 6, 65, 75
8, 27840, Note_off_c, 6, 58, 0
8, 27840, Note_off_c, 6, 62, 0
8, 27840, Note_off_c, 6, 65, 0
8, 27840, Note_on_c, 6, 58, 75
8, 27840, Note_on_c, 6, 64, 75
8, 28080, Note_off_c, 6, 58, 0
8, 28080, Note_off_c, 6, 64, 0
8, 28080, Note_on_c, 6, 62, 75
8, 28080, Note_on_c, 6, 64, 75
8, 28140, Note_off_c, 6, 62, 0
8, 28140, Note_off_c, 6, 64, 0
8, 28140, Note_on_c, 6, 58, 75
8, 28140, Note_on_c, 6, 64, 75
8, 28260, Note_off_c, 6, 58, 0
8, 28260, Note_off_c, 6, 64, 0
8, 28260, Note_on_c, 6, 64, 75
8, 28260, Note_on_c, 6, 70, 75
8, 28320, Note_off_c, 6, 64, 0
8, 28320, Note_off_c, 6, 70, 0
8, 28440, Note_on_c, 6, 60, 75
8, 28440, Note_on_c, 6, 63, 75
8, 28440, Note_on_c, 6, 70, 75
8, 28680, Note_off_c, 6, 60, 0
8, 28680, Note_off_c, 6, 63, 0
8, 28680, Note_off_c, 6, 70, 0
8, 28680, Note_on_c, 6, 60, 75
8, 28680, Note_on_c, 6, 63, 75
8, 28680, Note_on_c, 6, 70, 75
8, 28800, Note_off_c, 6, 60, 0
8, 28800, Note_off_c, 6, 63, 0
8, 28800, Note_off_c, 6, 70, 0
8, 28800, Note_on_c, 6, 60, 75
8, 28800, Note_on_c, 6, 63, 75
8, 28800, Note_on_c, 6, 69, 75
8, 29040, Note_off_c, 6, 60, 0
8, 29040, Note_off_c, 6, 63, 0
8, 29040, Note_off_c, 6, 69, 0
8, 29040, Note_on_c, 6, 63, 75
8, 29040, Note_on_c, 6, 66, 75
8, 29280, Note_off_c, 6, 63, 0
8, 29280, Note_off_c, 6, 66, 0
8, 29400, Note_on_c, 6, 58, 75
8, 29400, Note_on_c, 6, 62, 75
8, 29400, Note_on_c, 6, 65, 75
8, 29640, Note_off_c, 6, 58, 0
8, 29640, Note_off_c, 6, 62, 0
8, 29640, Note_off_c, 6, 65, 0
8, 29640, Note_on_c, 6, 62, 75
8, 29640, Note_on_c, 6, 65, 75
8, 29760, Note_off_c, 6, 62, 0
8, 29760, Note_off_c, 6, 65, 0
8, 29880, Note_on_c, 6, 57, 75
8, 29880, Note_on_c, 6, 62, 75
8, 30120, Note_off_c, 6, 57, 0
8, 30120, Note_off_c, 6, 62, 0
8, 30120, Note_on_c, 6, 53, 75
8, 30120, Note_on_c, 6, 57, 75
8, 30120, Note_on_c, 6, 62, 75
8, 30240, Note_off_c, 6, 53, 0
8, 30240, Note_off_c, 6, 57, 0
8, 30240, Note_off_c, 6, 62, 0
8, 30360, Note_on_c, 6, 58, 75
8, 30360, Note_on_c, 6, 63, 75
8, 30480, Note_off_c, 6, 58, 0
8, 30480, Note_off_c, 6, 63, 0
8, 30600, Note_on_c, 6, 57, 75
8, 30600, Note_on_c, 6, 63, 75
8, 30720, Note_off_c, 6, 57, 0
8, 30720, Note_off_c, 6, 63, 0
8, 30840, Note_on_c, 6, 58, 75
8, 30840, Note_on_c, 6, 62, 75
8, 31200, Note_off_c, 6, 58, 0
8, 31200, Note_off_c, 6, 62, 0
8, 31320, Note_on_c, 6, 51, 75
8, 31320, Note_on_c, 6, 55, 75
8, 31440, Note_off_c, 6, 51, 0
8, 31440, Note_off_c, 6, 55, 0
8, 31440, Note_on_c, 6, 51, 75
8, 31440, Note_on_c, 6, 58, 75
8, 31680, Note_off_c, 6, 51, 0
8, 31680, Note_off_c, 6, 58, 0
8, 31800, Note_on_c, 6, 53, 75
8, 31800, Note_on_c, 6, 58, 75
8, 31920, Note_off_c, 6, 53, 0
8, 31920, Note_off_c, 6, 58, 0
8, 31920, Note_on_c, 6, 58, 75
8, 31920, Note_on_c, 6, 62, 75
8, 31920, Note_on_c, 6, 67, 75
8, 32040, Note_off_c, 6, 58, 0
8, 32040, Note_off_c, 6, 62, 0
8, 32040, Note_off_c, 6, 67, 0
8, 32040, Note_on_c, 6, 58, 75
8, 32040, Note_on_c, 6, 62, 75
8, 32040, Note_on_c, 6, 65, 75
8, 32160, Note_off_c, 6, 58, 0
8, 32160, Note_off_c, 6, 62, 0
8, 32160, Note_off_c, 6, 65, 0
8, 32160, Note_on_c, 6, 58, 75
8, 32160, Note_on_c, 6, 63, 75
8, 32400, Note_off_c, 6, 58, 0
8, 32400, Note_off_c, 6, 63, 0
8, 32400, Note_on_c, 6, 60, 75
8, 32400, Note_on_c, 6, 63, 75
8, 32520, Note_off_c, 6, 60, 0
8, 32520, Note_off_c, 6, 63, 0
8, 32520, Note_on_c, 6, 63, 75
8, 32520, Note_on_c, 6, 69, 75
8, 32640, Note_off_c, 6, 63, 0
8, 32640, Note_off_c, 6, 69, 0
8, 32640, Note_on_c, 6, 62, 75
8, 32640, Note_on_c, 6, 65, 75
8, 32880, Note_off_c, 6, 62, 0
8, 32880, Note_off_c, 6, 65, 0
8, 32880, Note_on_c, 6, 58, 75
8, 32880, Note_on_c, 6, 61, 75
8, 33120, Note_off_c, 6, 58, 0
8, 33120, Note_off_c, 6, 61, 0
8, 33360, Note_on_c, 6, 70, 75
8, 33360, Note_on_c, 6, 74, 75
8, 33360, Note_on_c, 6, 77, 75
8, 33360, Note_on_c, 6, 82, 75
8, 33600, Note_off_c, 6, 70, 0
8, 33600, Note_off_c, 6, 74, 0
8, 33600, Note_off_c, 6, 77, 0
8, 33600, Note_off_c, 6, 82, 0
8, 33600, End_track
9, 0, Start_track
9, 0, Title_t, "Bass\000"
9, 0, Control_c, 7, 121, 0
9, 0, Program_c, 7, 33
9, 0, Control_c, 7, 7, 95
9, 0, Control_c, 7, 10, 89
9, 0, Control_c, 7, 91, 40
9, 0, Control_c, 7, 123, 0
9, 10080, Note_on_c, 7, 39, 83
9, 10440, Note_off_c, 7, 39, 0
9, 11040, Note_on_c, 7, 34, 83
9, 11640, Note_off_c, 7, 34, 0
9, 12960, Note_on_c, 7, 41, 83
9, 13680, Note_off_c, 7, 41, 0
9, 25440, Note_on_c, 7, 39, 83
9, 25800, Note_off_c, 7, 39, 0
9, 26400, Note_on_c, 7, 34, 83
9, 27000, Note_off_c, 7, 34, 0
9, 28320, Note_on_c, 7, 41, 83
9, 29040, Note_off_c, 7, 41, 0
9, 33240, Note_on_c, 7, 41, 83
9, 33360, Note_off_c, 7, 41, 0
9, 33360, Note_on_c, 7, 34, 83
9, 33600, Note_off_c, 7, 34, 0
9, 33600, End_track
10, 0, Start_track
10, 0, Title_t, "Bass\000"
10, 0, Control_c, 8, 121, 0
10, 0, Program_c, 8, 33
10, 0, Control_c, 8, 7, 95
10, 0, Control_c, 8, 10, 94
10, 0, Control_c, 8, 91, 40
10, 0, Control_c, 8, 123, 0
10, 480, Note_on_c, 8, 36, 83
10, 480, Note_on_c, 8, 48, 83
10, 720, Note_off_c, 8, 36, 0
10, 720, Note_off_c, 8, 48, 0
10, 720, Note_on_c, 8, 42, 83
10, 960, Note_off_c, 8, 42, 0
10, 960, Note_on_c, 8, 41, 83
10, 1200, Note_off_c, 8, 41, 0
10, 1200, Note_on_c, 8, 43, 83
10, 1440, Note_off_c, 8, 43, 0
10, 1440, Note_on_c, 8, 36, 83
10, 1440, Note_on_c, 8, 48, 83
10, 1680, Note_off_c, 8, 36, 0
10, 1680, Note_off_c, 8, 48, 0
10, 1680, Note_on_c, 8, 41, 83
10, 1920, Note_off_c, 8, 41, 0
10, 1920, Note_on_c, 8, 34, 83
10, 1920, Note_on_c, 8, 46, 83
10, 2160, Note_off_c, 8, 34, 0
10, 2160, Note_off_c, 8, 46, 0
10, 2160, Note_on_c, 8, 45, 83
10, 2160, Note_on_c, 8, 57, 83
10, 2400, Note_off_c, 8, 45, 0
10, 2400, Note_off_c, 8, 57, 0
10, 2400, Note_on_c, 8, 34, 83
10, 2580, Note_off_c, 8, 34, 0
10, 2580, Note_on_c, 8, 41, 83
10, 2640, Note_off_c, 8, 41, 0
10, 2640, Note_on_c, 8, 38, 83
10, 2760, Note_off_c, 8, 38, 0
10, 2760, Note_on_c, 8, 34, 83
10, 2880, Note_off_c, 8, 34, 0
10, 2880, Note_on_c, 8, 38, 83
10, 3060, Note_off_c, 8, 38, 0
10, 3060, Note_on_c, 8, 45, 83
10, 3120, Note_off_c, 8, 45, 0
10, 3120, Note_on_c, 8, 41, 83
10, 3240, Note_off_c, 8, 41, 0
10, 3240, Note_on_c, 8, 38, 83
10, 3360, Note_off_c, 8, 38, 0
10, 3360, Note_on_c, 8, 39, 83
10, 3600, Note_off_c, 8, 39, 0
10, 3600, Note_on_c, 8, 41, 83
10, 3840, Note_off_c, 8, 41, 0
10, 3840, Note_on_c, 8, 34, 83
10, 4080, Note_off_c, 8, 34, 0
10, 4080, Note_on_c, 8, 43, 83
10, 4200, Note_off_c, 8, 43, 0
10, 4200, Note_on_c, 8, 41, 83
10, 4320, Note_off_c, 8, 41, 0
10, 4320, Note_on_c, 8, 36, 83
10, 4320, Note_on_c, 8, 48, 83
10, 4560, Note_off_c, 8, 36, 0
10, 4560, Note_off_c, 8, 48, 0
10, 4560, Note_on_c, 8, 42, 83
10, 4800, Note_off_c, 8, 42, 0
10, 4800, Note_on_c, 8, 41, 83
10, 5040, Note_off_c, 8, 41, 0
10, 5040, Note_on_c, 8, 43, 83
10, 5280, Note_off_c, 8, 43, 0
10, 5280, Note_on_c, 8, 36, 83
10, 5280, Note_on_c, 8, 48, 83
10, 5520, Note_off_c, 8, 36, 0
10, 5520, Note_off_c, 8, 48, 0
10, 5520, Note_on_c, 8, 36, 83
10, 5640, Note_off_c, 8, 36, 0
10, 5640, Note_on_c, 8, 48, 83
10, 5760, Note_off_c, 8, 48, 0
10, 5760, Note_on_c, 8, 41, 83
10, 5880, Note_off_c, 8, 41, 0
10, 5880, Note_on_c, 8, 53, 83
10, 6000, Note_off_c, 8, 53, 0
10, 6000, Note_on_c, 8, 41, 83
10, 6240, Note_off_c, 8, 41, 0
10, 6240, Note_on_c, 8, 34, 83
10, 6420, Note_off_c, 8, 34, 0
10, 6420, Note_on_c, 8, 41, 83
10, 6480, Note_off_c, 8, 41, 0
10, 6480, Note_on_c, 8, 38, 83
10, 6600, Note_off_c, 8, 38, 0
10, 6600, Note_on_c, 8, 34, 83
10, 6720, Note_off_c, 8, 34, 0
10, 6720, Note_on_c, 8, 38, 83
10, 6900, Note_off_c, 8, 38, 0
10, 6900, Note_on_c, 8, 45, 83
10, 6960, Note_off_c, 8, 45, 0
10, 6960, Note_on_c, 8, 41, 83
10, 7080, Note_off_c, 8, 41, 0
10, 7080, Note_on_c, 8, 38, 83
10, 7200, Note_off_c, 8, 38, 0
10, 7200, Note_on_c, 8, 39, 83
10, 7440, Note_off_c, 8, 39, 0
10, 7440, Note_on_c, 8, 41, 83
10, 7680, Note_off_c, 8, 41, 0
10, 7680, Note_on_c, 8, 34, 83
10, 7920, Note_off_c, 8, 34, 0
10, 7920, Note_on_c, 8, 43, 83
10, 8040, Note_off_c, 8, 43, 0
10, 8040, Note_on_c, 8, 41, 83
10, 8160, Note_off_c, 8, 41, 0
10, 8160, Note_on_c, 8, 36, 83
10, 8160, Note_on_c, 8, 48, 83
10, 8400, Note_off_c, 8, 36, 0
10, 8400, Note_off_c, 8, 48, 0
10, 8400, Note_on_c, 8, 42, 83
10, 8640, Note_off_c, 8, 42, 0
10, 8640, Note_on_c, 8, 41, 83
10, 8880, Note_off_c, 8, 41, 0
10, 8880, Note_on_c, 8, 43, 83
10, 9120, Note_off_c, 8, 43, 0
10, 9120, Note_on_c, 8, 36, 83
10, 9120, Note_on_c, 8, 48, 83
10, 9360, Note_off_c, 8, 36, 0
10, 9360, Note_off_c, 8, 48, 0
10, 9360, Note_on_c, 8, 41, 83
10, 9600, Note_off_c, 8, 41, 0
10, 9600, Note_on_c, 8, 46, 83
10, 9720, Note_off_c, 8, 46, 0
10, 9720, Note_on_c, 8, 34, 83
10, 9840, Note_off_c, 8, 34, 0
10, 10260, Note_on_c, 8, 46, 83
10, 10320, Note_off_c, 8, 46, 0
10, 10320, Note_on_c, 8, 50, 83
10, 10440, Note_off_c, 8, 50, 0
10, 10440, Note_on_c, 8, 48, 83
10, 10500, Note_off_c, 8, 48, 0
10, 10500, Note_on_c, 8, 46, 83
10, 10560, Note_off_c, 8, 46, 0
10, 10560, Note_on_c, 8, 39, 83
10, 10680, Note_off_c, 8, 39, 0
10, 10680, Note_on_c, 8, 46, 83
10, 10800, Note_off_c, 8, 46, 0
10, 10800, Note_on_c, 8, 39, 83
10, 11040, Note_off_c, 8, 39, 0
10, 11040, Note_on_c, 8, 46, 83
10, 11640, Note_off_c, 8, 46, 0
10, 11640, Note_on_c, 8, 34, 83
10, 11760, Note_off_c, 8, 34, 0
10, 11760, Note_on_c, 8, 46, 83
10, 11880, Note_off_c, 8, 46, 0
10, 11880, Note_on_c, 8, 45, 83
10, 12000, Note_off_c, 8, 45, 0
10, 12000, Note_on_c, 8, 43, 83
10, 12360, Note_off_c, 8, 43, 0
10, 12360, Note_on_c, 8, 43, 83
10, 12480, Note_off_c, 8, 43, 0
10, 12480, Note_on_c, 8, 36, 83
10, 12480, Note_on_c, 8, 48, 83
10, 12720, Note_off_c, 8, 36, 0
10, 12720, Note_off_c, 8, 48, 0
10, 12720, Note_on_c, 8, 36, 83
10, 12840, Note_off_c, 8, 36, 0
10, 12840, Note_on_c, 8, 48, 83
10, 12960, Note_off_c, 8, 48, 0
10, 13080, Note_on_c, 8, 55, 83
10, 13320, Note_off_c, 8, 55, 0
10, 13320, Note_on_c, 8, 55, 83
10, 13440, Note_off_c, 8, 55, 0
10, 13440, Note_on_c, 8, 53, 83
10, 13680, Note_off_c, 8, 53, 0
10, 13680, Note_on_c, 8, 41, 83
10, 13680, Note_on_c, 8, 57, 83
10, 13920, Note_off_c, 8, 41, 0
10, 13920, Note_off_c, 8, 57, 0
10, 13920, Note_on_c, 8, 34, 83
10, 14100, Note_off_c, 8, 34, 0
10, 14100, Note_on_c, 8, 41, 83
10, 14160, Note_off_c, 8, 41, 0
10, 14160, Note_on_c, 8, 38, 83
10, 14280, Note_off_c, 8, 38, 0
10, 14280, Note_on_c, 8, 34, 83
10, 14400, Note_off_c, 8, 34, 0
10, 14400, Note_on_c, 8, 38, 83
10, 14580, Note_off_c, 8, 38, 0
10, 14580, Note_on_c, 8, 45, 83
10, 14640, Note_off_c, 8, 45, 0
10, 14640, Note_on_c, 8, 41, 83
10, 14760, Note_off_c, 8, 41, 0
10, 14760, Note_on_c, 8, 38, 83
10, 14880, Note_off_c, 8, 38, 0
10, 14880, Note_on_c, 8, 39, 83
10, 15120, Note_off_c, 8, 39, 0
10, 15120, Note_on_c, 8, 41, 83
10, 15360, Note_off_c, 8, 41, 0
10, 15360, Note_on_c, 8, 34, 83
10, 15600, Note_off_c, 8, 34, 0
10, 15600, Note_on_c, 8, 43, 83
10, 15720, Note_off_c, 8, 43, 0
10, 15720, Note_on_c, 8, 41, 83
10, 15840, Note_off_c, 8, 41, 0
10, 15840, Note_on_c, 8, 36, 83
10, 15840, Note_on_c, 8, 48, 83
10, 16080, Note_off_c, 8, 36, 0
10, 16080, Note_off_c, 8, 48, 0
10, 16080, Note_on_c, 8, 42, 83
10, 16320, Note_off_c, 8, 42, 0
10, 16320, Note_on_c, 8, 41, 83
10, 16560, Note_off_c, 8, 41, 0
10, 16560, Note_on_c, 8, 43, 83
10, 16800, Note_off_c, 8, 43, 0
10, 16800, Note_on_c, 8, 36, 83
10, 16800, Note_on_c, 8, 48, 83
10, 17040, Note_off_c, 8, 36, 0
10, 17040, Note_off_c, 8, 48, 0
10, 17040, Note_on_c, 8, 41, 83
10, 17280, Note_off_c, 8, 41, 0
10, 17280, Note_on_c, 8, 34, 83
10, 17280, Note_on_c, 8, 46, 83
10, 17520, Note_off_c, 8, 34, 0
10, 17520, Note_off_c, 8, 46, 0
10, 17520, Note_on_c, 8, 41, 83
10, 17520, Note_on_c, 8, 57, 83
10, 17760, Note_off_c, 8, 41, 0
10, 17760, Note_off_c, 8, 57, 0
10, 17760, Note_on_c, 8, 34, 83
10, 17940, Note_off_c, 8, 34, 0
10, 17940, Note_on_c, 8, 41, 83
10, 18000, Note_off_c, 8, 41, 0
10, 18000, Note_on_c, 8, 38, 83
10, 18120, Note_off_c, 8, 38, 0
10, 18120, Note_on_c, 8, 34, 83
10, 18240, Note_off_c, 8, 34, 0
10, 18240, Note_on_c, 8, 38, 83
10, 18420, Note_off_c, 8, 38, 0
10, 18420, Note_on_c, 8, 45, 83
10, 18480, Note_off_c, 8, 45, 0
10, 18480, Note_on_c, 8, 41, 83
10, 18600, Note_off_c, 8, 41, 0
10, 18600, Note_on_c, 8, 38, 83
10, 18720, Note_off_c, 8, 38, 0
10, 18720, Note_on_c, 8, 39, 83
10, 18960, Note_off_c, 8, 39, 0
10, 18960, Note_on_c, 8, 41, 83
10, 19200, Note_off_c, 8, 41, 0
10, 19200, Note_on_c, 8, 34, 83
10, 19440, Note_off_c, 8, 34, 0
10, 19440, Note_on_c, 8, 43, 83
10, 19560, Note_off_c, 8, 43, 0
10, 19560, Note_on_c, 8, 41, 83
10, 19680, Note_off_c, 8, 41, 0
10, 19680, Note_on_c, 8, 36, 83
10, 19680, Note_on_c, 8, 48, 83
10, 19920, Note_off_c, 8, 36, 0
10, 19920, Note_off_c, 8, 48, 0
10, 19920, Note_on_c, 8, 42, 83
10, 20160, Note_off_c, 8, 42, 0
10, 20160, Note_on_c, 8, 41, 83
10, 20400, Note_off_c, 8, 41, 0
10, 20400, Note_on_c, 8, 43, 83
10, 20640, Note_off_c, 8, 43, 0
10, 20640, Note_on_c, 8, 36, 83
10, 20640, Note_on_c, 8, 48, 83
10, 20880, Note_off_c, 8, 36, 0
10, 20880, Note_off_c, 8, 48, 0
10, 20880, Note_on_c, 8, 36, 83
10, 21000, Note_off_c, 8, 36, 0
10, 21000, Note_on_c, 8, 48, 83
10, 21120, Note_off_c, 8, 48, 0
10, 21120, Note_on_c, 8, 41, 83
10, 21240, Note_off_c, 8, 41, 0
10, 21240, Note_on_c, 8, 53, 83
10, 21360, Note_off_c, 8, 53, 0
10, 21360, Note_on_c, 8, 41, 83
10, 21600, Note_off_c, 8, 41, 0
10, 21600, Note_on_c, 8, 34, 83
10, 21780, Note_off_c, 8, 34, 0
10, 21780, Note_on_c, 8, 41, 83
10, 21840, Note_off_c, 8, 41, 0
10, 21840, Note_on_c, 8, 38, 83
10, 21960, Note_off_c, 8, 38, 0
10, 21960, Note_on_c, 8, 34, 83
10, 22080, Note_off_c, 8, 34, 0
10, 22080, Note_on_c, 8, 38, 83
10, 22260, Note_off_c, 8, 38, 0
10, 22260, Note_on_c, 8, 45, 83
10, 22320, Note_off_c, 8, 45, 0
10, 22320, Note_on_c, 8, 41, 83
10, 22440, Note_off_c, 8, 41, 0
10, 22440, Note_on_c, 8, 38, 83
10, 22560, Note_off_c, 8, 38, 0
10, 22560, Note_on_c, 8, 39, 83
10, 22800, Note_off_c, 8, 39, 0
10, 22800, Note_on_c, 8, 41, 83
10, 23040, Note_off_c, 8, 41, 0
10, 23040, Note_on_c, 8, 34, 83
10, 23280, Note_off_c, 8, 34, 0
10, 23280, Note_on_c, 8, 43, 83
10, 23400, Note_off_c, 8, 43, 0
10, 23400, Note_on_c, 8, 41, 83
10, 23520, Note_off_c, 8, 41, 0
10, 23520, Note_on_c, 8, 36, 83
10, 23520, Note_on_c, 8, 48, 83
10, 23760, Note_off_c, 8, 36, 0
10, 23760, Note_off_c, 8, 48, 0
10, 23760, Note_on_c, 8, 42, 83
10, 24000, Note_off_c, 8, 42, 0
10, 24000, Note_on_c, 8, 41, 83
10, 24240, Note_off_c, 8, 41, 0
10, 24240, Note_on_c, 8, 43, 83
10, 24480, Note_off_c, 8, 43, 0
10, 24480, Note_on_c, 8, 36, 83
10, 24480, Note_on_c, 8, 48, 83
10, 24720, Note_off_c, 8, 36, 0
10, 24720, Note_off_c, 8, 48, 0
10, 24720, Note_on_c, 8, 41, 83
10, 24960, Note_off_c, 8, 41, 0
10, 24960, Note_on_c, 8, 46, 83
10, 25080, Note_off_c, 8, 46, 0
10, 25080, Note_on_c, 8, 34, 83
10, 25200, Note_off_c, 8, 34, 0
10, 25620, Note_on_c, 8, 46, 83
10, 25680, Note_off_c, 8, 46, 0
10, 25680, Note_on_c, 8, 50, 83
10, 25800, Note_off_c, 8, 50, 0
10, 25800, Note_on_c, 8, 48, 83
10, 25860, Note_off_c, 8, 48, 0
10, 25860, Note_on_c, 8, 46, 83
10, 25920, Note_off_c, 8, 46, 0
10, 25920, Note_on_c, 8, 39, 83
10, 26040, Note_off_c, 8, 39, 0
10, 26040, Note_on_c, 8, 46, 83
10, 26160, Note_off_c, 8, 46, 0
10, 26160, Note_on_c, 8, 39, 83
10, 26400, Note_off_c, 8, 39, 0
10, 26400, Note_on_c, 8, 46, 83
10, 27000, Note_off_c, 8, 46, 0
10, 27000, Note_on_c, 8, 34, 83
10, 27120, Note_off_c, 8, 34, 0
10, 27120, Note_on_c, 8, 46, 83
10, 27240, Note_off_c, 8, 46, 0
10, 27240, Note_on_c, 8, 45, 83
10, 27360, Note_off_c, 8, 45, 0
10, 27360, Note_on_c, 8, 43, 83
10, 27720, Note_off_c, 8, 43, 0
10, 27720, Note_on_c, 8, 43, 83
10, 27840, Note_off_c, 8, 43, 0
10, 27840, Note_on_c, 8, 36, 83
10, 27840, Note_on_c, 8, 48, 83
10, 28080, Note_off_c, 8, 36, 0
10, 28080, Note_off_c, 8, 48, 0
10, 28080, Note_on_c, 8, 36, 83
10, 28200, Note_off_c, 8, 36, 0
10, 28200, Note_on_c, 8, 48, 83
10, 28320, Note_off_c, 8, 48, 0
10, 28440, Note_on_c, 8, 55, 83
10, 28680, Note_off_c, 8, 55, 0
10, 28680, Note_on_c, 8, 55, 83
10, 28800, Note_off_c, 8, 55, 0
10, 28800, Note_on_c, 8, 53, 83
10, 29040, Note_off_c, 8, 53, 0
10, 29040, Note_on_c, 8, 41, 83
10, 29040, Note_on_c, 8, 57, 83
10, 29280, Note_off_c, 8, 41, 0
10, 29280, Note_off_c, 8, 57, 0
10, 29280, Note_on_c, 8, 34, 83
10, 29460, Note_off_c, 8, 34, 0
10, 29460, Note_on_c, 8, 41, 83
10, 29520, Note_off_c, 8, 41, 0
10, 29520, Note_on_c, 8, 38, 83
10, 29640, Note_off_c, 8, 38, 0
10, 29640, Note_on_c, 8, 34, 83
10, 29760, Note_off_c, 8, 34, 0
10, 29760, Note_on_c, 8, 38, 83
10, 29940, Note_off_c, 8, 38, 0
10, 29940, Note_on_c, 8, 45, 83
10, 30000, Note_off_c, 8, 45, 0
10, 30000, Note_on_c, 8, 41, 83
10, 30120, Note_off_c, 8, 41, 0
10, 30120, Note_on_c, 8, 38, 83
10, 30240, Note_off_c, 8, 38, 0
10, 30240, Note_on_c, 8, 39, 83
10, 30480, Note_off_c, 8, 39, 0
10, 30480, Note_on_c, 8, 41, 83
10, 30720, Note_off_c, 8, 41, 0
10, 30720, Note_on_c, 8, 34, 83
10, 30960, Note_off_c, 8, 34, 0
10, 30960, Note_on_c, 8, 43, 83
10, 31080, Note_off_c, 8, 43, 0
10, 31080, Note_on_c, 8, 41, 83
10, 31200, Note_off_c, 8, 41, 0
10, 31200, Note_on_c, 8, 36, 83
10, 31200, Note_on_c, 8, 48, 83
10, 31440, Note_off_c, 8, 36, 0
10, 31440, Note_off_c, 8, 48, 0
10, 31440, Note_on_c, 8, 42, 83
10, 31680, Note_off_c, 8, 42, 0
10, 31680, Note_on_c, 8, 41, 83
10, 31920, Note_off_c, 8, 41, 0
10, 31920, Note_on_c, 8, 43, 83
10, 32160, Note_off_c, 8, 43, 0
10, 32160, Note_on_c, 8, 36, 83
10, 32160, Note_on_c, 8, 48, 83
10, 32400, Note_off_c, 8, 36, 0
10, 32400, Note_off_c, 8, 48, 0
10, 32400, Note_on_c, 8, 41, 83
10, 32640, Note_off_c, 8, 41, 0
10, 32640, Note_on_c, 8, 34, 83
10, 32760, Note_off_c, 8, 34, 0
10, 32760, Note_on_c, 8, 41, 83
10, 32880, Note_off_c, 8, 41, 0
10, 32880, Note_on_c, 8, 39, 83
10, 33120, Note_off_c, 8, 39, 0
10, 33120, Note_on_c, 8, 46, 83
10, 33360, Note_off_c, 8, 46, 0
10, 33360, Note_on_c, 8, 41, 83
10, 33360, Note_on_c, 8, 50, 83
10, 33600, Note_off_c, 8, 41, 0
10, 33600, Note_off_c, 8, 50, 0
10, 33600, End_track
11, 0, Start_track
11, 0, Title_t, "Drums\000"
11, 0, Control_c, 9, 121, 0
11, 0, Program_c, 9, 16
11, 0, Control_c, 9, 7, 95
11, 0, Control_c, 9, 10, 54
11, 0, Control_c, 9, 91, 40
11, 0, Control_c, 9, 93, 0
11, 0, Control_c, 9, 123, 0
11, 480, Note_on_c, 9, 35, 100
11, 480, Note_on_c, 9, 42, 90
11, 480, Note_on_c, 9, 49, 90
11, 505, Note_off_c, 9, 35, 0
11, 505, Note_off_c, 9, 42, 0
11, 505, Note_off_c, 9, 49, 0
11, 540, Note_on_c, 9, 42, 70
11, 565, Note_off_c, 9, 42, 0
11, 600, Note_on_c, 9, 37, 100
11, 600, Note_on_c, 9, 42, 80
11, 625, Note_off_c, 9, 37, 0
11, 625, Note_off_c, 9, 42, 0
11, 660, Note_on_c, 9, 35, 80
11, 660, Note_on_c, 9, 42, 70
11, 685, Note_off_c, 9, 35, 0
11, 685, Note_off_c, 9, 42, 0
11, 720, Note_on_c, 9, 35, 100
11, 720, Note_on_c, 9, 42, 90
11, 745, Note_off_c, 9, 35, 0
11, 745, Note_off_c, 9, 42, 0
11, 780, Note_on_c, 9, 42, 70
11, 805, Note_off_c, 9, 42, 0
11, 840, Note_on_c, 9, 37, 100
11, 840, Note_on_c, 9, 42, 80
11, 865, Note_off_c, 9, 37, 0
11, 865, Note_off_c, 9, 42, 0
11, 900, Note_on_c, 9, 35, 80
11, 900, Note_on_c, 9, 42, 70
11, 925, Note_off_c, 9, 35, 0
11, 925, Note_off_c, 9, 42, 0
11, 960, Note_on_c, 9, 35, 100
11, 960, Note_on_c, 9, 42, 90
11, 985, Note_off_c, 9, 35, 0
11, 985, Note_off_c, 9, 42, 0
11, 1020, Note_on_c, 9, 42, 70
11, 1045, Note_off_c, 9, 42, 0
11, 1080, Note_on_c, 9, 37, 100
11, 1080, Note_on_c, 9, 42, 80
11, 1105, Note_off_c, 9, 37, 0
11, 1105, Note_off_c, 9, 42, 0
11, 1140, Note_on_c, 9, 35, 80
11, 1140, Note_on_c, 9, 42, 70
11, 1165, Note_off_c, 9, 35, 0
11, 1165, Note_off_c, 9, 42, 0
11, 1200, Note_on_c, 9, 35, 100
11, 1200, Note_on_c, 9, 42, 90
11, 1225, Note_off_c, 9, 35, 0
11, 1225, Note_off_c, 9, 42, 0
11, 1260, Note_on_c, 9, 42, 70
11, 1285, Note_off_c, 9, 42, 0
11, 1320, Note_on_c, 9, 37, 100
11, 1320, Note_on_c, 9, 42, 80
11, 1345, Note_off_c, 9, 37, 0
11, 1345, Note_off_c, 9, 42, 0
11, 1380, Note_on_c, 9, 35, 80
11, 1380, Note_on_c, 9, 42, 70
11, 1405, Note_off_c, 9, 35, 0
11, 1405, Note_off_c, 9, 42, 0
11, 1440, Note_on_c, 9, 35, 100
11, 1440, Note_on_c, 9, 42, 90
11, 1465, Note_off_c, 9, 35, 0
11, 1465, Note_off_c, 9, 42, 0
11, 1500, Note_on_c, 9, 42, 70
11, 1525, Note_off_c, 9, 42, 0
11, 1560, Note_on_c, 9, 37, 100
11, 1560, Note_on_c, 9, 42, 80
11, 1585, Note_off_c, 9, 37, 0
11, 1585, Note_off_c, 9, 42, 0
11, 1620, Note_on_c, 9, 35, 80
11, 1620, Note_on_c, 9, 42, 70
11, 1645, Note_off_c, 9, 35, 0
11, 1645, Note_off_c, 9, 42, 0
11, 1680, Note_on_c, 9, 35, 100
11, 1680, Note_on_c, 9, 42, 90
11, 1705, Note_off_c, 9, 35, 0
11, 1705, Note_off_c, 9, 42, 0
11, 1740, Note_on_c, 9, 42, 70
11, 1765, Note_off_c, 9, 42, 0
11, 1800, Note_on_c, 9, 37, 100
11, 1800, Note_on_c, 9, 42, 80
11, 1825, Note_off_c, 9, 37, 0
11, 1825, Note_off_c, 9, 42, 0
11, 1860, Note_on_c, 9, 35, 80
11, 1860, Note_on_c, 9, 42, 70
11, 1885, Note_off_c, 9, 35, 0
11, 1885, Note_off_c, 9, 42, 0
11, 1920, Note_on_c, 9, 35, 100
11, 1920, Note_on_c, 9, 42, 90
11, 1945, Note_off_c, 9, 35, 0
11, 1945, Note_off_c, 9, 42, 0
11, 1980, Note_on_c, 9, 42, 70
11, 2005, Note_off_c, 9, 42, 0
11, 2040, Note_on_c, 9, 37, 100
11, 2040, Note_on_c, 9, 42, 80
11, 2065, Note_off_c, 9, 37, 0
11, 2065, Note_off_c, 9, 42, 0
11, 2100, Note_on_c, 9, 35, 80
11, 2100, Note_on_c, 9, 42, 70
11, 2125, Note_off_c, 9, 35, 0
11, 2125, Note_off_c, 9, 42, 0
11, 2160, Note_on_c, 9, 35, 100
11, 2160, Note_on_c, 9, 42, 90
11, 2185, Note_off_c, 9, 35, 0
11, 2185, Note_off_c, 9, 42, 0
11, 2220, Note_on_c, 9, 42, 70
11, 2245, Note_off_c, 9, 42, 0
11, 2280, Note_on_c, 9, 37, 100
11, 2280, Note_on_c, 9, 42, 80
11, 2305, Note_off_c, 9, 37, 0
11, 2305, Note_off_c, 9, 42, 0
11, 2340, Note_on_c, 9, 35, 80
11, 2340, Note_on_c, 9, 42, 70
11, 2365, Note_off_c, 9, 35, 0
11, 2365, Note_off_c, 9, 42, 0
11, 2400, Note_on_c, 9, 35, 100
11, 2400, Note_on_c, 9, 42, 90
11, 2425, Note_off_c, 9, 35, 0
11, 2425, Note_off_c, 9, 42, 0
11, 2460, Note_on_c, 9, 42, 70
11, 2485, Note_off_c, 9, 42, 0
11, 2520, Note_on_c, 9, 37, 100
11, 2520, Note_on_c, 9, 42, 80
11, 2545, Note_off_c, 9, 37, 0
11, 2545, Note_off_c, 9, 42, 0
11, 2580, Note_on_c, 9, 35, 80
11, 2580, Note_on_c, 9, 42, 70
11, 2605, Note_off_c, 9, 35, 0
11, 2605, Note_off_c, 9, 42, 0
11, 2640, Note_on_c, 9, 35, 100
11, 2640, Note_on_c, 9, 42, 90
11, 2665, Note_off_c, 9, 35, 0
11, 2665, Note_off_c, 9, 42, 0
11, 2700, Note_on_c, 9, 42, 70
11, 2725, Note_off_c, 9, 42, 0
11, 2760, Note_on_c, 9, 37, 100
11, 2760, Note_on_c, 9, 42, 80
11, 2785, Note_off_c, 9, 37, 0
11, 2785, Note_off_c, 9, 42, 0
11, 2820, Note_on_c, 9, 35, 80
11, 2820, Note_on_c, 9, 42, 70
11, 2845, Note_off_c, 9, 35, 0
11, 2845, Note_off_c, 9, 42, 0
11, 2880, Note_on_c, 9, 35, 100
11, 2880, Note_on_c, 9, 42, 90
11, 2905, Note_off_c, 9, 35, 0
11, 2905, Note_off_c, 9, 42, 0
11, 2940, Note_on_c, 9, 42, 70
11, 2965, Note_off_c, 9, 42, 0
11, 3000, Note_on_c, 9, 37, 100
11, 3000, Note_on_c, 9, 42, 80
11, 3025, Note_off_c, 9, 37, 0
11, 3025, Note_off_c, 9, 42, 0
11, 3060, Note_on_c, 9, 35, 80
11, 3060, Note_on_c, 9, 42, 70
11, 3085, Note_off_c, 9, 35, 0
11, 3085, Note_off_c, 9, 42, 0
11, 3120, Note_on_c, 9, 35, 100
11, 3120, Note_on_c, 9, 42, 90
11, 3145, Note_off_c, 9, 35, 0
11, 3145, Note_off_c, 9, 42, 0
11, 3180, Note_on_c, 9, 42, 70
11, 3205, Note_off_c, 9, 42, 0
11, 3240, Note_on_c, 9, 37, 100
11, 3240, Note_on_c, 9, 42, 80
11, 3265, Note_off_c, 9, 37, 0
11, 3265, Note_off_c, 9, 42, 0
11, 3300, Note_on_c, 9, 35, 80
11, 3300, Note_on_c, 9, 42, 70
11, 3325, Note_off_c, 9, 35, 0
11, 3325, Note_off_c, 9, 42, 0
11, 3360, Note_on_c, 9, 35, 100
11, 3360, Note_on_c, 9, 42, 90
11, 3385, Note_off_c, 9, 35, 0
11, 3385, Note_off_c, 9, 42, 0
11, 3420, Note_on_c, 9, 42, 70
11, 3445, Note_off_c, 9, 42, 0
11, 3480, Note_on_c, 9, 37, 100
11, 3480, Note_on_c, 9, 42, 80
11, 3505, Note_off_c, 9, 37, 0
11, 3505, Note_off_c, 9, 42, 0
11, 3540, Note_on_c, 9, 35, 80
11, 3540, Note_on_c, 9, 42, 70
11, 3565, Note_off_c, 9, 35, 0
11, 3565, Note_off_c, 9, 42, 0
11, 3600, Note_on_c, 9, 35, 100
11, 3600, Note_on_c, 9, 42, 90
11, 3625, Note_off_c, 9, 35, 0
11, 3625, Note_off_c, 9, 42, 0
11, 3660, Note_on_c, 9, 42, 70
11, 3685, Note_off_c, 9, 42, 0
11, 3720, Note_on_c, 9, 37, 100
11, 3720, Note_on_c, 9, 42, 80
11, 3745, Note_off_c, 9, 37, 0
11, 3745, Note_off_c, 9, 42, 0
11, 3780, Note_on_c, 9, 35, 80
11, 3780, Note_on_c, 9, 42, 70
11, 3805, Note_off_c, 9, 35, 0
11, 3805, Note_off_c, 9, 42, 0
11, 3840, Note_on_c, 9, 35, 100
11, 3840, Note_on_c, 9, 42, 90
11, 3865, Note_off_c, 9, 35, 0
11, 3865, Note_off_c, 9, 42, 0
11, 3900, Note_on_c, 9, 42, 70
11, 3925, Note_off_c, 9, 42, 0
11, 3960, Note_on_c, 9, 37, 100
11, 3960, Note_on_c, 9, 42, 80
11, 3985, Note_off_c, 9, 37, 0
11, 3985, Note_off_c, 9, 42, 0
11, 4020, Note_on_c, 9, 35, 80
11, 4020, Note_on_c, 9, 42, 70
11, 4045, Note_off_c, 9, 35, 0
11, 4045, Note_off_c, 9, 42, 0
11, 4080, Note_on_c, 9, 35, 100
11, 4080, Note_on_c, 9, 42, 90
11, 4105, Note_off_c, 9, 35, 0
11, 4105, Note_off_c, 9, 42, 0
11, 4140, Note_on_c, 9, 35, 80
11, 4140, Note_on_c, 9, 42, 70
11, 4165, Note_off_c, 9, 35, 0
11, 4165, Note_off_c, 9, 42, 0
11, 4200, Note_on_c, 9, 37, 100
11, 4200, Note_on_c, 9, 42, 80
11, 4225, Note_off_c, 9, 37, 0
11, 4225, Note_off_c, 9, 42, 0
11, 4260, Note_on_c, 9, 35, 80
11, 4260, Note_on_c, 9, 42, 70
11, 4285, Note_off_c, 9, 35, 0
11, 4285, Note_off_c, 9, 42, 0
11, 4290, Note_on_c, 9, 46, 80
11, 4315, Note_off_c, 9, 46, 0
11, 4320, Note_on_c, 9, 35, 100
11, 4320, Note_on_c, 9, 42, 90
11, 4345, Note_off_c, 9, 35, 0
11, 4345, Note_off_c, 9, 42, 0
11, 4380, Note_on_c, 9, 42, 70
11, 4405, Note_off_c, 9, 42, 0
11, 4440, Note_on_c, 9, 37, 100
11, 4440, Note_on_c, 9, 42, 80
11, 4465, Note_off_c, 9, 37, 0
11, 4465, Note_off_c, 9, 42, 0
11, 4500, Note_on_c, 9, 35, 80
11, 4500, Note_on_c, 9, 42, 70
11, 4525, Note_off_c, 9, 35, 0
11, 4525, Note_off_c, 9, 42, 0
11, 4560, Note_on_c, 9, 35, 100
11, 4560, Note_on_c, 9, 42, 90
11, 4585, Note_off_c, 9, 35, 0
11, 4585, Note_off_c, 9, 42, 0
11, 4620, Note_on_c, 9, 42, 70
11, 4645, Note_off_c, 9, 42, 0
11, 4680, Note_on_c, 9, 37, 100
11, 4680, Note_on_c, 9, 42, 80
11, 4705, Note_off_c, 9, 37, 0
11, 4705, Note_off_c, 9, 42, 0
11, 4740, Note_on_c, 9, 35, 80
11, 4740, Note_on_c, 9, 42, 70
11, 4765, Note_off_c, 9, 35, 0
11, 4765, Note_off_c, 9, 42, 0
11, 4800, Note_on_c, 9, 35, 100
11, 4800, Note_on_c, 9, 42, 90
11, 4825, Note_off_c, 9, 35, 0
11, 4825, Note_off_c, 9, 42, 0
11, 4860, Note_on_c, 9, 42, 70
11, 4885, Note_off_c, 9, 42, 0
11, 4920, Note_on_c, 9, 37, 100
11, 4920, Note_on_c, 9, 42, 80
11, 4945, Note_off_c, 9, 37, 0
11, 4945, Note_off_c, 9, 42, 0
11, 4980, Note_on_c, 9, 35, 80
11, 4980, Note_on_c, 9, 42, 70
11, 5005, Note_off_c, 9, 35, 0
11, 5005, Note_off_c, 9, 42, 0
11, 5040, Note_on_c, 9, 35, 100
11, 5040, Note_on_c, 9, 42, 90
11, 5065, Note_off_c, 9, 35, 0
11, 5065, Note_off_c, 9, 42, 0
11, 5100, Note_on_c, 9, 42, 70
11, 5125, Note_off_c, 9, 42, 0
11, 5160, Note_on_c, 9, 37, 100
11, 5160, Note_on_c, 9, 42, 80
11, 5185, Note_off_c, 9, 37, 0
11, 5185, Note_off_c, 9, 42, 0
11, 5220, Note_on_c, 9, 35, 80
11, 5220, Note_on_c, 9, 42, 70
11, 5245, Note_off_c, 9, 35, 0
11, 5245, Note_off_c, 9, 42, 0
11, 5280, Note_on_c, 9, 35, 100
11, 5280, Note_on_c, 9, 42, 90
11, 5305, Note_off_c, 9, 35, 0
11, 5305, Note_off_c, 9, 42, 0
11, 5340, Note_on_c, 9, 42, 70
11, 5365, Note_off_c, 9, 42, 0
11, 5400, Note_on_c, 9, 37, 100
11, 5400, Note_on_c, 9, 42, 80
11, 5425, Note_off_c, 9, 37, 0
11, 5425, Note_off_c, 9, 42, 0
11, 5460, Note_on_c, 9, 35, 80
11, 5460, Note_on_c, 9, 42, 70
11, 5485, Note_off_c, 9, 35, 0
11, 5485, Note_off_c, 9, 42, 0
11, 5520, Note_on_c, 9, 35, 100
11, 5520, Note_on_c, 9, 42, 90
11, 5545, Note_off_c, 9, 35, 0
11, 5545, Note_off_c, 9, 42, 0
11, 5580, Note_on_c, 9, 42, 70
11, 5605, Note_off_c, 9, 42, 0
11, 5640, Note_on_c, 9, 37, 100
11, 5640, Note_on_c, 9, 42, 80
11, 5665, Note_off_c, 9, 37, 0
11, 5665, Note_off_c, 9, 42, 0
11, 5700, Note_on_c, 9, 35, 80
11, 5700, Note_on_c, 9, 42, 70
11, 5725, Note_off_c, 9, 35, 0
11, 5725, Note_off_c, 9, 42, 0
11, 5760, Note_on_c, 9, 35, 100
11, 5760, Note_on_c, 9, 42, 90
11, 5785, Note_off_c, 9, 35, 0
11, 5785, Note_off_c, 9, 42, 0
11, 5820, Note_on_c, 9, 42, 70
11, 5845, Note_off_c, 9, 42, 0
11, 5880, Note_on_c, 9, 37, 100
11, 5880, Note_on_c, 9, 42, 80
11, 5905, Note_off_c, 9, 37, 0
11, 5905, Note_off_c, 9, 42, 0
11, 5940, Note_on_c, 9, 35, 80
11, 5940, Note_on_c, 9, 42, 70
11, 5965, Note_off_c, 9, 35, 0
11, 5965, Note_off_c, 9, 42, 0
11, 6000, Note_on_c, 9, 35, 100
11, 6000, Note_on_c, 9, 42, 90
11, 6025, Note_off_c, 9, 35, 0
11, 6025, Note_off_c, 9, 42, 0
11, 6060, Note_on_c, 9, 42, 70
11, 6085, Note_off_c, 9, 42, 0
11, 6120, Note_on_c, 9, 37, 100
11, 6120, Note_on_c, 9, 42, 80
11, 6145, Note_off_c, 9, 37, 0
11, 6145, Note_off_c, 9, 42, 0
11, 6180, Note_on_c, 9, 35, 80
11, 6180, Note_on_c, 9, 42, 70
11, 6205, Note_off_c, 9, 35, 0
11, 6205, Note_off_c, 9, 42, 0
11, 6240, Note_on_c, 9, 35, 100
11, 6240, Note_on_c, 9, 42, 90
11, 6265, Note_off_c, 9, 35, 0
11, 6265, Note_off_c, 9, 42, 0
11, 6300, Note_on_c, 9, 42, 70
11, 6325, Note_off_c, 9, 42, 0
11, 6360, Note_on_c, 9, 37, 100
11, 6360, Note_on_c, 9, 42, 80
11, 6385, Note_off_c, 9, 37, 0
11, 6385, Note_off_c, 9, 42, 0
11, 6420, Note_on_c, 9, 35, 80
11, 6420, Note_on_c, 9, 42, 70
11, 6445, Note_off_c, 9, 35, 0
11, 6445, Note_off_c, 9, 42, 0
11, 6480, Note_on_c, 9, 35, 100
11, 6480, Note_on_c, 9, 42, 90
11, 6505, Note_off_c, 9, 35, 0
11, 6505, Note_off_c, 9, 42, 0
11, 6540, Note_on_c, 9, 42, 70
11, 6565, Note_off_c, 9, 42, 0
11, 6600, Note_on_c, 9, 37, 100
11, 6600, Note_on_c, 9, 42, 80
11, 6625, Note_off_c, 9, 37, 0
11, 6625, Note_off_c, 9, 42, 0
11, 6660, Note_on_c, 9, 35, 80
11, 6660, Note_on_c, 9, 42, 70
11, 6685, Note_off_c, 9, 35, 0
11, 6685, Note_off_c, 9, 42, 0
11, 6720, Note_on_c, 9, 35, 100
11, 6720, Note_on_c, 9, 42, 90
11, 6745, Note_off_c, 9, 35, 0
11, 6745, Note_off_c, 9, 42, 0
11, 6780, Note_on_c, 9, 42, 70
11, 6805, Note_off_c, 9, 42, 0
11, 6840, Note_on_c, 9, 37, 100
11, 6840, Note_on_c, 9, 42, 80
11, 6865, Note_off_c, 9, 37, 0
11, 6865, Note_off_c, 9, 42, 0
11, 6900, Note_on_c, 9, 35, 80
11, 6900, Note_on_c, 9, 42, 70
11, 6925, Note_off_c, 9, 35, 0
11, 6925, Note_off_c, 9, 42, 0
11, 6960, Note_on_c, 9, 35, 100
11, 6960, Note_on_c, 9, 42, 90
11, 6985, Note_off_c, 9, 35, 0
11, 6985, Note_off_c, 9, 42, 0
11, 7020, Note_on_c, 9, 42, 70
11, 7045, Note_off_c, 9, 42, 0
11, 7080, Note_on_c, 9, 37, 100
11, 7080, Note_on_c, 9, 42, 80
11, 7105, Note_off_c, 9, 37, 0
11, 7105, Note_off_c, 9, 42, 0
11, 7140, Note_on_c, 9, 35, 80
11, 7140, Note_on_c, 9, 42, 70
11, 7165, Note_off_c, 9, 35, 0
11, 7165, Note_off_c, 9, 42, 0
11, 7200, Note_on_c, 9, 35, 100
11, 7200, Note_on_c, 9, 42, 90
11, 7225, Note_off_c, 9, 35, 0
11, 7225, Note_off_c, 9, 42, 0
11, 7260, Note_on_c, 9, 42, 70
11, 7285, Note_off_c, 9, 42, 0
11, 7320, Note_on_c, 9, 37, 100
11, 7320, Note_on_c, 9, 42, 80
11, 7345, Note_off_c, 9, 37, 0
11, 7345, Note_off_c, 9, 42, 0
11, 7380, Note_on_c, 9, 35, 80
11, 7380, Note_on_c, 9, 42, 70
11, 7405, Note_off_c, 9, 35, 0
11, 7405, Note_off_c, 9, 42, 0
11, 7440, Note_on_c, 9, 35, 100
11, 7440, Note_on_c, 9, 42, 90
11, 7465, Note_off_c, 9, 35, 0
11, 7465, Note_off_c, 9, 42, 0
11, 7500, Note_on_c, 9, 42, 70
11, 7525, Note_off_c, 9, 42, 0
11, 7560, Note_on_c, 9, 37, 100
11, 7560, Note_on_c, 9, 42, 80
11, 7585, Note_off_c, 9, 37, 0
11, 7585, Note_off_c, 9, 42, 0
11, 7620, Note_on_c, 9, 35, 80
11, 7620, Note_on_c, 9, 42, 70
11, 7645, Note_off_c, 9, 35, 0
11, 7645, Note_off_c, 9, 42, 0
11, 7680, Note_on_c, 9, 35, 100
11, 7680, Note_on_c, 9, 42, 90
11, 7705, Note_off_c, 9, 35, 0
11, 7705, Note_off_c, 9, 42, 0
11, 7740, Note_on_c, 9, 42, 70
11, 7765, Note_off_c, 9, 42, 0
11, 7800, Note_on_c, 9, 37, 100
11, 7800, Note_on_c, 9, 42, 80
11, 7825, Note_off_c, 9, 37, 0
11, 7825, Note_off_c, 9, 42, 0
11, 7860, Note_on_c, 9, 35, 80
11, 7860, Note_on_c, 9, 42, 70
11, 7885, Note_off_c, 9, 35, 0
11, 7885, Note_off_c, 9, 42, 0
11, 7920, Note_on_c, 9, 35, 100
11, 7920, Note_on_c, 9, 42, 90
11, 7945, Note_off_c, 9, 35, 0
11, 7945, Note_off_c, 9, 42, 0
11, 7980, Note_on_c, 9, 42, 70
11, 8005, Note_off_c, 9, 42, 0
11, 8040, Note_on_c, 9, 37, 100
11, 8040, Note_on_c, 9, 42, 80
11, 8065, Note_off_c, 9, 37, 0
11, 8065, Note_off_c, 9, 42, 0
11, 8100, Note_on_c, 9, 35, 80
11, 8100, Note_on_c, 9, 42, 70
11, 8125, Note_off_c, 9, 35, 0
11, 8125, Note_off_c, 9, 42, 0
11, 8160, Note_on_c, 9, 35, 100
11, 8160, Note_on_c, 9, 42, 90
11, 8185, Note_off_c, 9, 35, 0
11, 8185, Note_off_c, 9, 42, 0
11, 8220, Note_on_c, 9, 42, 70
11, 8245, Note_off_c, 9, 42, 0
11, 8280, Note_on_c, 9, 37, 100
11, 8280, Note_on_c, 9, 42, 80
11, 8305, Note_off_c, 9, 37, 0
11, 8305, Note_off_c, 9, 42, 0
11, 8340, Note_on_c, 9, 35, 80
11, 8340, Note_on_c, 9, 42, 70
11, 8365, Note_off_c, 9, 35, 0
11, 8365, Note_off_c, 9, 42, 0
11, 8400, Note_on_c, 9, 35, 100
11, 8400, Note_on_c, 9, 42, 90
11, 8425, Note_off_c, 9, 35, 0
11, 8425, Note_off_c, 9, 42, 0
11, 8460, Note_on_c, 9, 42, 70
11, 8485, Note_off_c, 9, 42, 0
11, 8520, Note_on_c, 9, 37, 100
11, 8520, Note_on_c, 9, 42, 80
11, 8545, Note_off_c, 9, 37, 0
11, 8545, Note_off_c, 9, 42, 0
11, 8580, Note_on_c, 9, 35, 80
11, 8580, Note_on_c, 9, 42, 70
11, 8605, Note_off_c, 9, 35, 0
11, 8605, Note_off_c, 9, 42, 0
11, 8640, Note_on_c, 9, 35, 100
11, 8640, Note_on_c, 9, 42, 90
11, 8665, Note_off_c, 9, 35, 0
11, 8665, Note_off_c, 9, 42, 0
11, 8700, Note_on_c, 9, 42, 70
11, 8725, Note_off_c, 9, 42, 0
11, 8760, Note_on_c, 9, 37, 100
11, 8760, Note_on_c, 9, 42, 80
11, 8785, Note_off_c, 9, 37, 0
11, 8785, Note_off_c, 9, 42, 0
11, 8820, Note_on_c, 9, 35, 80
11, 8820, Note_on_c, 9, 42, 70
11, 8845, Note_off_c, 9, 35, 0
11, 8845, Note_off_c, 9, 42, 0
11, 8880, Note_on_c, 9, 35, 100
11, 8880, Note_on_c, 9, 42, 90
11, 8905, Note_off_c, 9, 35, 0
11, 8905, Note_off_c, 9, 42, 0
11, 8940, Note_on_c, 9, 42, 70
11, 8965, Note_off_c, 9, 42, 0
11, 9000, Note_on_c, 9, 37, 100
11, 9000, Note_on_c, 9, 42, 80
11, 9025, Note_off_c, 9, 37, 0
11, 9025, Note_off_c, 9, 42, 0
11, 9060, Note_on_c, 9, 35, 80
11, 9060, Note_on_c, 9, 42, 70
11, 9085, Note_off_c, 9, 35, 0
11, 9085, Note_off_c, 9, 42, 0
11, 9120, Note_on_c, 9, 35, 100
11, 9120, Note_on_c, 9, 42, 90
11, 9145, Note_off_c, 9, 35, 0
11, 9145, Note_off_c, 9, 42, 0
11, 9180, Note_on_c, 9, 42, 70
11, 9205, Note_off_c, 9, 42, 0
11, 9240, Note_on_c, 9, 37, 100
11, 9240, Note_on_c, 9, 42, 80
11, 9265, Note_off_c, 9, 37, 0
11, 9265, Note_off_c, 9, 42, 0
11, 9300, Note_on_c, 9, 35, 80
11, 9300, Note_on_c, 9, 42, 70
11, 9325, Note_off_c, 9, 35, 0
11, 9325, Note_off_c, 9, 42, 0
11, 9360, Note_on_c, 9, 35, 100
11, 9360, Note_on_c, 9, 42, 90
11, 9385, Note_off_c, 9, 35, 0
11, 9385, Note_off_c, 9, 42, 0
11, 9420, Note_on_c, 9, 42, 70
11, 9445, Note_off_c, 9, 42, 0
11, 9480, Note_on_c, 9, 37, 100
11, 9480, Note_on_c, 9, 42, 80
11, 9505, Note_off_c, 9, 37, 0
11, 9505, Note_off_c, 9, 42, 0
11, 9540, Note_on_c, 9, 35, 80
11, 9540, Note_on_c, 9, 42, 70
11, 9565, Note_off_c, 9, 35, 0
11, 9565, Note_off_c, 9, 42, 0
11, 9600, Note_on_c, 9, 35, 100
11, 9600, Note_on_c, 9, 42, 90
11, 9625, Note_off_c, 9, 35, 0
11, 9625, Note_off_c, 9, 42, 0
11, 9660, Note_on_c, 9, 42, 70
11, 9685, Note_off_c, 9, 42, 0
11, 9720, Note_on_c, 9, 37, 100
11, 9720, Note_on_c, 9, 42, 80
11, 9745, Note_off_c, 9, 37, 0
11, 9745, Note_off_c, 9, 42, 0
11, 9780, Note_on_c, 9, 35, 80
11, 9780, Note_on_c, 9, 42, 70
11, 9805, Note_off_c, 9, 35, 0
11, 9805, Note_off_c, 9, 42, 0
11, 9840, Note_on_c, 9, 35, 100
11, 9840, Note_on_c, 9, 42, 90
11, 9865, Note_off_c, 9, 35, 0
11, 9865, Note_off_c, 9, 42, 0
11, 9900, Note_on_c, 9, 42, 70
11, 9925, Note_off_c, 9, 42, 0
11, 9960, Note_on_c, 9, 37, 100
11, 9960, Note_on_c, 9, 42, 80
11, 9985, Note_off_c, 9, 37, 0
11, 9985, Note_off_c, 9, 42, 0
11, 10020, Note_on_c, 9, 35, 80
11, 10020, Note_on_c, 9, 42, 70
11, 10045, Note_off_c, 9, 35, 0
11, 10045, Note_off_c, 9, 42, 0
11, 10080, Note_on_c, 9, 35, 100
11, 10080, Note_on_c, 9, 42, 90
11, 10105, Note_off_c, 9, 35, 0
11, 10105, Note_off_c, 9, 42, 0
11, 10140, Note_on_c, 9, 42, 70
11, 10165, Note_off_c, 9, 42, 0
11, 10200, Note_on_c, 9, 37, 100
11, 10200, Note_on_c, 9, 42, 80
11, 10225, Note_off_c, 9, 37, 0
11, 10225, Note_off_c, 9, 42, 0
11, 10260, Note_on_c, 9, 35, 80
11, 10260, Note_on_c, 9, 42, 70
11, 10285, Note_off_c, 9, 35, 0
11, 10285, Note_off_c, 9, 42, 0
11, 10320, Note_on_c, 9, 35, 100
11, 10320, Note_on_c, 9, 42, 90
11, 10345, Note_off_c, 9, 35, 0
11, 10345, Note_off_c, 9, 42, 0
11, 10380, Note_on_c, 9, 42, 70
11, 10405, Note_off_c, 9, 42, 0
11, 10440, Note_on_c, 9, 37, 100
11, 10440, Note_on_c, 9, 42, 80
11, 10465, Note_off_c, 9, 37, 0
11, 10465, Note_off_c, 9, 42, 0
11, 10500, Note_on_c, 9, 35, 80
11, 10500, Note_on_c, 9, 42, 70
11, 10525, Note_off_c, 9, 35, 0
11, 10525, Note_off_c, 9, 42, 0
11, 10560, Note_on_c, 9, 35, 100
11, 10560, Note_on_c, 9, 42, 90
11, 10585, Note_off_c, 9, 35, 0
11, 10585, Note_off_c, 9, 42, 0
11, 10620, Note_on_c, 9, 42, 70
11, 10645, Note_off_c, 9, 42, 0
11, 10680, Note_on_c, 9, 37, 100
11, 10680, Note_on_c, 9, 42, 80
11, 10705, Note_off_c, 9, 37, 0
11, 10705, Note_off_c, 9, 42, 0
11, 10740, Note_on_c, 9, 35, 80
11, 10740, Note_on_c, 9, 42, 70
11, 10765, Note_off_c, 9, 35, 0
11, 10765, Note_off_c, 9, 42, 0
11, 10800, Note_on_c, 9, 35, 100
11, 10800, Note_on_c, 9, 42, 90
11, 10825, Note_off_c, 9, 35, 0
11, 10825, Note_off_c, 9, 42, 0
11, 10860, Note_on_c, 9, 42, 70
11, 10885, Note_off_c, 9, 42, 0
11, 10920, Note_on_c, 9, 37, 100
11, 10920, Note_on_c, 9, 42, 80
11, 10945, Note_off_c, 9, 37, 0
11, 10945, Note_off_c, 9, 42, 0
11, 10980, Note_on_c, 9, 35, 80
11, 10980, Note_on_c, 9, 42, 70
11, 11005, Note_off_c, 9, 35, 0
11, 11005, Note_off_c, 9, 42, 0
11, 11040, Note_on_c, 9, 35, 100
11, 11040, Note_on_c, 9, 42, 90
11, 11065, Note_off_c, 9, 35, 0
11, 11065, Note_off_c, 9, 42, 0
11, 11100, Note_on_c, 9, 42, 70
11, 11125, Note_off_c, 9, 42, 0
11, 11160, Note_on_c, 9, 37, 100
11, 11160, Note_on_c, 9, 42, 80
11, 11185, Note_off_c, 9, 37, 0
11, 11185, Note_off_c, 9, 42, 0
11, 11220, Note_on_c, 9, 35, 80
11, 11220, Note_on_c, 9, 42, 70
11, 11245, Note_off_c, 9, 35, 0
11, 11245, Note_off_c, 9, 42, 0
11, 11280, Note_on_c, 9, 35, 100
11, 11280, Note_on_c, 9, 42, 90
11, 11305, Note_off_c, 9, 35, 0
11, 11305, Note_off_c, 9, 42, 0
11, 11340, Note_on_c, 9, 42, 70
11, 11365, Note_off_c, 9, 42, 0
11, 11400, Note_on_c, 9, 37, 100
11, 11400, Note_on_c, 9, 42, 80
11, 11425, Note_off_c, 9, 37, 0
11, 11425, Note_off_c, 9, 42, 0
11, 11460, Note_on_c, 9, 35, 80
11, 11460, Note_on_c, 9, 42, 70
11, 11485, Note_off_c, 9, 35, 0
11, 11485, Note_off_c, 9, 42, 0
11, 11520, Note_on_c, 9, 35, 100
11, 11520, Note_on_c, 9, 42, 90
11, 11545, Note_off_c, 9, 35, 0
11, 11545, Note_off_c, 9, 42, 0
11, 11550, Note_on_c, 9, 42, 60
11, 11575, Note_off_c, 9, 42, 0
11, 11580, Note_on_c, 9, 42, 70
11, 11605, Note_off_c, 9, 42, 0
11, 11640, Note_on_c, 9, 37, 100
11, 11640, Note_on_c, 9, 42, 80
11, 11665, Note_off_c, 9, 37, 0
11, 11665, Note_off_c, 9, 42, 0
11, 11700, Note_on_c, 9, 35, 80
11, 11700, Note_on_c, 9, 42, 70
11, 11725, Note_off_c, 9, 35, 0
11, 11725, Note_off_c, 9, 42, 0
11, 11730, Note_on_c, 9, 42, 60
11, 11755, Note_off_c, 9, 42, 0
11, 11760, Note_on_c, 9, 35, 100
11, 11760, Note_on_c, 9, 42, 90
11, 11785, Note_off_c, 9, 35, 0
11, 11785, Note_off_c, 9, 42, 0
11, 11820, Note_on_c, 9, 42, 70
11, 11845, Note_off_c, 9, 42, 0
11, 11880, Note_on_c, 9, 37, 100
11, 11880, Note_on_c, 9, 42, 80
11, 11905, Note_off_c, 9, 37, 0
11, 11905, Note_off_c, 9, 42, 0
11, 11940, Note_on_c, 9, 35, 80
11, 11940, Note_on_c, 9, 42, 70
11, 11965, Note_off_c, 9, 35, 0
11, 11965, Note_off_c, 9, 42, 0
11, 12000, Note_on_c, 9, 35, 100
11, 12000, Note_on_c, 9, 42, 90
11, 12025, Note_off_c, 9, 35, 0
11, 12025, Note_off_c, 9, 42, 0
11, 12060, Note_on_c, 9, 42, 70
11, 12085, Note_off_c, 9, 42, 0
11, 12120, Note_on_c, 9, 37, 100
11, 12120, Note_on_c, 9, 42, 80
11, 12145, Note_off_c, 9, 37, 0
11, 12145, Note_off_c, 9, 42, 0
11, 12180, Note_on_c, 9, 35, 80
11, 12180, Note_on_c, 9, 42, 70
11, 12205, Note_off_c, 9, 35, 0
11, 12205, Note_off_c, 9, 42, 0
11, 12240, Note_on_c, 9, 35, 100
11, 12240, Note_on_c, 9, 42, 90
11, 12265, Note_off_c, 9, 35, 0
11, 12265, Note_off_c, 9, 42, 0
11, 12300, Note_on_c, 9, 42, 70
11, 12325, Note_off_c, 9, 42, 0
11, 12360, Note_on_c, 9, 37, 100
11, 12360, Note_on_c, 9, 42, 80
11, 12385, Note_off_c, 9, 37, 0
11, 12385, Note_off_c, 9, 42, 0
11, 12420, Note_on_c, 9, 35, 80
11, 12420, Note_on_c, 9, 42, 70
11, 12445, Note_off_c, 9, 35, 0
11, 12445, Note_off_c, 9, 42, 0
11, 12480, Note_on_c, 9, 35, 100
11, 12480, Note_on_c, 9, 42, 90
11, 12505, Note_off_c, 9, 35, 0
11, 12505, Note_off_c, 9, 42, 0
11, 12540, Note_on_c, 9, 42, 70
11, 12565, Note_off_c, 9, 42, 0
11, 12600, Note_on_c, 9, 37, 100
11, 12600, Note_on_c, 9, 42, 80
11, 12625, Note_off_c, 9, 37, 0
11, 12625, Note_off_c, 9, 42, 0
11, 12660, Note_on_c, 9, 35, 80
11, 12660, Note_on_c, 9, 42, 70
11, 12685, Note_off_c, 9, 35, 0
11, 12685, Note_off_c, 9, 42, 0
11, 12720, Note_on_c, 9, 35, 100
11, 12720, Note_on_c, 9, 42, 90
11, 12745, Note_off_c, 9, 35, 0
11, 12745, Note_off_c, 9, 42, 0
11, 12780, Note_on_c, 9, 35, 80
11, 12780, Note_on_c, 9, 42, 70
11, 12805, Note_off_c, 9, 35, 0
11, 12805, Note_off_c, 9, 42, 0
11, 12840, Note_on_c, 9, 37, 100
11, 12840, Note_on_c, 9, 42, 80
11, 12865, Note_off_c, 9, 37, 0
11, 12865, Note_off_c, 9, 42, 0
11, 12900, Note_on_c, 9, 35, 80
11, 12900, Note_on_c, 9, 42, 70
11, 12925, Note_off_c, 9, 35, 0
11, 12925, Note_off_c, 9, 42, 0
11, 12930, Note_on_c, 9, 46, 80
11, 12955, Note_off_c, 9, 46, 0
11, 12960, Note_on_c, 9, 35, 100
11, 12960, Note_on_c, 9, 42, 90
11, 12985, Note_off_c, 9, 35, 0
11, 12985, Note_off_c, 9, 42, 0
11, 13020, Note_on_c, 9, 42, 70
11, 13045, Note_off_c, 9, 42, 0
11, 13080, Note_on_c, 9, 37, 100
11, 13080, Note_on_c, 9, 42, 80
11, 13105, Note_off_c, 9, 37, 0
11, 13105, Note_off_c, 9, 42, 0
11, 13140, Note_on_c, 9, 35, 80
11, 13140, Note_on_c, 9, 42, 70
11, 13165, Note_off_c, 9, 35, 0
11, 13165, Note_off_c, 9, 42, 0
11, 13200, Note_on_c, 9, 35, 100
11, 13200, Note_on_c, 9, 42, 90
11, 13225, Note_off_c, 9, 35, 0
11, 13225, Note_off_c, 9, 42, 0
11, 13260, Note_on_c, 9, 42, 70
11, 13285, Note_off_c, 9, 42, 0
11, 13320, Note_on_c, 9, 37, 100
11, 13320, Note_on_c, 9, 42, 80
11, 13345, Note_off_c, 9, 37, 0
11, 13345, Note_off_c, 9, 42, 0
11, 13380, Note_on_c, 9, 35, 80
11, 13380, Note_on_c, 9, 42, 70
11, 13405, Note_off_c, 9, 35, 0
11, 13405, Note_off_c, 9, 42, 0
11, 13440, Note_on_c, 9, 35, 100
11, 13440, Note_on_c, 9, 42, 90
11, 13465, Note_off_c, 9, 35, 0
11, 13465, Note_off_c, 9, 42, 0
11, 13500, Note_on_c, 9, 42, 70
11, 13525, Note_off_c, 9, 42, 0
11, 13560, Note_on_c, 9, 37, 100
11, 13560, Note_on_c, 9, 42, 80
11, 13585, Note_off_c, 9, 37, 0
11, 13585, Note_off_c, 9, 42, 0
11, 13620, Note_on_c, 9, 35, 80
11, 13620, Note_on_c, 9, 42, 70
11, 13645, Note_off_c, 9, 35, 0
11, 13645, Note_off_c, 9, 42, 0
11, 13680, Note_on_c, 9, 35, 100
11, 13680, Note_on_c, 9, 42, 90
11, 13705, Note_off_c, 9, 35, 0
11, 13705, Note_off_c, 9, 42, 0
11, 13740, Note_on_c, 9, 35, 80
11, 13740, Note_on_c, 9, 42, 70
11, 13765, Note_off_c, 9, 35, 0
11, 13765, Note_off_c, 9, 42, 0
11, 13800, Note_on_c, 9, 37, 100
11, 13800, Note_on_c, 9, 42, 80
11, 13825, Note_off_c, 9, 37, 0
11, 13825, Note_off_c, 9, 42, 0
11, 13860, Note_on_c, 9, 35, 80
11, 13860, Note_on_c, 9, 42, 70
11, 13885, Note_off_c, 9, 35, 0
11, 13885, Note_off_c, 9, 42, 0
11, 13890, Note_on_c, 9, 46, 80
11, 13915, Note_off_c, 9, 46, 0
11, 13920, Note_on_c, 9, 35, 100
11, 13920, Note_on_c, 9, 42, 90
11, 13945, Note_off_c, 9, 35, 0
11, 13945, Note_off_c, 9, 42, 0
11, 13980, Note_on_c, 9, 42, 70
11, 14005, Note_off_c, 9, 42, 0
11, 14040, Note_on_c, 9, 37, 100
11, 14040, Note_on_c, 9, 42, 80
11, 14065, Note_off_c, 9, 37, 0
11, 14065, Note_off_c, 9, 42, 0
11, 14100, Note_on_c, 9, 35, 80
11, 14100, Note_on_c, 9, 42, 70
11, 14125, Note_off_c, 9, 35, 0
11, 14125, Note_off_c, 9, 42, 0
11, 14160, Note_on_c, 9, 35, 100
11, 14160, Note_on_c, 9, 42, 90
11, 14185, Note_off_c, 9, 35, 0
11, 14185, Note_off_c, 9, 42, 0
11, 14220, Note_on_c, 9, 42, 70
11, 14245, Note_off_c, 9, 42, 0
11, 14280, Note_on_c, 9, 37, 100
11, 14280, Note_on_c, 9, 42, 80
11, 14305, Note_off_c, 9, 37, 0
11, 14305, Note_off_c, 9, 42, 0
11, 14340, Note_on_c, 9, 35, 80
11, 14340, Note_on_c, 9, 42, 70
11, 14365, Note_off_c, 9, 35, 0
11, 14365, Note_off_c, 9, 42, 0
11, 14400, Note_on_c, 9, 35, 100
11, 14400, Note_on_c, 9, 42, 90
11, 14425, Note_off_c, 9, 35, 0
11, 14425, Note_off_c, 9, 42, 0
11, 14460, Note_on_c, 9, 42, 70
11, 14485, Note_off_c, 9, 42, 0
11, 14520, Note_on_c, 9, 37, 100
11, 14520, Note_on_c, 9, 42, 80
11, 14545, Note_off_c, 9, 37, 0
11, 14545, Note_off_c, 9, 42, 0
11, 14580, Note_on_c, 9, 35, 80
11, 14580, Note_on_c, 9, 42, 70
11, 14605, Note_off_c, 9, 35, 0
11, 14605, Note_off_c, 9, 42, 0
11, 14640, Note_on_c, 9, 35, 100
11, 14640, Note_on_c, 9, 42, 90
11, 14665, Note_off_c, 9, 35, 0
11, 14665, Note_off_c, 9, 42, 0
11, 14700, Note_on_c, 9, 35, 80
11, 14700, Note_on_c, 9, 42, 70
11, 14725, Note_off_c, 9, 35, 0
11, 14725, Note_off_c, 9, 42, 0
11, 14760, Note_on_c, 9, 37, 100
11, 14760, Note_on_c, 9, 42, 80
11, 14785, Note_off_c, 9, 37, 0
11, 14785, Note_off_c, 9, 42, 0
11, 14820, Note_on_c, 9, 35, 80
11, 14820, Note_on_c, 9, 42, 70
11, 14845, Note_off_c, 9, 35, 0
11, 14845, Note_off_c, 9, 42, 0
11, 14850, Note_on_c, 9, 42, 60
11, 14875, Note_off_c, 9, 42, 0
11, 14880, Note_on_c, 9, 35, 100
11, 14880, Note_on_c, 9, 42, 90
11, 14905, Note_off_c, 9, 35, 0
11, 14905, Note_off_c, 9, 42, 0
11, 14940, Note_on_c, 9, 42, 70
11, 14965, Note_off_c, 9, 42, 0
11, 15000, Note_on_c, 9, 37, 100
11, 15000, Note_on_c, 9, 42, 80
11, 15025, Note_off_c, 9, 37, 0
11, 15025, Note_off_c, 9, 42, 0
11, 15060, Note_on_c, 9, 35, 80
11, 15060, Note_on_c, 9, 42, 70
11, 15085, Note_off_c, 9, 35, 0
11, 15085, Note_off_c, 9, 42, 0
11, 15120, Note_on_c, 9, 35, 100
11, 15120, Note_on_c, 9, 42, 90
11, 15145, Note_off_c, 9, 35, 0
11, 15145, Note_off_c, 9, 42, 0
11, 15180, Note_on_c, 9, 42, 70
11, 15205, Note_off_c, 9, 42, 0
11, 15240, Note_on_c, 9, 37, 100
11, 15240, Note_on_c, 9, 42, 80
11, 15265, Note_off_c, 9, 37, 0
11, 15265, Note_off_c, 9, 42, 0
11, 15300, Note_on_c, 9, 35, 80
11, 15300, Note_on_c, 9, 42, 70
11, 15325, Note_off_c, 9, 35, 0
11, 15325, Note_off_c, 9, 42, 0
11, 15360, Note_on_c, 9, 35, 100
11, 15360, Note_on_c, 9, 42, 90
11, 15385, Note_off_c, 9, 35, 0
11, 15385, Note_off_c, 9, 42, 0
11, 15420, Note_on_c, 9, 42, 70
11, 15445, Note_off_c, 9, 42, 0
11, 15480, Note_on_c, 9, 37, 100
11, 15480, Note_on_c, 9, 42, 80
11, 15505, Note_off_c, 9, 37, 0
11, 15505, Note_off_c, 9, 42, 0
11, 15540, Note_on_c, 9, 35, 80
11, 15540, Note_on_c, 9, 42, 70
11, 15565, Note_off_c, 9, 35, 0
11, 15565, Note_off_c, 9, 42, 0
11, 15600, Note_on_c, 9, 35, 100
11, 15600, Note_on_c, 9, 42, 90
11, 15625, Note_off_c, 9, 35, 0
11, 15625, Note_off_c, 9, 42, 0
11, 15660, Note_on_c, 9, 38, 90
11, 15685, Note_off_c, 9, 38, 0
11, 15720, Note_on_c, 9, 38, 100
11, 15745, Note_off_c, 9, 38, 0
11, 15780, Note_on_c, 9, 35, 80
11, 15780, Note_on_c, 9, 38, 115
11, 15805, Note_off_c, 9, 35, 0
11, 15805, Note_off_c, 9, 38, 0
11, 15810, Note_on_c, 9, 38, 90
11, 15835, Note_off_c, 9, 38, 0
11, 15840, Note_on_c, 9, 35, 100
11, 15840, Note_on_c, 9, 42, 90
11, 15840, Note_on_c, 9, 49, 90
11, 15865, Note_off_c, 9, 35, 0
11, 15865, Note_off_c, 9, 42, 0
11, 15865, Note_off_c, 9, 49, 0
11, 15900, Note_on_c, 9, 42, 70
11, 15925, Note_off_c, 9, 42, 0
11, 15960, Note_on_c, 9, 37, 100
11, 15960, Note_on_c, 9, 42, 80
11, 15985, Note_off_c, 9, 37, 0
11, 15985, Note_off_c, 9, 42, 0
11, 16020, Note_on_c, 9, 35, 80
11, 16020, Note_on_c, 9, 42, 70
11, 16045, Note_off_c, 9, 35, 0
11, 16045, Note_off_c, 9, 42, 0
11, 16080, Note_on_c, 9, 35, 100
11, 16080, Note_on_c, 9, 42, 90
11, 16105, Note_off_c, 9, 35, 0
11, 16105, Note_off_c, 9, 42, 0
11, 16140, Note_on_c, 9, 42, 70
11, 16165, Note_off_c, 9, 42, 0
11, 16200, Note_on_c, 9, 37, 100
11, 16200, Note_on_c, 9, 42, 80
11, 16225, Note_off_c, 9, 37, 0
11, 16225, Note_off_c, 9, 42, 0
11, 16260, Note_on_c, 9, 35, 80
11, 16260, Note_on_c, 9, 42, 70
11, 16285, Note_off_c, 9, 35, 0
11, 16285, Note_off_c, 9, 42, 0
11, 16320, Note_on_c, 9, 35, 100
11, 16320, Note_on_c, 9, 42, 90
11, 16345, Note_off_c, 9, 35, 0
11, 16345, Note_off_c, 9, 42, 0
11, 16380, Note_on_c, 9, 42, 70
11, 16405, Note_off_c, 9, 42, 0
11, 16440, Note_on_c, 9, 37, 100
11, 16440, Note_on_c, 9, 42, 80
11, 16465, Note_off_c, 9, 37, 0
11, 16465, Note_off_c, 9, 42, 0
11, 16500, Note_on_c, 9, 35, 80
11, 16500, Note_on_c, 9, 42, 70
11, 16525, Note_off_c, 9, 35, 0
11, 16525, Note_off_c, 9, 42, 0
11, 16560, Note_on_c, 9, 35, 100
11, 16560, Note_on_c, 9, 42, 90
11, 16585, Note_off_c, 9, 35, 0
11, 16585, Note_off_c, 9, 42, 0
11, 16620, Note_on_c, 9, 42, 70
11, 16645, Note_off_c, 9, 42, 0
11, 16680, Note_on_c, 9, 37, 100
11, 16680, Note_on_c, 9, 42, 80
11, 16705, Note_off_c, 9, 37, 0
11, 16705, Note_off_c, 9, 42, 0
11, 16740, Note_on_c, 9, 35, 80
11, 16740, Note_on_c, 9, 42, 70
11, 16765, Note_off_c, 9, 35, 0
11, 16765, Note_off_c, 9, 42, 0
11, 16800, Note_on_c, 9, 35, 100
11, 16800, Note_on_c, 9, 42, 90
11, 16825, Note_off_c, 9, 35, 0
11, 16825, Note_off_c, 9, 42, 0
11, 16860, Note_on_c, 9, 42, 70
11, 16885, Note_off_c, 9, 42, 0
11, 16920, Note_on_c, 9, 37, 100
11, 16920, Note_on_c, 9, 42, 80
11, 16945, Note_off_c, 9, 37, 0
11, 16945, Note_off_c, 9, 42, 0
11, 16980, Note_on_c, 9, 35, 80
11, 16980, Note_on_c, 9, 42, 70
11, 17005, Note_off_c, 9, 35, 0
11, 17005, Note_off_c, 9, 42, 0
11, 17040, Note_on_c, 9, 35, 100
11, 17040, Note_on_c, 9, 42, 90
11, 17065, Note_off_c, 9, 35, 0
11, 17065, Note_off_c, 9, 42, 0
11, 17100, Note_on_c, 9, 42, 70
11, 17125, Note_off_c, 9, 42, 0
11, 17160, Note_on_c, 9, 37, 100
11, 17160, Note_on_c, 9, 42, 80
11, 17185, Note_off_c, 9, 37, 0
11, 17185, Note_off_c, 9, 42, 0
11, 17220, Note_on_c, 9, 35, 80
11, 17220, Note_on_c, 9, 42, 70
11, 17245, Note_off_c, 9, 35, 0
11, 17245, Note_off_c, 9, 42, 0
11, 17280, Note_on_c, 9, 35, 100
11, 17280, Note_on_c, 9, 42, 90
11, 17305, Note_off_c, 9, 35, 0
11, 17305, Note_off_c, 9, 42, 0
11, 17340, Note_on_c, 9, 42, 70
11, 17365, Note_off_c, 9, 42, 0
11, 17400, Note_on_c, 9, 37, 100
11, 17400, Note_on_c, 9, 42, 80
11, 17425, Note_off_c, 9, 37, 0
11, 17425, Note_off_c, 9, 42, 0
11, 17460, Note_on_c, 9, 35, 80
11, 17460, Note_on_c, 9, 42, 70
11, 17485, Note_off_c, 9, 35, 0
11, 17485, Note_off_c, 9, 42, 0
11, 17520, Note_on_c, 9, 35, 100
11, 17520, Note_on_c, 9, 42, 90
11, 17545, Note_off_c, 9, 35, 0
11, 17545, Note_off_c, 9, 42, 0
11, 17580, Note_on_c, 9, 42, 70
11, 17605, Note_off_c, 9, 42, 0
11, 17640, Note_on_c, 9, 37, 100
11, 17640, Note_on_c, 9, 42, 80
11, 17665, Note_off_c, 9, 37, 0
11, 17665, Note_off_c, 9, 42, 0
11, 17700, Note_on_c, 9, 35, 80
11, 17700, Note_on_c, 9, 42, 70
11, 17725, Note_off_c, 9, 35, 0
11, 17725, Note_off_c, 9, 42, 0
11, 17760, Note_on_c, 9, 35, 100
11, 17760, Note_on_c, 9, 42, 90
11, 17785, Note_off_c, 9, 35, 0
11, 17785, Note_off_c, 9, 42, 0
11, 17820, Note_on_c, 9, 42, 70
11, 17845, Note_off_c, 9, 42, 0
11, 17880, Note_on_c, 9, 37, 100
11, 17880, Note_on_c, 9, 42, 80
11, 17905, Note_off_c, 9, 37, 0
11, 17905, Note_off_c, 9, 42, 0
11, 17940, Note_on_c, 9, 35, 80
11, 17940, Note_on_c, 9, 42, 70
11, 17965, Note_off_c, 9, 35, 0
11, 17965, Note_off_c, 9, 42, 0
11, 18000, Note_on_c, 9, 35, 100
11, 18000, Note_on_c, 9, 42, 90
11, 18025, Note_off_c, 9, 35, 0
11, 18025, Note_off_c, 9, 42, 0
11, 18060, Note_on_c, 9, 42, 70
11, 18085, Note_off_c, 9, 42, 0
11, 18120, Note_on_c, 9, 37, 100
11, 18120, Note_on_c, 9, 42, 80
11, 18145, Note_off_c, 9, 37, 0
11, 18145, Note_off_c, 9, 42, 0
11, 18180, Note_on_c, 9, 35, 80
11, 18180, Note_on_c, 9, 42, 70
11, 18205, Note_off_c, 9, 35, 0
11, 18205, Note_off_c, 9, 42, 0
11, 18240, Note_on_c, 9, 35, 100
11, 18240, Note_on_c, 9, 42, 90
11, 18265, Note_off_c, 9, 35, 0
11, 18265, Note_off_c, 9, 42, 0
11, 18300, Note_on_c, 9, 42, 70
11, 18325, Note_off_c, 9, 42, 0
11, 18360, Note_on_c, 9, 37, 100
11, 18360, Note_on_c, 9, 42, 80
11, 18385, Note_off_c, 9, 37, 0
11, 18385, Note_off_c, 9, 42, 0
11, 18420, Note_on_c, 9, 35, 80
11, 18420, Note_on_c, 9, 42, 70
11, 18445, Note_off_c, 9, 35, 0
11, 18445, Note_off_c, 9, 42, 0
11, 18480, Note_on_c, 9, 35, 100
11, 18480, Note_on_c, 9, 42, 90
11, 18505, Note_off_c, 9, 35, 0
11, 18505, Note_off_c, 9, 42, 0
11, 18540, Note_on_c, 9, 35, 80
11, 18540, Note_on_c, 9, 42, 70
11, 18565, Note_off_c, 9, 35, 0
11, 18565, Note_off_c, 9, 42, 0
11, 18600, Note_on_c, 9, 37, 100
11, 18600, Note_on_c, 9, 42, 80
11, 18625, Note_off_c, 9, 37, 0
11, 18625, Note_off_c, 9, 42, 0
11, 18660, Note_on_c, 9, 35, 80
11, 18660, Note_on_c, 9, 42, 70
11, 18685, Note_off_c, 9, 35, 0
11, 18685, Note_off_c, 9, 42, 0
11, 18690, Note_on_c, 9, 42, 60
11, 18715, Note_off_c, 9, 42, 0
11, 18720, Note_on_c, 9, 35, 100
11, 18720, Note_on_c, 9, 42, 90
11, 18745, Note_off_c, 9, 35, 0
11, 18745, Note_off_c, 9, 42, 0
11, 18780, Note_on_c, 9, 42, 70
11, 18805, Note_off_c, 9, 42, 0
11, 18840, Note_on_c, 9, 37, 100
11, 18840, Note_on_c, 9, 42, 80
11, 18865, Note_off_c, 9, 37, 0
11, 18865, Note_off_c, 9, 42, 0
11, 18900, Note_on_c, 9, 35, 80
11, 18900, Note_on_c, 9, 42, 70
11, 18925, Note_off_c, 9, 35, 0
11, 18925, Note_off_c, 9, 42, 0
11, 18960, Note_on_c, 9, 35, 100
11, 18960, Note_on_c, 9, 42, 90
11, 18985, Note_off_c, 9, 35, 0
11, 18985, Note_off_c, 9, 42, 0
11, 19020, Note_on_c, 9, 42, 70
11, 19045, Note_off_c, 9, 42, 0
11, 19080, Note_on_c, 9, 37, 100
11, 19080, Note_on_c, 9, 42, 80
11, 19105, Note_off_c, 9, 37, 0
11, 19105, Note_off_c, 9, 42, 0
11, 19140, Note_on_c, 9, 35, 80
11, 19140, Note_on_c, 9, 42, 70
11, 19165, Note_off_c, 9, 35, 0
11, 19165, Note_off_c, 9, 42, 0
11, 19200, Note_on_c, 9, 35, 100
11, 19200, Note_on_c, 9, 42, 90
11, 19225, Note_off_c, 9, 35, 0
11, 19225, Note_off_c, 9, 42, 0
11, 19260, Note_on_c, 9, 42, 70
11, 19285, Note_off_c, 9, 42, 0
11, 19320, Note_on_c, 9, 37, 100
11, 19320, Note_on_c, 9, 42, 80
11, 19345, Note_off_c, 9, 37, 0
11, 19345, Note_off_c, 9, 42, 0
11, 19380, Note_on_c, 9, 35, 80
11, 19380, Note_on_c, 9, 42, 70
11, 19405, Note_off_c, 9, 35, 0
11, 19405, Note_off_c, 9, 42, 0
11, 19440, Note_on_c, 9, 35, 100
11, 19440, Note_on_c, 9, 42, 90
11, 19465, Note_off_c, 9, 35, 0
11, 19465, Note_off_c, 9, 42, 0
11, 19500, Note_on_c, 9, 42, 70
11, 19525, Note_off_c, 9, 42, 0
11, 19560, Note_on_c, 9, 37, 100
11, 19560, Note_on_c, 9, 42, 80
11, 19585, Note_off_c, 9, 37, 0
11, 19585, Note_off_c, 9, 42, 0
11, 19620, Note_on_c, 9, 35, 80
11, 19620, Note_on_c, 9, 42, 70
11, 19645, Note_off_c, 9, 35, 0
11, 19645, Note_off_c, 9, 42, 0
11, 19680, Note_on_c, 9, 35, 100
11, 19680, Note_on_c, 9, 42, 90
11, 19705, Note_off_c, 9, 35, 0
11, 19705, Note_off_c, 9, 42, 0
11, 19740, Note_on_c, 9, 42, 70
11, 19765, Note_off_c, 9, 42, 0
11, 19800, Note_on_c, 9, 37, 100
11, 19800, Note_on_c, 9, 42, 80
11, 19825, Note_off_c, 9, 37, 0
11, 19825, Note_off_c, 9, 42, 0
11, 19860, Note_on_c, 9, 35, 80
11, 19860, Note_on_c, 9, 42, 70
11, 19885, Note_off_c, 9, 35, 0
11, 19885, Note_off_c, 9, 42, 0
11, 19920, Note_on_c, 9, 35, 100
11, 19920, Note_on_c, 9, 42, 90
11, 19945, Note_off_c, 9, 35, 0
11, 19945, Note_off_c, 9, 42, 0
11, 19980, Note_on_c, 9, 42, 70
11, 20005, Note_off_c, 9, 42, 0
11, 20040, Note_on_c, 9, 37, 100
11, 20040, Note_on_c, 9, 42, 80
11, 20065, Note_off_c, 9, 37, 0
11, 20065, Note_off_c, 9, 42, 0
11, 20100, Note_on_c, 9, 35, 80
11, 20100, Note_on_c, 9, 42, 70
11, 20125, Note_off_c, 9, 35, 0
11, 20125, Note_off_c, 9, 42, 0
11, 20160, Note_on_c, 9, 35, 100
11, 20160, Note_on_c, 9, 42, 90
11, 20185, Note_off_c, 9, 35, 0
11, 20185, Note_off_c, 9, 42, 0
11, 20220, Note_on_c, 9, 42, 70
11, 20245, Note_off_c, 9, 42, 0
11, 20280, Note_on_c, 9, 37, 100
11, 20280, Note_on_c, 9, 42, 80
11, 20305, Note_off_c, 9, 37, 0
11, 20305, Note_off_c, 9, 42, 0
11, 20340, Note_on_c, 9, 35, 80
11, 20340, Note_on_c, 9, 42, 70
11, 20365, Note_off_c, 9, 35, 0
11, 20365, Note_off_c, 9, 42, 0
11, 20400, Note_on_c, 9, 35, 100
11, 20400, Note_on_c, 9, 42, 90
11, 20425, Note_off_c, 9, 35, 0
11, 20425, Note_off_c, 9, 42, 0
11, 20460, Note_on_c, 9, 35, 80
11, 20460, Note_on_c, 9, 42, 70
11, 20485, Note_off_c, 9, 35, 0
11, 20485, Note_off_c, 9, 42, 0
11, 20520, Note_on_c, 9, 37, 100
11, 20520, Note_on_c, 9, 42, 80
11, 20545, Note_off_c, 9, 37, 0
11, 20545, Note_off_c, 9, 42, 0
11, 20580, Note_on_c, 9, 35, 80
11, 20580, Note_on_c, 9, 42, 70
11, 20605, Note_off_c, 9, 35, 0
11, 20605, Note_off_c, 9, 42, 0
11, 20610, Note_on_c, 9, 42, 60
11, 20635, Note_off_c, 9, 42, 0
11, 20640, Note_on_c, 9, 35, 100
11, 20640, Note_on_c, 9, 42, 90
11, 20665, Note_off_c, 9, 35, 0
11, 20665, Note_off_c, 9, 42, 0
11, 20700, Note_on_c, 9, 42, 70
11, 20725, Note_off_c, 9, 42, 0
11, 20760, Note_on_c, 9, 37, 100
11, 20760, Note_on_c, 9, 42, 80
11, 20785, Note_off_c, 9, 37, 0
11, 20785, Note_off_c, 9, 42, 0
11, 20820, Note_on_c, 9, 35, 80
11, 20820, Note_on_c, 9, 42, 70
11, 20845, Note_off_c, 9, 35, 0
11, 20845, Note_off_c, 9, 42, 0
11, 20880, Note_on_c, 9, 35, 100
11, 20880, Note_on_c, 9, 42, 90
11, 20905, Note_off_c, 9, 35, 0
11, 20905, Note_off_c, 9, 42, 0
11, 20940, Note_on_c, 9, 42, 70
11, 20965, Note_off_c, 9, 42, 0
11, 21000, Note_on_c, 9, 37, 100
11, 21000, Note_on_c, 9, 42, 80
11, 21025, Note_off_c, 9, 37, 0
11, 21025, Note_off_c, 9, 42, 0
11, 21060, Note_on_c, 9, 35, 80
11, 21060, Note_on_c, 9, 42, 70
11, 21085, Note_off_c, 9, 35, 0
11, 21085, Note_off_c, 9, 42, 0
11, 21120, Note_on_c, 9, 35, 100
11, 21120, Note_on_c, 9, 42, 90
11, 21145, Note_off_c, 9, 35, 0
11, 21145, Note_off_c, 9, 42, 0
11, 21180, Note_on_c, 9, 42, 70
11, 21205, Note_off_c, 9, 42, 0
11, 21240, Note_on_c, 9, 37, 100
11, 21240, Note_on_c, 9, 42, 80
11, 21265, Note_off_c, 9, 37, 0
11, 21265, Note_off_c, 9, 42, 0
11, 21300, Note_on_c, 9, 35, 80
11, 21300, Note_on_c, 9, 42, 70
11, 21325, Note_off_c, 9, 35, 0
11, 21325, Note_off_c, 9, 42, 0
11, 21360, Note_on_c, 9, 35, 100
11, 21360, Note_on_c, 9, 42, 90
11, 21385, Note_off_c, 9, 35, 0
11, 21385, Note_off_c, 9, 42, 0
11, 21420, Note_on_c, 9, 35, 80
11, 21420, Note_on_c, 9, 42, 70
11, 21445, Note_off_c, 9, 35, 0
11, 21445, Note_off_c, 9, 42, 0
11, 21480, Note_on_c, 9, 37, 100
11, 21480, Note_on_c, 9, 42, 80
11, 21505, Note_off_c, 9, 37, 0
11, 21505, Note_off_c, 9, 42, 0
11, 21540, Note_on_c, 9, 35, 80
11, 21540, Note_on_c, 9, 42, 70
11, 21565, Note_off_c, 9, 35, 0
11, 21565, Note_off_c, 9, 42, 0
11, 21570, Note_on_c, 9, 42, 60
11, 21595, Note_off_c, 9, 42, 0
11, 21600, Note_on_c, 9, 35, 100
11, 21600, Note_on_c, 9, 42, 90
11, 21625, Note_off_c, 9, 35, 0
11, 21625, Note_off_c, 9, 42, 0
11, 21660, Note_on_c, 9, 42, 70
11, 21685, Note_off_c, 9, 42, 0
11, 21720, Note_on_c, 9, 37, 100
11, 21720, Note_on_c, 9, 42, 80
11, 21745, Note_off_c, 9, 37, 0
11, 21745, Note_off_c, 9, 42, 0
11, 21780, Note_on_c, 9, 35, 80
11, 21780, Note_on_c, 9, 42, 70
11, 21805, Note_off_c, 9, 35, 0
11, 21805, Note_off_c, 9, 42, 0
11, 21840, Note_on_c, 9, 35, 100
11, 21840, Note_on_c, 9, 42, 90
11, 21865, Note_off_c, 9, 35, 0
11, 21865, Note_off_c, 9, 42, 0
11, 21900, Note_on_c, 9, 42, 70
11, 21925, Note_off_c, 9, 42, 0
11, 21960, Note_on_c, 9, 37, 100
11, 21960, Note_on_c, 9, 42, 80
11, 21985, Note_off_c, 9, 37, 0
11, 21985, Note_off_c, 9, 42, 0
11, 22020, Note_on_c, 9, 35, 80
11, 22020, Note_on_c, 9, 42, 70
11, 22045, Note_off_c, 9, 35, 0
11, 22045, Note_off_c, 9, 42, 0
11, 22080, Note_on_c, 9, 35, 100
11, 22080, Note_on_c, 9, 42, 90
11, 22105, Note_off_c, 9, 35, 0
11, 22105, Note_off_c, 9, 42, 0
11, 22140, Note_on_c, 9, 42, 70
11, 22165, Note_off_c, 9, 42, 0
11, 22200, Note_on_c, 9, 37, 100
11, 22200, Note_on_c, 9, 42, 80
11, 22225, Note_off_c, 9, 37, 0
11, 22225, Note_off_c, 9, 42, 0
11, 22260, Note_on_c, 9, 35, 80
11, 22260, Note_on_c, 9, 42, 70
11, 22285, Note_off_c, 9, 35, 0
11, 22285, Note_off_c, 9, 42, 0
11, 22320, Note_on_c, 9, 35, 100
11, 22320, Note_on_c, 9, 42, 90
11, 22345, Note_off_c, 9, 35, 0
11, 22345, Note_off_c, 9, 42, 0
11, 22380, Note_on_c, 9, 35, 80
11, 22380, Note_on_c, 9, 42, 70
11, 22405, Note_off_c, 9, 35, 0
11, 22405, Note_off_c, 9, 42, 0
11, 22440, Note_on_c, 9, 37, 100
11, 22440, Note_on_c, 9, 42, 80
11, 22465, Note_off_c, 9, 37, 0
11, 22465, Note_off_c, 9, 42, 0
11, 22500, Note_on_c, 9, 35, 80
11, 22500, Note_on_c, 9, 42, 70
11, 22525, Note_off_c, 9, 35, 0
11, 22525, Note_off_c, 9, 42, 0
11, 22530, Note_on_c, 9, 42, 60
11, 22555, Note_off_c, 9, 42, 0
11, 22560, Note_on_c, 9, 35, 100
11, 22560, Note_on_c, 9, 42, 90
11, 22585, Note_off_c, 9, 35, 0
11, 22585, Note_off_c, 9, 42, 0
11, 22620, Note_on_c, 9, 42, 70
11, 22645, Note_off_c, 9, 42, 0
11, 22680, Note_on_c, 9, 37, 100
11, 22680, Note_on_c, 9, 42, 80
11, 22705, Note_off_c, 9, 37, 0
11, 22705, Note_off_c, 9, 42, 0
11, 22740, Note_on_c, 9, 35, 80
11, 22740, Note_on_c, 9, 42, 70
11, 22765, Note_off_c, 9, 35, 0
11, 22765, Note_off_c, 9, 42, 0
11, 22800, Note_on_c, 9, 35, 100
11, 22800, Note_on_c, 9, 42, 90
11, 22825, Note_off_c, 9, 35, 0
11, 22825, Note_off_c, 9, 42, 0
11, 22860, Note_on_c, 9, 42, 70
11, 22885, Note_off_c, 9, 42, 0
11, 22920, Note_on_c, 9, 37, 100
11, 22920, Note_on_c, 9, 42, 80
11, 22945, Note_off_c, 9, 37, 0
11, 22945, Note_off_c, 9, 42, 0
11, 22980, Note_on_c, 9, 35, 80
11, 22980, Note_on_c, 9, 42, 70
11, 23005, Note_off_c, 9, 35, 0
11, 23005, Note_off_c, 9, 42, 0
11, 23040, Note_on_c, 9, 35, 100
11, 23040, Note_on_c, 9, 42, 90
11, 23065, Note_off_c, 9, 35, 0
11, 23065, Note_off_c, 9, 42, 0
11, 23100, Note_on_c, 9, 42, 70
11, 23125, Note_off_c, 9, 42, 0
11, 23160, Note_on_c, 9, 37, 100
11, 23160, Note_on_c, 9, 42, 80
11, 23185, Note_off_c, 9, 37, 0
11, 23185, Note_off_c, 9, 42, 0
11, 23220, Note_on_c, 9, 35, 80
11, 23220, Note_on_c, 9, 42, 70
11, 23245, Note_off_c, 9, 35, 0
11, 23245, Note_off_c, 9, 42, 0
11, 23250, Note_on_c, 9, 42, 60
11, 23275, Note_off_c, 9, 42, 0
11, 23280, Note_on_c, 9, 35, 100
11, 23280, Note_on_c, 9, 42, 90
11, 23305, Note_off_c, 9, 35, 0
11, 23305, Note_off_c, 9, 42, 0
11, 23340, Note_on_c, 9, 42, 70
11, 23365, Note_off_c, 9, 42, 0
11, 23400, Note_on_c, 9, 37, 100
11, 23400, Note_on_c, 9, 42, 80
11, 23425, Note_off_c, 9, 37, 0
11, 23425, Note_off_c, 9, 42, 0
11, 23460, Note_on_c, 9, 35, 80
11, 23460, Note_on_c, 9, 42, 70
11, 23485, Note_off_c, 9, 35, 0
11, 23485, Note_off_c, 9, 42, 0
11, 23520, Note_on_c, 9, 35, 100
11, 23520, Note_on_c, 9, 42, 90
11, 23545, Note_off_c, 9, 35, 0
11, 23545, Note_off_c, 9, 42, 0
11, 23580, Note_on_c, 9, 42, 70
11, 23605, Note_off_c, 9, 42, 0
11, 23640, Note_on_c, 9, 37, 100
11, 23640, Note_on_c, 9, 42, 80
11, 23665, Note_off_c, 9, 37, 0
11, 23665, Note_off_c, 9, 42, 0
11, 23700, Note_on_c, 9, 35, 80
11, 23700, Note_on_c, 9, 42, 70
11, 23725, Note_off_c, 9, 35, 0
11, 23725, Note_off_c, 9, 42, 0
11, 23760, Note_on_c, 9, 35, 100
11, 23760, Note_on_c, 9, 42, 90
11, 23785, Note_off_c, 9, 35, 0
11, 23785, Note_off_c, 9, 42, 0
11, 23820, Note_on_c, 9, 42, 70
11, 23845, Note_off_c, 9, 42, 0
11, 23880, Note_on_c, 9, 37, 100
11, 23880, Note_on_c, 9, 42, 80
11, 23905, Note_off_c, 9, 37, 0
11, 23905, Note_off_c, 9, 42, 0
11, 23940, Note_on_c, 9, 35, 80
11, 23940, Note_on_c, 9, 42, 70
11, 23965, Note_off_c, 9, 35, 0
11, 23965, Note_off_c, 9, 42, 0
11, 24000, Note_on_c, 9, 35, 100
11, 24000, Note_on_c, 9, 42, 90
11, 24025, Note_off_c, 9, 35, 0
11, 24025, Note_off_c, 9, 42, 0
11, 24060, Note_on_c, 9, 42, 70
11, 24085, Note_off_c, 9, 42, 0
11, 24120, Note_on_c, 9, 37, 100
11, 24120, Note_on_c, 9, 42, 80
11, 24145, Note_off_c, 9, 37, 0
11, 24145, Note_off_c, 9, 42, 0
11, 24180, Note_on_c, 9, 35, 80
11, 24180, Note_on_c, 9, 42, 70
11, 24205, Note_off_c, 9, 35, 0
11, 24205, Note_off_c, 9, 42, 0
11, 24240, Note_on_c, 9, 35, 100
11, 24240, Note_on_c, 9, 42, 90
11, 24265, Note_off_c, 9, 35, 0
11, 24265, Note_off_c, 9, 42, 0
11, 24300, Note_on_c, 9, 35, 80
11, 24300, Note_on_c, 9, 42, 70
11, 24325, Note_off_c, 9, 35, 0
11, 24325, Note_off_c, 9, 42, 0
11, 24360, Note_on_c, 9, 37, 100
11, 24360, Note_on_c, 9, 42, 80
11, 24385, Note_off_c, 9, 37, 0
11, 24385, Note_off_c, 9, 42, 0
11, 24420, Note_on_c, 9, 35, 80
11, 24420, Note_on_c, 9, 42, 70
11, 24445, Note_off_c, 9, 35, 0
11, 24445, Note_off_c, 9, 42, 0
11, 24450, Note_on_c, 9, 42, 60
11, 24475, Note_off_c, 9, 42, 0
11, 24480, Note_on_c, 9, 35, 100
11, 24480, Note_on_c, 9, 42, 90
11, 24505, Note_off_c, 9, 35, 0
11, 24505, Note_off_c, 9, 42, 0
11, 24540, Note_on_c, 9, 42, 70
11, 24565, Note_off_c, 9, 42, 0
11, 24600, Note_on_c, 9, 37, 100
11, 24600, Note_on_c, 9, 42, 80
11, 24625, Note_off_c, 9, 37, 0
11, 24625, Note_off_c, 9, 42, 0
11, 24660, Note_on_c, 9, 35, 80
11, 24660, Note_on_c, 9, 42, 70
11, 24685, Note_off_c, 9, 35, 0
11, 24685, Note_off_c, 9, 42, 0
11, 24720, Note_on_c, 9, 35, 100
11, 24720, Note_on_c, 9, 42, 90
11, 24745, Note_off_c, 9, 35, 0
11, 24745, Note_off_c, 9, 42, 0
11, 24780, Note_on_c, 9, 42, 70
11, 24805, Note_off_c, 9, 42, 0
11, 24840, Note_on_c, 9, 37, 100
11, 24840, Note_on_c, 9, 42, 80
11, 24865, Note_off_c, 9, 37, 0
11, 24865, Note_off_c, 9, 42, 0
11, 24900, Note_on_c, 9, 35, 80
11, 24900, Note_on_c, 9, 42, 70
11, 24925, Note_off_c, 9, 35, 0
11, 24925, Note_off_c, 9, 42, 0
11, 24960, Note_on_c, 9, 35, 100
11, 24960, Note_on_c, 9, 42, 90
11, 24985, Note_off_c, 9, 35, 0
11, 24985, Note_off_c, 9, 42, 0
11, 25020, Note_on_c, 9, 42, 70
11, 25045, Note_off_c, 9, 42, 0
11, 25080, Note_on_c, 9, 37, 100
11, 25080, Note_on_c, 9, 42, 80
11, 25105, Note_off_c, 9, 37, 0
11, 25105, Note_off_c, 9, 42, 0
11, 25140, Note_on_c, 9, 35, 80
11, 25140, Note_on_c, 9, 42, 70
11, 25165, Note_off_c, 9, 35, 0
11, 25165, Note_off_c, 9, 42, 0
11, 25200, Note_on_c, 9, 35, 100
11, 25200, Note_on_c, 9, 42, 90
11, 25225, Note_off_c, 9, 35, 0
11, 25225, Note_off_c, 9, 42, 0
11, 25260, Note_on_c, 9, 42, 70
11, 25285, Note_off_c, 9, 42, 0
11, 25320, Note_on_c, 9, 37, 100
11, 25320, Note_on_c, 9, 42, 80
11, 25345, Note_off_c, 9, 37, 0
11, 25345, Note_off_c, 9, 42, 0
11, 25380, Note_on_c, 9, 35, 80
11, 25380, Note_on_c, 9, 42, 70
11, 25405, Note_off_c, 9, 35, 0
11, 25405, Note_off_c, 9, 42, 0
11, 25440, Note_on_c, 9, 35, 100
11, 25440, Note_on_c, 9, 42, 90
11, 25465, Note_off_c, 9, 35, 0
11, 25465, Note_off_c, 9, 42, 0
11, 25500, Note_on_c, 9, 42, 70
11, 25525, Note_off_c, 9, 42, 0
11, 25560, Note_on_c, 9, 37, 100
11, 25560, Note_on_c, 9, 42, 80
11, 25585, Note_off_c, 9, 37, 0
11, 25585, Note_off_c, 9, 42, 0
11, 25620, Note_on_c, 9, 35, 80
11, 25620, Note_on_c, 9, 42, 70
11, 25645, Note_off_c, 9, 35, 0
11, 25645, Note_off_c, 9, 42, 0
11, 25680, Note_on_c, 9, 35, 100
11, 25680, Note_on_c, 9, 42, 90
11, 25705, Note_off_c, 9, 35, 0
11, 25705, Note_off_c, 9, 42, 0
11, 25740, Note_on_c, 9, 42, 70
11, 25765, Note_off_c, 9, 42, 0
11, 25800, Note_on_c, 9, 37, 100
11, 25800, Note_on_c, 9, 42, 80
11, 25825, Note_off_c, 9, 37, 0
11, 25825, Note_off_c, 9, 42, 0
11, 25860, Note_on_c, 9, 35, 80
11, 25860, Note_on_c, 9, 42, 70
11, 25885, Note_off_c, 9, 35, 0
11, 25885, Note_off_c, 9, 42, 0
11, 25920, Note_on_c, 9, 35, 100
11, 25920, Note_on_c, 9, 42, 90
11, 25945, Note_off_c, 9, 35, 0
11, 25945, Note_off_c, 9, 42, 0
11, 25980, Note_on_c, 9, 42, 70
11, 26005, Note_off_c, 9, 42, 0
11, 26040, Note_on_c, 9, 37, 100
11, 26040, Note_on_c, 9, 42, 80
11, 26065, Note_off_c, 9, 37, 0
11, 26065, Note_off_c, 9, 42, 0
11, 26100, Note_on_c, 9, 35, 80
11, 26100, Note_on_c, 9, 42, 70
11, 26125, Note_off_c, 9, 35, 0
11, 26125, Note_off_c, 9, 42, 0
11, 26160, Note_on_c, 9, 35, 100
11, 26160, Note_on_c, 9, 42, 90
11, 26185, Note_off_c, 9, 35, 0
11, 26185, Note_off_c, 9, 42, 0
11, 26220, Note_on_c, 9, 42, 70
11, 26245, Note_off_c, 9, 42, 0
11, 26280, Note_on_c, 9, 37, 100
11, 26280, Note_on_c, 9, 42, 80
11, 26305, Note_off_c, 9, 37, 0
11, 26305, Note_off_c, 9, 42, 0
11, 26340, Note_on_c, 9, 35, 80
11, 26340, Note_on_c, 9, 42, 70
11, 26365, Note_off_c, 9, 35, 0
11, 26365, Note_off_c, 9, 42, 0
11, 26400, Note_on_c, 9, 35, 100
11, 26400, Note_on_c, 9, 42, 90
11, 26425, Note_off_c, 9, 35, 0
11, 26425, Note_off_c, 9, 42, 0
11, 26460, Note_on_c, 9, 42, 70
11, 26485, Note_off_c, 9, 42, 0
11, 26520, Note_on_c, 9, 37, 100
11, 26520, Note_on_c, 9, 42, 80
11, 26545, Note_off_c, 9, 37, 0
11, 26545, Note_off_c, 9, 42, 0
11, 26580, Note_on_c, 9, 35, 80
11, 26580, Note_on_c, 9, 42, 70
11, 26605, Note_off_c, 9, 35, 0
11, 26605, Note_off_c, 9, 42, 0
11, 26640, Note_on_c, 9, 35, 100
11, 26640, Note_on_c, 9, 42, 90
11, 26665, Note_off_c, 9, 35, 0
11, 26665, Note_off_c, 9, 42, 0
11, 26700, Note_on_c, 9, 42, 70
11, 26725, Note_off_c, 9, 42, 0
11, 26760, Note_on_c, 9, 37, 100
11, 26760, Note_on_c, 9, 42, 80
11, 26785, Note_off_c, 9, 37, 0
11, 26785, Note_off_c, 9, 42, 0
11, 26820, Note_on_c, 9, 35, 80
11, 26820, Note_on_c, 9, 42, 70
11, 26845, Note_off_c, 9, 35, 0
11, 26845, Note_off_c, 9, 42, 0
11, 26880, Note_on_c, 9, 35, 100
11, 26880, Note_on_c, 9, 42, 90
11, 26905, Note_off_c, 9, 35, 0
11, 26905, Note_off_c, 9, 42, 0
11, 26940, Note_on_c, 9, 42, 70
11, 26965, Note_off_c, 9, 42, 0
11, 27000, Note_on_c, 9, 37, 100
11, 27000, Note_on_c, 9, 42, 80
11, 27025, Note_off_c, 9, 37, 0
11, 27025, Note_off_c, 9, 42, 0
11, 27060, Note_on_c, 9, 35, 80
11, 27060, Note_on_c, 9, 42, 70
11, 27085, Note_off_c, 9, 35, 0
11, 27085, Note_off_c, 9, 42, 0
11, 27120, Note_on_c, 9, 35, 100
11, 27120, Note_on_c, 9, 42, 90
11, 27145, Note_off_c, 9, 35, 0
11, 27145, Note_off_c, 9, 42, 0
11, 27180, Note_on_c, 9, 35, 80
11, 27180, Note_on_c, 9, 42, 70
11, 27205, Note_off_c, 9, 35, 0
11, 27205, Note_off_c, 9, 42, 0
11, 27240, Note_on_c, 9, 37, 100
11, 27240, Note_on_c, 9, 42, 80
11, 27265, Note_off_c, 9, 37, 0
11, 27265, Note_off_c, 9, 42, 0
11, 27300, Note_on_c, 9, 35, 80
11, 27300, Note_on_c, 9, 42, 70
11, 27325, Note_off_c, 9, 35, 0
11, 27325, Note_off_c, 9, 42, 0
11, 27330, Note_on_c, 9, 42, 60
11, 27355, Note_off_c, 9, 42, 0
11, 27360, Note_on_c, 9, 35, 100
11, 27360, Note_on_c, 9, 42, 90
11, 27385, Note_off_c, 9, 35, 0
11, 27385, Note_off_c, 9, 42, 0
11, 27420, Note_on_c, 9, 42, 70
11, 27445, Note_off_c, 9, 42, 0
11, 27480, Note_on_c, 9, 37, 100
11, 27480, Note_on_c, 9, 42, 80
11, 27505, Note_off_c, 9, 37, 0
11, 27505, Note_off_c, 9, 42, 0
11, 27540, Note_on_c, 9, 35, 80
11, 27540, Note_on_c, 9, 42, 70
11, 27565, Note_off_c, 9, 35, 0
11, 27565, Note_off_c, 9, 42, 0
11, 27600, Note_on_c, 9, 35, 100
11, 27600, Note_on_c, 9, 42, 90
11, 27625, Note_off_c, 9, 35, 0
11, 27625, Note_off_c, 9, 42, 0
11, 27660, Note_on_c, 9, 42, 70
11, 27685, Note_off_c, 9, 42, 0
11, 27720, Note_on_c, 9, 37, 100
11, 27720, Note_on_c, 9, 42, 80
11, 27745, Note_off_c, 9, 37, 0
11, 27745, Note_off_c, 9, 42, 0
11, 27780, Note_on_c, 9, 35, 80
11, 27780, Note_on_c, 9, 42, 70
11, 27805, Note_off_c, 9, 35, 0
11, 27805, Note_off_c, 9, 42, 0
11, 27840, Note_on_c, 9, 35, 100
11, 27840, Note_on_c, 9, 42, 90
11, 27865, Note_off_c, 9, 35, 0
11, 27865, Note_off_c, 9, 42, 0
11, 27900, Note_on_c, 9, 42, 70
11, 27925, Note_off_c, 9, 42, 0
11, 27960, Note_on_c, 9, 37, 100
11, 27960, Note_on_c, 9, 42, 80
11, 27985, Note_off_c, 9, 37, 0
11, 27985, Note_off_c, 9, 42, 0
11, 28020, Note_on_c, 9, 35, 80
11, 28020, Note_on_c, 9, 42, 70
11, 28045, Note_off_c, 9, 35, 0
11, 28045, Note_off_c, 9, 42, 0
11, 28080, Note_on_c, 9, 35, 100
11, 28080, Note_on_c, 9, 42, 90
11, 28105, Note_off_c, 9, 35, 0
11, 28105, Note_off_c, 9, 42, 0
11, 28140, Note_on_c, 9, 35, 80
11, 28140, Note_on_c, 9, 42, 70
11, 28165, Note_off_c, 9, 35, 0
11, 28165, Note_off_c, 9, 42, 0
11, 28200, Note_on_c, 9, 37, 100
11, 28200, Note_on_c, 9, 42, 80
11, 28225, Note_off_c, 9, 37, 0
11, 28225, Note_off_c, 9, 42, 0
11, 28260, Note_on_c, 9, 35, 80
11, 28260, Note_on_c, 9, 42, 70
11, 28285, Note_off_c, 9, 35, 0
11, 28285, Note_off_c, 9, 42, 0
11, 28290, Note_on_c, 9, 42, 60
11, 28315, Note_off_c, 9, 42, 0
11, 28320, Note_on_c, 9, 35, 100
11, 28320, Note_on_c, 9, 42, 90
11, 28345, Note_off_c, 9, 35, 0
11, 28345, Note_off_c, 9, 42, 0
11, 28380, Note_on_c, 9, 42, 70
11, 28405, Note_off_c, 9, 42, 0
11, 28440, Note_on_c, 9, 37, 100
11, 28440, Note_on_c, 9, 42, 80
11, 28465, Note_off_c, 9, 37, 0
11, 28465, Note_off_c, 9, 42, 0
11, 28500, Note_on_c, 9, 35, 80
11, 28500, Note_on_c, 9, 42, 70
11, 28525, Note_off_c, 9, 35, 0
11, 28525, Note_off_c, 9, 42, 0
11, 28560, Note_on_c, 9, 35, 100
11, 28560, Note_on_c, 9, 42, 90
11, 28585, Note_off_c, 9, 35, 0
11, 28585, Note_off_c, 9, 42, 0
11, 28620, Note_on_c, 9, 42, 70
11, 28645, Note_off_c, 9, 42, 0
11, 28680, Note_on_c, 9, 37, 100
11, 28680, Note_on_c, 9, 42, 80
11, 28705, Note_off_c, 9, 37, 0
11, 28705, Note_off_c, 9, 42, 0
11, 28740, Note_on_c, 9, 35, 80
11, 28740, Note_on_c, 9, 42, 70
11, 28765, Note_off_c, 9, 35, 0
11, 28765, Note_off_c, 9, 42, 0
11, 28800, Note_on_c, 9, 35, 100
11, 28800, Note_on_c, 9, 42, 90
11, 28825, Note_off_c, 9, 35, 0
11, 28825, Note_off_c, 9, 42, 0
11, 28860, Note_on_c, 9, 42, 70
11, 28885, Note_off_c, 9, 42, 0
11, 28920, Note_on_c, 9, 37, 100
11, 28920, Note_on_c, 9, 42, 80
11, 28945, Note_off_c, 9, 37, 0
11, 28945, Note_off_c, 9, 42, 0
11, 28980, Note_on_c, 9, 35, 80
11, 28980, Note_on_c, 9, 42, 70
11, 29005, Note_off_c, 9, 35, 0
11, 29005, Note_off_c, 9, 42, 0
11, 29040, Note_on_c, 9, 35, 100
11, 29040, Note_on_c, 9, 42, 90
11, 29065, Note_off_c, 9, 35, 0
11, 29065, Note_off_c, 9, 42, 0
11, 29100, Note_on_c, 9, 42, 70
11, 29125, Note_off_c, 9, 42, 0
11, 29160, Note_on_c, 9, 37, 100
11, 29160, Note_on_c, 9, 42, 80
11, 29185, Note_off_c, 9, 37, 0
11, 29185, Note_off_c, 9, 42, 0
11, 29220, Note_on_c, 9, 35, 80
11, 29220, Note_on_c, 9, 42, 70
11, 29245, Note_off_c, 9, 35, 0
11, 29245, Note_off_c, 9, 42, 0
11, 29280, Note_on_c, 9, 35, 100
11, 29280, Note_on_c, 9, 42, 90
11, 29305, Note_off_c, 9, 35, 0
11, 29305, Note_off_c, 9, 42, 0
11, 29340, Note_on_c, 9, 42, 70
11, 29365, Note_off_c, 9, 42, 0
11, 29400, Note_on_c, 9, 37, 100
11, 29400, Note_on_c, 9, 42, 80
11, 29425, Note_off_c, 9, 37, 0
11, 29425, Note_off_c, 9, 42, 0
11, 29460, Note_on_c, 9, 35, 80
11, 29460, Note_on_c, 9, 42, 70
11, 29485, Note_off_c, 9, 35, 0
11, 29485, Note_off_c, 9, 42, 0
11, 29520, Note_on_c, 9, 35, 100
11, 29520, Note_on_c, 9, 42, 90
11, 29545, Note_off_c, 9, 35, 0
11, 29545, Note_off_c, 9, 42, 0
11, 29580, Note_on_c, 9, 42, 70
11, 29605, Note_off_c, 9, 42, 0
11, 29640, Note_on_c, 9, 37, 100
11, 29640, Note_on_c, 9, 42, 80
11, 29665, Note_off_c, 9, 37, 0
11, 29665, Note_off_c, 9, 42, 0
11, 29700, Note_on_c, 9, 35, 80
11, 29700, Note_on_c, 9, 42, 70
11, 29725, Note_off_c, 9, 35, 0
11, 29725, Note_off_c, 9, 42, 0
11, 29760, Note_on_c, 9, 35, 100
11, 29760, Note_on_c, 9, 42, 90
11, 29785, Note_off_c, 9, 35, 0
11, 29785, Note_off_c, 9, 42, 0
11, 29820, Note_on_c, 9, 42, 70
11, 29845, Note_off_c, 9, 42, 0
11, 29880, Note_on_c, 9, 37, 100
11, 29880, Note_on_c, 9, 42, 80
11, 29905, Note_off_c, 9, 37, 0
11, 29905, Note_off_c, 9, 42, 0
11, 29940, Note_on_c, 9, 35, 80
11, 29940, Note_on_c, 9, 42, 70
11, 29965, Note_off_c, 9, 35, 0
11, 29965, Note_off_c, 9, 42, 0
11, 30000, Note_on_c, 9, 35, 100
11, 30000, Note_on_c, 9, 42, 90
11, 30025, Note_off_c, 9, 35, 0
11, 30025, Note_off_c, 9, 42, 0
11, 30060, Note_on_c, 9, 42, 70
11, 30085, Note_off_c, 9, 42, 0
11, 30120, Note_on_c, 9, 37, 100
11, 30120, Note_on_c, 9, 42, 80
11, 30145, Note_off_c, 9, 37, 0
11, 30145, Note_off_c, 9, 42, 0
11, 30180, Note_on_c, 9, 35, 80
11, 30180, Note_on_c, 9, 42, 70
11, 30205, Note_off_c, 9, 35, 0
11, 30205, Note_off_c, 9, 42, 0
11, 30240, Note_on_c, 9, 35, 100
11, 30240, Note_on_c, 9, 42, 90
11, 30265, Note_off_c, 9, 35, 0
11, 30265, Note_off_c, 9, 42, 0
11, 30300, Note_on_c, 9, 42, 70
11, 30325, Note_off_c, 9, 42, 0
11, 30360, Note_on_c, 9, 37, 100
11, 30360, Note_on_c, 9, 42, 80
11, 30385, Note_off_c, 9, 37, 0
11, 30385, Note_off_c, 9, 42, 0
11, 30420, Note_on_c, 9, 35, 80
11, 30420, Note_on_c, 9, 42, 70
11, 30445, Note_off_c, 9, 35, 0
11, 30445, Note_off_c, 9, 42, 0
11, 30480, Note_on_c, 9, 35, 100
11, 30480, Note_on_c, 9, 42, 90
11, 30505, Note_off_c, 9, 35, 0
11, 30505, Note_off_c, 9, 42, 0
11, 30540, Note_on_c, 9, 42, 70
11, 30565, Note_off_c, 9, 42, 0
11, 30600, Note_on_c, 9, 37, 100
11, 30600, Note_on_c, 9, 42, 80
11, 30625, Note_off_c, 9, 37, 0
11, 30625, Note_off_c, 9, 42, 0
11, 30660, Note_on_c, 9, 35, 80
11, 30660, Note_on_c, 9, 42, 70
11, 30685, Note_off_c, 9, 35, 0
11, 30685, Note_off_c, 9, 42, 0
11, 30720, Note_on_c, 9, 35, 100
11, 30720, Note_on_c, 9, 42, 90
11, 30745, Note_off_c, 9, 35, 0
11, 30745, Note_off_c, 9, 42, 0
11, 30780, Note_on_c, 9, 42, 70
11, 30805, Note_off_c, 9, 42, 0
11, 30840, Note_on_c, 9, 37, 100
11, 30840, Note_on_c, 9, 42, 80
11, 30865, Note_off_c, 9, 37, 0
11, 30865, Note_off_c, 9, 42, 0
11, 30900, Note_on_c, 9, 35, 80
11, 30900, Note_on_c, 9, 42, 70
11, 30925, Note_off_c, 9, 35, 0
11, 30925, Note_off_c, 9, 42, 0
11, 30960, Note_on_c, 9, 35, 100
11, 30960, Note_on_c, 9, 42, 90
11, 30985, Note_off_c, 9, 35, 0
11, 30985, Note_off_c, 9, 42, 0
11, 31020, Note_on_c, 9, 35, 90
11, 31020, Note_on_c, 9, 42, 70
11, 31045, Note_off_c, 9, 35, 0
11, 31045, Note_off_c, 9, 42, 0
11, 31080, Note_on_c, 9, 38, 95
11, 31080, Note_on_c, 9, 42, 80
11, 31105, Note_off_c, 9, 38, 0
11, 31105, Note_off_c, 9, 42, 0
11, 31140, Note_on_c, 9, 35, 80
11, 31140, Note_on_c, 9, 38, 115
11, 31140, Note_on_c, 9, 46, 90
11, 31165, Note_off_c, 9, 35, 0
11, 31165, Note_off_c, 9, 38, 0
11, 31165, Note_off_c, 9, 46, 0
11, 31200, Note_on_c, 9, 35, 100
11, 31200, Note_on_c, 9, 42, 90
11, 31200, Note_on_c, 9, 49, 90
11, 31225, Note_off_c, 9, 35, 0
11, 31225, Note_off_c, 9, 42, 0
11, 31225, Note_off_c, 9, 49, 0
11, 31260, Note_on_c, 9, 42, 70
11, 31285, Note_off_c, 9, 42, 0
11, 31320, Note_on_c, 9, 37, 100
11, 31320, Note_on_c, 9, 42, 80
11, 31345, Note_off_c, 9, 37, 0
11, 31345, Note_off_c, 9, 42, 0
11, 31380, Note_on_c, 9, 35, 80
11, 31380, Note_on_c, 9, 42, 70
11, 31405, Note_off_c, 9, 35, 0
11, 31405, Note_off_c, 9, 42, 0
11, 31440, Note_on_c, 9, 35, 100
11, 31440, Note_on_c, 9, 42, 90
11, 31465, Note_off_c, 9, 35, 0
11, 31465, Note_off_c, 9, 42, 0
11, 31500, Note_on_c, 9, 42, 70
11, 31525, Note_off_c, 9, 42, 0
11, 31560, Note_on_c, 9, 37, 100
11, 31560, Note_on_c, 9, 42, 80
11, 31585, Note_off_c, 9, 37, 0
11, 31585, Note_off_c, 9, 42, 0
11, 31620, Note_on_c, 9, 35, 80
11, 31620, Note_on_c, 9, 42, 70
11, 31645, Note_off_c, 9, 35, 0
11, 31645, Note_off_c, 9, 42, 0
11, 31680, Note_on_c, 9, 35, 100
11, 31680, Note_on_c, 9, 42, 90
11, 31705, Note_off_c, 9, 35, 0
11, 31705, Note_off_c, 9, 42, 0
11, 31740, Note_on_c, 9, 42, 70
11, 31765, Note_off_c, 9, 42, 0
11, 31800, Note_on_c, 9, 37, 100
11, 31800, Note_on_c, 9, 42, 80
11, 31825, Note_off_c, 9, 37, 0
11, 31825, Note_off_c, 9, 42, 0
11, 31860, Note_on_c, 9, 35, 80
11, 31860, Note_on_c, 9, 42, 70
11, 31885, Note_off_c, 9, 35, 0
11, 31885, Note_off_c, 9, 42, 0
11, 31920, Note_on_c, 9, 35, 100
11, 31920, Note_on_c, 9, 42, 90
11, 31945, Note_off_c, 9, 35, 0
11, 31945, Note_off_c, 9, 42, 0
11, 31980, Note_on_c, 9, 35, 80
11, 31980, Note_on_c, 9, 42, 70
11, 32005, Note_off_c, 9, 35, 0
11, 32005, Note_off_c, 9, 42, 0
11, 32040, Note_on_c, 9, 37, 100
11, 32040, Note_on_c, 9, 42, 80
11, 32065, Note_off_c, 9, 37, 0
11, 32065, Note_off_c, 9, 42, 0
11, 32100, Note_on_c, 9, 35, 80
11, 32100, Note_on_c, 9, 42, 70
11, 32125, Note_off_c, 9, 35, 0
11, 32125, Note_off_c, 9, 42, 0
11, 32130, Note_on_c, 9, 42, 60
11, 32155, Note_off_c, 9, 42, 0
11, 32160, Note_on_c, 9, 35, 100
11, 32160, Note_on_c, 9, 42, 90
11, 32185, Note_off_c, 9, 35, 0
11, 32185, Note_off_c, 9, 42, 0
11, 32220, Note_on_c, 9, 42, 70
11, 32245, Note_off_c, 9, 42, 0
11, 32280, Note_on_c, 9, 37, 100
11, 32280, Note_on_c, 9, 42, 80
11, 32305, Note_off_c, 9, 37, 0
11, 32305, Note_off_c, 9, 42, 0
11, 32340, Note_on_c, 9, 35, 80
11, 32340, Note_on_c, 9, 42, 70
11, 32365, Note_off_c, 9, 35, 0
11, 32365, Note_off_c, 9, 42, 0
11, 32400, Note_on_c, 9, 35, 100
11, 32400, Note_on_c, 9, 42, 90
11, 32425, Note_off_c, 9, 35, 0
11, 32425, Note_off_c, 9, 42, 0
11, 32460, Note_on_c, 9, 42, 70
11, 32485, Note_off_c, 9, 42, 0
11, 32520, Note_on_c, 9, 37, 100
11, 32520, Note_on_c, 9, 42, 80
11, 32545, Note_off_c, 9, 37, 0
11, 32545, Note_off_c, 9, 42, 0
11, 32580, Note_on_c, 9, 35, 80
11, 32580, Note_on_c, 9, 42, 70
11, 32605, Note_off_c, 9, 35, 0
11, 32605, Note_off_c, 9, 42, 0
11, 32640, Note_on_c, 9, 35, 100
11, 32640, Note_on_c, 9, 42, 90
11, 32665, Note_off_c, 9, 35, 0
11, 32665, Note_off_c, 9, 42, 0
11, 32700, Note_on_c, 9, 42, 70
11, 32725, Note_off_c, 9, 42, 0
11, 32760, Note_on_c, 9, 37, 100
11, 32760, Note_on_c, 9, 42, 80
11, 32785, Note_off_c, 9, 37, 0
11, 32785, Note_off_c, 9, 42, 0
11, 32820, Note_on_c, 9, 35, 80
11, 32820, Note_on_c, 9, 42, 70
11, 32845, Note_off_c, 9, 35, 0
11, 32845, Note_off_c, 9, 42, 0
11, 32880, Note_on_c, 9, 35, 100
11, 32880, Note_on_c, 9, 42, 90
11, 32905, Note_off_c, 9, 35, 0
11, 32905, Note_off_c, 9, 42, 0
11, 32940, Note_on_c, 9, 42, 70
11, 32965, Note_off_c, 9, 42, 0
11, 33000, Note_on_c, 9, 37, 100
11, 33000, Note_on_c, 9, 42, 80
11, 33025, Note_off_c, 9, 37, 0
11, 33025, Note_off_c, 9, 42, 0
11, 33060, Note_on_c, 9, 35, 80
11, 33060, Note_on_c, 9, 42, 70
11, 33085, Note_off_c, 9, 35, 0
11, 33085, Note_off_c, 9, 42, 0
11, 33120, Note_on_c, 9, 35, 100
11, 33120, Note_on_c, 9, 42, 90
11, 33145, Note_off_c, 9, 35, 0
11, 33145, Note_off_c, 9, 42, 0
11, 33180, Note_on_c, 9, 42, 70
11, 33205, Note_off_c, 9, 42, 0
11, 33240, Note_on_c, 9, 37, 100
11, 33240, Note_on_c, 9, 42, 80
11, 33265, Note_off_c, 9, 37, 0
11, 33265, Note_off_c, 9, 42, 0
11, 33300, Note_on_c, 9, 35, 80
11, 33300, Note_on_c, 9, 42, 70
11, 33325, Note_off_c, 9, 35, 0
11, 33325, Note_off_c, 9, 42, 0
11, 33360, Note_on_c, 9, 35, 100
11, 33360, Note_on_c, 9, 42, 90
11, 33385, Note_off_c, 9, 35, 0
11, 33385, Note_off_c, 9, 42, 0
11, 33385, End_track
12, 0, Start_track
12, 0, Title_t, "Strings\000"
12, 0, Program_c, 10, 51
12, 0, Control_c, 10, 7, 78
12, 0, Control_c, 10, 10, 79
12, 0, Control_c, 10, 91, 40
12, 0, Control_c, 10, 93, 40
12, 3, Control_c, 10, 121, 0
12, 3, Control_c, 10, 123, 0
12, 2403, Note_on_c, 10, 70, 75
12, 2763, Note_off_c, 10, 70, 0
12, 2763, Note_on_c, 10, 72, 75
12, 2883, Note_off_c, 10, 72, 0
12, 2883, Note_on_c, 10, 69, 75
12, 3003, Note_off_c, 10, 69, 0
12, 3003, Note_on_c, 10, 65, 75
12, 3363, Note_off_c, 10, 65, 0
12, 3423, Note_on_c, 10, 67, 75
12, 3483, Note_off_c, 10, 67, 0
12, 3483, Note_on_c, 10, 67, 75
12, 3543, Note_off_c, 10, 67, 0
12, 3543, Note_on_c, 10, 67, 75
12, 3603, Note_off_c, 10, 67, 0
12, 3603, Note_on_c, 10, 69, 75
12, 3783, Note_off_c, 10, 69, 0
12, 3783, Note_on_c, 10, 67, 75
12, 3838, Note_off_c, 10, 67, 0
12, 3843, Note_on_c, 10, 70, 75
12, 3873, Note_on_c, 10, 67, 75
12, 3878, Note_off_c, 10, 70, 0
12, 3903, Note_on_c, 10, 65, 75
12, 3908, Note_off_c, 10, 67, 0
12, 4203, Note_off_c, 10, 65, 0
12, 4443, Note_on_c, 10, 60, 75
12, 4503, Note_off_c, 10, 60, 0
12, 4503, Note_on_c, 10, 62, 75
12, 4563, Note_off_c, 10, 62, 0
12, 4563, Note_on_c, 10, 63, 75
12, 4643, Note_off_c, 10, 63, 0
12, 4643, Note_on_c, 10, 62, 75
12, 4723, Note_off_c, 10, 62, 0
12, 4723, Note_on_c, 10, 60, 75
12, 4803, Note_off_c, 10, 60, 0
12, 4803, Note_on_c, 10, 62, 75
12, 4973, Note_off_c, 10, 62, 0
12, 4983, Note_on_c, 10, 65, 75
12, 5043, Note_off_c, 10, 65, 0
12, 5043, Note_on_c, 10, 70, 75
12, 5283, Note_off_c, 10, 70, 0
12, 5403, Note_on_c, 10, 70, 75
12, 5523, Note_off_c, 10, 70, 0
12, 5523, Note_on_c, 10, 70, 75
12, 5603, Note_off_c, 10, 70, 0
12, 5603, Note_on_c, 10, 67, 75
12, 5683, Note_off_c, 10, 67, 0
12, 5683, Note_on_c, 10, 74, 75
12, 5763, Note_off_c, 10, 74, 0
12, 5763, Note_on_c, 10, 72, 75
12, 6003, Note_off_c, 10, 72, 0
12, 6003, Note_on_c, 10, 74, 75
12, 6083, Note_off_c, 10, 74, 0
12, 6083, Note_on_c, 10, 74, 75
12, 6163, Note_off_c, 10, 74, 0
12, 6163, Note_on_c, 10, 72, 75
12, 6243, Note_off_c, 10, 72, 0
12, 6243, Note_on_c, 10, 70, 75
12, 6603, Note_off_c, 10, 70, 0
12, 6603, Note_on_c, 10, 72, 75
12, 6723, Note_off_c, 10, 72, 0
12, 6723, Note_on_c, 10, 69, 75
12, 6843, Note_off_c, 10, 69, 0
12, 6843, Note_on_c, 10, 65, 75
12, 7203, Note_off_c, 10, 65, 0
12, 7263, Note_on_c, 10, 67, 75
12, 7323, Note_off_c, 10, 67, 0
12, 7323, Note_on_c, 10, 67, 75
12, 7383, Note_off_c, 10, 67, 0
12, 7383, Note_on_c, 10, 67, 75
12, 7443, Note_off_c, 10, 67, 0
12, 7443, Note_on_c, 10, 69, 75
12, 7623, Note_off_c, 10, 69, 0
12, 7623, Note_on_c, 10, 67, 75
12, 7683, Note_off_c, 10, 67, 0
12, 7683, Note_on_c, 10, 70, 75
12, 7713, Note_off_c, 10, 70, 0
12, 7713, Note_on_c, 10, 67, 75
12, 7743, Note_off_c, 10, 67, 0
12, 7743, Note_on_c, 10, 65, 75
12, 8163, Note_off_c, 10, 65, 0
12, 8283, Note_on_c, 10, 60, 75
12, 8343, Note_off_c, 10, 60, 0
12, 8343, Note_on_c, 10, 62, 75
12, 8403, Note_off_c, 10, 62, 0
12, 8403, Note_on_c, 10, 63, 75
12, 8483, Note_off_c, 10, 63, 0
12, 8483, Note_on_c, 10, 62, 75
12, 8563, Note_off_c, 10, 62, 0
12, 8563, Note_on_c, 10, 60, 75
12, 8643, Note_off_c, 10, 60, 0
12, 8643, Note_on_c, 10, 62, 75
12, 8823, Note_off_c, 10, 62, 0
12, 8823, Note_on_c, 10, 65, 75
12, 8883, Note_off_c, 10, 65, 0
12, 8883, Note_on_c, 10, 70, 75
12, 9123, Note_off_c, 10, 70, 0
12, 9243, Note_on_c, 10, 70, 75
12, 9303, Note_off_c, 10, 70, 0
12, 9303, Note_on_c, 10, 67, 75
12, 9363, Note_off_c, 10, 67, 0
12, 9363, Note_on_c, 10, 69, 75
12, 9443, Note_off_c, 10, 69, 0
12, 9443, Note_on_c, 10, 70, 75
12, 9523, Note_off_c, 10, 70, 0
12, 9523, Note_on_c, 10, 72, 75
12, 9603, Note_off_c, 10, 72, 0
12, 9603, Note_on_c, 10, 70, 75
12, 9843, Note_off_c, 10, 70, 0
12, 9843, Note_on_c, 10, 58, 75
12, 9923, Note_off_c, 10, 58, 0
12, 9923, Note_on_c, 10, 63, 75
12, 10003, Note_off_c, 10, 63, 0
12, 10003, Note_on_c, 10, 67, 75
12, 10083, Note_off_c, 10, 67, 0
12, 10083, Note_on_c, 10, 70, 75
12, 10143, Note_off_c, 10, 70, 0
12, 10143, Note_on_c, 10, 67, 75
12, 10683, Note_off_c, 10, 67, 0
12, 10683, Note_on_c, 10, 67, 75
12, 10743, Note_off_c, 10, 67, 0
12, 10743, Note_on_c, 10, 69, 75
12, 10803, Note_off_c, 10, 69, 0
12, 10803, Note_on_c, 10, 70, 75
12, 10883, Note_off_c, 10, 70, 0
12, 10883, Note_on_c, 10, 69, 75
12, 10963, Note_off_c, 10, 69, 0
12, 10963, Note_on_c, 10, 67, 75
12, 11043, Note_off_c, 10, 67, 0
12, 11043, Note_on_c, 10, 67, 75
12, 11103, Note_off_c, 10, 67, 0
12, 11103, Note_on_c, 10, 65, 75
12, 11643, Note_off_c, 10, 65, 0
12, 11643, Note_on_c, 10, 58, 75
12, 11763, Note_off_c, 10, 58, 0
12, 11763, Note_on_c, 10, 62, 75
12, 11883, Note_off_c, 10, 62, 0
12, 11883, Note_on_c, 10, 65, 75
12, 12003, Note_off_c, 10, 65, 0
12, 12003, Note_on_c, 10, 70, 75
12, 12123, Note_off_c, 10, 70, 0
12, 12123, Note_on_c, 10, 70, 75
12, 12603, Note_off_c, 10, 70, 0
12, 12603, Note_on_c, 10, 70, 75
12, 12723, Note_off_c, 10, 70, 0
12, 12723, Note_on_c, 10, 70, 75
12, 12783, Note_off_c, 10, 70, 0
12, 12783, Note_on_c, 10, 67, 75
12, 12903, Note_off_c, 10, 67, 0
12, 12903, Note_on_c, 10, 74, 75
12, 12963, Note_off_c, 10, 74, 0
12, 12963, Note_on_c, 10, 72, 75
12, 13563, Note_off_c, 10, 72, 0
12, 13563, Note_on_c, 10, 74, 75
12, 13683, Note_off_c, 10, 74, 0
12, 13683, Note_on_c, 10, 74, 75
12, 13803, Note_off_c, 10, 74, 0
12, 13803, Note_on_c, 10, 72, 75
12, 13923, Note_off_c, 10, 72, 0
12, 13923, Note_on_c, 10, 70, 75
12, 14283, Note_off_c, 10, 70, 0
12, 14283, Note_on_c, 10, 72, 75
12, 14403, Note_off_c, 10, 72, 0
12, 14403, Note_on_c, 10, 69, 75
12, 14523, Note_off_c, 10, 69, 0
12, 14523, Note_on_c, 10, 65, 75
12, 14883, Note_off_c, 10, 65, 0
12, 14943, Note_on_c, 10, 67, 75
12, 15003, Note_off_c, 10, 67, 0
12, 15003, Note_on_c, 10, 67, 75
12, 15063, Note_off_c, 10, 67, 0
12, 15063, Note_on_c, 10, 67, 75
12, 15123, Note_off_c, 10, 67, 0
12, 15123, Note_on_c, 10, 69, 75
12, 15303, Note_off_c, 10, 69, 0
12, 15303, Note_on_c, 10, 67, 75
12, 15363, Note_off_c, 10, 67, 0
12, 15363, Note_on_c, 10, 70, 75
12, 15393, Note_off_c, 10, 70, 0
12, 15393, Note_on_c, 10, 67, 75
12, 15423, Note_off_c, 10, 67, 0
12, 15423, Note_on_c, 10, 65, 75
12, 15823, Note_off_c, 10, 65, 0
12, 15963, Note_on_c, 10, 60, 75
12, 16023, Note_off_c, 10, 60, 0
12, 16023, Note_on_c, 10, 62, 75
12, 16083, Note_off_c, 10, 62, 0
12, 16083, Note_on_c, 10, 63, 75
12, 16163, Note_off_c, 10, 63, 0
12, 16163, Note_on_c, 10, 62, 75
12, 16243, Note_off_c, 10, 62, 0
12, 16243, Note_on_c, 10, 60, 75
12, 16323, Note_off_c, 10, 60, 0
12, 16323, Note_on_c, 10, 62, 75
12, 16503, Note_off_c, 10, 62, 0
12, 16503, Note_on_c, 10, 65, 75
12, 16563, Note_off_c, 10, 65, 0
12, 16563, Note_on_c, 10, 70, 75
12, 16923, Note_off_c, 10, 70, 0
12, 16923, Note_on_c, 10, 70, 75
12, 16983, Note_off_c, 10, 70, 0
12, 16983, Note_on_c, 10, 67, 75
12, 17043, Note_off_c, 10, 67, 0
12, 17043, Note_on_c, 10, 69, 75
12, 17103, Note_off_c, 10, 69, 0
12, 17103, Note_on_c, 10, 70, 75
12, 17163, Note_off_c, 10, 70, 0
12, 17163, Note_on_c, 10, 72, 75
12, 17283, Note_off_c, 10, 72, 0
12, 17283, Note_on_c, 10, 70, 75
12, 17523, Note_off_c, 10, 70, 0
12, 17763, Note_on_c, 10, 70, 75
12, 18123, Note_off_c, 10, 70, 0
12, 18123, Note_on_c, 10, 72, 75
12, 18243, Note_off_c, 10, 72, 0
12, 18243, Note_on_c, 10, 69, 75
12, 18363, Note_off_c, 10, 69, 0
12, 18363, Note_on_c, 10, 65, 75
12, 18723, Note_off_c, 10, 65, 0
12, 18783, Note_on_c, 10, 67, 75
12, 18843, Note_off_c, 10, 67, 0
12, 18843, Note_on_c, 10, 67, 75
12, 18903, Note_off_c, 10, 67, 0
12, 18903, Note_on_c, 10, 67, 75
12, 18963, Note_off_c, 10, 67, 0
12, 18963, Note_on_c, 10, 69, 75
12, 19143, Note_off_c, 10, 69, 0
12, 19143, Note_on_c, 10, 67, 75
12, 19203, Note_off_c, 10, 67, 0
12, 19203, Note_on_c, 10, 70, 75
12, 19233, Note_off_c, 10, 70, 0
12, 19233, Note_on_c, 10, 67, 75
12, 19263, Note_off_c, 10, 67, 0
12, 19263, Note_on_c, 10, 65, 75
12, 19663, Note_off_c, 10, 65, 0
12, 19803, Note_on_c, 10, 60, 75
12, 19863, Note_off_c, 10, 60, 0
12, 19863, Note_on_c, 10, 62, 75
12, 19923, Note_off_c, 10, 62, 0
12, 19923, Note_on_c, 10, 63, 75
12, 20003, Note_off_c, 10, 63, 0
12, 20003, Note_on_c, 10, 62, 75
12, 20083, Note_off_c, 10, 62, 0
12, 20083, Note_on_c, 10, 60, 75
12, 20163, Note_off_c, 10, 60, 0
12, 20163, Note_on_c, 10, 62, 75
12, 20343, Note_off_c, 10, 62, 0
12, 20343, Note_on_c, 10, 65, 75
12, 20403, Note_off_c, 10, 65, 0
12, 20403, Note_on_c, 10, 70, 75
12, 20643, Note_off_c, 10, 70, 0
12, 20763, Note_on_c, 10, 70, 75
12, 20883, Note_off_c, 10, 70, 0
12, 20883, Note_on_c, 10, 70, 75
12, 20963, Note_off_c, 10, 70, 0
12, 20963, Note_on_c, 10, 67, 75
12, 21043, Note_off_c, 10, 67, 0
12, 21043, Note_on_c, 10, 74, 75
12, 21123, Note_off_c, 10, 74, 0
12, 21123, Note_on_c, 10, 72, 75
12, 21363, Note_off_c, 10, 72, 0
12, 21363, Note_on_c, 10, 74, 75
12, 21443, Note_off_c, 10, 74, 0
12, 21443, Note_on_c, 10, 74, 75
12, 21523, Note_off_c, 10, 74, 0
12, 21523, Note_on_c, 10, 72, 75
12, 21603, Note_off_c, 10, 72, 0
12, 21603, Note_on_c, 10, 70, 75
12, 21963, Note_off_c, 10, 70, 0
12, 21963, Note_on_c, 10, 72, 75
12, 22083, Note_off_c, 10, 72, 0
12, 22083, Note_on_c, 10, 69, 75
12, 22203, Note_off_c, 10, 69, 0
12, 22203, Note_on_c, 10, 65, 75
12, 22563, Note_off_c, 10, 65, 0
12, 22623, Note_on_c, 10, 67, 75
12, 22683, Note_off_c, 10, 67, 0
12, 22683, Note_on_c, 10, 67, 75
12, 22743, Note_off_c, 10, 67, 0
12, 22743, Note_on_c, 10, 67, 75
12, 22803, Note_off_c, 10, 67, 0
12, 22803, Note_on_c, 10, 69, 75
12, 22983, Note_off_c, 10, 69, 0
12, 22983, Note_on_c, 10, 67, 75
12, 23043, Note_off_c, 10, 67, 0
12, 23043, Note_on_c, 10, 70, 75
12, 23073, Note_off_c, 10, 70, 0
12, 23073, Note_on_c, 10, 67, 75
12, 23103, Note_off_c, 10, 67, 0
12, 23103, Note_on_c, 10, 65, 75
12, 23503, Note_off_c, 10, 65, 0
12, 23643, Note_on_c, 10, 60, 75
12, 23703, Note_off_c, 10, 60, 0
12, 23703, Note_on_c, 10, 62, 75
12, 23763, Note_off_c, 10, 62, 0
12, 23763, Note_on_c, 10, 63, 75
12, 23843, Note_off_c, 10, 63, 0
12, 23843, Note_on_c, 10, 62, 75
12, 23923, Note_off_c, 10, 62, 0
12, 23923, Note_on_c, 10, 60, 75
12, 24003, Note_off_c, 10, 60, 0
12, 24003, Note_on_c, 10, 62, 75
12, 24183, Note_off_c, 10, 62, 0
12, 24183, Note_on_c, 10, 65, 75
12, 24243, Note_off_c, 10, 65, 0
12, 24243, Note_on_c, 10, 70, 75
12, 24483, Note_off_c, 10, 70, 0
12, 24603, Note_on_c, 10, 70, 75
12, 24663, Note_off_c, 10, 70, 0
12, 24663, Note_on_c, 10, 67, 75
12, 24723, Note_off_c, 10, 67, 0
12, 24723, Note_on_c, 10, 69, 75
12, 24803, Note_off_c, 10, 69, 0
12, 24803, Note_on_c, 10, 70, 75
12, 24883, Note_off_c, 10, 70, 0
12, 24883, Note_on_c, 10, 72, 75
12, 24963, Note_off_c, 10, 72, 0
12, 24963, Note_on_c, 10, 70, 75
12, 25203, Note_off_c, 10, 70, 0
12, 25203, Note_on_c, 10, 58, 75
12, 25283, Note_off_c, 10, 58, 0
12, 25283, Note_on_c, 10, 63, 75
12, 25363, Note_off_c, 10, 63, 0
12, 25363, Note_on_c, 10, 67, 75
12, 25443, Note_off_c, 10, 67, 0
12, 25443, Note_on_c, 10, 70, 75
12, 25503, Note_off_c, 10, 70, 0
12, 25503, Note_on_c, 10, 67, 75
12, 26043, Note_off_c, 10, 67, 0
12, 26043, Note_on_c, 10, 67, 75
12, 26103, Note_off_c, 10, 67, 0
12, 26103, Note_on_c, 10, 69, 75
12, 26163, Note_off_c, 10, 69, 0
12, 26163, Note_on_c, 10, 70, 75
12, 26243, Note_off_c, 10, 70, 0
12, 26243, Note_on_c, 10, 69, 75
12, 26323, Note_off_c, 10, 69, 0
12, 26323, Note_on_c, 10, 67, 75
12, 26403, Note_off_c, 10, 67, 0
12, 26403, Note_on_c, 10, 67, 75
12, 26463, Note_off_c, 10, 67, 0
12, 26463, Note_on_c, 10, 65, 75
12, 27003, Note_off_c, 10, 65, 0
12, 27003, Note_on_c, 10, 58, 75
12, 27123, Note_off_c, 10, 58, 0
12, 27123, Note_on_c, 10, 62, 75
12, 27243, Note_off_c, 10, 62, 0
12, 27243, Note_on_c, 10, 65, 75
12, 27363, Note_off_c, 10, 65, 0
12, 27363, Note_on_c, 10, 70, 75
12, 27483, Note_off_c, 10, 70, 0
12, 27483, Note_on_c, 10, 70, 75
12, 27963, Note_off_c, 10, 70, 0
12, 27963, Note_on_c, 10, 70, 75
12, 28083, Note_off_c, 10, 70, 0
12, 28083, Note_on_c, 10, 70, 75
12, 28143, Note_off_c, 10, 70, 0
12, 28143, Note_on_c, 10, 67, 75
12, 28263, Note_off_c, 10, 67, 0
12, 28263, Note_on_c, 10, 74, 75
12, 28323, Note_off_c, 10, 74, 0
12, 28323, Note_on_c, 10, 72, 75
12, 28923, Note_off_c, 10, 72, 0
12, 28923, Note_on_c, 10, 74, 75
12, 29043, Note_off_c, 10, 74, 0
12, 29043, Note_on_c, 10, 74, 75
12, 29163, Note_off_c, 10, 74, 0
12, 29163, Note_on_c, 10, 72, 75
12, 29283, Note_off_c, 10, 72, 0
12, 29283, Note_on_c, 10, 70, 75
12, 29643, Note_off_c, 10, 70, 0
12, 29643, Note_on_c, 10, 72, 75
12, 29763, Note_off_c, 10, 72, 0
12, 29763, Note_on_c, 10, 69, 75
12, 29883, Note_off_c, 10, 69, 0
12, 29883, Note_on_c, 10, 65, 75
12, 30243, Note_off_c, 10, 65, 0
12, 30303, Note_on_c, 10, 67, 75
12, 30363, Note_off_c, 10, 67, 0
12, 30363, Note_on_c, 10, 67, 75
12, 30423, Note_off_c, 10, 67, 0
12, 30423, Note_on_c, 10, 67, 75
12, 30483, Note_off_c, 10, 67, 0
12, 30483, Note_on_c, 10, 69, 75
12, 30663, Note_off_c, 10, 69, 0
12, 30663, Note_on_c, 10, 67, 75
12, 30723, Note_off_c, 10, 67, 0
12, 30723, Note_on_c, 10, 70, 75
12, 30753, Note_off_c, 10, 70, 0
12, 30753, Note_on_c, 10, 67, 75
12, 30783, Note_off_c, 10, 67, 0
12, 30783, Note_on_c, 10, 65, 75
12, 31183, Note_off_c, 10, 65, 0
12, 31323, Note_on_c, 10, 60, 75
12, 31383, Note_off_c, 10, 60, 0
12, 31383, Note_on_c, 10, 62, 75
12, 31443, Note_off_c, 10, 62, 0
12, 31443, Note_on_c, 10, 63, 75
12, 31523, Note_off_c, 10, 63, 0
12, 31523, Note_on_c, 10, 62, 75
12, 31603, Note_off_c, 10, 62, 0
12, 31603, Note_on_c, 10, 60, 75
12, 31683, Note_off_c, 10, 60, 0
12, 31683, Note_on_c, 10, 62, 75
12, 31863, Note_off_c, 10, 62, 0
12, 31863, Note_on_c, 10, 65, 75
12, 31923, Note_off_c, 10, 65, 0
12, 31923, Note_on_c, 10, 70, 75
12, 32283, Note_off_c, 10, 70, 0
12, 32283, Note_on_c, 10, 70, 75
12, 32343, Note_off_c, 10, 70, 0
12, 32343, Note_on_c, 10, 67, 75
12, 32403, Note_off_c, 10, 67, 0
12, 32403, Note_on_c, 10, 69, 75
12, 32463, Note_off_c, 10, 69, 0
12, 32463, Note_on_c, 10, 70, 75
12, 32523, Note_off_c, 10, 70, 0
12, 32523, Note_on_c, 10, 72, 75
12, 32643, Note_off_c, 10, 72, 0
12, 32643, Note_on_c, 10, 70, 75
12, 33423, Note_off_c, 10, 70, 0
12, 33423, End_track
0, 0, End_of_file
