0, 0, Header, 1, 8, 960
1, 0, Start_track
1, 0, Control_c, 0, 101, 0
1, 0, Control_c, 0, 100, 0
1, 0, Control_c, 0, 6, 12
1, 0, Control_c, 0, 38, 0
1, 0, Control_c, 1, 101, 0
1, 0, Control_c, 1, 100, 0
1, 0, Control_c, 1, 6, 12
1, 0, Control_c, 1, 38, 0
1, 0, Control_c, 2, 101, 0
1, 0, Control_c, 2, 100, 0
1, 0, Control_c, 2, 6, 12
1, 0, Control_c, 2, 38, 0
1, 0, Control_c, 3, 101, 0
1, 0, Control_c, 3, 100, 0
1, 0, Control_c, 3, 6, 12
1, 0, Control_c, 3, 38, 0
1, 0, Control_c, 4, 101, 0
1, 0, Control_c, 4, 100, 0
1, 0, Control_c, 4, 6, 12
1, 0, Control_c, 4, 38, 0
1, 0, Control_c, 5, 101, 0
1, 0, Control_c, 5, 100, 0
1, 0, Control_c, 5, 6, 12
1, 0, Control_c, 5, 38, 0
1, 0, Control_c, 6, 101, 0
1, 0, Control_c, 6, 100, 0
1, 0, Control_c, 6, 6, 12
1, 0, Control_c, 6, 38, 0
1, 0, Control_c, 7, 101, 0
1, 0, Control_c, 7, 100, 0
1, 0, Control_c, 7, 6, 12
1, 0, Control_c, 7, 38, 0
1, 0, Control_c, 8, 101, 0
1, 0, Control_c, 8, 100, 0
1, 0, Control_c, 8, 6, 12
1, 0, Control_c, 8, 38, 0
1, 0, Control_c, 9, 101, 0
1, 0, Control_c, 9, 100, 0
1, 0, Control_c, 9, 6, 12
1, 0, Control_c, 9, 38, 0
1, 0, Control_c, 10, 101, 0
1, 0, Control_c, 10, 100, 0
1, 0, Control_c, 10, 6, 12
1, 0, Control_c, 10, 38, 0
1, 0, Control_c, 11, 101, 0
1, 0, Control_c, 11, 100, 0
1, 0, Control_c, 11, 6, 12
1, 0, Control_c, 11, 38, 0
1, 0, Control_c, 12, 101, 0
1, 0, Control_c, 12, 100, 0
1, 0, Control_c, 12, 6, 12
1, 0, Control_c, 12, 38, 0
1, 0, Control_c, 13, 101, 0
1, 0, Control_c, 13, 100, 0
1, 0, Control_c, 13, 6, 12
1, 0, Control_c, 13, 38, 0
1, 0, Control_c, 14, 101, 0
1, 0, Control_c, 14, 100, 0
1, 0, Control_c, 14, 6, 12
1, 0, Control_c, 14, 38, 0
1, 0, Control_c, 15, 101, 0
1, 0, Control_c, 15, 100, 0
1, 0, Control_c, 15, 6, 12
1, 0, Control_c, 15, 38, 0
1, 0, Time_signature, 4, 2, 24, 8
1, 0, Tempo, 428571
1, 53760, Time_signature, 3, 2, 24, 8
1, 56640, Time_signature, 2, 2, 24, 8
1, 58560, Time_signature, 4, 2, 24, 8
1, 66240, Time_signature, 3, 2, 24, 8
1, 69120, Time_signature, 2, 2, 24, 8
1, 71040, Time_signature, 4, 2, 24, 8
1, 78720, Time_signature, 3, 2, 24, 8
1, 81600, Time_signature, 2, 2, 24, 8
1, 83520, Time_signature, 4, 2, 24, 8
1, 141120, Time_signature, 2, 2, 24, 8
1, 143040, Time_signature, 4, 2, 24, 8
1, 150720, Time_signature, 1, 2, 24, 8
1, 151680, Time_signature, 4, 2, 24, 8
1, 151680, End_track
2, 0, Start_track
2, 0, Pitch_bend_c, 10, 8192
2, 0, Control_c, 10, 7, 103
2, 0, Control_c, 10, 10, 63
2, 0, Control_c, 10, 93, 0
2, 0, Control_c, 10, 91, 0
2, 0, Control_c, 10, 95, 0
2, 0, Control_c, 10, 92, 0
2, 0, Control_c, 10, 11, 127
2, 0, Program_c, 10, 85
2, 0, Control_c, 11, 7, 103
2, 0, Control_c, 11, 10, 63
2, 0, Control_c, 11, 93, 0
2, 0, Control_c, 11, 91, 0
2, 0, Control_c, 11, 95, 0
2, 0, Control_c, 11, 92, 0
2, 0, Control_c, 11, 11, 127
2, 0, Program_c, 11, 85
2, 7920, Note_on_c, 10, 64, 95
2, 7990, Note_off_c, 10, 64, 95
2, 8160, Note_on_c, 10, 59, 95
2, 8230, Note_off_c, 10, 59, 95
2, 8480, Note_on_c, 10, 55, 95
2, 8550, Note_off_c, 10, 55, 95
2, 8880, Note_on_c, 10, 59, 95
2, 8950, Note_off_c, 10, 59, 95
2, 9360, Note_on_c, 10, 55, 95
2, 9430, Note_off_c, 10, 55, 95
2, 9600, Note_on_c, 10, 59, 95
2, 9670, Note_off_c, 10, 59, 95
2, 10080, Note_on_c, 10, 55, 95
2, 10150, Note_off_c, 10, 55, 95
2, 10560, Note_on_c, 10, 64, 95
2, 10630, Note_off_c, 10, 64, 95
2, 10880, Note_on_c, 10, 59, 95
2, 10950, Note_off_c, 10, 59, 95
2, 11200, Note_on_c, 10, 59, 95
2, 11270, Note_off_c, 10, 59, 95
2, 11760, Note_on_c, 10, 55, 95
2, 11830, Note_off_c, 10, 55, 95
2, 12480, Note_on_c, 10, 50, 95
2, 12550, Note_off_c, 10, 50, 95
2, 29760, Note_on_c, 10, 54, 127
2, 30240, Note_off_c, 10, 54, 127
2, 30240, Note_on_c, 10, 52, 127
2, 30720, Note_off_c, 10, 52, 127
2, 30720, Note_on_c, 10, 54, 127
2, 31200, Note_off_c, 10, 54, 127
2, 31200, Note_on_c, 10, 56, 127
2, 31440, Note_off_c, 10, 56, 127
2, 31440, Note_on_c, 10, 52, 127
2, 31920, Note_off_c, 10, 52, 127
2, 31920, Note_on_c, 10, 52, 127
2, 32400, Note_off_c, 10, 52, 127
2, 32400, Note_on_c, 10, 52, 127
2, 32880, Note_off_c, 10, 52, 127
2, 32880, Note_on_c, 10, 52, 127
2, 33120, Note_off_c, 10, 52, 127
2, 33120, Note_on_c, 10, 50, 127
2, 34080, Note_off_c, 10, 50, 127
2, 34080, Note_on_c, 10, 52, 127
2, 34560, Note_off_c, 10, 52, 127
2, 34560, Note_on_c, 10, 52, 127
2, 35040, Note_off_c, 10, 52, 127
2, 35040, Note_on_c, 10, 50, 127
2, 35520, Note_off_c, 10, 50, 127
2, 35520, Note_on_c, 10, 52, 127
2, 35760, Note_off_c, 10, 52, 127
2, 35760, Note_on_c, 10, 50, 127
2, 36240, Note_off_c, 10, 50, 127
2, 36240, Note_on_c, 10, 55, 127
2, 37440, Note_off_c, 10, 55, 127
2, 37920, Note_on_c, 10, 52, 127
2, 38400, Note_off_c, 10, 52, 127
2, 38400, Note_on_c, 10, 52, 127
2, 38640, Note_off_c, 10, 52, 127
2, 38640, Note_on_c, 10, 50, 127
2, 39360, Note_off_c, 10, 50, 127
2, 39360, Note_on_c, 10, 52, 127
2, 39840, Note_off_c, 10, 52, 127
2, 39840, Note_on_c, 10, 50, 127
2, 40080, Note_off_c, 10, 50, 127
2, 40080, Note_on_c, 10, 55, 127
2, 40560, Note_off_c, 10, 55, 127
2, 40560, Note_on_c, 10, 52, 127
2, 41280, Note_off_c, 10, 52, 127
2, 41520, Note_on_c, 10, 52, 127
2, 42000, Note_off_c, 10, 52, 127
2, 42000, Note_on_c, 10, 50, 127
2, 42240, Note_off_c, 10, 50, 127
2, 42240, Note_on_c, 10, 50, 127
2, 42720, Note_off_c, 10, 50, 127
2, 42720, Note_on_c, 10, 52, 127
2, 43200, Note_off_c, 10, 52, 127
2, 43200, Note_on_c, 10, 52, 127
2, 43440, Note_off_c, 10, 52, 127
2, 43440, Note_on_c, 10, 50, 127
2, 43920, Note_off_c, 10, 50, 127
2, 43920, Note_on_c, 10, 55, 127
2, 45120, Note_off_c, 10, 55, 127
2, 45360, Note_on_c, 10, 55, 127
2, 45600, Note_off_c, 10, 55, 127
2, 45600, Note_on_c, 10, 49, 127
2, 46080, Note_off_c, 10, 49, 127
2, 46080, Note_on_c, 10, 52, 127
2, 46320, Note_off_c, 10, 52, 127
2, 46320, Note_on_c, 10, 49, 127
2, 47040, Note_off_c, 10, 49, 127
2, 47040, Note_on_c, 10, 52, 127
2, 47280, Note_off_c, 10, 52, 127
2, 47280, Note_on_c, 10, 50, 127
2, 47760, Note_off_c, 10, 50, 127
2, 47760, Note_on_c, 10, 56, 127
2, 48240, Note_off_c, 10, 56, 127
2, 48240, Note_on_c, 10, 47, 127
2, 48960, Note_off_c, 10, 47, 127
2, 49200, Note_on_c, 10, 52, 127
2, 49680, Note_off_c, 10, 52, 127
2, 49680, Note_on_c, 10, 52, 127
2, 49920, Note_off_c, 10, 52, 127
2, 49920, Note_on_c, 10, 52, 127
2, 50400, Note_off_c, 10, 52, 127
2, 50400, Note_on_c, 10, 50, 127
2, 50640, Note_off_c, 10, 50, 127
2, 50640, Note_on_c, 10, 52, 127
2, 51120, Note_off_c, 10, 52, 127
2, 51120, Note_on_c, 10, 50, 127
2, 51600, Note_off_c, 10, 50, 127
2, 51600, Note_on_c, 10, 55, 127
2, 52800, Note_off_c, 10, 55, 127
2, 53280, Note_on_c, 10, 50, 127
2, 53520, Note_off_c, 10, 50, 127
2, 53520, Note_on_c, 10, 52, 127
2, 53760, Note_off_c, 10, 52, 127
2, 53760, Note_on_c, 10, 55, 127
2, 54240, Note_off_c, 10, 55, 127
2, 54240, Note_on_c, 10, 55, 127
2, 54480, Note_off_c, 10, 55, 127
2, 54480, Note_on_c, 10, 52, 127
2, 54960, Note_off_c, 10, 52, 127
2, 54960, Note_on_c, 10, 50, 127
2, 55200, Note_off_c, 10, 50, 127
2, 55200, Note_on_c, 10, 55, 127
2, 55680, Note_off_c, 10, 55, 127
2, 55680, Note_on_c, 10, 55, 127
2, 55920, Note_off_c, 10, 55, 127
2, 55920, Note_on_c, 10, 50, 127
2, 56400, Note_off_c, 10, 50, 127
2, 56400, Note_on_c, 10, 50, 127
2, 56640, Note_off_c, 10, 50, 127
2, 56640, Note_on_c, 10, 55, 127
2, 57120, Note_off_c, 10, 55, 127
2, 57120, Note_on_c, 10, 55, 127
2, 57360, Note_off_c, 10, 55, 127
2, 57360, Note_on_c, 10, 50, 127
2, 58080, Note_off_c, 10, 50, 127
2, 58080, Note_on_c, 10, 50, 127
2, 58560, Note_off_c, 10, 50, 127
2, 58560, Note_on_c, 10, 50, 127
2, 63360, Note_off_c, 10, 50, 127
2, 63360, Note_on_c, 10, 45, 127
2, 64320, Note_off_c, 10, 45, 127
2, 66000, Note_on_c, 10, 52, 127
2, 66240, Note_off_c, 10, 52, 127
2, 66240, Note_on_c, 10, 55, 127
2, 66720, Note_off_c, 10, 55, 127
2, 66720, Note_on_c, 10, 55, 127
2, 66960, Note_off_c, 10, 55, 127
2, 66960, Note_on_c, 10, 52, 127
2, 67440, Note_off_c, 10, 52, 127
2, 67440, Note_on_c, 10, 52, 127
2, 67680, Note_off_c, 10, 52, 127
2, 67680, Note_on_c, 10, 55, 127
2, 68160, Note_off_c, 10, 55, 127
2, 68160, Note_on_c, 10, 55, 127
2, 68400, Note_off_c, 10, 55, 127
2, 68400, Note_on_c, 10, 50, 127
2, 68880, Note_off_c, 10, 50, 127
2, 68880, Note_on_c, 10, 50, 127
2, 69120, Note_off_c, 10, 50, 127
2, 69120, Note_on_c, 10, 55, 127
2, 69600, Note_off_c, 10, 55, 127
2, 69600, Note_on_c, 10, 55, 127
2, 69840, Note_off_c, 10, 55, 127
2, 69840, Note_on_c, 10, 50, 127
2, 70560, Note_off_c, 10, 50, 127
2, 70560, Note_on_c, 10, 50, 127
2, 71040, Note_off_c, 10, 50, 127
2, 71040, Note_on_c, 10, 50, 127
2, 74400, Note_off_c, 10, 50, 127
2, 74400, Note_on_c, 10, 45, 127
2, 74880, Note_off_c, 10, 45, 127
2, 74880, Note_on_c, 10, 54, 127
2, 75360, Note_off_c, 10, 54, 127
2, 75360, Note_on_c, 10, 45, 127
2, 76320, Note_off_c, 10, 45, 127
2, 78480, Note_on_c, 10, 52, 127
2, 78720, Note_off_c, 10, 52, 127
2, 78720, Note_on_c, 10, 55, 127
2, 79200, Note_off_c, 10, 55, 127
2, 79200, Note_on_c, 10, 55, 127
2, 79440, Note_off_c, 10, 55, 127
2, 79440, Note_on_c, 10, 52, 127
2, 79920, Note_off_c, 10, 52, 127
2, 79920, Note_on_c, 10, 52, 127
2, 80160, Note_off_c, 10, 52, 127
2, 80160, Note_on_c, 10, 55, 127
2, 80640, Note_off_c, 10, 55, 127
2, 80640, Note_on_c, 10, 55, 127
2, 80880, Note_off_c, 10, 55, 127
2, 80880, Note_on_c, 10, 50, 127
2, 81360, Note_off_c, 10, 50, 127
2, 81360, Note_on_c, 10, 50, 127
2, 81600, Note_off_c, 10, 50, 127
2, 81600, Note_on_c, 10, 55, 127
2, 82080, Note_off_c, 10, 55, 127
2, 82080, Note_on_c, 10, 55, 127
2, 82320, Note_off_c, 10, 55, 127
2, 82320, Note_on_c, 10, 50, 127
2, 83040, Note_off_c, 10, 50, 127
2, 83040, Note_on_c, 10, 50, 127
2, 83520, Note_off_c, 10, 50, 127
2, 83520, Note_on_c, 10, 50, 127
2, 89280, Note_off_c, 10, 50, 127
2, 89280, Note_on_c, 10, 51, 127
2, 90240, Note_off_c, 10, 51, 127
2, 91200, Note_on_c, 10, 64, 127
2, 91200, Note_on_c, 10, 60, 127
2, 91200, Note_on_c, 10, 52, 127
2, 91920, Note_off_c, 10, 64, 127
2, 91920, Note_off_c, 10, 60, 127
2, 91920, Note_off_c, 10, 52, 127
2, 91920, Note_on_c, 10, 63, 127
2, 91920, Note_on_c, 10, 59, 127
2, 91920, Note_on_c, 10, 51, 127
2, 92640, Note_off_c, 10, 63, 127
2, 92640, Note_off_c, 10, 59, 127
2, 92640, Note_off_c, 10, 51, 127
2, 92640, Note_on_c, 10, 64, 127
2, 92640, Note_on_c, 10, 60, 127
2, 92640, Note_on_c, 10, 52, 127
2, 93120, Note_off_c, 10, 64, 127
2, 93120, Note_off_c, 10, 60, 127
2, 93120, Note_off_c, 10, 52, 127
2, 93120, Note_on_c, 10, 66, 127
2, 93120, Note_on_c, 10, 63, 127
2, 93120, Note_on_c, 10, 54, 127
2, 93840, Note_off_c, 10, 66, 127
2, 93840, Note_off_c, 10, 63, 127
2, 93840, Note_off_c, 10, 54, 127
2, 93840, Note_on_c, 10, 64, 127
2, 93840, Note_on_c, 10, 60, 127
2, 93840, Note_on_c, 10, 52, 127
2, 94560, Note_off_c, 10, 64, 127
2, 94560, Note_off_c, 10, 60, 127
2, 94560, Note_off_c, 10, 52, 127
2, 94560, Note_on_c, 10, 66, 127
2, 94560, Note_on_c, 10, 63, 127
2, 94560, Note_on_c, 10, 54, 127
2, 95040, Note_off_c, 10, 66, 127
2, 95040, Note_off_c, 10, 63, 127
2, 95040, Note_off_c, 10, 54, 127
2, 95040, Note_on_c, 10, 67, 127
2, 95040, Note_on_c, 10, 64, 127
2, 95040, Note_on_c, 10, 55, 127
2, 95760, Note_off_c, 10, 67, 127
2, 95760, Note_off_c, 10, 64, 127
2, 95760, Note_off_c, 10, 55, 127
2, 95760, Note_on_c, 10, 66, 127
2, 95760, Note_on_c, 10, 62, 127
2, 95760, Note_on_c, 10, 54, 127
2, 96480, Note_off_c, 10, 66, 127
2, 96480, Note_off_c, 10, 62, 127
2, 96480, Note_off_c, 10, 54, 127
2, 96480, Note_on_c, 10, 67, 127
2, 96480, Note_on_c, 10, 64, 127
2, 96480, Note_on_c, 10, 55, 127
2, 96960, Note_off_c, 10, 67, 127
2, 96960, Note_off_c, 10, 64, 127
2, 96960, Note_off_c, 10, 55, 127
2, 96960, Note_on_c, 10, 69, 127
2, 96960, Note_on_c, 10, 66, 127
2, 96960, Note_on_c, 10, 57, 127
2, 97680, Note_off_c, 10, 69, 127
2, 97680, Note_off_c, 10, 66, 127
2, 97680, Note_off_c, 10, 57, 127
2, 97680, Note_on_c, 10, 67, 127
2, 97680, Note_on_c, 10, 64, 127
2, 97680, Note_on_c, 10, 55, 127
2, 98400, Note_off_c, 10, 67, 127
2, 98400, Note_off_c, 10, 64, 127
2, 98400, Note_off_c, 10, 55, 127
2, 98400, Note_on_c, 10, 69, 127
2, 98400, Note_on_c, 10, 66, 127
2, 98400, Note_on_c, 10, 54, 127
2, 98880, Note_off_c, 10, 69, 127
2, 98880, Note_off_c, 10, 66, 127
2, 98880, Note_off_c, 10, 54, 127
2, 98880, Note_on_c, 10, 71, 127
2, 98880, Note_on_c, 10, 67, 127
2, 98880, Note_on_c, 10, 55, 127
2, 99600, Note_off_c, 10, 71, 127
2, 99600, Note_off_c, 10, 67, 127
2, 99600, Note_off_c, 10, 55, 127
2, 99600, Note_on_c, 10, 69, 127
2, 99600, Note_on_c, 10, 66, 127
2, 99600, Note_on_c, 10, 54, 127
2, 100320, Note_off_c, 10, 69, 127
2, 100320, Note_off_c, 10, 66, 127
2, 100320, Note_off_c, 10, 54, 127
2, 100320, Note_on_c, 10, 67, 127
2, 100320, Note_on_c, 10, 64, 127
2, 100320, Note_on_c, 10, 52, 127
2, 100800, Note_off_c, 10, 67, 127
2, 100800, Note_off_c, 10, 64, 127
2, 100800, Note_off_c, 10, 52, 127
2, 100800, Note_on_c, 10, 69, 127
2, 100800, Note_on_c, 10, 66, 127
2, 100800, Note_on_c, 10, 54, 127
2, 101520, Note_off_c, 10, 69, 127
2, 101520, Note_off_c, 10, 66, 127
2, 101520, Note_off_c, 10, 54, 127
2, 101520, Note_on_c, 10, 67, 127
2, 101520, Note_on_c, 10, 64, 127
2, 101520, Note_on_c, 10, 52, 127
2, 102240, Note_off_c, 10, 67, 127
2, 102240, Note_off_c, 10, 64, 127
2, 102240, Note_off_c, 10, 52, 127
2, 102240, Note_on_c, 10, 66, 127
2, 102240, Note_on_c, 10, 62, 127
2, 102240, Note_on_c, 10, 50, 127
2, 102720, Note_off_c, 10, 66, 127
2, 102720, Note_off_c, 10, 62, 127
2, 102720, Note_off_c, 10, 50, 127
2, 102720, Note_on_c, 10, 67, 127
2, 102720, Note_on_c, 10, 64, 127
2, 102720, Note_on_c, 10, 52, 127
2, 103680, Note_off_c, 10, 67, 127
2, 103680, Note_off_c, 10, 64, 127
2, 103680, Note_off_c, 10, 52, 127
2, 103680, Note_on_c, 10, 57, 127
2, 104160, Note_off_c, 10, 57, 127
2, 104160, Note_on_c, 10, 52, 127
2, 104640, Note_off_c, 10, 52, 127
2, 104640, Note_on_c, 10, 48, 127
2, 105600, Note_off_c, 10, 48, 127
2, 105840, Note_on_c, 10, 55, 95
2, 105910, Note_off_c, 10, 55, 95
2, 106080, Note_on_c, 10, 59, 95
2, 106150, Note_off_c, 10, 59, 95
2, 106320, Note_on_c, 10, 55, 95
2, 106390, Note_off_c, 10, 55, 95
2, 106560, Note_on_c, 10, 59, 95
2, 106630, Note_off_c, 10, 59, 95
2, 107040, Note_on_c, 10, 55, 95
2, 107110, Note_off_c, 10, 55, 95
2, 107520, Note_on_c, 10, 55, 95
2, 107590, Note_off_c, 10, 55, 95
2, 108000, Note_on_c, 10, 55, 95
2, 108070, Note_off_c, 10, 55, 95
2, 108240, Note_on_c, 10, 64, 95
2, 108310, Note_off_c, 10, 64, 95
2, 108960, Note_on_c, 10, 59, 95
2, 109030, Note_off_c, 10, 59, 95
2, 109680, Note_on_c, 10, 59, 95
2, 109750, Note_off_c, 10, 59, 95
2, 109920, Note_on_c, 10, 55, 95
2, 109990, Note_off_c, 10, 55, 95
2, 110400, Note_on_c, 10, 59, 95
2, 110470, Note_off_c, 10, 59, 95
2, 110880, Note_on_c, 10, 50, 95
2, 110950, Note_off_c, 10, 50, 95
2, 111120, Note_on_c, 10, 64, 95
2, 111190, Note_off_c, 10, 64, 95
2, 111600, Note_on_c, 10, 64, 95
2, 111670, Note_off_c, 10, 64, 95
2, 111840, Note_on_c, 10, 59, 95
2, 111910, Note_off_c, 10, 59, 95
2, 113760, Note_on_c, 10, 50, 127
2, 114000, Note_off_c, 10, 50, 127
2, 114000, Note_on_c, 10, 50, 127
2, 114240, Note_off_c, 10, 50, 127
2, 114240, Note_on_c, 10, 55, 127
2, 114720, Note_off_c, 10, 55, 127
2, 114720, Note_on_c, 10, 55, 127
2, 114960, Note_off_c, 10, 55, 127
2, 114960, Note_on_c, 10, 54, 127
2, 115680, Note_off_c, 10, 54, 127
2, 115680, Note_on_c, 10, 52, 127
2, 115920, Note_off_c, 10, 52, 127
2, 115920, Note_on_c, 10, 47, 127
2, 116160, Note_off_c, 10, 47, 127
2, 117600, Note_on_c, 10, 52, 127
2, 117840, Note_off_c, 10, 52, 127
2, 117840, Note_on_c, 10, 52, 127
2, 118080, Note_off_c, 10, 52, 127
2, 118080, Note_on_c, 10, 55, 127
2, 118560, Note_off_c, 10, 55, 127
2, 118560, Note_on_c, 10, 55, 127
2, 118800, Note_off_c, 10, 55, 127
2, 118800, Note_on_c, 10, 54, 127
2, 119520, Note_off_c, 10, 54, 127
2, 119520, Note_on_c, 10, 52, 127
2, 119760, Note_off_c, 10, 52, 127
2, 119760, Note_on_c, 10, 47, 127
2, 120000, Note_off_c, 10, 47, 127
2, 121440, Note_on_c, 10, 52, 127
2, 121680, Note_off_c, 10, 52, 127
2, 121680, Note_on_c, 10, 52, 127
2, 121920, Note_off_c, 10, 52, 127
2, 121920, Note_on_c, 10, 55, 127
2, 122400, Note_off_c, 10, 55, 127
2, 122400, Note_on_c, 10, 55, 127
2, 122640, Note_off_c, 10, 55, 127
2, 122640, Note_on_c, 10, 54, 127
2, 123360, Note_off_c, 10, 54, 127
2, 123360, Note_on_c, 10, 52, 127
2, 123600, Note_off_c, 10, 52, 127
2, 123600, Note_on_c, 10, 47, 127
2, 123840, Note_off_c, 10, 47, 127
2, 125760, Note_on_c, 10, 67, 127
2, 125760, Note_on_c, 10, 64, 127
2, 125760, Note_on_c, 10, 55, 127
2, 126480, Note_off_c, 10, 67, 127
2, 126480, Note_off_c, 10, 64, 127
2, 126480, Note_off_c, 10, 55, 127
2, 126480, Note_on_c, 10, 66, 127
2, 126480, Note_on_c, 10, 63, 127
2, 126480, Note_on_c, 10, 54, 127
2, 127200, Note_off_c, 10, 66, 127
2, 127200, Note_off_c, 10, 63, 127
2, 127200, Note_off_c, 10, 54, 127
2, 127200, Note_on_c, 10, 64, 127
2, 127200, Note_on_c, 10, 59, 127
2, 127200, Note_on_c, 10, 52, 127
2, 128640, Note_off_c, 10, 64, 127
2, 128640, Note_off_c, 10, 59, 127
2, 128640, Note_off_c, 10, 52, 127
2, 129600, Note_on_c, 10, 67, 127
2, 129600, Note_on_c, 10, 64, 127
2, 129600, Note_on_c, 10, 55, 127
2, 130320, Note_off_c, 10, 67, 127
2, 130320, Note_off_c, 10, 64, 127
2, 130320, Note_off_c, 10, 55, 127
2, 130320, Note_on_c, 10, 66, 127
2, 130320, Note_on_c, 10, 63, 127
2, 130320, Note_on_c, 10, 54, 127
2, 131040, Note_off_c, 10, 66, 127
2, 131040, Note_off_c, 10, 63, 127
2, 131040, Note_off_c, 10, 54, 127
2, 131040, Note_on_c, 10, 64, 127
2, 131040, Note_on_c, 10, 59, 127
2, 131040, Note_on_c, 10, 52, 127
2, 132480, Note_off_c, 10, 64, 127
2, 132480, Note_off_c, 10, 59, 127
2, 132480, Note_off_c, 10, 52, 127
2, 133440, Note_on_c, 10, 67, 127
2, 133440, Note_on_c, 10, 64, 127
2, 133440, Note_on_c, 10, 55, 127
2, 134160, Note_off_c, 10, 67, 127
2, 134160, Note_off_c, 10, 64, 127
2, 134160, Note_off_c, 10, 55, 127
2, 134160, Note_on_c, 10, 66, 127
2, 134160, Note_on_c, 10, 63, 127
2, 134160, Note_on_c, 10, 54, 127
2, 134880, Note_off_c, 10, 66, 127
2, 134880, Note_off_c, 10, 63, 127
2, 134880, Note_off_c, 10, 54, 127
2, 134880, Note_on_c, 10, 64, 127
2, 134880, Note_on_c, 10, 59, 127
2, 134880, Note_on_c, 10, 52, 127
2, 136320, Note_off_c, 10, 64, 127
2, 136320, Note_off_c, 10, 59, 127
2, 136320, Note_off_c, 10, 52, 127
2, 136640, Note_on_c, 10, 57, 127
2, 136960, Note_off_c, 10, 57, 127
2, 136960, Note_on_c, 10, 57, 127
2, 137280, Note_off_c, 10, 57, 127
2, 137280, Note_on_c, 10, 59, 127
2, 137760, Note_off_c, 10, 59, 127
2, 137760, Note_on_c, 10, 54, 127
2, 138000, Note_off_c, 10, 54, 127
2, 138000, Note_on_c, 10, 55, 127
2, 138480, Note_off_c, 10, 55, 127
2, 138480, Note_on_c, 10, 52, 127
2, 138960, Note_off_c, 10, 52, 127
2, 142320, Note_on_c, 10, 55, 95
2, 142390, Note_off_c, 10, 55, 95
2, 142560, Note_on_c, 10, 55, 95
2, 142630, Note_off_c, 10, 55, 95
2, 142800, Note_on_c, 10, 55, 95
2, 142870, Note_off_c, 10, 55, 95
2, 143040, Note_on_c, 10, 59, 95
2, 143110, Note_off_c, 10, 59, 95
2, 143520, Note_on_c, 10, 55, 95
2, 143590, Note_off_c, 10, 55, 95
2, 143760, Note_on_c, 10, 55, 95
2, 143830, Note_off_c, 10, 55, 95
2, 144240, Note_on_c, 10, 55, 95
2, 144310, Note_off_c, 10, 55, 95
2, 144960, Note_on_c, 10, 59, 95
2, 145030, Note_off_c, 10, 59, 95
2, 145200, Note_on_c, 10, 55, 95
2, 145270, Note_off_c, 10, 55, 95
2, 146400, Note_on_c, 10, 50, 95
2, 146470, Note_off_c, 10, 50, 95
2, 146880, Note_on_c, 10, 64, 95
2, 146950, Note_off_c, 10, 64, 95
2, 147360, Note_on_c, 10, 64, 95
2, 147430, Note_off_c, 10, 64, 95
2, 147840, Note_on_c, 10, 64, 95
2, 147910, Note_off_c, 10, 64, 95
2, 148080, Note_on_c, 10, 64, 95
2, 148150, Note_off_c, 10, 64, 95
2, 148560, Note_on_c, 10, 59, 95
2, 148630, Note_off_c, 10, 59, 95
2, 152640, Note_on_c, 10, 68, 127
2, 152640, Note_on_c, 10, 59, 127
2, 152640, Note_on_c, 10, 52, 127
2, 153600, Note_off_c, 10, 68, 127
2, 153600, Note_off_c, 10, 59, 127
2, 153600, Note_off_c, 10, 52, 127
2, 153600, Note_on_c, 10, 68, 127
2, 153600, Note_on_c, 10, 59, 127
2, 153600, Note_on_c, 10, 52, 127
2, 154560, Note_off_c, 10, 68, 127
2, 154560, Note_off_c, 10, 59, 127
2, 154560, Note_off_c, 10, 52, 127
2, 154560, Note_on_c, 10, 69, 127
2, 154560, Note_on_c, 10, 61, 127
2, 154560, Note_on_c, 10, 54, 127
2, 155520, Note_off_c, 10, 69, 127
2, 155520, Note_off_c, 10, 61, 127
2, 155520, Note_off_c, 10, 54, 127
2, 155520, Note_on_c, 10, 71, 127
2, 155520, Note_on_c, 10, 64, 127
2, 155520, Note_on_c, 10, 56, 127
2, 156480, Note_off_c, 10, 71, 127
2, 156480, Note_off_c, 10, 64, 127
2, 156480, Note_off_c, 10, 56, 127
2, 156480, Note_on_c, 10, 71, 127
2, 156480, Note_on_c, 10, 64, 127
2, 156480, Note_on_c, 10, 56, 127
2, 157440, Note_off_c, 10, 71, 127
2, 157440, Note_off_c, 10, 64, 127
2, 157440, Note_off_c, 10, 56, 127
2, 157440, Note_on_c, 10, 76, 127
2, 157440, Note_on_c, 10, 66, 127
2, 157440, Note_on_c, 10, 57, 127
2, 158400, Note_off_c, 10, 76, 127
2, 158400, Note_off_c, 10, 66, 127
2, 158400, Note_off_c, 10, 57, 127
2, 158400, Note_on_c, 10, 69, 127
2, 158400, Note_on_c, 10, 64, 127
2, 158400, Note_on_c, 10, 56, 127
2, 159360, Note_off_c, 10, 69, 127
2, 159360, Note_off_c, 10, 64, 127
2, 159360, Note_off_c, 10, 56, 127
2, 159360, Note_on_c, 10, 69, 127
2, 159360, Note_on_c, 10, 64, 127
2, 159360, Note_on_c, 10, 54, 127
2, 160800, Note_off_c, 10, 69, 127
2, 160800, Note_off_c, 10, 64, 127
2, 160800, Note_off_c, 10, 54, 127
2, 160800, Note_on_c, 10, 71, 127
2, 160800, Note_on_c, 10, 61, 127
2, 160800, Note_on_c, 10, 54, 127
2, 161040, Note_off_c, 10, 71, 127
2, 161040, Note_on_c, 10, 73, 127
2, 161280, Note_off_c, 10, 61, 127
2, 161280, Note_off_c, 10, 54, 127
2, 161280, Note_off_c, 10, 73, 127
2, 161280, Note_on_c, 10, 73, 127
2, 161280, Note_on_c, 10, 61, 127
2, 161280, Note_on_c, 10, 54, 127
2, 161760, Note_off_c, 10, 73, 127
2, 161760, Note_on_c, 10, 71, 127
2, 162240, Note_off_c, 10, 71, 127
2, 162240, Note_on_c, 10, 69, 127
2, 163200, Note_off_c, 10, 54, 127
2, 165120, Note_off_c, 10, 61, 127
2, 165120, Note_off_c, 10, 69, 127
2, 181920, Note_on_c, 10, 45, 95
2, 181990, Note_off_c, 10, 45, 95
2, 182400, Note_on_c, 10, 45, 95
2, 182470, Note_off_c, 10, 45, 95
2, 182640, Note_on_c, 10, 45, 95
2, 182710, Note_off_c, 10, 45, 95
2, 183360, Note_on_c, 10, 40, 95
2, 183430, Note_off_c, 10, 40, 95
2, 184080, Note_on_c, 10, 40, 95
2, 184150, Note_off_c, 10, 40, 95
2, 184320, Note_on_c, 10, 40, 95
2, 184390, Note_off_c, 10, 40, 95
2, 188640, Pitch_bend_c, 11, 8192
2, 188640, Note_on_c, 11, 54, 79
2, 188640, Pitch_bend_c, 11, 8192
2, 188640, Note_on_c, 11, 49, 79
2, 188640, Pitch_bend_c, 11, 8192
2, 188640, Note_on_c, 11, 45, 79
2, 188693, Pitch_bend_c, 11, 8320
2, 188693, Pitch_bend_c, 11, 8320
2, 188693, Pitch_bend_c, 11, 8320
2, 188746, Pitch_bend_c, 11, 8448
2, 188746, Pitch_bend_c, 11, 8448
2, 188746, Pitch_bend_c, 11, 8448
2, 188799, Pitch_bend_c, 11, 8576
2, 188799, Pitch_bend_c, 11, 8576
2, 188799, Pitch_bend_c, 11, 8576
2, 188852, Pitch_bend_c, 11, 8704
2, 188852, Pitch_bend_c, 11, 8704
2, 188852, Pitch_bend_c, 11, 8704
2, 188905, Pitch_bend_c, 11, 8832
2, 188905, Pitch_bend_c, 11, 8832
2, 188905, Pitch_bend_c, 11, 8832
2, 188958, Pitch_bend_c, 11, 8960
2, 188958, Pitch_bend_c, 11, 8960
2, 188958, Pitch_bend_c, 11, 8960
2, 189011, Pitch_bend_c, 11, 9088
2, 189011, Pitch_bend_c, 11, 9088
2, 189011, Pitch_bend_c, 11, 9088
2, 189064, Pitch_bend_c, 11, 9216
2, 189064, Pitch_bend_c, 11, 9216
2, 189064, Pitch_bend_c, 11, 9216
2, 189117, Pitch_bend_c, 11, 9344
2, 189117, Pitch_bend_c, 11, 9344
2, 189117, Pitch_bend_c, 11, 9344
2, 189170, Pitch_bend_c, 11, 9472
2, 189170, Pitch_bend_c, 11, 9472
2, 189170, Pitch_bend_c, 11, 9472
2, 189223, Pitch_bend_c, 11, 9600
2, 189223, Pitch_bend_c, 11, 9600
2, 189223, Pitch_bend_c, 11, 9600
2, 189276, Pitch_bend_c, 11, 9728
2, 189276, Pitch_bend_c, 11, 9728
2, 189276, Pitch_bend_c, 11, 9728
2, 189329, Pitch_bend_c, 11, 9856
2, 189329, Pitch_bend_c, 11, 9856
2, 189329, Pitch_bend_c, 11, 9856
2, 189382, Pitch_bend_c, 11, 9984
2, 189382, Pitch_bend_c, 11, 9984
2, 189382, Pitch_bend_c, 11, 9984
2, 189435, Pitch_bend_c, 11, 10112
2, 189435, Pitch_bend_c, 11, 10112
2, 189435, Pitch_bend_c, 11, 10112
2, 189488, Pitch_bend_c, 11, 10240
2, 189488, Pitch_bend_c, 11, 10240
2, 189488, Pitch_bend_c, 11, 10240
2, 189541, Pitch_bend_c, 11, 10368
2, 189541, Pitch_bend_c, 11, 10368
2, 189541, Pitch_bend_c, 11, 10368
2, 189594, Pitch_bend_c, 11, 10496
2, 189594, Pitch_bend_c, 11, 10496
2, 189594, Pitch_bend_c, 11, 10496
2, 189647, Pitch_bend_c, 11, 10624
2, 189647, Pitch_bend_c, 11, 10624
2, 189647, Pitch_bend_c, 11, 10624
2, 189700, Pitch_bend_c, 11, 10752
2, 189700, Pitch_bend_c, 11, 10752
2, 189700, Pitch_bend_c, 11, 10752
2, 189753, Pitch_bend_c, 11, 10880
2, 189753, Pitch_bend_c, 11, 10880
2, 189753, Pitch_bend_c, 11, 10880
2, 189806, Pitch_bend_c, 11, 11008
2, 189806, Pitch_bend_c, 11, 11008
2, 189806, Pitch_bend_c, 11, 11008
2, 189859, Pitch_bend_c, 11, 11136
2, 189859, Pitch_bend_c, 11, 11136
2, 189859, Pitch_bend_c, 11, 11136
2, 189912, Pitch_bend_c, 11, 11264
2, 189912, Pitch_bend_c, 11, 11264
2, 189912, Pitch_bend_c, 11, 11264
2, 189965, Pitch_bend_c, 11, 11392
2, 189965, Pitch_bend_c, 11, 11392
2, 189965, Pitch_bend_c, 11, 11392
2, 190018, Pitch_bend_c, 11, 11520
2, 190018, Pitch_bend_c, 11, 11520
2, 190018, Pitch_bend_c, 11, 11520
2, 190071, Pitch_bend_c, 11, 11648
2, 190071, Pitch_bend_c, 11, 11648
2, 190071, Pitch_bend_c, 11, 11648
2, 190080, Pitch_bend_c, 11, 11648
2, 190080, Pitch_bend_c, 11, 8192
2, 190080, Note_off_c, 11, 54, 79
2, 190080, Pitch_bend_c, 11, 11648
2, 190080, Pitch_bend_c, 11, 8192
2, 190080, Note_off_c, 11, 49, 79
2, 190080, Pitch_bend_c, 11, 11648
2, 190080, Pitch_bend_c, 11, 8192
2, 190080, Note_off_c, 11, 45, 79
2, 190080, Pitch_bend_c, 11, 8192
2, 190080, Note_on_c, 11, 59, 79
2, 190080, Pitch_bend_c, 11, 8192
2, 190080, Note_on_c, 11, 54, 79
2, 190080, Pitch_bend_c, 11, 8192
2, 190080, Note_on_c, 11, 51, 79
2, 190208, Pitch_bend_c, 11, 8320
2, 190208, Pitch_bend_c, 11, 8320
2, 190208, Pitch_bend_c, 11, 8320
2, 190336, Pitch_bend_c, 11, 8448
2, 190336, Pitch_bend_c, 11, 8448
2, 190336, Pitch_bend_c, 11, 8448
2, 190464, Pitch_bend_c, 11, 8576
2, 190464, Pitch_bend_c, 11, 8576
2, 190464, Pitch_bend_c, 11, 8576
2, 190592, Pitch_bend_c, 11, 8704
2, 190592, Pitch_bend_c, 11, 8704
2, 190592, Pitch_bend_c, 11, 8704
2, 190720, Pitch_bend_c, 11, 8832
2, 190720, Pitch_bend_c, 11, 8832
2, 190720, Pitch_bend_c, 11, 8832
2, 190848, Pitch_bend_c, 11, 8960
2, 190848, Pitch_bend_c, 11, 8960
2, 190848, Pitch_bend_c, 11, 8960
2, 190976, Pitch_bend_c, 11, 9088
2, 190976, Pitch_bend_c, 11, 9088
2, 190976, Pitch_bend_c, 11, 9088
2, 191104, Pitch_bend_c, 11, 9216
2, 191104, Pitch_bend_c, 11, 9216
2, 191104, Pitch_bend_c, 11, 9216
2, 191232, Pitch_bend_c, 11, 9344
2, 191232, Pitch_bend_c, 11, 9344
2, 191232, Pitch_bend_c, 11, 9344
2, 191360, Pitch_bend_c, 11, 9472
2, 191360, Pitch_bend_c, 11, 9472
2, 191360, Pitch_bend_c, 11, 9472
2, 191488, Pitch_bend_c, 11, 9600
2, 191488, Pitch_bend_c, 11, 9600
2, 191488, Pitch_bend_c, 11, 9600
2, 191616, Pitch_bend_c, 11, 9728
2, 191616, Pitch_bend_c, 11, 9728
2, 191616, Pitch_bend_c, 11, 9728
2, 191744, Pitch_bend_c, 11, 9856
2, 191744, Pitch_bend_c, 11, 9856
2, 191744, Pitch_bend_c, 11, 9856
2, 191872, Pitch_bend_c, 11, 9984
2, 191872, Pitch_bend_c, 11, 9984
2, 191872, Pitch_bend_c, 11, 9984
2, 192000, Pitch_bend_c, 11, 10112
2, 192000, Pitch_bend_c, 11, 10112
2, 192000, Pitch_bend_c, 11, 10112
2, 192128, Pitch_bend_c, 11, 10240
2, 192128, Pitch_bend_c, 11, 10240
2, 192128, Pitch_bend_c, 11, 10240
2, 192256, Pitch_bend_c, 11, 10368
2, 192256, Pitch_bend_c, 11, 10368
2, 192256, Pitch_bend_c, 11, 10368
2, 192384, Pitch_bend_c, 11, 10496
2, 192384, Pitch_bend_c, 11, 10496
2, 192384, Pitch_bend_c, 11, 10496
2, 192512, Pitch_bend_c, 11, 10624
2, 192512, Pitch_bend_c, 11, 10624
2, 192512, Pitch_bend_c, 11, 10624
2, 192640, Pitch_bend_c, 11, 10752
2, 192640, Pitch_bend_c, 11, 10752
2, 192640, Pitch_bend_c, 11, 10752
2, 192768, Pitch_bend_c, 11, 10880
2, 192768, Pitch_bend_c, 11, 10880
2, 192768, Pitch_bend_c, 11, 10880
2, 192896, Pitch_bend_c, 11, 11008
2, 192896, Pitch_bend_c, 11, 11008
2, 192896, Pitch_bend_c, 11, 11008
2, 193024, Pitch_bend_c, 11, 11136
2, 193024, Pitch_bend_c, 11, 11136
2, 193024, Pitch_bend_c, 11, 11136
2, 193152, Pitch_bend_c, 11, 11264
2, 193152, Pitch_bend_c, 11, 11264
2, 193152, Pitch_bend_c, 11, 11264
2, 193280, Pitch_bend_c, 11, 11392
2, 193280, Pitch_bend_c, 11, 11392
2, 193280, Pitch_bend_c, 11, 11392
2, 193408, Pitch_bend_c, 11, 11520
2, 193408, Pitch_bend_c, 11, 11520
2, 193408, Pitch_bend_c, 11, 11520
2, 193536, Pitch_bend_c, 11, 11648
2, 193536, Pitch_bend_c, 11, 11648
2, 193536, Pitch_bend_c, 11, 11648
2, 193664, Pitch_bend_c, 11, 11776
2, 193664, Pitch_bend_c, 11, 11776
2, 193664, Pitch_bend_c, 11, 11776
2, 193792, Pitch_bend_c, 11, 11904
2, 193792, Pitch_bend_c, 11, 11904
2, 193792, Pitch_bend_c, 11, 11904
2, 193920, Pitch_bend_c, 11, 12032
2, 193920, Pitch_bend_c, 11, 12032
2, 193920, Pitch_bend_c, 11, 12032
2, 194048, Pitch_bend_c, 11, 12160
2, 194048, Pitch_bend_c, 11, 12160
2, 194048, Pitch_bend_c, 11, 12160
2, 194176, Pitch_bend_c, 11, 12288
2, 194176, Pitch_bend_c, 11, 12288
2, 194176, Pitch_bend_c, 11, 12288
2, 194304, Pitch_bend_c, 11, 12416
2, 194304, Pitch_bend_c, 11, 12416
2, 194304, Pitch_bend_c, 11, 12416
2, 194432, Pitch_bend_c, 11, 12544
2, 194432, Pitch_bend_c, 11, 12544
2, 194432, Pitch_bend_c, 11, 12544
2, 194560, Pitch_bend_c, 11, 12672
2, 194560, Pitch_bend_c, 11, 12672
2, 194560, Pitch_bend_c, 11, 12672
2, 194688, Pitch_bend_c, 11, 12800
2, 194688, Pitch_bend_c, 11, 12800
2, 194688, Pitch_bend_c, 11, 12800
2, 194816, Pitch_bend_c, 11, 12928
2, 194816, Pitch_bend_c, 11, 12928
2, 194816, Pitch_bend_c, 11, 12928
2, 194944, Pitch_bend_c, 11, 13056
2, 194944, Pitch_bend_c, 11, 13056
2, 194944, Pitch_bend_c, 11, 13056
2, 195072, Pitch_bend_c, 11, 13184
2, 195072, Pitch_bend_c, 11, 13184
2, 195072, Pitch_bend_c, 11, 13184
2, 195200, Pitch_bend_c, 11, 13312
2, 195200, Pitch_bend_c, 11, 13312
2, 195200, Pitch_bend_c, 11, 13312
2, 195328, Pitch_bend_c, 11, 13440
2, 195328, Pitch_bend_c, 11, 13440
2, 195328, Pitch_bend_c, 11, 13440
2, 195456, Pitch_bend_c, 11, 13568
2, 195456, Pitch_bend_c, 11, 13568
2, 195456, Pitch_bend_c, 11, 13568
2, 195584, Pitch_bend_c, 11, 13696
2, 195584, Pitch_bend_c, 11, 13696
2, 195584, Pitch_bend_c, 11, 13696
2, 195712, Pitch_bend_c, 11, 13824
2, 195712, Pitch_bend_c, 11, 13824
2, 195712, Pitch_bend_c, 11, 13824
2, 195840, Pitch_bend_c, 11, 13952
2, 195840, Pitch_bend_c, 11, 13952
2, 195840, Pitch_bend_c, 11, 13952
2, 195968, Pitch_bend_c, 11, 14080
2, 195968, Pitch_bend_c, 11, 14080
2, 195968, Pitch_bend_c, 11, 14080
2, 196096, Pitch_bend_c, 11, 14208
2, 196096, Pitch_bend_c, 11, 14208
2, 196096, Pitch_bend_c, 11, 14208
2, 196224, Pitch_bend_c, 11, 14336
2, 196224, Pitch_bend_c, 11, 14336
2, 196224, Pitch_bend_c, 11, 14336
2, 196352, Pitch_bend_c, 11, 14464
2, 196352, Pitch_bend_c, 11, 14464
2, 196352, Pitch_bend_c, 11, 14464
2, 196480, Pitch_bend_c, 11, 14592
2, 196480, Pitch_bend_c, 11, 14592
2, 196480, Pitch_bend_c, 11, 14592
2, 196608, Pitch_bend_c, 11, 14720
2, 196608, Pitch_bend_c, 11, 14720
2, 196608, Pitch_bend_c, 11, 14720
2, 196736, Pitch_bend_c, 11, 14848
2, 196736, Pitch_bend_c, 11, 14848
2, 196736, Pitch_bend_c, 11, 14848
2, 196864, Pitch_bend_c, 11, 14976
2, 196864, Pitch_bend_c, 11, 14976
2, 196864, Pitch_bend_c, 11, 14976
2, 196992, Pitch_bend_c, 11, 15104
2, 196992, Pitch_bend_c, 11, 15104
2, 196992, Pitch_bend_c, 11, 15104
2, 197120, Pitch_bend_c, 11, 15232
2, 197120, Pitch_bend_c, 11, 15232
2, 197120, Pitch_bend_c, 11, 15232
2, 197248, Pitch_bend_c, 11, 15360
2, 197248, Pitch_bend_c, 11, 15360
2, 197248, Pitch_bend_c, 11, 15360
2, 197376, Pitch_bend_c, 11, 15488
2, 197376, Pitch_bend_c, 11, 15488
2, 197376, Pitch_bend_c, 11, 15488
2, 197504, Pitch_bend_c, 11, 15616
2, 197504, Pitch_bend_c, 11, 15616
2, 197504, Pitch_bend_c, 11, 15616
2, 197632, Pitch_bend_c, 11, 15744
2, 197632, Pitch_bend_c, 11, 15744
2, 197632, Pitch_bend_c, 11, 15744
2, 197760, Pitch_bend_c, 11, 15872
2, 197760, Pitch_bend_c, 11, 15872
2, 197760, Pitch_bend_c, 11, 8192
2, 197760, Note_off_c, 11, 59, 79
2, 197760, Pitch_bend_c, 11, 15872
2, 197760, Pitch_bend_c, 11, 15872
2, 197760, Pitch_bend_c, 11, 8192
2, 197760, Note_off_c, 11, 54, 79
2, 197760, Pitch_bend_c, 11, 15872
2, 197760, Pitch_bend_c, 11, 15872
2, 197760, Pitch_bend_c, 11, 8192
2, 197760, Note_off_c, 11, 51, 79
2, 197760, Note_on_c, 10, 76, 79
2, 197760, Note_on_c, 10, 68, 79
2, 197760, Note_on_c, 10, 61, 79
2, 198480, Note_off_c, 10, 76, 79
2, 198480, Note_off_c, 10, 68, 79
2, 198480, Note_off_c, 10, 61, 79
2, 198480, Note_on_c, 10, 75, 79
2, 199200, Note_off_c, 10, 75, 79
2, 199200, Note_on_c, 10, 78, 79
2, 199680, Note_off_c, 10, 78, 79
2, 199680, Note_on_c, 10, 76, 79
2, 200320, Note_off_c, 10, 76, 79
2, 200320, Note_on_c, 10, 76, 79
2, 201600, Note_off_c, 10, 76, 79
2, 201600, Note_on_c, 10, 61, 79
2, 201600, Note_on_c, 10, 57, 127
2, 202080, Note_off_c, 10, 61, 79
2, 202080, Note_off_c, 10, 57, 127
2, 202080, Note_on_c, 10, 59, 79
2, 202080, Note_on_c, 10, 56, 127
2, 202320, Note_off_c, 10, 59, 79
2, 202320, Note_off_c, 10, 56, 127
2, 202320, Note_on_c, 10, 59, 79
2, 202320, Note_on_c, 10, 56, 127
2, 202800, Note_off_c, 10, 59, 79
2, 202800, Note_off_c, 10, 56, 127
2, 202800, Note_on_c, 10, 64, 79
2, 202800, Note_on_c, 10, 61, 127
2, 203280, Note_off_c, 10, 64, 79
2, 203280, Note_off_c, 10, 61, 127
2, 203280, Note_on_c, 10, 61, 79
2, 203280, Note_on_c, 10, 56, 127
2, 203760, Note_off_c, 10, 61, 79
2, 203760, Note_off_c, 10, 56, 127
2, 203760, Note_on_c, 10, 59, 79
2, 203760, Note_on_c, 10, 54, 127
2, 204480, Note_off_c, 10, 59, 79
2, 204480, Note_off_c, 10, 54, 127
2, 204480, Note_on_c, 10, 59, 79
2, 204480, Note_on_c, 10, 54, 127
2, 204960, Note_off_c, 10, 59, 79
2, 204960, Note_off_c, 10, 54, 127
2, 204960, Note_on_c, 10, 57, 79
2, 204960, Note_on_c, 10, 52, 127
2, 205440, Note_off_c, 10, 57, 79
2, 205440, Note_off_c, 10, 52, 127
2, 205440, Note_on_c, 10, 59, 79
2, 205440, Note_on_c, 10, 56, 127
2, 205920, Note_off_c, 10, 59, 79
2, 205920, Note_off_c, 10, 56, 127
2, 205920, Note_on_c, 10, 59, 79
2, 205920, Note_on_c, 10, 56, 127
2, 206160, Note_off_c, 10, 59, 79
2, 206160, Note_off_c, 10, 56, 127
2, 206160, Note_on_c, 10, 59, 79
2, 206160, Note_on_c, 10, 56, 127
2, 206640, Note_off_c, 10, 59, 79
2, 206640, Note_off_c, 10, 56, 127
2, 206640, Note_on_c, 10, 61, 79
2, 206640, Note_on_c, 10, 59, 127
2, 207120, Note_off_c, 10, 61, 79
2, 207120, Note_off_c, 10, 59, 127
2, 207120, Note_on_c, 10, 57, 79
2, 207120, Note_on_c, 10, 54, 127
2, 208320, Note_off_c, 10, 57, 79
2, 208320, Note_off_c, 10, 54, 127
2, 208320, Note_on_c, 10, 57, 79
2, 208320, Note_on_c, 10, 54, 127
2, 208800, Note_off_c, 10, 57, 79
2, 208800, Note_off_c, 10, 54, 127
2, 208800, Note_on_c, 10, 57, 79
2, 208800, Note_on_c, 10, 52, 127
2, 209280, Note_off_c, 10, 57, 79
2, 209280, Note_off_c, 10, 52, 127
2, 209280, Note_on_c, 10, 61, 79
2, 209280, Note_on_c, 10, 56, 127
2, 209760, Note_off_c, 10, 61, 79
2, 209760, Note_off_c, 10, 56, 127
2, 209760, Note_on_c, 10, 59, 79
2, 209760, Note_on_c, 10, 56, 127
2, 210240, Note_off_c, 10, 59, 79
2, 210240, Note_off_c, 10, 56, 127
2, 210240, Note_on_c, 10, 61, 79
2, 210240, Note_on_c, 10, 56, 127
2, 210720, Note_off_c, 10, 61, 79
2, 210720, Note_off_c, 10, 56, 127
2, 210720, Note_on_c, 10, 63, 79
2, 210720, Note_on_c, 10, 57, 127
2, 210960, Note_off_c, 10, 63, 79
2, 210960, Note_off_c, 10, 57, 127
2, 210960, Note_on_c, 10, 61, 79
2, 210960, Note_on_c, 10, 56, 127
2, 211440, Note_off_c, 10, 61, 79
2, 211440, Note_off_c, 10, 56, 127
2, 211440, Note_on_c, 10, 57, 79
2, 211440, Note_on_c, 10, 54, 127
2, 212160, Note_off_c, 10, 57, 79
2, 212160, Note_off_c, 10, 54, 127
2, 212160, Note_on_c, 10, 59, 79
2, 212160, Note_on_c, 10, 56, 127
2, 212640, Note_off_c, 10, 59, 79
2, 212640, Note_off_c, 10, 56, 127
2, 212640, Note_on_c, 10, 57, 79
2, 212640, Note_on_c, 10, 54, 127
2, 213120, Note_off_c, 10, 57, 79
2, 213120, Note_off_c, 10, 54, 127
2, 213120, Note_on_c, 10, 59, 79
2, 213120, Note_on_c, 10, 56, 127
2, 213600, Note_off_c, 10, 59, 79
2, 213600, Note_off_c, 10, 56, 127
2, 213600, Note_on_c, 10, 59, 79
2, 213600, Note_on_c, 10, 56, 127
2, 213840, Note_off_c, 10, 59, 79
2, 213840, Note_off_c, 10, 56, 127
2, 213840, Note_on_c, 10, 59, 79
2, 213840, Note_on_c, 10, 56, 127
2, 214320, Note_off_c, 10, 59, 79
2, 214320, Note_off_c, 10, 56, 127
2, 214320, Note_on_c, 10, 61, 79
2, 214320, Note_on_c, 10, 57, 127
2, 215040, Note_off_c, 10, 61, 79
2, 215040, Note_off_c, 10, 57, 127
2, 215040, Note_on_c, 10, 57, 79
2, 215040, Note_on_c, 10, 54, 127
2, 216000, Note_off_c, 10, 57, 79
2, 216000, Note_off_c, 10, 54, 127
2, 216000, Note_on_c, 10, 63, 127
2, 216000, Note_on_c, 10, 54, 127
2, 216480, Note_off_c, 10, 63, 127
2, 216480, Note_off_c, 10, 54, 127
2, 216480, Note_on_c, 10, 63, 127
2, 216480, Note_on_c, 10, 52, 127
2, 216960, Note_off_c, 10, 63, 127
2, 216960, Note_off_c, 10, 52, 127
2, 216960, Note_on_c, 10, 64, 127
2, 216960, Note_on_c, 10, 56, 127
2, 216960, Note_on_c, 10, 44, 127
2, 217440, Note_off_c, 10, 64, 127
2, 217440, Note_off_c, 10, 56, 127
2, 217440, Note_off_c, 10, 44, 127
2, 217440, Note_on_c, 10, 64, 127
2, 217440, Note_on_c, 10, 56, 127
2, 217440, Note_on_c, 10, 44, 127
2, 217680, Note_off_c, 10, 64, 127
2, 217680, Note_off_c, 10, 56, 127
2, 217680, Note_off_c, 10, 44, 127
2, 217680, Note_on_c, 10, 64, 127
2, 217680, Note_on_c, 10, 56, 127
2, 217680, Note_on_c, 10, 44, 127
2, 218160, Note_off_c, 10, 64, 127
2, 218160, Note_off_c, 10, 56, 127
2, 218160, Note_off_c, 10, 44, 127
2, 218160, Note_on_c, 10, 64, 127
2, 218160, Note_on_c, 10, 56, 127
2, 218160, Note_on_c, 10, 44, 127
2, 218400, Note_off_c, 10, 64, 127
2, 218400, Note_off_c, 10, 56, 127
2, 218400, Note_off_c, 10, 44, 127
2, 218400, Note_on_c, 10, 63, 127
2, 218400, Note_on_c, 10, 54, 127
2, 218400, Note_on_c, 10, 47, 127
2, 219840, Note_off_c, 10, 63, 127
2, 219840, Note_off_c, 10, 54, 127
2, 219840, Note_off_c, 10, 47, 127
2, 219840, Note_on_c, 10, 63, 127
2, 219840, Note_on_c, 10, 54, 127
2, 219840, Note_on_c, 10, 47, 127
2, 220080, Note_off_c, 10, 63, 127
2, 220080, Note_off_c, 10, 54, 127
2, 220080, Note_off_c, 10, 47, 127
2, 220080, Note_on_c, 10, 63, 127
2, 220080, Note_on_c, 10, 54, 127
2, 220080, Note_on_c, 10, 47, 127
2, 220560, Note_off_c, 10, 63, 127
2, 220560, Note_off_c, 10, 54, 127
2, 220560, Note_off_c, 10, 47, 127
2, 220560, Note_on_c, 10, 63, 127
2, 220560, Note_on_c, 10, 52, 127
2, 220560, Note_on_c, 10, 47, 127
2, 220800, Note_off_c, 10, 63, 127
2, 220800, Note_off_c, 10, 52, 127
2, 220800, Note_off_c, 10, 47, 127
2, 220800, Note_on_c, 10, 64, 127
2, 220800, Note_on_c, 10, 56, 127
2, 220800, Note_on_c, 10, 44, 127
2, 221280, Note_off_c, 10, 64, 127
2, 221280, Note_off_c, 10, 56, 127
2, 221280, Note_off_c, 10, 44, 127
2, 221280, Note_on_c, 10, 64, 127
2, 221280, Note_on_c, 10, 56, 127
2, 221280, Note_on_c, 10, 44, 127
2, 221520, Note_off_c, 10, 64, 127
2, 221520, Note_off_c, 10, 56, 127
2, 221520, Note_off_c, 10, 44, 127
2, 221520, Note_on_c, 10, 64, 127
2, 221520, Note_on_c, 10, 56, 127
2, 221520, Note_on_c, 10, 44, 127
2, 222000, Note_off_c, 10, 64, 127
2, 222000, Note_off_c, 10, 56, 127
2, 222000, Note_off_c, 10, 44, 127
2, 222000, Note_on_c, 10, 64, 127
2, 222000, Note_on_c, 10, 56, 127
2, 222000, Note_on_c, 10, 49, 127
2, 222240, Note_off_c, 10, 64, 127
2, 222240, Note_off_c, 10, 56, 127
2, 222240, Note_off_c, 10, 49, 127
2, 222240, Note_on_c, 10, 63, 127
2, 222240, Note_on_c, 10, 54, 127
2, 222240, Note_on_c, 10, 47, 127
2, 223680, Note_off_c, 10, 63, 127
2, 223680, Note_off_c, 10, 54, 127
2, 223680, Note_off_c, 10, 47, 127
2, 223680, Note_on_c, 10, 63, 127
2, 223680, Note_on_c, 10, 54, 127
2, 223680, Note_on_c, 10, 47, 127
2, 224160, Note_off_c, 10, 63, 127
2, 224160, Note_off_c, 10, 54, 127
2, 224160, Note_off_c, 10, 47, 127
2, 224160, Note_on_c, 10, 63, 127
2, 224160, Note_on_c, 10, 52, 127
2, 224160, Note_on_c, 10, 47, 127
2, 224640, Note_off_c, 10, 63, 127
2, 224640, Note_off_c, 10, 52, 127
2, 224640, Note_off_c, 10, 47, 127
2, 224640, Note_on_c, 10, 64, 127
2, 224640, Note_on_c, 10, 56, 127
2, 224640, Note_on_c, 10, 44, 127
2, 225120, Note_off_c, 10, 64, 127
2, 225120, Note_off_c, 10, 56, 127
2, 225120, Note_off_c, 10, 44, 127
2, 225120, Note_on_c, 10, 64, 127
2, 225120, Note_on_c, 10, 56, 127
2, 225120, Note_on_c, 10, 44, 127
2, 225360, Note_off_c, 10, 64, 127
2, 225360, Note_off_c, 10, 56, 127
2, 225360, Note_off_c, 10, 44, 127
2, 225360, Note_on_c, 10, 64, 127
2, 225360, Note_on_c, 10, 56, 127
2, 225360, Note_on_c, 10, 44, 127
2, 225840, Note_off_c, 10, 64, 127
2, 225840, Note_off_c, 10, 56, 127
2, 225840, Note_off_c, 10, 44, 127
2, 225840, Note_on_c, 10, 64, 127
2, 225840, Note_on_c, 10, 56, 127
2, 225840, Note_on_c, 10, 44, 127
2, 226080, Note_off_c, 10, 64, 127
2, 226080, Note_off_c, 10, 56, 127
2, 226080, Note_off_c, 10, 44, 127
2, 226080, Note_on_c, 10, 63, 127
2, 226080, Note_on_c, 10, 54, 127
2, 226080, Note_on_c, 10, 47, 127
2, 227520, Note_off_c, 10, 63, 127
2, 227520, Note_off_c, 10, 54, 127
2, 227520, Note_off_c, 10, 47, 127
2, 227520, Note_on_c, 10, 63, 127
2, 227520, Note_on_c, 10, 54, 127
2, 227520, Note_on_c, 10, 47, 127
2, 227760, Note_off_c, 10, 63, 127
2, 227760, Note_off_c, 10, 54, 127
2, 227760, Note_off_c, 10, 47, 127
2, 227760, Note_on_c, 10, 63, 127
2, 227760, Note_on_c, 10, 54, 127
2, 227760, Note_on_c, 10, 47, 127
2, 228240, Note_off_c, 10, 63, 127
2, 228240, Note_off_c, 10, 54, 127
2, 228240, Note_off_c, 10, 47, 127
2, 228240, Note_on_c, 10, 63, 127
2, 228240, Note_on_c, 10, 52, 127
2, 228240, Note_on_c, 10, 47, 127
2, 228480, Note_off_c, 10, 63, 127
2, 228480, Note_off_c, 10, 52, 127
2, 228480, Note_off_c, 10, 47, 127
2, 228480, Note_on_c, 10, 64, 127
2, 228480, Note_on_c, 10, 56, 127
2, 228480, Note_on_c, 10, 44, 127
2, 228960, Note_off_c, 10, 64, 127
2, 228960, Note_off_c, 10, 56, 127
2, 228960, Note_off_c, 10, 44, 127
2, 228960, Note_on_c, 10, 64, 127
2, 228960, Note_on_c, 10, 56, 127
2, 228960, Note_on_c, 10, 44, 127
2, 229200, Note_off_c, 10, 64, 127
2, 229200, Note_off_c, 10, 56, 127
2, 229200, Note_off_c, 10, 44, 127
2, 229200, Note_on_c, 10, 64, 127
2, 229200, Note_on_c, 10, 56, 127
2, 229200, Note_on_c, 10, 44, 127
2, 229680, Note_off_c, 10, 64, 127
2, 229680, Note_off_c, 10, 56, 127
2, 229680, Note_off_c, 10, 44, 127
2, 229680, Note_on_c, 10, 64, 127
2, 229680, Note_on_c, 10, 56, 127
2, 229680, Note_on_c, 10, 49, 127
2, 229920, Note_off_c, 10, 64, 127
2, 229920, Note_off_c, 10, 56, 127
2, 229920, Note_off_c, 10, 49, 127
2, 229920, Note_on_c, 10, 63, 127
2, 229920, Note_on_c, 10, 54, 127
2, 229920, Note_on_c, 10, 47, 127
2, 231360, Note_off_c, 10, 63, 127
2, 231360, Note_off_c, 10, 54, 127
2, 231360, Note_off_c, 10, 47, 127
2, 231360, Note_on_c, 10, 63, 127
2, 231360, Note_on_c, 10, 54, 127
2, 231360, Note_on_c, 10, 47, 127
2, 231840, Note_off_c, 10, 63, 127
2, 231840, Note_off_c, 10, 54, 127
2, 231840, Note_off_c, 10, 47, 127
2, 231840, Note_on_c, 10, 63, 127
2, 231840, Note_on_c, 10, 52, 127
2, 231840, Note_on_c, 10, 47, 127
2, 232320, Note_off_c, 10, 63, 127
2, 232320, Note_off_c, 10, 52, 127
2, 232320, Note_off_c, 10, 47, 127
2, 232320, Note_on_c, 10, 64, 127
2, 232320, Note_on_c, 10, 56, 127
2, 232320, Note_on_c, 10, 40, 127
2, 232800, Note_off_c, 10, 64, 127
2, 232800, Note_off_c, 10, 56, 127
2, 232800, Note_off_c, 10, 40, 127
2, 232800, Note_on_c, 10, 64, 127
2, 232800, Note_on_c, 10, 56, 127
2, 232800, Note_on_c, 10, 40, 127
2, 233040, Note_off_c, 10, 64, 127
2, 233040, Note_off_c, 10, 56, 127
2, 233040, Note_off_c, 10, 40, 127
2, 233040, Note_on_c, 10, 64, 127
2, 233040, Note_on_c, 10, 56, 127
2, 233040, Note_on_c, 10, 40, 127
2, 233520, Note_off_c, 10, 64, 127
2, 233520, Note_off_c, 10, 56, 127
2, 233520, Note_off_c, 10, 40, 127
2, 233520, Note_on_c, 10, 64, 127
2, 233520, Note_on_c, 10, 56, 127
2, 233520, Note_on_c, 10, 40, 127
2, 233760, Note_off_c, 10, 64, 127
2, 233760, Note_off_c, 10, 56, 127
2, 233760, Note_off_c, 10, 40, 127
2, 233760, Note_on_c, 10, 63, 127
2, 233760, Note_on_c, 10, 54, 127
2, 233760, Note_on_c, 10, 47, 127
2, 235200, Note_off_c, 10, 63, 127
2, 235200, Note_off_c, 10, 54, 127
2, 235200, Note_off_c, 10, 47, 127
2, 235200, Note_on_c, 10, 63, 127
2, 235200, Note_on_c, 10, 52, 127
2, 235200, Note_on_c, 10, 47, 127
2, 235680, Note_off_c, 10, 63, 127
2, 235680, Note_off_c, 10, 52, 127
2, 235680, Note_off_c, 10, 47, 127
2, 235680, Note_on_c, 10, 63, 127
2, 235680, Note_on_c, 10, 52, 127
2, 235680, Note_on_c, 10, 47, 127
2, 236160, Note_off_c, 10, 63, 127
2, 236160, Note_off_c, 10, 52, 127
2, 236160, Note_off_c, 10, 47, 127
2, 236160, Note_on_c, 10, 64, 127
2, 236160, Note_on_c, 10, 56, 127
2, 236160, Note_on_c, 10, 40, 127
2, 236640, Note_off_c, 10, 64, 127
2, 236640, Note_off_c, 10, 56, 127
2, 236640, Note_off_c, 10, 40, 127
2, 236640, Note_on_c, 10, 64, 127
2, 236640, Note_on_c, 10, 56, 127
2, 236640, Note_on_c, 10, 40, 127
2, 236880, Note_off_c, 10, 64, 127
2, 236880, Note_off_c, 10, 56, 127
2, 236880, Note_off_c, 10, 40, 127
2, 236880, Note_on_c, 10, 64, 127
2, 236880, Note_on_c, 10, 56, 127
2, 236880, Note_on_c, 10, 40, 127
2, 237360, Note_off_c, 10, 64, 127
2, 237360, Note_off_c, 10, 56, 127
2, 237360, Note_off_c, 10, 40, 127
2, 237360, Note_on_c, 10, 64, 127
2, 237360, Note_on_c, 10, 56, 127
2, 237360, Note_on_c, 10, 40, 127
2, 237600, Note_off_c, 10, 64, 127
2, 237600, Note_off_c, 10, 56, 127
2, 237600, Note_off_c, 10, 40, 127
2, 237600, Note_on_c, 10, 63, 127
2, 237600, Note_on_c, 10, 54, 127
2, 237600, Note_on_c, 10, 47, 127
2, 239040, Note_off_c, 10, 63, 127
2, 239040, Note_off_c, 10, 54, 127
2, 239040, Note_off_c, 10, 47, 127
2, 239040, Note_on_c, 10, 63, 127
2, 239040, Note_on_c, 10, 54, 127
2, 239040, Note_on_c, 10, 47, 127
2, 239520, Note_off_c, 10, 63, 127
2, 239520, Note_off_c, 10, 54, 127
2, 239520, Note_off_c, 10, 47, 127
2, 239520, Note_on_c, 10, 63, 127
2, 239520, Note_on_c, 10, 52, 127
2, 239520, Note_on_c, 10, 47, 127
2, 240000, Note_off_c, 10, 63, 127
2, 240000, Note_off_c, 10, 52, 127
2, 240000, Note_off_c, 10, 47, 127
2, 240000, Note_on_c, 10, 64, 127
2, 240000, Note_on_c, 10, 56, 127
2, 240000, Note_on_c, 10, 40, 127
2, 240480, Note_off_c, 10, 64, 127
2, 240480, Note_off_c, 10, 56, 127
2, 240480, Note_off_c, 10, 40, 127
2, 240480, Note_on_c, 10, 64, 127
2, 240480, Note_on_c, 10, 56, 127
2, 240480, Note_on_c, 10, 40, 127
2, 240720, Note_off_c, 10, 64, 127
2, 240720, Note_off_c, 10, 56, 127
2, 240720, Note_off_c, 10, 40, 127
2, 240720, Note_on_c, 10, 64, 127
2, 240720, Note_on_c, 10, 56, 127
2, 240720, Note_on_c, 10, 40, 127
2, 241200, Note_off_c, 10, 64, 127
2, 241200, Note_off_c, 10, 56, 127
2, 241200, Note_off_c, 10, 40, 127
2, 241200, Note_on_c, 10, 64, 127
2, 241200, Note_on_c, 10, 56, 127
2, 241200, Note_on_c, 10, 40, 127
2, 241440, Note_off_c, 10, 64, 127
2, 241440, Note_off_c, 10, 56, 127
2, 241440, Note_off_c, 10, 40, 127
2, 241440, Note_on_c, 10, 63, 127
2, 241440, Note_on_c, 10, 54, 127
2, 241440, Note_on_c, 10, 47, 127
2, 242880, Note_off_c, 10, 63, 127
2, 242880, Note_off_c, 10, 54, 127
2, 242880, Note_off_c, 10, 47, 127
2, 242880, Note_on_c, 10, 63, 127
2, 242880, Note_on_c, 10, 54, 127
2, 242880, Note_on_c, 10, 51, 127
2, 243360, Note_off_c, 10, 63, 127
2, 243360, Note_off_c, 10, 54, 127
2, 243360, Note_off_c, 10, 51, 127
2, 243360, Note_on_c, 10, 61, 127
2, 243360, Note_on_c, 10, 52, 127
2, 243360, Note_on_c, 10, 49, 127
2, 243840, Note_off_c, 10, 61, 127
2, 243840, Note_off_c, 10, 52, 127
2, 243840, Note_off_c, 10, 49, 127
2, 243840, Note_on_c, 10, 64, 127
2, 243840, Note_on_c, 10, 56, 127
2, 243840, Note_on_c, 10, 47, 127
2, 244320, Note_off_c, 10, 64, 127
2, 244320, Note_off_c, 10, 56, 127
2, 244320, Note_off_c, 10, 47, 127
2, 244320, Note_on_c, 10, 71, 127
2, 244320, Note_on_c, 10, 56, 127
2, 244320, Note_on_c, 10, 47, 127
2, 244560, Note_off_c, 10, 71, 127
2, 244560, Note_off_c, 10, 56, 127
2, 244560, Note_off_c, 10, 47, 127
2, 244560, Note_on_c, 10, 64, 127
2, 244560, Note_on_c, 10, 56, 127
2, 244560, Note_on_c, 10, 47, 127
2, 245040, Note_off_c, 10, 64, 127
2, 245040, Note_off_c, 10, 56, 127
2, 245040, Note_off_c, 10, 47, 127
2, 245040, Note_on_c, 10, 64, 127
2, 245040, Note_on_c, 10, 56, 127
2, 245040, Note_on_c, 10, 47, 127
2, 245280, Note_off_c, 10, 64, 127
2, 245280, Note_off_c, 10, 56, 127
2, 245280, Note_off_c, 10, 47, 127
2, 245280, Note_on_c, 10, 63, 127
2, 245280, Note_on_c, 10, 54, 127
2, 245280, Note_on_c, 10, 40, 127
2, 246720, Note_off_c, 10, 63, 127
2, 246720, Note_off_c, 10, 54, 127
2, 246720, Note_off_c, 10, 40, 127
2, 247200, Note_on_c, 10, 59, 127
2, 247680, Note_off_c, 10, 59, 127
2, 247680, Note_on_c, 10, 59, 127
2, 250320, Note_off_c, 10, 59, 127
2, 250320, Note_on_c, 10, 56, 127
2, 251040, Note_off_c, 10, 56, 127
2, 251040, Note_on_c, 10, 54, 127
2, 251520, Note_off_c, 10, 54, 127
2, 251520, Note_on_c, 10, 54, 127
2, 252480, Note_off_c, 10, 54, 127
2, 252480, Note_on_c, 10, 56, 127
2, 254400, Note_off_c, 10, 56, 127
2, 255360, Note_on_c, 10, 64, 127
2, 255360, Note_on_c, 10, 61, 127
2, 255360, Note_on_c, 10, 57, 127
2, 258240, Note_off_c, 10, 64, 127
2, 258480, Note_off_c, 10, 61, 127
2, 258480, Note_off_c, 10, 57, 127
2, 258480, Note_on_c, 10, 66, 127
2, 258480, Note_on_c, 10, 63, 127
2, 258480, Note_on_c, 10, 59, 127
2, 259200, Note_off_c, 10, 66, 127
2, 259200, Note_off_c, 10, 63, 127
2, 259200, Note_off_c, 10, 59, 127
2, 259200, Note_on_c, 10, 63, 127
2, 259200, Note_on_c, 10, 59, 127
2, 259200, Note_on_c, 10, 56, 127
2, 262080, Note_off_c, 10, 63, 127
2, 262080, Note_off_c, 10, 59, 127
2, 262080, Note_off_c, 10, 56, 127
2, 262560, Note_on_c, 10, 71, 127
2, 263040, Note_off_c, 10, 71, 127
2, 263040, Note_on_c, 10, 71, 127
2, 263360, Note_off_c, 10, 71, 127
2, 263360, Note_on_c, 10, 73, 127
2, 263680, Note_off_c, 10, 73, 127
2, 263680, Note_on_c, 10, 71, 127
2, 264000, Note_off_c, 10, 71, 127
2, 264000, Note_on_c, 10, 69, 127
2, 264320, Note_off_c, 10, 69, 127
2, 264320, Note_on_c, 10, 71, 127
2, 265920, Note_off_c, 10, 71, 127
2, 265920, Note_on_c, 10, 68, 127
2, 266400, Note_off_c, 10, 68, 127
2, 266400, Note_on_c, 10, 66, 127
2, 266880, Note_off_c, 10, 66, 127
2, 266880, Note_on_c, 10, 66, 127
2, 267600, Note_off_c, 10, 66, 127
2, 267600, Note_on_c, 10, 66, 127
2, 267840, Note_off_c, 10, 66, 127
2, 267840, Note_on_c, 10, 68, 127
2, 268160, Note_off_c, 10, 68, 127
2, 268160, Note_on_c, 10, 66, 127
2, 268480, Note_off_c, 10, 66, 127
2, 268480, Note_on_c, 10, 68, 127
2, 269760, Note_off_c, 10, 68, 127
2, 270720, Note_on_c, 10, 64, 127
2, 270720, Note_on_c, 10, 61, 127
2, 270720, Note_on_c, 10, 57, 127
2, 273600, Note_off_c, 10, 64, 127
2, 273840, Note_off_c, 10, 61, 127
2, 273840, Note_off_c, 10, 57, 127
2, 273840, Note_on_c, 10, 66, 127
2, 273840, Note_on_c, 10, 63, 127
2, 273840, Note_on_c, 10, 59, 127
2, 274560, Note_off_c, 10, 66, 127
2, 274560, Note_off_c, 10, 63, 127
2, 274560, Note_off_c, 10, 59, 127
2, 274560, Note_on_c, 10, 63, 127
2, 274560, Note_on_c, 10, 59, 127
2, 274560, Note_on_c, 10, 56, 127
2, 277440, Note_off_c, 10, 63, 127
2, 277440, Note_off_c, 10, 59, 127
2, 277440, Note_off_c, 10, 56, 127
2, 277920, Note_on_c, 10, 59, 127
2, 278400, Note_off_c, 10, 59, 127
2, 278400, Note_on_c, 10, 59, 127
2, 281040, Note_off_c, 10, 59, 127
2, 281040, Note_on_c, 10, 56, 127
2, 281760, Note_off_c, 10, 56, 127
2, 281760, Note_on_c, 10, 54, 127
2, 282240, Note_off_c, 10, 54, 127
2, 282240, Note_on_c, 10, 54, 127
2, 283200, Note_off_c, 10, 54, 127
2, 283200, Note_on_c, 10, 56, 127
2, 285120, Note_off_c, 10, 56, 127
2, 286080, Note_on_c, 10, 64, 127
2, 286080, Note_on_c, 10, 61, 127
2, 286080, Note_on_c, 10, 57, 127
2, 288960, Note_off_c, 10, 64, 127
2, 289200, Note_off_c, 10, 61, 127
2, 289200, Note_off_c, 10, 57, 127
2, 289200, Note_on_c, 10, 66, 127
2, 289200, Note_on_c, 10, 63, 127
2, 289200, Note_on_c, 10, 59, 127
2, 289920, Note_off_c, 10, 66, 127
2, 289920, Note_off_c, 10, 63, 127
2, 289920, Note_off_c, 10, 59, 127
2, 289920, Note_on_c, 10, 63, 127
2, 289920, Note_on_c, 10, 59, 127
2, 289920, Note_on_c, 10, 56, 127
2, 292800, Note_off_c, 10, 63, 127
2, 292800, Note_off_c, 10, 59, 127
2, 292800, Note_off_c, 10, 56, 127
2, 293280, Note_on_c, 10, 71, 127
2, 293760, Note_off_c, 10, 71, 127
2, 293760, Note_on_c, 10, 71, 127
2, 294080, Note_off_c, 10, 71, 127
2, 294080, Note_on_c, 10, 73, 127
2, 294400, Note_off_c, 10, 73, 127
2, 294400, Note_on_c, 10, 71, 127
2, 294720, Note_off_c, 10, 71, 127
2, 294720, Note_on_c, 10, 69, 127
2, 295040, Note_off_c, 10, 69, 127
2, 295040, Note_on_c, 10, 71, 127
2, 296640, Note_off_c, 10, 71, 127
2, 296640, Note_on_c, 10, 68, 127
2, 297120, Note_off_c, 10, 68, 127
2, 297120, Note_on_c, 10, 66, 127
2, 297600, Note_off_c, 10, 66, 127
2, 297600, Note_on_c, 10, 66, 127
2, 298320, Note_off_c, 10, 66, 127
2, 298320, Note_on_c, 10, 66, 127
2, 298560, Note_off_c, 10, 66, 127
2, 298560, Note_on_c, 10, 68, 127
2, 298880, Note_off_c, 10, 68, 127
2, 298880, Note_on_c, 10, 66, 127
2, 299200, Note_off_c, 10, 66, 127
2, 299200, Note_on_c, 10, 68, 127
2, 300480, Note_off_c, 10, 68, 127
2, 300480, End_track
3, 0, Start_track
3, 0, Pitch_bend_c, 0, 8192
3, 0, Control_c, 0, 7, 103
3, 0, Control_c, 0, 10, 63
3, 0, Control_c, 0, 93, 0
3, 0, Control_c, 0, 91, 0
3, 0, Control_c, 0, 95, 0
3, 0, Control_c, 0, 92, 0
3, 0, Control_c, 0, 11, 127
3, 0, Program_c, 0, 27
3, 0, Note_on_c, 0, 52, 127
3, 240, Note_off_c, 0, 52, 127
3, 240, Note_on_c, 0, 52, 127
3, 480, Note_off_c, 0, 52, 127
3, 480, Note_on_c, 0, 50, 127
3, 720, Note_off_c, 0, 50, 127
3, 720, Note_on_c, 0, 49, 127
3, 960, Note_off_c, 0, 49, 127
3, 960, Note_on_c, 0, 47, 127
3, 1200, Note_off_c, 0, 47, 127
3, 1200, Note_on_c, 0, 45, 127
3, 1440, Note_off_c, 0, 45, 127
3, 1440, Note_on_c, 0, 44, 127
3, 1680, Note_off_c, 0, 44, 127
3, 1680, Note_on_c, 0, 40, 102
3, 1920, Note_off_c, 0, 40, 102
3, 1920, Note_on_c, 0, 52, 127
3, 2160, Note_off_c, 0, 52, 127
3, 2160, Note_on_c, 0, 52, 127
3, 2400, Note_off_c, 0, 52, 127
3, 2400, Note_on_c, 0, 50, 127
3, 2640, Note_off_c, 0, 50, 127
3, 2640, Note_on_c, 0, 49, 127
3, 2880, Note_off_c, 0, 49, 127
3, 2880, Note_on_c, 0, 47, 127
3, 3120, Note_off_c, 0, 47, 127
3, 3120, Note_on_c, 0, 45, 127
3, 3360, Note_off_c, 0, 45, 127
3, 3360, Note_on_c, 0, 44, 127
3, 3600, Note_off_c, 0, 44, 127
3, 3600, Note_on_c, 0, 40, 102
3, 3840, Note_off_c, 0, 40, 102
3, 3840, Note_on_c, 0, 52, 127
3, 4080, Note_off_c, 0, 52, 127
3, 4080, Note_on_c, 0, 52, 127
3, 4320, Note_off_c, 0, 52, 127
3, 4320, Note_on_c, 0, 50, 127
3, 4560, Note_off_c, 0, 50, 127
3, 4560, Note_on_c, 0, 49, 127
3, 4800, Note_off_c, 0, 49, 127
3, 4800, Note_on_c, 0, 47, 127
3, 5040, Note_off_c, 0, 47, 127
3, 5040, Note_on_c, 0, 45, 127
3, 5280, Note_off_c, 0, 45, 127
3, 5280, Note_on_c, 0, 44, 127
3, 5520, Note_off_c, 0, 44, 127
3, 5520, Note_on_c, 0, 40, 102
3, 5760, Note_off_c, 0, 40, 102
3, 5760, Note_on_c, 0, 52, 127
3, 6000, Note_off_c, 0, 52, 127
3, 6000, Note_on_c, 0, 52, 127
3, 6240, Note_off_c, 0, 52, 127
3, 6240, Note_on_c, 0, 50, 127
3, 6480, Note_off_c, 0, 50, 127
3, 6480, Note_on_c, 0, 49, 127
3, 6720, Note_off_c, 0, 49, 127
3, 6720, Note_on_c, 0, 47, 127
3, 6960, Note_off_c, 0, 47, 127
3, 6960, Note_on_c, 0, 45, 127
3, 7200, Note_off_c, 0, 45, 127
3, 7200, Note_on_c, 0, 44, 127
3, 7440, Note_off_c, 0, 44, 127
3, 7440, Note_on_c, 0, 40, 102
3, 7680, Note_off_c, 0, 40, 102
3, 7680, Note_on_c, 0, 52, 127
3, 7920, Note_off_c, 0, 52, 127
3, 7920, Note_on_c, 0, 52, 127
3, 8160, Note_off_c, 0, 52, 127
3, 8160, Note_on_c, 0, 50, 127
3, 8400, Note_off_c, 0, 50, 127
3, 8400, Note_on_c, 0, 49, 127
3, 8640, Note_off_c, 0, 49, 127
3, 8640, Note_on_c, 0, 47, 127
3, 8880, Note_off_c, 0, 47, 127
3, 8880, Note_on_c, 0, 45, 127
3, 9120, Note_off_c, 0, 45, 127
3, 9120, Note_on_c, 0, 44, 127
3, 9360, Note_off_c, 0, 44, 127
3, 9360, Note_on_c, 0, 40, 102
3, 9600, Note_off_c, 0, 40, 102
3, 9600, Note_on_c, 0, 52, 127
3, 9840, Note_off_c, 0, 52, 127
3, 9840, Note_on_c, 0, 52, 127
3, 10080, Note_off_c, 0, 52, 127
3, 10080, Note_on_c, 0, 50, 127
3, 10320, Note_off_c, 0, 50, 127
3, 10320, Note_on_c, 0, 49, 127
3, 10560, Note_off_c, 0, 49, 127
3, 10560, Note_on_c, 0, 47, 127
3, 10800, Note_off_c, 0, 47, 127
3, 10800, Note_on_c, 0, 45, 127
3, 11040, Note_off_c, 0, 45, 127
3, 11040, Note_on_c, 0, 44, 127
3, 11280, Note_off_c, 0, 44, 127
3, 11280, Note_on_c, 0, 40, 102
3, 11520, Note_off_c, 0, 40, 102
3, 11520, Note_on_c, 0, 52, 127
3, 11760, Note_off_c, 0, 52, 127
3, 11760, Note_on_c, 0, 52, 127
3, 12000, Note_off_c, 0, 52, 127
3, 12000, Note_on_c, 0, 50, 127
3, 12240, Note_off_c, 0, 50, 127
3, 12240, Note_on_c, 0, 49, 127
3, 12480, Note_off_c, 0, 49, 127
3, 12480, Note_on_c, 0, 47, 127
3, 12720, Note_off_c, 0, 47, 127
3, 12720, Note_on_c, 0, 45, 127
3, 12960, Note_off_c, 0, 45, 127
3, 12960, Note_on_c, 0, 44, 127
3, 13200, Note_off_c, 0, 44, 127
3, 13200, Note_on_c, 0, 40, 102
3, 13440, Note_off_c, 0, 40, 102
3, 13440, Note_on_c, 0, 52, 127
3, 13680, Note_off_c, 0, 52, 127
3, 13680, Note_on_c, 0, 52, 127
3, 13920, Note_off_c, 0, 52, 127
3, 13920, Note_on_c, 0, 50, 127
3, 14160, Note_off_c, 0, 50, 127
3, 14160, Note_on_c, 0, 49, 127
3, 14400, Note_off_c, 0, 49, 127
3, 14400, Note_on_c, 0, 47, 127
3, 14640, Note_off_c, 0, 47, 127
3, 14640, Note_on_c, 0, 45, 127
3, 14880, Note_off_c, 0, 45, 127
3, 14880, Note_on_c, 0, 44, 127
3, 15120, Note_off_c, 0, 44, 127
3, 15120, Note_on_c, 0, 40, 102
3, 15360, Note_off_c, 0, 40, 102
3, 15360, Note_on_c, 0, 52, 127
3, 15600, Note_off_c, 0, 52, 127
3, 15600, Note_on_c, 0, 52, 127
3, 15840, Note_off_c, 0, 52, 127
3, 15840, Note_on_c, 0, 50, 127
3, 16080, Note_off_c, 0, 50, 127
3, 16080, Note_on_c, 0, 49, 127
3, 16320, Note_off_c, 0, 49, 127
3, 16320, Note_on_c, 0, 47, 127
3, 16560, Note_off_c, 0, 47, 127
3, 16560, Note_on_c, 0, 45, 127
3, 16800, Note_off_c, 0, 45, 127
3, 16800, Note_on_c, 0, 44, 127
3, 17040, Note_off_c, 0, 44, 127
3, 17040, Note_on_c, 0, 40, 102
3, 17280, Note_off_c, 0, 40, 102
3, 17280, Note_on_c, 0, 52, 127
3, 17520, Note_off_c, 0, 52, 127
3, 17520, Note_on_c, 0, 52, 127
3, 17760, Note_off_c, 0, 52, 127
3, 17760, Note_on_c, 0, 50, 127
3, 18000, Note_off_c, 0, 50, 127
3, 18000, Note_on_c, 0, 49, 127
3, 18240, Note_off_c, 0, 49, 127
3, 18240, Note_on_c, 0, 47, 127
3, 18480, Note_off_c, 0, 47, 127
3, 18480, Note_on_c, 0, 45, 127
3, 18720, Note_off_c, 0, 45, 127
3, 18720, Note_on_c, 0, 44, 127
3, 18960, Note_off_c, 0, 44, 127
3, 18960, Note_on_c, 0, 40, 102
3, 19200, Note_off_c, 0, 40, 102
3, 19200, Note_on_c, 0, 52, 127
3, 19440, Note_off_c, 0, 52, 127
3, 19440, Note_on_c, 0, 52, 127
3, 19680, Note_off_c, 0, 52, 127
3, 19680, Note_on_c, 0, 50, 127
3, 19920, Note_off_c, 0, 50, 127
3, 19920, Note_on_c, 0, 49, 127
3, 20160, Note_off_c, 0, 49, 127
3, 20160, Note_on_c, 0, 47, 127
3, 20400, Note_off_c, 0, 47, 127
3, 20400, Note_on_c, 0, 45, 127
3, 20640, Note_off_c, 0, 45, 127
3, 20640, Note_on_c, 0, 44, 127
3, 20880, Note_off_c, 0, 44, 127
3, 20880, Note_on_c, 0, 40, 102
3, 21120, Note_off_c, 0, 40, 102
3, 21120, Note_on_c, 0, 52, 127
3, 21360, Note_off_c, 0, 52, 127
3, 21360, Note_on_c, 0, 52, 127
3, 21600, Note_off_c, 0, 52, 127
3, 21600, Note_on_c, 0, 50, 127
3, 21840, Note_off_c, 0, 50, 127
3, 21840, Note_on_c, 0, 49, 127
3, 22080, Note_off_c, 0, 49, 127
3, 22080, Note_on_c, 0, 47, 127
3, 22320, Note_off_c, 0, 47, 127
3, 22320, Note_on_c, 0, 45, 127
3, 22560, Note_off_c, 0, 45, 127
3, 22560, Note_on_c, 0, 44, 127
3, 22800, Note_off_c, 0, 44, 127
3, 22800, Note_on_c, 0, 40, 102
3, 23040, Note_off_c, 0, 40, 102
3, 23040, Note_on_c, 0, 52, 127
3, 23280, Note_off_c, 0, 52, 127
3, 23280, Note_on_c, 0, 52, 127
3, 23520, Note_off_c, 0, 52, 127
3, 23520, Note_on_c, 0, 50, 127
3, 23760, Note_off_c, 0, 50, 127
3, 23760, Note_on_c, 0, 49, 127
3, 24000, Note_off_c, 0, 49, 127
3, 24000, Note_on_c, 0, 47, 127
3, 24240, Note_off_c, 0, 47, 127
3, 24240, Note_on_c, 0, 45, 127
3, 24480, Note_off_c, 0, 45, 127
3, 24480, Note_on_c, 0, 44, 127
3, 24720, Note_off_c, 0, 44, 127
3, 24720, Note_on_c, 0, 40, 102
3, 24960, Note_off_c, 0, 40, 102
3, 24960, Note_on_c, 0, 52, 127
3, 25200, Note_off_c, 0, 52, 127
3, 25200, Note_on_c, 0, 52, 127
3, 25440, Note_off_c, 0, 52, 127
3, 25440, Note_on_c, 0, 50, 127
3, 25680, Note_off_c, 0, 50, 127
3, 25680, Note_on_c, 0, 49, 127
3, 25920, Note_off_c, 0, 49, 127
3, 25920, Note_on_c, 0, 47, 127
3, 26160, Note_off_c, 0, 47, 127
3, 26160, Note_on_c, 0, 45, 127
3, 26400, Note_off_c, 0, 45, 127
3, 26400, Note_on_c, 0, 44, 127
3, 26640, Note_off_c, 0, 44, 127
3, 26640, Note_on_c, 0, 40, 102
3, 26880, Note_off_c, 0, 40, 102
3, 26880, Note_on_c, 0, 52, 127
3, 27120, Note_off_c, 0, 52, 127
3, 27120, Note_on_c, 0, 52, 127
3, 27360, Note_off_c, 0, 52, 127
3, 27360, Note_on_c, 0, 50, 127
3, 27600, Note_off_c, 0, 50, 127
3, 27600, Note_on_c, 0, 49, 127
3, 27840, Note_off_c, 0, 49, 127
3, 27840, Note_on_c, 0, 47, 127
3, 28080, Note_off_c, 0, 47, 127
3, 28080, Note_on_c, 0, 45, 127
3, 28320, Note_off_c, 0, 45, 127
3, 28320, Note_on_c, 0, 44, 127
3, 28560, Note_off_c, 0, 44, 127
3, 28560, Note_on_c, 0, 40, 102
3, 28800, Note_off_c, 0, 40, 102
3, 28800, Note_on_c, 0, 52, 127
3, 29040, Note_off_c, 0, 52, 127
3, 29040, Note_on_c, 0, 52, 127
3, 29280, Note_off_c, 0, 52, 127
3, 29280, Note_on_c, 0, 50, 127
3, 29520, Note_off_c, 0, 50, 127
3, 29520, Note_on_c, 0, 49, 127
3, 29760, Note_off_c, 0, 49, 127
3, 29760, Note_on_c, 0, 47, 127
3, 30000, Note_off_c, 0, 47, 127
3, 30000, Note_on_c, 0, 45, 127
3, 30240, Note_off_c, 0, 45, 127
3, 30240, Note_on_c, 0, 44, 127
3, 30480, Note_off_c, 0, 44, 127
3, 30480, Note_on_c, 0, 40, 102
3, 30720, Note_off_c, 0, 40, 102
3, 150480, Note_on_c, 0, 54, 127
3, 150720, Note_on_c, 0, 63, 127
3, 151680, Note_off_c, 0, 54, 127
3, 151680, Note_off_c, 0, 63, 127
3, 186240, Note_on_c, 0, 54, 127
3, 186720, Note_off_c, 0, 54, 127
3, 186720, Note_on_c, 0, 61, 127
3, 186960, Note_off_c, 0, 61, 127
3, 186960, Note_on_c, 0, 56, 127
3, 187440, Note_off_c, 0, 56, 127
3, 187440, Note_on_c, 0, 51, 127
3, 187920, Note_off_c, 0, 51, 127
3, 187920, Note_on_c, 0, 57, 127
3, 188160, Note_off_c, 0, 57, 127
3, 188400, Note_on_c, 0, 63, 127
3, 188640, Note_off_c, 0, 63, 127
3, 188880, Note_on_c, 0, 59, 127
3, 189120, Note_off_c, 0, 59, 127
3, 189360, Note_on_c, 0, 63, 127
3, 189600, Note_off_c, 0, 63, 127
3, 189840, Note_on_c, 0, 54, 127
3, 190080, Note_off_c, 0, 54, 127
3, 190080, Note_on_c, 0, 54, 127
3, 190560, Note_off_c, 0, 54, 127
3, 190560, Note_on_c, 0, 61, 127
3, 190800, Note_off_c, 0, 61, 127
3, 190800, Note_on_c, 0, 56, 127
3, 191280, Note_off_c, 0, 56, 127
3, 191280, Note_on_c, 0, 51, 127
3, 191760, Note_off_c, 0, 51, 127
3, 191760, Note_on_c, 0, 57, 127
3, 192000, Note_off_c, 0, 57, 127
3, 192240, Note_on_c, 0, 63, 127
3, 192480, Note_off_c, 0, 63, 127
3, 192720, Note_on_c, 0, 59, 127
3, 192960, Note_off_c, 0, 59, 127
3, 193200, Note_on_c, 0, 63, 127
3, 193440, Note_off_c, 0, 63, 127
3, 193680, Note_on_c, 0, 54, 127
3, 193920, Note_off_c, 0, 54, 127
3, 193920, Note_on_c, 0, 54, 127
3, 194400, Note_off_c, 0, 54, 127
3, 194400, Note_on_c, 0, 61, 127
3, 194640, Note_off_c, 0, 61, 127
3, 194640, Note_on_c, 0, 56, 127
3, 195120, Note_off_c, 0, 56, 127
3, 195120, Note_on_c, 0, 51, 127
3, 195600, Note_off_c, 0, 51, 127
3, 195600, Note_on_c, 0, 57, 127
3, 195840, Note_off_c, 0, 57, 127
3, 196080, Note_on_c, 0, 63, 127
3, 196320, Note_off_c, 0, 63, 127
3, 196560, Note_on_c, 0, 59, 127
3, 196800, Note_off_c, 0, 59, 127
3, 197040, Note_on_c, 0, 63, 127
3, 197280, Note_off_c, 0, 63, 127
3, 197520, Note_on_c, 0, 54, 127
3, 197760, Note_off_c, 0, 54, 127
3, 197760, Note_on_c, 0, 54, 127
3, 198240, Note_off_c, 0, 54, 127
3, 198240, Note_on_c, 0, 61, 127
3, 198480, Note_off_c, 0, 61, 127
3, 198480, Note_on_c, 0, 56, 127
3, 198960, Note_off_c, 0, 56, 127
3, 198960, Note_on_c, 0, 51, 127
3, 199440, Note_off_c, 0, 51, 127
3, 199440, Note_on_c, 0, 57, 127
3, 199680, Note_off_c, 0, 57, 127
3, 199920, Note_on_c, 0, 63, 127
3, 200160, Note_off_c, 0, 63, 127
3, 200400, Note_on_c, 0, 59, 127
3, 200640, Note_off_c, 0, 59, 127
3, 200880, Note_on_c, 0, 63, 127
3, 201120, Note_off_c, 0, 63, 127
3, 201360, Note_on_c, 0, 54, 127
3, 201600, Note_off_c, 0, 54, 127
3, 201600, End_track
4, 0, Start_track
4, 0, Pitch_bend_c, 1, 8192
4, 0, Control_c, 1, 7, 127
4, 0, Control_c, 1, 10, 63
4, 0, Control_c, 1, 93, 0
4, 0, Control_c, 1, 91, 0
4, 0, Control_c, 1, 95, 0
4, 0, Control_c, 1, 92, 0
4, 0, Control_c, 1, 11, 127
4, 0, Program_c, 1, 27
4, 17040, Note_on_c, 1, 57, 127
4, 17280, Note_off_c, 1, 57, 127
4, 17520, Note_on_c, 1, 57, 127
4, 17760, Note_off_c, 1, 57, 127
4, 18000, Note_on_c, 1, 57, 127
4, 18240, Note_off_c, 1, 57, 127
4, 18480, Note_on_c, 1, 57, 127
4, 18720, Note_off_c, 1, 57, 127
4, 18720, Note_on_c, 1, 59, 127
4, 19200, Note_off_c, 1, 59, 127
4, 20880, Note_on_c, 1, 57, 127
4, 21120, Note_off_c, 1, 57, 127
4, 21360, Note_on_c, 1, 52, 127
4, 21600, Note_off_c, 1, 52, 127
4, 21840, Note_on_c, 1, 50, 127
4, 22560, Note_off_c, 1, 50, 127
4, 24720, Note_on_c, 1, 57, 127
4, 24960, Note_off_c, 1, 57, 127
4, 25200, Note_on_c, 1, 57, 127
4, 25440, Note_off_c, 1, 57, 127
4, 25680, Note_on_c, 1, 57, 127
4, 25920, Note_off_c, 1, 57, 127
4, 26160, Note_on_c, 1, 57, 127
4, 26400, Note_off_c, 1, 57, 127
4, 26400, Note_on_c, 1, 59, 127
4, 26880, Note_off_c, 1, 59, 127
4, 28560, Note_on_c, 1, 57, 127
4, 28800, Note_off_c, 1, 57, 127
4, 29040, Note_on_c, 1, 52, 127
4, 29280, Note_off_c, 1, 52, 127
4, 29520, Note_on_c, 1, 50, 127
4, 30240, Note_off_c, 1, 50, 127
4, 30720, Note_on_c, 1, 40, 127
4, 31200, Note_off_c, 1, 40, 127
4, 31200, Note_on_c, 1, 43, 127
4, 31440, Note_off_c, 1, 43, 127
4, 31440, Note_on_c, 1, 44, 127
4, 31680, Note_off_c, 1, 44, 127
4, 31680, Note_on_c, 1, 52, 127
4, 31920, Note_off_c, 1, 52, 127
4, 31920, Note_on_c, 1, 52, 127
4, 32160, Note_off_c, 1, 52, 127
4, 32160, Note_on_c, 1, 50, 127
4, 32400, Note_off_c, 1, 50, 127
4, 32400, Note_on_c, 1, 57, 127
4, 32640, Note_off_c, 1, 57, 127
4, 32880, Note_on_c, 1, 57, 127
4, 33120, Note_off_c, 1, 57, 127
4, 33360, Note_on_c, 1, 57, 127
4, 33600, Note_off_c, 1, 57, 127
4, 33840, Note_on_c, 1, 57, 127
4, 34080, Note_off_c, 1, 57, 127
4, 34080, Note_on_c, 1, 59, 127
4, 34560, Note_off_c, 1, 59, 127
4, 34560, Note_on_c, 1, 40, 127
4, 35040, Note_off_c, 1, 40, 127
4, 35040, Note_on_c, 1, 43, 127
4, 35280, Note_off_c, 1, 43, 127
4, 35280, Note_on_c, 1, 44, 127
4, 35520, Note_off_c, 1, 44, 127
4, 35520, Note_on_c, 1, 52, 127
4, 35760, Note_off_c, 1, 52, 127
4, 35760, Note_on_c, 1, 52, 127
4, 36000, Note_off_c, 1, 52, 127
4, 36000, Note_on_c, 1, 50, 127
4, 36240, Note_off_c, 1, 50, 127
4, 36240, Note_on_c, 1, 57, 127
4, 36480, Note_off_c, 1, 57, 127
4, 36720, Note_on_c, 1, 52, 127
4, 36960, Note_off_c, 1, 52, 127
4, 37200, Note_on_c, 1, 50, 127
4, 38400, Note_off_c, 1, 50, 127
4, 38400, Note_on_c, 1, 40, 127
4, 38880, Note_off_c, 1, 40, 127
4, 38880, Note_on_c, 1, 43, 127
4, 39120, Note_off_c, 1, 43, 127
4, 39120, Note_on_c, 1, 44, 127
4, 39360, Note_off_c, 1, 44, 127
4, 39360, Note_on_c, 1, 52, 127
4, 39600, Note_off_c, 1, 52, 127
4, 39600, Note_on_c, 1, 52, 127
4, 39840, Note_off_c, 1, 52, 127
4, 39840, Note_on_c, 1, 50, 127
4, 40080, Note_off_c, 1, 50, 127
4, 40080, Note_on_c, 1, 57, 127
4, 40320, Note_off_c, 1, 57, 127
4, 40560, Note_on_c, 1, 57, 127
4, 40800, Note_off_c, 1, 57, 127
4, 41040, Note_on_c, 1, 57, 127
4, 41280, Note_off_c, 1, 57, 127
4, 41520, Note_on_c, 1, 57, 127
4, 41760, Note_off_c, 1, 57, 127
4, 41760, Note_on_c, 1, 59, 127
4, 42240, Note_off_c, 1, 59, 127
4, 42240, Note_on_c, 1, 40, 127
4, 42720, Note_off_c, 1, 40, 127
4, 42720, Note_on_c, 1, 43, 127
4, 42960, Note_off_c, 1, 43, 127
4, 42960, Note_on_c, 1, 44, 127
4, 43200, Note_off_c, 1, 44, 127
4, 43200, Note_on_c, 1, 52, 127
4, 43440, Note_off_c, 1, 52, 127
4, 43440, Note_on_c, 1, 52, 127
4, 43680, Note_off_c, 1, 52, 127
4, 43680, Note_on_c, 1, 50, 127
4, 43920, Note_off_c, 1, 50, 127
4, 43920, Note_on_c, 1, 57, 127
4, 44160, Note_off_c, 1, 57, 127
4, 44400, Note_on_c, 1, 52, 127
4, 44640, Note_off_c, 1, 52, 127
4, 44880, Note_on_c, 1, 50, 127
4, 46080, Note_off_c, 1, 50, 127
4, 46080, Note_on_c, 1, 40, 127
4, 46560, Note_off_c, 1, 40, 127
4, 46560, Note_on_c, 1, 43, 127
4, 46800, Note_off_c, 1, 43, 127
4, 46800, Note_on_c, 1, 44, 127
4, 47040, Note_off_c, 1, 44, 127
4, 47040, Note_on_c, 1, 52, 127
4, 47280, Note_off_c, 1, 52, 127
4, 47280, Note_on_c, 1, 52, 127
4, 47520, Note_off_c, 1, 52, 127
4, 47520, Note_on_c, 1, 50, 127
4, 47760, Note_off_c, 1, 50, 127
4, 47760, Note_on_c, 1, 57, 127
4, 48000, Note_off_c, 1, 57, 127
4, 48240, Note_on_c, 1, 57, 127
4, 48480, Note_off_c, 1, 57, 127
4, 48720, Note_on_c, 1, 57, 127
4, 48960, Note_off_c, 1, 57, 127
4, 49200, Note_on_c, 1, 57, 127
4, 49440, Note_off_c, 1, 57, 127
4, 49440, Note_on_c, 1, 59, 127
4, 49920, Note_off_c, 1, 59, 127
4, 49920, Note_on_c, 1, 40, 127
4, 50400, Note_off_c, 1, 40, 127
4, 50400, Note_on_c, 1, 43, 127
4, 50640, Note_off_c, 1, 43, 127
4, 50640, Note_on_c, 1, 44, 127
4, 50880, Note_off_c, 1, 44, 127
4, 50880, Note_on_c, 1, 52, 127
4, 51120, Note_off_c, 1, 52, 127
4, 51120, Note_on_c, 1, 52, 127
4, 51360, Note_off_c, 1, 52, 127
4, 51360, Note_on_c, 1, 50, 127
4, 51600, Note_off_c, 1, 50, 127
4, 51600, Note_on_c, 1, 57, 127
4, 51840, Note_off_c, 1, 57, 127
4, 52080, Note_on_c, 1, 52, 127
4, 52320, Note_off_c, 1, 52, 127
4, 52560, Note_on_c, 1, 50, 127
4, 53760, Note_off_c, 1, 50, 127
4, 53760, Note_on_c, 1, 62, 127
4, 54240, Note_off_c, 1, 62, 127
4, 54240, Note_on_c, 1, 62, 127
4, 54480, Note_off_c, 1, 62, 127
4, 54480, Note_on_c, 1, 59, 127
4, 54960, Note_off_c, 1, 59, 127
4, 54960, Note_on_c, 1, 59, 127
4, 55200, Note_off_c, 1, 59, 127
4, 55200, Note_on_c, 1, 62, 127
4, 55680, Note_off_c, 1, 62, 127
4, 55680, Note_on_c, 1, 62, 127
4, 55920, Note_off_c, 1, 62, 127
4, 55920, Note_on_c, 1, 59, 127
4, 56400, Note_off_c, 1, 59, 127
4, 56400, Note_on_c, 1, 59, 127
4, 56640, Note_off_c, 1, 59, 127
4, 56640, Note_on_c, 1, 62, 127
4, 57120, Note_off_c, 1, 62, 127
4, 57120, Note_on_c, 1, 62, 127
4, 57360, Note_off_c, 1, 62, 127
4, 57360, Note_on_c, 1, 59, 127
4, 58080, Note_off_c, 1, 59, 127
4, 58080, Note_on_c, 1, 59, 127
4, 58560, Note_off_c, 1, 59, 127
4, 58560, Note_on_c, 1, 57, 127
4, 66240, Note_off_c, 1, 57, 127
4, 66240, Note_on_c, 1, 62, 127
4, 66720, Note_off_c, 1, 62, 127
4, 66720, Note_on_c, 1, 62, 127
4, 66960, Note_off_c, 1, 62, 127
4, 66960, Note_on_c, 1, 59, 127
4, 67440, Note_off_c, 1, 59, 127
4, 67440, Note_on_c, 1, 59, 127
4, 67680, Note_off_c, 1, 59, 127
4, 67680, Note_on_c, 1, 62, 127
4, 68160, Note_off_c, 1, 62, 127
4, 68160, Note_on_c, 1, 62, 127
4, 68400, Note_off_c, 1, 62, 127
4, 68400, Note_on_c, 1, 59, 127
4, 68880, Note_off_c, 1, 59, 127
4, 68880, Note_on_c, 1, 59, 127
4, 69120, Note_off_c, 1, 59, 127
4, 69120, Note_on_c, 1, 62, 127
4, 69600, Note_off_c, 1, 62, 127
4, 69600, Note_on_c, 1, 62, 127
4, 69840, Note_off_c, 1, 62, 127
4, 69840, Note_on_c, 1, 59, 127
4, 70560, Note_off_c, 1, 59, 127
4, 70560, Note_on_c, 1, 59, 127
4, 71040, Note_off_c, 1, 59, 127
4, 71040, Note_on_c, 1, 57, 127
4, 78720, Note_off_c, 1, 57, 127
4, 78720, Note_on_c, 1, 62, 127
4, 79200, Note_off_c, 1, 62, 127
4, 79200, Note_on_c, 1, 62, 127
4, 79440, Note_off_c, 1, 62, 127
4, 79440, Note_on_c, 1, 59, 127
4, 79920, Note_off_c, 1, 59, 127
4, 79920, Note_on_c, 1, 59, 127
4, 80160, Note_off_c, 1, 59, 127
4, 80160, Note_on_c, 1, 62, 127
4, 80640, Note_off_c, 1, 62, 127
4, 80640, Note_on_c, 1, 62, 127
4, 80880, Note_off_c, 1, 62, 127
4, 80880, Note_on_c, 1, 59, 127
4, 81360, Note_off_c, 1, 59, 127
4, 81360, Note_on_c, 1, 59, 127
4, 81600, Note_off_c, 1, 59, 127
4, 81600, Note_on_c, 1, 62, 127
4, 82080, Note_off_c, 1, 62, 127
4, 82080, Note_on_c, 1, 62, 127
4, 82320, Note_off_c, 1, 62, 127
4, 82320, Note_on_c, 1, 59, 127
4, 83040, Note_off_c, 1, 59, 127
4, 83040, Note_on_c, 1, 59, 127
4, 83520, Note_off_c, 1, 59, 127
4, 83520, Note_on_c, 1, 57, 127
4, 91200, Note_off_c, 1, 57, 127
4, 91200, Note_on_c, 1, 60, 127
4, 91680, Note_off_c, 1, 60, 127
4, 91680, Note_on_c, 1, 60, 127
4, 91920, Note_off_c, 1, 60, 127
4, 91920, Note_on_c, 1, 60, 127
4, 92400, Note_off_c, 1, 60, 127
4, 92400, Note_on_c, 1, 60, 127
4, 92640, Note_off_c, 1, 60, 127
4, 92640, Note_on_c, 1, 60, 127
4, 92880, Note_off_c, 1, 60, 127
4, 92880, Note_on_c, 1, 60, 127
4, 93120, Note_off_c, 1, 60, 127
4, 93120, Note_on_c, 1, 59, 127
4, 93360, Note_off_c, 1, 59, 127
4, 93360, Note_on_c, 1, 59, 127
4, 93600, Note_off_c, 1, 59, 127
4, 93600, Note_on_c, 1, 59, 127
4, 93840, Note_off_c, 1, 59, 127
4, 93840, Note_on_c, 1, 59, 127
4, 94320, Note_off_c, 1, 59, 127
4, 94320, Note_on_c, 1, 59, 127
4, 94560, Note_off_c, 1, 59, 127
4, 94560, Note_on_c, 1, 59, 127
4, 94800, Note_off_c, 1, 59, 127
4, 94800, Note_on_c, 1, 59, 127
4, 95040, Note_off_c, 1, 59, 127
4, 95040, Note_on_c, 1, 57, 127
4, 95520, Note_off_c, 1, 57, 127
4, 95520, Note_on_c, 1, 57, 127
4, 95760, Note_off_c, 1, 57, 127
4, 95760, Note_on_c, 1, 57, 127
4, 96240, Note_off_c, 1, 57, 127
4, 96240, Note_on_c, 1, 57, 127
4, 96480, Note_off_c, 1, 57, 127
4, 96480, Note_on_c, 1, 57, 127
4, 96720, Note_off_c, 1, 57, 127
4, 96720, Note_on_c, 1, 57, 127
4, 96960, Note_off_c, 1, 57, 127
4, 96960, Note_on_c, 1, 55, 127
4, 97200, Note_off_c, 1, 55, 127
4, 97200, Note_on_c, 1, 57, 102
4, 97440, Note_off_c, 1, 57, 102
4, 97440, Note_on_c, 1, 55, 127
4, 97680, Note_off_c, 1, 55, 127
4, 97680, Note_on_c, 1, 54, 127
4, 98160, Note_off_c, 1, 54, 127
4, 98160, Note_on_c, 1, 54, 127
4, 98880, Note_off_c, 1, 54, 127
4, 98880, Note_on_c, 1, 60, 127
4, 99360, Note_off_c, 1, 60, 127
4, 99360, Note_on_c, 1, 60, 127
4, 99600, Note_off_c, 1, 60, 127
4, 99600, Note_on_c, 1, 60, 127
4, 100080, Note_off_c, 1, 60, 127
4, 100080, Note_on_c, 1, 60, 127
4, 100320, Note_off_c, 1, 60, 127
4, 100320, Note_on_c, 1, 60, 127
4, 100560, Note_off_c, 1, 60, 127
4, 100560, Note_on_c, 1, 60, 127
4, 100800, Note_off_c, 1, 60, 127
4, 100800, Note_on_c, 1, 59, 127
4, 101040, Note_off_c, 1, 59, 127
4, 101040, Note_on_c, 1, 59, 127
4, 101280, Note_off_c, 1, 59, 127
4, 101280, Note_on_c, 1, 59, 127
4, 101520, Note_off_c, 1, 59, 127
4, 101520, Note_on_c, 1, 59, 127
4, 102000, Note_off_c, 1, 59, 127
4, 102000, Note_on_c, 1, 59, 127
4, 102240, Note_off_c, 1, 59, 127
4, 102240, Note_on_c, 1, 59, 127
4, 102480, Note_off_c, 1, 59, 127
4, 102480, Note_on_c, 1, 59, 127
4, 102720, Note_off_c, 1, 59, 127
4, 102720, Note_on_c, 1, 57, 127
4, 103200, Note_off_c, 1, 57, 127
4, 103200, Note_on_c, 1, 57, 127
4, 103440, Note_off_c, 1, 57, 127
4, 103440, Note_on_c, 1, 57, 127
4, 103920, Note_off_c, 1, 57, 127
4, 103920, Note_on_c, 1, 57, 127
4, 104160, Note_off_c, 1, 57, 127
4, 104160, Note_on_c, 1, 57, 127
4, 104400, Note_off_c, 1, 57, 127
4, 104400, Note_on_c, 1, 57, 127
4, 104640, Note_off_c, 1, 57, 127
4, 104640, Note_on_c, 1, 55, 127
4, 104880, Note_off_c, 1, 55, 127
4, 104880, Note_on_c, 1, 57, 102
4, 105120, Note_off_c, 1, 57, 102
4, 105120, Note_on_c, 1, 55, 127
4, 105360, Note_off_c, 1, 55, 127
4, 105360, Note_on_c, 1, 54, 127
4, 105840, Note_off_c, 1, 54, 127
4, 105840, Note_on_c, 1, 54, 127
4, 106560, Note_off_c, 1, 54, 127
4, 106560, Note_on_c, 1, 50, 127
4, 106800, Note_off_c, 1, 50, 127
4, 106800, Note_on_c, 1, 52, 102
4, 107040, Note_off_c, 1, 52, 102
4, 107040, Note_on_c, 1, 52, 127
4, 107520, Note_off_c, 1, 52, 127
4, 107520, Note_on_c, 1, 52, 127
4, 107760, Note_off_c, 1, 52, 127
4, 107760, Note_on_c, 1, 52, 127
4, 108000, Note_off_c, 1, 52, 127
4, 108000, Note_on_c, 1, 52, 127
4, 108240, Note_off_c, 1, 52, 127
4, 108240, Note_on_c, 1, 52, 127
4, 108720, Note_off_c, 1, 52, 127
4, 108720, Note_on_c, 1, 52, 127
4, 108960, Note_off_c, 1, 52, 127
4, 108960, Note_on_c, 1, 52, 127
4, 109200, Note_off_c, 1, 52, 127
4, 109200, Note_on_c, 1, 52, 127
4, 109440, Note_off_c, 1, 52, 127
4, 109440, Note_on_c, 1, 52, 127
4, 109680, Note_off_c, 1, 52, 127
4, 109680, Note_on_c, 1, 52, 127
4, 109920, Note_off_c, 1, 52, 127
4, 109920, Note_on_c, 1, 52, 127
4, 110160, Note_off_c, 1, 52, 127
4, 110160, Note_on_c, 1, 52, 127
4, 110400, Note_off_c, 1, 52, 127
4, 110400, Note_on_c, 1, 50, 127
4, 110640, Note_off_c, 1, 50, 127
4, 110640, Note_on_c, 1, 52, 102
4, 110880, Note_off_c, 1, 52, 102
4, 110880, Note_on_c, 1, 52, 127
4, 111360, Note_off_c, 1, 52, 127
4, 111360, Note_on_c, 1, 52, 127
4, 111600, Note_off_c, 1, 52, 127
4, 111600, Note_on_c, 1, 52, 127
4, 111840, Note_off_c, 1, 52, 127
4, 111840, Note_on_c, 1, 52, 127
4, 112080, Note_off_c, 1, 52, 127
4, 112080, Note_on_c, 1, 52, 127
4, 112560, Note_off_c, 1, 52, 127
4, 112560, Note_on_c, 1, 52, 127
4, 112800, Note_off_c, 1, 52, 127
4, 112800, Note_on_c, 1, 52, 127
4, 113760, Note_off_c, 1, 52, 127
4, 114240, Note_on_c, 1, 62, 127
4, 114720, Note_off_c, 1, 62, 127
4, 114720, Note_on_c, 1, 62, 127
4, 114960, Note_off_c, 1, 62, 127
4, 114960, Note_on_c, 1, 61, 127
4, 115680, Note_off_c, 1, 61, 127
4, 115680, Note_on_c, 1, 59, 127
4, 115920, Note_off_c, 1, 59, 127
4, 115920, Note_on_c, 1, 57, 127
4, 116160, Note_off_c, 1, 57, 127
4, 118080, Note_on_c, 1, 62, 127
4, 118560, Note_off_c, 1, 62, 127
4, 118560, Note_on_c, 1, 62, 127
4, 118800, Note_off_c, 1, 62, 127
4, 118800, Note_on_c, 1, 61, 127
4, 119520, Note_off_c, 1, 61, 127
4, 119520, Note_on_c, 1, 59, 127
4, 119760, Note_off_c, 1, 59, 127
4, 119760, Note_on_c, 1, 57, 127
4, 120000, Note_off_c, 1, 57, 127
4, 121920, Note_on_c, 1, 62, 127
4, 122400, Note_off_c, 1, 62, 127
4, 122400, Note_on_c, 1, 62, 127
4, 122640, Note_off_c, 1, 62, 127
4, 122640, Note_on_c, 1, 61, 127
4, 123360, Note_off_c, 1, 61, 127
4, 123360, Note_on_c, 1, 59, 127
4, 123600, Note_off_c, 1, 59, 127
4, 123600, Note_on_c, 1, 57, 127
4, 123840, Note_off_c, 1, 57, 127
4, 127680, Note_on_c, 1, 45, 127
4, 127920, Note_off_c, 1, 45, 127
4, 127920, Note_on_c, 1, 47, 102
4, 128160, Note_off_c, 1, 47, 102
4, 128160, Note_on_c, 1, 50, 127
4, 128400, Note_off_c, 1, 50, 127
4, 128400, Note_on_c, 1, 45, 127
4, 128640, Note_off_c, 1, 45, 127
4, 128640, Note_on_c, 1, 47, 102
4, 128880, Note_on_c, 1, 40, 127
4, 131520, Note_off_c, 1, 47, 102
4, 131520, Note_off_c, 1, 40, 127
4, 131520, Note_on_c, 1, 45, 127
4, 131760, Note_off_c, 1, 45, 127
4, 131760, Note_on_c, 1, 47, 102
4, 132000, Note_off_c, 1, 47, 102
4, 132000, Note_on_c, 1, 50, 127
4, 132240, Note_off_c, 1, 50, 127
4, 132240, Note_on_c, 1, 45, 127
4, 132480, Note_off_c, 1, 45, 127
4, 132480, Note_on_c, 1, 47, 102
4, 132720, Note_on_c, 1, 40, 127
4, 135360, Note_off_c, 1, 47, 102
4, 135360, Note_off_c, 1, 40, 127
4, 135360, Note_on_c, 1, 45, 127
4, 135600, Note_off_c, 1, 45, 127
4, 135600, Note_on_c, 1, 47, 102
4, 135840, Note_off_c, 1, 47, 102
4, 135840, Note_on_c, 1, 50, 127
4, 136080, Note_off_c, 1, 50, 127
4, 136080, Note_on_c, 1, 45, 127
4, 136320, Note_off_c, 1, 45, 127
4, 136320, Note_on_c, 1, 47, 102
4, 136560, Note_on_c, 1, 40, 127
4, 143040, Note_off_c, 1, 47, 102
4, 143040, Note_off_c, 1, 40, 127
4, 143040, Note_on_c, 1, 40, 127
4, 143280, Note_off_c, 1, 40, 127
4, 143280, Note_on_c, 1, 40, 127
4, 143520, Note_off_c, 1, 40, 127
4, 143520, Note_on_c, 1, 43, 127
4, 143640, Pitch_bend_c, 1, 8448
4, 143760, Pitch_bend_c, 1, 8832
4, 143760, Pitch_bend_c, 1, 8192
4, 143760, Note_off_c, 1, 43, 127
4, 143760, Note_on_c, 1, 44, 127
4, 144000, Note_off_c, 1, 44, 127
4, 144000, Note_on_c, 1, 52, 127
4, 144240, Note_off_c, 1, 52, 127
4, 144240, Note_on_c, 1, 52, 127
4, 144480, Note_off_c, 1, 52, 127
4, 144480, Note_on_c, 1, 50, 102
4, 144720, Note_off_c, 1, 50, 102
4, 144720, Note_on_c, 1, 57, 127
4, 144960, Note_off_c, 1, 57, 127
4, 145200, Note_on_c, 1, 57, 127
4, 145440, Note_off_c, 1, 57, 127
4, 145680, Note_on_c, 1, 57, 127
4, 146160, Note_off_c, 1, 57, 127
4, 146160, Note_on_c, 1, 57, 127
4, 146400, Note_off_c, 1, 57, 127
4, 146400, Note_on_c, 1, 59, 127
4, 146880, Note_off_c, 1, 59, 127
4, 146880, Note_on_c, 1, 40, 127
4, 147120, Note_off_c, 1, 40, 127
4, 147120, Note_on_c, 1, 40, 127
4, 147360, Note_off_c, 1, 40, 127
4, 147360, Note_on_c, 1, 43, 127
4, 147480, Pitch_bend_c, 1, 8448
4, 147600, Pitch_bend_c, 1, 8832
4, 147600, Pitch_bend_c, 1, 8192
4, 147600, Note_off_c, 1, 43, 127
4, 147600, Note_on_c, 1, 44, 127
4, 147840, Note_off_c, 1, 44, 127
4, 147840, Note_on_c, 1, 52, 127
4, 148080, Note_off_c, 1, 52, 127
4, 148080, Note_on_c, 1, 52, 127
4, 148320, Note_off_c, 1, 52, 127
4, 148320, Note_on_c, 1, 50, 102
4, 148560, Note_off_c, 1, 50, 102
4, 148560, Note_on_c, 1, 57, 127
4, 148800, Note_off_c, 1, 57, 127
4, 149040, Note_on_c, 1, 54, 127
4, 149280, Note_off_c, 1, 54, 127
4, 149280, End_track
5, 0, Start_track
5, 0, Pitch_bend_c, 2, 8192
5, 0, Control_c, 2, 7, 127
5, 0, Control_c, 2, 10, 63
5, 0, Control_c, 2, 93, 0
5, 0, Control_c, 2, 91, 0
5, 0, Control_c, 2, 95, 0
5, 0, Control_c, 2, 92, 0
5, 0, Control_c, 2, 11, 127
5, 0, Program_c, 2, 27
5, 17040, Note_on_c, 2, 54, 127
5, 17280, Note_off_c, 2, 54, 127
5, 17520, Note_on_c, 2, 54, 127
5, 17760, Note_off_c, 2, 54, 127
5, 18000, Note_on_c, 2, 54, 127
5, 18240, Note_off_c, 2, 54, 127
5, 18480, Note_on_c, 2, 54, 127
5, 18720, Note_off_c, 2, 54, 127
5, 18720, Note_on_c, 2, 56, 127
5, 19200, Note_off_c, 2, 56, 127
5, 20880, Note_on_c, 2, 54, 127
5, 21120, Note_off_c, 2, 54, 127
5, 21360, Note_on_c, 2, 45, 127
5, 21600, Note_off_c, 2, 45, 127
5, 21840, Note_on_c, 2, 43, 127
5, 22560, Note_off_c, 2, 43, 127
5, 24720, Note_on_c, 2, 54, 127
5, 24960, Note_off_c, 2, 54, 127
5, 25200, Note_on_c, 2, 54, 127
5, 25440, Note_off_c, 2, 54, 127
5, 25680, Note_on_c, 2, 54, 127
5, 25920, Note_off_c, 2, 54, 127
5, 26160, Note_on_c, 2, 54, 127
5, 26400, Note_off_c, 2, 54, 127
5, 26400, Note_on_c, 2, 56, 127
5, 26880, Note_off_c, 2, 56, 127
5, 28560, Note_on_c, 2, 54, 127
5, 28800, Note_off_c, 2, 54, 127
5, 29040, Note_on_c, 2, 45, 127
5, 29280, Note_off_c, 2, 45, 127
5, 29520, Note_on_c, 2, 43, 127
5, 30240, Note_off_c, 2, 43, 127
5, 30720, Note_on_c, 2, 40, 127
5, 31200, Note_off_c, 2, 40, 127
5, 31200, Note_on_c, 2, 43, 127
5, 31440, Note_off_c, 2, 43, 127
5, 31440, Note_on_c, 2, 44, 127
5, 31680, Note_off_c, 2, 44, 127
5, 31680, Note_on_c, 2, 52, 127
5, 31920, Note_off_c, 2, 52, 127
5, 31920, Note_on_c, 2, 52, 127
5, 32160, Note_off_c, 2, 52, 127
5, 32160, Note_on_c, 2, 50, 127
5, 32400, Note_off_c, 2, 50, 127
5, 32400, Note_on_c, 2, 54, 127
5, 32640, Note_off_c, 2, 54, 127
5, 32880, Note_on_c, 2, 54, 127
5, 33120, Note_off_c, 2, 54, 127
5, 33360, Note_on_c, 2, 54, 127
5, 33600, Note_off_c, 2, 54, 127
5, 33840, Note_on_c, 2, 54, 127
5, 34080, Note_off_c, 2, 54, 127
5, 34080, Note_on_c, 2, 56, 127
5, 34560, Note_off_c, 2, 56, 127
5, 34560, Note_on_c, 2, 40, 127
5, 35040, Note_off_c, 2, 40, 127
5, 35040, Note_on_c, 2, 43, 127
5, 35280, Note_off_c, 2, 43, 127
5, 35280, Note_on_c, 2, 44, 127
5, 35520, Note_off_c, 2, 44, 127
5, 35520, Note_on_c, 2, 52, 127
5, 35760, Note_off_c, 2, 52, 127
5, 35760, Note_on_c, 2, 52, 127
5, 36000, Note_off_c, 2, 52, 127
5, 36000, Note_on_c, 2, 50, 127
5, 36240, Note_off_c, 2, 50, 127
5, 36240, Note_on_c, 2, 54, 127
5, 36480, Note_off_c, 2, 54, 127
5, 36720, Note_on_c, 2, 45, 127
5, 36960, Note_off_c, 2, 45, 127
5, 37200, Note_on_c, 2, 43, 127
5, 38400, Note_off_c, 2, 43, 127
5, 38400, Note_on_c, 2, 40, 127
5, 38880, Note_off_c, 2, 40, 127
5, 38880, Note_on_c, 2, 43, 127
5, 39120, Note_off_c, 2, 43, 127
5, 39120, Note_on_c, 2, 44, 127
5, 39360, Note_off_c, 2, 44, 127
5, 39360, Note_on_c, 2, 52, 127
5, 39600, Note_off_c, 2, 52, 127
5, 39600, Note_on_c, 2, 52, 127
5, 39840, Note_off_c, 2, 52, 127
5, 39840, Note_on_c, 2, 50, 127
5, 40080, Note_off_c, 2, 50, 127
5, 40080, Note_on_c, 2, 54, 127
5, 40320, Note_off_c, 2, 54, 127
5, 40560, Note_on_c, 2, 54, 127
5, 40800, Note_off_c, 2, 54, 127
5, 41040, Note_on_c, 2, 54, 127
5, 41280, Note_off_c, 2, 54, 127
5, 41520, Note_on_c, 2, 54, 127
5, 41760, Note_off_c, 2, 54, 127
5, 41760, Note_on_c, 2, 56, 127
5, 42240, Note_off_c, 2, 56, 127
5, 42240, Note_on_c, 2, 40, 127
5, 42720, Note_off_c, 2, 40, 127
5, 42720, Note_on_c, 2, 43, 127
5, 42960, Note_off_c, 2, 43, 127
5, 42960, Note_on_c, 2, 44, 127
5, 43200, Note_off_c, 2, 44, 127
5, 43200, Note_on_c, 2, 52, 127
5, 43440, Note_off_c, 2, 52, 127
5, 43440, Note_on_c, 2, 52, 127
5, 43680, Note_off_c, 2, 52, 127
5, 43680, Note_on_c, 2, 50, 127
5, 43920, Note_off_c, 2, 50, 127
5, 43920, Note_on_c, 2, 54, 127
5, 44160, Note_off_c, 2, 54, 127
5, 44400, Note_on_c, 2, 45, 127
5, 44640, Note_off_c, 2, 45, 127
5, 44880, Note_on_c, 2, 43, 127
5, 46080, Note_off_c, 2, 43, 127
5, 46080, Note_on_c, 2, 40, 127
5, 46560, Note_off_c, 2, 40, 127
5, 46560, Note_on_c, 2, 43, 127
5, 46800, Note_off_c, 2, 43, 127
5, 46800, Note_on_c, 2, 44, 127
5, 47040, Note_off_c, 2, 44, 127
5, 47040, Note_on_c, 2, 52, 127
5, 47280, Note_off_c, 2, 52, 127
5, 47280, Note_on_c, 2, 52, 127
5, 47520, Note_off_c, 2, 52, 127
5, 47520, Note_on_c, 2, 50, 127
5, 47760, Note_off_c, 2, 50, 127
5, 47760, Note_on_c, 2, 54, 127
5, 48000, Note_off_c, 2, 54, 127
5, 48240, Note_on_c, 2, 54, 127
5, 48480, Note_off_c, 2, 54, 127
5, 48720, Note_on_c, 2, 54, 127
5, 48960, Note_off_c, 2, 54, 127
5, 49200, Note_on_c, 2, 54, 127
5, 49440, Note_off_c, 2, 54, 127
5, 49440, Note_on_c, 2, 56, 127
5, 49920, Note_off_c, 2, 56, 127
5, 49920, Note_on_c, 2, 40, 127
5, 50400, Note_off_c, 2, 40, 127
5, 50400, Note_on_c, 2, 43, 127
5, 50640, Note_off_c, 2, 43, 127
5, 50640, Note_on_c, 2, 44, 127
5, 50880, Note_off_c, 2, 44, 127
5, 50880, Note_on_c, 2, 52, 127
5, 51120, Note_off_c, 2, 52, 127
5, 51120, Note_on_c, 2, 52, 127
5, 51360, Note_off_c, 2, 52, 127
5, 51360, Note_on_c, 2, 50, 127
5, 51600, Note_off_c, 2, 50, 127
5, 51600, Note_on_c, 2, 54, 127
5, 51840, Note_off_c, 2, 54, 127
5, 52080, Note_on_c, 2, 45, 127
5, 52320, Note_off_c, 2, 45, 127
5, 52560, Note_on_c, 2, 43, 127
5, 53760, Note_off_c, 2, 43, 127
5, 53760, Note_on_c, 2, 59, 127
5, 54240, Note_off_c, 2, 59, 127
5, 54240, Note_on_c, 2, 59, 127
5, 54480, Note_off_c, 2, 59, 127
5, 54480, Note_on_c, 2, 55, 127
5, 54960, Note_off_c, 2, 55, 127
5, 54960, Note_on_c, 2, 55, 127
5, 55200, Note_off_c, 2, 55, 127
5, 55200, Note_on_c, 2, 59, 127
5, 55680, Note_off_c, 2, 59, 127
5, 55680, Note_on_c, 2, 59, 127
5, 55920, Note_off_c, 2, 59, 127
5, 55920, Note_on_c, 2, 55, 127
5, 56400, Note_off_c, 2, 55, 127
5, 56400, Note_on_c, 2, 55, 127
5, 56640, Note_off_c, 2, 55, 127
5, 56640, Note_on_c, 2, 59, 127
5, 57120, Note_off_c, 2, 59, 127
5, 57120, Note_on_c, 2, 59, 127
5, 57360, Note_off_c, 2, 59, 127
5, 57360, Note_on_c, 2, 55, 127
5, 58080, Note_off_c, 2, 55, 127
5, 58080, Note_on_c, 2, 55, 127
5, 58560, Note_off_c, 2, 55, 127
5, 58560, Note_on_c, 2, 54, 127
5, 66240, Note_off_c, 2, 54, 127
5, 66240, Note_on_c, 2, 59, 127
5, 66720, Note_off_c, 2, 59, 127
5, 66720, Note_on_c, 2, 59, 127
5, 66960, Note_off_c, 2, 59, 127
5, 66960, Note_on_c, 2, 55, 127
5, 67440, Note_off_c, 2, 55, 127
5, 67440, Note_on_c, 2, 55, 127
5, 67680, Note_off_c, 2, 55, 127
5, 67680, Note_on_c, 2, 59, 127
5, 68160, Note_off_c, 2, 59, 127
5, 68160, Note_on_c, 2, 59, 127
5, 68400, Note_off_c, 2, 59, 127
5, 68400, Note_on_c, 2, 55, 127
5, 68880, Note_off_c, 2, 55, 127
5, 68880, Note_on_c, 2, 55, 127
5, 69120, Note_off_c, 2, 55, 127
5, 69120, Note_on_c, 2, 59, 127
5, 69600, Note_off_c, 2, 59, 127
5, 69600, Note_on_c, 2, 59, 127
5, 69840, Note_off_c, 2, 59, 127
5, 69840, Note_on_c, 2, 55, 127
5, 70560, Note_off_c, 2, 55, 127
5, 70560, Note_on_c, 2, 55, 127
5, 71040, Note_off_c, 2, 55, 127
5, 71040, Note_on_c, 2, 54, 127
5, 78720, Note_off_c, 2, 54, 127
5, 78720, Note_on_c, 2, 59, 127
5, 79200, Note_off_c, 2, 59, 127
5, 79200, Note_on_c, 2, 59, 127
5, 79440, Note_off_c, 2, 59, 127
5, 79440, Note_on_c, 2, 55, 127
5, 79920, Note_off_c, 2, 55, 127
5, 79920, Note_on_c, 2, 55, 127
5, 80160, Note_off_c, 2, 55, 127
5, 80160, Note_on_c, 2, 59, 127
5, 80640, Note_off_c, 2, 59, 127
5, 80640, Note_on_c, 2, 59, 127
5, 80880, Note_off_c, 2, 59, 127
5, 80880, Note_on_c, 2, 55, 127
5, 81360, Note_off_c, 2, 55, 127
5, 81360, Note_on_c, 2, 55, 127
5, 81600, Note_off_c, 2, 55, 127
5, 81600, Note_on_c, 2, 59, 127
5, 82080, Note_off_c, 2, 59, 127
5, 82080, Note_on_c, 2, 59, 127
5, 82320, Note_off_c, 2, 59, 127
5, 82320, Note_on_c, 2, 55, 127
5, 83040, Note_off_c, 2, 55, 127
5, 83040, Note_on_c, 2, 55, 127
5, 83520, Note_off_c, 2, 55, 127
5, 83520, Note_on_c, 2, 54, 127
5, 91200, Note_off_c, 2, 54, 127
5, 91200, Note_on_c, 2, 55, 127
5, 91680, Note_off_c, 2, 55, 127
5, 91680, Note_on_c, 2, 55, 127
5, 91920, Note_off_c, 2, 55, 127
5, 91920, Note_on_c, 2, 55, 127
5, 92400, Note_off_c, 2, 55, 127
5, 92400, Note_on_c, 2, 55, 127
5, 92640, Note_off_c, 2, 55, 127
5, 92640, Note_on_c, 2, 55, 127
5, 92880, Note_off_c, 2, 55, 127
5, 92880, Note_on_c, 2, 55, 127
5, 93120, Note_off_c, 2, 55, 127
5, 93120, Note_on_c, 2, 54, 127
5, 93360, Note_off_c, 2, 54, 127
5, 93360, Note_on_c, 2, 54, 127
5, 93600, Note_off_c, 2, 54, 127
5, 93600, Note_on_c, 2, 54, 127
5, 93840, Note_off_c, 2, 54, 127
5, 93840, Note_on_c, 2, 54, 127
5, 94320, Note_off_c, 2, 54, 127
5, 94320, Note_on_c, 2, 54, 127
5, 94560, Note_off_c, 2, 54, 127
5, 94560, Note_on_c, 2, 54, 127
5, 94800, Note_off_c, 2, 54, 127
5, 94800, Note_on_c, 2, 54, 127
5, 95040, Note_off_c, 2, 54, 127
5, 95040, Note_on_c, 2, 52, 127
5, 95520, Note_off_c, 2, 52, 127
5, 95520, Note_on_c, 2, 52, 127
5, 95760, Note_off_c, 2, 52, 127
5, 95760, Note_on_c, 2, 52, 127
5, 96240, Note_off_c, 2, 52, 127
5, 96240, Note_on_c, 2, 52, 127
5, 96480, Note_off_c, 2, 52, 127
5, 96480, Note_on_c, 2, 52, 127
5, 96720, Note_off_c, 2, 52, 127
5, 96720, Note_on_c, 2, 52, 127
5, 96960, Note_off_c, 2, 52, 127
5, 96960, Note_on_c, 2, 52, 127
5, 97200, Note_off_c, 2, 52, 127
5, 97200, Note_on_c, 2, 54, 102
5, 97440, Note_off_c, 2, 54, 102
5, 97440, Note_on_c, 2, 52, 127
5, 97680, Note_off_c, 2, 52, 127
5, 97680, Note_on_c, 2, 50, 127
5, 98880, Note_off_c, 2, 50, 127
5, 98880, Note_on_c, 2, 55, 127
5, 99360, Note_off_c, 2, 55, 127
5, 99360, Note_on_c, 2, 55, 127
5, 99600, Note_off_c, 2, 55, 127
5, 99600, Note_on_c, 2, 55, 127
5, 100080, Note_off_c, 2, 55, 127
5, 100080, Note_on_c, 2, 55, 127
5, 100320, Note_off_c, 2, 55, 127
5, 100320, Note_on_c, 2, 55, 127
5, 100560, Note_off_c, 2, 55, 127
5, 100560, Note_on_c, 2, 55, 127
5, 100800, Note_off_c, 2, 55, 127
5, 100800, Note_on_c, 2, 54, 127
5, 101040, Note_off_c, 2, 54, 127
5, 101040, Note_on_c, 2, 54, 127
5, 101280, Note_off_c, 2, 54, 127
5, 101280, Note_on_c, 2, 54, 127
5, 101520, Note_off_c, 2, 54, 127
5, 101520, Note_on_c, 2, 54, 127
5, 102000, Note_off_c, 2, 54, 127
5, 102000, Note_on_c, 2, 54, 127
5, 102240, Note_off_c, 2, 54, 127
5, 102240, Note_on_c, 2, 54, 127
5, 102480, Note_off_c, 2, 54, 127
5, 102480, Note_on_c, 2, 54, 127
5, 102720, Note_off_c, 2, 54, 127
5, 102720, Note_on_c, 2, 52, 127
5, 103200, Note_off_c, 2, 52, 127
5, 103200, Note_on_c, 2, 52, 127
5, 103440, Note_off_c, 2, 52, 127
5, 103440, Note_on_c, 2, 52, 127
5, 103920, Note_off_c, 2, 52, 127
5, 103920, Note_on_c, 2, 52, 127
5, 104160, Note_off_c, 2, 52, 127
5, 104160, Note_on_c, 2, 52, 127
5, 104400, Note_off_c, 2, 52, 127
5, 104400, Note_on_c, 2, 52, 127
5, 104640, Note_off_c, 2, 52, 127
5, 104640, Note_on_c, 2, 52, 127
5, 104880, Note_off_c, 2, 52, 127
5, 104880, Note_on_c, 2, 54, 102
5, 105120, Note_off_c, 2, 54, 102
5, 105120, Note_on_c, 2, 52, 127
5, 105360, Note_off_c, 2, 52, 127
5, 105360, Note_on_c, 2, 50, 127
5, 106560, Note_off_c, 2, 50, 127
5, 106560, Note_on_c, 2, 50, 127
5, 106800, Note_off_c, 2, 50, 127
5, 106800, Note_on_c, 2, 52, 102
5, 107040, Note_off_c, 2, 52, 102
5, 107040, Note_on_c, 2, 52, 127
5, 107520, Note_off_c, 2, 52, 127
5, 107520, Note_on_c, 2, 52, 127
5, 107760, Note_off_c, 2, 52, 127
5, 107760, Note_on_c, 2, 52, 127
5, 108000, Note_off_c, 2, 52, 127
5, 108000, Note_on_c, 2, 52, 127
5, 108240, Note_off_c, 2, 52, 127
5, 108240, Note_on_c, 2, 52, 127
5, 108720, Note_off_c, 2, 52, 127
5, 108720, Note_on_c, 2, 52, 127
5, 108960, Note_off_c, 2, 52, 127
5, 108960, Note_on_c, 2, 52, 127
5, 109200, Note_off_c, 2, 52, 127
5, 109200, Note_on_c, 2, 52, 127
5, 109440, Note_off_c, 2, 52, 127
5, 109440, Note_on_c, 2, 52, 127
5, 109680, Note_off_c, 2, 52, 127
5, 109680, Note_on_c, 2, 52, 127
5, 109920, Note_off_c, 2, 52, 127
5, 109920, Note_on_c, 2, 52, 127
5, 110160, Note_off_c, 2, 52, 127
5, 110160, Note_on_c, 2, 52, 127
5, 110400, Note_off_c, 2, 52, 127
5, 110400, Note_on_c, 2, 50, 127
5, 110640, Note_off_c, 2, 50, 127
5, 110640, Note_on_c, 2, 52, 102
5, 110880, Note_off_c, 2, 52, 102
5, 110880, Note_on_c, 2, 52, 127
5, 111360, Note_off_c, 2, 52, 127
5, 111360, Note_on_c, 2, 52, 127
5, 111600, Note_off_c, 2, 52, 127
5, 111600, Note_on_c, 2, 52, 127
5, 111840, Note_off_c, 2, 52, 127
5, 111840, Note_on_c, 2, 52, 127
5, 112080, Note_off_c, 2, 52, 127
5, 112080, Note_on_c, 2, 52, 127
5, 112560, Note_off_c, 2, 52, 127
5, 112560, Note_on_c, 2, 52, 127
5, 112800, Note_off_c, 2, 52, 127
5, 112800, Note_on_c, 2, 52, 127
5, 113760, Note_off_c, 2, 52, 127
5, 114240, Note_on_c, 2, 59, 127
5, 114720, Note_off_c, 2, 59, 127
5, 114720, Note_on_c, 2, 59, 127
5, 114960, Note_off_c, 2, 59, 127
5, 114960, Note_on_c, 2, 57, 127
5, 115680, Note_off_c, 2, 57, 127
5, 115680, Note_on_c, 2, 55, 127
5, 115920, Note_off_c, 2, 55, 127
5, 115920, Note_on_c, 2, 54, 127
5, 116160, Note_off_c, 2, 54, 127
5, 118080, Note_on_c, 2, 59, 127
5, 118560, Note_off_c, 2, 59, 127
5, 118560, Note_on_c, 2, 59, 127
5, 118800, Note_off_c, 2, 59, 127
5, 118800, Note_on_c, 2, 57, 127
5, 119520, Note_off_c, 2, 57, 127
5, 119520, Note_on_c, 2, 55, 127
5, 119760, Note_off_c, 2, 55, 127
5, 119760, Note_on_c, 2, 54, 127
5, 120000, Note_off_c, 2, 54, 127
5, 121920, Note_on_c, 2, 59, 127
5, 122400, Note_off_c, 2, 59, 127
5, 122400, Note_on_c, 2, 59, 127
5, 122640, Note_off_c, 2, 59, 127
5, 122640, Note_on_c, 2, 57, 127
5, 123360, Note_off_c, 2, 57, 127
5, 123360, Note_on_c, 2, 55, 127
5, 123600, Note_off_c, 2, 55, 127
5, 123600, Note_on_c, 2, 54, 127
5, 123840, Note_off_c, 2, 54, 127
5, 127680, Note_on_c, 2, 45, 127
5, 127920, Note_off_c, 2, 45, 127
5, 127920, Note_on_c, 2, 47, 102
5, 128160, Note_off_c, 2, 47, 102
5, 128160, Note_on_c, 2, 50, 127
5, 128400, Note_off_c, 2, 50, 127
5, 128400, Note_on_c, 2, 45, 127
5, 128640, Note_off_c, 2, 45, 127
5, 128640, Note_on_c, 2, 47, 102
5, 128880, Note_on_c, 2, 40, 127
5, 131520, Note_off_c, 2, 47, 102
5, 131520, Note_off_c, 2, 40, 127
5, 131520, Note_on_c, 2, 45, 127
5, 131760, Note_off_c, 2, 45, 127
5, 131760, Note_on_c, 2, 47, 102
5, 132000, Note_off_c, 2, 47, 102
5, 132000, Note_on_c, 2, 50, 127
5, 132240, Note_off_c, 2, 50, 127
5, 132240, Note_on_c, 2, 45, 127
5, 132480, Note_off_c, 2, 45, 127
5, 132480, Note_on_c, 2, 47, 102
5, 132720, Note_on_c, 2, 40, 127
5, 135360, Note_off_c, 2, 47, 102
5, 135360, Note_off_c, 2, 40, 127
5, 135360, Note_on_c, 2, 45, 127
5, 135600, Note_off_c, 2, 45, 127
5, 135600, Note_on_c, 2, 47, 102
5, 135840, Note_off_c, 2, 47, 102
5, 135840, Note_on_c, 2, 50, 127
5, 136080, Note_off_c, 2, 50, 127
5, 136080, Note_on_c, 2, 45, 127
5, 136320, Note_off_c, 2, 45, 127
5, 136320, Note_on_c, 2, 47, 102
5, 136560, Note_on_c, 2, 40, 127
5, 143040, Note_off_c, 2, 47, 102
5, 143040, Note_off_c, 2, 40, 127
5, 143040, Note_on_c, 2, 40, 127
5, 143280, Note_off_c, 2, 40, 127
5, 143280, Note_on_c, 2, 40, 127
5, 143520, Note_off_c, 2, 40, 127
5, 143520, Note_on_c, 2, 43, 127
5, 143640, Pitch_bend_c, 2, 8448
5, 143760, Pitch_bend_c, 2, 8832
5, 143760, Pitch_bend_c, 2, 8192
5, 143760, Note_off_c, 2, 43, 127
5, 143760, Note_on_c, 2, 44, 127
5, 144000, Note_off_c, 2, 44, 127
5, 144000, Note_on_c, 2, 52, 127
5, 144240, Note_off_c, 2, 52, 127
5, 144240, Note_on_c, 2, 52, 127
5, 144480, Note_off_c, 2, 52, 127
5, 144480, Note_on_c, 2, 50, 102
5, 144720, Note_off_c, 2, 50, 102
5, 144720, Note_on_c, 2, 54, 127
5, 144960, Note_off_c, 2, 54, 127
5, 145200, Note_on_c, 2, 54, 127
5, 145440, Note_off_c, 2, 54, 127
5, 145680, Note_on_c, 2, 54, 127
5, 146160, Note_off_c, 2, 54, 127
5, 146160, Note_on_c, 2, 54, 127
5, 146400, Note_off_c, 2, 54, 127
5, 146400, Note_on_c, 2, 56, 127
5, 146880, Note_off_c, 2, 56, 127
5, 146880, Note_on_c, 2, 40, 127
5, 147120, Note_off_c, 2, 40, 127
5, 147120, Note_on_c, 2, 40, 127
5, 147360, Note_off_c, 2, 40, 127
5, 147360, Note_on_c, 2, 43, 127
5, 147480, Pitch_bend_c, 2, 8448
5, 147600, Pitch_bend_c, 2, 8832
5, 147600, Pitch_bend_c, 2, 8192
5, 147600, Note_off_c, 2, 43, 127
5, 147600, Note_on_c, 2, 44, 127
5, 147840, Note_off_c, 2, 44, 127
5, 147840, Note_on_c, 2, 52, 127
5, 148080, Note_off_c, 2, 52, 127
5, 148080, Note_on_c, 2, 52, 127
5, 148320, Note_off_c, 2, 52, 127
5, 148320, Note_on_c, 2, 50, 102
5, 148560, Note_off_c, 2, 50, 102
5, 148560, Note_on_c, 2, 54, 127
5, 148800, Note_off_c, 2, 54, 127
5, 149040, Note_on_c, 2, 50, 127
5, 149280, Note_off_c, 2, 50, 127
5, 149520, Note_on_c, 2, 66, 127
5, 149520, Note_on_c, 2, 55, 95
5, 149520, Note_on_c, 2, 57, 127
5, 149590, Note_off_c, 2, 55, 95
5, 149640, Pitch_bend_c, 2, 7552
5, 149640, Pitch_bend_c, 2, 7552
5, 149760, Pitch_bend_c, 2, 6784
5, 149760, Pitch_bend_c, 2, 8192
5, 149760, Note_off_c, 2, 66, 127
5, 149760, Pitch_bend_c, 2, 6784
5, 149760, Pitch_bend_c, 2, 8192
5, 149760, Note_off_c, 2, 57, 127
5, 149760, Note_on_c, 2, 64, 127
5, 149760, Note_on_c, 2, 55, 127
5, 150240, Note_off_c, 2, 64, 127
5, 150240, Note_off_c, 2, 55, 127
5, 150240, End_track
6, 0, Start_track
6, 0, Pitch_bend_c, 3, 8192
6, 0, Control_c, 3, 7, 103
6, 0, Control_c, 3, 10, 63
6, 0, Control_c, 3, 93, 0
6, 0, Control_c, 3, 91, 0
6, 0, Control_c, 3, 95, 0
6, 0, Control_c, 3, 92, 0
6, 0, Control_c, 3, 11, 127
6, 0, Program_c, 3, 1
6, 0, Control_c, 4, 7, 103
6, 0, Control_c, 4, 10, 63
6, 0, Control_c, 4, 93, 0
6, 0, Control_c, 4, 91, 0
6, 0, Control_c, 4, 95, 0
6, 0, Control_c, 4, 92, 0
6, 0, Control_c, 4, 11, 127
6, 0, Program_c, 4, 1
6, 152640, Note_on_c, 3, 64, 127
6, 152640, Note_on_c, 3, 59, 127
6, 152640, Note_on_c, 3, 56, 127
6, 152640, Note_on_c, 3, 52, 127
6, 153600, Note_off_c, 3, 64, 127
6, 153600, Note_off_c, 3, 59, 127
6, 153600, Note_off_c, 3, 56, 127
6, 153600, Note_off_c, 3, 52, 127
6, 153600, Note_on_c, 3, 64, 127
6, 153600, Note_on_c, 3, 59, 127
6, 153600, Note_on_c, 3, 56, 127
6, 153600, Note_on_c, 3, 52, 127
6, 154560, Note_off_c, 3, 64, 127
6, 154560, Note_off_c, 3, 59, 127
6, 154560, Note_off_c, 3, 56, 127
6, 154560, Note_off_c, 3, 52, 127
6, 154560, Note_on_c, 3, 64, 127
6, 154560, Note_on_c, 3, 59, 127
6, 154560, Note_on_c, 3, 57, 127
6, 154560, Note_on_c, 3, 54, 127
6, 155520, Note_off_c, 3, 64, 127
6, 155520, Note_off_c, 3, 59, 127
6, 155520, Note_off_c, 3, 57, 127
6, 155520, Note_off_c, 3, 54, 127
6, 155520, Note_on_c, 3, 64, 127
6, 155520, Note_on_c, 3, 59, 127
6, 155520, Note_on_c, 3, 56, 127
6, 156480, Note_off_c, 3, 64, 127
6, 156480, Note_off_c, 3, 59, 127
6, 156480, Note_off_c, 3, 56, 127
6, 156480, Note_on_c, 3, 64, 127
6, 156480, Note_on_c, 3, 59, 127
6, 156480, Note_on_c, 3, 56, 127
6, 157440, Note_off_c, 3, 64, 127
6, 157440, Note_off_c, 3, 59, 127
6, 157440, Note_off_c, 3, 56, 127
6, 157440, Note_on_c, 3, 66, 127
6, 157440, Note_on_c, 3, 61, 127
6, 157440, Note_on_c, 3, 57, 127
6, 158400, Note_off_c, 3, 66, 127
6, 158400, Note_off_c, 3, 61, 127
6, 158400, Note_off_c, 3, 57, 127
6, 158400, Note_on_c, 3, 64, 127
6, 158400, Note_on_c, 3, 59, 127
6, 158400, Note_on_c, 3, 56, 127
6, 159360, Note_off_c, 3, 64, 127
6, 159360, Note_off_c, 3, 59, 127
6, 159360, Note_off_c, 3, 56, 127
6, 159360, Note_on_c, 3, 66, 127
6, 159360, Note_on_c, 3, 61, 127
6, 159360, Note_on_c, 3, 57, 127
6, 159360, Note_on_c, 3, 54, 127
6, 160800, Note_off_c, 3, 66, 127
6, 160800, Note_off_c, 3, 61, 127
6, 160800, Note_off_c, 3, 57, 127
6, 160800, Note_off_c, 3, 54, 127
6, 160800, Note_on_c, 3, 66, 127
6, 160800, Note_on_c, 3, 61, 127
6, 160800, Note_on_c, 3, 57, 127
6, 160800, Note_on_c, 3, 54, 127
6, 161280, Note_off_c, 3, 66, 127
6, 161280, Note_off_c, 3, 61, 127
6, 161280, Note_off_c, 3, 57, 127
6, 161280, Note_off_c, 3, 54, 127
6, 161280, Note_on_c, 3, 66, 127
6, 161280, Note_on_c, 3, 61, 127
6, 161280, Note_on_c, 3, 57, 127
6, 161280, Note_on_c, 3, 54, 127
6, 163200, Note_off_c, 3, 66, 127
6, 163200, Note_off_c, 3, 61, 127
6, 163200, Note_off_c, 3, 57, 127
6, 163200, Note_off_c, 3, 54, 127
6, 163200, Note_on_c, 3, 71, 127
6, 163200, Note_on_c, 3, 68, 127
6, 163200, Note_on_c, 3, 63, 127
6, 164640, Note_off_c, 3, 71, 127
6, 164640, Note_off_c, 3, 68, 127
6, 164640, Note_off_c, 3, 63, 127
6, 164640, Note_on_c, 3, 69, 127
6, 164640, Note_on_c, 3, 66, 127
6, 164640, Note_on_c, 3, 61, 127
6, 165120, Note_off_c, 3, 69, 127
6, 165120, Note_off_c, 3, 66, 127
6, 165120, Note_off_c, 3, 61, 127
6, 165120, Note_on_c, 3, 69, 127
6, 165120, Note_on_c, 3, 66, 127
6, 165120, Note_on_c, 3, 61, 127
6, 174720, Note_off_c, 3, 69, 127
6, 174720, Note_off_c, 3, 66, 127
6, 174720, Note_off_c, 3, 61, 127
6, 201600, Note_on_c, 3, 54, 127
6, 202080, Note_off_c, 3, 54, 127
6, 202080, Note_on_c, 3, 61, 127
6, 202080, Note_on_c, 3, 57, 127
6, 202320, Note_off_c, 3, 61, 127
6, 202320, Note_off_c, 3, 57, 127
6, 202320, Note_on_c, 3, 53, 127
6, 202800, Note_off_c, 3, 53, 127
6, 202800, Note_on_c, 3, 61, 127
6, 202800, Note_on_c, 3, 57, 127
6, 203040, Note_off_c, 3, 61, 127
6, 203040, Note_off_c, 3, 57, 127
6, 203280, Note_on_c, 3, 52, 127
6, 203520, Note_off_c, 3, 52, 127
6, 203760, Note_on_c, 3, 61, 127
6, 203760, Note_on_c, 3, 57, 127
6, 204000, Note_off_c, 3, 61, 127
6, 204000, Note_off_c, 3, 57, 127
6, 204240, Note_on_c, 3, 51, 127
6, 204480, Note_off_c, 3, 51, 127
6, 204480, Note_on_c, 3, 51, 127
6, 204960, Note_off_c, 3, 51, 127
6, 204960, Note_on_c, 3, 61, 127
6, 204960, Note_on_c, 3, 57, 127
6, 205440, Note_off_c, 3, 61, 127
6, 205440, Note_off_c, 3, 57, 127
6, 205440, Note_on_c, 3, 54, 127
6, 205920, Note_off_c, 3, 54, 127
6, 205920, Note_on_c, 3, 61, 127
6, 205920, Note_on_c, 3, 57, 127
6, 206160, Note_off_c, 3, 61, 127
6, 206160, Note_off_c, 3, 57, 127
6, 206160, Note_on_c, 3, 53, 127
6, 206640, Note_off_c, 3, 53, 127
6, 206640, Note_on_c, 3, 61, 127
6, 206640, Note_on_c, 3, 57, 127
6, 206880, Note_off_c, 3, 61, 127
6, 206880, Note_off_c, 3, 57, 127
6, 207120, Note_on_c, 3, 52, 127
6, 207360, Note_off_c, 3, 52, 127
6, 207600, Note_on_c, 3, 61, 127
6, 207600, Note_on_c, 3, 57, 127
6, 207840, Note_off_c, 3, 61, 127
6, 207840, Note_off_c, 3, 57, 127
6, 208080, Note_on_c, 3, 51, 127
6, 208320, Note_off_c, 3, 51, 127
6, 208320, Note_on_c, 3, 51, 127
6, 208800, Note_off_c, 3, 51, 127
6, 208800, Note_on_c, 3, 61, 127
6, 208800, Note_on_c, 3, 57, 127
6, 209280, Note_off_c, 3, 61, 127
6, 209280, Note_off_c, 3, 57, 127
6, 209280, Note_on_c, 3, 54, 127
6, 209760, Note_off_c, 3, 54, 127
6, 209760, Note_on_c, 3, 61, 127
6, 209760, Note_on_c, 3, 57, 127
6, 210000, Note_off_c, 3, 61, 127
6, 210000, Note_off_c, 3, 57, 127
6, 210000, Note_on_c, 3, 53, 127
6, 210480, Note_off_c, 3, 53, 127
6, 210480, Note_on_c, 3, 61, 127
6, 210480, Note_on_c, 3, 57, 127
6, 210720, Note_off_c, 3, 61, 127
6, 210720, Note_off_c, 3, 57, 127
6, 210960, Note_on_c, 3, 52, 127
6, 211200, Note_off_c, 3, 52, 127
6, 211440, Note_on_c, 3, 61, 127
6, 211440, Note_on_c, 3, 57, 127
6, 211680, Note_off_c, 3, 61, 127
6, 211680, Note_off_c, 3, 57, 127
6, 211920, Note_on_c, 3, 51, 127
6, 212160, Note_off_c, 3, 51, 127
6, 212160, Note_on_c, 3, 51, 127
6, 212640, Note_off_c, 3, 51, 127
6, 212640, Note_on_c, 3, 61, 127
6, 212640, Note_on_c, 3, 57, 127
6, 213120, Note_off_c, 3, 61, 127
6, 213120, Note_off_c, 3, 57, 127
6, 213120, Note_on_c, 3, 54, 127
6, 213600, Note_off_c, 3, 54, 127
6, 213600, Note_on_c, 3, 61, 127
6, 213600, Note_on_c, 3, 57, 127
6, 213840, Note_off_c, 3, 61, 127
6, 213840, Note_off_c, 3, 57, 127
6, 213840, Note_on_c, 3, 53, 127
6, 214320, Note_off_c, 3, 53, 127
6, 214320, Note_on_c, 3, 61, 127
6, 214320, Note_on_c, 3, 57, 127
6, 214560, Note_off_c, 3, 61, 127
6, 214560, Note_off_c, 3, 57, 127
6, 214800, Note_on_c, 3, 52, 127
6, 215040, Note_off_c, 3, 52, 127
6, 215280, Note_on_c, 3, 61, 127
6, 215280, Note_on_c, 3, 57, 127
6, 215520, Note_off_c, 3, 61, 127
6, 215520, Note_off_c, 3, 57, 127
6, 215760, Note_on_c, 3, 51, 127
6, 216000, Note_off_c, 3, 51, 127
6, 216000, Note_on_c, 3, 51, 127
6, 216480, Note_off_c, 3, 51, 127
6, 216480, Note_on_c, 3, 61, 127
6, 216480, Note_on_c, 3, 57, 127
6, 216960, Note_off_c, 3, 61, 127
6, 216960, Note_off_c, 3, 57, 127
6, 216960, Note_on_c, 3, 64, 127
6, 216960, Note_on_c, 3, 61, 127
6, 216960, Note_on_c, 3, 56, 127
6, 216960, Note_on_c, 3, 45, 95
6, 216960, Note_on_c, 3, 45, 127
6, 217030, Note_off_c, 3, 45, 95
6, 217440, Note_off_c, 3, 64, 127
6, 217440, Note_off_c, 3, 61, 127
6, 217440, Note_off_c, 3, 56, 127
6, 217440, Note_off_c, 3, 45, 127
6, 217680, Note_on_c, 3, 64, 127
6, 217680, Note_on_c, 3, 61, 127
6, 217680, Note_on_c, 3, 56, 127
6, 217680, Note_on_c, 3, 45, 95
6, 217680, Note_on_c, 3, 45, 127
6, 217750, Note_off_c, 3, 45, 95
6, 217920, Note_off_c, 3, 64, 127
6, 217920, Note_off_c, 3, 61, 127
6, 217920, Note_off_c, 3, 56, 127
6, 217920, Note_off_c, 3, 45, 127
6, 218400, Note_on_c, 3, 63, 127
6, 218400, Note_on_c, 3, 59, 127
6, 218400, Note_on_c, 3, 54, 127
6, 218400, Note_on_c, 3, 45, 95
6, 218400, Note_on_c, 3, 44, 127
6, 218470, Note_off_c, 3, 45, 95
6, 219840, Note_off_c, 3, 63, 127
6, 219840, Note_off_c, 3, 59, 127
6, 219840, Note_off_c, 3, 54, 127
6, 219840, Note_off_c, 3, 44, 127
6, 220800, Note_on_c, 3, 64, 127
6, 220800, Note_on_c, 3, 61, 127
6, 220800, Note_on_c, 3, 56, 127
6, 220800, Note_on_c, 3, 45, 95
6, 220800, Note_on_c, 3, 45, 127
6, 220870, Note_off_c, 3, 45, 95
6, 221280, Note_off_c, 3, 64, 127
6, 221280, Note_off_c, 3, 61, 127
6, 221280, Note_off_c, 3, 56, 127
6, 221280, Note_off_c, 3, 45, 127
6, 221520, Note_on_c, 3, 64, 127
6, 221520, Note_on_c, 3, 61, 127
6, 221520, Note_on_c, 3, 56, 127
6, 221520, Note_on_c, 3, 45, 95
6, 221520, Note_on_c, 3, 45, 127
6, 221590, Note_off_c, 3, 45, 95
6, 221760, Note_off_c, 3, 64, 127
6, 221760, Note_off_c, 3, 61, 127
6, 221760, Note_off_c, 3, 56, 127
6, 221760, Note_off_c, 3, 45, 127
6, 222240, Note_on_c, 3, 63, 127
6, 222240, Note_on_c, 3, 59, 127
6, 222240, Note_on_c, 3, 54, 127
6, 222240, Note_on_c, 3, 45, 95
6, 222240, Note_on_c, 3, 44, 127
6, 222310, Note_off_c, 3, 45, 95
6, 223680, Note_off_c, 3, 63, 127
6, 223680, Note_off_c, 3, 59, 127
6, 223680, Note_off_c, 3, 54, 127
6, 223680, Note_off_c, 3, 44, 127
6, 224640, Note_on_c, 3, 64, 127
6, 224640, Note_on_c, 3, 61, 127
6, 224640, Note_on_c, 3, 56, 127
6, 224640, Note_on_c, 3, 45, 95
6, 224640, Note_on_c, 3, 45, 127
6, 224710, Note_off_c, 3, 45, 95
6, 225120, Note_off_c, 3, 64, 127
6, 225120, Note_off_c, 3, 61, 127
6, 225120, Note_off_c, 3, 56, 127
6, 225120, Note_off_c, 3, 45, 127
6, 225360, Note_on_c, 3, 64, 127
6, 225360, Note_on_c, 3, 61, 127
6, 225360, Note_on_c, 3, 56, 127
6, 225360, Note_on_c, 3, 45, 95
6, 225360, Note_on_c, 3, 45, 127
6, 225430, Note_off_c, 3, 45, 95
6, 225600, Note_off_c, 3, 64, 127
6, 225600, Note_off_c, 3, 61, 127
6, 225600, Note_off_c, 3, 56, 127
6, 225600, Note_off_c, 3, 45, 127
6, 226080, Note_on_c, 3, 63, 127
6, 226080, Note_on_c, 3, 59, 127
6, 226080, Note_on_c, 3, 54, 127
6, 226080, Note_on_c, 3, 45, 95
6, 226080, Note_on_c, 3, 44, 127
6, 226150, Note_off_c, 3, 45, 95
6, 227520, Note_off_c, 3, 63, 127
6, 227520, Note_off_c, 3, 59, 127
6, 227520, Note_off_c, 3, 54, 127
6, 227520, Note_off_c, 3, 44, 127
6, 228480, Note_on_c, 3, 64, 127
6, 228480, Note_on_c, 3, 61, 127
6, 228480, Note_on_c, 3, 56, 127
6, 228480, Note_on_c, 3, 45, 95
6, 228480, Note_on_c, 3, 45, 127
6, 228550, Note_off_c, 3, 45, 95
6, 228960, Note_off_c, 3, 64, 127
6, 228960, Note_off_c, 3, 61, 127
6, 228960, Note_off_c, 3, 56, 127
6, 228960, Note_off_c, 3, 45, 127
6, 229200, Note_on_c, 3, 64, 127
6, 229200, Note_on_c, 3, 61, 127
6, 229200, Note_on_c, 3, 56, 127
6, 229200, Note_on_c, 3, 45, 95
6, 229200, Note_on_c, 3, 45, 127
6, 229270, Note_off_c, 3, 45, 95
6, 229440, Note_off_c, 3, 64, 127
6, 229440, Note_off_c, 3, 61, 127
6, 229440, Note_off_c, 3, 56, 127
6, 229440, Note_off_c, 3, 45, 127
6, 229920, Note_on_c, 3, 63, 127
6, 229920, Note_on_c, 3, 59, 127
6, 229920, Note_on_c, 3, 54, 127
6, 229920, Note_on_c, 3, 45, 95
6, 229920, Note_on_c, 3, 44, 127
6, 229990, Note_off_c, 3, 45, 95
6, 231360, Note_off_c, 3, 63, 127
6, 231360, Note_off_c, 3, 59, 127
6, 231360, Note_off_c, 3, 54, 127
6, 231360, Note_off_c, 3, 44, 127
6, 232320, Note_on_c, 3, 64, 127
6, 232320, Note_on_c, 3, 61, 127
6, 232320, Note_on_c, 3, 56, 127
6, 232320, Note_on_c, 3, 45, 95
6, 232320, Note_on_c, 3, 45, 127
6, 232390, Note_off_c, 3, 45, 95
6, 232800, Note_off_c, 3, 64, 127
6, 232800, Note_off_c, 3, 61, 127
6, 232800, Note_off_c, 3, 56, 127
6, 232800, Note_off_c, 3, 45, 127
6, 233040, Note_on_c, 3, 64, 127
6, 233040, Note_on_c, 3, 61, 127
6, 233040, Note_on_c, 3, 56, 127
6, 233040, Note_on_c, 3, 45, 95
6, 233040, Note_on_c, 3, 45, 127
6, 233110, Note_off_c, 3, 45, 95
6, 233280, Note_off_c, 3, 64, 127
6, 233280, Note_off_c, 3, 61, 127
6, 233280, Note_off_c, 3, 56, 127
6, 233280, Note_off_c, 3, 45, 127
6, 233760, Note_on_c, 3, 63, 127
6, 233760, Note_on_c, 3, 59, 127
6, 233760, Note_on_c, 3, 54, 127
6, 233760, Note_on_c, 3, 45, 95
6, 233760, Note_on_c, 3, 44, 127
6, 233830, Note_off_c, 3, 45, 95
6, 235200, Note_off_c, 3, 63, 127
6, 235200, Note_off_c, 3, 59, 127
6, 235200, Note_off_c, 3, 54, 127
6, 235200, Note_off_c, 3, 44, 127
6, 236160, Note_on_c, 3, 64, 127
6, 236160, Note_on_c, 3, 61, 127
6, 236160, Note_on_c, 3, 56, 127
6, 236160, Note_on_c, 3, 45, 95
6, 236160, Note_on_c, 3, 45, 127
6, 236230, Note_off_c, 3, 45, 95
6, 236640, Note_off_c, 3, 64, 127
6, 236640, Note_off_c, 3, 61, 127
6, 236640, Note_off_c, 3, 56, 127
6, 236640, Note_off_c, 3, 45, 127
6, 236880, Note_on_c, 3, 64, 127
6, 236880, Note_on_c, 3, 61, 127
6, 236880, Note_on_c, 3, 56, 127
6, 236880, Note_on_c, 3, 45, 95
6, 236880, Note_on_c, 3, 45, 127
6, 236950, Note_off_c, 3, 45, 95
6, 237120, Note_off_c, 3, 64, 127
6, 237120, Note_off_c, 3, 61, 127
6, 237120, Note_off_c, 3, 56, 127
6, 237120, Note_off_c, 3, 45, 127
6, 237600, Note_on_c, 3, 63, 127
6, 237600, Note_on_c, 3, 59, 127
6, 237600, Note_on_c, 3, 54, 127
6, 237600, Note_on_c, 3, 45, 95
6, 237600, Note_on_c, 3, 44, 127
6, 237670, Note_off_c, 3, 45, 95
6, 239040, Note_off_c, 3, 63, 127
6, 239040, Note_off_c, 3, 59, 127
6, 239040, Note_off_c, 3, 54, 127
6, 239040, Note_off_c, 3, 44, 127
6, 240000, Note_on_c, 3, 64, 127
6, 240000, Note_on_c, 3, 61, 127
6, 240000, Note_on_c, 3, 56, 127
6, 240000, Note_on_c, 3, 45, 95
6, 240000, Note_on_c, 3, 45, 127
6, 240070, Note_off_c, 3, 45, 95
6, 240480, Note_off_c, 3, 64, 127
6, 240480, Note_off_c, 3, 61, 127
6, 240480, Note_off_c, 3, 56, 127
6, 240480, Note_off_c, 3, 45, 127
6, 240720, Note_on_c, 3, 64, 127
6, 240720, Note_on_c, 3, 61, 127
6, 240720, Note_on_c, 3, 56, 127
6, 240720, Note_on_c, 3, 45, 95
6, 240720, Note_on_c, 3, 45, 127
6, 240790, Note_off_c, 3, 45, 95
6, 240960, Note_off_c, 3, 64, 127
6, 240960, Note_off_c, 3, 61, 127
6, 240960, Note_off_c, 3, 56, 127
6, 240960, Note_off_c, 3, 45, 127
6, 241440, Note_on_c, 3, 63, 127
6, 241440, Note_on_c, 3, 59, 127
6, 241440, Note_on_c, 3, 54, 127
6, 241440, Note_on_c, 3, 45, 95
6, 241440, Note_on_c, 3, 44, 127
6, 241510, Note_off_c, 3, 45, 95
6, 242880, Note_off_c, 3, 63, 127
6, 242880, Note_off_c, 3, 59, 127
6, 242880, Note_off_c, 3, 54, 127
6, 242880, Note_off_c, 3, 44, 127
6, 243840, Note_on_c, 3, 64, 127
6, 243840, Note_on_c, 3, 61, 127
6, 243840, Note_on_c, 3, 56, 127
6, 243840, Note_on_c, 3, 45, 95
6, 243840, Note_on_c, 3, 45, 127
6, 243910, Note_off_c, 3, 45, 95
6, 244320, Note_off_c, 3, 64, 127
6, 244320, Note_off_c, 3, 61, 127
6, 244320, Note_off_c, 3, 56, 127
6, 244320, Note_off_c, 3, 45, 127
6, 244560, Note_on_c, 3, 64, 127
6, 244560, Note_on_c, 3, 61, 127
6, 244560, Note_on_c, 3, 56, 127
6, 244560, Note_on_c, 3, 45, 95
6, 244560, Note_on_c, 3, 45, 127
6, 244630, Note_off_c, 3, 45, 95
6, 244800, Note_off_c, 3, 64, 127
6, 244800, Note_off_c, 3, 61, 127
6, 244800, Note_off_c, 3, 56, 127
6, 244800, Note_off_c, 3, 45, 127
6, 245280, Note_on_c, 3, 63, 127
6, 245280, Note_on_c, 3, 59, 127
6, 245280, Note_on_c, 3, 54, 127
6, 245280, Note_on_c, 3, 45, 95
6, 245280, Note_on_c, 3, 44, 127
6, 245350, Note_off_c, 3, 45, 95
6, 246720, Note_off_c, 3, 63, 127
6, 246720, Note_off_c, 3, 59, 127
6, 246720, Note_off_c, 3, 54, 127
6, 246720, Note_off_c, 3, 44, 127
6, 247680, Note_on_c, 3, 68, 127
6, 247680, Note_on_c, 3, 64, 127
6, 247680, Note_on_c, 3, 61, 127
6, 247680, Note_on_c, 3, 56, 127
6, 247680, Note_on_c, 3, 45, 95
6, 247680, Note_on_c, 3, 45, 127
6, 247750, Note_off_c, 3, 45, 95
6, 251520, Note_off_c, 3, 68, 127
6, 251520, Note_off_c, 3, 64, 127
6, 251520, Note_off_c, 3, 61, 127
6, 251520, Note_off_c, 3, 56, 127
6, 251520, Note_off_c, 3, 45, 127
6, 251520, Note_on_c, 3, 66, 127
6, 251520, Note_on_c, 3, 63, 127
6, 251520, Note_on_c, 3, 59, 127
6, 251520, Note_on_c, 3, 54, 127
6, 251520, Note_on_c, 3, 45, 95
6, 251520, Note_on_c, 3, 44, 127
6, 251590, Note_off_c, 3, 45, 95
6, 255360, Note_off_c, 3, 66, 127
6, 255360, Note_off_c, 3, 63, 127
6, 255360, Note_off_c, 3, 59, 127
6, 255360, Note_off_c, 3, 54, 127
6, 255360, Note_off_c, 3, 44, 127
6, 255360, Note_on_c, 3, 68, 127
6, 255360, Note_on_c, 3, 64, 127
6, 255360, Note_on_c, 3, 61, 127
6, 255360, Note_on_c, 3, 56, 127
6, 255360, Note_on_c, 3, 45, 95
6, 255360, Note_on_c, 3, 45, 127
6, 255430, Note_off_c, 3, 45, 95
6, 259200, Note_off_c, 3, 68, 127
6, 259200, Note_off_c, 3, 64, 127
6, 259200, Note_off_c, 3, 61, 127
6, 259200, Note_off_c, 3, 56, 127
6, 259200, Note_off_c, 3, 45, 127
6, 259200, Note_on_c, 3, 66, 127
6, 259200, Note_on_c, 3, 63, 127
6, 259200, Note_on_c, 3, 59, 127
6, 259200, Note_on_c, 3, 54, 127
6, 259200, Note_on_c, 3, 45, 95
6, 259200, Note_on_c, 3, 44, 127
6, 259270, Note_off_c, 3, 45, 95
6, 263040, Note_off_c, 3, 66, 127
6, 263040, Note_off_c, 3, 63, 127
6, 263040, Note_off_c, 3, 59, 127
6, 263040, Note_off_c, 3, 54, 127
6, 263040, Note_off_c, 3, 44, 127
6, 263040, Note_on_c, 3, 68, 127
6, 263040, Note_on_c, 3, 64, 127
6, 263040, Note_on_c, 3, 61, 127
6, 263040, Note_on_c, 3, 56, 127
6, 263040, Note_on_c, 3, 45, 95
6, 263040, Note_on_c, 3, 45, 127
6, 263110, Note_off_c, 3, 45, 95
6, 266880, Note_off_c, 3, 68, 127
6, 266880, Note_off_c, 3, 64, 127
6, 266880, Note_off_c, 3, 61, 127
6, 266880, Note_off_c, 3, 56, 127
6, 266880, Note_off_c, 3, 45, 127
6, 266880, Note_on_c, 3, 66, 127
6, 266880, Note_on_c, 3, 63, 127
6, 266880, Note_on_c, 3, 59, 127
6, 266880, Note_on_c, 3, 54, 127
6, 266880, Note_on_c, 3, 45, 95
6, 266880, Note_on_c, 3, 44, 127
6, 266950, Note_off_c, 3, 45, 95
6, 270720, Note_off_c, 3, 66, 127
6, 270720, Note_off_c, 3, 63, 127
6, 270720, Note_off_c, 3, 59, 127
6, 270720, Note_off_c, 3, 54, 127
6, 270720, Note_off_c, 3, 44, 127
6, 270720, Note_on_c, 3, 68, 127
6, 270720, Note_on_c, 3, 64, 127
6, 270720, Note_on_c, 3, 61, 127
6, 270720, Note_on_c, 3, 56, 127
6, 270720, Note_on_c, 3, 45, 95
6, 270720, Note_on_c, 3, 45, 127
6, 270790, Note_off_c, 3, 45, 95
6, 274560, Note_off_c, 3, 68, 127
6, 274560, Note_off_c, 3, 64, 127
6, 274560, Note_off_c, 3, 61, 127
6, 274560, Note_off_c, 3, 56, 127
6, 274560, Note_off_c, 3, 45, 127
6, 274560, Note_on_c, 3, 66, 127
6, 274560, Note_on_c, 3, 63, 127
6, 274560, Note_on_c, 3, 59, 127
6, 274560, Note_on_c, 3, 54, 127
6, 274560, Note_on_c, 3, 45, 95
6, 274560, Note_on_c, 3, 44, 127
6, 274630, Note_off_c, 3, 45, 95
6, 278400, Note_off_c, 3, 66, 127
6, 278400, Note_off_c, 3, 63, 127
6, 278400, Note_off_c, 3, 59, 127
6, 278400, Note_off_c, 3, 54, 127
6, 278400, Note_off_c, 3, 44, 127
6, 278400, Note_on_c, 3, 68, 127
6, 278400, Note_on_c, 3, 64, 127
6, 278400, Note_on_c, 3, 61, 127
6, 278400, Note_on_c, 3, 56, 127
6, 278400, Note_on_c, 3, 45, 95
6, 278400, Note_on_c, 3, 45, 127
6, 278470, Note_off_c, 3, 45, 95
6, 282240, Note_off_c, 3, 68, 127
6, 282240, Note_off_c, 3, 64, 127
6, 282240, Note_off_c, 3, 61, 127
6, 282240, Note_off_c, 3, 56, 127
6, 282240, Note_off_c, 3, 45, 127
6, 282240, Note_on_c, 3, 66, 127
6, 282240, Note_on_c, 3, 63, 127
6, 282240, Note_on_c, 3, 59, 127
6, 282240, Note_on_c, 3, 54, 127
6, 282240, Note_on_c, 3, 45, 95
6, 282240, Note_on_c, 3, 44, 127
6, 282310, Note_off_c, 3, 45, 95
6, 286080, Note_off_c, 3, 66, 127
6, 286080, Note_off_c, 3, 63, 127
6, 286080, Note_off_c, 3, 59, 127
6, 286080, Note_off_c, 3, 54, 127
6, 286080, Note_off_c, 3, 44, 127
6, 286080, Note_on_c, 3, 68, 127
6, 286080, Note_on_c, 3, 64, 127
6, 286080, Note_on_c, 3, 61, 127
6, 286080, Note_on_c, 3, 56, 127
6, 286080, Note_on_c, 3, 45, 95
6, 286080, Note_on_c, 3, 45, 127
6, 286150, Note_off_c, 3, 45, 95
6, 289920, Note_off_c, 3, 68, 127
6, 289920, Note_off_c, 3, 64, 127
6, 289920, Note_off_c, 3, 61, 127
6, 289920, Note_off_c, 3, 56, 127
6, 289920, Note_off_c, 3, 45, 127
6, 289920, Note_on_c, 3, 66, 127
6, 289920, Note_on_c, 3, 63, 127
6, 289920, Note_on_c, 3, 59, 127
6, 289920, Note_on_c, 3, 54, 127
6, 289920, Note_on_c, 3, 45, 95
6, 289920, Note_on_c, 3, 44, 127
6, 289990, Note_off_c, 3, 45, 95
6, 293760, Note_off_c, 3, 66, 127
6, 293760, Note_off_c, 3, 63, 127
6, 293760, Note_off_c, 3, 59, 127
6, 293760, Note_off_c, 3, 54, 127
6, 293760, Note_off_c, 3, 44, 127
6, 293760, Note_on_c, 3, 68, 127
6, 293760, Note_on_c, 3, 64, 127
6, 293760, Note_on_c, 3, 61, 127
6, 293760, Note_on_c, 3, 56, 127
6, 293760, Note_on_c, 3, 45, 95
6, 293760, Note_on_c, 3, 45, 127
6, 293830, Note_off_c, 3, 45, 95
6, 297600, Note_off_c, 3, 68, 127
6, 297600, Note_off_c, 3, 64, 127
6, 297600, Note_off_c, 3, 61, 127
6, 297600, Note_off_c, 3, 56, 127
6, 297600, Note_off_c, 3, 45, 127
6, 297600, Note_on_c, 3, 66, 127
6, 297600, Note_on_c, 3, 63, 127
6, 297600, Note_on_c, 3, 59, 127
6, 297600, Note_on_c, 3, 54, 127
6, 297600, Note_on_c, 3, 45, 95
6, 297600, Note_on_c, 3, 44, 127
6, 297670, Note_off_c, 3, 45, 95
6, 301440, Note_off_c, 3, 66, 127
6, 301440, Note_off_c, 3, 63, 127
6, 301440, Note_off_c, 3, 59, 127
6, 301440, Note_off_c, 3, 54, 127
6, 301440, Note_off_c, 3, 44, 127
6, 301440, End_track
7, 0, Start_track
7, 0, Pitch_bend_c, 5, 8192
7, 0, Control_c, 5, 7, 103
7, 0, Control_c, 5, 10, 63
7, 0, Control_c, 5, 93, 0
7, 0, Control_c, 5, 91, 0
7, 0, Control_c, 5, 95, 0
7, 0, Control_c, 5, 92, 0
7, 0, Control_c, 5, 11, 127
7, 0, Program_c, 5, 88
7, 0, Control_c, 6, 7, 103
7, 0, Control_c, 6, 10, 63
7, 0, Control_c, 6, 93, 0
7, 0, Control_c, 6, 91, 0
7, 0, Control_c, 6, 95, 0
7, 0, Control_c, 6, 92, 0
7, 0, Control_c, 6, 11, 127
7, 0, Program_c, 6, 88
7, 174720, Note_on_c, 5, 69, 127
7, 174720, Note_on_c, 5, 66, 127
7, 176640, Note_off_c, 5, 69, 127
7, 176640, Note_off_c, 5, 66, 127
7, 176640, Note_on_c, 5, 66, 127
7, 176640, Note_on_c, 5, 61, 127
7, 178560, Note_off_c, 5, 66, 127
7, 178560, Note_off_c, 5, 61, 127
7, 178560, Note_on_c, 5, 61, 127
7, 178560, Note_on_c, 5, 57, 127
7, 181440, Note_off_c, 5, 61, 127
7, 181440, Note_off_c, 5, 57, 127
7, 181440, Note_on_c, 5, 63, 127
7, 181440, Note_on_c, 5, 59, 127
7, 181920, Note_off_c, 5, 63, 127
7, 181920, Note_off_c, 5, 59, 127
7, 181920, Note_on_c, 5, 64, 127
7, 181920, Note_on_c, 5, 61, 127
7, 182400, Note_off_c, 5, 64, 127
7, 182400, Note_off_c, 5, 61, 127
7, 182400, Note_on_c, 5, 63, 127
7, 182400, Note_on_c, 5, 59, 127
7, 186240, Note_off_c, 5, 63, 127
7, 186240, Note_off_c, 5, 59, 127
7, 186240, End_track
8, 0, Start_track
8, 0, Pitch_bend_c, 7, 8192
8, 0, Control_c, 7, 7, 103
8, 0, Control_c, 7, 10, 63
8, 0, Control_c, 7, 93, 0
8, 0, Control_c, 7, 91, 0
8, 0, Control_c, 7, 95, 0
8, 0, Control_c, 7, 92, 0
8, 0, Control_c, 7, 11, 127
8, 0, Program_c, 7, 12
8, 0, Control_c, 8, 7, 103
8, 0, Control_c, 8, 10, 63
8, 0, Control_c, 8, 93, 0
8, 0, Control_c, 8, 91, 0
8, 0, Control_c, 8, 95, 0
8, 0, Control_c, 8, 92, 0
8, 0, Control_c, 8, 11, 127
8, 0, Program_c, 8, 12
8, 301440, Note_on_c, 7, 60, 127
8, 301560, Note_off_c, 7, 60, 127
8, 301560, Note_on_c, 7, 60, 127
8, 301680, Note_off_c, 7, 60, 127
8, 301680, Note_on_c, 7, 60, 127
8, 301800, Note_off_c, 7, 60, 127
8, 301800, Note_on_c, 7, 60, 127
8, 301920, Note_off_c, 7, 60, 127
8, 301920, Note_on_c, 7, 60, 127
8, 302040, Note_off_c, 7, 60, 127
8, 302040, Note_on_c, 7, 60, 127
8, 302160, Note_off_c, 7, 60, 127
8, 302160, Note_on_c, 7, 60, 127
8, 302280, Note_off_c, 7, 60, 127
8, 302280, Note_on_c, 7, 60, 127
8, 302399, Note_off_c, 7, 60, 127
8, 302400, Note_on_c, 7, 62, 127
8, 302520, Note_off_c, 7, 62, 127
8, 302520, Note_on_c, 7, 62, 127
8, 302639, Note_off_c, 7, 62, 127
8, 302640, Note_on_c, 7, 59, 127
8, 302760, Note_off_c, 7, 59, 127
8, 302760, Note_on_c, 7, 59, 127
8, 302879, Note_off_c, 7, 59, 127
8, 302880, Note_on_c, 7, 57, 127
8, 303000, Note_off_c, 7, 57, 127
8, 303000, Note_on_c, 7, 57, 127
8, 303120, Note_off_c, 7, 57, 127
8, 303120, Note_on_c, 7, 57, 127
8, 303240, Note_off_c, 7, 57, 127
8, 303240, Note_on_c, 7, 57, 127
8, 303359, Note_off_c, 7, 57, 127
8, 303359, End_track
0, 0, End_of_file
