0, 0, Header, 1, 9, 480
1, 0, Start_track
1, 0, Tempo, 800000
1, 0, Title_t, "Feeling That Way"
1, 0, Time_signature, 4, 2, 12, 53
1, 0, Tempo, 821917
1, 19200, Time_signature, 2, 2, 12, 138
1, 19920, Tempo, 800000
1, 20160, Time_signature, 4, 2, 12, 53
1, 35520, Time_signature, 2, 2, 12, 53
1, 36240, Tempo, 800000
1, 36480, Time_signature, 4, 2, 12, 53
1, 51840, Time_signature, 2, 2, 12, 53
1, 52320, Tempo, 800000
1, 52800, Time_signature, 4, 2, 12, 53
1, 52800, End_track
2, 0, Start_track
2, 0, Title_t, "Piano"
2, 0, Control_c, 0, 100, 0
2, 0, Control_c, 0, 101, 0
2, 0, Control_c, 0, 6, 12
2, 0, Pitch_bend_c, 0, 8192
2, 0, Control_c, 1, 100, 0
2, 0, Control_c, 1, 101, 0
2, 0, Control_c, 1, 6, 12
2, 0, Pitch_bend_c, 1, 8192
2, 0, Program_c, 0, 1
2, 0, Program_c, 1, 1
2, 0, Control_c, 0, 7, 80
2, 0, Control_c, 1, 7, 80
2, 0, Control_c, 0, 10, 64
2, 0, Control_c, 1, 10, 64
2, 0, Control_c, 0, 93, 0
2, 0, Control_c, 1, 93, 0
2, 0, Control_c, 0, 91, 0
2, 0, Control_c, 1, 91, 0
2, 0, Control_c, 0, 92, 0
2, 0, Control_c, 1, 92, 0
2, 0, Control_c, 0, 95, 0
2, 0, Control_c, 1, 95, 0
2, 0, Note_on_c, 0, 76, 95
2, 0, Note_on_c, 0, 72, 95
2, 0, Note_on_c, 0, 48, 95
2, 840, Note_off_c, 0, 76, 80
2, 840, Note_off_c, 0, 72, 80
2, 840, Note_off_c, 0, 48, 80
2, 840, Note_on_c, 0, 43, 95
2, 960, Note_off_c, 0, 43, 80
2, 960, Note_on_c, 0, 77, 95
2, 960, Note_on_c, 0, 72, 95
2, 960, Note_on_c, 0, 48, 95
2, 1080, Note_off_c, 0, 77, 80
2, 1080, Note_off_c, 0, 72, 80
2, 1080, Note_on_c, 0, 79, 95
2, 1080, Note_on_c, 0, 72, 95
2, 1200, Note_off_c, 0, 79, 80
2, 1200, Note_off_c, 0, 72, 80
2, 1200, Note_on_c, 0, 77, 95
2, 1200, Note_on_c, 0, 72, 95
2, 1320, Note_off_c, 0, 77, 80
2, 1320, Note_off_c, 0, 72, 80
2, 1320, Note_on_c, 0, 77, 95
2, 1320, Note_on_c, 0, 72, 95
2, 1560, Note_off_c, 0, 77, 80
2, 1560, Note_off_c, 0, 72, 80
2, 1560, Note_on_c, 0, 72, 95
2, 1680, Note_off_c, 0, 72, 80
2, 1680, Note_on_c, 0, 69, 95
2, 1800, Note_off_c, 0, 48, 80
2, 1800, Note_off_c, 0, 69, 80
2, 1800, Note_on_c, 0, 67, 95
2, 1800, Note_on_c, 0, 43, 95
2, 1920, Note_off_c, 0, 67, 80
2, 1920, Note_off_c, 0, 43, 80
2, 1920, Note_on_c, 0, 72, 95
2, 1920, Note_on_c, 0, 67, 95
2, 1920, Note_on_c, 0, 48, 95
2, 2160, Note_off_c, 0, 72, 80
2, 2160, Note_off_c, 0, 67, 80
2, 2160, Note_on_c, 0, 60, 95
2, 2280, Note_off_c, 0, 60, 80
2, 2280, Note_on_c, 0, 67, 95
2, 2400, Note_off_c, 0, 67, 80
2, 2400, Note_on_c, 0, 72, 95
2, 2520, Note_off_c, 0, 72, 80
2, 2520, Note_on_c, 0, 67, 95
2, 2640, Note_off_c, 0, 67, 80
2, 2640, Note_on_c, 0, 64, 95
2, 2760, Note_off_c, 0, 64, 80
2, 2880, Note_off_c, 0, 48, 80
2, 2880, Note_on_c, 0, 69, 95
2, 2880, Note_on_c, 0, 65, 95
2, 2880, Note_on_c, 0, 48, 95
2, 3000, Note_off_c, 0, 69, 80
2, 3000, Note_on_c, 0, 65, 95
2, 3120, Note_off_c, 0, 65, 80
2, 3120, Note_off_c, 0, 65, 80
2, 3120, Note_on_c, 0, 60, 95
2, 3240, Note_off_c, 0, 48, 80
2, 3240, Note_off_c, 0, 60, 80
2, 3240, Note_on_c, 0, 69, 95
2, 3240, Note_on_c, 0, 65, 95
2, 3240, Note_on_c, 0, 48, 95
2, 3480, Note_off_c, 0, 69, 80
2, 3480, Note_on_c, 0, 67, 95
2, 3600, Note_off_c, 0, 67, 80
2, 3600, Note_on_c, 0, 65, 95
2, 3840, Note_off_c, 0, 65, 80
2, 3840, Note_off_c, 0, 48, 80
2, 3840, Note_off_c, 0, 65, 80
2, 3840, Note_on_c, 0, 64, 95
2, 3840, Note_on_c, 0, 60, 95
2, 3840, Note_on_c, 0, 48, 95
2, 4320, Note_off_c, 0, 64, 80
2, 4320, Note_off_c, 0, 60, 80
2, 4320, Note_on_c, 0, 55, 95
2, 4440, Note_off_c, 0, 48, 80
2, 4440, Note_off_c, 0, 55, 80
2, 4440, Note_on_c, 0, 64, 95
2, 4440, Note_on_c, 0, 60, 95
2, 4440, Note_on_c, 0, 48, 95
2, 4680, Note_off_c, 0, 64, 80
2, 4680, Note_off_c, 0, 60, 80
2, 4680, Note_on_c, 0, 55, 95
2, 4800, Note_off_c, 0, 48, 80
2, 4800, Note_off_c, 0, 55, 80
2, 4800, Note_on_c, 0, 64, 95
2, 4800, Note_on_c, 0, 60, 95
2, 4800, Note_on_c, 0, 48, 95
2, 5280, Note_off_c, 0, 64, 80
2, 5280, Note_off_c, 0, 60, 80
2, 5280, Note_on_c, 0, 55, 95
2, 5400, Note_off_c, 0, 48, 80
2, 5400, Note_off_c, 0, 55, 80
2, 5400, Note_on_c, 0, 64, 95
2, 5400, Note_on_c, 0, 60, 95
2, 5400, Note_on_c, 0, 48, 95
2, 5640, Note_off_c, 0, 64, 80
2, 5640, Note_off_c, 0, 60, 80
2, 5640, Note_on_c, 0, 55, 95
2, 5760, Note_off_c, 0, 48, 80
2, 5760, Note_off_c, 0, 55, 80
2, 5760, Note_on_c, 0, 62, 95
2, 5760, Note_on_c, 0, 59, 95
2, 5760, Note_on_c, 0, 43, 95
2, 6120, Note_off_c, 0, 62, 80
2, 6120, Note_off_c, 0, 59, 80
2, 6120, Note_on_c, 0, 55, 95
2, 6240, Note_off_c, 0, 55, 80
2, 6240, Note_on_c, 0, 55, 95
2, 6360, Note_off_c, 0, 43, 80
2, 6360, Note_off_c, 0, 55, 80
2, 6360, Note_on_c, 0, 64, 95
2, 6360, Note_on_c, 0, 60, 95
2, 6360, Note_on_c, 0, 43, 95
2, 6720, Note_off_c, 0, 64, 80
2, 6720, Note_off_c, 0, 60, 80
2, 6720, Note_off_c, 0, 43, 80
2, 6720, Note_on_c, 0, 64, 95
2, 6720, Note_on_c, 0, 60, 95
2, 6720, Note_on_c, 0, 43, 95
2, 6840, Note_off_c, 0, 64, 80
2, 6840, Note_off_c, 0, 60, 80
2, 6840, Note_on_c, 0, 62, 95
2, 6840, Note_on_c, 0, 59, 95
2, 7080, Note_off_c, 0, 43, 80
2, 7080, Note_off_c, 0, 62, 80
2, 7080, Note_off_c, 0, 59, 80
2, 7080, Note_on_c, 0, 62, 95
2, 7080, Note_on_c, 0, 59, 95
2, 7080, Note_on_c, 0, 43, 95
2, 7320, Note_off_c, 0, 62, 80
2, 7320, Note_off_c, 0, 59, 80
2, 7320, Note_off_c, 0, 43, 80
2, 7320, Note_on_c, 0, 64, 95
2, 7320, Note_on_c, 0, 60, 95
2, 7320, Note_on_c, 0, 43, 95
2, 7440, Note_off_c, 0, 64, 80
2, 7440, Note_off_c, 0, 60, 80
2, 7440, Note_on_c, 0, 62, 95
2, 7440, Note_on_c, 0, 59, 95
2, 7680, Note_off_c, 0, 43, 80
2, 7680, Note_off_c, 0, 62, 80
2, 7680, Note_off_c, 0, 59, 80
2, 7680, Note_on_c, 0, 64, 95
2, 7680, Note_on_c, 0, 60, 95
2, 7680, Note_on_c, 0, 48, 95
2, 8160, Note_off_c, 0, 64, 80
2, 8160, Note_off_c, 0, 60, 80
2, 8160, Note_on_c, 0, 55, 95
2, 8280, Note_off_c, 0, 48, 80
2, 8280, Note_off_c, 0, 55, 80
2, 8280, Note_on_c, 0, 64, 95
2, 8280, Note_on_c, 0, 60, 95
2, 8280, Note_on_c, 0, 48, 95
2, 8520, Note_off_c, 0, 64, 80
2, 8520, Note_off_c, 0, 60, 80
2, 8520, Note_on_c, 0, 55, 95
2, 8640, Note_off_c, 0, 48, 80
2, 8640, Note_off_c, 0, 55, 80
2, 8640, Note_on_c, 0, 64, 95
2, 8640, Note_on_c, 0, 60, 95
2, 8640, Note_on_c, 0, 48, 95
2, 9120, Note_off_c, 0, 64, 80
2, 9120, Note_off_c, 0, 60, 80
2, 9120, Note_on_c, 0, 55, 95
2, 9240, Note_off_c, 0, 48, 80
2, 9240, Note_off_c, 0, 55, 80
2, 9240, Note_on_c, 0, 64, 95
2, 9240, Note_on_c, 0, 60, 95
2, 9240, Note_on_c, 0, 48, 95
2, 9480, Note_off_c, 0, 64, 80
2, 9480, Note_off_c, 0, 60, 80
2, 9480, Note_on_c, 0, 55, 95
2, 9600, Note_off_c, 0, 48, 80
2, 9600, Note_off_c, 0, 55, 80
2, 9600, Note_on_c, 0, 60, 95
2, 9600, Note_on_c, 0, 53, 95
2, 9600, Note_on_c, 0, 43, 95
2, 9960, Note_off_c, 0, 60, 80
2, 9960, Note_off_c, 0, 53, 80
2, 9960, Note_on_c, 0, 55, 95
2, 10080, Note_off_c, 0, 55, 80
2, 10080, Note_on_c, 0, 55, 95
2, 10200, Note_on_c, 0, 60, 95
2, 10440, Note_off_c, 0, 55, 80
2, 10440, Note_on_c, 0, 55, 95
2, 10560, Note_off_c, 0, 43, 80
2, 10560, Note_off_c, 0, 60, 80
2, 10560, Note_off_c, 0, 55, 80
2, 10560, Note_on_c, 0, 62, 95
2, 10560, Note_on_c, 0, 59, 95
2, 10560, Note_on_c, 0, 43, 95
2, 11160, Note_off_c, 0, 62, 80
2, 11160, Note_off_c, 0, 59, 80
2, 11160, Note_off_c, 0, 43, 80
2, 11160, Note_on_c, 0, 60, 95
2, 11160, Note_on_c, 0, 60, 95
2, 11160, Note_on_c, 0, 41, 95
2, 11280, Note_off_c, 0, 60, 80
2, 11280, Note_off_c, 0, 60, 80
2, 11280, Note_off_c, 0, 41, 80
2, 11280, Note_on_c, 0, 62, 95
2, 11280, Note_on_c, 0, 62, 95
2, 11280, Note_on_c, 0, 43, 95
2, 11520, Note_off_c, 0, 62, 80
2, 11520, Note_off_c, 0, 62, 80
2, 11520, Note_off_c, 0, 43, 80
2, 11520, Note_on_c, 0, 60, 95
2, 11520, Note_on_c, 0, 58, 95
2, 11520, Note_on_c, 0, 53, 95
2, 11520, Note_on_c, 0, 46, 95
2, 11880, Note_off_c, 0, 58, 80
2, 11880, Note_on_c, 0, 58, 95
2, 12000, Note_off_c, 0, 60, 80
2, 12000, Note_off_c, 0, 53, 80
2, 12000, Note_off_c, 0, 46, 80
2, 12000, Note_on_c, 0, 46, 95
2, 12120, Note_off_c, 0, 58, 80
2, 12120, Note_on_c, 0, 65, 95
2, 12240, Note_off_c, 0, 65, 80
2, 12240, Note_on_c, 0, 62, 95
2, 12360, Note_off_c, 0, 62, 80
2, 12360, Note_on_c, 0, 58, 95
2, 12480, Note_off_c, 0, 46, 80
2, 12480, Note_off_c, 0, 58, 80
2, 12480, Note_on_c, 0, 57, 95
2, 12480, Note_on_c, 0, 52, 95
2, 12480, Note_on_c, 0, 45, 95
2, 12840, Note_off_c, 0, 57, 80
2, 12840, Note_on_c, 0, 57, 95
2, 12960, Note_off_c, 0, 52, 80
2, 12960, Note_off_c, 0, 45, 80
2, 12960, Note_on_c, 0, 45, 95
2, 13080, Note_off_c, 0, 57, 80
2, 13080, Note_on_c, 0, 65, 95
2, 13200, Note_off_c, 0, 65, 80
2, 13200, Note_on_c, 0, 62, 95
2, 13320, Note_off_c, 0, 62, 80
2, 13320, Note_on_c, 0, 58, 95
2, 13440, Note_off_c, 0, 45, 80
2, 13440, Note_off_c, 0, 58, 80
2, 13440, Note_on_c, 0, 60, 95
2, 13440, Note_on_c, 0, 56, 95
2, 13440, Note_on_c, 0, 51, 95
2, 13440, Note_on_c, 0, 44, 95
2, 13800, Note_off_c, 0, 56, 80
2, 13800, Note_off_c, 0, 51, 80
2, 13800, Note_on_c, 0, 56, 95
2, 13920, Note_off_c, 0, 60, 80
2, 13920, Note_off_c, 0, 44, 80
2, 13920, Note_on_c, 0, 44, 95
2, 14040, Note_off_c, 0, 56, 80
2, 14040, Note_on_c, 0, 65, 95
2, 14160, Note_off_c, 0, 65, 80
2, 14160, Note_on_c, 0, 62, 95
2, 14280, Note_off_c, 0, 62, 80
2, 14280, Note_on_c, 0, 58, 95
2, 14400, Note_off_c, 0, 44, 80
2, 14400, Note_off_c, 0, 58, 80
2, 14400, Note_on_c, 0, 65, 95
2, 14400, Note_on_c, 0, 63, 95
2, 14400, Note_on_c, 0, 58, 95
2, 14400, Note_on_c, 0, 51, 95
2, 14760, Note_off_c, 0, 63, 80
2, 14760, Note_on_c, 0, 63, 95
2, 14880, Note_off_c, 0, 65, 80
2, 14880, Note_off_c, 0, 58, 80
2, 14880, Note_off_c, 0, 51, 80
2, 14880, Note_on_c, 0, 51, 95
2, 15000, Note_off_c, 0, 63, 80
2, 15000, Note_on_c, 0, 67, 95
2, 15120, Note_off_c, 0, 67, 80
2, 15120, Note_on_c, 0, 63, 95
2, 15240, Note_off_c, 0, 63, 80
2, 15240, Note_on_c, 0, 58, 95
2, 15360, Note_off_c, 0, 51, 80
2, 15360, Note_off_c, 0, 58, 80
2, 15360, Note_on_c, 0, 62, 95
2, 15360, Note_on_c, 0, 58, 95
2, 15360, Note_on_c, 0, 53, 95
2, 15360, Note_on_c, 0, 46, 95
2, 15720, Note_off_c, 0, 58, 80
2, 15720, Note_on_c, 0, 58, 95
2, 15840, Note_off_c, 0, 62, 80
2, 15840, Note_off_c, 0, 53, 80
2, 15840, Note_off_c, 0, 46, 80
2, 15840, Note_on_c, 0, 46, 95
2, 15960, Note_off_c, 0, 58, 80
2, 15960, Note_on_c, 0, 65, 95
2, 16080, Note_off_c, 0, 65, 80
2, 16080, Note_on_c, 0, 62, 95
2, 16200, Note_off_c, 0, 62, 80
2, 16200, Note_on_c, 0, 58, 95
2, 16320, Note_off_c, 0, 46, 80
2, 16320, Note_off_c, 0, 58, 80
2, 16320, Note_on_c, 0, 56, 95
2, 16320, Note_on_c, 0, 49, 95
2, 16440, Note_on_c, 0, 61, 95
2, 16680, Note_off_c, 0, 56, 80
2, 16680, Note_off_c, 0, 49, 80
2, 16680, Note_on_c, 0, 56, 95
2, 16680, Note_on_c, 0, 49, 95
2, 16920, Note_off_c, 0, 61, 80
2, 16920, Note_on_c, 0, 61, 95
2, 17040, Note_off_c, 0, 56, 80
2, 17040, Note_off_c, 0, 49, 80
2, 17040, Note_on_c, 0, 56, 95
2, 17040, Note_on_c, 0, 49, 95
2, 17280, Note_off_c, 0, 61, 80
2, 17280, Note_off_c, 0, 56, 80
2, 17280, Note_off_c, 0, 49, 80
2, 17280, Note_on_c, 0, 56, 95
2, 17280, Note_on_c, 0, 49, 127
2, 17400, Note_on_c, 0, 61, 95
2, 17640, Note_off_c, 0, 56, 80
2, 17640, Note_off_c, 0, 49, 80
2, 17640, Note_off_c, 0, 61, 80
2, 17640, Note_on_c, 0, 56, 95
2, 17640, Note_on_c, 0, 49, 127
2, 17760, Note_on_c, 0, 61, 95
2, 17880, Note_off_c, 0, 61, 80
2, 17880, Note_on_c, 0, 58, 95
2, 18000, Note_on_c, 0, 65, 95
2, 18240, Note_off_c, 0, 56, 80
2, 18240, Note_off_c, 0, 49, 80
2, 18240, Note_off_c, 0, 58, 80
2, 18240, Note_off_c, 0, 65, 80
2, 18240, Note_on_c, 0, 65, 95
2, 18240, Note_on_c, 0, 60, 95
2, 18240, Note_on_c, 0, 55, 95
2, 18240, Note_on_c, 0, 48, 95
2, 18480, Note_off_c, 0, 65, 80
2, 18480, Note_on_c, 0, 43, 95
2, 18600, Note_off_c, 0, 60, 80
2, 18600, Note_off_c, 0, 55, 80
2, 18600, Note_off_c, 0, 48, 80
2, 18600, Note_on_c, 0, 65, 95
2, 18600, Note_on_c, 0, 60, 95
2, 18600, Note_on_c, 0, 55, 95
2, 18600, Note_on_c, 0, 48, 95
2, 18720, Note_off_c, 0, 43, 80
2, 18840, Note_off_c, 0, 65, 80
2, 18840, Note_on_c, 0, 43, 95
2, 18960, Note_off_c, 0, 60, 80
2, 18960, Note_off_c, 0, 55, 80
2, 18960, Note_off_c, 0, 48, 80
2, 18960, Note_on_c, 0, 64, 95
2, 18960, Note_on_c, 0, 60, 95
2, 18960, Note_on_c, 0, 55, 95
2, 18960, Note_on_c, 0, 48, 95
2, 20160, Note_off_c, 0, 43, 80
2, 20160, Note_off_c, 0, 64, 80
2, 20160, Note_off_c, 0, 60, 80
2, 20160, Note_off_c, 0, 55, 80
2, 20160, Note_off_c, 0, 48, 80
2, 31680, Note_on_c, 0, 62, 95
2, 31680, Note_on_c, 0, 58, 95
2, 31680, Note_on_c, 0, 53, 95
2, 31680, Note_on_c, 0, 46, 95
2, 32040, Note_off_c, 0, 58, 80
2, 32040, Note_on_c, 0, 58, 95
2, 32160, Note_off_c, 0, 62, 80
2, 32160, Note_off_c, 0, 53, 80
2, 32160, Note_off_c, 0, 46, 80
2, 32160, Note_on_c, 0, 46, 95
2, 32280, Note_off_c, 0, 58, 80
2, 32280, Note_on_c, 0, 65, 95
2, 32400, Note_off_c, 0, 65, 80
2, 32400, Note_on_c, 0, 62, 95
2, 32520, Note_off_c, 0, 62, 80
2, 32520, Note_on_c, 0, 58, 95
2, 32640, Note_off_c, 0, 46, 80
2, 32640, Note_off_c, 0, 58, 80
2, 32640, Note_on_c, 0, 56, 95
2, 32640, Note_on_c, 0, 49, 95
2, 32760, Note_on_c, 0, 61, 95
2, 33000, Note_off_c, 0, 56, 80
2, 33000, Note_off_c, 0, 49, 80
2, 33000, Note_on_c, 0, 56, 95
2, 33000, Note_on_c, 0, 49, 95
2, 33240, Note_off_c, 0, 61, 80
2, 33240, Note_on_c, 0, 61, 95
2, 33360, Note_off_c, 0, 56, 80
2, 33360, Note_off_c, 0, 49, 80
2, 33360, Note_on_c, 0, 56, 95
2, 33360, Note_on_c, 0, 49, 95
2, 33600, Note_off_c, 0, 61, 80
2, 33600, Note_off_c, 0, 56, 80
2, 33600, Note_off_c, 0, 49, 80
2, 33600, Note_on_c, 0, 56, 95
2, 33600, Note_on_c, 0, 49, 127
2, 33720, Note_on_c, 0, 61, 95
2, 33960, Note_off_c, 0, 56, 80
2, 33960, Note_off_c, 0, 49, 80
2, 33960, Note_off_c, 0, 61, 80
2, 33960, Note_on_c, 0, 56, 95
2, 33960, Note_on_c, 0, 49, 127
2, 34080, Note_on_c, 0, 61, 95
2, 34200, Note_off_c, 0, 61, 80
2, 34200, Note_on_c, 0, 58, 95
2, 34320, Note_on_c, 0, 65, 95
2, 34560, Note_off_c, 0, 56, 80
2, 34560, Note_off_c, 0, 49, 80
2, 34560, Note_off_c, 0, 58, 80
2, 34560, Note_off_c, 0, 65, 80
2, 34560, Note_on_c, 0, 65, 95
2, 34560, Note_on_c, 0, 60, 95
2, 34560, Note_on_c, 0, 55, 95
2, 34560, Note_on_c, 0, 48, 95
2, 34800, Note_off_c, 0, 65, 80
2, 34800, Note_on_c, 0, 43, 95
2, 34920, Note_off_c, 0, 60, 80
2, 34920, Note_off_c, 0, 55, 80
2, 34920, Note_off_c, 0, 48, 80
2, 34920, Note_on_c, 0, 65, 95
2, 34920, Note_on_c, 0, 60, 95
2, 34920, Note_on_c, 0, 55, 95
2, 34920, Note_on_c, 0, 48, 95
2, 35040, Note_off_c, 0, 43, 80
2, 35160, Note_off_c, 0, 65, 80
2, 35160, Note_on_c, 0, 43, 95
2, 35280, Note_off_c, 0, 60, 80
2, 35280, Note_off_c, 0, 55, 80
2, 35280, Note_off_c, 0, 48, 80
2, 35280, Note_on_c, 0, 64, 95
2, 35280, Note_on_c, 0, 60, 95
2, 35280, Note_on_c, 0, 55, 95
2, 35280, Note_on_c, 0, 48, 95
2, 36480, Note_off_c, 0, 43, 80
2, 36480, Note_off_c, 0, 64, 80
2, 36480, Note_off_c, 0, 60, 80
2, 36480, Note_off_c, 0, 55, 80
2, 36480, Note_off_c, 0, 48, 80
2, 36480, Note_on_c, 0, 64, 95
2, 36480, Note_on_c, 0, 60, 95
2, 36480, Note_on_c, 0, 48, 95
2, 36960, Note_off_c, 0, 64, 80
2, 36960, Note_off_c, 0, 60, 80
2, 36960, Note_on_c, 0, 55, 95
2, 37080, Note_off_c, 0, 48, 80
2, 37080, Note_off_c, 0, 55, 80
2, 37080, Note_on_c, 0, 64, 95
2, 37080, Note_on_c, 0, 60, 95
2, 37080, Note_on_c, 0, 48, 95
2, 37320, Note_off_c, 0, 64, 80
2, 37320, Note_off_c, 0, 60, 80
2, 37320, Note_on_c, 0, 55, 95
2, 37440, Note_off_c, 0, 48, 80
2, 37440, Note_off_c, 0, 55, 80
2, 37440, Note_on_c, 0, 64, 95
2, 37440, Note_on_c, 0, 60, 95
2, 37440, Note_on_c, 0, 48, 95
2, 37920, Note_off_c, 0, 64, 80
2, 37920, Note_off_c, 0, 60, 80
2, 37920, Note_on_c, 0, 55, 95
2, 38040, Note_off_c, 0, 48, 80
2, 38040, Note_off_c, 0, 55, 80
2, 38040, Note_on_c, 0, 64, 95
2, 38040, Note_on_c, 0, 60, 95
2, 38040, Note_on_c, 0, 48, 95
2, 38280, Note_off_c, 0, 64, 80
2, 38280, Note_off_c, 0, 60, 80
2, 38280, Note_on_c, 0, 55, 95
2, 38400, Note_off_c, 0, 48, 80
2, 38400, Note_off_c, 0, 55, 80
2, 38400, Note_on_c, 0, 62, 95
2, 38400, Note_on_c, 0, 59, 95
2, 38400, Note_on_c, 0, 43, 95
2, 38760, Note_off_c, 0, 62, 80
2, 38760, Note_off_c, 0, 59, 80
2, 38760, Note_on_c, 0, 55, 95
2, 38880, Note_off_c, 0, 55, 80
2, 38880, Note_on_c, 0, 55, 95
2, 39000, Note_off_c, 0, 43, 80
2, 39000, Note_off_c, 0, 55, 80
2, 39000, Note_on_c, 0, 64, 95
2, 39000, Note_on_c, 0, 60, 95
2, 39000, Note_on_c, 0, 43, 95
2, 39360, Note_off_c, 0, 64, 80
2, 39360, Note_off_c, 0, 60, 80
2, 39360, Note_off_c, 0, 43, 80
2, 39360, Note_on_c, 0, 64, 95
2, 39360, Note_on_c, 0, 60, 95
2, 39360, Note_on_c, 0, 43, 95
2, 39480, Note_off_c, 0, 64, 80
2, 39480, Note_off_c, 0, 60, 80
2, 39480, Note_on_c, 0, 62, 95
2, 39480, Note_on_c, 0, 59, 95
2, 39720, Note_off_c, 0, 43, 80
2, 39720, Note_off_c, 0, 62, 80
2, 39720, Note_off_c, 0, 59, 80
2, 39720, Note_on_c, 0, 62, 95
2, 39720, Note_on_c, 0, 59, 95
2, 39720, Note_on_c, 0, 43, 95
2, 39960, Note_off_c, 0, 62, 80
2, 39960, Note_off_c, 0, 59, 80
2, 39960, Note_off_c, 0, 43, 80
2, 39960, Note_on_c, 0, 64, 95
2, 39960, Note_on_c, 0, 60, 95
2, 39960, Note_on_c, 0, 43, 95
2, 40080, Note_off_c, 0, 64, 80
2, 40080, Note_off_c, 0, 60, 80
2, 40080, Note_on_c, 0, 62, 95
2, 40080, Note_on_c, 0, 59, 95
2, 40320, Note_off_c, 0, 43, 80
2, 40320, Note_off_c, 0, 62, 80
2, 40320, Note_off_c, 0, 59, 80
2, 40320, Note_on_c, 0, 64, 95
2, 40320, Note_on_c, 0, 60, 95
2, 40320, Note_on_c, 0, 48, 95
2, 40800, Note_off_c, 0, 64, 80
2, 40800, Note_off_c, 0, 60, 80
2, 40800, Note_on_c, 0, 55, 95
2, 40920, Note_off_c, 0, 48, 80
2, 40920, Note_off_c, 0, 55, 80
2, 40920, Note_on_c, 0, 64, 95
2, 40920, Note_on_c, 0, 60, 95
2, 40920, Note_on_c, 0, 48, 95
2, 41160, Note_off_c, 0, 64, 80
2, 41160, Note_off_c, 0, 60, 80
2, 41160, Note_on_c, 0, 55, 95
2, 41280, Note_off_c, 0, 48, 80
2, 41280, Note_off_c, 0, 55, 80
2, 41280, Note_on_c, 0, 64, 95
2, 41280, Note_on_c, 0, 60, 95
2, 41280, Note_on_c, 0, 48, 95
2, 41760, Note_off_c, 0, 64, 80
2, 41760, Note_off_c, 0, 60, 80
2, 41760, Note_on_c, 0, 55, 95
2, 41880, Note_off_c, 0, 48, 80
2, 41880, Note_off_c, 0, 55, 80
2, 41880, Note_on_c, 0, 64, 95
2, 41880, Note_on_c, 0, 60, 95
2, 41880, Note_on_c, 0, 48, 95
2, 42120, Note_off_c, 0, 64, 80
2, 42120, Note_off_c, 0, 60, 80
2, 42120, Note_on_c, 0, 55, 95
2, 42240, Note_off_c, 0, 48, 80
2, 42240, Note_off_c, 0, 55, 80
2, 42240, Note_on_c, 0, 60, 95
2, 42240, Note_on_c, 0, 53, 95
2, 42240, Note_on_c, 0, 43, 95
2, 42600, Note_off_c, 0, 60, 80
2, 42600, Note_off_c, 0, 53, 80
2, 42600, Note_on_c, 0, 55, 95
2, 42720, Note_off_c, 0, 55, 80
2, 42720, Note_on_c, 0, 55, 95
2, 42840, Note_on_c, 0, 60, 95
2, 43080, Note_off_c, 0, 55, 80
2, 43080, Note_on_c, 0, 55, 95
2, 43200, Note_off_c, 0, 43, 80
2, 43200, Note_off_c, 0, 60, 80
2, 43200, Note_off_c, 0, 55, 80
2, 43200, Note_on_c, 0, 62, 95
2, 43200, Note_on_c, 0, 59, 95
2, 43200, Note_on_c, 0, 43, 95
2, 43800, Note_off_c, 0, 62, 80
2, 43800, Note_off_c, 0, 59, 80
2, 43800, Note_off_c, 0, 43, 80
2, 43800, Note_on_c, 0, 60, 95
2, 43800, Note_on_c, 0, 60, 95
2, 43800, Note_on_c, 0, 41, 95
2, 43920, Note_off_c, 0, 60, 80
2, 43920, Note_off_c, 0, 60, 80
2, 43920, Note_off_c, 0, 41, 80
2, 43920, Note_on_c, 0, 62, 95
2, 43920, Note_on_c, 0, 62, 95
2, 43920, Note_on_c, 0, 43, 95
2, 44160, Note_off_c, 0, 62, 80
2, 44160, Note_off_c, 0, 62, 80
2, 44160, Note_off_c, 0, 43, 80
2, 44160, Note_on_c, 0, 60, 95
2, 44160, Note_on_c, 0, 58, 95
2, 44160, Note_on_c, 0, 53, 95
2, 44160, Note_on_c, 0, 46, 95
2, 44520, Note_off_c, 0, 58, 80
2, 44520, Note_on_c, 0, 58, 95
2, 44640, Note_off_c, 0, 60, 80
2, 44640, Note_off_c, 0, 53, 80
2, 44640, Note_off_c, 0, 46, 80
2, 44640, Note_on_c, 0, 46, 95
2, 44760, Note_off_c, 0, 58, 80
2, 44760, Note_on_c, 0, 65, 95
2, 44880, Note_off_c, 0, 65, 80
2, 44880, Note_on_c, 0, 62, 95
2, 45000, Note_off_c, 0, 62, 80
2, 45000, Note_on_c, 0, 58, 95
2, 45120, Note_off_c, 0, 46, 80
2, 45120, Note_off_c, 0, 58, 80
2, 45120, Note_on_c, 0, 57, 95
2, 45120, Note_on_c, 0, 52, 95
2, 45120, Note_on_c, 0, 45, 95
2, 45480, Note_off_c, 0, 57, 80
2, 45480, Note_on_c, 0, 57, 95
2, 45600, Note_off_c, 0, 52, 80
2, 45600, Note_off_c, 0, 45, 80
2, 45600, Note_on_c, 0, 45, 95
2, 45720, Note_off_c, 0, 57, 80
2, 45720, Note_on_c, 0, 65, 95
2, 45840, Note_off_c, 0, 65, 80
2, 45840, Note_on_c, 0, 62, 95
2, 45960, Note_off_c, 0, 62, 80
2, 45960, Note_on_c, 0, 58, 95
2, 46080, Note_off_c, 0, 45, 80
2, 46080, Note_off_c, 0, 58, 80
2, 46080, Note_on_c, 0, 60, 95
2, 46080, Note_on_c, 0, 56, 95
2, 46080, Note_on_c, 0, 51, 95
2, 46080, Note_on_c, 0, 44, 95
2, 46440, Note_off_c, 0, 56, 80
2, 46440, Note_off_c, 0, 51, 80
2, 46440, Note_on_c, 0, 56, 95
2, 46560, Note_off_c, 0, 60, 80
2, 46560, Note_off_c, 0, 44, 80
2, 46560, Note_on_c, 0, 44, 95
2, 46680, Note_off_c, 0, 56, 80
2, 46680, Note_on_c, 0, 65, 95
2, 46800, Note_off_c, 0, 65, 80
2, 46800, Note_on_c, 0, 62, 95
2, 46920, Note_off_c, 0, 62, 80
2, 46920, Note_on_c, 0, 58, 95
2, 47040, Note_off_c, 0, 44, 80
2, 47040, Note_off_c, 0, 58, 80
2, 47040, Note_on_c, 0, 65, 95
2, 47040, Note_on_c, 0, 63, 95
2, 47040, Note_on_c, 0, 58, 95
2, 47040, Note_on_c, 0, 51, 95
2, 47400, Note_off_c, 0, 63, 80
2, 47400, Note_on_c, 0, 63, 95
2, 47520, Note_off_c, 0, 65, 80
2, 47520, Note_off_c, 0, 58, 80
2, 47520, Note_off_c, 0, 51, 80
2, 47520, Note_on_c, 0, 51, 95
2, 47640, Note_off_c, 0, 63, 80
2, 47640, Note_on_c, 0, 67, 95
2, 47760, Note_off_c, 0, 67, 80
2, 47760, Note_on_c, 0, 63, 95
2, 47880, Note_off_c, 0, 63, 80
2, 47880, Note_on_c, 0, 58, 95
2, 48000, Note_off_c, 0, 51, 80
2, 48000, Note_off_c, 0, 58, 80
2, 48000, Note_on_c, 0, 62, 95
2, 48000, Note_on_c, 0, 58, 95
2, 48000, Note_on_c, 0, 53, 95
2, 48000, Note_on_c, 0, 46, 95
2, 48360, Note_off_c, 0, 58, 80
2, 48360, Note_on_c, 0, 58, 95
2, 48480, Note_off_c, 0, 62, 80
2, 48480, Note_off_c, 0, 53, 80
2, 48480, Note_off_c, 0, 46, 80
2, 48480, Note_on_c, 0, 46, 95
2, 48600, Note_off_c, 0, 58, 80
2, 48600, Note_on_c, 0, 65, 95
2, 48720, Note_off_c, 0, 65, 80
2, 48720, Note_on_c, 0, 62, 95
2, 48840, Note_off_c, 0, 62, 80
2, 48840, Note_on_c, 0, 58, 95
2, 48960, Note_off_c, 0, 46, 80
2, 48960, Note_off_c, 0, 58, 80
2, 48960, Note_on_c, 0, 56, 95
2, 48960, Note_on_c, 0, 49, 95
2, 49080, Note_on_c, 0, 61, 95
2, 49320, Note_off_c, 0, 56, 80
2, 49320, Note_off_c, 0, 49, 80
2, 49320, Note_on_c, 0, 56, 95
2, 49320, Note_on_c, 0, 49, 95
2, 49560, Note_off_c, 0, 61, 80
2, 49560, Note_on_c, 0, 61, 95
2, 49680, Note_off_c, 0, 56, 80
2, 49680, Note_off_c, 0, 49, 80
2, 49680, Note_on_c, 0, 56, 95
2, 49680, Note_on_c, 0, 49, 95
2, 49920, Note_off_c, 0, 61, 80
2, 49920, Note_off_c, 0, 56, 80
2, 49920, Note_off_c, 0, 49, 80
2, 49920, Note_on_c, 0, 56, 95
2, 49920, Note_on_c, 0, 49, 127
2, 50040, Note_on_c, 0, 61, 95
2, 50280, Note_off_c, 0, 56, 80
2, 50280, Note_off_c, 0, 49, 80
2, 50280, Note_off_c, 0, 61, 80
2, 50280, Note_on_c, 0, 56, 95
2, 50280, Note_on_c, 0, 49, 127
2, 50400, Note_on_c, 0, 61, 95
2, 50520, Note_off_c, 0, 61, 80
2, 50520, Note_on_c, 0, 58, 95
2, 50640, Note_on_c, 0, 65, 95
2, 50880, Note_off_c, 0, 56, 80
2, 50880, Note_off_c, 0, 49, 80
2, 50880, Note_off_c, 0, 58, 80
2, 50880, Note_off_c, 0, 65, 80
2, 50880, Note_on_c, 0, 65, 95
2, 50880, Note_on_c, 0, 60, 95
2, 50880, Note_on_c, 0, 55, 95
2, 50880, Note_on_c, 0, 48, 95
2, 51120, Note_off_c, 0, 65, 80
2, 51120, Note_on_c, 0, 43, 95
2, 51240, Note_off_c, 0, 60, 80
2, 51240, Note_off_c, 0, 55, 80
2, 51240, Note_off_c, 0, 48, 80
2, 51240, Note_on_c, 0, 65, 95
2, 51240, Note_on_c, 0, 60, 95
2, 51240, Note_on_c, 0, 55, 95
2, 51240, Note_on_c, 0, 48, 95
2, 51360, Note_off_c, 0, 43, 80
2, 51480, Note_off_c, 0, 65, 80
2, 51480, Note_on_c, 0, 43, 95
2, 51600, Note_off_c, 0, 60, 80
2, 51600, Note_off_c, 0, 55, 80
2, 51600, Note_off_c, 0, 48, 80
2, 51600, Note_on_c, 0, 64, 95
2, 51600, Note_on_c, 0, 60, 95
2, 51600, Note_on_c, 0, 55, 95
2, 51600, Note_on_c, 0, 48, 95
2, 52800, Note_off_c, 0, 43, 80
2, 52800, Note_off_c, 0, 64, 80
2, 52800, Note_off_c, 0, 60, 80
2, 52800, Note_off_c, 0, 55, 80
2, 52800, Note_off_c, 0, 48, 80
2, 60480, Note_on_c, 0, 60, 95
2, 60480, Note_on_c, 0, 58, 95
2, 60480, Note_on_c, 0, 53, 95
2, 60480, Note_on_c, 0, 46, 95
2, 60840, Note_off_c, 0, 58, 80
2, 60840, Note_on_c, 0, 58, 95
2, 60960, Note_off_c, 0, 60, 80
2, 60960, Note_off_c, 0, 53, 80
2, 60960, Note_off_c, 0, 46, 80
2, 60960, Note_on_c, 0, 46, 95
2, 61080, Note_off_c, 0, 58, 80
2, 61080, Note_on_c, 0, 65, 95
2, 61200, Note_off_c, 0, 65, 80
2, 61200, Note_on_c, 0, 62, 95
2, 61320, Note_off_c, 0, 62, 80
2, 61320, Note_on_c, 0, 58, 95
2, 61440, Note_off_c, 0, 46, 80
2, 61440, Note_off_c, 0, 58, 80
2, 61440, Note_on_c, 0, 57, 95
2, 61440, Note_on_c, 0, 52, 95
2, 61440, Note_on_c, 0, 45, 95
2, 61800, Note_off_c, 0, 57, 80
2, 61800, Note_on_c, 0, 57, 95
2, 61920, Note_off_c, 0, 52, 80
2, 61920, Note_off_c, 0, 45, 80
2, 61920, Note_on_c, 0, 45, 95
2, 62040, Note_off_c, 0, 57, 80
2, 62040, Note_on_c, 0, 65, 95
2, 62160, Note_off_c, 0, 65, 80
2, 62160, Note_on_c, 0, 62, 95
2, 62280, Note_off_c, 0, 62, 80
2, 62280, Note_on_c, 0, 58, 95
2, 62400, Note_off_c, 0, 45, 80
2, 62400, Note_off_c, 0, 58, 80
2, 62400, Note_on_c, 0, 60, 95
2, 62400, Note_on_c, 0, 56, 95
2, 62400, Note_on_c, 0, 51, 95
2, 62400, Note_on_c, 0, 44, 95
2, 62760, Note_off_c, 0, 56, 80
2, 62760, Note_off_c, 0, 51, 80
2, 62760, Note_on_c, 0, 56, 95
2, 62880, Note_off_c, 0, 60, 80
2, 62880, Note_off_c, 0, 44, 80
2, 62880, Note_on_c, 0, 44, 95
2, 63000, Note_off_c, 0, 56, 80
2, 63000, Note_on_c, 0, 65, 95
2, 63120, Note_off_c, 0, 65, 80
2, 63120, Note_on_c, 0, 62, 95
2, 63240, Note_off_c, 0, 62, 80
2, 63240, Note_on_c, 0, 58, 95
2, 63360, Note_off_c, 0, 44, 80
2, 63360, Note_off_c, 0, 58, 80
2, 63360, Note_on_c, 0, 65, 95
2, 63360, Note_on_c, 0, 63, 95
2, 63360, Note_on_c, 0, 58, 95
2, 63360, Note_on_c, 0, 51, 95
2, 63720, Note_off_c, 0, 63, 80
2, 63720, Note_on_c, 0, 63, 95
2, 63840, Note_off_c, 0, 65, 80
2, 63840, Note_off_c, 0, 58, 80
2, 63840, Note_off_c, 0, 51, 80
2, 63840, Note_on_c, 0, 51, 95
2, 63960, Note_off_c, 0, 63, 80
2, 63960, Note_on_c, 0, 67, 95
2, 64080, Note_off_c, 0, 67, 80
2, 64080, Note_on_c, 0, 63, 95
2, 64200, Note_off_c, 0, 63, 80
2, 64200, Note_on_c, 0, 58, 95
2, 64320, Note_off_c, 0, 51, 80
2, 64320, Note_off_c, 0, 58, 80
2, 64320, Note_on_c, 0, 60, 95
2, 64320, Note_on_c, 0, 58, 95
2, 64320, Note_on_c, 0, 53, 95
2, 64320, Note_on_c, 0, 46, 95
2, 64680, Note_off_c, 0, 58, 80
2, 64680, Note_on_c, 0, 58, 95
2, 64800, Note_off_c, 0, 60, 80
2, 64800, Note_off_c, 0, 53, 80
2, 64800, Note_off_c, 0, 46, 80
2, 64800, Note_on_c, 0, 46, 95
2, 64920, Note_off_c, 0, 58, 80
2, 64920, Note_on_c, 0, 65, 95
2, 65040, Note_off_c, 0, 65, 80
2, 65040, Note_on_c, 0, 62, 95
2, 65160, Note_off_c, 0, 62, 80
2, 65160, Note_on_c, 0, 58, 95
2, 65280, Note_off_c, 0, 46, 80
2, 65280, Note_off_c, 0, 58, 80
2, 65280, Note_on_c, 0, 57, 95
2, 65280, Note_on_c, 0, 52, 95
2, 65280, Note_on_c, 0, 45, 95
2, 65640, Note_off_c, 0, 57, 80
2, 65640, Note_on_c, 0, 57, 95
2, 65760, Note_off_c, 0, 52, 80
2, 65760, Note_off_c, 0, 45, 80
2, 65760, Note_on_c, 0, 45, 95
2, 65880, Note_off_c, 0, 57, 80
2, 65880, Note_on_c, 0, 65, 95
2, 66000, Note_off_c, 0, 65, 80
2, 66000, Note_on_c, 0, 62, 95
2, 66120, Note_off_c, 0, 62, 80
2, 66120, Note_on_c, 0, 58, 95
2, 66240, Note_off_c, 0, 45, 80
2, 66240, Note_off_c, 0, 58, 80
2, 66240, Note_on_c, 0, 60, 95
2, 66240, Note_on_c, 0, 56, 95
2, 66240, Note_on_c, 0, 51, 95
2, 66240, Note_on_c, 0, 44, 95
2, 66600, Note_off_c, 0, 56, 80
2, 66600, Note_off_c, 0, 51, 80
2, 66600, Note_on_c, 0, 56, 95
2, 66720, Note_off_c, 0, 60, 80
2, 66720, Note_off_c, 0, 44, 80
2, 66720, Note_on_c, 0, 44, 95
2, 66840, Note_off_c, 0, 56, 80
2, 66840, Note_on_c, 0, 65, 95
2, 66960, Note_off_c, 0, 65, 80
2, 66960, Note_on_c, 0, 62, 95
2, 67080, Note_off_c, 0, 62, 80
2, 67080, Note_on_c, 0, 58, 95
2, 67200, Note_off_c, 0, 44, 80
2, 67200, Note_off_c, 0, 58, 80
2, 67200, Note_on_c, 0, 65, 95
2, 67200, Note_on_c, 0, 63, 95
2, 67200, Note_on_c, 0, 58, 95
2, 67200, Note_on_c, 0, 51, 95
2, 67560, Note_off_c, 0, 63, 80
2, 67560, Note_on_c, 0, 63, 95
2, 67680, Note_off_c, 0, 65, 80
2, 67680, Note_off_c, 0, 58, 80
2, 67680, Note_off_c, 0, 51, 80
2, 67680, Note_on_c, 0, 51, 95
2, 67800, Note_off_c, 0, 63, 80
2, 67800, Note_on_c, 0, 67, 95
2, 67920, Note_off_c, 0, 67, 80
2, 67920, Note_on_c, 0, 63, 95
2, 68040, Note_off_c, 0, 63, 80
2, 68040, Note_on_c, 0, 58, 95
2, 68160, Note_off_c, 0, 51, 80
2, 68160, Note_off_c, 0, 58, 80
2, 75840, Note_on_c, 0, 60, 95
2, 75840, Note_on_c, 0, 58, 95
2, 75840, Note_on_c, 0, 53, 95
2, 75840, Note_on_c, 0, 46, 95
2, 76200, Note_off_c, 0, 58, 80
2, 76200, Note_on_c, 0, 58, 95
2, 76320, Note_off_c, 0, 60, 80
2, 76320, Note_off_c, 0, 53, 80
2, 76320, Note_off_c, 0, 46, 80
2, 76320, Note_on_c, 0, 46, 95
2, 76440, Note_off_c, 0, 58, 80
2, 76440, Note_on_c, 0, 65, 95
2, 76560, Note_off_c, 0, 65, 80
2, 76560, Note_on_c, 0, 62, 95
2, 76680, Note_off_c, 0, 62, 80
2, 76680, Note_on_c, 0, 58, 95
2, 76800, Note_off_c, 0, 46, 80
2, 76800, Note_off_c, 0, 58, 80
2, 76800, Note_on_c, 0, 57, 95
2, 76800, Note_on_c, 0, 52, 95
2, 76800, Note_on_c, 0, 45, 95
2, 77160, Note_off_c, 0, 57, 80
2, 77160, Note_on_c, 0, 57, 95
2, 77280, Note_off_c, 0, 52, 80
2, 77280, Note_off_c, 0, 45, 80
2, 77280, Note_on_c, 0, 45, 95
2, 77400, Note_off_c, 0, 57, 80
2, 77400, Note_on_c, 0, 65, 95
2, 77520, Note_off_c, 0, 65, 80
2, 77520, Note_on_c, 0, 62, 95
2, 77640, Note_off_c, 0, 62, 80
2, 77640, Note_on_c, 0, 58, 95
2, 77760, Note_off_c, 0, 45, 80
2, 77760, Note_off_c, 0, 58, 80
2, 77760, Note_on_c, 0, 60, 95
2, 77760, Note_on_c, 0, 56, 95
2, 77760, Note_on_c, 0, 51, 95
2, 77760, Note_on_c, 0, 44, 95
2, 78120, Note_off_c, 0, 56, 80
2, 78120, Note_off_c, 0, 51, 80
2, 78120, Note_on_c, 0, 56, 95
2, 78240, Note_off_c, 0, 60, 80
2, 78240, Note_off_c, 0, 44, 80
2, 78240, Note_on_c, 0, 44, 95
2, 78360, Note_off_c, 0, 56, 80
2, 78360, Note_on_c, 0, 65, 95
2, 78480, Note_off_c, 0, 65, 80
2, 78480, Note_on_c, 0, 62, 95
2, 78600, Note_off_c, 0, 62, 80
2, 78600, Note_on_c, 0, 58, 95
2, 78720, Note_off_c, 0, 44, 80
2, 78720, Note_off_c, 0, 58, 80
2, 78720, Note_on_c, 0, 65, 95
2, 78720, Note_on_c, 0, 63, 95
2, 78720, Note_on_c, 0, 58, 95
2, 78720, Note_on_c, 0, 51, 95
2, 79080, Note_off_c, 0, 63, 80
2, 79080, Note_on_c, 0, 63, 95
2, 79200, Note_off_c, 0, 65, 80
2, 79200, Note_off_c, 0, 58, 80
2, 79200, Note_off_c, 0, 51, 80
2, 79200, Note_on_c, 0, 51, 95
2, 79320, Note_off_c, 0, 63, 80
2, 79320, Note_on_c, 0, 67, 95
2, 79440, Note_off_c, 0, 67, 80
2, 79440, Note_on_c, 0, 63, 95
2, 79560, Note_off_c, 0, 63, 80
2, 79560, Note_on_c, 0, 58, 95
2, 79680, Note_off_c, 0, 51, 80
2, 79680, Note_off_c, 0, 58, 80
2, 79680, Note_on_c, 0, 60, 95
2, 79680, Note_on_c, 0, 58, 95
2, 79680, Note_on_c, 0, 53, 95
2, 79680, Note_on_c, 0, 46, 95
2, 80040, Note_off_c, 0, 58, 80
2, 80040, Note_on_c, 0, 58, 95
2, 80160, Note_off_c, 0, 60, 80
2, 80160, Note_off_c, 0, 53, 80
2, 80160, Note_off_c, 0, 46, 80
2, 80160, Note_on_c, 0, 46, 95
2, 80280, Note_off_c, 0, 58, 80
2, 80280, Note_on_c, 0, 65, 95
2, 80400, Note_off_c, 0, 65, 80
2, 80400, Note_on_c, 0, 62, 95
2, 80520, Note_off_c, 0, 62, 80
2, 80520, Note_on_c, 0, 58, 95
2, 80640, Note_off_c, 0, 46, 80
2, 80640, Note_off_c, 0, 58, 80
2, 80640, Note_on_c, 0, 57, 95
2, 80640, Note_on_c, 0, 52, 95
2, 80640, Note_on_c, 0, 45, 95
2, 81000, Note_off_c, 0, 57, 80
2, 81000, Note_on_c, 0, 57, 95
2, 81120, Note_off_c, 0, 52, 80
2, 81120, Note_off_c, 0, 45, 80
2, 81120, Note_on_c, 0, 45, 95
2, 81240, Note_off_c, 0, 57, 80
2, 81240, Note_on_c, 0, 65, 95
2, 81360, Note_off_c, 0, 65, 80
2, 81360, Note_on_c, 0, 62, 95
2, 81480, Note_off_c, 0, 62, 80
2, 81480, Note_on_c, 0, 58, 95
2, 81600, Note_off_c, 0, 45, 80
2, 81600, Note_off_c, 0, 58, 80
2, 81600, Note_on_c, 0, 60, 95
2, 81600, Note_on_c, 0, 56, 95
2, 81600, Note_on_c, 0, 51, 95
2, 81600, Note_on_c, 0, 44, 95
2, 81960, Note_off_c, 0, 56, 80
2, 81960, Note_off_c, 0, 51, 80
2, 81960, Note_on_c, 0, 56, 95
2, 82080, Note_off_c, 0, 60, 80
2, 82080, Note_off_c, 0, 44, 80
2, 82080, Note_on_c, 0, 44, 95
2, 82200, Note_off_c, 0, 56, 80
2, 82200, Note_on_c, 0, 65, 95
2, 82320, Note_off_c, 0, 65, 80
2, 82320, Note_on_c, 0, 62, 95
2, 82440, Note_off_c, 0, 62, 80
2, 82440, Note_on_c, 0, 58, 95
2, 82560, Note_off_c, 0, 44, 80
2, 82560, Note_off_c, 0, 58, 80
2, 82560, Note_on_c, 0, 65, 95
2, 82560, Note_on_c, 0, 63, 95
2, 82560, Note_on_c, 0, 58, 95
2, 82560, Note_on_c, 0, 51, 95
2, 82920, Note_off_c, 0, 63, 80
2, 82920, Note_on_c, 0, 63, 95
2, 83040, Note_off_c, 0, 65, 80
2, 83040, Note_off_c, 0, 58, 80
2, 83040, Note_off_c, 0, 51, 80
2, 83040, Note_on_c, 0, 51, 95
2, 83160, Note_off_c, 0, 63, 80
2, 83160, Note_on_c, 0, 67, 95
2, 83280, Note_off_c, 0, 67, 80
2, 83280, Note_on_c, 0, 63, 95
2, 83400, Note_off_c, 0, 63, 80
2, 83400, Note_on_c, 0, 58, 95
2, 83520, Note_off_c, 0, 51, 80
2, 83520, Note_off_c, 0, 58, 80
2, 98880, Note_on_c, 0, 70, 95
2, 98880, Note_on_c, 0, 65, 95
2, 98880, Note_on_c, 0, 60, 95
2, 99240, Note_off_c, 0, 70, 80
2, 99240, Note_off_c, 0, 65, 80
2, 99240, Note_off_c, 0, 60, 80
2, 99240, Note_on_c, 0, 70, 95
2, 99240, Note_on_c, 0, 65, 95
2, 99240, Note_on_c, 0, 60, 95
2, 99360, Note_off_c, 0, 70, 80
2, 99360, Note_off_c, 0, 65, 80
2, 99360, Note_off_c, 0, 60, 80
2, 99360, Note_on_c, 0, 70, 95
2, 99360, Note_on_c, 0, 65, 95
2, 99360, Note_on_c, 0, 60, 95
2, 99600, Note_off_c, 0, 70, 80
2, 99600, Note_off_c, 0, 65, 80
2, 99600, Note_off_c, 0, 60, 80
2, 99600, Note_on_c, 0, 70, 95
2, 99600, Note_on_c, 0, 65, 95
2, 99600, Note_on_c, 0, 60, 95
2, 99840, Note_off_c, 0, 70, 80
2, 99840, Note_off_c, 0, 65, 80
2, 99840, Note_off_c, 0, 60, 80
2, 99840, Note_on_c, 0, 65, 95
2, 99840, Note_on_c, 0, 60, 95
2, 100080, Note_off_c, 0, 65, 80
2, 100080, Note_off_c, 0, 60, 80
2, 100080, Note_on_c, 0, 65, 95
2, 100080, Note_on_c, 0, 60, 95
2, 100320, Note_off_c, 0, 65, 80
2, 100320, Note_off_c, 0, 60, 80
2, 100320, Note_on_c, 0, 65, 95
2, 100320, Note_on_c, 0, 60, 95
2, 100560, Note_off_c, 0, 65, 80
2, 100560, Note_off_c, 0, 60, 80
2, 100560, Note_on_c, 0, 65, 95
2, 100560, Note_on_c, 0, 60, 95
2, 100800, Note_off_c, 0, 65, 80
2, 100800, Note_off_c, 0, 60, 80
2, 100800, Note_on_c, 0, 67, 95
2, 100800, Note_on_c, 0, 64, 95
2, 100800, Note_on_c, 0, 60, 95
2, 101160, Note_off_c, 0, 67, 80
2, 101160, Note_off_c, 0, 64, 80
2, 101160, Note_off_c, 0, 60, 80
2, 101160, Note_on_c, 0, 67, 95
2, 101160, Note_on_c, 0, 64, 95
2, 101160, Note_on_c, 0, 60, 95
2, 101280, Note_off_c, 0, 67, 80
2, 101280, Note_off_c, 0, 64, 80
2, 101280, Note_off_c, 0, 60, 80
2, 101280, Note_on_c, 0, 67, 95
2, 101280, Note_on_c, 0, 64, 95
2, 101280, Note_on_c, 0, 60, 95
2, 101640, Note_off_c, 0, 67, 80
2, 101640, Note_off_c, 0, 64, 80
2, 101640, Note_off_c, 0, 60, 80
2, 101640, Note_on_c, 0, 67, 95
2, 101640, Note_on_c, 0, 64, 95
2, 101640, Note_on_c, 0, 60, 95
2, 101760, Note_off_c, 0, 67, 80
2, 101760, Note_off_c, 0, 64, 80
2, 101760, Note_off_c, 0, 60, 80
2, 101760, Note_on_c, 0, 67, 95
2, 101760, Note_on_c, 0, 64, 95
2, 101760, Note_on_c, 0, 60, 95
2, 101880, Note_off_c, 0, 67, 80
2, 101880, Note_off_c, 0, 64, 80
2, 101880, Note_off_c, 0, 60, 80
2, 101880, Note_on_c, 0, 67, 95
2, 101880, Note_on_c, 0, 65, 95
2, 101880, Note_on_c, 0, 60, 95
2, 102120, Note_off_c, 0, 67, 80
2, 102120, Note_off_c, 0, 65, 80
2, 102120, Note_off_c, 0, 60, 80
2, 102120, Note_on_c, 0, 67, 95
2, 102120, Note_on_c, 0, 65, 95
2, 102120, Note_on_c, 0, 60, 95
2, 102360, Note_off_c, 0, 67, 80
2, 102360, Note_off_c, 0, 65, 80
2, 102360, Note_off_c, 0, 60, 80
2, 102360, Note_on_c, 0, 67, 95
2, 102360, Note_on_c, 0, 64, 95
2, 102360, Note_on_c, 0, 60, 95
2, 102720, Note_off_c, 0, 67, 80
2, 102720, Note_off_c, 0, 64, 80
2, 102720, Note_off_c, 0, 60, 80
2, 102720, Note_on_c, 0, 70, 95
2, 102720, Note_on_c, 0, 65, 95
2, 102720, Note_on_c, 0, 60, 95
2, 103080, Note_off_c, 0, 70, 80
2, 103080, Note_off_c, 0, 65, 80
2, 103080, Note_off_c, 0, 60, 80
2, 103080, Note_on_c, 0, 70, 95
2, 103080, Note_on_c, 0, 65, 95
2, 103080, Note_on_c, 0, 60, 95
2, 103200, Note_off_c, 0, 70, 80
2, 103200, Note_off_c, 0, 65, 80
2, 103200, Note_off_c, 0, 60, 80
2, 103200, Note_on_c, 0, 70, 95
2, 103200, Note_on_c, 0, 65, 95
2, 103200, Note_on_c, 0, 60, 95
2, 103440, Note_off_c, 0, 70, 80
2, 103440, Note_off_c, 0, 65, 80
2, 103440, Note_off_c, 0, 60, 80
2, 103440, Note_on_c, 0, 70, 95
2, 103440, Note_on_c, 0, 65, 95
2, 103440, Note_on_c, 0, 60, 95
2, 103680, Note_off_c, 0, 70, 80
2, 103680, Note_off_c, 0, 65, 80
2, 103680, Note_off_c, 0, 60, 80
2, 103680, Note_on_c, 0, 65, 95
2, 103680, Note_on_c, 0, 60, 95
2, 103920, Note_off_c, 0, 65, 80
2, 103920, Note_off_c, 0, 60, 80
2, 103920, Note_on_c, 0, 65, 95
2, 103920, Note_on_c, 0, 60, 95
2, 104160, Note_off_c, 0, 65, 80
2, 104160, Note_off_c, 0, 60, 80
2, 104160, Note_on_c, 0, 65, 95
2, 104160, Note_on_c, 0, 60, 95
2, 104400, Note_off_c, 0, 65, 80
2, 104400, Note_off_c, 0, 60, 80
2, 104400, Note_on_c, 0, 65, 95
2, 104400, Note_on_c, 0, 60, 95
2, 104640, Note_off_c, 0, 65, 80
2, 104640, Note_off_c, 0, 60, 80
2, 104640, Note_on_c, 0, 67, 95
2, 104640, Note_on_c, 0, 64, 95
2, 104640, Note_on_c, 0, 60, 95
2, 105000, Note_off_c, 0, 67, 80
2, 105000, Note_off_c, 0, 64, 80
2, 105000, Note_off_c, 0, 60, 80
2, 105000, Note_on_c, 0, 67, 95
2, 105000, Note_on_c, 0, 64, 95
2, 105000, Note_on_c, 0, 60, 95
2, 105120, Note_off_c, 0, 67, 80
2, 105120, Note_off_c, 0, 64, 80
2, 105120, Note_off_c, 0, 60, 80
2, 105120, Note_on_c, 0, 67, 95
2, 105120, Note_on_c, 0, 64, 95
2, 105120, Note_on_c, 0, 60, 95
2, 105480, Note_off_c, 0, 67, 80
2, 105480, Note_off_c, 0, 64, 80
2, 105480, Note_off_c, 0, 60, 80
2, 105480, Note_on_c, 0, 67, 95
2, 105480, Note_on_c, 0, 64, 95
2, 105480, Note_on_c, 0, 60, 95
2, 105600, Note_off_c, 0, 67, 80
2, 105600, Note_off_c, 0, 64, 80
2, 105600, Note_off_c, 0, 60, 80
2, 105600, Note_on_c, 0, 67, 95
2, 105600, Note_on_c, 0, 64, 95
2, 105600, Note_on_c, 0, 60, 95
2, 105720, Note_off_c, 0, 67, 80
2, 105720, Note_off_c, 0, 64, 80
2, 105720, Note_off_c, 0, 60, 80
2, 105720, Note_on_c, 0, 67, 95
2, 105720, Note_on_c, 0, 65, 95
2, 105720, Note_on_c, 0, 60, 95
2, 105960, Note_off_c, 0, 67, 80
2, 105960, Note_off_c, 0, 65, 80
2, 105960, Note_off_c, 0, 60, 80
2, 105960, Note_on_c, 0, 67, 95
2, 105960, Note_on_c, 0, 65, 95
2, 105960, Note_on_c, 0, 60, 95
2, 106200, Note_off_c, 0, 67, 80
2, 106200, Note_off_c, 0, 65, 80
2, 106200, Note_off_c, 0, 60, 80
2, 106200, Note_on_c, 0, 67, 95
2, 106200, Note_on_c, 0, 64, 95
2, 106200, Note_on_c, 0, 60, 95
2, 106560, Note_off_c, 0, 67, 80
2, 106560, Note_off_c, 0, 64, 80
2, 106560, Note_off_c, 0, 60, 80
2, 106560, Note_on_c, 0, 70, 95
2, 106560, Note_on_c, 0, 65, 95
2, 106560, Note_on_c, 0, 60, 95
2, 106920, Note_off_c, 0, 70, 80
2, 106920, Note_off_c, 0, 65, 80
2, 106920, Note_off_c, 0, 60, 80
2, 106920, Note_on_c, 0, 70, 95
2, 106920, Note_on_c, 0, 65, 95
2, 106920, Note_on_c, 0, 60, 95
2, 107040, Note_off_c, 0, 70, 80
2, 107040, Note_off_c, 0, 65, 80
2, 107040, Note_off_c, 0, 60, 80
2, 107040, Note_on_c, 0, 70, 95
2, 107040, Note_on_c, 0, 65, 95
2, 107040, Note_on_c, 0, 60, 95
2, 107280, Note_off_c, 0, 70, 80
2, 107280, Note_off_c, 0, 65, 80
2, 107280, Note_off_c, 0, 60, 80
2, 107280, Note_on_c, 0, 70, 95
2, 107280, Note_on_c, 0, 65, 95
2, 107280, Note_on_c, 0, 60, 95
2, 107520, Note_off_c, 0, 70, 80
2, 107520, Note_off_c, 0, 65, 80
2, 107520, Note_off_c, 0, 60, 80
2, 107520, Note_on_c, 0, 65, 95
2, 107520, Note_on_c, 0, 60, 95
2, 107760, Note_off_c, 0, 65, 80
2, 107760, Note_off_c, 0, 60, 80
2, 107760, Note_on_c, 0, 65, 95
2, 107760, Note_on_c, 0, 60, 95
2, 108000, Note_off_c, 0, 65, 80
2, 108000, Note_off_c, 0, 60, 80
2, 108000, Note_on_c, 0, 65, 95
2, 108000, Note_on_c, 0, 60, 95
2, 108240, Note_off_c, 0, 65, 80
2, 108240, Note_off_c, 0, 60, 80
2, 108240, Note_on_c, 0, 65, 95
2, 108240, Note_on_c, 0, 60, 95
2, 108480, Note_off_c, 0, 65, 80
2, 108480, Note_off_c, 0, 60, 80
2, 108480, Note_on_c, 0, 67, 95
2, 108480, Note_on_c, 0, 64, 95
2, 108480, Note_on_c, 0, 60, 95
2, 108840, Note_off_c, 0, 67, 80
2, 108840, Note_off_c, 0, 64, 80
2, 108840, Note_off_c, 0, 60, 80
2, 108840, Note_on_c, 0, 67, 95
2, 108840, Note_on_c, 0, 64, 95
2, 108840, Note_on_c, 0, 60, 95
2, 108960, Note_off_c, 0, 67, 80
2, 108960, Note_off_c, 0, 64, 80
2, 108960, Note_off_c, 0, 60, 80
2, 108960, Note_on_c, 0, 67, 95
2, 108960, Note_on_c, 0, 64, 95
2, 108960, Note_on_c, 0, 60, 95
2, 109320, Note_off_c, 0, 67, 80
2, 109320, Note_off_c, 0, 64, 80
2, 109320, Note_off_c, 0, 60, 80
2, 109320, Note_on_c, 0, 67, 95
2, 109320, Note_on_c, 0, 64, 95
2, 109320, Note_on_c, 0, 60, 95
2, 109440, Note_off_c, 0, 67, 80
2, 109440, Note_off_c, 0, 64, 80
2, 109440, Note_off_c, 0, 60, 80
2, 109440, Note_on_c, 0, 67, 95
2, 109440, Note_on_c, 0, 64, 95
2, 109440, Note_on_c, 0, 60, 95
2, 109560, Note_off_c, 0, 67, 80
2, 109560, Note_off_c, 0, 64, 80
2, 109560, Note_off_c, 0, 60, 80
2, 109560, Note_on_c, 0, 67, 95
2, 109560, Note_on_c, 0, 65, 95
2, 109560, Note_on_c, 0, 60, 95
2, 109800, Note_off_c, 0, 67, 80
2, 109800, Note_off_c, 0, 65, 80
2, 109800, Note_off_c, 0, 60, 80
2, 109800, Note_on_c, 0, 67, 95
2, 109800, Note_on_c, 0, 65, 95
2, 109800, Note_on_c, 0, 60, 95
2, 110040, Note_off_c, 0, 67, 80
2, 110040, Note_off_c, 0, 65, 80
2, 110040, Note_off_c, 0, 60, 80
2, 110040, Note_on_c, 0, 67, 95
2, 110040, Note_on_c, 0, 64, 95
2, 110040, Note_on_c, 0, 60, 95
2, 110400, Note_off_c, 0, 67, 80
2, 110400, Note_off_c, 0, 64, 80
2, 110400, Note_off_c, 0, 60, 80
2, 110400, Note_on_c, 0, 70, 95
2, 110400, Note_on_c, 0, 65, 95
2, 110400, Note_on_c, 0, 60, 95
2, 110760, Note_off_c, 0, 70, 80
2, 110760, Note_off_c, 0, 65, 80
2, 110760, Note_off_c, 0, 60, 80
2, 110760, Note_on_c, 0, 70, 95
2, 110760, Note_on_c, 0, 65, 95
2, 110760, Note_on_c, 0, 60, 95
2, 110880, Note_off_c, 0, 70, 80
2, 110880, Note_off_c, 0, 65, 80
2, 110880, Note_off_c, 0, 60, 80
2, 110880, Note_on_c, 0, 70, 95
2, 110880, Note_on_c, 0, 65, 95
2, 110880, Note_on_c, 0, 60, 95
2, 111120, Note_off_c, 0, 70, 80
2, 111120, Note_off_c, 0, 65, 80
2, 111120, Note_off_c, 0, 60, 80
2, 111120, Note_on_c, 0, 70, 95
2, 111120, Note_on_c, 0, 65, 95
2, 111120, Note_on_c, 0, 60, 95
2, 111360, Note_off_c, 0, 70, 80
2, 111360, Note_off_c, 0, 65, 80
2, 111360, Note_off_c, 0, 60, 80
2, 111360, Note_on_c, 0, 65, 95
2, 111360, Note_on_c, 0, 60, 95
2, 111600, Note_off_c, 0, 65, 80
2, 111600, Note_off_c, 0, 60, 80
2, 111600, Note_on_c, 0, 65, 95
2, 111600, Note_on_c, 0, 60, 95
2, 111840, Note_off_c, 0, 65, 80
2, 111840, Note_off_c, 0, 60, 80
2, 111840, Note_on_c, 0, 65, 95
2, 111840, Note_on_c, 0, 60, 95
2, 112080, Note_off_c, 0, 65, 80
2, 112080, Note_off_c, 0, 60, 80
2, 112080, Note_on_c, 0, 65, 95
2, 112080, Note_on_c, 0, 60, 95
2, 112320, Note_off_c, 0, 65, 80
2, 112320, Note_off_c, 0, 60, 80
2, 112320, Note_on_c, 0, 67, 95
2, 112320, Note_on_c, 0, 64, 95
2, 112320, Note_on_c, 0, 60, 95
2, 112680, Note_off_c, 0, 67, 80
2, 112680, Note_off_c, 0, 64, 80
2, 112680, Note_off_c, 0, 60, 80
2, 112680, Note_on_c, 0, 67, 95
2, 112680, Note_on_c, 0, 64, 95
2, 112680, Note_on_c, 0, 60, 95
2, 112800, Note_off_c, 0, 67, 80
2, 112800, Note_off_c, 0, 64, 80
2, 112800, Note_off_c, 0, 60, 80
2, 112800, Note_on_c, 0, 67, 95
2, 112800, Note_on_c, 0, 64, 95
2, 112800, Note_on_c, 0, 60, 95
2, 113160, Note_off_c, 0, 67, 80
2, 113160, Note_off_c, 0, 64, 80
2, 113160, Note_off_c, 0, 60, 80
2, 113160, Note_on_c, 0, 67, 95
2, 113160, Note_on_c, 0, 64, 95
2, 113160, Note_on_c, 0, 60, 95
2, 113280, Note_off_c, 0, 67, 80
2, 113280, Note_off_c, 0, 64, 80
2, 113280, Note_off_c, 0, 60, 80
2, 113280, Note_on_c, 0, 67, 95
2, 113280, Note_on_c, 0, 64, 95
2, 113280, Note_on_c, 0, 60, 95
2, 113400, Note_off_c, 0, 67, 80
2, 113400, Note_off_c, 0, 64, 80
2, 113400, Note_off_c, 0, 60, 80
2, 113400, Note_on_c, 0, 67, 95
2, 113400, Note_on_c, 0, 65, 95
2, 113400, Note_on_c, 0, 60, 95
2, 113640, Note_off_c, 0, 67, 80
2, 113640, Note_off_c, 0, 65, 80
2, 113640, Note_off_c, 0, 60, 80
2, 113640, Note_on_c, 0, 67, 95
2, 113640, Note_on_c, 0, 65, 95
2, 113640, Note_on_c, 0, 60, 95
2, 113880, Note_off_c, 0, 67, 80
2, 113880, Note_off_c, 0, 65, 80
2, 113880, Note_off_c, 0, 60, 80
2, 113880, Note_on_c, 0, 67, 95
2, 113880, Note_on_c, 0, 64, 95
2, 113880, Note_on_c, 0, 60, 95
2, 114240, Note_off_c, 0, 67, 80
2, 114240, Note_off_c, 0, 64, 80
2, 114240, Note_off_c, 0, 60, 80
2, 114240, Note_on_c, 0, 70, 95
2, 114240, Note_on_c, 0, 65, 95
2, 114240, Note_on_c, 0, 60, 95
2, 114600, Note_off_c, 0, 70, 80
2, 114600, Note_off_c, 0, 65, 80
2, 114600, Note_off_c, 0, 60, 80
2, 114600, Note_on_c, 0, 70, 95
2, 114600, Note_on_c, 0, 65, 95
2, 114600, Note_on_c, 0, 60, 95
2, 114720, Note_off_c, 0, 70, 80
2, 114720, Note_off_c, 0, 65, 80
2, 114720, Note_off_c, 0, 60, 80
2, 114720, Note_on_c, 0, 70, 95
2, 114720, Note_on_c, 0, 65, 95
2, 114720, Note_on_c, 0, 60, 95
2, 114960, Note_off_c, 0, 70, 80
2, 114960, Note_off_c, 0, 65, 80
2, 114960, Note_off_c, 0, 60, 80
2, 114960, Note_on_c, 0, 70, 95
2, 114960, Note_on_c, 0, 65, 95
2, 114960, Note_on_c, 0, 60, 95
2, 115200, Note_off_c, 0, 70, 80
2, 115200, Note_off_c, 0, 65, 80
2, 115200, Note_off_c, 0, 60, 80
2, 115200, Note_on_c, 0, 65, 95
2, 115200, Note_on_c, 0, 60, 95
2, 115440, Note_off_c, 0, 65, 80
2, 115440, Note_off_c, 0, 60, 80
2, 115440, Note_on_c, 0, 65, 95
2, 115440, Note_on_c, 0, 60, 95
2, 115680, Note_off_c, 0, 65, 80
2, 115680, Note_off_c, 0, 60, 80
2, 115680, Note_on_c, 0, 65, 95
2, 115680, Note_on_c, 0, 60, 95
2, 115920, Note_off_c, 0, 65, 80
2, 115920, Note_off_c, 0, 60, 80
2, 115920, Note_on_c, 0, 65, 95
2, 115920, Note_on_c, 0, 60, 95
2, 116160, Note_off_c, 0, 65, 80
2, 116160, Note_off_c, 0, 60, 80
2, 116160, Note_on_c, 0, 67, 95
2, 116160, Note_on_c, 0, 64, 95
2, 116160, Note_on_c, 0, 60, 95
2, 116520, Note_off_c, 0, 67, 80
2, 116520, Note_off_c, 0, 64, 80
2, 116520, Note_off_c, 0, 60, 80
2, 116520, Note_on_c, 0, 67, 95
2, 116520, Note_on_c, 0, 64, 95
2, 116520, Note_on_c, 0, 60, 95
2, 116640, Note_off_c, 0, 67, 80
2, 116640, Note_off_c, 0, 64, 80
2, 116640, Note_off_c, 0, 60, 80
2, 116640, Note_on_c, 0, 67, 95
2, 116640, Note_on_c, 0, 64, 95
2, 116640, Note_on_c, 0, 60, 95
2, 117000, Note_off_c, 0, 67, 80
2, 117000, Note_off_c, 0, 64, 80
2, 117000, Note_off_c, 0, 60, 80
2, 117000, Note_on_c, 0, 67, 95
2, 117000, Note_on_c, 0, 64, 95
2, 117000, Note_on_c, 0, 60, 95
2, 117120, Note_off_c, 0, 67, 80
2, 117120, Note_off_c, 0, 64, 80
2, 117120, Note_off_c, 0, 60, 80
2, 117120, Note_on_c, 0, 67, 95
2, 117120, Note_on_c, 0, 64, 95
2, 117120, Note_on_c, 0, 60, 95
2, 117240, Note_off_c, 0, 67, 80
2, 117240, Note_off_c, 0, 64, 80
2, 117240, Note_off_c, 0, 60, 80
2, 117240, Note_on_c, 0, 67, 95
2, 117240, Note_on_c, 0, 65, 95
2, 117240, Note_on_c, 0, 60, 95
2, 117480, Note_off_c, 0, 67, 80
2, 117480, Note_off_c, 0, 65, 80
2, 117480, Note_off_c, 0, 60, 80
2, 117480, Note_on_c, 0, 67, 95
2, 117480, Note_on_c, 0, 65, 95
2, 117480, Note_on_c, 0, 60, 95
2, 117720, Note_off_c, 0, 67, 80
2, 117720, Note_off_c, 0, 65, 80
2, 117720, Note_off_c, 0, 60, 80
2, 117720, Note_on_c, 0, 67, 95
2, 117720, Note_on_c, 0, 64, 95
2, 117720, Note_on_c, 0, 60, 95
2, 118080, Note_off_c, 0, 67, 80
2, 118080, Note_off_c, 0, 64, 80
2, 118080, Note_off_c, 0, 60, 80
2, 118080, Note_on_c, 0, 70, 95
2, 118080, Note_on_c, 0, 65, 95
2, 118080, Note_on_c, 0, 60, 95
2, 118440, Note_off_c, 0, 70, 80
2, 118440, Note_off_c, 0, 65, 80
2, 118440, Note_off_c, 0, 60, 80
2, 118440, Note_on_c, 0, 70, 95
2, 118440, Note_on_c, 0, 65, 95
2, 118440, Note_on_c, 0, 60, 95
2, 118560, Note_off_c, 0, 70, 80
2, 118560, Note_off_c, 0, 65, 80
2, 118560, Note_off_c, 0, 60, 80
2, 118560, Note_on_c, 0, 70, 95
2, 118560, Note_on_c, 0, 65, 95
2, 118560, Note_on_c, 0, 60, 95
2, 118800, Note_off_c, 0, 70, 80
2, 118800, Note_off_c, 0, 65, 80
2, 118800, Note_off_c, 0, 60, 80
2, 118800, Note_on_c, 0, 70, 95
2, 118800, Note_on_c, 0, 65, 95
2, 118800, Note_on_c, 0, 60, 95
2, 119040, Note_off_c, 0, 70, 80
2, 119040, Note_off_c, 0, 65, 80
2, 119040, Note_off_c, 0, 60, 80
2, 119040, Note_on_c, 0, 65, 95
2, 119040, Note_on_c, 0, 60, 95
2, 119280, Note_off_c, 0, 65, 80
2, 119280, Note_off_c, 0, 60, 80
2, 119280, Note_on_c, 0, 65, 95
2, 119280, Note_on_c, 0, 60, 95
2, 119520, Note_off_c, 0, 65, 80
2, 119520, Note_off_c, 0, 60, 80
2, 119520, Note_on_c, 0, 65, 95
2, 119520, Note_on_c, 0, 60, 95
2, 119760, Note_off_c, 0, 65, 80
2, 119760, Note_off_c, 0, 60, 80
2, 119760, Note_on_c, 0, 65, 95
2, 119760, Note_on_c, 0, 60, 95
2, 120000, Note_off_c, 0, 65, 80
2, 120000, Note_off_c, 0, 60, 80
2, 120000, Note_on_c, 0, 67, 95
2, 120000, Note_on_c, 0, 64, 95
2, 120000, Note_on_c, 0, 60, 95
2, 120480, Note_off_c, 0, 67, 80
2, 120480, Note_off_c, 0, 64, 80
2, 120480, Note_off_c, 0, 60, 80
2, 120480, End_track
3, 0, Start_track
3, 0, Title_t, "Guitar1"
3, 0, Control_c, 8, 100, 0
3, 0, Control_c, 8, 101, 0
3, 0, Control_c, 8, 6, 12
3, 0, Pitch_bend_c, 8, 8192
3, 0, Control_c, 10, 100, 0
3, 0, Control_c, 10, 101, 0
3, 0, Control_c, 10, 6, 12
3, 0, Pitch_bend_c, 10, 8192
3, 0, Program_c, 8, 30
3, 0, Program_c, 10, 30
3, 0, Control_c, 8, 7, 80
3, 0, Control_c, 10, 7, 80
3, 0, Control_c, 8, 10, 32
3, 0, Control_c, 10, 10, 32
3, 0, Control_c, 8, 93, 0
3, 0, Control_c, 10, 93, 0
3, 0, Control_c, 8, 91, 0
3, 0, Control_c, 10, 91, 0
3, 0, Control_c, 8, 92, 0
3, 0, Control_c, 10, 92, 0
3, 0, Control_c, 8, 95, 0
3, 0, Control_c, 10, 95, 0
3, 20640, Note_on_c, 10, 70, 95
3, 20640, Pitch_bend_c, 10, 6144
3, 20640, Note_on_c, 10, 65, 95
3, 20640, Pitch_bend_c, 10, 6144
3, 20640, Note_on_c, 10, 58, 95
3, 20640, Pitch_bend_c, 10, 6144
3, 20640, Note_on_c, 10, 53, 95
3, 20640, Pitch_bend_c, 10, 6144
3, 20640, Note_on_c, 10, 46, 95
3, 20640, Pitch_bend_c, 10, 6144
3, 20680, Pitch_bend_c, 10, 6784
3, 20680, Pitch_bend_c, 10, 6784
3, 20680, Pitch_bend_c, 10, 6784
3, 20680, Pitch_bend_c, 10, 6784
3, 20680, Pitch_bend_c, 10, 6784
3, 20720, Pitch_bend_c, 10, 7552
3, 20720, Pitch_bend_c, 10, 7552
3, 20720, Pitch_bend_c, 10, 7552
3, 20720, Pitch_bend_c, 10, 7552
3, 20720, Pitch_bend_c, 10, 7552
3, 20760, Pitch_bend_c, 10, 8192
3, 20760, Pitch_bend_c, 10, 8192
3, 20760, Pitch_bend_c, 10, 8192
3, 20760, Pitch_bend_c, 10, 8192
3, 20760, Pitch_bend_c, 10, 8192
3, 21120, Note_off_c, 10, 70, 80
3, 21120, Note_off_c, 10, 65, 80
3, 21120, Note_off_c, 10, 58, 80
3, 21120, Note_off_c, 10, 53, 80
3, 21120, Note_off_c, 10, 46, 80
3, 21600, Note_on_c, 8, 65, 95
3, 21600, Note_on_c, 8, 60, 95
3, 21600, Note_on_c, 8, 53, 95
3, 21600, Note_on_c, 8, 48, 95
3, 21600, Note_on_c, 8, 41, 95
3, 22080, Note_off_c, 8, 65, 80
3, 22080, Note_off_c, 8, 60, 80
3, 22080, Note_off_c, 8, 53, 80
3, 22080, Note_off_c, 8, 48, 80
3, 22080, Note_off_c, 8, 41, 80
3, 22560, Note_on_c, 8, 60, 95
3, 22560, Note_on_c, 8, 55, 95
3, 22560, Note_on_c, 8, 40, 95
3, 22580, Note_off_c, 8, 40, 80
3, 22680, Note_off_c, 8, 60, 80
3, 22680, Note_off_c, 8, 55, 80
3, 22920, Note_on_c, 8, 60, 95
3, 22920, Note_on_c, 8, 55, 95
3, 22920, Note_on_c, 8, 40, 95
3, 22940, Note_off_c, 8, 40, 80
3, 23040, Note_off_c, 8, 60, 80
3, 23040, Note_off_c, 8, 55, 80
3, 23280, Note_on_c, 8, 60, 95
3, 23280, Note_on_c, 8, 55, 95
3, 23280, Note_on_c, 8, 40, 95
3, 23300, Note_off_c, 8, 40, 80
3, 23400, Note_off_c, 8, 60, 80
3, 23400, Note_off_c, 8, 55, 80
3, 23400, Note_on_c, 8, 65, 95
3, 23400, Note_on_c, 8, 60, 95
3, 23400, Note_on_c, 8, 55, 95
3, 23400, Note_on_c, 8, 40, 95
3, 23420, Note_off_c, 8, 40, 80
3, 23520, Note_off_c, 8, 65, 80
3, 23520, Note_off_c, 8, 60, 80
3, 23520, Note_off_c, 8, 55, 80
3, 23520, Note_on_c, 8, 65, 95
3, 23520, Note_on_c, 8, 60, 95
3, 23520, Note_on_c, 8, 55, 95
3, 23520, Note_on_c, 8, 40, 95
3, 23540, Note_off_c, 8, 40, 80
3, 23640, Note_off_c, 8, 65, 80
3, 23640, Note_off_c, 8, 60, 80
3, 23640, Note_off_c, 8, 55, 80
3, 23640, Note_on_c, 8, 64, 95
3, 23640, Note_on_c, 8, 60, 95
3, 23640, Note_on_c, 8, 55, 95
3, 23640, Note_on_c, 8, 40, 95
3, 23660, Note_off_c, 8, 40, 80
3, 23760, Note_off_c, 8, 64, 80
3, 23760, Note_off_c, 8, 60, 80
3, 23760, Note_off_c, 8, 55, 80
3, 24480, Note_on_c, 8, 70, 95
3, 24480, Note_on_c, 8, 65, 95
3, 24480, Note_on_c, 8, 58, 95
3, 24480, Note_on_c, 8, 53, 95
3, 24480, Note_on_c, 8, 46, 95
3, 24960, Note_off_c, 8, 70, 80
3, 24960, Note_off_c, 8, 65, 80
3, 24960, Note_off_c, 8, 58, 80
3, 24960, Note_off_c, 8, 53, 80
3, 24960, Note_off_c, 8, 46, 80
3, 25440, Note_on_c, 8, 65, 95
3, 25440, Note_on_c, 8, 60, 95
3, 25440, Note_on_c, 8, 53, 95
3, 25440, Note_on_c, 8, 48, 95
3, 25440, Note_on_c, 8, 41, 95
3, 25920, Note_off_c, 8, 65, 80
3, 25920, Note_off_c, 8, 60, 80
3, 25920, Note_off_c, 8, 53, 80
3, 25920, Note_off_c, 8, 48, 80
3, 25920, Note_off_c, 8, 41, 80
3, 26400, Note_on_c, 8, 60, 95
3, 26400, Note_on_c, 8, 55, 95
3, 26400, Note_on_c, 8, 40, 95
3, 26420, Note_off_c, 8, 40, 80
3, 26520, Note_off_c, 8, 60, 80
3, 26520, Note_off_c, 8, 55, 80
3, 26760, Note_on_c, 8, 60, 95
3, 26760, Note_on_c, 8, 55, 95
3, 26760, Note_on_c, 8, 40, 95
3, 26780, Note_off_c, 8, 40, 80
3, 26880, Note_off_c, 8, 60, 80
3, 26880, Note_off_c, 8, 55, 80
3, 27120, Note_on_c, 8, 60, 95
3, 27120, Note_on_c, 8, 55, 95
3, 27120, Note_on_c, 8, 40, 95
3, 27140, Note_off_c, 8, 40, 80
3, 27240, Note_off_c, 8, 60, 80
3, 27240, Note_off_c, 8, 55, 80
3, 27240, Note_on_c, 8, 65, 95
3, 27240, Note_on_c, 8, 60, 95
3, 27240, Note_on_c, 8, 55, 95
3, 27240, Note_on_c, 8, 40, 95
3, 27260, Note_off_c, 8, 40, 80
3, 27360, Note_off_c, 8, 65, 80
3, 27360, Note_off_c, 8, 60, 80
3, 27360, Note_off_c, 8, 55, 80
3, 27360, Note_on_c, 8, 65, 95
3, 27360, Note_on_c, 8, 60, 95
3, 27360, Note_on_c, 8, 55, 95
3, 27360, Note_on_c, 8, 40, 95
3, 27380, Note_off_c, 8, 40, 80
3, 27480, Note_off_c, 8, 65, 80
3, 27480, Note_off_c, 8, 60, 80
3, 27480, Note_off_c, 8, 55, 80
3, 27480, Note_on_c, 8, 64, 95
3, 27480, Note_on_c, 8, 60, 95
3, 27480, Note_on_c, 8, 55, 95
3, 27480, Note_on_c, 8, 40, 95
3, 27500, Note_off_c, 8, 40, 80
3, 27600, Note_off_c, 8, 64, 80
3, 27600, Note_off_c, 8, 60, 80
3, 27600, Note_off_c, 8, 55, 80
3, 27840, Note_on_c, 8, 60, 95
3, 27840, Note_on_c, 8, 58, 95
3, 27840, Note_on_c, 8, 53, 95
3, 27840, Note_on_c, 8, 46, 95
3, 28080, Note_off_c, 8, 60, 80
3, 28080, Note_off_c, 8, 58, 80
3, 28080, Note_off_c, 8, 53, 80
3, 28080, Note_off_c, 8, 46, 80
3, 28080, Note_on_c, 8, 65, 95
3, 28320, Note_off_c, 8, 65, 80
3, 28320, Note_on_c, 8, 62, 95
3, 28560, Note_off_c, 8, 62, 80
3, 28560, Note_on_c, 8, 58, 95
3, 28800, Note_off_c, 8, 58, 80
3, 28800, Note_on_c, 8, 60, 95
3, 28800, Note_on_c, 8, 57, 95
3, 28800, Note_on_c, 8, 52, 95
3, 28800, Note_on_c, 8, 45, 95
3, 29040, Note_off_c, 8, 60, 80
3, 29040, Note_off_c, 8, 57, 80
3, 29040, Note_off_c, 8, 52, 80
3, 29040, Note_off_c, 8, 45, 80
3, 29040, Note_on_c, 8, 65, 95
3, 29280, Note_off_c, 8, 65, 80
3, 29280, Note_on_c, 8, 60, 95
3, 29520, Note_off_c, 8, 60, 80
3, 29520, Note_on_c, 8, 57, 95
3, 29760, Note_off_c, 8, 57, 80
3, 29760, Note_on_c, 8, 60, 95
3, 29760, Note_on_c, 8, 56, 95
3, 29760, Note_on_c, 8, 51, 95
3, 29760, Note_on_c, 8, 44, 95
3, 30000, Note_off_c, 8, 60, 80
3, 30000, Note_off_c, 8, 56, 80
3, 30000, Note_off_c, 8, 51, 80
3, 30000, Note_off_c, 8, 44, 80
3, 30000, Note_on_c, 8, 63, 95
3, 30240, Note_off_c, 8, 63, 80
3, 30240, Note_on_c, 8, 60, 95
3, 30480, Note_off_c, 8, 60, 80
3, 30480, Note_on_c, 8, 56, 95
3, 30720, Note_off_c, 8, 56, 80
3, 30720, Note_on_c, 8, 65, 95
3, 30720, Note_on_c, 8, 63, 95
3, 30720, Note_on_c, 8, 58, 95
3, 30720, Note_on_c, 8, 51, 95
3, 30960, Note_off_c, 8, 65, 80
3, 30960, Note_off_c, 8, 63, 80
3, 30960, Note_off_c, 8, 58, 80
3, 30960, Note_off_c, 8, 51, 80
3, 30960, Note_on_c, 8, 67, 95
3, 31200, Note_off_c, 8, 67, 80
3, 31200, Note_on_c, 8, 63, 95
3, 31440, Note_off_c, 8, 63, 80
3, 31440, Note_on_c, 8, 58, 95
3, 31680, Note_off_c, 8, 58, 80
3, 31680, Note_on_c, 8, 58, 95
3, 31680, Note_on_c, 8, 53, 95
3, 31680, Note_on_c, 8, 46, 95
3, 32640, Note_off_c, 8, 58, 80
3, 32640, Note_off_c, 8, 53, 80
3, 32640, Note_off_c, 8, 46, 80
3, 32640, Note_on_c, 8, 61, 95
3, 32640, Note_on_c, 8, 56, 95
3, 32640, Note_on_c, 8, 49, 95
3, 34560, Note_off_c, 8, 61, 80
3, 34560, Note_off_c, 8, 56, 80
3, 34560, Note_off_c, 8, 49, 80
3, 34560, Note_on_c, 8, 60, 95
3, 34560, Note_on_c, 8, 55, 95
3, 34560, Note_on_c, 8, 48, 95
3, 36480, Note_off_c, 8, 60, 80
3, 36480, Note_off_c, 8, 55, 80
3, 36480, Note_off_c, 8, 48, 80
3, 37440, Note_on_c, 10, 50, 95
3, 37440, Pitch_bend_c, 10, 8192
3, 37568, Pitch_bend_c, 10, 8320
3, 37584, Pitch_bend_c, 10, 8704
3, 37600, Pitch_bend_c, 10, 9088
3, 37616, Pitch_bend_c, 10, 9344
3, 37632, Pitch_bend_c, 10, 9600
3, 37680, Note_off_c, 10, 50, 80
3, 37680, Pitch_bend_c, 10, 8192
3, 37680, Note_on_c, 8, 55, 95
3, 37800, Note_off_c, 8, 55, 80
3, 37800, Note_on_c, 8, 52, 95
3, 37920, Note_off_c, 8, 52, 80
3, 37920, Note_on_c, 8, 55, 95
3, 37980, Note_off_c, 8, 55, 80
3, 37980, Note_on_c, 8, 57, 86
3, 38040, Note_off_c, 8, 57, 80
3, 38040, Note_on_c, 8, 55, 86
3, 38160, Note_off_c, 8, 55, 80
3, 38160, Note_on_c, 8, 50, 95
3, 38220, Note_off_c, 8, 50, 80
3, 38220, Note_on_c, 8, 52, 86
3, 38280, Note_off_c, 8, 52, 80
3, 38280, Note_on_c, 8, 50, 86
3, 38400, Note_off_c, 8, 50, 80
3, 38400, Note_on_c, 8, 43, 95
3, 38640, Note_off_c, 8, 43, 80
3, 38640, Note_on_c, 8, 67, 95
3, 39000, Note_off_c, 8, 67, 80
3, 39000, Note_on_c, 8, 62, 95
3, 39240, Note_off_c, 8, 62, 80
3, 39240, Note_on_c, 8, 55, 95
3, 39360, Note_off_c, 8, 55, 80
3, 39360, Note_on_c, 8, 67, 95
3, 39420, Note_off_c, 8, 67, 80
3, 39420, Note_on_c, 8, 69, 86
3, 39480, Note_off_c, 8, 69, 80
3, 39480, Note_on_c, 8, 67, 86
3, 39600, Note_off_c, 8, 67, 80
3, 39600, Note_on_c, 8, 62, 95
3, 39840, Note_off_c, 8, 62, 80
3, 39840, Note_on_c, 8, 67, 95
3, 39960, Note_off_c, 8, 67, 80
3, 39960, Note_on_c, 8, 62, 95
3, 40080, Note_off_c, 8, 62, 80
3, 40080, Note_on_c, 8, 55, 95
3, 40200, Note_off_c, 8, 55, 80
3, 40200, Note_on_c, 8, 43, 95
3, 40320, Note_off_c, 8, 43, 80
3, 40320, Note_on_c, 8, 48, 95
3, 40560, Note_on_c, 8, 55, 95
3, 41280, Note_off_c, 8, 48, 80
3, 41280, Note_off_c, 8, 55, 80
3, 41280, Note_on_c, 8, 55, 95
3, 41280, Note_on_c, 8, 48, 95
3, 42240, Note_off_c, 8, 55, 80
3, 42240, Note_off_c, 8, 48, 80
3, 42240, Note_on_c, 8, 60, 95
3, 42240, Note_on_c, 8, 53, 95
3, 42240, Note_on_c, 8, 43, 95
3, 43200, Note_off_c, 8, 60, 80
3, 43200, Note_off_c, 8, 53, 80
3, 43200, Note_off_c, 8, 43, 80
3, 43200, Note_on_c, 8, 62, 95
3, 43200, Note_on_c, 8, 59, 95
3, 43200, Note_on_c, 8, 43, 95
3, 43800, Note_off_c, 8, 62, 80
3, 43800, Note_off_c, 8, 59, 80
3, 43800, Note_off_c, 8, 43, 80
3, 43800, Note_on_c, 8, 53, 95
3, 43800, Note_on_c, 8, 48, 95
3, 43800, Note_on_c, 8, 41, 95
3, 43920, Note_off_c, 8, 53, 80
3, 43920, Note_off_c, 8, 48, 80
3, 43920, Note_off_c, 8, 41, 80
3, 43920, Note_on_c, 8, 55, 95
3, 43920, Note_on_c, 8, 50, 95
3, 43920, Note_on_c, 8, 43, 95
3, 44160, Note_off_c, 8, 55, 80
3, 44160, Note_off_c, 8, 50, 80
3, 44160, Note_off_c, 8, 43, 80
3, 44160, Note_on_c, 8, 60, 95
3, 44160, Note_on_c, 8, 58, 95
3, 44160, Note_on_c, 8, 53, 95
3, 44160, Note_on_c, 8, 46, 95
3, 44400, Note_off_c, 8, 60, 80
3, 44400, Note_off_c, 8, 58, 80
3, 44400, Note_off_c, 8, 53, 80
3, 44400, Note_off_c, 8, 46, 80
3, 44400, Note_on_c, 8, 65, 95
3, 44640, Note_off_c, 8, 65, 80
3, 44640, Note_on_c, 8, 62, 95
3, 44880, Note_off_c, 8, 62, 80
3, 44880, Note_on_c, 8, 58, 95
3, 45120, Note_off_c, 8, 58, 80
3, 45120, Note_on_c, 8, 60, 95
3, 45120, Note_on_c, 8, 57, 95
3, 45120, Note_on_c, 8, 52, 95
3, 45120, Note_on_c, 8, 45, 95
3, 45360, Note_off_c, 8, 60, 80
3, 45360, Note_off_c, 8, 57, 80
3, 45360, Note_off_c, 8, 52, 80
3, 45360, Note_off_c, 8, 45, 80
3, 45360, Note_on_c, 8, 65, 95
3, 45600, Note_off_c, 8, 65, 80
3, 45600, Note_on_c, 8, 60, 95
3, 45840, Note_off_c, 8, 60, 80
3, 45840, Note_on_c, 8, 57, 95
3, 46080, Note_off_c, 8, 57, 80
3, 46080, Note_on_c, 8, 60, 95
3, 46080, Note_on_c, 8, 56, 95
3, 46080, Note_on_c, 8, 51, 95
3, 46080, Note_on_c, 8, 44, 95
3, 46320, Note_off_c, 8, 60, 80
3, 46320, Note_off_c, 8, 56, 80
3, 46320, Note_off_c, 8, 51, 80
3, 46320, Note_off_c, 8, 44, 80
3, 46320, Note_on_c, 8, 63, 95
3, 46560, Note_off_c, 8, 63, 80
3, 46560, Note_on_c, 8, 60, 95
3, 46800, Note_off_c, 8, 60, 80
3, 46800, Note_on_c, 8, 56, 95
3, 47040, Note_off_c, 8, 56, 80
3, 47040, Note_on_c, 8, 65, 95
3, 47040, Note_on_c, 8, 63, 95
3, 47040, Note_on_c, 8, 58, 95
3, 47040, Note_on_c, 8, 51, 95
3, 47280, Note_off_c, 8, 65, 80
3, 47280, Note_off_c, 8, 63, 80
3, 47280, Note_off_c, 8, 58, 80
3, 47280, Note_off_c, 8, 51, 80
3, 47280, Note_on_c, 8, 67, 95
3, 47520, Note_off_c, 8, 67, 80
3, 47520, Note_on_c, 8, 63, 95
3, 47760, Note_off_c, 8, 63, 80
3, 47760, Note_on_c, 8, 58, 95
3, 48000, Note_off_c, 8, 58, 80
3, 48000, Note_on_c, 8, 58, 95
3, 48000, Note_on_c, 8, 53, 95
3, 48000, Note_on_c, 8, 46, 95
3, 48240, Note_off_c, 8, 58, 80
3, 48240, Note_off_c, 8, 53, 80
3, 48240, Note_off_c, 8, 46, 80
3, 48240, Note_on_c, 8, 65, 95
3, 48480, Note_off_c, 8, 65, 80
3, 48480, Note_on_c, 8, 62, 95
3, 48720, Note_off_c, 8, 62, 80
3, 48720, Note_on_c, 8, 58, 95
3, 48960, Note_off_c, 8, 58, 80
3, 48960, Note_on_c, 8, 61, 95
3, 48960, Note_on_c, 8, 56, 95
3, 48960, Note_on_c, 8, 49, 95
3, 50880, Note_off_c, 8, 61, 80
3, 50880, Note_off_c, 8, 56, 80
3, 50880, Note_off_c, 8, 49, 80
3, 50880, Note_on_c, 8, 60, 95
3, 50880, Note_on_c, 8, 53, 95
3, 50880, Note_on_c, 8, 48, 95
3, 51120, Note_off_c, 8, 60, 80
3, 51120, Note_off_c, 8, 53, 80
3, 51120, Note_off_c, 8, 48, 80
3, 51240, Note_on_c, 8, 60, 95
3, 51240, Note_on_c, 8, 53, 95
3, 51240, Note_on_c, 8, 48, 95
3, 51480, Note_off_c, 8, 60, 80
3, 51480, Note_off_c, 8, 53, 80
3, 51480, Note_off_c, 8, 48, 80
3, 51600, Note_on_c, 8, 60, 95
3, 51600, Note_on_c, 8, 55, 95
3, 51600, Note_on_c, 8, 48, 95
3, 52800, Note_off_c, 8, 60, 80
3, 52800, Note_off_c, 8, 55, 80
3, 52800, Note_off_c, 8, 48, 80
3, 53280, Note_on_c, 8, 70, 95
3, 53280, Note_on_c, 8, 65, 95
3, 53280, Note_on_c, 8, 58, 95
3, 53280, Note_on_c, 8, 53, 95
3, 53280, Note_on_c, 8, 46, 95
3, 53520, Note_off_c, 8, 70, 80
3, 53520, Note_off_c, 8, 65, 80
3, 53520, Note_off_c, 8, 58, 80
3, 53520, Note_off_c, 8, 53, 80
3, 53520, Note_off_c, 8, 46, 80
3, 53520, Note_on_c, 8, 55, 95
3, 53520, Note_on_c, 8, 50, 95
3, 53520, Note_on_c, 8, 45, 95
3, 53540, Note_off_c, 8, 55, 80
3, 53540, Note_off_c, 8, 50, 80
3, 53540, Note_off_c, 8, 45, 80
3, 53640, Note_on_c, 8, 55, 95
3, 53640, Note_on_c, 8, 50, 95
3, 53640, Note_on_c, 8, 45, 95
3, 53660, Note_off_c, 8, 55, 80
3, 53660, Note_off_c, 8, 50, 80
3, 53660, Note_off_c, 8, 45, 80
3, 53760, Note_on_c, 8, 55, 95
3, 53760, Note_on_c, 8, 50, 95
3, 53760, Note_on_c, 8, 45, 95
3, 53780, Note_off_c, 8, 55, 80
3, 53780, Note_off_c, 8, 50, 80
3, 53780, Note_off_c, 8, 45, 80
3, 54000, Note_on_c, 8, 55, 95
3, 54000, Note_on_c, 8, 50, 95
3, 54000, Note_on_c, 8, 45, 95
3, 54020, Note_off_c, 8, 55, 80
3, 54020, Note_off_c, 8, 50, 80
3, 54020, Note_off_c, 8, 45, 80
3, 54240, Note_on_c, 8, 65, 95
3, 54240, Note_on_c, 8, 60, 95
3, 54240, Note_on_c, 8, 53, 95
3, 54240, Note_on_c, 8, 48, 95
3, 54240, Note_on_c, 8, 41, 95
3, 54480, Note_off_c, 8, 65, 80
3, 54480, Note_off_c, 8, 60, 80
3, 54480, Note_off_c, 8, 53, 80
3, 54480, Note_off_c, 8, 48, 80
3, 54480, Note_off_c, 8, 41, 80
3, 54480, Note_on_c, 8, 50, 95
3, 54480, Note_on_c, 8, 45, 95
3, 54480, Note_on_c, 8, 40, 95
3, 54500, Note_off_c, 8, 50, 80
3, 54500, Note_off_c, 8, 45, 80
3, 54500, Note_off_c, 8, 40, 80
3, 54600, Note_on_c, 8, 50, 95
3, 54600, Note_on_c, 8, 45, 95
3, 54600, Note_on_c, 8, 40, 95
3, 54620, Note_off_c, 8, 50, 80
3, 54620, Note_off_c, 8, 45, 80
3, 54620, Note_off_c, 8, 40, 80
3, 54720, Note_on_c, 8, 64, 95
3, 54720, Note_on_c, 8, 59, 95
3, 54720, Note_on_c, 8, 50, 95
3, 54720, Note_on_c, 8, 45, 95
3, 54720, Note_on_c, 8, 40, 95
3, 54740, Note_off_c, 8, 64, 80
3, 54740, Note_off_c, 8, 59, 80
3, 54740, Note_off_c, 8, 50, 80
3, 54740, Note_off_c, 8, 45, 80
3, 54740, Note_off_c, 8, 40, 80
3, 54960, Note_on_c, 8, 64, 95
3, 54960, Note_on_c, 8, 59, 95
3, 54960, Note_on_c, 8, 50, 95
3, 54960, Note_on_c, 8, 45, 95
3, 54960, Note_on_c, 8, 40, 95
3, 54980, Note_off_c, 8, 64, 80
3, 54980, Note_off_c, 8, 59, 80
3, 54980, Note_off_c, 8, 50, 80
3, 54980, Note_off_c, 8, 45, 80
3, 54980, Note_off_c, 8, 40, 80
3, 55200, Note_on_c, 8, 60, 95
3, 55200, Note_on_c, 8, 55, 95
3, 55200, Note_on_c, 8, 40, 95
3, 55220, Note_off_c, 8, 40, 80
3, 55320, Note_off_c, 8, 60, 80
3, 55320, Note_off_c, 8, 55, 80
3, 55320, Note_on_c, 8, 55, 95
3, 55320, Note_on_c, 8, 50, 95
3, 55320, Note_on_c, 8, 45, 95
3, 55340, Note_off_c, 8, 55, 80
3, 55340, Note_off_c, 8, 50, 80
3, 55340, Note_off_c, 8, 45, 80
3, 55560, Note_on_c, 8, 60, 95
3, 55560, Note_on_c, 8, 55, 95
3, 55560, Note_on_c, 8, 40, 95
3, 55580, Note_off_c, 8, 40, 80
3, 55680, Note_off_c, 8, 60, 80
3, 55680, Note_off_c, 8, 55, 80
3, 55680, Note_on_c, 8, 55, 95
3, 55680, Note_on_c, 8, 50, 95
3, 55680, Note_on_c, 8, 45, 95
3, 55700, Note_off_c, 8, 55, 80
3, 55700, Note_off_c, 8, 50, 80
3, 55700, Note_off_c, 8, 45, 80
3, 55920, Note_on_c, 8, 60, 95
3, 55920, Note_on_c, 8, 55, 95
3, 55920, Note_on_c, 8, 40, 95
3, 55940, Note_off_c, 8, 40, 80
3, 56040, Note_off_c, 8, 60, 80
3, 56040, Note_off_c, 8, 55, 80
3, 56040, Note_on_c, 8, 65, 95
3, 56040, Note_on_c, 8, 60, 95
3, 56040, Note_on_c, 8, 55, 95
3, 56040, Note_on_c, 8, 40, 95
3, 56060, Note_off_c, 8, 40, 80
3, 56160, Note_off_c, 8, 65, 80
3, 56160, Note_off_c, 8, 60, 80
3, 56160, Note_off_c, 8, 55, 80
3, 56160, Note_on_c, 8, 65, 95
3, 56160, Note_on_c, 8, 60, 95
3, 56160, Note_on_c, 8, 55, 95
3, 56160, Note_on_c, 8, 40, 95
3, 56180, Note_off_c, 8, 40, 80
3, 56280, Note_off_c, 8, 65, 80
3, 56280, Note_off_c, 8, 60, 80
3, 56280, Note_off_c, 8, 55, 80
3, 56280, Note_on_c, 8, 64, 95
3, 56280, Note_on_c, 8, 60, 95
3, 56280, Note_on_c, 8, 55, 95
3, 56280, Note_on_c, 8, 40, 95
3, 56300, Note_off_c, 8, 40, 80
3, 56400, Note_off_c, 8, 64, 80
3, 56400, Note_off_c, 8, 60, 80
3, 56400, Note_off_c, 8, 55, 80
3, 56640, Note_on_c, 8, 55, 95
3, 56640, Note_on_c, 8, 50, 95
3, 56640, Note_on_c, 8, 45, 95
3, 56660, Note_off_c, 8, 55, 80
3, 56660, Note_off_c, 8, 50, 80
3, 56660, Note_off_c, 8, 45, 80
3, 56880, Note_on_c, 8, 55, 95
3, 56880, Note_on_c, 8, 50, 95
3, 56880, Note_on_c, 8, 45, 95
3, 56900, Note_off_c, 8, 55, 80
3, 56900, Note_off_c, 8, 50, 80
3, 56900, Note_off_c, 8, 45, 80
3, 57120, Note_on_c, 8, 70, 95
3, 57120, Note_on_c, 8, 65, 95
3, 57120, Note_on_c, 8, 58, 95
3, 57120, Note_on_c, 8, 53, 95
3, 57120, Note_on_c, 8, 46, 95
3, 57360, Note_off_c, 8, 70, 80
3, 57360, Note_off_c, 8, 65, 80
3, 57360, Note_off_c, 8, 58, 80
3, 57360, Note_off_c, 8, 53, 80
3, 57360, Note_off_c, 8, 46, 80
3, 57360, Note_on_c, 8, 55, 95
3, 57360, Note_on_c, 8, 50, 95
3, 57360, Note_on_c, 8, 45, 95
3, 57380, Note_off_c, 8, 55, 80
3, 57380, Note_off_c, 8, 50, 80
3, 57380, Note_off_c, 8, 45, 80
3, 57480, Note_on_c, 8, 55, 95
3, 57480, Note_on_c, 8, 50, 95
3, 57480, Note_on_c, 8, 45, 95
3, 57500, Note_off_c, 8, 55, 80
3, 57500, Note_off_c, 8, 50, 80
3, 57500, Note_off_c, 8, 45, 80
3, 57600, Note_on_c, 8, 55, 95
3, 57600, Note_on_c, 8, 50, 95
3, 57600, Note_on_c, 8, 45, 95
3, 57620, Note_off_c, 8, 55, 80
3, 57620, Note_off_c, 8, 50, 80
3, 57620, Note_off_c, 8, 45, 80
3, 57840, Note_on_c, 8, 55, 95
3, 57840, Note_on_c, 8, 50, 95
3, 57840, Note_on_c, 8, 45, 95
3, 57860, Note_off_c, 8, 55, 80
3, 57860, Note_off_c, 8, 50, 80
3, 57860, Note_off_c, 8, 45, 80
3, 58080, Note_on_c, 8, 65, 95
3, 58080, Note_on_c, 8, 60, 95
3, 58080, Note_on_c, 8, 53, 95
3, 58080, Note_on_c, 8, 48, 95
3, 58080, Note_on_c, 8, 41, 95
3, 58320, Note_off_c, 8, 65, 80
3, 58320, Note_off_c, 8, 60, 80
3, 58320, Note_off_c, 8, 53, 80
3, 58320, Note_off_c, 8, 48, 80
3, 58320, Note_off_c, 8, 41, 80
3, 58320, Note_on_c, 8, 50, 95
3, 58320, Note_on_c, 8, 45, 95
3, 58320, Note_on_c, 8, 40, 95
3, 58340, Note_off_c, 8, 50, 80
3, 58340, Note_off_c, 8, 45, 80
3, 58340, Note_off_c, 8, 40, 80
3, 58440, Note_on_c, 8, 50, 95
3, 58440, Note_on_c, 8, 45, 95
3, 58440, Note_on_c, 8, 40, 95
3, 58460, Note_off_c, 8, 50, 80
3, 58460, Note_off_c, 8, 45, 80
3, 58460, Note_off_c, 8, 40, 80
3, 58560, Note_on_c, 8, 64, 95
3, 58560, Note_on_c, 8, 59, 95
3, 58560, Note_on_c, 8, 50, 95
3, 58560, Note_on_c, 8, 45, 95
3, 58560, Note_on_c, 8, 40, 95
3, 58580, Note_off_c, 8, 64, 80
3, 58580, Note_off_c, 8, 59, 80
3, 58580, Note_off_c, 8, 50, 80
3, 58580, Note_off_c, 8, 45, 80
3, 58580, Note_off_c, 8, 40, 80
3, 58800, Note_on_c, 8, 64, 95
3, 58800, Note_on_c, 8, 59, 95
3, 58800, Note_on_c, 8, 50, 95
3, 58800, Note_on_c, 8, 45, 95
3, 58800, Note_on_c, 8, 40, 95
3, 58820, Note_off_c, 8, 64, 80
3, 58820, Note_off_c, 8, 59, 80
3, 58820, Note_off_c, 8, 50, 80
3, 58820, Note_off_c, 8, 45, 80
3, 58820, Note_off_c, 8, 40, 80
3, 59040, Note_on_c, 8, 60, 95
3, 59040, Note_on_c, 8, 55, 95
3, 59040, Note_on_c, 8, 40, 95
3, 59060, Note_off_c, 8, 40, 80
3, 59160, Note_off_c, 8, 60, 80
3, 59160, Note_off_c, 8, 55, 80
3, 59160, Note_on_c, 8, 55, 95
3, 59160, Note_on_c, 8, 50, 95
3, 59160, Note_on_c, 8, 45, 95
3, 59180, Note_off_c, 8, 55, 80
3, 59180, Note_off_c, 8, 50, 80
3, 59180, Note_off_c, 8, 45, 80
3, 59400, Note_on_c, 8, 60, 95
3, 59400, Note_on_c, 8, 55, 95
3, 59400, Note_on_c, 8, 40, 95
3, 59420, Note_off_c, 8, 40, 80
3, 59520, Note_off_c, 8, 60, 80
3, 59520, Note_off_c, 8, 55, 80
3, 59520, Note_on_c, 8, 55, 95
3, 59520, Note_on_c, 8, 50, 95
3, 59520, Note_on_c, 8, 45, 95
3, 59540, Note_off_c, 8, 55, 80
3, 59540, Note_off_c, 8, 50, 80
3, 59540, Note_off_c, 8, 45, 80
3, 59760, Note_on_c, 8, 60, 95
3, 59760, Note_on_c, 8, 55, 95
3, 59760, Note_on_c, 8, 40, 95
3, 59780, Note_off_c, 8, 40, 80
3, 59880, Note_off_c, 8, 60, 80
3, 59880, Note_off_c, 8, 55, 80
3, 59880, Note_on_c, 8, 65, 95
3, 59880, Note_on_c, 8, 60, 95
3, 59880, Note_on_c, 8, 55, 95
3, 59880, Note_on_c, 8, 40, 95
3, 59900, Note_off_c, 8, 40, 80
3, 60000, Note_off_c, 8, 65, 80
3, 60000, Note_off_c, 8, 60, 80
3, 60000, Note_off_c, 8, 55, 80
3, 60000, Note_on_c, 8, 65, 95
3, 60000, Note_on_c, 8, 60, 95
3, 60000, Note_on_c, 8, 55, 95
3, 60000, Note_on_c, 8, 40, 95
3, 60020, Note_off_c, 8, 40, 80
3, 60120, Note_off_c, 8, 65, 80
3, 60120, Note_off_c, 8, 60, 80
3, 60120, Note_off_c, 8, 55, 80
3, 60120, Note_on_c, 8, 64, 95
3, 60120, Note_on_c, 8, 60, 95
3, 60120, Note_on_c, 8, 55, 95
3, 60120, Note_on_c, 8, 40, 95
3, 60140, Note_off_c, 8, 40, 80
3, 60240, Note_off_c, 8, 64, 80
3, 60240, Note_off_c, 8, 60, 80
3, 60240, Note_off_c, 8, 55, 80
3, 60480, Note_on_c, 8, 60, 95
3, 60480, Note_on_c, 8, 58, 95
3, 60480, Note_on_c, 8, 53, 95
3, 60480, Note_on_c, 8, 46, 95
3, 60720, Note_off_c, 8, 60, 80
3, 60720, Note_off_c, 8, 58, 80
3, 60720, Note_off_c, 8, 53, 80
3, 60720, Note_off_c, 8, 46, 80
3, 60720, Note_on_c, 8, 65, 95
3, 60960, Note_off_c, 8, 65, 80
3, 60960, Note_on_c, 8, 62, 95
3, 61200, Note_off_c, 8, 62, 80
3, 61200, Note_on_c, 8, 58, 95
3, 61440, Note_off_c, 8, 58, 80
3, 61440, Note_on_c, 8, 60, 95
3, 61440, Note_on_c, 8, 57, 95
3, 61440, Note_on_c, 8, 52, 95
3, 61440, Note_on_c, 8, 45, 95
3, 61680, Note_off_c, 8, 60, 80
3, 61680, Note_off_c, 8, 57, 80
3, 61680, Note_off_c, 8, 52, 80
3, 61680, Note_off_c, 8, 45, 80
3, 61680, Note_on_c, 8, 65, 95
3, 61920, Note_off_c, 8, 65, 80
3, 61920, Note_on_c, 8, 60, 95
3, 62160, Note_off_c, 8, 60, 80
3, 62160, Note_on_c, 8, 57, 95
3, 62400, Note_off_c, 8, 57, 80
3, 62400, Note_on_c, 8, 60, 95
3, 62400, Note_on_c, 8, 56, 95
3, 62400, Note_on_c, 8, 51, 95
3, 62400, Note_on_c, 8, 44, 95
3, 62640, Note_off_c, 8, 60, 80
3, 62640, Note_off_c, 8, 56, 80
3, 62640, Note_off_c, 8, 51, 80
3, 62640, Note_off_c, 8, 44, 80
3, 62640, Note_on_c, 8, 63, 95
3, 62880, Note_off_c, 8, 63, 80
3, 62880, Note_on_c, 8, 60, 95
3, 63120, Note_off_c, 8, 60, 80
3, 63120, Note_on_c, 8, 56, 95
3, 63360, Note_off_c, 8, 56, 80
3, 63360, Note_on_c, 8, 65, 95
3, 63360, Note_on_c, 8, 63, 95
3, 63360, Note_on_c, 8, 58, 95
3, 63360, Note_on_c, 8, 51, 95
3, 63600, Note_off_c, 8, 65, 80
3, 63600, Note_off_c, 8, 63, 80
3, 63600, Note_off_c, 8, 58, 80
3, 63600, Note_off_c, 8, 51, 80
3, 63600, Note_on_c, 8, 67, 95
3, 63840, Note_off_c, 8, 67, 80
3, 63840, Note_on_c, 8, 63, 95
3, 64080, Note_off_c, 8, 63, 80
3, 64080, Note_on_c, 8, 58, 95
3, 64320, Note_off_c, 8, 58, 80
3, 64320, Note_on_c, 8, 60, 95
3, 64320, Note_on_c, 8, 58, 95
3, 64320, Note_on_c, 8, 53, 95
3, 64320, Note_on_c, 8, 46, 95
3, 64560, Note_off_c, 8, 60, 80
3, 64560, Note_off_c, 8, 58, 80
3, 64560, Note_off_c, 8, 53, 80
3, 64560, Note_off_c, 8, 46, 80
3, 64560, Note_on_c, 8, 65, 95
3, 64800, Note_off_c, 8, 65, 80
3, 64800, Note_on_c, 8, 62, 95
3, 65040, Note_off_c, 8, 62, 80
3, 65040, Note_on_c, 8, 58, 95
3, 65280, Note_off_c, 8, 58, 80
3, 65280, Note_on_c, 8, 60, 95
3, 65280, Note_on_c, 8, 57, 95
3, 65280, Note_on_c, 8, 52, 95
3, 65280, Note_on_c, 8, 45, 95
3, 65520, Note_off_c, 8, 60, 80
3, 65520, Note_off_c, 8, 57, 80
3, 65520, Note_off_c, 8, 52, 80
3, 65520, Note_off_c, 8, 45, 80
3, 65520, Note_on_c, 8, 65, 95
3, 65760, Note_off_c, 8, 65, 80
3, 65760, Note_on_c, 8, 60, 95
3, 66000, Note_off_c, 8, 60, 80
3, 66000, Note_on_c, 8, 57, 95
3, 66240, Note_off_c, 8, 57, 80
3, 66240, Note_on_c, 8, 60, 95
3, 66240, Note_on_c, 8, 56, 95
3, 66240, Note_on_c, 8, 51, 95
3, 66240, Note_on_c, 8, 44, 95
3, 66480, Note_off_c, 8, 60, 80
3, 66480, Note_off_c, 8, 56, 80
3, 66480, Note_off_c, 8, 51, 80
3, 66480, Note_off_c, 8, 44, 80
3, 66480, Note_on_c, 8, 63, 95
3, 66720, Note_off_c, 8, 63, 80
3, 66720, Note_on_c, 8, 60, 95
3, 66960, Note_off_c, 8, 60, 80
3, 66960, Note_on_c, 8, 56, 95
3, 67200, Note_off_c, 8, 56, 80
3, 67200, Note_on_c, 8, 65, 95
3, 67200, Note_on_c, 8, 63, 95
3, 67200, Note_on_c, 8, 58, 95
3, 67200, Note_on_c, 8, 51, 95
3, 67440, Note_off_c, 8, 65, 80
3, 67440, Note_off_c, 8, 63, 80
3, 67440, Note_off_c, 8, 58, 80
3, 67440, Note_off_c, 8, 51, 80
3, 67440, Note_on_c, 8, 67, 95
3, 67680, Note_off_c, 8, 67, 80
3, 67680, Note_on_c, 8, 63, 95
3, 67920, Note_off_c, 8, 63, 80
3, 67920, Note_on_c, 8, 58, 95
3, 68160, Note_off_c, 8, 58, 80
3, 68640, Note_on_c, 8, 70, 95
3, 68640, Note_on_c, 8, 65, 95
3, 68640, Note_on_c, 8, 58, 95
3, 68640, Note_on_c, 8, 53, 95
3, 68640, Note_on_c, 8, 46, 95
3, 68880, Note_off_c, 8, 70, 80
3, 68880, Note_off_c, 8, 65, 80
3, 68880, Note_off_c, 8, 58, 80
3, 68880, Note_off_c, 8, 53, 80
3, 68880, Note_off_c, 8, 46, 80
3, 68880, Note_on_c, 8, 55, 95
3, 68880, Note_on_c, 8, 50, 95
3, 68880, Note_on_c, 8, 45, 95
3, 68900, Note_off_c, 8, 55, 80
3, 68900, Note_off_c, 8, 50, 80
3, 68900, Note_off_c, 8, 45, 80
3, 69000, Note_on_c, 8, 55, 95
3, 69000, Note_on_c, 8, 50, 95
3, 69000, Note_on_c, 8, 45, 95
3, 69020, Note_off_c, 8, 55, 80
3, 69020, Note_off_c, 8, 50, 80
3, 69020, Note_off_c, 8, 45, 80
3, 69120, Note_on_c, 8, 55, 95
3, 69120, Note_on_c, 8, 50, 95
3, 69120, Note_on_c, 8, 45, 95
3, 69140, Note_off_c, 8, 55, 80
3, 69140, Note_off_c, 8, 50, 80
3, 69140, Note_off_c, 8, 45, 80
3, 69360, Note_on_c, 8, 55, 95
3, 69360, Note_on_c, 8, 50, 95
3, 69360, Note_on_c, 8, 45, 95
3, 69380, Note_off_c, 8, 55, 80
3, 69380, Note_off_c, 8, 50, 80
3, 69380, Note_off_c, 8, 45, 80
3, 69600, Note_on_c, 8, 65, 95
3, 69600, Note_on_c, 8, 60, 95
3, 69600, Note_on_c, 8, 53, 95
3, 69600, Note_on_c, 8, 48, 95
3, 69600, Note_on_c, 8, 41, 95
3, 69840, Note_off_c, 8, 65, 80
3, 69840, Note_off_c, 8, 60, 80
3, 69840, Note_off_c, 8, 53, 80
3, 69840, Note_off_c, 8, 48, 80
3, 69840, Note_off_c, 8, 41, 80
3, 69840, Note_on_c, 8, 50, 95
3, 69840, Note_on_c, 8, 45, 95
3, 69840, Note_on_c, 8, 40, 95
3, 69860, Note_off_c, 8, 50, 80
3, 69860, Note_off_c, 8, 45, 80
3, 69860, Note_off_c, 8, 40, 80
3, 69960, Note_on_c, 8, 50, 95
3, 69960, Note_on_c, 8, 45, 95
3, 69960, Note_on_c, 8, 40, 95
3, 69980, Note_off_c, 8, 50, 80
3, 69980, Note_off_c, 8, 45, 80
3, 69980, Note_off_c, 8, 40, 80
3, 70080, Note_on_c, 8, 64, 95
3, 70080, Note_on_c, 8, 59, 95
3, 70080, Note_on_c, 8, 50, 95
3, 70080, Note_on_c, 8, 45, 95
3, 70080, Note_on_c, 8, 40, 95
3, 70100, Note_off_c, 8, 64, 80
3, 70100, Note_off_c, 8, 59, 80
3, 70100, Note_off_c, 8, 50, 80
3, 70100, Note_off_c, 8, 45, 80
3, 70100, Note_off_c, 8, 40, 80
3, 70320, Note_on_c, 8, 64, 95
3, 70320, Note_on_c, 8, 59, 95
3, 70320, Note_on_c, 8, 50, 95
3, 70320, Note_on_c, 8, 45, 95
3, 70320, Note_on_c, 8, 40, 95
3, 70340, Note_off_c, 8, 64, 80
3, 70340, Note_off_c, 8, 59, 80
3, 70340, Note_off_c, 8, 50, 80
3, 70340, Note_off_c, 8, 45, 80
3, 70340, Note_off_c, 8, 40, 80
3, 70560, Note_on_c, 8, 60, 95
3, 70560, Note_on_c, 8, 55, 95
3, 70560, Note_on_c, 8, 40, 95
3, 70580, Note_off_c, 8, 40, 80
3, 70680, Note_off_c, 8, 60, 80
3, 70680, Note_off_c, 8, 55, 80
3, 70680, Note_on_c, 8, 55, 95
3, 70680, Note_on_c, 8, 50, 95
3, 70680, Note_on_c, 8, 45, 95
3, 70700, Note_off_c, 8, 55, 80
3, 70700, Note_off_c, 8, 50, 80
3, 70700, Note_off_c, 8, 45, 80
3, 70920, Note_on_c, 8, 60, 95
3, 70920, Note_on_c, 8, 55, 95
3, 70920, Note_on_c, 8, 40, 95
3, 70940, Note_off_c, 8, 40, 80
3, 71040, Note_off_c, 8, 60, 80
3, 71040, Note_off_c, 8, 55, 80
3, 71040, Note_on_c, 8, 55, 95
3, 71040, Note_on_c, 8, 50, 95
3, 71040, Note_on_c, 8, 45, 95
3, 71060, Note_off_c, 8, 55, 80
3, 71060, Note_off_c, 8, 50, 80
3, 71060, Note_off_c, 8, 45, 80
3, 71280, Note_on_c, 8, 60, 95
3, 71280, Note_on_c, 8, 55, 95
3, 71280, Note_on_c, 8, 40, 95
3, 71300, Note_off_c, 8, 40, 80
3, 71400, Note_off_c, 8, 60, 80
3, 71400, Note_off_c, 8, 55, 80
3, 71400, Note_on_c, 8, 65, 95
3, 71400, Note_on_c, 8, 60, 95
3, 71400, Note_on_c, 8, 55, 95
3, 71400, Note_on_c, 8, 40, 95
3, 71420, Note_off_c, 8, 40, 80
3, 71520, Note_off_c, 8, 65, 80
3, 71520, Note_off_c, 8, 60, 80
3, 71520, Note_off_c, 8, 55, 80
3, 71520, Note_on_c, 8, 65, 95
3, 71520, Note_on_c, 8, 60, 95
3, 71520, Note_on_c, 8, 55, 95
3, 71520, Note_on_c, 8, 40, 95
3, 71540, Note_off_c, 8, 40, 80
3, 71640, Note_off_c, 8, 65, 80
3, 71640, Note_off_c, 8, 60, 80
3, 71640, Note_off_c, 8, 55, 80
3, 71640, Note_on_c, 8, 64, 95
3, 71640, Note_on_c, 8, 60, 95
3, 71640, Note_on_c, 8, 55, 95
3, 71640, Note_on_c, 8, 40, 95
3, 71660, Note_off_c, 8, 40, 80
3, 71760, Note_off_c, 8, 64, 80
3, 71760, Note_off_c, 8, 60, 80
3, 71760, Note_off_c, 8, 55, 80
3, 72000, Note_on_c, 8, 55, 95
3, 72000, Note_on_c, 8, 50, 95
3, 72000, Note_on_c, 8, 45, 95
3, 72020, Note_off_c, 8, 55, 80
3, 72020, Note_off_c, 8, 50, 80
3, 72020, Note_off_c, 8, 45, 80
3, 72240, Note_on_c, 8, 55, 95
3, 72240, Note_on_c, 8, 50, 95
3, 72240, Note_on_c, 8, 45, 95
3, 72260, Note_off_c, 8, 55, 80
3, 72260, Note_off_c, 8, 50, 80
3, 72260, Note_off_c, 8, 45, 80
3, 72480, Note_on_c, 8, 70, 95
3, 72480, Note_on_c, 8, 65, 95
3, 72480, Note_on_c, 8, 58, 95
3, 72480, Note_on_c, 8, 53, 95
3, 72480, Note_on_c, 8, 46, 95
3, 72720, Note_off_c, 8, 70, 80
3, 72720, Note_off_c, 8, 65, 80
3, 72720, Note_off_c, 8, 58, 80
3, 72720, Note_off_c, 8, 53, 80
3, 72720, Note_off_c, 8, 46, 80
3, 72720, Note_on_c, 8, 55, 95
3, 72720, Note_on_c, 8, 50, 95
3, 72720, Note_on_c, 8, 45, 95
3, 72740, Note_off_c, 8, 55, 80
3, 72740, Note_off_c, 8, 50, 80
3, 72740, Note_off_c, 8, 45, 80
3, 72840, Note_on_c, 8, 55, 95
3, 72840, Note_on_c, 8, 50, 95
3, 72840, Note_on_c, 8, 45, 95
3, 72860, Note_off_c, 8, 55, 80
3, 72860, Note_off_c, 8, 50, 80
3, 72860, Note_off_c, 8, 45, 80
3, 72960, Note_on_c, 8, 55, 95
3, 72960, Note_on_c, 8, 50, 95
3, 72960, Note_on_c, 8, 45, 95
3, 72980, Note_off_c, 8, 55, 80
3, 72980, Note_off_c, 8, 50, 80
3, 72980, Note_off_c, 8, 45, 80
3, 73200, Note_on_c, 8, 55, 95
3, 73200, Note_on_c, 8, 50, 95
3, 73200, Note_on_c, 8, 45, 95
3, 73220, Note_off_c, 8, 55, 80
3, 73220, Note_off_c, 8, 50, 80
3, 73220, Note_off_c, 8, 45, 80
3, 73440, Note_on_c, 8, 65, 95
3, 73440, Note_on_c, 8, 60, 95
3, 73440, Note_on_c, 8, 53, 95
3, 73440, Note_on_c, 8, 48, 95
3, 73440, Note_on_c, 8, 41, 95
3, 73680, Note_off_c, 8, 65, 80
3, 73680, Note_off_c, 8, 60, 80
3, 73680, Note_off_c, 8, 53, 80
3, 73680, Note_off_c, 8, 48, 80
3, 73680, Note_off_c, 8, 41, 80
3, 73680, Note_on_c, 8, 50, 95
3, 73680, Note_on_c, 8, 45, 95
3, 73680, Note_on_c, 8, 40, 95
3, 73700, Note_off_c, 8, 50, 80
3, 73700, Note_off_c, 8, 45, 80
3, 73700, Note_off_c, 8, 40, 80
3, 73800, Note_on_c, 8, 50, 95
3, 73800, Note_on_c, 8, 45, 95
3, 73800, Note_on_c, 8, 40, 95
3, 73820, Note_off_c, 8, 50, 80
3, 73820, Note_off_c, 8, 45, 80
3, 73820, Note_off_c, 8, 40, 80
3, 73920, Note_on_c, 8, 64, 95
3, 73920, Note_on_c, 8, 59, 95
3, 73920, Note_on_c, 8, 50, 95
3, 73920, Note_on_c, 8, 45, 95
3, 73920, Note_on_c, 8, 40, 95
3, 73940, Note_off_c, 8, 64, 80
3, 73940, Note_off_c, 8, 59, 80
3, 73940, Note_off_c, 8, 50, 80
3, 73940, Note_off_c, 8, 45, 80
3, 73940, Note_off_c, 8, 40, 80
3, 74160, Note_on_c, 8, 64, 95
3, 74160, Note_on_c, 8, 59, 95
3, 74160, Note_on_c, 8, 50, 95
3, 74160, Note_on_c, 8, 45, 95
3, 74160, Note_on_c, 8, 40, 95
3, 74180, Note_off_c, 8, 64, 80
3, 74180, Note_off_c, 8, 59, 80
3, 74180, Note_off_c, 8, 50, 80
3, 74180, Note_off_c, 8, 45, 80
3, 74180, Note_off_c, 8, 40, 80
3, 74400, Note_on_c, 8, 60, 95
3, 74400, Note_on_c, 8, 55, 95
3, 74400, Note_on_c, 8, 40, 95
3, 74420, Note_off_c, 8, 40, 80
3, 74520, Note_off_c, 8, 60, 80
3, 74520, Note_off_c, 8, 55, 80
3, 74520, Note_on_c, 8, 55, 95
3, 74520, Note_on_c, 8, 50, 95
3, 74520, Note_on_c, 8, 45, 95
3, 74540, Note_off_c, 8, 55, 80
3, 74540, Note_off_c, 8, 50, 80
3, 74540, Note_off_c, 8, 45, 80
3, 74760, Note_on_c, 8, 60, 95
3, 74760, Note_on_c, 8, 55, 95
3, 74760, Note_on_c, 8, 40, 95
3, 74780, Note_off_c, 8, 40, 80
3, 74880, Note_off_c, 8, 60, 80
3, 74880, Note_off_c, 8, 55, 80
3, 74880, Note_on_c, 8, 55, 95
3, 74880, Note_on_c, 8, 50, 95
3, 74880, Note_on_c, 8, 45, 95
3, 74900, Note_off_c, 8, 55, 80
3, 74900, Note_off_c, 8, 50, 80
3, 74900, Note_off_c, 8, 45, 80
3, 75120, Note_on_c, 8, 60, 95
3, 75120, Note_on_c, 8, 55, 95
3, 75120, Note_on_c, 8, 40, 95
3, 75140, Note_off_c, 8, 40, 80
3, 75240, Note_off_c, 8, 60, 80
3, 75240, Note_off_c, 8, 55, 80
3, 75240, Note_on_c, 8, 65, 95
3, 75240, Note_on_c, 8, 60, 95
3, 75240, Note_on_c, 8, 55, 95
3, 75240, Note_on_c, 8, 40, 95
3, 75260, Note_off_c, 8, 40, 80
3, 75360, Note_off_c, 8, 65, 80
3, 75360, Note_off_c, 8, 60, 80
3, 75360, Note_off_c, 8, 55, 80
3, 75360, Note_on_c, 8, 65, 95
3, 75360, Note_on_c, 8, 60, 95
3, 75360, Note_on_c, 8, 55, 95
3, 75360, Note_on_c, 8, 40, 95
3, 75380, Note_off_c, 8, 40, 80
3, 75480, Note_off_c, 8, 65, 80
3, 75480, Note_off_c, 8, 60, 80
3, 75480, Note_off_c, 8, 55, 80
3, 75480, Note_on_c, 8, 64, 95
3, 75480, Note_on_c, 8, 60, 95
3, 75480, Note_on_c, 8, 55, 95
3, 75480, Note_on_c, 8, 40, 95
3, 75500, Note_off_c, 8, 40, 80
3, 75600, Note_off_c, 8, 64, 80
3, 75600, Note_off_c, 8, 60, 80
3, 75600, Note_off_c, 8, 55, 80
3, 75840, Program_c, 8, 29
3, 75840, Program_c, 10, 29
3, 75840, Control_c, 8, 7, 120
3, 75840, Control_c, 10, 7, 120
3, 75840, Note_on_c, 8, 65, 95
3, 76080, Note_off_c, 8, 65, 80
3, 76080, Note_on_c, 8, 62, 95
3, 76320, Note_off_c, 8, 62, 80
3, 76320, Note_on_c, 8, 58, 95
3, 76560, Note_off_c, 8, 58, 80
3, 76560, Note_on_c, 8, 65, 95
3, 76620, Note_off_c, 8, 65, 80
3, 76620, Note_on_c, 8, 67, 86
3, 76800, Note_off_c, 8, 67, 80
3, 76800, Note_on_c, 8, 65, 95
3, 77040, Note_off_c, 8, 65, 80
3, 77040, Note_on_c, 8, 60, 95
3, 77280, Note_off_c, 8, 60, 80
3, 77280, Note_on_c, 8, 57, 95
3, 77520, Note_off_c, 8, 57, 80
3, 77520, Note_on_c, 8, 60, 95
3, 77760, Note_off_c, 8, 60, 80
3, 77760, Note_on_c, 8, 63, 95
3, 78000, Note_off_c, 8, 63, 80
3, 78000, Note_on_c, 8, 60, 95
3, 78240, Note_off_c, 8, 60, 80
3, 78240, Note_on_c, 8, 56, 95
3, 78480, Note_off_c, 8, 56, 80
3, 78480, Note_on_c, 8, 62, 95
3, 78540, Note_off_c, 8, 62, 80
3, 78540, Note_on_c, 8, 63, 86
3, 78720, Note_off_c, 8, 63, 80
3, 78720, Note_on_c, 8, 62, 95
3, 78960, Note_off_c, 8, 62, 80
3, 78960, Note_on_c, 8, 58, 95
3, 79200, Note_off_c, 8, 58, 80
3, 79200, Note_on_c, 8, 55, 95
3, 79680, Note_off_c, 8, 55, 80
3, 79680, Note_on_c, 8, 65, 95
3, 79920, Note_off_c, 8, 65, 80
3, 79920, Note_on_c, 8, 62, 95
3, 80160, Note_off_c, 8, 62, 80
3, 80160, Note_on_c, 8, 58, 95
3, 80400, Note_off_c, 8, 58, 80
3, 80400, Note_on_c, 8, 65, 95
3, 80460, Note_off_c, 8, 65, 80
3, 80460, Note_on_c, 8, 67, 86
3, 80640, Note_off_c, 8, 67, 80
3, 80640, Note_on_c, 8, 65, 95
3, 80880, Note_off_c, 8, 65, 80
3, 80880, Note_on_c, 8, 60, 95
3, 81120, Note_off_c, 8, 60, 80
3, 81120, Note_on_c, 8, 57, 95
3, 81360, Note_off_c, 8, 57, 80
3, 81360, Note_on_c, 8, 67, 95
3, 81600, Note_off_c, 8, 67, 80
3, 81600, Note_on_c, 8, 63, 95
3, 81840, Note_off_c, 8, 63, 80
3, 81840, Note_on_c, 8, 60, 95
3, 82080, Note_off_c, 8, 60, 80
3, 82080, Note_on_c, 8, 56, 95
3, 82320, Note_off_c, 8, 56, 80
3, 82320, Note_on_c, 8, 60, 95
3, 82560, Note_off_c, 8, 60, 80
3, 82560, Note_on_c, 8, 60, 95
3, 82620, Note_off_c, 8, 60, 80
3, 82620, Note_on_c, 8, 62, 86
3, 82800, Note_off_c, 8, 62, 80
3, 82800, Note_on_c, 8, 58, 95
3, 83040, Note_off_c, 8, 58, 80
3, 83040, Note_on_c, 8, 55, 95
3, 83160, Note_off_c, 8, 55, 80
3, 83160, Note_on_c, 8, 58, 95
3, 83280, Note_off_c, 8, 58, 80
3, 83280, Note_on_c, 8, 70, 95
3, 83400, Note_off_c, 8, 70, 80
3, 83400, Note_on_c, 8, 70, 95
3, 83640, Note_off_c, 8, 70, 80
3, 83640, Note_on_c, 8, 70, 95
3, 83760, Note_off_c, 8, 70, 80
3, 83760, Note_on_c, 8, 69, 86
3, 84000, Note_off_c, 8, 69, 80
3, 84000, Note_on_c, 8, 67, 86
3, 84240, Note_off_c, 8, 67, 80
3, 84240, Note_on_c, 8, 65, 86
3, 84360, Note_off_c, 8, 65, 80
3, 84360, Note_on_c, 10, 65, 95
3, 84360, Pitch_bend_c, 10, 8192
3, 84392, Pitch_bend_c, 10, 8960
3, 84408, Pitch_bend_c, 10, 10112
3, 84424, Pitch_bend_c, 10, 10880
3, 84600, Note_off_c, 10, 65, 80
3, 84600, Pitch_bend_c, 10, 8192
3, 84600, Note_on_c, 8, 69, 95
3, 84720, Note_off_c, 8, 69, 80
3, 84720, Note_on_c, 8, 67, 86
3, 84960, Note_off_c, 8, 67, 80
3, 84960, Note_on_c, 8, 65, 86
3, 85080, Note_off_c, 8, 65, 80
3, 85080, Note_on_c, 8, 67, 86
3, 85200, Note_off_c, 8, 67, 80
3, 85200, Note_on_c, 10, 62, 95
3, 85200, Pitch_bend_c, 10, 8192
3, 85232, Pitch_bend_c, 10, 8320
3, 85248, Pitch_bend_c, 10, 8960
3, 85264, Pitch_bend_c, 10, 9600
3, 85320, Note_off_c, 10, 62, 80
3, 85320, Pitch_bend_c, 10, 8192
3, 85320, Note_on_c, 10, 62, 95
3, 85320, Pitch_bend_c, 10, 8192
3, 85384, Pitch_bend_c, 10, 8320
3, 85400, Pitch_bend_c, 10, 8704
3, 85416, Pitch_bend_c, 10, 8960
3, 85432, Pitch_bend_c, 10, 9344
3, 85448, Pitch_bend_c, 10, 9600
3, 85560, Note_off_c, 10, 62, 80
3, 85560, Pitch_bend_c, 10, 8192
3, 85560, Note_on_c, 10, 62, 95
3, 85560, Pitch_bend_c, 10, 8192
3, 85624, Pitch_bend_c, 10, 8320
3, 85640, Pitch_bend_c, 10, 8704
3, 85656, Pitch_bend_c, 10, 8960
3, 85672, Pitch_bend_c, 10, 9344
3, 85688, Pitch_bend_c, 10, 9600
3, 85800, Note_off_c, 10, 62, 80
3, 85800, Pitch_bend_c, 10, 8192
3, 85800, Note_on_c, 10, 62, 95
3, 85800, Pitch_bend_c, 10, 8192
3, 85864, Pitch_bend_c, 10, 8320
3, 85880, Pitch_bend_c, 10, 8704
3, 85896, Pitch_bend_c, 10, 8960
3, 85912, Pitch_bend_c, 10, 9344
3, 85928, Pitch_bend_c, 10, 9600
3, 86040, Note_off_c, 10, 62, 80
3, 86040, Pitch_bend_c, 10, 8192
3, 86040, Note_on_c, 10, 62, 95
3, 86040, Pitch_bend_c, 10, 8192
3, 86104, Pitch_bend_c, 10, 8320
3, 86120, Pitch_bend_c, 10, 8704
3, 86136, Pitch_bend_c, 10, 8960
3, 86152, Pitch_bend_c, 10, 9344
3, 86168, Pitch_bend_c, 10, 9600
3, 86280, Note_off_c, 10, 62, 80
3, 86280, Pitch_bend_c, 10, 8192
3, 86280, Note_on_c, 10, 62, 95
3, 86280, Pitch_bend_c, 10, 8192
3, 86312, Pitch_bend_c, 10, 8320
3, 86328, Pitch_bend_c, 10, 8960
3, 86344, Pitch_bend_c, 10, 9600
3, 86400, Note_off_c, 10, 62, 80
3, 86400, Pitch_bend_c, 10, 8192
3, 86400, Note_on_c, 8, 64, 95
3, 86460, Note_off_c, 8, 64, 80
3, 86460, Note_on_c, 8, 62, 86
3, 86520, Note_off_c, 8, 62, 80
3, 86520, Note_on_c, 8, 60, 86
3, 86640, Note_off_c, 8, 60, 80
3, 86640, Note_on_c, 8, 62, 86
3, 86760, Note_off_c, 8, 62, 80
3, 86760, Note_on_c, 8, 64, 86
3, 86880, Note_off_c, 8, 64, 80
3, 86880, Note_on_c, 8, 60, 86
3, 87000, Note_off_c, 8, 60, 80
3, 87000, Note_on_c, 8, 67, 86
3, 87120, Note_off_c, 8, 67, 80
3, 87120, Note_on_c, 8, 76, 95
3, 87240, Note_off_c, 8, 76, 80
3, 87240, Note_on_c, 8, 72, 95
3, 87480, Note_off_c, 8, 72, 80
3, 87480, Note_on_c, 10, 70, 95
3, 87480, Pitch_bend_c, 10, 8192
3, 87512, Pitch_bend_c, 10, 8320
3, 87528, Pitch_bend_c, 10, 8960
3, 87544, Pitch_bend_c, 10, 9600
3, 87600, Note_off_c, 10, 70, 80
3, 87600, Pitch_bend_c, 10, 8192
3, 87600, Note_on_c, 10, 70, 95
3, 87600, Pitch_bend_c, 10, 8192
3, 87664, Pitch_bend_c, 10, 8320
3, 87680, Pitch_bend_c, 10, 8704
3, 87696, Pitch_bend_c, 10, 8960
3, 87712, Pitch_bend_c, 10, 9344
3, 87728, Pitch_bend_c, 10, 9600
3, 87840, Note_off_c, 10, 70, 80
3, 87840, Pitch_bend_c, 10, 8192
3, 87840, Note_on_c, 8, 72, 95
3, 88080, Note_off_c, 8, 72, 80
3, 88080, Note_on_c, 8, 69, 86
3, 88200, Note_off_c, 8, 69, 80
3, 88200, Note_on_c, 8, 72, 86
3, 88320, Note_off_c, 8, 72, 80
3, 88320, Note_on_c, 8, 75, 95
3, 88380, Note_off_c, 8, 75, 80
3, 88380, Note_on_c, 8, 74, 86
3, 88440, Note_off_c, 8, 74, 80
3, 88440, Note_on_c, 8, 72, 95
3, 88560, Note_off_c, 8, 72, 80
3, 88560, Note_on_c, 8, 74, 95
3, 88680, Note_off_c, 8, 74, 80
3, 88680, Note_on_c, 8, 69, 95
3, 88800, Note_off_c, 8, 69, 80
3, 88800, Note_on_c, 8, 72, 95
3, 89040, Note_off_c, 8, 72, 80
3, 89040, Note_on_c, 8, 72, 86
3, 89160, Note_off_c, 8, 72, 80
3, 89160, Note_on_c, 8, 72, 86
3, 89280, Note_off_c, 8, 72, 80
3, 89280, Note_on_c, 10, 79, 95
3, 89280, Pitch_bend_c, 10, 8192
3, 89296, Pitch_bend_c, 10, 8320
3, 89312, Pitch_bend_c, 10, 8448
3, 89328, Pitch_bend_c, 10, 8576
3, 89344, Pitch_bend_c, 10, 8704
3, 89360, Pitch_bend_c, 10, 8832
3, 89376, Pitch_bend_c, 10, 8960
3, 89392, Pitch_bend_c, 10, 9088
3, 89408, Pitch_bend_c, 10, 9344
3, 89424, Pitch_bend_c, 10, 9472
3, 89440, Pitch_bend_c, 10, 9600
3, 89648, Pitch_bend_c, 10, 9344
3, 89664, Pitch_bend_c, 10, 9216
3, 89680, Pitch_bend_c, 10, 9088
3, 89696, Pitch_bend_c, 10, 8832
3, 89712, Pitch_bend_c, 10, 8704
3, 89728, Pitch_bend_c, 10, 8576
3, 89744, Pitch_bend_c, 10, 8320
3, 89760, Note_off_c, 10, 79, 80
3, 89760, Pitch_bend_c, 10, 8192
3, 89760, Pitch_bend_c, 10, 8192
3, 89760, Note_on_c, 8, 77, 95
3, 89880, Note_off_c, 8, 77, 80
3, 89880, Note_on_c, 8, 79, 86
3, 90000, Note_off_c, 8, 79, 80
3, 90000, Note_on_c, 10, 74, 95
3, 90000, Pitch_bend_c, 10, 8192
3, 90064, Pitch_bend_c, 10, 8320
3, 90080, Pitch_bend_c, 10, 8704
3, 90096, Pitch_bend_c, 10, 9088
3, 90112, Pitch_bend_c, 10, 9344
3, 90128, Pitch_bend_c, 10, 9600
3, 90240, Note_off_c, 10, 74, 80
3, 90240, Pitch_bend_c, 10, 8192
3, 90240, Note_on_c, 8, 72, 95
3, 90720, Note_off_c, 8, 72, 80
3, 90720, Note_on_c, 10, 70, 86
3, 90720, Pitch_bend_c, 10, 8192
3, 90784, Pitch_bend_c, 10, 8320
3, 90800, Pitch_bend_c, 10, 8704
3, 90816, Pitch_bend_c, 10, 9088
3, 90832, Pitch_bend_c, 10, 9344
3, 90848, Pitch_bend_c, 10, 9600
3, 90960, Note_off_c, 10, 70, 80
3, 90960, Pitch_bend_c, 10, 8192
3, 90960, Note_on_c, 8, 72, 95
3, 91080, Note_off_c, 8, 72, 80
3, 91080, Note_on_c, 8, 70, 86
3, 91200, Note_off_c, 8, 70, 80
3, 91200, Note_on_c, 10, 75, 95
3, 91200, Pitch_bend_c, 10, 8192
3, 91216, Pitch_bend_c, 10, 8320
3, 91232, Pitch_bend_c, 10, 8576
3, 91248, Pitch_bend_c, 10, 8832
3, 91264, Pitch_bend_c, 10, 8960
3, 91280, Pitch_bend_c, 10, 9216
3, 91296, Pitch_bend_c, 10, 9344
3, 91312, Pitch_bend_c, 10, 9600
3, 91568, Pitch_bend_c, 10, 9472
3, 91584, Pitch_bend_c, 10, 9344
3, 91600, Pitch_bend_c, 10, 9088
3, 91616, Pitch_bend_c, 10, 8960
3, 91632, Pitch_bend_c, 10, 8704
3, 91648, Pitch_bend_c, 10, 8576
3, 91664, Pitch_bend_c, 10, 8320
3, 91680, Note_off_c, 10, 75, 80
3, 91680, Pitch_bend_c, 10, 8192
3, 91680, Pitch_bend_c, 10, 8192
3, 91680, Note_on_c, 8, 75, 95
3, 91920, Note_off_c, 8, 75, 80
3, 91920, Note_on_c, 8, 72, 95
3, 91980, Note_off_c, 8, 72, 80
3, 91980, Note_on_c, 8, 75, 95
3, 92040, Note_off_c, 8, 75, 80
3, 92040, Note_on_c, 8, 74, 86
3, 92100, Note_off_c, 8, 74, 80
3, 92100, Note_on_c, 8, 70, 95
3, 92160, Note_off_c, 8, 70, 80
3, 92160, Note_on_c, 8, 72, 86
3, 92280, Note_off_c, 8, 72, 80
3, 92280, Note_on_c, 8, 72, 86
3, 92400, Note_off_c, 8, 72, 80
3, 92400, Note_on_c, 8, 72, 86
3, 92520, Note_off_c, 8, 72, 80
3, 92520, Note_on_c, 10, 74, 86
3, 92520, Pitch_bend_c, 10, 8192
3, 92568, Pitch_bend_c, 10, 8576
3, 92584, Pitch_bend_c, 10, 8832
3, 92640, Note_off_c, 10, 74, 80
3, 92640, Pitch_bend_c, 10, 8192
3, 92640, Note_on_c, 8, 74, 95
3, 92760, Note_off_c, 8, 74, 80
3, 92760, Note_on_c, 8, 72, 86
3, 92880, Note_off_c, 8, 72, 80
3, 92880, Note_on_c, 8, 74, 86
3, 93000, Note_off_c, 8, 74, 80
3, 93000, Note_on_c, 8, 69, 86
3, 93120, Note_off_c, 8, 69, 80
3, 93120, Note_on_c, 10, 75, 95
3, 93120, Pitch_bend_c, 10, 8192
3, 93184, Pitch_bend_c, 10, 8320
3, 93200, Pitch_bend_c, 10, 8832
3, 93360, Note_off_c, 10, 75, 80
3, 93360, Pitch_bend_c, 10, 8192
3, 93360, Note_on_c, 8, 79, 95
3, 93480, Note_off_c, 8, 79, 80
3, 93480, Note_on_c, 10, 74, 86
3, 93480, Pitch_bend_c, 10, 9600
3, 93608, Pitch_bend_c, 10, 9344
3, 93624, Pitch_bend_c, 10, 8960
3, 93640, Pitch_bend_c, 10, 8704
3, 93656, Pitch_bend_c, 10, 8320
3, 93672, Pitch_bend_c, 10, 8192
3, 93720, Note_off_c, 10, 74, 80
3, 93720, Pitch_bend_c, 10, 8192
3, 93720, Note_on_c, 8, 72, 95
3, 93840, Note_off_c, 8, 72, 80
3, 93840, Note_on_c, 8, 74, 86
3, 93960, Note_off_c, 8, 74, 80
3, 93960, Note_on_c, 8, 69, 95
3, 94080, Note_off_c, 8, 69, 80
3, 94080, Note_on_c, 8, 72, 86
3, 94560, Note_off_c, 8, 72, 80
3, 94560, Note_on_c, 8, 76, 95
3, 94680, Note_off_c, 8, 76, 80
3, 94680, Note_on_c, 8, 72, 95
3, 94800, Note_off_c, 8, 72, 80
3, 94800, Note_on_c, 10, 77, 95
3, 94800, Pitch_bend_c, 10, 8192
3, 94864, Pitch_bend_c, 10, 8320
3, 94880, Pitch_bend_c, 10, 8704
3, 94896, Pitch_bend_c, 10, 8960
3, 94912, Pitch_bend_c, 10, 9344
3, 94928, Pitch_bend_c, 10, 9600
3, 95040, Note_off_c, 10, 77, 80
3, 95040, Pitch_bend_c, 10, 8192
3, 95040, Note_on_c, 8, 82, 95
3, 95160, Note_off_c, 8, 82, 80
3, 95160, Note_on_c, 10, 77, 86
3, 95160, Pitch_bend_c, 10, 9600
3, 95288, Pitch_bend_c, 10, 9344
3, 95304, Pitch_bend_c, 10, 8960
3, 95320, Pitch_bend_c, 10, 8704
3, 95336, Pitch_bend_c, 10, 8320
3, 95352, Pitch_bend_c, 10, 8192
3, 95400, Note_off_c, 10, 77, 80
3, 95400, Pitch_bend_c, 10, 8192
3, 95400, Note_on_c, 8, 75, 95
3, 95520, Note_off_c, 8, 75, 80
3, 95520, Note_on_c, 8, 77, 86
3, 95640, Note_off_c, 8, 77, 80
3, 95640, Note_on_c, 8, 72, 95
3, 95760, Note_off_c, 8, 72, 80
3, 95760, Note_on_c, 10, 74, 95
3, 95760, Pitch_bend_c, 10, 8192
3, 95840, Pitch_bend_c, 10, 8448
3, 95856, Pitch_bend_c, 10, 8576
3, 95872, Pitch_bend_c, 10, 8832
3, 96000, Note_off_c, 10, 74, 80
3, 96000, Pitch_bend_c, 10, 8192
3, 96000, Note_on_c, 8, 72, 95
3, 96120, Note_off_c, 8, 72, 80
3, 96120, Note_on_c, 8, 70, 86
3, 96240, Note_off_c, 8, 70, 80
3, 96240, Note_on_c, 8, 72, 86
3, 96480, Note_off_c, 8, 72, 80
3, 96480, Note_on_c, 8, 72, 86
3, 96540, Note_off_c, 8, 72, 80
3, 96540, Note_on_c, 8, 70, 86
3, 96720, Note_off_c, 8, 70, 80
3, 96720, Note_on_c, 8, 84, 95
3, 96960, Note_off_c, 8, 84, 80
3, 96960, Note_on_c, 10, 82, 95
3, 96960, Pitch_bend_c, 10, 8192
3, 97024, Pitch_bend_c, 10, 8320
3, 97040, Pitch_bend_c, 10, 8704
3, 97056, Pitch_bend_c, 10, 8960
3, 97072, Pitch_bend_c, 10, 9344
3, 97088, Pitch_bend_c, 10, 9600
3, 97200, Note_off_c, 10, 82, 80
3, 97200, Pitch_bend_c, 10, 8192
3, 97200, Note_on_c, 8, 84, 95
3, 97320, Note_off_c, 8, 84, 80
3, 97320, Note_on_c, 10, 82, 86
3, 97320, Pitch_bend_c, 10, 8192
3, 97384, Pitch_bend_c, 10, 8320
3, 97400, Pitch_bend_c, 10, 8704
3, 97416, Pitch_bend_c, 10, 8960
3, 97432, Pitch_bend_c, 10, 9344
3, 97448, Pitch_bend_c, 10, 9600
3, 97560, Note_off_c, 10, 82, 80
3, 97560, Pitch_bend_c, 10, 8192
3, 97560, Note_on_c, 8, 84, 95
3, 97680, Note_off_c, 8, 84, 80
3, 97680, Note_on_c, 10, 82, 86
3, 97680, Pitch_bend_c, 10, 8192
3, 97712, Pitch_bend_c, 10, 8320
3, 97728, Pitch_bend_c, 10, 8960
3, 97744, Pitch_bend_c, 10, 9600
3, 97800, Note_off_c, 10, 82, 80
3, 97800, Pitch_bend_c, 10, 8192
3, 97800, Note_on_c, 8, 84, 95
3, 97920, Note_off_c, 8, 84, 80
3, 97920, Note_on_c, 8, 84, 86
3, 98040, Note_off_c, 8, 84, 80
3, 98040, Note_on_c, 8, 82, 86
3, 98160, Note_off_c, 8, 82, 80
3, 98160, Note_on_c, 8, 79, 86
3, 98280, Note_off_c, 8, 79, 80
3, 98280, Note_on_c, 8, 77, 86
3, 98400, Note_off_c, 8, 77, 80
3, 98400, Note_on_c, 8, 75, 95
3, 98520, Note_off_c, 8, 75, 80
3, 98520, Note_on_c, 8, 74, 86
3, 98640, Note_off_c, 8, 74, 80
3, 98640, Note_on_c, 8, 72, 86
3, 98760, Note_off_c, 8, 72, 80
3, 98760, Note_on_c, 10, 84, 95
3, 98840, Pitch_bend_c, 10, 8192
3, 98920, Pitch_bend_c, 10, 8448
3, 99000, Pitch_bend_c, 10, 8192
3, 99080, Pitch_bend_c, 10, 8448
3, 99160, Pitch_bend_c, 10, 8192
3, 99240, Pitch_bend_c, 10, 8448
3, 99320, Pitch_bend_c, 10, 8192
3, 99360, Note_off_c, 10, 84, 80
3, 99360, Pitch_bend_c, 10, 8192
3, 99360, End_track
4, 0, Start_track
4, 0, Title_t, "Guitar2"
4, 0, Control_c, 13, 100, 0
4, 0, Control_c, 13, 101, 0
4, 0, Control_c, 13, 6, 12
4, 0, Pitch_bend_c, 13, 8192
4, 0, Control_c, 14, 100, 0
4, 0, Control_c, 14, 101, 0
4, 0, Control_c, 14, 6, 12
4, 0, Pitch_bend_c, 14, 8192
4, 0, Program_c, 13, 30
4, 0, Program_c, 14, 30
4, 0, Control_c, 13, 7, 80
4, 0, Control_c, 14, 7, 80
4, 0, Control_c, 13, 10, 64
4, 0, Control_c, 14, 10, 64
4, 0, Control_c, 13, 93, 0
4, 0, Control_c, 14, 93, 0
4, 0, Control_c, 13, 91, 0
4, 0, Control_c, 14, 91, 0
4, 0, Control_c, 13, 92, 0
4, 0, Control_c, 14, 92, 0
4, 0, Control_c, 13, 95, 0
4, 0, Control_c, 14, 95, 0
4, 84000, Note_on_c, 13, 70, 95
4, 84000, Note_on_c, 13, 65, 95
4, 84000, Note_on_c, 13, 58, 95
4, 84000, Note_on_c, 13, 53, 95
4, 84000, Note_on_c, 13, 46, 95
4, 84240, Note_off_c, 13, 70, 80
4, 84240, Note_off_c, 13, 65, 80
4, 84240, Note_off_c, 13, 58, 80
4, 84240, Note_off_c, 13, 53, 80
4, 84240, Note_off_c, 13, 46, 80
4, 84240, Note_on_c, 13, 55, 95
4, 84240, Note_on_c, 13, 50, 95
4, 84240, Note_on_c, 13, 45, 95
4, 84260, Note_off_c, 13, 55, 80
4, 84260, Note_off_c, 13, 50, 80
4, 84260, Note_off_c, 13, 45, 80
4, 84360, Note_on_c, 13, 55, 95
4, 84360, Note_on_c, 13, 50, 95
4, 84360, Note_on_c, 13, 45, 95
4, 84380, Note_off_c, 13, 55, 80
4, 84380, Note_off_c, 13, 50, 80
4, 84380, Note_off_c, 13, 45, 80
4, 84480, Note_on_c, 13, 55, 95
4, 84480, Note_on_c, 13, 50, 95
4, 84480, Note_on_c, 13, 45, 95
4, 84500, Note_off_c, 13, 55, 80
4, 84500, Note_off_c, 13, 50, 80
4, 84500, Note_off_c, 13, 45, 80
4, 84720, Note_on_c, 13, 55, 95
4, 84720, Note_on_c, 13, 50, 95
4, 84720, Note_on_c, 13, 45, 95
4, 84740, Note_off_c, 13, 55, 80
4, 84740, Note_off_c, 13, 50, 80
4, 84740, Note_off_c, 13, 45, 80
4, 84960, Note_on_c, 13, 65, 95
4, 84960, Note_on_c, 13, 60, 95
4, 84960, Note_on_c, 13, 53, 95
4, 84960, Note_on_c, 13, 48, 95
4, 84960, Note_on_c, 13, 41, 95
4, 85200, Note_off_c, 13, 65, 80
4, 85200, Note_off_c, 13, 60, 80
4, 85200, Note_off_c, 13, 53, 80
4, 85200, Note_off_c, 13, 48, 80
4, 85200, Note_off_c, 13, 41, 80
4, 85200, Note_on_c, 13, 50, 95
4, 85200, Note_on_c, 13, 45, 95
4, 85200, Note_on_c, 13, 40, 95
4, 85220, Note_off_c, 13, 50, 80
4, 85220, Note_off_c, 13, 45, 80
4, 85220, Note_off_c, 13, 40, 80
4, 85320, Note_on_c, 13, 50, 95
4, 85320, Note_on_c, 13, 45, 95
4, 85320, Note_on_c, 13, 40, 95
4, 85340, Note_off_c, 13, 50, 80
4, 85340, Note_off_c, 13, 45, 80
4, 85340, Note_off_c, 13, 40, 80
4, 85440, Note_on_c, 13, 64, 95
4, 85440, Note_on_c, 13, 59, 95
4, 85440, Note_on_c, 13, 50, 95
4, 85440, Note_on_c, 13, 45, 95
4, 85440, Note_on_c, 13, 40, 95
4, 85460, Note_off_c, 13, 64, 80
4, 85460, Note_off_c, 13, 59, 80
4, 85460, Note_off_c, 13, 50, 80
4, 85460, Note_off_c, 13, 45, 80
4, 85460, Note_off_c, 13, 40, 80
4, 85680, Note_on_c, 13, 64, 95
4, 85680, Note_on_c, 13, 59, 95
4, 85680, Note_on_c, 13, 50, 95
4, 85680, Note_on_c, 13, 45, 95
4, 85680, Note_on_c, 13, 40, 95
4, 85700, Note_off_c, 13, 64, 80
4, 85700, Note_off_c, 13, 59, 80
4, 85700, Note_off_c, 13, 50, 80
4, 85700, Note_off_c, 13, 45, 80
4, 85700, Note_off_c, 13, 40, 80
4, 85920, Note_on_c, 13, 60, 95
4, 85920, Note_on_c, 13, 55, 95
4, 85920, Note_on_c, 13, 40, 95
4, 85940, Note_off_c, 13, 40, 80
4, 86040, Note_off_c, 13, 60, 80
4, 86040, Note_off_c, 13, 55, 80
4, 86040, Note_on_c, 13, 55, 95
4, 86040, Note_on_c, 13, 50, 95
4, 86040, Note_on_c, 13, 45, 95
4, 86060, Note_off_c, 13, 55, 80
4, 86060, Note_off_c, 13, 50, 80
4, 86060, Note_off_c, 13, 45, 80
4, 86280, Note_on_c, 13, 60, 95
4, 86280, Note_on_c, 13, 55, 95
4, 86280, Note_on_c, 13, 40, 95
4, 86300, Note_off_c, 13, 40, 80
4, 86400, Note_off_c, 13, 60, 80
4, 86400, Note_off_c, 13, 55, 80
4, 86400, Note_on_c, 13, 55, 95
4, 86400, Note_on_c, 13, 50, 95
4, 86400, Note_on_c, 13, 45, 95
4, 86420, Note_off_c, 13, 55, 80
4, 86420, Note_off_c, 13, 50, 80
4, 86420, Note_off_c, 13, 45, 80
4, 86640, Note_on_c, 13, 60, 95
4, 86640, Note_on_c, 13, 55, 95
4, 86640, Note_on_c, 13, 40, 95
4, 86660, Note_off_c, 13, 40, 80
4, 86760, Note_off_c, 13, 60, 80
4, 86760, Note_off_c, 13, 55, 80
4, 86760, Note_on_c, 13, 65, 95
4, 86760, Note_on_c, 13, 60, 95
4, 86760, Note_on_c, 13, 55, 95
4, 86760, Note_on_c, 13, 40, 95
4, 86780, Note_off_c, 13, 40, 80
4, 86880, Note_off_c, 13, 65, 80
4, 86880, Note_off_c, 13, 60, 80
4, 86880, Note_off_c, 13, 55, 80
4, 86880, Note_on_c, 13, 65, 95
4, 86880, Note_on_c, 13, 60, 95
4, 86880, Note_on_c, 13, 55, 95
4, 86880, Note_on_c, 13, 40, 95
4, 86900, Note_off_c, 13, 40, 80
4, 87000, Note_off_c, 13, 65, 80
4, 87000, Note_off_c, 13, 60, 80
4, 87000, Note_off_c, 13, 55, 80
4, 87000, Note_on_c, 13, 64, 95
4, 87000, Note_on_c, 13, 60, 95
4, 87000, Note_on_c, 13, 55, 95
4, 87000, Note_on_c, 13, 40, 95
4, 87020, Note_off_c, 13, 40, 80
4, 87120, Note_off_c, 13, 64, 80
4, 87120, Note_off_c, 13, 60, 80
4, 87120, Note_off_c, 13, 55, 80
4, 87360, Note_on_c, 13, 55, 95
4, 87360, Note_on_c, 13, 50, 95
4, 87360, Note_on_c, 13, 45, 95
4, 87380, Note_off_c, 13, 55, 80
4, 87380, Note_off_c, 13, 50, 80
4, 87380, Note_off_c, 13, 45, 80
4, 87600, Note_on_c, 13, 55, 95
4, 87600, Note_on_c, 13, 50, 95
4, 87600, Note_on_c, 13, 45, 95
4, 87620, Note_off_c, 13, 55, 80
4, 87620, Note_off_c, 13, 50, 80
4, 87620, Note_off_c, 13, 45, 80
4, 87840, Note_on_c, 13, 70, 95
4, 87840, Note_on_c, 13, 65, 95
4, 87840, Note_on_c, 13, 58, 95
4, 87840, Note_on_c, 13, 53, 95
4, 87840, Note_on_c, 13, 46, 95
4, 88080, Note_off_c, 13, 70, 80
4, 88080, Note_off_c, 13, 65, 80
4, 88080, Note_off_c, 13, 58, 80
4, 88080, Note_off_c, 13, 53, 80
4, 88080, Note_off_c, 13, 46, 80
4, 88080, Note_on_c, 13, 55, 95
4, 88080, Note_on_c, 13, 50, 95
4, 88080, Note_on_c, 13, 45, 95
4, 88100, Note_off_c, 13, 55, 80
4, 88100, Note_off_c, 13, 50, 80
4, 88100, Note_off_c, 13, 45, 80
4, 88200, Note_on_c, 13, 55, 95
4, 88200, Note_on_c, 13, 50, 95
4, 88200, Note_on_c, 13, 45, 95
4, 88220, Note_off_c, 13, 55, 80
4, 88220, Note_off_c, 13, 50, 80
4, 88220, Note_off_c, 13, 45, 80
4, 88320, Note_on_c, 13, 55, 95
4, 88320, Note_on_c, 13, 50, 95
4, 88320, Note_on_c, 13, 45, 95
4, 88340, Note_off_c, 13, 55, 80
4, 88340, Note_off_c, 13, 50, 80
4, 88340, Note_off_c, 13, 45, 80
4, 88560, Note_on_c, 13, 55, 95
4, 88560, Note_on_c, 13, 50, 95
4, 88560, Note_on_c, 13, 45, 95
4, 88580, Note_off_c, 13, 55, 80
4, 88580, Note_off_c, 13, 50, 80
4, 88580, Note_off_c, 13, 45, 80
4, 88800, Note_on_c, 13, 65, 95
4, 88800, Note_on_c, 13, 60, 95
4, 88800, Note_on_c, 13, 53, 95
4, 88800, Note_on_c, 13, 48, 95
4, 88800, Note_on_c, 13, 41, 95
4, 89040, Note_off_c, 13, 65, 80
4, 89040, Note_off_c, 13, 60, 80
4, 89040, Note_off_c, 13, 53, 80
4, 89040, Note_off_c, 13, 48, 80
4, 89040, Note_off_c, 13, 41, 80
4, 89040, Note_on_c, 13, 50, 95
4, 89040, Note_on_c, 13, 45, 95
4, 89040, Note_on_c, 13, 40, 95
4, 89060, Note_off_c, 13, 50, 80
4, 89060, Note_off_c, 13, 45, 80
4, 89060, Note_off_c, 13, 40, 80
4, 89160, Note_on_c, 13, 50, 95
4, 89160, Note_on_c, 13, 45, 95
4, 89160, Note_on_c, 13, 40, 95
4, 89180, Note_off_c, 13, 50, 80
4, 89180, Note_off_c, 13, 45, 80
4, 89180, Note_off_c, 13, 40, 80
4, 89280, Note_on_c, 13, 64, 95
4, 89280, Note_on_c, 13, 59, 95
4, 89280, Note_on_c, 13, 50, 95
4, 89280, Note_on_c, 13, 45, 95
4, 89280, Note_on_c, 13, 40, 95
4, 89300, Note_off_c, 13, 64, 80
4, 89300, Note_off_c, 13, 59, 80
4, 89300, Note_off_c, 13, 50, 80
4, 89300, Note_off_c, 13, 45, 80
4, 89300, Note_off_c, 13, 40, 80
4, 89520, Note_on_c, 13, 64, 95
4, 89520, Note_on_c, 13, 59, 95
4, 89520, Note_on_c, 13, 50, 95
4, 89520, Note_on_c, 13, 45, 95
4, 89520, Note_on_c, 13, 40, 95
4, 89540, Note_off_c, 13, 64, 80
4, 89540, Note_off_c, 13, 59, 80
4, 89540, Note_off_c, 13, 50, 80
4, 89540, Note_off_c, 13, 45, 80
4, 89540, Note_off_c, 13, 40, 80
4, 89760, Note_on_c, 13, 60, 95
4, 89760, Note_on_c, 13, 55, 95
4, 89760, Note_on_c, 13, 40, 95
4, 89780, Note_off_c, 13, 40, 80
4, 89880, Note_off_c, 13, 60, 80
4, 89880, Note_off_c, 13, 55, 80
4, 89880, Note_on_c, 13, 55, 95
4, 89880, Note_on_c, 13, 50, 95
4, 89880, Note_on_c, 13, 45, 95
4, 89900, Note_off_c, 13, 55, 80
4, 89900, Note_off_c, 13, 50, 80
4, 89900, Note_off_c, 13, 45, 80
4, 90120, Note_on_c, 13, 60, 95
4, 90120, Note_on_c, 13, 55, 95
4, 90120, Note_on_c, 13, 40, 95
4, 90140, Note_off_c, 13, 40, 80
4, 90240, Note_off_c, 13, 60, 80
4, 90240, Note_off_c, 13, 55, 80
4, 90240, Note_on_c, 13, 55, 95
4, 90240, Note_on_c, 13, 50, 95
4, 90240, Note_on_c, 13, 45, 95
4, 90260, Note_off_c, 13, 55, 80
4, 90260, Note_off_c, 13, 50, 80
4, 90260, Note_off_c, 13, 45, 80
4, 90480, Note_on_c, 13, 60, 95
4, 90480, Note_on_c, 13, 55, 95
4, 90480, Note_on_c, 13, 40, 95
4, 90500, Note_off_c, 13, 40, 80
4, 90600, Note_off_c, 13, 60, 80
4, 90600, Note_off_c, 13, 55, 80
4, 90600, Note_on_c, 13, 65, 95
4, 90600, Note_on_c, 13, 60, 95
4, 90600, Note_on_c, 13, 55, 95
4, 90600, Note_on_c, 13, 40, 95
4, 90620, Note_off_c, 13, 40, 80
4, 90720, Note_off_c, 13, 65, 80
4, 90720, Note_off_c, 13, 60, 80
4, 90720, Note_off_c, 13, 55, 80
4, 90720, Note_on_c, 13, 65, 95
4, 90720, Note_on_c, 13, 60, 95
4, 90720, Note_on_c, 13, 55, 95
4, 90720, Note_on_c, 13, 40, 95
4, 90740, Note_off_c, 13, 40, 80
4, 90840, Note_off_c, 13, 65, 80
4, 90840, Note_off_c, 13, 60, 80
4, 90840, Note_off_c, 13, 55, 80
4, 90840, Note_on_c, 13, 64, 95
4, 90840, Note_on_c, 13, 60, 95
4, 90840, Note_on_c, 13, 55, 95
4, 90840, Note_on_c, 13, 40, 95
4, 90860, Note_off_c, 13, 40, 80
4, 90960, Note_off_c, 13, 64, 80
4, 90960, Note_off_c, 13, 60, 80
4, 90960, Note_off_c, 13, 55, 80
4, 91680, Note_on_c, 13, 70, 95
4, 91680, Note_on_c, 13, 65, 95
4, 91680, Note_on_c, 13, 58, 95
4, 91680, Note_on_c, 13, 53, 95
4, 91680, Note_on_c, 13, 46, 95
4, 91920, Note_off_c, 13, 70, 80
4, 91920, Note_off_c, 13, 65, 80
4, 91920, Note_off_c, 13, 58, 80
4, 91920, Note_off_c, 13, 53, 80
4, 91920, Note_off_c, 13, 46, 80
4, 91920, Note_on_c, 13, 55, 95
4, 91920, Note_on_c, 13, 50, 95
4, 91920, Note_on_c, 13, 45, 95
4, 91940, Note_off_c, 13, 55, 80
4, 91940, Note_off_c, 13, 50, 80
4, 91940, Note_off_c, 13, 45, 80
4, 92040, Note_on_c, 13, 55, 95
4, 92040, Note_on_c, 13, 50, 95
4, 92040, Note_on_c, 13, 45, 95
4, 92060, Note_off_c, 13, 55, 80
4, 92060, Note_off_c, 13, 50, 80
4, 92060, Note_off_c, 13, 45, 80
4, 92160, Note_on_c, 13, 55, 95
4, 92160, Note_on_c, 13, 50, 95
4, 92160, Note_on_c, 13, 45, 95
4, 92180, Note_off_c, 13, 55, 80
4, 92180, Note_off_c, 13, 50, 80
4, 92180, Note_off_c, 13, 45, 80
4, 92400, Note_on_c, 13, 55, 95
4, 92400, Note_on_c, 13, 50, 95
4, 92400, Note_on_c, 13, 45, 95
4, 92420, Note_off_c, 13, 55, 80
4, 92420, Note_off_c, 13, 50, 80
4, 92420, Note_off_c, 13, 45, 80
4, 92640, Note_on_c, 13, 65, 95
4, 92640, Note_on_c, 13, 60, 95
4, 92640, Note_on_c, 13, 53, 95
4, 92640, Note_on_c, 13, 48, 95
4, 92640, Note_on_c, 13, 41, 95
4, 92880, Note_off_c, 13, 65, 80
4, 92880, Note_off_c, 13, 60, 80
4, 92880, Note_off_c, 13, 53, 80
4, 92880, Note_off_c, 13, 48, 80
4, 92880, Note_off_c, 13, 41, 80
4, 92880, Note_on_c, 13, 50, 95
4, 92880, Note_on_c, 13, 45, 95
4, 92880, Note_on_c, 13, 40, 95
4, 92900, Note_off_c, 13, 50, 80
4, 92900, Note_off_c, 13, 45, 80
4, 92900, Note_off_c, 13, 40, 80
4, 93000, Note_on_c, 13, 50, 95
4, 93000, Note_on_c, 13, 45, 95
4, 93000, Note_on_c, 13, 40, 95
4, 93020, Note_off_c, 13, 50, 80
4, 93020, Note_off_c, 13, 45, 80
4, 93020, Note_off_c, 13, 40, 80
4, 93120, Note_on_c, 13, 64, 95
4, 93120, Note_on_c, 13, 59, 95
4, 93120, Note_on_c, 13, 50, 95
4, 93120, Note_on_c, 13, 45, 95
4, 93120, Note_on_c, 13, 40, 95
4, 93140, Note_off_c, 13, 64, 80
4, 93140, Note_off_c, 13, 59, 80
4, 93140, Note_off_c, 13, 50, 80
4, 93140, Note_off_c, 13, 45, 80
4, 93140, Note_off_c, 13, 40, 80
4, 93360, Note_on_c, 13, 64, 95
4, 93360, Note_on_c, 13, 59, 95
4, 93360, Note_on_c, 13, 50, 95
4, 93360, Note_on_c, 13, 45, 95
4, 93360, Note_on_c, 13, 40, 95
4, 93380, Note_off_c, 13, 64, 80
4, 93380, Note_off_c, 13, 59, 80
4, 93380, Note_off_c, 13, 50, 80
4, 93380, Note_off_c, 13, 45, 80
4, 93380, Note_off_c, 13, 40, 80
4, 93600, Note_on_c, 13, 60, 95
4, 93600, Note_on_c, 13, 55, 95
4, 93600, Note_on_c, 13, 40, 95
4, 93620, Note_off_c, 13, 40, 80
4, 93720, Note_off_c, 13, 60, 80
4, 93720, Note_off_c, 13, 55, 80
4, 93720, Note_on_c, 13, 55, 95
4, 93720, Note_on_c, 13, 50, 95
4, 93720, Note_on_c, 13, 45, 95
4, 93740, Note_off_c, 13, 55, 80
4, 93740, Note_off_c, 13, 50, 80
4, 93740, Note_off_c, 13, 45, 80
4, 93960, Note_on_c, 13, 60, 95
4, 93960, Note_on_c, 13, 55, 95
4, 93960, Note_on_c, 13, 40, 95
4, 93980, Note_off_c, 13, 40, 80
4, 94080, Note_off_c, 13, 60, 80
4, 94080, Note_off_c, 13, 55, 80
4, 94080, Note_on_c, 13, 55, 95
4, 94080, Note_on_c, 13, 50, 95
4, 94080, Note_on_c, 13, 45, 95
4, 94100, Note_off_c, 13, 55, 80
4, 94100, Note_off_c, 13, 50, 80
4, 94100, Note_off_c, 13, 45, 80
4, 94320, Note_on_c, 13, 60, 95
4, 94320, Note_on_c, 13, 55, 95
4, 94320, Note_on_c, 13, 40, 95
4, 94340, Note_off_c, 13, 40, 80
4, 94440, Note_off_c, 13, 60, 80
4, 94440, Note_off_c, 13, 55, 80
4, 94440, Note_on_c, 13, 65, 95
4, 94440, Note_on_c, 13, 60, 95
4, 94440, Note_on_c, 13, 55, 95
4, 94440, Note_on_c, 13, 40, 95
4, 94460, Note_off_c, 13, 40, 80
4, 94560, Note_off_c, 13, 65, 80
4, 94560, Note_off_c, 13, 60, 80
4, 94560, Note_off_c, 13, 55, 80
4, 94560, Note_on_c, 13, 65, 95
4, 94560, Note_on_c, 13, 60, 95
4, 94560, Note_on_c, 13, 55, 95
4, 94560, Note_on_c, 13, 40, 95
4, 94580, Note_off_c, 13, 40, 80
4, 94680, Note_off_c, 13, 65, 80
4, 94680, Note_off_c, 13, 60, 80
4, 94680, Note_off_c, 13, 55, 80
4, 94680, Note_on_c, 13, 64, 95
4, 94680, Note_on_c, 13, 60, 95
4, 94680, Note_on_c, 13, 55, 95
4, 94680, Note_on_c, 13, 40, 95
4, 94700, Note_off_c, 13, 40, 80
4, 94800, Note_off_c, 13, 64, 80
4, 94800, Note_off_c, 13, 60, 80
4, 94800, Note_off_c, 13, 55, 80
4, 95040, Note_on_c, 13, 55, 95
4, 95040, Note_on_c, 13, 50, 95
4, 95040, Note_on_c, 13, 45, 95
4, 95060, Note_off_c, 13, 55, 80
4, 95060, Note_off_c, 13, 50, 80
4, 95060, Note_off_c, 13, 45, 80
4, 95280, Note_on_c, 13, 55, 95
4, 95280, Note_on_c, 13, 50, 95
4, 95280, Note_on_c, 13, 45, 95
4, 95300, Note_off_c, 13, 55, 80
4, 95300, Note_off_c, 13, 50, 80
4, 95300, Note_off_c, 13, 45, 80
4, 95520, Note_on_c, 13, 70, 95
4, 95520, Note_on_c, 13, 65, 95
4, 95520, Note_on_c, 13, 58, 95
4, 95520, Note_on_c, 13, 53, 95
4, 95520, Note_on_c, 13, 46, 95
4, 95760, Note_off_c, 13, 70, 80
4, 95760, Note_off_c, 13, 65, 80
4, 95760, Note_off_c, 13, 58, 80
4, 95760, Note_off_c, 13, 53, 80
4, 95760, Note_off_c, 13, 46, 80
4, 95760, Note_on_c, 13, 55, 95
4, 95760, Note_on_c, 13, 50, 95
4, 95760, Note_on_c, 13, 45, 95
4, 95780, Note_off_c, 13, 55, 80
4, 95780, Note_off_c, 13, 50, 80
4, 95780, Note_off_c, 13, 45, 80
4, 95880, Note_on_c, 13, 55, 95
4, 95880, Note_on_c, 13, 50, 95
4, 95880, Note_on_c, 13, 45, 95
4, 95900, Note_off_c, 13, 55, 80
4, 95900, Note_off_c, 13, 50, 80
4, 95900, Note_off_c, 13, 45, 80
4, 96000, Note_on_c, 13, 55, 95
4, 96000, Note_on_c, 13, 50, 95
4, 96000, Note_on_c, 13, 45, 95
4, 96020, Note_off_c, 13, 55, 80
4, 96020, Note_off_c, 13, 50, 80
4, 96020, Note_off_c, 13, 45, 80
4, 96240, Note_on_c, 13, 55, 95
4, 96240, Note_on_c, 13, 50, 95
4, 96240, Note_on_c, 13, 45, 95
4, 96260, Note_off_c, 13, 55, 80
4, 96260, Note_off_c, 13, 50, 80
4, 96260, Note_off_c, 13, 45, 80
4, 96480, Note_on_c, 13, 65, 95
4, 96480, Note_on_c, 13, 60, 95
4, 96480, Note_on_c, 13, 53, 95
4, 96480, Note_on_c, 13, 48, 95
4, 96480, Note_on_c, 13, 41, 95
4, 96720, Note_off_c, 13, 65, 80
4, 96720, Note_off_c, 13, 60, 80
4, 96720, Note_off_c, 13, 53, 80
4, 96720, Note_off_c, 13, 48, 80
4, 96720, Note_off_c, 13, 41, 80
4, 96720, Note_on_c, 13, 50, 95
4, 96720, Note_on_c, 13, 45, 95
4, 96720, Note_on_c, 13, 40, 95
4, 96740, Note_off_c, 13, 50, 80
4, 96740, Note_off_c, 13, 45, 80
4, 96740, Note_off_c, 13, 40, 80
4, 96840, Note_on_c, 13, 50, 95
4, 96840, Note_on_c, 13, 45, 95
4, 96840, Note_on_c, 13, 40, 95
4, 96860, Note_off_c, 13, 50, 80
4, 96860, Note_off_c, 13, 45, 80
4, 96860, Note_off_c, 13, 40, 80
4, 96960, Note_on_c, 13, 64, 95
4, 96960, Note_on_c, 13, 59, 95
4, 96960, Note_on_c, 13, 50, 95
4, 96960, Note_on_c, 13, 45, 95
4, 96960, Note_on_c, 13, 40, 95
4, 96980, Note_off_c, 13, 64, 80
4, 96980, Note_off_c, 13, 59, 80
4, 96980, Note_off_c, 13, 50, 80
4, 96980, Note_off_c, 13, 45, 80
4, 96980, Note_off_c, 13, 40, 80
4, 97200, Note_on_c, 13, 64, 95
4, 97200, Note_on_c, 13, 59, 95
4, 97200, Note_on_c, 13, 50, 95
4, 97200, Note_on_c, 13, 45, 95
4, 97200, Note_on_c, 13, 40, 95
4, 97220, Note_off_c, 13, 64, 80
4, 97220, Note_off_c, 13, 59, 80
4, 97220, Note_off_c, 13, 50, 80
4, 97220, Note_off_c, 13, 45, 80
4, 97220, Note_off_c, 13, 40, 80
4, 97440, Note_on_c, 13, 60, 95
4, 97440, Note_on_c, 13, 55, 95
4, 97440, Note_on_c, 13, 40, 95
4, 97460, Note_off_c, 13, 40, 80
4, 97560, Note_off_c, 13, 60, 80
4, 97560, Note_off_c, 13, 55, 80
4, 97560, Note_on_c, 13, 55, 95
4, 97560, Note_on_c, 13, 50, 95
4, 97560, Note_on_c, 13, 45, 95
4, 97580, Note_off_c, 13, 55, 80
4, 97580, Note_off_c, 13, 50, 80
4, 97580, Note_off_c, 13, 45, 80
4, 97800, Note_on_c, 13, 60, 95
4, 97800, Note_on_c, 13, 55, 95
4, 97800, Note_on_c, 13, 40, 95
4, 97820, Note_off_c, 13, 40, 80
4, 97920, Note_off_c, 13, 60, 80
4, 97920, Note_off_c, 13, 55, 80
4, 97920, Note_on_c, 13, 55, 95
4, 97920, Note_on_c, 13, 50, 95
4, 97920, Note_on_c, 13, 45, 95
4, 97940, Note_off_c, 13, 55, 80
4, 97940, Note_off_c, 13, 50, 80
4, 97940, Note_off_c, 13, 45, 80
4, 98160, Note_on_c, 13, 60, 95
4, 98160, Note_on_c, 13, 55, 95
4, 98160, Note_on_c, 13, 40, 95
4, 98180, Note_off_c, 13, 40, 80
4, 98280, Note_off_c, 13, 60, 80
4, 98280, Note_off_c, 13, 55, 80
4, 98280, Note_on_c, 13, 65, 95
4, 98280, Note_on_c, 13, 60, 95
4, 98280, Note_on_c, 13, 55, 95
4, 98280, Note_on_c, 13, 40, 95
4, 98300, Note_off_c, 13, 40, 80
4, 98400, Note_off_c, 13, 65, 80
4, 98400, Note_off_c, 13, 60, 80
4, 98400, Note_off_c, 13, 55, 80
4, 98400, Note_on_c, 13, 65, 95
4, 98400, Note_on_c, 13, 60, 95
4, 98400, Note_on_c, 13, 55, 95
4, 98400, Note_on_c, 13, 40, 95
4, 98420, Note_off_c, 13, 40, 80
4, 98520, Note_off_c, 13, 65, 80
4, 98520, Note_off_c, 13, 60, 80
4, 98520, Note_off_c, 13, 55, 80
4, 98520, Note_on_c, 13, 64, 95
4, 98520, Note_on_c, 13, 60, 95
4, 98520, Note_on_c, 13, 55, 95
4, 98520, Note_on_c, 13, 40, 95
4, 98540, Note_off_c, 13, 40, 80
4, 98640, Note_off_c, 13, 64, 80
4, 98640, Note_off_c, 13, 60, 80
4, 98640, Note_off_c, 13, 55, 80
4, 98880, Note_on_c, 13, 58, 95
4, 98880, Note_on_c, 13, 53, 95
4, 98880, Note_on_c, 13, 46, 95
4, 99120, Note_off_c, 13, 58, 80
4, 99120, Note_off_c, 13, 53, 80
4, 99120, Note_off_c, 13, 46, 80
4, 99120, Note_on_c, 13, 58, 95
4, 99120, Note_on_c, 13, 53, 95
4, 99120, Note_on_c, 13, 46, 95
4, 99360, Note_off_c, 13, 58, 80
4, 99360, Note_off_c, 13, 53, 80
4, 99360, Note_off_c, 13, 46, 80
4, 99360, Note_on_c, 13, 70, 95
4, 99360, Note_on_c, 13, 65, 95
4, 99360, Note_on_c, 13, 58, 95
4, 99360, Note_on_c, 13, 53, 95
4, 99360, Note_on_c, 13, 46, 95
4, 99600, Note_off_c, 13, 70, 80
4, 99600, Note_off_c, 13, 65, 80
4, 99600, Note_off_c, 13, 58, 80
4, 99600, Note_off_c, 13, 53, 80
4, 99600, Note_off_c, 13, 46, 80
4, 99600, Note_on_c, 13, 55, 95
4, 99600, Note_on_c, 13, 50, 95
4, 99600, Note_on_c, 13, 45, 95
4, 99620, Note_off_c, 13, 55, 80
4, 99620, Note_off_c, 13, 50, 80
4, 99620, Note_off_c, 13, 45, 80
4, 99720, Note_on_c, 13, 55, 95
4, 99720, Note_on_c, 13, 50, 95
4, 99720, Note_on_c, 13, 45, 95
4, 99740, Note_off_c, 13, 55, 80
4, 99740, Note_off_c, 13, 50, 80
4, 99740, Note_off_c, 13, 45, 80
4, 99840, Note_on_c, 13, 53, 95
4, 99840, Note_on_c, 13, 48, 95
4, 99840, Note_on_c, 13, 41, 95
4, 100080, Note_off_c, 13, 53, 80
4, 100080, Note_off_c, 13, 48, 80
4, 100080, Note_off_c, 13, 41, 80
4, 100080, Note_on_c, 13, 53, 95
4, 100080, Note_on_c, 13, 48, 95
4, 100080, Note_on_c, 13, 41, 95
4, 100320, Note_off_c, 13, 53, 80
4, 100320, Note_off_c, 13, 48, 80
4, 100320, Note_off_c, 13, 41, 80
4, 100320, Note_on_c, 13, 65, 95
4, 100320, Note_on_c, 13, 60, 95
4, 100320, Note_on_c, 13, 53, 95
4, 100320, Note_on_c, 13, 48, 95
4, 100320, Note_on_c, 13, 41, 95
4, 100560, Note_off_c, 13, 65, 80
4, 100560, Note_off_c, 13, 60, 80
4, 100560, Note_off_c, 13, 53, 80
4, 100560, Note_off_c, 13, 48, 80
4, 100560, Note_off_c, 13, 41, 80
4, 100560, Note_on_c, 13, 53, 95
4, 100560, Note_on_c, 13, 48, 95
4, 100560, Note_on_c, 13, 41, 95
4, 100680, Note_off_c, 13, 53, 80
4, 100680, Note_off_c, 13, 48, 80
4, 100680, Note_off_c, 13, 41, 80
4, 100680, Note_on_c, 13, 53, 95
4, 100680, Note_on_c, 13, 48, 95
4, 100680, Note_on_c, 13, 41, 95
4, 100800, Note_off_c, 13, 53, 80
4, 100800, Note_off_c, 13, 48, 80
4, 100800, Note_off_c, 13, 41, 80
4, 100800, Note_on_c, 13, 64, 95
4, 100800, Note_on_c, 13, 60, 95
4, 100800, Note_on_c, 13, 55, 95
4, 101040, Note_off_c, 13, 64, 80
4, 101040, Note_off_c, 13, 60, 80
4, 101040, Note_off_c, 13, 55, 80
4, 101040, Note_on_c, 13, 64, 95
4, 101040, Note_on_c, 13, 60, 95
4, 101040, Note_on_c, 13, 55, 95
4, 101040, Note_on_c, 13, 40, 95
4, 101060, Note_off_c, 13, 40, 80
4, 101280, Note_off_c, 13, 64, 80
4, 101280, Note_off_c, 13, 60, 80
4, 101280, Note_off_c, 13, 55, 80
4, 101280, Note_on_c, 13, 64, 95
4, 101280, Note_on_c, 13, 60, 95
4, 101280, Note_on_c, 13, 55, 95
4, 101280, Note_on_c, 13, 40, 95
4, 101300, Note_off_c, 13, 40, 80
4, 101400, Note_off_c, 13, 64, 80
4, 101400, Note_off_c, 13, 60, 80
4, 101400, Note_off_c, 13, 55, 80
4, 101400, Note_on_c, 13, 55, 95
4, 101400, Note_on_c, 13, 50, 95
4, 101400, Note_on_c, 13, 45, 95
4, 101420, Note_off_c, 13, 55, 80
4, 101420, Note_off_c, 13, 50, 80
4, 101420, Note_off_c, 13, 45, 80
4, 101640, Note_on_c, 13, 64, 95
4, 101640, Note_on_c, 13, 60, 95
4, 101640, Note_on_c, 13, 55, 95
4, 101640, Note_on_c, 13, 40, 95
4, 101660, Note_off_c, 13, 40, 80
4, 101760, Note_off_c, 13, 64, 80
4, 101760, Note_off_c, 13, 60, 80
4, 101760, Note_off_c, 13, 55, 80
4, 101760, Note_on_c, 13, 55, 95
4, 101760, Note_on_c, 13, 50, 95
4, 101760, Note_on_c, 13, 45, 95
4, 101780, Note_off_c, 13, 55, 80
4, 101780, Note_off_c, 13, 50, 80
4, 101780, Note_off_c, 13, 45, 80
4, 102000, Note_on_c, 13, 64, 95
4, 102000, Note_on_c, 13, 60, 95
4, 102000, Note_on_c, 13, 55, 95
4, 102000, Note_on_c, 13, 40, 95
4, 102020, Note_off_c, 13, 40, 80
4, 102120, Note_off_c, 13, 64, 80
4, 102120, Note_off_c, 13, 60, 80
4, 102120, Note_off_c, 13, 55, 80
4, 102120, Note_on_c, 13, 65, 95
4, 102120, Note_on_c, 13, 60, 95
4, 102120, Note_on_c, 13, 55, 95
4, 102120, Note_on_c, 13, 40, 95
4, 102140, Note_off_c, 13, 40, 80
4, 102240, Note_off_c, 13, 65, 80
4, 102240, Note_off_c, 13, 60, 80
4, 102240, Note_off_c, 13, 55, 80
4, 102240, Note_on_c, 13, 65, 95
4, 102240, Note_on_c, 13, 60, 95
4, 102240, Note_on_c, 13, 55, 95
4, 102240, Note_on_c, 13, 40, 95
4, 102260, Note_off_c, 13, 40, 80
4, 102360, Note_off_c, 13, 65, 80
4, 102360, Note_off_c, 13, 60, 80
4, 102360, Note_off_c, 13, 55, 80
4, 102360, Note_on_c, 13, 64, 95
4, 102360, Note_on_c, 13, 60, 95
4, 102360, Note_on_c, 13, 55, 95
4, 102360, Note_on_c, 13, 40, 95
4, 102380, Note_off_c, 13, 40, 80
4, 102480, Note_off_c, 13, 64, 80
4, 102480, Note_off_c, 13, 60, 80
4, 102480, Note_off_c, 13, 55, 80
4, 102720, Note_on_c, 13, 58, 95
4, 102720, Note_on_c, 13, 53, 95
4, 102720, Note_on_c, 13, 46, 95
4, 102960, Note_off_c, 13, 58, 80
4, 102960, Note_off_c, 13, 53, 80
4, 102960, Note_off_c, 13, 46, 80
4, 102960, Note_on_c, 13, 58, 95
4, 102960, Note_on_c, 13, 53, 95
4, 102960, Note_on_c, 13, 46, 95
4, 103200, Note_off_c, 13, 58, 80
4, 103200, Note_off_c, 13, 53, 80
4, 103200, Note_off_c, 13, 46, 80
4, 103200, Note_on_c, 13, 70, 95
4, 103200, Note_on_c, 13, 65, 95
4, 103200, Note_on_c, 13, 58, 95
4, 103200, Note_on_c, 13, 53, 95
4, 103200, Note_on_c, 13, 46, 95
4, 103440, Note_off_c, 13, 70, 80
4, 103440, Note_off_c, 13, 65, 80
4, 103440, Note_off_c, 13, 58, 80
4, 103440, Note_off_c, 13, 53, 80
4, 103440, Note_off_c, 13, 46, 80
4, 103440, Note_on_c, 13, 55, 95
4, 103440, Note_on_c, 13, 50, 95
4, 103440, Note_on_c, 13, 45, 95
4, 103460, Note_off_c, 13, 55, 80
4, 103460, Note_off_c, 13, 50, 80
4, 103460, Note_off_c, 13, 45, 80
4, 103560, Note_on_c, 13, 55, 95
4, 103560, Note_on_c, 13, 50, 95
4, 103560, Note_on_c, 13, 45, 95
4, 103580, Note_off_c, 13, 55, 80
4, 103580, Note_off_c, 13, 50, 80
4, 103580, Note_off_c, 13, 45, 80
4, 103680, Note_on_c, 13, 53, 95
4, 103680, Note_on_c, 13, 48, 95
4, 103680, Note_on_c, 13, 41, 95
4, 103920, Note_off_c, 13, 53, 80
4, 103920, Note_off_c, 13, 48, 80
4, 103920, Note_off_c, 13, 41, 80
4, 103920, Note_on_c, 13, 53, 95
4, 103920, Note_on_c, 13, 48, 95
4, 103920, Note_on_c, 13, 41, 95
4, 104160, Note_off_c, 13, 53, 80
4, 104160, Note_off_c, 13, 48, 80
4, 104160, Note_off_c, 13, 41, 80
4, 104160, Note_on_c, 13, 65, 95
4, 104160, Note_on_c, 13, 60, 95
4, 104160, Note_on_c, 13, 53, 95
4, 104160, Note_on_c, 13, 48, 95
4, 104160, Note_on_c, 13, 41, 95
4, 104400, Note_off_c, 13, 65, 80
4, 104400, Note_off_c, 13, 60, 80
4, 104400, Note_off_c, 13, 53, 80
4, 104400, Note_off_c, 13, 48, 80
4, 104400, Note_off_c, 13, 41, 80
4, 104400, Note_on_c, 13, 53, 95
4, 104400, Note_on_c, 13, 48, 95
4, 104400, Note_on_c, 13, 41, 95
4, 104520, Note_off_c, 13, 53, 80
4, 104520, Note_off_c, 13, 48, 80
4, 104520, Note_off_c, 13, 41, 80
4, 104520, Note_on_c, 13, 53, 95
4, 104520, Note_on_c, 13, 48, 95
4, 104520, Note_on_c, 13, 41, 95
4, 104640, Note_off_c, 13, 53, 80
4, 104640, Note_off_c, 13, 48, 80
4, 104640, Note_off_c, 13, 41, 80
4, 104640, Note_on_c, 13, 64, 95
4, 104640, Note_on_c, 13, 60, 95
4, 104640, Note_on_c, 13, 55, 95
4, 104880, Note_off_c, 13, 64, 80
4, 104880, Note_off_c, 13, 60, 80
4, 104880, Note_off_c, 13, 55, 80
4, 104880, Note_on_c, 13, 64, 95
4, 104880, Note_on_c, 13, 60, 95
4, 104880, Note_on_c, 13, 55, 95
4, 104880, Note_on_c, 13, 40, 95
4, 104900, Note_off_c, 13, 40, 80
4, 105120, Note_off_c, 13, 64, 80
4, 105120, Note_off_c, 13, 60, 80
4, 105120, Note_off_c, 13, 55, 80
4, 105120, Note_on_c, 13, 64, 95
4, 105120, Note_on_c, 13, 60, 95
4, 105120, Note_on_c, 13, 55, 95
4, 105120, Note_on_c, 13, 40, 95
4, 105140, Note_off_c, 13, 40, 80
4, 105240, Note_off_c, 13, 64, 80
4, 105240, Note_off_c, 13, 60, 80
4, 105240, Note_off_c, 13, 55, 80
4, 105240, Note_on_c, 13, 55, 95
4, 105240, Note_on_c, 13, 50, 95
4, 105240, Note_on_c, 13, 45, 95
4, 105260, Note_off_c, 13, 55, 80
4, 105260, Note_off_c, 13, 50, 80
4, 105260, Note_off_c, 13, 45, 80
4, 105480, Note_on_c, 13, 64, 95
4, 105480, Note_on_c, 13, 60, 95
4, 105480, Note_on_c, 13, 55, 95
4, 105480, Note_on_c, 13, 40, 95
4, 105500, Note_off_c, 13, 40, 80
4, 105600, Note_off_c, 13, 64, 80
4, 105600, Note_off_c, 13, 60, 80
4, 105600, Note_off_c, 13, 55, 80
4, 105600, Note_on_c, 13, 55, 95
4, 105600, Note_on_c, 13, 50, 95
4, 105600, Note_on_c, 13, 45, 95
4, 105620, Note_off_c, 13, 55, 80
4, 105620, Note_off_c, 13, 50, 80
4, 105620, Note_off_c, 13, 45, 80
4, 105840, Note_on_c, 13, 64, 95
4, 105840, Note_on_c, 13, 60, 95
4, 105840, Note_on_c, 13, 55, 95
4, 105840, Note_on_c, 13, 40, 95
4, 105860, Note_off_c, 13, 40, 80
4, 105960, Note_off_c, 13, 64, 80
4, 105960, Note_off_c, 13, 60, 80
4, 105960, Note_off_c, 13, 55, 80
4, 105960, Note_on_c, 13, 65, 95
4, 105960, Note_on_c, 13, 60, 95
4, 105960, Note_on_c, 13, 55, 95
4, 105960, Note_on_c, 13, 40, 95
4, 105980, Note_off_c, 13, 40, 80
4, 106080, Note_off_c, 13, 65, 80
4, 106080, Note_off_c, 13, 60, 80
4, 106080, Note_off_c, 13, 55, 80
4, 106080, Note_on_c, 13, 65, 95
4, 106080, Note_on_c, 13, 60, 95
4, 106080, Note_on_c, 13, 55, 95
4, 106080, Note_on_c, 13, 40, 95
4, 106100, Note_off_c, 13, 40, 80
4, 106200, Note_off_c, 13, 65, 80
4, 106200, Note_off_c, 13, 60, 80
4, 106200, Note_off_c, 13, 55, 80
4, 106200, Note_on_c, 13, 64, 95
4, 106200, Note_on_c, 13, 60, 95
4, 106200, Note_on_c, 13, 55, 95
4, 106200, Note_on_c, 13, 40, 95
4, 106220, Note_off_c, 13, 40, 80
4, 106320, Note_off_c, 13, 64, 80
4, 106320, Note_off_c, 13, 60, 80
4, 106320, Note_off_c, 13, 55, 80
4, 106560, Note_on_c, 13, 58, 95
4, 106560, Note_on_c, 13, 53, 95
4, 106560, Note_on_c, 13, 46, 95
4, 106800, Note_off_c, 13, 58, 80
4, 106800, Note_off_c, 13, 53, 80
4, 106800, Note_off_c, 13, 46, 80
4, 106800, Note_on_c, 13, 58, 95
4, 106800, Note_on_c, 13, 53, 95
4, 106800, Note_on_c, 13, 46, 95
4, 107040, Note_off_c, 13, 58, 80
4, 107040, Note_off_c, 13, 53, 80
4, 107040, Note_off_c, 13, 46, 80
4, 107040, Note_on_c, 13, 70, 95
4, 107040, Note_on_c, 13, 65, 95
4, 107040, Note_on_c, 13, 58, 95
4, 107040, Note_on_c, 13, 53, 95
4, 107040, Note_on_c, 13, 46, 95
4, 107280, Note_off_c, 13, 70, 80
4, 107280, Note_off_c, 13, 65, 80
4, 107280, Note_off_c, 13, 58, 80
4, 107280, Note_off_c, 13, 53, 80
4, 107280, Note_off_c, 13, 46, 80
4, 107280, Note_on_c, 13, 55, 95
4, 107280, Note_on_c, 13, 50, 95
4, 107280, Note_on_c, 13, 45, 95
4, 107300, Note_off_c, 13, 55, 80
4, 107300, Note_off_c, 13, 50, 80
4, 107300, Note_off_c, 13, 45, 80
4, 107400, Note_on_c, 13, 55, 95
4, 107400, Note_on_c, 13, 50, 95
4, 107400, Note_on_c, 13, 45, 95
4, 107420, Note_off_c, 13, 55, 80
4, 107420, Note_off_c, 13, 50, 80
4, 107420, Note_off_c, 13, 45, 80
4, 107520, Note_on_c, 13, 53, 95
4, 107520, Note_on_c, 13, 48, 95
4, 107520, Note_on_c, 13, 41, 95
4, 107760, Note_off_c, 13, 53, 80
4, 107760, Note_off_c, 13, 48, 80
4, 107760, Note_off_c, 13, 41, 80
4, 107760, Note_on_c, 13, 53, 95
4, 107760, Note_on_c, 13, 48, 95
4, 107760, Note_on_c, 13, 41, 95
4, 108000, Note_off_c, 13, 53, 80
4, 108000, Note_off_c, 13, 48, 80
4, 108000, Note_off_c, 13, 41, 80
4, 108000, Note_on_c, 13, 65, 95
4, 108000, Note_on_c, 13, 60, 95
4, 108000, Note_on_c, 13, 53, 95
4, 108000, Note_on_c, 13, 48, 95
4, 108000, Note_on_c, 13, 41, 95
4, 108240, Note_off_c, 13, 65, 80
4, 108240, Note_off_c, 13, 60, 80
4, 108240, Note_off_c, 13, 53, 80
4, 108240, Note_off_c, 13, 48, 80
4, 108240, Note_off_c, 13, 41, 80
4, 108240, Note_on_c, 13, 53, 95
4, 108240, Note_on_c, 13, 48, 95
4, 108240, Note_on_c, 13, 41, 95
4, 108360, Note_off_c, 13, 53, 80
4, 108360, Note_off_c, 13, 48, 80
4, 108360, Note_off_c, 13, 41, 80
4, 108360, Note_on_c, 13, 53, 95
4, 108360, Note_on_c, 13, 48, 95
4, 108360, Note_on_c, 13, 41, 95
4, 108480, Note_off_c, 13, 53, 80
4, 108480, Note_off_c, 13, 48, 80
4, 108480, Note_off_c, 13, 41, 80
4, 108480, Note_on_c, 13, 64, 95
4, 108480, Note_on_c, 13, 60, 95
4, 108480, Note_on_c, 13, 55, 95
4, 108720, Note_off_c, 13, 64, 80
4, 108720, Note_off_c, 13, 60, 80
4, 108720, Note_off_c, 13, 55, 80
4, 108720, Note_on_c, 13, 64, 95
4, 108720, Note_on_c, 13, 60, 95
4, 108720, Note_on_c, 13, 55, 95
4, 108720, Note_on_c, 13, 40, 95
4, 108740, Note_off_c, 13, 40, 80
4, 108960, Note_off_c, 13, 64, 80
4, 108960, Note_off_c, 13, 60, 80
4, 108960, Note_off_c, 13, 55, 80
4, 108960, Note_on_c, 13, 64, 95
4, 108960, Note_on_c, 13, 60, 95
4, 108960, Note_on_c, 13, 55, 95
4, 108960, Note_on_c, 13, 40, 95
4, 108980, Note_off_c, 13, 40, 80
4, 109080, Note_off_c, 13, 64, 80
4, 109080, Note_off_c, 13, 60, 80
4, 109080, Note_off_c, 13, 55, 80
4, 109080, Note_on_c, 13, 55, 95
4, 109080, Note_on_c, 13, 50, 95
4, 109080, Note_on_c, 13, 45, 95
4, 109100, Note_off_c, 13, 55, 80
4, 109100, Note_off_c, 13, 50, 80
4, 109100, Note_off_c, 13, 45, 80
4, 109320, Note_on_c, 13, 64, 95
4, 109320, Note_on_c, 13, 60, 95
4, 109320, Note_on_c, 13, 55, 95
4, 109320, Note_on_c, 13, 40, 95
4, 109340, Note_off_c, 13, 40, 80
4, 109440, Note_off_c, 13, 64, 80
4, 109440, Note_off_c, 13, 60, 80
4, 109440, Note_off_c, 13, 55, 80
4, 109440, Note_on_c, 13, 55, 95
4, 109440, Note_on_c, 13, 50, 95
4, 109440, Note_on_c, 13, 45, 95
4, 109460, Note_off_c, 13, 55, 80
4, 109460, Note_off_c, 13, 50, 80
4, 109460, Note_off_c, 13, 45, 80
4, 109680, Note_on_c, 13, 64, 95
4, 109680, Note_on_c, 13, 60, 95
4, 109680, Note_on_c, 13, 55, 95
4, 109680, Note_on_c, 13, 40, 95
4, 109700, Note_off_c, 13, 40, 80
4, 109800, Note_off_c, 13, 64, 80
4, 109800, Note_off_c, 13, 60, 80
4, 109800, Note_off_c, 13, 55, 80
4, 109800, Note_on_c, 13, 65, 95
4, 109800, Note_on_c, 13, 60, 95
4, 109800, Note_on_c, 13, 55, 95
4, 109800, Note_on_c, 13, 40, 95
4, 109820, Note_off_c, 13, 40, 80
4, 109920, Note_off_c, 13, 65, 80
4, 109920, Note_off_c, 13, 60, 80
4, 109920, Note_off_c, 13, 55, 80
4, 109920, Note_on_c, 13, 65, 95
4, 109920, Note_on_c, 13, 60, 95
4, 109920, Note_on_c, 13, 55, 95
4, 109920, Note_on_c, 13, 40, 95
4, 109940, Note_off_c, 13, 40, 80
4, 110040, Note_off_c, 13, 65, 80
4, 110040, Note_off_c, 13, 60, 80
4, 110040, Note_off_c, 13, 55, 80
4, 110040, Note_on_c, 13, 64, 95
4, 110040, Note_on_c, 13, 60, 95
4, 110040, Note_on_c, 13, 55, 95
4, 110040, Note_on_c, 13, 40, 95
4, 110060, Note_off_c, 13, 40, 80
4, 110160, Note_off_c, 13, 64, 80
4, 110160, Note_off_c, 13, 60, 80
4, 110160, Note_off_c, 13, 55, 80
4, 110400, Note_on_c, 13, 58, 95
4, 110400, Note_on_c, 13, 53, 95
4, 110400, Note_on_c, 13, 46, 95
4, 110640, Note_off_c, 13, 58, 80
4, 110640, Note_off_c, 13, 53, 80
4, 110640, Note_off_c, 13, 46, 80
4, 110640, Note_on_c, 13, 58, 95
4, 110640, Note_on_c, 13, 53, 95
4, 110640, Note_on_c, 13, 46, 95
4, 110880, Note_off_c, 13, 58, 80
4, 110880, Note_off_c, 13, 53, 80
4, 110880, Note_off_c, 13, 46, 80
4, 110880, Note_on_c, 13, 70, 95
4, 110880, Note_on_c, 13, 65, 95
4, 110880, Note_on_c, 13, 58, 95
4, 110880, Note_on_c, 13, 53, 95
4, 110880, Note_on_c, 13, 46, 95
4, 111120, Note_off_c, 13, 70, 80
4, 111120, Note_off_c, 13, 65, 80
4, 111120, Note_off_c, 13, 58, 80
4, 111120, Note_off_c, 13, 53, 80
4, 111120, Note_off_c, 13, 46, 80
4, 111120, Note_on_c, 13, 55, 95
4, 111120, Note_on_c, 13, 50, 95
4, 111120, Note_on_c, 13, 45, 95
4, 111140, Note_off_c, 13, 55, 80
4, 111140, Note_off_c, 13, 50, 80
4, 111140, Note_off_c, 13, 45, 80
4, 111240, Note_on_c, 13, 55, 95
4, 111240, Note_on_c, 13, 50, 95
4, 111240, Note_on_c, 13, 45, 95
4, 111260, Note_off_c, 13, 55, 80
4, 111260, Note_off_c, 13, 50, 80
4, 111260, Note_off_c, 13, 45, 80
4, 111360, Note_on_c, 13, 53, 95
4, 111360, Note_on_c, 13, 48, 95
4, 111360, Note_on_c, 13, 41, 95
4, 111600, Note_off_c, 13, 53, 80
4, 111600, Note_off_c, 13, 48, 80
4, 111600, Note_off_c, 13, 41, 80
4, 111600, Note_on_c, 13, 53, 95
4, 111600, Note_on_c, 13, 48, 95
4, 111600, Note_on_c, 13, 41, 95
4, 111840, Note_off_c, 13, 53, 80
4, 111840, Note_off_c, 13, 48, 80
4, 111840, Note_off_c, 13, 41, 80
4, 111840, Note_on_c, 13, 65, 95
4, 111840, Note_on_c, 13, 60, 95
4, 111840, Note_on_c, 13, 53, 95
4, 111840, Note_on_c, 13, 48, 95
4, 111840, Note_on_c, 13, 41, 95
4, 112080, Note_off_c, 13, 65, 80
4, 112080, Note_off_c, 13, 60, 80
4, 112080, Note_off_c, 13, 53, 80
4, 112080, Note_off_c, 13, 48, 80
4, 112080, Note_off_c, 13, 41, 80
4, 112080, Note_on_c, 13, 53, 95
4, 112080, Note_on_c, 13, 48, 95
4, 112080, Note_on_c, 13, 41, 95
4, 112200, Note_off_c, 13, 53, 80
4, 112200, Note_off_c, 13, 48, 80
4, 112200, Note_off_c, 13, 41, 80
4, 112200, Note_on_c, 13, 53, 95
4, 112200, Note_on_c, 13, 48, 95
4, 112200, Note_on_c, 13, 41, 95
4, 112320, Note_off_c, 13, 53, 80
4, 112320, Note_off_c, 13, 48, 80
4, 112320, Note_off_c, 13, 41, 80
4, 112320, Note_on_c, 13, 64, 95
4, 112320, Note_on_c, 13, 60, 95
4, 112320, Note_on_c, 13, 55, 95
4, 112560, Note_off_c, 13, 64, 80
4, 112560, Note_off_c, 13, 60, 80
4, 112560, Note_off_c, 13, 55, 80
4, 112560, Note_on_c, 13, 64, 95
4, 112560, Note_on_c, 13, 60, 95
4, 112560, Note_on_c, 13, 55, 95
4, 112560, Note_on_c, 13, 40, 95
4, 112580, Note_off_c, 13, 40, 80
4, 112800, Note_off_c, 13, 64, 80
4, 112800, Note_off_c, 13, 60, 80
4, 112800, Note_off_c, 13, 55, 80
4, 112800, Note_on_c, 13, 64, 95
4, 112800, Note_on_c, 13, 60, 95
4, 112800, Note_on_c, 13, 55, 95
4, 112800, Note_on_c, 13, 40, 95
4, 112820, Note_off_c, 13, 40, 80
4, 112920, Note_off_c, 13, 64, 80
4, 112920, Note_off_c, 13, 60, 80
4, 112920, Note_off_c, 13, 55, 80
4, 112920, Note_on_c, 13, 55, 95
4, 112920, Note_on_c, 13, 50, 95
4, 112920, Note_on_c, 13, 45, 95
4, 112940, Note_off_c, 13, 55, 80
4, 112940, Note_off_c, 13, 50, 80
4, 112940, Note_off_c, 13, 45, 80
4, 113160, Note_on_c, 13, 64, 95
4, 113160, Note_on_c, 13, 60, 95
4, 113160, Note_on_c, 13, 55, 95
4, 113160, Note_on_c, 13, 40, 95
4, 113180, Note_off_c, 13, 40, 80
4, 113280, Note_off_c, 13, 64, 80
4, 113280, Note_off_c, 13, 60, 80
4, 113280, Note_off_c, 13, 55, 80
4, 113280, Note_on_c, 13, 55, 95
4, 113280, Note_on_c, 13, 50, 95
4, 113280, Note_on_c, 13, 45, 95
4, 113300, Note_off_c, 13, 55, 80
4, 113300, Note_off_c, 13, 50, 80
4, 113300, Note_off_c, 13, 45, 80
4, 113520, Note_on_c, 13, 64, 95
4, 113520, Note_on_c, 13, 60, 95
4, 113520, Note_on_c, 13, 55, 95
4, 113520, Note_on_c, 13, 40, 95
4, 113540, Note_off_c, 13, 40, 80
4, 113640, Note_off_c, 13, 64, 80
4, 113640, Note_off_c, 13, 60, 80
4, 113640, Note_off_c, 13, 55, 80
4, 113640, Note_on_c, 13, 65, 95
4, 113640, Note_on_c, 13, 60, 95
4, 113640, Note_on_c, 13, 55, 95
4, 113640, Note_on_c, 13, 40, 95
4, 113660, Note_off_c, 13, 40, 80
4, 113760, Note_off_c, 13, 65, 80
4, 113760, Note_off_c, 13, 60, 80
4, 113760, Note_off_c, 13, 55, 80
4, 113760, Note_on_c, 13, 65, 95
4, 113760, Note_on_c, 13, 60, 95
4, 113760, Note_on_c, 13, 55, 95
4, 113760, Note_on_c, 13, 40, 95
4, 113780, Note_off_c, 13, 40, 80
4, 113880, Note_off_c, 13, 65, 80
4, 113880, Note_off_c, 13, 60, 80
4, 113880, Note_off_c, 13, 55, 80
4, 113880, Note_on_c, 13, 64, 95
4, 113880, Note_on_c, 13, 60, 95
4, 113880, Note_on_c, 13, 55, 95
4, 113880, Note_on_c, 13, 40, 95
4, 113900, Note_off_c, 13, 40, 80
4, 114000, Note_off_c, 13, 64, 80
4, 114000, Note_off_c, 13, 60, 80
4, 114000, Note_off_c, 13, 55, 80
4, 114240, Note_on_c, 13, 58, 95
4, 114240, Note_on_c, 13, 53, 95
4, 114240, Note_on_c, 13, 46, 95
4, 114480, Note_off_c, 13, 58, 80
4, 114480, Note_off_c, 13, 53, 80
4, 114480, Note_off_c, 13, 46, 80
4, 114480, Note_on_c, 13, 58, 95
4, 114480, Note_on_c, 13, 53, 95
4, 114480, Note_on_c, 13, 46, 95
4, 114720, Note_off_c, 13, 58, 80
4, 114720, Note_off_c, 13, 53, 80
4, 114720, Note_off_c, 13, 46, 80
4, 114720, Note_on_c, 13, 70, 95
4, 114720, Note_on_c, 13, 65, 95
4, 114720, Note_on_c, 13, 58, 95
4, 114720, Note_on_c, 13, 53, 95
4, 114720, Note_on_c, 13, 46, 95
4, 114960, Note_off_c, 13, 70, 80
4, 114960, Note_off_c, 13, 65, 80
4, 114960, Note_off_c, 13, 58, 80
4, 114960, Note_off_c, 13, 53, 80
4, 114960, Note_off_c, 13, 46, 80
4, 114960, Note_on_c, 13, 55, 95
4, 114960, Note_on_c, 13, 50, 95
4, 114960, Note_on_c, 13, 45, 95
4, 114980, Note_off_c, 13, 55, 80
4, 114980, Note_off_c, 13, 50, 80
4, 114980, Note_off_c, 13, 45, 80
4, 115080, Note_on_c, 13, 55, 95
4, 115080, Note_on_c, 13, 50, 95
4, 115080, Note_on_c, 13, 45, 95
4, 115100, Note_off_c, 13, 55, 80
4, 115100, Note_off_c, 13, 50, 80
4, 115100, Note_off_c, 13, 45, 80
4, 115200, Note_on_c, 13, 53, 95
4, 115200, Note_on_c, 13, 48, 95
4, 115200, Note_on_c, 13, 41, 95
4, 115440, Note_off_c, 13, 53, 80
4, 115440, Note_off_c, 13, 48, 80
4, 115440, Note_off_c, 13, 41, 80
4, 115440, Note_on_c, 13, 53, 95
4, 115440, Note_on_c, 13, 48, 95
4, 115440, Note_on_c, 13, 41, 95
4, 115680, Note_off_c, 13, 53, 80
4, 115680, Note_off_c, 13, 48, 80
4, 115680, Note_off_c, 13, 41, 80
4, 115680, Note_on_c, 13, 65, 95
4, 115680, Note_on_c, 13, 60, 95
4, 115680, Note_on_c, 13, 53, 95
4, 115680, Note_on_c, 13, 48, 95
4, 115680, Note_on_c, 13, 41, 95
4, 115920, Note_off_c, 13, 65, 80
4, 115920, Note_off_c, 13, 60, 80
4, 115920, Note_off_c, 13, 53, 80
4, 115920, Note_off_c, 13, 48, 80
4, 115920, Note_off_c, 13, 41, 80
4, 115920, Note_on_c, 13, 53, 95
4, 115920, Note_on_c, 13, 48, 95
4, 115920, Note_on_c, 13, 41, 95
4, 116040, Note_off_c, 13, 53, 80
4, 116040, Note_off_c, 13, 48, 80
4, 116040, Note_off_c, 13, 41, 80
4, 116040, Note_on_c, 13, 53, 95
4, 116040, Note_on_c, 13, 48, 95
4, 116040, Note_on_c, 13, 41, 95
4, 116160, Note_off_c, 13, 53, 80
4, 116160, Note_off_c, 13, 48, 80
4, 116160, Note_off_c, 13, 41, 80
4, 116160, Note_on_c, 13, 64, 95
4, 116160, Note_on_c, 13, 60, 95
4, 116160, Note_on_c, 13, 55, 95
4, 116400, Note_off_c, 13, 64, 80
4, 116400, Note_off_c, 13, 60, 80
4, 116400, Note_off_c, 13, 55, 80
4, 116400, Note_on_c, 13, 64, 95
4, 116400, Note_on_c, 13, 60, 95
4, 116400, Note_on_c, 13, 55, 95
4, 116400, Note_on_c, 13, 40, 95
4, 116420, Note_off_c, 13, 40, 80
4, 116640, Note_off_c, 13, 64, 80
4, 116640, Note_off_c, 13, 60, 80
4, 116640, Note_off_c, 13, 55, 80
4, 116640, Note_on_c, 13, 64, 95
4, 116640, Note_on_c, 13, 60, 95
4, 116640, Note_on_c, 13, 55, 95
4, 116640, Note_on_c, 13, 40, 95
4, 116660, Note_off_c, 13, 40, 80
4, 116760, Note_off_c, 13, 64, 80
4, 116760, Note_off_c, 13, 60, 80
4, 116760, Note_off_c, 13, 55, 80
4, 116760, Note_on_c, 13, 55, 95
4, 116760, Note_on_c, 13, 50, 95
4, 116760, Note_on_c, 13, 45, 95
4, 116780, Note_off_c, 13, 55, 80
4, 116780, Note_off_c, 13, 50, 80
4, 116780, Note_off_c, 13, 45, 80
4, 117000, Note_on_c, 13, 64, 95
4, 117000, Note_on_c, 13, 60, 95
4, 117000, Note_on_c, 13, 55, 95
4, 117000, Note_on_c, 13, 40, 95
4, 117020, Note_off_c, 13, 40, 80
4, 117120, Note_off_c, 13, 64, 80
4, 117120, Note_off_c, 13, 60, 80
4, 117120, Note_off_c, 13, 55, 80
4, 117120, Note_on_c, 13, 55, 95
4, 117120, Note_on_c, 13, 50, 95
4, 117120, Note_on_c, 13, 45, 95
4, 117140, Note_off_c, 13, 55, 80
4, 117140, Note_off_c, 13, 50, 80
4, 117140, Note_off_c, 13, 45, 80
4, 117360, Note_on_c, 13, 64, 95
4, 117360, Note_on_c, 13, 60, 95
4, 117360, Note_on_c, 13, 55, 95
4, 117360, Note_on_c, 13, 40, 95
4, 117380, Note_off_c, 13, 40, 80
4, 117480, Note_off_c, 13, 64, 80
4, 117480, Note_off_c, 13, 60, 80
4, 117480, Note_off_c, 13, 55, 80
4, 117480, Note_on_c, 13, 65, 95
4, 117480, Note_on_c, 13, 60, 95
4, 117480, Note_on_c, 13, 55, 95
4, 117480, Note_on_c, 13, 40, 95
4, 117500, Note_off_c, 13, 40, 80
4, 117600, Note_off_c, 13, 65, 80
4, 117600, Note_off_c, 13, 60, 80
4, 117600, Note_off_c, 13, 55, 80
4, 117600, Note_on_c, 13, 65, 95
4, 117600, Note_on_c, 13, 60, 95
4, 117600, Note_on_c, 13, 55, 95
4, 117600, Note_on_c, 13, 40, 95
4, 117620, Note_off_c, 13, 40, 80
4, 117720, Note_off_c, 13, 65, 80
4, 117720, Note_off_c, 13, 60, 80
4, 117720, Note_off_c, 13, 55, 80
4, 117720, Note_on_c, 13, 64, 95
4, 117720, Note_on_c, 13, 60, 95
4, 117720, Note_on_c, 13, 55, 95
4, 117720, Note_on_c, 13, 40, 95
4, 117740, Note_off_c, 13, 40, 80
4, 117840, Note_off_c, 13, 64, 80
4, 117840, Note_off_c, 13, 60, 80
4, 117840, Note_off_c, 13, 55, 80
4, 118080, Note_on_c, 13, 58, 95
4, 118080, Note_on_c, 13, 53, 95
4, 118080, Note_on_c, 13, 46, 95
4, 118320, Note_off_c, 13, 58, 80
4, 118320, Note_off_c, 13, 53, 80
4, 118320, Note_off_c, 13, 46, 80
4, 118320, Note_on_c, 13, 58, 95
4, 118320, Note_on_c, 13, 53, 95
4, 118320, Note_on_c, 13, 46, 95
4, 118560, Note_off_c, 13, 58, 80
4, 118560, Note_off_c, 13, 53, 80
4, 118560, Note_off_c, 13, 46, 80
4, 118560, Note_on_c, 13, 70, 95
4, 118560, Note_on_c, 13, 65, 95
4, 118560, Note_on_c, 13, 58, 95
4, 118560, Note_on_c, 13, 53, 95
4, 118560, Note_on_c, 13, 46, 95
4, 118800, Note_off_c, 13, 70, 80
4, 118800, Note_off_c, 13, 65, 80
4, 118800, Note_off_c, 13, 58, 80
4, 118800, Note_off_c, 13, 53, 80
4, 118800, Note_off_c, 13, 46, 80
4, 118800, Note_on_c, 13, 55, 95
4, 118800, Note_on_c, 13, 50, 95
4, 118800, Note_on_c, 13, 45, 95
4, 118820, Note_off_c, 13, 55, 80
4, 118820, Note_off_c, 13, 50, 80
4, 118820, Note_off_c, 13, 45, 80
4, 118920, Note_on_c, 13, 55, 95
4, 118920, Note_on_c, 13, 50, 95
4, 118920, Note_on_c, 13, 45, 95
4, 118940, Note_off_c, 13, 55, 80
4, 118940, Note_off_c, 13, 50, 80
4, 118940, Note_off_c, 13, 45, 80
4, 119040, Note_on_c, 13, 53, 95
4, 119040, Note_on_c, 13, 48, 95
4, 119040, Note_on_c, 13, 41, 95
4, 119280, Note_off_c, 13, 53, 80
4, 119280, Note_off_c, 13, 48, 80
4, 119280, Note_off_c, 13, 41, 80
4, 119280, Note_on_c, 13, 53, 95
4, 119280, Note_on_c, 13, 48, 95
4, 119280, Note_on_c, 13, 41, 95
4, 119520, Note_off_c, 13, 53, 80
4, 119520, Note_off_c, 13, 48, 80
4, 119520, Note_off_c, 13, 41, 80
4, 119520, Note_on_c, 13, 65, 95
4, 119520, Note_on_c, 13, 60, 95
4, 119520, Note_on_c, 13, 53, 95
4, 119520, Note_on_c, 13, 48, 95
4, 119520, Note_on_c, 13, 41, 95
4, 119760, Note_off_c, 13, 65, 80
4, 119760, Note_off_c, 13, 60, 80
4, 119760, Note_off_c, 13, 53, 80
4, 119760, Note_off_c, 13, 48, 80
4, 119760, Note_off_c, 13, 41, 80
4, 119760, Note_on_c, 13, 53, 95
4, 119760, Note_on_c, 13, 48, 95
4, 119760, Note_on_c, 13, 41, 95
4, 119880, Note_off_c, 13, 53, 80
4, 119880, Note_off_c, 13, 48, 80
4, 119880, Note_off_c, 13, 41, 80
4, 119880, Note_on_c, 13, 53, 95
4, 119880, Note_on_c, 13, 48, 95
4, 119880, Note_on_c, 13, 41, 95
4, 120000, Note_off_c, 13, 53, 80
4, 120000, Note_off_c, 13, 48, 80
4, 120000, Note_off_c, 13, 41, 80
4, 120000, Note_on_c, 13, 64, 95
4, 120000, Note_on_c, 13, 60, 95
4, 120000, Note_on_c, 13, 55, 95
4, 120480, Note_off_c, 13, 64, 80
4, 120480, Note_off_c, 13, 60, 80
4, 120480, Note_off_c, 13, 55, 80
4, 120480, End_track
5, 0, Start_track
5, 0, Title_t, "Bass"
5, 0, Control_c, 2, 100, 0
5, 0, Control_c, 2, 101, 0
5, 0, Control_c, 2, 6, 12
5, 0, Pitch_bend_c, 2, 8192
5, 0, Control_c, 3, 100, 0
5, 0, Control_c, 3, 101, 0
5, 0, Control_c, 3, 6, 12
5, 0, Pitch_bend_c, 3, 8192
5, 0, Program_c, 2, 36
5, 0, Program_c, 3, 36
5, 0, Control_c, 2, 7, 104
5, 0, Control_c, 3, 7, 104
5, 0, Control_c, 2, 10, 96
5, 0, Control_c, 3, 10, 96
5, 0, Control_c, 2, 93, 0
5, 0, Control_c, 3, 93, 0
5, 0, Control_c, 2, 91, 0
5, 0, Control_c, 3, 91, 0
5, 0, Control_c, 2, 92, 0
5, 0, Control_c, 3, 92, 0
5, 0, Control_c, 2, 95, 0
5, 0, Control_c, 3, 95, 0
5, 20160, Note_on_c, 2, 34, 95
5, 20400, Note_off_c, 2, 34, 80
5, 20400, Note_on_c, 2, 34, 95
5, 20640, Note_off_c, 2, 34, 80
5, 21000, Note_on_c, 2, 29, 95
5, 21240, Note_off_c, 2, 29, 80
5, 21240, Note_on_c, 2, 29, 95
5, 21360, Note_off_c, 2, 29, 80
5, 21360, Note_on_c, 2, 29, 95
5, 21720, Note_off_c, 2, 29, 80
5, 22080, Note_on_c, 2, 36, 95
5, 22320, Note_off_c, 2, 36, 80
5, 22320, Note_on_c, 2, 36, 95
5, 22560, Note_off_c, 2, 36, 80
5, 22920, Note_on_c, 2, 36, 95
5, 23160, Note_off_c, 2, 36, 80
5, 23160, Note_on_c, 2, 36, 95
5, 23280, Note_off_c, 2, 36, 80
5, 23280, Note_on_c, 2, 36, 95
5, 23640, Note_off_c, 2, 36, 80
5, 24000, Note_on_c, 2, 34, 95
5, 24240, Note_off_c, 2, 34, 80
5, 24240, Note_on_c, 2, 34, 95
5, 24480, Note_off_c, 2, 34, 80
5, 24840, Note_on_c, 2, 29, 95
5, 25080, Note_off_c, 2, 29, 80
5, 25080, Note_on_c, 2, 29, 95
5, 25200, Note_off_c, 2, 29, 80
5, 25200, Note_on_c, 2, 29, 95
5, 25560, Note_off_c, 2, 29, 80
5, 25920, Note_on_c, 2, 36, 95
5, 26160, Note_off_c, 2, 36, 80
5, 26160, Note_on_c, 2, 36, 95
5, 26400, Note_off_c, 2, 36, 80
5, 26760, Note_on_c, 2, 36, 95
5, 27000, Note_off_c, 2, 36, 80
5, 27000, Note_on_c, 2, 36, 95
5, 27120, Note_off_c, 2, 36, 80
5, 27120, Note_on_c, 2, 36, 95
5, 27480, Note_off_c, 2, 36, 80
5, 27840, Note_on_c, 2, 34, 95
5, 28800, Note_off_c, 2, 34, 80
5, 28800, Note_on_c, 2, 33, 95
5, 29760, Note_off_c, 2, 33, 80
5, 29760, Note_on_c, 2, 32, 95
5, 30720, Note_off_c, 2, 32, 80
5, 30720, Note_on_c, 2, 39, 95
5, 31680, Note_off_c, 2, 39, 80
5, 31680, Note_on_c, 2, 38, 95
5, 32640, Note_off_c, 2, 38, 80
5, 32640, Note_on_c, 2, 37, 95
5, 33600, Note_off_c, 2, 37, 80
5, 33600, Note_on_c, 3, 29, 95
5, 33600, Pitch_bend_c, 3, 8192
5, 34336, Pitch_bend_c, 3, 8448
5, 34352, Pitch_bend_c, 3, 8704
5, 34368, Pitch_bend_c, 3, 8960
5, 34384, Pitch_bend_c, 3, 9344
5, 34400, Pitch_bend_c, 3, 9600
5, 34416, Pitch_bend_c, 3, 9856
5, 34432, Pitch_bend_c, 3, 10112
5, 34448, Pitch_bend_c, 3, 10368
5, 34464, Pitch_bend_c, 3, 10624
5, 34480, Pitch_bend_c, 3, 10880
5, 34496, Pitch_bend_c, 3, 11136
5, 34512, Pitch_bend_c, 3, 11520
5, 34528, Pitch_bend_c, 3, 11776
5, 34544, Pitch_bend_c, 3, 12032
5, 34560, Note_off_c, 3, 29, 80
5, 34560, Pitch_bend_c, 3, 12288
5, 34560, Pitch_bend_c, 3, 8192
5, 34560, Note_on_c, 2, 36, 95
5, 34920, Note_off_c, 2, 36, 80
5, 34920, Note_on_c, 2, 31, 95
5, 35280, Note_off_c, 2, 31, 80
5, 35280, Note_on_c, 2, 36, 95
5, 36480, Note_off_c, 2, 36, 80
5, 36480, Note_on_c, 2, 36, 95
5, 38400, Note_off_c, 2, 36, 80
5, 38400, Note_on_c, 2, 31, 95
5, 39360, Note_off_c, 2, 31, 80
5, 39360, Note_on_c, 2, 31, 95
5, 39840, Note_off_c, 2, 31, 80
5, 39840, Note_on_c, 2, 31, 95
5, 39960, Note_off_c, 2, 31, 80
5, 39960, Note_on_c, 2, 33, 95
5, 40080, Note_off_c, 2, 33, 80
5, 40080, Note_on_c, 2, 36, 95
5, 40200, Note_off_c, 2, 36, 80
5, 40200, Note_on_c, 2, 31, 95
5, 40320, Note_off_c, 2, 31, 80
5, 40320, Note_on_c, 2, 36, 95
5, 41280, Note_off_c, 2, 36, 80
5, 41280, Note_on_c, 2, 36, 95
5, 41880, Note_off_c, 2, 36, 80
5, 41880, Note_on_c, 2, 38, 95
5, 42000, Note_off_c, 2, 38, 80
5, 42000, Note_on_c, 2, 40, 95
5, 42120, Note_off_c, 2, 40, 80
5, 42120, Note_on_c, 2, 41, 95
5, 42240, Note_off_c, 2, 41, 80
5, 42240, Note_on_c, 2, 43, 95
5, 43080, Note_off_c, 2, 43, 80
5, 43080, Note_on_c, 2, 38, 95
5, 43200, Note_off_c, 2, 38, 80
5, 43200, Note_on_c, 2, 43, 95
5, 43320, Note_off_c, 2, 43, 80
5, 43320, Note_on_c, 2, 38, 95
5, 43440, Note_off_c, 2, 38, 80
5, 43440, Note_on_c, 2, 31, 95
5, 43800, Note_off_c, 2, 31, 80
5, 43800, Note_on_c, 2, 29, 95
5, 43920, Note_off_c, 2, 29, 80
5, 43920, Note_on_c, 2, 31, 95
5, 44160, Note_off_c, 2, 31, 80
5, 44160, Note_on_c, 2, 34, 95
5, 45120, Note_off_c, 2, 34, 80
5, 45120, Note_on_c, 2, 33, 95
5, 46080, Note_off_c, 2, 33, 80
5, 46080, Note_on_c, 2, 32, 95
5, 47040, Note_off_c, 2, 32, 80
5, 47040, Note_on_c, 2, 39, 95
5, 48000, Note_off_c, 2, 39, 80
5, 48000, Note_on_c, 2, 38, 95
5, 48960, Note_off_c, 2, 38, 80
5, 48960, Note_on_c, 2, 37, 95
5, 49920, Note_off_c, 2, 37, 80
5, 49920, Note_on_c, 3, 29, 95
5, 49920, Pitch_bend_c, 3, 8192
5, 50656, Pitch_bend_c, 3, 8448
5, 50672, Pitch_bend_c, 3, 8704
5, 50688, Pitch_bend_c, 3, 8960
5, 50704, Pitch_bend_c, 3, 9344
5, 50720, Pitch_bend_c, 3, 9600
5, 50736, Pitch_bend_c, 3, 9856
5, 50752, Pitch_bend_c, 3, 10112
5, 50768, Pitch_bend_c, 3, 10368
5, 50784, Pitch_bend_c, 3, 10624
5, 50800, Pitch_bend_c, 3, 10880
5, 50816, Pitch_bend_c, 3, 11136
5, 50832, Pitch_bend_c, 3, 11520
5, 50848, Pitch_bend_c, 3, 11776
5, 50864, Pitch_bend_c, 3, 12032
5, 50880, Note_off_c, 3, 29, 80
5, 50880, Pitch_bend_c, 3, 12288
5, 50880, Pitch_bend_c, 3, 8192
5, 50880, Note_on_c, 2, 36, 95
5, 51240, Note_off_c, 2, 36, 80
5, 51240, Note_on_c, 2, 31, 95
5, 51600, Note_off_c, 2, 31, 80
5, 51600, Note_on_c, 2, 36, 95
5, 52800, Note_off_c, 2, 36, 80
5, 52800, Note_on_c, 2, 34, 95
5, 53040, Note_off_c, 2, 34, 80
5, 53040, Note_on_c, 2, 34, 95
5, 53280, Note_off_c, 2, 34, 80
5, 53640, Note_on_c, 2, 29, 95
5, 53880, Note_off_c, 2, 29, 80
5, 53880, Note_on_c, 2, 29, 95
5, 54000, Note_off_c, 2, 29, 80
5, 54000, Note_on_c, 2, 29, 95
5, 54360, Note_off_c, 2, 29, 80
5, 54720, Note_on_c, 2, 36, 95
5, 54960, Note_off_c, 2, 36, 80
5, 54960, Note_on_c, 2, 36, 95
5, 55200, Note_off_c, 2, 36, 80
5, 55560, Note_on_c, 2, 36, 95
5, 55800, Note_off_c, 2, 36, 80
5, 55800, Note_on_c, 2, 36, 95
5, 55920, Note_off_c, 2, 36, 80
5, 55920, Note_on_c, 2, 36, 95
5, 56280, Note_off_c, 2, 36, 80
5, 56640, Note_on_c, 2, 34, 95
5, 56880, Note_off_c, 2, 34, 80
5, 56880, Note_on_c, 2, 34, 95
5, 57120, Note_off_c, 2, 34, 80
5, 57480, Note_on_c, 2, 29, 95
5, 57720, Note_off_c, 2, 29, 80
5, 57720, Note_on_c, 2, 29, 95
5, 57840, Note_off_c, 2, 29, 80
5, 57840, Note_on_c, 2, 29, 95
5, 58200, Note_off_c, 2, 29, 80
5, 58560, Note_on_c, 2, 36, 95
5, 58800, Note_off_c, 2, 36, 80
5, 58800, Note_on_c, 2, 36, 95
5, 59040, Note_off_c, 2, 36, 80
5, 59400, Note_on_c, 2, 36, 95
5, 59640, Note_off_c, 2, 36, 80
5, 59640, Note_on_c, 2, 36, 95
5, 59760, Note_off_c, 2, 36, 80
5, 59760, Note_on_c, 2, 36, 95
5, 60120, Note_off_c, 2, 36, 80
5, 60480, Note_on_c, 2, 34, 95
5, 61440, Note_off_c, 2, 34, 80
5, 61440, Note_on_c, 2, 33, 95
5, 62400, Note_off_c, 2, 33, 80
5, 62400, Note_on_c, 2, 32, 95
5, 63360, Note_off_c, 2, 32, 80
5, 63360, Note_on_c, 2, 39, 95
5, 64320, Note_off_c, 2, 39, 80
5, 64320, Note_on_c, 2, 34, 95
5, 65280, Note_off_c, 2, 34, 80
5, 65280, Note_on_c, 2, 33, 95
5, 66240, Note_off_c, 2, 33, 80
5, 66240, Note_on_c, 2, 32, 95
5, 67200, Note_off_c, 2, 32, 80
5, 67200, Note_on_c, 2, 39, 95
5, 68160, Note_off_c, 2, 39, 80
5, 68160, Note_on_c, 2, 34, 95
5, 68400, Note_off_c, 2, 34, 80
5, 68400, Note_on_c, 2, 34, 95
5, 68640, Note_off_c, 2, 34, 80
5, 69000, Note_on_c, 2, 29, 95
5, 69240, Note_off_c, 2, 29, 80
5, 69240, Note_on_c, 2, 29, 95
5, 69360, Note_off_c, 2, 29, 80
5, 69360, Note_on_c, 2, 29, 95
5, 69720, Note_off_c, 2, 29, 80
5, 70080, Note_on_c, 2, 36, 95
5, 70320, Note_off_c, 2, 36, 80
5, 70320, Note_on_c, 2, 36, 95
5, 70560, Note_off_c, 2, 36, 80
5, 70920, Note_on_c, 2, 36, 95
5, 71160, Note_off_c, 2, 36, 80
5, 71160, Note_on_c, 2, 36, 95
5, 71280, Note_off_c, 2, 36, 80
5, 71280, Note_on_c, 2, 36, 95
5, 71640, Note_off_c, 2, 36, 80
5, 72000, Note_on_c, 2, 34, 95
5, 72240, Note_off_c, 2, 34, 80
5, 72240, Note_on_c, 2, 34, 95
5, 72480, Note_off_c, 2, 34, 80
5, 72840, Note_on_c, 2, 29, 95
5, 73080, Note_off_c, 2, 29, 80
5, 73080, Note_on_c, 2, 29, 95
5, 73200, Note_off_c, 2, 29, 80
5, 73200, Note_on_c, 2, 29, 95
5, 73560, Note_off_c, 2, 29, 80
5, 73920, Note_on_c, 2, 36, 95
5, 74160, Note_off_c, 2, 36, 80
5, 74160, Note_on_c, 2, 36, 95
5, 74400, Note_off_c, 2, 36, 80
5, 74760, Note_on_c, 2, 36, 95
5, 75000, Note_off_c, 2, 36, 80
5, 75000, Note_on_c, 2, 36, 95
5, 75120, Note_off_c, 2, 36, 80
5, 75120, Note_on_c, 2, 36, 95
5, 75480, Note_off_c, 2, 36, 80
5, 75840, Note_on_c, 2, 34, 95
5, 76800, Note_off_c, 2, 34, 80
5, 76800, Note_on_c, 2, 33, 95
5, 77760, Note_off_c, 2, 33, 80
5, 77760, Note_on_c, 2, 32, 95
5, 78720, Note_off_c, 2, 32, 80
5, 78720, Note_on_c, 2, 39, 95
5, 79680, Note_off_c, 2, 39, 80
5, 79680, Note_on_c, 2, 34, 95
5, 80640, Note_off_c, 2, 34, 80
5, 80640, Note_on_c, 2, 33, 95
5, 81600, Note_off_c, 2, 33, 80
5, 81600, Note_on_c, 2, 32, 95
5, 82560, Note_off_c, 2, 32, 80
5, 82560, Note_on_c, 2, 39, 95
5, 83520, Note_off_c, 2, 39, 80
5, 83520, Note_on_c, 2, 34, 95
5, 83760, Note_off_c, 2, 34, 80
5, 83760, Note_on_c, 2, 34, 95
5, 84000, Note_off_c, 2, 34, 80
5, 84360, Note_on_c, 2, 29, 95
5, 84600, Note_off_c, 2, 29, 80
5, 84600, Note_on_c, 2, 29, 95
5, 84720, Note_off_c, 2, 29, 80
5, 84720, Note_on_c, 2, 29, 95
5, 85080, Note_off_c, 2, 29, 80
5, 85440, Note_on_c, 2, 36, 95
5, 85680, Note_off_c, 2, 36, 80
5, 85680, Note_on_c, 2, 36, 95
5, 85920, Note_off_c, 2, 36, 80
5, 86280, Note_on_c, 2, 36, 95
5, 86520, Note_off_c, 2, 36, 80
5, 86520, Note_on_c, 2, 36, 95
5, 86640, Note_off_c, 2, 36, 80
5, 86640, Note_on_c, 2, 36, 95
5, 87000, Note_off_c, 2, 36, 80
5, 87360, Note_on_c, 2, 34, 95
5, 87600, Note_off_c, 2, 34, 80
5, 87600, Note_on_c, 2, 34, 95
5, 87840, Note_off_c, 2, 34, 80
5, 88200, Note_on_c, 2, 29, 95
5, 88440, Note_off_c, 2, 29, 80
5, 88440, Note_on_c, 2, 29, 95
5, 88560, Note_off_c, 2, 29, 80
5, 88560, Note_on_c, 2, 29, 95
5, 88920, Note_off_c, 2, 29, 80
5, 89280, Note_on_c, 2, 36, 95
5, 89520, Note_off_c, 2, 36, 80
5, 89520, Note_on_c, 2, 36, 95
5, 89760, Note_off_c, 2, 36, 80
5, 90120, Note_on_c, 2, 36, 95
5, 90360, Note_off_c, 2, 36, 80
5, 90360, Note_on_c, 2, 36, 95
5, 90480, Note_off_c, 2, 36, 80
5, 90480, Note_on_c, 2, 36, 95
5, 90840, Note_off_c, 2, 36, 80
5, 91200, Note_on_c, 2, 34, 95
5, 91440, Note_off_c, 2, 34, 80
5, 91440, Note_on_c, 2, 34, 95
5, 91680, Note_off_c, 2, 34, 80
5, 92040, Note_on_c, 2, 29, 95
5, 92280, Note_off_c, 2, 29, 80
5, 92280, Note_on_c, 2, 29, 95
5, 92400, Note_off_c, 2, 29, 80
5, 92400, Note_on_c, 2, 29, 95
5, 92760, Note_off_c, 2, 29, 80
5, 93120, Note_on_c, 2, 36, 95
5, 93360, Note_off_c, 2, 36, 80
5, 93360, Note_on_c, 2, 36, 95
5, 93600, Note_off_c, 2, 36, 80
5, 93960, Note_on_c, 2, 36, 95
5, 94200, Note_off_c, 2, 36, 80
5, 94200, Note_on_c, 2, 36, 95
5, 94320, Note_off_c, 2, 36, 80
5, 94320, Note_on_c, 2, 36, 95
5, 94680, Note_off_c, 2, 36, 80
5, 95040, Note_on_c, 2, 34, 95
5, 95280, Note_off_c, 2, 34, 80
5, 95280, Note_on_c, 2, 34, 95
5, 95520, Note_off_c, 2, 34, 80
5, 95880, Note_on_c, 2, 29, 95
5, 96120, Note_off_c, 2, 29, 80
5, 96120, Note_on_c, 2, 29, 95
5, 96240, Note_off_c, 2, 29, 80
5, 96240, Note_on_c, 2, 29, 95
5, 96600, Note_off_c, 2, 29, 80
5, 96960, Note_on_c, 2, 36, 95
5, 97200, Note_off_c, 2, 36, 80
5, 97200, Note_on_c, 2, 36, 95
5, 97440, Note_off_c, 2, 36, 80
5, 97800, Note_on_c, 2, 36, 95
5, 98040, Note_off_c, 2, 36, 80
5, 98040, Note_on_c, 2, 36, 95
5, 98160, Note_off_c, 2, 36, 80
5, 98160, Note_on_c, 2, 36, 95
5, 98520, Note_off_c, 2, 36, 80
5, 98880, Note_on_c, 2, 34, 95
5, 99120, Note_off_c, 2, 34, 80
5, 99120, Note_on_c, 2, 34, 95
5, 99360, Note_off_c, 2, 34, 80
5, 99720, Note_on_c, 2, 29, 95
5, 99960, Note_off_c, 2, 29, 80
5, 99960, Note_on_c, 2, 29, 95
5, 100080, Note_off_c, 2, 29, 80
5, 100080, Note_on_c, 2, 29, 95
5, 100440, Note_off_c, 2, 29, 80
5, 100800, Note_on_c, 2, 36, 95
5, 101040, Note_off_c, 2, 36, 80
5, 101040, Note_on_c, 2, 36, 95
5, 101280, Note_off_c, 2, 36, 80
5, 101640, Note_on_c, 2, 36, 95
5, 101880, Note_off_c, 2, 36, 80
5, 101880, Note_on_c, 2, 36, 95
5, 102000, Note_off_c, 2, 36, 80
5, 102000, Note_on_c, 2, 36, 95
5, 102360, Note_off_c, 2, 36, 80
5, 102720, Note_on_c, 2, 34, 95
5, 102960, Note_off_c, 2, 34, 80
5, 102960, Note_on_c, 2, 34, 95
5, 103200, Note_off_c, 2, 34, 80
5, 103560, Note_on_c, 2, 29, 95
5, 103800, Note_off_c, 2, 29, 80
5, 103800, Note_on_c, 2, 29, 95
5, 103920, Note_off_c, 2, 29, 80
5, 103920, Note_on_c, 2, 29, 95
5, 104280, Note_off_c, 2, 29, 80
5, 104640, Note_on_c, 2, 36, 95
5, 104880, Note_off_c, 2, 36, 80
5, 104880, Note_on_c, 2, 36, 95
5, 105120, Note_off_c, 2, 36, 80
5, 105480, Note_on_c, 2, 36, 95
5, 105720, Note_off_c, 2, 36, 80
5, 105720, Note_on_c, 2, 36, 95
5, 105840, Note_off_c, 2, 36, 80
5, 105840, Note_on_c, 2, 36, 95
5, 106200, Note_off_c, 2, 36, 80
5, 106560, Note_on_c, 2, 34, 95
5, 106800, Note_off_c, 2, 34, 80
5, 106800, Note_on_c, 2, 34, 95
5, 107040, Note_off_c, 2, 34, 80
5, 107400, Note_on_c, 2, 29, 95
5, 107640, Note_off_c, 2, 29, 80
5, 107640, Note_on_c, 2, 29, 95
5, 107760, Note_off_c, 2, 29, 80
5, 107760, Note_on_c, 2, 29, 95
5, 108120, Note_off_c, 2, 29, 80
5, 108480, Note_on_c, 2, 36, 95
5, 108720, Note_off_c, 2, 36, 80
5, 108720, Note_on_c, 2, 36, 95
5, 108960, Note_off_c, 2, 36, 80
5, 109320, Note_on_c, 2, 36, 95
5, 109560, Note_off_c, 2, 36, 80
5, 109560, Note_on_c, 2, 36, 95
5, 109680, Note_off_c, 2, 36, 80
5, 109680, Note_on_c, 2, 36, 95
5, 110040, Note_off_c, 2, 36, 80
5, 110400, Note_on_c, 2, 34, 95
5, 110640, Note_off_c, 2, 34, 80
5, 110640, Note_on_c, 2, 34, 95
5, 110880, Note_off_c, 2, 34, 80
5, 111240, Note_on_c, 2, 29, 95
5, 111480, Note_off_c, 2, 29, 80
5, 111480, Note_on_c, 2, 29, 95
5, 111600, Note_off_c, 2, 29, 80
5, 111600, Note_on_c, 2, 29, 95
5, 111960, Note_off_c, 2, 29, 80
5, 112320, Note_on_c, 2, 36, 95
5, 112560, Note_off_c, 2, 36, 80
5, 112560, Note_on_c, 2, 36, 95
5, 112800, Note_off_c, 2, 36, 80
5, 113160, Note_on_c, 2, 36, 95
5, 113400, Note_off_c, 2, 36, 80
5, 113400, Note_on_c, 2, 36, 95
5, 113520, Note_off_c, 2, 36, 80
5, 113520, Note_on_c, 2, 36, 95
5, 113880, Note_off_c, 2, 36, 80
5, 114240, Note_on_c, 2, 34, 95
5, 114480, Note_off_c, 2, 34, 80
5, 114480, Note_on_c, 2, 34, 95
5, 114720, Note_off_c, 2, 34, 80
5, 115080, Note_on_c, 2, 29, 95
5, 115320, Note_off_c, 2, 29, 80
5, 115320, Note_on_c, 2, 29, 95
5, 115440, Note_off_c, 2, 29, 80
5, 115440, Note_on_c, 2, 29, 95
5, 115800, Note_off_c, 2, 29, 80
5, 116160, Note_on_c, 2, 36, 95
5, 116400, Note_off_c, 2, 36, 80
5, 116400, Note_on_c, 2, 36, 95
5, 116640, Note_off_c, 2, 36, 80
5, 117000, Note_on_c, 2, 36, 95
5, 117240, Note_off_c, 2, 36, 80
5, 117240, Note_on_c, 2, 36, 95
5, 117360, Note_off_c, 2, 36, 80
5, 117360, Note_on_c, 2, 36, 95
5, 117720, Note_off_c, 2, 36, 80
5, 118080, Note_on_c, 2, 34, 95
5, 118320, Note_off_c, 2, 34, 80
5, 118320, Note_on_c, 2, 34, 95
5, 118560, Note_off_c, 2, 34, 80
5, 118920, Note_on_c, 2, 29, 95
5, 119160, Note_off_c, 2, 29, 80
5, 119160, Note_on_c, 2, 29, 95
5, 119280, Note_off_c, 2, 29, 80
5, 119280, Note_on_c, 2, 29, 95
5, 119640, Note_off_c, 2, 29, 80
5, 120000, Note_on_c, 2, 36, 95
5, 120480, Note_off_c, 2, 36, 80
5, 120480, End_track
6, 0, Start_track
6, 0, Title_t, "Percussion"
6, 0, Control_c, 9, 100, 0
6, 0, Control_c, 9, 101, 0
6, 0, Control_c, 9, 6, 12
6, 0, Pitch_bend_c, 9, 8192
6, 0, Program_c, 9, 0
6, 0, Control_c, 9, 7, 104
6, 0, Control_c, 9, 10, 64
6, 0, Control_c, 9, 93, 0
6, 0, Control_c, 9, 91, 0
6, 0, Control_c, 9, 92, 0
6, 0, Control_c, 9, 95, 0
6, 19920, Note_on_c, 9, 36, 95
6, 20040, Note_off_c, 9, 36, 80
6, 20040, Note_on_c, 9, 36, 95
6, 20160, Note_off_c, 9, 36, 80
6, 20160, Note_on_c, 9, 49, 95
6, 20160, Note_on_c, 9, 36, 95
6, 20400, Note_off_c, 9, 49, 80
6, 20400, Note_off_c, 9, 36, 80
6, 20400, Note_on_c, 9, 57, 95
6, 20400, Note_on_c, 9, 36, 95
6, 20640, Note_off_c, 9, 57, 80
6, 20640, Note_off_c, 9, 36, 80
6, 20640, Note_on_c, 9, 40, 95
6, 20880, Note_off_c, 9, 40, 80
6, 20880, Note_on_c, 9, 46, 95
6, 21000, Note_off_c, 9, 46, 80
6, 21000, Note_on_c, 9, 36, 95
6, 21120, Note_off_c, 9, 36, 80
6, 21240, Note_on_c, 9, 36, 95
6, 21360, Note_off_c, 9, 36, 80
6, 21360, Note_on_c, 9, 46, 95
6, 21360, Note_on_c, 9, 36, 95
6, 21480, Note_off_c, 9, 46, 80
6, 21480, Note_off_c, 9, 36, 80
6, 21600, Note_on_c, 9, 40, 95
6, 21840, Note_off_c, 9, 40, 80
6, 21840, Note_on_c, 9, 46, 95
6, 22080, Note_off_c, 9, 46, 80
6, 22080, Note_on_c, 9, 36, 95
6, 22320, Note_off_c, 9, 36, 80
6, 22320, Note_on_c, 9, 46, 95
6, 22320, Note_on_c, 9, 36, 95
6, 22560, Note_off_c, 9, 46, 80
6, 22560, Note_off_c, 9, 36, 80
6, 22560, Note_on_c, 9, 40, 95
6, 22800, Note_off_c, 9, 40, 80
6, 22800, Note_on_c, 9, 46, 95
6, 22920, Note_off_c, 9, 46, 80
6, 22920, Note_on_c, 9, 36, 95
6, 23040, Note_off_c, 9, 36, 80
6, 23160, Note_on_c, 9, 36, 95
6, 23280, Note_off_c, 9, 36, 80
6, 23280, Note_on_c, 9, 46, 95
6, 23280, Note_on_c, 9, 36, 95
6, 23400, Note_off_c, 9, 46, 80
6, 23400, Note_off_c, 9, 36, 80
6, 23520, Note_on_c, 9, 40, 95
6, 23760, Note_off_c, 9, 40, 80
6, 23760, Note_on_c, 9, 46, 95
6, 24000, Note_off_c, 9, 46, 80
6, 24000, Note_on_c, 9, 36, 95
6, 24240, Note_off_c, 9, 36, 80
6, 24240, Note_on_c, 9, 46, 95
6, 24240, Note_on_c, 9, 36, 95
6, 24480, Note_off_c, 9, 46, 80
6, 24480, Note_off_c, 9, 36, 80
6, 24480, Note_on_c, 9, 40, 95
6, 24720, Note_off_c, 9, 40, 80
6, 24720, Note_on_c, 9, 46, 95
6, 24840, Note_off_c, 9, 46, 80
6, 24840, Note_on_c, 9, 36, 95
6, 24960, Note_off_c, 9, 36, 80
6, 25080, Note_on_c, 9, 36, 95
6, 25200, Note_off_c, 9, 36, 80
6, 25200, Note_on_c, 9, 46, 95
6, 25200, Note_on_c, 9, 36, 95
6, 25320, Note_off_c, 9, 46, 80
6, 25320, Note_off_c, 9, 36, 80
6, 25440, Note_on_c, 9, 40, 95
6, 25680, Note_off_c, 9, 40, 80
6, 25680, Note_on_c, 9, 46, 95
6, 25920, Note_off_c, 9, 46, 80
6, 25920, Note_on_c, 9, 36, 95
6, 26160, Note_off_c, 9, 36, 80
6, 26160, Note_on_c, 9, 46, 95
6, 26160, Note_on_c, 9, 36, 95
6, 26400, Note_off_c, 9, 46, 80
6, 26400, Note_off_c, 9, 36, 80
6, 26400, Note_on_c, 9, 40, 95
6, 26640, Note_off_c, 9, 40, 80
6, 26640, Note_on_c, 9, 46, 95
6, 26760, Note_off_c, 9, 46, 80
6, 26760, Note_on_c, 9, 36, 95
6, 26880, Note_off_c, 9, 36, 80
6, 27000, Note_on_c, 9, 36, 95
6, 27120, Note_off_c, 9, 36, 80
6, 27120, Note_on_c, 9, 46, 95
6, 27120, Note_on_c, 9, 36, 95
6, 27240, Note_off_c, 9, 46, 80
6, 27240, Note_off_c, 9, 36, 80
6, 27360, Note_on_c, 9, 40, 95
6, 27480, Note_off_c, 9, 40, 80
6, 27480, Note_on_c, 9, 40, 95
6, 27600, Note_off_c, 9, 40, 80
6, 27600, Note_on_c, 9, 40, 95
6, 27720, Note_off_c, 9, 40, 80
6, 27720, Note_on_c, 9, 40, 95
6, 27840, Note_off_c, 9, 40, 80
6, 27840, Note_on_c, 9, 42, 95
6, 27840, Note_on_c, 9, 36, 95
6, 27960, Note_off_c, 9, 42, 80
6, 27960, Note_off_c, 9, 36, 80
6, 28080, Note_on_c, 9, 42, 95
6, 28200, Note_off_c, 9, 42, 80
6, 28320, Note_on_c, 9, 42, 95
6, 28320, Note_on_c, 9, 40, 95
6, 28440, Note_off_c, 9, 42, 80
6, 28440, Note_off_c, 9, 40, 80
6, 28560, Note_on_c, 9, 42, 95
6, 28680, Note_off_c, 9, 42, 80
6, 28800, Note_on_c, 9, 42, 95
6, 28800, Note_on_c, 9, 36, 95
6, 28920, Note_off_c, 9, 42, 80
6, 28920, Note_off_c, 9, 36, 80
6, 29040, Note_on_c, 9, 42, 95
6, 29160, Note_off_c, 9, 42, 80
6, 29280, Note_on_c, 9, 42, 95
6, 29280, Note_on_c, 9, 40, 95
6, 29400, Note_off_c, 9, 42, 80
6, 29400, Note_off_c, 9, 40, 80
6, 29520, Note_on_c, 9, 42, 95
6, 29640, Note_off_c, 9, 42, 80
6, 29760, Note_on_c, 9, 42, 95
6, 29760, Note_on_c, 9, 36, 95
6, 29880, Note_off_c, 9, 42, 80
6, 29880, Note_off_c, 9, 36, 80
6, 30000, Note_on_c, 9, 42, 95
6, 30120, Note_off_c, 9, 42, 80
6, 30240, Note_on_c, 9, 42, 95
6, 30240, Note_on_c, 9, 40, 95
6, 30360, Note_off_c, 9, 42, 80
6, 30360, Note_off_c, 9, 40, 80
6, 30480, Note_on_c, 9, 42, 95
6, 30600, Note_off_c, 9, 42, 80
6, 30720, Note_on_c, 9, 42, 95
6, 30720, Note_on_c, 9, 36, 95
6, 30840, Note_off_c, 9, 42, 80
6, 30840, Note_off_c, 9, 36, 80
6, 30960, Note_on_c, 9, 42, 95
6, 31080, Note_off_c, 9, 42, 80
6, 31200, Note_on_c, 9, 42, 95
6, 31200, Note_on_c, 9, 40, 95
6, 31320, Note_off_c, 9, 42, 80
6, 31320, Note_off_c, 9, 40, 80
6, 31440, Note_on_c, 9, 42, 95
6, 31560, Note_off_c, 9, 42, 80
6, 31680, Note_on_c, 9, 42, 95
6, 31680, Note_on_c, 9, 36, 95
6, 31800, Note_off_c, 9, 42, 80
6, 31800, Note_off_c, 9, 36, 80
6, 31920, Note_on_c, 9, 42, 95
6, 32040, Note_off_c, 9, 42, 80
6, 32160, Note_on_c, 9, 42, 95
6, 32160, Note_on_c, 9, 40, 95
6, 32280, Note_off_c, 9, 42, 80
6, 32280, Note_off_c, 9, 40, 80
6, 32400, Note_on_c, 9, 42, 95
6, 32520, Note_off_c, 9, 42, 80
6, 32640, Note_on_c, 9, 42, 95
6, 32640, Note_on_c, 9, 36, 95
6, 32760, Note_off_c, 9, 42, 80
6, 32760, Note_off_c, 9, 36, 80
6, 32880, Note_on_c, 9, 42, 95
6, 33000, Note_off_c, 9, 42, 80
6, 33120, Note_on_c, 9, 42, 95
6, 33120, Note_on_c, 9, 40, 95
6, 33240, Note_off_c, 9, 42, 80
6, 33240, Note_off_c, 9, 40, 80
6, 33360, Note_on_c, 9, 42, 95
6, 33480, Note_off_c, 9, 42, 80
6, 33600, Note_on_c, 9, 42, 95
6, 33600, Note_on_c, 9, 36, 95
6, 33720, Note_off_c, 9, 42, 80
6, 33720, Note_off_c, 9, 36, 80
6, 33840, Note_on_c, 9, 42, 95
6, 33960, Note_off_c, 9, 42, 80
6, 33960, Note_on_c, 9, 36, 95
6, 34080, Note_off_c, 9, 36, 80
6, 34080, Note_on_c, 9, 42, 95
6, 34080, Note_on_c, 9, 40, 95
6, 34200, Note_off_c, 9, 42, 80
6, 34200, Note_off_c, 9, 40, 80
6, 34320, Note_on_c, 9, 42, 95
6, 34440, Note_off_c, 9, 42, 80
6, 34560, Note_on_c, 9, 46, 95
6, 34560, Note_on_c, 9, 40, 95
6, 34560, Note_on_c, 9, 36, 95
6, 34680, Note_off_c, 9, 46, 80
6, 34680, Note_off_c, 9, 40, 80
6, 34680, Note_off_c, 9, 36, 80
6, 34920, Note_on_c, 9, 46, 95
6, 34920, Note_on_c, 9, 40, 95
6, 34920, Note_on_c, 9, 36, 95
6, 35040, Note_off_c, 9, 46, 80
6, 35040, Note_off_c, 9, 40, 80
6, 35040, Note_off_c, 9, 36, 80
6, 35160, Note_on_c, 9, 36, 95
6, 35280, Note_off_c, 9, 36, 80
6, 35280, Note_on_c, 9, 46, 95
6, 35280, Note_on_c, 9, 40, 95
6, 35280, Note_on_c, 9, 36, 95
6, 35400, Note_off_c, 9, 46, 80
6, 35400, Note_off_c, 9, 40, 80
6, 35400, Note_off_c, 9, 36, 80
6, 35880, Note_on_c, 9, 45, 95
6, 35880, Note_on_c, 9, 36, 95
6, 36000, Note_off_c, 9, 45, 80
6, 36000, Note_off_c, 9, 36, 80
6, 36000, Note_on_c, 9, 45, 95
6, 36000, Note_on_c, 9, 36, 95
6, 36240, Note_off_c, 9, 45, 80
6, 36240, Note_off_c, 9, 36, 80
6, 36240, Note_on_c, 9, 43, 95
6, 36240, Note_on_c, 9, 36, 95
6, 36480, Note_off_c, 9, 43, 80
6, 36480, Note_off_c, 9, 36, 80
6, 36480, Note_on_c, 9, 42, 95
6, 36480, Note_on_c, 9, 36, 95
6, 36600, Note_off_c, 9, 42, 80
6, 36600, Note_off_c, 9, 36, 80
6, 36720, Note_on_c, 9, 42, 95
6, 36840, Note_off_c, 9, 42, 80
6, 36960, Note_on_c, 9, 42, 95
6, 36960, Note_on_c, 9, 40, 95
6, 37080, Note_off_c, 9, 42, 80
6, 37080, Note_off_c, 9, 40, 80
6, 37200, Note_on_c, 9, 42, 95
6, 37320, Note_off_c, 9, 42, 80
6, 37440, Note_on_c, 9, 42, 95
6, 37440, Note_on_c, 9, 36, 95
6, 37560, Note_off_c, 9, 42, 80
6, 37560, Note_off_c, 9, 36, 80
6, 37680, Note_on_c, 9, 42, 95
6, 37800, Note_off_c, 9, 42, 80
6, 37920, Note_on_c, 9, 42, 95
6, 37920, Note_on_c, 9, 40, 95
6, 38040, Note_off_c, 9, 42, 80
6, 38040, Note_off_c, 9, 40, 80
6, 38160, Note_on_c, 9, 42, 95
6, 38280, Note_off_c, 9, 42, 80
6, 38400, Note_on_c, 9, 42, 95
6, 38400, Note_on_c, 9, 36, 95
6, 38520, Note_off_c, 9, 42, 80
6, 38520, Note_off_c, 9, 36, 80
6, 38640, Note_on_c, 9, 42, 95
6, 38760, Note_off_c, 9, 42, 80
6, 38880, Note_on_c, 9, 42, 95
6, 38880, Note_on_c, 9, 40, 95
6, 39000, Note_off_c, 9, 42, 80
6, 39000, Note_off_c, 9, 40, 80
6, 39120, Note_on_c, 9, 42, 95
6, 39240, Note_off_c, 9, 42, 80
6, 39360, Note_on_c, 9, 42, 95
6, 39360, Note_on_c, 9, 36, 95
6, 39480, Note_off_c, 9, 42, 80
6, 39480, Note_off_c, 9, 36, 80
6, 39600, Note_on_c, 9, 42, 95
6, 39720, Note_off_c, 9, 42, 80
6, 39840, Note_on_c, 9, 42, 95
6, 39840, Note_on_c, 9, 40, 95
6, 39960, Note_off_c, 9, 42, 80
6, 39960, Note_off_c, 9, 40, 80
6, 40080, Note_on_c, 9, 42, 95
6, 40200, Note_off_c, 9, 42, 80
6, 40320, Note_on_c, 9, 42, 95
6, 40320, Note_on_c, 9, 36, 95
6, 40440, Note_off_c, 9, 42, 80
6, 40440, Note_off_c, 9, 36, 80
6, 40560, Note_on_c, 9, 42, 95
6, 40680, Note_off_c, 9, 42, 80
6, 40800, Note_on_c, 9, 42, 95
6, 40800, Note_on_c, 9, 40, 95
6, 40920, Note_off_c, 9, 42, 80
6, 40920, Note_off_c, 9, 40, 80
6, 41040, Note_on_c, 9, 42, 95
6, 41160, Note_off_c, 9, 42, 80
6, 41280, Note_on_c, 9, 42, 95
6, 41280, Note_on_c, 9, 36, 95
6, 41400, Note_off_c, 9, 42, 80
6, 41400, Note_off_c, 9, 36, 80
6, 41520, Note_on_c, 9, 42, 95
6, 41640, Note_off_c, 9, 42, 80
6, 41760, Note_on_c, 9, 42, 95
6, 41760, Note_on_c, 9, 40, 95
6, 41880, Note_off_c, 9, 42, 80
6, 41880, Note_off_c, 9, 40, 80
6, 42000, Note_on_c, 9, 42, 95
6, 42120, Note_off_c, 9, 42, 80
6, 42240, Note_on_c, 9, 42, 95
6, 42240, Note_on_c, 9, 36, 95
6, 42360, Note_off_c, 9, 42, 80
6, 42360, Note_off_c, 9, 36, 80
6, 42480, Note_on_c, 9, 42, 95
6, 42480, Note_on_c, 9, 36, 95
6, 42600, Note_off_c, 9, 42, 80
6, 42600, Note_off_c, 9, 36, 80
6, 42720, Note_on_c, 9, 42, 95
6, 42720, Note_on_c, 9, 40, 95
6, 42840, Note_off_c, 9, 42, 80
6, 42840, Note_off_c, 9, 40, 80
6, 42960, Note_on_c, 9, 42, 95
6, 43080, Note_off_c, 9, 42, 80
6, 43200, Note_on_c, 9, 42, 95
6, 43200, Note_on_c, 9, 36, 95
6, 43320, Note_off_c, 9, 42, 80
6, 43320, Note_off_c, 9, 36, 80
6, 43440, Note_on_c, 9, 42, 95
6, 43440, Note_on_c, 9, 40, 95
6, 43560, Note_off_c, 9, 42, 80
6, 43560, Note_off_c, 9, 40, 80
6, 43560, Note_on_c, 9, 40, 95
6, 43680, Note_off_c, 9, 40, 80
6, 43680, Note_on_c, 9, 42, 95
6, 43680, Note_on_c, 9, 40, 95
6, 43800, Note_off_c, 9, 42, 80
6, 43800, Note_off_c, 9, 40, 80
6, 43800, Note_on_c, 9, 43, 95
6, 43920, Note_off_c, 9, 43, 80
6, 43920, Note_on_c, 9, 42, 95
6, 43920, Note_on_c, 9, 43, 95
6, 44040, Note_off_c, 9, 42, 80
6, 44040, Note_off_c, 9, 43, 80
6, 44160, Note_on_c, 9, 42, 95
6, 44160, Note_on_c, 9, 36, 95
6, 44280, Note_off_c, 9, 42, 80
6, 44280, Note_off_c, 9, 36, 80
6, 44400, Note_on_c, 9, 42, 95
6, 44520, Note_off_c, 9, 42, 80
6, 44640, Note_on_c, 9, 42, 95
6, 44640, Note_on_c, 9, 40, 95
6, 44760, Note_off_c, 9, 42, 80
6, 44760, Note_off_c, 9, 40, 80
6, 44880, Note_on_c, 9, 42, 95
6, 45000, Note_off_c, 9, 42, 80
6, 45120, Note_on_c, 9, 42, 95
6, 45120, Note_on_c, 9, 36, 95
6, 45240, Note_off_c, 9, 42, 80
6, 45240, Note_off_c, 9, 36, 80
6, 45360, Note_on_c, 9, 42, 95
6, 45480, Note_off_c, 9, 42, 80
6, 45600, Note_on_c, 9, 42, 95
6, 45600, Note_on_c, 9, 40, 95
6, 45720, Note_off_c, 9, 42, 80
6, 45720, Note_off_c, 9, 40, 80
6, 45840, Note_on_c, 9, 42, 95
6, 45960, Note_off_c, 9, 42, 80
6, 46080, Note_on_c, 9, 42, 95
6, 46080, Note_on_c, 9, 36, 95
6, 46200, Note_off_c, 9, 42, 80
6, 46200, Note_off_c, 9, 36, 80
6, 46320, Note_on_c, 9, 42, 95
6, 46440, Note_off_c, 9, 42, 80
6, 46560, Note_on_c, 9, 42, 95
6, 46560, Note_on_c, 9, 40, 95
6, 46680, Note_off_c, 9, 42, 80
6, 46680, Note_off_c, 9, 40, 80
6, 46800, Note_on_c, 9, 42, 95
6, 46920, Note_off_c, 9, 42, 80
6, 47040, Note_on_c, 9, 42, 95
6, 47040, Note_on_c, 9, 36, 95
6, 47160, Note_off_c, 9, 42, 80
6, 47160, Note_off_c, 9, 36, 80
6, 47280, Note_on_c, 9, 42, 95
6, 47400, Note_off_c, 9, 42, 80
6, 47520, Note_on_c, 9, 42, 95
6, 47520, Note_on_c, 9, 40, 95
6, 47640, Note_off_c, 9, 42, 80
6, 47640, Note_off_c, 9, 40, 80
6, 47760, Note_on_c, 9, 42, 95
6, 47880, Note_off_c, 9, 42, 80
6, 47880, Note_on_c, 9, 36, 95
6, 48000, Note_off_c, 9, 36, 80
6, 48000, Note_on_c, 9, 42, 95
6, 48000, Note_on_c, 9, 36, 95
6, 48120, Note_off_c, 9, 42, 80
6, 48120, Note_off_c, 9, 36, 80
6, 48240, Note_on_c, 9, 42, 95
6, 48360, Note_off_c, 9, 42, 80
6, 48480, Note_on_c, 9, 42, 95
6, 48480, Note_on_c, 9, 40, 95
6, 48600, Note_off_c, 9, 42, 80
6, 48600, Note_off_c, 9, 40, 80
6, 48720, Note_on_c, 9, 42, 95
6, 48840, Note_off_c, 9, 42, 80
6, 48840, Note_on_c, 9, 36, 95
6, 48960, Note_off_c, 9, 36, 80
6, 48960, Note_on_c, 9, 42, 95
6, 48960, Note_on_c, 9, 36, 95
6, 49080, Note_off_c, 9, 42, 80
6, 49080, Note_off_c, 9, 36, 80
6, 49200, Note_on_c, 9, 42, 95
6, 49200, Note_on_c, 9, 36, 95
6, 49320, Note_off_c, 9, 42, 80
6, 49320, Note_off_c, 9, 36, 80
6, 49440, Note_on_c, 9, 42, 95
6, 49440, Note_on_c, 9, 40, 95
6, 49560, Note_off_c, 9, 42, 80
6, 49560, Note_off_c, 9, 40, 80
6, 49680, Note_on_c, 9, 42, 95
6, 49800, Note_off_c, 9, 42, 80
6, 49800, Note_on_c, 9, 36, 95
6, 49920, Note_off_c, 9, 36, 80
6, 49920, Note_on_c, 9, 42, 95
6, 49920, Note_on_c, 9, 36, 95
6, 50040, Note_off_c, 9, 42, 80
6, 50040, Note_off_c, 9, 36, 80
6, 50160, Note_on_c, 9, 42, 95
6, 50280, Note_off_c, 9, 42, 80
6, 50280, Note_on_c, 9, 36, 95
6, 50400, Note_off_c, 9, 36, 80
6, 50400, Note_on_c, 9, 42, 95
6, 50400, Note_on_c, 9, 40, 95
6, 50520, Note_off_c, 9, 42, 80
6, 50520, Note_off_c, 9, 40, 80
6, 50640, Note_on_c, 9, 42, 95
6, 50760, Note_off_c, 9, 42, 80
6, 50880, Note_on_c, 9, 46, 95
6, 50880, Note_on_c, 9, 40, 95
6, 50880, Note_on_c, 9, 36, 95
6, 51000, Note_off_c, 9, 46, 80
6, 51000, Note_off_c, 9, 40, 80
6, 51000, Note_off_c, 9, 36, 80
6, 51240, Note_on_c, 9, 46, 95
6, 51240, Note_on_c, 9, 40, 95
6, 51240, Note_on_c, 9, 36, 95
6, 51360, Note_off_c, 9, 46, 80
6, 51360, Note_off_c, 9, 40, 80
6, 51360, Note_off_c, 9, 36, 80
6, 51480, Note_on_c, 9, 36, 95
6, 51600, Note_off_c, 9, 36, 80
6, 51600, Note_on_c, 9, 46, 95
6, 51600, Note_on_c, 9, 40, 95
6, 51600, Note_on_c, 9, 36, 95
6, 51720, Note_off_c, 9, 46, 80
6, 51720, Note_off_c, 9, 40, 80
6, 51720, Note_off_c, 9, 36, 80
6, 51840, Note_on_c, 9, 40, 95
6, 51960, Note_off_c, 9, 40, 80
6, 51960, Note_on_c, 9, 40, 95
6, 52020, Note_off_c, 9, 40, 80
6, 52020, Note_on_c, 9, 40, 95
6, 52080, Note_off_c, 9, 40, 80
6, 52080, Note_on_c, 9, 40, 95
6, 52200, Note_off_c, 9, 40, 80
6, 52200, Note_on_c, 9, 40, 95
6, 52320, Note_off_c, 9, 40, 80
6, 52320, Note_on_c, 9, 45, 95
6, 52440, Note_off_c, 9, 45, 80
6, 52440, Note_on_c, 9, 45, 95
6, 52500, Note_off_c, 9, 45, 80
6, 52500, Note_on_c, 9, 45, 95
6, 52560, Note_off_c, 9, 45, 80
6, 52560, Note_on_c, 9, 45, 95
6, 52620, Note_off_c, 9, 45, 80
6, 52620, Note_on_c, 9, 45, 95
6, 52680, Note_off_c, 9, 45, 80
6, 52680, Note_on_c, 9, 43, 95
6, 52740, Note_off_c, 9, 43, 80
6, 52740, Note_on_c, 9, 43, 95
6, 52800, Note_off_c, 9, 43, 80
6, 52800, Note_on_c, 9, 49, 95
6, 52800, Note_on_c, 9, 36, 95
6, 53040, Note_off_c, 9, 49, 80
6, 53040, Note_off_c, 9, 36, 80
6, 53040, Note_on_c, 9, 57, 95
6, 53040, Note_on_c, 9, 36, 95
6, 53280, Note_off_c, 9, 57, 80
6, 53280, Note_off_c, 9, 36, 80
6, 53280, Note_on_c, 9, 40, 95
6, 53520, Note_off_c, 9, 40, 80
6, 53520, Note_on_c, 9, 46, 95
6, 53640, Note_off_c, 9, 46, 80
6, 53640, Note_on_c, 9, 36, 95
6, 53760, Note_off_c, 9, 36, 80
6, 53880, Note_on_c, 9, 36, 95
6, 54000, Note_off_c, 9, 36, 80
6, 54000, Note_on_c, 9, 46, 95
6, 54000, Note_on_c, 9, 36, 95
6, 54120, Note_off_c, 9, 46, 80
6, 54120, Note_off_c, 9, 36, 80
6, 54240, Note_on_c, 9, 40, 95
6, 54480, Note_off_c, 9, 40, 80
6, 54480, Note_on_c, 9, 46, 95
6, 54720, Note_off_c, 9, 46, 80
6, 54720, Note_on_c, 9, 36, 95
6, 54960, Note_off_c, 9, 36, 80
6, 54960, Note_on_c, 9, 46, 95
6, 54960, Note_on_c, 9, 36, 95
6, 55200, Note_off_c, 9, 46, 80
6, 55200, Note_off_c, 9, 36, 80
6, 55200, Note_on_c, 9, 40, 95
6, 55440, Note_off_c, 9, 40, 80
6, 55440, Note_on_c, 9, 46, 95
6, 55560, Note_off_c, 9, 46, 80
6, 55560, Note_on_c, 9, 36, 95
6, 55680, Note_off_c, 9, 36, 80
6, 55800, Note_on_c, 9, 36, 95
6, 55920, Note_off_c, 9, 36, 80
6, 55920, Note_on_c, 9, 46, 95
6, 55920, Note_on_c, 9, 36, 95
6, 56040, Note_off_c, 9, 46, 80
6, 56040, Note_off_c, 9, 36, 80
6, 56160, Note_on_c, 9, 40, 95
6, 56400, Note_off_c, 9, 40, 80
6, 56400, Note_on_c, 9, 46, 95
6, 56640, Note_off_c, 9, 46, 80
6, 56640, Note_on_c, 9, 36, 95
6, 56880, Note_off_c, 9, 36, 80
6, 56880, Note_on_c, 9, 46, 95
6, 56880, Note_on_c, 9, 36, 95
6, 57120, Note_off_c, 9, 46, 80
6, 57120, Note_off_c, 9, 36, 80
6, 57120, Note_on_c, 9, 40, 95
6, 57360, Note_off_c, 9, 40, 80
6, 57360, Note_on_c, 9, 46, 95
6, 57480, Note_off_c, 9, 46, 80
6, 57480, Note_on_c, 9, 36, 95
6, 57600, Note_off_c, 9, 36, 80
6, 57720, Note_on_c, 9, 36, 95
6, 57840, Note_off_c, 9, 36, 80
6, 57840, Note_on_c, 9, 46, 95
6, 57840, Note_on_c, 9, 36, 95
6, 57960, Note_off_c, 9, 46, 80
6, 57960, Note_off_c, 9, 36, 80
6, 58080, Note_on_c, 9, 40, 95
6, 58320, Note_off_c, 9, 40, 80
6, 58320, Note_on_c, 9, 46, 95
6, 58560, Note_off_c, 9, 46, 80
6, 58560, Note_on_c, 9, 36, 95
6, 58800, Note_off_c, 9, 36, 80
6, 58800, Note_on_c, 9, 46, 95
6, 58800, Note_on_c, 9, 36, 95
6, 59040, Note_off_c, 9, 46, 80
6, 59040, Note_off_c, 9, 36, 80
6, 59040, Note_on_c, 9, 40, 95
6, 59280, Note_off_c, 9, 40, 80
6, 59280, Note_on_c, 9, 46, 95
6, 59400, Note_off_c, 9, 46, 80
6, 59400, Note_on_c, 9, 36, 95
6, 59520, Note_off_c, 9, 36, 80
6, 59640, Note_on_c, 9, 36, 95
6, 59760, Note_off_c, 9, 36, 80
6, 59760, Note_on_c, 9, 46, 95
6, 59760, Note_on_c, 9, 36, 95
6, 59880, Note_off_c, 9, 46, 80
6, 59880, Note_off_c, 9, 36, 80
6, 60000, Note_on_c, 9, 40, 95
6, 60120, Note_off_c, 9, 40, 80
6, 60120, Note_on_c, 9, 40, 95
6, 60240, Note_off_c, 9, 40, 80
6, 60240, Note_on_c, 9, 40, 95
6, 60360, Note_off_c, 9, 40, 80
6, 60360, Note_on_c, 9, 40, 95
6, 60480, Note_off_c, 9, 40, 80
6, 60480, Note_on_c, 9, 42, 95
6, 60480, Note_on_c, 9, 36, 95
6, 60600, Note_off_c, 9, 42, 80
6, 60600, Note_off_c, 9, 36, 80
6, 60720, Note_on_c, 9, 42, 95
6, 60840, Note_off_c, 9, 42, 80
6, 60960, Note_on_c, 9, 42, 95
6, 60960, Note_on_c, 9, 40, 95
6, 61080, Note_off_c, 9, 42, 80
6, 61080, Note_off_c, 9, 40, 80
6, 61200, Note_on_c, 9, 42, 95
6, 61320, Note_off_c, 9, 42, 80
6, 61440, Note_on_c, 9, 42, 95
6, 61440, Note_on_c, 9, 36, 95
6, 61560, Note_off_c, 9, 42, 80
6, 61560, Note_off_c, 9, 36, 80
6, 61680, Note_on_c, 9, 42, 95
6, 61800, Note_off_c, 9, 42, 80
6, 61920, Note_on_c, 9, 42, 95
6, 61920, Note_on_c, 9, 40, 95
6, 62040, Note_off_c, 9, 42, 80
6, 62040, Note_off_c, 9, 40, 80
6, 62160, Note_on_c, 9, 42, 95
6, 62280, Note_off_c, 9, 42, 80
6, 62400, Note_on_c, 9, 42, 95
6, 62400, Note_on_c, 9, 36, 95
6, 62520, Note_off_c, 9, 42, 80
6, 62520, Note_off_c, 9, 36, 80
6, 62640, Note_on_c, 9, 42, 95
6, 62760, Note_off_c, 9, 42, 80
6, 62880, Note_on_c, 9, 42, 95
6, 62880, Note_on_c, 9, 40, 95
6, 63000, Note_off_c, 9, 42, 80
6, 63000, Note_off_c, 9, 40, 80
6, 63120, Note_on_c, 9, 42, 95
6, 63240, Note_off_c, 9, 42, 80
6, 63360, Note_on_c, 9, 42, 95
6, 63360, Note_on_c, 9, 36, 95
6, 63480, Note_off_c, 9, 42, 80
6, 63480, Note_off_c, 9, 36, 80
6, 63600, Note_on_c, 9, 42, 95
6, 63720, Note_off_c, 9, 42, 80
6, 63840, Note_on_c, 9, 42, 95
6, 63840, Note_on_c, 9, 40, 95
6, 63960, Note_off_c, 9, 42, 80
6, 63960, Note_off_c, 9, 40, 80
6, 64080, Note_on_c, 9, 42, 95
6, 64200, Note_off_c, 9, 42, 80
6, 64320, Note_on_c, 9, 42, 95
6, 64320, Note_on_c, 9, 36, 95
6, 64440, Note_off_c, 9, 42, 80
6, 64440, Note_off_c, 9, 36, 80
6, 64560, Note_on_c, 9, 42, 95
6, 64680, Note_off_c, 9, 42, 80
6, 64800, Note_on_c, 9, 42, 95
6, 64800, Note_on_c, 9, 40, 95
6, 64920, Note_off_c, 9, 42, 80
6, 64920, Note_off_c, 9, 40, 80
6, 65040, Note_on_c, 9, 42, 95
6, 65160, Note_off_c, 9, 42, 80
6, 65280, Note_on_c, 9, 42, 95
6, 65280, Note_on_c, 9, 36, 95
6, 65400, Note_off_c, 9, 42, 80
6, 65400, Note_off_c, 9, 36, 80
6, 65520, Note_on_c, 9, 42, 95
6, 65640, Note_off_c, 9, 42, 80
6, 65760, Note_on_c, 9, 42, 95
6, 65760, Note_on_c, 9, 40, 95
6, 65880, Note_off_c, 9, 42, 80
6, 65880, Note_off_c, 9, 40, 80
6, 66000, Note_on_c, 9, 42, 95
6, 66120, Note_off_c, 9, 42, 80
6, 66240, Note_on_c, 9, 42, 95
6, 66240, Note_on_c, 9, 36, 95
6, 66360, Note_off_c, 9, 42, 80
6, 66360, Note_off_c, 9, 36, 80
6, 66480, Note_on_c, 9, 42, 95
6, 66600, Note_off_c, 9, 42, 80
6, 66600, Note_on_c, 9, 36, 95
6, 66720, Note_off_c, 9, 36, 80
6, 66720, Note_on_c, 9, 42, 95
6, 66720, Note_on_c, 9, 40, 95
6, 66840, Note_off_c, 9, 42, 80
6, 66840, Note_off_c, 9, 40, 80
6, 66960, Note_on_c, 9, 42, 95
6, 67080, Note_off_c, 9, 42, 80
6, 67080, Note_on_c, 9, 36, 95
6, 67200, Note_off_c, 9, 36, 80
6, 67200, Note_on_c, 9, 40, 95
6, 67320, Note_off_c, 9, 40, 80
6, 67320, Note_on_c, 9, 40, 95
6, 67440, Note_off_c, 9, 40, 80
6, 67440, Note_on_c, 9, 45, 95
6, 67560, Note_off_c, 9, 45, 80
6, 67680, Note_on_c, 9, 45, 95
6, 67800, Note_off_c, 9, 45, 80
6, 67800, Note_on_c, 9, 45, 95
6, 67920, Note_off_c, 9, 45, 80
6, 67920, Note_on_c, 9, 43, 95
6, 68040, Note_off_c, 9, 43, 80
6, 68160, Note_on_c, 9, 49, 95
6, 68160, Note_on_c, 9, 36, 95
6, 68400, Note_off_c, 9, 49, 80
6, 68400, Note_off_c, 9, 36, 80
6, 68400, Note_on_c, 9, 57, 95
6, 68400, Note_on_c, 9, 36, 95
6, 68640, Note_off_c, 9, 57, 80
6, 68640, Note_off_c, 9, 36, 80
6, 68640, Note_on_c, 9, 40, 95
6, 68880, Note_off_c, 9, 40, 80
6, 68880, Note_on_c, 9, 46, 95
6, 69000, Note_off_c, 9, 46, 80
6, 69000, Note_on_c, 9, 36, 95
6, 69120, Note_off_c, 9, 36, 80
6, 69240, Note_on_c, 9, 36, 95
6, 69360, Note_off_c, 9, 36, 80
6, 69360, Note_on_c, 9, 46, 95
6, 69360, Note_on_c, 9, 36, 95
6, 69480, Note_off_c, 9, 46, 80
6, 69480, Note_off_c, 9, 36, 80
6, 69600, Note_on_c, 9, 40, 95
6, 69840, Note_off_c, 9, 40, 80
6, 69840, Note_on_c, 9, 46, 95
6, 70080, Note_off_c, 9, 46, 80
6, 70080, Note_on_c, 9, 36, 95
6, 70320, Note_off_c, 9, 36, 80
6, 70320, Note_on_c, 9, 46, 95
6, 70320, Note_on_c, 9, 36, 95
6, 70560, Note_off_c, 9, 46, 80
6, 70560, Note_off_c, 9, 36, 80
6, 70560, Note_on_c, 9, 40, 95
6, 70800, Note_off_c, 9, 40, 80
6, 70800, Note_on_c, 9, 46, 95
6, 70920, Note_off_c, 9, 46, 80
6, 70920, Note_on_c, 9, 36, 95
6, 71040, Note_off_c, 9, 36, 80
6, 71160, Note_on_c, 9, 36, 95
6, 71280, Note_off_c, 9, 36, 80
6, 71280, Note_on_c, 9, 46, 95
6, 71280, Note_on_c, 9, 36, 95
6, 71400, Note_off_c, 9, 46, 80
6, 71400, Note_off_c, 9, 36, 80
6, 71520, Note_on_c, 9, 40, 95
6, 71760, Note_off_c, 9, 40, 80
6, 71760, Note_on_c, 9, 46, 95
6, 72000, Note_off_c, 9, 46, 80
6, 72000, Note_on_c, 9, 36, 95
6, 72240, Note_off_c, 9, 36, 80
6, 72240, Note_on_c, 9, 46, 95
6, 72240, Note_on_c, 9, 36, 95
6, 72480, Note_off_c, 9, 46, 80
6, 72480, Note_off_c, 9, 36, 80
6, 72480, Note_on_c, 9, 40, 95
6, 72720, Note_off_c, 9, 40, 80
6, 72720, Note_on_c, 9, 46, 95
6, 72840, Note_off_c, 9, 46, 80
6, 72840, Note_on_c, 9, 36, 95
6, 72960, Note_off_c, 9, 36, 80
6, 73080, Note_on_c, 9, 36, 95
6, 73200, Note_off_c, 9, 36, 80
6, 73200, Note_on_c, 9, 46, 95
6, 73200, Note_on_c, 9, 36, 95
6, 73320, Note_off_c, 9, 46, 80
6, 73320, Note_off_c, 9, 36, 80
6, 73440, Note_on_c, 9, 40, 95
6, 73680, Note_off_c, 9, 40, 80
6, 73680, Note_on_c, 9, 46, 95
6, 73920, Note_off_c, 9, 46, 80
6, 73920, Note_on_c, 9, 36, 95
6, 74160, Note_off_c, 9, 36, 80
6, 74160, Note_on_c, 9, 46, 95
6, 74160, Note_on_c, 9, 36, 95
6, 74400, Note_off_c, 9, 46, 80
6, 74400, Note_off_c, 9, 36, 80
6, 74400, Note_on_c, 9, 40, 95
6, 74640, Note_off_c, 9, 40, 80
6, 74640, Note_on_c, 9, 46, 95
6, 74760, Note_off_c, 9, 46, 80
6, 74760, Note_on_c, 9, 36, 95
6, 74880, Note_off_c, 9, 36, 80
6, 75000, Note_on_c, 9, 36, 95
6, 75120, Note_off_c, 9, 36, 80
6, 75120, Note_on_c, 9, 46, 95
6, 75120, Note_on_c, 9, 36, 95
6, 75240, Note_off_c, 9, 46, 80
6, 75240, Note_off_c, 9, 36, 80
6, 75360, Note_on_c, 9, 40, 95
6, 75480, Note_off_c, 9, 40, 80
6, 75480, Note_on_c, 9, 40, 95
6, 75600, Note_off_c, 9, 40, 80
6, 75600, Note_on_c, 9, 40, 95
6, 75720, Note_off_c, 9, 40, 80
6, 75720, Note_on_c, 9, 40, 95
6, 75840, Note_off_c, 9, 40, 80
6, 75840, Note_on_c, 9, 42, 95
6, 75840, Note_on_c, 9, 36, 95
6, 75960, Note_off_c, 9, 42, 80
6, 75960, Note_off_c, 9, 36, 80
6, 76080, Note_on_c, 9, 42, 95
6, 76200, Note_off_c, 9, 42, 80
6, 76320, Note_on_c, 9, 42, 95
6, 76320, Note_on_c, 9, 40, 95
6, 76440, Note_off_c, 9, 42, 80
6, 76440, Note_off_c, 9, 40, 80
6, 76560, Note_on_c, 9, 42, 95
6, 76680, Note_off_c, 9, 42, 80
6, 76800, Note_on_c, 9, 42, 95
6, 76800, Note_on_c, 9, 36, 95
6, 76920, Note_off_c, 9, 42, 80
6, 76920, Note_off_c, 9, 36, 80
6, 77040, Note_on_c, 9, 42, 95
6, 77160, Note_off_c, 9, 42, 80
6, 77280, Note_on_c, 9, 42, 95
6, 77280, Note_on_c, 9, 40, 95
6, 77400, Note_off_c, 9, 42, 80
6, 77400, Note_off_c, 9, 40, 80
6, 77520, Note_on_c, 9, 42, 95
6, 77640, Note_off_c, 9, 42, 80
6, 77760, Note_on_c, 9, 42, 95
6, 77760, Note_on_c, 9, 36, 95
6, 77880, Note_off_c, 9, 42, 80
6, 77880, Note_off_c, 9, 36, 80
6, 78000, Note_on_c, 9, 42, 95
6, 78120, Note_off_c, 9, 42, 80
6, 78240, Note_on_c, 9, 42, 95
6, 78240, Note_on_c, 9, 40, 95
6, 78360, Note_off_c, 9, 42, 80
6, 78360, Note_off_c, 9, 40, 80
6, 78480, Note_on_c, 9, 42, 95
6, 78600, Note_off_c, 9, 42, 80
6, 78720, Note_on_c, 9, 42, 95
6, 78720, Note_on_c, 9, 36, 95
6, 78840, Note_off_c, 9, 42, 80
6, 78840, Note_off_c, 9, 36, 80
6, 78960, Note_on_c, 9, 42, 95
6, 79080, Note_off_c, 9, 42, 80
6, 79200, Note_on_c, 9, 42, 95
6, 79200, Note_on_c, 9, 40, 95
6, 79320, Note_off_c, 9, 42, 80
6, 79320, Note_off_c, 9, 40, 80
6, 79440, Note_on_c, 9, 42, 95
6, 79560, Note_off_c, 9, 42, 80
6, 79680, Note_on_c, 9, 42, 95
6, 79680, Note_on_c, 9, 36, 95
6, 79800, Note_off_c, 9, 42, 80
6, 79800, Note_off_c, 9, 36, 80
6, 79920, Note_on_c, 9, 42, 95
6, 80040, Note_off_c, 9, 42, 80
6, 80160, Note_on_c, 9, 42, 95
6, 80160, Note_on_c, 9, 40, 95
6, 80280, Note_off_c, 9, 42, 80
6, 80280, Note_off_c, 9, 40, 80
6, 80400, Note_on_c, 9, 42, 95
6, 80520, Note_off_c, 9, 42, 80
6, 80640, Note_on_c, 9, 42, 95
6, 80640, Note_on_c, 9, 36, 95
6, 80760, Note_off_c, 9, 42, 80
6, 80760, Note_off_c, 9, 36, 80
6, 80880, Note_on_c, 9, 42, 95
6, 81000, Note_off_c, 9, 42, 80
6, 81120, Note_on_c, 9, 42, 95
6, 81120, Note_on_c, 9, 40, 95
6, 81240, Note_off_c, 9, 42, 80
6, 81240, Note_off_c, 9, 40, 80
6, 81360, Note_on_c, 9, 42, 95
6, 81480, Note_off_c, 9, 42, 80
6, 81600, Note_on_c, 9, 42, 95
6, 81600, Note_on_c, 9, 36, 95
6, 81720, Note_off_c, 9, 42, 80
6, 81720, Note_off_c, 9, 36, 80
6, 81840, Note_on_c, 9, 42, 95
6, 81960, Note_off_c, 9, 42, 80
6, 81960, Note_on_c, 9, 36, 95
6, 82080, Note_off_c, 9, 36, 80
6, 82080, Note_on_c, 9, 42, 95
6, 82080, Note_on_c, 9, 40, 95
6, 82200, Note_off_c, 9, 42, 80
6, 82200, Note_off_c, 9, 40, 80
6, 82320, Note_on_c, 9, 42, 95
6, 82440, Note_off_c, 9, 42, 80
6, 82440, Note_on_c, 9, 36, 95
6, 82560, Note_off_c, 9, 36, 80
6, 82560, Note_on_c, 9, 40, 95
6, 82680, Note_off_c, 9, 40, 80
6, 82680, Note_on_c, 9, 40, 95
6, 82800, Note_off_c, 9, 40, 80
6, 82800, Note_on_c, 9, 45, 95
6, 82920, Note_off_c, 9, 45, 80
6, 83040, Note_on_c, 9, 45, 95
6, 83160, Note_off_c, 9, 45, 80
6, 83160, Note_on_c, 9, 45, 95
6, 83280, Note_off_c, 9, 45, 80
6, 83280, Note_on_c, 9, 43, 95
6, 83400, Note_off_c, 9, 43, 80
6, 83520, Note_on_c, 9, 49, 95
6, 83520, Note_on_c, 9, 36, 95
6, 83760, Note_off_c, 9, 49, 80
6, 83760, Note_off_c, 9, 36, 80
6, 83760, Note_on_c, 9, 57, 95
6, 83760, Note_on_c, 9, 36, 95
6, 84000, Note_off_c, 9, 57, 80
6, 84000, Note_off_c, 9, 36, 80
6, 84000, Note_on_c, 9, 40, 95
6, 84240, Note_off_c, 9, 40, 80
6, 84240, Note_on_c, 9, 46, 95
6, 84360, Note_off_c, 9, 46, 80
6, 84360, Note_on_c, 9, 36, 95
6, 84480, Note_off_c, 9, 36, 80
6, 84600, Note_on_c, 9, 36, 95
6, 84720, Note_off_c, 9, 36, 80
6, 84720, Note_on_c, 9, 46, 95
6, 84720, Note_on_c, 9, 36, 95
6, 84840, Note_off_c, 9, 46, 80
6, 84840, Note_off_c, 9, 36, 80
6, 84960, Note_on_c, 9, 40, 95
6, 85200, Note_off_c, 9, 40, 80
6, 85200, Note_on_c, 9, 46, 95
6, 85440, Note_off_c, 9, 46, 80
6, 85440, Note_on_c, 9, 36, 95
6, 85680, Note_off_c, 9, 36, 80
6, 85680, Note_on_c, 9, 46, 95
6, 85680, Note_on_c, 9, 36, 95
6, 85920, Note_off_c, 9, 46, 80
6, 85920, Note_off_c, 9, 36, 80
6, 85920, Note_on_c, 9, 40, 95
6, 86160, Note_off_c, 9, 40, 80
6, 86160, Note_on_c, 9, 46, 95
6, 86280, Note_off_c, 9, 46, 80
6, 86280, Note_on_c, 9, 36, 95
6, 86400, Note_off_c, 9, 36, 80
6, 86520, Note_on_c, 9, 36, 95
6, 86640, Note_off_c, 9, 36, 80
6, 86640, Note_on_c, 9, 46, 95
6, 86640, Note_on_c, 9, 36, 95
6, 86760, Note_off_c, 9, 46, 80
6, 86760, Note_off_c, 9, 36, 80
6, 86880, Note_on_c, 9, 40, 95
6, 87120, Note_off_c, 9, 40, 80
6, 87120, Note_on_c, 9, 46, 95
6, 87360, Note_off_c, 9, 46, 80
6, 87360, Note_on_c, 9, 36, 95
6, 87600, Note_off_c, 9, 36, 80
6, 87600, Note_on_c, 9, 46, 95
6, 87600, Note_on_c, 9, 36, 95
6, 87840, Note_off_c, 9, 46, 80
6, 87840, Note_off_c, 9, 36, 80
6, 87840, Note_on_c, 9, 40, 95
6, 88080, Note_off_c, 9, 40, 80
6, 88080, Note_on_c, 9, 46, 95
6, 88200, Note_off_c, 9, 46, 80
6, 88200, Note_on_c, 9, 36, 95
6, 88320, Note_off_c, 9, 36, 80
6, 88440, Note_on_c, 9, 36, 95
6, 88560, Note_off_c, 9, 36, 80
6, 88560, Note_on_c, 9, 46, 95
6, 88560, Note_on_c, 9, 36, 95
6, 88680, Note_off_c, 9, 46, 80
6, 88680, Note_off_c, 9, 36, 80
6, 88800, Note_on_c, 9, 40, 95
6, 89040, Note_off_c, 9, 40, 80
6, 89040, Note_on_c, 9, 46, 95
6, 89280, Note_off_c, 9, 46, 80
6, 89280, Note_on_c, 9, 36, 95
6, 89520, Note_off_c, 9, 36, 80
6, 89520, Note_on_c, 9, 46, 95
6, 89520, Note_on_c, 9, 36, 95
6, 89760, Note_off_c, 9, 46, 80
6, 89760, Note_off_c, 9, 36, 80
6, 89760, Note_on_c, 9, 40, 95
6, 90000, Note_off_c, 9, 40, 80
6, 90000, Note_on_c, 9, 46, 95
6, 90120, Note_off_c, 9, 46, 80
6, 90120, Note_on_c, 9, 36, 95
6, 90240, Note_off_c, 9, 36, 80
6, 90360, Note_on_c, 9, 36, 95
6, 90480, Note_off_c, 9, 36, 80
6, 90480, Note_on_c, 9, 46, 95
6, 90480, Note_on_c, 9, 36, 95
6, 90600, Note_off_c, 9, 46, 80
6, 90600, Note_off_c, 9, 36, 80
6, 90720, Note_on_c, 9, 40, 95
6, 90840, Note_off_c, 9, 40, 80
6, 90840, Note_on_c, 9, 40, 95
6, 90960, Note_off_c, 9, 40, 80
6, 90960, Note_on_c, 9, 40, 95
6, 91080, Note_off_c, 9, 40, 80
6, 91080, Note_on_c, 9, 40, 95
6, 91200, Note_off_c, 9, 40, 80
6, 91200, Note_on_c, 9, 49, 95
6, 91200, Note_on_c, 9, 36, 95
6, 91440, Note_off_c, 9, 49, 80
6, 91440, Note_off_c, 9, 36, 80
6, 91440, Note_on_c, 9, 57, 95
6, 91440, Note_on_c, 9, 36, 95
6, 91680, Note_off_c, 9, 57, 80
6, 91680, Note_off_c, 9, 36, 80
6, 91680, Note_on_c, 9, 40, 95
6, 91920, Note_off_c, 9, 40, 80
6, 91920, Note_on_c, 9, 46, 95
6, 92040, Note_off_c, 9, 46, 80
6, 92040, Note_on_c, 9, 36, 95
6, 92160, Note_off_c, 9, 36, 80
6, 92280, Note_on_c, 9, 36, 95
6, 92400, Note_off_c, 9, 36, 80
6, 92400, Note_on_c, 9, 46, 95
6, 92400, Note_on_c, 9, 36, 95
6, 92520, Note_off_c, 9, 46, 80
6, 92520, Note_off_c, 9, 36, 80
6, 92640, Note_on_c, 9, 40, 95
6, 92880, Note_off_c, 9, 40, 80
6, 92880, Note_on_c, 9, 46, 95
6, 93120, Note_off_c, 9, 46, 80
6, 93120, Note_on_c, 9, 36, 95
6, 93360, Note_off_c, 9, 36, 80
6, 93360, Note_on_c, 9, 46, 95
6, 93360, Note_on_c, 9, 36, 95
6, 93600, Note_off_c, 9, 46, 80
6, 93600, Note_off_c, 9, 36, 80
6, 93600, Note_on_c, 9, 40, 95
6, 93840, Note_off_c, 9, 40, 80
6, 93840, Note_on_c, 9, 46, 95
6, 93960, Note_off_c, 9, 46, 80
6, 93960, Note_on_c, 9, 36, 95
6, 94080, Note_off_c, 9, 36, 80
6, 94200, Note_on_c, 9, 36, 95
6, 94320, Note_off_c, 9, 36, 80
6, 94320, Note_on_c, 9, 46, 95
6, 94320, Note_on_c, 9, 36, 95
6, 94440, Note_off_c, 9, 46, 80
6, 94440, Note_off_c, 9, 36, 80
6, 94560, Note_on_c, 9, 40, 95
6, 94800, Note_off_c, 9, 40, 80
6, 94800, Note_on_c, 9, 46, 95
6, 95040, Note_off_c, 9, 46, 80
6, 95040, Note_on_c, 9, 36, 95
6, 95280, Note_off_c, 9, 36, 80
6, 95280, Note_on_c, 9, 46, 95
6, 95280, Note_on_c, 9, 36, 95
6, 95520, Note_off_c, 9, 46, 80
6, 95520, Note_off_c, 9, 36, 80
6, 95520, Note_on_c, 9, 40, 95
6, 95760, Note_off_c, 9, 40, 80
6, 95760, Note_on_c, 9, 46, 95
6, 95880, Note_off_c, 9, 46, 80
6, 95880, Note_on_c, 9, 36, 95
6, 96000, Note_off_c, 9, 36, 80
6, 96120, Note_on_c, 9, 36, 95
6, 96240, Note_off_c, 9, 36, 80
6, 96240, Note_on_c, 9, 46, 95
6, 96240, Note_on_c, 9, 36, 95
6, 96360, Note_off_c, 9, 46, 80
6, 96360, Note_off_c, 9, 36, 80
6, 96480, Note_on_c, 9, 40, 95
6, 96720, Note_off_c, 9, 40, 80
6, 96720, Note_on_c, 9, 46, 95
6, 96960, Note_off_c, 9, 46, 80
6, 96960, Note_on_c, 9, 36, 95
6, 97200, Note_off_c, 9, 36, 80
6, 97200, Note_on_c, 9, 46, 95
6, 97200, Note_on_c, 9, 36, 95
6, 97440, Note_off_c, 9, 46, 80
6, 97440, Note_off_c, 9, 36, 80
6, 97440, Note_on_c, 9, 40, 95
6, 97680, Note_off_c, 9, 40, 80
6, 97680, Note_on_c, 9, 46, 95
6, 97800, Note_off_c, 9, 46, 80
6, 97800, Note_on_c, 9, 36, 95
6, 97920, Note_off_c, 9, 36, 80
6, 98040, Note_on_c, 9, 36, 95
6, 98160, Note_off_c, 9, 36, 80
6, 98160, Note_on_c, 9, 46, 95
6, 98160, Note_on_c, 9, 36, 95
6, 98280, Note_off_c, 9, 46, 80
6, 98280, Note_off_c, 9, 36, 80
6, 98400, Note_on_c, 9, 40, 95
6, 98520, Note_off_c, 9, 40, 80
6, 98520, Note_on_c, 9, 40, 95
6, 98640, Note_off_c, 9, 40, 80
6, 98640, Note_on_c, 9, 40, 95
6, 98760, Note_off_c, 9, 40, 80
6, 98760, Note_on_c, 9, 40, 95
6, 98880, Note_off_c, 9, 40, 80
6, 98880, Note_on_c, 9, 49, 95
6, 98880, Note_on_c, 9, 36, 95
6, 99120, Note_off_c, 9, 49, 80
6, 99120, Note_off_c, 9, 36, 80
6, 99120, Note_on_c, 9, 46, 95
6, 99120, Note_on_c, 9, 36, 95
6, 99360, Note_off_c, 9, 46, 80
6, 99360, Note_off_c, 9, 36, 80
6, 99360, Note_on_c, 9, 40, 95
6, 99600, Note_off_c, 9, 40, 80
6, 99600, Note_on_c, 9, 46, 95
6, 99720, Note_off_c, 9, 46, 80
6, 99720, Note_on_c, 9, 36, 95
6, 99840, Note_off_c, 9, 36, 80
6, 99960, Note_on_c, 9, 36, 95
6, 100080, Note_off_c, 9, 36, 80
6, 100080, Note_on_c, 9, 46, 95
6, 100080, Note_on_c, 9, 36, 95
6, 100200, Note_off_c, 9, 46, 80
6, 100200, Note_off_c, 9, 36, 80
6, 100320, Note_on_c, 9, 40, 95
6, 100560, Note_off_c, 9, 40, 80
6, 100560, Note_on_c, 9, 46, 95
6, 100800, Note_off_c, 9, 46, 80
6, 100800, Note_on_c, 9, 36, 95
6, 101040, Note_off_c, 9, 36, 80
6, 101040, Note_on_c, 9, 46, 95
6, 101040, Note_on_c, 9, 36, 95
6, 101280, Note_off_c, 9, 46, 80
6, 101280, Note_off_c, 9, 36, 80
6, 101280, Note_on_c, 9, 40, 95
6, 101520, Note_off_c, 9, 40, 80
6, 101520, Note_on_c, 9, 46, 95
6, 101640, Note_off_c, 9, 46, 80
6, 101640, Note_on_c, 9, 36, 95
6, 101760, Note_off_c, 9, 36, 80
6, 101880, Note_on_c, 9, 36, 95
6, 102000, Note_off_c, 9, 36, 80
6, 102000, Note_on_c, 9, 46, 95
6, 102000, Note_on_c, 9, 36, 95
6, 102120, Note_off_c, 9, 46, 80
6, 102120, Note_off_c, 9, 36, 80
6, 102240, Note_on_c, 9, 40, 95
6, 102480, Note_off_c, 9, 40, 80
6, 102480, Note_on_c, 9, 46, 95
6, 102720, Note_off_c, 9, 46, 80
6, 102720, Note_on_c, 9, 36, 95
6, 102960, Note_off_c, 9, 36, 80
6, 102960, Note_on_c, 9, 46, 95
6, 102960, Note_on_c, 9, 36, 95
6, 103200, Note_off_c, 9, 46, 80
6, 103200, Note_off_c, 9, 36, 80
6, 103200, Note_on_c, 9, 40, 95
6, 103440, Note_off_c, 9, 40, 80
6, 103440, Note_on_c, 9, 46, 95
6, 103560, Note_off_c, 9, 46, 80
6, 103560, Note_on_c, 9, 36, 95
6, 103680, Note_off_c, 9, 36, 80
6, 103800, Note_on_c, 9, 36, 95
6, 103920, Note_off_c, 9, 36, 80
6, 103920, Note_on_c, 9, 46, 95
6, 103920, Note_on_c, 9, 36, 95
6, 104040, Note_off_c, 9, 46, 80
6, 104040, Note_off_c, 9, 36, 80
6, 104160, Note_on_c, 9, 40, 95
6, 104400, Note_off_c, 9, 40, 80
6, 104400, Note_on_c, 9, 46, 95
6, 104640, Note_off_c, 9, 46, 80
6, 104640, Note_on_c, 9, 36, 95
6, 104880, Note_off_c, 9, 36, 80
6, 104880, Note_on_c, 9, 46, 95
6, 104880, Note_on_c, 9, 36, 95
6, 105120, Note_off_c, 9, 46, 80
6, 105120, Note_off_c, 9, 36, 80
6, 105120, Note_on_c, 9, 40, 95
6, 105360, Note_off_c, 9, 40, 80
6, 105360, Note_on_c, 9, 46, 95
6, 105480, Note_off_c, 9, 46, 80
6, 105480, Note_on_c, 9, 36, 95
6, 105600, Note_off_c, 9, 36, 80
6, 105600, Note_on_c, 9, 40, 95
6, 105720, Note_off_c, 9, 40, 80
6, 105720, Note_on_c, 9, 40, 95
6, 105840, Note_off_c, 9, 40, 80
6, 105840, Note_on_c, 9, 40, 95
6, 105960, Note_off_c, 9, 40, 80
6, 105960, Note_on_c, 9, 40, 95
6, 106080, Note_off_c, 9, 40, 80
6, 106080, Note_on_c, 9, 40, 95
6, 106200, Note_off_c, 9, 40, 80
6, 106200, Note_on_c, 9, 40, 95
6, 106320, Note_off_c, 9, 40, 80
6, 106320, Note_on_c, 9, 40, 95
6, 106440, Note_off_c, 9, 40, 80
6, 106440, Note_on_c, 9, 40, 95
6, 106560, Note_off_c, 9, 40, 80
6, 106560, Note_on_c, 9, 49, 95
6, 106560, Note_on_c, 9, 36, 95
6, 106800, Note_off_c, 9, 49, 80
6, 106800, Note_off_c, 9, 36, 80
6, 106800, Note_on_c, 9, 46, 95
6, 106800, Note_on_c, 9, 36, 95
6, 107040, Note_off_c, 9, 46, 80
6, 107040, Note_off_c, 9, 36, 80
6, 107040, Note_on_c, 9, 40, 95
6, 107280, Note_off_c, 9, 40, 80
6, 107280, Note_on_c, 9, 46, 95
6, 107400, Note_off_c, 9, 46, 80
6, 107400, Note_on_c, 9, 36, 95
6, 107520, Note_off_c, 9, 36, 80
6, 107640, Note_on_c, 9, 36, 95
6, 107760, Note_off_c, 9, 36, 80
6, 107760, Note_on_c, 9, 46, 95
6, 107760, Note_on_c, 9, 36, 95
6, 107880, Note_off_c, 9, 46, 80
6, 107880, Note_off_c, 9, 36, 80
6, 108000, Note_on_c, 9, 40, 95
6, 108240, Note_off_c, 9, 40, 80
6, 108240, Note_on_c, 9, 46, 95
6, 108480, Note_off_c, 9, 46, 80
6, 108480, Note_on_c, 9, 36, 95
6, 108720, Note_off_c, 9, 36, 80
6, 108720, Note_on_c, 9, 46, 95
6, 108720, Note_on_c, 9, 36, 95
6, 108960, Note_off_c, 9, 46, 80
6, 108960, Note_off_c, 9, 36, 80
6, 108960, Note_on_c, 9, 40, 95
6, 109200, Note_off_c, 9, 40, 80
6, 109200, Note_on_c, 9, 46, 95
6, 109320, Note_off_c, 9, 46, 80
6, 109320, Note_on_c, 9, 36, 95
6, 109440, Note_off_c, 9, 36, 80
6, 109560, Note_on_c, 9, 36, 95
6, 109680, Note_off_c, 9, 36, 80
6, 109680, Note_on_c, 9, 46, 95
6, 109680, Note_on_c, 9, 36, 95
6, 109800, Note_off_c, 9, 46, 80
6, 109800, Note_off_c, 9, 36, 80
6, 109800, Note_on_c, 9, 40, 95
6, 109920, Note_off_c, 9, 40, 80
6, 109920, Note_on_c, 9, 40, 95
6, 110040, Note_off_c, 9, 40, 80
6, 110040, Note_on_c, 9, 40, 95
6, 110160, Note_off_c, 9, 40, 80
6, 110160, Note_on_c, 9, 40, 95
6, 110280, Note_off_c, 9, 40, 80
6, 110280, Note_on_c, 9, 40, 95
6, 110400, Note_off_c, 9, 40, 80
6, 110400, Note_on_c, 9, 49, 95
6, 110400, Note_on_c, 9, 36, 95
6, 110640, Note_off_c, 9, 49, 80
6, 110640, Note_off_c, 9, 36, 80
6, 110640, Note_on_c, 9, 46, 95
6, 110640, Note_on_c, 9, 36, 95
6, 110880, Note_off_c, 9, 46, 80
6, 110880, Note_off_c, 9, 36, 80
6, 110880, Note_on_c, 9, 40, 95
6, 111120, Note_off_c, 9, 40, 80
6, 111120, Note_on_c, 9, 46, 95
6, 111240, Note_off_c, 9, 46, 80
6, 111240, Note_on_c, 9, 36, 95
6, 111360, Note_off_c, 9, 36, 80
6, 111480, Note_on_c, 9, 36, 95
6, 111600, Note_off_c, 9, 36, 80
6, 111600, Note_on_c, 9, 46, 95
6, 111600, Note_on_c, 9, 36, 95
6, 111720, Note_off_c, 9, 46, 80
6, 111720, Note_off_c, 9, 36, 80
6, 111840, Note_on_c, 9, 40, 95
6, 112080, Note_off_c, 9, 40, 80
6, 112080, Note_on_c, 9, 46, 95
6, 112320, Note_off_c, 9, 46, 80
6, 112320, Note_on_c, 9, 36, 95
6, 112560, Note_off_c, 9, 36, 80
6, 112560, Note_on_c, 9, 46, 95
6, 112560, Note_on_c, 9, 36, 95
6, 112800, Note_off_c, 9, 46, 80
6, 112800, Note_off_c, 9, 36, 80
6, 112800, Note_on_c, 9, 40, 95
6, 113040, Note_off_c, 9, 40, 80
6, 113040, Note_on_c, 9, 46, 95
6, 113160, Note_off_c, 9, 46, 80
6, 113160, Note_on_c, 9, 36, 95
6, 113280, Note_off_c, 9, 36, 80
6, 113400, Note_on_c, 9, 36, 95
6, 113520, Note_off_c, 9, 36, 80
6, 113520, Note_on_c, 9, 46, 95
6, 113520, Note_on_c, 9, 36, 95
6, 113640, Note_off_c, 9, 46, 80
6, 113640, Note_off_c, 9, 36, 80
6, 113640, Note_on_c, 9, 40, 95
6, 113760, Note_off_c, 9, 40, 80
6, 113760, Note_on_c, 9, 40, 95
6, 113880, Note_off_c, 9, 40, 80
6, 113880, Note_on_c, 9, 40, 95
6, 114000, Note_off_c, 9, 40, 80
6, 114000, Note_on_c, 9, 40, 95
6, 114120, Note_off_c, 9, 40, 80
6, 114120, Note_on_c, 9, 40, 95
6, 114240, Note_off_c, 9, 40, 80
6, 114240, Note_on_c, 9, 49, 95
6, 114240, Note_on_c, 9, 36, 95
6, 114480, Note_off_c, 9, 49, 80
6, 114480, Note_off_c, 9, 36, 80
6, 114480, Note_on_c, 9, 46, 95
6, 114480, Note_on_c, 9, 36, 95
6, 114720, Note_off_c, 9, 46, 80
6, 114720, Note_off_c, 9, 36, 80
6, 114720, Note_on_c, 9, 40, 95
6, 114960, Note_off_c, 9, 40, 80
6, 114960, Note_on_c, 9, 46, 95
6, 115080, Note_off_c, 9, 46, 80
6, 115080, Note_on_c, 9, 36, 95
6, 115200, Note_off_c, 9, 36, 80
6, 115320, Note_on_c, 9, 36, 95
6, 115440, Note_off_c, 9, 36, 80
6, 115440, Note_on_c, 9, 46, 95
6, 115440, Note_on_c, 9, 36, 95
6, 115560, Note_off_c, 9, 46, 80
6, 115560, Note_off_c, 9, 36, 80
6, 115680, Note_on_c, 9, 40, 95
6, 115920, Note_off_c, 9, 40, 80
6, 115920, Note_on_c, 9, 46, 95
6, 116160, Note_off_c, 9, 46, 80
6, 116160, Note_on_c, 9, 36, 95
6, 116400, Note_off_c, 9, 36, 80
6, 116400, Note_on_c, 9, 46, 95
6, 116400, Note_on_c, 9, 36, 95
6, 116640, Note_off_c, 9, 46, 80
6, 116640, Note_off_c, 9, 36, 80
6, 116640, Note_on_c, 9, 40, 95
6, 116880, Note_off_c, 9, 40, 80
6, 116880, Note_on_c, 9, 46, 95
6, 117000, Note_off_c, 9, 46, 80
6, 117000, Note_on_c, 9, 36, 95
6, 117120, Note_off_c, 9, 36, 80
6, 117240, Note_on_c, 9, 36, 95
6, 117360, Note_off_c, 9, 36, 80
6, 117360, Note_on_c, 9, 46, 95
6, 117360, Note_on_c, 9, 36, 95
6, 117480, Note_off_c, 9, 46, 80
6, 117480, Note_off_c, 9, 36, 80
6, 117480, Note_on_c, 9, 40, 95
6, 117600, Note_off_c, 9, 40, 80
6, 117600, Note_on_c, 9, 40, 95
6, 117720, Note_off_c, 9, 40, 80
6, 117720, Note_on_c, 9, 40, 95
6, 117840, Note_off_c, 9, 40, 80
6, 117840, Note_on_c, 9, 40, 95
6, 117960, Note_off_c, 9, 40, 80
6, 117960, Note_on_c, 9, 40, 95
6, 118080, Note_off_c, 9, 40, 80
6, 118080, Note_on_c, 9, 49, 95
6, 118080, Note_on_c, 9, 36, 95
6, 118320, Note_off_c, 9, 49, 80
6, 118320, Note_off_c, 9, 36, 80
6, 118320, Note_on_c, 9, 46, 95
6, 118320, Note_on_c, 9, 36, 95
6, 118560, Note_off_c, 9, 46, 80
6, 118560, Note_off_c, 9, 36, 80
6, 118560, Note_on_c, 9, 40, 95
6, 118800, Note_off_c, 9, 40, 80
6, 118800, Note_on_c, 9, 46, 95
6, 118920, Note_off_c, 9, 46, 80
6, 118920, Note_on_c, 9, 36, 95
6, 119040, Note_off_c, 9, 36, 80
6, 119160, Note_on_c, 9, 36, 95
6, 119280, Note_off_c, 9, 36, 80
6, 119280, Note_on_c, 9, 46, 95
6, 119280, Note_on_c, 9, 36, 95
6, 119400, Note_off_c, 9, 46, 80
6, 119400, Note_off_c, 9, 36, 80
6, 119520, Note_on_c, 9, 40, 95
6, 119760, Note_off_c, 9, 40, 80
6, 119760, Note_on_c, 9, 46, 95
6, 119880, Note_off_c, 9, 46, 80
6, 119880, Note_on_c, 9, 40, 95
6, 119940, Note_off_c, 9, 40, 80
6, 119940, Note_on_c, 9, 40, 95
6, 120000, Note_off_c, 9, 40, 80
6, 120000, Note_on_c, 9, 40, 95
6, 120480, Note_off_c, 9, 40, 80
6, 120480, End_track
7, 0, Start_track
7, 0, Title_t, "Vocals1"
7, 0, Control_c, 4, 100, 0
7, 0, Control_c, 4, 101, 0
7, 0, Control_c, 4, 6, 12
7, 0, Pitch_bend_c, 4, 8192
7, 0, Control_c, 5, 100, 0
7, 0, Control_c, 5, 101, 0
7, 0, Control_c, 5, 6, 12
7, 0, Pitch_bend_c, 5, 8192
7, 0, Program_c, 4, 80
7, 0, Program_c, 5, 80
7, 0, Control_c, 4, 7, 112
7, 0, Control_c, 5, 7, 112
7, 0, Control_c, 4, 10, 96
7, 0, Control_c, 5, 10, 96
7, 0, Control_c, 4, 93, 0
7, 0, Control_c, 5, 93, 0
7, 0, Control_c, 4, 91, 0
7, 0, Control_c, 5, 91, 0
7, 0, Control_c, 4, 92, 0
7, 0, Control_c, 5, 92, 0
7, 0, Control_c, 4, 95, 0
7, 0, Control_c, 5, 95, 0
7, 4320, Note_on_c, 4, 60, 95
7, 4440, Note_off_c, 4, 60, 80
7, 4440, Note_on_c, 4, 60, 95
7, 4560, Note_off_c, 4, 60, 80
7, 4560, Note_on_c, 4, 60, 95
7, 4680, Note_off_c, 4, 60, 80
7, 4680, Note_on_c, 4, 60, 95
7, 4920, Note_off_c, 4, 60, 80
7, 5040, Note_on_c, 4, 60, 95
7, 5160, Note_off_c, 4, 60, 80
7, 5160, Note_on_c, 4, 60, 95
7, 5280, Note_off_c, 4, 60, 80
7, 5280, Note_on_c, 4, 60, 95
7, 5400, Note_off_c, 4, 60, 80
7, 5400, Note_on_c, 4, 60, 95
7, 5520, Note_off_c, 4, 60, 80
7, 5520, Note_on_c, 4, 60, 95
7, 5640, Note_off_c, 4, 60, 80
7, 5640, Note_on_c, 5, 60, 95
7, 5640, Pitch_bend_c, 5, 8192
7, 5736, Pitch_bend_c, 5, 8320
7, 5752, Pitch_bend_c, 5, 8576
7, 5768, Pitch_bend_c, 5, 8704
7, 5784, Pitch_bend_c, 5, 8960
7, 5800, Pitch_bend_c, 5, 9344
7, 5816, Pitch_bend_c, 5, 9472
7, 5832, Pitch_bend_c, 5, 9600
7, 6000, Note_off_c, 5, 60, 80
7, 6000, Pitch_bend_c, 5, 8192
7, 8160, Note_on_c, 4, 60, 95
7, 8400, Note_off_c, 4, 60, 80
7, 8400, Note_on_c, 4, 60, 95
7, 8520, Note_off_c, 4, 60, 80
7, 8520, Note_on_c, 4, 60, 95
7, 8760, Note_off_c, 4, 60, 80
7, 8760, Note_on_c, 5, 55, 95
7, 8760, Pitch_bend_c, 5, 11648
7, 8888, Pitch_bend_c, 5, 11136
7, 8904, Pitch_bend_c, 5, 10240
7, 8920, Pitch_bend_c, 5, 9344
7, 8936, Pitch_bend_c, 5, 8448
7, 8952, Pitch_bend_c, 5, 8192
7, 9000, Note_off_c, 5, 55, 80
7, 9000, Pitch_bend_c, 5, 8192
7, 9240, Note_on_c, 4, 60, 95
7, 9360, Note_off_c, 4, 60, 80
7, 9360, Note_on_c, 4, 55, 95
7, 9600, Note_off_c, 4, 55, 80
7, 9600, Note_on_c, 4, 60, 95
7, 10200, Note_off_c, 4, 60, 80
7, 10200, Note_on_c, 4, 62, 95
7, 10320, Note_off_c, 4, 62, 80
7, 10320, Note_on_c, 4, 64, 95
7, 10560, Note_off_c, 4, 64, 80
7, 10560, Note_on_c, 4, 62, 95
7, 11040, Note_off_c, 4, 62, 80
7, 12120, Note_on_c, 4, 60, 95
7, 12240, Note_off_c, 4, 60, 80
7, 12240, Note_on_c, 4, 62, 95
7, 12360, Note_off_c, 4, 62, 80
7, 12360, Note_on_c, 5, 60, 95
7, 12360, Pitch_bend_c, 5, 8192
7, 12488, Pitch_bend_c, 5, 8320
7, 12504, Pitch_bend_c, 5, 8448
7, 12520, Pitch_bend_c, 5, 8704
7, 12536, Pitch_bend_c, 5, 8832
7, 12552, Pitch_bend_c, 5, 8960
7, 12568, Pitch_bend_c, 5, 9216
7, 12584, Pitch_bend_c, 5, 9344
7, 12600, Pitch_bend_c, 5, 9600
7, 12840, Note_off_c, 5, 60, 80
7, 12840, Pitch_bend_c, 5, 8192
7, 12840, Note_on_c, 5, 57, 95
7, 12840, Pitch_bend_c, 5, 10240
7, 13160, Pitch_bend_c, 5, 9856
7, 13176, Pitch_bend_c, 5, 9472
7, 13192, Pitch_bend_c, 5, 9216
7, 13208, Pitch_bend_c, 5, 8832
7, 13224, Pitch_bend_c, 5, 8576
7, 13240, Pitch_bend_c, 5, 8192
7, 13440, Note_off_c, 5, 57, 80
7, 13440, Pitch_bend_c, 5, 8192
7, 14280, Note_on_c, 4, 58, 95
7, 14400, Note_off_c, 4, 58, 80
7, 14400, Note_on_c, 4, 63, 95
7, 14520, Note_off_c, 4, 63, 80
7, 14520, Note_on_c, 4, 63, 95
7, 14760, Note_off_c, 4, 63, 80
7, 14760, Note_on_c, 4, 63, 95
7, 15000, Note_off_c, 4, 63, 80
7, 15000, Note_on_c, 4, 65, 95
7, 15240, Note_off_c, 4, 65, 80
7, 15240, Note_on_c, 5, 65, 95
7, 15240, Pitch_bend_c, 5, 8192
7, 15304, Pitch_bend_c, 5, 8320
7, 15320, Pitch_bend_c, 5, 8704
7, 15336, Pitch_bend_c, 5, 8960
7, 15352, Pitch_bend_c, 5, 9344
7, 15368, Pitch_bend_c, 5, 9600
7, 15480, Note_off_c, 5, 65, 80
7, 15480, Pitch_bend_c, 5, 8192
7, 15480, Note_on_c, 4, 65, 95
7, 15720, Note_off_c, 4, 65, 80
7, 16200, Note_on_c, 4, 53, 95
7, 16320, Note_off_c, 4, 53, 80
7, 16320, Note_on_c, 4, 61, 95
7, 16440, Note_off_c, 4, 61, 80
7, 16440, Note_on_c, 4, 61, 95
7, 16680, Note_off_c, 4, 61, 80
7, 16680, Note_on_c, 5, 58, 95
7, 16680, Pitch_bend_c, 5, 10240
7, 16808, Pitch_bend_c, 5, 10112
7, 16824, Pitch_bend_c, 5, 9856
7, 16840, Pitch_bend_c, 5, 9472
7, 16856, Pitch_bend_c, 5, 9344
7, 16872, Pitch_bend_c, 5, 8960
7, 16888, Pitch_bend_c, 5, 8704
7, 16904, Pitch_bend_c, 5, 8448
7, 16920, Pitch_bend_c, 5, 8192
7, 17040, Note_off_c, 5, 58, 80
7, 17040, Pitch_bend_c, 5, 8192
7, 18000, Note_on_c, 5, 59, 95
7, 18000, Pitch_bend_c, 5, 8192
7, 18032, Pitch_bend_c, 5, 8320
7, 18048, Pitch_bend_c, 5, 8960
7, 18064, Pitch_bend_c, 5, 9600
7, 18120, Note_off_c, 5, 59, 80
7, 18120, Pitch_bend_c, 5, 8192
7, 18120, Note_on_c, 4, 61, 95
7, 18360, Note_off_c, 4, 61, 80
7, 18360, Note_on_c, 4, 61, 95
7, 18600, Note_off_c, 4, 61, 80
7, 18600, Note_on_c, 5, 60, 95
7, 18600, Pitch_bend_c, 5, 8192
7, 18712, Pitch_bend_c, 5, 8448
7, 18728, Pitch_bend_c, 5, 8576
7, 18744, Pitch_bend_c, 5, 8832
7, 18760, Pitch_bend_c, 5, 8960
7, 18776, Pitch_bend_c, 5, 9088
7, 18792, Pitch_bend_c, 5, 9216
7, 18960, Note_off_c, 5, 60, 80
7, 18960, Pitch_bend_c, 5, 8192
7, 18960, Note_on_c, 4, 60, 95
7, 20160, Note_off_c, 4, 60, 80
7, 28440, Note_on_c, 4, 60, 95
7, 28560, Note_off_c, 4, 60, 80
7, 28560, Note_on_c, 4, 62, 95
7, 28680, Note_off_c, 4, 62, 80
7, 28680, Note_on_c, 5, 60, 95
7, 28680, Pitch_bend_c, 5, 8192
7, 28808, Pitch_bend_c, 5, 8320
7, 28824, Pitch_bend_c, 5, 8448
7, 28840, Pitch_bend_c, 5, 8704
7, 28856, Pitch_bend_c, 5, 8832
7, 28872, Pitch_bend_c, 5, 8960
7, 28888, Pitch_bend_c, 5, 9216
7, 28904, Pitch_bend_c, 5, 9344
7, 28920, Pitch_bend_c, 5, 9600
7, 29160, Note_off_c, 5, 60, 80
7, 29160, Pitch_bend_c, 5, 8192
7, 29160, Note_on_c, 5, 57, 95
7, 29160, Pitch_bend_c, 5, 10240
7, 29480, Pitch_bend_c, 5, 9856
7, 29496, Pitch_bend_c, 5, 9472
7, 29512, Pitch_bend_c, 5, 9216
7, 29528, Pitch_bend_c, 5, 8832
7, 29544, Pitch_bend_c, 5, 8576
7, 29560, Pitch_bend_c, 5, 8192
7, 29760, Note_off_c, 5, 57, 80
7, 29760, Pitch_bend_c, 5, 8192
7, 30600, Note_on_c, 4, 58, 95
7, 30720, Note_off_c, 4, 58, 80
7, 30720, Note_on_c, 4, 63, 95
7, 30840, Note_off_c, 4, 63, 80
7, 30840, Note_on_c, 4, 63, 95
7, 31080, Note_off_c, 4, 63, 80
7, 31080, Note_on_c, 4, 63, 95
7, 31320, Note_off_c, 4, 63, 80
7, 31320, Note_on_c, 4, 65, 95
7, 31560, Note_off_c, 4, 65, 80
7, 31560, Note_on_c, 5, 65, 95
7, 31560, Pitch_bend_c, 5, 8192
7, 31624, Pitch_bend_c, 5, 8320
7, 31640, Pitch_bend_c, 5, 8704
7, 31656, Pitch_bend_c, 5, 8960
7, 31672, Pitch_bend_c, 5, 9344
7, 31688, Pitch_bend_c, 5, 9600
7, 31800, Note_off_c, 5, 65, 80
7, 31800, Pitch_bend_c, 5, 8192
7, 31800, Note_on_c, 4, 65, 95
7, 32040, Note_off_c, 4, 65, 80
7, 32520, Note_on_c, 4, 53, 95
7, 32640, Note_off_c, 4, 53, 80
7, 32640, Note_on_c, 4, 61, 95
7, 32760, Note_off_c, 4, 61, 80
7, 32760, Note_on_c, 4, 61, 95
7, 33000, Note_off_c, 4, 61, 80
7, 33000, Note_on_c, 5, 58, 95
7, 33000, Pitch_bend_c, 5, 10240
7, 33128, Pitch_bend_c, 5, 10112
7, 33144, Pitch_bend_c, 5, 9856
7, 33160, Pitch_bend_c, 5, 9472
7, 33176, Pitch_bend_c, 5, 9344
7, 33192, Pitch_bend_c, 5, 8960
7, 33208, Pitch_bend_c, 5, 8704
7, 33224, Pitch_bend_c, 5, 8448
7, 33240, Pitch_bend_c, 5, 8192
7, 33360, Note_off_c, 5, 58, 80
7, 33360, Pitch_bend_c, 5, 8192
7, 34320, Note_on_c, 5, 59, 95
7, 34320, Pitch_bend_c, 5, 8192
7, 34352, Pitch_bend_c, 5, 8320
7, 34368, Pitch_bend_c, 5, 8960
7, 34384, Pitch_bend_c, 5, 9600
7, 34440, Note_off_c, 5, 59, 80
7, 34440, Pitch_bend_c, 5, 8192
7, 34440, Note_on_c, 4, 61, 95
7, 34680, Note_off_c, 4, 61, 80
7, 34680, Note_on_c, 4, 61, 95
7, 34920, Note_off_c, 4, 61, 80
7, 34920, Note_on_c, 5, 60, 95
7, 34920, Pitch_bend_c, 5, 8192
7, 35032, Pitch_bend_c, 5, 8448
7, 35048, Pitch_bend_c, 5, 8576
7, 35064, Pitch_bend_c, 5, 8832
7, 35080, Pitch_bend_c, 5, 8960
7, 35096, Pitch_bend_c, 5, 9088
7, 35112, Pitch_bend_c, 5, 9216
7, 35280, Note_off_c, 5, 60, 80
7, 35280, Pitch_bend_c, 5, 8192
7, 35280, Note_on_c, 4, 60, 95
7, 36480, Note_off_c, 4, 60, 80
7, 36840, Note_on_c, 4, 55, 95
7, 36960, Note_off_c, 4, 55, 80
7, 36960, Note_on_c, 4, 60, 95
7, 37080, Note_off_c, 4, 60, 80
7, 37080, Note_on_c, 4, 60, 95
7, 37320, Note_off_c, 4, 60, 80
7, 37320, Note_on_c, 4, 60, 95
7, 37440, Note_off_c, 4, 60, 80
7, 37920, Note_on_c, 4, 60, 95
7, 38100, Note_off_c, 4, 60, 80
7, 38100, Note_on_c, 4, 60, 95
7, 38280, Note_off_c, 4, 60, 80
7, 38280, Note_on_c, 4, 60, 95
7, 38400, Note_off_c, 4, 60, 80
7, 38400, Note_on_c, 5, 60, 95
7, 38400, Pitch_bend_c, 5, 8192
7, 38464, Pitch_bend_c, 5, 8320
7, 38480, Pitch_bend_c, 5, 8704
7, 38496, Pitch_bend_c, 5, 8960
7, 38512, Pitch_bend_c, 5, 9344
7, 38528, Pitch_bend_c, 5, 9600
7, 38640, Note_off_c, 5, 60, 80
7, 38640, Pitch_bend_c, 5, 8192
7, 39720, Note_on_c, 5, 62, 95
7, 39720, Pitch_bend_c, 5, 8192
7, 39784, Pitch_bend_c, 5, 8320
7, 39800, Pitch_bend_c, 5, 8704
7, 39816, Pitch_bend_c, 5, 8960
7, 39832, Pitch_bend_c, 5, 9344
7, 39848, Pitch_bend_c, 5, 9600
7, 39960, Note_off_c, 5, 62, 80
7, 39960, Pitch_bend_c, 5, 8192
7, 39960, Note_on_c, 4, 62, 95
7, 40080, Note_off_c, 4, 62, 80
7, 40080, Note_on_c, 4, 60, 95
7, 40320, Note_off_c, 4, 60, 80
7, 40800, Note_on_c, 4, 60, 95
7, 41040, Note_off_c, 4, 60, 80
7, 41040, Note_on_c, 4, 55, 95
7, 41160, Note_off_c, 4, 55, 80
7, 41160, Note_on_c, 4, 60, 95
7, 41400, Note_off_c, 4, 60, 80
7, 41520, Note_on_c, 4, 60, 95
7, 41640, Note_off_c, 4, 60, 80
7, 41640, Note_on_c, 4, 55, 95
7, 41880, Note_off_c, 4, 55, 80
7, 41880, Note_on_c, 4, 60, 95
7, 42000, Note_off_c, 4, 60, 80
7, 42000, Note_on_c, 4, 55, 95
7, 42240, Note_off_c, 4, 55, 80
7, 42240, Note_on_c, 4, 60, 95
7, 42840, Note_off_c, 4, 60, 80
7, 42840, Note_on_c, 4, 62, 95
7, 42960, Note_off_c, 4, 62, 80
7, 42960, Note_on_c, 4, 64, 95
7, 43200, Note_off_c, 4, 64, 80
7, 43200, Note_on_c, 4, 62, 95
7, 43680, Note_off_c, 4, 62, 80
7, 44760, Note_on_c, 4, 60, 95
7, 44880, Note_off_c, 4, 60, 80
7, 44880, Note_on_c, 4, 62, 95
7, 45000, Note_off_c, 4, 62, 80
7, 45000, Note_on_c, 5, 60, 95
7, 45000, Pitch_bend_c, 5, 8192
7, 45096, Pitch_bend_c, 5, 8320
7, 45112, Pitch_bend_c, 5, 8576
7, 45128, Pitch_bend_c, 5, 8704
7, 45144, Pitch_bend_c, 5, 8960
7, 45160, Pitch_bend_c, 5, 9344
7, 45176, Pitch_bend_c, 5, 9472
7, 45192, Pitch_bend_c, 5, 9600
7, 45360, Note_off_c, 5, 60, 80
7, 45360, Pitch_bend_c, 5, 8192
7, 45360, Note_on_c, 4, 60, 95
7, 45480, Note_off_c, 4, 60, 80
7, 45480, Note_on_c, 5, 57, 95
7, 45480, Pitch_bend_c, 5, 10240
7, 45672, Pitch_bend_c, 5, 9856
7, 45688, Pitch_bend_c, 5, 9216
7, 45704, Pitch_bend_c, 5, 8832
7, 45720, Pitch_bend_c, 5, 8192
7, 45840, Note_off_c, 5, 57, 80
7, 45840, Pitch_bend_c, 5, 8192
7, 45840, Note_on_c, 4, 60, 95
7, 45960, Note_off_c, 4, 60, 80
7, 45960, Note_on_c, 4, 60, 95
7, 46320, Note_off_c, 4, 60, 80
7, 46320, Note_on_c, 5, 60, 95
7, 46320, Pitch_bend_c, 5, 8192
7, 46384, Pitch_bend_c, 5, 8320
7, 46400, Pitch_bend_c, 5, 8704
7, 46416, Pitch_bend_c, 5, 9088
7, 46432, Pitch_bend_c, 5, 9344
7, 46448, Pitch_bend_c, 5, 9600
7, 46560, Note_off_c, 5, 60, 80
7, 46560, Pitch_bend_c, 5, 8192
7, 46920, Note_on_c, 4, 58, 95
7, 47040, Note_off_c, 4, 58, 80
7, 47040, Note_on_c, 4, 63, 95
7, 47160, Note_off_c, 4, 63, 80
7, 47160, Note_on_c, 4, 63, 95
7, 47400, Note_off_c, 4, 63, 80
7, 47400, Note_on_c, 4, 63, 95
7, 47640, Note_off_c, 4, 63, 80
7, 47640, Note_on_c, 4, 65, 95
7, 47880, Note_off_c, 4, 65, 80
7, 47880, Note_on_c, 5, 65, 95
7, 47880, Pitch_bend_c, 5, 8192
7, 47944, Pitch_bend_c, 5, 8320
7, 47960, Pitch_bend_c, 5, 8704
7, 47976, Pitch_bend_c, 5, 8960
7, 47992, Pitch_bend_c, 5, 9344
7, 48008, Pitch_bend_c, 5, 9600
7, 48120, Note_off_c, 5, 65, 80
7, 48120, Pitch_bend_c, 5, 8192
7, 48120, Note_on_c, 4, 65, 95
7, 48360, Note_off_c, 4, 65, 80
7, 48840, Note_on_c, 4, 53, 95
7, 48960, Note_off_c, 4, 53, 80
7, 48960, Note_on_c, 4, 61, 95
7, 49080, Note_off_c, 4, 61, 80
7, 49080, Note_on_c, 4, 61, 95
7, 49320, Note_off_c, 4, 61, 80
7, 49320, Note_on_c, 4, 61, 95
7, 49680, Note_off_c, 4, 61, 80
7, 50640, Note_on_c, 5, 60, 95
7, 50640, Pitch_bend_c, 5, 8192
7, 50704, Pitch_bend_c, 5, 8320
7, 50720, Pitch_bend_c, 5, 8704
7, 50736, Pitch_bend_c, 5, 8960
7, 50752, Pitch_bend_c, 5, 9344
7, 50768, Pitch_bend_c, 5, 9600
7, 50880, Note_off_c, 5, 60, 80
7, 50880, Pitch_bend_c, 5, 8192
7, 50880, Note_on_c, 4, 62, 95
7, 51000, Note_off_c, 4, 62, 80
7, 51000, Note_on_c, 4, 60, 95
7, 51240, Note_off_c, 4, 60, 80
7, 51240, Note_on_c, 5, 60, 95
7, 51240, Pitch_bend_c, 5, 8192
7, 51352, Pitch_bend_c, 5, 8448
7, 51368, Pitch_bend_c, 5, 8704
7, 51384, Pitch_bend_c, 5, 8960
7, 51400, Pitch_bend_c, 5, 9216
7, 51416, Pitch_bend_c, 5, 9472
7, 51432, Pitch_bend_c, 5, 9600
7, 51600, Note_off_c, 5, 60, 80
7, 51600, Pitch_bend_c, 5, 8192
7, 51600, Note_on_c, 4, 60, 95
7, 52800, Note_off_c, 4, 60, 80
7, 61080, Note_on_c, 4, 60, 95
7, 61200, Note_off_c, 4, 60, 80
7, 61200, Note_on_c, 4, 62, 95
7, 61320, Note_off_c, 4, 62, 80
7, 61320, Note_on_c, 5, 60, 95
7, 61320, Pitch_bend_c, 5, 8192
7, 61448, Pitch_bend_c, 5, 8320
7, 61464, Pitch_bend_c, 5, 8448
7, 61480, Pitch_bend_c, 5, 8704
7, 61496, Pitch_bend_c, 5, 8832
7, 61512, Pitch_bend_c, 5, 8960
7, 61528, Pitch_bend_c, 5, 9216
7, 61544, Pitch_bend_c, 5, 9344
7, 61560, Pitch_bend_c, 5, 9600
7, 61800, Note_off_c, 5, 60, 80
7, 61800, Pitch_bend_c, 5, 8192
7, 61800, Note_on_c, 5, 57, 95
7, 61800, Pitch_bend_c, 5, 10240
7, 62120, Pitch_bend_c, 5, 9856
7, 62136, Pitch_bend_c, 5, 9472
7, 62152, Pitch_bend_c, 5, 9216
7, 62168, Pitch_bend_c, 5, 8832
7, 62184, Pitch_bend_c, 5, 8576
7, 62200, Pitch_bend_c, 5, 8192
7, 62400, Note_off_c, 5, 57, 80
7, 62400, Pitch_bend_c, 5, 8192
7, 63240, Note_on_c, 4, 58, 95
7, 63360, Note_off_c, 4, 58, 80
7, 63360, Note_on_c, 4, 63, 95
7, 63480, Note_off_c, 4, 63, 80
7, 63480, Note_on_c, 4, 63, 95
7, 63720, Note_off_c, 4, 63, 80
7, 63720, Note_on_c, 4, 63, 95
7, 63960, Note_off_c, 4, 63, 80
7, 63960, Note_on_c, 5, 63, 95
7, 63960, Pitch_bend_c, 5, 8192
7, 64088, Pitch_bend_c, 5, 8320
7, 64104, Pitch_bend_c, 5, 8704
7, 64120, Pitch_bend_c, 5, 9088
7, 64136, Pitch_bend_c, 5, 9472
7, 64152, Pitch_bend_c, 5, 9600
7, 64200, Note_off_c, 5, 63, 80
7, 64200, Pitch_bend_c, 5, 8192
7, 64200, Note_on_c, 4, 65, 95
7, 64680, Note_off_c, 4, 65, 80
7, 65880, Note_on_c, 5, 63, 95
7, 65880, Pitch_bend_c, 5, 8192
7, 66008, Pitch_bend_c, 5, 8320
7, 66024, Pitch_bend_c, 5, 8704
7, 66040, Pitch_bend_c, 5, 9088
7, 66056, Pitch_bend_c, 5, 9472
7, 66072, Pitch_bend_c, 5, 9600
7, 66120, Note_off_c, 5, 63, 80
7, 66120, Pitch_bend_c, 5, 8192
7, 66120, Note_on_c, 4, 67, 95
7, 66360, Note_off_c, 4, 67, 80
7, 66360, Note_on_c, 4, 65, 95
7, 66600, Note_off_c, 4, 65, 80
7, 66600, Note_on_c, 5, 58, 95
7, 66600, Pitch_bend_c, 5, 11648
7, 66792, Pitch_bend_c, 5, 11136
7, 66808, Pitch_bend_c, 5, 10496
7, 66824, Pitch_bend_c, 5, 9984
7, 66840, Pitch_bend_c, 5, 9344
7, 66856, Pitch_bend_c, 5, 8704
7, 66872, Pitch_bend_c, 5, 8192
7, 66960, Note_off_c, 5, 58, 80
7, 66960, Pitch_bend_c, 5, 8192
7, 67080, Note_on_c, 4, 58, 95
7, 67200, Note_off_c, 4, 58, 80
7, 67200, Note_on_c, 4, 63, 95
7, 67320, Note_off_c, 4, 63, 80
7, 67320, Note_on_c, 4, 63, 95
7, 67560, Note_off_c, 4, 63, 80
7, 67560, Note_on_c, 4, 63, 95
7, 67800, Note_off_c, 4, 63, 80
7, 67800, Note_on_c, 5, 63, 95
7, 67800, Pitch_bend_c, 5, 8192
7, 67928, Pitch_bend_c, 5, 8320
7, 67944, Pitch_bend_c, 5, 8704
7, 67960, Pitch_bend_c, 5, 9088
7, 67976, Pitch_bend_c, 5, 9472
7, 67992, Pitch_bend_c, 5, 9600
7, 68040, Note_off_c, 5, 63, 80
7, 68040, Pitch_bend_c, 5, 8192
7, 68040, Note_on_c, 4, 65, 95
7, 68160, Note_off_c, 4, 65, 80
7, 101760, Note_on_c, 4, 72, 95
7, 101760, Note_on_c, 4, 64, 95
7, 101880, Note_off_c, 4, 72, 80
7, 101880, Note_off_c, 4, 64, 80
7, 101880, Note_on_c, 4, 69, 95
7, 101880, Note_on_c, 4, 62, 95
7, 102120, Note_off_c, 4, 69, 80
7, 102120, Note_off_c, 4, 62, 80
7, 102120, Note_on_c, 4, 67, 95
7, 102120, Note_on_c, 4, 60, 95
7, 102360, Note_off_c, 4, 67, 80
7, 102360, Note_off_c, 4, 60, 80
7, 102360, Note_on_c, 5, 67, 95
7, 102360, Pitch_bend_c, 5, 8192
7, 102360, Note_on_c, 5, 60, 95
7, 102360, Pitch_bend_c, 5, 8192
7, 102424, Pitch_bend_c, 5, 8320
7, 102424, Pitch_bend_c, 5, 8320
7, 102440, Pitch_bend_c, 5, 8704
7, 102440, Pitch_bend_c, 5, 8704
7, 102456, Pitch_bend_c, 5, 8960
7, 102456, Pitch_bend_c, 5, 8960
7, 102472, Pitch_bend_c, 5, 9344
7, 102472, Pitch_bend_c, 5, 9344
7, 102488, Pitch_bend_c, 5, 9600
7, 102488, Pitch_bend_c, 5, 9600
7, 102600, Note_off_c, 5, 67, 80
7, 102600, Pitch_bend_c, 5, 8192
7, 102600, Note_off_c, 5, 60, 80
7, 102600, Pitch_bend_c, 5, 8192
7, 105600, Note_on_c, 4, 72, 95
7, 105600, Note_on_c, 4, 64, 95
7, 105720, Note_off_c, 4, 72, 80
7, 105720, Note_off_c, 4, 64, 80
7, 105720, Note_on_c, 4, 69, 95
7, 105720, Note_on_c, 4, 62, 95
7, 105960, Note_off_c, 4, 69, 80
7, 105960, Note_off_c, 4, 62, 80
7, 105960, Note_on_c, 4, 67, 95
7, 105960, Note_on_c, 4, 60, 95
7, 106200, Note_off_c, 4, 67, 80
7, 106200, Note_off_c, 4, 60, 80
7, 106200, Note_on_c, 5, 67, 95
7, 106200, Pitch_bend_c, 5, 8192
7, 106200, Note_on_c, 5, 60, 95
7, 106200, Pitch_bend_c, 5, 8192
7, 106264, Pitch_bend_c, 5, 8320
7, 106264, Pitch_bend_c, 5, 8320
7, 106280, Pitch_bend_c, 5, 8704
7, 106280, Pitch_bend_c, 5, 8704
7, 106296, Pitch_bend_c, 5, 8960
7, 106296, Pitch_bend_c, 5, 8960
7, 106312, Pitch_bend_c, 5, 9344
7, 106312, Pitch_bend_c, 5, 9344
7, 106328, Pitch_bend_c, 5, 9600
7, 106328, Pitch_bend_c, 5, 9600
7, 106440, Note_off_c, 5, 67, 80
7, 106440, Pitch_bend_c, 5, 8192
7, 106440, Note_off_c, 5, 60, 80
7, 106440, Pitch_bend_c, 5, 8192
7, 109440, Note_on_c, 4, 72, 95
7, 109440, Note_on_c, 4, 64, 95
7, 109560, Note_off_c, 4, 72, 80
7, 109560, Note_off_c, 4, 64, 80
7, 109560, Note_on_c, 4, 69, 95
7, 109560, Note_on_c, 4, 62, 95
7, 109800, Note_off_c, 4, 69, 80
7, 109800, Note_off_c, 4, 62, 80
7, 109800, Note_on_c, 4, 67, 95
7, 109800, Note_on_c, 4, 60, 95
7, 110040, Note_off_c, 4, 67, 80
7, 110040, Note_off_c, 4, 60, 80
7, 110040, Note_on_c, 5, 67, 95
7, 110040, Pitch_bend_c, 5, 8192
7, 110040, Note_on_c, 5, 60, 95
7, 110040, Pitch_bend_c, 5, 8192
7, 110104, Pitch_bend_c, 5, 8320
7, 110104, Pitch_bend_c, 5, 8320
7, 110120, Pitch_bend_c, 5, 8704
7, 110120, Pitch_bend_c, 5, 8704
7, 110136, Pitch_bend_c, 5, 8960
7, 110136, Pitch_bend_c, 5, 8960
7, 110152, Pitch_bend_c, 5, 9344
7, 110152, Pitch_bend_c, 5, 9344
7, 110168, Pitch_bend_c, 5, 9600
7, 110168, Pitch_bend_c, 5, 9600
7, 110280, Note_off_c, 5, 67, 80
7, 110280, Pitch_bend_c, 5, 8192
7, 110280, Note_off_c, 5, 60, 80
7, 110280, Pitch_bend_c, 5, 8192
7, 113280, Note_on_c, 4, 72, 95
7, 113280, Note_on_c, 4, 64, 95
7, 113400, Note_off_c, 4, 72, 80
7, 113400, Note_off_c, 4, 64, 80
7, 113400, Note_on_c, 4, 69, 95
7, 113400, Note_on_c, 4, 62, 95
7, 113640, Note_off_c, 4, 69, 80
7, 113640, Note_off_c, 4, 62, 80
7, 113640, Note_on_c, 4, 67, 95
7, 113640, Note_on_c, 4, 60, 95
7, 113880, Note_off_c, 4, 67, 80
7, 113880, Note_off_c, 4, 60, 80
7, 113880, Note_on_c, 5, 67, 95
7, 113880, Pitch_bend_c, 5, 8192
7, 113880, Note_on_c, 5, 60, 95
7, 113880, Pitch_bend_c, 5, 8192
7, 113944, Pitch_bend_c, 5, 8320
7, 113944, Pitch_bend_c, 5, 8320
7, 113960, Pitch_bend_c, 5, 8704
7, 113960, Pitch_bend_c, 5, 8704
7, 113976, Pitch_bend_c, 5, 8960
7, 113976, Pitch_bend_c, 5, 8960
7, 113992, Pitch_bend_c, 5, 9344
7, 113992, Pitch_bend_c, 5, 9344
7, 114008, Pitch_bend_c, 5, 9600
7, 114008, Pitch_bend_c, 5, 9600
7, 114120, Note_off_c, 5, 67, 80
7, 114120, Pitch_bend_c, 5, 8192
7, 114120, Note_off_c, 5, 60, 80
7, 114120, Pitch_bend_c, 5, 8192
7, 117120, Note_on_c, 4, 72, 95
7, 117120, Note_on_c, 4, 64, 95
7, 117240, Note_off_c, 4, 72, 80
7, 117240, Note_off_c, 4, 64, 80
7, 117240, Note_on_c, 4, 69, 95
7, 117240, Note_on_c, 4, 62, 95
7, 117480, Note_off_c, 4, 69, 80
7, 117480, Note_off_c, 4, 62, 80
7, 117480, Note_on_c, 4, 67, 95
7, 117480, Note_on_c, 4, 60, 95
7, 117720, Note_off_c, 4, 67, 80
7, 117720, Note_off_c, 4, 60, 80
7, 117720, Note_on_c, 5, 67, 95
7, 117720, Pitch_bend_c, 5, 8192
7, 117720, Note_on_c, 5, 60, 95
7, 117720, Pitch_bend_c, 5, 8192
7, 117784, Pitch_bend_c, 5, 8320
7, 117784, Pitch_bend_c, 5, 8320
7, 117800, Pitch_bend_c, 5, 8704
7, 117800, Pitch_bend_c, 5, 8704
7, 117816, Pitch_bend_c, 5, 8960
7, 117816, Pitch_bend_c, 5, 8960
7, 117832, Pitch_bend_c, 5, 9344
7, 117832, Pitch_bend_c, 5, 9344
7, 117848, Pitch_bend_c, 5, 9600
7, 117848, Pitch_bend_c, 5, 9600
7, 117960, Note_off_c, 5, 67, 80
7, 117960, Pitch_bend_c, 5, 8192
7, 117960, Note_off_c, 5, 60, 80
7, 117960, Pitch_bend_c, 5, 8192
7, 120480, Note_on_c, 4, 72, 95
7, 120480, Note_on_c, 4, 64, 95
7, 120600, Note_off_c, 4, 72, 80
7, 120600, Note_off_c, 4, 64, 80
7, 120600, Note_on_c, 4, 69, 95
7, 120600, Note_on_c, 4, 62, 95
7, 120840, Note_off_c, 4, 69, 80
7, 120840, Note_off_c, 4, 62, 80
7, 120840, Note_on_c, 4, 67, 95
7, 120840, Note_on_c, 4, 60, 95
7, 121080, Note_off_c, 4, 67, 80
7, 121080, Note_off_c, 4, 60, 80
7, 121080, Note_on_c, 5, 67, 95
7, 121080, Pitch_bend_c, 5, 8192
7, 121080, Note_on_c, 5, 60, 95
7, 121080, Pitch_bend_c, 5, 8192
7, 121144, Pitch_bend_c, 5, 8320
7, 121144, Pitch_bend_c, 5, 8320
7, 121160, Pitch_bend_c, 5, 8704
7, 121160, Pitch_bend_c, 5, 8704
7, 121176, Pitch_bend_c, 5, 8960
7, 121176, Pitch_bend_c, 5, 8960
7, 121192, Pitch_bend_c, 5, 9344
7, 121192, Pitch_bend_c, 5, 9344
7, 121208, Pitch_bend_c, 5, 9600
7, 121208, Pitch_bend_c, 5, 9600
7, 121320, Note_off_c, 5, 67, 80
7, 121320, Pitch_bend_c, 5, 8192
7, 121320, Note_off_c, 5, 60, 80
7, 121320, Pitch_bend_c, 5, 8192
7, 121320, End_track
8, 0, Start_track
8, 0, Title_t, "Vocals2"
8, 0, Control_c, 6, 100, 0
8, 0, Control_c, 6, 101, 0
8, 0, Control_c, 6, 6, 12
8, 0, Pitch_bend_c, 6, 8192
8, 0, Control_c, 7, 100, 0
8, 0, Control_c, 7, 101, 0
8, 0, Control_c, 7, 6, 12
8, 0, Pitch_bend_c, 7, 8192
8, 0, Program_c, 6, 81
8, 0, Program_c, 7, 81
8, 0, Control_c, 6, 7, 104
8, 0, Control_c, 7, 7, 104
8, 0, Control_c, 6, 10, 32
8, 0, Control_c, 7, 10, 32
8, 0, Control_c, 6, 93, 0
8, 0, Control_c, 7, 93, 0
8, 0, Control_c, 6, 91, 0
8, 0, Control_c, 7, 91, 0
8, 0, Control_c, 6, 92, 0
8, 0, Control_c, 7, 92, 0
8, 0, Control_c, 6, 95, 0
8, 0, Control_c, 7, 95, 0
8, 19920, Note_on_c, 6, 62, 95
8, 20040, Note_off_c, 6, 62, 80
8, 20040, Note_on_c, 6, 65, 95
8, 20160, Note_off_c, 6, 65, 80
8, 20160, Note_on_c, 6, 67, 95
8, 20400, Note_off_c, 6, 67, 80
8, 20400, Note_on_c, 7, 67, 95
8, 20400, Pitch_bend_c, 7, 8192
8, 20528, Pitch_bend_c, 7, 8576
8, 20544, Pitch_bend_c, 7, 9216
8, 20560, Pitch_bend_c, 7, 9600
8, 20736, Pitch_bend_c, 7, 8960
8, 20752, Pitch_bend_c, 7, 8448
8, 20768, Pitch_bend_c, 7, 8192
8, 20880, Note_off_c, 7, 67, 80
8, 20880, Pitch_bend_c, 7, 8192
8, 20880, Note_on_c, 7, 65, 95
8, 20880, Pitch_bend_c, 7, 9600
8, 21008, Pitch_bend_c, 7, 9344
8, 21024, Pitch_bend_c, 7, 8704
8, 21040, Pitch_bend_c, 7, 8192
8, 21120, Note_off_c, 7, 65, 80
8, 21120, Pitch_bend_c, 7, 8192
8, 21360, Note_on_c, 6, 70, 95
8, 21480, Note_off_c, 6, 70, 80
8, 21600, Note_on_c, 6, 70, 95
8, 21720, Note_off_c, 6, 70, 80
8, 21840, Note_on_c, 7, 67, 95
8, 21840, Pitch_bend_c, 7, 10240
8, 21968, Pitch_bend_c, 7, 9984
8, 21984, Pitch_bend_c, 7, 9472
8, 22000, Pitch_bend_c, 7, 8832
8, 22016, Pitch_bend_c, 7, 8320
8, 22032, Pitch_bend_c, 7, 8192
8, 22080, Note_off_c, 7, 67, 80
8, 22080, Pitch_bend_c, 7, 8192
8, 22560, Note_on_c, 6, 64, 95
8, 22680, Note_off_c, 6, 64, 80
8, 22680, Note_on_c, 6, 67, 95
8, 22800, Note_off_c, 6, 67, 80
8, 22800, Note_on_c, 6, 67, 95
8, 22920, Note_off_c, 6, 67, 80
8, 22920, Note_on_c, 6, 64, 95
8, 23040, Note_off_c, 6, 64, 80
8, 23040, Note_on_c, 7, 64, 95
8, 23040, Pitch_bend_c, 7, 10240
8, 23168, Pitch_bend_c, 7, 9984
8, 23184, Pitch_bend_c, 7, 9472
8, 23200, Pitch_bend_c, 7, 8832
8, 23216, Pitch_bend_c, 7, 8320
8, 23232, Pitch_bend_c, 7, 8192
8, 23280, Note_off_c, 7, 64, 80
8, 23280, Pitch_bend_c, 7, 8192
8, 23280, Note_on_c, 7, 64, 95
8, 23280, Pitch_bend_c, 7, 11648
8, 23536, Pitch_bend_c, 7, 11136
8, 23552, Pitch_bend_c, 7, 10752
8, 23568, Pitch_bend_c, 7, 10240
8, 23584, Pitch_bend_c, 7, 9728
8, 23600, Pitch_bend_c, 7, 9344
8, 23616, Pitch_bend_c, 7, 8832
8, 23632, Pitch_bend_c, 7, 8448
8, 23648, Pitch_bend_c, 7, 8192
8, 23760, Note_off_c, 7, 64, 80
8, 23760, Pitch_bend_c, 7, 8192
8, 24000, Note_on_c, 7, 69, 95
8, 24000, Pitch_bend_c, 7, 8192
8, 24064, Pitch_bend_c, 7, 8320
8, 24080, Pitch_bend_c, 7, 8576
8, 24096, Pitch_bend_c, 7, 8832
8, 24360, Note_off_c, 7, 69, 80
8, 24360, Pitch_bend_c, 7, 8192
8, 24360, Note_on_c, 6, 69, 95
8, 24480, Note_off_c, 6, 69, 80
8, 24480, Note_on_c, 6, 67, 95
8, 24840, Note_off_c, 6, 67, 80
8, 24840, Note_on_c, 6, 72, 95
8, 24960, Note_off_c, 6, 72, 80
8, 24960, Note_on_c, 7, 67, 95
8, 24960, Pitch_bend_c, 7, 8192
8, 25056, Pitch_bend_c, 7, 8320
8, 25072, Pitch_bend_c, 7, 8576
8, 25088, Pitch_bend_c, 7, 8704
8, 25104, Pitch_bend_c, 7, 8960
8, 25120, Pitch_bend_c, 7, 9344
8, 25136, Pitch_bend_c, 7, 9472
8, 25152, Pitch_bend_c, 7, 9600
8, 25320, Note_off_c, 7, 67, 80
8, 25320, Pitch_bend_c, 7, 8192
8, 25320, Note_on_c, 6, 67, 95
8, 25440, Note_off_c, 6, 67, 80
8, 25440, Note_on_c, 6, 65, 95
8, 25680, Note_off_c, 6, 65, 80
8, 25680, Note_on_c, 7, 67, 95
8, 25680, Pitch_bend_c, 7, 8192
8, 25744, Pitch_bend_c, 7, 8320
8, 25760, Pitch_bend_c, 7, 8704
8, 25776, Pitch_bend_c, 7, 8960
8, 25792, Pitch_bend_c, 7, 9344
8, 25808, Pitch_bend_c, 7, 9600
8, 25920, Note_off_c, 7, 67, 80
8, 25920, Pitch_bend_c, 7, 8192
8, 25920, Note_on_c, 6, 67, 95
8, 26160, Note_off_c, 6, 67, 80
8, 26160, Note_on_c, 6, 67, 95
8, 26280, Note_off_c, 6, 67, 80
8, 26280, Note_on_c, 6, 67, 95
8, 26400, Note_off_c, 6, 67, 80
8, 26400, Note_on_c, 6, 67, 95
8, 26520, Note_off_c, 6, 67, 80
8, 26580, Note_on_c, 6, 67, 95
8, 26700, Note_off_c, 6, 67, 80
8, 26760, Note_on_c, 6, 67, 95
8, 26880, Note_off_c, 6, 67, 80
8, 26880, Note_on_c, 6, 67, 95
8, 27060, Note_off_c, 6, 67, 80
8, 27480, Note_on_c, 6, 65, 95
8, 27600, Note_off_c, 6, 65, 80
8, 27600, Note_on_c, 6, 65, 95
8, 27720, Note_off_c, 6, 65, 80
8, 27720, Note_on_c, 7, 60, 95
8, 27720, Pitch_bend_c, 7, 11648
8, 27976, Pitch_bend_c, 7, 11392
8, 27992, Pitch_bend_c, 7, 11264
8, 28008, Pitch_bend_c, 7, 10880
8, 28024, Pitch_bend_c, 7, 10752
8, 28040, Pitch_bend_c, 7, 10368
8, 28056, Pitch_bend_c, 7, 10112
8, 28072, Pitch_bend_c, 7, 9856
8, 28088, Pitch_bend_c, 7, 9600
8, 28104, Pitch_bend_c, 7, 9344
8, 28120, Pitch_bend_c, 7, 9088
8, 28136, Pitch_bend_c, 7, 8704
8, 28152, Pitch_bend_c, 7, 8576
8, 28168, Pitch_bend_c, 7, 8192
8, 28320, Note_off_c, 7, 60, 80
8, 28320, Pitch_bend_c, 7, 8192
8, 39720, Control_c, 6, 7, 64
8, 39720, Control_c, 7, 7, 64
8, 39720, Note_on_c, 7, 65, 95
8, 39720, Pitch_bend_c, 7, 8192
8, 39784, Pitch_bend_c, 7, 8320
8, 39800, Pitch_bend_c, 7, 8704
8, 39816, Pitch_bend_c, 7, 8960
8, 39832, Pitch_bend_c, 7, 9344
8, 39848, Pitch_bend_c, 7, 9600
8, 39960, Note_off_c, 7, 65, 80
8, 39960, Pitch_bend_c, 7, 8192
8, 39960, Note_on_c, 6, 65, 95
8, 40080, Note_off_c, 6, 65, 80
8, 40080, Note_on_c, 6, 64, 95
8, 40320, Note_off_c, 6, 64, 80
8, 40800, Note_on_c, 6, 64, 95
8, 41040, Note_off_c, 6, 64, 80
8, 41040, Note_on_c, 6, 60, 95
8, 41160, Note_off_c, 6, 60, 80
8, 41160, Note_on_c, 6, 64, 95
8, 41400, Note_off_c, 6, 64, 80
8, 41520, Note_on_c, 6, 64, 95
8, 41640, Note_off_c, 6, 64, 80
8, 41640, Note_on_c, 6, 60, 95
8, 41880, Note_off_c, 6, 60, 80
8, 41880, Note_on_c, 6, 64, 95
8, 42000, Note_off_c, 6, 64, 80
8, 42000, Note_on_c, 6, 60, 95
8, 42240, Note_off_c, 6, 60, 80
8, 42240, Note_on_c, 6, 65, 95
8, 42840, Note_off_c, 6, 65, 80
8, 42840, Note_on_c, 6, 67, 95
8, 42960, Note_off_c, 6, 67, 80
8, 42960, Note_on_c, 6, 69, 95
8, 43200, Note_off_c, 6, 69, 80
8, 43200, Note_on_c, 6, 67, 95
8, 43680, Note_off_c, 6, 67, 80
8, 44760, Note_on_c, 6, 65, 95
8, 44880, Note_off_c, 6, 65, 80
8, 44880, Note_on_c, 6, 65, 95
8, 45000, Note_off_c, 6, 65, 80
8, 45000, Note_on_c, 6, 65, 95
8, 45360, Note_off_c, 6, 65, 80
8, 45360, Note_on_c, 6, 65, 95
8, 45480, Note_off_c, 6, 65, 80
8, 45480, Note_on_c, 6, 65, 95
8, 45840, Note_off_c, 6, 65, 80
8, 45960, Note_on_c, 6, 63, 95
8, 46320, Note_off_c, 6, 63, 80
8, 46320, Note_on_c, 7, 63, 95
8, 46320, Pitch_bend_c, 7, 8192
8, 46384, Pitch_bend_c, 7, 8320
8, 46400, Pitch_bend_c, 7, 8704
8, 46416, Pitch_bend_c, 7, 8960
8, 46432, Pitch_bend_c, 7, 9344
8, 46448, Pitch_bend_c, 7, 9600
8, 46560, Note_off_c, 7, 63, 80
8, 46560, Pitch_bend_c, 7, 8192
8, 47040, Note_on_c, 6, 67, 95
8, 47160, Note_off_c, 6, 67, 80
8, 47160, Note_on_c, 6, 67, 95
8, 47400, Note_off_c, 6, 67, 80
8, 47400, Note_on_c, 6, 67, 95
8, 47640, Note_off_c, 6, 67, 80
8, 47640, Note_on_c, 6, 69, 95
8, 47880, Note_off_c, 6, 69, 80
8, 47880, Note_on_c, 6, 70, 95
8, 48360, Note_off_c, 6, 70, 80
8, 48840, Note_on_c, 6, 65, 95
8, 48960, Note_off_c, 6, 65, 80
8, 48960, Note_on_c, 6, 65, 95
8, 49080, Note_off_c, 6, 65, 80
8, 49080, Note_on_c, 6, 65, 95
8, 49320, Note_off_c, 6, 65, 80
8, 49320, Note_on_c, 6, 65, 95
8, 49680, Note_off_c, 6, 65, 80
8, 50640, Note_on_c, 6, 65, 95
8, 50880, Note_off_c, 6, 65, 80
8, 50880, Note_on_c, 6, 65, 95
8, 51000, Note_off_c, 6, 65, 80
8, 51000, Note_on_c, 6, 64, 95
8, 51240, Note_off_c, 6, 64, 80
8, 51240, Note_on_c, 7, 64, 95
8, 51240, Pitch_bend_c, 7, 8192
8, 51352, Pitch_bend_c, 7, 8320
8, 51368, Pitch_bend_c, 7, 8448
8, 51384, Pitch_bend_c, 7, 8576
8, 51400, Pitch_bend_c, 7, 8704
8, 51416, Pitch_bend_c, 7, 8832
8, 51600, Note_off_c, 7, 64, 80
8, 51600, Pitch_bend_c, 7, 8192
8, 51600, Note_on_c, 6, 64, 95
8, 52560, Note_off_c, 6, 64, 80
8, 52560, Control_c, 6, 7, 104
8, 52560, Control_c, 7, 7, 104
8, 52560, Note_on_c, 6, 70, 95
8, 52680, Note_off_c, 6, 70, 80
8, 52680, Note_on_c, 6, 70, 95
8, 52800, Note_off_c, 6, 70, 80
8, 52800, Note_on_c, 7, 69, 95
8, 52800, Pitch_bend_c, 7, 8192
8, 52912, Pitch_bend_c, 7, 8320
8, 52928, Pitch_bend_c, 7, 8448
8, 52944, Pitch_bend_c, 7, 8576
8, 52960, Pitch_bend_c, 7, 8704
8, 52976, Pitch_bend_c, 7, 8832
8, 53160, Note_off_c, 7, 69, 80
8, 53160, Pitch_bend_c, 7, 8192
8, 53160, Note_on_c, 6, 70, 95
8, 53520, Note_off_c, 6, 70, 80
8, 53520, Note_on_c, 7, 68, 95
8, 53520, Pitch_bend_c, 7, 9600
8, 53648, Pitch_bend_c, 7, 9472
8, 53664, Pitch_bend_c, 7, 9088
8, 53680, Pitch_bend_c, 7, 8832
8, 53760, Note_off_c, 7, 68, 80
8, 53760, Pitch_bend_c, 7, 8192
8, 54000, Note_on_c, 6, 69, 95
8, 54120, Note_off_c, 6, 69, 80
8, 54240, Note_on_c, 6, 69, 95
8, 54360, Note_off_c, 6, 69, 80
8, 54480, Note_on_c, 7, 66, 95
8, 54480, Pitch_bend_c, 7, 10240
8, 54608, Pitch_bend_c, 7, 10112
8, 54624, Pitch_bend_c, 7, 9728
8, 54640, Pitch_bend_c, 7, 9344
8, 54656, Pitch_bend_c, 7, 8960
8, 54672, Pitch_bend_c, 7, 8832
8, 54720, Note_off_c, 7, 66, 80
8, 54720, Pitch_bend_c, 7, 8192
8, 55200, Note_on_c, 6, 64, 95
8, 55320, Note_off_c, 6, 64, 80
8, 55320, Note_on_c, 6, 67, 95
8, 55440, Note_off_c, 6, 67, 80
8, 55440, Note_on_c, 6, 67, 95
8, 55560, Note_off_c, 6, 67, 80
8, 55560, Note_on_c, 6, 64, 95
8, 55680, Note_off_c, 6, 64, 80
8, 55680, Note_on_c, 7, 64, 95
8, 55680, Pitch_bend_c, 7, 10240
8, 55808, Pitch_bend_c, 7, 9984
8, 55824, Pitch_bend_c, 7, 9472
8, 55840, Pitch_bend_c, 7, 8832
8, 55856, Pitch_bend_c, 7, 8320
8, 55872, Pitch_bend_c, 7, 8192
8, 55920, Note_off_c, 7, 64, 80
8, 55920, Pitch_bend_c, 7, 8192
8, 55920, Note_on_c, 7, 64, 95
8, 55920, Pitch_bend_c, 7, 11648
8, 56176, Pitch_bend_c, 7, 11136
8, 56192, Pitch_bend_c, 7, 10752
8, 56208, Pitch_bend_c, 7, 10240
8, 56224, Pitch_bend_c, 7, 9728
8, 56240, Pitch_bend_c, 7, 9344
8, 56256, Pitch_bend_c, 7, 8832
8, 56272, Pitch_bend_c, 7, 8448
8, 56288, Pitch_bend_c, 7, 8192
8, 56400, Note_off_c, 7, 64, 80
8, 56400, Pitch_bend_c, 7, 8192
8, 56640, Note_on_c, 7, 69, 95
8, 56640, Pitch_bend_c, 7, 8192
8, 56704, Pitch_bend_c, 7, 8320
8, 56720, Pitch_bend_c, 7, 8576
8, 56736, Pitch_bend_c, 7, 8832
8, 57000, Note_off_c, 7, 69, 80
8, 57000, Pitch_bend_c, 7, 8192
8, 57000, Note_on_c, 6, 69, 95
8, 57120, Note_off_c, 6, 69, 80
8, 57120, Note_on_c, 6, 67, 95
8, 57480, Note_off_c, 6, 67, 80
8, 57480, Note_on_c, 6, 72, 95
8, 57600, Note_off_c, 6, 72, 80
8, 57600, Note_on_c, 7, 67, 95
8, 57600, Pitch_bend_c, 7, 8192
8, 57696, Pitch_bend_c, 7, 8320
8, 57712, Pitch_bend_c, 7, 8576
8, 57728, Pitch_bend_c, 7, 8704
8, 57744, Pitch_bend_c, 7, 8960
8, 57760, Pitch_bend_c, 7, 9344
8, 57776, Pitch_bend_c, 7, 9472
8, 57792, Pitch_bend_c, 7, 9600
8, 57960, Note_off_c, 7, 67, 80
8, 57960, Pitch_bend_c, 7, 8192
8, 57960, Note_on_c, 6, 67, 95
8, 58080, Note_off_c, 6, 67, 80
8, 58080, Note_on_c, 6, 65, 95
8, 58320, Note_off_c, 6, 65, 80
8, 58320, Note_on_c, 7, 67, 95
8, 58320, Pitch_bend_c, 7, 8192
8, 58384, Pitch_bend_c, 7, 8320
8, 58400, Pitch_bend_c, 7, 8704
8, 58416, Pitch_bend_c, 7, 8960
8, 58432, Pitch_bend_c, 7, 9344
8, 58448, Pitch_bend_c, 7, 9600
8, 58560, Note_off_c, 7, 67, 80
8, 58560, Pitch_bend_c, 7, 8192
8, 58560, Note_on_c, 6, 67, 95
8, 58800, Note_off_c, 6, 67, 80
8, 58800, Note_on_c, 6, 67, 95
8, 58920, Note_off_c, 6, 67, 80
8, 58920, Note_on_c, 6, 67, 95
8, 59040, Note_off_c, 6, 67, 80
8, 59040, Note_on_c, 6, 67, 95
8, 59160, Note_off_c, 6, 67, 80
8, 59220, Note_on_c, 6, 67, 95
8, 59340, Note_off_c, 6, 67, 80
8, 59400, Note_on_c, 6, 67, 95
8, 59520, Note_off_c, 6, 67, 80
8, 59520, Note_on_c, 6, 67, 95
8, 59640, Note_off_c, 6, 67, 80
8, 60120, Note_on_c, 6, 65, 95
8, 60240, Note_off_c, 6, 65, 80
8, 60240, Note_on_c, 6, 65, 95
8, 60360, Note_off_c, 6, 65, 80
8, 60360, Note_on_c, 7, 60, 95
8, 60360, Pitch_bend_c, 7, 11648
8, 60616, Pitch_bend_c, 7, 11392
8, 60632, Pitch_bend_c, 7, 11264
8, 60648, Pitch_bend_c, 7, 10880
8, 60664, Pitch_bend_c, 7, 10752
8, 60680, Pitch_bend_c, 7, 10368
8, 60696, Pitch_bend_c, 7, 10112
8, 60712, Pitch_bend_c, 7, 9856
8, 60728, Pitch_bend_c, 7, 9600
8, 60744, Pitch_bend_c, 7, 9344
8, 60760, Pitch_bend_c, 7, 9088
8, 60776, Pitch_bend_c, 7, 8704
8, 60792, Pitch_bend_c, 7, 8576
8, 60808, Pitch_bend_c, 7, 8192
8, 60960, Note_off_c, 7, 60, 80
8, 60960, Pitch_bend_c, 7, 8192
8, 67920, Note_on_c, 6, 70, 95
8, 68040, Note_off_c, 6, 70, 80
8, 68040, Note_on_c, 6, 70, 95
8, 68160, Note_off_c, 6, 70, 80
8, 68160, Note_on_c, 7, 69, 95
8, 68160, Pitch_bend_c, 7, 8192
8, 68272, Pitch_bend_c, 7, 8320
8, 68288, Pitch_bend_c, 7, 8448
8, 68304, Pitch_bend_c, 7, 8576
8, 68320, Pitch_bend_c, 7, 8704
8, 68336, Pitch_bend_c, 7, 8832
8, 68520, Note_off_c, 7, 69, 80
8, 68520, Pitch_bend_c, 7, 8192
8, 68520, Note_on_c, 6, 70, 95
8, 68880, Note_off_c, 6, 70, 80
8, 68880, Note_on_c, 7, 68, 95
8, 68880, Pitch_bend_c, 7, 9600
8, 69008, Pitch_bend_c, 7, 9472
8, 69024, Pitch_bend_c, 7, 9088
8, 69040, Pitch_bend_c, 7, 8832
8, 69120, Note_off_c, 7, 68, 80
8, 69120, Pitch_bend_c, 7, 8192
8, 69360, Note_on_c, 6, 69, 95
8, 69480, Note_off_c, 6, 69, 80
8, 69600, Note_on_c, 6, 69, 95
8, 69720, Note_off_c, 6, 69, 80
8, 69840, Note_on_c, 7, 66, 95
8, 69840, Pitch_bend_c, 7, 10240
8, 69968, Pitch_bend_c, 7, 10112
8, 69984, Pitch_bend_c, 7, 9728
8, 70000, Pitch_bend_c, 7, 9344
8, 70016, Pitch_bend_c, 7, 8960
8, 70032, Pitch_bend_c, 7, 8832
8, 70080, Note_off_c, 7, 66, 80
8, 70080, Pitch_bend_c, 7, 8192
8, 70560, Note_on_c, 6, 64, 95
8, 70680, Note_off_c, 6, 64, 80
8, 70680, Note_on_c, 6, 67, 95
8, 70800, Note_off_c, 6, 67, 80
8, 70800, Note_on_c, 6, 67, 95
8, 70920, Note_off_c, 6, 67, 80
8, 70920, Note_on_c, 6, 64, 95
8, 71040, Note_off_c, 6, 64, 80
8, 71040, Note_on_c, 7, 64, 95
8, 71040, Pitch_bend_c, 7, 10240
8, 71168, Pitch_bend_c, 7, 9984
8, 71184, Pitch_bend_c, 7, 9472
8, 71200, Pitch_bend_c, 7, 8832
8, 71216, Pitch_bend_c, 7, 8320
8, 71232, Pitch_bend_c, 7, 8192
8, 71280, Note_off_c, 7, 64, 80
8, 71280, Pitch_bend_c, 7, 8192
8, 71280, Note_on_c, 7, 64, 95
8, 71280, Pitch_bend_c, 7, 11648
8, 71536, Pitch_bend_c, 7, 11136
8, 71552, Pitch_bend_c, 7, 10752
8, 71568, Pitch_bend_c, 7, 10240
8, 71584, Pitch_bend_c, 7, 9728
8, 71600, Pitch_bend_c, 7, 9344
8, 71616, Pitch_bend_c, 7, 8832
8, 71632, Pitch_bend_c, 7, 8448
8, 71648, Pitch_bend_c, 7, 8192
8, 71760, Note_off_c, 7, 64, 80
8, 71760, Pitch_bend_c, 7, 8192
8, 72000, Note_on_c, 7, 69, 95
8, 72000, Pitch_bend_c, 7, 8192
8, 72064, Pitch_bend_c, 7, 8320
8, 72080, Pitch_bend_c, 7, 8576
8, 72096, Pitch_bend_c, 7, 8832
8, 72360, Note_off_c, 7, 69, 80
8, 72360, Pitch_bend_c, 7, 8192
8, 72360, Note_on_c, 6, 69, 95
8, 72480, Note_off_c, 6, 69, 80
8, 72480, Note_on_c, 6, 67, 95
8, 72840, Note_off_c, 6, 67, 80
8, 72840, Note_on_c, 6, 72, 95
8, 72960, Note_off_c, 6, 72, 80
8, 72960, Note_on_c, 7, 67, 95
8, 72960, Pitch_bend_c, 7, 8192
8, 73056, Pitch_bend_c, 7, 8320
8, 73072, Pitch_bend_c, 7, 8576
8, 73088, Pitch_bend_c, 7, 8704
8, 73104, Pitch_bend_c, 7, 8960
8, 73120, Pitch_bend_c, 7, 9344
8, 73136, Pitch_bend_c, 7, 9472
8, 73152, Pitch_bend_c, 7, 9600
8, 73320, Note_off_c, 7, 67, 80
8, 73320, Pitch_bend_c, 7, 8192
8, 73320, Note_on_c, 6, 67, 95
8, 73440, Note_off_c, 6, 67, 80
8, 73440, Note_on_c, 6, 65, 95
8, 73680, Note_off_c, 6, 65, 80
8, 73680, Note_on_c, 7, 67, 95
8, 73680, Pitch_bend_c, 7, 8192
8, 73744, Pitch_bend_c, 7, 8320
8, 73760, Pitch_bend_c, 7, 8704
8, 73776, Pitch_bend_c, 7, 8960
8, 73792, Pitch_bend_c, 7, 9344
8, 73808, Pitch_bend_c, 7, 9600
8, 73920, Note_off_c, 7, 67, 80
8, 73920, Pitch_bend_c, 7, 8192
8, 73920, Note_on_c, 6, 67, 95
8, 74160, Note_off_c, 6, 67, 80
8, 74160, Note_on_c, 6, 67, 95
8, 74280, Note_off_c, 6, 67, 80
8, 74280, Note_on_c, 6, 67, 95
8, 74400, Note_off_c, 6, 67, 80
8, 74400, Note_on_c, 6, 67, 95
8, 74520, Note_off_c, 6, 67, 80
8, 74580, Note_on_c, 6, 67, 95
8, 74700, Note_off_c, 6, 67, 80
8, 74760, Note_on_c, 6, 67, 95
8, 74880, Note_off_c, 6, 67, 80
8, 74880, Note_on_c, 6, 67, 95
8, 75000, Note_off_c, 6, 67, 80
8, 75480, Note_on_c, 6, 70, 95
8, 75600, Note_off_c, 6, 70, 80
8, 75600, Note_on_c, 6, 69, 95
8, 75720, Note_off_c, 6, 69, 80
8, 75720, Note_on_c, 7, 62, 95
8, 75720, Pitch_bend_c, 7, 11648
8, 75832, Pitch_bend_c, 7, 11392
8, 75848, Pitch_bend_c, 7, 10752
8, 75864, Pitch_bend_c, 7, 10496
8, 75880, Pitch_bend_c, 7, 10240
8, 76320, Note_off_c, 7, 62, 80
8, 76320, Pitch_bend_c, 7, 8192
8, 99360, Note_on_c, 6, 70, 95
8, 99480, Note_off_c, 6, 70, 80
8, 99480, Note_on_c, 6, 72, 95
8, 99600, Note_off_c, 6, 72, 80
8, 99600, Note_on_c, 6, 70, 95
8, 99720, Note_off_c, 6, 70, 80
8, 99720, Note_on_c, 6, 69, 95
8, 99960, Note_off_c, 6, 69, 80
8, 100440, Note_on_c, 6, 65, 95
8, 100560, Note_off_c, 6, 65, 80
8, 100560, Note_on_c, 6, 67, 95
8, 100680, Note_off_c, 6, 67, 80
8, 100680, Note_on_c, 6, 67, 95
8, 101040, Note_off_c, 6, 67, 80
8, 101040, Note_on_c, 7, 62, 95
8, 101040, Pitch_bend_c, 7, 8192
8, 101104, Pitch_bend_c, 7, 8320
8, 101120, Pitch_bend_c, 7, 8704
8, 101136, Pitch_bend_c, 7, 8960
8, 101152, Pitch_bend_c, 7, 9344
8, 101168, Pitch_bend_c, 7, 9600
8, 101280, Note_off_c, 7, 62, 80
8, 101280, Pitch_bend_c, 7, 8192
8, 102600, Note_on_c, 7, 69, 95
8, 102600, Pitch_bend_c, 7, 8192
8, 102712, Pitch_bend_c, 7, 8320
8, 102728, Pitch_bend_c, 7, 8448
8, 102744, Pitch_bend_c, 7, 8576
8, 102760, Pitch_bend_c, 7, 8704
8, 102776, Pitch_bend_c, 7, 8832
8, 102960, Note_off_c, 7, 69, 80
8, 102960, Pitch_bend_c, 7, 8192
8, 103320, Note_on_c, 6, 69, 95
8, 103440, Note_off_c, 6, 69, 80
8, 103440, Note_on_c, 6, 70, 95
8, 103560, Note_off_c, 6, 70, 80
8, 103560, Note_on_c, 6, 69, 95
8, 103800, Note_off_c, 6, 69, 80
8, 104280, Note_on_c, 6, 65, 95
8, 104400, Note_off_c, 6, 65, 80
8, 104400, Note_on_c, 6, 69, 95
8, 104520, Note_off_c, 6, 69, 80
8, 104520, Note_on_c, 6, 67, 95
8, 104760, Note_off_c, 6, 67, 80
8, 104760, Note_on_c, 6, 62, 95
8, 104880, Note_off_c, 6, 62, 80
8, 104880, Note_on_c, 6, 64, 95
8, 105120, Note_off_c, 6, 64, 80
8, 106440, Note_on_c, 6, 70, 95
8, 106680, Note_off_c, 6, 70, 80
8, 106680, Note_on_c, 6, 67, 95
8, 106800, Note_off_c, 6, 67, 80
8, 106800, Note_on_c, 6, 69, 95
8, 106920, Note_off_c, 6, 69, 80
8, 106920, Note_on_c, 6, 67, 95
8, 107040, Note_off_c, 6, 67, 80
8, 107040, Note_on_c, 6, 67, 95
8, 107160, Note_off_c, 6, 67, 80
8, 107160, Note_on_c, 6, 65, 95
8, 107280, Note_off_c, 6, 65, 80
8, 107400, Note_on_c, 6, 69, 95
8, 107640, Note_off_c, 6, 69, 80
8, 107640, Note_on_c, 6, 67, 95
8, 107760, Note_off_c, 6, 67, 80
8, 107760, Note_on_c, 6, 67, 95
8, 107880, Note_off_c, 6, 67, 80
8, 107880, Note_on_c, 6, 65, 95
8, 108000, Note_off_c, 6, 65, 80
8, 108000, Note_on_c, 7, 65, 95
8, 108000, Pitch_bend_c, 7, 8192
8, 108064, Pitch_bend_c, 7, 8320
8, 108080, Pitch_bend_c, 7, 8704
8, 108096, Pitch_bend_c, 7, 8960
8, 108112, Pitch_bend_c, 7, 9344
8, 108128, Pitch_bend_c, 7, 9600
8, 108240, Note_off_c, 7, 65, 80
8, 108240, Pitch_bend_c, 7, 8192
8, 108720, Note_on_c, 6, 65, 95
8, 108840, Note_off_c, 6, 65, 80
8, 108840, Note_on_c, 6, 65, 95
8, 108960, Note_off_c, 6, 65, 80
8, 108960, Note_on_c, 6, 65, 95
8, 109080, Note_off_c, 6, 65, 80
8, 109080, Note_on_c, 6, 67, 95
8, 109200, Note_off_c, 6, 67, 80
8, 109200, Note_on_c, 6, 69, 95
8, 109320, Note_off_c, 6, 69, 80
8, 109320, Note_on_c, 6, 67, 95
8, 109800, Note_off_c, 6, 67, 80
8, 110040, Note_on_c, 7, 70, 95
8, 110040, Pitch_bend_c, 7, 8192
8, 110088, Pitch_bend_c, 7, 8448
8, 110104, Pitch_bend_c, 7, 8960
8, 110120, Pitch_bend_c, 7, 9600
8, 110280, Note_off_c, 7, 70, 80
8, 110280, Pitch_bend_c, 7, 8192
8, 110280, Note_on_c, 7, 69, 95
8, 110280, Pitch_bend_c, 7, 8832
8, 110472, Pitch_bend_c, 7, 8704
8, 110488, Pitch_bend_c, 7, 8576
8, 110504, Pitch_bend_c, 7, 8448
8, 110520, Pitch_bend_c, 7, 8192
8, 110640, Note_off_c, 7, 69, 80
8, 110640, Pitch_bend_c, 7, 8192
8, 110640, Note_on_c, 7, 67, 95
8, 110640, Pitch_bend_c, 7, 9600
8, 110768, Pitch_bend_c, 7, 9344
8, 110784, Pitch_bend_c, 7, 8960
8, 110800, Pitch_bend_c, 7, 8704
8, 110816, Pitch_bend_c, 7, 8320
8, 110832, Pitch_bend_c, 7, 8192
8, 110880, Note_off_c, 7, 67, 80
8, 110880, Pitch_bend_c, 7, 8192
8, 110880, Note_on_c, 7, 65, 95
8, 110880, Pitch_bend_c, 7, 9600
8, 111008, Pitch_bend_c, 7, 9344
8, 111024, Pitch_bend_c, 7, 8960
8, 111040, Pitch_bend_c, 7, 8704
8, 111056, Pitch_bend_c, 7, 8320
8, 111072, Pitch_bend_c, 7, 8192
8, 111120, Note_off_c, 7, 65, 80
8, 111120, Pitch_bend_c, 7, 8192
8, 111240, Note_on_c, 7, 67, 95
8, 111240, Pitch_bend_c, 7, 9600
8, 111432, Pitch_bend_c, 7, 9344
8, 111448, Pitch_bend_c, 7, 9088
8, 111464, Pitch_bend_c, 7, 8960
8, 111480, Pitch_bend_c, 7, 8704
8, 111496, Pitch_bend_c, 7, 8320
8, 111512, Pitch_bend_c, 7, 8192
8, 111600, Note_off_c, 7, 67, 80
8, 111600, Pitch_bend_c, 7, 8192
8, 111600, Note_on_c, 7, 65, 95
8, 111600, Pitch_bend_c, 7, 9600
8, 111728, Pitch_bend_c, 7, 9344
8, 111744, Pitch_bend_c, 7, 8960
8, 111760, Pitch_bend_c, 7, 8704
8, 111776, Pitch_bend_c, 7, 8320
8, 111792, Pitch_bend_c, 7, 8192
8, 111840, Note_off_c, 7, 65, 80
8, 111840, Pitch_bend_c, 7, 8192
8, 111840, Note_on_c, 7, 65, 95
8, 111840, Pitch_bend_c, 7, 8192
8, 111904, Pitch_bend_c, 7, 8320
8, 111920, Pitch_bend_c, 7, 8704
8, 111936, Pitch_bend_c, 7, 8960
8, 111952, Pitch_bend_c, 7, 9344
8, 111968, Pitch_bend_c, 7, 9600
8, 112080, Note_off_c, 7, 65, 80
8, 112080, Pitch_bend_c, 7, 8192
8, 112560, Note_on_c, 6, 65, 95
8, 112680, Note_off_c, 6, 65, 80
8, 112680, Note_on_c, 6, 65, 95
8, 112800, Note_off_c, 6, 65, 80
8, 112800, Note_on_c, 6, 65, 95
8, 112920, Note_off_c, 6, 65, 80
8, 112920, Note_on_c, 6, 67, 95
8, 113040, Note_off_c, 6, 67, 80
8, 113040, Note_on_c, 6, 69, 95
8, 113160, Note_off_c, 6, 69, 80
8, 113160, Note_on_c, 6, 67, 95
8, 113640, Note_off_c, 6, 67, 80
8, 113880, Note_on_c, 6, 69, 95
8, 114120, Note_off_c, 6, 69, 80
8, 114120, Note_on_c, 6, 70, 95
8, 114840, Note_off_c, 6, 70, 80
8, 114840, Note_on_c, 6, 72, 95
8, 114960, Note_off_c, 6, 72, 80
8, 114960, Note_on_c, 6, 70, 95
8, 115200, Note_off_c, 6, 70, 80
8, 115200, Note_on_c, 6, 69, 95
8, 115800, Note_off_c, 6, 69, 80
8, 115800, Note_on_c, 6, 70, 95
8, 115920, Note_off_c, 6, 70, 80
8, 115920, Note_on_c, 6, 69, 95
8, 116160, Note_off_c, 6, 69, 80
8, 116160, Note_on_c, 7, 67, 95
8, 116240, Pitch_bend_c, 7, 8192
8, 116320, Pitch_bend_c, 7, 8448
8, 116400, Pitch_bend_c, 7, 8192
8, 116480, Pitch_bend_c, 7, 8448
8, 116560, Pitch_bend_c, 7, 8192
8, 116640, Pitch_bend_c, 7, 8448
8, 116720, Pitch_bend_c, 7, 8192
8, 116800, Pitch_bend_c, 7, 8448
8, 116880, Pitch_bend_c, 7, 8192
8, 116960, Pitch_bend_c, 7, 8448
8, 117040, Pitch_bend_c, 7, 8192
8, 117120, Pitch_bend_c, 7, 8448
8, 117200, Pitch_bend_c, 7, 8192
8, 117280, Pitch_bend_c, 7, 8448
8, 117360, Pitch_bend_c, 7, 8192
8, 117440, Pitch_bend_c, 7, 8448
8, 117520, Pitch_bend_c, 7, 8192
8, 117600, Pitch_bend_c, 7, 8448
8, 117680, Pitch_bend_c, 7, 8192
8, 117720, Note_off_c, 7, 67, 80
8, 117720, Pitch_bend_c, 7, 8192
8, 117720, Note_on_c, 6, 69, 95
8, 117960, Note_off_c, 6, 69, 80
8, 117960, Note_on_c, 6, 70, 95
8, 118680, Note_off_c, 6, 70, 80
8, 118680, Note_on_c, 6, 72, 95
8, 118800, Note_off_c, 6, 72, 80
8, 118800, Note_on_c, 6, 70, 95
8, 119040, Note_off_c, 6, 70, 80
8, 119040, Note_on_c, 6, 69, 95
8, 119640, Note_off_c, 6, 69, 80
8, 119640, Note_on_c, 6, 70, 95
8, 119760, Note_off_c, 6, 70, 80
8, 119760, Note_on_c, 6, 69, 95
8, 120000, Note_off_c, 6, 69, 80
8, 120000, Note_on_c, 7, 67, 95
8, 120080, Pitch_bend_c, 7, 8192
8, 120160, Pitch_bend_c, 7, 8448
8, 120240, Pitch_bend_c, 7, 8192
8, 120320, Pitch_bend_c, 7, 8448
8, 120400, Pitch_bend_c, 7, 8192
8, 120480, Note_off_c, 7, 67, 80
8, 120480, Pitch_bend_c, 7, 8448
8, 120480, Pitch_bend_c, 7, 8192
8, 120480, End_track
9, 0, Start_track
9, 0, Title_t, "Back Vocals"
9, 0, Control_c, 11, 100, 0
9, 0, Control_c, 11, 101, 0
9, 0, Control_c, 11, 6, 12
9, 0, Pitch_bend_c, 11, 8192
9, 0, Control_c, 12, 100, 0
9, 0, Control_c, 12, 101, 0
9, 0, Control_c, 12, 6, 12
9, 0, Pitch_bend_c, 12, 8192
9, 0, Program_c, 11, 52
9, 0, Program_c, 12, 52
9, 0, Control_c, 11, 7, 88
9, 0, Control_c, 12, 7, 88
9, 0, Control_c, 11, 10, 64
9, 0, Control_c, 12, 10, 64
9, 0, Control_c, 11, 93, 0
9, 0, Control_c, 12, 93, 0
9, 0, Control_c, 11, 91, 0
9, 0, Control_c, 12, 91, 0
9, 0, Control_c, 11, 92, 0
9, 0, Control_c, 12, 92, 0
9, 0, Control_c, 11, 95, 0
9, 0, Control_c, 12, 95, 0
9, 49440, Note_on_c, 11, 68, 95
9, 49440, Note_on_c, 11, 61, 95
9, 49560, Note_off_c, 11, 68, 80
9, 49560, Note_off_c, 11, 61, 80
9, 49560, Note_on_c, 11, 61, 95
9, 49560, Note_on_c, 11, 58, 95
9, 49680, Note_off_c, 11, 61, 80
9, 49680, Note_off_c, 11, 58, 80
9, 49680, Note_on_c, 11, 65, 95
9, 49680, Note_on_c, 11, 61, 95
9, 49800, Note_off_c, 11, 65, 80
9, 49800, Note_off_c, 11, 61, 80
9, 49800, Note_on_c, 11, 61, 95
9, 49800, Note_on_c, 11, 58, 95
9, 49920, Note_off_c, 11, 61, 80
9, 49920, Note_off_c, 11, 58, 80
9, 49920, Note_on_c, 11, 61, 95
9, 49920, Note_on_c, 11, 58, 95
9, 50880, Note_off_c, 11, 61, 80
9, 50880, Note_off_c, 11, 58, 80
9, 64800, Note_on_c, 11, 70, 95
9, 64800, Note_on_c, 11, 65, 95
9, 64800, Note_on_c, 11, 62, 95
9, 65280, Note_off_c, 11, 70, 80
9, 65280, Note_off_c, 11, 65, 80
9, 65280, Note_off_c, 11, 62, 80
9, 65280, Note_on_c, 11, 69, 95
9, 65280, Note_on_c, 11, 65, 95
9, 65280, Note_on_c, 11, 60, 95
9, 66240, Note_off_c, 11, 69, 80
9, 66240, Note_off_c, 11, 65, 80
9, 66240, Note_off_c, 11, 60, 80
9, 66240, Note_on_c, 12, 68, 95
9, 66240, Pitch_bend_c, 12, 8192
9, 66240, Note_on_c, 12, 63, 95
9, 66240, Pitch_bend_c, 12, 8192
9, 66240, Note_on_c, 12, 60, 95
9, 66240, Pitch_bend_c, 12, 8192
9, 66816, Pitch_bend_c, 12, 8448
9, 66816, Pitch_bend_c, 12, 8448
9, 66816, Pitch_bend_c, 12, 8448
9, 66832, Pitch_bend_c, 12, 8704
9, 66832, Pitch_bend_c, 12, 8704
9, 66832, Pitch_bend_c, 12, 8704
9, 66848, Pitch_bend_c, 12, 8960
9, 66848, Pitch_bend_c, 12, 8960
9, 66848, Pitch_bend_c, 12, 8960
9, 66864, Pitch_bend_c, 12, 9344
9, 66864, Pitch_bend_c, 12, 9344
9, 66864, Pitch_bend_c, 12, 9344
9, 66880, Pitch_bend_c, 12, 9600
9, 66880, Pitch_bend_c, 12, 9600
9, 66880, Pitch_bend_c, 12, 9600
9, 66896, Pitch_bend_c, 12, 9344
9, 66896, Pitch_bend_c, 12, 9344
9, 66896, Pitch_bend_c, 12, 9344
9, 66912, Pitch_bend_c, 12, 8960
9, 66912, Pitch_bend_c, 12, 8960
9, 66912, Pitch_bend_c, 12, 8960
9, 66928, Pitch_bend_c, 12, 8704
9, 66928, Pitch_bend_c, 12, 8704
9, 66928, Pitch_bend_c, 12, 8704
9, 66944, Pitch_bend_c, 12, 8448
9, 66944, Pitch_bend_c, 12, 8448
9, 66944, Pitch_bend_c, 12, 8448
9, 66960, Pitch_bend_c, 12, 8192
9, 66960, Pitch_bend_c, 12, 8192
9, 66960, Pitch_bend_c, 12, 8192
9, 67200, Note_off_c, 12, 68, 80
9, 67200, Pitch_bend_c, 12, 8192
9, 67200, Note_off_c, 12, 63, 80
9, 67200, Pitch_bend_c, 12, 8192
9, 67200, Note_off_c, 12, 60, 80
9, 67200, Pitch_bend_c, 12, 8192
9, 67200, Note_on_c, 11, 67, 95
9, 67200, Note_on_c, 11, 63, 95
9, 67200, Note_on_c, 11, 58, 95
9, 68160, Note_off_c, 11, 67, 80
9, 68160, Note_off_c, 11, 63, 80
9, 68160, Note_off_c, 11, 58, 80
9, 95520, Note_on_c, 11, 70, 95
9, 95520, Note_on_c, 11, 65, 95
9, 95520, Note_on_c, 11, 62, 95
9, 96000, Note_off_c, 11, 70, 80
9, 96000, Note_off_c, 11, 65, 80
9, 96000, Note_off_c, 11, 62, 80
9, 96000, Note_on_c, 11, 69, 95
9, 96000, Note_on_c, 11, 65, 95
9, 96000, Note_on_c, 11, 60, 95
9, 96960, Note_off_c, 11, 69, 80
9, 96960, Note_off_c, 11, 65, 80
9, 96960, Note_off_c, 11, 60, 80
9, 96960, Note_on_c, 11, 67, 95
9, 96960, Note_on_c, 11, 64, 95
9, 96960, Note_on_c, 11, 60, 95
9, 98880, Note_off_c, 11, 67, 80
9, 98880, Note_off_c, 11, 64, 80
9, 98880, Note_off_c, 11, 60, 80
9, 107040, Note_on_c, 11, 70, 95
9, 107040, Note_on_c, 11, 65, 95
9, 107040, Note_on_c, 11, 62, 95
9, 107520, Note_off_c, 11, 70, 80
9, 107520, Note_off_c, 11, 65, 80
9, 107520, Note_off_c, 11, 62, 80
9, 107520, Note_on_c, 11, 69, 95
9, 107520, Note_on_c, 11, 65, 95
9, 107520, Note_on_c, 11, 60, 95
9, 108480, Note_off_c, 11, 69, 80
9, 108480, Note_off_c, 11, 65, 80
9, 108480, Note_off_c, 11, 60, 80
9, 108480, Note_on_c, 11, 67, 95
9, 108480, Note_on_c, 11, 64, 95
9, 108480, Note_on_c, 11, 60, 95
9, 110400, Note_off_c, 11, 67, 80
9, 110400, Note_off_c, 11, 64, 80
9, 110400, Note_off_c, 11, 60, 80
9, 110880, Note_on_c, 11, 70, 95
9, 110880, Note_on_c, 11, 65, 95
9, 110880, Note_on_c, 11, 62, 95
9, 111360, Note_off_c, 11, 70, 80
9, 111360, Note_off_c, 11, 65, 80
9, 111360, Note_off_c, 11, 62, 80
9, 111360, Note_on_c, 11, 69, 95
9, 111360, Note_on_c, 11, 65, 95
9, 111360, Note_on_c, 11, 60, 95
9, 112320, Note_off_c, 11, 69, 80
9, 112320, Note_off_c, 11, 65, 80
9, 112320, Note_off_c, 11, 60, 80
9, 112320, Note_on_c, 11, 67, 95
9, 112320, Note_on_c, 11, 64, 95
9, 112320, Note_on_c, 11, 60, 95
9, 114240, Note_off_c, 11, 67, 80
9, 114240, Note_off_c, 11, 64, 80
9, 114240, Note_off_c, 11, 60, 80
9, 118560, Note_on_c, 11, 70, 95
9, 118560, Note_on_c, 11, 65, 95
9, 118560, Note_on_c, 11, 62, 95
9, 119040, Note_off_c, 11, 70, 80
9, 119040, Note_off_c, 11, 65, 80
9, 119040, Note_off_c, 11, 62, 80
9, 119040, Note_on_c, 11, 69, 95
9, 119040, Note_on_c, 11, 65, 95
9, 119040, Note_on_c, 11, 60, 95
9, 120000, Note_off_c, 11, 69, 80
9, 120000, Note_off_c, 11, 65, 80
9, 120000, Note_off_c, 11, 60, 80
9, 120000, Note_on_c, 11, 67, 95
9, 120000, Note_on_c, 11, 64, 95
9, 120000, Note_on_c, 11, 60, 95
9, 120480, Note_off_c, 11, 67, 80
9, 120480, Note_off_c, 11, 64, 80
9, 120480, Note_off_c, 11, 60, 80
9, 120480, End_track
0, 0, End_of_file
