0, 0, Header, 1, 8, 960
1, 0, Start_track
1, 0, Control_c, 0, 101, 0
1, 0, Control_c, 0, 100, 0
1, 0, Control_c, 0, 6, 12
1, 0, Control_c, 0, 38, 0
1, 0, Control_c, 1, 101, 0
1, 0, Control_c, 1, 100, 0
1, 0, Control_c, 1, 6, 12
1, 0, Control_c, 1, 38, 0
1, 0, Control_c, 2, 101, 0
1, 0, Control_c, 2, 100, 0
1, 0, Control_c, 2, 6, 12
1, 0, Control_c, 2, 38, 0
1, 0, Control_c, 3, 101, 0
1, 0, Control_c, 3, 100, 0
1, 0, Control_c, 3, 6, 12
1, 0, Control_c, 3, 38, 0
1, 0, Control_c, 4, 101, 0
1, 0, Control_c, 4, 100, 0
1, 0, Control_c, 4, 6, 12
1, 0, Control_c, 4, 38, 0
1, 0, Control_c, 5, 101, 0
1, 0, Control_c, 5, 100, 0
1, 0, Control_c, 5, 6, 12
1, 0, Control_c, 5, 38, 0
1, 0, Control_c, 6, 101, 0
1, 0, Control_c, 6, 100, 0
1, 0, Control_c, 6, 6, 12
1, 0, Control_c, 6, 38, 0
1, 0, Control_c, 7, 101, 0
1, 0, Control_c, 7, 100, 0
1, 0, Control_c, 7, 6, 12
1, 0, Control_c, 7, 38, 0
1, 0, Control_c, 8, 101, 0
1, 0, Control_c, 8, 100, 0
1, 0, Control_c, 8, 6, 12
1, 0, Control_c, 8, 38, 0
1, 0, Control_c, 9, 101, 0
1, 0, Control_c, 9, 100, 0
1, 0, Control_c, 9, 6, 12
1, 0, Control_c, 9, 38, 0
1, 0, Control_c, 10, 101, 0
1, 0, Control_c, 10, 100, 0
1, 0, Control_c, 10, 6, 12
1, 0, Control_c, 10, 38, 0
1, 0, Control_c, 11, 101, 0
1, 0, Control_c, 11, 100, 0
1, 0, Control_c, 11, 6, 12
1, 0, Control_c, 11, 38, 0
1, 0, Control_c, 12, 101, 0
1, 0, Control_c, 12, 100, 0
1, 0, Control_c, 12, 6, 12
1, 0, Control_c, 12, 38, 0
1, 0, Control_c, 13, 101, 0
1, 0, Control_c, 13, 100, 0
1, 0, Control_c, 13, 6, 12
1, 0, Control_c, 13, 38, 0
1, 0, Control_c, 14, 101, 0
1, 0, Control_c, 14, 100, 0
1, 0, Control_c, 14, 6, 12
1, 0, Control_c, 14, 38, 0
1, 0, Control_c, 15, 101, 0
1, 0, Control_c, 15, 100, 0
1, 0, Control_c, 15, 6, 12
1, 0, Control_c, 15, 38, 0
1, 0, Time_signature, 4, 2, 24, 8
1, 0, Tempo, 714285
1, 291840, Tempo, 1000000
1, 295680, Tempo, 714285
1, 299520, Tempo, 1000000
1, 299520, End_track
2, 0, Start_track
2, 0, Pitch_bend_c, 0, 8192
2, 0, Control_c, 0, 7, 63
2, 0, Control_c, 0, 10, 63
2, 0, Control_c, 0, 93, 0
2, 0, Control_c, 0, 91, 0
2, 0, Control_c, 0, 95, 0
2, 0, Control_c, 0, 92, 0
2, 0, Control_c, 0, 11, 127
2, 0, Program_c, 0, 25
2, 0, Control_c, 1, 7, 63
2, 0, Control_c, 1, 10, 63
2, 0, Control_c, 1, 93, 0
2, 0, Control_c, 1, 91, 0
2, 0, Control_c, 1, 95, 0
2, 0, Control_c, 1, 92, 0
2, 0, Control_c, 1, 11, 127
2, 0, Program_c, 1, 25
2, 0, Note_on_c, 0, 47, 95
2, 960, Note_off_c, 0, 47, 95
2, 960, Note_on_c, 0, 54, 95
2, 1440, Note_off_c, 0, 54, 95
2, 1440, Note_on_c, 0, 45, 95
2, 2880, Note_off_c, 0, 45, 95
2, 2880, Note_on_c, 0, 54, 95
2, 3360, Note_off_c, 0, 54, 95
2, 3360, Note_on_c, 0, 44, 95
2, 4800, Note_off_c, 0, 44, 95
2, 4800, Note_on_c, 0, 54, 95
2, 5280, Note_off_c, 0, 54, 95
2, 5280, Note_on_c, 0, 52, 95
2, 5280, Note_on_c, 0, 43, 95
2, 6240, Note_off_c, 0, 52, 95
2, 6240, Note_off_c, 0, 43, 95
2, 6240, Note_on_c, 0, 52, 95
2, 6240, Note_on_c, 0, 43, 95
2, 6720, Note_off_c, 0, 52, 95
2, 6720, Note_off_c, 0, 43, 95
2, 6720, Note_on_c, 0, 51, 95
2, 6720, Note_on_c, 0, 43, 95
2, 6960, Note_off_c, 0, 43, 95
2, 7200, Note_off_c, 0, 51, 95
2, 7200, Note_on_c, 0, 51, 95
2, 7200, Note_on_c, 1, 43, 95
2, 7320, Pitch_bend_c, 1, 8832
2, 7440, Pitch_bend_c, 1, 9600
2, 7560, Pitch_bend_c, 1, 10240
2, 7680, Note_off_c, 0, 51, 95
2, 7680, Pitch_bend_c, 1, 11008
2, 7680, Pitch_bend_c, 1, 8192
2, 7680, Note_off_c, 1, 43, 95
2, 7680, Note_on_c, 0, 47, 95
2, 8640, Note_off_c, 0, 47, 95
2, 8640, Note_on_c, 0, 54, 95
2, 9120, Note_off_c, 0, 54, 95
2, 9120, Note_on_c, 0, 45, 95
2, 10560, Note_off_c, 0, 45, 95
2, 10560, Note_on_c, 0, 54, 95
2, 11040, Note_off_c, 0, 54, 95
2, 11040, Note_on_c, 0, 44, 95
2, 12480, Note_off_c, 0, 44, 95
2, 12480, Note_on_c, 0, 54, 95
2, 12960, Note_off_c, 0, 54, 95
2, 12960, Note_on_c, 0, 52, 95
2, 12960, Note_on_c, 0, 43, 95
2, 13920, Note_off_c, 0, 52, 95
2, 13920, Note_off_c, 0, 43, 95
2, 13920, Note_on_c, 0, 52, 95
2, 13920, Note_on_c, 0, 43, 95
2, 14400, Note_off_c, 0, 52, 95
2, 14400, Note_off_c, 0, 43, 95
2, 14400, Note_on_c, 0, 51, 95
2, 14400, Note_on_c, 0, 43, 95
2, 14640, Note_off_c, 0, 43, 95
2, 14880, Note_off_c, 0, 51, 95
2, 14880, Note_on_c, 0, 51, 95
2, 14880, Note_on_c, 1, 43, 95
2, 15000, Pitch_bend_c, 1, 8832
2, 15120, Pitch_bend_c, 1, 9600
2, 15240, Pitch_bend_c, 1, 10240
2, 15360, Note_off_c, 0, 51, 95
2, 15360, Pitch_bend_c, 1, 11008
2, 15360, Pitch_bend_c, 1, 8192
2, 15360, Note_off_c, 1, 43, 95
2, 15360, Note_on_c, 0, 47, 95
2, 16320, Note_off_c, 0, 47, 95
2, 16320, Note_on_c, 0, 54, 95
2, 16800, Note_off_c, 0, 54, 95
2, 16800, Note_on_c, 0, 45, 95
2, 18240, Note_off_c, 0, 45, 95
2, 18240, Note_on_c, 0, 54, 95
2, 18720, Note_off_c, 0, 54, 95
2, 18720, Note_on_c, 0, 44, 95
2, 20160, Note_off_c, 0, 44, 95
2, 20160, Note_on_c, 0, 54, 95
2, 20640, Note_off_c, 0, 54, 95
2, 20640, Note_on_c, 0, 52, 95
2, 20640, Note_on_c, 0, 43, 95
2, 21600, Note_off_c, 0, 52, 95
2, 21600, Note_off_c, 0, 43, 95
2, 21600, Note_on_c, 0, 52, 95
2, 21600, Note_on_c, 0, 43, 95
2, 22080, Note_off_c, 0, 52, 95
2, 22080, Note_off_c, 0, 43, 95
2, 22080, Note_on_c, 0, 51, 95
2, 22080, Note_on_c, 0, 43, 95
2, 22320, Note_off_c, 0, 43, 95
2, 22560, Note_off_c, 0, 51, 95
2, 22560, Note_on_c, 0, 51, 95
2, 22560, Note_on_c, 1, 43, 95
2, 22680, Pitch_bend_c, 1, 8832
2, 22800, Pitch_bend_c, 1, 9600
2, 22920, Pitch_bend_c, 1, 10240
2, 23040, Note_off_c, 0, 51, 95
2, 23040, Pitch_bend_c, 1, 11008
2, 23040, Pitch_bend_c, 1, 8192
2, 23040, Note_off_c, 1, 43, 95
2, 23040, Note_on_c, 0, 47, 95
2, 24000, Note_off_c, 0, 47, 95
2, 24000, Note_on_c, 0, 54, 95
2, 24480, Note_off_c, 0, 54, 95
2, 24480, Note_on_c, 0, 45, 95
2, 25920, Note_off_c, 0, 45, 95
2, 25920, Note_on_c, 0, 54, 95
2, 26400, Note_off_c, 0, 54, 95
2, 26400, Note_on_c, 0, 44, 95
2, 27840, Note_off_c, 0, 44, 95
2, 27840, Note_on_c, 0, 54, 95
2, 28320, Note_off_c, 0, 54, 95
2, 28320, Note_on_c, 0, 52, 95
2, 28320, Note_on_c, 0, 43, 95
2, 29280, Note_off_c, 0, 52, 95
2, 29280, Note_off_c, 0, 43, 95
2, 29280, Note_on_c, 0, 52, 95
2, 29280, Note_on_c, 0, 43, 95
2, 29760, Note_off_c, 0, 52, 95
2, 29760, Note_off_c, 0, 43, 95
2, 29760, Note_on_c, 0, 51, 95
2, 29760, Note_on_c, 0, 43, 95
2, 30000, Note_off_c, 0, 43, 95
2, 30240, Note_off_c, 0, 51, 95
2, 30240, Note_on_c, 0, 51, 95
2, 30240, Note_on_c, 1, 43, 95
2, 30360, Pitch_bend_c, 1, 8832
2, 30480, Pitch_bend_c, 1, 9600
2, 30600, Pitch_bend_c, 1, 10240
2, 30720, Note_off_c, 0, 51, 95
2, 30720, Pitch_bend_c, 1, 11008
2, 30720, Pitch_bend_c, 1, 8192
2, 30720, Note_off_c, 1, 43, 95
2, 30720, Note_on_c, 0, 47, 95
2, 31680, Note_off_c, 0, 47, 95
2, 31680, Note_on_c, 0, 54, 95
2, 32160, Note_off_c, 0, 54, 95
2, 32160, Note_on_c, 0, 45, 95
2, 33600, Note_off_c, 0, 45, 95
2, 33600, Note_on_c, 0, 54, 95
2, 34080, Note_off_c, 0, 54, 95
2, 34080, Note_on_c, 0, 44, 95
2, 35520, Note_off_c, 0, 44, 95
2, 35520, Note_on_c, 0, 54, 95
2, 36000, Note_off_c, 0, 54, 95
2, 36000, Note_on_c, 0, 52, 95
2, 36000, Note_on_c, 0, 43, 95
2, 36960, Note_off_c, 0, 52, 95
2, 36960, Note_off_c, 0, 43, 95
2, 36960, Note_on_c, 0, 52, 95
2, 36960, Note_on_c, 0, 43, 95
2, 37440, Note_off_c, 0, 52, 95
2, 37440, Note_off_c, 0, 43, 95
2, 37440, Note_on_c, 0, 51, 95
2, 37440, Note_on_c, 0, 43, 95
2, 37680, Note_off_c, 0, 43, 95
2, 37920, Note_off_c, 0, 51, 95
2, 37920, Note_on_c, 0, 51, 95
2, 37920, Note_on_c, 1, 43, 95
2, 38040, Pitch_bend_c, 1, 8832
2, 38160, Pitch_bend_c, 1, 9600
2, 38280, Pitch_bend_c, 1, 10240
2, 38400, Note_off_c, 0, 51, 95
2, 38400, Pitch_bend_c, 1, 11008
2, 38400, Pitch_bend_c, 1, 8192
2, 38400, Note_off_c, 1, 43, 95
2, 38400, Note_on_c, 0, 47, 95
2, 39360, Note_off_c, 0, 47, 95
2, 39360, Note_on_c, 0, 54, 95
2, 39840, Note_off_c, 0, 54, 95
2, 39840, Note_on_c, 0, 45, 95
2, 41280, Note_off_c, 0, 45, 95
2, 41280, Note_on_c, 0, 54, 95
2, 41760, Note_off_c, 0, 54, 95
2, 41760, Note_on_c, 0, 44, 95
2, 43200, Note_off_c, 0, 44, 95
2, 43200, Note_on_c, 0, 54, 95
2, 43680, Note_off_c, 0, 54, 95
2, 43680, Note_on_c, 0, 52, 95
2, 43680, Note_on_c, 0, 43, 95
2, 44640, Note_off_c, 0, 52, 95
2, 44640, Note_off_c, 0, 43, 95
2, 44640, Note_on_c, 0, 52, 95
2, 44640, Note_on_c, 0, 43, 95
2, 45120, Note_off_c, 0, 52, 95
2, 45120, Note_off_c, 0, 43, 95
2, 45120, Note_on_c, 0, 51, 95
2, 45120, Note_on_c, 0, 43, 95
2, 45360, Note_off_c, 0, 43, 95
2, 45600, Note_off_c, 0, 51, 95
2, 45600, Note_on_c, 0, 51, 95
2, 45600, Note_on_c, 1, 43, 95
2, 45720, Pitch_bend_c, 1, 8832
2, 45840, Pitch_bend_c, 1, 9600
2, 45960, Pitch_bend_c, 1, 10240
2, 46080, Note_off_c, 0, 51, 95
2, 46080, Pitch_bend_c, 1, 11008
2, 46080, Pitch_bend_c, 1, 8192
2, 46080, Note_off_c, 1, 43, 95
2, 46080, Note_on_c, 0, 47, 95
2, 47040, Note_off_c, 0, 47, 95
2, 47040, Note_on_c, 0, 54, 95
2, 47520, Note_off_c, 0, 54, 95
2, 47520, Note_on_c, 0, 45, 95
2, 48960, Note_off_c, 0, 45, 95
2, 48960, Note_on_c, 0, 54, 95
2, 49440, Note_off_c, 0, 54, 95
2, 49440, Note_on_c, 0, 44, 95
2, 50880, Note_off_c, 0, 44, 95
2, 50880, Note_on_c, 0, 54, 95
2, 51360, Note_off_c, 0, 54, 95
2, 51360, Note_on_c, 0, 52, 95
2, 51360, Note_on_c, 0, 43, 95
2, 52320, Note_off_c, 0, 52, 95
2, 52320, Note_off_c, 0, 43, 95
2, 52320, Note_on_c, 0, 52, 95
2, 52320, Note_on_c, 0, 43, 95
2, 52800, Note_off_c, 0, 52, 95
2, 52800, Note_off_c, 0, 43, 95
2, 52800, Note_on_c, 0, 51, 95
2, 52800, Note_on_c, 0, 43, 95
2, 53040, Note_off_c, 0, 43, 95
2, 53280, Note_off_c, 0, 51, 95
2, 53280, Note_on_c, 0, 51, 95
2, 53280, Note_on_c, 1, 43, 95
2, 53400, Pitch_bend_c, 1, 8832
2, 53520, Pitch_bend_c, 1, 9600
2, 53640, Pitch_bend_c, 1, 10240
2, 53760, Note_off_c, 0, 51, 95
2, 53760, Pitch_bend_c, 1, 11008
2, 53760, Pitch_bend_c, 1, 8192
2, 53760, Note_off_c, 1, 43, 95
2, 53760, Note_on_c, 0, 47, 95
2, 54720, Note_off_c, 0, 47, 95
2, 54720, Note_on_c, 0, 54, 95
2, 55200, Note_off_c, 0, 54, 95
2, 55200, Note_on_c, 0, 45, 95
2, 56640, Note_off_c, 0, 45, 95
2, 56640, Note_on_c, 0, 54, 95
2, 57120, Note_off_c, 0, 54, 95
2, 57120, Note_on_c, 0, 44, 95
2, 58560, Note_off_c, 0, 44, 95
2, 58560, Note_on_c, 0, 54, 95
2, 59040, Note_off_c, 0, 54, 95
2, 59040, Note_on_c, 0, 52, 95
2, 59040, Note_on_c, 0, 43, 95
2, 60000, Note_off_c, 0, 52, 95
2, 60000, Note_off_c, 0, 43, 95
2, 60000, Note_on_c, 0, 52, 95
2, 60000, Note_on_c, 0, 43, 95
2, 60480, Note_off_c, 0, 52, 95
2, 60480, Note_off_c, 0, 43, 95
2, 60480, Note_on_c, 0, 51, 95
2, 60480, Note_on_c, 0, 43, 95
2, 60720, Note_off_c, 0, 43, 95
2, 60960, Note_off_c, 0, 51, 95
2, 60960, Note_on_c, 0, 51, 95
2, 60960, Note_on_c, 1, 43, 95
2, 61080, Pitch_bend_c, 1, 8832
2, 61200, Pitch_bend_c, 1, 9600
2, 61320, Pitch_bend_c, 1, 10240
2, 61440, Note_off_c, 0, 51, 95
2, 61440, Pitch_bend_c, 1, 11008
2, 61440, Pitch_bend_c, 1, 8192
2, 61440, Note_off_c, 1, 43, 95
2, 61440, Note_on_c, 0, 47, 95
2, 62400, Note_off_c, 0, 47, 95
2, 62400, Note_on_c, 0, 54, 95
2, 62880, Note_off_c, 0, 54, 95
2, 62880, Note_on_c, 0, 45, 95
2, 64320, Note_off_c, 0, 45, 95
2, 64320, Note_on_c, 0, 54, 95
2, 64800, Note_off_c, 0, 54, 95
2, 64800, Note_on_c, 0, 44, 95
2, 66240, Note_off_c, 0, 44, 95
2, 66240, Note_on_c, 0, 54, 95
2, 66720, Note_off_c, 0, 54, 95
2, 66720, Note_on_c, 0, 52, 95
2, 66720, Note_on_c, 0, 43, 95
2, 67680, Note_off_c, 0, 52, 95
2, 67680, Note_off_c, 0, 43, 95
2, 67680, Note_on_c, 0, 52, 95
2, 67680, Note_on_c, 0, 43, 95
2, 68160, Note_off_c, 0, 52, 95
2, 68160, Note_off_c, 0, 43, 95
2, 68160, Note_on_c, 0, 51, 95
2, 68160, Note_on_c, 0, 43, 95
2, 68400, Note_off_c, 0, 43, 95
2, 68640, Note_off_c, 0, 51, 95
2, 68640, Note_on_c, 0, 51, 95
2, 68640, Note_on_c, 1, 43, 95
2, 68760, Pitch_bend_c, 1, 8832
2, 68880, Pitch_bend_c, 1, 9600
2, 69000, Pitch_bend_c, 1, 10240
2, 69120, Note_off_c, 0, 51, 95
2, 69120, Pitch_bend_c, 1, 11008
2, 69120, Pitch_bend_c, 1, 8192
2, 69120, Note_off_c, 1, 43, 95
2, 69120, Note_on_c, 0, 47, 95
2, 70080, Note_off_c, 0, 47, 95
2, 70080, Note_on_c, 0, 54, 95
2, 70560, Note_off_c, 0, 54, 95
2, 70560, Note_on_c, 0, 45, 95
2, 72000, Note_off_c, 0, 45, 95
2, 72000, Note_on_c, 0, 54, 95
2, 72480, Note_off_c, 0, 54, 95
2, 72480, Note_on_c, 0, 44, 95
2, 73920, Note_off_c, 0, 44, 95
2, 73920, Note_on_c, 0, 54, 95
2, 74400, Note_off_c, 0, 54, 95
2, 74400, Note_on_c, 0, 52, 95
2, 74400, Note_on_c, 0, 43, 95
2, 75360, Note_off_c, 0, 52, 95
2, 75360, Note_off_c, 0, 43, 95
2, 75360, Note_on_c, 0, 52, 95
2, 75360, Note_on_c, 0, 43, 95
2, 75840, Note_off_c, 0, 52, 95
2, 75840, Note_off_c, 0, 43, 95
2, 75840, Note_on_c, 0, 51, 95
2, 75840, Note_on_c, 0, 43, 95
2, 76080, Note_off_c, 0, 43, 95
2, 76320, Note_off_c, 0, 51, 95
2, 76320, Note_on_c, 0, 51, 95
2, 76320, Note_on_c, 1, 43, 95
2, 76440, Pitch_bend_c, 1, 8832
2, 76560, Pitch_bend_c, 1, 9600
2, 76680, Pitch_bend_c, 1, 10240
2, 76800, Note_off_c, 0, 51, 95
2, 76800, Pitch_bend_c, 1, 11008
2, 76800, Pitch_bend_c, 1, 8192
2, 76800, Note_off_c, 1, 43, 95
2, 76800, Note_on_c, 0, 47, 95
2, 77760, Note_off_c, 0, 47, 95
2, 77760, Note_on_c, 0, 54, 95
2, 78240, Note_off_c, 0, 54, 95
2, 78240, Note_on_c, 0, 45, 95
2, 79680, Note_off_c, 0, 45, 95
2, 79680, Note_on_c, 0, 54, 95
2, 80160, Note_off_c, 0, 54, 95
2, 80160, Note_on_c, 0, 44, 95
2, 81600, Note_off_c, 0, 44, 95
2, 81600, Note_on_c, 0, 54, 95
2, 82080, Note_off_c, 0, 54, 95
2, 82080, Note_on_c, 0, 52, 95
2, 82080, Note_on_c, 0, 43, 95
2, 83040, Note_off_c, 0, 52, 95
2, 83040, Note_off_c, 0, 43, 95
2, 83040, Note_on_c, 0, 52, 95
2, 83040, Note_on_c, 0, 43, 95
2, 83520, Note_off_c, 0, 52, 95
2, 83520, Note_off_c, 0, 43, 95
2, 83520, Note_on_c, 0, 51, 95
2, 83520, Note_on_c, 0, 43, 95
2, 83760, Note_off_c, 0, 43, 95
2, 84000, Note_off_c, 0, 51, 95
2, 84000, Note_on_c, 0, 51, 95
2, 84000, Note_on_c, 1, 43, 95
2, 84120, Pitch_bend_c, 1, 8832
2, 84240, Pitch_bend_c, 1, 9600
2, 84360, Pitch_bend_c, 1, 10240
2, 84480, Note_off_c, 0, 51, 95
2, 84480, Pitch_bend_c, 1, 11008
2, 84480, Pitch_bend_c, 1, 8192
2, 84480, Note_off_c, 1, 43, 95
2, 84480, Note_on_c, 0, 47, 95
2, 85440, Note_off_c, 0, 47, 95
2, 85440, Note_on_c, 0, 54, 95
2, 85920, Note_off_c, 0, 54, 95
2, 85920, Note_on_c, 0, 45, 95
2, 87360, Note_off_c, 0, 45, 95
2, 87360, Note_on_c, 0, 54, 95
2, 87840, Note_off_c, 0, 54, 95
2, 87840, Note_on_c, 0, 44, 95
2, 89280, Note_off_c, 0, 44, 95
2, 89280, Note_on_c, 0, 54, 95
2, 89760, Note_off_c, 0, 54, 95
2, 89760, Note_on_c, 0, 52, 95
2, 89760, Note_on_c, 0, 43, 95
2, 90720, Note_off_c, 0, 52, 95
2, 90720, Note_off_c, 0, 43, 95
2, 90720, Note_on_c, 0, 52, 95
2, 90720, Note_on_c, 0, 43, 95
2, 91200, Note_off_c, 0, 52, 95
2, 91200, Note_off_c, 0, 43, 95
2, 91200, Note_on_c, 0, 51, 95
2, 91200, Note_on_c, 0, 43, 95
2, 91440, Note_off_c, 0, 43, 95
2, 91680, Note_off_c, 0, 51, 95
2, 91680, Note_on_c, 0, 51, 95
2, 91680, Note_on_c, 1, 43, 95
2, 91800, Pitch_bend_c, 1, 8832
2, 91920, Pitch_bend_c, 1, 9600
2, 92040, Pitch_bend_c, 1, 10240
2, 92160, Note_off_c, 0, 51, 95
2, 92160, Pitch_bend_c, 1, 11008
2, 92160, Pitch_bend_c, 1, 8192
2, 92160, Note_off_c, 1, 43, 95
2, 92160, Note_on_c, 0, 47, 95
2, 92164, Note_on_c, 0, 54, 95
2, 92168, Note_on_c, 0, 59, 95
2, 92172, Note_on_c, 0, 63, 95
2, 92176, Note_on_c, 0, 66, 95
2, 92180, Note_on_c, 0, 71, 95
2, 92640, Note_off_c, 0, 71, 95
2, 92640, Note_off_c, 0, 66, 95
2, 92640, Note_off_c, 0, 63, 95
2, 92640, Note_off_c, 0, 59, 95
2, 92640, Note_off_c, 0, 54, 95
2, 92640, Note_off_c, 0, 47, 95
2, 92640, Note_on_c, 0, 47, 95
2, 92644, Note_on_c, 0, 54, 95
2, 92648, Note_on_c, 0, 59, 95
2, 92652, Note_on_c, 0, 63, 95
2, 92656, Note_on_c, 0, 66, 95
2, 92660, Note_on_c, 0, 71, 95
2, 93120, Note_off_c, 0, 71, 95
2, 93120, Note_off_c, 0, 66, 95
2, 93120, Note_off_c, 0, 63, 95
2, 93120, Note_off_c, 0, 59, 95
2, 93120, Note_off_c, 0, 54, 95
2, 93120, Note_off_c, 0, 47, 95
2, 93120, Note_on_c, 0, 45, 95
2, 93122, Note_on_c, 0, 45, 95
2, 93124, Note_on_c, 0, 50, 95
2, 93126, Note_on_c, 0, 55, 95
2, 93128, Note_on_c, 0, 59, 95
2, 93130, Note_on_c, 0, 64, 95
2, 93162, Note_off_c, 0, 64, 95
2, 93162, Note_off_c, 0, 59, 95
2, 93162, Note_off_c, 0, 55, 95
2, 93162, Note_off_c, 0, 50, 95
2, 93162, Note_off_c, 0, 45, 95
2, 93162, Note_off_c, 0, 45, 95
2, 93360, Note_on_c, 0, 64, 95
2, 93362, Note_on_c, 0, 59, 95
2, 93364, Note_on_c, 0, 55, 95
2, 93366, Note_on_c, 0, 50, 95
2, 93368, Note_on_c, 0, 45, 95
2, 93370, Note_on_c, 0, 40, 95
2, 93402, Note_off_c, 0, 64, 95
2, 93402, Note_off_c, 0, 59, 95
2, 93402, Note_off_c, 0, 55, 95
2, 93402, Note_off_c, 0, 50, 95
2, 93402, Note_off_c, 0, 45, 95
2, 93402, Note_off_c, 0, 40, 95
2, 93600, Note_on_c, 0, 44, 95
2, 93602, Note_on_c, 0, 45, 95
2, 93604, Note_on_c, 0, 50, 95
2, 93606, Note_on_c, 0, 55, 95
2, 93608, Note_on_c, 0, 59, 95
2, 93610, Note_on_c, 0, 64, 95
2, 93642, Note_off_c, 0, 64, 95
2, 93642, Note_off_c, 0, 59, 95
2, 93642, Note_off_c, 0, 55, 95
2, 93642, Note_off_c, 0, 50, 95
2, 93642, Note_off_c, 0, 45, 95
2, 93642, Note_off_c, 0, 44, 95
2, 93840, Note_on_c, 0, 64, 95
2, 93842, Note_on_c, 0, 59, 95
2, 93844, Note_on_c, 0, 55, 95
2, 93846, Note_on_c, 0, 50, 95
2, 93848, Note_on_c, 0, 45, 95
2, 93850, Note_on_c, 0, 40, 95
2, 93882, Note_off_c, 0, 64, 95
2, 93882, Note_off_c, 0, 59, 95
2, 93882, Note_off_c, 0, 55, 95
2, 93882, Note_off_c, 0, 50, 95
2, 93882, Note_off_c, 0, 45, 95
2, 93882, Note_off_c, 0, 40, 95
2, 94080, Note_on_c, 0, 45, 95
2, 94084, Note_on_c, 0, 50, 95
2, 94088, Note_on_c, 0, 57, 95
2, 94092, Note_on_c, 0, 62, 95
2, 94096, Note_on_c, 0, 66, 95
2, 94100, Note_on_c, 0, 69, 95
2, 94560, Note_off_c, 0, 69, 95
2, 94560, Note_off_c, 0, 66, 95
2, 94560, Note_off_c, 0, 62, 95
2, 94560, Note_off_c, 0, 57, 95
2, 94560, Note_off_c, 0, 50, 95
2, 94560, Note_off_c, 0, 45, 95
2, 94560, Note_on_c, 0, 45, 95
2, 94564, Note_on_c, 0, 50, 95
2, 94568, Note_on_c, 0, 57, 95
2, 94572, Note_on_c, 0, 62, 95
2, 94576, Note_on_c, 0, 66, 95
2, 94580, Note_on_c, 0, 69, 95
2, 95040, Note_off_c, 0, 69, 95
2, 95040, Note_off_c, 0, 66, 95
2, 95040, Note_off_c, 0, 62, 95
2, 95040, Note_off_c, 0, 57, 95
2, 95040, Note_off_c, 0, 50, 95
2, 95040, Note_off_c, 0, 45, 95
2, 95040, Note_on_c, 0, 40, 95
2, 95042, Note_on_c, 0, 45, 95
2, 95044, Note_on_c, 0, 50, 95
2, 95046, Note_on_c, 0, 55, 95
2, 95048, Note_on_c, 0, 59, 95
2, 95050, Note_on_c, 0, 64, 95
2, 95082, Note_off_c, 0, 64, 95
2, 95082, Note_off_c, 0, 59, 95
2, 95082, Note_off_c, 0, 55, 95
2, 95082, Note_off_c, 0, 50, 95
2, 95082, Note_off_c, 0, 45, 95
2, 95082, Note_off_c, 0, 40, 95
2, 95280, Note_on_c, 0, 64, 95
2, 95282, Note_on_c, 0, 59, 95
2, 95284, Note_on_c, 0, 55, 95
2, 95286, Note_on_c, 0, 50, 95
2, 95288, Note_on_c, 0, 45, 95
2, 95290, Note_on_c, 0, 40, 95
2, 95322, Note_off_c, 0, 64, 95
2, 95322, Note_off_c, 0, 59, 95
2, 95322, Note_off_c, 0, 55, 95
2, 95322, Note_off_c, 0, 50, 95
2, 95322, Note_off_c, 0, 45, 95
2, 95322, Note_off_c, 0, 40, 95
2, 95520, Note_on_c, 0, 40, 95
2, 95522, Note_on_c, 0, 45, 95
2, 95524, Note_on_c, 0, 50, 95
2, 95526, Note_on_c, 0, 55, 95
2, 95528, Note_on_c, 0, 59, 95
2, 95530, Note_on_c, 0, 64, 95
2, 95562, Note_off_c, 0, 64, 95
2, 95562, Note_off_c, 0, 59, 95
2, 95562, Note_off_c, 0, 55, 95
2, 95562, Note_off_c, 0, 50, 95
2, 95562, Note_off_c, 0, 45, 95
2, 95562, Note_off_c, 0, 40, 95
2, 95760, Note_on_c, 0, 64, 95
2, 95762, Note_on_c, 0, 59, 95
2, 95764, Note_on_c, 0, 55, 95
2, 95766, Note_on_c, 0, 50, 95
2, 95768, Note_on_c, 0, 45, 95
2, 95770, Note_on_c, 0, 40, 95
2, 95802, Note_off_c, 0, 64, 95
2, 95802, Note_off_c, 0, 59, 95
2, 95802, Note_off_c, 0, 55, 95
2, 95802, Note_off_c, 0, 50, 95
2, 95802, Note_off_c, 0, 45, 95
2, 95802, Note_off_c, 0, 40, 95
2, 96000, Note_on_c, 0, 47, 95
2, 96004, Note_on_c, 0, 52, 95
2, 96008, Note_on_c, 0, 59, 95
2, 96012, Note_on_c, 0, 64, 95
2, 96016, Note_on_c, 0, 68, 95
2, 96020, Note_on_c, 0, 71, 95
2, 96480, Note_off_c, 0, 71, 95
2, 96480, Note_off_c, 0, 68, 95
2, 96480, Note_off_c, 0, 64, 95
2, 96480, Note_off_c, 0, 59, 95
2, 96480, Note_off_c, 0, 52, 95
2, 96480, Note_off_c, 0, 47, 95
2, 96480, Note_on_c, 0, 47, 95
2, 96484, Note_on_c, 0, 52, 95
2, 96488, Note_on_c, 0, 59, 95
2, 96492, Note_on_c, 0, 64, 95
2, 96496, Note_on_c, 0, 68, 95
2, 96500, Note_on_c, 0, 71, 95
2, 96960, Note_off_c, 0, 71, 95
2, 96960, Note_off_c, 0, 68, 95
2, 96960, Note_off_c, 0, 64, 95
2, 96960, Note_off_c, 0, 59, 95
2, 96960, Note_off_c, 0, 52, 95
2, 96960, Note_off_c, 0, 47, 95
2, 96960, Note_on_c, 0, 45, 95
2, 96962, Note_on_c, 0, 45, 95
2, 96964, Note_on_c, 0, 50, 95
2, 96966, Note_on_c, 0, 55, 95
2, 96968, Note_on_c, 0, 59, 95
2, 96970, Note_on_c, 0, 64, 95
2, 97002, Note_off_c, 0, 64, 95
2, 97002, Note_off_c, 0, 59, 95
2, 97002, Note_off_c, 0, 55, 95
2, 97002, Note_off_c, 0, 50, 95
2, 97002, Note_off_c, 0, 45, 95
2, 97002, Note_off_c, 0, 45, 95
2, 97200, Note_on_c, 0, 64, 95
2, 97202, Note_on_c, 0, 59, 95
2, 97204, Note_on_c, 0, 55, 95
2, 97206, Note_on_c, 0, 50, 95
2, 97208, Note_on_c, 0, 45, 95
2, 97210, Note_on_c, 0, 40, 95
2, 97242, Note_off_c, 0, 64, 95
2, 97242, Note_off_c, 0, 59, 95
2, 97242, Note_off_c, 0, 55, 95
2, 97242, Note_off_c, 0, 50, 95
2, 97242, Note_off_c, 0, 45, 95
2, 97242, Note_off_c, 0, 40, 95
2, 97440, Note_on_c, 0, 44, 95
2, 97442, Note_on_c, 0, 45, 95
2, 97444, Note_on_c, 0, 50, 95
2, 97446, Note_on_c, 0, 55, 95
2, 97448, Note_on_c, 0, 59, 95
2, 97450, Note_on_c, 0, 64, 95
2, 97482, Note_off_c, 0, 64, 95
2, 97482, Note_off_c, 0, 59, 95
2, 97482, Note_off_c, 0, 55, 95
2, 97482, Note_off_c, 0, 50, 95
2, 97482, Note_off_c, 0, 45, 95
2, 97482, Note_off_c, 0, 44, 95
2, 97680, Note_on_c, 0, 64, 95
2, 97682, Note_on_c, 0, 59, 95
2, 97684, Note_on_c, 0, 55, 95
2, 97686, Note_on_c, 0, 50, 95
2, 97688, Note_on_c, 0, 45, 95
2, 97690, Note_on_c, 0, 40, 95
2, 97722, Note_off_c, 0, 64, 95
2, 97722, Note_off_c, 0, 59, 95
2, 97722, Note_off_c, 0, 55, 95
2, 97722, Note_off_c, 0, 50, 95
2, 97722, Note_off_c, 0, 45, 95
2, 97722, Note_off_c, 0, 40, 95
2, 97920, Note_on_c, 0, 45, 95
2, 97922, Note_on_c, 0, 50, 95
2, 97924, Note_on_c, 0, 57, 95
2, 97926, Note_on_c, 0, 62, 95
2, 97928, Note_on_c, 0, 66, 95
2, 97930, Note_on_c, 0, 69, 95
2, 98160, Note_off_c, 0, 69, 95
2, 98160, Note_off_c, 0, 66, 95
2, 98160, Note_off_c, 0, 62, 95
2, 98160, Note_off_c, 0, 57, 95
2, 98160, Note_off_c, 0, 50, 95
2, 98160, Note_off_c, 0, 45, 95
2, 98400, Note_on_c, 0, 45, 95
2, 98402, Note_on_c, 0, 50, 95
2, 98404, Note_on_c, 0, 57, 95
2, 98406, Note_on_c, 0, 62, 95
2, 98408, Note_on_c, 0, 66, 95
2, 98410, Note_on_c, 0, 69, 95
2, 98442, Note_off_c, 0, 69, 95
2, 98442, Note_off_c, 0, 66, 95
2, 98442, Note_off_c, 0, 62, 95
2, 98442, Note_off_c, 0, 57, 95
2, 98442, Note_off_c, 0, 50, 95
2, 98442, Note_off_c, 0, 45, 95
2, 98640, Note_on_c, 0, 69, 95
2, 98642, Note_on_c, 0, 66, 95
2, 98644, Note_on_c, 0, 62, 95
2, 98646, Note_on_c, 0, 57, 95
2, 98648, Note_on_c, 0, 50, 95
2, 98650, Note_on_c, 0, 45, 95
2, 98880, Note_off_c, 0, 69, 95
2, 98880, Note_off_c, 0, 66, 95
2, 98880, Note_off_c, 0, 62, 95
2, 98880, Note_off_c, 0, 57, 95
2, 98880, Note_off_c, 0, 50, 95
2, 98880, Note_off_c, 0, 45, 95
2, 99120, Note_on_c, 0, 71, 95
2, 99122, Note_on_c, 0, 68, 95
2, 99124, Note_on_c, 0, 64, 95
2, 99126, Note_on_c, 0, 59, 95
2, 99128, Note_on_c, 0, 52, 95
2, 99130, Note_on_c, 0, 47, 95
2, 99360, Note_off_c, 0, 71, 95
2, 99360, Note_off_c, 0, 68, 95
2, 99360, Note_off_c, 0, 64, 95
2, 99360, Note_off_c, 0, 59, 95
2, 99360, Note_off_c, 0, 52, 95
2, 99360, Note_off_c, 0, 47, 95
2, 99360, Note_on_c, 0, 47, 95
2, 99362, Note_on_c, 0, 52, 95
2, 99364, Note_on_c, 0, 59, 95
2, 99366, Note_on_c, 0, 64, 95
2, 99368, Note_on_c, 0, 68, 95
2, 99370, Note_on_c, 0, 71, 95
2, 99600, Note_off_c, 0, 71, 95
2, 99600, Note_off_c, 0, 68, 95
2, 99600, Note_off_c, 0, 64, 95
2, 99600, Note_off_c, 0, 59, 95
2, 99600, Note_off_c, 0, 52, 95
2, 99600, Note_off_c, 0, 47, 95
2, 99840, Note_on_c, 0, 47, 95
2, 99844, Note_on_c, 0, 54, 95
2, 99848, Note_on_c, 0, 59, 95
2, 99852, Note_on_c, 0, 63, 95
2, 99856, Note_on_c, 0, 66, 95
2, 99860, Note_on_c, 0, 71, 95
2, 100320, Note_off_c, 0, 71, 95
2, 100320, Note_off_c, 0, 66, 95
2, 100320, Note_off_c, 0, 63, 95
2, 100320, Note_off_c, 0, 59, 95
2, 100320, Note_off_c, 0, 54, 95
2, 100320, Note_off_c, 0, 47, 95
2, 100320, Note_on_c, 0, 47, 95
2, 100324, Note_on_c, 0, 54, 95
2, 100328, Note_on_c, 0, 59, 95
2, 100332, Note_on_c, 0, 63, 95
2, 100336, Note_on_c, 0, 66, 95
2, 100340, Note_on_c, 0, 71, 95
2, 100800, Note_off_c, 0, 71, 95
2, 100800, Note_off_c, 0, 66, 95
2, 100800, Note_off_c, 0, 63, 95
2, 100800, Note_off_c, 0, 59, 95
2, 100800, Note_off_c, 0, 54, 95
2, 100800, Note_off_c, 0, 47, 95
2, 100800, Note_on_c, 0, 45, 95
2, 100802, Note_on_c, 0, 45, 95
2, 100804, Note_on_c, 0, 50, 95
2, 100806, Note_on_c, 0, 55, 95
2, 100808, Note_on_c, 0, 59, 95
2, 100810, Note_on_c, 0, 64, 95
2, 100842, Note_off_c, 0, 64, 95
2, 100842, Note_off_c, 0, 59, 95
2, 100842, Note_off_c, 0, 55, 95
2, 100842, Note_off_c, 0, 50, 95
2, 100842, Note_off_c, 0, 45, 95
2, 100842, Note_off_c, 0, 45, 95
2, 101040, Note_on_c, 0, 64, 95
2, 101042, Note_on_c, 0, 59, 95
2, 101044, Note_on_c, 0, 55, 95
2, 101046, Note_on_c, 0, 50, 95
2, 101048, Note_on_c, 0, 45, 95
2, 101050, Note_on_c, 0, 40, 95
2, 101082, Note_off_c, 0, 64, 95
2, 101082, Note_off_c, 0, 59, 95
2, 101082, Note_off_c, 0, 55, 95
2, 101082, Note_off_c, 0, 50, 95
2, 101082, Note_off_c, 0, 45, 95
2, 101082, Note_off_c, 0, 40, 95
2, 101280, Note_on_c, 0, 44, 95
2, 101282, Note_on_c, 0, 45, 95
2, 101284, Note_on_c, 0, 50, 95
2, 101286, Note_on_c, 0, 55, 95
2, 101288, Note_on_c, 0, 59, 95
2, 101290, Note_on_c, 0, 64, 95
2, 101322, Note_off_c, 0, 64, 95
2, 101322, Note_off_c, 0, 59, 95
2, 101322, Note_off_c, 0, 55, 95
2, 101322, Note_off_c, 0, 50, 95
2, 101322, Note_off_c, 0, 45, 95
2, 101322, Note_off_c, 0, 44, 95
2, 101520, Note_on_c, 0, 64, 95
2, 101522, Note_on_c, 0, 59, 95
2, 101524, Note_on_c, 0, 55, 95
2, 101526, Note_on_c, 0, 50, 95
2, 101528, Note_on_c, 0, 45, 95
2, 101530, Note_on_c, 0, 40, 95
2, 101562, Note_off_c, 0, 64, 95
2, 101562, Note_off_c, 0, 59, 95
2, 101562, Note_off_c, 0, 55, 95
2, 101562, Note_off_c, 0, 50, 95
2, 101562, Note_off_c, 0, 45, 95
2, 101562, Note_off_c, 0, 40, 95
2, 101760, Note_on_c, 0, 45, 95
2, 101764, Note_on_c, 0, 50, 95
2, 101768, Note_on_c, 0, 57, 95
2, 101772, Note_on_c, 0, 62, 95
2, 101776, Note_on_c, 0, 66, 95
2, 101780, Note_on_c, 0, 69, 95
2, 102240, Note_off_c, 0, 69, 95
2, 102240, Note_off_c, 0, 66, 95
2, 102240, Note_off_c, 0, 62, 95
2, 102240, Note_off_c, 0, 57, 95
2, 102240, Note_off_c, 0, 50, 95
2, 102240, Note_off_c, 0, 45, 95
2, 102240, Note_on_c, 0, 45, 95
2, 102244, Note_on_c, 0, 50, 95
2, 102248, Note_on_c, 0, 57, 95
2, 102252, Note_on_c, 0, 62, 95
2, 102256, Note_on_c, 0, 66, 95
2, 102260, Note_on_c, 0, 69, 95
2, 102720, Note_off_c, 0, 69, 95
2, 102720, Note_off_c, 0, 66, 95
2, 102720, Note_off_c, 0, 62, 95
2, 102720, Note_off_c, 0, 57, 95
2, 102720, Note_off_c, 0, 50, 95
2, 102720, Note_off_c, 0, 45, 95
2, 102720, Note_on_c, 0, 40, 95
2, 102722, Note_on_c, 0, 45, 95
2, 102724, Note_on_c, 0, 50, 95
2, 102726, Note_on_c, 0, 55, 95
2, 102728, Note_on_c, 0, 59, 95
2, 102730, Note_on_c, 0, 64, 95
2, 102762, Note_off_c, 0, 64, 95
2, 102762, Note_off_c, 0, 59, 95
2, 102762, Note_off_c, 0, 55, 95
2, 102762, Note_off_c, 0, 50, 95
2, 102762, Note_off_c, 0, 45, 95
2, 102762, Note_off_c, 0, 40, 95
2, 102960, Note_on_c, 0, 64, 95
2, 102962, Note_on_c, 0, 59, 95
2, 102964, Note_on_c, 0, 55, 95
2, 102966, Note_on_c, 0, 50, 95
2, 102968, Note_on_c, 0, 45, 95
2, 102970, Note_on_c, 0, 40, 95
2, 103002, Note_off_c, 0, 64, 95
2, 103002, Note_off_c, 0, 59, 95
2, 103002, Note_off_c, 0, 55, 95
2, 103002, Note_off_c, 0, 50, 95
2, 103002, Note_off_c, 0, 45, 95
2, 103002, Note_off_c, 0, 40, 95
2, 103200, Note_on_c, 0, 40, 95
2, 103202, Note_on_c, 0, 45, 95
2, 103204, Note_on_c, 0, 50, 95
2, 103206, Note_on_c, 0, 55, 95
2, 103208, Note_on_c, 0, 59, 95
2, 103210, Note_on_c, 0, 64, 95
2, 103242, Note_off_c, 0, 64, 95
2, 103242, Note_off_c, 0, 59, 95
2, 103242, Note_off_c, 0, 55, 95
2, 103242, Note_off_c, 0, 50, 95
2, 103242, Note_off_c, 0, 45, 95
2, 103242, Note_off_c, 0, 40, 95
2, 103440, Note_on_c, 0, 64, 95
2, 103442, Note_on_c, 0, 59, 95
2, 103444, Note_on_c, 0, 55, 95
2, 103446, Note_on_c, 0, 50, 95
2, 103448, Note_on_c, 0, 45, 95
2, 103450, Note_on_c, 0, 40, 95
2, 103482, Note_off_c, 0, 64, 95
2, 103482, Note_off_c, 0, 59, 95
2, 103482, Note_off_c, 0, 55, 95
2, 103482, Note_off_c, 0, 50, 95
2, 103482, Note_off_c, 0, 45, 95
2, 103482, Note_off_c, 0, 40, 95
2, 103680, Note_on_c, 0, 47, 95
2, 103684, Note_on_c, 0, 52, 95
2, 103688, Note_on_c, 0, 59, 95
2, 103692, Note_on_c, 0, 64, 95
2, 103696, Note_on_c, 0, 68, 95
2, 103700, Note_on_c, 0, 71, 95
2, 104160, Note_off_c, 0, 71, 95
2, 104160, Note_off_c, 0, 68, 95
2, 104160, Note_off_c, 0, 64, 95
2, 104160, Note_off_c, 0, 59, 95
2, 104160, Note_off_c, 0, 52, 95
2, 104160, Note_off_c, 0, 47, 95
2, 104160, Note_on_c, 0, 47, 95
2, 104164, Note_on_c, 0, 52, 95
2, 104168, Note_on_c, 0, 59, 95
2, 104172, Note_on_c, 0, 64, 95
2, 104176, Note_on_c, 0, 68, 95
2, 104180, Note_on_c, 0, 71, 95
2, 104640, Note_off_c, 0, 71, 95
2, 104640, Note_off_c, 0, 68, 95
2, 104640, Note_off_c, 0, 64, 95
2, 104640, Note_off_c, 0, 59, 95
2, 104640, Note_off_c, 0, 52, 95
2, 104640, Note_off_c, 0, 47, 95
2, 104640, Note_on_c, 0, 45, 95
2, 104642, Note_on_c, 0, 45, 95
2, 104644, Note_on_c, 0, 50, 95
2, 104646, Note_on_c, 0, 55, 95
2, 104648, Note_on_c, 0, 59, 95
2, 104650, Note_on_c, 0, 64, 95
2, 104682, Note_off_c, 0, 64, 95
2, 104682, Note_off_c, 0, 59, 95
2, 104682, Note_off_c, 0, 55, 95
2, 104682, Note_off_c, 0, 50, 95
2, 104682, Note_off_c, 0, 45, 95
2, 104682, Note_off_c, 0, 45, 95
2, 104880, Note_on_c, 0, 64, 95
2, 104882, Note_on_c, 0, 59, 95
2, 104884, Note_on_c, 0, 55, 95
2, 104886, Note_on_c, 0, 50, 95
2, 104888, Note_on_c, 0, 45, 95
2, 104890, Note_on_c, 0, 40, 95
2, 104922, Note_off_c, 0, 64, 95
2, 104922, Note_off_c, 0, 59, 95
2, 104922, Note_off_c, 0, 55, 95
2, 104922, Note_off_c, 0, 50, 95
2, 104922, Note_off_c, 0, 45, 95
2, 104922, Note_off_c, 0, 40, 95
2, 105120, Note_on_c, 0, 44, 95
2, 105122, Note_on_c, 0, 45, 95
2, 105124, Note_on_c, 0, 50, 95
2, 105126, Note_on_c, 0, 55, 95
2, 105128, Note_on_c, 0, 59, 95
2, 105130, Note_on_c, 0, 64, 95
2, 105162, Note_off_c, 0, 64, 95
2, 105162, Note_off_c, 0, 59, 95
2, 105162, Note_off_c, 0, 55, 95
2, 105162, Note_off_c, 0, 50, 95
2, 105162, Note_off_c, 0, 45, 95
2, 105162, Note_off_c, 0, 44, 95
2, 105360, Note_on_c, 0, 64, 95
2, 105362, Note_on_c, 0, 59, 95
2, 105364, Note_on_c, 0, 55, 95
2, 105366, Note_on_c, 0, 50, 95
2, 105368, Note_on_c, 0, 45, 95
2, 105370, Note_on_c, 0, 40, 95
2, 105402, Note_off_c, 0, 64, 95
2, 105402, Note_off_c, 0, 59, 95
2, 105402, Note_off_c, 0, 55, 95
2, 105402, Note_off_c, 0, 50, 95
2, 105402, Note_off_c, 0, 45, 95
2, 105402, Note_off_c, 0, 40, 95
2, 105600, Note_on_c, 0, 45, 95
2, 105602, Note_on_c, 0, 50, 95
2, 105604, Note_on_c, 0, 57, 95
2, 105606, Note_on_c, 0, 62, 95
2, 105608, Note_on_c, 0, 66, 95
2, 105610, Note_on_c, 0, 69, 95
2, 105840, Note_off_c, 0, 69, 95
2, 105840, Note_off_c, 0, 66, 95
2, 105840, Note_off_c, 0, 62, 95
2, 105840, Note_off_c, 0, 57, 95
2, 105840, Note_off_c, 0, 50, 95
2, 105840, Note_off_c, 0, 45, 95
2, 106080, Note_on_c, 0, 45, 95
2, 106082, Note_on_c, 0, 50, 95
2, 106084, Note_on_c, 0, 57, 95
2, 106086, Note_on_c, 0, 62, 95
2, 106088, Note_on_c, 0, 66, 95
2, 106090, Note_on_c, 0, 69, 95
2, 106122, Note_off_c, 0, 69, 95
2, 106122, Note_off_c, 0, 66, 95
2, 106122, Note_off_c, 0, 62, 95
2, 106122, Note_off_c, 0, 57, 95
2, 106122, Note_off_c, 0, 50, 95
2, 106122, Note_off_c, 0, 45, 95
2, 106320, Note_on_c, 0, 69, 95
2, 106322, Note_on_c, 0, 66, 95
2, 106324, Note_on_c, 0, 62, 95
2, 106326, Note_on_c, 0, 57, 95
2, 106328, Note_on_c, 0, 50, 95
2, 106330, Note_on_c, 0, 45, 95
2, 106560, Note_off_c, 0, 69, 95
2, 106560, Note_off_c, 0, 66, 95
2, 106560, Note_off_c, 0, 62, 95
2, 106560, Note_off_c, 0, 57, 95
2, 106560, Note_off_c, 0, 50, 95
2, 106560, Note_off_c, 0, 45, 95
2, 106800, Note_on_c, 0, 71, 95
2, 106802, Note_on_c, 0, 68, 95
2, 106804, Note_on_c, 0, 64, 95
2, 106806, Note_on_c, 0, 59, 95
2, 106808, Note_on_c, 0, 52, 95
2, 106810, Note_on_c, 0, 47, 95
2, 107040, Note_off_c, 0, 71, 95
2, 107040, Note_off_c, 0, 68, 95
2, 107040, Note_off_c, 0, 64, 95
2, 107040, Note_off_c, 0, 59, 95
2, 107040, Note_off_c, 0, 52, 95
2, 107040, Note_off_c, 0, 47, 95
2, 107040, Note_on_c, 0, 47, 95
2, 107042, Note_on_c, 0, 52, 95
2, 107044, Note_on_c, 0, 59, 95
2, 107046, Note_on_c, 0, 64, 95
2, 107048, Note_on_c, 0, 68, 95
2, 107050, Note_on_c, 0, 71, 95
2, 107280, Note_off_c, 0, 71, 95
2, 107280, Note_off_c, 0, 68, 95
2, 107280, Note_off_c, 0, 64, 95
2, 107280, Note_off_c, 0, 59, 95
2, 107280, Note_off_c, 0, 52, 95
2, 107280, Note_off_c, 0, 47, 95
2, 107520, Note_on_c, 0, 47, 95
2, 107524, Note_on_c, 0, 54, 95
2, 107528, Note_on_c, 0, 59, 95
2, 107532, Note_on_c, 0, 63, 95
2, 107536, Note_on_c, 0, 66, 95
2, 107540, Note_on_c, 0, 71, 95
2, 108000, Note_off_c, 0, 71, 95
2, 108000, Note_off_c, 0, 66, 95
2, 108000, Note_off_c, 0, 63, 95
2, 108000, Note_off_c, 0, 59, 95
2, 108000, Note_off_c, 0, 54, 95
2, 108000, Note_off_c, 0, 47, 95
2, 108000, Note_on_c, 0, 47, 95
2, 108004, Note_on_c, 0, 54, 95
2, 108008, Note_on_c, 0, 59, 95
2, 108012, Note_on_c, 0, 63, 95
2, 108016, Note_on_c, 0, 66, 95
2, 108020, Note_on_c, 0, 71, 95
2, 108480, Note_off_c, 0, 71, 95
2, 108480, Note_off_c, 0, 66, 95
2, 108480, Note_off_c, 0, 63, 95
2, 108480, Note_off_c, 0, 59, 95
2, 108480, Note_off_c, 0, 54, 95
2, 108480, Note_off_c, 0, 47, 95
2, 108480, Note_on_c, 0, 45, 95
2, 108482, Note_on_c, 0, 45, 95
2, 108484, Note_on_c, 0, 50, 95
2, 108486, Note_on_c, 0, 55, 95
2, 108488, Note_on_c, 0, 59, 95
2, 108490, Note_on_c, 0, 64, 95
2, 108522, Note_off_c, 0, 64, 95
2, 108522, Note_off_c, 0, 59, 95
2, 108522, Note_off_c, 0, 55, 95
2, 108522, Note_off_c, 0, 50, 95
2, 108522, Note_off_c, 0, 45, 95
2, 108522, Note_off_c, 0, 45, 95
2, 108720, Note_on_c, 0, 64, 95
2, 108722, Note_on_c, 0, 59, 95
2, 108724, Note_on_c, 0, 55, 95
2, 108726, Note_on_c, 0, 50, 95
2, 108728, Note_on_c, 0, 45, 95
2, 108730, Note_on_c, 0, 40, 95
2, 108762, Note_off_c, 0, 64, 95
2, 108762, Note_off_c, 0, 59, 95
2, 108762, Note_off_c, 0, 55, 95
2, 108762, Note_off_c, 0, 50, 95
2, 108762, Note_off_c, 0, 45, 95
2, 108762, Note_off_c, 0, 40, 95
2, 108960, Note_on_c, 0, 44, 95
2, 108962, Note_on_c, 0, 45, 95
2, 108964, Note_on_c, 0, 50, 95
2, 108966, Note_on_c, 0, 55, 95
2, 108968, Note_on_c, 0, 59, 95
2, 108970, Note_on_c, 0, 64, 95
2, 109002, Note_off_c, 0, 64, 95
2, 109002, Note_off_c, 0, 59, 95
2, 109002, Note_off_c, 0, 55, 95
2, 109002, Note_off_c, 0, 50, 95
2, 109002, Note_off_c, 0, 45, 95
2, 109002, Note_off_c, 0, 44, 95
2, 109200, Note_on_c, 0, 64, 95
2, 109202, Note_on_c, 0, 59, 95
2, 109204, Note_on_c, 0, 55, 95
2, 109206, Note_on_c, 0, 50, 95
2, 109208, Note_on_c, 0, 45, 95
2, 109210, Note_on_c, 0, 40, 95
2, 109242, Note_off_c, 0, 64, 95
2, 109242, Note_off_c, 0, 59, 95
2, 109242, Note_off_c, 0, 55, 95
2, 109242, Note_off_c, 0, 50, 95
2, 109242, Note_off_c, 0, 45, 95
2, 109242, Note_off_c, 0, 40, 95
2, 109440, Note_on_c, 0, 45, 95
2, 109444, Note_on_c, 0, 50, 95
2, 109448, Note_on_c, 0, 57, 95
2, 109452, Note_on_c, 0, 62, 95
2, 109456, Note_on_c, 0, 66, 95
2, 109460, Note_on_c, 0, 69, 95
2, 109920, Note_off_c, 0, 69, 95
2, 109920, Note_off_c, 0, 66, 95
2, 109920, Note_off_c, 0, 62, 95
2, 109920, Note_off_c, 0, 57, 95
2, 109920, Note_off_c, 0, 50, 95
2, 109920, Note_off_c, 0, 45, 95
2, 109920, Note_on_c, 0, 45, 95
2, 109924, Note_on_c, 0, 50, 95
2, 109928, Note_on_c, 0, 57, 95
2, 109932, Note_on_c, 0, 62, 95
2, 109936, Note_on_c, 0, 66, 95
2, 109940, Note_on_c, 0, 69, 95
2, 110400, Note_off_c, 0, 69, 95
2, 110400, Note_off_c, 0, 66, 95
2, 110400, Note_off_c, 0, 62, 95
2, 110400, Note_off_c, 0, 57, 95
2, 110400, Note_off_c, 0, 50, 95
2, 110400, Note_off_c, 0, 45, 95
2, 110400, Note_on_c, 0, 40, 95
2, 110402, Note_on_c, 0, 45, 95
2, 110404, Note_on_c, 0, 50, 95
2, 110406, Note_on_c, 0, 55, 95
2, 110408, Note_on_c, 0, 59, 95
2, 110410, Note_on_c, 0, 64, 95
2, 110442, Note_off_c, 0, 64, 95
2, 110442, Note_off_c, 0, 59, 95
2, 110442, Note_off_c, 0, 55, 95
2, 110442, Note_off_c, 0, 50, 95
2, 110442, Note_off_c, 0, 45, 95
2, 110442, Note_off_c, 0, 40, 95
2, 110640, Note_on_c, 0, 64, 95
2, 110642, Note_on_c, 0, 59, 95
2, 110644, Note_on_c, 0, 55, 95
2, 110646, Note_on_c, 0, 50, 95
2, 110648, Note_on_c, 0, 45, 95
2, 110650, Note_on_c, 0, 40, 95
2, 110682, Note_off_c, 0, 64, 95
2, 110682, Note_off_c, 0, 59, 95
2, 110682, Note_off_c, 0, 55, 95
2, 110682, Note_off_c, 0, 50, 95
2, 110682, Note_off_c, 0, 45, 95
2, 110682, Note_off_c, 0, 40, 95
2, 110880, Note_on_c, 0, 40, 95
2, 110882, Note_on_c, 0, 45, 95
2, 110884, Note_on_c, 0, 50, 95
2, 110886, Note_on_c, 0, 55, 95
2, 110888, Note_on_c, 0, 59, 95
2, 110890, Note_on_c, 0, 64, 95
2, 110922, Note_off_c, 0, 64, 95
2, 110922, Note_off_c, 0, 59, 95
2, 110922, Note_off_c, 0, 55, 95
2, 110922, Note_off_c, 0, 50, 95
2, 110922, Note_off_c, 0, 45, 95
2, 110922, Note_off_c, 0, 40, 95
2, 111120, Note_on_c, 0, 64, 95
2, 111122, Note_on_c, 0, 59, 95
2, 111124, Note_on_c, 0, 55, 95
2, 111126, Note_on_c, 0, 50, 95
2, 111128, Note_on_c, 0, 45, 95
2, 111130, Note_on_c, 0, 40, 95
2, 111162, Note_off_c, 0, 64, 95
2, 111162, Note_off_c, 0, 59, 95
2, 111162, Note_off_c, 0, 55, 95
2, 111162, Note_off_c, 0, 50, 95
2, 111162, Note_off_c, 0, 45, 95
2, 111162, Note_off_c, 0, 40, 95
2, 111360, Note_on_c, 0, 47, 95
2, 111364, Note_on_c, 0, 52, 95
2, 111368, Note_on_c, 0, 59, 95
2, 111372, Note_on_c, 0, 64, 95
2, 111376, Note_on_c, 0, 68, 95
2, 111380, Note_on_c, 0, 71, 95
2, 111840, Note_off_c, 0, 71, 95
2, 111840, Note_off_c, 0, 68, 95
2, 111840, Note_off_c, 0, 64, 95
2, 111840, Note_off_c, 0, 59, 95
2, 111840, Note_off_c, 0, 52, 95
2, 111840, Note_off_c, 0, 47, 95
2, 111840, Note_on_c, 0, 47, 95
2, 111844, Note_on_c, 0, 52, 95
2, 111848, Note_on_c, 0, 59, 95
2, 111852, Note_on_c, 0, 64, 95
2, 111856, Note_on_c, 0, 68, 95
2, 111860, Note_on_c, 0, 71, 95
2, 112320, Note_off_c, 0, 71, 95
2, 112320, Note_off_c, 0, 68, 95
2, 112320, Note_off_c, 0, 64, 95
2, 112320, Note_off_c, 0, 59, 95
2, 112320, Note_off_c, 0, 52, 95
2, 112320, Note_off_c, 0, 47, 95
2, 112320, Note_on_c, 0, 45, 95
2, 112322, Note_on_c, 0, 45, 95
2, 112324, Note_on_c, 0, 50, 95
2, 112326, Note_on_c, 0, 55, 95
2, 112328, Note_on_c, 0, 59, 95
2, 112330, Note_on_c, 0, 64, 95
2, 112362, Note_off_c, 0, 64, 95
2, 112362, Note_off_c, 0, 59, 95
2, 112362, Note_off_c, 0, 55, 95
2, 112362, Note_off_c, 0, 50, 95
2, 112362, Note_off_c, 0, 45, 95
2, 112362, Note_off_c, 0, 45, 95
2, 112560, Note_on_c, 0, 64, 95
2, 112562, Note_on_c, 0, 59, 95
2, 112564, Note_on_c, 0, 55, 95
2, 112566, Note_on_c, 0, 50, 95
2, 112568, Note_on_c, 0, 45, 95
2, 112570, Note_on_c, 0, 40, 95
2, 112602, Note_off_c, 0, 64, 95
2, 112602, Note_off_c, 0, 59, 95
2, 112602, Note_off_c, 0, 55, 95
2, 112602, Note_off_c, 0, 50, 95
2, 112602, Note_off_c, 0, 45, 95
2, 112602, Note_off_c, 0, 40, 95
2, 112800, Note_on_c, 0, 44, 95
2, 112802, Note_on_c, 0, 45, 95
2, 112804, Note_on_c, 0, 50, 95
2, 112806, Note_on_c, 0, 55, 95
2, 112808, Note_on_c, 0, 59, 95
2, 112810, Note_on_c, 0, 64, 95
2, 112842, Note_off_c, 0, 64, 95
2, 112842, Note_off_c, 0, 59, 95
2, 112842, Note_off_c, 0, 55, 95
2, 112842, Note_off_c, 0, 50, 95
2, 112842, Note_off_c, 0, 45, 95
2, 112842, Note_off_c, 0, 44, 95
2, 113040, Note_on_c, 0, 64, 95
2, 113042, Note_on_c, 0, 59, 95
2, 113044, Note_on_c, 0, 55, 95
2, 113046, Note_on_c, 0, 50, 95
2, 113048, Note_on_c, 0, 45, 95
2, 113050, Note_on_c, 0, 40, 95
2, 113082, Note_off_c, 0, 64, 95
2, 113082, Note_off_c, 0, 59, 95
2, 113082, Note_off_c, 0, 55, 95
2, 113082, Note_off_c, 0, 50, 95
2, 113082, Note_off_c, 0, 45, 95
2, 113082, Note_off_c, 0, 40, 95
2, 113280, Note_on_c, 0, 45, 95
2, 113282, Note_on_c, 0, 50, 95
2, 113284, Note_on_c, 0, 57, 95
2, 113286, Note_on_c, 0, 62, 95
2, 113288, Note_on_c, 0, 66, 95
2, 113290, Note_on_c, 0, 69, 95
2, 113520, Note_off_c, 0, 69, 95
2, 113520, Note_off_c, 0, 66, 95
2, 113520, Note_off_c, 0, 62, 95
2, 113520, Note_off_c, 0, 57, 95
2, 113520, Note_off_c, 0, 50, 95
2, 113520, Note_off_c, 0, 45, 95
2, 113760, Note_on_c, 0, 45, 95
2, 113762, Note_on_c, 0, 50, 95
2, 113764, Note_on_c, 0, 57, 95
2, 113766, Note_on_c, 0, 62, 95
2, 113768, Note_on_c, 0, 66, 95
2, 113770, Note_on_c, 0, 69, 95
2, 113802, Note_off_c, 0, 69, 95
2, 113802, Note_off_c, 0, 66, 95
2, 113802, Note_off_c, 0, 62, 95
2, 113802, Note_off_c, 0, 57, 95
2, 113802, Note_off_c, 0, 50, 95
2, 113802, Note_off_c, 0, 45, 95
2, 114000, Note_on_c, 0, 69, 95
2, 114002, Note_on_c, 0, 66, 95
2, 114004, Note_on_c, 0, 62, 95
2, 114006, Note_on_c, 0, 57, 95
2, 114008, Note_on_c, 0, 50, 95
2, 114010, Note_on_c, 0, 45, 95
2, 114240, Note_off_c, 0, 69, 95
2, 114240, Note_off_c, 0, 66, 95
2, 114240, Note_off_c, 0, 62, 95
2, 114240, Note_off_c, 0, 57, 95
2, 114240, Note_off_c, 0, 50, 95
2, 114240, Note_off_c, 0, 45, 95
2, 114480, Note_on_c, 0, 71, 95
2, 114482, Note_on_c, 0, 68, 95
2, 114484, Note_on_c, 0, 64, 95
2, 114486, Note_on_c, 0, 59, 95
2, 114488, Note_on_c, 0, 52, 95
2, 114490, Note_on_c, 0, 47, 95
2, 114720, Note_off_c, 0, 71, 95
2, 114720, Note_off_c, 0, 68, 95
2, 114720, Note_off_c, 0, 64, 95
2, 114720, Note_off_c, 0, 59, 95
2, 114720, Note_off_c, 0, 52, 95
2, 114720, Note_off_c, 0, 47, 95
2, 114720, Note_on_c, 0, 47, 95
2, 114722, Note_on_c, 0, 52, 95
2, 114724, Note_on_c, 0, 59, 95
2, 114726, Note_on_c, 0, 64, 95
2, 114728, Note_on_c, 0, 68, 95
2, 114730, Note_on_c, 0, 71, 95
2, 114960, Note_off_c, 0, 71, 95
2, 114960, Note_off_c, 0, 68, 95
2, 114960, Note_off_c, 0, 64, 95
2, 114960, Note_off_c, 0, 59, 95
2, 114960, Note_off_c, 0, 52, 95
2, 114960, Note_off_c, 0, 47, 95
2, 115200, Note_on_c, 0, 47, 95
2, 115204, Note_on_c, 0, 54, 95
2, 115208, Note_on_c, 0, 59, 95
2, 115212, Note_on_c, 0, 63, 95
2, 115216, Note_on_c, 0, 66, 95
2, 115220, Note_on_c, 0, 71, 95
2, 115680, Note_off_c, 0, 71, 95
2, 115680, Note_off_c, 0, 66, 95
2, 115680, Note_off_c, 0, 63, 95
2, 115680, Note_off_c, 0, 59, 95
2, 115680, Note_off_c, 0, 54, 95
2, 115680, Note_off_c, 0, 47, 95
2, 115680, Note_on_c, 0, 47, 95
2, 115684, Note_on_c, 0, 54, 95
2, 115688, Note_on_c, 0, 59, 95
2, 115692, Note_on_c, 0, 63, 95
2, 115696, Note_on_c, 0, 66, 95
2, 115700, Note_on_c, 0, 71, 95
2, 116160, Note_off_c, 0, 71, 95
2, 116160, Note_off_c, 0, 66, 95
2, 116160, Note_off_c, 0, 63, 95
2, 116160, Note_off_c, 0, 59, 95
2, 116160, Note_off_c, 0, 54, 95
2, 116160, Note_off_c, 0, 47, 95
2, 116160, Note_on_c, 0, 45, 95
2, 116162, Note_on_c, 0, 45, 95
2, 116164, Note_on_c, 0, 50, 95
2, 116166, Note_on_c, 0, 55, 95
2, 116168, Note_on_c, 0, 59, 95
2, 116170, Note_on_c, 0, 64, 95
2, 116202, Note_off_c, 0, 64, 95
2, 116202, Note_off_c, 0, 59, 95
2, 116202, Note_off_c, 0, 55, 95
2, 116202, Note_off_c, 0, 50, 95
2, 116202, Note_off_c, 0, 45, 95
2, 116202, Note_off_c, 0, 45, 95
2, 116400, Note_on_c, 0, 64, 95
2, 116402, Note_on_c, 0, 59, 95
2, 116404, Note_on_c, 0, 55, 95
2, 116406, Note_on_c, 0, 50, 95
2, 116408, Note_on_c, 0, 45, 95
2, 116410, Note_on_c, 0, 40, 95
2, 116442, Note_off_c, 0, 64, 95
2, 116442, Note_off_c, 0, 59, 95
2, 116442, Note_off_c, 0, 55, 95
2, 116442, Note_off_c, 0, 50, 95
2, 116442, Note_off_c, 0, 45, 95
2, 116442, Note_off_c, 0, 40, 95
2, 116640, Note_on_c, 0, 44, 95
2, 116642, Note_on_c, 0, 45, 95
2, 116644, Note_on_c, 0, 50, 95
2, 116646, Note_on_c, 0, 55, 95
2, 116648, Note_on_c, 0, 59, 95
2, 116650, Note_on_c, 0, 64, 95
2, 116682, Note_off_c, 0, 64, 95
2, 116682, Note_off_c, 0, 59, 95
2, 116682, Note_off_c, 0, 55, 95
2, 116682, Note_off_c, 0, 50, 95
2, 116682, Note_off_c, 0, 45, 95
2, 116682, Note_off_c, 0, 44, 95
2, 116880, Note_on_c, 0, 64, 95
2, 116882, Note_on_c, 0, 59, 95
2, 116884, Note_on_c, 0, 55, 95
2, 116886, Note_on_c, 0, 50, 95
2, 116888, Note_on_c, 0, 45, 95
2, 116890, Note_on_c, 0, 40, 95
2, 116922, Note_off_c, 0, 64, 95
2, 116922, Note_off_c, 0, 59, 95
2, 116922, Note_off_c, 0, 55, 95
2, 116922, Note_off_c, 0, 50, 95
2, 116922, Note_off_c, 0, 45, 95
2, 116922, Note_off_c, 0, 40, 95
2, 117120, Note_on_c, 0, 45, 95
2, 117124, Note_on_c, 0, 50, 95
2, 117128, Note_on_c, 0, 57, 95
2, 117132, Note_on_c, 0, 62, 95
2, 117136, Note_on_c, 0, 66, 95
2, 117140, Note_on_c, 0, 69, 95
2, 117600, Note_off_c, 0, 69, 95
2, 117600, Note_off_c, 0, 66, 95
2, 117600, Note_off_c, 0, 62, 95
2, 117600, Note_off_c, 0, 57, 95
2, 117600, Note_off_c, 0, 50, 95
2, 117600, Note_off_c, 0, 45, 95
2, 117600, Note_on_c, 0, 45, 95
2, 117604, Note_on_c, 0, 50, 95
2, 117608, Note_on_c, 0, 57, 95
2, 117612, Note_on_c, 0, 62, 95
2, 117616, Note_on_c, 0, 66, 95
2, 117620, Note_on_c, 0, 69, 95
2, 118080, Note_off_c, 0, 69, 95
2, 118080, Note_off_c, 0, 66, 95
2, 118080, Note_off_c, 0, 62, 95
2, 118080, Note_off_c, 0, 57, 95
2, 118080, Note_off_c, 0, 50, 95
2, 118080, Note_off_c, 0, 45, 95
2, 118080, Note_on_c, 0, 40, 95
2, 118082, Note_on_c, 0, 45, 95
2, 118084, Note_on_c, 0, 50, 95
2, 118086, Note_on_c, 0, 55, 95
2, 118088, Note_on_c, 0, 59, 95
2, 118090, Note_on_c, 0, 64, 95
2, 118122, Note_off_c, 0, 64, 95
2, 118122, Note_off_c, 0, 59, 95
2, 118122, Note_off_c, 0, 55, 95
2, 118122, Note_off_c, 0, 50, 95
2, 118122, Note_off_c, 0, 45, 95
2, 118122, Note_off_c, 0, 40, 95
2, 118320, Note_on_c, 0, 64, 95
2, 118322, Note_on_c, 0, 59, 95
2, 118324, Note_on_c, 0, 55, 95
2, 118326, Note_on_c, 0, 50, 95
2, 118328, Note_on_c, 0, 45, 95
2, 118330, Note_on_c, 0, 40, 95
2, 118362, Note_off_c, 0, 64, 95
2, 118362, Note_off_c, 0, 59, 95
2, 118362, Note_off_c, 0, 55, 95
2, 118362, Note_off_c, 0, 50, 95
2, 118362, Note_off_c, 0, 45, 95
2, 118362, Note_off_c, 0, 40, 95
2, 118560, Note_on_c, 0, 40, 95
2, 118562, Note_on_c, 0, 45, 95
2, 118564, Note_on_c, 0, 50, 95
2, 118566, Note_on_c, 0, 55, 95
2, 118568, Note_on_c, 0, 59, 95
2, 118570, Note_on_c, 0, 64, 95
2, 118602, Note_off_c, 0, 64, 95
2, 118602, Note_off_c, 0, 59, 95
2, 118602, Note_off_c, 0, 55, 95
2, 118602, Note_off_c, 0, 50, 95
2, 118602, Note_off_c, 0, 45, 95
2, 118602, Note_off_c, 0, 40, 95
2, 118800, Note_on_c, 0, 64, 95
2, 118802, Note_on_c, 0, 59, 95
2, 118804, Note_on_c, 0, 55, 95
2, 118806, Note_on_c, 0, 50, 95
2, 118808, Note_on_c, 0, 45, 95
2, 118810, Note_on_c, 0, 40, 95
2, 118842, Note_off_c, 0, 64, 95
2, 118842, Note_off_c, 0, 59, 95
2, 118842, Note_off_c, 0, 55, 95
2, 118842, Note_off_c, 0, 50, 95
2, 118842, Note_off_c, 0, 45, 95
2, 118842, Note_off_c, 0, 40, 95
2, 119040, Note_on_c, 0, 47, 95
2, 119044, Note_on_c, 0, 52, 95
2, 119048, Note_on_c, 0, 59, 95
2, 119052, Note_on_c, 0, 64, 95
2, 119056, Note_on_c, 0, 68, 95
2, 119060, Note_on_c, 0, 71, 95
2, 119520, Note_off_c, 0, 71, 95
2, 119520, Note_off_c, 0, 68, 95
2, 119520, Note_off_c, 0, 64, 95
2, 119520, Note_off_c, 0, 59, 95
2, 119520, Note_off_c, 0, 52, 95
2, 119520, Note_off_c, 0, 47, 95
2, 119520, Note_on_c, 0, 47, 95
2, 119524, Note_on_c, 0, 52, 95
2, 119528, Note_on_c, 0, 59, 95
2, 119532, Note_on_c, 0, 64, 95
2, 119536, Note_on_c, 0, 68, 95
2, 119540, Note_on_c, 0, 71, 95
2, 120000, Note_off_c, 0, 71, 95
2, 120000, Note_off_c, 0, 68, 95
2, 120000, Note_off_c, 0, 64, 95
2, 120000, Note_off_c, 0, 59, 95
2, 120000, Note_off_c, 0, 52, 95
2, 120000, Note_off_c, 0, 47, 95
2, 120000, Note_on_c, 0, 45, 95
2, 120002, Note_on_c, 0, 45, 95
2, 120004, Note_on_c, 0, 50, 95
2, 120006, Note_on_c, 0, 55, 95
2, 120008, Note_on_c, 0, 59, 95
2, 120010, Note_on_c, 0, 64, 95
2, 120042, Note_off_c, 0, 64, 95
2, 120042, Note_off_c, 0, 59, 95
2, 120042, Note_off_c, 0, 55, 95
2, 120042, Note_off_c, 0, 50, 95
2, 120042, Note_off_c, 0, 45, 95
2, 120042, Note_off_c, 0, 45, 95
2, 120240, Note_on_c, 0, 64, 95
2, 120242, Note_on_c, 0, 59, 95
2, 120244, Note_on_c, 0, 55, 95
2, 120246, Note_on_c, 0, 50, 95
2, 120248, Note_on_c, 0, 45, 95
2, 120250, Note_on_c, 0, 40, 95
2, 120282, Note_off_c, 0, 64, 95
2, 120282, Note_off_c, 0, 59, 95
2, 120282, Note_off_c, 0, 55, 95
2, 120282, Note_off_c, 0, 50, 95
2, 120282, Note_off_c, 0, 45, 95
2, 120282, Note_off_c, 0, 40, 95
2, 120480, Note_on_c, 0, 44, 95
2, 120482, Note_on_c, 0, 45, 95
2, 120484, Note_on_c, 0, 50, 95
2, 120486, Note_on_c, 0, 55, 95
2, 120488, Note_on_c, 0, 59, 95
2, 120490, Note_on_c, 0, 64, 95
2, 120522, Note_off_c, 0, 64, 95
2, 120522, Note_off_c, 0, 59, 95
2, 120522, Note_off_c, 0, 55, 95
2, 120522, Note_off_c, 0, 50, 95
2, 120522, Note_off_c, 0, 45, 95
2, 120522, Note_off_c, 0, 44, 95
2, 120720, Note_on_c, 0, 64, 95
2, 120722, Note_on_c, 0, 59, 95
2, 120724, Note_on_c, 0, 55, 95
2, 120726, Note_on_c, 0, 50, 95
2, 120728, Note_on_c, 0, 45, 95
2, 120730, Note_on_c, 0, 40, 95
2, 120762, Note_off_c, 0, 64, 95
2, 120762, Note_off_c, 0, 59, 95
2, 120762, Note_off_c, 0, 55, 95
2, 120762, Note_off_c, 0, 50, 95
2, 120762, Note_off_c, 0, 45, 95
2, 120762, Note_off_c, 0, 40, 95
2, 120960, Note_on_c, 0, 45, 95
2, 120962, Note_on_c, 0, 50, 95
2, 120964, Note_on_c, 0, 57, 95
2, 120966, Note_on_c, 0, 62, 95
2, 120968, Note_on_c, 0, 66, 95
2, 120970, Note_on_c, 0, 69, 95
2, 121200, Note_off_c, 0, 69, 95
2, 121200, Note_off_c, 0, 66, 95
2, 121200, Note_off_c, 0, 62, 95
2, 121200, Note_off_c, 0, 57, 95
2, 121200, Note_off_c, 0, 50, 95
2, 121200, Note_off_c, 0, 45, 95
2, 121440, Note_on_c, 0, 45, 95
2, 121442, Note_on_c, 0, 50, 95
2, 121444, Note_on_c, 0, 57, 95
2, 121446, Note_on_c, 0, 62, 95
2, 121448, Note_on_c, 0, 66, 95
2, 121450, Note_on_c, 0, 69, 95
2, 121482, Note_off_c, 0, 69, 95
2, 121482, Note_off_c, 0, 66, 95
2, 121482, Note_off_c, 0, 62, 95
2, 121482, Note_off_c, 0, 57, 95
2, 121482, Note_off_c, 0, 50, 95
2, 121482, Note_off_c, 0, 45, 95
2, 121680, Note_on_c, 0, 69, 95
2, 121682, Note_on_c, 0, 66, 95
2, 121684, Note_on_c, 0, 62, 95
2, 121686, Note_on_c, 0, 57, 95
2, 121688, Note_on_c, 0, 50, 95
2, 121690, Note_on_c, 0, 45, 95
2, 121920, Note_off_c, 0, 69, 95
2, 121920, Note_off_c, 0, 66, 95
2, 121920, Note_off_c, 0, 62, 95
2, 121920, Note_off_c, 0, 57, 95
2, 121920, Note_off_c, 0, 50, 95
2, 121920, Note_off_c, 0, 45, 95
2, 122160, Note_on_c, 0, 71, 95
2, 122162, Note_on_c, 0, 68, 95
2, 122164, Note_on_c, 0, 64, 95
2, 122166, Note_on_c, 0, 59, 95
2, 122168, Note_on_c, 0, 52, 95
2, 122170, Note_on_c, 0, 47, 95
2, 122400, Note_off_c, 0, 71, 95
2, 122400, Note_off_c, 0, 68, 95
2, 122400, Note_off_c, 0, 64, 95
2, 122400, Note_off_c, 0, 59, 95
2, 122400, Note_off_c, 0, 52, 95
2, 122400, Note_off_c, 0, 47, 95
2, 122400, Note_on_c, 0, 47, 95
2, 122402, Note_on_c, 0, 52, 95
2, 122404, Note_on_c, 0, 59, 95
2, 122406, Note_on_c, 0, 64, 95
2, 122408, Note_on_c, 0, 68, 95
2, 122410, Note_on_c, 0, 71, 95
2, 122640, Note_off_c, 0, 71, 95
2, 122640, Note_off_c, 0, 68, 95
2, 122640, Note_off_c, 0, 64, 95
2, 122640, Note_off_c, 0, 59, 95
2, 122640, Note_off_c, 0, 52, 95
2, 122640, Note_off_c, 0, 47, 95
2, 122880, Note_on_c, 0, 63, 95
2, 122880, Note_on_c, 0, 59, 95
2, 122880, Note_on_c, 0, 54, 95
2, 122880, Note_on_c, 0, 47, 95
2, 123840, Note_off_c, 0, 63, 95
2, 123840, Note_off_c, 0, 59, 95
2, 123840, Note_off_c, 0, 54, 95
2, 123840, Note_off_c, 0, 47, 95
2, 124320, Note_on_c, 0, 61, 95
2, 124320, Note_on_c, 0, 57, 95
2, 124320, Note_on_c, 0, 52, 95
2, 124320, Note_on_c, 0, 45, 95
2, 125760, Note_off_c, 0, 61, 95
2, 125760, Note_off_c, 0, 57, 95
2, 125760, Note_off_c, 0, 52, 95
2, 125760, Note_off_c, 0, 45, 95
2, 125760, Note_on_c, 0, 61, 95
2, 125760, Note_on_c, 0, 57, 95
2, 125760, Note_on_c, 0, 52, 95
2, 125760, Note_on_c, 0, 45, 95
2, 126240, Note_off_c, 0, 61, 95
2, 126240, Note_off_c, 0, 57, 95
2, 126240, Note_off_c, 0, 52, 95
2, 126240, Note_off_c, 0, 45, 95
2, 126720, Note_on_c, 0, 60, 95
2, 126720, Note_on_c, 0, 56, 95
2, 126720, Note_on_c, 0, 51, 95
2, 126720, Note_on_c, 0, 44, 95
2, 127200, Note_off_c, 0, 60, 95
2, 127200, Note_off_c, 0, 56, 95
2, 127200, Note_off_c, 0, 51, 95
2, 127200, Note_off_c, 0, 44, 95
2, 127200, Note_on_c, 0, 60, 95
2, 127200, Note_on_c, 0, 56, 95
2, 127200, Note_on_c, 0, 51, 95
2, 127200, Note_on_c, 0, 44, 95
2, 127680, Note_off_c, 0, 60, 95
2, 127680, Note_off_c, 0, 56, 95
2, 127680, Note_off_c, 0, 51, 95
2, 127680, Note_off_c, 0, 44, 95
2, 127680, Note_on_c, 0, 60, 95
2, 127680, Note_on_c, 0, 56, 95
2, 127680, Note_on_c, 0, 51, 95
2, 127680, Note_on_c, 0, 44, 95
2, 128160, Note_off_c, 0, 60, 95
2, 128160, Note_off_c, 0, 56, 95
2, 128160, Note_off_c, 0, 51, 95
2, 128160, Note_off_c, 0, 44, 95
2, 128160, Note_on_c, 0, 60, 95
2, 128160, Note_on_c, 0, 56, 95
2, 128160, Note_on_c, 0, 51, 95
2, 128160, Note_on_c, 0, 44, 95
2, 128640, Note_off_c, 0, 60, 95
2, 128640, Note_off_c, 0, 56, 95
2, 128640, Note_off_c, 0, 51, 95
2, 128640, Note_off_c, 0, 44, 95
2, 128640, Note_on_c, 0, 59, 95
2, 128640, Note_on_c, 0, 55, 95
2, 128640, Note_on_c, 0, 50, 95
2, 128640, Note_on_c, 0, 43, 95
2, 129120, Note_off_c, 0, 59, 95
2, 129120, Note_off_c, 0, 55, 95
2, 129120, Note_off_c, 0, 50, 95
2, 129120, Note_off_c, 0, 43, 95
2, 129120, Note_on_c, 0, 59, 95
2, 129120, Note_on_c, 0, 55, 95
2, 129120, Note_on_c, 0, 50, 95
2, 129120, Note_on_c, 0, 43, 95
2, 129600, Note_off_c, 0, 59, 95
2, 129600, Note_off_c, 0, 55, 95
2, 129600, Note_off_c, 0, 50, 95
2, 129600, Note_off_c, 0, 43, 95
2, 129600, Note_on_c, 0, 61, 95
2, 129600, Note_on_c, 0, 57, 95
2, 129600, Note_on_c, 0, 52, 95
2, 129600, Note_on_c, 0, 45, 95
2, 130080, Note_off_c, 0, 61, 95
2, 130080, Note_off_c, 0, 57, 95
2, 130080, Note_off_c, 0, 52, 95
2, 130080, Note_off_c, 0, 45, 95
2, 130080, Note_on_c, 0, 61, 95
2, 130080, Note_on_c, 0, 57, 95
2, 130080, Note_on_c, 0, 52, 95
2, 130080, Note_on_c, 0, 45, 95
2, 130560, Note_off_c, 0, 61, 95
2, 130560, Note_off_c, 0, 57, 95
2, 130560, Note_off_c, 0, 52, 95
2, 130560, Note_off_c, 0, 45, 95
2, 130560, Note_on_c, 0, 63, 95
2, 130560, Note_on_c, 0, 59, 95
2, 130560, Note_on_c, 0, 54, 95
2, 130560, Note_on_c, 0, 47, 95
2, 131520, Note_off_c, 0, 63, 95
2, 131520, Note_off_c, 0, 59, 95
2, 131520, Note_off_c, 0, 54, 95
2, 131520, Note_off_c, 0, 47, 95
2, 132000, Note_on_c, 0, 61, 95
2, 132000, Note_on_c, 0, 57, 95
2, 132000, Note_on_c, 0, 52, 95
2, 132000, Note_on_c, 0, 45, 95
2, 133440, Note_off_c, 0, 61, 95
2, 133440, Note_off_c, 0, 57, 95
2, 133440, Note_off_c, 0, 52, 95
2, 133440, Note_off_c, 0, 45, 95
2, 133440, Note_on_c, 0, 61, 95
2, 133440, Note_on_c, 0, 57, 95
2, 133440, Note_on_c, 0, 52, 95
2, 133440, Note_on_c, 0, 45, 95
2, 133920, Note_off_c, 0, 61, 95
2, 133920, Note_off_c, 0, 57, 95
2, 133920, Note_off_c, 0, 52, 95
2, 133920, Note_off_c, 0, 45, 95
2, 134400, Note_on_c, 0, 60, 95
2, 134400, Note_on_c, 0, 56, 95
2, 134400, Note_on_c, 0, 51, 95
2, 134400, Note_on_c, 0, 44, 95
2, 134880, Note_off_c, 0, 60, 95
2, 134880, Note_off_c, 0, 56, 95
2, 134880, Note_off_c, 0, 51, 95
2, 134880, Note_off_c, 0, 44, 95
2, 134880, Note_on_c, 0, 60, 95
2, 134880, Note_on_c, 0, 56, 95
2, 134880, Note_on_c, 0, 51, 95
2, 134880, Note_on_c, 0, 44, 95
2, 135360, Note_off_c, 0, 60, 95
2, 135360, Note_off_c, 0, 56, 95
2, 135360, Note_off_c, 0, 51, 95
2, 135360, Note_off_c, 0, 44, 95
2, 135360, Note_on_c, 0, 60, 95
2, 135360, Note_on_c, 0, 56, 95
2, 135360, Note_on_c, 0, 51, 95
2, 135360, Note_on_c, 0, 44, 95
2, 135840, Note_off_c, 0, 60, 95
2, 135840, Note_off_c, 0, 56, 95
2, 135840, Note_off_c, 0, 51, 95
2, 135840, Note_off_c, 0, 44, 95
2, 135840, Note_on_c, 0, 60, 95
2, 135840, Note_on_c, 0, 56, 95
2, 135840, Note_on_c, 0, 51, 95
2, 135840, Note_on_c, 0, 44, 95
2, 136320, Note_off_c, 0, 60, 95
2, 136320, Note_off_c, 0, 56, 95
2, 136320, Note_off_c, 0, 51, 95
2, 136320, Note_off_c, 0, 44, 95
2, 136320, Note_on_c, 0, 59, 95
2, 136320, Note_on_c, 0, 55, 95
2, 136320, Note_on_c, 0, 50, 95
2, 136320, Note_on_c, 0, 43, 95
2, 136800, Note_off_c, 0, 59, 95
2, 136800, Note_off_c, 0, 55, 95
2, 136800, Note_off_c, 0, 50, 95
2, 136800, Note_off_c, 0, 43, 95
2, 136800, Note_on_c, 0, 59, 95
2, 136800, Note_on_c, 0, 55, 95
2, 136800, Note_on_c, 0, 50, 95
2, 136800, Note_on_c, 0, 43, 95
2, 137280, Note_off_c, 0, 59, 95
2, 137280, Note_off_c, 0, 55, 95
2, 137280, Note_off_c, 0, 50, 95
2, 137280, Note_off_c, 0, 43, 95
2, 137280, Note_on_c, 0, 61, 95
2, 137280, Note_on_c, 0, 57, 95
2, 137280, Note_on_c, 0, 52, 95
2, 137280, Note_on_c, 0, 45, 95
2, 137760, Note_off_c, 0, 61, 95
2, 137760, Note_off_c, 0, 57, 95
2, 137760, Note_off_c, 0, 52, 95
2, 137760, Note_off_c, 0, 45, 95
2, 137760, Note_on_c, 0, 61, 95
2, 137760, Note_on_c, 0, 57, 95
2, 137760, Note_on_c, 0, 52, 95
2, 137760, Note_on_c, 0, 45, 95
2, 138240, Note_off_c, 0, 61, 95
2, 138240, Note_off_c, 0, 57, 95
2, 138240, Note_off_c, 0, 52, 95
2, 138240, Note_off_c, 0, 45, 95
2, 138240, Note_on_c, 0, 63, 95
2, 138240, Note_on_c, 0, 59, 95
2, 138240, Note_on_c, 0, 54, 95
2, 138240, Note_on_c, 0, 47, 95
2, 139200, Note_off_c, 0, 63, 95
2, 139200, Note_off_c, 0, 59, 95
2, 139200, Note_off_c, 0, 54, 95
2, 139200, Note_off_c, 0, 47, 95
2, 139680, Note_on_c, 0, 61, 95
2, 139680, Note_on_c, 0, 57, 95
2, 139680, Note_on_c, 0, 52, 95
2, 139680, Note_on_c, 0, 45, 95
2, 141120, Note_off_c, 0, 61, 95
2, 141120, Note_off_c, 0, 57, 95
2, 141120, Note_off_c, 0, 52, 95
2, 141120, Note_off_c, 0, 45, 95
2, 141120, Note_on_c, 0, 61, 95
2, 141120, Note_on_c, 0, 57, 95
2, 141120, Note_on_c, 0, 52, 95
2, 141120, Note_on_c, 0, 45, 95
2, 141600, Note_off_c, 0, 61, 95
2, 141600, Note_off_c, 0, 57, 95
2, 141600, Note_off_c, 0, 52, 95
2, 141600, Note_off_c, 0, 45, 95
2, 142080, Note_on_c, 0, 60, 95
2, 142080, Note_on_c, 0, 56, 95
2, 142080, Note_on_c, 0, 51, 95
2, 142080, Note_on_c, 0, 44, 95
2, 142560, Note_off_c, 0, 60, 95
2, 142560, Note_off_c, 0, 56, 95
2, 142560, Note_off_c, 0, 51, 95
2, 142560, Note_off_c, 0, 44, 95
2, 142560, Note_on_c, 0, 60, 95
2, 142560, Note_on_c, 0, 56, 95
2, 142560, Note_on_c, 0, 51, 95
2, 142560, Note_on_c, 0, 44, 95
2, 143040, Note_off_c, 0, 60, 95
2, 143040, Note_off_c, 0, 56, 95
2, 143040, Note_off_c, 0, 51, 95
2, 143040, Note_off_c, 0, 44, 95
2, 143040, Note_on_c, 0, 60, 95
2, 143040, Note_on_c, 0, 56, 95
2, 143040, Note_on_c, 0, 51, 95
2, 143040, Note_on_c, 0, 44, 95
2, 143520, Note_off_c, 0, 60, 95
2, 143520, Note_off_c, 0, 56, 95
2, 143520, Note_off_c, 0, 51, 95
2, 143520, Note_off_c, 0, 44, 95
2, 143520, Note_on_c, 0, 60, 95
2, 143520, Note_on_c, 0, 56, 95
2, 143520, Note_on_c, 0, 51, 95
2, 143520, Note_on_c, 0, 44, 95
2, 144000, Note_off_c, 0, 60, 95
2, 144000, Note_off_c, 0, 56, 95
2, 144000, Note_off_c, 0, 51, 95
2, 144000, Note_off_c, 0, 44, 95
2, 144000, Note_on_c, 0, 59, 95
2, 144000, Note_on_c, 0, 55, 95
2, 144000, Note_on_c, 0, 50, 95
2, 144000, Note_on_c, 0, 43, 95
2, 144480, Note_off_c, 0, 59, 95
2, 144480, Note_off_c, 0, 55, 95
2, 144480, Note_off_c, 0, 50, 95
2, 144480, Note_off_c, 0, 43, 95
2, 144480, Note_on_c, 0, 59, 95
2, 144480, Note_on_c, 0, 55, 95
2, 144480, Note_on_c, 0, 50, 95
2, 144480, Note_on_c, 0, 43, 95
2, 144960, Note_off_c, 0, 59, 95
2, 144960, Note_off_c, 0, 55, 95
2, 144960, Note_off_c, 0, 50, 95
2, 144960, Note_off_c, 0, 43, 95
2, 144960, Note_on_c, 0, 61, 95
2, 144960, Note_on_c, 0, 57, 95
2, 144960, Note_on_c, 0, 52, 95
2, 144960, Note_on_c, 0, 45, 95
2, 145440, Note_off_c, 0, 61, 95
2, 145440, Note_off_c, 0, 57, 95
2, 145440, Note_off_c, 0, 52, 95
2, 145440, Note_off_c, 0, 45, 95
2, 145440, Note_on_c, 0, 61, 95
2, 145440, Note_on_c, 0, 57, 95
2, 145440, Note_on_c, 0, 52, 95
2, 145440, Note_on_c, 0, 45, 95
2, 145920, Note_off_c, 0, 61, 95
2, 145920, Note_off_c, 0, 57, 95
2, 145920, Note_off_c, 0, 52, 95
2, 145920, Note_off_c, 0, 45, 95
2, 145920, Note_on_c, 0, 47, 95
2, 145924, Note_on_c, 0, 54, 95
2, 145928, Note_on_c, 0, 59, 95
2, 145932, Note_on_c, 0, 63, 95
2, 145936, Note_on_c, 0, 66, 95
2, 145940, Note_on_c, 0, 71, 95
2, 146400, Note_off_c, 0, 71, 95
2, 146400, Note_off_c, 0, 66, 95
2, 146400, Note_off_c, 0, 63, 95
2, 146400, Note_off_c, 0, 59, 95
2, 146400, Note_off_c, 0, 54, 95
2, 146400, Note_off_c, 0, 47, 95
2, 146400, Note_on_c, 0, 47, 95
2, 146404, Note_on_c, 0, 54, 95
2, 146408, Note_on_c, 0, 59, 95
2, 146412, Note_on_c, 0, 63, 95
2, 146416, Note_on_c, 0, 66, 95
2, 146420, Note_on_c, 0, 71, 95
2, 146880, Note_off_c, 0, 71, 95
2, 146880, Note_off_c, 0, 66, 95
2, 146880, Note_off_c, 0, 63, 95
2, 146880, Note_off_c, 0, 59, 95
2, 146880, Note_off_c, 0, 54, 95
2, 146880, Note_off_c, 0, 47, 95
2, 146880, Note_on_c, 0, 45, 95
2, 146882, Note_on_c, 0, 45, 95
2, 146884, Note_on_c, 0, 50, 95
2, 146886, Note_on_c, 0, 55, 95
2, 146888, Note_on_c, 0, 59, 95
2, 146890, Note_on_c, 0, 64, 95
2, 146922, Note_off_c, 0, 64, 95
2, 146922, Note_off_c, 0, 59, 95
2, 146922, Note_off_c, 0, 55, 95
2, 146922, Note_off_c, 0, 50, 95
2, 146922, Note_off_c, 0, 45, 95
2, 146922, Note_off_c, 0, 45, 95
2, 147120, Note_on_c, 0, 64, 95
2, 147122, Note_on_c, 0, 59, 95
2, 147124, Note_on_c, 0, 55, 95
2, 147126, Note_on_c, 0, 50, 95
2, 147128, Note_on_c, 0, 45, 95
2, 147130, Note_on_c, 0, 40, 95
2, 147162, Note_off_c, 0, 64, 95
2, 147162, Note_off_c, 0, 59, 95
2, 147162, Note_off_c, 0, 55, 95
2, 147162, Note_off_c, 0, 50, 95
2, 147162, Note_off_c, 0, 45, 95
2, 147162, Note_off_c, 0, 40, 95
2, 147360, Note_on_c, 0, 44, 95
2, 147362, Note_on_c, 0, 45, 95
2, 147364, Note_on_c, 0, 50, 95
2, 147366, Note_on_c, 0, 55, 95
2, 147368, Note_on_c, 0, 59, 95
2, 147370, Note_on_c, 0, 64, 95
2, 147402, Note_off_c, 0, 64, 95
2, 147402, Note_off_c, 0, 59, 95
2, 147402, Note_off_c, 0, 55, 95
2, 147402, Note_off_c, 0, 50, 95
2, 147402, Note_off_c, 0, 45, 95
2, 147402, Note_off_c, 0, 44, 95
2, 147600, Note_on_c, 0, 64, 95
2, 147602, Note_on_c, 0, 59, 95
2, 147604, Note_on_c, 0, 55, 95
2, 147606, Note_on_c, 0, 50, 95
2, 147608, Note_on_c, 0, 45, 95
2, 147610, Note_on_c, 0, 40, 95
2, 147642, Note_off_c, 0, 64, 95
2, 147642, Note_off_c, 0, 59, 95
2, 147642, Note_off_c, 0, 55, 95
2, 147642, Note_off_c, 0, 50, 95
2, 147642, Note_off_c, 0, 45, 95
2, 147642, Note_off_c, 0, 40, 95
2, 147840, Note_on_c, 0, 45, 95
2, 147844, Note_on_c, 0, 50, 95
2, 147848, Note_on_c, 0, 57, 95
2, 147852, Note_on_c, 0, 62, 95
2, 147856, Note_on_c, 0, 66, 95
2, 147860, Note_on_c, 0, 69, 95
2, 148320, Note_off_c, 0, 69, 95
2, 148320, Note_off_c, 0, 66, 95
2, 148320, Note_off_c, 0, 62, 95
2, 148320, Note_off_c, 0, 57, 95
2, 148320, Note_off_c, 0, 50, 95
2, 148320, Note_off_c, 0, 45, 95
2, 148320, Note_on_c, 0, 45, 95
2, 148324, Note_on_c, 0, 50, 95
2, 148328, Note_on_c, 0, 57, 95
2, 148332, Note_on_c, 0, 62, 95
2, 148336, Note_on_c, 0, 66, 95
2, 148340, Note_on_c, 0, 69, 95
2, 148800, Note_off_c, 0, 69, 95
2, 148800, Note_off_c, 0, 66, 95
2, 148800, Note_off_c, 0, 62, 95
2, 148800, Note_off_c, 0, 57, 95
2, 148800, Note_off_c, 0, 50, 95
2, 148800, Note_off_c, 0, 45, 95
2, 148800, Note_on_c, 0, 40, 95
2, 148802, Note_on_c, 0, 45, 95
2, 148804, Note_on_c, 0, 50, 95
2, 148806, Note_on_c, 0, 55, 95
2, 148808, Note_on_c, 0, 59, 95
2, 148810, Note_on_c, 0, 64, 95
2, 148842, Note_off_c, 0, 64, 95
2, 148842, Note_off_c, 0, 59, 95
2, 148842, Note_off_c, 0, 55, 95
2, 148842, Note_off_c, 0, 50, 95
2, 148842, Note_off_c, 0, 45, 95
2, 148842, Note_off_c, 0, 40, 95
2, 149040, Note_on_c, 0, 64, 95
2, 149042, Note_on_c, 0, 59, 95
2, 149044, Note_on_c, 0, 55, 95
2, 149046, Note_on_c, 0, 50, 95
2, 149048, Note_on_c, 0, 45, 95
2, 149050, Note_on_c, 0, 40, 95
2, 149082, Note_off_c, 0, 64, 95
2, 149082, Note_off_c, 0, 59, 95
2, 149082, Note_off_c, 0, 55, 95
2, 149082, Note_off_c, 0, 50, 95
2, 149082, Note_off_c, 0, 45, 95
2, 149082, Note_off_c, 0, 40, 95
2, 149280, Note_on_c, 0, 40, 95
2, 149282, Note_on_c, 0, 45, 95
2, 149284, Note_on_c, 0, 50, 95
2, 149286, Note_on_c, 0, 55, 95
2, 149288, Note_on_c, 0, 59, 95
2, 149290, Note_on_c, 0, 64, 95
2, 149322, Note_off_c, 0, 64, 95
2, 149322, Note_off_c, 0, 59, 95
2, 149322, Note_off_c, 0, 55, 95
2, 149322, Note_off_c, 0, 50, 95
2, 149322, Note_off_c, 0, 45, 95
2, 149322, Note_off_c, 0, 40, 95
2, 149520, Note_on_c, 0, 64, 95
2, 149522, Note_on_c, 0, 59, 95
2, 149524, Note_on_c, 0, 55, 95
2, 149526, Note_on_c, 0, 50, 95
2, 149528, Note_on_c, 0, 45, 95
2, 149530, Note_on_c, 0, 40, 95
2, 149562, Note_off_c, 0, 64, 95
2, 149562, Note_off_c, 0, 59, 95
2, 149562, Note_off_c, 0, 55, 95
2, 149562, Note_off_c, 0, 50, 95
2, 149562, Note_off_c, 0, 45, 95
2, 149562, Note_off_c, 0, 40, 95
2, 149760, Note_on_c, 0, 47, 95
2, 149764, Note_on_c, 0, 52, 95
2, 149768, Note_on_c, 0, 59, 95
2, 149772, Note_on_c, 0, 64, 95
2, 149776, Note_on_c, 0, 68, 95
2, 149780, Note_on_c, 0, 71, 95
2, 150240, Note_off_c, 0, 71, 95
2, 150240, Note_off_c, 0, 68, 95
2, 150240, Note_off_c, 0, 64, 95
2, 150240, Note_off_c, 0, 59, 95
2, 150240, Note_off_c, 0, 52, 95
2, 150240, Note_off_c, 0, 47, 95
2, 150240, Note_on_c, 0, 47, 95
2, 150244, Note_on_c, 0, 52, 95
2, 150248, Note_on_c, 0, 59, 95
2, 150252, Note_on_c, 0, 64, 95
2, 150256, Note_on_c, 0, 68, 95
2, 150260, Note_on_c, 0, 71, 95
2, 150720, Note_off_c, 0, 71, 95
2, 150720, Note_off_c, 0, 68, 95
2, 150720, Note_off_c, 0, 64, 95
2, 150720, Note_off_c, 0, 59, 95
2, 150720, Note_off_c, 0, 52, 95
2, 150720, Note_off_c, 0, 47, 95
2, 150720, Note_on_c, 0, 45, 95
2, 150722, Note_on_c, 0, 45, 95
2, 150724, Note_on_c, 0, 50, 95
2, 150726, Note_on_c, 0, 55, 95
2, 150728, Note_on_c, 0, 59, 95
2, 150730, Note_on_c, 0, 64, 95
2, 150762, Note_off_c, 0, 64, 95
2, 150762, Note_off_c, 0, 59, 95
2, 150762, Note_off_c, 0, 55, 95
2, 150762, Note_off_c, 0, 50, 95
2, 150762, Note_off_c, 0, 45, 95
2, 150762, Note_off_c, 0, 45, 95
2, 150960, Note_on_c, 0, 64, 95
2, 150962, Note_on_c, 0, 59, 95
2, 150964, Note_on_c, 0, 55, 95
2, 150966, Note_on_c, 0, 50, 95
2, 150968, Note_on_c, 0, 45, 95
2, 150970, Note_on_c, 0, 40, 95
2, 151002, Note_off_c, 0, 64, 95
2, 151002, Note_off_c, 0, 59, 95
2, 151002, Note_off_c, 0, 55, 95
2, 151002, Note_off_c, 0, 50, 95
2, 151002, Note_off_c, 0, 45, 95
2, 151002, Note_off_c, 0, 40, 95
2, 151200, Note_on_c, 0, 44, 95
2, 151202, Note_on_c, 0, 45, 95
2, 151204, Note_on_c, 0, 50, 95
2, 151206, Note_on_c, 0, 55, 95
2, 151208, Note_on_c, 0, 59, 95
2, 151210, Note_on_c, 0, 64, 95
2, 151242, Note_off_c, 0, 64, 95
2, 151242, Note_off_c, 0, 59, 95
2, 151242, Note_off_c, 0, 55, 95
2, 151242, Note_off_c, 0, 50, 95
2, 151242, Note_off_c, 0, 45, 95
2, 151242, Note_off_c, 0, 44, 95
2, 151440, Note_on_c, 0, 64, 95
2, 151442, Note_on_c, 0, 59, 95
2, 151444, Note_on_c, 0, 55, 95
2, 151446, Note_on_c, 0, 50, 95
2, 151448, Note_on_c, 0, 45, 95
2, 151450, Note_on_c, 0, 40, 95
2, 151482, Note_off_c, 0, 64, 95
2, 151482, Note_off_c, 0, 59, 95
2, 151482, Note_off_c, 0, 55, 95
2, 151482, Note_off_c, 0, 50, 95
2, 151482, Note_off_c, 0, 45, 95
2, 151482, Note_off_c, 0, 40, 95
2, 151680, Note_on_c, 0, 45, 95
2, 151682, Note_on_c, 0, 50, 95
2, 151684, Note_on_c, 0, 57, 95
2, 151686, Note_on_c, 0, 62, 95
2, 151688, Note_on_c, 0, 66, 95
2, 151690, Note_on_c, 0, 69, 95
2, 151920, Note_off_c, 0, 69, 95
2, 151920, Note_off_c, 0, 66, 95
2, 151920, Note_off_c, 0, 62, 95
2, 151920, Note_off_c, 0, 57, 95
2, 151920, Note_off_c, 0, 50, 95
2, 151920, Note_off_c, 0, 45, 95
2, 152160, Note_on_c, 0, 45, 95
2, 152162, Note_on_c, 0, 50, 95
2, 152164, Note_on_c, 0, 57, 95
2, 152166, Note_on_c, 0, 62, 95
2, 152168, Note_on_c, 0, 66, 95
2, 152170, Note_on_c, 0, 69, 95
2, 152202, Note_off_c, 0, 69, 95
2, 152202, Note_off_c, 0, 66, 95
2, 152202, Note_off_c, 0, 62, 95
2, 152202, Note_off_c, 0, 57, 95
2, 152202, Note_off_c, 0, 50, 95
2, 152202, Note_off_c, 0, 45, 95
2, 152400, Note_on_c, 0, 69, 95
2, 152402, Note_on_c, 0, 66, 95
2, 152404, Note_on_c, 0, 62, 95
2, 152406, Note_on_c, 0, 57, 95
2, 152408, Note_on_c, 0, 50, 95
2, 152410, Note_on_c, 0, 45, 95
2, 152640, Note_off_c, 0, 69, 95
2, 152640, Note_off_c, 0, 66, 95
2, 152640, Note_off_c, 0, 62, 95
2, 152640, Note_off_c, 0, 57, 95
2, 152640, Note_off_c, 0, 50, 95
2, 152640, Note_off_c, 0, 45, 95
2, 152880, Note_on_c, 0, 71, 95
2, 152882, Note_on_c, 0, 68, 95
2, 152884, Note_on_c, 0, 64, 95
2, 152886, Note_on_c, 0, 59, 95
2, 152888, Note_on_c, 0, 52, 95
2, 152890, Note_on_c, 0, 47, 95
2, 153120, Note_off_c, 0, 71, 95
2, 153120, Note_off_c, 0, 68, 95
2, 153120, Note_off_c, 0, 64, 95
2, 153120, Note_off_c, 0, 59, 95
2, 153120, Note_off_c, 0, 52, 95
2, 153120, Note_off_c, 0, 47, 95
2, 153120, Note_on_c, 0, 47, 95
2, 153122, Note_on_c, 0, 52, 95
2, 153124, Note_on_c, 0, 59, 95
2, 153126, Note_on_c, 0, 64, 95
2, 153128, Note_on_c, 0, 68, 95
2, 153130, Note_on_c, 0, 71, 95
2, 153360, Note_off_c, 0, 71, 95
2, 153360, Note_off_c, 0, 68, 95
2, 153360, Note_off_c, 0, 64, 95
2, 153360, Note_off_c, 0, 59, 95
2, 153360, Note_off_c, 0, 52, 95
2, 153360, Note_off_c, 0, 47, 95
2, 153600, Note_on_c, 0, 47, 95
2, 153604, Note_on_c, 0, 54, 95
2, 153608, Note_on_c, 0, 59, 95
2, 153612, Note_on_c, 0, 63, 95
2, 153616, Note_on_c, 0, 66, 95
2, 153620, Note_on_c, 0, 71, 95
2, 154080, Note_off_c, 0, 71, 95
2, 154080, Note_off_c, 0, 66, 95
2, 154080, Note_off_c, 0, 63, 95
2, 154080, Note_off_c, 0, 59, 95
2, 154080, Note_off_c, 0, 54, 95
2, 154080, Note_off_c, 0, 47, 95
2, 154080, Note_on_c, 0, 47, 95
2, 154084, Note_on_c, 0, 54, 95
2, 154088, Note_on_c, 0, 59, 95
2, 154092, Note_on_c, 0, 63, 95
2, 154096, Note_on_c, 0, 66, 95
2, 154100, Note_on_c, 0, 71, 95
2, 154560, Note_off_c, 0, 71, 95
2, 154560, Note_off_c, 0, 66, 95
2, 154560, Note_off_c, 0, 63, 95
2, 154560, Note_off_c, 0, 59, 95
2, 154560, Note_off_c, 0, 54, 95
2, 154560, Note_off_c, 0, 47, 95
2, 154560, Note_on_c, 0, 45, 95
2, 154562, Note_on_c, 0, 45, 95
2, 154564, Note_on_c, 0, 50, 95
2, 154566, Note_on_c, 0, 55, 95
2, 154568, Note_on_c, 0, 59, 95
2, 154570, Note_on_c, 0, 64, 95
2, 154602, Note_off_c, 0, 64, 95
2, 154602, Note_off_c, 0, 59, 95
2, 154602, Note_off_c, 0, 55, 95
2, 154602, Note_off_c, 0, 50, 95
2, 154602, Note_off_c, 0, 45, 95
2, 154602, Note_off_c, 0, 45, 95
2, 154800, Note_on_c, 0, 64, 95
2, 154802, Note_on_c, 0, 59, 95
2, 154804, Note_on_c, 0, 55, 95
2, 154806, Note_on_c, 0, 50, 95
2, 154808, Note_on_c, 0, 45, 95
2, 154810, Note_on_c, 0, 40, 95
2, 154842, Note_off_c, 0, 64, 95
2, 154842, Note_off_c, 0, 59, 95
2, 154842, Note_off_c, 0, 55, 95
2, 154842, Note_off_c, 0, 50, 95
2, 154842, Note_off_c, 0, 45, 95
2, 154842, Note_off_c, 0, 40, 95
2, 155040, Note_on_c, 0, 44, 95
2, 155042, Note_on_c, 0, 45, 95
2, 155044, Note_on_c, 0, 50, 95
2, 155046, Note_on_c, 0, 55, 95
2, 155048, Note_on_c, 0, 59, 95
2, 155050, Note_on_c, 0, 64, 95
2, 155082, Note_off_c, 0, 64, 95
2, 155082, Note_off_c, 0, 59, 95
2, 155082, Note_off_c, 0, 55, 95
2, 155082, Note_off_c, 0, 50, 95
2, 155082, Note_off_c, 0, 45, 95
2, 155082, Note_off_c, 0, 44, 95
2, 155280, Note_on_c, 0, 64, 95
2, 155282, Note_on_c, 0, 59, 95
2, 155284, Note_on_c, 0, 55, 95
2, 155286, Note_on_c, 0, 50, 95
2, 155288, Note_on_c, 0, 45, 95
2, 155290, Note_on_c, 0, 40, 95
2, 155322, Note_off_c, 0, 64, 95
2, 155322, Note_off_c, 0, 59, 95
2, 155322, Note_off_c, 0, 55, 95
2, 155322, Note_off_c, 0, 50, 95
2, 155322, Note_off_c, 0, 45, 95
2, 155322, Note_off_c, 0, 40, 95
2, 155520, Note_on_c, 0, 45, 95
2, 155524, Note_on_c, 0, 50, 95
2, 155528, Note_on_c, 0, 57, 95
2, 155532, Note_on_c, 0, 62, 95
2, 155536, Note_on_c, 0, 66, 95
2, 155540, Note_on_c, 0, 69, 95
2, 156000, Note_off_c, 0, 69, 95
2, 156000, Note_off_c, 0, 66, 95
2, 156000, Note_off_c, 0, 62, 95
2, 156000, Note_off_c, 0, 57, 95
2, 156000, Note_off_c, 0, 50, 95
2, 156000, Note_off_c, 0, 45, 95
2, 156000, Note_on_c, 0, 45, 95
2, 156004, Note_on_c, 0, 50, 95
2, 156008, Note_on_c, 0, 57, 95
2, 156012, Note_on_c, 0, 62, 95
2, 156016, Note_on_c, 0, 66, 95
2, 156020, Note_on_c, 0, 69, 95
2, 156480, Note_off_c, 0, 69, 95
2, 156480, Note_off_c, 0, 66, 95
2, 156480, Note_off_c, 0, 62, 95
2, 156480, Note_off_c, 0, 57, 95
2, 156480, Note_off_c, 0, 50, 95
2, 156480, Note_off_c, 0, 45, 95
2, 156480, Note_on_c, 0, 40, 95
2, 156482, Note_on_c, 0, 45, 95
2, 156484, Note_on_c, 0, 50, 95
2, 156486, Note_on_c, 0, 55, 95
2, 156488, Note_on_c, 0, 59, 95
2, 156490, Note_on_c, 0, 64, 95
2, 156522, Note_off_c, 0, 64, 95
2, 156522, Note_off_c, 0, 59, 95
2, 156522, Note_off_c, 0, 55, 95
2, 156522, Note_off_c, 0, 50, 95
2, 156522, Note_off_c, 0, 45, 95
2, 156522, Note_off_c, 0, 40, 95
2, 156720, Note_on_c, 0, 64, 95
2, 156722, Note_on_c, 0, 59, 95
2, 156724, Note_on_c, 0, 55, 95
2, 156726, Note_on_c, 0, 50, 95
2, 156728, Note_on_c, 0, 45, 95
2, 156730, Note_on_c, 0, 40, 95
2, 156762, Note_off_c, 0, 64, 95
2, 156762, Note_off_c, 0, 59, 95
2, 156762, Note_off_c, 0, 55, 95
2, 156762, Note_off_c, 0, 50, 95
2, 156762, Note_off_c, 0, 45, 95
2, 156762, Note_off_c, 0, 40, 95
2, 156960, Note_on_c, 0, 40, 95
2, 156962, Note_on_c, 0, 45, 95
2, 156964, Note_on_c, 0, 50, 95
2, 156966, Note_on_c, 0, 55, 95
2, 156968, Note_on_c, 0, 59, 95
2, 156970, Note_on_c, 0, 64, 95
2, 157002, Note_off_c, 0, 64, 95
2, 157002, Note_off_c, 0, 59, 95
2, 157002, Note_off_c, 0, 55, 95
2, 157002, Note_off_c, 0, 50, 95
2, 157002, Note_off_c, 0, 45, 95
2, 157002, Note_off_c, 0, 40, 95
2, 157200, Note_on_c, 0, 64, 95
2, 157202, Note_on_c, 0, 59, 95
2, 157204, Note_on_c, 0, 55, 95
2, 157206, Note_on_c, 0, 50, 95
2, 157208, Note_on_c, 0, 45, 95
2, 157210, Note_on_c, 0, 40, 95
2, 157242, Note_off_c, 0, 64, 95
2, 157242, Note_off_c, 0, 59, 95
2, 157242, Note_off_c, 0, 55, 95
2, 157242, Note_off_c, 0, 50, 95
2, 157242, Note_off_c, 0, 45, 95
2, 157242, Note_off_c, 0, 40, 95
2, 157440, Note_on_c, 0, 47, 95
2, 157444, Note_on_c, 0, 52, 95
2, 157448, Note_on_c, 0, 59, 95
2, 157452, Note_on_c, 0, 64, 95
2, 157456, Note_on_c, 0, 68, 95
2, 157460, Note_on_c, 0, 71, 95
2, 157920, Note_off_c, 0, 71, 95
2, 157920, Note_off_c, 0, 68, 95
2, 157920, Note_off_c, 0, 64, 95
2, 157920, Note_off_c, 0, 59, 95
2, 157920, Note_off_c, 0, 52, 95
2, 157920, Note_off_c, 0, 47, 95
2, 157920, Note_on_c, 0, 47, 95
2, 157924, Note_on_c, 0, 52, 95
2, 157928, Note_on_c, 0, 59, 95
2, 157932, Note_on_c, 0, 64, 95
2, 157936, Note_on_c, 0, 68, 95
2, 157940, Note_on_c, 0, 71, 95
2, 158400, Note_off_c, 0, 71, 95
2, 158400, Note_off_c, 0, 68, 95
2, 158400, Note_off_c, 0, 64, 95
2, 158400, Note_off_c, 0, 59, 95
2, 158400, Note_off_c, 0, 52, 95
2, 158400, Note_off_c, 0, 47, 95
2, 158400, Note_on_c, 0, 45, 95
2, 158402, Note_on_c, 0, 45, 95
2, 158404, Note_on_c, 0, 50, 95
2, 158406, Note_on_c, 0, 55, 95
2, 158408, Note_on_c, 0, 59, 95
2, 158410, Note_on_c, 0, 64, 95
2, 158442, Note_off_c, 0, 64, 95
2, 158442, Note_off_c, 0, 59, 95
2, 158442, Note_off_c, 0, 55, 95
2, 158442, Note_off_c, 0, 50, 95
2, 158442, Note_off_c, 0, 45, 95
2, 158442, Note_off_c, 0, 45, 95
2, 158640, Note_on_c, 0, 64, 95
2, 158642, Note_on_c, 0, 59, 95
2, 158644, Note_on_c, 0, 55, 95
2, 158646, Note_on_c, 0, 50, 95
2, 158648, Note_on_c, 0, 45, 95
2, 158650, Note_on_c, 0, 40, 95
2, 158682, Note_off_c, 0, 64, 95
2, 158682, Note_off_c, 0, 59, 95
2, 158682, Note_off_c, 0, 55, 95
2, 158682, Note_off_c, 0, 50, 95
2, 158682, Note_off_c, 0, 45, 95
2, 158682, Note_off_c, 0, 40, 95
2, 158880, Note_on_c, 0, 44, 95
2, 158882, Note_on_c, 0, 45, 95
2, 158884, Note_on_c, 0, 50, 95
2, 158886, Note_on_c, 0, 55, 95
2, 158888, Note_on_c, 0, 59, 95
2, 158890, Note_on_c, 0, 64, 95
2, 158922, Note_off_c, 0, 64, 95
2, 158922, Note_off_c, 0, 59, 95
2, 158922, Note_off_c, 0, 55, 95
2, 158922, Note_off_c, 0, 50, 95
2, 158922, Note_off_c, 0, 45, 95
2, 158922, Note_off_c, 0, 44, 95
2, 159120, Note_on_c, 0, 64, 95
2, 159122, Note_on_c, 0, 59, 95
2, 159124, Note_on_c, 0, 55, 95
2, 159126, Note_on_c, 0, 50, 95
2, 159128, Note_on_c, 0, 45, 95
2, 159130, Note_on_c, 0, 40, 95
2, 159162, Note_off_c, 0, 64, 95
2, 159162, Note_off_c, 0, 59, 95
2, 159162, Note_off_c, 0, 55, 95
2, 159162, Note_off_c, 0, 50, 95
2, 159162, Note_off_c, 0, 45, 95
2, 159162, Note_off_c, 0, 40, 95
2, 159360, Note_on_c, 0, 45, 95
2, 159362, Note_on_c, 0, 50, 95
2, 159364, Note_on_c, 0, 57, 95
2, 159366, Note_on_c, 0, 62, 95
2, 159368, Note_on_c, 0, 66, 95
2, 159370, Note_on_c, 0, 69, 95
2, 159600, Note_off_c, 0, 69, 95
2, 159600, Note_off_c, 0, 66, 95
2, 159600, Note_off_c, 0, 62, 95
2, 159600, Note_off_c, 0, 57, 95
2, 159600, Note_off_c, 0, 50, 95
2, 159600, Note_off_c, 0, 45, 95
2, 159840, Note_on_c, 0, 45, 95
2, 159842, Note_on_c, 0, 50, 95
2, 159844, Note_on_c, 0, 57, 95
2, 159846, Note_on_c, 0, 62, 95
2, 159848, Note_on_c, 0, 66, 95
2, 159850, Note_on_c, 0, 69, 95
2, 159882, Note_off_c, 0, 69, 95
2, 159882, Note_off_c, 0, 66, 95
2, 159882, Note_off_c, 0, 62, 95
2, 159882, Note_off_c, 0, 57, 95
2, 159882, Note_off_c, 0, 50, 95
2, 159882, Note_off_c, 0, 45, 95
2, 160080, Note_on_c, 0, 69, 95
2, 160082, Note_on_c, 0, 66, 95
2, 160084, Note_on_c, 0, 62, 95
2, 160086, Note_on_c, 0, 57, 95
2, 160088, Note_on_c, 0, 50, 95
2, 160090, Note_on_c, 0, 45, 95
2, 160320, Note_off_c, 0, 69, 95
2, 160320, Note_off_c, 0, 66, 95
2, 160320, Note_off_c, 0, 62, 95
2, 160320, Note_off_c, 0, 57, 95
2, 160320, Note_off_c, 0, 50, 95
2, 160320, Note_off_c, 0, 45, 95
2, 160560, Note_on_c, 0, 71, 95
2, 160562, Note_on_c, 0, 68, 95
2, 160564, Note_on_c, 0, 64, 95
2, 160566, Note_on_c, 0, 59, 95
2, 160568, Note_on_c, 0, 52, 95
2, 160570, Note_on_c, 0, 47, 95
2, 160800, Note_off_c, 0, 71, 95
2, 160800, Note_off_c, 0, 68, 95
2, 160800, Note_off_c, 0, 64, 95
2, 160800, Note_off_c, 0, 59, 95
2, 160800, Note_off_c, 0, 52, 95
2, 160800, Note_off_c, 0, 47, 95
2, 160800, Note_on_c, 0, 47, 95
2, 160802, Note_on_c, 0, 52, 95
2, 160804, Note_on_c, 0, 59, 95
2, 160806, Note_on_c, 0, 64, 95
2, 160808, Note_on_c, 0, 68, 95
2, 160810, Note_on_c, 0, 71, 95
2, 161040, Note_off_c, 0, 71, 95
2, 161040, Note_off_c, 0, 68, 95
2, 161040, Note_off_c, 0, 64, 95
2, 161040, Note_off_c, 0, 59, 95
2, 161040, Note_off_c, 0, 52, 95
2, 161040, Note_off_c, 0, 47, 95
2, 161280, Note_on_c, 0, 47, 95
2, 161284, Note_on_c, 0, 54, 95
2, 161288, Note_on_c, 0, 59, 95
2, 161292, Note_on_c, 0, 63, 95
2, 161296, Note_on_c, 0, 66, 95
2, 161300, Note_on_c, 0, 71, 95
2, 161760, Note_off_c, 0, 71, 95
2, 161760, Note_off_c, 0, 66, 95
2, 161760, Note_off_c, 0, 63, 95
2, 161760, Note_off_c, 0, 59, 95
2, 161760, Note_off_c, 0, 54, 95
2, 161760, Note_off_c, 0, 47, 95
2, 161760, Note_on_c, 0, 47, 95
2, 161764, Note_on_c, 0, 54, 95
2, 161768, Note_on_c, 0, 59, 95
2, 161772, Note_on_c, 0, 63, 95
2, 161776, Note_on_c, 0, 66, 95
2, 161780, Note_on_c, 0, 71, 95
2, 162240, Note_off_c, 0, 71, 95
2, 162240, Note_off_c, 0, 66, 95
2, 162240, Note_off_c, 0, 63, 95
2, 162240, Note_off_c, 0, 59, 95
2, 162240, Note_off_c, 0, 54, 95
2, 162240, Note_off_c, 0, 47, 95
2, 162240, Note_on_c, 0, 45, 95
2, 162242, Note_on_c, 0, 45, 95
2, 162244, Note_on_c, 0, 50, 95
2, 162246, Note_on_c, 0, 55, 95
2, 162248, Note_on_c, 0, 59, 95
2, 162250, Note_on_c, 0, 64, 95
2, 162282, Note_off_c, 0, 64, 95
2, 162282, Note_off_c, 0, 59, 95
2, 162282, Note_off_c, 0, 55, 95
2, 162282, Note_off_c, 0, 50, 95
2, 162282, Note_off_c, 0, 45, 95
2, 162282, Note_off_c, 0, 45, 95
2, 162480, Note_on_c, 0, 64, 95
2, 162482, Note_on_c, 0, 59, 95
2, 162484, Note_on_c, 0, 55, 95
2, 162486, Note_on_c, 0, 50, 95
2, 162488, Note_on_c, 0, 45, 95
2, 162490, Note_on_c, 0, 40, 95
2, 162522, Note_off_c, 0, 64, 95
2, 162522, Note_off_c, 0, 59, 95
2, 162522, Note_off_c, 0, 55, 95
2, 162522, Note_off_c, 0, 50, 95
2, 162522, Note_off_c, 0, 45, 95
2, 162522, Note_off_c, 0, 40, 95
2, 162720, Note_on_c, 0, 44, 95
2, 162722, Note_on_c, 0, 45, 95
2, 162724, Note_on_c, 0, 50, 95
2, 162726, Note_on_c, 0, 55, 95
2, 162728, Note_on_c, 0, 59, 95
2, 162730, Note_on_c, 0, 64, 95
2, 162762, Note_off_c, 0, 64, 95
2, 162762, Note_off_c, 0, 59, 95
2, 162762, Note_off_c, 0, 55, 95
2, 162762, Note_off_c, 0, 50, 95
2, 162762, Note_off_c, 0, 45, 95
2, 162762, Note_off_c, 0, 44, 95
2, 162960, Note_on_c, 0, 64, 95
2, 162962, Note_on_c, 0, 59, 95
2, 162964, Note_on_c, 0, 55, 95
2, 162966, Note_on_c, 0, 50, 95
2, 162968, Note_on_c, 0, 45, 95
2, 162970, Note_on_c, 0, 40, 95
2, 163002, Note_off_c, 0, 64, 95
2, 163002, Note_off_c, 0, 59, 95
2, 163002, Note_off_c, 0, 55, 95
2, 163002, Note_off_c, 0, 50, 95
2, 163002, Note_off_c, 0, 45, 95
2, 163002, Note_off_c, 0, 40, 95
2, 163200, Note_on_c, 0, 45, 95
2, 163204, Note_on_c, 0, 50, 95
2, 163208, Note_on_c, 0, 57, 95
2, 163212, Note_on_c, 0, 62, 95
2, 163216, Note_on_c, 0, 66, 95
2, 163220, Note_on_c, 0, 69, 95
2, 163680, Note_off_c, 0, 69, 95
2, 163680, Note_off_c, 0, 66, 95
2, 163680, Note_off_c, 0, 62, 95
2, 163680, Note_off_c, 0, 57, 95
2, 163680, Note_off_c, 0, 50, 95
2, 163680, Note_off_c, 0, 45, 95
2, 163680, Note_on_c, 0, 45, 95
2, 163684, Note_on_c, 0, 50, 95
2, 163688, Note_on_c, 0, 57, 95
2, 163692, Note_on_c, 0, 62, 95
2, 163696, Note_on_c, 0, 66, 95
2, 163700, Note_on_c, 0, 69, 95
2, 164160, Note_off_c, 0, 69, 95
2, 164160, Note_off_c, 0, 66, 95
2, 164160, Note_off_c, 0, 62, 95
2, 164160, Note_off_c, 0, 57, 95
2, 164160, Note_off_c, 0, 50, 95
2, 164160, Note_off_c, 0, 45, 95
2, 164160, Note_on_c, 0, 40, 95
2, 164162, Note_on_c, 0, 45, 95
2, 164164, Note_on_c, 0, 50, 95
2, 164166, Note_on_c, 0, 55, 95
2, 164168, Note_on_c, 0, 59, 95
2, 164170, Note_on_c, 0, 64, 95
2, 164202, Note_off_c, 0, 64, 95
2, 164202, Note_off_c, 0, 59, 95
2, 164202, Note_off_c, 0, 55, 95
2, 164202, Note_off_c, 0, 50, 95
2, 164202, Note_off_c, 0, 45, 95
2, 164202, Note_off_c, 0, 40, 95
2, 164400, Note_on_c, 0, 64, 95
2, 164402, Note_on_c, 0, 59, 95
2, 164404, Note_on_c, 0, 55, 95
2, 164406, Note_on_c, 0, 50, 95
2, 164408, Note_on_c, 0, 45, 95
2, 164410, Note_on_c, 0, 40, 95
2, 164442, Note_off_c, 0, 64, 95
2, 164442, Note_off_c, 0, 59, 95
2, 164442, Note_off_c, 0, 55, 95
2, 164442, Note_off_c, 0, 50, 95
2, 164442, Note_off_c, 0, 45, 95
2, 164442, Note_off_c, 0, 40, 95
2, 164640, Note_on_c, 0, 40, 95
2, 164642, Note_on_c, 0, 45, 95
2, 164644, Note_on_c, 0, 50, 95
2, 164646, Note_on_c, 0, 55, 95
2, 164648, Note_on_c, 0, 59, 95
2, 164650, Note_on_c, 0, 64, 95
2, 164682, Note_off_c, 0, 64, 95
2, 164682, Note_off_c, 0, 59, 95
2, 164682, Note_off_c, 0, 55, 95
2, 164682, Note_off_c, 0, 50, 95
2, 164682, Note_off_c, 0, 45, 95
2, 164682, Note_off_c, 0, 40, 95
2, 164880, Note_on_c, 0, 64, 95
2, 164882, Note_on_c, 0, 59, 95
2, 164884, Note_on_c, 0, 55, 95
2, 164886, Note_on_c, 0, 50, 95
2, 164888, Note_on_c, 0, 45, 95
2, 164890, Note_on_c, 0, 40, 95
2, 164922, Note_off_c, 0, 64, 95
2, 164922, Note_off_c, 0, 59, 95
2, 164922, Note_off_c, 0, 55, 95
2, 164922, Note_off_c, 0, 50, 95
2, 164922, Note_off_c, 0, 45, 95
2, 164922, Note_off_c, 0, 40, 95
2, 165120, Note_on_c, 0, 47, 95
2, 165124, Note_on_c, 0, 52, 95
2, 165128, Note_on_c, 0, 59, 95
2, 165132, Note_on_c, 0, 64, 95
2, 165136, Note_on_c, 0, 68, 95
2, 165140, Note_on_c, 0, 71, 95
2, 165600, Note_off_c, 0, 71, 95
2, 165600, Note_off_c, 0, 68, 95
2, 165600, Note_off_c, 0, 64, 95
2, 165600, Note_off_c, 0, 59, 95
2, 165600, Note_off_c, 0, 52, 95
2, 165600, Note_off_c, 0, 47, 95
2, 165600, Note_on_c, 0, 47, 95
2, 165604, Note_on_c, 0, 52, 95
2, 165608, Note_on_c, 0, 59, 95
2, 165612, Note_on_c, 0, 64, 95
2, 165616, Note_on_c, 0, 68, 95
2, 165620, Note_on_c, 0, 71, 95
2, 166080, Note_off_c, 0, 71, 95
2, 166080, Note_off_c, 0, 68, 95
2, 166080, Note_off_c, 0, 64, 95
2, 166080, Note_off_c, 0, 59, 95
2, 166080, Note_off_c, 0, 52, 95
2, 166080, Note_off_c, 0, 47, 95
2, 166080, Note_on_c, 0, 45, 95
2, 166082, Note_on_c, 0, 45, 95
2, 166084, Note_on_c, 0, 50, 95
2, 166086, Note_on_c, 0, 55, 95
2, 166088, Note_on_c, 0, 59, 95
2, 166090, Note_on_c, 0, 64, 95
2, 166122, Note_off_c, 0, 64, 95
2, 166122, Note_off_c, 0, 59, 95
2, 166122, Note_off_c, 0, 55, 95
2, 166122, Note_off_c, 0, 50, 95
2, 166122, Note_off_c, 0, 45, 95
2, 166122, Note_off_c, 0, 45, 95
2, 166320, Note_on_c, 0, 64, 95
2, 166322, Note_on_c, 0, 59, 95
2, 166324, Note_on_c, 0, 55, 95
2, 166326, Note_on_c, 0, 50, 95
2, 166328, Note_on_c, 0, 45, 95
2, 166330, Note_on_c, 0, 40, 95
2, 166362, Note_off_c, 0, 64, 95
2, 166362, Note_off_c, 0, 59, 95
2, 166362, Note_off_c, 0, 55, 95
2, 166362, Note_off_c, 0, 50, 95
2, 166362, Note_off_c, 0, 45, 95
2, 166362, Note_off_c, 0, 40, 95
2, 166560, Note_on_c, 0, 44, 95
2, 166562, Note_on_c, 0, 45, 95
2, 166564, Note_on_c, 0, 50, 95
2, 166566, Note_on_c, 0, 55, 95
2, 166568, Note_on_c, 0, 59, 95
2, 166570, Note_on_c, 0, 64, 95
2, 166602, Note_off_c, 0, 64, 95
2, 166602, Note_off_c, 0, 59, 95
2, 166602, Note_off_c, 0, 55, 95
2, 166602, Note_off_c, 0, 50, 95
2, 166602, Note_off_c, 0, 45, 95
2, 166602, Note_off_c, 0, 44, 95
2, 166800, Note_on_c, 0, 64, 95
2, 166802, Note_on_c, 0, 59, 95
2, 166804, Note_on_c, 0, 55, 95
2, 166806, Note_on_c, 0, 50, 95
2, 166808, Note_on_c, 0, 45, 95
2, 166810, Note_on_c, 0, 40, 95
2, 166842, Note_off_c, 0, 64, 95
2, 166842, Note_off_c, 0, 59, 95
2, 166842, Note_off_c, 0, 55, 95
2, 166842, Note_off_c, 0, 50, 95
2, 166842, Note_off_c, 0, 45, 95
2, 166842, Note_off_c, 0, 40, 95
2, 167040, Note_on_c, 0, 45, 95
2, 167042, Note_on_c, 0, 50, 95
2, 167044, Note_on_c, 0, 57, 95
2, 167046, Note_on_c, 0, 62, 95
2, 167048, Note_on_c, 0, 66, 95
2, 167050, Note_on_c, 0, 69, 95
2, 167280, Note_off_c, 0, 69, 95
2, 167280, Note_off_c, 0, 66, 95
2, 167280, Note_off_c, 0, 62, 95
2, 167280, Note_off_c, 0, 57, 95
2, 167280, Note_off_c, 0, 50, 95
2, 167280, Note_off_c, 0, 45, 95
2, 167520, Note_on_c, 0, 45, 95
2, 167522, Note_on_c, 0, 50, 95
2, 167524, Note_on_c, 0, 57, 95
2, 167526, Note_on_c, 0, 62, 95
2, 167528, Note_on_c, 0, 66, 95
2, 167530, Note_on_c, 0, 69, 95
2, 167562, Note_off_c, 0, 69, 95
2, 167562, Note_off_c, 0, 66, 95
2, 167562, Note_off_c, 0, 62, 95
2, 167562, Note_off_c, 0, 57, 95
2, 167562, Note_off_c, 0, 50, 95
2, 167562, Note_off_c, 0, 45, 95
2, 167760, Note_on_c, 0, 69, 95
2, 167762, Note_on_c, 0, 66, 95
2, 167764, Note_on_c, 0, 62, 95
2, 167766, Note_on_c, 0, 57, 95
2, 167768, Note_on_c, 0, 50, 95
2, 167770, Note_on_c, 0, 45, 95
2, 168000, Note_off_c, 0, 69, 95
2, 168000, Note_off_c, 0, 66, 95
2, 168000, Note_off_c, 0, 62, 95
2, 168000, Note_off_c, 0, 57, 95
2, 168000, Note_off_c, 0, 50, 95
2, 168000, Note_off_c, 0, 45, 95
2, 168240, Note_on_c, 0, 71, 95
2, 168242, Note_on_c, 0, 68, 95
2, 168244, Note_on_c, 0, 64, 95
2, 168246, Note_on_c, 0, 59, 95
2, 168248, Note_on_c, 0, 52, 95
2, 168250, Note_on_c, 0, 47, 95
2, 168480, Note_off_c, 0, 71, 95
2, 168480, Note_off_c, 0, 68, 95
2, 168480, Note_off_c, 0, 64, 95
2, 168480, Note_off_c, 0, 59, 95
2, 168480, Note_off_c, 0, 52, 95
2, 168480, Note_off_c, 0, 47, 95
2, 168480, Note_on_c, 0, 47, 95
2, 168482, Note_on_c, 0, 52, 95
2, 168484, Note_on_c, 0, 59, 95
2, 168486, Note_on_c, 0, 64, 95
2, 168488, Note_on_c, 0, 68, 95
2, 168490, Note_on_c, 0, 71, 95
2, 168720, Note_off_c, 0, 71, 95
2, 168720, Note_off_c, 0, 68, 95
2, 168720, Note_off_c, 0, 64, 95
2, 168720, Note_off_c, 0, 59, 95
2, 168720, Note_off_c, 0, 52, 95
2, 168720, Note_off_c, 0, 47, 95
2, 168960, Note_on_c, 0, 47, 95
2, 168964, Note_on_c, 0, 54, 95
2, 168968, Note_on_c, 0, 59, 95
2, 168972, Note_on_c, 0, 63, 95
2, 168976, Note_on_c, 0, 66, 95
2, 168980, Note_on_c, 0, 71, 95
2, 169440, Note_off_c, 0, 71, 95
2, 169440, Note_off_c, 0, 66, 95
2, 169440, Note_off_c, 0, 63, 95
2, 169440, Note_off_c, 0, 59, 95
2, 169440, Note_off_c, 0, 54, 95
2, 169440, Note_off_c, 0, 47, 95
2, 169440, Note_on_c, 0, 47, 95
2, 169444, Note_on_c, 0, 54, 95
2, 169448, Note_on_c, 0, 59, 95
2, 169452, Note_on_c, 0, 63, 95
2, 169456, Note_on_c, 0, 66, 95
2, 169460, Note_on_c, 0, 71, 95
2, 169920, Note_off_c, 0, 71, 95
2, 169920, Note_off_c, 0, 66, 95
2, 169920, Note_off_c, 0, 63, 95
2, 169920, Note_off_c, 0, 59, 95
2, 169920, Note_off_c, 0, 54, 95
2, 169920, Note_off_c, 0, 47, 95
2, 169920, Note_on_c, 0, 45, 95
2, 169922, Note_on_c, 0, 45, 95
2, 169924, Note_on_c, 0, 50, 95
2, 169926, Note_on_c, 0, 55, 95
2, 169928, Note_on_c, 0, 59, 95
2, 169930, Note_on_c, 0, 64, 95
2, 169962, Note_off_c, 0, 64, 95
2, 169962, Note_off_c, 0, 59, 95
2, 169962, Note_off_c, 0, 55, 95
2, 169962, Note_off_c, 0, 50, 95
2, 169962, Note_off_c, 0, 45, 95
2, 169962, Note_off_c, 0, 45, 95
2, 170160, Note_on_c, 0, 64, 95
2, 170162, Note_on_c, 0, 59, 95
2, 170164, Note_on_c, 0, 55, 95
2, 170166, Note_on_c, 0, 50, 95
2, 170168, Note_on_c, 0, 45, 95
2, 170170, Note_on_c, 0, 40, 95
2, 170202, Note_off_c, 0, 64, 95
2, 170202, Note_off_c, 0, 59, 95
2, 170202, Note_off_c, 0, 55, 95
2, 170202, Note_off_c, 0, 50, 95
2, 170202, Note_off_c, 0, 45, 95
2, 170202, Note_off_c, 0, 40, 95
2, 170400, Note_on_c, 0, 44, 95
2, 170402, Note_on_c, 0, 45, 95
2, 170404, Note_on_c, 0, 50, 95
2, 170406, Note_on_c, 0, 55, 95
2, 170408, Note_on_c, 0, 59, 95
2, 170410, Note_on_c, 0, 64, 95
2, 170442, Note_off_c, 0, 64, 95
2, 170442, Note_off_c, 0, 59, 95
2, 170442, Note_off_c, 0, 55, 95
2, 170442, Note_off_c, 0, 50, 95
2, 170442, Note_off_c, 0, 45, 95
2, 170442, Note_off_c, 0, 44, 95
2, 170640, Note_on_c, 0, 64, 95
2, 170642, Note_on_c, 0, 59, 95
2, 170644, Note_on_c, 0, 55, 95
2, 170646, Note_on_c, 0, 50, 95
2, 170648, Note_on_c, 0, 45, 95
2, 170650, Note_on_c, 0, 40, 95
2, 170682, Note_off_c, 0, 64, 95
2, 170682, Note_off_c, 0, 59, 95
2, 170682, Note_off_c, 0, 55, 95
2, 170682, Note_off_c, 0, 50, 95
2, 170682, Note_off_c, 0, 45, 95
2, 170682, Note_off_c, 0, 40, 95
2, 170880, Note_on_c, 0, 45, 95
2, 170884, Note_on_c, 0, 50, 95
2, 170888, Note_on_c, 0, 57, 95
2, 170892, Note_on_c, 0, 62, 95
2, 170896, Note_on_c, 0, 66, 95
2, 170900, Note_on_c, 0, 69, 95
2, 171360, Note_off_c, 0, 69, 95
2, 171360, Note_off_c, 0, 66, 95
2, 171360, Note_off_c, 0, 62, 95
2, 171360, Note_off_c, 0, 57, 95
2, 171360, Note_off_c, 0, 50, 95
2, 171360, Note_off_c, 0, 45, 95
2, 171360, Note_on_c, 0, 45, 95
2, 171364, Note_on_c, 0, 50, 95
2, 171368, Note_on_c, 0, 57, 95
2, 171372, Note_on_c, 0, 62, 95
2, 171376, Note_on_c, 0, 66, 95
2, 171380, Note_on_c, 0, 69, 95
2, 171840, Note_off_c, 0, 69, 95
2, 171840, Note_off_c, 0, 66, 95
2, 171840, Note_off_c, 0, 62, 95
2, 171840, Note_off_c, 0, 57, 95
2, 171840, Note_off_c, 0, 50, 95
2, 171840, Note_off_c, 0, 45, 95
2, 171840, Note_on_c, 0, 40, 95
2, 171842, Note_on_c, 0, 45, 95
2, 171844, Note_on_c, 0, 50, 95
2, 171846, Note_on_c, 0, 55, 95
2, 171848, Note_on_c, 0, 59, 95
2, 171850, Note_on_c, 0, 64, 95
2, 171882, Note_off_c, 0, 64, 95
2, 171882, Note_off_c, 0, 59, 95
2, 171882, Note_off_c, 0, 55, 95
2, 171882, Note_off_c, 0, 50, 95
2, 171882, Note_off_c, 0, 45, 95
2, 171882, Note_off_c, 0, 40, 95
2, 172080, Note_on_c, 0, 64, 95
2, 172082, Note_on_c, 0, 59, 95
2, 172084, Note_on_c, 0, 55, 95
2, 172086, Note_on_c, 0, 50, 95
2, 172088, Note_on_c, 0, 45, 95
2, 172090, Note_on_c, 0, 40, 95
2, 172122, Note_off_c, 0, 64, 95
2, 172122, Note_off_c, 0, 59, 95
2, 172122, Note_off_c, 0, 55, 95
2, 172122, Note_off_c, 0, 50, 95
2, 172122, Note_off_c, 0, 45, 95
2, 172122, Note_off_c, 0, 40, 95
2, 172320, Note_on_c, 0, 40, 95
2, 172322, Note_on_c, 0, 45, 95
2, 172324, Note_on_c, 0, 50, 95
2, 172326, Note_on_c, 0, 55, 95
2, 172328, Note_on_c, 0, 59, 95
2, 172330, Note_on_c, 0, 64, 95
2, 172362, Note_off_c, 0, 64, 95
2, 172362, Note_off_c, 0, 59, 95
2, 172362, Note_off_c, 0, 55, 95
2, 172362, Note_off_c, 0, 50, 95
2, 172362, Note_off_c, 0, 45, 95
2, 172362, Note_off_c, 0, 40, 95
2, 172560, Note_on_c, 0, 64, 95
2, 172562, Note_on_c, 0, 59, 95
2, 172564, Note_on_c, 0, 55, 95
2, 172566, Note_on_c, 0, 50, 95
2, 172568, Note_on_c, 0, 45, 95
2, 172570, Note_on_c, 0, 40, 95
2, 172602, Note_off_c, 0, 64, 95
2, 172602, Note_off_c, 0, 59, 95
2, 172602, Note_off_c, 0, 55, 95
2, 172602, Note_off_c, 0, 50, 95
2, 172602, Note_off_c, 0, 45, 95
2, 172602, Note_off_c, 0, 40, 95
2, 172800, Note_on_c, 0, 47, 95
2, 172804, Note_on_c, 0, 52, 95
2, 172808, Note_on_c, 0, 59, 95
2, 172812, Note_on_c, 0, 64, 95
2, 172816, Note_on_c, 0, 68, 95
2, 172820, Note_on_c, 0, 71, 95
2, 173280, Note_off_c, 0, 71, 95
2, 173280, Note_off_c, 0, 68, 95
2, 173280, Note_off_c, 0, 64, 95
2, 173280, Note_off_c, 0, 59, 95
2, 173280, Note_off_c, 0, 52, 95
2, 173280, Note_off_c, 0, 47, 95
2, 173280, Note_on_c, 0, 47, 95
2, 173284, Note_on_c, 0, 52, 95
2, 173288, Note_on_c, 0, 59, 95
2, 173292, Note_on_c, 0, 64, 95
2, 173296, Note_on_c, 0, 68, 95
2, 173300, Note_on_c, 0, 71, 95
2, 173760, Note_off_c, 0, 71, 95
2, 173760, Note_off_c, 0, 68, 95
2, 173760, Note_off_c, 0, 64, 95
2, 173760, Note_off_c, 0, 59, 95
2, 173760, Note_off_c, 0, 52, 95
2, 173760, Note_off_c, 0, 47, 95
2, 173760, Note_on_c, 0, 45, 95
2, 173762, Note_on_c, 0, 45, 95
2, 173764, Note_on_c, 0, 50, 95
2, 173766, Note_on_c, 0, 55, 95
2, 173768, Note_on_c, 0, 59, 95
2, 173770, Note_on_c, 0, 64, 95
2, 173802, Note_off_c, 0, 64, 95
2, 173802, Note_off_c, 0, 59, 95
2, 173802, Note_off_c, 0, 55, 95
2, 173802, Note_off_c, 0, 50, 95
2, 173802, Note_off_c, 0, 45, 95
2, 173802, Note_off_c, 0, 45, 95
2, 174000, Note_on_c, 0, 64, 95
2, 174002, Note_on_c, 0, 59, 95
2, 174004, Note_on_c, 0, 55, 95
2, 174006, Note_on_c, 0, 50, 95
2, 174008, Note_on_c, 0, 45, 95
2, 174010, Note_on_c, 0, 40, 95
2, 174042, Note_off_c, 0, 64, 95
2, 174042, Note_off_c, 0, 59, 95
2, 174042, Note_off_c, 0, 55, 95
2, 174042, Note_off_c, 0, 50, 95
2, 174042, Note_off_c, 0, 45, 95
2, 174042, Note_off_c, 0, 40, 95
2, 174240, Note_on_c, 0, 44, 95
2, 174242, Note_on_c, 0, 45, 95
2, 174244, Note_on_c, 0, 50, 95
2, 174246, Note_on_c, 0, 55, 95
2, 174248, Note_on_c, 0, 59, 95
2, 174250, Note_on_c, 0, 64, 95
2, 174282, Note_off_c, 0, 64, 95
2, 174282, Note_off_c, 0, 59, 95
2, 174282, Note_off_c, 0, 55, 95
2, 174282, Note_off_c, 0, 50, 95
2, 174282, Note_off_c, 0, 45, 95
2, 174282, Note_off_c, 0, 44, 95
2, 174480, Note_on_c, 0, 64, 95
2, 174482, Note_on_c, 0, 59, 95
2, 174484, Note_on_c, 0, 55, 95
2, 174486, Note_on_c, 0, 50, 95
2, 174488, Note_on_c, 0, 45, 95
2, 174490, Note_on_c, 0, 40, 95
2, 174522, Note_off_c, 0, 64, 95
2, 174522, Note_off_c, 0, 59, 95
2, 174522, Note_off_c, 0, 55, 95
2, 174522, Note_off_c, 0, 50, 95
2, 174522, Note_off_c, 0, 45, 95
2, 174522, Note_off_c, 0, 40, 95
2, 174720, Note_on_c, 0, 45, 95
2, 174722, Note_on_c, 0, 50, 95
2, 174724, Note_on_c, 0, 57, 95
2, 174726, Note_on_c, 0, 62, 95
2, 174728, Note_on_c, 0, 66, 95
2, 174730, Note_on_c, 0, 69, 95
2, 174960, Note_off_c, 0, 69, 95
2, 174960, Note_off_c, 0, 66, 95
2, 174960, Note_off_c, 0, 62, 95
2, 174960, Note_off_c, 0, 57, 95
2, 174960, Note_off_c, 0, 50, 95
2, 174960, Note_off_c, 0, 45, 95
2, 175200, Note_on_c, 0, 45, 95
2, 175202, Note_on_c, 0, 50, 95
2, 175204, Note_on_c, 0, 57, 95
2, 175206, Note_on_c, 0, 62, 95
2, 175208, Note_on_c, 0, 66, 95
2, 175210, Note_on_c, 0, 69, 95
2, 175242, Note_off_c, 0, 69, 95
2, 175242, Note_off_c, 0, 66, 95
2, 175242, Note_off_c, 0, 62, 95
2, 175242, Note_off_c, 0, 57, 95
2, 175242, Note_off_c, 0, 50, 95
2, 175242, Note_off_c, 0, 45, 95
2, 175440, Note_on_c, 0, 69, 95
2, 175442, Note_on_c, 0, 66, 95
2, 175444, Note_on_c, 0, 62, 95
2, 175446, Note_on_c, 0, 57, 95
2, 175448, Note_on_c, 0, 50, 95
2, 175450, Note_on_c, 0, 45, 95
2, 175680, Note_off_c, 0, 69, 95
2, 175680, Note_off_c, 0, 66, 95
2, 175680, Note_off_c, 0, 62, 95
2, 175680, Note_off_c, 0, 57, 95
2, 175680, Note_off_c, 0, 50, 95
2, 175680, Note_off_c, 0, 45, 95
2, 175920, Note_on_c, 0, 71, 95
2, 175922, Note_on_c, 0, 68, 95
2, 175924, Note_on_c, 0, 64, 95
2, 175926, Note_on_c, 0, 59, 95
2, 175928, Note_on_c, 0, 52, 95
2, 175930, Note_on_c, 0, 47, 95
2, 176160, Note_off_c, 0, 71, 95
2, 176160, Note_off_c, 0, 68, 95
2, 176160, Note_off_c, 0, 64, 95
2, 176160, Note_off_c, 0, 59, 95
2, 176160, Note_off_c, 0, 52, 95
2, 176160, Note_off_c, 0, 47, 95
2, 176160, Note_on_c, 0, 47, 95
2, 176162, Note_on_c, 0, 52, 95
2, 176164, Note_on_c, 0, 59, 95
2, 176166, Note_on_c, 0, 64, 95
2, 176168, Note_on_c, 0, 68, 95
2, 176170, Note_on_c, 0, 71, 95
2, 176400, Note_off_c, 0, 71, 95
2, 176400, Note_off_c, 0, 68, 95
2, 176400, Note_off_c, 0, 64, 95
2, 176400, Note_off_c, 0, 59, 95
2, 176400, Note_off_c, 0, 52, 95
2, 176400, Note_off_c, 0, 47, 95
2, 176640, Note_on_c, 0, 47, 95
2, 176644, Note_on_c, 0, 54, 95
2, 176648, Note_on_c, 0, 59, 95
2, 176652, Note_on_c, 0, 63, 95
2, 176656, Note_on_c, 0, 66, 95
2, 176660, Note_on_c, 0, 71, 95
2, 177120, Note_off_c, 0, 71, 95
2, 177120, Note_off_c, 0, 66, 95
2, 177120, Note_off_c, 0, 63, 95
2, 177120, Note_off_c, 0, 59, 95
2, 177120, Note_off_c, 0, 54, 95
2, 177120, Note_off_c, 0, 47, 95
2, 177120, Note_on_c, 0, 47, 95
2, 177124, Note_on_c, 0, 54, 95
2, 177128, Note_on_c, 0, 59, 95
2, 177132, Note_on_c, 0, 63, 95
2, 177136, Note_on_c, 0, 66, 95
2, 177140, Note_on_c, 0, 71, 95
2, 177600, Note_off_c, 0, 71, 95
2, 177600, Note_off_c, 0, 66, 95
2, 177600, Note_off_c, 0, 63, 95
2, 177600, Note_off_c, 0, 59, 95
2, 177600, Note_off_c, 0, 54, 95
2, 177600, Note_off_c, 0, 47, 95
2, 177600, Note_on_c, 0, 45, 95
2, 177602, Note_on_c, 0, 45, 95
2, 177604, Note_on_c, 0, 50, 95
2, 177606, Note_on_c, 0, 55, 95
2, 177608, Note_on_c, 0, 59, 95
2, 177610, Note_on_c, 0, 64, 95
2, 177642, Note_off_c, 0, 64, 95
2, 177642, Note_off_c, 0, 59, 95
2, 177642, Note_off_c, 0, 55, 95
2, 177642, Note_off_c, 0, 50, 95
2, 177642, Note_off_c, 0, 45, 95
2, 177642, Note_off_c, 0, 45, 95
2, 177840, Note_on_c, 0, 64, 95
2, 177842, Note_on_c, 0, 59, 95
2, 177844, Note_on_c, 0, 55, 95
2, 177846, Note_on_c, 0, 50, 95
2, 177848, Note_on_c, 0, 45, 95
2, 177850, Note_on_c, 0, 40, 95
2, 177882, Note_off_c, 0, 64, 95
2, 177882, Note_off_c, 0, 59, 95
2, 177882, Note_off_c, 0, 55, 95
2, 177882, Note_off_c, 0, 50, 95
2, 177882, Note_off_c, 0, 45, 95
2, 177882, Note_off_c, 0, 40, 95
2, 178080, Note_on_c, 0, 44, 95
2, 178082, Note_on_c, 0, 45, 95
2, 178084, Note_on_c, 0, 50, 95
2, 178086, Note_on_c, 0, 55, 95
2, 178088, Note_on_c, 0, 59, 95
2, 178090, Note_on_c, 0, 64, 95
2, 178122, Note_off_c, 0, 64, 95
2, 178122, Note_off_c, 0, 59, 95
2, 178122, Note_off_c, 0, 55, 95
2, 178122, Note_off_c, 0, 50, 95
2, 178122, Note_off_c, 0, 45, 95
2, 178122, Note_off_c, 0, 44, 95
2, 178320, Note_on_c, 0, 64, 95
2, 178322, Note_on_c, 0, 59, 95
2, 178324, Note_on_c, 0, 55, 95
2, 178326, Note_on_c, 0, 50, 95
2, 178328, Note_on_c, 0, 45, 95
2, 178330, Note_on_c, 0, 40, 95
2, 178362, Note_off_c, 0, 64, 95
2, 178362, Note_off_c, 0, 59, 95
2, 178362, Note_off_c, 0, 55, 95
2, 178362, Note_off_c, 0, 50, 95
2, 178362, Note_off_c, 0, 45, 95
2, 178362, Note_off_c, 0, 40, 95
2, 178560, Note_on_c, 0, 45, 95
2, 178564, Note_on_c, 0, 50, 95
2, 178568, Note_on_c, 0, 57, 95
2, 178572, Note_on_c, 0, 62, 95
2, 178576, Note_on_c, 0, 66, 95
2, 178580, Note_on_c, 0, 69, 95
2, 179040, Note_off_c, 0, 69, 95
2, 179040, Note_off_c, 0, 66, 95
2, 179040, Note_off_c, 0, 62, 95
2, 179040, Note_off_c, 0, 57, 95
2, 179040, Note_off_c, 0, 50, 95
2, 179040, Note_off_c, 0, 45, 95
2, 179040, Note_on_c, 0, 45, 95
2, 179044, Note_on_c, 0, 50, 95
2, 179048, Note_on_c, 0, 57, 95
2, 179052, Note_on_c, 0, 62, 95
2, 179056, Note_on_c, 0, 66, 95
2, 179060, Note_on_c, 0, 69, 95
2, 179520, Note_off_c, 0, 69, 95
2, 179520, Note_off_c, 0, 66, 95
2, 179520, Note_off_c, 0, 62, 95
2, 179520, Note_off_c, 0, 57, 95
2, 179520, Note_off_c, 0, 50, 95
2, 179520, Note_off_c, 0, 45, 95
2, 179520, Note_on_c, 0, 40, 95
2, 179522, Note_on_c, 0, 45, 95
2, 179524, Note_on_c, 0, 50, 95
2, 179526, Note_on_c, 0, 55, 95
2, 179528, Note_on_c, 0, 59, 95
2, 179530, Note_on_c, 0, 64, 95
2, 179562, Note_off_c, 0, 64, 95
2, 179562, Note_off_c, 0, 59, 95
2, 179562, Note_off_c, 0, 55, 95
2, 179562, Note_off_c, 0, 50, 95
2, 179562, Note_off_c, 0, 45, 95
2, 179562, Note_off_c, 0, 40, 95
2, 179760, Note_on_c, 0, 64, 95
2, 179762, Note_on_c, 0, 59, 95
2, 179764, Note_on_c, 0, 55, 95
2, 179766, Note_on_c, 0, 50, 95
2, 179768, Note_on_c, 0, 45, 95
2, 179770, Note_on_c, 0, 40, 95
2, 179802, Note_off_c, 0, 64, 95
2, 179802, Note_off_c, 0, 59, 95
2, 179802, Note_off_c, 0, 55, 95
2, 179802, Note_off_c, 0, 50, 95
2, 179802, Note_off_c, 0, 45, 95
2, 179802, Note_off_c, 0, 40, 95
2, 180000, Note_on_c, 0, 40, 95
2, 180002, Note_on_c, 0, 45, 95
2, 180004, Note_on_c, 0, 50, 95
2, 180006, Note_on_c, 0, 55, 95
2, 180008, Note_on_c, 0, 59, 95
2, 180010, Note_on_c, 0, 64, 95
2, 180042, Note_off_c, 0, 64, 95
2, 180042, Note_off_c, 0, 59, 95
2, 180042, Note_off_c, 0, 55, 95
2, 180042, Note_off_c, 0, 50, 95
2, 180042, Note_off_c, 0, 45, 95
2, 180042, Note_off_c, 0, 40, 95
2, 180240, Note_on_c, 0, 64, 95
2, 180242, Note_on_c, 0, 59, 95
2, 180244, Note_on_c, 0, 55, 95
2, 180246, Note_on_c, 0, 50, 95
2, 180248, Note_on_c, 0, 45, 95
2, 180250, Note_on_c, 0, 40, 95
2, 180282, Note_off_c, 0, 64, 95
2, 180282, Note_off_c, 0, 59, 95
2, 180282, Note_off_c, 0, 55, 95
2, 180282, Note_off_c, 0, 50, 95
2, 180282, Note_off_c, 0, 45, 95
2, 180282, Note_off_c, 0, 40, 95
2, 180480, Note_on_c, 0, 47, 95
2, 180484, Note_on_c, 0, 52, 95
2, 180488, Note_on_c, 0, 59, 95
2, 180492, Note_on_c, 0, 64, 95
2, 180496, Note_on_c, 0, 68, 95
2, 180500, Note_on_c, 0, 71, 95
2, 180960, Note_off_c, 0, 71, 95
2, 180960, Note_off_c, 0, 68, 95
2, 180960, Note_off_c, 0, 64, 95
2, 180960, Note_off_c, 0, 59, 95
2, 180960, Note_off_c, 0, 52, 95
2, 180960, Note_off_c, 0, 47, 95
2, 180960, Note_on_c, 0, 47, 95
2, 180964, Note_on_c, 0, 52, 95
2, 180968, Note_on_c, 0, 59, 95
2, 180972, Note_on_c, 0, 64, 95
2, 180976, Note_on_c, 0, 68, 95
2, 180980, Note_on_c, 0, 71, 95
2, 181440, Note_off_c, 0, 71, 95
2, 181440, Note_off_c, 0, 68, 95
2, 181440, Note_off_c, 0, 64, 95
2, 181440, Note_off_c, 0, 59, 95
2, 181440, Note_off_c, 0, 52, 95
2, 181440, Note_off_c, 0, 47, 95
2, 181440, Note_on_c, 0, 45, 95
2, 181442, Note_on_c, 0, 45, 95
2, 181444, Note_on_c, 0, 50, 95
2, 181446, Note_on_c, 0, 55, 95
2, 181448, Note_on_c, 0, 59, 95
2, 181450, Note_on_c, 0, 64, 95
2, 181482, Note_off_c, 0, 64, 95
2, 181482, Note_off_c, 0, 59, 95
2, 181482, Note_off_c, 0, 55, 95
2, 181482, Note_off_c, 0, 50, 95
2, 181482, Note_off_c, 0, 45, 95
2, 181482, Note_off_c, 0, 45, 95
2, 181680, Note_on_c, 0, 64, 95
2, 181682, Note_on_c, 0, 59, 95
2, 181684, Note_on_c, 0, 55, 95
2, 181686, Note_on_c, 0, 50, 95
2, 181688, Note_on_c, 0, 45, 95
2, 181690, Note_on_c, 0, 40, 95
2, 181722, Note_off_c, 0, 64, 95
2, 181722, Note_off_c, 0, 59, 95
2, 181722, Note_off_c, 0, 55, 95
2, 181722, Note_off_c, 0, 50, 95
2, 181722, Note_off_c, 0, 45, 95
2, 181722, Note_off_c, 0, 40, 95
2, 181920, Note_on_c, 0, 44, 95
2, 181922, Note_on_c, 0, 45, 95
2, 181924, Note_on_c, 0, 50, 95
2, 181926, Note_on_c, 0, 55, 95
2, 181928, Note_on_c, 0, 59, 95
2, 181930, Note_on_c, 0, 64, 95
2, 181962, Note_off_c, 0, 64, 95
2, 181962, Note_off_c, 0, 59, 95
2, 181962, Note_off_c, 0, 55, 95
2, 181962, Note_off_c, 0, 50, 95
2, 181962, Note_off_c, 0, 45, 95
2, 181962, Note_off_c, 0, 44, 95
2, 182160, Note_on_c, 0, 64, 95
2, 182162, Note_on_c, 0, 59, 95
2, 182164, Note_on_c, 0, 55, 95
2, 182166, Note_on_c, 0, 50, 95
2, 182168, Note_on_c, 0, 45, 95
2, 182170, Note_on_c, 0, 40, 95
2, 182202, Note_off_c, 0, 64, 95
2, 182202, Note_off_c, 0, 59, 95
2, 182202, Note_off_c, 0, 55, 95
2, 182202, Note_off_c, 0, 50, 95
2, 182202, Note_off_c, 0, 45, 95
2, 182202, Note_off_c, 0, 40, 95
2, 182400, Note_on_c, 0, 45, 95
2, 182402, Note_on_c, 0, 50, 95
2, 182404, Note_on_c, 0, 57, 95
2, 182406, Note_on_c, 0, 62, 95
2, 182408, Note_on_c, 0, 66, 95
2, 182410, Note_on_c, 0, 69, 95
2, 182640, Note_off_c, 0, 69, 95
2, 182640, Note_off_c, 0, 66, 95
2, 182640, Note_off_c, 0, 62, 95
2, 182640, Note_off_c, 0, 57, 95
2, 182640, Note_off_c, 0, 50, 95
2, 182640, Note_off_c, 0, 45, 95
2, 182880, Note_on_c, 0, 45, 95
2, 182882, Note_on_c, 0, 50, 95
2, 182884, Note_on_c, 0, 57, 95
2, 182886, Note_on_c, 0, 62, 95
2, 182888, Note_on_c, 0, 66, 95
2, 182890, Note_on_c, 0, 69, 95
2, 182922, Note_off_c, 0, 69, 95
2, 182922, Note_off_c, 0, 66, 95
2, 182922, Note_off_c, 0, 62, 95
2, 182922, Note_off_c, 0, 57, 95
2, 182922, Note_off_c, 0, 50, 95
2, 182922, Note_off_c, 0, 45, 95
2, 183120, Note_on_c, 0, 69, 95
2, 183122, Note_on_c, 0, 66, 95
2, 183124, Note_on_c, 0, 62, 95
2, 183126, Note_on_c, 0, 57, 95
2, 183128, Note_on_c, 0, 50, 95
2, 183130, Note_on_c, 0, 45, 95
2, 183360, Note_off_c, 0, 69, 95
2, 183360, Note_off_c, 0, 66, 95
2, 183360, Note_off_c, 0, 62, 95
2, 183360, Note_off_c, 0, 57, 95
2, 183360, Note_off_c, 0, 50, 95
2, 183360, Note_off_c, 0, 45, 95
2, 183600, Note_on_c, 0, 71, 95
2, 183602, Note_on_c, 0, 68, 95
2, 183604, Note_on_c, 0, 64, 95
2, 183606, Note_on_c, 0, 59, 95
2, 183608, Note_on_c, 0, 52, 95
2, 183610, Note_on_c, 0, 47, 95
2, 183840, Note_off_c, 0, 71, 95
2, 183840, Note_off_c, 0, 68, 95
2, 183840, Note_off_c, 0, 64, 95
2, 183840, Note_off_c, 0, 59, 95
2, 183840, Note_off_c, 0, 52, 95
2, 183840, Note_off_c, 0, 47, 95
2, 183840, Note_on_c, 0, 47, 95
2, 183842, Note_on_c, 0, 52, 95
2, 183844, Note_on_c, 0, 59, 95
2, 183846, Note_on_c, 0, 64, 95
2, 183848, Note_on_c, 0, 68, 95
2, 183850, Note_on_c, 0, 71, 95
2, 184080, Note_off_c, 0, 71, 95
2, 184080, Note_off_c, 0, 68, 95
2, 184080, Note_off_c, 0, 64, 95
2, 184080, Note_off_c, 0, 59, 95
2, 184080, Note_off_c, 0, 52, 95
2, 184080, Note_off_c, 0, 47, 95
2, 184320, Note_on_c, 0, 63, 95
2, 184320, Note_on_c, 0, 59, 95
2, 184320, Note_on_c, 0, 54, 95
2, 184320, Note_on_c, 0, 47, 95
2, 185280, Note_off_c, 0, 63, 95
2, 185280, Note_off_c, 0, 59, 95
2, 185280, Note_off_c, 0, 54, 95
2, 185280, Note_off_c, 0, 47, 95
2, 185760, Note_on_c, 0, 61, 95
2, 185760, Note_on_c, 0, 57, 95
2, 185760, Note_on_c, 0, 52, 95
2, 185760, Note_on_c, 0, 45, 95
2, 187200, Note_off_c, 0, 61, 95
2, 187200, Note_off_c, 0, 57, 95
2, 187200, Note_off_c, 0, 52, 95
2, 187200, Note_off_c, 0, 45, 95
2, 187200, Note_on_c, 0, 61, 95
2, 187200, Note_on_c, 0, 57, 95
2, 187200, Note_on_c, 0, 52, 95
2, 187200, Note_on_c, 0, 45, 95
2, 187680, Note_off_c, 0, 61, 95
2, 187680, Note_off_c, 0, 57, 95
2, 187680, Note_off_c, 0, 52, 95
2, 187680, Note_off_c, 0, 45, 95
2, 188160, Note_on_c, 0, 60, 95
2, 188160, Note_on_c, 0, 56, 95
2, 188160, Note_on_c, 0, 51, 95
2, 188160, Note_on_c, 0, 44, 95
2, 188640, Note_off_c, 0, 60, 95
2, 188640, Note_off_c, 0, 56, 95
2, 188640, Note_off_c, 0, 51, 95
2, 188640, Note_off_c, 0, 44, 95
2, 188640, Note_on_c, 0, 60, 95
2, 188640, Note_on_c, 0, 56, 95
2, 188640, Note_on_c, 0, 51, 95
2, 188640, Note_on_c, 0, 44, 95
2, 189120, Note_off_c, 0, 60, 95
2, 189120, Note_off_c, 0, 56, 95
2, 189120, Note_off_c, 0, 51, 95
2, 189120, Note_off_c, 0, 44, 95
2, 189120, Note_on_c, 0, 60, 95
2, 189120, Note_on_c, 0, 56, 95
2, 189120, Note_on_c, 0, 51, 95
2, 189120, Note_on_c, 0, 44, 95
2, 189600, Note_off_c, 0, 60, 95
2, 189600, Note_off_c, 0, 56, 95
2, 189600, Note_off_c, 0, 51, 95
2, 189600, Note_off_c, 0, 44, 95
2, 189600, Note_on_c, 0, 60, 95
2, 189600, Note_on_c, 0, 56, 95
2, 189600, Note_on_c, 0, 51, 95
2, 189600, Note_on_c, 0, 44, 95
2, 190080, Note_off_c, 0, 60, 95
2, 190080, Note_off_c, 0, 56, 95
2, 190080, Note_off_c, 0, 51, 95
2, 190080, Note_off_c, 0, 44, 95
2, 190080, Note_on_c, 0, 59, 95
2, 190080, Note_on_c, 0, 55, 95
2, 190080, Note_on_c, 0, 50, 95
2, 190080, Note_on_c, 0, 43, 95
2, 190560, Note_off_c, 0, 59, 95
2, 190560, Note_off_c, 0, 55, 95
2, 190560, Note_off_c, 0, 50, 95
2, 190560, Note_off_c, 0, 43, 95
2, 190560, Note_on_c, 0, 59, 95
2, 190560, Note_on_c, 0, 55, 95
2, 190560, Note_on_c, 0, 50, 95
2, 190560, Note_on_c, 0, 43, 95
2, 191040, Note_off_c, 0, 59, 95
2, 191040, Note_off_c, 0, 55, 95
2, 191040, Note_off_c, 0, 50, 95
2, 191040, Note_off_c, 0, 43, 95
2, 191040, Note_on_c, 0, 61, 95
2, 191040, Note_on_c, 0, 57, 95
2, 191040, Note_on_c, 0, 52, 95
2, 191040, Note_on_c, 0, 45, 95
2, 191520, Note_off_c, 0, 61, 95
2, 191520, Note_off_c, 0, 57, 95
2, 191520, Note_off_c, 0, 52, 95
2, 191520, Note_off_c, 0, 45, 95
2, 191520, Note_on_c, 0, 61, 95
2, 191520, Note_on_c, 0, 57, 95
2, 191520, Note_on_c, 0, 52, 95
2, 191520, Note_on_c, 0, 45, 95
2, 192000, Note_off_c, 0, 61, 95
2, 192000, Note_off_c, 0, 57, 95
2, 192000, Note_off_c, 0, 52, 95
2, 192000, Note_off_c, 0, 45, 95
2, 192000, Note_on_c, 0, 63, 95
2, 192000, Note_on_c, 0, 59, 95
2, 192000, Note_on_c, 0, 54, 95
2, 192000, Note_on_c, 0, 47, 95
2, 192960, Note_off_c, 0, 63, 95
2, 192960, Note_off_c, 0, 59, 95
2, 192960, Note_off_c, 0, 54, 95
2, 192960, Note_off_c, 0, 47, 95
2, 193440, Note_on_c, 0, 61, 95
2, 193440, Note_on_c, 0, 57, 95
2, 193440, Note_on_c, 0, 52, 95
2, 193440, Note_on_c, 0, 45, 95
2, 194880, Note_off_c, 0, 61, 95
2, 194880, Note_off_c, 0, 57, 95
2, 194880, Note_off_c, 0, 52, 95
2, 194880, Note_off_c, 0, 45, 95
2, 194880, Note_on_c, 0, 61, 95
2, 194880, Note_on_c, 0, 57, 95
2, 194880, Note_on_c, 0, 52, 95
2, 194880, Note_on_c, 0, 45, 95
2, 195360, Note_off_c, 0, 61, 95
2, 195360, Note_off_c, 0, 57, 95
2, 195360, Note_off_c, 0, 52, 95
2, 195360, Note_off_c, 0, 45, 95
2, 195840, Note_on_c, 0, 60, 95
2, 195840, Note_on_c, 0, 56, 95
2, 195840, Note_on_c, 0, 51, 95
2, 195840, Note_on_c, 0, 44, 95
2, 196320, Note_off_c, 0, 60, 95
2, 196320, Note_off_c, 0, 56, 95
2, 196320, Note_off_c, 0, 51, 95
2, 196320, Note_off_c, 0, 44, 95
2, 196320, Note_on_c, 0, 60, 95
2, 196320, Note_on_c, 0, 56, 95
2, 196320, Note_on_c, 0, 51, 95
2, 196320, Note_on_c, 0, 44, 95
2, 196800, Note_off_c, 0, 60, 95
2, 196800, Note_off_c, 0, 56, 95
2, 196800, Note_off_c, 0, 51, 95
2, 196800, Note_off_c, 0, 44, 95
2, 196800, Note_on_c, 0, 60, 95
2, 196800, Note_on_c, 0, 56, 95
2, 196800, Note_on_c, 0, 51, 95
2, 196800, Note_on_c, 0, 44, 95
2, 197280, Note_off_c, 0, 60, 95
2, 197280, Note_off_c, 0, 56, 95
2, 197280, Note_off_c, 0, 51, 95
2, 197280, Note_off_c, 0, 44, 95
2, 197280, Note_on_c, 0, 60, 95
2, 197280, Note_on_c, 0, 56, 95
2, 197280, Note_on_c, 0, 51, 95
2, 197280, Note_on_c, 0, 44, 95
2, 197760, Note_off_c, 0, 60, 95
2, 197760, Note_off_c, 0, 56, 95
2, 197760, Note_off_c, 0, 51, 95
2, 197760, Note_off_c, 0, 44, 95
2, 197760, Note_on_c, 0, 59, 95
2, 197760, Note_on_c, 0, 55, 95
2, 197760, Note_on_c, 0, 50, 95
2, 197760, Note_on_c, 0, 43, 95
2, 198240, Note_off_c, 0, 59, 95
2, 198240, Note_off_c, 0, 55, 95
2, 198240, Note_off_c, 0, 50, 95
2, 198240, Note_off_c, 0, 43, 95
2, 198240, Note_on_c, 0, 59, 95
2, 198240, Note_on_c, 0, 55, 95
2, 198240, Note_on_c, 0, 50, 95
2, 198240, Note_on_c, 0, 43, 95
2, 198720, Note_off_c, 0, 59, 95
2, 198720, Note_off_c, 0, 55, 95
2, 198720, Note_off_c, 0, 50, 95
2, 198720, Note_off_c, 0, 43, 95
2, 198720, Note_on_c, 0, 61, 95
2, 198720, Note_on_c, 0, 57, 95
2, 198720, Note_on_c, 0, 52, 95
2, 198720, Note_on_c, 0, 45, 95
2, 199200, Note_off_c, 0, 61, 95
2, 199200, Note_off_c, 0, 57, 95
2, 199200, Note_off_c, 0, 52, 95
2, 199200, Note_off_c, 0, 45, 95
2, 199200, Note_on_c, 0, 61, 95
2, 199200, Note_on_c, 0, 57, 95
2, 199200, Note_on_c, 0, 52, 95
2, 199200, Note_on_c, 0, 45, 95
2, 199680, Note_off_c, 0, 61, 95
2, 199680, Note_off_c, 0, 57, 95
2, 199680, Note_off_c, 0, 52, 95
2, 199680, Note_off_c, 0, 45, 95
2, 199680, Note_on_c, 0, 63, 95
2, 199680, Note_on_c, 0, 59, 95
2, 199680, Note_on_c, 0, 54, 95
2, 199680, Note_on_c, 0, 47, 95
2, 200640, Note_off_c, 0, 63, 95
2, 200640, Note_off_c, 0, 59, 95
2, 200640, Note_off_c, 0, 54, 95
2, 200640, Note_off_c, 0, 47, 95
2, 201120, Note_on_c, 0, 61, 95
2, 201120, Note_on_c, 0, 57, 95
2, 201120, Note_on_c, 0, 52, 95
2, 201120, Note_on_c, 0, 45, 95
2, 202560, Note_off_c, 0, 61, 95
2, 202560, Note_off_c, 0, 57, 95
2, 202560, Note_off_c, 0, 52, 95
2, 202560, Note_off_c, 0, 45, 95
2, 202560, Note_on_c, 0, 61, 95
2, 202560, Note_on_c, 0, 57, 95
2, 202560, Note_on_c, 0, 52, 95
2, 202560, Note_on_c, 0, 45, 95
2, 203040, Note_off_c, 0, 61, 95
2, 203040, Note_off_c, 0, 57, 95
2, 203040, Note_off_c, 0, 52, 95
2, 203040, Note_off_c, 0, 45, 95
2, 203520, Note_on_c, 0, 60, 95
2, 203520, Note_on_c, 0, 56, 95
2, 203520, Note_on_c, 0, 51, 95
2, 203520, Note_on_c, 0, 44, 95
2, 204000, Note_off_c, 0, 60, 95
2, 204000, Note_off_c, 0, 56, 95
2, 204000, Note_off_c, 0, 51, 95
2, 204000, Note_off_c, 0, 44, 95
2, 204000, Note_on_c, 0, 60, 95
2, 204000, Note_on_c, 0, 56, 95
2, 204000, Note_on_c, 0, 51, 95
2, 204000, Note_on_c, 0, 44, 95
2, 204480, Note_off_c, 0, 60, 95
2, 204480, Note_off_c, 0, 56, 95
2, 204480, Note_off_c, 0, 51, 95
2, 204480, Note_off_c, 0, 44, 95
2, 204480, Note_on_c, 0, 60, 95
2, 204480, Note_on_c, 0, 56, 95
2, 204480, Note_on_c, 0, 51, 95
2, 204480, Note_on_c, 0, 44, 95
2, 204960, Note_off_c, 0, 60, 95
2, 204960, Note_off_c, 0, 56, 95
2, 204960, Note_off_c, 0, 51, 95
2, 204960, Note_off_c, 0, 44, 95
2, 204960, Note_on_c, 0, 60, 95
2, 204960, Note_on_c, 0, 56, 95
2, 204960, Note_on_c, 0, 51, 95
2, 204960, Note_on_c, 0, 44, 95
2, 205440, Note_off_c, 0, 60, 95
2, 205440, Note_off_c, 0, 56, 95
2, 205440, Note_off_c, 0, 51, 95
2, 205440, Note_off_c, 0, 44, 95
2, 205440, Note_on_c, 0, 59, 95
2, 205440, Note_on_c, 0, 55, 95
2, 205440, Note_on_c, 0, 50, 95
2, 205440, Note_on_c, 0, 43, 95
2, 205920, Note_off_c, 0, 59, 95
2, 205920, Note_off_c, 0, 55, 95
2, 205920, Note_off_c, 0, 50, 95
2, 205920, Note_off_c, 0, 43, 95
2, 205920, Note_on_c, 0, 59, 95
2, 205920, Note_on_c, 0, 55, 95
2, 205920, Note_on_c, 0, 50, 95
2, 205920, Note_on_c, 0, 43, 95
2, 206400, Note_off_c, 0, 59, 95
2, 206400, Note_off_c, 0, 55, 95
2, 206400, Note_off_c, 0, 50, 95
2, 206400, Note_off_c, 0, 43, 95
2, 206400, Note_on_c, 0, 61, 95
2, 206400, Note_on_c, 0, 57, 95
2, 206400, Note_on_c, 0, 52, 95
2, 206400, Note_on_c, 0, 45, 95
2, 206880, Note_off_c, 0, 61, 95
2, 206880, Note_off_c, 0, 57, 95
2, 206880, Note_off_c, 0, 52, 95
2, 206880, Note_off_c, 0, 45, 95
2, 206880, Note_on_c, 0, 61, 95
2, 206880, Note_on_c, 0, 57, 95
2, 206880, Note_on_c, 0, 52, 95
2, 206880, Note_on_c, 0, 45, 95
2, 207360, Note_off_c, 0, 61, 95
2, 207360, Note_off_c, 0, 57, 95
2, 207360, Note_off_c, 0, 52, 95
2, 207360, Note_off_c, 0, 45, 95
2, 207360, Note_on_c, 0, 47, 95
2, 207364, Note_on_c, 0, 54, 95
2, 207368, Note_on_c, 0, 59, 95
2, 207372, Note_on_c, 0, 63, 95
2, 207376, Note_on_c, 0, 66, 95
2, 207380, Note_on_c, 0, 71, 95
2, 207840, Note_off_c, 0, 71, 95
2, 207840, Note_off_c, 0, 66, 95
2, 207840, Note_off_c, 0, 63, 95
2, 207840, Note_off_c, 0, 59, 95
2, 207840, Note_off_c, 0, 54, 95
2, 207840, Note_off_c, 0, 47, 95
2, 207840, Note_on_c, 0, 47, 95
2, 207844, Note_on_c, 0, 54, 95
2, 207848, Note_on_c, 0, 59, 95
2, 207852, Note_on_c, 0, 63, 95
2, 207856, Note_on_c, 0, 66, 95
2, 207860, Note_on_c, 0, 71, 95
2, 208320, Note_off_c, 0, 71, 95
2, 208320, Note_off_c, 0, 66, 95
2, 208320, Note_off_c, 0, 63, 95
2, 208320, Note_off_c, 0, 59, 95
2, 208320, Note_off_c, 0, 54, 95
2, 208320, Note_off_c, 0, 47, 95
2, 208320, Note_on_c, 0, 45, 95
2, 208322, Note_on_c, 0, 45, 95
2, 208324, Note_on_c, 0, 50, 95
2, 208326, Note_on_c, 0, 55, 95
2, 208328, Note_on_c, 0, 59, 95
2, 208330, Note_on_c, 0, 64, 95
2, 208362, Note_off_c, 0, 64, 95
2, 208362, Note_off_c, 0, 59, 95
2, 208362, Note_off_c, 0, 55, 95
2, 208362, Note_off_c, 0, 50, 95
2, 208362, Note_off_c, 0, 45, 95
2, 208362, Note_off_c, 0, 45, 95
2, 208560, Note_on_c, 0, 64, 95
2, 208562, Note_on_c, 0, 59, 95
2, 208564, Note_on_c, 0, 55, 95
2, 208566, Note_on_c, 0, 50, 95
2, 208568, Note_on_c, 0, 45, 95
2, 208570, Note_on_c, 0, 40, 95
2, 208602, Note_off_c, 0, 64, 95
2, 208602, Note_off_c, 0, 59, 95
2, 208602, Note_off_c, 0, 55, 95
2, 208602, Note_off_c, 0, 50, 95
2, 208602, Note_off_c, 0, 45, 95
2, 208602, Note_off_c, 0, 40, 95
2, 208800, Note_on_c, 0, 44, 95
2, 208802, Note_on_c, 0, 45, 95
2, 208804, Note_on_c, 0, 50, 95
2, 208806, Note_on_c, 0, 55, 95
2, 208808, Note_on_c, 0, 59, 95
2, 208810, Note_on_c, 0, 64, 95
2, 208842, Note_off_c, 0, 64, 95
2, 208842, Note_off_c, 0, 59, 95
2, 208842, Note_off_c, 0, 55, 95
2, 208842, Note_off_c, 0, 50, 95
2, 208842, Note_off_c, 0, 45, 95
2, 208842, Note_off_c, 0, 44, 95
2, 209040, Note_on_c, 0, 64, 95
2, 209042, Note_on_c, 0, 59, 95
2, 209044, Note_on_c, 0, 55, 95
2, 209046, Note_on_c, 0, 50, 95
2, 209048, Note_on_c, 0, 45, 95
2, 209050, Note_on_c, 0, 40, 95
2, 209082, Note_off_c, 0, 64, 95
2, 209082, Note_off_c, 0, 59, 95
2, 209082, Note_off_c, 0, 55, 95
2, 209082, Note_off_c, 0, 50, 95
2, 209082, Note_off_c, 0, 45, 95
2, 209082, Note_off_c, 0, 40, 95
2, 209280, Note_on_c, 0, 45, 95
2, 209284, Note_on_c, 0, 50, 95
2, 209288, Note_on_c, 0, 57, 95
2, 209292, Note_on_c, 0, 62, 95
2, 209296, Note_on_c, 0, 66, 95
2, 209300, Note_on_c, 0, 69, 95
2, 209760, Note_off_c, 0, 69, 95
2, 209760, Note_off_c, 0, 66, 95
2, 209760, Note_off_c, 0, 62, 95
2, 209760, Note_off_c, 0, 57, 95
2, 209760, Note_off_c, 0, 50, 95
2, 209760, Note_off_c, 0, 45, 95
2, 209760, Note_on_c, 0, 45, 95
2, 209764, Note_on_c, 0, 50, 95
2, 209768, Note_on_c, 0, 57, 95
2, 209772, Note_on_c, 0, 62, 95
2, 209776, Note_on_c, 0, 66, 95
2, 209780, Note_on_c, 0, 69, 95
2, 210240, Note_off_c, 0, 69, 95
2, 210240, Note_off_c, 0, 66, 95
2, 210240, Note_off_c, 0, 62, 95
2, 210240, Note_off_c, 0, 57, 95
2, 210240, Note_off_c, 0, 50, 95
2, 210240, Note_off_c, 0, 45, 95
2, 210240, Note_on_c, 0, 40, 95
2, 210242, Note_on_c, 0, 45, 95
2, 210244, Note_on_c, 0, 50, 95
2, 210246, Note_on_c, 0, 55, 95
2, 210248, Note_on_c, 0, 59, 95
2, 210250, Note_on_c, 0, 64, 95
2, 210282, Note_off_c, 0, 64, 95
2, 210282, Note_off_c, 0, 59, 95
2, 210282, Note_off_c, 0, 55, 95
2, 210282, Note_off_c, 0, 50, 95
2, 210282, Note_off_c, 0, 45, 95
2, 210282, Note_off_c, 0, 40, 95
2, 210480, Note_on_c, 0, 64, 95
2, 210482, Note_on_c, 0, 59, 95
2, 210484, Note_on_c, 0, 55, 95
2, 210486, Note_on_c, 0, 50, 95
2, 210488, Note_on_c, 0, 45, 95
2, 210490, Note_on_c, 0, 40, 95
2, 210522, Note_off_c, 0, 64, 95
2, 210522, Note_off_c, 0, 59, 95
2, 210522, Note_off_c, 0, 55, 95
2, 210522, Note_off_c, 0, 50, 95
2, 210522, Note_off_c, 0, 45, 95
2, 210522, Note_off_c, 0, 40, 95
2, 210720, Note_on_c, 0, 40, 95
2, 210722, Note_on_c, 0, 45, 95
2, 210724, Note_on_c, 0, 50, 95
2, 210726, Note_on_c, 0, 55, 95
2, 210728, Note_on_c, 0, 59, 95
2, 210730, Note_on_c, 0, 64, 95
2, 210762, Note_off_c, 0, 64, 95
2, 210762, Note_off_c, 0, 59, 95
2, 210762, Note_off_c, 0, 55, 95
2, 210762, Note_off_c, 0, 50, 95
2, 210762, Note_off_c, 0, 45, 95
2, 210762, Note_off_c, 0, 40, 95
2, 210960, Note_on_c, 0, 64, 95
2, 210962, Note_on_c, 0, 59, 95
2, 210964, Note_on_c, 0, 55, 95
2, 210966, Note_on_c, 0, 50, 95
2, 210968, Note_on_c, 0, 45, 95
2, 210970, Note_on_c, 0, 40, 95
2, 211002, Note_off_c, 0, 64, 95
2, 211002, Note_off_c, 0, 59, 95
2, 211002, Note_off_c, 0, 55, 95
2, 211002, Note_off_c, 0, 50, 95
2, 211002, Note_off_c, 0, 45, 95
2, 211002, Note_off_c, 0, 40, 95
2, 211200, Note_on_c, 0, 47, 95
2, 211204, Note_on_c, 0, 52, 95
2, 211208, Note_on_c, 0, 59, 95
2, 211212, Note_on_c, 0, 64, 95
2, 211216, Note_on_c, 0, 68, 95
2, 211220, Note_on_c, 0, 71, 95
2, 211680, Note_off_c, 0, 71, 95
2, 211680, Note_off_c, 0, 68, 95
2, 211680, Note_off_c, 0, 64, 95
2, 211680, Note_off_c, 0, 59, 95
2, 211680, Note_off_c, 0, 52, 95
2, 211680, Note_off_c, 0, 47, 95
2, 211680, Note_on_c, 0, 47, 95
2, 211684, Note_on_c, 0, 52, 95
2, 211688, Note_on_c, 0, 59, 95
2, 211692, Note_on_c, 0, 64, 95
2, 211696, Note_on_c, 0, 68, 95
2, 211700, Note_on_c, 0, 71, 95
2, 212160, Note_off_c, 0, 71, 95
2, 212160, Note_off_c, 0, 68, 95
2, 212160, Note_off_c, 0, 64, 95
2, 212160, Note_off_c, 0, 59, 95
2, 212160, Note_off_c, 0, 52, 95
2, 212160, Note_off_c, 0, 47, 95
2, 212160, Note_on_c, 0, 45, 95
2, 212162, Note_on_c, 0, 45, 95
2, 212164, Note_on_c, 0, 50, 95
2, 212166, Note_on_c, 0, 55, 95
2, 212168, Note_on_c, 0, 59, 95
2, 212170, Note_on_c, 0, 64, 95
2, 212202, Note_off_c, 0, 64, 95
2, 212202, Note_off_c, 0, 59, 95
2, 212202, Note_off_c, 0, 55, 95
2, 212202, Note_off_c, 0, 50, 95
2, 212202, Note_off_c, 0, 45, 95
2, 212202, Note_off_c, 0, 45, 95
2, 212400, Note_on_c, 0, 64, 95
2, 212402, Note_on_c, 0, 59, 95
2, 212404, Note_on_c, 0, 55, 95
2, 212406, Note_on_c, 0, 50, 95
2, 212408, Note_on_c, 0, 45, 95
2, 212410, Note_on_c, 0, 40, 95
2, 212442, Note_off_c, 0, 64, 95
2, 212442, Note_off_c, 0, 59, 95
2, 212442, Note_off_c, 0, 55, 95
2, 212442, Note_off_c, 0, 50, 95
2, 212442, Note_off_c, 0, 45, 95
2, 212442, Note_off_c, 0, 40, 95
2, 212640, Note_on_c, 0, 44, 95
2, 212642, Note_on_c, 0, 45, 95
2, 212644, Note_on_c, 0, 50, 95
2, 212646, Note_on_c, 0, 55, 95
2, 212648, Note_on_c, 0, 59, 95
2, 212650, Note_on_c, 0, 64, 95
2, 212682, Note_off_c, 0, 64, 95
2, 212682, Note_off_c, 0, 59, 95
2, 212682, Note_off_c, 0, 55, 95
2, 212682, Note_off_c, 0, 50, 95
2, 212682, Note_off_c, 0, 45, 95
2, 212682, Note_off_c, 0, 44, 95
2, 212880, Note_on_c, 0, 64, 95
2, 212882, Note_on_c, 0, 59, 95
2, 212884, Note_on_c, 0, 55, 95
2, 212886, Note_on_c, 0, 50, 95
2, 212888, Note_on_c, 0, 45, 95
2, 212890, Note_on_c, 0, 40, 95
2, 212922, Note_off_c, 0, 64, 95
2, 212922, Note_off_c, 0, 59, 95
2, 212922, Note_off_c, 0, 55, 95
2, 212922, Note_off_c, 0, 50, 95
2, 212922, Note_off_c, 0, 45, 95
2, 212922, Note_off_c, 0, 40, 95
2, 213120, Note_on_c, 0, 45, 95
2, 213122, Note_on_c, 0, 50, 95
2, 213124, Note_on_c, 0, 57, 95
2, 213126, Note_on_c, 0, 62, 95
2, 213128, Note_on_c, 0, 66, 95
2, 213130, Note_on_c, 0, 69, 95
2, 213360, Note_off_c, 0, 69, 95
2, 213360, Note_off_c, 0, 66, 95
2, 213360, Note_off_c, 0, 62, 95
2, 213360, Note_off_c, 0, 57, 95
2, 213360, Note_off_c, 0, 50, 95
2, 213360, Note_off_c, 0, 45, 95
2, 213600, Note_on_c, 0, 45, 95
2, 213602, Note_on_c, 0, 50, 95
2, 213604, Note_on_c, 0, 57, 95
2, 213606, Note_on_c, 0, 62, 95
2, 213608, Note_on_c, 0, 66, 95
2, 213610, Note_on_c, 0, 69, 95
2, 213642, Note_off_c, 0, 69, 95
2, 213642, Note_off_c, 0, 66, 95
2, 213642, Note_off_c, 0, 62, 95
2, 213642, Note_off_c, 0, 57, 95
2, 213642, Note_off_c, 0, 50, 95
2, 213642, Note_off_c, 0, 45, 95
2, 213840, Note_on_c, 0, 69, 95
2, 213842, Note_on_c, 0, 66, 95
2, 213844, Note_on_c, 0, 62, 95
2, 213846, Note_on_c, 0, 57, 95
2, 213848, Note_on_c, 0, 50, 95
2, 213850, Note_on_c, 0, 45, 95
2, 214080, Note_off_c, 0, 69, 95
2, 214080, Note_off_c, 0, 66, 95
2, 214080, Note_off_c, 0, 62, 95
2, 214080, Note_off_c, 0, 57, 95
2, 214080, Note_off_c, 0, 50, 95
2, 214080, Note_off_c, 0, 45, 95
2, 214320, Note_on_c, 0, 71, 95
2, 214322, Note_on_c, 0, 68, 95
2, 214324, Note_on_c, 0, 64, 95
2, 214326, Note_on_c, 0, 59, 95
2, 214328, Note_on_c, 0, 52, 95
2, 214330, Note_on_c, 0, 47, 95
2, 214560, Note_off_c, 0, 71, 95
2, 214560, Note_off_c, 0, 68, 95
2, 214560, Note_off_c, 0, 64, 95
2, 214560, Note_off_c, 0, 59, 95
2, 214560, Note_off_c, 0, 52, 95
2, 214560, Note_off_c, 0, 47, 95
2, 214560, Note_on_c, 0, 47, 95
2, 214562, Note_on_c, 0, 52, 95
2, 214564, Note_on_c, 0, 59, 95
2, 214566, Note_on_c, 0, 64, 95
2, 214568, Note_on_c, 0, 68, 95
2, 214570, Note_on_c, 0, 71, 95
2, 214800, Note_off_c, 0, 71, 95
2, 214800, Note_off_c, 0, 68, 95
2, 214800, Note_off_c, 0, 64, 95
2, 214800, Note_off_c, 0, 59, 95
2, 214800, Note_off_c, 0, 52, 95
2, 214800, Note_off_c, 0, 47, 95
2, 215040, Note_on_c, 0, 47, 95
2, 215044, Note_on_c, 0, 54, 95
2, 215048, Note_on_c, 0, 59, 95
2, 215052, Note_on_c, 0, 63, 95
2, 215056, Note_on_c, 0, 66, 95
2, 215060, Note_on_c, 0, 71, 95
2, 215520, Note_off_c, 0, 71, 95
2, 215520, Note_off_c, 0, 66, 95
2, 215520, Note_off_c, 0, 63, 95
2, 215520, Note_off_c, 0, 59, 95
2, 215520, Note_off_c, 0, 54, 95
2, 215520, Note_off_c, 0, 47, 95
2, 215520, Note_on_c, 0, 47, 95
2, 215524, Note_on_c, 0, 54, 95
2, 215528, Note_on_c, 0, 59, 95
2, 215532, Note_on_c, 0, 63, 95
2, 215536, Note_on_c, 0, 66, 95
2, 215540, Note_on_c, 0, 71, 95
2, 216000, Note_off_c, 0, 71, 95
2, 216000, Note_off_c, 0, 66, 95
2, 216000, Note_off_c, 0, 63, 95
2, 216000, Note_off_c, 0, 59, 95
2, 216000, Note_off_c, 0, 54, 95
2, 216000, Note_off_c, 0, 47, 95
2, 216000, Note_on_c, 0, 45, 95
2, 216002, Note_on_c, 0, 45, 95
2, 216004, Note_on_c, 0, 50, 95
2, 216006, Note_on_c, 0, 55, 95
2, 216008, Note_on_c, 0, 59, 95
2, 216010, Note_on_c, 0, 64, 95
2, 216042, Note_off_c, 0, 64, 95
2, 216042, Note_off_c, 0, 59, 95
2, 216042, Note_off_c, 0, 55, 95
2, 216042, Note_off_c, 0, 50, 95
2, 216042, Note_off_c, 0, 45, 95
2, 216042, Note_off_c, 0, 45, 95
2, 216240, Note_on_c, 0, 64, 95
2, 216242, Note_on_c, 0, 59, 95
2, 216244, Note_on_c, 0, 55, 95
2, 216246, Note_on_c, 0, 50, 95
2, 216248, Note_on_c, 0, 45, 95
2, 216250, Note_on_c, 0, 40, 95
2, 216282, Note_off_c, 0, 64, 95
2, 216282, Note_off_c, 0, 59, 95
2, 216282, Note_off_c, 0, 55, 95
2, 216282, Note_off_c, 0, 50, 95
2, 216282, Note_off_c, 0, 45, 95
2, 216282, Note_off_c, 0, 40, 95
2, 216480, Note_on_c, 0, 44, 95
2, 216482, Note_on_c, 0, 45, 95
2, 216484, Note_on_c, 0, 50, 95
2, 216486, Note_on_c, 0, 55, 95
2, 216488, Note_on_c, 0, 59, 95
2, 216490, Note_on_c, 0, 64, 95
2, 216522, Note_off_c, 0, 64, 95
2, 216522, Note_off_c, 0, 59, 95
2, 216522, Note_off_c, 0, 55, 95
2, 216522, Note_off_c, 0, 50, 95
2, 216522, Note_off_c, 0, 45, 95
2, 216522, Note_off_c, 0, 44, 95
2, 216720, Note_on_c, 0, 64, 95
2, 216722, Note_on_c, 0, 59, 95
2, 216724, Note_on_c, 0, 55, 95
2, 216726, Note_on_c, 0, 50, 95
2, 216728, Note_on_c, 0, 45, 95
2, 216730, Note_on_c, 0, 40, 95
2, 216762, Note_off_c, 0, 64, 95
2, 216762, Note_off_c, 0, 59, 95
2, 216762, Note_off_c, 0, 55, 95
2, 216762, Note_off_c, 0, 50, 95
2, 216762, Note_off_c, 0, 45, 95
2, 216762, Note_off_c, 0, 40, 95
2, 216960, Note_on_c, 0, 45, 95
2, 216964, Note_on_c, 0, 50, 95
2, 216968, Note_on_c, 0, 57, 95
2, 216972, Note_on_c, 0, 62, 95
2, 216976, Note_on_c, 0, 66, 95
2, 216980, Note_on_c, 0, 69, 95
2, 217440, Note_off_c, 0, 69, 95
2, 217440, Note_off_c, 0, 66, 95
2, 217440, Note_off_c, 0, 62, 95
2, 217440, Note_off_c, 0, 57, 95
2, 217440, Note_off_c, 0, 50, 95
2, 217440, Note_off_c, 0, 45, 95
2, 217440, Note_on_c, 0, 45, 95
2, 217444, Note_on_c, 0, 50, 95
2, 217448, Note_on_c, 0, 57, 95
2, 217452, Note_on_c, 0, 62, 95
2, 217456, Note_on_c, 0, 66, 95
2, 217460, Note_on_c, 0, 69, 95
2, 217920, Note_off_c, 0, 69, 95
2, 217920, Note_off_c, 0, 66, 95
2, 217920, Note_off_c, 0, 62, 95
2, 217920, Note_off_c, 0, 57, 95
2, 217920, Note_off_c, 0, 50, 95
2, 217920, Note_off_c, 0, 45, 95
2, 217920, Note_on_c, 0, 40, 95
2, 217922, Note_on_c, 0, 45, 95
2, 217924, Note_on_c, 0, 50, 95
2, 217926, Note_on_c, 0, 55, 95
2, 217928, Note_on_c, 0, 59, 95
2, 217930, Note_on_c, 0, 64, 95
2, 217962, Note_off_c, 0, 64, 95
2, 217962, Note_off_c, 0, 59, 95
2, 217962, Note_off_c, 0, 55, 95
2, 217962, Note_off_c, 0, 50, 95
2, 217962, Note_off_c, 0, 45, 95
2, 217962, Note_off_c, 0, 40, 95
2, 218160, Note_on_c, 0, 64, 95
2, 218162, Note_on_c, 0, 59, 95
2, 218164, Note_on_c, 0, 55, 95
2, 218166, Note_on_c, 0, 50, 95
2, 218168, Note_on_c, 0, 45, 95
2, 218170, Note_on_c, 0, 40, 95
2, 218202, Note_off_c, 0, 64, 95
2, 218202, Note_off_c, 0, 59, 95
2, 218202, Note_off_c, 0, 55, 95
2, 218202, Note_off_c, 0, 50, 95
2, 218202, Note_off_c, 0, 45, 95
2, 218202, Note_off_c, 0, 40, 95
2, 218400, Note_on_c, 0, 40, 95
2, 218402, Note_on_c, 0, 45, 95
2, 218404, Note_on_c, 0, 50, 95
2, 218406, Note_on_c, 0, 55, 95
2, 218408, Note_on_c, 0, 59, 95
2, 218410, Note_on_c, 0, 64, 95
2, 218442, Note_off_c, 0, 64, 95
2, 218442, Note_off_c, 0, 59, 95
2, 218442, Note_off_c, 0, 55, 95
2, 218442, Note_off_c, 0, 50, 95
2, 218442, Note_off_c, 0, 45, 95
2, 218442, Note_off_c, 0, 40, 95
2, 218640, Note_on_c, 0, 64, 95
2, 218642, Note_on_c, 0, 59, 95
2, 218644, Note_on_c, 0, 55, 95
2, 218646, Note_on_c, 0, 50, 95
2, 218648, Note_on_c, 0, 45, 95
2, 218650, Note_on_c, 0, 40, 95
2, 218682, Note_off_c, 0, 64, 95
2, 218682, Note_off_c, 0, 59, 95
2, 218682, Note_off_c, 0, 55, 95
2, 218682, Note_off_c, 0, 50, 95
2, 218682, Note_off_c, 0, 45, 95
2, 218682, Note_off_c, 0, 40, 95
2, 218880, Note_on_c, 0, 47, 95
2, 218884, Note_on_c, 0, 52, 95
2, 218888, Note_on_c, 0, 59, 95
2, 218892, Note_on_c, 0, 64, 95
2, 218896, Note_on_c, 0, 68, 95
2, 218900, Note_on_c, 0, 71, 95
2, 219360, Note_off_c, 0, 71, 95
2, 219360, Note_off_c, 0, 68, 95
2, 219360, Note_off_c, 0, 64, 95
2, 219360, Note_off_c, 0, 59, 95
2, 219360, Note_off_c, 0, 52, 95
2, 219360, Note_off_c, 0, 47, 95
2, 219360, Note_on_c, 0, 47, 95
2, 219364, Note_on_c, 0, 52, 95
2, 219368, Note_on_c, 0, 59, 95
2, 219372, Note_on_c, 0, 64, 95
2, 219376, Note_on_c, 0, 68, 95
2, 219380, Note_on_c, 0, 71, 95
2, 219840, Note_off_c, 0, 71, 95
2, 219840, Note_off_c, 0, 68, 95
2, 219840, Note_off_c, 0, 64, 95
2, 219840, Note_off_c, 0, 59, 95
2, 219840, Note_off_c, 0, 52, 95
2, 219840, Note_off_c, 0, 47, 95
2, 219840, Note_on_c, 0, 45, 95
2, 219842, Note_on_c, 0, 45, 95
2, 219844, Note_on_c, 0, 50, 95
2, 219846, Note_on_c, 0, 55, 95
2, 219848, Note_on_c, 0, 59, 95
2, 219850, Note_on_c, 0, 64, 95
2, 219882, Note_off_c, 0, 64, 95
2, 219882, Note_off_c, 0, 59, 95
2, 219882, Note_off_c, 0, 55, 95
2, 219882, Note_off_c, 0, 50, 95
2, 219882, Note_off_c, 0, 45, 95
2, 219882, Note_off_c, 0, 45, 95
2, 220080, Note_on_c, 0, 64, 95
2, 220082, Note_on_c, 0, 59, 95
2, 220084, Note_on_c, 0, 55, 95
2, 220086, Note_on_c, 0, 50, 95
2, 220088, Note_on_c, 0, 45, 95
2, 220090, Note_on_c, 0, 40, 95
2, 220122, Note_off_c, 0, 64, 95
2, 220122, Note_off_c, 0, 59, 95
2, 220122, Note_off_c, 0, 55, 95
2, 220122, Note_off_c, 0, 50, 95
2, 220122, Note_off_c, 0, 45, 95
2, 220122, Note_off_c, 0, 40, 95
2, 220320, Note_on_c, 0, 44, 95
2, 220322, Note_on_c, 0, 45, 95
2, 220324, Note_on_c, 0, 50, 95
2, 220326, Note_on_c, 0, 55, 95
2, 220328, Note_on_c, 0, 59, 95
2, 220330, Note_on_c, 0, 64, 95
2, 220362, Note_off_c, 0, 64, 95
2, 220362, Note_off_c, 0, 59, 95
2, 220362, Note_off_c, 0, 55, 95
2, 220362, Note_off_c, 0, 50, 95
2, 220362, Note_off_c, 0, 45, 95
2, 220362, Note_off_c, 0, 44, 95
2, 220560, Note_on_c, 0, 64, 95
2, 220562, Note_on_c, 0, 59, 95
2, 220564, Note_on_c, 0, 55, 95
2, 220566, Note_on_c, 0, 50, 95
2, 220568, Note_on_c, 0, 45, 95
2, 220570, Note_on_c, 0, 40, 95
2, 220602, Note_off_c, 0, 64, 95
2, 220602, Note_off_c, 0, 59, 95
2, 220602, Note_off_c, 0, 55, 95
2, 220602, Note_off_c, 0, 50, 95
2, 220602, Note_off_c, 0, 45, 95
2, 220602, Note_off_c, 0, 40, 95
2, 220800, Note_on_c, 0, 45, 95
2, 220802, Note_on_c, 0, 50, 95
2, 220804, Note_on_c, 0, 57, 95
2, 220806, Note_on_c, 0, 62, 95
2, 220808, Note_on_c, 0, 66, 95
2, 220810, Note_on_c, 0, 69, 95
2, 221040, Note_off_c, 0, 69, 95
2, 221040, Note_off_c, 0, 66, 95
2, 221040, Note_off_c, 0, 62, 95
2, 221040, Note_off_c, 0, 57, 95
2, 221040, Note_off_c, 0, 50, 95
2, 221040, Note_off_c, 0, 45, 95
2, 221280, Note_on_c, 0, 45, 95
2, 221282, Note_on_c, 0, 50, 95
2, 221284, Note_on_c, 0, 57, 95
2, 221286, Note_on_c, 0, 62, 95
2, 221288, Note_on_c, 0, 66, 95
2, 221290, Note_on_c, 0, 69, 95
2, 221322, Note_off_c, 0, 69, 95
2, 221322, Note_off_c, 0, 66, 95
2, 221322, Note_off_c, 0, 62, 95
2, 221322, Note_off_c, 0, 57, 95
2, 221322, Note_off_c, 0, 50, 95
2, 221322, Note_off_c, 0, 45, 95
2, 221520, Note_on_c, 0, 69, 95
2, 221522, Note_on_c, 0, 66, 95
2, 221524, Note_on_c, 0, 62, 95
2, 221526, Note_on_c, 0, 57, 95
2, 221528, Note_on_c, 0, 50, 95
2, 221530, Note_on_c, 0, 45, 95
2, 221760, Note_off_c, 0, 69, 95
2, 221760, Note_off_c, 0, 66, 95
2, 221760, Note_off_c, 0, 62, 95
2, 221760, Note_off_c, 0, 57, 95
2, 221760, Note_off_c, 0, 50, 95
2, 221760, Note_off_c, 0, 45, 95
2, 222000, Note_on_c, 0, 71, 95
2, 222002, Note_on_c, 0, 68, 95
2, 222004, Note_on_c, 0, 64, 95
2, 222006, Note_on_c, 0, 59, 95
2, 222008, Note_on_c, 0, 52, 95
2, 222010, Note_on_c, 0, 47, 95
2, 222240, Note_off_c, 0, 71, 95
2, 222240, Note_off_c, 0, 68, 95
2, 222240, Note_off_c, 0, 64, 95
2, 222240, Note_off_c, 0, 59, 95
2, 222240, Note_off_c, 0, 52, 95
2, 222240, Note_off_c, 0, 47, 95
2, 222240, Note_on_c, 0, 47, 95
2, 222242, Note_on_c, 0, 52, 95
2, 222244, Note_on_c, 0, 59, 95
2, 222246, Note_on_c, 0, 64, 95
2, 222248, Note_on_c, 0, 68, 95
2, 222250, Note_on_c, 0, 71, 95
2, 222480, Note_off_c, 0, 71, 95
2, 222480, Note_off_c, 0, 68, 95
2, 222480, Note_off_c, 0, 64, 95
2, 222480, Note_off_c, 0, 59, 95
2, 222480, Note_off_c, 0, 52, 95
2, 222480, Note_off_c, 0, 47, 95
2, 222720, Note_on_c, 0, 47, 95
2, 222724, Note_on_c, 0, 54, 95
2, 222728, Note_on_c, 0, 59, 95
2, 222732, Note_on_c, 0, 63, 95
2, 222736, Note_on_c, 0, 66, 95
2, 222740, Note_on_c, 0, 71, 95
2, 223200, Note_off_c, 0, 71, 95
2, 223200, Note_off_c, 0, 66, 95
2, 223200, Note_off_c, 0, 63, 95
2, 223200, Note_off_c, 0, 59, 95
2, 223200, Note_off_c, 0, 54, 95
2, 223200, Note_off_c, 0, 47, 95
2, 223200, Note_on_c, 0, 47, 95
2, 223204, Note_on_c, 0, 54, 95
2, 223208, Note_on_c, 0, 59, 95
2, 223212, Note_on_c, 0, 63, 95
2, 223216, Note_on_c, 0, 66, 95
2, 223220, Note_on_c, 0, 71, 95
2, 223680, Note_off_c, 0, 71, 95
2, 223680, Note_off_c, 0, 66, 95
2, 223680, Note_off_c, 0, 63, 95
2, 223680, Note_off_c, 0, 59, 95
2, 223680, Note_off_c, 0, 54, 95
2, 223680, Note_off_c, 0, 47, 95
2, 223680, Note_on_c, 0, 45, 95
2, 223682, Note_on_c, 0, 45, 95
2, 223684, Note_on_c, 0, 50, 95
2, 223686, Note_on_c, 0, 55, 95
2, 223688, Note_on_c, 0, 59, 95
2, 223690, Note_on_c, 0, 64, 95
2, 223722, Note_off_c, 0, 64, 95
2, 223722, Note_off_c, 0, 59, 95
2, 223722, Note_off_c, 0, 55, 95
2, 223722, Note_off_c, 0, 50, 95
2, 223722, Note_off_c, 0, 45, 95
2, 223722, Note_off_c, 0, 45, 95
2, 223920, Note_on_c, 0, 64, 95
2, 223922, Note_on_c, 0, 59, 95
2, 223924, Note_on_c, 0, 55, 95
2, 223926, Note_on_c, 0, 50, 95
2, 223928, Note_on_c, 0, 45, 95
2, 223930, Note_on_c, 0, 40, 95
2, 223962, Note_off_c, 0, 64, 95
2, 223962, Note_off_c, 0, 59, 95
2, 223962, Note_off_c, 0, 55, 95
2, 223962, Note_off_c, 0, 50, 95
2, 223962, Note_off_c, 0, 45, 95
2, 223962, Note_off_c, 0, 40, 95
2, 224160, Note_on_c, 0, 44, 95
2, 224162, Note_on_c, 0, 45, 95
2, 224164, Note_on_c, 0, 50, 95
2, 224166, Note_on_c, 0, 55, 95
2, 224168, Note_on_c, 0, 59, 95
2, 224170, Note_on_c, 0, 64, 95
2, 224202, Note_off_c, 0, 64, 95
2, 224202, Note_off_c, 0, 59, 95
2, 224202, Note_off_c, 0, 55, 95
2, 224202, Note_off_c, 0, 50, 95
2, 224202, Note_off_c, 0, 45, 95
2, 224202, Note_off_c, 0, 44, 95
2, 224400, Note_on_c, 0, 64, 95
2, 224402, Note_on_c, 0, 59, 95
2, 224404, Note_on_c, 0, 55, 95
2, 224406, Note_on_c, 0, 50, 95
2, 224408, Note_on_c, 0, 45, 95
2, 224410, Note_on_c, 0, 40, 95
2, 224442, Note_off_c, 0, 64, 95
2, 224442, Note_off_c, 0, 59, 95
2, 224442, Note_off_c, 0, 55, 95
2, 224442, Note_off_c, 0, 50, 95
2, 224442, Note_off_c, 0, 45, 95
2, 224442, Note_off_c, 0, 40, 95
2, 224640, Note_on_c, 0, 45, 95
2, 224644, Note_on_c, 0, 50, 95
2, 224648, Note_on_c, 0, 57, 95
2, 224652, Note_on_c, 0, 62, 95
2, 224656, Note_on_c, 0, 66, 95
2, 224660, Note_on_c, 0, 69, 95
2, 225120, Note_off_c, 0, 69, 95
2, 225120, Note_off_c, 0, 66, 95
2, 225120, Note_off_c, 0, 62, 95
2, 225120, Note_off_c, 0, 57, 95
2, 225120, Note_off_c, 0, 50, 95
2, 225120, Note_off_c, 0, 45, 95
2, 225120, Note_on_c, 0, 45, 95
2, 225124, Note_on_c, 0, 50, 95
2, 225128, Note_on_c, 0, 57, 95
2, 225132, Note_on_c, 0, 62, 95
2, 225136, Note_on_c, 0, 66, 95
2, 225140, Note_on_c, 0, 69, 95
2, 225600, Note_off_c, 0, 69, 95
2, 225600, Note_off_c, 0, 66, 95
2, 225600, Note_off_c, 0, 62, 95
2, 225600, Note_off_c, 0, 57, 95
2, 225600, Note_off_c, 0, 50, 95
2, 225600, Note_off_c, 0, 45, 95
2, 225600, Note_on_c, 0, 40, 95
2, 225602, Note_on_c, 0, 45, 95
2, 225604, Note_on_c, 0, 50, 95
2, 225606, Note_on_c, 0, 55, 95
2, 225608, Note_on_c, 0, 59, 95
2, 225610, Note_on_c, 0, 64, 95
2, 225642, Note_off_c, 0, 64, 95
2, 225642, Note_off_c, 0, 59, 95
2, 225642, Note_off_c, 0, 55, 95
2, 225642, Note_off_c, 0, 50, 95
2, 225642, Note_off_c, 0, 45, 95
2, 225642, Note_off_c, 0, 40, 95
2, 225840, Note_on_c, 0, 64, 95
2, 225842, Note_on_c, 0, 59, 95
2, 225844, Note_on_c, 0, 55, 95
2, 225846, Note_on_c, 0, 50, 95
2, 225848, Note_on_c, 0, 45, 95
2, 225850, Note_on_c, 0, 40, 95
2, 225882, Note_off_c, 0, 64, 95
2, 225882, Note_off_c, 0, 59, 95
2, 225882, Note_off_c, 0, 55, 95
2, 225882, Note_off_c, 0, 50, 95
2, 225882, Note_off_c, 0, 45, 95
2, 225882, Note_off_c, 0, 40, 95
2, 226080, Note_on_c, 0, 40, 95
2, 226082, Note_on_c, 0, 45, 95
2, 226084, Note_on_c, 0, 50, 95
2, 226086, Note_on_c, 0, 55, 95
2, 226088, Note_on_c, 0, 59, 95
2, 226090, Note_on_c, 0, 64, 95
2, 226122, Note_off_c, 0, 64, 95
2, 226122, Note_off_c, 0, 59, 95
2, 226122, Note_off_c, 0, 55, 95
2, 226122, Note_off_c, 0, 50, 95
2, 226122, Note_off_c, 0, 45, 95
2, 226122, Note_off_c, 0, 40, 95
2, 226320, Note_on_c, 0, 64, 95
2, 226322, Note_on_c, 0, 59, 95
2, 226324, Note_on_c, 0, 55, 95
2, 226326, Note_on_c, 0, 50, 95
2, 226328, Note_on_c, 0, 45, 95
2, 226330, Note_on_c, 0, 40, 95
2, 226362, Note_off_c, 0, 64, 95
2, 226362, Note_off_c, 0, 59, 95
2, 226362, Note_off_c, 0, 55, 95
2, 226362, Note_off_c, 0, 50, 95
2, 226362, Note_off_c, 0, 45, 95
2, 226362, Note_off_c, 0, 40, 95
2, 226560, Note_on_c, 0, 47, 95
2, 226564, Note_on_c, 0, 52, 95
2, 226568, Note_on_c, 0, 59, 95
2, 226572, Note_on_c, 0, 64, 95
2, 226576, Note_on_c, 0, 68, 95
2, 226580, Note_on_c, 0, 71, 95
2, 227040, Note_off_c, 0, 71, 95
2, 227040, Note_off_c, 0, 68, 95
2, 227040, Note_off_c, 0, 64, 95
2, 227040, Note_off_c, 0, 59, 95
2, 227040, Note_off_c, 0, 52, 95
2, 227040, Note_off_c, 0, 47, 95
2, 227040, Note_on_c, 0, 47, 95
2, 227044, Note_on_c, 0, 52, 95
2, 227048, Note_on_c, 0, 59, 95
2, 227052, Note_on_c, 0, 64, 95
2, 227056, Note_on_c, 0, 68, 95
2, 227060, Note_on_c, 0, 71, 95
2, 227520, Note_off_c, 0, 71, 95
2, 227520, Note_off_c, 0, 68, 95
2, 227520, Note_off_c, 0, 64, 95
2, 227520, Note_off_c, 0, 59, 95
2, 227520, Note_off_c, 0, 52, 95
2, 227520, Note_off_c, 0, 47, 95
2, 227520, Note_on_c, 0, 45, 95
2, 227522, Note_on_c, 0, 45, 95
2, 227524, Note_on_c, 0, 50, 95
2, 227526, Note_on_c, 0, 55, 95
2, 227528, Note_on_c, 0, 59, 95
2, 227530, Note_on_c, 0, 64, 95
2, 227562, Note_off_c, 0, 64, 95
2, 227562, Note_off_c, 0, 59, 95
2, 227562, Note_off_c, 0, 55, 95
2, 227562, Note_off_c, 0, 50, 95
2, 227562, Note_off_c, 0, 45, 95
2, 227562, Note_off_c, 0, 45, 95
2, 227760, Note_on_c, 0, 64, 95
2, 227762, Note_on_c, 0, 59, 95
2, 227764, Note_on_c, 0, 55, 95
2, 227766, Note_on_c, 0, 50, 95
2, 227768, Note_on_c, 0, 45, 95
2, 227770, Note_on_c, 0, 40, 95
2, 227802, Note_off_c, 0, 64, 95
2, 227802, Note_off_c, 0, 59, 95
2, 227802, Note_off_c, 0, 55, 95
2, 227802, Note_off_c, 0, 50, 95
2, 227802, Note_off_c, 0, 45, 95
2, 227802, Note_off_c, 0, 40, 95
2, 228000, Note_on_c, 0, 44, 95
2, 228002, Note_on_c, 0, 45, 95
2, 228004, Note_on_c, 0, 50, 95
2, 228006, Note_on_c, 0, 55, 95
2, 228008, Note_on_c, 0, 59, 95
2, 228010, Note_on_c, 0, 64, 95
2, 228042, Note_off_c, 0, 64, 95
2, 228042, Note_off_c, 0, 59, 95
2, 228042, Note_off_c, 0, 55, 95
2, 228042, Note_off_c, 0, 50, 95
2, 228042, Note_off_c, 0, 45, 95
2, 228042, Note_off_c, 0, 44, 95
2, 228240, Note_on_c, 0, 64, 95
2, 228242, Note_on_c, 0, 59, 95
2, 228244, Note_on_c, 0, 55, 95
2, 228246, Note_on_c, 0, 50, 95
2, 228248, Note_on_c, 0, 45, 95
2, 228250, Note_on_c, 0, 40, 95
2, 228282, Note_off_c, 0, 64, 95
2, 228282, Note_off_c, 0, 59, 95
2, 228282, Note_off_c, 0, 55, 95
2, 228282, Note_off_c, 0, 50, 95
2, 228282, Note_off_c, 0, 45, 95
2, 228282, Note_off_c, 0, 40, 95
2, 228480, Note_on_c, 0, 45, 95
2, 228482, Note_on_c, 0, 50, 95
2, 228484, Note_on_c, 0, 57, 95
2, 228486, Note_on_c, 0, 62, 95
2, 228488, Note_on_c, 0, 66, 95
2, 228490, Note_on_c, 0, 69, 95
2, 228720, Note_off_c, 0, 69, 95
2, 228720, Note_off_c, 0, 66, 95
2, 228720, Note_off_c, 0, 62, 95
2, 228720, Note_off_c, 0, 57, 95
2, 228720, Note_off_c, 0, 50, 95
2, 228720, Note_off_c, 0, 45, 95
2, 228960, Note_on_c, 0, 45, 95
2, 228962, Note_on_c, 0, 50, 95
2, 228964, Note_on_c, 0, 57, 95
2, 228966, Note_on_c, 0, 62, 95
2, 228968, Note_on_c, 0, 66, 95
2, 228970, Note_on_c, 0, 69, 95
2, 229002, Note_off_c, 0, 69, 95
2, 229002, Note_off_c, 0, 66, 95
2, 229002, Note_off_c, 0, 62, 95
2, 229002, Note_off_c, 0, 57, 95
2, 229002, Note_off_c, 0, 50, 95
2, 229002, Note_off_c, 0, 45, 95
2, 229200, Note_on_c, 0, 69, 95
2, 229202, Note_on_c, 0, 66, 95
2, 229204, Note_on_c, 0, 62, 95
2, 229206, Note_on_c, 0, 57, 95
2, 229208, Note_on_c, 0, 50, 95
2, 229210, Note_on_c, 0, 45, 95
2, 229440, Note_off_c, 0, 69, 95
2, 229440, Note_off_c, 0, 66, 95
2, 229440, Note_off_c, 0, 62, 95
2, 229440, Note_off_c, 0, 57, 95
2, 229440, Note_off_c, 0, 50, 95
2, 229440, Note_off_c, 0, 45, 95
2, 229680, Note_on_c, 0, 71, 95
2, 229682, Note_on_c, 0, 68, 95
2, 229684, Note_on_c, 0, 64, 95
2, 229686, Note_on_c, 0, 59, 95
2, 229688, Note_on_c, 0, 52, 95
2, 229690, Note_on_c, 0, 47, 95
2, 229920, Note_off_c, 0, 71, 95
2, 229920, Note_off_c, 0, 68, 95
2, 229920, Note_off_c, 0, 64, 95
2, 229920, Note_off_c, 0, 59, 95
2, 229920, Note_off_c, 0, 52, 95
2, 229920, Note_off_c, 0, 47, 95
2, 229920, Note_on_c, 0, 47, 95
2, 229922, Note_on_c, 0, 52, 95
2, 229924, Note_on_c, 0, 59, 95
2, 229926, Note_on_c, 0, 64, 95
2, 229928, Note_on_c, 0, 68, 95
2, 229930, Note_on_c, 0, 71, 95
2, 230160, Note_off_c, 0, 71, 95
2, 230160, Note_off_c, 0, 68, 95
2, 230160, Note_off_c, 0, 64, 95
2, 230160, Note_off_c, 0, 59, 95
2, 230160, Note_off_c, 0, 52, 95
2, 230160, Note_off_c, 0, 47, 95
2, 230400, Note_on_c, 0, 47, 95
2, 230404, Note_on_c, 0, 54, 95
2, 230408, Note_on_c, 0, 59, 95
2, 230412, Note_on_c, 0, 63, 95
2, 230416, Note_on_c, 0, 66, 95
2, 230420, Note_on_c, 0, 71, 95
2, 230880, Note_off_c, 0, 71, 95
2, 230880, Note_off_c, 0, 66, 95
2, 230880, Note_off_c, 0, 63, 95
2, 230880, Note_off_c, 0, 59, 95
2, 230880, Note_off_c, 0, 54, 95
2, 230880, Note_off_c, 0, 47, 95
2, 230880, Note_on_c, 0, 47, 95
2, 230884, Note_on_c, 0, 54, 95
2, 230888, Note_on_c, 0, 59, 95
2, 230892, Note_on_c, 0, 63, 95
2, 230896, Note_on_c, 0, 66, 95
2, 230900, Note_on_c, 0, 71, 95
2, 231360, Note_off_c, 0, 71, 95
2, 231360, Note_off_c, 0, 66, 95
2, 231360, Note_off_c, 0, 63, 95
2, 231360, Note_off_c, 0, 59, 95
2, 231360, Note_off_c, 0, 54, 95
2, 231360, Note_off_c, 0, 47, 95
2, 231360, Note_on_c, 0, 45, 95
2, 231362, Note_on_c, 0, 45, 95
2, 231364, Note_on_c, 0, 50, 95
2, 231366, Note_on_c, 0, 55, 95
2, 231368, Note_on_c, 0, 59, 95
2, 231370, Note_on_c, 0, 64, 95
2, 231402, Note_off_c, 0, 64, 95
2, 231402, Note_off_c, 0, 59, 95
2, 231402, Note_off_c, 0, 55, 95
2, 231402, Note_off_c, 0, 50, 95
2, 231402, Note_off_c, 0, 45, 95
2, 231402, Note_off_c, 0, 45, 95
2, 231600, Note_on_c, 0, 64, 95
2, 231602, Note_on_c, 0, 59, 95
2, 231604, Note_on_c, 0, 55, 95
2, 231606, Note_on_c, 0, 50, 95
2, 231608, Note_on_c, 0, 45, 95
2, 231610, Note_on_c, 0, 40, 95
2, 231642, Note_off_c, 0, 64, 95
2, 231642, Note_off_c, 0, 59, 95
2, 231642, Note_off_c, 0, 55, 95
2, 231642, Note_off_c, 0, 50, 95
2, 231642, Note_off_c, 0, 45, 95
2, 231642, Note_off_c, 0, 40, 95
2, 231840, Note_on_c, 0, 44, 95
2, 231842, Note_on_c, 0, 45, 95
2, 231844, Note_on_c, 0, 50, 95
2, 231846, Note_on_c, 0, 55, 95
2, 231848, Note_on_c, 0, 59, 95
2, 231850, Note_on_c, 0, 64, 95
2, 231882, Note_off_c, 0, 64, 95
2, 231882, Note_off_c, 0, 59, 95
2, 231882, Note_off_c, 0, 55, 95
2, 231882, Note_off_c, 0, 50, 95
2, 231882, Note_off_c, 0, 45, 95
2, 231882, Note_off_c, 0, 44, 95
2, 232080, Note_on_c, 0, 64, 95
2, 232082, Note_on_c, 0, 59, 95
2, 232084, Note_on_c, 0, 55, 95
2, 232086, Note_on_c, 0, 50, 95
2, 232088, Note_on_c, 0, 45, 95
2, 232090, Note_on_c, 0, 40, 95
2, 232122, Note_off_c, 0, 64, 95
2, 232122, Note_off_c, 0, 59, 95
2, 232122, Note_off_c, 0, 55, 95
2, 232122, Note_off_c, 0, 50, 95
2, 232122, Note_off_c, 0, 45, 95
2, 232122, Note_off_c, 0, 40, 95
2, 232320, Note_on_c, 0, 45, 95
2, 232324, Note_on_c, 0, 50, 95
2, 232328, Note_on_c, 0, 57, 95
2, 232332, Note_on_c, 0, 62, 95
2, 232336, Note_on_c, 0, 66, 95
2, 232340, Note_on_c, 0, 69, 95
2, 232800, Note_off_c, 0, 69, 95
2, 232800, Note_off_c, 0, 66, 95
2, 232800, Note_off_c, 0, 62, 95
2, 232800, Note_off_c, 0, 57, 95
2, 232800, Note_off_c, 0, 50, 95
2, 232800, Note_off_c, 0, 45, 95
2, 232800, Note_on_c, 0, 45, 95
2, 232804, Note_on_c, 0, 50, 95
2, 232808, Note_on_c, 0, 57, 95
2, 232812, Note_on_c, 0, 62, 95
2, 232816, Note_on_c, 0, 66, 95
2, 232820, Note_on_c, 0, 69, 95
2, 233280, Note_off_c, 0, 69, 95
2, 233280, Note_off_c, 0, 66, 95
2, 233280, Note_off_c, 0, 62, 95
2, 233280, Note_off_c, 0, 57, 95
2, 233280, Note_off_c, 0, 50, 95
2, 233280, Note_off_c, 0, 45, 95
2, 233280, Note_on_c, 0, 40, 95
2, 233282, Note_on_c, 0, 45, 95
2, 233284, Note_on_c, 0, 50, 95
2, 233286, Note_on_c, 0, 55, 95
2, 233288, Note_on_c, 0, 59, 95
2, 233290, Note_on_c, 0, 64, 95
2, 233322, Note_off_c, 0, 64, 95
2, 233322, Note_off_c, 0, 59, 95
2, 233322, Note_off_c, 0, 55, 95
2, 233322, Note_off_c, 0, 50, 95
2, 233322, Note_off_c, 0, 45, 95
2, 233322, Note_off_c, 0, 40, 95
2, 233520, Note_on_c, 0, 64, 95
2, 233522, Note_on_c, 0, 59, 95
2, 233524, Note_on_c, 0, 55, 95
2, 233526, Note_on_c, 0, 50, 95
2, 233528, Note_on_c, 0, 45, 95
2, 233530, Note_on_c, 0, 40, 95
2, 233562, Note_off_c, 0, 64, 95
2, 233562, Note_off_c, 0, 59, 95
2, 233562, Note_off_c, 0, 55, 95
2, 233562, Note_off_c, 0, 50, 95
2, 233562, Note_off_c, 0, 45, 95
2, 233562, Note_off_c, 0, 40, 95
2, 233760, Note_on_c, 0, 40, 95
2, 233762, Note_on_c, 0, 45, 95
2, 233764, Note_on_c, 0, 50, 95
2, 233766, Note_on_c, 0, 55, 95
2, 233768, Note_on_c, 0, 59, 95
2, 233770, Note_on_c, 0, 64, 95
2, 233802, Note_off_c, 0, 64, 95
2, 233802, Note_off_c, 0, 59, 95
2, 233802, Note_off_c, 0, 55, 95
2, 233802, Note_off_c, 0, 50, 95
2, 233802, Note_off_c, 0, 45, 95
2, 233802, Note_off_c, 0, 40, 95
2, 234000, Note_on_c, 0, 64, 95
2, 234002, Note_on_c, 0, 59, 95
2, 234004, Note_on_c, 0, 55, 95
2, 234006, Note_on_c, 0, 50, 95
2, 234008, Note_on_c, 0, 45, 95
2, 234010, Note_on_c, 0, 40, 95
2, 234042, Note_off_c, 0, 64, 95
2, 234042, Note_off_c, 0, 59, 95
2, 234042, Note_off_c, 0, 55, 95
2, 234042, Note_off_c, 0, 50, 95
2, 234042, Note_off_c, 0, 45, 95
2, 234042, Note_off_c, 0, 40, 95
2, 234240, Note_on_c, 0, 47, 95
2, 234244, Note_on_c, 0, 52, 95
2, 234248, Note_on_c, 0, 59, 95
2, 234252, Note_on_c, 0, 64, 95
2, 234256, Note_on_c, 0, 68, 95
2, 234260, Note_on_c, 0, 71, 95
2, 234720, Note_off_c, 0, 71, 95
2, 234720, Note_off_c, 0, 68, 95
2, 234720, Note_off_c, 0, 64, 95
2, 234720, Note_off_c, 0, 59, 95
2, 234720, Note_off_c, 0, 52, 95
2, 234720, Note_off_c, 0, 47, 95
2, 234720, Note_on_c, 0, 47, 95
2, 234724, Note_on_c, 0, 52, 95
2, 234728, Note_on_c, 0, 59, 95
2, 234732, Note_on_c, 0, 64, 95
2, 234736, Note_on_c, 0, 68, 95
2, 234740, Note_on_c, 0, 71, 95
2, 235200, Note_off_c, 0, 71, 95
2, 235200, Note_off_c, 0, 68, 95
2, 235200, Note_off_c, 0, 64, 95
2, 235200, Note_off_c, 0, 59, 95
2, 235200, Note_off_c, 0, 52, 95
2, 235200, Note_off_c, 0, 47, 95
2, 235200, Note_on_c, 0, 45, 95
2, 235202, Note_on_c, 0, 45, 95
2, 235204, Note_on_c, 0, 50, 95
2, 235206, Note_on_c, 0, 55, 95
2, 235208, Note_on_c, 0, 59, 95
2, 235210, Note_on_c, 0, 64, 95
2, 235242, Note_off_c, 0, 64, 95
2, 235242, Note_off_c, 0, 59, 95
2, 235242, Note_off_c, 0, 55, 95
2, 235242, Note_off_c, 0, 50, 95
2, 235242, Note_off_c, 0, 45, 95
2, 235242, Note_off_c, 0, 45, 95
2, 235440, Note_on_c, 0, 64, 95
2, 235442, Note_on_c, 0, 59, 95
2, 235444, Note_on_c, 0, 55, 95
2, 235446, Note_on_c, 0, 50, 95
2, 235448, Note_on_c, 0, 45, 95
2, 235450, Note_on_c, 0, 40, 95
2, 235482, Note_off_c, 0, 64, 95
2, 235482, Note_off_c, 0, 59, 95
2, 235482, Note_off_c, 0, 55, 95
2, 235482, Note_off_c, 0, 50, 95
2, 235482, Note_off_c, 0, 45, 95
2, 235482, Note_off_c, 0, 40, 95
2, 235680, Note_on_c, 0, 44, 95
2, 235682, Note_on_c, 0, 45, 95
2, 235684, Note_on_c, 0, 50, 95
2, 235686, Note_on_c, 0, 55, 95
2, 235688, Note_on_c, 0, 59, 95
2, 235690, Note_on_c, 0, 64, 95
2, 235722, Note_off_c, 0, 64, 95
2, 235722, Note_off_c, 0, 59, 95
2, 235722, Note_off_c, 0, 55, 95
2, 235722, Note_off_c, 0, 50, 95
2, 235722, Note_off_c, 0, 45, 95
2, 235722, Note_off_c, 0, 44, 95
2, 235920, Note_on_c, 0, 64, 95
2, 235922, Note_on_c, 0, 59, 95
2, 235924, Note_on_c, 0, 55, 95
2, 235926, Note_on_c, 0, 50, 95
2, 235928, Note_on_c, 0, 45, 95
2, 235930, Note_on_c, 0, 40, 95
2, 235962, Note_off_c, 0, 64, 95
2, 235962, Note_off_c, 0, 59, 95
2, 235962, Note_off_c, 0, 55, 95
2, 235962, Note_off_c, 0, 50, 95
2, 235962, Note_off_c, 0, 45, 95
2, 235962, Note_off_c, 0, 40, 95
2, 236160, Note_on_c, 0, 45, 95
2, 236162, Note_on_c, 0, 50, 95
2, 236164, Note_on_c, 0, 57, 95
2, 236166, Note_on_c, 0, 62, 95
2, 236168, Note_on_c, 0, 66, 95
2, 236170, Note_on_c, 0, 69, 95
2, 236400, Note_off_c, 0, 69, 95
2, 236400, Note_off_c, 0, 66, 95
2, 236400, Note_off_c, 0, 62, 95
2, 236400, Note_off_c, 0, 57, 95
2, 236400, Note_off_c, 0, 50, 95
2, 236400, Note_off_c, 0, 45, 95
2, 236640, Note_on_c, 0, 45, 95
2, 236642, Note_on_c, 0, 50, 95
2, 236644, Note_on_c, 0, 57, 95
2, 236646, Note_on_c, 0, 62, 95
2, 236648, Note_on_c, 0, 66, 95
2, 236650, Note_on_c, 0, 69, 95
2, 236682, Note_off_c, 0, 69, 95
2, 236682, Note_off_c, 0, 66, 95
2, 236682, Note_off_c, 0, 62, 95
2, 236682, Note_off_c, 0, 57, 95
2, 236682, Note_off_c, 0, 50, 95
2, 236682, Note_off_c, 0, 45, 95
2, 236880, Note_on_c, 0, 69, 95
2, 236882, Note_on_c, 0, 66, 95
2, 236884, Note_on_c, 0, 62, 95
2, 236886, Note_on_c, 0, 57, 95
2, 236888, Note_on_c, 0, 50, 95
2, 236890, Note_on_c, 0, 45, 95
2, 237120, Note_off_c, 0, 69, 95
2, 237120, Note_off_c, 0, 66, 95
2, 237120, Note_off_c, 0, 62, 95
2, 237120, Note_off_c, 0, 57, 95
2, 237120, Note_off_c, 0, 50, 95
2, 237120, Note_off_c, 0, 45, 95
2, 237360, Note_on_c, 0, 71, 95
2, 237362, Note_on_c, 0, 68, 95
2, 237364, Note_on_c, 0, 64, 95
2, 237366, Note_on_c, 0, 59, 95
2, 237368, Note_on_c, 0, 52, 95
2, 237370, Note_on_c, 0, 47, 95
2, 237600, Note_off_c, 0, 71, 95
2, 237600, Note_off_c, 0, 68, 95
2, 237600, Note_off_c, 0, 64, 95
2, 237600, Note_off_c, 0, 59, 95
2, 237600, Note_off_c, 0, 52, 95
2, 237600, Note_off_c, 0, 47, 95
2, 237600, Note_on_c, 0, 47, 95
2, 237602, Note_on_c, 0, 52, 95
2, 237604, Note_on_c, 0, 59, 95
2, 237606, Note_on_c, 0, 64, 95
2, 237608, Note_on_c, 0, 68, 95
2, 237610, Note_on_c, 0, 71, 95
2, 237840, Note_off_c, 0, 71, 95
2, 237840, Note_off_c, 0, 68, 95
2, 237840, Note_off_c, 0, 64, 95
2, 237840, Note_off_c, 0, 59, 95
2, 237840, Note_off_c, 0, 52, 95
2, 237840, Note_off_c, 0, 47, 95
2, 238080, Note_on_c, 0, 47, 95
2, 238084, Note_on_c, 0, 54, 95
2, 238088, Note_on_c, 0, 59, 95
2, 238092, Note_on_c, 0, 63, 95
2, 238096, Note_on_c, 0, 66, 95
2, 238100, Note_on_c, 0, 71, 95
2, 238560, Note_off_c, 0, 71, 95
2, 238560, Note_off_c, 0, 66, 95
2, 238560, Note_off_c, 0, 63, 95
2, 238560, Note_off_c, 0, 59, 95
2, 238560, Note_off_c, 0, 54, 95
2, 238560, Note_off_c, 0, 47, 95
2, 238560, Note_on_c, 0, 47, 95
2, 238564, Note_on_c, 0, 54, 95
2, 238568, Note_on_c, 0, 59, 95
2, 238572, Note_on_c, 0, 63, 95
2, 238576, Note_on_c, 0, 66, 95
2, 238580, Note_on_c, 0, 71, 95
2, 239040, Note_off_c, 0, 71, 95
2, 239040, Note_off_c, 0, 66, 95
2, 239040, Note_off_c, 0, 63, 95
2, 239040, Note_off_c, 0, 59, 95
2, 239040, Note_off_c, 0, 54, 95
2, 239040, Note_off_c, 0, 47, 95
2, 239040, Note_on_c, 0, 45, 95
2, 239042, Note_on_c, 0, 45, 95
2, 239044, Note_on_c, 0, 50, 95
2, 239046, Note_on_c, 0, 55, 95
2, 239048, Note_on_c, 0, 59, 95
2, 239050, Note_on_c, 0, 64, 95
2, 239082, Note_off_c, 0, 64, 95
2, 239082, Note_off_c, 0, 59, 95
2, 239082, Note_off_c, 0, 55, 95
2, 239082, Note_off_c, 0, 50, 95
2, 239082, Note_off_c, 0, 45, 95
2, 239082, Note_off_c, 0, 45, 95
2, 239280, Note_on_c, 0, 64, 95
2, 239282, Note_on_c, 0, 59, 95
2, 239284, Note_on_c, 0, 55, 95
2, 239286, Note_on_c, 0, 50, 95
2, 239288, Note_on_c, 0, 45, 95
2, 239290, Note_on_c, 0, 40, 95
2, 239322, Note_off_c, 0, 64, 95
2, 239322, Note_off_c, 0, 59, 95
2, 239322, Note_off_c, 0, 55, 95
2, 239322, Note_off_c, 0, 50, 95
2, 239322, Note_off_c, 0, 45, 95
2, 239322, Note_off_c, 0, 40, 95
2, 239520, Note_on_c, 0, 44, 95
2, 239522, Note_on_c, 0, 45, 95
2, 239524, Note_on_c, 0, 50, 95
2, 239526, Note_on_c, 0, 55, 95
2, 239528, Note_on_c, 0, 59, 95
2, 239530, Note_on_c, 0, 64, 95
2, 239562, Note_off_c, 0, 64, 95
2, 239562, Note_off_c, 0, 59, 95
2, 239562, Note_off_c, 0, 55, 95
2, 239562, Note_off_c, 0, 50, 95
2, 239562, Note_off_c, 0, 45, 95
2, 239562, Note_off_c, 0, 44, 95
2, 239760, Note_on_c, 0, 64, 95
2, 239762, Note_on_c, 0, 59, 95
2, 239764, Note_on_c, 0, 55, 95
2, 239766, Note_on_c, 0, 50, 95
2, 239768, Note_on_c, 0, 45, 95
2, 239770, Note_on_c, 0, 40, 95
2, 239802, Note_off_c, 0, 64, 95
2, 239802, Note_off_c, 0, 59, 95
2, 239802, Note_off_c, 0, 55, 95
2, 239802, Note_off_c, 0, 50, 95
2, 239802, Note_off_c, 0, 45, 95
2, 239802, Note_off_c, 0, 40, 95
2, 240000, Note_on_c, 0, 45, 95
2, 240004, Note_on_c, 0, 50, 95
2, 240008, Note_on_c, 0, 57, 95
2, 240012, Note_on_c, 0, 62, 95
2, 240016, Note_on_c, 0, 66, 95
2, 240020, Note_on_c, 0, 69, 95
2, 240480, Note_off_c, 0, 69, 95
2, 240480, Note_off_c, 0, 66, 95
2, 240480, Note_off_c, 0, 62, 95
2, 240480, Note_off_c, 0, 57, 95
2, 240480, Note_off_c, 0, 50, 95
2, 240480, Note_off_c, 0, 45, 95
2, 240480, Note_on_c, 0, 45, 95
2, 240484, Note_on_c, 0, 50, 95
2, 240488, Note_on_c, 0, 57, 95
2, 240492, Note_on_c, 0, 62, 95
2, 240496, Note_on_c, 0, 66, 95
2, 240500, Note_on_c, 0, 69, 95
2, 240960, Note_off_c, 0, 69, 95
2, 240960, Note_off_c, 0, 66, 95
2, 240960, Note_off_c, 0, 62, 95
2, 240960, Note_off_c, 0, 57, 95
2, 240960, Note_off_c, 0, 50, 95
2, 240960, Note_off_c, 0, 45, 95
2, 240960, Note_on_c, 0, 40, 95
2, 240962, Note_on_c, 0, 45, 95
2, 240964, Note_on_c, 0, 50, 95
2, 240966, Note_on_c, 0, 55, 95
2, 240968, Note_on_c, 0, 59, 95
2, 240970, Note_on_c, 0, 64, 95
2, 241002, Note_off_c, 0, 64, 95
2, 241002, Note_off_c, 0, 59, 95
2, 241002, Note_off_c, 0, 55, 95
2, 241002, Note_off_c, 0, 50, 95
2, 241002, Note_off_c, 0, 45, 95
2, 241002, Note_off_c, 0, 40, 95
2, 241200, Note_on_c, 0, 64, 95
2, 241202, Note_on_c, 0, 59, 95
2, 241204, Note_on_c, 0, 55, 95
2, 241206, Note_on_c, 0, 50, 95
2, 241208, Note_on_c, 0, 45, 95
2, 241210, Note_on_c, 0, 40, 95
2, 241242, Note_off_c, 0, 64, 95
2, 241242, Note_off_c, 0, 59, 95
2, 241242, Note_off_c, 0, 55, 95
2, 241242, Note_off_c, 0, 50, 95
2, 241242, Note_off_c, 0, 45, 95
2, 241242, Note_off_c, 0, 40, 95
2, 241440, Note_on_c, 0, 40, 95
2, 241442, Note_on_c, 0, 45, 95
2, 241444, Note_on_c, 0, 50, 95
2, 241446, Note_on_c, 0, 55, 95
2, 241448, Note_on_c, 0, 59, 95
2, 241450, Note_on_c, 0, 64, 95
2, 241482, Note_off_c, 0, 64, 95
2, 241482, Note_off_c, 0, 59, 95
2, 241482, Note_off_c, 0, 55, 95
2, 241482, Note_off_c, 0, 50, 95
2, 241482, Note_off_c, 0, 45, 95
2, 241482, Note_off_c, 0, 40, 95
2, 241680, Note_on_c, 0, 64, 95
2, 241682, Note_on_c, 0, 59, 95
2, 241684, Note_on_c, 0, 55, 95
2, 241686, Note_on_c, 0, 50, 95
2, 241688, Note_on_c, 0, 45, 95
2, 241690, Note_on_c, 0, 40, 95
2, 241722, Note_off_c, 0, 64, 95
2, 241722, Note_off_c, 0, 59, 95
2, 241722, Note_off_c, 0, 55, 95
2, 241722, Note_off_c, 0, 50, 95
2, 241722, Note_off_c, 0, 45, 95
2, 241722, Note_off_c, 0, 40, 95
2, 241920, Note_on_c, 0, 47, 95
2, 241924, Note_on_c, 0, 52, 95
2, 241928, Note_on_c, 0, 59, 95
2, 241932, Note_on_c, 0, 64, 95
2, 241936, Note_on_c, 0, 68, 95
2, 241940, Note_on_c, 0, 71, 95
2, 242400, Note_off_c, 0, 71, 95
2, 242400, Note_off_c, 0, 68, 95
2, 242400, Note_off_c, 0, 64, 95
2, 242400, Note_off_c, 0, 59, 95
2, 242400, Note_off_c, 0, 52, 95
2, 242400, Note_off_c, 0, 47, 95
2, 242400, Note_on_c, 0, 47, 95
2, 242404, Note_on_c, 0, 52, 95
2, 242408, Note_on_c, 0, 59, 95
2, 242412, Note_on_c, 0, 64, 95
2, 242416, Note_on_c, 0, 68, 95
2, 242420, Note_on_c, 0, 71, 95
2, 242880, Note_off_c, 0, 71, 95
2, 242880, Note_off_c, 0, 68, 95
2, 242880, Note_off_c, 0, 64, 95
2, 242880, Note_off_c, 0, 59, 95
2, 242880, Note_off_c, 0, 52, 95
2, 242880, Note_off_c, 0, 47, 95
2, 242880, Note_on_c, 0, 45, 95
2, 242882, Note_on_c, 0, 45, 95
2, 242884, Note_on_c, 0, 50, 95
2, 242886, Note_on_c, 0, 55, 95
2, 242888, Note_on_c, 0, 59, 95
2, 242890, Note_on_c, 0, 64, 95
2, 242922, Note_off_c, 0, 64, 95
2, 242922, Note_off_c, 0, 59, 95
2, 242922, Note_off_c, 0, 55, 95
2, 242922, Note_off_c, 0, 50, 95
2, 242922, Note_off_c, 0, 45, 95
2, 242922, Note_off_c, 0, 45, 95
2, 243120, Note_on_c, 0, 64, 95
2, 243122, Note_on_c, 0, 59, 95
2, 243124, Note_on_c, 0, 55, 95
2, 243126, Note_on_c, 0, 50, 95
2, 243128, Note_on_c, 0, 45, 95
2, 243130, Note_on_c, 0, 40, 95
2, 243162, Note_off_c, 0, 64, 95
2, 243162, Note_off_c, 0, 59, 95
2, 243162, Note_off_c, 0, 55, 95
2, 243162, Note_off_c, 0, 50, 95
2, 243162, Note_off_c, 0, 45, 95
2, 243162, Note_off_c, 0, 40, 95
2, 243360, Note_on_c, 0, 44, 95
2, 243362, Note_on_c, 0, 45, 95
2, 243364, Note_on_c, 0, 50, 95
2, 243366, Note_on_c, 0, 55, 95
2, 243368, Note_on_c, 0, 59, 95
2, 243370, Note_on_c, 0, 64, 95
2, 243402, Note_off_c, 0, 64, 95
2, 243402, Note_off_c, 0, 59, 95
2, 243402, Note_off_c, 0, 55, 95
2, 243402, Note_off_c, 0, 50, 95
2, 243402, Note_off_c, 0, 45, 95
2, 243402, Note_off_c, 0, 44, 95
2, 243600, Note_on_c, 0, 64, 95
2, 243602, Note_on_c, 0, 59, 95
2, 243604, Note_on_c, 0, 55, 95
2, 243606, Note_on_c, 0, 50, 95
2, 243608, Note_on_c, 0, 45, 95
2, 243610, Note_on_c, 0, 40, 95
2, 243642, Note_off_c, 0, 64, 95
2, 243642, Note_off_c, 0, 59, 95
2, 243642, Note_off_c, 0, 55, 95
2, 243642, Note_off_c, 0, 50, 95
2, 243642, Note_off_c, 0, 45, 95
2, 243642, Note_off_c, 0, 40, 95
2, 243840, Note_on_c, 0, 45, 95
2, 243842, Note_on_c, 0, 50, 95
2, 243844, Note_on_c, 0, 57, 95
2, 243846, Note_on_c, 0, 62, 95
2, 243848, Note_on_c, 0, 66, 95
2, 243850, Note_on_c, 0, 69, 95
2, 244080, Note_off_c, 0, 69, 95
2, 244080, Note_off_c, 0, 66, 95
2, 244080, Note_off_c, 0, 62, 95
2, 244080, Note_off_c, 0, 57, 95
2, 244080, Note_off_c, 0, 50, 95
2, 244080, Note_off_c, 0, 45, 95
2, 244320, Note_on_c, 0, 45, 95
2, 244322, Note_on_c, 0, 50, 95
2, 244324, Note_on_c, 0, 57, 95
2, 244326, Note_on_c, 0, 62, 95
2, 244328, Note_on_c, 0, 66, 95
2, 244330, Note_on_c, 0, 69, 95
2, 244362, Note_off_c, 0, 69, 95
2, 244362, Note_off_c, 0, 66, 95
2, 244362, Note_off_c, 0, 62, 95
2, 244362, Note_off_c, 0, 57, 95
2, 244362, Note_off_c, 0, 50, 95
2, 244362, Note_off_c, 0, 45, 95
2, 244560, Note_on_c, 0, 69, 95
2, 244562, Note_on_c, 0, 66, 95
2, 244564, Note_on_c, 0, 62, 95
2, 244566, Note_on_c, 0, 57, 95
2, 244568, Note_on_c, 0, 50, 95
2, 244570, Note_on_c, 0, 45, 95
2, 244800, Note_off_c, 0, 69, 95
2, 244800, Note_off_c, 0, 66, 95
2, 244800, Note_off_c, 0, 62, 95
2, 244800, Note_off_c, 0, 57, 95
2, 244800, Note_off_c, 0, 50, 95
2, 244800, Note_off_c, 0, 45, 95
2, 245040, Note_on_c, 0, 71, 95
2, 245042, Note_on_c, 0, 68, 95
2, 245044, Note_on_c, 0, 64, 95
2, 245046, Note_on_c, 0, 59, 95
2, 245048, Note_on_c, 0, 52, 95
2, 245050, Note_on_c, 0, 47, 95
2, 245280, Note_off_c, 0, 71, 95
2, 245280, Note_off_c, 0, 68, 95
2, 245280, Note_off_c, 0, 64, 95
2, 245280, Note_off_c, 0, 59, 95
2, 245280, Note_off_c, 0, 52, 95
2, 245280, Note_off_c, 0, 47, 95
2, 245280, Note_on_c, 0, 47, 95
2, 245282, Note_on_c, 0, 52, 95
2, 245284, Note_on_c, 0, 59, 95
2, 245286, Note_on_c, 0, 64, 95
2, 245288, Note_on_c, 0, 68, 95
2, 245290, Note_on_c, 0, 71, 95
2, 245520, Note_off_c, 0, 71, 95
2, 245520, Note_off_c, 0, 68, 95
2, 245520, Note_off_c, 0, 64, 95
2, 245520, Note_off_c, 0, 59, 95
2, 245520, Note_off_c, 0, 52, 95
2, 245520, Note_off_c, 0, 47, 95
2, 245760, Note_on_c, 0, 47, 95
2, 246720, Note_off_c, 0, 47, 95
2, 246720, Note_on_c, 0, 54, 95
2, 247200, Note_off_c, 0, 54, 95
2, 247200, Note_on_c, 0, 45, 95
2, 248640, Note_off_c, 0, 45, 95
2, 248640, Note_on_c, 0, 54, 95
2, 249120, Note_off_c, 0, 54, 95
2, 249120, Note_on_c, 0, 44, 95
2, 250560, Note_off_c, 0, 44, 95
2, 250560, Note_on_c, 0, 54, 95
2, 251040, Note_off_c, 0, 54, 95
2, 251040, Note_on_c, 0, 52, 95
2, 251040, Note_on_c, 0, 43, 95
2, 252000, Note_off_c, 0, 52, 95
2, 252000, Note_off_c, 0, 43, 95
2, 252000, Note_on_c, 0, 52, 95
2, 252000, Note_on_c, 0, 43, 95
2, 252480, Note_off_c, 0, 52, 95
2, 252480, Note_off_c, 0, 43, 95
2, 252480, Note_on_c, 0, 51, 95
2, 252480, Note_on_c, 0, 43, 95
2, 252720, Note_off_c, 0, 43, 95
2, 252960, Note_off_c, 0, 51, 95
2, 252960, Note_on_c, 0, 51, 95
2, 252960, Note_on_c, 1, 43, 95
2, 253080, Pitch_bend_c, 1, 8832
2, 253200, Pitch_bend_c, 1, 9600
2, 253320, Pitch_bend_c, 1, 10240
2, 253440, Note_off_c, 0, 51, 95
2, 253440, Pitch_bend_c, 1, 11008
2, 253440, Pitch_bend_c, 1, 8192
2, 253440, Note_off_c, 1, 43, 95
2, 253440, Note_on_c, 0, 47, 95
2, 254400, Note_off_c, 0, 47, 95
2, 254400, Note_on_c, 0, 54, 95
2, 254880, Note_off_c, 0, 54, 95
2, 254880, Note_on_c, 0, 45, 95
2, 256320, Note_off_c, 0, 45, 95
2, 256320, Note_on_c, 0, 54, 95
2, 256800, Note_off_c, 0, 54, 95
2, 256800, Note_on_c, 0, 44, 95
2, 258240, Note_off_c, 0, 44, 95
2, 258240, Note_on_c, 0, 54, 95
2, 258720, Note_off_c, 0, 54, 95
2, 258720, Note_on_c, 0, 52, 95
2, 258720, Note_on_c, 0, 43, 95
2, 259680, Note_off_c, 0, 52, 95
2, 259680, Note_off_c, 0, 43, 95
2, 259680, Note_on_c, 0, 52, 95
2, 259680, Note_on_c, 0, 43, 95
2, 260160, Note_off_c, 0, 52, 95
2, 260160, Note_off_c, 0, 43, 95
2, 260160, Note_on_c, 0, 51, 95
2, 260160, Note_on_c, 0, 43, 95
2, 260400, Note_off_c, 0, 43, 95
2, 260640, Note_off_c, 0, 51, 95
2, 260640, Note_on_c, 0, 51, 95
2, 260640, Note_on_c, 1, 43, 95
2, 260760, Pitch_bend_c, 1, 8832
2, 260880, Pitch_bend_c, 1, 9600
2, 261000, Pitch_bend_c, 1, 10240
2, 261120, Note_off_c, 0, 51, 95
2, 261120, Pitch_bend_c, 1, 11008
2, 261120, Pitch_bend_c, 1, 8192
2, 261120, Note_off_c, 1, 43, 95
2, 261120, Note_on_c, 0, 47, 95
2, 262080, Note_off_c, 0, 47, 95
2, 262080, Note_on_c, 0, 54, 95
2, 262560, Note_off_c, 0, 54, 95
2, 262560, Note_on_c, 0, 45, 95
2, 264000, Note_off_c, 0, 45, 95
2, 264000, Note_on_c, 0, 54, 95
2, 264480, Note_off_c, 0, 54, 95
2, 264480, Note_on_c, 0, 44, 95
2, 265920, Note_off_c, 0, 44, 95
2, 265920, Note_on_c, 0, 54, 95
2, 266400, Note_off_c, 0, 54, 95
2, 266400, Note_on_c, 0, 52, 95
2, 266400, Note_on_c, 0, 43, 95
2, 267360, Note_off_c, 0, 52, 95
2, 267360, Note_off_c, 0, 43, 95
2, 267360, Note_on_c, 0, 52, 95
2, 267360, Note_on_c, 0, 43, 95
2, 267840, Note_off_c, 0, 52, 95
2, 267840, Note_off_c, 0, 43, 95
2, 267840, Note_on_c, 0, 51, 95
2, 267840, Note_on_c, 0, 43, 95
2, 268080, Note_off_c, 0, 43, 95
2, 268320, Note_off_c, 0, 51, 95
2, 268320, Note_on_c, 0, 51, 95
2, 268320, Note_on_c, 1, 43, 95
2, 268440, Pitch_bend_c, 1, 8832
2, 268560, Pitch_bend_c, 1, 9600
2, 268680, Pitch_bend_c, 1, 10240
2, 268800, Note_off_c, 0, 51, 95
2, 268800, Pitch_bend_c, 1, 11008
2, 268800, Pitch_bend_c, 1, 8192
2, 268800, Note_off_c, 1, 43, 95
2, 268800, Note_on_c, 0, 47, 95
2, 269760, Note_off_c, 0, 47, 95
2, 269760, Note_on_c, 0, 54, 95
2, 270240, Note_off_c, 0, 54, 95
2, 270240, Note_on_c, 0, 45, 95
2, 271680, Note_off_c, 0, 45, 95
2, 271680, Note_on_c, 0, 54, 95
2, 272160, Note_off_c, 0, 54, 95
2, 272160, Note_on_c, 0, 44, 95
2, 273600, Note_off_c, 0, 44, 95
2, 273600, Note_on_c, 0, 54, 95
2, 274080, Note_off_c, 0, 54, 95
2, 274080, Note_on_c, 0, 52, 95
2, 274080, Note_on_c, 0, 43, 95
2, 275040, Note_off_c, 0, 52, 95
2, 275040, Note_off_c, 0, 43, 95
2, 275040, Note_on_c, 0, 52, 95
2, 275040, Note_on_c, 0, 43, 95
2, 275520, Note_off_c, 0, 52, 95
2, 275520, Note_off_c, 0, 43, 95
2, 275520, Note_on_c, 0, 51, 95
2, 275520, Note_on_c, 0, 43, 95
2, 275760, Note_off_c, 0, 43, 95
2, 276000, Note_off_c, 0, 51, 95
2, 276000, Note_on_c, 0, 51, 95
2, 276000, Note_on_c, 1, 43, 95
2, 276120, Pitch_bend_c, 1, 8832
2, 276240, Pitch_bend_c, 1, 9600
2, 276360, Pitch_bend_c, 1, 10240
2, 276480, Note_off_c, 0, 51, 95
2, 276480, Pitch_bend_c, 1, 11008
2, 276480, Pitch_bend_c, 1, 8192
2, 276480, Note_off_c, 1, 43, 95
2, 276480, Note_on_c, 0, 47, 95
2, 277440, Note_off_c, 0, 47, 95
2, 277440, Note_on_c, 0, 54, 95
2, 277920, Note_off_c, 0, 54, 95
2, 277920, Note_on_c, 0, 45, 95
2, 279360, Note_off_c, 0, 45, 95
2, 279360, Note_on_c, 0, 54, 95
2, 279840, Note_off_c, 0, 54, 95
2, 279840, Note_on_c, 0, 44, 95
2, 281280, Note_off_c, 0, 44, 95
2, 281280, Note_on_c, 0, 54, 95
2, 281760, Note_off_c, 0, 54, 95
2, 281760, Note_on_c, 0, 52, 95
2, 281760, Note_on_c, 0, 43, 95
2, 282720, Note_off_c, 0, 52, 95
2, 282720, Note_off_c, 0, 43, 95
2, 282720, Note_on_c, 0, 52, 95
2, 282720, Note_on_c, 0, 43, 95
2, 283200, Note_off_c, 0, 52, 95
2, 283200, Note_off_c, 0, 43, 95
2, 283200, Note_on_c, 0, 51, 95
2, 283200, Note_on_c, 0, 43, 95
2, 283440, Note_off_c, 0, 43, 95
2, 283680, Note_off_c, 0, 51, 95
2, 283680, Note_on_c, 0, 51, 95
2, 283680, Note_on_c, 1, 43, 95
2, 283800, Pitch_bend_c, 1, 8832
2, 283920, Pitch_bend_c, 1, 9600
2, 284040, Pitch_bend_c, 1, 10240
2, 284160, Note_off_c, 0, 51, 95
2, 284160, Pitch_bend_c, 1, 11008
2, 284160, Pitch_bend_c, 1, 8192
2, 284160, Note_off_c, 1, 43, 95
2, 284160, Note_on_c, 0, 47, 95
2, 285120, Note_off_c, 0, 47, 95
2, 285120, Note_on_c, 0, 54, 95
2, 285600, Note_off_c, 0, 54, 95
2, 285600, Note_on_c, 0, 45, 95
2, 287040, Note_off_c, 0, 45, 95
2, 287040, Note_on_c, 0, 54, 95
2, 287520, Note_off_c, 0, 54, 95
2, 287520, Note_on_c, 0, 44, 95
2, 288960, Note_off_c, 0, 44, 95
2, 288960, Note_on_c, 0, 54, 95
2, 289440, Note_off_c, 0, 54, 95
2, 289440, Note_on_c, 0, 52, 95
2, 289440, Note_on_c, 0, 43, 95
2, 290400, Note_off_c, 0, 52, 95
2, 290400, Note_off_c, 0, 43, 95
2, 290400, Note_on_c, 0, 52, 95
2, 290400, Note_on_c, 0, 43, 95
2, 290880, Note_off_c, 0, 52, 95
2, 290880, Note_off_c, 0, 43, 95
2, 290880, Note_on_c, 0, 51, 95
2, 290880, Note_on_c, 0, 43, 95
2, 291120, Note_off_c, 0, 43, 95
2, 291360, Note_off_c, 0, 51, 95
2, 291360, Note_on_c, 0, 51, 95
2, 291360, Note_on_c, 1, 43, 95
2, 291480, Pitch_bend_c, 1, 8832
2, 291600, Pitch_bend_c, 1, 9600
2, 291720, Pitch_bend_c, 1, 10240
2, 291840, Note_off_c, 0, 51, 95
2, 291840, Pitch_bend_c, 1, 11008
2, 291840, Pitch_bend_c, 1, 8192
2, 291840, Note_off_c, 1, 43, 95
2, 291840, Note_on_c, 0, 47, 95
2, 292800, Note_off_c, 0, 47, 95
2, 292800, Note_on_c, 0, 54, 95
2, 293280, Note_off_c, 0, 54, 95
2, 293280, Note_on_c, 0, 45, 95
2, 294720, Note_off_c, 0, 45, 95
2, 294720, Note_on_c, 0, 54, 95
2, 295200, Note_off_c, 0, 54, 95
2, 295200, Note_on_c, 0, 44, 95
2, 295680, Note_off_c, 0, 44, 95
2, 301440, Note_on_c, 0, 47, 95
2, 302400, Note_off_c, 0, 47, 95
2, 302400, Note_on_c, 0, 54, 95
2, 302880, Note_off_c, 0, 54, 95
2, 302880, Note_on_c, 0, 45, 95
2, 304320, Note_off_c, 0, 45, 95
2, 304320, Note_on_c, 0, 54, 95
2, 304800, Note_off_c, 0, 54, 95
2, 304800, Note_on_c, 0, 44, 95
2, 306240, Note_off_c, 0, 44, 95
2, 306240, Note_on_c, 0, 54, 95
2, 306720, Note_off_c, 0, 54, 95
2, 306720, Note_on_c, 0, 52, 95
2, 306720, Note_on_c, 0, 43, 95
2, 307680, Note_off_c, 0, 52, 95
2, 307680, Note_off_c, 0, 43, 95
2, 307680, Note_on_c, 0, 52, 95
2, 307680, Note_on_c, 0, 43, 95
2, 308160, Note_off_c, 0, 52, 95
2, 308160, Note_off_c, 0, 43, 95
2, 308160, Note_on_c, 0, 51, 95
2, 308160, Note_on_c, 0, 43, 95
2, 308640, Note_off_c, 0, 51, 95
2, 308640, Note_off_c, 0, 43, 95
2, 308640, Note_on_c, 0, 51, 95
2, 308640, Note_on_c, 1, 43, 95
2, 308760, Pitch_bend_c, 1, 8832
2, 308880, Pitch_bend_c, 1, 9600
2, 309000, Pitch_bend_c, 1, 10240
2, 309120, Note_off_c, 0, 51, 95
2, 309120, Pitch_bend_c, 1, 11008
2, 309120, Pitch_bend_c, 1, 8192
2, 309120, Note_off_c, 1, 43, 95
2, 309120, Note_on_c, 0, 47, 95
2, 311040, Note_off_c, 0, 47, 95
2, 311040, End_track
3, 0, Start_track
3, 0, Pitch_bend_c, 6, 8192
3, 0, Control_c, 6, 7, 79
3, 0, Control_c, 6, 10, 63
3, 0, Control_c, 6, 93, 0
3, 0, Control_c, 6, 91, 0
3, 0, Control_c, 6, 95, 0
3, 0, Control_c, 6, 92, 0
3, 0, Control_c, 6, 11, 127
3, 0, Program_c, 6, 85
3, 0, Control_c, 7, 7, 79
3, 0, Control_c, 7, 10, 63
3, 0, Control_c, 7, 93, 0
3, 0, Control_c, 7, 91, 0
3, 0, Control_c, 7, 95, 0
3, 0, Control_c, 7, 92, 0
3, 0, Control_c, 7, 11, 127
3, 0, Program_c, 7, 85
3, 14880, Note_on_c, 6, 71, 95
3, 15360, Note_off_c, 6, 71, 95
3, 15360, Note_on_c, 6, 75, 95
3, 15840, Note_off_c, 6, 75, 95
3, 15840, Note_on_c, 6, 78, 95
3, 16320, Note_off_c, 6, 78, 95
3, 16320, Note_on_c, 6, 78, 95
3, 16800, Note_off_c, 6, 78, 95
3, 16800, Note_on_c, 6, 75, 95
3, 17280, Note_off_c, 6, 75, 95
3, 17280, Note_on_c, 6, 78, 95
3, 18240, Note_off_c, 6, 78, 95
3, 18240, Note_on_c, 6, 80, 95
3, 18720, Note_off_c, 6, 80, 95
3, 18720, Note_on_c, 6, 71, 95
3, 19200, Note_off_c, 6, 71, 95
3, 23040, Note_on_c, 6, 75, 95
3, 24000, Note_off_c, 6, 75, 95
3, 24000, Note_on_c, 6, 78, 95
3, 24480, Note_off_c, 6, 78, 95
3, 24480, Note_on_c, 6, 78, 95
3, 25440, Note_off_c, 6, 78, 95
3, 25440, Note_on_c, 6, 80, 95
3, 25920, Note_off_c, 6, 80, 95
3, 25920, Note_on_c, 6, 80, 95
3, 26400, Note_off_c, 6, 80, 95
3, 26400, Note_on_c, 6, 78, 95
3, 26880, Note_off_c, 6, 78, 95
3, 26880, Pitch_bend_c, 7, 9600
3, 26880, Note_on_c, 7, 71, 95
3, 26938, Pitch_bend_c, 7, 9472
3, 26996, Pitch_bend_c, 7, 9344
3, 27054, Pitch_bend_c, 7, 9216
3, 27112, Pitch_bend_c, 7, 9088
3, 27170, Pitch_bend_c, 7, 8960
3, 27228, Pitch_bend_c, 7, 8832
3, 27286, Pitch_bend_c, 7, 8704
3, 27344, Pitch_bend_c, 7, 8576
3, 27402, Pitch_bend_c, 7, 8448
3, 27460, Pitch_bend_c, 7, 8320
3, 27518, Pitch_bend_c, 7, 8192
3, 27520, Pitch_bend_c, 7, 8192
3, 27840, Pitch_bend_c, 7, 8192
3, 27840, Pitch_bend_c, 7, 8192
3, 27840, Note_off_c, 7, 71, 95
3, 30240, Note_on_c, 6, 71, 95
3, 30720, Note_off_c, 6, 71, 95
3, 30720, Note_on_c, 6, 75, 95
3, 31200, Note_off_c, 6, 75, 95
3, 31200, Note_on_c, 6, 78, 95
3, 31680, Note_off_c, 6, 78, 95
3, 31680, Note_on_c, 6, 78, 95
3, 32160, Note_off_c, 6, 78, 95
3, 32160, Note_on_c, 6, 75, 95
3, 32640, Note_off_c, 6, 75, 95
3, 32640, Note_on_c, 6, 78, 95
3, 33600, Note_off_c, 6, 78, 95
3, 33600, Note_on_c, 6, 80, 95
3, 34080, Note_off_c, 6, 80, 95
3, 34080, Note_on_c, 6, 71, 95
3, 34560, Note_off_c, 6, 71, 95
3, 37920, Note_on_c, 6, 71, 95
3, 38400, Note_off_c, 6, 71, 95
3, 38400, Note_on_c, 6, 74, 95
3, 38880, Note_off_c, 6, 74, 95
3, 38880, Note_on_c, 6, 73, 95
3, 39360, Note_off_c, 6, 73, 95
3, 39360, Note_on_c, 6, 71, 95
3, 42240, Note_off_c, 6, 71, 95
3, 43200, Note_on_c, 6, 71, 95
3, 43680, Note_off_c, 6, 71, 95
3, 43680, Note_on_c, 6, 71, 95
3, 45120, Note_off_c, 6, 71, 95
3, 45120, Note_on_c, 6, 69, 95
3, 45600, Note_off_c, 6, 69, 95
3, 45600, Note_on_c, 6, 71, 95
3, 49440, Note_off_c, 6, 71, 95
3, 53280, Note_on_c, 6, 71, 95
3, 53760, Note_off_c, 6, 71, 95
3, 53760, Note_on_c, 6, 75, 95
3, 54240, Note_off_c, 6, 75, 95
3, 54240, Note_on_c, 6, 78, 95
3, 54720, Note_off_c, 6, 78, 95
3, 54720, Note_on_c, 6, 78, 95
3, 55200, Note_off_c, 6, 78, 95
3, 55200, Note_on_c, 6, 75, 95
3, 55680, Note_off_c, 6, 75, 95
3, 55680, Note_on_c, 6, 78, 95
3, 56640, Note_off_c, 6, 78, 95
3, 56640, Note_on_c, 6, 80, 95
3, 57120, Note_off_c, 6, 80, 95
3, 57120, Note_on_c, 6, 71, 95
3, 57600, Note_off_c, 6, 71, 95
3, 61440, Note_on_c, 6, 83, 95
3, 61920, Note_off_c, 6, 83, 95
3, 61920, Note_on_c, 6, 80, 95
3, 62400, Note_off_c, 6, 80, 95
3, 62400, Note_on_c, 6, 80, 95
3, 63360, Note_off_c, 6, 80, 95
3, 63360, Note_on_c, 7, 80, 95
3, 63480, Pitch_bend_c, 7, 7936
3, 63600, Pitch_bend_c, 7, 7552
3, 63720, Pitch_bend_c, 7, 7168
3, 63840, Pitch_bend_c, 7, 6784
3, 63840, Pitch_bend_c, 7, 8192
3, 63840, Note_off_c, 7, 80, 95
3, 63840, Note_on_c, 6, 78, 95
3, 64320, Note_off_c, 6, 78, 95
3, 64320, Note_on_c, 6, 78, 95
3, 64800, Note_off_c, 6, 78, 95
3, 64800, Note_on_c, 6, 80, 95
3, 65280, Note_off_c, 6, 80, 95
3, 65280, Pitch_bend_c, 7, 11008
3, 65280, Note_on_c, 7, 71, 95
3, 65301, Pitch_bend_c, 7, 10880
3, 65322, Pitch_bend_c, 7, 10752
3, 65343, Pitch_bend_c, 7, 10624
3, 65364, Pitch_bend_c, 7, 10496
3, 65385, Pitch_bend_c, 7, 10368
3, 65406, Pitch_bend_c, 7, 10240
3, 65427, Pitch_bend_c, 7, 10112
3, 65448, Pitch_bend_c, 7, 9984
3, 65469, Pitch_bend_c, 7, 9856
3, 65490, Pitch_bend_c, 7, 9728
3, 65511, Pitch_bend_c, 7, 9600
3, 65532, Pitch_bend_c, 7, 9472
3, 65553, Pitch_bend_c, 7, 9344
3, 65574, Pitch_bend_c, 7, 9216
3, 65595, Pitch_bend_c, 7, 9088
3, 65616, Pitch_bend_c, 7, 8960
3, 65637, Pitch_bend_c, 7, 8832
3, 65658, Pitch_bend_c, 7, 8704
3, 65679, Pitch_bend_c, 7, 8576
3, 65700, Pitch_bend_c, 7, 8448
3, 65721, Pitch_bend_c, 7, 8320
3, 65742, Pitch_bend_c, 7, 8192
3, 65760, Pitch_bend_c, 7, 8192
3, 66240, Pitch_bend_c, 7, 8192
3, 66240, Pitch_bend_c, 7, 8192
3, 66240, Note_off_c, 7, 71, 95
3, 68640, Note_on_c, 6, 71, 95
3, 69120, Note_off_c, 6, 71, 95
3, 69120, Note_on_c, 6, 75, 95
3, 69600, Note_off_c, 6, 75, 95
3, 69600, Note_on_c, 6, 78, 95
3, 70080, Note_off_c, 6, 78, 95
3, 70080, Note_on_c, 6, 78, 95
3, 70560, Note_off_c, 6, 78, 95
3, 70560, Note_on_c, 6, 75, 95
3, 71040, Note_off_c, 6, 75, 95
3, 71040, Note_on_c, 6, 78, 95
3, 72000, Note_off_c, 6, 78, 95
3, 72000, Note_on_c, 6, 80, 95
3, 72480, Note_off_c, 6, 80, 95
3, 72480, Note_on_c, 6, 71, 95
3, 74400, Note_off_c, 6, 71, 95
3, 76320, Note_on_c, 6, 71, 95
3, 76800, Note_off_c, 6, 71, 95
3, 76800, Note_on_c, 6, 74, 95
3, 77280, Note_off_c, 6, 74, 95
3, 77280, Note_on_c, 6, 73, 95
3, 77760, Note_off_c, 6, 73, 95
3, 77760, Note_on_c, 6, 71, 95
3, 80640, Note_off_c, 6, 71, 95
3, 81600, Note_on_c, 6, 71, 95
3, 82080, Note_off_c, 6, 71, 95
3, 82080, Note_on_c, 6, 71, 95
3, 83520, Note_off_c, 6, 71, 95
3, 83520, Note_on_c, 6, 69, 95
3, 84000, Note_off_c, 6, 69, 95
3, 84000, Note_on_c, 6, 71, 95
3, 89280, Note_off_c, 6, 71, 95
3, 91680, Note_on_c, 6, 83, 95
3, 92160, Note_off_c, 6, 83, 95
3, 92160, Note_on_c, 6, 86, 95
3, 92640, Note_off_c, 6, 86, 95
3, 92640, Note_on_c, 6, 85, 95
3, 93120, Note_off_c, 6, 85, 95
3, 93120, Note_on_c, 6, 83, 95
3, 93600, Note_off_c, 6, 83, 95
3, 93600, Note_on_c, 6, 81, 95
3, 94080, Note_off_c, 6, 81, 95
3, 94080, Note_on_c, 6, 83, 95
3, 95040, Note_off_c, 6, 83, 95
3, 95040, Note_on_c, 6, 83, 95
3, 95520, Note_off_c, 6, 83, 95
3, 95520, Note_on_c, 6, 80, 95
3, 96480, Note_off_c, 6, 80, 95
3, 99360, Note_on_c, 6, 83, 95
3, 99840, Note_off_c, 6, 83, 95
3, 99840, Note_on_c, 6, 86, 95
3, 100320, Note_off_c, 6, 86, 95
3, 100320, Note_on_c, 6, 85, 95
3, 100800, Note_off_c, 6, 85, 95
3, 100800, Note_on_c, 6, 83, 95
3, 101280, Note_off_c, 6, 83, 95
3, 101280, Note_on_c, 6, 81, 95
3, 101760, Note_off_c, 6, 81, 95
3, 101760, Note_on_c, 6, 83, 95
3, 102720, Note_off_c, 6, 83, 95
3, 102720, Note_on_c, 6, 83, 95
3, 103200, Note_off_c, 6, 83, 95
3, 103200, Note_on_c, 6, 80, 95
3, 104160, Note_off_c, 6, 80, 95
3, 107040, Note_on_c, 6, 71, 95
3, 107520, Note_off_c, 6, 71, 95
3, 107520, Note_on_c, 6, 74, 95
3, 108000, Note_off_c, 6, 74, 95
3, 108000, Note_on_c, 6, 76, 95
3, 108480, Note_off_c, 6, 76, 95
3, 108480, Note_on_c, 6, 76, 95
3, 108960, Note_off_c, 6, 76, 95
3, 108960, Note_on_c, 6, 74, 95
3, 109440, Note_off_c, 6, 74, 95
3, 109440, Note_on_c, 6, 76, 95
3, 110400, Note_off_c, 6, 76, 95
3, 110400, Note_on_c, 6, 74, 95
3, 110880, Note_off_c, 6, 74, 95
3, 110880, Pitch_bend_c, 7, 8192
3, 110880, Note_on_c, 7, 76, 95
3, 110912, Pitch_bend_c, 7, 8320
3, 110944, Pitch_bend_c, 7, 8448
3, 110976, Pitch_bend_c, 7, 8576
3, 111008, Pitch_bend_c, 7, 8704
3, 111040, Pitch_bend_c, 7, 8832
3, 111072, Pitch_bend_c, 7, 8960
3, 111104, Pitch_bend_c, 7, 9088
3, 111136, Pitch_bend_c, 7, 9216
3, 111168, Pitch_bend_c, 7, 9344
3, 111200, Pitch_bend_c, 7, 9472
3, 111232, Pitch_bend_c, 7, 9600
3, 111240, Pitch_bend_c, 7, 9600
3, 111600, Pitch_bend_c, 7, 9600
3, 111632, Pitch_bend_c, 7, 9472
3, 111664, Pitch_bend_c, 7, 9344
3, 111696, Pitch_bend_c, 7, 9216
3, 111728, Pitch_bend_c, 7, 9088
3, 111760, Pitch_bend_c, 7, 8960
3, 111792, Pitch_bend_c, 7, 8832
3, 111824, Pitch_bend_c, 7, 8704
3, 111856, Pitch_bend_c, 7, 8576
3, 111888, Pitch_bend_c, 7, 8448
3, 111920, Pitch_bend_c, 7, 8320
3, 111952, Pitch_bend_c, 7, 8192
3, 111960, Pitch_bend_c, 7, 8192
3, 112320, Pitch_bend_c, 7, 8192
3, 112320, Pitch_bend_c, 7, 8192
3, 112320, Note_off_c, 7, 76, 95
3, 112320, Note_on_c, 6, 74, 95
3, 112800, Note_off_c, 6, 74, 95
3, 112800, Note_on_c, 6, 76, 95
3, 113760, Note_off_c, 6, 76, 95
3, 114720, Note_on_c, 6, 71, 95
3, 115200, Note_off_c, 6, 71, 95
3, 115200, Note_on_c, 6, 83, 95
3, 116160, Note_off_c, 6, 83, 95
3, 116160, Note_on_c, 6, 78, 95
3, 116640, Note_off_c, 6, 78, 95
3, 116640, Note_on_c, 6, 76, 95
3, 117600, Note_off_c, 6, 76, 95
3, 117600, Note_on_c, 6, 74, 95
3, 118080, Note_off_c, 6, 74, 95
3, 118080, Note_on_c, 6, 76, 95
3, 118560, Note_off_c, 6, 76, 95
3, 118560, Note_on_c, 6, 74, 95
3, 119040, Note_off_c, 6, 74, 95
3, 119040, Pitch_bend_c, 7, 8192
3, 119040, Note_on_c, 7, 76, 95
3, 119061, Pitch_bend_c, 7, 8320
3, 119082, Pitch_bend_c, 7, 8448
3, 119103, Pitch_bend_c, 7, 8576
3, 119124, Pitch_bend_c, 7, 8704
3, 119145, Pitch_bend_c, 7, 8832
3, 119166, Pitch_bend_c, 7, 8960
3, 119187, Pitch_bend_c, 7, 9088
3, 119208, Pitch_bend_c, 7, 9216
3, 119229, Pitch_bend_c, 7, 9344
3, 119250, Pitch_bend_c, 7, 9472
3, 119271, Pitch_bend_c, 7, 9600
3, 119280, Pitch_bend_c, 7, 9600
3, 119345, Pitch_bend_c, 7, 9472
3, 119410, Pitch_bend_c, 7, 9344
3, 119475, Pitch_bend_c, 7, 9216
3, 119540, Pitch_bend_c, 7, 9088
3, 119605, Pitch_bend_c, 7, 8960
3, 119670, Pitch_bend_c, 7, 8832
3, 119735, Pitch_bend_c, 7, 8704
3, 119800, Pitch_bend_c, 7, 8576
3, 119865, Pitch_bend_c, 7, 8448
3, 119930, Pitch_bend_c, 7, 8320
3, 119995, Pitch_bend_c, 7, 8192
3, 120000, Pitch_bend_c, 7, 8192
3, 120000, Pitch_bend_c, 7, 8192
3, 120000, Note_off_c, 7, 76, 95
3, 120000, Note_on_c, 6, 74, 95
3, 120480, Note_off_c, 6, 74, 95
3, 120480, Note_on_c, 6, 76, 95
3, 121920, Note_off_c, 6, 76, 95
3, 122400, Note_on_c, 6, 71, 95
3, 122880, Note_off_c, 6, 71, 95
3, 122880, Note_on_c, 6, 75, 95
3, 124320, Note_off_c, 6, 75, 95
3, 124320, Note_on_c, 6, 73, 95
3, 125760, Note_off_c, 6, 73, 95
3, 125760, Note_on_c, 6, 73, 95
3, 126720, Note_off_c, 6, 73, 95
3, 126720, Note_on_c, 6, 71, 95
3, 129600, Note_off_c, 6, 71, 95
3, 129600, Note_on_c, 6, 73, 95
3, 130560, Note_off_c, 6, 73, 95
3, 130560, Note_on_c, 6, 75, 95
3, 132000, Note_off_c, 6, 75, 95
3, 132000, Note_on_c, 6, 73, 95
3, 133440, Note_off_c, 6, 73, 95
3, 133440, Note_on_c, 6, 73, 95
3, 134400, Note_off_c, 6, 73, 95
3, 134400, Note_on_c, 6, 71, 95
3, 137280, Note_off_c, 6, 71, 95
3, 137280, Note_on_c, 6, 73, 95
3, 138240, Note_off_c, 6, 73, 95
3, 138240, Note_on_c, 6, 75, 95
3, 139680, Note_off_c, 6, 75, 95
3, 139680, Note_on_c, 6, 73, 95
3, 141120, Note_off_c, 6, 73, 95
3, 141120, Note_on_c, 6, 73, 95
3, 142080, Note_off_c, 6, 73, 95
3, 142080, Note_on_c, 6, 71, 95
3, 144000, Note_off_c, 6, 71, 95
3, 144480, Note_on_c, 6, 71, 95
3, 144960, Note_off_c, 6, 71, 95
3, 144960, Note_on_c, 6, 74, 95
3, 145440, Note_off_c, 6, 74, 95
3, 145440, Note_on_c, 6, 76, 95
3, 145920, Note_off_c, 6, 76, 95
3, 145920, Note_on_c, 6, 71, 95
3, 147840, Note_off_c, 6, 71, 95
3, 147840, Note_on_c, 6, 74, 95
3, 149760, Note_off_c, 6, 74, 95
3, 149760, Note_on_c, 6, 76, 95
3, 151680, Note_off_c, 6, 76, 95
3, 151680, Note_on_c, 6, 78, 95
3, 153600, Note_off_c, 6, 78, 95
3, 260640, Note_on_c, 6, 71, 95
3, 261120, Note_off_c, 6, 71, 95
3, 261120, Note_on_c, 6, 74, 95
3, 261600, Note_off_c, 6, 74, 95
3, 261600, Note_on_c, 6, 71, 95
3, 262080, Note_off_c, 6, 71, 95
3, 262080, Note_on_c, 6, 71, 95
3, 262560, Note_off_c, 6, 71, 95
3, 262560, Note_on_c, 6, 69, 95
3, 263040, Note_off_c, 6, 69, 95
3, 263040, Note_on_c, 6, 66, 95
3, 263520, Note_off_c, 6, 66, 95
3, 263520, Note_on_c, 6, 64, 95
3, 264000, Note_off_c, 6, 64, 95
3, 264000, Note_on_c, 6, 62, 95
3, 264480, Note_off_c, 6, 62, 95
3, 264480, Note_on_c, 6, 64, 95
3, 266400, Note_off_c, 6, 64, 95
3, 268800, Note_on_c, 6, 74, 95
3, 269760, Note_off_c, 6, 74, 95
3, 269760, Note_on_c, 6, 71, 95
3, 270240, Note_off_c, 6, 71, 95
3, 270240, Note_on_c, 6, 71, 95
3, 270720, Note_off_c, 6, 71, 95
3, 271440, Note_on_c, 6, 71, 95
3, 271620, Note_off_c, 6, 71, 95
3, 271620, Note_on_c, 6, 78, 95
3, 271860, Note_off_c, 6, 78, 95
3, 271860, Note_on_c, 6, 76, 95
3, 272100, Note_off_c, 6, 76, 95
3, 272100, Pitch_bend_c, 7, 8192
3, 272100, Note_on_c, 7, 74, 95
3, 272143, Pitch_bend_c, 7, 8320
3, 272186, Pitch_bend_c, 7, 8448
3, 272229, Pitch_bend_c, 7, 8576
3, 272272, Pitch_bend_c, 7, 8704
3, 272315, Pitch_bend_c, 7, 8832
3, 272358, Pitch_bend_c, 7, 8960
3, 272401, Pitch_bend_c, 7, 9088
3, 272444, Pitch_bend_c, 7, 9216
3, 272487, Pitch_bend_c, 7, 9344
3, 272530, Pitch_bend_c, 7, 9472
3, 272573, Pitch_bend_c, 7, 9600
3, 272580, Pitch_bend_c, 7, 9600
3, 272623, Pitch_bend_c, 7, 9472
3, 272666, Pitch_bend_c, 7, 9344
3, 272709, Pitch_bend_c, 7, 9216
3, 272752, Pitch_bend_c, 7, 9088
3, 272795, Pitch_bend_c, 7, 8960
3, 272838, Pitch_bend_c, 7, 8832
3, 272881, Pitch_bend_c, 7, 8704
3, 272924, Pitch_bend_c, 7, 8576
3, 272967, Pitch_bend_c, 7, 8448
3, 273010, Pitch_bend_c, 7, 8320
3, 273053, Pitch_bend_c, 7, 8192
3, 273060, Pitch_bend_c, 7, 8192
3, 273060, Pitch_bend_c, 7, 8192
3, 273060, Note_off_c, 7, 74, 95
3, 276000, Note_on_c, 6, 71, 95
3, 276480, Note_off_c, 6, 71, 95
3, 276480, Note_on_c, 6, 74, 95
3, 276960, Note_off_c, 6, 74, 95
3, 276960, Note_on_c, 6, 71, 95
3, 277440, Note_off_c, 6, 71, 95
3, 277440, Note_on_c, 6, 71, 95
3, 277920, Note_off_c, 6, 71, 95
3, 277920, Note_on_c, 6, 69, 95
3, 278400, Note_off_c, 6, 69, 95
3, 278400, Note_on_c, 6, 71, 95
3, 278880, Note_off_c, 6, 71, 95
3, 278880, Note_on_c, 6, 69, 95
3, 279360, Note_off_c, 6, 69, 95
3, 279360, Note_on_c, 6, 66, 95
3, 279840, Note_off_c, 6, 66, 95
3, 279840, Note_on_c, 6, 64, 95
3, 280800, Note_off_c, 6, 64, 95
3, 283680, Note_on_c, 6, 59, 95
3, 284160, Note_off_c, 6, 59, 95
3, 284160, Note_on_c, 6, 62, 95
3, 284640, Note_off_c, 6, 62, 95
3, 284640, Note_on_c, 6, 59, 95
3, 285120, Note_off_c, 6, 59, 95
3, 285120, Note_on_c, 6, 59, 95
3, 288000, Note_off_c, 6, 59, 95
3, 288960, Note_on_c, 6, 59, 95
3, 289440, Note_off_c, 6, 59, 95
3, 289440, Note_on_c, 6, 59, 95
3, 290880, Note_off_c, 6, 59, 95
3, 290880, Note_on_c, 6, 57, 95
3, 291360, Note_off_c, 6, 57, 95
3, 291360, Note_on_c, 6, 59, 95
3, 292320, Note_off_c, 6, 59, 95
3, 296160, Note_on_c, 6, 59, 95
3, 296400, Note_off_c, 6, 59, 95
3, 296400, Note_on_c, 6, 62, 95
3, 296640, Note_off_c, 6, 62, 95
3, 296640, Note_on_c, 6, 64, 95
3, 296880, Note_off_c, 6, 64, 95
3, 296880, Note_on_c, 6, 64, 95
3, 297120, Note_off_c, 6, 64, 95
3, 297120, Note_on_c, 6, 64, 95
3, 297360, Note_off_c, 6, 64, 95
3, 297360, Note_on_c, 6, 64, 95
3, 297600, Note_off_c, 6, 64, 95
3, 297600, Note_on_c, 6, 62, 95
3, 297840, Note_off_c, 6, 62, 95
3, 297840, Note_on_c, 7, 64, 95
3, 297960, Pitch_bend_c, 7, 9600
3, 297960, Pitch_bend_c, 7, 8192
3, 297960, Note_off_c, 7, 64, 95
3, 297960, Note_on_c, 6, 66, 95
3, 298200, Note_off_c, 6, 66, 95
3, 298200, Note_on_c, 6, 69, 95
3, 299160, Note_off_c, 6, 69, 95
3, 301440, Note_on_c, 6, 59, 95
3, 302400, Note_off_c, 6, 59, 95
3, 302880, Note_on_c, 6, 59, 95
3, 303840, Note_off_c, 6, 59, 95
3, 304320, Note_on_c, 6, 54, 95
3, 304800, Note_off_c, 6, 54, 95
3, 304800, Note_on_c, 6, 52, 95
3, 306240, Note_off_c, 6, 52, 95
3, 306240, End_track
4, 0, Start_track
4, 0, Pitch_bend_c, 11, 8192
4, 0, Control_c, 11, 7, 71
4, 0, Control_c, 11, 10, 63
4, 0, Control_c, 11, 93, 0
4, 0, Control_c, 11, 91, 0
4, 0, Control_c, 11, 95, 0
4, 0, Control_c, 11, 92, 0
4, 0, Control_c, 11, 11, 127
4, 0, Program_c, 11, 30
4, 0, Control_c, 12, 7, 71
4, 0, Control_c, 12, 10, 63
4, 0, Control_c, 12, 93, 0
4, 0, Control_c, 12, 91, 0
4, 0, Control_c, 12, 95, 0
4, 0, Control_c, 12, 92, 0
4, 0, Control_c, 12, 11, 127
4, 0, Program_c, 12, 30
4, 92160, Note_on_c, 11, 47, 95
4, 92164, Note_on_c, 11, 54, 95
4, 92168, Note_on_c, 11, 59, 95
4, 92172, Note_on_c, 11, 63, 95
4, 92640, Note_off_c, 11, 63, 95
4, 92640, Note_off_c, 11, 59, 95
4, 92640, Note_off_c, 11, 54, 95
4, 92640, Note_off_c, 11, 47, 95
4, 92640, Note_on_c, 11, 47, 95
4, 92644, Note_on_c, 11, 54, 95
4, 92648, Note_on_c, 11, 59, 95
4, 92652, Note_on_c, 11, 63, 95
4, 93120, Note_off_c, 11, 63, 95
4, 93120, Note_off_c, 11, 59, 95
4, 93120, Note_off_c, 11, 54, 95
4, 93120, Note_off_c, 11, 47, 95
4, 93120, Note_on_c, 11, 45, 95
4, 93122, Note_on_c, 11, 45, 95
4, 93124, Note_on_c, 11, 50, 95
4, 93126, Note_on_c, 11, 55, 95
4, 93128, Note_on_c, 11, 59, 95
4, 93130, Note_on_c, 11, 64, 95
4, 93162, Note_off_c, 11, 64, 95
4, 93162, Note_off_c, 11, 59, 95
4, 93162, Note_off_c, 11, 55, 95
4, 93162, Note_off_c, 11, 50, 95
4, 93162, Note_off_c, 11, 45, 95
4, 93162, Note_off_c, 11, 45, 95
4, 93360, Note_on_c, 11, 64, 95
4, 93362, Note_on_c, 11, 59, 95
4, 93364, Note_on_c, 11, 55, 95
4, 93366, Note_on_c, 11, 50, 95
4, 93368, Note_on_c, 11, 45, 95
4, 93370, Note_on_c, 11, 40, 95
4, 93402, Note_off_c, 11, 64, 95
4, 93402, Note_off_c, 11, 59, 95
4, 93402, Note_off_c, 11, 55, 95
4, 93402, Note_off_c, 11, 50, 95
4, 93402, Note_off_c, 11, 45, 95
4, 93402, Note_off_c, 11, 40, 95
4, 93600, Note_on_c, 11, 44, 95
4, 93602, Note_on_c, 11, 45, 95
4, 93604, Note_on_c, 11, 50, 95
4, 93606, Note_on_c, 11, 55, 95
4, 93608, Note_on_c, 11, 59, 95
4, 93610, Note_on_c, 11, 64, 95
4, 93642, Note_off_c, 11, 64, 95
4, 93642, Note_off_c, 11, 59, 95
4, 93642, Note_off_c, 11, 55, 95
4, 93642, Note_off_c, 11, 50, 95
4, 93642, Note_off_c, 11, 45, 95
4, 93642, Note_off_c, 11, 44, 95
4, 93840, Note_on_c, 11, 64, 95
4, 93842, Note_on_c, 11, 59, 95
4, 93844, Note_on_c, 11, 55, 95
4, 93846, Note_on_c, 11, 50, 95
4, 93848, Note_on_c, 11, 45, 95
4, 93850, Note_on_c, 11, 40, 95
4, 93882, Note_off_c, 11, 64, 95
4, 93882, Note_off_c, 11, 59, 95
4, 93882, Note_off_c, 11, 55, 95
4, 93882, Note_off_c, 11, 50, 95
4, 93882, Note_off_c, 11, 45, 95
4, 93882, Note_off_c, 11, 40, 95
4, 94080, Note_on_c, 11, 45, 95
4, 94084, Note_on_c, 11, 50, 95
4, 94088, Note_on_c, 11, 57, 95
4, 94092, Note_on_c, 11, 62, 95
4, 94560, Note_off_c, 11, 62, 95
4, 94560, Note_off_c, 11, 57, 95
4, 94560, Note_off_c, 11, 50, 95
4, 94560, Note_off_c, 11, 45, 95
4, 94560, Note_on_c, 11, 45, 95
4, 94564, Note_on_c, 11, 50, 95
4, 94568, Note_on_c, 11, 57, 95
4, 94572, Note_on_c, 11, 62, 95
4, 95040, Note_off_c, 11, 62, 95
4, 95040, Note_off_c, 11, 57, 95
4, 95040, Note_off_c, 11, 50, 95
4, 95040, Note_off_c, 11, 45, 95
4, 95040, Note_on_c, 11, 40, 95
4, 95042, Note_on_c, 11, 45, 95
4, 95044, Note_on_c, 11, 50, 95
4, 95046, Note_on_c, 11, 55, 95
4, 95048, Note_on_c, 11, 59, 95
4, 95050, Note_on_c, 11, 64, 95
4, 95082, Note_off_c, 11, 64, 95
4, 95082, Note_off_c, 11, 59, 95
4, 95082, Note_off_c, 11, 55, 95
4, 95082, Note_off_c, 11, 50, 95
4, 95082, Note_off_c, 11, 45, 95
4, 95082, Note_off_c, 11, 40, 95
4, 95280, Note_on_c, 11, 64, 95
4, 95282, Note_on_c, 11, 59, 95
4, 95284, Note_on_c, 11, 55, 95
4, 95286, Note_on_c, 11, 50, 95
4, 95288, Note_on_c, 11, 45, 95
4, 95290, Note_on_c, 11, 40, 95
4, 95322, Note_off_c, 11, 64, 95
4, 95322, Note_off_c, 11, 59, 95
4, 95322, Note_off_c, 11, 55, 95
4, 95322, Note_off_c, 11, 50, 95
4, 95322, Note_off_c, 11, 45, 95
4, 95322, Note_off_c, 11, 40, 95
4, 95520, Note_on_c, 11, 40, 95
4, 95522, Note_on_c, 11, 45, 95
4, 95524, Note_on_c, 11, 50, 95
4, 95526, Note_on_c, 11, 55, 95
4, 95528, Note_on_c, 11, 59, 95
4, 95530, Note_on_c, 11, 64, 95
4, 95562, Note_off_c, 11, 64, 95
4, 95562, Note_off_c, 11, 59, 95
4, 95562, Note_off_c, 11, 55, 95
4, 95562, Note_off_c, 11, 50, 95
4, 95562, Note_off_c, 11, 45, 95
4, 95562, Note_off_c, 11, 40, 95
4, 95760, Note_on_c, 11, 64, 95
4, 95762, Note_on_c, 11, 59, 95
4, 95764, Note_on_c, 11, 55, 95
4, 95766, Note_on_c, 11, 50, 95
4, 95768, Note_on_c, 11, 45, 95
4, 95770, Note_on_c, 11, 40, 95
4, 95802, Note_off_c, 11, 64, 95
4, 95802, Note_off_c, 11, 59, 95
4, 95802, Note_off_c, 11, 55, 95
4, 95802, Note_off_c, 11, 50, 95
4, 95802, Note_off_c, 11, 45, 95
4, 95802, Note_off_c, 11, 40, 95
4, 96000, Note_on_c, 11, 47, 95
4, 96004, Note_on_c, 11, 52, 95
4, 96008, Note_on_c, 11, 59, 95
4, 96012, Note_on_c, 11, 64, 95
4, 96480, Note_off_c, 11, 64, 95
4, 96480, Note_off_c, 11, 59, 95
4, 96480, Note_off_c, 11, 52, 95
4, 96480, Note_off_c, 11, 47, 95
4, 96480, Note_on_c, 11, 47, 95
4, 96484, Note_on_c, 11, 52, 95
4, 96488, Note_on_c, 11, 59, 95
4, 96492, Note_on_c, 11, 64, 95
4, 96960, Note_off_c, 11, 64, 95
4, 96960, Note_off_c, 11, 59, 95
4, 96960, Note_off_c, 11, 52, 95
4, 96960, Note_off_c, 11, 47, 95
4, 96960, Note_on_c, 11, 45, 95
4, 96962, Note_on_c, 11, 45, 95
4, 96964, Note_on_c, 11, 50, 95
4, 96966, Note_on_c, 11, 55, 95
4, 96968, Note_on_c, 11, 59, 95
4, 96970, Note_on_c, 11, 64, 95
4, 97002, Note_off_c, 11, 64, 95
4, 97002, Note_off_c, 11, 59, 95
4, 97002, Note_off_c, 11, 55, 95
4, 97002, Note_off_c, 11, 50, 95
4, 97002, Note_off_c, 11, 45, 95
4, 97002, Note_off_c, 11, 45, 95
4, 97200, Note_on_c, 11, 64, 95
4, 97202, Note_on_c, 11, 59, 95
4, 97204, Note_on_c, 11, 55, 95
4, 97206, Note_on_c, 11, 50, 95
4, 97208, Note_on_c, 11, 45, 95
4, 97210, Note_on_c, 11, 40, 95
4, 97242, Note_off_c, 11, 64, 95
4, 97242, Note_off_c, 11, 59, 95
4, 97242, Note_off_c, 11, 55, 95
4, 97242, Note_off_c, 11, 50, 95
4, 97242, Note_off_c, 11, 45, 95
4, 97242, Note_off_c, 11, 40, 95
4, 97440, Note_on_c, 11, 44, 95
4, 97442, Note_on_c, 11, 45, 95
4, 97444, Note_on_c, 11, 50, 95
4, 97446, Note_on_c, 11, 55, 95
4, 97448, Note_on_c, 11, 59, 95
4, 97450, Note_on_c, 11, 64, 95
4, 97482, Note_off_c, 11, 64, 95
4, 97482, Note_off_c, 11, 59, 95
4, 97482, Note_off_c, 11, 55, 95
4, 97482, Note_off_c, 11, 50, 95
4, 97482, Note_off_c, 11, 45, 95
4, 97482, Note_off_c, 11, 44, 95
4, 97680, Note_on_c, 11, 64, 95
4, 97682, Note_on_c, 11, 59, 95
4, 97684, Note_on_c, 11, 55, 95
4, 97686, Note_on_c, 11, 50, 95
4, 97688, Note_on_c, 11, 45, 95
4, 97690, Note_on_c, 11, 40, 95
4, 97722, Note_off_c, 11, 64, 95
4, 97722, Note_off_c, 11, 59, 95
4, 97722, Note_off_c, 11, 55, 95
4, 97722, Note_off_c, 11, 50, 95
4, 97722, Note_off_c, 11, 45, 95
4, 97722, Note_off_c, 11, 40, 95
4, 97920, Note_on_c, 11, 45, 95
4, 97922, Note_on_c, 11, 50, 95
4, 97924, Note_on_c, 11, 57, 95
4, 97926, Note_on_c, 11, 62, 95
4, 98160, Note_off_c, 11, 62, 95
4, 98160, Note_off_c, 11, 57, 95
4, 98160, Note_off_c, 11, 50, 95
4, 98160, Note_off_c, 11, 45, 95
4, 98400, Note_on_c, 11, 45, 95
4, 98402, Note_on_c, 11, 50, 95
4, 98404, Note_on_c, 11, 57, 95
4, 98406, Note_on_c, 11, 62, 95
4, 98408, Note_on_c, 11, 66, 95
4, 98410, Note_on_c, 11, 69, 95
4, 98442, Note_off_c, 11, 69, 95
4, 98442, Note_off_c, 11, 66, 95
4, 98442, Note_off_c, 11, 62, 95
4, 98442, Note_off_c, 11, 57, 95
4, 98442, Note_off_c, 11, 50, 95
4, 98442, Note_off_c, 11, 45, 95
4, 98640, Note_on_c, 11, 62, 95
4, 98642, Note_on_c, 11, 57, 95
4, 98644, Note_on_c, 11, 50, 95
4, 98646, Note_on_c, 11, 45, 95
4, 98880, Note_off_c, 11, 62, 95
4, 98880, Note_off_c, 11, 57, 95
4, 98880, Note_off_c, 11, 50, 95
4, 98880, Note_off_c, 11, 45, 95
4, 99120, Note_on_c, 11, 64, 95
4, 99122, Note_on_c, 11, 59, 95
4, 99124, Note_on_c, 11, 52, 95
4, 99126, Note_on_c, 11, 47, 95
4, 99360, Note_off_c, 11, 64, 95
4, 99360, Note_off_c, 11, 59, 95
4, 99360, Note_off_c, 11, 52, 95
4, 99360, Note_off_c, 11, 47, 95
4, 99360, Note_on_c, 11, 47, 95
4, 99362, Note_on_c, 11, 52, 95
4, 99364, Note_on_c, 11, 59, 95
4, 99366, Note_on_c, 11, 64, 95
4, 99600, Note_off_c, 11, 64, 95
4, 99600, Note_off_c, 11, 59, 95
4, 99600, Note_off_c, 11, 52, 95
4, 99600, Note_off_c, 11, 47, 95
4, 99840, Note_on_c, 11, 47, 95
4, 99844, Note_on_c, 11, 54, 95
4, 99848, Note_on_c, 11, 59, 95
4, 99852, Note_on_c, 11, 63, 95
4, 100320, Note_off_c, 11, 63, 95
4, 100320, Note_off_c, 11, 59, 95
4, 100320, Note_off_c, 11, 54, 95
4, 100320, Note_off_c, 11, 47, 95
4, 100320, Note_on_c, 11, 47, 95
4, 100324, Note_on_c, 11, 54, 95
4, 100328, Note_on_c, 11, 59, 95
4, 100332, Note_on_c, 11, 63, 95
4, 100800, Note_off_c, 11, 63, 95
4, 100800, Note_off_c, 11, 59, 95
4, 100800, Note_off_c, 11, 54, 95
4, 100800, Note_off_c, 11, 47, 95
4, 100800, Note_on_c, 11, 45, 95
4, 100802, Note_on_c, 11, 45, 95
4, 100804, Note_on_c, 11, 50, 95
4, 100806, Note_on_c, 11, 55, 95
4, 100808, Note_on_c, 11, 59, 95
4, 100810, Note_on_c, 11, 64, 95
4, 100842, Note_off_c, 11, 64, 95
4, 100842, Note_off_c, 11, 59, 95
4, 100842, Note_off_c, 11, 55, 95
4, 100842, Note_off_c, 11, 50, 95
4, 100842, Note_off_c, 11, 45, 95
4, 100842, Note_off_c, 11, 45, 95
4, 101040, Note_on_c, 11, 64, 95
4, 101042, Note_on_c, 11, 59, 95
4, 101044, Note_on_c, 11, 55, 95
4, 101046, Note_on_c, 11, 50, 95
4, 101048, Note_on_c, 11, 45, 95
4, 101050, Note_on_c, 11, 40, 95
4, 101082, Note_off_c, 11, 64, 95
4, 101082, Note_off_c, 11, 59, 95
4, 101082, Note_off_c, 11, 55, 95
4, 101082, Note_off_c, 11, 50, 95
4, 101082, Note_off_c, 11, 45, 95
4, 101082, Note_off_c, 11, 40, 95
4, 101280, Note_on_c, 11, 44, 95
4, 101282, Note_on_c, 11, 45, 95
4, 101284, Note_on_c, 11, 50, 95
4, 101286, Note_on_c, 11, 55, 95
4, 101288, Note_on_c, 11, 59, 95
4, 101290, Note_on_c, 11, 64, 95
4, 101322, Note_off_c, 11, 64, 95
4, 101322, Note_off_c, 11, 59, 95
4, 101322, Note_off_c, 11, 55, 95
4, 101322, Note_off_c, 11, 50, 95
4, 101322, Note_off_c, 11, 45, 95
4, 101322, Note_off_c, 11, 44, 95
4, 101520, Note_on_c, 11, 64, 95
4, 101522, Note_on_c, 11, 59, 95
4, 101524, Note_on_c, 11, 55, 95
4, 101526, Note_on_c, 11, 50, 95
4, 101528, Note_on_c, 11, 45, 95
4, 101530, Note_on_c, 11, 40, 95
4, 101562, Note_off_c, 11, 64, 95
4, 101562, Note_off_c, 11, 59, 95
4, 101562, Note_off_c, 11, 55, 95
4, 101562, Note_off_c, 11, 50, 95
4, 101562, Note_off_c, 11, 45, 95
4, 101562, Note_off_c, 11, 40, 95
4, 101760, Note_on_c, 11, 45, 95
4, 101764, Note_on_c, 11, 50, 95
4, 101768, Note_on_c, 11, 57, 95
4, 101772, Note_on_c, 11, 62, 95
4, 102240, Note_off_c, 11, 62, 95
4, 102240, Note_off_c, 11, 57, 95
4, 102240, Note_off_c, 11, 50, 95
4, 102240, Note_off_c, 11, 45, 95
4, 102240, Note_on_c, 11, 45, 95
4, 102244, Note_on_c, 11, 50, 95
4, 102248, Note_on_c, 11, 57, 95
4, 102252, Note_on_c, 11, 62, 95
4, 102720, Note_off_c, 11, 62, 95
4, 102720, Note_off_c, 11, 57, 95
4, 102720, Note_off_c, 11, 50, 95
4, 102720, Note_off_c, 11, 45, 95
4, 102720, Note_on_c, 11, 40, 95
4, 102722, Note_on_c, 11, 45, 95
4, 102724, Note_on_c, 11, 50, 95
4, 102726, Note_on_c, 11, 55, 95
4, 102728, Note_on_c, 11, 59, 95
4, 102730, Note_on_c, 11, 64, 95
4, 102762, Note_off_c, 11, 64, 95
4, 102762, Note_off_c, 11, 59, 95
4, 102762, Note_off_c, 11, 55, 95
4, 102762, Note_off_c, 11, 50, 95
4, 102762, Note_off_c, 11, 45, 95
4, 102762, Note_off_c, 11, 40, 95
4, 102960, Note_on_c, 11, 64, 95
4, 102962, Note_on_c, 11, 59, 95
4, 102964, Note_on_c, 11, 55, 95
4, 102966, Note_on_c, 11, 50, 95
4, 102968, Note_on_c, 11, 45, 95
4, 102970, Note_on_c, 11, 40, 95
4, 103002, Note_off_c, 11, 64, 95
4, 103002, Note_off_c, 11, 59, 95
4, 103002, Note_off_c, 11, 55, 95
4, 103002, Note_off_c, 11, 50, 95
4, 103002, Note_off_c, 11, 45, 95
4, 103002, Note_off_c, 11, 40, 95
4, 103200, Note_on_c, 11, 40, 95
4, 103202, Note_on_c, 11, 45, 95
4, 103204, Note_on_c, 11, 50, 95
4, 103206, Note_on_c, 11, 55, 95
4, 103208, Note_on_c, 11, 59, 95
4, 103210, Note_on_c, 11, 64, 95
4, 103242, Note_off_c, 11, 64, 95
4, 103242, Note_off_c, 11, 59, 95
4, 103242, Note_off_c, 11, 55, 95
4, 103242, Note_off_c, 11, 50, 95
4, 103242, Note_off_c, 11, 45, 95
4, 103242, Note_off_c, 11, 40, 95
4, 103440, Note_on_c, 11, 64, 95
4, 103442, Note_on_c, 11, 59, 95
4, 103444, Note_on_c, 11, 55, 95
4, 103446, Note_on_c, 11, 50, 95
4, 103448, Note_on_c, 11, 45, 95
4, 103450, Note_on_c, 11, 40, 95
4, 103482, Note_off_c, 11, 64, 95
4, 103482, Note_off_c, 11, 59, 95
4, 103482, Note_off_c, 11, 55, 95
4, 103482, Note_off_c, 11, 50, 95
4, 103482, Note_off_c, 11, 45, 95
4, 103482, Note_off_c, 11, 40, 95
4, 103680, Note_on_c, 11, 47, 95
4, 103684, Note_on_c, 11, 52, 95
4, 103688, Note_on_c, 11, 59, 95
4, 103692, Note_on_c, 11, 64, 95
4, 104160, Note_off_c, 11, 64, 95
4, 104160, Note_off_c, 11, 59, 95
4, 104160, Note_off_c, 11, 52, 95
4, 104160, Note_off_c, 11, 47, 95
4, 104160, Note_on_c, 11, 47, 95
4, 104164, Note_on_c, 11, 52, 95
4, 104168, Note_on_c, 11, 59, 95
4, 104172, Note_on_c, 11, 64, 95
4, 104640, Note_off_c, 11, 64, 95
4, 104640, Note_off_c, 11, 59, 95
4, 104640, Note_off_c, 11, 52, 95
4, 104640, Note_off_c, 11, 47, 95
4, 104640, Note_on_c, 11, 45, 95
4, 104642, Note_on_c, 11, 45, 95
4, 104644, Note_on_c, 11, 50, 95
4, 104646, Note_on_c, 11, 55, 95
4, 104648, Note_on_c, 11, 59, 95
4, 104650, Note_on_c, 11, 64, 95
4, 104682, Note_off_c, 11, 64, 95
4, 104682, Note_off_c, 11, 59, 95
4, 104682, Note_off_c, 11, 55, 95
4, 104682, Note_off_c, 11, 50, 95
4, 104682, Note_off_c, 11, 45, 95
4, 104682, Note_off_c, 11, 45, 95
4, 104880, Note_on_c, 11, 64, 95
4, 104882, Note_on_c, 11, 59, 95
4, 104884, Note_on_c, 11, 55, 95
4, 104886, Note_on_c, 11, 50, 95
4, 104888, Note_on_c, 11, 45, 95
4, 104890, Note_on_c, 11, 40, 95
4, 104922, Note_off_c, 11, 64, 95
4, 104922, Note_off_c, 11, 59, 95
4, 104922, Note_off_c, 11, 55, 95
4, 104922, Note_off_c, 11, 50, 95
4, 104922, Note_off_c, 11, 45, 95
4, 104922, Note_off_c, 11, 40, 95
4, 105120, Note_on_c, 11, 44, 95
4, 105122, Note_on_c, 11, 45, 95
4, 105124, Note_on_c, 11, 50, 95
4, 105126, Note_on_c, 11, 55, 95
4, 105128, Note_on_c, 11, 59, 95
4, 105130, Note_on_c, 11, 64, 95
4, 105162, Note_off_c, 11, 64, 95
4, 105162, Note_off_c, 11, 59, 95
4, 105162, Note_off_c, 11, 55, 95
4, 105162, Note_off_c, 11, 50, 95
4, 105162, Note_off_c, 11, 45, 95
4, 105162, Note_off_c, 11, 44, 95
4, 105360, Note_on_c, 11, 64, 95
4, 105362, Note_on_c, 11, 59, 95
4, 105364, Note_on_c, 11, 55, 95
4, 105366, Note_on_c, 11, 50, 95
4, 105368, Note_on_c, 11, 45, 95
4, 105370, Note_on_c, 11, 40, 95
4, 105402, Note_off_c, 11, 64, 95
4, 105402, Note_off_c, 11, 59, 95
4, 105402, Note_off_c, 11, 55, 95
4, 105402, Note_off_c, 11, 50, 95
4, 105402, Note_off_c, 11, 45, 95
4, 105402, Note_off_c, 11, 40, 95
4, 105600, Note_on_c, 11, 45, 95
4, 105602, Note_on_c, 11, 50, 95
4, 105604, Note_on_c, 11, 57, 95
4, 105606, Note_on_c, 11, 62, 95
4, 105840, Note_off_c, 11, 62, 95
4, 105840, Note_off_c, 11, 57, 95
4, 105840, Note_off_c, 11, 50, 95
4, 105840, Note_off_c, 11, 45, 95
4, 106080, Note_on_c, 11, 45, 95
4, 106082, Note_on_c, 11, 50, 95
4, 106084, Note_on_c, 11, 57, 95
4, 106086, Note_on_c, 11, 62, 95
4, 106088, Note_on_c, 11, 66, 95
4, 106090, Note_on_c, 11, 69, 95
4, 106122, Note_off_c, 11, 69, 95
4, 106122, Note_off_c, 11, 66, 95
4, 106122, Note_off_c, 11, 62, 95
4, 106122, Note_off_c, 11, 57, 95
4, 106122, Note_off_c, 11, 50, 95
4, 106122, Note_off_c, 11, 45, 95
4, 106320, Note_on_c, 11, 62, 95
4, 106322, Note_on_c, 11, 57, 95
4, 106324, Note_on_c, 11, 50, 95
4, 106326, Note_on_c, 11, 45, 95
4, 106560, Note_off_c, 11, 62, 95
4, 106560, Note_off_c, 11, 57, 95
4, 106560, Note_off_c, 11, 50, 95
4, 106560, Note_off_c, 11, 45, 95
4, 106800, Note_on_c, 11, 64, 95
4, 106802, Note_on_c, 11, 59, 95
4, 106804, Note_on_c, 11, 52, 95
4, 106806, Note_on_c, 11, 47, 95
4, 107040, Note_off_c, 11, 64, 95
4, 107040, Note_off_c, 11, 59, 95
4, 107040, Note_off_c, 11, 52, 95
4, 107040, Note_off_c, 11, 47, 95
4, 107040, Note_on_c, 11, 47, 95
4, 107042, Note_on_c, 11, 52, 95
4, 107044, Note_on_c, 11, 59, 95
4, 107046, Note_on_c, 11, 64, 95
4, 107280, Note_off_c, 11, 64, 95
4, 107280, Note_off_c, 11, 59, 95
4, 107280, Note_off_c, 11, 52, 95
4, 107280, Note_off_c, 11, 47, 95
4, 107520, Note_on_c, 11, 47, 95
4, 107524, Note_on_c, 11, 54, 95
4, 107528, Note_on_c, 11, 59, 95
4, 107532, Note_on_c, 11, 63, 95
4, 108000, Note_off_c, 11, 63, 95
4, 108000, Note_off_c, 11, 59, 95
4, 108000, Note_off_c, 11, 54, 95
4, 108000, Note_off_c, 11, 47, 95
4, 108000, Note_on_c, 11, 47, 95
4, 108004, Note_on_c, 11, 54, 95
4, 108008, Note_on_c, 11, 59, 95
4, 108012, Note_on_c, 11, 63, 95
4, 108480, Note_off_c, 11, 63, 95
4, 108480, Note_off_c, 11, 59, 95
4, 108480, Note_off_c, 11, 54, 95
4, 108480, Note_off_c, 11, 47, 95
4, 108480, Note_on_c, 11, 45, 95
4, 108482, Note_on_c, 11, 45, 95
4, 108484, Note_on_c, 11, 50, 95
4, 108486, Note_on_c, 11, 55, 95
4, 108488, Note_on_c, 11, 59, 95
4, 108490, Note_on_c, 11, 64, 95
4, 108522, Note_off_c, 11, 64, 95
4, 108522, Note_off_c, 11, 59, 95
4, 108522, Note_off_c, 11, 55, 95
4, 108522, Note_off_c, 11, 50, 95
4, 108522, Note_off_c, 11, 45, 95
4, 108522, Note_off_c, 11, 45, 95
4, 108720, Note_on_c, 11, 64, 95
4, 108722, Note_on_c, 11, 59, 95
4, 108724, Note_on_c, 11, 55, 95
4, 108726, Note_on_c, 11, 50, 95
4, 108728, Note_on_c, 11, 45, 95
4, 108730, Note_on_c, 11, 40, 95
4, 108762, Note_off_c, 11, 64, 95
4, 108762, Note_off_c, 11, 59, 95
4, 108762, Note_off_c, 11, 55, 95
4, 108762, Note_off_c, 11, 50, 95
4, 108762, Note_off_c, 11, 45, 95
4, 108762, Note_off_c, 11, 40, 95
4, 108960, Note_on_c, 11, 44, 95
4, 108962, Note_on_c, 11, 45, 95
4, 108964, Note_on_c, 11, 50, 95
4, 108966, Note_on_c, 11, 55, 95
4, 108968, Note_on_c, 11, 59, 95
4, 108970, Note_on_c, 11, 64, 95
4, 109002, Note_off_c, 11, 64, 95
4, 109002, Note_off_c, 11, 59, 95
4, 109002, Note_off_c, 11, 55, 95
4, 109002, Note_off_c, 11, 50, 95
4, 109002, Note_off_c, 11, 45, 95
4, 109002, Note_off_c, 11, 44, 95
4, 109200, Note_on_c, 11, 64, 95
4, 109202, Note_on_c, 11, 59, 95
4, 109204, Note_on_c, 11, 55, 95
4, 109206, Note_on_c, 11, 50, 95
4, 109208, Note_on_c, 11, 45, 95
4, 109210, Note_on_c, 11, 40, 95
4, 109242, Note_off_c, 11, 64, 95
4, 109242, Note_off_c, 11, 59, 95
4, 109242, Note_off_c, 11, 55, 95
4, 109242, Note_off_c, 11, 50, 95
4, 109242, Note_off_c, 11, 45, 95
4, 109242, Note_off_c, 11, 40, 95
4, 109440, Note_on_c, 11, 45, 95
4, 109444, Note_on_c, 11, 50, 95
4, 109448, Note_on_c, 11, 57, 95
4, 109452, Note_on_c, 11, 62, 95
4, 109920, Note_off_c, 11, 62, 95
4, 109920, Note_off_c, 11, 57, 95
4, 109920, Note_off_c, 11, 50, 95
4, 109920, Note_off_c, 11, 45, 95
4, 109920, Note_on_c, 11, 45, 95
4, 109924, Note_on_c, 11, 50, 95
4, 109928, Note_on_c, 11, 57, 95
4, 109932, Note_on_c, 11, 62, 95
4, 110400, Note_off_c, 11, 62, 95
4, 110400, Note_off_c, 11, 57, 95
4, 110400, Note_off_c, 11, 50, 95
4, 110400, Note_off_c, 11, 45, 95
4, 110400, Note_on_c, 11, 40, 95
4, 110402, Note_on_c, 11, 45, 95
4, 110404, Note_on_c, 11, 50, 95
4, 110406, Note_on_c, 11, 55, 95
4, 110408, Note_on_c, 11, 59, 95
4, 110410, Note_on_c, 11, 64, 95
4, 110442, Note_off_c, 11, 64, 95
4, 110442, Note_off_c, 11, 59, 95
4, 110442, Note_off_c, 11, 55, 95
4, 110442, Note_off_c, 11, 50, 95
4, 110442, Note_off_c, 11, 45, 95
4, 110442, Note_off_c, 11, 40, 95
4, 110640, Note_on_c, 11, 64, 95
4, 110642, Note_on_c, 11, 59, 95
4, 110644, Note_on_c, 11, 55, 95
4, 110646, Note_on_c, 11, 50, 95
4, 110648, Note_on_c, 11, 45, 95
4, 110650, Note_on_c, 11, 40, 95
4, 110682, Note_off_c, 11, 64, 95
4, 110682, Note_off_c, 11, 59, 95
4, 110682, Note_off_c, 11, 55, 95
4, 110682, Note_off_c, 11, 50, 95
4, 110682, Note_off_c, 11, 45, 95
4, 110682, Note_off_c, 11, 40, 95
4, 110880, Note_on_c, 11, 40, 95
4, 110882, Note_on_c, 11, 45, 95
4, 110884, Note_on_c, 11, 50, 95
4, 110886, Note_on_c, 11, 55, 95
4, 110888, Note_on_c, 11, 59, 95
4, 110890, Note_on_c, 11, 64, 95
4, 110922, Note_off_c, 11, 64, 95
4, 110922, Note_off_c, 11, 59, 95
4, 110922, Note_off_c, 11, 55, 95
4, 110922, Note_off_c, 11, 50, 95
4, 110922, Note_off_c, 11, 45, 95
4, 110922, Note_off_c, 11, 40, 95
4, 111120, Note_on_c, 11, 64, 95
4, 111122, Note_on_c, 11, 59, 95
4, 111124, Note_on_c, 11, 55, 95
4, 111126, Note_on_c, 11, 50, 95
4, 111128, Note_on_c, 11, 45, 95
4, 111130, Note_on_c, 11, 40, 95
4, 111162, Note_off_c, 11, 64, 95
4, 111162, Note_off_c, 11, 59, 95
4, 111162, Note_off_c, 11, 55, 95
4, 111162, Note_off_c, 11, 50, 95
4, 111162, Note_off_c, 11, 45, 95
4, 111162, Note_off_c, 11, 40, 95
4, 111360, Note_on_c, 11, 47, 95
4, 111364, Note_on_c, 11, 52, 95
4, 111368, Note_on_c, 11, 59, 95
4, 111372, Note_on_c, 11, 64, 95
4, 111840, Note_off_c, 11, 64, 95
4, 111840, Note_off_c, 11, 59, 95
4, 111840, Note_off_c, 11, 52, 95
4, 111840, Note_off_c, 11, 47, 95
4, 111840, Note_on_c, 11, 47, 95
4, 111844, Note_on_c, 11, 52, 95
4, 111848, Note_on_c, 11, 59, 95
4, 111852, Note_on_c, 11, 64, 95
4, 112320, Note_off_c, 11, 64, 95
4, 112320, Note_off_c, 11, 59, 95
4, 112320, Note_off_c, 11, 52, 95
4, 112320, Note_off_c, 11, 47, 95
4, 112320, Note_on_c, 11, 45, 95
4, 112322, Note_on_c, 11, 45, 95
4, 112324, Note_on_c, 11, 50, 95
4, 112326, Note_on_c, 11, 55, 95
4, 112328, Note_on_c, 11, 59, 95
4, 112330, Note_on_c, 11, 64, 95
4, 112362, Note_off_c, 11, 64, 95
4, 112362, Note_off_c, 11, 59, 95
4, 112362, Note_off_c, 11, 55, 95
4, 112362, Note_off_c, 11, 50, 95
4, 112362, Note_off_c, 11, 45, 95
4, 112362, Note_off_c, 11, 45, 95
4, 112560, Note_on_c, 11, 64, 95
4, 112562, Note_on_c, 11, 59, 95
4, 112564, Note_on_c, 11, 55, 95
4, 112566, Note_on_c, 11, 50, 95
4, 112568, Note_on_c, 11, 45, 95
4, 112570, Note_on_c, 11, 40, 95
4, 112602, Note_off_c, 11, 64, 95
4, 112602, Note_off_c, 11, 59, 95
4, 112602, Note_off_c, 11, 55, 95
4, 112602, Note_off_c, 11, 50, 95
4, 112602, Note_off_c, 11, 45, 95
4, 112602, Note_off_c, 11, 40, 95
4, 112800, Note_on_c, 11, 44, 95
4, 112802, Note_on_c, 11, 45, 95
4, 112804, Note_on_c, 11, 50, 95
4, 112806, Note_on_c, 11, 55, 95
4, 112808, Note_on_c, 11, 59, 95
4, 112810, Note_on_c, 11, 64, 95
4, 112842, Note_off_c, 11, 64, 95
4, 112842, Note_off_c, 11, 59, 95
4, 112842, Note_off_c, 11, 55, 95
4, 112842, Note_off_c, 11, 50, 95
4, 112842, Note_off_c, 11, 45, 95
4, 112842, Note_off_c, 11, 44, 95
4, 113040, Note_on_c, 11, 64, 95
4, 113042, Note_on_c, 11, 59, 95
4, 113044, Note_on_c, 11, 55, 95
4, 113046, Note_on_c, 11, 50, 95
4, 113048, Note_on_c, 11, 45, 95
4, 113050, Note_on_c, 11, 40, 95
4, 113082, Note_off_c, 11, 64, 95
4, 113082, Note_off_c, 11, 59, 95
4, 113082, Note_off_c, 11, 55, 95
4, 113082, Note_off_c, 11, 50, 95
4, 113082, Note_off_c, 11, 45, 95
4, 113082, Note_off_c, 11, 40, 95
4, 113280, Note_on_c, 11, 45, 95
4, 113282, Note_on_c, 11, 50, 95
4, 113284, Note_on_c, 11, 57, 95
4, 113286, Note_on_c, 11, 62, 95
4, 113520, Note_off_c, 11, 62, 95
4, 113520, Note_off_c, 11, 57, 95
4, 113520, Note_off_c, 11, 50, 95
4, 113520, Note_off_c, 11, 45, 95
4, 113760, Note_on_c, 11, 45, 95
4, 113762, Note_on_c, 11, 50, 95
4, 113764, Note_on_c, 11, 57, 95
4, 113766, Note_on_c, 11, 62, 95
4, 113768, Note_on_c, 11, 66, 95
4, 113770, Note_on_c, 11, 69, 95
4, 113802, Note_off_c, 11, 69, 95
4, 113802, Note_off_c, 11, 66, 95
4, 113802, Note_off_c, 11, 62, 95
4, 113802, Note_off_c, 11, 57, 95
4, 113802, Note_off_c, 11, 50, 95
4, 113802, Note_off_c, 11, 45, 95
4, 114000, Note_on_c, 11, 62, 95
4, 114002, Note_on_c, 11, 57, 95
4, 114004, Note_on_c, 11, 50, 95
4, 114006, Note_on_c, 11, 45, 95
4, 114240, Note_off_c, 11, 62, 95
4, 114240, Note_off_c, 11, 57, 95
4, 114240, Note_off_c, 11, 50, 95
4, 114240, Note_off_c, 11, 45, 95
4, 114480, Note_on_c, 11, 64, 95
4, 114482, Note_on_c, 11, 59, 95
4, 114484, Note_on_c, 11, 52, 95
4, 114486, Note_on_c, 11, 47, 95
4, 114720, Note_off_c, 11, 64, 95
4, 114720, Note_off_c, 11, 59, 95
4, 114720, Note_off_c, 11, 52, 95
4, 114720, Note_off_c, 11, 47, 95
4, 114720, Note_on_c, 11, 47, 95
4, 114722, Note_on_c, 11, 52, 95
4, 114724, Note_on_c, 11, 59, 95
4, 114726, Note_on_c, 11, 64, 95
4, 114960, Note_off_c, 11, 64, 95
4, 114960, Note_off_c, 11, 59, 95
4, 114960, Note_off_c, 11, 52, 95
4, 114960, Note_off_c, 11, 47, 95
4, 115200, Note_on_c, 11, 47, 95
4, 115204, Note_on_c, 11, 54, 95
4, 115208, Note_on_c, 11, 59, 95
4, 115212, Note_on_c, 11, 63, 95
4, 115680, Note_off_c, 11, 63, 95
4, 115680, Note_off_c, 11, 59, 95
4, 115680, Note_off_c, 11, 54, 95
4, 115680, Note_off_c, 11, 47, 95
4, 115680, Note_on_c, 11, 47, 95
4, 115684, Note_on_c, 11, 54, 95
4, 115688, Note_on_c, 11, 59, 95
4, 115692, Note_on_c, 11, 63, 95
4, 116160, Note_off_c, 11, 63, 95
4, 116160, Note_off_c, 11, 59, 95
4, 116160, Note_off_c, 11, 54, 95
4, 116160, Note_off_c, 11, 47, 95
4, 116160, Note_on_c, 11, 45, 95
4, 116162, Note_on_c, 11, 45, 95
4, 116164, Note_on_c, 11, 50, 95
4, 116166, Note_on_c, 11, 55, 95
4, 116168, Note_on_c, 11, 59, 95
4, 116170, Note_on_c, 11, 64, 95
4, 116202, Note_off_c, 11, 64, 95
4, 116202, Note_off_c, 11, 59, 95
4, 116202, Note_off_c, 11, 55, 95
4, 116202, Note_off_c, 11, 50, 95
4, 116202, Note_off_c, 11, 45, 95
4, 116202, Note_off_c, 11, 45, 95
4, 116400, Note_on_c, 11, 64, 95
4, 116402, Note_on_c, 11, 59, 95
4, 116404, Note_on_c, 11, 55, 95
4, 116406, Note_on_c, 11, 50, 95
4, 116408, Note_on_c, 11, 45, 95
4, 116410, Note_on_c, 11, 40, 95
4, 116442, Note_off_c, 11, 64, 95
4, 116442, Note_off_c, 11, 59, 95
4, 116442, Note_off_c, 11, 55, 95
4, 116442, Note_off_c, 11, 50, 95
4, 116442, Note_off_c, 11, 45, 95
4, 116442, Note_off_c, 11, 40, 95
4, 116640, Note_on_c, 11, 44, 95
4, 116642, Note_on_c, 11, 45, 95
4, 116644, Note_on_c, 11, 50, 95
4, 116646, Note_on_c, 11, 55, 95
4, 116648, Note_on_c, 11, 59, 95
4, 116650, Note_on_c, 11, 64, 95
4, 116682, Note_off_c, 11, 64, 95
4, 116682, Note_off_c, 11, 59, 95
4, 116682, Note_off_c, 11, 55, 95
4, 116682, Note_off_c, 11, 50, 95
4, 116682, Note_off_c, 11, 45, 95
4, 116682, Note_off_c, 11, 44, 95
4, 116880, Note_on_c, 11, 64, 95
4, 116882, Note_on_c, 11, 59, 95
4, 116884, Note_on_c, 11, 55, 95
4, 116886, Note_on_c, 11, 50, 95
4, 116888, Note_on_c, 11, 45, 95
4, 116890, Note_on_c, 11, 40, 95
4, 116922, Note_off_c, 11, 64, 95
4, 116922, Note_off_c, 11, 59, 95
4, 116922, Note_off_c, 11, 55, 95
4, 116922, Note_off_c, 11, 50, 95
4, 116922, Note_off_c, 11, 45, 95
4, 116922, Note_off_c, 11, 40, 95
4, 117120, Note_on_c, 11, 45, 95
4, 117124, Note_on_c, 11, 50, 95
4, 117128, Note_on_c, 11, 57, 95
4, 117132, Note_on_c, 11, 62, 95
4, 117600, Note_off_c, 11, 62, 95
4, 117600, Note_off_c, 11, 57, 95
4, 117600, Note_off_c, 11, 50, 95
4, 117600, Note_off_c, 11, 45, 95
4, 117600, Note_on_c, 11, 45, 95
4, 117604, Note_on_c, 11, 50, 95
4, 117608, Note_on_c, 11, 57, 95
4, 117612, Note_on_c, 11, 62, 95
4, 118080, Note_off_c, 11, 62, 95
4, 118080, Note_off_c, 11, 57, 95
4, 118080, Note_off_c, 11, 50, 95
4, 118080, Note_off_c, 11, 45, 95
4, 118080, Note_on_c, 11, 40, 95
4, 118082, Note_on_c, 11, 45, 95
4, 118084, Note_on_c, 11, 50, 95
4, 118086, Note_on_c, 11, 55, 95
4, 118088, Note_on_c, 11, 59, 95
4, 118090, Note_on_c, 11, 64, 95
4, 118122, Note_off_c, 11, 64, 95
4, 118122, Note_off_c, 11, 59, 95
4, 118122, Note_off_c, 11, 55, 95
4, 118122, Note_off_c, 11, 50, 95
4, 118122, Note_off_c, 11, 45, 95
4, 118122, Note_off_c, 11, 40, 95
4, 118320, Note_on_c, 11, 64, 95
4, 118322, Note_on_c, 11, 59, 95
4, 118324, Note_on_c, 11, 55, 95
4, 118326, Note_on_c, 11, 50, 95
4, 118328, Note_on_c, 11, 45, 95
4, 118330, Note_on_c, 11, 40, 95
4, 118362, Note_off_c, 11, 64, 95
4, 118362, Note_off_c, 11, 59, 95
4, 118362, Note_off_c, 11, 55, 95
4, 118362, Note_off_c, 11, 50, 95
4, 118362, Note_off_c, 11, 45, 95
4, 118362, Note_off_c, 11, 40, 95
4, 118560, Note_on_c, 11, 40, 95
4, 118562, Note_on_c, 11, 45, 95
4, 118564, Note_on_c, 11, 50, 95
4, 118566, Note_on_c, 11, 55, 95
4, 118568, Note_on_c, 11, 59, 95
4, 118570, Note_on_c, 11, 64, 95
4, 118602, Note_off_c, 11, 64, 95
4, 118602, Note_off_c, 11, 59, 95
4, 118602, Note_off_c, 11, 55, 95
4, 118602, Note_off_c, 11, 50, 95
4, 118602, Note_off_c, 11, 45, 95
4, 118602, Note_off_c, 11, 40, 95
4, 118800, Note_on_c, 11, 64, 95
4, 118802, Note_on_c, 11, 59, 95
4, 118804, Note_on_c, 11, 55, 95
4, 118806, Note_on_c, 11, 50, 95
4, 118808, Note_on_c, 11, 45, 95
4, 118810, Note_on_c, 11, 40, 95
4, 118842, Note_off_c, 11, 64, 95
4, 118842, Note_off_c, 11, 59, 95
4, 118842, Note_off_c, 11, 55, 95
4, 118842, Note_off_c, 11, 50, 95
4, 118842, Note_off_c, 11, 45, 95
4, 118842, Note_off_c, 11, 40, 95
4, 119040, Note_on_c, 11, 47, 95
4, 119044, Note_on_c, 11, 52, 95
4, 119048, Note_on_c, 11, 59, 95
4, 119052, Note_on_c, 11, 64, 95
4, 119520, Note_off_c, 11, 64, 95
4, 119520, Note_off_c, 11, 59, 95
4, 119520, Note_off_c, 11, 52, 95
4, 119520, Note_off_c, 11, 47, 95
4, 119520, Note_on_c, 11, 47, 95
4, 119524, Note_on_c, 11, 52, 95
4, 119528, Note_on_c, 11, 59, 95
4, 119532, Note_on_c, 11, 64, 95
4, 120000, Note_off_c, 11, 64, 95
4, 120000, Note_off_c, 11, 59, 95
4, 120000, Note_off_c, 11, 52, 95
4, 120000, Note_off_c, 11, 47, 95
4, 120000, Note_on_c, 11, 45, 95
4, 120002, Note_on_c, 11, 45, 95
4, 120004, Note_on_c, 11, 50, 95
4, 120006, Note_on_c, 11, 55, 95
4, 120008, Note_on_c, 11, 59, 95
4, 120010, Note_on_c, 11, 64, 95
4, 120042, Note_off_c, 11, 64, 95
4, 120042, Note_off_c, 11, 59, 95
4, 120042, Note_off_c, 11, 55, 95
4, 120042, Note_off_c, 11, 50, 95
4, 120042, Note_off_c, 11, 45, 95
4, 120042, Note_off_c, 11, 45, 95
4, 120240, Note_on_c, 11, 64, 95
4, 120242, Note_on_c, 11, 59, 95
4, 120244, Note_on_c, 11, 55, 95
4, 120246, Note_on_c, 11, 50, 95
4, 120248, Note_on_c, 11, 45, 95
4, 120250, Note_on_c, 11, 40, 95
4, 120282, Note_off_c, 11, 64, 95
4, 120282, Note_off_c, 11, 59, 95
4, 120282, Note_off_c, 11, 55, 95
4, 120282, Note_off_c, 11, 50, 95
4, 120282, Note_off_c, 11, 45, 95
4, 120282, Note_off_c, 11, 40, 95
4, 120480, Note_on_c, 11, 44, 95
4, 120482, Note_on_c, 11, 45, 95
4, 120484, Note_on_c, 11, 50, 95
4, 120486, Note_on_c, 11, 55, 95
4, 120488, Note_on_c, 11, 59, 95
4, 120490, Note_on_c, 11, 64, 95
4, 120522, Note_off_c, 11, 64, 95
4, 120522, Note_off_c, 11, 59, 95
4, 120522, Note_off_c, 11, 55, 95
4, 120522, Note_off_c, 11, 50, 95
4, 120522, Note_off_c, 11, 45, 95
4, 120522, Note_off_c, 11, 44, 95
4, 120720, Note_on_c, 11, 64, 95
4, 120722, Note_on_c, 11, 59, 95
4, 120724, Note_on_c, 11, 55, 95
4, 120726, Note_on_c, 11, 50, 95
4, 120728, Note_on_c, 11, 45, 95
4, 120730, Note_on_c, 11, 40, 95
4, 120762, Note_off_c, 11, 64, 95
4, 120762, Note_off_c, 11, 59, 95
4, 120762, Note_off_c, 11, 55, 95
4, 120762, Note_off_c, 11, 50, 95
4, 120762, Note_off_c, 11, 45, 95
4, 120762, Note_off_c, 11, 40, 95
4, 120960, Note_on_c, 11, 45, 95
4, 120962, Note_on_c, 11, 50, 95
4, 120964, Note_on_c, 11, 57, 95
4, 120966, Note_on_c, 11, 62, 95
4, 121200, Note_off_c, 11, 62, 95
4, 121200, Note_off_c, 11, 57, 95
4, 121200, Note_off_c, 11, 50, 95
4, 121200, Note_off_c, 11, 45, 95
4, 121440, Note_on_c, 11, 45, 95
4, 121442, Note_on_c, 11, 50, 95
4, 121444, Note_on_c, 11, 57, 95
4, 121446, Note_on_c, 11, 62, 95
4, 121448, Note_on_c, 11, 66, 95
4, 121450, Note_on_c, 11, 69, 95
4, 121482, Note_off_c, 11, 69, 95
4, 121482, Note_off_c, 11, 66, 95
4, 121482, Note_off_c, 11, 62, 95
4, 121482, Note_off_c, 11, 57, 95
4, 121482, Note_off_c, 11, 50, 95
4, 121482, Note_off_c, 11, 45, 95
4, 121680, Note_on_c, 11, 62, 95
4, 121682, Note_on_c, 11, 57, 95
4, 121684, Note_on_c, 11, 50, 95
4, 121686, Note_on_c, 11, 45, 95
4, 121920, Note_off_c, 11, 62, 95
4, 121920, Note_off_c, 11, 57, 95
4, 121920, Note_off_c, 11, 50, 95
4, 121920, Note_off_c, 11, 45, 95
4, 122160, Note_on_c, 11, 64, 95
4, 122162, Note_on_c, 11, 59, 95
4, 122164, Note_on_c, 11, 52, 95
4, 122166, Note_on_c, 11, 47, 95
4, 122400, Note_off_c, 11, 64, 95
4, 122400, Note_off_c, 11, 59, 95
4, 122400, Note_off_c, 11, 52, 95
4, 122400, Note_off_c, 11, 47, 95
4, 122400, Note_on_c, 11, 47, 95
4, 122402, Note_on_c, 11, 52, 95
4, 122404, Note_on_c, 11, 59, 95
4, 122406, Note_on_c, 11, 64, 95
4, 122640, Note_off_c, 11, 64, 95
4, 122640, Note_off_c, 11, 59, 95
4, 122640, Note_off_c, 11, 52, 95
4, 122640, Note_off_c, 11, 47, 95
4, 122880, Note_on_c, 11, 63, 95
4, 122880, Note_on_c, 11, 59, 95
4, 122880, Note_on_c, 11, 54, 95
4, 122880, Note_on_c, 11, 47, 95
4, 123840, Note_off_c, 11, 63, 95
4, 123840, Note_off_c, 11, 59, 95
4, 123840, Note_off_c, 11, 54, 95
4, 123840, Note_off_c, 11, 47, 95
4, 124320, Note_on_c, 11, 61, 95
4, 124320, Note_on_c, 11, 57, 95
4, 124320, Note_on_c, 11, 52, 95
4, 124320, Note_on_c, 11, 45, 95
4, 125760, Note_off_c, 11, 61, 95
4, 125760, Note_off_c, 11, 57, 95
4, 125760, Note_off_c, 11, 52, 95
4, 125760, Note_off_c, 11, 45, 95
4, 125760, Note_on_c, 11, 61, 95
4, 125760, Note_on_c, 11, 57, 95
4, 125760, Note_on_c, 11, 52, 95
4, 125760, Note_on_c, 11, 45, 95
4, 126240, Note_off_c, 11, 61, 95
4, 126240, Note_off_c, 11, 57, 95
4, 126240, Note_off_c, 11, 52, 95
4, 126240, Note_off_c, 11, 45, 95
4, 126720, Note_on_c, 11, 60, 95
4, 126720, Note_on_c, 11, 56, 95
4, 126720, Note_on_c, 11, 51, 95
4, 126720, Note_on_c, 11, 44, 95
4, 127200, Note_off_c, 11, 60, 95
4, 127200, Note_off_c, 11, 56, 95
4, 127200, Note_off_c, 11, 51, 95
4, 127200, Note_off_c, 11, 44, 95
4, 127200, Note_on_c, 11, 60, 95
4, 127200, Note_on_c, 11, 56, 95
4, 127200, Note_on_c, 11, 51, 95
4, 127200, Note_on_c, 11, 44, 95
4, 127680, Note_off_c, 11, 60, 95
4, 127680, Note_off_c, 11, 56, 95
4, 127680, Note_off_c, 11, 51, 95
4, 127680, Note_off_c, 11, 44, 95
4, 127680, Note_on_c, 11, 60, 95
4, 127680, Note_on_c, 11, 56, 95
4, 127680, Note_on_c, 11, 51, 95
4, 127680, Note_on_c, 11, 44, 95
4, 128160, Note_off_c, 11, 60, 95
4, 128160, Note_off_c, 11, 56, 95
4, 128160, Note_off_c, 11, 51, 95
4, 128160, Note_off_c, 11, 44, 95
4, 128160, Note_on_c, 11, 60, 95
4, 128160, Note_on_c, 11, 56, 95
4, 128160, Note_on_c, 11, 51, 95
4, 128160, Note_on_c, 11, 44, 95
4, 128640, Note_off_c, 11, 60, 95
4, 128640, Note_off_c, 11, 56, 95
4, 128640, Note_off_c, 11, 51, 95
4, 128640, Note_off_c, 11, 44, 95
4, 128640, Note_on_c, 11, 59, 95
4, 128640, Note_on_c, 11, 55, 95
4, 128640, Note_on_c, 11, 50, 95
4, 128640, Note_on_c, 11, 43, 95
4, 129120, Note_off_c, 11, 59, 95
4, 129120, Note_off_c, 11, 55, 95
4, 129120, Note_off_c, 11, 50, 95
4, 129120, Note_off_c, 11, 43, 95
4, 129120, Note_on_c, 11, 59, 95
4, 129120, Note_on_c, 11, 55, 95
4, 129120, Note_on_c, 11, 50, 95
4, 129120, Note_on_c, 11, 43, 95
4, 129600, Note_off_c, 11, 59, 95
4, 129600, Note_off_c, 11, 55, 95
4, 129600, Note_off_c, 11, 50, 95
4, 129600, Note_off_c, 11, 43, 95
4, 129600, Note_on_c, 11, 61, 95
4, 129600, Note_on_c, 11, 57, 95
4, 129600, Note_on_c, 11, 52, 95
4, 129600, Note_on_c, 11, 45, 95
4, 130080, Note_off_c, 11, 61, 95
4, 130080, Note_off_c, 11, 57, 95
4, 130080, Note_off_c, 11, 52, 95
4, 130080, Note_off_c, 11, 45, 95
4, 130080, Note_on_c, 11, 61, 95
4, 130080, Note_on_c, 11, 57, 95
4, 130080, Note_on_c, 11, 52, 95
4, 130080, Note_on_c, 11, 45, 95
4, 130560, Note_off_c, 11, 61, 95
4, 130560, Note_off_c, 11, 57, 95
4, 130560, Note_off_c, 11, 52, 95
4, 130560, Note_off_c, 11, 45, 95
4, 130560, Note_on_c, 11, 63, 95
4, 130560, Note_on_c, 11, 59, 95
4, 130560, Note_on_c, 11, 54, 95
4, 130560, Note_on_c, 11, 47, 95
4, 131520, Note_off_c, 11, 63, 95
4, 131520, Note_off_c, 11, 59, 95
4, 131520, Note_off_c, 11, 54, 95
4, 131520, Note_off_c, 11, 47, 95
4, 132000, Note_on_c, 11, 61, 95
4, 132000, Note_on_c, 11, 57, 95
4, 132000, Note_on_c, 11, 52, 95
4, 132000, Note_on_c, 11, 45, 95
4, 133440, Note_off_c, 11, 61, 95
4, 133440, Note_off_c, 11, 57, 95
4, 133440, Note_off_c, 11, 52, 95
4, 133440, Note_off_c, 11, 45, 95
4, 133440, Note_on_c, 11, 61, 95
4, 133440, Note_on_c, 11, 57, 95
4, 133440, Note_on_c, 11, 52, 95
4, 133440, Note_on_c, 11, 45, 95
4, 133920, Note_off_c, 11, 61, 95
4, 133920, Note_off_c, 11, 57, 95
4, 133920, Note_off_c, 11, 52, 95
4, 133920, Note_off_c, 11, 45, 95
4, 134400, Note_on_c, 11, 60, 95
4, 134400, Note_on_c, 11, 56, 95
4, 134400, Note_on_c, 11, 51, 95
4, 134400, Note_on_c, 11, 44, 95
4, 134880, Note_off_c, 11, 60, 95
4, 134880, Note_off_c, 11, 56, 95
4, 134880, Note_off_c, 11, 51, 95
4, 134880, Note_off_c, 11, 44, 95
4, 134880, Note_on_c, 11, 60, 95
4, 134880, Note_on_c, 11, 56, 95
4, 134880, Note_on_c, 11, 51, 95
4, 134880, Note_on_c, 11, 44, 95
4, 135360, Note_off_c, 11, 60, 95
4, 135360, Note_off_c, 11, 56, 95
4, 135360, Note_off_c, 11, 51, 95
4, 135360, Note_off_c, 11, 44, 95
4, 135360, Note_on_c, 11, 60, 95
4, 135360, Note_on_c, 11, 56, 95
4, 135360, Note_on_c, 11, 51, 95
4, 135360, Note_on_c, 11, 44, 95
4, 135840, Note_off_c, 11, 60, 95
4, 135840, Note_off_c, 11, 56, 95
4, 135840, Note_off_c, 11, 51, 95
4, 135840, Note_off_c, 11, 44, 95
4, 135840, Note_on_c, 11, 60, 95
4, 135840, Note_on_c, 11, 56, 95
4, 135840, Note_on_c, 11, 51, 95
4, 135840, Note_on_c, 11, 44, 95
4, 136320, Note_off_c, 11, 60, 95
4, 136320, Note_off_c, 11, 56, 95
4, 136320, Note_off_c, 11, 51, 95
4, 136320, Note_off_c, 11, 44, 95
4, 136320, Note_on_c, 11, 59, 95
4, 136320, Note_on_c, 11, 55, 95
4, 136320, Note_on_c, 11, 50, 95
4, 136320, Note_on_c, 11, 43, 95
4, 136800, Note_off_c, 11, 59, 95
4, 136800, Note_off_c, 11, 55, 95
4, 136800, Note_off_c, 11, 50, 95
4, 136800, Note_off_c, 11, 43, 95
4, 136800, Note_on_c, 11, 59, 95
4, 136800, Note_on_c, 11, 55, 95
4, 136800, Note_on_c, 11, 50, 95
4, 136800, Note_on_c, 11, 43, 95
4, 137280, Note_off_c, 11, 59, 95
4, 137280, Note_off_c, 11, 55, 95
4, 137280, Note_off_c, 11, 50, 95
4, 137280, Note_off_c, 11, 43, 95
4, 137280, Note_on_c, 11, 61, 95
4, 137280, Note_on_c, 11, 57, 95
4, 137280, Note_on_c, 11, 52, 95
4, 137280, Note_on_c, 11, 45, 95
4, 137760, Note_off_c, 11, 61, 95
4, 137760, Note_off_c, 11, 57, 95
4, 137760, Note_off_c, 11, 52, 95
4, 137760, Note_off_c, 11, 45, 95
4, 137760, Note_on_c, 11, 61, 95
4, 137760, Note_on_c, 11, 57, 95
4, 137760, Note_on_c, 11, 52, 95
4, 137760, Note_on_c, 11, 45, 95
4, 138240, Note_off_c, 11, 61, 95
4, 138240, Note_off_c, 11, 57, 95
4, 138240, Note_off_c, 11, 52, 95
4, 138240, Note_off_c, 11, 45, 95
4, 138240, Note_on_c, 11, 63, 95
4, 138240, Note_on_c, 11, 59, 95
4, 138240, Note_on_c, 11, 54, 95
4, 138240, Note_on_c, 11, 47, 95
4, 139200, Note_off_c, 11, 63, 95
4, 139200, Note_off_c, 11, 59, 95
4, 139200, Note_off_c, 11, 54, 95
4, 139200, Note_off_c, 11, 47, 95
4, 139680, Note_on_c, 11, 61, 95
4, 139680, Note_on_c, 11, 57, 95
4, 139680, Note_on_c, 11, 52, 95
4, 139680, Note_on_c, 11, 45, 95
4, 141120, Note_off_c, 11, 61, 95
4, 141120, Note_off_c, 11, 57, 95
4, 141120, Note_off_c, 11, 52, 95
4, 141120, Note_off_c, 11, 45, 95
4, 141120, Note_on_c, 11, 61, 95
4, 141120, Note_on_c, 11, 57, 95
4, 141120, Note_on_c, 11, 52, 95
4, 141120, Note_on_c, 11, 45, 95
4, 141600, Note_off_c, 11, 61, 95
4, 141600, Note_off_c, 11, 57, 95
4, 141600, Note_off_c, 11, 52, 95
4, 141600, Note_off_c, 11, 45, 95
4, 142080, Note_on_c, 11, 60, 95
4, 142080, Note_on_c, 11, 56, 95
4, 142080, Note_on_c, 11, 51, 95
4, 142080, Note_on_c, 11, 44, 95
4, 142560, Note_off_c, 11, 60, 95
4, 142560, Note_off_c, 11, 56, 95
4, 142560, Note_off_c, 11, 51, 95
4, 142560, Note_off_c, 11, 44, 95
4, 142560, Note_on_c, 11, 60, 95
4, 142560, Note_on_c, 11, 56, 95
4, 142560, Note_on_c, 11, 51, 95
4, 142560, Note_on_c, 11, 44, 95
4, 143040, Note_off_c, 11, 60, 95
4, 143040, Note_off_c, 11, 56, 95
4, 143040, Note_off_c, 11, 51, 95
4, 143040, Note_off_c, 11, 44, 95
4, 143040, Note_on_c, 11, 60, 95
4, 143040, Note_on_c, 11, 56, 95
4, 143040, Note_on_c, 11, 51, 95
4, 143040, Note_on_c, 11, 44, 95
4, 143520, Note_off_c, 11, 60, 95
4, 143520, Note_off_c, 11, 56, 95
4, 143520, Note_off_c, 11, 51, 95
4, 143520, Note_off_c, 11, 44, 95
4, 143520, Note_on_c, 11, 60, 95
4, 143520, Note_on_c, 11, 56, 95
4, 143520, Note_on_c, 11, 51, 95
4, 143520, Note_on_c, 11, 44, 95
4, 144000, Note_off_c, 11, 60, 95
4, 144000, Note_off_c, 11, 56, 95
4, 144000, Note_off_c, 11, 51, 95
4, 144000, Note_off_c, 11, 44, 95
4, 144000, Note_on_c, 11, 59, 95
4, 144000, Note_on_c, 11, 55, 95
4, 144000, Note_on_c, 11, 50, 95
4, 144000, Note_on_c, 11, 43, 95
4, 144480, Note_off_c, 11, 59, 95
4, 144480, Note_off_c, 11, 55, 95
4, 144480, Note_off_c, 11, 50, 95
4, 144480, Note_off_c, 11, 43, 95
4, 144480, Note_on_c, 11, 59, 95
4, 144480, Note_on_c, 11, 55, 95
4, 144480, Note_on_c, 11, 50, 95
4, 144480, Note_on_c, 11, 43, 95
4, 144960, Note_off_c, 11, 59, 95
4, 144960, Note_off_c, 11, 55, 95
4, 144960, Note_off_c, 11, 50, 95
4, 144960, Note_off_c, 11, 43, 95
4, 144960, Note_on_c, 11, 61, 95
4, 144960, Note_on_c, 11, 57, 95
4, 144960, Note_on_c, 11, 52, 95
4, 144960, Note_on_c, 11, 45, 95
4, 145440, Note_off_c, 11, 61, 95
4, 145440, Note_off_c, 11, 57, 95
4, 145440, Note_off_c, 11, 52, 95
4, 145440, Note_off_c, 11, 45, 95
4, 145440, Note_on_c, 11, 61, 95
4, 145440, Note_on_c, 11, 57, 95
4, 145440, Note_on_c, 11, 52, 95
4, 145440, Note_on_c, 11, 45, 95
4, 145920, Note_off_c, 11, 61, 95
4, 145920, Note_off_c, 11, 57, 95
4, 145920, Note_off_c, 11, 52, 95
4, 145920, Note_off_c, 11, 45, 95
4, 145920, Note_on_c, 11, 47, 95
4, 145924, Note_on_c, 11, 54, 95
4, 145928, Note_on_c, 11, 59, 95
4, 145932, Note_on_c, 11, 63, 95
4, 146400, Note_off_c, 11, 63, 95
4, 146400, Note_off_c, 11, 59, 95
4, 146400, Note_off_c, 11, 54, 95
4, 146400, Note_off_c, 11, 47, 95
4, 146400, Note_on_c, 11, 47, 95
4, 146404, Note_on_c, 11, 54, 95
4, 146408, Note_on_c, 11, 59, 95
4, 146412, Note_on_c, 11, 63, 95
4, 146880, Note_off_c, 11, 63, 95
4, 146880, Note_off_c, 11, 59, 95
4, 146880, Note_off_c, 11, 54, 95
4, 146880, Note_off_c, 11, 47, 95
4, 146880, Note_on_c, 11, 45, 95
4, 146882, Note_on_c, 11, 45, 95
4, 146884, Note_on_c, 11, 50, 95
4, 146886, Note_on_c, 11, 55, 95
4, 146888, Note_on_c, 11, 59, 95
4, 146890, Note_on_c, 11, 64, 95
4, 146922, Note_off_c, 11, 64, 95
4, 146922, Note_off_c, 11, 59, 95
4, 146922, Note_off_c, 11, 55, 95
4, 146922, Note_off_c, 11, 50, 95
4, 146922, Note_off_c, 11, 45, 95
4, 146922, Note_off_c, 11, 45, 95
4, 147120, Note_on_c, 11, 64, 95
4, 147122, Note_on_c, 11, 59, 95
4, 147124, Note_on_c, 11, 55, 95
4, 147126, Note_on_c, 11, 50, 95
4, 147128, Note_on_c, 11, 45, 95
4, 147130, Note_on_c, 11, 40, 95
4, 147162, Note_off_c, 11, 64, 95
4, 147162, Note_off_c, 11, 59, 95
4, 147162, Note_off_c, 11, 55, 95
4, 147162, Note_off_c, 11, 50, 95
4, 147162, Note_off_c, 11, 45, 95
4, 147162, Note_off_c, 11, 40, 95
4, 147360, Note_on_c, 11, 44, 95
4, 147362, Note_on_c, 11, 45, 95
4, 147364, Note_on_c, 11, 50, 95
4, 147366, Note_on_c, 11, 55, 95
4, 147368, Note_on_c, 11, 59, 95
4, 147370, Note_on_c, 11, 64, 95
4, 147402, Note_off_c, 11, 64, 95
4, 147402, Note_off_c, 11, 59, 95
4, 147402, Note_off_c, 11, 55, 95
4, 147402, Note_off_c, 11, 50, 95
4, 147402, Note_off_c, 11, 45, 95
4, 147402, Note_off_c, 11, 44, 95
4, 147600, Note_on_c, 11, 64, 95
4, 147602, Note_on_c, 11, 59, 95
4, 147604, Note_on_c, 11, 55, 95
4, 147606, Note_on_c, 11, 50, 95
4, 147608, Note_on_c, 11, 45, 95
4, 147610, Note_on_c, 11, 40, 95
4, 147642, Note_off_c, 11, 64, 95
4, 147642, Note_off_c, 11, 59, 95
4, 147642, Note_off_c, 11, 55, 95
4, 147642, Note_off_c, 11, 50, 95
4, 147642, Note_off_c, 11, 45, 95
4, 147642, Note_off_c, 11, 40, 95
4, 147840, Note_on_c, 11, 45, 95
4, 147844, Note_on_c, 11, 50, 95
4, 147848, Note_on_c, 11, 57, 95
4, 147852, Note_on_c, 11, 62, 95
4, 148320, Note_off_c, 11, 62, 95
4, 148320, Note_off_c, 11, 57, 95
4, 148320, Note_off_c, 11, 50, 95
4, 148320, Note_off_c, 11, 45, 95
4, 148320, Note_on_c, 11, 45, 95
4, 148324, Note_on_c, 11, 50, 95
4, 148328, Note_on_c, 11, 57, 95
4, 148332, Note_on_c, 11, 62, 95
4, 148800, Note_off_c, 11, 62, 95
4, 148800, Note_off_c, 11, 57, 95
4, 148800, Note_off_c, 11, 50, 95
4, 148800, Note_off_c, 11, 45, 95
4, 148800, Note_on_c, 11, 40, 95
4, 148802, Note_on_c, 11, 45, 95
4, 148804, Note_on_c, 11, 50, 95
4, 148806, Note_on_c, 11, 55, 95
4, 148808, Note_on_c, 11, 59, 95
4, 148810, Note_on_c, 11, 64, 95
4, 148842, Note_off_c, 11, 64, 95
4, 148842, Note_off_c, 11, 59, 95
4, 148842, Note_off_c, 11, 55, 95
4, 148842, Note_off_c, 11, 50, 95
4, 148842, Note_off_c, 11, 45, 95
4, 148842, Note_off_c, 11, 40, 95
4, 149040, Note_on_c, 11, 64, 95
4, 149042, Note_on_c, 11, 59, 95
4, 149044, Note_on_c, 11, 55, 95
4, 149046, Note_on_c, 11, 50, 95
4, 149048, Note_on_c, 11, 45, 95
4, 149050, Note_on_c, 11, 40, 95
4, 149082, Note_off_c, 11, 64, 95
4, 149082, Note_off_c, 11, 59, 95
4, 149082, Note_off_c, 11, 55, 95
4, 149082, Note_off_c, 11, 50, 95
4, 149082, Note_off_c, 11, 45, 95
4, 149082, Note_off_c, 11, 40, 95
4, 149280, Note_on_c, 11, 40, 95
4, 149282, Note_on_c, 11, 45, 95
4, 149284, Note_on_c, 11, 50, 95
4, 149286, Note_on_c, 11, 55, 95
4, 149288, Note_on_c, 11, 59, 95
4, 149290, Note_on_c, 11, 64, 95
4, 149322, Note_off_c, 11, 64, 95
4, 149322, Note_off_c, 11, 59, 95
4, 149322, Note_off_c, 11, 55, 95
4, 149322, Note_off_c, 11, 50, 95
4, 149322, Note_off_c, 11, 45, 95
4, 149322, Note_off_c, 11, 40, 95
4, 149520, Note_on_c, 11, 64, 95
4, 149522, Note_on_c, 11, 59, 95
4, 149524, Note_on_c, 11, 55, 95
4, 149526, Note_on_c, 11, 50, 95
4, 149528, Note_on_c, 11, 45, 95
4, 149530, Note_on_c, 11, 40, 95
4, 149562, Note_off_c, 11, 64, 95
4, 149562, Note_off_c, 11, 59, 95
4, 149562, Note_off_c, 11, 55, 95
4, 149562, Note_off_c, 11, 50, 95
4, 149562, Note_off_c, 11, 45, 95
4, 149562, Note_off_c, 11, 40, 95
4, 149760, Note_on_c, 11, 47, 95
4, 149764, Note_on_c, 11, 52, 95
4, 149768, Note_on_c, 11, 59, 95
4, 149772, Note_on_c, 11, 64, 95
4, 150240, Note_off_c, 11, 64, 95
4, 150240, Note_off_c, 11, 59, 95
4, 150240, Note_off_c, 11, 52, 95
4, 150240, Note_off_c, 11, 47, 95
4, 150240, Note_on_c, 11, 47, 95
4, 150244, Note_on_c, 11, 52, 95
4, 150248, Note_on_c, 11, 59, 95
4, 150252, Note_on_c, 11, 64, 95
4, 150720, Note_off_c, 11, 64, 95
4, 150720, Note_off_c, 11, 59, 95
4, 150720, Note_off_c, 11, 52, 95
4, 150720, Note_off_c, 11, 47, 95
4, 150720, Note_on_c, 11, 45, 95
4, 150722, Note_on_c, 11, 45, 95
4, 150724, Note_on_c, 11, 50, 95
4, 150726, Note_on_c, 11, 55, 95
4, 150728, Note_on_c, 11, 59, 95
4, 150730, Note_on_c, 11, 64, 95
4, 150762, Note_off_c, 11, 64, 95
4, 150762, Note_off_c, 11, 59, 95
4, 150762, Note_off_c, 11, 55, 95
4, 150762, Note_off_c, 11, 50, 95
4, 150762, Note_off_c, 11, 45, 95
4, 150762, Note_off_c, 11, 45, 95
4, 150960, Note_on_c, 11, 64, 95
4, 150962, Note_on_c, 11, 59, 95
4, 150964, Note_on_c, 11, 55, 95
4, 150966, Note_on_c, 11, 50, 95
4, 150968, Note_on_c, 11, 45, 95
4, 150970, Note_on_c, 11, 40, 95
4, 151002, Note_off_c, 11, 64, 95
4, 151002, Note_off_c, 11, 59, 95
4, 151002, Note_off_c, 11, 55, 95
4, 151002, Note_off_c, 11, 50, 95
4, 151002, Note_off_c, 11, 45, 95
4, 151002, Note_off_c, 11, 40, 95
4, 151200, Note_on_c, 11, 44, 95
4, 151202, Note_on_c, 11, 45, 95
4, 151204, Note_on_c, 11, 50, 95
4, 151206, Note_on_c, 11, 55, 95
4, 151208, Note_on_c, 11, 59, 95
4, 151210, Note_on_c, 11, 64, 95
4, 151242, Note_off_c, 11, 64, 95
4, 151242, Note_off_c, 11, 59, 95
4, 151242, Note_off_c, 11, 55, 95
4, 151242, Note_off_c, 11, 50, 95
4, 151242, Note_off_c, 11, 45, 95
4, 151242, Note_off_c, 11, 44, 95
4, 151440, Note_on_c, 11, 64, 95
4, 151442, Note_on_c, 11, 59, 95
4, 151444, Note_on_c, 11, 55, 95
4, 151446, Note_on_c, 11, 50, 95
4, 151448, Note_on_c, 11, 45, 95
4, 151450, Note_on_c, 11, 40, 95
4, 151482, Note_off_c, 11, 64, 95
4, 151482, Note_off_c, 11, 59, 95
4, 151482, Note_off_c, 11, 55, 95
4, 151482, Note_off_c, 11, 50, 95
4, 151482, Note_off_c, 11, 45, 95
4, 151482, Note_off_c, 11, 40, 95
4, 151680, Note_on_c, 11, 45, 95
4, 151682, Note_on_c, 11, 50, 95
4, 151684, Note_on_c, 11, 57, 95
4, 151686, Note_on_c, 11, 62, 95
4, 151920, Note_off_c, 11, 62, 95
4, 151920, Note_off_c, 11, 57, 95
4, 151920, Note_off_c, 11, 50, 95
4, 151920, Note_off_c, 11, 45, 95
4, 152160, Note_on_c, 11, 45, 95
4, 152162, Note_on_c, 11, 50, 95
4, 152164, Note_on_c, 11, 57, 95
4, 152166, Note_on_c, 11, 62, 95
4, 152168, Note_on_c, 11, 66, 95
4, 152170, Note_on_c, 11, 69, 95
4, 152202, Note_off_c, 11, 69, 95
4, 152202, Note_off_c, 11, 66, 95
4, 152202, Note_off_c, 11, 62, 95
4, 152202, Note_off_c, 11, 57, 95
4, 152202, Note_off_c, 11, 50, 95
4, 152202, Note_off_c, 11, 45, 95
4, 152400, Note_on_c, 11, 62, 95
4, 152402, Note_on_c, 11, 57, 95
4, 152404, Note_on_c, 11, 50, 95
4, 152406, Note_on_c, 11, 45, 95
4, 152640, Note_off_c, 11, 62, 95
4, 152640, Note_off_c, 11, 57, 95
4, 152640, Note_off_c, 11, 50, 95
4, 152640, Note_off_c, 11, 45, 95
4, 152880, Note_on_c, 11, 64, 95
4, 152882, Note_on_c, 11, 59, 95
4, 152884, Note_on_c, 11, 52, 95
4, 152886, Note_on_c, 11, 47, 95
4, 153120, Note_off_c, 11, 64, 95
4, 153120, Note_off_c, 11, 59, 95
4, 153120, Note_off_c, 11, 52, 95
4, 153120, Note_off_c, 11, 47, 95
4, 153120, Note_on_c, 11, 47, 95
4, 153122, Note_on_c, 11, 52, 95
4, 153124, Note_on_c, 11, 59, 95
4, 153126, Note_on_c, 11, 64, 95
4, 153360, Note_off_c, 11, 64, 95
4, 153360, Note_off_c, 11, 59, 95
4, 153360, Note_off_c, 11, 52, 95
4, 153360, Note_off_c, 11, 47, 95
4, 153600, Note_on_c, 11, 47, 95
4, 153604, Note_on_c, 11, 54, 95
4, 153608, Note_on_c, 11, 59, 95
4, 153612, Note_on_c, 11, 63, 95
4, 154080, Note_off_c, 11, 63, 95
4, 154080, Note_off_c, 11, 59, 95
4, 154080, Note_off_c, 11, 54, 95
4, 154080, Note_off_c, 11, 47, 95
4, 154080, Note_on_c, 11, 47, 95
4, 154084, Note_on_c, 11, 54, 95
4, 154088, Note_on_c, 11, 59, 95
4, 154092, Note_on_c, 11, 63, 95
4, 154560, Note_off_c, 11, 63, 95
4, 154560, Note_off_c, 11, 59, 95
4, 154560, Note_off_c, 11, 54, 95
4, 154560, Note_off_c, 11, 47, 95
4, 154560, Note_on_c, 11, 45, 95
4, 154562, Note_on_c, 11, 45, 95
4, 154564, Note_on_c, 11, 50, 95
4, 154566, Note_on_c, 11, 55, 95
4, 154568, Note_on_c, 11, 59, 95
4, 154570, Note_on_c, 11, 64, 95
4, 154602, Note_off_c, 11, 64, 95
4, 154602, Note_off_c, 11, 59, 95
4, 154602, Note_off_c, 11, 55, 95
4, 154602, Note_off_c, 11, 50, 95
4, 154602, Note_off_c, 11, 45, 95
4, 154602, Note_off_c, 11, 45, 95
4, 154800, Note_on_c, 11, 64, 95
4, 154802, Note_on_c, 11, 59, 95
4, 154804, Note_on_c, 11, 55, 95
4, 154806, Note_on_c, 11, 50, 95
4, 154808, Note_on_c, 11, 45, 95
4, 154810, Note_on_c, 11, 40, 95
4, 154842, Note_off_c, 11, 64, 95
4, 154842, Note_off_c, 11, 59, 95
4, 154842, Note_off_c, 11, 55, 95
4, 154842, Note_off_c, 11, 50, 95
4, 154842, Note_off_c, 11, 45, 95
4, 154842, Note_off_c, 11, 40, 95
4, 155040, Note_on_c, 11, 44, 95
4, 155042, Note_on_c, 11, 45, 95
4, 155044, Note_on_c, 11, 50, 95
4, 155046, Note_on_c, 11, 55, 95
4, 155048, Note_on_c, 11, 59, 95
4, 155050, Note_on_c, 11, 64, 95
4, 155082, Note_off_c, 11, 64, 95
4, 155082, Note_off_c, 11, 59, 95
4, 155082, Note_off_c, 11, 55, 95
4, 155082, Note_off_c, 11, 50, 95
4, 155082, Note_off_c, 11, 45, 95
4, 155082, Note_off_c, 11, 44, 95
4, 155280, Note_on_c, 11, 64, 95
4, 155282, Note_on_c, 11, 59, 95
4, 155284, Note_on_c, 11, 55, 95
4, 155286, Note_on_c, 11, 50, 95
4, 155288, Note_on_c, 11, 45, 95
4, 155290, Note_on_c, 11, 40, 95
4, 155322, Note_off_c, 11, 64, 95
4, 155322, Note_off_c, 11, 59, 95
4, 155322, Note_off_c, 11, 55, 95
4, 155322, Note_off_c, 11, 50, 95
4, 155322, Note_off_c, 11, 45, 95
4, 155322, Note_off_c, 11, 40, 95
4, 155520, Note_on_c, 11, 45, 95
4, 155524, Note_on_c, 11, 50, 95
4, 155528, Note_on_c, 11, 57, 95
4, 155532, Note_on_c, 11, 62, 95
4, 156000, Note_off_c, 11, 62, 95
4, 156000, Note_off_c, 11, 57, 95
4, 156000, Note_off_c, 11, 50, 95
4, 156000, Note_off_c, 11, 45, 95
4, 156000, Note_on_c, 11, 45, 95
4, 156004, Note_on_c, 11, 50, 95
4, 156008, Note_on_c, 11, 57, 95
4, 156012, Note_on_c, 11, 62, 95
4, 156480, Note_off_c, 11, 62, 95
4, 156480, Note_off_c, 11, 57, 95
4, 156480, Note_off_c, 11, 50, 95
4, 156480, Note_off_c, 11, 45, 95
4, 156480, Note_on_c, 11, 40, 95
4, 156482, Note_on_c, 11, 45, 95
4, 156484, Note_on_c, 11, 50, 95
4, 156486, Note_on_c, 11, 55, 95
4, 156488, Note_on_c, 11, 59, 95
4, 156490, Note_on_c, 11, 64, 95
4, 156522, Note_off_c, 11, 64, 95
4, 156522, Note_off_c, 11, 59, 95
4, 156522, Note_off_c, 11, 55, 95
4, 156522, Note_off_c, 11, 50, 95
4, 156522, Note_off_c, 11, 45, 95
4, 156522, Note_off_c, 11, 40, 95
4, 156720, Note_on_c, 11, 64, 95
4, 156722, Note_on_c, 11, 59, 95
4, 156724, Note_on_c, 11, 55, 95
4, 156726, Note_on_c, 11, 50, 95
4, 156728, Note_on_c, 11, 45, 95
4, 156730, Note_on_c, 11, 40, 95
4, 156762, Note_off_c, 11, 64, 95
4, 156762, Note_off_c, 11, 59, 95
4, 156762, Note_off_c, 11, 55, 95
4, 156762, Note_off_c, 11, 50, 95
4, 156762, Note_off_c, 11, 45, 95
4, 156762, Note_off_c, 11, 40, 95
4, 156960, Note_on_c, 11, 40, 95
4, 156962, Note_on_c, 11, 45, 95
4, 156964, Note_on_c, 11, 50, 95
4, 156966, Note_on_c, 11, 55, 95
4, 156968, Note_on_c, 11, 59, 95
4, 156970, Note_on_c, 11, 64, 95
4, 157002, Note_off_c, 11, 64, 95
4, 157002, Note_off_c, 11, 59, 95
4, 157002, Note_off_c, 11, 55, 95
4, 157002, Note_off_c, 11, 50, 95
4, 157002, Note_off_c, 11, 45, 95
4, 157002, Note_off_c, 11, 40, 95
4, 157200, Note_on_c, 11, 64, 95
4, 157202, Note_on_c, 11, 59, 95
4, 157204, Note_on_c, 11, 55, 95
4, 157206, Note_on_c, 11, 50, 95
4, 157208, Note_on_c, 11, 45, 95
4, 157210, Note_on_c, 11, 40, 95
4, 157242, Note_off_c, 11, 64, 95
4, 157242, Note_off_c, 11, 59, 95
4, 157242, Note_off_c, 11, 55, 95
4, 157242, Note_off_c, 11, 50, 95
4, 157242, Note_off_c, 11, 45, 95
4, 157242, Note_off_c, 11, 40, 95
4, 157440, Note_on_c, 11, 47, 95
4, 157444, Note_on_c, 11, 52, 95
4, 157448, Note_on_c, 11, 59, 95
4, 157452, Note_on_c, 11, 64, 95
4, 157920, Note_off_c, 11, 64, 95
4, 157920, Note_off_c, 11, 59, 95
4, 157920, Note_off_c, 11, 52, 95
4, 157920, Note_off_c, 11, 47, 95
4, 157920, Note_on_c, 11, 47, 95
4, 157924, Note_on_c, 11, 52, 95
4, 157928, Note_on_c, 11, 59, 95
4, 157932, Note_on_c, 11, 64, 95
4, 158400, Note_off_c, 11, 64, 95
4, 158400, Note_off_c, 11, 59, 95
4, 158400, Note_off_c, 11, 52, 95
4, 158400, Note_off_c, 11, 47, 95
4, 158400, Note_on_c, 11, 45, 95
4, 158402, Note_on_c, 11, 45, 95
4, 158404, Note_on_c, 11, 50, 95
4, 158406, Note_on_c, 11, 55, 95
4, 158408, Note_on_c, 11, 59, 95
4, 158410, Note_on_c, 11, 64, 95
4, 158442, Note_off_c, 11, 64, 95
4, 158442, Note_off_c, 11, 59, 95
4, 158442, Note_off_c, 11, 55, 95
4, 158442, Note_off_c, 11, 50, 95
4, 158442, Note_off_c, 11, 45, 95
4, 158442, Note_off_c, 11, 45, 95
4, 158640, Note_on_c, 11, 64, 95
4, 158642, Note_on_c, 11, 59, 95
4, 158644, Note_on_c, 11, 55, 95
4, 158646, Note_on_c, 11, 50, 95
4, 158648, Note_on_c, 11, 45, 95
4, 158650, Note_on_c, 11, 40, 95
4, 158682, Note_off_c, 11, 64, 95
4, 158682, Note_off_c, 11, 59, 95
4, 158682, Note_off_c, 11, 55, 95
4, 158682, Note_off_c, 11, 50, 95
4, 158682, Note_off_c, 11, 45, 95
4, 158682, Note_off_c, 11, 40, 95
4, 158880, Note_on_c, 11, 44, 95
4, 158882, Note_on_c, 11, 45, 95
4, 158884, Note_on_c, 11, 50, 95
4, 158886, Note_on_c, 11, 55, 95
4, 158888, Note_on_c, 11, 59, 95
4, 158890, Note_on_c, 11, 64, 95
4, 158922, Note_off_c, 11, 64, 95
4, 158922, Note_off_c, 11, 59, 95
4, 158922, Note_off_c, 11, 55, 95
4, 158922, Note_off_c, 11, 50, 95
4, 158922, Note_off_c, 11, 45, 95
4, 158922, Note_off_c, 11, 44, 95
4, 159120, Note_on_c, 11, 64, 95
4, 159122, Note_on_c, 11, 59, 95
4, 159124, Note_on_c, 11, 55, 95
4, 159126, Note_on_c, 11, 50, 95
4, 159128, Note_on_c, 11, 45, 95
4, 159130, Note_on_c, 11, 40, 95
4, 159162, Note_off_c, 11, 64, 95
4, 159162, Note_off_c, 11, 59, 95
4, 159162, Note_off_c, 11, 55, 95
4, 159162, Note_off_c, 11, 50, 95
4, 159162, Note_off_c, 11, 45, 95
4, 159162, Note_off_c, 11, 40, 95
4, 159360, Note_on_c, 11, 45, 95
4, 159362, Note_on_c, 11, 50, 95
4, 159364, Note_on_c, 11, 57, 95
4, 159366, Note_on_c, 11, 62, 95
4, 159600, Note_off_c, 11, 62, 95
4, 159600, Note_off_c, 11, 57, 95
4, 159600, Note_off_c, 11, 50, 95
4, 159600, Note_off_c, 11, 45, 95
4, 159840, Note_on_c, 11, 45, 95
4, 159842, Note_on_c, 11, 50, 95
4, 159844, Note_on_c, 11, 57, 95
4, 159846, Note_on_c, 11, 62, 95
4, 159848, Note_on_c, 11, 66, 95
4, 159850, Note_on_c, 11, 69, 95
4, 159882, Note_off_c, 11, 69, 95
4, 159882, Note_off_c, 11, 66, 95
4, 159882, Note_off_c, 11, 62, 95
4, 159882, Note_off_c, 11, 57, 95
4, 159882, Note_off_c, 11, 50, 95
4, 159882, Note_off_c, 11, 45, 95
4, 160080, Note_on_c, 11, 62, 95
4, 160082, Note_on_c, 11, 57, 95
4, 160084, Note_on_c, 11, 50, 95
4, 160086, Note_on_c, 11, 45, 95
4, 160320, Note_off_c, 11, 62, 95
4, 160320, Note_off_c, 11, 57, 95
4, 160320, Note_off_c, 11, 50, 95
4, 160320, Note_off_c, 11, 45, 95
4, 160560, Note_on_c, 11, 64, 95
4, 160562, Note_on_c, 11, 59, 95
4, 160564, Note_on_c, 11, 52, 95
4, 160566, Note_on_c, 11, 47, 95
4, 160800, Note_off_c, 11, 64, 95
4, 160800, Note_off_c, 11, 59, 95
4, 160800, Note_off_c, 11, 52, 95
4, 160800, Note_off_c, 11, 47, 95
4, 160800, Note_on_c, 11, 47, 95
4, 160802, Note_on_c, 11, 52, 95
4, 160804, Note_on_c, 11, 59, 95
4, 160806, Note_on_c, 11, 64, 95
4, 161040, Note_off_c, 11, 64, 95
4, 161040, Note_off_c, 11, 59, 95
4, 161040, Note_off_c, 11, 52, 95
4, 161040, Note_off_c, 11, 47, 95
4, 161280, Note_on_c, 11, 47, 95
4, 161284, Note_on_c, 11, 54, 95
4, 161288, Note_on_c, 11, 59, 95
4, 161292, Note_on_c, 11, 63, 95
4, 161760, Note_off_c, 11, 63, 95
4, 161760, Note_off_c, 11, 59, 95
4, 161760, Note_off_c, 11, 54, 95
4, 161760, Note_off_c, 11, 47, 95
4, 161760, Note_on_c, 11, 47, 95
4, 161764, Note_on_c, 11, 54, 95
4, 161768, Note_on_c, 11, 59, 95
4, 161772, Note_on_c, 11, 63, 95
4, 162240, Note_off_c, 11, 63, 95
4, 162240, Note_off_c, 11, 59, 95
4, 162240, Note_off_c, 11, 54, 95
4, 162240, Note_off_c, 11, 47, 95
4, 162240, Note_on_c, 11, 45, 95
4, 162242, Note_on_c, 11, 45, 95
4, 162244, Note_on_c, 11, 50, 95
4, 162246, Note_on_c, 11, 55, 95
4, 162248, Note_on_c, 11, 59, 95
4, 162250, Note_on_c, 11, 64, 95
4, 162282, Note_off_c, 11, 64, 95
4, 162282, Note_off_c, 11, 59, 95
4, 162282, Note_off_c, 11, 55, 95
4, 162282, Note_off_c, 11, 50, 95
4, 162282, Note_off_c, 11, 45, 95
4, 162282, Note_off_c, 11, 45, 95
4, 162480, Note_on_c, 11, 64, 95
4, 162482, Note_on_c, 11, 59, 95
4, 162484, Note_on_c, 11, 55, 95
4, 162486, Note_on_c, 11, 50, 95
4, 162488, Note_on_c, 11, 45, 95
4, 162490, Note_on_c, 11, 40, 95
4, 162522, Note_off_c, 11, 64, 95
4, 162522, Note_off_c, 11, 59, 95
4, 162522, Note_off_c, 11, 55, 95
4, 162522, Note_off_c, 11, 50, 95
4, 162522, Note_off_c, 11, 45, 95
4, 162522, Note_off_c, 11, 40, 95
4, 162720, Note_on_c, 11, 44, 95
4, 162722, Note_on_c, 11, 45, 95
4, 162724, Note_on_c, 11, 50, 95
4, 162726, Note_on_c, 11, 55, 95
4, 162728, Note_on_c, 11, 59, 95
4, 162730, Note_on_c, 11, 64, 95
4, 162762, Note_off_c, 11, 64, 95
4, 162762, Note_off_c, 11, 59, 95
4, 162762, Note_off_c, 11, 55, 95
4, 162762, Note_off_c, 11, 50, 95
4, 162762, Note_off_c, 11, 45, 95
4, 162762, Note_off_c, 11, 44, 95
4, 162960, Note_on_c, 11, 64, 95
4, 162962, Note_on_c, 11, 59, 95
4, 162964, Note_on_c, 11, 55, 95
4, 162966, Note_on_c, 11, 50, 95
4, 162968, Note_on_c, 11, 45, 95
4, 162970, Note_on_c, 11, 40, 95
4, 163002, Note_off_c, 11, 64, 95
4, 163002, Note_off_c, 11, 59, 95
4, 163002, Note_off_c, 11, 55, 95
4, 163002, Note_off_c, 11, 50, 95
4, 163002, Note_off_c, 11, 45, 95
4, 163002, Note_off_c, 11, 40, 95
4, 163200, Note_on_c, 11, 45, 95
4, 163204, Note_on_c, 11, 50, 95
4, 163208, Note_on_c, 11, 57, 95
4, 163212, Note_on_c, 11, 62, 95
4, 163680, Note_off_c, 11, 62, 95
4, 163680, Note_off_c, 11, 57, 95
4, 163680, Note_off_c, 11, 50, 95
4, 163680, Note_off_c, 11, 45, 95
4, 163680, Note_on_c, 11, 45, 95
4, 163684, Note_on_c, 11, 50, 95
4, 163688, Note_on_c, 11, 57, 95
4, 163692, Note_on_c, 11, 62, 95
4, 164160, Note_off_c, 11, 62, 95
4, 164160, Note_off_c, 11, 57, 95
4, 164160, Note_off_c, 11, 50, 95
4, 164160, Note_off_c, 11, 45, 95
4, 164160, Note_on_c, 11, 40, 95
4, 164162, Note_on_c, 11, 45, 95
4, 164164, Note_on_c, 11, 50, 95
4, 164166, Note_on_c, 11, 55, 95
4, 164168, Note_on_c, 11, 59, 95
4, 164170, Note_on_c, 11, 64, 95
4, 164202, Note_off_c, 11, 64, 95
4, 164202, Note_off_c, 11, 59, 95
4, 164202, Note_off_c, 11, 55, 95
4, 164202, Note_off_c, 11, 50, 95
4, 164202, Note_off_c, 11, 45, 95
4, 164202, Note_off_c, 11, 40, 95
4, 164400, Note_on_c, 11, 64, 95
4, 164402, Note_on_c, 11, 59, 95
4, 164404, Note_on_c, 11, 55, 95
4, 164406, Note_on_c, 11, 50, 95
4, 164408, Note_on_c, 11, 45, 95
4, 164410, Note_on_c, 11, 40, 95
4, 164442, Note_off_c, 11, 64, 95
4, 164442, Note_off_c, 11, 59, 95
4, 164442, Note_off_c, 11, 55, 95
4, 164442, Note_off_c, 11, 50, 95
4, 164442, Note_off_c, 11, 45, 95
4, 164442, Note_off_c, 11, 40, 95
4, 164640, Note_on_c, 11, 40, 95
4, 164642, Note_on_c, 11, 45, 95
4, 164644, Note_on_c, 11, 50, 95
4, 164646, Note_on_c, 11, 55, 95
4, 164648, Note_on_c, 11, 59, 95
4, 164650, Note_on_c, 11, 64, 95
4, 164682, Note_off_c, 11, 64, 95
4, 164682, Note_off_c, 11, 59, 95
4, 164682, Note_off_c, 11, 55, 95
4, 164682, Note_off_c, 11, 50, 95
4, 164682, Note_off_c, 11, 45, 95
4, 164682, Note_off_c, 11, 40, 95
4, 164880, Note_on_c, 11, 64, 95
4, 164882, Note_on_c, 11, 59, 95
4, 164884, Note_on_c, 11, 55, 95
4, 164886, Note_on_c, 11, 50, 95
4, 164888, Note_on_c, 11, 45, 95
4, 164890, Note_on_c, 11, 40, 95
4, 164922, Note_off_c, 11, 64, 95
4, 164922, Note_off_c, 11, 59, 95
4, 164922, Note_off_c, 11, 55, 95
4, 164922, Note_off_c, 11, 50, 95
4, 164922, Note_off_c, 11, 45, 95
4, 164922, Note_off_c, 11, 40, 95
4, 165120, Note_on_c, 11, 47, 95
4, 165124, Note_on_c, 11, 52, 95
4, 165128, Note_on_c, 11, 59, 95
4, 165132, Note_on_c, 11, 64, 95
4, 165600, Note_off_c, 11, 64, 95
4, 165600, Note_off_c, 11, 59, 95
4, 165600, Note_off_c, 11, 52, 95
4, 165600, Note_off_c, 11, 47, 95
4, 165600, Note_on_c, 11, 47, 95
4, 165604, Note_on_c, 11, 52, 95
4, 165608, Note_on_c, 11, 59, 95
4, 165612, Note_on_c, 11, 64, 95
4, 166080, Note_off_c, 11, 64, 95
4, 166080, Note_off_c, 11, 59, 95
4, 166080, Note_off_c, 11, 52, 95
4, 166080, Note_off_c, 11, 47, 95
4, 166080, Note_on_c, 11, 45, 95
4, 166082, Note_on_c, 11, 45, 95
4, 166084, Note_on_c, 11, 50, 95
4, 166086, Note_on_c, 11, 55, 95
4, 166088, Note_on_c, 11, 59, 95
4, 166090, Note_on_c, 11, 64, 95
4, 166122, Note_off_c, 11, 64, 95
4, 166122, Note_off_c, 11, 59, 95
4, 166122, Note_off_c, 11, 55, 95
4, 166122, Note_off_c, 11, 50, 95
4, 166122, Note_off_c, 11, 45, 95
4, 166122, Note_off_c, 11, 45, 95
4, 166320, Note_on_c, 11, 64, 95
4, 166322, Note_on_c, 11, 59, 95
4, 166324, Note_on_c, 11, 55, 95
4, 166326, Note_on_c, 11, 50, 95
4, 166328, Note_on_c, 11, 45, 95
4, 166330, Note_on_c, 11, 40, 95
4, 166362, Note_off_c, 11, 64, 95
4, 166362, Note_off_c, 11, 59, 95
4, 166362, Note_off_c, 11, 55, 95
4, 166362, Note_off_c, 11, 50, 95
4, 166362, Note_off_c, 11, 45, 95
4, 166362, Note_off_c, 11, 40, 95
4, 166560, Note_on_c, 11, 44, 95
4, 166562, Note_on_c, 11, 45, 95
4, 166564, Note_on_c, 11, 50, 95
4, 166566, Note_on_c, 11, 55, 95
4, 166568, Note_on_c, 11, 59, 95
4, 166570, Note_on_c, 11, 64, 95
4, 166602, Note_off_c, 11, 64, 95
4, 166602, Note_off_c, 11, 59, 95
4, 166602, Note_off_c, 11, 55, 95
4, 166602, Note_off_c, 11, 50, 95
4, 166602, Note_off_c, 11, 45, 95
4, 166602, Note_off_c, 11, 44, 95
4, 166800, Note_on_c, 11, 64, 95
4, 166802, Note_on_c, 11, 59, 95
4, 166804, Note_on_c, 11, 55, 95
4, 166806, Note_on_c, 11, 50, 95
4, 166808, Note_on_c, 11, 45, 95
4, 166810, Note_on_c, 11, 40, 95
4, 166842, Note_off_c, 11, 64, 95
4, 166842, Note_off_c, 11, 59, 95
4, 166842, Note_off_c, 11, 55, 95
4, 166842, Note_off_c, 11, 50, 95
4, 166842, Note_off_c, 11, 45, 95
4, 166842, Note_off_c, 11, 40, 95
4, 167040, Note_on_c, 11, 45, 95
4, 167042, Note_on_c, 11, 50, 95
4, 167044, Note_on_c, 11, 57, 95
4, 167046, Note_on_c, 11, 62, 95
4, 167280, Note_off_c, 11, 62, 95
4, 167280, Note_off_c, 11, 57, 95
4, 167280, Note_off_c, 11, 50, 95
4, 167280, Note_off_c, 11, 45, 95
4, 167520, Note_on_c, 11, 45, 95
4, 167522, Note_on_c, 11, 50, 95
4, 167524, Note_on_c, 11, 57, 95
4, 167526, Note_on_c, 11, 62, 95
4, 167528, Note_on_c, 11, 66, 95
4, 167530, Note_on_c, 11, 69, 95
4, 167562, Note_off_c, 11, 69, 95
4, 167562, Note_off_c, 11, 66, 95
4, 167562, Note_off_c, 11, 62, 95
4, 167562, Note_off_c, 11, 57, 95
4, 167562, Note_off_c, 11, 50, 95
4, 167562, Note_off_c, 11, 45, 95
4, 167760, Note_on_c, 11, 62, 95
4, 167762, Note_on_c, 11, 57, 95
4, 167764, Note_on_c, 11, 50, 95
4, 167766, Note_on_c, 11, 45, 95
4, 168000, Note_off_c, 11, 62, 95
4, 168000, Note_off_c, 11, 57, 95
4, 168000, Note_off_c, 11, 50, 95
4, 168000, Note_off_c, 11, 45, 95
4, 168240, Note_on_c, 11, 64, 95
4, 168242, Note_on_c, 11, 59, 95
4, 168244, Note_on_c, 11, 52, 95
4, 168246, Note_on_c, 11, 47, 95
4, 168480, Note_off_c, 11, 64, 95
4, 168480, Note_off_c, 11, 59, 95
4, 168480, Note_off_c, 11, 52, 95
4, 168480, Note_off_c, 11, 47, 95
4, 168480, Note_on_c, 11, 47, 95
4, 168482, Note_on_c, 11, 52, 95
4, 168484, Note_on_c, 11, 59, 95
4, 168486, Note_on_c, 11, 64, 95
4, 168720, Note_off_c, 11, 64, 95
4, 168720, Note_off_c, 11, 59, 95
4, 168720, Note_off_c, 11, 52, 95
4, 168720, Note_off_c, 11, 47, 95
4, 168960, Note_on_c, 11, 47, 95
4, 168964, Note_on_c, 11, 54, 95
4, 168968, Note_on_c, 11, 59, 95
4, 168972, Note_on_c, 11, 63, 95
4, 169440, Note_off_c, 11, 63, 95
4, 169440, Note_off_c, 11, 59, 95
4, 169440, Note_off_c, 11, 54, 95
4, 169440, Note_off_c, 11, 47, 95
4, 169440, Note_on_c, 11, 47, 95
4, 169444, Note_on_c, 11, 54, 95
4, 169448, Note_on_c, 11, 59, 95
4, 169452, Note_on_c, 11, 63, 95
4, 169920, Note_off_c, 11, 63, 95
4, 169920, Note_off_c, 11, 59, 95
4, 169920, Note_off_c, 11, 54, 95
4, 169920, Note_off_c, 11, 47, 95
4, 169920, Note_on_c, 11, 45, 95
4, 169922, Note_on_c, 11, 45, 95
4, 169924, Note_on_c, 11, 50, 95
4, 169926, Note_on_c, 11, 55, 95
4, 169928, Note_on_c, 11, 59, 95
4, 169930, Note_on_c, 11, 64, 95
4, 169962, Note_off_c, 11, 64, 95
4, 169962, Note_off_c, 11, 59, 95
4, 169962, Note_off_c, 11, 55, 95
4, 169962, Note_off_c, 11, 50, 95
4, 169962, Note_off_c, 11, 45, 95
4, 169962, Note_off_c, 11, 45, 95
4, 170160, Note_on_c, 11, 64, 95
4, 170162, Note_on_c, 11, 59, 95
4, 170164, Note_on_c, 11, 55, 95
4, 170166, Note_on_c, 11, 50, 95
4, 170168, Note_on_c, 11, 45, 95
4, 170170, Note_on_c, 11, 40, 95
4, 170202, Note_off_c, 11, 64, 95
4, 170202, Note_off_c, 11, 59, 95
4, 170202, Note_off_c, 11, 55, 95
4, 170202, Note_off_c, 11, 50, 95
4, 170202, Note_off_c, 11, 45, 95
4, 170202, Note_off_c, 11, 40, 95
4, 170400, Note_on_c, 11, 44, 95
4, 170402, Note_on_c, 11, 45, 95
4, 170404, Note_on_c, 11, 50, 95
4, 170406, Note_on_c, 11, 55, 95
4, 170408, Note_on_c, 11, 59, 95
4, 170410, Note_on_c, 11, 64, 95
4, 170442, Note_off_c, 11, 64, 95
4, 170442, Note_off_c, 11, 59, 95
4, 170442, Note_off_c, 11, 55, 95
4, 170442, Note_off_c, 11, 50, 95
4, 170442, Note_off_c, 11, 45, 95
4, 170442, Note_off_c, 11, 44, 95
4, 170640, Note_on_c, 11, 64, 95
4, 170642, Note_on_c, 11, 59, 95
4, 170644, Note_on_c, 11, 55, 95
4, 170646, Note_on_c, 11, 50, 95
4, 170648, Note_on_c, 11, 45, 95
4, 170650, Note_on_c, 11, 40, 95
4, 170682, Note_off_c, 11, 64, 95
4, 170682, Note_off_c, 11, 59, 95
4, 170682, Note_off_c, 11, 55, 95
4, 170682, Note_off_c, 11, 50, 95
4, 170682, Note_off_c, 11, 45, 95
4, 170682, Note_off_c, 11, 40, 95
4, 170880, Note_on_c, 11, 45, 95
4, 170884, Note_on_c, 11, 50, 95
4, 170888, Note_on_c, 11, 57, 95
4, 170892, Note_on_c, 11, 62, 95
4, 171360, Note_off_c, 11, 62, 95
4, 171360, Note_off_c, 11, 57, 95
4, 171360, Note_off_c, 11, 50, 95
4, 171360, Note_off_c, 11, 45, 95
4, 171360, Note_on_c, 11, 45, 95
4, 171364, Note_on_c, 11, 50, 95
4, 171368, Note_on_c, 11, 57, 95
4, 171372, Note_on_c, 11, 62, 95
4, 171840, Note_off_c, 11, 62, 95
4, 171840, Note_off_c, 11, 57, 95
4, 171840, Note_off_c, 11, 50, 95
4, 171840, Note_off_c, 11, 45, 95
4, 171840, Note_on_c, 11, 40, 95
4, 171842, Note_on_c, 11, 45, 95
4, 171844, Note_on_c, 11, 50, 95
4, 171846, Note_on_c, 11, 55, 95
4, 171848, Note_on_c, 11, 59, 95
4, 171850, Note_on_c, 11, 64, 95
4, 171882, Note_off_c, 11, 64, 95
4, 171882, Note_off_c, 11, 59, 95
4, 171882, Note_off_c, 11, 55, 95
4, 171882, Note_off_c, 11, 50, 95
4, 171882, Note_off_c, 11, 45, 95
4, 171882, Note_off_c, 11, 40, 95
4, 172080, Note_on_c, 11, 64, 95
4, 172082, Note_on_c, 11, 59, 95
4, 172084, Note_on_c, 11, 55, 95
4, 172086, Note_on_c, 11, 50, 95
4, 172088, Note_on_c, 11, 45, 95
4, 172090, Note_on_c, 11, 40, 95
4, 172122, Note_off_c, 11, 64, 95
4, 172122, Note_off_c, 11, 59, 95
4, 172122, Note_off_c, 11, 55, 95
4, 172122, Note_off_c, 11, 50, 95
4, 172122, Note_off_c, 11, 45, 95
4, 172122, Note_off_c, 11, 40, 95
4, 172320, Note_on_c, 11, 40, 95
4, 172322, Note_on_c, 11, 45, 95
4, 172324, Note_on_c, 11, 50, 95
4, 172326, Note_on_c, 11, 55, 95
4, 172328, Note_on_c, 11, 59, 95
4, 172330, Note_on_c, 11, 64, 95
4, 172362, Note_off_c, 11, 64, 95
4, 172362, Note_off_c, 11, 59, 95
4, 172362, Note_off_c, 11, 55, 95
4, 172362, Note_off_c, 11, 50, 95
4, 172362, Note_off_c, 11, 45, 95
4, 172362, Note_off_c, 11, 40, 95
4, 172560, Note_on_c, 11, 64, 95
4, 172562, Note_on_c, 11, 59, 95
4, 172564, Note_on_c, 11, 55, 95
4, 172566, Note_on_c, 11, 50, 95
4, 172568, Note_on_c, 11, 45, 95
4, 172570, Note_on_c, 11, 40, 95
4, 172602, Note_off_c, 11, 64, 95
4, 172602, Note_off_c, 11, 59, 95
4, 172602, Note_off_c, 11, 55, 95
4, 172602, Note_off_c, 11, 50, 95
4, 172602, Note_off_c, 11, 45, 95
4, 172602, Note_off_c, 11, 40, 95
4, 172800, Note_on_c, 11, 47, 95
4, 172804, Note_on_c, 11, 52, 95
4, 172808, Note_on_c, 11, 59, 95
4, 172812, Note_on_c, 11, 64, 95
4, 173280, Note_off_c, 11, 64, 95
4, 173280, Note_off_c, 11, 59, 95
4, 173280, Note_off_c, 11, 52, 95
4, 173280, Note_off_c, 11, 47, 95
4, 173280, Note_on_c, 11, 47, 95
4, 173284, Note_on_c, 11, 52, 95
4, 173288, Note_on_c, 11, 59, 95
4, 173292, Note_on_c, 11, 64, 95
4, 173760, Note_off_c, 11, 64, 95
4, 173760, Note_off_c, 11, 59, 95
4, 173760, Note_off_c, 11, 52, 95
4, 173760, Note_off_c, 11, 47, 95
4, 173760, Note_on_c, 11, 45, 95
4, 173762, Note_on_c, 11, 45, 95
4, 173764, Note_on_c, 11, 50, 95
4, 173766, Note_on_c, 11, 55, 95
4, 173768, Note_on_c, 11, 59, 95
4, 173770, Note_on_c, 11, 64, 95
4, 173802, Note_off_c, 11, 64, 95
4, 173802, Note_off_c, 11, 59, 95
4, 173802, Note_off_c, 11, 55, 95
4, 173802, Note_off_c, 11, 50, 95
4, 173802, Note_off_c, 11, 45, 95
4, 173802, Note_off_c, 11, 45, 95
4, 174000, Note_on_c, 11, 64, 95
4, 174002, Note_on_c, 11, 59, 95
4, 174004, Note_on_c, 11, 55, 95
4, 174006, Note_on_c, 11, 50, 95
4, 174008, Note_on_c, 11, 45, 95
4, 174010, Note_on_c, 11, 40, 95
4, 174042, Note_off_c, 11, 64, 95
4, 174042, Note_off_c, 11, 59, 95
4, 174042, Note_off_c, 11, 55, 95
4, 174042, Note_off_c, 11, 50, 95
4, 174042, Note_off_c, 11, 45, 95
4, 174042, Note_off_c, 11, 40, 95
4, 174240, Note_on_c, 11, 44, 95
4, 174242, Note_on_c, 11, 45, 95
4, 174244, Note_on_c, 11, 50, 95
4, 174246, Note_on_c, 11, 55, 95
4, 174248, Note_on_c, 11, 59, 95
4, 174250, Note_on_c, 11, 64, 95
4, 174282, Note_off_c, 11, 64, 95
4, 174282, Note_off_c, 11, 59, 95
4, 174282, Note_off_c, 11, 55, 95
4, 174282, Note_off_c, 11, 50, 95
4, 174282, Note_off_c, 11, 45, 95
4, 174282, Note_off_c, 11, 44, 95
4, 174480, Note_on_c, 11, 64, 95
4, 174482, Note_on_c, 11, 59, 95
4, 174484, Note_on_c, 11, 55, 95
4, 174486, Note_on_c, 11, 50, 95
4, 174488, Note_on_c, 11, 45, 95
4, 174490, Note_on_c, 11, 40, 95
4, 174522, Note_off_c, 11, 64, 95
4, 174522, Note_off_c, 11, 59, 95
4, 174522, Note_off_c, 11, 55, 95
4, 174522, Note_off_c, 11, 50, 95
4, 174522, Note_off_c, 11, 45, 95
4, 174522, Note_off_c, 11, 40, 95
4, 174720, Note_on_c, 11, 45, 95
4, 174722, Note_on_c, 11, 50, 95
4, 174724, Note_on_c, 11, 57, 95
4, 174726, Note_on_c, 11, 62, 95
4, 174960, Note_off_c, 11, 62, 95
4, 174960, Note_off_c, 11, 57, 95
4, 174960, Note_off_c, 11, 50, 95
4, 174960, Note_off_c, 11, 45, 95
4, 175200, Note_on_c, 11, 45, 95
4, 175202, Note_on_c, 11, 50, 95
4, 175204, Note_on_c, 11, 57, 95
4, 175206, Note_on_c, 11, 62, 95
4, 175208, Note_on_c, 11, 66, 95
4, 175210, Note_on_c, 11, 69, 95
4, 175242, Note_off_c, 11, 69, 95
4, 175242, Note_off_c, 11, 66, 95
4, 175242, Note_off_c, 11, 62, 95
4, 175242, Note_off_c, 11, 57, 95
4, 175242, Note_off_c, 11, 50, 95
4, 175242, Note_off_c, 11, 45, 95
4, 175440, Note_on_c, 11, 62, 95
4, 175442, Note_on_c, 11, 57, 95
4, 175444, Note_on_c, 11, 50, 95
4, 175446, Note_on_c, 11, 45, 95
4, 175680, Note_off_c, 11, 62, 95
4, 175680, Note_off_c, 11, 57, 95
4, 175680, Note_off_c, 11, 50, 95
4, 175680, Note_off_c, 11, 45, 95
4, 175920, Note_on_c, 11, 64, 95
4, 175922, Note_on_c, 11, 59, 95
4, 175924, Note_on_c, 11, 52, 95
4, 175926, Note_on_c, 11, 47, 95
4, 176160, Note_off_c, 11, 64, 95
4, 176160, Note_off_c, 11, 59, 95
4, 176160, Note_off_c, 11, 52, 95
4, 176160, Note_off_c, 11, 47, 95
4, 176160, Note_on_c, 11, 47, 95
4, 176162, Note_on_c, 11, 52, 95
4, 176164, Note_on_c, 11, 59, 95
4, 176166, Note_on_c, 11, 64, 95
4, 176400, Note_off_c, 11, 64, 95
4, 176400, Note_off_c, 11, 59, 95
4, 176400, Note_off_c, 11, 52, 95
4, 176400, Note_off_c, 11, 47, 95
4, 176640, Note_on_c, 11, 47, 95
4, 176644, Note_on_c, 11, 54, 95
4, 176648, Note_on_c, 11, 59, 95
4, 176652, Note_on_c, 11, 63, 95
4, 177120, Note_off_c, 11, 63, 95
4, 177120, Note_off_c, 11, 59, 95
4, 177120, Note_off_c, 11, 54, 95
4, 177120, Note_off_c, 11, 47, 95
4, 177120, Note_on_c, 11, 47, 95
4, 177124, Note_on_c, 11, 54, 95
4, 177128, Note_on_c, 11, 59, 95
4, 177132, Note_on_c, 11, 63, 95
4, 177600, Note_off_c, 11, 63, 95
4, 177600, Note_off_c, 11, 59, 95
4, 177600, Note_off_c, 11, 54, 95
4, 177600, Note_off_c, 11, 47, 95
4, 177600, Note_on_c, 11, 45, 95
4, 177602, Note_on_c, 11, 45, 95
4, 177604, Note_on_c, 11, 50, 95
4, 177606, Note_on_c, 11, 55, 95
4, 177608, Note_on_c, 11, 59, 95
4, 177610, Note_on_c, 11, 64, 95
4, 177642, Note_off_c, 11, 64, 95
4, 177642, Note_off_c, 11, 59, 95
4, 177642, Note_off_c, 11, 55, 95
4, 177642, Note_off_c, 11, 50, 95
4, 177642, Note_off_c, 11, 45, 95
4, 177642, Note_off_c, 11, 45, 95
4, 177840, Note_on_c, 11, 64, 95
4, 177842, Note_on_c, 11, 59, 95
4, 177844, Note_on_c, 11, 55, 95
4, 177846, Note_on_c, 11, 50, 95
4, 177848, Note_on_c, 11, 45, 95
4, 177850, Note_on_c, 11, 40, 95
4, 177882, Note_off_c, 11, 64, 95
4, 177882, Note_off_c, 11, 59, 95
4, 177882, Note_off_c, 11, 55, 95
4, 177882, Note_off_c, 11, 50, 95
4, 177882, Note_off_c, 11, 45, 95
4, 177882, Note_off_c, 11, 40, 95
4, 178080, Note_on_c, 11, 44, 95
4, 178082, Note_on_c, 11, 45, 95
4, 178084, Note_on_c, 11, 50, 95
4, 178086, Note_on_c, 11, 55, 95
4, 178088, Note_on_c, 11, 59, 95
4, 178090, Note_on_c, 11, 64, 95
4, 178122, Note_off_c, 11, 64, 95
4, 178122, Note_off_c, 11, 59, 95
4, 178122, Note_off_c, 11, 55, 95
4, 178122, Note_off_c, 11, 50, 95
4, 178122, Note_off_c, 11, 45, 95
4, 178122, Note_off_c, 11, 44, 95
4, 178320, Note_on_c, 11, 64, 95
4, 178322, Note_on_c, 11, 59, 95
4, 178324, Note_on_c, 11, 55, 95
4, 178326, Note_on_c, 11, 50, 95
4, 178328, Note_on_c, 11, 45, 95
4, 178330, Note_on_c, 11, 40, 95
4, 178362, Note_off_c, 11, 64, 95
4, 178362, Note_off_c, 11, 59, 95
4, 178362, Note_off_c, 11, 55, 95
4, 178362, Note_off_c, 11, 50, 95
4, 178362, Note_off_c, 11, 45, 95
4, 178362, Note_off_c, 11, 40, 95
4, 178560, Note_on_c, 11, 45, 95
4, 178564, Note_on_c, 11, 50, 95
4, 178568, Note_on_c, 11, 57, 95
4, 178572, Note_on_c, 11, 62, 95
4, 179040, Note_off_c, 11, 62, 95
4, 179040, Note_off_c, 11, 57, 95
4, 179040, Note_off_c, 11, 50, 95
4, 179040, Note_off_c, 11, 45, 95
4, 179040, Note_on_c, 11, 45, 95
4, 179044, Note_on_c, 11, 50, 95
4, 179048, Note_on_c, 11, 57, 95
4, 179052, Note_on_c, 11, 62, 95
4, 179520, Note_off_c, 11, 62, 95
4, 179520, Note_off_c, 11, 57, 95
4, 179520, Note_off_c, 11, 50, 95
4, 179520, Note_off_c, 11, 45, 95
4, 179520, Note_on_c, 11, 40, 95
4, 179522, Note_on_c, 11, 45, 95
4, 179524, Note_on_c, 11, 50, 95
4, 179526, Note_on_c, 11, 55, 95
4, 179528, Note_on_c, 11, 59, 95
4, 179530, Note_on_c, 11, 64, 95
4, 179562, Note_off_c, 11, 64, 95
4, 179562, Note_off_c, 11, 59, 95
4, 179562, Note_off_c, 11, 55, 95
4, 179562, Note_off_c, 11, 50, 95
4, 179562, Note_off_c, 11, 45, 95
4, 179562, Note_off_c, 11, 40, 95
4, 179760, Note_on_c, 11, 64, 95
4, 179762, Note_on_c, 11, 59, 95
4, 179764, Note_on_c, 11, 55, 95
4, 179766, Note_on_c, 11, 50, 95
4, 179768, Note_on_c, 11, 45, 95
4, 179770, Note_on_c, 11, 40, 95
4, 179802, Note_off_c, 11, 64, 95
4, 179802, Note_off_c, 11, 59, 95
4, 179802, Note_off_c, 11, 55, 95
4, 179802, Note_off_c, 11, 50, 95
4, 179802, Note_off_c, 11, 45, 95
4, 179802, Note_off_c, 11, 40, 95
4, 180000, Note_on_c, 11, 40, 95
4, 180002, Note_on_c, 11, 45, 95
4, 180004, Note_on_c, 11, 50, 95
4, 180006, Note_on_c, 11, 55, 95
4, 180008, Note_on_c, 11, 59, 95
4, 180010, Note_on_c, 11, 64, 95
4, 180042, Note_off_c, 11, 64, 95
4, 180042, Note_off_c, 11, 59, 95
4, 180042, Note_off_c, 11, 55, 95
4, 180042, Note_off_c, 11, 50, 95
4, 180042, Note_off_c, 11, 45, 95
4, 180042, Note_off_c, 11, 40, 95
4, 180240, Note_on_c, 11, 64, 95
4, 180242, Note_on_c, 11, 59, 95
4, 180244, Note_on_c, 11, 55, 95
4, 180246, Note_on_c, 11, 50, 95
4, 180248, Note_on_c, 11, 45, 95
4, 180250, Note_on_c, 11, 40, 95
4, 180282, Note_off_c, 11, 64, 95
4, 180282, Note_off_c, 11, 59, 95
4, 180282, Note_off_c, 11, 55, 95
4, 180282, Note_off_c, 11, 50, 95
4, 180282, Note_off_c, 11, 45, 95
4, 180282, Note_off_c, 11, 40, 95
4, 180480, Note_on_c, 11, 47, 95
4, 180484, Note_on_c, 11, 52, 95
4, 180488, Note_on_c, 11, 59, 95
4, 180492, Note_on_c, 11, 64, 95
4, 180960, Note_off_c, 11, 64, 95
4, 180960, Note_off_c, 11, 59, 95
4, 180960, Note_off_c, 11, 52, 95
4, 180960, Note_off_c, 11, 47, 95
4, 180960, Note_on_c, 11, 47, 95
4, 180964, Note_on_c, 11, 52, 95
4, 180968, Note_on_c, 11, 59, 95
4, 180972, Note_on_c, 11, 64, 95
4, 181440, Note_off_c, 11, 64, 95
4, 181440, Note_off_c, 11, 59, 95
4, 181440, Note_off_c, 11, 52, 95
4, 181440, Note_off_c, 11, 47, 95
4, 181440, Note_on_c, 11, 45, 95
4, 181442, Note_on_c, 11, 45, 95
4, 181444, Note_on_c, 11, 50, 95
4, 181446, Note_on_c, 11, 55, 95
4, 181448, Note_on_c, 11, 59, 95
4, 181450, Note_on_c, 11, 64, 95
4, 181482, Note_off_c, 11, 64, 95
4, 181482, Note_off_c, 11, 59, 95
4, 181482, Note_off_c, 11, 55, 95
4, 181482, Note_off_c, 11, 50, 95
4, 181482, Note_off_c, 11, 45, 95
4, 181482, Note_off_c, 11, 45, 95
4, 181680, Note_on_c, 11, 64, 95
4, 181682, Note_on_c, 11, 59, 95
4, 181684, Note_on_c, 11, 55, 95
4, 181686, Note_on_c, 11, 50, 95
4, 181688, Note_on_c, 11, 45, 95
4, 181690, Note_on_c, 11, 40, 95
4, 181722, Note_off_c, 11, 64, 95
4, 181722, Note_off_c, 11, 59, 95
4, 181722, Note_off_c, 11, 55, 95
4, 181722, Note_off_c, 11, 50, 95
4, 181722, Note_off_c, 11, 45, 95
4, 181722, Note_off_c, 11, 40, 95
4, 181920, Note_on_c, 11, 44, 95
4, 181922, Note_on_c, 11, 45, 95
4, 181924, Note_on_c, 11, 50, 95
4, 181926, Note_on_c, 11, 55, 95
4, 181928, Note_on_c, 11, 59, 95
4, 181930, Note_on_c, 11, 64, 95
4, 181962, Note_off_c, 11, 64, 95
4, 181962, Note_off_c, 11, 59, 95
4, 181962, Note_off_c, 11, 55, 95
4, 181962, Note_off_c, 11, 50, 95
4, 181962, Note_off_c, 11, 45, 95
4, 181962, Note_off_c, 11, 44, 95
4, 182160, Note_on_c, 11, 64, 95
4, 182162, Note_on_c, 11, 59, 95
4, 182164, Note_on_c, 11, 55, 95
4, 182166, Note_on_c, 11, 50, 95
4, 182168, Note_on_c, 11, 45, 95
4, 182170, Note_on_c, 11, 40, 95
4, 182202, Note_off_c, 11, 64, 95
4, 182202, Note_off_c, 11, 59, 95
4, 182202, Note_off_c, 11, 55, 95
4, 182202, Note_off_c, 11, 50, 95
4, 182202, Note_off_c, 11, 45, 95
4, 182202, Note_off_c, 11, 40, 95
4, 182400, Note_on_c, 11, 45, 95
4, 182402, Note_on_c, 11, 50, 95
4, 182404, Note_on_c, 11, 57, 95
4, 182406, Note_on_c, 11, 62, 95
4, 182640, Note_off_c, 11, 62, 95
4, 182640, Note_off_c, 11, 57, 95
4, 182640, Note_off_c, 11, 50, 95
4, 182640, Note_off_c, 11, 45, 95
4, 182880, Note_on_c, 11, 45, 95
4, 182882, Note_on_c, 11, 50, 95
4, 182884, Note_on_c, 11, 57, 95
4, 182886, Note_on_c, 11, 62, 95
4, 182888, Note_on_c, 11, 66, 95
4, 182890, Note_on_c, 11, 69, 95
4, 182922, Note_off_c, 11, 69, 95
4, 182922, Note_off_c, 11, 66, 95
4, 182922, Note_off_c, 11, 62, 95
4, 182922, Note_off_c, 11, 57, 95
4, 182922, Note_off_c, 11, 50, 95
4, 182922, Note_off_c, 11, 45, 95
4, 183120, Note_on_c, 11, 62, 95
4, 183122, Note_on_c, 11, 57, 95
4, 183124, Note_on_c, 11, 50, 95
4, 183126, Note_on_c, 11, 45, 95
4, 183360, Note_off_c, 11, 62, 95
4, 183360, Note_off_c, 11, 57, 95
4, 183360, Note_off_c, 11, 50, 95
4, 183360, Note_off_c, 11, 45, 95
4, 183600, Note_on_c, 11, 64, 95
4, 183602, Note_on_c, 11, 59, 95
4, 183604, Note_on_c, 11, 52, 95
4, 183606, Note_on_c, 11, 47, 95
4, 183840, Note_off_c, 11, 64, 95
4, 183840, Note_off_c, 11, 59, 95
4, 183840, Note_off_c, 11, 52, 95
4, 183840, Note_off_c, 11, 47, 95
4, 183840, Note_on_c, 11, 47, 95
4, 183842, Note_on_c, 11, 52, 95
4, 183844, Note_on_c, 11, 59, 95
4, 183846, Note_on_c, 11, 64, 95
4, 184080, Note_off_c, 11, 64, 95
4, 184080, Note_off_c, 11, 59, 95
4, 184080, Note_off_c, 11, 52, 95
4, 184080, Note_off_c, 11, 47, 95
4, 184320, Note_on_c, 11, 63, 95
4, 184320, Note_on_c, 11, 59, 95
4, 184320, Note_on_c, 11, 54, 95
4, 184320, Note_on_c, 11, 47, 95
4, 185280, Note_off_c, 11, 63, 95
4, 185280, Note_off_c, 11, 59, 95
4, 185280, Note_off_c, 11, 54, 95
4, 185280, Note_off_c, 11, 47, 95
4, 185760, Note_on_c, 11, 61, 95
4, 185760, Note_on_c, 11, 57, 95
4, 185760, Note_on_c, 11, 52, 95
4, 185760, Note_on_c, 11, 45, 95
4, 187200, Note_off_c, 11, 61, 95
4, 187200, Note_off_c, 11, 57, 95
4, 187200, Note_off_c, 11, 52, 95
4, 187200, Note_off_c, 11, 45, 95
4, 187200, Note_on_c, 11, 61, 95
4, 187200, Note_on_c, 11, 57, 95
4, 187200, Note_on_c, 11, 52, 95
4, 187200, Note_on_c, 11, 45, 95
4, 187680, Note_off_c, 11, 61, 95
4, 187680, Note_off_c, 11, 57, 95
4, 187680, Note_off_c, 11, 52, 95
4, 187680, Note_off_c, 11, 45, 95
4, 188160, Note_on_c, 11, 60, 95
4, 188160, Note_on_c, 11, 56, 95
4, 188160, Note_on_c, 11, 51, 95
4, 188160, Note_on_c, 11, 44, 95
4, 188640, Note_off_c, 11, 60, 95
4, 188640, Note_off_c, 11, 56, 95
4, 188640, Note_off_c, 11, 51, 95
4, 188640, Note_off_c, 11, 44, 95
4, 188640, Note_on_c, 11, 60, 95
4, 188640, Note_on_c, 11, 56, 95
4, 188640, Note_on_c, 11, 51, 95
4, 188640, Note_on_c, 11, 44, 95
4, 189120, Note_off_c, 11, 60, 95
4, 189120, Note_off_c, 11, 56, 95
4, 189120, Note_off_c, 11, 51, 95
4, 189120, Note_off_c, 11, 44, 95
4, 189120, Note_on_c, 11, 60, 95
4, 189120, Note_on_c, 11, 56, 95
4, 189120, Note_on_c, 11, 51, 95
4, 189120, Note_on_c, 11, 44, 95
4, 189600, Note_off_c, 11, 60, 95
4, 189600, Note_off_c, 11, 56, 95
4, 189600, Note_off_c, 11, 51, 95
4, 189600, Note_off_c, 11, 44, 95
4, 189600, Note_on_c, 11, 60, 95
4, 189600, Note_on_c, 11, 56, 95
4, 189600, Note_on_c, 11, 51, 95
4, 189600, Note_on_c, 11, 44, 95
4, 190080, Note_off_c, 11, 60, 95
4, 190080, Note_off_c, 11, 56, 95
4, 190080, Note_off_c, 11, 51, 95
4, 190080, Note_off_c, 11, 44, 95
4, 190080, Note_on_c, 11, 59, 95
4, 190080, Note_on_c, 11, 55, 95
4, 190080, Note_on_c, 11, 50, 95
4, 190080, Note_on_c, 11, 43, 95
4, 190560, Note_off_c, 11, 59, 95
4, 190560, Note_off_c, 11, 55, 95
4, 190560, Note_off_c, 11, 50, 95
4, 190560, Note_off_c, 11, 43, 95
4, 190560, Note_on_c, 11, 59, 95
4, 190560, Note_on_c, 11, 55, 95
4, 190560, Note_on_c, 11, 50, 95
4, 190560, Note_on_c, 11, 43, 95
4, 191040, Note_off_c, 11, 59, 95
4, 191040, Note_off_c, 11, 55, 95
4, 191040, Note_off_c, 11, 50, 95
4, 191040, Note_off_c, 11, 43, 95
4, 191040, Note_on_c, 11, 61, 95
4, 191040, Note_on_c, 11, 57, 95
4, 191040, Note_on_c, 11, 52, 95
4, 191040, Note_on_c, 11, 45, 95
4, 191520, Note_off_c, 11, 61, 95
4, 191520, Note_off_c, 11, 57, 95
4, 191520, Note_off_c, 11, 52, 95
4, 191520, Note_off_c, 11, 45, 95
4, 191520, Note_on_c, 11, 61, 95
4, 191520, Note_on_c, 11, 57, 95
4, 191520, Note_on_c, 11, 52, 95
4, 191520, Note_on_c, 11, 45, 95
4, 192000, Note_off_c, 11, 61, 95
4, 192000, Note_off_c, 11, 57, 95
4, 192000, Note_off_c, 11, 52, 95
4, 192000, Note_off_c, 11, 45, 95
4, 192000, Note_on_c, 11, 63, 95
4, 192000, Note_on_c, 11, 59, 95
4, 192000, Note_on_c, 11, 54, 95
4, 192000, Note_on_c, 11, 47, 95
4, 192960, Note_off_c, 11, 63, 95
4, 192960, Note_off_c, 11, 59, 95
4, 192960, Note_off_c, 11, 54, 95
4, 192960, Note_off_c, 11, 47, 95
4, 193440, Note_on_c, 11, 61, 95
4, 193440, Note_on_c, 11, 57, 95
4, 193440, Note_on_c, 11, 52, 95
4, 193440, Note_on_c, 11, 45, 95
4, 194880, Note_off_c, 11, 61, 95
4, 194880, Note_off_c, 11, 57, 95
4, 194880, Note_off_c, 11, 52, 95
4, 194880, Note_off_c, 11, 45, 95
4, 194880, Note_on_c, 11, 61, 95
4, 194880, Note_on_c, 11, 57, 95
4, 194880, Note_on_c, 11, 52, 95
4, 194880, Note_on_c, 11, 45, 95
4, 195360, Note_off_c, 11, 61, 95
4, 195360, Note_off_c, 11, 57, 95
4, 195360, Note_off_c, 11, 52, 95
4, 195360, Note_off_c, 11, 45, 95
4, 195840, Note_on_c, 11, 60, 95
4, 195840, Note_on_c, 11, 56, 95
4, 195840, Note_on_c, 11, 51, 95
4, 195840, Note_on_c, 11, 44, 95
4, 196320, Note_off_c, 11, 60, 95
4, 196320, Note_off_c, 11, 56, 95
4, 196320, Note_off_c, 11, 51, 95
4, 196320, Note_off_c, 11, 44, 95
4, 196320, Note_on_c, 11, 60, 95
4, 196320, Note_on_c, 11, 56, 95
4, 196320, Note_on_c, 11, 51, 95
4, 196320, Note_on_c, 11, 44, 95
4, 196800, Note_off_c, 11, 60, 95
4, 196800, Note_off_c, 11, 56, 95
4, 196800, Note_off_c, 11, 51, 95
4, 196800, Note_off_c, 11, 44, 95
4, 196800, Note_on_c, 11, 60, 95
4, 196800, Note_on_c, 11, 56, 95
4, 196800, Note_on_c, 11, 51, 95
4, 196800, Note_on_c, 11, 44, 95
4, 197280, Note_off_c, 11, 60, 95
4, 197280, Note_off_c, 11, 56, 95
4, 197280, Note_off_c, 11, 51, 95
4, 197280, Note_off_c, 11, 44, 95
4, 197280, Note_on_c, 11, 60, 95
4, 197280, Note_on_c, 11, 56, 95
4, 197280, Note_on_c, 11, 51, 95
4, 197280, Note_on_c, 11, 44, 95
4, 197760, Note_off_c, 11, 60, 95
4, 197760, Note_off_c, 11, 56, 95
4, 197760, Note_off_c, 11, 51, 95
4, 197760, Note_off_c, 11, 44, 95
4, 197760, Note_on_c, 11, 59, 95
4, 197760, Note_on_c, 11, 55, 95
4, 197760, Note_on_c, 11, 50, 95
4, 197760, Note_on_c, 11, 43, 95
4, 198240, Note_off_c, 11, 59, 95
4, 198240, Note_off_c, 11, 55, 95
4, 198240, Note_off_c, 11, 50, 95
4, 198240, Note_off_c, 11, 43, 95
4, 198240, Note_on_c, 11, 59, 95
4, 198240, Note_on_c, 11, 55, 95
4, 198240, Note_on_c, 11, 50, 95
4, 198240, Note_on_c, 11, 43, 95
4, 198720, Note_off_c, 11, 59, 95
4, 198720, Note_off_c, 11, 55, 95
4, 198720, Note_off_c, 11, 50, 95
4, 198720, Note_off_c, 11, 43, 95
4, 198720, Note_on_c, 11, 61, 95
4, 198720, Note_on_c, 11, 57, 95
4, 198720, Note_on_c, 11, 52, 95
4, 198720, Note_on_c, 11, 45, 95
4, 199200, Note_off_c, 11, 61, 95
4, 199200, Note_off_c, 11, 57, 95
4, 199200, Note_off_c, 11, 52, 95
4, 199200, Note_off_c, 11, 45, 95
4, 199200, Note_on_c, 11, 61, 95
4, 199200, Note_on_c, 11, 57, 95
4, 199200, Note_on_c, 11, 52, 95
4, 199200, Note_on_c, 11, 45, 95
4, 199680, Note_off_c, 11, 61, 95
4, 199680, Note_off_c, 11, 57, 95
4, 199680, Note_off_c, 11, 52, 95
4, 199680, Note_off_c, 11, 45, 95
4, 199680, Note_on_c, 11, 63, 95
4, 199680, Note_on_c, 11, 59, 95
4, 199680, Note_on_c, 11, 54, 95
4, 199680, Note_on_c, 11, 47, 95
4, 200640, Note_off_c, 11, 63, 95
4, 200640, Note_off_c, 11, 59, 95
4, 200640, Note_off_c, 11, 54, 95
4, 200640, Note_off_c, 11, 47, 95
4, 201120, Note_on_c, 11, 61, 95
4, 201120, Note_on_c, 11, 57, 95
4, 201120, Note_on_c, 11, 52, 95
4, 201120, Note_on_c, 11, 45, 95
4, 202560, Note_off_c, 11, 61, 95
4, 202560, Note_off_c, 11, 57, 95
4, 202560, Note_off_c, 11, 52, 95
4, 202560, Note_off_c, 11, 45, 95
4, 202560, Note_on_c, 11, 61, 95
4, 202560, Note_on_c, 11, 57, 95
4, 202560, Note_on_c, 11, 52, 95
4, 202560, Note_on_c, 11, 45, 95
4, 203040, Note_off_c, 11, 61, 95
4, 203040, Note_off_c, 11, 57, 95
4, 203040, Note_off_c, 11, 52, 95
4, 203040, Note_off_c, 11, 45, 95
4, 203520, Note_on_c, 11, 60, 95
4, 203520, Note_on_c, 11, 56, 95
4, 203520, Note_on_c, 11, 51, 95
4, 203520, Note_on_c, 11, 44, 95
4, 204000, Note_off_c, 11, 60, 95
4, 204000, Note_off_c, 11, 56, 95
4, 204000, Note_off_c, 11, 51, 95
4, 204000, Note_off_c, 11, 44, 95
4, 204000, Note_on_c, 11, 60, 95
4, 204000, Note_on_c, 11, 56, 95
4, 204000, Note_on_c, 11, 51, 95
4, 204000, Note_on_c, 11, 44, 95
4, 204480, Note_off_c, 11, 60, 95
4, 204480, Note_off_c, 11, 56, 95
4, 204480, Note_off_c, 11, 51, 95
4, 204480, Note_off_c, 11, 44, 95
4, 204480, Note_on_c, 11, 60, 95
4, 204480, Note_on_c, 11, 56, 95
4, 204480, Note_on_c, 11, 51, 95
4, 204480, Note_on_c, 11, 44, 95
4, 204960, Note_off_c, 11, 60, 95
4, 204960, Note_off_c, 11, 56, 95
4, 204960, Note_off_c, 11, 51, 95
4, 204960, Note_off_c, 11, 44, 95
4, 204960, Note_on_c, 11, 60, 95
4, 204960, Note_on_c, 11, 56, 95
4, 204960, Note_on_c, 11, 51, 95
4, 204960, Note_on_c, 11, 44, 95
4, 205440, Note_off_c, 11, 60, 95
4, 205440, Note_off_c, 11, 56, 95
4, 205440, Note_off_c, 11, 51, 95
4, 205440, Note_off_c, 11, 44, 95
4, 205440, Note_on_c, 11, 59, 95
4, 205440, Note_on_c, 11, 55, 95
4, 205440, Note_on_c, 11, 50, 95
4, 205440, Note_on_c, 11, 43, 95
4, 205920, Note_off_c, 11, 59, 95
4, 205920, Note_off_c, 11, 55, 95
4, 205920, Note_off_c, 11, 50, 95
4, 205920, Note_off_c, 11, 43, 95
4, 205920, Note_on_c, 11, 59, 95
4, 205920, Note_on_c, 11, 55, 95
4, 205920, Note_on_c, 11, 50, 95
4, 205920, Note_on_c, 11, 43, 95
4, 206400, Note_off_c, 11, 59, 95
4, 206400, Note_off_c, 11, 55, 95
4, 206400, Note_off_c, 11, 50, 95
4, 206400, Note_off_c, 11, 43, 95
4, 206400, Note_on_c, 11, 61, 95
4, 206400, Note_on_c, 11, 57, 95
4, 206400, Note_on_c, 11, 52, 95
4, 206400, Note_on_c, 11, 45, 95
4, 206880, Note_off_c, 11, 61, 95
4, 206880, Note_off_c, 11, 57, 95
4, 206880, Note_off_c, 11, 52, 95
4, 206880, Note_off_c, 11, 45, 95
4, 206880, Note_on_c, 11, 61, 95
4, 206880, Note_on_c, 11, 57, 95
4, 206880, Note_on_c, 11, 52, 95
4, 206880, Note_on_c, 11, 45, 95
4, 207360, Note_off_c, 11, 61, 95
4, 207360, Note_off_c, 11, 57, 95
4, 207360, Note_off_c, 11, 52, 95
4, 207360, Note_off_c, 11, 45, 95
4, 207360, Note_on_c, 11, 47, 95
4, 207364, Note_on_c, 11, 54, 95
4, 207368, Note_on_c, 11, 59, 95
4, 207372, Note_on_c, 11, 63, 95
4, 207840, Note_off_c, 11, 63, 95
4, 207840, Note_off_c, 11, 59, 95
4, 207840, Note_off_c, 11, 54, 95
4, 207840, Note_off_c, 11, 47, 95
4, 207840, Note_on_c, 11, 47, 95
4, 207844, Note_on_c, 11, 54, 95
4, 207848, Note_on_c, 11, 59, 95
4, 207852, Note_on_c, 11, 63, 95
4, 208320, Note_off_c, 11, 63, 95
4, 208320, Note_off_c, 11, 59, 95
4, 208320, Note_off_c, 11, 54, 95
4, 208320, Note_off_c, 11, 47, 95
4, 208320, Note_on_c, 11, 45, 95
4, 208322, Note_on_c, 11, 45, 95
4, 208324, Note_on_c, 11, 50, 95
4, 208326, Note_on_c, 11, 55, 95
4, 208328, Note_on_c, 11, 59, 95
4, 208330, Note_on_c, 11, 64, 95
4, 208362, Note_off_c, 11, 64, 95
4, 208362, Note_off_c, 11, 59, 95
4, 208362, Note_off_c, 11, 55, 95
4, 208362, Note_off_c, 11, 50, 95
4, 208362, Note_off_c, 11, 45, 95
4, 208362, Note_off_c, 11, 45, 95
4, 208560, Note_on_c, 11, 64, 95
4, 208562, Note_on_c, 11, 59, 95
4, 208564, Note_on_c, 11, 55, 95
4, 208566, Note_on_c, 11, 50, 95
4, 208568, Note_on_c, 11, 45, 95
4, 208570, Note_on_c, 11, 40, 95
4, 208602, Note_off_c, 11, 64, 95
4, 208602, Note_off_c, 11, 59, 95
4, 208602, Note_off_c, 11, 55, 95
4, 208602, Note_off_c, 11, 50, 95
4, 208602, Note_off_c, 11, 45, 95
4, 208602, Note_off_c, 11, 40, 95
4, 208800, Note_on_c, 11, 44, 95
4, 208802, Note_on_c, 11, 45, 95
4, 208804, Note_on_c, 11, 50, 95
4, 208806, Note_on_c, 11, 55, 95
4, 208808, Note_on_c, 11, 59, 95
4, 208810, Note_on_c, 11, 64, 95
4, 208842, Note_off_c, 11, 64, 95
4, 208842, Note_off_c, 11, 59, 95
4, 208842, Note_off_c, 11, 55, 95
4, 208842, Note_off_c, 11, 50, 95
4, 208842, Note_off_c, 11, 45, 95
4, 208842, Note_off_c, 11, 44, 95
4, 209040, Note_on_c, 11, 64, 95
4, 209042, Note_on_c, 11, 59, 95
4, 209044, Note_on_c, 11, 55, 95
4, 209046, Note_on_c, 11, 50, 95
4, 209048, Note_on_c, 11, 45, 95
4, 209050, Note_on_c, 11, 40, 95
4, 209082, Note_off_c, 11, 64, 95
4, 209082, Note_off_c, 11, 59, 95
4, 209082, Note_off_c, 11, 55, 95
4, 209082, Note_off_c, 11, 50, 95
4, 209082, Note_off_c, 11, 45, 95
4, 209082, Note_off_c, 11, 40, 95
4, 209280, Note_on_c, 11, 45, 95
4, 209284, Note_on_c, 11, 50, 95
4, 209288, Note_on_c, 11, 57, 95
4, 209292, Note_on_c, 11, 62, 95
4, 209760, Note_off_c, 11, 62, 95
4, 209760, Note_off_c, 11, 57, 95
4, 209760, Note_off_c, 11, 50, 95
4, 209760, Note_off_c, 11, 45, 95
4, 209760, Note_on_c, 11, 45, 95
4, 209764, Note_on_c, 11, 50, 95
4, 209768, Note_on_c, 11, 57, 95
4, 209772, Note_on_c, 11, 62, 95
4, 210240, Note_off_c, 11, 62, 95
4, 210240, Note_off_c, 11, 57, 95
4, 210240, Note_off_c, 11, 50, 95
4, 210240, Note_off_c, 11, 45, 95
4, 210240, Note_on_c, 11, 40, 95
4, 210242, Note_on_c, 11, 45, 95
4, 210244, Note_on_c, 11, 50, 95
4, 210246, Note_on_c, 11, 55, 95
4, 210248, Note_on_c, 11, 59, 95
4, 210250, Note_on_c, 11, 64, 95
4, 210282, Note_off_c, 11, 64, 95
4, 210282, Note_off_c, 11, 59, 95
4, 210282, Note_off_c, 11, 55, 95
4, 210282, Note_off_c, 11, 50, 95
4, 210282, Note_off_c, 11, 45, 95
4, 210282, Note_off_c, 11, 40, 95
4, 210480, Note_on_c, 11, 64, 95
4, 210482, Note_on_c, 11, 59, 95
4, 210484, Note_on_c, 11, 55, 95
4, 210486, Note_on_c, 11, 50, 95
4, 210488, Note_on_c, 11, 45, 95
4, 210490, Note_on_c, 11, 40, 95
4, 210522, Note_off_c, 11, 64, 95
4, 210522, Note_off_c, 11, 59, 95
4, 210522, Note_off_c, 11, 55, 95
4, 210522, Note_off_c, 11, 50, 95
4, 210522, Note_off_c, 11, 45, 95
4, 210522, Note_off_c, 11, 40, 95
4, 210720, Note_on_c, 11, 40, 95
4, 210722, Note_on_c, 11, 45, 95
4, 210724, Note_on_c, 11, 50, 95
4, 210726, Note_on_c, 11, 55, 95
4, 210728, Note_on_c, 11, 59, 95
4, 210730, Note_on_c, 11, 64, 95
4, 210762, Note_off_c, 11, 64, 95
4, 210762, Note_off_c, 11, 59, 95
4, 210762, Note_off_c, 11, 55, 95
4, 210762, Note_off_c, 11, 50, 95
4, 210762, Note_off_c, 11, 45, 95
4, 210762, Note_off_c, 11, 40, 95
4, 210960, Note_on_c, 11, 64, 95
4, 210962, Note_on_c, 11, 59, 95
4, 210964, Note_on_c, 11, 55, 95
4, 210966, Note_on_c, 11, 50, 95
4, 210968, Note_on_c, 11, 45, 95
4, 210970, Note_on_c, 11, 40, 95
4, 211002, Note_off_c, 11, 64, 95
4, 211002, Note_off_c, 11, 59, 95
4, 211002, Note_off_c, 11, 55, 95
4, 211002, Note_off_c, 11, 50, 95
4, 211002, Note_off_c, 11, 45, 95
4, 211002, Note_off_c, 11, 40, 95
4, 211200, Note_on_c, 11, 47, 95
4, 211204, Note_on_c, 11, 52, 95
4, 211208, Note_on_c, 11, 59, 95
4, 211212, Note_on_c, 11, 64, 95
4, 211680, Note_off_c, 11, 64, 95
4, 211680, Note_off_c, 11, 59, 95
4, 211680, Note_off_c, 11, 52, 95
4, 211680, Note_off_c, 11, 47, 95
4, 211680, Note_on_c, 11, 47, 95
4, 211684, Note_on_c, 11, 52, 95
4, 211688, Note_on_c, 11, 59, 95
4, 211692, Note_on_c, 11, 64, 95
4, 212160, Note_off_c, 11, 64, 95
4, 212160, Note_off_c, 11, 59, 95
4, 212160, Note_off_c, 11, 52, 95
4, 212160, Note_off_c, 11, 47, 95
4, 212160, Note_on_c, 11, 45, 95
4, 212162, Note_on_c, 11, 45, 95
4, 212164, Note_on_c, 11, 50, 95
4, 212166, Note_on_c, 11, 55, 95
4, 212168, Note_on_c, 11, 59, 95
4, 212170, Note_on_c, 11, 64, 95
4, 212202, Note_off_c, 11, 64, 95
4, 212202, Note_off_c, 11, 59, 95
4, 212202, Note_off_c, 11, 55, 95
4, 212202, Note_off_c, 11, 50, 95
4, 212202, Note_off_c, 11, 45, 95
4, 212202, Note_off_c, 11, 45, 95
4, 212400, Note_on_c, 11, 64, 95
4, 212402, Note_on_c, 11, 59, 95
4, 212404, Note_on_c, 11, 55, 95
4, 212406, Note_on_c, 11, 50, 95
4, 212408, Note_on_c, 11, 45, 95
4, 212410, Note_on_c, 11, 40, 95
4, 212442, Note_off_c, 11, 64, 95
4, 212442, Note_off_c, 11, 59, 95
4, 212442, Note_off_c, 11, 55, 95
4, 212442, Note_off_c, 11, 50, 95
4, 212442, Note_off_c, 11, 45, 95
4, 212442, Note_off_c, 11, 40, 95
4, 212640, Note_on_c, 11, 44, 95
4, 212642, Note_on_c, 11, 45, 95
4, 212644, Note_on_c, 11, 50, 95
4, 212646, Note_on_c, 11, 55, 95
4, 212648, Note_on_c, 11, 59, 95
4, 212650, Note_on_c, 11, 64, 95
4, 212682, Note_off_c, 11, 64, 95
4, 212682, Note_off_c, 11, 59, 95
4, 212682, Note_off_c, 11, 55, 95
4, 212682, Note_off_c, 11, 50, 95
4, 212682, Note_off_c, 11, 45, 95
4, 212682, Note_off_c, 11, 44, 95
4, 212880, Note_on_c, 11, 64, 95
4, 212882, Note_on_c, 11, 59, 95
4, 212884, Note_on_c, 11, 55, 95
4, 212886, Note_on_c, 11, 50, 95
4, 212888, Note_on_c, 11, 45, 95
4, 212890, Note_on_c, 11, 40, 95
4, 212922, Note_off_c, 11, 64, 95
4, 212922, Note_off_c, 11, 59, 95
4, 212922, Note_off_c, 11, 55, 95
4, 212922, Note_off_c, 11, 50, 95
4, 212922, Note_off_c, 11, 45, 95
4, 212922, Note_off_c, 11, 40, 95
4, 213120, Note_on_c, 11, 45, 95
4, 213122, Note_on_c, 11, 50, 95
4, 213124, Note_on_c, 11, 57, 95
4, 213126, Note_on_c, 11, 62, 95
4, 213360, Note_off_c, 11, 62, 95
4, 213360, Note_off_c, 11, 57, 95
4, 213360, Note_off_c, 11, 50, 95
4, 213360, Note_off_c, 11, 45, 95
4, 213600, Note_on_c, 11, 45, 95
4, 213602, Note_on_c, 11, 50, 95
4, 213604, Note_on_c, 11, 57, 95
4, 213606, Note_on_c, 11, 62, 95
4, 213608, Note_on_c, 11, 66, 95
4, 213610, Note_on_c, 11, 69, 95
4, 213642, Note_off_c, 11, 69, 95
4, 213642, Note_off_c, 11, 66, 95
4, 213642, Note_off_c, 11, 62, 95
4, 213642, Note_off_c, 11, 57, 95
4, 213642, Note_off_c, 11, 50, 95
4, 213642, Note_off_c, 11, 45, 95
4, 213840, Note_on_c, 11, 62, 95
4, 213842, Note_on_c, 11, 57, 95
4, 213844, Note_on_c, 11, 50, 95
4, 213846, Note_on_c, 11, 45, 95
4, 214080, Note_off_c, 11, 62, 95
4, 214080, Note_off_c, 11, 57, 95
4, 214080, Note_off_c, 11, 50, 95
4, 214080, Note_off_c, 11, 45, 95
4, 214320, Note_on_c, 11, 64, 95
4, 214322, Note_on_c, 11, 59, 95
4, 214324, Note_on_c, 11, 52, 95
4, 214326, Note_on_c, 11, 47, 95
4, 214560, Note_off_c, 11, 64, 95
4, 214560, Note_off_c, 11, 59, 95
4, 214560, Note_off_c, 11, 52, 95
4, 214560, Note_off_c, 11, 47, 95
4, 214560, Note_on_c, 11, 47, 95
4, 214562, Note_on_c, 11, 52, 95
4, 214564, Note_on_c, 11, 59, 95
4, 214566, Note_on_c, 11, 64, 95
4, 214800, Note_off_c, 11, 64, 95
4, 214800, Note_off_c, 11, 59, 95
4, 214800, Note_off_c, 11, 52, 95
4, 214800, Note_off_c, 11, 47, 95
4, 215040, Note_on_c, 11, 47, 95
4, 215044, Note_on_c, 11, 54, 95
4, 215048, Note_on_c, 11, 59, 95
4, 215052, Note_on_c, 11, 63, 95
4, 215520, Note_off_c, 11, 63, 95
4, 215520, Note_off_c, 11, 59, 95
4, 215520, Note_off_c, 11, 54, 95
4, 215520, Note_off_c, 11, 47, 95
4, 215520, Note_on_c, 11, 47, 95
4, 215524, Note_on_c, 11, 54, 95
4, 215528, Note_on_c, 11, 59, 95
4, 215532, Note_on_c, 11, 63, 95
4, 216000, Note_off_c, 11, 63, 95
4, 216000, Note_off_c, 11, 59, 95
4, 216000, Note_off_c, 11, 54, 95
4, 216000, Note_off_c, 11, 47, 95
4, 216000, Note_on_c, 11, 45, 95
4, 216002, Note_on_c, 11, 45, 95
4, 216004, Note_on_c, 11, 50, 95
4, 216006, Note_on_c, 11, 55, 95
4, 216008, Note_on_c, 11, 59, 95
4, 216010, Note_on_c, 11, 64, 95
4, 216042, Note_off_c, 11, 64, 95
4, 216042, Note_off_c, 11, 59, 95
4, 216042, Note_off_c, 11, 55, 95
4, 216042, Note_off_c, 11, 50, 95
4, 216042, Note_off_c, 11, 45, 95
4, 216042, Note_off_c, 11, 45, 95
4, 216240, Note_on_c, 11, 64, 95
4, 216242, Note_on_c, 11, 59, 95
4, 216244, Note_on_c, 11, 55, 95
4, 216246, Note_on_c, 11, 50, 95
4, 216248, Note_on_c, 11, 45, 95
4, 216250, Note_on_c, 11, 40, 95
4, 216282, Note_off_c, 11, 64, 95
4, 216282, Note_off_c, 11, 59, 95
4, 216282, Note_off_c, 11, 55, 95
4, 216282, Note_off_c, 11, 50, 95
4, 216282, Note_off_c, 11, 45, 95
4, 216282, Note_off_c, 11, 40, 95
4, 216480, Note_on_c, 11, 44, 95
4, 216482, Note_on_c, 11, 45, 95
4, 216484, Note_on_c, 11, 50, 95
4, 216486, Note_on_c, 11, 55, 95
4, 216488, Note_on_c, 11, 59, 95
4, 216490, Note_on_c, 11, 64, 95
4, 216522, Note_off_c, 11, 64, 95
4, 216522, Note_off_c, 11, 59, 95
4, 216522, Note_off_c, 11, 55, 95
4, 216522, Note_off_c, 11, 50, 95
4, 216522, Note_off_c, 11, 45, 95
4, 216522, Note_off_c, 11, 44, 95
4, 216720, Note_on_c, 11, 64, 95
4, 216722, Note_on_c, 11, 59, 95
4, 216724, Note_on_c, 11, 55, 95
4, 216726, Note_on_c, 11, 50, 95
4, 216728, Note_on_c, 11, 45, 95
4, 216730, Note_on_c, 11, 40, 95
4, 216762, Note_off_c, 11, 64, 95
4, 216762, Note_off_c, 11, 59, 95
4, 216762, Note_off_c, 11, 55, 95
4, 216762, Note_off_c, 11, 50, 95
4, 216762, Note_off_c, 11, 45, 95
4, 216762, Note_off_c, 11, 40, 95
4, 216960, Note_on_c, 11, 45, 95
4, 216964, Note_on_c, 11, 50, 95
4, 216968, Note_on_c, 11, 57, 95
4, 216972, Note_on_c, 11, 62, 95
4, 217440, Note_off_c, 11, 62, 95
4, 217440, Note_off_c, 11, 57, 95
4, 217440, Note_off_c, 11, 50, 95
4, 217440, Note_off_c, 11, 45, 95
4, 217440, Note_on_c, 11, 45, 95
4, 217444, Note_on_c, 11, 50, 95
4, 217448, Note_on_c, 11, 57, 95
4, 217452, Note_on_c, 11, 62, 95
4, 217920, Note_off_c, 11, 62, 95
4, 217920, Note_off_c, 11, 57, 95
4, 217920, Note_off_c, 11, 50, 95
4, 217920, Note_off_c, 11, 45, 95
4, 217920, Note_on_c, 11, 40, 95
4, 217922, Note_on_c, 11, 45, 95
4, 217924, Note_on_c, 11, 50, 95
4, 217926, Note_on_c, 11, 55, 95
4, 217928, Note_on_c, 11, 59, 95
4, 217930, Note_on_c, 11, 64, 95
4, 217962, Note_off_c, 11, 64, 95
4, 217962, Note_off_c, 11, 59, 95
4, 217962, Note_off_c, 11, 55, 95
4, 217962, Note_off_c, 11, 50, 95
4, 217962, Note_off_c, 11, 45, 95
4, 217962, Note_off_c, 11, 40, 95
4, 218160, Note_on_c, 11, 64, 95
4, 218162, Note_on_c, 11, 59, 95
4, 218164, Note_on_c, 11, 55, 95
4, 218166, Note_on_c, 11, 50, 95
4, 218168, Note_on_c, 11, 45, 95
4, 218170, Note_on_c, 11, 40, 95
4, 218202, Note_off_c, 11, 64, 95
4, 218202, Note_off_c, 11, 59, 95
4, 218202, Note_off_c, 11, 55, 95
4, 218202, Note_off_c, 11, 50, 95
4, 218202, Note_off_c, 11, 45, 95
4, 218202, Note_off_c, 11, 40, 95
4, 218400, Note_on_c, 11, 40, 95
4, 218402, Note_on_c, 11, 45, 95
4, 218404, Note_on_c, 11, 50, 95
4, 218406, Note_on_c, 11, 55, 95
4, 218408, Note_on_c, 11, 59, 95
4, 218410, Note_on_c, 11, 64, 95
4, 218442, Note_off_c, 11, 64, 95
4, 218442, Note_off_c, 11, 59, 95
4, 218442, Note_off_c, 11, 55, 95
4, 218442, Note_off_c, 11, 50, 95
4, 218442, Note_off_c, 11, 45, 95
4, 218442, Note_off_c, 11, 40, 95
4, 218640, Note_on_c, 11, 64, 95
4, 218642, Note_on_c, 11, 59, 95
4, 218644, Note_on_c, 11, 55, 95
4, 218646, Note_on_c, 11, 50, 95
4, 218648, Note_on_c, 11, 45, 95
4, 218650, Note_on_c, 11, 40, 95
4, 218682, Note_off_c, 11, 64, 95
4, 218682, Note_off_c, 11, 59, 95
4, 218682, Note_off_c, 11, 55, 95
4, 218682, Note_off_c, 11, 50, 95
4, 218682, Note_off_c, 11, 45, 95
4, 218682, Note_off_c, 11, 40, 95
4, 218880, Note_on_c, 11, 47, 95
4, 218884, Note_on_c, 11, 52, 95
4, 218888, Note_on_c, 11, 59, 95
4, 218892, Note_on_c, 11, 64, 95
4, 219360, Note_off_c, 11, 64, 95
4, 219360, Note_off_c, 11, 59, 95
4, 219360, Note_off_c, 11, 52, 95
4, 219360, Note_off_c, 11, 47, 95
4, 219360, Note_on_c, 11, 47, 95
4, 219364, Note_on_c, 11, 52, 95
4, 219368, Note_on_c, 11, 59, 95
4, 219372, Note_on_c, 11, 64, 95
4, 219840, Note_off_c, 11, 64, 95
4, 219840, Note_off_c, 11, 59, 95
4, 219840, Note_off_c, 11, 52, 95
4, 219840, Note_off_c, 11, 47, 95
4, 219840, Note_on_c, 11, 45, 95
4, 219842, Note_on_c, 11, 45, 95
4, 219844, Note_on_c, 11, 50, 95
4, 219846, Note_on_c, 11, 55, 95
4, 219848, Note_on_c, 11, 59, 95
4, 219850, Note_on_c, 11, 64, 95
4, 219882, Note_off_c, 11, 64, 95
4, 219882, Note_off_c, 11, 59, 95
4, 219882, Note_off_c, 11, 55, 95
4, 219882, Note_off_c, 11, 50, 95
4, 219882, Note_off_c, 11, 45, 95
4, 219882, Note_off_c, 11, 45, 95
4, 220080, Note_on_c, 11, 64, 95
4, 220082, Note_on_c, 11, 59, 95
4, 220084, Note_on_c, 11, 55, 95
4, 220086, Note_on_c, 11, 50, 95
4, 220088, Note_on_c, 11, 45, 95
4, 220090, Note_on_c, 11, 40, 95
4, 220122, Note_off_c, 11, 64, 95
4, 220122, Note_off_c, 11, 59, 95
4, 220122, Note_off_c, 11, 55, 95
4, 220122, Note_off_c, 11, 50, 95
4, 220122, Note_off_c, 11, 45, 95
4, 220122, Note_off_c, 11, 40, 95
4, 220320, Note_on_c, 11, 44, 95
4, 220322, Note_on_c, 11, 45, 95
4, 220324, Note_on_c, 11, 50, 95
4, 220326, Note_on_c, 11, 55, 95
4, 220328, Note_on_c, 11, 59, 95
4, 220330, Note_on_c, 11, 64, 95
4, 220362, Note_off_c, 11, 64, 95
4, 220362, Note_off_c, 11, 59, 95
4, 220362, Note_off_c, 11, 55, 95
4, 220362, Note_off_c, 11, 50, 95
4, 220362, Note_off_c, 11, 45, 95
4, 220362, Note_off_c, 11, 44, 95
4, 220560, Note_on_c, 11, 64, 95
4, 220562, Note_on_c, 11, 59, 95
4, 220564, Note_on_c, 11, 55, 95
4, 220566, Note_on_c, 11, 50, 95
4, 220568, Note_on_c, 11, 45, 95
4, 220570, Note_on_c, 11, 40, 95
4, 220602, Note_off_c, 11, 64, 95
4, 220602, Note_off_c, 11, 59, 95
4, 220602, Note_off_c, 11, 55, 95
4, 220602, Note_off_c, 11, 50, 95
4, 220602, Note_off_c, 11, 45, 95
4, 220602, Note_off_c, 11, 40, 95
4, 220800, Note_on_c, 11, 45, 95
4, 220802, Note_on_c, 11, 50, 95
4, 220804, Note_on_c, 11, 57, 95
4, 220806, Note_on_c, 11, 62, 95
4, 221040, Note_off_c, 11, 62, 95
4, 221040, Note_off_c, 11, 57, 95
4, 221040, Note_off_c, 11, 50, 95
4, 221040, Note_off_c, 11, 45, 95
4, 221280, Note_on_c, 11, 45, 95
4, 221282, Note_on_c, 11, 50, 95
4, 221284, Note_on_c, 11, 57, 95
4, 221286, Note_on_c, 11, 62, 95
4, 221288, Note_on_c, 11, 66, 95
4, 221290, Note_on_c, 11, 69, 95
4, 221322, Note_off_c, 11, 69, 95
4, 221322, Note_off_c, 11, 66, 95
4, 221322, Note_off_c, 11, 62, 95
4, 221322, Note_off_c, 11, 57, 95
4, 221322, Note_off_c, 11, 50, 95
4, 221322, Note_off_c, 11, 45, 95
4, 221520, Note_on_c, 11, 62, 95
4, 221522, Note_on_c, 11, 57, 95
4, 221524, Note_on_c, 11, 50, 95
4, 221526, Note_on_c, 11, 45, 95
4, 221760, Note_off_c, 11, 62, 95
4, 221760, Note_off_c, 11, 57, 95
4, 221760, Note_off_c, 11, 50, 95
4, 221760, Note_off_c, 11, 45, 95
4, 222000, Note_on_c, 11, 64, 95
4, 222002, Note_on_c, 11, 59, 95
4, 222004, Note_on_c, 11, 52, 95
4, 222006, Note_on_c, 11, 47, 95
4, 222240, Note_off_c, 11, 64, 95
4, 222240, Note_off_c, 11, 59, 95
4, 222240, Note_off_c, 11, 52, 95
4, 222240, Note_off_c, 11, 47, 95
4, 222240, Note_on_c, 11, 47, 95
4, 222242, Note_on_c, 11, 52, 95
4, 222244, Note_on_c, 11, 59, 95
4, 222246, Note_on_c, 11, 64, 95
4, 222480, Note_off_c, 11, 64, 95
4, 222480, Note_off_c, 11, 59, 95
4, 222480, Note_off_c, 11, 52, 95
4, 222480, Note_off_c, 11, 47, 95
4, 222720, Note_on_c, 11, 47, 95
4, 222724, Note_on_c, 11, 54, 95
4, 222728, Note_on_c, 11, 59, 95
4, 222732, Note_on_c, 11, 63, 95
4, 223200, Note_off_c, 11, 63, 95
4, 223200, Note_off_c, 11, 59, 95
4, 223200, Note_off_c, 11, 54, 95
4, 223200, Note_off_c, 11, 47, 95
4, 223200, Note_on_c, 11, 47, 95
4, 223204, Note_on_c, 11, 54, 95
4, 223208, Note_on_c, 11, 59, 95
4, 223212, Note_on_c, 11, 63, 95
4, 223680, Note_off_c, 11, 63, 95
4, 223680, Note_off_c, 11, 59, 95
4, 223680, Note_off_c, 11, 54, 95
4, 223680, Note_off_c, 11, 47, 95
4, 223680, Note_on_c, 11, 45, 95
4, 223682, Note_on_c, 11, 45, 95
4, 223684, Note_on_c, 11, 50, 95
4, 223686, Note_on_c, 11, 55, 95
4, 223688, Note_on_c, 11, 59, 95
4, 223690, Note_on_c, 11, 64, 95
4, 223722, Note_off_c, 11, 64, 95
4, 223722, Note_off_c, 11, 59, 95
4, 223722, Note_off_c, 11, 55, 95
4, 223722, Note_off_c, 11, 50, 95
4, 223722, Note_off_c, 11, 45, 95
4, 223722, Note_off_c, 11, 45, 95
4, 223920, Note_on_c, 11, 64, 95
4, 223922, Note_on_c, 11, 59, 95
4, 223924, Note_on_c, 11, 55, 95
4, 223926, Note_on_c, 11, 50, 95
4, 223928, Note_on_c, 11, 45, 95
4, 223930, Note_on_c, 11, 40, 95
4, 223962, Note_off_c, 11, 64, 95
4, 223962, Note_off_c, 11, 59, 95
4, 223962, Note_off_c, 11, 55, 95
4, 223962, Note_off_c, 11, 50, 95
4, 223962, Note_off_c, 11, 45, 95
4, 223962, Note_off_c, 11, 40, 95
4, 224160, Note_on_c, 11, 44, 95
4, 224162, Note_on_c, 11, 45, 95
4, 224164, Note_on_c, 11, 50, 95
4, 224166, Note_on_c, 11, 55, 95
4, 224168, Note_on_c, 11, 59, 95
4, 224170, Note_on_c, 11, 64, 95
4, 224202, Note_off_c, 11, 64, 95
4, 224202, Note_off_c, 11, 59, 95
4, 224202, Note_off_c, 11, 55, 95
4, 224202, Note_off_c, 11, 50, 95
4, 224202, Note_off_c, 11, 45, 95
4, 224202, Note_off_c, 11, 44, 95
4, 224400, Note_on_c, 11, 64, 95
4, 224402, Note_on_c, 11, 59, 95
4, 224404, Note_on_c, 11, 55, 95
4, 224406, Note_on_c, 11, 50, 95
4, 224408, Note_on_c, 11, 45, 95
4, 224410, Note_on_c, 11, 40, 95
4, 224442, Note_off_c, 11, 64, 95
4, 224442, Note_off_c, 11, 59, 95
4, 224442, Note_off_c, 11, 55, 95
4, 224442, Note_off_c, 11, 50, 95
4, 224442, Note_off_c, 11, 45, 95
4, 224442, Note_off_c, 11, 40, 95
4, 224640, Note_on_c, 11, 45, 95
4, 224644, Note_on_c, 11, 50, 95
4, 224648, Note_on_c, 11, 57, 95
4, 224652, Note_on_c, 11, 62, 95
4, 225120, Note_off_c, 11, 62, 95
4, 225120, Note_off_c, 11, 57, 95
4, 225120, Note_off_c, 11, 50, 95
4, 225120, Note_off_c, 11, 45, 95
4, 225120, Note_on_c, 11, 45, 95
4, 225124, Note_on_c, 11, 50, 95
4, 225128, Note_on_c, 11, 57, 95
4, 225132, Note_on_c, 11, 62, 95
4, 225600, Note_off_c, 11, 62, 95
4, 225600, Note_off_c, 11, 57, 95
4, 225600, Note_off_c, 11, 50, 95
4, 225600, Note_off_c, 11, 45, 95
4, 225600, Note_on_c, 11, 40, 95
4, 225602, Note_on_c, 11, 45, 95
4, 225604, Note_on_c, 11, 50, 95
4, 225606, Note_on_c, 11, 55, 95
4, 225608, Note_on_c, 11, 59, 95
4, 225610, Note_on_c, 11, 64, 95
4, 225642, Note_off_c, 11, 64, 95
4, 225642, Note_off_c, 11, 59, 95
4, 225642, Note_off_c, 11, 55, 95
4, 225642, Note_off_c, 11, 50, 95
4, 225642, Note_off_c, 11, 45, 95
4, 225642, Note_off_c, 11, 40, 95
4, 225840, Note_on_c, 11, 64, 95
4, 225842, Note_on_c, 11, 59, 95
4, 225844, Note_on_c, 11, 55, 95
4, 225846, Note_on_c, 11, 50, 95
4, 225848, Note_on_c, 11, 45, 95
4, 225850, Note_on_c, 11, 40, 95
4, 225882, Note_off_c, 11, 64, 95
4, 225882, Note_off_c, 11, 59, 95
4, 225882, Note_off_c, 11, 55, 95
4, 225882, Note_off_c, 11, 50, 95
4, 225882, Note_off_c, 11, 45, 95
4, 225882, Note_off_c, 11, 40, 95
4, 226080, Note_on_c, 11, 40, 95
4, 226082, Note_on_c, 11, 45, 95
4, 226084, Note_on_c, 11, 50, 95
4, 226086, Note_on_c, 11, 55, 95
4, 226088, Note_on_c, 11, 59, 95
4, 226090, Note_on_c, 11, 64, 95
4, 226122, Note_off_c, 11, 64, 95
4, 226122, Note_off_c, 11, 59, 95
4, 226122, Note_off_c, 11, 55, 95
4, 226122, Note_off_c, 11, 50, 95
4, 226122, Note_off_c, 11, 45, 95
4, 226122, Note_off_c, 11, 40, 95
4, 226320, Note_on_c, 11, 64, 95
4, 226322, Note_on_c, 11, 59, 95
4, 226324, Note_on_c, 11, 55, 95
4, 226326, Note_on_c, 11, 50, 95
4, 226328, Note_on_c, 11, 45, 95
4, 226330, Note_on_c, 11, 40, 95
4, 226362, Note_off_c, 11, 64, 95
4, 226362, Note_off_c, 11, 59, 95
4, 226362, Note_off_c, 11, 55, 95
4, 226362, Note_off_c, 11, 50, 95
4, 226362, Note_off_c, 11, 45, 95
4, 226362, Note_off_c, 11, 40, 95
4, 226560, Note_on_c, 11, 47, 95
4, 226564, Note_on_c, 11, 52, 95
4, 226568, Note_on_c, 11, 59, 95
4, 226572, Note_on_c, 11, 64, 95
4, 227040, Note_off_c, 11, 64, 95
4, 227040, Note_off_c, 11, 59, 95
4, 227040, Note_off_c, 11, 52, 95
4, 227040, Note_off_c, 11, 47, 95
4, 227040, Note_on_c, 11, 47, 95
4, 227044, Note_on_c, 11, 52, 95
4, 227048, Note_on_c, 11, 59, 95
4, 227052, Note_on_c, 11, 64, 95
4, 227520, Note_off_c, 11, 64, 95
4, 227520, Note_off_c, 11, 59, 95
4, 227520, Note_off_c, 11, 52, 95
4, 227520, Note_off_c, 11, 47, 95
4, 227520, Note_on_c, 11, 45, 95
4, 227522, Note_on_c, 11, 45, 95
4, 227524, Note_on_c, 11, 50, 95
4, 227526, Note_on_c, 11, 55, 95
4, 227528, Note_on_c, 11, 59, 95
4, 227530, Note_on_c, 11, 64, 95
4, 227562, Note_off_c, 11, 64, 95
4, 227562, Note_off_c, 11, 59, 95
4, 227562, Note_off_c, 11, 55, 95
4, 227562, Note_off_c, 11, 50, 95
4, 227562, Note_off_c, 11, 45, 95
4, 227562, Note_off_c, 11, 45, 95
4, 227760, Note_on_c, 11, 64, 95
4, 227762, Note_on_c, 11, 59, 95
4, 227764, Note_on_c, 11, 55, 95
4, 227766, Note_on_c, 11, 50, 95
4, 227768, Note_on_c, 11, 45, 95
4, 227770, Note_on_c, 11, 40, 95
4, 227802, Note_off_c, 11, 64, 95
4, 227802, Note_off_c, 11, 59, 95
4, 227802, Note_off_c, 11, 55, 95
4, 227802, Note_off_c, 11, 50, 95
4, 227802, Note_off_c, 11, 45, 95
4, 227802, Note_off_c, 11, 40, 95
4, 228000, Note_on_c, 11, 44, 95
4, 228002, Note_on_c, 11, 45, 95
4, 228004, Note_on_c, 11, 50, 95
4, 228006, Note_on_c, 11, 55, 95
4, 228008, Note_on_c, 11, 59, 95
4, 228010, Note_on_c, 11, 64, 95
4, 228042, Note_off_c, 11, 64, 95
4, 228042, Note_off_c, 11, 59, 95
4, 228042, Note_off_c, 11, 55, 95
4, 228042, Note_off_c, 11, 50, 95
4, 228042, Note_off_c, 11, 45, 95
4, 228042, Note_off_c, 11, 44, 95
4, 228240, Note_on_c, 11, 64, 95
4, 228242, Note_on_c, 11, 59, 95
4, 228244, Note_on_c, 11, 55, 95
4, 228246, Note_on_c, 11, 50, 95
4, 228248, Note_on_c, 11, 45, 95
4, 228250, Note_on_c, 11, 40, 95
4, 228282, Note_off_c, 11, 64, 95
4, 228282, Note_off_c, 11, 59, 95
4, 228282, Note_off_c, 11, 55, 95
4, 228282, Note_off_c, 11, 50, 95
4, 228282, Note_off_c, 11, 45, 95
4, 228282, Note_off_c, 11, 40, 95
4, 228480, Note_on_c, 11, 45, 95
4, 228482, Note_on_c, 11, 50, 95
4, 228484, Note_on_c, 11, 57, 95
4, 228486, Note_on_c, 11, 62, 95
4, 228720, Note_off_c, 11, 62, 95
4, 228720, Note_off_c, 11, 57, 95
4, 228720, Note_off_c, 11, 50, 95
4, 228720, Note_off_c, 11, 45, 95
4, 228960, Note_on_c, 11, 45, 95
4, 228962, Note_on_c, 11, 50, 95
4, 228964, Note_on_c, 11, 57, 95
4, 228966, Note_on_c, 11, 62, 95
4, 228968, Note_on_c, 11, 66, 95
4, 228970, Note_on_c, 11, 69, 95
4, 229002, Note_off_c, 11, 69, 95
4, 229002, Note_off_c, 11, 66, 95
4, 229002, Note_off_c, 11, 62, 95
4, 229002, Note_off_c, 11, 57, 95
4, 229002, Note_off_c, 11, 50, 95
4, 229002, Note_off_c, 11, 45, 95
4, 229200, Note_on_c, 11, 62, 95
4, 229202, Note_on_c, 11, 57, 95
4, 229204, Note_on_c, 11, 50, 95
4, 229206, Note_on_c, 11, 45, 95
4, 229440, Note_off_c, 11, 62, 95
4, 229440, Note_off_c, 11, 57, 95
4, 229440, Note_off_c, 11, 50, 95
4, 229440, Note_off_c, 11, 45, 95
4, 229680, Note_on_c, 11, 64, 95
4, 229682, Note_on_c, 11, 59, 95
4, 229684, Note_on_c, 11, 52, 95
4, 229686, Note_on_c, 11, 47, 95
4, 229920, Note_off_c, 11, 64, 95
4, 229920, Note_off_c, 11, 59, 95
4, 229920, Note_off_c, 11, 52, 95
4, 229920, Note_off_c, 11, 47, 95
4, 229920, Note_on_c, 11, 47, 95
4, 229922, Note_on_c, 11, 52, 95
4, 229924, Note_on_c, 11, 59, 95
4, 229926, Note_on_c, 11, 64, 95
4, 230160, Note_off_c, 11, 64, 95
4, 230160, Note_off_c, 11, 59, 95
4, 230160, Note_off_c, 11, 52, 95
4, 230160, Note_off_c, 11, 47, 95
4, 230400, Note_on_c, 11, 47, 95
4, 230404, Note_on_c, 11, 54, 95
4, 230408, Note_on_c, 11, 59, 95
4, 230412, Note_on_c, 11, 63, 95
4, 230880, Note_off_c, 11, 63, 95
4, 230880, Note_off_c, 11, 59, 95
4, 230880, Note_off_c, 11, 54, 95
4, 230880, Note_off_c, 11, 47, 95
4, 230880, Note_on_c, 11, 47, 95
4, 230884, Note_on_c, 11, 54, 95
4, 230888, Note_on_c, 11, 59, 95
4, 230892, Note_on_c, 11, 63, 95
4, 231360, Note_off_c, 11, 63, 95
4, 231360, Note_off_c, 11, 59, 95
4, 231360, Note_off_c, 11, 54, 95
4, 231360, Note_off_c, 11, 47, 95
4, 231360, Note_on_c, 11, 45, 95
4, 231362, Note_on_c, 11, 45, 95
4, 231364, Note_on_c, 11, 50, 95
4, 231366, Note_on_c, 11, 55, 95
4, 231368, Note_on_c, 11, 59, 95
4, 231370, Note_on_c, 11, 64, 95
4, 231402, Note_off_c, 11, 64, 95
4, 231402, Note_off_c, 11, 59, 95
4, 231402, Note_off_c, 11, 55, 95
4, 231402, Note_off_c, 11, 50, 95
4, 231402, Note_off_c, 11, 45, 95
4, 231402, Note_off_c, 11, 45, 95
4, 231600, Note_on_c, 11, 64, 95
4, 231602, Note_on_c, 11, 59, 95
4, 231604, Note_on_c, 11, 55, 95
4, 231606, Note_on_c, 11, 50, 95
4, 231608, Note_on_c, 11, 45, 95
4, 231610, Note_on_c, 11, 40, 95
4, 231642, Note_off_c, 11, 64, 95
4, 231642, Note_off_c, 11, 59, 95
4, 231642, Note_off_c, 11, 55, 95
4, 231642, Note_off_c, 11, 50, 95
4, 231642, Note_off_c, 11, 45, 95
4, 231642, Note_off_c, 11, 40, 95
4, 231840, Note_on_c, 11, 44, 95
4, 231842, Note_on_c, 11, 45, 95
4, 231844, Note_on_c, 11, 50, 95
4, 231846, Note_on_c, 11, 55, 95
4, 231848, Note_on_c, 11, 59, 95
4, 231850, Note_on_c, 11, 64, 95
4, 231882, Note_off_c, 11, 64, 95
4, 231882, Note_off_c, 11, 59, 95
4, 231882, Note_off_c, 11, 55, 95
4, 231882, Note_off_c, 11, 50, 95
4, 231882, Note_off_c, 11, 45, 95
4, 231882, Note_off_c, 11, 44, 95
4, 232080, Note_on_c, 11, 64, 95
4, 232082, Note_on_c, 11, 59, 95
4, 232084, Note_on_c, 11, 55, 95
4, 232086, Note_on_c, 11, 50, 95
4, 232088, Note_on_c, 11, 45, 95
4, 232090, Note_on_c, 11, 40, 95
4, 232122, Note_off_c, 11, 64, 95
4, 232122, Note_off_c, 11, 59, 95
4, 232122, Note_off_c, 11, 55, 95
4, 232122, Note_off_c, 11, 50, 95
4, 232122, Note_off_c, 11, 45, 95
4, 232122, Note_off_c, 11, 40, 95
4, 232320, Note_on_c, 11, 45, 95
4, 232324, Note_on_c, 11, 50, 95
4, 232328, Note_on_c, 11, 57, 95
4, 232332, Note_on_c, 11, 62, 95
4, 232800, Note_off_c, 11, 62, 95
4, 232800, Note_off_c, 11, 57, 95
4, 232800, Note_off_c, 11, 50, 95
4, 232800, Note_off_c, 11, 45, 95
4, 232800, Note_on_c, 11, 45, 95
4, 232804, Note_on_c, 11, 50, 95
4, 232808, Note_on_c, 11, 57, 95
4, 232812, Note_on_c, 11, 62, 95
4, 233280, Note_off_c, 11, 62, 95
4, 233280, Note_off_c, 11, 57, 95
4, 233280, Note_off_c, 11, 50, 95
4, 233280, Note_off_c, 11, 45, 95
4, 233280, Note_on_c, 11, 40, 95
4, 233282, Note_on_c, 11, 45, 95
4, 233284, Note_on_c, 11, 50, 95
4, 233286, Note_on_c, 11, 55, 95
4, 233288, Note_on_c, 11, 59, 95
4, 233290, Note_on_c, 11, 64, 95
4, 233322, Note_off_c, 11, 64, 95
4, 233322, Note_off_c, 11, 59, 95
4, 233322, Note_off_c, 11, 55, 95
4, 233322, Note_off_c, 11, 50, 95
4, 233322, Note_off_c, 11, 45, 95
4, 233322, Note_off_c, 11, 40, 95
4, 233520, Note_on_c, 11, 64, 95
4, 233522, Note_on_c, 11, 59, 95
4, 233524, Note_on_c, 11, 55, 95
4, 233526, Note_on_c, 11, 50, 95
4, 233528, Note_on_c, 11, 45, 95
4, 233530, Note_on_c, 11, 40, 95
4, 233562, Note_off_c, 11, 64, 95
4, 233562, Note_off_c, 11, 59, 95
4, 233562, Note_off_c, 11, 55, 95
4, 233562, Note_off_c, 11, 50, 95
4, 233562, Note_off_c, 11, 45, 95
4, 233562, Note_off_c, 11, 40, 95
4, 233760, Note_on_c, 11, 40, 95
4, 233762, Note_on_c, 11, 45, 95
4, 233764, Note_on_c, 11, 50, 95
4, 233766, Note_on_c, 11, 55, 95
4, 233768, Note_on_c, 11, 59, 95
4, 233770, Note_on_c, 11, 64, 95
4, 233802, Note_off_c, 11, 64, 95
4, 233802, Note_off_c, 11, 59, 95
4, 233802, Note_off_c, 11, 55, 95
4, 233802, Note_off_c, 11, 50, 95
4, 233802, Note_off_c, 11, 45, 95
4, 233802, Note_off_c, 11, 40, 95
4, 234000, Note_on_c, 11, 64, 95
4, 234002, Note_on_c, 11, 59, 95
4, 234004, Note_on_c, 11, 55, 95
4, 234006, Note_on_c, 11, 50, 95
4, 234008, Note_on_c, 11, 45, 95
4, 234010, Note_on_c, 11, 40, 95
4, 234042, Note_off_c, 11, 64, 95
4, 234042, Note_off_c, 11, 59, 95
4, 234042, Note_off_c, 11, 55, 95
4, 234042, Note_off_c, 11, 50, 95
4, 234042, Note_off_c, 11, 45, 95
4, 234042, Note_off_c, 11, 40, 95
4, 234240, Note_on_c, 11, 47, 95
4, 234244, Note_on_c, 11, 52, 95
4, 234248, Note_on_c, 11, 59, 95
4, 234252, Note_on_c, 11, 64, 95
4, 234720, Note_off_c, 11, 64, 95
4, 234720, Note_off_c, 11, 59, 95
4, 234720, Note_off_c, 11, 52, 95
4, 234720, Note_off_c, 11, 47, 95
4, 234720, Note_on_c, 11, 47, 95
4, 234724, Note_on_c, 11, 52, 95
4, 234728, Note_on_c, 11, 59, 95
4, 234732, Note_on_c, 11, 64, 95
4, 235200, Note_off_c, 11, 64, 95
4, 235200, Note_off_c, 11, 59, 95
4, 235200, Note_off_c, 11, 52, 95
4, 235200, Note_off_c, 11, 47, 95
4, 235200, Note_on_c, 11, 45, 95
4, 235202, Note_on_c, 11, 45, 95
4, 235204, Note_on_c, 11, 50, 95
4, 235206, Note_on_c, 11, 55, 95
4, 235208, Note_on_c, 11, 59, 95
4, 235210, Note_on_c, 11, 64, 95
4, 235242, Note_off_c, 11, 64, 95
4, 235242, Note_off_c, 11, 59, 95
4, 235242, Note_off_c, 11, 55, 95
4, 235242, Note_off_c, 11, 50, 95
4, 235242, Note_off_c, 11, 45, 95
4, 235242, Note_off_c, 11, 45, 95
4, 235440, Note_on_c, 11, 64, 95
4, 235442, Note_on_c, 11, 59, 95
4, 235444, Note_on_c, 11, 55, 95
4, 235446, Note_on_c, 11, 50, 95
4, 235448, Note_on_c, 11, 45, 95
4, 235450, Note_on_c, 11, 40, 95
4, 235482, Note_off_c, 11, 64, 95
4, 235482, Note_off_c, 11, 59, 95
4, 235482, Note_off_c, 11, 55, 95
4, 235482, Note_off_c, 11, 50, 95
4, 235482, Note_off_c, 11, 45, 95
4, 235482, Note_off_c, 11, 40, 95
4, 235680, Note_on_c, 11, 44, 95
4, 235682, Note_on_c, 11, 45, 95
4, 235684, Note_on_c, 11, 50, 95
4, 235686, Note_on_c, 11, 55, 95
4, 235688, Note_on_c, 11, 59, 95
4, 235690, Note_on_c, 11, 64, 95
4, 235722, Note_off_c, 11, 64, 95
4, 235722, Note_off_c, 11, 59, 95
4, 235722, Note_off_c, 11, 55, 95
4, 235722, Note_off_c, 11, 50, 95
4, 235722, Note_off_c, 11, 45, 95
4, 235722, Note_off_c, 11, 44, 95
4, 235920, Note_on_c, 11, 64, 95
4, 235922, Note_on_c, 11, 59, 95
4, 235924, Note_on_c, 11, 55, 95
4, 235926, Note_on_c, 11, 50, 95
4, 235928, Note_on_c, 11, 45, 95
4, 235930, Note_on_c, 11, 40, 95
4, 235962, Note_off_c, 11, 64, 95
4, 235962, Note_off_c, 11, 59, 95
4, 235962, Note_off_c, 11, 55, 95
4, 235962, Note_off_c, 11, 50, 95
4, 235962, Note_off_c, 11, 45, 95
4, 235962, Note_off_c, 11, 40, 95
4, 236160, Note_on_c, 11, 45, 95
4, 236162, Note_on_c, 11, 50, 95
4, 236164, Note_on_c, 11, 57, 95
4, 236166, Note_on_c, 11, 62, 95
4, 236400, Note_off_c, 11, 62, 95
4, 236400, Note_off_c, 11, 57, 95
4, 236400, Note_off_c, 11, 50, 95
4, 236400, Note_off_c, 11, 45, 95
4, 236640, Note_on_c, 11, 45, 95
4, 236642, Note_on_c, 11, 50, 95
4, 236644, Note_on_c, 11, 57, 95
4, 236646, Note_on_c, 11, 62, 95
4, 236648, Note_on_c, 11, 66, 95
4, 236650, Note_on_c, 11, 69, 95
4, 236682, Note_off_c, 11, 69, 95
4, 236682, Note_off_c, 11, 66, 95
4, 236682, Note_off_c, 11, 62, 95
4, 236682, Note_off_c, 11, 57, 95
4, 236682, Note_off_c, 11, 50, 95
4, 236682, Note_off_c, 11, 45, 95
4, 236880, Note_on_c, 11, 62, 95
4, 236882, Note_on_c, 11, 57, 95
4, 236884, Note_on_c, 11, 50, 95
4, 236886, Note_on_c, 11, 45, 95
4, 237120, Note_off_c, 11, 62, 95
4, 237120, Note_off_c, 11, 57, 95
4, 237120, Note_off_c, 11, 50, 95
4, 237120, Note_off_c, 11, 45, 95
4, 237360, Note_on_c, 11, 64, 95
4, 237362, Note_on_c, 11, 59, 95
4, 237364, Note_on_c, 11, 52, 95
4, 237366, Note_on_c, 11, 47, 95
4, 237600, Note_off_c, 11, 64, 95
4, 237600, Note_off_c, 11, 59, 95
4, 237600, Note_off_c, 11, 52, 95
4, 237600, Note_off_c, 11, 47, 95
4, 237600, Note_on_c, 11, 47, 95
4, 237602, Note_on_c, 11, 52, 95
4, 237604, Note_on_c, 11, 59, 95
4, 237606, Note_on_c, 11, 64, 95
4, 237840, Note_off_c, 11, 64, 95
4, 237840, Note_off_c, 11, 59, 95
4, 237840, Note_off_c, 11, 52, 95
4, 237840, Note_off_c, 11, 47, 95
4, 238080, Note_on_c, 11, 47, 95
4, 238084, Note_on_c, 11, 54, 95
4, 238088, Note_on_c, 11, 59, 95
4, 238092, Note_on_c, 11, 63, 95
4, 238560, Note_off_c, 11, 63, 95
4, 238560, Note_off_c, 11, 59, 95
4, 238560, Note_off_c, 11, 54, 95
4, 238560, Note_off_c, 11, 47, 95
4, 238560, Note_on_c, 11, 47, 95
4, 238564, Note_on_c, 11, 54, 95
4, 238568, Note_on_c, 11, 59, 95
4, 238572, Note_on_c, 11, 63, 95
4, 239040, Note_off_c, 11, 63, 95
4, 239040, Note_off_c, 11, 59, 95
4, 239040, Note_off_c, 11, 54, 95
4, 239040, Note_off_c, 11, 47, 95
4, 239040, Note_on_c, 11, 45, 95
4, 239042, Note_on_c, 11, 45, 95
4, 239044, Note_on_c, 11, 50, 95
4, 239046, Note_on_c, 11, 55, 95
4, 239048, Note_on_c, 11, 59, 95
4, 239050, Note_on_c, 11, 64, 95
4, 239082, Note_off_c, 11, 64, 95
4, 239082, Note_off_c, 11, 59, 95
4, 239082, Note_off_c, 11, 55, 95
4, 239082, Note_off_c, 11, 50, 95
4, 239082, Note_off_c, 11, 45, 95
4, 239082, Note_off_c, 11, 45, 95
4, 239280, Note_on_c, 11, 64, 95
4, 239282, Note_on_c, 11, 59, 95
4, 239284, Note_on_c, 11, 55, 95
4, 239286, Note_on_c, 11, 50, 95
4, 239288, Note_on_c, 11, 45, 95
4, 239290, Note_on_c, 11, 40, 95
4, 239322, Note_off_c, 11, 64, 95
4, 239322, Note_off_c, 11, 59, 95
4, 239322, Note_off_c, 11, 55, 95
4, 239322, Note_off_c, 11, 50, 95
4, 239322, Note_off_c, 11, 45, 95
4, 239322, Note_off_c, 11, 40, 95
4, 239520, Note_on_c, 11, 44, 95
4, 239522, Note_on_c, 11, 45, 95
4, 239524, Note_on_c, 11, 50, 95
4, 239526, Note_on_c, 11, 55, 95
4, 239528, Note_on_c, 11, 59, 95
4, 239530, Note_on_c, 11, 64, 95
4, 239562, Note_off_c, 11, 64, 95
4, 239562, Note_off_c, 11, 59, 95
4, 239562, Note_off_c, 11, 55, 95
4, 239562, Note_off_c, 11, 50, 95
4, 239562, Note_off_c, 11, 45, 95
4, 239562, Note_off_c, 11, 44, 95
4, 239760, Note_on_c, 11, 64, 95
4, 239762, Note_on_c, 11, 59, 95
4, 239764, Note_on_c, 11, 55, 95
4, 239766, Note_on_c, 11, 50, 95
4, 239768, Note_on_c, 11, 45, 95
4, 239770, Note_on_c, 11, 40, 95
4, 239802, Note_off_c, 11, 64, 95
4, 239802, Note_off_c, 11, 59, 95
4, 239802, Note_off_c, 11, 55, 95
4, 239802, Note_off_c, 11, 50, 95
4, 239802, Note_off_c, 11, 45, 95
4, 239802, Note_off_c, 11, 40, 95
4, 240000, Note_on_c, 11, 45, 95
4, 240004, Note_on_c, 11, 50, 95
4, 240008, Note_on_c, 11, 57, 95
4, 240012, Note_on_c, 11, 62, 95
4, 240480, Note_off_c, 11, 62, 95
4, 240480, Note_off_c, 11, 57, 95
4, 240480, Note_off_c, 11, 50, 95
4, 240480, Note_off_c, 11, 45, 95
4, 240480, Note_on_c, 11, 45, 95
4, 240484, Note_on_c, 11, 50, 95
4, 240488, Note_on_c, 11, 57, 95
4, 240492, Note_on_c, 11, 62, 95
4, 240960, Note_off_c, 11, 62, 95
4, 240960, Note_off_c, 11, 57, 95
4, 240960, Note_off_c, 11, 50, 95
4, 240960, Note_off_c, 11, 45, 95
4, 240960, Note_on_c, 11, 40, 95
4, 240962, Note_on_c, 11, 45, 95
4, 240964, Note_on_c, 11, 50, 95
4, 240966, Note_on_c, 11, 55, 95
4, 240968, Note_on_c, 11, 59, 95
4, 240970, Note_on_c, 11, 64, 95
4, 241002, Note_off_c, 11, 64, 95
4, 241002, Note_off_c, 11, 59, 95
4, 241002, Note_off_c, 11, 55, 95
4, 241002, Note_off_c, 11, 50, 95
4, 241002, Note_off_c, 11, 45, 95
4, 241002, Note_off_c, 11, 40, 95
4, 241200, Note_on_c, 11, 64, 95
4, 241202, Note_on_c, 11, 59, 95
4, 241204, Note_on_c, 11, 55, 95
4, 241206, Note_on_c, 11, 50, 95
4, 241208, Note_on_c, 11, 45, 95
4, 241210, Note_on_c, 11, 40, 95
4, 241242, Note_off_c, 11, 64, 95
4, 241242, Note_off_c, 11, 59, 95
4, 241242, Note_off_c, 11, 55, 95
4, 241242, Note_off_c, 11, 50, 95
4, 241242, Note_off_c, 11, 45, 95
4, 241242, Note_off_c, 11, 40, 95
4, 241440, Note_on_c, 11, 40, 95
4, 241442, Note_on_c, 11, 45, 95
4, 241444, Note_on_c, 11, 50, 95
4, 241446, Note_on_c, 11, 55, 95
4, 241448, Note_on_c, 11, 59, 95
4, 241450, Note_on_c, 11, 64, 95
4, 241482, Note_off_c, 11, 64, 95
4, 241482, Note_off_c, 11, 59, 95
4, 241482, Note_off_c, 11, 55, 95
4, 241482, Note_off_c, 11, 50, 95
4, 241482, Note_off_c, 11, 45, 95
4, 241482, Note_off_c, 11, 40, 95
4, 241680, Note_on_c, 11, 64, 95
4, 241682, Note_on_c, 11, 59, 95
4, 241684, Note_on_c, 11, 55, 95
4, 241686, Note_on_c, 11, 50, 95
4, 241688, Note_on_c, 11, 45, 95
4, 241690, Note_on_c, 11, 40, 95
4, 241722, Note_off_c, 11, 64, 95
4, 241722, Note_off_c, 11, 59, 95
4, 241722, Note_off_c, 11, 55, 95
4, 241722, Note_off_c, 11, 50, 95
4, 241722, Note_off_c, 11, 45, 95
4, 241722, Note_off_c, 11, 40, 95
4, 241920, Note_on_c, 11, 47, 95
4, 241924, Note_on_c, 11, 52, 95
4, 241928, Note_on_c, 11, 59, 95
4, 241932, Note_on_c, 11, 64, 95
4, 242400, Note_off_c, 11, 64, 95
4, 242400, Note_off_c, 11, 59, 95
4, 242400, Note_off_c, 11, 52, 95
4, 242400, Note_off_c, 11, 47, 95
4, 242400, Note_on_c, 11, 47, 95
4, 242404, Note_on_c, 11, 52, 95
4, 242408, Note_on_c, 11, 59, 95
4, 242412, Note_on_c, 11, 64, 95
4, 242880, Note_off_c, 11, 64, 95
4, 242880, Note_off_c, 11, 59, 95
4, 242880, Note_off_c, 11, 52, 95
4, 242880, Note_off_c, 11, 47, 95
4, 242880, Note_on_c, 11, 45, 95
4, 242882, Note_on_c, 11, 45, 95
4, 242884, Note_on_c, 11, 50, 95
4, 242886, Note_on_c, 11, 55, 95
4, 242888, Note_on_c, 11, 59, 95
4, 242890, Note_on_c, 11, 64, 95
4, 242922, Note_off_c, 11, 64, 95
4, 242922, Note_off_c, 11, 59, 95
4, 242922, Note_off_c, 11, 55, 95
4, 242922, Note_off_c, 11, 50, 95
4, 242922, Note_off_c, 11, 45, 95
4, 242922, Note_off_c, 11, 45, 95
4, 243120, Note_on_c, 11, 64, 95
4, 243122, Note_on_c, 11, 59, 95
4, 243124, Note_on_c, 11, 55, 95
4, 243126, Note_on_c, 11, 50, 95
4, 243128, Note_on_c, 11, 45, 95
4, 243130, Note_on_c, 11, 40, 95
4, 243162, Note_off_c, 11, 64, 95
4, 243162, Note_off_c, 11, 59, 95
4, 243162, Note_off_c, 11, 55, 95
4, 243162, Note_off_c, 11, 50, 95
4, 243162, Note_off_c, 11, 45, 95
4, 243162, Note_off_c, 11, 40, 95
4, 243360, Note_on_c, 11, 44, 95
4, 243362, Note_on_c, 11, 45, 95
4, 243364, Note_on_c, 11, 50, 95
4, 243366, Note_on_c, 11, 55, 95
4, 243368, Note_on_c, 11, 59, 95
4, 243370, Note_on_c, 11, 64, 95
4, 243402, Note_off_c, 11, 64, 95
4, 243402, Note_off_c, 11, 59, 95
4, 243402, Note_off_c, 11, 55, 95
4, 243402, Note_off_c, 11, 50, 95
4, 243402, Note_off_c, 11, 45, 95
4, 243402, Note_off_c, 11, 44, 95
4, 243600, Note_on_c, 11, 64, 95
4, 243602, Note_on_c, 11, 59, 95
4, 243604, Note_on_c, 11, 55, 95
4, 243606, Note_on_c, 11, 50, 95
4, 243608, Note_on_c, 11, 45, 95
4, 243610, Note_on_c, 11, 40, 95
4, 243642, Note_off_c, 11, 64, 95
4, 243642, Note_off_c, 11, 59, 95
4, 243642, Note_off_c, 11, 55, 95
4, 243642, Note_off_c, 11, 50, 95
4, 243642, Note_off_c, 11, 45, 95
4, 243642, Note_off_c, 11, 40, 95
4, 243840, Note_on_c, 11, 45, 95
4, 243842, Note_on_c, 11, 50, 95
4, 243844, Note_on_c, 11, 57, 95
4, 243846, Note_on_c, 11, 62, 95
4, 244080, Note_off_c, 11, 62, 95
4, 244080, Note_off_c, 11, 57, 95
4, 244080, Note_off_c, 11, 50, 95
4, 244080, Note_off_c, 11, 45, 95
4, 244320, Note_on_c, 11, 45, 95
4, 244322, Note_on_c, 11, 50, 95
4, 244324, Note_on_c, 11, 57, 95
4, 244326, Note_on_c, 11, 62, 95
4, 244328, Note_on_c, 11, 66, 95
4, 244330, Note_on_c, 11, 69, 95
4, 244362, Note_off_c, 11, 69, 95
4, 244362, Note_off_c, 11, 66, 95
4, 244362, Note_off_c, 11, 62, 95
4, 244362, Note_off_c, 11, 57, 95
4, 244362, Note_off_c, 11, 50, 95
4, 244362, Note_off_c, 11, 45, 95
4, 244560, Note_on_c, 11, 62, 95
4, 244562, Note_on_c, 11, 57, 95
4, 244564, Note_on_c, 11, 50, 95
4, 244566, Note_on_c, 11, 45, 95
4, 244800, Note_off_c, 11, 62, 95
4, 244800, Note_off_c, 11, 57, 95
4, 244800, Note_off_c, 11, 50, 95
4, 244800, Note_off_c, 11, 45, 95
4, 245040, Note_on_c, 11, 64, 95
4, 245042, Note_on_c, 11, 59, 95
4, 245044, Note_on_c, 11, 52, 95
4, 245046, Note_on_c, 11, 47, 95
4, 245280, Note_off_c, 11, 64, 95
4, 245280, Note_off_c, 11, 59, 95
4, 245280, Note_off_c, 11, 52, 95
4, 245280, Note_off_c, 11, 47, 95
4, 245280, Note_on_c, 11, 47, 95
4, 245282, Note_on_c, 11, 52, 95
4, 245284, Note_on_c, 11, 59, 95
4, 245286, Note_on_c, 11, 64, 95
4, 245520, Note_off_c, 11, 64, 95
4, 245520, Note_off_c, 11, 59, 95
4, 245520, Note_off_c, 11, 52, 95
4, 245520, Note_off_c, 11, 47, 95
4, 245520, End_track
5, 0, Start_track
5, 0, Pitch_bend_c, 8, 8192
5, 0, Control_c, 8, 7, 127
5, 0, Control_c, 8, 10, 63
5, 0, Control_c, 8, 93, 0
5, 0, Control_c, 8, 91, 0
5, 0, Control_c, 8, 95, 0
5, 0, Control_c, 8, 92, 0
5, 0, Control_c, 8, 11, 127
5, 0, Program_c, 8, 30
5, 0, Control_c, 10, 7, 127
5, 0, Control_c, 10, 10, 63
5, 0, Control_c, 10, 93, 0
5, 0, Control_c, 10, 91, 0
5, 0, Control_c, 10, 95, 0
5, 0, Control_c, 10, 92, 0
5, 0, Control_c, 10, 11, 127
5, 0, Program_c, 10, 30
5, 153120, Note_on_c, 10, 83, 95
5, 153120, Note_on_c, 10, 81, 95
5, 153240, Pitch_bend_c, 10, 7424
5, 153360, Pitch_bend_c, 10, 6528
5, 153480, Pitch_bend_c, 10, 5632
5, 153600, Note_off_c, 10, 83, 95
5, 153600, Pitch_bend_c, 10, 4736
5, 153600, Pitch_bend_c, 10, 8192
5, 153600, Note_off_c, 10, 81, 95
5, 153600, Pitch_bend_c, 10, 8192
5, 153600, Note_on_c, 10, 76, 95
5, 153621, Pitch_bend_c, 10, 8320
5, 153642, Pitch_bend_c, 10, 8448
5, 153663, Pitch_bend_c, 10, 8576
5, 153684, Pitch_bend_c, 10, 8704
5, 153705, Pitch_bend_c, 10, 8832
5, 153726, Pitch_bend_c, 10, 8960
5, 153747, Pitch_bend_c, 10, 9088
5, 153768, Pitch_bend_c, 10, 9216
5, 153789, Pitch_bend_c, 10, 9344
5, 153810, Pitch_bend_c, 10, 9472
5, 153831, Pitch_bend_c, 10, 9600
5, 153840, Pitch_bend_c, 10, 9600
5, 154080, Pitch_bend_c, 10, 9600
5, 154080, Pitch_bend_c, 10, 8192
5, 154080, Note_off_c, 10, 76, 95
5, 154080, Note_on_c, 8, 78, 95
5, 154320, Note_off_c, 8, 78, 95
5, 154320, Pitch_bend_c, 10, 8192
5, 154320, Note_on_c, 10, 76, 95
5, 154341, Pitch_bend_c, 10, 8320
5, 154362, Pitch_bend_c, 10, 8448
5, 154383, Pitch_bend_c, 10, 8576
5, 154404, Pitch_bend_c, 10, 8704
5, 154425, Pitch_bend_c, 10, 8832
5, 154446, Pitch_bend_c, 10, 8960
5, 154467, Pitch_bend_c, 10, 9088
5, 154488, Pitch_bend_c, 10, 9216
5, 154509, Pitch_bend_c, 10, 9344
5, 154530, Pitch_bend_c, 10, 9472
5, 154551, Pitch_bend_c, 10, 9600
5, 154560, Pitch_bend_c, 10, 9600
5, 154800, Pitch_bend_c, 10, 9600
5, 154800, Pitch_bend_c, 10, 8192
5, 154800, Note_off_c, 10, 76, 95
5, 154800, Note_on_c, 8, 78, 95
5, 155040, Note_off_c, 8, 78, 95
5, 155040, Pitch_bend_c, 10, 8192
5, 155040, Note_on_c, 10, 76, 95
5, 155061, Pitch_bend_c, 10, 8320
5, 155082, Pitch_bend_c, 10, 8448
5, 155103, Pitch_bend_c, 10, 8576
5, 155124, Pitch_bend_c, 10, 8704
5, 155145, Pitch_bend_c, 10, 8832
5, 155166, Pitch_bend_c, 10, 8960
5, 155187, Pitch_bend_c, 10, 9088
5, 155208, Pitch_bend_c, 10, 9216
5, 155229, Pitch_bend_c, 10, 9344
5, 155250, Pitch_bend_c, 10, 9472
5, 155271, Pitch_bend_c, 10, 9600
5, 155280, Pitch_bend_c, 10, 9600
5, 155520, Pitch_bend_c, 10, 9600
5, 155520, Pitch_bend_c, 10, 8192
5, 155520, Note_off_c, 10, 76, 95
5, 155520, Note_on_c, 8, 78, 95
5, 155760, Note_off_c, 8, 78, 95
5, 155760, Pitch_bend_c, 10, 8192
5, 155760, Note_on_c, 10, 76, 95
5, 155781, Pitch_bend_c, 10, 8320
5, 155802, Pitch_bend_c, 10, 8448
5, 155823, Pitch_bend_c, 10, 8576
5, 155844, Pitch_bend_c, 10, 8704
5, 155865, Pitch_bend_c, 10, 8832
5, 155886, Pitch_bend_c, 10, 8960
5, 155907, Pitch_bend_c, 10, 9088
5, 155928, Pitch_bend_c, 10, 9216
5, 155949, Pitch_bend_c, 10, 9344
5, 155970, Pitch_bend_c, 10, 9472
5, 155991, Pitch_bend_c, 10, 9600
5, 156000, Pitch_bend_c, 10, 9600
5, 156240, Pitch_bend_c, 10, 9600
5, 156240, Pitch_bend_c, 10, 8192
5, 156240, Note_off_c, 10, 76, 95
5, 156240, Note_on_c, 8, 78, 95
5, 156480, Note_off_c, 8, 78, 95
5, 156480, Pitch_bend_c, 10, 8192
5, 156480, Note_on_c, 10, 76, 95
5, 156501, Pitch_bend_c, 10, 8320
5, 156522, Pitch_bend_c, 10, 8448
5, 156543, Pitch_bend_c, 10, 8576
5, 156564, Pitch_bend_c, 10, 8704
5, 156585, Pitch_bend_c, 10, 8832
5, 156606, Pitch_bend_c, 10, 8960
5, 156627, Pitch_bend_c, 10, 9088
5, 156648, Pitch_bend_c, 10, 9216
5, 156669, Pitch_bend_c, 10, 9344
5, 156690, Pitch_bend_c, 10, 9472
5, 156711, Pitch_bend_c, 10, 9600
5, 156720, Pitch_bend_c, 10, 9600
5, 156960, Pitch_bend_c, 10, 9600
5, 156960, Pitch_bend_c, 10, 8192
5, 156960, Note_off_c, 10, 76, 95
5, 156960, Note_on_c, 8, 78, 95
5, 157200, Note_off_c, 8, 78, 95
5, 157200, Pitch_bend_c, 10, 8192
5, 157200, Note_on_c, 10, 76, 95
5, 157221, Pitch_bend_c, 10, 8320
5, 157242, Pitch_bend_c, 10, 8448
5, 157263, Pitch_bend_c, 10, 8576
5, 157284, Pitch_bend_c, 10, 8704
5, 157305, Pitch_bend_c, 10, 8832
5, 157326, Pitch_bend_c, 10, 8960
5, 157347, Pitch_bend_c, 10, 9088
5, 157368, Pitch_bend_c, 10, 9216
5, 157389, Pitch_bend_c, 10, 9344
5, 157410, Pitch_bend_c, 10, 9472
5, 157431, Pitch_bend_c, 10, 9600
5, 157440, Pitch_bend_c, 10, 9600
5, 157680, Pitch_bend_c, 10, 9600
5, 157680, Pitch_bend_c, 10, 8192
5, 157680, Note_off_c, 10, 76, 95
5, 157680, Note_on_c, 8, 78, 95
5, 157920, Note_off_c, 8, 78, 95
5, 157920, Pitch_bend_c, 10, 8192
5, 157920, Note_on_c, 10, 76, 95
5, 157941, Pitch_bend_c, 10, 8320
5, 157962, Pitch_bend_c, 10, 8448
5, 157983, Pitch_bend_c, 10, 8576
5, 158004, Pitch_bend_c, 10, 8704
5, 158025, Pitch_bend_c, 10, 8832
5, 158046, Pitch_bend_c, 10, 8960
5, 158067, Pitch_bend_c, 10, 9088
5, 158088, Pitch_bend_c, 10, 9216
5, 158109, Pitch_bend_c, 10, 9344
5, 158130, Pitch_bend_c, 10, 9472
5, 158151, Pitch_bend_c, 10, 9600
5, 158160, Pitch_bend_c, 10, 9600
5, 158400, Pitch_bend_c, 10, 9600
5, 158400, Pitch_bend_c, 10, 8192
5, 158400, Note_off_c, 10, 76, 95
5, 158400, Note_on_c, 8, 78, 95
5, 158640, Note_off_c, 8, 78, 95
5, 158640, Note_on_c, 8, 74, 95
5, 159120, Note_off_c, 8, 74, 95
5, 159120, Pitch_bend_c, 10, 8192
5, 159120, Note_on_c, 10, 76, 95
5, 159130, Pitch_bend_c, 10, 8320
5, 159140, Pitch_bend_c, 10, 8448
5, 159150, Pitch_bend_c, 10, 8576
5, 159160, Pitch_bend_c, 10, 8704
5, 159170, Pitch_bend_c, 10, 8832
5, 159180, Pitch_bend_c, 10, 8960
5, 159190, Pitch_bend_c, 10, 9088
5, 159200, Pitch_bend_c, 10, 9216
5, 159210, Pitch_bend_c, 10, 9344
5, 159220, Pitch_bend_c, 10, 9472
5, 159230, Pitch_bend_c, 10, 9600
5, 159240, Pitch_bend_c, 10, 9600
5, 159360, Pitch_bend_c, 10, 9600
5, 159360, Pitch_bend_c, 10, 8192
5, 159360, Note_off_c, 10, 76, 95
5, 159360, Note_on_c, 8, 81, 95
5, 159840, Note_off_c, 8, 81, 95
5, 159840, Pitch_bend_c, 10, 9600
5, 159840, Note_on_c, 10, 76, 95
5, 159920, Pitch_bend_c, 10, 9600
5, 159927, Pitch_bend_c, 10, 9472
5, 159934, Pitch_bend_c, 10, 9344
5, 159941, Pitch_bend_c, 10, 9216
5, 159948, Pitch_bend_c, 10, 9088
5, 159955, Pitch_bend_c, 10, 8960
5, 159962, Pitch_bend_c, 10, 8832
5, 159969, Pitch_bend_c, 10, 8704
5, 159976, Pitch_bend_c, 10, 8576
5, 159983, Pitch_bend_c, 10, 8448
5, 159990, Pitch_bend_c, 10, 8320
5, 159997, Pitch_bend_c, 10, 8192
5, 160000, Pitch_bend_c, 10, 8192
5, 160080, Pitch_bend_c, 10, 8192
5, 160080, Pitch_bend_c, 10, 8192
5, 160080, Note_off_c, 10, 76, 95
5, 160080, Note_on_c, 8, 76, 95
5, 160560, Note_off_c, 8, 76, 95
5, 160560, Note_on_c, 8, 74, 95
5, 160800, Note_off_c, 8, 74, 95
5, 160800, Pitch_bend_c, 10, 8832
5, 160800, Note_on_c, 10, 76, 95
5, 160880, Pitch_bend_c, 10, 8832
5, 160896, Pitch_bend_c, 10, 8704
5, 160912, Pitch_bend_c, 10, 8576
5, 160928, Pitch_bend_c, 10, 8448
5, 160944, Pitch_bend_c, 10, 8320
5, 160960, Pitch_bend_c, 10, 8192
5, 160960, Pitch_bend_c, 10, 8192
5, 161040, Pitch_bend_c, 10, 8192
5, 161040, Pitch_bend_c, 10, 8192
5, 161040, Note_off_c, 10, 76, 95
5, 161040, Note_on_c, 8, 74, 95
5, 161280, Note_off_c, 8, 74, 95
5, 161280, Note_on_c, 8, 71, 95
5, 162240, Note_off_c, 8, 71, 95
5, 162240, Pitch_bend_c, 10, 8192
5, 162240, Note_on_c, 10, 74, 95
5, 162305, Pitch_bend_c, 10, 8320
5, 162370, Pitch_bend_c, 10, 8448
5, 162435, Pitch_bend_c, 10, 8576
5, 162500, Pitch_bend_c, 10, 8704
5, 162565, Pitch_bend_c, 10, 8832
5, 162630, Pitch_bend_c, 10, 8960
5, 162695, Pitch_bend_c, 10, 9088
5, 162760, Pitch_bend_c, 10, 9216
5, 162825, Pitch_bend_c, 10, 9344
5, 162890, Pitch_bend_c, 10, 9472
5, 162955, Pitch_bend_c, 10, 9600
5, 162960, Pitch_bend_c, 10, 9600
5, 163680, Pitch_bend_c, 10, 9600
5, 163680, Pitch_bend_c, 10, 8192
5, 163680, Note_off_c, 10, 74, 95
5, 163680, Note_on_c, 8, 74, 95
5, 164640, Note_off_c, 8, 74, 95
5, 164640, Note_on_c, 8, 76, 95
5, 165600, Note_off_c, 8, 76, 95
5, 165600, Note_on_c, 8, 69, 95
5, 165840, Note_off_c, 8, 69, 95
5, 165840, Note_on_c, 8, 71, 95
5, 166320, Note_off_c, 8, 71, 95
5, 166320, Note_on_c, 8, 69, 95
5, 166560, Note_off_c, 8, 69, 95
5, 166560, Note_on_c, 8, 71, 95
5, 166800, Note_off_c, 8, 71, 95
5, 166800, Note_on_c, 8, 69, 95
5, 167040, Note_off_c, 8, 69, 95
5, 167040, Note_on_c, 8, 66, 95
5, 167280, Note_off_c, 8, 66, 95
5, 167280, Note_on_c, 8, 69, 95
5, 167520, Note_off_c, 8, 69, 95
5, 167520, Note_on_c, 8, 66, 95
5, 167760, Note_off_c, 8, 66, 95
5, 167760, Note_on_c, 8, 64, 95
5, 168000, Note_off_c, 8, 64, 95
5, 168000, Note_on_c, 8, 62, 95
5, 168000, Note_on_c, 8, 57, 95
5, 168240, Note_off_c, 8, 62, 95
5, 168240, Note_off_c, 8, 57, 95
5, 168240, Pitch_bend_c, 10, 8192
5, 168240, Note_on_c, 10, 62, 95
5, 168261, Pitch_bend_c, 10, 8320
5, 168282, Pitch_bend_c, 10, 8448
5, 168303, Pitch_bend_c, 10, 8576
5, 168324, Pitch_bend_c, 10, 8704
5, 168345, Pitch_bend_c, 10, 8832
5, 168366, Pitch_bend_c, 10, 8960
5, 168387, Pitch_bend_c, 10, 9088
5, 168408, Pitch_bend_c, 10, 9216
5, 168429, Pitch_bend_c, 10, 9344
5, 168450, Pitch_bend_c, 10, 9472
5, 168471, Pitch_bend_c, 10, 9600
5, 168480, Pitch_bend_c, 10, 9600
5, 168720, Pitch_bend_c, 10, 9600
5, 168720, Pitch_bend_c, 10, 8192
5, 168720, Note_off_c, 10, 62, 95
5, 168720, Note_on_c, 8, 59, 95
5, 168960, Note_off_c, 8, 59, 95
5, 168960, Note_on_c, 8, 64, 95
5, 169200, Note_off_c, 8, 64, 95
5, 169200, Note_on_c, 8, 66, 95
5, 169440, Note_off_c, 8, 66, 95
5, 169440, Note_on_c, 8, 69, 95
5, 169680, Note_off_c, 8, 69, 95
5, 169680, Note_on_c, 8, 66, 95
5, 169920, Note_off_c, 8, 66, 95
5, 169920, Pitch_bend_c, 10, 8192
5, 169920, Note_on_c, 10, 75, 95
5, 170016, Pitch_bend_c, 10, 8320
5, 170112, Pitch_bend_c, 10, 8448
5, 170208, Pitch_bend_c, 10, 8576
5, 170304, Pitch_bend_c, 10, 8704
5, 170400, Pitch_bend_c, 10, 8832
5, 170400, Pitch_bend_c, 10, 8832
5, 170880, Pitch_bend_c, 10, 8832
5, 170880, Pitch_bend_c, 10, 8192
5, 170880, Note_off_c, 10, 75, 95
5, 170880, Note_on_c, 8, 71, 95
5, 171120, Note_off_c, 8, 71, 95
5, 171120, Note_on_c, 8, 76, 95
5, 171360, Note_off_c, 8, 76, 95
5, 171360, Note_on_c, 8, 78, 95
5, 171600, Note_off_c, 8, 78, 95
5, 171600, Note_on_c, 8, 71, 95
5, 171840, Note_off_c, 8, 71, 95
5, 171840, Pitch_bend_c, 10, 8192
5, 171840, Note_on_c, 10, 76, 95
5, 171916, Pitch_bend_c, 10, 8320
5, 171992, Pitch_bend_c, 10, 8448
5, 172068, Pitch_bend_c, 10, 8576
5, 172144, Pitch_bend_c, 10, 8704
5, 172220, Pitch_bend_c, 10, 8832
5, 172296, Pitch_bend_c, 10, 8960
5, 172372, Pitch_bend_c, 10, 9088
5, 172448, Pitch_bend_c, 10, 9216
5, 172524, Pitch_bend_c, 10, 9344
5, 172600, Pitch_bend_c, 10, 9472
5, 172676, Pitch_bend_c, 10, 9600
5, 172680, Pitch_bend_c, 10, 9600
5, 173520, Pitch_bend_c, 10, 9600
5, 173520, Pitch_bend_c, 10, 8192
5, 173520, Note_off_c, 10, 76, 95
5, 173520, Note_on_c, 8, 78, 95
5, 173760, Note_off_c, 8, 78, 95
5, 173760, Note_on_c, 8, 81, 95
5, 174000, Note_off_c, 8, 81, 95
5, 174000, Pitch_bend_c, 10, 8192
5, 174000, Note_on_c, 10, 76, 95
5, 174021, Pitch_bend_c, 10, 8320
5, 174042, Pitch_bend_c, 10, 8448
5, 174063, Pitch_bend_c, 10, 8576
5, 174084, Pitch_bend_c, 10, 8704
5, 174105, Pitch_bend_c, 10, 8832
5, 174126, Pitch_bend_c, 10, 8960
5, 174147, Pitch_bend_c, 10, 9088
5, 174168, Pitch_bend_c, 10, 9216
5, 174189, Pitch_bend_c, 10, 9344
5, 174210, Pitch_bend_c, 10, 9472
5, 174231, Pitch_bend_c, 10, 9600
5, 174240, Pitch_bend_c, 10, 9600
5, 174480, Pitch_bend_c, 10, 9600
5, 174480, Pitch_bend_c, 10, 8192
5, 174480, Note_off_c, 10, 76, 95
5, 174480, Note_on_c, 8, 78, 95
5, 174720, Note_off_c, 8, 78, 95
5, 174720, Note_on_c, 8, 82, 95
5, 174960, Note_off_c, 8, 82, 95
5, 174960, Note_on_c, 8, 81, 70
5, 175200, Note_off_c, 8, 81, 70
5, 175200, Note_on_c, 8, 79, 95
5, 175320, Note_off_c, 8, 79, 95
5, 175320, Note_on_c, 8, 81, 70
5, 175440, Note_off_c, 8, 81, 70
5, 175440, Note_on_c, 8, 79, 70
5, 175680, Note_off_c, 8, 79, 70
5, 175680, Note_on_c, 8, 83, 95
5, 175680, Note_on_c, 8, 78, 95
5, 175920, Note_off_c, 8, 83, 95
5, 175920, Note_off_c, 8, 78, 95
5, 175920, Pitch_bend_c, 10, 8832
5, 175920, Note_on_c, 10, 77, 95
5, 176000, Pitch_bend_c, 10, 8832
5, 176016, Pitch_bend_c, 10, 8704
5, 176032, Pitch_bend_c, 10, 8576
5, 176048, Pitch_bend_c, 10, 8448
5, 176064, Pitch_bend_c, 10, 8320
5, 176080, Pitch_bend_c, 10, 8192
5, 176080, Pitch_bend_c, 10, 8192
5, 176160, Pitch_bend_c, 10, 8192
5, 176160, Pitch_bend_c, 10, 8192
5, 176160, Note_off_c, 10, 77, 95
5, 176160, Note_on_c, 8, 76, 95
5, 176400, Note_off_c, 8, 76, 95
5, 176400, Note_on_c, 8, 74, 95
5, 176640, Note_off_c, 8, 74, 95
5, 176640, Note_on_c, 8, 83, 95
5, 176640, Note_on_c, 8, 78, 95
5, 176880, Note_off_c, 8, 83, 95
5, 176880, Note_off_c, 8, 78, 95
5, 176880, Note_on_c, 8, 77, 95
5, 177120, Note_off_c, 8, 77, 95
5, 177120, Note_on_c, 8, 76, 95
5, 177360, Note_off_c, 8, 76, 95
5, 177360, Note_on_c, 8, 74, 95
5, 177600, Note_off_c, 8, 74, 95
5, 177600, Note_on_c, 8, 83, 95
5, 177600, Note_on_c, 8, 78, 95
5, 177840, Note_off_c, 8, 83, 95
5, 177840, Note_off_c, 8, 78, 95
5, 177840, Note_on_c, 8, 77, 95
5, 178080, Note_off_c, 8, 77, 95
5, 178080, Note_on_c, 8, 76, 95
5, 178320, Note_off_c, 8, 76, 95
5, 178320, Note_on_c, 8, 74, 95
5, 178560, Note_off_c, 8, 74, 95
5, 178560, Note_on_c, 8, 83, 95
5, 178560, Note_on_c, 8, 78, 95
5, 178800, Note_off_c, 8, 83, 95
5, 178800, Note_off_c, 8, 78, 95
5, 178800, Note_on_c, 8, 77, 95
5, 179040, Note_off_c, 8, 77, 95
5, 179040, Note_on_c, 8, 76, 95
5, 179280, Note_off_c, 8, 76, 95
5, 179280, Note_on_c, 8, 74, 95
5, 179520, Note_off_c, 8, 74, 95
5, 179520, Note_on_c, 8, 83, 95
5, 179520, Note_on_c, 8, 78, 95
5, 179760, Note_off_c, 8, 83, 95
5, 179760, Note_off_c, 8, 78, 95
5, 179760, Note_on_c, 8, 77, 95
5, 180000, Note_off_c, 8, 77, 95
5, 180000, Note_on_c, 8, 76, 95
5, 180240, Note_off_c, 8, 76, 95
5, 180240, Note_on_c, 8, 74, 95
5, 180480, Note_off_c, 8, 74, 95
5, 180480, Pitch_bend_c, 10, 8192
5, 180480, Note_on_c, 10, 80, 95
5, 180576, Pitch_bend_c, 10, 8320
5, 180672, Pitch_bend_c, 10, 8448
5, 180768, Pitch_bend_c, 10, 8576
5, 180864, Pitch_bend_c, 10, 8704
5, 180960, Pitch_bend_c, 10, 8832
5, 180960, Pitch_bend_c, 10, 8832
5, 181440, Pitch_bend_c, 10, 8832
5, 181440, Pitch_bend_c, 10, 8192
5, 181440, Note_off_c, 10, 80, 95
5, 181680, Note_on_c, 8, 78, 95
5, 181920, Note_off_c, 8, 78, 95
5, 181920, Note_on_c, 8, 76, 95
5, 182160, Note_off_c, 8, 76, 95
5, 182160, Note_on_c, 8, 76, 95
5, 182160, Note_on_c, 8, 71, 95
5, 182400, Note_off_c, 8, 76, 95
5, 182400, Note_off_c, 8, 71, 95
5, 182640, Note_on_c, 8, 76, 95
5, 182760, Note_off_c, 8, 76, 95
5, 182760, Note_on_c, 8, 78, 70
5, 182880, Note_off_c, 8, 78, 70
5, 182880, Note_on_c, 8, 76, 70
5, 183120, Note_off_c, 8, 76, 70
5, 183120, Note_on_c, 8, 74, 95
5, 183360, Note_off_c, 8, 74, 95
5, 183360, Note_on_c, 8, 76, 95
5, 183600, Note_off_c, 8, 76, 95
5, 183600, Note_on_c, 8, 71, 95
5, 183840, Note_off_c, 8, 71, 95
5, 183840, Note_on_c, 8, 74, 95
5, 184080, Note_off_c, 8, 74, 95
5, 184320, Note_on_c, 8, 69, 95
5, 184560, Note_off_c, 8, 69, 95
5, 184560, Note_on_c, 8, 71, 95
5, 184800, Note_off_c, 8, 71, 95
5, 184800, Note_on_c, 8, 74, 70
5, 184800, Note_on_c, 8, 69, 95
5, 185040, Note_off_c, 8, 74, 70
5, 185040, Note_off_c, 8, 69, 95
5, 185040, Note_on_c, 8, 69, 95
5, 185280, Note_off_c, 8, 69, 95
5, 185280, Note_on_c, 8, 71, 95
5, 185520, Note_off_c, 8, 71, 95
5, 185520, Note_on_c, 8, 74, 70
5, 185520, Note_on_c, 8, 69, 95
5, 185760, Note_off_c, 8, 74, 70
5, 185760, Note_off_c, 8, 69, 95
5, 185760, Note_on_c, 8, 69, 95
5, 186000, Note_off_c, 8, 69, 95
5, 186000, Note_on_c, 8, 71, 95
5, 186240, Note_off_c, 8, 71, 95
5, 186240, Note_on_c, 8, 74, 70
5, 186240, Note_on_c, 8, 69, 95
5, 186480, Note_off_c, 8, 74, 70
5, 186480, Note_off_c, 8, 69, 95
5, 186480, Note_on_c, 8, 73, 70
5, 186720, Note_off_c, 8, 73, 70
5, 186720, Pitch_bend_c, 10, 8192
5, 186720, Note_on_c, 10, 69, 95
5, 186741, Pitch_bend_c, 10, 8320
5, 186762, Pitch_bend_c, 10, 8448
5, 186783, Pitch_bend_c, 10, 8576
5, 186804, Pitch_bend_c, 10, 8704
5, 186825, Pitch_bend_c, 10, 8832
5, 186846, Pitch_bend_c, 10, 8960
5, 186867, Pitch_bend_c, 10, 9088
5, 186888, Pitch_bend_c, 10, 9216
5, 186909, Pitch_bend_c, 10, 9344
5, 186930, Pitch_bend_c, 10, 9472
5, 186951, Pitch_bend_c, 10, 9600
5, 186960, Pitch_bend_c, 10, 9600
5, 187200, Pitch_bend_c, 10, 9600
5, 187200, Pitch_bend_c, 10, 8192
5, 187200, Note_off_c, 10, 69, 95
5, 187200, Pitch_bend_c, 10, 9600
5, 187200, Note_on_c, 10, 69, 95
5, 187280, Pitch_bend_c, 10, 9600
5, 187287, Pitch_bend_c, 10, 9472
5, 187294, Pitch_bend_c, 10, 9344
5, 187301, Pitch_bend_c, 10, 9216
5, 187308, Pitch_bend_c, 10, 9088
5, 187315, Pitch_bend_c, 10, 8960
5, 187322, Pitch_bend_c, 10, 8832
5, 187329, Pitch_bend_c, 10, 8704
5, 187336, Pitch_bend_c, 10, 8576
5, 187343, Pitch_bend_c, 10, 8448
5, 187350, Pitch_bend_c, 10, 8320
5, 187357, Pitch_bend_c, 10, 8192
5, 187360, Pitch_bend_c, 10, 8192
5, 187440, Pitch_bend_c, 10, 8192
5, 187440, Pitch_bend_c, 10, 8192
5, 187440, Note_off_c, 10, 69, 95
5, 187680, Note_on_c, 8, 71, 95
5, 187920, Note_off_c, 8, 71, 95
5, 187920, Note_on_c, 8, 69, 95
5, 188160, Note_off_c, 8, 69, 95
5, 188160, Note_on_c, 8, 69, 95
5, 188400, Note_off_c, 8, 69, 95
5, 188400, Note_on_c, 8, 66, 70
5, 188640, Note_off_c, 8, 66, 70
5, 188640, Note_on_c, 8, 64, 95
5, 188880, Note_off_c, 8, 64, 95
5, 188880, Note_on_c, 8, 66, 95
5, 189120, Note_off_c, 8, 66, 95
5, 189120, Note_on_c, 8, 64, 95
5, 189360, Note_off_c, 8, 64, 95
5, 189360, Note_on_c, 8, 62, 70
5, 189600, Note_off_c, 8, 62, 70
5, 189600, Note_on_c, 8, 64, 70
5, 189840, Note_off_c, 8, 64, 70
5, 189840, Note_on_c, 8, 66, 95
5, 190080, Note_off_c, 8, 66, 95
5, 190080, Note_on_c, 8, 69, 70
5, 190320, Note_off_c, 8, 69, 70
5, 190320, Note_on_c, 8, 64, 95
5, 190560, Note_off_c, 8, 64, 95
5, 190560, Note_on_c, 8, 66, 95
5, 190800, Note_off_c, 8, 66, 95
5, 190800, Note_on_c, 8, 69, 70
5, 191040, Note_off_c, 8, 69, 70
5, 191040, Note_on_c, 8, 62, 95
5, 191280, Note_off_c, 8, 62, 95
5, 191280, Note_on_c, 8, 66, 95
5, 191520, Note_off_c, 8, 66, 95
5, 191520, Note_on_c, 8, 69, 70
5, 191760, Note_off_c, 8, 69, 70
5, 191760, Note_on_c, 8, 66, 70
5, 192000, Note_off_c, 8, 66, 70
5, 192000, Note_on_c, 8, 69, 95
5, 192240, Note_off_c, 8, 69, 95
5, 192240, Note_on_c, 8, 71, 95
5, 192240, Note_on_c, 8, 66, 95
5, 192480, Note_off_c, 8, 71, 95
5, 192480, Note_off_c, 8, 66, 95
5, 192480, Note_on_c, 8, 69, 95
5, 192720, Note_off_c, 8, 69, 95
5, 192720, Note_on_c, 8, 66, 70
5, 192960, Note_off_c, 8, 66, 70
5, 192960, Note_on_c, 8, 71, 95
5, 192960, Note_on_c, 8, 66, 95
5, 193200, Note_off_c, 8, 71, 95
5, 193200, Note_off_c, 8, 66, 95
5, 193200, Note_on_c, 8, 69, 95
5, 193440, Note_off_c, 8, 69, 95
5, 193440, Note_on_c, 8, 66, 70
5, 193680, Note_off_c, 8, 66, 70
5, 193680, Note_on_c, 8, 71, 95
5, 193680, Note_on_c, 8, 66, 95
5, 193920, Note_off_c, 8, 71, 95
5, 193920, Note_off_c, 8, 66, 95
5, 193920, Note_on_c, 8, 69, 95
5, 194160, Note_off_c, 8, 69, 95
5, 194160, Note_on_c, 8, 66, 70
5, 194400, Note_off_c, 8, 66, 70
5, 194400, Note_on_c, 8, 71, 95
5, 194400, Note_on_c, 8, 66, 95
5, 194640, Note_off_c, 8, 71, 95
5, 194640, Note_off_c, 8, 66, 95
5, 194640, Note_on_c, 8, 69, 95
5, 194880, Note_off_c, 8, 69, 95
5, 194880, Note_on_c, 8, 66, 70
5, 195120, Note_off_c, 8, 66, 70
5, 195120, Note_on_c, 8, 71, 95
5, 195120, Note_on_c, 8, 66, 95
5, 195360, Note_off_c, 8, 71, 95
5, 195360, Note_off_c, 8, 66, 95
5, 195360, Note_on_c, 8, 69, 95
5, 195600, Note_off_c, 8, 69, 95
5, 195600, Note_on_c, 8, 66, 70
5, 195840, Note_off_c, 8, 66, 70
5, 195840, Note_on_c, 8, 71, 95
5, 195840, Note_on_c, 8, 66, 95
5, 196080, Note_off_c, 8, 71, 95
5, 196080, Note_off_c, 8, 66, 95
5, 196080, Note_on_c, 8, 69, 95
5, 196320, Note_off_c, 8, 69, 95
5, 196320, Note_on_c, 8, 66, 70
5, 196560, Note_off_c, 8, 66, 70
5, 196560, Note_on_c, 8, 71, 95
5, 196560, Note_on_c, 8, 66, 95
5, 196800, Note_off_c, 8, 71, 95
5, 196800, Note_off_c, 8, 66, 95
5, 196800, Note_on_c, 8, 69, 95
5, 197040, Note_off_c, 8, 69, 95
5, 197040, Note_on_c, 8, 66, 70
5, 197280, Note_off_c, 8, 66, 70
5, 197280, Note_on_c, 8, 69, 70
5, 197520, Note_off_c, 8, 69, 70
5, 197520, Note_on_c, 8, 66, 70
5, 197760, Note_off_c, 8, 66, 70
5, 197760, Pitch_bend_c, 10, 8192
5, 197760, Note_on_c, 10, 74, 95
5, 197781, Pitch_bend_c, 10, 8320
5, 197802, Pitch_bend_c, 10, 8448
5, 197823, Pitch_bend_c, 10, 8576
5, 197844, Pitch_bend_c, 10, 8704
5, 197865, Pitch_bend_c, 10, 8832
5, 197886, Pitch_bend_c, 10, 8960
5, 197907, Pitch_bend_c, 10, 9088
5, 197928, Pitch_bend_c, 10, 9216
5, 197949, Pitch_bend_c, 10, 9344
5, 197970, Pitch_bend_c, 10, 9472
5, 197991, Pitch_bend_c, 10, 9600
5, 198000, Pitch_bend_c, 10, 9600
5, 198240, Pitch_bend_c, 10, 9600
5, 198240, Pitch_bend_c, 10, 8192
5, 198240, Note_off_c, 10, 74, 95
5, 198240, Pitch_bend_c, 10, 9600
5, 198240, Note_on_c, 10, 74, 95
5, 198320, Pitch_bend_c, 10, 9600
5, 198327, Pitch_bend_c, 10, 9472
5, 198334, Pitch_bend_c, 10, 9344
5, 198341, Pitch_bend_c, 10, 9216
5, 198348, Pitch_bend_c, 10, 9088
5, 198355, Pitch_bend_c, 10, 8960
5, 198362, Pitch_bend_c, 10, 8832
5, 198369, Pitch_bend_c, 10, 8704
5, 198376, Pitch_bend_c, 10, 8576
5, 198383, Pitch_bend_c, 10, 8448
5, 198390, Pitch_bend_c, 10, 8320
5, 198397, Pitch_bend_c, 10, 8192
5, 198400, Pitch_bend_c, 10, 8192
5, 198480, Pitch_bend_c, 10, 8192
5, 198480, Pitch_bend_c, 10, 8192
5, 198480, Note_off_c, 10, 74, 95
5, 198480, Note_on_c, 8, 71, 95
5, 198720, Note_off_c, 8, 71, 95
5, 198720, Note_on_c, 8, 73, 95
5, 198960, Note_off_c, 8, 73, 95
5, 198960, Note_on_c, 8, 74, 95
5, 199200, Note_off_c, 8, 74, 95
5, 199200, Note_on_c, 8, 71, 95
5, 199440, Note_off_c, 8, 71, 95
5, 199440, Note_on_c, 8, 73, 95
5, 199680, Note_off_c, 8, 73, 95
5, 199680, Note_on_c, 8, 74, 95
5, 199920, Note_off_c, 8, 74, 95
5, 199920, Note_on_c, 8, 73, 95
5, 200040, Note_off_c, 8, 73, 95
5, 200040, Note_on_c, 8, 74, 95
5, 200160, Note_off_c, 8, 74, 95
5, 200160, Note_on_c, 8, 71, 95
5, 200280, Note_off_c, 8, 71, 95
5, 200280, Note_on_c, 8, 74, 95
5, 200400, Note_off_c, 8, 74, 95
5, 200400, Note_on_c, 8, 71, 95
5, 200520, Note_off_c, 8, 71, 95
5, 200520, Note_on_c, 8, 73, 95
5, 200640, Note_off_c, 8, 73, 95
5, 200640, Note_on_c, 8, 74, 95
5, 200760, Note_off_c, 8, 74, 95
5, 200760, Note_on_c, 8, 71, 95
5, 200880, Note_off_c, 8, 71, 95
5, 200880, Note_on_c, 8, 73, 95
5, 201000, Note_off_c, 8, 73, 95
5, 201000, Note_on_c, 8, 74, 95
5, 201120, Note_off_c, 8, 74, 95
5, 201120, Note_on_c, 8, 71, 95
5, 201240, Note_off_c, 8, 71, 95
5, 201240, Note_on_c, 8, 73, 95
5, 201360, Note_off_c, 8, 73, 95
5, 201360, Note_on_c, 8, 74, 95
5, 201480, Note_off_c, 8, 74, 95
5, 201480, Note_on_c, 8, 71, 95
5, 201600, Note_off_c, 8, 71, 95
5, 201600, Note_on_c, 8, 73, 95
5, 201720, Note_off_c, 8, 73, 95
5, 201720, Note_on_c, 8, 74, 95
5, 201840, Note_off_c, 8, 74, 95
5, 201840, Note_on_c, 8, 71, 95
5, 201960, Note_off_c, 8, 71, 95
5, 201960, Note_on_c, 8, 73, 95
5, 202080, Note_off_c, 8, 73, 95
5, 202080, Note_on_c, 8, 74, 95
5, 202200, Note_off_c, 8, 74, 95
5, 202200, Note_on_c, 8, 71, 95
5, 202320, Note_off_c, 8, 71, 95
5, 202320, Note_on_c, 8, 73, 95
5, 202440, Note_off_c, 8, 73, 95
5, 202440, Note_on_c, 8, 74, 95
5, 202560, Note_off_c, 8, 74, 95
5, 202560, Note_on_c, 8, 71, 95
5, 202680, Note_off_c, 8, 71, 95
5, 202680, Note_on_c, 8, 73, 95
5, 202800, Note_off_c, 8, 73, 95
5, 202800, Note_on_c, 8, 74, 95
5, 202920, Note_off_c, 8, 74, 95
5, 202920, Note_on_c, 8, 71, 95
5, 203040, Note_off_c, 8, 71, 95
5, 203040, Note_on_c, 8, 73, 95
5, 203160, Note_off_c, 8, 73, 95
5, 203160, Note_on_c, 8, 74, 95
5, 203280, Note_off_c, 8, 74, 95
5, 203280, Note_on_c, 8, 73, 95
5, 203400, Note_off_c, 8, 73, 95
5, 203400, Note_on_c, 8, 74, 95
5, 203520, Note_off_c, 8, 74, 95
5, 203520, Note_on_c, 8, 71, 95
5, 203640, Note_off_c, 8, 71, 95
5, 203640, Note_on_c, 8, 69, 95
5, 203760, Note_off_c, 8, 69, 95
5, 203760, Note_on_c, 8, 71, 95
5, 203880, Note_off_c, 8, 71, 95
5, 203880, Note_on_c, 8, 69, 95
5, 204000, Note_off_c, 8, 69, 95
5, 204000, Note_on_c, 8, 66, 95
5, 204120, Note_off_c, 8, 66, 95
5, 204120, Pitch_bend_c, 10, 8192
5, 204120, Note_on_c, 10, 69, 95
5, 204185, Pitch_bend_c, 10, 8320
5, 204250, Pitch_bend_c, 10, 8448
5, 204315, Pitch_bend_c, 10, 8576
5, 204380, Pitch_bend_c, 10, 8704
5, 204445, Pitch_bend_c, 10, 8832
5, 204510, Pitch_bend_c, 10, 8960
5, 204575, Pitch_bend_c, 10, 9088
5, 204640, Pitch_bend_c, 10, 9216
5, 204705, Pitch_bend_c, 10, 9344
5, 204770, Pitch_bend_c, 10, 9472
5, 204835, Pitch_bend_c, 10, 9600
5, 204840, Pitch_bend_c, 10, 9600
5, 205560, Pitch_bend_c, 10, 9600
5, 205560, Pitch_bend_c, 10, 8192
5, 205560, Note_off_c, 10, 69, 95
5, 205560, Note_on_c, 8, 69, 95
5, 205680, Note_off_c, 8, 69, 95
5, 205680, Note_on_c, 8, 66, 95
5, 205800, Note_off_c, 8, 66, 95
5, 205800, Note_on_c, 8, 69, 95
5, 205920, Note_off_c, 8, 69, 95
5, 205920, Note_on_c, 8, 66, 95
5, 206040, Note_off_c, 8, 66, 95
5, 206040, Note_on_c, 8, 64, 95
5, 206160, Note_off_c, 8, 64, 95
5, 206160, Note_on_c, 8, 66, 95
5, 206280, Note_off_c, 8, 66, 95
5, 206280, Note_on_c, 8, 64, 95
5, 206400, Note_off_c, 8, 64, 95
5, 206400, Note_on_c, 8, 62, 95
5, 206520, Note_off_c, 8, 62, 95
5, 206520, Note_on_c, 8, 64, 95
5, 206640, Note_off_c, 8, 64, 95
5, 206640, Note_on_c, 8, 62, 95
5, 206760, Note_off_c, 8, 62, 95
5, 206760, Note_on_c, 8, 59, 95
5, 206880, Note_off_c, 8, 59, 95
5, 206880, Note_on_c, 8, 62, 95
5, 207000, Note_off_c, 8, 62, 95
5, 207000, Note_on_c, 8, 59, 95
5, 207120, Note_off_c, 8, 59, 95
5, 207120, Pitch_bend_c, 10, 8192
5, 207120, Note_on_c, 10, 62, 95
5, 207130, Pitch_bend_c, 10, 8320
5, 207140, Pitch_bend_c, 10, 8448
5, 207150, Pitch_bend_c, 10, 8576
5, 207160, Pitch_bend_c, 10, 8704
5, 207170, Pitch_bend_c, 10, 8832
5, 207180, Pitch_bend_c, 10, 8960
5, 207190, Pitch_bend_c, 10, 9088
5, 207200, Pitch_bend_c, 10, 9216
5, 207210, Pitch_bend_c, 10, 9344
5, 207220, Pitch_bend_c, 10, 9472
5, 207230, Pitch_bend_c, 10, 9600
5, 207240, Pitch_bend_c, 10, 9600
5, 207360, Pitch_bend_c, 10, 9600
5, 207360, Pitch_bend_c, 10, 8192
5, 207360, Note_off_c, 10, 62, 95
5, 207360, Pitch_bend_c, 10, 8192
5, 207360, Note_on_c, 10, 64, 95
5, 207381, Pitch_bend_c, 10, 8320
5, 207402, Pitch_bend_c, 10, 8448
5, 207423, Pitch_bend_c, 10, 8576
5, 207444, Pitch_bend_c, 10, 8704
5, 207465, Pitch_bend_c, 10, 8832
5, 207486, Pitch_bend_c, 10, 8960
5, 207507, Pitch_bend_c, 10, 9088
5, 207528, Pitch_bend_c, 10, 9216
5, 207549, Pitch_bend_c, 10, 9344
5, 207570, Pitch_bend_c, 10, 9472
5, 207591, Pitch_bend_c, 10, 9600
5, 207600, Pitch_bend_c, 10, 9600
5, 207840, Pitch_bend_c, 10, 9600
5, 207840, Pitch_bend_c, 10, 8192
5, 207840, Note_off_c, 10, 64, 95
5, 207840, Note_on_c, 8, 71, 95
5, 207840, Note_on_c, 8, 66, 95
5, 208080, Note_off_c, 8, 71, 95
5, 208080, Note_off_c, 8, 66, 95
5, 208080, Note_on_c, 8, 71, 95
5, 208080, Note_on_c, 8, 66, 95
5, 208320, Note_off_c, 8, 71, 95
5, 208320, Note_off_c, 8, 66, 95
5, 208320, Pitch_bend_c, 10, 8192
5, 208320, Note_on_c, 10, 64, 95
5, 208341, Pitch_bend_c, 10, 8320
5, 208362, Pitch_bend_c, 10, 8448
5, 208383, Pitch_bend_c, 10, 8576
5, 208404, Pitch_bend_c, 10, 8704
5, 208425, Pitch_bend_c, 10, 8832
5, 208446, Pitch_bend_c, 10, 8960
5, 208467, Pitch_bend_c, 10, 9088
5, 208488, Pitch_bend_c, 10, 9216
5, 208509, Pitch_bend_c, 10, 9344
5, 208530, Pitch_bend_c, 10, 9472
5, 208551, Pitch_bend_c, 10, 9600
5, 208560, Pitch_bend_c, 10, 9600
5, 208800, Pitch_bend_c, 10, 9600
5, 208800, Pitch_bend_c, 10, 8192
5, 208800, Note_off_c, 10, 64, 95
5, 208800, Note_on_c, 8, 71, 95
5, 208800, Note_on_c, 8, 66, 95
5, 209040, Note_off_c, 8, 71, 95
5, 209040, Note_off_c, 8, 66, 95
5, 209040, Note_on_c, 8, 71, 95
5, 209040, Note_on_c, 8, 66, 95
5, 209280, Note_off_c, 8, 71, 95
5, 209280, Note_off_c, 8, 66, 95
5, 209280, Pitch_bend_c, 10, 8192
5, 209280, Note_on_c, 10, 64, 95
5, 209301, Pitch_bend_c, 10, 8320
5, 209322, Pitch_bend_c, 10, 8448
5, 209343, Pitch_bend_c, 10, 8576
5, 209364, Pitch_bend_c, 10, 8704
5, 209385, Pitch_bend_c, 10, 8832
5, 209406, Pitch_bend_c, 10, 8960
5, 209427, Pitch_bend_c, 10, 9088
5, 209448, Pitch_bend_c, 10, 9216
5, 209469, Pitch_bend_c, 10, 9344
5, 209490, Pitch_bend_c, 10, 9472
5, 209511, Pitch_bend_c, 10, 9600
5, 209520, Pitch_bend_c, 10, 9600
5, 209760, Pitch_bend_c, 10, 9600
5, 209760, Pitch_bend_c, 10, 8192
5, 209760, Note_off_c, 10, 64, 95
5, 209760, Note_on_c, 8, 71, 95
5, 209760, Note_on_c, 8, 66, 95
5, 210000, Note_off_c, 8, 71, 95
5, 210000, Note_off_c, 8, 66, 95
5, 210000, Note_on_c, 8, 71, 95
5, 210000, Note_on_c, 8, 66, 95
5, 210240, Note_off_c, 8, 71, 95
5, 210240, Note_off_c, 8, 66, 95
5, 210240, Pitch_bend_c, 10, 8192
5, 210240, Note_on_c, 10, 64, 95
5, 210261, Pitch_bend_c, 10, 8320
5, 210282, Pitch_bend_c, 10, 8448
5, 210303, Pitch_bend_c, 10, 8576
5, 210324, Pitch_bend_c, 10, 8704
5, 210345, Pitch_bend_c, 10, 8832
5, 210366, Pitch_bend_c, 10, 8960
5, 210387, Pitch_bend_c, 10, 9088
5, 210408, Pitch_bend_c, 10, 9216
5, 210429, Pitch_bend_c, 10, 9344
5, 210450, Pitch_bend_c, 10, 9472
5, 210471, Pitch_bend_c, 10, 9600
5, 210480, Pitch_bend_c, 10, 9600
5, 210720, Pitch_bend_c, 10, 9600
5, 210720, Pitch_bend_c, 10, 8192
5, 210720, Note_off_c, 10, 64, 95
5, 210720, Note_on_c, 8, 71, 95
5, 210720, Note_on_c, 8, 66, 95
5, 210960, Note_off_c, 8, 71, 95
5, 210960, Note_off_c, 8, 66, 95
5, 210960, Note_on_c, 8, 71, 95
5, 210960, Note_on_c, 8, 66, 95
5, 211200, Note_off_c, 8, 71, 95
5, 211200, Note_off_c, 8, 66, 95
5, 211200, Pitch_bend_c, 10, 8192
5, 211200, Note_on_c, 10, 64, 95
5, 211221, Pitch_bend_c, 10, 8320
5, 211242, Pitch_bend_c, 10, 8448
5, 211263, Pitch_bend_c, 10, 8576
5, 211284, Pitch_bend_c, 10, 8704
5, 211305, Pitch_bend_c, 10, 8832
5, 211326, Pitch_bend_c, 10, 8960
5, 211347, Pitch_bend_c, 10, 9088
5, 211368, Pitch_bend_c, 10, 9216
5, 211389, Pitch_bend_c, 10, 9344
5, 211410, Pitch_bend_c, 10, 9472
5, 211431, Pitch_bend_c, 10, 9600
5, 211440, Pitch_bend_c, 10, 9600
5, 211680, Pitch_bend_c, 10, 9600
5, 211680, Pitch_bend_c, 10, 8192
5, 211680, Note_off_c, 10, 64, 95
5, 211680, Note_on_c, 8, 71, 95
5, 211680, Note_on_c, 8, 66, 95
5, 211920, Note_off_c, 8, 71, 95
5, 211920, Note_off_c, 8, 66, 95
5, 211920, Pitch_bend_c, 10, 8192
5, 211920, Note_on_c, 10, 64, 95
5, 211941, Pitch_bend_c, 10, 8320
5, 211962, Pitch_bend_c, 10, 8448
5, 211983, Pitch_bend_c, 10, 8576
5, 212004, Pitch_bend_c, 10, 8704
5, 212025, Pitch_bend_c, 10, 8832
5, 212046, Pitch_bend_c, 10, 8960
5, 212067, Pitch_bend_c, 10, 9088
5, 212088, Pitch_bend_c, 10, 9216
5, 212109, Pitch_bend_c, 10, 9344
5, 212130, Pitch_bend_c, 10, 9472
5, 212151, Pitch_bend_c, 10, 9600
5, 212160, Pitch_bend_c, 10, 9600
5, 212400, Pitch_bend_c, 10, 9600
5, 212400, Pitch_bend_c, 10, 8192
5, 212400, Note_off_c, 10, 64, 95
5, 212400, Note_on_c, 8, 71, 95
5, 212400, Note_on_c, 8, 66, 95
5, 212640, Note_off_c, 8, 71, 95
5, 212640, Note_off_c, 8, 66, 95
5, 212640, Pitch_bend_c, 10, 8192
5, 212640, Note_on_c, 10, 64, 95
5, 212661, Pitch_bend_c, 10, 8320
5, 212682, Pitch_bend_c, 10, 8448
5, 212703, Pitch_bend_c, 10, 8576
5, 212724, Pitch_bend_c, 10, 8704
5, 212745, Pitch_bend_c, 10, 8832
5, 212766, Pitch_bend_c, 10, 8960
5, 212787, Pitch_bend_c, 10, 9088
5, 212808, Pitch_bend_c, 10, 9216
5, 212829, Pitch_bend_c, 10, 9344
5, 212850, Pitch_bend_c, 10, 9472
5, 212871, Pitch_bend_c, 10, 9600
5, 212880, Pitch_bend_c, 10, 9600
5, 213120, Pitch_bend_c, 10, 9600
5, 213120, Pitch_bend_c, 10, 8192
5, 213120, Note_off_c, 10, 64, 95
5, 213120, Note_on_c, 8, 71, 95
5, 213120, Note_on_c, 8, 66, 95
5, 213360, Note_off_c, 8, 71, 95
5, 213360, Note_off_c, 8, 66, 95
5, 213360, Pitch_bend_c, 10, 8192
5, 213360, Note_on_c, 10, 64, 95
5, 213381, Pitch_bend_c, 10, 8320
5, 213402, Pitch_bend_c, 10, 8448
5, 213423, Pitch_bend_c, 10, 8576
5, 213444, Pitch_bend_c, 10, 8704
5, 213465, Pitch_bend_c, 10, 8832
5, 213486, Pitch_bend_c, 10, 8960
5, 213507, Pitch_bend_c, 10, 9088
5, 213528, Pitch_bend_c, 10, 9216
5, 213549, Pitch_bend_c, 10, 9344
5, 213570, Pitch_bend_c, 10, 9472
5, 213591, Pitch_bend_c, 10, 9600
5, 213600, Pitch_bend_c, 10, 9600
5, 213840, Pitch_bend_c, 10, 9600
5, 213840, Pitch_bend_c, 10, 8192
5, 213840, Note_off_c, 10, 64, 95
5, 213840, Note_on_c, 8, 71, 95
5, 213840, Note_on_c, 8, 66, 95
5, 214080, Note_off_c, 8, 71, 95
5, 214080, Note_off_c, 8, 66, 95
5, 214080, Pitch_bend_c, 10, 9600
5, 214080, Note_on_c, 10, 64, 95
5, 214240, Pitch_bend_c, 10, 9600
5, 214254, Pitch_bend_c, 10, 9472
5, 214268, Pitch_bend_c, 10, 9344
5, 214282, Pitch_bend_c, 10, 9216
5, 214296, Pitch_bend_c, 10, 9088
5, 214310, Pitch_bend_c, 10, 8960
5, 214324, Pitch_bend_c, 10, 8832
5, 214338, Pitch_bend_c, 10, 8704
5, 214352, Pitch_bend_c, 10, 8576
5, 214366, Pitch_bend_c, 10, 8448
5, 214380, Pitch_bend_c, 10, 8320
5, 214394, Pitch_bend_c, 10, 8192
5, 214400, Pitch_bend_c, 10, 8192
5, 214560, Pitch_bend_c, 10, 8192
5, 214560, Pitch_bend_c, 10, 8192
5, 214560, Note_off_c, 10, 64, 95
5, 214560, Note_on_c, 8, 64, 95
5, 215040, Note_off_c, 8, 64, 95
5, 215040, Note_on_c, 8, 65, 95
5, 215280, Note_off_c, 8, 65, 95
5, 215280, Note_on_c, 8, 66, 70
5, 215520, Note_off_c, 8, 66, 70
5, 215520, Note_on_c, 8, 69, 95
5, 215520, Note_on_c, 8, 65, 95
5, 215760, Note_off_c, 8, 69, 95
5, 215760, Note_off_c, 8, 65, 95
5, 215760, Note_on_c, 8, 65, 95
5, 216000, Note_off_c, 8, 65, 95
5, 216000, Note_on_c, 8, 66, 70
5, 216240, Note_off_c, 8, 66, 70
5, 216240, Note_on_c, 8, 69, 95
5, 216240, Note_on_c, 8, 65, 95
5, 216480, Note_off_c, 8, 69, 95
5, 216480, Note_off_c, 8, 65, 95
5, 216480, Note_on_c, 8, 65, 95
5, 216720, Note_off_c, 8, 65, 95
5, 216720, Note_on_c, 8, 66, 70
5, 216960, Note_off_c, 8, 66, 70
5, 216960, Note_on_c, 8, 69, 95
5, 216960, Note_on_c, 8, 65, 95
5, 217200, Note_off_c, 8, 69, 95
5, 217200, Note_off_c, 8, 65, 95
5, 217200, Note_on_c, 8, 65, 95
5, 217440, Note_off_c, 8, 65, 95
5, 217440, Note_on_c, 8, 66, 70
5, 217680, Note_off_c, 8, 66, 70
5, 217680, Note_on_c, 8, 69, 95
5, 217680, Note_on_c, 8, 65, 95
5, 217920, Note_off_c, 8, 69, 95
5, 217920, Note_off_c, 8, 65, 95
5, 217920, Note_on_c, 8, 65, 95
5, 218160, Note_off_c, 8, 65, 95
5, 218160, Note_on_c, 8, 66, 70
5, 218400, Note_off_c, 8, 66, 70
5, 218400, Note_on_c, 8, 69, 95
5, 218400, Note_on_c, 8, 65, 95
5, 218640, Note_off_c, 8, 69, 95
5, 218640, Note_off_c, 8, 65, 95
5, 218640, Note_on_c, 8, 65, 95
5, 218880, Note_off_c, 8, 65, 95
5, 218880, Note_on_c, 8, 66, 95
5, 219120, Note_off_c, 8, 66, 95
5, 219120, Note_on_c, 8, 69, 95
5, 219120, Note_on_c, 8, 65, 95
5, 219360, Note_off_c, 8, 69, 95
5, 219360, Note_off_c, 8, 65, 95
5, 219360, Note_on_c, 8, 65, 95
5, 219600, Note_off_c, 8, 65, 95
5, 219600, Note_on_c, 8, 66, 70
5, 219840, Note_off_c, 8, 66, 70
5, 219840, Note_on_c, 8, 69, 95
5, 219840, Note_on_c, 8, 65, 95
5, 220080, Note_off_c, 8, 69, 95
5, 220080, Note_off_c, 8, 65, 95
5, 220080, Note_on_c, 8, 65, 95
5, 220320, Note_off_c, 8, 65, 95
5, 220320, Note_on_c, 8, 66, 70
5, 220560, Note_off_c, 8, 66, 70
5, 220560, Note_on_c, 8, 69, 95
5, 220560, Note_on_c, 8, 65, 95
5, 220800, Note_off_c, 8, 69, 95
5, 220800, Note_off_c, 8, 65, 95
5, 220800, Note_on_c, 8, 69, 95
5, 221040, Note_off_c, 8, 69, 95
5, 221040, Note_on_c, 8, 66, 95
5, 221280, Note_off_c, 8, 66, 95
5, 221280, Note_on_c, 8, 64, 95
5, 221520, Note_off_c, 8, 64, 95
5, 221520, Note_on_c, 8, 66, 95
5, 221760, Note_off_c, 8, 66, 95
5, 221760, Note_on_c, 8, 64, 95
5, 222000, Note_off_c, 8, 64, 95
5, 222000, Note_on_c, 8, 59, 95
5, 222720, Note_off_c, 8, 59, 95
5, 222720, Pitch_bend_c, 10, 8192
5, 222720, Note_on_c, 10, 64, 95
5, 222741, Pitch_bend_c, 10, 8320
5, 222762, Pitch_bend_c, 10, 8448
5, 222783, Pitch_bend_c, 10, 8576
5, 222804, Pitch_bend_c, 10, 8704
5, 222825, Pitch_bend_c, 10, 8832
5, 222846, Pitch_bend_c, 10, 8960
5, 222867, Pitch_bend_c, 10, 9088
5, 222888, Pitch_bend_c, 10, 9216
5, 222909, Pitch_bend_c, 10, 9344
5, 222930, Pitch_bend_c, 10, 9472
5, 222951, Pitch_bend_c, 10, 9600
5, 222960, Pitch_bend_c, 10, 9600
5, 223200, Pitch_bend_c, 10, 9600
5, 223200, Pitch_bend_c, 10, 8192
5, 223200, Note_off_c, 10, 64, 95
5, 223200, Note_on_c, 8, 62, 95
5, 223440, Note_off_c, 8, 62, 95
5, 223440, Note_on_c, 8, 64, 95
5, 223680, Note_off_c, 8, 64, 95
5, 223680, Note_on_c, 8, 62, 95
5, 223920, Note_on_c, 8, 59, 95
5, 224400, Note_off_c, 8, 59, 95
5, 224400, Note_on_c, 8, 66, 95
5, 224640, Note_off_c, 8, 66, 95
5, 224640, Note_on_c, 8, 69, 95
5, 224880, Note_off_c, 8, 69, 95
5, 224880, Note_on_c, 8, 71, 95
5, 225120, Note_off_c, 8, 71, 95
5, 225120, Note_on_c, 8, 69, 95
5, 225360, Note_off_c, 8, 69, 95
5, 225360, Note_on_c, 8, 71, 95
5, 225600, Note_off_c, 8, 71, 95
5, 225600, Note_on_c, 8, 74, 95
5, 225840, Note_off_c, 8, 74, 95
5, 225840, Pitch_bend_c, 10, 8192
5, 225840, Note_on_c, 10, 76, 95
5, 225883, Pitch_bend_c, 10, 8320
5, 225926, Pitch_bend_c, 10, 8448
5, 225969, Pitch_bend_c, 10, 8576
5, 226012, Pitch_bend_c, 10, 8704
5, 226055, Pitch_bend_c, 10, 8832
5, 226098, Pitch_bend_c, 10, 8960
5, 226141, Pitch_bend_c, 10, 9088
5, 226184, Pitch_bend_c, 10, 9216
5, 226227, Pitch_bend_c, 10, 9344
5, 226270, Pitch_bend_c, 10, 9472
5, 226313, Pitch_bend_c, 10, 9600
5, 226320, Pitch_bend_c, 10, 9600
5, 226800, Pitch_bend_c, 10, 9600
5, 226800, Pitch_bend_c, 10, 8192
5, 226800, Note_off_c, 10, 76, 95
5, 226800, Pitch_bend_c, 10, 9600
5, 226800, Note_on_c, 10, 76, 95
5, 226880, Pitch_bend_c, 10, 9600
5, 226887, Pitch_bend_c, 10, 9472
5, 226894, Pitch_bend_c, 10, 9344
5, 226901, Pitch_bend_c, 10, 9216
5, 226908, Pitch_bend_c, 10, 9088
5, 226915, Pitch_bend_c, 10, 8960
5, 226922, Pitch_bend_c, 10, 8832
5, 226929, Pitch_bend_c, 10, 8704
5, 226936, Pitch_bend_c, 10, 8576
5, 226943, Pitch_bend_c, 10, 8448
5, 226950, Pitch_bend_c, 10, 8320
5, 226957, Pitch_bend_c, 10, 8192
5, 226960, Pitch_bend_c, 10, 8192
5, 227040, Pitch_bend_c, 10, 8192
5, 227040, Pitch_bend_c, 10, 8192
5, 227040, Note_off_c, 10, 76, 95
5, 227040, Note_on_c, 8, 74, 95
5, 227520, Note_off_c, 8, 74, 95
5, 227520, Note_on_c, 8, 76, 95
5, 227760, Note_off_c, 8, 76, 95
5, 227760, Note_on_c, 8, 77, 95
5, 228000, Note_off_c, 8, 77, 95
5, 228000, Note_on_c, 8, 74, 95
5, 228000, Note_on_c, 8, 71, 95
5, 228240, Note_off_c, 8, 74, 95
5, 228240, Note_off_c, 8, 71, 95
5, 228240, Note_on_c, 8, 76, 95
5, 228480, Note_off_c, 8, 76, 95
5, 228480, Note_on_c, 8, 76, 95
5, 228660, Note_off_c, 8, 76, 95
5, 228660, Note_on_c, 8, 77, 95
5, 228840, Note_off_c, 8, 77, 95
5, 228840, Note_on_c, 8, 76, 95
5, 229020, Note_off_c, 8, 76, 95
5, 229020, Note_on_c, 8, 74, 95
5, 229200, Note_off_c, 8, 74, 95
5, 229200, Note_on_c, 8, 71, 95
5, 229440, Note_off_c, 8, 71, 95
5, 229440, Note_on_c, 8, 76, 95
5, 229620, Note_off_c, 8, 76, 95
5, 229620, Note_on_c, 8, 77, 95
5, 229800, Note_off_c, 8, 77, 95
5, 229800, Note_on_c, 8, 76, 95
5, 229980, Note_off_c, 8, 76, 95
5, 229980, Note_on_c, 8, 74, 95
5, 230160, Note_off_c, 8, 74, 95
5, 230160, Note_on_c, 8, 71, 95
5, 230400, Note_off_c, 8, 71, 95
5, 230400, Note_on_c, 8, 76, 95
5, 230580, Note_off_c, 8, 76, 95
5, 230580, Note_on_c, 8, 77, 95
5, 230760, Note_off_c, 8, 77, 95
5, 230760, Note_on_c, 8, 76, 95
5, 230940, Note_off_c, 8, 76, 95
5, 230940, Note_on_c, 8, 74, 95
5, 231120, Note_off_c, 8, 74, 95
5, 231120, Note_on_c, 8, 71, 95
5, 231360, Note_off_c, 8, 71, 95
5, 231360, Note_on_c, 8, 76, 95
5, 231540, Note_off_c, 8, 76, 95
5, 231540, Note_on_c, 8, 77, 95
5, 231720, Note_off_c, 8, 77, 95
5, 231720, Note_on_c, 8, 76, 95
5, 231900, Note_off_c, 8, 76, 95
5, 231900, Note_on_c, 8, 74, 95
5, 232080, Note_off_c, 8, 74, 95
5, 232080, Note_on_c, 8, 71, 95
5, 232320, Note_off_c, 8, 71, 95
5, 232320, Pitch_bend_c, 10, 8192
5, 232320, Note_on_c, 10, 80, 95
5, 232464, Pitch_bend_c, 10, 8320
5, 232608, Pitch_bend_c, 10, 8448
5, 232752, Pitch_bend_c, 10, 8576
5, 232896, Pitch_bend_c, 10, 8704
5, 233040, Pitch_bend_c, 10, 8832
5, 233040, Pitch_bend_c, 10, 8832
5, 233760, Pitch_bend_c, 10, 8832
5, 233760, Pitch_bend_c, 10, 8192
5, 233760, Note_off_c, 10, 80, 95
5, 233760, Note_on_c, 8, 78, 95
5, 233760, Note_on_c, 8, 71, 95
5, 234000, Note_off_c, 8, 78, 95
5, 234000, Note_off_c, 8, 71, 95
5, 234000, Note_on_c, 8, 74, 95
5, 234240, Note_off_c, 8, 74, 95
5, 234240, Note_on_c, 8, 76, 95
5, 234480, Note_off_c, 8, 76, 95
5, 234480, Pitch_bend_c, 10, 8192
5, 234480, Note_on_c, 10, 76, 95
5, 234480, Pitch_bend_c, 10, 8192
5, 234480, Note_on_c, 10, 70, 95
5, 234525, Pitch_bend_c, 10, 8320
5, 234552, Pitch_bend_c, 10, 8320
5, 234570, Pitch_bend_c, 10, 8448
5, 234615, Pitch_bend_c, 10, 8576
5, 234624, Pitch_bend_c, 10, 8448
5, 234660, Pitch_bend_c, 10, 8704
5, 234696, Pitch_bend_c, 10, 8576
5, 234705, Pitch_bend_c, 10, 8832
5, 234750, Pitch_bend_c, 10, 8960
5, 234768, Pitch_bend_c, 10, 8704
5, 234795, Pitch_bend_c, 10, 9088
5, 234840, Pitch_bend_c, 10, 8832
5, 234840, Pitch_bend_c, 10, 8832
5, 234840, Pitch_bend_c, 10, 9216
5, 234840, Pitch_bend_c, 10, 9216
5, 235200, Pitch_bend_c, 10, 8832
5, 235200, Pitch_bend_c, 10, 8192
5, 235200, Note_off_c, 10, 76, 95
5, 235200, Pitch_bend_c, 10, 9216
5, 235200, Pitch_bend_c, 10, 8192
5, 235200, Note_off_c, 10, 70, 95
5, 235200, Pitch_bend_c, 10, 8192
5, 235200, Note_on_c, 10, 76, 95
5, 235296, Pitch_bend_c, 10, 8320
5, 235392, Pitch_bend_c, 10, 8448
5, 235488, Pitch_bend_c, 10, 8576
5, 235584, Pitch_bend_c, 10, 8704
5, 235680, Pitch_bend_c, 10, 8832
5, 235680, Pitch_bend_c, 10, 8832
5, 236160, Pitch_bend_c, 10, 8832
5, 236160, Pitch_bend_c, 10, 8192
5, 236160, Note_off_c, 10, 76, 95
5, 236160, Note_on_c, 8, 78, 95
5, 236160, Note_on_c, 8, 71, 95
5, 236640, Note_off_c, 8, 78, 95
5, 236640, Note_off_c, 8, 71, 95
5, 236640, Note_on_c, 8, 74, 95
5, 236880, Note_off_c, 8, 74, 95
5, 236880, Note_on_c, 8, 76, 95
5, 237120, Note_off_c, 8, 76, 95
5, 237120, Note_on_c, 8, 78, 95
5, 237360, Note_off_c, 8, 78, 95
5, 237360, Note_on_c, 8, 74, 95
5, 237600, Note_off_c, 8, 74, 95
5, 237600, Note_on_c, 8, 76, 95
5, 237840, Note_off_c, 8, 76, 95
5, 237840, Note_on_c, 8, 78, 95
5, 238080, Note_off_c, 8, 78, 95
5, 238080, Note_on_c, 8, 74, 95
5, 238320, Note_off_c, 8, 74, 95
5, 238320, Note_on_c, 8, 74, 95
5, 238560, Note_off_c, 8, 74, 95
5, 238560, Note_on_c, 8, 76, 95
5, 238680, Note_off_c, 8, 76, 95
5, 238680, Note_on_c, 8, 78, 95
5, 238800, Note_off_c, 8, 78, 95
5, 238800, Note_on_c, 8, 74, 95
5, 238920, Note_off_c, 8, 74, 95
5, 238920, Note_on_c, 8, 76, 95
5, 239040, Note_off_c, 8, 76, 95
5, 239040, Note_on_c, 8, 78, 95
5, 239160, Note_off_c, 8, 78, 95
5, 239160, Note_on_c, 8, 74, 95
5, 239280, Note_off_c, 8, 74, 95
5, 239280, Note_on_c, 8, 76, 95
5, 239400, Note_off_c, 8, 76, 95
5, 239400, Note_on_c, 8, 78, 95
5, 239520, Note_off_c, 8, 78, 95
5, 239520, Note_on_c, 8, 74, 95
5, 239640, Note_off_c, 8, 74, 95
5, 239640, Note_on_c, 8, 76, 95
5, 239760, Note_off_c, 8, 76, 95
5, 239760, Note_on_c, 8, 78, 95
5, 239880, Note_off_c, 8, 78, 95
5, 239880, Note_on_c, 8, 74, 95
5, 240000, Note_off_c, 8, 74, 95
5, 240000, Note_on_c, 8, 76, 95
5, 240120, Note_off_c, 8, 76, 95
5, 240120, Note_on_c, 8, 78, 95
5, 240240, Note_off_c, 8, 78, 95
5, 240240, Note_on_c, 8, 76, 95
5, 240360, Note_off_c, 8, 76, 95
5, 240360, Note_on_c, 8, 74, 95
5, 240480, Note_off_c, 8, 74, 95
5, 240480, Note_on_c, 8, 76, 95
5, 240600, Note_off_c, 8, 76, 95
5, 240600, Note_on_c, 8, 71, 95
5, 240720, Note_off_c, 8, 71, 95
5, 240720, Note_on_c, 8, 74, 95
5, 240840, Note_off_c, 8, 74, 95
5, 240840, Note_on_c, 8, 76, 95
5, 240960, Note_off_c, 8, 76, 95
5, 240960, Note_on_c, 8, 71, 95
5, 241200, Note_off_c, 8, 62, 95
5, 241200, Note_off_c, 8, 71, 95
5, 241200, Note_on_c, 8, 74, 95
5, 241440, Note_off_c, 8, 74, 95
5, 241440, Note_on_c, 8, 76, 95
5, 241680, Note_off_c, 8, 76, 95
5, 241680, Note_on_c, 8, 66, 95
5, 241920, Note_off_c, 8, 66, 95
5, 241920, Note_on_c, 8, 64, 95
5, 242400, Note_off_c, 8, 64, 95
5, 242400, Note_on_c, 8, 66, 95
5, 242880, Note_off_c, 8, 66, 95
5, 242880, Note_on_c, 8, 64, 95
5, 243360, Note_off_c, 8, 64, 95
5, 243360, Note_on_c, 8, 69, 95
5, 243720, Note_off_c, 8, 69, 95
5, 243720, Note_on_c, 10, 69, 95
5, 243840, Pitch_bend_c, 10, 8192
5, 243960, Pitch_bend_c, 10, 8192
5, 244080, Pitch_bend_c, 10, 8192
5, 244080, Pitch_bend_c, 10, 8192
5, 244080, Note_off_c, 10, 69, 95
5, 244080, Note_on_c, 8, 69, 95
5, 245760, Note_off_c, 8, 69, 95
5, 245760, Note_on_c, 10, 71, 95
5, 245920, Pitch_bend_c, 10, 8192
5, 246080, Pitch_bend_c, 10, 8320
5, 246240, Pitch_bend_c, 10, 8192
5, 246400, Pitch_bend_c, 10, 8320
5, 246560, Pitch_bend_c, 10, 8192
5, 246720, Pitch_bend_c, 10, 8320
5, 246880, Pitch_bend_c, 10, 8192
5, 247040, Pitch_bend_c, 10, 8320
5, 247200, Pitch_bend_c, 10, 8192
5, 247360, Pitch_bend_c, 10, 8320
5, 247520, Pitch_bend_c, 10, 8192
5, 247680, Pitch_bend_c, 10, 8320
5, 247840, Pitch_bend_c, 10, 8192
5, 248000, Pitch_bend_c, 10, 8320
5, 248160, Pitch_bend_c, 10, 8192
5, 248320, Pitch_bend_c, 10, 8320
5, 248480, Pitch_bend_c, 10, 8192
5, 248640, Pitch_bend_c, 10, 8320
5, 248800, Pitch_bend_c, 10, 8192
5, 248960, Pitch_bend_c, 10, 8320
5, 249120, Pitch_bend_c, 10, 8192
5, 249280, Pitch_bend_c, 10, 8320
5, 249440, Pitch_bend_c, 10, 8192
5, 249600, Pitch_bend_c, 10, 8320
5, 249600, Pitch_bend_c, 10, 8192
5, 249600, Note_off_c, 10, 71, 95
5, 249600, End_track
6, 0, Start_track
6, 0, Pitch_bend_c, 2, 8192
6, 0, Control_c, 2, 7, 47
6, 0, Control_c, 2, 10, 63
6, 0, Control_c, 2, 93, 0
6, 0, Control_c, 2, 91, 0
6, 0, Control_c, 2, 95, 0
6, 0, Control_c, 2, 92, 0
6, 0, Control_c, 2, 11, 127
6, 0, Program_c, 2, 73
6, 0, Control_c, 3, 7, 47
6, 0, Control_c, 3, 10, 63
6, 0, Control_c, 3, 93, 0
6, 0, Control_c, 3, 91, 0
6, 0, Control_c, 3, 95, 0
6, 0, Control_c, 3, 92, 0
6, 0, Control_c, 3, 11, 127
6, 0, Program_c, 3, 73
6, 15360, Note_on_c, 2, 71, 95
6, 16320, Note_off_c, 2, 71, 95
6, 16320, Note_on_c, 2, 78, 95
6, 16800, Note_off_c, 2, 78, 95
6, 16800, Note_on_c, 2, 69, 95
6, 18240, Note_off_c, 2, 69, 95
6, 18240, Note_on_c, 2, 78, 95
6, 18720, Note_off_c, 2, 78, 95
6, 18720, Note_on_c, 2, 68, 95
6, 19680, Note_off_c, 2, 68, 95
6, 19680, Note_on_c, 2, 71, 95
6, 20160, Note_off_c, 2, 71, 95
6, 20160, Note_on_c, 2, 73, 95
6, 20640, Note_off_c, 2, 73, 95
6, 20640, Note_on_c, 2, 71, 95
6, 21120, Note_off_c, 2, 71, 95
6, 21120, Note_on_c, 2, 74, 95
6, 21600, Note_off_c, 2, 74, 95
6, 21600, Note_on_c, 2, 71, 95
6, 22080, Note_off_c, 2, 71, 95
6, 22080, Note_on_c, 2, 73, 95
6, 22560, Note_off_c, 2, 73, 95
6, 22560, Note_on_c, 2, 71, 95
6, 23040, Note_off_c, 2, 71, 95
6, 23040, Note_on_c, 2, 71, 95
6, 24000, Note_off_c, 2, 71, 95
6, 24000, Note_on_c, 2, 78, 95
6, 24480, Note_off_c, 2, 78, 95
6, 24480, Note_on_c, 2, 69, 95
6, 25920, Note_off_c, 2, 69, 95
6, 25920, Note_on_c, 2, 78, 95
6, 26400, Note_off_c, 2, 78, 95
6, 26400, Note_on_c, 2, 68, 95
6, 27360, Note_off_c, 2, 68, 95
6, 27360, Note_on_c, 2, 71, 95
6, 27840, Note_off_c, 2, 71, 95
6, 27840, Note_on_c, 2, 73, 95
6, 28320, Note_off_c, 2, 73, 95
6, 28320, Note_on_c, 2, 71, 95
6, 28800, Note_off_c, 2, 71, 95
6, 28800, Note_on_c, 2, 74, 95
6, 29280, Note_off_c, 2, 74, 95
6, 29280, Note_on_c, 2, 71, 95
6, 29760, Note_off_c, 2, 71, 95
6, 29760, Note_on_c, 2, 73, 95
6, 30240, Note_off_c, 2, 73, 95
6, 30240, Note_on_c, 2, 71, 95
6, 30720, Note_off_c, 2, 71, 95
6, 30720, Note_on_c, 2, 71, 95
6, 31680, Note_off_c, 2, 71, 95
6, 31680, Note_on_c, 2, 78, 95
6, 32160, Note_off_c, 2, 78, 95
6, 32160, Note_on_c, 2, 69, 95
6, 33600, Note_off_c, 2, 69, 95
6, 33600, Note_on_c, 2, 78, 95
6, 34080, Note_off_c, 2, 78, 95
6, 34080, Note_on_c, 2, 68, 95
6, 35040, Note_off_c, 2, 68, 95
6, 35040, Note_on_c, 2, 71, 95
6, 35520, Note_off_c, 2, 71, 95
6, 35520, Note_on_c, 2, 73, 95
6, 36000, Note_off_c, 2, 73, 95
6, 36000, Note_on_c, 2, 71, 95
6, 36480, Note_off_c, 2, 71, 95
6, 36480, Note_on_c, 2, 74, 95
6, 36960, Note_off_c, 2, 74, 95
6, 36960, Note_on_c, 2, 71, 95
6, 37440, Note_off_c, 2, 71, 95
6, 37440, Note_on_c, 2, 73, 95
6, 37920, Note_off_c, 2, 73, 95
6, 37920, Note_on_c, 2, 71, 95
6, 38400, Note_off_c, 2, 71, 95
6, 38400, Note_on_c, 2, 71, 95
6, 39360, Note_off_c, 2, 71, 95
6, 39360, Note_on_c, 2, 78, 95
6, 39840, Note_off_c, 2, 78, 95
6, 39840, Note_on_c, 2, 69, 95
6, 41280, Note_off_c, 2, 69, 95
6, 41280, Note_on_c, 2, 78, 95
6, 41760, Note_off_c, 2, 78, 95
6, 41760, Note_on_c, 2, 68, 95
6, 42720, Note_off_c, 2, 68, 95
6, 42720, Note_on_c, 2, 71, 95
6, 43200, Note_off_c, 2, 71, 95
6, 43200, Note_on_c, 2, 73, 95
6, 43680, Note_off_c, 2, 73, 95
6, 43680, Note_on_c, 2, 71, 95
6, 44160, Note_off_c, 2, 71, 95
6, 44160, Note_on_c, 2, 74, 95
6, 44640, Note_off_c, 2, 74, 95
6, 44640, Note_on_c, 2, 71, 95
6, 45120, Note_off_c, 2, 71, 95
6, 45120, Note_on_c, 2, 73, 95
6, 45600, Note_off_c, 2, 73, 95
6, 45600, Note_on_c, 2, 71, 95
6, 46080, Note_off_c, 2, 71, 95
6, 46080, Note_on_c, 2, 71, 95
6, 47040, Note_off_c, 2, 71, 95
6, 47040, Note_on_c, 2, 78, 95
6, 47520, Note_off_c, 2, 78, 95
6, 47520, Note_on_c, 2, 69, 95
6, 48960, Note_off_c, 2, 69, 95
6, 48960, Note_on_c, 2, 78, 95
6, 49440, Note_off_c, 2, 78, 95
6, 49440, Note_on_c, 2, 68, 95
6, 50400, Note_off_c, 2, 68, 95
6, 50400, Note_on_c, 2, 71, 95
6, 50880, Note_off_c, 2, 71, 95
6, 50880, Note_on_c, 2, 73, 95
6, 51360, Note_off_c, 2, 73, 95
6, 51360, Note_on_c, 2, 71, 95
6, 51840, Note_off_c, 2, 71, 95
6, 51840, Note_on_c, 2, 74, 95
6, 52320, Note_off_c, 2, 74, 95
6, 52320, Note_on_c, 2, 71, 95
6, 52800, Note_off_c, 2, 71, 95
6, 52800, Note_on_c, 2, 73, 95
6, 53280, Note_off_c, 2, 73, 95
6, 53280, Note_on_c, 2, 71, 95
6, 53760, Note_off_c, 2, 71, 95
6, 53760, Note_on_c, 2, 71, 95
6, 54720, Note_off_c, 2, 71, 95
6, 54720, Note_on_c, 2, 78, 95
6, 55200, Note_off_c, 2, 78, 95
6, 55200, Note_on_c, 2, 69, 95
6, 56640, Note_off_c, 2, 69, 95
6, 56640, Note_on_c, 2, 78, 95
6, 57120, Note_off_c, 2, 78, 95
6, 57120, Note_on_c, 2, 68, 95
6, 58080, Note_off_c, 2, 68, 95
6, 58080, Note_on_c, 2, 71, 95
6, 58560, Note_off_c, 2, 71, 95
6, 58560, Note_on_c, 2, 73, 95
6, 59040, Note_off_c, 2, 73, 95
6, 59040, Note_on_c, 2, 71, 95
6, 59520, Note_off_c, 2, 71, 95
6, 59520, Note_on_c, 2, 74, 95
6, 60000, Note_off_c, 2, 74, 95
6, 60000, Note_on_c, 2, 71, 95
6, 60480, Note_off_c, 2, 71, 95
6, 60480, Note_on_c, 2, 73, 95
6, 60960, Note_off_c, 2, 73, 95
6, 60960, Note_on_c, 2, 71, 95
6, 61440, Note_off_c, 2, 71, 95
6, 61440, Note_on_c, 2, 71, 95
6, 62400, Note_off_c, 2, 71, 95
6, 62400, Note_on_c, 2, 78, 95
6, 62880, Note_off_c, 2, 78, 95
6, 62880, Note_on_c, 2, 69, 95
6, 64320, Note_off_c, 2, 69, 95
6, 64320, Note_on_c, 2, 78, 95
6, 64800, Note_off_c, 2, 78, 95
6, 64800, Note_on_c, 2, 68, 95
6, 65760, Note_off_c, 2, 68, 95
6, 65760, Note_on_c, 2, 71, 95
6, 66240, Note_off_c, 2, 71, 95
6, 66240, Note_on_c, 2, 73, 95
6, 66720, Note_off_c, 2, 73, 95
6, 66720, Note_on_c, 2, 71, 95
6, 67200, Note_off_c, 2, 71, 95
6, 67200, Note_on_c, 2, 74, 95
6, 67680, Note_off_c, 2, 74, 95
6, 67680, Note_on_c, 2, 71, 95
6, 68160, Note_off_c, 2, 71, 95
6, 68160, Note_on_c, 2, 73, 95
6, 68640, Note_off_c, 2, 73, 95
6, 68640, Note_on_c, 2, 71, 95
6, 69120, Note_off_c, 2, 71, 95
6, 69120, Note_on_c, 2, 71, 95
6, 70080, Note_off_c, 2, 71, 95
6, 70080, Note_on_c, 2, 78, 95
6, 70560, Note_off_c, 2, 78, 95
6, 70560, Note_on_c, 2, 69, 95
6, 72000, Note_off_c, 2, 69, 95
6, 72000, Note_on_c, 2, 78, 95
6, 72480, Note_off_c, 2, 78, 95
6, 72480, Note_on_c, 2, 68, 95
6, 73440, Note_off_c, 2, 68, 95
6, 73440, Note_on_c, 2, 71, 95
6, 73920, Note_off_c, 2, 71, 95
6, 73920, Note_on_c, 2, 73, 95
6, 74400, Note_off_c, 2, 73, 95
6, 74400, Note_on_c, 2, 71, 95
6, 74880, Note_off_c, 2, 71, 95
6, 74880, Note_on_c, 2, 74, 95
6, 75360, Note_off_c, 2, 74, 95
6, 75360, Note_on_c, 2, 71, 95
6, 75840, Note_off_c, 2, 71, 95
6, 75840, Note_on_c, 2, 73, 95
6, 76320, Note_off_c, 2, 73, 95
6, 76320, Note_on_c, 2, 71, 95
6, 76800, Note_off_c, 2, 71, 95
6, 76800, Note_on_c, 2, 71, 95
6, 77760, Note_off_c, 2, 71, 95
6, 77760, Note_on_c, 2, 78, 95
6, 78240, Note_off_c, 2, 78, 95
6, 78240, Note_on_c, 2, 69, 95
6, 79680, Note_off_c, 2, 69, 95
6, 79680, Note_on_c, 2, 78, 95
6, 80160, Note_off_c, 2, 78, 95
6, 80160, Note_on_c, 2, 68, 95
6, 81120, Note_off_c, 2, 68, 95
6, 81120, Note_on_c, 2, 71, 95
6, 81600, Note_off_c, 2, 71, 95
6, 81600, Note_on_c, 2, 73, 95
6, 82080, Note_off_c, 2, 73, 95
6, 82080, Note_on_c, 2, 71, 95
6, 82560, Note_off_c, 2, 71, 95
6, 82560, Note_on_c, 2, 74, 95
6, 83040, Note_off_c, 2, 74, 95
6, 83040, Note_on_c, 2, 71, 95
6, 83520, Note_off_c, 2, 71, 95
6, 83520, Note_on_c, 2, 73, 95
6, 84000, Note_off_c, 2, 73, 95
6, 84000, Note_on_c, 2, 71, 95
6, 84480, Note_off_c, 2, 71, 95
6, 84480, Note_on_c, 2, 71, 95
6, 85440, Note_off_c, 2, 71, 95
6, 85440, Note_on_c, 2, 78, 95
6, 85920, Note_off_c, 2, 78, 95
6, 85920, Note_on_c, 2, 69, 95
6, 87360, Note_off_c, 2, 69, 95
6, 87360, Note_on_c, 2, 78, 95
6, 87840, Note_off_c, 2, 78, 95
6, 87840, Note_on_c, 2, 68, 95
6, 88800, Note_off_c, 2, 68, 95
6, 88800, Note_on_c, 2, 71, 95
6, 89280, Note_off_c, 2, 71, 95
6, 89280, Note_on_c, 2, 73, 95
6, 89760, Note_off_c, 2, 73, 95
6, 89760, Note_on_c, 2, 71, 95
6, 90240, Note_off_c, 2, 71, 95
6, 90240, Note_on_c, 2, 74, 95
6, 90720, Note_off_c, 2, 74, 95
6, 90720, Note_on_c, 2, 71, 95
6, 91200, Note_off_c, 2, 71, 95
6, 91200, Note_on_c, 2, 73, 95
6, 91680, Note_off_c, 2, 73, 95
6, 91680, Note_on_c, 2, 71, 95
6, 92160, Note_off_c, 2, 71, 95
6, 261120, Note_on_c, 2, 71, 95
6, 262080, Note_off_c, 2, 71, 95
6, 262080, Note_on_c, 2, 78, 95
6, 262560, Note_off_c, 2, 78, 95
6, 262560, Note_on_c, 2, 69, 95
6, 264000, Note_off_c, 2, 69, 95
6, 264000, Note_on_c, 2, 78, 95
6, 264480, Note_off_c, 2, 78, 95
6, 264480, Note_on_c, 2, 68, 95
6, 265440, Note_off_c, 2, 68, 95
6, 265440, Note_on_c, 2, 71, 95
6, 265920, Note_off_c, 2, 71, 95
6, 265920, Note_on_c, 2, 73, 95
6, 266400, Note_off_c, 2, 73, 95
6, 266400, Note_on_c, 2, 71, 95
6, 266880, Note_off_c, 2, 71, 95
6, 266880, Note_on_c, 2, 74, 95
6, 267360, Note_off_c, 2, 74, 95
6, 267360, Note_on_c, 2, 71, 95
6, 267840, Note_off_c, 2, 71, 95
6, 267840, Note_on_c, 2, 73, 95
6, 268320, Note_off_c, 2, 73, 95
6, 268320, Note_on_c, 2, 71, 95
6, 268800, Note_off_c, 2, 71, 95
6, 268800, Note_on_c, 2, 71, 95
6, 269760, Note_off_c, 2, 71, 95
6, 269760, Note_on_c, 2, 78, 95
6, 270240, Note_off_c, 2, 78, 95
6, 270240, Note_on_c, 2, 69, 95
6, 271680, Note_off_c, 2, 69, 95
6, 271680, Note_on_c, 2, 78, 95
6, 272160, Note_off_c, 2, 78, 95
6, 272160, Note_on_c, 2, 68, 95
6, 273120, Note_off_c, 2, 68, 95
6, 273120, Note_on_c, 2, 71, 95
6, 273600, Note_off_c, 2, 71, 95
6, 273600, Note_on_c, 2, 73, 95
6, 274080, Note_off_c, 2, 73, 95
6, 274080, Note_on_c, 2, 71, 95
6, 274560, Note_off_c, 2, 71, 95
6, 274560, Note_on_c, 2, 74, 95
6, 275040, Note_off_c, 2, 74, 95
6, 275040, Note_on_c, 2, 71, 95
6, 275520, Note_off_c, 2, 71, 95
6, 275520, Note_on_c, 2, 73, 95
6, 276000, Note_off_c, 2, 73, 95
6, 276000, Note_on_c, 2, 71, 95
6, 276480, Note_off_c, 2, 71, 95
6, 276480, Note_on_c, 2, 71, 95
6, 277440, Note_off_c, 2, 71, 95
6, 277440, Note_on_c, 2, 78, 95
6, 277920, Note_off_c, 2, 78, 95
6, 277920, Note_on_c, 2, 69, 95
6, 279360, Note_off_c, 2, 69, 95
6, 279360, Note_on_c, 2, 78, 95
6, 279840, Note_off_c, 2, 78, 95
6, 279840, Note_on_c, 2, 68, 95
6, 280800, Note_off_c, 2, 68, 95
6, 280800, Note_on_c, 2, 71, 95
6, 281280, Note_off_c, 2, 71, 95
6, 281280, Note_on_c, 2, 73, 95
6, 281760, Note_off_c, 2, 73, 95
6, 281760, Note_on_c, 2, 71, 95
6, 282240, Note_off_c, 2, 71, 95
6, 282240, Note_on_c, 2, 74, 95
6, 282720, Note_off_c, 2, 74, 95
6, 282720, Note_on_c, 2, 71, 95
6, 283200, Note_off_c, 2, 71, 95
6, 283200, Note_on_c, 2, 73, 95
6, 283680, Note_off_c, 2, 73, 95
6, 283680, Note_on_c, 2, 71, 95
6, 284160, Note_off_c, 2, 71, 95
6, 284160, Note_on_c, 2, 71, 95
6, 285120, Note_off_c, 2, 71, 95
6, 285120, Note_on_c, 2, 78, 95
6, 285600, Note_off_c, 2, 78, 95
6, 285600, Note_on_c, 2, 69, 95
6, 287040, Note_off_c, 2, 69, 95
6, 287040, Note_on_c, 2, 78, 95
6, 287520, Note_off_c, 2, 78, 95
6, 287520, Note_on_c, 2, 68, 95
6, 288480, Note_off_c, 2, 68, 95
6, 288480, Note_on_c, 2, 71, 95
6, 288960, Note_off_c, 2, 71, 95
6, 288960, Note_on_c, 2, 73, 95
6, 289440, Note_off_c, 2, 73, 95
6, 289440, Note_on_c, 2, 71, 95
6, 289920, Note_off_c, 2, 71, 95
6, 289920, Note_on_c, 2, 74, 95
6, 290400, Note_off_c, 2, 74, 95
6, 290400, Note_on_c, 2, 71, 95
6, 290880, Note_off_c, 2, 71, 95
6, 290880, Note_on_c, 2, 73, 95
6, 291360, Note_off_c, 2, 73, 95
6, 291360, Note_on_c, 2, 71, 95
6, 291840, Note_off_c, 2, 71, 95
6, 291840, Note_on_c, 2, 71, 95
6, 292800, Note_off_c, 2, 71, 95
6, 292800, Note_on_c, 2, 78, 95
6, 293280, Note_off_c, 2, 78, 95
6, 293280, Note_on_c, 2, 69, 95
6, 294720, Note_off_c, 2, 69, 95
6, 294720, Note_on_c, 2, 78, 95
6, 295200, Note_off_c, 2, 78, 95
6, 295200, Note_on_c, 2, 68, 95
6, 299040, Note_off_c, 2, 68, 95
6, 301440, Note_on_c, 2, 71, 95
6, 302400, Note_off_c, 2, 71, 95
6, 302400, Note_on_c, 2, 78, 95
6, 302880, Note_off_c, 2, 78, 95
6, 302880, Note_on_c, 2, 69, 95
6, 303840, Note_off_c, 2, 69, 95
6, 304320, Note_on_c, 2, 78, 95
6, 304800, Note_off_c, 2, 78, 95
6, 304800, Note_on_c, 2, 68, 95
6, 305760, Note_off_c, 2, 68, 95
6, 305760, Note_on_c, 2, 71, 95
6, 306240, Note_off_c, 2, 71, 95
6, 306240, Note_on_c, 2, 73, 95
6, 306720, Note_off_c, 2, 73, 95
6, 306720, Note_on_c, 2, 71, 95
6, 307200, Note_off_c, 2, 71, 95
6, 307200, Note_on_c, 2, 74, 95
6, 307680, Note_off_c, 2, 74, 95
6, 307680, Note_on_c, 2, 71, 95
6, 308160, Note_off_c, 2, 71, 95
6, 308160, Note_on_c, 2, 73, 95
6, 308640, Note_off_c, 2, 73, 95
6, 308640, Note_on_c, 2, 71, 95
6, 309120, Note_off_c, 2, 71, 95
6, 309120, Note_on_c, 2, 71, 95
6, 311040, Note_off_c, 2, 71, 95
6, 311040, End_track
7, 0, Start_track
7, 0, Pitch_bend_c, 4, 8192
7, 0, Control_c, 4, 7, 87
7, 0, Control_c, 4, 10, 63
7, 0, Control_c, 4, 93, 0
7, 0, Control_c, 4, 91, 0
7, 0, Control_c, 4, 95, 0
7, 0, Control_c, 4, 92, 0
7, 0, Control_c, 4, 11, 127
7, 0, Program_c, 4, 34
7, 0, Control_c, 5, 7, 87
7, 0, Control_c, 5, 10, 63
7, 0, Control_c, 5, 93, 0
7, 0, Control_c, 5, 91, 0
7, 0, Control_c, 5, 95, 0
7, 0, Control_c, 5, 92, 0
7, 0, Control_c, 5, 11, 127
7, 0, Program_c, 5, 34
7, 53760, Note_on_c, 4, 35, 95
7, 55200, Note_off_c, 4, 35, 95
7, 55200, Note_on_c, 4, 38, 95
7, 57120, Note_off_c, 4, 38, 95
7, 57120, Note_on_c, 4, 32, 95
7, 59040, Note_off_c, 4, 32, 95
7, 59040, Note_on_c, 4, 31, 95
7, 60000, Note_off_c, 4, 31, 95
7, 60000, Note_on_c, 4, 31, 95
7, 60480, Note_off_c, 4, 31, 95
7, 60480, Note_on_c, 4, 30, 95
7, 60960, Note_off_c, 4, 30, 95
7, 60960, Note_on_c, 4, 30, 95
7, 61440, Note_off_c, 4, 30, 95
7, 61440, Note_on_c, 4, 35, 95
7, 62880, Note_off_c, 4, 35, 95
7, 62880, Note_on_c, 4, 38, 95
7, 64800, Note_off_c, 4, 38, 95
7, 64800, Note_on_c, 4, 32, 95
7, 66720, Note_off_c, 4, 32, 95
7, 66720, Note_on_c, 4, 31, 95
7, 67680, Note_off_c, 4, 31, 95
7, 67680, Note_on_c, 4, 31, 95
7, 68160, Note_off_c, 4, 31, 95
7, 68160, Note_on_c, 4, 30, 95
7, 68640, Note_off_c, 4, 30, 95
7, 68640, Note_on_c, 4, 30, 95
7, 69120, Note_off_c, 4, 30, 95
7, 69120, Note_on_c, 4, 35, 95
7, 70560, Note_off_c, 4, 35, 95
7, 70560, Note_on_c, 4, 38, 95
7, 72480, Note_off_c, 4, 38, 95
7, 72480, Note_on_c, 4, 32, 95
7, 74400, Note_off_c, 4, 32, 95
7, 74400, Note_on_c, 4, 31, 95
7, 75360, Note_off_c, 4, 31, 95
7, 75360, Note_on_c, 4, 31, 95
7, 75840, Note_off_c, 4, 31, 95
7, 75840, Note_on_c, 4, 30, 95
7, 76320, Note_off_c, 4, 30, 95
7, 76320, Note_on_c, 4, 30, 95
7, 76800, Note_off_c, 4, 30, 95
7, 76800, Note_on_c, 4, 35, 95
7, 78240, Note_off_c, 4, 35, 95
7, 78240, Note_on_c, 4, 38, 95
7, 80160, Note_off_c, 4, 38, 95
7, 80160, Note_on_c, 4, 32, 95
7, 82080, Note_off_c, 4, 32, 95
7, 82080, Note_on_c, 4, 31, 95
7, 83040, Note_off_c, 4, 31, 95
7, 83040, Note_on_c, 4, 31, 95
7, 83520, Note_off_c, 4, 31, 95
7, 83520, Note_on_c, 4, 30, 95
7, 84000, Note_off_c, 4, 30, 95
7, 84000, Note_on_c, 4, 30, 95
7, 84480, Note_off_c, 4, 30, 95
7, 84480, Note_on_c, 4, 35, 95
7, 85920, Note_off_c, 4, 35, 95
7, 85920, Note_on_c, 4, 38, 95
7, 87840, Note_off_c, 4, 38, 95
7, 87840, Note_on_c, 4, 32, 95
7, 89760, Note_off_c, 4, 32, 95
7, 89760, Note_on_c, 4, 31, 95
7, 90720, Note_off_c, 4, 31, 95
7, 90720, Note_on_c, 4, 31, 95
7, 91200, Note_off_c, 4, 31, 95
7, 91200, Note_on_c, 4, 30, 95
7, 91680, Note_off_c, 4, 30, 95
7, 91680, Note_on_c, 4, 30, 95
7, 92160, Note_off_c, 4, 30, 95
7, 92160, Note_on_c, 4, 35, 95
7, 92640, Note_off_c, 4, 35, 95
7, 92640, Note_on_c, 4, 35, 95
7, 93120, Note_off_c, 4, 35, 95
7, 94080, Note_on_c, 4, 38, 95
7, 94560, Note_off_c, 4, 38, 95
7, 94560, Note_on_c, 4, 38, 95
7, 95040, Note_off_c, 4, 38, 95
7, 96000, Note_on_c, 4, 40, 95
7, 96480, Note_off_c, 4, 40, 95
7, 96480, Note_on_c, 4, 40, 95
7, 96960, Note_off_c, 4, 40, 95
7, 96960, Note_on_c, 4, 33, 95
7, 97200, Note_off_c, 4, 33, 95
7, 97200, Note_on_c, 4, 35, 95
7, 97440, Note_off_c, 4, 35, 95
7, 97440, Note_on_c, 4, 38, 95
7, 97680, Note_off_c, 4, 38, 95
7, 97680, Note_on_c, 4, 35, 95
7, 97920, Note_off_c, 4, 35, 95
7, 97920, Note_on_c, 4, 38, 95
7, 98400, Note_off_c, 4, 38, 95
7, 98400, Note_on_c, 4, 35, 95
7, 98640, Note_off_c, 4, 35, 95
7, 98640, Note_on_c, 4, 38, 95
7, 99120, Note_off_c, 4, 38, 95
7, 99120, Note_on_c, 4, 35, 95
7, 99360, Note_off_c, 4, 35, 95
7, 99360, Note_on_c, 4, 40, 95
7, 99600, Note_off_c, 4, 40, 95
7, 99600, Note_on_c, 4, 40, 95
7, 99840, Note_off_c, 4, 40, 95
7, 99840, Note_on_c, 4, 35, 95
7, 100320, Note_off_c, 4, 35, 95
7, 100320, Note_on_c, 4, 35, 95
7, 100800, Note_off_c, 4, 35, 95
7, 101760, Note_on_c, 4, 38, 95
7, 102240, Note_off_c, 4, 38, 95
7, 102240, Note_on_c, 4, 38, 95
7, 102720, Note_off_c, 4, 38, 95
7, 103680, Note_on_c, 4, 40, 95
7, 104160, Note_off_c, 4, 40, 95
7, 104160, Note_on_c, 4, 40, 95
7, 104640, Note_off_c, 4, 40, 95
7, 104640, Note_on_c, 4, 33, 95
7, 104880, Note_off_c, 4, 33, 95
7, 104880, Note_on_c, 4, 35, 95
7, 105120, Note_off_c, 4, 35, 95
7, 105120, Note_on_c, 4, 38, 95
7, 105360, Note_off_c, 4, 38, 95
7, 105360, Note_on_c, 4, 35, 95
7, 105600, Note_off_c, 4, 35, 95
7, 105600, Note_on_c, 4, 38, 95
7, 106080, Note_off_c, 4, 38, 95
7, 106080, Note_on_c, 4, 35, 95
7, 106320, Note_off_c, 4, 35, 95
7, 106320, Note_on_c, 4, 38, 95
7, 106800, Note_off_c, 4, 38, 95
7, 106800, Note_on_c, 4, 35, 95
7, 107040, Note_off_c, 4, 35, 95
7, 107040, Note_on_c, 4, 40, 95
7, 107280, Note_off_c, 4, 40, 95
7, 107280, Note_on_c, 4, 40, 95
7, 107520, Note_off_c, 4, 40, 95
7, 107520, Note_on_c, 4, 35, 95
7, 108000, Note_off_c, 4, 35, 95
7, 108000, Note_on_c, 4, 35, 95
7, 108480, Note_off_c, 4, 35, 95
7, 109440, Note_on_c, 4, 38, 95
7, 109920, Note_off_c, 4, 38, 95
7, 109920, Note_on_c, 4, 38, 95
7, 110400, Note_off_c, 4, 38, 95
7, 111360, Note_on_c, 4, 40, 95
7, 111840, Note_off_c, 4, 40, 95
7, 111840, Note_on_c, 4, 40, 95
7, 112320, Note_off_c, 4, 40, 95
7, 112320, Note_on_c, 4, 33, 95
7, 112560, Note_off_c, 4, 33, 95
7, 112560, Note_on_c, 4, 35, 95
7, 112800, Note_off_c, 4, 35, 95
7, 112800, Note_on_c, 4, 38, 95
7, 113040, Note_off_c, 4, 38, 95
7, 113040, Note_on_c, 4, 35, 95
7, 113280, Note_off_c, 4, 35, 95
7, 113280, Note_on_c, 4, 38, 95
7, 113760, Note_off_c, 4, 38, 95
7, 113760, Note_on_c, 4, 35, 95
7, 114000, Note_off_c, 4, 35, 95
7, 114000, Note_on_c, 4, 38, 95
7, 114480, Note_off_c, 4, 38, 95
7, 114480, Note_on_c, 4, 35, 95
7, 114720, Note_off_c, 4, 35, 95
7, 114720, Note_on_c, 4, 40, 95
7, 114960, Note_off_c, 4, 40, 95
7, 114960, Note_on_c, 4, 40, 95
7, 115200, Note_off_c, 4, 40, 95
7, 115200, Note_on_c, 4, 35, 95
7, 115680, Note_off_c, 4, 35, 95
7, 115680, Note_on_c, 4, 35, 95
7, 116160, Note_off_c, 4, 35, 95
7, 117120, Note_on_c, 4, 38, 95
7, 117600, Note_off_c, 4, 38, 95
7, 117600, Note_on_c, 4, 38, 95
7, 118080, Note_off_c, 4, 38, 95
7, 119040, Note_on_c, 4, 40, 95
7, 119520, Note_off_c, 4, 40, 95
7, 119520, Note_on_c, 4, 40, 95
7, 120000, Note_off_c, 4, 40, 95
7, 120000, Note_on_c, 4, 33, 95
7, 120240, Note_off_c, 4, 33, 95
7, 120240, Note_on_c, 4, 35, 95
7, 120480, Note_off_c, 4, 35, 95
7, 120480, Note_on_c, 4, 38, 95
7, 120720, Note_off_c, 4, 38, 95
7, 120720, Note_on_c, 4, 35, 95
7, 120960, Note_off_c, 4, 35, 95
7, 120960, Note_on_c, 4, 38, 95
7, 121440, Note_off_c, 4, 38, 95
7, 121440, Note_on_c, 4, 35, 95
7, 121680, Note_off_c, 4, 35, 95
7, 121680, Note_on_c, 4, 38, 95
7, 122160, Note_off_c, 4, 38, 95
7, 122160, Note_on_c, 4, 35, 95
7, 122400, Note_off_c, 4, 35, 95
7, 122400, Note_on_c, 4, 40, 95
7, 122640, Note_off_c, 4, 40, 95
7, 122640, Note_on_c, 4, 40, 95
7, 122880, Note_off_c, 4, 40, 95
7, 122880, Note_on_c, 4, 35, 95
7, 124320, Note_off_c, 4, 35, 95
7, 124320, Note_on_c, 4, 33, 95
7, 125760, Note_off_c, 4, 33, 95
7, 125760, Note_on_c, 4, 33, 95
7, 126720, Note_off_c, 4, 33, 95
7, 126720, Note_on_c, 4, 32, 95
7, 127200, Note_off_c, 4, 32, 95
7, 127200, Note_on_c, 4, 32, 95
7, 127680, Note_off_c, 4, 32, 95
7, 127680, Note_on_c, 4, 32, 95
7, 128160, Note_off_c, 4, 32, 95
7, 128160, Note_on_c, 4, 32, 95
7, 128640, Note_off_c, 4, 32, 95
7, 128640, Note_on_c, 4, 31, 95
7, 129120, Note_off_c, 4, 31, 95
7, 129120, Note_on_c, 4, 31, 95
7, 129600, Note_off_c, 4, 31, 95
7, 129600, Note_on_c, 4, 33, 95
7, 130080, Note_off_c, 4, 33, 95
7, 130080, Note_on_c, 4, 33, 95
7, 130560, Note_off_c, 4, 33, 95
7, 130560, Note_on_c, 4, 35, 95
7, 132000, Note_off_c, 4, 35, 95
7, 132000, Note_on_c, 4, 33, 95
7, 133440, Note_off_c, 4, 33, 95
7, 133440, Note_on_c, 4, 33, 95
7, 134400, Note_off_c, 4, 33, 95
7, 134400, Note_on_c, 4, 32, 95
7, 134880, Note_off_c, 4, 32, 95
7, 134880, Note_on_c, 4, 32, 95
7, 135360, Note_off_c, 4, 32, 95
7, 135360, Note_on_c, 4, 32, 95
7, 135840, Note_off_c, 4, 32, 95
7, 135840, Note_on_c, 4, 32, 95
7, 136320, Note_off_c, 4, 32, 95
7, 136320, Note_on_c, 4, 31, 95
7, 136800, Note_off_c, 4, 31, 95
7, 136800, Note_on_c, 4, 31, 95
7, 137280, Note_off_c, 4, 31, 95
7, 137280, Note_on_c, 4, 33, 95
7, 137760, Note_off_c, 4, 33, 95
7, 137760, Note_on_c, 4, 33, 95
7, 138240, Note_off_c, 4, 33, 95
7, 138240, Note_on_c, 4, 35, 95
7, 139680, Note_off_c, 4, 35, 95
7, 139680, Note_on_c, 4, 33, 95
7, 141120, Note_off_c, 4, 33, 95
7, 141120, Note_on_c, 4, 33, 95
7, 142080, Note_off_c, 4, 33, 95
7, 142080, Note_on_c, 4, 32, 95
7, 142560, Note_off_c, 4, 32, 95
7, 142560, Note_on_c, 4, 32, 95
7, 143040, Note_off_c, 4, 32, 95
7, 143040, Note_on_c, 4, 32, 95
7, 143520, Note_off_c, 4, 32, 95
7, 143520, Note_on_c, 4, 32, 95
7, 144000, Note_off_c, 4, 32, 95
7, 144000, Note_on_c, 4, 31, 95
7, 144480, Note_off_c, 4, 31, 95
7, 144480, Note_on_c, 4, 31, 95
7, 144960, Note_off_c, 4, 31, 95
7, 144960, Note_on_c, 4, 33, 95
7, 145440, Note_off_c, 4, 33, 95
7, 145440, Note_on_c, 4, 33, 95
7, 145920, Note_off_c, 4, 33, 95
7, 145920, Note_on_c, 4, 35, 95
7, 146400, Note_off_c, 4, 35, 95
7, 146400, Note_on_c, 4, 35, 95
7, 146880, Note_off_c, 4, 35, 95
7, 147840, Note_on_c, 4, 38, 95
7, 148320, Note_off_c, 4, 38, 95
7, 148320, Note_on_c, 4, 38, 95
7, 148800, Note_off_c, 4, 38, 95
7, 149760, Note_on_c, 4, 40, 95
7, 150240, Note_off_c, 4, 40, 95
7, 150240, Note_on_c, 4, 40, 95
7, 150720, Note_off_c, 4, 40, 95
7, 150720, Note_on_c, 4, 33, 95
7, 150960, Note_off_c, 4, 33, 95
7, 150960, Note_on_c, 4, 35, 95
7, 151200, Note_off_c, 4, 35, 95
7, 151200, Note_on_c, 4, 38, 95
7, 151440, Note_off_c, 4, 38, 95
7, 151440, Note_on_c, 4, 35, 95
7, 151680, Note_off_c, 4, 35, 95
7, 151680, Note_on_c, 4, 38, 95
7, 152160, Note_off_c, 4, 38, 95
7, 152160, Note_on_c, 4, 35, 95
7, 152400, Note_off_c, 4, 35, 95
7, 152400, Note_on_c, 4, 38, 95
7, 152880, Note_off_c, 4, 38, 95
7, 152880, Note_on_c, 4, 35, 95
7, 153120, Note_off_c, 4, 35, 95
7, 153120, Note_on_c, 4, 40, 95
7, 153360, Note_off_c, 4, 40, 95
7, 153360, Note_on_c, 4, 40, 95
7, 153600, Note_off_c, 4, 40, 95
7, 153600, Note_on_c, 4, 35, 95
7, 154080, Note_off_c, 4, 35, 95
7, 154080, Note_on_c, 4, 35, 95
7, 154560, Note_off_c, 4, 35, 95
7, 155520, Note_on_c, 4, 38, 95
7, 156000, Note_off_c, 4, 38, 95
7, 156000, Note_on_c, 4, 38, 95
7, 156480, Note_off_c, 4, 38, 95
7, 157440, Note_on_c, 4, 40, 95
7, 157920, Note_off_c, 4, 40, 95
7, 157920, Note_on_c, 4, 40, 95
7, 158400, Note_off_c, 4, 40, 95
7, 158400, Note_on_c, 4, 33, 95
7, 158640, Note_off_c, 4, 33, 95
7, 158640, Note_on_c, 4, 35, 95
7, 158880, Note_off_c, 4, 35, 95
7, 158880, Note_on_c, 4, 38, 95
7, 159120, Note_off_c, 4, 38, 95
7, 159120, Note_on_c, 4, 35, 95
7, 159360, Note_off_c, 4, 35, 95
7, 159360, Note_on_c, 4, 38, 95
7, 159840, Note_off_c, 4, 38, 95
7, 159840, Note_on_c, 4, 35, 95
7, 160080, Note_off_c, 4, 35, 95
7, 160080, Note_on_c, 4, 38, 95
7, 160560, Note_off_c, 4, 38, 95
7, 160560, Note_on_c, 4, 35, 95
7, 160800, Note_off_c, 4, 35, 95
7, 160800, Note_on_c, 4, 40, 95
7, 161040, Note_off_c, 4, 40, 95
7, 161040, Note_on_c, 4, 40, 95
7, 161280, Note_off_c, 4, 40, 95
7, 161280, Note_on_c, 4, 35, 95
7, 161760, Note_off_c, 4, 35, 95
7, 161760, Note_on_c, 4, 35, 95
7, 162240, Note_off_c, 4, 35, 95
7, 163200, Note_on_c, 4, 38, 95
7, 163680, Note_off_c, 4, 38, 95
7, 163680, Note_on_c, 4, 38, 95
7, 164160, Note_off_c, 4, 38, 95
7, 165120, Note_on_c, 4, 40, 95
7, 165600, Note_off_c, 4, 40, 95
7, 165600, Note_on_c, 4, 40, 95
7, 166080, Note_off_c, 4, 40, 95
7, 166080, Note_on_c, 4, 33, 95
7, 166320, Note_off_c, 4, 33, 95
7, 166320, Note_on_c, 4, 35, 95
7, 166560, Note_off_c, 4, 35, 95
7, 166560, Note_on_c, 4, 38, 95
7, 166800, Note_off_c, 4, 38, 95
7, 166800, Note_on_c, 4, 35, 95
7, 167040, Note_off_c, 4, 35, 95
7, 167040, Note_on_c, 4, 38, 95
7, 167520, Note_off_c, 4, 38, 95
7, 167520, Note_on_c, 4, 35, 95
7, 167760, Note_off_c, 4, 35, 95
7, 167760, Note_on_c, 4, 38, 95
7, 168240, Note_off_c, 4, 38, 95
7, 168240, Note_on_c, 4, 35, 95
7, 168480, Note_off_c, 4, 35, 95
7, 168480, Note_on_c, 4, 40, 95
7, 168720, Note_off_c, 4, 40, 95
7, 168720, Note_on_c, 4, 40, 95
7, 168960, Note_off_c, 4, 40, 95
7, 168960, Note_on_c, 4, 35, 95
7, 169440, Note_off_c, 4, 35, 95
7, 169440, Note_on_c, 4, 35, 95
7, 169920, Note_off_c, 4, 35, 95
7, 170880, Note_on_c, 4, 38, 95
7, 171360, Note_off_c, 4, 38, 95
7, 171360, Note_on_c, 4, 38, 95
7, 171840, Note_off_c, 4, 38, 95
7, 172800, Note_on_c, 4, 40, 95
7, 173280, Note_off_c, 4, 40, 95
7, 173280, Note_on_c, 4, 40, 95
7, 173760, Note_off_c, 4, 40, 95
7, 173760, Note_on_c, 4, 33, 95
7, 174000, Note_off_c, 4, 33, 95
7, 174000, Note_on_c, 4, 35, 95
7, 174240, Note_off_c, 4, 35, 95
7, 174240, Note_on_c, 4, 38, 95
7, 174480, Note_off_c, 4, 38, 95
7, 174480, Note_on_c, 4, 35, 95
7, 174720, Note_off_c, 4, 35, 95
7, 174720, Note_on_c, 4, 38, 95
7, 175200, Note_off_c, 4, 38, 95
7, 175200, Note_on_c, 4, 35, 95
7, 175440, Note_off_c, 4, 35, 95
7, 175440, Note_on_c, 4, 38, 95
7, 175920, Note_off_c, 4, 38, 95
7, 175920, Note_on_c, 4, 35, 95
7, 176160, Note_off_c, 4, 35, 95
7, 176160, Note_on_c, 4, 40, 95
7, 176400, Note_off_c, 4, 40, 95
7, 176400, Note_on_c, 4, 40, 95
7, 176640, Note_off_c, 4, 40, 95
7, 176640, Note_on_c, 4, 35, 95
7, 177120, Note_off_c, 4, 35, 95
7, 177120, Note_on_c, 4, 35, 95
7, 177600, Note_off_c, 4, 35, 95
7, 178560, Note_on_c, 4, 38, 95
7, 179040, Note_off_c, 4, 38, 95
7, 179040, Note_on_c, 4, 38, 95
7, 179520, Note_off_c, 4, 38, 95
7, 180480, Note_on_c, 4, 40, 95
7, 180960, Note_off_c, 4, 40, 95
7, 180960, Note_on_c, 4, 40, 95
7, 181440, Note_off_c, 4, 40, 95
7, 181440, Note_on_c, 4, 33, 95
7, 181680, Note_off_c, 4, 33, 95
7, 181680, Note_on_c, 4, 35, 95
7, 181920, Note_off_c, 4, 35, 95
7, 181920, Note_on_c, 4, 38, 95
7, 182160, Note_off_c, 4, 38, 95
7, 182160, Note_on_c, 4, 35, 95
7, 182400, Note_off_c, 4, 35, 95
7, 182400, Note_on_c, 4, 38, 95
7, 182880, Note_off_c, 4, 38, 95
7, 182880, Note_on_c, 4, 35, 95
7, 183120, Note_off_c, 4, 35, 95
7, 183120, Note_on_c, 4, 38, 95
7, 183600, Note_off_c, 4, 38, 95
7, 183600, Note_on_c, 4, 35, 95
7, 183840, Note_off_c, 4, 35, 95
7, 183840, Note_on_c, 4, 40, 95
7, 184080, Note_off_c, 4, 40, 95
7, 184080, Note_on_c, 4, 40, 95
7, 184320, Note_off_c, 4, 40, 95
7, 184320, Note_on_c, 4, 35, 95
7, 185760, Note_off_c, 4, 35, 95
7, 185760, Note_on_c, 4, 33, 95
7, 187200, Note_off_c, 4, 33, 95
7, 187200, Note_on_c, 4, 33, 95
7, 188160, Note_off_c, 4, 33, 95
7, 188160, Note_on_c, 4, 32, 95
7, 188640, Note_off_c, 4, 32, 95
7, 188640, Note_on_c, 4, 32, 95
7, 189120, Note_off_c, 4, 32, 95
7, 189120, Note_on_c, 4, 32, 95
7, 189600, Note_off_c, 4, 32, 95
7, 189600, Note_on_c, 4, 32, 95
7, 190080, Note_off_c, 4, 32, 95
7, 190080, Note_on_c, 4, 31, 95
7, 190560, Note_off_c, 4, 31, 95
7, 190560, Note_on_c, 4, 31, 95
7, 191040, Note_off_c, 4, 31, 95
7, 191040, Note_on_c, 4, 33, 95
7, 191520, Note_off_c, 4, 33, 95
7, 191520, Note_on_c, 4, 33, 95
7, 192000, Note_off_c, 4, 33, 95
7, 192000, Note_on_c, 4, 35, 95
7, 193440, Note_off_c, 4, 35, 95
7, 193440, Note_on_c, 4, 33, 95
7, 194880, Note_off_c, 4, 33, 95
7, 194880, Note_on_c, 4, 33, 95
7, 195840, Note_off_c, 4, 33, 95
7, 195840, Note_on_c, 4, 32, 95
7, 196320, Note_off_c, 4, 32, 95
7, 196320, Note_on_c, 4, 32, 95
7, 196800, Note_off_c, 4, 32, 95
7, 196800, Note_on_c, 4, 32, 95
7, 197280, Note_off_c, 4, 32, 95
7, 197280, Note_on_c, 4, 32, 95
7, 197760, Note_off_c, 4, 32, 95
7, 197760, Note_on_c, 4, 31, 95
7, 198240, Note_off_c, 4, 31, 95
7, 198240, Note_on_c, 4, 31, 95
7, 198720, Note_off_c, 4, 31, 95
7, 198720, Note_on_c, 4, 33, 95
7, 199200, Note_off_c, 4, 33, 95
7, 199200, Note_on_c, 4, 33, 95
7, 199680, Note_off_c, 4, 33, 95
7, 199680, Note_on_c, 4, 35, 95
7, 201120, Note_off_c, 4, 35, 95
7, 201120, Note_on_c, 4, 33, 95
7, 202560, Note_off_c, 4, 33, 95
7, 202560, Note_on_c, 4, 33, 95
7, 203520, Note_off_c, 4, 33, 95
7, 203520, Note_on_c, 4, 32, 95
7, 204000, Note_off_c, 4, 32, 95
7, 204000, Note_on_c, 4, 32, 95
7, 204480, Note_off_c, 4, 32, 95
7, 204480, Note_on_c, 4, 32, 95
7, 204960, Note_off_c, 4, 32, 95
7, 204960, Note_on_c, 4, 32, 95
7, 205440, Note_off_c, 4, 32, 95
7, 205440, Note_on_c, 4, 31, 95
7, 205920, Note_off_c, 4, 31, 95
7, 205920, Note_on_c, 4, 31, 95
7, 206400, Note_off_c, 4, 31, 95
7, 206400, Note_on_c, 4, 33, 95
7, 206880, Note_off_c, 4, 33, 95
7, 206880, Note_on_c, 4, 33, 95
7, 207360, Note_off_c, 4, 33, 95
7, 207360, Note_on_c, 4, 35, 95
7, 207840, Note_off_c, 4, 35, 95
7, 207840, Note_on_c, 4, 35, 95
7, 208320, Note_off_c, 4, 35, 95
7, 209280, Note_on_c, 4, 38, 95
7, 209760, Note_off_c, 4, 38, 95
7, 209760, Note_on_c, 4, 38, 95
7, 210240, Note_off_c, 4, 38, 95
7, 211200, Note_on_c, 4, 40, 95
7, 211680, Note_off_c, 4, 40, 95
7, 211680, Note_on_c, 4, 40, 95
7, 212160, Note_off_c, 4, 40, 95
7, 212160, Note_on_c, 4, 33, 95
7, 212400, Note_off_c, 4, 33, 95
7, 212400, Note_on_c, 4, 35, 95
7, 212640, Note_off_c, 4, 35, 95
7, 212640, Note_on_c, 4, 38, 95
7, 212880, Note_off_c, 4, 38, 95
7, 212880, Note_on_c, 4, 35, 95
7, 213120, Note_off_c, 4, 35, 95
7, 213120, Note_on_c, 4, 38, 95
7, 213600, Note_off_c, 4, 38, 95
7, 213600, Note_on_c, 4, 35, 95
7, 213840, Note_off_c, 4, 35, 95
7, 213840, Note_on_c, 4, 38, 95
7, 214320, Note_off_c, 4, 38, 95
7, 214320, Note_on_c, 4, 35, 95
7, 214560, Note_off_c, 4, 35, 95
7, 214560, Note_on_c, 4, 40, 95
7, 214800, Note_off_c, 4, 40, 95
7, 214800, Note_on_c, 4, 40, 95
7, 215040, Note_off_c, 4, 40, 95
7, 215040, Note_on_c, 4, 35, 95
7, 215520, Note_off_c, 4, 35, 95
7, 215520, Note_on_c, 4, 35, 95
7, 216000, Note_off_c, 4, 35, 95
7, 216960, Note_on_c, 4, 38, 95
7, 217440, Note_off_c, 4, 38, 95
7, 217440, Note_on_c, 4, 38, 95
7, 217920, Note_off_c, 4, 38, 95
7, 218880, Note_on_c, 4, 40, 95
7, 219360, Note_off_c, 4, 40, 95
7, 219360, Note_on_c, 4, 40, 95
7, 219840, Note_off_c, 4, 40, 95
7, 219840, Note_on_c, 4, 33, 95
7, 220080, Note_off_c, 4, 33, 95
7, 220080, Note_on_c, 4, 35, 95
7, 220320, Note_off_c, 4, 35, 95
7, 220320, Note_on_c, 4, 38, 95
7, 220560, Note_off_c, 4, 38, 95
7, 220560, Note_on_c, 4, 35, 95
7, 220800, Note_off_c, 4, 35, 95
7, 220800, Note_on_c, 4, 38, 95
7, 221280, Note_off_c, 4, 38, 95
7, 221280, Note_on_c, 4, 35, 95
7, 221520, Note_off_c, 4, 35, 95
7, 221520, Note_on_c, 4, 38, 95
7, 222000, Note_off_c, 4, 38, 95
7, 222000, Note_on_c, 4, 35, 95
7, 222240, Note_off_c, 4, 35, 95
7, 222240, Note_on_c, 4, 40, 95
7, 222480, Note_off_c, 4, 40, 95
7, 222480, Note_on_c, 4, 40, 95
7, 222720, Note_off_c, 4, 40, 95
7, 222720, Note_on_c, 4, 35, 95
7, 223200, Note_off_c, 4, 35, 95
7, 223200, Note_on_c, 4, 35, 95
7, 223680, Note_off_c, 4, 35, 95
7, 224640, Note_on_c, 4, 38, 95
7, 225120, Note_off_c, 4, 38, 95
7, 225120, Note_on_c, 4, 38, 95
7, 225600, Note_off_c, 4, 38, 95
7, 226560, Note_on_c, 4, 40, 95
7, 227040, Note_off_c, 4, 40, 95
7, 227040, Note_on_c, 4, 40, 95
7, 227520, Note_off_c, 4, 40, 95
7, 227520, Note_on_c, 4, 33, 95
7, 227760, Note_off_c, 4, 33, 95
7, 227760, Note_on_c, 4, 35, 95
7, 228000, Note_off_c, 4, 35, 95
7, 228000, Note_on_c, 4, 38, 95
7, 228240, Note_off_c, 4, 38, 95
7, 228240, Note_on_c, 4, 35, 95
7, 228480, Note_off_c, 4, 35, 95
7, 228480, Note_on_c, 4, 38, 95
7, 228960, Note_off_c, 4, 38, 95
7, 228960, Note_on_c, 4, 35, 95
7, 229200, Note_off_c, 4, 35, 95
7, 229200, Note_on_c, 4, 38, 95
7, 229680, Note_off_c, 4, 38, 95
7, 229680, Note_on_c, 4, 35, 95
7, 229920, Note_off_c, 4, 35, 95
7, 229920, Note_on_c, 4, 40, 95
7, 230160, Note_off_c, 4, 40, 95
7, 230160, Note_on_c, 4, 40, 95
7, 230400, Note_off_c, 4, 40, 95
7, 230400, Note_on_c, 4, 35, 95
7, 230880, Note_off_c, 4, 35, 95
7, 230880, Note_on_c, 4, 35, 95
7, 231360, Note_off_c, 4, 35, 95
7, 232320, Note_on_c, 4, 38, 95
7, 232800, Note_off_c, 4, 38, 95
7, 232800, Note_on_c, 4, 38, 95
7, 233280, Note_off_c, 4, 38, 95
7, 234240, Note_on_c, 4, 40, 95
7, 234720, Note_off_c, 4, 40, 95
7, 234720, Note_on_c, 4, 40, 95
7, 235200, Note_off_c, 4, 40, 95
7, 235200, Note_on_c, 4, 33, 95
7, 235440, Note_off_c, 4, 33, 95
7, 235440, Note_on_c, 4, 35, 95
7, 235680, Note_off_c, 4, 35, 95
7, 235680, Note_on_c, 4, 38, 95
7, 235920, Note_off_c, 4, 38, 95
7, 235920, Note_on_c, 4, 35, 95
7, 236160, Note_off_c, 4, 35, 95
7, 236160, Note_on_c, 4, 38, 95
7, 236640, Note_off_c, 4, 38, 95
7, 236640, Note_on_c, 4, 35, 95
7, 236880, Note_off_c, 4, 35, 95
7, 236880, Note_on_c, 4, 38, 95
7, 237360, Note_off_c, 4, 38, 95
7, 237360, Note_on_c, 4, 35, 95
7, 237600, Note_off_c, 4, 35, 95
7, 237600, Note_on_c, 4, 40, 95
7, 237840, Note_off_c, 4, 40, 95
7, 237840, Note_on_c, 4, 40, 95
7, 238080, Note_off_c, 4, 40, 95
7, 238080, Note_on_c, 4, 35, 95
7, 238560, Note_off_c, 4, 35, 95
7, 238560, Note_on_c, 4, 35, 95
7, 239040, Note_off_c, 4, 35, 95
7, 240000, Note_on_c, 4, 38, 95
7, 240480, Note_off_c, 4, 38, 95
7, 240480, Note_on_c, 4, 38, 95
7, 240960, Note_off_c, 4, 38, 95
7, 241920, Note_on_c, 4, 40, 95
7, 242400, Note_off_c, 4, 40, 95
7, 242400, Note_on_c, 4, 40, 95
7, 242880, Note_off_c, 4, 40, 95
7, 242880, Note_on_c, 4, 33, 95
7, 243120, Note_off_c, 4, 33, 95
7, 243120, Note_on_c, 4, 35, 95
7, 243360, Note_off_c, 4, 35, 95
7, 243360, Note_on_c, 4, 38, 95
7, 243600, Note_off_c, 4, 38, 95
7, 243600, Note_on_c, 4, 35, 95
7, 243840, Note_off_c, 4, 35, 95
7, 243840, Note_on_c, 4, 38, 95
7, 244320, Note_off_c, 4, 38, 95
7, 244320, Note_on_c, 4, 35, 95
7, 244560, Note_off_c, 4, 35, 95
7, 244560, Note_on_c, 4, 38, 95
7, 245040, Note_off_c, 4, 38, 95
7, 245040, Note_on_c, 4, 35, 95
7, 245280, Note_off_c, 4, 35, 95
7, 245280, Note_on_c, 4, 40, 95
7, 245520, Note_off_c, 4, 40, 95
7, 245520, Note_on_c, 4, 40, 95
7, 245760, Note_off_c, 4, 40, 95
7, 261120, Note_on_c, 4, 35, 95
7, 262560, Note_off_c, 4, 35, 95
7, 262560, Note_on_c, 4, 38, 95
7, 264480, Note_off_c, 4, 38, 95
7, 264480, Note_on_c, 4, 32, 95
7, 266400, Note_off_c, 4, 32, 95
7, 266400, Note_on_c, 4, 31, 95
7, 267360, Note_off_c, 4, 31, 95
7, 267360, Note_on_c, 4, 31, 95
7, 267840, Note_off_c, 4, 31, 95
7, 267840, Note_on_c, 4, 30, 95
7, 268320, Note_off_c, 4, 30, 95
7, 268320, Note_on_c, 4, 30, 95
7, 268800, Note_off_c, 4, 30, 95
7, 268800, Note_on_c, 4, 35, 95
7, 270240, Note_off_c, 4, 35, 95
7, 270240, Note_on_c, 4, 38, 95
7, 272160, Note_off_c, 4, 38, 95
7, 272160, Note_on_c, 4, 32, 95
7, 274080, Note_off_c, 4, 32, 95
7, 274080, Note_on_c, 4, 31, 95
7, 275040, Note_off_c, 4, 31, 95
7, 275040, Note_on_c, 4, 31, 95
7, 275520, Note_off_c, 4, 31, 95
7, 275520, Note_on_c, 4, 30, 95
7, 276000, Note_off_c, 4, 30, 95
7, 276000, Note_on_c, 4, 30, 95
7, 276480, Note_off_c, 4, 30, 95
7, 276480, Note_on_c, 4, 35, 95
7, 277920, Note_off_c, 4, 35, 95
7, 277920, Note_on_c, 4, 38, 95
7, 279840, Note_off_c, 4, 38, 95
7, 279840, Note_on_c, 4, 32, 95
7, 281760, Note_off_c, 4, 32, 95
7, 281760, Note_on_c, 4, 31, 95
7, 282720, Note_off_c, 4, 31, 95
7, 282720, Note_on_c, 4, 31, 95
7, 283200, Note_off_c, 4, 31, 95
7, 283200, Note_on_c, 4, 30, 95
7, 283680, Note_off_c, 4, 30, 95
7, 283680, Note_on_c, 4, 30, 95
7, 284160, Note_off_c, 4, 30, 95
7, 284160, Note_on_c, 4, 35, 95
7, 285600, Note_off_c, 4, 35, 95
7, 285600, Note_on_c, 4, 38, 95
7, 287520, Note_off_c, 4, 38, 95
7, 287520, Note_on_c, 4, 32, 95
7, 289440, Note_off_c, 4, 32, 95
7, 289440, Note_on_c, 4, 31, 95
7, 290400, Note_off_c, 4, 31, 95
7, 290400, Note_on_c, 4, 31, 95
7, 290880, Note_off_c, 4, 31, 95
7, 290880, Note_on_c, 4, 30, 95
7, 291360, Note_off_c, 4, 30, 95
7, 291360, Note_on_c, 4, 30, 95
7, 291840, Note_off_c, 4, 30, 95
7, 291840, Note_on_c, 4, 35, 95
7, 293280, Note_off_c, 4, 35, 95
7, 293280, Note_on_c, 4, 38, 95
7, 295200, Note_off_c, 4, 38, 95
7, 295200, Note_on_c, 4, 32, 95
7, 297120, Note_off_c, 4, 32, 95
7, 301440, Note_on_c, 4, 35, 95
7, 302880, Note_off_c, 4, 35, 95
7, 302880, Note_on_c, 4, 38, 95
7, 304800, Note_off_c, 4, 38, 95
7, 304800, Note_on_c, 4, 32, 95
7, 305760, Note_off_c, 4, 32, 95
7, 305760, Note_on_c, 4, 35, 95
7, 306240, Note_off_c, 4, 35, 95
7, 306240, Note_on_c, 4, 37, 95
7, 306720, Note_off_c, 4, 37, 95
7, 306720, Note_on_c, 4, 35, 95
7, 307200, Note_off_c, 4, 35, 95
7, 307200, Note_on_c, 5, 37, 95
7, 307320, Pitch_bend_c, 5, 8832
7, 307320, Pitch_bend_c, 5, 8192
7, 307320, Note_off_c, 5, 37, 95
7, 307320, Note_on_c, 4, 38, 95
7, 307680, Note_off_c, 4, 38, 95
7, 307680, Note_on_c, 4, 35, 95
7, 308160, Note_off_c, 4, 35, 95
7, 308160, Note_on_c, 4, 37, 95
7, 308640, Note_off_c, 4, 37, 95
7, 308640, Note_on_c, 4, 35, 95
7, 309120, Note_off_c, 4, 35, 95
7, 309120, Note_on_c, 4, 35, 95
7, 311040, Note_off_c, 4, 35, 95
7, 311040, End_track
8, 0, Start_track
8, 0, Pitch_bend_c, 9, 8192
8, 0, Control_c, 9, 7, 79
8, 0, Control_c, 9, 10, 63
8, 0, Control_c, 9, 93, 0
8, 0, Control_c, 9, 91, 0
8, 0, Control_c, 9, 95, 0
8, 0, Control_c, 9, 92, 0
8, 0, Control_c, 9, 11, 127
8, 0, Program_c, 9, 0
8, 51840, Note_on_c, 9, 40, 95
8, 51840, Note_on_c, 9, 36, 95
8, 52080, Note_off_c, 9, 40, 95
8, 52080, Note_off_c, 9, 36, 95
8, 52560, Note_on_c, 9, 40, 95
8, 52560, Note_on_c, 9, 36, 95
8, 52800, Note_off_c, 9, 40, 95
8, 52800, Note_off_c, 9, 36, 95
8, 52800, Note_on_c, 9, 40, 95
8, 52800, Note_on_c, 9, 36, 95
8, 53040, Note_off_c, 9, 40, 95
8, 53040, Note_off_c, 9, 36, 95
8, 53040, Note_on_c, 9, 47, 95
8, 53040, Note_on_c, 9, 36, 95
8, 53280, Note_off_c, 9, 47, 95
8, 53280, Note_off_c, 9, 36, 95
8, 53280, Note_on_c, 9, 45, 95
8, 53280, Note_on_c, 9, 36, 95
8, 53520, Note_off_c, 9, 45, 95
8, 53520, Note_off_c, 9, 36, 95
8, 53520, Note_on_c, 9, 45, 95
8, 53520, Note_on_c, 9, 36, 95
8, 53760, Note_off_c, 9, 45, 95
8, 53760, Note_off_c, 9, 36, 95
8, 53760, Note_on_c, 9, 59, 95
8, 53760, Note_on_c, 9, 36, 95
8, 54720, Note_off_c, 9, 59, 95
8, 54720, Note_off_c, 9, 36, 95
8, 54720, Note_on_c, 9, 59, 95
8, 54720, Note_on_c, 9, 40, 95
8, 54720, Note_on_c, 9, 36, 95
8, 55680, Note_off_c, 9, 59, 95
8, 55680, Note_off_c, 9, 40, 95
8, 55680, Note_off_c, 9, 36, 95
8, 55680, Note_on_c, 9, 59, 95
8, 55680, Note_on_c, 9, 36, 95
8, 56640, Note_off_c, 9, 59, 95
8, 56640, Note_off_c, 9, 36, 95
8, 56640, Note_on_c, 9, 59, 95
8, 56640, Note_on_c, 9, 40, 95
8, 56640, Note_on_c, 9, 36, 95
8, 57600, Note_off_c, 9, 59, 95
8, 57600, Note_off_c, 9, 40, 95
8, 57600, Note_off_c, 9, 36, 95
8, 57600, Note_on_c, 9, 59, 95
8, 57600, Note_on_c, 9, 36, 95
8, 58560, Note_off_c, 9, 59, 95
8, 58560, Note_off_c, 9, 36, 95
8, 58560, Note_on_c, 9, 59, 95
8, 58560, Note_on_c, 9, 40, 95
8, 58560, Note_on_c, 9, 36, 95
8, 59520, Note_off_c, 9, 59, 95
8, 59520, Note_off_c, 9, 40, 95
8, 59520, Note_off_c, 9, 36, 95
8, 59520, Note_on_c, 9, 59, 95
8, 59520, Note_on_c, 9, 36, 95
8, 60480, Note_off_c, 9, 59, 95
8, 60480, Note_off_c, 9, 36, 95
8, 60480, Note_on_c, 9, 59, 95
8, 60480, Note_on_c, 9, 40, 95
8, 60480, Note_on_c, 9, 36, 95
8, 61440, Note_off_c, 9, 59, 95
8, 61440, Note_off_c, 9, 40, 95
8, 61440, Note_off_c, 9, 36, 95
8, 61440, Note_on_c, 9, 59, 95
8, 61440, Note_on_c, 9, 36, 95
8, 62400, Note_off_c, 9, 59, 95
8, 62400, Note_off_c, 9, 36, 95
8, 62400, Note_on_c, 9, 59, 95
8, 62400, Note_on_c, 9, 40, 95
8, 62400, Note_on_c, 9, 36, 95
8, 63360, Note_off_c, 9, 59, 95
8, 63360, Note_off_c, 9, 40, 95
8, 63360, Note_off_c, 9, 36, 95
8, 63360, Note_on_c, 9, 59, 95
8, 63360, Note_on_c, 9, 36, 95
8, 64320, Note_off_c, 9, 59, 95
8, 64320, Note_off_c, 9, 36, 95
8, 64320, Note_on_c, 9, 59, 95
8, 64320, Note_on_c, 9, 40, 95
8, 64320, Note_on_c, 9, 36, 95
8, 65280, Note_off_c, 9, 59, 95
8, 65280, Note_off_c, 9, 40, 95
8, 65280, Note_off_c, 9, 36, 95
8, 65280, Note_on_c, 9, 59, 95
8, 65280, Note_on_c, 9, 36, 95
8, 66240, Note_off_c, 9, 59, 95
8, 66240, Note_off_c, 9, 36, 95
8, 66240, Note_on_c, 9, 59, 95
8, 66240, Note_on_c, 9, 40, 95
8, 66240, Note_on_c, 9, 36, 95
8, 67200, Note_off_c, 9, 59, 95
8, 67200, Note_off_c, 9, 40, 95
8, 67200, Note_off_c, 9, 36, 95
8, 67200, Note_on_c, 9, 59, 95
8, 67200, Note_on_c, 9, 36, 95
8, 68160, Note_off_c, 9, 59, 95
8, 68160, Note_off_c, 9, 36, 95
8, 68160, Note_on_c, 9, 59, 95
8, 68160, Note_on_c, 9, 40, 95
8, 68160, Note_on_c, 9, 36, 95
8, 69120, Note_off_c, 9, 59, 95
8, 69120, Note_off_c, 9, 40, 95
8, 69120, Note_off_c, 9, 36, 95
8, 69120, Note_on_c, 9, 59, 95
8, 69120, Note_on_c, 9, 36, 95
8, 70080, Note_off_c, 9, 59, 95
8, 70080, Note_off_c, 9, 36, 95
8, 70080, Note_on_c, 9, 59, 95
8, 70080, Note_on_c, 9, 40, 95
8, 70080, Note_on_c, 9, 36, 95
8, 71040, Note_off_c, 9, 59, 95
8, 71040, Note_off_c, 9, 40, 95
8, 71040, Note_off_c, 9, 36, 95
8, 71040, Note_on_c, 9, 59, 95
8, 71040, Note_on_c, 9, 36, 95
8, 72000, Note_off_c, 9, 59, 95
8, 72000, Note_off_c, 9, 36, 95
8, 72000, Note_on_c, 9, 59, 95
8, 72000, Note_on_c, 9, 40, 95
8, 72000, Note_on_c, 9, 36, 95
8, 72960, Note_off_c, 9, 59, 95
8, 72960, Note_off_c, 9, 40, 95
8, 72960, Note_off_c, 9, 36, 95
8, 72960, Note_on_c, 9, 59, 95
8, 72960, Note_on_c, 9, 36, 95
8, 73920, Note_off_c, 9, 59, 95
8, 73920, Note_off_c, 9, 36, 95
8, 73920, Note_on_c, 9, 59, 95
8, 73920, Note_on_c, 9, 40, 95
8, 73920, Note_on_c, 9, 36, 95
8, 74880, Note_off_c, 9, 59, 95
8, 74880, Note_off_c, 9, 40, 95
8, 74880, Note_off_c, 9, 36, 95
8, 74880, Note_on_c, 9, 59, 95
8, 74880, Note_on_c, 9, 36, 95
8, 75840, Note_off_c, 9, 59, 95
8, 75840, Note_off_c, 9, 36, 95
8, 75840, Note_on_c, 9, 59, 95
8, 75840, Note_on_c, 9, 40, 95
8, 75840, Note_on_c, 9, 36, 95
8, 76800, Note_off_c, 9, 59, 95
8, 76800, Note_off_c, 9, 40, 95
8, 76800, Note_off_c, 9, 36, 95
8, 76800, Note_on_c, 9, 59, 95
8, 76800, Note_on_c, 9, 36, 95
8, 77760, Note_off_c, 9, 59, 95
8, 77760, Note_off_c, 9, 36, 95
8, 77760, Note_on_c, 9, 59, 95
8, 77760, Note_on_c, 9, 40, 95
8, 77760, Note_on_c, 9, 36, 95
8, 78720, Note_off_c, 9, 59, 95
8, 78720, Note_off_c, 9, 40, 95
8, 78720, Note_off_c, 9, 36, 95
8, 78720, Note_on_c, 9, 59, 95
8, 78720, Note_on_c, 9, 36, 95
8, 79680, Note_off_c, 9, 59, 95
8, 79680, Note_off_c, 9, 36, 95
8, 79680, Note_on_c, 9, 59, 95
8, 79680, Note_on_c, 9, 40, 95
8, 79680, Note_on_c, 9, 36, 95
8, 80640, Note_off_c, 9, 59, 95
8, 80640, Note_off_c, 9, 40, 95
8, 80640, Note_off_c, 9, 36, 95
8, 80640, Note_on_c, 9, 59, 95
8, 80640, Note_on_c, 9, 36, 95
8, 81600, Note_off_c, 9, 59, 95
8, 81600, Note_off_c, 9, 36, 95
8, 81600, Note_on_c, 9, 59, 95
8, 81600, Note_on_c, 9, 40, 95
8, 81600, Note_on_c, 9, 36, 95
8, 82560, Note_off_c, 9, 59, 95
8, 82560, Note_off_c, 9, 40, 95
8, 82560, Note_off_c, 9, 36, 95
8, 82560, Note_on_c, 9, 59, 95
8, 82560, Note_on_c, 9, 36, 95
8, 83520, Note_off_c, 9, 59, 95
8, 83520, Note_off_c, 9, 36, 95
8, 83520, Note_on_c, 9, 59, 95
8, 83520, Note_on_c, 9, 40, 95
8, 83520, Note_on_c, 9, 36, 95
8, 84480, Note_off_c, 9, 59, 95
8, 84480, Note_off_c, 9, 40, 95
8, 84480, Note_off_c, 9, 36, 95
8, 84480, Note_on_c, 9, 59, 95
8, 84480, Note_on_c, 9, 36, 95
8, 85440, Note_off_c, 9, 59, 95
8, 85440, Note_off_c, 9, 36, 95
8, 85440, Note_on_c, 9, 59, 95
8, 85440, Note_on_c, 9, 40, 95
8, 85440, Note_on_c, 9, 36, 95
8, 86400, Note_off_c, 9, 59, 95
8, 86400, Note_off_c, 9, 40, 95
8, 86400, Note_off_c, 9, 36, 95
8, 86400, Note_on_c, 9, 59, 95
8, 86400, Note_on_c, 9, 36, 95
8, 87360, Note_off_c, 9, 59, 95
8, 87360, Note_off_c, 9, 36, 95
8, 87360, Note_on_c, 9, 59, 95
8, 87360, Note_on_c, 9, 40, 95
8, 87360, Note_on_c, 9, 36, 95
8, 88320, Note_off_c, 9, 59, 95
8, 88320, Note_off_c, 9, 40, 95
8, 88320, Note_off_c, 9, 36, 95
8, 88320, Note_on_c, 9, 40, 95
8, 88320, Note_on_c, 9, 36, 95
8, 88560, Note_off_c, 9, 40, 95
8, 88560, Note_off_c, 9, 36, 95
8, 89040, Note_on_c, 9, 40, 95
8, 89040, Note_on_c, 9, 36, 95
8, 89280, Note_off_c, 9, 40, 95
8, 89280, Note_off_c, 9, 36, 95
8, 89280, Note_on_c, 9, 40, 95
8, 89520, Note_off_c, 9, 40, 95
8, 89520, Note_on_c, 9, 36, 95
8, 89520, Note_on_c, 9, 36, 95
8, 89760, Note_off_c, 9, 36, 95
8, 89760, Note_off_c, 9, 36, 95
8, 89760, Note_on_c, 9, 40, 95
8, 90000, Note_off_c, 9, 40, 95
8, 90000, Note_on_c, 9, 36, 95
8, 90000, Note_on_c, 9, 36, 95
8, 90240, Note_off_c, 9, 36, 95
8, 90240, Note_off_c, 9, 36, 95
8, 90240, Note_on_c, 9, 40, 95
8, 90480, Note_off_c, 9, 40, 95
8, 90480, Note_on_c, 9, 36, 95
8, 90480, Note_on_c, 9, 36, 95
8, 90720, Note_off_c, 9, 36, 95
8, 90720, Note_off_c, 9, 36, 95
8, 90720, Note_on_c, 9, 40, 95
8, 90960, Note_off_c, 9, 40, 95
8, 90960, Note_on_c, 9, 36, 95
8, 90960, Note_on_c, 9, 36, 95
8, 91200, Note_off_c, 9, 36, 95
8, 91200, Note_off_c, 9, 36, 95
8, 91200, Note_on_c, 9, 47, 95
8, 91440, Note_off_c, 9, 47, 95
8, 91440, Note_on_c, 9, 47, 95
8, 91440, Note_on_c, 9, 36, 95
8, 91680, Note_off_c, 9, 47, 95
8, 91680, Note_off_c, 9, 36, 95
8, 91680, Note_on_c, 9, 45, 95
8, 91920, Note_off_c, 9, 45, 95
8, 91920, Note_on_c, 9, 45, 95
8, 91920, Note_on_c, 9, 36, 95
8, 92160, Note_off_c, 9, 45, 95
8, 92160, Note_off_c, 9, 36, 95
8, 92160, Note_on_c, 9, 57, 95
8, 93120, Note_off_c, 9, 57, 95
8, 93120, Note_on_c, 9, 57, 95
8, 93120, Note_on_c, 9, 40, 95
8, 94080, Note_off_c, 9, 57, 95
8, 94080, Note_off_c, 9, 40, 95
8, 94080, Note_on_c, 9, 57, 95
8, 95040, Note_off_c, 9, 57, 95
8, 95040, Note_on_c, 9, 57, 95
8, 95040, Note_on_c, 9, 40, 95
8, 96000, Note_off_c, 9, 57, 95
8, 96000, Note_off_c, 9, 40, 95
8, 96000, Note_on_c, 9, 57, 95
8, 96960, Note_off_c, 9, 57, 95
8, 96960, Note_on_c, 9, 57, 95
8, 96960, Note_on_c, 9, 40, 95
8, 97200, Note_off_c, 9, 57, 95
8, 97200, Note_off_c, 9, 40, 95
8, 97440, Note_on_c, 9, 40, 95
8, 97680, Note_off_c, 9, 40, 95
8, 97680, Note_on_c, 9, 40, 95
8, 97920, Note_off_c, 9, 40, 95
8, 97920, Note_on_c, 9, 57, 95
8, 97920, Note_on_c, 9, 40, 95
8, 98160, Note_off_c, 9, 57, 95
8, 98160, Note_off_c, 9, 40, 95
8, 98160, Note_on_c, 9, 36, 95
8, 98400, Note_off_c, 9, 36, 95
8, 98400, Note_on_c, 9, 40, 95
8, 98640, Note_off_c, 9, 40, 95
8, 98640, Note_on_c, 9, 36, 95
8, 98880, Note_off_c, 9, 36, 95
8, 98880, Note_on_c, 9, 57, 95
8, 98880, Note_on_c, 9, 40, 95
8, 99120, Note_off_c, 9, 57, 95
8, 99120, Note_off_c, 9, 40, 95
8, 99120, Note_on_c, 9, 36, 95
8, 99360, Note_off_c, 9, 36, 95
8, 99360, Note_on_c, 9, 40, 95
8, 99600, Note_off_c, 9, 40, 95
8, 99600, Note_on_c, 9, 40, 95
8, 99840, Note_off_c, 9, 40, 95
8, 99840, Note_on_c, 9, 57, 95
8, 100800, Note_off_c, 9, 57, 95
8, 100800, Note_on_c, 9, 57, 95
8, 100800, Note_on_c, 9, 40, 95
8, 101760, Note_off_c, 9, 57, 95
8, 101760, Note_off_c, 9, 40, 95
8, 101760, Note_on_c, 9, 57, 95
8, 102720, Note_off_c, 9, 57, 95
8, 102720, Note_on_c, 9, 57, 95
8, 102720, Note_on_c, 9, 40, 95
8, 103680, Note_off_c, 9, 57, 95
8, 103680, Note_off_c, 9, 40, 95
8, 103680, Note_on_c, 9, 57, 95
8, 104640, Note_off_c, 9, 57, 95
8, 104640, Note_on_c, 9, 57, 95
8, 104640, Note_on_c, 9, 40, 95
8, 104880, Note_off_c, 9, 57, 95
8, 104880, Note_off_c, 9, 40, 95
8, 105120, Note_on_c, 9, 40, 95
8, 105360, Note_off_c, 9, 40, 95
8, 105360, Note_on_c, 9, 40, 95
8, 105600, Note_off_c, 9, 40, 95
8, 105600, Note_on_c, 9, 57, 95
8, 105600, Note_on_c, 9, 40, 95
8, 105840, Note_off_c, 9, 57, 95
8, 105840, Note_off_c, 9, 40, 95
8, 105840, Note_on_c, 9, 36, 95
8, 106080, Note_off_c, 9, 36, 95
8, 106080, Note_on_c, 9, 40, 95
8, 106320, Note_off_c, 9, 40, 95
8, 106320, Note_on_c, 9, 36, 95
8, 106560, Note_off_c, 9, 36, 95
8, 106560, Note_on_c, 9, 57, 95
8, 106560, Note_on_c, 9, 40, 95
8, 106800, Note_off_c, 9, 57, 95
8, 106800, Note_off_c, 9, 40, 95
8, 106800, Note_on_c, 9, 36, 95
8, 107040, Note_off_c, 9, 36, 95
8, 107040, Note_on_c, 9, 40, 95
8, 107280, Note_off_c, 9, 40, 95
8, 107280, Note_on_c, 9, 40, 95
8, 107520, Note_off_c, 9, 40, 95
8, 107520, Note_on_c, 9, 57, 95
8, 108480, Note_off_c, 9, 57, 95
8, 108480, Note_on_c, 9, 57, 95
8, 108480, Note_on_c, 9, 40, 95
8, 109440, Note_off_c, 9, 57, 95
8, 109440, Note_off_c, 9, 40, 95
8, 109440, Note_on_c, 9, 57, 95
8, 110400, Note_off_c, 9, 57, 95
8, 110400, Note_on_c, 9, 57, 95
8, 110400, Note_on_c, 9, 40, 95
8, 111360, Note_off_c, 9, 57, 95
8, 111360, Note_off_c, 9, 40, 95
8, 111360, Note_on_c, 9, 57, 95
8, 112320, Note_off_c, 9, 57, 95
8, 112320, Note_on_c, 9, 57, 95
8, 112320, Note_on_c, 9, 40, 95
8, 112560, Note_off_c, 9, 57, 95
8, 112560, Note_off_c, 9, 40, 95
8, 112800, Note_on_c, 9, 40, 95
8, 113040, Note_off_c, 9, 40, 95
8, 113040, Note_on_c, 9, 40, 95
8, 113280, Note_off_c, 9, 40, 95
8, 113280, Note_on_c, 9, 57, 95
8, 113280, Note_on_c, 9, 40, 95
8, 113520, Note_off_c, 9, 57, 95
8, 113520, Note_off_c, 9, 40, 95
8, 113520, Note_on_c, 9, 36, 95
8, 113760, Note_off_c, 9, 36, 95
8, 113760, Note_on_c, 9, 40, 95
8, 114000, Note_off_c, 9, 40, 95
8, 114000, Note_on_c, 9, 36, 95
8, 114240, Note_off_c, 9, 36, 95
8, 114240, Note_on_c, 9, 57, 95
8, 114240, Note_on_c, 9, 40, 95
8, 114480, Note_off_c, 9, 57, 95
8, 114480, Note_off_c, 9, 40, 95
8, 114480, Note_on_c, 9, 36, 95
8, 114720, Note_off_c, 9, 36, 95
8, 114720, Note_on_c, 9, 40, 95
8, 114960, Note_off_c, 9, 40, 95
8, 114960, Note_on_c, 9, 40, 95
8, 115200, Note_off_c, 9, 40, 95
8, 115200, Note_on_c, 9, 57, 95
8, 116160, Note_off_c, 9, 57, 95
8, 116160, Note_on_c, 9, 57, 95
8, 116160, Note_on_c, 9, 40, 95
8, 117120, Note_off_c, 9, 57, 95
8, 117120, Note_off_c, 9, 40, 95
8, 117120, Note_on_c, 9, 57, 95
8, 118080, Note_off_c, 9, 57, 95
8, 118080, Note_on_c, 9, 57, 95
8, 118080, Note_on_c, 9, 40, 95
8, 119040, Note_off_c, 9, 57, 95
8, 119040, Note_off_c, 9, 40, 95
8, 119040, Note_on_c, 9, 57, 95
8, 119040, Note_on_c, 9, 36, 95
8, 120000, Note_off_c, 9, 57, 95
8, 120000, Note_off_c, 9, 36, 95
8, 120000, Note_on_c, 9, 57, 95
8, 120000, Note_on_c, 9, 40, 95
8, 120000, Note_on_c, 9, 36, 95
8, 120240, Note_off_c, 9, 57, 95
8, 120240, Note_off_c, 9, 40, 95
8, 120240, Note_off_c, 9, 36, 95
8, 120480, Note_on_c, 9, 40, 95
8, 120720, Note_off_c, 9, 40, 95
8, 120720, Note_on_c, 9, 40, 95
8, 120960, Note_off_c, 9, 40, 95
8, 120960, Note_on_c, 9, 57, 95
8, 120960, Note_on_c, 9, 40, 95
8, 120960, Note_on_c, 9, 36, 95
8, 121200, Note_off_c, 9, 57, 95
8, 121200, Note_off_c, 9, 40, 95
8, 121200, Note_off_c, 9, 36, 95
8, 121200, Note_on_c, 9, 36, 95
8, 121440, Note_off_c, 9, 36, 95
8, 121440, Note_on_c, 9, 40, 95
8, 121680, Note_off_c, 9, 40, 95
8, 121680, Note_on_c, 9, 40, 95
8, 121920, Note_off_c, 9, 40, 95
8, 121920, Note_on_c, 9, 57, 95
8, 121920, Note_on_c, 9, 40, 95
8, 121920, Note_on_c, 9, 36, 95
8, 122160, Note_off_c, 9, 57, 95
8, 122160, Note_off_c, 9, 40, 95
8, 122160, Note_off_c, 9, 36, 95
8, 122160, Note_on_c, 9, 40, 95
8, 122400, Note_off_c, 9, 40, 95
8, 122400, Note_on_c, 9, 40, 95
8, 122640, Note_off_c, 9, 40, 95
8, 122640, Note_on_c, 9, 40, 95
8, 122880, Note_off_c, 9, 40, 95
8, 122880, Note_on_c, 9, 57, 95
8, 122880, Note_on_c, 9, 36, 95
8, 123600, Note_off_c, 9, 57, 95
8, 123600, Note_off_c, 9, 36, 95
8, 123600, Note_on_c, 9, 40, 95
8, 123840, Note_off_c, 9, 40, 95
8, 123840, Note_on_c, 9, 40, 95
8, 124080, Note_off_c, 9, 40, 95
8, 124320, Note_on_c, 9, 57, 95
8, 124320, Note_on_c, 9, 40, 95
8, 124320, Note_on_c, 9, 36, 95
8, 125040, Note_off_c, 9, 57, 95
8, 125040, Note_off_c, 9, 40, 95
8, 125040, Note_off_c, 9, 36, 95
8, 125040, Note_on_c, 9, 40, 95
8, 125280, Note_off_c, 9, 40, 95
8, 125280, Note_on_c, 9, 40, 95
8, 125520, Note_off_c, 9, 40, 95
8, 125760, Note_on_c, 9, 57, 95
8, 125760, Note_on_c, 9, 36, 95
8, 126240, Note_off_c, 9, 57, 95
8, 126240, Note_off_c, 9, 36, 95
8, 126240, Note_on_c, 9, 40, 95
8, 126480, Note_off_c, 9, 40, 95
8, 126480, Note_on_c, 9, 40, 95
8, 126480, Note_on_c, 9, 36, 95
8, 126720, Note_off_c, 9, 40, 95
8, 126720, Note_off_c, 9, 36, 95
8, 126720, Note_on_c, 9, 57, 95
8, 126720, Note_on_c, 9, 40, 95
8, 126720, Note_on_c, 9, 36, 95
8, 126960, Note_off_c, 9, 57, 95
8, 126960, Note_off_c, 9, 40, 95
8, 126960, Note_off_c, 9, 36, 95
8, 126960, Note_on_c, 9, 40, 95
8, 127200, Note_off_c, 9, 40, 95
8, 127200, Note_on_c, 9, 36, 95
8, 127440, Note_off_c, 9, 36, 95
8, 127440, Note_on_c, 9, 40, 95
8, 127680, Note_off_c, 9, 40, 95
8, 127680, Note_on_c, 9, 57, 95
8, 127680, Note_on_c, 9, 36, 95
8, 127920, Note_off_c, 9, 57, 95
8, 127920, Note_off_c, 9, 36, 95
8, 127920, Note_on_c, 9, 40, 95
8, 128160, Note_off_c, 9, 40, 95
8, 128160, Note_on_c, 9, 40, 95
8, 128160, Note_on_c, 9, 36, 95
8, 128400, Note_off_c, 9, 40, 95
8, 128400, Note_off_c, 9, 36, 95
8, 128400, Note_on_c, 9, 40, 95
8, 128640, Note_off_c, 9, 40, 95
8, 128640, Note_on_c, 9, 57, 95
8, 128640, Note_on_c, 9, 40, 95
8, 128640, Note_on_c, 9, 36, 95
8, 128880, Note_off_c, 9, 57, 95
8, 128880, Note_off_c, 9, 40, 95
8, 128880, Note_off_c, 9, 36, 95
8, 128880, Note_on_c, 9, 40, 95
8, 129120, Note_off_c, 9, 40, 95
8, 129120, Note_on_c, 9, 40, 95
8, 129120, Note_on_c, 9, 36, 95
8, 129360, Note_off_c, 9, 40, 95
8, 129360, Note_off_c, 9, 36, 95
8, 129360, Note_on_c, 9, 40, 95
8, 129600, Note_off_c, 9, 40, 95
8, 129600, Note_on_c, 9, 57, 95
8, 129600, Note_on_c, 9, 47, 95
8, 129600, Note_on_c, 9, 36, 95
8, 129840, Note_off_c, 9, 57, 95
8, 129840, Note_off_c, 9, 47, 95
8, 129840, Note_off_c, 9, 36, 95
8, 129840, Note_on_c, 9, 47, 95
8, 130080, Note_off_c, 9, 47, 95
8, 130080, Note_on_c, 9, 45, 95
8, 130080, Note_on_c, 9, 36, 95
8, 130320, Note_off_c, 9, 45, 95
8, 130320, Note_off_c, 9, 36, 95
8, 130320, Note_on_c, 9, 45, 95
8, 130560, Note_off_c, 9, 45, 95
8, 130560, Note_on_c, 9, 57, 95
8, 130560, Note_on_c, 9, 36, 95
8, 131280, Note_off_c, 9, 57, 95
8, 131280, Note_off_c, 9, 36, 95
8, 131280, Note_on_c, 9, 40, 95
8, 131520, Note_off_c, 9, 40, 95
8, 131520, Note_on_c, 9, 40, 95
8, 131760, Note_off_c, 9, 40, 95
8, 132000, Note_on_c, 9, 57, 95
8, 132000, Note_on_c, 9, 40, 95
8, 132000, Note_on_c, 9, 36, 95
8, 132720, Note_off_c, 9, 57, 95
8, 132720, Note_off_c, 9, 40, 95
8, 132720, Note_off_c, 9, 36, 95
8, 132720, Note_on_c, 9, 40, 95
8, 132960, Note_off_c, 9, 40, 95
8, 132960, Note_on_c, 9, 40, 95
8, 133200, Note_off_c, 9, 40, 95
8, 133440, Note_on_c, 9, 57, 95
8, 133440, Note_on_c, 9, 36, 95
8, 133920, Note_off_c, 9, 57, 95
8, 133920, Note_off_c, 9, 36, 95
8, 133920, Note_on_c, 9, 40, 95
8, 134160, Note_off_c, 9, 40, 95
8, 134160, Note_on_c, 9, 40, 95
8, 134160, Note_on_c, 9, 36, 95
8, 134400, Note_off_c, 9, 40, 95
8, 134400, Note_off_c, 9, 36, 95
8, 134400, Note_on_c, 9, 57, 95
8, 134400, Note_on_c, 9, 40, 95
8, 134400, Note_on_c, 9, 36, 95
8, 134640, Note_off_c, 9, 57, 95
8, 134640, Note_off_c, 9, 40, 95
8, 134640, Note_off_c, 9, 36, 95
8, 134640, Note_on_c, 9, 40, 95
8, 134880, Note_off_c, 9, 40, 95
8, 134880, Note_on_c, 9, 36, 95
8, 135120, Note_off_c, 9, 36, 95
8, 135120, Note_on_c, 9, 40, 95
8, 135360, Note_off_c, 9, 40, 95
8, 135360, Note_on_c, 9, 57, 95
8, 135360, Note_on_c, 9, 36, 95
8, 135600, Note_off_c, 9, 57, 95
8, 135600, Note_off_c, 9, 36, 95
8, 135600, Note_on_c, 9, 40, 95
8, 135840, Note_off_c, 9, 40, 95
8, 135840, Note_on_c, 9, 40, 95
8, 135840, Note_on_c, 9, 36, 95
8, 136080, Note_off_c, 9, 40, 95
8, 136080, Note_off_c, 9, 36, 95
8, 136080, Note_on_c, 9, 40, 95
8, 136320, Note_off_c, 9, 40, 95
8, 136320, Note_on_c, 9, 57, 95
8, 136320, Note_on_c, 9, 40, 95
8, 136320, Note_on_c, 9, 36, 95
8, 136560, Note_off_c, 9, 57, 95
8, 136560, Note_off_c, 9, 40, 95
8, 136560, Note_off_c, 9, 36, 95
8, 136560, Note_on_c, 9, 40, 95
8, 136800, Note_off_c, 9, 40, 95
8, 136800, Note_on_c, 9, 40, 95
8, 136800, Note_on_c, 9, 36, 95
8, 137040, Note_off_c, 9, 40, 95
8, 137040, Note_off_c, 9, 36, 95
8, 137040, Note_on_c, 9, 40, 95
8, 137280, Note_off_c, 9, 40, 95
8, 137280, Note_on_c, 9, 57, 95
8, 137280, Note_on_c, 9, 47, 95
8, 137280, Note_on_c, 9, 36, 95
8, 137520, Note_off_c, 9, 57, 95
8, 137520, Note_off_c, 9, 47, 95
8, 137520, Note_off_c, 9, 36, 95
8, 137520, Note_on_c, 9, 47, 95
8, 137760, Note_off_c, 9, 47, 95
8, 137760, Note_on_c, 9, 45, 95
8, 137760, Note_on_c, 9, 36, 95
8, 138000, Note_off_c, 9, 45, 95
8, 138000, Note_off_c, 9, 36, 95
8, 138000, Note_on_c, 9, 45, 95
8, 138240, Note_off_c, 9, 45, 95
8, 138240, Note_on_c, 9, 57, 95
8, 138240, Note_on_c, 9, 36, 95
8, 138960, Note_off_c, 9, 57, 95
8, 138960, Note_off_c, 9, 36, 95
8, 138960, Note_on_c, 9, 40, 95
8, 139200, Note_off_c, 9, 40, 95
8, 139200, Note_on_c, 9, 40, 95
8, 139440, Note_off_c, 9, 40, 95
8, 139680, Note_on_c, 9, 57, 95
8, 139680, Note_on_c, 9, 40, 95
8, 139680, Note_on_c, 9, 36, 95
8, 140400, Note_off_c, 9, 57, 95
8, 140400, Note_off_c, 9, 40, 95
8, 140400, Note_off_c, 9, 36, 95
8, 140400, Note_on_c, 9, 40, 95
8, 140640, Note_off_c, 9, 40, 95
8, 140640, Note_on_c, 9, 40, 95
8, 140880, Note_off_c, 9, 40, 95
8, 141120, Note_on_c, 9, 57, 95
8, 141120, Note_on_c, 9, 36, 95
8, 141600, Note_off_c, 9, 57, 95
8, 141600, Note_off_c, 9, 36, 95
8, 141600, Note_on_c, 9, 40, 95
8, 141840, Note_off_c, 9, 40, 95
8, 141840, Note_on_c, 9, 40, 95
8, 141840, Note_on_c, 9, 36, 95
8, 142080, Note_off_c, 9, 40, 95
8, 142080, Note_off_c, 9, 36, 95
8, 142080, Note_on_c, 9, 57, 95
8, 142080, Note_on_c, 9, 40, 95
8, 142080, Note_on_c, 9, 36, 95
8, 142320, Note_off_c, 9, 57, 95
8, 142320, Note_off_c, 9, 40, 95
8, 142320, Note_off_c, 9, 36, 95
8, 142320, Note_on_c, 9, 40, 95
8, 142560, Note_off_c, 9, 40, 95
8, 142560, Note_on_c, 9, 36, 95
8, 142800, Note_off_c, 9, 36, 95
8, 142800, Note_on_c, 9, 40, 95
8, 143040, Note_off_c, 9, 40, 95
8, 143040, Note_on_c, 9, 57, 95
8, 143040, Note_on_c, 9, 36, 95
8, 143280, Note_off_c, 9, 57, 95
8, 143280, Note_off_c, 9, 36, 95
8, 143280, Note_on_c, 9, 40, 95
8, 143520, Note_off_c, 9, 40, 95
8, 143520, Note_on_c, 9, 40, 95
8, 143520, Note_on_c, 9, 36, 95
8, 143760, Note_off_c, 9, 40, 95
8, 143760, Note_off_c, 9, 36, 95
8, 143760, Note_on_c, 9, 40, 95
8, 144000, Note_off_c, 9, 40, 95
8, 144000, Note_on_c, 9, 57, 95
8, 144000, Note_on_c, 9, 40, 95
8, 144000, Note_on_c, 9, 36, 95
8, 144240, Note_off_c, 9, 57, 95
8, 144240, Note_off_c, 9, 40, 95
8, 144240, Note_off_c, 9, 36, 95
8, 144240, Note_on_c, 9, 40, 95
8, 144480, Note_off_c, 9, 40, 95
8, 144480, Note_on_c, 9, 40, 95
8, 144480, Note_on_c, 9, 36, 95
8, 144720, Note_off_c, 9, 40, 95
8, 144720, Note_off_c, 9, 36, 95
8, 144720, Note_on_c, 9, 40, 95
8, 144960, Note_off_c, 9, 40, 95
8, 144960, Note_on_c, 9, 57, 95
8, 144960, Note_on_c, 9, 47, 95
8, 144960, Note_on_c, 9, 36, 95
8, 145200, Note_off_c, 9, 57, 95
8, 145200, Note_off_c, 9, 47, 95
8, 145200, Note_off_c, 9, 36, 95
8, 145200, Note_on_c, 9, 47, 95
8, 145440, Note_off_c, 9, 47, 95
8, 145440, Note_on_c, 9, 45, 95
8, 145440, Note_on_c, 9, 36, 95
8, 145680, Note_off_c, 9, 45, 95
8, 145680, Note_off_c, 9, 36, 95
8, 145680, Note_on_c, 9, 45, 95
8, 145920, Note_off_c, 9, 45, 95
8, 145920, Note_on_c, 9, 57, 95
8, 145920, Note_on_c, 9, 36, 95
8, 146880, Note_off_c, 9, 57, 95
8, 146880, Note_off_c, 9, 36, 95
8, 146880, Note_on_c, 9, 46, 95
8, 146880, Note_on_c, 9, 40, 95
8, 146880, Note_on_c, 9, 36, 95
8, 147840, Note_off_c, 9, 46, 95
8, 147840, Note_off_c, 9, 40, 95
8, 147840, Note_off_c, 9, 36, 95
8, 147840, Note_on_c, 9, 57, 95
8, 147840, Note_on_c, 9, 36, 95
8, 148800, Note_off_c, 9, 57, 95
8, 148800, Note_off_c, 9, 36, 95
8, 148800, Note_on_c, 9, 46, 95
8, 148800, Note_on_c, 9, 40, 95
8, 148800, Note_on_c, 9, 36, 95
8, 149760, Note_off_c, 9, 46, 95
8, 149760, Note_off_c, 9, 40, 95
8, 149760, Note_off_c, 9, 36, 95
8, 149760, Note_on_c, 9, 57, 95
8, 149760, Note_on_c, 9, 36, 95
8, 150720, Note_off_c, 9, 57, 95
8, 150720, Note_off_c, 9, 36, 95
8, 150720, Note_on_c, 9, 46, 95
8, 150720, Note_on_c, 9, 40, 95
8, 150720, Note_on_c, 9, 36, 95
8, 150960, Note_off_c, 9, 46, 95
8, 150960, Note_off_c, 9, 40, 95
8, 150960, Note_off_c, 9, 36, 95
8, 151200, Note_on_c, 9, 40, 95
8, 151440, Note_off_c, 9, 40, 95
8, 151440, Note_on_c, 9, 40, 95
8, 151680, Note_off_c, 9, 40, 95
8, 151680, Note_on_c, 9, 57, 95
8, 151680, Note_on_c, 9, 40, 95
8, 151680, Note_on_c, 9, 36, 95
8, 151920, Note_off_c, 9, 57, 95
8, 151920, Note_off_c, 9, 40, 95
8, 151920, Note_off_c, 9, 36, 95
8, 151920, Note_on_c, 9, 36, 95
8, 152160, Note_off_c, 9, 36, 95
8, 152160, Note_on_c, 9, 40, 95
8, 152400, Note_off_c, 9, 40, 95
8, 152400, Note_on_c, 9, 36, 95
8, 152640, Note_off_c, 9, 36, 95
8, 152640, Note_on_c, 9, 46, 95
8, 152640, Note_on_c, 9, 40, 95
8, 152640, Note_on_c, 9, 36, 95
8, 152880, Note_off_c, 9, 46, 95
8, 152880, Note_off_c, 9, 40, 95
8, 152880, Note_off_c, 9, 36, 95
8, 152880, Note_on_c, 9, 36, 95
8, 153120, Note_off_c, 9, 36, 95
8, 153120, Note_on_c, 9, 40, 95
8, 153360, Note_off_c, 9, 40, 95
8, 153360, Note_on_c, 9, 40, 95
8, 153600, Note_off_c, 9, 40, 95
8, 153600, Note_on_c, 9, 57, 95
8, 153600, Note_on_c, 9, 36, 95
8, 154560, Note_off_c, 9, 57, 95
8, 154560, Note_off_c, 9, 36, 95
8, 154560, Note_on_c, 9, 46, 95
8, 154560, Note_on_c, 9, 40, 95
8, 154560, Note_on_c, 9, 36, 95
8, 155520, Note_off_c, 9, 46, 95
8, 155520, Note_off_c, 9, 40, 95
8, 155520, Note_off_c, 9, 36, 95
8, 155520, Note_on_c, 9, 57, 95
8, 155520, Note_on_c, 9, 36, 95
8, 156480, Note_off_c, 9, 57, 95
8, 156480, Note_off_c, 9, 36, 95
8, 156480, Note_on_c, 9, 46, 95
8, 156480, Note_on_c, 9, 40, 95
8, 156480, Note_on_c, 9, 36, 95
8, 157440, Note_off_c, 9, 46, 95
8, 157440, Note_off_c, 9, 40, 95
8, 157440, Note_off_c, 9, 36, 95
8, 157440, Note_on_c, 9, 57, 95
8, 157440, Note_on_c, 9, 36, 95
8, 158400, Note_off_c, 9, 57, 95
8, 158400, Note_off_c, 9, 36, 95
8, 158400, Note_on_c, 9, 46, 95
8, 158400, Note_on_c, 9, 40, 95
8, 158400, Note_on_c, 9, 36, 95
8, 158640, Note_off_c, 9, 46, 95
8, 158640, Note_off_c, 9, 40, 95
8, 158640, Note_off_c, 9, 36, 95
8, 158880, Note_on_c, 9, 40, 95
8, 159120, Note_off_c, 9, 40, 95
8, 159120, Note_on_c, 9, 40, 95
8, 159360, Note_off_c, 9, 40, 95
8, 159360, Note_on_c, 9, 57, 95
8, 159360, Note_on_c, 9, 40, 95
8, 159360, Note_on_c, 9, 36, 95
8, 159600, Note_off_c, 9, 57, 95
8, 159600, Note_off_c, 9, 40, 95
8, 159600, Note_off_c, 9, 36, 95
8, 159600, Note_on_c, 9, 36, 95
8, 159840, Note_off_c, 9, 36, 95
8, 159840, Note_on_c, 9, 40, 95
8, 160080, Note_off_c, 9, 40, 95
8, 160080, Note_on_c, 9, 36, 95
8, 160320, Note_off_c, 9, 36, 95
8, 160320, Note_on_c, 9, 46, 95
8, 160320, Note_on_c, 9, 40, 95
8, 160320, Note_on_c, 9, 36, 95
8, 160560, Note_off_c, 9, 46, 95
8, 160560, Note_off_c, 9, 40, 95
8, 160560, Note_off_c, 9, 36, 95
8, 160560, Note_on_c, 9, 36, 95
8, 160800, Note_off_c, 9, 36, 95
8, 160800, Note_on_c, 9, 40, 95
8, 161040, Note_off_c, 9, 40, 95
8, 161040, Note_on_c, 9, 40, 95
8, 161280, Note_off_c, 9, 40, 95
8, 161280, Note_on_c, 9, 57, 95
8, 161280, Note_on_c, 9, 36, 95
8, 162240, Note_off_c, 9, 57, 95
8, 162240, Note_off_c, 9, 36, 95
8, 162240, Note_on_c, 9, 46, 95
8, 162240, Note_on_c, 9, 40, 95
8, 162240, Note_on_c, 9, 36, 95
8, 163200, Note_off_c, 9, 46, 95
8, 163200, Note_off_c, 9, 40, 95
8, 163200, Note_off_c, 9, 36, 95
8, 163200, Note_on_c, 9, 57, 95
8, 163200, Note_on_c, 9, 36, 95
8, 164160, Note_off_c, 9, 57, 95
8, 164160, Note_off_c, 9, 36, 95
8, 164160, Note_on_c, 9, 46, 95
8, 164160, Note_on_c, 9, 40, 95
8, 164160, Note_on_c, 9, 36, 95
8, 165120, Note_off_c, 9, 46, 95
8, 165120, Note_off_c, 9, 40, 95
8, 165120, Note_off_c, 9, 36, 95
8, 165120, Note_on_c, 9, 57, 95
8, 165120, Note_on_c, 9, 36, 95
8, 166080, Note_off_c, 9, 57, 95
8, 166080, Note_off_c, 9, 36, 95
8, 166080, Note_on_c, 9, 46, 95
8, 166080, Note_on_c, 9, 40, 95
8, 166080, Note_on_c, 9, 36, 95
8, 166320, Note_off_c, 9, 46, 95
8, 166320, Note_off_c, 9, 40, 95
8, 166320, Note_off_c, 9, 36, 95
8, 166560, Note_on_c, 9, 40, 95
8, 166800, Note_off_c, 9, 40, 95
8, 166800, Note_on_c, 9, 40, 95
8, 167040, Note_off_c, 9, 40, 95
8, 167040, Note_on_c, 9, 57, 95
8, 167040, Note_on_c, 9, 40, 95
8, 167040, Note_on_c, 9, 36, 95
8, 167280, Note_off_c, 9, 57, 95
8, 167280, Note_off_c, 9, 40, 95
8, 167280, Note_off_c, 9, 36, 95
8, 167280, Note_on_c, 9, 36, 95
8, 167520, Note_off_c, 9, 36, 95
8, 167520, Note_on_c, 9, 40, 95
8, 167760, Note_off_c, 9, 40, 95
8, 167760, Note_on_c, 9, 36, 95
8, 168000, Note_off_c, 9, 36, 95
8, 168000, Note_on_c, 9, 46, 95
8, 168000, Note_on_c, 9, 40, 95
8, 168000, Note_on_c, 9, 36, 95
8, 168240, Note_off_c, 9, 46, 95
8, 168240, Note_off_c, 9, 40, 95
8, 168240, Note_off_c, 9, 36, 95
8, 168240, Note_on_c, 9, 36, 95
8, 168480, Note_off_c, 9, 36, 95
8, 168480, Note_on_c, 9, 40, 95
8, 168720, Note_off_c, 9, 40, 95
8, 168720, Note_on_c, 9, 40, 95
8, 168960, Note_off_c, 9, 40, 95
8, 168960, Note_on_c, 9, 57, 95
8, 168960, Note_on_c, 9, 36, 95
8, 169920, Note_off_c, 9, 57, 95
8, 169920, Note_off_c, 9, 36, 95
8, 169920, Note_on_c, 9, 46, 95
8, 169920, Note_on_c, 9, 40, 95
8, 169920, Note_on_c, 9, 36, 95
8, 170880, Note_off_c, 9, 46, 95
8, 170880, Note_off_c, 9, 40, 95
8, 170880, Note_off_c, 9, 36, 95
8, 170880, Note_on_c, 9, 57, 95
8, 170880, Note_on_c, 9, 36, 95
8, 171840, Note_off_c, 9, 57, 95
8, 171840, Note_off_c, 9, 36, 95
8, 171840, Note_on_c, 9, 46, 95
8, 171840, Note_on_c, 9, 40, 95
8, 171840, Note_on_c, 9, 36, 95
8, 172800, Note_off_c, 9, 46, 95
8, 172800, Note_off_c, 9, 40, 95
8, 172800, Note_off_c, 9, 36, 95
8, 172800, Note_on_c, 9, 57, 95
8, 172800, Note_on_c, 9, 36, 95
8, 173760, Note_off_c, 9, 57, 95
8, 173760, Note_off_c, 9, 36, 95
8, 173760, Note_on_c, 9, 46, 95
8, 173760, Note_on_c, 9, 40, 95
8, 173760, Note_on_c, 9, 36, 95
8, 174000, Note_off_c, 9, 46, 95
8, 174000, Note_off_c, 9, 40, 95
8, 174000, Note_off_c, 9, 36, 95
8, 174240, Note_on_c, 9, 40, 95
8, 174480, Note_off_c, 9, 40, 95
8, 174480, Note_on_c, 9, 40, 95
8, 174720, Note_off_c, 9, 40, 95
8, 174720, Note_on_c, 9, 57, 95
8, 174720, Note_on_c, 9, 40, 95
8, 174720, Note_on_c, 9, 36, 95
8, 174960, Note_off_c, 9, 57, 95
8, 174960, Note_off_c, 9, 40, 95
8, 174960, Note_off_c, 9, 36, 95
8, 174960, Note_on_c, 9, 36, 95
8, 175200, Note_off_c, 9, 36, 95
8, 175200, Note_on_c, 9, 40, 95
8, 175440, Note_off_c, 9, 40, 95
8, 175440, Note_on_c, 9, 36, 95
8, 175680, Note_off_c, 9, 36, 95
8, 175680, Note_on_c, 9, 46, 95
8, 175680, Note_on_c, 9, 40, 95
8, 175680, Note_on_c, 9, 36, 95
8, 175920, Note_off_c, 9, 46, 95
8, 175920, Note_off_c, 9, 40, 95
8, 175920, Note_off_c, 9, 36, 95
8, 175920, Note_on_c, 9, 36, 95
8, 176160, Note_off_c, 9, 36, 95
8, 176160, Note_on_c, 9, 40, 95
8, 176400, Note_off_c, 9, 40, 95
8, 176400, Note_on_c, 9, 40, 95
8, 176640, Note_off_c, 9, 40, 95
8, 176640, Note_on_c, 9, 57, 95
8, 176640, Note_on_c, 9, 36, 95
8, 177600, Note_off_c, 9, 57, 95
8, 177600, Note_off_c, 9, 36, 95
8, 177600, Note_on_c, 9, 46, 95
8, 177600, Note_on_c, 9, 40, 95
8, 177600, Note_on_c, 9, 36, 95
8, 178560, Note_off_c, 9, 46, 95
8, 178560, Note_off_c, 9, 40, 95
8, 178560, Note_off_c, 9, 36, 95
8, 178560, Note_on_c, 9, 57, 95
8, 178560, Note_on_c, 9, 36, 95
8, 179520, Note_off_c, 9, 57, 95
8, 179520, Note_off_c, 9, 36, 95
8, 179520, Note_on_c, 9, 46, 95
8, 179520, Note_on_c, 9, 40, 95
8, 179520, Note_on_c, 9, 36, 95
8, 180480, Note_off_c, 9, 46, 95
8, 180480, Note_off_c, 9, 40, 95
8, 180480, Note_off_c, 9, 36, 95
8, 180480, Note_on_c, 9, 57, 95
8, 180480, Note_on_c, 9, 36, 95
8, 181440, Note_off_c, 9, 57, 95
8, 181440, Note_off_c, 9, 36, 95
8, 181440, Note_on_c, 9, 46, 95
8, 181440, Note_on_c, 9, 40, 95
8, 181440, Note_on_c, 9, 36, 95
8, 181680, Note_off_c, 9, 46, 95
8, 181680, Note_off_c, 9, 40, 95
8, 181680, Note_off_c, 9, 36, 95
8, 181920, Note_on_c, 9, 40, 95
8, 182160, Note_off_c, 9, 40, 95
8, 182160, Note_on_c, 9, 40, 95
8, 182400, Note_off_c, 9, 40, 95
8, 182400, Note_on_c, 9, 36, 95
8, 182640, Note_off_c, 9, 36, 95
8, 182880, Note_on_c, 9, 47, 95
8, 182880, Note_on_c, 9, 40, 95
8, 183120, Note_off_c, 9, 47, 95
8, 183120, Note_off_c, 9, 40, 95
8, 183120, Note_on_c, 9, 47, 95
8, 183120, Note_on_c, 9, 36, 95
8, 183360, Note_off_c, 9, 47, 95
8, 183360, Note_off_c, 9, 36, 95
8, 183360, Note_on_c, 9, 45, 95
8, 183360, Note_on_c, 9, 40, 95
8, 183360, Note_on_c, 9, 36, 95
8, 183600, Note_off_c, 9, 45, 95
8, 183600, Note_off_c, 9, 40, 95
8, 183600, Note_off_c, 9, 36, 95
8, 183600, Note_on_c, 9, 45, 95
8, 183600, Note_on_c, 9, 36, 95
8, 183840, Note_off_c, 9, 45, 95
8, 183840, Note_off_c, 9, 36, 95
8, 183840, Note_on_c, 9, 43, 95
8, 183840, Note_on_c, 9, 40, 95
8, 184080, Note_off_c, 9, 43, 95
8, 184080, Note_off_c, 9, 40, 95
8, 184080, Note_on_c, 9, 43, 95
8, 184080, Note_on_c, 9, 40, 95
8, 184320, Note_off_c, 9, 43, 95
8, 184320, Note_off_c, 9, 40, 95
8, 184320, Note_on_c, 9, 57, 95
8, 184320, Note_on_c, 9, 36, 95
8, 185040, Note_off_c, 9, 57, 95
8, 185040, Note_off_c, 9, 36, 95
8, 185040, Note_on_c, 9, 40, 95
8, 185280, Note_off_c, 9, 40, 95
8, 185280, Note_on_c, 9, 40, 95
8, 185520, Note_off_c, 9, 40, 95
8, 185760, Note_on_c, 9, 57, 95
8, 185760, Note_on_c, 9, 40, 95
8, 185760, Note_on_c, 9, 36, 95
8, 186480, Note_off_c, 9, 57, 95
8, 186480, Note_off_c, 9, 40, 95
8, 186480, Note_off_c, 9, 36, 95
8, 186480, Note_on_c, 9, 40, 95
8, 186720, Note_off_c, 9, 40, 95
8, 186720, Note_on_c, 9, 40, 95
8, 186960, Note_off_c, 9, 40, 95
8, 187200, Note_on_c, 9, 57, 95
8, 187200, Note_on_c, 9, 36, 95
8, 187680, Note_off_c, 9, 57, 95
8, 187680, Note_off_c, 9, 36, 95
8, 187680, Note_on_c, 9, 40, 95
8, 187920, Note_off_c, 9, 40, 95
8, 187920, Note_on_c, 9, 40, 95
8, 187920, Note_on_c, 9, 36, 95
8, 188160, Note_off_c, 9, 40, 95
8, 188160, Note_off_c, 9, 36, 95
8, 188160, Note_on_c, 9, 57, 95
8, 188160, Note_on_c, 9, 40, 95
8, 188160, Note_on_c, 9, 36, 95
8, 188400, Note_off_c, 9, 57, 95
8, 188400, Note_off_c, 9, 40, 95
8, 188400, Note_off_c, 9, 36, 95
8, 188400, Note_on_c, 9, 40, 95
8, 188640, Note_off_c, 9, 40, 95
8, 188640, Note_on_c, 9, 36, 95
8, 188880, Note_off_c, 9, 36, 95
8, 188880, Note_on_c, 9, 40, 95
8, 189120, Note_off_c, 9, 40, 95
8, 189120, Note_on_c, 9, 57, 95
8, 189120, Note_on_c, 9, 36, 95
8, 189360, Note_off_c, 9, 57, 95
8, 189360, Note_off_c, 9, 36, 95
8, 189360, Note_on_c, 9, 40, 95
8, 189600, Note_off_c, 9, 40, 95
8, 189600, Note_on_c, 9, 40, 95
8, 189600, Note_on_c, 9, 36, 95
8, 189840, Note_off_c, 9, 40, 95
8, 189840, Note_off_c, 9, 36, 95
8, 189840, Note_on_c, 9, 40, 95
8, 190080, Note_off_c, 9, 40, 95
8, 190080, Note_on_c, 9, 57, 95
8, 190080, Note_on_c, 9, 40, 95
8, 190080, Note_on_c, 9, 36, 95
8, 190320, Note_off_c, 9, 57, 95
8, 190320, Note_off_c, 9, 40, 95
8, 190320, Note_off_c, 9, 36, 95
8, 190320, Note_on_c, 9, 40, 95
8, 190560, Note_off_c, 9, 40, 95
8, 190560, Note_on_c, 9, 40, 95
8, 190560, Note_on_c, 9, 36, 95
8, 190800, Note_off_c, 9, 40, 95
8, 190800, Note_off_c, 9, 36, 95
8, 190800, Note_on_c, 9, 40, 95
8, 191040, Note_off_c, 9, 40, 95
8, 191040, Note_on_c, 9, 57, 95
8, 191040, Note_on_c, 9, 47, 95
8, 191040, Note_on_c, 9, 36, 95
8, 191280, Note_off_c, 9, 57, 95
8, 191280, Note_off_c, 9, 47, 95
8, 191280, Note_off_c, 9, 36, 95
8, 191280, Note_on_c, 9, 47, 95
8, 191520, Note_off_c, 9, 47, 95
8, 191520, Note_on_c, 9, 45, 95
8, 191520, Note_on_c, 9, 36, 95
8, 191760, Note_off_c, 9, 45, 95
8, 191760, Note_off_c, 9, 36, 95
8, 191760, Note_on_c, 9, 45, 95
8, 192000, Note_off_c, 9, 45, 95
8, 192000, Note_on_c, 9, 57, 95
8, 192000, Note_on_c, 9, 36, 95
8, 192720, Note_off_c, 9, 57, 95
8, 192720, Note_off_c, 9, 36, 95
8, 192720, Note_on_c, 9, 40, 95
8, 192960, Note_off_c, 9, 40, 95
8, 192960, Note_on_c, 9, 40, 95
8, 193200, Note_off_c, 9, 40, 95
8, 193440, Note_on_c, 9, 57, 95
8, 193440, Note_on_c, 9, 40, 95
8, 193440, Note_on_c, 9, 36, 95
8, 194160, Note_off_c, 9, 57, 95
8, 194160, Note_off_c, 9, 40, 95
8, 194160, Note_off_c, 9, 36, 95
8, 194160, Note_on_c, 9, 40, 95
8, 194400, Note_off_c, 9, 40, 95
8, 194400, Note_on_c, 9, 40, 95
8, 194640, Note_off_c, 9, 40, 95
8, 194880, Note_on_c, 9, 57, 95
8, 194880, Note_on_c, 9, 36, 95
8, 195360, Note_off_c, 9, 57, 95
8, 195360, Note_off_c, 9, 36, 95
8, 195360, Note_on_c, 9, 40, 95
8, 195600, Note_off_c, 9, 40, 95
8, 195600, Note_on_c, 9, 40, 95
8, 195600, Note_on_c, 9, 36, 95
8, 195840, Note_off_c, 9, 40, 95
8, 195840, Note_off_c, 9, 36, 95
8, 195840, Note_on_c, 9, 57, 95
8, 195840, Note_on_c, 9, 40, 95
8, 195840, Note_on_c, 9, 36, 95
8, 196080, Note_off_c, 9, 57, 95
8, 196080, Note_off_c, 9, 40, 95
8, 196080, Note_off_c, 9, 36, 95
8, 196080, Note_on_c, 9, 40, 95
8, 196320, Note_off_c, 9, 40, 95
8, 196320, Note_on_c, 9, 36, 95
8, 196560, Note_off_c, 9, 36, 95
8, 196560, Note_on_c, 9, 40, 95
8, 196800, Note_off_c, 9, 40, 95
8, 196800, Note_on_c, 9, 57, 95
8, 196800, Note_on_c, 9, 36, 95
8, 197040, Note_off_c, 9, 57, 95
8, 197040, Note_off_c, 9, 36, 95
8, 197040, Note_on_c, 9, 40, 95
8, 197280, Note_off_c, 9, 40, 95
8, 197280, Note_on_c, 9, 40, 95
8, 197280, Note_on_c, 9, 36, 95
8, 197520, Note_off_c, 9, 40, 95
8, 197520, Note_off_c, 9, 36, 95
8, 197520, Note_on_c, 9, 40, 95
8, 197760, Note_off_c, 9, 40, 95
8, 197760, Note_on_c, 9, 57, 95
8, 197760, Note_on_c, 9, 40, 95
8, 197760, Note_on_c, 9, 36, 95
8, 198000, Note_off_c, 9, 57, 95
8, 198000, Note_off_c, 9, 40, 95
8, 198000, Note_off_c, 9, 36, 95
8, 198000, Note_on_c, 9, 40, 95
8, 198240, Note_off_c, 9, 40, 95
8, 198240, Note_on_c, 9, 40, 95
8, 198240, Note_on_c, 9, 36, 95
8, 198480, Note_off_c, 9, 40, 95
8, 198480, Note_off_c, 9, 36, 95
8, 198480, Note_on_c, 9, 40, 95
8, 198720, Note_off_c, 9, 40, 95
8, 198720, Note_on_c, 9, 57, 95
8, 198720, Note_on_c, 9, 47, 95
8, 198720, Note_on_c, 9, 36, 95
8, 198960, Note_off_c, 9, 57, 95
8, 198960, Note_off_c, 9, 47, 95
8, 198960, Note_off_c, 9, 36, 95
8, 198960, Note_on_c, 9, 47, 95
8, 199200, Note_off_c, 9, 47, 95
8, 199200, Note_on_c, 9, 45, 95
8, 199200, Note_on_c, 9, 36, 95
8, 199440, Note_off_c, 9, 45, 95
8, 199440, Note_off_c, 9, 36, 95
8, 199440, Note_on_c, 9, 45, 95
8, 199680, Note_off_c, 9, 45, 95
8, 199680, Note_on_c, 9, 57, 95
8, 199680, Note_on_c, 9, 36, 95
8, 200400, Note_off_c, 9, 57, 95
8, 200400, Note_off_c, 9, 36, 95
8, 200400, Note_on_c, 9, 40, 95
8, 200640, Note_off_c, 9, 40, 95
8, 200640, Note_on_c, 9, 40, 95
8, 200880, Note_off_c, 9, 40, 95
8, 201120, Note_on_c, 9, 57, 95
8, 201120, Note_on_c, 9, 40, 95
8, 201120, Note_on_c, 9, 36, 95
8, 201840, Note_off_c, 9, 57, 95
8, 201840, Note_off_c, 9, 40, 95
8, 201840, Note_off_c, 9, 36, 95
8, 201840, Note_on_c, 9, 40, 95
8, 202080, Note_off_c, 9, 40, 95
8, 202080, Note_on_c, 9, 40, 95
8, 202320, Note_off_c, 9, 40, 95
8, 202560, Note_on_c, 9, 57, 95
8, 202560, Note_on_c, 9, 36, 95
8, 203040, Note_off_c, 9, 57, 95
8, 203040, Note_off_c, 9, 36, 95
8, 203040, Note_on_c, 9, 40, 95
8, 203280, Note_off_c, 9, 40, 95
8, 203280, Note_on_c, 9, 40, 95
8, 203280, Note_on_c, 9, 36, 95
8, 203520, Note_off_c, 9, 40, 95
8, 203520, Note_off_c, 9, 36, 95
8, 203520, Note_on_c, 9, 57, 95
8, 203520, Note_on_c, 9, 40, 95
8, 203520, Note_on_c, 9, 36, 95
8, 203760, Note_off_c, 9, 57, 95
8, 203760, Note_off_c, 9, 40, 95
8, 203760, Note_off_c, 9, 36, 95
8, 203760, Note_on_c, 9, 40, 95
8, 204000, Note_off_c, 9, 40, 95
8, 204000, Note_on_c, 9, 36, 95
8, 204240, Note_off_c, 9, 36, 95
8, 204240, Note_on_c, 9, 40, 95
8, 204480, Note_off_c, 9, 40, 95
8, 204480, Note_on_c, 9, 57, 95
8, 204480, Note_on_c, 9, 36, 95
8, 204720, Note_off_c, 9, 57, 95
8, 204720, Note_off_c, 9, 36, 95
8, 204720, Note_on_c, 9, 40, 95
8, 204960, Note_off_c, 9, 40, 95
8, 204960, Note_on_c, 9, 40, 95
8, 204960, Note_on_c, 9, 36, 95
8, 205200, Note_off_c, 9, 40, 95
8, 205200, Note_off_c, 9, 36, 95
8, 205200, Note_on_c, 9, 40, 95
8, 205440, Note_off_c, 9, 40, 95
8, 205440, Note_on_c, 9, 57, 95
8, 205440, Note_on_c, 9, 40, 95
8, 205440, Note_on_c, 9, 36, 95
8, 205680, Note_off_c, 9, 57, 95
8, 205680, Note_off_c, 9, 40, 95
8, 205680, Note_off_c, 9, 36, 95
8, 205680, Note_on_c, 9, 40, 95
8, 205920, Note_off_c, 9, 40, 95
8, 205920, Note_on_c, 9, 40, 95
8, 205920, Note_on_c, 9, 36, 95
8, 206160, Note_off_c, 9, 40, 95
8, 206160, Note_off_c, 9, 36, 95
8, 206160, Note_on_c, 9, 40, 95
8, 206400, Note_off_c, 9, 40, 95
8, 206400, Note_on_c, 9, 57, 95
8, 206400, Note_on_c, 9, 47, 95
8, 206400, Note_on_c, 9, 36, 95
8, 206640, Note_off_c, 9, 57, 95
8, 206640, Note_off_c, 9, 47, 95
8, 206640, Note_off_c, 9, 36, 95
8, 206640, Note_on_c, 9, 47, 95
8, 206880, Note_off_c, 9, 47, 95
8, 206880, Note_on_c, 9, 45, 95
8, 206880, Note_on_c, 9, 36, 95
8, 207120, Note_off_c, 9, 45, 95
8, 207120, Note_off_c, 9, 36, 95
8, 207120, Note_on_c, 9, 45, 95
8, 207360, Note_off_c, 9, 45, 95
8, 207360, Note_on_c, 9, 57, 95
8, 207360, Note_on_c, 9, 36, 95
8, 208320, Note_off_c, 9, 57, 95
8, 208320, Note_off_c, 9, 36, 95
8, 208320, Note_on_c, 9, 46, 95
8, 208320, Note_on_c, 9, 40, 95
8, 208320, Note_on_c, 9, 36, 95
8, 209280, Note_off_c, 9, 46, 95
8, 209280, Note_off_c, 9, 40, 95
8, 209280, Note_off_c, 9, 36, 95
8, 209280, Note_on_c, 9, 57, 95
8, 209280, Note_on_c, 9, 36, 95
8, 210240, Note_off_c, 9, 57, 95
8, 210240, Note_off_c, 9, 36, 95
8, 210240, Note_on_c, 9, 46, 95
8, 210240, Note_on_c, 9, 40, 95
8, 210240, Note_on_c, 9, 36, 95
8, 211200, Note_off_c, 9, 46, 95
8, 211200, Note_off_c, 9, 40, 95
8, 211200, Note_off_c, 9, 36, 95
8, 211200, Note_on_c, 9, 57, 95
8, 211200, Note_on_c, 9, 36, 95
8, 212160, Note_off_c, 9, 57, 95
8, 212160, Note_off_c, 9, 36, 95
8, 212160, Note_on_c, 9, 46, 95
8, 212160, Note_on_c, 9, 40, 95
8, 212160, Note_on_c, 9, 36, 95
8, 212400, Note_off_c, 9, 46, 95
8, 212400, Note_off_c, 9, 40, 95
8, 212400, Note_off_c, 9, 36, 95
8, 212640, Note_on_c, 9, 40, 95
8, 212880, Note_off_c, 9, 40, 95
8, 212880, Note_on_c, 9, 40, 95
8, 213120, Note_off_c, 9, 40, 95
8, 213120, Note_on_c, 9, 57, 95
8, 213120, Note_on_c, 9, 40, 95
8, 213120, Note_on_c, 9, 36, 95
8, 213360, Note_off_c, 9, 57, 95
8, 213360, Note_off_c, 9, 40, 95
8, 213360, Note_off_c, 9, 36, 95
8, 213360, Note_on_c, 9, 36, 95
8, 213600, Note_off_c, 9, 36, 95
8, 213600, Note_on_c, 9, 40, 95
8, 213840, Note_off_c, 9, 40, 95
8, 213840, Note_on_c, 9, 36, 95
8, 214080, Note_off_c, 9, 36, 95
8, 214080, Note_on_c, 9, 46, 95
8, 214080, Note_on_c, 9, 40, 95
8, 214080, Note_on_c, 9, 36, 95
8, 214320, Note_off_c, 9, 46, 95
8, 214320, Note_off_c, 9, 40, 95
8, 214320, Note_off_c, 9, 36, 95
8, 214320, Note_on_c, 9, 36, 95
8, 214560, Note_off_c, 9, 36, 95
8, 214560, Note_on_c, 9, 40, 95
8, 214800, Note_off_c, 9, 40, 95
8, 214800, Note_on_c, 9, 40, 95
8, 215040, Note_off_c, 9, 40, 95
8, 215040, Note_on_c, 9, 57, 95
8, 215040, Note_on_c, 9, 36, 95
8, 216000, Note_off_c, 9, 57, 95
8, 216000, Note_off_c, 9, 36, 95
8, 216000, Note_on_c, 9, 46, 95
8, 216000, Note_on_c, 9, 40, 95
8, 216000, Note_on_c, 9, 36, 95
8, 216960, Note_off_c, 9, 46, 95
8, 216960, Note_off_c, 9, 40, 95
8, 216960, Note_off_c, 9, 36, 95
8, 216960, Note_on_c, 9, 57, 95
8, 216960, Note_on_c, 9, 36, 95
8, 217920, Note_off_c, 9, 57, 95
8, 217920, Note_off_c, 9, 36, 95
8, 217920, Note_on_c, 9, 46, 95
8, 217920, Note_on_c, 9, 40, 95
8, 217920, Note_on_c, 9, 36, 95
8, 218880, Note_off_c, 9, 46, 95
8, 218880, Note_off_c, 9, 40, 95
8, 218880, Note_off_c, 9, 36, 95
8, 218880, Note_on_c, 9, 57, 95
8, 218880, Note_on_c, 9, 36, 95
8, 219840, Note_off_c, 9, 57, 95
8, 219840, Note_off_c, 9, 36, 95
8, 219840, Note_on_c, 9, 46, 95
8, 219840, Note_on_c, 9, 40, 95
8, 219840, Note_on_c, 9, 36, 95
8, 220080, Note_off_c, 9, 46, 95
8, 220080, Note_off_c, 9, 40, 95
8, 220080, Note_off_c, 9, 36, 95
8, 220320, Note_on_c, 9, 40, 95
8, 220560, Note_off_c, 9, 40, 95
8, 220560, Note_on_c, 9, 40, 95
8, 220800, Note_off_c, 9, 40, 95
8, 220800, Note_on_c, 9, 57, 95
8, 220800, Note_on_c, 9, 40, 95
8, 220800, Note_on_c, 9, 36, 95
8, 221040, Note_off_c, 9, 57, 95
8, 221040, Note_off_c, 9, 40, 95
8, 221040, Note_off_c, 9, 36, 95
8, 221040, Note_on_c, 9, 36, 95
8, 221280, Note_off_c, 9, 36, 95
8, 221280, Note_on_c, 9, 40, 95
8, 221520, Note_off_c, 9, 40, 95
8, 221520, Note_on_c, 9, 36, 95
8, 221760, Note_off_c, 9, 36, 95
8, 221760, Note_on_c, 9, 46, 95
8, 221760, Note_on_c, 9, 40, 95
8, 221760, Note_on_c, 9, 36, 95
8, 222000, Note_off_c, 9, 46, 95
8, 222000, Note_off_c, 9, 40, 95
8, 222000, Note_off_c, 9, 36, 95
8, 222000, Note_on_c, 9, 36, 95
8, 222240, Note_off_c, 9, 36, 95
8, 222240, Note_on_c, 9, 40, 95
8, 222480, Note_off_c, 9, 40, 95
8, 222480, Note_on_c, 9, 40, 95
8, 222720, Note_off_c, 9, 40, 95
8, 222720, Note_on_c, 9, 57, 95
8, 222720, Note_on_c, 9, 36, 95
8, 223680, Note_off_c, 9, 57, 95
8, 223680, Note_off_c, 9, 36, 95
8, 223680, Note_on_c, 9, 46, 95
8, 223680, Note_on_c, 9, 40, 95
8, 223680, Note_on_c, 9, 36, 95
8, 224640, Note_off_c, 9, 46, 95
8, 224640, Note_off_c, 9, 40, 95
8, 224640, Note_off_c, 9, 36, 95
8, 224640, Note_on_c, 9, 57, 95
8, 224640, Note_on_c, 9, 36, 95
8, 225600, Note_off_c, 9, 57, 95
8, 225600, Note_off_c, 9, 36, 95
8, 225600, Note_on_c, 9, 46, 95
8, 225600, Note_on_c, 9, 40, 95
8, 225600, Note_on_c, 9, 36, 95
8, 226560, Note_off_c, 9, 46, 95
8, 226560, Note_off_c, 9, 40, 95
8, 226560, Note_off_c, 9, 36, 95
8, 226560, Note_on_c, 9, 57, 95
8, 226560, Note_on_c, 9, 36, 95
8, 227520, Note_off_c, 9, 57, 95
8, 227520, Note_off_c, 9, 36, 95
8, 227520, Note_on_c, 9, 46, 95
8, 227520, Note_on_c, 9, 40, 95
8, 227520, Note_on_c, 9, 36, 95
8, 227760, Note_off_c, 9, 46, 95
8, 227760, Note_off_c, 9, 40, 95
8, 227760, Note_off_c, 9, 36, 95
8, 228000, Note_on_c, 9, 40, 95
8, 228240, Note_off_c, 9, 40, 95
8, 228240, Note_on_c, 9, 40, 95
8, 228480, Note_off_c, 9, 40, 95
8, 228480, Note_on_c, 9, 57, 95
8, 228480, Note_on_c, 9, 40, 95
8, 228480, Note_on_c, 9, 36, 95
8, 228720, Note_off_c, 9, 57, 95
8, 228720, Note_off_c, 9, 40, 95
8, 228720, Note_off_c, 9, 36, 95
8, 228720, Note_on_c, 9, 36, 95
8, 228960, Note_off_c, 9, 36, 95
8, 228960, Note_on_c, 9, 40, 95
8, 229200, Note_off_c, 9, 40, 95
8, 229200, Note_on_c, 9, 36, 95
8, 229440, Note_off_c, 9, 36, 95
8, 229440, Note_on_c, 9, 46, 95
8, 229440, Note_on_c, 9, 40, 95
8, 229440, Note_on_c, 9, 36, 95
8, 229680, Note_off_c, 9, 46, 95
8, 229680, Note_off_c, 9, 40, 95
8, 229680, Note_off_c, 9, 36, 95
8, 229680, Note_on_c, 9, 36, 95
8, 229920, Note_off_c, 9, 36, 95
8, 229920, Note_on_c, 9, 40, 95
8, 230160, Note_off_c, 9, 40, 95
8, 230160, Note_on_c, 9, 40, 95
8, 230400, Note_off_c, 9, 40, 95
8, 230400, Note_on_c, 9, 57, 95
8, 230400, Note_on_c, 9, 36, 95
8, 231360, Note_off_c, 9, 57, 95
8, 231360, Note_off_c, 9, 36, 95
8, 231360, Note_on_c, 9, 46, 95
8, 231360, Note_on_c, 9, 40, 95
8, 231360, Note_on_c, 9, 36, 95
8, 232320, Note_off_c, 9, 46, 95
8, 232320, Note_off_c, 9, 40, 95
8, 232320, Note_off_c, 9, 36, 95
8, 232320, Note_on_c, 9, 57, 95
8, 232320, Note_on_c, 9, 36, 95
8, 233280, Note_off_c, 9, 57, 95
8, 233280, Note_off_c, 9, 36, 95
8, 233280, Note_on_c, 9, 46, 95
8, 233280, Note_on_c, 9, 40, 95
8, 233280, Note_on_c, 9, 36, 95
8, 234240, Note_off_c, 9, 46, 95
8, 234240, Note_off_c, 9, 40, 95
8, 234240, Note_off_c, 9, 36, 95
8, 234240, Note_on_c, 9, 57, 95
8, 234240, Note_on_c, 9, 36, 95
8, 235200, Note_off_c, 9, 57, 95
8, 235200, Note_off_c, 9, 36, 95
8, 235200, Note_on_c, 9, 46, 95
8, 235200, Note_on_c, 9, 40, 95
8, 235200, Note_on_c, 9, 36, 95
8, 235440, Note_off_c, 9, 46, 95
8, 235440, Note_off_c, 9, 40, 95
8, 235440, Note_off_c, 9, 36, 95
8, 235680, Note_on_c, 9, 40, 95
8, 235920, Note_off_c, 9, 40, 95
8, 235920, Note_on_c, 9, 40, 95
8, 236160, Note_off_c, 9, 40, 95
8, 236160, Note_on_c, 9, 57, 95
8, 236160, Note_on_c, 9, 40, 95
8, 236160, Note_on_c, 9, 36, 95
8, 236400, Note_off_c, 9, 57, 95
8, 236400, Note_off_c, 9, 40, 95
8, 236400, Note_off_c, 9, 36, 95
8, 236400, Note_on_c, 9, 36, 95
8, 236640, Note_off_c, 9, 36, 95
8, 236640, Note_on_c, 9, 40, 95
8, 236880, Note_off_c, 9, 40, 95
8, 236880, Note_on_c, 9, 36, 95
8, 237120, Note_off_c, 9, 36, 95
8, 237120, Note_on_c, 9, 46, 95
8, 237120, Note_on_c, 9, 40, 95
8, 237120, Note_on_c, 9, 36, 95
8, 237360, Note_off_c, 9, 46, 95
8, 237360, Note_off_c, 9, 40, 95
8, 237360, Note_off_c, 9, 36, 95
8, 237360, Note_on_c, 9, 36, 95
8, 237600, Note_off_c, 9, 36, 95
8, 237600, Note_on_c, 9, 40, 95
8, 237840, Note_off_c, 9, 40, 95
8, 237840, Note_on_c, 9, 40, 95
8, 238080, Note_off_c, 9, 40, 95
8, 238080, Note_on_c, 9, 57, 95
8, 238080, Note_on_c, 9, 36, 95
8, 239040, Note_off_c, 9, 57, 95
8, 239040, Note_off_c, 9, 36, 95
8, 239040, Note_on_c, 9, 46, 95
8, 239040, Note_on_c, 9, 40, 95
8, 239040, Note_on_c, 9, 36, 95
8, 240000, Note_off_c, 9, 46, 95
8, 240000, Note_off_c, 9, 40, 95
8, 240000, Note_off_c, 9, 36, 95
8, 240000, Note_on_c, 9, 57, 95
8, 240000, Note_on_c, 9, 36, 95
8, 240960, Note_off_c, 9, 57, 95
8, 240960, Note_off_c, 9, 36, 95
8, 240960, Note_on_c, 9, 46, 95
8, 240960, Note_on_c, 9, 40, 95
8, 240960, Note_on_c, 9, 36, 95
8, 241920, Note_off_c, 9, 46, 95
8, 241920, Note_off_c, 9, 40, 95
8, 241920, Note_off_c, 9, 36, 95
8, 241920, Note_on_c, 9, 57, 95
8, 241920, Note_on_c, 9, 36, 95
8, 242880, Note_off_c, 9, 57, 95
8, 242880, Note_off_c, 9, 36, 95
8, 242880, Note_on_c, 9, 46, 95
8, 242880, Note_on_c, 9, 40, 95
8, 242880, Note_on_c, 9, 36, 95
8, 243120, Note_off_c, 9, 46, 95
8, 243120, Note_off_c, 9, 40, 95
8, 243120, Note_off_c, 9, 36, 95
8, 243360, Note_on_c, 9, 40, 95
8, 243600, Note_off_c, 9, 40, 95
8, 243600, Note_on_c, 9, 40, 95
8, 243840, Note_off_c, 9, 40, 95
8, 243840, Note_on_c, 9, 36, 95
8, 244080, Note_off_c, 9, 36, 95
8, 244320, Note_on_c, 9, 47, 95
8, 244320, Note_on_c, 9, 40, 95
8, 244560, Note_off_c, 9, 47, 95
8, 244560, Note_off_c, 9, 40, 95
8, 244560, Note_on_c, 9, 47, 95
8, 244560, Note_on_c, 9, 36, 95
8, 244800, Note_off_c, 9, 47, 95
8, 244800, Note_off_c, 9, 36, 95
8, 244800, Note_on_c, 9, 45, 95
8, 244800, Note_on_c, 9, 40, 95
8, 244800, Note_on_c, 9, 36, 95
8, 245040, Note_off_c, 9, 45, 95
8, 245040, Note_off_c, 9, 40, 95
8, 245040, Note_off_c, 9, 36, 95
8, 245040, Note_on_c, 9, 45, 95
8, 245040, Note_on_c, 9, 36, 95
8, 245280, Note_off_c, 9, 45, 95
8, 245280, Note_off_c, 9, 36, 95
8, 245280, Note_on_c, 9, 43, 95
8, 245280, Note_on_c, 9, 40, 95
8, 245520, Note_off_c, 9, 43, 95
8, 245520, Note_off_c, 9, 40, 95
8, 245520, Note_on_c, 9, 43, 95
8, 245520, Note_on_c, 9, 40, 95
8, 245760, Note_off_c, 9, 43, 95
8, 245760, Note_off_c, 9, 40, 95
8, 245760, Note_on_c, 9, 57, 95
8, 245760, Note_on_c, 9, 40, 95
8, 245760, Note_on_c, 9, 36, 95
8, 249600, Note_off_c, 9, 57, 95
8, 249600, Note_off_c, 9, 40, 95
8, 249600, Note_off_c, 9, 36, 95
8, 261120, Note_on_c, 9, 59, 95
8, 261120, Note_on_c, 9, 36, 95
8, 262080, Note_off_c, 9, 59, 95
8, 262080, Note_off_c, 9, 36, 95
8, 262080, Note_on_c, 9, 59, 95
8, 262080, Note_on_c, 9, 40, 95
8, 262080, Note_on_c, 9, 36, 95
8, 263040, Note_off_c, 9, 59, 95
8, 263040, Note_off_c, 9, 40, 95
8, 263040, Note_off_c, 9, 36, 95
8, 263040, Note_on_c, 9, 59, 95
8, 263040, Note_on_c, 9, 36, 95
8, 264000, Note_off_c, 9, 59, 95
8, 264000, Note_off_c, 9, 36, 95
8, 264000, Note_on_c, 9, 59, 95
8, 264000, Note_on_c, 9, 40, 95
8, 264000, Note_on_c, 9, 36, 95
8, 264960, Note_off_c, 9, 59, 95
8, 264960, Note_off_c, 9, 40, 95
8, 264960, Note_off_c, 9, 36, 95
8, 264960, Note_on_c, 9, 59, 95
8, 264960, Note_on_c, 9, 36, 95
8, 265920, Note_off_c, 9, 59, 95
8, 265920, Note_off_c, 9, 36, 95
8, 265920, Note_on_c, 9, 59, 95
8, 265920, Note_on_c, 9, 40, 95
8, 265920, Note_on_c, 9, 36, 95
8, 266880, Note_off_c, 9, 59, 95
8, 266880, Note_off_c, 9, 40, 95
8, 266880, Note_off_c, 9, 36, 95
8, 266880, Note_on_c, 9, 59, 95
8, 266880, Note_on_c, 9, 36, 95
8, 267840, Note_off_c, 9, 59, 95
8, 267840, Note_off_c, 9, 36, 95
8, 267840, Note_on_c, 9, 59, 95
8, 267840, Note_on_c, 9, 40, 95
8, 267840, Note_on_c, 9, 36, 95
8, 268800, Note_off_c, 9, 59, 95
8, 268800, Note_off_c, 9, 40, 95
8, 268800, Note_off_c, 9, 36, 95
8, 268800, Note_on_c, 9, 59, 95
8, 268800, Note_on_c, 9, 36, 95
8, 269760, Note_off_c, 9, 59, 95
8, 269760, Note_off_c, 9, 36, 95
8, 269760, Note_on_c, 9, 59, 95
8, 269760, Note_on_c, 9, 40, 95
8, 269760, Note_on_c, 9, 36, 95
8, 270720, Note_off_c, 9, 59, 95
8, 270720, Note_off_c, 9, 40, 95
8, 270720, Note_off_c, 9, 36, 95
8, 270720, Note_on_c, 9, 59, 95
8, 270720, Note_on_c, 9, 36, 95
8, 271680, Note_off_c, 9, 59, 95
8, 271680, Note_off_c, 9, 36, 95
8, 271680, Note_on_c, 9, 59, 95
8, 271680, Note_on_c, 9, 40, 95
8, 271680, Note_on_c, 9, 36, 95
8, 272640, Note_off_c, 9, 59, 95
8, 272640, Note_off_c, 9, 40, 95
8, 272640, Note_off_c, 9, 36, 95
8, 272640, Note_on_c, 9, 59, 95
8, 272640, Note_on_c, 9, 36, 95
8, 273600, Note_off_c, 9, 59, 95
8, 273600, Note_off_c, 9, 36, 95
8, 273600, Note_on_c, 9, 59, 95
8, 273600, Note_on_c, 9, 40, 95
8, 273600, Note_on_c, 9, 36, 95
8, 274560, Note_off_c, 9, 59, 95
8, 274560, Note_off_c, 9, 40, 95
8, 274560, Note_off_c, 9, 36, 95
8, 274560, Note_on_c, 9, 59, 95
8, 274560, Note_on_c, 9, 36, 95
8, 275520, Note_off_c, 9, 59, 95
8, 275520, Note_off_c, 9, 36, 95
8, 275520, Note_on_c, 9, 59, 95
8, 275520, Note_on_c, 9, 40, 95
8, 275520, Note_on_c, 9, 36, 95
8, 276480, Note_off_c, 9, 59, 95
8, 276480, Note_off_c, 9, 40, 95
8, 276480, Note_off_c, 9, 36, 95
8, 276480, Note_on_c, 9, 59, 95
8, 276480, Note_on_c, 9, 36, 95
8, 277440, Note_off_c, 9, 59, 95
8, 277440, Note_off_c, 9, 36, 95
8, 277440, Note_on_c, 9, 59, 95
8, 277440, Note_on_c, 9, 40, 95
8, 277440, Note_on_c, 9, 36, 95
8, 278400, Note_off_c, 9, 59, 95
8, 278400, Note_off_c, 9, 40, 95
8, 278400, Note_off_c, 9, 36, 95
8, 278400, Note_on_c, 9, 59, 95
8, 278400, Note_on_c, 9, 36, 95
8, 279360, Note_off_c, 9, 59, 95
8, 279360, Note_off_c, 9, 36, 95
8, 279360, Note_on_c, 9, 59, 95
8, 279360, Note_on_c, 9, 40, 95
8, 279360, Note_on_c, 9, 36, 95
8, 280320, Note_off_c, 9, 59, 95
8, 280320, Note_off_c, 9, 40, 95
8, 280320, Note_off_c, 9, 36, 95
8, 280320, Note_on_c, 9, 59, 95
8, 280320, Note_on_c, 9, 36, 95
8, 281280, Note_off_c, 9, 59, 95
8, 281280, Note_off_c, 9, 36, 95
8, 281280, Note_on_c, 9, 59, 95
8, 281280, Note_on_c, 9, 40, 95
8, 281280, Note_on_c, 9, 36, 95
8, 282240, Note_off_c, 9, 59, 95
8, 282240, Note_off_c, 9, 40, 95
8, 282240, Note_off_c, 9, 36, 95
8, 282240, Note_on_c, 9, 59, 95
8, 282240, Note_on_c, 9, 36, 95
8, 283200, Note_off_c, 9, 59, 95
8, 283200, Note_off_c, 9, 36, 95
8, 283200, Note_on_c, 9, 59, 95
8, 283200, Note_on_c, 9, 40, 95
8, 283200, Note_on_c, 9, 36, 95
8, 284160, Note_off_c, 9, 59, 95
8, 284160, Note_off_c, 9, 40, 95
8, 284160, Note_off_c, 9, 36, 95
8, 284160, Note_on_c, 9, 59, 95
8, 284160, Note_on_c, 9, 36, 95
8, 285120, Note_off_c, 9, 59, 95
8, 285120, Note_off_c, 9, 36, 95
8, 285120, Note_on_c, 9, 59, 95
8, 285120, Note_on_c, 9, 40, 95
8, 285120, Note_on_c, 9, 36, 95
8, 286080, Note_off_c, 9, 59, 95
8, 286080, Note_off_c, 9, 40, 95
8, 286080, Note_off_c, 9, 36, 95
8, 286080, Note_on_c, 9, 59, 95
8, 286080, Note_on_c, 9, 36, 95
8, 287040, Note_off_c, 9, 59, 95
8, 287040, Note_off_c, 9, 36, 95
8, 287040, Note_on_c, 9, 59, 95
8, 287040, Note_on_c, 9, 40, 95
8, 287040, Note_on_c, 9, 36, 95
8, 288000, Note_off_c, 9, 59, 95
8, 288000, Note_off_c, 9, 40, 95
8, 288000, Note_off_c, 9, 36, 95
8, 288000, Note_on_c, 9, 59, 95
8, 288000, Note_on_c, 9, 36, 95
8, 288960, Note_off_c, 9, 59, 95
8, 288960, Note_off_c, 9, 36, 95
8, 288960, Note_on_c, 9, 59, 95
8, 288960, Note_on_c, 9, 40, 95
8, 288960, Note_on_c, 9, 36, 95
8, 289920, Note_off_c, 9, 59, 95
8, 289920, Note_off_c, 9, 40, 95
8, 289920, Note_off_c, 9, 36, 95
8, 289920, Note_on_c, 9, 59, 95
8, 289920, Note_on_c, 9, 36, 95
8, 290880, Note_off_c, 9, 59, 95
8, 290880, Note_off_c, 9, 36, 95
8, 290880, Note_on_c, 9, 59, 95
8, 290880, Note_on_c, 9, 40, 95
8, 290880, Note_on_c, 9, 36, 95
8, 291840, Note_off_c, 9, 59, 95
8, 291840, Note_off_c, 9, 40, 95
8, 291840, Note_off_c, 9, 36, 95
8, 291840, Note_on_c, 9, 59, 95
8, 291840, Note_on_c, 9, 36, 95
8, 292800, Note_off_c, 9, 59, 95
8, 292800, Note_off_c, 9, 36, 95
8, 292800, Note_on_c, 9, 59, 95
8, 292800, Note_on_c, 9, 40, 95
8, 292800, Note_on_c, 9, 36, 95
8, 293760, Note_off_c, 9, 59, 95
8, 293760, Note_off_c, 9, 40, 95
8, 293760, Note_off_c, 9, 36, 95
8, 293760, Note_on_c, 9, 59, 95
8, 293760, Note_on_c, 9, 36, 95
8, 294720, Note_off_c, 9, 59, 95
8, 294720, Note_off_c, 9, 36, 95
8, 294720, Note_on_c, 9, 59, 95
8, 294720, Note_on_c, 9, 40, 95
8, 294720, Note_on_c, 9, 36, 95
8, 295680, Note_off_c, 9, 59, 95
8, 295680, Note_off_c, 9, 40, 95
8, 295680, Note_off_c, 9, 36, 95
8, 295680, Note_on_c, 9, 59, 95
8, 295680, Note_on_c, 9, 36, 95
8, 296640, Note_off_c, 9, 59, 95
8, 296640, Note_off_c, 9, 36, 95
8, 301440, Note_on_c, 9, 57, 95
8, 301440, Note_on_c, 9, 36, 95
8, 302400, Note_off_c, 9, 57, 95
8, 302400, Note_off_c, 9, 36, 95
8, 302400, Note_on_c, 9, 59, 95
8, 302400, Note_on_c, 9, 40, 95
8, 302400, Note_on_c, 9, 36, 95
8, 303360, Note_off_c, 9, 59, 95
8, 303360, Note_off_c, 9, 40, 95
8, 303360, Note_off_c, 9, 36, 95
8, 303360, Note_on_c, 9, 59, 95
8, 303360, Note_on_c, 9, 36, 95
8, 304320, Note_off_c, 9, 59, 95
8, 304320, Note_off_c, 9, 36, 95
8, 304320, Note_on_c, 9, 59, 95
8, 304320, Note_on_c, 9, 40, 95
8, 304320, Note_on_c, 9, 36, 95
8, 305280, Note_off_c, 9, 59, 95
8, 305280, Note_off_c, 9, 40, 95
8, 305280, Note_off_c, 9, 36, 95
8, 305280, Note_on_c, 9, 59, 95
8, 305280, Note_on_c, 9, 36, 95
8, 306240, Note_off_c, 9, 59, 95
8, 306240, Note_off_c, 9, 36, 95
8, 306240, Note_on_c, 9, 59, 95
8, 306240, Note_on_c, 9, 40, 95
8, 306240, Note_on_c, 9, 36, 95
8, 307200, Note_off_c, 9, 59, 95
8, 307200, Note_off_c, 9, 40, 95
8, 307200, Note_off_c, 9, 36, 95
8, 307200, Note_on_c, 9, 59, 95
8, 307200, Note_on_c, 9, 36, 95
8, 308160, Note_off_c, 9, 59, 95
8, 308160, Note_off_c, 9, 36, 95
8, 308160, Note_on_c, 9, 59, 95
8, 308160, Note_on_c, 9, 40, 95
8, 308160, Note_on_c, 9, 36, 95
8, 309120, Note_off_c, 9, 59, 95
8, 309120, Note_off_c, 9, 40, 95
8, 309120, Note_off_c, 9, 36, 95
8, 309120, Note_on_c, 9, 57, 95
8, 309120, Note_on_c, 9, 36, 95
8, 310080, Note_off_c, 9, 57, 95
8, 310080, Note_off_c, 9, 36, 95
8, 310080, End_track
0, 0, End_of_file
