0, 0, Header, 0, 1, 384
1, 0, Start_track
1, 0, Title_t, "ABSDRAKT © 2001"
1, 0, Control_c, 1, 0, 0
1, 0, Program_c, 1, 33
1, 0, Control_c, 2, 0, 0
1, 0, Program_c, 2, 24
1, 0, Control_c, 2, 10, 44
1, 0, Control_c, 2, 91, 67
1, 0, Control_c, 2, 93, 30
1, 0, Control_c, 5, 0, 0
1, 0, Program_c, 5, 25
1, 0, Control_c, 5, 10, 84
1, 0, Control_c, 5, 91, 67
1, 0, Control_c, 5, 93, 25
1, 0, Time_signature, 4, 2, 96, 8
1, 0, Sequencer_specific, 3, 0, 0, 65
1, 0, Tempo, 631578
1, 1056, Note_on_c, 2, 64, 110
1, 1152, Note_on_c, 2, 72, 118
1, 1232, Note_off_c, 2, 64, 0
1, 1304, Note_off_c, 2, 72, 0
1, 1440, Note_on_c, 2, 71, 109
1, 1536, Note_on_c, 1, 33, 119
1, 1536, Note_on_c, 2, 69, 112
1, 1536, Note_on_c, 5, 45, 100
1, 1536, Note_on_c, 9, 54, 83
1, 1536, Note_on_c, 9, 69, 86
1, 1536, Note_on_c, 9, 70, 85
1, 1536, Note_on_c, 9, 36, 116
1, 1540, Note_off_c, 2, 71, 64
1, 1596, Note_off_c, 9, 54, 0
1, 1600, Note_off_c, 9, 70, 0
1, 1608, Note_off_c, 9, 69, 0
1, 1632, Note_on_c, 9, 69, 47
1, 1692, Note_off_c, 9, 36, 0
1, 1724, Note_off_c, 9, 69, 0
1, 1728, Note_on_c, 9, 69, 56
1, 1792, Note_off_c, 9, 69, 0
1, 1824, Note_on_c, 9, 69, 43
1, 1824, Note_on_c, 9, 56, 100
1, 1848, Note_off_c, 1, 33, 0
1, 1896, Note_off_c, 9, 69, 0
1, 1920, Note_on_c, 9, 54, 87
1, 1920, Note_on_c, 9, 69, 73
1, 1920, Note_on_c, 9, 70, 83
1, 1920, Note_on_c, 9, 39, 100
1, 1972, Note_off_c, 9, 70, 0
1, 1996, Note_off_c, 9, 54, 0
1, 2004, Note_off_c, 9, 69, 0
1, 2016, Note_on_c, 9, 69, 46
1, 2048, Note_off_c, 5, 45, 100
1, 2080, Note_off_c, 9, 56, 100
1, 2096, Control_c, 2, 1, 6
1, 2096, Note_off_c, 9, 69, 0
1, 2112, Note_on_c, 5, 60, 102
1, 2112, Note_on_c, 5, 64, 99
1, 2112, Note_on_c, 5, 69, 102
1, 2112, Note_on_c, 9, 69, 62
1, 2116, Note_off_c, 9, 69, 0
1, 2120, Control_c, 2, 1, 12
1, 2144, Control_c, 2, 1, 20
1, 2168, Control_c, 2, 1, 26
1, 2176, Note_off_c, 9, 39, 100
1, 2200, Note_off_c, 5, 64, 0
1, 2204, Control_c, 2, 1, 36
1, 2204, Note_off_c, 5, 60, 0
1, 2204, Note_off_c, 5, 69, 0
1, 2208, Note_on_c, 9, 69, 48
1, 2232, Control_c, 2, 1, 44
1, 2256, Control_c, 2, 1, 49
1, 2272, Note_off_c, 9, 69, 0
1, 2288, Control_c, 2, 1, 57
1, 2304, Note_on_c, 9, 54, 86
1, 2304, Note_on_c, 9, 69, 78
1, 2304, Note_on_c, 9, 70, 85
1, 2316, Control_c, 2, 1, 64
1, 2344, Control_c, 2, 1, 71
1, 2360, Note_off_c, 9, 54, 0
1, 2360, Note_off_c, 9, 70, 0
1, 2376, Note_off_c, 2, 69, 0
1, 2376, Control_c, 2, 1, 79
1, 2392, Note_off_c, 9, 69, 0
1, 2400, Note_on_c, 9, 69, 43
1, 2408, Control_c, 2, 1, 84
1, 2436, Control_c, 2, 1, 82
1, 2476, Note_off_c, 9, 69, 0
1, 2480, Control_c, 2, 1, 62
1, 2496, Note_on_c, 1, 33, 119
1, 2496, Note_on_c, 5, 45, 100
1, 2496, Note_on_c, 9, 69, 57
1, 2496, Note_on_c, 9, 36, 116
1, 2504, Note_off_c, 9, 69, 0
1, 2508, Control_c, 2, 1, 37
1, 2536, Control_c, 2, 1, 0
1, 2592, Note_on_c, 9, 69, 49
1, 2652, Note_off_c, 9, 36, 0
1, 2668, Note_off_c, 9, 69, 0
1, 2688, Note_on_c, 5, 60, 102
1, 2688, Note_on_c, 5, 64, 99
1, 2688, Note_on_c, 5, 69, 102
1, 2688, Note_on_c, 9, 54, 85
1, 2688, Note_on_c, 9, 69, 75
1, 2688, Note_on_c, 9, 39, 100
1, 2760, Note_off_c, 9, 54, 0
1, 2772, Note_off_c, 9, 69, 0
1, 2776, Note_off_c, 5, 64, 0
1, 2780, Note_off_c, 5, 60, 0
1, 2780, Note_off_c, 5, 69, 0
1, 2784, Note_on_c, 9, 69, 48
1, 2804, Note_off_c, 5, 45, 0
1, 2808, Note_off_c, 1, 33, 0
1, 2864, Note_off_c, 9, 69, 0
1, 2880, Note_on_c, 9, 69, 56
1, 2880, Note_on_c, 9, 36, 116
1, 2944, Note_off_c, 9, 39, 100
1, 2956, Note_off_c, 9, 69, 0
1, 2976, Note_on_c, 9, 69, 50
1, 3036, Note_off_c, 9, 36, 0
1, 3044, Note_off_c, 9, 69, 0
1, 3072, Note_on_c, 1, 33, 119
1, 3072, Note_on_c, 5, 45, 100
1, 3072, Note_on_c, 9, 54, 83
1, 3072, Note_on_c, 9, 69, 86
1, 3072, Note_on_c, 9, 70, 85
1, 3072, Note_on_c, 9, 36, 116
1, 3132, Note_off_c, 9, 54, 0
1, 3136, Note_off_c, 9, 70, 0
1, 3144, Note_off_c, 9, 69, 0
1, 3168, Note_on_c, 9, 69, 47
1, 3228, Note_off_c, 9, 36, 0
1, 3260, Note_off_c, 9, 69, 0
1, 3264, Note_on_c, 9, 69, 56
1, 3328, Note_off_c, 9, 69, 0
1, 3360, Note_on_c, 9, 69, 43
1, 3360, Note_on_c, 9, 56, 100
1, 3384, Note_off_c, 1, 33, 0
1, 3432, Note_off_c, 9, 69, 0
1, 3456, Note_on_c, 9, 54, 87
1, 3456, Note_on_c, 9, 69, 73
1, 3456, Note_on_c, 9, 70, 83
1, 3456, Note_on_c, 9, 39, 100
1, 3508, Note_off_c, 9, 70, 0
1, 3532, Note_off_c, 9, 54, 0
1, 3540, Note_off_c, 9, 69, 0
1, 3552, Note_on_c, 9, 69, 46
1, 3584, Note_off_c, 5, 45, 100
1, 3616, Note_off_c, 9, 56, 100
1, 3632, Note_off_c, 9, 69, 0
1, 3648, Note_on_c, 5, 60, 102
1, 3648, Note_on_c, 5, 64, 99
1, 3648, Note_on_c, 5, 69, 102
1, 3648, Note_on_c, 9, 69, 62
1, 3652, Note_off_c, 9, 69, 0
1, 3712, Note_off_c, 9, 39, 100
1, 3736, Note_off_c, 5, 64, 0
1, 3740, Note_off_c, 5, 60, 0
1, 3740, Note_off_c, 5, 69, 0
1, 3744, Note_on_c, 9, 69, 48
1, 3808, Note_off_c, 9, 69, 0
1, 3840, Note_on_c, 9, 54, 86
1, 3840, Note_on_c, 9, 69, 78
1, 3840, Note_on_c, 9, 70, 85
1, 3896, Note_off_c, 9, 54, 0
1, 3896, Note_off_c, 9, 70, 0
1, 3928, Note_off_c, 9, 69, 0
1, 3936, Note_on_c, 9, 69, 43
1, 4012, Note_off_c, 9, 69, 0
1, 4032, Note_on_c, 1, 33, 119
1, 4032, Note_on_c, 5, 45, 100
1, 4032, Note_on_c, 9, 69, 57
1, 4032, Note_on_c, 9, 36, 116
1, 4040, Note_off_c, 9, 69, 0
1, 4128, Note_on_c, 9, 69, 49
1, 4188, Note_off_c, 9, 36, 0
1, 4204, Note_off_c, 9, 69, 0
1, 4224, Note_on_c, 5, 60, 102
1, 4224, Note_on_c, 5, 64, 99
1, 4224, Note_on_c, 5, 69, 102
1, 4224, Note_on_c, 9, 54, 85
1, 4224, Note_on_c, 9, 69, 75
1, 4224, Note_on_c, 9, 39, 100
1, 4296, Note_off_c, 9, 54, 0
1, 4308, Note_off_c, 9, 69, 0
1, 4312, Note_off_c, 5, 64, 0
1, 4316, Note_off_c, 5, 60, 0
1, 4316, Note_off_c, 5, 69, 0
1, 4320, Note_on_c, 2, 64, 110
1, 4320, Note_on_c, 9, 69, 48
1, 4340, Note_off_c, 5, 45, 0
1, 4344, Note_off_c, 1, 33, 0
1, 4400, Note_off_c, 9, 69, 0
1, 4416, Note_on_c, 2, 72, 118
1, 4416, Note_on_c, 9, 69, 56
1, 4416, Note_on_c, 9, 36, 116
1, 4480, Note_off_c, 9, 39, 100
1, 4492, Note_off_c, 9, 69, 0
1, 4496, Note_off_c, 2, 64, 0
1, 4512, Note_on_c, 2, 71, 109
1, 4512, Note_on_c, 9, 69, 50
1, 4568, Note_off_c, 2, 72, 0
1, 4572, Note_off_c, 9, 36, 0
1, 4580, Note_off_c, 9, 69, 0
1, 4608, Note_on_c, 1, 33, 119
1, 4608, Note_on_c, 2, 69, 112
1, 4608, Note_on_c, 5, 45, 100
1, 4608, Note_on_c, 9, 54, 83
1, 4608, Note_on_c, 9, 69, 86
1, 4608, Note_on_c, 9, 70, 85
1, 4608, Note_on_c, 9, 36, 116
1, 4612, Note_off_c, 2, 71, 64
1, 4668, Note_off_c, 9, 54, 0
1, 4672, Note_off_c, 9, 70, 0
1, 4680, Note_off_c, 9, 69, 0
1, 4704, Note_on_c, 9, 69, 47
1, 4764, Note_off_c, 9, 36, 0
1, 4796, Note_off_c, 9, 69, 0
1, 4800, Note_on_c, 9, 69, 56
1, 4864, Note_off_c, 9, 69, 0
1, 4896, Note_on_c, 9, 69, 43
1, 4896, Note_on_c, 9, 56, 100
1, 4920, Note_off_c, 1, 33, 0
1, 4968, Note_off_c, 9, 69, 0
1, 4992, Note_on_c, 9, 54, 87
1, 4992, Note_on_c, 9, 69, 73
1, 4992, Note_on_c, 9, 70, 83
1, 4992, Note_on_c, 9, 39, 100
1, 5044, Note_off_c, 9, 70, 0
1, 5068, Note_off_c, 9, 54, 0
1, 5076, Note_off_c, 9, 69, 0
1, 5088, Note_on_c, 9, 69, 46
1, 5120, Note_off_c, 5, 45, 100
1, 5152, Note_off_c, 9, 56, 100
1, 5168, Control_c, 2, 1, 6
1, 5168, Note_off_c, 9, 69, 0
1, 5184, Note_on_c, 5, 60, 102
1, 5184, Note_on_c, 5, 64, 99
1, 5184, Note_on_c, 5, 69, 102
1, 5184, Note_on_c, 9, 69, 62
1, 5188, Note_off_c, 9, 69, 0
1, 5192, Control_c, 2, 1, 12
1, 5216, Control_c, 2, 1, 20
1, 5240, Control_c, 2, 1, 26
1, 5248, Note_off_c, 9, 39, 100
1, 5272, Note_off_c, 5, 64, 0
1, 5276, Control_c, 2, 1, 36
1, 5276, Note_off_c, 5, 60, 0
1, 5276, Note_off_c, 5, 69, 0
1, 5280, Note_on_c, 9, 69, 48
1, 5304, Control_c, 2, 1, 44
1, 5328, Control_c, 2, 1, 49
1, 5344, Note_off_c, 9, 69, 0
1, 5360, Control_c, 2, 1, 57
1, 5376, Note_on_c, 9, 54, 86
1, 5376, Note_on_c, 9, 69, 78
1, 5376, Note_on_c, 9, 70, 85
1, 5388, Control_c, 2, 1, 64
1, 5416, Control_c, 2, 1, 71
1, 5432, Note_off_c, 9, 54, 0
1, 5432, Note_off_c, 9, 70, 0
1, 5448, Note_off_c, 2, 69, 0
1, 5448, Control_c, 2, 1, 79
1, 5464, Note_off_c, 9, 69, 0
1, 5472, Note_on_c, 9, 69, 43
1, 5480, Control_c, 2, 1, 84
1, 5508, Control_c, 2, 1, 82
1, 5548, Note_off_c, 9, 69, 0
1, 5552, Control_c, 2, 1, 62
1, 5568, Note_on_c, 1, 33, 119
1, 5568, Note_on_c, 5, 45, 100
1, 5568, Note_on_c, 9, 69, 57
1, 5568, Note_on_c, 9, 36, 116
1, 5576, Note_off_c, 9, 69, 0
1, 5580, Control_c, 2, 1, 37
1, 5608, Control_c, 2, 1, 0
1, 5664, Note_on_c, 9, 69, 49
1, 5724, Note_off_c, 9, 36, 0
1, 5740, Note_off_c, 9, 69, 0
1, 5760, Note_on_c, 5, 60, 102
1, 5760, Note_on_c, 5, 64, 99
1, 5760, Note_on_c, 5, 69, 102
1, 5760, Note_on_c, 9, 54, 85
1, 5760, Note_on_c, 9, 69, 75
1, 5760, Note_on_c, 9, 39, 100
1, 5832, Note_off_c, 9, 54, 0
1, 5844, Note_off_c, 9, 69, 0
1, 5848, Note_off_c, 5, 64, 0
1, 5852, Note_off_c, 5, 60, 0
1, 5852, Note_off_c, 5, 69, 0
1, 5856, Note_on_c, 9, 69, 48
1, 5876, Note_off_c, 5, 45, 0
1, 5880, Note_off_c, 1, 33, 0
1, 5936, Note_off_c, 9, 69, 0
1, 5952, Note_on_c, 9, 69, 56
1, 5952, Note_on_c, 9, 36, 116
1, 6016, Note_off_c, 9, 39, 100
1, 6028, Note_off_c, 9, 69, 0
1, 6048, Note_on_c, 9, 69, 50
1, 6108, Note_off_c, 9, 36, 0
1, 6116, Note_off_c, 9, 69, 0
1, 6144, Note_on_c, 1, 33, 119
1, 6144, Note_on_c, 5, 45, 100
1, 6144, Note_on_c, 9, 54, 83
1, 6144, Note_on_c, 9, 69, 86
1, 6144, Note_on_c, 9, 70, 85
1, 6144, Note_on_c, 9, 36, 116
1, 6144, Note_on_c, 9, 39, 100
1, 6204, Note_off_c, 9, 54, 0
1, 6208, Note_off_c, 9, 70, 0
1, 6216, Note_off_c, 9, 69, 0
1, 6240, Note_on_c, 9, 69, 47
1, 6300, Note_off_c, 9, 36, 0
1, 6332, Note_off_c, 9, 69, 0
1, 6336, Note_on_c, 9, 69, 56
1, 6400, Note_off_c, 9, 39, 100
1, 6400, Note_off_c, 9, 69, 0
1, 6432, Note_on_c, 9, 69, 43
1, 6432, Note_on_c, 9, 56, 100
1, 6456, Note_off_c, 1, 33, 0
1, 6504, Note_off_c, 9, 69, 0
1, 6528, Note_on_c, 9, 54, 87
1, 6528, Note_on_c, 9, 69, 73
1, 6528, Note_on_c, 9, 70, 83
1, 6528, Note_on_c, 9, 39, 100
1, 6580, Note_off_c, 9, 70, 0
1, 6604, Note_off_c, 9, 54, 0
1, 6612, Note_off_c, 9, 69, 0
1, 6624, Note_on_c, 9, 69, 46
1, 6656, Note_off_c, 5, 45, 100
1, 6688, Note_off_c, 9, 56, 100
1, 6704, Note_off_c, 9, 69, 0
1, 6720, Note_on_c, 5, 60, 102
1, 6720, Note_on_c, 5, 64, 99
1, 6720, Note_on_c, 5, 69, 102
1, 6720, Note_on_c, 9, 69, 62
1, 6724, Note_off_c, 9, 69, 0
1, 6784, Note_off_c, 9, 39, 100
1, 6808, Note_off_c, 5, 64, 0
1, 6812, Note_off_c, 5, 60, 0
1, 6812, Note_off_c, 5, 69, 0
1, 6816, Note_on_c, 9, 69, 48
1, 6880, Note_off_c, 9, 69, 0
1, 6912, Note_on_c, 9, 54, 86
1, 6912, Note_on_c, 9, 69, 78
1, 6912, Note_on_c, 9, 70, 85
1, 6968, Note_off_c, 9, 54, 0
1, 6968, Note_off_c, 9, 70, 0
1, 7000, Note_off_c, 9, 69, 0
1, 7008, Note_on_c, 9, 69, 43
1, 7084, Note_off_c, 9, 69, 0
1, 7104, Note_on_c, 1, 33, 119
1, 7104, Note_on_c, 2, 64, 110
1, 7104, Note_on_c, 5, 45, 100
1, 7104, Note_on_c, 9, 69, 57
1, 7104, Note_on_c, 9, 36, 116
1, 7112, Note_off_c, 9, 69, 0
1, 7200, Note_on_c, 9, 69, 49
1, 7260, Note_off_c, 9, 36, 0
1, 7276, Note_off_c, 9, 69, 0
1, 7280, Note_off_c, 2, 64, 0
1, 7296, Note_on_c, 2, 72, 118
1, 7296, Note_on_c, 5, 60, 102
1, 7296, Note_on_c, 5, 64, 99
1, 7296, Note_on_c, 5, 69, 102
1, 7296, Note_on_c, 9, 54, 85
1, 7296, Note_on_c, 9, 69, 75
1, 7296, Note_on_c, 9, 39, 100
1, 7368, Note_off_c, 9, 54, 0
1, 7380, Note_off_c, 9, 69, 0
1, 7384, Note_off_c, 5, 64, 0
1, 7388, Note_off_c, 5, 60, 0
1, 7388, Note_off_c, 5, 69, 0
1, 7392, Note_on_c, 9, 69, 48
1, 7412, Note_off_c, 5, 45, 0
1, 7416, Note_off_c, 1, 33, 0
1, 7448, Note_off_c, 2, 72, 0
1, 7472, Note_off_c, 9, 69, 0
1, 7488, Note_on_c, 9, 69, 56
1, 7488, Note_on_c, 9, 36, 116
1, 7488, Note_on_c, 9, 66, 79
1, 7488, Note_on_c, 9, 69, 87
1, 7488, Note_on_c, 9, 36, 121
1, 7488, Note_on_c, 9, 42, 74
1, 7536, Note_off_c, 9, 66, 0
1, 7552, Note_off_c, 9, 39, 100
1, 7556, Note_off_c, 9, 42, 0
1, 7560, Note_off_c, 9, 69, 0
1, 7564, Note_off_c, 9, 69, 0
1, 7584, Note_on_c, 2, 71, 109
1, 7584, Note_on_c, 9, 69, 50
1, 7636, Note_off_c, 9, 36, 0
1, 7644, Note_off_c, 9, 36, 0
1, 7652, Note_off_c, 9, 69, 0
1, 7680, Note_on_c, 1, 33, 119
1, 7680, Note_on_c, 2, 69, 112
1, 7680, Note_on_c, 5, 45, 100
1, 7680, Note_on_c, 9, 54, 83
1, 7680, Note_on_c, 9, 69, 86
1, 7680, Note_on_c, 9, 70, 85
1, 7680, Note_on_c, 9, 36, 116
1, 7684, Note_off_c, 2, 71, 64
1, 7740, Note_off_c, 9, 54, 0
1, 7744, Note_off_c, 9, 70, 0
1, 7752, Note_off_c, 9, 69, 0
1, 7776, Note_on_c, 9, 69, 47
1, 7836, Note_off_c, 9, 36, 0
1, 7868, Note_off_c, 9, 69, 0
1, 7872, Note_on_c, 9, 69, 56
1, 7936, Note_off_c, 9, 69, 0
1, 7968, Note_on_c, 9, 69, 43
1, 7968, Note_on_c, 9, 56, 100
1, 7992, Note_off_c, 1, 33, 0
1, 8040, Note_off_c, 9, 69, 0
1, 8064, Note_on_c, 9, 54, 87
1, 8064, Note_on_c, 9, 69, 73
1, 8064, Note_on_c, 9, 70, 83
1, 8064, Note_on_c, 9, 39, 100
1, 8116, Note_off_c, 9, 70, 0
1, 8140, Note_off_c, 9, 54, 0
1, 8148, Note_off_c, 9, 69, 0
1, 8160, Note_on_c, 9, 69, 46
1, 8192, Note_off_c, 5, 45, 100
1, 8224, Note_off_c, 9, 56, 100
1, 8240, Control_c, 2, 1, 6
1, 8240, Note_off_c, 9, 69, 0
1, 8256, Note_on_c, 5, 60, 102
1, 8256, Note_on_c, 5, 64, 99
1, 8256, Note_on_c, 5, 69, 102
1, 8256, Note_on_c, 9, 69, 62
1, 8260, Note_off_c, 9, 69, 0
1, 8264, Control_c, 2, 1, 12
1, 8288, Control_c, 2, 1, 20
1, 8312, Control_c, 2, 1, 26
1, 8320, Note_off_c, 9, 39, 100
1, 8344, Note_off_c, 5, 64, 0
1, 8348, Control_c, 2, 1, 36
1, 8348, Note_off_c, 5, 60, 0
1, 8348, Note_off_c, 5, 69, 0
1, 8352, Note_on_c, 9, 69, 48
1, 8376, Control_c, 2, 1, 44
1, 8400, Control_c, 2, 1, 49
1, 8416, Note_off_c, 9, 69, 0
1, 8432, Control_c, 2, 1, 57
1, 8448, Note_on_c, 9, 54, 86
1, 8448, Note_on_c, 9, 69, 78
1, 8448, Note_on_c, 9, 70, 85
1, 8460, Control_c, 2, 1, 64
1, 8488, Control_c, 2, 1, 71
1, 8504, Note_off_c, 9, 54, 0
1, 8504, Note_off_c, 9, 70, 0
1, 8520, Note_off_c, 2, 69, 0
1, 8520, Control_c, 2, 1, 79
1, 8536, Note_off_c, 9, 69, 0
1, 8544, Note_on_c, 9, 69, 43
1, 8552, Control_c, 2, 1, 84
1, 8580, Control_c, 2, 1, 82
1, 8620, Note_off_c, 9, 69, 0
1, 8624, Control_c, 2, 1, 62
1, 8640, Note_on_c, 1, 33, 119
1, 8640, Note_on_c, 5, 45, 100
1, 8640, Note_on_c, 9, 69, 57
1, 8640, Note_on_c, 9, 36, 116
1, 8648, Note_off_c, 9, 69, 0
1, 8652, Control_c, 2, 1, 37
1, 8680, Control_c, 2, 1, 0
1, 8736, Note_on_c, 9, 69, 49
1, 8796, Note_off_c, 9, 36, 0
1, 8812, Note_off_c, 9, 69, 0
1, 8832, Note_on_c, 5, 60, 102
1, 8832, Note_on_c, 5, 64, 99
1, 8832, Note_on_c, 5, 69, 102
1, 8832, Note_on_c, 9, 54, 85
1, 8832, Note_on_c, 9, 69, 75
1, 8832, Note_on_c, 9, 39, 100
1, 8904, Note_off_c, 9, 54, 0
1, 8916, Note_off_c, 9, 69, 0
1, 8920, Note_off_c, 5, 64, 0
1, 8924, Note_off_c, 5, 60, 0
1, 8924, Note_off_c, 5, 69, 0
1, 8928, Note_on_c, 9, 69, 48
1, 8948, Note_off_c, 5, 45, 0
1, 8952, Note_off_c, 1, 33, 0
1, 9008, Note_off_c, 9, 69, 0
1, 9024, Note_on_c, 9, 69, 56
1, 9024, Note_on_c, 9, 36, 116
1, 9088, Note_off_c, 9, 39, 100
1, 9100, Note_off_c, 9, 69, 0
1, 9120, Note_on_c, 9, 69, 50
1, 9180, Note_off_c, 9, 36, 0
1, 9188, Note_off_c, 9, 69, 0
1, 9216, Note_on_c, 1, 33, 119
1, 9216, Note_on_c, 5, 45, 100
1, 9216, Note_on_c, 9, 54, 83
1, 9216, Note_on_c, 9, 69, 86
1, 9216, Note_on_c, 9, 70, 85
1, 9216, Note_on_c, 9, 36, 116
1, 9276, Note_off_c, 9, 54, 0
1, 9280, Note_off_c, 9, 70, 0
1, 9288, Note_off_c, 9, 69, 0
1, 9312, Note_on_c, 9, 69, 47
1, 9372, Note_off_c, 9, 36, 0
1, 9404, Note_off_c, 9, 69, 0
1, 9408, Note_on_c, 9, 69, 56
1, 9472, Note_off_c, 9, 69, 0
1, 9504, Note_on_c, 9, 69, 43
1, 9504, Note_on_c, 9, 56, 100
1, 9528, Note_off_c, 1, 33, 0
1, 9576, Note_off_c, 9, 69, 0
1, 9600, Note_on_c, 9, 54, 87
1, 9600, Note_on_c, 9, 69, 73
1, 9600, Note_on_c, 9, 70, 83
1, 9600, Note_on_c, 9, 39, 100
1, 9652, Note_off_c, 9, 70, 0
1, 9676, Note_off_c, 9, 54, 0
1, 9684, Note_off_c, 9, 69, 0
1, 9696, Note_on_c, 9, 69, 46
1, 9728, Note_off_c, 5, 45, 100
1, 9760, Note_off_c, 9, 56, 100
1, 9776, Note_off_c, 9, 69, 0
1, 9792, Note_on_c, 5, 60, 102
1, 9792, Note_on_c, 5, 64, 99
1, 9792, Note_on_c, 5, 69, 102
1, 9792, Note_on_c, 9, 69, 62
1, 9796, Note_off_c, 9, 69, 0
1, 9856, Note_off_c, 9, 39, 100
1, 9880, Note_off_c, 5, 64, 0
1, 9884, Note_off_c, 5, 60, 0
1, 9884, Note_off_c, 5, 69, 0
1, 9888, Note_on_c, 9, 69, 48
1, 9952, Note_off_c, 9, 69, 0
1, 9984, Note_on_c, 9, 54, 86
1, 9984, Note_on_c, 9, 69, 78
1, 9984, Note_on_c, 9, 70, 85
1, 10040, Note_off_c, 9, 54, 0
1, 10040, Note_off_c, 9, 70, 0
1, 10072, Note_off_c, 9, 69, 0
1, 10080, Note_on_c, 9, 69, 43
1, 10156, Note_off_c, 9, 69, 0
1, 10176, Note_on_c, 1, 33, 119
1, 10176, Note_on_c, 5, 45, 100
1, 10176, Note_on_c, 9, 69, 57
1, 10176, Note_on_c, 9, 36, 116
1, 10184, Note_off_c, 9, 69, 0
1, 10272, Note_on_c, 9, 69, 49
1, 10332, Note_off_c, 9, 36, 0
1, 10348, Note_off_c, 9, 69, 0
1, 10368, Note_on_c, 5, 60, 102
1, 10368, Note_on_c, 5, 64, 99
1, 10368, Note_on_c, 5, 69, 102
1, 10368, Note_on_c, 9, 54, 85
1, 10368, Note_on_c, 9, 69, 75
1, 10368, Note_on_c, 9, 39, 100
1, 10440, Note_off_c, 9, 54, 0
1, 10452, Note_off_c, 9, 69, 0
1, 10456, Note_off_c, 5, 64, 0
1, 10460, Note_off_c, 5, 60, 0
1, 10460, Note_off_c, 5, 69, 0
1, 10464, Note_on_c, 2, 64, 110
1, 10464, Note_on_c, 9, 69, 48
1, 10484, Note_off_c, 5, 45, 0
1, 10488, Note_off_c, 1, 33, 0
1, 10544, Note_off_c, 9, 69, 0
1, 10560, Note_on_c, 2, 72, 118
1, 10560, Note_on_c, 9, 69, 56
1, 10560, Note_on_c, 9, 36, 116
1, 10624, Note_off_c, 9, 39, 100
1, 10636, Note_off_c, 9, 69, 0
1, 10640, Note_off_c, 2, 64, 0
1, 10656, Note_on_c, 2, 71, 109
1, 10656, Note_on_c, 9, 69, 50
1, 10712, Note_off_c, 2, 72, 0
1, 10716, Note_off_c, 9, 36, 0
1, 10724, Note_off_c, 9, 69, 0
1, 10752, Note_on_c, 1, 33, 119
1, 10752, Note_on_c, 2, 69, 112
1, 10752, Note_on_c, 5, 45, 100
1, 10752, Note_on_c, 9, 54, 83
1, 10752, Note_on_c, 9, 69, 86
1, 10752, Note_on_c, 9, 70, 85
1, 10752, Note_on_c, 9, 36, 116
1, 10756, Note_off_c, 2, 71, 64
1, 10812, Note_off_c, 9, 54, 0
1, 10816, Note_off_c, 9, 70, 0
1, 10824, Note_off_c, 9, 69, 0
1, 10848, Note_on_c, 9, 69, 47
1, 10908, Note_off_c, 9, 36, 0
1, 10940, Note_off_c, 9, 69, 0
1, 10944, Note_on_c, 9, 69, 56
1, 11008, Note_off_c, 9, 69, 0
1, 11040, Note_on_c, 9, 69, 43
1, 11040, Note_on_c, 9, 56, 100
1, 11064, Note_off_c, 1, 33, 0
1, 11112, Note_off_c, 9, 69, 0
1, 11136, Note_on_c, 9, 54, 87
1, 11136, Note_on_c, 9, 69, 73
1, 11136, Note_on_c, 9, 70, 83
1, 11136, Note_on_c, 9, 39, 100
1, 11188, Note_off_c, 9, 70, 0
1, 11212, Note_off_c, 9, 54, 0
1, 11220, Note_off_c, 9, 69, 0
1, 11232, Note_on_c, 9, 69, 46
1, 11264, Note_off_c, 5, 45, 100
1, 11296, Note_off_c, 9, 56, 100
1, 11312, Control_c, 2, 1, 6
1, 11312, Note_off_c, 9, 69, 0
1, 11328, Note_on_c, 5, 60, 102
1, 11328, Note_on_c, 5, 64, 99
1, 11328, Note_on_c, 5, 69, 102
1, 11328, Note_on_c, 9, 69, 62
1, 11332, Note_off_c, 9, 69, 0
1, 11336, Control_c, 2, 1, 12
1, 11360, Control_c, 2, 1, 20
1, 11384, Control_c, 2, 1, 26
1, 11392, Note_off_c, 9, 39, 100
1, 11416, Note_off_c, 5, 64, 0
1, 11420, Control_c, 2, 1, 36
1, 11420, Note_off_c, 5, 60, 0
1, 11420, Note_off_c, 5, 69, 0
1, 11424, Note_on_c, 9, 69, 48
1, 11448, Control_c, 2, 1, 44
1, 11472, Control_c, 2, 1, 49
1, 11488, Note_off_c, 9, 69, 0
1, 11504, Control_c, 2, 1, 57
1, 11520, Note_on_c, 9, 54, 86
1, 11520, Note_on_c, 9, 69, 78
1, 11520, Note_on_c, 9, 70, 85
1, 11532, Control_c, 2, 1, 64
1, 11560, Control_c, 2, 1, 71
1, 11576, Note_off_c, 9, 54, 0
1, 11576, Note_off_c, 9, 70, 0
1, 11592, Note_off_c, 2, 69, 0
1, 11592, Control_c, 2, 1, 79
1, 11608, Note_off_c, 9, 69, 0
1, 11616, Note_on_c, 9, 69, 43
1, 11624, Control_c, 2, 1, 84
1, 11652, Control_c, 2, 1, 82
1, 11692, Note_off_c, 9, 69, 0
1, 11696, Control_c, 2, 1, 62
1, 11712, Note_on_c, 1, 33, 119
1, 11712, Note_on_c, 5, 45, 100
1, 11712, Note_on_c, 9, 69, 57
1, 11712, Note_on_c, 9, 36, 116
1, 11720, Note_off_c, 9, 69, 0
1, 11724, Control_c, 2, 1, 37
1, 11752, Control_c, 2, 1, 0
1, 11808, Note_on_c, 9, 69, 49
1, 11868, Note_off_c, 9, 36, 0
1, 11884, Note_off_c, 9, 69, 0
1, 11904, Note_on_c, 5, 60, 102
1, 11904, Note_on_c, 5, 64, 99
1, 11904, Note_on_c, 5, 69, 102
1, 11904, Note_on_c, 9, 54, 85
1, 11904, Note_on_c, 9, 69, 75
1, 11904, Note_on_c, 9, 39, 100
1, 11976, Note_off_c, 9, 54, 0
1, 11988, Note_off_c, 9, 69, 0
1, 11992, Note_off_c, 5, 64, 0
1, 11996, Note_off_c, 5, 60, 0
1, 11996, Note_off_c, 5, 69, 0
1, 12000, Note_on_c, 9, 69, 48
1, 12020, Note_off_c, 5, 45, 0
1, 12024, Note_off_c, 1, 33, 0
1, 12080, Note_off_c, 9, 69, 0
1, 12096, Note_on_c, 9, 69, 56
1, 12096, Note_on_c, 9, 36, 116
1, 12160, Note_off_c, 9, 39, 100
1, 12172, Note_off_c, 9, 69, 0
1, 12192, Note_on_c, 9, 69, 50
1, 12252, Note_off_c, 9, 36, 0
1, 12260, Note_off_c, 9, 69, 0
1, 12288, Note_on_c, 1, 33, 119
1, 12288, Note_on_c, 5, 45, 100
1, 12288, Note_on_c, 9, 54, 83
1, 12288, Note_on_c, 9, 69, 86
1, 12288, Note_on_c, 9, 70, 85
1, 12288, Note_on_c, 9, 36, 116
1, 12288, Note_on_c, 9, 39, 100
1, 12348, Note_off_c, 9, 54, 0
1, 12352, Note_off_c, 9, 70, 0
1, 12360, Note_off_c, 9, 69, 0
1, 12384, Note_on_c, 9, 69, 47
1, 12444, Note_off_c, 9, 36, 0
1, 12476, Note_off_c, 9, 69, 0
1, 12480, Note_on_c, 9, 69, 56
1, 12544, Note_off_c, 9, 39, 100
1, 12544, Note_off_c, 9, 69, 0
1, 12576, Note_on_c, 9, 69, 43
1, 12576, Note_on_c, 9, 56, 100
1, 12600, Note_off_c, 1, 33, 0
1, 12648, Note_off_c, 9, 69, 0
1, 12672, Note_on_c, 9, 54, 87
1, 12672, Note_on_c, 9, 69, 73
1, 12672, Note_on_c, 9, 70, 83
1, 12672, Note_on_c, 9, 39, 100
1, 12724, Note_off_c, 9, 70, 0
1, 12748, Note_off_c, 9, 54, 0
1, 12756, Note_off_c, 9, 69, 0
1, 12768, Note_on_c, 9, 69, 46
1, 12800, Note_off_c, 5, 45, 100
1, 12832, Note_off_c, 9, 56, 100
1, 12848, Note_off_c, 9, 69, 0
1, 12864, Note_on_c, 5, 60, 102
1, 12864, Note_on_c, 5, 64, 99
1, 12864, Note_on_c, 5, 69, 102
1, 12864, Note_on_c, 9, 69, 62
1, 12868, Note_off_c, 9, 69, 0
1, 12928, Note_off_c, 9, 39, 100
1, 12952, Note_off_c, 5, 64, 0
1, 12956, Note_off_c, 5, 60, 0
1, 12956, Note_off_c, 5, 69, 0
1, 12960, Note_on_c, 9, 69, 48
1, 13024, Note_off_c, 9, 69, 0
1, 13056, Note_on_c, 9, 54, 86
1, 13056, Note_on_c, 9, 69, 78
1, 13056, Note_on_c, 9, 70, 85
1, 13112, Note_off_c, 9, 54, 0
1, 13112, Note_off_c, 9, 70, 0
1, 13144, Note_off_c, 9, 69, 0
1, 13152, Note_on_c, 9, 69, 43
1, 13228, Note_off_c, 9, 69, 0
1, 13248, Note_on_c, 1, 33, 119
1, 13248, Note_on_c, 2, 64, 110
1, 13248, Note_on_c, 5, 45, 100
1, 13248, Note_on_c, 9, 69, 57
1, 13248, Note_on_c, 9, 36, 116
1, 13256, Note_off_c, 9, 69, 0
1, 13344, Note_on_c, 9, 69, 49
1, 13404, Note_off_c, 9, 36, 0
1, 13420, Note_off_c, 9, 69, 0
1, 13424, Note_off_c, 2, 64, 0
1, 13440, Note_on_c, 2, 72, 118
1, 13440, Note_on_c, 5, 60, 102
1, 13440, Note_on_c, 5, 64, 99
1, 13440, Note_on_c, 5, 69, 102
1, 13440, Note_on_c, 9, 54, 85
1, 13440, Note_on_c, 9, 69, 75
1, 13440, Note_on_c, 9, 39, 100
1, 13512, Note_off_c, 9, 54, 0
1, 13524, Note_off_c, 9, 69, 0
1, 13528, Note_off_c, 5, 64, 0
1, 13532, Note_off_c, 5, 60, 0
1, 13532, Note_off_c, 5, 69, 0
1, 13536, Note_on_c, 9, 69, 48
1, 13556, Note_off_c, 5, 45, 0
1, 13560, Note_off_c, 1, 33, 0
1, 13592, Note_off_c, 2, 72, 0
1, 13616, Note_off_c, 9, 69, 0
1, 13632, Note_on_c, 9, 69, 56
1, 13632, Note_on_c, 9, 36, 116
1, 13632, Note_on_c, 9, 66, 79
1, 13632, Note_on_c, 9, 69, 87
1, 13632, Note_on_c, 9, 36, 121
1, 13632, Note_on_c, 9, 42, 74
1, 13680, Note_off_c, 9, 66, 0
1, 13696, Note_off_c, 9, 39, 100
1, 13700, Note_off_c, 9, 42, 0
1, 13704, Note_off_c, 9, 69, 0
1, 13708, Note_off_c, 9, 69, 0
1, 13728, Note_on_c, 2, 71, 109
1, 13728, Note_on_c, 9, 69, 50
1, 13780, Note_off_c, 9, 36, 0
1, 13788, Note_off_c, 9, 36, 0
1, 13796, Note_off_c, 9, 69, 0
1, 13824, Note_on_c, 1, 38, 100
1, 13824, Note_on_c, 2, 69, 112
1, 13824, Note_on_c, 5, 50, 100
1, 13824, Note_on_c, 9, 54, 83
1, 13824, Note_on_c, 9, 69, 86
1, 13824, Note_on_c, 9, 70, 85
1, 13824, Note_on_c, 9, 36, 116
1, 13828, Note_off_c, 2, 71, 64
1, 13884, Note_off_c, 9, 54, 0
1, 13888, Note_off_c, 9, 70, 0
1, 13896, Note_off_c, 9, 69, 0
1, 13920, Note_on_c, 9, 69, 47
1, 13980, Note_off_c, 9, 36, 0
1, 14012, Note_off_c, 9, 69, 0
1, 14016, Note_on_c, 9, 69, 56
1, 14080, Note_off_c, 1, 38, 100
1, 14080, Note_off_c, 9, 69, 0
1, 14112, Note_on_c, 9, 69, 43
1, 14112, Note_on_c, 9, 56, 100
1, 14132, Note_off_c, 5, 50, 0
1, 14184, Note_off_c, 9, 69, 0
1, 14208, Note_on_c, 9, 54, 87
1, 14208, Note_on_c, 9, 69, 73
1, 14208, Note_on_c, 9, 70, 83
1, 14208, Note_on_c, 9, 39, 100
1, 14260, Note_off_c, 9, 70, 0
1, 14284, Note_off_c, 9, 54, 0
1, 14292, Note_off_c, 9, 69, 0
1, 14304, Note_on_c, 9, 69, 46
1, 14368, Note_off_c, 9, 56, 100
1, 14384, Control_c, 2, 1, 6
1, 14384, Note_off_c, 9, 69, 0
1, 14400, Note_on_c, 5, 65, 102
1, 14400, Note_on_c, 5, 69, 99
1, 14400, Note_on_c, 5, 74, 102
1, 14400, Note_on_c, 9, 69, 62
1, 14404, Note_off_c, 9, 69, 0
1, 14408, Control_c, 2, 1, 12
1, 14432, Control_c, 2, 1, 20
1, 14456, Control_c, 2, 1, 26
1, 14464, Note_off_c, 9, 39, 100
1, 14488, Note_off_c, 5, 69, 0
1, 14492, Control_c, 2, 1, 36
1, 14492, Note_off_c, 5, 65, 0
1, 14492, Note_off_c, 5, 74, 0
1, 14496, Note_on_c, 9, 69, 48
1, 14520, Control_c, 2, 1, 44
1, 14544, Control_c, 2, 1, 49
1, 14560, Note_off_c, 9, 69, 0
1, 14576, Control_c, 2, 1, 57
1, 14592, Note_on_c, 9, 54, 86
1, 14592, Note_on_c, 9, 69, 78
1, 14592, Note_on_c, 9, 70, 85
1, 14604, Control_c, 2, 1, 64
1, 14632, Control_c, 2, 1, 71
1, 14648, Note_off_c, 9, 54, 0
1, 14648, Note_off_c, 9, 70, 0
1, 14664, Note_off_c, 2, 69, 0
1, 14664, Control_c, 2, 1, 79
1, 14680, Note_off_c, 9, 69, 0
1, 14688, Note_on_c, 9, 69, 43
1, 14696, Control_c, 2, 1, 84
1, 14724, Control_c, 2, 1, 82
1, 14764, Note_off_c, 9, 69, 0
1, 14768, Control_c, 2, 1, 62
1, 14784, Note_on_c, 1, 38, 100
1, 14784, Note_on_c, 5, 50, 100
1, 14784, Note_on_c, 9, 69, 57
1, 14784, Note_on_c, 9, 36, 116
1, 14792, Note_off_c, 9, 69, 0
1, 14796, Control_c, 2, 1, 37
1, 14824, Control_c, 2, 1, 0
1, 14880, Note_on_c, 9, 69, 49
1, 14940, Note_off_c, 9, 36, 0
1, 14956, Note_off_c, 9, 69, 0
1, 14976, Note_on_c, 5, 65, 102
1, 14976, Note_on_c, 5, 69, 99
1, 14976, Note_on_c, 5, 74, 102
1, 14976, Note_on_c, 9, 54, 85
1, 14976, Note_on_c, 9, 69, 75
1, 14976, Note_on_c, 9, 39, 100
1, 15040, Note_off_c, 1, 38, 100
1, 15048, Note_off_c, 9, 54, 0
1, 15060, Note_off_c, 9, 69, 0
1, 15064, Note_off_c, 5, 69, 0
1, 15068, Note_off_c, 5, 65, 0
1, 15068, Note_off_c, 5, 74, 0
1, 15072, Note_on_c, 9, 69, 48
1, 15092, Note_off_c, 5, 50, 0
1, 15152, Note_off_c, 9, 69, 0
1, 15168, Note_on_c, 9, 69, 56
1, 15168, Note_on_c, 9, 36, 116
1, 15232, Note_off_c, 9, 39, 100
1, 15244, Note_off_c, 9, 69, 0
1, 15264, Note_on_c, 9, 69, 50
1, 15324, Note_off_c, 9, 36, 0
1, 15332, Note_off_c, 9, 69, 0
1, 15360, Note_on_c, 1, 38, 100
1, 15360, Note_on_c, 5, 50, 100
1, 15360, Note_on_c, 9, 54, 83
1, 15360, Note_on_c, 9, 69, 86
1, 15360, Note_on_c, 9, 70, 85
1, 15360, Note_on_c, 9, 36, 116
1, 15420, Note_off_c, 9, 54, 0
1, 15424, Note_off_c, 9, 70, 0
1, 15432, Note_off_c, 9, 69, 0
1, 15456, Note_on_c, 9, 69, 47
1, 15516, Note_off_c, 9, 36, 0
1, 15548, Note_off_c, 9, 69, 0
1, 15552, Note_on_c, 9, 69, 56
1, 15616, Note_off_c, 1, 38, 100
1, 15616, Note_off_c, 9, 69, 0
1, 15648, Note_on_c, 9, 69, 43
1, 15648, Note_on_c, 9, 56, 100
1, 15668, Note_off_c, 5, 50, 0
1, 15720, Note_off_c, 9, 69, 0
1, 15744, Note_on_c, 9, 54, 87
1, 15744, Note_on_c, 9, 69, 73
1, 15744, Note_on_c, 9, 70, 83
1, 15744, Note_on_c, 9, 39, 100
1, 15796, Note_off_c, 9, 70, 0
1, 15820, Note_off_c, 9, 54, 0
1, 15828, Note_off_c, 9, 69, 0
1, 15840, Note_on_c, 9, 69, 46
1, 15904, Note_off_c, 9, 56, 100
1, 15920, Note_off_c, 9, 69, 0
1, 15936, Note_on_c, 5, 65, 102
1, 15936, Note_on_c, 5, 69, 99
1, 15936, Note_on_c, 5, 74, 102
1, 15936, Note_on_c, 9, 69, 62
1, 15940, Note_off_c, 9, 69, 0
1, 16000, Note_off_c, 9, 39, 100
1, 16024, Note_off_c, 5, 69, 0
1, 16028, Note_off_c, 5, 65, 0
1, 16028, Note_off_c, 5, 74, 0
1, 16032, Note_on_c, 9, 69, 48
1, 16096, Note_off_c, 9, 69, 0
1, 16128, Note_on_c, 9, 54, 86
1, 16128, Note_on_c, 9, 69, 78
1, 16128, Note_on_c, 9, 70, 85
1, 16184, Note_off_c, 9, 54, 0
1, 16184, Note_off_c, 9, 70, 0
1, 16216, Note_off_c, 9, 69, 0
1, 16224, Note_on_c, 9, 69, 43
1, 16300, Note_off_c, 9, 69, 0
1, 16320, Note_on_c, 1, 38, 100
1, 16320, Note_on_c, 5, 50, 100
1, 16320, Note_on_c, 9, 69, 57
1, 16320, Note_on_c, 9, 36, 116
1, 16328, Note_off_c, 9, 69, 0
1, 16416, Note_on_c, 9, 69, 49
1, 16476, Note_off_c, 9, 36, 0
1, 16492, Note_off_c, 9, 69, 0
1, 16512, Note_on_c, 5, 65, 102
1, 16512, Note_on_c, 5, 69, 99
1, 16512, Note_on_c, 5, 74, 102
1, 16512, Note_on_c, 9, 54, 85
1, 16512, Note_on_c, 9, 69, 75
1, 16512, Note_on_c, 9, 39, 100
1, 16576, Note_off_c, 1, 38, 100
1, 16584, Note_off_c, 9, 54, 0
1, 16596, Note_off_c, 9, 69, 0
1, 16600, Note_off_c, 5, 69, 0
1, 16604, Note_off_c, 5, 65, 0
1, 16604, Note_off_c, 5, 74, 0
1, 16608, Note_on_c, 2, 64, 110
1, 16608, Note_on_c, 9, 69, 48
1, 16628, Note_off_c, 5, 50, 0
1, 16688, Note_off_c, 9, 69, 0
1, 16704, Note_on_c, 2, 72, 118
1, 16704, Note_on_c, 9, 69, 56
1, 16704, Note_on_c, 9, 36, 116
1, 16768, Note_off_c, 9, 39, 100
1, 16780, Note_off_c, 9, 69, 0
1, 16784, Note_off_c, 2, 64, 0
1, 16800, Note_on_c, 2, 71, 109
1, 16800, Note_on_c, 9, 69, 50
1, 16856, Note_off_c, 2, 72, 0
1, 16860, Note_off_c, 9, 36, 0
1, 16868, Note_off_c, 9, 69, 0
1, 16896, Note_on_c, 1, 33, 119
1, 16896, Note_on_c, 2, 69, 112
1, 16896, Note_on_c, 5, 45, 100
1, 16896, Note_on_c, 9, 54, 83
1, 16896, Note_on_c, 9, 69, 86
1, 16896, Note_on_c, 9, 70, 85
1, 16896, Note_on_c, 9, 36, 116
1, 16900, Note_off_c, 2, 71, 64
1, 16956, Note_off_c, 9, 54, 0
1, 16960, Note_off_c, 9, 70, 0
1, 16968, Note_off_c, 9, 69, 0
1, 16992, Note_on_c, 9, 69, 47
1, 17052, Note_off_c, 9, 36, 0
1, 17084, Note_off_c, 9, 69, 0
1, 17088, Note_on_c, 9, 69, 56
1, 17152, Note_off_c, 9, 69, 0
1, 17184, Note_on_c, 9, 69, 43
1, 17184, Note_on_c, 9, 56, 100
1, 17208, Note_off_c, 1, 33, 0
1, 17256, Note_off_c, 9, 69, 0
1, 17280, Note_on_c, 9, 54, 87
1, 17280, Note_on_c, 9, 69, 73
1, 17280, Note_on_c, 9, 70, 83
1, 17280, Note_on_c, 9, 39, 100
1, 17332, Note_off_c, 9, 70, 0
1, 17356, Note_off_c, 9, 54, 0
1, 17364, Note_off_c, 9, 69, 0
1, 17376, Note_on_c, 9, 69, 46
1, 17408, Note_off_c, 5, 45, 100
1, 17440, Note_off_c, 9, 56, 100
1, 17456, Control_c, 2, 1, 6
1, 17456, Note_off_c, 9, 69, 0
1, 17472, Note_on_c, 5, 60, 102
1, 17472, Note_on_c, 5, 64, 99
1, 17472, Note_on_c, 5, 69, 102
1, 17472, Note_on_c, 9, 69, 62
1, 17476, Note_off_c, 9, 69, 0
1, 17480, Control_c, 2, 1, 12
1, 17504, Control_c, 2, 1, 20
1, 17528, Control_c, 2, 1, 26
1, 17536, Note_off_c, 9, 39, 100
1, 17560, Note_off_c, 5, 64, 0
1, 17564, Control_c, 2, 1, 36
1, 17564, Note_off_c, 5, 60, 0
1, 17564, Note_off_c, 5, 69, 0
1, 17568, Note_on_c, 9, 69, 48
1, 17592, Control_c, 2, 1, 44
1, 17616, Control_c, 2, 1, 49
1, 17632, Note_off_c, 9, 69, 0
1, 17648, Control_c, 2, 1, 57
1, 17664, Note_on_c, 9, 54, 86
1, 17664, Note_on_c, 9, 69, 78
1, 17664, Note_on_c, 9, 70, 85
1, 17676, Control_c, 2, 1, 64
1, 17704, Control_c, 2, 1, 71
1, 17720, Note_off_c, 9, 54, 0
1, 17720, Note_off_c, 9, 70, 0
1, 17736, Note_off_c, 2, 69, 0
1, 17736, Control_c, 2, 1, 79
1, 17752, Note_off_c, 9, 69, 0
1, 17760, Note_on_c, 9, 69, 43
1, 17768, Control_c, 2, 1, 84
1, 17796, Control_c, 2, 1, 82
1, 17836, Note_off_c, 9, 69, 0
1, 17840, Control_c, 2, 1, 62
1, 17856, Note_on_c, 1, 33, 119
1, 17856, Note_on_c, 5, 45, 100
1, 17856, Note_on_c, 9, 69, 57
1, 17856, Note_on_c, 9, 36, 116
1, 17864, Note_off_c, 9, 69, 0
1, 17868, Control_c, 2, 1, 37
1, 17896, Control_c, 2, 1, 0
1, 17952, Note_on_c, 9, 69, 49
1, 18012, Note_off_c, 9, 36, 0
1, 18028, Note_off_c, 9, 69, 0
1, 18048, Note_on_c, 5, 60, 102
1, 18048, Note_on_c, 5, 64, 99
1, 18048, Note_on_c, 5, 69, 102
1, 18048, Note_on_c, 9, 54, 85
1, 18048, Note_on_c, 9, 69, 75
1, 18048, Note_on_c, 9, 39, 100
1, 18120, Note_off_c, 9, 54, 0
1, 18132, Note_off_c, 9, 69, 0
1, 18136, Note_off_c, 5, 64, 0
1, 18140, Note_off_c, 5, 60, 0
1, 18140, Note_off_c, 5, 69, 0
1, 18144, Note_on_c, 9, 69, 48
1, 18164, Note_off_c, 5, 45, 0
1, 18168, Note_off_c, 1, 33, 0
1, 18224, Note_off_c, 9, 69, 0
1, 18240, Note_on_c, 9, 69, 56
1, 18240, Note_on_c, 9, 36, 116
1, 18304, Note_off_c, 9, 39, 100
1, 18316, Note_off_c, 9, 69, 0
1, 18336, Note_on_c, 9, 69, 50
1, 18396, Note_off_c, 9, 36, 0
1, 18404, Note_off_c, 9, 69, 0
1, 18432, Note_on_c, 1, 33, 119
1, 18432, Note_on_c, 5, 45, 100
1, 18432, Note_on_c, 9, 54, 83
1, 18432, Note_on_c, 9, 69, 86
1, 18432, Note_on_c, 9, 70, 85
1, 18432, Note_on_c, 9, 36, 116
1, 18432, Note_on_c, 9, 39, 100
1, 18492, Note_off_c, 9, 54, 0
1, 18496, Note_off_c, 9, 70, 0
1, 18504, Note_off_c, 9, 69, 0
1, 18528, Note_on_c, 9, 69, 47
1, 18588, Note_off_c, 9, 36, 0
1, 18620, Note_off_c, 9, 69, 0
1, 18624, Note_on_c, 9, 69, 56
1, 18688, Note_off_c, 9, 39, 100
1, 18688, Note_off_c, 9, 69, 0
1, 18720, Note_on_c, 9, 69, 43
1, 18720, Note_on_c, 9, 56, 100
1, 18744, Note_off_c, 1, 33, 0
1, 18792, Note_off_c, 9, 69, 0
1, 18816, Note_on_c, 9, 54, 87
1, 18816, Note_on_c, 9, 69, 73
1, 18816, Note_on_c, 9, 70, 83
1, 18816, Note_on_c, 9, 39, 100
1, 18868, Note_off_c, 9, 70, 0
1, 18892, Note_off_c, 9, 54, 0
1, 18900, Note_off_c, 9, 69, 0
1, 18912, Note_on_c, 9, 69, 46
1, 18944, Note_off_c, 5, 45, 100
1, 18976, Note_off_c, 9, 56, 100
1, 18992, Note_off_c, 9, 69, 0
1, 19008, Note_on_c, 5, 60, 102
1, 19008, Note_on_c, 5, 64, 99
1, 19008, Note_on_c, 5, 69, 102
1, 19008, Note_on_c, 9, 69, 62
1, 19012, Note_off_c, 9, 69, 0
1, 19072, Note_off_c, 9, 39, 100
1, 19096, Note_off_c, 5, 64, 0
1, 19100, Note_off_c, 5, 60, 0
1, 19100, Note_off_c, 5, 69, 0
1, 19104, Note_on_c, 9, 69, 48
1, 19168, Note_off_c, 9, 69, 0
1, 19200, Note_on_c, 9, 54, 86
1, 19200, Note_on_c, 9, 69, 78
1, 19200, Note_on_c, 9, 70, 85
1, 19256, Note_off_c, 9, 54, 0
1, 19256, Note_off_c, 9, 70, 0
1, 19288, Note_off_c, 9, 69, 0
1, 19296, Note_on_c, 9, 69, 43
1, 19372, Note_off_c, 9, 69, 0
1, 19392, Note_on_c, 1, 33, 119
1, 19392, Note_on_c, 2, 64, 110
1, 19392, Note_on_c, 5, 45, 100
1, 19392, Note_on_c, 9, 69, 57
1, 19392, Note_on_c, 9, 36, 116
1, 19400, Note_off_c, 9, 69, 0
1, 19488, Note_on_c, 9, 69, 49
1, 19548, Note_off_c, 9, 36, 0
1, 19564, Note_off_c, 9, 69, 0
1, 19568, Note_off_c, 2, 64, 0
1, 19584, Note_on_c, 2, 72, 118
1, 19584, Note_on_c, 5, 60, 102
1, 19584, Note_on_c, 5, 64, 99
1, 19584, Note_on_c, 5, 69, 102
1, 19584, Note_on_c, 9, 54, 85
1, 19584, Note_on_c, 9, 69, 75
1, 19584, Note_on_c, 9, 39, 100
1, 19656, Note_off_c, 9, 54, 0
1, 19668, Note_off_c, 9, 69, 0
1, 19672, Note_off_c, 5, 64, 0
1, 19676, Note_off_c, 5, 60, 0
1, 19676, Note_off_c, 5, 69, 0
1, 19680, Note_on_c, 9, 69, 48
1, 19700, Note_off_c, 5, 45, 0
1, 19704, Note_off_c, 1, 33, 0
1, 19736, Note_off_c, 2, 72, 0
1, 19760, Note_off_c, 9, 69, 0
1, 19776, Note_on_c, 9, 69, 56
1, 19776, Note_on_c, 9, 36, 116
1, 19776, Note_on_c, 9, 66, 79
1, 19776, Note_on_c, 9, 69, 87
1, 19776, Note_on_c, 9, 36, 121
1, 19776, Note_on_c, 9, 42, 74
1, 19824, Note_off_c, 9, 66, 0
1, 19840, Note_off_c, 9, 39, 100
1, 19844, Note_off_c, 9, 42, 0
1, 19848, Note_off_c, 9, 69, 0
1, 19852, Note_off_c, 9, 69, 0
1, 19872, Note_on_c, 2, 71, 109
1, 19872, Note_on_c, 9, 69, 50
1, 19924, Note_off_c, 9, 36, 0
1, 19932, Note_off_c, 9, 36, 0
1, 19940, Note_off_c, 9, 69, 0
1, 19968, Note_on_c, 1, 33, 119
1, 19968, Note_on_c, 2, 69, 112
1, 19968, Note_on_c, 5, 45, 100
1, 19968, Note_on_c, 9, 54, 83
1, 19968, Note_on_c, 9, 69, 86
1, 19968, Note_on_c, 9, 70, 85
1, 19968, Note_on_c, 9, 36, 116
1, 19972, Note_off_c, 2, 71, 64
1, 20028, Note_off_c, 9, 54, 0
1, 20032, Note_off_c, 9, 70, 0
1, 20040, Note_off_c, 9, 69, 0
1, 20064, Note_on_c, 9, 69, 47
1, 20124, Note_off_c, 9, 36, 0
1, 20156, Note_off_c, 9, 69, 0
1, 20160, Note_on_c, 9, 69, 56
1, 20224, Note_off_c, 9, 69, 0
1, 20256, Note_on_c, 9, 69, 43
1, 20256, Note_on_c, 9, 56, 100
1, 20280, Note_off_c, 1, 33, 0
1, 20328, Note_off_c, 9, 69, 0
1, 20352, Note_on_c, 9, 54, 87
1, 20352, Note_on_c, 9, 69, 73
1, 20352, Note_on_c, 9, 70, 83
1, 20352, Note_on_c, 9, 39, 100
1, 20404, Note_off_c, 9, 70, 0
1, 20428, Note_off_c, 9, 54, 0
1, 20436, Note_off_c, 9, 69, 0
1, 20448, Note_on_c, 9, 69, 46
1, 20480, Note_off_c, 5, 45, 100
1, 20512, Note_off_c, 9, 56, 100
1, 20528, Control_c, 2, 1, 6
1, 20528, Note_off_c, 9, 69, 0
1, 20544, Note_on_c, 5, 60, 102
1, 20544, Note_on_c, 5, 64, 99
1, 20544, Note_on_c, 5, 69, 102
1, 20544, Note_on_c, 9, 69, 62
1, 20548, Note_off_c, 9, 69, 0
1, 20552, Control_c, 2, 1, 12
1, 20576, Control_c, 2, 1, 20
1, 20600, Control_c, 2, 1, 26
1, 20608, Note_off_c, 9, 39, 100
1, 20632, Note_off_c, 5, 64, 0
1, 20636, Control_c, 2, 1, 36
1, 20636, Note_off_c, 5, 60, 0
1, 20636, Note_off_c, 5, 69, 0
1, 20640, Note_on_c, 9, 69, 48
1, 20664, Control_c, 2, 1, 44
1, 20688, Control_c, 2, 1, 49
1, 20704, Note_off_c, 9, 69, 0
1, 20720, Control_c, 2, 1, 57
1, 20736, Note_on_c, 9, 54, 86
1, 20736, Note_on_c, 9, 69, 78
1, 20736, Note_on_c, 9, 70, 85
1, 20748, Control_c, 2, 1, 64
1, 20776, Control_c, 2, 1, 71
1, 20792, Note_off_c, 9, 54, 0
1, 20792, Note_off_c, 9, 70, 0
1, 20808, Note_off_c, 2, 69, 0
1, 20808, Control_c, 2, 1, 79
1, 20824, Note_off_c, 9, 69, 0
1, 20832, Note_on_c, 9, 69, 43
1, 20840, Control_c, 2, 1, 84
1, 20868, Control_c, 2, 1, 82
1, 20908, Note_off_c, 9, 69, 0
1, 20912, Control_c, 2, 1, 62
1, 20928, Note_on_c, 1, 33, 119
1, 20928, Note_on_c, 5, 45, 100
1, 20928, Note_on_c, 9, 69, 57
1, 20928, Note_on_c, 9, 36, 116
1, 20936, Note_off_c, 9, 69, 0
1, 20940, Control_c, 2, 1, 37
1, 20968, Control_c, 2, 1, 0
1, 21024, Note_on_c, 9, 69, 49
1, 21084, Note_off_c, 9, 36, 0
1, 21100, Note_off_c, 9, 69, 0
1, 21120, Note_on_c, 5, 60, 102
1, 21120, Note_on_c, 5, 64, 99
1, 21120, Note_on_c, 5, 69, 102
1, 21120, Note_on_c, 9, 54, 85
1, 21120, Note_on_c, 9, 69, 75
1, 21120, Note_on_c, 9, 39, 100
1, 21192, Note_off_c, 9, 54, 0
1, 21204, Note_off_c, 9, 69, 0
1, 21208, Note_off_c, 5, 64, 0
1, 21212, Note_off_c, 5, 60, 0
1, 21212, Note_off_c, 5, 69, 0
1, 21216, Note_on_c, 9, 69, 48
1, 21236, Note_off_c, 5, 45, 0
1, 21240, Note_off_c, 1, 33, 0
1, 21296, Note_off_c, 9, 69, 0
1, 21312, Note_on_c, 9, 69, 56
1, 21312, Note_on_c, 9, 36, 116
1, 21376, Note_off_c, 9, 39, 100
1, 21388, Note_off_c, 9, 69, 0
1, 21408, Note_on_c, 9, 69, 50
1, 21468, Note_off_c, 9, 36, 0
1, 21476, Note_off_c, 9, 69, 0
1, 21504, Note_on_c, 1, 33, 119
1, 21504, Note_on_c, 5, 45, 100
1, 21504, Note_on_c, 9, 54, 83
1, 21504, Note_on_c, 9, 69, 86
1, 21504, Note_on_c, 9, 70, 85
1, 21504, Note_on_c, 9, 36, 116
1, 21564, Note_off_c, 9, 54, 0
1, 21568, Note_off_c, 9, 70, 0
1, 21576, Note_off_c, 9, 69, 0
1, 21600, Note_on_c, 9, 69, 47
1, 21660, Note_off_c, 9, 36, 0
1, 21692, Note_off_c, 9, 69, 0
1, 21696, Note_on_c, 9, 69, 56
1, 21760, Note_off_c, 9, 69, 0
1, 21792, Note_on_c, 9, 69, 43
1, 21792, Note_on_c, 9, 56, 100
1, 21816, Note_off_c, 1, 33, 0
1, 21864, Note_off_c, 9, 69, 0
1, 21888, Note_on_c, 9, 54, 87
1, 21888, Note_on_c, 9, 69, 73
1, 21888, Note_on_c, 9, 70, 83
1, 21888, Note_on_c, 9, 39, 100
1, 21940, Note_off_c, 9, 70, 0
1, 21964, Note_off_c, 9, 54, 0
1, 21972, Note_off_c, 9, 69, 0
1, 21984, Note_on_c, 9, 69, 46
1, 22016, Note_off_c, 5, 45, 100
1, 22048, Note_off_c, 9, 56, 100
1, 22064, Note_off_c, 9, 69, 0
1, 22080, Note_on_c, 5, 60, 102
1, 22080, Note_on_c, 5, 64, 99
1, 22080, Note_on_c, 5, 69, 102
1, 22080, Note_on_c, 9, 69, 62
1, 22084, Note_off_c, 9, 69, 0
1, 22144, Note_off_c, 9, 39, 100
1, 22168, Note_off_c, 5, 64, 0
1, 22172, Note_off_c, 5, 60, 0
1, 22172, Note_off_c, 5, 69, 0
1, 22176, Note_on_c, 9, 69, 48
1, 22240, Note_off_c, 9, 69, 0
1, 22272, Note_on_c, 9, 54, 86
1, 22272, Note_on_c, 9, 69, 78
1, 22272, Note_on_c, 9, 70, 85
1, 22328, Note_off_c, 9, 54, 0
1, 22328, Note_off_c, 9, 70, 0
1, 22360, Note_off_c, 9, 69, 0
1, 22368, Note_on_c, 9, 69, 43
1, 22444, Note_off_c, 9, 69, 0
1, 22464, Note_on_c, 1, 33, 119
1, 22464, Note_on_c, 5, 45, 100
1, 22464, Note_on_c, 9, 69, 57
1, 22464, Note_on_c, 9, 36, 116
1, 22472, Note_off_c, 9, 69, 0
1, 22560, Note_on_c, 9, 69, 49
1, 22620, Note_off_c, 9, 36, 0
1, 22636, Note_off_c, 9, 69, 0
1, 22656, Note_on_c, 5, 60, 102
1, 22656, Note_on_c, 5, 64, 99
1, 22656, Note_on_c, 5, 69, 102
1, 22656, Note_on_c, 9, 54, 85
1, 22656, Note_on_c, 9, 69, 75
1, 22656, Note_on_c, 9, 39, 100
1, 22728, Note_off_c, 9, 54, 0
1, 22740, Note_off_c, 9, 69, 0
1, 22744, Note_off_c, 5, 64, 0
1, 22748, Note_off_c, 5, 60, 0
1, 22748, Note_off_c, 5, 69, 0
1, 22752, Note_on_c, 2, 64, 110
1, 22752, Note_on_c, 9, 69, 48
1, 22772, Note_off_c, 5, 45, 0
1, 22776, Note_off_c, 1, 33, 0
1, 22832, Note_off_c, 9, 69, 0
1, 22848, Note_on_c, 2, 72, 118
1, 22848, Note_on_c, 9, 69, 56
1, 22848, Note_on_c, 9, 36, 116
1, 22912, Note_off_c, 9, 39, 100
1, 22924, Note_off_c, 9, 69, 0
1, 22928, Note_off_c, 2, 64, 0
1, 22944, Note_on_c, 2, 71, 109
1, 22944, Note_on_c, 9, 69, 50
1, 23000, Note_off_c, 2, 72, 0
1, 23004, Note_off_c, 9, 36, 0
1, 23012, Note_off_c, 9, 69, 0
1, 23040, Note_on_c, 1, 33, 119
1, 23040, Note_on_c, 2, 69, 112
1, 23040, Note_on_c, 5, 45, 100
1, 23040, Note_on_c, 9, 54, 83
1, 23040, Note_on_c, 9, 69, 86
1, 23040, Note_on_c, 9, 70, 85
1, 23040, Note_on_c, 9, 36, 116
1, 23044, Note_off_c, 2, 71, 64
1, 23100, Note_off_c, 9, 54, 0
1, 23104, Note_off_c, 9, 70, 0
1, 23112, Note_off_c, 9, 69, 0
1, 23136, Note_on_c, 9, 69, 47
1, 23196, Note_off_c, 9, 36, 0
1, 23228, Note_off_c, 9, 69, 0
1, 23232, Note_on_c, 9, 69, 56
1, 23296, Note_off_c, 9, 69, 0
1, 23328, Note_on_c, 9, 69, 43
1, 23328, Note_on_c, 9, 56, 100
1, 23352, Note_off_c, 1, 33, 0
1, 23400, Note_off_c, 9, 69, 0
1, 23424, Note_on_c, 9, 54, 87
1, 23424, Note_on_c, 9, 69, 73
1, 23424, Note_on_c, 9, 70, 83
1, 23424, Note_on_c, 9, 39, 100
1, 23476, Note_off_c, 9, 70, 0
1, 23500, Note_off_c, 9, 54, 0
1, 23508, Note_off_c, 9, 69, 0
1, 23520, Note_on_c, 9, 69, 46
1, 23552, Note_off_c, 5, 45, 100
1, 23584, Note_off_c, 9, 56, 100
1, 23600, Control_c, 2, 1, 6
1, 23600, Note_off_c, 9, 69, 0
1, 23616, Note_on_c, 5, 60, 102
1, 23616, Note_on_c, 5, 64, 99
1, 23616, Note_on_c, 5, 69, 102
1, 23616, Note_on_c, 9, 69, 62
1, 23620, Note_off_c, 9, 69, 0
1, 23624, Control_c, 2, 1, 12
1, 23648, Control_c, 2, 1, 20
1, 23672, Control_c, 2, 1, 26
1, 23680, Note_off_c, 9, 39, 100
1, 23704, Note_off_c, 5, 64, 0
1, 23708, Control_c, 2, 1, 36
1, 23708, Note_off_c, 5, 60, 0
1, 23708, Note_off_c, 5, 69, 0
1, 23712, Note_on_c, 9, 69, 48
1, 23736, Control_c, 2, 1, 44
1, 23760, Control_c, 2, 1, 49
1, 23776, Note_off_c, 9, 69, 0
1, 23792, Control_c, 2, 1, 57
1, 23808, Note_on_c, 9, 54, 86
1, 23808, Note_on_c, 9, 69, 78
1, 23808, Note_on_c, 9, 70, 85
1, 23820, Control_c, 2, 1, 64
1, 23848, Control_c, 2, 1, 71
1, 23864, Note_off_c, 9, 54, 0
1, 23864, Note_off_c, 9, 70, 0
1, 23880, Note_off_c, 2, 69, 0
1, 23880, Control_c, 2, 1, 79
1, 23896, Note_off_c, 9, 69, 0
1, 23904, Note_on_c, 9, 69, 43
1, 23912, Control_c, 2, 1, 84
1, 23940, Control_c, 2, 1, 82
1, 23980, Note_off_c, 9, 69, 0
1, 23984, Control_c, 2, 1, 62
1, 24000, Note_on_c, 1, 33, 119
1, 24000, Note_on_c, 5, 45, 100
1, 24000, Note_on_c, 9, 69, 57
1, 24000, Note_on_c, 9, 36, 116
1, 24008, Note_off_c, 9, 69, 0
1, 24012, Control_c, 2, 1, 37
1, 24040, Control_c, 2, 1, 0
1, 24096, Note_on_c, 9, 69, 49
1, 24156, Note_off_c, 9, 36, 0
1, 24172, Note_off_c, 9, 69, 0
1, 24192, Note_on_c, 5, 60, 102
1, 24192, Note_on_c, 5, 64, 99
1, 24192, Note_on_c, 5, 69, 102
1, 24192, Note_on_c, 9, 54, 85
1, 24192, Note_on_c, 9, 69, 75
1, 24192, Note_on_c, 9, 39, 100
1, 24264, Note_off_c, 9, 54, 0
1, 24276, Note_off_c, 9, 69, 0
1, 24280, Note_off_c, 5, 64, 0
1, 24284, Note_off_c, 5, 60, 0
1, 24284, Note_off_c, 5, 69, 0
1, 24288, Note_on_c, 9, 69, 48
1, 24308, Note_off_c, 5, 45, 0
1, 24312, Note_off_c, 1, 33, 0
1, 24368, Note_off_c, 9, 69, 0
1, 24384, Note_on_c, 9, 69, 56
1, 24384, Note_on_c, 9, 36, 116
1, 24448, Note_off_c, 9, 39, 100
1, 24460, Note_off_c, 9, 69, 0
1, 24480, Note_on_c, 9, 69, 50
1, 24540, Note_off_c, 9, 36, 0
1, 24548, Note_off_c, 9, 69, 0
1, 24576, Note_on_c, 1, 33, 119
1, 24576, Note_on_c, 5, 45, 100
1, 24576, Note_on_c, 9, 54, 83
1, 24576, Note_on_c, 9, 69, 86
1, 24576, Note_on_c, 9, 70, 85
1, 24576, Note_on_c, 9, 36, 116
1, 24576, Note_on_c, 9, 39, 100
1, 24636, Note_off_c, 9, 54, 0
1, 24640, Note_off_c, 9, 70, 0
1, 24648, Note_off_c, 9, 69, 0
1, 24672, Note_on_c, 9, 69, 47
1, 24732, Note_off_c, 9, 36, 0
1, 24764, Note_off_c, 9, 69, 0
1, 24768, Note_on_c, 9, 69, 56
1, 24832, Note_off_c, 9, 39, 100
1, 24832, Note_off_c, 9, 69, 0
1, 24864, Note_on_c, 9, 69, 43
1, 24864, Note_on_c, 9, 56, 100
1, 24888, Note_off_c, 1, 33, 0
1, 24936, Note_off_c, 9, 69, 0
1, 24960, Note_on_c, 9, 54, 87
1, 24960, Note_on_c, 9, 69, 73
1, 24960, Note_on_c, 9, 70, 83
1, 24960, Note_on_c, 9, 39, 100
1, 25012, Note_off_c, 9, 70, 0
1, 25036, Note_off_c, 9, 54, 0
1, 25044, Note_off_c, 9, 69, 0
1, 25056, Note_on_c, 9, 69, 46
1, 25088, Note_off_c, 5, 45, 100
1, 25120, Note_off_c, 9, 56, 100
1, 25136, Note_off_c, 9, 69, 0
1, 25152, Note_on_c, 5, 60, 102
1, 25152, Note_on_c, 5, 64, 99
1, 25152, Note_on_c, 5, 69, 102
1, 25152, Note_on_c, 9, 69, 62
1, 25156, Note_off_c, 9, 69, 0
1, 25216, Note_off_c, 9, 39, 100
1, 25240, Note_off_c, 5, 64, 0
1, 25244, Note_off_c, 5, 60, 0
1, 25244, Note_off_c, 5, 69, 0
1, 25248, Note_on_c, 9, 69, 48
1, 25312, Note_off_c, 9, 69, 0
1, 25344, Note_on_c, 9, 54, 86
1, 25344, Note_on_c, 9, 69, 78
1, 25344, Note_on_c, 9, 70, 85
1, 25400, Note_off_c, 9, 54, 0
1, 25400, Note_off_c, 9, 70, 0
1, 25432, Note_off_c, 9, 69, 0
1, 25440, Note_on_c, 9, 69, 43
1, 25516, Note_off_c, 9, 69, 0
1, 25536, Note_on_c, 1, 33, 119
1, 25536, Note_on_c, 2, 64, 110
1, 25536, Note_on_c, 5, 45, 100
1, 25536, Note_on_c, 9, 69, 57
1, 25536, Note_on_c, 9, 36, 116
1, 25544, Note_off_c, 9, 69, 0
1, 25632, Note_on_c, 9, 69, 49
1, 25692, Note_off_c, 9, 36, 0
1, 25708, Note_off_c, 9, 69, 0
1, 25712, Note_off_c, 2, 64, 0
1, 25728, Note_on_c, 2, 72, 118
1, 25728, Note_on_c, 5, 60, 102
1, 25728, Note_on_c, 5, 64, 99
1, 25728, Note_on_c, 5, 69, 102
1, 25728, Note_on_c, 9, 54, 85
1, 25728, Note_on_c, 9, 69, 75
1, 25728, Note_on_c, 9, 39, 100
1, 25800, Note_off_c, 9, 54, 0
1, 25812, Note_off_c, 9, 69, 0
1, 25816, Note_off_c, 5, 64, 0
1, 25820, Note_off_c, 5, 60, 0
1, 25820, Note_off_c, 5, 69, 0
1, 25824, Note_on_c, 9, 69, 48
1, 25844, Note_off_c, 5, 45, 0
1, 25848, Note_off_c, 1, 33, 0
1, 25880, Note_off_c, 2, 72, 0
1, 25904, Note_off_c, 9, 69, 0
1, 25920, Note_on_c, 9, 69, 56
1, 25920, Note_on_c, 9, 36, 116
1, 25920, Note_on_c, 9, 66, 79
1, 25920, Note_on_c, 9, 69, 87
1, 25920, Note_on_c, 9, 36, 121
1, 25920, Note_on_c, 9, 42, 74
1, 25968, Note_off_c, 9, 66, 0
1, 25984, Note_off_c, 9, 39, 100
1, 25988, Note_off_c, 9, 42, 0
1, 25992, Note_off_c, 9, 69, 0
1, 25996, Note_off_c, 9, 69, 0
1, 26016, Note_on_c, 2, 71, 109
1, 26016, Note_on_c, 9, 69, 50
1, 26068, Note_off_c, 9, 36, 0
1, 26076, Note_off_c, 9, 36, 0
1, 26084, Note_off_c, 9, 69, 0
1, 26112, Note_on_c, 1, 33, 119
1, 26112, Note_on_c, 2, 69, 112
1, 26112, Note_on_c, 5, 45, 100
1, 26112, Note_on_c, 9, 54, 83
1, 26112, Note_on_c, 9, 69, 86
1, 26112, Note_on_c, 9, 70, 85
1, 26112, Note_on_c, 9, 36, 116
1, 26116, Note_off_c, 2, 71, 64
1, 26172, Note_off_c, 9, 54, 0
1, 26176, Note_off_c, 9, 70, 0
1, 26184, Note_off_c, 9, 69, 0
1, 26208, Note_on_c, 9, 69, 47
1, 26268, Note_off_c, 9, 36, 0
1, 26300, Note_off_c, 9, 69, 0
1, 26304, Note_on_c, 9, 69, 56
1, 26368, Note_off_c, 9, 69, 0
1, 26400, Note_on_c, 9, 69, 43
1, 26400, Note_on_c, 9, 56, 100
1, 26424, Note_off_c, 1, 33, 0
1, 26472, Note_off_c, 9, 69, 0
1, 26496, Note_on_c, 9, 54, 87
1, 26496, Note_on_c, 9, 69, 73
1, 26496, Note_on_c, 9, 70, 83
1, 26496, Note_on_c, 9, 39, 100
1, 26548, Note_off_c, 9, 70, 0
1, 26572, Note_off_c, 9, 54, 0
1, 26580, Note_off_c, 9, 69, 0
1, 26592, Note_on_c, 9, 69, 46
1, 26624, Note_off_c, 5, 45, 100
1, 26656, Note_off_c, 9, 56, 100
1, 26672, Control_c, 2, 1, 6
1, 26672, Note_off_c, 9, 69, 0
1, 26688, Note_on_c, 5, 60, 102
1, 26688, Note_on_c, 5, 64, 99
1, 26688, Note_on_c, 5, 69, 102
1, 26688, Note_on_c, 9, 69, 62
1, 26692, Note_off_c, 9, 69, 0
1, 26696, Control_c, 2, 1, 12
1, 26720, Control_c, 2, 1, 20
1, 26744, Control_c, 2, 1, 26
1, 26752, Note_off_c, 9, 39, 100
1, 26776, Note_off_c, 5, 64, 0
1, 26780, Control_c, 2, 1, 36
1, 26780, Note_off_c, 5, 60, 0
1, 26780, Note_off_c, 5, 69, 0
1, 26784, Note_on_c, 9, 69, 48
1, 26808, Control_c, 2, 1, 44
1, 26832, Control_c, 2, 1, 49
1, 26848, Note_off_c, 9, 69, 0
1, 26864, Control_c, 2, 1, 57
1, 26880, Note_on_c, 9, 54, 86
1, 26880, Note_on_c, 9, 69, 78
1, 26880, Note_on_c, 9, 70, 85
1, 26892, Control_c, 2, 1, 64
1, 26920, Control_c, 2, 1, 71
1, 26936, Note_off_c, 9, 54, 0
1, 26936, Note_off_c, 9, 70, 0
1, 26952, Note_off_c, 2, 69, 0
1, 26952, Control_c, 2, 1, 79
1, 26968, Note_off_c, 9, 69, 0
1, 26976, Note_on_c, 9, 69, 43
1, 26984, Control_c, 2, 1, 84
1, 27012, Control_c, 2, 1, 82
1, 27052, Note_off_c, 9, 69, 0
1, 27056, Control_c, 2, 1, 62
1, 27072, Note_on_c, 1, 33, 119
1, 27072, Note_on_c, 5, 45, 100
1, 27072, Note_on_c, 9, 69, 57
1, 27072, Note_on_c, 9, 36, 116
1, 27080, Note_off_c, 9, 69, 0
1, 27084, Control_c, 2, 1, 37
1, 27112, Control_c, 2, 1, 0
1, 27168, Note_on_c, 9, 69, 49
1, 27228, Note_off_c, 9, 36, 0
1, 27244, Note_off_c, 9, 69, 0
1, 27264, Note_on_c, 5, 60, 102
1, 27264, Note_on_c, 5, 64, 99
1, 27264, Note_on_c, 5, 69, 102
1, 27264, Note_on_c, 9, 54, 85
1, 27264, Note_on_c, 9, 69, 75
1, 27264, Note_on_c, 9, 39, 100
1, 27336, Note_off_c, 9, 54, 0
1, 27348, Note_off_c, 9, 69, 0
1, 27352, Note_off_c, 5, 64, 0
1, 27356, Note_off_c, 5, 60, 0
1, 27356, Note_off_c, 5, 69, 0
1, 27360, Note_on_c, 9, 69, 48
1, 27380, Note_off_c, 5, 45, 0
1, 27384, Note_off_c, 1, 33, 0
1, 27440, Note_off_c, 9, 69, 0
1, 27456, Note_on_c, 9, 69, 56
1, 27456, Note_on_c, 9, 36, 116
1, 27520, Note_off_c, 9, 39, 100
1, 27532, Note_off_c, 9, 69, 0
1, 27552, Note_on_c, 9, 69, 50
1, 27612, Note_off_c, 9, 36, 0
1, 27620, Note_off_c, 9, 69, 0
1, 27648, Note_on_c, 1, 33, 119
1, 27648, Note_on_c, 5, 45, 100
1, 27648, Note_on_c, 9, 54, 83
1, 27648, Note_on_c, 9, 69, 86
1, 27648, Note_on_c, 9, 70, 85
1, 27648, Note_on_c, 9, 36, 116
1, 27708, Note_off_c, 9, 54, 0
1, 27712, Note_off_c, 9, 70, 0
1, 27720, Note_off_c, 9, 69, 0
1, 27744, Note_on_c, 9, 69, 47
1, 27804, Note_off_c, 9, 36, 0
1, 27836, Note_off_c, 9, 69, 0
1, 27840, Note_on_c, 9, 69, 56
1, 27904, Note_off_c, 9, 69, 0
1, 27936, Note_on_c, 9, 69, 43
1, 27936, Note_on_c, 9, 56, 100
1, 27960, Note_off_c, 1, 33, 0
1, 28008, Note_off_c, 9, 69, 0
1, 28032, Note_on_c, 9, 54, 87
1, 28032, Note_on_c, 9, 69, 73
1, 28032, Note_on_c, 9, 70, 83
1, 28032, Note_on_c, 9, 39, 100
1, 28084, Note_off_c, 9, 70, 0
1, 28108, Note_off_c, 9, 54, 0
1, 28116, Note_off_c, 9, 69, 0
1, 28128, Note_on_c, 9, 69, 46
1, 28160, Note_off_c, 5, 45, 100
1, 28192, Note_off_c, 9, 56, 100
1, 28208, Note_off_c, 9, 69, 0
1, 28224, Note_on_c, 5, 60, 102
1, 28224, Note_on_c, 5, 64, 99
1, 28224, Note_on_c, 5, 69, 102
1, 28224, Note_on_c, 9, 69, 62
1, 28228, Note_off_c, 9, 69, 0
1, 28288, Note_off_c, 9, 39, 100
1, 28312, Note_off_c, 5, 64, 0
1, 28316, Note_off_c, 5, 60, 0
1, 28316, Note_off_c, 5, 69, 0
1, 28320, Note_on_c, 9, 69, 48
1, 28384, Note_off_c, 9, 69, 0
1, 28416, Note_on_c, 9, 54, 86
1, 28416, Note_on_c, 9, 69, 78
1, 28416, Note_on_c, 9, 70, 85
1, 28472, Note_off_c, 9, 54, 0
1, 28472, Note_off_c, 9, 70, 0
1, 28504, Note_off_c, 9, 69, 0
1, 28512, Note_on_c, 9, 69, 43
1, 28588, Note_off_c, 9, 69, 0
1, 28608, Note_on_c, 1, 33, 119
1, 28608, Note_on_c, 5, 45, 100
1, 28608, Note_on_c, 9, 69, 57
1, 28608, Note_on_c, 9, 36, 116
1, 28616, Note_off_c, 9, 69, 0
1, 28704, Note_on_c, 9, 69, 49
1, 28764, Note_off_c, 9, 36, 0
1, 28780, Note_off_c, 9, 69, 0
1, 28800, Note_on_c, 5, 60, 102
1, 28800, Note_on_c, 5, 64, 99
1, 28800, Note_on_c, 5, 69, 102
1, 28800, Note_on_c, 9, 54, 85
1, 28800, Note_on_c, 9, 69, 75
1, 28800, Note_on_c, 9, 39, 100
1, 28872, Note_off_c, 9, 54, 0
1, 28884, Note_off_c, 9, 69, 0
1, 28888, Note_off_c, 5, 64, 0
1, 28892, Note_off_c, 5, 60, 0
1, 28892, Note_off_c, 5, 69, 0
1, 28896, Note_on_c, 2, 64, 110
1, 28896, Note_on_c, 9, 69, 48
1, 28916, Note_off_c, 5, 45, 0
1, 28920, Note_off_c, 1, 33, 0
1, 28976, Note_off_c, 9, 69, 0
1, 28992, Note_on_c, 2, 72, 118
1, 28992, Note_on_c, 9, 69, 56
1, 28992, Note_on_c, 9, 36, 116
1, 29056, Note_off_c, 9, 39, 100
1, 29068, Note_off_c, 9, 69, 0
1, 29072, Note_off_c, 2, 64, 0
1, 29088, Note_on_c, 2, 71, 109
1, 29088, Note_on_c, 9, 69, 50
1, 29144, Note_off_c, 2, 72, 0
1, 29148, Note_off_c, 9, 36, 0
1, 29156, Note_off_c, 9, 69, 0
1, 29184, Note_on_c, 1, 33, 119
1, 29184, Note_on_c, 2, 69, 112
1, 29184, Note_on_c, 5, 45, 100
1, 29184, Note_on_c, 9, 54, 83
1, 29184, Note_on_c, 9, 69, 86
1, 29184, Note_on_c, 9, 70, 85
1, 29184, Note_on_c, 9, 36, 116
1, 29188, Note_off_c, 2, 71, 64
1, 29244, Note_off_c, 9, 54, 0
1, 29248, Note_off_c, 9, 70, 0
1, 29256, Note_off_c, 9, 69, 0
1, 29280, Note_on_c, 9, 69, 47
1, 29340, Note_off_c, 9, 36, 0
1, 29372, Note_off_c, 9, 69, 0
1, 29376, Note_on_c, 9, 69, 56
1, 29440, Note_off_c, 9, 69, 0
1, 29472, Note_on_c, 9, 69, 43
1, 29472, Note_on_c, 9, 56, 100
1, 29496, Note_off_c, 1, 33, 0
1, 29544, Note_off_c, 9, 69, 0
1, 29568, Note_on_c, 9, 54, 87
1, 29568, Note_on_c, 9, 69, 73
1, 29568, Note_on_c, 9, 70, 83
1, 29568, Note_on_c, 9, 39, 100
1, 29620, Note_off_c, 9, 70, 0
1, 29644, Note_off_c, 9, 54, 0
1, 29652, Note_off_c, 9, 69, 0
1, 29664, Note_on_c, 9, 69, 46
1, 29696, Note_off_c, 5, 45, 100
1, 29728, Note_off_c, 9, 56, 100
1, 29744, Control_c, 2, 1, 6
1, 29744, Note_off_c, 9, 69, 0
1, 29760, Note_on_c, 5, 60, 102
1, 29760, Note_on_c, 5, 64, 99
1, 29760, Note_on_c, 5, 69, 102
1, 29760, Note_on_c, 9, 69, 62
1, 29764, Note_off_c, 9, 69, 0
1, 29768, Control_c, 2, 1, 12
1, 29792, Control_c, 2, 1, 20
1, 29816, Control_c, 2, 1, 26
1, 29824, Note_off_c, 9, 39, 100
1, 29848, Note_off_c, 5, 64, 0
1, 29852, Control_c, 2, 1, 36
1, 29852, Note_off_c, 5, 60, 0
1, 29852, Note_off_c, 5, 69, 0
1, 29856, Note_on_c, 9, 69, 48
1, 29880, Control_c, 2, 1, 44
1, 29904, Control_c, 2, 1, 49
1, 29920, Note_off_c, 9, 69, 0
1, 29936, Control_c, 2, 1, 57
1, 29952, Note_on_c, 9, 54, 86
1, 29952, Note_on_c, 9, 69, 78
1, 29952, Note_on_c, 9, 70, 85
1, 29964, Control_c, 2, 1, 64
1, 29992, Control_c, 2, 1, 71
1, 30008, Note_off_c, 9, 54, 0
1, 30008, Note_off_c, 9, 70, 0
1, 30024, Note_off_c, 2, 69, 0
1, 30024, Control_c, 2, 1, 79
1, 30040, Note_off_c, 9, 69, 0
1, 30048, Note_on_c, 9, 69, 43
1, 30056, Control_c, 2, 1, 84
1, 30084, Control_c, 2, 1, 82
1, 30124, Note_off_c, 9, 69, 0
1, 30128, Control_c, 2, 1, 62
1, 30144, Note_on_c, 1, 33, 119
1, 30144, Note_on_c, 5, 45, 100
1, 30144, Note_on_c, 9, 69, 57
1, 30144, Note_on_c, 9, 36, 116
1, 30152, Note_off_c, 9, 69, 0
1, 30156, Control_c, 2, 1, 37
1, 30184, Control_c, 2, 1, 0
1, 30240, Note_on_c, 9, 69, 49
1, 30300, Note_off_c, 9, 36, 0
1, 30316, Note_off_c, 9, 69, 0
1, 30336, Note_on_c, 5, 60, 102
1, 30336, Note_on_c, 5, 64, 99
1, 30336, Note_on_c, 5, 69, 102
1, 30336, Note_on_c, 9, 54, 85
1, 30336, Note_on_c, 9, 69, 75
1, 30336, Note_on_c, 9, 39, 100
1, 30408, Note_off_c, 9, 54, 0
1, 30420, Note_off_c, 9, 69, 0
1, 30424, Note_off_c, 5, 64, 0
1, 30428, Note_off_c, 5, 60, 0
1, 30428, Note_off_c, 5, 69, 0
1, 30432, Note_on_c, 9, 69, 48
1, 30452, Note_off_c, 5, 45, 0
1, 30456, Note_off_c, 1, 33, 0
1, 30512, Note_off_c, 9, 69, 0
1, 30528, Note_on_c, 9, 69, 56
1, 30528, Note_on_c, 9, 36, 116
1, 30592, Note_off_c, 9, 39, 100
1, 30604, Note_off_c, 9, 69, 0
1, 30624, Note_on_c, 9, 69, 50
1, 30684, Note_off_c, 9, 36, 0
1, 30692, Note_off_c, 9, 69, 0
1, 30720, Note_on_c, 1, 33, 119
1, 30720, Note_on_c, 5, 45, 100
1, 30720, Note_on_c, 9, 54, 83
1, 30720, Note_on_c, 9, 69, 86
1, 30720, Note_on_c, 9, 70, 85
1, 30720, Note_on_c, 9, 36, 116
1, 30720, Note_on_c, 9, 39, 100
1, 30780, Note_off_c, 9, 54, 0
1, 30784, Note_off_c, 9, 70, 0
1, 30792, Note_off_c, 9, 69, 0
1, 30816, Note_on_c, 9, 69, 47
1, 30876, Note_off_c, 9, 36, 0
1, 30908, Note_off_c, 9, 69, 0
1, 30912, Note_on_c, 9, 69, 56
1, 30976, Note_off_c, 9, 39, 100
1, 30976, Note_off_c, 9, 69, 0
1, 31008, Note_on_c, 9, 69, 43
1, 31008, Note_on_c, 9, 56, 100
1, 31032, Note_off_c, 1, 33, 0
1, 31080, Note_off_c, 9, 69, 0
1, 31104, Note_on_c, 9, 54, 87
1, 31104, Note_on_c, 9, 69, 73
1, 31104, Note_on_c, 9, 70, 83
1, 31104, Note_on_c, 9, 39, 100
1, 31156, Note_off_c, 9, 70, 0
1, 31180, Note_off_c, 9, 54, 0
1, 31188, Note_off_c, 9, 69, 0
1, 31200, Note_on_c, 9, 69, 46
1, 31232, Note_off_c, 5, 45, 100
1, 31264, Note_off_c, 9, 56, 100
1, 31280, Note_off_c, 9, 69, 0
1, 31296, Note_on_c, 5, 60, 102
1, 31296, Note_on_c, 5, 64, 99
1, 31296, Note_on_c, 5, 69, 102
1, 31296, Note_on_c, 9, 69, 62
1, 31300, Note_off_c, 9, 69, 0
1, 31360, Note_off_c, 9, 39, 100
1, 31384, Note_off_c, 5, 64, 0
1, 31388, Note_off_c, 5, 60, 0
1, 31388, Note_off_c, 5, 69, 0
1, 31392, Note_on_c, 9, 69, 48
1, 31456, Note_off_c, 9, 69, 0
1, 31488, Note_on_c, 9, 54, 86
1, 31488, Note_on_c, 9, 69, 78
1, 31488, Note_on_c, 9, 70, 85
1, 31544, Note_off_c, 9, 54, 0
1, 31544, Note_off_c, 9, 70, 0
1, 31576, Note_off_c, 9, 69, 0
1, 31584, Note_on_c, 9, 69, 43
1, 31660, Note_off_c, 9, 69, 0
1, 31680, Note_on_c, 1, 33, 119
1, 31680, Note_on_c, 2, 64, 110
1, 31680, Note_on_c, 5, 45, 100
1, 31680, Note_on_c, 9, 69, 57
1, 31680, Note_on_c, 9, 36, 116
1, 31688, Note_off_c, 9, 69, 0
1, 31776, Note_on_c, 9, 69, 49
1, 31836, Note_off_c, 9, 36, 0
1, 31852, Note_off_c, 9, 69, 0
1, 31856, Note_off_c, 2, 64, 0
1, 31872, Note_on_c, 2, 72, 118
1, 31872, Note_on_c, 5, 60, 102
1, 31872, Note_on_c, 5, 64, 99
1, 31872, Note_on_c, 5, 69, 102
1, 31872, Note_on_c, 9, 54, 85
1, 31872, Note_on_c, 9, 69, 75
1, 31872, Note_on_c, 9, 39, 100
1, 31944, Note_off_c, 9, 54, 0
1, 31956, Note_off_c, 9, 69, 0
1, 31960, Note_off_c, 5, 64, 0
1, 31964, Note_off_c, 5, 60, 0
1, 31964, Note_off_c, 5, 69, 0
1, 31968, Note_on_c, 9, 69, 48
1, 31988, Note_off_c, 5, 45, 0
1, 31992, Note_off_c, 1, 33, 0
1, 32024, Note_off_c, 2, 72, 0
1, 32048, Note_off_c, 9, 69, 0
1, 32064, Note_on_c, 9, 69, 56
1, 32064, Note_on_c, 9, 36, 116
1, 32064, Note_on_c, 9, 66, 79
1, 32064, Note_on_c, 9, 69, 87
1, 32064, Note_on_c, 9, 36, 121
1, 32064, Note_on_c, 9, 42, 74
1, 32112, Note_off_c, 9, 66, 0
1, 32128, Note_off_c, 9, 39, 100
1, 32132, Note_off_c, 9, 42, 0
1, 32136, Note_off_c, 9, 69, 0
1, 32140, Note_off_c, 9, 69, 0
1, 32160, Note_on_c, 2, 71, 109
1, 32160, Note_on_c, 9, 69, 50
1, 32212, Note_off_c, 9, 36, 0
1, 32220, Note_off_c, 9, 36, 0
1, 32228, Note_off_c, 9, 69, 0
1, 32256, Note_on_c, 1, 38, 100
1, 32256, Note_on_c, 2, 69, 112
1, 32256, Note_on_c, 5, 50, 100
1, 32256, Note_on_c, 9, 54, 83
1, 32256, Note_on_c, 9, 69, 86
1, 32256, Note_on_c, 9, 70, 85
1, 32256, Note_on_c, 9, 36, 116
1, 32260, Note_off_c, 2, 71, 64
1, 32316, Note_off_c, 9, 54, 0
1, 32320, Note_off_c, 9, 70, 0
1, 32328, Note_off_c, 9, 69, 0
1, 32352, Note_on_c, 9, 69, 47
1, 32412, Note_off_c, 9, 36, 0
1, 32444, Note_off_c, 9, 69, 0
1, 32448, Note_on_c, 9, 69, 56
1, 32512, Note_off_c, 1, 38, 100
1, 32512, Note_off_c, 9, 69, 0
1, 32544, Note_on_c, 9, 69, 43
1, 32544, Note_on_c, 9, 56, 100
1, 32564, Note_off_c, 5, 50, 0
1, 32616, Note_off_c, 9, 69, 0
1, 32640, Note_on_c, 9, 54, 87
1, 32640, Note_on_c, 9, 69, 73
1, 32640, Note_on_c, 9, 70, 83
1, 32640, Note_on_c, 9, 39, 100
1, 32692, Note_off_c, 9, 70, 0
1, 32716, Note_off_c, 9, 54, 0
1, 32724, Note_off_c, 9, 69, 0
1, 32736, Note_on_c, 9, 69, 46
1, 32800, Note_off_c, 9, 56, 100
1, 32816, Control_c, 2, 1, 6
1, 32816, Note_off_c, 9, 69, 0
1, 32832, Note_on_c, 5, 65, 102
1, 32832, Note_on_c, 5, 69, 99
1, 32832, Note_on_c, 5, 74, 102
1, 32832, Note_on_c, 9, 69, 62
1, 32836, Note_off_c, 9, 69, 0
1, 32840, Control_c, 2, 1, 12
1, 32864, Control_c, 2, 1, 20
1, 32888, Control_c, 2, 1, 26
1, 32896, Note_off_c, 9, 39, 100
1, 32920, Note_off_c, 5, 69, 0
1, 32924, Control_c, 2, 1, 36
1, 32924, Note_off_c, 5, 65, 0
1, 32924, Note_off_c, 5, 74, 0
1, 32928, Note_on_c, 9, 69, 48
1, 32952, Control_c, 2, 1, 44
1, 32976, Control_c, 2, 1, 49
1, 32992, Note_off_c, 9, 69, 0
1, 33008, Control_c, 2, 1, 57
1, 33024, Note_on_c, 9, 54, 86
1, 33024, Note_on_c, 9, 69, 78
1, 33024, Note_on_c, 9, 70, 85
1, 33036, Control_c, 2, 1, 64
1, 33064, Control_c, 2, 1, 71
1, 33080, Note_off_c, 9, 54, 0
1, 33080, Note_off_c, 9, 70, 0
1, 33096, Note_off_c, 2, 69, 0
1, 33096, Control_c, 2, 1, 79
1, 33112, Note_off_c, 9, 69, 0
1, 33120, Note_on_c, 9, 69, 43
1, 33128, Control_c, 2, 1, 84
1, 33156, Control_c, 2, 1, 82
1, 33196, Note_off_c, 9, 69, 0
1, 33200, Control_c, 2, 1, 62
1, 33216, Note_on_c, 1, 38, 100
1, 33216, Note_on_c, 5, 50, 100
1, 33216, Note_on_c, 9, 69, 57
1, 33216, Note_on_c, 9, 36, 116
1, 33224, Note_off_c, 9, 69, 0
1, 33228, Control_c, 2, 1, 37
1, 33256, Control_c, 2, 1, 0
1, 33312, Note_on_c, 9, 69, 49
1, 33372, Note_off_c, 9, 36, 0
1, 33388, Note_off_c, 9, 69, 0
1, 33408, Note_on_c, 5, 65, 102
1, 33408, Note_on_c, 5, 69, 99
1, 33408, Note_on_c, 5, 74, 102
1, 33408, Note_on_c, 9, 54, 85
1, 33408, Note_on_c, 9, 69, 75
1, 33408, Note_on_c, 9, 39, 100
1, 33472, Note_off_c, 1, 38, 100
1, 33480, Note_off_c, 9, 54, 0
1, 33492, Note_off_c, 9, 69, 0
1, 33496, Note_off_c, 5, 69, 0
1, 33500, Note_off_c, 5, 65, 0
1, 33500, Note_off_c, 5, 74, 0
1, 33504, Note_on_c, 9, 69, 48
1, 33524, Note_off_c, 5, 50, 0
1, 33584, Note_off_c, 9, 69, 0
1, 33600, Note_on_c, 9, 69, 56
1, 33600, Note_on_c, 9, 36, 116
1, 33664, Note_off_c, 9, 39, 100
1, 33676, Note_off_c, 9, 69, 0
1, 33696, Note_on_c, 9, 69, 50
1, 33756, Note_off_c, 9, 36, 0
1, 33764, Note_off_c, 9, 69, 0
1, 33792, Note_on_c, 1, 38, 100
1, 33792, Note_on_c, 5, 50, 100
1, 33792, Note_on_c, 9, 54, 83
1, 33792, Note_on_c, 9, 69, 86
1, 33792, Note_on_c, 9, 70, 85
1, 33792, Note_on_c, 9, 36, 116
1, 33852, Note_off_c, 9, 54, 0
1, 33856, Note_off_c, 9, 70, 0
1, 33864, Note_off_c, 9, 69, 0
1, 33888, Note_on_c, 9, 69, 47
1, 33948, Note_off_c, 9, 36, 0
1, 33980, Note_off_c, 9, 69, 0
1, 33984, Note_on_c, 9, 69, 56
1, 34048, Note_off_c, 1, 38, 100
1, 34048, Note_off_c, 9, 69, 0
1, 34080, Note_on_c, 9, 69, 43
1, 34080, Note_on_c, 9, 56, 100
1, 34100, Note_off_c, 5, 50, 0
1, 34152, Note_off_c, 9, 69, 0
1, 34176, Note_on_c, 9, 54, 87
1, 34176, Note_on_c, 9, 69, 73
1, 34176, Note_on_c, 9, 70, 83
1, 34176, Note_on_c, 9, 39, 100
1, 34228, Note_off_c, 9, 70, 0
1, 34252, Note_off_c, 9, 54, 0
1, 34260, Note_off_c, 9, 69, 0
1, 34272, Note_on_c, 9, 69, 46
1, 34336, Note_off_c, 9, 56, 100
1, 34352, Note_off_c, 9, 69, 0
1, 34368, Note_on_c, 5, 65, 102
1, 34368, Note_on_c, 5, 69, 99
1, 34368, Note_on_c, 5, 74, 102
1, 34368, Note_on_c, 9, 69, 62
1, 34372, Note_off_c, 9, 69, 0
1, 34432, Note_off_c, 9, 39, 100
1, 34456, Note_off_c, 5, 69, 0
1, 34460, Note_off_c, 5, 65, 0
1, 34460, Note_off_c, 5, 74, 0
1, 34464, Note_on_c, 9, 69, 48
1, 34528, Note_off_c, 9, 69, 0
1, 34560, Note_on_c, 9, 54, 86
1, 34560, Note_on_c, 9, 69, 78
1, 34560, Note_on_c, 9, 70, 85
1, 34616, Note_off_c, 9, 54, 0
1, 34616, Note_off_c, 9, 70, 0
1, 34648, Note_off_c, 9, 69, 0
1, 34656, Note_on_c, 9, 69, 43
1, 34732, Note_off_c, 9, 69, 0
1, 34752, Note_on_c, 1, 38, 100
1, 34752, Note_on_c, 5, 50, 100
1, 34752, Note_on_c, 9, 69, 57
1, 34752, Note_on_c, 9, 36, 116
1, 34760, Note_off_c, 9, 69, 0
1, 34848, Note_on_c, 9, 69, 49
1, 34908, Note_off_c, 9, 36, 0
1, 34924, Note_off_c, 9, 69, 0
1, 34944, Note_on_c, 5, 65, 102
1, 34944, Note_on_c, 5, 69, 99
1, 34944, Note_on_c, 5, 74, 102
1, 34944, Note_on_c, 9, 54, 85
1, 34944, Note_on_c, 9, 69, 75
1, 34944, Note_on_c, 9, 39, 100
1, 35008, Note_off_c, 1, 38, 100
1, 35016, Note_off_c, 9, 54, 0
1, 35028, Note_off_c, 9, 69, 0
1, 35032, Note_off_c, 5, 69, 0
1, 35036, Note_off_c, 5, 65, 0
1, 35036, Note_off_c, 5, 74, 0
1, 35040, Note_on_c, 2, 64, 110
1, 35040, Note_on_c, 9, 69, 48
1, 35060, Note_off_c, 5, 50, 0
1, 35120, Note_off_c, 9, 69, 0
1, 35136, Note_on_c, 2, 72, 118
1, 35136, Note_on_c, 9, 69, 56
1, 35136, Note_on_c, 9, 36, 116
1, 35200, Note_off_c, 9, 39, 100
1, 35212, Note_off_c, 9, 69, 0
1, 35216, Note_off_c, 2, 64, 0
1, 35232, Note_on_c, 2, 71, 109
1, 35232, Note_on_c, 9, 69, 50
1, 35288, Note_off_c, 2, 72, 0
1, 35292, Note_off_c, 9, 36, 0
1, 35300, Note_off_c, 9, 69, 0
1, 35328, Note_on_c, 1, 33, 119
1, 35328, Note_on_c, 2, 69, 112
1, 35328, Note_on_c, 5, 45, 100
1, 35328, Note_on_c, 9, 54, 83
1, 35328, Note_on_c, 9, 69, 86
1, 35328, Note_on_c, 9, 70, 85
1, 35328, Note_on_c, 9, 36, 116
1, 35332, Note_off_c, 2, 71, 64
1, 35388, Note_off_c, 9, 54, 0
1, 35392, Note_off_c, 9, 70, 0
1, 35400, Note_off_c, 9, 69, 0
1, 35424, Note_on_c, 9, 69, 47
1, 35484, Note_off_c, 9, 36, 0
1, 35516, Note_off_c, 9, 69, 0
1, 35520, Note_on_c, 9, 69, 56
1, 35584, Note_off_c, 9, 69, 0
1, 35616, Note_on_c, 9, 69, 43
1, 35616, Note_on_c, 9, 56, 100
1, 35640, Note_off_c, 1, 33, 0
1, 35688, Note_off_c, 9, 69, 0
1, 35712, Note_on_c, 9, 54, 87
1, 35712, Note_on_c, 9, 69, 73
1, 35712, Note_on_c, 9, 70, 83
1, 35712, Note_on_c, 9, 39, 100
1, 35764, Note_off_c, 9, 70, 0
1, 35788, Note_off_c, 9, 54, 0
1, 35796, Note_off_c, 9, 69, 0
1, 35808, Note_on_c, 9, 69, 46
1, 35840, Note_off_c, 5, 45, 100
1, 35872, Note_off_c, 9, 56, 100
1, 35888, Control_c, 2, 1, 6
1, 35888, Note_off_c, 9, 69, 0
1, 35904, Note_on_c, 5, 60, 102
1, 35904, Note_on_c, 5, 64, 99
1, 35904, Note_on_c, 5, 69, 102
1, 35904, Note_on_c, 9, 69, 62
1, 35908, Note_off_c, 9, 69, 0
1, 35912, Control_c, 2, 1, 12
1, 35936, Control_c, 2, 1, 20
1, 35960, Control_c, 2, 1, 26
1, 35968, Note_off_c, 9, 39, 100
1, 35992, Note_off_c, 5, 64, 0
1, 35996, Control_c, 2, 1, 36
1, 35996, Note_off_c, 5, 60, 0
1, 35996, Note_off_c, 5, 69, 0
1, 36000, Note_on_c, 9, 69, 48
1, 36024, Control_c, 2, 1, 44
1, 36048, Control_c, 2, 1, 49
1, 36064, Note_off_c, 9, 69, 0
1, 36080, Control_c, 2, 1, 57
1, 36096, Note_on_c, 9, 54, 86
1, 36096, Note_on_c, 9, 69, 78
1, 36096, Note_on_c, 9, 70, 85
1, 36108, Control_c, 2, 1, 64
1, 36136, Control_c, 2, 1, 71
1, 36152, Note_off_c, 9, 54, 0
1, 36152, Note_off_c, 9, 70, 0
1, 36168, Note_off_c, 2, 69, 0
1, 36168, Control_c, 2, 1, 79
1, 36184, Note_off_c, 9, 69, 0
1, 36192, Note_on_c, 9, 69, 43
1, 36200, Control_c, 2, 1, 84
1, 36228, Control_c, 2, 1, 82
1, 36268, Note_off_c, 9, 69, 0
1, 36272, Control_c, 2, 1, 62
1, 36288, Note_on_c, 1, 33, 119
1, 36288, Note_on_c, 5, 45, 100
1, 36288, Note_on_c, 9, 69, 57
1, 36288, Note_on_c, 9, 36, 116
1, 36296, Note_off_c, 9, 69, 0
1, 36300, Control_c, 2, 1, 37
1, 36328, Control_c, 2, 1, 0
1, 36384, Note_on_c, 9, 69, 49
1, 36444, Note_off_c, 9, 36, 0
1, 36460, Note_off_c, 9, 69, 0
1, 36480, Note_on_c, 5, 60, 102
1, 36480, Note_on_c, 5, 64, 99
1, 36480, Note_on_c, 5, 69, 102
1, 36480, Note_on_c, 9, 54, 85
1, 36480, Note_on_c, 9, 69, 75
1, 36480, Note_on_c, 9, 39, 100
1, 36552, Note_off_c, 9, 54, 0
1, 36564, Note_off_c, 9, 69, 0
1, 36568, Note_off_c, 5, 64, 0
1, 36572, Note_off_c, 5, 60, 0
1, 36572, Note_off_c, 5, 69, 0
1, 36576, Note_on_c, 9, 69, 48
1, 36596, Note_off_c, 5, 45, 0
1, 36600, Note_off_c, 1, 33, 0
1, 36656, Note_off_c, 9, 69, 0
1, 36672, Note_on_c, 9, 69, 56
1, 36672, Note_on_c, 9, 36, 116
1, 36736, Note_off_c, 9, 39, 100
1, 36748, Note_off_c, 9, 69, 0
1, 36768, Note_on_c, 9, 69, 50
1, 36828, Note_off_c, 9, 36, 0
1, 36836, Note_off_c, 9, 69, 0
1, 36864, Note_on_c, 1, 33, 119
1, 36864, Note_on_c, 5, 45, 100
1, 36864, Note_on_c, 9, 54, 83
1, 36864, Note_on_c, 9, 69, 86
1, 36864, Note_on_c, 9, 70, 85
1, 36864, Note_on_c, 9, 36, 116
1, 36864, Note_on_c, 9, 39, 100
1, 36924, Note_off_c, 9, 54, 0
1, 36928, Note_off_c, 9, 70, 0
1, 36936, Note_off_c, 9, 69, 0
1, 36960, Note_on_c, 9, 69, 47
1, 37020, Note_off_c, 9, 36, 0
1, 37052, Note_off_c, 9, 69, 0
1, 37056, Note_on_c, 9, 69, 56
1, 37120, Note_off_c, 9, 39, 100
1, 37120, Note_off_c, 9, 69, 0
1, 37152, Note_on_c, 9, 69, 43
1, 37152, Note_on_c, 9, 56, 100
1, 37176, Note_off_c, 1, 33, 0
1, 37224, Note_off_c, 9, 69, 0
1, 37248, Note_on_c, 9, 54, 87
1, 37248, Note_on_c, 9, 69, 73
1, 37248, Note_on_c, 9, 70, 83
1, 37248, Note_on_c, 9, 39, 100
1, 37300, Note_off_c, 9, 70, 0
1, 37324, Note_off_c, 9, 54, 0
1, 37332, Note_off_c, 9, 69, 0
1, 37344, Note_on_c, 9, 69, 46
1, 37376, Note_off_c, 5, 45, 100
1, 37408, Note_off_c, 9, 56, 100
1, 37424, Note_off_c, 9, 69, 0
1, 37440, Note_on_c, 5, 60, 102
1, 37440, Note_on_c, 5, 64, 99
1, 37440, Note_on_c, 5, 69, 102
1, 37440, Note_on_c, 9, 69, 62
1, 37444, Note_off_c, 9, 69, 0
1, 37504, Note_off_c, 9, 39, 100
1, 37528, Note_off_c, 5, 64, 0
1, 37532, Note_off_c, 5, 60, 0
1, 37532, Note_off_c, 5, 69, 0
1, 37536, Note_on_c, 9, 69, 48
1, 37600, Note_off_c, 9, 69, 0
1, 37632, Note_on_c, 9, 54, 86
1, 37632, Note_on_c, 9, 69, 78
1, 37632, Note_on_c, 9, 70, 85
1, 37688, Note_off_c, 9, 54, 0
1, 37688, Note_off_c, 9, 70, 0
1, 37720, Note_off_c, 9, 69, 0
1, 37728, Note_on_c, 9, 69, 43
1, 37804, Note_off_c, 9, 69, 0
1, 37824, Note_on_c, 1, 33, 119
1, 37824, Note_on_c, 2, 64, 110
1, 37824, Note_on_c, 5, 45, 100
1, 37824, Note_on_c, 9, 69, 57
1, 37824, Note_on_c, 9, 36, 116
1, 37832, Note_off_c, 9, 69, 0
1, 37920, Note_on_c, 9, 69, 49
1, 37980, Note_off_c, 9, 36, 0
1, 37996, Note_off_c, 9, 69, 0
1, 38000, Note_off_c, 2, 64, 0
1, 38016, Note_on_c, 2, 72, 118
1, 38016, Note_on_c, 5, 60, 102
1, 38016, Note_on_c, 5, 64, 99
1, 38016, Note_on_c, 5, 69, 102
1, 38016, Note_on_c, 9, 54, 85
1, 38016, Note_on_c, 9, 69, 75
1, 38016, Note_on_c, 9, 39, 100
1, 38088, Note_off_c, 9, 54, 0
1, 38100, Note_off_c, 9, 69, 0
1, 38104, Note_off_c, 5, 64, 0
1, 38108, Note_off_c, 5, 60, 0
1, 38108, Note_off_c, 5, 69, 0
1, 38112, Note_on_c, 9, 69, 48
1, 38132, Note_off_c, 5, 45, 0
1, 38136, Note_off_c, 1, 33, 0
1, 38168, Note_off_c, 2, 72, 0
1, 38192, Note_off_c, 9, 69, 0
1, 38208, Note_on_c, 9, 69, 56
1, 38208, Note_on_c, 9, 36, 116
1, 38208, Note_on_c, 9, 66, 79
1, 38208, Note_on_c, 9, 69, 87
1, 38208, Note_on_c, 9, 36, 121
1, 38208, Note_on_c, 9, 42, 74
1, 38256, Note_off_c, 9, 66, 0
1, 38272, Note_off_c, 9, 39, 100
1, 38276, Note_off_c, 9, 42, 0
1, 38280, Note_off_c, 9, 69, 0
1, 38284, Note_off_c, 9, 69, 0
1, 38304, Note_on_c, 2, 71, 109
1, 38304, Note_on_c, 9, 69, 50
1, 38356, Note_off_c, 9, 36, 0
1, 38364, Note_off_c, 9, 36, 0
1, 38372, Note_off_c, 9, 69, 0
1, 38400, Note_on_c, 1, 33, 119
1, 38400, Note_on_c, 2, 69, 112
1, 38400, Note_on_c, 5, 45, 100
1, 38400, Note_on_c, 9, 54, 83
1, 38400, Note_on_c, 9, 69, 86
1, 38400, Note_on_c, 9, 70, 85
1, 38400, Note_on_c, 9, 36, 116
1, 38404, Note_off_c, 2, 71, 64
1, 38460, Note_off_c, 9, 54, 0
1, 38464, Note_off_c, 9, 70, 0
1, 38472, Note_off_c, 9, 69, 0
1, 38496, Note_on_c, 9, 69, 47
1, 38556, Note_off_c, 9, 36, 0
1, 38588, Note_off_c, 9, 69, 0
1, 38592, Note_on_c, 9, 69, 56
1, 38656, Note_off_c, 9, 69, 0
1, 38688, Note_on_c, 9, 69, 43
1, 38688, Note_on_c, 9, 56, 100
1, 38712, Note_off_c, 1, 33, 0
1, 38760, Note_off_c, 9, 69, 0
1, 38784, Note_on_c, 9, 54, 87
1, 38784, Note_on_c, 9, 69, 73
1, 38784, Note_on_c, 9, 70, 83
1, 38784, Note_on_c, 9, 39, 100
1, 38836, Note_off_c, 9, 70, 0
1, 38860, Note_off_c, 9, 54, 0
1, 38868, Note_off_c, 9, 69, 0
1, 38880, Note_on_c, 9, 69, 46
1, 38912, Note_off_c, 5, 45, 100
1, 38944, Note_off_c, 9, 56, 100
1, 38960, Control_c, 2, 1, 6
1, 38960, Note_off_c, 9, 69, 0
1, 38976, Note_on_c, 5, 60, 102
1, 38976, Note_on_c, 5, 64, 99
1, 38976, Note_on_c, 5, 69, 102
1, 38976, Note_on_c, 9, 69, 62
1, 38980, Note_off_c, 9, 69, 0
1, 38984, Control_c, 2, 1, 12
1, 39008, Control_c, 2, 1, 20
1, 39032, Control_c, 2, 1, 26
1, 39040, Note_off_c, 9, 39, 100
1, 39064, Note_off_c, 5, 64, 0
1, 39068, Control_c, 2, 1, 36
1, 39068, Note_off_c, 5, 60, 0
1, 39068, Note_off_c, 5, 69, 0
1, 39072, Note_on_c, 9, 69, 48
1, 39096, Control_c, 2, 1, 44
1, 39120, Control_c, 2, 1, 49
1, 39136, Note_off_c, 9, 69, 0
1, 39152, Control_c, 2, 1, 57
1, 39168, Note_on_c, 9, 54, 86
1, 39168, Note_on_c, 9, 69, 78
1, 39168, Note_on_c, 9, 70, 85
1, 39180, Control_c, 2, 1, 64
1, 39208, Control_c, 2, 1, 71
1, 39224, Note_off_c, 9, 54, 0
1, 39224, Note_off_c, 9, 70, 0
1, 39240, Note_off_c, 2, 69, 0
1, 39240, Control_c, 2, 1, 79
1, 39256, Note_off_c, 9, 69, 0
1, 39264, Note_on_c, 9, 69, 43
1, 39272, Control_c, 2, 1, 84
1, 39300, Control_c, 2, 1, 82
1, 39340, Note_off_c, 9, 69, 0
1, 39344, Control_c, 2, 1, 62
1, 39360, Note_on_c, 1, 33, 119
1, 39360, Note_on_c, 5, 45, 100
1, 39360, Note_on_c, 9, 69, 57
1, 39360, Note_on_c, 9, 36, 116
1, 39368, Note_off_c, 9, 69, 0
1, 39372, Control_c, 2, 1, 37
1, 39400, Control_c, 2, 1, 0
1, 39456, Note_on_c, 9, 69, 49
1, 39516, Note_off_c, 9, 36, 0
1, 39532, Note_off_c, 9, 69, 0
1, 39552, Note_on_c, 5, 60, 102
1, 39552, Note_on_c, 5, 64, 99
1, 39552, Note_on_c, 5, 69, 102
1, 39552, Note_on_c, 9, 54, 85
1, 39552, Note_on_c, 9, 69, 75
1, 39552, Note_on_c, 9, 39, 100
1, 39624, Note_off_c, 9, 54, 0
1, 39636, Note_off_c, 9, 69, 0
1, 39640, Note_off_c, 5, 64, 0
1, 39644, Note_off_c, 5, 60, 0
1, 39644, Note_off_c, 5, 69, 0
1, 39648, Note_on_c, 9, 69, 48
1, 39668, Note_off_c, 5, 45, 0
1, 39672, Note_off_c, 1, 33, 0
1, 39728, Note_off_c, 9, 69, 0
1, 39744, Note_on_c, 9, 69, 56
1, 39744, Note_on_c, 9, 36, 116
1, 39808, Note_off_c, 9, 39, 100
1, 39820, Note_off_c, 9, 69, 0
1, 39840, Note_on_c, 9, 69, 50
1, 39900, Note_off_c, 9, 36, 0
1, 39908, Note_off_c, 9, 69, 0
1, 39936, Note_on_c, 1, 33, 119
1, 39936, Note_on_c, 5, 45, 100
1, 39936, Note_on_c, 9, 54, 83
1, 39936, Note_on_c, 9, 69, 86
1, 39936, Note_on_c, 9, 70, 85
1, 39936, Note_on_c, 9, 36, 116
1, 39996, Note_off_c, 9, 54, 0
1, 40000, Note_off_c, 9, 70, 0
1, 40008, Note_off_c, 9, 69, 0
1, 40032, Note_on_c, 9, 69, 47
1, 40092, Note_off_c, 9, 36, 0
1, 40124, Note_off_c, 9, 69, 0
1, 40128, Note_on_c, 9, 69, 56
1, 40192, Note_off_c, 9, 69, 0
1, 40224, Note_on_c, 9, 69, 43
1, 40224, Note_on_c, 9, 56, 100
1, 40248, Note_off_c, 1, 33, 0
1, 40296, Note_off_c, 9, 69, 0
1, 40320, Note_on_c, 9, 54, 87
1, 40320, Note_on_c, 9, 69, 73
1, 40320, Note_on_c, 9, 70, 83
1, 40320, Note_on_c, 9, 39, 100
1, 40372, Note_off_c, 9, 70, 0
1, 40396, Note_off_c, 9, 54, 0
1, 40404, Note_off_c, 9, 69, 0
1, 40416, Note_on_c, 9, 69, 46
1, 40448, Note_off_c, 5, 45, 100
1, 40480, Note_off_c, 9, 56, 100
1, 40496, Note_off_c, 9, 69, 0
1, 40512, Note_on_c, 5, 60, 102
1, 40512, Note_on_c, 5, 64, 99
1, 40512, Note_on_c, 5, 69, 102
1, 40512, Note_on_c, 9, 69, 62
1, 40516, Note_off_c, 9, 69, 0
1, 40576, Note_off_c, 9, 39, 100
1, 40600, Note_off_c, 5, 64, 0
1, 40604, Note_off_c, 5, 60, 0
1, 40604, Note_off_c, 5, 69, 0
1, 40608, Note_on_c, 9, 69, 48
1, 40672, Note_off_c, 9, 69, 0
1, 40704, Note_on_c, 9, 54, 86
1, 40704, Note_on_c, 9, 69, 78
1, 40704, Note_on_c, 9, 70, 85
1, 40760, Note_off_c, 9, 54, 0
1, 40760, Note_off_c, 9, 70, 0
1, 40792, Note_off_c, 9, 69, 0
1, 40800, Note_on_c, 9, 69, 43
1, 40876, Note_off_c, 9, 69, 0
1, 40896, Note_on_c, 1, 33, 119
1, 40896, Note_on_c, 5, 45, 100
1, 40896, Note_on_c, 9, 69, 57
1, 40896, Note_on_c, 9, 36, 116
1, 40904, Note_off_c, 9, 69, 0
1, 40992, Note_on_c, 9, 69, 49
1, 41052, Note_off_c, 9, 36, 0
1, 41068, Note_off_c, 9, 69, 0
1, 41088, Note_on_c, 5, 60, 102
1, 41088, Note_on_c, 5, 64, 99
1, 41088, Note_on_c, 5, 69, 102
1, 41088, Note_on_c, 9, 54, 85
1, 41088, Note_on_c, 9, 69, 75
1, 41088, Note_on_c, 9, 39, 100
1, 41160, Note_off_c, 9, 54, 0
1, 41172, Note_off_c, 9, 69, 0
1, 41176, Note_off_c, 5, 64, 0
1, 41180, Note_off_c, 5, 60, 0
1, 41180, Note_off_c, 5, 69, 0
1, 41184, Note_on_c, 2, 64, 110
1, 41184, Note_on_c, 9, 69, 48
1, 41204, Note_off_c, 5, 45, 0
1, 41208, Note_off_c, 1, 33, 0
1, 41264, Note_off_c, 9, 69, 0
1, 41280, Note_on_c, 2, 72, 118
1, 41280, Note_on_c, 9, 69, 56
1, 41280, Note_on_c, 9, 36, 116
1, 41344, Note_off_c, 9, 39, 100
1, 41356, Note_off_c, 9, 69, 0
1, 41360, Note_off_c, 2, 64, 0
1, 41376, Note_on_c, 2, 71, 109
1, 41376, Note_on_c, 9, 69, 50
1, 41432, Note_off_c, 2, 72, 0
1, 41436, Note_off_c, 9, 36, 0
1, 41444, Note_off_c, 9, 69, 0
1, 41472, Note_on_c, 1, 33, 119
1, 41472, Note_on_c, 2, 69, 112
1, 41472, Note_on_c, 5, 45, 100
1, 41472, Note_on_c, 9, 54, 83
1, 41472, Note_on_c, 9, 69, 86
1, 41472, Note_on_c, 9, 70, 85
1, 41472, Note_on_c, 9, 36, 116
1, 41476, Note_off_c, 2, 71, 64
1, 41532, Note_off_c, 9, 54, 0
1, 41536, Note_off_c, 9, 70, 0
1, 41544, Note_off_c, 9, 69, 0
1, 41568, Note_on_c, 9, 69, 47
1, 41628, Note_off_c, 9, 36, 0
1, 41660, Note_off_c, 9, 69, 0
1, 41664, Note_on_c, 9, 69, 56
1, 41728, Note_off_c, 9, 69, 0
1, 41760, Note_on_c, 9, 69, 43
1, 41760, Note_on_c, 9, 56, 100
1, 41784, Note_off_c, 1, 33, 0
1, 41832, Note_off_c, 9, 69, 0
1, 41856, Note_on_c, 9, 54, 87
1, 41856, Note_on_c, 9, 69, 73
1, 41856, Note_on_c, 9, 70, 83
1, 41856, Note_on_c, 9, 39, 100
1, 41908, Note_off_c, 9, 70, 0
1, 41932, Note_off_c, 9, 54, 0
1, 41940, Note_off_c, 9, 69, 0
1, 41952, Note_on_c, 9, 69, 46
1, 41984, Note_off_c, 5, 45, 100
1, 42016, Note_off_c, 9, 56, 100
1, 42032, Control_c, 2, 1, 6
1, 42032, Note_off_c, 9, 69, 0
1, 42048, Note_on_c, 5, 60, 102
1, 42048, Note_on_c, 5, 64, 99
1, 42048, Note_on_c, 5, 69, 102
1, 42048, Note_on_c, 9, 69, 62
1, 42052, Note_off_c, 9, 69, 0
1, 42056, Control_c, 2, 1, 12
1, 42080, Control_c, 2, 1, 20
1, 42104, Control_c, 2, 1, 26
1, 42112, Note_off_c, 9, 39, 100
1, 42136, Note_off_c, 5, 64, 0
1, 42140, Control_c, 2, 1, 36
1, 42140, Note_off_c, 5, 60, 0
1, 42140, Note_off_c, 5, 69, 0
1, 42144, Note_on_c, 9, 69, 48
1, 42168, Control_c, 2, 1, 44
1, 42192, Control_c, 2, 1, 49
1, 42208, Note_off_c, 9, 69, 0
1, 42224, Control_c, 2, 1, 57
1, 42240, Note_on_c, 9, 54, 86
1, 42240, Note_on_c, 9, 69, 78
1, 42240, Note_on_c, 9, 70, 85
1, 42252, Control_c, 2, 1, 64
1, 42280, Control_c, 2, 1, 71
1, 42296, Note_off_c, 9, 54, 0
1, 42296, Note_off_c, 9, 70, 0
1, 42312, Note_off_c, 2, 69, 0
1, 42312, Control_c, 2, 1, 79
1, 42328, Note_off_c, 9, 69, 0
1, 42336, Note_on_c, 9, 69, 43
1, 42344, Control_c, 2, 1, 84
1, 42372, Control_c, 2, 1, 82
1, 42412, Note_off_c, 9, 69, 0
1, 42416, Control_c, 2, 1, 62
1, 42432, Note_on_c, 1, 33, 119
1, 42432, Note_on_c, 5, 45, 100
1, 42432, Note_on_c, 9, 69, 57
1, 42432, Note_on_c, 9, 36, 116
1, 42440, Note_off_c, 9, 69, 0
1, 42444, Control_c, 2, 1, 37
1, 42472, Control_c, 2, 1, 0
1, 42528, Note_on_c, 9, 69, 49
1, 42588, Note_off_c, 9, 36, 0
1, 42604, Note_off_c, 9, 69, 0
1, 42624, Note_on_c, 5, 60, 102
1, 42624, Note_on_c, 5, 64, 99
1, 42624, Note_on_c, 5, 69, 102
1, 42624, Note_on_c, 9, 54, 85
1, 42624, Note_on_c, 9, 69, 75
1, 42624, Note_on_c, 9, 39, 100
1, 42696, Note_off_c, 9, 54, 0
1, 42708, Note_off_c, 9, 69, 0
1, 42712, Note_off_c, 5, 64, 0
1, 42716, Note_off_c, 5, 60, 0
1, 42716, Note_off_c, 5, 69, 0
1, 42720, Note_on_c, 9, 69, 48
1, 42740, Note_off_c, 5, 45, 0
1, 42744, Note_off_c, 1, 33, 0
1, 42800, Note_off_c, 9, 69, 0
1, 42816, Note_on_c, 9, 69, 56
1, 42816, Note_on_c, 9, 36, 116
1, 42880, Note_off_c, 9, 39, 100
1, 42892, Note_off_c, 9, 69, 0
1, 42912, Note_on_c, 9, 69, 50
1, 42972, Note_off_c, 9, 36, 0
1, 42980, Note_off_c, 9, 69, 0
1, 43008, Note_on_c, 1, 33, 119
1, 43008, Note_on_c, 5, 45, 100
1, 43008, Note_on_c, 9, 54, 83
1, 43008, Note_on_c, 9, 69, 86
1, 43008, Note_on_c, 9, 70, 85
1, 43008, Note_on_c, 9, 36, 116
1, 43008, Note_on_c, 9, 39, 100
1, 43068, Note_off_c, 9, 54, 0
1, 43072, Note_off_c, 9, 70, 0
1, 43080, Note_off_c, 9, 69, 0
1, 43104, Note_on_c, 9, 69, 47
1, 43164, Note_off_c, 9, 36, 0
1, 43196, Note_off_c, 9, 69, 0
1, 43200, Note_on_c, 9, 69, 56
1, 43264, Note_off_c, 9, 39, 100
1, 43264, Note_off_c, 9, 69, 0
1, 43296, Note_on_c, 9, 69, 43
1, 43296, Note_on_c, 9, 56, 100
1, 43320, Note_off_c, 1, 33, 0
1, 43368, Note_off_c, 9, 69, 0
1, 43392, Note_on_c, 9, 54, 87
1, 43392, Note_on_c, 9, 69, 73
1, 43392, Note_on_c, 9, 70, 83
1, 43392, Note_on_c, 9, 39, 100
1, 43444, Note_off_c, 9, 70, 0
1, 43468, Note_off_c, 9, 54, 0
1, 43476, Note_off_c, 9, 69, 0
1, 43488, Note_on_c, 9, 69, 46
1, 43520, Note_off_c, 5, 45, 100
1, 43552, Note_off_c, 9, 56, 100
1, 43568, Note_off_c, 9, 69, 0
1, 43584, Note_on_c, 5, 60, 102
1, 43584, Note_on_c, 5, 64, 99
1, 43584, Note_on_c, 5, 69, 102
1, 43584, Note_on_c, 9, 69, 62
1, 43588, Note_off_c, 9, 69, 0
1, 43648, Note_off_c, 9, 39, 100
1, 43672, Note_off_c, 5, 64, 0
1, 43676, Note_off_c, 5, 60, 0
1, 43676, Note_off_c, 5, 69, 0
1, 43680, Note_on_c, 9, 69, 48
1, 43744, Note_off_c, 9, 69, 0
1, 43776, Note_on_c, 9, 54, 86
1, 43776, Note_on_c, 9, 69, 78
1, 43776, Note_on_c, 9, 70, 85
1, 43832, Note_off_c, 9, 54, 0
1, 43832, Note_off_c, 9, 70, 0
1, 43864, Note_off_c, 9, 69, 0
1, 43872, Note_on_c, 9, 69, 43
1, 43948, Note_off_c, 9, 69, 0
1, 43968, Note_on_c, 1, 33, 119
1, 43968, Note_on_c, 2, 64, 110
1, 43968, Note_on_c, 5, 45, 100
1, 43968, Note_on_c, 9, 69, 57
1, 43968, Note_on_c, 9, 36, 116
1, 43976, Note_off_c, 9, 69, 0
1, 44064, Note_on_c, 9, 69, 49
1, 44124, Note_off_c, 9, 36, 0
1, 44140, Note_off_c, 9, 69, 0
1, 44144, Note_off_c, 2, 64, 0
1, 44160, Note_on_c, 2, 72, 118
1, 44160, Note_on_c, 5, 60, 102
1, 44160, Note_on_c, 5, 64, 99
1, 44160, Note_on_c, 5, 69, 102
1, 44160, Note_on_c, 9, 54, 85
1, 44160, Note_on_c, 9, 69, 75
1, 44160, Note_on_c, 9, 39, 100
1, 44232, Note_off_c, 9, 54, 0
1, 44244, Note_off_c, 9, 69, 0
1, 44248, Note_off_c, 5, 64, 0
1, 44252, Note_off_c, 5, 60, 0
1, 44252, Note_off_c, 5, 69, 0
1, 44256, Note_on_c, 9, 69, 48
1, 44276, Note_off_c, 5, 45, 0
1, 44280, Note_off_c, 1, 33, 0
1, 44312, Note_off_c, 2, 72, 0
1, 44336, Note_off_c, 9, 69, 0
1, 44352, Note_on_c, 9, 69, 56
1, 44352, Note_on_c, 9, 36, 116
1, 44352, Note_on_c, 9, 66, 79
1, 44352, Note_on_c, 9, 69, 87
1, 44352, Note_on_c, 9, 36, 121
1, 44352, Note_on_c, 9, 42, 74
1, 44400, Note_off_c, 9, 66, 0
1, 44416, Note_off_c, 9, 39, 100
1, 44420, Note_off_c, 9, 42, 0
1, 44424, Note_off_c, 9, 69, 0
1, 44428, Note_off_c, 9, 69, 0
1, 44448, Note_on_c, 2, 71, 109
1, 44448, Note_on_c, 9, 69, 50
1, 44500, Note_off_c, 9, 36, 0
1, 44508, Note_off_c, 9, 36, 0
1, 44516, Note_off_c, 9, 69, 0
1, 44544, Note_on_c, 1, 33, 119
1, 44544, Note_on_c, 2, 69, 112
1, 44544, Note_on_c, 5, 45, 100
1, 44544, Note_on_c, 9, 54, 83
1, 44544, Note_on_c, 9, 69, 86
1, 44544, Note_on_c, 9, 70, 85
1, 44544, Note_on_c, 9, 36, 116
1, 44548, Note_off_c, 2, 71, 64
1, 44604, Note_off_c, 9, 54, 0
1, 44608, Note_off_c, 9, 70, 0
1, 44616, Note_off_c, 9, 69, 0
1, 44640, Note_on_c, 9, 69, 47
1, 44700, Note_off_c, 9, 36, 0
1, 44732, Note_off_c, 9, 69, 0
1, 44736, Note_on_c, 9, 69, 56
1, 44800, Note_off_c, 9, 69, 0
1, 44832, Note_on_c, 9, 69, 43
1, 44832, Note_on_c, 9, 56, 100
1, 44856, Note_off_c, 1, 33, 0
1, 44904, Note_off_c, 9, 69, 0
1, 44928, Note_on_c, 9, 54, 87
1, 44928, Note_on_c, 9, 69, 73
1, 44928, Note_on_c, 9, 70, 83
1, 44928, Note_on_c, 9, 39, 100
1, 44980, Note_off_c, 9, 70, 0
1, 45004, Note_off_c, 9, 54, 0
1, 45012, Note_off_c, 9, 69, 0
1, 45024, Note_on_c, 9, 69, 46
1, 45056, Note_off_c, 5, 45, 100
1, 45088, Note_off_c, 9, 56, 100
1, 45104, Control_c, 2, 1, 6
1, 45104, Note_off_c, 9, 69, 0
1, 45120, Note_on_c, 5, 60, 102
1, 45120, Note_on_c, 5, 64, 99
1, 45120, Note_on_c, 5, 69, 102
1, 45120, Note_on_c, 9, 69, 62
1, 45124, Note_off_c, 9, 69, 0
1, 45128, Control_c, 2, 1, 12
1, 45152, Control_c, 2, 1, 20
1, 45176, Control_c, 2, 1, 26
1, 45184, Note_off_c, 9, 39, 100
1, 45208, Note_off_c, 5, 64, 0
1, 45212, Control_c, 2, 1, 36
1, 45212, Note_off_c, 5, 60, 0
1, 45212, Note_off_c, 5, 69, 0
1, 45216, Note_on_c, 9, 69, 48
1, 45240, Control_c, 2, 1, 44
1, 45264, Control_c, 2, 1, 49
1, 45280, Note_off_c, 9, 69, 0
1, 45296, Control_c, 2, 1, 57
1, 45312, Note_on_c, 9, 54, 86
1, 45312, Note_on_c, 9, 69, 78
1, 45312, Note_on_c, 9, 70, 85
1, 45324, Control_c, 2, 1, 64
1, 45352, Control_c, 2, 1, 71
1, 45368, Note_off_c, 9, 54, 0
1, 45368, Note_off_c, 9, 70, 0
1, 45384, Note_off_c, 2, 69, 0
1, 45384, Control_c, 2, 1, 79
1, 45400, Note_off_c, 9, 69, 0
1, 45408, Note_on_c, 9, 69, 43
1, 45416, Control_c, 2, 1, 84
1, 45444, Control_c, 2, 1, 82
1, 45484, Note_off_c, 9, 69, 0
1, 45488, Control_c, 2, 1, 62
1, 45504, Note_on_c, 1, 33, 119
1, 45504, Note_on_c, 5, 45, 100
1, 45504, Note_on_c, 9, 69, 57
1, 45504, Note_on_c, 9, 36, 116
1, 45512, Note_off_c, 9, 69, 0
1, 45516, Control_c, 2, 1, 37
1, 45544, Control_c, 2, 1, 0
1, 45600, Note_on_c, 9, 69, 49
1, 45660, Note_off_c, 9, 36, 0
1, 45676, Note_off_c, 9, 69, 0
1, 45696, Note_on_c, 5, 60, 102
1, 45696, Note_on_c, 5, 64, 99
1, 45696, Note_on_c, 5, 69, 102
1, 45696, Note_on_c, 9, 54, 85
1, 45696, Note_on_c, 9, 69, 75
1, 45696, Note_on_c, 9, 39, 100
1, 45768, Note_off_c, 9, 54, 0
1, 45780, Note_off_c, 9, 69, 0
1, 45784, Note_off_c, 5, 64, 0
1, 45788, Note_off_c, 5, 60, 0
1, 45788, Note_off_c, 5, 69, 0
1, 45792, Note_on_c, 9, 69, 48
1, 45812, Note_off_c, 5, 45, 0
1, 45816, Note_off_c, 1, 33, 0
1, 45872, Note_off_c, 9, 69, 0
1, 45888, Note_on_c, 9, 69, 56
1, 45888, Note_on_c, 9, 36, 116
1, 45952, Note_off_c, 9, 39, 100
1, 45964, Note_off_c, 9, 69, 0
1, 45984, Note_on_c, 9, 69, 50
1, 46044, Note_off_c, 9, 36, 0
1, 46052, Note_off_c, 9, 69, 0
1, 46080, Note_on_c, 1, 33, 119
1, 46080, Note_on_c, 5, 45, 100
1, 46080, Note_on_c, 9, 54, 83
1, 46080, Note_on_c, 9, 69, 86
1, 46080, Note_on_c, 9, 70, 85
1, 46080, Note_on_c, 9, 36, 116
1, 46140, Note_off_c, 9, 54, 0
1, 46144, Note_off_c, 9, 70, 0
1, 46152, Note_off_c, 9, 69, 0
1, 46176, Note_on_c, 9, 69, 47
1, 46236, Note_off_c, 9, 36, 0
1, 46268, Note_off_c, 9, 69, 0
1, 46272, Note_on_c, 9, 69, 56
1, 46336, Note_off_c, 9, 69, 0
1, 46368, Note_on_c, 9, 69, 43
1, 46368, Note_on_c, 9, 56, 100
1, 46392, Note_off_c, 1, 33, 0
1, 46440, Note_off_c, 9, 69, 0
1, 46464, Note_on_c, 9, 54, 87
1, 46464, Note_on_c, 9, 69, 73
1, 46464, Note_on_c, 9, 70, 83
1, 46464, Note_on_c, 9, 39, 100
1, 46516, Note_off_c, 9, 70, 0
1, 46540, Note_off_c, 9, 54, 0
1, 46548, Note_off_c, 9, 69, 0
1, 46560, Note_on_c, 9, 69, 46
1, 46592, Note_off_c, 5, 45, 100
1, 46624, Note_off_c, 9, 56, 100
1, 46640, Note_off_c, 9, 69, 0
1, 46656, Note_on_c, 5, 60, 102
1, 46656, Note_on_c, 5, 64, 99
1, 46656, Note_on_c, 5, 69, 102
1, 46656, Note_on_c, 9, 69, 62
1, 46660, Note_off_c, 9, 69, 0
1, 46720, Note_off_c, 9, 39, 100
1, 46744, Note_off_c, 5, 64, 0
1, 46748, Note_off_c, 5, 60, 0
1, 46748, Note_off_c, 5, 69, 0
1, 46752, Note_on_c, 9, 69, 48
1, 46816, Note_off_c, 9, 69, 0
1, 46848, Note_on_c, 9, 54, 86
1, 46848, Note_on_c, 9, 69, 78
1, 46848, Note_on_c, 9, 70, 85
1, 46904, Note_off_c, 9, 54, 0
1, 46904, Note_off_c, 9, 70, 0
1, 46936, Note_off_c, 9, 69, 0
1, 46944, Note_on_c, 9, 69, 43
1, 47020, Note_off_c, 9, 69, 0
1, 47040, Note_on_c, 1, 33, 119
1, 47040, Note_on_c, 5, 45, 100
1, 47040, Note_on_c, 9, 69, 57
1, 47040, Note_on_c, 9, 36, 116
1, 47048, Note_off_c, 9, 69, 0
1, 47136, Note_on_c, 9, 69, 49
1, 47196, Note_off_c, 9, 36, 0
1, 47212, Note_off_c, 9, 69, 0
1, 47232, Note_on_c, 5, 60, 102
1, 47232, Note_on_c, 5, 64, 99
1, 47232, Note_on_c, 5, 69, 102
1, 47232, Note_on_c, 9, 54, 85
1, 47232, Note_on_c, 9, 69, 75
1, 47232, Note_on_c, 9, 39, 100
1, 47304, Note_off_c, 9, 54, 0
1, 47316, Note_off_c, 9, 69, 0
1, 47320, Note_off_c, 5, 64, 0
1, 47324, Note_off_c, 5, 60, 0
1, 47324, Note_off_c, 5, 69, 0
1, 47328, Note_on_c, 2, 64, 110
1, 47328, Note_on_c, 9, 69, 48
1, 47348, Note_off_c, 5, 45, 0
1, 47352, Note_off_c, 1, 33, 0
1, 47408, Note_off_c, 9, 69, 0
1, 47424, Note_on_c, 2, 72, 118
1, 47424, Note_on_c, 9, 69, 56
1, 47424, Note_on_c, 9, 36, 116
1, 47488, Note_off_c, 9, 39, 100
1, 47500, Note_off_c, 9, 69, 0
1, 47504, Note_off_c, 2, 64, 0
1, 47520, Note_on_c, 2, 71, 109
1, 47520, Note_on_c, 9, 69, 50
1, 47576, Note_off_c, 2, 72, 0
1, 47580, Note_off_c, 9, 36, 0
1, 47588, Note_off_c, 9, 69, 0
1, 47616, Note_on_c, 1, 33, 119
1, 47616, Note_on_c, 2, 69, 112
1, 47616, Note_on_c, 5, 45, 100
1, 47616, Note_on_c, 9, 54, 83
1, 47616, Note_on_c, 9, 69, 86
1, 47616, Note_on_c, 9, 70, 85
1, 47616, Note_on_c, 9, 36, 116
1, 47620, Note_off_c, 2, 71, 64
1, 47676, Note_off_c, 9, 54, 0
1, 47680, Note_off_c, 9, 70, 0
1, 47688, Note_off_c, 9, 69, 0
1, 47712, Note_on_c, 9, 69, 47
1, 47772, Note_off_c, 9, 36, 0
1, 47804, Note_off_c, 9, 69, 0
1, 47808, Note_on_c, 9, 69, 56
1, 47872, Note_off_c, 9, 69, 0
1, 47904, Note_on_c, 9, 69, 43
1, 47904, Note_on_c, 9, 56, 100
1, 47928, Note_off_c, 1, 33, 0
1, 47976, Note_off_c, 9, 69, 0
1, 48000, Note_on_c, 9, 54, 87
1, 48000, Note_on_c, 9, 69, 73
1, 48000, Note_on_c, 9, 70, 83
1, 48000, Note_on_c, 9, 39, 100
1, 48052, Note_off_c, 9, 70, 0
1, 48076, Note_off_c, 9, 54, 0
1, 48084, Note_off_c, 9, 69, 0
1, 48096, Note_on_c, 9, 69, 46
1, 48128, Note_off_c, 5, 45, 100
1, 48160, Note_off_c, 9, 56, 100
1, 48176, Control_c, 2, 1, 6
1, 48176, Note_off_c, 9, 69, 0
1, 48192, Note_on_c, 5, 60, 102
1, 48192, Note_on_c, 5, 64, 99
1, 48192, Note_on_c, 5, 69, 102
1, 48192, Note_on_c, 9, 69, 62
1, 48196, Note_off_c, 9, 69, 0
1, 48200, Control_c, 2, 1, 12
1, 48224, Control_c, 2, 1, 20
1, 48248, Control_c, 2, 1, 26
1, 48256, Note_off_c, 9, 39, 100
1, 48280, Note_off_c, 5, 64, 0
1, 48284, Control_c, 2, 1, 36
1, 48284, Note_off_c, 5, 60, 0
1, 48284, Note_off_c, 5, 69, 0
1, 48288, Note_on_c, 9, 69, 48
1, 48312, Control_c, 2, 1, 44
1, 48336, Control_c, 2, 1, 49
1, 48352, Note_off_c, 9, 69, 0
1, 48368, Control_c, 2, 1, 57
1, 48384, Note_on_c, 9, 54, 86
1, 48384, Note_on_c, 9, 69, 78
1, 48384, Note_on_c, 9, 70, 85
1, 48396, Control_c, 2, 1, 64
1, 48424, Control_c, 2, 1, 71
1, 48440, Note_off_c, 9, 54, 0
1, 48440, Note_off_c, 9, 70, 0
1, 48456, Note_off_c, 2, 69, 0
1, 48456, Control_c, 2, 1, 79
1, 48472, Note_off_c, 9, 69, 0
1, 48480, Note_on_c, 9, 69, 43
1, 48488, Control_c, 2, 1, 84
1, 48516, Control_c, 2, 1, 82
1, 48556, Note_off_c, 9, 69, 0
1, 48560, Control_c, 2, 1, 62
1, 48576, Note_on_c, 1, 33, 119
1, 48576, Note_on_c, 5, 45, 100
1, 48576, Note_on_c, 9, 69, 57
1, 48576, Note_on_c, 9, 36, 116
1, 48584, Note_off_c, 9, 69, 0
1, 48588, Control_c, 2, 1, 37
1, 48616, Control_c, 2, 1, 0
1, 48672, Note_on_c, 9, 69, 49
1, 48732, Note_off_c, 9, 36, 0
1, 48748, Note_off_c, 9, 69, 0
1, 48768, Note_on_c, 5, 60, 102
1, 48768, Note_on_c, 5, 64, 99
1, 48768, Note_on_c, 5, 69, 102
1, 48768, Note_on_c, 9, 54, 85
1, 48768, Note_on_c, 9, 69, 75
1, 48768, Note_on_c, 9, 39, 100
1, 48840, Note_off_c, 9, 54, 0
1, 48852, Note_off_c, 9, 69, 0
1, 48856, Note_off_c, 5, 64, 0
1, 48860, Note_off_c, 5, 60, 0
1, 48860, Note_off_c, 5, 69, 0
1, 48864, Note_on_c, 9, 69, 48
1, 48884, Note_off_c, 5, 45, 0
1, 48888, Note_off_c, 1, 33, 0
1, 48944, Note_off_c, 9, 69, 0
1, 48960, Note_on_c, 9, 69, 56
1, 48960, Note_on_c, 9, 36, 116
1, 49024, Note_off_c, 9, 39, 100
1, 49036, Note_off_c, 9, 69, 0
1, 49056, Note_on_c, 9, 69, 50
1, 49116, Note_off_c, 9, 36, 0
1, 49124, Note_off_c, 9, 69, 0
1, 49152, Note_on_c, 1, 33, 119
1, 49152, Note_on_c, 5, 45, 100
1, 49152, Note_on_c, 9, 54, 83
1, 49152, Note_on_c, 9, 69, 86
1, 49152, Note_on_c, 9, 70, 85
1, 49152, Note_on_c, 9, 36, 116
1, 49152, Note_on_c, 9, 39, 100
1, 49212, Note_off_c, 9, 54, 0
1, 49216, Note_off_c, 9, 70, 0
1, 49224, Note_off_c, 9, 69, 0
1, 49248, Note_on_c, 9, 69, 47
1, 49308, Note_off_c, 9, 36, 0
1, 49340, Note_off_c, 9, 69, 0
1, 49344, Note_on_c, 9, 69, 56
1, 49408, Note_off_c, 9, 39, 100
1, 49408, Note_off_c, 9, 69, 0
1, 49440, Note_on_c, 9, 69, 43
1, 49440, Note_on_c, 9, 56, 100
1, 49464, Note_off_c, 1, 33, 0
1, 49512, Note_off_c, 9, 69, 0
1, 49536, Note_on_c, 9, 54, 87
1, 49536, Note_on_c, 9, 69, 73
1, 49536, Note_on_c, 9, 70, 83
1, 49536, Note_on_c, 9, 39, 100
1, 49588, Note_off_c, 9, 70, 0
1, 49612, Note_off_c, 9, 54, 0
1, 49620, Note_off_c, 9, 69, 0
1, 49632, Note_on_c, 9, 69, 46
1, 49664, Note_off_c, 5, 45, 100
1, 49696, Note_off_c, 9, 56, 100
1, 49712, Note_off_c, 9, 69, 0
1, 49728, Note_on_c, 5, 60, 102
1, 49728, Note_on_c, 5, 64, 99
1, 49728, Note_on_c, 5, 69, 102
1, 49728, Note_on_c, 9, 69, 62
1, 49732, Note_off_c, 9, 69, 0
1, 49792, Note_off_c, 9, 39, 100
1, 49816, Note_off_c, 5, 64, 0
1, 49820, Note_off_c, 5, 60, 0
1, 49820, Note_off_c, 5, 69, 0
1, 49824, Note_on_c, 9, 69, 48
1, 49888, Note_off_c, 9, 69, 0
1, 49920, Note_on_c, 9, 54, 86
1, 49920, Note_on_c, 9, 69, 78
1, 49920, Note_on_c, 9, 70, 85
1, 49976, Note_off_c, 9, 54, 0
1, 49976, Note_off_c, 9, 70, 0
1, 50008, Note_off_c, 9, 69, 0
1, 50016, Note_on_c, 9, 69, 43
1, 50092, Note_off_c, 9, 69, 0
1, 50112, Note_on_c, 1, 33, 119
1, 50112, Note_on_c, 2, 64, 110
1, 50112, Note_on_c, 5, 45, 100
1, 50112, Note_on_c, 9, 69, 57
1, 50112, Note_on_c, 9, 36, 116
1, 50120, Note_off_c, 9, 69, 0
1, 50208, Note_on_c, 9, 69, 49
1, 50268, Note_off_c, 9, 36, 0
1, 50284, Note_off_c, 9, 69, 0
1, 50288, Note_off_c, 2, 64, 0
1, 50304, Note_on_c, 2, 72, 118
1, 50304, Note_on_c, 5, 60, 102
1, 50304, Note_on_c, 5, 64, 99
1, 50304, Note_on_c, 5, 69, 102
1, 50304, Note_on_c, 9, 54, 85
1, 50304, Note_on_c, 9, 69, 75
1, 50304, Note_on_c, 9, 39, 100
1, 50376, Note_off_c, 9, 54, 0
1, 50388, Note_off_c, 9, 69, 0
1, 50392, Note_off_c, 5, 64, 0
1, 50396, Note_off_c, 5, 60, 0
1, 50396, Note_off_c, 5, 69, 0
1, 50400, Note_on_c, 9, 69, 48
1, 50420, Note_off_c, 5, 45, 0
1, 50424, Note_off_c, 1, 33, 0
1, 50456, Note_off_c, 2, 72, 0
1, 50480, Note_off_c, 9, 69, 0
1, 50496, Note_on_c, 9, 69, 56
1, 50496, Note_on_c, 9, 36, 116
1, 50496, Note_on_c, 9, 66, 79
1, 50496, Note_on_c, 9, 69, 87
1, 50496, Note_on_c, 9, 36, 121
1, 50496, Note_on_c, 9, 42, 74
1, 50544, Note_off_c, 9, 66, 0
1, 50560, Note_off_c, 9, 39, 100
1, 50564, Note_off_c, 9, 42, 0
1, 50568, Note_off_c, 9, 69, 0
1, 50572, Note_off_c, 9, 69, 0
1, 50592, Note_on_c, 2, 71, 109
1, 50592, Note_on_c, 9, 69, 50
1, 50644, Note_off_c, 9, 36, 0
1, 50652, Note_off_c, 9, 36, 0
1, 50660, Note_off_c, 9, 69, 0
1, 50688, Note_on_c, 1, 38, 100
1, 50688, Note_on_c, 2, 69, 112
1, 50688, Note_on_c, 5, 50, 100
1, 50688, Note_on_c, 9, 54, 83
1, 50688, Note_on_c, 9, 69, 86
1, 50688, Note_on_c, 9, 70, 85
1, 50688, Note_on_c, 9, 36, 116
1, 50692, Note_off_c, 2, 71, 64
1, 50748, Note_off_c, 9, 54, 0
1, 50752, Note_off_c, 9, 70, 0
1, 50760, Note_off_c, 9, 69, 0
1, 50784, Note_on_c, 9, 69, 47
1, 50844, Note_off_c, 9, 36, 0
1, 50876, Note_off_c, 9, 69, 0
1, 50880, Note_on_c, 9, 69, 56
1, 50944, Note_off_c, 1, 38, 100
1, 50944, Note_off_c, 9, 69, 0
1, 50976, Note_on_c, 9, 69, 43
1, 50976, Note_on_c, 9, 56, 100
1, 50996, Note_off_c, 5, 50, 0
1, 51048, Note_off_c, 9, 69, 0
1, 51072, Note_on_c, 9, 54, 87
1, 51072, Note_on_c, 9, 69, 73
1, 51072, Note_on_c, 9, 70, 83
1, 51072, Note_on_c, 9, 39, 100
1, 51124, Note_off_c, 9, 70, 0
1, 51148, Note_off_c, 9, 54, 0
1, 51156, Note_off_c, 9, 69, 0
1, 51168, Note_on_c, 9, 69, 46
1, 51232, Note_off_c, 9, 56, 100
1, 51248, Control_c, 2, 1, 6
1, 51248, Note_off_c, 9, 69, 0
1, 51264, Note_on_c, 5, 65, 102
1, 51264, Note_on_c, 5, 69, 99
1, 51264, Note_on_c, 5, 74, 102
1, 51264, Note_on_c, 9, 69, 62
1, 51268, Note_off_c, 9, 69, 0
1, 51272, Control_c, 2, 1, 12
1, 51296, Control_c, 2, 1, 20
1, 51320, Control_c, 2, 1, 26
1, 51328, Note_off_c, 9, 39, 100
1, 51352, Note_off_c, 5, 69, 0
1, 51356, Control_c, 2, 1, 36
1, 51356, Note_off_c, 5, 65, 0
1, 51356, Note_off_c, 5, 74, 0
1, 51360, Note_on_c, 9, 69, 48
1, 51384, Control_c, 2, 1, 44
1, 51408, Control_c, 2, 1, 49
1, 51424, Note_off_c, 9, 69, 0
1, 51440, Control_c, 2, 1, 57
1, 51456, Note_on_c, 9, 54, 86
1, 51456, Note_on_c, 9, 69, 78
1, 51456, Note_on_c, 9, 70, 85
1, 51468, Control_c, 2, 1, 64
1, 51496, Control_c, 2, 1, 71
1, 51512, Note_off_c, 9, 54, 0
1, 51512, Note_off_c, 9, 70, 0
1, 51528, Note_off_c, 2, 69, 0
1, 51528, Control_c, 2, 1, 79
1, 51544, Note_off_c, 9, 69, 0
1, 51552, Note_on_c, 9, 69, 43
1, 51560, Control_c, 2, 1, 84
1, 51588, Control_c, 2, 1, 82
1, 51628, Note_off_c, 9, 69, 0
1, 51632, Control_c, 2, 1, 62
1, 51648, Note_on_c, 1, 38, 100
1, 51648, Note_on_c, 5, 50, 100
1, 51648, Note_on_c, 9, 69, 57
1, 51648, Note_on_c, 9, 36, 116
1, 51656, Note_off_c, 9, 69, 0
1, 51660, Control_c, 2, 1, 37
1, 51688, Control_c, 2, 1, 0
1, 51744, Note_on_c, 9, 69, 49
1, 51804, Note_off_c, 9, 36, 0
1, 51820, Note_off_c, 9, 69, 0
1, 51840, Note_on_c, 5, 65, 102
1, 51840, Note_on_c, 5, 69, 99
1, 51840, Note_on_c, 5, 74, 102
1, 51840, Note_on_c, 9, 54, 85
1, 51840, Note_on_c, 9, 69, 75
1, 51840, Note_on_c, 9, 39, 100
1, 51904, Note_off_c, 1, 38, 100
1, 51912, Note_off_c, 9, 54, 0
1, 51924, Note_off_c, 9, 69, 0
1, 51928, Note_off_c, 5, 69, 0
1, 51932, Note_off_c, 5, 65, 0
1, 51932, Note_off_c, 5, 74, 0
1, 51936, Note_on_c, 9, 69, 48
1, 51956, Note_off_c, 5, 50, 0
1, 52016, Note_off_c, 9, 69, 0
1, 52032, Note_on_c, 9, 69, 56
1, 52032, Note_on_c, 9, 36, 116
1, 52096, Note_off_c, 9, 39, 100
1, 52108, Note_off_c, 9, 69, 0
1, 52128, Note_on_c, 9, 69, 50
1, 52188, Note_off_c, 9, 36, 0
1, 52196, Note_off_c, 9, 69, 0
1, 52224, Note_on_c, 1, 38, 100
1, 52224, Note_on_c, 5, 50, 100
1, 52224, Note_on_c, 9, 54, 83
1, 52224, Note_on_c, 9, 69, 86
1, 52224, Note_on_c, 9, 70, 85
1, 52224, Note_on_c, 9, 36, 116
1, 52284, Note_off_c, 9, 54, 0
1, 52288, Note_off_c, 9, 70, 0
1, 52296, Note_off_c, 9, 69, 0
1, 52320, Note_on_c, 9, 69, 47
1, 52380, Note_off_c, 9, 36, 0
1, 52412, Note_off_c, 9, 69, 0
1, 52416, Note_on_c, 9, 69, 56
1, 52480, Note_off_c, 1, 38, 100
1, 52480, Note_off_c, 9, 69, 0
1, 52512, Note_on_c, 9, 69, 43
1, 52512, Note_on_c, 9, 56, 100
1, 52532, Note_off_c, 5, 50, 0
1, 52584, Note_off_c, 9, 69, 0
1, 52608, Note_on_c, 9, 54, 87
1, 52608, Note_on_c, 9, 69, 73
1, 52608, Note_on_c, 9, 70, 83
1, 52608, Note_on_c, 9, 39, 100
1, 52660, Note_off_c, 9, 70, 0
1, 52684, Note_off_c, 9, 54, 0
1, 52692, Note_off_c, 9, 69, 0
1, 52704, Note_on_c, 9, 69, 46
1, 52768, Note_off_c, 9, 56, 100
1, 52784, Note_off_c, 9, 69, 0
1, 52800, Note_on_c, 5, 65, 102
1, 52800, Note_on_c, 5, 69, 99
1, 52800, Note_on_c, 5, 74, 102
1, 52800, Note_on_c, 9, 69, 62
1, 52804, Note_off_c, 9, 69, 0
1, 52864, Note_off_c, 9, 39, 100
1, 52888, Note_off_c, 5, 69, 0
1, 52892, Note_off_c, 5, 65, 0
1, 52892, Note_off_c, 5, 74, 0
1, 52896, Note_on_c, 9, 69, 48
1, 52960, Note_off_c, 9, 69, 0
1, 52992, Note_on_c, 9, 54, 86
1, 52992, Note_on_c, 9, 69, 78
1, 52992, Note_on_c, 9, 70, 85
1, 53048, Note_off_c, 9, 54, 0
1, 53048, Note_off_c, 9, 70, 0
1, 53080, Note_off_c, 9, 69, 0
1, 53088, Note_on_c, 9, 69, 43
1, 53164, Note_off_c, 9, 69, 0
1, 53184, Note_on_c, 1, 38, 100
1, 53184, Note_on_c, 5, 50, 100
1, 53184, Note_on_c, 9, 69, 57
1, 53184, Note_on_c, 9, 36, 116
1, 53192, Note_off_c, 9, 69, 0
1, 53280, Note_on_c, 9, 69, 49
1, 53340, Note_off_c, 9, 36, 0
1, 53356, Note_off_c, 9, 69, 0
1, 53376, Note_on_c, 5, 65, 102
1, 53376, Note_on_c, 5, 69, 99
1, 53376, Note_on_c, 5, 74, 102
1, 53376, Note_on_c, 9, 54, 85
1, 53376, Note_on_c, 9, 69, 75
1, 53376, Note_on_c, 9, 39, 100
1, 53440, Note_off_c, 1, 38, 100
1, 53448, Note_off_c, 9, 54, 0
1, 53460, Note_off_c, 9, 69, 0
1, 53464, Note_off_c, 5, 69, 0
1, 53468, Note_off_c, 5, 65, 0
1, 53468, Note_off_c, 5, 74, 0
1, 53472, Note_on_c, 2, 64, 110
1, 53472, Note_on_c, 9, 69, 48
1, 53492, Note_off_c, 5, 50, 0
1, 53552, Note_off_c, 9, 69, 0
1, 53568, Note_on_c, 2, 72, 118
1, 53568, Note_on_c, 9, 69, 56
1, 53568, Note_on_c, 9, 36, 116
1, 53632, Note_off_c, 9, 39, 100
1, 53644, Note_off_c, 9, 69, 0
1, 53648, Note_off_c, 2, 64, 0
1, 53664, Note_on_c, 2, 71, 109
1, 53664, Note_on_c, 9, 69, 50
1, 53720, Note_off_c, 2, 72, 0
1, 53724, Note_off_c, 9, 36, 0
1, 53732, Note_off_c, 9, 69, 0
1, 53760, Note_on_c, 1, 33, 119
1, 53760, Note_on_c, 2, 69, 112
1, 53760, Note_on_c, 5, 45, 100
1, 53760, Note_on_c, 9, 54, 83
1, 53760, Note_on_c, 9, 69, 86
1, 53760, Note_on_c, 9, 70, 85
1, 53760, Note_on_c, 9, 36, 116
1, 53764, Note_off_c, 2, 71, 64
1, 53820, Note_off_c, 9, 54, 0
1, 53824, Note_off_c, 9, 70, 0
1, 53832, Note_off_c, 9, 69, 0
1, 53856, Note_on_c, 9, 69, 47
1, 53916, Note_off_c, 9, 36, 0
1, 53948, Note_off_c, 9, 69, 0
1, 53952, Note_on_c, 9, 69, 56
1, 54016, Note_off_c, 9, 69, 0
1, 54048, Note_on_c, 9, 69, 43
1, 54048, Note_on_c, 9, 56, 100
1, 54072, Note_off_c, 1, 33, 0
1, 54120, Note_off_c, 9, 69, 0
1, 54144, Note_on_c, 9, 54, 87
1, 54144, Note_on_c, 9, 69, 73
1, 54144, Note_on_c, 9, 70, 83
1, 54144, Note_on_c, 9, 39, 100
1, 54196, Note_off_c, 9, 70, 0
1, 54220, Note_off_c, 9, 54, 0
1, 54228, Note_off_c, 9, 69, 0
1, 54240, Note_on_c, 9, 69, 46
1, 54272, Note_off_c, 5, 45, 100
1, 54304, Note_off_c, 9, 56, 100
1, 54320, Control_c, 2, 1, 6
1, 54320, Note_off_c, 9, 69, 0
1, 54336, Note_on_c, 5, 60, 102
1, 54336, Note_on_c, 5, 64, 99
1, 54336, Note_on_c, 5, 69, 102
1, 54336, Note_on_c, 9, 69, 62
1, 54340, Note_off_c, 9, 69, 0
1, 54344, Control_c, 2, 1, 12
1, 54368, Control_c, 2, 1, 20
1, 54392, Control_c, 2, 1, 26
1, 54400, Note_off_c, 9, 39, 100
1, 54424, Note_off_c, 5, 64, 0
1, 54428, Control_c, 2, 1, 36
1, 54428, Note_off_c, 5, 60, 0
1, 54428, Note_off_c, 5, 69, 0
1, 54432, Note_on_c, 9, 69, 48
1, 54456, Control_c, 2, 1, 44
1, 54480, Control_c, 2, 1, 49
1, 54496, Note_off_c, 9, 69, 0
1, 54512, Control_c, 2, 1, 57
1, 54528, Note_on_c, 9, 54, 86
1, 54528, Note_on_c, 9, 69, 78
1, 54528, Note_on_c, 9, 70, 85
1, 54540, Control_c, 2, 1, 64
1, 54568, Control_c, 2, 1, 71
1, 54584, Note_off_c, 9, 54, 0
1, 54584, Note_off_c, 9, 70, 0
1, 54600, Note_off_c, 2, 69, 0
1, 54600, Control_c, 2, 1, 79
1, 54616, Note_off_c, 9, 69, 0
1, 54624, Note_on_c, 9, 69, 43
1, 54632, Control_c, 2, 1, 84
1, 54660, Control_c, 2, 1, 82
1, 54700, Note_off_c, 9, 69, 0
1, 54704, Control_c, 2, 1, 62
1, 54720, Note_on_c, 1, 33, 119
1, 54720, Note_on_c, 5, 45, 100
1, 54720, Note_on_c, 9, 69, 57
1, 54720, Note_on_c, 9, 36, 116
1, 54728, Note_off_c, 9, 69, 0
1, 54732, Control_c, 2, 1, 37
1, 54760, Control_c, 2, 1, 0
1, 54816, Note_on_c, 9, 69, 49
1, 54876, Note_off_c, 9, 36, 0
1, 54892, Note_off_c, 9, 69, 0
1, 54912, Note_on_c, 5, 60, 102
1, 54912, Note_on_c, 5, 64, 99
1, 54912, Note_on_c, 5, 69, 102
1, 54912, Note_on_c, 9, 54, 85
1, 54912, Note_on_c, 9, 69, 75
1, 54912, Note_on_c, 9, 39, 100
1, 54984, Note_off_c, 9, 54, 0
1, 54996, Note_off_c, 9, 69, 0
1, 55000, Note_off_c, 5, 64, 0
1, 55004, Note_off_c, 5, 60, 0
1, 55004, Note_off_c, 5, 69, 0
1, 55008, Note_on_c, 9, 69, 48
1, 55028, Note_off_c, 5, 45, 0
1, 55032, Note_off_c, 1, 33, 0
1, 55088, Note_off_c, 9, 69, 0
1, 55104, Note_on_c, 9, 69, 56
1, 55104, Note_on_c, 9, 36, 116
1, 55168, Note_off_c, 9, 39, 100
1, 55180, Note_off_c, 9, 69, 0
1, 55200, Note_on_c, 9, 69, 50
1, 55260, Note_off_c, 9, 36, 0
1, 55268, Note_off_c, 9, 69, 0
1, 55296, Note_on_c, 1, 33, 119
1, 55296, Note_on_c, 5, 45, 100
1, 55296, Note_on_c, 9, 54, 83
1, 55296, Note_on_c, 9, 69, 86
1, 55296, Note_on_c, 9, 70, 85
1, 55296, Note_on_c, 9, 36, 116
1, 55296, Note_on_c, 9, 39, 100
1, 55356, Note_off_c, 9, 54, 0
1, 55360, Note_off_c, 9, 70, 0
1, 55368, Note_off_c, 9, 69, 0
1, 55392, Note_on_c, 9, 69, 47
1, 55452, Note_off_c, 9, 36, 0
1, 55484, Note_off_c, 9, 69, 0
1, 55488, Note_on_c, 9, 69, 56
1, 55552, Note_off_c, 9, 39, 100
1, 55552, Note_off_c, 9, 69, 0
1, 55584, Note_on_c, 9, 69, 43
1, 55584, Note_on_c, 9, 56, 100
1, 55608, Note_off_c, 1, 33, 0
1, 55656, Note_off_c, 9, 69, 0
1, 55680, Note_on_c, 9, 54, 87
1, 55680, Note_on_c, 9, 69, 73
1, 55680, Note_on_c, 9, 70, 83
1, 55680, Note_on_c, 9, 39, 100
1, 55732, Note_off_c, 9, 70, 0
1, 55756, Note_off_c, 9, 54, 0
1, 55764, Note_off_c, 9, 69, 0
1, 55776, Note_on_c, 9, 69, 46
1, 55808, Note_off_c, 5, 45, 100
1, 55840, Note_off_c, 9, 56, 100
1, 55856, Note_off_c, 9, 69, 0
1, 55872, Note_on_c, 5, 60, 102
1, 55872, Note_on_c, 5, 64, 99
1, 55872, Note_on_c, 5, 69, 102
1, 55872, Note_on_c, 9, 69, 62
1, 55876, Note_off_c, 9, 69, 0
1, 55936, Note_off_c, 9, 39, 100
1, 55960, Note_off_c, 5, 64, 0
1, 55964, Note_off_c, 5, 60, 0
1, 55964, Note_off_c, 5, 69, 0
1, 55968, Note_on_c, 9, 69, 48
1, 56032, Note_off_c, 9, 69, 0
1, 56064, Note_on_c, 9, 54, 86
1, 56064, Note_on_c, 9, 69, 78
1, 56064, Note_on_c, 9, 70, 85
1, 56120, Note_off_c, 9, 54, 0
1, 56120, Note_off_c, 9, 70, 0
1, 56152, Note_off_c, 9, 69, 0
1, 56160, Note_on_c, 9, 69, 43
1, 56236, Note_off_c, 9, 69, 0
1, 56256, Note_on_c, 1, 33, 119
1, 56256, Note_on_c, 2, 64, 110
1, 56256, Note_on_c, 5, 45, 100
1, 56256, Note_on_c, 9, 69, 57
1, 56256, Note_on_c, 9, 36, 116
1, 56264, Note_off_c, 9, 69, 0
1, 56352, Note_on_c, 9, 69, 49
1, 56412, Note_off_c, 9, 36, 0
1, 56428, Note_off_c, 9, 69, 0
1, 56432, Note_off_c, 2, 64, 0
1, 56448, Note_on_c, 2, 72, 118
1, 56448, Note_on_c, 5, 60, 102
1, 56448, Note_on_c, 5, 64, 99
1, 56448, Note_on_c, 5, 69, 102
1, 56448, Note_on_c, 9, 54, 85
1, 56448, Note_on_c, 9, 69, 75
1, 56448, Note_on_c, 9, 39, 100
1, 56520, Note_off_c, 9, 54, 0
1, 56532, Note_off_c, 9, 69, 0
1, 56536, Note_off_c, 5, 64, 0
1, 56540, Note_off_c, 5, 60, 0
1, 56540, Note_off_c, 5, 69, 0
1, 56544, Note_on_c, 9, 69, 48
1, 56564, Note_off_c, 5, 45, 0
1, 56568, Note_off_c, 1, 33, 0
1, 56600, Note_off_c, 2, 72, 0
1, 56624, Note_off_c, 9, 69, 0
1, 56640, Note_on_c, 9, 69, 56
1, 56640, Note_on_c, 9, 36, 116
1, 56640, Note_on_c, 9, 66, 79
1, 56640, Note_on_c, 9, 69, 87
1, 56640, Note_on_c, 9, 36, 121
1, 56640, Note_on_c, 9, 42, 74
1, 56688, Note_off_c, 9, 66, 0
1, 56704, Note_off_c, 9, 39, 100
1, 56708, Note_off_c, 9, 42, 0
1, 56712, Note_off_c, 9, 69, 0
1, 56716, Note_off_c, 9, 69, 0
1, 56736, Note_on_c, 2, 71, 109
1, 56736, Note_on_c, 9, 69, 50
1, 56788, Note_off_c, 9, 36, 0
1, 56796, Note_off_c, 9, 36, 0
1, 56804, Note_off_c, 9, 69, 0
1, 56832, Note_on_c, 1, 33, 119
1, 56832, Note_on_c, 2, 69, 112
1, 56832, Note_on_c, 5, 45, 100
1, 56832, Note_on_c, 9, 54, 83
1, 56832, Note_on_c, 9, 69, 86
1, 56832, Note_on_c, 9, 70, 85
1, 56832, Note_on_c, 9, 36, 116
1, 56836, Note_off_c, 2, 71, 64
1, 56892, Note_off_c, 9, 54, 0
1, 56896, Note_off_c, 9, 70, 0
1, 56904, Note_off_c, 9, 69, 0
1, 56928, Note_on_c, 9, 69, 47
1, 56988, Note_off_c, 9, 36, 0
1, 57020, Note_off_c, 9, 69, 0
1, 57024, Note_on_c, 9, 69, 56
1, 57088, Note_off_c, 9, 69, 0
1, 57120, Note_on_c, 9, 69, 43
1, 57120, Note_on_c, 9, 56, 100
1, 57144, Note_off_c, 1, 33, 0
1, 57192, Note_off_c, 9, 69, 0
1, 57216, Note_on_c, 9, 54, 87
1, 57216, Note_on_c, 9, 69, 73
1, 57216, Note_on_c, 9, 70, 83
1, 57216, Note_on_c, 9, 39, 100
1, 57268, Note_off_c, 9, 70, 0
1, 57292, Note_off_c, 9, 54, 0
1, 57300, Note_off_c, 9, 69, 0
1, 57312, Note_on_c, 9, 69, 46
1, 57344, Note_off_c, 5, 45, 100
1, 57376, Note_off_c, 9, 56, 100
1, 57392, Control_c, 2, 1, 6
1, 57392, Note_off_c, 9, 69, 0
1, 57408, Note_on_c, 5, 60, 102
1, 57408, Note_on_c, 5, 64, 99
1, 57408, Note_on_c, 5, 69, 102
1, 57408, Note_on_c, 9, 69, 62
1, 57412, Note_off_c, 9, 69, 0
1, 57416, Control_c, 2, 1, 12
1, 57440, Control_c, 2, 1, 20
1, 57464, Control_c, 2, 1, 26
1, 57472, Note_off_c, 9, 39, 100
1, 57496, Note_off_c, 5, 64, 0
1, 57500, Control_c, 2, 1, 36
1, 57500, Note_off_c, 5, 60, 0
1, 57500, Note_off_c, 5, 69, 0
1, 57504, Note_on_c, 9, 69, 48
1, 57528, Control_c, 2, 1, 44
1, 57552, Control_c, 2, 1, 49
1, 57568, Note_off_c, 9, 69, 0
1, 57584, Control_c, 2, 1, 57
1, 57600, Note_on_c, 9, 54, 86
1, 57600, Note_on_c, 9, 69, 78
1, 57600, Note_on_c, 9, 70, 85
1, 57612, Control_c, 2, 1, 64
1, 57640, Control_c, 2, 1, 71
1, 57656, Note_off_c, 9, 54, 0
1, 57656, Note_off_c, 9, 70, 0
1, 57672, Note_off_c, 2, 69, 0
1, 57672, Control_c, 2, 1, 79
1, 57688, Note_off_c, 9, 69, 0
1, 57696, Note_on_c, 9, 69, 43
1, 57704, Control_c, 2, 1, 84
1, 57732, Control_c, 2, 1, 82
1, 57772, Note_off_c, 9, 69, 0
1, 57776, Control_c, 2, 1, 62
1, 57792, Note_on_c, 1, 33, 119
1, 57792, Note_on_c, 5, 45, 100
1, 57792, Note_on_c, 9, 69, 57
1, 57792, Note_on_c, 9, 36, 116
1, 57800, Note_off_c, 9, 69, 0
1, 57804, Control_c, 2, 1, 37
1, 57832, Control_c, 2, 1, 0
1, 57888, Note_on_c, 9, 69, 49
1, 57948, Note_off_c, 9, 36, 0
1, 57964, Note_off_c, 9, 69, 0
1, 57984, Note_on_c, 5, 60, 102
1, 57984, Note_on_c, 5, 64, 99
1, 57984, Note_on_c, 5, 69, 102
1, 57984, Note_on_c, 9, 54, 85
1, 57984, Note_on_c, 9, 69, 75
1, 57984, Note_on_c, 9, 39, 100
1, 58056, Note_off_c, 9, 54, 0
1, 58068, Note_off_c, 9, 69, 0
1, 58072, Note_off_c, 5, 64, 0
1, 58076, Note_off_c, 5, 60, 0
1, 58076, Note_off_c, 5, 69, 0
1, 58080, Note_on_c, 9, 69, 48
1, 58100, Note_off_c, 5, 45, 0
1, 58104, Note_off_c, 1, 33, 0
1, 58160, Note_off_c, 9, 69, 0
1, 58176, Note_on_c, 9, 69, 56
1, 58176, Note_on_c, 9, 36, 116
1, 58240, Note_off_c, 9, 39, 100
1, 58252, Note_off_c, 9, 69, 0
1, 58272, Note_on_c, 9, 69, 50
1, 58332, Note_off_c, 9, 36, 0
1, 58340, Note_off_c, 9, 69, 0
1, 58368, Note_on_c, 1, 33, 119
1, 58368, Note_on_c, 5, 45, 100
1, 58368, Note_on_c, 9, 54, 83
1, 58368, Note_on_c, 9, 69, 86
1, 58368, Note_on_c, 9, 70, 85
1, 58368, Note_on_c, 9, 36, 116
1, 58428, Note_off_c, 9, 54, 0
1, 58432, Note_off_c, 9, 70, 0
1, 58440, Note_off_c, 9, 69, 0
1, 58464, Note_on_c, 9, 69, 47
1, 58524, Note_off_c, 9, 36, 0
1, 58556, Note_off_c, 9, 69, 0
1, 58560, Note_on_c, 9, 69, 56
1, 58624, Note_off_c, 9, 69, 0
1, 58656, Note_on_c, 9, 69, 43
1, 58656, Note_on_c, 9, 56, 100
1, 58680, Note_off_c, 1, 33, 0
1, 58728, Note_off_c, 9, 69, 0
1, 58752, Note_on_c, 9, 54, 87
1, 58752, Note_on_c, 9, 69, 73
1, 58752, Note_on_c, 9, 70, 83
1, 58752, Note_on_c, 9, 39, 100
1, 58804, Note_off_c, 9, 70, 0
1, 58828, Note_off_c, 9, 54, 0
1, 58836, Note_off_c, 9, 69, 0
1, 58848, Note_on_c, 9, 69, 46
1, 58880, Note_off_c, 5, 45, 100
1, 58912, Note_off_c, 9, 56, 100
1, 58928, Note_off_c, 9, 69, 0
1, 58944, Note_on_c, 5, 60, 102
1, 58944, Note_on_c, 5, 64, 99
1, 58944, Note_on_c, 5, 69, 102
1, 58944, Note_on_c, 9, 69, 62
1, 58948, Note_off_c, 9, 69, 0
1, 59008, Note_off_c, 9, 39, 100
1, 59032, Note_off_c, 5, 64, 0
1, 59036, Note_off_c, 5, 60, 0
1, 59036, Note_off_c, 5, 69, 0
1, 59040, Note_on_c, 9, 69, 48
1, 59104, Note_off_c, 9, 69, 0
1, 59136, Note_on_c, 9, 54, 86
1, 59136, Note_on_c, 9, 69, 78
1, 59136, Note_on_c, 9, 70, 85
1, 59192, Note_off_c, 9, 54, 0
1, 59192, Note_off_c, 9, 70, 0
1, 59224, Note_off_c, 9, 69, 0
1, 59232, Note_on_c, 9, 69, 43
1, 59308, Note_off_c, 9, 69, 0
1, 59328, Note_on_c, 1, 33, 119
1, 59328, Note_on_c, 5, 45, 100
1, 59328, Note_on_c, 9, 69, 57
1, 59328, Note_on_c, 9, 36, 116
1, 59336, Note_off_c, 9, 69, 0
1, 59424, Note_on_c, 9, 69, 49
1, 59484, Note_off_c, 9, 36, 0
1, 59500, Note_off_c, 9, 69, 0
1, 59520, Note_on_c, 5, 60, 102
1, 59520, Note_on_c, 5, 64, 99
1, 59520, Note_on_c, 5, 69, 102
1, 59520, Note_on_c, 9, 54, 85
1, 59520, Note_on_c, 9, 69, 75
1, 59520, Note_on_c, 9, 39, 100
1, 59592, Note_off_c, 9, 54, 0
1, 59604, Note_off_c, 9, 69, 0
1, 59608, Note_off_c, 5, 64, 0
1, 59612, Note_off_c, 5, 60, 0
1, 59612, Note_off_c, 5, 69, 0
1, 59616, Note_on_c, 2, 64, 110
1, 59616, Note_on_c, 9, 69, 48
1, 59636, Note_off_c, 5, 45, 0
1, 59640, Note_off_c, 1, 33, 0
1, 59696, Note_off_c, 9, 69, 0
1, 59712, Note_on_c, 2, 72, 118
1, 59712, Note_on_c, 9, 69, 56
1, 59712, Note_on_c, 9, 36, 116
1, 59776, Note_off_c, 9, 39, 100
1, 59788, Note_off_c, 9, 69, 0
1, 59792, Note_off_c, 2, 64, 0
1, 59808, Note_on_c, 2, 71, 109
1, 59808, Note_on_c, 9, 69, 50
1, 59864, Note_off_c, 2, 72, 0
1, 59868, Note_off_c, 9, 36, 0
1, 59876, Note_off_c, 9, 69, 0
1, 59904, Note_on_c, 1, 33, 119
1, 59904, Note_on_c, 2, 69, 112
1, 59904, Note_on_c, 5, 45, 100
1, 59904, Note_on_c, 9, 54, 83
1, 59904, Note_on_c, 9, 69, 86
1, 59904, Note_on_c, 9, 70, 85
1, 59904, Note_on_c, 9, 36, 116
1, 59908, Note_off_c, 2, 71, 64
1, 59964, Note_off_c, 9, 54, 0
1, 59968, Note_off_c, 9, 70, 0
1, 59976, Note_off_c, 9, 69, 0
1, 60000, Note_on_c, 9, 69, 47
1, 60060, Note_off_c, 9, 36, 0
1, 60092, Note_off_c, 9, 69, 0
1, 60096, Note_on_c, 9, 69, 56
1, 60160, Note_off_c, 9, 69, 0
1, 60192, Note_on_c, 9, 69, 43
1, 60192, Note_on_c, 9, 56, 100
1, 60216, Note_off_c, 1, 33, 0
1, 60264, Note_off_c, 9, 69, 0
1, 60288, Note_on_c, 9, 54, 87
1, 60288, Note_on_c, 9, 69, 73
1, 60288, Note_on_c, 9, 70, 83
1, 60288, Note_on_c, 9, 39, 100
1, 60340, Note_off_c, 9, 70, 0
1, 60364, Note_off_c, 9, 54, 0
1, 60372, Note_off_c, 9, 69, 0
1, 60384, Note_on_c, 9, 69, 46
1, 60416, Note_off_c, 5, 45, 100
1, 60448, Note_off_c, 9, 56, 100
1, 60464, Control_c, 2, 1, 6
1, 60464, Note_off_c, 9, 69, 0
1, 60480, Note_on_c, 5, 60, 102
1, 60480, Note_on_c, 5, 64, 99
1, 60480, Note_on_c, 5, 69, 102
1, 60480, Note_on_c, 9, 69, 62
1, 60484, Note_off_c, 9, 69, 0
1, 60488, Control_c, 2, 1, 12
1, 60512, Control_c, 2, 1, 20
1, 60536, Control_c, 2, 1, 26
1, 60544, Note_off_c, 9, 39, 100
1, 60568, Note_off_c, 5, 64, 0
1, 60572, Control_c, 2, 1, 36
1, 60572, Note_off_c, 5, 60, 0
1, 60572, Note_off_c, 5, 69, 0
1, 60576, Note_on_c, 9, 69, 48
1, 60600, Control_c, 2, 1, 44
1, 60624, Control_c, 2, 1, 49
1, 60640, Note_off_c, 9, 69, 0
1, 60656, Control_c, 2, 1, 57
1, 60672, Note_on_c, 9, 54, 86
1, 60672, Note_on_c, 9, 69, 78
1, 60672, Note_on_c, 9, 70, 85
1, 60684, Control_c, 2, 1, 64
1, 60712, Control_c, 2, 1, 71
1, 60728, Note_off_c, 9, 54, 0
1, 60728, Note_off_c, 9, 70, 0
1, 60744, Note_off_c, 2, 69, 0
1, 60744, Control_c, 2, 1, 79
1, 60760, Note_off_c, 9, 69, 0
1, 60768, Note_on_c, 9, 69, 43
1, 60776, Control_c, 2, 1, 84
1, 60804, Control_c, 2, 1, 82
1, 60844, Note_off_c, 9, 69, 0
1, 60848, Control_c, 2, 1, 62
1, 60864, Note_on_c, 1, 33, 119
1, 60864, Note_on_c, 5, 45, 100
1, 60864, Note_on_c, 9, 69, 57
1, 60864, Note_on_c, 9, 36, 116
1, 60872, Note_off_c, 9, 69, 0
1, 60876, Control_c, 2, 1, 37
1, 60904, Control_c, 2, 1, 0
1, 60960, Note_on_c, 9, 69, 49
1, 61020, Note_off_c, 9, 36, 0
1, 61036, Note_off_c, 9, 69, 0
1, 61056, Note_on_c, 5, 60, 102
1, 61056, Note_on_c, 5, 64, 99
1, 61056, Note_on_c, 5, 69, 102
1, 61056, Note_on_c, 9, 54, 85
1, 61056, Note_on_c, 9, 69, 75
1, 61056, Note_on_c, 9, 39, 100
1, 61128, Note_off_c, 9, 54, 0
1, 61140, Note_off_c, 9, 69, 0
1, 61144, Note_off_c, 5, 64, 0
1, 61148, Note_off_c, 5, 60, 0
1, 61148, Note_off_c, 5, 69, 0
1, 61152, Note_on_c, 9, 69, 48
1, 61172, Note_off_c, 5, 45, 0
1, 61176, Note_off_c, 1, 33, 0
1, 61232, Note_off_c, 9, 69, 0
1, 61248, Note_on_c, 9, 69, 56
1, 61248, Note_on_c, 9, 36, 116
1, 61312, Note_off_c, 9, 39, 100
1, 61324, Note_off_c, 9, 69, 0
1, 61344, Note_on_c, 9, 69, 50
1, 61404, Note_off_c, 9, 36, 0
1, 61412, Note_off_c, 9, 69, 0
1, 61440, Note_on_c, 1, 33, 119
1, 61440, Note_on_c, 5, 45, 100
1, 61440, Note_on_c, 9, 54, 83
1, 61440, Note_on_c, 9, 69, 86
1, 61440, Note_on_c, 9, 70, 85
1, 61440, Note_on_c, 9, 36, 116
1, 61440, Note_on_c, 9, 39, 100
1, 61500, Note_off_c, 9, 54, 0
1, 61504, Note_off_c, 9, 70, 0
1, 61512, Note_off_c, 9, 69, 0
1, 61536, Note_on_c, 9, 69, 47
1, 61596, Note_off_c, 9, 36, 0
1, 61628, Note_off_c, 9, 69, 0
1, 61632, Note_on_c, 9, 69, 56
1, 61696, Note_off_c, 9, 39, 100
1, 61696, Note_off_c, 9, 69, 0
1, 61728, Note_on_c, 9, 69, 43
1, 61728, Note_on_c, 9, 56, 100
1, 61752, Note_off_c, 1, 33, 0
1, 61800, Note_off_c, 9, 69, 0
1, 61824, Note_on_c, 9, 54, 87
1, 61824, Note_on_c, 9, 69, 73
1, 61824, Note_on_c, 9, 70, 83
1, 61824, Note_on_c, 9, 39, 100
1, 61876, Note_off_c, 9, 70, 0
1, 61900, Note_off_c, 9, 54, 0
1, 61908, Note_off_c, 9, 69, 0
1, 61920, Note_on_c, 9, 69, 46
1, 61952, Note_off_c, 5, 45, 100
1, 61984, Note_off_c, 9, 56, 100
1, 62000, Note_off_c, 9, 69, 0
1, 62016, Note_on_c, 5, 60, 102
1, 62016, Note_on_c, 5, 64, 99
1, 62016, Note_on_c, 5, 69, 102
1, 62016, Note_on_c, 9, 69, 62
1, 62020, Note_off_c, 9, 69, 0
1, 62080, Note_off_c, 9, 39, 100
1, 62104, Note_off_c, 5, 64, 0
1, 62108, Note_off_c, 5, 60, 0
1, 62108, Note_off_c, 5, 69, 0
1, 62112, Note_on_c, 9, 69, 48
1, 62176, Note_off_c, 9, 69, 0
1, 62208, Note_on_c, 9, 54, 86
1, 62208, Note_on_c, 9, 69, 78
1, 62208, Note_on_c, 9, 70, 85
1, 62264, Note_off_c, 9, 54, 0
1, 62264, Note_off_c, 9, 70, 0
1, 62296, Note_off_c, 9, 69, 0
1, 62304, Note_on_c, 9, 69, 43
1, 62380, Note_off_c, 9, 69, 0
1, 62400, Note_on_c, 1, 33, 119
1, 62400, Note_on_c, 2, 64, 110
1, 62400, Note_on_c, 5, 45, 100
1, 62400, Note_on_c, 9, 69, 57
1, 62400, Note_on_c, 9, 36, 116
1, 62408, Note_off_c, 9, 69, 0
1, 62496, Note_on_c, 9, 69, 49
1, 62556, Note_off_c, 9, 36, 0
1, 62572, Note_off_c, 9, 69, 0
1, 62576, Note_off_c, 2, 64, 0
1, 62592, Note_on_c, 2, 72, 118
1, 62592, Note_on_c, 5, 60, 102
1, 62592, Note_on_c, 5, 64, 99
1, 62592, Note_on_c, 5, 69, 102
1, 62592, Note_on_c, 9, 54, 85
1, 62592, Note_on_c, 9, 69, 75
1, 62592, Note_on_c, 9, 39, 100
1, 62664, Note_off_c, 9, 54, 0
1, 62676, Note_off_c, 9, 69, 0
1, 62680, Note_off_c, 5, 64, 0
1, 62684, Note_off_c, 5, 60, 0
1, 62684, Note_off_c, 5, 69, 0
1, 62688, Note_on_c, 9, 69, 48
1, 62708, Note_off_c, 5, 45, 0
1, 62712, Note_off_c, 1, 33, 0
1, 62744, Note_off_c, 2, 72, 0
1, 62768, Note_off_c, 9, 69, 0
1, 62784, Note_on_c, 9, 69, 56
1, 62784, Note_on_c, 9, 36, 116
1, 62784, Note_on_c, 9, 66, 79
1, 62784, Note_on_c, 9, 69, 87
1, 62784, Note_on_c, 9, 36, 121
1, 62784, Note_on_c, 9, 42, 74
1, 62832, Note_off_c, 9, 66, 0
1, 62848, Note_off_c, 9, 39, 100
1, 62852, Note_off_c, 9, 42, 0
1, 62856, Note_off_c, 9, 69, 0
1, 62860, Note_off_c, 9, 69, 0
1, 62880, Note_on_c, 2, 71, 109
1, 62880, Note_on_c, 9, 69, 50
1, 62932, Note_off_c, 9, 36, 0
1, 62940, Note_off_c, 9, 36, 0
1, 62948, Note_off_c, 9, 69, 0
1, 62972, Note_on_c, 1, 33, 119
1, 62972, Note_on_c, 2, 69, 112
1, 62972, Note_on_c, 5, 45, 100
1, 62972, Note_on_c, 9, 54, 83
1, 62972, Note_on_c, 9, 69, 86
1, 62972, Note_on_c, 9, 70, 85
1, 62972, Note_on_c, 9, 36, 116
1, 62976, Note_off_c, 2, 71, 64
1, 62976, Tempo, 631578
1, 63032, Note_off_c, 9, 54, 64
1, 63036, Note_off_c, 9, 70, 64
1, 63068, Note_on_c, 9, 69, 47
1, 63128, Note_off_c, 9, 36, 64
1, 63160, Note_off_c, 9, 69, 0
1, 63164, Note_on_c, 9, 69, 56
1, 63228, Note_off_c, 9, 69, 0
1, 63260, Note_on_c, 9, 69, 43
1, 63260, Note_on_c, 9, 56, 100
1, 63284, Note_off_c, 1, 33, 64
1, 63332, Note_off_c, 9, 69, 0
1, 63356, Note_on_c, 9, 54, 87
1, 63356, Note_on_c, 9, 69, 73
1, 63356, Note_on_c, 9, 70, 83
1, 63356, Note_on_c, 9, 39, 100
1, 63408, Note_off_c, 9, 70, 0
1, 63432, Note_off_c, 9, 54, 0
1, 63440, Note_off_c, 9, 69, 0
1, 63452, Note_on_c, 9, 69, 46
1, 63484, Note_off_c, 5, 45, 64
1, 63516, Note_off_c, 9, 56, 100
1, 63532, Control_c, 2, 1, 6
1, 63532, Note_off_c, 9, 69, 0
1, 63548, Note_on_c, 5, 60, 102
1, 63548, Note_on_c, 5, 64, 99
1, 63548, Note_on_c, 5, 69, 102
1, 63548, Note_on_c, 9, 69, 62
1, 63552, Note_off_c, 9, 69, 0
1, 63556, Control_c, 2, 1, 12
1, 63580, Control_c, 2, 1, 20
1, 63604, Control_c, 2, 1, 26
1, 63612, Note_off_c, 9, 39, 100
1, 63636, Note_off_c, 5, 64, 0
1, 63640, Control_c, 2, 1, 36
1, 63640, Note_off_c, 5, 60, 0
1, 63640, Note_off_c, 5, 69, 0
1, 63644, Note_on_c, 9, 69, 48
1, 63668, Control_c, 2, 1, 44
1, 63692, Control_c, 2, 1, 49
1, 63708, Note_off_c, 9, 69, 0
1, 63724, Control_c, 2, 1, 57
1, 63740, Note_on_c, 9, 54, 86
1, 63740, Note_on_c, 9, 69, 78
1, 63740, Note_on_c, 9, 70, 85
1, 63752, Control_c, 2, 1, 64
1, 63780, Control_c, 2, 1, 71
1, 63796, Note_off_c, 9, 54, 0
1, 63796, Note_off_c, 9, 70, 0
1, 63812, Note_off_c, 2, 69, 64
1, 63812, Control_c, 2, 1, 79
1, 63812, Note_off_c, 9, 69, 64
1, 63828, Note_off_c, 9, 69, 0
1, 63836, Note_on_c, 9, 69, 43
1, 63844, Control_c, 2, 1, 84
1, 63872, Control_c, 2, 1, 82
1, 63912, Note_off_c, 9, 69, 0
1, 63916, Control_c, 2, 1, 62
1, 63932, Note_on_c, 1, 33, 119
1, 63932, Note_on_c, 5, 45, 100
1, 63932, Note_on_c, 9, 69, 57
1, 63932, Note_on_c, 9, 36, 116
1, 63940, Note_off_c, 9, 69, 0
1, 63944, Control_c, 2, 1, 37
1, 63972, Control_c, 2, 1, 0
1, 64028, Note_on_c, 9, 69, 49
1, 64088, Note_off_c, 9, 36, 0
1, 64104, Note_off_c, 9, 69, 0
1, 64124, Note_on_c, 5, 60, 102
1, 64124, Note_on_c, 5, 64, 99
1, 64124, Note_on_c, 5, 69, 102
1, 64124, Note_on_c, 9, 54, 85
1, 64124, Note_on_c, 9, 69, 75
1, 64124, Note_on_c, 9, 39, 100
1, 64196, Note_off_c, 9, 54, 0
1, 64208, Note_off_c, 9, 69, 0
1, 64212, Note_off_c, 5, 64, 0
1, 64216, Note_off_c, 5, 60, 0
1, 64216, Note_off_c, 5, 69, 0
1, 64220, Note_on_c, 9, 69, 48
1, 64240, Note_off_c, 5, 45, 0
1, 64244, Note_off_c, 1, 33, 0
1, 64300, Note_off_c, 9, 69, 0
1, 64316, Note_on_c, 9, 69, 56
1, 64316, Note_on_c, 9, 36, 116
1, 64380, Note_off_c, 9, 39, 100
1, 64392, Note_off_c, 9, 69, 0
1, 64412, Note_on_c, 9, 69, 50
1, 64472, Note_off_c, 9, 36, 0
1, 64480, Note_off_c, 9, 69, 0
1, 64508, Note_on_c, 1, 33, 119
1, 64508, Note_on_c, 5, 45, 100
1, 64508, Note_on_c, 9, 54, 83
1, 64508, Note_on_c, 9, 69, 86
1, 64508, Note_on_c, 9, 70, 85
1, 64508, Note_on_c, 9, 36, 116
1, 64568, Note_off_c, 9, 54, 64
1, 64572, Note_off_c, 9, 70, 64
1, 64580, Note_off_c, 9, 69, 64
1, 64604, Note_on_c, 9, 69, 47
1, 64664, Note_off_c, 9, 36, 64
1, 64696, Note_off_c, 9, 69, 0
1, 64700, Note_on_c, 9, 69, 56
1, 64764, Note_off_c, 9, 69, 0
1, 64796, Note_on_c, 9, 69, 43
1, 64796, Note_on_c, 9, 56, 100
1, 64820, Note_off_c, 1, 33, 64
1, 64868, Note_off_c, 9, 69, 0
1, 64892, Note_on_c, 9, 54, 87
1, 64892, Note_on_c, 9, 69, 73
1, 64892, Note_on_c, 9, 70, 83
1, 64892, Note_on_c, 9, 39, 100
1, 64944, Note_off_c, 9, 70, 0
1, 64968, Note_off_c, 9, 54, 0
1, 64976, Note_off_c, 9, 69, 0
1, 64988, Note_on_c, 9, 69, 46
1, 65020, Note_off_c, 5, 45, 64
1, 65052, Note_off_c, 9, 56, 100
1, 65068, Note_off_c, 9, 69, 0
1, 65084, Note_on_c, 5, 60, 102
1, 65084, Note_on_c, 5, 64, 99
1, 65084, Note_on_c, 5, 69, 102
1, 65084, Note_on_c, 9, 69, 62
1, 65088, Note_off_c, 9, 69, 0
1, 65148, Note_off_c, 9, 39, 100
1, 65172, Note_off_c, 5, 64, 0
1, 65176, Note_off_c, 5, 60, 0
1, 65176, Note_off_c, 5, 69, 0
1, 65180, Note_on_c, 9, 69, 48
1, 65244, Note_off_c, 9, 69, 0
1, 65276, Note_on_c, 9, 54, 86
1, 65276, Note_on_c, 9, 69, 78
1, 65276, Note_on_c, 9, 70, 85
1, 65332, Note_off_c, 9, 54, 0
1, 65332, Note_off_c, 9, 70, 0
1, 65364, Note_off_c, 9, 69, 0
1, 65372, Note_on_c, 9, 69, 43
1, 65448, Note_off_c, 9, 69, 0
1, 65468, Note_on_c, 1, 33, 119
1, 65468, Note_on_c, 5, 45, 100
1, 65468, Note_on_c, 9, 69, 57
1, 65468, Note_on_c, 9, 36, 116
1, 65476, Note_off_c, 9, 69, 0
1, 65564, Note_on_c, 9, 69, 49
1, 65624, Note_off_c, 9, 36, 0
1, 65640, Note_off_c, 9, 69, 0
1, 65660, Note_on_c, 5, 60, 102
1, 65660, Note_on_c, 5, 64, 99
1, 65660, Note_on_c, 5, 69, 102
1, 65660, Note_on_c, 9, 54, 85
1, 65660, Note_on_c, 9, 69, 75
1, 65660, Note_on_c, 9, 39, 100
1, 65732, Note_off_c, 9, 54, 0
1, 65744, Note_off_c, 9, 69, 0
1, 65748, Note_off_c, 5, 64, 0
1, 65752, Note_off_c, 5, 60, 0
1, 65752, Note_off_c, 5, 69, 0
1, 65756, Note_on_c, 2, 64, 110
1, 65756, Note_on_c, 9, 69, 48
1, 65776, Note_off_c, 5, 45, 0
1, 65780, Note_off_c, 1, 33, 0
1, 65836, Note_off_c, 9, 69, 0
1, 65852, Note_on_c, 2, 72, 118
1, 65852, Note_on_c, 9, 69, 56
1, 65852, Note_on_c, 9, 36, 116
1, 65916, Note_off_c, 9, 39, 100
1, 65928, Note_off_c, 9, 69, 0
1, 65932, Note_off_c, 2, 64, 0
1, 65948, Note_on_c, 2, 71, 109
1, 65948, Note_on_c, 9, 69, 50
1, 66004, Note_off_c, 2, 72, 0
1, 66008, Note_off_c, 9, 36, 0
1, 66016, Note_off_c, 9, 69, 0
1, 66044, Note_on_c, 1, 33, 119
1, 66044, Note_on_c, 2, 69, 112
1, 66044, Note_on_c, 5, 45, 100
1, 66044, Note_on_c, 9, 54, 83
1, 66044, Note_on_c, 9, 69, 86
1, 66044, Note_on_c, 9, 70, 85
1, 66044, Note_on_c, 9, 36, 116
1, 66048, Note_off_c, 2, 71, 64
1, 66104, Note_off_c, 9, 54, 64
1, 66108, Note_off_c, 9, 70, 64
1, 66140, Note_on_c, 9, 69, 47
1, 66200, Note_off_c, 9, 36, 64
1, 66232, Note_off_c, 9, 69, 0
1, 66236, Note_on_c, 9, 69, 56
1, 66300, Note_off_c, 9, 69, 0
1, 66332, Note_on_c, 9, 69, 43
1, 66332, Note_on_c, 9, 56, 100
1, 66356, Note_off_c, 1, 33, 64
1, 66404, Note_off_c, 9, 69, 0
1, 66428, Note_on_c, 9, 54, 87
1, 66428, Note_on_c, 9, 69, 73
1, 66428, Note_on_c, 9, 70, 83
1, 66428, Note_on_c, 9, 39, 100
1, 66480, Note_off_c, 9, 70, 0
1, 66504, Note_off_c, 9, 54, 0
1, 66512, Note_off_c, 9, 69, 0
1, 66524, Note_on_c, 9, 69, 46
1, 66556, Note_off_c, 5, 45, 64
1, 66588, Note_off_c, 9, 56, 100
1, 66604, Control_c, 2, 1, 6
1, 66604, Note_off_c, 9, 69, 0
1, 66620, Note_on_c, 5, 60, 102
1, 66620, Note_on_c, 5, 64, 99
1, 66620, Note_on_c, 5, 69, 102
1, 66620, Note_on_c, 9, 69, 62
1, 66624, Note_off_c, 9, 69, 0
1, 66628, Control_c, 2, 1, 12
1, 66652, Control_c, 2, 1, 20
1, 66676, Control_c, 2, 1, 26
1, 66684, Note_off_c, 9, 39, 100
1, 66708, Note_off_c, 5, 64, 0
1, 66712, Control_c, 2, 1, 36
1, 66712, Note_off_c, 5, 60, 0
1, 66712, Note_off_c, 5, 69, 0
1, 66716, Note_on_c, 9, 69, 48
1, 66740, Control_c, 2, 1, 44
1, 66764, Control_c, 2, 1, 49
1, 66780, Note_off_c, 9, 69, 0
1, 66796, Control_c, 2, 1, 57
1, 66812, Note_on_c, 9, 54, 86
1, 66812, Note_on_c, 9, 69, 78
1, 66812, Note_on_c, 9, 70, 85
1, 66824, Control_c, 2, 1, 64
1, 66852, Control_c, 2, 1, 71
1, 66868, Note_off_c, 9, 54, 0
1, 66868, Note_off_c, 9, 70, 0
1, 66884, Note_off_c, 2, 69, 64
1, 66884, Control_c, 2, 1, 79
1, 66884, Note_off_c, 9, 69, 64
1, 66900, Note_off_c, 9, 69, 0
1, 66908, Note_on_c, 9, 69, 43
1, 66916, Control_c, 2, 1, 84
1, 66944, Control_c, 2, 1, 82
1, 66984, Note_off_c, 9, 69, 0
1, 66988, Control_c, 2, 1, 62
1, 67004, Note_on_c, 1, 33, 119
1, 67004, Note_on_c, 5, 45, 100
1, 67004, Note_on_c, 9, 69, 57
1, 67004, Note_on_c, 9, 36, 116
1, 67012, Note_off_c, 9, 69, 0
1, 67016, Control_c, 2, 1, 37
1, 67044, Control_c, 2, 1, 0
1, 67100, Note_on_c, 9, 69, 49
1, 67160, Note_off_c, 9, 36, 0
1, 67176, Note_off_c, 9, 69, 0
1, 67196, Note_on_c, 5, 60, 102
1, 67196, Note_on_c, 5, 64, 99
1, 67196, Note_on_c, 5, 69, 102
1, 67196, Note_on_c, 9, 54, 85
1, 67196, Note_on_c, 9, 69, 75
1, 67196, Note_on_c, 9, 39, 100
1, 67268, Note_off_c, 9, 54, 0
1, 67280, Note_off_c, 9, 69, 0
1, 67284, Note_off_c, 5, 64, 0
1, 67288, Note_off_c, 5, 60, 0
1, 67288, Note_off_c, 5, 69, 0
1, 67292, Note_on_c, 9, 69, 48
1, 67312, Note_off_c, 5, 45, 0
1, 67316, Note_off_c, 1, 33, 0
1, 67372, Note_off_c, 9, 69, 0
1, 67388, Note_on_c, 9, 69, 56
1, 67388, Note_on_c, 9, 36, 116
1, 67452, Note_off_c, 9, 39, 100
1, 67464, Note_off_c, 9, 69, 0
1, 67484, Note_on_c, 9, 69, 50
1, 67544, Note_off_c, 9, 36, 0
1, 67552, Note_off_c, 9, 69, 0
1, 67580, Note_on_c, 1, 33, 119
1, 67580, Note_on_c, 5, 45, 100
1, 67580, Note_on_c, 9, 54, 83
1, 67580, Note_on_c, 9, 69, 86
1, 67580, Note_on_c, 9, 70, 85
1, 67580, Note_on_c, 9, 36, 116
1, 67580, Note_on_c, 9, 39, 100
1, 67640, Note_off_c, 9, 54, 64
1, 67644, Note_off_c, 9, 70, 64
1, 67652, Note_off_c, 9, 69, 64
1, 67676, Note_on_c, 9, 69, 47
1, 67736, Note_off_c, 9, 36, 64
1, 67768, Note_off_c, 9, 69, 0
1, 67772, Note_on_c, 9, 69, 56
1, 67836, Note_off_c, 9, 39, 64
1, 67836, Note_off_c, 9, 69, 0
1, 67868, Note_on_c, 9, 69, 43
1, 67868, Note_on_c, 9, 56, 100
1, 67892, Note_off_c, 1, 33, 64
1, 67940, Note_off_c, 9, 69, 0
1, 67964, Note_on_c, 9, 54, 87
1, 67964, Note_on_c, 9, 69, 73
1, 67964, Note_on_c, 9, 70, 83
1, 67964, Note_on_c, 9, 39, 100
1, 68016, Note_off_c, 9, 70, 0
1, 68040, Note_off_c, 9, 54, 0
1, 68048, Note_off_c, 9, 69, 0
1, 68060, Note_on_c, 9, 69, 46
1, 68092, Note_off_c, 5, 45, 64
1, 68124, Note_off_c, 9, 56, 100
1, 68140, Note_off_c, 9, 69, 0
1, 68156, Note_on_c, 5, 60, 102
1, 68156, Note_on_c, 5, 64, 99
1, 68156, Note_on_c, 5, 69, 102
1, 68156, Note_on_c, 9, 69, 62
1, 68160, Note_off_c, 9, 69, 0
1, 68220, Note_off_c, 9, 39, 100
1, 68244, Note_off_c, 5, 64, 0
1, 68248, Note_off_c, 5, 60, 0
1, 68248, Note_off_c, 5, 69, 0
1, 68252, Note_on_c, 9, 69, 48
1, 68316, Note_off_c, 9, 69, 0
1, 68348, Note_on_c, 9, 54, 86
1, 68348, Note_on_c, 9, 69, 78
1, 68348, Note_on_c, 9, 70, 85
1, 68404, Note_off_c, 9, 54, 0
1, 68404, Note_off_c, 9, 70, 0
1, 68436, Note_off_c, 9, 69, 0
1, 68444, Note_on_c, 9, 69, 43
1, 68520, Note_off_c, 9, 69, 0
1, 68540, Note_on_c, 1, 33, 119
1, 68540, Note_on_c, 2, 64, 110
1, 68540, Note_on_c, 5, 45, 100
1, 68540, Note_on_c, 9, 69, 57
1, 68540, Note_on_c, 9, 36, 116
1, 68548, Note_off_c, 9, 69, 0
1, 68636, Note_on_c, 9, 69, 49
1, 68696, Note_off_c, 9, 36, 0
1, 68712, Note_off_c, 9, 69, 0
1, 68716, Note_off_c, 2, 64, 0
1, 68732, Note_on_c, 2, 72, 118
1, 68732, Note_on_c, 5, 60, 102
1, 68732, Note_on_c, 5, 64, 99
1, 68732, Note_on_c, 5, 69, 102
1, 68732, Note_on_c, 9, 54, 85
1, 68732, Note_on_c, 9, 69, 75
1, 68732, Note_on_c, 9, 39, 100
1, 68804, Note_off_c, 9, 54, 0
1, 68816, Note_off_c, 9, 69, 0
1, 68820, Note_off_c, 5, 64, 0
1, 68824, Note_off_c, 5, 60, 0
1, 68824, Note_off_c, 5, 69, 0
1, 68828, Note_on_c, 9, 69, 48
1, 68848, Note_off_c, 5, 45, 0
1, 68852, Note_off_c, 1, 33, 0
1, 68884, Note_off_c, 2, 72, 0
1, 68908, Note_off_c, 9, 69, 0
1, 68924, Note_on_c, 9, 69, 56
1, 68924, Note_on_c, 9, 36, 116
1, 68924, Note_on_c, 9, 66, 79
1, 68924, Note_on_c, 9, 69, 87
1, 68924, Note_on_c, 9, 36, 121
1, 68924, Note_on_c, 9, 42, 74
1, 68972, Note_off_c, 9, 66, 0
1, 68988, Note_off_c, 9, 39, 100
1, 68992, Note_off_c, 9, 42, 0
1, 68996, Note_off_c, 9, 69, 0
1, 69000, Note_off_c, 9, 69, 0
1, 69020, Note_on_c, 2, 71, 109
1, 69020, Note_on_c, 9, 69, 50
1, 69072, Note_off_c, 9, 36, 0
1, 69080, Note_off_c, 9, 36, 0
1, 69088, Note_off_c, 9, 69, 0
1, 69116, Note_on_c, 1, 38, 100
1, 69116, Note_on_c, 2, 69, 112
1, 69116, Note_on_c, 5, 50, 100
1, 69116, Note_on_c, 9, 54, 83
1, 69116, Note_on_c, 9, 69, 86
1, 69116, Note_on_c, 9, 70, 85
1, 69116, Note_on_c, 9, 36, 116
1, 69120, Note_off_c, 2, 71, 64
1, 69176, Note_off_c, 9, 54, 64
1, 69180, Note_off_c, 9, 70, 64
1, 69212, Note_on_c, 9, 69, 47
1, 69272, Note_off_c, 9, 36, 64
1, 69304, Note_off_c, 9, 69, 0
1, 69308, Note_on_c, 9, 69, 56
1, 69372, Note_off_c, 1, 38, 64
1, 69372, Note_off_c, 9, 69, 0
1, 69404, Note_on_c, 9, 69, 43
1, 69404, Note_on_c, 9, 56, 100
1, 69424, Note_off_c, 5, 50, 64
1, 69476, Note_off_c, 9, 69, 0
1, 69500, Note_on_c, 9, 54, 87
1, 69500, Note_on_c, 9, 69, 73
1, 69500, Note_on_c, 9, 70, 83
1, 69500, Note_on_c, 9, 39, 100
1, 69552, Note_off_c, 9, 70, 0
1, 69576, Note_off_c, 9, 54, 0
1, 69584, Note_off_c, 9, 69, 0
1, 69596, Note_on_c, 9, 69, 46
1, 69660, Note_off_c, 9, 56, 100
1, 69676, Control_c, 2, 1, 6
1, 69676, Note_off_c, 9, 69, 0
1, 69692, Note_on_c, 5, 65, 102
1, 69692, Note_on_c, 5, 69, 99
1, 69692, Note_on_c, 5, 74, 102
1, 69692, Note_on_c, 9, 69, 62
1, 69696, Note_off_c, 9, 69, 0
1, 69700, Control_c, 2, 1, 12
1, 69724, Control_c, 2, 1, 20
1, 69748, Control_c, 2, 1, 26
1, 69756, Note_off_c, 9, 39, 100
1, 69780, Note_off_c, 5, 69, 0
1, 69784, Control_c, 2, 1, 36
1, 69784, Note_off_c, 5, 65, 0
1, 69784, Note_off_c, 5, 74, 0
1, 69788, Note_on_c, 9, 69, 48
1, 69812, Control_c, 2, 1, 44
1, 69836, Control_c, 2, 1, 49
1, 69852, Note_off_c, 9, 69, 0
1, 69868, Control_c, 2, 1, 57
1, 69884, Note_on_c, 9, 54, 86
1, 69884, Note_on_c, 9, 69, 78
1, 69884, Note_on_c, 9, 70, 85
1, 69896, Control_c, 2, 1, 64
1, 69924, Control_c, 2, 1, 71
1, 69940, Note_off_c, 9, 54, 0
1, 69940, Note_off_c, 9, 70, 0
1, 69956, Note_off_c, 2, 69, 64
1, 69956, Control_c, 2, 1, 79
1, 69956, Note_off_c, 9, 69, 64
1, 69972, Note_off_c, 9, 69, 0
1, 69980, Note_on_c, 9, 69, 43
1, 69988, Control_c, 2, 1, 84
1, 70016, Control_c, 2, 1, 82
1, 70056, Note_off_c, 9, 69, 0
1, 70060, Control_c, 2, 1, 62
1, 70076, Note_on_c, 1, 38, 100
1, 70076, Note_on_c, 5, 50, 100
1, 70076, Note_on_c, 9, 69, 57
1, 70076, Note_on_c, 9, 36, 116
1, 70084, Note_off_c, 9, 69, 0
1, 70088, Control_c, 2, 1, 37
1, 70116, Control_c, 2, 1, 0
1, 70172, Note_on_c, 9, 69, 49
1, 70232, Note_off_c, 9, 36, 0
1, 70248, Note_off_c, 9, 69, 0
1, 70268, Note_on_c, 5, 65, 102
1, 70268, Note_on_c, 5, 69, 99
1, 70268, Note_on_c, 5, 74, 102
1, 70268, Note_on_c, 9, 54, 85
1, 70268, Note_on_c, 9, 69, 75
1, 70268, Note_on_c, 9, 39, 100
1, 70332, Note_off_c, 1, 38, 100
1, 70340, Note_off_c, 9, 54, 0
1, 70352, Note_off_c, 9, 69, 0
1, 70356, Note_off_c, 5, 69, 0
1, 70360, Note_off_c, 5, 65, 0
1, 70360, Note_off_c, 5, 74, 0
1, 70364, Note_on_c, 9, 69, 48
1, 70384, Note_off_c, 5, 50, 0
1, 70444, Note_off_c, 9, 69, 0
1, 70460, Note_on_c, 9, 69, 56
1, 70460, Note_on_c, 9, 36, 116
1, 70524, Note_off_c, 9, 39, 100
1, 70536, Note_off_c, 9, 69, 0
1, 70556, Note_on_c, 9, 69, 50
1, 70616, Note_off_c, 9, 36, 0
1, 70624, Note_off_c, 9, 69, 0
1, 70652, Note_on_c, 1, 38, 100
1, 70652, Note_on_c, 5, 50, 100
1, 70652, Note_on_c, 9, 54, 83
1, 70652, Note_on_c, 9, 69, 86
1, 70652, Note_on_c, 9, 70, 85
1, 70652, Note_on_c, 9, 36, 116
1, 70712, Note_off_c, 9, 54, 64
1, 70716, Note_off_c, 9, 70, 64
1, 70724, Note_off_c, 9, 69, 64
1, 70748, Note_on_c, 9, 69, 47
1, 70808, Note_off_c, 9, 36, 64
1, 70840, Note_off_c, 9, 69, 0
1, 70844, Note_on_c, 9, 69, 56
1, 70908, Note_off_c, 1, 38, 64
1, 70908, Note_off_c, 9, 69, 0
1, 70940, Note_on_c, 9, 69, 43
1, 70940, Note_on_c, 9, 56, 100
1, 70960, Note_off_c, 5, 50, 64
1, 71012, Note_off_c, 9, 69, 0
1, 71036, Note_on_c, 9, 54, 87
1, 71036, Note_on_c, 9, 69, 73
1, 71036, Note_on_c, 9, 70, 83
1, 71036, Note_on_c, 9, 39, 100
1, 71088, Note_off_c, 9, 70, 0
1, 71112, Note_off_c, 9, 54, 0
1, 71120, Note_off_c, 9, 69, 0
1, 71132, Note_on_c, 9, 69, 46
1, 71196, Note_off_c, 9, 56, 100
1, 71212, Note_off_c, 9, 69, 0
1, 71228, Note_on_c, 5, 65, 102
1, 71228, Note_on_c, 5, 69, 99
1, 71228, Note_on_c, 5, 74, 102
1, 71228, Note_on_c, 9, 69, 62
1, 71232, Note_off_c, 9, 69, 0
1, 71292, Note_off_c, 9, 39, 100
1, 71316, Note_off_c, 5, 69, 0
1, 71320, Note_off_c, 5, 65, 0
1, 71320, Note_off_c, 5, 74, 0
1, 71324, Note_on_c, 9, 69, 48
1, 71388, Note_off_c, 9, 69, 0
1, 71420, Note_on_c, 9, 54, 86
1, 71420, Note_on_c, 9, 69, 78
1, 71420, Note_on_c, 9, 70, 85
1, 71476, Note_off_c, 9, 54, 0
1, 71476, Note_off_c, 9, 70, 0
1, 71508, Note_off_c, 9, 69, 0
1, 71516, Note_on_c, 9, 69, 43
1, 71592, Note_off_c, 9, 69, 0
1, 71612, Note_on_c, 1, 38, 100
1, 71612, Note_on_c, 5, 50, 100
1, 71612, Note_on_c, 9, 69, 57
1, 71612, Note_on_c, 9, 36, 116
1, 71620, Note_off_c, 9, 69, 0
1, 71708, Note_on_c, 9, 69, 49
1, 71768, Note_off_c, 9, 36, 0
1, 71784, Note_off_c, 9, 69, 0
1, 71804, Note_on_c, 5, 65, 102
1, 71804, Note_on_c, 5, 69, 99
1, 71804, Note_on_c, 5, 74, 102
1, 71804, Note_on_c, 9, 54, 85
1, 71804, Note_on_c, 9, 69, 75
1, 71804, Note_on_c, 9, 39, 100
1, 71868, Note_off_c, 1, 38, 100
1, 71876, Note_off_c, 9, 54, 0
1, 71888, Note_off_c, 9, 69, 0
1, 71892, Note_off_c, 5, 69, 0
1, 71896, Note_off_c, 5, 65, 0
1, 71896, Note_off_c, 5, 74, 0
1, 71900, Note_on_c, 2, 64, 110
1, 71900, Note_on_c, 9, 69, 48
1, 71920, Note_off_c, 5, 50, 0
1, 71980, Note_off_c, 9, 69, 0
1, 71996, Note_on_c, 2, 72, 118
1, 71996, Note_on_c, 9, 69, 56
1, 71996, Note_on_c, 9, 36, 116
1, 72060, Note_off_c, 9, 39, 100
1, 72072, Note_off_c, 9, 69, 0
1, 72076, Note_off_c, 2, 64, 0
1, 72092, Note_on_c, 2, 71, 109
1, 72092, Note_on_c, 9, 69, 50
1, 72148, Note_off_c, 2, 72, 0
1, 72152, Note_off_c, 9, 36, 0
1, 72160, Note_off_c, 9, 69, 0
1, 72188, Note_on_c, 1, 33, 119
1, 72188, Note_on_c, 2, 69, 112
1, 72188, Note_on_c, 5, 45, 100
1, 72188, Note_on_c, 9, 54, 83
1, 72188, Note_on_c, 9, 69, 86
1, 72188, Note_on_c, 9, 70, 85
1, 72188, Note_on_c, 9, 36, 116
1, 72192, Note_off_c, 2, 71, 64
1, 72248, Note_off_c, 9, 54, 64
1, 72252, Note_off_c, 9, 70, 64
1, 72284, Note_on_c, 9, 69, 47
1, 72344, Note_off_c, 9, 36, 64
1, 72376, Note_off_c, 9, 69, 0
1, 72380, Note_on_c, 9, 69, 56
1, 72444, Note_off_c, 9, 69, 0
1, 72476, Note_on_c, 9, 69, 43
1, 72476, Note_on_c, 9, 56, 100
1, 72500, Note_off_c, 1, 33, 64
1, 72548, Note_off_c, 9, 69, 0
1, 72572, Note_on_c, 9, 54, 87
1, 72572, Note_on_c, 9, 69, 73
1, 72572, Note_on_c, 9, 70, 83
1, 72572, Note_on_c, 9, 39, 100
1, 72624, Note_off_c, 9, 70, 0
1, 72648, Note_off_c, 9, 54, 0
1, 72656, Note_off_c, 9, 69, 0
1, 72668, Note_on_c, 9, 69, 46
1, 72700, Note_off_c, 5, 45, 64
1, 72732, Note_off_c, 9, 56, 100
1, 72748, Control_c, 2, 1, 6
1, 72748, Note_off_c, 9, 69, 0
1, 72764, Note_on_c, 5, 60, 102
1, 72764, Note_on_c, 5, 64, 99
1, 72764, Note_on_c, 5, 69, 102
1, 72764, Note_on_c, 9, 69, 62
1, 72768, Note_off_c, 9, 69, 0
1, 72772, Control_c, 2, 1, 12
1, 72796, Control_c, 2, 1, 20
1, 72820, Control_c, 2, 1, 26
1, 72828, Note_off_c, 9, 39, 100
1, 72852, Note_off_c, 5, 64, 0
1, 72856, Control_c, 2, 1, 36
1, 72856, Note_off_c, 5, 60, 0
1, 72856, Note_off_c, 5, 69, 0
1, 72860, Note_on_c, 9, 69, 48
1, 72884, Control_c, 2, 1, 44
1, 72908, Control_c, 2, 1, 49
1, 72924, Note_off_c, 9, 69, 0
1, 72940, Control_c, 2, 1, 57
1, 72956, Note_on_c, 9, 54, 86
1, 72956, Note_on_c, 9, 69, 78
1, 72956, Note_on_c, 9, 70, 85
1, 72968, Control_c, 2, 1, 64
1, 72996, Control_c, 2, 1, 71
1, 73012, Note_off_c, 9, 54, 0
1, 73012, Note_off_c, 9, 70, 0
1, 73028, Note_off_c, 2, 69, 64
1, 73028, Control_c, 2, 1, 79
1, 73028, Note_off_c, 9, 69, 64
1, 73044, Note_off_c, 9, 69, 0
1, 73052, Note_on_c, 9, 69, 43
1, 73060, Control_c, 2, 1, 84
1, 73088, Control_c, 2, 1, 82
1, 73128, Note_off_c, 9, 69, 0
1, 73132, Control_c, 2, 1, 62
1, 73148, Note_on_c, 1, 33, 119
1, 73148, Note_on_c, 5, 45, 100
1, 73148, Note_on_c, 9, 69, 57
1, 73148, Note_on_c, 9, 36, 116
1, 73156, Note_off_c, 9, 69, 0
1, 73160, Control_c, 2, 1, 37
1, 73188, Control_c, 2, 1, 0
1, 73244, Note_on_c, 9, 69, 49
1, 73304, Note_off_c, 9, 36, 0
1, 73320, Note_off_c, 9, 69, 0
1, 73340, Note_on_c, 5, 60, 102
1, 73340, Note_on_c, 5, 64, 99
1, 73340, Note_on_c, 5, 69, 102
1, 73340, Note_on_c, 9, 54, 85
1, 73340, Note_on_c, 9, 69, 75
1, 73340, Note_on_c, 9, 39, 100
1, 73412, Note_off_c, 9, 54, 0
1, 73424, Note_off_c, 9, 69, 0
1, 73428, Note_off_c, 5, 64, 0
1, 73432, Note_off_c, 5, 60, 0
1, 73432, Note_off_c, 5, 69, 0
1, 73436, Note_on_c, 9, 69, 48
1, 73456, Note_off_c, 5, 45, 0
1, 73460, Note_off_c, 1, 33, 0
1, 73516, Note_off_c, 9, 69, 0
1, 73532, Note_on_c, 9, 69, 56
1, 73532, Note_on_c, 9, 36, 116
1, 73596, Note_off_c, 9, 39, 100
1, 73608, Note_off_c, 9, 69, 0
1, 73628, Note_on_c, 9, 69, 50
1, 73688, Note_off_c, 9, 36, 0
1, 73696, Note_off_c, 9, 69, 0
1, 73724, Note_on_c, 1, 33, 119
1, 73724, Note_on_c, 5, 45, 100
1, 73724, Note_on_c, 9, 54, 83
1, 73724, Note_on_c, 9, 69, 86
1, 73724, Note_on_c, 9, 70, 85
1, 73724, Note_on_c, 9, 36, 116
1, 73724, Note_on_c, 9, 39, 100
1, 73784, Note_off_c, 9, 54, 64
1, 73788, Note_off_c, 9, 70, 64
1, 73796, Note_off_c, 9, 69, 64
1, 73820, Note_on_c, 9, 69, 47
1, 73880, Note_off_c, 9, 36, 64
1, 73912, Note_off_c, 9, 69, 0
1, 73916, Note_on_c, 9, 69, 56
1, 73980, Note_off_c, 9, 39, 64
1, 73980, Note_off_c, 9, 69, 0
1, 74012, Note_on_c, 9, 69, 43
1, 74012, Note_on_c, 9, 56, 100
1, 74036, Note_off_c, 1, 33, 64
1, 74084, Note_off_c, 9, 69, 0
1, 74108, Note_on_c, 9, 54, 87
1, 74108, Note_on_c, 9, 69, 73
1, 74108, Note_on_c, 9, 70, 83
1, 74108, Note_on_c, 9, 39, 100
1, 74160, Note_off_c, 9, 70, 0
1, 74184, Note_off_c, 9, 54, 0
1, 74192, Note_off_c, 9, 69, 0
1, 74204, Note_on_c, 9, 69, 46
1, 74236, Note_off_c, 5, 45, 64
1, 74268, Note_off_c, 9, 56, 100
1, 74284, Note_off_c, 9, 69, 0
1, 74300, Note_on_c, 5, 60, 102
1, 74300, Note_on_c, 5, 64, 99
1, 74300, Note_on_c, 5, 69, 102
1, 74300, Note_on_c, 9, 69, 62
1, 74304, Note_off_c, 9, 69, 0
1, 74364, Note_off_c, 9, 39, 100
1, 74388, Note_off_c, 5, 64, 0
1, 74392, Note_off_c, 5, 60, 0
1, 74392, Note_off_c, 5, 69, 0
1, 74396, Note_on_c, 9, 69, 48
1, 74460, Note_off_c, 9, 69, 0
1, 74492, Note_on_c, 9, 54, 86
1, 74492, Note_on_c, 9, 69, 78
1, 74492, Note_on_c, 9, 70, 85
1, 74548, Note_off_c, 9, 54, 0
1, 74548, Note_off_c, 9, 70, 0
1, 74580, Note_off_c, 9, 69, 0
1, 74588, Note_on_c, 9, 69, 43
1, 74664, Note_off_c, 9, 69, 0
1, 74684, Note_on_c, 1, 33, 119
1, 74684, Note_on_c, 2, 64, 110
1, 74684, Note_on_c, 5, 45, 100
1, 74684, Note_on_c, 9, 69, 57
1, 74684, Note_on_c, 9, 36, 116
1, 74692, Note_off_c, 9, 69, 0
1, 74780, Note_on_c, 9, 69, 49
1, 74840, Note_off_c, 9, 36, 0
1, 74856, Note_off_c, 9, 69, 0
1, 74860, Note_off_c, 2, 64, 0
1, 74876, Note_on_c, 2, 72, 118
1, 74876, Note_on_c, 5, 60, 102
1, 74876, Note_on_c, 5, 64, 99
1, 74876, Note_on_c, 5, 69, 102
1, 74876, Note_on_c, 9, 54, 85
1, 74876, Note_on_c, 9, 69, 75
1, 74876, Note_on_c, 9, 39, 100
1, 74948, Note_off_c, 9, 54, 0
1, 74960, Note_off_c, 9, 69, 0
1, 74964, Note_off_c, 5, 64, 0
1, 74968, Note_off_c, 5, 60, 0
1, 74968, Note_off_c, 5, 69, 0
1, 74972, Note_on_c, 9, 69, 48
1, 74992, Note_off_c, 5, 45, 0
1, 74996, Note_off_c, 1, 33, 0
1, 75028, Note_off_c, 2, 72, 0
1, 75052, Note_off_c, 9, 69, 0
1, 75068, Note_on_c, 9, 69, 56
1, 75068, Note_on_c, 9, 36, 116
1, 75068, Note_on_c, 9, 66, 79
1, 75068, Note_on_c, 9, 69, 87
1, 75068, Note_on_c, 9, 36, 121
1, 75068, Note_on_c, 9, 42, 74
1, 75116, Note_off_c, 9, 66, 0
1, 75132, Note_off_c, 9, 39, 100
1, 75136, Note_off_c, 9, 42, 0
1, 75140, Note_off_c, 9, 69, 0
1, 75144, Note_off_c, 9, 69, 0
1, 75164, Note_on_c, 2, 71, 109
1, 75164, Note_on_c, 9, 69, 50
1, 75216, Note_off_c, 9, 36, 0
1, 75224, Note_off_c, 9, 36, 0
1, 75232, Note_off_c, 9, 69, 0
1, 75260, Note_on_c, 1, 33, 119
1, 75260, Note_on_c, 2, 69, 112
1, 75260, Note_on_c, 5, 45, 100
1, 75260, Note_on_c, 9, 54, 83
1, 75260, Note_on_c, 9, 69, 86
1, 75260, Note_on_c, 9, 70, 85
1, 75260, Note_on_c, 9, 36, 116
1, 75264, Note_off_c, 2, 71, 64
1, 75320, Note_off_c, 9, 54, 64
1, 75324, Note_off_c, 9, 70, 64
1, 75356, Note_on_c, 9, 69, 47
1, 75416, Note_off_c, 9, 36, 64
1, 75448, Note_off_c, 9, 69, 0
1, 75452, Note_on_c, 9, 69, 56
1, 75516, Note_off_c, 9, 69, 0
1, 75548, Note_on_c, 9, 69, 43
1, 75548, Note_on_c, 9, 56, 100
1, 75572, Note_off_c, 1, 33, 64
1, 75620, Note_off_c, 9, 69, 0
1, 75644, Note_on_c, 9, 54, 87
1, 75644, Note_on_c, 9, 69, 73
1, 75644, Note_on_c, 9, 70, 83
1, 75644, Note_on_c, 9, 39, 100
1, 75696, Note_off_c, 9, 70, 0
1, 75720, Note_off_c, 9, 54, 0
1, 75728, Note_off_c, 9, 69, 0
1, 75740, Note_on_c, 9, 69, 46
1, 75772, Note_off_c, 5, 45, 64
1, 75804, Note_off_c, 9, 56, 100
1, 75820, Control_c, 2, 1, 6
1, 75820, Note_off_c, 9, 69, 0
1, 75836, Note_on_c, 5, 60, 102
1, 75836, Note_on_c, 5, 64, 99
1, 75836, Note_on_c, 5, 69, 102
1, 75836, Note_on_c, 9, 69, 62
1, 75840, Note_off_c, 9, 69, 0
1, 75844, Control_c, 2, 1, 12
1, 75868, Control_c, 2, 1, 20
1, 75892, Control_c, 2, 1, 26
1, 75900, Note_off_c, 9, 39, 100
1, 75924, Note_off_c, 5, 64, 0
1, 75928, Control_c, 2, 1, 36
1, 75928, Note_off_c, 5, 60, 0
1, 75928, Note_off_c, 5, 69, 0
1, 75932, Note_on_c, 9, 69, 48
1, 75956, Control_c, 2, 1, 44
1, 75980, Control_c, 2, 1, 49
1, 75996, Note_off_c, 9, 69, 0
1, 76012, Control_c, 2, 1, 57
1, 76028, Note_on_c, 9, 54, 86
1, 76028, Note_on_c, 9, 69, 78
1, 76028, Note_on_c, 9, 70, 85
1, 76040, Control_c, 2, 1, 64
1, 76068, Control_c, 2, 1, 71
1, 76084, Note_off_c, 9, 54, 0
1, 76084, Note_off_c, 9, 70, 0
1, 76100, Note_off_c, 2, 69, 64
1, 76100, Control_c, 2, 1, 79
1, 76100, Note_off_c, 9, 69, 64
1, 76116, Note_off_c, 9, 69, 0
1, 76124, Note_on_c, 9, 69, 43
1, 76132, Control_c, 2, 1, 84
1, 76160, Control_c, 2, 1, 82
1, 76200, Note_off_c, 9, 69, 0
1, 76204, Control_c, 2, 1, 62
1, 76220, Note_on_c, 1, 33, 119
1, 76220, Note_on_c, 5, 45, 100
1, 76220, Note_on_c, 9, 69, 57
1, 76220, Note_on_c, 9, 36, 116
1, 76228, Note_off_c, 9, 69, 0
1, 76232, Control_c, 2, 1, 37
1, 76260, Control_c, 2, 1, 0
1, 76316, Note_on_c, 9, 69, 49
1, 76376, Note_off_c, 9, 36, 0
1, 76392, Note_off_c, 9, 69, 0
1, 76412, Note_on_c, 5, 60, 102
1, 76412, Note_on_c, 5, 64, 99
1, 76412, Note_on_c, 5, 69, 102
1, 76412, Note_on_c, 9, 54, 85
1, 76412, Note_on_c, 9, 69, 75
1, 76412, Note_on_c, 9, 39, 100
1, 76484, Note_off_c, 9, 54, 0
1, 76496, Note_off_c, 9, 69, 0
1, 76500, Note_off_c, 5, 64, 0
1, 76504, Note_off_c, 5, 60, 0
1, 76504, Note_off_c, 5, 69, 0
1, 76508, Note_on_c, 9, 69, 48
1, 76528, Note_off_c, 5, 45, 0
1, 76532, Note_off_c, 1, 33, 0
1, 76588, Note_off_c, 9, 69, 0
1, 76604, Note_on_c, 9, 69, 56
1, 76604, Note_on_c, 9, 36, 116
1, 76668, Note_off_c, 9, 39, 100
1, 76680, Note_off_c, 9, 69, 0
1, 76700, Note_on_c, 9, 69, 50
1, 76760, Note_off_c, 9, 36, 0
1, 76768, Note_off_c, 9, 69, 0
1, 76796, Note_on_c, 1, 33, 119
1, 76796, Note_on_c, 5, 45, 100
1, 76796, Note_on_c, 9, 54, 83
1, 76796, Note_on_c, 9, 69, 86
1, 76796, Note_on_c, 9, 70, 85
1, 76796, Note_on_c, 9, 36, 116
1, 76856, Note_off_c, 9, 54, 64
1, 76860, Note_off_c, 9, 70, 64
1, 76868, Note_off_c, 9, 69, 64
1, 76892, Note_on_c, 9, 69, 47
1, 76952, Note_off_c, 9, 36, 64
1, 76984, Note_off_c, 9, 69, 0
1, 76988, Note_on_c, 9, 69, 56
1, 77052, Note_off_c, 9, 69, 0
1, 77084, Note_on_c, 9, 69, 43
1, 77084, Note_on_c, 9, 56, 100
1, 77108, Note_off_c, 1, 33, 64
1, 77156, Note_off_c, 9, 69, 0
1, 77180, Note_on_c, 9, 54, 87
1, 77180, Note_on_c, 9, 69, 73
1, 77180, Note_on_c, 9, 70, 83
1, 77180, Note_on_c, 9, 39, 100
1, 77232, Note_off_c, 9, 70, 0
1, 77256, Note_off_c, 9, 54, 0
1, 77264, Note_off_c, 9, 69, 0
1, 77276, Note_on_c, 9, 69, 46
1, 77308, Note_off_c, 5, 45, 64
1, 77340, Note_off_c, 9, 56, 100
1, 77356, Note_off_c, 9, 69, 0
1, 77372, Note_on_c, 5, 60, 102
1, 77372, Note_on_c, 5, 64, 99
1, 77372, Note_on_c, 5, 69, 102
1, 77372, Note_on_c, 9, 69, 62
1, 77376, Note_off_c, 9, 69, 0
1, 77436, Note_off_c, 9, 39, 100
1, 77460, Note_off_c, 5, 64, 0
1, 77464, Note_off_c, 5, 60, 0
1, 77464, Note_off_c, 5, 69, 0
1, 77468, Note_on_c, 9, 69, 48
1, 77532, Note_off_c, 9, 69, 0
1, 77564, Note_on_c, 9, 54, 86
1, 77564, Note_on_c, 9, 69, 78
1, 77564, Note_on_c, 9, 70, 85
1, 77620, Note_off_c, 9, 54, 0
1, 77620, Note_off_c, 9, 70, 0
1, 77652, Note_off_c, 9, 69, 0
1, 77660, Note_on_c, 9, 69, 43
1, 77736, Note_off_c, 9, 69, 0
1, 77756, Note_on_c, 1, 33, 119
1, 77756, Note_on_c, 5, 45, 100
1, 77756, Note_on_c, 9, 69, 57
1, 77756, Note_on_c, 9, 36, 116
1, 77764, Note_off_c, 9, 69, 0
1, 77852, Note_on_c, 9, 69, 49
1, 77912, Note_off_c, 9, 36, 0
1, 77928, Note_off_c, 9, 69, 0
1, 77948, Note_on_c, 5, 60, 102
1, 77948, Note_on_c, 5, 64, 99
1, 77948, Note_on_c, 5, 69, 102
1, 77948, Note_on_c, 9, 54, 85
1, 77948, Note_on_c, 9, 69, 75
1, 77948, Note_on_c, 9, 39, 100
1, 78020, Note_off_c, 9, 54, 0
1, 78032, Note_off_c, 9, 69, 0
1, 78036, Note_off_c, 5, 64, 0
1, 78040, Note_off_c, 5, 60, 0
1, 78040, Note_off_c, 5, 69, 0
1, 78044, Note_on_c, 2, 64, 110
1, 78044, Note_on_c, 9, 69, 48
1, 78064, Note_off_c, 5, 45, 0
1, 78068, Note_off_c, 1, 33, 0
1, 78124, Note_off_c, 9, 69, 0
1, 78140, Note_on_c, 2, 72, 118
1, 78140, Note_on_c, 9, 69, 56
1, 78140, Note_on_c, 9, 36, 116
1, 78204, Note_off_c, 9, 39, 100
1, 78216, Note_off_c, 9, 69, 0
1, 78220, Note_off_c, 2, 64, 0
1, 78236, Note_on_c, 2, 71, 109
1, 78236, Note_on_c, 9, 69, 50
1, 78292, Note_off_c, 2, 72, 0
1, 78296, Note_off_c, 9, 36, 0
1, 78304, Note_off_c, 9, 69, 0
1, 78332, Note_on_c, 1, 33, 119
1, 78332, Note_on_c, 2, 69, 112
1, 78332, Note_on_c, 5, 45, 100
1, 78332, Note_on_c, 9, 54, 83
1, 78332, Note_on_c, 9, 69, 86
1, 78332, Note_on_c, 9, 70, 85
1, 78332, Note_on_c, 9, 36, 116
1, 78336, Note_off_c, 2, 71, 64
1, 78392, Note_off_c, 9, 54, 64
1, 78396, Note_off_c, 9, 70, 64
1, 78428, Note_on_c, 9, 69, 47
1, 78488, Note_off_c, 9, 36, 64
1, 78520, Note_off_c, 9, 69, 0
1, 78524, Note_on_c, 9, 69, 56
1, 78588, Note_off_c, 9, 69, 0
1, 78620, Note_on_c, 9, 69, 43
1, 78620, Note_on_c, 9, 56, 100
1, 78644, Note_off_c, 1, 33, 64
1, 78692, Note_off_c, 9, 69, 0
1, 78716, Note_on_c, 9, 54, 87
1, 78716, Note_on_c, 9, 69, 73
1, 78716, Note_on_c, 9, 70, 83
1, 78716, Note_on_c, 9, 39, 100
1, 78768, Note_off_c, 9, 70, 0
1, 78792, Note_off_c, 9, 54, 0
1, 78800, Note_off_c, 9, 69, 0
1, 78812, Note_on_c, 9, 69, 46
1, 78844, Note_off_c, 5, 45, 64
1, 78876, Note_off_c, 9, 56, 100
1, 78892, Control_c, 2, 1, 6
1, 78892, Note_off_c, 9, 69, 0
1, 78908, Note_on_c, 5, 60, 102
1, 78908, Note_on_c, 5, 64, 99
1, 78908, Note_on_c, 5, 69, 102
1, 78908, Note_on_c, 9, 69, 62
1, 78912, Note_off_c, 9, 69, 0
1, 78916, Control_c, 2, 1, 12
1, 78940, Control_c, 2, 1, 20
1, 78964, Control_c, 2, 1, 26
1, 78972, Note_off_c, 9, 39, 100
1, 78996, Note_off_c, 5, 64, 0
1, 79000, Control_c, 2, 1, 36
1, 79000, Note_off_c, 5, 60, 0
1, 79000, Note_off_c, 5, 69, 0
1, 79004, Note_on_c, 9, 69, 48
1, 79028, Control_c, 2, 1, 44
1, 79052, Control_c, 2, 1, 49
1, 79068, Note_off_c, 9, 69, 0
1, 79084, Control_c, 2, 1, 57
1, 79100, Note_on_c, 9, 54, 86
1, 79100, Note_on_c, 9, 69, 78
1, 79100, Note_on_c, 9, 70, 85
1, 79112, Control_c, 2, 1, 64
1, 79140, Control_c, 2, 1, 71
1, 79156, Note_off_c, 9, 54, 0
1, 79156, Note_off_c, 9, 70, 0
1, 79172, Note_off_c, 2, 69, 64
1, 79172, Control_c, 2, 1, 79
1, 79172, Note_off_c, 9, 69, 64
1, 79188, Note_off_c, 9, 69, 0
1, 79196, Note_on_c, 9, 69, 43
1, 79204, Control_c, 2, 1, 84
1, 79232, Control_c, 2, 1, 82
1, 79272, Note_off_c, 9, 69, 0
1, 79276, Control_c, 2, 1, 62
1, 79292, Note_on_c, 1, 33, 119
1, 79292, Note_on_c, 5, 45, 100
1, 79292, Note_on_c, 9, 69, 57
1, 79292, Note_on_c, 9, 36, 116
1, 79300, Note_off_c, 9, 69, 0
1, 79304, Control_c, 2, 1, 37
1, 79332, Control_c, 2, 1, 0
1, 79388, Note_on_c, 9, 69, 49
1, 79448, Note_off_c, 9, 36, 0
1, 79464, Note_off_c, 9, 69, 0
1, 79484, Note_on_c, 5, 60, 102
1, 79484, Note_on_c, 5, 64, 99
1, 79484, Note_on_c, 5, 69, 102
1, 79484, Note_on_c, 9, 54, 85
1, 79484, Note_on_c, 9, 69, 75
1, 79484, Note_on_c, 9, 39, 100
1, 79556, Note_off_c, 9, 54, 0
1, 79568, Note_off_c, 9, 69, 0
1, 79572, Note_off_c, 5, 64, 0
1, 79576, Note_off_c, 5, 60, 0
1, 79576, Note_off_c, 5, 69, 0
1, 79580, Note_on_c, 9, 69, 48
1, 79600, Note_off_c, 5, 45, 0
1, 79604, Note_off_c, 1, 33, 0
1, 79660, Note_off_c, 9, 69, 0
1, 79676, Note_on_c, 9, 69, 56
1, 79676, Note_on_c, 9, 36, 116
1, 79740, Note_off_c, 9, 39, 100
1, 79752, Note_off_c, 9, 69, 0
1, 79772, Note_on_c, 9, 69, 50
1, 79832, Note_off_c, 9, 36, 0
1, 79840, Note_off_c, 9, 69, 0
1, 79868, Note_on_c, 1, 33, 119
1, 79868, Note_on_c, 5, 45, 100
1, 79868, Note_on_c, 9, 54, 83
1, 79868, Note_on_c, 9, 69, 86
1, 79868, Note_on_c, 9, 70, 85
1, 79868, Note_on_c, 9, 36, 116
1, 79868, Note_on_c, 9, 39, 100
1, 79928, Note_off_c, 9, 54, 64
1, 79932, Note_off_c, 9, 70, 64
1, 79940, Note_off_c, 9, 69, 64
1, 79964, Note_on_c, 9, 69, 47
1, 80024, Note_off_c, 9, 36, 64
1, 80056, Note_off_c, 9, 69, 0
1, 80060, Note_on_c, 9, 69, 56
1, 80124, Note_off_c, 9, 39, 64
1, 80124, Note_off_c, 9, 69, 0
1, 80156, Note_on_c, 9, 69, 43
1, 80156, Note_on_c, 9, 56, 100
1, 80180, Note_off_c, 1, 33, 64
1, 80228, Note_off_c, 9, 69, 0
1, 80252, Note_on_c, 9, 54, 87
1, 80252, Note_on_c, 9, 69, 73
1, 80252, Note_on_c, 9, 70, 83
1, 80252, Note_on_c, 9, 39, 100
1, 80304, Note_off_c, 9, 70, 0
1, 80328, Note_off_c, 9, 54, 0
1, 80336, Note_off_c, 9, 69, 0
1, 80348, Note_on_c, 9, 69, 46
1, 80380, Note_off_c, 5, 45, 64
1, 80412, Note_off_c, 9, 56, 100
1, 80428, Note_off_c, 9, 69, 0
1, 80444, Note_on_c, 5, 60, 102
1, 80444, Note_on_c, 5, 64, 99
1, 80444, Note_on_c, 5, 69, 102
1, 80444, Note_on_c, 9, 69, 62
1, 80448, Note_off_c, 9, 69, 0
1, 80508, Note_off_c, 9, 39, 100
1, 80532, Note_off_c, 5, 64, 0
1, 80536, Note_off_c, 5, 60, 0
1, 80536, Note_off_c, 5, 69, 0
1, 80540, Note_on_c, 9, 69, 48
1, 80604, Note_off_c, 9, 69, 0
1, 80636, Note_on_c, 9, 54, 86
1, 80636, Note_on_c, 9, 69, 78
1, 80636, Note_on_c, 9, 70, 85
1, 80692, Note_off_c, 9, 54, 0
1, 80692, Note_off_c, 9, 70, 0
1, 80724, Note_off_c, 9, 69, 0
1, 80732, Note_on_c, 9, 69, 43
1, 80808, Note_off_c, 9, 69, 0
1, 80828, Note_on_c, 1, 33, 119
1, 80828, Note_on_c, 2, 64, 110
1, 80828, Note_on_c, 5, 45, 100
1, 80828, Note_on_c, 9, 69, 57
1, 80828, Note_on_c, 9, 36, 116
1, 80836, Note_off_c, 9, 69, 0
1, 80924, Note_on_c, 9, 69, 49
1, 80984, Note_off_c, 9, 36, 0
1, 81000, Note_off_c, 9, 69, 0
1, 81004, Note_off_c, 2, 64, 0
1, 81020, Note_on_c, 2, 72, 118
1, 81020, Note_on_c, 5, 60, 102
1, 81020, Note_on_c, 5, 64, 99
1, 81020, Note_on_c, 5, 69, 102
1, 81020, Note_on_c, 9, 54, 85
1, 81020, Note_on_c, 9, 69, 75
1, 81020, Note_on_c, 9, 39, 100
1, 81092, Note_off_c, 9, 54, 0
1, 81104, Note_off_c, 9, 69, 0
1, 81108, Note_off_c, 5, 64, 0
1, 81112, Note_off_c, 5, 60, 0
1, 81112, Note_off_c, 5, 69, 0
1, 81116, Note_on_c, 9, 69, 48
1, 81136, Note_off_c, 5, 45, 0
1, 81140, Note_off_c, 1, 33, 0
1, 81172, Note_off_c, 2, 72, 0
1, 81196, Note_off_c, 9, 69, 0
1, 81212, Note_on_c, 9, 69, 56
1, 81212, Note_on_c, 9, 36, 116
1, 81212, Note_on_c, 9, 66, 79
1, 81212, Note_on_c, 9, 69, 87
1, 81212, Note_on_c, 9, 36, 121
1, 81212, Note_on_c, 9, 42, 74
1, 81260, Note_off_c, 9, 66, 0
1, 81276, Note_off_c, 9, 39, 100
1, 81280, Note_off_c, 9, 42, 0
1, 81284, Note_off_c, 9, 69, 0
1, 81288, Note_off_c, 9, 69, 0
1, 81308, Note_on_c, 2, 71, 109
1, 81308, Note_on_c, 9, 69, 50
1, 81360, Note_off_c, 9, 36, 0
1, 81368, Note_off_c, 9, 36, 0
1, 81376, Note_off_c, 9, 69, 0
1, 81404, Note_on_c, 1, 33, 119
1, 81404, Note_on_c, 2, 69, 112
1, 81404, Note_on_c, 5, 45, 100
1, 81404, Note_on_c, 9, 54, 83
1, 81404, Note_on_c, 9, 69, 86
1, 81404, Note_on_c, 9, 70, 85
1, 81404, Note_on_c, 9, 36, 116
1, 81408, Note_off_c, 2, 71, 64
1, 81464, Note_off_c, 9, 54, 64
1, 81468, Note_off_c, 9, 70, 64
1, 81500, Note_on_c, 9, 69, 47
1, 81560, Note_off_c, 9, 36, 64
1, 81592, Note_off_c, 9, 69, 0
1, 81596, Note_on_c, 9, 69, 56
1, 81660, Note_off_c, 9, 69, 0
1, 81692, Note_on_c, 9, 69, 43
1, 81692, Note_on_c, 9, 56, 100
1, 81716, Note_off_c, 1, 33, 64
1, 81764, Note_off_c, 9, 69, 0
1, 81788, Note_on_c, 9, 54, 87
1, 81788, Note_on_c, 9, 69, 73
1, 81788, Note_on_c, 9, 70, 83
1, 81788, Note_on_c, 9, 39, 100
1, 81840, Note_off_c, 9, 70, 0
1, 81864, Note_off_c, 9, 54, 0
1, 81872, Note_off_c, 9, 69, 0
1, 81884, Note_on_c, 9, 69, 46
1, 81916, Note_off_c, 5, 45, 64
1, 81948, Note_off_c, 9, 56, 100
1, 81964, Control_c, 2, 1, 6
1, 81964, Note_off_c, 9, 69, 0
1, 81980, Note_on_c, 5, 60, 102
1, 81980, Note_on_c, 5, 64, 99
1, 81980, Note_on_c, 5, 69, 102
1, 81980, Note_on_c, 9, 69, 62
1, 81984, Note_off_c, 9, 69, 0
1, 81988, Control_c, 2, 1, 12
1, 82012, Control_c, 2, 1, 20
1, 82036, Control_c, 2, 1, 26
1, 82044, Note_off_c, 9, 39, 100
1, 82068, Note_off_c, 5, 64, 0
1, 82072, Control_c, 2, 1, 36
1, 82072, Note_off_c, 5, 60, 0
1, 82072, Note_off_c, 5, 69, 0
1, 82076, Note_on_c, 9, 69, 48
1, 82100, Control_c, 2, 1, 44
1, 82124, Control_c, 2, 1, 49
1, 82140, Note_off_c, 9, 69, 0
1, 82156, Control_c, 2, 1, 57
1, 82172, Note_on_c, 9, 54, 86
1, 82172, Note_on_c, 9, 69, 78
1, 82172, Note_on_c, 9, 70, 85
1, 82184, Control_c, 2, 1, 64
1, 82212, Control_c, 2, 1, 71
1, 82228, Note_off_c, 9, 54, 0
1, 82228, Note_off_c, 9, 70, 0
1, 82244, Note_off_c, 2, 69, 64
1, 82244, Control_c, 2, 1, 79
1, 82244, Note_off_c, 9, 69, 64
1, 82260, Note_off_c, 9, 69, 0
1, 82268, Note_on_c, 9, 69, 43
1, 82276, Control_c, 2, 1, 84
1, 82304, Control_c, 2, 1, 82
1, 82344, Note_off_c, 9, 69, 0
1, 82348, Control_c, 2, 1, 62
1, 82364, Note_on_c, 1, 33, 119
1, 82364, Note_on_c, 5, 45, 100
1, 82364, Note_on_c, 9, 69, 57
1, 82364, Note_on_c, 9, 36, 116
1, 82372, Note_off_c, 9, 69, 0
1, 82376, Control_c, 2, 1, 37
1, 82404, Control_c, 2, 1, 0
1, 82460, Note_on_c, 9, 69, 49
1, 82520, Note_off_c, 9, 36, 0
1, 82536, Note_off_c, 9, 69, 0
1, 82556, Note_on_c, 5, 60, 102
1, 82556, Note_on_c, 5, 64, 99
1, 82556, Note_on_c, 5, 69, 102
1, 82556, Note_on_c, 9, 54, 85
1, 82556, Note_on_c, 9, 69, 75
1, 82556, Note_on_c, 9, 39, 100
1, 82628, Note_off_c, 9, 54, 0
1, 82640, Note_off_c, 9, 69, 0
1, 82644, Note_off_c, 5, 64, 0
1, 82648, Note_off_c, 5, 60, 0
1, 82648, Note_off_c, 5, 69, 0
1, 82652, Note_on_c, 9, 69, 48
1, 82672, Note_off_c, 5, 45, 0
1, 82676, Note_off_c, 1, 33, 0
1, 82732, Note_off_c, 9, 69, 0
1, 82748, Note_on_c, 9, 69, 56
1, 82748, Note_on_c, 9, 36, 116
1, 82812, Note_off_c, 9, 39, 100
1, 82824, Note_off_c, 9, 69, 0
1, 82844, Note_on_c, 9, 69, 50
1, 82904, Note_off_c, 9, 36, 0
1, 82912, Note_off_c, 9, 69, 0
1, 82940, Note_on_c, 1, 33, 119
1, 82940, Note_on_c, 5, 45, 100
1, 82940, Note_on_c, 9, 54, 83
1, 82940, Note_on_c, 9, 69, 86
1, 82940, Note_on_c, 9, 70, 85
1, 82940, Note_on_c, 9, 36, 116
1, 83000, Note_off_c, 9, 54, 64
1, 83004, Note_off_c, 9, 70, 64
1, 83012, Note_off_c, 9, 69, 64
1, 83036, Note_on_c, 9, 69, 47
1, 83096, Note_off_c, 9, 36, 64
1, 83128, Note_off_c, 9, 69, 0
1, 83132, Note_on_c, 9, 69, 56
1, 83196, Note_off_c, 9, 69, 0
1, 83228, Note_on_c, 9, 69, 43
1, 83228, Note_on_c, 9, 56, 100
1, 83252, Note_off_c, 1, 33, 64
1, 83300, Note_off_c, 9, 69, 0
1, 83324, Note_on_c, 9, 54, 87
1, 83324, Note_on_c, 9, 69, 73
1, 83324, Note_on_c, 9, 70, 83
1, 83324, Note_on_c, 9, 39, 100
1, 83376, Note_off_c, 9, 70, 0
1, 83400, Note_off_c, 9, 54, 0
1, 83408, Note_off_c, 9, 69, 0
1, 83420, Note_on_c, 9, 69, 46
1, 83452, Note_off_c, 5, 45, 64
1, 83484, Note_off_c, 9, 56, 100
1, 83500, Note_off_c, 9, 69, 0
1, 83516, Note_on_c, 5, 60, 102
1, 83516, Note_on_c, 5, 64, 99
1, 83516, Note_on_c, 5, 69, 102
1, 83516, Note_on_c, 9, 69, 62
1, 83520, Note_off_c, 9, 69, 0
1, 83580, Note_off_c, 9, 39, 100
1, 83604, Note_off_c, 5, 64, 0
1, 83608, Note_off_c, 5, 60, 0
1, 83608, Note_off_c, 5, 69, 0
1, 83612, Note_on_c, 9, 69, 48
1, 83676, Note_off_c, 9, 69, 0
1, 83708, Note_on_c, 9, 54, 86
1, 83708, Note_on_c, 9, 69, 78
1, 83708, Note_on_c, 9, 70, 85
1, 83764, Note_off_c, 9, 54, 0
1, 83764, Note_off_c, 9, 70, 0
1, 83796, Note_off_c, 9, 69, 0
1, 83804, Note_on_c, 9, 69, 43
1, 83880, Note_off_c, 9, 69, 0
1, 83900, Note_on_c, 1, 33, 119
1, 83900, Note_on_c, 5, 45, 100
1, 83900, Note_on_c, 9, 69, 57
1, 83900, Note_on_c, 9, 36, 116
1, 83908, Note_off_c, 9, 69, 0
1, 83996, Note_on_c, 9, 69, 49
1, 84056, Note_off_c, 9, 36, 0
1, 84072, Note_off_c, 9, 69, 0
1, 84092, Note_on_c, 5, 60, 102
1, 84092, Note_on_c, 5, 64, 99
1, 84092, Note_on_c, 5, 69, 102
1, 84092, Note_on_c, 9, 54, 85
1, 84092, Note_on_c, 9, 69, 75
1, 84092, Note_on_c, 9, 39, 100
1, 84164, Note_off_c, 9, 54, 0
1, 84176, Note_off_c, 9, 69, 0
1, 84180, Note_off_c, 5, 64, 0
1, 84184, Note_off_c, 5, 60, 0
1, 84184, Note_off_c, 5, 69, 0
1, 84188, Note_on_c, 2, 64, 110
1, 84188, Note_on_c, 9, 69, 48
1, 84208, Note_off_c, 5, 45, 0
1, 84212, Note_off_c, 1, 33, 0
1, 84268, Note_off_c, 9, 69, 0
1, 84284, Note_on_c, 2, 72, 118
1, 84284, Note_on_c, 9, 69, 56
1, 84284, Note_on_c, 9, 36, 116
1, 84348, Note_off_c, 9, 39, 100
1, 84360, Note_off_c, 9, 69, 0
1, 84364, Note_off_c, 2, 64, 0
1, 84380, Note_on_c, 2, 71, 109
1, 84380, Note_on_c, 9, 69, 50
1, 84436, Note_off_c, 2, 72, 0
1, 84440, Note_off_c, 9, 36, 0
1, 84448, Note_off_c, 9, 69, 0
1, 84476, Note_on_c, 1, 33, 119
1, 84476, Note_on_c, 2, 69, 112
1, 84476, Note_on_c, 5, 45, 100
1, 84476, Note_on_c, 9, 54, 83
1, 84476, Note_on_c, 9, 69, 86
1, 84476, Note_on_c, 9, 70, 85
1, 84476, Note_on_c, 9, 36, 116
1, 84480, Note_off_c, 2, 71, 64
1, 84536, Note_off_c, 9, 54, 64
1, 84540, Note_off_c, 9, 70, 64
1, 84572, Note_on_c, 9, 69, 47
1, 84632, Note_off_c, 9, 36, 64
1, 84664, Note_off_c, 9, 69, 0
1, 84668, Note_on_c, 9, 69, 56
1, 84732, Note_off_c, 9, 69, 0
1, 84764, Note_on_c, 9, 69, 43
1, 84764, Note_on_c, 9, 56, 100
1, 84788, Note_off_c, 1, 33, 64
1, 84836, Note_off_c, 9, 69, 0
1, 84860, Note_on_c, 9, 54, 87
1, 84860, Note_on_c, 9, 69, 73
1, 84860, Note_on_c, 9, 70, 83
1, 84860, Note_on_c, 9, 39, 100
1, 84912, Note_off_c, 9, 70, 0
1, 84936, Note_off_c, 9, 54, 0
1, 84944, Note_off_c, 9, 69, 0
1, 84956, Note_on_c, 9, 69, 46
1, 84988, Note_off_c, 5, 45, 64
1, 85020, Note_off_c, 9, 56, 100
1, 85036, Control_c, 2, 1, 6
1, 85036, Note_off_c, 9, 69, 0
1, 85052, Note_on_c, 5, 60, 102
1, 85052, Note_on_c, 5, 64, 99
1, 85052, Note_on_c, 5, 69, 102
1, 85052, Note_on_c, 9, 69, 62
1, 85056, Note_off_c, 9, 69, 0
1, 85060, Control_c, 2, 1, 12
1, 85084, Control_c, 2, 1, 20
1, 85108, Control_c, 2, 1, 26
1, 85116, Note_off_c, 9, 39, 100
1, 85140, Note_off_c, 5, 64, 0
1, 85144, Control_c, 2, 1, 36
1, 85144, Note_off_c, 5, 60, 0
1, 85144, Note_off_c, 5, 69, 0
1, 85148, Note_on_c, 9, 69, 48
1, 85172, Control_c, 2, 1, 44
1, 85196, Control_c, 2, 1, 49
1, 85212, Note_off_c, 9, 69, 0
1, 85228, Control_c, 2, 1, 57
1, 85244, Note_on_c, 9, 54, 86
1, 85244, Note_on_c, 9, 69, 78
1, 85244, Note_on_c, 9, 70, 85
1, 85256, Control_c, 2, 1, 64
1, 85284, Control_c, 2, 1, 71
1, 85300, Note_off_c, 9, 54, 0
1, 85300, Note_off_c, 9, 70, 0
1, 85316, Note_off_c, 2, 69, 64
1, 85316, Control_c, 2, 1, 79
1, 85316, Note_off_c, 9, 69, 64
1, 85332, Note_off_c, 9, 69, 0
1, 85340, Note_on_c, 9, 69, 43
1, 85348, Control_c, 2, 1, 84
1, 85376, Control_c, 2, 1, 82
1, 85416, Note_off_c, 9, 69, 0
1, 85420, Control_c, 2, 1, 62
1, 85436, Note_on_c, 1, 33, 119
1, 85436, Note_on_c, 5, 45, 100
1, 85436, Note_on_c, 9, 69, 57
1, 85436, Note_on_c, 9, 36, 116
1, 85444, Note_off_c, 9, 69, 0
1, 85448, Control_c, 2, 1, 37
1, 85476, Control_c, 2, 1, 0
1, 85532, Note_on_c, 9, 69, 49
1, 85592, Note_off_c, 9, 36, 0
1, 85608, Note_off_c, 9, 69, 0
1, 85628, Note_on_c, 5, 60, 102
1, 85628, Note_on_c, 5, 64, 99
1, 85628, Note_on_c, 5, 69, 102
1, 85628, Note_on_c, 9, 54, 85
1, 85628, Note_on_c, 9, 69, 75
1, 85628, Note_on_c, 9, 39, 100
1, 85700, Note_off_c, 9, 54, 0
1, 85712, Note_off_c, 9, 69, 0
1, 85716, Note_off_c, 5, 64, 0
1, 85720, Note_off_c, 5, 60, 0
1, 85720, Note_off_c, 5, 69, 0
1, 85724, Note_on_c, 9, 69, 48
1, 85744, Note_off_c, 5, 45, 0
1, 85748, Note_off_c, 1, 33, 0
1, 85804, Note_off_c, 9, 69, 0
1, 85820, Note_on_c, 9, 69, 56
1, 85820, Note_on_c, 9, 36, 116
1, 85884, Note_off_c, 9, 39, 100
1, 85896, Note_off_c, 9, 69, 0
1, 85916, Note_on_c, 9, 69, 50
1, 85976, Note_off_c, 9, 36, 0
1, 85984, Note_off_c, 9, 69, 0
1, 86012, Note_on_c, 1, 33, 119
1, 86012, Note_on_c, 5, 45, 100
1, 86012, Note_on_c, 9, 54, 83
1, 86012, Note_on_c, 9, 69, 86
1, 86012, Note_on_c, 9, 70, 85
1, 86012, Note_on_c, 9, 36, 116
1, 86012, Note_on_c, 9, 39, 100
1, 86072, Note_off_c, 9, 54, 64
1, 86076, Note_off_c, 9, 70, 64
1, 86084, Note_off_c, 9, 69, 64
1, 86108, Note_on_c, 9, 69, 47
1, 86168, Note_off_c, 9, 36, 64
1, 86200, Note_off_c, 9, 69, 0
1, 86204, Note_on_c, 9, 69, 56
1, 86268, Note_off_c, 9, 39, 64
1, 86268, Note_off_c, 9, 69, 0
1, 86300, Note_on_c, 9, 69, 43
1, 86300, Note_on_c, 9, 56, 100
1, 86324, Note_off_c, 1, 33, 64
1, 86372, Note_off_c, 9, 69, 0
1, 86396, Note_on_c, 9, 54, 87
1, 86396, Note_on_c, 9, 69, 73
1, 86396, Note_on_c, 9, 70, 83
1, 86396, Note_on_c, 9, 39, 100
1, 86448, Note_off_c, 9, 70, 0
1, 86472, Note_off_c, 9, 54, 0
1, 86480, Note_off_c, 9, 69, 0
1, 86492, Note_on_c, 9, 69, 46
1, 86524, Note_off_c, 5, 45, 64
1, 86556, Note_off_c, 9, 56, 100
1, 86572, Note_off_c, 9, 69, 0
1, 86588, Note_on_c, 5, 60, 102
1, 86588, Note_on_c, 5, 64, 99
1, 86588, Note_on_c, 5, 69, 102
1, 86588, Note_on_c, 9, 69, 62
1, 86592, Note_off_c, 9, 69, 0
1, 86652, Note_off_c, 9, 39, 100
1, 86676, Note_off_c, 5, 64, 0
1, 86680, Note_off_c, 5, 60, 0
1, 86680, Note_off_c, 5, 69, 0
1, 86684, Note_on_c, 9, 69, 48
1, 86748, Note_off_c, 9, 69, 0
1, 86780, Note_on_c, 9, 54, 86
1, 86780, Note_on_c, 9, 69, 78
1, 86780, Note_on_c, 9, 70, 85
1, 86836, Note_off_c, 9, 54, 0
1, 86836, Note_off_c, 9, 70, 0
1, 86868, Note_off_c, 9, 69, 0
1, 86876, Note_on_c, 9, 69, 43
1, 86952, Note_off_c, 9, 69, 0
1, 86972, Note_on_c, 1, 33, 119
1, 86972, Note_on_c, 2, 64, 110
1, 86972, Note_on_c, 5, 45, 100
1, 86972, Note_on_c, 9, 69, 57
1, 86972, Note_on_c, 9, 36, 116
1, 86980, Note_off_c, 9, 69, 0
1, 87068, Note_on_c, 9, 69, 49
1, 87128, Note_off_c, 9, 36, 0
1, 87144, Note_off_c, 9, 69, 0
1, 87148, Note_off_c, 2, 64, 0
1, 87164, Note_on_c, 2, 72, 118
1, 87164, Note_on_c, 5, 60, 102
1, 87164, Note_on_c, 5, 64, 99
1, 87164, Note_on_c, 5, 69, 102
1, 87164, Note_on_c, 9, 54, 85
1, 87164, Note_on_c, 9, 69, 75
1, 87164, Note_on_c, 9, 39, 100
1, 87236, Note_off_c, 9, 54, 0
1, 87248, Note_off_c, 9, 69, 0
1, 87252, Note_off_c, 5, 64, 0
1, 87256, Note_off_c, 5, 60, 0
1, 87256, Note_off_c, 5, 69, 0
1, 87260, Note_on_c, 9, 69, 48
1, 87280, Note_off_c, 5, 45, 0
1, 87284, Note_off_c, 1, 33, 0
1, 87316, Note_off_c, 2, 72, 0
1, 87340, Note_off_c, 9, 69, 0
1, 87356, Note_on_c, 9, 69, 56
1, 87356, Note_on_c, 9, 36, 116
1, 87356, Note_on_c, 9, 66, 79
1, 87356, Note_on_c, 9, 69, 87
1, 87356, Note_on_c, 9, 36, 121
1, 87356, Note_on_c, 9, 42, 74
1, 87404, Note_off_c, 9, 66, 0
1, 87420, Note_off_c, 9, 39, 100
1, 87424, Note_off_c, 9, 42, 0
1, 87428, Note_off_c, 9, 69, 0
1, 87432, Note_off_c, 9, 69, 0
1, 87452, Note_on_c, 2, 71, 109
1, 87452, Note_on_c, 9, 69, 50
1, 87504, Note_off_c, 9, 36, 0
1, 87512, Note_off_c, 9, 36, 0
1, 87520, Note_off_c, 9, 69, 0
1, 87548, Note_on_c, 1, 38, 100
1, 87548, Note_on_c, 2, 69, 112
1, 87548, Note_on_c, 5, 50, 100
1, 87548, Note_on_c, 9, 54, 83
1, 87548, Note_on_c, 9, 69, 86
1, 87548, Note_on_c, 9, 70, 85
1, 87548, Note_on_c, 9, 36, 116
1, 87552, Note_off_c, 2, 71, 64
1, 87608, Note_off_c, 9, 54, 64
1, 87612, Note_off_c, 9, 70, 64
1, 87644, Note_on_c, 9, 69, 47
1, 87704, Note_off_c, 9, 36, 64
1, 87736, Note_off_c, 9, 69, 0
1, 87740, Note_on_c, 9, 69, 56
1, 87804, Note_off_c, 1, 38, 64
1, 87804, Note_off_c, 9, 69, 0
1, 87836, Note_on_c, 9, 69, 43
1, 87836, Note_on_c, 9, 56, 100
1, 87856, Note_off_c, 5, 50, 64
1, 87908, Note_off_c, 9, 69, 0
1, 87932, Note_on_c, 9, 54, 87
1, 87932, Note_on_c, 9, 69, 73
1, 87932, Note_on_c, 9, 70, 83
1, 87932, Note_on_c, 9, 39, 100
1, 87984, Note_off_c, 9, 70, 0
1, 88008, Note_off_c, 9, 54, 0
1, 88016, Note_off_c, 9, 69, 0
1, 88028, Note_on_c, 9, 69, 46
1, 88092, Note_off_c, 9, 56, 100
1, 88108, Control_c, 2, 1, 6
1, 88108, Note_off_c, 9, 69, 0
1, 88124, Note_on_c, 5, 65, 102
1, 88124, Note_on_c, 5, 69, 99
1, 88124, Note_on_c, 5, 74, 102
1, 88124, Note_on_c, 9, 69, 62
1, 88128, Note_off_c, 9, 69, 0
1, 88132, Control_c, 2, 1, 12
1, 88156, Control_c, 2, 1, 20
1, 88180, Control_c, 2, 1, 26
1, 88188, Note_off_c, 9, 39, 100
1, 88212, Note_off_c, 5, 69, 0
1, 88216, Control_c, 2, 1, 36
1, 88216, Note_off_c, 5, 65, 0
1, 88216, Note_off_c, 5, 74, 0
1, 88220, Note_on_c, 9, 69, 48
1, 88244, Control_c, 2, 1, 44
1, 88268, Control_c, 2, 1, 49
1, 88284, Note_off_c, 9, 69, 0
1, 88300, Control_c, 2, 1, 57
1, 88316, Note_on_c, 9, 54, 86
1, 88316, Note_on_c, 9, 69, 78
1, 88316, Note_on_c, 9, 70, 85
1, 88328, Control_c, 2, 1, 64
1, 88356, Control_c, 2, 1, 71
1, 88372, Note_off_c, 9, 54, 0
1, 88372, Note_off_c, 9, 70, 0
1, 88388, Note_off_c, 2, 69, 64
1, 88388, Control_c, 2, 1, 79
1, 88388, Note_off_c, 9, 69, 64
1, 88404, Note_off_c, 9, 69, 0
1, 88412, Note_on_c, 9, 69, 43
1, 88420, Control_c, 2, 1, 84
1, 88448, Control_c, 2, 1, 82
1, 88488, Note_off_c, 9, 69, 0
1, 88492, Control_c, 2, 1, 62
1, 88508, Note_on_c, 1, 38, 100
1, 88508, Note_on_c, 5, 50, 100
1, 88508, Note_on_c, 9, 69, 57
1, 88508, Note_on_c, 9, 36, 116
1, 88516, Note_off_c, 9, 69, 0
1, 88520, Control_c, 2, 1, 37
1, 88548, Control_c, 2, 1, 0
1, 88604, Note_on_c, 9, 69, 49
1, 88664, Note_off_c, 9, 36, 0
1, 88680, Note_off_c, 9, 69, 0
1, 88700, Note_on_c, 5, 65, 102
1, 88700, Note_on_c, 5, 69, 99
1, 88700, Note_on_c, 5, 74, 102
1, 88700, Note_on_c, 9, 54, 85
1, 88700, Note_on_c, 9, 69, 75
1, 88700, Note_on_c, 9, 39, 100
1, 88764, Note_off_c, 1, 38, 100
1, 88772, Note_off_c, 9, 54, 0
1, 88784, Note_off_c, 9, 69, 0
1, 88788, Note_off_c, 5, 69, 0
1, 88792, Note_off_c, 5, 65, 0
1, 88792, Note_off_c, 5, 74, 0
1, 88796, Note_on_c, 9, 69, 48
1, 88816, Note_off_c, 5, 50, 0
1, 88876, Note_off_c, 9, 69, 0
1, 88892, Note_on_c, 9, 69, 56
1, 88892, Note_on_c, 9, 36, 116
1, 88956, Note_off_c, 9, 39, 100
1, 88968, Note_off_c, 9, 69, 0
1, 88988, Note_on_c, 9, 69, 50
1, 89048, Note_off_c, 9, 36, 0
1, 89056, Note_off_c, 9, 69, 0
1, 89084, Note_on_c, 1, 38, 100
1, 89084, Note_on_c, 5, 50, 100
1, 89084, Note_on_c, 9, 54, 83
1, 89084, Note_on_c, 9, 69, 86
1, 89084, Note_on_c, 9, 70, 85
1, 89084, Note_on_c, 9, 36, 116
1, 89144, Note_off_c, 9, 54, 64
1, 89148, Note_off_c, 9, 70, 64
1, 89156, Note_off_c, 9, 69, 64
1, 89180, Note_on_c, 9, 69, 47
1, 89240, Note_off_c, 9, 36, 64
1, 89272, Note_off_c, 9, 69, 0
1, 89276, Note_on_c, 9, 69, 56
1, 89340, Note_off_c, 1, 38, 64
1, 89340, Note_off_c, 9, 69, 0
1, 89372, Note_on_c, 9, 69, 43
1, 89372, Note_on_c, 9, 56, 100
1, 89392, Note_off_c, 5, 50, 64
1, 89444, Note_off_c, 9, 69, 0
1, 89468, Note_on_c, 9, 54, 87
1, 89468, Note_on_c, 9, 69, 73
1, 89468, Note_on_c, 9, 70, 83
1, 89468, Note_on_c, 9, 39, 100
1, 89520, Note_off_c, 9, 70, 0
1, 89544, Note_off_c, 9, 54, 0
1, 89552, Note_off_c, 9, 69, 0
1, 89564, Note_on_c, 9, 69, 46
1, 89628, Note_off_c, 9, 56, 100
1, 89644, Note_off_c, 9, 69, 0
1, 89660, Note_on_c, 5, 65, 102
1, 89660, Note_on_c, 5, 69, 99
1, 89660, Note_on_c, 5, 74, 102
1, 89660, Note_on_c, 9, 69, 62
1, 89664, Note_off_c, 9, 69, 0
1, 89724, Note_off_c, 9, 39, 100
1, 89748, Note_off_c, 5, 69, 0
1, 89752, Note_off_c, 5, 65, 0
1, 89752, Note_off_c, 5, 74, 0
1, 89756, Note_on_c, 9, 69, 48
1, 89820, Note_off_c, 9, 69, 0
1, 89852, Note_on_c, 9, 54, 86
1, 89852, Note_on_c, 9, 69, 78
1, 89852, Note_on_c, 9, 70, 85
1, 89908, Note_off_c, 9, 54, 0
1, 89908, Note_off_c, 9, 70, 0
1, 89940, Note_off_c, 9, 69, 0
1, 89948, Note_on_c, 9, 69, 43
1, 90024, Note_off_c, 9, 69, 0
1, 90044, Note_on_c, 1, 38, 100
1, 90044, Note_on_c, 5, 50, 100
1, 90044, Note_on_c, 9, 69, 57
1, 90044, Note_on_c, 9, 36, 116
1, 90052, Note_off_c, 9, 69, 0
1, 90140, Note_on_c, 9, 69, 49
1, 90200, Note_off_c, 9, 36, 0
1, 90216, Note_off_c, 9, 69, 0
1, 90236, Note_on_c, 5, 65, 102
1, 90236, Note_on_c, 5, 69, 99
1, 90236, Note_on_c, 5, 74, 102
1, 90236, Note_on_c, 9, 54, 85
1, 90236, Note_on_c, 9, 69, 75
1, 90236, Note_on_c, 9, 39, 100
1, 90300, Note_off_c, 1, 38, 100
1, 90308, Note_off_c, 9, 54, 0
1, 90320, Note_off_c, 9, 69, 0
1, 90324, Note_off_c, 5, 69, 0
1, 90328, Note_off_c, 5, 65, 0
1, 90328, Note_off_c, 5, 74, 0
1, 90332, Note_on_c, 2, 64, 110
1, 90332, Note_on_c, 9, 69, 48
1, 90352, Note_off_c, 5, 50, 0
1, 90412, Note_off_c, 9, 69, 0
1, 90428, Note_on_c, 2, 72, 118
1, 90428, Note_on_c, 9, 69, 56
1, 90428, Note_on_c, 9, 36, 116
1, 90492, Note_off_c, 9, 39, 100
1, 90504, Note_off_c, 9, 69, 0
1, 90508, Note_off_c, 2, 64, 0
1, 90524, Note_on_c, 2, 71, 109
1, 90524, Note_on_c, 9, 69, 50
1, 90580, Note_off_c, 2, 72, 0
1, 90584, Note_off_c, 9, 36, 0
1, 90592, Note_off_c, 9, 69, 0
1, 90620, Note_on_c, 1, 33, 119
1, 90620, Note_on_c, 2, 69, 112
1, 90620, Note_on_c, 5, 45, 100
1, 90620, Note_on_c, 9, 54, 83
1, 90620, Note_on_c, 9, 69, 86
1, 90620, Note_on_c, 9, 70, 85
1, 90620, Note_on_c, 9, 36, 116
1, 90624, Note_off_c, 2, 71, 64
1, 90680, Note_off_c, 9, 54, 64
1, 90684, Note_off_c, 9, 70, 64
1, 90716, Note_on_c, 9, 69, 47
1, 90776, Note_off_c, 9, 36, 64
1, 90808, Note_off_c, 9, 69, 0
1, 90812, Note_on_c, 9, 69, 56
1, 90876, Note_off_c, 9, 69, 0
1, 90908, Note_on_c, 9, 69, 43
1, 90908, Note_on_c, 9, 56, 100
1, 90932, Note_off_c, 1, 33, 64
1, 90980, Note_off_c, 9, 69, 0
1, 91004, Note_on_c, 9, 54, 87
1, 91004, Note_on_c, 9, 69, 73
1, 91004, Note_on_c, 9, 70, 83
1, 91004, Note_on_c, 9, 39, 100
1, 91056, Note_off_c, 9, 70, 0
1, 91080, Note_off_c, 9, 54, 0
1, 91088, Note_off_c, 9, 69, 0
1, 91100, Note_on_c, 9, 69, 46
1, 91132, Note_off_c, 5, 45, 64
1, 91164, Note_off_c, 9, 56, 100
1, 91180, Control_c, 2, 1, 6
1, 91180, Note_off_c, 9, 69, 0
1, 91196, Note_on_c, 5, 60, 102
1, 91196, Note_on_c, 5, 64, 99
1, 91196, Note_on_c, 5, 69, 102
1, 91196, Note_on_c, 9, 69, 62
1, 91200, Note_off_c, 9, 69, 0
1, 91204, Control_c, 2, 1, 12
1, 91228, Control_c, 2, 1, 20
1, 91252, Control_c, 2, 1, 26
1, 91260, Note_off_c, 9, 39, 100
1, 91284, Note_off_c, 5, 64, 0
1, 91288, Control_c, 2, 1, 36
1, 91288, Note_off_c, 5, 60, 0
1, 91288, Note_off_c, 5, 69, 0
1, 91292, Note_on_c, 9, 69, 48
1, 91316, Control_c, 2, 1, 44
1, 91340, Control_c, 2, 1, 49
1, 91356, Note_off_c, 9, 69, 0
1, 91372, Control_c, 2, 1, 57
1, 91388, Note_on_c, 9, 54, 86
1, 91388, Note_on_c, 9, 69, 78
1, 91388, Note_on_c, 9, 70, 85
1, 91400, Control_c, 2, 1, 64
1, 91428, Control_c, 2, 1, 71
1, 91444, Note_off_c, 9, 54, 0
1, 91444, Note_off_c, 9, 70, 0
1, 91460, Note_off_c, 2, 69, 64
1, 91460, Control_c, 2, 1, 79
1, 91460, Note_off_c, 9, 69, 64
1, 91476, Note_off_c, 9, 69, 0
1, 91484, Note_on_c, 9, 69, 43
1, 91492, Control_c, 2, 1, 84
1, 91520, Control_c, 2, 1, 82
1, 91560, Note_off_c, 9, 69, 0
1, 91564, Control_c, 2, 1, 62
1, 91580, Note_on_c, 1, 33, 119
1, 91580, Note_on_c, 5, 45, 100
1, 91580, Note_on_c, 9, 69, 57
1, 91580, Note_on_c, 9, 36, 116
1, 91588, Note_off_c, 9, 69, 0
1, 91592, Control_c, 2, 1, 37
1, 91620, Control_c, 2, 1, 0
1, 91676, Note_on_c, 9, 69, 49
1, 91736, Note_off_c, 9, 36, 0
1, 91752, Note_off_c, 9, 69, 0
1, 91772, Note_on_c, 5, 60, 102
1, 91772, Note_on_c, 5, 64, 99
1, 91772, Note_on_c, 5, 69, 102
1, 91772, Note_on_c, 9, 54, 85
1, 91772, Note_on_c, 9, 69, 75
1, 91772, Note_on_c, 9, 39, 100
1, 91844, Note_off_c, 9, 54, 0
1, 91856, Note_off_c, 9, 69, 0
1, 91860, Note_off_c, 5, 64, 0
1, 91864, Note_off_c, 5, 60, 0
1, 91864, Note_off_c, 5, 69, 0
1, 91868, Note_on_c, 9, 69, 48
1, 91888, Note_off_c, 5, 45, 0
1, 91892, Note_off_c, 1, 33, 0
1, 91948, Note_off_c, 9, 69, 0
1, 91964, Note_on_c, 9, 69, 56
1, 91964, Note_on_c, 9, 36, 116
1, 92028, Note_off_c, 9, 39, 100
1, 92040, Note_off_c, 9, 69, 0
1, 92060, Note_on_c, 9, 69, 50
1, 92120, Note_off_c, 9, 36, 0
1, 92128, Note_off_c, 9, 69, 0
1, 92156, Note_on_c, 1, 33, 119
1, 92156, Note_on_c, 5, 45, 100
1, 92156, Note_on_c, 9, 54, 83
1, 92156, Note_on_c, 9, 69, 86
1, 92156, Note_on_c, 9, 70, 85
1, 92156, Note_on_c, 9, 36, 116
1, 92156, Note_on_c, 9, 39, 100
1, 92216, Note_off_c, 9, 54, 64
1, 92220, Note_off_c, 9, 70, 64
1, 92228, Note_off_c, 9, 69, 64
1, 92252, Note_on_c, 9, 69, 47
1, 92312, Note_off_c, 9, 36, 64
1, 92344, Note_off_c, 9, 69, 0
1, 92348, Note_on_c, 9, 69, 56
1, 92412, Note_off_c, 9, 39, 64
1, 92412, Note_off_c, 9, 69, 0
1, 92444, Note_on_c, 9, 69, 43
1, 92444, Note_on_c, 9, 56, 100
1, 92468, Note_off_c, 1, 33, 64
1, 92516, Note_off_c, 9, 69, 0
1, 92540, Note_on_c, 9, 54, 87
1, 92540, Note_on_c, 9, 69, 73
1, 92540, Note_on_c, 9, 70, 83
1, 92540, Note_on_c, 9, 39, 100
1, 92592, Note_off_c, 9, 70, 0
1, 92616, Note_off_c, 9, 54, 0
1, 92624, Note_off_c, 9, 69, 0
1, 92636, Note_on_c, 9, 69, 46
1, 92668, Note_off_c, 5, 45, 64
1, 92700, Note_off_c, 9, 56, 100
1, 92716, Note_off_c, 9, 69, 0
1, 92732, Note_on_c, 5, 60, 102
1, 92732, Note_on_c, 5, 64, 99
1, 92732, Note_on_c, 5, 69, 102
1, 92732, Note_on_c, 9, 69, 62
1, 92736, Note_off_c, 9, 69, 0
1, 92796, Note_off_c, 9, 39, 100
1, 92820, Note_off_c, 5, 64, 0
1, 92824, Note_off_c, 5, 60, 0
1, 92824, Note_off_c, 5, 69, 0
1, 92828, Note_on_c, 9, 69, 48
1, 92892, Note_off_c, 9, 69, 0
1, 92924, Note_on_c, 9, 54, 86
1, 92924, Note_on_c, 9, 69, 78
1, 92924, Note_on_c, 9, 70, 85
1, 92980, Note_off_c, 9, 54, 0
1, 92980, Note_off_c, 9, 70, 0
1, 93012, Note_off_c, 9, 69, 0
1, 93020, Note_on_c, 9, 69, 43
1, 93096, Note_off_c, 9, 69, 0
1, 93116, Note_on_c, 1, 33, 119
1, 93116, Note_on_c, 2, 64, 110
1, 93116, Note_on_c, 5, 45, 100
1, 93116, Note_on_c, 9, 69, 57
1, 93116, Note_on_c, 9, 36, 116
1, 93124, Note_off_c, 9, 69, 0
1, 93212, Note_on_c, 9, 69, 49
1, 93272, Note_off_c, 9, 36, 0
1, 93288, Note_off_c, 9, 69, 0
1, 93292, Note_off_c, 2, 64, 0
1, 93308, Note_on_c, 2, 72, 118
1, 93308, Note_on_c, 5, 60, 102
1, 93308, Note_on_c, 5, 64, 99
1, 93308, Note_on_c, 5, 69, 102
1, 93308, Note_on_c, 9, 54, 85
1, 93308, Note_on_c, 9, 69, 75
1, 93308, Note_on_c, 9, 39, 100
1, 93380, Note_off_c, 9, 54, 0
1, 93392, Note_off_c, 9, 69, 0
1, 93396, Note_off_c, 5, 64, 0
1, 93400, Note_off_c, 5, 60, 0
1, 93400, Note_off_c, 5, 69, 0
1, 93404, Note_on_c, 9, 69, 48
1, 93424, Note_off_c, 5, 45, 0
1, 93428, Note_off_c, 1, 33, 0
1, 93460, Note_off_c, 2, 72, 0
1, 93484, Note_off_c, 9, 69, 0
1, 93500, Note_on_c, 9, 69, 56
1, 93500, Note_on_c, 9, 36, 116
1, 93500, Note_on_c, 9, 66, 79
1, 93500, Note_on_c, 9, 69, 87
1, 93500, Note_on_c, 9, 36, 121
1, 93500, Note_on_c, 9, 42, 74
1, 93548, Note_off_c, 9, 66, 0
1, 93564, Note_off_c, 9, 39, 100
1, 93568, Note_off_c, 9, 42, 0
1, 93572, Note_off_c, 9, 69, 0
1, 93576, Note_off_c, 9, 69, 0
1, 93596, Note_on_c, 2, 71, 109
1, 93596, Note_on_c, 9, 69, 50
1, 93648, Note_off_c, 9, 36, 0
1, 93656, Note_off_c, 9, 36, 0
1, 93664, Note_off_c, 9, 69, 0
1, 93692, Note_on_c, 1, 33, 119
1, 93692, Note_on_c, 2, 69, 112
1, 93692, Note_on_c, 5, 45, 100
1, 93692, Note_on_c, 9, 54, 83
1, 93692, Note_on_c, 9, 69, 86
1, 93692, Note_on_c, 9, 70, 85
1, 93692, Note_on_c, 9, 36, 116
1, 93696, Note_off_c, 2, 71, 64
1, 93752, Note_off_c, 9, 54, 64
1, 93756, Note_off_c, 9, 70, 64
1, 93788, Note_on_c, 9, 69, 47
1, 93848, Note_off_c, 9, 36, 64
1, 93880, Note_off_c, 9, 69, 0
1, 93884, Note_on_c, 9, 69, 56
1, 93948, Note_off_c, 9, 69, 0
1, 93980, Note_on_c, 9, 69, 43
1, 93980, Note_on_c, 9, 56, 100
1, 94004, Note_off_c, 1, 33, 64
1, 94052, Note_off_c, 9, 69, 0
1, 94076, Note_on_c, 9, 54, 87
1, 94076, Note_on_c, 9, 69, 73
1, 94076, Note_on_c, 9, 70, 83
1, 94076, Note_on_c, 9, 39, 100
1, 94128, Note_off_c, 9, 70, 0
1, 94152, Note_off_c, 9, 54, 0
1, 94160, Note_off_c, 9, 69, 0
1, 94172, Note_on_c, 9, 69, 46
1, 94204, Note_off_c, 5, 45, 64
1, 94236, Note_off_c, 9, 56, 100
1, 94252, Control_c, 2, 1, 6
1, 94252, Note_off_c, 9, 69, 0
1, 94268, Note_on_c, 5, 60, 102
1, 94268, Note_on_c, 5, 64, 99
1, 94268, Note_on_c, 5, 69, 102
1, 94268, Note_on_c, 9, 69, 62
1, 94272, Note_off_c, 9, 69, 0
1, 94276, Control_c, 2, 1, 12
1, 94300, Control_c, 2, 1, 20
1, 94324, Control_c, 2, 1, 26
1, 94332, Note_off_c, 9, 39, 100
1, 94356, Note_off_c, 5, 64, 0
1, 94360, Control_c, 2, 1, 36
1, 94360, Note_off_c, 5, 60, 0
1, 94360, Note_off_c, 5, 69, 0
1, 94364, Note_on_c, 9, 69, 48
1, 94388, Control_c, 2, 1, 44
1, 94412, Control_c, 2, 1, 49
1, 94428, Note_off_c, 9, 69, 0
1, 94444, Control_c, 2, 1, 57
1, 94460, Note_on_c, 9, 54, 86
1, 94460, Note_on_c, 9, 69, 78
1, 94460, Note_on_c, 9, 70, 85
1, 94472, Control_c, 2, 1, 64
1, 94500, Control_c, 2, 1, 71
1, 94516, Note_off_c, 9, 54, 0
1, 94516, Note_off_c, 9, 70, 0
1, 94532, Note_off_c, 2, 69, 64
1, 94532, Control_c, 2, 1, 79
1, 94532, Note_off_c, 9, 69, 64
1, 94548, Note_off_c, 9, 69, 0
1, 94556, Note_on_c, 9, 69, 43
1, 94564, Control_c, 2, 1, 84
1, 94592, Control_c, 2, 1, 82
1, 94632, Note_off_c, 9, 69, 0
1, 94636, Control_c, 2, 1, 62
1, 94652, Note_on_c, 1, 33, 119
1, 94652, Note_on_c, 5, 45, 100
1, 94652, Note_on_c, 9, 69, 57
1, 94652, Note_on_c, 9, 36, 116
1, 94660, Note_off_c, 9, 69, 0
1, 94664, Control_c, 2, 1, 37
1, 94692, Control_c, 2, 1, 0
1, 94748, Note_on_c, 9, 69, 49
1, 94808, Note_off_c, 9, 36, 0
1, 94824, Note_off_c, 9, 69, 0
1, 94844, Note_on_c, 5, 60, 102
1, 94844, Note_on_c, 5, 64, 99
1, 94844, Note_on_c, 5, 69, 102
1, 94844, Note_on_c, 9, 54, 85
1, 94844, Note_on_c, 9, 69, 75
1, 94844, Note_on_c, 9, 39, 100
1, 94916, Note_off_c, 9, 54, 0
1, 94928, Note_off_c, 9, 69, 0
1, 94932, Note_off_c, 5, 64, 0
1, 94936, Note_off_c, 5, 60, 0
1, 94936, Note_off_c, 5, 69, 0
1, 94940, Note_on_c, 9, 69, 48
1, 94960, Note_off_c, 5, 45, 0
1, 94964, Note_off_c, 1, 33, 0
1, 95020, Note_off_c, 9, 69, 0
1, 95036, Note_on_c, 9, 69, 56
1, 95036, Note_on_c, 9, 36, 116
1, 95100, Note_off_c, 9, 39, 100
1, 95112, Note_off_c, 9, 69, 0
1, 95132, Note_on_c, 9, 69, 50
1, 95192, Note_off_c, 9, 36, 0
1, 95200, Note_off_c, 9, 69, 0
1, 95228, Note_on_c, 1, 33, 119
1, 95228, Note_on_c, 5, 45, 100
1, 95228, Note_on_c, 9, 54, 83
1, 95228, Note_on_c, 9, 69, 86
1, 95228, Note_on_c, 9, 70, 85
1, 95228, Note_on_c, 9, 36, 116
1, 95288, Note_off_c, 9, 54, 64
1, 95292, Note_off_c, 9, 70, 64
1, 95300, Note_off_c, 9, 69, 64
1, 95324, Note_on_c, 9, 69, 47
1, 95384, Note_off_c, 9, 36, 64
1, 95416, Note_off_c, 9, 69, 0
1, 95420, Note_on_c, 9, 69, 56
1, 95484, Note_off_c, 9, 69, 0
1, 95516, Note_on_c, 9, 69, 43
1, 95516, Note_on_c, 9, 56, 100
1, 95540, Note_off_c, 1, 33, 64
1, 95588, Note_off_c, 9, 69, 0
1, 95612, Note_on_c, 9, 54, 87
1, 95612, Note_on_c, 9, 69, 73
1, 95612, Note_on_c, 9, 70, 83
1, 95612, Note_on_c, 9, 39, 100
1, 95664, Note_off_c, 9, 70, 0
1, 95688, Note_off_c, 9, 54, 0
1, 95696, Note_off_c, 9, 69, 0
1, 95708, Note_on_c, 9, 69, 46
1, 95740, Note_off_c, 5, 45, 64
1, 95772, Note_off_c, 9, 56, 100
1, 95788, Note_off_c, 9, 69, 0
1, 95804, Note_on_c, 5, 60, 102
1, 95804, Note_on_c, 5, 64, 99
1, 95804, Note_on_c, 5, 69, 102
1, 95804, Note_on_c, 9, 69, 62
1, 95808, Note_off_c, 9, 69, 0
1, 95868, Note_off_c, 9, 39, 100
1, 95892, Note_off_c, 5, 64, 0
1, 95896, Note_off_c, 5, 60, 0
1, 95896, Note_off_c, 5, 69, 0
1, 95900, Note_on_c, 9, 69, 48
1, 95964, Note_off_c, 9, 69, 0
1, 95996, Note_on_c, 9, 54, 86
1, 95996, Note_on_c, 9, 69, 78
1, 95996, Note_on_c, 9, 70, 85
1, 96052, Note_off_c, 9, 54, 0
1, 96052, Note_off_c, 9, 70, 0
1, 96084, Note_off_c, 9, 69, 0
1, 96092, Note_on_c, 9, 69, 43
1, 96168, Note_off_c, 9, 69, 0
1, 96188, Note_on_c, 1, 33, 119
1, 96188, Note_on_c, 5, 45, 100
1, 96188, Note_on_c, 9, 69, 57
1, 96188, Note_on_c, 9, 36, 116
1, 96196, Note_off_c, 9, 69, 0
1, 96284, Note_on_c, 9, 69, 49
1, 96344, Note_off_c, 9, 36, 0
1, 96360, Note_off_c, 9, 69, 0
1, 96380, Note_on_c, 5, 60, 102
1, 96380, Note_on_c, 5, 64, 99
1, 96380, Note_on_c, 5, 69, 102
1, 96380, Note_on_c, 9, 54, 85
1, 96380, Note_on_c, 9, 69, 75
1, 96380, Note_on_c, 9, 39, 100
1, 96452, Note_off_c, 9, 54, 0
1, 96464, Note_off_c, 9, 69, 0
1, 96468, Note_off_c, 5, 64, 0
1, 96472, Note_off_c, 5, 60, 0
1, 96472, Note_off_c, 5, 69, 0
1, 96476, Note_on_c, 2, 64, 110
1, 96476, Note_on_c, 9, 69, 48
1, 96496, Note_off_c, 5, 45, 0
1, 96500, Note_off_c, 1, 33, 0
1, 96556, Note_off_c, 9, 69, 0
1, 96572, Note_on_c, 2, 72, 118
1, 96572, Note_on_c, 9, 69, 56
1, 96572, Note_on_c, 9, 36, 116
1, 96636, Note_off_c, 9, 39, 100
1, 96648, Note_off_c, 9, 69, 0
1, 96652, Note_off_c, 2, 64, 0
1, 96668, Note_on_c, 2, 71, 109
1, 96668, Note_on_c, 9, 69, 50
1, 96724, Note_off_c, 2, 72, 0
1, 96728, Note_off_c, 9, 36, 0
1, 96736, Note_off_c, 9, 69, 0
1, 96764, Note_on_c, 1, 33, 119
1, 96764, Note_on_c, 2, 69, 112
1, 96764, Note_on_c, 5, 45, 100
1, 96764, Note_on_c, 9, 54, 83
1, 96764, Note_on_c, 9, 69, 86
1, 96764, Note_on_c, 9, 70, 85
1, 96764, Note_on_c, 9, 36, 116
1, 96768, Note_off_c, 2, 71, 64
1, 96824, Note_off_c, 9, 54, 64
1, 96828, Note_off_c, 9, 70, 64
1, 96860, Note_on_c, 9, 69, 47
1, 96920, Note_off_c, 9, 36, 64
1, 96952, Note_off_c, 9, 69, 0
1, 96956, Note_on_c, 9, 69, 56
1, 97020, Note_off_c, 9, 69, 0
1, 97052, Note_on_c, 9, 69, 43
1, 97052, Note_on_c, 9, 56, 100
1, 97076, Note_off_c, 1, 33, 64
1, 97124, Note_off_c, 9, 69, 0
1, 97148, Note_on_c, 9, 54, 87
1, 97148, Note_on_c, 9, 69, 73
1, 97148, Note_on_c, 9, 70, 83
1, 97148, Note_on_c, 9, 39, 100
1, 97200, Note_off_c, 9, 70, 0
1, 97224, Note_off_c, 9, 54, 0
1, 97232, Note_off_c, 9, 69, 0
1, 97244, Note_on_c, 9, 69, 46
1, 97276, Note_off_c, 5, 45, 64
1, 97308, Note_off_c, 9, 56, 100
1, 97324, Control_c, 2, 1, 6
1, 97324, Note_off_c, 9, 69, 0
1, 97340, Note_on_c, 5, 60, 102
1, 97340, Note_on_c, 5, 64, 99
1, 97340, Note_on_c, 5, 69, 102
1, 97340, Note_on_c, 9, 69, 62
1, 97344, Note_off_c, 9, 69, 0
1, 97348, Control_c, 2, 1, 12
1, 97372, Control_c, 2, 1, 20
1, 97396, Control_c, 2, 1, 26
1, 97404, Note_off_c, 9, 39, 100
1, 97428, Note_off_c, 5, 64, 0
1, 97432, Control_c, 2, 1, 36
1, 97432, Note_off_c, 5, 60, 0
1, 97432, Note_off_c, 5, 69, 0
1, 97436, Note_on_c, 9, 69, 48
1, 97460, Control_c, 2, 1, 44
1, 97484, Control_c, 2, 1, 49
1, 97500, Note_off_c, 9, 69, 0
1, 97516, Control_c, 2, 1, 57
1, 97532, Note_on_c, 9, 54, 86
1, 97532, Note_on_c, 9, 69, 78
1, 97532, Note_on_c, 9, 70, 85
1, 97544, Control_c, 2, 1, 64
1, 97572, Control_c, 2, 1, 71
1, 97588, Note_off_c, 9, 54, 0
1, 97588, Note_off_c, 9, 70, 0
1, 97604, Note_off_c, 2, 69, 64
1, 97604, Control_c, 2, 1, 79
1, 97604, Note_off_c, 9, 69, 64
1, 97620, Note_off_c, 9, 69, 0
1, 97628, Note_on_c, 9, 69, 43
1, 97636, Control_c, 2, 1, 84
1, 97664, Control_c, 2, 1, 82
1, 97704, Note_off_c, 9, 69, 0
1, 97708, Control_c, 2, 1, 62
1, 97724, Note_on_c, 1, 33, 119
1, 97724, Note_on_c, 5, 45, 100
1, 97724, Note_on_c, 9, 69, 57
1, 97724, Note_on_c, 9, 36, 116
1, 97732, Note_off_c, 9, 69, 0
1, 97736, Control_c, 2, 1, 37
1, 97764, Control_c, 2, 1, 0
1, 97820, Note_on_c, 9, 69, 49
1, 97880, Note_off_c, 9, 36, 0
1, 97896, Note_off_c, 9, 69, 0
1, 97916, Note_on_c, 5, 60, 102
1, 97916, Note_on_c, 5, 64, 99
1, 97916, Note_on_c, 5, 69, 102
1, 97916, Note_on_c, 9, 54, 85
1, 97916, Note_on_c, 9, 69, 75
1, 97916, Note_on_c, 9, 39, 100
1, 97988, Note_off_c, 9, 54, 0
1, 98000, Note_off_c, 9, 69, 0
1, 98004, Note_off_c, 5, 64, 0
1, 98008, Note_off_c, 5, 60, 0
1, 98008, Note_off_c, 5, 69, 0
1, 98012, Note_on_c, 9, 69, 48
1, 98032, Note_off_c, 5, 45, 0
1, 98036, Note_off_c, 1, 33, 0
1, 98092, Note_off_c, 9, 69, 0
1, 98108, Note_on_c, 9, 69, 56
1, 98108, Note_on_c, 9, 36, 116
1, 98172, Note_off_c, 9, 39, 100
1, 98184, Note_off_c, 9, 69, 0
1, 98204, Note_on_c, 9, 69, 50
1, 98264, Note_off_c, 9, 36, 0
1, 98272, Note_off_c, 9, 69, 0
1, 98300, Note_on_c, 1, 33, 119
1, 98300, Note_on_c, 5, 45, 100
1, 98300, Note_on_c, 9, 54, 83
1, 98300, Note_on_c, 9, 69, 86
1, 98300, Note_on_c, 9, 70, 85
1, 98300, Note_on_c, 9, 36, 116
1, 98300, Note_on_c, 9, 39, 100
1, 98360, Note_off_c, 9, 54, 64
1, 98364, Note_off_c, 9, 70, 64
1, 98372, Note_off_c, 9, 69, 64
1, 98396, Note_on_c, 9, 69, 47
1, 98456, Note_off_c, 9, 36, 64
1, 98488, Note_off_c, 9, 69, 0
1, 98492, Note_on_c, 9, 69, 56
1, 98556, Note_off_c, 9, 39, 64
1, 98556, Note_off_c, 9, 69, 0
1, 98588, Note_on_c, 9, 69, 43
1, 98588, Note_on_c, 9, 56, 100
1, 98612, Note_off_c, 1, 33, 64
1, 98660, Note_off_c, 9, 69, 0
1, 98684, Note_on_c, 9, 54, 87
1, 98684, Note_on_c, 9, 69, 73
1, 98684, Note_on_c, 9, 70, 83
1, 98684, Note_on_c, 9, 39, 100
1, 98736, Note_off_c, 9, 70, 0
1, 98760, Note_off_c, 9, 54, 0
1, 98768, Note_off_c, 9, 69, 0
1, 98780, Note_on_c, 9, 69, 46
1, 98812, Note_off_c, 5, 45, 64
1, 98844, Note_off_c, 9, 56, 100
1, 98860, Note_off_c, 9, 69, 0
1, 98876, Note_on_c, 5, 60, 102
1, 98876, Note_on_c, 5, 64, 99
1, 98876, Note_on_c, 5, 69, 102
1, 98876, Note_on_c, 9, 69, 62
1, 98880, Note_off_c, 9, 69, 0
1, 98940, Note_off_c, 9, 39, 100
1, 98964, Note_off_c, 5, 64, 0
1, 98968, Note_off_c, 5, 60, 0
1, 98968, Note_off_c, 5, 69, 0
1, 98972, Note_on_c, 9, 69, 48
1, 99036, Note_off_c, 9, 69, 0
1, 99068, Note_on_c, 9, 54, 86
1, 99068, Note_on_c, 9, 69, 78
1, 99068, Note_on_c, 9, 70, 85
1, 99124, Note_off_c, 9, 54, 0
1, 99124, Note_off_c, 9, 70, 0
1, 99156, Note_off_c, 9, 69, 0
1, 99164, Note_on_c, 9, 69, 43
1, 99240, Note_off_c, 9, 69, 0
1, 99260, Note_on_c, 1, 33, 119
1, 99260, Note_on_c, 2, 64, 110
1, 99260, Note_on_c, 5, 45, 100
1, 99260, Note_on_c, 9, 69, 57
1, 99260, Note_on_c, 9, 36, 116
1, 99268, Note_off_c, 9, 69, 0
1, 99356, Note_on_c, 9, 69, 49
1, 99416, Note_off_c, 9, 36, 0
1, 99432, Note_off_c, 9, 69, 0
1, 99436, Note_off_c, 2, 64, 0
1, 99452, Note_on_c, 2, 72, 118
1, 99452, Note_on_c, 5, 60, 102
1, 99452, Note_on_c, 5, 64, 99
1, 99452, Note_on_c, 5, 69, 102
1, 99452, Note_on_c, 9, 54, 85
1, 99452, Note_on_c, 9, 69, 75
1, 99452, Note_on_c, 9, 39, 100
1, 99524, Note_off_c, 9, 54, 0
1, 99536, Note_off_c, 9, 69, 0
1, 99540, Note_off_c, 5, 64, 0
1, 99544, Note_off_c, 5, 60, 0
1, 99544, Note_off_c, 5, 69, 0
1, 99548, Note_on_c, 9, 69, 48
1, 99568, Note_off_c, 5, 45, 0
1, 99572, Note_off_c, 1, 33, 0
1, 99604, Note_off_c, 2, 72, 0
1, 99628, Note_off_c, 9, 69, 0
1, 99644, Note_on_c, 9, 69, 56
1, 99644, Note_on_c, 9, 36, 116
1, 99644, Note_on_c, 9, 66, 79
1, 99644, Note_on_c, 9, 69, 87
1, 99644, Note_on_c, 9, 36, 121
1, 99644, Note_on_c, 9, 42, 74
1, 99692, Note_off_c, 9, 66, 0
1, 99708, Note_off_c, 9, 39, 100
1, 99712, Note_off_c, 9, 42, 0
1, 99716, Note_off_c, 9, 69, 0
1, 99720, Note_off_c, 9, 69, 0
1, 99740, Note_on_c, 2, 71, 109
1, 99740, Note_on_c, 9, 69, 50
1, 99792, Note_off_c, 9, 36, 0
1, 99800, Note_off_c, 9, 36, 0
1, 99808, Note_off_c, 9, 69, 0
1, 99836, Note_on_c, 1, 33, 119
1, 99836, Note_on_c, 2, 69, 112
1, 99836, Note_on_c, 5, 45, 100
1, 99836, Note_on_c, 9, 54, 83
1, 99836, Note_on_c, 9, 69, 86
1, 99836, Note_on_c, 9, 70, 85
1, 99836, Note_on_c, 9, 36, 116
1, 99840, Note_off_c, 2, 71, 64
1, 99896, Note_off_c, 9, 54, 64
1, 99900, Note_off_c, 9, 70, 64
1, 99932, Note_on_c, 9, 69, 47
1, 99992, Note_off_c, 9, 36, 64
1, 100024, Note_off_c, 9, 69, 0
1, 100028, Note_on_c, 9, 69, 56
1, 100092, Note_off_c, 9, 69, 0
1, 100124, Note_on_c, 9, 69, 43
1, 100124, Note_on_c, 9, 56, 100
1, 100148, Note_off_c, 1, 33, 64
1, 100196, Note_off_c, 9, 69, 0
1, 100220, Note_on_c, 9, 54, 87
1, 100220, Note_on_c, 9, 69, 73
1, 100220, Note_on_c, 9, 70, 83
1, 100220, Note_on_c, 9, 39, 100
1, 100272, Note_off_c, 9, 70, 0
1, 100296, Note_off_c, 9, 54, 0
1, 100304, Note_off_c, 9, 69, 0
1, 100316, Note_on_c, 9, 69, 46
1, 100348, Note_off_c, 5, 45, 64
1, 100380, Note_off_c, 9, 56, 100
1, 100396, Control_c, 2, 1, 6
1, 100396, Note_off_c, 9, 69, 0
1, 100412, Note_on_c, 5, 60, 102
1, 100412, Note_on_c, 5, 64, 99
1, 100412, Note_on_c, 5, 69, 102
1, 100412, Note_on_c, 9, 69, 62
1, 100416, Note_off_c, 9, 69, 0
1, 100420, Control_c, 2, 1, 12
1, 100444, Control_c, 2, 1, 20
1, 100468, Control_c, 2, 1, 26
1, 100476, Note_off_c, 9, 39, 100
1, 100500, Note_off_c, 5, 64, 0
1, 100504, Control_c, 2, 1, 36
1, 100504, Note_off_c, 5, 60, 0
1, 100504, Note_off_c, 5, 69, 0
1, 100508, Note_on_c, 9, 69, 48
1, 100532, Control_c, 2, 1, 44
1, 100556, Control_c, 2, 1, 49
1, 100572, Note_off_c, 9, 69, 0
1, 100588, Control_c, 2, 1, 57
1, 100604, Note_on_c, 9, 54, 86
1, 100604, Note_on_c, 9, 69, 78
1, 100604, Note_on_c, 9, 70, 85
1, 100616, Control_c, 2, 1, 64
1, 100644, Control_c, 2, 1, 71
1, 100660, Note_off_c, 9, 54, 0
1, 100660, Note_off_c, 9, 70, 0
1, 100676, Note_off_c, 2, 69, 64
1, 100676, Control_c, 2, 1, 79
1, 100676, Note_off_c, 9, 69, 64
1, 100692, Note_off_c, 9, 69, 0
1, 100700, Note_on_c, 9, 69, 43
1, 100708, Control_c, 2, 1, 84
1, 100736, Control_c, 2, 1, 82
1, 100776, Note_off_c, 9, 69, 0
1, 100780, Control_c, 2, 1, 62
1, 100796, Note_on_c, 1, 33, 119
1, 100796, Note_on_c, 5, 45, 100
1, 100796, Note_on_c, 9, 69, 57
1, 100796, Note_on_c, 9, 36, 116
1, 100804, Note_off_c, 9, 69, 0
1, 100808, Control_c, 2, 1, 37
1, 100836, Control_c, 2, 1, 0
1, 100892, Note_on_c, 9, 69, 49
1, 100952, Note_off_c, 9, 36, 0
1, 100968, Note_off_c, 9, 69, 0
1, 100988, Note_on_c, 5, 60, 102
1, 100988, Note_on_c, 5, 64, 99
1, 100988, Note_on_c, 5, 69, 102
1, 100988, Note_on_c, 9, 54, 85
1, 100988, Note_on_c, 9, 69, 75
1, 100988, Note_on_c, 9, 39, 100
1, 101060, Note_off_c, 9, 54, 0
1, 101072, Note_off_c, 9, 69, 0
1, 101076, Note_off_c, 5, 64, 0
1, 101080, Note_off_c, 5, 60, 0
1, 101080, Note_off_c, 5, 69, 0
1, 101084, Note_on_c, 9, 69, 48
1, 101104, Note_off_c, 5, 45, 0
1, 101108, Note_off_c, 1, 33, 0
1, 101164, Note_off_c, 9, 69, 0
1, 101180, Note_on_c, 9, 69, 56
1, 101180, Note_on_c, 9, 36, 116
1, 101244, Note_off_c, 9, 39, 100
1, 101256, Note_off_c, 9, 69, 0
1, 101276, Note_on_c, 9, 69, 50
1, 101336, Note_off_c, 9, 36, 0
1, 101344, Note_off_c, 9, 69, 0
1, 101372, Note_on_c, 1, 33, 119
1, 101372, Note_on_c, 5, 45, 100
1, 101372, Note_on_c, 9, 54, 83
1, 101372, Note_on_c, 9, 69, 86
1, 101372, Note_on_c, 9, 70, 85
1, 101372, Note_on_c, 9, 36, 116
1, 101432, Note_off_c, 9, 54, 64
1, 101436, Note_off_c, 9, 70, 64
1, 101444, Note_off_c, 9, 69, 64
1, 101468, Note_on_c, 9, 69, 47
1, 101528, Note_off_c, 9, 36, 64
1, 101560, Note_off_c, 9, 69, 0
1, 101564, Note_on_c, 9, 69, 56
1, 101628, Note_off_c, 9, 69, 0
1, 101660, Note_on_c, 9, 69, 43
1, 101660, Note_on_c, 9, 56, 100
1, 101684, Note_off_c, 1, 33, 64
1, 101732, Note_off_c, 9, 69, 0
1, 101756, Note_on_c, 9, 54, 87
1, 101756, Note_on_c, 9, 69, 73
1, 101756, Note_on_c, 9, 70, 83
1, 101756, Note_on_c, 9, 39, 100
1, 101808, Note_off_c, 9, 70, 0
1, 101832, Note_off_c, 9, 54, 0
1, 101840, Note_off_c, 9, 69, 0
1, 101852, Note_on_c, 9, 69, 46
1, 101884, Note_off_c, 5, 45, 64
1, 101916, Note_off_c, 9, 56, 100
1, 101932, Note_off_c, 9, 69, 0
1, 101948, Note_on_c, 5, 60, 102
1, 101948, Note_on_c, 5, 64, 99
1, 101948, Note_on_c, 5, 69, 102
1, 101948, Note_on_c, 9, 69, 62
1, 101952, Note_off_c, 9, 69, 0
1, 102012, Note_off_c, 9, 39, 100
1, 102036, Note_off_c, 5, 64, 0
1, 102040, Note_off_c, 5, 60, 0
1, 102040, Note_off_c, 5, 69, 0
1, 102044, Note_on_c, 9, 69, 48
1, 102108, Note_off_c, 9, 69, 0
1, 102140, Note_on_c, 9, 54, 86
1, 102140, Note_on_c, 9, 69, 78
1, 102140, Note_on_c, 9, 70, 85
1, 102196, Note_off_c, 9, 54, 0
1, 102196, Note_off_c, 9, 70, 0
1, 102228, Note_off_c, 9, 69, 0
1, 102236, Note_on_c, 9, 69, 43
1, 102312, Note_off_c, 9, 69, 0
1, 102332, Note_on_c, 1, 33, 119
1, 102332, Note_on_c, 5, 45, 100
1, 102332, Note_on_c, 9, 69, 57
1, 102332, Note_on_c, 9, 36, 116
1, 102340, Note_off_c, 9, 69, 0
1, 102428, Note_on_c, 9, 69, 49
1, 102488, Note_off_c, 9, 36, 0
1, 102504, Note_off_c, 9, 69, 0
1, 102524, Note_on_c, 5, 60, 102
1, 102524, Note_on_c, 5, 64, 99
1, 102524, Note_on_c, 5, 69, 102
1, 102524, Note_on_c, 9, 54, 85
1, 102524, Note_on_c, 9, 69, 75
1, 102524, Note_on_c, 9, 39, 100
1, 102596, Note_off_c, 9, 54, 0
1, 102608, Note_off_c, 9, 69, 0
1, 102612, Note_off_c, 5, 64, 0
1, 102616, Note_off_c, 5, 60, 0
1, 102616, Note_off_c, 5, 69, 0
1, 102620, Note_on_c, 2, 64, 110
1, 102620, Note_on_c, 9, 69, 48
1, 102640, Note_off_c, 5, 45, 0
1, 102644, Note_off_c, 1, 33, 0
1, 102700, Note_off_c, 9, 69, 0
1, 102716, Note_on_c, 2, 72, 118
1, 102716, Note_on_c, 9, 69, 56
1, 102716, Note_on_c, 9, 36, 116
1, 102780, Note_off_c, 9, 39, 100
1, 102792, Note_off_c, 9, 69, 0
1, 102796, Note_off_c, 2, 64, 0
1, 102812, Note_on_c, 2, 71, 109
1, 102812, Note_on_c, 9, 69, 50
1, 102868, Note_off_c, 2, 72, 0
1, 102872, Note_off_c, 9, 36, 0
1, 102880, Note_off_c, 9, 69, 0
1, 102908, Note_on_c, 1, 33, 119
1, 102908, Note_on_c, 2, 69, 112
1, 102908, Note_on_c, 5, 45, 100
1, 102908, Note_on_c, 9, 54, 83
1, 102908, Note_on_c, 9, 69, 86
1, 102908, Note_on_c, 9, 70, 85
1, 102908, Note_on_c, 9, 36, 116
1, 102912, Note_off_c, 2, 71, 64
1, 102968, Note_off_c, 9, 54, 64
1, 102972, Note_off_c, 9, 70, 64
1, 103004, Note_on_c, 9, 69, 47
1, 103064, Note_off_c, 9, 36, 64
1, 103096, Note_off_c, 9, 69, 0
1, 103100, Note_on_c, 9, 69, 56
1, 103164, Note_off_c, 9, 69, 0
1, 103196, Note_on_c, 9, 69, 43
1, 103196, Note_on_c, 9, 56, 100
1, 103220, Note_off_c, 1, 33, 64
1, 103268, Note_off_c, 9, 69, 0
1, 103292, Note_on_c, 9, 54, 87
1, 103292, Note_on_c, 9, 69, 73
1, 103292, Note_on_c, 9, 70, 83
1, 103292, Note_on_c, 9, 39, 100
1, 103344, Note_off_c, 9, 70, 0
1, 103368, Note_off_c, 9, 54, 0
1, 103376, Note_off_c, 9, 69, 0
1, 103388, Note_on_c, 9, 69, 46
1, 103420, Note_off_c, 5, 45, 64
1, 103452, Note_off_c, 9, 56, 100
1, 103468, Control_c, 2, 1, 6
1, 103468, Note_off_c, 9, 69, 0
1, 103484, Note_on_c, 5, 60, 102
1, 103484, Note_on_c, 5, 64, 99
1, 103484, Note_on_c, 5, 69, 102
1, 103484, Note_on_c, 9, 69, 62
1, 103488, Note_off_c, 9, 69, 0
1, 103492, Control_c, 2, 1, 12
1, 103516, Control_c, 2, 1, 20
1, 103540, Control_c, 2, 1, 26
1, 103548, Note_off_c, 9, 39, 100
1, 103572, Note_off_c, 5, 64, 0
1, 103576, Control_c, 2, 1, 36
1, 103576, Note_off_c, 5, 60, 0
1, 103576, Note_off_c, 5, 69, 0
1, 103580, Note_on_c, 9, 69, 48
1, 103604, Control_c, 2, 1, 44
1, 103628, Control_c, 2, 1, 49
1, 103644, Note_off_c, 9, 69, 0
1, 103660, Control_c, 2, 1, 57
1, 103676, Note_on_c, 9, 54, 86
1, 103676, Note_on_c, 9, 69, 78
1, 103676, Note_on_c, 9, 70, 85
1, 103688, Control_c, 2, 1, 64
1, 103716, Control_c, 2, 1, 71
1, 103732, Note_off_c, 9, 54, 0
1, 103732, Note_off_c, 9, 70, 0
1, 103748, Note_off_c, 2, 69, 64
1, 103748, Control_c, 2, 1, 79
1, 103748, Note_off_c, 9, 69, 64
1, 103764, Note_off_c, 9, 69, 0
1, 103772, Note_on_c, 9, 69, 43
1, 103780, Control_c, 2, 1, 84
1, 103808, Control_c, 2, 1, 82
1, 103848, Note_off_c, 9, 69, 0
1, 103852, Control_c, 2, 1, 62
1, 103868, Note_on_c, 1, 33, 119
1, 103868, Note_on_c, 5, 45, 100
1, 103868, Note_on_c, 9, 69, 57
1, 103868, Note_on_c, 9, 36, 116
1, 103876, Note_off_c, 9, 69, 0
1, 103880, Control_c, 2, 1, 37
1, 103908, Control_c, 2, 1, 0
1, 103964, Note_on_c, 9, 69, 49
1, 104024, Note_off_c, 9, 36, 0
1, 104040, Note_off_c, 9, 69, 0
1, 104060, Note_on_c, 5, 60, 102
1, 104060, Note_on_c, 5, 64, 99
1, 104060, Note_on_c, 5, 69, 102
1, 104060, Note_on_c, 9, 54, 85
1, 104060, Note_on_c, 9, 69, 75
1, 104060, Note_on_c, 9, 39, 100
1, 104132, Note_off_c, 9, 54, 0
1, 104144, Note_off_c, 9, 69, 0
1, 104148, Note_off_c, 5, 64, 0
1, 104152, Note_off_c, 5, 60, 0
1, 104152, Note_off_c, 5, 69, 0
1, 104156, Note_on_c, 9, 69, 48
1, 104176, Note_off_c, 5, 45, 0
1, 104180, Note_off_c, 1, 33, 0
1, 104236, Note_off_c, 9, 69, 0
1, 104252, Note_on_c, 9, 69, 56
1, 104252, Note_on_c, 9, 36, 116
1, 104316, Note_off_c, 9, 39, 100
1, 104328, Note_off_c, 9, 69, 0
1, 104348, Note_on_c, 9, 69, 50
1, 104408, Note_off_c, 9, 36, 0
1, 104416, Note_off_c, 9, 69, 0
1, 104444, Note_on_c, 1, 33, 119
1, 104444, Note_on_c, 5, 45, 100
1, 104444, Note_on_c, 9, 54, 83
1, 104444, Note_on_c, 9, 69, 86
1, 104444, Note_on_c, 9, 70, 85
1, 104444, Note_on_c, 9, 36, 116
1, 104444, Note_on_c, 9, 39, 100
1, 104504, Note_off_c, 9, 54, 64
1, 104508, Note_off_c, 9, 70, 64
1, 104516, Note_off_c, 9, 69, 64
1, 104540, Note_on_c, 9, 69, 47
1, 104600, Note_off_c, 9, 36, 64
1, 104632, Note_off_c, 9, 69, 0
1, 104636, Note_on_c, 9, 69, 56
1, 104700, Note_off_c, 9, 39, 64
1, 104700, Note_off_c, 9, 69, 0
1, 104732, Note_on_c, 9, 69, 43
1, 104732, Note_on_c, 9, 56, 100
1, 104756, Note_off_c, 1, 33, 64
1, 104804, Note_off_c, 9, 69, 0
1, 104828, Note_on_c, 9, 54, 87
1, 104828, Note_on_c, 9, 69, 73
1, 104828, Note_on_c, 9, 70, 83
1, 104828, Note_on_c, 9, 39, 100
1, 104880, Note_off_c, 9, 70, 0
1, 104904, Note_off_c, 9, 54, 0
1, 104912, Note_off_c, 9, 69, 0
1, 104924, Note_on_c, 9, 69, 46
1, 104956, Note_off_c, 5, 45, 64
1, 104988, Note_off_c, 9, 56, 100
1, 105004, Note_off_c, 9, 69, 0
1, 105020, Note_on_c, 5, 60, 102
1, 105020, Note_on_c, 5, 64, 99
1, 105020, Note_on_c, 5, 69, 102
1, 105020, Note_on_c, 9, 69, 62
1, 105024, Note_off_c, 9, 69, 0
1, 105084, Note_off_c, 9, 39, 100
1, 105108, Note_off_c, 5, 64, 0
1, 105112, Note_off_c, 5, 60, 0
1, 105112, Note_off_c, 5, 69, 0
1, 105116, Note_on_c, 9, 69, 48
1, 105180, Note_off_c, 9, 69, 0
1, 105212, Note_on_c, 9, 54, 86
1, 105212, Note_on_c, 9, 69, 78
1, 105212, Note_on_c, 9, 70, 85
1, 105268, Note_off_c, 9, 54, 0
1, 105268, Note_off_c, 9, 70, 0
1, 105300, Note_off_c, 9, 69, 0
1, 105308, Note_on_c, 9, 69, 43
1, 105384, Note_off_c, 9, 69, 0
1, 105404, Note_on_c, 1, 33, 119
1, 105404, Note_on_c, 2, 64, 110
1, 105404, Note_on_c, 5, 45, 100
1, 105404, Note_on_c, 9, 69, 57
1, 105404, Note_on_c, 9, 36, 116
1, 105412, Note_off_c, 9, 69, 0
1, 105500, Note_on_c, 9, 69, 49
1, 105560, Note_off_c, 9, 36, 0
1, 105576, Note_off_c, 9, 69, 0
1, 105580, Note_off_c, 2, 64, 0
1, 105596, Note_on_c, 2, 72, 118
1, 105596, Note_on_c, 5, 60, 102
1, 105596, Note_on_c, 5, 64, 99
1, 105596, Note_on_c, 5, 69, 102
1, 105596, Note_on_c, 9, 54, 85
1, 105596, Note_on_c, 9, 69, 75
1, 105596, Note_on_c, 9, 39, 100
1, 105668, Note_off_c, 9, 54, 0
1, 105680, Note_off_c, 9, 69, 0
1, 105684, Note_off_c, 5, 64, 0
1, 105688, Note_off_c, 5, 60, 0
1, 105688, Note_off_c, 5, 69, 0
1, 105692, Note_on_c, 9, 69, 48
1, 105712, Note_off_c, 5, 45, 0
1, 105716, Note_off_c, 1, 33, 0
1, 105748, Note_off_c, 2, 72, 0
1, 105772, Note_off_c, 9, 69, 0
1, 105788, Note_on_c, 9, 69, 56
1, 105788, Note_on_c, 9, 36, 116
1, 105788, Note_on_c, 9, 66, 79
1, 105788, Note_on_c, 9, 69, 87
1, 105788, Note_on_c, 9, 36, 121
1, 105788, Note_on_c, 9, 42, 74
1, 105836, Note_off_c, 9, 66, 0
1, 105852, Note_off_c, 9, 39, 100
1, 105856, Note_off_c, 9, 42, 0
1, 105860, Note_off_c, 9, 69, 0
1, 105864, Note_off_c, 9, 69, 0
1, 105884, Note_on_c, 2, 71, 109
1, 105884, Note_on_c, 9, 69, 50
1, 105936, Note_off_c, 9, 36, 0
1, 105944, Note_off_c, 9, 36, 0
1, 105952, Note_off_c, 9, 69, 0
1, 105980, Note_on_c, 1, 38, 100
1, 105980, Note_on_c, 2, 69, 112
1, 105980, Note_on_c, 5, 50, 100
1, 105980, Note_on_c, 9, 54, 83
1, 105980, Note_on_c, 9, 69, 86
1, 105980, Note_on_c, 9, 70, 85
1, 105980, Note_on_c, 9, 36, 116
1, 105984, Note_off_c, 2, 71, 64
1, 106040, Note_off_c, 9, 54, 64
1, 106044, Note_off_c, 9, 70, 64
1, 106076, Note_on_c, 9, 69, 47
1, 106136, Note_off_c, 9, 36, 64
1, 106168, Note_off_c, 9, 69, 0
1, 106172, Note_on_c, 9, 69, 56
1, 106236, Note_off_c, 1, 38, 64
1, 106236, Note_off_c, 9, 69, 0
1, 106268, Note_on_c, 9, 69, 43
1, 106268, Note_on_c, 9, 56, 100
1, 106288, Note_off_c, 5, 50, 64
1, 106340, Note_off_c, 9, 69, 0
1, 106364, Note_on_c, 9, 54, 87
1, 106364, Note_on_c, 9, 69, 73
1, 106364, Note_on_c, 9, 70, 83
1, 106364, Note_on_c, 9, 39, 100
1, 106416, Note_off_c, 9, 70, 0
1, 106440, Note_off_c, 9, 54, 0
1, 106448, Note_off_c, 9, 69, 0
1, 106460, Note_on_c, 9, 69, 46
1, 106524, Note_off_c, 9, 56, 100
1, 106540, Control_c, 2, 1, 6
1, 106540, Note_off_c, 9, 69, 0
1, 106556, Note_on_c, 5, 65, 102
1, 106556, Note_on_c, 5, 69, 99
1, 106556, Note_on_c, 5, 74, 102
1, 106556, Note_on_c, 9, 69, 62
1, 106560, Note_off_c, 9, 69, 0
1, 106564, Control_c, 2, 1, 12
1, 106588, Control_c, 2, 1, 20
1, 106612, Control_c, 2, 1, 26
1, 106620, Note_off_c, 9, 39, 100
1, 106644, Note_off_c, 5, 69, 0
1, 106648, Control_c, 2, 1, 36
1, 106648, Note_off_c, 5, 65, 0
1, 106648, Note_off_c, 5, 74, 0
1, 106652, Note_on_c, 9, 69, 48
1, 106676, Control_c, 2, 1, 44
1, 106700, Control_c, 2, 1, 49
1, 106716, Note_off_c, 9, 69, 0
1, 106732, Control_c, 2, 1, 57
1, 106748, Note_on_c, 9, 54, 86
1, 106748, Note_on_c, 9, 69, 78
1, 106748, Note_on_c, 9, 70, 85
1, 106760, Control_c, 2, 1, 64
1, 106788, Control_c, 2, 1, 71
1, 106804, Note_off_c, 9, 54, 0
1, 106804, Note_off_c, 9, 70, 0
1, 106820, Note_off_c, 2, 69, 64
1, 106820, Control_c, 2, 1, 79
1, 106820, Note_off_c, 9, 69, 64
1, 106836, Note_off_c, 9, 69, 0
1, 106844, Note_on_c, 9, 69, 43
1, 106852, Control_c, 2, 1, 84
1, 106880, Control_c, 2, 1, 82
1, 106920, Note_off_c, 9, 69, 0
1, 106924, Control_c, 2, 1, 62
1, 106940, Note_on_c, 1, 38, 100
1, 106940, Note_on_c, 5, 50, 100
1, 106940, Note_on_c, 9, 69, 57
1, 106940, Note_on_c, 9, 36, 116
1, 106948, Note_off_c, 9, 69, 0
1, 106952, Control_c, 2, 1, 37
1, 106980, Control_c, 2, 1, 0
1, 107036, Note_on_c, 9, 69, 49
1, 107096, Note_off_c, 9, 36, 0
1, 107112, Note_off_c, 9, 69, 0
1, 107132, Note_on_c, 5, 65, 102
1, 107132, Note_on_c, 5, 69, 99
1, 107132, Note_on_c, 5, 74, 102
1, 107132, Note_on_c, 9, 54, 85
1, 107132, Note_on_c, 9, 69, 75
1, 107132, Note_on_c, 9, 39, 100
1, 107196, Note_off_c, 1, 38, 100
1, 107204, Note_off_c, 9, 54, 0
1, 107216, Note_off_c, 9, 69, 0
1, 107220, Note_off_c, 5, 69, 0
1, 107224, Note_off_c, 5, 65, 0
1, 107224, Note_off_c, 5, 74, 0
1, 107228, Note_on_c, 9, 69, 48
1, 107248, Note_off_c, 5, 50, 0
1, 107308, Note_off_c, 9, 69, 0
1, 107324, Note_on_c, 9, 69, 56
1, 107324, Note_on_c, 9, 36, 116
1, 107388, Note_off_c, 9, 39, 100
1, 107400, Note_off_c, 9, 69, 0
1, 107420, Note_on_c, 9, 69, 50
1, 107480, Note_off_c, 9, 36, 0
1, 107488, Note_off_c, 9, 69, 0
1, 107516, Note_on_c, 1, 38, 100
1, 107516, Note_on_c, 5, 50, 100
1, 107516, Note_on_c, 9, 54, 83
1, 107516, Note_on_c, 9, 69, 86
1, 107516, Note_on_c, 9, 70, 85
1, 107516, Note_on_c, 9, 36, 116
1, 107576, Note_off_c, 9, 54, 64
1, 107580, Note_off_c, 9, 70, 64
1, 107588, Note_off_c, 9, 69, 64
1, 107612, Note_on_c, 9, 69, 47
1, 107672, Note_off_c, 9, 36, 64
1, 107704, Note_off_c, 9, 69, 0
1, 107708, Note_on_c, 9, 69, 56
1, 107772, Note_off_c, 1, 38, 64
1, 107772, Note_off_c, 9, 69, 0
1, 107804, Note_on_c, 9, 69, 43
1, 107804, Note_on_c, 9, 56, 100
1, 107824, Note_off_c, 5, 50, 64
1, 107876, Note_off_c, 9, 69, 0
1, 107900, Note_on_c, 9, 54, 87
1, 107900, Note_on_c, 9, 69, 73
1, 107900, Note_on_c, 9, 70, 83
1, 107900, Note_on_c, 9, 39, 100
1, 107952, Note_off_c, 9, 70, 0
1, 107976, Note_off_c, 9, 54, 0
1, 107984, Note_off_c, 9, 69, 0
1, 107996, Note_on_c, 9, 69, 46
1, 108060, Note_off_c, 9, 56, 100
1, 108076, Note_off_c, 9, 69, 0
1, 108092, Note_on_c, 5, 65, 102
1, 108092, Note_on_c, 5, 69, 99
1, 108092, Note_on_c, 5, 74, 102
1, 108092, Note_on_c, 9, 69, 62
1, 108096, Note_off_c, 9, 69, 0
1, 108156, Note_off_c, 9, 39, 100
1, 108180, Note_off_c, 5, 69, 0
1, 108184, Note_off_c, 5, 65, 0
1, 108184, Note_off_c, 5, 74, 0
1, 108188, Note_on_c, 9, 69, 48
1, 108252, Note_off_c, 9, 69, 0
1, 108284, Note_on_c, 9, 54, 86
1, 108284, Note_on_c, 9, 69, 78
1, 108284, Note_on_c, 9, 70, 85
1, 108340, Note_off_c, 9, 54, 0
1, 108340, Note_off_c, 9, 70, 0
1, 108372, Note_off_c, 9, 69, 0
1, 108380, Note_on_c, 9, 69, 43
1, 108456, Note_off_c, 9, 69, 0
1, 108476, Note_on_c, 1, 38, 100
1, 108476, Note_on_c, 5, 50, 100
1, 108476, Note_on_c, 9, 69, 57
1, 108476, Note_on_c, 9, 36, 116
1, 108484, Note_off_c, 9, 69, 0
1, 108572, Note_on_c, 9, 69, 49
1, 108632, Note_off_c, 9, 36, 0
1, 108648, Note_off_c, 9, 69, 0
1, 108668, Note_on_c, 5, 65, 102
1, 108668, Note_on_c, 5, 69, 99
1, 108668, Note_on_c, 5, 74, 102
1, 108668, Note_on_c, 9, 54, 85
1, 108668, Note_on_c, 9, 69, 75
1, 108668, Note_on_c, 9, 39, 100
1, 108732, Note_off_c, 1, 38, 100
1, 108740, Note_off_c, 9, 54, 0
1, 108752, Note_off_c, 9, 69, 0
1, 108756, Note_off_c, 5, 69, 0
1, 108760, Note_off_c, 5, 65, 0
1, 108760, Note_off_c, 5, 74, 0
1, 108764, Note_on_c, 2, 64, 110
1, 108764, Note_on_c, 9, 69, 48
1, 108784, Note_off_c, 5, 50, 0
1, 108844, Note_off_c, 9, 69, 0
1, 108860, Note_on_c, 2, 72, 118
1, 108860, Note_on_c, 9, 69, 56
1, 108860, Note_on_c, 9, 36, 116
1, 108924, Note_off_c, 9, 39, 100
1, 108936, Note_off_c, 9, 69, 0
1, 108940, Note_off_c, 2, 64, 0
1, 108956, Note_on_c, 2, 71, 109
1, 108956, Note_on_c, 9, 69, 50
1, 109012, Note_off_c, 2, 72, 0
1, 109016, Note_off_c, 9, 36, 0
1, 109024, Note_off_c, 9, 69, 0
1, 109052, Note_on_c, 1, 33, 119
1, 109052, Note_on_c, 2, 69, 112
1, 109052, Note_on_c, 5, 45, 100
1, 109052, Note_on_c, 9, 54, 83
1, 109052, Note_on_c, 9, 69, 86
1, 109052, Note_on_c, 9, 70, 85
1, 109052, Note_on_c, 9, 36, 116
1, 109056, Note_off_c, 2, 71, 64
1, 109112, Note_off_c, 9, 54, 64
1, 109116, Note_off_c, 9, 70, 64
1, 109148, Note_on_c, 9, 69, 47
1, 109208, Note_off_c, 9, 36, 64
1, 109240, Note_off_c, 9, 69, 0
1, 109244, Note_on_c, 9, 69, 56
1, 109308, Note_off_c, 9, 69, 0
1, 109340, Note_on_c, 9, 69, 43
1, 109340, Note_on_c, 9, 56, 100
1, 109364, Note_off_c, 1, 33, 64
1, 109412, Note_off_c, 9, 69, 0
1, 109436, Note_on_c, 9, 54, 87
1, 109436, Note_on_c, 9, 69, 73
1, 109436, Note_on_c, 9, 70, 83
1, 109436, Note_on_c, 9, 39, 100
1, 109488, Note_off_c, 9, 70, 0
1, 109512, Note_off_c, 9, 54, 0
1, 109520, Note_off_c, 9, 69, 0
1, 109532, Note_on_c, 9, 69, 46
1, 109564, Note_off_c, 5, 45, 64
1, 109596, Note_off_c, 9, 56, 100
1, 109612, Control_c, 2, 1, 6
1, 109612, Note_off_c, 9, 69, 0
1, 109628, Note_on_c, 5, 60, 102
1, 109628, Note_on_c, 5, 64, 99
1, 109628, Note_on_c, 5, 69, 102
1, 109628, Note_on_c, 9, 69, 62
1, 109632, Note_off_c, 9, 69, 0
1, 109636, Control_c, 2, 1, 12
1, 109660, Control_c, 2, 1, 20
1, 109684, Control_c, 2, 1, 26
1, 109692, Note_off_c, 9, 39, 100
1, 109716, Note_off_c, 5, 64, 0
1, 109720, Control_c, 2, 1, 36
1, 109720, Note_off_c, 5, 60, 0
1, 109720, Note_off_c, 5, 69, 0
1, 109724, Note_on_c, 9, 69, 48
1, 109748, Control_c, 2, 1, 44
1, 109772, Control_c, 2, 1, 49
1, 109788, Note_off_c, 9, 69, 0
1, 109804, Control_c, 2, 1, 57
1, 109820, Note_on_c, 9, 54, 86
1, 109820, Note_on_c, 9, 69, 78
1, 109820, Note_on_c, 9, 70, 85
1, 109832, Control_c, 2, 1, 64
1, 109860, Control_c, 2, 1, 71
1, 109876, Note_off_c, 9, 54, 0
1, 109876, Note_off_c, 9, 70, 0
1, 109892, Note_off_c, 2, 69, 64
1, 109892, Control_c, 2, 1, 79
1, 109892, Note_off_c, 9, 69, 64
1, 109908, Note_off_c, 9, 69, 0
1, 109916, Note_on_c, 9, 69, 43
1, 109924, Control_c, 2, 1, 84
1, 109952, Control_c, 2, 1, 82
1, 109992, Note_off_c, 9, 69, 0
1, 109996, Control_c, 2, 1, 62
1, 110012, Note_on_c, 1, 33, 119
1, 110012, Note_on_c, 5, 45, 100
1, 110012, Note_on_c, 9, 69, 57
1, 110012, Note_on_c, 9, 36, 116
1, 110020, Note_off_c, 9, 69, 0
1, 110024, Control_c, 2, 1, 37
1, 110052, Control_c, 2, 1, 0
1, 110108, Note_on_c, 9, 69, 49
1, 110168, Note_off_c, 9, 36, 0
1, 110184, Note_off_c, 9, 69, 0
1, 110204, Note_on_c, 5, 60, 102
1, 110204, Note_on_c, 5, 64, 99
1, 110204, Note_on_c, 5, 69, 102
1, 110204, Note_on_c, 9, 54, 85
1, 110204, Note_on_c, 9, 69, 75
1, 110204, Note_on_c, 9, 39, 100
1, 110276, Note_off_c, 9, 54, 0
1, 110288, Note_off_c, 9, 69, 0
1, 110292, Note_off_c, 5, 64, 0
1, 110296, Note_off_c, 5, 60, 0
1, 110296, Note_off_c, 5, 69, 0
1, 110300, Note_on_c, 9, 69, 48
1, 110320, Note_off_c, 5, 45, 0
1, 110324, Note_off_c, 1, 33, 0
1, 110380, Note_off_c, 9, 69, 0
1, 110396, Note_on_c, 9, 69, 56
1, 110396, Note_on_c, 9, 36, 116
1, 110460, Note_off_c, 9, 39, 100
1, 110472, Note_off_c, 9, 69, 0
1, 110492, Note_on_c, 9, 69, 50
1, 110552, Note_off_c, 9, 36, 0
1, 110560, Note_off_c, 9, 69, 0
1, 110588, Note_on_c, 1, 33, 119
1, 110588, Note_on_c, 5, 45, 100
1, 110588, Note_on_c, 9, 54, 83
1, 110588, Note_on_c, 9, 69, 86
1, 110588, Note_on_c, 9, 70, 85
1, 110588, Note_on_c, 9, 36, 116
1, 110588, Note_on_c, 9, 39, 100
1, 110648, Note_off_c, 9, 54, 64
1, 110652, Note_off_c, 9, 70, 64
1, 110660, Note_off_c, 9, 69, 64
1, 110684, Note_on_c, 9, 69, 47
1, 110744, Note_off_c, 9, 36, 64
1, 110776, Note_off_c, 9, 69, 0
1, 110780, Note_on_c, 9, 69, 56
1, 110844, Note_off_c, 9, 39, 64
1, 110844, Note_off_c, 9, 69, 0
1, 110876, Note_on_c, 9, 69, 43
1, 110876, Note_on_c, 9, 56, 100
1, 110900, Note_off_c, 1, 33, 64
1, 110948, Note_off_c, 9, 69, 0
1, 110972, Note_on_c, 9, 54, 87
1, 110972, Note_on_c, 9, 69, 73
1, 110972, Note_on_c, 9, 70, 83
1, 110972, Note_on_c, 9, 39, 100
1, 111024, Note_off_c, 9, 70, 0
1, 111048, Note_off_c, 9, 54, 0
1, 111056, Note_off_c, 9, 69, 0
1, 111068, Note_on_c, 9, 69, 46
1, 111100, Note_off_c, 5, 45, 64
1, 111132, Note_off_c, 9, 56, 100
1, 111148, Note_off_c, 9, 69, 0
1, 111164, Note_on_c, 5, 60, 102
1, 111164, Note_on_c, 5, 64, 99
1, 111164, Note_on_c, 5, 69, 102
1, 111164, Note_on_c, 9, 69, 62
1, 111168, Note_off_c, 9, 69, 0
1, 111228, Note_off_c, 9, 39, 100
1, 111252, Note_off_c, 5, 64, 0
1, 111256, Note_off_c, 5, 60, 0
1, 111256, Note_off_c, 5, 69, 0
1, 111260, Note_on_c, 9, 69, 48
1, 111324, Note_off_c, 9, 69, 0
1, 111356, Note_on_c, 9, 54, 86
1, 111356, Note_on_c, 9, 69, 78
1, 111356, Note_on_c, 9, 70, 85
1, 111412, Note_off_c, 9, 54, 0
1, 111412, Note_off_c, 9, 70, 0
1, 111444, Note_off_c, 9, 69, 0
1, 111452, Note_on_c, 9, 69, 43
1, 111528, Note_off_c, 9, 69, 0
1, 111548, Note_on_c, 1, 33, 119
1, 111548, Note_on_c, 2, 64, 110
1, 111548, Note_on_c, 5, 45, 100
1, 111548, Note_on_c, 9, 69, 57
1, 111548, Note_on_c, 9, 36, 116
1, 111556, Note_off_c, 9, 69, 0
1, 111644, Note_on_c, 9, 69, 49
1, 111704, Note_off_c, 9, 36, 0
1, 111720, Note_off_c, 9, 69, 0
1, 111724, Note_off_c, 2, 64, 0
1, 111740, Note_on_c, 2, 72, 118
1, 111740, Note_on_c, 5, 60, 102
1, 111740, Note_on_c, 5, 64, 99
1, 111740, Note_on_c, 5, 69, 102
1, 111740, Note_on_c, 9, 54, 85
1, 111740, Note_on_c, 9, 69, 75
1, 111740, Note_on_c, 9, 39, 100
1, 111812, Note_off_c, 9, 54, 0
1, 111824, Note_off_c, 9, 69, 0
1, 111828, Note_off_c, 5, 64, 0
1, 111832, Note_off_c, 5, 60, 0
1, 111832, Note_off_c, 5, 69, 0
1, 111836, Note_on_c, 9, 69, 48
1, 111856, Note_off_c, 5, 45, 0
1, 111860, Note_off_c, 1, 33, 0
1, 111892, Note_off_c, 2, 72, 0
1, 111916, Note_off_c, 9, 69, 0
1, 111932, Note_on_c, 9, 69, 56
1, 111932, Note_on_c, 9, 36, 116
1, 111932, Note_on_c, 9, 66, 79
1, 111932, Note_on_c, 9, 69, 87
1, 111932, Note_on_c, 9, 36, 121
1, 111932, Note_on_c, 9, 42, 74
1, 111980, Note_off_c, 9, 66, 0
1, 111996, Note_off_c, 9, 39, 100
1, 112000, Note_off_c, 9, 42, 0
1, 112004, Note_off_c, 9, 69, 0
1, 112008, Note_off_c, 9, 69, 0
1, 112028, Note_on_c, 2, 71, 109
1, 112028, Note_on_c, 9, 69, 50
1, 112080, Note_off_c, 9, 36, 0
1, 112088, Note_off_c, 9, 36, 0
1, 112096, Note_off_c, 9, 69, 0
1, 112124, Note_on_c, 1, 33, 119
1, 112124, Note_on_c, 2, 69, 112
1, 112124, Note_on_c, 5, 45, 100
1, 112124, Note_on_c, 9, 54, 83
1, 112124, Note_on_c, 9, 69, 86
1, 112124, Note_on_c, 9, 70, 85
1, 112124, Note_on_c, 9, 36, 116
1, 112128, Note_off_c, 2, 71, 64
1, 112184, Note_off_c, 9, 54, 64
1, 112188, Note_off_c, 9, 70, 64
1, 112220, Note_on_c, 9, 69, 47
1, 112280, Note_off_c, 9, 36, 64
1, 112312, Note_off_c, 9, 69, 0
1, 112316, Note_on_c, 9, 69, 56
1, 112380, Note_off_c, 9, 69, 0
1, 112412, Note_on_c, 9, 69, 43
1, 112412, Note_on_c, 9, 56, 100
1, 112436, Note_off_c, 1, 33, 64
1, 112484, Note_off_c, 9, 69, 0
1, 112508, Note_on_c, 9, 54, 87
1, 112508, Note_on_c, 9, 69, 73
1, 112508, Note_on_c, 9, 70, 83
1, 112508, Note_on_c, 9, 39, 100
1, 112560, Note_off_c, 9, 70, 0
1, 112584, Note_off_c, 9, 54, 0
1, 112592, Note_off_c, 9, 69, 0
1, 112604, Note_on_c, 9, 69, 46
1, 112636, Note_off_c, 5, 45, 64
1, 112668, Note_off_c, 9, 56, 100
1, 112684, Control_c, 2, 1, 6
1, 112684, Note_off_c, 9, 69, 0
1, 112700, Note_on_c, 5, 60, 102
1, 112700, Note_on_c, 5, 64, 99
1, 112700, Note_on_c, 5, 69, 102
1, 112700, Note_on_c, 9, 69, 62
1, 112704, Note_off_c, 9, 69, 0
1, 112708, Control_c, 2, 1, 12
1, 112732, Control_c, 2, 1, 20
1, 112756, Control_c, 2, 1, 26
1, 112764, Note_off_c, 9, 39, 100
1, 112788, Note_off_c, 5, 64, 0
1, 112792, Control_c, 2, 1, 36
1, 112792, Note_off_c, 5, 60, 0
1, 112792, Note_off_c, 5, 69, 0
1, 112796, Note_on_c, 9, 69, 48
1, 112820, Control_c, 2, 1, 44
1, 112844, Control_c, 2, 1, 49
1, 112860, Note_off_c, 9, 69, 0
1, 112876, Control_c, 2, 1, 57
1, 112892, Note_on_c, 9, 54, 86
1, 112892, Note_on_c, 9, 69, 78
1, 112892, Note_on_c, 9, 70, 85
1, 112904, Control_c, 2, 1, 64
1, 112932, Control_c, 2, 1, 71
1, 112948, Note_off_c, 9, 54, 0
1, 112948, Note_off_c, 9, 70, 0
1, 112964, Note_off_c, 2, 69, 64
1, 112964, Control_c, 2, 1, 79
1, 112964, Note_off_c, 9, 69, 64
1, 112980, Note_off_c, 9, 69, 0
1, 112988, Note_on_c, 9, 69, 43
1, 112996, Control_c, 2, 1, 84
1, 113024, Control_c, 2, 1, 82
1, 113064, Note_off_c, 9, 69, 0
1, 113068, Control_c, 2, 1, 62
1, 113084, Note_on_c, 1, 33, 119
1, 113084, Note_on_c, 5, 45, 100
1, 113084, Note_on_c, 9, 69, 57
1, 113084, Note_on_c, 9, 36, 116
1, 113092, Note_off_c, 9, 69, 0
1, 113096, Control_c, 2, 1, 37
1, 113124, Control_c, 2, 1, 0
1, 113180, Note_on_c, 9, 69, 49
1, 113240, Note_off_c, 9, 36, 0
1, 113256, Note_off_c, 9, 69, 0
1, 113276, Note_on_c, 5, 60, 102
1, 113276, Note_on_c, 5, 64, 99
1, 113276, Note_on_c, 5, 69, 102
1, 113276, Note_on_c, 9, 54, 85
1, 113276, Note_on_c, 9, 69, 75
1, 113276, Note_on_c, 9, 39, 100
1, 113348, Note_off_c, 9, 54, 0
1, 113360, Note_off_c, 9, 69, 0
1, 113364, Note_off_c, 5, 64, 0
1, 113368, Note_off_c, 5, 60, 0
1, 113368, Note_off_c, 5, 69, 0
1, 113372, Note_on_c, 9, 69, 48
1, 113392, Note_off_c, 5, 45, 0
1, 113396, Note_off_c, 1, 33, 0
1, 113452, Note_off_c, 9, 69, 0
1, 113468, Note_on_c, 9, 69, 56
1, 113468, Note_on_c, 9, 36, 116
1, 113532, Note_off_c, 9, 39, 100
1, 113544, Note_off_c, 9, 69, 0
1, 113564, Note_on_c, 9, 69, 50
1, 113624, Note_off_c, 9, 36, 0
1, 113632, Note_off_c, 9, 69, 0
1, 113660, Note_on_c, 1, 33, 119
1, 113660, Note_on_c, 5, 45, 100
1, 113660, Note_on_c, 9, 54, 83
1, 113660, Note_on_c, 9, 69, 86
1, 113660, Note_on_c, 9, 70, 85
1, 113660, Note_on_c, 9, 36, 116
1, 113720, Note_off_c, 9, 54, 64
1, 113724, Note_off_c, 9, 70, 64
1, 113732, Note_off_c, 9, 69, 64
1, 113756, Note_on_c, 9, 69, 47
1, 113816, Note_off_c, 9, 36, 64
1, 113848, Note_off_c, 9, 69, 0
1, 113852, Note_on_c, 9, 69, 56
1, 113916, Note_off_c, 9, 69, 0
1, 113948, Note_on_c, 9, 69, 43
1, 113948, Note_on_c, 9, 56, 100
1, 113972, Note_off_c, 1, 33, 64
1, 114020, Note_off_c, 9, 69, 0
1, 114044, Note_on_c, 9, 54, 87
1, 114044, Note_on_c, 9, 69, 73
1, 114044, Note_on_c, 9, 70, 83
1, 114044, Note_on_c, 9, 39, 100
1, 114096, Note_off_c, 9, 70, 0
1, 114120, Note_off_c, 9, 54, 0
1, 114128, Note_off_c, 9, 69, 0
1, 114140, Note_on_c, 9, 69, 46
1, 114172, Note_off_c, 5, 45, 64
1, 114204, Note_off_c, 9, 56, 100
1, 114220, Note_off_c, 9, 69, 0
1, 114236, Note_on_c, 5, 60, 102
1, 114236, Note_on_c, 5, 64, 99
1, 114236, Note_on_c, 5, 69, 102
1, 114236, Note_on_c, 9, 69, 62
1, 114240, Note_off_c, 9, 69, 0
1, 114300, Note_off_c, 9, 39, 100
1, 114324, Note_off_c, 5, 64, 0
1, 114328, Note_off_c, 5, 60, 0
1, 114328, Note_off_c, 5, 69, 0
1, 114332, Note_on_c, 9, 69, 48
1, 114396, Note_off_c, 9, 69, 0
1, 114428, Note_on_c, 9, 54, 86
1, 114428, Note_on_c, 9, 69, 78
1, 114428, Note_on_c, 9, 70, 85
1, 114484, Note_off_c, 9, 54, 0
1, 114484, Note_off_c, 9, 70, 0
1, 114516, Note_off_c, 9, 69, 0
1, 114524, Note_on_c, 9, 69, 43
1, 114600, Note_off_c, 9, 69, 0
1, 114620, Note_on_c, 1, 33, 119
1, 114620, Note_on_c, 5, 45, 100
1, 114620, Note_on_c, 9, 69, 57
1, 114620, Note_on_c, 9, 36, 116
1, 114628, Note_off_c, 9, 69, 0
1, 114716, Note_on_c, 9, 69, 49
1, 114776, Note_off_c, 9, 36, 0
1, 114792, Note_off_c, 9, 69, 0
1, 114812, Note_on_c, 5, 60, 102
1, 114812, Note_on_c, 5, 64, 99
1, 114812, Note_on_c, 5, 69, 102
1, 114812, Note_on_c, 9, 54, 85
1, 114812, Note_on_c, 9, 69, 75
1, 114812, Note_on_c, 9, 39, 100
1, 114884, Note_off_c, 9, 54, 0
1, 114896, Note_off_c, 9, 69, 0
1, 114900, Note_off_c, 5, 64, 0
1, 114904, Note_off_c, 5, 60, 0
1, 114904, Note_off_c, 5, 69, 0
1, 114908, Note_on_c, 2, 64, 110
1, 114908, Note_on_c, 9, 69, 48
1, 114928, Note_off_c, 5, 45, 0
1, 114932, Note_off_c, 1, 33, 0
1, 114988, Note_off_c, 9, 69, 0
1, 115004, Note_on_c, 2, 72, 118
1, 115004, Note_on_c, 9, 69, 56
1, 115004, Note_on_c, 9, 36, 116
1, 115068, Note_off_c, 9, 39, 100
1, 115080, Note_off_c, 9, 69, 0
1, 115084, Note_off_c, 2, 64, 0
1, 115100, Note_on_c, 2, 71, 109
1, 115100, Note_on_c, 9, 69, 50
1, 115156, Note_off_c, 2, 72, 0
1, 115160, Note_off_c, 9, 36, 0
1, 115168, Note_off_c, 9, 69, 0
1, 115196, Note_on_c, 1, 33, 119
1, 115196, Note_on_c, 2, 69, 112
1, 115196, Note_on_c, 5, 45, 100
1, 115196, Note_on_c, 9, 54, 83
1, 115196, Note_on_c, 9, 69, 86
1, 115196, Note_on_c, 9, 70, 85
1, 115196, Note_on_c, 9, 36, 116
1, 115200, Note_off_c, 2, 71, 64
1, 115256, Note_off_c, 9, 54, 64
1, 115260, Note_off_c, 9, 70, 64
1, 115292, Note_on_c, 9, 69, 47
1, 115352, Note_off_c, 9, 36, 64
1, 115384, Note_off_c, 9, 69, 0
1, 115388, Note_on_c, 9, 69, 56
1, 115452, Note_off_c, 9, 69, 0
1, 115484, Note_on_c, 9, 69, 43
1, 115484, Note_on_c, 9, 56, 100
1, 115508, Note_off_c, 1, 33, 64
1, 115556, Note_off_c, 9, 69, 0
1, 115580, Note_on_c, 9, 54, 87
1, 115580, Note_on_c, 9, 69, 73
1, 115580, Note_on_c, 9, 70, 83
1, 115580, Note_on_c, 9, 39, 100
1, 115632, Note_off_c, 9, 70, 0
1, 115656, Note_off_c, 9, 54, 0
1, 115664, Note_off_c, 9, 69, 0
1, 115676, Note_on_c, 9, 69, 46
1, 115708, Note_off_c, 5, 45, 64
1, 115740, Note_off_c, 9, 56, 100
1, 115756, Control_c, 2, 1, 6
1, 115756, Note_off_c, 9, 69, 0
1, 115772, Note_on_c, 5, 60, 102
1, 115772, Note_on_c, 5, 64, 99
1, 115772, Note_on_c, 5, 69, 102
1, 115772, Note_on_c, 9, 69, 62
1, 115776, Note_off_c, 9, 69, 0
1, 115780, Control_c, 2, 1, 12
1, 115804, Control_c, 2, 1, 20
1, 115828, Control_c, 2, 1, 26
1, 115836, Note_off_c, 9, 39, 100
1, 115860, Note_off_c, 5, 64, 0
1, 115864, Control_c, 2, 1, 36
1, 115864, Note_off_c, 5, 60, 0
1, 115864, Note_off_c, 5, 69, 0
1, 115868, Note_on_c, 9, 69, 48
1, 115892, Control_c, 2, 1, 44
1, 115916, Control_c, 2, 1, 49
1, 115932, Note_off_c, 9, 69, 0
1, 115948, Control_c, 2, 1, 57
1, 115964, Note_on_c, 9, 54, 86
1, 115964, Note_on_c, 9, 69, 78
1, 115964, Note_on_c, 9, 70, 85
1, 115976, Control_c, 2, 1, 64
1, 116004, Control_c, 2, 1, 71
1, 116020, Note_off_c, 9, 54, 0
1, 116020, Note_off_c, 9, 70, 0
1, 116036, Note_off_c, 2, 69, 64
1, 116036, Control_c, 2, 1, 79
1, 116036, Note_off_c, 9, 69, 64
1, 116052, Note_off_c, 9, 69, 0
1, 116060, Note_on_c, 9, 69, 43
1, 116068, Control_c, 2, 1, 84
1, 116096, Control_c, 2, 1, 82
1, 116136, Note_off_c, 9, 69, 0
1, 116140, Control_c, 2, 1, 62
1, 116156, Note_on_c, 1, 33, 119
1, 116156, Note_on_c, 5, 45, 100
1, 116156, Note_on_c, 9, 69, 57
1, 116156, Note_on_c, 9, 36, 116
1, 116164, Note_off_c, 9, 69, 0
1, 116168, Control_c, 2, 1, 37
1, 116196, Control_c, 2, 1, 0
1, 116252, Note_on_c, 9, 69, 49
1, 116312, Note_off_c, 9, 36, 0
1, 116328, Note_off_c, 9, 69, 0
1, 116348, Note_on_c, 5, 60, 102
1, 116348, Note_on_c, 5, 64, 99
1, 116348, Note_on_c, 5, 69, 102
1, 116348, Note_on_c, 9, 54, 85
1, 116348, Note_on_c, 9, 69, 75
1, 116348, Note_on_c, 9, 39, 100
1, 116420, Note_off_c, 9, 54, 0
1, 116432, Note_off_c, 9, 69, 0
1, 116436, Note_off_c, 5, 64, 0
1, 116440, Note_off_c, 5, 60, 0
1, 116440, Note_off_c, 5, 69, 0
1, 116444, Note_on_c, 9, 69, 48
1, 116464, Note_off_c, 5, 45, 0
1, 116468, Note_off_c, 1, 33, 0
1, 116524, Note_off_c, 9, 69, 0
1, 116540, Note_on_c, 9, 69, 56
1, 116540, Note_on_c, 9, 36, 116
1, 116604, Note_off_c, 9, 39, 100
1, 116616, Note_off_c, 9, 69, 0
1, 116636, Note_on_c, 9, 69, 50
1, 116696, Note_off_c, 9, 36, 0
1, 116704, Note_off_c, 9, 69, 0
1, 116732, Note_on_c, 1, 33, 119
1, 116732, Note_on_c, 5, 45, 100
1, 116732, Note_on_c, 9, 54, 83
1, 116732, Note_on_c, 9, 69, 86
1, 116732, Note_on_c, 9, 70, 85
1, 116732, Note_on_c, 9, 36, 116
1, 116732, Note_on_c, 9, 39, 100
1, 116792, Note_off_c, 9, 54, 64
1, 116796, Note_off_c, 9, 70, 64
1, 116804, Note_off_c, 9, 69, 64
1, 116828, Note_on_c, 9, 69, 47
1, 116888, Note_off_c, 9, 36, 64
1, 116920, Note_off_c, 9, 69, 0
1, 116924, Note_on_c, 9, 69, 56
1, 116988, Note_off_c, 9, 39, 64
1, 116988, Note_off_c, 9, 69, 0
1, 117020, Note_on_c, 9, 69, 43
1, 117020, Note_on_c, 9, 56, 100
1, 117044, Note_off_c, 1, 33, 64
1, 117092, Note_off_c, 9, 69, 0
1, 117116, Note_on_c, 9, 54, 87
1, 117116, Note_on_c, 9, 69, 73
1, 117116, Note_on_c, 9, 70, 83
1, 117116, Note_on_c, 9, 39, 100
1, 117168, Note_off_c, 9, 70, 0
1, 117192, Note_off_c, 9, 54, 0
1, 117200, Note_off_c, 9, 69, 0
1, 117212, Note_on_c, 9, 69, 46
1, 117244, Note_off_c, 5, 45, 64
1, 117276, Note_off_c, 9, 56, 100
1, 117292, Note_off_c, 9, 69, 0
1, 117308, Note_on_c, 5, 60, 102
1, 117308, Note_on_c, 5, 64, 99
1, 117308, Note_on_c, 5, 69, 102
1, 117308, Note_on_c, 9, 69, 62
1, 117312, Note_off_c, 9, 69, 0
1, 117372, Note_off_c, 9, 39, 100
1, 117396, Note_off_c, 5, 64, 0
1, 117400, Note_off_c, 5, 60, 0
1, 117400, Note_off_c, 5, 69, 0
1, 117404, Note_on_c, 9, 69, 48
1, 117468, Note_off_c, 9, 69, 0
1, 117500, Note_on_c, 9, 54, 86
1, 117500, Note_on_c, 9, 69, 78
1, 117500, Note_on_c, 9, 70, 85
1, 117556, Note_off_c, 9, 54, 0
1, 117556, Note_off_c, 9, 70, 0
1, 117588, Note_off_c, 9, 69, 0
1, 117596, Note_on_c, 9, 69, 43
1, 117672, Note_off_c, 9, 69, 0
1, 117692, Note_on_c, 1, 33, 119
1, 117692, Note_on_c, 2, 64, 110
1, 117692, Note_on_c, 5, 45, 100
1, 117692, Note_on_c, 9, 69, 57
1, 117692, Note_on_c, 9, 36, 116
1, 117700, Note_off_c, 9, 69, 0
1, 117788, Note_on_c, 9, 69, 49
1, 117848, Note_off_c, 9, 36, 0
1, 117864, Note_off_c, 9, 69, 0
1, 117868, Note_off_c, 2, 64, 0
1, 117884, Note_on_c, 2, 72, 118
1, 117884, Note_on_c, 5, 60, 102
1, 117884, Note_on_c, 5, 64, 99
1, 117884, Note_on_c, 5, 69, 102
1, 117884, Note_on_c, 9, 54, 85
1, 117884, Note_on_c, 9, 69, 75
1, 117884, Note_on_c, 9, 39, 100
1, 117956, Note_off_c, 9, 54, 0
1, 117968, Note_off_c, 9, 69, 0
1, 117972, Note_off_c, 5, 64, 0
1, 117976, Note_off_c, 5, 60, 0
1, 117976, Note_off_c, 5, 69, 0
1, 117980, Note_on_c, 9, 69, 48
1, 118000, Note_off_c, 5, 45, 0
1, 118004, Note_off_c, 1, 33, 0
1, 118036, Note_off_c, 2, 72, 0
1, 118060, Note_off_c, 9, 69, 0
1, 118076, Note_on_c, 9, 69, 56
1, 118076, Note_on_c, 9, 36, 116
1, 118076, Note_on_c, 9, 66, 79
1, 118076, Note_on_c, 9, 69, 87
1, 118076, Note_on_c, 9, 36, 121
1, 118076, Note_on_c, 9, 42, 74
1, 118124, Note_off_c, 9, 66, 0
1, 118140, Note_off_c, 9, 39, 100
1, 118144, Note_off_c, 9, 42, 0
1, 118148, Note_off_c, 9, 69, 0
1, 118152, Note_off_c, 9, 69, 0
1, 118172, Note_on_c, 2, 71, 109
1, 118172, Note_on_c, 9, 69, 50
1, 118224, Note_off_c, 9, 36, 0
1, 118232, Note_off_c, 9, 36, 0
1, 118240, Note_off_c, 9, 69, 0
1, 118268, Note_on_c, 1, 33, 119
1, 118268, Note_on_c, 2, 69, 112
1, 118268, Note_on_c, 5, 45, 100
1, 118268, Note_on_c, 9, 54, 85
1, 118268, Note_on_c, 9, 36, 85
1, 118272, Note_off_c, 2, 71, 64
1, 118328, Note_off_c, 9, 54, 64
1, 118424, Note_off_c, 9, 36, 64
1, 118556, Note_on_c, 9, 56, 84
1, 118580, Note_off_c, 1, 33, 64
1, 118652, Note_on_c, 9, 54, 83
1, 118652, Note_on_c, 9, 39, 83
1, 118728, Note_off_c, 9, 54, 0
1, 118780, Note_off_c, 5, 45, 64
1, 118812, Note_off_c, 9, 56, 100
1, 118828, Control_c, 2, 1, 6
1, 118844, Note_on_c, 5, 60, 96
1, 118844, Note_on_c, 5, 64, 96
1, 118844, Note_on_c, 5, 69, 96
1, 118852, Control_c, 2, 1, 12
1, 118876, Control_c, 2, 1, 20
1, 118900, Control_c, 2, 1, 26
1, 118908, Note_off_c, 9, 39, 100
1, 118932, Note_off_c, 5, 64, 0
1, 118936, Control_c, 2, 1, 36
1, 118936, Note_off_c, 5, 60, 0
1, 118936, Note_off_c, 5, 69, 0
1, 118964, Control_c, 2, 1, 44
1, 118988, Control_c, 2, 1, 49
1, 119020, Control_c, 2, 1, 57
1, 119036, Note_on_c, 9, 54, 80
1, 119048, Control_c, 2, 1, 64
1, 119076, Control_c, 2, 1, 71
1, 119092, Note_off_c, 9, 54, 0
1, 119108, Note_off_c, 2, 69, 64
1, 119108, Control_c, 2, 1, 79
1, 119140, Control_c, 2, 1, 84
1, 119168, Control_c, 2, 1, 82
1, 119212, Control_c, 2, 1, 62
1, 119228, Note_on_c, 1, 33, 110
1, 119228, Note_on_c, 5, 45, 93
1, 119228, Note_on_c, 9, 36, 79
1, 119240, Control_c, 2, 1, 37
1, 119268, Control_c, 2, 1, 0
1, 119384, Note_off_c, 9, 36, 0
1, 119420, Note_on_c, 5, 60, 91
1, 119420, Note_on_c, 5, 64, 91
1, 119420, Note_on_c, 5, 69, 91
1, 119420, Note_on_c, 9, 54, 78
1, 119420, Note_on_c, 9, 39, 78
1, 119492, Note_off_c, 9, 54, 0
1, 119508, Note_off_c, 5, 64, 0
1, 119512, Note_off_c, 5, 60, 0
1, 119512, Note_off_c, 5, 69, 0
1, 119536, Note_off_c, 5, 45, 0
1, 119540, Note_off_c, 1, 33, 0
1, 119612, Note_on_c, 9, 36, 76
1, 119676, Note_off_c, 9, 39, 100
1, 119768, Note_off_c, 9, 36, 0
1, 119804, Note_on_c, 1, 33, 105
1, 119804, Note_on_c, 5, 45, 88
1, 119804, Note_on_c, 9, 54, 75
1, 119804, Note_on_c, 9, 36, 75
1, 119864, Note_off_c, 9, 54, 64
1, 119960, Note_off_c, 9, 36, 64
1, 120092, Note_on_c, 9, 56, 73
1, 120116, Note_off_c, 1, 33, 64
1, 120188, Note_on_c, 9, 54, 72
1, 120188, Note_on_c, 9, 39, 72
1, 120264, Note_off_c, 9, 54, 0
1, 120316, Note_off_c, 5, 45, 64
1, 120348, Note_off_c, 9, 56, 100
1, 120380, Note_on_c, 5, 60, 83
1, 120380, Note_on_c, 5, 64, 83
1, 120380, Note_on_c, 5, 69, 83
1, 120444, Note_off_c, 9, 39, 100
1, 120468, Note_off_c, 5, 64, 0
1, 120472, Note_off_c, 5, 60, 0
1, 120472, Note_off_c, 5, 69, 0
1, 120572, Note_on_c, 9, 54, 70
1, 120628, Note_off_c, 9, 54, 0
1, 120764, Note_on_c, 1, 33, 95
1, 120764, Note_on_c, 5, 45, 80
1, 120764, Note_on_c, 9, 36, 68
1, 120920, Note_off_c, 9, 36, 0
1, 120956, Note_on_c, 5, 60, 79
1, 120956, Note_on_c, 5, 64, 79
1, 120956, Note_on_c, 5, 69, 79
1, 120956, Note_on_c, 9, 54, 67
1, 120956, Note_on_c, 9, 39, 67
1, 121028, Note_off_c, 9, 54, 0
1, 121044, Note_off_c, 5, 64, 0
1, 121048, Note_off_c, 5, 60, 0
1, 121048, Note_off_c, 5, 69, 0
1, 121052, Note_on_c, 2, 64, 87
1, 121072, Note_off_c, 5, 45, 0
1, 121076, Note_off_c, 1, 33, 0
1, 121148, Note_on_c, 2, 72, 86
1, 121148, Note_on_c, 9, 36, 66
1, 121212, Note_off_c, 9, 39, 100
1, 121228, Note_off_c, 2, 64, 0
1, 121244, Note_on_c, 2, 71, 85
1, 121300, Note_off_c, 2, 72, 0
1, 121304, Note_off_c, 9, 36, 0
1, 121340, Note_on_c, 1, 33, 90
1, 121340, Note_on_c, 2, 69, 84
1, 121340, Note_on_c, 5, 45, 75
1, 121340, Note_on_c, 9, 54, 64
1, 121340, Note_on_c, 9, 36, 64
1, 121344, Note_off_c, 2, 71, 64
1, 121400, Note_off_c, 9, 54, 64
1, 121496, Note_off_c, 9, 36, 64
1, 121628, Note_on_c, 9, 56, 62
1, 121652, Note_off_c, 1, 33, 64
1, 121724, Note_on_c, 9, 54, 62
1, 121724, Note_on_c, 9, 39, 62
1, 121800, Note_off_c, 9, 54, 0
1, 121852, Note_off_c, 5, 45, 64
1, 121884, Note_off_c, 9, 56, 100
1, 121900, Control_c, 2, 1, 6
1, 121916, Note_on_c, 5, 60, 71
1, 121916, Note_on_c, 5, 64, 71
1, 121916, Note_on_c, 5, 69, 71
1, 121924, Control_c, 2, 1, 12
1, 121948, Control_c, 2, 1, 20
1, 121972, Control_c, 2, 1, 26
1, 121980, Note_off_c, 9, 39, 100
1, 122004, Note_off_c, 5, 64, 0
1, 122008, Control_c, 2, 1, 36
1, 122008, Note_off_c, 5, 60, 0
1, 122008, Note_off_c, 5, 69, 0
1, 122036, Control_c, 2, 1, 44
1, 122060, Control_c, 2, 1, 49
1, 122092, Control_c, 2, 1, 57
1, 122108, Note_on_c, 9, 54, 59
1, 122120, Control_c, 2, 1, 64
1, 122148, Control_c, 2, 1, 71
1, 122164, Note_off_c, 9, 54, 0
1, 122180, Note_off_c, 2, 69, 64
1, 122180, Control_c, 2, 1, 79
1, 122212, Control_c, 2, 1, 84
1, 122240, Control_c, 2, 1, 82
1, 122284, Control_c, 2, 1, 62
1, 122300, Note_on_c, 1, 33, 80
1, 122300, Note_on_c, 5, 45, 68
1, 122300, Note_on_c, 9, 36, 58
1, 122312, Control_c, 2, 1, 37
1, 122340, Control_c, 2, 1, 0
1, 122456, Note_off_c, 9, 36, 0
1, 122492, Note_on_c, 5, 60, 66
1, 122492, Note_on_c, 5, 64, 66
1, 122492, Note_on_c, 5, 69, 66
1, 122492, Note_on_c, 9, 54, 56
1, 122492, Note_on_c, 9, 39, 56
1, 122564, Note_off_c, 9, 54, 0
1, 122580, Note_off_c, 5, 64, 0
1, 122584, Note_off_c, 5, 60, 0
1, 122584, Note_off_c, 5, 69, 0
1, 122608, Note_off_c, 5, 45, 0
1, 122612, Note_off_c, 1, 33, 0
1, 122684, Note_on_c, 9, 36, 55
1, 122748, Note_off_c, 9, 39, 100
1, 122840, Note_off_c, 9, 36, 0
1, 122876, Note_on_c, 1, 33, 75
1, 122876, Note_on_c, 5, 45, 63
1, 122876, Note_on_c, 9, 54, 54
1, 122876, Note_on_c, 9, 36, 54
1, 122876, Note_on_c, 9, 39, 54
1, 122936, Note_off_c, 9, 54, 64
1, 123032, Note_off_c, 9, 36, 64
1, 123132, Note_off_c, 9, 39, 64
1, 123164, Note_on_c, 9, 56, 52
1, 123188, Note_off_c, 1, 33, 64
1, 123260, Note_on_c, 9, 54, 51
1, 123260, Note_on_c, 9, 39, 51
1, 123336, Note_off_c, 9, 54, 0
1, 123388, Note_off_c, 5, 45, 64
1, 123420, Note_off_c, 9, 56, 100
1, 123452, Note_on_c, 5, 60, 58
1, 123452, Note_on_c, 5, 64, 58
1, 123452, Note_on_c, 5, 69, 58
1, 123516, Note_off_c, 9, 39, 100
1, 123540, Note_off_c, 5, 64, 0
1, 123544, Note_off_c, 5, 60, 0
1, 123544, Note_off_c, 5, 69, 0
1, 123644, Note_on_c, 9, 54, 48
1, 123700, Note_off_c, 9, 54, 0
1, 123836, Note_on_c, 1, 33, 66
1, 123836, Note_on_c, 2, 64, 62
1, 123836, Note_on_c, 5, 45, 55
1, 123836, Note_on_c, 9, 36, 47
1, 123992, Note_off_c, 9, 36, 0
1, 124012, Note_off_c, 2, 64, 0
1, 124028, Note_on_c, 2, 72, 60
1, 124028, Note_on_c, 5, 60, 54
1, 124028, Note_on_c, 5, 64, 54
1, 124028, Note_on_c, 5, 69, 54
1, 124028, Note_on_c, 9, 54, 46
1, 124028, Note_on_c, 9, 39, 46
1, 124100, Note_off_c, 9, 54, 0
1, 124116, Note_off_c, 5, 64, 0
1, 124120, Note_off_c, 5, 60, 0
1, 124120, Note_off_c, 5, 69, 0
1, 124144, Note_off_c, 5, 45, 0
1, 124148, Note_off_c, 1, 33, 0
1, 124180, Note_off_c, 2, 72, 0
1, 124220, Note_on_c, 9, 36, 44
1, 124220, Note_on_c, 9, 36, 44
1, 124220, Note_on_c, 9, 42, 44
1, 124284, Note_off_c, 9, 39, 100
1, 124288, Note_off_c, 9, 42, 0
1, 124316, Note_on_c, 2, 71, 57
1, 124368, Note_off_c, 9, 36, 0
1, 124376, Note_off_c, 9, 36, 0
1, 124412, Note_on_c, 1, 38, 60
1, 124412, Note_on_c, 2, 69, 56
1, 124412, Note_on_c, 5, 50, 50
1, 124412, Note_on_c, 9, 54, 43
1, 124412, Note_on_c, 9, 36, 43
1, 124416, Note_off_c, 2, 71, 64
1, 124472, Note_off_c, 9, 54, 64
1, 124568, Note_off_c, 9, 36, 64
1, 124668, Note_off_c, 1, 38, 64
1, 124700, Note_on_c, 9, 56, 41
1, 124720, Note_off_c, 5, 50, 64
1, 124796, Note_on_c, 9, 54, 40
1, 124796, Note_on_c, 9, 39, 40
1, 124872, Note_off_c, 9, 54, 0
1, 124956, Note_off_c, 9, 56, 100
1, 124972, Control_c, 2, 1, 6
1, 124988, Note_on_c, 5, 65, 46
1, 124988, Note_on_c, 5, 69, 46
1, 124988, Note_on_c, 5, 74, 46
1, 124996, Control_c, 2, 1, 12
1, 125020, Control_c, 2, 1, 20
1, 125044, Control_c, 2, 1, 26
1, 125052, Note_off_c, 9, 39, 100
1, 125076, Note_off_c, 5, 69, 0
1, 125080, Control_c, 2, 1, 36
1, 125080, Note_off_c, 5, 65, 0
1, 125080, Note_off_c, 5, 74, 0
1, 125108, Control_c, 2, 1, 44
1, 125132, Control_c, 2, 1, 49
1, 125164, Control_c, 2, 1, 57
1, 125180, Note_on_c, 9, 54, 38
1, 125192, Control_c, 2, 1, 64
1, 125220, Control_c, 2, 1, 71
1, 125236, Note_off_c, 9, 54, 0
1, 125252, Note_off_c, 2, 69, 64
1, 125252, Control_c, 2, 1, 79
1, 125284, Control_c, 2, 1, 84
1, 125312, Control_c, 2, 1, 82
1, 125356, Control_c, 2, 1, 62
1, 125372, Note_on_c, 1, 38, 51
1, 125372, Note_on_c, 5, 50, 43
1, 125372, Note_on_c, 9, 36, 36
1, 125384, Control_c, 2, 1, 37
1, 125412, Control_c, 2, 1, 0
1, 125528, Note_off_c, 9, 36, 0
1, 125564, Note_on_c, 5, 65, 41
1, 125564, Note_on_c, 5, 69, 41
1, 125564, Note_on_c, 5, 74, 41
1, 125564, Note_on_c, 9, 54, 35
1, 125564, Note_on_c, 9, 39, 35
1, 125628, Note_off_c, 1, 38, 100
1, 125636, Note_off_c, 9, 54, 0
1, 125652, Note_off_c, 5, 69, 0
1, 125656, Note_off_c, 5, 65, 0
1, 125656, Note_off_c, 5, 74, 0
1, 125680, Note_off_c, 5, 50, 0
1, 125756, Note_on_c, 9, 36, 34
1, 125820, Note_off_c, 9, 39, 100
1, 125912, Note_off_c, 9, 36, 0
1, 125948, Note_on_c, 1, 38, 45
1, 125948, Note_on_c, 5, 50, 38
1, 125948, Note_on_c, 9, 54, 32
1, 125948, Note_on_c, 9, 36, 32
1, 126008, Note_off_c, 9, 54, 64
1, 126104, Note_off_c, 9, 36, 64
1, 126204, Note_off_c, 1, 38, 64
1, 126236, Note_on_c, 9, 56, 30
1, 126256, Note_off_c, 5, 50, 64
1, 126332, Note_on_c, 9, 54, 30
1, 126332, Note_on_c, 9, 39, 30
1, 126408, Note_off_c, 9, 54, 0
1, 126492, Note_off_c, 9, 56, 100
1, 126524, Note_on_c, 5, 65, 33
1, 126524, Note_on_c, 5, 69, 33
1, 126524, Note_on_c, 5, 74, 33
1, 126588, Note_off_c, 9, 39, 100
1, 126612, Note_off_c, 5, 69, 0
1, 126616, Note_off_c, 5, 65, 0
1, 126616, Note_off_c, 5, 74, 0
1, 126716, Note_on_c, 9, 54, 27
1, 126772, Note_off_c, 9, 54, 0
1, 126908, Note_on_c, 1, 38, 36
1, 126908, Note_on_c, 5, 50, 30
1, 126908, Note_on_c, 9, 36, 26
1, 127064, Note_off_c, 9, 36, 0
1, 127100, Note_on_c, 5, 65, 29
1, 127100, Note_on_c, 5, 69, 29
1, 127100, Note_on_c, 5, 74, 29
1, 127100, Note_on_c, 9, 54, 24
1, 127100, Note_on_c, 9, 39, 24
1, 127164, Note_off_c, 1, 38, 100
1, 127172, Note_off_c, 9, 54, 0
1, 127188, Note_off_c, 5, 69, 0
1, 127192, Note_off_c, 5, 65, 0
1, 127192, Note_off_c, 5, 74, 0
1, 127196, Note_on_c, 2, 64, 31
1, 127216, Note_off_c, 5, 50, 0
1, 127292, Note_on_c, 2, 72, 30
1, 127292, Note_on_c, 9, 36, 23
1, 127356, Note_off_c, 9, 39, 100
1, 127372, Note_off_c, 2, 64, 0
1, 127388, Note_on_c, 2, 71, 29
1, 127444, Note_off_c, 2, 72, 0
1, 127448, Note_off_c, 9, 36, 0
1, 127484, Note_on_c, 1, 33, 30
1, 127484, Note_on_c, 2, 69, 28
1, 127484, Note_on_c, 5, 45, 25
1, 127484, Note_on_c, 9, 54, 22
1, 127484, Note_on_c, 9, 36, 22
1, 127488, Note_off_c, 2, 71, 64
1, 127544, Note_off_c, 9, 54, 64
1, 127640, Note_off_c, 9, 36, 64
1, 127772, Note_on_c, 9, 56, 20
1, 127796, Note_off_c, 1, 33, 64
1, 127868, Note_on_c, 9, 54, 19
1, 127868, Note_on_c, 9, 39, 19
1, 127944, Note_off_c, 9, 54, 0
1, 127996, Note_off_c, 5, 45, 64
1, 128028, Note_off_c, 9, 56, 100
1, 128044, Control_c, 2, 1, 6
1, 128060, Note_on_c, 5, 60, 21
1, 128060, Note_on_c, 5, 64, 21
1, 128060, Note_on_c, 5, 69, 21
1, 128068, Control_c, 2, 1, 12
1, 128092, Control_c, 2, 1, 20
1, 128116, Control_c, 2, 1, 26
1, 128124, Note_off_c, 9, 39, 100
1, 128148, Note_off_c, 5, 64, 0
1, 128152, Control_c, 2, 1, 36
1, 128152, Note_off_c, 5, 60, 0
1, 128152, Note_off_c, 5, 69, 0
1, 128180, Control_c, 2, 1, 44
1, 128204, Control_c, 2, 1, 49
1, 128236, Control_c, 2, 1, 57
1, 128252, Note_on_c, 9, 54, 16
1, 128264, Control_c, 2, 1, 64
1, 128292, Control_c, 2, 1, 71
1, 128308, Note_off_c, 9, 54, 0
1, 128324, Note_off_c, 2, 69, 64
1, 128324, Control_c, 2, 1, 79
1, 128356, Control_c, 2, 1, 84
1, 128384, Control_c, 2, 1, 82
1, 128428, Control_c, 2, 1, 62
1, 128444, Note_on_c, 1, 33, 21
1, 128444, Note_on_c, 5, 45, 18
1, 128444, Note_on_c, 9, 36, 15
1, 128456, Control_c, 2, 1, 37
1, 128484, Control_c, 2, 1, 0
1, 128600, Note_off_c, 9, 36, 0
1, 128636, Note_on_c, 5, 60, 16
1, 128636, Note_on_c, 5, 64, 16
1, 128636, Note_on_c, 5, 69, 16
1, 128636, Note_on_c, 9, 54, 14
1, 128636, Note_on_c, 9, 39, 14
1, 128708, Note_off_c, 9, 54, 0
1, 128724, Note_off_c, 5, 64, 0
1, 128728, Note_off_c, 5, 60, 0
1, 128728, Note_off_c, 5, 69, 0
1, 128752, Note_off_c, 5, 45, 0
1, 128756, Note_off_c, 1, 33, 0
1, 128828, Note_on_c, 9, 36, 12
1, 128892, Note_off_c, 9, 39, 100
1, 128984, Note_off_c, 9, 36, 0
1, 129020, Note_on_c, 1, 33, 15
1, 129020, Note_on_c, 5, 45, 13
1, 129020, Note_on_c, 9, 54, 11
1, 129020, Note_on_c, 9, 36, 11
1, 129020, Note_on_c, 9, 39, 11
1, 129020, Tempo, 631578
1, 129076, Note_off_c, 9, 54, 64
1, 129172, Note_off_c, 9, 36, 64
1, 129272, Note_off_c, 9, 39, 64
1, 129304, Note_on_c, 9, 56, 9
1, 129328, Note_off_c, 1, 33, 64
1, 129400, Note_on_c, 9, 54, 8
1, 129400, Note_on_c, 9, 39, 8
1, 129476, Note_off_c, 9, 54, 0
1, 129528, Note_off_c, 5, 45, 64
1, 129560, Note_off_c, 9, 56, 100
1, 129592, Note_on_c, 5, 60, 8
1, 129592, Note_on_c, 5, 64, 8
1, 129592, Note_on_c, 5, 69, 8
1, 129656, Note_off_c, 9, 39, 100
1, 129680, Note_off_c, 5, 64, 0
1, 129684, Note_off_c, 5, 60, 0
1, 129684, Note_off_c, 5, 69, 0
1, 129784, Note_on_c, 9, 54, 6
1, 129840, Note_off_c, 9, 54, 0
1, 129976, Note_on_c, 1, 33, 6
1, 129976, Note_on_c, 2, 64, 6
1, 129976, Note_on_c, 5, 45, 5
1, 129976, Note_on_c, 9, 36, 4
1, 130132, Note_off_c, 9, 36, 0
1, 130152, Note_off_c, 2, 64, 0
1, 130168, Note_on_c, 2, 72, 4
1, 130168, Note_on_c, 5, 60, 4
1, 130168, Note_on_c, 5, 64, 4
1, 130168, Note_on_c, 5, 69, 4
1, 130168, Note_on_c, 9, 54, 3
1, 130168, Note_on_c, 9, 39, 3
1, 130240, Note_off_c, 9, 54, 0
1, 130256, Note_off_c, 5, 64, 0
1, 130260, Note_off_c, 5, 60, 0
1, 130260, Note_off_c, 5, 69, 0
1, 130284, Note_off_c, 5, 45, 0
1, 130288, Note_off_c, 1, 33, 0
1, 130320, Note_off_c, 2, 72, 0
1, 130360, Note_on_c, 9, 36, 2
1, 130360, Note_on_c, 9, 36, 2
1, 130360, Note_on_c, 9, 42, 2
1, 130424, Note_off_c, 9, 39, 100
1, 130428, Note_off_c, 9, 42, 0
1, 130456, Note_on_c, 2, 71, 1
1, 130508, Note_off_c, 9, 36, 0
1, 130516, Note_off_c, 9, 36, 0
1, 130556, Note_off_c, 2, 71, 64
1, 130556, End_track
0, 0, End_of_file
