0, 0, Header, 1, 9, 192
1, 0, Start_track
1, 0, Title_t, "Fill her up"
1, 0, Text_t, "By Sting"
1, 0, Text_t, "Generated by NoteWorthy Composer"
1, 0, Tempo, 326086
1, 0, Key_signature, 3, "major"
1, 0, Time_signature, 4, 2, 24, 8
1, 89856, Tempo, 521739
1, 99072, Tempo, 600000
1, 99072, Time_signature, 7, 3, 24, 8
1, 99072, End_track
2, 0, Start_track
2, 0, MIDI_port, 0
2, 0, Title_t, "Staff"
2, 0, Program_c, 0, 29
2, 0, Control_c, 0, 7, 127
2, 0, Control_c, 0, 10, 64
2, 384, Note_on_c, 0, 76, 110
2, 478, Note_on_c, 0, 76, 0
2, 480, Note_on_c, 0, 71, 110
2, 574, Note_on_c, 0, 71, 0
2, 576, Note_on_c, 0, 73, 110
2, 1696, Note_on_c, 0, 73, 0
2, 1728, Note_on_c, 0, 69, 110
2, 1888, Note_on_c, 0, 69, 0
2, 1920, Note_on_c, 0, 69, 110
2, 2080, Note_on_c, 0, 69, 0
2, 2112, Note_on_c, 0, 64, 110
2, 2206, Note_on_c, 0, 64, 0
2, 2208, Note_on_c, 0, 69, 110
2, 2782, Note_on_c, 0, 69, 0
2, 2784, Note_on_c, 0, 69, 110
2, 2878, Note_on_c, 0, 69, 0
2, 2880, Note_on_c, 0, 67, 110
2, 2974, Note_on_c, 0, 67, 0
2, 2976, Note_on_c, 0, 69, 110
2, 3070, Note_on_c, 0, 69, 0
2, 3072, Note_on_c, 0, 67, 110
2, 3166, Note_on_c, 0, 67, 0
2, 3168, Note_on_c, 0, 69, 110
2, 3262, Note_on_c, 0, 69, 0
2, 3264, Note_on_c, 0, 66, 110
2, 3358, Note_on_c, 0, 66, 0
2, 3360, Note_on_c, 0, 69, 110
2, 3454, Note_on_c, 0, 69, 0
2, 3456, Note_on_c, 0, 64, 110
2, 4368, Note_on_c, 0, 64, 0
2, 4512, Note_on_c, 0, 66, 110
2, 4606, Note_on_c, 0, 66, 0
2, 4608, Note_on_c, 0, 68, 110
2, 4704, Note_on_c, 0, 76, 110
2, 5328, Note_on_c, 0, 68, 0
2, 5328, Note_on_c, 0, 76, 0
2, 5376, Note_on_c, 0, 76, 110
2, 5632, Note_on_c, 0, 76, 0
2, 5664, Note_on_c, 0, 74, 110
2, 5952, Note_on_c, 0, 71, 110
2, 6480, Note_on_c, 0, 71, 0
2, 6480, Note_on_c, 0, 74, 0
2, 6528, Program_c, 0, 56
2, 6528, Note_on_c, 0, 78, 110
2, 6622, Note_on_c, 0, 78, 0
2, 6624, Note_on_c, 0, 78, 110
2, 6880, Note_on_c, 0, 78, 0
2, 6912, Note_on_c, 0, 76, 110
2, 7072, Note_on_c, 0, 76, 0
2, 7104, Note_on_c, 0, 73, 110
2, 7440, Note_on_c, 0, 73, 0
2, 8064, Note_on_c, 0, 78, 110
2, 8158, Note_on_c, 0, 78, 0
2, 8160, Note_on_c, 0, 78, 110
2, 8416, Note_on_c, 0, 78, 0
2, 8448, Note_on_c, 0, 78, 110
2, 8784, Note_on_c, 0, 78, 0
2, 9600, Note_on_c, 0, 78, 110
2, 9694, Note_on_c, 0, 78, 0
2, 9696, Note_on_c, 0, 78, 110
2, 9952, Note_on_c, 0, 78, 0
2, 9984, Note_on_c, 0, 76, 110
2, 10144, Note_on_c, 0, 76, 0
2, 10176, Note_on_c, 0, 73, 110
2, 10512, Note_on_c, 0, 73, 0
2, 11040, Note_on_c, 0, 76, 110
2, 11230, Note_on_c, 0, 76, 0
2, 11232, Note_on_c, 0, 73, 110
2, 11328, Note_on_c, 0, 73, 0
2, 11328, Note_on_c, 0, 71, 110
2, 11488, Note_on_c, 0, 71, 0
2, 11520, Note_on_c, 0, 71, 110
2, 11712, Note_on_c, 0, 71, 0
2, 11712, Note_on_c, 0, 73, 110
2, 11872, Note_on_c, 0, 73, 0
2, 12576, Note_on_c, 0, 71, 110
2, 12670, Note_on_c, 0, 71, 0
2, 12672, Note_on_c, 0, 78, 110
2, 12832, Note_on_c, 0, 78, 0
2, 12864, Note_on_c, 0, 78, 110
2, 13024, Note_on_c, 0, 78, 0
2, 13056, Note_on_c, 0, 76, 110
2, 13216, Note_on_c, 0, 76, 0
2, 13248, Note_on_c, 0, 73, 110
2, 13408, Note_on_c, 0, 73, 0
2, 14112, Note_on_c, 0, 66, 110
2, 14206, Note_on_c, 0, 66, 0
2, 14208, Note_on_c, 0, 78, 110
2, 14302, Note_on_c, 0, 78, 0
2, 14304, Note_on_c, 0, 76, 110
2, 14464, Note_on_c, 0, 76, 0
2, 14496, Note_on_c, 0, 73, 110
2, 14590, Note_on_c, 0, 73, 0
2, 14592, Note_on_c, 0, 76, 110
2, 14686, Note_on_c, 0, 76, 0
2, 14688, Note_on_c, 0, 73, 110
2, 14944, Note_on_c, 0, 73, 0
2, 15648, Note_on_c, 0, 78, 110
2, 15838, Note_on_c, 0, 78, 0
2, 15840, Note_on_c, 0, 76, 110
2, 16000, Note_on_c, 0, 76, 0
2, 16032, Note_on_c, 0, 76, 110
2, 16222, Note_on_c, 0, 76, 0
2, 16224, Note_on_c, 0, 73, 110
2, 16480, Note_on_c, 0, 73, 0
2, 17184, Note_on_c, 0, 64, 110
2, 17230, Note_on_c, 0, 64, 0
2, 17232, Note_on_c, 0, 64, 110
2, 17278, Note_on_c, 0, 64, 0
2, 17280, Note_on_c, 0, 73, 110
2, 17440, Note_on_c, 0, 73, 0
2, 17472, Note_on_c, 0, 71, 110
2, 17566, Note_on_c, 0, 71, 0
2, 17568, Note_on_c, 0, 71, 110
2, 17662, Note_on_c, 0, 71, 0
2, 17664, Note_on_c, 0, 69, 110
2, 18000, Note_on_c, 0, 69, 0
2, 18816, Note_on_c, 0, 78, 110
2, 18910, Note_on_c, 0, 78, 0
2, 18912, Note_on_c, 0, 78, 110
2, 19072, Note_on_c, 0, 78, 0
2, 19104, Note_on_c, 0, 76, 110
2, 19198, Note_on_c, 0, 76, 0
2, 19200, Note_on_c, 0, 76, 110
2, 19360, Note_on_c, 0, 76, 0
2, 19392, Note_on_c, 0, 73, 110
2, 19728, Note_on_c, 0, 73, 0
2, 20352, Note_on_c, 0, 78, 110
2, 20512, Note_on_c, 0, 78, 0
2, 20544, Note_on_c, 0, 76, 110
2, 20638, Note_on_c, 0, 76, 0
2, 20640, Note_on_c, 0, 76, 110
2, 20734, Note_on_c, 0, 76, 0
2, 20736, Note_on_c, 0, 73, 110
2, 20896, Note_on_c, 0, 73, 0
2, 21888, Note_on_c, 0, 78, 110
2, 21982, Note_on_c, 0, 78, 0
2, 21984, Note_on_c, 0, 76, 110
2, 22144, Note_on_c, 0, 76, 0
2, 22176, Note_on_c, 0, 76, 110
2, 22366, Note_on_c, 0, 76, 0
2, 22368, Note_on_c, 0, 73, 110
2, 22624, Note_on_c, 0, 73, 0
2, 23232, Note_on_c, 0, 64, 110
2, 23326, Note_on_c, 0, 64, 0
2, 23328, Note_on_c, 0, 74, 110
2, 23518, Note_on_c, 0, 74, 0
2, 23520, Note_on_c, 0, 73, 110
2, 23776, Note_on_c, 0, 73, 0
2, 23808, Note_on_c, 0, 73, 110
2, 23902, Note_on_c, 0, 73, 0
2, 23904, Note_on_c, 0, 71, 110
2, 24160, Note_on_c, 0, 71, 0
2, 25056, Note_on_c, 0, 76, 110
2, 25150, Note_on_c, 0, 76, 0
2, 25152, Note_on_c, 0, 73, 110
2, 25246, Note_on_c, 0, 73, 0
2, 25248, Note_on_c, 0, 76, 110
2, 25438, Note_on_c, 0, 76, 0
2, 25440, Note_on_c, 0, 73, 110
2, 25696, Note_on_c, 0, 73, 0
2, 26496, Note_on_c, 0, 74, 110
2, 26832, Note_on_c, 0, 74, 0
2, 26880, Note_on_c, 0, 72, 110
2, 26974, Note_on_c, 0, 72, 0
2, 26976, Note_on_c, 0, 72, 110
2, 27070, Note_on_c, 0, 72, 0
2, 28128, Note_on_c, 0, 66, 110
2, 28222, Note_on_c, 0, 66, 0
2, 28224, Note_on_c, 0, 69, 110
2, 28318, Note_on_c, 0, 69, 0
2, 28320, Note_on_c, 0, 66, 110
2, 28414, Note_on_c, 0, 66, 0
2, 28416, Note_on_c, 0, 73, 110
2, 28752, Note_on_c, 0, 73, 0
2, 28800, Note_on_c, 0, 73, 110
2, 28960, Note_on_c, 0, 73, 0
2, 28992, Note_on_c, 0, 69, 110
2, 29086, Note_on_c, 0, 69, 0
2, 29088, Note_on_c, 0, 73, 110
2, 29344, Note_on_c, 0, 73, 0
2, 29664, Note_on_c, 0, 69, 110
2, 29758, Note_on_c, 0, 69, 0
2, 29760, Note_on_c, 0, 72, 110
2, 29920, Note_on_c, 0, 72, 0
2, 29952, Note_on_c, 0, 73, 110
2, 30046, Note_on_c, 0, 73, 0
2, 30048, Note_on_c, 0, 71, 110
2, 30142, Note_on_c, 0, 71, 0
2, 30144, Note_on_c, 0, 69, 110
2, 30480, Note_on_c, 0, 69, 0
2, 31104, Note_on_c, 0, 78, 110
2, 31198, Note_on_c, 0, 78, 0
2, 31200, Note_on_c, 0, 76, 110
2, 31360, Note_on_c, 0, 76, 0
2, 31392, Note_on_c, 0, 76, 110
2, 31486, Note_on_c, 0, 76, 0
2, 31488, Note_on_c, 0, 76, 110
2, 31648, Note_on_c, 0, 76, 0
2, 31680, Note_on_c, 0, 73, 110
2, 32016, Note_on_c, 0, 73, 0
2, 32640, Note_on_c, 0, 78, 110
2, 32800, Note_on_c, 0, 78, 0
2, 32832, Note_on_c, 0, 76, 110
2, 32926, Note_on_c, 0, 76, 0
2, 32928, Note_on_c, 0, 76, 110
2, 33022, Note_on_c, 0, 76, 0
2, 33024, Note_on_c, 0, 73, 110
2, 33184, Note_on_c, 0, 73, 0
2, 34176, Note_on_c, 0, 78, 110
2, 34270, Note_on_c, 0, 78, 0
2, 34272, Note_on_c, 0, 76, 110
2, 34432, Note_on_c, 0, 76, 0
2, 34464, Note_on_c, 0, 76, 110
2, 34654, Note_on_c, 0, 76, 0
2, 34656, Note_on_c, 0, 73, 110
2, 34912, Note_on_c, 0, 73, 0
2, 35520, Note_on_c, 0, 64, 110
2, 35614, Note_on_c, 0, 64, 0
2, 35616, Note_on_c, 0, 74, 110
2, 35806, Note_on_c, 0, 74, 0
2, 35808, Note_on_c, 0, 73, 110
2, 36064, Note_on_c, 0, 73, 0
2, 36096, Note_on_c, 0, 73, 110
2, 36190, Note_on_c, 0, 73, 0
2, 36192, Note_on_c, 0, 71, 110
2, 36448, Note_on_c, 0, 71, 0
2, 37344, Note_on_c, 0, 76, 110
2, 37438, Note_on_c, 0, 76, 0
2, 37440, Note_on_c, 0, 73, 110
2, 37534, Note_on_c, 0, 73, 0
2, 37536, Note_on_c, 0, 76, 110
2, 37726, Note_on_c, 0, 76, 0
2, 37728, Note_on_c, 0, 73, 110
2, 37984, Note_on_c, 0, 73, 0
2, 38784, Note_on_c, 0, 74, 110
2, 39120, Note_on_c, 0, 74, 0
2, 39168, Note_on_c, 0, 72, 110
2, 39262, Note_on_c, 0, 72, 0
2, 39264, Note_on_c, 0, 72, 110
2, 39358, Note_on_c, 0, 72, 0
2, 40416, Note_on_c, 0, 66, 110
2, 40510, Note_on_c, 0, 66, 0
2, 40512, Note_on_c, 0, 69, 110
2, 40606, Note_on_c, 0, 69, 0
2, 40608, Note_on_c, 0, 66, 110
2, 40702, Note_on_c, 0, 66, 0
2, 40704, Note_on_c, 0, 76, 110
2, 40798, Note_on_c, 0, 76, 0
2, 40800, Note_on_c, 0, 73, 110
2, 40960, Note_on_c, 0, 73, 0
2, 40992, Note_on_c, 0, 73, 110
2, 41182, Note_on_c, 0, 73, 0
2, 41184, Note_on_c, 0, 73, 110
2, 41344, Note_on_c, 0, 73, 0
2, 41856, Note_on_c, 0, 73, 110
2, 42016, Note_on_c, 0, 73, 0
2, 42048, Note_on_c, 0, 71, 110
2, 42142, Note_on_c, 0, 71, 0
2, 42144, Note_on_c, 0, 71, 110
2, 42334, Note_on_c, 0, 71, 0
2, 42336, Note_on_c, 0, 69, 110
2, 43536, Note_on_c, 0, 69, 0
2, 43680, Note_on_c, 0, 74, 110
2, 43776, Note_on_c, 0, 74, 0
2, 43776, Note_on_c, 0, 78, 110
2, 43936, Note_on_c, 0, 78, 0
2, 43968, Note_on_c, 0, 76, 110
2, 44062, Note_on_c, 0, 76, 0
2, 44064, Note_on_c, 0, 76, 110
2, 44158, Note_on_c, 0, 76, 0
2, 44160, Note_on_c, 0, 76, 110
2, 44254, Note_on_c, 0, 76, 0
2, 44256, Note_on_c, 0, 74, 110
2, 44416, Note_on_c, 0, 74, 0
2, 44448, Note_on_c, 0, 74, 110
2, 44638, Note_on_c, 0, 74, 0
2, 44640, Note_on_c, 0, 73, 110
2, 44800, Note_on_c, 0, 73, 0
2, 44832, Note_on_c, 0, 69, 110
2, 45088, Note_on_c, 0, 69, 0
2, 45120, Note_on_c, 0, 73, 110
2, 45840, Note_on_c, 0, 73, 0
2, 46752, Note_on_c, 0, 74, 110
2, 46848, Note_on_c, 0, 74, 0
2, 46848, Note_on_c, 0, 78, 110
2, 47008, Note_on_c, 0, 78, 0
2, 47040, Note_on_c, 0, 76, 110
2, 47134, Note_on_c, 0, 76, 0
2, 47136, Note_on_c, 0, 76, 110
2, 47230, Note_on_c, 0, 76, 0
2, 47232, Note_on_c, 0, 76, 110
2, 47326, Note_on_c, 0, 76, 0
2, 47328, Note_on_c, 0, 74, 110
2, 47488, Note_on_c, 0, 74, 0
2, 47520, Note_on_c, 0, 74, 110
2, 47710, Note_on_c, 0, 74, 0
2, 47712, Note_on_c, 0, 73, 110
2, 47872, Note_on_c, 0, 73, 0
2, 47904, Note_on_c, 0, 73, 110
2, 48160, Note_on_c, 0, 73, 0
2, 48192, Note_on_c, 0, 69, 110
2, 48912, Note_on_c, 0, 69, 0
2, 49824, Note_on_c, 0, 74, 110
2, 49920, Note_on_c, 0, 74, 0
2, 49920, Note_on_c, 0, 78, 110
2, 50080, Note_on_c, 0, 78, 0
2, 50112, Note_on_c, 0, 76, 110
2, 50206, Note_on_c, 0, 76, 0
2, 50208, Note_on_c, 0, 76, 110
2, 50302, Note_on_c, 0, 76, 0
2, 50304, Note_on_c, 0, 76, 110
2, 50464, Note_on_c, 0, 76, 0
2, 50496, Note_on_c, 0, 74, 110
2, 50656, Note_on_c, 0, 74, 0
2, 50688, Note_on_c, 0, 74, 110
2, 50782, Note_on_c, 0, 74, 0
2, 50784, Note_on_c, 0, 73, 110
2, 50944, Note_on_c, 0, 73, 0
2, 50976, Note_on_c, 0, 74, 110
2, 51072, Note_on_c, 0, 74, 0
2, 51072, Note_on_c, 0, 73, 110
2, 51232, Note_on_c, 0, 73, 0
2, 51264, Note_on_c, 0, 76, 110
2, 51456, Note_on_c, 0, 76, 110
2, 52560, Note_on_c, 0, 76, 0
2, 52608, Note_on_c, 0, 78, 110
2, 52702, Note_on_c, 0, 78, 0
2, 52704, Note_on_c, 0, 78, 110
2, 52960, Note_on_c, 0, 78, 0
2, 52992, Note_on_c, 0, 76, 110
2, 53152, Note_on_c, 0, 76, 0
2, 53184, Note_on_c, 0, 73, 110
2, 53520, Note_on_c, 0, 73, 0
2, 54144, Note_on_c, 0, 78, 110
2, 54304, Note_on_c, 0, 78, 0
2, 54336, Note_on_c, 0, 76, 110
2, 54430, Note_on_c, 0, 76, 0
2, 54432, Note_on_c, 0, 76, 110
2, 54526, Note_on_c, 0, 76, 0
2, 54528, Note_on_c, 0, 73, 110
2, 54688, Note_on_c, 0, 73, 0
2, 55680, Note_on_c, 0, 78, 110
2, 55774, Note_on_c, 0, 78, 0
2, 55776, Note_on_c, 0, 76, 110
2, 55936, Note_on_c, 0, 76, 0
2, 55968, Note_on_c, 0, 76, 110
2, 56158, Note_on_c, 0, 76, 0
2, 56160, Note_on_c, 0, 73, 110
2, 56416, Note_on_c, 0, 73, 0
2, 57024, Note_on_c, 0, 64, 110
2, 57118, Note_on_c, 0, 64, 0
2, 57120, Note_on_c, 0, 74, 110
2, 57310, Note_on_c, 0, 74, 0
2, 57312, Note_on_c, 0, 73, 110
2, 57568, Note_on_c, 0, 73, 0
2, 57600, Note_on_c, 0, 73, 110
2, 57694, Note_on_c, 0, 73, 0
2, 57696, Note_on_c, 0, 71, 110
2, 57952, Note_on_c, 0, 71, 0
2, 58848, Note_on_c, 0, 76, 110
2, 58942, Note_on_c, 0, 76, 0
2, 58944, Note_on_c, 0, 73, 110
2, 59038, Note_on_c, 0, 73, 0
2, 59040, Note_on_c, 0, 76, 110
2, 59230, Note_on_c, 0, 76, 0
2, 59232, Note_on_c, 0, 73, 110
2, 59488, Note_on_c, 0, 73, 0
2, 60288, Note_on_c, 0, 74, 110
2, 60624, Note_on_c, 0, 74, 0
2, 60672, Note_on_c, 0, 72, 110
2, 60766, Note_on_c, 0, 72, 0
2, 60768, Note_on_c, 0, 72, 110
2, 60862, Note_on_c, 0, 72, 0
2, 61920, Note_on_c, 0, 66, 110
2, 62014, Note_on_c, 0, 66, 0
2, 62016, Note_on_c, 0, 69, 110
2, 62110, Note_on_c, 0, 69, 0
2, 62112, Note_on_c, 0, 66, 110
2, 62206, Note_on_c, 0, 66, 0
2, 62208, Note_on_c, 0, 73, 110
2, 62544, Note_on_c, 0, 73, 0
2, 62592, Note_on_c, 0, 73, 110
2, 62752, Note_on_c, 0, 73, 0
2, 62784, Note_on_c, 0, 69, 110
2, 62878, Note_on_c, 0, 69, 0
2, 62880, Note_on_c, 0, 73, 110
2, 63136, Note_on_c, 0, 73, 0
2, 63456, Note_on_c, 0, 69, 110
2, 63550, Note_on_c, 0, 69, 0
2, 63552, Note_on_c, 0, 72, 110
2, 63712, Note_on_c, 0, 72, 0
2, 63744, Note_on_c, 0, 73, 110
2, 63838, Note_on_c, 0, 73, 0
2, 63840, Note_on_c, 0, 71, 110
2, 63934, Note_on_c, 0, 71, 0
2, 63936, Note_on_c, 0, 69, 110
2, 64272, Note_on_c, 0, 69, 0
2, 64896, Note_on_c, 0, 78, 110
2, 64990, Note_on_c, 0, 78, 0
2, 64992, Note_on_c, 0, 76, 110
2, 65152, Note_on_c, 0, 76, 0
2, 65184, Note_on_c, 0, 76, 110
2, 65278, Note_on_c, 0, 76, 0
2, 65280, Note_on_c, 0, 76, 110
2, 65440, Note_on_c, 0, 76, 0
2, 65472, Note_on_c, 0, 73, 110
2, 65808, Note_on_c, 0, 73, 0
2, 66432, Note_on_c, 0, 78, 110
2, 66592, Note_on_c, 0, 78, 0
2, 66624, Note_on_c, 0, 76, 110
2, 66718, Note_on_c, 0, 76, 0
2, 66720, Note_on_c, 0, 76, 110
2, 66814, Note_on_c, 0, 76, 0
2, 66816, Note_on_c, 0, 73, 110
2, 66976, Note_on_c, 0, 73, 0
2, 67968, Note_on_c, 0, 78, 110
2, 68062, Note_on_c, 0, 78, 0
2, 68064, Note_on_c, 0, 76, 110
2, 68224, Note_on_c, 0, 76, 0
2, 68256, Note_on_c, 0, 76, 110
2, 68446, Note_on_c, 0, 76, 0
2, 68448, Note_on_c, 0, 73, 110
2, 68704, Note_on_c, 0, 73, 0
2, 69312, Note_on_c, 0, 64, 110
2, 69406, Note_on_c, 0, 64, 0
2, 69408, Note_on_c, 0, 74, 110
2, 69598, Note_on_c, 0, 74, 0
2, 69600, Note_on_c, 0, 73, 110
2, 69856, Note_on_c, 0, 73, 0
2, 69888, Note_on_c, 0, 73, 110
2, 69982, Note_on_c, 0, 73, 0
2, 69984, Note_on_c, 0, 71, 110
2, 70240, Note_on_c, 0, 71, 0
2, 71136, Note_on_c, 0, 76, 110
2, 71230, Note_on_c, 0, 76, 0
2, 71232, Note_on_c, 0, 73, 110
2, 71326, Note_on_c, 0, 73, 0
2, 71328, Note_on_c, 0, 76, 110
2, 71518, Note_on_c, 0, 76, 0
2, 71520, Note_on_c, 0, 73, 110
2, 71776, Note_on_c, 0, 73, 0
2, 72576, Note_on_c, 0, 74, 110
2, 72912, Note_on_c, 0, 74, 0
2, 72960, Note_on_c, 0, 72, 110
2, 73054, Note_on_c, 0, 72, 0
2, 73056, Note_on_c, 0, 72, 110
2, 73150, Note_on_c, 0, 72, 0
2, 74208, Note_on_c, 0, 66, 110
2, 74302, Note_on_c, 0, 66, 0
2, 74304, Note_on_c, 0, 69, 110
2, 74398, Note_on_c, 0, 69, 0
2, 74400, Note_on_c, 0, 66, 110
2, 74494, Note_on_c, 0, 66, 0
2, 74496, Note_on_c, 0, 76, 110
2, 74590, Note_on_c, 0, 76, 0
2, 74592, Note_on_c, 0, 73, 110
2, 74752, Note_on_c, 0, 73, 0
2, 74784, Note_on_c, 0, 73, 110
2, 74974, Note_on_c, 0, 73, 0
2, 74976, Note_on_c, 0, 73, 110
2, 75136, Note_on_c, 0, 73, 0
2, 75648, Note_on_c, 0, 73, 110
2, 75808, Note_on_c, 0, 73, 0
2, 75840, Note_on_c, 0, 71, 110
2, 75934, Note_on_c, 0, 71, 0
2, 75936, Note_on_c, 0, 71, 110
2, 76126, Note_on_c, 0, 71, 0
2, 76128, Note_on_c, 0, 69, 110
2, 77328, Note_on_c, 0, 69, 0
2, 77472, Note_on_c, 0, 74, 110
2, 77568, Note_on_c, 0, 74, 0
2, 77568, Note_on_c, 0, 78, 110
2, 77728, Note_on_c, 0, 78, 0
2, 77760, Note_on_c, 0, 76, 110
2, 77854, Note_on_c, 0, 76, 0
2, 77856, Note_on_c, 0, 76, 110
2, 77950, Note_on_c, 0, 76, 0
2, 77952, Note_on_c, 0, 76, 110
2, 78046, Note_on_c, 0, 76, 0
2, 78048, Note_on_c, 0, 74, 110
2, 78208, Note_on_c, 0, 74, 0
2, 78240, Note_on_c, 0, 74, 110
2, 78430, Note_on_c, 0, 74, 0
2, 78432, Note_on_c, 0, 73, 110
2, 78592, Note_on_c, 0, 73, 0
2, 78624, Note_on_c, 0, 69, 110
2, 78880, Note_on_c, 0, 69, 0
2, 78912, Note_on_c, 0, 73, 110
2, 79632, Note_on_c, 0, 73, 0
2, 80544, Note_on_c, 0, 74, 110
2, 80640, Note_on_c, 0, 74, 0
2, 80640, Note_on_c, 0, 78, 110
2, 80800, Note_on_c, 0, 78, 0
2, 80832, Note_on_c, 0, 76, 110
2, 80926, Note_on_c, 0, 76, 0
2, 80928, Note_on_c, 0, 76, 110
2, 81022, Note_on_c, 0, 76, 0
2, 81024, Note_on_c, 0, 76, 110
2, 81118, Note_on_c, 0, 76, 0
2, 81120, Note_on_c, 0, 74, 110
2, 81280, Note_on_c, 0, 74, 0
2, 81312, Note_on_c, 0, 74, 110
2, 81502, Note_on_c, 0, 74, 0
2, 81504, Note_on_c, 0, 73, 110
2, 81664, Note_on_c, 0, 73, 0
2, 81696, Note_on_c, 0, 73, 110
2, 81952, Note_on_c, 0, 73, 0
2, 81984, Note_on_c, 0, 69, 110
2, 82704, Note_on_c, 0, 69, 0
2, 83616, Note_on_c, 0, 74, 110
2, 83712, Note_on_c, 0, 74, 0
2, 83712, Note_on_c, 0, 78, 110
2, 83872, Note_on_c, 0, 78, 0
2, 83904, Note_on_c, 0, 76, 110
2, 83998, Note_on_c, 0, 76, 0
2, 84000, Note_on_c, 0, 76, 110
2, 84094, Note_on_c, 0, 76, 0
2, 84096, Note_on_c, 0, 76, 110
2, 84256, Note_on_c, 0, 76, 0
2, 84288, Note_on_c, 0, 74, 110
2, 84448, Note_on_c, 0, 74, 0
2, 84480, Note_on_c, 0, 74, 110
2, 84574, Note_on_c, 0, 74, 0
2, 84576, Note_on_c, 0, 73, 110
2, 84736, Note_on_c, 0, 73, 0
2, 84768, Note_on_c, 0, 74, 110
2, 84864, Note_on_c, 0, 74, 0
2, 84864, Note_on_c, 0, 73, 110
2, 85024, Note_on_c, 0, 73, 0
2, 85056, Note_on_c, 0, 76, 110
2, 85248, Note_on_c, 0, 73, 110
2, 85584, Note_on_c, 0, 73, 0
2, 86784, Note_on_c, 0, 78, 110
2, 86878, Note_on_c, 0, 78, 0
2, 86880, Note_on_c, 0, 76, 110
2, 87040, Note_on_c, 0, 76, 0
2, 87072, Note_on_c, 0, 76, 110
2, 87166, Note_on_c, 0, 76, 0
2, 87168, Note_on_c, 0, 76, 110
2, 87264, Note_on_c, 0, 76, 0
2, 87264, Note_on_c, 0, 74, 110
2, 87358, Note_on_c, 0, 74, 0
2, 87360, Note_on_c, 0, 74, 110
2, 87454, Note_on_c, 0, 74, 0
2, 87456, Note_on_c, 0, 76, 110
2, 87646, Note_on_c, 0, 76, 0
2, 87648, Note_on_c, 0, 73, 110
2, 87742, Note_on_c, 0, 73, 0
2, 87744, Note_on_c, 0, 73, 110
2, 87904, Note_on_c, 0, 73, 0
2, 87936, Note_on_c, 0, 69, 110
2, 88096, Note_on_c, 0, 69, 0
2, 88128, Note_on_c, 0, 69, 110
2, 88288, Note_on_c, 0, 69, 0
2, 89952, Note_on_c, 0, 71, 110
2, 90046, Note_on_c, 0, 71, 0
2, 90048, Note_on_c, 0, 71, 110
2, 90142, Note_on_c, 0, 71, 0
2, 90144, Note_on_c, 0, 71, 110
2, 90238, Note_on_c, 0, 71, 0
2, 90240, Note_on_c, 0, 78, 110
2, 90334, Note_on_c, 0, 78, 0
2, 90336, Note_on_c, 0, 76, 110
2, 90382, Note_on_c, 0, 76, 0
2, 90384, Note_on_c, 0, 74, 110
2, 90430, Note_on_c, 0, 74, 0
2, 90432, Note_on_c, 0, 74, 110
2, 90592, Note_on_c, 0, 74, 0
2, 90624, Note_on_c, 0, 71, 110
2, 90718, Note_on_c, 0, 71, 0
2, 90720, Note_on_c, 0, 69, 110
2, 90814, Note_on_c, 0, 69, 0
2, 90816, Note_on_c, 0, 74, 110
2, 90976, Note_on_c, 0, 74, 0
2, 91008, Note_on_c, 0, 76, 110
2, 91168, Note_on_c, 0, 76, 0
2, 91488, Note_on_c, 0, 69, 110
2, 91582, Note_on_c, 0, 69, 0
2, 91584, Note_on_c, 0, 78, 110
2, 91678, Note_on_c, 0, 78, 0
2, 91680, Note_on_c, 0, 76, 110
2, 91774, Note_on_c, 0, 76, 0
2, 91776, Note_on_c, 0, 76, 110
2, 91822, Note_on_c, 0, 76, 0
2, 91824, Note_on_c, 0, 74, 110
2, 91870, Note_on_c, 0, 74, 0
2, 91872, Note_on_c, 0, 74, 110
2, 91918, Note_on_c, 0, 74, 0
2, 91920, Note_on_c, 0, 71, 110
2, 92062, Note_on_c, 0, 71, 0
2, 92064, Note_on_c, 0, 74, 110
2, 92110, Note_on_c, 0, 74, 0
2, 92112, Note_on_c, 0, 71, 110
2, 92158, Note_on_c, 0, 71, 0
2, 92160, Note_on_c, 0, 74, 110
2, 92320, Note_on_c, 0, 74, 0
2, 92352, Note_on_c, 0, 74, 110
2, 92512, Note_on_c, 0, 74, 0
2, 92544, Note_on_c, 0, 74, 110
2, 92704, Note_on_c, 0, 74, 0
2, 92736, Note_on_c, 0, 74, 110
2, 92782, Note_on_c, 0, 74, 0
2, 92784, Note_on_c, 0, 76, 110
2, 92926, Note_on_c, 0, 76, 0
2, 92976, Note_on_c, 0, 69, 110
2, 93022, Note_on_c, 0, 69, 0
2, 93024, Note_on_c, 0, 69, 110
2, 93070, Note_on_c, 0, 69, 0
2, 93072, Note_on_c, 0, 69, 110
2, 93118, Note_on_c, 0, 69, 0
2, 93120, Note_on_c, 0, 78, 110
2, 93214, Note_on_c, 0, 78, 0
2, 93216, Note_on_c, 0, 76, 110
2, 93310, Note_on_c, 0, 76, 0
2, 93312, Note_on_c, 0, 76, 110
2, 93358, Note_on_c, 0, 76, 0
2, 93360, Note_on_c, 0, 74, 110
2, 93406, Note_on_c, 0, 74, 0
2, 93408, Note_on_c, 0, 78, 110
2, 93550, Note_on_c, 0, 78, 0
2, 93552, Note_on_c, 0, 76, 110
2, 93598, Note_on_c, 0, 76, 0
2, 93600, Note_on_c, 0, 76, 110
2, 93646, Note_on_c, 0, 76, 0
2, 93648, Note_on_c, 0, 74, 110
2, 93856, Note_on_c, 0, 74, 0
2, 93984, Note_on_c, 0, 69, 110
2, 94030, Note_on_c, 0, 69, 0
2, 94032, Note_on_c, 0, 69, 110
2, 94078, Note_on_c, 0, 69, 0
2, 94080, Note_on_c, 0, 78, 110
2, 94174, Note_on_c, 0, 78, 0
2, 94176, Note_on_c, 0, 76, 110
2, 94270, Note_on_c, 0, 76, 0
2, 94272, Note_on_c, 0, 76, 110
2, 94318, Note_on_c, 0, 76, 0
2, 94320, Note_on_c, 0, 69, 110
2, 94462, Note_on_c, 0, 69, 0
2, 94752, Note_on_c, 0, 69, 110
2, 94846, Note_on_c, 0, 69, 0
2, 94848, Note_on_c, 0, 78, 110
2, 94894, Note_on_c, 0, 78, 0
2, 94896, Note_on_c, 0, 76, 110
2, 94942, Note_on_c, 0, 76, 0
2, 94944, Note_on_c, 0, 76, 110
2, 94990, Note_on_c, 0, 76, 0
2, 94992, Note_on_c, 0, 76, 110
2, 95134, Note_on_c, 0, 76, 0
2, 95136, Note_on_c, 0, 74, 110
2, 95182, Note_on_c, 0, 74, 0
2, 95184, Note_on_c, 0, 74, 110
2, 95230, Note_on_c, 0, 74, 0
2, 95232, Note_on_c, 0, 74, 110
2, 95326, Note_on_c, 0, 74, 0
2, 95328, Note_on_c, 0, 74, 110
2, 95374, Note_on_c, 0, 74, 0
2, 95376, Note_on_c, 0, 71, 110
2, 95422, Note_on_c, 0, 71, 0
2, 95424, Note_on_c, 0, 74, 110
2, 95584, Note_on_c, 0, 74, 0
2, 95616, Note_on_c, 0, 74, 110
2, 95742, Note_on_c, 0, 74, 0
2, 95744, Note_on_c, 0, 74, 110
2, 95870, Note_on_c, 0, 74, 0
2, 95872, Note_on_c, 0, 74, 110
2, 95998, Note_on_c, 0, 74, 0
2, 96000, Note_on_c, 0, 62, 110
2, 96046, Note_on_c, 0, 62, 0
2, 96048, Note_on_c, 0, 62, 110
2, 96190, Note_on_c, 0, 62, 0
2, 96384, Note_on_c, 0, 74, 110
2, 96478, Note_on_c, 0, 74, 0
2, 96480, Note_on_c, 0, 71, 110
2, 96526, Note_on_c, 0, 71, 0
2, 96528, Note_on_c, 0, 71, 110
2, 96574, Note_on_c, 0, 71, 0
2, 96576, Note_on_c, 0, 71, 110
2, 96622, Note_on_c, 0, 71, 0
2, 96624, Note_on_c, 0, 71, 110
2, 96670, Note_on_c, 0, 71, 0
2, 96672, Note_on_c, 0, 71, 110
2, 96766, Note_on_c, 0, 71, 0
2, 96768, Note_on_c, 0, 69, 110
2, 96862, Note_on_c, 0, 69, 0
2, 96864, Note_on_c, 0, 69, 110
2, 96958, Note_on_c, 0, 69, 0
2, 96960, Note_on_c, 0, 66, 110
2, 97054, Note_on_c, 0, 66, 0
2, 97056, Note_on_c, 0, 71, 110
2, 97312, Note_on_c, 0, 71, 0
2, 97536, Note_on_c, 0, 71, 110
2, 97630, Note_on_c, 0, 71, 0
2, 97632, Note_on_c, 0, 69, 110
2, 97726, Note_on_c, 0, 69, 0
2, 97728, Note_on_c, 0, 69, 110
2, 97822, Note_on_c, 0, 69, 0
2, 97824, Note_on_c, 0, 66, 110
2, 97918, Note_on_c, 0, 66, 0
2, 97920, Note_on_c, 0, 66, 110
2, 98014, Note_on_c, 0, 66, 0
2, 98016, Note_on_c, 0, 64, 110
2, 98110, Note_on_c, 0, 64, 0
2, 98112, Note_on_c, 0, 66, 110
2, 98158, Note_on_c, 0, 66, 0
2, 98160, Note_on_c, 0, 64, 110
2, 98464, Note_on_c, 0, 64, 0
2, 101760, Program_c, 0, 52
2, 101760, Note_on_c, 0, 71, 110
2, 101854, Note_on_c, 0, 71, 0
2, 101856, Note_on_c, 0, 71, 110
2, 101902, Note_on_c, 0, 71, 0
2, 101904, Note_on_c, 0, 71, 110
2, 101950, Note_on_c, 0, 71, 0
2, 101952, Note_on_c, 0, 71, 110
2, 102046, Note_on_c, 0, 71, 0
2, 102048, Note_on_c, 0, 71, 110
2, 102094, Note_on_c, 0, 71, 0
2, 102096, Note_on_c, 0, 71, 110
2, 102190, Note_on_c, 0, 71, 0
2, 102192, Note_on_c, 0, 71, 110
2, 102238, Note_on_c, 0, 71, 0
2, 102240, Note_on_c, 0, 71, 110
2, 102334, Note_on_c, 0, 71, 0
2, 102336, Note_on_c, 0, 71, 110
2, 102430, Note_on_c, 0, 71, 0
2, 102432, Note_on_c, 0, 69, 110
2, 102526, Note_on_c, 0, 69, 0
2, 102528, Note_on_c, 0, 69, 110
2, 102574, Note_on_c, 0, 69, 0
2, 102576, Note_on_c, 0, 69, 110
2, 102622, Note_on_c, 0, 69, 0
2, 102624, Note_on_c, 0, 69, 110
2, 102718, Note_on_c, 0, 69, 0
2, 102720, Note_on_c, 0, 69, 110
2, 102766, Note_on_c, 0, 69, 0
2, 102768, Note_on_c, 0, 69, 110
2, 102862, Note_on_c, 0, 69, 0
2, 102864, Note_on_c, 0, 69, 110
2, 102910, Note_on_c, 0, 69, 0
2, 102912, Note_on_c, 0, 69, 110
2, 103264, Note_on_c, 0, 69, 0
2, 104448, Program_c, 0, 52
2, 104448, Note_on_c, 0, 71, 110
2, 104542, Note_on_c, 0, 71, 0
2, 104544, Note_on_c, 0, 71, 110
2, 104590, Note_on_c, 0, 71, 0
2, 104592, Note_on_c, 0, 71, 110
2, 104638, Note_on_c, 0, 71, 0
2, 104640, Note_on_c, 0, 71, 110
2, 104734, Note_on_c, 0, 71, 0
2, 104736, Note_on_c, 0, 71, 110
2, 104782, Note_on_c, 0, 71, 0
2, 104784, Note_on_c, 0, 71, 110
2, 104878, Note_on_c, 0, 71, 0
2, 104880, Note_on_c, 0, 71, 110
2, 104926, Note_on_c, 0, 71, 0
2, 104928, Note_on_c, 0, 71, 110
2, 105022, Note_on_c, 0, 71, 0
2, 105024, Note_on_c, 0, 71, 110
2, 105118, Note_on_c, 0, 71, 0
2, 105120, Note_on_c, 0, 69, 110
2, 105214, Note_on_c, 0, 69, 0
2, 105216, Note_on_c, 0, 69, 110
2, 105262, Note_on_c, 0, 69, 0
2, 105264, Note_on_c, 0, 69, 110
2, 105310, Note_on_c, 0, 69, 0
2, 105312, Note_on_c, 0, 69, 110
2, 105406, Note_on_c, 0, 69, 0
2, 105408, Note_on_c, 0, 69, 110
2, 105454, Note_on_c, 0, 69, 0
2, 105456, Note_on_c, 0, 69, 110
2, 105550, Note_on_c, 0, 69, 0
2, 105552, Note_on_c, 0, 69, 110
2, 105598, Note_on_c, 0, 69, 0
2, 105600, Note_on_c, 0, 69, 110
2, 105952, Note_on_c, 0, 69, 0
2, 107136, Program_c, 0, 52
2, 107136, Note_on_c, 0, 71, 110
2, 107230, Note_on_c, 0, 71, 0
2, 107232, Note_on_c, 0, 71, 110
2, 107278, Note_on_c, 0, 71, 0
2, 107280, Note_on_c, 0, 71, 110
2, 107326, Note_on_c, 0, 71, 0
2, 107328, Note_on_c, 0, 71, 110
2, 107422, Note_on_c, 0, 71, 0
2, 107424, Note_on_c, 0, 71, 110
2, 107470, Note_on_c, 0, 71, 0
2, 107472, Note_on_c, 0, 71, 110
2, 107566, Note_on_c, 0, 71, 0
2, 107568, Note_on_c, 0, 71, 110
2, 107614, Note_on_c, 0, 71, 0
2, 107616, Note_on_c, 0, 71, 110
2, 107710, Note_on_c, 0, 71, 0
2, 107712, Note_on_c, 0, 71, 110
2, 107806, Note_on_c, 0, 71, 0
2, 107808, Note_on_c, 0, 69, 110
2, 107902, Note_on_c, 0, 69, 0
2, 107904, Note_on_c, 0, 69, 110
2, 107950, Note_on_c, 0, 69, 0
2, 107952, Note_on_c, 0, 69, 110
2, 107998, Note_on_c, 0, 69, 0
2, 108000, Note_on_c, 0, 69, 110
2, 108094, Note_on_c, 0, 69, 0
2, 108096, Note_on_c, 0, 69, 110
2, 108142, Note_on_c, 0, 69, 0
2, 108144, Note_on_c, 0, 69, 110
2, 108238, Note_on_c, 0, 69, 0
2, 108240, Note_on_c, 0, 69, 110
2, 108286, Note_on_c, 0, 69, 0
2, 108288, Note_on_c, 0, 69, 110
2, 108640, Note_on_c, 0, 69, 0
2, 109824, Program_c, 0, 52
2, 109824, Note_on_c, 0, 71, 110
2, 109918, Note_on_c, 0, 71, 0
2, 109920, Note_on_c, 0, 71, 110
2, 109966, Note_on_c, 0, 71, 0
2, 109968, Note_on_c, 0, 71, 110
2, 110014, Note_on_c, 0, 71, 0
2, 110016, Note_on_c, 0, 71, 110
2, 110110, Note_on_c, 0, 71, 0
2, 110112, Note_on_c, 0, 71, 110
2, 110158, Note_on_c, 0, 71, 0
2, 110160, Note_on_c, 0, 71, 110
2, 110254, Note_on_c, 0, 71, 0
2, 110256, Note_on_c, 0, 71, 110
2, 110302, Note_on_c, 0, 71, 0
2, 110304, Note_on_c, 0, 71, 110
2, 110398, Note_on_c, 0, 71, 0
2, 110400, Note_on_c, 0, 71, 110
2, 110494, Note_on_c, 0, 71, 0
2, 110496, Note_on_c, 0, 69, 110
2, 110590, Note_on_c, 0, 69, 0
2, 110592, Note_on_c, 0, 69, 110
2, 110638, Note_on_c, 0, 69, 0
2, 110640, Note_on_c, 0, 69, 110
2, 110686, Note_on_c, 0, 69, 0
2, 110688, Note_on_c, 0, 69, 110
2, 110782, Note_on_c, 0, 69, 0
2, 110784, Note_on_c, 0, 69, 110
2, 110830, Note_on_c, 0, 69, 0
2, 110832, Note_on_c, 0, 69, 110
2, 110926, Note_on_c, 0, 69, 0
2, 110928, Note_on_c, 0, 69, 110
2, 110974, Note_on_c, 0, 69, 0
2, 110976, Note_on_c, 0, 69, 110
2, 111328, Note_on_c, 0, 69, 0
2, 112512, Program_c, 0, 52
2, 112512, Note_on_c, 0, 71, 110
2, 112606, Note_on_c, 0, 71, 0
2, 112608, Note_on_c, 0, 71, 110
2, 112654, Note_on_c, 0, 71, 0
2, 112656, Note_on_c, 0, 71, 110
2, 112702, Note_on_c, 0, 71, 0
2, 112704, Note_on_c, 0, 71, 110
2, 112798, Note_on_c, 0, 71, 0
2, 112800, Note_on_c, 0, 71, 110
2, 112846, Note_on_c, 0, 71, 0
2, 112848, Note_on_c, 0, 71, 110
2, 112942, Note_on_c, 0, 71, 0
2, 112944, Note_on_c, 0, 71, 110
2, 112990, Note_on_c, 0, 71, 0
2, 112992, Note_on_c, 0, 71, 110
2, 113086, Note_on_c, 0, 71, 0
2, 113088, Note_on_c, 0, 71, 110
2, 113182, Note_on_c, 0, 71, 0
2, 113184, Note_on_c, 0, 69, 110
2, 113278, Note_on_c, 0, 69, 0
2, 113280, Note_on_c, 0, 69, 110
2, 113326, Note_on_c, 0, 69, 0
2, 113328, Note_on_c, 0, 69, 110
2, 113374, Note_on_c, 0, 69, 0
2, 113376, Note_on_c, 0, 69, 110
2, 113470, Note_on_c, 0, 69, 0
2, 113472, Note_on_c, 0, 69, 110
2, 113518, Note_on_c, 0, 69, 0
2, 113520, Note_on_c, 0, 69, 110
2, 113614, Note_on_c, 0, 69, 0
2, 113616, Note_on_c, 0, 69, 110
2, 113662, Note_on_c, 0, 69, 0
2, 113664, Note_on_c, 0, 69, 110
2, 113904, Note_on_c, 0, 78, 110
2, 113950, Note_on_c, 0, 78, 0
2, 113952, Note_on_c, 0, 79, 110
2, 113998, Note_on_c, 0, 79, 0
2, 114000, Note_on_c, 0, 78, 110
2, 114046, Note_on_c, 0, 78, 0
2, 114048, Note_on_c, 0, 79, 110
2, 114094, Note_on_c, 0, 79, 0
2, 114096, Note_on_c, 0, 78, 110
2, 114190, Note_on_c, 0, 78, 0
2, 114192, Note_on_c, 0, 79, 110
2, 114286, Note_on_c, 0, 79, 0
2, 114288, Note_on_c, 0, 78, 110
2, 114334, Note_on_c, 0, 78, 0
2, 114336, Note_on_c, 0, 81, 110
2, 114430, Note_on_c, 0, 81, 0
2, 114432, Note_on_c, 0, 81, 110
2, 114526, Note_on_c, 0, 81, 0
2, 114528, Note_on_c, 0, 79, 110
2, 114622, Note_on_c, 0, 79, 0
2, 114624, Note_on_c, 0, 79, 110
2, 114670, Note_on_c, 0, 79, 0
2, 114672, Note_on_c, 0, 78, 110
2, 114718, Note_on_c, 0, 78, 0
2, 114720, Note_on_c, 0, 79, 110
2, 114766, Note_on_c, 0, 79, 0
2, 114768, Note_on_c, 0, 78, 110
2, 114862, Note_on_c, 0, 78, 0
2, 114864, Note_on_c, 0, 79, 110
2, 114958, Note_on_c, 0, 79, 0
2, 114960, Note_on_c, 0, 78, 110
2, 115054, Note_on_c, 0, 78, 0
2, 115056, Note_on_c, 0, 81, 110
2, 115198, Note_on_c, 0, 81, 0
2, 115198, End_track
3, 0, Start_track
3, 0, MIDI_port, 0
3, 0, Title_t, "Staff-1"
3, 0, Program_c, 1, 25
3, 0, Control_c, 1, 7, 127
3, 0, Control_c, 1, 10, 64
3, 384, Note_on_c, 1, 59, 110
3, 384, Note_on_c, 1, 64, 110
3, 384, Note_on_c, 1, 68, 110
3, 720, Note_on_c, 1, 59, 0
3, 720, Note_on_c, 1, 64, 0
3, 720, Note_on_c, 1, 68, 0
3, 768, Note_on_c, 1, 61, 110
3, 768, Note_on_c, 1, 64, 110
3, 768, Note_on_c, 1, 69, 110
3, 1488, Note_on_c, 1, 61, 0
3, 1488, Note_on_c, 1, 64, 0
3, 1488, Note_on_c, 1, 69, 0
3, 1536, Note_on_c, 1, 62, 110
3, 1536, Note_on_c, 1, 66, 110
3, 1536, Note_on_c, 1, 69, 110
3, 2256, Note_on_c, 1, 62, 0
3, 2256, Note_on_c, 1, 66, 0
3, 2256, Note_on_c, 1, 69, 0
3, 2304, Note_on_c, 1, 61, 110
3, 2304, Note_on_c, 1, 64, 110
3, 2304, Note_on_c, 1, 69, 110
3, 3024, Note_on_c, 1, 61, 0
3, 3024, Note_on_c, 1, 64, 0
3, 3024, Note_on_c, 1, 69, 0
3, 3072, Note_on_c, 1, 62, 110
3, 3072, Note_on_c, 1, 66, 110
3, 3072, Note_on_c, 1, 69, 110
3, 3792, Note_on_c, 1, 62, 0
3, 3792, Note_on_c, 1, 66, 0
3, 3792, Note_on_c, 1, 69, 0
3, 3840, Note_on_c, 1, 57, 110
3, 3840, Note_on_c, 1, 61, 110
3, 3840, Note_on_c, 1, 64, 110
3, 4560, Note_on_c, 1, 57, 0
3, 4560, Note_on_c, 1, 61, 0
3, 4560, Note_on_c, 1, 64, 0
3, 4608, Note_on_c, 1, 56, 110
3, 4608, Note_on_c, 1, 59, 110
3, 4608, Note_on_c, 1, 64, 110
3, 5328, Note_on_c, 1, 56, 0
3, 5328, Note_on_c, 1, 59, 0
3, 5328, Note_on_c, 1, 64, 0
3, 5376, Note_on_c, 1, 59, 110
3, 5376, Note_on_c, 1, 62, 110
3, 5376, Note_on_c, 1, 66, 110
3, 6864, Note_on_c, 1, 59, 0
3, 6864, Note_on_c, 1, 62, 0
3, 6864, Note_on_c, 1, 66, 0
3, 7968, Note_on_c, 1, 57, 110
3, 8062, Note_on_c, 1, 57, 0
3, 8064, Note_on_c, 1, 60, 110
3, 8158, Note_on_c, 1, 60, 0
3, 8160, Note_on_c, 1, 62, 110
3, 8320, Note_on_c, 1, 62, 0
3, 8352, Note_on_c, 1, 66, 110
3, 8976, Note_on_c, 1, 66, 0
3, 9024, Note_on_c, 1, 64, 110
3, 9118, Note_on_c, 1, 64, 0
3, 9120, Note_on_c, 1, 57, 110
3, 9214, Note_on_c, 1, 57, 0
3, 9216, Note_on_c, 1, 60, 110
3, 9376, Note_on_c, 1, 60, 0
3, 9408, Note_on_c, 1, 60, 110
3, 9568, Note_on_c, 1, 60, 0
3, 9600, Note_on_c, 1, 57, 110
3, 9936, Note_on_c, 1, 57, 0
3, 10272, Note_on_c, 1, 54, 110
3, 10366, Note_on_c, 1, 54, 0
3, 10368, Note_on_c, 1, 57, 110
3, 10462, Note_on_c, 1, 57, 0
3, 10464, Note_on_c, 1, 61, 110
3, 10624, Note_on_c, 1, 61, 0
3, 10656, Note_on_c, 1, 64, 110
3, 11472, Note_on_c, 1, 64, 0
3, 11712, Note_on_c, 1, 76, 110
3, 11806, Note_on_c, 1, 76, 0
3, 11808, Note_on_c, 1, 71, 110
3, 11998, Note_on_c, 1, 71, 0
3, 12000, Note_on_c, 1, 66, 110
3, 12160, Note_on_c, 1, 66, 0
3, 12192, Note_on_c, 1, 69, 110
3, 12192, Note_on_c, 1, 74, 110
3, 12192, Note_on_c, 1, 78, 110
3, 12382, Note_on_c, 1, 69, 0
3, 12382, Note_on_c, 1, 74, 0
3, 12382, Note_on_c, 1, 78, 0
3, 12384, Note_on_c, 1, 70, 110
3, 12384, Note_on_c, 1, 75, 110
3, 12384, Note_on_c, 1, 79, 110
3, 12544, Note_on_c, 1, 70, 0
3, 12544, Note_on_c, 1, 75, 0
3, 12544, Note_on_c, 1, 79, 0
3, 12576, Note_on_c, 1, 71, 110
3, 12576, Note_on_c, 1, 76, 110
3, 12576, Note_on_c, 1, 80, 110
3, 13008, Note_on_c, 1, 71, 0
3, 13008, Note_on_c, 1, 76, 0
3, 13008, Note_on_c, 1, 80, 0
3, 13248, Note_on_c, 1, 61, 110
3, 13248, Note_on_c, 1, 66, 110
3, 13248, Note_on_c, 1, 69, 110
3, 13584, Note_on_c, 1, 61, 0
3, 13584, Note_on_c, 1, 66, 0
3, 13584, Note_on_c, 1, 69, 0
3, 13632, Note_on_c, 1, 57, 110
3, 13632, Note_on_c, 1, 62, 110
3, 13632, Note_on_c, 1, 66, 110
3, 13726, Note_on_c, 1, 57, 0
3, 13726, Note_on_c, 1, 62, 0
3, 13726, Note_on_c, 1, 66, 0
3, 13728, Note_on_c, 1, 57, 110
3, 13728, Note_on_c, 1, 62, 110
3, 13728, Note_on_c, 1, 66, 110
3, 14544, Note_on_c, 1, 57, 0
3, 14544, Note_on_c, 1, 62, 0
3, 14544, Note_on_c, 1, 66, 0
3, 14688, Note_on_c, 1, 64, 110
3, 14782, Note_on_c, 1, 64, 0
3, 14784, Note_on_c, 1, 57, 110
3, 14944, Note_on_c, 1, 57, 0
3, 14976, Note_on_c, 1, 61, 110
3, 15070, Note_on_c, 1, 61, 0
3, 15072, Note_on_c, 1, 64, 110
3, 15232, Note_on_c, 1, 64, 0
3, 15264, Note_on_c, 1, 66, 110
3, 15454, Note_on_c, 1, 66, 0
3, 15456, Note_on_c, 1, 64, 110
3, 15648, Note_on_c, 1, 57, 110
3, 16080, Note_on_c, 1, 57, 0
3, 16080, Note_on_c, 1, 64, 0
3, 16416, Note_on_c, 1, 56, 110
3, 16510, Note_on_c, 1, 56, 0
3, 16512, Note_on_c, 1, 57, 110
3, 16606, Note_on_c, 1, 57, 0
3, 16608, Note_on_c, 1, 61, 110
3, 16702, Note_on_c, 1, 61, 0
3, 16704, Note_on_c, 1, 64, 110
3, 16798, Note_on_c, 1, 64, 0
3, 16800, Note_on_c, 1, 66, 110
3, 16894, Note_on_c, 1, 66, 0
3, 16896, Note_on_c, 1, 68, 110
3, 17616, Note_on_c, 1, 68, 0
3, 17760, Note_on_c, 1, 58, 110
3, 17760, Note_on_c, 1, 61, 110
3, 17760, Note_on_c, 1, 64, 110
3, 17854, Note_on_c, 1, 58, 0
3, 17854, Note_on_c, 1, 61, 0
3, 17854, Note_on_c, 1, 64, 0
3, 17856, Note_on_c, 1, 59, 110
3, 17856, Note_on_c, 1, 62, 110
3, 17856, Note_on_c, 1, 65, 110
3, 18016, Note_on_c, 1, 59, 0
3, 18016, Note_on_c, 1, 62, 0
3, 18016, Note_on_c, 1, 65, 0
3, 18048, Note_on_c, 1, 61, 110
3, 18070, Note_on_c, 1, 61, 0
3, 18072, Note_on_c, 1, 59, 110
3, 18072, Note_on_c, 1, 62, 110
3, 18072, Note_on_c, 1, 65, 110
3, 18400, Note_on_c, 1, 59, 0
3, 18400, Note_on_c, 1, 62, 0
3, 18400, Note_on_c, 1, 65, 0
3, 18432, Note_on_c, 1, 61, 110
3, 18454, Note_on_c, 1, 61, 0
3, 18456, Note_on_c, 1, 59, 110
3, 18456, Note_on_c, 1, 62, 110
3, 18456, Note_on_c, 1, 65, 110
3, 18622, Note_on_c, 1, 59, 0
3, 18622, Note_on_c, 1, 62, 0
3, 18622, Note_on_c, 1, 65, 0
3, 18624, Note_on_c, 1, 61, 110
3, 18646, Note_on_c, 1, 61, 0
3, 18648, Note_on_c, 1, 59, 110
3, 18648, Note_on_c, 1, 62, 110
3, 18648, Note_on_c, 1, 65, 110
3, 19152, Note_on_c, 1, 59, 0
3, 19152, Note_on_c, 1, 62, 0
3, 19152, Note_on_c, 1, 65, 0
3, 19200, Control_c, 1, 7, 83
3, 19200, Note_on_c, 1, 60, 110
3, 19222, Note_on_c, 1, 60, 0
3, 19224, Note_on_c, 1, 61, 110
3, 19224, Note_on_c, 1, 64, 110
3, 19224, Note_on_c, 1, 69, 110
3, 19390, Note_on_c, 1, 61, 0
3, 19390, Note_on_c, 1, 64, 0
3, 19390, Note_on_c, 1, 69, 0
3, 19392, Note_on_c, 1, 61, 110
3, 19392, Note_on_c, 1, 64, 110
3, 19392, Note_on_c, 1, 69, 110
3, 19552, Note_on_c, 1, 61, 0
3, 19552, Note_on_c, 1, 64, 0
3, 19552, Note_on_c, 1, 69, 0
3, 19584, Note_on_c, 1, 61, 110
3, 19584, Note_on_c, 1, 64, 110
3, 19584, Note_on_c, 1, 69, 110
3, 19744, Note_on_c, 1, 61, 0
3, 19744, Note_on_c, 1, 64, 0
3, 19744, Note_on_c, 1, 69, 0
3, 19776, Note_on_c, 1, 61, 110
3, 19776, Note_on_c, 1, 64, 110
3, 19776, Note_on_c, 1, 69, 110
3, 19936, Note_on_c, 1, 61, 0
3, 19936, Note_on_c, 1, 64, 0
3, 19936, Note_on_c, 1, 69, 0
3, 19968, Note_on_c, 1, 60, 110
3, 19968, Note_on_c, 1, 64, 110
3, 19968, Note_on_c, 1, 69, 110
3, 20128, Note_on_c, 1, 60, 0
3, 20128, Note_on_c, 1, 64, 0
3, 20128, Note_on_c, 1, 69, 0
3, 20160, Note_on_c, 1, 60, 110
3, 20160, Note_on_c, 1, 64, 110
3, 20160, Note_on_c, 1, 69, 110
3, 20320, Note_on_c, 1, 60, 0
3, 20320, Note_on_c, 1, 64, 0
3, 20320, Note_on_c, 1, 69, 0
3, 20352, Note_on_c, 1, 60, 110
3, 20352, Note_on_c, 1, 64, 110
3, 20352, Note_on_c, 1, 69, 110
3, 20512, Note_on_c, 1, 60, 0
3, 20512, Note_on_c, 1, 64, 0
3, 20512, Note_on_c, 1, 69, 0
3, 20544, Note_on_c, 1, 60, 110
3, 20544, Note_on_c, 1, 64, 110
3, 20544, Note_on_c, 1, 69, 110
3, 20704, Note_on_c, 1, 60, 0
3, 20704, Note_on_c, 1, 64, 0
3, 20704, Note_on_c, 1, 69, 0
3, 20736, Note_on_c, 1, 60, 110
3, 20758, Note_on_c, 1, 60, 0
3, 20760, Note_on_c, 1, 61, 110
3, 20760, Note_on_c, 1, 64, 110
3, 20760, Note_on_c, 1, 69, 110
3, 20926, Note_on_c, 1, 61, 0
3, 20926, Note_on_c, 1, 64, 0
3, 20926, Note_on_c, 1, 69, 0
3, 20928, Note_on_c, 1, 61, 110
3, 20928, Note_on_c, 1, 64, 110
3, 20928, Note_on_c, 1, 69, 110
3, 21088, Note_on_c, 1, 61, 0
3, 21088, Note_on_c, 1, 64, 0
3, 21088, Note_on_c, 1, 69, 0
3, 21120, Note_on_c, 1, 61, 110
3, 21120, Note_on_c, 1, 64, 110
3, 21120, Note_on_c, 1, 69, 110
3, 21280, Note_on_c, 1, 61, 0
3, 21280, Note_on_c, 1, 64, 0
3, 21280, Note_on_c, 1, 69, 0
3, 21312, Note_on_c, 1, 61, 110
3, 21312, Note_on_c, 1, 64, 110
3, 21312, Note_on_c, 1, 69, 110
3, 21472, Note_on_c, 1, 61, 0
3, 21472, Note_on_c, 1, 64, 0
3, 21472, Note_on_c, 1, 69, 0
3, 21504, Note_on_c, 1, 60, 110
3, 21504, Note_on_c, 1, 64, 110
3, 21504, Note_on_c, 1, 69, 110
3, 21664, Note_on_c, 1, 60, 0
3, 21664, Note_on_c, 1, 64, 0
3, 21664, Note_on_c, 1, 69, 0
3, 21696, Note_on_c, 1, 60, 110
3, 21696, Note_on_c, 1, 64, 110
3, 21696, Note_on_c, 1, 69, 110
3, 21856, Note_on_c, 1, 60, 0
3, 21856, Note_on_c, 1, 64, 0
3, 21856, Note_on_c, 1, 69, 0
3, 21888, Note_on_c, 1, 60, 110
3, 21888, Note_on_c, 1, 64, 110
3, 21888, Note_on_c, 1, 69, 110
3, 22048, Note_on_c, 1, 60, 0
3, 22048, Note_on_c, 1, 64, 0
3, 22048, Note_on_c, 1, 69, 0
3, 22080, Note_on_c, 1, 60, 110
3, 22080, Note_on_c, 1, 64, 110
3, 22080, Note_on_c, 1, 69, 110
3, 22240, Note_on_c, 1, 60, 0
3, 22240, Note_on_c, 1, 64, 0
3, 22240, Note_on_c, 1, 69, 0
3, 22272, Note_on_c, 1, 60, 110
3, 22294, Note_on_c, 1, 60, 0
3, 22296, Note_on_c, 1, 61, 110
3, 22296, Note_on_c, 1, 64, 110
3, 22296, Note_on_c, 1, 69, 110
3, 22462, Note_on_c, 1, 61, 0
3, 22462, Note_on_c, 1, 64, 0
3, 22462, Note_on_c, 1, 69, 0
3, 22464, Note_on_c, 1, 61, 110
3, 22464, Note_on_c, 1, 64, 110
3, 22464, Note_on_c, 1, 69, 110
3, 22624, Note_on_c, 1, 61, 0
3, 22624, Note_on_c, 1, 64, 0
3, 22624, Note_on_c, 1, 69, 0
3, 22656, Note_on_c, 1, 61, 110
3, 22656, Note_on_c, 1, 64, 110
3, 22656, Note_on_c, 1, 69, 110
3, 22816, Note_on_c, 1, 61, 0
3, 22816, Note_on_c, 1, 64, 0
3, 22816, Note_on_c, 1, 69, 0
3, 22848, Note_on_c, 1, 61, 110
3, 22848, Note_on_c, 1, 64, 110
3, 22848, Note_on_c, 1, 69, 110
3, 23008, Note_on_c, 1, 61, 0
3, 23008, Note_on_c, 1, 64, 0
3, 23008, Note_on_c, 1, 69, 0
3, 23040, Note_on_c, 1, 60, 110
3, 23040, Note_on_c, 1, 64, 110
3, 23040, Note_on_c, 1, 69, 110
3, 23200, Note_on_c, 1, 60, 0
3, 23200, Note_on_c, 1, 64, 0
3, 23200, Note_on_c, 1, 69, 0
3, 23232, Note_on_c, 1, 60, 110
3, 23232, Note_on_c, 1, 64, 110
3, 23232, Note_on_c, 1, 69, 110
3, 23392, Note_on_c, 1, 60, 0
3, 23392, Note_on_c, 1, 64, 0
3, 23392, Note_on_c, 1, 69, 0
3, 23424, Note_on_c, 1, 60, 110
3, 23424, Note_on_c, 1, 64, 110
3, 23424, Note_on_c, 1, 69, 110
3, 23584, Note_on_c, 1, 60, 0
3, 23584, Note_on_c, 1, 64, 0
3, 23584, Note_on_c, 1, 69, 0
3, 23616, Note_on_c, 1, 60, 110
3, 23616, Note_on_c, 1, 64, 110
3, 23616, Note_on_c, 1, 69, 110
3, 23776, Note_on_c, 1, 60, 0
3, 23776, Note_on_c, 1, 64, 0
3, 23776, Note_on_c, 1, 69, 0
3, 23808, Note_on_c, 1, 59, 110
3, 23808, Note_on_c, 1, 62, 110
3, 23808, Note_on_c, 1, 66, 110
3, 23808, Note_on_c, 1, 68, 110
3, 23968, Note_on_c, 1, 59, 0
3, 23968, Note_on_c, 1, 62, 0
3, 23968, Note_on_c, 1, 66, 0
3, 23968, Note_on_c, 1, 68, 0
3, 24000, Note_on_c, 1, 59, 110
3, 24000, Note_on_c, 1, 62, 110
3, 24000, Note_on_c, 1, 66, 110
3, 24000, Note_on_c, 1, 68, 110
3, 24160, Note_on_c, 1, 59, 0
3, 24160, Note_on_c, 1, 62, 0
3, 24160, Note_on_c, 1, 66, 0
3, 24160, Note_on_c, 1, 68, 0
3, 24192, Note_on_c, 1, 59, 110
3, 24192, Note_on_c, 1, 62, 110
3, 24192, Note_on_c, 1, 66, 110
3, 24192, Note_on_c, 1, 68, 110
3, 24352, Note_on_c, 1, 59, 0
3, 24352, Note_on_c, 1, 62, 0
3, 24352, Note_on_c, 1, 66, 0
3, 24352, Note_on_c, 1, 68, 0
3, 24384, Note_on_c, 1, 59, 110
3, 24384, Note_on_c, 1, 62, 110
3, 24384, Note_on_c, 1, 66, 110
3, 24384, Note_on_c, 1, 68, 110
3, 24544, Note_on_c, 1, 59, 0
3, 24544, Note_on_c, 1, 62, 0
3, 24544, Note_on_c, 1, 66, 0
3, 24544, Note_on_c, 1, 68, 0
3, 24576, Note_on_c, 1, 59, 110
3, 24576, Note_on_c, 1, 62, 110
3, 24576, Note_on_c, 1, 66, 110
3, 24576, Note_on_c, 1, 68, 110
3, 24736, Note_on_c, 1, 59, 0
3, 24736, Note_on_c, 1, 62, 0
3, 24736, Note_on_c, 1, 66, 0
3, 24736, Note_on_c, 1, 68, 0
3, 24768, Note_on_c, 1, 59, 110
3, 24768, Note_on_c, 1, 62, 110
3, 24768, Note_on_c, 1, 66, 110
3, 24768, Note_on_c, 1, 68, 110
3, 24928, Note_on_c, 1, 59, 0
3, 24928, Note_on_c, 1, 62, 0
3, 24928, Note_on_c, 1, 66, 0
3, 24928, Note_on_c, 1, 68, 0
3, 24960, Note_on_c, 1, 59, 110
3, 24960, Note_on_c, 1, 62, 110
3, 24960, Note_on_c, 1, 66, 110
3, 24960, Note_on_c, 1, 68, 110
3, 25120, Note_on_c, 1, 59, 0
3, 25120, Note_on_c, 1, 62, 0
3, 25120, Note_on_c, 1, 66, 0
3, 25120, Note_on_c, 1, 68, 0
3, 25152, Note_on_c, 1, 59, 110
3, 25152, Note_on_c, 1, 62, 110
3, 25152, Note_on_c, 1, 66, 110
3, 25152, Note_on_c, 1, 68, 110
3, 25312, Note_on_c, 1, 59, 0
3, 25312, Note_on_c, 1, 62, 0
3, 25312, Note_on_c, 1, 66, 0
3, 25312, Note_on_c, 1, 68, 0
3, 25344, Note_on_c, 1, 60, 110
3, 25366, Note_on_c, 1, 60, 0
3, 25368, Note_on_c, 1, 61, 110
3, 25368, Note_on_c, 1, 64, 110
3, 25368, Note_on_c, 1, 69, 110
3, 25534, Note_on_c, 1, 61, 0
3, 25534, Note_on_c, 1, 64, 0
3, 25534, Note_on_c, 1, 69, 0
3, 25536, Note_on_c, 1, 61, 110
3, 25536, Note_on_c, 1, 64, 110
3, 25536, Note_on_c, 1, 69, 110
3, 25696, Note_on_c, 1, 61, 0
3, 25696, Note_on_c, 1, 64, 0
3, 25696, Note_on_c, 1, 69, 0
3, 25728, Note_on_c, 1, 61, 110
3, 25728, Note_on_c, 1, 64, 110
3, 25728, Note_on_c, 1, 69, 110
3, 25888, Note_on_c, 1, 61, 0
3, 25888, Note_on_c, 1, 64, 0
3, 25888, Note_on_c, 1, 69, 0
3, 25920, Note_on_c, 1, 61, 110
3, 25920, Note_on_c, 1, 64, 110
3, 25920, Note_on_c, 1, 69, 110
3, 26080, Note_on_c, 1, 61, 0
3, 26080, Note_on_c, 1, 64, 0
3, 26080, Note_on_c, 1, 69, 0
3, 26112, Note_on_c, 1, 60, 110
3, 26112, Note_on_c, 1, 64, 110
3, 26112, Note_on_c, 1, 69, 110
3, 26272, Note_on_c, 1, 60, 0
3, 26272, Note_on_c, 1, 64, 0
3, 26272, Note_on_c, 1, 69, 0
3, 26304, Note_on_c, 1, 60, 110
3, 26304, Note_on_c, 1, 64, 110
3, 26304, Note_on_c, 1, 69, 110
3, 26464, Note_on_c, 1, 60, 0
3, 26464, Note_on_c, 1, 64, 0
3, 26464, Note_on_c, 1, 69, 0
3, 26496, Note_on_c, 1, 60, 110
3, 26496, Note_on_c, 1, 64, 110
3, 26496, Note_on_c, 1, 69, 110
3, 26656, Note_on_c, 1, 60, 0
3, 26656, Note_on_c, 1, 64, 0
3, 26656, Note_on_c, 1, 69, 0
3, 26688, Note_on_c, 1, 60, 110
3, 26688, Note_on_c, 1, 64, 110
3, 26688, Note_on_c, 1, 69, 110
3, 26848, Note_on_c, 1, 60, 0
3, 26848, Note_on_c, 1, 64, 0
3, 26848, Note_on_c, 1, 69, 0
3, 26880, Note_on_c, 1, 60, 110
3, 26902, Note_on_c, 1, 60, 0
3, 26904, Note_on_c, 1, 61, 110
3, 26904, Note_on_c, 1, 64, 110
3, 26904, Note_on_c, 1, 69, 110
3, 27070, Note_on_c, 1, 61, 0
3, 27070, Note_on_c, 1, 64, 0
3, 27070, Note_on_c, 1, 69, 0
3, 27072, Note_on_c, 1, 61, 110
3, 27072, Note_on_c, 1, 64, 110
3, 27072, Note_on_c, 1, 69, 110
3, 27232, Note_on_c, 1, 61, 0
3, 27232, Note_on_c, 1, 64, 0
3, 27232, Note_on_c, 1, 69, 0
3, 27264, Note_on_c, 1, 61, 110
3, 27264, Note_on_c, 1, 64, 110
3, 27264, Note_on_c, 1, 69, 110
3, 27424, Note_on_c, 1, 61, 0
3, 27424, Note_on_c, 1, 64, 0
3, 27424, Note_on_c, 1, 69, 0
3, 27456, Note_on_c, 1, 61, 110
3, 27456, Note_on_c, 1, 64, 110
3, 27456, Note_on_c, 1, 69, 110
3, 27616, Note_on_c, 1, 61, 0
3, 27616, Note_on_c, 1, 64, 0
3, 27616, Note_on_c, 1, 69, 0
3, 27648, Note_on_c, 1, 60, 110
3, 27648, Note_on_c, 1, 64, 110
3, 27648, Note_on_c, 1, 69, 110
3, 27808, Note_on_c, 1, 60, 0
3, 27808, Note_on_c, 1, 64, 0
3, 27808, Note_on_c, 1, 69, 0
3, 27840, Note_on_c, 1, 60, 110
3, 27840, Note_on_c, 1, 64, 110
3, 27840, Note_on_c, 1, 69, 110
3, 28000, Note_on_c, 1, 60, 0
3, 28000, Note_on_c, 1, 64, 0
3, 28000, Note_on_c, 1, 69, 0
3, 28032, Note_on_c, 1, 60, 110
3, 28032, Note_on_c, 1, 64, 110
3, 28032, Note_on_c, 1, 69, 110
3, 28192, Note_on_c, 1, 60, 0
3, 28192, Note_on_c, 1, 64, 0
3, 28192, Note_on_c, 1, 69, 0
3, 28224, Note_on_c, 1, 60, 110
3, 28224, Note_on_c, 1, 64, 110
3, 28224, Note_on_c, 1, 69, 110
3, 28384, Note_on_c, 1, 60, 0
3, 28384, Note_on_c, 1, 64, 0
3, 28384, Note_on_c, 1, 69, 0
3, 28416, Note_on_c, 1, 60, 110
3, 28438, Note_on_c, 1, 60, 0
3, 28440, Note_on_c, 1, 61, 110
3, 28440, Note_on_c, 1, 64, 110
3, 28440, Note_on_c, 1, 69, 110
3, 28606, Note_on_c, 1, 61, 0
3, 28606, Note_on_c, 1, 64, 0
3, 28606, Note_on_c, 1, 69, 0
3, 28608, Note_on_c, 1, 61, 110
3, 28608, Note_on_c, 1, 64, 110
3, 28608, Note_on_c, 1, 69, 110
3, 28768, Note_on_c, 1, 61, 0
3, 28768, Note_on_c, 1, 64, 0
3, 28768, Note_on_c, 1, 69, 0
3, 28800, Note_on_c, 1, 61, 110
3, 28800, Note_on_c, 1, 64, 110
3, 28800, Note_on_c, 1, 69, 110
3, 28960, Note_on_c, 1, 61, 0
3, 28960, Note_on_c, 1, 64, 0
3, 28960, Note_on_c, 1, 69, 0
3, 28992, Note_on_c, 1, 61, 110
3, 28992, Note_on_c, 1, 64, 110
3, 28992, Note_on_c, 1, 69, 110
3, 29152, Note_on_c, 1, 61, 0
3, 29152, Note_on_c, 1, 64, 0
3, 29152, Note_on_c, 1, 69, 0
3, 29184, Note_on_c, 1, 59, 110
3, 29184, Note_on_c, 1, 62, 110
3, 29184, Note_on_c, 1, 66, 110
3, 29184, Note_on_c, 1, 68, 110
3, 29344, Note_on_c, 1, 59, 0
3, 29344, Note_on_c, 1, 62, 0
3, 29344, Note_on_c, 1, 66, 0
3, 29344, Note_on_c, 1, 68, 0
3, 29376, Note_on_c, 1, 59, 110
3, 29376, Note_on_c, 1, 62, 110
3, 29376, Note_on_c, 1, 66, 110
3, 29376, Note_on_c, 1, 68, 110
3, 29536, Note_on_c, 1, 59, 0
3, 29536, Note_on_c, 1, 62, 0
3, 29536, Note_on_c, 1, 66, 0
3, 29536, Note_on_c, 1, 68, 0
3, 29568, Note_on_c, 1, 59, 110
3, 29568, Note_on_c, 1, 62, 110
3, 29568, Note_on_c, 1, 66, 110
3, 29568, Note_on_c, 1, 68, 110
3, 29728, Note_on_c, 1, 59, 0
3, 29728, Note_on_c, 1, 62, 0
3, 29728, Note_on_c, 1, 66, 0
3, 29728, Note_on_c, 1, 68, 0
3, 29760, Note_on_c, 1, 59, 110
3, 29760, Note_on_c, 1, 62, 110
3, 29760, Note_on_c, 1, 66, 110
3, 29760, Note_on_c, 1, 68, 110
3, 29920, Note_on_c, 1, 59, 0
3, 29920, Note_on_c, 1, 62, 0
3, 29920, Note_on_c, 1, 66, 0
3, 29920, Note_on_c, 1, 68, 0
3, 29952, Note_on_c, 1, 59, 110
3, 29952, Note_on_c, 1, 62, 110
3, 29952, Note_on_c, 1, 65, 110
3, 29952, Note_on_c, 1, 69, 110
3, 30112, Note_on_c, 1, 59, 0
3, 30112, Note_on_c, 1, 62, 0
3, 30112, Note_on_c, 1, 65, 0
3, 30112, Note_on_c, 1, 69, 0
3, 30144, Note_on_c, 1, 59, 110
3, 30144, Note_on_c, 1, 62, 110
3, 30144, Note_on_c, 1, 65, 110
3, 30144, Note_on_c, 1, 69, 110
3, 30304, Note_on_c, 1, 59, 0
3, 30304, Note_on_c, 1, 62, 0
3, 30304, Note_on_c, 1, 65, 0
3, 30304, Note_on_c, 1, 69, 0
3, 30336, Note_on_c, 1, 59, 110
3, 30336, Note_on_c, 1, 62, 110
3, 30336, Note_on_c, 1, 65, 110
3, 30336, Note_on_c, 1, 69, 110
3, 30496, Note_on_c, 1, 59, 0
3, 30496, Note_on_c, 1, 62, 0
3, 30496, Note_on_c, 1, 65, 0
3, 30496, Note_on_c, 1, 69, 0
3, 30528, Note_on_c, 1, 59, 110
3, 30528, Note_on_c, 1, 62, 110
3, 30528, Note_on_c, 1, 65, 110
3, 30528, Note_on_c, 1, 69, 110
3, 30688, Note_on_c, 1, 59, 0
3, 30688, Note_on_c, 1, 62, 0
3, 30688, Note_on_c, 1, 65, 0
3, 30688, Note_on_c, 1, 69, 0
3, 30720, Note_on_c, 1, 59, 110
3, 30720, Note_on_c, 1, 62, 110
3, 30720, Note_on_c, 1, 65, 110
3, 30720, Note_on_c, 1, 69, 110
3, 30880, Note_on_c, 1, 59, 0
3, 30880, Note_on_c, 1, 62, 0
3, 30880, Note_on_c, 1, 65, 0
3, 30880, Note_on_c, 1, 69, 0
3, 30912, Note_on_c, 1, 59, 110
3, 30912, Note_on_c, 1, 62, 110
3, 30912, Note_on_c, 1, 65, 110
3, 30912, Note_on_c, 1, 69, 110
3, 31072, Note_on_c, 1, 59, 0
3, 31072, Note_on_c, 1, 62, 0
3, 31072, Note_on_c, 1, 65, 0
3, 31072, Note_on_c, 1, 69, 0
3, 31104, Note_on_c, 1, 59, 110
3, 31104, Note_on_c, 1, 62, 110
3, 31104, Note_on_c, 1, 65, 110
3, 31104, Note_on_c, 1, 69, 110
3, 31264, Note_on_c, 1, 59, 0
3, 31264, Note_on_c, 1, 62, 0
3, 31264, Note_on_c, 1, 65, 0
3, 31264, Note_on_c, 1, 69, 0
3, 31296, Note_on_c, 1, 59, 110
3, 31296, Note_on_c, 1, 62, 110
3, 31296, Note_on_c, 1, 65, 110
3, 31296, Note_on_c, 1, 69, 110
3, 31456, Note_on_c, 1, 59, 0
3, 31456, Note_on_c, 1, 62, 0
3, 31456, Note_on_c, 1, 65, 0
3, 31456, Note_on_c, 1, 69, 0
3, 31488, Control_c, 1, 7, 83
3, 31488, Note_on_c, 1, 60, 110
3, 31510, Note_on_c, 1, 60, 0
3, 31512, Note_on_c, 1, 61, 110
3, 31512, Note_on_c, 1, 64, 110
3, 31512, Note_on_c, 1, 69, 110
3, 31678, Note_on_c, 1, 61, 0
3, 31678, Note_on_c, 1, 64, 0
3, 31678, Note_on_c, 1, 69, 0
3, 31680, Note_on_c, 1, 61, 110
3, 31680, Note_on_c, 1, 64, 110
3, 31680, Note_on_c, 1, 69, 110
3, 31840, Note_on_c, 1, 61, 0
3, 31840, Note_on_c, 1, 64, 0
3, 31840, Note_on_c, 1, 69, 0
3, 31872, Note_on_c, 1, 61, 110
3, 31872, Note_on_c, 1, 64, 110
3, 31872, Note_on_c, 1, 69, 110
3, 32032, Note_on_c, 1, 61, 0
3, 32032, Note_on_c, 1, 64, 0
3, 32032, Note_on_c, 1, 69, 0
3, 32064, Note_on_c, 1, 61, 110
3, 32064, Note_on_c, 1, 64, 110
3, 32064, Note_on_c, 1, 69, 110
3, 32224, Note_on_c, 1, 61, 0
3, 32224, Note_on_c, 1, 64, 0
3, 32224, Note_on_c, 1, 69, 0
3, 32256, Note_on_c, 1, 60, 110
3, 32256, Note_on_c, 1, 64, 110
3, 32256, Note_on_c, 1, 69, 110
3, 32416, Note_on_c, 1, 60, 0
3, 32416, Note_on_c, 1, 64, 0
3, 32416, Note_on_c, 1, 69, 0
3, 32448, Note_on_c, 1, 60, 110
3, 32448, Note_on_c, 1, 64, 110
3, 32448, Note_on_c, 1, 69, 110
3, 32608, Note_on_c, 1, 60, 0
3, 32608, Note_on_c, 1, 64, 0
3, 32608, Note_on_c, 1, 69, 0
3, 32640, Note_on_c, 1, 60, 110
3, 32640, Note_on_c, 1, 64, 110
3, 32640, Note_on_c, 1, 69, 110
3, 32800, Note_on_c, 1, 60, 0
3, 32800, Note_on_c, 1, 64, 0
3, 32800, Note_on_c, 1, 69, 0
3, 32832, Note_on_c, 1, 60, 110
3, 32832, Note_on_c, 1, 64, 110
3, 32832, Note_on_c, 1, 69, 110
3, 32992, Note_on_c, 1, 60, 0
3, 32992, Note_on_c, 1, 64, 0
3, 32992, Note_on_c, 1, 69, 0
3, 33024, Note_on_c, 1, 60, 110
3, 33046, Note_on_c, 1, 60, 0
3, 33048, Note_on_c, 1, 61, 110
3, 33048, Note_on_c, 1, 64, 110
3, 33048, Note_on_c, 1, 69, 110
3, 33214, Note_on_c, 1, 61, 0
3, 33214, Note_on_c, 1, 64, 0
3, 33214, Note_on_c, 1, 69, 0
3, 33216, Note_on_c, 1, 61, 110
3, 33216, Note_on_c, 1, 64, 110
3, 33216, Note_on_c, 1, 69, 110
3, 33376, Note_on_c, 1, 61, 0
3, 33376, Note_on_c, 1, 64, 0
3, 33376, Note_on_c, 1, 69, 0
3, 33408, Note_on_c, 1, 61, 110
3, 33408, Note_on_c, 1, 64, 110
3, 33408, Note_on_c, 1, 69, 110
3, 33568, Note_on_c, 1, 61, 0
3, 33568, Note_on_c, 1, 64, 0
3, 33568, Note_on_c, 1, 69, 0
3, 33600, Note_on_c, 1, 61, 110
3, 33600, Note_on_c, 1, 64, 110
3, 33600, Note_on_c, 1, 69, 110
3, 33760, Note_on_c, 1, 61, 0
3, 33760, Note_on_c, 1, 64, 0
3, 33760, Note_on_c, 1, 69, 0
3, 33792, Note_on_c, 1, 60, 110
3, 33792, Note_on_c, 1, 64, 110
3, 33792, Note_on_c, 1, 69, 110
3, 33952, Note_on_c, 1, 60, 0
3, 33952, Note_on_c, 1, 64, 0
3, 33952, Note_on_c, 1, 69, 0
3, 33984, Note_on_c, 1, 60, 110
3, 33984, Note_on_c, 1, 64, 110
3, 33984, Note_on_c, 1, 69, 110
3, 34144, Note_on_c, 1, 60, 0
3, 34144, Note_on_c, 1, 64, 0
3, 34144, Note_on_c, 1, 69, 0
3, 34176, Note_on_c, 1, 60, 110
3, 34176, Note_on_c, 1, 64, 110
3, 34176, Note_on_c, 1, 69, 110
3, 34336, Note_on_c, 1, 60, 0
3, 34336, Note_on_c, 1, 64, 0
3, 34336, Note_on_c, 1, 69, 0
3, 34368, Note_on_c, 1, 60, 110
3, 34368, Note_on_c, 1, 64, 110
3, 34368, Note_on_c, 1, 69, 110
3, 34528, Note_on_c, 1, 60, 0
3, 34528, Note_on_c, 1, 64, 0
3, 34528, Note_on_c, 1, 69, 0
3, 34560, Note_on_c, 1, 60, 110
3, 34582, Note_on_c, 1, 60, 0
3, 34584, Note_on_c, 1, 61, 110
3, 34584, Note_on_c, 1, 64, 110
3, 34584, Note_on_c, 1, 69, 110
3, 34750, Note_on_c, 1, 61, 0
3, 34750, Note_on_c, 1, 64, 0
3, 34750, Note_on_c, 1, 69, 0
3, 34752, Note_on_c, 1, 61, 110
3, 34752, Note_on_c, 1, 64, 110
3, 34752, Note_on_c, 1, 69, 110
3, 34912, Note_on_c, 1, 61, 0
3, 34912, Note_on_c, 1, 64, 0
3, 34912, Note_on_c, 1, 69, 0
3, 34944, Note_on_c, 1, 61, 110
3, 34944, Note_on_c, 1, 64, 110
3, 34944, Note_on_c, 1, 69, 110
3, 35104, Note_on_c, 1, 61, 0
3, 35104, Note_on_c, 1, 64, 0
3, 35104, Note_on_c, 1, 69, 0
3, 35136, Note_on_c, 1, 61, 110
3, 35136, Note_on_c, 1, 64, 110
3, 35136, Note_on_c, 1, 69, 110
3, 35296, Note_on_c, 1, 61, 0
3, 35296, Note_on_c, 1, 64, 0
3, 35296, Note_on_c, 1, 69, 0
3, 35328, Note_on_c, 1, 60, 110
3, 35328, Note_on_c, 1, 64, 110
3, 35328, Note_on_c, 1, 69, 110
3, 35488, Note_on_c, 1, 60, 0
3, 35488, Note_on_c, 1, 64, 0
3, 35488, Note_on_c, 1, 69, 0
3, 35520, Note_on_c, 1, 60, 110
3, 35520, Note_on_c, 1, 64, 110
3, 35520, Note_on_c, 1, 69, 110
3, 35680, Note_on_c, 1, 60, 0
3, 35680, Note_on_c, 1, 64, 0
3, 35680, Note_on_c, 1, 69, 0
3, 35712, Note_on_c, 1, 60, 110
3, 35712, Note_on_c, 1, 64, 110
3, 35712, Note_on_c, 1, 69, 110
3, 35872, Note_on_c, 1, 60, 0
3, 35872, Note_on_c, 1, 64, 0
3, 35872, Note_on_c, 1, 69, 0
3, 35904, Note_on_c, 1, 60, 110
3, 35904, Note_on_c, 1, 64, 110
3, 35904, Note_on_c, 1, 69, 110
3, 36064, Note_on_c, 1, 60, 0
3, 36064, Note_on_c, 1, 64, 0
3, 36064, Note_on_c, 1, 69, 0
3, 36096, Note_on_c, 1, 59, 110
3, 36096, Note_on_c, 1, 62, 110
3, 36096, Note_on_c, 1, 66, 110
3, 36096, Note_on_c, 1, 68, 110
3, 36256, Note_on_c, 1, 59, 0
3, 36256, Note_on_c, 1, 62, 0
3, 36256, Note_on_c, 1, 66, 0
3, 36256, Note_on_c, 1, 68, 0
3, 36288, Note_on_c, 1, 59, 110
3, 36288, Note_on_c, 1, 62, 110
3, 36288, Note_on_c, 1, 66, 110
3, 36288, Note_on_c, 1, 68, 110
3, 36448, Note_on_c, 1, 59, 0
3, 36448, Note_on_c, 1, 62, 0
3, 36448, Note_on_c, 1, 66, 0
3, 36448, Note_on_c, 1, 68, 0
3, 36480, Note_on_c, 1, 59, 110
3, 36480, Note_on_c, 1, 62, 110
3, 36480, Note_on_c, 1, 66, 110
3, 36480, Note_on_c, 1, 68, 110
3, 36640, Note_on_c, 1, 59, 0
3, 36640, Note_on_c, 1, 62, 0
3, 36640, Note_on_c, 1, 66, 0
3, 36640, Note_on_c, 1, 68, 0
3, 36672, Note_on_c, 1, 59, 110
3, 36672, Note_on_c, 1, 62, 110
3, 36672, Note_on_c, 1, 66, 110
3, 36672, Note_on_c, 1, 68, 110
3, 36832, Note_on_c, 1, 59, 0
3, 36832, Note_on_c, 1, 62, 0
3, 36832, Note_on_c, 1, 66, 0
3, 36832, Note_on_c, 1, 68, 0
3, 36864, Note_on_c, 1, 59, 110
3, 36864, Note_on_c, 1, 62, 110
3, 36864, Note_on_c, 1, 66, 110
3, 36864, Note_on_c, 1, 68, 110
3, 37024, Note_on_c, 1, 59, 0
3, 37024, Note_on_c, 1, 62, 0
3, 37024, Note_on_c, 1, 66, 0
3, 37024, Note_on_c, 1, 68, 0
3, 37056, Note_on_c, 1, 59, 110
3, 37056, Note_on_c, 1, 62, 110
3, 37056, Note_on_c, 1, 66, 110
3, 37056, Note_on_c, 1, 68, 110
3, 37216, Note_on_c, 1, 59, 0
3, 37216, Note_on_c, 1, 62, 0
3, 37216, Note_on_c, 1, 66, 0
3, 37216, Note_on_c, 1, 68, 0
3, 37248, Note_on_c, 1, 59, 110
3, 37248, Note_on_c, 1, 62, 110
3, 37248, Note_on_c, 1, 66, 110
3, 37248, Note_on_c, 1, 68, 110
3, 37408, Note_on_c, 1, 59, 0
3, 37408, Note_on_c, 1, 62, 0
3, 37408, Note_on_c, 1, 66, 0
3, 37408, Note_on_c, 1, 68, 0
3, 37440, Note_on_c, 1, 59, 110
3, 37440, Note_on_c, 1, 62, 110
3, 37440, Note_on_c, 1, 66, 110
3, 37440, Note_on_c, 1, 68, 110
3, 37600, Note_on_c, 1, 59, 0
3, 37600, Note_on_c, 1, 62, 0
3, 37600, Note_on_c, 1, 66, 0
3, 37600, Note_on_c, 1, 68, 0
3, 37632, Note_on_c, 1, 60, 110
3, 37654, Note_on_c, 1, 60, 0
3, 37656, Note_on_c, 1, 61, 110
3, 37656, Note_on_c, 1, 64, 110
3, 37656, Note_on_c, 1, 69, 110
3, 37822, Note_on_c, 1, 61, 0
3, 37822, Note_on_c, 1, 64, 0
3, 37822, Note_on_c, 1, 69, 0
3, 37824, Note_on_c, 1, 61, 110
3, 37824, Note_on_c, 1, 64, 110
3, 37824, Note_on_c, 1, 69, 110
3, 37984, Note_on_c, 1, 61, 0
3, 37984, Note_on_c, 1, 64, 0
3, 37984, Note_on_c, 1, 69, 0
3, 38016, Note_on_c, 1, 61, 110
3, 38016, Note_on_c, 1, 64, 110
3, 38016, Note_on_c, 1, 69, 110
3, 38176, Note_on_c, 1, 61, 0
3, 38176, Note_on_c, 1, 64, 0
3, 38176, Note_on_c, 1, 69, 0
3, 38208, Note_on_c, 1, 61, 110
3, 38208, Note_on_c, 1, 64, 110
3, 38208, Note_on_c, 1, 69, 110
3, 38368, Note_on_c, 1, 61, 0
3, 38368, Note_on_c, 1, 64, 0
3, 38368, Note_on_c, 1, 69, 0
3, 38400, Note_on_c, 1, 60, 110
3, 38400, Note_on_c, 1, 64, 110
3, 38400, Note_on_c, 1, 69, 110
3, 38560, Note_on_c, 1, 60, 0
3, 38560, Note_on_c, 1, 64, 0
3, 38560, Note_on_c, 1, 69, 0
3, 38592, Note_on_c, 1, 60, 110
3, 38592, Note_on_c, 1, 64, 110
3, 38592, Note_on_c, 1, 69, 110
3, 38752, Note_on_c, 1, 60, 0
3, 38752, Note_on_c, 1, 64, 0
3, 38752, Note_on_c, 1, 69, 0
3, 38784, Note_on_c, 1, 60, 110
3, 38784, Note_on_c, 1, 64, 110
3, 38784, Note_on_c, 1, 69, 110
3, 38944, Note_on_c, 1, 60, 0
3, 38944, Note_on_c, 1, 64, 0
3, 38944, Note_on_c, 1, 69, 0
3, 38976, Note_on_c, 1, 60, 110
3, 38976, Note_on_c, 1, 64, 110
3, 38976, Note_on_c, 1, 69, 110
3, 39136, Note_on_c, 1, 60, 0
3, 39136, Note_on_c, 1, 64, 0
3, 39136, Note_on_c, 1, 69, 0
3, 39168, Note_on_c, 1, 60, 110
3, 39190, Note_on_c, 1, 60, 0
3, 39192, Note_on_c, 1, 61, 110
3, 39192, Note_on_c, 1, 64, 110
3, 39192, Note_on_c, 1, 69, 110
3, 39358, Note_on_c, 1, 61, 0
3, 39358, Note_on_c, 1, 64, 0
3, 39358, Note_on_c, 1, 69, 0
3, 39360, Note_on_c, 1, 61, 110
3, 39360, Note_on_c, 1, 64, 110
3, 39360, Note_on_c, 1, 69, 110
3, 39520, Note_on_c, 1, 61, 0
3, 39520, Note_on_c, 1, 64, 0
3, 39520, Note_on_c, 1, 69, 0
3, 39552, Note_on_c, 1, 61, 110
3, 39552, Note_on_c, 1, 64, 110
3, 39552, Note_on_c, 1, 69, 110
3, 39712, Note_on_c, 1, 61, 0
3, 39712, Note_on_c, 1, 64, 0
3, 39712, Note_on_c, 1, 69, 0
3, 39744, Note_on_c, 1, 61, 110
3, 39744, Note_on_c, 1, 64, 110
3, 39744, Note_on_c, 1, 69, 110
3, 39904, Note_on_c, 1, 61, 0
3, 39904, Note_on_c, 1, 64, 0
3, 39904, Note_on_c, 1, 69, 0
3, 39936, Note_on_c, 1, 60, 110
3, 39936, Note_on_c, 1, 64, 110
3, 39936, Note_on_c, 1, 69, 110
3, 40096, Note_on_c, 1, 60, 0
3, 40096, Note_on_c, 1, 64, 0
3, 40096, Note_on_c, 1, 69, 0
3, 40128, Note_on_c, 1, 60, 110
3, 40128, Note_on_c, 1, 64, 110
3, 40128, Note_on_c, 1, 69, 110
3, 40288, Note_on_c, 1, 60, 0
3, 40288, Note_on_c, 1, 64, 0
3, 40288, Note_on_c, 1, 69, 0
3, 40320, Note_on_c, 1, 60, 110
3, 40320, Note_on_c, 1, 64, 110
3, 40320, Note_on_c, 1, 69, 110
3, 40480, Note_on_c, 1, 60, 0
3, 40480, Note_on_c, 1, 64, 0
3, 40480, Note_on_c, 1, 69, 0
3, 40512, Note_on_c, 1, 60, 110
3, 40512, Note_on_c, 1, 64, 110
3, 40512, Note_on_c, 1, 69, 110
3, 40672, Note_on_c, 1, 60, 0
3, 40672, Note_on_c, 1, 64, 0
3, 40672, Note_on_c, 1, 69, 0
3, 40704, Note_on_c, 1, 60, 110
3, 40726, Note_on_c, 1, 60, 0
3, 40728, Note_on_c, 1, 61, 110
3, 40728, Note_on_c, 1, 64, 110
3, 40728, Note_on_c, 1, 69, 110
3, 40894, Note_on_c, 1, 61, 0
3, 40894, Note_on_c, 1, 64, 0
3, 40894, Note_on_c, 1, 69, 0
3, 40896, Note_on_c, 1, 61, 110
3, 40896, Note_on_c, 1, 64, 110
3, 40896, Note_on_c, 1, 69, 110
3, 41056, Note_on_c, 1, 61, 0
3, 41056, Note_on_c, 1, 64, 0
3, 41056, Note_on_c, 1, 69, 0
3, 41088, Note_on_c, 1, 61, 110
3, 41088, Note_on_c, 1, 64, 110
3, 41088, Note_on_c, 1, 69, 110
3, 41248, Note_on_c, 1, 61, 0
3, 41248, Note_on_c, 1, 64, 0
3, 41248, Note_on_c, 1, 69, 0
3, 41280, Note_on_c, 1, 61, 110
3, 41280, Note_on_c, 1, 64, 110
3, 41280, Note_on_c, 1, 69, 110
3, 41440, Note_on_c, 1, 61, 0
3, 41440, Note_on_c, 1, 64, 0
3, 41440, Note_on_c, 1, 69, 0
3, 41472, Note_on_c, 1, 59, 110
3, 41472, Note_on_c, 1, 62, 110
3, 41472, Note_on_c, 1, 66, 110
3, 41472, Note_on_c, 1, 68, 110
3, 41632, Note_on_c, 1, 59, 0
3, 41632, Note_on_c, 1, 62, 0
3, 41632, Note_on_c, 1, 66, 0
3, 41632, Note_on_c, 1, 68, 0
3, 41664, Note_on_c, 1, 59, 110
3, 41664, Note_on_c, 1, 62, 110
3, 41664, Note_on_c, 1, 66, 110
3, 41664, Note_on_c, 1, 68, 110
3, 41824, Note_on_c, 1, 59, 0
3, 41824, Note_on_c, 1, 62, 0
3, 41824, Note_on_c, 1, 66, 0
3, 41824, Note_on_c, 1, 68, 0
3, 41856, Note_on_c, 1, 59, 110
3, 41856, Note_on_c, 1, 62, 110
3, 41856, Note_on_c, 1, 66, 110
3, 41856, Note_on_c, 1, 68, 110
3, 42016, Note_on_c, 1, 59, 0
3, 42016, Note_on_c, 1, 62, 0
3, 42016, Note_on_c, 1, 66, 0
3, 42016, Note_on_c, 1, 68, 0
3, 42048, Note_on_c, 1, 59, 110
3, 42048, Note_on_c, 1, 62, 110
3, 42048, Note_on_c, 1, 66, 110
3, 42048, Note_on_c, 1, 68, 110
3, 42208, Note_on_c, 1, 59, 0
3, 42208, Note_on_c, 1, 62, 0
3, 42208, Note_on_c, 1, 66, 0
3, 42208, Note_on_c, 1, 68, 0
3, 42240, Note_on_c, 1, 57, 110
3, 42240, Note_on_c, 1, 62, 110
3, 42240, Note_on_c, 1, 64, 110
3, 42240, Note_on_c, 1, 67, 110
3, 42400, Note_on_c, 1, 57, 0
3, 42400, Note_on_c, 1, 62, 0
3, 42400, Note_on_c, 1, 64, 0
3, 42400, Note_on_c, 1, 67, 0
3, 42432, Note_on_c, 1, 57, 110
3, 42432, Note_on_c, 1, 62, 110
3, 42432, Note_on_c, 1, 64, 110
3, 42432, Note_on_c, 1, 67, 110
3, 42592, Note_on_c, 1, 57, 0
3, 42592, Note_on_c, 1, 62, 0
3, 42592, Note_on_c, 1, 64, 0
3, 42592, Note_on_c, 1, 67, 0
3, 42624, Note_on_c, 1, 57, 110
3, 42624, Note_on_c, 1, 62, 110
3, 42624, Note_on_c, 1, 64, 110
3, 42624, Note_on_c, 1, 67, 110
3, 42784, Note_on_c, 1, 57, 0
3, 42784, Note_on_c, 1, 62, 0
3, 42784, Note_on_c, 1, 64, 0
3, 42784, Note_on_c, 1, 67, 0
3, 42816, Note_on_c, 1, 57, 110
3, 42816, Note_on_c, 1, 62, 110
3, 42816, Note_on_c, 1, 64, 110
3, 42816, Note_on_c, 1, 67, 110
3, 42976, Note_on_c, 1, 57, 0
3, 42976, Note_on_c, 1, 62, 0
3, 42976, Note_on_c, 1, 64, 0
3, 42976, Note_on_c, 1, 67, 0
3, 43008, Note_on_c, 1, 57, 110
3, 43008, Note_on_c, 1, 62, 110
3, 43008, Note_on_c, 1, 64, 110
3, 43008, Note_on_c, 1, 67, 110
3, 43168, Note_on_c, 1, 57, 0
3, 43168, Note_on_c, 1, 62, 0
3, 43168, Note_on_c, 1, 64, 0
3, 43168, Note_on_c, 1, 67, 0
3, 43200, Note_on_c, 1, 57, 110
3, 43200, Note_on_c, 1, 62, 110
3, 43200, Note_on_c, 1, 64, 110
3, 43200, Note_on_c, 1, 67, 110
3, 43360, Note_on_c, 1, 57, 0
3, 43360, Note_on_c, 1, 62, 0
3, 43360, Note_on_c, 1, 64, 0
3, 43360, Note_on_c, 1, 67, 0
3, 43392, Note_on_c, 1, 57, 110
3, 43392, Note_on_c, 1, 62, 110
3, 43392, Note_on_c, 1, 64, 110
3, 43392, Note_on_c, 1, 67, 110
3, 43552, Note_on_c, 1, 57, 0
3, 43552, Note_on_c, 1, 62, 0
3, 43552, Note_on_c, 1, 64, 0
3, 43552, Note_on_c, 1, 67, 0
3, 43584, Note_on_c, 1, 57, 110
3, 43584, Note_on_c, 1, 62, 110
3, 43584, Note_on_c, 1, 64, 110
3, 43584, Note_on_c, 1, 67, 110
3, 43744, Note_on_c, 1, 57, 0
3, 43744, Note_on_c, 1, 62, 0
3, 43744, Note_on_c, 1, 64, 0
3, 43744, Note_on_c, 1, 67, 0
3, 43776, Note_on_c, 1, 59, 110
3, 43776, Note_on_c, 1, 62, 110
3, 43776, Note_on_c, 1, 67, 110
3, 43936, Note_on_c, 1, 59, 0
3, 43936, Note_on_c, 1, 62, 0
3, 43936, Note_on_c, 1, 67, 0
3, 43968, Note_on_c, 1, 59, 110
3, 43968, Note_on_c, 1, 62, 110
3, 43968, Note_on_c, 1, 67, 110
3, 44128, Note_on_c, 1, 59, 0
3, 44128, Note_on_c, 1, 62, 0
3, 44128, Note_on_c, 1, 67, 0
3, 44160, Note_on_c, 1, 59, 110
3, 44160, Note_on_c, 1, 62, 110
3, 44160, Note_on_c, 1, 67, 110
3, 44320, Note_on_c, 1, 59, 0
3, 44320, Note_on_c, 1, 62, 0
3, 44320, Note_on_c, 1, 67, 0
3, 44352, Note_on_c, 1, 59, 110
3, 44352, Note_on_c, 1, 62, 110
3, 44352, Note_on_c, 1, 67, 110
3, 44512, Note_on_c, 1, 59, 0
3, 44512, Note_on_c, 1, 62, 0
3, 44512, Note_on_c, 1, 67, 0
3, 44544, Note_on_c, 1, 57, 110
3, 44544, Note_on_c, 1, 62, 110
3, 44544, Note_on_c, 1, 66, 110
3, 44704, Note_on_c, 1, 57, 0
3, 44704, Note_on_c, 1, 62, 0
3, 44704, Note_on_c, 1, 66, 0
3, 44736, Note_on_c, 1, 57, 110
3, 44736, Note_on_c, 1, 62, 110
3, 44736, Note_on_c, 1, 66, 110
3, 44896, Note_on_c, 1, 57, 0
3, 44896, Note_on_c, 1, 62, 0
3, 44896, Note_on_c, 1, 66, 0
3, 44928, Note_on_c, 1, 57, 110
3, 44928, Note_on_c, 1, 62, 110
3, 44928, Note_on_c, 1, 66, 110
3, 45088, Note_on_c, 1, 57, 0
3, 45088, Note_on_c, 1, 62, 0
3, 45088, Note_on_c, 1, 66, 0
3, 45120, Note_on_c, 1, 57, 110
3, 45120, Note_on_c, 1, 62, 110
3, 45120, Note_on_c, 1, 66, 110
3, 45280, Note_on_c, 1, 57, 0
3, 45280, Note_on_c, 1, 62, 0
3, 45280, Note_on_c, 1, 66, 0
3, 45312, Note_on_c, 1, 61, 110
3, 45312, Note_on_c, 1, 64, 110
3, 45312, Note_on_c, 1, 69, 110
3, 45472, Note_on_c, 1, 61, 0
3, 45472, Note_on_c, 1, 64, 0
3, 45472, Note_on_c, 1, 69, 0
3, 45504, Note_on_c, 1, 61, 110
3, 45504, Note_on_c, 1, 64, 110
3, 45504, Note_on_c, 1, 69, 110
3, 45664, Note_on_c, 1, 61, 0
3, 45664, Note_on_c, 1, 64, 0
3, 45664, Note_on_c, 1, 69, 0
3, 45696, Note_on_c, 1, 61, 110
3, 45696, Note_on_c, 1, 64, 110
3, 45696, Note_on_c, 1, 69, 110
3, 45856, Note_on_c, 1, 61, 0
3, 45856, Note_on_c, 1, 64, 0
3, 45856, Note_on_c, 1, 69, 0
3, 45888, Note_on_c, 1, 61, 110
3, 45888, Note_on_c, 1, 64, 110
3, 45888, Note_on_c, 1, 69, 110
3, 46048, Note_on_c, 1, 61, 0
3, 46048, Note_on_c, 1, 64, 0
3, 46048, Note_on_c, 1, 69, 0
3, 46080, Note_on_c, 1, 61, 110
3, 46080, Note_on_c, 1, 64, 110
3, 46080, Note_on_c, 1, 69, 110
3, 46240, Note_on_c, 1, 61, 0
3, 46240, Note_on_c, 1, 64, 0
3, 46240, Note_on_c, 1, 69, 0
3, 46272, Note_on_c, 1, 61, 110
3, 46272, Note_on_c, 1, 64, 110
3, 46272, Note_on_c, 1, 69, 110
3, 46432, Note_on_c, 1, 61, 0
3, 46432, Note_on_c, 1, 64, 0
3, 46432, Note_on_c, 1, 69, 0
3, 46464, Note_on_c, 1, 61, 110
3, 46464, Note_on_c, 1, 64, 110
3, 46464, Note_on_c, 1, 69, 110
3, 46624, Note_on_c, 1, 61, 0
3, 46624, Note_on_c, 1, 64, 0
3, 46624, Note_on_c, 1, 69, 0
3, 46656, Note_on_c, 1, 61, 110
3, 46656, Note_on_c, 1, 64, 110
3, 46656, Note_on_c, 1, 69, 110
3, 46816, Note_on_c, 1, 61, 0
3, 46816, Note_on_c, 1, 64, 0
3, 46816, Note_on_c, 1, 69, 0
3, 46848, Note_on_c, 1, 59, 110
3, 46848, Note_on_c, 1, 62, 110
3, 46848, Note_on_c, 1, 67, 110
3, 47008, Note_on_c, 1, 59, 0
3, 47008, Note_on_c, 1, 62, 0
3, 47008, Note_on_c, 1, 67, 0
3, 47040, Note_on_c, 1, 59, 110
3, 47040, Note_on_c, 1, 62, 110
3, 47040, Note_on_c, 1, 67, 110
3, 47200, Note_on_c, 1, 59, 0
3, 47200, Note_on_c, 1, 62, 0
3, 47200, Note_on_c, 1, 67, 0
3, 47232, Note_on_c, 1, 59, 110
3, 47232, Note_on_c, 1, 62, 110
3, 47232, Note_on_c, 1, 67, 110
3, 47392, Note_on_c, 1, 59, 0
3, 47392, Note_on_c, 1, 62, 0
3, 47392, Note_on_c, 1, 67, 0
3, 47424, Note_on_c, 1, 59, 110
3, 47424, Note_on_c, 1, 62, 110
3, 47424, Note_on_c, 1, 67, 110
3, 47584, Note_on_c, 1, 59, 0
3, 47584, Note_on_c, 1, 62, 0
3, 47584, Note_on_c, 1, 67, 0
3, 47616, Note_on_c, 1, 57, 110
3, 47616, Note_on_c, 1, 62, 110
3, 47616, Note_on_c, 1, 66, 110
3, 47776, Note_on_c, 1, 57, 0
3, 47776, Note_on_c, 1, 62, 0
3, 47776, Note_on_c, 1, 66, 0
3, 47808, Note_on_c, 1, 57, 110
3, 47808, Note_on_c, 1, 62, 110
3, 47808, Note_on_c, 1, 66, 110
3, 47968, Note_on_c, 1, 57, 0
3, 47968, Note_on_c, 1, 62, 0
3, 47968, Note_on_c, 1, 66, 0
3, 48000, Note_on_c, 1, 57, 110
3, 48000, Note_on_c, 1, 62, 110
3, 48000, Note_on_c, 1, 66, 110
3, 48160, Note_on_c, 1, 57, 0
3, 48160, Note_on_c, 1, 62, 0
3, 48160, Note_on_c, 1, 66, 0
3, 48192, Note_on_c, 1, 57, 110
3, 48192, Note_on_c, 1, 62, 110
3, 48192, Note_on_c, 1, 66, 110
3, 48352, Note_on_c, 1, 57, 0
3, 48352, Note_on_c, 1, 62, 0
3, 48352, Note_on_c, 1, 66, 0
3, 48384, Note_on_c, 1, 61, 110
3, 48384, Note_on_c, 1, 64, 110
3, 48384, Note_on_c, 1, 69, 110
3, 48544, Note_on_c, 1, 61, 0
3, 48544, Note_on_c, 1, 64, 0
3, 48544, Note_on_c, 1, 69, 0
3, 48576, Note_on_c, 1, 61, 110
3, 48576, Note_on_c, 1, 64, 110
3, 48576, Note_on_c, 1, 69, 110
3, 48736, Note_on_c, 1, 61, 0
3, 48736, Note_on_c, 1, 64, 0
3, 48736, Note_on_c, 1, 69, 0
3, 48768, Note_on_c, 1, 61, 110
3, 48768, Note_on_c, 1, 64, 110
3, 48768, Note_on_c, 1, 69, 110
3, 48928, Note_on_c, 1, 61, 0
3, 48928, Note_on_c, 1, 64, 0
3, 48928, Note_on_c, 1, 69, 0
3, 48960, Note_on_c, 1, 61, 110
3, 48960, Note_on_c, 1, 64, 110
3, 48960, Note_on_c, 1, 69, 110
3, 49120, Note_on_c, 1, 61, 0
3, 49120, Note_on_c, 1, 64, 0
3, 49120, Note_on_c, 1, 69, 0
3, 49152, Note_on_c, 1, 61, 110
3, 49152, Note_on_c, 1, 64, 110
3, 49152, Note_on_c, 1, 69, 110
3, 49312, Note_on_c, 1, 61, 0
3, 49312, Note_on_c, 1, 64, 0
3, 49312, Note_on_c, 1, 69, 0
3, 49344, Note_on_c, 1, 61, 110
3, 49344, Note_on_c, 1, 64, 110
3, 49344, Note_on_c, 1, 69, 110
3, 49504, Note_on_c, 1, 61, 0
3, 49504, Note_on_c, 1, 64, 0
3, 49504, Note_on_c, 1, 69, 0
3, 49536, Note_on_c, 1, 61, 110
3, 49536, Note_on_c, 1, 64, 110
3, 49536, Note_on_c, 1, 69, 110
3, 49696, Note_on_c, 1, 61, 0
3, 49696, Note_on_c, 1, 64, 0
3, 49696, Note_on_c, 1, 69, 0
3, 49728, Note_on_c, 1, 61, 110
3, 49728, Note_on_c, 1, 64, 110
3, 49728, Note_on_c, 1, 69, 110
3, 49888, Note_on_c, 1, 61, 0
3, 49888, Note_on_c, 1, 64, 0
3, 49888, Note_on_c, 1, 69, 0
3, 49920, Note_on_c, 1, 59, 110
3, 49920, Note_on_c, 1, 62, 110
3, 49920, Note_on_c, 1, 67, 110
3, 50080, Note_on_c, 1, 59, 0
3, 50080, Note_on_c, 1, 62, 0
3, 50080, Note_on_c, 1, 67, 0
3, 50112, Note_on_c, 1, 59, 110
3, 50112, Note_on_c, 1, 62, 110
3, 50112, Note_on_c, 1, 67, 110
3, 50272, Note_on_c, 1, 59, 0
3, 50272, Note_on_c, 1, 62, 0
3, 50272, Note_on_c, 1, 67, 0
3, 50304, Note_on_c, 1, 59, 110
3, 50304, Note_on_c, 1, 62, 110
3, 50304, Note_on_c, 1, 67, 110
3, 50464, Note_on_c, 1, 59, 0
3, 50464, Note_on_c, 1, 62, 0
3, 50464, Note_on_c, 1, 67, 0
3, 50496, Note_on_c, 1, 59, 110
3, 50496, Note_on_c, 1, 62, 110
3, 50496, Note_on_c, 1, 67, 110
3, 50656, Note_on_c, 1, 59, 0
3, 50656, Note_on_c, 1, 62, 0
3, 50656, Note_on_c, 1, 67, 0
3, 50688, Note_on_c, 1, 57, 110
3, 50688, Note_on_c, 1, 62, 110
3, 50688, Note_on_c, 1, 66, 110
3, 50848, Note_on_c, 1, 57, 0
3, 50848, Note_on_c, 1, 62, 0
3, 50848, Note_on_c, 1, 66, 0
3, 50880, Note_on_c, 1, 57, 110
3, 50880, Note_on_c, 1, 62, 110
3, 50880, Note_on_c, 1, 66, 110
3, 51040, Note_on_c, 1, 57, 0
3, 51040, Note_on_c, 1, 62, 0
3, 51040, Note_on_c, 1, 66, 0
3, 51072, Note_on_c, 1, 57, 110
3, 51072, Note_on_c, 1, 62, 110
3, 51072, Note_on_c, 1, 66, 110
3, 51232, Note_on_c, 1, 57, 0
3, 51232, Note_on_c, 1, 62, 0
3, 51232, Note_on_c, 1, 66, 0
3, 51264, Note_on_c, 1, 57, 110
3, 51264, Note_on_c, 1, 62, 110
3, 51264, Note_on_c, 1, 66, 110
3, 51424, Note_on_c, 1, 57, 0
3, 51424, Note_on_c, 1, 62, 0
3, 51424, Note_on_c, 1, 66, 0
3, 51456, Note_on_c, 1, 59, 110
3, 51456, Note_on_c, 1, 64, 110
3, 51456, Note_on_c, 1, 68, 110
3, 52944, Note_on_c, 1, 59, 0
3, 52944, Note_on_c, 1, 64, 0
3, 52944, Note_on_c, 1, 68, 0
3, 52992, Control_c, 1, 7, 83
3, 52992, Note_on_c, 1, 60, 110
3, 53014, Note_on_c, 1, 60, 0
3, 53016, Note_on_c, 1, 61, 110
3, 53016, Note_on_c, 1, 64, 110
3, 53016, Note_on_c, 1, 69, 110
3, 53182, Note_on_c, 1, 61, 0
3, 53182, Note_on_c, 1, 64, 0
3, 53182, Note_on_c, 1, 69, 0
3, 53184, Note_on_c, 1, 61, 110
3, 53184, Note_on_c, 1, 64, 110
3, 53184, Note_on_c, 1, 69, 110
3, 53344, Note_on_c, 1, 61, 0
3, 53344, Note_on_c, 1, 64, 0
3, 53344, Note_on_c, 1, 69, 0
3, 53376, Note_on_c, 1, 61, 110
3, 53376, Note_on_c, 1, 64, 110
3, 53376, Note_on_c, 1, 69, 110
3, 53536, Note_on_c, 1, 61, 0
3, 53536, Note_on_c, 1, 64, 0
3, 53536, Note_on_c, 1, 69, 0
3, 53568, Note_on_c, 1, 61, 110
3, 53568, Note_on_c, 1, 64, 110
3, 53568, Note_on_c, 1, 69, 110
3, 53728, Note_on_c, 1, 61, 0
3, 53728, Note_on_c, 1, 64, 0
3, 53728, Note_on_c, 1, 69, 0
3, 53760, Note_on_c, 1, 60, 110
3, 53760, Note_on_c, 1, 64, 110
3, 53760, Note_on_c, 1, 69, 110
3, 53920, Note_on_c, 1, 60, 0
3, 53920, Note_on_c, 1, 64, 0
3, 53920, Note_on_c, 1, 69, 0
3, 53952, Note_on_c, 1, 60, 110
3, 53952, Note_on_c, 1, 64, 110
3, 53952, Note_on_c, 1, 69, 110
3, 54112, Note_on_c, 1, 60, 0
3, 54112, Note_on_c, 1, 64, 0
3, 54112, Note_on_c, 1, 69, 0
3, 54144, Note_on_c, 1, 60, 110
3, 54144, Note_on_c, 1, 64, 110
3, 54144, Note_on_c, 1, 69, 110
3, 54304, Note_on_c, 1, 60, 0
3, 54304, Note_on_c, 1, 64, 0
3, 54304, Note_on_c, 1, 69, 0
3, 54336, Note_on_c, 1, 60, 110
3, 54336, Note_on_c, 1, 64, 110
3, 54336, Note_on_c, 1, 69, 110
3, 54496, Note_on_c, 1, 60, 0
3, 54496, Note_on_c, 1, 64, 0
3, 54496, Note_on_c, 1, 69, 0
3, 54528, Note_on_c, 1, 60, 110
3, 54550, Note_on_c, 1, 60, 0
3, 54552, Note_on_c, 1, 61, 110
3, 54552, Note_on_c, 1, 64, 110
3, 54552, Note_on_c, 1, 69, 110
3, 54718, Note_on_c, 1, 61, 0
3, 54718, Note_on_c, 1, 64, 0
3, 54718, Note_on_c, 1, 69, 0
3, 54720, Note_on_c, 1, 61, 110
3, 54720, Note_on_c, 1, 64, 110
3, 54720, Note_on_c, 1, 69, 110
3, 54880, Note_on_c, 1, 61, 0
3, 54880, Note_on_c, 1, 64, 0
3, 54880, Note_on_c, 1, 69, 0
3, 54912, Note_on_c, 1, 61, 110
3, 54912, Note_on_c, 1, 64, 110
3, 54912, Note_on_c, 1, 69, 110
3, 55072, Note_on_c, 1, 61, 0
3, 55072, Note_on_c, 1, 64, 0
3, 55072, Note_on_c, 1, 69, 0
3, 55104, Note_on_c, 1, 61, 110
3, 55104, Note_on_c, 1, 64, 110
3, 55104, Note_on_c, 1, 69, 110
3, 55264, Note_on_c, 1, 61, 0
3, 55264, Note_on_c, 1, 64, 0
3, 55264, Note_on_c, 1, 69, 0
3, 55296, Note_on_c, 1, 60, 110
3, 55296, Note_on_c, 1, 64, 110
3, 55296, Note_on_c, 1, 69, 110
3, 55456, Note_on_c, 1, 60, 0
3, 55456, Note_on_c, 1, 64, 0
3, 55456, Note_on_c, 1, 69, 0
3, 55488, Note_on_c, 1, 60, 110
3, 55488, Note_on_c, 1, 64, 110
3, 55488, Note_on_c, 1, 69, 110
3, 55648, Note_on_c, 1, 60, 0
3, 55648, Note_on_c, 1, 64, 0
3, 55648, Note_on_c, 1, 69, 0
3, 55680, Note_on_c, 1, 60, 110
3, 55680, Note_on_c, 1, 64, 110
3, 55680, Note_on_c, 1, 69, 110
3, 55840, Note_on_c, 1, 60, 0
3, 55840, Note_on_c, 1, 64, 0
3, 55840, Note_on_c, 1, 69, 0
3, 55872, Note_on_c, 1, 60, 110
3, 55872, Note_on_c, 1, 64, 110
3, 55872, Note_on_c, 1, 69, 110
3, 56032, Note_on_c, 1, 60, 0
3, 56032, Note_on_c, 1, 64, 0
3, 56032, Note_on_c, 1, 69, 0
3, 56064, Note_on_c, 1, 60, 110
3, 56086, Note_on_c, 1, 60, 0
3, 56088, Note_on_c, 1, 61, 110
3, 56088, Note_on_c, 1, 64, 110
3, 56088, Note_on_c, 1, 69, 110
3, 56254, Note_on_c, 1, 61, 0
3, 56254, Note_on_c, 1, 64, 0
3, 56254, Note_on_c, 1, 69, 0
3, 56256, Note_on_c, 1, 61, 110
3, 56256, Note_on_c, 1, 64, 110
3, 56256, Note_on_c, 1, 69, 110
3, 56416, Note_on_c, 1, 61, 0
3, 56416, Note_on_c, 1, 64, 0
3, 56416, Note_on_c, 1, 69, 0
3, 56448, Note_on_c, 1, 61, 110
3, 56448, Note_on_c, 1, 64, 110
3, 56448, Note_on_c, 1, 69, 110
3, 56608, Note_on_c, 1, 61, 0
3, 56608, Note_on_c, 1, 64, 0
3, 56608, Note_on_c, 1, 69, 0
3, 56640, Note_on_c, 1, 61, 110
3, 56640, Note_on_c, 1, 64, 110
3, 56640, Note_on_c, 1, 69, 110
3, 56800, Note_on_c, 1, 61, 0
3, 56800, Note_on_c, 1, 64, 0
3, 56800, Note_on_c, 1, 69, 0
3, 56832, Note_on_c, 1, 60, 110
3, 56832, Note_on_c, 1, 64, 110
3, 56832, Note_on_c, 1, 69, 110
3, 56992, Note_on_c, 1, 60, 0
3, 56992, Note_on_c, 1, 64, 0
3, 56992, Note_on_c, 1, 69, 0
3, 57024, Note_on_c, 1, 60, 110
3, 57024, Note_on_c, 1, 64, 110
3, 57024, Note_on_c, 1, 69, 110
3, 57184, Note_on_c, 1, 60, 0
3, 57184, Note_on_c, 1, 64, 0
3, 57184, Note_on_c, 1, 69, 0
3, 57216, Note_on_c, 1, 60, 110
3, 57216, Note_on_c, 1, 64, 110
3, 57216, Note_on_c, 1, 69, 110
3, 57376, Note_on_c, 1, 60, 0
3, 57376, Note_on_c, 1, 64, 0
3, 57376, Note_on_c, 1, 69, 0
3, 57408, Note_on_c, 1, 60, 110
3, 57408, Note_on_c, 1, 64, 110
3, 57408, Note_on_c, 1, 69, 110
3, 57568, Note_on_c, 1, 60, 0
3, 57568, Note_on_c, 1, 64, 0
3, 57568, Note_on_c, 1, 69, 0
3, 57600, Note_on_c, 1, 59, 110
3, 57600, Note_on_c, 1, 62, 110
3, 57600, Note_on_c, 1, 66, 110
3, 57600, Note_on_c, 1, 68, 110
3, 57760, Note_on_c, 1, 59, 0
3, 57760, Note_on_c, 1, 62, 0
3, 57760, Note_on_c, 1, 66, 0
3, 57760, Note_on_c, 1, 68, 0
3, 57792, Note_on_c, 1, 59, 110
3, 57792, Note_on_c, 1, 62, 110
3, 57792, Note_on_c, 1, 66, 110
3, 57792, Note_on_c, 1, 68, 110
3, 57952, Note_on_c, 1, 59, 0
3, 57952, Note_on_c, 1, 62, 0
3, 57952, Note_on_c, 1, 66, 0
3, 57952, Note_on_c, 1, 68, 0
3, 57984, Note_on_c, 1, 59, 110
3, 57984, Note_on_c, 1, 62, 110
3, 57984, Note_on_c, 1, 66, 110
3, 57984, Note_on_c, 1, 68, 110
3, 58144, Note_on_c, 1, 59, 0
3, 58144, Note_on_c, 1, 62, 0
3, 58144, Note_on_c, 1, 66, 0
3, 58144, Note_on_c, 1, 68, 0
3, 58176, Note_on_c, 1, 59, 110
3, 58176, Note_on_c, 1, 62, 110
3, 58176, Note_on_c, 1, 66, 110
3, 58176, Note_on_c, 1, 68, 110
3, 58336, Note_on_c, 1, 59, 0
3, 58336, Note_on_c, 1, 62, 0
3, 58336, Note_on_c, 1, 66, 0
3, 58336, Note_on_c, 1, 68, 0
3, 58368, Note_on_c, 1, 59, 110
3, 58368, Note_on_c, 1, 62, 110
3, 58368, Note_on_c, 1, 66, 110
3, 58368, Note_on_c, 1, 68, 110
3, 58528, Note_on_c, 1, 59, 0
3, 58528, Note_on_c, 1, 62, 0
3, 58528, Note_on_c, 1, 66, 0
3, 58528, Note_on_c, 1, 68, 0
3, 58560, Note_on_c, 1, 59, 110
3, 58560, Note_on_c, 1, 62, 110
3, 58560, Note_on_c, 1, 66, 110
3, 58560, Note_on_c, 1, 68, 110
3, 58720, Note_on_c, 1, 59, 0
3, 58720, Note_on_c, 1, 62, 0
3, 58720, Note_on_c, 1, 66, 0
3, 58720, Note_on_c, 1, 68, 0
3, 58752, Note_on_c, 1, 59, 110
3, 58752, Note_on_c, 1, 62, 110
3, 58752, Note_on_c, 1, 66, 110
3, 58752, Note_on_c, 1, 68, 110
3, 58912, Note_on_c, 1, 59, 0
3, 58912, Note_on_c, 1, 62, 0
3, 58912, Note_on_c, 1, 66, 0
3, 58912, Note_on_c, 1, 68, 0
3, 58944, Note_on_c, 1, 59, 110
3, 58944, Note_on_c, 1, 62, 110
3, 58944, Note_on_c, 1, 66, 110
3, 58944, Note_on_c, 1, 68, 110
3, 59104, Note_on_c, 1, 59, 0
3, 59104, Note_on_c, 1, 62, 0
3, 59104, Note_on_c, 1, 66, 0
3, 59104, Note_on_c, 1, 68, 0
3, 59136, Note_on_c, 1, 60, 110
3, 59158, Note_on_c, 1, 60, 0
3, 59160, Note_on_c, 1, 61, 110
3, 59160, Note_on_c, 1, 64, 110
3, 59160, Note_on_c, 1, 69, 110
3, 59326, Note_on_c, 1, 61, 0
3, 59326, Note_on_c, 1, 64, 0
3, 59326, Note_on_c, 1, 69, 0
3, 59328, Note_on_c, 1, 61, 110
3, 59328, Note_on_c, 1, 64, 110
3, 59328, Note_on_c, 1, 69, 110
3, 59488, Note_on_c, 1, 61, 0
3, 59488, Note_on_c, 1, 64, 0
3, 59488, Note_on_c, 1, 69, 0
3, 59520, Note_on_c, 1, 61, 110
3, 59520, Note_on_c, 1, 64, 110
3, 59520, Note_on_c, 1, 69, 110
3, 59680, Note_on_c, 1, 61, 0
3, 59680, Note_on_c, 1, 64, 0
3, 59680, Note_on_c, 1, 69, 0
3, 59712, Note_on_c, 1, 61, 110
3, 59712, Note_on_c, 1, 64, 110
3, 59712, Note_on_c, 1, 69, 110
3, 59872, Note_on_c, 1, 61, 0
3, 59872, Note_on_c, 1, 64, 0
3, 59872, Note_on_c, 1, 69, 0
3, 59904, Note_on_c, 1, 60, 110
3, 59904, Note_on_c, 1, 64, 110
3, 59904, Note_on_c, 1, 69, 110
3, 60064, Note_on_c, 1, 60, 0
3, 60064, Note_on_c, 1, 64, 0
3, 60064, Note_on_c, 1, 69, 0
3, 60096, Note_on_c, 1, 60, 110
3, 60096, Note_on_c, 1, 64, 110
3, 60096, Note_on_c, 1, 69, 110
3, 60256, Note_on_c, 1, 60, 0
3, 60256, Note_on_c, 1, 64, 0
3, 60256, Note_on_c, 1, 69, 0
3, 60288, Note_on_c, 1, 60, 110
3, 60288, Note_on_c, 1, 64, 110
3, 60288, Note_on_c, 1, 69, 110
3, 60448, Note_on_c, 1, 60, 0
3, 60448, Note_on_c, 1, 64, 0
3, 60448, Note_on_c, 1, 69, 0
3, 60480, Note_on_c, 1, 60, 110
3, 60480, Note_on_c, 1, 64, 110
3, 60480, Note_on_c, 1, 69, 110
3, 60640, Note_on_c, 1, 60, 0
3, 60640, Note_on_c, 1, 64, 0
3, 60640, Note_on_c, 1, 69, 0
3, 60672, Note_on_c, 1, 60, 110
3, 60694, Note_on_c, 1, 60, 0
3, 60696, Note_on_c, 1, 61, 110
3, 60696, Note_on_c, 1, 64, 110
3, 60696, Note_on_c, 1, 69, 110
3, 60862, Note_on_c, 1, 61, 0
3, 60862, Note_on_c, 1, 64, 0
3, 60862, Note_on_c, 1, 69, 0
3, 60864, Note_on_c, 1, 61, 110
3, 60864, Note_on_c, 1, 64, 110
3, 60864, Note_on_c, 1, 69, 110
3, 61024, Note_on_c, 1, 61, 0
3, 61024, Note_on_c, 1, 64, 0
3, 61024, Note_on_c, 1, 69, 0
3, 61056, Note_on_c, 1, 61, 110
3, 61056, Note_on_c, 1, 64, 110
3, 61056, Note_on_c, 1, 69, 110
3, 61216, Note_on_c, 1, 61, 0
3, 61216, Note_on_c, 1, 64, 0
3, 61216, Note_on_c, 1, 69, 0
3, 61248, Note_on_c, 1, 61, 110
3, 61248, Note_on_c, 1, 64, 110
3, 61248, Note_on_c, 1, 69, 110
3, 61408, Note_on_c, 1, 61, 0
3, 61408, Note_on_c, 1, 64, 0
3, 61408, Note_on_c, 1, 69, 0
3, 61440, Note_on_c, 1, 60, 110
3, 61440, Note_on_c, 1, 64, 110
3, 61440, Note_on_c, 1, 69, 110
3, 61600, Note_on_c, 1, 60, 0
3, 61600, Note_on_c, 1, 64, 0
3, 61600, Note_on_c, 1, 69, 0
3, 61632, Note_on_c, 1, 60, 110
3, 61632, Note_on_c, 1, 64, 110
3, 61632, Note_on_c, 1, 69, 110
3, 61792, Note_on_c, 1, 60, 0
3, 61792, Note_on_c, 1, 64, 0
3, 61792, Note_on_c, 1, 69, 0
3, 61824, Note_on_c, 1, 60, 110
3, 61824, Note_on_c, 1, 64, 110
3, 61824, Note_on_c, 1, 69, 110
3, 61984, Note_on_c, 1, 60, 0
3, 61984, Note_on_c, 1, 64, 0
3, 61984, Note_on_c, 1, 69, 0
3, 62016, Note_on_c, 1, 60, 110
3, 62016, Note_on_c, 1, 64, 110
3, 62016, Note_on_c, 1, 69, 110
3, 62176, Note_on_c, 1, 60, 0
3, 62176, Note_on_c, 1, 64, 0
3, 62176, Note_on_c, 1, 69, 0
3, 62208, Note_on_c, 1, 60, 110
3, 62230, Note_on_c, 1, 60, 0
3, 62232, Note_on_c, 1, 61, 110
3, 62232, Note_on_c, 1, 64, 110
3, 62232, Note_on_c, 1, 69, 110
3, 62398, Note_on_c, 1, 61, 0
3, 62398, Note_on_c, 1, 64, 0
3, 62398, Note_on_c, 1, 69, 0
3, 62400, Note_on_c, 1, 61, 110
3, 62400, Note_on_c, 1, 64, 110
3, 62400, Note_on_c, 1, 69, 110
3, 62560, Note_on_c, 1, 61, 0
3, 62560, Note_on_c, 1, 64, 0
3, 62560, Note_on_c, 1, 69, 0
3, 62592, Note_on_c, 1, 61, 110
3, 62592, Note_on_c, 1, 64, 110
3, 62592, Note_on_c, 1, 69, 110
3, 62752, Note_on_c, 1, 61, 0
3, 62752, Note_on_c, 1, 64, 0
3, 62752, Note_on_c, 1, 69, 0
3, 62784, Note_on_c, 1, 61, 110
3, 62784, Note_on_c, 1, 64, 110
3, 62784, Note_on_c, 1, 69, 110
3, 62944, Note_on_c, 1, 61, 0
3, 62944, Note_on_c, 1, 64, 0
3, 62944, Note_on_c, 1, 69, 0
3, 62976, Note_on_c, 1, 59, 110
3, 62976, Note_on_c, 1, 62, 110
3, 62976, Note_on_c, 1, 66, 110
3, 62976, Note_on_c, 1, 68, 110
3, 63136, Note_on_c, 1, 59, 0
3, 63136, Note_on_c, 1, 62, 0
3, 63136, Note_on_c, 1, 66, 0
3, 63136, Note_on_c, 1, 68, 0
3, 63168, Note_on_c, 1, 59, 110
3, 63168, Note_on_c, 1, 62, 110
3, 63168, Note_on_c, 1, 66, 110
3, 63168, Note_on_c, 1, 68, 110
3, 63328, Note_on_c, 1, 59, 0
3, 63328, Note_on_c, 1, 62, 0
3, 63328, Note_on_c, 1, 66, 0
3, 63328, Note_on_c, 1, 68, 0
3, 63360, Note_on_c, 1, 59, 110
3, 63360, Note_on_c, 1, 62, 110
3, 63360, Note_on_c, 1, 66, 110
3, 63360, Note_on_c, 1, 68, 110
3, 63520, Note_on_c, 1, 59, 0
3, 63520, Note_on_c, 1, 62, 0
3, 63520, Note_on_c, 1, 66, 0
3, 63520, Note_on_c, 1, 68, 0
3, 63552, Note_on_c, 1, 59, 110
3, 63552, Note_on_c, 1, 62, 110
3, 63552, Note_on_c, 1, 66, 110
3, 63552, Note_on_c, 1, 68, 110
3, 63712, Note_on_c, 1, 59, 0
3, 63712, Note_on_c, 1, 62, 0
3, 63712, Note_on_c, 1, 66, 0
3, 63712, Note_on_c, 1, 68, 0
3, 63744, Note_on_c, 1, 59, 110
3, 63744, Note_on_c, 1, 62, 110
3, 63744, Note_on_c, 1, 65, 110
3, 63744, Note_on_c, 1, 69, 110
3, 63904, Note_on_c, 1, 59, 0
3, 63904, Note_on_c, 1, 62, 0
3, 63904, Note_on_c, 1, 65, 0
3, 63904, Note_on_c, 1, 69, 0
3, 63936, Note_on_c, 1, 59, 110
3, 63936, Note_on_c, 1, 62, 110
3, 63936, Note_on_c, 1, 65, 110
3, 63936, Note_on_c, 1, 69, 110
3, 64096, Note_on_c, 1, 59, 0
3, 64096, Note_on_c, 1, 62, 0
3, 64096, Note_on_c, 1, 65, 0
3, 64096, Note_on_c, 1, 69, 0
3, 64128, Note_on_c, 1, 59, 110
3, 64128, Note_on_c, 1, 62, 110
3, 64128, Note_on_c, 1, 65, 110
3, 64128, Note_on_c, 1, 69, 110
3, 64288, Note_on_c, 1, 59, 0
3, 64288, Note_on_c, 1, 62, 0
3, 64288, Note_on_c, 1, 65, 0
3, 64288, Note_on_c, 1, 69, 0
3, 64320, Note_on_c, 1, 59, 110
3, 64320, Note_on_c, 1, 62, 110
3, 64320, Note_on_c, 1, 65, 110
3, 64320, Note_on_c, 1, 69, 110
3, 64480, Note_on_c, 1, 59, 0
3, 64480, Note_on_c, 1, 62, 0
3, 64480, Note_on_c, 1, 65, 0
3, 64480, Note_on_c, 1, 69, 0
3, 64512, Note_on_c, 1, 59, 110
3, 64512, Note_on_c, 1, 62, 110
3, 64512, Note_on_c, 1, 65, 110
3, 64512, Note_on_c, 1, 69, 110
3, 64672, Note_on_c, 1, 59, 0
3, 64672, Note_on_c, 1, 62, 0
3, 64672, Note_on_c, 1, 65, 0
3, 64672, Note_on_c, 1, 69, 0
3, 64704, Note_on_c, 1, 59, 110
3, 64704, Note_on_c, 1, 62, 110
3, 64704, Note_on_c, 1, 65, 110
3, 64704, Note_on_c, 1, 69, 110
3, 64864, Note_on_c, 1, 59, 0
3, 64864, Note_on_c, 1, 62, 0
3, 64864, Note_on_c, 1, 65, 0
3, 64864, Note_on_c, 1, 69, 0
3, 64896, Note_on_c, 1, 59, 110
3, 64896, Note_on_c, 1, 62, 110
3, 64896, Note_on_c, 1, 65, 110
3, 64896, Note_on_c, 1, 69, 110
3, 65056, Note_on_c, 1, 59, 0
3, 65056, Note_on_c, 1, 62, 0
3, 65056, Note_on_c, 1, 65, 0
3, 65056, Note_on_c, 1, 69, 0
3, 65088, Note_on_c, 1, 59, 110
3, 65088, Note_on_c, 1, 62, 110
3, 65088, Note_on_c, 1, 65, 110
3, 65088, Note_on_c, 1, 69, 110
3, 65248, Note_on_c, 1, 59, 0
3, 65248, Note_on_c, 1, 62, 0
3, 65248, Note_on_c, 1, 65, 0
3, 65248, Note_on_c, 1, 69, 0
3, 65280, Control_c, 1, 7, 83
3, 65280, Note_on_c, 1, 60, 110
3, 65302, Note_on_c, 1, 60, 0
3, 65304, Note_on_c, 1, 61, 110
3, 65304, Note_on_c, 1, 64, 110
3, 65304, Note_on_c, 1, 69, 110
3, 65470, Note_on_c, 1, 61, 0
3, 65470, Note_on_c, 1, 64, 0
3, 65470, Note_on_c, 1, 69, 0
3, 65472, Note_on_c, 1, 61, 110
3, 65472, Note_on_c, 1, 64, 110
3, 65472, Note_on_c, 1, 69, 110
3, 65632, Note_on_c, 1, 61, 0
3, 65632, Note_on_c, 1, 64, 0
3, 65632, Note_on_c, 1, 69, 0
3, 65664, Note_on_c, 1, 61, 110
3, 65664, Note_on_c, 1, 64, 110
3, 65664, Note_on_c, 1, 69, 110
3, 65824, Note_on_c, 1, 61, 0
3, 65824, Note_on_c, 1, 64, 0
3, 65824, Note_on_c, 1, 69, 0
3, 65856, Note_on_c, 1, 61, 110
3, 65856, Note_on_c, 1, 64, 110
3, 65856, Note_on_c, 1, 69, 110
3, 66016, Note_on_c, 1, 61, 0
3, 66016, Note_on_c, 1, 64, 0
3, 66016, Note_on_c, 1, 69, 0
3, 66048, Note_on_c, 1, 60, 110
3, 66048, Note_on_c, 1, 64, 110
3, 66048, Note_on_c, 1, 69, 110
3, 66208, Note_on_c, 1, 60, 0
3, 66208, Note_on_c, 1, 64, 0
3, 66208, Note_on_c, 1, 69, 0
3, 66240, Note_on_c, 1, 60, 110
3, 66240, Note_on_c, 1, 64, 110
3, 66240, Note_on_c, 1, 69, 110
3, 66400, Note_on_c, 1, 60, 0
3, 66400, Note_on_c, 1, 64, 0
3, 66400, Note_on_c, 1, 69, 0
3, 66432, Note_on_c, 1, 60, 110
3, 66432, Note_on_c, 1, 64, 110
3, 66432, Note_on_c, 1, 69, 110
3, 66592, Note_on_c, 1, 60, 0
3, 66592, Note_on_c, 1, 64, 0
3, 66592, Note_on_c, 1, 69, 0
3, 66624, Note_on_c, 1, 60, 110
3, 66624, Note_on_c, 1, 64, 110
3, 66624, Note_on_c, 1, 69, 110
3, 66784, Note_on_c, 1, 60, 0
3, 66784, Note_on_c, 1, 64, 0
3, 66784, Note_on_c, 1, 69, 0
3, 66816, Note_on_c, 1, 60, 110
3, 66838, Note_on_c, 1, 60, 0
3, 66840, Note_on_c, 1, 61, 110
3, 66840, Note_on_c, 1, 64, 110
3, 66840, Note_on_c, 1, 69, 110
3, 67006, Note_on_c, 1, 61, 0
3, 67006, Note_on_c, 1, 64, 0
3, 67006, Note_on_c, 1, 69, 0
3, 67008, Note_on_c, 1, 61, 110
3, 67008, Note_on_c, 1, 64, 110
3, 67008, Note_on_c, 1, 69, 110
3, 67168, Note_on_c, 1, 61, 0
3, 67168, Note_on_c, 1, 64, 0
3, 67168, Note_on_c, 1, 69, 0
3, 67200, Note_on_c, 1, 61, 110
3, 67200, Note_on_c, 1, 64, 110
3, 67200, Note_on_c, 1, 69, 110
3, 67360, Note_on_c, 1, 61, 0
3, 67360, Note_on_c, 1, 64, 0
3, 67360, Note_on_c, 1, 69, 0
3, 67392, Note_on_c, 1, 61, 110
3, 67392, Note_on_c, 1, 64, 110
3, 67392, Note_on_c, 1, 69, 110
3, 67552, Note_on_c, 1, 61, 0
3, 67552, Note_on_c, 1, 64, 0
3, 67552, Note_on_c, 1, 69, 0
3, 67584, Note_on_c, 1, 60, 110
3, 67584, Note_on_c, 1, 64, 110
3, 67584, Note_on_c, 1, 69, 110
3, 67744, Note_on_c, 1, 60, 0
3, 67744, Note_on_c, 1, 64, 0
3, 67744, Note_on_c, 1, 69, 0
3, 67776, Note_on_c, 1, 60, 110
3, 67776, Note_on_c, 1, 64, 110
3, 67776, Note_on_c, 1, 69, 110
3, 67936, Note_on_c, 1, 60, 0
3, 67936, Note_on_c, 1, 64, 0
3, 67936, Note_on_c, 1, 69, 0
3, 67968, Note_on_c, 1, 60, 110
3, 67968, Note_on_c, 1, 64, 110
3, 67968, Note_on_c, 1, 69, 110
3, 68128, Note_on_c, 1, 60, 0
3, 68128, Note_on_c, 1, 64, 0
3, 68128, Note_on_c, 1, 69, 0
3, 68160, Note_on_c, 1, 60, 110
3, 68160, Note_on_c, 1, 64, 110
3, 68160, Note_on_c, 1, 69, 110
3, 68320, Note_on_c, 1, 60, 0
3, 68320, Note_on_c, 1, 64, 0
3, 68320, Note_on_c, 1, 69, 0
3, 68352, Note_on_c, 1, 60, 110
3, 68374, Note_on_c, 1, 60, 0
3, 68376, Note_on_c, 1, 61, 110
3, 68376, Note_on_c, 1, 64, 110
3, 68376, Note_on_c, 1, 69, 110
3, 68542, Note_on_c, 1, 61, 0
3, 68542, Note_on_c, 1, 64, 0
3, 68542, Note_on_c, 1, 69, 0
3, 68544, Note_on_c, 1, 61, 110
3, 68544, Note_on_c, 1, 64, 110
3, 68544, Note_on_c, 1, 69, 110
3, 68704, Note_on_c, 1, 61, 0
3, 68704, Note_on_c, 1, 64, 0
3, 68704, Note_on_c, 1, 69, 0
3, 68736, Note_on_c, 1, 61, 110
3, 68736, Note_on_c, 1, 64, 110
3, 68736, Note_on_c, 1, 69, 110
3, 68896, Note_on_c, 1, 61, 0
3, 68896, Note_on_c, 1, 64, 0
3, 68896, Note_on_c, 1, 69, 0
3, 68928, Note_on_c, 1, 61, 110
3, 68928, Note_on_c, 1, 64, 110
3, 68928, Note_on_c, 1, 69, 110
3, 69088, Note_on_c, 1, 61, 0
3, 69088, Note_on_c, 1, 64, 0
3, 69088, Note_on_c, 1, 69, 0
3, 69120, Note_on_c, 1, 60, 110
3, 69120, Note_on_c, 1, 64, 110
3, 69120, Note_on_c, 1, 69, 110
3, 69280, Note_on_c, 1, 60, 0
3, 69280, Note_on_c, 1, 64, 0
3, 69280, Note_on_c, 1, 69, 0
3, 69312, Note_on_c, 1, 60, 110
3, 69312, Note_on_c, 1, 64, 110
3, 69312, Note_on_c, 1, 69, 110
3, 69472, Note_on_c, 1, 60, 0
3, 69472, Note_on_c, 1, 64, 0
3, 69472, Note_on_c, 1, 69, 0
3, 69504, Note_on_c, 1, 60, 110
3, 69504, Note_on_c, 1, 64, 110
3, 69504, Note_on_c, 1, 69, 110
3, 69664, Note_on_c, 1, 60, 0
3, 69664, Note_on_c, 1, 64, 0
3, 69664, Note_on_c, 1, 69, 0
3, 69696, Note_on_c, 1, 60, 110
3, 69696, Note_on_c, 1, 64, 110
3, 69696, Note_on_c, 1, 69, 110
3, 69856, Note_on_c, 1, 60, 0
3, 69856, Note_on_c, 1, 64, 0
3, 69856, Note_on_c, 1, 69, 0
3, 69888, Note_on_c, 1, 59, 110
3, 69888, Note_on_c, 1, 62, 110
3, 69888, Note_on_c, 1, 66, 110
3, 69888, Note_on_c, 1, 68, 110
3, 70048, Note_on_c, 1, 59, 0
3, 70048, Note_on_c, 1, 62, 0
3, 70048, Note_on_c, 1, 66, 0
3, 70048, Note_on_c, 1, 68, 0
3, 70080, Note_on_c, 1, 59, 110
3, 70080, Note_on_c, 1, 62, 110
3, 70080, Note_on_c, 1, 66, 110
3, 70080, Note_on_c, 1, 68, 110
3, 70240, Note_on_c, 1, 59, 0
3, 70240, Note_on_c, 1, 62, 0
3, 70240, Note_on_c, 1, 66, 0
3, 70240, Note_on_c, 1, 68, 0
3, 70272, Note_on_c, 1, 59, 110
3, 70272, Note_on_c, 1, 62, 110
3, 70272, Note_on_c, 1, 66, 110
3, 70272, Note_on_c, 1, 68, 110
3, 70432, Note_on_c, 1, 59, 0
3, 70432, Note_on_c, 1, 62, 0
3, 70432, Note_on_c, 1, 66, 0
3, 70432, Note_on_c, 1, 68, 0
3, 70464, Note_on_c, 1, 59, 110
3, 70464, Note_on_c, 1, 62, 110
3, 70464, Note_on_c, 1, 66, 110
3, 70464, Note_on_c, 1, 68, 110
3, 70624, Note_on_c, 1, 59, 0
3, 70624, Note_on_c, 1, 62, 0
3, 70624, Note_on_c, 1, 66, 0
3, 70624, Note_on_c, 1, 68, 0
3, 70656, Note_on_c, 1, 59, 110
3, 70656, Note_on_c, 1, 62, 110
3, 70656, Note_on_c, 1, 66, 110
3, 70656, Note_on_c, 1, 68, 110
3, 70816, Note_on_c, 1, 59, 0
3, 70816, Note_on_c, 1, 62, 0
3, 70816, Note_on_c, 1, 66, 0
3, 70816, Note_on_c, 1, 68, 0
3, 70848, Note_on_c, 1, 59, 110
3, 70848, Note_on_c, 1, 62, 110
3, 70848, Note_on_c, 1, 66, 110
3, 70848, Note_on_c, 1, 68, 110
3, 71008, Note_on_c, 1, 59, 0
3, 71008, Note_on_c, 1, 62, 0
3, 71008, Note_on_c, 1, 66, 0
3, 71008, Note_on_c, 1, 68, 0
3, 71040, Note_on_c, 1, 59, 110
3, 71040, Note_on_c, 1, 62, 110
3, 71040, Note_on_c, 1, 66, 110
3, 71040, Note_on_c, 1, 68, 110
3, 71200, Note_on_c, 1, 59, 0
3, 71200, Note_on_c, 1, 62, 0
3, 71200, Note_on_c, 1, 66, 0
3, 71200, Note_on_c, 1, 68, 0
3, 71232, Note_on_c, 1, 59, 110
3, 71232, Note_on_c, 1, 62, 110
3, 71232, Note_on_c, 1, 66, 110
3, 71232, Note_on_c, 1, 68, 110
3, 71392, Note_on_c, 1, 59, 0
3, 71392, Note_on_c, 1, 62, 0
3, 71392, Note_on_c, 1, 66, 0
3, 71392, Note_on_c, 1, 68, 0
3, 71424, Note_on_c, 1, 60, 110
3, 71446, Note_on_c, 1, 60, 0
3, 71448, Note_on_c, 1, 61, 110
3, 71448, Note_on_c, 1, 64, 110
3, 71448, Note_on_c, 1, 69, 110
3, 71614, Note_on_c, 1, 61, 0
3, 71614, Note_on_c, 1, 64, 0
3, 71614, Note_on_c, 1, 69, 0
3, 71616, Note_on_c, 1, 61, 110
3, 71616, Note_on_c, 1, 64, 110
3, 71616, Note_on_c, 1, 69, 110
3, 71776, Note_on_c, 1, 61, 0
3, 71776, Note_on_c, 1, 64, 0
3, 71776, Note_on_c, 1, 69, 0
3, 71808, Note_on_c, 1, 61, 110
3, 71808, Note_on_c, 1, 64, 110
3, 71808, Note_on_c, 1, 69, 110
3, 71968, Note_on_c, 1, 61, 0
3, 71968, Note_on_c, 1, 64, 0
3, 71968, Note_on_c, 1, 69, 0
3, 72000, Note_on_c, 1, 61, 110
3, 72000, Note_on_c, 1, 64, 110
3, 72000, Note_on_c, 1, 69, 110
3, 72160, Note_on_c, 1, 61, 0
3, 72160, Note_on_c, 1, 64, 0
3, 72160, Note_on_c, 1, 69, 0
3, 72192, Note_on_c, 1, 60, 110
3, 72192, Note_on_c, 1, 64, 110
3, 72192, Note_on_c, 1, 69, 110
3, 72352, Note_on_c, 1, 60, 0
3, 72352, Note_on_c, 1, 64, 0
3, 72352, Note_on_c, 1, 69, 0
3, 72384, Note_on_c, 1, 60, 110
3, 72384, Note_on_c, 1, 64, 110
3, 72384, Note_on_c, 1, 69, 110
3, 72544, Note_on_c, 1, 60, 0
3, 72544, Note_on_c, 1, 64, 0
3, 72544, Note_on_c, 1, 69, 0
3, 72576, Note_on_c, 1, 60, 110
3, 72576, Note_on_c, 1, 64, 110
3, 72576, Note_on_c, 1, 69, 110
3, 72736, Note_on_c, 1, 60, 0
3, 72736, Note_on_c, 1, 64, 0
3, 72736, Note_on_c, 1, 69, 0
3, 72768, Note_on_c, 1, 60, 110
3, 72768, Note_on_c, 1, 64, 110
3, 72768, Note_on_c, 1, 69, 110
3, 72928, Note_on_c, 1, 60, 0
3, 72928, Note_on_c, 1, 64, 0
3, 72928, Note_on_c, 1, 69, 0
3, 72960, Note_on_c, 1, 60, 110
3, 72982, Note_on_c, 1, 60, 0
3, 72984, Note_on_c, 1, 61, 110
3, 72984, Note_on_c, 1, 64, 110
3, 72984, Note_on_c, 1, 69, 110
3, 73150, Note_on_c, 1, 61, 0
3, 73150, Note_on_c, 1, 64, 0
3, 73150, Note_on_c, 1, 69, 0
3, 73152, Note_on_c, 1, 61, 110
3, 73152, Note_on_c, 1, 64, 110
3, 73152, Note_on_c, 1, 69, 110
3, 73312, Note_on_c, 1, 61, 0
3, 73312, Note_on_c, 1, 64, 0
3, 73312, Note_on_c, 1, 69, 0
3, 73344, Note_on_c, 1, 61, 110
3, 73344, Note_on_c, 1, 64, 110
3, 73344, Note_on_c, 1, 69, 110
3, 73504, Note_on_c, 1, 61, 0
3, 73504, Note_on_c, 1, 64, 0
3, 73504, Note_on_c, 1, 69, 0
3, 73536, Note_on_c, 1, 61, 110
3, 73536, Note_on_c, 1, 64, 110
3, 73536, Note_on_c, 1, 69, 110
3, 73696, Note_on_c, 1, 61, 0
3, 73696, Note_on_c, 1, 64, 0
3, 73696, Note_on_c, 1, 69, 0
3, 73728, Note_on_c, 1, 60, 110
3, 73728, Note_on_c, 1, 64, 110
3, 73728, Note_on_c, 1, 69, 110
3, 73888, Note_on_c, 1, 60, 0
3, 73888, Note_on_c, 1, 64, 0
3, 73888, Note_on_c, 1, 69, 0
3, 73920, Note_on_c, 1, 60, 110
3, 73920, Note_on_c, 1, 64, 110
3, 73920, Note_on_c, 1, 69, 110
3, 74080, Note_on_c, 1, 60, 0
3, 74080, Note_on_c, 1, 64, 0
3, 74080, Note_on_c, 1, 69, 0
3, 74112, Note_on_c, 1, 60, 110
3, 74112, Note_on_c, 1, 64, 110
3, 74112, Note_on_c, 1, 69, 110
3, 74272, Note_on_c, 1, 60, 0
3, 74272, Note_on_c, 1, 64, 0
3, 74272, Note_on_c, 1, 69, 0
3, 74304, Note_on_c, 1, 60, 110
3, 74304, Note_on_c, 1, 64, 110
3, 74304, Note_on_c, 1, 69, 110
3, 74464, Note_on_c, 1, 60, 0
3, 74464, Note_on_c, 1, 64, 0
3, 74464, Note_on_c, 1, 69, 0
3, 74496, Note_on_c, 1, 60, 110
3, 74518, Note_on_c, 1, 60, 0
3, 74520, Note_on_c, 1, 61, 110
3, 74520, Note_on_c, 1, 64, 110
3, 74520, Note_on_c, 1, 69, 110
3, 74686, Note_on_c, 1, 61, 0
3, 74686, Note_on_c, 1, 64, 0
3, 74686, Note_on_c, 1, 69, 0
3, 74688, Note_on_c, 1, 61, 110
3, 74688, Note_on_c, 1, 64, 110
3, 74688, Note_on_c, 1, 69, 110
3, 74848, Note_on_c, 1, 61, 0
3, 74848, Note_on_c, 1, 64, 0
3, 74848, Note_on_c, 1, 69, 0
3, 74880, Note_on_c, 1, 61, 110
3, 74880, Note_on_c, 1, 64, 110
3, 74880, Note_on_c, 1, 69, 110
3, 75040, Note_on_c, 1, 61, 0
3, 75040, Note_on_c, 1, 64, 0
3, 75040, Note_on_c, 1, 69, 0
3, 75072, Note_on_c, 1, 61, 110
3, 75072, Note_on_c, 1, 64, 110
3, 75072, Note_on_c, 1, 69, 110
3, 75232, Note_on_c, 1, 61, 0
3, 75232, Note_on_c, 1, 64, 0
3, 75232, Note_on_c, 1, 69, 0
3, 75264, Note_on_c, 1, 59, 110
3, 75264, Note_on_c, 1, 62, 110
3, 75264, Note_on_c, 1, 66, 110
3, 75264, Note_on_c, 1, 68, 110
3, 75424, Note_on_c, 1, 59, 0
3, 75424, Note_on_c, 1, 62, 0
3, 75424, Note_on_c, 1, 66, 0
3, 75424, Note_on_c, 1, 68, 0
3, 75456, Note_on_c, 1, 59, 110
3, 75456, Note_on_c, 1, 62, 110
3, 75456, Note_on_c, 1, 66, 110
3, 75456, Note_on_c, 1, 68, 110
3, 75616, Note_on_c, 1, 59, 0
3, 75616, Note_on_c, 1, 62, 0
3, 75616, Note_on_c, 1, 66, 0
3, 75616, Note_on_c, 1, 68, 0
3, 75648, Note_on_c, 1, 59, 110
3, 75648, Note_on_c, 1, 62, 110
3, 75648, Note_on_c, 1, 66, 110
3, 75648, Note_on_c, 1, 68, 110
3, 75808, Note_on_c, 1, 59, 0
3, 75808, Note_on_c, 1, 62, 0
3, 75808, Note_on_c, 1, 66, 0
3, 75808, Note_on_c, 1, 68, 0
3, 75840, Note_on_c, 1, 59, 110
3, 75840, Note_on_c, 1, 62, 110
3, 75840, Note_on_c, 1, 66, 110
3, 75840, Note_on_c, 1, 68, 110
3, 76000, Note_on_c, 1, 59, 0
3, 76000, Note_on_c, 1, 62, 0
3, 76000, Note_on_c, 1, 66, 0
3, 76000, Note_on_c, 1, 68, 0
3, 76032, Note_on_c, 1, 57, 110
3, 76032, Note_on_c, 1, 62, 110
3, 76032, Note_on_c, 1, 64, 110
3, 76032, Note_on_c, 1, 67, 110
3, 76192, Note_on_c, 1, 57, 0
3, 76192, Note_on_c, 1, 62, 0
3, 76192, Note_on_c, 1, 64, 0
3, 76192, Note_on_c, 1, 67, 0
3, 76224, Note_on_c, 1, 57, 110
3, 76224, Note_on_c, 1, 62, 110
3, 76224, Note_on_c, 1, 64, 110
3, 76224, Note_on_c, 1, 67, 110
3, 76384, Note_on_c, 1, 57, 0
3, 76384, Note_on_c, 1, 62, 0
3, 76384, Note_on_c, 1, 64, 0
3, 76384, Note_on_c, 1, 67, 0
3, 76416, Note_on_c, 1, 57, 110
3, 76416, Note_on_c, 1, 62, 110
3, 76416, Note_on_c, 1, 64, 110
3, 76416, Note_on_c, 1, 67, 110
3, 76576, Note_on_c, 1, 57, 0
3, 76576, Note_on_c, 1, 62, 0
3, 76576, Note_on_c, 1, 64, 0
3, 76576, Note_on_c, 1, 67, 0
3, 76608, Note_on_c, 1, 57, 110
3, 76608, Note_on_c, 1, 62, 110
3, 76608, Note_on_c, 1, 64, 110
3, 76608, Note_on_c, 1, 67, 110
3, 76768, Note_on_c, 1, 57, 0
3, 76768, Note_on_c, 1, 62, 0
3, 76768, Note_on_c, 1, 64, 0
3, 76768, Note_on_c, 1, 67, 0
3, 76800, Note_on_c, 1, 57, 110
3, 76800, Note_on_c, 1, 62, 110
3, 76800, Note_on_c, 1, 64, 110
3, 76800, Note_on_c, 1, 67, 110
3, 76960, Note_on_c, 1, 57, 0
3, 76960, Note_on_c, 1, 62, 0
3, 76960, Note_on_c, 1, 64, 0
3, 76960, Note_on_c, 1, 67, 0
3, 76992, Note_on_c, 1, 57, 110
3, 76992, Note_on_c, 1, 62, 110
3, 76992, Note_on_c, 1, 64, 110
3, 76992, Note_on_c, 1, 67, 110
3, 77152, Note_on_c, 1, 57, 0
3, 77152, Note_on_c, 1, 62, 0
3, 77152, Note_on_c, 1, 64, 0
3, 77152, Note_on_c, 1, 67, 0
3, 77184, Note_on_c, 1, 57, 110
3, 77184, Note_on_c, 1, 62, 110
3, 77184, Note_on_c, 1, 64, 110
3, 77184, Note_on_c, 1, 67, 110
3, 77344, Note_on_c, 1, 57, 0
3, 77344, Note_on_c, 1, 62, 0
3, 77344, Note_on_c, 1, 64, 0
3, 77344, Note_on_c, 1, 67, 0
3, 77376, Note_on_c, 1, 57, 110
3, 77376, Note_on_c, 1, 62, 110
3, 77376, Note_on_c, 1, 64, 110
3, 77376, Note_on_c, 1, 67, 110
3, 77536, Note_on_c, 1, 57, 0
3, 77536, Note_on_c, 1, 62, 0
3, 77536, Note_on_c, 1, 64, 0
3, 77536, Note_on_c, 1, 67, 0
3, 77568, Note_on_c, 1, 59, 110
3, 77568, Note_on_c, 1, 62, 110
3, 77568, Note_on_c, 1, 67, 110
3, 77728, Note_on_c, 1, 59, 0
3, 77728, Note_on_c, 1, 62, 0
3, 77728, Note_on_c, 1, 67, 0
3, 77760, Note_on_c, 1, 59, 110
3, 77760, Note_on_c, 1, 62, 110
3, 77760, Note_on_c, 1, 67, 110
3, 77920, Note_on_c, 1, 59, 0
3, 77920, Note_on_c, 1, 62, 0
3, 77920, Note_on_c, 1, 67, 0
3, 77952, Note_on_c, 1, 59, 110
3, 77952, Note_on_c, 1, 62, 110
3, 77952, Note_on_c, 1, 67, 110
3, 78112, Note_on_c, 1, 59, 0
3, 78112, Note_on_c, 1, 62, 0
3, 78112, Note_on_c, 1, 67, 0
3, 78144, Note_on_c, 1, 59, 110
3, 78144, Note_on_c, 1, 62, 110
3, 78144, Note_on_c, 1, 67, 110
3, 78304, Note_on_c, 1, 59, 0
3, 78304, Note_on_c, 1, 62, 0
3, 78304, Note_on_c, 1, 67, 0
3, 78336, Note_on_c, 1, 57, 110
3, 78336, Note_on_c, 1, 62, 110
3, 78336, Note_on_c, 1, 66, 110
3, 78496, Note_on_c, 1, 57, 0
3, 78496, Note_on_c, 1, 62, 0
3, 78496, Note_on_c, 1, 66, 0
3, 78528, Note_on_c, 1, 57, 110
3, 78528, Note_on_c, 1, 62, 110
3, 78528, Note_on_c, 1, 66, 110
3, 78688, Note_on_c, 1, 57, 0
3, 78688, Note_on_c, 1, 62, 0
3, 78688, Note_on_c, 1, 66, 0
3, 78720, Note_on_c, 1, 57, 110
3, 78720, Note_on_c, 1, 62, 110
3, 78720, Note_on_c, 1, 66, 110
3, 78880, Note_on_c, 1, 57, 0
3, 78880, Note_on_c, 1, 62, 0
3, 78880, Note_on_c, 1, 66, 0
3, 78912, Note_on_c, 1, 57, 110
3, 78912, Note_on_c, 1, 62, 110
3, 78912, Note_on_c, 1, 66, 110
3, 79072, Note_on_c, 1, 57, 0
3, 79072, Note_on_c, 1, 62, 0
3, 79072, Note_on_c, 1, 66, 0
3, 79104, Note_on_c, 1, 61, 110
3, 79104, Note_on_c, 1, 64, 110
3, 79104, Note_on_c, 1, 69, 110
3, 79264, Note_on_c, 1, 61, 0
3, 79264, Note_on_c, 1, 64, 0
3, 79264, Note_on_c, 1, 69, 0
3, 79296, Note_on_c, 1, 61, 110
3, 79296, Note_on_c, 1, 64, 110
3, 79296, Note_on_c, 1, 69, 110
3, 79456, Note_on_c, 1, 61, 0
3, 79456, Note_on_c, 1, 64, 0
3, 79456, Note_on_c, 1, 69, 0
3, 79488, Note_on_c, 1, 61, 110
3, 79488, Note_on_c, 1, 64, 110
3, 79488, Note_on_c, 1, 69, 110
3, 79648, Note_on_c, 1, 61, 0
3, 79648, Note_on_c, 1, 64, 0
3, 79648, Note_on_c, 1, 69, 0
3, 79680, Note_on_c, 1, 61, 110
3, 79680, Note_on_c, 1, 64, 110
3, 79680, Note_on_c, 1, 69, 110
3, 79840, Note_on_c, 1, 61, 0
3, 79840, Note_on_c, 1, 64, 0
3, 79840, Note_on_c, 1, 69, 0
3, 79872, Note_on_c, 1, 61, 110
3, 79872, Note_on_c, 1, 64, 110
3, 79872, Note_on_c, 1, 69, 110
3, 80032, Note_on_c, 1, 61, 0
3, 80032, Note_on_c, 1, 64, 0
3, 80032, Note_on_c, 1, 69, 0
3, 80064, Note_on_c, 1, 61, 110
3, 80064, Note_on_c, 1, 64, 110
3, 80064, Note_on_c, 1, 69, 110
3, 80224, Note_on_c, 1, 61, 0
3, 80224, Note_on_c, 1, 64, 0
3, 80224, Note_on_c, 1, 69, 0
3, 80256, Note_on_c, 1, 61, 110
3, 80256, Note_on_c, 1, 64, 110
3, 80256, Note_on_c, 1, 69, 110
3, 80416, Note_on_c, 1, 61, 0
3, 80416, Note_on_c, 1, 64, 0
3, 80416, Note_on_c, 1, 69, 0
3, 80448, Note_on_c, 1, 61, 110
3, 80448, Note_on_c, 1, 64, 110
3, 80448, Note_on_c, 1, 69, 110
3, 80608, Note_on_c, 1, 61, 0
3, 80608, Note_on_c, 1, 64, 0
3, 80608, Note_on_c, 1, 69, 0
3, 80640, Note_on_c, 1, 59, 110
3, 80640, Note_on_c, 1, 62, 110
3, 80640, Note_on_c, 1, 67, 110
3, 80800, Note_on_c, 1, 59, 0
3, 80800, Note_on_c, 1, 62, 0
3, 80800, Note_on_c, 1, 67, 0
3, 80832, Note_on_c, 1, 59, 110
3, 80832, Note_on_c, 1, 62, 110
3, 80832, Note_on_c, 1, 67, 110
3, 80992, Note_on_c, 1, 59, 0
3, 80992, Note_on_c, 1, 62, 0
3, 80992, Note_on_c, 1, 67, 0
3, 81024, Note_on_c, 1, 59, 110
3, 81024, Note_on_c, 1, 62, 110
3, 81024, Note_on_c, 1, 67, 110
3, 81184, Note_on_c, 1, 59, 0
3, 81184, Note_on_c, 1, 62, 0
3, 81184, Note_on_c, 1, 67, 0
3, 81216, Note_on_c, 1, 59, 110
3, 81216, Note_on_c, 1, 62, 110
3, 81216, Note_on_c, 1, 67, 110
3, 81376, Note_on_c, 1, 59, 0
3, 81376, Note_on_c, 1, 62, 0
3, 81376, Note_on_c, 1, 67, 0
3, 81408, Note_on_c, 1, 57, 110
3, 81408, Note_on_c, 1, 62, 110
3, 81408, Note_on_c, 1, 66, 110
3, 81568, Note_on_c, 1, 57, 0
3, 81568, Note_on_c, 1, 62, 0
3, 81568, Note_on_c, 1, 66, 0
3, 81600, Note_on_c, 1, 57, 110
3, 81600, Note_on_c, 1, 62, 110
3, 81600, Note_on_c, 1, 66, 110
3, 81760, Note_on_c, 1, 57, 0
3, 81760, Note_on_c, 1, 62, 0
3, 81760, Note_on_c, 1, 66, 0
3, 81792, Note_on_c, 1, 57, 110
3, 81792, Note_on_c, 1, 62, 110
3, 81792, Note_on_c, 1, 66, 110
3, 81952, Note_on_c, 1, 57, 0
3, 81952, Note_on_c, 1, 62, 0
3, 81952, Note_on_c, 1, 66, 0
3, 81984, Note_on_c, 1, 57, 110
3, 81984, Note_on_c, 1, 62, 110
3, 81984, Note_on_c, 1, 66, 110
3, 82144, Note_on_c, 1, 57, 0
3, 82144, Note_on_c, 1, 62, 0
3, 82144, Note_on_c, 1, 66, 0
3, 82176, Note_on_c, 1, 61, 110
3, 82176, Note_on_c, 1, 64, 110
3, 82176, Note_on_c, 1, 69, 110
3, 82336, Note_on_c, 1, 61, 0
3, 82336, Note_on_c, 1, 64, 0
3, 82336, Note_on_c, 1, 69, 0
3, 82368, Note_on_c, 1, 61, 110
3, 82368, Note_on_c, 1, 64, 110
3, 82368, Note_on_c, 1, 69, 110
3, 82528, Note_on_c, 1, 61, 0
3, 82528, Note_on_c, 1, 64, 0
3, 82528, Note_on_c, 1, 69, 0
3, 82560, Note_on_c, 1, 61, 110
3, 82560, Note_on_c, 1, 64, 110
3, 82560, Note_on_c, 1, 69, 110
3, 82720, Note_on_c, 1, 61, 0
3, 82720, Note_on_c, 1, 64, 0
3, 82720, Note_on_c, 1, 69, 0
3, 82752, Note_on_c, 1, 61, 110
3, 82752, Note_on_c, 1, 64, 110
3, 82752, Note_on_c, 1, 69, 110
3, 82912, Note_on_c, 1, 61, 0
3, 82912, Note_on_c, 1, 64, 0
3, 82912, Note_on_c, 1, 69, 0
3, 82944, Note_on_c, 1, 61, 110
3, 82944, Note_on_c, 1, 64, 110
3, 82944, Note_on_c, 1, 69, 110
3, 83104, Note_on_c, 1, 61, 0
3, 83104, Note_on_c, 1, 64, 0
3, 83104, Note_on_c, 1, 69, 0
3, 83136, Note_on_c, 1, 61, 110
3, 83136, Note_on_c, 1, 64, 110
3, 83136, Note_on_c, 1, 69, 110
3, 83296, Note_on_c, 1, 61, 0
3, 83296, Note_on_c, 1, 64, 0
3, 83296, Note_on_c, 1, 69, 0
3, 83328, Note_on_c, 1, 61, 110
3, 83328, Note_on_c, 1, 64, 110
3, 83328, Note_on_c, 1, 69, 110
3, 83488, Note_on_c, 1, 61, 0
3, 83488, Note_on_c, 1, 64, 0
3, 83488, Note_on_c, 1, 69, 0
3, 83520, Note_on_c, 1, 61, 110
3, 83520, Note_on_c, 1, 64, 110
3, 83520, Note_on_c, 1, 69, 110
3, 83680, Note_on_c, 1, 61, 0
3, 83680, Note_on_c, 1, 64, 0
3, 83680, Note_on_c, 1, 69, 0
3, 83712, Note_on_c, 1, 59, 110
3, 83712, Note_on_c, 1, 62, 110
3, 83712, Note_on_c, 1, 67, 110
3, 83872, Note_on_c, 1, 59, 0
3, 83872, Note_on_c, 1, 62, 0
3, 83872, Note_on_c, 1, 67, 0
3, 83904, Note_on_c, 1, 59, 110
3, 83904, Note_on_c, 1, 62, 110
3, 83904, Note_on_c, 1, 67, 110
3, 84064, Note_on_c, 1, 59, 0
3, 84064, Note_on_c, 1, 62, 0
3, 84064, Note_on_c, 1, 67, 0
3, 84096, Note_on_c, 1, 59, 110
3, 84096, Note_on_c, 1, 62, 110
3, 84096, Note_on_c, 1, 67, 110
3, 84256, Note_on_c, 1, 59, 0
3, 84256, Note_on_c, 1, 62, 0
3, 84256, Note_on_c, 1, 67, 0
3, 84288, Note_on_c, 1, 59, 110
3, 84288, Note_on_c, 1, 62, 110
3, 84288, Note_on_c, 1, 67, 110
3, 84448, Note_on_c, 1, 59, 0
3, 84448, Note_on_c, 1, 62, 0
3, 84448, Note_on_c, 1, 67, 0
3, 84480, Note_on_c, 1, 57, 110
3, 84480, Note_on_c, 1, 62, 110
3, 84480, Note_on_c, 1, 66, 110
3, 84640, Note_on_c, 1, 57, 0
3, 84640, Note_on_c, 1, 62, 0
3, 84640, Note_on_c, 1, 66, 0
3, 84672, Note_on_c, 1, 57, 110
3, 84672, Note_on_c, 1, 62, 110
3, 84672, Note_on_c, 1, 66, 110
3, 84832, Note_on_c, 1, 57, 0
3, 84832, Note_on_c, 1, 62, 0
3, 84832, Note_on_c, 1, 66, 0
3, 84864, Note_on_c, 1, 57, 110
3, 84864, Note_on_c, 1, 62, 110
3, 84864, Note_on_c, 1, 66, 110
3, 85024, Note_on_c, 1, 57, 0
3, 85024, Note_on_c, 1, 62, 0
3, 85024, Note_on_c, 1, 66, 0
3, 85056, Note_on_c, 1, 57, 110
3, 85056, Note_on_c, 1, 62, 110
3, 85056, Note_on_c, 1, 66, 110
3, 85216, Note_on_c, 1, 57, 0
3, 85216, Note_on_c, 1, 62, 0
3, 85216, Note_on_c, 1, 66, 0
3, 85248, Note_on_c, 1, 61, 110
3, 85248, Note_on_c, 1, 64, 110
3, 85248, Note_on_c, 1, 69, 110
3, 85408, Note_on_c, 1, 61, 0
3, 85408, Note_on_c, 1, 64, 0
3, 85408, Note_on_c, 1, 69, 0
3, 85440, Note_on_c, 1, 60, 110
3, 85440, Note_on_c, 1, 63, 110
3, 85440, Note_on_c, 1, 68, 110
3, 85534, Note_on_c, 1, 60, 0
3, 85534, Note_on_c, 1, 63, 0
3, 85534, Note_on_c, 1, 68, 0
3, 85536, Note_on_c, 1, 61, 110
3, 85536, Note_on_c, 1, 64, 110
3, 85536, Note_on_c, 1, 69, 110
3, 85630, Note_on_c, 1, 61, 0
3, 85630, Note_on_c, 1, 64, 0
3, 85630, Note_on_c, 1, 69, 0
3, 85824, Note_on_c, 1, 63, 110
3, 85824, Note_on_c, 1, 68, 110
3, 85824, Note_on_c, 1, 72, 110
3, 85918, Note_on_c, 1, 63, 0
3, 85918, Note_on_c, 1, 68, 0
3, 85918, Note_on_c, 1, 72, 0
3, 85920, Note_on_c, 1, 64, 110
3, 85920, Note_on_c, 1, 69, 110
3, 85920, Note_on_c, 1, 73, 110
3, 86014, Note_on_c, 1, 64, 0
3, 86014, Note_on_c, 1, 69, 0
3, 86014, Note_on_c, 1, 73, 0
3, 86208, Note_on_c, 1, 61, 110
3, 86208, Note_on_c, 1, 64, 110
3, 86208, Note_on_c, 1, 69, 110
3, 86302, Note_on_c, 1, 61, 0
3, 86302, Note_on_c, 1, 64, 0
3, 86302, Note_on_c, 1, 69, 0
3, 86304, Note_on_c, 1, 64, 110
3, 86304, Note_on_c, 1, 69, 110
3, 86304, Note_on_c, 1, 73, 110
3, 86736, Note_on_c, 1, 64, 0
3, 86736, Note_on_c, 1, 69, 0
3, 86736, Note_on_c, 1, 73, 0
3, 86784, Program_c, 1, 19
3, 86784, Note_on_c, 1, 62, 110
3, 86784, Note_on_c, 1, 68, 110
3, 86784, Note_on_c, 1, 71, 110
3, 87168, Note_on_c, 1, 66, 110
3, 87504, Note_on_c, 1, 66, 0
3, 88272, Note_on_c, 1, 62, 0
3, 88272, Note_on_c, 1, 68, 0
3, 88272, Note_on_c, 1, 71, 0
3, 88320, Note_on_c, 1, 62, 110
3, 88320, Note_on_c, 1, 66, 110
3, 88320, Note_on_c, 1, 69, 110
3, 89808, Note_on_c, 1, 62, 0
3, 89808, Note_on_c, 1, 66, 0
3, 89808, Note_on_c, 1, 69, 0
3, 89856, Note_on_c, 1, 59, 110
3, 89856, Note_on_c, 1, 62, 110
3, 89856, Note_on_c, 1, 66, 110
3, 89856, Note_on_c, 1, 69, 110
3, 90960, Note_on_c, 1, 59, 0
3, 90960, Note_on_c, 1, 62, 0
3, 90960, Note_on_c, 1, 66, 0
3, 90960, Note_on_c, 1, 69, 0
3, 91008, Note_on_c, 1, 61, 110
3, 91008, Note_on_c, 1, 64, 110
3, 91008, Note_on_c, 1, 69, 110
3, 91344, Note_on_c, 1, 61, 0
3, 91344, Note_on_c, 1, 64, 0
3, 91344, Note_on_c, 1, 69, 0
3, 91392, Note_on_c, 1, 57, 110
3, 91392, Note_on_c, 1, 62, 110
3, 91392, Note_on_c, 1, 66, 110
3, 92112, Note_on_c, 1, 57, 0
3, 92112, Note_on_c, 1, 62, 0
3, 92112, Note_on_c, 1, 66, 0
3, 92160, Note_on_c, 1, 62, 110
3, 92160, Note_on_c, 1, 67, 110
3, 92160, Note_on_c, 1, 71, 110
3, 92880, Note_on_c, 1, 62, 0
3, 92880, Note_on_c, 1, 67, 0
3, 92880, Note_on_c, 1, 71, 0
3, 92928, Note_on_c, 1, 61, 110
3, 92928, Note_on_c, 1, 64, 110
3, 92928, Note_on_c, 1, 69, 110
3, 93648, Note_on_c, 1, 61, 0
3, 93648, Note_on_c, 1, 64, 0
3, 93648, Note_on_c, 1, 69, 0
3, 93696, Note_on_c, 1, 59, 110
3, 93696, Note_on_c, 1, 62, 110
3, 93696, Note_on_c, 1, 66, 110
3, 94032, Note_on_c, 1, 59, 0
3, 94032, Note_on_c, 1, 62, 0
3, 94032, Note_on_c, 1, 66, 0
3, 94080, Note_on_c, 1, 61, 110
3, 94080, Note_on_c, 1, 64, 110
3, 94080, Note_on_c, 1, 69, 110
3, 95184, Note_on_c, 1, 61, 0
3, 95184, Note_on_c, 1, 64, 0
3, 95184, Note_on_c, 1, 69, 0
3, 95232, Note_on_c, 1, 62, 110
3, 95232, Note_on_c, 1, 66, 110
3, 95232, Note_on_c, 1, 69, 110
3, 95952, Note_on_c, 1, 62, 0
3, 95952, Note_on_c, 1, 66, 0
3, 95952, Note_on_c, 1, 69, 0
3, 96000, Note_on_c, 1, 62, 110
3, 96000, Note_on_c, 1, 67, 110
3, 96000, Note_on_c, 1, 71, 110
3, 97104, Note_on_c, 1, 62, 0
3, 97104, Note_on_c, 1, 68, 0
3, 97104, Note_on_c, 1, 71, 0
3, 97152, Note_on_c, 1, 62, 110
3, 97152, Note_on_c, 1, 66, 110
3, 97152, Note_on_c, 1, 69, 110
3, 97488, Note_on_c, 1, 62, 0
3, 97488, Note_on_c, 1, 66, 0
3, 97488, Note_on_c, 1, 69, 0
3, 97536, Note_on_c, 1, 64, 110
3, 97536, Note_on_c, 1, 67, 110
3, 97536, Note_on_c, 1, 71, 110
3, 99024, Note_on_c, 1, 64, 0
3, 99024, Note_on_c, 1, 68, 0
3, 99024, Note_on_c, 1, 71, 0
3, 99072, Note_on_c, 1, 62, 110
3, 99072, Note_on_c, 1, 67, 110
3, 99072, Note_on_c, 1, 71, 110
3, 99072, Note_on_c, 1, 74, 110
3, 99712, Note_on_c, 1, 62, 0
3, 99712, Note_on_c, 1, 67, 0
3, 99712, Note_on_c, 1, 71, 0
3, 99712, Note_on_c, 1, 74, 0
3, 99744, Note_on_c, 1, 62, 110
3, 99744, Note_on_c, 1, 66, 110
3, 99744, Note_on_c, 1, 69, 110
3, 99744, Note_on_c, 1, 74, 110
3, 100384, Note_on_c, 1, 62, 0
3, 100384, Note_on_c, 1, 66, 0
3, 100384, Note_on_c, 1, 69, 0
3, 100384, Note_on_c, 1, 74, 0
3, 100416, Note_on_c, 1, 64, 110
3, 100416, Note_on_c, 1, 69, 110
3, 100416, Note_on_c, 1, 73, 110
3, 101056, Note_on_c, 1, 64, 0
3, 101056, Note_on_c, 1, 69, 0
3, 101056, Note_on_c, 1, 73, 0
3, 101088, Note_on_c, 1, 66, 110
3, 101088, Note_on_c, 1, 69, 110
3, 101088, Note_on_c, 1, 74, 110
3, 101728, Note_on_c, 1, 66, 0
3, 101728, Note_on_c, 1, 69, 0
3, 101728, Note_on_c, 1, 74, 0
3, 101760, Note_on_c, 1, 62, 110
3, 101760, Note_on_c, 1, 67, 110
3, 101760, Note_on_c, 1, 71, 110
3, 101760, Note_on_c, 1, 74, 110
3, 102400, Note_on_c, 1, 62, 0
3, 102400, Note_on_c, 1, 67, 0
3, 102400, Note_on_c, 1, 71, 0
3, 102400, Note_on_c, 1, 74, 0
3, 102432, Note_on_c, 1, 62, 110
3, 102432, Note_on_c, 1, 66, 110
3, 102432, Note_on_c, 1, 69, 110
3, 102432, Note_on_c, 1, 74, 110
3, 103072, Note_on_c, 1, 62, 0
3, 103072, Note_on_c, 1, 66, 0
3, 103072, Note_on_c, 1, 69, 0
3, 103072, Note_on_c, 1, 74, 0
3, 103104, Note_on_c, 1, 64, 110
3, 103104, Note_on_c, 1, 69, 110
3, 103104, Note_on_c, 1, 73, 110
3, 103744, Note_on_c, 1, 64, 0
3, 103744, Note_on_c, 1, 69, 0
3, 103744, Note_on_c, 1, 73, 0
3, 103776, Note_on_c, 1, 66, 110
3, 103776, Note_on_c, 1, 69, 110
3, 103776, Note_on_c, 1, 74, 110
3, 104416, Note_on_c, 1, 66, 0
3, 104416, Note_on_c, 1, 69, 0
3, 104416, Note_on_c, 1, 74, 0
3, 104448, Note_on_c, 1, 62, 110
3, 104448, Note_on_c, 1, 67, 110
3, 104448, Note_on_c, 1, 71, 110
3, 104448, Note_on_c, 1, 74, 110
3, 105088, Note_on_c, 1, 62, 0
3, 105088, Note_on_c, 1, 67, 0
3, 105088, Note_on_c, 1, 71, 0
3, 105088, Note_on_c, 1, 74, 0
3, 105120, Note_on_c, 1, 62, 110
3, 105120, Note_on_c, 1, 66, 110
3, 105120, Note_on_c, 1, 69, 110
3, 105120, Note_on_c, 1, 74, 110
3, 105760, Note_on_c, 1, 62, 0
3, 105760, Note_on_c, 1, 66, 0
3, 105760, Note_on_c, 1, 69, 0
3, 105760, Note_on_c, 1, 74, 0
3, 105792, Note_on_c, 1, 64, 110
3, 105792, Note_on_c, 1, 69, 110
3, 105792, Note_on_c, 1, 73, 110
3, 106432, Note_on_c, 1, 64, 0
3, 106432, Note_on_c, 1, 69, 0
3, 106432, Note_on_c, 1, 73, 0
3, 106464, Note_on_c, 1, 66, 110
3, 106464, Note_on_c, 1, 69, 110
3, 106464, Note_on_c, 1, 74, 110
3, 107104, Note_on_c, 1, 66, 0
3, 107104, Note_on_c, 1, 69, 0
3, 107104, Note_on_c, 1, 74, 0
3, 107136, Note_on_c, 1, 62, 110
3, 107136, Note_on_c, 1, 67, 110
3, 107136, Note_on_c, 1, 71, 110
3, 107136, Note_on_c, 1, 74, 110
3, 107776, Note_on_c, 1, 62, 0
3, 107776, Note_on_c, 1, 67, 0
3, 107776, Note_on_c, 1, 71, 0
3, 107776, Note_on_c, 1, 74, 0
3, 107808, Note_on_c, 1, 62, 110
3, 107808, Note_on_c, 1, 66, 110
3, 107808, Note_on_c, 1, 69, 110
3, 107808, Note_on_c, 1, 74, 110
3, 108448, Note_on_c, 1, 62, 0
3, 108448, Note_on_c, 1, 66, 0
3, 108448, Note_on_c, 1, 69, 0
3, 108448, Note_on_c, 1, 74, 0
3, 108480, Note_on_c, 1, 64, 110
3, 108480, Note_on_c, 1, 69, 110
3, 108480, Note_on_c, 1, 73, 110
3, 109120, Note_on_c, 1, 64, 0
3, 109120, Note_on_c, 1, 69, 0
3, 109120, Note_on_c, 1, 73, 0
3, 109152, Note_on_c, 1, 66, 110
3, 109152, Note_on_c, 1, 69, 110
3, 109152, Note_on_c, 1, 74, 110
3, 109792, Note_on_c, 1, 66, 0
3, 109792, Note_on_c, 1, 69, 0
3, 109792, Note_on_c, 1, 74, 0
3, 109824, Note_on_c, 1, 62, 110
3, 109824, Note_on_c, 1, 67, 110
3, 109824, Note_on_c, 1, 71, 110
3, 109824, Note_on_c, 1, 74, 110
3, 110464, Note_on_c, 1, 62, 0
3, 110464, Note_on_c, 1, 67, 0
3, 110464, Note_on_c, 1, 71, 0
3, 110464, Note_on_c, 1, 74, 0
3, 110496, Note_on_c, 1, 62, 110
3, 110496, Note_on_c, 1, 66, 110
3, 110496, Note_on_c, 1, 69, 110
3, 110496, Note_on_c, 1, 74, 110
3, 111136, Note_on_c, 1, 62, 0
3, 111136, Note_on_c, 1, 66, 0
3, 111136, Note_on_c, 1, 69, 0
3, 111136, Note_on_c, 1, 74, 0
3, 111168, Note_on_c, 1, 64, 110
3, 111168, Note_on_c, 1, 69, 110
3, 111168, Note_on_c, 1, 73, 110
3, 111808, Note_on_c, 1, 64, 0
3, 111808, Note_on_c, 1, 69, 0
3, 111808, Note_on_c, 1, 73, 0
3, 111840, Note_on_c, 1, 66, 110
3, 111840, Note_on_c, 1, 69, 110
3, 111840, Note_on_c, 1, 74, 110
3, 112480, Note_on_c, 1, 66, 0
3, 112480, Note_on_c, 1, 69, 0
3, 112480, Note_on_c, 1, 74, 0
3, 112512, Note_on_c, 1, 62, 110
3, 112512, Note_on_c, 1, 67, 110
3, 112512, Note_on_c, 1, 71, 110
3, 112512, Note_on_c, 1, 74, 110
3, 113152, Note_on_c, 1, 62, 0
3, 113152, Note_on_c, 1, 67, 0
3, 113152, Note_on_c, 1, 71, 0
3, 113152, Note_on_c, 1, 74, 0
3, 113184, Note_on_c, 1, 62, 110
3, 113184, Note_on_c, 1, 66, 110
3, 113184, Note_on_c, 1, 69, 110
3, 113184, Note_on_c, 1, 74, 110
3, 113824, Note_on_c, 1, 62, 0
3, 113824, Note_on_c, 1, 66, 0
3, 113824, Note_on_c, 1, 69, 0
3, 113824, Note_on_c, 1, 74, 0
3, 113856, Note_on_c, 1, 64, 110
3, 113856, Note_on_c, 1, 69, 110
3, 113856, Note_on_c, 1, 73, 110
3, 114496, Note_on_c, 1, 64, 0
3, 114496, Note_on_c, 1, 69, 0
3, 114496, Note_on_c, 1, 73, 0
3, 114528, Note_on_c, 1, 66, 110
3, 114528, Note_on_c, 1, 69, 110
3, 114528, Note_on_c, 1, 74, 110
3, 114864, Note_on_c, 1, 66, 0
3, 114864, Note_on_c, 1, 69, 0
3, 114864, Note_on_c, 1, 74, 0
3, 114864, End_track
4, 0, Start_track
4, 0, MIDI_port, 0
4, 0, Title_t, "Staff-2"
4, 0, Program_c, 2, 34
4, 0, Control_c, 2, 7, 127
4, 0, Control_c, 2, 10, 64
4, 768, Note_on_c, 2, 45, 110
4, 1104, Note_on_c, 2, 45, 0
4, 1152, Note_on_c, 2, 47, 110
4, 1312, Note_on_c, 2, 47, 0
4, 1344, Note_on_c, 2, 49, 110
4, 1504, Note_on_c, 2, 49, 0
4, 1536, Note_on_c, 2, 50, 110
4, 1872, Note_on_c, 2, 50, 0
4, 1920, Note_on_c, 2, 52, 110
4, 2080, Note_on_c, 2, 52, 0
4, 2112, Note_on_c, 2, 54, 110
4, 2272, Note_on_c, 2, 54, 0
4, 2304, Note_on_c, 2, 45, 110
4, 2640, Note_on_c, 2, 45, 0
4, 2688, Note_on_c, 2, 47, 110
4, 2848, Note_on_c, 2, 47, 0
4, 2880, Note_on_c, 2, 49, 110
4, 3040, Note_on_c, 2, 49, 0
4, 3072, Note_on_c, 2, 50, 110
4, 3408, Note_on_c, 2, 50, 0
4, 3456, Note_on_c, 2, 52, 110
4, 3550, Note_on_c, 2, 52, 0
4, 3552, Note_on_c, 2, 54, 110
4, 3646, Note_on_c, 2, 54, 0
4, 3648, Note_on_c, 2, 57, 110
4, 3808, Note_on_c, 2, 57, 0
4, 3840, Note_on_c, 2, 45, 110
4, 4176, Note_on_c, 2, 45, 0
4, 4224, Note_on_c, 2, 47, 110
4, 4384, Note_on_c, 2, 47, 0
4, 4416, Note_on_c, 2, 49, 110
4, 4576, Note_on_c, 2, 49, 0
4, 4608, Note_on_c, 2, 40, 110
4, 4944, Note_on_c, 2, 40, 0
4, 4992, Note_on_c, 2, 52, 110
4, 5328, Note_on_c, 2, 52, 0
4, 5376, Note_on_c, 2, 32, 110
4, 5712, Note_on_c, 2, 32, 0
4, 5760, Note_on_c, 2, 44, 110
4, 6096, Note_on_c, 2, 44, 0
4, 6144, Note_on_c, 2, 44, 110
4, 6480, Note_on_c, 2, 44, 0
4, 6528, Note_on_c, 2, 42, 110
4, 6864, Note_on_c, 2, 42, 0
4, 6912, Note_on_c, 2, 45, 110
4, 7248, Note_on_c, 2, 45, 0
4, 7296, Note_on_c, 2, 47, 110
4, 7456, Note_on_c, 2, 47, 0
4, 7488, Note_on_c, 2, 49, 110
4, 7648, Note_on_c, 2, 49, 0
4, 7680, Note_on_c, 2, 50, 110
4, 8016, Note_on_c, 2, 50, 0
4, 8064, Note_on_c, 2, 52, 110
4, 8224, Note_on_c, 2, 52, 0
4, 8256, Note_on_c, 2, 54, 110
4, 8416, Note_on_c, 2, 54, 0
4, 8448, Note_on_c, 2, 45, 110
4, 8784, Note_on_c, 2, 45, 0
4, 8832, Note_on_c, 2, 47, 110
4, 8992, Note_on_c, 2, 47, 0
4, 9024, Note_on_c, 2, 49, 110
4, 9184, Note_on_c, 2, 49, 0
4, 9216, Note_on_c, 2, 50, 110
4, 9552, Note_on_c, 2, 50, 0
4, 9600, Note_on_c, 2, 52, 110
4, 9760, Note_on_c, 2, 52, 0
4, 9792, Note_on_c, 2, 54, 110
4, 9952, Note_on_c, 2, 54, 0
4, 9984, Note_on_c, 2, 45, 110
4, 10320, Note_on_c, 2, 45, 0
4, 10368, Note_on_c, 2, 47, 110
4, 10528, Note_on_c, 2, 47, 0
4, 10560, Note_on_c, 2, 49, 110
4, 10720, Note_on_c, 2, 49, 0
4, 10752, Note_on_c, 2, 50, 110
4, 11088, Note_on_c, 2, 50, 0
4, 11136, Note_on_c, 2, 52, 110
4, 11296, Note_on_c, 2, 52, 0
4, 11328, Note_on_c, 2, 54, 110
4, 11488, Note_on_c, 2, 54, 0
4, 11520, Note_on_c, 2, 52, 110
4, 11856, Note_on_c, 2, 52, 0
4, 11904, Note_on_c, 2, 47, 110
4, 12240, Note_on_c, 2, 47, 0
4, 12288, Note_on_c, 2, 40, 110
4, 12624, Note_on_c, 2, 40, 0
4, 12672, Note_on_c, 2, 42, 110
4, 12832, Note_on_c, 2, 42, 0
4, 12864, Note_on_c, 2, 44, 110
4, 13024, Note_on_c, 2, 44, 0
4, 13056, Note_on_c, 2, 45, 110
4, 13392, Note_on_c, 2, 45, 0
4, 13440, Note_on_c, 2, 47, 110
4, 13600, Note_on_c, 2, 47, 0
4, 13632, Note_on_c, 2, 49, 110
4, 13792, Note_on_c, 2, 49, 0
4, 13824, Note_on_c, 2, 50, 110
4, 14160, Note_on_c, 2, 50, 0
4, 14208, Note_on_c, 2, 52, 110
4, 14368, Note_on_c, 2, 52, 0
4, 14400, Note_on_c, 2, 54, 110
4, 14560, Note_on_c, 2, 54, 0
4, 14592, Note_on_c, 2, 45, 110
4, 14928, Note_on_c, 2, 45, 0
4, 14976, Note_on_c, 2, 47, 110
4, 15136, Note_on_c, 2, 47, 0
4, 15168, Note_on_c, 2, 49, 110
4, 15328, Note_on_c, 2, 49, 0
4, 15360, Note_on_c, 2, 50, 110
4, 15454, Note_on_c, 2, 50, 0
4, 15456, Note_on_c, 2, 50, 110
4, 15712, Note_on_c, 2, 50, 0
4, 15744, Note_on_c, 2, 52, 110
4, 15904, Note_on_c, 2, 52, 0
4, 15936, Note_on_c, 2, 54, 110
4, 16096, Note_on_c, 2, 54, 0
4, 16128, Note_on_c, 2, 45, 110
4, 16464, Note_on_c, 2, 45, 0
4, 16512, Note_on_c, 2, 47, 110
4, 16672, Note_on_c, 2, 47, 0
4, 16704, Note_on_c, 2, 49, 110
4, 16864, Note_on_c, 2, 49, 0
4, 16896, Note_on_c, 2, 40, 110
4, 17232, Note_on_c, 2, 40, 0
4, 17280, Note_on_c, 2, 40, 110
4, 17616, Note_on_c, 2, 40, 0
4, 17664, Note_on_c, 2, 43, 110
4, 18000, Note_on_c, 2, 43, 0
4, 18048, Note_on_c, 2, 50, 110
4, 18384, Note_on_c, 2, 50, 0
4, 18432, Note_on_c, 2, 55, 110
4, 18768, Note_on_c, 2, 55, 0
4, 18816, Note_on_c, 2, 41, 110
4, 19152, Note_on_c, 2, 41, 0
4, 19200, Note_on_c, 2, 45, 110
4, 19536, Note_on_c, 2, 45, 0
4, 19584, Note_on_c, 2, 47, 110
4, 19744, Note_on_c, 2, 47, 0
4, 19776, Note_on_c, 2, 49, 110
4, 19936, Note_on_c, 2, 49, 0
4, 19968, Note_on_c, 2, 50, 110
4, 20304, Note_on_c, 2, 50, 0
4, 20352, Note_on_c, 2, 52, 110
4, 20512, Note_on_c, 2, 52, 0
4, 20544, Note_on_c, 2, 54, 110
4, 20704, Note_on_c, 2, 54, 0
4, 20736, Note_on_c, 2, 45, 110
4, 21072, Note_on_c, 2, 45, 0
4, 21120, Note_on_c, 2, 47, 110
4, 21280, Note_on_c, 2, 47, 0
4, 21312, Note_on_c, 2, 49, 110
4, 21472, Note_on_c, 2, 49, 0
4, 21504, Note_on_c, 2, 50, 110
4, 21840, Note_on_c, 2, 50, 0
4, 21888, Note_on_c, 2, 52, 110
4, 22048, Note_on_c, 2, 52, 0
4, 22080, Note_on_c, 2, 54, 110
4, 22240, Note_on_c, 2, 54, 0
4, 22272, Note_on_c, 2, 45, 110
4, 22608, Note_on_c, 2, 45, 0
4, 22656, Note_on_c, 2, 47, 110
4, 22816, Note_on_c, 2, 47, 0
4, 22848, Note_on_c, 2, 49, 110
4, 23008, Note_on_c, 2, 49, 0
4, 23040, Note_on_c, 2, 50, 110
4, 23376, Note_on_c, 2, 50, 0
4, 23424, Note_on_c, 2, 52, 110
4, 23584, Note_on_c, 2, 52, 0
4, 23616, Note_on_c, 2, 54, 110
4, 23776, Note_on_c, 2, 54, 0
4, 23808, Note_on_c, 2, 52, 110
4, 24144, Note_on_c, 2, 52, 0
4, 24192, Note_on_c, 2, 47, 110
4, 24528, Note_on_c, 2, 47, 0
4, 24576, Note_on_c, 2, 40, 110
4, 24912, Note_on_c, 2, 40, 0
4, 24960, Note_on_c, 2, 42, 110
4, 25120, Note_on_c, 2, 42, 0
4, 25152, Note_on_c, 2, 44, 110
4, 25312, Note_on_c, 2, 44, 0
4, 25344, Note_on_c, 2, 45, 110
4, 25680, Note_on_c, 2, 45, 0
4, 25728, Note_on_c, 2, 47, 110
4, 25888, Note_on_c, 2, 47, 0
4, 25920, Note_on_c, 2, 49, 110
4, 26080, Note_on_c, 2, 49, 0
4, 26112, Note_on_c, 2, 50, 110
4, 26448, Note_on_c, 2, 50, 0
4, 26496, Note_on_c, 2, 52, 110
4, 26656, Note_on_c, 2, 52, 0
4, 26688, Note_on_c, 2, 54, 110
4, 26848, Note_on_c, 2, 54, 0
4, 26880, Note_on_c, 2, 45, 110
4, 27216, Note_on_c, 2, 45, 0
4, 27264, Note_on_c, 2, 47, 110
4, 27424, Note_on_c, 2, 47, 0
4, 27456, Note_on_c, 2, 49, 110
4, 27616, Note_on_c, 2, 49, 0
4, 27648, Note_on_c, 2, 50, 110
4, 27742, Note_on_c, 2, 50, 0
4, 27744, Note_on_c, 2, 50, 110
4, 28000, Note_on_c, 2, 50, 0
4, 28032, Note_on_c, 2, 52, 110
4, 28192, Note_on_c, 2, 52, 0
4, 28224, Note_on_c, 2, 54, 110
4, 28384, Note_on_c, 2, 54, 0
4, 28416, Note_on_c, 2, 45, 110
4, 28752, Note_on_c, 2, 45, 0
4, 28800, Note_on_c, 2, 47, 110
4, 28960, Note_on_c, 2, 47, 0
4, 28992, Note_on_c, 2, 49, 110
4, 29152, Note_on_c, 2, 49, 0
4, 29184, Note_on_c, 2, 40, 110
4, 29520, Note_on_c, 2, 40, 0
4, 29568, Note_on_c, 2, 40, 110
4, 29904, Note_on_c, 2, 40, 0
4, 29952, Note_on_c, 2, 43, 110
4, 30288, Note_on_c, 2, 43, 0
4, 30336, Note_on_c, 2, 50, 110
4, 30672, Note_on_c, 2, 50, 0
4, 30720, Note_on_c, 2, 55, 110
4, 31056, Note_on_c, 2, 55, 0
4, 31104, Note_on_c, 2, 48, 110
4, 31440, Note_on_c, 2, 48, 0
4, 31488, Note_on_c, 2, 45, 110
4, 31824, Note_on_c, 2, 45, 0
4, 31872, Note_on_c, 2, 47, 110
4, 32032, Note_on_c, 2, 47, 0
4, 32064, Note_on_c, 2, 49, 110
4, 32224, Note_on_c, 2, 49, 0
4, 32256, Note_on_c, 2, 50, 110
4, 32592, Note_on_c, 2, 50, 0
4, 32640, Note_on_c, 2, 52, 110
4, 32800, Note_on_c, 2, 52, 0
4, 32832, Note_on_c, 2, 54, 110
4, 32992, Note_on_c, 2, 54, 0
4, 33024, Note_on_c, 2, 45, 110
4, 33360, Note_on_c, 2, 45, 0
4, 33408, Note_on_c, 2, 47, 110
4, 33568, Note_on_c, 2, 47, 0
4, 33600, Note_on_c, 2, 49, 110
4, 33760, Note_on_c, 2, 49, 0
4, 33792, Note_on_c, 2, 50, 110
4, 34128, Note_on_c, 2, 50, 0
4, 34176, Note_on_c, 2, 52, 110
4, 34336, Note_on_c, 2, 52, 0
4, 34368, Note_on_c, 2, 54, 110
4, 34528, Note_on_c, 2, 54, 0
4, 34560, Note_on_c, 2, 45, 110
4, 34896, Note_on_c, 2, 45, 0
4, 34944, Note_on_c, 2, 47, 110
4, 35104, Note_on_c, 2, 47, 0
4, 35136, Note_on_c, 2, 49, 110
4, 35296, Note_on_c, 2, 49, 0
4, 35328, Note_on_c, 2, 50, 110
4, 35664, Note_on_c, 2, 50, 0
4, 35712, Note_on_c, 2, 52, 110
4, 35872, Note_on_c, 2, 52, 0
4, 35904, Note_on_c, 2, 54, 110
4, 36064, Note_on_c, 2, 54, 0
4, 36096, Note_on_c, 2, 52, 110
4, 36432, Note_on_c, 2, 52, 0
4, 36480, Note_on_c, 2, 47, 110
4, 36816, Note_on_c, 2, 47, 0
4, 36864, Note_on_c, 2, 40, 110
4, 37200, Note_on_c, 2, 40, 0
4, 37248, Note_on_c, 2, 42, 110
4, 37408, Note_on_c, 2, 42, 0
4, 37440, Note_on_c, 2, 44, 110
4, 37600, Note_on_c, 2, 44, 0
4, 37632, Note_on_c, 2, 45, 110
4, 37968, Note_on_c, 2, 45, 0
4, 38016, Note_on_c, 2, 47, 110
4, 38176, Note_on_c, 2, 47, 0
4, 38208, Note_on_c, 2, 49, 110
4, 38368, Note_on_c, 2, 49, 0
4, 38400, Note_on_c, 2, 50, 110
4, 38736, Note_on_c, 2, 50, 0
4, 38784, Note_on_c, 2, 52, 110
4, 38944, Note_on_c, 2, 52, 0
4, 38976, Note_on_c, 2, 54, 110
4, 39136, Note_on_c, 2, 54, 0
4, 39168, Note_on_c, 2, 45, 110
4, 39504, Note_on_c, 2, 45, 0
4, 39552, Note_on_c, 2, 47, 110
4, 39712, Note_on_c, 2, 47, 0
4, 39744, Note_on_c, 2, 49, 110
4, 39904, Note_on_c, 2, 49, 0
4, 39936, Note_on_c, 2, 50, 110
4, 40030, Note_on_c, 2, 50, 0
4, 40032, Note_on_c, 2, 50, 110
4, 40288, Note_on_c, 2, 50, 0
4, 40320, Note_on_c, 2, 52, 110
4, 40480, Note_on_c, 2, 52, 0
4, 40512, Note_on_c, 2, 54, 110
4, 40672, Note_on_c, 2, 54, 0
4, 40704, Note_on_c, 2, 45, 110
4, 41040, Note_on_c, 2, 45, 0
4, 41088, Note_on_c, 2, 45, 110
4, 41424, Note_on_c, 2, 45, 0
4, 41472, Note_on_c, 2, 40, 110
4, 41808, Note_on_c, 2, 40, 0
4, 41856, Note_on_c, 2, 52, 110
4, 42192, Note_on_c, 2, 52, 0
4, 42240, Note_on_c, 2, 48, 110
4, 42576, Note_on_c, 2, 48, 0
4, 42624, Note_on_c, 2, 48, 110
4, 42960, Note_on_c, 2, 48, 0
4, 43008, Note_on_c, 2, 48, 110
4, 43344, Note_on_c, 2, 48, 0
4, 43392, Note_on_c, 2, 48, 110
4, 43728, Note_on_c, 2, 48, 0
4, 43776, Note_on_c, 2, 43, 110
4, 44112, Note_on_c, 2, 43, 0
4, 44160, Note_on_c, 2, 43, 110
4, 44496, Note_on_c, 2, 43, 0
4, 44544, Note_on_c, 2, 42, 110
4, 44880, Note_on_c, 2, 42, 0
4, 44928, Note_on_c, 2, 42, 110
4, 45264, Note_on_c, 2, 42, 0
4, 45312, Note_on_c, 2, 45, 110
4, 45648, Note_on_c, 2, 45, 0
4, 45696, Note_on_c, 2, 40, 110
4, 46032, Note_on_c, 2, 40, 0
4, 46080, Note_on_c, 2, 45, 110
4, 46416, Note_on_c, 2, 45, 0
4, 46464, Note_on_c, 2, 40, 110
4, 46624, Note_on_c, 2, 40, 0
4, 46656, Note_on_c, 2, 42, 110
4, 46816, Note_on_c, 2, 42, 0
4, 46848, Note_on_c, 2, 43, 110
4, 47184, Note_on_c, 2, 43, 0
4, 47232, Note_on_c, 2, 43, 110
4, 47568, Note_on_c, 2, 43, 0
4, 47616, Note_on_c, 2, 42, 110
4, 47952, Note_on_c, 2, 42, 0
4, 48000, Note_on_c, 2, 42, 110
4, 48336, Note_on_c, 2, 42, 0
4, 48384, Note_on_c, 2, 45, 110
4, 48720, Note_on_c, 2, 45, 0
4, 48768, Note_on_c, 2, 40, 110
4, 49104, Note_on_c, 2, 40, 0
4, 49152, Note_on_c, 2, 45, 110
4, 49488, Note_on_c, 2, 45, 0
4, 49536, Note_on_c, 2, 40, 110
4, 49696, Note_on_c, 2, 40, 0
4, 49728, Note_on_c, 2, 42, 110
4, 49888, Note_on_c, 2, 42, 0
4, 49920, Note_on_c, 2, 43, 110
4, 50256, Note_on_c, 2, 43, 0
4, 50304, Note_on_c, 2, 43, 110
4, 50640, Note_on_c, 2, 43, 0
4, 50688, Note_on_c, 2, 42, 110
4, 51024, Note_on_c, 2, 42, 0
4, 51072, Note_on_c, 2, 42, 110
4, 51408, Note_on_c, 2, 42, 0
4, 51456, Note_on_c, 2, 40, 110
4, 51792, Note_on_c, 2, 40, 0
4, 51840, Note_on_c, 2, 40, 110
4, 52176, Note_on_c, 2, 40, 0
4, 52224, Note_on_c, 2, 40, 110
4, 52560, Note_on_c, 2, 40, 0
4, 52608, Note_on_c, 2, 40, 110
4, 52768, Note_on_c, 2, 40, 0
4, 52800, Note_on_c, 2, 42, 110
4, 52960, Note_on_c, 2, 42, 0
4, 52992, Note_on_c, 2, 45, 110
4, 53328, Note_on_c, 2, 45, 0
4, 53376, Note_on_c, 2, 47, 110
4, 53536, Note_on_c, 2, 47, 0
4, 53568, Note_on_c, 2, 49, 110
4, 53728, Note_on_c, 2, 49, 0
4, 53760, Note_on_c, 2, 50, 110
4, 54096, Note_on_c, 2, 50, 0
4, 54144, Note_on_c, 2, 52, 110
4, 54304, Note_on_c, 2, 52, 0
4, 54336, Note_on_c, 2, 54, 110
4, 54496, Note_on_c, 2, 54, 0
4, 54528, Note_on_c, 2, 45, 110
4, 54864, Note_on_c, 2, 45, 0
4, 54912, Note_on_c, 2, 47, 110
4, 55072, Note_on_c, 2, 47, 0
4, 55104, Note_on_c, 2, 49, 110
4, 55264, Note_on_c, 2, 49, 0
4, 55296, Note_on_c, 2, 50, 110
4, 55632, Note_on_c, 2, 50, 0
4, 55680, Note_on_c, 2, 52, 110
4, 55840, Note_on_c, 2, 52, 0
4, 55872, Note_on_c, 2, 54, 110
4, 56032, Note_on_c, 2, 54, 0
4, 56064, Note_on_c, 2, 45, 110
4, 56400, Note_on_c, 2, 45, 0
4, 56448, Note_on_c, 2, 47, 110
4, 56608, Note_on_c, 2, 47, 0
4, 56640, Note_on_c, 2, 49, 110
4, 56800, Note_on_c, 2, 49, 0
4, 56832, Note_on_c, 2, 50, 110
4, 57168, Note_on_c, 2, 50, 0
4, 57216, Note_on_c, 2, 52, 110
4, 57376, Note_on_c, 2, 52, 0
4, 57408, Note_on_c, 2, 54, 110
4, 57568, Note_on_c, 2, 54, 0
4, 57600, Note_on_c, 2, 52, 110
4, 57936, Note_on_c, 2, 52, 0
4, 57984, Note_on_c, 2, 47, 110
4, 58320, Note_on_c, 2, 47, 0
4, 58368, Note_on_c, 2, 40, 110
4, 58704, Note_on_c, 2, 40, 0
4, 58752, Note_on_c, 2, 42, 110
4, 58912, Note_on_c, 2, 42, 0
4, 58944, Note_on_c, 2, 44, 110
4, 59104, Note_on_c, 2, 44, 0
4, 59136, Note_on_c, 2, 45, 110
4, 59472, Note_on_c, 2, 45, 0
4, 59520, Note_on_c, 2, 47, 110
4, 59680, Note_on_c, 2, 47, 0
4, 59712, Note_on_c, 2, 49, 110
4, 59872, Note_on_c, 2, 49, 0
4, 59904, Note_on_c, 2, 50, 110
4, 60240, Note_on_c, 2, 50, 0
4, 60288, Note_on_c, 2, 52, 110
4, 60448, Note_on_c, 2, 52, 0
4, 60480, Note_on_c, 2, 54, 110
4, 60640, Note_on_c, 2, 54, 0
4, 60672, Note_on_c, 2, 45, 110
4, 61008, Note_on_c, 2, 45, 0
4, 61056, Note_on_c, 2, 47, 110
4, 61216, Note_on_c, 2, 47, 0
4, 61248, Note_on_c, 2, 49, 110
4, 61408, Note_on_c, 2, 49, 0
4, 61440, Note_on_c, 2, 50, 110
4, 61534, Note_on_c, 2, 50, 0
4, 61536, Note_on_c, 2, 50, 110
4, 61792, Note_on_c, 2, 50, 0
4, 61824, Note_on_c, 2, 52, 110
4, 61984, Note_on_c, 2, 52, 0
4, 62016, Note_on_c, 2, 54, 110
4, 62176, Note_on_c, 2, 54, 0
4, 62208, Note_on_c, 2, 45, 110
4, 62544, Note_on_c, 2, 45, 0
4, 62592, Note_on_c, 2, 47, 110
4, 62752, Note_on_c, 2, 47, 0
4, 62784, Note_on_c, 2, 49, 110
4, 62944, Note_on_c, 2, 49, 0
4, 62976, Note_on_c, 2, 40, 110
4, 63312, Note_on_c, 2, 40, 0
4, 63360, Note_on_c, 2, 40, 110
4, 63696, Note_on_c, 2, 40, 0
4, 63744, Note_on_c, 2, 43, 110
4, 64080, Note_on_c, 2, 43, 0
4, 64128, Note_on_c, 2, 50, 110
4, 64464, Note_on_c, 2, 50, 0
4, 64512, Note_on_c, 2, 55, 110
4, 64848, Note_on_c, 2, 55, 0
4, 64896, Note_on_c, 2, 48, 110
4, 65232, Note_on_c, 2, 48, 0
4, 65280, Note_on_c, 2, 45, 110
4, 65616, Note_on_c, 2, 45, 0
4, 65664, Note_on_c, 2, 47, 110
4, 65824, Note_on_c, 2, 47, 0
4, 65856, Note_on_c, 2, 49, 110
4, 66016, Note_on_c, 2, 49, 0
4, 66048, Note_on_c, 2, 50, 110
4, 66384, Note_on_c, 2, 50, 0
4, 66432, Note_on_c, 2, 52, 110
4, 66592, Note_on_c, 2, 52, 0
4, 66624, Note_on_c, 2, 54, 110
4, 66784, Note_on_c, 2, 54, 0
4, 66816, Note_on_c, 2, 45, 110
4, 67152, Note_on_c, 2, 45, 0
4, 67200, Note_on_c, 2, 47, 110
4, 67360, Note_on_c, 2, 47, 0
4, 67392, Note_on_c, 2, 49, 110
4, 67552, Note_on_c, 2, 49, 0
4, 67584, Note_on_c, 2, 50, 110
4, 67920, Note_on_c, 2, 50, 0
4, 67968, Note_on_c, 2, 52, 110
4, 68128, Note_on_c, 2, 52, 0
4, 68160, Note_on_c, 2, 54, 110
4, 68320, Note_on_c, 2, 54, 0
4, 68352, Note_on_c, 2, 45, 110
4, 68688, Note_on_c, 2, 45, 0
4, 68736, Note_on_c, 2, 47, 110
4, 68896, Note_on_c, 2, 47, 0
4, 68928, Note_on_c, 2, 49, 110
4, 69088, Note_on_c, 2, 49, 0
4, 69120, Note_on_c, 2, 50, 110
4, 69456, Note_on_c, 2, 50, 0
4, 69504, Note_on_c, 2, 52, 110
4, 69664, Note_on_c, 2, 52, 0
4, 69696, Note_on_c, 2, 54, 110
4, 69856, Note_on_c, 2, 54, 0
4, 69888, Note_on_c, 2, 52, 110
4, 70224, Note_on_c, 2, 52, 0
4, 70272, Note_on_c, 2, 47, 110
4, 70608, Note_on_c, 2, 47, 0
4, 70656, Note_on_c, 2, 40, 110
4, 70992, Note_on_c, 2, 40, 0
4, 71040, Note_on_c, 2, 42, 110
4, 71200, Note_on_c, 2, 42, 0
4, 71232, Note_on_c, 2, 44, 110
4, 71392, Note_on_c, 2, 44, 0
4, 71424, Note_on_c, 2, 45, 110
4, 71760, Note_on_c, 2, 45, 0
4, 71808, Note_on_c, 2, 47, 110
4, 71968, Note_on_c, 2, 47, 0
4, 72000, Note_on_c, 2, 49, 110
4, 72160, Note_on_c, 2, 49, 0
4, 72192, Note_on_c, 2, 50, 110
4, 72528, Note_on_c, 2, 50, 0
4, 72576, Note_on_c, 2, 52, 110
4, 72736, Note_on_c, 2, 52, 0
4, 72768, Note_on_c, 2, 54, 110
4, 72928, Note_on_c, 2, 54, 0
4, 72960, Note_on_c, 2, 45, 110
4, 73296, Note_on_c, 2, 45, 0
4, 73344, Note_on_c, 2, 47, 110
4, 73504, Note_on_c, 2, 47, 0
4, 73536, Note_on_c, 2, 49, 110
4, 73696, Note_on_c, 2, 49, 0
4, 73728, Note_on_c, 2, 50, 110
4, 73822, Note_on_c, 2, 50, 0
4, 73824, Note_on_c, 2, 50, 110
4, 74080, Note_on_c, 2, 50, 0
4, 74112, Note_on_c, 2, 52, 110
4, 74272, Note_on_c, 2, 52, 0
4, 74304, Note_on_c, 2, 54, 110
4, 74464, Note_on_c, 2, 54, 0
4, 74496, Note_on_c, 2, 45, 110
4, 74832, Note_on_c, 2, 45, 0
4, 74880, Note_on_c, 2, 45, 110
4, 75216, Note_on_c, 2, 45, 0
4, 75264, Note_on_c, 2, 40, 110
4, 75600, Note_on_c, 2, 40, 0
4, 75648, Note_on_c, 2, 52, 110
4, 75984, Note_on_c, 2, 52, 0
4, 76032, Note_on_c, 2, 48, 110
4, 76368, Note_on_c, 2, 48, 0
4, 76416, Note_on_c, 2, 48, 110
4, 76752, Note_on_c, 2, 48, 0
4, 76800, Note_on_c, 2, 48, 110
4, 77136, Note_on_c, 2, 48, 0
4, 77184, Note_on_c, 2, 48, 110
4, 77520, Note_on_c, 2, 48, 0
4, 77568, Note_on_c, 2, 43, 110
4, 77904, Note_on_c, 2, 43, 0
4, 77952, Note_on_c, 2, 43, 110
4, 78288, Note_on_c, 2, 43, 0
4, 78336, Note_on_c, 2, 42, 110
4, 78672, Note_on_c, 2, 42, 0
4, 78720, Note_on_c, 2, 42, 110
4, 79056, Note_on_c, 2, 42, 0
4, 79104, Note_on_c, 2, 45, 110
4, 79440, Note_on_c, 2, 45, 0
4, 79488, Note_on_c, 2, 40, 110
4, 79824, Note_on_c, 2, 40, 0
4, 79872, Note_on_c, 2, 45, 110
4, 80208, Note_on_c, 2, 45, 0
4, 80256, Note_on_c, 2, 40, 110
4, 80416, Note_on_c, 2, 40, 0
4, 80448, Note_on_c, 2, 42, 110
4, 80608, Note_on_c, 2, 42, 0
4, 80640, Note_on_c, 2, 43, 110
4, 80976, Note_on_c, 2, 43, 0
4, 81024, Note_on_c, 2, 43, 110
4, 81360, Note_on_c, 2, 43, 0
4, 81408, Note_on_c, 2, 42, 110
4, 81744, Note_on_c, 2, 42, 0
4, 81792, Note_on_c, 2, 42, 110
4, 82128, Note_on_c, 2, 42, 0
4, 82176, Note_on_c, 2, 45, 110
4, 82512, Note_on_c, 2, 45, 0
4, 82560, Note_on_c, 2, 40, 110
4, 82896, Note_on_c, 2, 40, 0
4, 82944, Note_on_c, 2, 45, 110
4, 83280, Note_on_c, 2, 45, 0
4, 83328, Note_on_c, 2, 40, 110
4, 83488, Note_on_c, 2, 40, 0
4, 83520, Note_on_c, 2, 42, 110
4, 83680, Note_on_c, 2, 42, 0
4, 83712, Note_on_c, 2, 43, 110
4, 84048, Note_on_c, 2, 43, 0
4, 84096, Note_on_c, 2, 43, 110
4, 84432, Note_on_c, 2, 43, 0
4, 84480, Note_on_c, 2, 42, 110
4, 84816, Note_on_c, 2, 42, 0
4, 84864, Note_on_c, 2, 42, 110
4, 85200, Note_on_c, 2, 42, 0
4, 85248, Note_on_c, 2, 45, 110
4, 85584, Note_on_c, 2, 45, 0
4, 85632, Note_on_c, 2, 40, 110
4, 85968, Note_on_c, 2, 40, 0
4, 86016, Note_on_c, 2, 45, 110
4, 86352, Note_on_c, 2, 45, 0
4, 86400, Note_on_c, 2, 40, 110
4, 86560, Note_on_c, 2, 40, 0
4, 86592, Note_on_c, 2, 42, 110
4, 86752, Note_on_c, 2, 42, 0
4, 86784, Note_on_c, 2, 43, 110
4, 88272, Note_on_c, 2, 44, 0
4, 88320, Note_on_c, 2, 40, 110
4, 89808, Note_on_c, 2, 40, 0
4, 89856, Note_on_c, 2, 35, 110
4, 90960, Note_on_c, 2, 35, 0
4, 91008, Note_on_c, 2, 37, 110
4, 91344, Note_on_c, 2, 37, 0
4, 91392, Note_on_c, 2, 38, 110
4, 92112, Note_on_c, 2, 38, 0
4, 92160, Note_on_c, 2, 31, 110
4, 92880, Note_on_c, 2, 31, 0
4, 92928, Note_on_c, 2, 33, 110
4, 93648, Note_on_c, 2, 33, 0
4, 93696, Note_on_c, 2, 35, 110
4, 94032, Note_on_c, 2, 35, 0
4, 94080, Note_on_c, 2, 37, 110
4, 95184, Note_on_c, 2, 37, 0
4, 95232, Note_on_c, 2, 30, 110
4, 95952, Note_on_c, 2, 30, 0
4, 96000, Note_on_c, 2, 31, 110
4, 97104, Note_on_c, 2, 32, 0
4, 97152, Note_on_c, 2, 30, 110
4, 97488, Note_on_c, 2, 30, 0
4, 97536, Note_on_c, 2, 40, 110
4, 99024, Note_on_c, 2, 40, 0
4, 99072, Note_on_c, 2, 43, 110
4, 99712, Note_on_c, 2, 43, 0
4, 99744, Note_on_c, 2, 42, 110
4, 100384, Note_on_c, 2, 42, 0
4, 100416, Note_on_c, 2, 45, 110
4, 101056, Note_on_c, 2, 45, 0
4, 101088, Note_on_c, 2, 42, 110
4, 101728, Note_on_c, 2, 42, 0
4, 101760, Note_on_c, 2, 43, 110
4, 102400, Note_on_c, 2, 43, 0
4, 102432, Note_on_c, 2, 42, 110
4, 103072, Note_on_c, 2, 42, 0
4, 103104, Note_on_c, 2, 45, 110
4, 103744, Note_on_c, 2, 45, 0
4, 103776, Note_on_c, 2, 42, 110
4, 104416, Note_on_c, 2, 42, 0
4, 104448, Note_on_c, 2, 43, 110
4, 105088, Note_on_c, 2, 43, 0
4, 105120, Note_on_c, 2, 42, 110
4, 105760, Note_on_c, 2, 42, 0
4, 105792, Note_on_c, 2, 45, 110
4, 106432, Note_on_c, 2, 45, 0
4, 106464, Note_on_c, 2, 42, 110
4, 107104, Note_on_c, 2, 42, 0
4, 107136, Note_on_c, 2, 43, 110
4, 107776, Note_on_c, 2, 43, 0
4, 107808, Note_on_c, 2, 42, 110
4, 108448, Note_on_c, 2, 42, 0
4, 108480, Note_on_c, 2, 45, 110
4, 109120, Note_on_c, 2, 45, 0
4, 109152, Note_on_c, 2, 42, 110
4, 109792, Note_on_c, 2, 42, 0
4, 109824, Note_on_c, 2, 43, 110
4, 110464, Note_on_c, 2, 43, 0
4, 110496, Note_on_c, 2, 42, 110
4, 111136, Note_on_c, 2, 42, 0
4, 111168, Note_on_c, 2, 45, 110
4, 111808, Note_on_c, 2, 45, 0
4, 111840, Note_on_c, 2, 42, 110
4, 112480, Note_on_c, 2, 42, 0
4, 112512, Note_on_c, 2, 43, 110
4, 113152, Note_on_c, 2, 43, 0
4, 113184, Note_on_c, 2, 42, 110
4, 113824, Note_on_c, 2, 42, 0
4, 113856, Note_on_c, 2, 45, 110
4, 114496, Note_on_c, 2, 45, 0
4, 114528, Note_on_c, 2, 38, 110
4, 114622, Note_on_c, 2, 38, 0
4, 114624, Note_on_c, 2, 38, 110
4, 114718, Note_on_c, 2, 38, 0
4, 114720, Note_on_c, 2, 38, 110
4, 114814, Note_on_c, 2, 38, 0
4, 114816, Note_on_c, 2, 38, 110
4, 114862, Note_on_c, 2, 38, 0
4, 114864, Note_on_c, 2, 38, 110
4, 114958, Note_on_c, 2, 38, 0
4, 114960, Note_on_c, 2, 38, 110
4, 115054, Note_on_c, 2, 38, 0
4, 115056, Note_on_c, 2, 38, 110
4, 115198, Note_on_c, 2, 38, 0
4, 115198, End_track
5, 0, Start_track
5, 0, MIDI_port, 0
5, 0, Title_t, "Staff-3"
5, 0, Program_c, 3, 24
5, 0, Control_c, 3, 7, 89
5, 0, Control_c, 3, 10, 46
5, 6912, Note_on_c, 3, 57, 110
5, 7104, Note_on_c, 3, 57, 0
5, 7104, Note_on_c, 3, 64, 110
5, 7104, Note_on_c, 3, 69, 110
5, 7104, Note_on_c, 3, 73, 110
5, 7264, Note_on_c, 3, 64, 0
5, 7264, Note_on_c, 3, 69, 0
5, 7264, Note_on_c, 3, 73, 0
5, 7296, Note_on_c, 3, 57, 110
5, 7488, Note_on_c, 3, 57, 0
5, 7488, Note_on_c, 3, 57, 110
5, 7488, Note_on_c, 3, 64, 110
5, 7488, Note_on_c, 3, 69, 110
5, 7488, Note_on_c, 3, 73, 110
5, 7648, Note_on_c, 3, 57, 0
5, 7648, Note_on_c, 3, 64, 0
5, 7648, Note_on_c, 3, 69, 0
5, 7648, Note_on_c, 3, 73, 0
5, 7680, Note_on_c, 3, 62, 110
5, 7872, Note_on_c, 3, 62, 0
5, 7872, Note_on_c, 3, 69, 110
5, 7872, Note_on_c, 3, 74, 110
5, 7872, Note_on_c, 3, 78, 110
5, 8032, Note_on_c, 3, 69, 0
5, 8032, Note_on_c, 3, 74, 0
5, 8032, Note_on_c, 3, 78, 0
5, 8064, Note_on_c, 3, 62, 110
5, 8256, Note_on_c, 3, 62, 0
5, 8256, Note_on_c, 3, 62, 110
5, 8256, Note_on_c, 3, 69, 110
5, 8256, Note_on_c, 3, 74, 110
5, 8256, Note_on_c, 3, 78, 110
5, 8416, Note_on_c, 3, 62, 0
5, 8416, Note_on_c, 3, 69, 0
5, 8416, Note_on_c, 3, 74, 0
5, 8416, Note_on_c, 3, 78, 0
5, 8448, Note_on_c, 3, 57, 110
5, 8640, Note_on_c, 3, 57, 0
5, 8640, Note_on_c, 3, 64, 110
5, 8640, Note_on_c, 3, 69, 110
5, 8640, Note_on_c, 3, 73, 110
5, 8800, Note_on_c, 3, 64, 0
5, 8800, Note_on_c, 3, 69, 0
5, 8800, Note_on_c, 3, 73, 0
5, 8832, Note_on_c, 3, 57, 110
5, 9024, Note_on_c, 3, 57, 0
5, 9024, Note_on_c, 3, 57, 110
5, 9024, Note_on_c, 3, 64, 110
5, 9024, Note_on_c, 3, 69, 110
5, 9024, Note_on_c, 3, 73, 110
5, 9184, Note_on_c, 3, 57, 0
5, 9184, Note_on_c, 3, 64, 0
5, 9184, Note_on_c, 3, 69, 0
5, 9184, Note_on_c, 3, 73, 0
5, 9216, Note_on_c, 3, 62, 110
5, 9408, Note_on_c, 3, 62, 0
5, 9408, Note_on_c, 3, 69, 110
5, 9408, Note_on_c, 3, 74, 110
5, 9408, Note_on_c, 3, 78, 110
5, 9568, Note_on_c, 3, 69, 0
5, 9568, Note_on_c, 3, 74, 0
5, 9568, Note_on_c, 3, 78, 0
5, 9600, Note_on_c, 3, 62, 110
5, 9792, Note_on_c, 3, 62, 0
5, 9792, Note_on_c, 3, 62, 110
5, 9792, Note_on_c, 3, 69, 110
5, 9792, Note_on_c, 3, 74, 110
5, 9792, Note_on_c, 3, 78, 110
5, 9952, Note_on_c, 3, 62, 0
5, 9952, Note_on_c, 3, 69, 0
5, 9952, Note_on_c, 3, 74, 0
5, 9952, Note_on_c, 3, 78, 0
5, 9984, Note_on_c, 3, 57, 110
5, 10176, Note_on_c, 3, 57, 0
5, 10176, Note_on_c, 3, 64, 110
5, 10176, Note_on_c, 3, 69, 110
5, 10176, Note_on_c, 3, 73, 110
5, 10336, Note_on_c, 3, 64, 0
5, 10336, Note_on_c, 3, 69, 0
5, 10336, Note_on_c, 3, 73, 0
5, 10368, Note_on_c, 3, 57, 110
5, 10560, Note_on_c, 3, 57, 0
5, 10560, Note_on_c, 3, 57, 110
5, 10560, Note_on_c, 3, 64, 110
5, 10560, Note_on_c, 3, 69, 110
5, 10560, Note_on_c, 3, 73, 110
5, 10720, Note_on_c, 3, 57, 0
5, 10720, Note_on_c, 3, 64, 0
5, 10720, Note_on_c, 3, 69, 0
5, 10720, Note_on_c, 3, 73, 0
5, 10752, Note_on_c, 3, 62, 110
5, 10944, Note_on_c, 3, 62, 0
5, 10944, Note_on_c, 3, 69, 110
5, 10944, Note_on_c, 3, 74, 110
5, 10944, Note_on_c, 3, 78, 110
5, 11104, Note_on_c, 3, 69, 0
5, 11104, Note_on_c, 3, 74, 0
5, 11104, Note_on_c, 3, 78, 0
5, 11136, Note_on_c, 3, 62, 110
5, 11328, Note_on_c, 3, 62, 0
5, 11328, Note_on_c, 3, 62, 110
5, 11328, Note_on_c, 3, 69, 110
5, 11328, Note_on_c, 3, 74, 110
5, 11328, Note_on_c, 3, 78, 110
5, 11488, Note_on_c, 3, 62, 0
5, 11488, Note_on_c, 3, 69, 0
5, 11488, Note_on_c, 3, 74, 0
5, 11488, Note_on_c, 3, 78, 0
5, 11520, Note_on_c, 3, 52, 110
5, 11680, Note_on_c, 3, 52, 0
5, 11712, Note_on_c, 3, 64, 110
5, 11712, Note_on_c, 3, 68, 110
5, 11712, Note_on_c, 3, 71, 110
5, 11872, Note_on_c, 3, 64, 0
5, 11872, Note_on_c, 3, 68, 0
5, 11872, Note_on_c, 3, 71, 0
5, 11904, Note_on_c, 3, 52, 110
5, 12064, Note_on_c, 3, 52, 0
5, 12096, Note_on_c, 3, 64, 110
5, 12096, Note_on_c, 3, 68, 110
5, 12096, Note_on_c, 3, 71, 110
5, 12256, Note_on_c, 3, 64, 0
5, 12256, Note_on_c, 3, 68, 0
5, 12256, Note_on_c, 3, 71, 0
5, 12288, Note_on_c, 3, 52, 110
5, 12448, Note_on_c, 3, 52, 0
5, 12480, Note_on_c, 3, 64, 110
5, 12480, Note_on_c, 3, 68, 110
5, 12480, Note_on_c, 3, 71, 110
5, 12640, Note_on_c, 3, 64, 0
5, 12640, Note_on_c, 3, 68, 0
5, 12640, Note_on_c, 3, 71, 0
5, 12672, Note_on_c, 3, 52, 110
5, 12832, Note_on_c, 3, 52, 0
5, 12864, Note_on_c, 3, 64, 110
5, 12864, Note_on_c, 3, 68, 110
5, 12864, Note_on_c, 3, 71, 110
5, 13024, Note_on_c, 3, 64, 0
5, 13024, Note_on_c, 3, 68, 0
5, 13024, Note_on_c, 3, 71, 0
5, 13056, Note_on_c, 3, 57, 110
5, 13248, Note_on_c, 3, 57, 0
5, 13248, Note_on_c, 3, 64, 110
5, 13248, Note_on_c, 3, 69, 110
5, 13248, Note_on_c, 3, 73, 110
5, 13408, Note_on_c, 3, 64, 0
5, 13408, Note_on_c, 3, 69, 0
5, 13408, Note_on_c, 3, 73, 0
5, 13440, Note_on_c, 3, 57, 110
5, 13632, Note_on_c, 3, 57, 0
5, 13632, Note_on_c, 3, 57, 110
5, 13632, Note_on_c, 3, 64, 110
5, 13632, Note_on_c, 3, 69, 110
5, 13632, Note_on_c, 3, 73, 110
5, 13792, Note_on_c, 3, 57, 0
5, 13792, Note_on_c, 3, 64, 0
5, 13792, Note_on_c, 3, 69, 0
5, 13792, Note_on_c, 3, 73, 0
5, 13824, Note_on_c, 3, 62, 110
5, 14016, Note_on_c, 3, 62, 0
5, 14016, Note_on_c, 3, 69, 110
5, 14016, Note_on_c, 3, 74, 110
5, 14016, Note_on_c, 3, 78, 110
5, 14176, Note_on_c, 3, 69, 0
5, 14176, Note_on_c, 3, 74, 0
5, 14176, Note_on_c, 3, 78, 0
5, 14208, Note_on_c, 3, 62, 110
5, 14400, Note_on_c, 3, 62, 0
5, 14400, Note_on_c, 3, 62, 110
5, 14400, Note_on_c, 3, 69, 110
5, 14400, Note_on_c, 3, 74, 110
5, 14400, Note_on_c, 3, 78, 110
5, 14560, Note_on_c, 3, 62, 0
5, 14560, Note_on_c, 3, 69, 0
5, 14560, Note_on_c, 3, 74, 0
5, 14560, Note_on_c, 3, 78, 0
5, 14592, Note_on_c, 3, 57, 110
5, 14784, Note_on_c, 3, 57, 0
5, 14784, Note_on_c, 3, 64, 110
5, 14784, Note_on_c, 3, 69, 110
5, 14784, Note_on_c, 3, 73, 110
5, 14944, Note_on_c, 3, 64, 0
5, 14944, Note_on_c, 3, 69, 0
5, 14944, Note_on_c, 3, 73, 0
5, 14976, Note_on_c, 3, 57, 110
5, 15168, Note_on_c, 3, 57, 0
5, 15168, Note_on_c, 3, 57, 110
5, 15168, Note_on_c, 3, 64, 110
5, 15168, Note_on_c, 3, 69, 110
5, 15168, Note_on_c, 3, 73, 110
5, 15328, Note_on_c, 3, 57, 0
5, 15328, Note_on_c, 3, 64, 0
5, 15328, Note_on_c, 3, 69, 0
5, 15328, Note_on_c, 3, 73, 0
5, 15360, Note_on_c, 3, 62, 110
5, 15552, Note_on_c, 3, 62, 0
5, 15552, Note_on_c, 3, 69, 110
5, 15552, Note_on_c, 3, 74, 110
5, 15552, Note_on_c, 3, 78, 110
5, 15712, Note_on_c, 3, 69, 0
5, 15712, Note_on_c, 3, 74, 0
5, 15712, Note_on_c, 3, 78, 0
5, 15744, Note_on_c, 3, 62, 110
5, 15936, Note_on_c, 3, 62, 0
5, 15936, Note_on_c, 3, 62, 110
5, 15936, Note_on_c, 3, 69, 110
5, 15936, Note_on_c, 3, 74, 110
5, 15936, Note_on_c, 3, 78, 110
5, 16096, Note_on_c, 3, 62, 0
5, 16096, Note_on_c, 3, 69, 0
5, 16096, Note_on_c, 3, 74, 0
5, 16096, Note_on_c, 3, 78, 0
5, 16128, Note_on_c, 3, 57, 110
5, 16320, Note_on_c, 3, 57, 0
5, 16320, Note_on_c, 3, 64, 110
5, 16320, Note_on_c, 3, 69, 110
5, 16320, Note_on_c, 3, 73, 110
5, 16480, Note_on_c, 3, 64, 0
5, 16480, Note_on_c, 3, 69, 0
5, 16480, Note_on_c, 3, 73, 0
5, 16512, Note_on_c, 3, 57, 110
5, 16704, Note_on_c, 3, 57, 0
5, 16704, Note_on_c, 3, 57, 110
5, 16704, Note_on_c, 3, 64, 110
5, 16704, Note_on_c, 3, 69, 110
5, 16704, Note_on_c, 3, 73, 110
5, 16864, Note_on_c, 3, 57, 0
5, 16864, Note_on_c, 3, 64, 0
5, 16864, Note_on_c, 3, 69, 0
5, 16864, Note_on_c, 3, 73, 0
5, 16896, Note_on_c, 3, 52, 110
5, 17056, Note_on_c, 3, 52, 0
5, 17088, Note_on_c, 3, 64, 110
5, 17088, Note_on_c, 3, 68, 110
5, 17088, Note_on_c, 3, 71, 110
5, 17248, Note_on_c, 3, 64, 0
5, 17248, Note_on_c, 3, 68, 0
5, 17248, Note_on_c, 3, 71, 0
5, 17280, Note_on_c, 3, 52, 110
5, 17440, Note_on_c, 3, 52, 0
5, 17472, Note_on_c, 3, 64, 110
5, 17472, Note_on_c, 3, 68, 110
5, 17472, Note_on_c, 3, 71, 110
5, 17632, Note_on_c, 3, 64, 0
5, 17632, Note_on_c, 3, 68, 0
5, 17632, Note_on_c, 3, 71, 0
5, 19200, Control_c, 3, 7, 83
5, 19200, Control_c, 3, 7, 83
5, 19200, Note_on_c, 3, 60, 110
5, 19222, Note_on_c, 3, 60, 0
5, 19224, Note_on_c, 3, 61, 110
5, 19224, Note_on_c, 3, 64, 110
5, 19224, Note_on_c, 3, 69, 110
5, 19390, Note_on_c, 3, 61, 0
5, 19390, Note_on_c, 3, 64, 0
5, 19390, Note_on_c, 3, 69, 0
5, 19392, Note_on_c, 3, 61, 110
5, 19392, Note_on_c, 3, 64, 110
5, 19392, Note_on_c, 3, 69, 110
5, 19552, Note_on_c, 3, 61, 0
5, 19552, Note_on_c, 3, 64, 0
5, 19552, Note_on_c, 3, 69, 0
5, 19584, Note_on_c, 3, 61, 110
5, 19584, Note_on_c, 3, 64, 110
5, 19584, Note_on_c, 3, 69, 110
5, 19744, Note_on_c, 3, 61, 0
5, 19744, Note_on_c, 3, 64, 0
5, 19744, Note_on_c, 3, 69, 0
5, 19776, Note_on_c, 3, 61, 110
5, 19776, Note_on_c, 3, 64, 110
5, 19776, Note_on_c, 3, 69, 110
5, 19936, Note_on_c, 3, 61, 0
5, 19936, Note_on_c, 3, 64, 0
5, 19936, Note_on_c, 3, 69, 0
5, 19968, Note_on_c, 3, 60, 110
5, 19968, Note_on_c, 3, 64, 110
5, 19968, Note_on_c, 3, 69, 110
5, 20128, Note_on_c, 3, 60, 0
5, 20128, Note_on_c, 3, 64, 0
5, 20128, Note_on_c, 3, 69, 0
5, 20160, Note_on_c, 3, 60, 110
5, 20160, Note_on_c, 3, 64, 110
5, 20160, Note_on_c, 3, 69, 110
5, 20320, Note_on_c, 3, 60, 0
5, 20320, Note_on_c, 3, 64, 0
5, 20320, Note_on_c, 3, 69, 0
5, 20352, Note_on_c, 3, 60, 110
5, 20352, Note_on_c, 3, 64, 110
5, 20352, Note_on_c, 3, 69, 110
5, 20512, Note_on_c, 3, 60, 0
5, 20512, Note_on_c, 3, 64, 0
5, 20512, Note_on_c, 3, 69, 0
5, 20544, Note_on_c, 3, 60, 110
5, 20544, Note_on_c, 3, 64, 110
5, 20544, Note_on_c, 3, 69, 110
5, 20704, Note_on_c, 3, 60, 0
5, 20704, Note_on_c, 3, 64, 0
5, 20704, Note_on_c, 3, 69, 0
5, 20736, Note_on_c, 3, 60, 110
5, 20758, Note_on_c, 3, 60, 0
5, 20760, Note_on_c, 3, 61, 110
5, 20760, Note_on_c, 3, 64, 110
5, 20760, Note_on_c, 3, 69, 110
5, 20926, Note_on_c, 3, 61, 0
5, 20926, Note_on_c, 3, 64, 0
5, 20926, Note_on_c, 3, 69, 0
5, 20928, Note_on_c, 3, 61, 110
5, 20928, Note_on_c, 3, 64, 110
5, 20928, Note_on_c, 3, 69, 110
5, 21088, Note_on_c, 3, 61, 0
5, 21088, Note_on_c, 3, 64, 0
5, 21088, Note_on_c, 3, 69, 0
5, 21120, Note_on_c, 3, 61, 110
5, 21120, Note_on_c, 3, 64, 110
5, 21120, Note_on_c, 3, 69, 110
5, 21280, Note_on_c, 3, 61, 0
5, 21280, Note_on_c, 3, 64, 0
5, 21280, Note_on_c, 3, 69, 0
5, 21312, Note_on_c, 3, 61, 110
5, 21312, Note_on_c, 3, 64, 110
5, 21312, Note_on_c, 3, 69, 110
5, 21472, Note_on_c, 3, 61, 0
5, 21472, Note_on_c, 3, 64, 0
5, 21472, Note_on_c, 3, 69, 0
5, 21504, Note_on_c, 3, 60, 110
5, 21504, Note_on_c, 3, 64, 110
5, 21504, Note_on_c, 3, 69, 110
5, 21664, Note_on_c, 3, 60, 0
5, 21664, Note_on_c, 3, 64, 0
5, 21664, Note_on_c, 3, 69, 0
5, 21696, Note_on_c, 3, 60, 110
5, 21696, Note_on_c, 3, 64, 110
5, 21696, Note_on_c, 3, 69, 110
5, 21856, Note_on_c, 3, 60, 0
5, 21856, Note_on_c, 3, 64, 0
5, 21856, Note_on_c, 3, 69, 0
5, 21888, Note_on_c, 3, 60, 110
5, 21888, Note_on_c, 3, 64, 110
5, 21888, Note_on_c, 3, 69, 110
5, 22048, Note_on_c, 3, 60, 0
5, 22048, Note_on_c, 3, 64, 0
5, 22048, Note_on_c, 3, 69, 0
5, 22080, Note_on_c, 3, 60, 110
5, 22080, Note_on_c, 3, 64, 110
5, 22080, Note_on_c, 3, 69, 110
5, 22240, Note_on_c, 3, 60, 0
5, 22240, Note_on_c, 3, 64, 0
5, 22240, Note_on_c, 3, 69, 0
5, 22272, Note_on_c, 3, 60, 110
5, 22294, Note_on_c, 3, 60, 0
5, 22296, Note_on_c, 3, 61, 110
5, 22296, Note_on_c, 3, 64, 110
5, 22296, Note_on_c, 3, 69, 110
5, 22462, Note_on_c, 3, 61, 0
5, 22462, Note_on_c, 3, 64, 0
5, 22462, Note_on_c, 3, 69, 0
5, 22464, Note_on_c, 3, 61, 110
5, 22464, Note_on_c, 3, 64, 110
5, 22464, Note_on_c, 3, 69, 110
5, 22624, Note_on_c, 3, 61, 0
5, 22624, Note_on_c, 3, 64, 0
5, 22624, Note_on_c, 3, 69, 0
5, 22656, Note_on_c, 3, 61, 110
5, 22656, Note_on_c, 3, 64, 110
5, 22656, Note_on_c, 3, 69, 110
5, 22816, Note_on_c, 3, 61, 0
5, 22816, Note_on_c, 3, 64, 0
5, 22816, Note_on_c, 3, 69, 0
5, 22848, Note_on_c, 3, 61, 110
5, 22848, Note_on_c, 3, 64, 110
5, 22848, Note_on_c, 3, 69, 110
5, 23008, Note_on_c, 3, 61, 0
5, 23008, Note_on_c, 3, 64, 0
5, 23008, Note_on_c, 3, 69, 0
5, 23040, Note_on_c, 3, 60, 110
5, 23040, Note_on_c, 3, 64, 110
5, 23040, Note_on_c, 3, 69, 110
5, 23200, Note_on_c, 3, 60, 0
5, 23200, Note_on_c, 3, 64, 0
5, 23200, Note_on_c, 3, 69, 0
5, 23232, Note_on_c, 3, 60, 110
5, 23232, Note_on_c, 3, 64, 110
5, 23232, Note_on_c, 3, 69, 110
5, 23392, Note_on_c, 3, 60, 0
5, 23392, Note_on_c, 3, 64, 0
5, 23392, Note_on_c, 3, 69, 0
5, 23424, Note_on_c, 3, 60, 110
5, 23424, Note_on_c, 3, 64, 110
5, 23424, Note_on_c, 3, 69, 110
5, 23584, Note_on_c, 3, 60, 0
5, 23584, Note_on_c, 3, 64, 0
5, 23584, Note_on_c, 3, 69, 0
5, 23616, Note_on_c, 3, 60, 110
5, 23616, Note_on_c, 3, 64, 110
5, 23616, Note_on_c, 3, 69, 110
5, 23776, Note_on_c, 3, 60, 0
5, 23776, Note_on_c, 3, 64, 0
5, 23776, Note_on_c, 3, 69, 0
5, 23808, Note_on_c, 3, 59, 110
5, 23808, Note_on_c, 3, 62, 110
5, 23808, Note_on_c, 3, 66, 110
5, 23808, Note_on_c, 3, 68, 110
5, 23968, Note_on_c, 3, 59, 0
5, 23968, Note_on_c, 3, 62, 0
5, 23968, Note_on_c, 3, 66, 0
5, 23968, Note_on_c, 3, 68, 0
5, 24000, Note_on_c, 3, 59, 110
5, 24000, Note_on_c, 3, 62, 110
5, 24000, Note_on_c, 3, 66, 110
5, 24000, Note_on_c, 3, 68, 110
5, 24160, Note_on_c, 3, 59, 0
5, 24160, Note_on_c, 3, 62, 0
5, 24160, Note_on_c, 3, 66, 0
5, 24160, Note_on_c, 3, 68, 0
5, 24192, Note_on_c, 3, 59, 110
5, 24192, Note_on_c, 3, 62, 110
5, 24192, Note_on_c, 3, 66, 110
5, 24192, Note_on_c, 3, 68, 110
5, 24352, Note_on_c, 3, 59, 0
5, 24352, Note_on_c, 3, 62, 0
5, 24352, Note_on_c, 3, 66, 0
5, 24352, Note_on_c, 3, 68, 0
5, 24384, Note_on_c, 3, 59, 110
5, 24384, Note_on_c, 3, 62, 110
5, 24384, Note_on_c, 3, 66, 110
5, 24384, Note_on_c, 3, 68, 110
5, 24544, Note_on_c, 3, 59, 0
5, 24544, Note_on_c, 3, 62, 0
5, 24544, Note_on_c, 3, 66, 0
5, 24544, Note_on_c, 3, 68, 0
5, 24576, Note_on_c, 3, 59, 110
5, 24576, Note_on_c, 3, 62, 110
5, 24576, Note_on_c, 3, 66, 110
5, 24576, Note_on_c, 3, 68, 110
5, 24736, Note_on_c, 3, 59, 0
5, 24736, Note_on_c, 3, 62, 0
5, 24736, Note_on_c, 3, 66, 0
5, 24736, Note_on_c, 3, 68, 0
5, 24768, Note_on_c, 3, 59, 110
5, 24768, Note_on_c, 3, 62, 110
5, 24768, Note_on_c, 3, 66, 110
5, 24768, Note_on_c, 3, 68, 110
5, 24928, Note_on_c, 3, 59, 0
5, 24928, Note_on_c, 3, 62, 0
5, 24928, Note_on_c, 3, 66, 0
5, 24928, Note_on_c, 3, 68, 0
5, 24960, Note_on_c, 3, 59, 110
5, 24960, Note_on_c, 3, 62, 110
5, 24960, Note_on_c, 3, 66, 110
5, 24960, Note_on_c, 3, 68, 110
5, 25120, Note_on_c, 3, 59, 0
5, 25120, Note_on_c, 3, 62, 0
5, 25120, Note_on_c, 3, 66, 0
5, 25120, Note_on_c, 3, 68, 0
5, 25152, Note_on_c, 3, 59, 110
5, 25152, Note_on_c, 3, 62, 110
5, 25152, Note_on_c, 3, 66, 110
5, 25152, Note_on_c, 3, 68, 110
5, 25312, Note_on_c, 3, 59, 0
5, 25312, Note_on_c, 3, 62, 0
5, 25312, Note_on_c, 3, 66, 0
5, 25312, Note_on_c, 3, 68, 0
5, 25344, Note_on_c, 3, 60, 110
5, 25366, Note_on_c, 3, 60, 0
5, 25368, Note_on_c, 3, 61, 110
5, 25368, Note_on_c, 3, 64, 110
5, 25368, Note_on_c, 3, 69, 110
5, 25534, Note_on_c, 3, 61, 0
5, 25534, Note_on_c, 3, 64, 0
5, 25534, Note_on_c, 3, 69, 0
5, 25536, Note_on_c, 3, 61, 110
5, 25536, Note_on_c, 3, 64, 110
5, 25536, Note_on_c, 3, 69, 110
5, 25696, Note_on_c, 3, 61, 0
5, 25696, Note_on_c, 3, 64, 0
5, 25696, Note_on_c, 3, 69, 0
5, 25728, Note_on_c, 3, 61, 110
5, 25728, Note_on_c, 3, 64, 110
5, 25728, Note_on_c, 3, 69, 110
5, 25888, Note_on_c, 3, 61, 0
5, 25888, Note_on_c, 3, 64, 0
5, 25888, Note_on_c, 3, 69, 0
5, 25920, Note_on_c, 3, 61, 110
5, 25920, Note_on_c, 3, 64, 110
5, 25920, Note_on_c, 3, 69, 110
5, 26080, Note_on_c, 3, 61, 0
5, 26080, Note_on_c, 3, 64, 0
5, 26080, Note_on_c, 3, 69, 0
5, 26112, Note_on_c, 3, 60, 110
5, 26112, Note_on_c, 3, 64, 110
5, 26112, Note_on_c, 3, 69, 110
5, 26272, Note_on_c, 3, 60, 0
5, 26272, Note_on_c, 3, 64, 0
5, 26272, Note_on_c, 3, 69, 0
5, 26304, Note_on_c, 3, 60, 110
5, 26304, Note_on_c, 3, 64, 110
5, 26304, Note_on_c, 3, 69, 110
5, 26464, Note_on_c, 3, 60, 0
5, 26464, Note_on_c, 3, 64, 0
5, 26464, Note_on_c, 3, 69, 0
5, 26496, Note_on_c, 3, 60, 110
5, 26496, Note_on_c, 3, 64, 110
5, 26496, Note_on_c, 3, 69, 110
5, 26656, Note_on_c, 3, 60, 0
5, 26656, Note_on_c, 3, 64, 0
5, 26656, Note_on_c, 3, 69, 0
5, 26688, Note_on_c, 3, 60, 110
5, 26688, Note_on_c, 3, 64, 110
5, 26688, Note_on_c, 3, 69, 110
5, 26848, Note_on_c, 3, 60, 0
5, 26848, Note_on_c, 3, 64, 0
5, 26848, Note_on_c, 3, 69, 0
5, 26880, Note_on_c, 3, 60, 110
5, 26902, Note_on_c, 3, 60, 0
5, 26904, Note_on_c, 3, 61, 110
5, 26904, Note_on_c, 3, 64, 110
5, 26904, Note_on_c, 3, 69, 110
5, 27070, Note_on_c, 3, 61, 0
5, 27070, Note_on_c, 3, 64, 0
5, 27070, Note_on_c, 3, 69, 0
5, 27072, Note_on_c, 3, 61, 110
5, 27072, Note_on_c, 3, 64, 110
5, 27072, Note_on_c, 3, 69, 110
5, 27232, Note_on_c, 3, 61, 0
5, 27232, Note_on_c, 3, 64, 0
5, 27232, Note_on_c, 3, 69, 0
5, 27264, Note_on_c, 3, 61, 110
5, 27264, Note_on_c, 3, 64, 110
5, 27264, Note_on_c, 3, 69, 110
5, 27424, Note_on_c, 3, 61, 0
5, 27424, Note_on_c, 3, 64, 0
5, 27424, Note_on_c, 3, 69, 0
5, 27456, Note_on_c, 3, 61, 110
5, 27456, Note_on_c, 3, 64, 110
5, 27456, Note_on_c, 3, 69, 110
5, 27616, Note_on_c, 3, 61, 0
5, 27616, Note_on_c, 3, 64, 0
5, 27616, Note_on_c, 3, 69, 0
5, 27648, Note_on_c, 3, 60, 110
5, 27648, Note_on_c, 3, 64, 110
5, 27648, Note_on_c, 3, 69, 110
5, 27808, Note_on_c, 3, 60, 0
5, 27808, Note_on_c, 3, 64, 0
5, 27808, Note_on_c, 3, 69, 0
5, 27840, Note_on_c, 3, 60, 110
5, 27840, Note_on_c, 3, 64, 110
5, 27840, Note_on_c, 3, 69, 110
5, 28000, Note_on_c, 3, 60, 0
5, 28000, Note_on_c, 3, 64, 0
5, 28000, Note_on_c, 3, 69, 0
5, 28032, Note_on_c, 3, 60, 110
5, 28032, Note_on_c, 3, 64, 110
5, 28032, Note_on_c, 3, 69, 110
5, 28192, Note_on_c, 3, 60, 0
5, 28192, Note_on_c, 3, 64, 0
5, 28192, Note_on_c, 3, 69, 0
5, 28224, Note_on_c, 3, 60, 110
5, 28224, Note_on_c, 3, 64, 110
5, 28224, Note_on_c, 3, 69, 110
5, 28384, Note_on_c, 3, 60, 0
5, 28384, Note_on_c, 3, 64, 0
5, 28384, Note_on_c, 3, 69, 0
5, 28416, Note_on_c, 3, 60, 110
5, 28438, Note_on_c, 3, 60, 0
5, 28440, Note_on_c, 3, 61, 110
5, 28440, Note_on_c, 3, 64, 110
5, 28440, Note_on_c, 3, 69, 110
5, 28606, Note_on_c, 3, 61, 0
5, 28606, Note_on_c, 3, 64, 0
5, 28606, Note_on_c, 3, 69, 0
5, 28608, Note_on_c, 3, 61, 110
5, 28608, Note_on_c, 3, 64, 110
5, 28608, Note_on_c, 3, 69, 110
5, 28768, Note_on_c, 3, 61, 0
5, 28768, Note_on_c, 3, 64, 0
5, 28768, Note_on_c, 3, 69, 0
5, 28800, Note_on_c, 3, 61, 110
5, 28800, Note_on_c, 3, 64, 110
5, 28800, Note_on_c, 3, 69, 110
5, 28960, Note_on_c, 3, 61, 0
5, 28960, Note_on_c, 3, 64, 0
5, 28960, Note_on_c, 3, 69, 0
5, 28992, Note_on_c, 3, 61, 110
5, 28992, Note_on_c, 3, 64, 110
5, 28992, Note_on_c, 3, 69, 110
5, 29152, Note_on_c, 3, 61, 0
5, 29152, Note_on_c, 3, 64, 0
5, 29152, Note_on_c, 3, 69, 0
5, 29184, Note_on_c, 3, 59, 110
5, 29184, Note_on_c, 3, 62, 110
5, 29184, Note_on_c, 3, 66, 110
5, 29184, Note_on_c, 3, 68, 110
5, 29344, Note_on_c, 3, 59, 0
5, 29344, Note_on_c, 3, 62, 0
5, 29344, Note_on_c, 3, 66, 0
5, 29344, Note_on_c, 3, 68, 0
5, 29376, Note_on_c, 3, 59, 110
5, 29376, Note_on_c, 3, 62, 110
5, 29376, Note_on_c, 3, 66, 110
5, 29376, Note_on_c, 3, 68, 110
5, 29536, Note_on_c, 3, 59, 0
5, 29536, Note_on_c, 3, 62, 0
5, 29536, Note_on_c, 3, 66, 0
5, 29536, Note_on_c, 3, 68, 0
5, 29568, Note_on_c, 3, 59, 110
5, 29568, Note_on_c, 3, 62, 110
5, 29568, Note_on_c, 3, 66, 110
5, 29568, Note_on_c, 3, 68, 110
5, 29728, Note_on_c, 3, 59, 0
5, 29728, Note_on_c, 3, 62, 0
5, 29728, Note_on_c, 3, 66, 0
5, 29728, Note_on_c, 3, 68, 0
5, 29760, Note_on_c, 3, 59, 110
5, 29760, Note_on_c, 3, 62, 110
5, 29760, Note_on_c, 3, 66, 110
5, 29760, Note_on_c, 3, 68, 110
5, 29920, Note_on_c, 3, 59, 0
5, 29920, Note_on_c, 3, 62, 0
5, 29920, Note_on_c, 3, 66, 0
5, 29920, Note_on_c, 3, 68, 0
5, 29952, Note_on_c, 3, 59, 110
5, 29952, Note_on_c, 3, 62, 110
5, 29952, Note_on_c, 3, 65, 110
5, 29952, Note_on_c, 3, 69, 110
5, 30112, Note_on_c, 3, 59, 0
5, 30112, Note_on_c, 3, 62, 0
5, 30112, Note_on_c, 3, 65, 0
5, 30112, Note_on_c, 3, 69, 0
5, 30144, Note_on_c, 3, 59, 110
5, 30144, Note_on_c, 3, 62, 110
5, 30144, Note_on_c, 3, 65, 110
5, 30144, Note_on_c, 3, 69, 110
5, 30304, Note_on_c, 3, 59, 0
5, 30304, Note_on_c, 3, 62, 0
5, 30304, Note_on_c, 3, 65, 0
5, 30304, Note_on_c, 3, 69, 0
5, 30336, Note_on_c, 3, 59, 110
5, 30336, Note_on_c, 3, 62, 110
5, 30336, Note_on_c, 3, 65, 110
5, 30336, Note_on_c, 3, 69, 110
5, 30496, Note_on_c, 3, 59, 0
5, 30496, Note_on_c, 3, 62, 0
5, 30496, Note_on_c, 3, 65, 0
5, 30496, Note_on_c, 3, 69, 0
5, 30528, Note_on_c, 3, 59, 110
5, 30528, Note_on_c, 3, 62, 110
5, 30528, Note_on_c, 3, 65, 110
5, 30528, Note_on_c, 3, 69, 110
5, 30688, Note_on_c, 3, 59, 0
5, 30688, Note_on_c, 3, 62, 0
5, 30688, Note_on_c, 3, 65, 0
5, 30688, Note_on_c, 3, 69, 0
5, 30720, Note_on_c, 3, 59, 110
5, 30720, Note_on_c, 3, 62, 110
5, 30720, Note_on_c, 3, 65, 110
5, 30720, Note_on_c, 3, 69, 110
5, 30880, Note_on_c, 3, 59, 0
5, 30880, Note_on_c, 3, 62, 0
5, 30880, Note_on_c, 3, 65, 0
5, 30880, Note_on_c, 3, 69, 0
5, 30912, Note_on_c, 3, 59, 110
5, 30912, Note_on_c, 3, 62, 110
5, 30912, Note_on_c, 3, 65, 110
5, 30912, Note_on_c, 3, 69, 110
5, 31072, Note_on_c, 3, 59, 0
5, 31072, Note_on_c, 3, 62, 0
5, 31072, Note_on_c, 3, 65, 0
5, 31072, Note_on_c, 3, 69, 0
5, 31104, Note_on_c, 3, 59, 110
5, 31104, Note_on_c, 3, 62, 110
5, 31104, Note_on_c, 3, 65, 110
5, 31104, Note_on_c, 3, 69, 110
5, 31264, Note_on_c, 3, 59, 0
5, 31264, Note_on_c, 3, 62, 0
5, 31264, Note_on_c, 3, 65, 0
5, 31264, Note_on_c, 3, 69, 0
5, 31296, Note_on_c, 3, 59, 110
5, 31296, Note_on_c, 3, 62, 110
5, 31296, Note_on_c, 3, 65, 110
5, 31296, Note_on_c, 3, 69, 110
5, 31456, Note_on_c, 3, 59, 0
5, 31456, Note_on_c, 3, 62, 0
5, 31456, Note_on_c, 3, 65, 0
5, 31456, Note_on_c, 3, 69, 0
5, 31488, Control_c, 3, 7, 83
5, 31488, Control_c, 3, 7, 83
5, 31488, Note_on_c, 3, 60, 110
5, 31510, Note_on_c, 3, 60, 0
5, 31512, Note_on_c, 3, 61, 110
5, 31512, Note_on_c, 3, 64, 110
5, 31512, Note_on_c, 3, 69, 110
5, 31678, Note_on_c, 3, 61, 0
5, 31678, Note_on_c, 3, 64, 0
5, 31678, Note_on_c, 3, 69, 0
5, 31680, Note_on_c, 3, 61, 110
5, 31680, Note_on_c, 3, 64, 110
5, 31680, Note_on_c, 3, 69, 110
5, 31840, Note_on_c, 3, 61, 0
5, 31840, Note_on_c, 3, 64, 0
5, 31840, Note_on_c, 3, 69, 0
5, 31872, Note_on_c, 3, 61, 110
5, 31872, Note_on_c, 3, 64, 110
5, 31872, Note_on_c, 3, 69, 110
5, 32032, Note_on_c, 3, 61, 0
5, 32032, Note_on_c, 3, 64, 0
5, 32032, Note_on_c, 3, 69, 0
5, 32064, Note_on_c, 3, 61, 110
5, 32064, Note_on_c, 3, 64, 110
5, 32064, Note_on_c, 3, 69, 110
5, 32224, Note_on_c, 3, 61, 0
5, 32224, Note_on_c, 3, 64, 0
5, 32224, Note_on_c, 3, 69, 0
5, 32256, Note_on_c, 3, 60, 110
5, 32256, Note_on_c, 3, 64, 110
5, 32256, Note_on_c, 3, 69, 110
5, 32416, Note_on_c, 3, 60, 0
5, 32416, Note_on_c, 3, 64, 0
5, 32416, Note_on_c, 3, 69, 0
5, 32448, Note_on_c, 3, 60, 110
5, 32448, Note_on_c, 3, 64, 110
5, 32448, Note_on_c, 3, 69, 110
5, 32608, Note_on_c, 3, 60, 0
5, 32608, Note_on_c, 3, 64, 0
5, 32608, Note_on_c, 3, 69, 0
5, 32640, Note_on_c, 3, 60, 110
5, 32640, Note_on_c, 3, 64, 110
5, 32640, Note_on_c, 3, 69, 110
5, 32800, Note_on_c, 3, 60, 0
5, 32800, Note_on_c, 3, 64, 0
5, 32800, Note_on_c, 3, 69, 0
5, 32832, Note_on_c, 3, 60, 110
5, 32832, Note_on_c, 3, 64, 110
5, 32832, Note_on_c, 3, 69, 110
5, 32992, Note_on_c, 3, 60, 0
5, 32992, Note_on_c, 3, 64, 0
5, 32992, Note_on_c, 3, 69, 0
5, 33024, Note_on_c, 3, 60, 110
5, 33046, Note_on_c, 3, 60, 0
5, 33048, Note_on_c, 3, 61, 110
5, 33048, Note_on_c, 3, 64, 110
5, 33048, Note_on_c, 3, 69, 110
5, 33214, Note_on_c, 3, 61, 0
5, 33214, Note_on_c, 3, 64, 0
5, 33214, Note_on_c, 3, 69, 0
5, 33216, Note_on_c, 3, 61, 110
5, 33216, Note_on_c, 3, 64, 110
5, 33216, Note_on_c, 3, 69, 110
5, 33376, Note_on_c, 3, 61, 0
5, 33376, Note_on_c, 3, 64, 0
5, 33376, Note_on_c, 3, 69, 0
5, 33408, Note_on_c, 3, 61, 110
5, 33408, Note_on_c, 3, 64, 110
5, 33408, Note_on_c, 3, 69, 110
5, 33568, Note_on_c, 3, 61, 0
5, 33568, Note_on_c, 3, 64, 0
5, 33568, Note_on_c, 3, 69, 0
5, 33600, Note_on_c, 3, 61, 110
5, 33600, Note_on_c, 3, 64, 110
5, 33600, Note_on_c, 3, 69, 110
5, 33760, Note_on_c, 3, 61, 0
5, 33760, Note_on_c, 3, 64, 0
5, 33760, Note_on_c, 3, 69, 0
5, 33792, Note_on_c, 3, 60, 110
5, 33792, Note_on_c, 3, 64, 110
5, 33792, Note_on_c, 3, 69, 110
5, 33952, Note_on_c, 3, 60, 0
5, 33952, Note_on_c, 3, 64, 0
5, 33952, Note_on_c, 3, 69, 0
5, 33984, Note_on_c, 3, 60, 110
5, 33984, Note_on_c, 3, 64, 110
5, 33984, Note_on_c, 3, 69, 110
5, 34144, Note_on_c, 3, 60, 0
5, 34144, Note_on_c, 3, 64, 0
5, 34144, Note_on_c, 3, 69, 0
5, 34176, Note_on_c, 3, 60, 110
5, 34176, Note_on_c, 3, 64, 110
5, 34176, Note_on_c, 3, 69, 110
5, 34336, Note_on_c, 3, 60, 0
5, 34336, Note_on_c, 3, 64, 0
5, 34336, Note_on_c, 3, 69, 0
5, 34368, Note_on_c, 3, 60, 110
5, 34368, Note_on_c, 3, 64, 110
5, 34368, Note_on_c, 3, 69, 110
5, 34528, Note_on_c, 3, 60, 0
5, 34528, Note_on_c, 3, 64, 0
5, 34528, Note_on_c, 3, 69, 0
5, 34560, Note_on_c, 3, 60, 110
5, 34582, Note_on_c, 3, 60, 0
5, 34584, Note_on_c, 3, 61, 110
5, 34584, Note_on_c, 3, 64, 110
5, 34584, Note_on_c, 3, 69, 110
5, 34750, Note_on_c, 3, 61, 0
5, 34750, Note_on_c, 3, 64, 0
5, 34750, Note_on_c, 3, 69, 0
5, 34752, Note_on_c, 3, 61, 110
5, 34752, Note_on_c, 3, 64, 110
5, 34752, Note_on_c, 3, 69, 110
5, 34912, Note_on_c, 3, 61, 0
5, 34912, Note_on_c, 3, 64, 0
5, 34912, Note_on_c, 3, 69, 0
5, 34944, Note_on_c, 3, 61, 110
5, 34944, Note_on_c, 3, 64, 110
5, 34944, Note_on_c, 3, 69, 110
5, 35104, Note_on_c, 3, 61, 0
5, 35104, Note_on_c, 3, 64, 0
5, 35104, Note_on_c, 3, 69, 0
5, 35136, Note_on_c, 3, 61, 110
5, 35136, Note_on_c, 3, 64, 110
5, 35136, Note_on_c, 3, 69, 110
5, 35296, Note_on_c, 3, 61, 0
5, 35296, Note_on_c, 3, 64, 0
5, 35296, Note_on_c, 3, 69, 0
5, 35328, Note_on_c, 3, 60, 110
5, 35328, Note_on_c, 3, 64, 110
5, 35328, Note_on_c, 3, 69, 110
5, 35488, Note_on_c, 3, 60, 0
5, 35488, Note_on_c, 3, 64, 0
5, 35488, Note_on_c, 3, 69, 0
5, 35520, Note_on_c, 3, 60, 110
5, 35520, Note_on_c, 3, 64, 110
5, 35520, Note_on_c, 3, 69, 110
5, 35680, Note_on_c, 3, 60, 0
5, 35680, Note_on_c, 3, 64, 0
5, 35680, Note_on_c, 3, 69, 0
5, 35712, Note_on_c, 3, 60, 110
5, 35712, Note_on_c, 3, 64, 110
5, 35712, Note_on_c, 3, 69, 110
5, 35872, Note_on_c, 3, 60, 0
5, 35872, Note_on_c, 3, 64, 0
5, 35872, Note_on_c, 3, 69, 0
5, 35904, Note_on_c, 3, 60, 110
5, 35904, Note_on_c, 3, 64, 110
5, 35904, Note_on_c, 3, 69, 110
5, 36064, Note_on_c, 3, 60, 0
5, 36064, Note_on_c, 3, 64, 0
5, 36064, Note_on_c, 3, 69, 0
5, 36096, Note_on_c, 3, 59, 110
5, 36096, Note_on_c, 3, 62, 110
5, 36096, Note_on_c, 3, 66, 110
5, 36096, Note_on_c, 3, 68, 110
5, 36256, Note_on_c, 3, 59, 0
5, 36256, Note_on_c, 3, 62, 0
5, 36256, Note_on_c, 3, 66, 0
5, 36256, Note_on_c, 3, 68, 0
5, 36288, Note_on_c, 3, 59, 110
5, 36288, Note_on_c, 3, 62, 110
5, 36288, Note_on_c, 3, 66, 110
5, 36288, Note_on_c, 3, 68, 110
5, 36448, Note_on_c, 3, 59, 0
5, 36448, Note_on_c, 3, 62, 0
5, 36448, Note_on_c, 3, 66, 0
5, 36448, Note_on_c, 3, 68, 0
5, 36480, Note_on_c, 3, 59, 110
5, 36480, Note_on_c, 3, 62, 110
5, 36480, Note_on_c, 3, 66, 110
5, 36480, Note_on_c, 3, 68, 110
5, 36640, Note_on_c, 3, 59, 0
5, 36640, Note_on_c, 3, 62, 0
5, 36640, Note_on_c, 3, 66, 0
5, 36640, Note_on_c, 3, 68, 0
5, 36672, Note_on_c, 3, 59, 110
5, 36672, Note_on_c, 3, 62, 110
5, 36672, Note_on_c, 3, 66, 110
5, 36672, Note_on_c, 3, 68, 110
5, 36832, Note_on_c, 3, 59, 0
5, 36832, Note_on_c, 3, 62, 0
5, 36832, Note_on_c, 3, 66, 0
5, 36832, Note_on_c, 3, 68, 0
5, 36864, Note_on_c, 3, 59, 110
5, 36864, Note_on_c, 3, 62, 110
5, 36864, Note_on_c, 3, 66, 110
5, 36864, Note_on_c, 3, 68, 110
5, 37024, Note_on_c, 3, 59, 0
5, 37024, Note_on_c, 3, 62, 0
5, 37024, Note_on_c, 3, 66, 0
5, 37024, Note_on_c, 3, 68, 0
5, 37056, Note_on_c, 3, 59, 110
5, 37056, Note_on_c, 3, 62, 110
5, 37056, Note_on_c, 3, 66, 110
5, 37056, Note_on_c, 3, 68, 110
5, 37216, Note_on_c, 3, 59, 0
5, 37216, Note_on_c, 3, 62, 0
5, 37216, Note_on_c, 3, 66, 0
5, 37216, Note_on_c, 3, 68, 0
5, 37248, Note_on_c, 3, 59, 110
5, 37248, Note_on_c, 3, 62, 110
5, 37248, Note_on_c, 3, 66, 110
5, 37248, Note_on_c, 3, 68, 110
5, 37408, Note_on_c, 3, 59, 0
5, 37408, Note_on_c, 3, 62, 0
5, 37408, Note_on_c, 3, 66, 0
5, 37408, Note_on_c, 3, 68, 0
5, 37440, Note_on_c, 3, 59, 110
5, 37440, Note_on_c, 3, 62, 110
5, 37440, Note_on_c, 3, 66, 110
5, 37440, Note_on_c, 3, 68, 110
5, 37600, Note_on_c, 3, 59, 0
5, 37600, Note_on_c, 3, 62, 0
5, 37600, Note_on_c, 3, 66, 0
5, 37600, Note_on_c, 3, 68, 0
5, 37632, Note_on_c, 3, 60, 110
5, 37654, Note_on_c, 3, 60, 0
5, 37656, Note_on_c, 3, 61, 110
5, 37656, Note_on_c, 3, 64, 110
5, 37656, Note_on_c, 3, 69, 110
5, 37822, Note_on_c, 3, 61, 0
5, 37822, Note_on_c, 3, 64, 0
5, 37822, Note_on_c, 3, 69, 0
5, 37824, Note_on_c, 3, 61, 110
5, 37824, Note_on_c, 3, 64, 110
5, 37824, Note_on_c, 3, 69, 110
5, 37984, Note_on_c, 3, 61, 0
5, 37984, Note_on_c, 3, 64, 0
5, 37984, Note_on_c, 3, 69, 0
5, 38016, Note_on_c, 3, 61, 110
5, 38016, Note_on_c, 3, 64, 110
5, 38016, Note_on_c, 3, 69, 110
5, 38176, Note_on_c, 3, 61, 0
5, 38176, Note_on_c, 3, 64, 0
5, 38176, Note_on_c, 3, 69, 0
5, 38208, Note_on_c, 3, 61, 110
5, 38208, Note_on_c, 3, 64, 110
5, 38208, Note_on_c, 3, 69, 110
5, 38368, Note_on_c, 3, 61, 0
5, 38368, Note_on_c, 3, 64, 0
5, 38368, Note_on_c, 3, 69, 0
5, 38400, Note_on_c, 3, 60, 110
5, 38400, Note_on_c, 3, 64, 110
5, 38400, Note_on_c, 3, 69, 110
5, 38560, Note_on_c, 3, 60, 0
5, 38560, Note_on_c, 3, 64, 0
5, 38560, Note_on_c, 3, 69, 0
5, 38592, Note_on_c, 3, 60, 110
5, 38592, Note_on_c, 3, 64, 110
5, 38592, Note_on_c, 3, 69, 110
5, 38752, Note_on_c, 3, 60, 0
5, 38752, Note_on_c, 3, 64, 0
5, 38752, Note_on_c, 3, 69, 0
5, 38784, Note_on_c, 3, 60, 110
5, 38784, Note_on_c, 3, 64, 110
5, 38784, Note_on_c, 3, 69, 110
5, 38944, Note_on_c, 3, 60, 0
5, 38944, Note_on_c, 3, 64, 0
5, 38944, Note_on_c, 3, 69, 0
5, 38976, Note_on_c, 3, 60, 110
5, 38976, Note_on_c, 3, 64, 110
5, 38976, Note_on_c, 3, 69, 110
5, 39136, Note_on_c, 3, 60, 0
5, 39136, Note_on_c, 3, 64, 0
5, 39136, Note_on_c, 3, 69, 0
5, 39168, Note_on_c, 3, 60, 110
5, 39190, Note_on_c, 3, 60, 0
5, 39192, Note_on_c, 3, 61, 110
5, 39192, Note_on_c, 3, 64, 110
5, 39192, Note_on_c, 3, 69, 110
5, 39358, Note_on_c, 3, 61, 0
5, 39358, Note_on_c, 3, 64, 0
5, 39358, Note_on_c, 3, 69, 0
5, 39360, Note_on_c, 3, 61, 110
5, 39360, Note_on_c, 3, 64, 110
5, 39360, Note_on_c, 3, 69, 110
5, 39520, Note_on_c, 3, 61, 0
5, 39520, Note_on_c, 3, 64, 0
5, 39520, Note_on_c, 3, 69, 0
5, 39552, Note_on_c, 3, 61, 110
5, 39552, Note_on_c, 3, 64, 110
5, 39552, Note_on_c, 3, 69, 110
5, 39712, Note_on_c, 3, 61, 0
5, 39712, Note_on_c, 3, 64, 0
5, 39712, Note_on_c, 3, 69, 0
5, 39744, Note_on_c, 3, 61, 110
5, 39744, Note_on_c, 3, 64, 110
5, 39744, Note_on_c, 3, 69, 110
5, 39904, Note_on_c, 3, 61, 0
5, 39904, Note_on_c, 3, 64, 0
5, 39904, Note_on_c, 3, 69, 0
5, 39936, Note_on_c, 3, 60, 110
5, 39936, Note_on_c, 3, 64, 110
5, 39936, Note_on_c, 3, 69, 110
5, 40096, Note_on_c, 3, 60, 0
5, 40096, Note_on_c, 3, 64, 0
5, 40096, Note_on_c, 3, 69, 0
5, 40128, Note_on_c, 3, 60, 110
5, 40128, Note_on_c, 3, 64, 110
5, 40128, Note_on_c, 3, 69, 110
5, 40288, Note_on_c, 3, 60, 0
5, 40288, Note_on_c, 3, 64, 0
5, 40288, Note_on_c, 3, 69, 0
5, 40320, Note_on_c, 3, 60, 110
5, 40320, Note_on_c, 3, 64, 110
5, 40320, Note_on_c, 3, 69, 110
5, 40480, Note_on_c, 3, 60, 0
5, 40480, Note_on_c, 3, 64, 0
5, 40480, Note_on_c, 3, 69, 0
5, 40512, Note_on_c, 3, 60, 110
5, 40512, Note_on_c, 3, 64, 110
5, 40512, Note_on_c, 3, 69, 110
5, 40672, Note_on_c, 3, 60, 0
5, 40672, Note_on_c, 3, 64, 0
5, 40672, Note_on_c, 3, 69, 0
5, 40704, Note_on_c, 3, 60, 110
5, 40726, Note_on_c, 3, 60, 0
5, 40728, Note_on_c, 3, 61, 110
5, 40728, Note_on_c, 3, 64, 110
5, 40728, Note_on_c, 3, 69, 110
5, 40894, Note_on_c, 3, 61, 0
5, 40894, Note_on_c, 3, 64, 0
5, 40894, Note_on_c, 3, 69, 0
5, 40896, Note_on_c, 3, 61, 110
5, 40896, Note_on_c, 3, 64, 110
5, 40896, Note_on_c, 3, 69, 110
5, 41056, Note_on_c, 3, 61, 0
5, 41056, Note_on_c, 3, 64, 0
5, 41056, Note_on_c, 3, 69, 0
5, 41088, Note_on_c, 3, 61, 110
5, 41088, Note_on_c, 3, 64, 110
5, 41088, Note_on_c, 3, 69, 110
5, 41248, Note_on_c, 3, 61, 0
5, 41248, Note_on_c, 3, 64, 0
5, 41248, Note_on_c, 3, 69, 0
5, 41280, Note_on_c, 3, 61, 110
5, 41280, Note_on_c, 3, 64, 110
5, 41280, Note_on_c, 3, 69, 110
5, 41440, Note_on_c, 3, 61, 0
5, 41440, Note_on_c, 3, 64, 0
5, 41440, Note_on_c, 3, 69, 0
5, 41472, Note_on_c, 3, 59, 110
5, 41472, Note_on_c, 3, 62, 110
5, 41472, Note_on_c, 3, 66, 110
5, 41472, Note_on_c, 3, 68, 110
5, 41632, Note_on_c, 3, 59, 0
5, 41632, Note_on_c, 3, 62, 0
5, 41632, Note_on_c, 3, 66, 0
5, 41632, Note_on_c, 3, 68, 0
5, 41664, Note_on_c, 3, 59, 110
5, 41664, Note_on_c, 3, 62, 110
5, 41664, Note_on_c, 3, 66, 110
5, 41664, Note_on_c, 3, 68, 110
5, 41824, Note_on_c, 3, 59, 0
5, 41824, Note_on_c, 3, 62, 0
5, 41824, Note_on_c, 3, 66, 0
5, 41824, Note_on_c, 3, 68, 0
5, 41856, Note_on_c, 3, 59, 110
5, 41856, Note_on_c, 3, 62, 110
5, 41856, Note_on_c, 3, 66, 110
5, 41856, Note_on_c, 3, 68, 110
5, 42016, Note_on_c, 3, 59, 0
5, 42016, Note_on_c, 3, 62, 0
5, 42016, Note_on_c, 3, 66, 0
5, 42016, Note_on_c, 3, 68, 0
5, 42048, Note_on_c, 3, 59, 110
5, 42048, Note_on_c, 3, 62, 110
5, 42048, Note_on_c, 3, 66, 110
5, 42048, Note_on_c, 3, 68, 110
5, 42208, Note_on_c, 3, 59, 0
5, 42208, Note_on_c, 3, 62, 0
5, 42208, Note_on_c, 3, 66, 0
5, 42208, Note_on_c, 3, 68, 0
5, 42240, Note_on_c, 3, 57, 110
5, 42240, Note_on_c, 3, 62, 110
5, 42240, Note_on_c, 3, 64, 110
5, 42240, Note_on_c, 3, 67, 110
5, 42400, Note_on_c, 3, 57, 0
5, 42400, Note_on_c, 3, 62, 0
5, 42400, Note_on_c, 3, 64, 0
5, 42400, Note_on_c, 3, 67, 0
5, 42432, Note_on_c, 3, 57, 110
5, 42432, Note_on_c, 3, 62, 110
5, 42432, Note_on_c, 3, 64, 110
5, 42432, Note_on_c, 3, 67, 110
5, 42592, Note_on_c, 3, 57, 0
5, 42592, Note_on_c, 3, 62, 0
5, 42592, Note_on_c, 3, 64, 0
5, 42592, Note_on_c, 3, 67, 0
5, 42624, Note_on_c, 3, 57, 110
5, 42624, Note_on_c, 3, 62, 110
5, 42624, Note_on_c, 3, 64, 110
5, 42624, Note_on_c, 3, 67, 110
5, 42784, Note_on_c, 3, 57, 0
5, 42784, Note_on_c, 3, 62, 0
5, 42784, Note_on_c, 3, 64, 0
5, 42784, Note_on_c, 3, 67, 0
5, 42816, Note_on_c, 3, 57, 110
5, 42816, Note_on_c, 3, 62, 110
5, 42816, Note_on_c, 3, 64, 110
5, 42816, Note_on_c, 3, 67, 110
5, 42976, Note_on_c, 3, 57, 0
5, 42976, Note_on_c, 3, 62, 0
5, 42976, Note_on_c, 3, 64, 0
5, 42976, Note_on_c, 3, 67, 0
5, 43008, Note_on_c, 3, 57, 110
5, 43008, Note_on_c, 3, 62, 110
5, 43008, Note_on_c, 3, 64, 110
5, 43008, Note_on_c, 3, 67, 110
5, 43168, Note_on_c, 3, 57, 0
5, 43168, Note_on_c, 3, 62, 0
5, 43168, Note_on_c, 3, 64, 0
5, 43168, Note_on_c, 3, 67, 0
5, 43200, Note_on_c, 3, 57, 110
5, 43200, Note_on_c, 3, 62, 110
5, 43200, Note_on_c, 3, 64, 110
5, 43200, Note_on_c, 3, 67, 110
5, 43360, Note_on_c, 3, 57, 0
5, 43360, Note_on_c, 3, 62, 0
5, 43360, Note_on_c, 3, 64, 0
5, 43360, Note_on_c, 3, 67, 0
5, 43392, Note_on_c, 3, 57, 110
5, 43392, Note_on_c, 3, 62, 110
5, 43392, Note_on_c, 3, 64, 110
5, 43392, Note_on_c, 3, 67, 110
5, 43552, Note_on_c, 3, 57, 0
5, 43552, Note_on_c, 3, 62, 0
5, 43552, Note_on_c, 3, 64, 0
5, 43552, Note_on_c, 3, 67, 0
5, 43584, Note_on_c, 3, 57, 110
5, 43584, Note_on_c, 3, 62, 110
5, 43584, Note_on_c, 3, 64, 110
5, 43584, Note_on_c, 3, 67, 110
5, 43744, Note_on_c, 3, 57, 0
5, 43744, Note_on_c, 3, 62, 0
5, 43744, Note_on_c, 3, 64, 0
5, 43744, Note_on_c, 3, 67, 0
5, 43776, Note_on_c, 3, 59, 110
5, 43776, Note_on_c, 3, 62, 110
5, 43776, Note_on_c, 3, 67, 110
5, 43936, Note_on_c, 3, 59, 0
5, 43936, Note_on_c, 3, 62, 0
5, 43936, Note_on_c, 3, 67, 0
5, 43968, Note_on_c, 3, 59, 110
5, 43968, Note_on_c, 3, 62, 110
5, 43968, Note_on_c, 3, 67, 110
5, 44128, Note_on_c, 3, 59, 0
5, 44128, Note_on_c, 3, 62, 0
5, 44128, Note_on_c, 3, 67, 0
5, 44160, Note_on_c, 3, 59, 110
5, 44160, Note_on_c, 3, 62, 110
5, 44160, Note_on_c, 3, 67, 110
5, 44320, Note_on_c, 3, 59, 0
5, 44320, Note_on_c, 3, 62, 0
5, 44320, Note_on_c, 3, 67, 0
5, 44352, Note_on_c, 3, 59, 110
5, 44352, Note_on_c, 3, 62, 110
5, 44352, Note_on_c, 3, 67, 110
5, 44512, Note_on_c, 3, 59, 0
5, 44512, Note_on_c, 3, 62, 0
5, 44512, Note_on_c, 3, 67, 0
5, 44544, Note_on_c, 3, 57, 110
5, 44544, Note_on_c, 3, 62, 110
5, 44544, Note_on_c, 3, 66, 110
5, 44704, Note_on_c, 3, 57, 0
5, 44704, Note_on_c, 3, 62, 0
5, 44704, Note_on_c, 3, 66, 0
5, 44736, Note_on_c, 3, 57, 110
5, 44736, Note_on_c, 3, 62, 110
5, 44736, Note_on_c, 3, 66, 110
5, 44896, Note_on_c, 3, 57, 0
5, 44896, Note_on_c, 3, 62, 0
5, 44896, Note_on_c, 3, 66, 0
5, 44928, Note_on_c, 3, 57, 110
5, 44928, Note_on_c, 3, 62, 110
5, 44928, Note_on_c, 3, 66, 110
5, 45088, Note_on_c, 3, 57, 0
5, 45088, Note_on_c, 3, 62, 0
5, 45088, Note_on_c, 3, 66, 0
5, 45120, Note_on_c, 3, 57, 110
5, 45120, Note_on_c, 3, 62, 110
5, 45120, Note_on_c, 3, 66, 110
5, 45280, Note_on_c, 3, 57, 0
5, 45280, Note_on_c, 3, 62, 0
5, 45280, Note_on_c, 3, 66, 0
5, 45312, Note_on_c, 3, 61, 110
5, 45312, Note_on_c, 3, 64, 110
5, 45312, Note_on_c, 3, 69, 110
5, 45472, Note_on_c, 3, 61, 0
5, 45472, Note_on_c, 3, 64, 0
5, 45472, Note_on_c, 3, 69, 0
5, 45504, Note_on_c, 3, 61, 110
5, 45504, Note_on_c, 3, 64, 110
5, 45504, Note_on_c, 3, 69, 110
5, 45664, Note_on_c, 3, 61, 0
5, 45664, Note_on_c, 3, 64, 0
5, 45664, Note_on_c, 3, 69, 0
5, 45696, Note_on_c, 3, 61, 110
5, 45696, Note_on_c, 3, 64, 110
5, 45696, Note_on_c, 3, 69, 110
5, 45856, Note_on_c, 3, 61, 0
5, 45856, Note_on_c, 3, 64, 0
5, 45856, Note_on_c, 3, 69, 0
5, 45888, Note_on_c, 3, 61, 110
5, 45888, Note_on_c, 3, 64, 110
5, 45888, Note_on_c, 3, 69, 110
5, 46048, Note_on_c, 3, 61, 0
5, 46048, Note_on_c, 3, 64, 0
5, 46048, Note_on_c, 3, 69, 0
5, 46080, Note_on_c, 3, 61, 110
5, 46080, Note_on_c, 3, 64, 110
5, 46080, Note_on_c, 3, 69, 110
5, 46240, Note_on_c, 3, 61, 0
5, 46240, Note_on_c, 3, 64, 0
5, 46240, Note_on_c, 3, 69, 0
5, 46272, Note_on_c, 3, 61, 110
5, 46272, Note_on_c, 3, 64, 110
5, 46272, Note_on_c, 3, 69, 110
5, 46432, Note_on_c, 3, 61, 0
5, 46432, Note_on_c, 3, 64, 0
5, 46432, Note_on_c, 3, 69, 0
5, 46464, Note_on_c, 3, 61, 110
5, 46464, Note_on_c, 3, 64, 110
5, 46464, Note_on_c, 3, 69, 110
5, 46624, Note_on_c, 3, 61, 0
5, 46624, Note_on_c, 3, 64, 0
5, 46624, Note_on_c, 3, 69, 0
5, 46656, Note_on_c, 3, 61, 110
5, 46656, Note_on_c, 3, 64, 110
5, 46656, Note_on_c, 3, 69, 110
5, 46816, Note_on_c, 3, 61, 0
5, 46816, Note_on_c, 3, 64, 0
5, 46816, Note_on_c, 3, 69, 0
5, 46848, Note_on_c, 3, 59, 110
5, 46848, Note_on_c, 3, 62, 110
5, 46848, Note_on_c, 3, 67, 110
5, 47008, Note_on_c, 3, 59, 0
5, 47008, Note_on_c, 3, 62, 0
5, 47008, Note_on_c, 3, 67, 0
5, 47040, Note_on_c, 3, 59, 110
5, 47040, Note_on_c, 3, 62, 110
5, 47040, Note_on_c, 3, 67, 110
5, 47200, Note_on_c, 3, 59, 0
5, 47200, Note_on_c, 3, 62, 0
5, 47200, Note_on_c, 3, 67, 0
5, 47232, Note_on_c, 3, 59, 110
5, 47232, Note_on_c, 3, 62, 110
5, 47232, Note_on_c, 3, 67, 110
5, 47392, Note_on_c, 3, 59, 0
5, 47392, Note_on_c, 3, 62, 0
5, 47392, Note_on_c, 3, 67, 0
5, 47424, Note_on_c, 3, 59, 110
5, 47424, Note_on_c, 3, 62, 110
5, 47424, Note_on_c, 3, 67, 110
5, 47584, Note_on_c, 3, 59, 0
5, 47584, Note_on_c, 3, 62, 0
5, 47584, Note_on_c, 3, 67, 0
5, 47616, Note_on_c, 3, 57, 110
5, 47616, Note_on_c, 3, 62, 110
5, 47616, Note_on_c, 3, 66, 110
5, 47776, Note_on_c, 3, 57, 0
5, 47776, Note_on_c, 3, 62, 0
5, 47776, Note_on_c, 3, 66, 0
5, 47808, Note_on_c, 3, 57, 110
5, 47808, Note_on_c, 3, 62, 110
5, 47808, Note_on_c, 3, 66, 110
5, 47968, Note_on_c, 3, 57, 0
5, 47968, Note_on_c, 3, 62, 0
5, 47968, Note_on_c, 3, 66, 0
5, 48000, Note_on_c, 3, 57, 110
5, 48000, Note_on_c, 3, 62, 110
5, 48000, Note_on_c, 3, 66, 110
5, 48160, Note_on_c, 3, 57, 0
5, 48160, Note_on_c, 3, 62, 0
5, 48160, Note_on_c, 3, 66, 0
5, 48192, Note_on_c, 3, 57, 110
5, 48192, Note_on_c, 3, 62, 110
5, 48192, Note_on_c, 3, 66, 110
5, 48352, Note_on_c, 3, 57, 0
5, 48352, Note_on_c, 3, 62, 0
5, 48352, Note_on_c, 3, 66, 0
5, 48384, Note_on_c, 3, 61, 110
5, 48384, Note_on_c, 3, 64, 110
5, 48384, Note_on_c, 3, 69, 110
5, 48544, Note_on_c, 3, 61, 0
5, 48544, Note_on_c, 3, 64, 0
5, 48544, Note_on_c, 3, 69, 0
5, 48576, Note_on_c, 3, 61, 110
5, 48576, Note_on_c, 3, 64, 110
5, 48576, Note_on_c, 3, 69, 110
5, 48736, Note_on_c, 3, 61, 0
5, 48736, Note_on_c, 3, 64, 0
5, 48736, Note_on_c, 3, 69, 0
5, 48768, Note_on_c, 3, 61, 110
5, 48768, Note_on_c, 3, 64, 110
5, 48768, Note_on_c, 3, 69, 110
5, 48928, Note_on_c, 3, 61, 0
5, 48928, Note_on_c, 3, 64, 0
5, 48928, Note_on_c, 3, 69, 0
5, 48960, Note_on_c, 3, 61, 110
5, 48960, Note_on_c, 3, 64, 110
5, 48960, Note_on_c, 3, 69, 110
5, 49120, Note_on_c, 3, 61, 0
5, 49120, Note_on_c, 3, 64, 0
5, 49120, Note_on_c, 3, 69, 0
5, 49152, Note_on_c, 3, 61, 110
5, 49152, Note_on_c, 3, 64, 110
5, 49152, Note_on_c, 3, 69, 110
5, 49312, Note_on_c, 3, 61, 0
5, 49312, Note_on_c, 3, 64, 0
5, 49312, Note_on_c, 3, 69, 0
5, 49344, Note_on_c, 3, 61, 110
5, 49344, Note_on_c, 3, 64, 110
5, 49344, Note_on_c, 3, 69, 110
5, 49504, Note_on_c, 3, 61, 0
5, 49504, Note_on_c, 3, 64, 0
5, 49504, Note_on_c, 3, 69, 0
5, 49536, Note_on_c, 3, 61, 110
5, 49536, Note_on_c, 3, 64, 110
5, 49536, Note_on_c, 3, 69, 110
5, 49696, Note_on_c, 3, 61, 0
5, 49696, Note_on_c, 3, 64, 0
5, 49696, Note_on_c, 3, 69, 0
5, 49728, Note_on_c, 3, 61, 110
5, 49728, Note_on_c, 3, 64, 110
5, 49728, Note_on_c, 3, 69, 110
5, 49888, Note_on_c, 3, 61, 0
5, 49888, Note_on_c, 3, 64, 0
5, 49888, Note_on_c, 3, 69, 0
5, 49920, Note_on_c, 3, 59, 110
5, 49920, Note_on_c, 3, 62, 110
5, 49920, Note_on_c, 3, 67, 110
5, 50080, Note_on_c, 3, 59, 0
5, 50080, Note_on_c, 3, 62, 0
5, 50080, Note_on_c, 3, 67, 0
5, 50112, Note_on_c, 3, 59, 110
5, 50112, Note_on_c, 3, 62, 110
5, 50112, Note_on_c, 3, 67, 110
5, 50272, Note_on_c, 3, 59, 0
5, 50272, Note_on_c, 3, 62, 0
5, 50272, Note_on_c, 3, 67, 0
5, 50304, Note_on_c, 3, 59, 110
5, 50304, Note_on_c, 3, 62, 110
5, 50304, Note_on_c, 3, 67, 110
5, 50464, Note_on_c, 3, 59, 0
5, 50464, Note_on_c, 3, 62, 0
5, 50464, Note_on_c, 3, 67, 0
5, 50496, Note_on_c, 3, 59, 110
5, 50496, Note_on_c, 3, 62, 110
5, 50496, Note_on_c, 3, 67, 110
5, 50656, Note_on_c, 3, 59, 0
5, 50656, Note_on_c, 3, 62, 0
5, 50656, Note_on_c, 3, 67, 0
5, 50688, Note_on_c, 3, 57, 110
5, 50688, Note_on_c, 3, 62, 110
5, 50688, Note_on_c, 3, 66, 110
5, 50848, Note_on_c, 3, 57, 0
5, 50848, Note_on_c, 3, 62, 0
5, 50848, Note_on_c, 3, 66, 0
5, 50880, Note_on_c, 3, 57, 110
5, 50880, Note_on_c, 3, 62, 110
5, 50880, Note_on_c, 3, 66, 110
5, 51040, Note_on_c, 3, 57, 0
5, 51040, Note_on_c, 3, 62, 0
5, 51040, Note_on_c, 3, 66, 0
5, 51072, Note_on_c, 3, 57, 110
5, 51072, Note_on_c, 3, 62, 110
5, 51072, Note_on_c, 3, 66, 110
5, 51232, Note_on_c, 3, 57, 0
5, 51232, Note_on_c, 3, 62, 0
5, 51232, Note_on_c, 3, 66, 0
5, 51264, Note_on_c, 3, 57, 110
5, 51264, Note_on_c, 3, 62, 110
5, 51264, Note_on_c, 3, 66, 110
5, 51424, Note_on_c, 3, 57, 0
5, 51424, Note_on_c, 3, 62, 0
5, 51424, Note_on_c, 3, 66, 0
5, 51456, Note_on_c, 3, 59, 110
5, 51456, Note_on_c, 3, 64, 110
5, 51456, Note_on_c, 3, 68, 110
5, 52944, Note_on_c, 3, 59, 0
5, 52944, Note_on_c, 3, 64, 0
5, 52944, Note_on_c, 3, 68, 0
5, 52992, Control_c, 3, 7, 83
5, 52992, Control_c, 3, 7, 83
5, 52992, Note_on_c, 3, 60, 110
5, 53014, Note_on_c, 3, 60, 0
5, 53016, Note_on_c, 3, 61, 110
5, 53016, Note_on_c, 3, 64, 110
5, 53016, Note_on_c, 3, 69, 110
5, 53182, Note_on_c, 3, 61, 0
5, 53182, Note_on_c, 3, 64, 0
5, 53182, Note_on_c, 3, 69, 0
5, 53184, Note_on_c, 3, 61, 110
5, 53184, Note_on_c, 3, 64, 110
5, 53184, Note_on_c, 3, 69, 110
5, 53344, Note_on_c, 3, 61, 0
5, 53344, Note_on_c, 3, 64, 0
5, 53344, Note_on_c, 3, 69, 0
5, 53376, Note_on_c, 3, 61, 110
5, 53376, Note_on_c, 3, 64, 110
5, 53376, Note_on_c, 3, 69, 110
5, 53536, Note_on_c, 3, 61, 0
5, 53536, Note_on_c, 3, 64, 0
5, 53536, Note_on_c, 3, 69, 0
5, 53568, Note_on_c, 3, 61, 110
5, 53568, Note_on_c, 3, 64, 110
5, 53568, Note_on_c, 3, 69, 110
5, 53728, Note_on_c, 3, 61, 0
5, 53728, Note_on_c, 3, 64, 0
5, 53728, Note_on_c, 3, 69, 0
5, 53760, Note_on_c, 3, 60, 110
5, 53760, Note_on_c, 3, 64, 110
5, 53760, Note_on_c, 3, 69, 110
5, 53920, Note_on_c, 3, 60, 0
5, 53920, Note_on_c, 3, 64, 0
5, 53920, Note_on_c, 3, 69, 0
5, 53952, Note_on_c, 3, 60, 110
5, 53952, Note_on_c, 3, 64, 110
5, 53952, Note_on_c, 3, 69, 110
5, 54112, Note_on_c, 3, 60, 0
5, 54112, Note_on_c, 3, 64, 0
5, 54112, Note_on_c, 3, 69, 0
5, 54144, Note_on_c, 3, 60, 110
5, 54144, Note_on_c, 3, 64, 110
5, 54144, Note_on_c, 3, 69, 110
5, 54304, Note_on_c, 3, 60, 0
5, 54304, Note_on_c, 3, 64, 0
5, 54304, Note_on_c, 3, 69, 0
5, 54336, Note_on_c, 3, 60, 110
5, 54336, Note_on_c, 3, 64, 110
5, 54336, Note_on_c, 3, 69, 110
5, 54496, Note_on_c, 3, 60, 0
5, 54496, Note_on_c, 3, 64, 0
5, 54496, Note_on_c, 3, 69, 0
5, 54528, Note_on_c, 3, 60, 110
5, 54550, Note_on_c, 3, 60, 0
5, 54552, Note_on_c, 3, 61, 110
5, 54552, Note_on_c, 3, 64, 110
5, 54552, Note_on_c, 3, 69, 110
5, 54718, Note_on_c, 3, 61, 0
5, 54718, Note_on_c, 3, 64, 0
5, 54718, Note_on_c, 3, 69, 0
5, 54720, Note_on_c, 3, 61, 110
5, 54720, Note_on_c, 3, 64, 110
5, 54720, Note_on_c, 3, 69, 110
5, 54880, Note_on_c, 3, 61, 0
5, 54880, Note_on_c, 3, 64, 0
5, 54880, Note_on_c, 3, 69, 0
5, 54912, Note_on_c, 3, 61, 110
5, 54912, Note_on_c, 3, 64, 110
5, 54912, Note_on_c, 3, 69, 110
5, 55072, Note_on_c, 3, 61, 0
5, 55072, Note_on_c, 3, 64, 0
5, 55072, Note_on_c, 3, 69, 0
5, 55104, Note_on_c, 3, 61, 110
5, 55104, Note_on_c, 3, 64, 110
5, 55104, Note_on_c, 3, 69, 110
5, 55264, Note_on_c, 3, 61, 0
5, 55264, Note_on_c, 3, 64, 0
5, 55264, Note_on_c, 3, 69, 0
5, 55296, Note_on_c, 3, 60, 110
5, 55296, Note_on_c, 3, 64, 110
5, 55296, Note_on_c, 3, 69, 110
5, 55456, Note_on_c, 3, 60, 0
5, 55456, Note_on_c, 3, 64, 0
5, 55456, Note_on_c, 3, 69, 0
5, 55488, Note_on_c, 3, 60, 110
5, 55488, Note_on_c, 3, 64, 110
5, 55488, Note_on_c, 3, 69, 110
5, 55648, Note_on_c, 3, 60, 0
5, 55648, Note_on_c, 3, 64, 0
5, 55648, Note_on_c, 3, 69, 0
5, 55680, Note_on_c, 3, 60, 110
5, 55680, Note_on_c, 3, 64, 110
5, 55680, Note_on_c, 3, 69, 110
5, 55840, Note_on_c, 3, 60, 0
5, 55840, Note_on_c, 3, 64, 0
5, 55840, Note_on_c, 3, 69, 0
5, 55872, Note_on_c, 3, 60, 110
5, 55872, Note_on_c, 3, 64, 110
5, 55872, Note_on_c, 3, 69, 110
5, 56032, Note_on_c, 3, 60, 0
5, 56032, Note_on_c, 3, 64, 0
5, 56032, Note_on_c, 3, 69, 0
5, 56064, Note_on_c, 3, 60, 110
5, 56086, Note_on_c, 3, 60, 0
5, 56088, Note_on_c, 3, 61, 110
5, 56088, Note_on_c, 3, 64, 110
5, 56088, Note_on_c, 3, 69, 110
5, 56254, Note_on_c, 3, 61, 0
5, 56254, Note_on_c, 3, 64, 0
5, 56254, Note_on_c, 3, 69, 0
5, 56256, Note_on_c, 3, 61, 110
5, 56256, Note_on_c, 3, 64, 110
5, 56256, Note_on_c, 3, 69, 110
5, 56416, Note_on_c, 3, 61, 0
5, 56416, Note_on_c, 3, 64, 0
5, 56416, Note_on_c, 3, 69, 0
5, 56448, Note_on_c, 3, 61, 110
5, 56448, Note_on_c, 3, 64, 110
5, 56448, Note_on_c, 3, 69, 110
5, 56608, Note_on_c, 3, 61, 0
5, 56608, Note_on_c, 3, 64, 0
5, 56608, Note_on_c, 3, 69, 0
5, 56640, Note_on_c, 3, 61, 110
5, 56640, Note_on_c, 3, 64, 110
5, 56640, Note_on_c, 3, 69, 110
5, 56800, Note_on_c, 3, 61, 0
5, 56800, Note_on_c, 3, 64, 0
5, 56800, Note_on_c, 3, 69, 0
5, 56832, Note_on_c, 3, 60, 110
5, 56832, Note_on_c, 3, 64, 110
5, 56832, Note_on_c, 3, 69, 110
5, 56992, Note_on_c, 3, 60, 0
5, 56992, Note_on_c, 3, 64, 0
5, 56992, Note_on_c, 3, 69, 0
5, 57024, Note_on_c, 3, 60, 110
5, 57024, Note_on_c, 3, 64, 110
5, 57024, Note_on_c, 3, 69, 110
5, 57184, Note_on_c, 3, 60, 0
5, 57184, Note_on_c, 3, 64, 0
5, 57184, Note_on_c, 3, 69, 0
5, 57216, Note_on_c, 3, 60, 110
5, 57216, Note_on_c, 3, 64, 110
5, 57216, Note_on_c, 3, 69, 110
5, 57376, Note_on_c, 3, 60, 0
5, 57376, Note_on_c, 3, 64, 0
5, 57376, Note_on_c, 3, 69, 0
5, 57408, Note_on_c, 3, 60, 110
5, 57408, Note_on_c, 3, 64, 110
5, 57408, Note_on_c, 3, 69, 110
5, 57568, Note_on_c, 3, 60, 0
5, 57568, Note_on_c, 3, 64, 0
5, 57568, Note_on_c, 3, 69, 0
5, 57600, Note_on_c, 3, 59, 110
5, 57600, Note_on_c, 3, 62, 110
5, 57600, Note_on_c, 3, 66, 110
5, 57600, Note_on_c, 3, 68, 110
5, 57760, Note_on_c, 3, 59, 0
5, 57760, Note_on_c, 3, 62, 0
5, 57760, Note_on_c, 3, 66, 0
5, 57760, Note_on_c, 3, 68, 0
5, 57792, Note_on_c, 3, 59, 110
5, 57792, Note_on_c, 3, 62, 110
5, 57792, Note_on_c, 3, 66, 110
5, 57792, Note_on_c, 3, 68, 110
5, 57952, Note_on_c, 3, 59, 0
5, 57952, Note_on_c, 3, 62, 0
5, 57952, Note_on_c, 3, 66, 0
5, 57952, Note_on_c, 3, 68, 0
5, 57984, Note_on_c, 3, 59, 110
5, 57984, Note_on_c, 3, 62, 110
5, 57984, Note_on_c, 3, 66, 110
5, 57984, Note_on_c, 3, 68, 110
5, 58144, Note_on_c, 3, 59, 0
5, 58144, Note_on_c, 3, 62, 0
5, 58144, Note_on_c, 3, 66, 0
5, 58144, Note_on_c, 3, 68, 0
5, 58176, Note_on_c, 3, 59, 110
5, 58176, Note_on_c, 3, 62, 110
5, 58176, Note_on_c, 3, 66, 110
5, 58176, Note_on_c, 3, 68, 110
5, 58336, Note_on_c, 3, 59, 0
5, 58336, Note_on_c, 3, 62, 0
5, 58336, Note_on_c, 3, 66, 0
5, 58336, Note_on_c, 3, 68, 0
5, 58368, Note_on_c, 3, 59, 110
5, 58368, Note_on_c, 3, 62, 110
5, 58368, Note_on_c, 3, 66, 110
5, 58368, Note_on_c, 3, 68, 110
5, 58528, Note_on_c, 3, 59, 0
5, 58528, Note_on_c, 3, 62, 0
5, 58528, Note_on_c, 3, 66, 0
5, 58528, Note_on_c, 3, 68, 0
5, 58560, Note_on_c, 3, 59, 110
5, 58560, Note_on_c, 3, 62, 110
5, 58560, Note_on_c, 3, 66, 110
5, 58560, Note_on_c, 3, 68, 110
5, 58720, Note_on_c, 3, 59, 0
5, 58720, Note_on_c, 3, 62, 0
5, 58720, Note_on_c, 3, 66, 0
5, 58720, Note_on_c, 3, 68, 0
5, 58752, Note_on_c, 3, 59, 110
5, 58752, Note_on_c, 3, 62, 110
5, 58752, Note_on_c, 3, 66, 110
5, 58752, Note_on_c, 3, 68, 110
5, 58912, Note_on_c, 3, 59, 0
5, 58912, Note_on_c, 3, 62, 0
5, 58912, Note_on_c, 3, 66, 0
5, 58912, Note_on_c, 3, 68, 0
5, 58944, Note_on_c, 3, 59, 110
5, 58944, Note_on_c, 3, 62, 110
5, 58944, Note_on_c, 3, 66, 110
5, 58944, Note_on_c, 3, 68, 110
5, 59104, Note_on_c, 3, 59, 0
5, 59104, Note_on_c, 3, 62, 0
5, 59104, Note_on_c, 3, 66, 0
5, 59104, Note_on_c, 3, 68, 0
5, 59136, Note_on_c, 3, 60, 110
5, 59158, Note_on_c, 3, 60, 0
5, 59160, Note_on_c, 3, 61, 110
5, 59160, Note_on_c, 3, 64, 110
5, 59160, Note_on_c, 3, 69, 110
5, 59326, Note_on_c, 3, 61, 0
5, 59326, Note_on_c, 3, 64, 0
5, 59326, Note_on_c, 3, 69, 0
5, 59328, Note_on_c, 3, 61, 110
5, 59328, Note_on_c, 3, 64, 110
5, 59328, Note_on_c, 3, 69, 110
5, 59488, Note_on_c, 3, 61, 0
5, 59488, Note_on_c, 3, 64, 0
5, 59488, Note_on_c, 3, 69, 0
5, 59520, Note_on_c, 3, 61, 110
5, 59520, Note_on_c, 3, 64, 110
5, 59520, Note_on_c, 3, 69, 110
5, 59680, Note_on_c, 3, 61, 0
5, 59680, Note_on_c, 3, 64, 0
5, 59680, Note_on_c, 3, 69, 0
5, 59712, Note_on_c, 3, 61, 110
5, 59712, Note_on_c, 3, 64, 110
5, 59712, Note_on_c, 3, 69, 110
5, 59872, Note_on_c, 3, 61, 0
5, 59872, Note_on_c, 3, 64, 0
5, 59872, Note_on_c, 3, 69, 0
5, 59904, Note_on_c, 3, 60, 110
5, 59904, Note_on_c, 3, 64, 110
5, 59904, Note_on_c, 3, 69, 110
5, 60064, Note_on_c, 3, 60, 0
5, 60064, Note_on_c, 3, 64, 0
5, 60064, Note_on_c, 3, 69, 0
5, 60096, Note_on_c, 3, 60, 110
5, 60096, Note_on_c, 3, 64, 110
5, 60096, Note_on_c, 3, 69, 110
5, 60256, Note_on_c, 3, 60, 0
5, 60256, Note_on_c, 3, 64, 0
5, 60256, Note_on_c, 3, 69, 0
5, 60288, Note_on_c, 3, 60, 110
5, 60288, Note_on_c, 3, 64, 110
5, 60288, Note_on_c, 3, 69, 110
5, 60448, Note_on_c, 3, 60, 0
5, 60448, Note_on_c, 3, 64, 0
5, 60448, Note_on_c, 3, 69, 0
5, 60480, Note_on_c, 3, 60, 110
5, 60480, Note_on_c, 3, 64, 110
5, 60480, Note_on_c, 3, 69, 110
5, 60640, Note_on_c, 3, 60, 0
5, 60640, Note_on_c, 3, 64, 0
5, 60640, Note_on_c, 3, 69, 0
5, 60672, Note_on_c, 3, 60, 110
5, 60694, Note_on_c, 3, 60, 0
5, 60696, Note_on_c, 3, 61, 110
5, 60696, Note_on_c, 3, 64, 110
5, 60696, Note_on_c, 3, 69, 110
5, 60862, Note_on_c, 3, 61, 0
5, 60862, Note_on_c, 3, 64, 0
5, 60862, Note_on_c, 3, 69, 0
5, 60864, Note_on_c, 3, 61, 110
5, 60864, Note_on_c, 3, 64, 110
5, 60864, Note_on_c, 3, 69, 110
5, 61024, Note_on_c, 3, 61, 0
5, 61024, Note_on_c, 3, 64, 0
5, 61024, Note_on_c, 3, 69, 0
5, 61056, Note_on_c, 3, 61, 110
5, 61056, Note_on_c, 3, 64, 110
5, 61056, Note_on_c, 3, 69, 110
5, 61216, Note_on_c, 3, 61, 0
5, 61216, Note_on_c, 3, 64, 0
5, 61216, Note_on_c, 3, 69, 0
5, 61248, Note_on_c, 3, 61, 110
5, 61248, Note_on_c, 3, 64, 110
5, 61248, Note_on_c, 3, 69, 110
5, 61408, Note_on_c, 3, 61, 0
5, 61408, Note_on_c, 3, 64, 0
5, 61408, Note_on_c, 3, 69, 0
5, 61440, Note_on_c, 3, 60, 110
5, 61440, Note_on_c, 3, 64, 110
5, 61440, Note_on_c, 3, 69, 110
5, 61600, Note_on_c, 3, 60, 0
5, 61600, Note_on_c, 3, 64, 0
5, 61600, Note_on_c, 3, 69, 0
5, 61632, Note_on_c, 3, 60, 110
5, 61632, Note_on_c, 3, 64, 110
5, 61632, Note_on_c, 3, 69, 110
5, 61792, Note_on_c, 3, 60, 0
5, 61792, Note_on_c, 3, 64, 0
5, 61792, Note_on_c, 3, 69, 0
5, 61824, Note_on_c, 3, 60, 110
5, 61824, Note_on_c, 3, 64, 110
5, 61824, Note_on_c, 3, 69, 110
5, 61984, Note_on_c, 3, 60, 0
5, 61984, Note_on_c, 3, 64, 0
5, 61984, Note_on_c, 3, 69, 0
5, 62016, Note_on_c, 3, 60, 110
5, 62016, Note_on_c, 3, 64, 110
5, 62016, Note_on_c, 3, 69, 110
5, 62176, Note_on_c, 3, 60, 0
5, 62176, Note_on_c, 3, 64, 0
5, 62176, Note_on_c, 3, 69, 0
5, 62208, Note_on_c, 3, 60, 110
5, 62230, Note_on_c, 3, 60, 0
5, 62232, Note_on_c, 3, 61, 110
5, 62232, Note_on_c, 3, 64, 110
5, 62232, Note_on_c, 3, 69, 110
5, 62398, Note_on_c, 3, 61, 0
5, 62398, Note_on_c, 3, 64, 0
5, 62398, Note_on_c, 3, 69, 0
5, 62400, Note_on_c, 3, 61, 110
5, 62400, Note_on_c, 3, 64, 110
5, 62400, Note_on_c, 3, 69, 110
5, 62560, Note_on_c, 3, 61, 0
5, 62560, Note_on_c, 3, 64, 0
5, 62560, Note_on_c, 3, 69, 0
5, 62592, Note_on_c, 3, 61, 110
5, 62592, Note_on_c, 3, 64, 110
5, 62592, Note_on_c, 3, 69, 110
5, 62752, Note_on_c, 3, 61, 0
5, 62752, Note_on_c, 3, 64, 0
5, 62752, Note_on_c, 3, 69, 0
5, 62784, Note_on_c, 3, 61, 110
5, 62784, Note_on_c, 3, 64, 110
5, 62784, Note_on_c, 3, 69, 110
5, 62944, Note_on_c, 3, 61, 0
5, 62944, Note_on_c, 3, 64, 0
5, 62944, Note_on_c, 3, 69, 0
5, 62976, Note_on_c, 3, 59, 110
5, 62976, Note_on_c, 3, 62, 110
5, 62976, Note_on_c, 3, 66, 110
5, 62976, Note_on_c, 3, 68, 110
5, 63136, Note_on_c, 3, 59, 0
5, 63136, Note_on_c, 3, 62, 0
5, 63136, Note_on_c, 3, 66, 0
5, 63136, Note_on_c, 3, 68, 0
5, 63168, Note_on_c, 3, 59, 110
5, 63168, Note_on_c, 3, 62, 110
5, 63168, Note_on_c, 3, 66, 110
5, 63168, Note_on_c, 3, 68, 110
5, 63328, Note_on_c, 3, 59, 0
5, 63328, Note_on_c, 3, 62, 0
5, 63328, Note_on_c, 3, 66, 0
5, 63328, Note_on_c, 3, 68, 0
5, 63360, Note_on_c, 3, 59, 110
5, 63360, Note_on_c, 3, 62, 110
5, 63360, Note_on_c, 3, 66, 110
5, 63360, Note_on_c, 3, 68, 110
5, 63520, Note_on_c, 3, 59, 0
5, 63520, Note_on_c, 3, 62, 0
5, 63520, Note_on_c, 3, 66, 0
5, 63520, Note_on_c, 3, 68, 0
5, 63552, Note_on_c, 3, 59, 110
5, 63552, Note_on_c, 3, 62, 110
5, 63552, Note_on_c, 3, 66, 110
5, 63552, Note_on_c, 3, 68, 110
5, 63712, Note_on_c, 3, 59, 0
5, 63712, Note_on_c, 3, 62, 0
5, 63712, Note_on_c, 3, 66, 0
5, 63712, Note_on_c, 3, 68, 0
5, 63744, Note_on_c, 3, 59, 110
5, 63744, Note_on_c, 3, 62, 110
5, 63744, Note_on_c, 3, 65, 110
5, 63744, Note_on_c, 3, 69, 110
5, 63904, Note_on_c, 3, 59, 0
5, 63904, Note_on_c, 3, 62, 0
5, 63904, Note_on_c, 3, 65, 0
5, 63904, Note_on_c, 3, 69, 0
5, 63936, Note_on_c, 3, 59, 110
5, 63936, Note_on_c, 3, 62, 110
5, 63936, Note_on_c, 3, 65, 110
5, 63936, Note_on_c, 3, 69, 110
5, 64096, Note_on_c, 3, 59, 0
5, 64096, Note_on_c, 3, 62, 0
5, 64096, Note_on_c, 3, 65, 0
5, 64096, Note_on_c, 3, 69, 0
5, 64128, Note_on_c, 3, 59, 110
5, 64128, Note_on_c, 3, 62, 110
5, 64128, Note_on_c, 3, 65, 110
5, 64128, Note_on_c, 3, 69, 110
5, 64288, Note_on_c, 3, 59, 0
5, 64288, Note_on_c, 3, 62, 0
5, 64288, Note_on_c, 3, 65, 0
5, 64288, Note_on_c, 3, 69, 0
5, 64320, Note_on_c, 3, 59, 110
5, 64320, Note_on_c, 3, 62, 110
5, 64320, Note_on_c, 3, 65, 110
5, 64320, Note_on_c, 3, 69, 110
5, 64480, Note_on_c, 3, 59, 0
5, 64480, Note_on_c, 3, 62, 0
5, 64480, Note_on_c, 3, 65, 0
5, 64480, Note_on_c, 3, 69, 0
5, 64512, Note_on_c, 3, 59, 110
5, 64512, Note_on_c, 3, 62, 110
5, 64512, Note_on_c, 3, 65, 110
5, 64512, Note_on_c, 3, 69, 110
5, 64672, Note_on_c, 3, 59, 0
5, 64672, Note_on_c, 3, 62, 0
5, 64672, Note_on_c, 3, 65, 0
5, 64672, Note_on_c, 3, 69, 0
5, 64704, Note_on_c, 3, 59, 110
5, 64704, Note_on_c, 3, 62, 110
5, 64704, Note_on_c, 3, 65, 110
5, 64704, Note_on_c, 3, 69, 110
5, 64864, Note_on_c, 3, 59, 0
5, 64864, Note_on_c, 3, 62, 0
5, 64864, Note_on_c, 3, 65, 0
5, 64864, Note_on_c, 3, 69, 0
5, 64896, Note_on_c, 3, 59, 110
5, 64896, Note_on_c, 3, 62, 110
5, 64896, Note_on_c, 3, 65, 110
5, 64896, Note_on_c, 3, 69, 110
5, 65056, Note_on_c, 3, 59, 0
5, 65056, Note_on_c, 3, 62, 0
5, 65056, Note_on_c, 3, 65, 0
5, 65056, Note_on_c, 3, 69, 0
5, 65088, Note_on_c, 3, 59, 110
5, 65088, Note_on_c, 3, 62, 110
5, 65088, Note_on_c, 3, 65, 110
5, 65088, Note_on_c, 3, 69, 110
5, 65248, Note_on_c, 3, 59, 0
5, 65248, Note_on_c, 3, 62, 0
5, 65248, Note_on_c, 3, 65, 0
5, 65248, Note_on_c, 3, 69, 0
5, 65280, Control_c, 3, 7, 83
5, 65280, Control_c, 3, 7, 83
5, 65280, Note_on_c, 3, 60, 110
5, 65302, Note_on_c, 3, 60, 0
5, 65304, Note_on_c, 3, 61, 110
5, 65304, Note_on_c, 3, 64, 110
5, 65304, Note_on_c, 3, 69, 110
5, 65470, Note_on_c, 3, 61, 0
5, 65470, Note_on_c, 3, 64, 0
5, 65470, Note_on_c, 3, 69, 0
5, 65472, Note_on_c, 3, 61, 110
5, 65472, Note_on_c, 3, 64, 110
5, 65472, Note_on_c, 3, 69, 110
5, 65632, Note_on_c, 3, 61, 0
5, 65632, Note_on_c, 3, 64, 0
5, 65632, Note_on_c, 3, 69, 0
5, 65664, Note_on_c, 3, 61, 110
5, 65664, Note_on_c, 3, 64, 110
5, 65664, Note_on_c, 3, 69, 110
5, 65824, Note_on_c, 3, 61, 0
5, 65824, Note_on_c, 3, 64, 0
5, 65824, Note_on_c, 3, 69, 0
5, 65856, Note_on_c, 3, 61, 110
5, 65856, Note_on_c, 3, 64, 110
5, 65856, Note_on_c, 3, 69, 110
5, 66016, Note_on_c, 3, 61, 0
5, 66016, Note_on_c, 3, 64, 0
5, 66016, Note_on_c, 3, 69, 0
5, 66048, Note_on_c, 3, 60, 110
5, 66048, Note_on_c, 3, 64, 110
5, 66048, Note_on_c, 3, 69, 110
5, 66208, Note_on_c, 3, 60, 0
5, 66208, Note_on_c, 3, 64, 0
5, 66208, Note_on_c, 3, 69, 0
5, 66240, Note_on_c, 3, 60, 110
5, 66240, Note_on_c, 3, 64, 110
5, 66240, Note_on_c, 3, 69, 110
5, 66400, Note_on_c, 3, 60, 0
5, 66400, Note_on_c, 3, 64, 0
5, 66400, Note_on_c, 3, 69, 0
5, 66432, Note_on_c, 3, 60, 110
5, 66432, Note_on_c, 3, 64, 110
5, 66432, Note_on_c, 3, 69, 110
5, 66592, Note_on_c, 3, 60, 0
5, 66592, Note_on_c, 3, 64, 0
5, 66592, Note_on_c, 3, 69, 0
5, 66624, Note_on_c, 3, 60, 110
5, 66624, Note_on_c, 3, 64, 110
5, 66624, Note_on_c, 3, 69, 110
5, 66784, Note_on_c, 3, 60, 0
5, 66784, Note_on_c, 3, 64, 0
5, 66784, Note_on_c, 3, 69, 0
5, 66816, Note_on_c, 3, 60, 110
5, 66838, Note_on_c, 3, 60, 0
5, 66840, Note_on_c, 3, 61, 110
5, 66840, Note_on_c, 3, 64, 110
5, 66840, Note_on_c, 3, 69, 110
5, 67006, Note_on_c, 3, 61, 0
5, 67006, Note_on_c, 3, 64, 0
5, 67006, Note_on_c, 3, 69, 0
5, 67008, Note_on_c, 3, 61, 110
5, 67008, Note_on_c, 3, 64, 110
5, 67008, Note_on_c, 3, 69, 110
5, 67168, Note_on_c, 3, 61, 0
5, 67168, Note_on_c, 3, 64, 0
5, 67168, Note_on_c, 3, 69, 0
5, 67200, Note_on_c, 3, 61, 110
5, 67200, Note_on_c, 3, 64, 110
5, 67200, Note_on_c, 3, 69, 110
5, 67360, Note_on_c, 3, 61, 0
5, 67360, Note_on_c, 3, 64, 0
5, 67360, Note_on_c, 3, 69, 0
5, 67392, Note_on_c, 3, 61, 110
5, 67392, Note_on_c, 3, 64, 110
5, 67392, Note_on_c, 3, 69, 110
5, 67552, Note_on_c, 3, 61, 0
5, 67552, Note_on_c, 3, 64, 0
5, 67552, Note_on_c, 3, 69, 0
5, 67584, Note_on_c, 3, 60, 110
5, 67584, Note_on_c, 3, 64, 110
5, 67584, Note_on_c, 3, 69, 110
5, 67744, Note_on_c, 3, 60, 0
5, 67744, Note_on_c, 3, 64, 0
5, 67744, Note_on_c, 3, 69, 0
5, 67776, Note_on_c, 3, 60, 110
5, 67776, Note_on_c, 3, 64, 110
5, 67776, Note_on_c, 3, 69, 110
5, 67936, Note_on_c, 3, 60, 0
5, 67936, Note_on_c, 3, 64, 0
5, 67936, Note_on_c, 3, 69, 0
5, 67968, Note_on_c, 3, 60, 110
5, 67968, Note_on_c, 3, 64, 110
5, 67968, Note_on_c, 3, 69, 110
5, 68128, Note_on_c, 3, 60, 0
5, 68128, Note_on_c, 3, 64, 0
5, 68128, Note_on_c, 3, 69, 0
5, 68160, Note_on_c, 3, 60, 110
5, 68160, Note_on_c, 3, 64, 110
5, 68160, Note_on_c, 3, 69, 110
5, 68320, Note_on_c, 3, 60, 0
5, 68320, Note_on_c, 3, 64, 0
5, 68320, Note_on_c, 3, 69, 0
5, 68352, Note_on_c, 3, 60, 110
5, 68374, Note_on_c, 3, 60, 0
5, 68376, Note_on_c, 3, 61, 110
5, 68376, Note_on_c, 3, 64, 110
5, 68376, Note_on_c, 3, 69, 110
5, 68542, Note_on_c, 3, 61, 0
5, 68542, Note_on_c, 3, 64, 0
5, 68542, Note_on_c, 3, 69, 0
5, 68544, Note_on_c, 3, 61, 110
5, 68544, Note_on_c, 3, 64, 110
5, 68544, Note_on_c, 3, 69, 110
5, 68704, Note_on_c, 3, 61, 0
5, 68704, Note_on_c, 3, 64, 0
5, 68704, Note_on_c, 3, 69, 0
5, 68736, Note_on_c, 3, 61, 110
5, 68736, Note_on_c, 3, 64, 110
5, 68736, Note_on_c, 3, 69, 110
5, 68896, Note_on_c, 3, 61, 0
5, 68896, Note_on_c, 3, 64, 0
5, 68896, Note_on_c, 3, 69, 0
5, 68928, Note_on_c, 3, 61, 110
5, 68928, Note_on_c, 3, 64, 110
5, 68928, Note_on_c, 3, 69, 110
5, 69088, Note_on_c, 3, 61, 0
5, 69088, Note_on_c, 3, 64, 0
5, 69088, Note_on_c, 3, 69, 0
5, 69120, Note_on_c, 3, 60, 110
5, 69120, Note_on_c, 3, 64, 110
5, 69120, Note_on_c, 3, 69, 110
5, 69280, Note_on_c, 3, 60, 0
5, 69280, Note_on_c, 3, 64, 0
5, 69280, Note_on_c, 3, 69, 0
5, 69312, Note_on_c, 3, 60, 110
5, 69312, Note_on_c, 3, 64, 110
5, 69312, Note_on_c, 3, 69, 110
5, 69472, Note_on_c, 3, 60, 0
5, 69472, Note_on_c, 3, 64, 0
5, 69472, Note_on_c, 3, 69, 0
5, 69504, Note_on_c, 3, 60, 110
5, 69504, Note_on_c, 3, 64, 110
5, 69504, Note_on_c, 3, 69, 110
5, 69664, Note_on_c, 3, 60, 0
5, 69664, Note_on_c, 3, 64, 0
5, 69664, Note_on_c, 3, 69, 0
5, 69696, Note_on_c, 3, 60, 110
5, 69696, Note_on_c, 3, 64, 110
5, 69696, Note_on_c, 3, 69, 110
5, 69856, Note_on_c, 3, 60, 0
5, 69856, Note_on_c, 3, 64, 0
5, 69856, Note_on_c, 3, 69, 0
5, 69888, Note_on_c, 3, 59, 110
5, 69888, Note_on_c, 3, 62, 110
5, 69888, Note_on_c, 3, 66, 110
5, 69888, Note_on_c, 3, 68, 110
5, 70048, Note_on_c, 3, 59, 0
5, 70048, Note_on_c, 3, 62, 0
5, 70048, Note_on_c, 3, 66, 0
5, 70048, Note_on_c, 3, 68, 0
5, 70080, Note_on_c, 3, 59, 110
5, 70080, Note_on_c, 3, 62, 110
5, 70080, Note_on_c, 3, 66, 110
5, 70080, Note_on_c, 3, 68, 110
5, 70240, Note_on_c, 3, 59, 0
5, 70240, Note_on_c, 3, 62, 0
5, 70240, Note_on_c, 3, 66, 0
5, 70240, Note_on_c, 3, 68, 0
5, 70272, Note_on_c, 3, 59, 110
5, 70272, Note_on_c, 3, 62, 110
5, 70272, Note_on_c, 3, 66, 110
5, 70272, Note_on_c, 3, 68, 110
5, 70432, Note_on_c, 3, 59, 0
5, 70432, Note_on_c, 3, 62, 0
5, 70432, Note_on_c, 3, 66, 0
5, 70432, Note_on_c, 3, 68, 0
5, 70464, Note_on_c, 3, 59, 110
5, 70464, Note_on_c, 3, 62, 110
5, 70464, Note_on_c, 3, 66, 110
5, 70464, Note_on_c, 3, 68, 110
5, 70624, Note_on_c, 3, 59, 0
5, 70624, Note_on_c, 3, 62, 0
5, 70624, Note_on_c, 3, 66, 0
5, 70624, Note_on_c, 3, 68, 0
5, 70656, Note_on_c, 3, 59, 110
5, 70656, Note_on_c, 3, 62, 110
5, 70656, Note_on_c, 3, 66, 110
5, 70656, Note_on_c, 3, 68, 110
5, 70816, Note_on_c, 3, 59, 0
5, 70816, Note_on_c, 3, 62, 0
5, 70816, Note_on_c, 3, 66, 0
5, 70816, Note_on_c, 3, 68, 0
5, 70848, Note_on_c, 3, 59, 110
5, 70848, Note_on_c, 3, 62, 110
5, 70848, Note_on_c, 3, 66, 110
5, 70848, Note_on_c, 3, 68, 110
5, 71008, Note_on_c, 3, 59, 0
5, 71008, Note_on_c, 3, 62, 0
5, 71008, Note_on_c, 3, 66, 0
5, 71008, Note_on_c, 3, 68, 0
5, 71040, Note_on_c, 3, 59, 110
5, 71040, Note_on_c, 3, 62, 110
5, 71040, Note_on_c, 3, 66, 110
5, 71040, Note_on_c, 3, 68, 110
5, 71200, Note_on_c, 3, 59, 0
5, 71200, Note_on_c, 3, 62, 0
5, 71200, Note_on_c, 3, 66, 0
5, 71200, Note_on_c, 3, 68, 0
5, 71232, Note_on_c, 3, 59, 110
5, 71232, Note_on_c, 3, 62, 110
5, 71232, Note_on_c, 3, 66, 110
5, 71232, Note_on_c, 3, 68, 110
5, 71392, Note_on_c, 3, 59, 0
5, 71392, Note_on_c, 3, 62, 0
5, 71392, Note_on_c, 3, 66, 0
5, 71392, Note_on_c, 3, 68, 0
5, 71424, Note_on_c, 3, 60, 110
5, 71446, Note_on_c, 3, 60, 0
5, 71448, Note_on_c, 3, 61, 110
5, 71448, Note_on_c, 3, 64, 110
5, 71448, Note_on_c, 3, 69, 110
5, 71614, Note_on_c, 3, 61, 0
5, 71614, Note_on_c, 3, 64, 0
5, 71614, Note_on_c, 3, 69, 0
5, 71616, Note_on_c, 3, 61, 110
5, 71616, Note_on_c, 3, 64, 110
5, 71616, Note_on_c, 3, 69, 110
5, 71776, Note_on_c, 3, 61, 0
5, 71776, Note_on_c, 3, 64, 0
5, 71776, Note_on_c, 3, 69, 0
5, 71808, Note_on_c, 3, 61, 110
5, 71808, Note_on_c, 3, 64, 110
5, 71808, Note_on_c, 3, 69, 110
5, 71968, Note_on_c, 3, 61, 0
5, 71968, Note_on_c, 3, 64, 0
5, 71968, Note_on_c, 3, 69, 0
5, 72000, Note_on_c, 3, 61, 110
5, 72000, Note_on_c, 3, 64, 110
5, 72000, Note_on_c, 3, 69, 110
5, 72160, Note_on_c, 3, 64, 0
5, 72160, Note_on_c, 3, 61, 0
5, 72160, Note_on_c, 3, 69, 0
5, 72192, Note_on_c, 3, 60, 110
5, 72192, Note_on_c, 3, 64, 110
5, 72192, Note_on_c, 3, 69, 110
5, 72352, Note_on_c, 3, 60, 0
5, 72352, Note_on_c, 3, 64, 0
5, 72352, Note_on_c, 3, 69, 0
5, 72384, Note_on_c, 3, 60, 110
5, 72384, Note_on_c, 3, 64, 110
5, 72384, Note_on_c, 3, 69, 110
5, 72544, Note_on_c, 3, 60, 0
5, 72544, Note_on_c, 3, 64, 0
5, 72544, Note_on_c, 3, 69, 0
5, 72576, Note_on_c, 3, 60, 110
5, 72576, Note_on_c, 3, 64, 110
5, 72576, Note_on_c, 3, 69, 110
5, 72736, Note_on_c, 3, 60, 0
5, 72736, Note_on_c, 3, 64, 0
5, 72736, Note_on_c, 3, 69, 0
5, 72768, Note_on_c, 3, 60, 110
5, 72768, Note_on_c, 3, 64, 110
5, 72768, Note_on_c, 3, 69, 110
5, 72928, Note_on_c, 3, 60, 0
5, 72928, Note_on_c, 3, 64, 0
5, 72928, Note_on_c, 3, 69, 0
5, 72960, Note_on_c, 3, 60, 110
5, 72982, Note_on_c, 3, 60, 0
5, 72984, Note_on_c, 3, 61, 110
5, 72984, Note_on_c, 3, 64, 110
5, 72984, Note_on_c, 3, 69, 110
5, 73150, Note_on_c, 3, 61, 0
5, 73150, Note_on_c, 3, 64, 0
5, 73150, Note_on_c, 3, 69, 0
5, 73152, Note_on_c, 3, 61, 110
5, 73152, Note_on_c, 3, 64, 110
5, 73152, Note_on_c, 3, 69, 110
5, 73312, Note_on_c, 3, 61, 0
5, 73312, Note_on_c, 3, 64, 0
5, 73312, Note_on_c, 3, 69, 0
5, 73344, Note_on_c, 3, 61, 110
5, 73344, Note_on_c, 3, 64, 110
5, 73344, Note_on_c, 3, 69, 110
5, 73504, Note_on_c, 3, 61, 0
5, 73504, Note_on_c, 3, 64, 0
5, 73504, Note_on_c, 3, 69, 0
5, 73536, Note_on_c, 3, 61, 110
5, 73536, Note_on_c, 3, 64, 110
5, 73536, Note_on_c, 3, 69, 110
5, 73696, Note_on_c, 3, 61, 0
5, 73696, Note_on_c, 3, 64, 0
5, 73696, Note_on_c, 3, 69, 0
5, 73728, Note_on_c, 3, 60, 110
5, 73728, Note_on_c, 3, 64, 110
5, 73728, Note_on_c, 3, 69, 110
5, 73888, Note_on_c, 3, 60, 0
5, 73888, Note_on_c, 3, 64, 0
5, 73888, Note_on_c, 3, 69, 0
5, 73920, Note_on_c, 3, 60, 110
5, 73920, Note_on_c, 3, 64, 110
5, 73920, Note_on_c, 3, 69, 110
5, 74080, Note_on_c, 3, 60, 0
5, 74080, Note_on_c, 3, 64, 0
5, 74080, Note_on_c, 3, 69, 0
5, 74112, Note_on_c, 3, 60, 110
5, 74112, Note_on_c, 3, 64, 110
5, 74112, Note_on_c, 3, 69, 110
5, 74272, Note_on_c, 3, 60, 0
5, 74272, Note_on_c, 3, 64, 0
5, 74272, Note_on_c, 3, 69, 0
5, 74304, Note_on_c, 3, 60, 110
5, 74304, Note_on_c, 3, 64, 110
5, 74304, Note_on_c, 3, 69, 110
5, 74464, Note_on_c, 3, 60, 0
5, 74464, Note_on_c, 3, 64, 0
5, 74464, Note_on_c, 3, 69, 0
5, 74496, Note_on_c, 3, 60, 110
5, 74518, Note_on_c, 3, 60, 0
5, 74520, Note_on_c, 3, 61, 110
5, 74520, Note_on_c, 3, 64, 110
5, 74520, Note_on_c, 3, 69, 110
5, 74686, Note_on_c, 3, 61, 0
5, 74686, Note_on_c, 3, 64, 0
5, 74686, Note_on_c, 3, 69, 0
5, 74688, Note_on_c, 3, 61, 110
5, 74688, Note_on_c, 3, 64, 110
5, 74688, Note_on_c, 3, 69, 110
5, 74848, Note_on_c, 3, 61, 0
5, 74848, Note_on_c, 3, 64, 0
5, 74848, Note_on_c, 3, 69, 0
5, 74880, Note_on_c, 3, 61, 110
5, 74880, Note_on_c, 3, 64, 110
5, 74880, Note_on_c, 3, 69, 110
5, 75040, Note_on_c, 3, 61, 0
5, 75040, Note_on_c, 3, 64, 0
5, 75040, Note_on_c, 3, 69, 0
5, 75072, Note_on_c, 3, 61, 110
5, 75072, Note_on_c, 3, 64, 110
5, 75072, Note_on_c, 3, 69, 110
5, 75232, Note_on_c, 3, 61, 0
5, 75232, Note_on_c, 3, 64, 0
5, 75232, Note_on_c, 3, 69, 0
5, 75264, Note_on_c, 3, 59, 110
5, 75264, Note_on_c, 3, 62, 110
5, 75264, Note_on_c, 3, 66, 110
5, 75264, Note_on_c, 3, 68, 110
5, 75424, Note_on_c, 3, 59, 0
5, 75424, Note_on_c, 3, 62, 0
5, 75424, Note_on_c, 3, 66, 0
5, 75424, Note_on_c, 3, 68, 0
5, 75456, Note_on_c, 3, 59, 110
5, 75456, Note_on_c, 3, 62, 110
5, 75456, Note_on_c, 3, 66, 110
5, 75456, Note_on_c, 3, 68, 110
5, 75616, Note_on_c, 3, 59, 0
5, 75616, Note_on_c, 3, 62, 0
5, 75616, Note_on_c, 3, 66, 0
5, 75616, Note_on_c, 3, 68, 0
5, 75648, Note_on_c, 3, 59, 110
5, 75648, Note_on_c, 3, 62, 110
5, 75648, Note_on_c, 3, 66, 110
5, 75648, Note_on_c, 3, 68, 110
5, 75808, Note_on_c, 3, 59, 0
5, 75808, Note_on_c, 3, 62, 0
5, 75808, Note_on_c, 3, 66, 0
5, 75808, Note_on_c, 3, 68, 0
5, 75840, Note_on_c, 3, 59, 110
5, 75840, Note_on_c, 3, 62, 110
5, 75840, Note_on_c, 3, 66, 110
5, 75840, Note_on_c, 3, 68, 110
5, 76000, Note_on_c, 3, 59, 0
5, 76000, Note_on_c, 3, 62, 0
5, 76000, Note_on_c, 3, 66, 0
5, 76000, Note_on_c, 3, 68, 0
5, 76032, Note_on_c, 3, 57, 110
5, 76032, Note_on_c, 3, 62, 110
5, 76032, Note_on_c, 3, 64, 110
5, 76032, Note_on_c, 3, 67, 110
5, 76192, Note_on_c, 3, 57, 0
5, 76192, Note_on_c, 3, 62, 0
5, 76192, Note_on_c, 3, 64, 0
5, 76192, Note_on_c, 3, 67, 0
5, 76224, Note_on_c, 3, 57, 110
5, 76224, Note_on_c, 3, 62, 110
5, 76224, Note_on_c, 3, 64, 110
5, 76224, Note_on_c, 3, 67, 110
5, 76384, Note_on_c, 3, 57, 0
5, 76384, Note_on_c, 3, 62, 0
5, 76384, Note_on_c, 3, 64, 0
5, 76384, Note_on_c, 3, 67, 0
5, 76416, Note_on_c, 3, 57, 110
5, 76416, Note_on_c, 3, 62, 110
5, 76416, Note_on_c, 3, 64, 110
5, 76416, Note_on_c, 3, 67, 110
5, 76576, Note_on_c, 3, 57, 0
5, 76576, Note_on_c, 3, 62, 0
5, 76576, Note_on_c, 3, 64, 0
5, 76576, Note_on_c, 3, 67, 0
5, 76608, Note_on_c, 3, 57, 110
5, 76608, Note_on_c, 3, 62, 110
5, 76608, Note_on_c, 3, 64, 110
5, 76608, Note_on_c, 3, 67, 110
5, 76768, Note_on_c, 3, 57, 0
5, 76768, Note_on_c, 3, 62, 0
5, 76768, Note_on_c, 3, 64, 0
5, 76768, Note_on_c, 3, 67, 0
5, 76800, Note_on_c, 3, 57, 110
5, 76800, Note_on_c, 3, 62, 110
5, 76800, Note_on_c, 3, 64, 110
5, 76800, Note_on_c, 3, 67, 110
5, 76960, Note_on_c, 3, 57, 0
5, 76960, Note_on_c, 3, 62, 0
5, 76960, Note_on_c, 3, 64, 0
5, 76960, Note_on_c, 3, 67, 0
5, 76992, Note_on_c, 3, 57, 110
5, 76992, Note_on_c, 3, 62, 110
5, 76992, Note_on_c, 3, 64, 110
5, 76992, Note_on_c, 3, 67, 110
5, 77152, Note_on_c, 3, 57, 0
5, 77152, Note_on_c, 3, 62, 0
5, 77152, Note_on_c, 3, 64, 0
5, 77152, Note_on_c, 3, 67, 0
5, 77184, Note_on_c, 3, 57, 110
5, 77184, Note_on_c, 3, 62, 110
5, 77184, Note_on_c, 3, 64, 110
5, 77184, Note_on_c, 3, 67, 110
5, 77344, Note_on_c, 3, 57, 0
5, 77344, Note_on_c, 3, 62, 0
5, 77344, Note_on_c, 3, 64, 0
5, 77344, Note_on_c, 3, 67, 0
5, 77376, Note_on_c, 3, 57, 110
5, 77376, Note_on_c, 3, 62, 110
5, 77376, Note_on_c, 3, 64, 110
5, 77376, Note_on_c, 3, 67, 110
5, 77536, Note_on_c, 3, 57, 0
5, 77536, Note_on_c, 3, 62, 0
5, 77536, Note_on_c, 3, 64, 0
5, 77536, Note_on_c, 3, 67, 0
5, 77568, Note_on_c, 3, 59, 110
5, 77568, Note_on_c, 3, 62, 110
5, 77568, Note_on_c, 3, 67, 110
5, 77728, Note_on_c, 3, 59, 0
5, 77728, Note_on_c, 3, 62, 0
5, 77728, Note_on_c, 3, 67, 0
5, 77760, Note_on_c, 3, 59, 110
5, 77760, Note_on_c, 3, 62, 110
5, 77760, Note_on_c, 3, 67, 110
5, 77920, Note_on_c, 3, 59, 0
5, 77920, Note_on_c, 3, 62, 0
5, 77920, Note_on_c, 3, 67, 0
5, 77952, Note_on_c, 3, 59, 110
5, 77952, Note_on_c, 3, 62, 110
5, 77952, Note_on_c, 3, 67, 110
5, 78112, Note_on_c, 3, 59, 0
5, 78112, Note_on_c, 3, 62, 0
5, 78112, Note_on_c, 3, 67, 0
5, 78144, Note_on_c, 3, 59, 110
5, 78144, Note_on_c, 3, 62, 110
5, 78144, Note_on_c, 3, 67, 110
5, 78304, Note_on_c, 3, 59, 0
5, 78304, Note_on_c, 3, 62, 0
5, 78304, Note_on_c, 3, 67, 0
5, 78336, Note_on_c, 3, 57, 110
5, 78336, Note_on_c, 3, 62, 110
5, 78336, Note_on_c, 3, 66, 110
5, 78496, Note_on_c, 3, 57, 0
5, 78496, Note_on_c, 3, 62, 0
5, 78496, Note_on_c, 3, 66, 0
5, 78528, Note_on_c, 3, 57, 110
5, 78528, Note_on_c, 3, 62, 110
5, 78528, Note_on_c, 3, 66, 110
5, 78688, Note_on_c, 3, 57, 0
5, 78688, Note_on_c, 3, 62, 0
5, 78688, Note_on_c, 3, 66, 0
5, 78720, Note_on_c, 3, 57, 110
5, 78720, Note_on_c, 3, 62, 110
5, 78720, Note_on_c, 3, 66, 110
5, 78880, Note_on_c, 3, 57, 0
5, 78880, Note_on_c, 3, 62, 0
5, 78880, Note_on_c, 3, 66, 0
5, 78912, Note_on_c, 3, 57, 110
5, 78912, Note_on_c, 3, 62, 110
5, 78912, Note_on_c, 3, 66, 110
5, 79072, Note_on_c, 3, 57, 0
5, 79072, Note_on_c, 3, 62, 0
5, 79072, Note_on_c, 3, 66, 0
5, 79104, Note_on_c, 3, 61, 110
5, 79104, Note_on_c, 3, 64, 110
5, 79104, Note_on_c, 3, 69, 110
5, 79264, Note_on_c, 3, 61, 0
5, 79264, Note_on_c, 3, 64, 0
5, 79264, Note_on_c, 3, 69, 0
5, 79296, Note_on_c, 3, 61, 110
5, 79296, Note_on_c, 3, 64, 110
5, 79296, Note_on_c, 3, 69, 110
5, 79456, Note_on_c, 3, 61, 0
5, 79456, Note_on_c, 3, 64, 0
5, 79456, Note_on_c, 3, 69, 0
5, 79488, Note_on_c, 3, 61, 110
5, 79488, Note_on_c, 3, 64, 110
5, 79488, Note_on_c, 3, 69, 110
5, 79648, Note_on_c, 3, 61, 0
5, 79648, Note_on_c, 3, 64, 0
5, 79648, Note_on_c, 3, 69, 0
5, 79680, Note_on_c, 3, 61, 110
5, 79680, Note_on_c, 3, 64, 110
5, 79680, Note_on_c, 3, 69, 110
5, 79840, Note_on_c, 3, 61, 0
5, 79840, Note_on_c, 3, 64, 0
5, 79840, Note_on_c, 3, 69, 0
5, 79872, Note_on_c, 3, 61, 110
5, 79872, Note_on_c, 3, 64, 110
5, 79872, Note_on_c, 3, 69, 110
5, 80032, Note_on_c, 3, 61, 0
5, 80032, Note_on_c, 3, 64, 0
5, 80032, Note_on_c, 3, 69, 0
5, 80064, Note_on_c, 3, 61, 110
5, 80064, Note_on_c, 3, 64, 110
5, 80064, Note_on_c, 3, 69, 110
5, 80224, Note_on_c, 3, 61, 0
5, 80224, Note_on_c, 3, 64, 0
5, 80224, Note_on_c, 3, 69, 0
5, 80256, Note_on_c, 3, 61, 110
5, 80256, Note_on_c, 3, 64, 110
5, 80256, Note_on_c, 3, 69, 110
5, 80416, Note_on_c, 3, 61, 0
5, 80416, Note_on_c, 3, 64, 0
5, 80416, Note_on_c, 3, 69, 0
5, 80448, Note_on_c, 3, 61, 110
5, 80448, Note_on_c, 3, 64, 110
5, 80448, Note_on_c, 3, 69, 110
5, 80608, Note_on_c, 3, 61, 0
5, 80608, Note_on_c, 3, 64, 0
5, 80608, Note_on_c, 3, 69, 0
5, 80640, Note_on_c, 3, 59, 110
5, 80640, Note_on_c, 3, 62, 110
5, 80640, Note_on_c, 3, 67, 110
5, 80800, Note_on_c, 3, 59, 0
5, 80800, Note_on_c, 3, 62, 0
5, 80800, Note_on_c, 3, 67, 0
5, 80832, Note_on_c, 3, 59, 110
5, 80832, Note_on_c, 3, 62, 110
5, 80832, Note_on_c, 3, 67, 110
5, 80992, Note_on_c, 3, 59, 0
5, 80992, Note_on_c, 3, 62, 0
5, 80992, Note_on_c, 3, 67, 0
5, 81024, Note_on_c, 3, 59, 110
5, 81024, Note_on_c, 3, 62, 110
5, 81024, Note_on_c, 3, 67, 110
5, 81184, Note_on_c, 3, 59, 0
5, 81184, Note_on_c, 3, 62, 0
5, 81184, Note_on_c, 3, 67, 0
5, 81216, Note_on_c, 3, 59, 110
5, 81216, Note_on_c, 3, 62, 110
5, 81216, Note_on_c, 3, 67, 110
5, 81376, Note_on_c, 3, 59, 0
5, 81376, Note_on_c, 3, 62, 0
5, 81376, Note_on_c, 3, 67, 0
5, 81408, Note_on_c, 3, 57, 110
5, 81408, Note_on_c, 3, 62, 110
5, 81408, Note_on_c, 3, 66, 110
5, 81568, Note_on_c, 3, 57, 0
5, 81568, Note_on_c, 3, 62, 0
5, 81568, Note_on_c, 3, 66, 0
5, 81600, Note_on_c, 3, 57, 110
5, 81600, Note_on_c, 3, 62, 110
5, 81600, Note_on_c, 3, 66, 110
5, 81760, Note_on_c, 3, 57, 0
5, 81760, Note_on_c, 3, 62, 0
5, 81760, Note_on_c, 3, 66, 0
5, 81792, Note_on_c, 3, 57, 110
5, 81792, Note_on_c, 3, 62, 110
5, 81792, Note_on_c, 3, 66, 110
5, 81952, Note_on_c, 3, 57, 0
5, 81952, Note_on_c, 3, 62, 0
5, 81952, Note_on_c, 3, 66, 0
5, 81984, Note_on_c, 3, 57, 110
5, 81984, Note_on_c, 3, 62, 110
5, 81984, Note_on_c, 3, 66, 110
5, 82144, Note_on_c, 3, 57, 0
5, 82144, Note_on_c, 3, 62, 0
5, 82144, Note_on_c, 3, 66, 0
5, 82176, Note_on_c, 3, 61, 110
5, 82176, Note_on_c, 3, 64, 110
5, 82176, Note_on_c, 3, 69, 110
5, 82336, Note_on_c, 3, 61, 0
5, 82336, Note_on_c, 3, 64, 0
5, 82336, Note_on_c, 3, 69, 0
5, 82368, Note_on_c, 3, 61, 110
5, 82368, Note_on_c, 3, 64, 110
5, 82368, Note_on_c, 3, 69, 110
5, 82528, Note_on_c, 3, 61, 0
5, 82528, Note_on_c, 3, 64, 0
5, 82528, Note_on_c, 3, 69, 0
5, 82560, Note_on_c, 3, 61, 110
5, 82560, Note_on_c, 3, 64, 110
5, 82560, Note_on_c, 3, 69, 110
5, 82720, Note_on_c, 3, 61, 0
5, 82720, Note_on_c, 3, 64, 0
5, 82720, Note_on_c, 3, 69, 0
5, 82752, Note_on_c, 3, 61, 110
5, 82752, Note_on_c, 3, 64, 110
5, 82752, Note_on_c, 3, 69, 110
5, 82912, Note_on_c, 3, 61, 0
5, 82912, Note_on_c, 3, 64, 0
5, 82912, Note_on_c, 3, 69, 0
5, 82944, Note_on_c, 3, 61, 110
5, 82944, Note_on_c, 3, 64, 110
5, 82944, Note_on_c, 3, 69, 110
5, 83104, Note_on_c, 3, 61, 0
5, 83104, Note_on_c, 3, 64, 0
5, 83104, Note_on_c, 3, 69, 0
5, 83136, Note_on_c, 3, 61, 110
5, 83136, Note_on_c, 3, 64, 110
5, 83136, Note_on_c, 3, 69, 110
5, 83296, Note_on_c, 3, 61, 0
5, 83296, Note_on_c, 3, 64, 0
5, 83296, Note_on_c, 3, 69, 0
5, 83328, Note_on_c, 3, 61, 110
5, 83328, Note_on_c, 3, 64, 110
5, 83328, Note_on_c, 3, 69, 110
5, 83488, Note_on_c, 3, 61, 0
5, 83488, Note_on_c, 3, 64, 0
5, 83488, Note_on_c, 3, 69, 0
5, 83520, Note_on_c, 3, 61, 110
5, 83520, Note_on_c, 3, 64, 110
5, 83520, Note_on_c, 3, 69, 110
5, 83680, Note_on_c, 3, 61, 0
5, 83680, Note_on_c, 3, 64, 0
5, 83680, Note_on_c, 3, 69, 0
5, 83712, Note_on_c, 3, 59, 110
5, 83712, Note_on_c, 3, 62, 110
5, 83712, Note_on_c, 3, 67, 110
5, 83872, Note_on_c, 3, 59, 0
5, 83872, Note_on_c, 3, 62, 0
5, 83872, Note_on_c, 3, 67, 0
5, 83904, Note_on_c, 3, 59, 110
5, 83904, Note_on_c, 3, 62, 110
5, 83904, Note_on_c, 3, 67, 110
5, 84064, Note_on_c, 3, 59, 0
5, 84064, Note_on_c, 3, 62, 0
5, 84064, Note_on_c, 3, 67, 0
5, 84096, Note_on_c, 3, 59, 110
5, 84096, Note_on_c, 3, 62, 110
5, 84096, Note_on_c, 3, 67, 110
5, 84256, Note_on_c, 3, 59, 0
5, 84256, Note_on_c, 3, 62, 0
5, 84256, Note_on_c, 3, 67, 0
5, 84288, Note_on_c, 3, 59, 110
5, 84288, Note_on_c, 3, 62, 110
5, 84288, Note_on_c, 3, 67, 110
5, 84448, Note_on_c, 3, 59, 0
5, 84448, Note_on_c, 3, 62, 0
5, 84448, Note_on_c, 3, 67, 0
5, 84480, Note_on_c, 3, 57, 110
5, 84480, Note_on_c, 3, 62, 110
5, 84480, Note_on_c, 3, 66, 110
5, 84640, Note_on_c, 3, 57, 0
5, 84640, Note_on_c, 3, 62, 0
5, 84640, Note_on_c, 3, 66, 0
5, 84672, Note_on_c, 3, 57, 110
5, 84672, Note_on_c, 3, 62, 110
5, 84672, Note_on_c, 3, 66, 110
5, 84832, Note_on_c, 3, 57, 0
5, 84832, Note_on_c, 3, 62, 0
5, 84832, Note_on_c, 3, 66, 0
5, 84864, Note_on_c, 3, 57, 110
5, 84864, Note_on_c, 3, 62, 110
5, 84864, Note_on_c, 3, 66, 110
5, 85024, Note_on_c, 3, 57, 0
5, 85024, Note_on_c, 3, 62, 0
5, 85024, Note_on_c, 3, 66, 0
5, 85056, Note_on_c, 3, 57, 110
5, 85056, Note_on_c, 3, 62, 110
5, 85056, Note_on_c, 3, 66, 110
5, 85216, Note_on_c, 3, 57, 0
5, 85216, Note_on_c, 3, 62, 0
5, 85216, Note_on_c, 3, 66, 0
5, 85248, Note_on_c, 3, 61, 110
5, 85248, Note_on_c, 3, 64, 110
5, 85248, Note_on_c, 3, 69, 110
5, 85408, Note_on_c, 3, 61, 0
5, 85408, Note_on_c, 3, 64, 0
5, 85408, Note_on_c, 3, 69, 0
5, 85440, Note_on_c, 3, 60, 110
5, 85440, Note_on_c, 3, 63, 110
5, 85440, Note_on_c, 3, 68, 110
5, 85534, Note_on_c, 3, 60, 0
5, 85534, Note_on_c, 3, 63, 0
5, 85534, Note_on_c, 3, 68, 0
5, 85536, Note_on_c, 3, 61, 110
5, 85536, Note_on_c, 3, 64, 110
5, 85536, Note_on_c, 3, 69, 110
5, 85630, Note_on_c, 3, 61, 0
5, 85630, Note_on_c, 3, 64, 0
5, 85630, Note_on_c, 3, 69, 0
5, 85824, Note_on_c, 3, 63, 110
5, 85824, Note_on_c, 3, 68, 110
5, 85824, Note_on_c, 3, 72, 110
5, 85918, Note_on_c, 3, 63, 0
5, 85918, Note_on_c, 3, 68, 0
5, 85918, Note_on_c, 3, 72, 0
5, 85920, Note_on_c, 3, 64, 110
5, 85920, Note_on_c, 3, 69, 110
5, 85920, Note_on_c, 3, 73, 110
5, 86014, Note_on_c, 3, 64, 0
5, 86014, Note_on_c, 3, 69, 0
5, 86014, Note_on_c, 3, 73, 0
5, 86208, Note_on_c, 3, 61, 110
5, 86208, Note_on_c, 3, 64, 110
5, 86208, Note_on_c, 3, 69, 110
5, 86302, Note_on_c, 3, 61, 0
5, 86302, Note_on_c, 3, 64, 0
5, 86302, Note_on_c, 3, 69, 0
5, 86304, Note_on_c, 3, 64, 110
5, 86304, Note_on_c, 3, 69, 110
5, 86304, Note_on_c, 3, 73, 110
5, 86736, Note_on_c, 3, 64, 0
5, 86736, Note_on_c, 3, 69, 0
5, 86736, Note_on_c, 3, 73, 0
5, 86784, Program_c, 3, 19
5, 86784, Note_on_c, 3, 62, 110
5, 86784, Note_on_c, 3, 68, 110
5, 86784, Note_on_c, 3, 71, 110
5, 87168, Note_on_c, 3, 66, 110
5, 87504, Note_on_c, 3, 66, 0
5, 88272, Note_on_c, 3, 62, 0
5, 88272, Note_on_c, 3, 68, 0
5, 88272, Note_on_c, 3, 71, 0
5, 88320, Note_on_c, 3, 62, 110
5, 88320, Note_on_c, 3, 66, 110
5, 88320, Note_on_c, 3, 69, 110
5, 89808, Note_on_c, 3, 62, 0
5, 89808, Note_on_c, 3, 66, 0
5, 89808, Note_on_c, 3, 69, 0
5, 89856, Note_on_c, 3, 59, 110
5, 89856, Note_on_c, 3, 62, 110
5, 89856, Note_on_c, 3, 66, 110
5, 89856, Note_on_c, 3, 69, 110
5, 90960, Note_on_c, 3, 59, 0
5, 90960, Note_on_c, 3, 62, 0
5, 90960, Note_on_c, 3, 66, 0
5, 90960, Note_on_c, 3, 69, 0
5, 91008, Note_on_c, 3, 61, 110
5, 91008, Note_on_c, 3, 64, 110
5, 91008, Note_on_c, 3, 69, 110
5, 91344, Note_on_c, 3, 61, 0
5, 91344, Note_on_c, 3, 64, 0
5, 91344, Note_on_c, 3, 69, 0
5, 91392, Note_on_c, 3, 57, 110
5, 91392, Note_on_c, 3, 62, 110
5, 91392, Note_on_c, 3, 66, 110
5, 92112, Note_on_c, 3, 57, 0
5, 92112, Note_on_c, 3, 62, 0
5, 92112, Note_on_c, 3, 66, 0
5, 92160, Note_on_c, 3, 62, 110
5, 92160, Note_on_c, 3, 67, 110
5, 92160, Note_on_c, 3, 71, 110
5, 92880, Note_on_c, 3, 62, 0
5, 92880, Note_on_c, 3, 67, 0
5, 92880, Note_on_c, 3, 71, 0
5, 92928, Note_on_c, 3, 61, 110
5, 92928, Note_on_c, 3, 64, 110
5, 92928, Note_on_c, 3, 69, 110
5, 93648, Note_on_c, 3, 61, 0
5, 93648, Note_on_c, 3, 64, 0
5, 93648, Note_on_c, 3, 69, 0
5, 93696, Note_on_c, 3, 59, 110
5, 93696, Note_on_c, 3, 62, 110
5, 93696, Note_on_c, 3, 66, 110
5, 94032, Note_on_c, 3, 59, 0
5, 94032, Note_on_c, 3, 62, 0
5, 94032, Note_on_c, 3, 66, 0
5, 94080, Note_on_c, 3, 61, 110
5, 94080, Note_on_c, 3, 64, 110
5, 94080, Note_on_c, 3, 69, 110
5, 95184, Note_on_c, 3, 61, 0
5, 95184, Note_on_c, 3, 64, 0
5, 95184, Note_on_c, 3, 69, 0
5, 95232, Note_on_c, 3, 62, 110
5, 95232, Note_on_c, 3, 66, 110
5, 95232, Note_on_c, 3, 69, 110
5, 95952, Note_on_c, 3, 62, 0
5, 95952, Note_on_c, 3, 66, 0
5, 95952, Note_on_c, 3, 69, 0
5, 96000, Note_on_c, 3, 62, 110
5, 96000, Note_on_c, 3, 67, 110
5, 96000, Note_on_c, 3, 71, 110
5, 97104, Note_on_c, 3, 62, 0
5, 97104, Note_on_c, 3, 68, 0
5, 97104, Note_on_c, 3, 71, 0
5, 97152, Note_on_c, 3, 62, 110
5, 97152, Note_on_c, 3, 66, 110
5, 97152, Note_on_c, 3, 69, 110
5, 97488, Note_on_c, 3, 62, 0
5, 97488, Note_on_c, 3, 66, 0
5, 97488, Note_on_c, 3, 69, 0
5, 97536, Note_on_c, 3, 64, 110
5, 97536, Note_on_c, 3, 67, 110
5, 97536, Note_on_c, 3, 71, 110
5, 99024, Note_on_c, 3, 64, 0
5, 99024, Note_on_c, 3, 68, 0
5, 99024, Note_on_c, 3, 71, 0
5, 99072, Note_on_c, 3, 62, 110
5, 99072, Note_on_c, 3, 67, 110
5, 99072, Note_on_c, 3, 71, 110
5, 99072, Note_on_c, 3, 74, 110
5, 99712, Note_on_c, 3, 62, 0
5, 99712, Note_on_c, 3, 67, 0
5, 99712, Note_on_c, 3, 71, 0
5, 99712, Note_on_c, 3, 74, 0
5, 99744, Note_on_c, 3, 62, 110
5, 99744, Note_on_c, 3, 66, 110
5, 99744, Note_on_c, 3, 69, 110
5, 99744, Note_on_c, 3, 74, 110
5, 100384, Note_on_c, 3, 62, 0
5, 100384, Note_on_c, 3, 66, 0
5, 100384, Note_on_c, 3, 69, 0
5, 100384, Note_on_c, 3, 74, 0
5, 100416, Note_on_c, 3, 64, 110
5, 100416, Note_on_c, 3, 69, 110
5, 100416, Note_on_c, 3, 73, 110
5, 101056, Note_on_c, 3, 64, 0
5, 101056, Note_on_c, 3, 69, 0
5, 101056, Note_on_c, 3, 73, 0
5, 101088, Note_on_c, 3, 66, 110
5, 101088, Note_on_c, 3, 69, 110
5, 101088, Note_on_c, 3, 74, 110
5, 101728, Note_on_c, 3, 66, 0
5, 101728, Note_on_c, 3, 69, 0
5, 101728, Note_on_c, 3, 74, 0
5, 101760, Control_c, 3, 7, 26
5, 101760, Program_c, 3, 52
5, 101760, Note_on_c, 3, 62, 110
5, 101760, Note_on_c, 3, 67, 110
5, 101760, Note_on_c, 3, 71, 110
5, 101760, Note_on_c, 3, 74, 110
5, 101788, Control_c, 3, 7, 27
5, 101816, Control_c, 3, 7, 28
5, 101845, Control_c, 3, 7, 29
5, 101873, Control_c, 3, 7, 30
5, 101902, Control_c, 3, 7, 31
5, 101930, Control_c, 3, 7, 32
5, 101959, Control_c, 3, 7, 33
5, 101987, Control_c, 3, 7, 34
5, 102016, Control_c, 3, 7, 35
5, 102044, Control_c, 3, 7, 36
5, 102072, Control_c, 3, 7, 37
5, 102101, Control_c, 3, 7, 38
5, 102129, Control_c, 3, 7, 39
5, 102158, Control_c, 3, 7, 40
5, 102186, Control_c, 3, 7, 41
5, 102215, Control_c, 3, 7, 42
5, 102243, Control_c, 3, 7, 43
5, 102272, Control_c, 3, 7, 44
5, 102300, Control_c, 3, 7, 45
5, 102328, Control_c, 3, 7, 46
5, 102357, Control_c, 3, 7, 47
5, 102385, Control_c, 3, 7, 48
5, 102400, Note_on_c, 3, 62, 0
5, 102400, Note_on_c, 3, 67, 0
5, 102400, Note_on_c, 3, 71, 0
5, 102400, Note_on_c, 3, 74, 0
5, 102414, Control_c, 3, 7, 49
5, 102432, Note_on_c, 3, 62, 110
5, 102432, Note_on_c, 3, 66, 110
5, 102432, Note_on_c, 3, 69, 110
5, 102432, Note_on_c, 3, 74, 110
5, 102442, Control_c, 3, 7, 50
5, 102471, Control_c, 3, 7, 51
5, 102499, Control_c, 3, 7, 52
5, 102528, Control_c, 3, 7, 53
5, 102555, Control_c, 3, 7, 54
5, 102582, Control_c, 3, 7, 55
5, 102610, Control_c, 3, 7, 56
5, 102637, Control_c, 3, 7, 57
5, 102665, Control_c, 3, 7, 58
5, 102692, Control_c, 3, 7, 59
5, 102720, Control_c, 3, 7, 60
5, 102747, Control_c, 3, 7, 61
5, 102774, Control_c, 3, 7, 62
5, 102802, Control_c, 3, 7, 63
5, 102829, Control_c, 3, 7, 64
5, 102857, Control_c, 3, 7, 65
5, 102884, Control_c, 3, 7, 66
5, 102912, Control_c, 3, 7, 67
5, 102939, Control_c, 3, 7, 68
5, 102966, Control_c, 3, 7, 69
5, 102994, Control_c, 3, 7, 70
5, 103021, Control_c, 3, 7, 71
5, 103049, Control_c, 3, 7, 72
5, 103072, Note_on_c, 3, 62, 0
5, 103072, Note_on_c, 3, 66, 0
5, 103072, Note_on_c, 3, 69, 0
5, 103072, Note_on_c, 3, 74, 0
5, 103076, Control_c, 3, 7, 73
5, 103104, Control_c, 3, 7, 74
5, 103104, Note_on_c, 3, 64, 110
5, 103104, Note_on_c, 3, 69, 110
5, 103104, Note_on_c, 3, 73, 110
5, 103131, Control_c, 3, 7, 75
5, 103158, Control_c, 3, 7, 76
5, 103186, Control_c, 3, 7, 77
5, 103213, Control_c, 3, 7, 78
5, 103241, Control_c, 3, 7, 79
5, 103268, Control_c, 3, 7, 80
5, 103296, Control_c, 3, 7, 81
5, 103319, Control_c, 3, 7, 82
5, 103342, Control_c, 3, 7, 83
5, 103365, Control_c, 3, 7, 84
5, 103389, Control_c, 3, 7, 85
5, 103412, Control_c, 3, 7, 86
5, 103435, Control_c, 3, 7, 87
5, 103458, Control_c, 3, 7, 88
5, 103482, Control_c, 3, 7, 89
5, 103505, Control_c, 3, 7, 90
5, 103528, Control_c, 3, 7, 91
5, 103552, Control_c, 3, 7, 92
5, 103575, Control_c, 3, 7, 93
5, 103598, Control_c, 3, 7, 94
5, 103621, Control_c, 3, 7, 95
5, 103645, Control_c, 3, 7, 96
5, 103668, Control_c, 3, 7, 97
5, 103691, Control_c, 3, 7, 98
5, 103714, Control_c, 3, 7, 99
5, 103738, Control_c, 3, 7, 100
5, 103744, Note_on_c, 3, 64, 0
5, 103744, Note_on_c, 3, 69, 0
5, 103744, Note_on_c, 3, 73, 0
5, 103761, Control_c, 3, 7, 101
5, 103776, Note_on_c, 3, 66, 110
5, 103776, Note_on_c, 3, 69, 110
5, 103776, Note_on_c, 3, 74, 110
5, 103784, Control_c, 3, 7, 102
5, 103808, Control_c, 3, 7, 103
5, 103831, Control_c, 3, 7, 104
5, 103854, Control_c, 3, 7, 105
5, 103877, Control_c, 3, 7, 106
5, 103901, Control_c, 3, 7, 107
5, 103924, Control_c, 3, 7, 108
5, 103947, Control_c, 3, 7, 109
5, 103970, Control_c, 3, 7, 110
5, 103994, Control_c, 3, 7, 111
5, 104017, Control_c, 3, 7, 112
5, 104040, Control_c, 3, 7, 113
5, 104064, Control_c, 3, 7, 114
5, 104416, Note_on_c, 3, 66, 0
5, 104416, Note_on_c, 3, 69, 0
5, 104416, Note_on_c, 3, 74, 0
5, 104448, Control_c, 3, 7, 26
5, 104448, Program_c, 3, 52
5, 104448, Note_on_c, 3, 62, 110
5, 104448, Note_on_c, 3, 67, 110
5, 104448, Note_on_c, 3, 71, 110
5, 104448, Note_on_c, 3, 74, 110
5, 104476, Control_c, 3, 7, 27
5, 104504, Control_c, 3, 7, 28
5, 104533, Control_c, 3, 7, 29
5, 104561, Control_c, 3, 7, 30
5, 104590, Control_c, 3, 7, 31
5, 104618, Control_c, 3, 7, 32
5, 104647, Control_c, 3, 7, 33
5, 104675, Control_c, 3, 7, 34
5, 104704, Control_c, 3, 7, 35
5, 104732, Control_c, 3, 7, 36
5, 104760, Control_c, 3, 7, 37
5, 104789, Control_c, 3, 7, 38
5, 104817, Control_c, 3, 7, 39
5, 104846, Control_c, 3, 7, 40
5, 104874, Control_c, 3, 7, 41
5, 104903, Control_c, 3, 7, 42
5, 104931, Control_c, 3, 7, 43
5, 104960, Control_c, 3, 7, 44
5, 104988, Control_c, 3, 7, 45
5, 105016, Control_c, 3, 7, 46
5, 105045, Control_c, 3, 7, 47
5, 105073, Control_c, 3, 7, 48
5, 105088, Note_on_c, 3, 62, 0
5, 105088, Note_on_c, 3, 67, 0
5, 105088, Note_on_c, 3, 71, 0
5, 105088, Note_on_c, 3, 74, 0
5, 105102, Control_c, 3, 7, 49
5, 105120, Note_on_c, 3, 62, 110
5, 105120, Note_on_c, 3, 66, 110
5, 105120, Note_on_c, 3, 69, 110
5, 105120, Note_on_c, 3, 74, 110
5, 105130, Control_c, 3, 7, 50
5, 105159, Control_c, 3, 7, 51
5, 105187, Control_c, 3, 7, 52
5, 105216, Control_c, 3, 7, 53
5, 105243, Control_c, 3, 7, 54
5, 105270, Control_c, 3, 7, 55
5, 105298, Control_c, 3, 7, 56
5, 105325, Control_c, 3, 7, 57
5, 105353, Control_c, 3, 7, 58
5, 105380, Control_c, 3, 7, 59
5, 105408, Control_c, 3, 7, 60
5, 105435, Control_c, 3, 7, 61
5, 105462, Control_c, 3, 7, 62
5, 105490, Control_c, 3, 7, 63
5, 105517, Control_c, 3, 7, 64
5, 105545, Control_c, 3, 7, 65
5, 105572, Control_c, 3, 7, 66
5, 105600, Control_c, 3, 7, 67
5, 105627, Control_c, 3, 7, 68
5, 105654, Control_c, 3, 7, 69
5, 105682, Control_c, 3, 7, 70
5, 105709, Control_c, 3, 7, 71
5, 105737, Control_c, 3, 7, 72
5, 105760, Note_on_c, 3, 62, 0
5, 105760, Note_on_c, 3, 66, 0
5, 105760, Note_on_c, 3, 69, 0
5, 105760, Note_on_c, 3, 74, 0
5, 105764, Control_c, 3, 7, 73
5, 105792, Control_c, 3, 7, 74
5, 105792, Note_on_c, 3, 64, 110
5, 105792, Note_on_c, 3, 69, 110
5, 105792, Note_on_c, 3, 73, 110
5, 105819, Control_c, 3, 7, 75
5, 105846, Control_c, 3, 7, 76
5, 105874, Control_c, 3, 7, 77
5, 105901, Control_c, 3, 7, 78
5, 105929, Control_c, 3, 7, 79
5, 105956, Control_c, 3, 7, 80
5, 105984, Control_c, 3, 7, 81
5, 106007, Control_c, 3, 7, 82
5, 106030, Control_c, 3, 7, 83
5, 106053, Control_c, 3, 7, 84
5, 106077, Control_c, 3, 7, 85
5, 106100, Control_c, 3, 7, 86
5, 106123, Control_c, 3, 7, 87
5, 106146, Control_c, 3, 7, 88
5, 106170, Control_c, 3, 7, 89
5, 106193, Control_c, 3, 7, 90
5, 106216, Control_c, 3, 7, 91
5, 106240, Control_c, 3, 7, 92
5, 106263, Control_c, 3, 7, 93
5, 106286, Control_c, 3, 7, 94
5, 106309, Control_c, 3, 7, 95
5, 106333, Control_c, 3, 7, 96
5, 106356, Control_c, 3, 7, 97
5, 106379, Control_c, 3, 7, 98
5, 106402, Control_c, 3, 7, 99
5, 106426, Control_c, 3, 7, 100
5, 106432, Note_on_c, 3, 64, 0
5, 106432, Note_on_c, 3, 69, 0
5, 106432, Note_on_c, 3, 73, 0
5, 106449, Control_c, 3, 7, 101
5, 106464, Note_on_c, 3, 66, 110
5, 106464, Note_on_c, 3, 69, 110
5, 106464, Note_on_c, 3, 74, 110
5, 106472, Control_c, 3, 7, 102
5, 106496, Control_c, 3, 7, 103
5, 106519, Control_c, 3, 7, 104
5, 106542, Control_c, 3, 7, 105
5, 106565, Control_c, 3, 7, 106
5, 106589, Control_c, 3, 7, 107
5, 106612, Control_c, 3, 7, 108
5, 106635, Control_c, 3, 7, 109
5, 106658, Control_c, 3, 7, 110
5, 106682, Control_c, 3, 7, 111
5, 106705, Control_c, 3, 7, 112
5, 106728, Control_c, 3, 7, 113
5, 106752, Control_c, 3, 7, 114
5, 107104, Note_on_c, 3, 66, 0
5, 107104, Note_on_c, 3, 69, 0
5, 107104, Note_on_c, 3, 74, 0
5, 107136, Control_c, 3, 7, 26
5, 107136, Program_c, 3, 52
5, 107136, Note_on_c, 3, 62, 110
5, 107136, Note_on_c, 3, 67, 110
5, 107136, Note_on_c, 3, 71, 110
5, 107136, Note_on_c, 3, 74, 110
5, 107164, Control_c, 3, 7, 27
5, 107192, Control_c, 3, 7, 28
5, 107221, Control_c, 3, 7, 29
5, 107249, Control_c, 3, 7, 30
5, 107278, Control_c, 3, 7, 31
5, 107306, Control_c, 3, 7, 32
5, 107335, Control_c, 3, 7, 33
5, 107363, Control_c, 3, 7, 34
5, 107392, Control_c, 3, 7, 35
5, 107420, Control_c, 3, 7, 36
5, 107448, Control_c, 3, 7, 37
5, 107477, Control_c, 3, 7, 38
5, 107505, Control_c, 3, 7, 39
5, 107534, Control_c, 3, 7, 40
5, 107562, Control_c, 3, 7, 41
5, 107591, Control_c, 3, 7, 42
5, 107619, Control_c, 3, 7, 43
5, 107648, Control_c, 3, 7, 44
5, 107676, Control_c, 3, 7, 45
5, 107704, Control_c, 3, 7, 46
5, 107733, Control_c, 3, 7, 47
5, 107761, Control_c, 3, 7, 48
5, 107776, Note_on_c, 3, 62, 0
5, 107776, Note_on_c, 3, 67, 0
5, 107776, Note_on_c, 3, 71, 0
5, 107776, Note_on_c, 3, 74, 0
5, 107790, Control_c, 3, 7, 49
5, 107808, Note_on_c, 3, 62, 110
5, 107808, Note_on_c, 3, 66, 110
5, 107808, Note_on_c, 3, 69, 110
5, 107808, Note_on_c, 3, 74, 110
5, 107818, Control_c, 3, 7, 50
5, 107847, Control_c, 3, 7, 51
5, 107875, Control_c, 3, 7, 52
5, 107904, Control_c, 3, 7, 53
5, 107931, Control_c, 3, 7, 54
5, 107958, Control_c, 3, 7, 55
5, 107986, Control_c, 3, 7, 56
5, 108013, Control_c, 3, 7, 57
5, 108041, Control_c, 3, 7, 58
5, 108068, Control_c, 3, 7, 59
5, 108096, Control_c, 3, 7, 60
5, 108123, Control_c, 3, 7, 61
5, 108150, Control_c, 3, 7, 62
5, 108178, Control_c, 3, 7, 63
5, 108205, Control_c, 3, 7, 64
5, 108233, Control_c, 3, 7, 65
5, 108260, Control_c, 3, 7, 66
5, 108288, Control_c, 3, 7, 67
5, 108315, Control_c, 3, 7, 68
5, 108342, Control_c, 3, 7, 69
5, 108370, Control_c, 3, 7, 70
5, 108397, Control_c, 3, 7, 71
5, 108425, Control_c, 3, 7, 72
5, 108448, Note_on_c, 3, 62, 0
5, 108448, Note_on_c, 3, 66, 0
5, 108448, Note_on_c, 3, 69, 0
5, 108448, Note_on_c, 3, 74, 0
5, 108452, Control_c, 3, 7, 73
5, 108480, Control_c, 3, 7, 74
5, 108480, Note_on_c, 3, 64, 110
5, 108480, Note_on_c, 3, 69, 110
5, 108480, Note_on_c, 3, 73, 110
5, 108507, Control_c, 3, 7, 75
5, 108534, Control_c, 3, 7, 76
5, 108562, Control_c, 3, 7, 77
5, 108589, Control_c, 3, 7, 78
5, 108617, Control_c, 3, 7, 79
5, 108644, Control_c, 3, 7, 80
5, 108672, Control_c, 3, 7, 81
5, 108695, Control_c, 3, 7, 82
5, 108718, Control_c, 3, 7, 83
5, 108741, Control_c, 3, 7, 84
5, 108765, Control_c, 3, 7, 85
5, 108788, Control_c, 3, 7, 86
5, 108811, Control_c, 3, 7, 87
5, 108834, Control_c, 3, 7, 88
5, 108858, Control_c, 3, 7, 89
5, 108881, Control_c, 3, 7, 90
5, 108904, Control_c, 3, 7, 91
5, 108928, Control_c, 3, 7, 92
5, 108951, Control_c, 3, 7, 93
5, 108974, Control_c, 3, 7, 94
5, 108997, Control_c, 3, 7, 95
5, 109021, Control_c, 3, 7, 96
5, 109044, Control_c, 3, 7, 97
5, 109067, Control_c, 3, 7, 98
5, 109090, Control_c, 3, 7, 99
5, 109114, Control_c, 3, 7, 100
5, 109120, Note_on_c, 3, 64, 0
5, 109120, Note_on_c, 3, 69, 0
5, 109120, Note_on_c, 3, 73, 0
5, 109137, Control_c, 3, 7, 101
5, 109152, Note_on_c, 3, 66, 110
5, 109152, Note_on_c, 3, 69, 110
5, 109152, Note_on_c, 3, 74, 110
5, 109160, Control_c, 3, 7, 102
5, 109184, Control_c, 3, 7, 103
5, 109207, Control_c, 3, 7, 104
5, 109230, Control_c, 3, 7, 105
5, 109253, Control_c, 3, 7, 106
5, 109277, Control_c, 3, 7, 107
5, 109300, Control_c, 3, 7, 108
5, 109323, Control_c, 3, 7, 109
5, 109346, Control_c, 3, 7, 110
5, 109370, Control_c, 3, 7, 111
5, 109393, Control_c, 3, 7, 112
5, 109416, Control_c, 3, 7, 113
5, 109440, Control_c, 3, 7, 114
5, 109792, Note_on_c, 3, 66, 0
5, 109792, Note_on_c, 3, 69, 0
5, 109792, Note_on_c, 3, 74, 0
5, 109824, Control_c, 3, 7, 26
5, 109824, Program_c, 3, 52
5, 109824, Note_on_c, 3, 62, 110
5, 109824, Note_on_c, 3, 67, 110
5, 109824, Note_on_c, 3, 71, 110
5, 109824, Note_on_c, 3, 74, 110
5, 109852, Control_c, 3, 7, 27
5, 109880, Control_c, 3, 7, 28
5, 109909, Control_c, 3, 7, 29
5, 109937, Control_c, 3, 7, 30
5, 109966, Control_c, 3, 7, 31
5, 109994, Control_c, 3, 7, 32
5, 110023, Control_c, 3, 7, 33
5, 110051, Control_c, 3, 7, 34
5, 110080, Control_c, 3, 7, 35
5, 110108, Control_c, 3, 7, 36
5, 110136, Control_c, 3, 7, 37
5, 110165, Control_c, 3, 7, 38
5, 110193, Control_c, 3, 7, 39
5, 110222, Control_c, 3, 7, 40
5, 110250, Control_c, 3, 7, 41
5, 110279, Control_c, 3, 7, 42
5, 110307, Control_c, 3, 7, 43
5, 110336, Control_c, 3, 7, 44
5, 110364, Control_c, 3, 7, 45
5, 110392, Control_c, 3, 7, 46
5, 110421, Control_c, 3, 7, 47
5, 110449, Control_c, 3, 7, 48
5, 110464, Note_on_c, 3, 62, 0
5, 110464, Note_on_c, 3, 67, 0
5, 110464, Note_on_c, 3, 71, 0
5, 110464, Note_on_c, 3, 74, 0
5, 110478, Control_c, 3, 7, 49
5, 110496, Note_on_c, 3, 62, 110
5, 110496, Note_on_c, 3, 66, 110
5, 110496, Note_on_c, 3, 69, 110
5, 110496, Note_on_c, 3, 74, 110
5, 110506, Control_c, 3, 7, 50
5, 110535, Control_c, 3, 7, 51
5, 110563, Control_c, 3, 7, 52
5, 110592, Control_c, 3, 7, 53
5, 110619, Control_c, 3, 7, 54
5, 110646, Control_c, 3, 7, 55
5, 110674, Control_c, 3, 7, 56
5, 110701, Control_c, 3, 7, 57
5, 110729, Control_c, 3, 7, 58
5, 110756, Control_c, 3, 7, 59
5, 110784, Control_c, 3, 7, 60
5, 110811, Control_c, 3, 7, 61
5, 110838, Control_c, 3, 7, 62
5, 110866, Control_c, 3, 7, 63
5, 110893, Control_c, 3, 7, 64
5, 110921, Control_c, 3, 7, 65
5, 110948, Control_c, 3, 7, 66
5, 110976, Control_c, 3, 7, 67
5, 111003, Control_c, 3, 7, 68
5, 111030, Control_c, 3, 7, 69
5, 111058, Control_c, 3, 7, 70
5, 111085, Control_c, 3, 7, 71
5, 111113, Control_c, 3, 7, 72
5, 111136, Note_on_c, 3, 62, 0
5, 111136, Note_on_c, 3, 66, 0
5, 111136, Note_on_c, 3, 69, 0
5, 111136, Note_on_c, 3, 74, 0
5, 111140, Control_c, 3, 7, 73
5, 111168, Control_c, 3, 7, 74
5, 111168, Note_on_c, 3, 64, 110
5, 111168, Note_on_c, 3, 69, 110
5, 111168, Note_on_c, 3, 73, 110
5, 111195, Control_c, 3, 7, 75
5, 111222, Control_c, 3, 7, 76
5, 111250, Control_c, 3, 7, 77
5, 111277, Control_c, 3, 7, 78
5, 111305, Control_c, 3, 7, 79
5, 111332, Control_c, 3, 7, 80
5, 111360, Control_c, 3, 7, 81
5, 111383, Control_c, 3, 7, 82
5, 111406, Control_c, 3, 7, 83
5, 111429, Control_c, 3, 7, 84
5, 111453, Control_c, 3, 7, 85
5, 111476, Control_c, 3, 7, 86
5, 111499, Control_c, 3, 7, 87
5, 111522, Control_c, 3, 7, 88
5, 111546, Control_c, 3, 7, 89
5, 111569, Control_c, 3, 7, 90
5, 111592, Control_c, 3, 7, 91
5, 111616, Control_c, 3, 7, 92
5, 111639, Control_c, 3, 7, 93
5, 111662, Control_c, 3, 7, 94
5, 111685, Control_c, 3, 7, 95
5, 111709, Control_c, 3, 7, 96
5, 111732, Control_c, 3, 7, 97
5, 111755, Control_c, 3, 7, 98
5, 111778, Control_c, 3, 7, 99
5, 111802, Control_c, 3, 7, 100
5, 111808, Note_on_c, 3, 64, 0
5, 111808, Note_on_c, 3, 69, 0
5, 111808, Note_on_c, 3, 73, 0
5, 111825, Control_c, 3, 7, 101
5, 111840, Note_on_c, 3, 66, 110
5, 111840, Note_on_c, 3, 69, 110
5, 111840, Note_on_c, 3, 74, 110
5, 111848, Control_c, 3, 7, 102
5, 111872, Control_c, 3, 7, 103
5, 111895, Control_c, 3, 7, 104
5, 111918, Control_c, 3, 7, 105
5, 111941, Control_c, 3, 7, 106
5, 111965, Control_c, 3, 7, 107
5, 111988, Control_c, 3, 7, 108
5, 112011, Control_c, 3, 7, 109
5, 112034, Control_c, 3, 7, 110
5, 112058, Control_c, 3, 7, 111
5, 112081, Control_c, 3, 7, 112
5, 112104, Control_c, 3, 7, 113
5, 112128, Control_c, 3, 7, 114
5, 112480, Note_on_c, 3, 66, 0
5, 112480, Note_on_c, 3, 69, 0
5, 112480, Note_on_c, 3, 74, 0
5, 112512, Control_c, 3, 7, 26
5, 112512, Program_c, 3, 52
5, 112512, Note_on_c, 3, 62, 110
5, 112512, Note_on_c, 3, 67, 110
5, 112512, Note_on_c, 3, 71, 110
5, 112512, Note_on_c, 3, 74, 110
5, 112540, Control_c, 3, 7, 27
5, 112568, Control_c, 3, 7, 28
5, 112597, Control_c, 3, 7, 29
5, 112625, Control_c, 3, 7, 30
5, 112654, Control_c, 3, 7, 31
5, 112682, Control_c, 3, 7, 32
5, 112711, Control_c, 3, 7, 33
5, 112739, Control_c, 3, 7, 34
5, 112768, Control_c, 3, 7, 35
5, 112796, Control_c, 3, 7, 36
5, 112824, Control_c, 3, 7, 37
5, 112853, Control_c, 3, 7, 38
5, 112881, Control_c, 3, 7, 39
5, 112910, Control_c, 3, 7, 40
5, 112938, Control_c, 3, 7, 41
5, 112967, Control_c, 3, 7, 42
5, 112995, Control_c, 3, 7, 43
5, 113024, Control_c, 3, 7, 44
5, 113052, Control_c, 3, 7, 45
5, 113080, Control_c, 3, 7, 46
5, 113109, Control_c, 3, 7, 47
5, 113137, Control_c, 3, 7, 48
5, 113152, Note_on_c, 3, 62, 0
5, 113152, Note_on_c, 3, 67, 0
5, 113152, Note_on_c, 3, 71, 0
5, 113152, Note_on_c, 3, 74, 0
5, 113166, Control_c, 3, 7, 49
5, 113184, Note_on_c, 3, 62, 110
5, 113184, Note_on_c, 3, 66, 110
5, 113184, Note_on_c, 3, 69, 110
5, 113184, Note_on_c, 3, 74, 110
5, 113194, Control_c, 3, 7, 50
5, 113223, Control_c, 3, 7, 51
5, 113251, Control_c, 3, 7, 52
5, 113280, Control_c, 3, 7, 53
5, 113307, Control_c, 3, 7, 54
5, 113334, Control_c, 3, 7, 55
5, 113362, Control_c, 3, 7, 56
5, 113389, Control_c, 3, 7, 57
5, 113417, Control_c, 3, 7, 58
5, 113444, Control_c, 3, 7, 59
5, 113472, Control_c, 3, 7, 60
5, 113499, Control_c, 3, 7, 61
5, 113526, Control_c, 3, 7, 62
5, 113554, Control_c, 3, 7, 63
5, 113581, Control_c, 3, 7, 64
5, 113609, Control_c, 3, 7, 65
5, 113636, Control_c, 3, 7, 66
5, 113664, Control_c, 3, 7, 67
5, 113691, Control_c, 3, 7, 68
5, 113718, Control_c, 3, 7, 69
5, 113746, Control_c, 3, 7, 70
5, 113773, Control_c, 3, 7, 71
5, 113801, Control_c, 3, 7, 72
5, 113824, Note_on_c, 3, 62, 0
5, 113824, Note_on_c, 3, 66, 0
5, 113824, Note_on_c, 3, 69, 0
5, 113824, Note_on_c, 3, 74, 0
5, 113828, Control_c, 3, 7, 73
5, 113856, Control_c, 3, 7, 74
5, 113883, Control_c, 3, 7, 75
5, 113910, Control_c, 3, 7, 76
5, 113938, Control_c, 3, 7, 77
5, 113965, Control_c, 3, 7, 78
5, 113993, Control_c, 3, 7, 79
5, 114020, Control_c, 3, 7, 80
5, 114048, Control_c, 3, 7, 81
5, 114071, Control_c, 3, 7, 82
5, 114094, Control_c, 3, 7, 83
5, 114117, Control_c, 3, 7, 84
5, 114141, Control_c, 3, 7, 85
5, 114164, Control_c, 3, 7, 86
5, 114187, Control_c, 3, 7, 87
5, 114210, Control_c, 3, 7, 88
5, 114234, Control_c, 3, 7, 89
5, 114257, Control_c, 3, 7, 90
5, 114280, Control_c, 3, 7, 91
5, 114304, Control_c, 3, 7, 92
5, 114327, Control_c, 3, 7, 93
5, 114350, Control_c, 3, 7, 94
5, 114373, Control_c, 3, 7, 95
5, 114397, Control_c, 3, 7, 96
5, 114420, Control_c, 3, 7, 97
5, 114443, Control_c, 3, 7, 98
5, 114466, Control_c, 3, 7, 99
5, 114490, Control_c, 3, 7, 100
5, 114513, Control_c, 3, 7, 101
5, 114536, Control_c, 3, 7, 102
5, 114560, Control_c, 3, 7, 103
5, 114583, Control_c, 3, 7, 104
5, 114606, Control_c, 3, 7, 105
5, 114629, Control_c, 3, 7, 106
5, 114653, Control_c, 3, 7, 107
5, 114676, Control_c, 3, 7, 108
5, 114699, Control_c, 3, 7, 109
5, 114722, Control_c, 3, 7, 110
5, 114746, Control_c, 3, 7, 111
5, 114769, Control_c, 3, 7, 112
5, 114792, Control_c, 3, 7, 113
5, 114816, Control_c, 3, 7, 114
5, 114816, End_track
6, 0, Start_track
6, 0, MIDI_port, 0
6, 0, Title_t, "Staff-4"
6, 0, Program_c, 4, 32
6, 0, Control_c, 4, 7, 127
6, 0, Control_c, 4, 10, 64
6, 768, Note_on_c, 4, 33, 110
6, 1104, Note_on_c, 4, 33, 0
6, 1152, Note_on_c, 4, 35, 110
6, 1312, Note_on_c, 4, 35, 0
6, 1344, Note_on_c, 4, 37, 110
6, 1504, Note_on_c, 4, 37, 0
6, 1536, Note_on_c, 4, 38, 110
6, 1872, Note_on_c, 4, 38, 0
6, 1920, Note_on_c, 4, 40, 110
6, 2080, Note_on_c, 4, 40, 0
6, 2112, Note_on_c, 4, 42, 110
6, 2272, Note_on_c, 4, 42, 0
6, 2304, Note_on_c, 4, 33, 110
6, 2640, Note_on_c, 4, 33, 0
6, 2688, Note_on_c, 4, 35, 110
6, 2848, Note_on_c, 4, 35, 0
6, 2880, Note_on_c, 4, 37, 110
6, 3040, Note_on_c, 4, 37, 0
6, 3072, Note_on_c, 4, 38, 110
6, 3408, Note_on_c, 4, 38, 0
6, 3456, Note_on_c, 4, 40, 110
6, 3550, Note_on_c, 4, 40, 0
6, 3552, Note_on_c, 4, 42, 110
6, 3646, Note_on_c, 4, 42, 0
6, 3648, Note_on_c, 4, 45, 110
6, 3808, Note_on_c, 4, 45, 0
6, 3840, Note_on_c, 4, 33, 110
6, 4176, Note_on_c, 4, 33, 0
6, 4224, Note_on_c, 4, 35, 110
6, 4384, Note_on_c, 4, 35, 0
6, 4416, Note_on_c, 4, 37, 110
6, 4576, Note_on_c, 4, 37, 0
6, 4608, Note_on_c, 4, 28, 110
6, 4944, Note_on_c, 4, 28, 0
6, 4992, Note_on_c, 4, 40, 110
6, 5328, Note_on_c, 4, 40, 0
6, 5376, Note_on_c, 4, 20, 110
6, 5712, Note_on_c, 4, 20, 0
6, 5760, Note_on_c, 4, 32, 110
6, 6096, Note_on_c, 4, 32, 0
6, 6144, Note_on_c, 4, 32, 110
6, 6480, Note_on_c, 4, 32, 0
6, 6528, Note_on_c, 4, 30, 110
6, 6864, Note_on_c, 4, 30, 0
6, 6912, Note_on_c, 4, 33, 110
6, 7248, Note_on_c, 4, 33, 0
6, 7296, Note_on_c, 4, 35, 110
6, 7456, Note_on_c, 4, 35, 0
6, 7488, Note_on_c, 4, 37, 110
6, 7648, Note_on_c, 4, 37, 0
6, 7680, Note_on_c, 4, 38, 110
6, 8016, Note_on_c, 4, 38, 0
6, 8064, Note_on_c, 4, 40, 110
6, 8224, Note_on_c, 4, 40, 0
6, 8256, Note_on_c, 4, 42, 110
6, 8416, Note_on_c, 4, 42, 0
6, 8448, Note_on_c, 4, 33, 110
6, 8784, Note_on_c, 4, 33, 0
6, 8832, Note_on_c, 4, 35, 110
6, 8992, Note_on_c, 4, 35, 0
6, 9024, Note_on_c, 4, 37, 110
6, 9184, Note_on_c, 4, 37, 0
6, 9216, Note_on_c, 4, 38, 110
6, 9552, Note_on_c, 4, 38, 0
6, 9600, Note_on_c, 4, 40, 110
6, 9760, Note_on_c, 4, 40, 0
6, 9792, Note_on_c, 4, 42, 110
6, 9952, Note_on_c, 4, 42, 0
6, 9984, Note_on_c, 4, 33, 110
6, 10320, Note_on_c, 4, 33, 0
6, 10368, Note_on_c, 4, 35, 110
6, 10528, Note_on_c, 4, 35, 0
6, 10560, Note_on_c, 4, 37, 110
6, 10720, Note_on_c, 4, 37, 0
6, 10752, Note_on_c, 4, 38, 110
6, 11088, Note_on_c, 4, 38, 0
6, 11136, Note_on_c, 4, 40, 110
6, 11296, Note_on_c, 4, 40, 0
6, 11328, Note_on_c, 4, 42, 110
6, 11488, Note_on_c, 4, 42, 0
6, 11520, Note_on_c, 4, 40, 110
6, 11856, Note_on_c, 4, 40, 0
6, 11904, Note_on_c, 4, 35, 110
6, 12240, Note_on_c, 4, 35, 0
6, 12288, Note_on_c, 4, 28, 110
6, 12624, Note_on_c, 4, 28, 0
6, 12672, Note_on_c, 4, 30, 110
6, 12832, Note_on_c, 4, 30, 0
6, 12864, Note_on_c, 4, 32, 110
6, 13024, Note_on_c, 4, 32, 0
6, 13056, Note_on_c, 4, 33, 110
6, 13392, Note_on_c, 4, 33, 0
6, 13440, Note_on_c, 4, 35, 110
6, 13600, Note_on_c, 4, 35, 0
6, 13632, Note_on_c, 4, 37, 110
6, 13792, Note_on_c, 4, 37, 0
6, 13824, Note_on_c, 4, 38, 110
6, 14160, Note_on_c, 4, 38, 0
6, 14208, Note_on_c, 4, 40, 110
6, 14368, Note_on_c, 4, 40, 0
6, 14400, Note_on_c, 4, 42, 110
6, 14560, Note_on_c, 4, 42, 0
6, 14592, Note_on_c, 4, 33, 110
6, 14928, Note_on_c, 4, 33, 0
6, 14976, Note_on_c, 4, 35, 110
6, 15136, Note_on_c, 4, 35, 0
6, 15168, Note_on_c, 4, 37, 110
6, 15328, Note_on_c, 4, 37, 0
6, 15360, Note_on_c, 4, 38, 110
6, 15454, Note_on_c, 4, 38, 0
6, 15456, Note_on_c, 4, 38, 110
6, 15712, Note_on_c, 4, 38, 0
6, 15744, Note_on_c, 4, 40, 110
6, 15904, Note_on_c, 4, 40, 0
6, 15936, Note_on_c, 4, 42, 110
6, 16096, Note_on_c, 4, 42, 0
6, 16128, Note_on_c, 4, 33, 110
6, 16464, Note_on_c, 4, 33, 0
6, 16512, Note_on_c, 4, 35, 110
6, 16672, Note_on_c, 4, 35, 0
6, 16704, Note_on_c, 4, 37, 110
6, 16864, Note_on_c, 4, 37, 0
6, 16896, Note_on_c, 4, 28, 110
6, 17232, Note_on_c, 4, 28, 0
6, 17280, Note_on_c, 4, 28, 110
6, 17616, Note_on_c, 4, 28, 0
6, 17664, Note_on_c, 4, 31, 110
6, 18000, Note_on_c, 4, 31, 0
6, 18048, Note_on_c, 4, 38, 110
6, 18384, Note_on_c, 4, 38, 0
6, 18432, Note_on_c, 4, 43, 110
6, 18768, Note_on_c, 4, 43, 0
6, 18816, Note_on_c, 4, 29, 110
6, 19152, Note_on_c, 4, 29, 0
6, 19200, Note_on_c, 4, 33, 110
6, 19536, Note_on_c, 4, 33, 0
6, 19584, Note_on_c, 4, 35, 110
6, 19744, Note_on_c, 4, 35, 0
6, 19776, Note_on_c, 4, 37, 110
6, 19936, Note_on_c, 4, 37, 0
6, 19968, Note_on_c, 4, 38, 110
6, 20304, Note_on_c, 4, 38, 0
6, 20352, Note_on_c, 4, 40, 110
6, 20512, Note_on_c, 4, 40, 0
6, 20544, Note_on_c, 4, 42, 110
6, 20704, Note_on_c, 4, 42, 0
6, 20736, Note_on_c, 4, 33, 110
6, 21072, Note_on_c, 4, 33, 0
6, 21120, Note_on_c, 4, 35, 110
6, 21280, Note_on_c, 4, 35, 0
6, 21312, Note_on_c, 4, 37, 110
6, 21472, Note_on_c, 4, 37, 0
6, 21504, Note_on_c, 4, 38, 110
6, 21840, Note_on_c, 4, 38, 0
6, 21888, Note_on_c, 4, 40, 110
6, 22048, Note_on_c, 4, 40, 0
6, 22080, Note_on_c, 4, 42, 110
6, 22240, Note_on_c, 4, 42, 0
6, 22272, Note_on_c, 4, 33, 110
6, 22608, Note_on_c, 4, 33, 0
6, 22656, Note_on_c, 4, 35, 110
6, 22816, Note_on_c, 4, 35, 0
6, 22848, Note_on_c, 4, 37, 110
6, 23008, Note_on_c, 4, 37, 0
6, 23040, Note_on_c, 4, 38, 110
6, 23376, Note_on_c, 4, 38, 0
6, 23424, Note_on_c, 4, 40, 110
6, 23584, Note_on_c, 4, 40, 0
6, 23616, Note_on_c, 4, 42, 110
6, 23776, Note_on_c, 4, 42, 0
6, 23808, Note_on_c, 4, 40, 110
6, 24144, Note_on_c, 4, 40, 0
6, 24192, Note_on_c, 4, 35, 110
6, 24528, Note_on_c, 4, 35, 0
6, 24576, Note_on_c, 4, 28, 110
6, 24912, Note_on_c, 4, 28, 0
6, 24960, Note_on_c, 4, 30, 110
6, 25120, Note_on_c, 4, 30, 0
6, 25152, Note_on_c, 4, 32, 110
6, 25312, Note_on_c, 4, 32, 0
6, 25344, Note_on_c, 4, 33, 110
6, 25680, Note_on_c, 4, 33, 0
6, 25728, Note_on_c, 4, 35, 110
6, 25888, Note_on_c, 4, 35, 0
6, 25920, Note_on_c, 4, 37, 110
6, 26080, Note_on_c, 4, 37, 0
6, 26112, Note_on_c, 4, 38, 110
6, 26448, Note_on_c, 4, 38, 0
6, 26496, Note_on_c, 4, 40, 110
6, 26656, Note_on_c, 4, 40, 0
6, 26688, Note_on_c, 4, 42, 110
6, 26848, Note_on_c, 4, 42, 0
6, 26880, Note_on_c, 4, 33, 110
6, 27216, Note_on_c, 4, 33, 0
6, 27264, Note_on_c, 4, 35, 110
6, 27424, Note_on_c, 4, 35, 0
6, 27456, Note_on_c, 4, 37, 110
6, 27616, Note_on_c, 4, 37, 0
6, 27648, Note_on_c, 4, 38, 110
6, 27742, Note_on_c, 4, 38, 0
6, 27744, Note_on_c, 4, 38, 110
6, 28000, Note_on_c, 4, 38, 0
6, 28032, Note_on_c, 4, 40, 110
6, 28192, Note_on_c, 4, 40, 0
6, 28224, Note_on_c, 4, 42, 110
6, 28384, Note_on_c, 4, 42, 0
6, 28416, Note_on_c, 4, 33, 110
6, 28752, Note_on_c, 4, 33, 0
6, 28800, Note_on_c, 4, 35, 110
6, 28960, Note_on_c, 4, 35, 0
6, 28992, Note_on_c, 4, 37, 110
6, 29152, Note_on_c, 4, 37, 0
6, 29184, Note_on_c, 4, 28, 110
6, 29520, Note_on_c, 4, 28, 0
6, 29568, Note_on_c, 4, 28, 110
6, 29904, Note_on_c, 4, 28, 0
6, 29952, Note_on_c, 4, 31, 110
6, 30288, Note_on_c, 4, 31, 0
6, 30336, Note_on_c, 4, 38, 110
6, 30672, Note_on_c, 4, 38, 0
6, 30720, Note_on_c, 4, 43, 110
6, 31056, Note_on_c, 4, 43, 0
6, 31104, Note_on_c, 4, 36, 110
6, 31440, Note_on_c, 4, 36, 0
6, 31488, Note_on_c, 4, 33, 110
6, 31824, Note_on_c, 4, 33, 0
6, 31872, Note_on_c, 4, 35, 110
6, 32032, Note_on_c, 4, 35, 0
6, 32064, Note_on_c, 4, 37, 110
6, 32224, Note_on_c, 4, 37, 0
6, 32256, Note_on_c, 4, 38, 110
6, 32592, Note_on_c, 4, 38, 0
6, 32640, Note_on_c, 4, 40, 110
6, 32800, Note_on_c, 4, 40, 0
6, 32832, Note_on_c, 4, 42, 110
6, 32992, Note_on_c, 4, 42, 0
6, 33024, Note_on_c, 4, 33, 110
6, 33360, Note_on_c, 4, 33, 0
6, 33408, Note_on_c, 4, 35, 110
6, 33568, Note_on_c, 4, 35, 0
6, 33600, Note_on_c, 4, 37, 110
6, 33760, Note_on_c, 4, 37, 0
6, 33792, Note_on_c, 4, 38, 110
6, 34128, Note_on_c, 4, 38, 0
6, 34176, Note_on_c, 4, 40, 110
6, 34336, Note_on_c, 4, 40, 0
6, 34368, Note_on_c, 4, 42, 110
6, 34528, Note_on_c, 4, 42, 0
6, 34560, Note_on_c, 4, 33, 110
6, 34896, Note_on_c, 4, 33, 0
6, 34944, Note_on_c, 4, 35, 110
6, 35104, Note_on_c, 4, 35, 0
6, 35136, Note_on_c, 4, 37, 110
6, 35296, Note_on_c, 4, 37, 0
6, 35328, Note_on_c, 4, 38, 110
6, 35664, Note_on_c, 4, 38, 0
6, 35712, Note_on_c, 4, 40, 110
6, 35872, Note_on_c, 4, 40, 0
6, 35904, Note_on_c, 4, 42, 110
6, 36064, Note_on_c, 4, 42, 0
6, 36096, Note_on_c, 4, 40, 110
6, 36432, Note_on_c, 4, 40, 0
6, 36480, Note_on_c, 4, 35, 110
6, 36816, Note_on_c, 4, 35, 0
6, 36864, Note_on_c, 4, 28, 110
6, 37200, Note_on_c, 4, 28, 0
6, 37248, Note_on_c, 4, 30, 110
6, 37408, Note_on_c, 4, 30, 0
6, 37440, Note_on_c, 4, 32, 110
6, 37600, Note_on_c, 4, 32, 0
6, 37632, Note_on_c, 4, 33, 110
6, 37968, Note_on_c, 4, 33, 0
6, 38016, Note_on_c, 4, 35, 110
6, 38176, Note_on_c, 4, 35, 0
6, 38208, Note_on_c, 4, 37, 110
6, 38368, Note_on_c, 4, 37, 0
6, 38400, Note_on_c, 4, 38, 110
6, 38736, Note_on_c, 4, 38, 0
6, 38784, Note_on_c, 4, 40, 110
6, 38944, Note_on_c, 4, 40, 0
6, 38976, Note_on_c, 4, 42, 110
6, 39136, Note_on_c, 4, 42, 0
6, 39168, Note_on_c, 4, 33, 110
6, 39504, Note_on_c, 4, 33, 0
6, 39552, Note_on_c, 4, 35, 110
6, 39712, Note_on_c, 4, 35, 0
6, 39744, Note_on_c, 4, 37, 110
6, 39904, Note_on_c, 4, 37, 0
6, 39936, Note_on_c, 4, 38, 110
6, 40030, Note_on_c, 4, 38, 0
6, 40032, Note_on_c, 4, 38, 110
6, 40288, Note_on_c, 4, 38, 0
6, 40320, Note_on_c, 4, 40, 110
6, 40480, Note_on_c, 4, 40, 0
6, 40512, Note_on_c, 4, 42, 110
6, 40672, Note_on_c, 4, 42, 0
6, 40704, Note_on_c, 4, 33, 110
6, 41040, Note_on_c, 4, 33, 0
6, 41088, Note_on_c, 4, 33, 110
6, 41424, Note_on_c, 4, 33, 0
6, 41472, Note_on_c, 4, 28, 110
6, 41808, Note_on_c, 4, 28, 0
6, 41856, Note_on_c, 4, 40, 110
6, 42192, Note_on_c, 4, 40, 0
6, 42240, Note_on_c, 4, 36, 110
6, 42576, Note_on_c, 4, 36, 0
6, 42624, Note_on_c, 4, 36, 110
6, 42960, Note_on_c, 4, 36, 0
6, 43008, Note_on_c, 4, 36, 110
6, 43344, Note_on_c, 4, 36, 0
6, 43392, Note_on_c, 4, 36, 110
6, 43728, Note_on_c, 4, 36, 0
6, 43776, Note_on_c, 4, 31, 110
6, 44112, Note_on_c, 4, 31, 0
6, 44160, Note_on_c, 4, 31, 110
6, 44496, Note_on_c, 4, 31, 0
6, 44544, Note_on_c, 4, 30, 110
6, 44880, Note_on_c, 4, 30, 0
6, 44928, Note_on_c, 4, 30, 110
6, 45264, Note_on_c, 4, 30, 0
6, 45312, Note_on_c, 4, 33, 110
6, 45648, Note_on_c, 4, 33, 0
6, 45696, Note_on_c, 4, 28, 110
6, 46032, Note_on_c, 4, 28, 0
6, 46080, Note_on_c, 4, 33, 110
6, 46416, Note_on_c, 4, 33, 0
6, 46464, Note_on_c, 4, 28, 110
6, 46624, Note_on_c, 4, 28, 0
6, 46656, Note_on_c, 4, 30, 110
6, 46816, Note_on_c, 4, 30, 0
6, 46848, Note_on_c, 4, 31, 110
6, 47184, Note_on_c, 4, 31, 0
6, 47232, Note_on_c, 4, 31, 110
6, 47568, Note_on_c, 4, 31, 0
6, 47616, Note_on_c, 4, 30, 110
6, 47952, Note_on_c, 4, 30, 0
6, 48000, Note_on_c, 4, 30, 110
6, 48336, Note_on_c, 4, 30, 0
6, 48384, Note_on_c, 4, 33, 110
6, 48720, Note_on_c, 4, 33, 0
6, 48768, Note_on_c, 4, 28, 110
6, 49104, Note_on_c, 4, 28, 0
6, 49152, Note_on_c, 4, 33, 110
6, 49488, Note_on_c, 4, 33, 0
6, 49536, Note_on_c, 4, 28, 110
6, 49696, Note_on_c, 4, 28, 0
6, 49728, Note_on_c, 4, 30, 110
6, 49888, Note_on_c, 4, 30, 0
6, 49920, Note_on_c, 4, 31, 110
6, 50256, Note_on_c, 4, 31, 0
6, 50304, Note_on_c, 4, 31, 110
6, 50640, Note_on_c, 4, 31, 0
6, 50688, Note_on_c, 4, 30, 110
6, 51024, Note_on_c, 4, 30, 0
6, 51072, Note_on_c, 4, 30, 110
6, 51408, Note_on_c, 4, 30, 0
6, 51456, Note_on_c, 4, 28, 110
6, 51792, Note_on_c, 4, 28, 0
6, 51840, Note_on_c, 4, 28, 110
6, 52176, Note_on_c, 4, 28, 0
6, 52224, Note_on_c, 4, 28, 110
6, 52560, Note_on_c, 4, 28, 0
6, 52608, Note_on_c, 4, 28, 110
6, 52768, Note_on_c, 4, 28, 0
6, 52800, Note_on_c, 4, 30, 110
6, 52960, Note_on_c, 4, 30, 0
6, 52992, Note_on_c, 4, 33, 110
6, 53328, Note_on_c, 4, 33, 0
6, 53376, Note_on_c, 4, 35, 110
6, 53536, Note_on_c, 4, 35, 0
6, 53568, Note_on_c, 4, 37, 110
6, 53728, Note_on_c, 4, 37, 0
6, 53760, Note_on_c, 4, 38, 110
6, 54096, Note_on_c, 4, 38, 0
6, 54144, Note_on_c, 4, 40, 110
6, 54304, Note_on_c, 4, 40, 0
6, 54336, Note_on_c, 4, 42, 110
6, 54496, Note_on_c, 4, 42, 0
6, 54528, Note_on_c, 4, 33, 110
6, 54864, Note_on_c, 4, 33, 0
6, 54912, Note_on_c, 4, 35, 110
6, 55072, Note_on_c, 4, 35, 0
6, 55104, Note_on_c, 4, 37, 110
6, 55264, Note_on_c, 4, 37, 0
6, 55296, Note_on_c, 4, 38, 110
6, 55632, Note_on_c, 4, 38, 0
6, 55680, Note_on_c, 4, 40, 110
6, 55840, Note_on_c, 4, 40, 0
6, 55872, Note_on_c, 4, 42, 110
6, 56032, Note_on_c, 4, 42, 0
6, 56064, Note_on_c, 4, 33, 110
6, 56400, Note_on_c, 4, 33, 0
6, 56448, Note_on_c, 4, 35, 110
6, 56608, Note_on_c, 4, 35, 0
6, 56640, Note_on_c, 4, 37, 110
6, 56800, Note_on_c, 4, 37, 0
6, 56832, Note_on_c, 4, 38, 110
6, 57168, Note_on_c, 4, 38, 0
6, 57216, Note_on_c, 4, 40, 110
6, 57376, Note_on_c, 4, 40, 0
6, 57408, Note_on_c, 4, 42, 110
6, 57568, Note_on_c, 4, 42, 0
6, 57600, Note_on_c, 4, 40, 110
6, 57936, Note_on_c, 4, 40, 0
6, 57984, Note_on_c, 4, 35, 110
6, 58320, Note_on_c, 4, 35, 0
6, 58368, Note_on_c, 4, 28, 110
6, 58704, Note_on_c, 4, 28, 0
6, 58752, Note_on_c, 4, 30, 110
6, 58912, Note_on_c, 4, 30, 0
6, 58944, Note_on_c, 4, 32, 110
6, 59104, Note_on_c, 4, 32, 0
6, 59136, Note_on_c, 4, 33, 110
6, 59472, Note_on_c, 4, 33, 0
6, 59520, Note_on_c, 4, 35, 110
6, 59680, Note_on_c, 4, 35, 0
6, 59712, Note_on_c, 4, 37, 110
6, 59872, Note_on_c, 4, 37, 0
6, 59904, Note_on_c, 4, 38, 110
6, 60240, Note_on_c, 4, 38, 0
6, 60288, Note_on_c, 4, 40, 110
6, 60448, Note_on_c, 4, 40, 0
6, 60480, Note_on_c, 4, 42, 110
6, 60640, Note_on_c, 4, 42, 0
6, 60672, Note_on_c, 4, 33, 110
6, 61008, Note_on_c, 4, 33, 0
6, 61056, Note_on_c, 4, 35, 110
6, 61216, Note_on_c, 4, 35, 0
6, 61248, Note_on_c, 4, 37, 110
6, 61408, Note_on_c, 4, 37, 0
6, 61440, Note_on_c, 4, 38, 110
6, 61534, Note_on_c, 4, 38, 0
6, 61536, Note_on_c, 4, 38, 110
6, 61792, Note_on_c, 4, 38, 0
6, 61824, Note_on_c, 4, 40, 110
6, 61984, Note_on_c, 4, 40, 0
6, 62016, Note_on_c, 4, 42, 110
6, 62176, Note_on_c, 4, 42, 0
6, 62208, Note_on_c, 4, 33, 110
6, 62544, Note_on_c, 4, 33, 0
6, 62592, Note_on_c, 4, 35, 110
6, 62752, Note_on_c, 4, 35, 0
6, 62784, Note_on_c, 4, 37, 110
6, 62944, Note_on_c, 4, 37, 0
6, 62976, Note_on_c, 4, 28, 110
6, 63312, Note_on_c, 4, 28, 0
6, 63360, Note_on_c, 4, 28, 110
6, 63696, Note_on_c, 4, 28, 0
6, 63744, Note_on_c, 4, 31, 110
6, 64080, Note_on_c, 4, 31, 0
6, 64128, Note_on_c, 4, 38, 110
6, 64464, Note_on_c, 4, 38, 0
6, 64512, Note_on_c, 4, 43, 110
6, 64848, Note_on_c, 4, 43, 0
6, 64896, Note_on_c, 4, 36, 110
6, 65232, Note_on_c, 4, 36, 0
6, 65280, Note_on_c, 4, 33, 110
6, 65616, Note_on_c, 4, 33, 0
6, 65664, Note_on_c, 4, 35, 110
6, 65824, Note_on_c, 4, 35, 0
6, 65856, Note_on_c, 4, 37, 110
6, 66016, Note_on_c, 4, 37, 0
6, 66048, Note_on_c, 4, 38, 110
6, 66384, Note_on_c, 4, 38, 0
6, 66432, Note_on_c, 4, 40, 110
6, 66592, Note_on_c, 4, 40, 0
6, 66624, Note_on_c, 4, 42, 110
6, 66784, Note_on_c, 4, 42, 0
6, 66816, Note_on_c, 4, 33, 110
6, 67152, Note_on_c, 4, 33, 0
6, 67200, Note_on_c, 4, 35, 110
6, 67360, Note_on_c, 4, 35, 0
6, 67392, Note_on_c, 4, 37, 110
6, 67552, Note_on_c, 4, 37, 0
6, 67584, Note_on_c, 4, 38, 110
6, 67920, Note_on_c, 4, 38, 0
6, 67968, Note_on_c, 4, 40, 110
6, 68128, Note_on_c, 4, 40, 0
6, 68160, Note_on_c, 4, 42, 110
6, 68320, Note_on_c, 4, 42, 0
6, 68352, Note_on_c, 4, 33, 110
6, 68688, Note_on_c, 4, 33, 0
6, 68736, Note_on_c, 4, 35, 110
6, 68896, Note_on_c, 4, 35, 0
6, 68928, Note_on_c, 4, 37, 110
6, 69088, Note_on_c, 4, 37, 0
6, 69120, Note_on_c, 4, 38, 110
6, 69456, Note_on_c, 4, 38, 0
6, 69504, Note_on_c, 4, 40, 110
6, 69664, Note_on_c, 4, 40, 0
6, 69696, Note_on_c, 4, 42, 110
6, 69856, Note_on_c, 4, 42, 0
6, 69888, Note_on_c, 4, 40, 110
6, 70224, Note_on_c, 4, 40, 0
6, 70272, Note_on_c, 4, 35, 110
6, 70608, Note_on_c, 4, 35, 0
6, 70656, Note_on_c, 4, 28, 110
6, 70992, Note_on_c, 4, 28, 0
6, 71040, Note_on_c, 4, 30, 110
6, 71200, Note_on_c, 4, 30, 0
6, 71232, Note_on_c, 4, 32, 110
6, 71392, Note_on_c, 4, 32, 0
6, 71424, Note_on_c, 4, 33, 110
6, 71760, Note_on_c, 4, 33, 0
6, 71808, Note_on_c, 4, 35, 110
6, 71968, Note_on_c, 4, 35, 0
6, 72000, Note_on_c, 4, 37, 110
6, 72160, Note_on_c, 4, 37, 0
6, 72192, Note_on_c, 4, 38, 110
6, 72528, Note_on_c, 4, 38, 0
6, 72576, Note_on_c, 4, 40, 110
6, 72736, Note_on_c, 4, 40, 0
6, 72768, Note_on_c, 4, 42, 110
6, 72928, Note_on_c, 4, 42, 0
6, 72960, Note_on_c, 4, 33, 110
6, 73296, Note_on_c, 4, 33, 0
6, 73344, Note_on_c, 4, 35, 110
6, 73504, Note_on_c, 4, 35, 0
6, 73536, Note_on_c, 4, 37, 110
6, 73696, Note_on_c, 4, 37, 0
6, 73728, Note_on_c, 4, 38, 110
6, 73822, Note_on_c, 4, 38, 0
6, 73824, Note_on_c, 4, 38, 110
6, 74080, Note_on_c, 4, 38, 0
6, 74112, Note_on_c, 4, 40, 110
6, 74272, Note_on_c, 4, 40, 0
6, 74304, Note_on_c, 4, 42, 110
6, 74464, Note_on_c, 4, 42, 0
6, 74496, Note_on_c, 4, 33, 110
6, 74832, Note_on_c, 4, 33, 0
6, 74880, Note_on_c, 4, 33, 110
6, 75216, Note_on_c, 4, 33, 0
6, 75264, Note_on_c, 4, 28, 110
6, 75600, Note_on_c, 4, 28, 0
6, 75648, Note_on_c, 4, 40, 110
6, 75984, Note_on_c, 4, 40, 0
6, 76032, Note_on_c, 4, 36, 110
6, 76368, Note_on_c, 4, 36, 0
6, 76416, Note_on_c, 4, 36, 110
6, 76752, Note_on_c, 4, 36, 0
6, 76800, Note_on_c, 4, 36, 110
6, 77136, Note_on_c, 4, 36, 0
6, 77184, Note_on_c, 4, 36, 110
6, 77520, Note_on_c, 4, 36, 0
6, 77568, Note_on_c, 4, 31, 110
6, 77904, Note_on_c, 4, 31, 0
6, 77952, Note_on_c, 4, 31, 110
6, 78288, Note_on_c, 4, 31, 0
6, 78336, Note_on_c, 4, 30, 110
6, 78672, Note_on_c, 4, 30, 0
6, 78720, Note_on_c, 4, 30, 110
6, 79056, Note_on_c, 4, 30, 0
6, 79104, Note_on_c, 4, 33, 110
6, 79440, Note_on_c, 4, 33, 0
6, 79488, Note_on_c, 4, 28, 110
6, 79824, Note_on_c, 4, 28, 0
6, 79872, Note_on_c, 4, 33, 110
6, 80208, Note_on_c, 4, 33, 0
6, 80256, Note_on_c, 4, 28, 110
6, 80416, Note_on_c, 4, 28, 0
6, 80448, Note_on_c, 4, 30, 110
6, 80608, Note_on_c, 4, 30, 0
6, 80640, Note_on_c, 4, 31, 110
6, 80976, Note_on_c, 4, 31, 0
6, 81024, Note_on_c, 4, 31, 110
6, 81360, Note_on_c, 4, 31, 0
6, 81408, Note_on_c, 4, 30, 110
6, 81744, Note_on_c, 4, 30, 0
6, 81792, Note_on_c, 4, 30, 110
6, 82128, Note_on_c, 4, 30, 0
6, 82176, Note_on_c, 4, 33, 110
6, 82512, Note_on_c, 4, 33, 0
6, 82560, Note_on_c, 4, 28, 110
6, 82896, Note_on_c, 4, 28, 0
6, 82944, Note_on_c, 4, 33, 110
6, 83280, Note_on_c, 4, 33, 0
6, 83328, Note_on_c, 4, 28, 110
6, 83488, Note_on_c, 4, 28, 0
6, 83520, Note_on_c, 4, 30, 110
6, 83680, Note_on_c, 4, 30, 0
6, 83712, Note_on_c, 4, 31, 110
6, 84048, Note_on_c, 4, 31, 0
6, 84096, Note_on_c, 4, 31, 110
6, 84432, Note_on_c, 4, 31, 0
6, 84480, Note_on_c, 4, 30, 110
6, 84816, Note_on_c, 4, 30, 0
6, 84864, Note_on_c, 4, 30, 110
6, 85200, Note_on_c, 4, 30, 0
6, 85248, Note_on_c, 4, 33, 110
6, 85584, Note_on_c, 4, 33, 0
6, 85632, Note_on_c, 4, 28, 110
6, 85968, Note_on_c, 4, 28, 0
6, 86016, Note_on_c, 4, 33, 110
6, 86352, Note_on_c, 4, 33, 0
6, 86400, Note_on_c, 4, 28, 110
6, 86560, Note_on_c, 4, 28, 0
6, 86592, Note_on_c, 4, 30, 110
6, 86752, Note_on_c, 4, 30, 0
6, 86784, Note_on_c, 4, 31, 110
6, 88272, Note_on_c, 4, 32, 0
6, 88320, Note_on_c, 4, 28, 110
6, 89808, Note_on_c, 4, 28, 0
6, 89856, Note_on_c, 4, 23, 110
6, 90960, Note_on_c, 4, 23, 0
6, 91008, Note_on_c, 4, 25, 110
6, 91344, Note_on_c, 4, 25, 0
6, 91392, Note_on_c, 4, 26, 110
6, 92112, Note_on_c, 4, 26, 0
6, 92160, Note_on_c, 4, 19, 110
6, 92880, Note_on_c, 4, 19, 0
6, 92928, Note_on_c, 4, 21, 110
6, 93648, Note_on_c, 4, 21, 0
6, 93696, Note_on_c, 4, 23, 110
6, 94032, Note_on_c, 4, 23, 0
6, 94080, Note_on_c, 4, 25, 110
6, 94416, Note_on_c, 4, 25, 0
6, 94464, Note_on_c, 4, 25, 110
6, 95184, Note_on_c, 4, 25, 0
6, 95232, Note_on_c, 4, 18, 110
6, 95952, Note_on_c, 4, 18, 0
6, 96000, Note_on_c, 4, 19, 110
6, 97104, Note_on_c, 4, 20, 0
6, 97152, Note_on_c, 4, 18, 110
6, 97488, Note_on_c, 4, 18, 0
6, 97536, Note_on_c, 4, 28, 110
6, 99024, Note_on_c, 4, 28, 0
6, 99072, Note_on_c, 4, 31, 110
6, 99712, Note_on_c, 4, 31, 0
6, 99744, Note_on_c, 4, 30, 110
6, 100384, Note_on_c, 4, 30, 0
6, 100416, Note_on_c, 4, 33, 110
6, 101056, Note_on_c, 4, 33, 0
6, 101088, Note_on_c, 4, 30, 110
6, 101728, Note_on_c, 4, 30, 0
6, 101760, Note_on_c, 4, 31, 110
6, 102400, Note_on_c, 4, 31, 0
6, 102432, Note_on_c, 4, 30, 110
6, 103072, Note_on_c, 4, 30, 0
6, 103104, Note_on_c, 4, 33, 110
6, 103744, Note_on_c, 4, 33, 0
6, 103776, Note_on_c, 4, 30, 110
6, 104416, Note_on_c, 4, 30, 0
6, 104448, Note_on_c, 4, 31, 110
6, 105088, Note_on_c, 4, 31, 0
6, 105120, Note_on_c, 4, 30, 110
6, 105760, Note_on_c, 4, 30, 0
6, 105792, Note_on_c, 4, 33, 110
6, 106432, Note_on_c, 4, 33, 0
6, 106464, Note_on_c, 4, 30, 110
6, 107104, Note_on_c, 4, 30, 0
6, 107136, Note_on_c, 4, 31, 110
6, 107776, Note_on_c, 4, 31, 0
6, 107808, Note_on_c, 4, 30, 110
6, 108448, Note_on_c, 4, 30, 0
6, 108480, Note_on_c, 4, 33, 110
6, 109120, Note_on_c, 4, 33, 0
6, 109152, Note_on_c, 4, 30, 110
6, 109792, Note_on_c, 4, 30, 0
6, 109824, Note_on_c, 4, 31, 110
6, 110464, Note_on_c, 4, 31, 0
6, 110496, Note_on_c, 4, 30, 110
6, 111136, Note_on_c, 4, 30, 0
6, 111168, Note_on_c, 4, 33, 110
6, 111808, Note_on_c, 4, 33, 0
6, 111840, Note_on_c, 4, 30, 110
6, 112480, Note_on_c, 4, 30, 0
6, 112512, Note_on_c, 4, 31, 110
6, 113152, Note_on_c, 4, 31, 0
6, 113184, Note_on_c, 4, 30, 110
6, 113824, Note_on_c, 4, 30, 0
6, 113824, End_track
7, 0, Start_track
7, 0, MIDI_port, 0
7, 0, Title_t, "Staff-5"
7, 0, Control_c, 9, 7, 84
7, 0, Control_c, 9, 10, 47
7, 768, Note_on_c, 9, 54, 110
7, 862, Note_on_c, 9, 54, 0
7, 864, Note_on_c, 9, 54, 110
7, 958, Note_on_c, 9, 54, 0
7, 960, Note_on_c, 9, 54, 110
7, 1054, Note_on_c, 9, 54, 0
7, 1056, Note_on_c, 9, 54, 110
7, 1150, Note_on_c, 9, 54, 0
7, 1152, Note_on_c, 9, 54, 110
7, 1246, Note_on_c, 9, 54, 0
7, 1248, Note_on_c, 9, 54, 110
7, 1342, Note_on_c, 9, 54, 0
7, 1344, Note_on_c, 9, 54, 110
7, 1438, Note_on_c, 9, 54, 0
7, 1440, Note_on_c, 9, 54, 110
7, 1534, Note_on_c, 9, 54, 0
7, 1536, Note_on_c, 9, 54, 110
7, 1630, Note_on_c, 9, 54, 0
7, 1632, Note_on_c, 9, 54, 110
7, 1726, Note_on_c, 9, 54, 0
7, 1728, Note_on_c, 9, 54, 110
7, 1822, Note_on_c, 9, 54, 0
7, 1824, Note_on_c, 9, 54, 110
7, 1918, Note_on_c, 9, 54, 0
7, 1920, Note_on_c, 9, 54, 110
7, 2014, Note_on_c, 9, 54, 0
7, 2016, Note_on_c, 9, 54, 110
7, 2110, Note_on_c, 9, 54, 0
7, 2112, Note_on_c, 9, 54, 110
7, 2206, Note_on_c, 9, 54, 0
7, 2208, Note_on_c, 9, 54, 110
7, 2302, Note_on_c, 9, 54, 0
7, 2304, Note_on_c, 9, 54, 110
7, 2398, Note_on_c, 9, 54, 0
7, 2400, Note_on_c, 9, 54, 110
7, 2494, Note_on_c, 9, 54, 0
7, 2496, Note_on_c, 9, 54, 110
7, 2590, Note_on_c, 9, 54, 0
7, 2592, Note_on_c, 9, 54, 110
7, 2686, Note_on_c, 9, 54, 0
7, 2688, Note_on_c, 9, 54, 110
7, 2782, Note_on_c, 9, 54, 0
7, 2784, Note_on_c, 9, 54, 110
7, 2878, Note_on_c, 9, 54, 0
7, 2880, Note_on_c, 9, 54, 110
7, 2974, Note_on_c, 9, 54, 0
7, 2976, Note_on_c, 9, 54, 110
7, 3070, Note_on_c, 9, 54, 0
7, 3072, Note_on_c, 9, 54, 110
7, 3166, Note_on_c, 9, 54, 0
7, 3168, Note_on_c, 9, 54, 110
7, 3262, Note_on_c, 9, 54, 0
7, 3264, Note_on_c, 9, 54, 110
7, 3358, Note_on_c, 9, 54, 0
7, 3360, Note_on_c, 9, 54, 110
7, 3454, Note_on_c, 9, 54, 0
7, 3456, Note_on_c, 9, 54, 110
7, 3550, Note_on_c, 9, 54, 0
7, 3552, Note_on_c, 9, 54, 110
7, 3646, Note_on_c, 9, 54, 0
7, 3648, Note_on_c, 9, 54, 110
7, 3742, Note_on_c, 9, 54, 0
7, 3744, Note_on_c, 9, 54, 110
7, 3838, Note_on_c, 9, 54, 0
7, 3840, Note_on_c, 9, 54, 110
7, 3934, Note_on_c, 9, 54, 0
7, 3936, Note_on_c, 9, 54, 110
7, 4030, Note_on_c, 9, 54, 0
7, 4032, Note_on_c, 9, 54, 110
7, 4126, Note_on_c, 9, 54, 0
7, 4128, Note_on_c, 9, 54, 110
7, 4222, Note_on_c, 9, 54, 0
7, 4224, Note_on_c, 9, 54, 110
7, 4318, Note_on_c, 9, 54, 0
7, 4320, Note_on_c, 9, 54, 110
7, 4414, Note_on_c, 9, 54, 0
7, 4416, Note_on_c, 9, 54, 110
7, 4510, Note_on_c, 9, 54, 0
7, 4512, Note_on_c, 9, 54, 110
7, 4606, Note_on_c, 9, 54, 0
7, 4608, Note_on_c, 9, 54, 110
7, 4702, Note_on_c, 9, 54, 0
7, 4704, Note_on_c, 9, 54, 110
7, 4798, Note_on_c, 9, 54, 0
7, 4800, Note_on_c, 9, 54, 110
7, 4894, Note_on_c, 9, 54, 0
7, 4896, Note_on_c, 9, 54, 110
7, 4990, Note_on_c, 9, 54, 0
7, 4992, Note_on_c, 9, 54, 110
7, 5086, Note_on_c, 9, 54, 0
7, 5088, Note_on_c, 9, 54, 110
7, 5182, Note_on_c, 9, 54, 0
7, 5184, Note_on_c, 9, 54, 110
7, 5278, Note_on_c, 9, 54, 0
7, 5280, Note_on_c, 9, 54, 110
7, 5374, Note_on_c, 9, 54, 0
7, 5376, Note_on_c, 9, 54, 110
7, 5470, Note_on_c, 9, 54, 0
7, 5472, Note_on_c, 9, 54, 110
7, 5566, Note_on_c, 9, 54, 0
7, 5568, Note_on_c, 9, 54, 110
7, 5662, Note_on_c, 9, 54, 0
7, 5664, Note_on_c, 9, 54, 110
7, 5758, Note_on_c, 9, 54, 0
7, 5760, Note_on_c, 9, 54, 110
7, 5854, Note_on_c, 9, 54, 0
7, 5856, Note_on_c, 9, 54, 110
7, 5950, Note_on_c, 9, 54, 0
7, 5952, Note_on_c, 9, 54, 110
7, 6046, Note_on_c, 9, 54, 0
7, 6048, Note_on_c, 9, 54, 110
7, 6142, Note_on_c, 9, 54, 0
7, 6144, Note_on_c, 9, 54, 110
7, 6238, Note_on_c, 9, 54, 0
7, 6240, Note_on_c, 9, 54, 110
7, 6334, Note_on_c, 9, 54, 0
7, 6336, Note_on_c, 9, 54, 110
7, 6430, Note_on_c, 9, 54, 0
7, 6432, Note_on_c, 9, 54, 110
7, 6526, Note_on_c, 9, 54, 0
7, 6528, Note_on_c, 9, 54, 110
7, 6622, Note_on_c, 9, 54, 0
7, 6624, Note_on_c, 9, 54, 110
7, 6718, Note_on_c, 9, 54, 0
7, 6720, Note_on_c, 9, 54, 110
7, 6814, Note_on_c, 9, 54, 0
7, 6816, Note_on_c, 9, 54, 110
7, 6910, Note_on_c, 9, 54, 0
7, 6912, Note_on_c, 9, 54, 110
7, 7006, Note_on_c, 9, 54, 0
7, 7008, Note_on_c, 9, 54, 110
7, 7102, Note_on_c, 9, 54, 0
7, 7104, Note_on_c, 9, 54, 110
7, 7198, Note_on_c, 9, 54, 0
7, 7200, Note_on_c, 9, 54, 110
7, 7294, Note_on_c, 9, 54, 0
7, 7296, Note_on_c, 9, 54, 110
7, 7390, Note_on_c, 9, 54, 0
7, 7392, Note_on_c, 9, 54, 110
7, 7486, Note_on_c, 9, 54, 0
7, 7488, Note_on_c, 9, 54, 110
7, 7582, Note_on_c, 9, 54, 0
7, 7584, Note_on_c, 9, 54, 110
7, 7678, Note_on_c, 9, 54, 0
7, 7680, Note_on_c, 9, 54, 110
7, 7774, Note_on_c, 9, 54, 0
7, 7776, Note_on_c, 9, 54, 110
7, 7870, Note_on_c, 9, 54, 0
7, 7872, Note_on_c, 9, 54, 110
7, 7966, Note_on_c, 9, 54, 0
7, 7968, Note_on_c, 9, 54, 110
7, 8062, Note_on_c, 9, 54, 0
7, 8064, Note_on_c, 9, 54, 110
7, 8158, Note_on_c, 9, 54, 0
7, 8160, Note_on_c, 9, 54, 110
7, 8254, Note_on_c, 9, 54, 0
7, 8256, Note_on_c, 9, 54, 110
7, 8350, Note_on_c, 9, 54, 0
7, 8352, Note_on_c, 9, 54, 110
7, 8446, Note_on_c, 9, 54, 0
7, 8448, Note_on_c, 9, 54, 110
7, 8542, Note_on_c, 9, 54, 0
7, 8544, Note_on_c, 9, 54, 110
7, 8638, Note_on_c, 9, 54, 0
7, 8640, Note_on_c, 9, 54, 110
7, 8734, Note_on_c, 9, 54, 0
7, 8736, Note_on_c, 9, 54, 110
7, 8830, Note_on_c, 9, 54, 0
7, 8832, Note_on_c, 9, 54, 110
7, 8926, Note_on_c, 9, 54, 0
7, 8928, Note_on_c, 9, 54, 110
7, 9022, Note_on_c, 9, 54, 0
7, 9024, Note_on_c, 9, 54, 110
7, 9118, Note_on_c, 9, 54, 0
7, 9120, Note_on_c, 9, 54, 110
7, 9214, Note_on_c, 9, 54, 0
7, 9216, Note_on_c, 9, 54, 110
7, 9310, Note_on_c, 9, 54, 0
7, 9312, Note_on_c, 9, 54, 110
7, 9406, Note_on_c, 9, 54, 0
7, 9408, Note_on_c, 9, 54, 110
7, 9502, Note_on_c, 9, 54, 0
7, 9504, Note_on_c, 9, 54, 110
7, 9598, Note_on_c, 9, 54, 0
7, 9600, Note_on_c, 9, 54, 110
7, 9694, Note_on_c, 9, 54, 0
7, 9696, Note_on_c, 9, 54, 110
7, 9790, Note_on_c, 9, 54, 0
7, 9792, Note_on_c, 9, 54, 110
7, 9886, Note_on_c, 9, 54, 0
7, 9888, Note_on_c, 9, 54, 110
7, 9982, Note_on_c, 9, 54, 0
7, 9984, Note_on_c, 9, 54, 110
7, 10078, Note_on_c, 9, 54, 0
7, 10080, Note_on_c, 9, 54, 110
7, 10174, Note_on_c, 9, 54, 0
7, 10176, Note_on_c, 9, 54, 110
7, 10270, Note_on_c, 9, 54, 0
7, 10272, Note_on_c, 9, 54, 110
7, 10366, Note_on_c, 9, 54, 0
7, 10368, Note_on_c, 9, 54, 110
7, 10462, Note_on_c, 9, 54, 0
7, 10464, Note_on_c, 9, 54, 110
7, 10558, Note_on_c, 9, 54, 0
7, 10560, Note_on_c, 9, 54, 110
7, 10654, Note_on_c, 9, 54, 0
7, 10656, Note_on_c, 9, 54, 110
7, 10750, Note_on_c, 9, 54, 0
7, 10752, Note_on_c, 9, 54, 110
7, 10846, Note_on_c, 9, 54, 0
7, 10848, Note_on_c, 9, 54, 110
7, 10942, Note_on_c, 9, 54, 0
7, 10944, Note_on_c, 9, 54, 110
7, 11038, Note_on_c, 9, 54, 0
7, 11040, Note_on_c, 9, 54, 110
7, 11134, Note_on_c, 9, 54, 0
7, 11136, Note_on_c, 9, 54, 110
7, 11230, Note_on_c, 9, 54, 0
7, 11232, Note_on_c, 9, 54, 110
7, 11326, Note_on_c, 9, 54, 0
7, 11328, Note_on_c, 9, 54, 110
7, 11422, Note_on_c, 9, 54, 0
7, 11424, Note_on_c, 9, 54, 110
7, 11518, Note_on_c, 9, 54, 0
7, 11520, Note_on_c, 9, 54, 110
7, 11614, Note_on_c, 9, 54, 0
7, 11616, Note_on_c, 9, 54, 110
7, 11710, Note_on_c, 9, 54, 0
7, 11712, Note_on_c, 9, 54, 110
7, 11806, Note_on_c, 9, 54, 0
7, 11808, Note_on_c, 9, 54, 110
7, 11902, Note_on_c, 9, 54, 0
7, 11904, Note_on_c, 9, 54, 110
7, 11998, Note_on_c, 9, 54, 0
7, 12000, Note_on_c, 9, 54, 110
7, 12094, Note_on_c, 9, 54, 0
7, 12096, Note_on_c, 9, 54, 110
7, 12190, Note_on_c, 9, 54, 0
7, 12192, Note_on_c, 9, 54, 110
7, 12286, Note_on_c, 9, 54, 0
7, 12288, Note_on_c, 9, 54, 110
7, 12382, Note_on_c, 9, 54, 0
7, 12384, Note_on_c, 9, 54, 110
7, 12478, Note_on_c, 9, 54, 0
7, 12480, Note_on_c, 9, 54, 110
7, 12574, Note_on_c, 9, 54, 0
7, 12576, Note_on_c, 9, 54, 110
7, 12670, Note_on_c, 9, 54, 0
7, 12672, Note_on_c, 9, 54, 110
7, 12766, Note_on_c, 9, 54, 0
7, 12768, Note_on_c, 9, 54, 110
7, 12862, Note_on_c, 9, 54, 0
7, 12864, Note_on_c, 9, 54, 110
7, 12958, Note_on_c, 9, 54, 0
7, 12960, Note_on_c, 9, 54, 110
7, 13054, Note_on_c, 9, 54, 0
7, 13056, Note_on_c, 9, 54, 110
7, 13150, Note_on_c, 9, 54, 0
7, 13152, Note_on_c, 9, 54, 110
7, 13246, Note_on_c, 9, 54, 0
7, 13248, Note_on_c, 9, 54, 110
7, 13342, Note_on_c, 9, 54, 0
7, 13344, Note_on_c, 9, 54, 110
7, 13438, Note_on_c, 9, 54, 0
7, 13440, Note_on_c, 9, 54, 110
7, 13534, Note_on_c, 9, 54, 0
7, 13536, Note_on_c, 9, 54, 110
7, 13630, Note_on_c, 9, 54, 0
7, 13632, Note_on_c, 9, 54, 110
7, 13726, Note_on_c, 9, 54, 0
7, 13728, Note_on_c, 9, 54, 110
7, 13822, Note_on_c, 9, 54, 0
7, 13824, Note_on_c, 9, 54, 110
7, 13918, Note_on_c, 9, 54, 0
7, 13920, Note_on_c, 9, 54, 110
7, 14014, Note_on_c, 9, 54, 0
7, 14016, Note_on_c, 9, 54, 110
7, 14110, Note_on_c, 9, 54, 0
7, 14112, Note_on_c, 9, 54, 110
7, 14206, Note_on_c, 9, 54, 0
7, 14208, Note_on_c, 9, 54, 110
7, 14302, Note_on_c, 9, 54, 0
7, 14304, Note_on_c, 9, 54, 110
7, 14398, Note_on_c, 9, 54, 0
7, 14400, Note_on_c, 9, 54, 110
7, 14494, Note_on_c, 9, 54, 0
7, 14496, Note_on_c, 9, 54, 110
7, 14590, Note_on_c, 9, 54, 0
7, 14592, Note_on_c, 9, 54, 110
7, 14686, Note_on_c, 9, 54, 0
7, 14688, Note_on_c, 9, 54, 110
7, 14782, Note_on_c, 9, 54, 0
7, 14784, Note_on_c, 9, 54, 110
7, 14878, Note_on_c, 9, 54, 0
7, 14880, Note_on_c, 9, 54, 110
7, 14974, Note_on_c, 9, 54, 0
7, 14976, Note_on_c, 9, 54, 110
7, 15070, Note_on_c, 9, 54, 0
7, 15072, Note_on_c, 9, 54, 110
7, 15166, Note_on_c, 9, 54, 0
7, 15168, Note_on_c, 9, 54, 110
7, 15262, Note_on_c, 9, 54, 0
7, 15264, Note_on_c, 9, 54, 110
7, 15358, Note_on_c, 9, 54, 0
7, 15360, Note_on_c, 9, 54, 110
7, 15454, Note_on_c, 9, 54, 0
7, 15456, Note_on_c, 9, 54, 110
7, 15550, Note_on_c, 9, 54, 0
7, 15552, Note_on_c, 9, 54, 110
7, 15646, Note_on_c, 9, 54, 0
7, 15648, Note_on_c, 9, 54, 110
7, 15742, Note_on_c, 9, 54, 0
7, 15744, Note_on_c, 9, 54, 110
7, 15838, Note_on_c, 9, 54, 0
7, 15840, Note_on_c, 9, 54, 110
7, 15934, Note_on_c, 9, 54, 0
7, 15936, Note_on_c, 9, 54, 110
7, 16030, Note_on_c, 9, 54, 0
7, 16032, Note_on_c, 9, 54, 110
7, 16126, Note_on_c, 9, 54, 0
7, 16128, Note_on_c, 9, 54, 110
7, 16222, Note_on_c, 9, 54, 0
7, 16224, Note_on_c, 9, 54, 110
7, 16318, Note_on_c, 9, 54, 0
7, 16320, Note_on_c, 9, 54, 110
7, 16414, Note_on_c, 9, 54, 0
7, 16416, Note_on_c, 9, 54, 110
7, 16510, Note_on_c, 9, 54, 0
7, 16512, Note_on_c, 9, 54, 110
7, 16606, Note_on_c, 9, 54, 0
7, 16608, Note_on_c, 9, 54, 110
7, 16702, Note_on_c, 9, 54, 0
7, 16704, Note_on_c, 9, 54, 110
7, 16798, Note_on_c, 9, 54, 0
7, 16800, Note_on_c, 9, 54, 110
7, 16894, Note_on_c, 9, 54, 0
7, 16896, Note_on_c, 9, 54, 110
7, 16990, Note_on_c, 9, 54, 0
7, 16992, Note_on_c, 9, 54, 110
7, 17086, Note_on_c, 9, 54, 0
7, 17088, Note_on_c, 9, 54, 110
7, 17182, Note_on_c, 9, 54, 0
7, 17184, Note_on_c, 9, 54, 110
7, 17278, Note_on_c, 9, 54, 0
7, 17280, Note_on_c, 9, 54, 110
7, 17374, Note_on_c, 9, 54, 0
7, 17376, Note_on_c, 9, 54, 110
7, 17470, Note_on_c, 9, 54, 0
7, 17472, Note_on_c, 9, 54, 110
7, 17566, Note_on_c, 9, 54, 0
7, 17568, Note_on_c, 9, 54, 110
7, 17662, Note_on_c, 9, 54, 0
7, 17664, Note_on_c, 9, 54, 110
7, 17758, Note_on_c, 9, 54, 0
7, 17760, Note_on_c, 9, 54, 110
7, 17854, Note_on_c, 9, 54, 0
7, 17856, Note_on_c, 9, 54, 110
7, 17950, Note_on_c, 9, 54, 0
7, 17952, Note_on_c, 9, 54, 110
7, 18046, Note_on_c, 9, 54, 0
7, 18048, Note_on_c, 9, 54, 110
7, 18142, Note_on_c, 9, 54, 0
7, 18144, Note_on_c, 9, 54, 110
7, 18238, Note_on_c, 9, 54, 0
7, 18240, Note_on_c, 9, 54, 110
7, 18334, Note_on_c, 9, 54, 0
7, 18336, Note_on_c, 9, 54, 110
7, 18430, Note_on_c, 9, 54, 0
7, 18432, Note_on_c, 9, 54, 110
7, 18526, Note_on_c, 9, 54, 0
7, 18528, Note_on_c, 9, 54, 110
7, 18622, Note_on_c, 9, 54, 0
7, 18624, Note_on_c, 9, 54, 110
7, 18718, Note_on_c, 9, 54, 0
7, 18720, Note_on_c, 9, 54, 110
7, 18814, Note_on_c, 9, 54, 0
7, 18816, Note_on_c, 9, 54, 110
7, 18910, Note_on_c, 9, 54, 0
7, 18912, Note_on_c, 9, 54, 110
7, 19006, Note_on_c, 9, 54, 0
7, 19008, Note_on_c, 9, 54, 110
7, 19102, Note_on_c, 9, 54, 0
7, 19104, Note_on_c, 9, 54, 110
7, 19198, Note_on_c, 9, 54, 0
7, 19200, Note_on_c, 9, 54, 110
7, 19294, Note_on_c, 9, 54, 0
7, 19296, Note_on_c, 9, 54, 110
7, 19390, Note_on_c, 9, 54, 0
7, 19392, Note_on_c, 9, 54, 110
7, 19486, Note_on_c, 9, 54, 0
7, 19488, Note_on_c, 9, 54, 110
7, 19582, Note_on_c, 9, 54, 0
7, 19584, Note_on_c, 9, 54, 110
7, 19678, Note_on_c, 9, 54, 0
7, 19680, Note_on_c, 9, 54, 110
7, 19774, Note_on_c, 9, 54, 0
7, 19776, Note_on_c, 9, 54, 110
7, 19870, Note_on_c, 9, 54, 0
7, 19872, Note_on_c, 9, 54, 110
7, 19966, Note_on_c, 9, 54, 0
7, 19968, Note_on_c, 9, 54, 110
7, 20062, Note_on_c, 9, 54, 0
7, 20064, Note_on_c, 9, 54, 110
7, 20158, Note_on_c, 9, 54, 0
7, 20160, Note_on_c, 9, 54, 110
7, 20254, Note_on_c, 9, 54, 0
7, 20256, Note_on_c, 9, 54, 110
7, 20350, Note_on_c, 9, 54, 0
7, 20352, Note_on_c, 9, 54, 110
7, 20446, Note_on_c, 9, 54, 0
7, 20448, Note_on_c, 9, 54, 110
7, 20542, Note_on_c, 9, 54, 0
7, 20544, Note_on_c, 9, 54, 110
7, 20638, Note_on_c, 9, 54, 0
7, 20640, Note_on_c, 9, 54, 110
7, 20734, Note_on_c, 9, 54, 0
7, 20736, Note_on_c, 9, 54, 110
7, 20830, Note_on_c, 9, 54, 0
7, 20832, Note_on_c, 9, 54, 110
7, 20926, Note_on_c, 9, 54, 0
7, 20928, Note_on_c, 9, 54, 110
7, 21022, Note_on_c, 9, 54, 0
7, 21024, Note_on_c, 9, 54, 110
7, 21118, Note_on_c, 9, 54, 0
7, 21120, Note_on_c, 9, 54, 110
7, 21214, Note_on_c, 9, 54, 0
7, 21216, Note_on_c, 9, 54, 110
7, 21310, Note_on_c, 9, 54, 0
7, 21312, Note_on_c, 9, 54, 110
7, 21406, Note_on_c, 9, 54, 0
7, 21408, Note_on_c, 9, 54, 110
7, 21502, Note_on_c, 9, 54, 0
7, 21504, Note_on_c, 9, 54, 110
7, 21598, Note_on_c, 9, 54, 0
7, 21600, Note_on_c, 9, 54, 110
7, 21694, Note_on_c, 9, 54, 0
7, 21696, Note_on_c, 9, 54, 110
7, 21790, Note_on_c, 9, 54, 0
7, 21792, Note_on_c, 9, 54, 110
7, 21886, Note_on_c, 9, 54, 0
7, 21888, Note_on_c, 9, 54, 110
7, 21982, Note_on_c, 9, 54, 0
7, 21984, Note_on_c, 9, 54, 110
7, 22078, Note_on_c, 9, 54, 0
7, 22080, Note_on_c, 9, 54, 110
7, 22174, Note_on_c, 9, 54, 0
7, 22176, Note_on_c, 9, 54, 110
7, 22270, Note_on_c, 9, 54, 0
7, 22272, Note_on_c, 9, 54, 110
7, 22366, Note_on_c, 9, 54, 0
7, 22368, Note_on_c, 9, 54, 110
7, 22462, Note_on_c, 9, 54, 0
7, 22464, Note_on_c, 9, 54, 110
7, 22558, Note_on_c, 9, 54, 0
7, 22560, Note_on_c, 9, 54, 110
7, 22654, Note_on_c, 9, 54, 0
7, 22656, Note_on_c, 9, 54, 110
7, 22750, Note_on_c, 9, 54, 0
7, 22752, Note_on_c, 9, 54, 110
7, 22846, Note_on_c, 9, 54, 0
7, 22848, Note_on_c, 9, 54, 110
7, 22942, Note_on_c, 9, 54, 0
7, 22944, Note_on_c, 9, 54, 110
7, 23038, Note_on_c, 9, 54, 0
7, 23040, Note_on_c, 9, 54, 110
7, 23134, Note_on_c, 9, 54, 0
7, 23136, Note_on_c, 9, 54, 110
7, 23230, Note_on_c, 9, 54, 0
7, 23232, Note_on_c, 9, 54, 110
7, 23326, Note_on_c, 9, 54, 0
7, 23328, Note_on_c, 9, 54, 110
7, 23422, Note_on_c, 9, 54, 0
7, 23424, Note_on_c, 9, 54, 110
7, 23518, Note_on_c, 9, 54, 0
7, 23520, Note_on_c, 9, 54, 110
7, 23614, Note_on_c, 9, 54, 0
7, 23616, Note_on_c, 9, 54, 110
7, 23710, Note_on_c, 9, 54, 0
7, 23712, Note_on_c, 9, 54, 110
7, 23806, Note_on_c, 9, 54, 0
7, 23808, Note_on_c, 9, 54, 110
7, 23902, Note_on_c, 9, 54, 0
7, 23904, Note_on_c, 9, 54, 110
7, 23998, Note_on_c, 9, 54, 0
7, 24000, Note_on_c, 9, 54, 110
7, 24094, Note_on_c, 9, 54, 0
7, 24096, Note_on_c, 9, 54, 110
7, 24190, Note_on_c, 9, 54, 0
7, 24192, Note_on_c, 9, 54, 110
7, 24286, Note_on_c, 9, 54, 0
7, 24288, Note_on_c, 9, 54, 110
7, 24382, Note_on_c, 9, 54, 0
7, 24384, Note_on_c, 9, 54, 110
7, 24478, Note_on_c, 9, 54, 0
7, 24480, Note_on_c, 9, 54, 110
7, 24574, Note_on_c, 9, 54, 0
7, 24576, Note_on_c, 9, 54, 110
7, 24670, Note_on_c, 9, 54, 0
7, 24672, Note_on_c, 9, 54, 110
7, 24766, Note_on_c, 9, 54, 0
7, 24768, Note_on_c, 9, 54, 110
7, 24862, Note_on_c, 9, 54, 0
7, 24864, Note_on_c, 9, 54, 110
7, 24958, Note_on_c, 9, 54, 0
7, 24960, Note_on_c, 9, 54, 110
7, 25054, Note_on_c, 9, 54, 0
7, 25056, Note_on_c, 9, 54, 110
7, 25150, Note_on_c, 9, 54, 0
7, 25152, Note_on_c, 9, 54, 110
7, 25246, Note_on_c, 9, 54, 0
7, 25248, Note_on_c, 9, 54, 110
7, 25342, Note_on_c, 9, 54, 0
7, 25344, Note_on_c, 9, 54, 110
7, 25438, Note_on_c, 9, 54, 0
7, 25440, Note_on_c, 9, 54, 110
7, 25534, Note_on_c, 9, 54, 0
7, 25536, Note_on_c, 9, 54, 110
7, 25630, Note_on_c, 9, 54, 0
7, 25632, Note_on_c, 9, 54, 110
7, 25726, Note_on_c, 9, 54, 0
7, 25728, Note_on_c, 9, 54, 110
7, 25822, Note_on_c, 9, 54, 0
7, 25824, Note_on_c, 9, 54, 110
7, 25918, Note_on_c, 9, 54, 0
7, 25920, Note_on_c, 9, 54, 110
7, 26014, Note_on_c, 9, 54, 0
7, 26016, Note_on_c, 9, 54, 110
7, 26110, Note_on_c, 9, 54, 0
7, 26112, Note_on_c, 9, 54, 110
7, 26206, Note_on_c, 9, 54, 0
7, 26208, Note_on_c, 9, 54, 110
7, 26302, Note_on_c, 9, 54, 0
7, 26304, Note_on_c, 9, 54, 110
7, 26398, Note_on_c, 9, 54, 0
7, 26400, Note_on_c, 9, 54, 110
7, 26494, Note_on_c, 9, 54, 0
7, 26496, Note_on_c, 9, 54, 110
7, 26590, Note_on_c, 9, 54, 0
7, 26592, Note_on_c, 9, 54, 110
7, 26686, Note_on_c, 9, 54, 0
7, 26688, Note_on_c, 9, 54, 110
7, 26782, Note_on_c, 9, 54, 0
7, 26784, Note_on_c, 9, 54, 110
7, 26878, Note_on_c, 9, 54, 0
7, 26880, Note_on_c, 9, 54, 110
7, 26974, Note_on_c, 9, 54, 0
7, 26976, Note_on_c, 9, 54, 110
7, 27070, Note_on_c, 9, 54, 0
7, 27072, Note_on_c, 9, 54, 110
7, 27166, Note_on_c, 9, 54, 0
7, 27168, Note_on_c, 9, 54, 110
7, 27262, Note_on_c, 9, 54, 0
7, 27264, Note_on_c, 9, 54, 110
7, 27358, Note_on_c, 9, 54, 0
7, 27360, Note_on_c, 9, 54, 110
7, 27454, Note_on_c, 9, 54, 0
7, 27456, Note_on_c, 9, 54, 110
7, 27550, Note_on_c, 9, 54, 0
7, 27552, Note_on_c, 9, 54, 110
7, 27646, Note_on_c, 9, 54, 0
7, 27648, Note_on_c, 9, 54, 110
7, 27742, Note_on_c, 9, 54, 0
7, 27744, Note_on_c, 9, 54, 110
7, 27838, Note_on_c, 9, 54, 0
7, 27840, Note_on_c, 9, 54, 110
7, 27934, Note_on_c, 9, 54, 0
7, 27936, Note_on_c, 9, 54, 110
7, 28030, Note_on_c, 9, 54, 0
7, 28032, Note_on_c, 9, 54, 110
7, 28126, Note_on_c, 9, 54, 0
7, 28128, Note_on_c, 9, 54, 110
7, 28222, Note_on_c, 9, 54, 0
7, 28224, Note_on_c, 9, 54, 110
7, 28318, Note_on_c, 9, 54, 0
7, 28320, Note_on_c, 9, 54, 110
7, 28414, Note_on_c, 9, 54, 0
7, 28416, Note_on_c, 9, 54, 110
7, 28510, Note_on_c, 9, 54, 0
7, 28512, Note_on_c, 9, 54, 110
7, 28606, Note_on_c, 9, 54, 0
7, 28608, Note_on_c, 9, 54, 110
7, 28702, Note_on_c, 9, 54, 0
7, 28704, Note_on_c, 9, 54, 110
7, 28798, Note_on_c, 9, 54, 0
7, 28800, Note_on_c, 9, 54, 110
7, 28894, Note_on_c, 9, 54, 0
7, 28896, Note_on_c, 9, 54, 110
7, 28990, Note_on_c, 9, 54, 0
7, 28992, Note_on_c, 9, 54, 110
7, 29086, Note_on_c, 9, 54, 0
7, 29088, Note_on_c, 9, 54, 110
7, 29182, Note_on_c, 9, 54, 0
7, 29184, Note_on_c, 9, 54, 110
7, 29278, Note_on_c, 9, 54, 0
7, 29280, Note_on_c, 9, 54, 110
7, 29374, Note_on_c, 9, 54, 0
7, 29376, Note_on_c, 9, 54, 110
7, 29470, Note_on_c, 9, 54, 0
7, 29472, Note_on_c, 9, 54, 110
7, 29566, Note_on_c, 9, 54, 0
7, 29568, Note_on_c, 9, 54, 110
7, 29662, Note_on_c, 9, 54, 0
7, 29664, Note_on_c, 9, 54, 110
7, 29758, Note_on_c, 9, 54, 0
7, 29760, Note_on_c, 9, 54, 110
7, 29854, Note_on_c, 9, 54, 0
7, 29856, Note_on_c, 9, 54, 110
7, 29950, Note_on_c, 9, 54, 0
7, 29952, Note_on_c, 9, 54, 110
7, 30046, Note_on_c, 9, 54, 0
7, 30048, Note_on_c, 9, 54, 110
7, 30142, Note_on_c, 9, 54, 0
7, 30144, Note_on_c, 9, 54, 110
7, 30238, Note_on_c, 9, 54, 0
7, 30240, Note_on_c, 9, 54, 110
7, 30334, Note_on_c, 9, 54, 0
7, 30336, Note_on_c, 9, 54, 110
7, 30430, Note_on_c, 9, 54, 0
7, 30432, Note_on_c, 9, 54, 110
7, 30526, Note_on_c, 9, 54, 0
7, 30528, Note_on_c, 9, 54, 110
7, 30622, Note_on_c, 9, 54, 0
7, 30624, Note_on_c, 9, 54, 110
7, 30718, Note_on_c, 9, 54, 0
7, 30720, Note_on_c, 9, 54, 110
7, 30814, Note_on_c, 9, 54, 0
7, 30816, Note_on_c, 9, 54, 110
7, 30910, Note_on_c, 9, 54, 0
7, 30912, Note_on_c, 9, 54, 110
7, 31006, Note_on_c, 9, 54, 0
7, 31008, Note_on_c, 9, 54, 110
7, 31102, Note_on_c, 9, 54, 0
7, 31104, Note_on_c, 9, 54, 110
7, 31198, Note_on_c, 9, 54, 0
7, 31200, Note_on_c, 9, 54, 110
7, 31294, Note_on_c, 9, 54, 0
7, 31296, Note_on_c, 9, 54, 110
7, 31390, Note_on_c, 9, 54, 0
7, 31392, Note_on_c, 9, 54, 110
7, 31486, Note_on_c, 9, 54, 0
7, 31488, Note_on_c, 9, 54, 110
7, 31582, Note_on_c, 9, 54, 0
7, 31584, Note_on_c, 9, 54, 110
7, 31678, Note_on_c, 9, 54, 0
7, 31680, Note_on_c, 9, 54, 110
7, 31774, Note_on_c, 9, 54, 0
7, 31776, Note_on_c, 9, 54, 110
7, 31870, Note_on_c, 9, 54, 0
7, 31872, Note_on_c, 9, 54, 110
7, 31966, Note_on_c, 9, 54, 0
7, 31968, Note_on_c, 9, 54, 110
7, 32062, Note_on_c, 9, 54, 0
7, 32064, Note_on_c, 9, 54, 110
7, 32158, Note_on_c, 9, 54, 0
7, 32160, Note_on_c, 9, 54, 110
7, 32254, Note_on_c, 9, 54, 0
7, 32256, Note_on_c, 9, 54, 110
7, 32350, Note_on_c, 9, 54, 0
7, 32352, Note_on_c, 9, 54, 110
7, 32446, Note_on_c, 9, 54, 0
7, 32448, Note_on_c, 9, 54, 110
7, 32542, Note_on_c, 9, 54, 0
7, 32544, Note_on_c, 9, 54, 110
7, 32638, Note_on_c, 9, 54, 0
7, 32640, Note_on_c, 9, 54, 110
7, 32734, Note_on_c, 9, 54, 0
7, 32736, Note_on_c, 9, 54, 110
7, 32830, Note_on_c, 9, 54, 0
7, 32832, Note_on_c, 9, 54, 110
7, 32926, Note_on_c, 9, 54, 0
7, 32928, Note_on_c, 9, 54, 110
7, 33022, Note_on_c, 9, 54, 0
7, 33024, Note_on_c, 9, 54, 110
7, 33118, Note_on_c, 9, 54, 0
7, 33120, Note_on_c, 9, 54, 110
7, 33214, Note_on_c, 9, 54, 0
7, 33216, Note_on_c, 9, 54, 110
7, 33310, Note_on_c, 9, 54, 0
7, 33312, Note_on_c, 9, 54, 110
7, 33406, Note_on_c, 9, 54, 0
7, 33408, Note_on_c, 9, 54, 110
7, 33502, Note_on_c, 9, 54, 0
7, 33504, Note_on_c, 9, 54, 110
7, 33598, Note_on_c, 9, 54, 0
7, 33600, Note_on_c, 9, 54, 110
7, 33694, Note_on_c, 9, 54, 0
7, 33696, Note_on_c, 9, 54, 110
7, 33790, Note_on_c, 9, 54, 0
7, 33792, Note_on_c, 9, 54, 110
7, 33886, Note_on_c, 9, 54, 0
7, 33888, Note_on_c, 9, 54, 110
7, 33982, Note_on_c, 9, 54, 0
7, 33984, Note_on_c, 9, 54, 110
7, 34078, Note_on_c, 9, 54, 0
7, 34080, Note_on_c, 9, 54, 110
7, 34174, Note_on_c, 9, 54, 0
7, 34176, Note_on_c, 9, 54, 110
7, 34270, Note_on_c, 9, 54, 0
7, 34272, Note_on_c, 9, 54, 110
7, 34366, Note_on_c, 9, 54, 0
7, 34368, Note_on_c, 9, 54, 110
7, 34462, Note_on_c, 9, 54, 0
7, 34464, Note_on_c, 9, 54, 110
7, 34558, Note_on_c, 9, 54, 0
7, 34560, Note_on_c, 9, 54, 110
7, 34654, Note_on_c, 9, 54, 0
7, 34656, Note_on_c, 9, 54, 110
7, 34750, Note_on_c, 9, 54, 0
7, 34752, Note_on_c, 9, 54, 110
7, 34846, Note_on_c, 9, 54, 0
7, 34848, Note_on_c, 9, 54, 110
7, 34942, Note_on_c, 9, 54, 0
7, 34944, Note_on_c, 9, 54, 110
7, 35038, Note_on_c, 9, 54, 0
7, 35040, Note_on_c, 9, 54, 110
7, 35134, Note_on_c, 9, 54, 0
7, 35136, Note_on_c, 9, 54, 110
7, 35230, Note_on_c, 9, 54, 0
7, 35232, Note_on_c, 9, 54, 110
7, 35326, Note_on_c, 9, 54, 0
7, 35328, Note_on_c, 9, 54, 110
7, 35422, Note_on_c, 9, 54, 0
7, 35424, Note_on_c, 9, 54, 110
7, 35518, Note_on_c, 9, 54, 0
7, 35520, Note_on_c, 9, 54, 110
7, 35614, Note_on_c, 9, 54, 0
7, 35616, Note_on_c, 9, 54, 110
7, 35710, Note_on_c, 9, 54, 0
7, 35712, Note_on_c, 9, 54, 110
7, 35806, Note_on_c, 9, 54, 0
7, 35808, Note_on_c, 9, 54, 110
7, 35902, Note_on_c, 9, 54, 0
7, 35904, Note_on_c, 9, 54, 110
7, 35998, Note_on_c, 9, 54, 0
7, 36000, Note_on_c, 9, 54, 110
7, 36094, Note_on_c, 9, 54, 0
7, 36096, Note_on_c, 9, 54, 110
7, 36190, Note_on_c, 9, 54, 0
7, 36192, Note_on_c, 9, 54, 110
7, 36286, Note_on_c, 9, 54, 0
7, 36288, Note_on_c, 9, 54, 110
7, 36382, Note_on_c, 9, 54, 0
7, 36384, Note_on_c, 9, 54, 110
7, 36478, Note_on_c, 9, 54, 0
7, 36480, Note_on_c, 9, 54, 110
7, 36574, Note_on_c, 9, 54, 0
7, 36576, Note_on_c, 9, 54, 110
7, 36670, Note_on_c, 9, 54, 0
7, 36672, Note_on_c, 9, 54, 110
7, 36766, Note_on_c, 9, 54, 0
7, 36768, Note_on_c, 9, 54, 110
7, 36862, Note_on_c, 9, 54, 0
7, 36864, Note_on_c, 9, 54, 110
7, 36958, Note_on_c, 9, 54, 0
7, 36960, Note_on_c, 9, 54, 110
7, 37054, Note_on_c, 9, 54, 0
7, 37056, Note_on_c, 9, 54, 110
7, 37150, Note_on_c, 9, 54, 0
7, 37152, Note_on_c, 9, 54, 110
7, 37246, Note_on_c, 9, 54, 0
7, 37248, Note_on_c, 9, 54, 110
7, 37342, Note_on_c, 9, 54, 0
7, 37344, Note_on_c, 9, 54, 110
7, 37438, Note_on_c, 9, 54, 0
7, 37440, Note_on_c, 9, 54, 110
7, 37534, Note_on_c, 9, 54, 0
7, 37536, Note_on_c, 9, 54, 110
7, 37630, Note_on_c, 9, 54, 0
7, 37632, Note_on_c, 9, 54, 110
7, 37726, Note_on_c, 9, 54, 0
7, 37728, Note_on_c, 9, 54, 110
7, 37822, Note_on_c, 9, 54, 0
7, 37824, Note_on_c, 9, 54, 110
7, 37918, Note_on_c, 9, 54, 0
7, 37920, Note_on_c, 9, 54, 110
7, 38014, Note_on_c, 9, 54, 0
7, 38016, Note_on_c, 9, 54, 110
7, 38110, Note_on_c, 9, 54, 0
7, 38112, Note_on_c, 9, 54, 110
7, 38206, Note_on_c, 9, 54, 0
7, 38208, Note_on_c, 9, 54, 110
7, 38302, Note_on_c, 9, 54, 0
7, 38304, Note_on_c, 9, 54, 110
7, 38398, Note_on_c, 9, 54, 0
7, 38400, Note_on_c, 9, 54, 110
7, 38494, Note_on_c, 9, 54, 0
7, 38496, Note_on_c, 9, 54, 110
7, 38590, Note_on_c, 9, 54, 0
7, 38592, Note_on_c, 9, 54, 110
7, 38686, Note_on_c, 9, 54, 0
7, 38688, Note_on_c, 9, 54, 110
7, 38782, Note_on_c, 9, 54, 0
7, 38784, Note_on_c, 9, 54, 110
7, 38878, Note_on_c, 9, 54, 0
7, 38880, Note_on_c, 9, 54, 110
7, 38974, Note_on_c, 9, 54, 0
7, 38976, Note_on_c, 9, 54, 110
7, 39070, Note_on_c, 9, 54, 0
7, 39072, Note_on_c, 9, 54, 110
7, 39166, Note_on_c, 9, 54, 0
7, 39168, Note_on_c, 9, 54, 110
7, 39262, Note_on_c, 9, 54, 0
7, 39264, Note_on_c, 9, 54, 110
7, 39358, Note_on_c, 9, 54, 0
7, 39360, Note_on_c, 9, 54, 110
7, 39454, Note_on_c, 9, 54, 0
7, 39456, Note_on_c, 9, 54, 110
7, 39550, Note_on_c, 9, 54, 0
7, 39552, Note_on_c, 9, 54, 110
7, 39646, Note_on_c, 9, 54, 0
7, 39648, Note_on_c, 9, 54, 110
7, 39742, Note_on_c, 9, 54, 0
7, 39744, Note_on_c, 9, 54, 110
7, 39838, Note_on_c, 9, 54, 0
7, 39840, Note_on_c, 9, 54, 110
7, 39934, Note_on_c, 9, 54, 0
7, 39936, Note_on_c, 9, 54, 110
7, 40030, Note_on_c, 9, 54, 0
7, 40032, Note_on_c, 9, 54, 110
7, 40126, Note_on_c, 9, 54, 0
7, 40128, Note_on_c, 9, 54, 110
7, 40222, Note_on_c, 9, 54, 0
7, 40224, Note_on_c, 9, 54, 110
7, 40318, Note_on_c, 9, 54, 0
7, 40320, Note_on_c, 9, 54, 110
7, 40414, Note_on_c, 9, 54, 0
7, 40416, Note_on_c, 9, 54, 110
7, 40510, Note_on_c, 9, 54, 0
7, 40512, Note_on_c, 9, 54, 110
7, 40606, Note_on_c, 9, 54, 0
7, 40608, Note_on_c, 9, 54, 110
7, 40702, Note_on_c, 9, 54, 0
7, 40704, Note_on_c, 9, 54, 110
7, 40798, Note_on_c, 9, 54, 0
7, 40800, Note_on_c, 9, 54, 110
7, 40894, Note_on_c, 9, 54, 0
7, 40896, Note_on_c, 9, 54, 110
7, 40990, Note_on_c, 9, 54, 0
7, 40992, Note_on_c, 9, 54, 110
7, 41086, Note_on_c, 9, 54, 0
7, 41088, Note_on_c, 9, 54, 110
7, 41182, Note_on_c, 9, 54, 0
7, 41184, Note_on_c, 9, 54, 110
7, 41278, Note_on_c, 9, 54, 0
7, 41280, Note_on_c, 9, 54, 110
7, 41374, Note_on_c, 9, 54, 0
7, 41376, Note_on_c, 9, 54, 110
7, 41470, Note_on_c, 9, 54, 0
7, 41472, Note_on_c, 9, 54, 110
7, 41566, Note_on_c, 9, 54, 0
7, 41568, Note_on_c, 9, 54, 110
7, 41662, Note_on_c, 9, 54, 0
7, 41664, Note_on_c, 9, 54, 110
7, 41758, Note_on_c, 9, 54, 0
7, 41760, Note_on_c, 9, 54, 110
7, 41854, Note_on_c, 9, 54, 0
7, 41856, Note_on_c, 9, 54, 110
7, 41950, Note_on_c, 9, 54, 0
7, 41952, Note_on_c, 9, 54, 110
7, 42046, Note_on_c, 9, 54, 0
7, 42048, Note_on_c, 9, 54, 110
7, 42142, Note_on_c, 9, 54, 0
7, 42144, Note_on_c, 9, 54, 110
7, 42238, Note_on_c, 9, 54, 0
7, 42240, Note_on_c, 9, 54, 110
7, 42334, Note_on_c, 9, 54, 0
7, 42336, Note_on_c, 9, 54, 110
7, 42430, Note_on_c, 9, 54, 0
7, 42432, Note_on_c, 9, 54, 110
7, 42526, Note_on_c, 9, 54, 0
7, 42528, Note_on_c, 9, 54, 110
7, 42622, Note_on_c, 9, 54, 0
7, 42624, Note_on_c, 9, 54, 110
7, 42718, Note_on_c, 9, 54, 0
7, 42720, Note_on_c, 9, 54, 110
7, 42814, Note_on_c, 9, 54, 0
7, 42816, Note_on_c, 9, 54, 110
7, 42910, Note_on_c, 9, 54, 0
7, 42912, Note_on_c, 9, 54, 110
7, 43006, Note_on_c, 9, 54, 0
7, 43008, Note_on_c, 9, 54, 110
7, 43102, Note_on_c, 9, 54, 0
7, 43104, Note_on_c, 9, 54, 110
7, 43198, Note_on_c, 9, 54, 0
7, 43200, Note_on_c, 9, 54, 110
7, 43294, Note_on_c, 9, 54, 0
7, 43296, Note_on_c, 9, 54, 110
7, 43390, Note_on_c, 9, 54, 0
7, 43392, Note_on_c, 9, 54, 110
7, 43486, Note_on_c, 9, 54, 0
7, 43488, Note_on_c, 9, 54, 110
7, 43582, Note_on_c, 9, 54, 0
7, 43584, Note_on_c, 9, 54, 110
7, 43678, Note_on_c, 9, 54, 0
7, 43680, Note_on_c, 9, 54, 110
7, 43774, Note_on_c, 9, 54, 0
7, 43776, Note_on_c, 9, 54, 110
7, 43870, Note_on_c, 9, 54, 0
7, 43872, Note_on_c, 9, 54, 110
7, 43966, Note_on_c, 9, 54, 0
7, 43968, Note_on_c, 9, 54, 110
7, 44062, Note_on_c, 9, 54, 0
7, 44064, Note_on_c, 9, 54, 110
7, 44158, Note_on_c, 9, 54, 0
7, 44160, Note_on_c, 9, 54, 110
7, 44254, Note_on_c, 9, 54, 0
7, 44256, Note_on_c, 9, 54, 110
7, 44350, Note_on_c, 9, 54, 0
7, 44352, Note_on_c, 9, 54, 110
7, 44446, Note_on_c, 9, 54, 0
7, 44448, Note_on_c, 9, 54, 110
7, 44542, Note_on_c, 9, 54, 0
7, 44544, Note_on_c, 9, 54, 110
7, 44638, Note_on_c, 9, 54, 0
7, 44640, Note_on_c, 9, 54, 110
7, 44734, Note_on_c, 9, 54, 0
7, 44736, Note_on_c, 9, 54, 110
7, 44830, Note_on_c, 9, 54, 0
7, 44832, Note_on_c, 9, 54, 110
7, 44926, Note_on_c, 9, 54, 0
7, 44928, Note_on_c, 9, 54, 110
7, 45022, Note_on_c, 9, 54, 0
7, 45024, Note_on_c, 9, 54, 110
7, 45118, Note_on_c, 9, 54, 0
7, 45120, Note_on_c, 9, 54, 110
7, 45214, Note_on_c, 9, 54, 0
7, 45216, Note_on_c, 9, 54, 110
7, 45310, Note_on_c, 9, 54, 0
7, 45312, Note_on_c, 9, 54, 110
7, 45406, Note_on_c, 9, 54, 0
7, 45408, Note_on_c, 9, 54, 110
7, 45502, Note_on_c, 9, 54, 0
7, 45504, Note_on_c, 9, 54, 110
7, 45598, Note_on_c, 9, 54, 0
7, 45600, Note_on_c, 9, 54, 110
7, 45694, Note_on_c, 9, 54, 0
7, 45696, Note_on_c, 9, 54, 110
7, 45790, Note_on_c, 9, 54, 0
7, 45792, Note_on_c, 9, 54, 110
7, 45886, Note_on_c, 9, 54, 0
7, 45888, Note_on_c, 9, 54, 110
7, 45982, Note_on_c, 9, 54, 0
7, 45984, Note_on_c, 9, 54, 110
7, 46078, Note_on_c, 9, 54, 0
7, 46080, Note_on_c, 9, 54, 110
7, 46174, Note_on_c, 9, 54, 0
7, 46176, Note_on_c, 9, 54, 110
7, 46270, Note_on_c, 9, 54, 0
7, 46272, Note_on_c, 9, 54, 110
7, 46366, Note_on_c, 9, 54, 0
7, 46368, Note_on_c, 9, 54, 110
7, 46462, Note_on_c, 9, 54, 0
7, 46464, Note_on_c, 9, 54, 110
7, 46558, Note_on_c, 9, 54, 0
7, 46560, Note_on_c, 9, 54, 110
7, 46654, Note_on_c, 9, 54, 0
7, 46656, Note_on_c, 9, 54, 110
7, 46750, Note_on_c, 9, 54, 0
7, 46752, Note_on_c, 9, 54, 110
7, 46846, Note_on_c, 9, 54, 0
7, 46848, Note_on_c, 9, 54, 110
7, 46942, Note_on_c, 9, 54, 0
7, 46944, Note_on_c, 9, 54, 110
7, 47038, Note_on_c, 9, 54, 0
7, 47040, Note_on_c, 9, 54, 110
7, 47134, Note_on_c, 9, 54, 0
7, 47136, Note_on_c, 9, 54, 110
7, 47230, Note_on_c, 9, 54, 0
7, 47232, Note_on_c, 9, 54, 110
7, 47326, Note_on_c, 9, 54, 0
7, 47328, Note_on_c, 9, 54, 110
7, 47422, Note_on_c, 9, 54, 0
7, 47424, Note_on_c, 9, 54, 110
7, 47518, Note_on_c, 9, 54, 0
7, 47520, Note_on_c, 9, 54, 110
7, 47614, Note_on_c, 9, 54, 0
7, 47616, Note_on_c, 9, 54, 110
7, 47710, Note_on_c, 9, 54, 0
7, 47712, Note_on_c, 9, 54, 110
7, 47806, Note_on_c, 9, 54, 0
7, 47808, Note_on_c, 9, 54, 110
7, 47902, Note_on_c, 9, 54, 0
7, 47904, Note_on_c, 9, 54, 110
7, 47998, Note_on_c, 9, 54, 0
7, 48000, Note_on_c, 9, 54, 110
7, 48094, Note_on_c, 9, 54, 0
7, 48096, Note_on_c, 9, 54, 110
7, 48190, Note_on_c, 9, 54, 0
7, 48192, Note_on_c, 9, 54, 110
7, 48286, Note_on_c, 9, 54, 0
7, 48288, Note_on_c, 9, 54, 110
7, 48382, Note_on_c, 9, 54, 0
7, 48384, Note_on_c, 9, 54, 110
7, 48478, Note_on_c, 9, 54, 0
7, 48480, Note_on_c, 9, 54, 110
7, 48574, Note_on_c, 9, 54, 0
7, 48576, Note_on_c, 9, 54, 110
7, 48670, Note_on_c, 9, 54, 0
7, 48672, Note_on_c, 9, 54, 110
7, 48766, Note_on_c, 9, 54, 0
7, 48768, Note_on_c, 9, 54, 110
7, 48862, Note_on_c, 9, 54, 0
7, 48864, Note_on_c, 9, 54, 110
7, 48958, Note_on_c, 9, 54, 0
7, 48960, Note_on_c, 9, 54, 110
7, 49054, Note_on_c, 9, 54, 0
7, 49056, Note_on_c, 9, 54, 110
7, 49150, Note_on_c, 9, 54, 0
7, 49152, Note_on_c, 9, 54, 110
7, 49246, Note_on_c, 9, 54, 0
7, 49248, Note_on_c, 9, 54, 110
7, 49342, Note_on_c, 9, 54, 0
7, 49344, Note_on_c, 9, 54, 110
7, 49438, Note_on_c, 9, 54, 0
7, 49440, Note_on_c, 9, 54, 110
7, 49534, Note_on_c, 9, 54, 0
7, 49536, Note_on_c, 9, 54, 110
7, 49630, Note_on_c, 9, 54, 0
7, 49632, Note_on_c, 9, 54, 110
7, 49726, Note_on_c, 9, 54, 0
7, 49728, Note_on_c, 9, 54, 110
7, 49822, Note_on_c, 9, 54, 0
7, 49824, Note_on_c, 9, 54, 110
7, 49918, Note_on_c, 9, 54, 0
7, 49920, Note_on_c, 9, 54, 110
7, 50014, Note_on_c, 9, 54, 0
7, 50016, Note_on_c, 9, 54, 110
7, 50110, Note_on_c, 9, 54, 0
7, 50112, Note_on_c, 9, 54, 110
7, 50206, Note_on_c, 9, 54, 0
7, 50208, Note_on_c, 9, 54, 110
7, 50302, Note_on_c, 9, 54, 0
7, 50304, Note_on_c, 9, 54, 110
7, 50398, Note_on_c, 9, 54, 0
7, 50400, Note_on_c, 9, 54, 110
7, 50494, Note_on_c, 9, 54, 0
7, 50496, Note_on_c, 9, 54, 110
7, 50590, Note_on_c, 9, 54, 0
7, 50592, Note_on_c, 9, 54, 110
7, 50686, Note_on_c, 9, 54, 0
7, 50688, Note_on_c, 9, 54, 110
7, 50782, Note_on_c, 9, 54, 0
7, 50784, Note_on_c, 9, 54, 110
7, 50878, Note_on_c, 9, 54, 0
7, 50880, Note_on_c, 9, 54, 110
7, 50974, Note_on_c, 9, 54, 0
7, 50976, Note_on_c, 9, 54, 110
7, 51070, Note_on_c, 9, 54, 0
7, 51072, Note_on_c, 9, 54, 110
7, 51166, Note_on_c, 9, 54, 0
7, 51168, Note_on_c, 9, 54, 110
7, 51262, Note_on_c, 9, 54, 0
7, 51264, Note_on_c, 9, 54, 110
7, 51358, Note_on_c, 9, 54, 0
7, 51360, Note_on_c, 9, 54, 110
7, 51454, Note_on_c, 9, 54, 0
7, 51456, Note_on_c, 9, 54, 110
7, 51550, Note_on_c, 9, 54, 0
7, 51552, Note_on_c, 9, 54, 110
7, 51646, Note_on_c, 9, 54, 0
7, 51648, Note_on_c, 9, 54, 110
7, 51742, Note_on_c, 9, 54, 0
7, 51744, Note_on_c, 9, 54, 110
7, 51838, Note_on_c, 9, 54, 0
7, 51840, Note_on_c, 9, 54, 110
7, 51934, Note_on_c, 9, 54, 0
7, 51936, Note_on_c, 9, 54, 110
7, 52030, Note_on_c, 9, 54, 0
7, 52032, Note_on_c, 9, 54, 110
7, 52126, Note_on_c, 9, 54, 0
7, 52128, Note_on_c, 9, 54, 110
7, 52222, Note_on_c, 9, 54, 0
7, 52224, Note_on_c, 9, 54, 110
7, 52318, Note_on_c, 9, 54, 0
7, 52320, Note_on_c, 9, 54, 110
7, 52414, Note_on_c, 9, 54, 0
7, 52416, Note_on_c, 9, 54, 110
7, 52510, Note_on_c, 9, 54, 0
7, 52512, Note_on_c, 9, 54, 110
7, 52606, Note_on_c, 9, 54, 0
7, 52608, Note_on_c, 9, 54, 110
7, 52702, Note_on_c, 9, 54, 0
7, 52704, Note_on_c, 9, 54, 110
7, 52798, Note_on_c, 9, 54, 0
7, 52800, Note_on_c, 9, 54, 110
7, 52894, Note_on_c, 9, 54, 0
7, 52896, Note_on_c, 9, 54, 110
7, 52990, Note_on_c, 9, 54, 0
7, 52992, Note_on_c, 9, 54, 110
7, 53086, Note_on_c, 9, 54, 0
7, 53088, Note_on_c, 9, 54, 110
7, 53182, Note_on_c, 9, 54, 0
7, 53184, Note_on_c, 9, 54, 110
7, 53278, Note_on_c, 9, 54, 0
7, 53280, Note_on_c, 9, 54, 110
7, 53374, Note_on_c, 9, 54, 0
7, 53376, Note_on_c, 9, 54, 110
7, 53470, Note_on_c, 9, 54, 0
7, 53472, Note_on_c, 9, 54, 110
7, 53566, Note_on_c, 9, 54, 0
7, 53568, Note_on_c, 9, 54, 110
7, 53662, Note_on_c, 9, 54, 0
7, 53664, Note_on_c, 9, 54, 110
7, 53758, Note_on_c, 9, 54, 0
7, 53760, Note_on_c, 9, 54, 110
7, 53854, Note_on_c, 9, 54, 0
7, 53856, Note_on_c, 9, 54, 110
7, 53950, Note_on_c, 9, 54, 0
7, 53952, Note_on_c, 9, 54, 110
7, 54046, Note_on_c, 9, 54, 0
7, 54048, Note_on_c, 9, 54, 110
7, 54142, Note_on_c, 9, 54, 0
7, 54144, Note_on_c, 9, 54, 110
7, 54238, Note_on_c, 9, 54, 0
7, 54240, Note_on_c, 9, 54, 110
7, 54334, Note_on_c, 9, 54, 0
7, 54336, Note_on_c, 9, 54, 110
7, 54430, Note_on_c, 9, 54, 0
7, 54432, Note_on_c, 9, 54, 110
7, 54526, Note_on_c, 9, 54, 0
7, 54528, Note_on_c, 9, 54, 110
7, 54622, Note_on_c, 9, 54, 0
7, 54624, Note_on_c, 9, 54, 110
7, 54718, Note_on_c, 9, 54, 0
7, 54720, Note_on_c, 9, 54, 110
7, 54814, Note_on_c, 9, 54, 0
7, 54816, Note_on_c, 9, 54, 110
7, 54910, Note_on_c, 9, 54, 0
7, 54912, Note_on_c, 9, 54, 110
7, 55006, Note_on_c, 9, 54, 0
7, 55008, Note_on_c, 9, 54, 110
7, 55102, Note_on_c, 9, 54, 0
7, 55104, Note_on_c, 9, 54, 110
7, 55198, Note_on_c, 9, 54, 0
7, 55200, Note_on_c, 9, 54, 110
7, 55294, Note_on_c, 9, 54, 0
7, 55296, Note_on_c, 9, 54, 110
7, 55390, Note_on_c, 9, 54, 0
7, 55392, Note_on_c, 9, 54, 110
7, 55486, Note_on_c, 9, 54, 0
7, 55488, Note_on_c, 9, 54, 110
7, 55582, Note_on_c, 9, 54, 0
7, 55584, Note_on_c, 9, 54, 110
7, 55678, Note_on_c, 9, 54, 0
7, 55680, Note_on_c, 9, 54, 110
7, 55774, Note_on_c, 9, 54, 0
7, 55776, Note_on_c, 9, 54, 110
7, 55870, Note_on_c, 9, 54, 0
7, 55872, Note_on_c, 9, 54, 110
7, 55966, Note_on_c, 9, 54, 0
7, 55968, Note_on_c, 9, 54, 110
7, 56062, Note_on_c, 9, 54, 0
7, 56064, Note_on_c, 9, 54, 110
7, 56158, Note_on_c, 9, 54, 0
7, 56160, Note_on_c, 9, 54, 110
7, 56254, Note_on_c, 9, 54, 0
7, 56256, Note_on_c, 9, 54, 110
7, 56350, Note_on_c, 9, 54, 0
7, 56352, Note_on_c, 9, 54, 110
7, 56446, Note_on_c, 9, 54, 0
7, 56448, Note_on_c, 9, 54, 110
7, 56542, Note_on_c, 9, 54, 0
7, 56544, Note_on_c, 9, 54, 110
7, 56638, Note_on_c, 9, 54, 0
7, 56640, Note_on_c, 9, 54, 110
7, 56734, Note_on_c, 9, 54, 0
7, 56736, Note_on_c, 9, 54, 110
7, 56830, Note_on_c, 9, 54, 0
7, 56832, Note_on_c, 9, 54, 110
7, 56926, Note_on_c, 9, 54, 0
7, 56928, Note_on_c, 9, 54, 110
7, 57022, Note_on_c, 9, 54, 0
7, 57024, Note_on_c, 9, 54, 110
7, 57118, Note_on_c, 9, 54, 0
7, 57120, Note_on_c, 9, 54, 110
7, 57214, Note_on_c, 9, 54, 0
7, 57216, Note_on_c, 9, 54, 110
7, 57310, Note_on_c, 9, 54, 0
7, 57312, Note_on_c, 9, 54, 110
7, 57406, Note_on_c, 9, 54, 0
7, 57408, Note_on_c, 9, 54, 110
7, 57502, Note_on_c, 9, 54, 0
7, 57504, Note_on_c, 9, 54, 110
7, 57598, Note_on_c, 9, 54, 0
7, 57600, Note_on_c, 9, 54, 110
7, 57694, Note_on_c, 9, 54, 0
7, 57696, Note_on_c, 9, 54, 110
7, 57790, Note_on_c, 9, 54, 0
7, 57792, Note_on_c, 9, 54, 110
7, 57886, Note_on_c, 9, 54, 0
7, 57888, Note_on_c, 9, 54, 110
7, 57982, Note_on_c, 9, 54, 0
7, 57984, Note_on_c, 9, 54, 110
7, 58078, Note_on_c, 9, 54, 0
7, 58080, Note_on_c, 9, 54, 110
7, 58174, Note_on_c, 9, 54, 0
7, 58176, Note_on_c, 9, 54, 110
7, 58270, Note_on_c, 9, 54, 0
7, 58272, Note_on_c, 9, 54, 110
7, 58366, Note_on_c, 9, 54, 0
7, 58368, Note_on_c, 9, 54, 110
7, 58462, Note_on_c, 9, 54, 0
7, 58464, Note_on_c, 9, 54, 110
7, 58558, Note_on_c, 9, 54, 0
7, 58560, Note_on_c, 9, 54, 110
7, 58654, Note_on_c, 9, 54, 0
7, 58656, Note_on_c, 9, 54, 110
7, 58750, Note_on_c, 9, 54, 0
7, 58752, Note_on_c, 9, 54, 110
7, 58846, Note_on_c, 9, 54, 0
7, 58848, Note_on_c, 9, 54, 110
7, 58942, Note_on_c, 9, 54, 0
7, 58944, Note_on_c, 9, 54, 110
7, 59038, Note_on_c, 9, 54, 0
7, 59040, Note_on_c, 9, 54, 110
7, 59134, Note_on_c, 9, 54, 0
7, 59136, Note_on_c, 9, 54, 110
7, 59230, Note_on_c, 9, 54, 0
7, 59232, Note_on_c, 9, 54, 110
7, 59326, Note_on_c, 9, 54, 0
7, 59328, Note_on_c, 9, 54, 110
7, 59422, Note_on_c, 9, 54, 0
7, 59424, Note_on_c, 9, 54, 110
7, 59518, Note_on_c, 9, 54, 0
7, 59520, Note_on_c, 9, 54, 110
7, 59614, Note_on_c, 9, 54, 0
7, 59616, Note_on_c, 9, 54, 110
7, 59710, Note_on_c, 9, 54, 0
7, 59712, Note_on_c, 9, 54, 110
7, 59806, Note_on_c, 9, 54, 0
7, 59808, Note_on_c, 9, 54, 110
7, 59902, Note_on_c, 9, 54, 0
7, 59904, Note_on_c, 9, 54, 110
7, 59998, Note_on_c, 9, 54, 0
7, 60000, Note_on_c, 9, 54, 110
7, 60094, Note_on_c, 9, 54, 0
7, 60096, Note_on_c, 9, 54, 110
7, 60190, Note_on_c, 9, 54, 0
7, 60192, Note_on_c, 9, 54, 110
7, 60286, Note_on_c, 9, 54, 0
7, 60288, Note_on_c, 9, 54, 110
7, 60382, Note_on_c, 9, 54, 0
7, 60384, Note_on_c, 9, 54, 110
7, 60478, Note_on_c, 9, 54, 0
7, 60480, Note_on_c, 9, 54, 110
7, 60574, Note_on_c, 9, 54, 0
7, 60576, Note_on_c, 9, 54, 110
7, 60670, Note_on_c, 9, 54, 0
7, 60672, Note_on_c, 9, 54, 110
7, 60766, Note_on_c, 9, 54, 0
7, 60768, Note_on_c, 9, 54, 110
7, 60862, Note_on_c, 9, 54, 0
7, 60864, Note_on_c, 9, 54, 110
7, 60958, Note_on_c, 9, 54, 0
7, 60960, Note_on_c, 9, 54, 110
7, 61054, Note_on_c, 9, 54, 0
7, 61056, Note_on_c, 9, 54, 110
7, 61150, Note_on_c, 9, 54, 0
7, 61152, Note_on_c, 9, 54, 110
7, 61246, Note_on_c, 9, 54, 0
7, 61248, Note_on_c, 9, 54, 110
7, 61342, Note_on_c, 9, 54, 0
7, 61344, Note_on_c, 9, 54, 110
7, 61438, Note_on_c, 9, 54, 0
7, 61440, Note_on_c, 9, 54, 110
7, 61534, Note_on_c, 9, 54, 0
7, 61536, Note_on_c, 9, 54, 110
7, 61630, Note_on_c, 9, 54, 0
7, 61632, Note_on_c, 9, 54, 110
7, 61726, Note_on_c, 9, 54, 0
7, 61728, Note_on_c, 9, 54, 110
7, 61822, Note_on_c, 9, 54, 0
7, 61824, Note_on_c, 9, 54, 110
7, 61918, Note_on_c, 9, 54, 0
7, 61920, Note_on_c, 9, 54, 110
7, 62014, Note_on_c, 9, 54, 0
7, 62016, Note_on_c, 9, 54, 110
7, 62110, Note_on_c, 9, 54, 0
7, 62112, Note_on_c, 9, 54, 110
7, 62206, Note_on_c, 9, 54, 0
7, 62208, Note_on_c, 9, 54, 110
7, 62302, Note_on_c, 9, 54, 0
7, 62304, Note_on_c, 9, 54, 110
7, 62398, Note_on_c, 9, 54, 0
7, 62400, Note_on_c, 9, 54, 110
7, 62494, Note_on_c, 9, 54, 0
7, 62496, Note_on_c, 9, 54, 110
7, 62590, Note_on_c, 9, 54, 0
7, 62592, Note_on_c, 9, 54, 110
7, 62686, Note_on_c, 9, 54, 0
7, 62688, Note_on_c, 9, 54, 110
7, 62782, Note_on_c, 9, 54, 0
7, 62784, Note_on_c, 9, 54, 110
7, 62878, Note_on_c, 9, 54, 0
7, 62880, Note_on_c, 9, 54, 110
7, 62974, Note_on_c, 9, 54, 0
7, 62976, Note_on_c, 9, 54, 110
7, 63070, Note_on_c, 9, 54, 0
7, 63072, Note_on_c, 9, 54, 110
7, 63166, Note_on_c, 9, 54, 0
7, 63168, Note_on_c, 9, 54, 110
7, 63262, Note_on_c, 9, 54, 0
7, 63264, Note_on_c, 9, 54, 110
7, 63358, Note_on_c, 9, 54, 0
7, 63360, Note_on_c, 9, 54, 110
7, 63454, Note_on_c, 9, 54, 0
7, 63456, Note_on_c, 9, 54, 110
7, 63550, Note_on_c, 9, 54, 0
7, 63552, Note_on_c, 9, 54, 110
7, 63646, Note_on_c, 9, 54, 0
7, 63648, Note_on_c, 9, 54, 110
7, 63742, Note_on_c, 9, 54, 0
7, 63744, Note_on_c, 9, 54, 110
7, 63838, Note_on_c, 9, 54, 0
7, 63840, Note_on_c, 9, 54, 110
7, 63934, Note_on_c, 9, 54, 0
7, 63936, Note_on_c, 9, 54, 110
7, 64030, Note_on_c, 9, 54, 0
7, 64032, Note_on_c, 9, 54, 110
7, 64126, Note_on_c, 9, 54, 0
7, 64128, Note_on_c, 9, 54, 110
7, 64222, Note_on_c, 9, 54, 0
7, 64224, Note_on_c, 9, 54, 110
7, 64318, Note_on_c, 9, 54, 0
7, 64320, Note_on_c, 9, 54, 110
7, 64414, Note_on_c, 9, 54, 0
7, 64416, Note_on_c, 9, 54, 110
7, 64510, Note_on_c, 9, 54, 0
7, 64512, Note_on_c, 9, 54, 110
7, 64606, Note_on_c, 9, 54, 0
7, 64608, Note_on_c, 9, 54, 110
7, 64702, Note_on_c, 9, 54, 0
7, 64704, Note_on_c, 9, 54, 110
7, 64798, Note_on_c, 9, 54, 0
7, 64800, Note_on_c, 9, 54, 110
7, 64894, Note_on_c, 9, 54, 0
7, 64896, Note_on_c, 9, 54, 110
7, 64990, Note_on_c, 9, 54, 0
7, 64992, Note_on_c, 9, 54, 110
7, 65086, Note_on_c, 9, 54, 0
7, 65088, Note_on_c, 9, 54, 110
7, 65182, Note_on_c, 9, 54, 0
7, 65184, Note_on_c, 9, 54, 110
7, 65278, Note_on_c, 9, 54, 0
7, 65280, Note_on_c, 9, 54, 110
7, 65374, Note_on_c, 9, 54, 0
7, 65376, Note_on_c, 9, 54, 110
7, 65470, Note_on_c, 9, 54, 0
7, 65472, Note_on_c, 9, 54, 110
7, 65566, Note_on_c, 9, 54, 0
7, 65568, Note_on_c, 9, 54, 110
7, 65662, Note_on_c, 9, 54, 0
7, 65664, Note_on_c, 9, 54, 110
7, 65758, Note_on_c, 9, 54, 0
7, 65760, Note_on_c, 9, 54, 110
7, 65854, Note_on_c, 9, 54, 0
7, 65856, Note_on_c, 9, 54, 110
7, 65950, Note_on_c, 9, 54, 0
7, 65952, Note_on_c, 9, 54, 110
7, 66046, Note_on_c, 9, 54, 0
7, 66048, Note_on_c, 9, 54, 110
7, 66142, Note_on_c, 9, 54, 0
7, 66144, Note_on_c, 9, 54, 110
7, 66238, Note_on_c, 9, 54, 0
7, 66240, Note_on_c, 9, 54, 110
7, 66334, Note_on_c, 9, 54, 0
7, 66336, Note_on_c, 9, 54, 110
7, 66430, Note_on_c, 9, 54, 0
7, 66432, Note_on_c, 9, 54, 110
7, 66526, Note_on_c, 9, 54, 0
7, 66528, Note_on_c, 9, 54, 110
7, 66622, Note_on_c, 9, 54, 0
7, 66624, Note_on_c, 9, 54, 110
7, 66718, Note_on_c, 9, 54, 0
7, 66720, Note_on_c, 9, 54, 110
7, 66814, Note_on_c, 9, 54, 0
7, 66816, Note_on_c, 9, 54, 110
7, 66910, Note_on_c, 9, 54, 0
7, 66912, Note_on_c, 9, 54, 110
7, 67006, Note_on_c, 9, 54, 0
7, 67008, Note_on_c, 9, 54, 110
7, 67102, Note_on_c, 9, 54, 0
7, 67104, Note_on_c, 9, 54, 110
7, 67198, Note_on_c, 9, 54, 0
7, 67200, Note_on_c, 9, 54, 110
7, 67294, Note_on_c, 9, 54, 0
7, 67296, Note_on_c, 9, 54, 110
7, 67390, Note_on_c, 9, 54, 0
7, 67392, Note_on_c, 9, 54, 110
7, 67486, Note_on_c, 9, 54, 0
7, 67488, Note_on_c, 9, 54, 110
7, 67582, Note_on_c, 9, 54, 0
7, 67584, Note_on_c, 9, 54, 110
7, 67678, Note_on_c, 9, 54, 0
7, 67680, Note_on_c, 9, 54, 110
7, 67774, Note_on_c, 9, 54, 0
7, 67776, Note_on_c, 9, 54, 110
7, 67870, Note_on_c, 9, 54, 0
7, 67872, Note_on_c, 9, 54, 110
7, 67966, Note_on_c, 9, 54, 0
7, 67968, Note_on_c, 9, 54, 110
7, 68062, Note_on_c, 9, 54, 0
7, 68064, Note_on_c, 9, 54, 110
7, 68158, Note_on_c, 9, 54, 0
7, 68160, Note_on_c, 9, 54, 110
7, 68254, Note_on_c, 9, 54, 0
7, 68256, Note_on_c, 9, 54, 110
7, 68350, Note_on_c, 9, 54, 0
7, 68352, Note_on_c, 9, 54, 110
7, 68446, Note_on_c, 9, 54, 0
7, 68448, Note_on_c, 9, 54, 110
7, 68542, Note_on_c, 9, 54, 0
7, 68544, Note_on_c, 9, 54, 110
7, 68638, Note_on_c, 9, 54, 0
7, 68640, Note_on_c, 9, 54, 110
7, 68734, Note_on_c, 9, 54, 0
7, 68736, Note_on_c, 9, 54, 110
7, 68830, Note_on_c, 9, 54, 0
7, 68832, Note_on_c, 9, 54, 110
7, 68926, Note_on_c, 9, 54, 0
7, 68928, Note_on_c, 9, 54, 110
7, 69022, Note_on_c, 9, 54, 0
7, 69024, Note_on_c, 9, 54, 110
7, 69118, Note_on_c, 9, 54, 0
7, 69120, Note_on_c, 9, 54, 110
7, 69214, Note_on_c, 9, 54, 0
7, 69216, Note_on_c, 9, 54, 110
7, 69310, Note_on_c, 9, 54, 0
7, 69312, Note_on_c, 9, 54, 110
7, 69406, Note_on_c, 9, 54, 0
7, 69408, Note_on_c, 9, 54, 110
7, 69502, Note_on_c, 9, 54, 0
7, 69504, Note_on_c, 9, 54, 110
7, 69598, Note_on_c, 9, 54, 0
7, 69600, Note_on_c, 9, 54, 110
7, 69694, Note_on_c, 9, 54, 0
7, 69696, Note_on_c, 9, 54, 110
7, 69790, Note_on_c, 9, 54, 0
7, 69792, Note_on_c, 9, 54, 110
7, 69886, Note_on_c, 9, 54, 0
7, 69888, Note_on_c, 9, 54, 110
7, 69982, Note_on_c, 9, 54, 0
7, 69984, Note_on_c, 9, 54, 110
7, 70078, Note_on_c, 9, 54, 0
7, 70080, Note_on_c, 9, 54, 110
7, 70174, Note_on_c, 9, 54, 0
7, 70176, Note_on_c, 9, 54, 110
7, 70270, Note_on_c, 9, 54, 0
7, 70272, Note_on_c, 9, 54, 110
7, 70366, Note_on_c, 9, 54, 0
7, 70368, Note_on_c, 9, 54, 110
7, 70462, Note_on_c, 9, 54, 0
7, 70464, Note_on_c, 9, 54, 110
7, 70558, Note_on_c, 9, 54, 0
7, 70560, Note_on_c, 9, 54, 110
7, 70654, Note_on_c, 9, 54, 0
7, 70656, Note_on_c, 9, 54, 110
7, 70750, Note_on_c, 9, 54, 0
7, 70752, Note_on_c, 9, 54, 110
7, 70846, Note_on_c, 9, 54, 0
7, 70848, Note_on_c, 9, 54, 110
7, 70942, Note_on_c, 9, 54, 0
7, 70944, Note_on_c, 9, 54, 110
7, 71038, Note_on_c, 9, 54, 0
7, 71040, Note_on_c, 9, 54, 110
7, 71134, Note_on_c, 9, 54, 0
7, 71136, Note_on_c, 9, 54, 110
7, 71230, Note_on_c, 9, 54, 0
7, 71232, Note_on_c, 9, 54, 110
7, 71326, Note_on_c, 9, 54, 0
7, 71328, Note_on_c, 9, 54, 110
7, 71422, Note_on_c, 9, 54, 0
7, 71424, Note_on_c, 9, 54, 110
7, 71518, Note_on_c, 9, 54, 0
7, 71520, Note_on_c, 9, 54, 110
7, 71614, Note_on_c, 9, 54, 0
7, 71616, Note_on_c, 9, 54, 110
7, 71710, Note_on_c, 9, 54, 0
7, 71712, Note_on_c, 9, 54, 110
7, 71806, Note_on_c, 9, 54, 0
7, 71808, Note_on_c, 9, 54, 110
7, 71902, Note_on_c, 9, 54, 0
7, 71904, Note_on_c, 9, 54, 110
7, 71998, Note_on_c, 9, 54, 0
7, 72000, Note_on_c, 9, 54, 110
7, 72094, Note_on_c, 9, 54, 0
7, 72096, Note_on_c, 9, 54, 110
7, 72190, Note_on_c, 9, 54, 0
7, 72192, Note_on_c, 9, 54, 110
7, 72286, Note_on_c, 9, 54, 0
7, 72288, Note_on_c, 9, 54, 110
7, 72382, Note_on_c, 9, 54, 0
7, 72384, Note_on_c, 9, 54, 110
7, 72478, Note_on_c, 9, 54, 0
7, 72480, Note_on_c, 9, 54, 110
7, 72574, Note_on_c, 9, 54, 0
7, 72576, Note_on_c, 9, 54, 110
7, 72670, Note_on_c, 9, 54, 0
7, 72672, Note_on_c, 9, 54, 110
7, 72766, Note_on_c, 9, 54, 0
7, 72768, Note_on_c, 9, 54, 110
7, 72862, Note_on_c, 9, 54, 0
7, 72864, Note_on_c, 9, 54, 110
7, 72958, Note_on_c, 9, 54, 0
7, 72960, Note_on_c, 9, 54, 110
7, 73054, Note_on_c, 9, 54, 0
7, 73056, Note_on_c, 9, 54, 110
7, 73150, Note_on_c, 9, 54, 0
7, 73152, Note_on_c, 9, 54, 110
7, 73246, Note_on_c, 9, 54, 0
7, 73248, Note_on_c, 9, 54, 110
7, 73342, Note_on_c, 9, 54, 0
7, 73344, Note_on_c, 9, 54, 110
7, 73438, Note_on_c, 9, 54, 0
7, 73440, Note_on_c, 9, 54, 110
7, 73534, Note_on_c, 9, 54, 0
7, 73536, Note_on_c, 9, 54, 110
7, 73630, Note_on_c, 9, 54, 0
7, 73632, Note_on_c, 9, 54, 110
7, 73726, Note_on_c, 9, 54, 0
7, 73728, Note_on_c, 9, 54, 110
7, 73822, Note_on_c, 9, 54, 0
7, 73824, Note_on_c, 9, 54, 110
7, 73918, Note_on_c, 9, 54, 0
7, 73920, Note_on_c, 9, 54, 110
7, 74014, Note_on_c, 9, 54, 0
7, 74016, Note_on_c, 9, 54, 110
7, 74110, Note_on_c, 9, 54, 0
7, 74112, Note_on_c, 9, 54, 110
7, 74206, Note_on_c, 9, 54, 0
7, 74208, Note_on_c, 9, 54, 110
7, 74302, Note_on_c, 9, 54, 0
7, 74304, Note_on_c, 9, 54, 110
7, 74398, Note_on_c, 9, 54, 0
7, 74400, Note_on_c, 9, 54, 110
7, 74494, Note_on_c, 9, 54, 0
7, 74496, Note_on_c, 9, 54, 110
7, 74590, Note_on_c, 9, 54, 0
7, 74592, Note_on_c, 9, 54, 110
7, 74686, Note_on_c, 9, 54, 0
7, 74688, Note_on_c, 9, 54, 110
7, 74782, Note_on_c, 9, 54, 0
7, 74784, Note_on_c, 9, 54, 110
7, 74878, Note_on_c, 9, 54, 0
7, 74880, Note_on_c, 9, 54, 110
7, 74974, Note_on_c, 9, 54, 0
7, 74976, Note_on_c, 9, 54, 110
7, 75070, Note_on_c, 9, 54, 0
7, 75072, Note_on_c, 9, 54, 110
7, 75166, Note_on_c, 9, 54, 0
7, 75168, Note_on_c, 9, 54, 110
7, 75262, Note_on_c, 9, 54, 0
7, 75264, Note_on_c, 9, 54, 110
7, 75358, Note_on_c, 9, 54, 0
7, 75360, Note_on_c, 9, 54, 110
7, 75454, Note_on_c, 9, 54, 0
7, 75456, Note_on_c, 9, 54, 110
7, 75550, Note_on_c, 9, 54, 0
7, 75552, Note_on_c, 9, 54, 110
7, 75646, Note_on_c, 9, 54, 0
7, 75648, Note_on_c, 9, 54, 110
7, 75742, Note_on_c, 9, 54, 0
7, 75744, Note_on_c, 9, 54, 110
7, 75838, Note_on_c, 9, 54, 0
7, 75840, Note_on_c, 9, 54, 110
7, 75934, Note_on_c, 9, 54, 0
7, 75936, Note_on_c, 9, 54, 110
7, 76030, Note_on_c, 9, 54, 0
7, 76032, Note_on_c, 9, 54, 110
7, 76126, Note_on_c, 9, 54, 0
7, 76128, Note_on_c, 9, 54, 110
7, 76222, Note_on_c, 9, 54, 0
7, 76224, Note_on_c, 9, 54, 110
7, 76318, Note_on_c, 9, 54, 0
7, 76320, Note_on_c, 9, 54, 110
7, 76414, Note_on_c, 9, 54, 0
7, 76416, Note_on_c, 9, 54, 110
7, 76510, Note_on_c, 9, 54, 0
7, 76512, Note_on_c, 9, 54, 110
7, 76606, Note_on_c, 9, 54, 0
7, 76608, Note_on_c, 9, 54, 110
7, 76702, Note_on_c, 9, 54, 0
7, 76704, Note_on_c, 9, 54, 110
7, 76798, Note_on_c, 9, 54, 0
7, 76800, Note_on_c, 9, 54, 110
7, 76894, Note_on_c, 9, 54, 0
7, 76896, Note_on_c, 9, 54, 110
7, 76990, Note_on_c, 9, 54, 0
7, 76992, Note_on_c, 9, 54, 110
7, 77086, Note_on_c, 9, 54, 0
7, 77088, Note_on_c, 9, 54, 110
7, 77182, Note_on_c, 9, 54, 0
7, 77184, Note_on_c, 9, 54, 110
7, 77278, Note_on_c, 9, 54, 0
7, 77280, Note_on_c, 9, 54, 110
7, 77374, Note_on_c, 9, 54, 0
7, 77376, Note_on_c, 9, 54, 110
7, 77470, Note_on_c, 9, 54, 0
7, 77472, Note_on_c, 9, 54, 110
7, 77566, Note_on_c, 9, 54, 0
7, 77568, Note_on_c, 9, 54, 110
7, 77662, Note_on_c, 9, 54, 0
7, 77664, Note_on_c, 9, 54, 110
7, 77758, Note_on_c, 9, 54, 0
7, 77760, Note_on_c, 9, 54, 110
7, 77854, Note_on_c, 9, 54, 0
7, 77856, Note_on_c, 9, 54, 110
7, 77950, Note_on_c, 9, 54, 0
7, 77952, Note_on_c, 9, 54, 110
7, 78046, Note_on_c, 9, 54, 0
7, 78048, Note_on_c, 9, 54, 110
7, 78142, Note_on_c, 9, 54, 0
7, 78144, Note_on_c, 9, 54, 110
7, 78238, Note_on_c, 9, 54, 0
7, 78240, Note_on_c, 9, 54, 110
7, 78334, Note_on_c, 9, 54, 0
7, 78336, Note_on_c, 9, 54, 110
7, 78430, Note_on_c, 9, 54, 0
7, 78432, Note_on_c, 9, 54, 110
7, 78526, Note_on_c, 9, 54, 0
7, 78528, Note_on_c, 9, 54, 110
7, 78622, Note_on_c, 9, 54, 0
7, 78624, Note_on_c, 9, 54, 110
7, 78718, Note_on_c, 9, 54, 0
7, 78720, Note_on_c, 9, 54, 110
7, 78814, Note_on_c, 9, 54, 0
7, 78816, Note_on_c, 9, 54, 110
7, 78910, Note_on_c, 9, 54, 0
7, 78912, Note_on_c, 9, 54, 110
7, 79006, Note_on_c, 9, 54, 0
7, 79008, Note_on_c, 9, 54, 110
7, 79102, Note_on_c, 9, 54, 0
7, 79104, Note_on_c, 9, 54, 110
7, 79198, Note_on_c, 9, 54, 0
7, 79200, Note_on_c, 9, 54, 110
7, 79294, Note_on_c, 9, 54, 0
7, 79296, Note_on_c, 9, 54, 110
7, 79390, Note_on_c, 9, 54, 0
7, 79392, Note_on_c, 9, 54, 110
7, 79486, Note_on_c, 9, 54, 0
7, 79488, Note_on_c, 9, 54, 110
7, 79582, Note_on_c, 9, 54, 0
7, 79584, Note_on_c, 9, 54, 110
7, 79678, Note_on_c, 9, 54, 0
7, 79680, Note_on_c, 9, 54, 110
7, 79774, Note_on_c, 9, 54, 0
7, 79776, Note_on_c, 9, 54, 110
7, 79870, Note_on_c, 9, 54, 0
7, 79872, Note_on_c, 9, 54, 110
7, 79966, Note_on_c, 9, 54, 0
7, 79968, Note_on_c, 9, 54, 110
7, 80062, Note_on_c, 9, 54, 0
7, 80064, Note_on_c, 9, 54, 110
7, 80158, Note_on_c, 9, 54, 0
7, 80160, Note_on_c, 9, 54, 110
7, 80254, Note_on_c, 9, 54, 0
7, 80256, Note_on_c, 9, 54, 110
7, 80350, Note_on_c, 9, 54, 0
7, 80352, Note_on_c, 9, 54, 110
7, 80446, Note_on_c, 9, 54, 0
7, 80448, Note_on_c, 9, 54, 110
7, 80542, Note_on_c, 9, 54, 0
7, 80544, Note_on_c, 9, 54, 110
7, 80638, Note_on_c, 9, 54, 0
7, 80640, Note_on_c, 9, 54, 110
7, 80734, Note_on_c, 9, 54, 0
7, 80736, Note_on_c, 9, 54, 110
7, 80830, Note_on_c, 9, 54, 0
7, 80832, Note_on_c, 9, 54, 110
7, 80926, Note_on_c, 9, 54, 0
7, 80928, Note_on_c, 9, 54, 110
7, 81022, Note_on_c, 9, 54, 0
7, 81024, Note_on_c, 9, 54, 110
7, 81118, Note_on_c, 9, 54, 0
7, 81120, Note_on_c, 9, 54, 110
7, 81214, Note_on_c, 9, 54, 0
7, 81216, Note_on_c, 9, 54, 110
7, 81310, Note_on_c, 9, 54, 0
7, 81312, Note_on_c, 9, 54, 110
7, 81406, Note_on_c, 9, 54, 0
7, 81408, Note_on_c, 9, 54, 110
7, 81502, Note_on_c, 9, 54, 0
7, 81504, Note_on_c, 9, 54, 110
7, 81598, Note_on_c, 9, 54, 0
7, 81600, Note_on_c, 9, 54, 110
7, 81694, Note_on_c, 9, 54, 0
7, 81696, Note_on_c, 9, 54, 110
7, 81790, Note_on_c, 9, 54, 0
7, 81792, Note_on_c, 9, 54, 110
7, 81886, Note_on_c, 9, 54, 0
7, 81888, Note_on_c, 9, 54, 110
7, 81982, Note_on_c, 9, 54, 0
7, 81984, Note_on_c, 9, 54, 110
7, 82078, Note_on_c, 9, 54, 0
7, 82080, Note_on_c, 9, 54, 110
7, 82174, Note_on_c, 9, 54, 0
7, 82176, Note_on_c, 9, 54, 110
7, 82270, Note_on_c, 9, 54, 0
7, 82272, Note_on_c, 9, 54, 110
7, 82366, Note_on_c, 9, 54, 0
7, 82368, Note_on_c, 9, 54, 110
7, 82462, Note_on_c, 9, 54, 0
7, 82464, Note_on_c, 9, 54, 110
7, 82558, Note_on_c, 9, 54, 0
7, 82560, Note_on_c, 9, 54, 110
7, 82654, Note_on_c, 9, 54, 0
7, 82656, Note_on_c, 9, 54, 110
7, 82750, Note_on_c, 9, 54, 0
7, 82752, Note_on_c, 9, 54, 110
7, 82846, Note_on_c, 9, 54, 0
7, 82848, Note_on_c, 9, 54, 110
7, 82942, Note_on_c, 9, 54, 0
7, 82944, Note_on_c, 9, 54, 110
7, 83038, Note_on_c, 9, 54, 0
7, 83040, Note_on_c, 9, 54, 110
7, 83134, Note_on_c, 9, 54, 0
7, 83136, Note_on_c, 9, 54, 110
7, 83230, Note_on_c, 9, 54, 0
7, 83232, Note_on_c, 9, 54, 110
7, 83326, Note_on_c, 9, 54, 0
7, 83328, Note_on_c, 9, 54, 110
7, 83422, Note_on_c, 9, 54, 0
7, 83424, Note_on_c, 9, 54, 110
7, 83518, Note_on_c, 9, 54, 0
7, 83520, Note_on_c, 9, 54, 110
7, 83614, Note_on_c, 9, 54, 0
7, 83616, Note_on_c, 9, 54, 110
7, 83710, Note_on_c, 9, 54, 0
7, 83712, Note_on_c, 9, 54, 110
7, 83806, Note_on_c, 9, 54, 0
7, 83808, Note_on_c, 9, 54, 110
7, 83902, Note_on_c, 9, 54, 0
7, 83904, Note_on_c, 9, 54, 110
7, 83998, Note_on_c, 9, 54, 0
7, 84000, Note_on_c, 9, 54, 110
7, 84094, Note_on_c, 9, 54, 0
7, 84096, Note_on_c, 9, 54, 110
7, 84190, Note_on_c, 9, 54, 0
7, 84192, Note_on_c, 9, 54, 110
7, 84286, Note_on_c, 9, 54, 0
7, 84288, Note_on_c, 9, 54, 110
7, 84382, Note_on_c, 9, 54, 0
7, 84384, Note_on_c, 9, 54, 110
7, 84478, Note_on_c, 9, 54, 0
7, 84480, Note_on_c, 9, 54, 110
7, 84574, Note_on_c, 9, 54, 0
7, 84576, Note_on_c, 9, 54, 110
7, 84670, Note_on_c, 9, 54, 0
7, 84672, Note_on_c, 9, 54, 110
7, 84766, Note_on_c, 9, 54, 0
7, 84768, Note_on_c, 9, 54, 110
7, 84862, Note_on_c, 9, 54, 0
7, 84864, Note_on_c, 9, 54, 110
7, 84958, Note_on_c, 9, 54, 0
7, 84960, Note_on_c, 9, 54, 110
7, 85054, Note_on_c, 9, 54, 0
7, 85056, Note_on_c, 9, 54, 110
7, 85150, Note_on_c, 9, 54, 0
7, 85152, Note_on_c, 9, 54, 110
7, 85246, Note_on_c, 9, 54, 0
7, 85248, Note_on_c, 9, 54, 110
7, 85342, Note_on_c, 9, 54, 0
7, 85344, Note_on_c, 9, 54, 110
7, 85438, Note_on_c, 9, 54, 0
7, 85440, Note_on_c, 9, 54, 110
7, 85534, Note_on_c, 9, 54, 0
7, 85536, Note_on_c, 9, 54, 110
7, 85630, Note_on_c, 9, 54, 0
7, 85632, Note_on_c, 9, 54, 110
7, 85726, Note_on_c, 9, 54, 0
7, 85728, Note_on_c, 9, 54, 110
7, 85822, Note_on_c, 9, 54, 0
7, 85824, Note_on_c, 9, 54, 110
7, 85918, Note_on_c, 9, 54, 0
7, 85920, Note_on_c, 9, 54, 110
7, 86014, Note_on_c, 9, 54, 0
7, 86016, Note_on_c, 9, 54, 110
7, 86110, Note_on_c, 9, 54, 0
7, 86112, Note_on_c, 9, 54, 110
7, 86206, Note_on_c, 9, 54, 0
7, 86208, Note_on_c, 9, 54, 110
7, 86302, Note_on_c, 9, 54, 0
7, 86304, Note_on_c, 9, 54, 110
7, 86398, Note_on_c, 9, 54, 0
7, 86400, Note_on_c, 9, 54, 110
7, 86494, Note_on_c, 9, 54, 0
7, 86496, Note_on_c, 9, 54, 110
7, 86590, Note_on_c, 9, 54, 0
7, 86592, Note_on_c, 9, 54, 110
7, 86686, Note_on_c, 9, 54, 0
7, 86688, Note_on_c, 9, 54, 110
7, 86782, Note_on_c, 9, 54, 0
7, 86784, Note_on_c, 9, 51, 110
7, 87504, Note_on_c, 9, 51, 0
7, 87504, End_track
8, 0, Start_track
8, 0, MIDI_port, 0
8, 0, Title_t, "Staff-6"
8, 0, Control_c, 9, 7, 124
8, 0, Control_c, 9, 10, 64
8, 768, Note_on_c, 9, 36, 110
8, 928, Note_on_c, 9, 36, 0
8, 960, Note_on_c, 9, 38, 110
8, 1120, Note_on_c, 9, 38, 0
8, 1152, Note_on_c, 9, 36, 110
8, 1312, Note_on_c, 9, 36, 0
8, 1344, Note_on_c, 9, 38, 110
8, 1504, Note_on_c, 9, 38, 0
8, 1536, Note_on_c, 9, 36, 110
8, 1696, Note_on_c, 9, 36, 0
8, 1728, Note_on_c, 9, 38, 110
8, 1888, Note_on_c, 9, 38, 0
8, 1920, Note_on_c, 9, 36, 110
8, 2080, Note_on_c, 9, 36, 0
8, 2112, Note_on_c, 9, 38, 110
8, 2272, Note_on_c, 9, 38, 0
8, 2304, Note_on_c, 9, 36, 110
8, 2464, Note_on_c, 9, 36, 0
8, 2496, Note_on_c, 9, 38, 110
8, 2656, Note_on_c, 9, 38, 0
8, 2688, Note_on_c, 9, 36, 110
8, 2848, Note_on_c, 9, 36, 0
8, 2880, Note_on_c, 9, 38, 110
8, 3040, Note_on_c, 9, 38, 0
8, 3072, Note_on_c, 9, 36, 110
8, 3232, Note_on_c, 9, 36, 0
8, 3264, Note_on_c, 9, 38, 110
8, 3424, Note_on_c, 9, 38, 0
8, 3456, Note_on_c, 9, 36, 110
8, 3616, Note_on_c, 9, 36, 0
8, 3648, Note_on_c, 9, 38, 110
8, 3808, Note_on_c, 9, 38, 0
8, 3840, Note_on_c, 9, 36, 110
8, 4000, Note_on_c, 9, 36, 0
8, 4032, Note_on_c, 9, 38, 110
8, 4192, Note_on_c, 9, 38, 0
8, 4224, Note_on_c, 9, 36, 110
8, 4384, Note_on_c, 9, 36, 0
8, 4416, Note_on_c, 9, 38, 110
8, 4576, Note_on_c, 9, 38, 0
8, 4608, Note_on_c, 9, 36, 110
8, 4768, Note_on_c, 9, 36, 0
8, 4800, Note_on_c, 9, 38, 110
8, 4960, Note_on_c, 9, 38, 0
8, 4992, Note_on_c, 9, 36, 110
8, 5152, Note_on_c, 9, 36, 0
8, 5184, Note_on_c, 9, 38, 110
8, 5344, Note_on_c, 9, 38, 0
8, 5376, Note_on_c, 9, 36, 110
8, 5536, Note_on_c, 9, 36, 0
8, 5568, Note_on_c, 9, 38, 110
8, 5728, Note_on_c, 9, 38, 0
8, 5760, Note_on_c, 9, 36, 110
8, 5920, Note_on_c, 9, 36, 0
8, 5952, Note_on_c, 9, 38, 110
8, 6112, Note_on_c, 9, 38, 0
8, 6144, Note_on_c, 9, 36, 110
8, 6304, Note_on_c, 9, 36, 0
8, 6336, Note_on_c, 9, 38, 110
8, 6496, Note_on_c, 9, 38, 0
8, 6528, Note_on_c, 9, 36, 110
8, 6688, Note_on_c, 9, 36, 0
8, 6720, Note_on_c, 9, 38, 110
8, 6880, Note_on_c, 9, 38, 0
8, 6912, Note_on_c, 9, 36, 110
8, 7072, Note_on_c, 9, 36, 0
8, 7104, Note_on_c, 9, 38, 110
8, 7264, Note_on_c, 9, 38, 0
8, 7296, Note_on_c, 9, 36, 110
8, 7456, Note_on_c, 9, 36, 0
8, 7488, Note_on_c, 9, 38, 110
8, 7648, Note_on_c, 9, 38, 0
8, 7680, Note_on_c, 9, 36, 110
8, 7840, Note_on_c, 9, 36, 0
8, 7872, Note_on_c, 9, 38, 110
8, 8032, Note_on_c, 9, 38, 0
8, 8064, Note_on_c, 9, 36, 110
8, 8224, Note_on_c, 9, 36, 0
8, 8256, Note_on_c, 9, 38, 110
8, 8416, Note_on_c, 9, 38, 0
8, 8448, Note_on_c, 9, 36, 110
8, 8608, Note_on_c, 9, 36, 0
8, 8640, Note_on_c, 9, 38, 110
8, 8800, Note_on_c, 9, 38, 0
8, 8832, Note_on_c, 9, 36, 110
8, 8992, Note_on_c, 9, 36, 0
8, 9024, Note_on_c, 9, 38, 110
8, 9184, Note_on_c, 9, 38, 0
8, 9216, Note_on_c, 9, 36, 110
8, 9376, Note_on_c, 9, 36, 0
8, 9408, Note_on_c, 9, 38, 110
8, 9568, Note_on_c, 9, 38, 0
8, 9600, Note_on_c, 9, 36, 110
8, 9760, Note_on_c, 9, 36, 0
8, 9792, Note_on_c, 9, 38, 110
8, 9952, Note_on_c, 9, 38, 0
8, 9984, Note_on_c, 9, 36, 110
8, 10144, Note_on_c, 9, 36, 0
8, 10176, Note_on_c, 9, 38, 110
8, 10336, Note_on_c, 9, 38, 0
8, 10368, Note_on_c, 9, 36, 110
8, 10528, Note_on_c, 9, 36, 0
8, 10560, Note_on_c, 9, 38, 110
8, 10720, Note_on_c, 9, 38, 0
8, 10752, Note_on_c, 9, 36, 110
8, 10912, Note_on_c, 9, 36, 0
8, 10944, Note_on_c, 9, 38, 110
8, 11104, Note_on_c, 9, 38, 0
8, 11136, Note_on_c, 9, 36, 110
8, 11296, Note_on_c, 9, 36, 0
8, 11328, Note_on_c, 9, 38, 110
8, 11488, Note_on_c, 9, 38, 0
8, 11520, Note_on_c, 9, 36, 110
8, 11680, Note_on_c, 9, 36, 0
8, 11712, Note_on_c, 9, 38, 110
8, 11872, Note_on_c, 9, 38, 0
8, 11904, Note_on_c, 9, 36, 110
8, 12064, Note_on_c, 9, 36, 0
8, 12096, Note_on_c, 9, 38, 110
8, 12256, Note_on_c, 9, 38, 0
8, 12288, Note_on_c, 9, 36, 110
8, 12448, Note_on_c, 9, 36, 0
8, 12480, Note_on_c, 9, 38, 110
8, 12640, Note_on_c, 9, 38, 0
8, 12672, Note_on_c, 9, 36, 110
8, 12832, Note_on_c, 9, 36, 0
8, 12864, Note_on_c, 9, 38, 110
8, 13024, Note_on_c, 9, 38, 0
8, 13056, Note_on_c, 9, 36, 110
8, 13216, Note_on_c, 9, 36, 0
8, 13248, Note_on_c, 9, 38, 110
8, 13408, Note_on_c, 9, 38, 0
8, 13440, Note_on_c, 9, 36, 110
8, 13600, Note_on_c, 9, 36, 0
8, 13632, Note_on_c, 9, 38, 110
8, 13792, Note_on_c, 9, 38, 0
8, 13824, Note_on_c, 9, 36, 110
8, 13984, Note_on_c, 9, 36, 0
8, 14016, Note_on_c, 9, 38, 110
8, 14176, Note_on_c, 9, 38, 0
8, 14208, Note_on_c, 9, 36, 110
8, 14368, Note_on_c, 9, 36, 0
8, 14400, Note_on_c, 9, 38, 110
8, 14560, Note_on_c, 9, 38, 0
8, 14592, Note_on_c, 9, 36, 110
8, 14752, Note_on_c, 9, 36, 0
8, 14784, Note_on_c, 9, 38, 110
8, 14944, Note_on_c, 9, 38, 0
8, 14976, Note_on_c, 9, 36, 110
8, 15136, Note_on_c, 9, 36, 0
8, 15168, Note_on_c, 9, 38, 110
8, 15328, Note_on_c, 9, 38, 0
8, 15360, Note_on_c, 9, 36, 110
8, 15520, Note_on_c, 9, 36, 0
8, 15552, Note_on_c, 9, 38, 110
8, 15712, Note_on_c, 9, 38, 0
8, 15744, Note_on_c, 9, 36, 110
8, 15904, Note_on_c, 9, 36, 0
8, 15936, Note_on_c, 9, 38, 110
8, 16096, Note_on_c, 9, 38, 0
8, 16128, Note_on_c, 9, 36, 110
8, 16288, Note_on_c, 9, 36, 0
8, 16320, Note_on_c, 9, 38, 110
8, 16480, Note_on_c, 9, 38, 0
8, 16512, Note_on_c, 9, 36, 110
8, 16672, Note_on_c, 9, 36, 0
8, 16704, Note_on_c, 9, 38, 110
8, 16864, Note_on_c, 9, 38, 0
8, 16896, Note_on_c, 9, 36, 110
8, 17056, Note_on_c, 9, 36, 0
8, 17088, Note_on_c, 9, 38, 110
8, 17248, Note_on_c, 9, 38, 0
8, 17280, Note_on_c, 9, 36, 110
8, 17440, Note_on_c, 9, 36, 0
8, 17472, Note_on_c, 9, 38, 110
8, 17632, Note_on_c, 9, 38, 0
8, 17664, Note_on_c, 9, 36, 110
8, 17824, Note_on_c, 9, 36, 0
8, 17856, Note_on_c, 9, 38, 110
8, 18016, Note_on_c, 9, 38, 0
8, 18048, Note_on_c, 9, 36, 110
8, 18208, Note_on_c, 9, 36, 0
8, 18240, Note_on_c, 9, 38, 110
8, 18400, Note_on_c, 9, 38, 0
8, 18432, Note_on_c, 9, 36, 110
8, 18592, Note_on_c, 9, 36, 0
8, 18624, Note_on_c, 9, 38, 110
8, 18784, Note_on_c, 9, 38, 0
8, 18816, Note_on_c, 9, 36, 110
8, 18976, Note_on_c, 9, 36, 0
8, 19008, Note_on_c, 9, 38, 110
8, 19168, Note_on_c, 9, 38, 0
8, 19200, Note_on_c, 9, 36, 110
8, 19360, Note_on_c, 9, 36, 0
8, 19392, Note_on_c, 9, 38, 110
8, 19552, Note_on_c, 9, 38, 0
8, 19584, Note_on_c, 9, 36, 110
8, 19744, Note_on_c, 9, 36, 0
8, 19776, Note_on_c, 9, 38, 110
8, 19936, Note_on_c, 9, 38, 0
8, 19968, Note_on_c, 9, 36, 110
8, 20128, Note_on_c, 9, 36, 0
8, 20160, Note_on_c, 9, 38, 110
8, 20320, Note_on_c, 9, 38, 0
8, 20352, Note_on_c, 9, 36, 110
8, 20512, Note_on_c, 9, 36, 0
8, 20544, Note_on_c, 9, 38, 110
8, 20704, Note_on_c, 9, 38, 0
8, 20736, Note_on_c, 9, 36, 110
8, 20896, Note_on_c, 9, 36, 0
8, 20928, Note_on_c, 9, 38, 110
8, 21088, Note_on_c, 9, 38, 0
8, 21120, Note_on_c, 9, 36, 110
8, 21280, Note_on_c, 9, 36, 0
8, 21312, Note_on_c, 9, 38, 110
8, 21472, Note_on_c, 9, 38, 0
8, 21504, Note_on_c, 9, 36, 110
8, 21664, Note_on_c, 9, 36, 0
8, 21696, Note_on_c, 9, 38, 110
8, 21856, Note_on_c, 9, 38, 0
8, 21888, Note_on_c, 9, 36, 110
8, 22048, Note_on_c, 9, 36, 0
8, 22080, Note_on_c, 9, 38, 110
8, 22240, Note_on_c, 9, 38, 0
8, 22272, Note_on_c, 9, 36, 110
8, 22432, Note_on_c, 9, 36, 0
8, 22464, Note_on_c, 9, 38, 110
8, 22624, Note_on_c, 9, 38, 0
8, 22656, Note_on_c, 9, 36, 110
8, 22816, Note_on_c, 9, 36, 0
8, 22848, Note_on_c, 9, 38, 110
8, 23008, Note_on_c, 9, 38, 0
8, 23040, Note_on_c, 9, 36, 110
8, 23200, Note_on_c, 9, 36, 0
8, 23232, Note_on_c, 9, 38, 110
8, 23392, Note_on_c, 9, 38, 0
8, 23424, Note_on_c, 9, 36, 110
8, 23584, Note_on_c, 9, 36, 0
8, 23616, Note_on_c, 9, 38, 110
8, 23776, Note_on_c, 9, 38, 0
8, 23808, Note_on_c, 9, 36, 110
8, 23968, Note_on_c, 9, 36, 0
8, 24000, Note_on_c, 9, 38, 110
8, 24160, Note_on_c, 9, 38, 0
8, 24192, Note_on_c, 9, 36, 110
8, 24352, Note_on_c, 9, 36, 0
8, 24384, Note_on_c, 9, 38, 110
8, 24544, Note_on_c, 9, 38, 0
8, 24576, Note_on_c, 9, 36, 110
8, 24736, Note_on_c, 9, 36, 0
8, 24768, Note_on_c, 9, 38, 110
8, 24928, Note_on_c, 9, 38, 0
8, 24960, Note_on_c, 9, 36, 110
8, 25120, Note_on_c, 9, 36, 0
8, 25152, Note_on_c, 9, 38, 110
8, 25312, Note_on_c, 9, 38, 0
8, 25344, Note_on_c, 9, 36, 110
8, 25504, Note_on_c, 9, 36, 0
8, 25536, Note_on_c, 9, 38, 110
8, 25696, Note_on_c, 9, 38, 0
8, 25728, Note_on_c, 9, 36, 110
8, 25888, Note_on_c, 9, 36, 0
8, 25920, Note_on_c, 9, 38, 110
8, 26080, Note_on_c, 9, 38, 0
8, 26112, Note_on_c, 9, 36, 110
8, 26272, Note_on_c, 9, 36, 0
8, 26304, Note_on_c, 9, 38, 110
8, 26464, Note_on_c, 9, 38, 0
8, 26496, Note_on_c, 9, 36, 110
8, 26656, Note_on_c, 9, 36, 0
8, 26688, Note_on_c, 9, 38, 110
8, 26848, Note_on_c, 9, 38, 0
8, 26880, Note_on_c, 9, 36, 110
8, 27040, Note_on_c, 9, 36, 0
8, 27072, Note_on_c, 9, 38, 110
8, 27232, Note_on_c, 9, 38, 0
8, 27264, Note_on_c, 9, 36, 110
8, 27424, Note_on_c, 9, 36, 0
8, 27456, Note_on_c, 9, 38, 110
8, 27616, Note_on_c, 9, 38, 0
8, 27648, Note_on_c, 9, 36, 110
8, 27808, Note_on_c, 9, 36, 0
8, 27840, Note_on_c, 9, 38, 110
8, 28000, Note_on_c, 9, 38, 0
8, 28032, Note_on_c, 9, 36, 110
8, 28192, Note_on_c, 9, 36, 0
8, 28224, Note_on_c, 9, 38, 110
8, 28384, Note_on_c, 9, 38, 0
8, 28416, Note_on_c, 9, 36, 110
8, 28576, Note_on_c, 9, 36, 0
8, 28608, Note_on_c, 9, 38, 110
8, 28768, Note_on_c, 9, 38, 0
8, 28800, Note_on_c, 9, 36, 110
8, 28960, Note_on_c, 9, 36, 0
8, 28992, Note_on_c, 9, 38, 110
8, 29152, Note_on_c, 9, 38, 0
8, 29184, Note_on_c, 9, 36, 110
8, 29344, Note_on_c, 9, 36, 0
8, 29376, Note_on_c, 9, 38, 110
8, 29536, Note_on_c, 9, 38, 0
8, 29568, Note_on_c, 9, 36, 110
8, 29728, Note_on_c, 9, 36, 0
8, 29760, Note_on_c, 9, 38, 110
8, 29920, Note_on_c, 9, 38, 0
8, 29952, Note_on_c, 9, 36, 110
8, 30112, Note_on_c, 9, 36, 0
8, 30144, Note_on_c, 9, 38, 110
8, 30304, Note_on_c, 9, 38, 0
8, 30336, Note_on_c, 9, 36, 110
8, 30496, Note_on_c, 9, 36, 0
8, 30528, Note_on_c, 9, 38, 110
8, 30688, Note_on_c, 9, 38, 0
8, 30720, Note_on_c, 9, 36, 110
8, 30880, Note_on_c, 9, 36, 0
8, 30912, Note_on_c, 9, 38, 110
8, 31072, Note_on_c, 9, 38, 0
8, 31104, Note_on_c, 9, 36, 110
8, 31264, Note_on_c, 9, 36, 0
8, 31296, Note_on_c, 9, 38, 110
8, 31456, Note_on_c, 9, 38, 0
8, 31488, Note_on_c, 9, 36, 110
8, 31648, Note_on_c, 9, 36, 0
8, 31680, Note_on_c, 9, 38, 110
8, 31840, Note_on_c, 9, 38, 0
8, 31872, Note_on_c, 9, 36, 110
8, 32032, Note_on_c, 9, 36, 0
8, 32064, Note_on_c, 9, 38, 110
8, 32224, Note_on_c, 9, 38, 0
8, 32256, Note_on_c, 9, 36, 110
8, 32416, Note_on_c, 9, 36, 0
8, 32448, Note_on_c, 9, 38, 110
8, 32608, Note_on_c, 9, 38, 0
8, 32640, Note_on_c, 9, 36, 110
8, 32800, Note_on_c, 9, 36, 0
8, 32832, Note_on_c, 9, 38, 110
8, 32992, Note_on_c, 9, 38, 0
8, 33024, Note_on_c, 9, 36, 110
8, 33184, Note_on_c, 9, 36, 0
8, 33216, Note_on_c, 9, 38, 110
8, 33376, Note_on_c, 9, 38, 0
8, 33408, Note_on_c, 9, 36, 110
8, 33568, Note_on_c, 9, 36, 0
8, 33600, Note_on_c, 9, 38, 110
8, 33760, Note_on_c, 9, 38, 0
8, 33792, Note_on_c, 9, 36, 110
8, 33952, Note_on_c, 9, 36, 0
8, 33984, Note_on_c, 9, 38, 110
8, 34144, Note_on_c, 9, 38, 0
8, 34176, Note_on_c, 9, 36, 110
8, 34336, Note_on_c, 9, 36, 0
8, 34368, Note_on_c, 9, 38, 110
8, 34528, Note_on_c, 9, 38, 0
8, 34560, Note_on_c, 9, 36, 110
8, 34720, Note_on_c, 9, 36, 0
8, 34752, Note_on_c, 9, 38, 110
8, 34912, Note_on_c, 9, 38, 0
8, 34944, Note_on_c, 9, 36, 110
8, 35104, Note_on_c, 9, 36, 0
8, 35136, Note_on_c, 9, 38, 110
8, 35296, Note_on_c, 9, 38, 0
8, 35328, Note_on_c, 9, 36, 110
8, 35488, Note_on_c, 9, 36, 0
8, 35520, Note_on_c, 9, 38, 110
8, 35680, Note_on_c, 9, 38, 0
8, 35712, Note_on_c, 9, 36, 110
8, 35872, Note_on_c, 9, 36, 0
8, 35904, Note_on_c, 9, 38, 110
8, 36064, Note_on_c, 9, 38, 0
8, 36096, Note_on_c, 9, 36, 110
8, 36256, Note_on_c, 9, 36, 0
8, 36288, Note_on_c, 9, 38, 110
8, 36448, Note_on_c, 9, 38, 0
8, 36480, Note_on_c, 9, 36, 110
8, 36640, Note_on_c, 9, 36, 0
8, 36672, Note_on_c, 9, 38, 110
8, 36832, Note_on_c, 9, 38, 0
8, 36864, Note_on_c, 9, 36, 110
8, 37024, Note_on_c, 9, 36, 0
8, 37056, Note_on_c, 9, 38, 110
8, 37216, Note_on_c, 9, 38, 0
8, 37248, Note_on_c, 9, 36, 110
8, 37408, Note_on_c, 9, 36, 0
8, 37440, Note_on_c, 9, 38, 110
8, 37600, Note_on_c, 9, 38, 0
8, 37632, Note_on_c, 9, 36, 110
8, 37792, Note_on_c, 9, 36, 0
8, 37824, Note_on_c, 9, 38, 110
8, 37984, Note_on_c, 9, 38, 0
8, 38016, Note_on_c, 9, 36, 110
8, 38176, Note_on_c, 9, 36, 0
8, 38208, Note_on_c, 9, 38, 110
8, 38368, Note_on_c, 9, 38, 0
8, 38400, Note_on_c, 9, 36, 110
8, 38560, Note_on_c, 9, 36, 0
8, 38592, Note_on_c, 9, 38, 110
8, 38752, Note_on_c, 9, 38, 0
8, 38784, Note_on_c, 9, 36, 110
8, 38944, Note_on_c, 9, 36, 0
8, 38976, Note_on_c, 9, 38, 110
8, 39136, Note_on_c, 9, 38, 0
8, 39168, Note_on_c, 9, 36, 110
8, 39328, Note_on_c, 9, 36, 0
8, 39360, Note_on_c, 9, 38, 110
8, 39520, Note_on_c, 9, 38, 0
8, 39552, Note_on_c, 9, 36, 110
8, 39712, Note_on_c, 9, 36, 0
8, 39744, Note_on_c, 9, 38, 110
8, 39904, Note_on_c, 9, 38, 0
8, 39936, Note_on_c, 9, 36, 110
8, 40096, Note_on_c, 9, 36, 0
8, 40128, Note_on_c, 9, 38, 110
8, 40288, Note_on_c, 9, 38, 0
8, 40320, Note_on_c, 9, 36, 110
8, 40480, Note_on_c, 9, 36, 0
8, 40512, Note_on_c, 9, 38, 110
8, 40672, Note_on_c, 9, 38, 0
8, 40704, Note_on_c, 9, 36, 110
8, 40864, Note_on_c, 9, 36, 0
8, 40896, Note_on_c, 9, 38, 110
8, 41056, Note_on_c, 9, 38, 0
8, 41088, Note_on_c, 9, 36, 110
8, 41248, Note_on_c, 9, 36, 0
8, 41280, Note_on_c, 9, 38, 110
8, 41440, Note_on_c, 9, 38, 0
8, 41472, Note_on_c, 9, 36, 110
8, 41632, Note_on_c, 9, 36, 0
8, 41664, Note_on_c, 9, 38, 110
8, 41824, Note_on_c, 9, 38, 0
8, 41856, Note_on_c, 9, 36, 110
8, 42016, Note_on_c, 9, 36, 0
8, 42048, Note_on_c, 9, 38, 110
8, 42208, Note_on_c, 9, 38, 0
8, 42240, Note_on_c, 9, 36, 110
8, 42400, Note_on_c, 9, 36, 0
8, 42432, Note_on_c, 9, 38, 110
8, 42592, Note_on_c, 9, 38, 0
8, 42624, Note_on_c, 9, 36, 110
8, 42784, Note_on_c, 9, 36, 0
8, 42816, Note_on_c, 9, 38, 110
8, 42976, Note_on_c, 9, 38, 0
8, 43008, Note_on_c, 9, 36, 110
8, 43168, Note_on_c, 9, 36, 0
8, 43200, Note_on_c, 9, 38, 110
8, 43360, Note_on_c, 9, 38, 0
8, 43392, Note_on_c, 9, 36, 110
8, 43552, Note_on_c, 9, 36, 0
8, 43584, Note_on_c, 9, 38, 110
8, 43744, Note_on_c, 9, 38, 0
8, 43776, Note_on_c, 9, 36, 110
8, 43936, Note_on_c, 9, 36, 0
8, 43968, Note_on_c, 9, 38, 110
8, 44128, Note_on_c, 9, 38, 0
8, 44160, Note_on_c, 9, 36, 110
8, 44320, Note_on_c, 9, 36, 0
8, 44352, Note_on_c, 9, 38, 110
8, 44512, Note_on_c, 9, 38, 0
8, 44544, Note_on_c, 9, 36, 110
8, 44704, Note_on_c, 9, 36, 0
8, 44736, Note_on_c, 9, 38, 110
8, 44896, Note_on_c, 9, 38, 0
8, 44928, Note_on_c, 9, 36, 110
8, 45088, Note_on_c, 9, 36, 0
8, 45120, Note_on_c, 9, 38, 110
8, 45280, Note_on_c, 9, 38, 0
8, 45312, Note_on_c, 9, 36, 110
8, 45472, Note_on_c, 9, 36, 0
8, 45504, Note_on_c, 9, 38, 110
8, 45664, Note_on_c, 9, 38, 0
8, 45696, Note_on_c, 9, 36, 110
8, 45856, Note_on_c, 9, 36, 0
8, 45888, Note_on_c, 9, 38, 110
8, 46048, Note_on_c, 9, 38, 0
8, 46080, Note_on_c, 9, 36, 110
8, 46240, Note_on_c, 9, 36, 0
8, 46272, Note_on_c, 9, 38, 110
8, 46432, Note_on_c, 9, 38, 0
8, 46464, Note_on_c, 9, 36, 110
8, 46624, Note_on_c, 9, 36, 0
8, 46656, Note_on_c, 9, 38, 110
8, 46816, Note_on_c, 9, 38, 0
8, 46848, Note_on_c, 9, 36, 110
8, 47008, Note_on_c, 9, 36, 0
8, 47040, Note_on_c, 9, 38, 110
8, 47200, Note_on_c, 9, 38, 0
8, 47232, Note_on_c, 9, 36, 110
8, 47392, Note_on_c, 9, 36, 0
8, 47424, Note_on_c, 9, 38, 110
8, 47584, Note_on_c, 9, 38, 0
8, 47616, Note_on_c, 9, 36, 110
8, 47776, Note_on_c, 9, 36, 0
8, 47808, Note_on_c, 9, 38, 110
8, 47968, Note_on_c, 9, 38, 0
8, 48000, Note_on_c, 9, 36, 110
8, 48160, Note_on_c, 9, 36, 0
8, 48192, Note_on_c, 9, 38, 110
8, 48352, Note_on_c, 9, 38, 0
8, 48384, Note_on_c, 9, 36, 110
8, 48544, Note_on_c, 9, 36, 0
8, 48576, Note_on_c, 9, 38, 110
8, 48736, Note_on_c, 9, 38, 0
8, 48768, Note_on_c, 9, 36, 110
8, 48928, Note_on_c, 9, 36, 0
8, 48960, Note_on_c, 9, 38, 110
8, 49120, Note_on_c, 9, 38, 0
8, 49152, Note_on_c, 9, 36, 110
8, 49312, Note_on_c, 9, 36, 0
8, 49344, Note_on_c, 9, 38, 110
8, 49504, Note_on_c, 9, 38, 0
8, 49536, Note_on_c, 9, 36, 110
8, 49696, Note_on_c, 9, 36, 0
8, 49728, Note_on_c, 9, 38, 110
8, 49888, Note_on_c, 9, 38, 0
8, 49920, Note_on_c, 9, 36, 110
8, 50080, Note_on_c, 9, 36, 0
8, 50112, Note_on_c, 9, 38, 110
8, 50272, Note_on_c, 9, 38, 0
8, 50304, Note_on_c, 9, 36, 110
8, 50464, Note_on_c, 9, 36, 0
8, 50496, Note_on_c, 9, 38, 110
8, 50656, Note_on_c, 9, 38, 0
8, 50688, Note_on_c, 9, 36, 110
8, 50848, Note_on_c, 9, 36, 0
8, 50880, Note_on_c, 9, 38, 110
8, 51040, Note_on_c, 9, 38, 0
8, 51072, Note_on_c, 9, 36, 110
8, 51232, Note_on_c, 9, 36, 0
8, 51264, Note_on_c, 9, 38, 110
8, 51424, Note_on_c, 9, 38, 0
8, 51456, Note_on_c, 9, 36, 110
8, 51616, Note_on_c, 9, 36, 0
8, 51648, Note_on_c, 9, 38, 110
8, 51808, Note_on_c, 9, 38, 0
8, 51840, Note_on_c, 9, 36, 110
8, 52000, Note_on_c, 9, 36, 0
8, 52032, Note_on_c, 9, 38, 110
8, 52192, Note_on_c, 9, 38, 0
8, 52224, Note_on_c, 9, 36, 110
8, 52384, Note_on_c, 9, 36, 0
8, 52416, Note_on_c, 9, 38, 110
8, 52576, Note_on_c, 9, 38, 0
8, 52608, Note_on_c, 9, 36, 110
8, 52768, Note_on_c, 9, 36, 0
8, 52800, Note_on_c, 9, 38, 110
8, 52960, Note_on_c, 9, 38, 0
8, 52992, Note_on_c, 9, 36, 110
8, 53152, Note_on_c, 9, 36, 0
8, 53184, Note_on_c, 9, 38, 110
8, 53344, Note_on_c, 9, 38, 0
8, 53376, Note_on_c, 9, 36, 110
8, 53536, Note_on_c, 9, 36, 0
8, 53568, Note_on_c, 9, 38, 110
8, 53728, Note_on_c, 9, 38, 0
8, 53760, Note_on_c, 9, 36, 110
8, 53920, Note_on_c, 9, 36, 0
8, 53952, Note_on_c, 9, 38, 110
8, 54112, Note_on_c, 9, 38, 0
8, 54144, Note_on_c, 9, 36, 110
8, 54304, Note_on_c, 9, 36, 0
8, 54336, Note_on_c, 9, 38, 110
8, 54496, Note_on_c, 9, 38, 0
8, 54528, Note_on_c, 9, 36, 110
8, 54688, Note_on_c, 9, 36, 0
8, 54720, Note_on_c, 9, 38, 110
8, 54880, Note_on_c, 9, 38, 0
8, 54912, Note_on_c, 9, 36, 110
8, 55072, Note_on_c, 9, 36, 0
8, 55104, Note_on_c, 9, 38, 110
8, 55264, Note_on_c, 9, 38, 0
8, 55296, Note_on_c, 9, 36, 110
8, 55456, Note_on_c, 9, 36, 0
8, 55488, Note_on_c, 9, 38, 110
8, 55648, Note_on_c, 9, 38, 0
8, 55680, Note_on_c, 9, 36, 110
8, 55840, Note_on_c, 9, 36, 0
8, 55872, Note_on_c, 9, 38, 110
8, 56032, Note_on_c, 9, 38, 0
8, 56064, Note_on_c, 9, 36, 110
8, 56224, Note_on_c, 9, 36, 0
8, 56256, Note_on_c, 9, 38, 110
8, 56416, Note_on_c, 9, 38, 0
8, 56448, Note_on_c, 9, 36, 110
8, 56608, Note_on_c, 9, 36, 0
8, 56640, Note_on_c, 9, 38, 110
8, 56800, Note_on_c, 9, 38, 0
8, 56832, Note_on_c, 9, 36, 110
8, 56992, Note_on_c, 9, 36, 0
8, 57024, Note_on_c, 9, 38, 110
8, 57184, Note_on_c, 9, 38, 0
8, 57216, Note_on_c, 9, 36, 110
8, 57376, Note_on_c, 9, 36, 0
8, 57408, Note_on_c, 9, 38, 110
8, 57568, Note_on_c, 9, 38, 0
8, 57600, Note_on_c, 9, 36, 110
8, 57760, Note_on_c, 9, 36, 0
8, 57792, Note_on_c, 9, 38, 110
8, 57952, Note_on_c, 9, 38, 0
8, 57984, Note_on_c, 9, 36, 110
8, 58144, Note_on_c, 9, 36, 0
8, 58176, Note_on_c, 9, 38, 110
8, 58336, Note_on_c, 9, 38, 0
8, 58368, Note_on_c, 9, 36, 110
8, 58528, Note_on_c, 9, 36, 0
8, 58560, Note_on_c, 9, 38, 110
8, 58720, Note_on_c, 9, 38, 0
8, 58752, Note_on_c, 9, 36, 110
8, 58912, Note_on_c, 9, 36, 0
8, 58944, Note_on_c, 9, 38, 110
8, 59104, Note_on_c, 9, 38, 0
8, 59136, Note_on_c, 9, 36, 110
8, 59296, Note_on_c, 9, 36, 0
8, 59328, Note_on_c, 9, 38, 110
8, 59488, Note_on_c, 9, 38, 0
8, 59520, Note_on_c, 9, 36, 110
8, 59680, Note_on_c, 9, 36, 0
8, 59712, Note_on_c, 9, 38, 110
8, 59872, Note_on_c, 9, 38, 0
8, 59904, Note_on_c, 9, 36, 110
8, 60064, Note_on_c, 9, 36, 0
8, 60096, Note_on_c, 9, 38, 110
8, 60256, Note_on_c, 9, 38, 0
8, 60288, Note_on_c, 9, 36, 110
8, 60448, Note_on_c, 9, 36, 0
8, 60480, Note_on_c, 9, 38, 110
8, 60640, Note_on_c, 9, 38, 0
8, 60672, Note_on_c, 9, 36, 110
8, 60832, Note_on_c, 9, 36, 0
8, 60864, Note_on_c, 9, 38, 110
8, 61024, Note_on_c, 9, 38, 0
8, 61056, Note_on_c, 9, 36, 110
8, 61216, Note_on_c, 9, 36, 0
8, 61248, Note_on_c, 9, 38, 110
8, 61408, Note_on_c, 9, 38, 0
8, 61440, Note_on_c, 9, 36, 110
8, 61600, Note_on_c, 9, 36, 0
8, 61632, Note_on_c, 9, 38, 110
8, 61792, Note_on_c, 9, 38, 0
8, 61824, Note_on_c, 9, 36, 110
8, 61984, Note_on_c, 9, 36, 0
8, 62016, Note_on_c, 9, 38, 110
8, 62176, Note_on_c, 9, 38, 0
8, 62208, Note_on_c, 9, 36, 110
8, 62368, Note_on_c, 9, 36, 0
8, 62400, Note_on_c, 9, 38, 110
8, 62560, Note_on_c, 9, 38, 0
8, 62592, Note_on_c, 9, 36, 110
8, 62752, Note_on_c, 9, 36, 0
8, 62784, Note_on_c, 9, 38, 110
8, 62944, Note_on_c, 9, 38, 0
8, 62976, Note_on_c, 9, 36, 110
8, 63136, Note_on_c, 9, 36, 0
8, 63168, Note_on_c, 9, 38, 110
8, 63328, Note_on_c, 9, 38, 0
8, 63360, Note_on_c, 9, 36, 110
8, 63520, Note_on_c, 9, 36, 0
8, 63552, Note_on_c, 9, 38, 110
8, 63712, Note_on_c, 9, 38, 0
8, 63744, Note_on_c, 9, 36, 110
8, 63904, Note_on_c, 9, 36, 0
8, 63936, Note_on_c, 9, 38, 110
8, 64096, Note_on_c, 9, 38, 0
8, 64128, Note_on_c, 9, 36, 110
8, 64288, Note_on_c, 9, 36, 0
8, 64320, Note_on_c, 9, 38, 110
8, 64480, Note_on_c, 9, 38, 0
8, 64512, Note_on_c, 9, 36, 110
8, 64672, Note_on_c, 9, 36, 0
8, 64704, Note_on_c, 9, 38, 110
8, 64864, Note_on_c, 9, 38, 0
8, 64896, Note_on_c, 9, 36, 110
8, 65056, Note_on_c, 9, 36, 0
8, 65088, Note_on_c, 9, 38, 110
8, 65248, Note_on_c, 9, 38, 0
8, 65280, Note_on_c, 9, 36, 110
8, 65440, Note_on_c, 9, 36, 0
8, 65472, Note_on_c, 9, 38, 110
8, 65632, Note_on_c, 9, 38, 0
8, 65664, Note_on_c, 9, 36, 110
8, 65824, Note_on_c, 9, 36, 0
8, 65856, Note_on_c, 9, 38, 110
8, 66016, Note_on_c, 9, 38, 0
8, 66048, Note_on_c, 9, 36, 110
8, 66208, Note_on_c, 9, 36, 0
8, 66240, Note_on_c, 9, 38, 110
8, 66400, Note_on_c, 9, 38, 0
8, 66432, Note_on_c, 9, 36, 110
8, 66592, Note_on_c, 9, 36, 0
8, 66624, Note_on_c, 9, 38, 110
8, 66784, Note_on_c, 9, 38, 0
8, 66816, Note_on_c, 9, 36, 110
8, 66976, Note_on_c, 9, 36, 0
8, 67008, Note_on_c, 9, 38, 110
8, 67168, Note_on_c, 9, 38, 0
8, 67200, Note_on_c, 9, 36, 110
8, 67360, Note_on_c, 9, 36, 0
8, 67392, Note_on_c, 9, 38, 110
8, 67552, Note_on_c, 9, 38, 0
8, 67584, Note_on_c, 9, 36, 110
8, 67744, Note_on_c, 9, 36, 0
8, 67776, Note_on_c, 9, 38, 110
8, 67936, Note_on_c, 9, 38, 0
8, 67968, Note_on_c, 9, 36, 110
8, 68128, Note_on_c, 9, 36, 0
8, 68160, Note_on_c, 9, 38, 110
8, 68320, Note_on_c, 9, 38, 0
8, 68352, Note_on_c, 9, 36, 110
8, 68512, Note_on_c, 9, 36, 0
8, 68544, Note_on_c, 9, 38, 110
8, 68704, Note_on_c, 9, 38, 0
8, 68736, Note_on_c, 9, 36, 110
8, 68896, Note_on_c, 9, 36, 0
8, 68928, Note_on_c, 9, 38, 110
8, 69088, Note_on_c, 9, 38, 0
8, 69120, Note_on_c, 9, 36, 110
8, 69280, Note_on_c, 9, 36, 0
8, 69312, Note_on_c, 9, 38, 110
8, 69472, Note_on_c, 9, 38, 0
8, 69504, Note_on_c, 9, 36, 110
8, 69664, Note_on_c, 9, 36, 0
8, 69696, Note_on_c, 9, 38, 110
8, 69856, Note_on_c, 9, 38, 0
8, 69888, Note_on_c, 9, 36, 110
8, 70048, Note_on_c, 9, 36, 0
8, 70080, Note_on_c, 9, 38, 110
8, 70240, Note_on_c, 9, 38, 0
8, 70272, Note_on_c, 9, 36, 110
8, 70432, Note_on_c, 9, 36, 0
8, 70464, Note_on_c, 9, 38, 110
8, 70624, Note_on_c, 9, 38, 0
8, 70656, Note_on_c, 9, 36, 110
8, 70816, Note_on_c, 9, 36, 0
8, 70848, Note_on_c, 9, 38, 110
8, 71008, Note_on_c, 9, 38, 0
8, 71040, Note_on_c, 9, 36, 110
8, 71200, Note_on_c, 9, 36, 0
8, 71232, Note_on_c, 9, 38, 110
8, 71392, Note_on_c, 9, 38, 0
8, 71424, Note_on_c, 9, 36, 110
8, 71584, Note_on_c, 9, 36, 0
8, 71616, Note_on_c, 9, 38, 110
8, 71776, Note_on_c, 9, 38, 0
8, 71808, Note_on_c, 9, 36, 110
8, 71968, Note_on_c, 9, 36, 0
8, 72000, Note_on_c, 9, 38, 110
8, 72160, Note_on_c, 9, 38, 0
8, 72192, Note_on_c, 9, 36, 110
8, 72352, Note_on_c, 9, 36, 0
8, 72384, Note_on_c, 9, 38, 110
8, 72544, Note_on_c, 9, 38, 0
8, 72576, Note_on_c, 9, 36, 110
8, 72736, Note_on_c, 9, 36, 0
8, 72768, Note_on_c, 9, 38, 110
8, 72928, Note_on_c, 9, 38, 0
8, 72960, Note_on_c, 9, 36, 110
8, 73120, Note_on_c, 9, 36, 0
8, 73152, Note_on_c, 9, 38, 110
8, 73312, Note_on_c, 9, 38, 0
8, 73344, Note_on_c, 9, 36, 110
8, 73504, Note_on_c, 9, 36, 0
8, 73536, Note_on_c, 9, 38, 110
8, 73696, Note_on_c, 9, 38, 0
8, 73728, Note_on_c, 9, 36, 110
8, 73888, Note_on_c, 9, 36, 0
8, 73920, Note_on_c, 9, 38, 110
8, 74080, Note_on_c, 9, 38, 0
8, 74112, Note_on_c, 9, 36, 110
8, 74272, Note_on_c, 9, 36, 0
8, 74304, Note_on_c, 9, 38, 110
8, 74464, Note_on_c, 9, 38, 0
8, 74496, Note_on_c, 9, 36, 110
8, 74656, Note_on_c, 9, 36, 0
8, 74688, Note_on_c, 9, 38, 110
8, 74848, Note_on_c, 9, 38, 0
8, 74880, Note_on_c, 9, 36, 110
8, 75040, Note_on_c, 9, 36, 0
8, 75072, Note_on_c, 9, 38, 110
8, 75232, Note_on_c, 9, 38, 0
8, 75264, Note_on_c, 9, 36, 110
8, 75424, Note_on_c, 9, 36, 0
8, 75456, Note_on_c, 9, 38, 110
8, 75616, Note_on_c, 9, 38, 0
8, 75648, Note_on_c, 9, 36, 110
8, 75808, Note_on_c, 9, 36, 0
8, 75840, Note_on_c, 9, 38, 110
8, 76000, Note_on_c, 9, 38, 0
8, 76032, Note_on_c, 9, 36, 110
8, 76192, Note_on_c, 9, 36, 0
8, 76224, Note_on_c, 9, 38, 110
8, 76384, Note_on_c, 9, 38, 0
8, 76416, Note_on_c, 9, 36, 110
8, 76576, Note_on_c, 9, 36, 0
8, 76608, Note_on_c, 9, 38, 110
8, 76768, Note_on_c, 9, 38, 0
8, 76800, Note_on_c, 9, 36, 110
8, 76960, Note_on_c, 9, 36, 0
8, 76992, Note_on_c, 9, 38, 110
8, 77152, Note_on_c, 9, 38, 0
8, 77184, Note_on_c, 9, 36, 110
8, 77344, Note_on_c, 9, 36, 0
8, 77376, Note_on_c, 9, 38, 110
8, 77536, Note_on_c, 9, 38, 0
8, 77568, Note_on_c, 9, 36, 110
8, 77728, Note_on_c, 9, 36, 0
8, 77760, Note_on_c, 9, 38, 110
8, 77920, Note_on_c, 9, 38, 0
8, 77952, Note_on_c, 9, 36, 110
8, 78112, Note_on_c, 9, 36, 0
8, 78144, Note_on_c, 9, 38, 110
8, 78304, Note_on_c, 9, 38, 0
8, 78336, Note_on_c, 9, 36, 110
8, 78496, Note_on_c, 9, 36, 0
8, 78528, Note_on_c, 9, 38, 110
8, 78688, Note_on_c, 9, 38, 0
8, 78720, Note_on_c, 9, 36, 110
8, 78880, Note_on_c, 9, 36, 0
8, 78912, Note_on_c, 9, 38, 110
8, 79072, Note_on_c, 9, 38, 0
8, 79104, Note_on_c, 9, 36, 110
8, 79264, Note_on_c, 9, 36, 0
8, 79296, Note_on_c, 9, 38, 110
8, 79456, Note_on_c, 9, 38, 0
8, 79488, Note_on_c, 9, 36, 110
8, 79648, Note_on_c, 9, 36, 0
8, 79680, Note_on_c, 9, 38, 110
8, 79840, Note_on_c, 9, 38, 0
8, 79872, Note_on_c, 9, 36, 110
8, 80032, Note_on_c, 9, 36, 0
8, 80064, Note_on_c, 9, 38, 110
8, 80224, Note_on_c, 9, 38, 0
8, 80256, Note_on_c, 9, 36, 110
8, 80416, Note_on_c, 9, 36, 0
8, 80448, Note_on_c, 9, 38, 110
8, 80608, Note_on_c, 9, 38, 0
8, 80640, Note_on_c, 9, 36, 110
8, 80800, Note_on_c, 9, 36, 0
8, 80832, Note_on_c, 9, 38, 110
8, 80992, Note_on_c, 9, 38, 0
8, 81024, Note_on_c, 9, 36, 110
8, 81184, Note_on_c, 9, 36, 0
8, 81216, Note_on_c, 9, 38, 110
8, 81376, Note_on_c, 9, 38, 0
8, 81408, Note_on_c, 9, 36, 110
8, 81568, Note_on_c, 9, 36, 0
8, 81600, Note_on_c, 9, 38, 110
8, 81760, Note_on_c, 9, 38, 0
8, 81792, Note_on_c, 9, 36, 110
8, 81952, Note_on_c, 9, 36, 0
8, 81984, Note_on_c, 9, 38, 110
8, 82144, Note_on_c, 9, 38, 0
8, 82176, Note_on_c, 9, 36, 110
8, 82336, Note_on_c, 9, 36, 0
8, 82368, Note_on_c, 9, 38, 110
8, 82528, Note_on_c, 9, 38, 0
8, 82560, Note_on_c, 9, 36, 110
8, 82720, Note_on_c, 9, 36, 0
8, 82752, Note_on_c, 9, 38, 110
8, 82912, Note_on_c, 9, 38, 0
8, 82944, Note_on_c, 9, 36, 110
8, 83104, Note_on_c, 9, 36, 0
8, 83136, Note_on_c, 9, 38, 110
8, 83296, Note_on_c, 9, 38, 0
8, 83328, Note_on_c, 9, 36, 110
8, 83488, Note_on_c, 9, 36, 0
8, 83520, Note_on_c, 9, 38, 110
8, 83680, Note_on_c, 9, 38, 0
8, 83712, Note_on_c, 9, 36, 110
8, 83872, Note_on_c, 9, 36, 0
8, 83904, Note_on_c, 9, 38, 110
8, 84064, Note_on_c, 9, 38, 0
8, 84096, Note_on_c, 9, 36, 110
8, 84256, Note_on_c, 9, 36, 0
8, 84288, Note_on_c, 9, 38, 110
8, 84448, Note_on_c, 9, 38, 0
8, 84480, Note_on_c, 9, 36, 110
8, 84640, Note_on_c, 9, 36, 0
8, 84672, Note_on_c, 9, 38, 110
8, 84832, Note_on_c, 9, 38, 0
8, 84864, Note_on_c, 9, 36, 110
8, 85024, Note_on_c, 9, 36, 0
8, 85056, Note_on_c, 9, 38, 110
8, 85216, Note_on_c, 9, 38, 0
8, 85248, Note_on_c, 9, 36, 110
8, 85408, Note_on_c, 9, 36, 0
8, 85440, Note_on_c, 9, 38, 110
8, 85600, Note_on_c, 9, 38, 0
8, 85632, Note_on_c, 9, 36, 110
8, 85792, Note_on_c, 9, 36, 0
8, 85824, Note_on_c, 9, 38, 110
8, 85984, Note_on_c, 9, 38, 0
8, 86016, Note_on_c, 9, 36, 110
8, 86176, Note_on_c, 9, 36, 0
8, 86208, Note_on_c, 9, 38, 110
8, 86368, Note_on_c, 9, 38, 0
8, 86400, Note_on_c, 9, 36, 110
8, 86560, Note_on_c, 9, 36, 0
8, 86592, Note_on_c, 9, 38, 110
8, 86752, Note_on_c, 9, 38, 0
8, 86752, End_track
9, 0, Start_track
9, 0, MIDI_port, 0
9, 0, Title_t, "Staff-7"
9, 0, Program_c, 10, 89
9, 0, Control_c, 10, 7, 99
9, 0, Control_c, 10, 10, 82
9, 6912, Note_on_c, 10, 57, 110
9, 7104, Note_on_c, 10, 57, 0
9, 7104, Note_on_c, 10, 64, 110
9, 7104, Note_on_c, 10, 69, 110
9, 7104, Note_on_c, 10, 73, 110
9, 7264, Note_on_c, 10, 64, 0
9, 7264, Note_on_c, 10, 69, 0
9, 7264, Note_on_c, 10, 73, 0
9, 7296, Note_on_c, 10, 57, 110
9, 7488, Note_on_c, 10, 57, 0
9, 7488, Note_on_c, 10, 57, 110
9, 7488, Note_on_c, 10, 64, 110
9, 7488, Note_on_c, 10, 69, 110
9, 7488, Note_on_c, 10, 73, 110
9, 7648, Note_on_c, 10, 57, 0
9, 7648, Note_on_c, 10, 64, 0
9, 7648, Note_on_c, 10, 69, 0
9, 7648, Note_on_c, 10, 73, 0
9, 7680, Note_on_c, 10, 62, 110
9, 7872, Note_on_c, 10, 62, 0
9, 7872, Note_on_c, 10, 69, 110
9, 7872, Note_on_c, 10, 74, 110
9, 7872, Note_on_c, 10, 78, 110
9, 8032, Note_on_c, 10, 69, 0
9, 8032, Note_on_c, 10, 74, 0
9, 8032, Note_on_c, 10, 78, 0
9, 8064, Note_on_c, 10, 62, 110
9, 8256, Note_on_c, 10, 62, 0
9, 8256, Note_on_c, 10, 62, 110
9, 8256, Note_on_c, 10, 69, 110
9, 8256, Note_on_c, 10, 74, 110
9, 8256, Note_on_c, 10, 78, 110
9, 8416, Note_on_c, 10, 62, 0
9, 8416, Note_on_c, 10, 69, 0
9, 8416, Note_on_c, 10, 74, 0
9, 8416, Note_on_c, 10, 78, 0
9, 8448, Note_on_c, 10, 57, 110
9, 8640, Note_on_c, 10, 57, 0
9, 8640, Note_on_c, 10, 64, 110
9, 8640, Note_on_c, 10, 69, 110
9, 8640, Note_on_c, 10, 73, 110
9, 8800, Note_on_c, 10, 64, 0
9, 8800, Note_on_c, 10, 69, 0
9, 8800, Note_on_c, 10, 73, 0
9, 8832, Note_on_c, 10, 57, 110
9, 9024, Note_on_c, 10, 57, 0
9, 9024, Note_on_c, 10, 57, 110
9, 9024, Note_on_c, 10, 64, 110
9, 9024, Note_on_c, 10, 69, 110
9, 9024, Note_on_c, 10, 73, 110
9, 9184, Note_on_c, 10, 57, 0
9, 9184, Note_on_c, 10, 64, 0
9, 9184, Note_on_c, 10, 69, 0
9, 9184, Note_on_c, 10, 73, 0
9, 9216, Note_on_c, 10, 62, 110
9, 9408, Note_on_c, 10, 62, 0
9, 9408, Note_on_c, 10, 69, 110
9, 9408, Note_on_c, 10, 74, 110
9, 9408, Note_on_c, 10, 78, 110
9, 9568, Note_on_c, 10, 69, 0
9, 9568, Note_on_c, 10, 74, 0
9, 9568, Note_on_c, 10, 78, 0
9, 9600, Note_on_c, 10, 62, 110
9, 9792, Note_on_c, 10, 62, 0
9, 9792, Note_on_c, 10, 62, 110
9, 9792, Note_on_c, 10, 69, 110
9, 9792, Note_on_c, 10, 74, 110
9, 9792, Note_on_c, 10, 78, 110
9, 9952, Note_on_c, 10, 62, 0
9, 9952, Note_on_c, 10, 69, 0
9, 9952, Note_on_c, 10, 74, 0
9, 9952, Note_on_c, 10, 78, 0
9, 9984, Note_on_c, 10, 57, 110
9, 10176, Note_on_c, 10, 57, 0
9, 10176, Note_on_c, 10, 64, 110
9, 10176, Note_on_c, 10, 69, 110
9, 10176, Note_on_c, 10, 73, 110
9, 10336, Note_on_c, 10, 64, 0
9, 10336, Note_on_c, 10, 69, 0
9, 10336, Note_on_c, 10, 73, 0
9, 10368, Note_on_c, 10, 57, 110
9, 10560, Note_on_c, 10, 57, 0
9, 10560, Note_on_c, 10, 57, 110
9, 10560, Note_on_c, 10, 64, 110
9, 10560, Note_on_c, 10, 69, 110
9, 10560, Note_on_c, 10, 73, 110
9, 10720, Note_on_c, 10, 57, 0
9, 10720, Note_on_c, 10, 64, 0
9, 10720, Note_on_c, 10, 69, 0
9, 10720, Note_on_c, 10, 73, 0
9, 10752, Note_on_c, 10, 62, 110
9, 10944, Note_on_c, 10, 62, 0
9, 10944, Note_on_c, 10, 69, 110
9, 10944, Note_on_c, 10, 74, 110
9, 10944, Note_on_c, 10, 78, 110
9, 11104, Note_on_c, 10, 69, 0
9, 11104, Note_on_c, 10, 74, 0
9, 11104, Note_on_c, 10, 78, 0
9, 11136, Note_on_c, 10, 62, 110
9, 11328, Note_on_c, 10, 62, 0
9, 11328, Note_on_c, 10, 62, 110
9, 11328, Note_on_c, 10, 69, 110
9, 11328, Note_on_c, 10, 74, 110
9, 11328, Note_on_c, 10, 78, 110
9, 11488, Note_on_c, 10, 62, 0
9, 11488, Note_on_c, 10, 69, 0
9, 11488, Note_on_c, 10, 74, 0
9, 11488, Note_on_c, 10, 78, 0
9, 11520, Note_on_c, 10, 52, 110
9, 11712, Note_on_c, 10, 64, 110
9, 11712, Note_on_c, 10, 68, 110
9, 11712, Note_on_c, 10, 71, 110
9, 11872, Note_on_c, 10, 64, 0
9, 11872, Note_on_c, 10, 68, 0
9, 11872, Note_on_c, 10, 71, 0
9, 12096, Note_on_c, 10, 64, 110
9, 12096, Note_on_c, 10, 68, 110
9, 12096, Note_on_c, 10, 71, 110
9, 12256, Note_on_c, 10, 64, 0
9, 12256, Note_on_c, 10, 68, 0
9, 12256, Note_on_c, 10, 71, 0
9, 12480, Note_on_c, 10, 64, 110
9, 12480, Note_on_c, 10, 68, 110
9, 12480, Note_on_c, 10, 71, 110
9, 12640, Note_on_c, 10, 64, 0
9, 12640, Note_on_c, 10, 68, 0
9, 12640, Note_on_c, 10, 71, 0
9, 12864, Note_on_c, 10, 64, 110
9, 12864, Note_on_c, 10, 68, 110
9, 12864, Note_on_c, 10, 71, 110
9, 13024, Note_on_c, 10, 64, 0
9, 13024, Note_on_c, 10, 68, 0
9, 13024, Note_on_c, 10, 71, 0
9, 13056, Note_on_c, 10, 57, 110
9, 13248, Note_on_c, 10, 57, 0
9, 13248, Note_on_c, 10, 64, 110
9, 13248, Note_on_c, 10, 69, 110
9, 13248, Note_on_c, 10, 73, 110
9, 13408, Note_on_c, 10, 64, 0
9, 13408, Note_on_c, 10, 69, 0
9, 13408, Note_on_c, 10, 73, 0
9, 13440, Note_on_c, 10, 57, 110
9, 13632, Note_on_c, 10, 57, 0
9, 13632, Note_on_c, 10, 57, 110
9, 13632, Note_on_c, 10, 64, 110
9, 13632, Note_on_c, 10, 69, 110
9, 13632, Note_on_c, 10, 73, 110
9, 13792, Note_on_c, 10, 57, 0
9, 13792, Note_on_c, 10, 64, 0
9, 13792, Note_on_c, 10, 69, 0
9, 13792, Note_on_c, 10, 73, 0
9, 13824, Note_on_c, 10, 62, 110
9, 14016, Note_on_c, 10, 62, 0
9, 14016, Note_on_c, 10, 69, 110
9, 14016, Note_on_c, 10, 74, 110
9, 14016, Note_on_c, 10, 78, 110
9, 14176, Note_on_c, 10, 69, 0
9, 14176, Note_on_c, 10, 74, 0
9, 14176, Note_on_c, 10, 78, 0
9, 14208, Note_on_c, 10, 62, 110
9, 14400, Note_on_c, 10, 62, 0
9, 14400, Note_on_c, 10, 62, 110
9, 14400, Note_on_c, 10, 69, 110
9, 14400, Note_on_c, 10, 74, 110
9, 14400, Note_on_c, 10, 78, 110
9, 14560, Note_on_c, 10, 62, 0
9, 14560, Note_on_c, 10, 69, 0
9, 14560, Note_on_c, 10, 74, 0
9, 14560, Note_on_c, 10, 78, 0
9, 14592, Note_on_c, 10, 57, 110
9, 14784, Note_on_c, 10, 57, 0
9, 14784, Note_on_c, 10, 64, 110
9, 14784, Note_on_c, 10, 69, 110
9, 14784, Note_on_c, 10, 73, 110
9, 14944, Note_on_c, 10, 64, 0
9, 14944, Note_on_c, 10, 69, 0
9, 14944, Note_on_c, 10, 73, 0
9, 14976, Note_on_c, 10, 57, 110
9, 15168, Note_on_c, 10, 57, 0
9, 15168, Note_on_c, 10, 57, 110
9, 15168, Note_on_c, 10, 64, 110
9, 15168, Note_on_c, 10, 69, 110
9, 15168, Note_on_c, 10, 73, 110
9, 15328, Note_on_c, 10, 57, 0
9, 15328, Note_on_c, 10, 64, 0
9, 15328, Note_on_c, 10, 69, 0
9, 15328, Note_on_c, 10, 73, 0
9, 15360, Note_on_c, 10, 62, 110
9, 15552, Note_on_c, 10, 62, 0
9, 15552, Note_on_c, 10, 69, 110
9, 15552, Note_on_c, 10, 74, 110
9, 15552, Note_on_c, 10, 78, 110
9, 15712, Note_on_c, 10, 69, 0
9, 15712, Note_on_c, 10, 74, 0
9, 15712, Note_on_c, 10, 78, 0
9, 15744, Note_on_c, 10, 62, 110
9, 15936, Note_on_c, 10, 62, 0
9, 15936, Note_on_c, 10, 62, 110
9, 15936, Note_on_c, 10, 69, 110
9, 15936, Note_on_c, 10, 74, 110
9, 15936, Note_on_c, 10, 78, 110
9, 16096, Note_on_c, 10, 62, 0
9, 16096, Note_on_c, 10, 69, 0
9, 16096, Note_on_c, 10, 74, 0
9, 16096, Note_on_c, 10, 78, 0
9, 16128, Note_on_c, 10, 57, 110
9, 16320, Note_on_c, 10, 57, 0
9, 16320, Note_on_c, 10, 64, 110
9, 16320, Note_on_c, 10, 69, 110
9, 16320, Note_on_c, 10, 73, 110
9, 16480, Note_on_c, 10, 64, 0
9, 16480, Note_on_c, 10, 69, 0
9, 16480, Note_on_c, 10, 73, 0
9, 16512, Note_on_c, 10, 57, 110
9, 16704, Note_on_c, 10, 57, 0
9, 16704, Note_on_c, 10, 57, 110
9, 16704, Note_on_c, 10, 64, 110
9, 16704, Note_on_c, 10, 69, 110
9, 16704, Note_on_c, 10, 73, 110
9, 16864, Note_on_c, 10, 57, 0
9, 16864, Note_on_c, 10, 64, 0
9, 16864, Note_on_c, 10, 69, 0
9, 16864, Note_on_c, 10, 73, 0
9, 17056, Note_on_c, 10, 52, 0
9, 17088, Note_on_c, 10, 64, 110
9, 17088, Note_on_c, 10, 68, 110
9, 17088, Note_on_c, 10, 71, 110
9, 17248, Note_on_c, 10, 64, 0
9, 17248, Note_on_c, 10, 68, 0
9, 17248, Note_on_c, 10, 71, 0
9, 17280, Note_on_c, 10, 52, 110
9, 17440, Note_on_c, 10, 52, 0
9, 17472, Note_on_c, 10, 64, 110
9, 17472, Note_on_c, 10, 68, 110
9, 17472, Note_on_c, 10, 71, 110
9, 17632, Note_on_c, 10, 64, 0
9, 17632, Note_on_c, 10, 68, 0
9, 17632, Note_on_c, 10, 71, 0
9, 19200, Note_on_c, 10, 60, 110
9, 19222, Note_on_c, 10, 60, 0
9, 19224, Note_on_c, 10, 61, 110
9, 19224, Note_on_c, 10, 64, 110
9, 19224, Note_on_c, 10, 69, 110
9, 19390, Note_on_c, 10, 61, 0
9, 19390, Note_on_c, 10, 64, 0
9, 19390, Note_on_c, 10, 69, 0
9, 19392, Note_on_c, 10, 61, 110
9, 19392, Note_on_c, 10, 64, 110
9, 19392, Note_on_c, 10, 69, 110
9, 19552, Note_on_c, 10, 61, 0
9, 19552, Note_on_c, 10, 64, 0
9, 19552, Note_on_c, 10, 69, 0
9, 19584, Note_on_c, 10, 61, 110
9, 19584, Note_on_c, 10, 64, 110
9, 19584, Note_on_c, 10, 69, 110
9, 19744, Note_on_c, 10, 61, 0
9, 19744, Note_on_c, 10, 64, 0
9, 19744, Note_on_c, 10, 69, 0
9, 19776, Note_on_c, 10, 61, 110
9, 19776, Note_on_c, 10, 64, 110
9, 19776, Note_on_c, 10, 69, 110
9, 19936, Note_on_c, 10, 61, 0
9, 19936, Note_on_c, 10, 64, 0
9, 19936, Note_on_c, 10, 69, 0
9, 19968, Note_on_c, 10, 60, 110
9, 19968, Note_on_c, 10, 64, 110
9, 19968, Note_on_c, 10, 69, 110
9, 20128, Note_on_c, 10, 60, 0
9, 20128, Note_on_c, 10, 64, 0
9, 20128, Note_on_c, 10, 69, 0
9, 20160, Note_on_c, 10, 60, 110
9, 20160, Note_on_c, 10, 64, 110
9, 20160, Note_on_c, 10, 69, 110
9, 20320, Note_on_c, 10, 60, 0
9, 20320, Note_on_c, 10, 64, 0
9, 20320, Note_on_c, 10, 69, 0
9, 20352, Note_on_c, 10, 60, 110
9, 20352, Note_on_c, 10, 64, 110
9, 20352, Note_on_c, 10, 69, 110
9, 20512, Note_on_c, 10, 60, 0
9, 20512, Note_on_c, 10, 64, 0
9, 20512, Note_on_c, 10, 69, 0
9, 20544, Note_on_c, 10, 60, 110
9, 20544, Note_on_c, 10, 64, 110
9, 20544, Note_on_c, 10, 69, 110
9, 20704, Note_on_c, 10, 60, 0
9, 20704, Note_on_c, 10, 64, 0
9, 20704, Note_on_c, 10, 69, 0
9, 20736, Note_on_c, 10, 60, 110
9, 20758, Note_on_c, 10, 60, 0
9, 20760, Note_on_c, 10, 61, 110
9, 20760, Note_on_c, 10, 64, 110
9, 20760, Note_on_c, 10, 69, 110
9, 20926, Note_on_c, 10, 61, 0
9, 20926, Note_on_c, 10, 64, 0
9, 20926, Note_on_c, 10, 69, 0
9, 20928, Note_on_c, 10, 61, 110
9, 20928, Note_on_c, 10, 64, 110
9, 20928, Note_on_c, 10, 69, 110
9, 21088, Note_on_c, 10, 61, 0
9, 21088, Note_on_c, 10, 64, 0
9, 21088, Note_on_c, 10, 69, 0
9, 21120, Note_on_c, 10, 61, 110
9, 21120, Note_on_c, 10, 64, 110
9, 21120, Note_on_c, 10, 69, 110
9, 21280, Note_on_c, 10, 61, 0
9, 21280, Note_on_c, 10, 64, 0
9, 21280, Note_on_c, 10, 69, 0
9, 21312, Note_on_c, 10, 61, 110
9, 21312, Note_on_c, 10, 64, 110
9, 21312, Note_on_c, 10, 69, 110
9, 21472, Note_on_c, 10, 61, 0
9, 21472, Note_on_c, 10, 64, 0
9, 21472, Note_on_c, 10, 69, 0
9, 21504, Note_on_c, 10, 60, 110
9, 21504, Note_on_c, 10, 64, 110
9, 21504, Note_on_c, 10, 69, 110
9, 21664, Note_on_c, 10, 60, 0
9, 21664, Note_on_c, 10, 64, 0
9, 21664, Note_on_c, 10, 69, 0
9, 21696, Note_on_c, 10, 60, 110
9, 21696, Note_on_c, 10, 64, 110
9, 21696, Note_on_c, 10, 69, 110
9, 21856, Note_on_c, 10, 60, 0
9, 21856, Note_on_c, 10, 64, 0
9, 21856, Note_on_c, 10, 69, 0
9, 21888, Note_on_c, 10, 60, 110
9, 21888, Note_on_c, 10, 64, 110
9, 21888, Note_on_c, 10, 69, 110
9, 22048, Note_on_c, 10, 60, 0
9, 22048, Note_on_c, 10, 64, 0
9, 22048, Note_on_c, 10, 69, 0
9, 22080, Note_on_c, 10, 60, 110
9, 22080, Note_on_c, 10, 64, 110
9, 22080, Note_on_c, 10, 69, 110
9, 22240, Note_on_c, 10, 60, 0
9, 22240, Note_on_c, 10, 64, 0
9, 22240, Note_on_c, 10, 69, 0
9, 22272, Note_on_c, 10, 60, 110
9, 22294, Note_on_c, 10, 60, 0
9, 22296, Note_on_c, 10, 61, 110
9, 22296, Note_on_c, 10, 64, 110
9, 22296, Note_on_c, 10, 69, 110
9, 22462, Note_on_c, 10, 61, 0
9, 22462, Note_on_c, 10, 64, 0
9, 22462, Note_on_c, 10, 69, 0
9, 22464, Note_on_c, 10, 61, 110
9, 22464, Note_on_c, 10, 64, 110
9, 22464, Note_on_c, 10, 69, 110
9, 22624, Note_on_c, 10, 61, 0
9, 22624, Note_on_c, 10, 64, 0
9, 22624, Note_on_c, 10, 69, 0
9, 22656, Note_on_c, 10, 61, 110
9, 22656, Note_on_c, 10, 64, 110
9, 22656, Note_on_c, 10, 69, 110
9, 22816, Note_on_c, 10, 61, 0
9, 22816, Note_on_c, 10, 64, 0
9, 22816, Note_on_c, 10, 69, 0
9, 22848, Note_on_c, 10, 61, 110
9, 22848, Note_on_c, 10, 64, 110
9, 22848, Note_on_c, 10, 69, 110
9, 23008, Note_on_c, 10, 61, 0
9, 23008, Note_on_c, 10, 64, 0
9, 23008, Note_on_c, 10, 69, 0
9, 23040, Note_on_c, 10, 60, 110
9, 23040, Note_on_c, 10, 64, 110
9, 23040, Note_on_c, 10, 69, 110
9, 23200, Note_on_c, 10, 60, 0
9, 23200, Note_on_c, 10, 64, 0
9, 23200, Note_on_c, 10, 69, 0
9, 23232, Note_on_c, 10, 60, 110
9, 23232, Note_on_c, 10, 64, 110
9, 23232, Note_on_c, 10, 69, 110
9, 23392, Note_on_c, 10, 60, 0
9, 23392, Note_on_c, 10, 64, 0
9, 23392, Note_on_c, 10, 69, 0
9, 23424, Note_on_c, 10, 60, 110
9, 23424, Note_on_c, 10, 64, 110
9, 23424, Note_on_c, 10, 69, 110
9, 23584, Note_on_c, 10, 60, 0
9, 23584, Note_on_c, 10, 64, 0
9, 23584, Note_on_c, 10, 69, 0
9, 23616, Note_on_c, 10, 60, 110
9, 23616, Note_on_c, 10, 64, 110
9, 23616, Note_on_c, 10, 69, 110
9, 23776, Note_on_c, 10, 60, 0
9, 23776, Note_on_c, 10, 64, 0
9, 23776, Note_on_c, 10, 69, 0
9, 23808, Note_on_c, 10, 59, 110
9, 23808, Note_on_c, 10, 62, 110
9, 23808, Note_on_c, 10, 66, 110
9, 23808, Note_on_c, 10, 68, 110
9, 23968, Note_on_c, 10, 59, 0
9, 23968, Note_on_c, 10, 62, 0
9, 23968, Note_on_c, 10, 66, 0
9, 23968, Note_on_c, 10, 68, 0
9, 24000, Note_on_c, 10, 59, 110
9, 24000, Note_on_c, 10, 62, 110
9, 24000, Note_on_c, 10, 66, 110
9, 24000, Note_on_c, 10, 68, 110
9, 24160, Note_on_c, 10, 59, 0
9, 24160, Note_on_c, 10, 62, 0
9, 24160, Note_on_c, 10, 66, 0
9, 24160, Note_on_c, 10, 68, 0
9, 24192, Note_on_c, 10, 59, 110
9, 24192, Note_on_c, 10, 62, 110
9, 24192, Note_on_c, 10, 66, 110
9, 24192, Note_on_c, 10, 68, 110
9, 24352, Note_on_c, 10, 59, 0
9, 24352, Note_on_c, 10, 62, 0
9, 24352, Note_on_c, 10, 66, 0
9, 24352, Note_on_c, 10, 68, 0
9, 24384, Note_on_c, 10, 59, 110
9, 24384, Note_on_c, 10, 62, 110
9, 24384, Note_on_c, 10, 66, 110
9, 24384, Note_on_c, 10, 68, 110
9, 24544, Note_on_c, 10, 59, 0
9, 24544, Note_on_c, 10, 62, 0
9, 24544, Note_on_c, 10, 66, 0
9, 24544, Note_on_c, 10, 68, 0
9, 24576, Note_on_c, 10, 59, 110
9, 24576, Note_on_c, 10, 62, 110
9, 24576, Note_on_c, 10, 66, 110
9, 24576, Note_on_c, 10, 68, 110
9, 24736, Note_on_c, 10, 59, 0
9, 24736, Note_on_c, 10, 62, 0
9, 24736, Note_on_c, 10, 66, 0
9, 24736, Note_on_c, 10, 68, 0
9, 24768, Note_on_c, 10, 59, 110
9, 24768, Note_on_c, 10, 62, 110
9, 24768, Note_on_c, 10, 66, 110
9, 24768, Note_on_c, 10, 68, 110
9, 24928, Note_on_c, 10, 59, 0
9, 24928, Note_on_c, 10, 62, 0
9, 24928, Note_on_c, 10, 66, 0
9, 24928, Note_on_c, 10, 68, 0
9, 24960, Note_on_c, 10, 59, 110
9, 24960, Note_on_c, 10, 62, 110
9, 24960, Note_on_c, 10, 66, 110
9, 24960, Note_on_c, 10, 68, 110
9, 25120, Note_on_c, 10, 59, 0
9, 25120, Note_on_c, 10, 62, 0
9, 25120, Note_on_c, 10, 66, 0
9, 25120, Note_on_c, 10, 68, 0
9, 25152, Note_on_c, 10, 59, 110
9, 25152, Note_on_c, 10, 62, 110
9, 25152, Note_on_c, 10, 66, 110
9, 25152, Note_on_c, 10, 68, 110
9, 25312, Note_on_c, 10, 59, 0
9, 25312, Note_on_c, 10, 62, 0
9, 25312, Note_on_c, 10, 66, 0
9, 25312, Note_on_c, 10, 68, 0
9, 25344, Note_on_c, 10, 60, 110
9, 25366, Note_on_c, 10, 60, 0
9, 25368, Note_on_c, 10, 61, 110
9, 25368, Note_on_c, 10, 64, 110
9, 25368, Note_on_c, 10, 69, 110
9, 25534, Note_on_c, 10, 61, 0
9, 25534, Note_on_c, 10, 64, 0
9, 25534, Note_on_c, 10, 69, 0
9, 25536, Note_on_c, 10, 61, 110
9, 25536, Note_on_c, 10, 64, 110
9, 25536, Note_on_c, 10, 69, 110
9, 25696, Note_on_c, 10, 61, 0
9, 25696, Note_on_c, 10, 64, 0
9, 25696, Note_on_c, 10, 69, 0
9, 25728, Note_on_c, 10, 61, 110
9, 25728, Note_on_c, 10, 64, 110
9, 25728, Note_on_c, 10, 69, 110
9, 25888, Note_on_c, 10, 61, 0
9, 25888, Note_on_c, 10, 64, 0
9, 25888, Note_on_c, 10, 69, 0
9, 25920, Note_on_c, 10, 61, 110
9, 25920, Note_on_c, 10, 64, 110
9, 25920, Note_on_c, 10, 69, 110
9, 26080, Note_on_c, 10, 61, 0
9, 26080, Note_on_c, 10, 64, 0
9, 26080, Note_on_c, 10, 69, 0
9, 26112, Note_on_c, 10, 60, 110
9, 26112, Note_on_c, 10, 64, 110
9, 26112, Note_on_c, 10, 69, 110
9, 26272, Note_on_c, 10, 60, 0
9, 26272, Note_on_c, 10, 64, 0
9, 26272, Note_on_c, 10, 69, 0
9, 26304, Note_on_c, 10, 60, 110
9, 26304, Note_on_c, 10, 64, 110
9, 26304, Note_on_c, 10, 69, 110
9, 26464, Note_on_c, 10, 60, 0
9, 26464, Note_on_c, 10, 64, 0
9, 26464, Note_on_c, 10, 69, 0
9, 26496, Note_on_c, 10, 60, 110
9, 26496, Note_on_c, 10, 64, 110
9, 26496, Note_on_c, 10, 69, 110
9, 26656, Note_on_c, 10, 60, 0
9, 26656, Note_on_c, 10, 64, 0
9, 26656, Note_on_c, 10, 69, 0
9, 26688, Note_on_c, 10, 60, 110
9, 26688, Note_on_c, 10, 64, 110
9, 26688, Note_on_c, 10, 69, 110
9, 26848, Note_on_c, 10, 60, 0
9, 26848, Note_on_c, 10, 64, 0
9, 26848, Note_on_c, 10, 69, 0
9, 26880, Note_on_c, 10, 60, 110
9, 26902, Note_on_c, 10, 60, 0
9, 26904, Note_on_c, 10, 61, 110
9, 26904, Note_on_c, 10, 64, 110
9, 26904, Note_on_c, 10, 69, 110
9, 27070, Note_on_c, 10, 61, 0
9, 27070, Note_on_c, 10, 64, 0
9, 27070, Note_on_c, 10, 69, 0
9, 27072, Note_on_c, 10, 61, 110
9, 27072, Note_on_c, 10, 64, 110
9, 27072, Note_on_c, 10, 69, 110
9, 27232, Note_on_c, 10, 61, 0
9, 27232, Note_on_c, 10, 64, 0
9, 27232, Note_on_c, 10, 69, 0
9, 27264, Note_on_c, 10, 61, 110
9, 27264, Note_on_c, 10, 64, 110
9, 27264, Note_on_c, 10, 69, 110
9, 27424, Note_on_c, 10, 61, 0
9, 27424, Note_on_c, 10, 64, 0
9, 27424, Note_on_c, 10, 69, 0
9, 27456, Note_on_c, 10, 61, 110
9, 27456, Note_on_c, 10, 64, 110
9, 27456, Note_on_c, 10, 69, 110
9, 27616, Note_on_c, 10, 61, 0
9, 27616, Note_on_c, 10, 64, 0
9, 27616, Note_on_c, 10, 69, 0
9, 27648, Note_on_c, 10, 60, 110
9, 27648, Note_on_c, 10, 64, 110
9, 27648, Note_on_c, 10, 69, 110
9, 27808, Note_on_c, 10, 60, 0
9, 27808, Note_on_c, 10, 64, 0
9, 27808, Note_on_c, 10, 69, 0
9, 27840, Note_on_c, 10, 60, 110
9, 27840, Note_on_c, 10, 64, 110
9, 27840, Note_on_c, 10, 69, 110
9, 28000, Note_on_c, 10, 60, 0
9, 28000, Note_on_c, 10, 64, 0
9, 28000, Note_on_c, 10, 69, 0
9, 28032, Note_on_c, 10, 60, 110
9, 28032, Note_on_c, 10, 64, 110
9, 28032, Note_on_c, 10, 69, 110
9, 28192, Note_on_c, 10, 60, 0
9, 28192, Note_on_c, 10, 64, 0
9, 28192, Note_on_c, 10, 69, 0
9, 28224, Note_on_c, 10, 60, 110
9, 28224, Note_on_c, 10, 64, 110
9, 28224, Note_on_c, 10, 69, 110
9, 28384, Note_on_c, 10, 60, 0
9, 28384, Note_on_c, 10, 64, 0
9, 28384, Note_on_c, 10, 69, 0
9, 28416, Note_on_c, 10, 60, 110
9, 28438, Note_on_c, 10, 60, 0
9, 28440, Note_on_c, 10, 61, 110
9, 28440, Note_on_c, 10, 64, 110
9, 28440, Note_on_c, 10, 69, 110
9, 28606, Note_on_c, 10, 61, 0
9, 28606, Note_on_c, 10, 64, 0
9, 28606, Note_on_c, 10, 69, 0
9, 28608, Note_on_c, 10, 61, 110
9, 28608, Note_on_c, 10, 64, 110
9, 28608, Note_on_c, 10, 69, 110
9, 28768, Note_on_c, 10, 61, 0
9, 28768, Note_on_c, 10, 64, 0
9, 28768, Note_on_c, 10, 69, 0
9, 28800, Note_on_c, 10, 61, 110
9, 28800, Note_on_c, 10, 64, 110
9, 28800, Note_on_c, 10, 69, 110
9, 28960, Note_on_c, 10, 61, 0
9, 28960, Note_on_c, 10, 64, 0
9, 28960, Note_on_c, 10, 69, 0
9, 28992, Note_on_c, 10, 61, 110
9, 28992, Note_on_c, 10, 64, 110
9, 28992, Note_on_c, 10, 69, 110
9, 29152, Note_on_c, 10, 61, 0
9, 29152, Note_on_c, 10, 64, 0
9, 29152, Note_on_c, 10, 69, 0
9, 29184, Note_on_c, 10, 59, 110
9, 29184, Note_on_c, 10, 62, 110
9, 29184, Note_on_c, 10, 66, 110
9, 29184, Note_on_c, 10, 68, 110
9, 29344, Note_on_c, 10, 59, 0
9, 29344, Note_on_c, 10, 62, 0
9, 29344, Note_on_c, 10, 66, 0
9, 29344, Note_on_c, 10, 68, 0
9, 29376, Note_on_c, 10, 59, 110
9, 29376, Note_on_c, 10, 62, 110
9, 29376, Note_on_c, 10, 66, 110
9, 29376, Note_on_c, 10, 68, 110
9, 29536, Note_on_c, 10, 59, 0
9, 29536, Note_on_c, 10, 62, 0
9, 29536, Note_on_c, 10, 66, 0
9, 29536, Note_on_c, 10, 68, 0
9, 29568, Note_on_c, 10, 59, 110
9, 29568, Note_on_c, 10, 62, 110
9, 29568, Note_on_c, 10, 66, 110
9, 29568, Note_on_c, 10, 68, 110
9, 29728, Note_on_c, 10, 59, 0
9, 29728, Note_on_c, 10, 62, 0
9, 29728, Note_on_c, 10, 66, 0
9, 29728, Note_on_c, 10, 68, 0
9, 29760, Note_on_c, 10, 59, 110
9, 29760, Note_on_c, 10, 62, 110
9, 29760, Note_on_c, 10, 66, 110
9, 29760, Note_on_c, 10, 68, 110
9, 29920, Note_on_c, 10, 59, 0
9, 29920, Note_on_c, 10, 62, 0
9, 29920, Note_on_c, 10, 66, 0
9, 29920, Note_on_c, 10, 68, 0
9, 29952, Note_on_c, 10, 59, 110
9, 29952, Note_on_c, 10, 62, 110
9, 29952, Note_on_c, 10, 65, 110
9, 29952, Note_on_c, 10, 69, 110
9, 30112, Note_on_c, 10, 59, 0
9, 30112, Note_on_c, 10, 62, 0
9, 30112, Note_on_c, 10, 65, 0
9, 30112, Note_on_c, 10, 69, 0
9, 30144, Note_on_c, 10, 59, 110
9, 30144, Note_on_c, 10, 62, 110
9, 30144, Note_on_c, 10, 65, 110
9, 30144, Note_on_c, 10, 69, 110
9, 30304, Note_on_c, 10, 59, 0
9, 30304, Note_on_c, 10, 62, 0
9, 30304, Note_on_c, 10, 65, 0
9, 30304, Note_on_c, 10, 69, 0
9, 30336, Note_on_c, 10, 59, 110
9, 30336, Note_on_c, 10, 62, 110
9, 30336, Note_on_c, 10, 65, 110
9, 30336, Note_on_c, 10, 69, 110
9, 30496, Note_on_c, 10, 59, 0
9, 30496, Note_on_c, 10, 62, 0
9, 30496, Note_on_c, 10, 65, 0
9, 30496, Note_on_c, 10, 69, 0
9, 30528, Note_on_c, 10, 59, 110
9, 30528, Note_on_c, 10, 62, 110
9, 30528, Note_on_c, 10, 65, 110
9, 30528, Note_on_c, 10, 69, 110
9, 30688, Note_on_c, 10, 59, 0
9, 30688, Note_on_c, 10, 62, 0
9, 30688, Note_on_c, 10, 65, 0
9, 30688, Note_on_c, 10, 69, 0
9, 30720, Note_on_c, 10, 59, 110
9, 30720, Note_on_c, 10, 62, 110
9, 30720, Note_on_c, 10, 65, 110
9, 30720, Note_on_c, 10, 69, 110
9, 30880, Note_on_c, 10, 59, 0
9, 30880, Note_on_c, 10, 62, 0
9, 30880, Note_on_c, 10, 65, 0
9, 30880, Note_on_c, 10, 69, 0
9, 30912, Note_on_c, 10, 59, 110
9, 30912, Note_on_c, 10, 62, 110
9, 30912, Note_on_c, 10, 65, 110
9, 30912, Note_on_c, 10, 69, 110
9, 31072, Note_on_c, 10, 59, 0
9, 31072, Note_on_c, 10, 62, 0
9, 31072, Note_on_c, 10, 65, 0
9, 31072, Note_on_c, 10, 69, 0
9, 31104, Note_on_c, 10, 59, 110
9, 31104, Note_on_c, 10, 62, 110
9, 31104, Note_on_c, 10, 65, 110
9, 31104, Note_on_c, 10, 69, 110
9, 31264, Note_on_c, 10, 59, 0
9, 31264, Note_on_c, 10, 62, 0
9, 31264, Note_on_c, 10, 65, 0
9, 31264, Note_on_c, 10, 69, 0
9, 31296, Note_on_c, 10, 59, 110
9, 31296, Note_on_c, 10, 62, 110
9, 31296, Note_on_c, 10, 65, 110
9, 31296, Note_on_c, 10, 69, 110
9, 31456, Note_on_c, 10, 59, 0
9, 31456, Note_on_c, 10, 62, 0
9, 31456, Note_on_c, 10, 65, 0
9, 31456, Note_on_c, 10, 69, 0
9, 31488, Note_on_c, 10, 60, 110
9, 31510, Note_on_c, 10, 60, 0
9, 31512, Note_on_c, 10, 61, 110
9, 31512, Note_on_c, 10, 64, 110
9, 31512, Note_on_c, 10, 69, 110
9, 31678, Note_on_c, 10, 61, 0
9, 31678, Note_on_c, 10, 64, 0
9, 31678, Note_on_c, 10, 69, 0
9, 31680, Note_on_c, 10, 61, 110
9, 31680, Note_on_c, 10, 64, 110
9, 31680, Note_on_c, 10, 69, 110
9, 31840, Note_on_c, 10, 61, 0
9, 31840, Note_on_c, 10, 64, 0
9, 31840, Note_on_c, 10, 69, 0
9, 31872, Note_on_c, 10, 61, 110
9, 31872, Note_on_c, 10, 64, 110
9, 31872, Note_on_c, 10, 69, 110
9, 32032, Note_on_c, 10, 61, 0
9, 32032, Note_on_c, 10, 64, 0
9, 32032, Note_on_c, 10, 69, 0
9, 32064, Note_on_c, 10, 61, 110
9, 32064, Note_on_c, 10, 64, 110
9, 32064, Note_on_c, 10, 69, 110
9, 32224, Note_on_c, 10, 61, 0
9, 32224, Note_on_c, 10, 64, 0
9, 32224, Note_on_c, 10, 69, 0
9, 32256, Note_on_c, 10, 60, 110
9, 32256, Note_on_c, 10, 64, 110
9, 32256, Note_on_c, 10, 69, 110
9, 32416, Note_on_c, 10, 60, 0
9, 32416, Note_on_c, 10, 64, 0
9, 32416, Note_on_c, 10, 69, 0
9, 32448, Note_on_c, 10, 60, 110
9, 32448, Note_on_c, 10, 64, 110
9, 32448, Note_on_c, 10, 69, 110
9, 32608, Note_on_c, 10, 60, 0
9, 32608, Note_on_c, 10, 64, 0
9, 32608, Note_on_c, 10, 69, 0
9, 32640, Note_on_c, 10, 60, 110
9, 32640, Note_on_c, 10, 64, 110
9, 32640, Note_on_c, 10, 69, 110
9, 32800, Note_on_c, 10, 60, 0
9, 32800, Note_on_c, 10, 64, 0
9, 32800, Note_on_c, 10, 69, 0
9, 32832, Note_on_c, 10, 60, 110
9, 32832, Note_on_c, 10, 64, 110
9, 32832, Note_on_c, 10, 69, 110
9, 32992, Note_on_c, 10, 60, 0
9, 32992, Note_on_c, 10, 64, 0
9, 32992, Note_on_c, 10, 69, 0
9, 33024, Note_on_c, 10, 60, 110
9, 33046, Note_on_c, 10, 60, 0
9, 33048, Note_on_c, 10, 61, 110
9, 33048, Note_on_c, 10, 64, 110
9, 33048, Note_on_c, 10, 69, 110
9, 33214, Note_on_c, 10, 61, 0
9, 33214, Note_on_c, 10, 64, 0
9, 33214, Note_on_c, 10, 69, 0
9, 33216, Note_on_c, 10, 61, 110
9, 33216, Note_on_c, 10, 64, 110
9, 33216, Note_on_c, 10, 69, 110
9, 33376, Note_on_c, 10, 61, 0
9, 33376, Note_on_c, 10, 64, 0
9, 33376, Note_on_c, 10, 69, 0
9, 33408, Note_on_c, 10, 61, 110
9, 33408, Note_on_c, 10, 64, 110
9, 33408, Note_on_c, 10, 69, 110
9, 33568, Note_on_c, 10, 61, 0
9, 33568, Note_on_c, 10, 64, 0
9, 33568, Note_on_c, 10, 69, 0
9, 33600, Note_on_c, 10, 61, 110
9, 33600, Note_on_c, 10, 64, 110
9, 33600, Note_on_c, 10, 69, 110
9, 33760, Note_on_c, 10, 61, 0
9, 33760, Note_on_c, 10, 64, 0
9, 33760, Note_on_c, 10, 69, 0
9, 33792, Note_on_c, 10, 60, 110
9, 33792, Note_on_c, 10, 64, 110
9, 33792, Note_on_c, 10, 69, 110
9, 33952, Note_on_c, 10, 60, 0
9, 33952, Note_on_c, 10, 64, 0
9, 33952, Note_on_c, 10, 69, 0
9, 33984, Note_on_c, 10, 60, 110
9, 33984, Note_on_c, 10, 64, 110
9, 33984, Note_on_c, 10, 69, 110
9, 34144, Note_on_c, 10, 60, 0
9, 34144, Note_on_c, 10, 64, 0
9, 34144, Note_on_c, 10, 69, 0
9, 34176, Note_on_c, 10, 60, 110
9, 34176, Note_on_c, 10, 64, 110
9, 34176, Note_on_c, 10, 69, 110
9, 34336, Note_on_c, 10, 60, 0
9, 34336, Note_on_c, 10, 64, 0
9, 34336, Note_on_c, 10, 69, 0
9, 34368, Note_on_c, 10, 60, 110
9, 34368, Note_on_c, 10, 64, 110
9, 34368, Note_on_c, 10, 69, 110
9, 34528, Note_on_c, 10, 60, 0
9, 34528, Note_on_c, 10, 64, 0
9, 34528, Note_on_c, 10, 69, 0
9, 34560, Note_on_c, 10, 60, 110
9, 34582, Note_on_c, 10, 60, 0
9, 34584, Note_on_c, 10, 61, 110
9, 34584, Note_on_c, 10, 64, 110
9, 34584, Note_on_c, 10, 69, 110
9, 34750, Note_on_c, 10, 61, 0
9, 34750, Note_on_c, 10, 64, 0
9, 34750, Note_on_c, 10, 69, 0
9, 34752, Note_on_c, 10, 61, 110
9, 34752, Note_on_c, 10, 64, 110
9, 34752, Note_on_c, 10, 69, 110
9, 34912, Note_on_c, 10, 61, 0
9, 34912, Note_on_c, 10, 64, 0
9, 34912, Note_on_c, 10, 69, 0
9, 34944, Note_on_c, 10, 61, 110
9, 34944, Note_on_c, 10, 64, 110
9, 34944, Note_on_c, 10, 69, 110
9, 35104, Note_on_c, 10, 61, 0
9, 35104, Note_on_c, 10, 64, 0
9, 35104, Note_on_c, 10, 69, 0
9, 35136, Note_on_c, 10, 61, 110
9, 35136, Note_on_c, 10, 64, 110
9, 35136, Note_on_c, 10, 69, 110
9, 35296, Note_on_c, 10, 61, 0
9, 35296, Note_on_c, 10, 64, 0
9, 35296, Note_on_c, 10, 69, 0
9, 35328, Note_on_c, 10, 60, 110
9, 35328, Note_on_c, 10, 64, 110
9, 35328, Note_on_c, 10, 69, 110
9, 35488, Note_on_c, 10, 60, 0
9, 35488, Note_on_c, 10, 64, 0
9, 35488, Note_on_c, 10, 69, 0
9, 35520, Note_on_c, 10, 60, 110
9, 35520, Note_on_c, 10, 64, 110
9, 35520, Note_on_c, 10, 69, 110
9, 35680, Note_on_c, 10, 60, 0
9, 35680, Note_on_c, 10, 64, 0
9, 35680, Note_on_c, 10, 69, 0
9, 35712, Note_on_c, 10, 60, 110
9, 35712, Note_on_c, 10, 64, 110
9, 35712, Note_on_c, 10, 69, 110
9, 35872, Note_on_c, 10, 60, 0
9, 35872, Note_on_c, 10, 64, 0
9, 35872, Note_on_c, 10, 69, 0
9, 35904, Note_on_c, 10, 60, 110
9, 35904, Note_on_c, 10, 64, 110
9, 35904, Note_on_c, 10, 69, 110
9, 36064, Note_on_c, 10, 60, 0
9, 36064, Note_on_c, 10, 64, 0
9, 36064, Note_on_c, 10, 69, 0
9, 36096, Note_on_c, 10, 59, 110
9, 36096, Note_on_c, 10, 62, 110
9, 36096, Note_on_c, 10, 66, 110
9, 36096, Note_on_c, 10, 68, 110
9, 36256, Note_on_c, 10, 59, 0
9, 36256, Note_on_c, 10, 62, 0
9, 36256, Note_on_c, 10, 66, 0
9, 36256, Note_on_c, 10, 68, 0
9, 36288, Note_on_c, 10, 59, 110
9, 36288, Note_on_c, 10, 62, 110
9, 36288, Note_on_c, 10, 66, 110
9, 36288, Note_on_c, 10, 68, 110
9, 36448, Note_on_c, 10, 59, 0
9, 36448, Note_on_c, 10, 62, 0
9, 36448, Note_on_c, 10, 66, 0
9, 36448, Note_on_c, 10, 68, 0
9, 36480, Note_on_c, 10, 59, 110
9, 36480, Note_on_c, 10, 62, 110
9, 36480, Note_on_c, 10, 66, 110
9, 36480, Note_on_c, 10, 68, 110
9, 36640, Note_on_c, 10, 59, 0
9, 36640, Note_on_c, 10, 62, 0
9, 36640, Note_on_c, 10, 66, 0
9, 36640, Note_on_c, 10, 68, 0
9, 36672, Note_on_c, 10, 59, 110
9, 36672, Note_on_c, 10, 62, 110
9, 36672, Note_on_c, 10, 66, 110
9, 36672, Note_on_c, 10, 68, 110
9, 36832, Note_on_c, 10, 59, 0
9, 36832, Note_on_c, 10, 62, 0
9, 36832, Note_on_c, 10, 66, 0
9, 36832, Note_on_c, 10, 68, 0
9, 36864, Note_on_c, 10, 59, 110
9, 36864, Note_on_c, 10, 62, 110
9, 36864, Note_on_c, 10, 66, 110
9, 36864, Note_on_c, 10, 68, 110
9, 37024, Note_on_c, 10, 59, 0
9, 37024, Note_on_c, 10, 62, 0
9, 37024, Note_on_c, 10, 66, 0
9, 37024, Note_on_c, 10, 68, 0
9, 37056, Note_on_c, 10, 59, 110
9, 37056, Note_on_c, 10, 62, 110
9, 37056, Note_on_c, 10, 66, 110
9, 37056, Note_on_c, 10, 68, 110
9, 37216, Note_on_c, 10, 59, 0
9, 37216, Note_on_c, 10, 62, 0
9, 37216, Note_on_c, 10, 66, 0
9, 37216, Note_on_c, 10, 68, 0
9, 37248, Note_on_c, 10, 59, 110
9, 37248, Note_on_c, 10, 62, 110
9, 37248, Note_on_c, 10, 66, 110
9, 37248, Note_on_c, 10, 68, 110
9, 37408, Note_on_c, 10, 59, 0
9, 37408, Note_on_c, 10, 62, 0
9, 37408, Note_on_c, 10, 66, 0
9, 37408, Note_on_c, 10, 68, 0
9, 37440, Note_on_c, 10, 59, 110
9, 37440, Note_on_c, 10, 62, 110
9, 37440, Note_on_c, 10, 66, 110
9, 37440, Note_on_c, 10, 68, 110
9, 37600, Note_on_c, 10, 59, 0
9, 37600, Note_on_c, 10, 62, 0
9, 37600, Note_on_c, 10, 66, 0
9, 37600, Note_on_c, 10, 68, 0
9, 37632, Note_on_c, 10, 60, 110
9, 37654, Note_on_c, 10, 60, 0
9, 37656, Note_on_c, 10, 61, 110
9, 37656, Note_on_c, 10, 64, 110
9, 37656, Note_on_c, 10, 69, 110
9, 37822, Note_on_c, 10, 61, 0
9, 37822, Note_on_c, 10, 64, 0
9, 37822, Note_on_c, 10, 69, 0
9, 37824, Note_on_c, 10, 61, 110
9, 37824, Note_on_c, 10, 64, 110
9, 37824, Note_on_c, 10, 69, 110
9, 37984, Note_on_c, 10, 61, 0
9, 37984, Note_on_c, 10, 64, 0
9, 37984, Note_on_c, 10, 69, 0
9, 38016, Note_on_c, 10, 61, 110
9, 38016, Note_on_c, 10, 64, 110
9, 38016, Note_on_c, 10, 69, 110
9, 38176, Note_on_c, 10, 61, 0
9, 38176, Note_on_c, 10, 64, 0
9, 38176, Note_on_c, 10, 69, 0
9, 38208, Note_on_c, 10, 61, 110
9, 38208, Note_on_c, 10, 64, 110
9, 38208, Note_on_c, 10, 69, 110
9, 38368, Note_on_c, 10, 61, 0
9, 38368, Note_on_c, 10, 64, 0
9, 38368, Note_on_c, 10, 69, 0
9, 38400, Note_on_c, 10, 60, 110
9, 38400, Note_on_c, 10, 64, 110
9, 38400, Note_on_c, 10, 69, 110
9, 38560, Note_on_c, 10, 60, 0
9, 38560, Note_on_c, 10, 64, 0
9, 38560, Note_on_c, 10, 69, 0
9, 38592, Note_on_c, 10, 60, 110
9, 38592, Note_on_c, 10, 64, 110
9, 38592, Note_on_c, 10, 69, 110
9, 38752, Note_on_c, 10, 60, 0
9, 38752, Note_on_c, 10, 64, 0
9, 38752, Note_on_c, 10, 69, 0
9, 38784, Note_on_c, 10, 60, 110
9, 38784, Note_on_c, 10, 64, 110
9, 38784, Note_on_c, 10, 69, 110
9, 38944, Note_on_c, 10, 60, 0
9, 38944, Note_on_c, 10, 64, 0
9, 38944, Note_on_c, 10, 69, 0
9, 38976, Note_on_c, 10, 60, 110
9, 38976, Note_on_c, 10, 64, 110
9, 38976, Note_on_c, 10, 69, 110
9, 39136, Note_on_c, 10, 60, 0
9, 39136, Note_on_c, 10, 64, 0
9, 39136, Note_on_c, 10, 69, 0
9, 39168, Note_on_c, 10, 60, 110
9, 39190, Note_on_c, 10, 60, 0
9, 39192, Note_on_c, 10, 61, 110
9, 39192, Note_on_c, 10, 64, 110
9, 39192, Note_on_c, 10, 69, 110
9, 39358, Note_on_c, 10, 61, 0
9, 39358, Note_on_c, 10, 64, 0
9, 39358, Note_on_c, 10, 69, 0
9, 39360, Note_on_c, 10, 61, 110
9, 39360, Note_on_c, 10, 64, 110
9, 39360, Note_on_c, 10, 69, 110
9, 39520, Note_on_c, 10, 61, 0
9, 39520, Note_on_c, 10, 64, 0
9, 39520, Note_on_c, 10, 69, 0
9, 39552, Note_on_c, 10, 61, 110
9, 39552, Note_on_c, 10, 64, 110
9, 39552, Note_on_c, 10, 69, 110
9, 39712, Note_on_c, 10, 61, 0
9, 39712, Note_on_c, 10, 64, 0
9, 39712, Note_on_c, 10, 69, 0
9, 39744, Note_on_c, 10, 61, 110
9, 39744, Note_on_c, 10, 64, 110
9, 39744, Note_on_c, 10, 69, 110
9, 39904, Note_on_c, 10, 61, 0
9, 39904, Note_on_c, 10, 64, 0
9, 39904, Note_on_c, 10, 69, 0
9, 39936, Note_on_c, 10, 60, 110
9, 39936, Note_on_c, 10, 64, 110
9, 39936, Note_on_c, 10, 69, 110
9, 40096, Note_on_c, 10, 60, 0
9, 40096, Note_on_c, 10, 64, 0
9, 40096, Note_on_c, 10, 69, 0
9, 40128, Note_on_c, 10, 60, 110
9, 40128, Note_on_c, 10, 64, 110
9, 40128, Note_on_c, 10, 69, 110
9, 40288, Note_on_c, 10, 60, 0
9, 40288, Note_on_c, 10, 64, 0
9, 40288, Note_on_c, 10, 69, 0
9, 40320, Note_on_c, 10, 60, 110
9, 40320, Note_on_c, 10, 64, 110
9, 40320, Note_on_c, 10, 69, 110
9, 40480, Note_on_c, 10, 60, 0
9, 40480, Note_on_c, 10, 64, 0
9, 40480, Note_on_c, 10, 69, 0
9, 40512, Note_on_c, 10, 60, 110
9, 40512, Note_on_c, 10, 64, 110
9, 40512, Note_on_c, 10, 69, 110
9, 40672, Note_on_c, 10, 60, 0
9, 40672, Note_on_c, 10, 64, 0
9, 40672, Note_on_c, 10, 69, 0
9, 40704, Note_on_c, 10, 60, 110
9, 40726, Note_on_c, 10, 60, 0
9, 40728, Note_on_c, 10, 61, 110
9, 40728, Note_on_c, 10, 64, 110
9, 40728, Note_on_c, 10, 69, 110
9, 40894, Note_on_c, 10, 61, 0
9, 40894, Note_on_c, 10, 64, 0
9, 40894, Note_on_c, 10, 69, 0
9, 40896, Note_on_c, 10, 61, 110
9, 40896, Note_on_c, 10, 64, 110
9, 40896, Note_on_c, 10, 69, 110
9, 41056, Note_on_c, 10, 61, 0
9, 41056, Note_on_c, 10, 64, 0
9, 41056, Note_on_c, 10, 69, 0
9, 41088, Note_on_c, 10, 61, 110
9, 41088, Note_on_c, 10, 64, 110
9, 41088, Note_on_c, 10, 69, 110
9, 41248, Note_on_c, 10, 61, 0
9, 41248, Note_on_c, 10, 64, 0
9, 41248, Note_on_c, 10, 69, 0
9, 41280, Note_on_c, 10, 61, 110
9, 41280, Note_on_c, 10, 64, 110
9, 41280, Note_on_c, 10, 69, 110
9, 41440, Note_on_c, 10, 61, 0
9, 41440, Note_on_c, 10, 64, 0
9, 41440, Note_on_c, 10, 69, 0
9, 41472, Note_on_c, 10, 59, 110
9, 41472, Note_on_c, 10, 62, 110
9, 41472, Note_on_c, 10, 66, 110
9, 41472, Note_on_c, 10, 68, 110
9, 41632, Note_on_c, 10, 59, 0
9, 41632, Note_on_c, 10, 62, 0
9, 41632, Note_on_c, 10, 66, 0
9, 41632, Note_on_c, 10, 68, 0
9, 41664, Note_on_c, 10, 59, 110
9, 41664, Note_on_c, 10, 62, 110
9, 41664, Note_on_c, 10, 66, 110
9, 41664, Note_on_c, 10, 68, 110
9, 41824, Note_on_c, 10, 59, 0
9, 41824, Note_on_c, 10, 62, 0
9, 41824, Note_on_c, 10, 66, 0
9, 41824, Note_on_c, 10, 68, 0
9, 41856, Note_on_c, 10, 59, 110
9, 41856, Note_on_c, 10, 62, 110
9, 41856, Note_on_c, 10, 66, 110
9, 41856, Note_on_c, 10, 68, 110
9, 42016, Note_on_c, 10, 59, 0
9, 42016, Note_on_c, 10, 62, 0
9, 42016, Note_on_c, 10, 66, 0
9, 42016, Note_on_c, 10, 68, 0
9, 42048, Note_on_c, 10, 59, 110
9, 42048, Note_on_c, 10, 62, 110
9, 42048, Note_on_c, 10, 66, 110
9, 42048, Note_on_c, 10, 68, 110
9, 42208, Note_on_c, 10, 59, 0
9, 42208, Note_on_c, 10, 62, 0
9, 42208, Note_on_c, 10, 66, 0
9, 42208, Note_on_c, 10, 68, 0
9, 42240, Note_on_c, 10, 57, 110
9, 42240, Note_on_c, 10, 62, 110
9, 42240, Note_on_c, 10, 64, 110
9, 42240, Note_on_c, 10, 67, 110
9, 42400, Note_on_c, 10, 57, 0
9, 42400, Note_on_c, 10, 62, 0
9, 42400, Note_on_c, 10, 64, 0
9, 42400, Note_on_c, 10, 67, 0
9, 42432, Note_on_c, 10, 57, 110
9, 42432, Note_on_c, 10, 62, 110
9, 42432, Note_on_c, 10, 64, 110
9, 42432, Note_on_c, 10, 67, 110
9, 42592, Note_on_c, 10, 57, 0
9, 42592, Note_on_c, 10, 62, 0
9, 42592, Note_on_c, 10, 64, 0
9, 42592, Note_on_c, 10, 67, 0
9, 42624, Note_on_c, 10, 57, 110
9, 42624, Note_on_c, 10, 62, 110
9, 42624, Note_on_c, 10, 64, 110
9, 42624, Note_on_c, 10, 67, 110
9, 42784, Note_on_c, 10, 57, 0
9, 42784, Note_on_c, 10, 62, 0
9, 42784, Note_on_c, 10, 64, 0
9, 42784, Note_on_c, 10, 67, 0
9, 42816, Note_on_c, 10, 57, 110
9, 42816, Note_on_c, 10, 62, 110
9, 42816, Note_on_c, 10, 64, 110
9, 42816, Note_on_c, 10, 67, 110
9, 42976, Note_on_c, 10, 57, 0
9, 42976, Note_on_c, 10, 62, 0
9, 42976, Note_on_c, 10, 64, 0
9, 42976, Note_on_c, 10, 67, 0
9, 43008, Note_on_c, 10, 57, 110
9, 43008, Note_on_c, 10, 62, 110
9, 43008, Note_on_c, 10, 64, 110
9, 43008, Note_on_c, 10, 67, 110
9, 43168, Note_on_c, 10, 57, 0
9, 43168, Note_on_c, 10, 62, 0
9, 43168, Note_on_c, 10, 64, 0
9, 43168, Note_on_c, 10, 67, 0
9, 43200, Note_on_c, 10, 57, 110
9, 43200, Note_on_c, 10, 62, 110
9, 43200, Note_on_c, 10, 64, 110
9, 43200, Note_on_c, 10, 67, 110
9, 43360, Note_on_c, 10, 57, 0
9, 43360, Note_on_c, 10, 62, 0
9, 43360, Note_on_c, 10, 64, 0
9, 43360, Note_on_c, 10, 67, 0
9, 43392, Note_on_c, 10, 57, 110
9, 43392, Note_on_c, 10, 62, 110
9, 43392, Note_on_c, 10, 64, 110
9, 43392, Note_on_c, 10, 67, 110
9, 43552, Note_on_c, 10, 57, 0
9, 43552, Note_on_c, 10, 62, 0
9, 43552, Note_on_c, 10, 64, 0
9, 43552, Note_on_c, 10, 67, 0
9, 43584, Note_on_c, 10, 57, 110
9, 43584, Note_on_c, 10, 62, 110
9, 43584, Note_on_c, 10, 64, 110
9, 43584, Note_on_c, 10, 67, 110
9, 43744, Note_on_c, 10, 57, 0
9, 43744, Note_on_c, 10, 62, 0
9, 43744, Note_on_c, 10, 64, 0
9, 43744, Note_on_c, 10, 67, 0
9, 43776, Note_on_c, 10, 59, 110
9, 43776, Note_on_c, 10, 62, 110
9, 43776, Note_on_c, 10, 67, 110
9, 43936, Note_on_c, 10, 59, 0
9, 43936, Note_on_c, 10, 62, 0
9, 43936, Note_on_c, 10, 67, 0
9, 43968, Note_on_c, 10, 59, 110
9, 43968, Note_on_c, 10, 62, 110
9, 43968, Note_on_c, 10, 67, 110
9, 44128, Note_on_c, 10, 59, 0
9, 44128, Note_on_c, 10, 62, 0
9, 44128, Note_on_c, 10, 67, 0
9, 44160, Note_on_c, 10, 59, 110
9, 44160, Note_on_c, 10, 62, 110
9, 44160, Note_on_c, 10, 67, 110
9, 44320, Note_on_c, 10, 59, 0
9, 44320, Note_on_c, 10, 62, 0
9, 44320, Note_on_c, 10, 67, 0
9, 44352, Note_on_c, 10, 59, 110
9, 44352, Note_on_c, 10, 62, 110
9, 44352, Note_on_c, 10, 67, 110
9, 44512, Note_on_c, 10, 59, 0
9, 44512, Note_on_c, 10, 62, 0
9, 44512, Note_on_c, 10, 67, 0
9, 44544, Note_on_c, 10, 57, 110
9, 44544, Note_on_c, 10, 62, 110
9, 44544, Note_on_c, 10, 66, 110
9, 44704, Note_on_c, 10, 57, 0
9, 44704, Note_on_c, 10, 62, 0
9, 44704, Note_on_c, 10, 66, 0
9, 44736, Note_on_c, 10, 57, 110
9, 44736, Note_on_c, 10, 62, 110
9, 44736, Note_on_c, 10, 66, 110
9, 44896, Note_on_c, 10, 57, 0
9, 44896, Note_on_c, 10, 62, 0
9, 44896, Note_on_c, 10, 66, 0
9, 44928, Note_on_c, 10, 57, 110
9, 44928, Note_on_c, 10, 62, 110
9, 44928, Note_on_c, 10, 66, 110
9, 45088, Note_on_c, 10, 57, 0
9, 45088, Note_on_c, 10, 62, 0
9, 45088, Note_on_c, 10, 66, 0
9, 45120, Note_on_c, 10, 57, 110
9, 45120, Note_on_c, 10, 62, 110
9, 45120, Note_on_c, 10, 66, 110
9, 45280, Note_on_c, 10, 57, 0
9, 45280, Note_on_c, 10, 62, 0
9, 45280, Note_on_c, 10, 66, 0
9, 45312, Note_on_c, 10, 61, 110
9, 45312, Note_on_c, 10, 64, 110
9, 45312, Note_on_c, 10, 69, 110
9, 45472, Note_on_c, 10, 61, 0
9, 45472, Note_on_c, 10, 64, 0
9, 45472, Note_on_c, 10, 69, 0
9, 45504, Note_on_c, 10, 61, 110
9, 45504, Note_on_c, 10, 64, 110
9, 45504, Note_on_c, 10, 69, 110
9, 45664, Note_on_c, 10, 61, 0
9, 45664, Note_on_c, 10, 64, 0
9, 45664, Note_on_c, 10, 69, 0
9, 45696, Note_on_c, 10, 61, 110
9, 45696, Note_on_c, 10, 64, 110
9, 45696, Note_on_c, 10, 69, 110
9, 45856, Note_on_c, 10, 61, 0
9, 45856, Note_on_c, 10, 64, 0
9, 45856, Note_on_c, 10, 69, 0
9, 45888, Note_on_c, 10, 61, 110
9, 45888, Note_on_c, 10, 64, 110
9, 45888, Note_on_c, 10, 69, 110
9, 46048, Note_on_c, 10, 61, 0
9, 46048, Note_on_c, 10, 64, 0
9, 46048, Note_on_c, 10, 69, 0
9, 46080, Note_on_c, 10, 61, 110
9, 46080, Note_on_c, 10, 64, 110
9, 46080, Note_on_c, 10, 69, 110
9, 46240, Note_on_c, 10, 61, 0
9, 46240, Note_on_c, 10, 64, 0
9, 46240, Note_on_c, 10, 69, 0
9, 46272, Note_on_c, 10, 61, 110
9, 46272, Note_on_c, 10, 64, 110
9, 46272, Note_on_c, 10, 69, 110
9, 46432, Note_on_c, 10, 61, 0
9, 46432, Note_on_c, 10, 64, 0
9, 46432, Note_on_c, 10, 69, 0
9, 46464, Note_on_c, 10, 61, 110
9, 46464, Note_on_c, 10, 64, 110
9, 46464, Note_on_c, 10, 69, 110
9, 46624, Note_on_c, 10, 61, 0
9, 46624, Note_on_c, 10, 64, 0
9, 46624, Note_on_c, 10, 69, 0
9, 46656, Note_on_c, 10, 61, 110
9, 46656, Note_on_c, 10, 64, 110
9, 46656, Note_on_c, 10, 69, 110
9, 46816, Note_on_c, 10, 61, 0
9, 46816, Note_on_c, 10, 64, 0
9, 46816, Note_on_c, 10, 69, 0
9, 46848, Note_on_c, 10, 59, 110
9, 46848, Note_on_c, 10, 62, 110
9, 46848, Note_on_c, 10, 67, 110
9, 47008, Note_on_c, 10, 59, 0
9, 47008, Note_on_c, 10, 62, 0
9, 47008, Note_on_c, 10, 67, 0
9, 47040, Note_on_c, 10, 59, 110
9, 47040, Note_on_c, 10, 62, 110
9, 47040, Note_on_c, 10, 67, 110
9, 47200, Note_on_c, 10, 59, 0
9, 47200, Note_on_c, 10, 62, 0
9, 47200, Note_on_c, 10, 67, 0
9, 47232, Note_on_c, 10, 59, 110
9, 47232, Note_on_c, 10, 62, 110
9, 47232, Note_on_c, 10, 67, 110
9, 47392, Note_on_c, 10, 59, 0
9, 47392, Note_on_c, 10, 62, 0
9, 47392, Note_on_c, 10, 67, 0
9, 47424, Note_on_c, 10, 59, 110
9, 47424, Note_on_c, 10, 62, 110
9, 47424, Note_on_c, 10, 67, 110
9, 47584, Note_on_c, 10, 59, 0
9, 47584, Note_on_c, 10, 62, 0
9, 47584, Note_on_c, 10, 67, 0
9, 47616, Note_on_c, 10, 57, 110
9, 47616, Note_on_c, 10, 62, 110
9, 47616, Note_on_c, 10, 66, 110
9, 47776, Note_on_c, 10, 57, 0
9, 47776, Note_on_c, 10, 62, 0
9, 47776, Note_on_c, 10, 66, 0
9, 47808, Note_on_c, 10, 57, 110
9, 47808, Note_on_c, 10, 62, 110
9, 47808, Note_on_c, 10, 66, 110
9, 47968, Note_on_c, 10, 57, 0
9, 47968, Note_on_c, 10, 62, 0
9, 47968, Note_on_c, 10, 66, 0
9, 48000, Note_on_c, 10, 57, 110
9, 48000, Note_on_c, 10, 62, 110
9, 48000, Note_on_c, 10, 66, 110
9, 48160, Note_on_c, 10, 57, 0
9, 48160, Note_on_c, 10, 62, 0
9, 48160, Note_on_c, 10, 66, 0
9, 48192, Note_on_c, 10, 57, 110
9, 48192, Note_on_c, 10, 62, 110
9, 48192, Note_on_c, 10, 66, 110
9, 48352, Note_on_c, 10, 57, 0
9, 48352, Note_on_c, 10, 62, 0
9, 48352, Note_on_c, 10, 66, 0
9, 48384, Note_on_c, 10, 61, 110
9, 48384, Note_on_c, 10, 64, 110
9, 48384, Note_on_c, 10, 69, 110
9, 48544, Note_on_c, 10, 61, 0
9, 48544, Note_on_c, 10, 64, 0
9, 48544, Note_on_c, 10, 69, 0
9, 48576, Note_on_c, 10, 61, 110
9, 48576, Note_on_c, 10, 64, 110
9, 48576, Note_on_c, 10, 69, 110
9, 48736, Note_on_c, 10, 61, 0
9, 48736, Note_on_c, 10, 64, 0
9, 48736, Note_on_c, 10, 69, 0
9, 48768, Note_on_c, 10, 61, 110
9, 48768, Note_on_c, 10, 64, 110
9, 48768, Note_on_c, 10, 69, 110
9, 48928, Note_on_c, 10, 61, 0
9, 48928, Note_on_c, 10, 64, 0
9, 48928, Note_on_c, 10, 69, 0
9, 48960, Note_on_c, 10, 61, 110
9, 48960, Note_on_c, 10, 64, 110
9, 48960, Note_on_c, 10, 69, 110
9, 49120, Note_on_c, 10, 61, 0
9, 49120, Note_on_c, 10, 64, 0
9, 49120, Note_on_c, 10, 69, 0
9, 49152, Note_on_c, 10, 61, 110
9, 49152, Note_on_c, 10, 64, 110
9, 49152, Note_on_c, 10, 69, 110
9, 49312, Note_on_c, 10, 61, 0
9, 49312, Note_on_c, 10, 64, 0
9, 49312, Note_on_c, 10, 69, 0
9, 49344, Note_on_c, 10, 61, 110
9, 49344, Note_on_c, 10, 64, 110
9, 49344, Note_on_c, 10, 69, 110
9, 49504, Note_on_c, 10, 61, 0
9, 49504, Note_on_c, 10, 64, 0
9, 49504, Note_on_c, 10, 69, 0
9, 49536, Note_on_c, 10, 61, 110
9, 49536, Note_on_c, 10, 64, 110
9, 49536, Note_on_c, 10, 69, 110
9, 49696, Note_on_c, 10, 61, 0
9, 49696, Note_on_c, 10, 64, 0
9, 49696, Note_on_c, 10, 69, 0
9, 49728, Note_on_c, 10, 61, 110
9, 49728, Note_on_c, 10, 64, 110
9, 49728, Note_on_c, 10, 69, 110
9, 49888, Note_on_c, 10, 61, 0
9, 49888, Note_on_c, 10, 64, 0
9, 49888, Note_on_c, 10, 69, 0
9, 49920, Note_on_c, 10, 59, 110
9, 49920, Note_on_c, 10, 62, 110
9, 49920, Note_on_c, 10, 67, 110
9, 50080, Note_on_c, 10, 59, 0
9, 50080, Note_on_c, 10, 62, 0
9, 50080, Note_on_c, 10, 67, 0
9, 50112, Note_on_c, 10, 59, 110
9, 50112, Note_on_c, 10, 62, 110
9, 50112, Note_on_c, 10, 67, 110
9, 50272, Note_on_c, 10, 59, 0
9, 50272, Note_on_c, 10, 62, 0
9, 50272, Note_on_c, 10, 67, 0
9, 50304, Note_on_c, 10, 59, 110
9, 50304, Note_on_c, 10, 62, 110
9, 50304, Note_on_c, 10, 67, 110
9, 50464, Note_on_c, 10, 59, 0
9, 50464, Note_on_c, 10, 62, 0
9, 50464, Note_on_c, 10, 67, 0
9, 50496, Note_on_c, 10, 59, 110
9, 50496, Note_on_c, 10, 62, 110
9, 50496, Note_on_c, 10, 67, 110
9, 50656, Note_on_c, 10, 59, 0
9, 50656, Note_on_c, 10, 62, 0
9, 50656, Note_on_c, 10, 67, 0
9, 50688, Note_on_c, 10, 57, 110
9, 50688, Note_on_c, 10, 62, 110
9, 50688, Note_on_c, 10, 66, 110
9, 50848, Note_on_c, 10, 57, 0
9, 50848, Note_on_c, 10, 62, 0
9, 50848, Note_on_c, 10, 66, 0
9, 50880, Note_on_c, 10, 57, 110
9, 50880, Note_on_c, 10, 62, 110
9, 50880, Note_on_c, 10, 66, 110
9, 51040, Note_on_c, 10, 57, 0
9, 51040, Note_on_c, 10, 62, 0
9, 51040, Note_on_c, 10, 66, 0
9, 51072, Note_on_c, 10, 57, 110
9, 51072, Note_on_c, 10, 62, 110
9, 51072, Note_on_c, 10, 66, 110
9, 51232, Note_on_c, 10, 57, 0
9, 51232, Note_on_c, 10, 62, 0
9, 51232, Note_on_c, 10, 66, 0
9, 51264, Note_on_c, 10, 57, 110
9, 51264, Note_on_c, 10, 62, 110
9, 51264, Note_on_c, 10, 66, 110
9, 51424, Note_on_c, 10, 57, 0
9, 51424, Note_on_c, 10, 62, 0
9, 51424, Note_on_c, 10, 66, 0
9, 51456, Note_on_c, 10, 59, 110
9, 51456, Note_on_c, 10, 64, 110
9, 51456, Note_on_c, 10, 68, 110
9, 52944, Note_on_c, 10, 59, 0
9, 52944, Note_on_c, 10, 64, 0
9, 52944, Note_on_c, 10, 68, 0
9, 52992, Note_on_c, 10, 60, 110
9, 53014, Note_on_c, 10, 60, 0
9, 53016, Note_on_c, 10, 61, 110
9, 53016, Note_on_c, 10, 64, 110
9, 53016, Note_on_c, 10, 69, 110
9, 53182, Note_on_c, 10, 61, 0
9, 53182, Note_on_c, 10, 64, 0
9, 53182, Note_on_c, 10, 69, 0
9, 53184, Note_on_c, 10, 61, 110
9, 53184, Note_on_c, 10, 64, 110
9, 53184, Note_on_c, 10, 69, 110
9, 53344, Note_on_c, 10, 61, 0
9, 53344, Note_on_c, 10, 64, 0
9, 53344, Note_on_c, 10, 69, 0
9, 53376, Note_on_c, 10, 61, 110
9, 53376, Note_on_c, 10, 64, 110
9, 53376, Note_on_c, 10, 69, 110
9, 53536, Note_on_c, 10, 61, 0
9, 53536, Note_on_c, 10, 64, 0
9, 53536, Note_on_c, 10, 69, 0
9, 53568, Note_on_c, 10, 61, 110
9, 53568, Note_on_c, 10, 64, 110
9, 53568, Note_on_c, 10, 69, 110
9, 53728, Note_on_c, 10, 61, 0
9, 53728, Note_on_c, 10, 64, 0
9, 53728, Note_on_c, 10, 69, 0
9, 53760, Note_on_c, 10, 60, 110
9, 53760, Note_on_c, 10, 64, 110
9, 53760, Note_on_c, 10, 69, 110
9, 53920, Note_on_c, 10, 60, 0
9, 53920, Note_on_c, 10, 64, 0
9, 53920, Note_on_c, 10, 69, 0
9, 53952, Note_on_c, 10, 60, 110
9, 53952, Note_on_c, 10, 64, 110
9, 53952, Note_on_c, 10, 69, 110
9, 54112, Note_on_c, 10, 60, 0
9, 54112, Note_on_c, 10, 64, 0
9, 54112, Note_on_c, 10, 69, 0
9, 54144, Note_on_c, 10, 60, 110
9, 54144, Note_on_c, 10, 64, 110
9, 54144, Note_on_c, 10, 69, 110
9, 54304, Note_on_c, 10, 60, 0
9, 54304, Note_on_c, 10, 64, 0
9, 54304, Note_on_c, 10, 69, 0
9, 54336, Note_on_c, 10, 60, 110
9, 54336, Note_on_c, 10, 64, 110
9, 54336, Note_on_c, 10, 69, 110
9, 54496, Note_on_c, 10, 60, 0
9, 54496, Note_on_c, 10, 64, 0
9, 54496, Note_on_c, 10, 69, 0
9, 54528, Note_on_c, 10, 60, 110
9, 54550, Note_on_c, 10, 60, 0
9, 54552, Note_on_c, 10, 61, 110
9, 54552, Note_on_c, 10, 64, 110
9, 54552, Note_on_c, 10, 69, 110
9, 54718, Note_on_c, 10, 61, 0
9, 54718, Note_on_c, 10, 64, 0
9, 54718, Note_on_c, 10, 69, 0
9, 54720, Note_on_c, 10, 61, 110
9, 54720, Note_on_c, 10, 64, 110
9, 54720, Note_on_c, 10, 69, 110
9, 54880, Note_on_c, 10, 61, 0
9, 54880, Note_on_c, 10, 64, 0
9, 54880, Note_on_c, 10, 69, 0
9, 54912, Note_on_c, 10, 61, 110
9, 54912, Note_on_c, 10, 64, 110
9, 54912, Note_on_c, 10, 69, 110
9, 55072, Note_on_c, 10, 61, 0
9, 55072, Note_on_c, 10, 64, 0
9, 55072, Note_on_c, 10, 69, 0
9, 55104, Note_on_c, 10, 61, 110
9, 55104, Note_on_c, 10, 64, 110
9, 55104, Note_on_c, 10, 69, 110
9, 55264, Note_on_c, 10, 61, 0
9, 55264, Note_on_c, 10, 64, 0
9, 55264, Note_on_c, 10, 69, 0
9, 55296, Note_on_c, 10, 60, 110
9, 55296, Note_on_c, 10, 64, 110
9, 55296, Note_on_c, 10, 69, 110
9, 55456, Note_on_c, 10, 60, 0
9, 55456, Note_on_c, 10, 64, 0
9, 55456, Note_on_c, 10, 69, 0
9, 55488, Note_on_c, 10, 60, 110
9, 55488, Note_on_c, 10, 64, 110
9, 55488, Note_on_c, 10, 69, 110
9, 55648, Note_on_c, 10, 60, 0
9, 55648, Note_on_c, 10, 64, 0
9, 55648, Note_on_c, 10, 69, 0
9, 55680, Note_on_c, 10, 60, 110
9, 55680, Note_on_c, 10, 64, 110
9, 55680, Note_on_c, 10, 69, 110
9, 55840, Note_on_c, 10, 60, 0
9, 55840, Note_on_c, 10, 64, 0
9, 55840, Note_on_c, 10, 69, 0
9, 55872, Note_on_c, 10, 60, 110
9, 55872, Note_on_c, 10, 64, 110
9, 55872, Note_on_c, 10, 69, 110
9, 56032, Note_on_c, 10, 60, 0
9, 56032, Note_on_c, 10, 64, 0
9, 56032, Note_on_c, 10, 69, 0
9, 56064, Note_on_c, 10, 60, 110
9, 56086, Note_on_c, 10, 60, 0
9, 56088, Note_on_c, 10, 61, 110
9, 56088, Note_on_c, 10, 64, 110
9, 56088, Note_on_c, 10, 69, 110
9, 56254, Note_on_c, 10, 61, 0
9, 56254, Note_on_c, 10, 64, 0
9, 56254, Note_on_c, 10, 69, 0
9, 56256, Note_on_c, 10, 61, 110
9, 56256, Note_on_c, 10, 64, 110
9, 56256, Note_on_c, 10, 69, 110
9, 56416, Note_on_c, 10, 61, 0
9, 56416, Note_on_c, 10, 64, 0
9, 56416, Note_on_c, 10, 69, 0
9, 56448, Note_on_c, 10, 61, 110
9, 56448, Note_on_c, 10, 64, 110
9, 56448, Note_on_c, 10, 69, 110
9, 56608, Note_on_c, 10, 61, 0
9, 56608, Note_on_c, 10, 64, 0
9, 56608, Note_on_c, 10, 69, 0
9, 56640, Note_on_c, 10, 61, 110
9, 56640, Note_on_c, 10, 64, 110
9, 56640, Note_on_c, 10, 69, 110
9, 56800, Note_on_c, 10, 61, 0
9, 56800, Note_on_c, 10, 64, 0
9, 56800, Note_on_c, 10, 69, 0
9, 56832, Note_on_c, 10, 60, 110
9, 56832, Note_on_c, 10, 64, 110
9, 56832, Note_on_c, 10, 69, 110
9, 56992, Note_on_c, 10, 60, 0
9, 56992, Note_on_c, 10, 64, 0
9, 56992, Note_on_c, 10, 69, 0
9, 57024, Note_on_c, 10, 60, 110
9, 57024, Note_on_c, 10, 64, 110
9, 57024, Note_on_c, 10, 69, 110
9, 57184, Note_on_c, 10, 60, 0
9, 57184, Note_on_c, 10, 64, 0
9, 57184, Note_on_c, 10, 69, 0
9, 57216, Note_on_c, 10, 60, 110
9, 57216, Note_on_c, 10, 64, 110
9, 57216, Note_on_c, 10, 69, 110
9, 57376, Note_on_c, 10, 60, 0
9, 57376, Note_on_c, 10, 64, 0
9, 57376, Note_on_c, 10, 69, 0
9, 57408, Note_on_c, 10, 60, 110
9, 57408, Note_on_c, 10, 64, 110
9, 57408, Note_on_c, 10, 69, 110
9, 57568, Note_on_c, 10, 60, 0
9, 57568, Note_on_c, 10, 64, 0
9, 57568, Note_on_c, 10, 69, 0
9, 57600, Note_on_c, 10, 59, 110
9, 57600, Note_on_c, 10, 62, 110
9, 57600, Note_on_c, 10, 66, 110
9, 57600, Note_on_c, 10, 68, 110
9, 57760, Note_on_c, 10, 59, 0
9, 57760, Note_on_c, 10, 62, 0
9, 57760, Note_on_c, 10, 66, 0
9, 57760, Note_on_c, 10, 68, 0
9, 57792, Note_on_c, 10, 59, 110
9, 57792, Note_on_c, 10, 62, 110
9, 57792, Note_on_c, 10, 66, 110
9, 57792, Note_on_c, 10, 68, 110
9, 57952, Note_on_c, 10, 59, 0
9, 57952, Note_on_c, 10, 62, 0
9, 57952, Note_on_c, 10, 66, 0
9, 57952, Note_on_c, 10, 68, 0
9, 57984, Note_on_c, 10, 59, 110
9, 57984, Note_on_c, 10, 62, 110
9, 57984, Note_on_c, 10, 66, 110
9, 57984, Note_on_c, 10, 68, 110
9, 58144, Note_on_c, 10, 59, 0
9, 58144, Note_on_c, 10, 62, 0
9, 58144, Note_on_c, 10, 66, 0
9, 58144, Note_on_c, 10, 68, 0
9, 58176, Note_on_c, 10, 59, 110
9, 58176, Note_on_c, 10, 62, 110
9, 58176, Note_on_c, 10, 66, 110
9, 58176, Note_on_c, 10, 68, 110
9, 58336, Note_on_c, 10, 59, 0
9, 58336, Note_on_c, 10, 62, 0
9, 58336, Note_on_c, 10, 66, 0
9, 58336, Note_on_c, 10, 68, 0
9, 58368, Note_on_c, 10, 59, 110
9, 58368, Note_on_c, 10, 62, 110
9, 58368, Note_on_c, 10, 66, 110
9, 58368, Note_on_c, 10, 68, 110
9, 58528, Note_on_c, 10, 59, 0
9, 58528, Note_on_c, 10, 62, 0
9, 58528, Note_on_c, 10, 66, 0
9, 58528, Note_on_c, 10, 68, 0
9, 58560, Note_on_c, 10, 59, 110
9, 58560, Note_on_c, 10, 62, 110
9, 58560, Note_on_c, 10, 66, 110
9, 58560, Note_on_c, 10, 68, 110
9, 58720, Note_on_c, 10, 59, 0
9, 58720, Note_on_c, 10, 62, 0
9, 58720, Note_on_c, 10, 66, 0
9, 58720, Note_on_c, 10, 68, 0
9, 58752, Note_on_c, 10, 59, 110
9, 58752, Note_on_c, 10, 62, 110
9, 58752, Note_on_c, 10, 66, 110
9, 58752, Note_on_c, 10, 68, 110
9, 58912, Note_on_c, 10, 59, 0
9, 58912, Note_on_c, 10, 62, 0
9, 58912, Note_on_c, 10, 66, 0
9, 58912, Note_on_c, 10, 68, 0
9, 58944, Note_on_c, 10, 59, 110
9, 58944, Note_on_c, 10, 62, 110
9, 58944, Note_on_c, 10, 66, 110
9, 58944, Note_on_c, 10, 68, 110
9, 59104, Note_on_c, 10, 59, 0
9, 59104, Note_on_c, 10, 62, 0
9, 59104, Note_on_c, 10, 66, 0
9, 59104, Note_on_c, 10, 68, 0
9, 59136, Note_on_c, 10, 60, 110
9, 59158, Note_on_c, 10, 60, 0
9, 59160, Note_on_c, 10, 61, 110
9, 59160, Note_on_c, 10, 64, 110
9, 59160, Note_on_c, 10, 69, 110
9, 59326, Note_on_c, 10, 61, 0
9, 59326, Note_on_c, 10, 64, 0
9, 59326, Note_on_c, 10, 69, 0
9, 59328, Note_on_c, 10, 61, 110
9, 59328, Note_on_c, 10, 64, 110
9, 59328, Note_on_c, 10, 69, 110
9, 59488, Note_on_c, 10, 61, 0
9, 59488, Note_on_c, 10, 64, 0
9, 59488, Note_on_c, 10, 69, 0
9, 59520, Note_on_c, 10, 61, 110
9, 59520, Note_on_c, 10, 64, 110
9, 59520, Note_on_c, 10, 69, 110
9, 59680, Note_on_c, 10, 61, 0
9, 59680, Note_on_c, 10, 64, 0
9, 59680, Note_on_c, 10, 69, 0
9, 59712, Note_on_c, 10, 61, 110
9, 59712, Note_on_c, 10, 64, 110
9, 59712, Note_on_c, 10, 69, 110
9, 59872, Note_on_c, 10, 61, 0
9, 59872, Note_on_c, 10, 64, 0
9, 59872, Note_on_c, 10, 69, 0
9, 59904, Note_on_c, 10, 60, 110
9, 59904, Note_on_c, 10, 64, 110
9, 59904, Note_on_c, 10, 69, 110
9, 60064, Note_on_c, 10, 60, 0
9, 60064, Note_on_c, 10, 64, 0
9, 60064, Note_on_c, 10, 69, 0
9, 60096, Note_on_c, 10, 60, 110
9, 60096, Note_on_c, 10, 64, 110
9, 60096, Note_on_c, 10, 69, 110
9, 60256, Note_on_c, 10, 60, 0
9, 60256, Note_on_c, 10, 64, 0
9, 60256, Note_on_c, 10, 69, 0
9, 60288, Note_on_c, 10, 60, 110
9, 60288, Note_on_c, 10, 64, 110
9, 60288, Note_on_c, 10, 69, 110
9, 60448, Note_on_c, 10, 60, 0
9, 60448, Note_on_c, 10, 64, 0
9, 60448, Note_on_c, 10, 69, 0
9, 60480, Note_on_c, 10, 60, 110
9, 60480, Note_on_c, 10, 64, 110
9, 60480, Note_on_c, 10, 69, 110
9, 60640, Note_on_c, 10, 60, 0
9, 60640, Note_on_c, 10, 64, 0
9, 60640, Note_on_c, 10, 69, 0
9, 60672, Note_on_c, 10, 60, 110
9, 60694, Note_on_c, 10, 60, 0
9, 60696, Note_on_c, 10, 61, 110
9, 60696, Note_on_c, 10, 64, 110
9, 60696, Note_on_c, 10, 69, 110
9, 60862, Note_on_c, 10, 61, 0
9, 60862, Note_on_c, 10, 64, 0
9, 60862, Note_on_c, 10, 69, 0
9, 60864, Note_on_c, 10, 61, 110
9, 60864, Note_on_c, 10, 64, 110
9, 60864, Note_on_c, 10, 69, 110
9, 61024, Note_on_c, 10, 61, 0
9, 61024, Note_on_c, 10, 64, 0
9, 61024, Note_on_c, 10, 69, 0
9, 61056, Note_on_c, 10, 61, 110
9, 61056, Note_on_c, 10, 64, 110
9, 61056, Note_on_c, 10, 69, 110
9, 61216, Note_on_c, 10, 61, 0
9, 61216, Note_on_c, 10, 64, 0
9, 61216, Note_on_c, 10, 69, 0
9, 61248, Note_on_c, 10, 61, 110
9, 61248, Note_on_c, 10, 64, 110
9, 61248, Note_on_c, 10, 69, 110
9, 61408, Note_on_c, 10, 61, 0
9, 61408, Note_on_c, 10, 64, 0
9, 61408, Note_on_c, 10, 69, 0
9, 61440, Note_on_c, 10, 60, 110
9, 61440, Note_on_c, 10, 64, 110
9, 61440, Note_on_c, 10, 69, 110
9, 61600, Note_on_c, 10, 60, 0
9, 61600, Note_on_c, 10, 64, 0
9, 61600, Note_on_c, 10, 69, 0
9, 61632, Note_on_c, 10, 60, 110
9, 61632, Note_on_c, 10, 64, 110
9, 61632, Note_on_c, 10, 69, 110
9, 61792, Note_on_c, 10, 60, 0
9, 61792, Note_on_c, 10, 64, 0
9, 61792, Note_on_c, 10, 69, 0
9, 61824, Note_on_c, 10, 60, 110
9, 61824, Note_on_c, 10, 64, 110
9, 61824, Note_on_c, 10, 69, 110
9, 61984, Note_on_c, 10, 60, 0
9, 61984, Note_on_c, 10, 64, 0
9, 61984, Note_on_c, 10, 69, 0
9, 62016, Note_on_c, 10, 60, 110
9, 62016, Note_on_c, 10, 64, 110
9, 62016, Note_on_c, 10, 69, 110
9, 62176, Note_on_c, 10, 60, 0
9, 62176, Note_on_c, 10, 64, 0
9, 62176, Note_on_c, 10, 69, 0
9, 62208, Note_on_c, 10, 60, 110
9, 62230, Note_on_c, 10, 60, 0
9, 62232, Note_on_c, 10, 61, 110
9, 62232, Note_on_c, 10, 64, 110
9, 62232, Note_on_c, 10, 69, 110
9, 62398, Note_on_c, 10, 61, 0
9, 62398, Note_on_c, 10, 64, 0
9, 62398, Note_on_c, 10, 69, 0
9, 62400, Note_on_c, 10, 61, 110
9, 62400, Note_on_c, 10, 64, 110
9, 62400, Note_on_c, 10, 69, 110
9, 62560, Note_on_c, 10, 61, 0
9, 62560, Note_on_c, 10, 64, 0
9, 62560, Note_on_c, 10, 69, 0
9, 62592, Note_on_c, 10, 61, 110
9, 62592, Note_on_c, 10, 64, 110
9, 62592, Note_on_c, 10, 69, 110
9, 62752, Note_on_c, 10, 61, 0
9, 62752, Note_on_c, 10, 64, 0
9, 62752, Note_on_c, 10, 69, 0
9, 62784, Note_on_c, 10, 61, 110
9, 62784, Note_on_c, 10, 64, 110
9, 62784, Note_on_c, 10, 69, 110
9, 62944, Note_on_c, 10, 61, 0
9, 62944, Note_on_c, 10, 64, 0
9, 62944, Note_on_c, 10, 69, 0
9, 62976, Note_on_c, 10, 59, 110
9, 62976, Note_on_c, 10, 62, 110
9, 62976, Note_on_c, 10, 66, 110
9, 62976, Note_on_c, 10, 68, 110
9, 63136, Note_on_c, 10, 59, 0
9, 63136, Note_on_c, 10, 62, 0
9, 63136, Note_on_c, 10, 66, 0
9, 63136, Note_on_c, 10, 68, 0
9, 63168, Note_on_c, 10, 59, 110
9, 63168, Note_on_c, 10, 62, 110
9, 63168, Note_on_c, 10, 66, 110
9, 63168, Note_on_c, 10, 68, 110
9, 63328, Note_on_c, 10, 59, 0
9, 63328, Note_on_c, 10, 62, 0
9, 63328, Note_on_c, 10, 66, 0
9, 63328, Note_on_c, 10, 68, 0
9, 63360, Note_on_c, 10, 59, 110
9, 63360, Note_on_c, 10, 62, 110
9, 63360, Note_on_c, 10, 66, 110
9, 63360, Note_on_c, 10, 68, 110
9, 63520, Note_on_c, 10, 59, 0
9, 63520, Note_on_c, 10, 62, 0
9, 63520, Note_on_c, 10, 66, 0
9, 63520, Note_on_c, 10, 68, 0
9, 63552, Note_on_c, 10, 59, 110
9, 63552, Note_on_c, 10, 62, 110
9, 63552, Note_on_c, 10, 66, 110
9, 63552, Note_on_c, 10, 68, 110
9, 63712, Note_on_c, 10, 59, 0
9, 63712, Note_on_c, 10, 62, 0
9, 63712, Note_on_c, 10, 66, 0
9, 63712, Note_on_c, 10, 68, 0
9, 63744, Note_on_c, 10, 59, 110
9, 63744, Note_on_c, 10, 62, 110
9, 63744, Note_on_c, 10, 65, 110
9, 63744, Note_on_c, 10, 69, 110
9, 63904, Note_on_c, 10, 59, 0
9, 63904, Note_on_c, 10, 62, 0
9, 63904, Note_on_c, 10, 65, 0
9, 63904, Note_on_c, 10, 69, 0
9, 63936, Note_on_c, 10, 59, 110
9, 63936, Note_on_c, 10, 62, 110
9, 63936, Note_on_c, 10, 65, 110
9, 63936, Note_on_c, 10, 69, 110
9, 64096, Note_on_c, 10, 59, 0
9, 64096, Note_on_c, 10, 62, 0
9, 64096, Note_on_c, 10, 65, 0
9, 64096, Note_on_c, 10, 69, 0
9, 64128, Note_on_c, 10, 59, 110
9, 64128, Note_on_c, 10, 62, 110
9, 64128, Note_on_c, 10, 65, 110
9, 64128, Note_on_c, 10, 69, 110
9, 64288, Note_on_c, 10, 59, 0
9, 64288, Note_on_c, 10, 62, 0
9, 64288, Note_on_c, 10, 65, 0
9, 64288, Note_on_c, 10, 69, 0
9, 64320, Note_on_c, 10, 59, 110
9, 64320, Note_on_c, 10, 62, 110
9, 64320, Note_on_c, 10, 65, 110
9, 64320, Note_on_c, 10, 69, 110
9, 64480, Note_on_c, 10, 59, 0
9, 64480, Note_on_c, 10, 62, 0
9, 64480, Note_on_c, 10, 65, 0
9, 64480, Note_on_c, 10, 69, 0
9, 64512, Note_on_c, 10, 59, 110
9, 64512, Note_on_c, 10, 62, 110
9, 64512, Note_on_c, 10, 65, 110
9, 64512, Note_on_c, 10, 69, 110
9, 64672, Note_on_c, 10, 59, 0
9, 64672, Note_on_c, 10, 62, 0
9, 64672, Note_on_c, 10, 65, 0
9, 64672, Note_on_c, 10, 69, 0
9, 64704, Note_on_c, 10, 59, 110
9, 64704, Note_on_c, 10, 62, 110
9, 64704, Note_on_c, 10, 65, 110
9, 64704, Note_on_c, 10, 69, 110
9, 64864, Note_on_c, 10, 59, 0
9, 64864, Note_on_c, 10, 62, 0
9, 64864, Note_on_c, 10, 65, 0
9, 64864, Note_on_c, 10, 69, 0
9, 64896, Note_on_c, 10, 59, 110
9, 64896, Note_on_c, 10, 62, 110
9, 64896, Note_on_c, 10, 65, 110
9, 64896, Note_on_c, 10, 69, 110
9, 65056, Note_on_c, 10, 59, 0
9, 65056, Note_on_c, 10, 62, 0
9, 65056, Note_on_c, 10, 65, 0
9, 65056, Note_on_c, 10, 69, 0
9, 65088, Note_on_c, 10, 59, 110
9, 65088, Note_on_c, 10, 62, 110
9, 65088, Note_on_c, 10, 65, 110
9, 65088, Note_on_c, 10, 69, 110
9, 65248, Note_on_c, 10, 59, 0
9, 65248, Note_on_c, 10, 62, 0
9, 65248, Note_on_c, 10, 65, 0
9, 65248, Note_on_c, 10, 69, 0
9, 65280, Note_on_c, 10, 60, 110
9, 65302, Note_on_c, 10, 60, 0
9, 65304, Note_on_c, 10, 61, 110
9, 65304, Note_on_c, 10, 64, 110
9, 65304, Note_on_c, 10, 69, 110
9, 65470, Note_on_c, 10, 61, 0
9, 65470, Note_on_c, 10, 64, 0
9, 65470, Note_on_c, 10, 69, 0
9, 65472, Note_on_c, 10, 61, 110
9, 65472, Note_on_c, 10, 64, 110
9, 65472, Note_on_c, 10, 69, 110
9, 65632, Note_on_c, 10, 61, 0
9, 65632, Note_on_c, 10, 64, 0
9, 65632, Note_on_c, 10, 69, 0
9, 65664, Note_on_c, 10, 61, 110
9, 65664, Note_on_c, 10, 64, 110
9, 65664, Note_on_c, 10, 69, 110
9, 65824, Note_on_c, 10, 61, 0
9, 65824, Note_on_c, 10, 64, 0
9, 65824, Note_on_c, 10, 69, 0
9, 65856, Note_on_c, 10, 61, 110
9, 65856, Note_on_c, 10, 64, 110
9, 65856, Note_on_c, 10, 69, 110
9, 66016, Note_on_c, 10, 61, 0
9, 66016, Note_on_c, 10, 64, 0
9, 66016, Note_on_c, 10, 69, 0
9, 66048, Note_on_c, 10, 60, 110
9, 66048, Note_on_c, 10, 64, 110
9, 66048, Note_on_c, 10, 69, 110
9, 66208, Note_on_c, 10, 60, 0
9, 66208, Note_on_c, 10, 64, 0
9, 66208, Note_on_c, 10, 69, 0
9, 66240, Note_on_c, 10, 60, 110
9, 66240, Note_on_c, 10, 64, 110
9, 66240, Note_on_c, 10, 69, 110
9, 66400, Note_on_c, 10, 60, 0
9, 66400, Note_on_c, 10, 64, 0
9, 66400, Note_on_c, 10, 69, 0
9, 66432, Note_on_c, 10, 60, 110
9, 66432, Note_on_c, 10, 64, 110
9, 66432, Note_on_c, 10, 69, 110
9, 66592, Note_on_c, 10, 60, 0
9, 66592, Note_on_c, 10, 64, 0
9, 66592, Note_on_c, 10, 69, 0
9, 66624, Note_on_c, 10, 60, 110
9, 66624, Note_on_c, 10, 64, 110
9, 66624, Note_on_c, 10, 69, 110
9, 66784, Note_on_c, 10, 60, 0
9, 66784, Note_on_c, 10, 64, 0
9, 66784, Note_on_c, 10, 69, 0
9, 66816, Note_on_c, 10, 60, 110
9, 66838, Note_on_c, 10, 60, 0
9, 66840, Note_on_c, 10, 61, 110
9, 66840, Note_on_c, 10, 64, 110
9, 66840, Note_on_c, 10, 69, 110
9, 67006, Note_on_c, 10, 61, 0
9, 67006, Note_on_c, 10, 64, 0
9, 67006, Note_on_c, 10, 69, 0
9, 67008, Note_on_c, 10, 61, 110
9, 67008, Note_on_c, 10, 64, 110
9, 67008, Note_on_c, 10, 69, 110
9, 67168, Note_on_c, 10, 61, 0
9, 67168, Note_on_c, 10, 64, 0
9, 67168, Note_on_c, 10, 69, 0
9, 67200, Note_on_c, 10, 61, 110
9, 67200, Note_on_c, 10, 64, 110
9, 67200, Note_on_c, 10, 69, 110
9, 67360, Note_on_c, 10, 61, 0
9, 67360, Note_on_c, 10, 64, 0
9, 67360, Note_on_c, 10, 69, 0
9, 67392, Note_on_c, 10, 61, 110
9, 67392, Note_on_c, 10, 64, 110
9, 67392, Note_on_c, 10, 69, 110
9, 67552, Note_on_c, 10, 61, 0
9, 67552, Note_on_c, 10, 64, 0
9, 67552, Note_on_c, 10, 69, 0
9, 67584, Note_on_c, 10, 60, 110
9, 67584, Note_on_c, 10, 64, 110
9, 67584, Note_on_c, 10, 69, 110
9, 67744, Note_on_c, 10, 60, 0
9, 67744, Note_on_c, 10, 64, 0
9, 67744, Note_on_c, 10, 69, 0
9, 67776, Note_on_c, 10, 60, 110
9, 67776, Note_on_c, 10, 64, 110
9, 67776, Note_on_c, 10, 69, 110
9, 67936, Note_on_c, 10, 60, 0
9, 67936, Note_on_c, 10, 64, 0
9, 67936, Note_on_c, 10, 69, 0
9, 67968, Note_on_c, 10, 60, 110
9, 67968, Note_on_c, 10, 64, 110
9, 67968, Note_on_c, 10, 69, 110
9, 68128, Note_on_c, 10, 60, 0
9, 68128, Note_on_c, 10, 64, 0
9, 68128, Note_on_c, 10, 69, 0
9, 68160, Note_on_c, 10, 60, 110
9, 68160, Note_on_c, 10, 64, 110
9, 68160, Note_on_c, 10, 69, 110
9, 68320, Note_on_c, 10, 60, 0
9, 68320, Note_on_c, 10, 64, 0
9, 68320, Note_on_c, 10, 69, 0
9, 68352, Note_on_c, 10, 60, 110
9, 68374, Note_on_c, 10, 60, 0
9, 68376, Note_on_c, 10, 61, 110
9, 68376, Note_on_c, 10, 64, 110
9, 68376, Note_on_c, 10, 69, 110
9, 68542, Note_on_c, 10, 61, 0
9, 68542, Note_on_c, 10, 64, 0
9, 68542, Note_on_c, 10, 69, 0
9, 68544, Note_on_c, 10, 61, 110
9, 68544, Note_on_c, 10, 64, 110
9, 68544, Note_on_c, 10, 69, 110
9, 68704, Note_on_c, 10, 61, 0
9, 68704, Note_on_c, 10, 64, 0
9, 68704, Note_on_c, 10, 69, 0
9, 68736, Note_on_c, 10, 61, 110
9, 68736, Note_on_c, 10, 64, 110
9, 68736, Note_on_c, 10, 69, 110
9, 68896, Note_on_c, 10, 61, 0
9, 68896, Note_on_c, 10, 64, 0
9, 68896, Note_on_c, 10, 69, 0
9, 68928, Note_on_c, 10, 61, 110
9, 68928, Note_on_c, 10, 64, 110
9, 68928, Note_on_c, 10, 69, 110
9, 69088, Note_on_c, 10, 61, 0
9, 69088, Note_on_c, 10, 64, 0
9, 69088, Note_on_c, 10, 69, 0
9, 69120, Note_on_c, 10, 60, 110
9, 69120, Note_on_c, 10, 64, 110
9, 69120, Note_on_c, 10, 69, 110
9, 69280, Note_on_c, 10, 60, 0
9, 69280, Note_on_c, 10, 64, 0
9, 69280, Note_on_c, 10, 69, 0
9, 69312, Note_on_c, 10, 60, 110
9, 69312, Note_on_c, 10, 64, 110
9, 69312, Note_on_c, 10, 69, 110
9, 69472, Note_on_c, 10, 60, 0
9, 69472, Note_on_c, 10, 64, 0
9, 69472, Note_on_c, 10, 69, 0
9, 69504, Note_on_c, 10, 60, 110
9, 69504, Note_on_c, 10, 64, 110
9, 69504, Note_on_c, 10, 69, 110
9, 69664, Note_on_c, 10, 60, 0
9, 69664, Note_on_c, 10, 64, 0
9, 69664, Note_on_c, 10, 69, 0
9, 69696, Note_on_c, 10, 60, 110
9, 69696, Note_on_c, 10, 64, 110
9, 69696, Note_on_c, 10, 69, 110
9, 69856, Note_on_c, 10, 60, 0
9, 69856, Note_on_c, 10, 64, 0
9, 69856, Note_on_c, 10, 69, 0
9, 69888, Note_on_c, 10, 59, 110
9, 69888, Note_on_c, 10, 62, 110
9, 69888, Note_on_c, 10, 66, 110
9, 69888, Note_on_c, 10, 68, 110
9, 70048, Note_on_c, 10, 59, 0
9, 70048, Note_on_c, 10, 62, 0
9, 70048, Note_on_c, 10, 66, 0
9, 70048, Note_on_c, 10, 68, 0
9, 70080, Note_on_c, 10, 59, 110
9, 70080, Note_on_c, 10, 62, 110
9, 70080, Note_on_c, 10, 66, 110
9, 70080, Note_on_c, 10, 68, 110
9, 70240, Note_on_c, 10, 59, 0
9, 70240, Note_on_c, 10, 62, 0
9, 70240, Note_on_c, 10, 66, 0
9, 70240, Note_on_c, 10, 68, 0
9, 70272, Note_on_c, 10, 59, 110
9, 70272, Note_on_c, 10, 62, 110
9, 70272, Note_on_c, 10, 66, 110
9, 70272, Note_on_c, 10, 68, 110
9, 70432, Note_on_c, 10, 59, 0
9, 70432, Note_on_c, 10, 62, 0
9, 70432, Note_on_c, 10, 66, 0
9, 70432, Note_on_c, 10, 68, 0
9, 70464, Note_on_c, 10, 59, 110
9, 70464, Note_on_c, 10, 62, 110
9, 70464, Note_on_c, 10, 66, 110
9, 70464, Note_on_c, 10, 68, 110
9, 70624, Note_on_c, 10, 59, 0
9, 70624, Note_on_c, 10, 62, 0
9, 70624, Note_on_c, 10, 66, 0
9, 70624, Note_on_c, 10, 68, 0
9, 70656, Note_on_c, 10, 59, 110
9, 70656, Note_on_c, 10, 62, 110
9, 70656, Note_on_c, 10, 66, 110
9, 70656, Note_on_c, 10, 68, 110
9, 70816, Note_on_c, 10, 59, 0
9, 70816, Note_on_c, 10, 62, 0
9, 70816, Note_on_c, 10, 66, 0
9, 70816, Note_on_c, 10, 68, 0
9, 70848, Note_on_c, 10, 59, 110
9, 70848, Note_on_c, 10, 62, 110
9, 70848, Note_on_c, 10, 66, 110
9, 70848, Note_on_c, 10, 68, 110
9, 71008, Note_on_c, 10, 59, 0
9, 71008, Note_on_c, 10, 62, 0
9, 71008, Note_on_c, 10, 66, 0
9, 71008, Note_on_c, 10, 68, 0
9, 71040, Note_on_c, 10, 59, 110
9, 71040, Note_on_c, 10, 62, 110
9, 71040, Note_on_c, 10, 66, 110
9, 71040, Note_on_c, 10, 68, 110
9, 71200, Note_on_c, 10, 59, 0
9, 71200, Note_on_c, 10, 62, 0
9, 71200, Note_on_c, 10, 66, 0
9, 71200, Note_on_c, 10, 68, 0
9, 71232, Note_on_c, 10, 59, 110
9, 71232, Note_on_c, 10, 62, 110
9, 71232, Note_on_c, 10, 66, 110
9, 71232, Note_on_c, 10, 68, 110
9, 71392, Note_on_c, 10, 59, 0
9, 71392, Note_on_c, 10, 62, 0
9, 71392, Note_on_c, 10, 66, 0
9, 71392, Note_on_c, 10, 68, 0
9, 71424, Note_on_c, 10, 60, 110
9, 71446, Note_on_c, 10, 60, 0
9, 71448, Note_on_c, 10, 61, 110
9, 71448, Note_on_c, 10, 64, 110
9, 71448, Note_on_c, 10, 69, 110
9, 71614, Note_on_c, 10, 61, 0
9, 71614, Note_on_c, 10, 64, 0
9, 71614, Note_on_c, 10, 69, 0
9, 71616, Note_on_c, 10, 61, 110
9, 71616, Note_on_c, 10, 64, 110
9, 71616, Note_on_c, 10, 69, 110
9, 71776, Note_on_c, 10, 61, 0
9, 71776, Note_on_c, 10, 64, 0
9, 71776, Note_on_c, 10, 69, 0
9, 71808, Note_on_c, 10, 61, 110
9, 71808, Note_on_c, 10, 64, 110
9, 71808, Note_on_c, 10, 69, 110
9, 71968, Note_on_c, 10, 61, 0
9, 71968, Note_on_c, 10, 64, 0
9, 71968, Note_on_c, 10, 69, 0
9, 72000, Note_on_c, 10, 61, 110
9, 72000, Note_on_c, 10, 64, 110
9, 72000, Note_on_c, 10, 69, 110
9, 72160, Note_on_c, 10, 61, 0
9, 72160, Note_on_c, 10, 64, 0
9, 72160, Note_on_c, 10, 69, 0
9, 72192, Note_on_c, 10, 60, 110
9, 72192, Note_on_c, 10, 64, 110
9, 72192, Note_on_c, 10, 69, 110
9, 72352, Note_on_c, 10, 60, 0
9, 72352, Note_on_c, 10, 64, 0
9, 72352, Note_on_c, 10, 69, 0
9, 72384, Note_on_c, 10, 60, 110
9, 72384, Note_on_c, 10, 64, 110
9, 72384, Note_on_c, 10, 69, 110
9, 72544, Note_on_c, 10, 60, 0
9, 72544, Note_on_c, 10, 64, 0
9, 72544, Note_on_c, 10, 69, 0
9, 72576, Note_on_c, 10, 60, 110
9, 72576, Note_on_c, 10, 64, 110
9, 72576, Note_on_c, 10, 69, 110
9, 72736, Note_on_c, 10, 60, 0
9, 72736, Note_on_c, 10, 64, 0
9, 72736, Note_on_c, 10, 69, 0
9, 72768, Note_on_c, 10, 60, 110
9, 72768, Note_on_c, 10, 64, 110
9, 72768, Note_on_c, 10, 69, 110
9, 72928, Note_on_c, 10, 60, 0
9, 72928, Note_on_c, 10, 64, 0
9, 72928, Note_on_c, 10, 69, 0
9, 72960, Note_on_c, 10, 60, 110
9, 72982, Note_on_c, 10, 60, 0
9, 72984, Note_on_c, 10, 61, 110
9, 72984, Note_on_c, 10, 64, 110
9, 72984, Note_on_c, 10, 69, 110
9, 73150, Note_on_c, 10, 61, 0
9, 73150, Note_on_c, 10, 64, 0
9, 73150, Note_on_c, 10, 69, 0
9, 73152, Note_on_c, 10, 61, 110
9, 73152, Note_on_c, 10, 64, 110
9, 73152, Note_on_c, 10, 69, 110
9, 73312, Note_on_c, 10, 61, 0
9, 73312, Note_on_c, 10, 64, 0
9, 73312, Note_on_c, 10, 69, 0
9, 73344, Note_on_c, 10, 61, 110
9, 73344, Note_on_c, 10, 64, 110
9, 73344, Note_on_c, 10, 69, 110
9, 73504, Note_on_c, 10, 61, 0
9, 73504, Note_on_c, 10, 64, 0
9, 73504, Note_on_c, 10, 69, 0
9, 73536, Note_on_c, 10, 61, 110
9, 73536, Note_on_c, 10, 64, 110
9, 73536, Note_on_c, 10, 69, 110
9, 73696, Note_on_c, 10, 61, 0
9, 73696, Note_on_c, 10, 64, 0
9, 73696, Note_on_c, 10, 69, 0
9, 73728, Note_on_c, 10, 60, 110
9, 73728, Note_on_c, 10, 64, 110
9, 73728, Note_on_c, 10, 69, 110
9, 73888, Note_on_c, 10, 60, 0
9, 73888, Note_on_c, 10, 64, 0
9, 73888, Note_on_c, 10, 69, 0
9, 73920, Note_on_c, 10, 60, 110
9, 73920, Note_on_c, 10, 64, 110
9, 73920, Note_on_c, 10, 69, 110
9, 74080, Note_on_c, 10, 60, 0
9, 74080, Note_on_c, 10, 64, 0
9, 74080, Note_on_c, 10, 69, 0
9, 74112, Note_on_c, 10, 60, 110
9, 74112, Note_on_c, 10, 64, 110
9, 74112, Note_on_c, 10, 69, 110
9, 74272, Note_on_c, 10, 60, 0
9, 74272, Note_on_c, 10, 64, 0
9, 74272, Note_on_c, 10, 69, 0
9, 74304, Note_on_c, 10, 60, 110
9, 74304, Note_on_c, 10, 64, 110
9, 74304, Note_on_c, 10, 69, 110
9, 74464, Note_on_c, 10, 60, 0
9, 74464, Note_on_c, 10, 64, 0
9, 74464, Note_on_c, 10, 69, 0
9, 74496, Note_on_c, 10, 60, 110
9, 74518, Note_on_c, 10, 60, 0
9, 74520, Note_on_c, 10, 61, 110
9, 74520, Note_on_c, 10, 64, 110
9, 74520, Note_on_c, 10, 69, 110
9, 74686, Note_on_c, 10, 61, 0
9, 74686, Note_on_c, 10, 64, 0
9, 74686, Note_on_c, 10, 69, 0
9, 74688, Note_on_c, 10, 61, 110
9, 74688, Note_on_c, 10, 64, 110
9, 74688, Note_on_c, 10, 69, 110
9, 74848, Note_on_c, 10, 61, 0
9, 74848, Note_on_c, 10, 64, 0
9, 74848, Note_on_c, 10, 69, 0
9, 74880, Note_on_c, 10, 61, 110
9, 74880, Note_on_c, 10, 64, 110
9, 74880, Note_on_c, 10, 69, 110
9, 75040, Note_on_c, 10, 61, 0
9, 75040, Note_on_c, 10, 64, 0
9, 75040, Note_on_c, 10, 69, 0
9, 75072, Note_on_c, 10, 61, 110
9, 75072, Note_on_c, 10, 64, 110
9, 75072, Note_on_c, 10, 69, 110
9, 75232, Note_on_c, 10, 61, 0
9, 75232, Note_on_c, 10, 64, 0
9, 75232, Note_on_c, 10, 69, 0
9, 75264, Note_on_c, 10, 59, 110
9, 75264, Note_on_c, 10, 62, 110
9, 75264, Note_on_c, 10, 66, 110
9, 75264, Note_on_c, 10, 68, 110
9, 75424, Note_on_c, 10, 59, 0
9, 75424, Note_on_c, 10, 62, 0
9, 75424, Note_on_c, 10, 66, 0
9, 75424, Note_on_c, 10, 68, 0
9, 75456, Note_on_c, 10, 59, 110
9, 75456, Note_on_c, 10, 62, 110
9, 75456, Note_on_c, 10, 66, 110
9, 75456, Note_on_c, 10, 68, 110
9, 75616, Note_on_c, 10, 59, 0
9, 75616, Note_on_c, 10, 62, 0
9, 75616, Note_on_c, 10, 66, 0
9, 75616, Note_on_c, 10, 68, 0
9, 75648, Note_on_c, 10, 59, 110
9, 75648, Note_on_c, 10, 62, 110
9, 75648, Note_on_c, 10, 66, 110
9, 75648, Note_on_c, 10, 68, 110
9, 75808, Note_on_c, 10, 59, 0
9, 75808, Note_on_c, 10, 62, 0
9, 75808, Note_on_c, 10, 66, 0
9, 75808, Note_on_c, 10, 68, 0
9, 75840, Note_on_c, 10, 59, 110
9, 75840, Note_on_c, 10, 62, 110
9, 75840, Note_on_c, 10, 66, 110
9, 75840, Note_on_c, 10, 68, 110
9, 76000, Note_on_c, 10, 59, 0
9, 76000, Note_on_c, 10, 62, 0
9, 76000, Note_on_c, 10, 66, 0
9, 76000, Note_on_c, 10, 68, 0
9, 76032, Note_on_c, 10, 57, 110
9, 76032, Note_on_c, 10, 62, 110
9, 76032, Note_on_c, 10, 64, 110
9, 76032, Note_on_c, 10, 67, 110
9, 76192, Note_on_c, 10, 57, 0
9, 76192, Note_on_c, 10, 62, 0
9, 76192, Note_on_c, 10, 64, 0
9, 76192, Note_on_c, 10, 67, 0
9, 76224, Note_on_c, 10, 57, 110
9, 76224, Note_on_c, 10, 62, 110
9, 76224, Note_on_c, 10, 64, 110
9, 76224, Note_on_c, 10, 67, 110
9, 76384, Note_on_c, 10, 57, 0
9, 76384, Note_on_c, 10, 62, 0
9, 76384, Note_on_c, 10, 64, 0
9, 76384, Note_on_c, 10, 67, 0
9, 76416, Note_on_c, 10, 57, 110
9, 76416, Note_on_c, 10, 62, 110
9, 76416, Note_on_c, 10, 64, 110
9, 76416, Note_on_c, 10, 67, 110
9, 76576, Note_on_c, 10, 57, 0
9, 76576, Note_on_c, 10, 62, 0
9, 76576, Note_on_c, 10, 64, 0
9, 76576, Note_on_c, 10, 67, 0
9, 76608, Note_on_c, 10, 57, 110
9, 76608, Note_on_c, 10, 62, 110
9, 76608, Note_on_c, 10, 64, 110
9, 76608, Note_on_c, 10, 67, 110
9, 76768, Note_on_c, 10, 57, 0
9, 76768, Note_on_c, 10, 62, 0
9, 76768, Note_on_c, 10, 64, 0
9, 76768, Note_on_c, 10, 67, 0
9, 76800, Note_on_c, 10, 57, 110
9, 76800, Note_on_c, 10, 62, 110
9, 76800, Note_on_c, 10, 64, 110
9, 76800, Note_on_c, 10, 67, 110
9, 76960, Note_on_c, 10, 57, 0
9, 76960, Note_on_c, 10, 62, 0
9, 76960, Note_on_c, 10, 64, 0
9, 76960, Note_on_c, 10, 67, 0
9, 76992, Note_on_c, 10, 57, 110
9, 76992, Note_on_c, 10, 62, 110
9, 76992, Note_on_c, 10, 64, 110
9, 76992, Note_on_c, 10, 67, 110
9, 77152, Note_on_c, 10, 57, 0
9, 77152, Note_on_c, 10, 62, 0
9, 77152, Note_on_c, 10, 64, 0
9, 77152, Note_on_c, 10, 67, 0
9, 77184, Note_on_c, 10, 57, 110
9, 77184, Note_on_c, 10, 62, 110
9, 77184, Note_on_c, 10, 64, 110
9, 77184, Note_on_c, 10, 67, 110
9, 77344, Note_on_c, 10, 57, 0
9, 77344, Note_on_c, 10, 62, 0
9, 77344, Note_on_c, 10, 64, 0
9, 77344, Note_on_c, 10, 67, 0
9, 77376, Note_on_c, 10, 57, 110
9, 77376, Note_on_c, 10, 62, 110
9, 77376, Note_on_c, 10, 64, 110
9, 77376, Note_on_c, 10, 67, 110
9, 77536, Note_on_c, 10, 57, 0
9, 77536, Note_on_c, 10, 62, 0
9, 77536, Note_on_c, 10, 64, 0
9, 77536, Note_on_c, 10, 67, 0
9, 77568, Note_on_c, 10, 59, 110
9, 77568, Note_on_c, 10, 62, 110
9, 77568, Note_on_c, 10, 67, 110
9, 77728, Note_on_c, 10, 59, 0
9, 77728, Note_on_c, 10, 62, 0
9, 77728, Note_on_c, 10, 67, 0
9, 77760, Note_on_c, 10, 59, 110
9, 77760, Note_on_c, 10, 62, 110
9, 77760, Note_on_c, 10, 67, 110
9, 77920, Note_on_c, 10, 59, 0
9, 77920, Note_on_c, 10, 62, 0
9, 77920, Note_on_c, 10, 67, 0
9, 77952, Note_on_c, 10, 59, 110
9, 77952, Note_on_c, 10, 62, 110
9, 77952, Note_on_c, 10, 67, 110
9, 78112, Note_on_c, 10, 59, 0
9, 78112, Note_on_c, 10, 62, 0
9, 78112, Note_on_c, 10, 67, 0
9, 78144, Note_on_c, 10, 59, 110
9, 78144, Note_on_c, 10, 62, 110
9, 78144, Note_on_c, 10, 67, 110
9, 78304, Note_on_c, 10, 59, 0
9, 78304, Note_on_c, 10, 62, 0
9, 78304, Note_on_c, 10, 67, 0
9, 78336, Note_on_c, 10, 57, 110
9, 78336, Note_on_c, 10, 62, 110
9, 78336, Note_on_c, 10, 66, 110
9, 78496, Note_on_c, 10, 57, 0
9, 78496, Note_on_c, 10, 62, 0
9, 78496, Note_on_c, 10, 66, 0
9, 78528, Note_on_c, 10, 57, 110
9, 78528, Note_on_c, 10, 62, 110
9, 78528, Note_on_c, 10, 66, 110
9, 78688, Note_on_c, 10, 57, 0
9, 78688, Note_on_c, 10, 62, 0
9, 78688, Note_on_c, 10, 66, 0
9, 78720, Note_on_c, 10, 57, 110
9, 78720, Note_on_c, 10, 62, 110
9, 78720, Note_on_c, 10, 66, 110
9, 78880, Note_on_c, 10, 57, 0
9, 78880, Note_on_c, 10, 62, 0
9, 78880, Note_on_c, 10, 66, 0
9, 78912, Note_on_c, 10, 57, 110
9, 78912, Note_on_c, 10, 62, 110
9, 78912, Note_on_c, 10, 66, 110
9, 79072, Note_on_c, 10, 57, 0
9, 79072, Note_on_c, 10, 62, 0
9, 79072, Note_on_c, 10, 66, 0
9, 79104, Note_on_c, 10, 61, 110
9, 79104, Note_on_c, 10, 64, 110
9, 79104, Note_on_c, 10, 69, 110
9, 79264, Note_on_c, 10, 61, 0
9, 79264, Note_on_c, 10, 64, 0
9, 79264, Note_on_c, 10, 69, 0
9, 79296, Note_on_c, 10, 61, 110
9, 79296, Note_on_c, 10, 64, 110
9, 79296, Note_on_c, 10, 69, 110
9, 79456, Note_on_c, 10, 61, 0
9, 79456, Note_on_c, 10, 64, 0
9, 79456, Note_on_c, 10, 69, 0
9, 79488, Note_on_c, 10, 61, 110
9, 79488, Note_on_c, 10, 64, 110
9, 79488, Note_on_c, 10, 69, 110
9, 79648, Note_on_c, 10, 61, 0
9, 79648, Note_on_c, 10, 64, 0
9, 79648, Note_on_c, 10, 69, 0
9, 79680, Note_on_c, 10, 61, 110
9, 79680, Note_on_c, 10, 64, 110
9, 79680, Note_on_c, 10, 69, 110
9, 79840, Note_on_c, 10, 61, 0
9, 79840, Note_on_c, 10, 64, 0
9, 79840, Note_on_c, 10, 69, 0
9, 79872, Note_on_c, 10, 61, 110
9, 79872, Note_on_c, 10, 64, 110
9, 79872, Note_on_c, 10, 69, 110
9, 80032, Note_on_c, 10, 61, 0
9, 80032, Note_on_c, 10, 64, 0
9, 80032, Note_on_c, 10, 69, 0
9, 80064, Note_on_c, 10, 61, 110
9, 80064, Note_on_c, 10, 64, 110
9, 80064, Note_on_c, 10, 69, 110
9, 80224, Note_on_c, 10, 61, 0
9, 80224, Note_on_c, 10, 64, 0
9, 80224, Note_on_c, 10, 69, 0
9, 80256, Note_on_c, 10, 61, 110
9, 80256, Note_on_c, 10, 64, 110
9, 80256, Note_on_c, 10, 69, 110
9, 80416, Note_on_c, 10, 61, 0
9, 80416, Note_on_c, 10, 64, 0
9, 80416, Note_on_c, 10, 69, 0
9, 80448, Note_on_c, 10, 61, 110
9, 80448, Note_on_c, 10, 64, 110
9, 80448, Note_on_c, 10, 69, 110
9, 80608, Note_on_c, 10, 61, 0
9, 80608, Note_on_c, 10, 64, 0
9, 80608, Note_on_c, 10, 69, 0
9, 80640, Note_on_c, 10, 59, 110
9, 80640, Note_on_c, 10, 62, 110
9, 80640, Note_on_c, 10, 67, 110
9, 80800, Note_on_c, 10, 59, 0
9, 80800, Note_on_c, 10, 62, 0
9, 80800, Note_on_c, 10, 67, 0
9, 80832, Note_on_c, 10, 59, 110
9, 80832, Note_on_c, 10, 62, 110
9, 80832, Note_on_c, 10, 67, 110
9, 80992, Note_on_c, 10, 59, 0
9, 80992, Note_on_c, 10, 62, 0
9, 80992, Note_on_c, 10, 67, 0
9, 81024, Note_on_c, 10, 59, 110
9, 81024, Note_on_c, 10, 62, 110
9, 81024, Note_on_c, 10, 67, 110
9, 81184, Note_on_c, 10, 59, 0
9, 81184, Note_on_c, 10, 62, 0
9, 81184, Note_on_c, 10, 67, 0
9, 81216, Note_on_c, 10, 59, 110
9, 81216, Note_on_c, 10, 62, 110
9, 81216, Note_on_c, 10, 67, 110
9, 81376, Note_on_c, 10, 59, 0
9, 81376, Note_on_c, 10, 62, 0
9, 81376, Note_on_c, 10, 67, 0
9, 81408, Note_on_c, 10, 57, 110
9, 81408, Note_on_c, 10, 62, 110
9, 81408, Note_on_c, 10, 66, 110
9, 81568, Note_on_c, 10, 57, 0
9, 81568, Note_on_c, 10, 62, 0
9, 81568, Note_on_c, 10, 66, 0
9, 81600, Note_on_c, 10, 57, 110
9, 81600, Note_on_c, 10, 62, 110
9, 81600, Note_on_c, 10, 66, 110
9, 81760, Note_on_c, 10, 57, 0
9, 81760, Note_on_c, 10, 62, 0
9, 81760, Note_on_c, 10, 66, 0
9, 81792, Note_on_c, 10, 57, 110
9, 81792, Note_on_c, 10, 62, 110
9, 81792, Note_on_c, 10, 66, 110
9, 81952, Note_on_c, 10, 57, 0
9, 81952, Note_on_c, 10, 62, 0
9, 81952, Note_on_c, 10, 66, 0
9, 81984, Note_on_c, 10, 57, 110
9, 81984, Note_on_c, 10, 62, 110
9, 81984, Note_on_c, 10, 66, 110
9, 82144, Note_on_c, 10, 57, 0
9, 82144, Note_on_c, 10, 62, 0
9, 82144, Note_on_c, 10, 66, 0
9, 82176, Note_on_c, 10, 61, 110
9, 82176, Note_on_c, 10, 64, 110
9, 82176, Note_on_c, 10, 69, 110
9, 82336, Note_on_c, 10, 61, 0
9, 82336, Note_on_c, 10, 64, 0
9, 82336, Note_on_c, 10, 69, 0
9, 82368, Note_on_c, 10, 61, 110
9, 82368, Note_on_c, 10, 64, 110
9, 82368, Note_on_c, 10, 69, 110
9, 82528, Note_on_c, 10, 61, 0
9, 82528, Note_on_c, 10, 64, 0
9, 82528, Note_on_c, 10, 69, 0
9, 82560, Note_on_c, 10, 61, 110
9, 82560, Note_on_c, 10, 64, 110
9, 82560, Note_on_c, 10, 69, 110
9, 82720, Note_on_c, 10, 61, 0
9, 82720, Note_on_c, 10, 64, 0
9, 82720, Note_on_c, 10, 69, 0
9, 82752, Note_on_c, 10, 61, 110
9, 82752, Note_on_c, 10, 64, 110
9, 82752, Note_on_c, 10, 69, 110
9, 82912, Note_on_c, 10, 61, 0
9, 82912, Note_on_c, 10, 64, 0
9, 82912, Note_on_c, 10, 69, 0
9, 82944, Note_on_c, 10, 61, 110
9, 82944, Note_on_c, 10, 64, 110
9, 82944, Note_on_c, 10, 69, 110
9, 83104, Note_on_c, 10, 61, 0
9, 83104, Note_on_c, 10, 64, 0
9, 83104, Note_on_c, 10, 69, 0
9, 83136, Note_on_c, 10, 61, 110
9, 83136, Note_on_c, 10, 64, 110
9, 83136, Note_on_c, 10, 69, 110
9, 83296, Note_on_c, 10, 61, 0
9, 83296, Note_on_c, 10, 64, 0
9, 83296, Note_on_c, 10, 69, 0
9, 83328, Note_on_c, 10, 61, 110
9, 83328, Note_on_c, 10, 64, 110
9, 83328, Note_on_c, 10, 69, 110
9, 83488, Note_on_c, 10, 61, 0
9, 83488, Note_on_c, 10, 64, 0
9, 83488, Note_on_c, 10, 69, 0
9, 83520, Note_on_c, 10, 61, 110
9, 83520, Note_on_c, 10, 64, 110
9, 83520, Note_on_c, 10, 69, 110
9, 83680, Note_on_c, 10, 61, 0
9, 83680, Note_on_c, 10, 64, 0
9, 83680, Note_on_c, 10, 69, 0
9, 83712, Note_on_c, 10, 59, 110
9, 83712, Note_on_c, 10, 62, 110
9, 83712, Note_on_c, 10, 67, 110
9, 83872, Note_on_c, 10, 59, 0
9, 83872, Note_on_c, 10, 62, 0
9, 83872, Note_on_c, 10, 67, 0
9, 83904, Note_on_c, 10, 59, 110
9, 83904, Note_on_c, 10, 62, 110
9, 83904, Note_on_c, 10, 67, 110
9, 84064, Note_on_c, 10, 59, 0
9, 84064, Note_on_c, 10, 62, 0
9, 84064, Note_on_c, 10, 67, 0
9, 84096, Note_on_c, 10, 59, 110
9, 84096, Note_on_c, 10, 62, 110
9, 84096, Note_on_c, 10, 67, 110
9, 84256, Note_on_c, 10, 59, 0
9, 84256, Note_on_c, 10, 62, 0
9, 84256, Note_on_c, 10, 67, 0
9, 84288, Note_on_c, 10, 59, 110
9, 84288, Note_on_c, 10, 62, 110
9, 84288, Note_on_c, 10, 67, 110
9, 84448, Note_on_c, 10, 59, 0
9, 84448, Note_on_c, 10, 62, 0
9, 84448, Note_on_c, 10, 67, 0
9, 84480, Note_on_c, 10, 57, 110
9, 84480, Note_on_c, 10, 62, 110
9, 84480, Note_on_c, 10, 66, 110
9, 84640, Note_on_c, 10, 57, 0
9, 84640, Note_on_c, 10, 62, 0
9, 84640, Note_on_c, 10, 66, 0
9, 84672, Note_on_c, 10, 57, 110
9, 84672, Note_on_c, 10, 62, 110
9, 84672, Note_on_c, 10, 66, 110
9, 84832, Note_on_c, 10, 57, 0
9, 84832, Note_on_c, 10, 62, 0
9, 84832, Note_on_c, 10, 66, 0
9, 84864, Note_on_c, 10, 57, 110
9, 84864, Note_on_c, 10, 62, 110
9, 84864, Note_on_c, 10, 66, 110
9, 85024, Note_on_c, 10, 57, 0
9, 85024, Note_on_c, 10, 62, 0
9, 85024, Note_on_c, 10, 66, 0
9, 85056, Note_on_c, 10, 57, 110
9, 85056, Note_on_c, 10, 62, 110
9, 85056, Note_on_c, 10, 66, 110
9, 85216, Note_on_c, 10, 57, 0
9, 85216, Note_on_c, 10, 62, 0
9, 85216, Note_on_c, 10, 66, 0
9, 85248, Note_on_c, 10, 61, 110
9, 85248, Note_on_c, 10, 64, 110
9, 85248, Note_on_c, 10, 69, 110
9, 85408, Note_on_c, 10, 61, 0
9, 85408, Note_on_c, 10, 64, 0
9, 85408, Note_on_c, 10, 69, 0
9, 85440, Note_on_c, 10, 60, 110
9, 85440, Note_on_c, 10, 63, 110
9, 85440, Note_on_c, 10, 68, 110
9, 85534, Note_on_c, 10, 60, 0
9, 85534, Note_on_c, 10, 63, 0
9, 85534, Note_on_c, 10, 68, 0
9, 85536, Note_on_c, 10, 61, 110
9, 85536, Note_on_c, 10, 64, 110
9, 85536, Note_on_c, 10, 69, 110
9, 85630, Note_on_c, 10, 61, 0
9, 85630, Note_on_c, 10, 64, 0
9, 85630, Note_on_c, 10, 69, 0
9, 85824, Note_on_c, 10, 63, 110
9, 85824, Note_on_c, 10, 68, 110
9, 85824, Note_on_c, 10, 72, 110
9, 85918, Note_on_c, 10, 63, 0
9, 85918, Note_on_c, 10, 68, 0
9, 85918, Note_on_c, 10, 72, 0
9, 85920, Note_on_c, 10, 64, 110
9, 85920, Note_on_c, 10, 69, 110
9, 85920, Note_on_c, 10, 73, 110
9, 86014, Note_on_c, 10, 64, 0
9, 86014, Note_on_c, 10, 69, 0
9, 86014, Note_on_c, 10, 73, 0
9, 86208, Note_on_c, 10, 61, 110
9, 86208, Note_on_c, 10, 64, 110
9, 86208, Note_on_c, 10, 69, 110
9, 86302, Note_on_c, 10, 61, 0
9, 86302, Note_on_c, 10, 64, 0
9, 86302, Note_on_c, 10, 69, 0
9, 86304, Note_on_c, 10, 64, 110
9, 86304, Note_on_c, 10, 69, 110
9, 86304, Note_on_c, 10, 73, 110
9, 86736, Note_on_c, 10, 64, 0
9, 86736, Note_on_c, 10, 69, 0
9, 86736, Note_on_c, 10, 73, 0
9, 86784, Program_c, 10, 19
9, 86784, Note_on_c, 10, 62, 110
9, 86784, Note_on_c, 10, 68, 110
9, 86784, Note_on_c, 10, 71, 110
9, 87168, Note_on_c, 10, 66, 110
9, 87504, Note_on_c, 10, 66, 0
9, 88272, Note_on_c, 10, 62, 0
9, 88272, Note_on_c, 10, 68, 0
9, 88272, Note_on_c, 10, 71, 0
9, 88320, Note_on_c, 10, 62, 110
9, 88320, Note_on_c, 10, 66, 110
9, 88320, Note_on_c, 10, 69, 110
9, 89808, Note_on_c, 10, 62, 0
9, 89808, Note_on_c, 10, 66, 0
9, 89808, Note_on_c, 10, 69, 0
9, 89856, Note_on_c, 10, 59, 110
9, 89856, Note_on_c, 10, 62, 110
9, 89856, Note_on_c, 10, 66, 110
9, 89856, Note_on_c, 10, 69, 110
9, 90960, Note_on_c, 10, 59, 0
9, 90960, Note_on_c, 10, 62, 0
9, 90960, Note_on_c, 10, 66, 0
9, 90960, Note_on_c, 10, 69, 0
9, 91008, Note_on_c, 10, 61, 110
9, 91008, Note_on_c, 10, 64, 110
9, 91008, Note_on_c, 10, 69, 110
9, 91344, Note_on_c, 10, 61, 0
9, 91344, Note_on_c, 10, 64, 0
9, 91344, Note_on_c, 10, 69, 0
9, 91392, Note_on_c, 10, 57, 110
9, 91392, Note_on_c, 10, 62, 110
9, 91392, Note_on_c, 10, 66, 110
9, 92112, Note_on_c, 10, 57, 0
9, 92112, Note_on_c, 10, 62, 0
9, 92112, Note_on_c, 10, 66, 0
9, 92160, Note_on_c, 10, 62, 110
9, 92160, Note_on_c, 10, 67, 110
9, 92160, Note_on_c, 10, 71, 110
9, 92880, Note_on_c, 10, 62, 0
9, 92880, Note_on_c, 10, 67, 0
9, 92880, Note_on_c, 10, 71, 0
9, 92928, Note_on_c, 10, 61, 110
9, 92928, Note_on_c, 10, 64, 110
9, 92928, Note_on_c, 10, 69, 110
9, 93648, Note_on_c, 10, 61, 0
9, 93648, Note_on_c, 10, 64, 0
9, 93648, Note_on_c, 10, 69, 0
9, 93696, Note_on_c, 10, 59, 110
9, 93696, Note_on_c, 10, 62, 110
9, 93696, Note_on_c, 10, 66, 110
9, 94032, Note_on_c, 10, 59, 0
9, 94032, Note_on_c, 10, 62, 0
9, 94032, Note_on_c, 10, 66, 0
9, 94080, Note_on_c, 10, 61, 110
9, 94080, Note_on_c, 10, 64, 110
9, 94080, Note_on_c, 10, 69, 110
9, 95184, Note_on_c, 10, 61, 0
9, 95184, Note_on_c, 10, 64, 0
9, 95184, Note_on_c, 10, 69, 0
9, 95232, Note_on_c, 10, 62, 110
9, 95232, Note_on_c, 10, 66, 110
9, 95232, Note_on_c, 10, 69, 110
9, 95952, Note_on_c, 10, 62, 0
9, 95952, Note_on_c, 10, 66, 0
9, 95952, Note_on_c, 10, 69, 0
9, 96000, Note_on_c, 10, 62, 110
9, 96000, Note_on_c, 10, 67, 110
9, 96000, Note_on_c, 10, 71, 110
9, 97104, Note_on_c, 10, 62, 0
9, 97104, Note_on_c, 10, 68, 0
9, 97104, Note_on_c, 10, 71, 0
9, 97152, Note_on_c, 10, 62, 110
9, 97152, Note_on_c, 10, 66, 110
9, 97152, Note_on_c, 10, 69, 110
9, 97488, Note_on_c, 10, 62, 0
9, 97488, Note_on_c, 10, 66, 0
9, 97488, Note_on_c, 10, 69, 0
9, 97536, Note_on_c, 10, 64, 110
9, 97536, Note_on_c, 10, 67, 110
9, 97536, Note_on_c, 10, 71, 110
9, 99024, Note_on_c, 10, 64, 0
9, 99024, Note_on_c, 10, 68, 0
9, 99024, Note_on_c, 10, 71, 0
9, 99072, Note_on_c, 10, 62, 110
9, 99072, Note_on_c, 10, 67, 110
9, 99072, Note_on_c, 10, 71, 110
9, 99072, Note_on_c, 10, 74, 110
9, 99712, Note_on_c, 10, 62, 0
9, 99712, Note_on_c, 10, 67, 0
9, 99712, Note_on_c, 10, 71, 0
9, 99712, Note_on_c, 10, 74, 0
9, 99744, Note_on_c, 10, 62, 110
9, 99744, Note_on_c, 10, 66, 110
9, 99744, Note_on_c, 10, 69, 110
9, 99744, Note_on_c, 10, 74, 110
9, 100384, Note_on_c, 10, 62, 0
9, 100384, Note_on_c, 10, 66, 0
9, 100384, Note_on_c, 10, 69, 0
9, 100384, Note_on_c, 10, 74, 0
9, 100416, Note_on_c, 10, 64, 110
9, 100416, Note_on_c, 10, 69, 110
9, 100416, Note_on_c, 10, 73, 110
9, 101056, Note_on_c, 10, 64, 0
9, 101056, Note_on_c, 10, 69, 0
9, 101056, Note_on_c, 10, 73, 0
9, 101088, Note_on_c, 10, 66, 110
9, 101088, Note_on_c, 10, 69, 110
9, 101088, Note_on_c, 10, 74, 110
9, 101728, Note_on_c, 10, 66, 0
9, 101728, Note_on_c, 10, 69, 0
9, 101728, Note_on_c, 10, 74, 0
9, 101760, Note_on_c, 10, 64, 110
9, 102400, Note_on_c, 10, 64, 0
9, 102432, Note_on_c, 10, 62, 110
9, 103072, Note_on_c, 10, 62, 0
9, 103104, Note_on_c, 10, 66, 110
9, 103744, Note_on_c, 10, 66, 0
9, 103776, Note_on_c, 10, 62, 110
9, 104416, Note_on_c, 10, 62, 0
9, 104448, Note_on_c, 10, 64, 110
9, 105088, Note_on_c, 10, 64, 0
9, 105120, Note_on_c, 10, 62, 110
9, 105760, Note_on_c, 10, 62, 0
9, 105792, Note_on_c, 10, 66, 110
9, 106432, Note_on_c, 10, 66, 0
9, 106464, Note_on_c, 10, 62, 110
9, 107104, Note_on_c, 10, 62, 0
9, 107136, Note_on_c, 10, 64, 110
9, 107776, Note_on_c, 10, 64, 0
9, 107808, Note_on_c, 10, 62, 110
9, 108448, Note_on_c, 10, 62, 0
9, 108480, Note_on_c, 10, 66, 110
9, 109120, Note_on_c, 10, 66, 0
9, 109152, Note_on_c, 10, 62, 110
9, 109792, Note_on_c, 10, 62, 0
9, 109824, Note_on_c, 10, 64, 110
9, 110464, Note_on_c, 10, 64, 0
9, 110496, Note_on_c, 10, 62, 110
9, 111136, Note_on_c, 10, 62, 0
9, 111168, Note_on_c, 10, 66, 110
9, 111808, Note_on_c, 10, 66, 0
9, 111840, Note_on_c, 10, 62, 110
9, 112480, Note_on_c, 10, 62, 0
9, 112512, Note_on_c, 10, 64, 110
9, 113152, Note_on_c, 10, 64, 0
9, 113184, Note_on_c, 10, 62, 110
9, 113824, Note_on_c, 10, 62, 0
9, 113824, End_track
0, 0, End_of_file
