0, 0, Header, 1, 25, 120
1, 0, Start_track
1, 0, Time_signature, 4, 2, 24, 8
1, 0, Key_signature, 0, "major"
1, 0, Tempo, 452830
1, 0, End_track
2, 0, Start_track
2, 0, MIDI_port, 0
2, 0, Title_t, "Fill Me In"
2, 0, Control_c, 0, 7, 100
2, 0, Control_c, 0, 10, 63
2, 59040, Control_c, 0, 7, 80
2, 59075, Control_c, 0, 7, 79
2, 59111, Control_c, 0, 7, 78
2, 59147, Control_c, 0, 7, 77
2, 59183, Control_c, 0, 7, 76
2, 59219, Control_c, 0, 7, 75
2, 59255, Control_c, 0, 7, 74
2, 59291, Control_c, 0, 7, 73
2, 59327, Control_c, 0, 7, 72
2, 59363, Control_c, 0, 7, 71
2, 59399, Control_c, 0, 7, 70
2, 59435, Control_c, 0, 7, 69
2, 59471, Control_c, 0, 7, 68
2, 59507, Control_c, 0, 7, 67
2, 59543, Control_c, 0, 7, 66
2, 59579, Control_c, 0, 7, 65
2, 59615, Control_c, 0, 7, 64
2, 59651, Control_c, 0, 7, 63
2, 59687, Control_c, 0, 7, 62
2, 59723, Control_c, 0, 7, 61
2, 59759, Control_c, 0, 7, 60
2, 59795, Control_c, 0, 7, 59
2, 59831, Control_c, 0, 7, 58
2, 59867, Control_c, 0, 7, 57
2, 59903, Control_c, 0, 7, 56
2, 59939, Control_c, 0, 7, 55
2, 59975, Control_c, 0, 7, 54
2, 60011, Control_c, 0, 7, 53
2, 60047, Control_c, 0, 7, 52
2, 60083, Control_c, 0, 7, 51
2, 60119, Control_c, 0, 7, 50
2, 60155, Control_c, 0, 7, 49
2, 60191, Control_c, 0, 7, 48
2, 60227, Control_c, 0, 7, 47
2, 60263, Control_c, 0, 7, 46
2, 60299, Control_c, 0, 7, 45
2, 60335, Control_c, 0, 7, 44
2, 60371, Control_c, 0, 7, 43
2, 60407, Control_c, 0, 7, 42
2, 60443, Control_c, 0, 7, 41
2, 60479, Control_c, 0, 7, 40
2, 60515, Control_c, 0, 7, 39
2, 60551, Control_c, 0, 7, 38
2, 60587, Control_c, 0, 7, 37
2, 60623, Control_c, 0, 7, 36
2, 60659, Control_c, 0, 7, 35
2, 60695, Control_c, 0, 7, 34
2, 60731, Control_c, 0, 7, 33
2, 60767, Control_c, 0, 7, 32
2, 60803, Control_c, 0, 7, 31
2, 60839, Control_c, 0, 7, 30
2, 60875, Control_c, 0, 7, 29
2, 60911, Control_c, 0, 7, 28
2, 60947, Control_c, 0, 7, 27
2, 60983, Control_c, 0, 7, 26
2, 61019, Control_c, 0, 7, 25
2, 61055, Control_c, 0, 7, 24
2, 61091, Control_c, 0, 7, 23
2, 61127, Control_c, 0, 7, 22
2, 61163, Control_c, 0, 7, 21
2, 61199, Control_c, 0, 7, 20
2, 61235, Control_c, 0, 7, 19
2, 61271, Control_c, 0, 7, 18
2, 61307, Control_c, 0, 7, 17
2, 61343, Control_c, 0, 7, 16
2, 61379, Control_c, 0, 7, 15
2, 61415, Control_c, 0, 7, 14
2, 61451, Control_c, 0, 7, 13
2, 61487, Control_c, 0, 7, 12
2, 61523, Control_c, 0, 7, 11
2, 61559, Control_c, 0, 7, 10
2, 61595, Control_c, 0, 7, 9
2, 61631, Control_c, 0, 7, 8
2, 61667, Control_c, 0, 7, 7
2, 61703, Control_c, 0, 7, 6
2, 61739, Control_c, 0, 7, 5
2, 61775, Control_c, 0, 7, 4
2, 61811, Control_c, 0, 7, 3
2, 61847, Control_c, 0, 7, 2
2, 61883, Control_c, 0, 7, 1
2, 61919, Control_c, 0, 7, 0
2, 61919, End_track
3, 0, Start_track
3, 0, MIDI_port, 0
3, 0, Title_t, "by"
3, 0, Program_c, 1, 35
3, 0, Control_c, 1, 7, 80
3, 0, Control_c, 1, 10, 63
3, 0, Note_on_c, 1, 36, 102
3, 179, Note_on_c, 1, 36, 0
3, 180, Note_on_c, 1, 36, 99
3, 239, Note_on_c, 1, 36, 0
3, 240, Note_on_c, 1, 43, 98
3, 449, Note_on_c, 1, 43, 0
3, 960, Note_on_c, 1, 36, 105
3, 1139, Note_on_c, 1, 36, 0
3, 1140, Note_on_c, 1, 36, 97
3, 1199, Note_on_c, 1, 36, 0
3, 1200, Note_on_c, 1, 31, 127
3, 1200, Note_on_c, 1, 43, 127
3, 1709, Note_on_c, 1, 43, 0
3, 1769, Note_on_c, 1, 31, 0
3, 1800, Note_on_c, 1, 32, 100
3, 1919, Note_on_c, 1, 32, 0
3, 1920, Note_on_c, 1, 36, 127
3, 2009, Note_on_c, 1, 36, 0
3, 2010, Note_on_c, 1, 36, 127
3, 2039, Note_on_c, 1, 36, 0
3, 2040, Note_on_c, 1, 36, 127
3, 2069, Note_on_c, 1, 36, 0
3, 2100, Note_on_c, 1, 36, 127
3, 2159, Note_on_c, 1, 36, 0
3, 2160, Note_on_c, 1, 43, 127
3, 2219, Note_on_c, 1, 43, 0
3, 2220, Note_on_c, 1, 31, 127
3, 2519, Note_on_c, 1, 31, 0
3, 2580, Note_on_c, 1, 31, 127
3, 2639, Note_on_c, 1, 31, 0
3, 2700, Note_on_c, 1, 32, 127
3, 2819, Note_on_c, 1, 32, 0
3, 2880, Note_on_c, 1, 36, 127
3, 2969, Note_on_c, 1, 36, 0
3, 2970, Note_on_c, 1, 36, 127
3, 2999, Note_on_c, 1, 36, 0
3, 3000, Note_on_c, 1, 36, 127
3, 3029, Note_on_c, 1, 36, 0
3, 3060, Note_on_c, 1, 36, 127
3, 3119, Note_on_c, 1, 36, 0
3, 3120, Note_on_c, 1, 43, 127
3, 3179, Note_on_c, 1, 43, 0
3, 3180, Note_on_c, 1, 31, 127
3, 3479, Note_on_c, 1, 31, 0
3, 3540, Note_on_c, 1, 31, 127
3, 3599, Note_on_c, 1, 31, 0
3, 3660, Note_on_c, 1, 32, 127
3, 3779, Note_on_c, 1, 32, 0
3, 3840, Note_on_c, 1, 36, 127
3, 4019, Note_on_c, 1, 36, 0
3, 4020, Note_on_c, 1, 36, 126
3, 4079, Note_on_c, 1, 36, 0
3, 4080, Note_on_c, 1, 31, 127
3, 4289, Note_on_c, 1, 31, 0
3, 4800, Note_on_c, 1, 36, 127
3, 4979, Note_on_c, 1, 36, 0
3, 4980, Note_on_c, 1, 36, 127
3, 5039, Note_on_c, 1, 36, 0
3, 5040, Note_on_c, 1, 31, 127
3, 5249, Note_on_c, 1, 31, 0
3, 5760, Note_on_c, 1, 36, 127
3, 5939, Note_on_c, 1, 36, 0
3, 5940, Note_on_c, 1, 36, 127
3, 5999, Note_on_c, 1, 36, 0
3, 6000, Note_on_c, 1, 31, 127
3, 6209, Note_on_c, 1, 31, 0
3, 6720, Note_on_c, 1, 36, 127
3, 6899, Note_on_c, 1, 36, 0
3, 6900, Note_on_c, 1, 36, 127
3, 6959, Note_on_c, 1, 36, 0
3, 6960, Note_on_c, 1, 31, 127
3, 7169, Note_on_c, 1, 31, 0
3, 7680, Note_on_c, 1, 36, 127
3, 7859, Note_on_c, 1, 36, 0
3, 7860, Note_on_c, 1, 36, 127
3, 7919, Note_on_c, 1, 36, 0
3, 7920, Note_on_c, 1, 31, 127
3, 8129, Note_on_c, 1, 31, 0
3, 8640, Note_on_c, 1, 36, 127
3, 8819, Note_on_c, 1, 36, 0
3, 8820, Note_on_c, 1, 36, 127
3, 8879, Note_on_c, 1, 36, 0
3, 8880, Note_on_c, 1, 31, 127
3, 9089, Note_on_c, 1, 31, 0
3, 9600, Note_on_c, 1, 36, 127
3, 9779, Note_on_c, 1, 36, 0
3, 9780, Note_on_c, 1, 36, 127
3, 9839, Note_on_c, 1, 36, 0
3, 9840, Note_on_c, 1, 31, 127
3, 10049, Note_on_c, 1, 31, 0
3, 11520, Note_on_c, 1, 36, 127
3, 11639, Note_on_c, 1, 36, 0
3, 11700, Note_on_c, 1, 36, 127
3, 11759, Note_on_c, 1, 36, 0
3, 11760, Note_on_c, 1, 31, 127
3, 11969, Note_on_c, 1, 31, 0
3, 12180, Note_on_c, 1, 31, 127
3, 12239, Note_on_c, 1, 31, 0
3, 12300, Note_on_c, 1, 32, 127
3, 12419, Note_on_c, 1, 32, 0
3, 12480, Note_on_c, 1, 36, 127
3, 12599, Note_on_c, 1, 36, 0
3, 12660, Note_on_c, 1, 36, 127
3, 12719, Note_on_c, 1, 36, 0
3, 12720, Note_on_c, 1, 31, 127
3, 12929, Note_on_c, 1, 31, 0
3, 13140, Note_on_c, 1, 31, 127
3, 13199, Note_on_c, 1, 31, 0
3, 13260, Note_on_c, 1, 32, 127
3, 13379, Note_on_c, 1, 32, 0
3, 13440, Note_on_c, 1, 36, 127
3, 13559, Note_on_c, 1, 36, 0
3, 13620, Note_on_c, 1, 36, 127
3, 13679, Note_on_c, 1, 36, 0
3, 13680, Note_on_c, 1, 31, 127
3, 13889, Note_on_c, 1, 31, 0
3, 14100, Note_on_c, 1, 31, 127
3, 14159, Note_on_c, 1, 31, 0
3, 14220, Note_on_c, 1, 32, 127
3, 14339, Note_on_c, 1, 32, 0
3, 14400, Note_on_c, 1, 36, 127
3, 14519, Note_on_c, 1, 36, 0
3, 14580, Note_on_c, 1, 36, 127
3, 14639, Note_on_c, 1, 36, 0
3, 14640, Note_on_c, 1, 31, 127
3, 14849, Note_on_c, 1, 31, 0
3, 15060, Note_on_c, 1, 31, 127
3, 15119, Note_on_c, 1, 31, 0
3, 15180, Note_on_c, 1, 32, 127
3, 15299, Note_on_c, 1, 32, 0
3, 15360, Note_on_c, 1, 36, 127
3, 15449, Note_on_c, 1, 36, 0
3, 15450, Note_on_c, 1, 36, 127
3, 15479, Note_on_c, 1, 36, 0
3, 15480, Note_on_c, 1, 36, 127
3, 15509, Note_on_c, 1, 36, 0
3, 15540, Note_on_c, 1, 36, 127
3, 15599, Note_on_c, 1, 36, 0
3, 15600, Note_on_c, 1, 43, 127
3, 15659, Note_on_c, 1, 43, 0
3, 15660, Note_on_c, 1, 31, 127
3, 15959, Note_on_c, 1, 31, 0
3, 16020, Note_on_c, 1, 31, 127
3, 16079, Note_on_c, 1, 31, 0
3, 16140, Note_on_c, 1, 32, 127
3, 16259, Note_on_c, 1, 32, 0
3, 16320, Note_on_c, 1, 36, 127
3, 16409, Note_on_c, 1, 36, 0
3, 16410, Note_on_c, 1, 36, 127
3, 16439, Note_on_c, 1, 36, 0
3, 16440, Note_on_c, 1, 36, 127
3, 16469, Note_on_c, 1, 36, 0
3, 16500, Note_on_c, 1, 36, 127
3, 16559, Note_on_c, 1, 36, 0
3, 16560, Note_on_c, 1, 43, 127
3, 16619, Note_on_c, 1, 43, 0
3, 16620, Note_on_c, 1, 31, 127
3, 16919, Note_on_c, 1, 31, 0
3, 16980, Note_on_c, 1, 31, 127
3, 17039, Note_on_c, 1, 31, 0
3, 17100, Note_on_c, 1, 32, 127
3, 17219, Note_on_c, 1, 32, 0
3, 17280, Note_on_c, 1, 36, 127
3, 17369, Note_on_c, 1, 36, 0
3, 17370, Note_on_c, 1, 36, 127
3, 17399, Note_on_c, 1, 36, 0
3, 17400, Note_on_c, 1, 36, 127
3, 17429, Note_on_c, 1, 36, 0
3, 17460, Note_on_c, 1, 36, 127
3, 17519, Note_on_c, 1, 36, 0
3, 17520, Note_on_c, 1, 43, 127
3, 17579, Note_on_c, 1, 43, 0
3, 17580, Note_on_c, 1, 31, 127
3, 17879, Note_on_c, 1, 31, 0
3, 17940, Note_on_c, 1, 31, 127
3, 17999, Note_on_c, 1, 31, 0
3, 18060, Note_on_c, 1, 32, 127
3, 18179, Note_on_c, 1, 32, 0
3, 18240, Note_on_c, 1, 36, 127
3, 18329, Note_on_c, 1, 36, 0
3, 18330, Note_on_c, 1, 36, 127
3, 18359, Note_on_c, 1, 36, 0
3, 18360, Note_on_c, 1, 36, 127
3, 18389, Note_on_c, 1, 36, 0
3, 18420, Note_on_c, 1, 36, 127
3, 18479, Note_on_c, 1, 36, 0
3, 18480, Note_on_c, 1, 43, 127
3, 18539, Note_on_c, 1, 43, 0
3, 18540, Note_on_c, 1, 31, 127
3, 18839, Note_on_c, 1, 31, 0
3, 18900, Note_on_c, 1, 31, 127
3, 18959, Note_on_c, 1, 31, 0
3, 19020, Note_on_c, 1, 32, 127
3, 19139, Note_on_c, 1, 32, 0
3, 19200, Note_on_c, 1, 36, 127
3, 19289, Note_on_c, 1, 36, 0
3, 19290, Note_on_c, 1, 36, 127
3, 19319, Note_on_c, 1, 36, 0
3, 19320, Note_on_c, 1, 36, 127
3, 19349, Note_on_c, 1, 36, 0
3, 19380, Note_on_c, 1, 36, 127
3, 19439, Note_on_c, 1, 36, 0
3, 19440, Note_on_c, 1, 43, 127
3, 19499, Note_on_c, 1, 43, 0
3, 19500, Note_on_c, 1, 31, 127
3, 19799, Note_on_c, 1, 31, 0
3, 19860, Note_on_c, 1, 31, 127
3, 19919, Note_on_c, 1, 31, 0
3, 19980, Note_on_c, 1, 32, 127
3, 20099, Note_on_c, 1, 32, 0
3, 20160, Note_on_c, 1, 36, 127
3, 20249, Note_on_c, 1, 36, 0
3, 20250, Note_on_c, 1, 36, 127
3, 20279, Note_on_c, 1, 36, 0
3, 20280, Note_on_c, 1, 36, 127
3, 20309, Note_on_c, 1, 36, 0
3, 20340, Note_on_c, 1, 36, 127
3, 20399, Note_on_c, 1, 36, 0
3, 20400, Note_on_c, 1, 43, 127
3, 20459, Note_on_c, 1, 43, 0
3, 20460, Note_on_c, 1, 31, 127
3, 20759, Note_on_c, 1, 31, 0
3, 20820, Note_on_c, 1, 31, 127
3, 20879, Note_on_c, 1, 31, 0
3, 20940, Note_on_c, 1, 32, 127
3, 21059, Note_on_c, 1, 32, 0
3, 21120, Note_on_c, 1, 36, 127
3, 21209, Note_on_c, 1, 36, 0
3, 21210, Note_on_c, 1, 36, 127
3, 21239, Note_on_c, 1, 36, 0
3, 21240, Note_on_c, 1, 36, 127
3, 21269, Note_on_c, 1, 36, 0
3, 21300, Note_on_c, 1, 36, 127
3, 21359, Note_on_c, 1, 36, 0
3, 21360, Note_on_c, 1, 43, 127
3, 21419, Note_on_c, 1, 43, 0
3, 21420, Note_on_c, 1, 31, 127
3, 21719, Note_on_c, 1, 31, 0
3, 21780, Note_on_c, 1, 31, 127
3, 21839, Note_on_c, 1, 31, 0
3, 21900, Note_on_c, 1, 32, 127
3, 22019, Note_on_c, 1, 32, 0
3, 22080, Note_on_c, 1, 36, 127
3, 22169, Note_on_c, 1, 36, 0
3, 22170, Note_on_c, 1, 36, 127
3, 22199, Note_on_c, 1, 36, 0
3, 22200, Note_on_c, 1, 36, 127
3, 22229, Note_on_c, 1, 36, 0
3, 22260, Note_on_c, 1, 36, 127
3, 22319, Note_on_c, 1, 36, 0
3, 22320, Note_on_c, 1, 43, 127
3, 22379, Note_on_c, 1, 43, 0
3, 22380, Note_on_c, 1, 31, 127
3, 22679, Note_on_c, 1, 31, 0
3, 22740, Note_on_c, 1, 31, 127
3, 22799, Note_on_c, 1, 31, 0
3, 22860, Note_on_c, 1, 32, 127
3, 22979, Note_on_c, 1, 32, 0
3, 23040, Note_on_c, 1, 36, 127
3, 23219, Note_on_c, 1, 36, 0
3, 23220, Note_on_c, 1, 36, 126
3, 23279, Note_on_c, 1, 36, 0
3, 23280, Note_on_c, 1, 31, 127
3, 23489, Note_on_c, 1, 31, 0
3, 23700, Note_on_c, 1, 31, 127
3, 23759, Note_on_c, 1, 31, 0
3, 23820, Note_on_c, 1, 32, 127
3, 23939, Note_on_c, 1, 32, 0
3, 24000, Note_on_c, 1, 36, 127
3, 24179, Note_on_c, 1, 36, 0
3, 24180, Note_on_c, 1, 36, 127
3, 24239, Note_on_c, 1, 36, 0
3, 24240, Note_on_c, 1, 31, 127
3, 24449, Note_on_c, 1, 31, 0
3, 24660, Note_on_c, 1, 31, 127
3, 24719, Note_on_c, 1, 31, 0
3, 24780, Note_on_c, 1, 32, 127
3, 24899, Note_on_c, 1, 32, 0
3, 24960, Note_on_c, 1, 36, 127
3, 25139, Note_on_c, 1, 36, 0
3, 25140, Note_on_c, 1, 36, 127
3, 25199, Note_on_c, 1, 36, 0
3, 25200, Note_on_c, 1, 31, 127
3, 25409, Note_on_c, 1, 31, 0
3, 25620, Note_on_c, 1, 31, 127
3, 25679, Note_on_c, 1, 31, 0
3, 25740, Note_on_c, 1, 32, 127
3, 25859, Note_on_c, 1, 32, 0
3, 25920, Note_on_c, 1, 36, 127
3, 26099, Note_on_c, 1, 36, 0
3, 26100, Note_on_c, 1, 36, 127
3, 26159, Note_on_c, 1, 36, 0
3, 26160, Note_on_c, 1, 31, 127
3, 26369, Note_on_c, 1, 31, 0
3, 26580, Note_on_c, 1, 31, 127
3, 26639, Note_on_c, 1, 31, 0
3, 26700, Note_on_c, 1, 32, 121
3, 26819, Note_on_c, 1, 32, 0
3, 26880, Note_on_c, 1, 36, 123
3, 27059, Note_on_c, 1, 36, 0
3, 27060, Note_on_c, 1, 36, 125
3, 27119, Note_on_c, 1, 36, 0
3, 27120, Note_on_c, 1, 31, 125
3, 27209, Note_on_c, 1, 31, 0
3, 27240, Note_on_c, 1, 31, 125
3, 27299, Note_on_c, 1, 31, 0
3, 27300, Note_on_c, 1, 31, 125
3, 27359, Note_on_c, 1, 31, 0
3, 27360, Note_on_c, 1, 31, 125
3, 27419, Note_on_c, 1, 31, 0
3, 27540, Note_on_c, 1, 31, 126
3, 27599, Note_on_c, 1, 31, 0
3, 27660, Note_on_c, 1, 32, 126
3, 27779, Note_on_c, 1, 32, 0
3, 27840, Note_on_c, 1, 36, 126
3, 28019, Note_on_c, 1, 36, 0
3, 28020, Note_on_c, 1, 36, 126
3, 28079, Note_on_c, 1, 36, 0
3, 28080, Note_on_c, 1, 31, 126
3, 28289, Note_on_c, 1, 31, 0
3, 28500, Note_on_c, 1, 31, 126
3, 28559, Note_on_c, 1, 31, 0
3, 28620, Note_on_c, 1, 32, 126
3, 28739, Note_on_c, 1, 32, 0
3, 28800, Note_on_c, 1, 36, 126
3, 28979, Note_on_c, 1, 36, 0
3, 28980, Note_on_c, 1, 36, 126
3, 29039, Note_on_c, 1, 36, 0
3, 29040, Note_on_c, 1, 31, 126
3, 29249, Note_on_c, 1, 31, 0
3, 29460, Note_on_c, 1, 31, 126
3, 29519, Note_on_c, 1, 31, 0
3, 29580, Note_on_c, 1, 32, 126
3, 29699, Note_on_c, 1, 32, 0
3, 29760, Note_on_c, 1, 36, 126
3, 29939, Note_on_c, 1, 36, 0
3, 29940, Note_on_c, 1, 36, 126
3, 29999, Note_on_c, 1, 36, 0
3, 30000, Note_on_c, 1, 31, 126
3, 30209, Note_on_c, 1, 31, 0
3, 30420, Note_on_c, 1, 31, 126
3, 30479, Note_on_c, 1, 31, 0
3, 30540, Note_on_c, 1, 32, 127
3, 30659, Note_on_c, 1, 32, 0
3, 30720, Note_on_c, 1, 36, 127
3, 30899, Note_on_c, 1, 36, 0
3, 30900, Note_on_c, 1, 36, 127
3, 30959, Note_on_c, 1, 36, 0
3, 30960, Note_on_c, 1, 31, 127
3, 31169, Note_on_c, 1, 31, 0
3, 34260, Note_on_c, 1, 31, 127
3, 34319, Note_on_c, 1, 31, 0
3, 34380, Note_on_c, 1, 32, 127
3, 34529, Note_on_c, 1, 32, 0
3, 34560, Note_on_c, 1, 36, 127
3, 34649, Note_on_c, 1, 36, 0
3, 34650, Note_on_c, 1, 36, 127
3, 34679, Note_on_c, 1, 36, 0
3, 34680, Note_on_c, 1, 36, 127
3, 34709, Note_on_c, 1, 36, 0
3, 34740, Note_on_c, 1, 36, 127
3, 34799, Note_on_c, 1, 36, 0
3, 34800, Note_on_c, 1, 43, 127
3, 34859, Note_on_c, 1, 43, 0
3, 34860, Note_on_c, 1, 31, 127
3, 35159, Note_on_c, 1, 31, 0
3, 35220, Note_on_c, 1, 31, 127
3, 35279, Note_on_c, 1, 31, 0
3, 35340, Note_on_c, 1, 32, 127
3, 35459, Note_on_c, 1, 32, 0
3, 35520, Note_on_c, 1, 36, 127
3, 35609, Note_on_c, 1, 36, 0
3, 35610, Note_on_c, 1, 36, 127
3, 35639, Note_on_c, 1, 36, 0
3, 35640, Note_on_c, 1, 36, 127
3, 35669, Note_on_c, 1, 36, 0
3, 35700, Note_on_c, 1, 36, 127
3, 35759, Note_on_c, 1, 36, 0
3, 35760, Note_on_c, 1, 43, 127
3, 35819, Note_on_c, 1, 43, 0
3, 35820, Note_on_c, 1, 31, 127
3, 36119, Note_on_c, 1, 31, 0
3, 36180, Note_on_c, 1, 31, 127
3, 36239, Note_on_c, 1, 31, 0
3, 36300, Note_on_c, 1, 32, 127
3, 36419, Note_on_c, 1, 32, 0
3, 36480, Note_on_c, 1, 36, 127
3, 36569, Note_on_c, 1, 36, 0
3, 36570, Note_on_c, 1, 36, 127
3, 36599, Note_on_c, 1, 36, 0
3, 36600, Note_on_c, 1, 36, 127
3, 36629, Note_on_c, 1, 36, 0
3, 36660, Note_on_c, 1, 36, 127
3, 36719, Note_on_c, 1, 36, 0
3, 36720, Note_on_c, 1, 43, 127
3, 36779, Note_on_c, 1, 43, 0
3, 36780, Note_on_c, 1, 31, 127
3, 37079, Note_on_c, 1, 31, 0
3, 37140, Note_on_c, 1, 31, 127
3, 37199, Note_on_c, 1, 31, 0
3, 37260, Note_on_c, 1, 32, 127
3, 37379, Note_on_c, 1, 32, 0
3, 37440, Note_on_c, 1, 36, 127
3, 37529, Note_on_c, 1, 36, 0
3, 37530, Note_on_c, 1, 36, 127
3, 37559, Note_on_c, 1, 36, 0
3, 37560, Note_on_c, 1, 36, 127
3, 37589, Note_on_c, 1, 36, 0
3, 37620, Note_on_c, 1, 36, 127
3, 37679, Note_on_c, 1, 36, 0
3, 37680, Note_on_c, 1, 43, 127
3, 37739, Note_on_c, 1, 43, 0
3, 37740, Note_on_c, 1, 31, 127
3, 38039, Note_on_c, 1, 31, 0
3, 38100, Note_on_c, 1, 31, 127
3, 38159, Note_on_c, 1, 31, 0
3, 38220, Note_on_c, 1, 32, 127
3, 38339, Note_on_c, 1, 32, 0
3, 38400, Note_on_c, 1, 36, 127
3, 38489, Note_on_c, 1, 36, 0
3, 38490, Note_on_c, 1, 36, 127
3, 38519, Note_on_c, 1, 36, 0
3, 38520, Note_on_c, 1, 36, 127
3, 38549, Note_on_c, 1, 36, 0
3, 38580, Note_on_c, 1, 36, 127
3, 38639, Note_on_c, 1, 36, 0
3, 38640, Note_on_c, 1, 43, 127
3, 38699, Note_on_c, 1, 43, 0
3, 38700, Note_on_c, 1, 31, 127
3, 38999, Note_on_c, 1, 31, 0
3, 39060, Note_on_c, 1, 31, 127
3, 39119, Note_on_c, 1, 31, 0
3, 39180, Note_on_c, 1, 32, 127
3, 39299, Note_on_c, 1, 32, 0
3, 39360, Note_on_c, 1, 36, 127
3, 39449, Note_on_c, 1, 36, 0
3, 39450, Note_on_c, 1, 36, 127
3, 39479, Note_on_c, 1, 36, 0
3, 39480, Note_on_c, 1, 36, 127
3, 39509, Note_on_c, 1, 36, 0
3, 39540, Note_on_c, 1, 36, 127
3, 39599, Note_on_c, 1, 36, 0
3, 39600, Note_on_c, 1, 43, 127
3, 39659, Note_on_c, 1, 43, 0
3, 39660, Note_on_c, 1, 31, 127
3, 39959, Note_on_c, 1, 31, 0
3, 40020, Note_on_c, 1, 31, 127
3, 40079, Note_on_c, 1, 31, 0
3, 40140, Note_on_c, 1, 32, 127
3, 40259, Note_on_c, 1, 32, 0
3, 40320, Note_on_c, 1, 36, 127
3, 40409, Note_on_c, 1, 36, 0
3, 40410, Note_on_c, 1, 36, 127
3, 40439, Note_on_c, 1, 36, 0
3, 40440, Note_on_c, 1, 36, 127
3, 40469, Note_on_c, 1, 36, 0
3, 40500, Note_on_c, 1, 36, 127
3, 40559, Note_on_c, 1, 36, 0
3, 40560, Note_on_c, 1, 43, 127
3, 40619, Note_on_c, 1, 43, 0
3, 40620, Note_on_c, 1, 31, 127
3, 40919, Note_on_c, 1, 31, 0
3, 40980, Note_on_c, 1, 31, 127
3, 41039, Note_on_c, 1, 31, 0
3, 41100, Note_on_c, 1, 32, 127
3, 41219, Note_on_c, 1, 32, 0
3, 41280, Note_on_c, 1, 36, 127
3, 41369, Note_on_c, 1, 36, 0
3, 41370, Note_on_c, 1, 36, 127
3, 41399, Note_on_c, 1, 36, 0
3, 41400, Note_on_c, 1, 36, 127
3, 41429, Note_on_c, 1, 36, 0
3, 41460, Note_on_c, 1, 36, 127
3, 41519, Note_on_c, 1, 36, 0
3, 41520, Note_on_c, 1, 43, 127
3, 41579, Note_on_c, 1, 43, 0
3, 41580, Note_on_c, 1, 31, 127
3, 41879, Note_on_c, 1, 31, 0
3, 41940, Note_on_c, 1, 31, 127
3, 41999, Note_on_c, 1, 31, 0
3, 42060, Note_on_c, 1, 32, 127
3, 42179, Note_on_c, 1, 32, 0
3, 42240, Note_on_c, 1, 36, 127
3, 42329, Note_on_c, 1, 36, 0
3, 42330, Note_on_c, 1, 36, 127
3, 42359, Note_on_c, 1, 36, 0
3, 42360, Note_on_c, 1, 36, 127
3, 42389, Note_on_c, 1, 36, 0
3, 42420, Note_on_c, 1, 36, 127
3, 42479, Note_on_c, 1, 36, 0
3, 42480, Note_on_c, 1, 43, 127
3, 42539, Note_on_c, 1, 43, 0
3, 42540, Note_on_c, 1, 31, 127
3, 42839, Note_on_c, 1, 31, 0
3, 42900, Note_on_c, 1, 31, 127
3, 42959, Note_on_c, 1, 31, 0
3, 43020, Note_on_c, 1, 32, 127
3, 43139, Note_on_c, 1, 32, 0
3, 43200, Note_on_c, 1, 36, 127
3, 43289, Note_on_c, 1, 36, 0
3, 43290, Note_on_c, 1, 36, 127
3, 43319, Note_on_c, 1, 36, 0
3, 43320, Note_on_c, 1, 36, 127
3, 43349, Note_on_c, 1, 36, 0
3, 43380, Note_on_c, 1, 36, 127
3, 43439, Note_on_c, 1, 36, 0
3, 43440, Note_on_c, 1, 43, 127
3, 43499, Note_on_c, 1, 43, 0
3, 43500, Note_on_c, 1, 31, 127
3, 43799, Note_on_c, 1, 31, 0
3, 43860, Note_on_c, 1, 31, 127
3, 43919, Note_on_c, 1, 31, 0
3, 43980, Note_on_c, 1, 32, 127
3, 44099, Note_on_c, 1, 32, 0
3, 44160, Note_on_c, 1, 36, 127
3, 44249, Note_on_c, 1, 36, 0
3, 44250, Note_on_c, 1, 36, 127
3, 44279, Note_on_c, 1, 36, 0
3, 44280, Note_on_c, 1, 36, 127
3, 44309, Note_on_c, 1, 36, 0
3, 44340, Note_on_c, 1, 36, 127
3, 44399, Note_on_c, 1, 36, 0
3, 44400, Note_on_c, 1, 43, 127
3, 44459, Note_on_c, 1, 43, 0
3, 44460, Note_on_c, 1, 31, 127
3, 44759, Note_on_c, 1, 31, 0
3, 44820, Note_on_c, 1, 31, 127
3, 44879, Note_on_c, 1, 31, 0
3, 44940, Note_on_c, 1, 32, 127
3, 45059, Note_on_c, 1, 32, 0
3, 45120, Note_on_c, 1, 36, 127
3, 45209, Note_on_c, 1, 36, 0
3, 45210, Note_on_c, 1, 36, 127
3, 45239, Note_on_c, 1, 36, 0
3, 45240, Note_on_c, 1, 36, 127
3, 45269, Note_on_c, 1, 36, 0
3, 45300, Note_on_c, 1, 36, 127
3, 45359, Note_on_c, 1, 36, 0
3, 45360, Note_on_c, 1, 43, 127
3, 45419, Note_on_c, 1, 43, 0
3, 45420, Note_on_c, 1, 31, 127
3, 45719, Note_on_c, 1, 31, 0
3, 45780, Note_on_c, 1, 31, 127
3, 45839, Note_on_c, 1, 31, 0
3, 45900, Note_on_c, 1, 32, 127
3, 46019, Note_on_c, 1, 32, 0
3, 46080, Note_on_c, 1, 36, 127
3, 46169, Note_on_c, 1, 36, 0
3, 46170, Note_on_c, 1, 36, 127
3, 46199, Note_on_c, 1, 36, 0
3, 46200, Note_on_c, 1, 36, 127
3, 46229, Note_on_c, 1, 36, 0
3, 46260, Note_on_c, 1, 36, 127
3, 46319, Note_on_c, 1, 36, 0
3, 46320, Note_on_c, 1, 43, 127
3, 46379, Note_on_c, 1, 43, 0
3, 46380, Note_on_c, 1, 31, 127
3, 46679, Note_on_c, 1, 31, 0
3, 46740, Note_on_c, 1, 31, 127
3, 46799, Note_on_c, 1, 31, 0
3, 46860, Note_on_c, 1, 32, 127
3, 46979, Note_on_c, 1, 32, 0
3, 47040, Note_on_c, 1, 36, 127
3, 47129, Note_on_c, 1, 36, 0
3, 47130, Note_on_c, 1, 36, 127
3, 47159, Note_on_c, 1, 36, 0
3, 47160, Note_on_c, 1, 36, 127
3, 47189, Note_on_c, 1, 36, 0
3, 47220, Note_on_c, 1, 36, 127
3, 47279, Note_on_c, 1, 36, 0
3, 47280, Note_on_c, 1, 43, 127
3, 47339, Note_on_c, 1, 43, 0
3, 47340, Note_on_c, 1, 31, 127
3, 47639, Note_on_c, 1, 31, 0
3, 47700, Note_on_c, 1, 31, 127
3, 47759, Note_on_c, 1, 31, 0
3, 47820, Note_on_c, 1, 32, 127
3, 47939, Note_on_c, 1, 32, 0
3, 48000, Note_on_c, 1, 36, 127
3, 48089, Note_on_c, 1, 36, 0
3, 48090, Note_on_c, 1, 36, 127
3, 48119, Note_on_c, 1, 36, 0
3, 48120, Note_on_c, 1, 36, 127
3, 48149, Note_on_c, 1, 36, 0
3, 48180, Note_on_c, 1, 36, 127
3, 48239, Note_on_c, 1, 36, 0
3, 48240, Note_on_c, 1, 43, 127
3, 48299, Note_on_c, 1, 43, 0
3, 48300, Note_on_c, 1, 31, 127
3, 48599, Note_on_c, 1, 31, 0
3, 48660, Note_on_c, 1, 31, 127
3, 48719, Note_on_c, 1, 31, 0
3, 48780, Note_on_c, 1, 32, 127
3, 48899, Note_on_c, 1, 32, 0
3, 48960, Note_on_c, 1, 36, 127
3, 49049, Note_on_c, 1, 36, 0
3, 49050, Note_on_c, 1, 36, 127
3, 49079, Note_on_c, 1, 36, 0
3, 49080, Note_on_c, 1, 36, 127
3, 49109, Note_on_c, 1, 36, 0
3, 49140, Note_on_c, 1, 36, 127
3, 49199, Note_on_c, 1, 36, 0
3, 49200, Note_on_c, 1, 43, 127
3, 49259, Note_on_c, 1, 43, 0
3, 49260, Note_on_c, 1, 31, 127
3, 49559, Note_on_c, 1, 31, 0
3, 49620, Note_on_c, 1, 31, 127
3, 49679, Note_on_c, 1, 31, 0
3, 49740, Note_on_c, 1, 32, 127
3, 49859, Note_on_c, 1, 32, 0
3, 49920, Note_on_c, 1, 36, 127
3, 50009, Note_on_c, 1, 36, 0
3, 50010, Note_on_c, 1, 36, 127
3, 50039, Note_on_c, 1, 36, 0
3, 50040, Note_on_c, 1, 36, 127
3, 50069, Note_on_c, 1, 36, 0
3, 50100, Note_on_c, 1, 36, 127
3, 50159, Note_on_c, 1, 36, 0
3, 50160, Note_on_c, 1, 43, 127
3, 50219, Note_on_c, 1, 43, 0
3, 50220, Note_on_c, 1, 31, 127
3, 50519, Note_on_c, 1, 31, 0
3, 50580, Note_on_c, 1, 31, 127
3, 50639, Note_on_c, 1, 31, 0
3, 50700, Note_on_c, 1, 32, 127
3, 50819, Note_on_c, 1, 32, 0
3, 50880, Note_on_c, 1, 36, 127
3, 50969, Note_on_c, 1, 36, 0
3, 50970, Note_on_c, 1, 36, 127
3, 50999, Note_on_c, 1, 36, 0
3, 51000, Note_on_c, 1, 36, 127
3, 51029, Note_on_c, 1, 36, 0
3, 51060, Note_on_c, 1, 36, 127
3, 51119, Note_on_c, 1, 36, 0
3, 51120, Note_on_c, 1, 43, 127
3, 51179, Note_on_c, 1, 43, 0
3, 51180, Note_on_c, 1, 31, 127
3, 51479, Note_on_c, 1, 31, 0
3, 51540, Note_on_c, 1, 31, 127
3, 51599, Note_on_c, 1, 31, 0
3, 51660, Note_on_c, 1, 32, 127
3, 51779, Note_on_c, 1, 32, 0
3, 51840, Note_on_c, 1, 36, 127
3, 51929, Note_on_c, 1, 36, 0
3, 51930, Note_on_c, 1, 36, 127
3, 51959, Note_on_c, 1, 36, 0
3, 51960, Note_on_c, 1, 36, 127
3, 51989, Note_on_c, 1, 36, 0
3, 52020, Note_on_c, 1, 36, 127
3, 52079, Note_on_c, 1, 36, 0
3, 52080, Note_on_c, 1, 43, 127
3, 52139, Note_on_c, 1, 43, 0
3, 52140, Note_on_c, 1, 31, 127
3, 52439, Note_on_c, 1, 31, 0
3, 52500, Note_on_c, 1, 31, 127
3, 52559, Note_on_c, 1, 31, 0
3, 52620, Note_on_c, 1, 32, 127
3, 52739, Note_on_c, 1, 32, 0
3, 52800, Note_on_c, 1, 36, 127
3, 52889, Note_on_c, 1, 36, 0
3, 52890, Note_on_c, 1, 36, 127
3, 52919, Note_on_c, 1, 36, 0
3, 52920, Note_on_c, 1, 36, 127
3, 52949, Note_on_c, 1, 36, 0
3, 52980, Note_on_c, 1, 36, 127
3, 53039, Note_on_c, 1, 36, 0
3, 53040, Note_on_c, 1, 43, 127
3, 53099, Note_on_c, 1, 43, 0
3, 53100, Note_on_c, 1, 31, 127
3, 53399, Note_on_c, 1, 31, 0
3, 53460, Note_on_c, 1, 31, 127
3, 53519, Note_on_c, 1, 31, 0
3, 53580, Note_on_c, 1, 32, 127
3, 53699, Note_on_c, 1, 32, 0
3, 53760, Note_on_c, 1, 36, 127
3, 53849, Note_on_c, 1, 36, 0
3, 53850, Note_on_c, 1, 36, 127
3, 53879, Note_on_c, 1, 36, 0
3, 53880, Note_on_c, 1, 36, 127
3, 53909, Note_on_c, 1, 36, 0
3, 53940, Note_on_c, 1, 36, 127
3, 53999, Note_on_c, 1, 36, 0
3, 54000, Note_on_c, 1, 43, 127
3, 54059, Note_on_c, 1, 43, 0
3, 54060, Note_on_c, 1, 31, 127
3, 54359, Note_on_c, 1, 31, 0
3, 54420, Note_on_c, 1, 31, 127
3, 54479, Note_on_c, 1, 31, 0
3, 54540, Note_on_c, 1, 32, 127
3, 54659, Note_on_c, 1, 32, 0
3, 54720, Note_on_c, 1, 36, 127
3, 54809, Note_on_c, 1, 36, 0
3, 54810, Note_on_c, 1, 36, 127
3, 54839, Note_on_c, 1, 36, 0
3, 54840, Note_on_c, 1, 36, 127
3, 54869, Note_on_c, 1, 36, 0
3, 54900, Note_on_c, 1, 36, 127
3, 54959, Note_on_c, 1, 36, 0
3, 54960, Note_on_c, 1, 43, 127
3, 55019, Note_on_c, 1, 43, 0
3, 55020, Note_on_c, 1, 31, 127
3, 55319, Note_on_c, 1, 31, 0
3, 55380, Note_on_c, 1, 31, 127
3, 55439, Note_on_c, 1, 31, 0
3, 55500, Note_on_c, 1, 32, 127
3, 55619, Note_on_c, 1, 32, 0
3, 55680, Note_on_c, 1, 36, 127
3, 55769, Note_on_c, 1, 36, 0
3, 55770, Note_on_c, 1, 36, 127
3, 55799, Note_on_c, 1, 36, 0
3, 55800, Note_on_c, 1, 36, 127
3, 55829, Note_on_c, 1, 36, 0
3, 55860, Note_on_c, 1, 36, 127
3, 55919, Note_on_c, 1, 36, 0
3, 55920, Note_on_c, 1, 43, 127
3, 55979, Note_on_c, 1, 43, 0
3, 55980, Note_on_c, 1, 31, 127
3, 56279, Note_on_c, 1, 31, 0
3, 56340, Note_on_c, 1, 31, 127
3, 56399, Note_on_c, 1, 31, 0
3, 56460, Note_on_c, 1, 32, 127
3, 56579, Note_on_c, 1, 32, 0
3, 56640, Note_on_c, 1, 36, 127
3, 56729, Note_on_c, 1, 36, 0
3, 56730, Note_on_c, 1, 36, 127
3, 56759, Note_on_c, 1, 36, 0
3, 56760, Note_on_c, 1, 36, 127
3, 56789, Note_on_c, 1, 36, 0
3, 56820, Note_on_c, 1, 36, 127
3, 56879, Note_on_c, 1, 36, 0
3, 56880, Note_on_c, 1, 43, 127
3, 56939, Note_on_c, 1, 43, 0
3, 56940, Note_on_c, 1, 31, 127
3, 57239, Note_on_c, 1, 31, 0
3, 57300, Note_on_c, 1, 31, 127
3, 57359, Note_on_c, 1, 31, 0
3, 57420, Note_on_c, 1, 32, 127
3, 57539, Note_on_c, 1, 32, 0
3, 57600, Note_on_c, 1, 36, 124
3, 57779, Note_on_c, 1, 36, 0
3, 57780, Note_on_c, 1, 36, 125
3, 57839, Note_on_c, 1, 36, 0
3, 57840, Note_on_c, 1, 31, 125
3, 58049, Note_on_c, 1, 31, 0
3, 58560, Note_on_c, 1, 36, 127
3, 58739, Note_on_c, 1, 36, 0
3, 58740, Note_on_c, 1, 36, 127
3, 58799, Note_on_c, 1, 36, 0
3, 58800, Note_on_c, 1, 31, 127
3, 59040, Control_c, 1, 7, 80
3, 59075, Control_c, 1, 7, 79
3, 59111, Control_c, 1, 7, 78
3, 59147, Control_c, 1, 7, 77
3, 59183, Control_c, 1, 7, 76
3, 59189, Note_on_c, 1, 31, 0
3, 59219, Control_c, 1, 7, 75
3, 59255, Control_c, 1, 7, 74
3, 59291, Control_c, 1, 7, 73
3, 59327, Control_c, 1, 7, 72
3, 59363, Control_c, 1, 7, 71
3, 59399, Control_c, 1, 7, 70
3, 59435, Control_c, 1, 7, 69
3, 59471, Control_c, 1, 7, 68
3, 59507, Control_c, 1, 7, 67
3, 59520, Note_on_c, 1, 36, 127
3, 59543, Control_c, 1, 7, 66
3, 59579, Control_c, 1, 7, 65
3, 59615, Control_c, 1, 7, 64
3, 59651, Control_c, 1, 7, 63
3, 59687, Control_c, 1, 7, 62
3, 59699, Note_on_c, 1, 36, 0
3, 59700, Note_on_c, 1, 36, 127
3, 59723, Control_c, 1, 7, 61
3, 59759, Note_on_c, 1, 36, 0
3, 59759, Control_c, 1, 7, 60
3, 59760, Note_on_c, 1, 31, 127
3, 59795, Control_c, 1, 7, 59
3, 59831, Control_c, 1, 7, 58
3, 59867, Control_c, 1, 7, 57
3, 59903, Control_c, 1, 7, 56
3, 59939, Control_c, 1, 7, 55
3, 59969, Note_on_c, 1, 31, 0
3, 59975, Control_c, 1, 7, 54
3, 60011, Control_c, 1, 7, 53
3, 60047, Control_c, 1, 7, 52
3, 60083, Control_c, 1, 7, 51
3, 60119, Control_c, 1, 7, 50
3, 60155, Control_c, 1, 7, 49
3, 60191, Control_c, 1, 7, 48
3, 60227, Control_c, 1, 7, 47
3, 60263, Control_c, 1, 7, 46
3, 60299, Control_c, 1, 7, 45
3, 60335, Control_c, 1, 7, 44
3, 60371, Control_c, 1, 7, 43
3, 60407, Control_c, 1, 7, 42
3, 60443, Control_c, 1, 7, 41
3, 60479, Control_c, 1, 7, 40
3, 60480, Note_on_c, 1, 36, 127
3, 60515, Control_c, 1, 7, 39
3, 60551, Control_c, 1, 7, 38
3, 60587, Control_c, 1, 7, 37
3, 60623, Control_c, 1, 7, 36
3, 60659, Note_on_c, 1, 36, 0
3, 60659, Control_c, 1, 7, 35
3, 60660, Note_on_c, 1, 36, 127
3, 60695, Control_c, 1, 7, 34
3, 60719, Note_on_c, 1, 36, 0
3, 60720, Note_on_c, 1, 31, 127
3, 60731, Control_c, 1, 7, 33
3, 60767, Control_c, 1, 7, 32
3, 60803, Control_c, 1, 7, 31
3, 60839, Control_c, 1, 7, 30
3, 60875, Control_c, 1, 7, 29
3, 60911, Control_c, 1, 7, 28
3, 60947, Control_c, 1, 7, 27
3, 60983, Control_c, 1, 7, 26
3, 61019, Control_c, 1, 7, 25
3, 61055, Control_c, 1, 7, 24
3, 61091, Control_c, 1, 7, 23
3, 61109, Note_on_c, 1, 31, 0
3, 61127, Control_c, 1, 7, 22
3, 61163, Control_c, 1, 7, 21
3, 61199, Control_c, 1, 7, 20
3, 61235, Control_c, 1, 7, 19
3, 61271, Control_c, 1, 7, 18
3, 61307, Control_c, 1, 7, 17
3, 61343, Control_c, 1, 7, 16
3, 61379, Control_c, 1, 7, 15
3, 61415, Control_c, 1, 7, 14
3, 61451, Control_c, 1, 7, 13
3, 61487, Control_c, 1, 7, 12
3, 61523, Control_c, 1, 7, 11
3, 61559, Control_c, 1, 7, 10
3, 61595, Control_c, 1, 7, 9
3, 61631, Control_c, 1, 7, 8
3, 61667, Control_c, 1, 7, 7
3, 61703, Control_c, 1, 7, 6
3, 61739, Control_c, 1, 7, 5
3, 61775, Control_c, 1, 7, 4
3, 61811, Control_c, 1, 7, 3
3, 61847, Control_c, 1, 7, 2
3, 61883, Control_c, 1, 7, 1
3, 61919, Control_c, 1, 7, 0
3, 61919, End_track
4, 0, Start_track
4, 0, MIDI_port, 0
4, 0, Title_t, "Craig David"
4, 0, Program_c, 2, 24
4, 0, Control_c, 2, 7, 90
4, 0, Control_c, 2, 10, 20
4, 0, Note_on_c, 2, 48, 82
4, 59, Note_on_c, 2, 48, 0
4, 60, Note_on_c, 2, 58, 59
4, 119, Note_on_c, 2, 58, 0
4, 120, Note_on_c, 2, 58, 127
4, 240, Note_on_c, 2, 48, 61
4, 299, Note_on_c, 2, 48, 0
4, 299, Note_on_c, 2, 58, 0
4, 300, Note_on_c, 2, 53, 61
4, 359, Note_on_c, 2, 53, 0
4, 360, Note_on_c, 2, 58, 127
4, 629, Note_on_c, 2, 58, 0
4, 660, Note_on_c, 2, 58, 127
4, 719, Note_on_c, 2, 58, 0
4, 780, Note_on_c, 2, 55, 127
4, 899, Note_on_c, 2, 55, 0
4, 960, Note_on_c, 2, 48, 82
4, 1019, Note_on_c, 2, 48, 0
4, 1020, Note_on_c, 2, 58, 59
4, 1079, Note_on_c, 2, 58, 0
4, 1080, Note_on_c, 2, 55, 61
4, 1080, Note_on_c, 2, 58, 127
4, 1139, Note_on_c, 2, 55, 0
4, 1529, Note_on_c, 2, 58, 0
4, 1620, Note_on_c, 2, 58, 127
4, 1679, Note_on_c, 2, 58, 0
4, 1740, Note_on_c, 2, 55, 127
4, 1859, Note_on_c, 2, 55, 0
4, 1920, Note_on_c, 2, 48, 82
4, 1979, Note_on_c, 2, 48, 0
4, 1980, Note_on_c, 2, 58, 59
4, 2039, Note_on_c, 2, 58, 0
4, 2040, Note_on_c, 2, 58, 127
4, 2160, Note_on_c, 2, 48, 61
4, 2219, Note_on_c, 2, 48, 0
4, 2219, Note_on_c, 2, 58, 0
4, 2220, Note_on_c, 2, 53, 61
4, 2279, Note_on_c, 2, 53, 0
4, 2280, Note_on_c, 2, 58, 127
4, 2549, Note_on_c, 2, 58, 0
4, 2580, Note_on_c, 2, 58, 125
4, 2639, Note_on_c, 2, 58, 0
4, 2700, Note_on_c, 2, 55, 124
4, 2819, Note_on_c, 2, 55, 0
4, 2880, Note_on_c, 2, 48, 82
4, 2939, Note_on_c, 2, 48, 0
4, 2940, Note_on_c, 2, 58, 59
4, 2999, Note_on_c, 2, 58, 0
4, 3000, Note_on_c, 2, 58, 127
4, 3120, Note_on_c, 2, 48, 61
4, 3179, Note_on_c, 2, 48, 0
4, 3179, Note_on_c, 2, 58, 0
4, 3180, Note_on_c, 2, 53, 61
4, 3239, Note_on_c, 2, 53, 0
4, 3240, Note_on_c, 2, 58, 127
4, 3509, Note_on_c, 2, 58, 0
4, 3540, Note_on_c, 2, 58, 126
4, 3599, Note_on_c, 2, 58, 0
4, 3660, Note_on_c, 2, 55, 126
4, 3779, Note_on_c, 2, 55, 0
4, 3840, Note_on_c, 2, 48, 82
4, 3899, Note_on_c, 2, 48, 0
4, 3900, Note_on_c, 2, 58, 59
4, 3959, Note_on_c, 2, 58, 0
4, 3960, Note_on_c, 2, 58, 127
4, 4080, Note_on_c, 2, 48, 61
4, 4139, Note_on_c, 2, 48, 0
4, 4139, Note_on_c, 2, 58, 0
4, 4140, Note_on_c, 2, 53, 61
4, 4199, Note_on_c, 2, 53, 0
4, 4200, Note_on_c, 2, 58, 127
4, 4469, Note_on_c, 2, 58, 0
4, 4500, Note_on_c, 2, 58, 127
4, 4559, Note_on_c, 2, 58, 0
4, 4620, Note_on_c, 2, 55, 126
4, 4739, Note_on_c, 2, 55, 0
4, 4800, Note_on_c, 2, 48, 82
4, 4859, Note_on_c, 2, 48, 0
4, 4860, Note_on_c, 2, 58, 59
4, 4919, Note_on_c, 2, 58, 0
4, 4920, Note_on_c, 2, 58, 127
4, 5040, Note_on_c, 2, 48, 61
4, 5099, Note_on_c, 2, 48, 0
4, 5099, Note_on_c, 2, 58, 0
4, 5100, Note_on_c, 2, 53, 61
4, 5159, Note_on_c, 2, 53, 0
4, 5160, Note_on_c, 2, 58, 127
4, 5429, Note_on_c, 2, 58, 0
4, 5460, Note_on_c, 2, 58, 127
4, 5519, Note_on_c, 2, 58, 0
4, 5580, Note_on_c, 2, 55, 127
4, 5699, Note_on_c, 2, 55, 0
4, 5760, Note_on_c, 2, 48, 82
4, 5819, Note_on_c, 2, 48, 0
4, 5820, Note_on_c, 2, 58, 59
4, 5879, Note_on_c, 2, 58, 0
4, 5880, Note_on_c, 2, 58, 127
4, 6000, Note_on_c, 2, 48, 61
4, 6059, Note_on_c, 2, 48, 0
4, 6059, Note_on_c, 2, 58, 0
4, 6060, Note_on_c, 2, 53, 61
4, 6119, Note_on_c, 2, 53, 0
4, 6120, Note_on_c, 2, 58, 127
4, 6389, Note_on_c, 2, 58, 0
4, 6420, Note_on_c, 2, 58, 125
4, 6479, Note_on_c, 2, 58, 0
4, 6540, Note_on_c, 2, 55, 124
4, 6659, Note_on_c, 2, 55, 0
4, 6720, Note_on_c, 2, 48, 82
4, 6779, Note_on_c, 2, 48, 0
4, 6780, Note_on_c, 2, 58, 59
4, 6839, Note_on_c, 2, 58, 0
4, 6840, Note_on_c, 2, 58, 127
4, 6960, Note_on_c, 2, 48, 61
4, 7019, Note_on_c, 2, 48, 0
4, 7019, Note_on_c, 2, 58, 0
4, 7020, Note_on_c, 2, 53, 61
4, 7079, Note_on_c, 2, 53, 0
4, 7080, Note_on_c, 2, 58, 127
4, 7349, Note_on_c, 2, 58, 0
4, 7380, Note_on_c, 2, 58, 123
4, 7439, Note_on_c, 2, 58, 0
4, 7500, Note_on_c, 2, 55, 123
4, 7619, Note_on_c, 2, 55, 0
4, 7680, Note_on_c, 2, 48, 82
4, 7739, Note_on_c, 2, 48, 0
4, 7740, Note_on_c, 2, 58, 59
4, 7799, Note_on_c, 2, 58, 0
4, 7800, Note_on_c, 2, 58, 127
4, 7920, Note_on_c, 2, 48, 61
4, 7979, Note_on_c, 2, 48, 0
4, 7979, Note_on_c, 2, 58, 0
4, 7980, Note_on_c, 2, 53, 61
4, 8039, Note_on_c, 2, 53, 0
4, 8040, Note_on_c, 2, 58, 127
4, 8309, Note_on_c, 2, 58, 0
4, 8340, Note_on_c, 2, 58, 122
4, 8399, Note_on_c, 2, 58, 0
4, 8460, Note_on_c, 2, 55, 121
4, 8579, Note_on_c, 2, 55, 0
4, 8640, Note_on_c, 2, 48, 82
4, 8699, Note_on_c, 2, 48, 0
4, 8700, Note_on_c, 2, 58, 59
4, 8759, Note_on_c, 2, 58, 0
4, 8760, Note_on_c, 2, 58, 127
4, 8880, Note_on_c, 2, 48, 61
4, 8939, Note_on_c, 2, 48, 0
4, 8939, Note_on_c, 2, 58, 0
4, 8940, Note_on_c, 2, 53, 61
4, 8999, Note_on_c, 2, 53, 0
4, 9000, Note_on_c, 2, 58, 127
4, 9269, Note_on_c, 2, 58, 0
4, 9300, Note_on_c, 2, 58, 123
4, 9359, Note_on_c, 2, 58, 0
4, 9420, Note_on_c, 2, 55, 125
4, 9539, Note_on_c, 2, 55, 0
4, 9600, Note_on_c, 2, 48, 82
4, 9659, Note_on_c, 2, 48, 0
4, 9660, Note_on_c, 2, 58, 59
4, 9719, Note_on_c, 2, 58, 0
4, 9720, Note_on_c, 2, 58, 127
4, 9840, Note_on_c, 2, 48, 61
4, 9899, Note_on_c, 2, 48, 0
4, 9899, Note_on_c, 2, 58, 0
4, 9900, Note_on_c, 2, 53, 61
4, 9959, Note_on_c, 2, 53, 0
4, 9960, Note_on_c, 2, 58, 127
4, 10229, Note_on_c, 2, 58, 0
4, 10260, Note_on_c, 2, 58, 127
4, 10319, Note_on_c, 2, 58, 0
4, 10380, Note_on_c, 2, 55, 127
4, 10649, Note_on_c, 2, 55, 0
4, 11520, Note_on_c, 2, 48, 82
4, 11579, Note_on_c, 2, 48, 0
4, 11580, Note_on_c, 2, 58, 59
4, 11639, Note_on_c, 2, 58, 0
4, 11640, Note_on_c, 2, 58, 127
4, 11760, Note_on_c, 2, 48, 61
4, 11819, Note_on_c, 2, 48, 0
4, 11819, Note_on_c, 2, 58, 0
4, 11820, Note_on_c, 2, 53, 61
4, 11879, Note_on_c, 2, 53, 0
4, 11880, Note_on_c, 2, 58, 127
4, 12149, Note_on_c, 2, 58, 0
4, 12180, Note_on_c, 2, 58, 125
4, 12239, Note_on_c, 2, 58, 0
4, 12300, Note_on_c, 2, 55, 124
4, 12419, Note_on_c, 2, 55, 0
4, 12480, Note_on_c, 2, 48, 82
4, 12539, Note_on_c, 2, 48, 0
4, 12540, Note_on_c, 2, 58, 59
4, 12599, Note_on_c, 2, 58, 0
4, 12600, Note_on_c, 2, 58, 127
4, 12720, Note_on_c, 2, 48, 61
4, 12779, Note_on_c, 2, 48, 0
4, 12779, Note_on_c, 2, 58, 0
4, 12780, Note_on_c, 2, 53, 61
4, 12839, Note_on_c, 2, 53, 0
4, 12840, Note_on_c, 2, 58, 127
4, 13109, Note_on_c, 2, 58, 0
4, 13140, Note_on_c, 2, 58, 126
4, 13199, Note_on_c, 2, 58, 0
4, 13260, Note_on_c, 2, 55, 126
4, 13379, Note_on_c, 2, 55, 0
4, 13440, Note_on_c, 2, 48, 82
4, 13499, Note_on_c, 2, 48, 0
4, 13500, Note_on_c, 2, 58, 59
4, 13559, Note_on_c, 2, 58, 0
4, 13560, Note_on_c, 2, 58, 127
4, 13680, Note_on_c, 2, 48, 61
4, 13739, Note_on_c, 2, 48, 0
4, 13739, Note_on_c, 2, 58, 0
4, 13740, Note_on_c, 2, 53, 61
4, 13799, Note_on_c, 2, 53, 0
4, 13800, Note_on_c, 2, 58, 127
4, 14069, Note_on_c, 2, 58, 0
4, 14100, Note_on_c, 2, 58, 125
4, 14159, Note_on_c, 2, 58, 0
4, 14220, Note_on_c, 2, 55, 124
4, 14339, Note_on_c, 2, 55, 0
4, 14400, Note_on_c, 2, 48, 82
4, 14459, Note_on_c, 2, 48, 0
4, 14460, Note_on_c, 2, 58, 59
4, 14519, Note_on_c, 2, 58, 0
4, 14520, Note_on_c, 2, 58, 127
4, 14640, Note_on_c, 2, 48, 61
4, 14699, Note_on_c, 2, 48, 0
4, 14699, Note_on_c, 2, 58, 0
4, 14700, Note_on_c, 2, 53, 61
4, 14759, Note_on_c, 2, 53, 0
4, 14760, Note_on_c, 2, 58, 127
4, 15029, Note_on_c, 2, 58, 0
4, 15060, Note_on_c, 2, 58, 126
4, 15119, Note_on_c, 2, 58, 0
4, 15180, Note_on_c, 2, 55, 126
4, 15299, Note_on_c, 2, 55, 0
4, 15360, Note_on_c, 2, 48, 82
4, 15419, Note_on_c, 2, 48, 0
4, 15420, Note_on_c, 2, 58, 59
4, 15479, Note_on_c, 2, 58, 0
4, 15480, Note_on_c, 2, 58, 127
4, 15600, Note_on_c, 2, 48, 61
4, 15659, Note_on_c, 2, 48, 0
4, 15659, Note_on_c, 2, 58, 0
4, 15660, Note_on_c, 2, 53, 61
4, 15719, Note_on_c, 2, 53, 0
4, 15720, Note_on_c, 2, 58, 127
4, 15989, Note_on_c, 2, 58, 0
4, 16020, Note_on_c, 2, 58, 125
4, 16079, Note_on_c, 2, 58, 0
4, 16140, Note_on_c, 2, 55, 124
4, 16259, Note_on_c, 2, 55, 0
4, 16320, Note_on_c, 2, 48, 82
4, 16379, Note_on_c, 2, 48, 0
4, 16380, Note_on_c, 2, 58, 59
4, 16439, Note_on_c, 2, 58, 0
4, 16440, Note_on_c, 2, 58, 127
4, 16560, Note_on_c, 2, 48, 61
4, 16619, Note_on_c, 2, 48, 0
4, 16619, Note_on_c, 2, 58, 0
4, 16620, Note_on_c, 2, 53, 61
4, 16679, Note_on_c, 2, 53, 0
4, 16680, Note_on_c, 2, 58, 127
4, 16949, Note_on_c, 2, 58, 0
4, 16980, Note_on_c, 2, 58, 126
4, 17039, Note_on_c, 2, 58, 0
4, 17100, Note_on_c, 2, 55, 126
4, 17219, Note_on_c, 2, 55, 0
4, 17280, Note_on_c, 2, 48, 82
4, 17339, Note_on_c, 2, 48, 0
4, 17340, Note_on_c, 2, 58, 59
4, 17399, Note_on_c, 2, 58, 0
4, 17400, Note_on_c, 2, 58, 127
4, 17520, Note_on_c, 2, 48, 61
4, 17579, Note_on_c, 2, 48, 0
4, 17579, Note_on_c, 2, 58, 0
4, 17580, Note_on_c, 2, 53, 61
4, 17639, Note_on_c, 2, 53, 0
4, 17640, Note_on_c, 2, 58, 127
4, 17909, Note_on_c, 2, 58, 0
4, 17940, Note_on_c, 2, 58, 125
4, 17999, Note_on_c, 2, 58, 0
4, 18060, Note_on_c, 2, 55, 124
4, 18179, Note_on_c, 2, 55, 0
4, 18240, Note_on_c, 2, 48, 82
4, 18299, Note_on_c, 2, 48, 0
4, 18300, Note_on_c, 2, 58, 59
4, 18359, Note_on_c, 2, 58, 0
4, 18360, Note_on_c, 2, 58, 127
4, 18480, Note_on_c, 2, 48, 61
4, 18539, Note_on_c, 2, 48, 0
4, 18539, Note_on_c, 2, 58, 0
4, 18540, Note_on_c, 2, 53, 61
4, 18599, Note_on_c, 2, 53, 0
4, 18600, Note_on_c, 2, 58, 127
4, 18869, Note_on_c, 2, 58, 0
4, 18900, Note_on_c, 2, 58, 126
4, 18959, Note_on_c, 2, 58, 0
4, 19020, Note_on_c, 2, 55, 126
4, 19139, Note_on_c, 2, 55, 0
4, 19200, Note_on_c, 2, 48, 82
4, 19259, Note_on_c, 2, 48, 0
4, 19260, Note_on_c, 2, 58, 59
4, 19319, Note_on_c, 2, 58, 0
4, 19320, Note_on_c, 2, 58, 127
4, 19440, Note_on_c, 2, 48, 61
4, 19499, Note_on_c, 2, 48, 0
4, 19499, Note_on_c, 2, 58, 0
4, 19500, Note_on_c, 2, 53, 61
4, 19559, Note_on_c, 2, 53, 0
4, 19560, Note_on_c, 2, 58, 127
4, 19829, Note_on_c, 2, 58, 0
4, 19860, Note_on_c, 2, 58, 125
4, 19919, Note_on_c, 2, 58, 0
4, 19980, Note_on_c, 2, 55, 124
4, 20099, Note_on_c, 2, 55, 0
4, 20160, Note_on_c, 2, 48, 82
4, 20219, Note_on_c, 2, 48, 0
4, 20220, Note_on_c, 2, 58, 59
4, 20279, Note_on_c, 2, 58, 0
4, 20280, Note_on_c, 2, 58, 127
4, 20400, Note_on_c, 2, 48, 61
4, 20459, Note_on_c, 2, 48, 0
4, 20459, Note_on_c, 2, 58, 0
4, 20460, Note_on_c, 2, 53, 61
4, 20519, Note_on_c, 2, 53, 0
4, 20520, Note_on_c, 2, 58, 127
4, 20789, Note_on_c, 2, 58, 0
4, 20820, Note_on_c, 2, 58, 126
4, 20879, Note_on_c, 2, 58, 0
4, 20940, Note_on_c, 2, 55, 126
4, 21059, Note_on_c, 2, 55, 0
4, 21120, Note_on_c, 2, 48, 82
4, 21179, Note_on_c, 2, 48, 0
4, 21180, Note_on_c, 2, 58, 59
4, 21239, Note_on_c, 2, 58, 0
4, 21240, Note_on_c, 2, 58, 127
4, 21360, Note_on_c, 2, 48, 61
4, 21419, Note_on_c, 2, 48, 0
4, 21419, Note_on_c, 2, 58, 0
4, 21420, Note_on_c, 2, 53, 61
4, 21479, Note_on_c, 2, 53, 0
4, 21480, Note_on_c, 2, 58, 127
4, 21749, Note_on_c, 2, 58, 0
4, 21780, Note_on_c, 2, 58, 125
4, 21839, Note_on_c, 2, 58, 0
4, 21900, Note_on_c, 2, 55, 124
4, 22019, Note_on_c, 2, 55, 0
4, 22080, Note_on_c, 2, 48, 82
4, 22139, Note_on_c, 2, 48, 0
4, 22140, Note_on_c, 2, 58, 59
4, 22199, Note_on_c, 2, 58, 0
4, 22200, Note_on_c, 2, 58, 127
4, 22320, Note_on_c, 2, 48, 61
4, 22379, Note_on_c, 2, 48, 0
4, 22379, Note_on_c, 2, 58, 0
4, 22380, Note_on_c, 2, 53, 61
4, 22439, Note_on_c, 2, 53, 0
4, 22440, Note_on_c, 2, 58, 127
4, 22709, Note_on_c, 2, 58, 0
4, 22740, Note_on_c, 2, 58, 126
4, 22799, Note_on_c, 2, 58, 0
4, 22860, Note_on_c, 2, 55, 126
4, 22979, Note_on_c, 2, 55, 0
4, 23040, Note_on_c, 2, 48, 82
4, 23099, Note_on_c, 2, 48, 0
4, 23100, Note_on_c, 2, 58, 59
4, 23159, Note_on_c, 2, 58, 0
4, 23160, Note_on_c, 2, 58, 127
4, 23280, Note_on_c, 2, 48, 61
4, 23339, Note_on_c, 2, 48, 0
4, 23339, Note_on_c, 2, 58, 0
4, 23340, Note_on_c, 2, 53, 61
4, 23399, Note_on_c, 2, 53, 0
4, 23400, Note_on_c, 2, 58, 127
4, 23669, Note_on_c, 2, 58, 0
4, 23700, Note_on_c, 2, 58, 127
4, 23759, Note_on_c, 2, 58, 0
4, 23820, Note_on_c, 2, 55, 126
4, 23939, Note_on_c, 2, 55, 0
4, 24000, Note_on_c, 2, 48, 82
4, 24059, Note_on_c, 2, 48, 0
4, 24060, Note_on_c, 2, 58, 59
4, 24119, Note_on_c, 2, 58, 0
4, 24120, Note_on_c, 2, 58, 127
4, 24240, Note_on_c, 2, 48, 61
4, 24299, Note_on_c, 2, 48, 0
4, 24299, Note_on_c, 2, 58, 0
4, 24300, Note_on_c, 2, 53, 61
4, 24359, Note_on_c, 2, 53, 0
4, 24360, Note_on_c, 2, 58, 127
4, 24629, Note_on_c, 2, 58, 0
4, 24660, Note_on_c, 2, 58, 127
4, 24719, Note_on_c, 2, 58, 0
4, 24780, Note_on_c, 2, 55, 127
4, 24899, Note_on_c, 2, 55, 0
4, 24960, Note_on_c, 2, 48, 82
4, 25019, Note_on_c, 2, 48, 0
4, 25020, Note_on_c, 2, 58, 59
4, 25079, Note_on_c, 2, 58, 0
4, 25080, Note_on_c, 2, 58, 127
4, 25200, Note_on_c, 2, 48, 61
4, 25259, Note_on_c, 2, 48, 0
4, 25259, Note_on_c, 2, 58, 0
4, 25260, Note_on_c, 2, 53, 61
4, 25319, Note_on_c, 2, 53, 0
4, 25320, Note_on_c, 2, 58, 127
4, 25589, Note_on_c, 2, 58, 0
4, 25620, Note_on_c, 2, 58, 125
4, 25679, Note_on_c, 2, 58, 0
4, 25740, Note_on_c, 2, 55, 124
4, 25859, Note_on_c, 2, 55, 0
4, 25920, Note_on_c, 2, 48, 82
4, 25979, Note_on_c, 2, 48, 0
4, 25980, Note_on_c, 2, 58, 59
4, 26039, Note_on_c, 2, 58, 0
4, 26040, Note_on_c, 2, 58, 127
4, 26160, Note_on_c, 2, 48, 61
4, 26219, Note_on_c, 2, 48, 0
4, 26219, Note_on_c, 2, 58, 0
4, 26220, Note_on_c, 2, 53, 61
4, 26279, Note_on_c, 2, 53, 0
4, 26280, Note_on_c, 2, 58, 127
4, 26549, Note_on_c, 2, 58, 0
4, 26580, Note_on_c, 2, 58, 123
4, 26639, Note_on_c, 2, 58, 0
4, 26700, Note_on_c, 2, 55, 123
4, 26819, Note_on_c, 2, 55, 0
4, 26880, Note_on_c, 2, 48, 82
4, 26939, Note_on_c, 2, 48, 0
4, 26940, Note_on_c, 2, 58, 59
4, 26999, Note_on_c, 2, 58, 0
4, 27000, Note_on_c, 2, 58, 127
4, 27120, Note_on_c, 2, 48, 61
4, 27179, Note_on_c, 2, 48, 0
4, 27179, Note_on_c, 2, 58, 0
4, 27180, Note_on_c, 2, 53, 61
4, 27239, Note_on_c, 2, 53, 0
4, 27240, Note_on_c, 2, 58, 127
4, 27509, Note_on_c, 2, 58, 0
4, 27540, Note_on_c, 2, 58, 122
4, 27599, Note_on_c, 2, 58, 0
4, 27660, Note_on_c, 2, 55, 121
4, 27779, Note_on_c, 2, 55, 0
4, 27840, Note_on_c, 2, 48, 82
4, 27899, Note_on_c, 2, 48, 0
4, 27900, Note_on_c, 2, 58, 59
4, 27959, Note_on_c, 2, 58, 0
4, 27960, Note_on_c, 2, 58, 127
4, 28080, Note_on_c, 2, 48, 61
4, 28139, Note_on_c, 2, 48, 0
4, 28139, Note_on_c, 2, 58, 0
4, 28140, Note_on_c, 2, 53, 61
4, 28199, Note_on_c, 2, 53, 0
4, 28200, Note_on_c, 2, 58, 127
4, 28469, Note_on_c, 2, 58, 0
4, 28500, Note_on_c, 2, 58, 123
4, 28559, Note_on_c, 2, 58, 0
4, 28620, Note_on_c, 2, 55, 125
4, 28739, Note_on_c, 2, 55, 0
4, 28800, Note_on_c, 2, 48, 82
4, 28859, Note_on_c, 2, 48, 0
4, 28860, Note_on_c, 2, 58, 59
4, 28919, Note_on_c, 2, 58, 0
4, 28920, Note_on_c, 2, 58, 127
4, 29040, Note_on_c, 2, 48, 61
4, 29099, Note_on_c, 2, 48, 0
4, 29099, Note_on_c, 2, 58, 0
4, 29100, Note_on_c, 2, 53, 61
4, 29159, Note_on_c, 2, 53, 0
4, 29160, Note_on_c, 2, 58, 127
4, 29429, Note_on_c, 2, 58, 0
4, 29460, Note_on_c, 2, 58, 127
4, 29519, Note_on_c, 2, 58, 0
4, 29580, Note_on_c, 2, 55, 127
4, 29849, Note_on_c, 2, 55, 0
4, 30720, Note_on_c, 2, 48, 82
4, 30779, Note_on_c, 2, 48, 0
4, 30780, Note_on_c, 2, 58, 59
4, 30839, Note_on_c, 2, 58, 0
4, 30840, Note_on_c, 2, 58, 127
4, 30960, Note_on_c, 2, 48, 61
4, 31019, Note_on_c, 2, 48, 0
4, 31019, Note_on_c, 2, 58, 0
4, 31020, Note_on_c, 2, 53, 61
4, 31079, Note_on_c, 2, 53, 0
4, 31080, Note_on_c, 2, 58, 127
4, 31349, Note_on_c, 2, 58, 0
4, 31380, Note_on_c, 2, 58, 127
4, 31439, Note_on_c, 2, 58, 0
4, 31500, Note_on_c, 2, 55, 127
4, 31619, Note_on_c, 2, 55, 0
4, 31680, Note_on_c, 2, 48, 82
4, 31739, Note_on_c, 2, 48, 0
4, 31740, Note_on_c, 2, 58, 59
4, 31799, Note_on_c, 2, 58, 0
4, 31800, Note_on_c, 2, 55, 61
4, 31800, Note_on_c, 2, 58, 127
4, 31859, Note_on_c, 2, 55, 0
4, 32249, Note_on_c, 2, 58, 0
4, 32340, Note_on_c, 2, 58, 127
4, 32399, Note_on_c, 2, 58, 0
4, 32460, Note_on_c, 2, 55, 127
4, 32579, Note_on_c, 2, 55, 0
4, 32640, Note_on_c, 2, 48, 82
4, 32699, Note_on_c, 2, 48, 0
4, 32700, Note_on_c, 2, 58, 59
4, 32759, Note_on_c, 2, 58, 0
4, 32760, Note_on_c, 2, 58, 127
4, 32880, Note_on_c, 2, 48, 61
4, 32939, Note_on_c, 2, 48, 0
4, 32939, Note_on_c, 2, 58, 0
4, 32940, Note_on_c, 2, 53, 61
4, 32999, Note_on_c, 2, 53, 0
4, 33000, Note_on_c, 2, 58, 127
4, 33269, Note_on_c, 2, 58, 0
4, 33300, Note_on_c, 2, 58, 127
4, 33359, Note_on_c, 2, 58, 0
4, 33420, Note_on_c, 2, 55, 127
4, 33539, Note_on_c, 2, 55, 0
4, 33600, Note_on_c, 2, 48, 82
4, 33659, Note_on_c, 2, 48, 0
4, 33660, Note_on_c, 2, 58, 59
4, 33719, Note_on_c, 2, 58, 0
4, 33720, Note_on_c, 2, 55, 61
4, 33720, Note_on_c, 2, 58, 127
4, 33779, Note_on_c, 2, 55, 0
4, 34169, Note_on_c, 2, 58, 0
4, 34260, Note_on_c, 2, 58, 127
4, 34319, Note_on_c, 2, 58, 0
4, 34380, Note_on_c, 2, 55, 127
4, 34499, Note_on_c, 2, 55, 0
4, 34560, Note_on_c, 2, 48, 82
4, 34619, Note_on_c, 2, 48, 0
4, 34620, Note_on_c, 2, 58, 59
4, 34679, Note_on_c, 2, 58, 0
4, 34680, Note_on_c, 2, 58, 127
4, 34800, Note_on_c, 2, 48, 61
4, 34859, Note_on_c, 2, 48, 0
4, 34859, Note_on_c, 2, 58, 0
4, 34860, Note_on_c, 2, 53, 61
4, 34919, Note_on_c, 2, 53, 0
4, 34920, Note_on_c, 2, 58, 127
4, 35189, Note_on_c, 2, 58, 0
4, 35220, Note_on_c, 2, 58, 125
4, 35279, Note_on_c, 2, 58, 0
4, 35340, Note_on_c, 2, 55, 124
4, 35459, Note_on_c, 2, 55, 0
4, 35520, Note_on_c, 2, 48, 82
4, 35579, Note_on_c, 2, 48, 0
4, 35580, Note_on_c, 2, 58, 59
4, 35639, Note_on_c, 2, 58, 0
4, 35640, Note_on_c, 2, 58, 127
4, 35760, Note_on_c, 2, 48, 61
4, 35819, Note_on_c, 2, 48, 0
4, 35819, Note_on_c, 2, 58, 0
4, 35820, Note_on_c, 2, 53, 61
4, 35879, Note_on_c, 2, 53, 0
4, 35880, Note_on_c, 2, 58, 127
4, 36149, Note_on_c, 2, 58, 0
4, 36180, Note_on_c, 2, 58, 126
4, 36239, Note_on_c, 2, 58, 0
4, 36300, Note_on_c, 2, 55, 126
4, 36419, Note_on_c, 2, 55, 0
4, 36480, Note_on_c, 2, 48, 82
4, 36539, Note_on_c, 2, 48, 0
4, 36540, Note_on_c, 2, 58, 59
4, 36599, Note_on_c, 2, 58, 0
4, 36600, Note_on_c, 2, 58, 127
4, 36720, Note_on_c, 2, 48, 61
4, 36779, Note_on_c, 2, 48, 0
4, 36779, Note_on_c, 2, 58, 0
4, 36780, Note_on_c, 2, 53, 61
4, 36839, Note_on_c, 2, 53, 0
4, 36840, Note_on_c, 2, 58, 127
4, 37109, Note_on_c, 2, 58, 0
4, 37140, Note_on_c, 2, 58, 125
4, 37199, Note_on_c, 2, 58, 0
4, 37260, Note_on_c, 2, 55, 124
4, 37379, Note_on_c, 2, 55, 0
4, 37440, Note_on_c, 2, 48, 82
4, 37499, Note_on_c, 2, 48, 0
4, 37500, Note_on_c, 2, 58, 59
4, 37559, Note_on_c, 2, 58, 0
4, 37560, Note_on_c, 2, 58, 127
4, 37680, Note_on_c, 2, 48, 61
4, 37739, Note_on_c, 2, 48, 0
4, 37739, Note_on_c, 2, 58, 0
4, 37740, Note_on_c, 2, 53, 61
4, 37799, Note_on_c, 2, 53, 0
4, 37800, Note_on_c, 2, 58, 127
4, 38069, Note_on_c, 2, 58, 0
4, 38100, Note_on_c, 2, 58, 126
4, 38159, Note_on_c, 2, 58, 0
4, 38220, Note_on_c, 2, 55, 126
4, 38339, Note_on_c, 2, 55, 0
4, 38400, Note_on_c, 2, 48, 82
4, 38459, Note_on_c, 2, 48, 0
4, 38460, Note_on_c, 2, 58, 59
4, 38519, Note_on_c, 2, 58, 0
4, 38520, Note_on_c, 2, 58, 127
4, 38640, Note_on_c, 2, 48, 61
4, 38699, Note_on_c, 2, 48, 0
4, 38699, Note_on_c, 2, 58, 0
4, 38700, Note_on_c, 2, 53, 61
4, 38759, Note_on_c, 2, 53, 0
4, 38760, Note_on_c, 2, 58, 127
4, 39029, Note_on_c, 2, 58, 0
4, 39060, Note_on_c, 2, 58, 125
4, 39119, Note_on_c, 2, 58, 0
4, 39180, Note_on_c, 2, 55, 124
4, 39299, Note_on_c, 2, 55, 0
4, 39360, Note_on_c, 2, 48, 82
4, 39419, Note_on_c, 2, 48, 0
4, 39420, Note_on_c, 2, 58, 59
4, 39479, Note_on_c, 2, 58, 0
4, 39480, Note_on_c, 2, 58, 127
4, 39600, Note_on_c, 2, 48, 61
4, 39659, Note_on_c, 2, 48, 0
4, 39659, Note_on_c, 2, 58, 0
4, 39660, Note_on_c, 2, 53, 61
4, 39719, Note_on_c, 2, 53, 0
4, 39720, Note_on_c, 2, 58, 127
4, 39989, Note_on_c, 2, 58, 0
4, 40020, Note_on_c, 2, 58, 126
4, 40079, Note_on_c, 2, 58, 0
4, 40140, Note_on_c, 2, 55, 126
4, 40259, Note_on_c, 2, 55, 0
4, 40320, Note_on_c, 2, 48, 82
4, 40379, Note_on_c, 2, 48, 0
4, 40380, Note_on_c, 2, 58, 59
4, 40439, Note_on_c, 2, 58, 0
4, 40440, Note_on_c, 2, 58, 127
4, 40560, Note_on_c, 2, 48, 61
4, 40619, Note_on_c, 2, 48, 0
4, 40619, Note_on_c, 2, 58, 0
4, 40620, Note_on_c, 2, 53, 61
4, 40679, Note_on_c, 2, 53, 0
4, 40680, Note_on_c, 2, 58, 127
4, 40949, Note_on_c, 2, 58, 0
4, 40980, Note_on_c, 2, 58, 125
4, 41039, Note_on_c, 2, 58, 0
4, 41100, Note_on_c, 2, 55, 124
4, 41219, Note_on_c, 2, 55, 0
4, 41280, Note_on_c, 2, 48, 82
4, 41339, Note_on_c, 2, 48, 0
4, 41340, Note_on_c, 2, 58, 59
4, 41399, Note_on_c, 2, 58, 0
4, 41400, Note_on_c, 2, 58, 127
4, 41520, Note_on_c, 2, 48, 61
4, 41579, Note_on_c, 2, 48, 0
4, 41579, Note_on_c, 2, 58, 0
4, 41580, Note_on_c, 2, 53, 61
4, 41639, Note_on_c, 2, 53, 0
4, 41640, Note_on_c, 2, 58, 127
4, 41909, Note_on_c, 2, 58, 0
4, 41940, Note_on_c, 2, 58, 126
4, 41999, Note_on_c, 2, 58, 0
4, 42060, Note_on_c, 2, 55, 126
4, 42179, Note_on_c, 2, 55, 0
4, 42240, Note_on_c, 2, 48, 82
4, 42299, Note_on_c, 2, 48, 0
4, 42300, Note_on_c, 2, 58, 59
4, 42359, Note_on_c, 2, 58, 0
4, 42360, Note_on_c, 2, 58, 127
4, 42480, Note_on_c, 2, 48, 61
4, 42539, Note_on_c, 2, 48, 0
4, 42539, Note_on_c, 2, 58, 0
4, 42540, Note_on_c, 2, 53, 61
4, 42599, Note_on_c, 2, 53, 0
4, 42600, Note_on_c, 2, 58, 127
4, 42869, Note_on_c, 2, 58, 0
4, 42900, Note_on_c, 2, 58, 125
4, 42959, Note_on_c, 2, 58, 0
4, 43020, Note_on_c, 2, 55, 124
4, 43139, Note_on_c, 2, 55, 0
4, 43200, Note_on_c, 2, 48, 82
4, 43259, Note_on_c, 2, 48, 0
4, 43260, Note_on_c, 2, 58, 59
4, 43319, Note_on_c, 2, 58, 0
4, 43320, Note_on_c, 2, 58, 127
4, 43440, Note_on_c, 2, 48, 61
4, 43499, Note_on_c, 2, 48, 0
4, 43499, Note_on_c, 2, 58, 0
4, 43500, Note_on_c, 2, 53, 61
4, 43559, Note_on_c, 2, 53, 0
4, 43560, Note_on_c, 2, 58, 127
4, 43829, Note_on_c, 2, 58, 0
4, 43860, Note_on_c, 2, 58, 126
4, 43919, Note_on_c, 2, 58, 0
4, 43980, Note_on_c, 2, 55, 126
4, 44099, Note_on_c, 2, 55, 0
4, 44160, Note_on_c, 2, 48, 82
4, 44219, Note_on_c, 2, 48, 0
4, 44220, Note_on_c, 2, 58, 59
4, 44279, Note_on_c, 2, 58, 0
4, 44280, Note_on_c, 2, 58, 127
4, 44400, Note_on_c, 2, 48, 61
4, 44459, Note_on_c, 2, 48, 0
4, 44459, Note_on_c, 2, 58, 0
4, 44460, Note_on_c, 2, 53, 61
4, 44519, Note_on_c, 2, 53, 0
4, 44520, Note_on_c, 2, 58, 127
4, 44789, Note_on_c, 2, 58, 0
4, 44820, Note_on_c, 2, 58, 125
4, 44879, Note_on_c, 2, 58, 0
4, 44940, Note_on_c, 2, 55, 124
4, 45059, Note_on_c, 2, 55, 0
4, 45120, Note_on_c, 2, 48, 82
4, 45179, Note_on_c, 2, 48, 0
4, 45180, Note_on_c, 2, 58, 59
4, 45239, Note_on_c, 2, 58, 0
4, 45240, Note_on_c, 2, 58, 127
4, 45360, Note_on_c, 2, 48, 61
4, 45419, Note_on_c, 2, 48, 0
4, 45419, Note_on_c, 2, 58, 0
4, 45420, Note_on_c, 2, 53, 61
4, 45479, Note_on_c, 2, 53, 0
4, 45480, Note_on_c, 2, 58, 127
4, 45749, Note_on_c, 2, 58, 0
4, 45780, Note_on_c, 2, 58, 126
4, 45839, Note_on_c, 2, 58, 0
4, 45900, Note_on_c, 2, 55, 126
4, 46019, Note_on_c, 2, 55, 0
4, 46080, Note_on_c, 2, 48, 82
4, 46139, Note_on_c, 2, 48, 0
4, 46140, Note_on_c, 2, 58, 59
4, 46199, Note_on_c, 2, 58, 0
4, 46200, Note_on_c, 2, 58, 127
4, 46320, Note_on_c, 2, 48, 61
4, 46379, Note_on_c, 2, 48, 0
4, 46379, Note_on_c, 2, 58, 0
4, 46380, Note_on_c, 2, 53, 61
4, 46439, Note_on_c, 2, 53, 0
4, 46440, Note_on_c, 2, 58, 127
4, 46709, Note_on_c, 2, 58, 0
4, 46740, Note_on_c, 2, 58, 125
4, 46799, Note_on_c, 2, 58, 0
4, 46860, Note_on_c, 2, 55, 124
4, 46979, Note_on_c, 2, 55, 0
4, 47040, Note_on_c, 2, 48, 82
4, 47099, Note_on_c, 2, 48, 0
4, 47100, Note_on_c, 2, 58, 59
4, 47159, Note_on_c, 2, 58, 0
4, 47160, Note_on_c, 2, 58, 127
4, 47280, Note_on_c, 2, 48, 61
4, 47339, Note_on_c, 2, 48, 0
4, 47339, Note_on_c, 2, 58, 0
4, 47340, Note_on_c, 2, 53, 61
4, 47399, Note_on_c, 2, 53, 0
4, 47400, Note_on_c, 2, 58, 127
4, 47669, Note_on_c, 2, 58, 0
4, 47700, Note_on_c, 2, 58, 126
4, 47759, Note_on_c, 2, 58, 0
4, 47820, Note_on_c, 2, 55, 126
4, 47939, Note_on_c, 2, 55, 0
4, 48000, Note_on_c, 2, 48, 82
4, 48059, Note_on_c, 2, 48, 0
4, 48060, Note_on_c, 2, 58, 59
4, 48119, Note_on_c, 2, 58, 0
4, 48120, Note_on_c, 2, 58, 127
4, 48240, Note_on_c, 2, 48, 61
4, 48299, Note_on_c, 2, 48, 0
4, 48299, Note_on_c, 2, 58, 0
4, 48300, Note_on_c, 2, 53, 61
4, 48359, Note_on_c, 2, 53, 0
4, 48360, Note_on_c, 2, 58, 127
4, 48629, Note_on_c, 2, 58, 0
4, 48660, Note_on_c, 2, 58, 125
4, 48719, Note_on_c, 2, 58, 0
4, 48780, Note_on_c, 2, 55, 124
4, 48899, Note_on_c, 2, 55, 0
4, 48960, Note_on_c, 2, 48, 82
4, 49019, Note_on_c, 2, 48, 0
4, 49020, Note_on_c, 2, 58, 59
4, 49079, Note_on_c, 2, 58, 0
4, 49080, Note_on_c, 2, 58, 127
4, 49200, Note_on_c, 2, 48, 61
4, 49259, Note_on_c, 2, 48, 0
4, 49259, Note_on_c, 2, 58, 0
4, 49260, Note_on_c, 2, 53, 61
4, 49319, Note_on_c, 2, 53, 0
4, 49320, Note_on_c, 2, 58, 127
4, 49589, Note_on_c, 2, 58, 0
4, 49620, Note_on_c, 2, 58, 126
4, 49679, Note_on_c, 2, 58, 0
4, 49740, Note_on_c, 2, 55, 126
4, 49859, Note_on_c, 2, 55, 0
4, 49920, Note_on_c, 2, 48, 82
4, 49979, Note_on_c, 2, 48, 0
4, 49980, Note_on_c, 2, 58, 59
4, 50039, Note_on_c, 2, 58, 0
4, 50040, Note_on_c, 2, 58, 127
4, 50160, Note_on_c, 2, 48, 61
4, 50219, Note_on_c, 2, 48, 0
4, 50219, Note_on_c, 2, 58, 0
4, 50220, Note_on_c, 2, 53, 61
4, 50279, Note_on_c, 2, 53, 0
4, 50280, Note_on_c, 2, 58, 127
4, 50549, Note_on_c, 2, 58, 0
4, 50580, Note_on_c, 2, 58, 125
4, 50639, Note_on_c, 2, 58, 0
4, 50700, Note_on_c, 2, 55, 124
4, 50819, Note_on_c, 2, 55, 0
4, 50880, Note_on_c, 2, 48, 82
4, 50939, Note_on_c, 2, 48, 0
4, 50940, Note_on_c, 2, 58, 59
4, 50999, Note_on_c, 2, 58, 0
4, 51000, Note_on_c, 2, 58, 127
4, 51120, Note_on_c, 2, 48, 61
4, 51179, Note_on_c, 2, 48, 0
4, 51179, Note_on_c, 2, 58, 0
4, 51180, Note_on_c, 2, 53, 61
4, 51239, Note_on_c, 2, 53, 0
4, 51240, Note_on_c, 2, 58, 127
4, 51509, Note_on_c, 2, 58, 0
4, 51540, Note_on_c, 2, 58, 126
4, 51599, Note_on_c, 2, 58, 0
4, 51660, Note_on_c, 2, 55, 126
4, 51779, Note_on_c, 2, 55, 0
4, 51840, Note_on_c, 2, 48, 82
4, 51899, Note_on_c, 2, 48, 0
4, 51900, Note_on_c, 2, 58, 59
4, 51959, Note_on_c, 2, 58, 0
4, 51960, Note_on_c, 2, 58, 127
4, 52080, Note_on_c, 2, 48, 61
4, 52139, Note_on_c, 2, 48, 0
4, 52139, Note_on_c, 2, 58, 0
4, 52140, Note_on_c, 2, 53, 61
4, 52199, Note_on_c, 2, 53, 0
4, 52200, Note_on_c, 2, 58, 127
4, 52469, Note_on_c, 2, 58, 0
4, 52500, Note_on_c, 2, 58, 125
4, 52559, Note_on_c, 2, 58, 0
4, 52620, Note_on_c, 2, 55, 124
4, 52739, Note_on_c, 2, 55, 0
4, 52800, Note_on_c, 2, 48, 82
4, 52859, Note_on_c, 2, 48, 0
4, 52860, Note_on_c, 2, 58, 59
4, 52919, Note_on_c, 2, 58, 0
4, 52920, Note_on_c, 2, 58, 127
4, 53040, Note_on_c, 2, 48, 61
4, 53099, Note_on_c, 2, 48, 0
4, 53099, Note_on_c, 2, 58, 0
4, 53100, Note_on_c, 2, 53, 61
4, 53159, Note_on_c, 2, 53, 0
4, 53160, Note_on_c, 2, 58, 127
4, 53429, Note_on_c, 2, 58, 0
4, 53460, Note_on_c, 2, 58, 126
4, 53519, Note_on_c, 2, 58, 0
4, 53580, Note_on_c, 2, 55, 126
4, 53699, Note_on_c, 2, 55, 0
4, 53760, Note_on_c, 2, 48, 82
4, 53819, Note_on_c, 2, 48, 0
4, 53820, Note_on_c, 2, 58, 59
4, 53879, Note_on_c, 2, 58, 0
4, 53880, Note_on_c, 2, 58, 127
4, 54000, Note_on_c, 2, 48, 61
4, 54059, Note_on_c, 2, 48, 0
4, 54059, Note_on_c, 2, 58, 0
4, 54060, Note_on_c, 2, 53, 61
4, 54119, Note_on_c, 2, 53, 0
4, 54120, Note_on_c, 2, 58, 127
4, 54389, Note_on_c, 2, 58, 0
4, 54420, Note_on_c, 2, 58, 125
4, 54479, Note_on_c, 2, 58, 0
4, 54540, Note_on_c, 2, 55, 124
4, 54659, Note_on_c, 2, 55, 0
4, 54720, Note_on_c, 2, 48, 82
4, 54779, Note_on_c, 2, 48, 0
4, 54780, Note_on_c, 2, 58, 59
4, 54839, Note_on_c, 2, 58, 0
4, 54840, Note_on_c, 2, 58, 127
4, 54960, Note_on_c, 2, 48, 61
4, 55019, Note_on_c, 2, 48, 0
4, 55019, Note_on_c, 2, 58, 0
4, 55020, Note_on_c, 2, 53, 61
4, 55079, Note_on_c, 2, 53, 0
4, 55080, Note_on_c, 2, 58, 127
4, 55349, Note_on_c, 2, 58, 0
4, 55380, Note_on_c, 2, 58, 126
4, 55439, Note_on_c, 2, 58, 0
4, 55500, Note_on_c, 2, 55, 126
4, 55619, Note_on_c, 2, 55, 0
4, 55680, Note_on_c, 2, 48, 82
4, 55739, Note_on_c, 2, 48, 0
4, 55740, Note_on_c, 2, 58, 59
4, 55799, Note_on_c, 2, 58, 0
4, 55800, Note_on_c, 2, 58, 127
4, 55920, Note_on_c, 2, 48, 61
4, 55979, Note_on_c, 2, 48, 0
4, 55979, Note_on_c, 2, 58, 0
4, 55980, Note_on_c, 2, 53, 61
4, 56039, Note_on_c, 2, 53, 0
4, 56040, Note_on_c, 2, 58, 127
4, 56309, Note_on_c, 2, 58, 0
4, 56340, Note_on_c, 2, 58, 125
4, 56399, Note_on_c, 2, 58, 0
4, 56460, Note_on_c, 2, 55, 124
4, 56579, Note_on_c, 2, 55, 0
4, 56640, Note_on_c, 2, 48, 82
4, 56699, Note_on_c, 2, 48, 0
4, 56700, Note_on_c, 2, 58, 59
4, 56759, Note_on_c, 2, 58, 0
4, 56760, Note_on_c, 2, 58, 127
4, 56880, Note_on_c, 2, 48, 61
4, 56939, Note_on_c, 2, 48, 0
4, 56939, Note_on_c, 2, 58, 0
4, 56940, Note_on_c, 2, 53, 61
4, 56999, Note_on_c, 2, 53, 0
4, 57000, Note_on_c, 2, 58, 127
4, 57269, Note_on_c, 2, 58, 0
4, 57300, Note_on_c, 2, 58, 126
4, 57359, Note_on_c, 2, 58, 0
4, 57420, Note_on_c, 2, 55, 126
4, 57539, Note_on_c, 2, 55, 0
4, 57600, Note_on_c, 2, 48, 82
4, 57659, Note_on_c, 2, 48, 0
4, 57660, Note_on_c, 2, 58, 59
4, 57719, Note_on_c, 2, 58, 0
4, 57720, Note_on_c, 2, 58, 127
4, 57840, Note_on_c, 2, 48, 61
4, 57899, Note_on_c, 2, 48, 0
4, 57899, Note_on_c, 2, 58, 0
4, 57900, Note_on_c, 2, 53, 61
4, 57959, Note_on_c, 2, 53, 0
4, 57960, Note_on_c, 2, 58, 127
4, 58229, Note_on_c, 2, 58, 0
4, 58260, Note_on_c, 2, 58, 127
4, 58319, Note_on_c, 2, 58, 0
4, 58380, Note_on_c, 2, 55, 127
4, 58499, Note_on_c, 2, 55, 0
4, 58560, Note_on_c, 2, 48, 82
4, 58619, Note_on_c, 2, 48, 0
4, 58620, Note_on_c, 2, 58, 59
4, 58679, Note_on_c, 2, 58, 0
4, 58680, Note_on_c, 2, 55, 61
4, 58680, Note_on_c, 2, 58, 127
4, 58739, Note_on_c, 2, 55, 0
4, 59040, Control_c, 2, 7, 80
4, 59075, Control_c, 2, 7, 79
4, 59111, Control_c, 2, 7, 78
4, 59129, Note_on_c, 2, 58, 0
4, 59147, Control_c, 2, 7, 77
4, 59183, Control_c, 2, 7, 76
4, 59219, Control_c, 2, 7, 75
4, 59220, Note_on_c, 2, 58, 127
4, 59255, Control_c, 2, 7, 74
4, 59279, Note_on_c, 2, 58, 0
4, 59291, Control_c, 2, 7, 73
4, 59327, Control_c, 2, 7, 72
4, 59340, Note_on_c, 2, 55, 127
4, 59363, Control_c, 2, 7, 71
4, 59399, Control_c, 2, 7, 70
4, 59435, Control_c, 2, 7, 69
4, 59459, Note_on_c, 2, 55, 0
4, 59471, Control_c, 2, 7, 68
4, 59507, Control_c, 2, 7, 67
4, 59520, Note_on_c, 2, 48, 82
4, 59543, Control_c, 2, 7, 66
4, 59579, Note_on_c, 2, 48, 0
4, 59579, Control_c, 2, 7, 65
4, 59580, Note_on_c, 2, 58, 59
4, 59615, Control_c, 2, 7, 64
4, 59639, Note_on_c, 2, 58, 0
4, 59640, Note_on_c, 2, 58, 127
4, 59651, Control_c, 2, 7, 63
4, 59687, Control_c, 2, 7, 62
4, 59723, Control_c, 2, 7, 61
4, 59759, Control_c, 2, 7, 60
4, 59760, Note_on_c, 2, 48, 61
4, 59795, Control_c, 2, 7, 59
4, 59819, Note_on_c, 2, 48, 0
4, 59819, Note_on_c, 2, 58, 0
4, 59820, Note_on_c, 2, 53, 61
4, 59831, Control_c, 2, 7, 58
4, 59867, Control_c, 2, 7, 57
4, 59879, Note_on_c, 2, 53, 0
4, 59880, Note_on_c, 2, 58, 127
4, 59903, Control_c, 2, 7, 56
4, 59939, Control_c, 2, 7, 55
4, 59975, Control_c, 2, 7, 54
4, 60011, Control_c, 2, 7, 53
4, 60047, Control_c, 2, 7, 52
4, 60083, Control_c, 2, 7, 51
4, 60119, Control_c, 2, 7, 50
4, 60149, Note_on_c, 2, 58, 0
4, 60155, Control_c, 2, 7, 49
4, 60180, Note_on_c, 2, 58, 127
4, 60191, Control_c, 2, 7, 48
4, 60227, Control_c, 2, 7, 47
4, 60239, Note_on_c, 2, 58, 0
4, 60263, Control_c, 2, 7, 46
4, 60299, Control_c, 2, 7, 45
4, 60300, Note_on_c, 2, 55, 127
4, 60335, Control_c, 2, 7, 44
4, 60371, Control_c, 2, 7, 43
4, 60407, Control_c, 2, 7, 42
4, 60419, Note_on_c, 2, 55, 0
4, 60443, Control_c, 2, 7, 41
4, 60479, Control_c, 2, 7, 40
4, 60480, Note_on_c, 2, 48, 82
4, 60515, Control_c, 2, 7, 39
4, 60539, Note_on_c, 2, 48, 0
4, 60540, Note_on_c, 2, 58, 59
4, 60551, Control_c, 2, 7, 38
4, 60587, Control_c, 2, 7, 37
4, 60599, Note_on_c, 2, 58, 0
4, 60600, Note_on_c, 2, 55, 61
4, 60600, Note_on_c, 2, 58, 127
4, 60623, Control_c, 2, 7, 36
4, 60659, Note_on_c, 2, 55, 0
4, 60659, Control_c, 2, 7, 35
4, 60695, Control_c, 2, 7, 34
4, 60731, Control_c, 2, 7, 33
4, 60767, Control_c, 2, 7, 32
4, 60803, Control_c, 2, 7, 31
4, 60839, Control_c, 2, 7, 30
4, 60875, Control_c, 2, 7, 29
4, 60911, Control_c, 2, 7, 28
4, 60947, Control_c, 2, 7, 27
4, 60983, Control_c, 2, 7, 26
4, 61019, Control_c, 2, 7, 25
4, 61049, Note_on_c, 2, 58, 0
4, 61055, Control_c, 2, 7, 24
4, 61091, Control_c, 2, 7, 23
4, 61127, Control_c, 2, 7, 22
4, 61140, Note_on_c, 2, 58, 127
4, 61163, Control_c, 2, 7, 21
4, 61199, Note_on_c, 2, 58, 0
4, 61199, Control_c, 2, 7, 20
4, 61235, Control_c, 2, 7, 19
4, 61260, Note_on_c, 2, 55, 127
4, 61271, Control_c, 2, 7, 18
4, 61307, Control_c, 2, 7, 17
4, 61343, Control_c, 2, 7, 16
4, 61379, Note_on_c, 2, 55, 0
4, 61379, Control_c, 2, 7, 15
4, 61415, Control_c, 2, 7, 14
4, 61451, Control_c, 2, 7, 13
4, 61487, Control_c, 2, 7, 12
4, 61523, Control_c, 2, 7, 11
4, 61559, Control_c, 2, 7, 10
4, 61595, Control_c, 2, 7, 9
4, 61631, Control_c, 2, 7, 8
4, 61667, Control_c, 2, 7, 7
4, 61703, Control_c, 2, 7, 6
4, 61739, Control_c, 2, 7, 5
4, 61775, Control_c, 2, 7, 4
4, 61811, Control_c, 2, 7, 3
4, 61847, Control_c, 2, 7, 2
4, 61883, Control_c, 2, 7, 1
4, 61919, Control_c, 2, 7, 0
4, 61919, End_track
5, 0, Start_track
5, 0, MIDI_port, 0
5, 0, Title_t, "Sequenced by"
5, 0, Program_c, 3, 25
5, 0, Control_c, 3, 7, 50
5, 0, Control_c, 3, 10, 80
5, 1920, Note_on_c, 3, 63, 127
5, 1979, Note_on_c, 3, 63, 0
5, 1980, Note_on_c, 3, 62, 127
5, 2039, Note_on_c, 3, 62, 0
5, 2040, Note_on_c, 3, 58, 127
5, 2099, Note_on_c, 3, 58, 0
5, 2100, Note_on_c, 3, 63, 127
5, 2159, Note_on_c, 3, 63, 0
5, 2160, Note_on_c, 3, 62, 127
5, 2219, Note_on_c, 3, 62, 0
5, 2220, Note_on_c, 3, 58, 127
5, 2279, Note_on_c, 3, 58, 0
5, 2280, Note_on_c, 3, 63, 127
5, 2339, Note_on_c, 3, 63, 0
5, 2340, Note_on_c, 3, 62, 127
5, 2399, Note_on_c, 3, 62, 0
5, 2400, Note_on_c, 3, 58, 127
5, 2459, Note_on_c, 3, 58, 0
5, 2460, Note_on_c, 3, 63, 127
5, 2519, Note_on_c, 3, 63, 0
5, 2520, Note_on_c, 3, 62, 127
5, 2579, Note_on_c, 3, 62, 0
5, 2580, Note_on_c, 3, 58, 127
5, 2639, Note_on_c, 3, 58, 0
5, 2640, Note_on_c, 3, 63, 126
5, 2699, Note_on_c, 3, 63, 0
5, 2700, Note_on_c, 3, 62, 126
5, 2879, Note_on_c, 3, 62, 0
5, 2880, Note_on_c, 3, 63, 127
5, 2939, Note_on_c, 3, 63, 0
5, 2940, Note_on_c, 3, 62, 127
5, 2999, Note_on_c, 3, 62, 0
5, 3000, Note_on_c, 3, 58, 127
5, 3059, Note_on_c, 3, 58, 0
5, 3060, Note_on_c, 3, 63, 127
5, 3119, Note_on_c, 3, 63, 0
5, 3120, Note_on_c, 3, 62, 127
5, 3179, Note_on_c, 3, 62, 0
5, 3180, Note_on_c, 3, 58, 127
5, 3239, Note_on_c, 3, 58, 0
5, 3240, Note_on_c, 3, 63, 127
5, 3299, Note_on_c, 3, 63, 0
5, 3300, Note_on_c, 3, 62, 127
5, 3359, Note_on_c, 3, 62, 0
5, 3360, Note_on_c, 3, 58, 127
5, 3419, Note_on_c, 3, 58, 0
5, 3420, Note_on_c, 3, 63, 127
5, 3479, Note_on_c, 3, 63, 0
5, 3480, Note_on_c, 3, 62, 127
5, 3539, Note_on_c, 3, 62, 0
5, 3540, Note_on_c, 3, 58, 127
5, 3599, Note_on_c, 3, 58, 0
5, 3600, Note_on_c, 3, 63, 126
5, 3659, Note_on_c, 3, 63, 0
5, 3660, Note_on_c, 3, 62, 126
5, 3719, Note_on_c, 3, 62, 0
5, 3720, Note_on_c, 3, 63, 126
5, 3720, Note_on_c, 3, 58, 126
5, 3779, Note_on_c, 3, 58, 0
5, 3779, Note_on_c, 3, 63, 0
5, 3780, Note_on_c, 3, 62, 126
5, 3839, Note_on_c, 3, 62, 0
5, 34560, Note_on_c, 3, 63, 127
5, 34619, Note_on_c, 3, 63, 0
5, 34620, Note_on_c, 3, 62, 127
5, 34679, Note_on_c, 3, 62, 0
5, 34680, Note_on_c, 3, 58, 127
5, 34739, Note_on_c, 3, 58, 0
5, 34740, Note_on_c, 3, 63, 127
5, 34799, Note_on_c, 3, 63, 0
5, 34800, Note_on_c, 3, 62, 127
5, 34859, Note_on_c, 3, 62, 0
5, 34860, Note_on_c, 3, 58, 127
5, 34919, Note_on_c, 3, 58, 0
5, 34920, Note_on_c, 3, 63, 127
5, 34979, Note_on_c, 3, 63, 0
5, 34980, Note_on_c, 3, 62, 127
5, 35039, Note_on_c, 3, 62, 0
5, 35040, Note_on_c, 3, 58, 127
5, 35099, Note_on_c, 3, 58, 0
5, 35100, Note_on_c, 3, 63, 127
5, 35159, Note_on_c, 3, 63, 0
5, 35160, Note_on_c, 3, 62, 127
5, 35219, Note_on_c, 3, 62, 0
5, 35220, Note_on_c, 3, 58, 127
5, 35279, Note_on_c, 3, 58, 0
5, 35280, Note_on_c, 3, 63, 126
5, 35339, Note_on_c, 3, 63, 0
5, 35340, Note_on_c, 3, 62, 126
5, 35519, Note_on_c, 3, 62, 0
5, 35520, Note_on_c, 3, 63, 127
5, 35579, Note_on_c, 3, 63, 0
5, 35580, Note_on_c, 3, 62, 127
5, 35639, Note_on_c, 3, 62, 0
5, 35640, Note_on_c, 3, 58, 127
5, 35699, Note_on_c, 3, 58, 0
5, 35700, Note_on_c, 3, 63, 127
5, 35759, Note_on_c, 3, 63, 0
5, 35760, Note_on_c, 3, 62, 127
5, 35819, Note_on_c, 3, 62, 0
5, 35820, Note_on_c, 3, 58, 127
5, 35879, Note_on_c, 3, 58, 0
5, 35880, Note_on_c, 3, 63, 127
5, 35939, Note_on_c, 3, 63, 0
5, 35940, Note_on_c, 3, 62, 127
5, 35999, Note_on_c, 3, 62, 0
5, 36000, Note_on_c, 3, 58, 127
5, 36059, Note_on_c, 3, 58, 0
5, 36060, Note_on_c, 3, 63, 127
5, 36119, Note_on_c, 3, 63, 0
5, 36120, Note_on_c, 3, 62, 127
5, 36179, Note_on_c, 3, 62, 0
5, 36180, Note_on_c, 3, 58, 127
5, 36239, Note_on_c, 3, 58, 0
5, 36240, Note_on_c, 3, 63, 126
5, 36299, Note_on_c, 3, 63, 0
5, 36300, Note_on_c, 3, 62, 126
5, 36479, Note_on_c, 3, 62, 0
5, 36480, Note_on_c, 3, 63, 127
5, 36539, Note_on_c, 3, 63, 0
5, 36540, Note_on_c, 3, 62, 127
5, 36599, Note_on_c, 3, 62, 0
5, 36600, Note_on_c, 3, 58, 127
5, 36659, Note_on_c, 3, 58, 0
5, 36660, Note_on_c, 3, 63, 127
5, 36719, Note_on_c, 3, 63, 0
5, 36720, Note_on_c, 3, 62, 127
5, 36779, Note_on_c, 3, 62, 0
5, 36780, Note_on_c, 3, 58, 127
5, 36839, Note_on_c, 3, 58, 0
5, 36840, Note_on_c, 3, 63, 127
5, 36899, Note_on_c, 3, 63, 0
5, 36900, Note_on_c, 3, 62, 127
5, 36959, Note_on_c, 3, 62, 0
5, 36960, Note_on_c, 3, 58, 127
5, 37019, Note_on_c, 3, 58, 0
5, 37020, Note_on_c, 3, 63, 127
5, 37079, Note_on_c, 3, 63, 0
5, 37080, Note_on_c, 3, 62, 127
5, 37139, Note_on_c, 3, 62, 0
5, 37140, Note_on_c, 3, 58, 127
5, 37199, Note_on_c, 3, 58, 0
5, 37200, Note_on_c, 3, 63, 126
5, 37259, Note_on_c, 3, 63, 0
5, 37260, Note_on_c, 3, 62, 126
5, 37439, Note_on_c, 3, 62, 0
5, 37440, Note_on_c, 3, 63, 127
5, 37499, Note_on_c, 3, 63, 0
5, 37500, Note_on_c, 3, 62, 127
5, 37559, Note_on_c, 3, 62, 0
5, 37560, Note_on_c, 3, 58, 127
5, 37619, Note_on_c, 3, 58, 0
5, 37620, Note_on_c, 3, 63, 127
5, 37679, Note_on_c, 3, 63, 0
5, 37680, Note_on_c, 3, 62, 127
5, 37739, Note_on_c, 3, 62, 0
5, 37740, Note_on_c, 3, 58, 127
5, 37799, Note_on_c, 3, 58, 0
5, 37800, Note_on_c, 3, 63, 127
5, 37859, Note_on_c, 3, 63, 0
5, 37860, Note_on_c, 3, 62, 127
5, 37919, Note_on_c, 3, 62, 0
5, 37920, Note_on_c, 3, 58, 127
5, 37979, Note_on_c, 3, 58, 0
5, 37980, Note_on_c, 3, 63, 127
5, 38039, Note_on_c, 3, 63, 0
5, 38040, Note_on_c, 3, 62, 127
5, 38099, Note_on_c, 3, 62, 0
5, 38100, Note_on_c, 3, 58, 127
5, 38159, Note_on_c, 3, 58, 0
5, 38160, Note_on_c, 3, 63, 126
5, 38219, Note_on_c, 3, 63, 0
5, 38220, Note_on_c, 3, 62, 126
5, 38399, Note_on_c, 3, 62, 0
5, 38400, Note_on_c, 3, 63, 127
5, 38459, Note_on_c, 3, 63, 0
5, 38460, Note_on_c, 3, 62, 127
5, 38519, Note_on_c, 3, 62, 0
5, 38520, Note_on_c, 3, 58, 127
5, 38579, Note_on_c, 3, 58, 0
5, 38580, Note_on_c, 3, 63, 127
5, 38639, Note_on_c, 3, 63, 0
5, 38640, Note_on_c, 3, 62, 127
5, 38699, Note_on_c, 3, 62, 0
5, 38700, Note_on_c, 3, 58, 127
5, 38759, Note_on_c, 3, 58, 0
5, 38760, Note_on_c, 3, 63, 127
5, 38819, Note_on_c, 3, 63, 0
5, 38820, Note_on_c, 3, 62, 127
5, 38879, Note_on_c, 3, 62, 0
5, 38880, Note_on_c, 3, 58, 127
5, 38939, Note_on_c, 3, 58, 0
5, 38940, Note_on_c, 3, 63, 127
5, 38999, Note_on_c, 3, 63, 0
5, 39000, Note_on_c, 3, 62, 127
5, 39059, Note_on_c, 3, 62, 0
5, 39060, Note_on_c, 3, 58, 127
5, 39119, Note_on_c, 3, 58, 0
5, 39120, Note_on_c, 3, 63, 126
5, 39179, Note_on_c, 3, 63, 0
5, 39180, Note_on_c, 3, 62, 126
5, 39359, Note_on_c, 3, 62, 0
5, 39360, Note_on_c, 3, 63, 127
5, 39419, Note_on_c, 3, 63, 0
5, 39420, Note_on_c, 3, 62, 127
5, 39479, Note_on_c, 3, 62, 0
5, 39480, Note_on_c, 3, 58, 127
5, 39539, Note_on_c, 3, 58, 0
5, 39540, Note_on_c, 3, 63, 127
5, 39599, Note_on_c, 3, 63, 0
5, 39600, Note_on_c, 3, 62, 127
5, 39659, Note_on_c, 3, 62, 0
5, 39660, Note_on_c, 3, 58, 127
5, 39719, Note_on_c, 3, 58, 0
5, 39720, Note_on_c, 3, 63, 127
5, 39779, Note_on_c, 3, 63, 0
5, 39780, Note_on_c, 3, 62, 127
5, 39839, Note_on_c, 3, 62, 0
5, 39840, Note_on_c, 3, 58, 127
5, 39899, Note_on_c, 3, 58, 0
5, 39900, Note_on_c, 3, 63, 127
5, 39959, Note_on_c, 3, 63, 0
5, 39960, Note_on_c, 3, 62, 127
5, 40019, Note_on_c, 3, 62, 0
5, 40020, Note_on_c, 3, 58, 127
5, 40079, Note_on_c, 3, 58, 0
5, 40080, Note_on_c, 3, 63, 126
5, 40139, Note_on_c, 3, 63, 0
5, 40140, Note_on_c, 3, 62, 126
5, 40319, Note_on_c, 3, 62, 0
5, 40320, Note_on_c, 3, 63, 127
5, 40379, Note_on_c, 3, 63, 0
5, 40380, Note_on_c, 3, 62, 127
5, 40439, Note_on_c, 3, 62, 0
5, 40440, Note_on_c, 3, 58, 127
5, 40499, Note_on_c, 3, 58, 0
5, 40500, Note_on_c, 3, 63, 127
5, 40559, Note_on_c, 3, 63, 0
5, 40560, Note_on_c, 3, 62, 127
5, 40619, Note_on_c, 3, 62, 0
5, 40620, Note_on_c, 3, 58, 127
5, 40679, Note_on_c, 3, 58, 0
5, 40680, Note_on_c, 3, 63, 127
5, 40739, Note_on_c, 3, 63, 0
5, 40740, Note_on_c, 3, 62, 127
5, 40799, Note_on_c, 3, 62, 0
5, 40800, Note_on_c, 3, 58, 127
5, 40859, Note_on_c, 3, 58, 0
5, 40860, Note_on_c, 3, 63, 127
5, 40919, Note_on_c, 3, 63, 0
5, 40920, Note_on_c, 3, 62, 127
5, 40979, Note_on_c, 3, 62, 0
5, 40980, Note_on_c, 3, 58, 127
5, 41039, Note_on_c, 3, 58, 0
5, 41040, Note_on_c, 3, 63, 126
5, 41099, Note_on_c, 3, 63, 0
5, 41100, Note_on_c, 3, 62, 126
5, 41279, Note_on_c, 3, 62, 0
5, 41280, Note_on_c, 3, 63, 127
5, 41339, Note_on_c, 3, 63, 0
5, 41340, Note_on_c, 3, 62, 127
5, 41399, Note_on_c, 3, 62, 0
5, 41400, Note_on_c, 3, 58, 127
5, 41459, Note_on_c, 3, 58, 0
5, 41460, Note_on_c, 3, 63, 127
5, 41519, Note_on_c, 3, 63, 0
5, 41520, Note_on_c, 3, 62, 127
5, 41579, Note_on_c, 3, 62, 0
5, 41580, Note_on_c, 3, 58, 127
5, 41639, Note_on_c, 3, 58, 0
5, 41640, Note_on_c, 3, 63, 127
5, 41699, Note_on_c, 3, 63, 0
5, 41700, Note_on_c, 3, 62, 127
5, 41759, Note_on_c, 3, 62, 0
5, 41760, Note_on_c, 3, 58, 127
5, 41819, Note_on_c, 3, 58, 0
5, 41820, Note_on_c, 3, 63, 127
5, 41879, Note_on_c, 3, 63, 0
5, 41880, Note_on_c, 3, 62, 127
5, 41939, Note_on_c, 3, 62, 0
5, 41940, Note_on_c, 3, 58, 127
5, 41999, Note_on_c, 3, 58, 0
5, 42000, Note_on_c, 3, 63, 126
5, 42059, Note_on_c, 3, 63, 0
5, 42060, Note_on_c, 3, 62, 126
5, 42239, Note_on_c, 3, 62, 0
5, 42240, Note_on_c, 3, 63, 127
5, 42299, Note_on_c, 3, 63, 0
5, 42300, Note_on_c, 3, 62, 127
5, 42359, Note_on_c, 3, 62, 0
5, 42360, Note_on_c, 3, 58, 127
5, 42419, Note_on_c, 3, 58, 0
5, 42420, Note_on_c, 3, 63, 127
5, 42479, Note_on_c, 3, 63, 0
5, 42480, Note_on_c, 3, 62, 127
5, 42539, Note_on_c, 3, 62, 0
5, 42540, Note_on_c, 3, 58, 127
5, 42599, Note_on_c, 3, 58, 0
5, 42600, Note_on_c, 3, 63, 127
5, 42659, Note_on_c, 3, 63, 0
5, 42660, Note_on_c, 3, 62, 127
5, 42719, Note_on_c, 3, 62, 0
5, 42720, Note_on_c, 3, 58, 127
5, 42779, Note_on_c, 3, 58, 0
5, 42780, Note_on_c, 3, 63, 127
5, 42839, Note_on_c, 3, 63, 0
5, 42840, Note_on_c, 3, 62, 127
5, 42899, Note_on_c, 3, 62, 0
5, 42900, Note_on_c, 3, 58, 127
5, 42959, Note_on_c, 3, 58, 0
5, 42960, Note_on_c, 3, 63, 126
5, 43019, Note_on_c, 3, 63, 0
5, 43020, Note_on_c, 3, 62, 126
5, 43199, Note_on_c, 3, 62, 0
5, 43200, Note_on_c, 3, 63, 127
5, 43259, Note_on_c, 3, 63, 0
5, 43260, Note_on_c, 3, 62, 127
5, 43319, Note_on_c, 3, 62, 0
5, 43320, Note_on_c, 3, 58, 127
5, 43379, Note_on_c, 3, 58, 0
5, 43380, Note_on_c, 3, 63, 127
5, 43439, Note_on_c, 3, 63, 0
5, 43440, Note_on_c, 3, 62, 127
5, 43499, Note_on_c, 3, 62, 0
5, 43500, Note_on_c, 3, 58, 127
5, 43559, Note_on_c, 3, 58, 0
5, 43560, Note_on_c, 3, 63, 127
5, 43619, Note_on_c, 3, 63, 0
5, 43620, Note_on_c, 3, 62, 127
5, 43679, Note_on_c, 3, 62, 0
5, 43680, Note_on_c, 3, 58, 127
5, 43739, Note_on_c, 3, 58, 0
5, 43740, Note_on_c, 3, 63, 127
5, 43799, Note_on_c, 3, 63, 0
5, 43800, Note_on_c, 3, 62, 127
5, 43859, Note_on_c, 3, 62, 0
5, 43860, Note_on_c, 3, 58, 127
5, 43919, Note_on_c, 3, 58, 0
5, 43920, Note_on_c, 3, 63, 126
5, 43979, Note_on_c, 3, 63, 0
5, 43980, Note_on_c, 3, 62, 126
5, 44159, Note_on_c, 3, 62, 0
5, 44160, Note_on_c, 3, 63, 127
5, 44219, Note_on_c, 3, 63, 0
5, 44220, Note_on_c, 3, 62, 127
5, 44279, Note_on_c, 3, 62, 0
5, 44280, Note_on_c, 3, 58, 127
5, 44339, Note_on_c, 3, 58, 0
5, 44340, Note_on_c, 3, 63, 127
5, 44399, Note_on_c, 3, 63, 0
5, 44400, Note_on_c, 3, 62, 127
5, 44459, Note_on_c, 3, 62, 0
5, 44460, Note_on_c, 3, 58, 127
5, 44519, Note_on_c, 3, 58, 0
5, 44520, Note_on_c, 3, 63, 127
5, 44579, Note_on_c, 3, 63, 0
5, 44580, Note_on_c, 3, 62, 127
5, 44639, Note_on_c, 3, 62, 0
5, 44640, Note_on_c, 3, 58, 127
5, 44699, Note_on_c, 3, 58, 0
5, 44700, Note_on_c, 3, 63, 127
5, 44759, Note_on_c, 3, 63, 0
5, 44760, Note_on_c, 3, 62, 127
5, 44819, Note_on_c, 3, 62, 0
5, 44820, Note_on_c, 3, 58, 127
5, 44879, Note_on_c, 3, 58, 0
5, 44880, Note_on_c, 3, 63, 126
5, 44939, Note_on_c, 3, 63, 0
5, 44940, Note_on_c, 3, 62, 126
5, 45119, Note_on_c, 3, 62, 0
5, 45120, Note_on_c, 3, 63, 127
5, 45179, Note_on_c, 3, 63, 0
5, 45180, Note_on_c, 3, 62, 127
5, 45239, Note_on_c, 3, 62, 0
5, 45240, Note_on_c, 3, 58, 127
5, 45299, Note_on_c, 3, 58, 0
5, 45300, Note_on_c, 3, 63, 127
5, 45359, Note_on_c, 3, 63, 0
5, 45360, Note_on_c, 3, 62, 127
5, 45419, Note_on_c, 3, 62, 0
5, 45420, Note_on_c, 3, 58, 127
5, 45479, Note_on_c, 3, 58, 0
5, 45480, Note_on_c, 3, 63, 127
5, 45539, Note_on_c, 3, 63, 0
5, 45540, Note_on_c, 3, 62, 127
5, 45599, Note_on_c, 3, 62, 0
5, 45600, Note_on_c, 3, 58, 127
5, 45659, Note_on_c, 3, 58, 0
5, 45660, Note_on_c, 3, 63, 127
5, 45719, Note_on_c, 3, 63, 0
5, 45720, Note_on_c, 3, 62, 127
5, 45779, Note_on_c, 3, 62, 0
5, 45780, Note_on_c, 3, 58, 127
5, 45839, Note_on_c, 3, 58, 0
5, 45840, Note_on_c, 3, 63, 126
5, 45899, Note_on_c, 3, 63, 0
5, 45900, Note_on_c, 3, 62, 126
5, 46079, Note_on_c, 3, 62, 0
5, 46080, Note_on_c, 3, 63, 127
5, 46139, Note_on_c, 3, 63, 0
5, 46140, Note_on_c, 3, 62, 127
5, 46199, Note_on_c, 3, 62, 0
5, 46200, Note_on_c, 3, 58, 127
5, 46259, Note_on_c, 3, 58, 0
5, 46260, Note_on_c, 3, 63, 127
5, 46319, Note_on_c, 3, 63, 0
5, 46320, Note_on_c, 3, 62, 127
5, 46379, Note_on_c, 3, 62, 0
5, 46380, Note_on_c, 3, 58, 127
5, 46439, Note_on_c, 3, 58, 0
5, 46440, Note_on_c, 3, 63, 127
5, 46499, Note_on_c, 3, 63, 0
5, 46500, Note_on_c, 3, 62, 127
5, 46559, Note_on_c, 3, 62, 0
5, 46560, Note_on_c, 3, 58, 127
5, 46619, Note_on_c, 3, 58, 0
5, 46620, Note_on_c, 3, 63, 127
5, 46679, Note_on_c, 3, 63, 0
5, 46680, Note_on_c, 3, 62, 127
5, 46739, Note_on_c, 3, 62, 0
5, 46740, Note_on_c, 3, 58, 127
5, 46799, Note_on_c, 3, 58, 0
5, 46800, Note_on_c, 3, 63, 126
5, 46859, Note_on_c, 3, 63, 0
5, 46860, Note_on_c, 3, 62, 126
5, 47039, Note_on_c, 3, 62, 0
5, 47040, Note_on_c, 3, 63, 127
5, 47099, Note_on_c, 3, 63, 0
5, 47100, Note_on_c, 3, 62, 127
5, 47159, Note_on_c, 3, 62, 0
5, 47160, Note_on_c, 3, 58, 127
5, 47219, Note_on_c, 3, 58, 0
5, 47220, Note_on_c, 3, 63, 127
5, 47279, Note_on_c, 3, 63, 0
5, 47280, Note_on_c, 3, 62, 127
5, 47339, Note_on_c, 3, 62, 0
5, 47340, Note_on_c, 3, 58, 127
5, 47399, Note_on_c, 3, 58, 0
5, 47400, Note_on_c, 3, 63, 127
5, 47459, Note_on_c, 3, 63, 0
5, 47460, Note_on_c, 3, 62, 127
5, 47519, Note_on_c, 3, 62, 0
5, 47520, Note_on_c, 3, 58, 127
5, 47579, Note_on_c, 3, 58, 0
5, 47580, Note_on_c, 3, 63, 127
5, 47639, Note_on_c, 3, 63, 0
5, 47640, Note_on_c, 3, 62, 127
5, 47699, Note_on_c, 3, 62, 0
5, 47700, Note_on_c, 3, 58, 127
5, 47759, Note_on_c, 3, 58, 0
5, 47760, Note_on_c, 3, 63, 126
5, 47819, Note_on_c, 3, 63, 0
5, 47820, Note_on_c, 3, 62, 126
5, 47999, Note_on_c, 3, 62, 0
5, 48000, Note_on_c, 3, 63, 127
5, 48059, Note_on_c, 3, 63, 0
5, 48060, Note_on_c, 3, 62, 127
5, 48119, Note_on_c, 3, 62, 0
5, 48120, Note_on_c, 3, 58, 127
5, 48179, Note_on_c, 3, 58, 0
5, 48180, Note_on_c, 3, 63, 127
5, 48239, Note_on_c, 3, 63, 0
5, 48240, Note_on_c, 3, 62, 127
5, 48299, Note_on_c, 3, 62, 0
5, 48300, Note_on_c, 3, 58, 127
5, 48359, Note_on_c, 3, 58, 0
5, 48360, Note_on_c, 3, 63, 127
5, 48419, Note_on_c, 3, 63, 0
5, 48420, Note_on_c, 3, 62, 127
5, 48479, Note_on_c, 3, 62, 0
5, 48480, Note_on_c, 3, 58, 127
5, 48539, Note_on_c, 3, 58, 0
5, 48540, Note_on_c, 3, 63, 127
5, 48599, Note_on_c, 3, 63, 0
5, 48600, Note_on_c, 3, 62, 127
5, 48659, Note_on_c, 3, 62, 0
5, 48660, Note_on_c, 3, 58, 127
5, 48719, Note_on_c, 3, 58, 0
5, 48720, Note_on_c, 3, 63, 126
5, 48779, Note_on_c, 3, 63, 0
5, 48780, Note_on_c, 3, 62, 126
5, 48959, Note_on_c, 3, 62, 0
5, 48960, Note_on_c, 3, 63, 127
5, 49019, Note_on_c, 3, 63, 0
5, 49020, Note_on_c, 3, 62, 127
5, 49079, Note_on_c, 3, 62, 0
5, 49080, Note_on_c, 3, 58, 127
5, 49139, Note_on_c, 3, 58, 0
5, 49140, Note_on_c, 3, 63, 127
5, 49199, Note_on_c, 3, 63, 0
5, 49200, Note_on_c, 3, 62, 127
5, 49259, Note_on_c, 3, 62, 0
5, 49260, Note_on_c, 3, 58, 127
5, 49319, Note_on_c, 3, 58, 0
5, 49320, Note_on_c, 3, 63, 127
5, 49379, Note_on_c, 3, 63, 0
5, 49380, Note_on_c, 3, 62, 127
5, 49439, Note_on_c, 3, 62, 0
5, 49440, Note_on_c, 3, 58, 127
5, 49499, Note_on_c, 3, 58, 0
5, 49500, Note_on_c, 3, 63, 127
5, 49559, Note_on_c, 3, 63, 0
5, 49560, Note_on_c, 3, 62, 127
5, 49619, Note_on_c, 3, 62, 0
5, 49620, Note_on_c, 3, 58, 127
5, 49679, Note_on_c, 3, 58, 0
5, 49680, Note_on_c, 3, 63, 126
5, 49739, Note_on_c, 3, 63, 0
5, 49740, Note_on_c, 3, 62, 126
5, 49919, Note_on_c, 3, 62, 0
5, 49920, Note_on_c, 3, 63, 127
5, 49979, Note_on_c, 3, 63, 0
5, 49980, Note_on_c, 3, 62, 127
5, 50039, Note_on_c, 3, 62, 0
5, 50040, Note_on_c, 3, 58, 127
5, 50099, Note_on_c, 3, 58, 0
5, 50100, Note_on_c, 3, 63, 127
5, 50159, Note_on_c, 3, 63, 0
5, 50160, Note_on_c, 3, 62, 127
5, 50219, Note_on_c, 3, 62, 0
5, 50220, Note_on_c, 3, 58, 127
5, 50279, Note_on_c, 3, 58, 0
5, 50280, Note_on_c, 3, 63, 127
5, 50339, Note_on_c, 3, 63, 0
5, 50340, Note_on_c, 3, 62, 127
5, 50399, Note_on_c, 3, 62, 0
5, 50400, Note_on_c, 3, 58, 127
5, 50459, Note_on_c, 3, 58, 0
5, 50460, Note_on_c, 3, 63, 127
5, 50519, Note_on_c, 3, 63, 0
5, 50520, Note_on_c, 3, 62, 127
5, 50579, Note_on_c, 3, 62, 0
5, 50580, Note_on_c, 3, 58, 127
5, 50639, Note_on_c, 3, 58, 0
5, 50640, Note_on_c, 3, 63, 126
5, 50699, Note_on_c, 3, 63, 0
5, 50700, Note_on_c, 3, 62, 126
5, 50879, Note_on_c, 3, 62, 0
5, 50880, Note_on_c, 3, 63, 127
5, 50939, Note_on_c, 3, 63, 0
5, 50940, Note_on_c, 3, 62, 127
5, 50999, Note_on_c, 3, 62, 0
5, 51000, Note_on_c, 3, 58, 127
5, 51059, Note_on_c, 3, 58, 0
5, 51060, Note_on_c, 3, 63, 127
5, 51119, Note_on_c, 3, 63, 0
5, 51120, Note_on_c, 3, 62, 127
5, 51179, Note_on_c, 3, 62, 0
5, 51180, Note_on_c, 3, 58, 127
5, 51239, Note_on_c, 3, 58, 0
5, 51240, Note_on_c, 3, 63, 127
5, 51299, Note_on_c, 3, 63, 0
5, 51300, Note_on_c, 3, 62, 127
5, 51359, Note_on_c, 3, 62, 0
5, 51360, Note_on_c, 3, 58, 127
5, 51419, Note_on_c, 3, 58, 0
5, 51420, Note_on_c, 3, 63, 127
5, 51479, Note_on_c, 3, 63, 0
5, 51480, Note_on_c, 3, 62, 127
5, 51539, Note_on_c, 3, 62, 0
5, 51540, Note_on_c, 3, 58, 127
5, 51599, Note_on_c, 3, 58, 0
5, 51600, Note_on_c, 3, 63, 126
5, 51659, Note_on_c, 3, 63, 0
5, 51660, Note_on_c, 3, 62, 126
5, 51839, Note_on_c, 3, 62, 0
5, 51840, Note_on_c, 3, 63, 127
5, 51899, Note_on_c, 3, 63, 0
5, 51900, Note_on_c, 3, 62, 127
5, 51959, Note_on_c, 3, 62, 0
5, 51960, Note_on_c, 3, 58, 127
5, 52019, Note_on_c, 3, 58, 0
5, 52020, Note_on_c, 3, 63, 127
5, 52079, Note_on_c, 3, 63, 0
5, 52080, Note_on_c, 3, 62, 127
5, 52139, Note_on_c, 3, 62, 0
5, 52140, Note_on_c, 3, 58, 127
5, 52199, Note_on_c, 3, 58, 0
5, 52200, Note_on_c, 3, 63, 127
5, 52259, Note_on_c, 3, 63, 0
5, 52260, Note_on_c, 3, 62, 127
5, 52319, Note_on_c, 3, 62, 0
5, 52320, Note_on_c, 3, 58, 127
5, 52379, Note_on_c, 3, 58, 0
5, 52380, Note_on_c, 3, 63, 127
5, 52439, Note_on_c, 3, 63, 0
5, 52440, Note_on_c, 3, 62, 127
5, 52499, Note_on_c, 3, 62, 0
5, 52500, Note_on_c, 3, 58, 127
5, 52559, Note_on_c, 3, 58, 0
5, 52560, Note_on_c, 3, 63, 126
5, 52619, Note_on_c, 3, 63, 0
5, 52620, Note_on_c, 3, 62, 126
5, 52799, Note_on_c, 3, 62, 0
5, 52800, Note_on_c, 3, 63, 127
5, 52859, Note_on_c, 3, 63, 0
5, 52860, Note_on_c, 3, 62, 127
5, 52919, Note_on_c, 3, 62, 0
5, 52920, Note_on_c, 3, 58, 127
5, 52979, Note_on_c, 3, 58, 0
5, 52980, Note_on_c, 3, 63, 127
5, 53039, Note_on_c, 3, 63, 0
5, 53040, Note_on_c, 3, 62, 127
5, 53099, Note_on_c, 3, 62, 0
5, 53100, Note_on_c, 3, 58, 127
5, 53159, Note_on_c, 3, 58, 0
5, 53160, Note_on_c, 3, 63, 127
5, 53219, Note_on_c, 3, 63, 0
5, 53220, Note_on_c, 3, 62, 127
5, 53279, Note_on_c, 3, 62, 0
5, 53280, Note_on_c, 3, 58, 127
5, 53339, Note_on_c, 3, 58, 0
5, 53340, Note_on_c, 3, 63, 127
5, 53399, Note_on_c, 3, 63, 0
5, 53400, Note_on_c, 3, 62, 127
5, 53459, Note_on_c, 3, 62, 0
5, 53460, Note_on_c, 3, 58, 127
5, 53519, Note_on_c, 3, 58, 0
5, 53520, Note_on_c, 3, 63, 126
5, 53579, Note_on_c, 3, 63, 0
5, 53580, Note_on_c, 3, 62, 126
5, 53759, Note_on_c, 3, 62, 0
5, 53760, Note_on_c, 3, 63, 127
5, 53819, Note_on_c, 3, 63, 0
5, 53820, Note_on_c, 3, 62, 127
5, 53879, Note_on_c, 3, 62, 0
5, 53880, Note_on_c, 3, 58, 127
5, 53939, Note_on_c, 3, 58, 0
5, 53940, Note_on_c, 3, 63, 127
5, 53999, Note_on_c, 3, 63, 0
5, 54000, Note_on_c, 3, 62, 127
5, 54059, Note_on_c, 3, 62, 0
5, 54060, Note_on_c, 3, 58, 127
5, 54119, Note_on_c, 3, 58, 0
5, 54120, Note_on_c, 3, 63, 127
5, 54179, Note_on_c, 3, 63, 0
5, 54180, Note_on_c, 3, 62, 127
5, 54239, Note_on_c, 3, 62, 0
5, 54240, Note_on_c, 3, 58, 127
5, 54299, Note_on_c, 3, 58, 0
5, 54300, Note_on_c, 3, 63, 127
5, 54359, Note_on_c, 3, 63, 0
5, 54360, Note_on_c, 3, 62, 127
5, 54419, Note_on_c, 3, 62, 0
5, 54420, Note_on_c, 3, 58, 127
5, 54479, Note_on_c, 3, 58, 0
5, 54480, Note_on_c, 3, 63, 126
5, 54539, Note_on_c, 3, 63, 0
5, 54540, Note_on_c, 3, 62, 126
5, 54719, Note_on_c, 3, 62, 0
5, 54720, Note_on_c, 3, 63, 127
5, 54779, Note_on_c, 3, 63, 0
5, 54780, Note_on_c, 3, 62, 127
5, 54839, Note_on_c, 3, 62, 0
5, 54840, Note_on_c, 3, 58, 127
5, 54899, Note_on_c, 3, 58, 0
5, 54900, Note_on_c, 3, 63, 127
5, 54959, Note_on_c, 3, 63, 0
5, 54960, Note_on_c, 3, 62, 127
5, 55019, Note_on_c, 3, 62, 0
5, 55020, Note_on_c, 3, 58, 127
5, 55079, Note_on_c, 3, 58, 0
5, 55080, Note_on_c, 3, 63, 127
5, 55139, Note_on_c, 3, 63, 0
5, 55140, Note_on_c, 3, 62, 127
5, 55199, Note_on_c, 3, 62, 0
5, 55200, Note_on_c, 3, 58, 127
5, 55259, Note_on_c, 3, 58, 0
5, 55260, Note_on_c, 3, 63, 127
5, 55319, Note_on_c, 3, 63, 0
5, 55320, Note_on_c, 3, 62, 127
5, 55379, Note_on_c, 3, 62, 0
5, 55380, Note_on_c, 3, 58, 127
5, 55439, Note_on_c, 3, 58, 0
5, 55440, Note_on_c, 3, 63, 126
5, 55499, Note_on_c, 3, 63, 0
5, 55500, Note_on_c, 3, 62, 126
5, 55679, Note_on_c, 3, 62, 0
5, 55680, Note_on_c, 3, 63, 127
5, 55739, Note_on_c, 3, 63, 0
5, 55740, Note_on_c, 3, 62, 127
5, 55799, Note_on_c, 3, 62, 0
5, 55800, Note_on_c, 3, 58, 127
5, 55859, Note_on_c, 3, 58, 0
5, 55860, Note_on_c, 3, 63, 127
5, 55919, Note_on_c, 3, 63, 0
5, 55920, Note_on_c, 3, 62, 127
5, 55979, Note_on_c, 3, 62, 0
5, 55980, Note_on_c, 3, 58, 127
5, 56039, Note_on_c, 3, 58, 0
5, 56040, Note_on_c, 3, 63, 127
5, 56099, Note_on_c, 3, 63, 0
5, 56100, Note_on_c, 3, 62, 127
5, 56159, Note_on_c, 3, 62, 0
5, 56160, Note_on_c, 3, 58, 127
5, 56219, Note_on_c, 3, 58, 0
5, 56220, Note_on_c, 3, 63, 127
5, 56279, Note_on_c, 3, 63, 0
5, 56280, Note_on_c, 3, 62, 127
5, 56339, Note_on_c, 3, 62, 0
5, 56340, Note_on_c, 3, 58, 127
5, 56399, Note_on_c, 3, 58, 0
5, 56400, Note_on_c, 3, 63, 126
5, 56459, Note_on_c, 3, 63, 0
5, 56460, Note_on_c, 3, 62, 126
5, 56639, Note_on_c, 3, 62, 0
5, 56640, Note_on_c, 3, 63, 127
5, 56699, Note_on_c, 3, 63, 0
5, 56700, Note_on_c, 3, 62, 127
5, 56759, Note_on_c, 3, 62, 0
5, 56760, Note_on_c, 3, 58, 127
5, 56819, Note_on_c, 3, 58, 0
5, 56820, Note_on_c, 3, 63, 127
5, 56879, Note_on_c, 3, 63, 0
5, 56880, Note_on_c, 3, 62, 127
5, 56939, Note_on_c, 3, 62, 0
5, 56940, Note_on_c, 3, 58, 127
5, 56999, Note_on_c, 3, 58, 0
5, 57000, Note_on_c, 3, 63, 127
5, 57059, Note_on_c, 3, 63, 0
5, 57060, Note_on_c, 3, 62, 127
5, 57119, Note_on_c, 3, 62, 0
5, 57120, Note_on_c, 3, 58, 127
5, 57179, Note_on_c, 3, 58, 0
5, 57180, Note_on_c, 3, 63, 127
5, 57239, Note_on_c, 3, 63, 0
5, 57240, Note_on_c, 3, 62, 127
5, 57299, Note_on_c, 3, 62, 0
5, 57300, Note_on_c, 3, 58, 127
5, 57359, Note_on_c, 3, 58, 0
5, 57360, Note_on_c, 3, 63, 126
5, 57419, Note_on_c, 3, 63, 0
5, 57420, Note_on_c, 3, 62, 126
5, 57599, Note_on_c, 3, 62, 0
5, 59040, Control_c, 3, 7, 80
5, 59075, Control_c, 3, 7, 79
5, 59111, Control_c, 3, 7, 78
5, 59147, Control_c, 3, 7, 77
5, 59183, Control_c, 3, 7, 76
5, 59219, Control_c, 3, 7, 75
5, 59255, Control_c, 3, 7, 74
5, 59291, Control_c, 3, 7, 73
5, 59327, Control_c, 3, 7, 72
5, 59363, Control_c, 3, 7, 71
5, 59399, Control_c, 3, 7, 70
5, 59435, Control_c, 3, 7, 69
5, 59471, Control_c, 3, 7, 68
5, 59507, Control_c, 3, 7, 67
5, 59543, Control_c, 3, 7, 66
5, 59579, Control_c, 3, 7, 65
5, 59615, Control_c, 3, 7, 64
5, 59651, Control_c, 3, 7, 63
5, 59687, Control_c, 3, 7, 62
5, 59723, Control_c, 3, 7, 61
5, 59759, Control_c, 3, 7, 60
5, 59795, Control_c, 3, 7, 59
5, 59831, Control_c, 3, 7, 58
5, 59867, Control_c, 3, 7, 57
5, 59903, Control_c, 3, 7, 56
5, 59939, Control_c, 3, 7, 55
5, 59975, Control_c, 3, 7, 54
5, 60011, Control_c, 3, 7, 53
5, 60047, Control_c, 3, 7, 52
5, 60083, Control_c, 3, 7, 51
5, 60119, Control_c, 3, 7, 50
5, 60155, Control_c, 3, 7, 49
5, 60191, Control_c, 3, 7, 48
5, 60227, Control_c, 3, 7, 47
5, 60263, Control_c, 3, 7, 46
5, 60299, Control_c, 3, 7, 45
5, 60335, Control_c, 3, 7, 44
5, 60371, Control_c, 3, 7, 43
5, 60407, Control_c, 3, 7, 42
5, 60443, Control_c, 3, 7, 41
5, 60479, Control_c, 3, 7, 40
5, 60515, Control_c, 3, 7, 39
5, 60551, Control_c, 3, 7, 38
5, 60587, Control_c, 3, 7, 37
5, 60623, Control_c, 3, 7, 36
5, 60659, Control_c, 3, 7, 35
5, 60695, Control_c, 3, 7, 34
5, 60731, Control_c, 3, 7, 33
5, 60767, Control_c, 3, 7, 32
5, 60803, Control_c, 3, 7, 31
5, 60839, Control_c, 3, 7, 30
5, 60875, Control_c, 3, 7, 29
5, 60911, Control_c, 3, 7, 28
5, 60947, Control_c, 3, 7, 27
5, 60983, Control_c, 3, 7, 26
5, 61019, Control_c, 3, 7, 25
5, 61055, Control_c, 3, 7, 24
5, 61091, Control_c, 3, 7, 23
5, 61127, Control_c, 3, 7, 22
5, 61163, Control_c, 3, 7, 21
5, 61199, Control_c, 3, 7, 20
5, 61235, Control_c, 3, 7, 19
5, 61271, Control_c, 3, 7, 18
5, 61307, Control_c, 3, 7, 17
5, 61343, Control_c, 3, 7, 16
5, 61379, Control_c, 3, 7, 15
5, 61415, Control_c, 3, 7, 14
5, 61451, Control_c, 3, 7, 13
5, 61487, Control_c, 3, 7, 12
5, 61523, Control_c, 3, 7, 11
5, 61559, Control_c, 3, 7, 10
5, 61595, Control_c, 3, 7, 9
5, 61631, Control_c, 3, 7, 8
5, 61667, Control_c, 3, 7, 7
5, 61703, Control_c, 3, 7, 6
5, 61739, Control_c, 3, 7, 5
5, 61775, Control_c, 3, 7, 4
5, 61811, Control_c, 3, 7, 3
5, 61847, Control_c, 3, 7, 2
5, 61883, Control_c, 3, 7, 1
5, 61919, Control_c, 3, 7, 0
5, 61919, End_track
6, 0, Start_track
6, 0, MIDI_port, 0
6, 0, Title_t, "alan@freshmidis.com"
6, 0, Program_c, 4, 48
6, 0, Control_c, 4, 7, 90
6, 0, Control_c, 4, 10, 63
6, 11520, Note_on_c, 4, 60, 127
6, 11579, Note_on_c, 4, 60, 0
6, 11700, Note_on_c, 4, 63, 127
6, 11759, Note_on_c, 4, 63, 0
6, 11760, Note_on_c, 4, 60, 127
6, 11789, Note_on_c, 4, 60, 0
6, 11820, Note_on_c, 4, 63, 127
6, 11849, Note_on_c, 4, 63, 0
6, 11880, Note_on_c, 4, 58, 127
6, 11909, Note_on_c, 4, 58, 0
6, 11940, Note_on_c, 4, 63, 127
6, 11940, Note_on_c, 4, 70, 73
6, 11969, Note_on_c, 4, 70, 0
6, 11969, Note_on_c, 4, 63, 0
6, 12000, Note_on_c, 4, 60, 127
6, 12029, Note_on_c, 4, 60, 0
6, 12060, Note_on_c, 4, 63, 127
6, 12119, Note_on_c, 4, 63, 0
6, 12120, Note_on_c, 4, 55, 100
6, 12179, Note_on_c, 4, 55, 0
6, 12180, Note_on_c, 4, 70, 127
6, 12239, Note_on_c, 4, 70, 0
6, 12240, Note_on_c, 4, 55, 100
6, 12299, Note_on_c, 4, 55, 0
6, 12300, Note_on_c, 4, 67, 127
6, 12359, Note_on_c, 4, 67, 0
6, 12420, Note_on_c, 4, 72, 127
6, 12479, Note_on_c, 4, 72, 0
6, 12480, Note_on_c, 4, 60, 127
6, 12539, Note_on_c, 4, 60, 0
6, 12660, Note_on_c, 4, 63, 127
6, 12719, Note_on_c, 4, 63, 0
6, 12720, Note_on_c, 4, 60, 127
6, 12749, Note_on_c, 4, 60, 0
6, 12780, Note_on_c, 4, 63, 127
6, 12809, Note_on_c, 4, 63, 0
6, 12840, Note_on_c, 4, 58, 127
6, 12869, Note_on_c, 4, 58, 0
6, 12900, Note_on_c, 4, 63, 127
6, 12900, Note_on_c, 4, 70, 73
6, 12929, Note_on_c, 4, 70, 0
6, 12929, Note_on_c, 4, 63, 0
6, 12960, Note_on_c, 4, 60, 127
6, 12989, Note_on_c, 4, 60, 0
6, 13020, Note_on_c, 4, 63, 127
6, 13079, Note_on_c, 4, 63, 0
6, 13080, Note_on_c, 4, 55, 100
6, 13139, Note_on_c, 4, 55, 0
6, 13140, Note_on_c, 4, 70, 127
6, 13199, Note_on_c, 4, 70, 0
6, 13200, Note_on_c, 4, 55, 100
6, 13259, Note_on_c, 4, 55, 0
6, 13260, Note_on_c, 4, 67, 127
6, 13319, Note_on_c, 4, 67, 0
6, 13380, Note_on_c, 4, 72, 127
6, 13439, Note_on_c, 4, 72, 0
6, 13440, Note_on_c, 4, 60, 127
6, 13499, Note_on_c, 4, 60, 0
6, 13620, Note_on_c, 4, 63, 127
6, 13679, Note_on_c, 4, 63, 0
6, 13680, Note_on_c, 4, 60, 127
6, 13709, Note_on_c, 4, 60, 0
6, 13740, Note_on_c, 4, 63, 127
6, 13769, Note_on_c, 4, 63, 0
6, 13800, Note_on_c, 4, 58, 127
6, 13829, Note_on_c, 4, 58, 0
6, 13860, Note_on_c, 4, 63, 127
6, 13860, Note_on_c, 4, 70, 73
6, 13889, Note_on_c, 4, 70, 0
6, 13889, Note_on_c, 4, 63, 0
6, 13920, Note_on_c, 4, 60, 127
6, 13949, Note_on_c, 4, 60, 0
6, 13980, Note_on_c, 4, 63, 127
6, 14039, Note_on_c, 4, 63, 0
6, 14040, Note_on_c, 4, 55, 100
6, 14099, Note_on_c, 4, 55, 0
6, 14100, Note_on_c, 4, 70, 127
6, 14159, Note_on_c, 4, 70, 0
6, 14160, Note_on_c, 4, 55, 100
6, 14219, Note_on_c, 4, 55, 0
6, 14220, Note_on_c, 4, 67, 127
6, 14279, Note_on_c, 4, 67, 0
6, 14340, Note_on_c, 4, 72, 127
6, 14399, Note_on_c, 4, 72, 0
6, 14400, Note_on_c, 4, 60, 127
6, 14459, Note_on_c, 4, 60, 0
6, 14580, Note_on_c, 4, 63, 127
6, 14639, Note_on_c, 4, 63, 0
6, 14640, Note_on_c, 4, 60, 127
6, 14669, Note_on_c, 4, 60, 0
6, 14700, Note_on_c, 4, 63, 127
6, 14729, Note_on_c, 4, 63, 0
6, 14760, Note_on_c, 4, 58, 127
6, 14789, Note_on_c, 4, 58, 0
6, 14820, Note_on_c, 4, 63, 127
6, 14820, Note_on_c, 4, 70, 73
6, 14849, Note_on_c, 4, 70, 0
6, 14849, Note_on_c, 4, 63, 0
6, 14880, Note_on_c, 4, 60, 127
6, 14909, Note_on_c, 4, 60, 0
6, 14940, Note_on_c, 4, 63, 127
6, 14999, Note_on_c, 4, 63, 0
6, 15000, Note_on_c, 4, 55, 100
6, 15059, Note_on_c, 4, 55, 0
6, 15060, Note_on_c, 4, 70, 127
6, 15119, Note_on_c, 4, 70, 0
6, 15120, Note_on_c, 4, 55, 100
6, 15179, Note_on_c, 4, 55, 0
6, 15180, Note_on_c, 4, 67, 127
6, 15239, Note_on_c, 4, 67, 0
6, 15300, Note_on_c, 4, 72, 127
6, 15359, Note_on_c, 4, 72, 0
6, 15360, Note_on_c, 4, 60, 127
6, 15419, Note_on_c, 4, 60, 0
6, 15540, Note_on_c, 4, 63, 127
6, 15599, Note_on_c, 4, 63, 0
6, 15600, Note_on_c, 4, 60, 127
6, 15629, Note_on_c, 4, 60, 0
6, 15660, Note_on_c, 4, 63, 127
6, 15689, Note_on_c, 4, 63, 0
6, 15720, Note_on_c, 4, 58, 127
6, 15749, Note_on_c, 4, 58, 0
6, 15780, Note_on_c, 4, 63, 127
6, 15780, Note_on_c, 4, 70, 73
6, 15809, Note_on_c, 4, 70, 0
6, 15809, Note_on_c, 4, 63, 0
6, 15840, Note_on_c, 4, 60, 127
6, 15869, Note_on_c, 4, 60, 0
6, 15900, Note_on_c, 4, 63, 127
6, 15959, Note_on_c, 4, 63, 0
6, 15960, Note_on_c, 4, 55, 100
6, 16019, Note_on_c, 4, 55, 0
6, 16020, Note_on_c, 4, 70, 127
6, 16079, Note_on_c, 4, 70, 0
6, 16080, Note_on_c, 4, 55, 100
6, 16139, Note_on_c, 4, 55, 0
6, 16140, Note_on_c, 4, 67, 127
6, 16199, Note_on_c, 4, 67, 0
6, 16260, Note_on_c, 4, 72, 127
6, 16319, Note_on_c, 4, 72, 0
6, 16320, Note_on_c, 4, 60, 127
6, 16379, Note_on_c, 4, 60, 0
6, 16500, Note_on_c, 4, 63, 127
6, 16559, Note_on_c, 4, 63, 0
6, 16560, Note_on_c, 4, 60, 127
6, 16589, Note_on_c, 4, 60, 0
6, 16620, Note_on_c, 4, 63, 127
6, 16649, Note_on_c, 4, 63, 0
6, 16680, Note_on_c, 4, 58, 127
6, 16709, Note_on_c, 4, 58, 0
6, 16740, Note_on_c, 4, 63, 127
6, 16740, Note_on_c, 4, 70, 73
6, 16769, Note_on_c, 4, 70, 0
6, 16769, Note_on_c, 4, 63, 0
6, 16800, Note_on_c, 4, 60, 127
6, 16829, Note_on_c, 4, 60, 0
6, 16860, Note_on_c, 4, 63, 127
6, 16919, Note_on_c, 4, 63, 0
6, 16920, Note_on_c, 4, 55, 100
6, 16979, Note_on_c, 4, 55, 0
6, 16980, Note_on_c, 4, 70, 127
6, 17039, Note_on_c, 4, 70, 0
6, 17040, Note_on_c, 4, 55, 100
6, 17099, Note_on_c, 4, 55, 0
6, 17100, Note_on_c, 4, 67, 127
6, 17159, Note_on_c, 4, 67, 0
6, 17220, Note_on_c, 4, 72, 127
6, 17279, Note_on_c, 4, 72, 0
6, 17280, Note_on_c, 4, 60, 127
6, 17339, Note_on_c, 4, 60, 0
6, 17460, Note_on_c, 4, 63, 127
6, 17519, Note_on_c, 4, 63, 0
6, 17520, Note_on_c, 4, 60, 127
6, 17549, Note_on_c, 4, 60, 0
6, 17580, Note_on_c, 4, 63, 127
6, 17609, Note_on_c, 4, 63, 0
6, 17640, Note_on_c, 4, 58, 127
6, 17669, Note_on_c, 4, 58, 0
6, 17700, Note_on_c, 4, 63, 127
6, 17700, Note_on_c, 4, 70, 73
6, 17729, Note_on_c, 4, 70, 0
6, 17729, Note_on_c, 4, 63, 0
6, 17760, Note_on_c, 4, 60, 127
6, 17789, Note_on_c, 4, 60, 0
6, 17820, Note_on_c, 4, 63, 127
6, 17879, Note_on_c, 4, 63, 0
6, 17880, Note_on_c, 4, 55, 100
6, 17939, Note_on_c, 4, 55, 0
6, 17940, Note_on_c, 4, 70, 127
6, 17999, Note_on_c, 4, 70, 0
6, 18000, Note_on_c, 4, 55, 100
6, 18059, Note_on_c, 4, 55, 0
6, 18060, Note_on_c, 4, 67, 127
6, 18119, Note_on_c, 4, 67, 0
6, 18180, Note_on_c, 4, 72, 127
6, 18239, Note_on_c, 4, 72, 0
6, 18240, Note_on_c, 4, 60, 127
6, 18299, Note_on_c, 4, 60, 0
6, 18420, Note_on_c, 4, 63, 127
6, 18479, Note_on_c, 4, 63, 0
6, 18480, Note_on_c, 4, 60, 127
6, 18509, Note_on_c, 4, 60, 0
6, 18540, Note_on_c, 4, 63, 127
6, 18569, Note_on_c, 4, 63, 0
6, 18600, Note_on_c, 4, 58, 127
6, 18629, Note_on_c, 4, 58, 0
6, 18660, Note_on_c, 4, 63, 127
6, 18660, Note_on_c, 4, 70, 73
6, 18689, Note_on_c, 4, 70, 0
6, 18689, Note_on_c, 4, 63, 0
6, 18720, Note_on_c, 4, 60, 127
6, 18749, Note_on_c, 4, 60, 0
6, 18780, Note_on_c, 4, 63, 127
6, 18839, Note_on_c, 4, 63, 0
6, 18840, Note_on_c, 4, 55, 100
6, 18899, Note_on_c, 4, 55, 0
6, 18900, Note_on_c, 4, 70, 127
6, 18959, Note_on_c, 4, 70, 0
6, 18960, Note_on_c, 4, 55, 100
6, 19019, Note_on_c, 4, 55, 0
6, 19020, Note_on_c, 4, 67, 127
6, 19079, Note_on_c, 4, 67, 0
6, 19140, Note_on_c, 4, 72, 127
6, 19199, Note_on_c, 4, 72, 0
6, 19200, Note_on_c, 4, 60, 127
6, 19259, Note_on_c, 4, 60, 0
6, 19380, Note_on_c, 4, 63, 127
6, 19439, Note_on_c, 4, 63, 0
6, 19440, Note_on_c, 4, 60, 127
6, 19469, Note_on_c, 4, 60, 0
6, 19500, Note_on_c, 4, 63, 127
6, 19529, Note_on_c, 4, 63, 0
6, 19560, Note_on_c, 4, 58, 127
6, 19589, Note_on_c, 4, 58, 0
6, 19620, Note_on_c, 4, 63, 127
6, 19620, Note_on_c, 4, 70, 73
6, 19649, Note_on_c, 4, 70, 0
6, 19649, Note_on_c, 4, 63, 0
6, 19680, Note_on_c, 4, 60, 127
6, 19709, Note_on_c, 4, 60, 0
6, 19740, Note_on_c, 4, 63, 127
6, 19799, Note_on_c, 4, 63, 0
6, 19800, Note_on_c, 4, 55, 100
6, 19859, Note_on_c, 4, 55, 0
6, 19860, Note_on_c, 4, 70, 127
6, 19919, Note_on_c, 4, 70, 0
6, 19920, Note_on_c, 4, 55, 100
6, 19979, Note_on_c, 4, 55, 0
6, 19980, Note_on_c, 4, 67, 127
6, 20039, Note_on_c, 4, 67, 0
6, 20100, Note_on_c, 4, 72, 127
6, 20159, Note_on_c, 4, 72, 0
6, 20160, Note_on_c, 4, 60, 127
6, 20219, Note_on_c, 4, 60, 0
6, 20340, Note_on_c, 4, 63, 127
6, 20399, Note_on_c, 4, 63, 0
6, 20400, Note_on_c, 4, 60, 127
6, 20429, Note_on_c, 4, 60, 0
6, 20460, Note_on_c, 4, 63, 127
6, 20489, Note_on_c, 4, 63, 0
6, 20520, Note_on_c, 4, 58, 127
6, 20549, Note_on_c, 4, 58, 0
6, 20580, Note_on_c, 4, 63, 127
6, 20580, Note_on_c, 4, 70, 73
6, 20609, Note_on_c, 4, 70, 0
6, 20609, Note_on_c, 4, 63, 0
6, 20640, Note_on_c, 4, 60, 127
6, 20669, Note_on_c, 4, 60, 0
6, 20700, Note_on_c, 4, 63, 127
6, 20759, Note_on_c, 4, 63, 0
6, 20760, Note_on_c, 4, 55, 100
6, 20819, Note_on_c, 4, 55, 0
6, 20820, Note_on_c, 4, 70, 127
6, 20879, Note_on_c, 4, 70, 0
6, 20880, Note_on_c, 4, 55, 100
6, 20939, Note_on_c, 4, 55, 0
6, 20940, Note_on_c, 4, 67, 127
6, 20999, Note_on_c, 4, 67, 0
6, 21060, Note_on_c, 4, 72, 127
6, 21119, Note_on_c, 4, 72, 0
6, 21120, Note_on_c, 4, 60, 127
6, 21179, Note_on_c, 4, 60, 0
6, 21300, Note_on_c, 4, 63, 127
6, 21359, Note_on_c, 4, 63, 0
6, 21360, Note_on_c, 4, 60, 127
6, 21389, Note_on_c, 4, 60, 0
6, 21420, Note_on_c, 4, 63, 127
6, 21449, Note_on_c, 4, 63, 0
6, 21480, Note_on_c, 4, 58, 127
6, 21509, Note_on_c, 4, 58, 0
6, 21540, Note_on_c, 4, 63, 127
6, 21540, Note_on_c, 4, 70, 73
6, 21569, Note_on_c, 4, 70, 0
6, 21569, Note_on_c, 4, 63, 0
6, 21600, Note_on_c, 4, 60, 127
6, 21629, Note_on_c, 4, 60, 0
6, 21660, Note_on_c, 4, 63, 127
6, 21719, Note_on_c, 4, 63, 0
6, 21720, Note_on_c, 4, 55, 100
6, 21779, Note_on_c, 4, 55, 0
6, 21780, Note_on_c, 4, 70, 127
6, 21839, Note_on_c, 4, 70, 0
6, 21840, Note_on_c, 4, 55, 100
6, 21899, Note_on_c, 4, 55, 0
6, 21900, Note_on_c, 4, 67, 127
6, 21959, Note_on_c, 4, 67, 0
6, 22020, Note_on_c, 4, 72, 127
6, 22079, Note_on_c, 4, 72, 0
6, 22080, Note_on_c, 4, 60, 127
6, 22139, Note_on_c, 4, 60, 0
6, 22260, Note_on_c, 4, 63, 127
6, 22319, Note_on_c, 4, 63, 0
6, 22320, Note_on_c, 4, 60, 127
6, 22349, Note_on_c, 4, 60, 0
6, 22380, Note_on_c, 4, 63, 127
6, 22409, Note_on_c, 4, 63, 0
6, 22440, Note_on_c, 4, 58, 127
6, 22469, Note_on_c, 4, 58, 0
6, 22500, Note_on_c, 4, 63, 127
6, 22500, Note_on_c, 4, 70, 73
6, 22529, Note_on_c, 4, 70, 0
6, 22529, Note_on_c, 4, 63, 0
6, 22560, Note_on_c, 4, 60, 127
6, 22589, Note_on_c, 4, 60, 0
6, 22620, Note_on_c, 4, 63, 127
6, 22679, Note_on_c, 4, 63, 0
6, 22680, Note_on_c, 4, 55, 100
6, 22739, Note_on_c, 4, 55, 0
6, 22740, Note_on_c, 4, 70, 127
6, 22799, Note_on_c, 4, 70, 0
6, 22800, Note_on_c, 4, 55, 100
6, 22859, Note_on_c, 4, 55, 0
6, 22860, Note_on_c, 4, 67, 127
6, 22919, Note_on_c, 4, 67, 0
6, 22980, Note_on_c, 4, 72, 127
6, 23039, Note_on_c, 4, 72, 0
6, 34560, Note_on_c, 4, 60, 127
6, 34619, Note_on_c, 4, 60, 0
6, 34740, Note_on_c, 4, 63, 127
6, 34799, Note_on_c, 4, 63, 0
6, 34800, Note_on_c, 4, 60, 127
6, 34829, Note_on_c, 4, 60, 0
6, 34860, Note_on_c, 4, 63, 127
6, 34889, Note_on_c, 4, 63, 0
6, 34920, Note_on_c, 4, 58, 127
6, 34949, Note_on_c, 4, 58, 0
6, 34980, Note_on_c, 4, 63, 127
6, 34980, Note_on_c, 4, 70, 73
6, 35009, Note_on_c, 4, 70, 0
6, 35009, Note_on_c, 4, 63, 0
6, 35040, Note_on_c, 4, 60, 127
6, 35069, Note_on_c, 4, 60, 0
6, 35100, Note_on_c, 4, 63, 127
6, 35159, Note_on_c, 4, 63, 0
6, 35160, Note_on_c, 4, 55, 100
6, 35219, Note_on_c, 4, 55, 0
6, 35220, Note_on_c, 4, 70, 127
6, 35279, Note_on_c, 4, 70, 0
6, 35280, Note_on_c, 4, 55, 100
6, 35339, Note_on_c, 4, 55, 0
6, 35340, Note_on_c, 4, 67, 127
6, 35399, Note_on_c, 4, 67, 0
6, 35460, Note_on_c, 4, 72, 127
6, 35519, Note_on_c, 4, 72, 0
6, 35520, Note_on_c, 4, 60, 127
6, 35579, Note_on_c, 4, 60, 0
6, 35700, Note_on_c, 4, 63, 127
6, 35759, Note_on_c, 4, 63, 0
6, 35760, Note_on_c, 4, 60, 127
6, 35789, Note_on_c, 4, 60, 0
6, 35820, Note_on_c, 4, 63, 127
6, 35849, Note_on_c, 4, 63, 0
6, 35880, Note_on_c, 4, 58, 127
6, 35909, Note_on_c, 4, 58, 0
6, 35940, Note_on_c, 4, 63, 127
6, 35940, Note_on_c, 4, 70, 73
6, 35969, Note_on_c, 4, 70, 0
6, 35969, Note_on_c, 4, 63, 0
6, 36000, Note_on_c, 4, 60, 127
6, 36029, Note_on_c, 4, 60, 0
6, 36060, Note_on_c, 4, 63, 127
6, 36119, Note_on_c, 4, 63, 0
6, 36120, Note_on_c, 4, 55, 100
6, 36179, Note_on_c, 4, 55, 0
6, 36180, Note_on_c, 4, 70, 127
6, 36239, Note_on_c, 4, 70, 0
6, 36240, Note_on_c, 4, 55, 100
6, 36299, Note_on_c, 4, 55, 0
6, 36300, Note_on_c, 4, 67, 127
6, 36359, Note_on_c, 4, 67, 0
6, 36420, Note_on_c, 4, 72, 127
6, 36479, Note_on_c, 4, 72, 0
6, 36480, Note_on_c, 4, 60, 127
6, 36539, Note_on_c, 4, 60, 0
6, 36660, Note_on_c, 4, 63, 127
6, 36719, Note_on_c, 4, 63, 0
6, 36720, Note_on_c, 4, 60, 127
6, 36749, Note_on_c, 4, 60, 0
6, 36780, Note_on_c, 4, 63, 127
6, 36809, Note_on_c, 4, 63, 0
6, 36840, Note_on_c, 4, 58, 127
6, 36869, Note_on_c, 4, 58, 0
6, 36900, Note_on_c, 4, 63, 127
6, 36900, Note_on_c, 4, 70, 73
6, 36929, Note_on_c, 4, 70, 0
6, 36929, Note_on_c, 4, 63, 0
6, 36960, Note_on_c, 4, 60, 127
6, 36989, Note_on_c, 4, 60, 0
6, 37020, Note_on_c, 4, 63, 127
6, 37079, Note_on_c, 4, 63, 0
6, 37080, Note_on_c, 4, 55, 100
6, 37139, Note_on_c, 4, 55, 0
6, 37140, Note_on_c, 4, 70, 127
6, 37199, Note_on_c, 4, 70, 0
6, 37200, Note_on_c, 4, 55, 100
6, 37259, Note_on_c, 4, 55, 0
6, 37260, Note_on_c, 4, 67, 127
6, 37319, Note_on_c, 4, 67, 0
6, 37380, Note_on_c, 4, 72, 127
6, 37439, Note_on_c, 4, 72, 0
6, 37440, Note_on_c, 4, 60, 127
6, 37499, Note_on_c, 4, 60, 0
6, 37620, Note_on_c, 4, 63, 127
6, 37679, Note_on_c, 4, 63, 0
6, 37680, Note_on_c, 4, 60, 127
6, 37709, Note_on_c, 4, 60, 0
6, 37740, Note_on_c, 4, 63, 127
6, 37769, Note_on_c, 4, 63, 0
6, 37800, Note_on_c, 4, 58, 127
6, 37829, Note_on_c, 4, 58, 0
6, 37860, Note_on_c, 4, 63, 127
6, 37860, Note_on_c, 4, 70, 73
6, 37889, Note_on_c, 4, 70, 0
6, 37889, Note_on_c, 4, 63, 0
6, 37920, Note_on_c, 4, 60, 127
6, 37949, Note_on_c, 4, 60, 0
6, 37980, Note_on_c, 4, 63, 127
6, 38039, Note_on_c, 4, 63, 0
6, 38040, Note_on_c, 4, 55, 100
6, 38099, Note_on_c, 4, 55, 0
6, 38100, Note_on_c, 4, 70, 127
6, 38159, Note_on_c, 4, 70, 0
6, 38160, Note_on_c, 4, 55, 100
6, 38219, Note_on_c, 4, 55, 0
6, 38220, Note_on_c, 4, 67, 127
6, 38279, Note_on_c, 4, 67, 0
6, 38340, Note_on_c, 4, 72, 127
6, 38399, Note_on_c, 4, 72, 0
6, 38400, Note_on_c, 4, 60, 127
6, 38459, Note_on_c, 4, 60, 0
6, 38580, Note_on_c, 4, 63, 127
6, 38639, Note_on_c, 4, 63, 0
6, 38640, Note_on_c, 4, 60, 127
6, 38669, Note_on_c, 4, 60, 0
6, 38700, Note_on_c, 4, 63, 127
6, 38729, Note_on_c, 4, 63, 0
6, 38760, Note_on_c, 4, 58, 127
6, 38789, Note_on_c, 4, 58, 0
6, 38820, Note_on_c, 4, 63, 127
6, 38820, Note_on_c, 4, 70, 73
6, 38849, Note_on_c, 4, 70, 0
6, 38849, Note_on_c, 4, 63, 0
6, 38880, Note_on_c, 4, 60, 127
6, 38909, Note_on_c, 4, 60, 0
6, 38940, Note_on_c, 4, 63, 127
6, 38999, Note_on_c, 4, 63, 0
6, 39000, Note_on_c, 4, 55, 100
6, 39059, Note_on_c, 4, 55, 0
6, 39060, Note_on_c, 4, 70, 127
6, 39119, Note_on_c, 4, 70, 0
6, 39120, Note_on_c, 4, 55, 100
6, 39179, Note_on_c, 4, 55, 0
6, 39180, Note_on_c, 4, 67, 127
6, 39239, Note_on_c, 4, 67, 0
6, 39300, Note_on_c, 4, 72, 127
6, 39359, Note_on_c, 4, 72, 0
6, 39360, Note_on_c, 4, 60, 127
6, 39419, Note_on_c, 4, 60, 0
6, 39540, Note_on_c, 4, 63, 127
6, 39599, Note_on_c, 4, 63, 0
6, 39600, Note_on_c, 4, 60, 127
6, 39629, Note_on_c, 4, 60, 0
6, 39660, Note_on_c, 4, 63, 127
6, 39689, Note_on_c, 4, 63, 0
6, 39720, Note_on_c, 4, 58, 127
6, 39749, Note_on_c, 4, 58, 0
6, 39780, Note_on_c, 4, 63, 127
6, 39780, Note_on_c, 4, 70, 73
6, 39809, Note_on_c, 4, 70, 0
6, 39809, Note_on_c, 4, 63, 0
6, 39840, Note_on_c, 4, 60, 127
6, 39869, Note_on_c, 4, 60, 0
6, 39900, Note_on_c, 4, 63, 127
6, 39959, Note_on_c, 4, 63, 0
6, 39960, Note_on_c, 4, 55, 100
6, 40019, Note_on_c, 4, 55, 0
6, 40020, Note_on_c, 4, 70, 127
6, 40079, Note_on_c, 4, 70, 0
6, 40080, Note_on_c, 4, 55, 100
6, 40139, Note_on_c, 4, 55, 0
6, 40140, Note_on_c, 4, 67, 127
6, 40199, Note_on_c, 4, 67, 0
6, 40260, Note_on_c, 4, 72, 127
6, 40319, Note_on_c, 4, 72, 0
6, 40320, Note_on_c, 4, 60, 127
6, 40379, Note_on_c, 4, 60, 0
6, 40500, Note_on_c, 4, 63, 127
6, 40559, Note_on_c, 4, 63, 0
6, 40560, Note_on_c, 4, 60, 127
6, 40589, Note_on_c, 4, 60, 0
6, 40620, Note_on_c, 4, 63, 127
6, 40649, Note_on_c, 4, 63, 0
6, 40680, Note_on_c, 4, 58, 127
6, 40709, Note_on_c, 4, 58, 0
6, 40740, Note_on_c, 4, 63, 127
6, 40740, Note_on_c, 4, 70, 73
6, 40769, Note_on_c, 4, 70, 0
6, 40769, Note_on_c, 4, 63, 0
6, 40800, Note_on_c, 4, 60, 127
6, 40829, Note_on_c, 4, 60, 0
6, 40860, Note_on_c, 4, 63, 127
6, 40919, Note_on_c, 4, 63, 0
6, 40920, Note_on_c, 4, 55, 100
6, 40979, Note_on_c, 4, 55, 0
6, 40980, Note_on_c, 4, 70, 127
6, 41039, Note_on_c, 4, 70, 0
6, 41040, Note_on_c, 4, 55, 100
6, 41099, Note_on_c, 4, 55, 0
6, 41100, Note_on_c, 4, 67, 127
6, 41159, Note_on_c, 4, 67, 0
6, 41220, Note_on_c, 4, 72, 127
6, 41279, Note_on_c, 4, 72, 0
6, 41280, Note_on_c, 4, 60, 127
6, 41339, Note_on_c, 4, 60, 0
6, 41460, Note_on_c, 4, 63, 127
6, 41519, Note_on_c, 4, 63, 0
6, 41520, Note_on_c, 4, 60, 127
6, 41549, Note_on_c, 4, 60, 0
6, 41580, Note_on_c, 4, 63, 127
6, 41609, Note_on_c, 4, 63, 0
6, 41640, Note_on_c, 4, 58, 127
6, 41669, Note_on_c, 4, 58, 0
6, 41700, Note_on_c, 4, 63, 127
6, 41700, Note_on_c, 4, 70, 73
6, 41729, Note_on_c, 4, 70, 0
6, 41729, Note_on_c, 4, 63, 0
6, 41760, Note_on_c, 4, 60, 127
6, 41789, Note_on_c, 4, 60, 0
6, 41820, Note_on_c, 4, 63, 127
6, 41879, Note_on_c, 4, 63, 0
6, 41880, Note_on_c, 4, 55, 100
6, 41939, Note_on_c, 4, 55, 0
6, 41940, Note_on_c, 4, 70, 127
6, 41999, Note_on_c, 4, 70, 0
6, 42000, Note_on_c, 4, 55, 100
6, 42059, Note_on_c, 4, 55, 0
6, 42060, Note_on_c, 4, 67, 127
6, 42119, Note_on_c, 4, 67, 0
6, 42180, Note_on_c, 4, 72, 127
6, 42239, Note_on_c, 4, 72, 0
6, 49920, Note_on_c, 4, 60, 127
6, 49979, Note_on_c, 4, 60, 0
6, 50100, Note_on_c, 4, 63, 127
6, 50159, Note_on_c, 4, 63, 0
6, 50160, Note_on_c, 4, 60, 127
6, 50189, Note_on_c, 4, 60, 0
6, 50220, Note_on_c, 4, 63, 127
6, 50249, Note_on_c, 4, 63, 0
6, 50280, Note_on_c, 4, 58, 127
6, 50309, Note_on_c, 4, 58, 0
6, 50340, Note_on_c, 4, 63, 127
6, 50340, Note_on_c, 4, 70, 73
6, 50369, Note_on_c, 4, 70, 0
6, 50369, Note_on_c, 4, 63, 0
6, 50400, Note_on_c, 4, 60, 127
6, 50429, Note_on_c, 4, 60, 0
6, 50460, Note_on_c, 4, 63, 127
6, 50519, Note_on_c, 4, 63, 0
6, 50520, Note_on_c, 4, 55, 100
6, 50579, Note_on_c, 4, 55, 0
6, 50580, Note_on_c, 4, 70, 127
6, 50639, Note_on_c, 4, 70, 0
6, 50640, Note_on_c, 4, 55, 100
6, 50699, Note_on_c, 4, 55, 0
6, 50700, Note_on_c, 4, 67, 127
6, 50759, Note_on_c, 4, 67, 0
6, 50820, Note_on_c, 4, 72, 127
6, 50879, Note_on_c, 4, 72, 0
6, 50880, Note_on_c, 4, 60, 127
6, 50939, Note_on_c, 4, 60, 0
6, 51060, Note_on_c, 4, 63, 127
6, 51119, Note_on_c, 4, 63, 0
6, 51120, Note_on_c, 4, 60, 127
6, 51149, Note_on_c, 4, 60, 0
6, 51180, Note_on_c, 4, 63, 127
6, 51209, Note_on_c, 4, 63, 0
6, 51240, Note_on_c, 4, 58, 127
6, 51269, Note_on_c, 4, 58, 0
6, 51300, Note_on_c, 4, 63, 127
6, 51300, Note_on_c, 4, 70, 73
6, 51329, Note_on_c, 4, 70, 0
6, 51329, Note_on_c, 4, 63, 0
6, 51360, Note_on_c, 4, 60, 127
6, 51389, Note_on_c, 4, 60, 0
6, 51420, Note_on_c, 4, 63, 127
6, 51479, Note_on_c, 4, 63, 0
6, 51480, Note_on_c, 4, 55, 100
6, 51539, Note_on_c, 4, 55, 0
6, 51540, Note_on_c, 4, 70, 127
6, 51599, Note_on_c, 4, 70, 0
6, 51600, Note_on_c, 4, 55, 100
6, 51659, Note_on_c, 4, 55, 0
6, 51660, Note_on_c, 4, 67, 127
6, 51719, Note_on_c, 4, 67, 0
6, 51780, Note_on_c, 4, 72, 127
6, 51839, Note_on_c, 4, 72, 0
6, 51840, Note_on_c, 4, 60, 127
6, 51899, Note_on_c, 4, 60, 0
6, 52020, Note_on_c, 4, 63, 127
6, 52079, Note_on_c, 4, 63, 0
6, 52080, Note_on_c, 4, 60, 127
6, 52109, Note_on_c, 4, 60, 0
6, 52140, Note_on_c, 4, 63, 127
6, 52169, Note_on_c, 4, 63, 0
6, 52200, Note_on_c, 4, 58, 127
6, 52229, Note_on_c, 4, 58, 0
6, 52260, Note_on_c, 4, 63, 127
6, 52260, Note_on_c, 4, 70, 73
6, 52289, Note_on_c, 4, 70, 0
6, 52289, Note_on_c, 4, 63, 0
6, 52320, Note_on_c, 4, 60, 127
6, 52349, Note_on_c, 4, 60, 0
6, 52380, Note_on_c, 4, 63, 127
6, 52439, Note_on_c, 4, 63, 0
6, 52440, Note_on_c, 4, 55, 100
6, 52499, Note_on_c, 4, 55, 0
6, 52500, Note_on_c, 4, 70, 127
6, 52559, Note_on_c, 4, 70, 0
6, 52560, Note_on_c, 4, 55, 100
6, 52619, Note_on_c, 4, 55, 0
6, 52620, Note_on_c, 4, 67, 127
6, 52679, Note_on_c, 4, 67, 0
6, 52740, Note_on_c, 4, 72, 127
6, 52799, Note_on_c, 4, 72, 0
6, 52800, Note_on_c, 4, 60, 127
6, 52859, Note_on_c, 4, 60, 0
6, 52980, Note_on_c, 4, 63, 127
6, 53039, Note_on_c, 4, 63, 0
6, 53040, Note_on_c, 4, 60, 127
6, 53069, Note_on_c, 4, 60, 0
6, 53100, Note_on_c, 4, 63, 127
6, 53129, Note_on_c, 4, 63, 0
6, 53160, Note_on_c, 4, 58, 127
6, 53189, Note_on_c, 4, 58, 0
6, 53220, Note_on_c, 4, 63, 127
6, 53220, Note_on_c, 4, 70, 73
6, 53249, Note_on_c, 4, 70, 0
6, 53249, Note_on_c, 4, 63, 0
6, 53280, Note_on_c, 4, 60, 127
6, 53309, Note_on_c, 4, 60, 0
6, 53340, Note_on_c, 4, 63, 127
6, 53399, Note_on_c, 4, 63, 0
6, 53400, Note_on_c, 4, 55, 100
6, 53459, Note_on_c, 4, 55, 0
6, 53460, Note_on_c, 4, 70, 127
6, 53519, Note_on_c, 4, 70, 0
6, 53520, Note_on_c, 4, 55, 100
6, 53579, Note_on_c, 4, 55, 0
6, 53580, Note_on_c, 4, 67, 127
6, 53639, Note_on_c, 4, 67, 0
6, 53700, Note_on_c, 4, 72, 127
6, 53759, Note_on_c, 4, 72, 0
6, 53760, Note_on_c, 4, 60, 127
6, 53819, Note_on_c, 4, 60, 0
6, 53940, Note_on_c, 4, 63, 127
6, 53999, Note_on_c, 4, 63, 0
6, 54000, Note_on_c, 4, 60, 127
6, 54029, Note_on_c, 4, 60, 0
6, 54060, Note_on_c, 4, 63, 127
6, 54089, Note_on_c, 4, 63, 0
6, 54120, Note_on_c, 4, 58, 127
6, 54149, Note_on_c, 4, 58, 0
6, 54180, Note_on_c, 4, 63, 127
6, 54180, Note_on_c, 4, 70, 73
6, 54209, Note_on_c, 4, 70, 0
6, 54209, Note_on_c, 4, 63, 0
6, 54240, Note_on_c, 4, 60, 127
6, 54269, Note_on_c, 4, 60, 0
6, 54300, Note_on_c, 4, 63, 127
6, 54359, Note_on_c, 4, 63, 0
6, 54360, Note_on_c, 4, 55, 100
6, 54419, Note_on_c, 4, 55, 0
6, 54420, Note_on_c, 4, 70, 127
6, 54479, Note_on_c, 4, 70, 0
6, 54480, Note_on_c, 4, 55, 100
6, 54539, Note_on_c, 4, 55, 0
6, 54540, Note_on_c, 4, 67, 127
6, 54599, Note_on_c, 4, 67, 0
6, 54660, Note_on_c, 4, 72, 127
6, 54719, Note_on_c, 4, 72, 0
6, 54720, Note_on_c, 4, 60, 127
6, 54779, Note_on_c, 4, 60, 0
6, 54900, Note_on_c, 4, 63, 127
6, 54959, Note_on_c, 4, 63, 0
6, 54960, Note_on_c, 4, 60, 127
6, 54989, Note_on_c, 4, 60, 0
6, 55020, Note_on_c, 4, 63, 127
6, 55049, Note_on_c, 4, 63, 0
6, 55080, Note_on_c, 4, 58, 127
6, 55109, Note_on_c, 4, 58, 0
6, 55140, Note_on_c, 4, 63, 127
6, 55140, Note_on_c, 4, 70, 73
6, 55169, Note_on_c, 4, 70, 0
6, 55169, Note_on_c, 4, 63, 0
6, 55200, Note_on_c, 4, 60, 127
6, 55229, Note_on_c, 4, 60, 0
6, 55260, Note_on_c, 4, 63, 127
6, 55319, Note_on_c, 4, 63, 0
6, 55320, Note_on_c, 4, 55, 100
6, 55379, Note_on_c, 4, 55, 0
6, 55380, Note_on_c, 4, 70, 127
6, 55439, Note_on_c, 4, 70, 0
6, 55440, Note_on_c, 4, 55, 100
6, 55499, Note_on_c, 4, 55, 0
6, 55500, Note_on_c, 4, 67, 127
6, 55559, Note_on_c, 4, 67, 0
6, 55620, Note_on_c, 4, 72, 127
6, 55679, Note_on_c, 4, 72, 0
6, 55680, Note_on_c, 4, 60, 127
6, 55739, Note_on_c, 4, 60, 0
6, 55860, Note_on_c, 4, 63, 127
6, 55919, Note_on_c, 4, 63, 0
6, 55920, Note_on_c, 4, 60, 127
6, 55949, Note_on_c, 4, 60, 0
6, 55980, Note_on_c, 4, 63, 127
6, 56009, Note_on_c, 4, 63, 0
6, 56040, Note_on_c, 4, 58, 127
6, 56069, Note_on_c, 4, 58, 0
6, 56100, Note_on_c, 4, 63, 127
6, 56100, Note_on_c, 4, 70, 73
6, 56129, Note_on_c, 4, 70, 0
6, 56129, Note_on_c, 4, 63, 0
6, 56160, Note_on_c, 4, 60, 127
6, 56189, Note_on_c, 4, 60, 0
6, 56220, Note_on_c, 4, 63, 127
6, 56279, Note_on_c, 4, 63, 0
6, 56280, Note_on_c, 4, 55, 100
6, 56339, Note_on_c, 4, 55, 0
6, 56340, Note_on_c, 4, 70, 127
6, 56399, Note_on_c, 4, 70, 0
6, 56400, Note_on_c, 4, 55, 100
6, 56459, Note_on_c, 4, 55, 0
6, 56460, Note_on_c, 4, 67, 127
6, 56519, Note_on_c, 4, 67, 0
6, 56580, Note_on_c, 4, 72, 127
6, 56639, Note_on_c, 4, 72, 0
6, 56640, Note_on_c, 4, 60, 127
6, 56699, Note_on_c, 4, 60, 0
6, 56820, Note_on_c, 4, 63, 127
6, 56879, Note_on_c, 4, 63, 0
6, 56880, Note_on_c, 4, 60, 127
6, 56909, Note_on_c, 4, 60, 0
6, 56940, Note_on_c, 4, 63, 127
6, 56969, Note_on_c, 4, 63, 0
6, 57000, Note_on_c, 4, 58, 127
6, 57029, Note_on_c, 4, 58, 0
6, 57060, Note_on_c, 4, 63, 127
6, 57060, Note_on_c, 4, 70, 73
6, 57089, Note_on_c, 4, 70, 0
6, 57089, Note_on_c, 4, 63, 0
6, 57120, Note_on_c, 4, 60, 127
6, 57149, Note_on_c, 4, 60, 0
6, 57180, Note_on_c, 4, 63, 127
6, 57239, Note_on_c, 4, 63, 0
6, 57240, Note_on_c, 4, 55, 100
6, 57299, Note_on_c, 4, 55, 0
6, 57300, Note_on_c, 4, 70, 127
6, 57359, Note_on_c, 4, 70, 0
6, 57360, Note_on_c, 4, 55, 100
6, 57419, Note_on_c, 4, 55, 0
6, 57420, Note_on_c, 4, 67, 127
6, 57479, Note_on_c, 4, 67, 0
6, 57540, Note_on_c, 4, 72, 127
6, 57599, Note_on_c, 4, 72, 0
6, 59040, Control_c, 4, 7, 80
6, 59075, Control_c, 4, 7, 79
6, 59111, Control_c, 4, 7, 78
6, 59147, Control_c, 4, 7, 77
6, 59183, Control_c, 4, 7, 76
6, 59219, Control_c, 4, 7, 75
6, 59255, Control_c, 4, 7, 74
6, 59291, Control_c, 4, 7, 73
6, 59327, Control_c, 4, 7, 72
6, 59363, Control_c, 4, 7, 71
6, 59399, Control_c, 4, 7, 70
6, 59435, Control_c, 4, 7, 69
6, 59471, Control_c, 4, 7, 68
6, 59507, Control_c, 4, 7, 67
6, 59543, Control_c, 4, 7, 66
6, 59579, Control_c, 4, 7, 65
6, 59615, Control_c, 4, 7, 64
6, 59651, Control_c, 4, 7, 63
6, 59687, Control_c, 4, 7, 62
6, 59723, Control_c, 4, 7, 61
6, 59759, Control_c, 4, 7, 60
6, 59795, Control_c, 4, 7, 59
6, 59831, Control_c, 4, 7, 58
6, 59867, Control_c, 4, 7, 57
6, 59903, Control_c, 4, 7, 56
6, 59939, Control_c, 4, 7, 55
6, 59975, Control_c, 4, 7, 54
6, 60011, Control_c, 4, 7, 53
6, 60047, Control_c, 4, 7, 52
6, 60083, Control_c, 4, 7, 51
6, 60119, Control_c, 4, 7, 50
6, 60155, Control_c, 4, 7, 49
6, 60191, Control_c, 4, 7, 48
6, 60227, Control_c, 4, 7, 47
6, 60263, Control_c, 4, 7, 46
6, 60299, Control_c, 4, 7, 45
6, 60335, Control_c, 4, 7, 44
6, 60371, Control_c, 4, 7, 43
6, 60407, Control_c, 4, 7, 42
6, 60443, Control_c, 4, 7, 41
6, 60479, Control_c, 4, 7, 40
6, 60515, Control_c, 4, 7, 39
6, 60551, Control_c, 4, 7, 38
6, 60587, Control_c, 4, 7, 37
6, 60623, Control_c, 4, 7, 36
6, 60659, Control_c, 4, 7, 35
6, 60695, Control_c, 4, 7, 34
6, 60731, Control_c, 4, 7, 33
6, 60767, Control_c, 4, 7, 32
6, 60803, Control_c, 4, 7, 31
6, 60839, Control_c, 4, 7, 30
6, 60875, Control_c, 4, 7, 29
6, 60911, Control_c, 4, 7, 28
6, 60947, Control_c, 4, 7, 27
6, 60983, Control_c, 4, 7, 26
6, 61019, Control_c, 4, 7, 25
6, 61055, Control_c, 4, 7, 24
6, 61091, Control_c, 4, 7, 23
6, 61127, Control_c, 4, 7, 22
6, 61163, Control_c, 4, 7, 21
6, 61199, Control_c, 4, 7, 20
6, 61235, Control_c, 4, 7, 19
6, 61271, Control_c, 4, 7, 18
6, 61307, Control_c, 4, 7, 17
6, 61343, Control_c, 4, 7, 16
6, 61379, Control_c, 4, 7, 15
6, 61415, Control_c, 4, 7, 14
6, 61451, Control_c, 4, 7, 13
6, 61487, Control_c, 4, 7, 12
6, 61523, Control_c, 4, 7, 11
6, 61559, Control_c, 4, 7, 10
6, 61595, Control_c, 4, 7, 9
6, 61631, Control_c, 4, 7, 8
6, 61667, Control_c, 4, 7, 7
6, 61703, Control_c, 4, 7, 6
6, 61739, Control_c, 4, 7, 5
6, 61775, Control_c, 4, 7, 4
6, 61811, Control_c, 4, 7, 3
6, 61847, Control_c, 4, 7, 2
6, 61883, Control_c, 4, 7, 1
6, 61919, Control_c, 4, 7, 0
6, 61919, End_track
7, 0, Start_track
7, 0, MIDI_port, 0
7, 0, Title_t, "atyrrell@tcm.ac.uk"
7, 0, Program_c, 5, 24
7, 0, Control_c, 5, 7, 80
7, 0, Control_c, 5, 10, 100
7, 60, Note_on_c, 5, 67, 127
7, 119, Note_on_c, 5, 67, 0
7, 120, Note_on_c, 5, 70, 127
7, 179, Note_on_c, 5, 70, 0
7, 180, Note_on_c, 5, 62, 127
7, 239, Note_on_c, 5, 62, 0
7, 240, Note_on_c, 5, 63, 127
7, 479, Note_on_c, 5, 63, 0
7, 660, Note_on_c, 5, 53, 79
7, 660, Note_on_c, 5, 65, 127
7, 719, Note_on_c, 5, 65, 0
7, 719, Note_on_c, 5, 53, 0
7, 780, Note_on_c, 5, 55, 79
7, 780, Note_on_c, 5, 67, 127
7, 929, Note_on_c, 5, 67, 0
7, 929, Note_on_c, 5, 55, 0
7, 1020, Note_on_c, 5, 67, 127
7, 1079, Note_on_c, 5, 67, 0
7, 1080, Note_on_c, 5, 70, 127
7, 1139, Note_on_c, 5, 70, 0
7, 1140, Note_on_c, 5, 62, 127
7, 1199, Note_on_c, 5, 62, 0
7, 1200, Note_on_c, 5, 63, 127
7, 1439, Note_on_c, 5, 63, 0
7, 1620, Note_on_c, 5, 53, 80
7, 1620, Note_on_c, 5, 65, 127
7, 1679, Note_on_c, 5, 65, 0
7, 1679, Note_on_c, 5, 53, 0
7, 1740, Note_on_c, 5, 55, 78
7, 1740, Note_on_c, 5, 67, 127
7, 1889, Note_on_c, 5, 67, 0
7, 1889, Note_on_c, 5, 55, 0
7, 1920, Note_on_c, 5, 66, 75
7, 1949, Note_on_c, 5, 66, 0
7, 1950, Note_on_c, 5, 67, 127
7, 1979, Note_on_c, 5, 67, 0
7, 1980, Note_on_c, 5, 67, 127
7, 2039, Note_on_c, 5, 67, 0
7, 2040, Note_on_c, 5, 70, 127
7, 2099, Note_on_c, 5, 70, 0
7, 2100, Note_on_c, 5, 62, 127
7, 2159, Note_on_c, 5, 62, 0
7, 2160, Note_on_c, 5, 63, 127
7, 2399, Note_on_c, 5, 63, 0
7, 2580, Note_on_c, 5, 65, 127
7, 2580, Note_on_c, 5, 53, 79
7, 2639, Note_on_c, 5, 53, 0
7, 2639, Note_on_c, 5, 65, 0
7, 2700, Note_on_c, 5, 55, 79
7, 2700, Note_on_c, 5, 67, 127
7, 2849, Note_on_c, 5, 67, 0
7, 2849, Note_on_c, 5, 55, 0
7, 2880, Note_on_c, 5, 66, 75
7, 2909, Note_on_c, 5, 66, 0
7, 2910, Note_on_c, 5, 67, 127
7, 2939, Note_on_c, 5, 67, 0
7, 2940, Note_on_c, 5, 67, 127
7, 2999, Note_on_c, 5, 67, 0
7, 3000, Note_on_c, 5, 70, 127
7, 3059, Note_on_c, 5, 70, 0
7, 3060, Note_on_c, 5, 62, 127
7, 3119, Note_on_c, 5, 62, 0
7, 3120, Note_on_c, 5, 63, 127
7, 3359, Note_on_c, 5, 63, 0
7, 3540, Note_on_c, 5, 53, 79
7, 3540, Note_on_c, 5, 65, 127
7, 3599, Note_on_c, 5, 65, 0
7, 3599, Note_on_c, 5, 53, 0
7, 3660, Note_on_c, 5, 55, 79
7, 3660, Note_on_c, 5, 67, 127
7, 3809, Note_on_c, 5, 67, 0
7, 3809, Note_on_c, 5, 55, 0
7, 3900, Note_on_c, 5, 67, 127
7, 3959, Note_on_c, 5, 67, 0
7, 3960, Note_on_c, 5, 70, 127
7, 4019, Note_on_c, 5, 70, 0
7, 4020, Note_on_c, 5, 62, 127
7, 4079, Note_on_c, 5, 62, 0
7, 4080, Note_on_c, 5, 63, 127
7, 4319, Note_on_c, 5, 63, 0
7, 4500, Note_on_c, 5, 53, 79
7, 4500, Note_on_c, 5, 65, 127
7, 4559, Note_on_c, 5, 65, 0
7, 4559, Note_on_c, 5, 53, 0
7, 4620, Note_on_c, 5, 55, 79
7, 4620, Note_on_c, 5, 67, 127
7, 4769, Note_on_c, 5, 67, 0
7, 4769, Note_on_c, 5, 55, 0
7, 4860, Note_on_c, 5, 67, 127
7, 4919, Note_on_c, 5, 67, 0
7, 4920, Note_on_c, 5, 70, 127
7, 4979, Note_on_c, 5, 70, 0
7, 4980, Note_on_c, 5, 62, 127
7, 5039, Note_on_c, 5, 62, 0
7, 5040, Note_on_c, 5, 63, 127
7, 5279, Note_on_c, 5, 63, 0
7, 5460, Note_on_c, 5, 53, 79
7, 5460, Note_on_c, 5, 65, 127
7, 5519, Note_on_c, 5, 65, 0
7, 5519, Note_on_c, 5, 53, 0
7, 5580, Note_on_c, 5, 55, 79
7, 5580, Note_on_c, 5, 67, 127
7, 5729, Note_on_c, 5, 67, 0
7, 5729, Note_on_c, 5, 55, 0
7, 5820, Note_on_c, 5, 67, 127
7, 5879, Note_on_c, 5, 67, 0
7, 5880, Note_on_c, 5, 70, 127
7, 5939, Note_on_c, 5, 70, 0
7, 5940, Note_on_c, 5, 62, 127
7, 5999, Note_on_c, 5, 62, 0
7, 6000, Note_on_c, 5, 63, 127
7, 6239, Note_on_c, 5, 63, 0
7, 6420, Note_on_c, 5, 53, 79
7, 6420, Note_on_c, 5, 65, 127
7, 6479, Note_on_c, 5, 65, 0
7, 6479, Note_on_c, 5, 53, 0
7, 6540, Note_on_c, 5, 55, 79
7, 6540, Note_on_c, 5, 67, 127
7, 6689, Note_on_c, 5, 67, 0
7, 6689, Note_on_c, 5, 55, 0
7, 6780, Note_on_c, 5, 67, 127
7, 6839, Note_on_c, 5, 67, 0
7, 6840, Note_on_c, 5, 70, 127
7, 6899, Note_on_c, 5, 70, 0
7, 6900, Note_on_c, 5, 62, 127
7, 6959, Note_on_c, 5, 62, 0
7, 6960, Note_on_c, 5, 63, 127
7, 7199, Note_on_c, 5, 63, 0
7, 7380, Note_on_c, 5, 53, 79
7, 7380, Note_on_c, 5, 65, 127
7, 7439, Note_on_c, 5, 65, 0
7, 7439, Note_on_c, 5, 53, 0
7, 7500, Note_on_c, 5, 55, 79
7, 7500, Note_on_c, 5, 67, 127
7, 7649, Note_on_c, 5, 67, 0
7, 7649, Note_on_c, 5, 55, 0
7, 7680, Note_on_c, 5, 66, 75
7, 7709, Note_on_c, 5, 66, 0
7, 7710, Note_on_c, 5, 67, 127
7, 7739, Note_on_c, 5, 67, 0
7, 7740, Note_on_c, 5, 67, 127
7, 7799, Note_on_c, 5, 67, 0
7, 7800, Note_on_c, 5, 70, 127
7, 7859, Note_on_c, 5, 70, 0
7, 7860, Note_on_c, 5, 62, 127
7, 7919, Note_on_c, 5, 62, 0
7, 7920, Note_on_c, 5, 63, 127
7, 8159, Note_on_c, 5, 63, 0
7, 8340, Note_on_c, 5, 53, 79
7, 8340, Note_on_c, 5, 65, 127
7, 8399, Note_on_c, 5, 65, 0
7, 8399, Note_on_c, 5, 53, 0
7, 8460, Note_on_c, 5, 55, 79
7, 8460, Note_on_c, 5, 67, 127
7, 8609, Note_on_c, 5, 67, 0
7, 8609, Note_on_c, 5, 55, 0
7, 8640, Note_on_c, 5, 66, 75
7, 8669, Note_on_c, 5, 66, 0
7, 8670, Note_on_c, 5, 67, 127
7, 8699, Note_on_c, 5, 67, 0
7, 8700, Note_on_c, 5, 67, 127
7, 8759, Note_on_c, 5, 67, 0
7, 8760, Note_on_c, 5, 70, 127
7, 8819, Note_on_c, 5, 70, 0
7, 8820, Note_on_c, 5, 62, 127
7, 8879, Note_on_c, 5, 62, 0
7, 8880, Note_on_c, 5, 63, 127
7, 9119, Note_on_c, 5, 63, 0
7, 9300, Note_on_c, 5, 53, 79
7, 9300, Note_on_c, 5, 65, 127
7, 9359, Note_on_c, 5, 65, 0
7, 9359, Note_on_c, 5, 53, 0
7, 9420, Note_on_c, 5, 55, 79
7, 9420, Note_on_c, 5, 67, 127
7, 9569, Note_on_c, 5, 67, 0
7, 9569, Note_on_c, 5, 55, 0
7, 9600, Note_on_c, 5, 66, 75
7, 9629, Note_on_c, 5, 66, 0
7, 9630, Note_on_c, 5, 67, 127
7, 9659, Note_on_c, 5, 67, 0
7, 9660, Note_on_c, 5, 67, 127
7, 9719, Note_on_c, 5, 67, 0
7, 9720, Note_on_c, 5, 70, 127
7, 9779, Note_on_c, 5, 70, 0
7, 9780, Note_on_c, 5, 62, 127
7, 9839, Note_on_c, 5, 62, 0
7, 9840, Note_on_c, 5, 63, 127
7, 10079, Note_on_c, 5, 63, 0
7, 10260, Note_on_c, 5, 53, 79
7, 10260, Note_on_c, 5, 65, 127
7, 10379, Note_on_c, 5, 65, 0
7, 10379, Note_on_c, 5, 53, 0
7, 10380, Note_on_c, 5, 55, 79
7, 10380, Note_on_c, 5, 67, 127
7, 10499, Note_on_c, 5, 67, 0
7, 10499, Note_on_c, 5, 55, 0
7, 10560, Note_on_c, 5, 66, 41
7, 10589, Note_on_c, 5, 66, 0
7, 10590, Note_on_c, 5, 67, 127
7, 11009, Note_on_c, 5, 67, 0
7, 11520, Note_on_c, 5, 66, 75
7, 11549, Note_on_c, 5, 66, 0
7, 11550, Note_on_c, 5, 67, 127
7, 11579, Note_on_c, 5, 67, 0
7, 11580, Note_on_c, 5, 67, 127
7, 11639, Note_on_c, 5, 67, 0
7, 11640, Note_on_c, 5, 70, 127
7, 11699, Note_on_c, 5, 70, 0
7, 11700, Note_on_c, 5, 62, 127
7, 11759, Note_on_c, 5, 62, 0
7, 11760, Note_on_c, 5, 63, 127
7, 11999, Note_on_c, 5, 63, 0
7, 12180, Note_on_c, 5, 65, 127
7, 12180, Note_on_c, 5, 53, 79
7, 12239, Note_on_c, 5, 53, 0
7, 12239, Note_on_c, 5, 65, 0
7, 12300, Note_on_c, 5, 55, 79
7, 12300, Note_on_c, 5, 67, 127
7, 12449, Note_on_c, 5, 67, 0
7, 12449, Note_on_c, 5, 55, 0
7, 12480, Note_on_c, 5, 66, 75
7, 12509, Note_on_c, 5, 66, 0
7, 12510, Note_on_c, 5, 67, 127
7, 12539, Note_on_c, 5, 67, 0
7, 12540, Note_on_c, 5, 67, 127
7, 12599, Note_on_c, 5, 67, 0
7, 12600, Note_on_c, 5, 70, 127
7, 12659, Note_on_c, 5, 70, 0
7, 12660, Note_on_c, 5, 62, 127
7, 12719, Note_on_c, 5, 62, 0
7, 12720, Note_on_c, 5, 63, 127
7, 12959, Note_on_c, 5, 63, 0
7, 13140, Note_on_c, 5, 53, 79
7, 13140, Note_on_c, 5, 65, 127
7, 13199, Note_on_c, 5, 65, 0
7, 13199, Note_on_c, 5, 53, 0
7, 13260, Note_on_c, 5, 55, 79
7, 13260, Note_on_c, 5, 67, 127
7, 13409, Note_on_c, 5, 67, 0
7, 13409, Note_on_c, 5, 55, 0
7, 13440, Note_on_c, 5, 66, 75
7, 13469, Note_on_c, 5, 66, 0
7, 13470, Note_on_c, 5, 67, 127
7, 13499, Note_on_c, 5, 67, 0
7, 13500, Note_on_c, 5, 67, 127
7, 13559, Note_on_c, 5, 67, 0
7, 13560, Note_on_c, 5, 70, 127
7, 13619, Note_on_c, 5, 70, 0
7, 13620, Note_on_c, 5, 62, 127
7, 13679, Note_on_c, 5, 62, 0
7, 13680, Note_on_c, 5, 63, 127
7, 13919, Note_on_c, 5, 63, 0
7, 14100, Note_on_c, 5, 65, 127
7, 14100, Note_on_c, 5, 53, 79
7, 14159, Note_on_c, 5, 53, 0
7, 14159, Note_on_c, 5, 65, 0
7, 14220, Note_on_c, 5, 55, 79
7, 14220, Note_on_c, 5, 67, 127
7, 14369, Note_on_c, 5, 67, 0
7, 14369, Note_on_c, 5, 55, 0
7, 14400, Note_on_c, 5, 66, 75
7, 14429, Note_on_c, 5, 66, 0
7, 14430, Note_on_c, 5, 67, 127
7, 14459, Note_on_c, 5, 67, 0
7, 14460, Note_on_c, 5, 67, 127
7, 14519, Note_on_c, 5, 67, 0
7, 14520, Note_on_c, 5, 70, 127
7, 14579, Note_on_c, 5, 70, 0
7, 14580, Note_on_c, 5, 62, 127
7, 14639, Note_on_c, 5, 62, 0
7, 14640, Note_on_c, 5, 63, 127
7, 14879, Note_on_c, 5, 63, 0
7, 15060, Note_on_c, 5, 53, 79
7, 15060, Note_on_c, 5, 65, 127
7, 15119, Note_on_c, 5, 65, 0
7, 15119, Note_on_c, 5, 53, 0
7, 15180, Note_on_c, 5, 55, 79
7, 15180, Note_on_c, 5, 67, 127
7, 15329, Note_on_c, 5, 67, 0
7, 15329, Note_on_c, 5, 55, 0
7, 15360, Note_on_c, 5, 66, 75
7, 15389, Note_on_c, 5, 66, 0
7, 15390, Note_on_c, 5, 67, 127
7, 15419, Note_on_c, 5, 67, 0
7, 15420, Note_on_c, 5, 67, 127
7, 15479, Note_on_c, 5, 67, 0
7, 15480, Note_on_c, 5, 70, 127
7, 15539, Note_on_c, 5, 70, 0
7, 15540, Note_on_c, 5, 62, 127
7, 15599, Note_on_c, 5, 62, 0
7, 15600, Note_on_c, 5, 63, 127
7, 15839, Note_on_c, 5, 63, 0
7, 16020, Note_on_c, 5, 65, 127
7, 16020, Note_on_c, 5, 53, 79
7, 16079, Note_on_c, 5, 53, 0
7, 16079, Note_on_c, 5, 65, 0
7, 16140, Note_on_c, 5, 55, 79
7, 16140, Note_on_c, 5, 67, 127
7, 16289, Note_on_c, 5, 67, 0
7, 16289, Note_on_c, 5, 55, 0
7, 16320, Note_on_c, 5, 66, 75
7, 16349, Note_on_c, 5, 66, 0
7, 16350, Note_on_c, 5, 67, 127
7, 16379, Note_on_c, 5, 67, 0
7, 16380, Note_on_c, 5, 67, 127
7, 16439, Note_on_c, 5, 67, 0
7, 16440, Note_on_c, 5, 70, 127
7, 16499, Note_on_c, 5, 70, 0
7, 16500, Note_on_c, 5, 62, 127
7, 16559, Note_on_c, 5, 62, 0
7, 16560, Note_on_c, 5, 63, 127
7, 16799, Note_on_c, 5, 63, 0
7, 16980, Note_on_c, 5, 53, 79
7, 16980, Note_on_c, 5, 65, 127
7, 17039, Note_on_c, 5, 65, 0
7, 17039, Note_on_c, 5, 53, 0
7, 17100, Note_on_c, 5, 55, 79
7, 17100, Note_on_c, 5, 67, 127
7, 17249, Note_on_c, 5, 67, 0
7, 17249, Note_on_c, 5, 55, 0
7, 17280, Note_on_c, 5, 66, 75
7, 17309, Note_on_c, 5, 66, 0
7, 17310, Note_on_c, 5, 67, 127
7, 17339, Note_on_c, 5, 67, 0
7, 17340, Note_on_c, 5, 67, 127
7, 17399, Note_on_c, 5, 67, 0
7, 17400, Note_on_c, 5, 70, 127
7, 17459, Note_on_c, 5, 70, 0
7, 17460, Note_on_c, 5, 62, 127
7, 17519, Note_on_c, 5, 62, 0
7, 17520, Note_on_c, 5, 63, 127
7, 17759, Note_on_c, 5, 63, 0
7, 17940, Note_on_c, 5, 65, 127
7, 17940, Note_on_c, 5, 53, 79
7, 17999, Note_on_c, 5, 53, 0
7, 17999, Note_on_c, 5, 65, 0
7, 18060, Note_on_c, 5, 55, 79
7, 18060, Note_on_c, 5, 67, 127
7, 18209, Note_on_c, 5, 67, 0
7, 18209, Note_on_c, 5, 55, 0
7, 18240, Note_on_c, 5, 66, 75
7, 18269, Note_on_c, 5, 66, 0
7, 18270, Note_on_c, 5, 67, 127
7, 18299, Note_on_c, 5, 67, 0
7, 18300, Note_on_c, 5, 67, 127
7, 18359, Note_on_c, 5, 67, 0
7, 18360, Note_on_c, 5, 70, 127
7, 18419, Note_on_c, 5, 70, 0
7, 18420, Note_on_c, 5, 62, 127
7, 18479, Note_on_c, 5, 62, 0
7, 18480, Note_on_c, 5, 63, 127
7, 18719, Note_on_c, 5, 63, 0
7, 18900, Note_on_c, 5, 53, 79
7, 18900, Note_on_c, 5, 65, 127
7, 18959, Note_on_c, 5, 65, 0
7, 18959, Note_on_c, 5, 53, 0
7, 19020, Note_on_c, 5, 55, 79
7, 19020, Note_on_c, 5, 67, 127
7, 19169, Note_on_c, 5, 67, 0
7, 19169, Note_on_c, 5, 55, 0
7, 19200, Note_on_c, 5, 66, 75
7, 19229, Note_on_c, 5, 66, 0
7, 19230, Note_on_c, 5, 67, 127
7, 19259, Note_on_c, 5, 67, 0
7, 19260, Note_on_c, 5, 67, 127
7, 19319, Note_on_c, 5, 67, 0
7, 19320, Note_on_c, 5, 70, 127
7, 19379, Note_on_c, 5, 70, 0
7, 19380, Note_on_c, 5, 62, 127
7, 19439, Note_on_c, 5, 62, 0
7, 19440, Note_on_c, 5, 63, 127
7, 19679, Note_on_c, 5, 63, 0
7, 19860, Note_on_c, 5, 65, 127
7, 19860, Note_on_c, 5, 53, 79
7, 19919, Note_on_c, 5, 53, 0
7, 19919, Note_on_c, 5, 65, 0
7, 19980, Note_on_c, 5, 55, 79
7, 19980, Note_on_c, 5, 67, 127
7, 20129, Note_on_c, 5, 67, 0
7, 20129, Note_on_c, 5, 55, 0
7, 20160, Note_on_c, 5, 66, 75
7, 20189, Note_on_c, 5, 66, 0
7, 20190, Note_on_c, 5, 67, 127
7, 20219, Note_on_c, 5, 67, 0
7, 20220, Note_on_c, 5, 67, 127
7, 20279, Note_on_c, 5, 67, 0
7, 20280, Note_on_c, 5, 70, 127
7, 20339, Note_on_c, 5, 70, 0
7, 20340, Note_on_c, 5, 62, 127
7, 20399, Note_on_c, 5, 62, 0
7, 20400, Note_on_c, 5, 63, 127
7, 20639, Note_on_c, 5, 63, 0
7, 20820, Note_on_c, 5, 53, 79
7, 20820, Note_on_c, 5, 65, 127
7, 20879, Note_on_c, 5, 65, 0
7, 20879, Note_on_c, 5, 53, 0
7, 20940, Note_on_c, 5, 55, 79
7, 20940, Note_on_c, 5, 67, 127
7, 21089, Note_on_c, 5, 67, 0
7, 21089, Note_on_c, 5, 55, 0
7, 21120, Note_on_c, 5, 66, 75
7, 21149, Note_on_c, 5, 66, 0
7, 21150, Note_on_c, 5, 67, 127
7, 21179, Note_on_c, 5, 67, 0
7, 21180, Note_on_c, 5, 67, 127
7, 21239, Note_on_c, 5, 67, 0
7, 21240, Note_on_c, 5, 70, 127
7, 21299, Note_on_c, 5, 70, 0
7, 21300, Note_on_c, 5, 62, 127
7, 21359, Note_on_c, 5, 62, 0
7, 21360, Note_on_c, 5, 63, 127
7, 21599, Note_on_c, 5, 63, 0
7, 21780, Note_on_c, 5, 65, 127
7, 21780, Note_on_c, 5, 53, 79
7, 21839, Note_on_c, 5, 53, 0
7, 21839, Note_on_c, 5, 65, 0
7, 21900, Note_on_c, 5, 55, 79
7, 21900, Note_on_c, 5, 67, 127
7, 22049, Note_on_c, 5, 67, 0
7, 22049, Note_on_c, 5, 55, 0
7, 22080, Note_on_c, 5, 66, 75
7, 22109, Note_on_c, 5, 66, 0
7, 22110, Note_on_c, 5, 67, 127
7, 22139, Note_on_c, 5, 67, 0
7, 22140, Note_on_c, 5, 67, 127
7, 22199, Note_on_c, 5, 67, 0
7, 22200, Note_on_c, 5, 70, 127
7, 22259, Note_on_c, 5, 70, 0
7, 22260, Note_on_c, 5, 62, 127
7, 22319, Note_on_c, 5, 62, 0
7, 22320, Note_on_c, 5, 63, 127
7, 22559, Note_on_c, 5, 63, 0
7, 22740, Note_on_c, 5, 53, 79
7, 22740, Note_on_c, 5, 65, 127
7, 22799, Note_on_c, 5, 65, 0
7, 22799, Note_on_c, 5, 53, 0
7, 22860, Note_on_c, 5, 55, 79
7, 22860, Note_on_c, 5, 67, 127
7, 23009, Note_on_c, 5, 67, 0
7, 23009, Note_on_c, 5, 55, 0
7, 23100, Note_on_c, 5, 67, 127
7, 23159, Note_on_c, 5, 67, 0
7, 23160, Note_on_c, 5, 70, 127
7, 23219, Note_on_c, 5, 70, 0
7, 23220, Note_on_c, 5, 62, 127
7, 23279, Note_on_c, 5, 62, 0
7, 23280, Note_on_c, 5, 63, 127
7, 23519, Note_on_c, 5, 63, 0
7, 23700, Note_on_c, 5, 53, 79
7, 23700, Note_on_c, 5, 65, 127
7, 23759, Note_on_c, 5, 65, 0
7, 23759, Note_on_c, 5, 53, 0
7, 23820, Note_on_c, 5, 55, 79
7, 23820, Note_on_c, 5, 67, 127
7, 23969, Note_on_c, 5, 67, 0
7, 23969, Note_on_c, 5, 55, 0
7, 24060, Note_on_c, 5, 67, 127
7, 24119, Note_on_c, 5, 67, 0
7, 24120, Note_on_c, 5, 70, 127
7, 24179, Note_on_c, 5, 70, 0
7, 24180, Note_on_c, 5, 62, 127
7, 24239, Note_on_c, 5, 62, 0
7, 24240, Note_on_c, 5, 63, 127
7, 24479, Note_on_c, 5, 63, 0
7, 24660, Note_on_c, 5, 53, 79
7, 24660, Note_on_c, 5, 65, 127
7, 24719, Note_on_c, 5, 65, 0
7, 24719, Note_on_c, 5, 53, 0
7, 24780, Note_on_c, 5, 55, 79
7, 24780, Note_on_c, 5, 67, 127
7, 24929, Note_on_c, 5, 67, 0
7, 24929, Note_on_c, 5, 55, 0
7, 25020, Note_on_c, 5, 67, 127
7, 25079, Note_on_c, 5, 67, 0
7, 25080, Note_on_c, 5, 70, 127
7, 25139, Note_on_c, 5, 70, 0
7, 25140, Note_on_c, 5, 62, 127
7, 25199, Note_on_c, 5, 62, 0
7, 25200, Note_on_c, 5, 63, 127
7, 25439, Note_on_c, 5, 63, 0
7, 25620, Note_on_c, 5, 53, 79
7, 25620, Note_on_c, 5, 65, 127
7, 25679, Note_on_c, 5, 65, 0
7, 25679, Note_on_c, 5, 53, 0
7, 25740, Note_on_c, 5, 55, 79
7, 25740, Note_on_c, 5, 67, 127
7, 25889, Note_on_c, 5, 67, 0
7, 25889, Note_on_c, 5, 55, 0
7, 25980, Note_on_c, 5, 67, 127
7, 26039, Note_on_c, 5, 67, 0
7, 26040, Note_on_c, 5, 70, 127
7, 26099, Note_on_c, 5, 70, 0
7, 26100, Note_on_c, 5, 62, 127
7, 26159, Note_on_c, 5, 62, 0
7, 26160, Note_on_c, 5, 63, 127
7, 26399, Note_on_c, 5, 63, 0
7, 26580, Note_on_c, 5, 53, 79
7, 26580, Note_on_c, 5, 65, 127
7, 26639, Note_on_c, 5, 65, 0
7, 26639, Note_on_c, 5, 53, 0
7, 26700, Note_on_c, 5, 55, 79
7, 26700, Note_on_c, 5, 67, 127
7, 26849, Note_on_c, 5, 67, 0
7, 26849, Note_on_c, 5, 55, 0
7, 26880, Note_on_c, 5, 66, 75
7, 26909, Note_on_c, 5, 66, 0
7, 26910, Note_on_c, 5, 67, 127
7, 26939, Note_on_c, 5, 67, 0
7, 26940, Note_on_c, 5, 67, 127
7, 26999, Note_on_c, 5, 67, 0
7, 27000, Note_on_c, 5, 70, 127
7, 27059, Note_on_c, 5, 70, 0
7, 27060, Note_on_c, 5, 62, 127
7, 27119, Note_on_c, 5, 62, 0
7, 27120, Note_on_c, 5, 63, 127
7, 27359, Note_on_c, 5, 63, 0
7, 27540, Note_on_c, 5, 53, 79
7, 27540, Note_on_c, 5, 65, 127
7, 27599, Note_on_c, 5, 65, 0
7, 27599, Note_on_c, 5, 53, 0
7, 27660, Note_on_c, 5, 55, 79
7, 27660, Note_on_c, 5, 67, 127
7, 27809, Note_on_c, 5, 67, 0
7, 27809, Note_on_c, 5, 55, 0
7, 27840, Note_on_c, 5, 66, 75
7, 27869, Note_on_c, 5, 66, 0
7, 27870, Note_on_c, 5, 67, 127
7, 27899, Note_on_c, 5, 67, 0
7, 27900, Note_on_c, 5, 67, 127
7, 27959, Note_on_c, 5, 67, 0
7, 27960, Note_on_c, 5, 70, 127
7, 28019, Note_on_c, 5, 70, 0
7, 28020, Note_on_c, 5, 62, 127
7, 28079, Note_on_c, 5, 62, 0
7, 28080, Note_on_c, 5, 63, 127
7, 28319, Note_on_c, 5, 63, 0
7, 28500, Note_on_c, 5, 53, 79
7, 28500, Note_on_c, 5, 65, 127
7, 28559, Note_on_c, 5, 65, 0
7, 28559, Note_on_c, 5, 53, 0
7, 28620, Note_on_c, 5, 55, 79
7, 28620, Note_on_c, 5, 67, 127
7, 28769, Note_on_c, 5, 67, 0
7, 28769, Note_on_c, 5, 55, 0
7, 28800, Note_on_c, 5, 66, 75
7, 28829, Note_on_c, 5, 66, 0
7, 28830, Note_on_c, 5, 67, 127
7, 28859, Note_on_c, 5, 67, 0
7, 28860, Note_on_c, 5, 67, 127
7, 28919, Note_on_c, 5, 67, 0
7, 28920, Note_on_c, 5, 70, 127
7, 28979, Note_on_c, 5, 70, 0
7, 28980, Note_on_c, 5, 62, 127
7, 29039, Note_on_c, 5, 62, 0
7, 29040, Note_on_c, 5, 63, 127
7, 29279, Note_on_c, 5, 63, 0
7, 29460, Note_on_c, 5, 53, 79
7, 29460, Note_on_c, 5, 65, 127
7, 29579, Note_on_c, 5, 65, 0
7, 29579, Note_on_c, 5, 53, 0
7, 29580, Note_on_c, 5, 55, 79
7, 29580, Note_on_c, 5, 67, 127
7, 29699, Note_on_c, 5, 67, 0
7, 29699, Note_on_c, 5, 55, 0
7, 29760, Note_on_c, 5, 66, 41
7, 29789, Note_on_c, 5, 66, 0
7, 29790, Note_on_c, 5, 67, 127
7, 30209, Note_on_c, 5, 67, 0
7, 30780, Note_on_c, 5, 67, 127
7, 30839, Note_on_c, 5, 67, 0
7, 30840, Note_on_c, 5, 70, 127
7, 30899, Note_on_c, 5, 70, 0
7, 30900, Note_on_c, 5, 62, 127
7, 30959, Note_on_c, 5, 62, 0
7, 30960, Note_on_c, 5, 63, 127
7, 31199, Note_on_c, 5, 63, 0
7, 31380, Note_on_c, 5, 53, 79
7, 31380, Note_on_c, 5, 65, 127
7, 31439, Note_on_c, 5, 65, 0
7, 31439, Note_on_c, 5, 53, 0
7, 31500, Note_on_c, 5, 55, 79
7, 31500, Note_on_c, 5, 67, 127
7, 31649, Note_on_c, 5, 67, 0
7, 31649, Note_on_c, 5, 55, 0
7, 31740, Note_on_c, 5, 67, 127
7, 31799, Note_on_c, 5, 67, 0
7, 31800, Note_on_c, 5, 70, 127
7, 31859, Note_on_c, 5, 70, 0
7, 31860, Note_on_c, 5, 62, 127
7, 31919, Note_on_c, 5, 62, 0
7, 31920, Note_on_c, 5, 63, 127
7, 32159, Note_on_c, 5, 63, 0
7, 32340, Note_on_c, 5, 53, 80
7, 32340, Note_on_c, 5, 65, 127
7, 32399, Note_on_c, 5, 65, 0
7, 32399, Note_on_c, 5, 53, 0
7, 32460, Note_on_c, 5, 55, 78
7, 32460, Note_on_c, 5, 67, 127
7, 32609, Note_on_c, 5, 67, 0
7, 32609, Note_on_c, 5, 55, 0
7, 32700, Note_on_c, 5, 67, 127
7, 32759, Note_on_c, 5, 67, 0
7, 32760, Note_on_c, 5, 70, 127
7, 32819, Note_on_c, 5, 70, 0
7, 32820, Note_on_c, 5, 62, 127
7, 32879, Note_on_c, 5, 62, 0
7, 32880, Note_on_c, 5, 63, 127
7, 33119, Note_on_c, 5, 63, 0
7, 33300, Note_on_c, 5, 53, 79
7, 33300, Note_on_c, 5, 65, 127
7, 33359, Note_on_c, 5, 65, 0
7, 33359, Note_on_c, 5, 53, 0
7, 33420, Note_on_c, 5, 55, 79
7, 33420, Note_on_c, 5, 67, 127
7, 33569, Note_on_c, 5, 67, 0
7, 33569, Note_on_c, 5, 55, 0
7, 33660, Note_on_c, 5, 67, 127
7, 33719, Note_on_c, 5, 67, 0
7, 33720, Note_on_c, 5, 70, 127
7, 33779, Note_on_c, 5, 70, 0
7, 33780, Note_on_c, 5, 62, 127
7, 33839, Note_on_c, 5, 62, 0
7, 33840, Note_on_c, 5, 63, 127
7, 34079, Note_on_c, 5, 63, 0
7, 34260, Note_on_c, 5, 53, 80
7, 34260, Note_on_c, 5, 65, 127
7, 34319, Note_on_c, 5, 65, 0
7, 34319, Note_on_c, 5, 53, 0
7, 34380, Note_on_c, 5, 55, 78
7, 34380, Note_on_c, 5, 67, 127
7, 34529, Note_on_c, 5, 67, 0
7, 34529, Note_on_c, 5, 55, 0
7, 34560, Note_on_c, 5, 66, 75
7, 34589, Note_on_c, 5, 66, 0
7, 34590, Note_on_c, 5, 67, 127
7, 34619, Note_on_c, 5, 67, 0
7, 34620, Note_on_c, 5, 67, 127
7, 34679, Note_on_c, 5, 67, 0
7, 34680, Note_on_c, 5, 70, 127
7, 34739, Note_on_c, 5, 70, 0
7, 34740, Note_on_c, 5, 62, 127
7, 34799, Note_on_c, 5, 62, 0
7, 34800, Note_on_c, 5, 63, 127
7, 35039, Note_on_c, 5, 63, 0
7, 35220, Note_on_c, 5, 65, 127
7, 35220, Note_on_c, 5, 53, 79
7, 35279, Note_on_c, 5, 53, 0
7, 35279, Note_on_c, 5, 65, 0
7, 35340, Note_on_c, 5, 55, 79
7, 35340, Note_on_c, 5, 67, 127
7, 35489, Note_on_c, 5, 67, 0
7, 35489, Note_on_c, 5, 55, 0
7, 35520, Note_on_c, 5, 66, 75
7, 35549, Note_on_c, 5, 66, 0
7, 35550, Note_on_c, 5, 67, 127
7, 35579, Note_on_c, 5, 67, 0
7, 35580, Note_on_c, 5, 67, 127
7, 35639, Note_on_c, 5, 67, 0
7, 35640, Note_on_c, 5, 70, 127
7, 35699, Note_on_c, 5, 70, 0
7, 35700, Note_on_c, 5, 62, 127
7, 35759, Note_on_c, 5, 62, 0
7, 35760, Note_on_c, 5, 63, 127
7, 35999, Note_on_c, 5, 63, 0
7, 36180, Note_on_c, 5, 53, 79
7, 36180, Note_on_c, 5, 65, 127
7, 36239, Note_on_c, 5, 65, 0
7, 36239, Note_on_c, 5, 53, 0
7, 36300, Note_on_c, 5, 55, 79
7, 36300, Note_on_c, 5, 67, 127
7, 36449, Note_on_c, 5, 67, 0
7, 36449, Note_on_c, 5, 55, 0
7, 36480, Note_on_c, 5, 66, 75
7, 36509, Note_on_c, 5, 66, 0
7, 36510, Note_on_c, 5, 67, 127
7, 36539, Note_on_c, 5, 67, 0
7, 36540, Note_on_c, 5, 67, 127
7, 36599, Note_on_c, 5, 67, 0
7, 36600, Note_on_c, 5, 70, 127
7, 36659, Note_on_c, 5, 70, 0
7, 36660, Note_on_c, 5, 62, 127
7, 36719, Note_on_c, 5, 62, 0
7, 36720, Note_on_c, 5, 63, 127
7, 36959, Note_on_c, 5, 63, 0
7, 37140, Note_on_c, 5, 65, 127
7, 37140, Note_on_c, 5, 53, 79
7, 37199, Note_on_c, 5, 53, 0
7, 37199, Note_on_c, 5, 65, 0
7, 37260, Note_on_c, 5, 55, 79
7, 37260, Note_on_c, 5, 67, 127
7, 37409, Note_on_c, 5, 67, 0
7, 37409, Note_on_c, 5, 55, 0
7, 37440, Note_on_c, 5, 66, 75
7, 37469, Note_on_c, 5, 66, 0
7, 37470, Note_on_c, 5, 67, 127
7, 37499, Note_on_c, 5, 67, 0
7, 37500, Note_on_c, 5, 67, 127
7, 37559, Note_on_c, 5, 67, 0
7, 37560, Note_on_c, 5, 70, 127
7, 37619, Note_on_c, 5, 70, 0
7, 37620, Note_on_c, 5, 62, 127
7, 37679, Note_on_c, 5, 62, 0
7, 37680, Note_on_c, 5, 63, 127
7, 37919, Note_on_c, 5, 63, 0
7, 38100, Note_on_c, 5, 53, 79
7, 38100, Note_on_c, 5, 65, 127
7, 38159, Note_on_c, 5, 65, 0
7, 38159, Note_on_c, 5, 53, 0
7, 38220, Note_on_c, 5, 55, 79
7, 38220, Note_on_c, 5, 67, 127
7, 38369, Note_on_c, 5, 67, 0
7, 38369, Note_on_c, 5, 55, 0
7, 38400, Note_on_c, 5, 66, 75
7, 38429, Note_on_c, 5, 66, 0
7, 38430, Note_on_c, 5, 67, 127
7, 38459, Note_on_c, 5, 67, 0
7, 38460, Note_on_c, 5, 67, 127
7, 38519, Note_on_c, 5, 67, 0
7, 38520, Note_on_c, 5, 70, 127
7, 38579, Note_on_c, 5, 70, 0
7, 38580, Note_on_c, 5, 62, 127
7, 38639, Note_on_c, 5, 62, 0
7, 38640, Note_on_c, 5, 63, 127
7, 38879, Note_on_c, 5, 63, 0
7, 39060, Note_on_c, 5, 65, 127
7, 39060, Note_on_c, 5, 53, 79
7, 39119, Note_on_c, 5, 53, 0
7, 39119, Note_on_c, 5, 65, 0
7, 39180, Note_on_c, 5, 55, 79
7, 39180, Note_on_c, 5, 67, 127
7, 39329, Note_on_c, 5, 67, 0
7, 39329, Note_on_c, 5, 55, 0
7, 39360, Note_on_c, 5, 66, 75
7, 39389, Note_on_c, 5, 66, 0
7, 39390, Note_on_c, 5, 67, 127
7, 39419, Note_on_c, 5, 67, 0
7, 39420, Note_on_c, 5, 67, 127
7, 39479, Note_on_c, 5, 67, 0
7, 39480, Note_on_c, 5, 70, 127
7, 39539, Note_on_c, 5, 70, 0
7, 39540, Note_on_c, 5, 62, 127
7, 39599, Note_on_c, 5, 62, 0
7, 39600, Note_on_c, 5, 63, 127
7, 39839, Note_on_c, 5, 63, 0
7, 40020, Note_on_c, 5, 53, 79
7, 40020, Note_on_c, 5, 65, 127
7, 40079, Note_on_c, 5, 65, 0
7, 40079, Note_on_c, 5, 53, 0
7, 40140, Note_on_c, 5, 55, 79
7, 40140, Note_on_c, 5, 67, 127
7, 40289, Note_on_c, 5, 67, 0
7, 40289, Note_on_c, 5, 55, 0
7, 40320, Note_on_c, 5, 66, 75
7, 40349, Note_on_c, 5, 66, 0
7, 40350, Note_on_c, 5, 67, 127
7, 40379, Note_on_c, 5, 67, 0
7, 40380, Note_on_c, 5, 67, 127
7, 40439, Note_on_c, 5, 67, 0
7, 40440, Note_on_c, 5, 70, 127
7, 40499, Note_on_c, 5, 70, 0
7, 40500, Note_on_c, 5, 62, 127
7, 40559, Note_on_c, 5, 62, 0
7, 40560, Note_on_c, 5, 63, 127
7, 40799, Note_on_c, 5, 63, 0
7, 40980, Note_on_c, 5, 65, 127
7, 40980, Note_on_c, 5, 53, 79
7, 41039, Note_on_c, 5, 53, 0
7, 41039, Note_on_c, 5, 65, 0
7, 41100, Note_on_c, 5, 55, 79
7, 41100, Note_on_c, 5, 67, 127
7, 41249, Note_on_c, 5, 67, 0
7, 41249, Note_on_c, 5, 55, 0
7, 41280, Note_on_c, 5, 66, 75
7, 41309, Note_on_c, 5, 66, 0
7, 41310, Note_on_c, 5, 67, 127
7, 41339, Note_on_c, 5, 67, 0
7, 41340, Note_on_c, 5, 67, 127
7, 41399, Note_on_c, 5, 67, 0
7, 41400, Note_on_c, 5, 70, 127
7, 41459, Note_on_c, 5, 70, 0
7, 41460, Note_on_c, 5, 62, 127
7, 41519, Note_on_c, 5, 62, 0
7, 41520, Note_on_c, 5, 63, 127
7, 41759, Note_on_c, 5, 63, 0
7, 41940, Note_on_c, 5, 53, 79
7, 41940, Note_on_c, 5, 65, 127
7, 41999, Note_on_c, 5, 65, 0
7, 41999, Note_on_c, 5, 53, 0
7, 42060, Note_on_c, 5, 55, 79
7, 42060, Note_on_c, 5, 67, 127
7, 42209, Note_on_c, 5, 67, 0
7, 42209, Note_on_c, 5, 55, 0
7, 42240, Note_on_c, 5, 66, 75
7, 42269, Note_on_c, 5, 66, 0
7, 42270, Note_on_c, 5, 67, 127
7, 42299, Note_on_c, 5, 67, 0
7, 42300, Note_on_c, 5, 67, 127
7, 42359, Note_on_c, 5, 67, 0
7, 42360, Note_on_c, 5, 70, 127
7, 42419, Note_on_c, 5, 70, 0
7, 42420, Note_on_c, 5, 62, 127
7, 42479, Note_on_c, 5, 62, 0
7, 42480, Note_on_c, 5, 63, 127
7, 42719, Note_on_c, 5, 63, 0
7, 42900, Note_on_c, 5, 65, 127
7, 42900, Note_on_c, 5, 53, 79
7, 42959, Note_on_c, 5, 53, 0
7, 42959, Note_on_c, 5, 65, 0
7, 43020, Note_on_c, 5, 55, 79
7, 43020, Note_on_c, 5, 67, 127
7, 43169, Note_on_c, 5, 67, 0
7, 43169, Note_on_c, 5, 55, 0
7, 43200, Note_on_c, 5, 66, 75
7, 43229, Note_on_c, 5, 66, 0
7, 43230, Note_on_c, 5, 67, 127
7, 43259, Note_on_c, 5, 67, 0
7, 43260, Note_on_c, 5, 67, 127
7, 43319, Note_on_c, 5, 67, 0
7, 43320, Note_on_c, 5, 70, 127
7, 43379, Note_on_c, 5, 70, 0
7, 43380, Note_on_c, 5, 62, 127
7, 43439, Note_on_c, 5, 62, 0
7, 43440, Note_on_c, 5, 63, 127
7, 43679, Note_on_c, 5, 63, 0
7, 43860, Note_on_c, 5, 53, 79
7, 43860, Note_on_c, 5, 65, 127
7, 43919, Note_on_c, 5, 65, 0
7, 43919, Note_on_c, 5, 53, 0
7, 43980, Note_on_c, 5, 55, 79
7, 43980, Note_on_c, 5, 67, 127
7, 44129, Note_on_c, 5, 67, 0
7, 44129, Note_on_c, 5, 55, 0
7, 44160, Note_on_c, 5, 66, 75
7, 44189, Note_on_c, 5, 66, 0
7, 44190, Note_on_c, 5, 67, 127
7, 44219, Note_on_c, 5, 67, 0
7, 44220, Note_on_c, 5, 67, 127
7, 44279, Note_on_c, 5, 67, 0
7, 44280, Note_on_c, 5, 70, 127
7, 44339, Note_on_c, 5, 70, 0
7, 44340, Note_on_c, 5, 62, 127
7, 44399, Note_on_c, 5, 62, 0
7, 44400, Note_on_c, 5, 63, 127
7, 44639, Note_on_c, 5, 63, 0
7, 44820, Note_on_c, 5, 65, 127
7, 44820, Note_on_c, 5, 53, 79
7, 44879, Note_on_c, 5, 53, 0
7, 44879, Note_on_c, 5, 65, 0
7, 44940, Note_on_c, 5, 55, 79
7, 44940, Note_on_c, 5, 67, 127
7, 45089, Note_on_c, 5, 67, 0
7, 45089, Note_on_c, 5, 55, 0
7, 45120, Note_on_c, 5, 66, 75
7, 45149, Note_on_c, 5, 66, 0
7, 45150, Note_on_c, 5, 67, 127
7, 45179, Note_on_c, 5, 67, 0
7, 45180, Note_on_c, 5, 67, 127
7, 45239, Note_on_c, 5, 67, 0
7, 45240, Note_on_c, 5, 70, 127
7, 45299, Note_on_c, 5, 70, 0
7, 45300, Note_on_c, 5, 62, 127
7, 45359, Note_on_c, 5, 62, 0
7, 45360, Note_on_c, 5, 63, 127
7, 45599, Note_on_c, 5, 63, 0
7, 45780, Note_on_c, 5, 53, 79
7, 45780, Note_on_c, 5, 65, 127
7, 45839, Note_on_c, 5, 65, 0
7, 45839, Note_on_c, 5, 53, 0
7, 45900, Note_on_c, 5, 55, 79
7, 45900, Note_on_c, 5, 67, 127
7, 46049, Note_on_c, 5, 67, 0
7, 46049, Note_on_c, 5, 55, 0
7, 46080, Note_on_c, 5, 66, 75
7, 46109, Note_on_c, 5, 66, 0
7, 46110, Note_on_c, 5, 67, 127
7, 46139, Note_on_c, 5, 67, 0
7, 46140, Note_on_c, 5, 67, 127
7, 46199, Note_on_c, 5, 67, 0
7, 46200, Note_on_c, 5, 70, 127
7, 46259, Note_on_c, 5, 70, 0
7, 46260, Note_on_c, 5, 62, 127
7, 46319, Note_on_c, 5, 62, 0
7, 46320, Note_on_c, 5, 63, 127
7, 46559, Note_on_c, 5, 63, 0
7, 46740, Note_on_c, 5, 65, 127
7, 46740, Note_on_c, 5, 53, 79
7, 46799, Note_on_c, 5, 53, 0
7, 46799, Note_on_c, 5, 65, 0
7, 46860, Note_on_c, 5, 55, 79
7, 46860, Note_on_c, 5, 67, 127
7, 47009, Note_on_c, 5, 67, 0
7, 47009, Note_on_c, 5, 55, 0
7, 47040, Note_on_c, 5, 66, 75
7, 47069, Note_on_c, 5, 66, 0
7, 47070, Note_on_c, 5, 67, 127
7, 47099, Note_on_c, 5, 67, 0
7, 47100, Note_on_c, 5, 67, 127
7, 47159, Note_on_c, 5, 67, 0
7, 47160, Note_on_c, 5, 70, 127
7, 47219, Note_on_c, 5, 70, 0
7, 47220, Note_on_c, 5, 62, 127
7, 47279, Note_on_c, 5, 62, 0
7, 47280, Note_on_c, 5, 63, 127
7, 47519, Note_on_c, 5, 63, 0
7, 47700, Note_on_c, 5, 53, 79
7, 47700, Note_on_c, 5, 65, 127
7, 47759, Note_on_c, 5, 65, 0
7, 47759, Note_on_c, 5, 53, 0
7, 47820, Note_on_c, 5, 55, 79
7, 47820, Note_on_c, 5, 67, 127
7, 47969, Note_on_c, 5, 67, 0
7, 47969, Note_on_c, 5, 55, 0
7, 48000, Note_on_c, 5, 66, 75
7, 48029, Note_on_c, 5, 66, 0
7, 48030, Note_on_c, 5, 67, 127
7, 48059, Note_on_c, 5, 67, 0
7, 48060, Note_on_c, 5, 67, 127
7, 48119, Note_on_c, 5, 67, 0
7, 48120, Note_on_c, 5, 70, 127
7, 48179, Note_on_c, 5, 70, 0
7, 48180, Note_on_c, 5, 62, 127
7, 48239, Note_on_c, 5, 62, 0
7, 48240, Note_on_c, 5, 63, 127
7, 48479, Note_on_c, 5, 63, 0
7, 48660, Note_on_c, 5, 65, 127
7, 48660, Note_on_c, 5, 53, 79
7, 48719, Note_on_c, 5, 53, 0
7, 48719, Note_on_c, 5, 65, 0
7, 48780, Note_on_c, 5, 55, 79
7, 48780, Note_on_c, 5, 67, 127
7, 48929, Note_on_c, 5, 67, 0
7, 48929, Note_on_c, 5, 55, 0
7, 48960, Note_on_c, 5, 66, 75
7, 48989, Note_on_c, 5, 66, 0
7, 48990, Note_on_c, 5, 67, 127
7, 49019, Note_on_c, 5, 67, 0
7, 49020, Note_on_c, 5, 67, 127
7, 49079, Note_on_c, 5, 67, 0
7, 49080, Note_on_c, 5, 70, 127
7, 49139, Note_on_c, 5, 70, 0
7, 49140, Note_on_c, 5, 62, 127
7, 49199, Note_on_c, 5, 62, 0
7, 49200, Note_on_c, 5, 63, 127
7, 49439, Note_on_c, 5, 63, 0
7, 49620, Note_on_c, 5, 53, 79
7, 49620, Note_on_c, 5, 65, 127
7, 49679, Note_on_c, 5, 65, 0
7, 49679, Note_on_c, 5, 53, 0
7, 49740, Note_on_c, 5, 55, 79
7, 49740, Note_on_c, 5, 67, 127
7, 49889, Note_on_c, 5, 67, 0
7, 49889, Note_on_c, 5, 55, 0
7, 49920, Note_on_c, 5, 66, 75
7, 49949, Note_on_c, 5, 66, 0
7, 49950, Note_on_c, 5, 67, 127
7, 49979, Note_on_c, 5, 67, 0
7, 49980, Note_on_c, 5, 67, 127
7, 50039, Note_on_c, 5, 67, 0
7, 50040, Note_on_c, 5, 70, 127
7, 50099, Note_on_c, 5, 70, 0
7, 50100, Note_on_c, 5, 62, 127
7, 50159, Note_on_c, 5, 62, 0
7, 50160, Note_on_c, 5, 63, 127
7, 50399, Note_on_c, 5, 63, 0
7, 50580, Note_on_c, 5, 65, 127
7, 50580, Note_on_c, 5, 53, 79
7, 50639, Note_on_c, 5, 53, 0
7, 50639, Note_on_c, 5, 65, 0
7, 50700, Note_on_c, 5, 55, 79
7, 50700, Note_on_c, 5, 67, 127
7, 50849, Note_on_c, 5, 67, 0
7, 50849, Note_on_c, 5, 55, 0
7, 50880, Note_on_c, 5, 66, 75
7, 50909, Note_on_c, 5, 66, 0
7, 50910, Note_on_c, 5, 67, 127
7, 50939, Note_on_c, 5, 67, 0
7, 50940, Note_on_c, 5, 67, 127
7, 50999, Note_on_c, 5, 67, 0
7, 51000, Note_on_c, 5, 70, 127
7, 51059, Note_on_c, 5, 70, 0
7, 51060, Note_on_c, 5, 62, 127
7, 51119, Note_on_c, 5, 62, 0
7, 51120, Note_on_c, 5, 63, 127
7, 51359, Note_on_c, 5, 63, 0
7, 51540, Note_on_c, 5, 53, 79
7, 51540, Note_on_c, 5, 65, 127
7, 51599, Note_on_c, 5, 65, 0
7, 51599, Note_on_c, 5, 53, 0
7, 51660, Note_on_c, 5, 55, 79
7, 51660, Note_on_c, 5, 67, 127
7, 51809, Note_on_c, 5, 67, 0
7, 51809, Note_on_c, 5, 55, 0
7, 51840, Note_on_c, 5, 66, 75
7, 51869, Note_on_c, 5, 66, 0
7, 51870, Note_on_c, 5, 67, 127
7, 51899, Note_on_c, 5, 67, 0
7, 51900, Note_on_c, 5, 67, 127
7, 51959, Note_on_c, 5, 67, 0
7, 51960, Note_on_c, 5, 70, 127
7, 52019, Note_on_c, 5, 70, 0
7, 52020, Note_on_c, 5, 62, 127
7, 52079, Note_on_c, 5, 62, 0
7, 52080, Note_on_c, 5, 63, 127
7, 52319, Note_on_c, 5, 63, 0
7, 52500, Note_on_c, 5, 65, 127
7, 52500, Note_on_c, 5, 53, 79
7, 52559, Note_on_c, 5, 53, 0
7, 52559, Note_on_c, 5, 65, 0
7, 52620, Note_on_c, 5, 55, 79
7, 52620, Note_on_c, 5, 67, 127
7, 52769, Note_on_c, 5, 67, 0
7, 52769, Note_on_c, 5, 55, 0
7, 52800, Note_on_c, 5, 66, 75
7, 52829, Note_on_c, 5, 66, 0
7, 52830, Note_on_c, 5, 67, 127
7, 52859, Note_on_c, 5, 67, 0
7, 52860, Note_on_c, 5, 67, 127
7, 52919, Note_on_c, 5, 67, 0
7, 52920, Note_on_c, 5, 70, 127
7, 52979, Note_on_c, 5, 70, 0
7, 52980, Note_on_c, 5, 62, 127
7, 53039, Note_on_c, 5, 62, 0
7, 53040, Note_on_c, 5, 63, 127
7, 53279, Note_on_c, 5, 63, 0
7, 53460, Note_on_c, 5, 53, 79
7, 53460, Note_on_c, 5, 65, 127
7, 53519, Note_on_c, 5, 65, 0
7, 53519, Note_on_c, 5, 53, 0
7, 53580, Note_on_c, 5, 55, 79
7, 53580, Note_on_c, 5, 67, 127
7, 53729, Note_on_c, 5, 67, 0
7, 53729, Note_on_c, 5, 55, 0
7, 53760, Note_on_c, 5, 66, 75
7, 53789, Note_on_c, 5, 66, 0
7, 53790, Note_on_c, 5, 67, 127
7, 53819, Note_on_c, 5, 67, 0
7, 53820, Note_on_c, 5, 67, 127
7, 53879, Note_on_c, 5, 67, 0
7, 53880, Note_on_c, 5, 70, 127
7, 53939, Note_on_c, 5, 70, 0
7, 53940, Note_on_c, 5, 62, 127
7, 53999, Note_on_c, 5, 62, 0
7, 54000, Note_on_c, 5, 63, 127
7, 54239, Note_on_c, 5, 63, 0
7, 54420, Note_on_c, 5, 65, 127
7, 54420, Note_on_c, 5, 53, 79
7, 54479, Note_on_c, 5, 53, 0
7, 54479, Note_on_c, 5, 65, 0
7, 54540, Note_on_c, 5, 55, 79
7, 54540, Note_on_c, 5, 67, 127
7, 54689, Note_on_c, 5, 67, 0
7, 54689, Note_on_c, 5, 55, 0
7, 54720, Note_on_c, 5, 66, 75
7, 54749, Note_on_c, 5, 66, 0
7, 54750, Note_on_c, 5, 67, 127
7, 54779, Note_on_c, 5, 67, 0
7, 54780, Note_on_c, 5, 67, 127
7, 54839, Note_on_c, 5, 67, 0
7, 54840, Note_on_c, 5, 70, 127
7, 54899, Note_on_c, 5, 70, 0
7, 54900, Note_on_c, 5, 62, 127
7, 54959, Note_on_c, 5, 62, 0
7, 54960, Note_on_c, 5, 63, 127
7, 55199, Note_on_c, 5, 63, 0
7, 55380, Note_on_c, 5, 53, 79
7, 55380, Note_on_c, 5, 65, 127
7, 55439, Note_on_c, 5, 65, 0
7, 55439, Note_on_c, 5, 53, 0
7, 55500, Note_on_c, 5, 55, 79
7, 55500, Note_on_c, 5, 67, 127
7, 55649, Note_on_c, 5, 67, 0
7, 55649, Note_on_c, 5, 55, 0
7, 55680, Note_on_c, 5, 66, 75
7, 55709, Note_on_c, 5, 66, 0
7, 55710, Note_on_c, 5, 67, 127
7, 55739, Note_on_c, 5, 67, 0
7, 55740, Note_on_c, 5, 67, 127
7, 55799, Note_on_c, 5, 67, 0
7, 55800, Note_on_c, 5, 70, 127
7, 55859, Note_on_c, 5, 70, 0
7, 55860, Note_on_c, 5, 62, 127
7, 55919, Note_on_c, 5, 62, 0
7, 55920, Note_on_c, 5, 63, 127
7, 56159, Note_on_c, 5, 63, 0
7, 56340, Note_on_c, 5, 65, 127
7, 56340, Note_on_c, 5, 53, 79
7, 56399, Note_on_c, 5, 53, 0
7, 56399, Note_on_c, 5, 65, 0
7, 56460, Note_on_c, 5, 55, 79
7, 56460, Note_on_c, 5, 67, 127
7, 56609, Note_on_c, 5, 67, 0
7, 56609, Note_on_c, 5, 55, 0
7, 56640, Note_on_c, 5, 66, 75
7, 56669, Note_on_c, 5, 66, 0
7, 56670, Note_on_c, 5, 67, 127
7, 56699, Note_on_c, 5, 67, 0
7, 56700, Note_on_c, 5, 67, 127
7, 56759, Note_on_c, 5, 67, 0
7, 56760, Note_on_c, 5, 70, 127
7, 56819, Note_on_c, 5, 70, 0
7, 56820, Note_on_c, 5, 62, 127
7, 56879, Note_on_c, 5, 62, 0
7, 56880, Note_on_c, 5, 63, 127
7, 57119, Note_on_c, 5, 63, 0
7, 57300, Note_on_c, 5, 53, 79
7, 57300, Note_on_c, 5, 65, 127
7, 57359, Note_on_c, 5, 65, 0
7, 57359, Note_on_c, 5, 53, 0
7, 57420, Note_on_c, 5, 55, 79
7, 57420, Note_on_c, 5, 67, 127
7, 57569, Note_on_c, 5, 67, 0
7, 57569, Note_on_c, 5, 55, 0
7, 57660, Note_on_c, 5, 67, 127
7, 57719, Note_on_c, 5, 67, 0
7, 57720, Note_on_c, 5, 70, 127
7, 57779, Note_on_c, 5, 70, 0
7, 57780, Note_on_c, 5, 62, 127
7, 57839, Note_on_c, 5, 62, 0
7, 57840, Note_on_c, 5, 63, 127
7, 58079, Note_on_c, 5, 63, 0
7, 58260, Note_on_c, 5, 53, 79
7, 58260, Note_on_c, 5, 65, 127
7, 58319, Note_on_c, 5, 65, 0
7, 58319, Note_on_c, 5, 53, 0
7, 58380, Note_on_c, 5, 55, 79
7, 58380, Note_on_c, 5, 67, 127
7, 58529, Note_on_c, 5, 67, 0
7, 58529, Note_on_c, 5, 55, 0
7, 58620, Note_on_c, 5, 67, 127
7, 58679, Note_on_c, 5, 67, 0
7, 58680, Note_on_c, 5, 70, 127
7, 58739, Note_on_c, 5, 70, 0
7, 58740, Note_on_c, 5, 62, 127
7, 58799, Note_on_c, 5, 62, 0
7, 58800, Note_on_c, 5, 63, 127
7, 59039, Note_on_c, 5, 63, 0
7, 59040, Control_c, 5, 7, 80
7, 59075, Control_c, 5, 7, 79
7, 59111, Control_c, 5, 7, 78
7, 59147, Control_c, 5, 7, 77
7, 59183, Control_c, 5, 7, 76
7, 59219, Control_c, 5, 7, 75
7, 59220, Note_on_c, 5, 53, 80
7, 59220, Note_on_c, 5, 65, 127
7, 59255, Control_c, 5, 7, 74
7, 59279, Note_on_c, 5, 65, 0
7, 59279, Note_on_c, 5, 53, 0
7, 59291, Control_c, 5, 7, 73
7, 59327, Control_c, 5, 7, 72
7, 59340, Note_on_c, 5, 55, 78
7, 59340, Note_on_c, 5, 67, 127
7, 59363, Control_c, 5, 7, 71
7, 59399, Control_c, 5, 7, 70
7, 59435, Control_c, 5, 7, 69
7, 59471, Control_c, 5, 7, 68
7, 59489, Note_on_c, 5, 67, 0
7, 59489, Note_on_c, 5, 55, 0
7, 59507, Control_c, 5, 7, 67
7, 59543, Control_c, 5, 7, 66
7, 59579, Control_c, 5, 7, 65
7, 59580, Note_on_c, 5, 67, 127
7, 59615, Control_c, 5, 7, 64
7, 59639, Note_on_c, 5, 67, 0
7, 59640, Note_on_c, 5, 70, 127
7, 59651, Control_c, 5, 7, 63
7, 59687, Control_c, 5, 7, 62
7, 59699, Note_on_c, 5, 70, 0
7, 59700, Note_on_c, 5, 62, 127
7, 59723, Control_c, 5, 7, 61
7, 59759, Note_on_c, 5, 62, 0
7, 59759, Control_c, 5, 7, 60
7, 59760, Note_on_c, 5, 63, 127
7, 59795, Control_c, 5, 7, 59
7, 59831, Control_c, 5, 7, 58
7, 59867, Control_c, 5, 7, 57
7, 59903, Control_c, 5, 7, 56
7, 59939, Control_c, 5, 7, 55
7, 59975, Control_c, 5, 7, 54
7, 59999, Note_on_c, 5, 63, 0
7, 60011, Control_c, 5, 7, 53
7, 60047, Control_c, 5, 7, 52
7, 60083, Control_c, 5, 7, 51
7, 60119, Control_c, 5, 7, 50
7, 60155, Control_c, 5, 7, 49
7, 60180, Note_on_c, 5, 53, 79
7, 60180, Note_on_c, 5, 65, 127
7, 60191, Control_c, 5, 7, 48
7, 60227, Control_c, 5, 7, 47
7, 60239, Note_on_c, 5, 65, 0
7, 60239, Note_on_c, 5, 53, 0
7, 60263, Control_c, 5, 7, 46
7, 60299, Control_c, 5, 7, 45
7, 60300, Note_on_c, 5, 55, 79
7, 60300, Note_on_c, 5, 67, 127
7, 60335, Control_c, 5, 7, 44
7, 60371, Control_c, 5, 7, 43
7, 60407, Control_c, 5, 7, 42
7, 60443, Control_c, 5, 7, 41
7, 60449, Note_on_c, 5, 67, 0
7, 60449, Note_on_c, 5, 55, 0
7, 60479, Control_c, 5, 7, 40
7, 60515, Control_c, 5, 7, 39
7, 60540, Note_on_c, 5, 67, 127
7, 60551, Control_c, 5, 7, 38
7, 60587, Control_c, 5, 7, 37
7, 60599, Note_on_c, 5, 67, 0
7, 60600, Note_on_c, 5, 70, 127
7, 60623, Control_c, 5, 7, 36
7, 60659, Note_on_c, 5, 70, 0
7, 60659, Control_c, 5, 7, 35
7, 60660, Note_on_c, 5, 62, 127
7, 60695, Control_c, 5, 7, 34
7, 60719, Note_on_c, 5, 62, 0
7, 60720, Note_on_c, 5, 63, 127
7, 60731, Control_c, 5, 7, 33
7, 60767, Control_c, 5, 7, 32
7, 60803, Control_c, 5, 7, 31
7, 60839, Control_c, 5, 7, 30
7, 60875, Control_c, 5, 7, 29
7, 60911, Control_c, 5, 7, 28
7, 60947, Control_c, 5, 7, 27
7, 60959, Note_on_c, 5, 63, 0
7, 60983, Control_c, 5, 7, 26
7, 61019, Control_c, 5, 7, 25
7, 61055, Control_c, 5, 7, 24
7, 61091, Control_c, 5, 7, 23
7, 61127, Control_c, 5, 7, 22
7, 61140, Note_on_c, 5, 53, 80
7, 61140, Note_on_c, 5, 65, 127
7, 61163, Control_c, 5, 7, 21
7, 61199, Note_on_c, 5, 65, 0
7, 61199, Note_on_c, 5, 53, 0
7, 61199, Control_c, 5, 7, 20
7, 61235, Control_c, 5, 7, 19
7, 61260, Note_on_c, 5, 55, 78
7, 61260, Note_on_c, 5, 67, 127
7, 61271, Control_c, 5, 7, 18
7, 61307, Control_c, 5, 7, 17
7, 61343, Control_c, 5, 7, 16
7, 61379, Control_c, 5, 7, 15
7, 61409, Note_on_c, 5, 67, 0
7, 61409, Note_on_c, 5, 55, 0
7, 61415, Control_c, 5, 7, 14
7, 61451, Control_c, 5, 7, 13
7, 61487, Control_c, 5, 7, 12
7, 61523, Control_c, 5, 7, 11
7, 61559, Control_c, 5, 7, 10
7, 61595, Control_c, 5, 7, 9
7, 61631, Control_c, 5, 7, 8
7, 61667, Control_c, 5, 7, 7
7, 61703, Control_c, 5, 7, 6
7, 61739, Control_c, 5, 7, 5
7, 61775, Control_c, 5, 7, 4
7, 61811, Control_c, 5, 7, 3
7, 61847, Control_c, 5, 7, 2
7, 61883, Control_c, 5, 7, 1
7, 61919, Control_c, 5, 7, 0
7, 61919, End_track
8, 0, Start_track
8, 0, MIDI_port, 0
8, 0, Title_t, "atyrrell17@netscapeonline.co.uk"
8, 0, Program_c, 6, 41
8, 0, Control_c, 6, 7, 100
8, 0, Control_c, 6, 10, 63
8, 59040, Control_c, 6, 7, 80
8, 59075, Control_c, 6, 7, 79
8, 59111, Control_c, 6, 7, 78
8, 59147, Control_c, 6, 7, 77
8, 59183, Control_c, 6, 7, 76
8, 59219, Control_c, 6, 7, 75
8, 59255, Control_c, 6, 7, 74
8, 59291, Control_c, 6, 7, 73
8, 59327, Control_c, 6, 7, 72
8, 59363, Control_c, 6, 7, 71
8, 59399, Control_c, 6, 7, 70
8, 59435, Control_c, 6, 7, 69
8, 59471, Control_c, 6, 7, 68
8, 59507, Control_c, 6, 7, 67
8, 59543, Control_c, 6, 7, 66
8, 59579, Control_c, 6, 7, 65
8, 59615, Control_c, 6, 7, 64
8, 59651, Control_c, 6, 7, 63
8, 59687, Control_c, 6, 7, 62
8, 59723, Control_c, 6, 7, 61
8, 59759, Control_c, 6, 7, 60
8, 59795, Control_c, 6, 7, 59
8, 59831, Control_c, 6, 7, 58
8, 59867, Control_c, 6, 7, 57
8, 59903, Control_c, 6, 7, 56
8, 59939, Control_c, 6, 7, 55
8, 59975, Control_c, 6, 7, 54
8, 60011, Control_c, 6, 7, 53
8, 60047, Control_c, 6, 7, 52
8, 60083, Control_c, 6, 7, 51
8, 60119, Control_c, 6, 7, 50
8, 60155, Control_c, 6, 7, 49
8, 60191, Control_c, 6, 7, 48
8, 60227, Control_c, 6, 7, 47
8, 60263, Control_c, 6, 7, 46
8, 60299, Control_c, 6, 7, 45
8, 60335, Control_c, 6, 7, 44
8, 60371, Control_c, 6, 7, 43
8, 60407, Control_c, 6, 7, 42
8, 60443, Control_c, 6, 7, 41
8, 60479, Control_c, 6, 7, 40
8, 60515, Control_c, 6, 7, 39
8, 60551, Control_c, 6, 7, 38
8, 60587, Control_c, 6, 7, 37
8, 60623, Control_c, 6, 7, 36
8, 60659, Control_c, 6, 7, 35
8, 60695, Control_c, 6, 7, 34
8, 60731, Control_c, 6, 7, 33
8, 60767, Control_c, 6, 7, 32
8, 60803, Control_c, 6, 7, 31
8, 60839, Control_c, 6, 7, 30
8, 60875, Control_c, 6, 7, 29
8, 60911, Control_c, 6, 7, 28
8, 60947, Control_c, 6, 7, 27
8, 60983, Control_c, 6, 7, 26
8, 61019, Control_c, 6, 7, 25
8, 61055, Control_c, 6, 7, 24
8, 61091, Control_c, 6, 7, 23
8, 61127, Control_c, 6, 7, 22
8, 61163, Control_c, 6, 7, 21
8, 61199, Control_c, 6, 7, 20
8, 61235, Control_c, 6, 7, 19
8, 61271, Control_c, 6, 7, 18
8, 61307, Control_c, 6, 7, 17
8, 61343, Control_c, 6, 7, 16
8, 61379, Control_c, 6, 7, 15
8, 61415, Control_c, 6, 7, 14
8, 61451, Control_c, 6, 7, 13
8, 61487, Control_c, 6, 7, 12
8, 61523, Control_c, 6, 7, 11
8, 61559, Control_c, 6, 7, 10
8, 61595, Control_c, 6, 7, 9
8, 61631, Control_c, 6, 7, 8
8, 61667, Control_c, 6, 7, 7
8, 61703, Control_c, 6, 7, 6
8, 61739, Control_c, 6, 7, 5
8, 61775, Control_c, 6, 7, 4
8, 61811, Control_c, 6, 7, 3
8, 61847, Control_c, 6, 7, 2
8, 61883, Control_c, 6, 7, 1
8, 61919, Control_c, 6, 7, 0
8, 61919, End_track
9, 0, Start_track
9, 0, MIDI_port, 0
9, 0, Title_t, "EXCLUSIVE"
9, 0, Program_c, 7, 40
9, 0, Control_c, 7, 7, 100
9, 0, Control_c, 7, 10, 63
9, 59040, Control_c, 7, 7, 80
9, 59075, Control_c, 7, 7, 79
9, 59111, Control_c, 7, 7, 78
9, 59147, Control_c, 7, 7, 77
9, 59183, Control_c, 7, 7, 76
9, 59219, Control_c, 7, 7, 75
9, 59255, Control_c, 7, 7, 74
9, 59291, Control_c, 7, 7, 73
9, 59327, Control_c, 7, 7, 72
9, 59363, Control_c, 7, 7, 71
9, 59399, Control_c, 7, 7, 70
9, 59435, Control_c, 7, 7, 69
9, 59471, Control_c, 7, 7, 68
9, 59507, Control_c, 7, 7, 67
9, 59543, Control_c, 7, 7, 66
9, 59579, Control_c, 7, 7, 65
9, 59615, Control_c, 7, 7, 64
9, 59651, Control_c, 7, 7, 63
9, 59687, Control_c, 7, 7, 62
9, 59723, Control_c, 7, 7, 61
9, 59759, Control_c, 7, 7, 60
9, 59795, Control_c, 7, 7, 59
9, 59831, Control_c, 7, 7, 58
9, 59867, Control_c, 7, 7, 57
9, 59903, Control_c, 7, 7, 56
9, 59939, Control_c, 7, 7, 55
9, 59975, Control_c, 7, 7, 54
9, 60011, Control_c, 7, 7, 53
9, 60047, Control_c, 7, 7, 52
9, 60083, Control_c, 7, 7, 51
9, 60119, Control_c, 7, 7, 50
9, 60155, Control_c, 7, 7, 49
9, 60191, Control_c, 7, 7, 48
9, 60227, Control_c, 7, 7, 47
9, 60263, Control_c, 7, 7, 46
9, 60299, Control_c, 7, 7, 45
9, 60335, Control_c, 7, 7, 44
9, 60371, Control_c, 7, 7, 43
9, 60407, Control_c, 7, 7, 42
9, 60443, Control_c, 7, 7, 41
9, 60479, Control_c, 7, 7, 40
9, 60515, Control_c, 7, 7, 39
9, 60551, Control_c, 7, 7, 38
9, 60587, Control_c, 7, 7, 37
9, 60623, Control_c, 7, 7, 36
9, 60659, Control_c, 7, 7, 35
9, 60695, Control_c, 7, 7, 34
9, 60731, Control_c, 7, 7, 33
9, 60767, Control_c, 7, 7, 32
9, 60803, Control_c, 7, 7, 31
9, 60839, Control_c, 7, 7, 30
9, 60875, Control_c, 7, 7, 29
9, 60911, Control_c, 7, 7, 28
9, 60947, Control_c, 7, 7, 27
9, 60983, Control_c, 7, 7, 26
9, 61019, Control_c, 7, 7, 25
9, 61055, Control_c, 7, 7, 24
9, 61091, Control_c, 7, 7, 23
9, 61127, Control_c, 7, 7, 22
9, 61163, Control_c, 7, 7, 21
9, 61199, Control_c, 7, 7, 20
9, 61235, Control_c, 7, 7, 19
9, 61271, Control_c, 7, 7, 18
9, 61307, Control_c, 7, 7, 17
9, 61343, Control_c, 7, 7, 16
9, 61379, Control_c, 7, 7, 15
9, 61415, Control_c, 7, 7, 14
9, 61451, Control_c, 7, 7, 13
9, 61487, Control_c, 7, 7, 12
9, 61523, Control_c, 7, 7, 11
9, 61559, Control_c, 7, 7, 10
9, 61595, Control_c, 7, 7, 9
9, 61631, Control_c, 7, 7, 8
9, 61667, Control_c, 7, 7, 7
9, 61703, Control_c, 7, 7, 6
9, 61739, Control_c, 7, 7, 5
9, 61775, Control_c, 7, 7, 4
9, 61811, Control_c, 7, 7, 3
9, 61847, Control_c, 7, 7, 2
9, 61883, Control_c, 7, 7, 1
9, 61919, Control_c, 7, 7, 0
9, 61919, End_track
10, 0, Start_track
10, 0, MIDI_port, 0
10, 0, Title_t, "FOR "
10, 0, Program_c, 8, 115
10, 0, Control_c, 8, 7, 50
10, 0, Control_c, 8, 10, 75
10, 480, Note_on_c, 8, 81, 126
10, 509, Note_on_c, 8, 81, 0
10, 510, Note_on_c, 8, 81, 127
10, 539, Note_on_c, 8, 81, 0
10, 540, Note_on_c, 8, 81, 127
10, 569, Note_on_c, 8, 81, 0
10, 660, Note_on_c, 8, 81, 126
10, 689, Note_on_c, 8, 81, 0
10, 780, Note_on_c, 8, 81, 119
10, 809, Note_on_c, 8, 81, 0
10, 900, Note_on_c, 8, 81, 114
10, 929, Note_on_c, 8, 81, 0
10, 1020, Note_on_c, 8, 81, 107
10, 1049, Note_on_c, 8, 81, 0
10, 1140, Note_on_c, 8, 81, 98
10, 1169, Note_on_c, 8, 81, 0
10, 1230, Note_on_c, 8, 81, 92
10, 1259, Note_on_c, 8, 81, 0
10, 1350, Note_on_c, 8, 81, 73
10, 1379, Note_on_c, 8, 81, 0
10, 1500, Note_on_c, 8, 81, 120
10, 1529, Note_on_c, 8, 81, 0
10, 1620, Note_on_c, 8, 81, 115
10, 1649, Note_on_c, 8, 81, 0
10, 1740, Note_on_c, 8, 81, 107
10, 1769, Note_on_c, 8, 81, 0
10, 1830, Note_on_c, 8, 81, 91
10, 1859, Note_on_c, 8, 81, 0
10, 2400, Note_on_c, 8, 81, 120
10, 2429, Note_on_c, 8, 81, 0
10, 2430, Note_on_c, 8, 81, 125
10, 2459, Note_on_c, 8, 81, 0
10, 2460, Note_on_c, 8, 81, 127
10, 2489, Note_on_c, 8, 81, 0
10, 2580, Note_on_c, 8, 81, 127
10, 2609, Note_on_c, 8, 81, 0
10, 2700, Note_on_c, 8, 81, 127
10, 2729, Note_on_c, 8, 81, 0
10, 2820, Note_on_c, 8, 81, 124
10, 2849, Note_on_c, 8, 81, 0
10, 2940, Note_on_c, 8, 81, 121
10, 2969, Note_on_c, 8, 81, 0
10, 3060, Note_on_c, 8, 81, 114
10, 3089, Note_on_c, 8, 81, 0
10, 3150, Note_on_c, 8, 81, 105
10, 3179, Note_on_c, 8, 81, 0
10, 3270, Note_on_c, 8, 81, 85
10, 3299, Note_on_c, 8, 81, 0
10, 3420, Note_on_c, 8, 81, 123
10, 3449, Note_on_c, 8, 81, 0
10, 3540, Note_on_c, 8, 81, 105
10, 3569, Note_on_c, 8, 81, 0
10, 3660, Note_on_c, 8, 81, 84
10, 3689, Note_on_c, 8, 81, 0
10, 3750, Note_on_c, 8, 81, 74
10, 3779, Note_on_c, 8, 81, 0
10, 4320, Note_on_c, 8, 81, 126
10, 4349, Note_on_c, 8, 81, 0
10, 4350, Note_on_c, 8, 81, 127
10, 4379, Note_on_c, 8, 81, 0
10, 4380, Note_on_c, 8, 81, 127
10, 4409, Note_on_c, 8, 81, 0
10, 4500, Note_on_c, 8, 81, 126
10, 4529, Note_on_c, 8, 81, 0
10, 4620, Note_on_c, 8, 81, 119
10, 4649, Note_on_c, 8, 81, 0
10, 4740, Note_on_c, 8, 81, 114
10, 4769, Note_on_c, 8, 81, 0
10, 4860, Note_on_c, 8, 81, 107
10, 4889, Note_on_c, 8, 81, 0
10, 4980, Note_on_c, 8, 81, 98
10, 5009, Note_on_c, 8, 81, 0
10, 5070, Note_on_c, 8, 81, 92
10, 5099, Note_on_c, 8, 81, 0
10, 5190, Note_on_c, 8, 81, 73
10, 5219, Note_on_c, 8, 81, 0
10, 5340, Note_on_c, 8, 81, 120
10, 5369, Note_on_c, 8, 81, 0
10, 5460, Note_on_c, 8, 81, 115
10, 5489, Note_on_c, 8, 81, 0
10, 5580, Note_on_c, 8, 81, 107
10, 5609, Note_on_c, 8, 81, 0
10, 5670, Note_on_c, 8, 81, 91
10, 5699, Note_on_c, 8, 81, 0
10, 6240, Note_on_c, 8, 81, 120
10, 6269, Note_on_c, 8, 81, 0
10, 6270, Note_on_c, 8, 81, 125
10, 6299, Note_on_c, 8, 81, 0
10, 6300, Note_on_c, 8, 81, 127
10, 6329, Note_on_c, 8, 81, 0
10, 6420, Note_on_c, 8, 81, 127
10, 6449, Note_on_c, 8, 81, 0
10, 6540, Note_on_c, 8, 81, 127
10, 6569, Note_on_c, 8, 81, 0
10, 6660, Note_on_c, 8, 81, 124
10, 6689, Note_on_c, 8, 81, 0
10, 6780, Note_on_c, 8, 81, 121
10, 6809, Note_on_c, 8, 81, 0
10, 6900, Note_on_c, 8, 81, 114
10, 6929, Note_on_c, 8, 81, 0
10, 6990, Note_on_c, 8, 81, 105
10, 7019, Note_on_c, 8, 81, 0
10, 7110, Note_on_c, 8, 81, 85
10, 7139, Note_on_c, 8, 81, 0
10, 7260, Note_on_c, 8, 81, 123
10, 7289, Note_on_c, 8, 81, 0
10, 7380, Note_on_c, 8, 81, 105
10, 7409, Note_on_c, 8, 81, 0
10, 7500, Note_on_c, 8, 81, 84
10, 7529, Note_on_c, 8, 81, 0
10, 7590, Note_on_c, 8, 81, 74
10, 7619, Note_on_c, 8, 81, 0
10, 8160, Note_on_c, 8, 81, 126
10, 8189, Note_on_c, 8, 81, 0
10, 8190, Note_on_c, 8, 81, 127
10, 8219, Note_on_c, 8, 81, 0
10, 8220, Note_on_c, 8, 81, 127
10, 8249, Note_on_c, 8, 81, 0
10, 8340, Note_on_c, 8, 81, 126
10, 8369, Note_on_c, 8, 81, 0
10, 8460, Note_on_c, 8, 81, 119
10, 8489, Note_on_c, 8, 81, 0
10, 8580, Note_on_c, 8, 81, 114
10, 8609, Note_on_c, 8, 81, 0
10, 8700, Note_on_c, 8, 81, 107
10, 8729, Note_on_c, 8, 81, 0
10, 8820, Note_on_c, 8, 81, 98
10, 8849, Note_on_c, 8, 81, 0
10, 8910, Note_on_c, 8, 81, 92
10, 8939, Note_on_c, 8, 81, 0
10, 9030, Note_on_c, 8, 81, 73
10, 9059, Note_on_c, 8, 81, 0
10, 9180, Note_on_c, 8, 81, 120
10, 9209, Note_on_c, 8, 81, 0
10, 9300, Note_on_c, 8, 81, 115
10, 9329, Note_on_c, 8, 81, 0
10, 9420, Note_on_c, 8, 81, 107
10, 9449, Note_on_c, 8, 81, 0
10, 9510, Note_on_c, 8, 81, 91
10, 9539, Note_on_c, 8, 81, 0
10, 10080, Note_on_c, 8, 81, 120
10, 10109, Note_on_c, 8, 81, 0
10, 10110, Note_on_c, 8, 81, 125
10, 10139, Note_on_c, 8, 81, 0
10, 10140, Note_on_c, 8, 81, 127
10, 10169, Note_on_c, 8, 81, 0
10, 10260, Note_on_c, 8, 81, 127
10, 10289, Note_on_c, 8, 81, 0
10, 10380, Note_on_c, 8, 81, 127
10, 10409, Note_on_c, 8, 81, 0
10, 10500, Note_on_c, 8, 81, 124
10, 10529, Note_on_c, 8, 81, 0
10, 10620, Note_on_c, 8, 81, 121
10, 10649, Note_on_c, 8, 81, 0
10, 10740, Note_on_c, 8, 81, 114
10, 10769, Note_on_c, 8, 81, 0
10, 10830, Note_on_c, 8, 81, 105
10, 10859, Note_on_c, 8, 81, 0
10, 10950, Note_on_c, 8, 81, 85
10, 10979, Note_on_c, 8, 81, 0
10, 11100, Note_on_c, 8, 81, 123
10, 11129, Note_on_c, 8, 81, 0
10, 11220, Note_on_c, 8, 81, 105
10, 11249, Note_on_c, 8, 81, 0
10, 11340, Note_on_c, 8, 81, 84
10, 11369, Note_on_c, 8, 81, 0
10, 11430, Note_on_c, 8, 81, 74
10, 11459, Note_on_c, 8, 81, 0
10, 12000, Note_on_c, 8, 81, 126
10, 12029, Note_on_c, 8, 81, 0
10, 12030, Note_on_c, 8, 81, 127
10, 12059, Note_on_c, 8, 81, 0
10, 12060, Note_on_c, 8, 81, 127
10, 12089, Note_on_c, 8, 81, 0
10, 12180, Note_on_c, 8, 81, 126
10, 12209, Note_on_c, 8, 81, 0
10, 12300, Note_on_c, 8, 81, 119
10, 12329, Note_on_c, 8, 81, 0
10, 12420, Note_on_c, 8, 81, 114
10, 12449, Note_on_c, 8, 81, 0
10, 12540, Note_on_c, 8, 81, 107
10, 12569, Note_on_c, 8, 81, 0
10, 12660, Note_on_c, 8, 81, 98
10, 12689, Note_on_c, 8, 81, 0
10, 12750, Note_on_c, 8, 81, 92
10, 12779, Note_on_c, 8, 81, 0
10, 12870, Note_on_c, 8, 81, 73
10, 12899, Note_on_c, 8, 81, 0
10, 13020, Note_on_c, 8, 81, 120
10, 13049, Note_on_c, 8, 81, 0
10, 13140, Note_on_c, 8, 81, 115
10, 13169, Note_on_c, 8, 81, 0
10, 13260, Note_on_c, 8, 81, 107
10, 13289, Note_on_c, 8, 81, 0
10, 13350, Note_on_c, 8, 81, 91
10, 13379, Note_on_c, 8, 81, 0
10, 13920, Note_on_c, 8, 81, 120
10, 13949, Note_on_c, 8, 81, 0
10, 13950, Note_on_c, 8, 81, 125
10, 13979, Note_on_c, 8, 81, 0
10, 13980, Note_on_c, 8, 81, 127
10, 14009, Note_on_c, 8, 81, 0
10, 14100, Note_on_c, 8, 81, 127
10, 14129, Note_on_c, 8, 81, 0
10, 14220, Note_on_c, 8, 81, 127
10, 14249, Note_on_c, 8, 81, 0
10, 14340, Note_on_c, 8, 81, 124
10, 14369, Note_on_c, 8, 81, 0
10, 14460, Note_on_c, 8, 81, 121
10, 14489, Note_on_c, 8, 81, 0
10, 14580, Note_on_c, 8, 81, 114
10, 14609, Note_on_c, 8, 81, 0
10, 14670, Note_on_c, 8, 81, 105
10, 14699, Note_on_c, 8, 81, 0
10, 14790, Note_on_c, 8, 81, 85
10, 14819, Note_on_c, 8, 81, 0
10, 14940, Note_on_c, 8, 81, 123
10, 14969, Note_on_c, 8, 81, 0
10, 15060, Note_on_c, 8, 81, 105
10, 15089, Note_on_c, 8, 81, 0
10, 15180, Note_on_c, 8, 81, 84
10, 15209, Note_on_c, 8, 81, 0
10, 15270, Note_on_c, 8, 81, 74
10, 15299, Note_on_c, 8, 81, 0
10, 15840, Note_on_c, 8, 81, 126
10, 15869, Note_on_c, 8, 81, 0
10, 15870, Note_on_c, 8, 81, 127
10, 15899, Note_on_c, 8, 81, 0
10, 15900, Note_on_c, 8, 81, 127
10, 15929, Note_on_c, 8, 81, 0
10, 16020, Note_on_c, 8, 81, 126
10, 16049, Note_on_c, 8, 81, 0
10, 16140, Note_on_c, 8, 81, 119
10, 16169, Note_on_c, 8, 81, 0
10, 16260, Note_on_c, 8, 81, 114
10, 16289, Note_on_c, 8, 81, 0
10, 16380, Note_on_c, 8, 81, 107
10, 16409, Note_on_c, 8, 81, 0
10, 16500, Note_on_c, 8, 81, 98
10, 16529, Note_on_c, 8, 81, 0
10, 16590, Note_on_c, 8, 81, 92
10, 16619, Note_on_c, 8, 81, 0
10, 16710, Note_on_c, 8, 81, 73
10, 16739, Note_on_c, 8, 81, 0
10, 16860, Note_on_c, 8, 81, 120
10, 16889, Note_on_c, 8, 81, 0
10, 16980, Note_on_c, 8, 81, 115
10, 17009, Note_on_c, 8, 81, 0
10, 17100, Note_on_c, 8, 81, 107
10, 17129, Note_on_c, 8, 81, 0
10, 17190, Note_on_c, 8, 81, 91
10, 17219, Note_on_c, 8, 81, 0
10, 17760, Note_on_c, 8, 81, 120
10, 17789, Note_on_c, 8, 81, 0
10, 17790, Note_on_c, 8, 81, 125
10, 17819, Note_on_c, 8, 81, 0
10, 17820, Note_on_c, 8, 81, 127
10, 17849, Note_on_c, 8, 81, 0
10, 17940, Note_on_c, 8, 81, 127
10, 17969, Note_on_c, 8, 81, 0
10, 18060, Note_on_c, 8, 81, 127
10, 18089, Note_on_c, 8, 81, 0
10, 18180, Note_on_c, 8, 81, 124
10, 18209, Note_on_c, 8, 81, 0
10, 18300, Note_on_c, 8, 81, 121
10, 18329, Note_on_c, 8, 81, 0
10, 18420, Note_on_c, 8, 81, 114
10, 18449, Note_on_c, 8, 81, 0
10, 18510, Note_on_c, 8, 81, 105
10, 18539, Note_on_c, 8, 81, 0
10, 18630, Note_on_c, 8, 81, 85
10, 18659, Note_on_c, 8, 81, 0
10, 18780, Note_on_c, 8, 81, 123
10, 18809, Note_on_c, 8, 81, 0
10, 18900, Note_on_c, 8, 81, 105
10, 18929, Note_on_c, 8, 81, 0
10, 19020, Note_on_c, 8, 81, 84
10, 19049, Note_on_c, 8, 81, 0
10, 19110, Note_on_c, 8, 81, 74
10, 19139, Note_on_c, 8, 81, 0
10, 19680, Note_on_c, 8, 81, 126
10, 19709, Note_on_c, 8, 81, 0
10, 19710, Note_on_c, 8, 81, 127
10, 19739, Note_on_c, 8, 81, 0
10, 19740, Note_on_c, 8, 81, 127
10, 19769, Note_on_c, 8, 81, 0
10, 19860, Note_on_c, 8, 81, 126
10, 19889, Note_on_c, 8, 81, 0
10, 19980, Note_on_c, 8, 81, 119
10, 20009, Note_on_c, 8, 81, 0
10, 20100, Note_on_c, 8, 81, 114
10, 20129, Note_on_c, 8, 81, 0
10, 20220, Note_on_c, 8, 81, 107
10, 20249, Note_on_c, 8, 81, 0
10, 20340, Note_on_c, 8, 81, 98
10, 20369, Note_on_c, 8, 81, 0
10, 20430, Note_on_c, 8, 81, 92
10, 20459, Note_on_c, 8, 81, 0
10, 20550, Note_on_c, 8, 81, 73
10, 20579, Note_on_c, 8, 81, 0
10, 20700, Note_on_c, 8, 81, 120
10, 20729, Note_on_c, 8, 81, 0
10, 20820, Note_on_c, 8, 81, 115
10, 20849, Note_on_c, 8, 81, 0
10, 20940, Note_on_c, 8, 81, 107
10, 20969, Note_on_c, 8, 81, 0
10, 21030, Note_on_c, 8, 81, 91
10, 21059, Note_on_c, 8, 81, 0
10, 21600, Note_on_c, 8, 81, 120
10, 21629, Note_on_c, 8, 81, 0
10, 21630, Note_on_c, 8, 81, 125
10, 21659, Note_on_c, 8, 81, 0
10, 21660, Note_on_c, 8, 81, 127
10, 21689, Note_on_c, 8, 81, 0
10, 21780, Note_on_c, 8, 81, 127
10, 21809, Note_on_c, 8, 81, 0
10, 21900, Note_on_c, 8, 81, 127
10, 21929, Note_on_c, 8, 81, 0
10, 22020, Note_on_c, 8, 81, 124
10, 22049, Note_on_c, 8, 81, 0
10, 22140, Note_on_c, 8, 81, 121
10, 22169, Note_on_c, 8, 81, 0
10, 22260, Note_on_c, 8, 81, 114
10, 22289, Note_on_c, 8, 81, 0
10, 22350, Note_on_c, 8, 81, 105
10, 22379, Note_on_c, 8, 81, 0
10, 22470, Note_on_c, 8, 81, 85
10, 22499, Note_on_c, 8, 81, 0
10, 22620, Note_on_c, 8, 81, 123
10, 22649, Note_on_c, 8, 81, 0
10, 22740, Note_on_c, 8, 81, 105
10, 22769, Note_on_c, 8, 81, 0
10, 22860, Note_on_c, 8, 81, 84
10, 22889, Note_on_c, 8, 81, 0
10, 22950, Note_on_c, 8, 81, 74
10, 22979, Note_on_c, 8, 81, 0
10, 23520, Note_on_c, 8, 81, 126
10, 23549, Note_on_c, 8, 81, 0
10, 23550, Note_on_c, 8, 81, 127
10, 23579, Note_on_c, 8, 81, 0
10, 23580, Note_on_c, 8, 81, 127
10, 23609, Note_on_c, 8, 81, 0
10, 23700, Note_on_c, 8, 81, 126
10, 23729, Note_on_c, 8, 81, 0
10, 23820, Note_on_c, 8, 81, 119
10, 23849, Note_on_c, 8, 81, 0
10, 23940, Note_on_c, 8, 81, 114
10, 23969, Note_on_c, 8, 81, 0
10, 24060, Note_on_c, 8, 81, 107
10, 24089, Note_on_c, 8, 81, 0
10, 24180, Note_on_c, 8, 81, 98
10, 24209, Note_on_c, 8, 81, 0
10, 24270, Note_on_c, 8, 81, 92
10, 24299, Note_on_c, 8, 81, 0
10, 24390, Note_on_c, 8, 81, 73
10, 24419, Note_on_c, 8, 81, 0
10, 24540, Note_on_c, 8, 81, 120
10, 24569, Note_on_c, 8, 81, 0
10, 24660, Note_on_c, 8, 81, 115
10, 24689, Note_on_c, 8, 81, 0
10, 24780, Note_on_c, 8, 81, 107
10, 24809, Note_on_c, 8, 81, 0
10, 24870, Note_on_c, 8, 81, 91
10, 24899, Note_on_c, 8, 81, 0
10, 25440, Note_on_c, 8, 81, 120
10, 25469, Note_on_c, 8, 81, 0
10, 25470, Note_on_c, 8, 81, 125
10, 25499, Note_on_c, 8, 81, 0
10, 25500, Note_on_c, 8, 81, 127
10, 25529, Note_on_c, 8, 81, 0
10, 25620, Note_on_c, 8, 81, 127
10, 25649, Note_on_c, 8, 81, 0
10, 25740, Note_on_c, 8, 81, 127
10, 25769, Note_on_c, 8, 81, 0
10, 25860, Note_on_c, 8, 81, 124
10, 25889, Note_on_c, 8, 81, 0
10, 25980, Note_on_c, 8, 81, 121
10, 26009, Note_on_c, 8, 81, 0
10, 26100, Note_on_c, 8, 81, 114
10, 26129, Note_on_c, 8, 81, 0
10, 26190, Note_on_c, 8, 81, 105
10, 26219, Note_on_c, 8, 81, 0
10, 26310, Note_on_c, 8, 81, 85
10, 26339, Note_on_c, 8, 81, 0
10, 26460, Note_on_c, 8, 81, 123
10, 26489, Note_on_c, 8, 81, 0
10, 26580, Note_on_c, 8, 81, 105
10, 26609, Note_on_c, 8, 81, 0
10, 26700, Note_on_c, 8, 81, 84
10, 26729, Note_on_c, 8, 81, 0
10, 26790, Note_on_c, 8, 81, 74
10, 26819, Note_on_c, 8, 81, 0
10, 27360, Note_on_c, 8, 81, 126
10, 27389, Note_on_c, 8, 81, 0
10, 27390, Note_on_c, 8, 81, 127
10, 27419, Note_on_c, 8, 81, 0
10, 27420, Note_on_c, 8, 81, 127
10, 27449, Note_on_c, 8, 81, 0
10, 27540, Note_on_c, 8, 81, 126
10, 27569, Note_on_c, 8, 81, 0
10, 27660, Note_on_c, 8, 81, 119
10, 27689, Note_on_c, 8, 81, 0
10, 27780, Note_on_c, 8, 81, 114
10, 27809, Note_on_c, 8, 81, 0
10, 27900, Note_on_c, 8, 81, 107
10, 27929, Note_on_c, 8, 81, 0
10, 28020, Note_on_c, 8, 81, 98
10, 28049, Note_on_c, 8, 81, 0
10, 28110, Note_on_c, 8, 81, 92
10, 28139, Note_on_c, 8, 81, 0
10, 28230, Note_on_c, 8, 81, 73
10, 28259, Note_on_c, 8, 81, 0
10, 28380, Note_on_c, 8, 81, 120
10, 28409, Note_on_c, 8, 81, 0
10, 28500, Note_on_c, 8, 81, 115
10, 28529, Note_on_c, 8, 81, 0
10, 28620, Note_on_c, 8, 81, 107
10, 28649, Note_on_c, 8, 81, 0
10, 28710, Note_on_c, 8, 81, 91
10, 28739, Note_on_c, 8, 81, 0
10, 29280, Note_on_c, 8, 81, 120
10, 29309, Note_on_c, 8, 81, 0
10, 29310, Note_on_c, 8, 81, 125
10, 29339, Note_on_c, 8, 81, 0
10, 29340, Note_on_c, 8, 81, 127
10, 29369, Note_on_c, 8, 81, 0
10, 29460, Note_on_c, 8, 81, 127
10, 29489, Note_on_c, 8, 81, 0
10, 29580, Note_on_c, 8, 81, 127
10, 29609, Note_on_c, 8, 81, 0
10, 29700, Note_on_c, 8, 81, 124
10, 29729, Note_on_c, 8, 81, 0
10, 29820, Note_on_c, 8, 81, 121
10, 29849, Note_on_c, 8, 81, 0
10, 29940, Note_on_c, 8, 81, 114
10, 29969, Note_on_c, 8, 81, 0
10, 30030, Note_on_c, 8, 81, 105
10, 30059, Note_on_c, 8, 81, 0
10, 30150, Note_on_c, 8, 81, 85
10, 30179, Note_on_c, 8, 81, 0
10, 30300, Note_on_c, 8, 81, 123
10, 30329, Note_on_c, 8, 81, 0
10, 30420, Note_on_c, 8, 81, 105
10, 30449, Note_on_c, 8, 81, 0
10, 30540, Note_on_c, 8, 81, 84
10, 30569, Note_on_c, 8, 81, 0
10, 30630, Note_on_c, 8, 81, 74
10, 30659, Note_on_c, 8, 81, 0
10, 31200, Note_on_c, 8, 81, 126
10, 31229, Note_on_c, 8, 81, 0
10, 31230, Note_on_c, 8, 81, 127
10, 31259, Note_on_c, 8, 81, 0
10, 31260, Note_on_c, 8, 81, 127
10, 31289, Note_on_c, 8, 81, 0
10, 31380, Note_on_c, 8, 81, 126
10, 31409, Note_on_c, 8, 81, 0
10, 31500, Note_on_c, 8, 81, 119
10, 31529, Note_on_c, 8, 81, 0
10, 31620, Note_on_c, 8, 81, 114
10, 31649, Note_on_c, 8, 81, 0
10, 31740, Note_on_c, 8, 81, 107
10, 31769, Note_on_c, 8, 81, 0
10, 31860, Note_on_c, 8, 81, 98
10, 31889, Note_on_c, 8, 81, 0
10, 31950, Note_on_c, 8, 81, 92
10, 31979, Note_on_c, 8, 81, 0
10, 32070, Note_on_c, 8, 81, 73
10, 32099, Note_on_c, 8, 81, 0
10, 32220, Note_on_c, 8, 81, 120
10, 32249, Note_on_c, 8, 81, 0
10, 32340, Note_on_c, 8, 81, 115
10, 32369, Note_on_c, 8, 81, 0
10, 32460, Note_on_c, 8, 81, 107
10, 32489, Note_on_c, 8, 81, 0
10, 32550, Note_on_c, 8, 81, 91
10, 32579, Note_on_c, 8, 81, 0
10, 33120, Note_on_c, 8, 81, 120
10, 33149, Note_on_c, 8, 81, 0
10, 33150, Note_on_c, 8, 81, 125
10, 33179, Note_on_c, 8, 81, 0
10, 33180, Note_on_c, 8, 81, 127
10, 33209, Note_on_c, 8, 81, 0
10, 33300, Note_on_c, 8, 81, 127
10, 33329, Note_on_c, 8, 81, 0
10, 33420, Note_on_c, 8, 81, 127
10, 33449, Note_on_c, 8, 81, 0
10, 33540, Note_on_c, 8, 81, 124
10, 33569, Note_on_c, 8, 81, 0
10, 33660, Note_on_c, 8, 81, 121
10, 33689, Note_on_c, 8, 81, 0
10, 33780, Note_on_c, 8, 81, 114
10, 33809, Note_on_c, 8, 81, 0
10, 33870, Note_on_c, 8, 81, 105
10, 33899, Note_on_c, 8, 81, 0
10, 33990, Note_on_c, 8, 81, 85
10, 34019, Note_on_c, 8, 81, 0
10, 34140, Note_on_c, 8, 81, 123
10, 34169, Note_on_c, 8, 81, 0
10, 34260, Note_on_c, 8, 81, 105
10, 34289, Note_on_c, 8, 81, 0
10, 34380, Note_on_c, 8, 81, 84
10, 34409, Note_on_c, 8, 81, 0
10, 34470, Note_on_c, 8, 81, 74
10, 34499, Note_on_c, 8, 81, 0
10, 35520, Note_on_c, 8, 81, 126
10, 35549, Note_on_c, 8, 81, 0
10, 35550, Note_on_c, 8, 81, 127
10, 35579, Note_on_c, 8, 81, 0
10, 35580, Note_on_c, 8, 81, 127
10, 35609, Note_on_c, 8, 81, 0
10, 35700, Note_on_c, 8, 81, 126
10, 35729, Note_on_c, 8, 81, 0
10, 35820, Note_on_c, 8, 81, 119
10, 35849, Note_on_c, 8, 81, 0
10, 35940, Note_on_c, 8, 81, 114
10, 35969, Note_on_c, 8, 81, 0
10, 36060, Note_on_c, 8, 81, 107
10, 36089, Note_on_c, 8, 81, 0
10, 36180, Note_on_c, 8, 81, 98
10, 36209, Note_on_c, 8, 81, 0
10, 36270, Note_on_c, 8, 81, 92
10, 36299, Note_on_c, 8, 81, 0
10, 36390, Note_on_c, 8, 81, 73
10, 36419, Note_on_c, 8, 81, 0
10, 36540, Note_on_c, 8, 81, 120
10, 36569, Note_on_c, 8, 81, 0
10, 36660, Note_on_c, 8, 81, 115
10, 36689, Note_on_c, 8, 81, 0
10, 36780, Note_on_c, 8, 81, 107
10, 36809, Note_on_c, 8, 81, 0
10, 36870, Note_on_c, 8, 81, 91
10, 36899, Note_on_c, 8, 81, 0
10, 37440, Note_on_c, 8, 81, 120
10, 37469, Note_on_c, 8, 81, 0
10, 37470, Note_on_c, 8, 81, 125
10, 37499, Note_on_c, 8, 81, 0
10, 37500, Note_on_c, 8, 81, 127
10, 37529, Note_on_c, 8, 81, 0
10, 37620, Note_on_c, 8, 81, 127
10, 37649, Note_on_c, 8, 81, 0
10, 37740, Note_on_c, 8, 81, 127
10, 37769, Note_on_c, 8, 81, 0
10, 37860, Note_on_c, 8, 81, 124
10, 37889, Note_on_c, 8, 81, 0
10, 37980, Note_on_c, 8, 81, 121
10, 38009, Note_on_c, 8, 81, 0
10, 38100, Note_on_c, 8, 81, 114
10, 38129, Note_on_c, 8, 81, 0
10, 38190, Note_on_c, 8, 81, 105
10, 38219, Note_on_c, 8, 81, 0
10, 38310, Note_on_c, 8, 81, 85
10, 38339, Note_on_c, 8, 81, 0
10, 38460, Note_on_c, 8, 81, 123
10, 38489, Note_on_c, 8, 81, 0
10, 38580, Note_on_c, 8, 81, 105
10, 38609, Note_on_c, 8, 81, 0
10, 38700, Note_on_c, 8, 81, 84
10, 38729, Note_on_c, 8, 81, 0
10, 38790, Note_on_c, 8, 81, 74
10, 38819, Note_on_c, 8, 81, 0
10, 39360, Note_on_c, 8, 81, 126
10, 39389, Note_on_c, 8, 81, 0
10, 39390, Note_on_c, 8, 81, 127
10, 39419, Note_on_c, 8, 81, 0
10, 39420, Note_on_c, 8, 81, 127
10, 39449, Note_on_c, 8, 81, 0
10, 39540, Note_on_c, 8, 81, 126
10, 39569, Note_on_c, 8, 81, 0
10, 39660, Note_on_c, 8, 81, 119
10, 39689, Note_on_c, 8, 81, 0
10, 39780, Note_on_c, 8, 81, 114
10, 39809, Note_on_c, 8, 81, 0
10, 39900, Note_on_c, 8, 81, 107
10, 39929, Note_on_c, 8, 81, 0
10, 40020, Note_on_c, 8, 81, 98
10, 40049, Note_on_c, 8, 81, 0
10, 40110, Note_on_c, 8, 81, 92
10, 40139, Note_on_c, 8, 81, 0
10, 40230, Note_on_c, 8, 81, 73
10, 40259, Note_on_c, 8, 81, 0
10, 40380, Note_on_c, 8, 81, 120
10, 40409, Note_on_c, 8, 81, 0
10, 40500, Note_on_c, 8, 81, 115
10, 40529, Note_on_c, 8, 81, 0
10, 40620, Note_on_c, 8, 81, 107
10, 40649, Note_on_c, 8, 81, 0
10, 40710, Note_on_c, 8, 81, 91
10, 40739, Note_on_c, 8, 81, 0
10, 41280, Note_on_c, 8, 81, 120
10, 41309, Note_on_c, 8, 81, 0
10, 41310, Note_on_c, 8, 81, 125
10, 41339, Note_on_c, 8, 81, 0
10, 41340, Note_on_c, 8, 81, 127
10, 41369, Note_on_c, 8, 81, 0
10, 41460, Note_on_c, 8, 81, 127
10, 41489, Note_on_c, 8, 81, 0
10, 41580, Note_on_c, 8, 81, 127
10, 41609, Note_on_c, 8, 81, 0
10, 41700, Note_on_c, 8, 81, 124
10, 41729, Note_on_c, 8, 81, 0
10, 41820, Note_on_c, 8, 81, 121
10, 41849, Note_on_c, 8, 81, 0
10, 41940, Note_on_c, 8, 81, 114
10, 41969, Note_on_c, 8, 81, 0
10, 42030, Note_on_c, 8, 81, 105
10, 42059, Note_on_c, 8, 81, 0
10, 42150, Note_on_c, 8, 81, 85
10, 42179, Note_on_c, 8, 81, 0
10, 42300, Note_on_c, 8, 81, 123
10, 42329, Note_on_c, 8, 81, 0
10, 42420, Note_on_c, 8, 81, 105
10, 42449, Note_on_c, 8, 81, 0
10, 42540, Note_on_c, 8, 81, 84
10, 42569, Note_on_c, 8, 81, 0
10, 42630, Note_on_c, 8, 81, 74
10, 42659, Note_on_c, 8, 81, 0
10, 43200, Note_on_c, 8, 81, 126
10, 43229, Note_on_c, 8, 81, 0
10, 43230, Note_on_c, 8, 81, 127
10, 43259, Note_on_c, 8, 81, 0
10, 43260, Note_on_c, 8, 81, 127
10, 43289, Note_on_c, 8, 81, 0
10, 43380, Note_on_c, 8, 81, 126
10, 43409, Note_on_c, 8, 81, 0
10, 43500, Note_on_c, 8, 81, 119
10, 43529, Note_on_c, 8, 81, 0
10, 43620, Note_on_c, 8, 81, 114
10, 43649, Note_on_c, 8, 81, 0
10, 43740, Note_on_c, 8, 81, 107
10, 43769, Note_on_c, 8, 81, 0
10, 43860, Note_on_c, 8, 81, 98
10, 43889, Note_on_c, 8, 81, 0
10, 43950, Note_on_c, 8, 81, 92
10, 43979, Note_on_c, 8, 81, 0
10, 44070, Note_on_c, 8, 81, 73
10, 44099, Note_on_c, 8, 81, 0
10, 44220, Note_on_c, 8, 81, 120
10, 44249, Note_on_c, 8, 81, 0
10, 44340, Note_on_c, 8, 81, 115
10, 44369, Note_on_c, 8, 81, 0
10, 44460, Note_on_c, 8, 81, 107
10, 44489, Note_on_c, 8, 81, 0
10, 44550, Note_on_c, 8, 81, 91
10, 44579, Note_on_c, 8, 81, 0
10, 45120, Note_on_c, 8, 81, 120
10, 45149, Note_on_c, 8, 81, 0
10, 45150, Note_on_c, 8, 81, 125
10, 45179, Note_on_c, 8, 81, 0
10, 45180, Note_on_c, 8, 81, 127
10, 45209, Note_on_c, 8, 81, 0
10, 45300, Note_on_c, 8, 81, 127
10, 45329, Note_on_c, 8, 81, 0
10, 45420, Note_on_c, 8, 81, 127
10, 45449, Note_on_c, 8, 81, 0
10, 45540, Note_on_c, 8, 81, 124
10, 45569, Note_on_c, 8, 81, 0
10, 45660, Note_on_c, 8, 81, 121
10, 45689, Note_on_c, 8, 81, 0
10, 45780, Note_on_c, 8, 81, 114
10, 45809, Note_on_c, 8, 81, 0
10, 45870, Note_on_c, 8, 81, 105
10, 45899, Note_on_c, 8, 81, 0
10, 45990, Note_on_c, 8, 81, 85
10, 46019, Note_on_c, 8, 81, 0
10, 46140, Note_on_c, 8, 81, 123
10, 46169, Note_on_c, 8, 81, 0
10, 46260, Note_on_c, 8, 81, 105
10, 46289, Note_on_c, 8, 81, 0
10, 46380, Note_on_c, 8, 81, 84
10, 46409, Note_on_c, 8, 81, 0
10, 46470, Note_on_c, 8, 81, 74
10, 46499, Note_on_c, 8, 81, 0
10, 47040, Note_on_c, 8, 81, 126
10, 47069, Note_on_c, 8, 81, 0
10, 47070, Note_on_c, 8, 81, 127
10, 47099, Note_on_c, 8, 81, 0
10, 47100, Note_on_c, 8, 81, 127
10, 47129, Note_on_c, 8, 81, 0
10, 47220, Note_on_c, 8, 81, 126
10, 47249, Note_on_c, 8, 81, 0
10, 47340, Note_on_c, 8, 81, 119
10, 47369, Note_on_c, 8, 81, 0
10, 47460, Note_on_c, 8, 81, 114
10, 47489, Note_on_c, 8, 81, 0
10, 47580, Note_on_c, 8, 81, 107
10, 47609, Note_on_c, 8, 81, 0
10, 47700, Note_on_c, 8, 81, 98
10, 47729, Note_on_c, 8, 81, 0
10, 47790, Note_on_c, 8, 81, 92
10, 47819, Note_on_c, 8, 81, 0
10, 47910, Note_on_c, 8, 81, 73
10, 47939, Note_on_c, 8, 81, 0
10, 48060, Note_on_c, 8, 81, 120
10, 48089, Note_on_c, 8, 81, 0
10, 48180, Note_on_c, 8, 81, 115
10, 48209, Note_on_c, 8, 81, 0
10, 48300, Note_on_c, 8, 81, 107
10, 48329, Note_on_c, 8, 81, 0
10, 48390, Note_on_c, 8, 81, 91
10, 48419, Note_on_c, 8, 81, 0
10, 49440, Note_on_c, 8, 81, 126
10, 49469, Note_on_c, 8, 81, 0
10, 49470, Note_on_c, 8, 81, 127
10, 49499, Note_on_c, 8, 81, 0
10, 49500, Note_on_c, 8, 81, 127
10, 49529, Note_on_c, 8, 81, 0
10, 49620, Note_on_c, 8, 81, 126
10, 49649, Note_on_c, 8, 81, 0
10, 49740, Note_on_c, 8, 81, 119
10, 49769, Note_on_c, 8, 81, 0
10, 49860, Note_on_c, 8, 81, 114
10, 49889, Note_on_c, 8, 81, 0
10, 49980, Note_on_c, 8, 81, 107
10, 50009, Note_on_c, 8, 81, 0
10, 50100, Note_on_c, 8, 81, 98
10, 50129, Note_on_c, 8, 81, 0
10, 50190, Note_on_c, 8, 81, 92
10, 50219, Note_on_c, 8, 81, 0
10, 50310, Note_on_c, 8, 81, 73
10, 50339, Note_on_c, 8, 81, 0
10, 50460, Note_on_c, 8, 81, 120
10, 50489, Note_on_c, 8, 81, 0
10, 50580, Note_on_c, 8, 81, 115
10, 50609, Note_on_c, 8, 81, 0
10, 50700, Note_on_c, 8, 81, 107
10, 50729, Note_on_c, 8, 81, 0
10, 50790, Note_on_c, 8, 81, 91
10, 50819, Note_on_c, 8, 81, 0
10, 51360, Note_on_c, 8, 81, 120
10, 51389, Note_on_c, 8, 81, 0
10, 51390, Note_on_c, 8, 81, 125
10, 51419, Note_on_c, 8, 81, 0
10, 51420, Note_on_c, 8, 81, 127
10, 51449, Note_on_c, 8, 81, 0
10, 51540, Note_on_c, 8, 81, 127
10, 51569, Note_on_c, 8, 81, 0
10, 51660, Note_on_c, 8, 81, 127
10, 51689, Note_on_c, 8, 81, 0
10, 51780, Note_on_c, 8, 81, 124
10, 51809, Note_on_c, 8, 81, 0
10, 51900, Note_on_c, 8, 81, 121
10, 51929, Note_on_c, 8, 81, 0
10, 52020, Note_on_c, 8, 81, 114
10, 52049, Note_on_c, 8, 81, 0
10, 52110, Note_on_c, 8, 81, 105
10, 52139, Note_on_c, 8, 81, 0
10, 52230, Note_on_c, 8, 81, 85
10, 52259, Note_on_c, 8, 81, 0
10, 52380, Note_on_c, 8, 81, 123
10, 52409, Note_on_c, 8, 81, 0
10, 52500, Note_on_c, 8, 81, 105
10, 52529, Note_on_c, 8, 81, 0
10, 52620, Note_on_c, 8, 81, 84
10, 52649, Note_on_c, 8, 81, 0
10, 52710, Note_on_c, 8, 81, 74
10, 52739, Note_on_c, 8, 81, 0
10, 53280, Note_on_c, 8, 81, 126
10, 53309, Note_on_c, 8, 81, 0
10, 53310, Note_on_c, 8, 81, 127
10, 53339, Note_on_c, 8, 81, 0
10, 53340, Note_on_c, 8, 81, 127
10, 53369, Note_on_c, 8, 81, 0
10, 53460, Note_on_c, 8, 81, 126
10, 53489, Note_on_c, 8, 81, 0
10, 53580, Note_on_c, 8, 81, 119
10, 53609, Note_on_c, 8, 81, 0
10, 53700, Note_on_c, 8, 81, 114
10, 53729, Note_on_c, 8, 81, 0
10, 53820, Note_on_c, 8, 81, 107
10, 53849, Note_on_c, 8, 81, 0
10, 53940, Note_on_c, 8, 81, 98
10, 53969, Note_on_c, 8, 81, 0
10, 54030, Note_on_c, 8, 81, 92
10, 54059, Note_on_c, 8, 81, 0
10, 54150, Note_on_c, 8, 81, 73
10, 54179, Note_on_c, 8, 81, 0
10, 54300, Note_on_c, 8, 81, 120
10, 54329, Note_on_c, 8, 81, 0
10, 54420, Note_on_c, 8, 81, 115
10, 54449, Note_on_c, 8, 81, 0
10, 54540, Note_on_c, 8, 81, 107
10, 54569, Note_on_c, 8, 81, 0
10, 54630, Note_on_c, 8, 81, 91
10, 54659, Note_on_c, 8, 81, 0
10, 55200, Note_on_c, 8, 81, 120
10, 55229, Note_on_c, 8, 81, 0
10, 55230, Note_on_c, 8, 81, 125
10, 55259, Note_on_c, 8, 81, 0
10, 55260, Note_on_c, 8, 81, 127
10, 55289, Note_on_c, 8, 81, 0
10, 55380, Note_on_c, 8, 81, 127
10, 55409, Note_on_c, 8, 81, 0
10, 55500, Note_on_c, 8, 81, 127
10, 55529, Note_on_c, 8, 81, 0
10, 55620, Note_on_c, 8, 81, 124
10, 55649, Note_on_c, 8, 81, 0
10, 55740, Note_on_c, 8, 81, 121
10, 55769, Note_on_c, 8, 81, 0
10, 55860, Note_on_c, 8, 81, 114
10, 55889, Note_on_c, 8, 81, 0
10, 55950, Note_on_c, 8, 81, 105
10, 55979, Note_on_c, 8, 81, 0
10, 56070, Note_on_c, 8, 81, 85
10, 56099, Note_on_c, 8, 81, 0
10, 56220, Note_on_c, 8, 81, 123
10, 56249, Note_on_c, 8, 81, 0
10, 56340, Note_on_c, 8, 81, 105
10, 56369, Note_on_c, 8, 81, 0
10, 56460, Note_on_c, 8, 81, 84
10, 56489, Note_on_c, 8, 81, 0
10, 56550, Note_on_c, 8, 81, 74
10, 56579, Note_on_c, 8, 81, 0
10, 57120, Note_on_c, 8, 81, 126
10, 57149, Note_on_c, 8, 81, 0
10, 57150, Note_on_c, 8, 81, 127
10, 57179, Note_on_c, 8, 81, 0
10, 57180, Note_on_c, 8, 81, 127
10, 57209, Note_on_c, 8, 81, 0
10, 57300, Note_on_c, 8, 81, 126
10, 57329, Note_on_c, 8, 81, 0
10, 57420, Note_on_c, 8, 81, 119
10, 57449, Note_on_c, 8, 81, 0
10, 57540, Note_on_c, 8, 81, 114
10, 57569, Note_on_c, 8, 81, 0
10, 57660, Note_on_c, 8, 81, 107
10, 57689, Note_on_c, 8, 81, 0
10, 57780, Note_on_c, 8, 81, 98
10, 57809, Note_on_c, 8, 81, 0
10, 57870, Note_on_c, 8, 81, 92
10, 57899, Note_on_c, 8, 81, 0
10, 57990, Note_on_c, 8, 81, 73
10, 58019, Note_on_c, 8, 81, 0
10, 58140, Note_on_c, 8, 81, 120
10, 58169, Note_on_c, 8, 81, 0
10, 58260, Note_on_c, 8, 81, 115
10, 58289, Note_on_c, 8, 81, 0
10, 58380, Note_on_c, 8, 81, 107
10, 58409, Note_on_c, 8, 81, 0
10, 58470, Note_on_c, 8, 81, 91
10, 58499, Note_on_c, 8, 81, 0
10, 59040, Control_c, 8, 7, 80
10, 59040, Note_on_c, 8, 81, 120
10, 59069, Note_on_c, 8, 81, 0
10, 59070, Note_on_c, 8, 81, 125
10, 59075, Control_c, 8, 7, 79
10, 59099, Note_on_c, 8, 81, 0
10, 59100, Note_on_c, 8, 81, 127
10, 59111, Control_c, 8, 7, 78
10, 59129, Note_on_c, 8, 81, 0
10, 59147, Control_c, 8, 7, 77
10, 59183, Control_c, 8, 7, 76
10, 59219, Control_c, 8, 7, 75
10, 59220, Note_on_c, 8, 81, 127
10, 59249, Note_on_c, 8, 81, 0
10, 59255, Control_c, 8, 7, 74
10, 59291, Control_c, 8, 7, 73
10, 59327, Control_c, 8, 7, 72
10, 59340, Note_on_c, 8, 81, 127
10, 59363, Control_c, 8, 7, 71
10, 59369, Note_on_c, 8, 81, 0
10, 59399, Control_c, 8, 7, 70
10, 59435, Control_c, 8, 7, 69
10, 59460, Note_on_c, 8, 81, 124
10, 59471, Control_c, 8, 7, 68
10, 59489, Note_on_c, 8, 81, 0
10, 59507, Control_c, 8, 7, 67
10, 59543, Control_c, 8, 7, 66
10, 59579, Control_c, 8, 7, 65
10, 59580, Note_on_c, 8, 81, 121
10, 59609, Note_on_c, 8, 81, 0
10, 59615, Control_c, 8, 7, 64
10, 59651, Control_c, 8, 7, 63
10, 59687, Control_c, 8, 7, 62
10, 59700, Note_on_c, 8, 81, 114
10, 59723, Control_c, 8, 7, 61
10, 59729, Note_on_c, 8, 81, 0
10, 59759, Control_c, 8, 7, 60
10, 59790, Note_on_c, 8, 81, 105
10, 59795, Control_c, 8, 7, 59
10, 59819, Note_on_c, 8, 81, 0
10, 59831, Control_c, 8, 7, 58
10, 59867, Control_c, 8, 7, 57
10, 59903, Control_c, 8, 7, 56
10, 59910, Note_on_c, 8, 81, 85
10, 59939, Note_on_c, 8, 81, 0
10, 59939, Control_c, 8, 7, 55
10, 59975, Control_c, 8, 7, 54
10, 60011, Control_c, 8, 7, 53
10, 60047, Control_c, 8, 7, 52
10, 60060, Note_on_c, 8, 81, 123
10, 60083, Control_c, 8, 7, 51
10, 60089, Note_on_c, 8, 81, 0
10, 60119, Control_c, 8, 7, 50
10, 60155, Control_c, 8, 7, 49
10, 60180, Note_on_c, 8, 81, 105
10, 60191, Control_c, 8, 7, 48
10, 60209, Note_on_c, 8, 81, 0
10, 60227, Control_c, 8, 7, 47
10, 60263, Control_c, 8, 7, 46
10, 60299, Control_c, 8, 7, 45
10, 60300, Note_on_c, 8, 81, 84
10, 60329, Note_on_c, 8, 81, 0
10, 60335, Control_c, 8, 7, 44
10, 60371, Control_c, 8, 7, 43
10, 60390, Note_on_c, 8, 81, 74
10, 60407, Control_c, 8, 7, 42
10, 60419, Note_on_c, 8, 81, 0
10, 60443, Control_c, 8, 7, 41
10, 60479, Control_c, 8, 7, 40
10, 60515, Control_c, 8, 7, 39
10, 60551, Control_c, 8, 7, 38
10, 60587, Control_c, 8, 7, 37
10, 60623, Control_c, 8, 7, 36
10, 60659, Control_c, 8, 7, 35
10, 60695, Control_c, 8, 7, 34
10, 60731, Control_c, 8, 7, 33
10, 60767, Control_c, 8, 7, 32
10, 60803, Control_c, 8, 7, 31
10, 60839, Control_c, 8, 7, 30
10, 60875, Control_c, 8, 7, 29
10, 60911, Control_c, 8, 7, 28
10, 60947, Control_c, 8, 7, 27
10, 60960, Note_on_c, 8, 81, 126
10, 60983, Control_c, 8, 7, 26
10, 60989, Note_on_c, 8, 81, 0
10, 60990, Note_on_c, 8, 81, 127
10, 61019, Note_on_c, 8, 81, 0
10, 61019, Control_c, 8, 7, 25
10, 61020, Note_on_c, 8, 81, 127
10, 61049, Note_on_c, 8, 81, 0
10, 61055, Control_c, 8, 7, 24
10, 61091, Control_c, 8, 7, 23
10, 61127, Control_c, 8, 7, 22
10, 61140, Note_on_c, 8, 81, 126
10, 61163, Control_c, 8, 7, 21
10, 61169, Note_on_c, 8, 81, 0
10, 61199, Control_c, 8, 7, 20
10, 61235, Control_c, 8, 7, 19
10, 61260, Note_on_c, 8, 81, 119
10, 61271, Control_c, 8, 7, 18
10, 61289, Note_on_c, 8, 81, 0
10, 61307, Control_c, 8, 7, 17
10, 61343, Control_c, 8, 7, 16
10, 61379, Control_c, 8, 7, 15
10, 61380, Note_on_c, 8, 81, 114
10, 61409, Note_on_c, 8, 81, 0
10, 61415, Control_c, 8, 7, 14
10, 61451, Control_c, 8, 7, 13
10, 61487, Control_c, 8, 7, 12
10, 61523, Control_c, 8, 7, 11
10, 61559, Control_c, 8, 7, 10
10, 61595, Control_c, 8, 7, 9
10, 61631, Control_c, 8, 7, 8
10, 61667, Control_c, 8, 7, 7
10, 61703, Control_c, 8, 7, 6
10, 61739, Control_c, 8, 7, 5
10, 61775, Control_c, 8, 7, 4
10, 61811, Control_c, 8, 7, 3
10, 61847, Control_c, 8, 7, 2
10, 61883, Control_c, 8, 7, 1
10, 61919, Control_c, 8, 7, 0
10, 61919, End_track
11, 0, Start_track
11, 0, MIDI_port, 0
11, 0, Title_t, "FRESH MIDIS"
11, 0, Control_c, 10, 7, 100
11, 0, Control_c, 10, 10, 63
11, 59040, Control_c, 10, 7, 80
11, 59075, Control_c, 10, 7, 79
11, 59111, Control_c, 10, 7, 78
11, 59147, Control_c, 10, 7, 77
11, 59183, Control_c, 10, 7, 76
11, 59219, Control_c, 10, 7, 75
11, 59255, Control_c, 10, 7, 74
11, 59291, Control_c, 10, 7, 73
11, 59327, Control_c, 10, 7, 72
11, 59363, Control_c, 10, 7, 71
11, 59399, Control_c, 10, 7, 70
11, 59435, Control_c, 10, 7, 69
11, 59471, Control_c, 10, 7, 68
11, 59507, Control_c, 10, 7, 67
11, 59543, Control_c, 10, 7, 66
11, 59579, Control_c, 10, 7, 65
11, 59615, Control_c, 10, 7, 64
11, 59651, Control_c, 10, 7, 63
11, 59687, Control_c, 10, 7, 62
11, 59723, Control_c, 10, 7, 61
11, 59759, Control_c, 10, 7, 60
11, 59795, Control_c, 10, 7, 59
11, 59831, Control_c, 10, 7, 58
11, 59867, Control_c, 10, 7, 57
11, 59903, Control_c, 10, 7, 56
11, 59939, Control_c, 10, 7, 55
11, 59975, Control_c, 10, 7, 54
11, 60011, Control_c, 10, 7, 53
11, 60047, Control_c, 10, 7, 52
11, 60083, Control_c, 10, 7, 51
11, 60119, Control_c, 10, 7, 50
11, 60155, Control_c, 10, 7, 49
11, 60191, Control_c, 10, 7, 48
11, 60227, Control_c, 10, 7, 47
11, 60263, Control_c, 10, 7, 46
11, 60299, Control_c, 10, 7, 45
11, 60335, Control_c, 10, 7, 44
11, 60371, Control_c, 10, 7, 43
11, 60407, Control_c, 10, 7, 42
11, 60443, Control_c, 10, 7, 41
11, 60479, Control_c, 10, 7, 40
11, 60515, Control_c, 10, 7, 39
11, 60551, Control_c, 10, 7, 38
11, 60587, Control_c, 10, 7, 37
11, 60623, Control_c, 10, 7, 36
11, 60659, Control_c, 10, 7, 35
11, 60695, Control_c, 10, 7, 34
11, 60731, Control_c, 10, 7, 33
11, 60767, Control_c, 10, 7, 32
11, 60803, Control_c, 10, 7, 31
11, 60839, Control_c, 10, 7, 30
11, 60875, Control_c, 10, 7, 29
11, 60911, Control_c, 10, 7, 28
11, 60947, Control_c, 10, 7, 27
11, 60983, Control_c, 10, 7, 26
11, 61019, Control_c, 10, 7, 25
11, 61055, Control_c, 10, 7, 24
11, 61091, Control_c, 10, 7, 23
11, 61127, Control_c, 10, 7, 22
11, 61163, Control_c, 10, 7, 21
11, 61199, Control_c, 10, 7, 20
11, 61235, Control_c, 10, 7, 19
11, 61271, Control_c, 10, 7, 18
11, 61307, Control_c, 10, 7, 17
11, 61343, Control_c, 10, 7, 16
11, 61379, Control_c, 10, 7, 15
11, 61415, Control_c, 10, 7, 14
11, 61451, Control_c, 10, 7, 13
11, 61487, Control_c, 10, 7, 12
11, 61523, Control_c, 10, 7, 11
11, 61559, Control_c, 10, 7, 10
11, 61595, Control_c, 10, 7, 9
11, 61631, Control_c, 10, 7, 8
11, 61667, Control_c, 10, 7, 7
11, 61703, Control_c, 10, 7, 6
11, 61739, Control_c, 10, 7, 5
11, 61775, Control_c, 10, 7, 4
11, 61811, Control_c, 10, 7, 3
11, 61847, Control_c, 10, 7, 2
11, 61883, Control_c, 10, 7, 1
11, 61919, Control_c, 10, 7, 0
11, 61919, End_track
12, 0, Start_track
12, 0, MIDI_port, 0
12, 0, Title_t, ".COM"
12, 0, Control_c, 11, 7, 100
12, 0, Control_c, 11, 10, 63
12, 59040, Control_c, 11, 7, 80
12, 59075, Control_c, 11, 7, 79
12, 59111, Control_c, 11, 7, 78
12, 59147, Control_c, 11, 7, 77
12, 59183, Control_c, 11, 7, 76
12, 59219, Control_c, 11, 7, 75
12, 59255, Control_c, 11, 7, 74
12, 59291, Control_c, 11, 7, 73
12, 59327, Control_c, 11, 7, 72
12, 59363, Control_c, 11, 7, 71
12, 59399, Control_c, 11, 7, 70
12, 59435, Control_c, 11, 7, 69
12, 59471, Control_c, 11, 7, 68
12, 59507, Control_c, 11, 7, 67
12, 59543, Control_c, 11, 7, 66
12, 59579, Control_c, 11, 7, 65
12, 59615, Control_c, 11, 7, 64
12, 59651, Control_c, 11, 7, 63
12, 59687, Control_c, 11, 7, 62
12, 59723, Control_c, 11, 7, 61
12, 59759, Control_c, 11, 7, 60
12, 59795, Control_c, 11, 7, 59
12, 59831, Control_c, 11, 7, 58
12, 59867, Control_c, 11, 7, 57
12, 59903, Control_c, 11, 7, 56
12, 59939, Control_c, 11, 7, 55
12, 59975, Control_c, 11, 7, 54
12, 60011, Control_c, 11, 7, 53
12, 60047, Control_c, 11, 7, 52
12, 60083, Control_c, 11, 7, 51
12, 60119, Control_c, 11, 7, 50
12, 60155, Control_c, 11, 7, 49
12, 60191, Control_c, 11, 7, 48
12, 60227, Control_c, 11, 7, 47
12, 60263, Control_c, 11, 7, 46
12, 60299, Control_c, 11, 7, 45
12, 60335, Control_c, 11, 7, 44
12, 60371, Control_c, 11, 7, 43
12, 60407, Control_c, 11, 7, 42
12, 60443, Control_c, 11, 7, 41
12, 60479, Control_c, 11, 7, 40
12, 60515, Control_c, 11, 7, 39
12, 60551, Control_c, 11, 7, 38
12, 60587, Control_c, 11, 7, 37
12, 60623, Control_c, 11, 7, 36
12, 60659, Control_c, 11, 7, 35
12, 60695, Control_c, 11, 7, 34
12, 60731, Control_c, 11, 7, 33
12, 60767, Control_c, 11, 7, 32
12, 60803, Control_c, 11, 7, 31
12, 60839, Control_c, 11, 7, 30
12, 60875, Control_c, 11, 7, 29
12, 60911, Control_c, 11, 7, 28
12, 60947, Control_c, 11, 7, 27
12, 60983, Control_c, 11, 7, 26
12, 61019, Control_c, 11, 7, 25
12, 61055, Control_c, 11, 7, 24
12, 61091, Control_c, 11, 7, 23
12, 61127, Control_c, 11, 7, 22
12, 61163, Control_c, 11, 7, 21
12, 61199, Control_c, 11, 7, 20
12, 61235, Control_c, 11, 7, 19
12, 61271, Control_c, 11, 7, 18
12, 61307, Control_c, 11, 7, 17
12, 61343, Control_c, 11, 7, 16
12, 61379, Control_c, 11, 7, 15
12, 61415, Control_c, 11, 7, 14
12, 61451, Control_c, 11, 7, 13
12, 61487, Control_c, 11, 7, 12
12, 61523, Control_c, 11, 7, 11
12, 61559, Control_c, 11, 7, 10
12, 61595, Control_c, 11, 7, 9
12, 61631, Control_c, 11, 7, 8
12, 61667, Control_c, 11, 7, 7
12, 61703, Control_c, 11, 7, 6
12, 61739, Control_c, 11, 7, 5
12, 61775, Control_c, 11, 7, 4
12, 61811, Control_c, 11, 7, 3
12, 61847, Control_c, 11, 7, 2
12, 61883, Control_c, 11, 7, 1
12, 61919, Control_c, 11, 7, 0
12, 61919, End_track
13, 0, Start_track
13, 0, MIDI_port, 0
13, 0, Program_c, 12, 4
13, 0, Control_c, 12, 7, 100
13, 0, Control_c, 12, 10, 90
13, 15360, Note_on_c, 12, 79, 127
13, 15479, Note_on_c, 12, 79, 0
13, 15480, Note_on_c, 12, 77, 127
13, 15539, Note_on_c, 12, 77, 0
13, 15540, Note_on_c, 12, 75, 127
13, 15599, Note_on_c, 12, 75, 0
13, 15600, Note_on_c, 12, 75, 127
13, 15659, Note_on_c, 12, 75, 0
13, 15660, Note_on_c, 12, 72, 127
13, 15719, Note_on_c, 12, 72, 0
13, 15720, Note_on_c, 12, 75, 127
13, 15839, Note_on_c, 12, 75, 0
13, 15840, Note_on_c, 12, 75, 125
13, 15930, Note_on_c, 12, 72, 86
13, 15959, Note_on_c, 12, 72, 0
13, 15959, Note_on_c, 12, 75, 0
13, 15960, Note_on_c, 12, 75, 124
13, 16079, Note_on_c, 12, 75, 0
13, 16080, Note_on_c, 12, 72, 127
13, 16199, Note_on_c, 12, 72, 0
13, 16200, Note_on_c, 12, 72, 127
13, 16259, Note_on_c, 12, 72, 0
13, 16260, Note_on_c, 12, 75, 127
13, 16319, Note_on_c, 12, 75, 0
13, 16320, Note_on_c, 12, 79, 127
13, 16439, Note_on_c, 12, 79, 0
13, 16440, Note_on_c, 12, 77, 127
13, 16499, Note_on_c, 12, 77, 0
13, 16500, Note_on_c, 12, 75, 127
13, 16559, Note_on_c, 12, 75, 0
13, 16560, Note_on_c, 12, 75, 127
13, 16619, Note_on_c, 12, 75, 0
13, 16620, Note_on_c, 12, 72, 127
13, 16679, Note_on_c, 12, 72, 0
13, 16680, Note_on_c, 12, 75, 127
13, 16799, Note_on_c, 12, 75, 0
13, 16800, Note_on_c, 12, 75, 127
13, 16890, Note_on_c, 12, 72, 86
13, 16919, Note_on_c, 12, 72, 0
13, 16919, Note_on_c, 12, 75, 0
13, 16920, Note_on_c, 12, 75, 125
13, 17039, Note_on_c, 12, 75, 0
13, 17040, Note_on_c, 12, 72, 127
13, 17159, Note_on_c, 12, 72, 0
13, 17160, Note_on_c, 12, 72, 127
13, 17219, Note_on_c, 12, 72, 0
13, 17220, Note_on_c, 12, 75, 127
13, 17279, Note_on_c, 12, 75, 0
13, 17280, Note_on_c, 12, 79, 127
13, 17399, Note_on_c, 12, 79, 0
13, 17400, Note_on_c, 12, 77, 127
13, 17459, Note_on_c, 12, 77, 0
13, 17460, Note_on_c, 12, 75, 127
13, 17519, Note_on_c, 12, 75, 0
13, 17520, Note_on_c, 12, 75, 127
13, 17579, Note_on_c, 12, 75, 0
13, 17580, Note_on_c, 12, 72, 127
13, 17639, Note_on_c, 12, 72, 0
13, 17640, Note_on_c, 12, 75, 126
13, 17759, Note_on_c, 12, 75, 0
13, 17760, Note_on_c, 12, 75, 126
13, 17850, Note_on_c, 12, 72, 90
13, 17879, Note_on_c, 12, 72, 0
13, 17879, Note_on_c, 12, 75, 0
13, 17880, Note_on_c, 12, 75, 123
13, 17999, Note_on_c, 12, 75, 0
13, 18000, Note_on_c, 12, 72, 127
13, 18119, Note_on_c, 12, 72, 0
13, 18120, Note_on_c, 12, 72, 127
13, 18179, Note_on_c, 12, 72, 0
13, 18180, Note_on_c, 12, 75, 127
13, 18239, Note_on_c, 12, 75, 0
13, 18240, Note_on_c, 12, 77, 127
13, 18359, Note_on_c, 12, 77, 0
13, 18360, Note_on_c, 12, 79, 127
13, 18390, Note_on_c, 12, 77, 79
13, 18419, Note_on_c, 12, 77, 0
13, 18449, Note_on_c, 12, 79, 0
13, 18450, Note_on_c, 12, 79, 82
13, 18479, Note_on_c, 12, 79, 0
13, 18480, Note_on_c, 12, 77, 124
13, 18570, Note_on_c, 12, 72, 81
13, 18599, Note_on_c, 12, 72, 0
13, 18599, Note_on_c, 12, 77, 0
13, 18600, Note_on_c, 12, 79, 126
13, 18600, Note_on_c, 12, 72, 126
13, 18719, Note_on_c, 12, 72, 0
13, 18720, Note_on_c, 12, 77, 126
13, 18809, Note_on_c, 12, 77, 0
13, 18810, Note_on_c, 12, 75, 126
13, 18840, Note_on_c, 12, 72, 126
13, 18869, Note_on_c, 12, 75, 0
13, 19079, Note_on_c, 12, 79, 0
13, 19109, Note_on_c, 12, 72, 0
13, 19200, Note_on_c, 12, 79, 127
13, 19319, Note_on_c, 12, 79, 0
13, 19320, Note_on_c, 12, 77, 127
13, 19379, Note_on_c, 12, 77, 0
13, 19380, Note_on_c, 12, 75, 127
13, 19529, Note_on_c, 12, 75, 0
13, 19560, Note_on_c, 12, 75, 127
13, 19679, Note_on_c, 12, 75, 0
13, 19680, Note_on_c, 12, 75, 125
13, 19799, Note_on_c, 12, 75, 0
13, 19800, Note_on_c, 12, 75, 124
13, 19919, Note_on_c, 12, 75, 0
13, 19920, Note_on_c, 12, 72, 127
13, 20039, Note_on_c, 12, 72, 0
13, 20160, Note_on_c, 12, 79, 127
13, 20279, Note_on_c, 12, 79, 0
13, 20280, Note_on_c, 12, 77, 127
13, 20339, Note_on_c, 12, 77, 0
13, 20340, Note_on_c, 12, 75, 127
13, 20399, Note_on_c, 12, 75, 0
13, 20400, Note_on_c, 12, 75, 127
13, 20459, Note_on_c, 12, 75, 0
13, 20460, Note_on_c, 12, 72, 127
13, 20519, Note_on_c, 12, 72, 0
13, 20520, Note_on_c, 12, 75, 127
13, 20580, Note_on_c, 12, 72, 127
13, 20639, Note_on_c, 12, 72, 0
13, 20639, Note_on_c, 12, 75, 0
13, 20640, Note_on_c, 12, 75, 127
13, 20759, Note_on_c, 12, 75, 0
13, 20760, Note_on_c, 12, 75, 125
13, 20879, Note_on_c, 12, 75, 0
13, 20880, Note_on_c, 12, 72, 127
13, 20999, Note_on_c, 12, 72, 0
13, 21120, Note_on_c, 12, 79, 127
13, 21239, Note_on_c, 12, 79, 0
13, 21240, Note_on_c, 12, 77, 127
13, 21299, Note_on_c, 12, 77, 0
13, 21300, Note_on_c, 12, 75, 127
13, 21359, Note_on_c, 12, 75, 0
13, 21360, Note_on_c, 12, 75, 127
13, 21479, Note_on_c, 12, 75, 0
13, 21480, Note_on_c, 12, 72, 126
13, 21539, Note_on_c, 12, 72, 0
13, 21540, Note_on_c, 12, 75, 126
13, 21659, Note_on_c, 12, 75, 0
13, 21660, Note_on_c, 12, 72, 126
13, 21719, Note_on_c, 12, 72, 0
13, 21720, Note_on_c, 12, 75, 123
13, 21839, Note_on_c, 12, 75, 0
13, 21840, Note_on_c, 12, 72, 127
13, 21959, Note_on_c, 12, 72, 0
13, 21960, Note_on_c, 12, 72, 127
13, 22019, Note_on_c, 12, 72, 0
13, 22020, Note_on_c, 12, 75, 127
13, 22079, Note_on_c, 12, 75, 0
13, 22080, Note_on_c, 12, 77, 127
13, 22199, Note_on_c, 12, 77, 0
13, 22200, Note_on_c, 12, 79, 127
13, 22230, Note_on_c, 12, 77, 79
13, 22259, Note_on_c, 12, 77, 0
13, 22289, Note_on_c, 12, 79, 0
13, 22290, Note_on_c, 12, 79, 82
13, 22319, Note_on_c, 12, 79, 0
13, 22320, Note_on_c, 12, 77, 124
13, 22410, Note_on_c, 12, 72, 81
13, 22439, Note_on_c, 12, 72, 0
13, 22439, Note_on_c, 12, 77, 0
13, 22440, Note_on_c, 12, 72, 126
13, 22799, Note_on_c, 12, 72, 0
13, 34560, Note_on_c, 12, 79, 127
13, 34679, Note_on_c, 12, 79, 0
13, 34680, Note_on_c, 12, 77, 127
13, 34739, Note_on_c, 12, 77, 0
13, 34740, Note_on_c, 12, 75, 127
13, 34799, Note_on_c, 12, 75, 0
13, 34800, Note_on_c, 12, 75, 127
13, 34859, Note_on_c, 12, 75, 0
13, 34860, Note_on_c, 12, 72, 127
13, 34919, Note_on_c, 12, 72, 0
13, 34920, Note_on_c, 12, 75, 127
13, 35039, Note_on_c, 12, 75, 0
13, 35040, Note_on_c, 12, 75, 125
13, 35159, Note_on_c, 12, 75, 0
13, 35160, Note_on_c, 12, 75, 124
13, 35279, Note_on_c, 12, 75, 0
13, 35280, Note_on_c, 12, 72, 127
13, 35339, Note_on_c, 12, 72, 0
13, 35340, Note_on_c, 12, 72, 127
13, 35369, Note_on_c, 12, 72, 0
13, 35400, Note_on_c, 12, 72, 127
13, 35459, Note_on_c, 12, 72, 0
13, 35460, Note_on_c, 12, 75, 127
13, 35519, Note_on_c, 12, 75, 0
13, 35520, Note_on_c, 12, 79, 127
13, 35639, Note_on_c, 12, 79, 0
13, 35640, Note_on_c, 12, 77, 127
13, 35699, Note_on_c, 12, 77, 0
13, 35700, Note_on_c, 12, 75, 127
13, 35759, Note_on_c, 12, 75, 0
13, 35760, Note_on_c, 12, 75, 127
13, 35819, Note_on_c, 12, 75, 0
13, 35820, Note_on_c, 12, 72, 127
13, 35879, Note_on_c, 12, 72, 0
13, 35880, Note_on_c, 12, 75, 127
13, 35999, Note_on_c, 12, 75, 0
13, 36000, Note_on_c, 12, 75, 127
13, 36119, Note_on_c, 12, 75, 0
13, 36120, Note_on_c, 12, 75, 125
13, 36239, Note_on_c, 12, 75, 0
13, 36240, Note_on_c, 12, 72, 127
13, 36359, Note_on_c, 12, 72, 0
13, 36360, Note_on_c, 12, 79, 127
13, 36479, Note_on_c, 12, 79, 0
13, 36480, Note_on_c, 12, 77, 127
13, 36539, Note_on_c, 12, 77, 0
13, 36540, Note_on_c, 12, 75, 127
13, 36599, Note_on_c, 12, 75, 0
13, 36600, Note_on_c, 12, 75, 127
13, 36659, Note_on_c, 12, 75, 0
13, 36660, Note_on_c, 12, 72, 127
13, 36719, Note_on_c, 12, 72, 0
13, 36720, Note_on_c, 12, 75, 127
13, 36779, Note_on_c, 12, 75, 0
13, 36780, Note_on_c, 12, 72, 127
13, 36839, Note_on_c, 12, 72, 0
13, 36840, Note_on_c, 12, 75, 126
13, 36899, Note_on_c, 12, 75, 0
13, 36900, Note_on_c, 12, 72, 127
13, 36959, Note_on_c, 12, 72, 0
13, 36960, Note_on_c, 12, 75, 126
13, 37079, Note_on_c, 12, 75, 0
13, 37080, Note_on_c, 12, 75, 123
13, 37199, Note_on_c, 12, 75, 0
13, 37200, Note_on_c, 12, 72, 127
13, 37319, Note_on_c, 12, 72, 0
13, 37320, Note_on_c, 12, 72, 127
13, 37379, Note_on_c, 12, 72, 0
13, 37380, Note_on_c, 12, 75, 127
13, 37439, Note_on_c, 12, 75, 0
13, 37440, Note_on_c, 12, 77, 127
13, 37559, Note_on_c, 12, 77, 0
13, 37560, Note_on_c, 12, 79, 127
13, 37590, Note_on_c, 12, 77, 79
13, 37619, Note_on_c, 12, 77, 0
13, 37649, Note_on_c, 12, 79, 0
13, 37650, Note_on_c, 12, 79, 82
13, 37679, Note_on_c, 12, 79, 0
13, 37680, Note_on_c, 12, 77, 124
13, 37770, Note_on_c, 12, 72, 81
13, 37799, Note_on_c, 12, 72, 0
13, 37799, Note_on_c, 12, 77, 0
13, 37800, Note_on_c, 12, 79, 126
13, 37800, Note_on_c, 12, 72, 126
13, 37919, Note_on_c, 12, 72, 0
13, 37920, Note_on_c, 12, 77, 126
13, 38009, Note_on_c, 12, 77, 0
13, 38010, Note_on_c, 12, 75, 126
13, 38040, Note_on_c, 12, 72, 126
13, 38069, Note_on_c, 12, 75, 0
13, 38279, Note_on_c, 12, 79, 0
13, 38309, Note_on_c, 12, 72, 0
13, 38400, Note_on_c, 12, 79, 127
13, 38519, Note_on_c, 12, 79, 0
13, 38520, Note_on_c, 12, 77, 127
13, 38579, Note_on_c, 12, 77, 0
13, 38580, Note_on_c, 12, 75, 127
13, 38729, Note_on_c, 12, 75, 0
13, 38760, Note_on_c, 12, 75, 127
13, 38879, Note_on_c, 12, 75, 0
13, 38880, Note_on_c, 12, 75, 125
13, 38999, Note_on_c, 12, 75, 0
13, 39000, Note_on_c, 12, 75, 124
13, 39119, Note_on_c, 12, 75, 0
13, 39120, Note_on_c, 12, 72, 127
13, 39239, Note_on_c, 12, 72, 0
13, 39360, Note_on_c, 12, 79, 127
13, 39479, Note_on_c, 12, 79, 0
13, 39480, Note_on_c, 12, 77, 127
13, 39539, Note_on_c, 12, 77, 0
13, 39540, Note_on_c, 12, 75, 127
13, 39599, Note_on_c, 12, 75, 0
13, 39600, Note_on_c, 12, 75, 127
13, 39659, Note_on_c, 12, 75, 0
13, 39660, Note_on_c, 12, 72, 127
13, 39719, Note_on_c, 12, 72, 0
13, 39720, Note_on_c, 12, 75, 127
13, 39780, Note_on_c, 12, 72, 127
13, 39839, Note_on_c, 12, 72, 0
13, 39839, Note_on_c, 12, 75, 0
13, 39840, Note_on_c, 12, 75, 127
13, 39959, Note_on_c, 12, 75, 0
13, 39960, Note_on_c, 12, 75, 125
13, 40079, Note_on_c, 12, 75, 0
13, 40080, Note_on_c, 12, 72, 127
13, 40199, Note_on_c, 12, 72, 0
13, 40200, Note_on_c, 12, 72, 127
13, 40259, Note_on_c, 12, 72, 0
13, 40260, Note_on_c, 12, 75, 127
13, 40319, Note_on_c, 12, 75, 0
13, 40320, Note_on_c, 12, 79, 127
13, 40439, Note_on_c, 12, 79, 0
13, 40440, Note_on_c, 12, 77, 127
13, 40499, Note_on_c, 12, 77, 0
13, 40500, Note_on_c, 12, 75, 127
13, 40559, Note_on_c, 12, 75, 0
13, 40560, Note_on_c, 12, 75, 127
13, 40679, Note_on_c, 12, 75, 0
13, 40680, Note_on_c, 12, 72, 126
13, 40739, Note_on_c, 12, 72, 0
13, 40740, Note_on_c, 12, 75, 126
13, 40859, Note_on_c, 12, 75, 0
13, 40860, Note_on_c, 12, 72, 126
13, 40919, Note_on_c, 12, 72, 0
13, 40920, Note_on_c, 12, 75, 123
13, 41039, Note_on_c, 12, 75, 0
13, 41040, Note_on_c, 12, 72, 127
13, 41159, Note_on_c, 12, 72, 0
13, 41160, Note_on_c, 12, 72, 127
13, 41219, Note_on_c, 12, 72, 0
13, 41220, Note_on_c, 12, 75, 127
13, 41279, Note_on_c, 12, 75, 0
13, 41280, Note_on_c, 12, 77, 127
13, 41399, Note_on_c, 12, 77, 0
13, 41400, Note_on_c, 12, 79, 127
13, 41430, Note_on_c, 12, 77, 79
13, 41459, Note_on_c, 12, 77, 0
13, 41489, Note_on_c, 12, 79, 0
13, 41490, Note_on_c, 12, 79, 82
13, 41519, Note_on_c, 12, 79, 0
13, 41520, Note_on_c, 12, 77, 124
13, 41610, Note_on_c, 12, 72, 81
13, 41639, Note_on_c, 12, 72, 0
13, 41639, Note_on_c, 12, 77, 0
13, 41640, Note_on_c, 12, 79, 126
13, 41640, Note_on_c, 12, 72, 126
13, 41759, Note_on_c, 12, 72, 0
13, 41760, Note_on_c, 12, 77, 126
13, 41820, Note_on_c, 12, 87, 127
13, 41849, Note_on_c, 12, 77, 0
13, 41850, Note_on_c, 12, 75, 126
13, 41880, Note_on_c, 12, 72, 126
13, 41909, Note_on_c, 12, 75, 0
13, 41939, Note_on_c, 12, 87, 0
13, 41940, Note_on_c, 12, 86, 127
13, 42059, Note_on_c, 12, 86, 0
13, 42060, Note_on_c, 12, 82, 127
13, 42119, Note_on_c, 12, 79, 0
13, 42149, Note_on_c, 12, 82, 0
13, 42149, Note_on_c, 12, 72, 0
13, 42180, Note_on_c, 12, 79, 127
13, 42239, Note_on_c, 12, 79, 0
13, 42240, Note_on_c, 12, 82, 127
13, 42240, Note_on_c, 12, 84, 127
13, 42359, Note_on_c, 12, 82, 0
13, 42360, Note_on_c, 12, 82, 127
13, 42449, Note_on_c, 12, 84, 0
13, 42479, Note_on_c, 12, 82, 0
13, 42480, Note_on_c, 12, 79, 127
13, 42599, Note_on_c, 12, 79, 0
13, 42600, Note_on_c, 12, 84, 127
13, 42719, Note_on_c, 12, 84, 0
13, 42720, Note_on_c, 12, 82, 127
13, 42929, Note_on_c, 12, 82, 0
13, 42960, Note_on_c, 12, 79, 127
13, 43079, Note_on_c, 12, 79, 0
13, 43080, Note_on_c, 12, 80, 127
13, 43199, Note_on_c, 12, 80, 0
13, 43200, Note_on_c, 12, 82, 127
13, 43319, Note_on_c, 12, 82, 0
13, 43320, Note_on_c, 12, 82, 127
13, 43439, Note_on_c, 12, 82, 0
13, 43440, Note_on_c, 12, 79, 127
13, 43559, Note_on_c, 12, 79, 0
13, 43560, Note_on_c, 12, 84, 127
13, 43679, Note_on_c, 12, 84, 0
13, 43680, Note_on_c, 12, 82, 127
13, 43920, Note_on_c, 12, 79, 127
13, 43979, Note_on_c, 12, 79, 0
13, 43979, Note_on_c, 12, 82, 0
13, 43980, Note_on_c, 12, 75, 127
13, 44039, Note_on_c, 12, 75, 0
13, 44040, Note_on_c, 12, 77, 127
13, 44160, Note_on_c, 12, 79, 77
13, 44219, Note_on_c, 12, 77, 0
13, 44279, Note_on_c, 12, 79, 0
13, 44280, Note_on_c, 12, 77, 59
13, 44399, Note_on_c, 12, 77, 0
13, 44400, Note_on_c, 12, 79, 43
13, 44519, Note_on_c, 12, 79, 0
13, 44520, Note_on_c, 12, 77, 28
13, 44639, Note_on_c, 12, 77, 0
13, 44640, Note_on_c, 12, 79, 13
13, 44759, Note_on_c, 12, 79, 0
13, 59040, Control_c, 12, 7, 80
13, 59075, Control_c, 12, 7, 79
13, 59111, Control_c, 12, 7, 78
13, 59147, Control_c, 12, 7, 77
13, 59183, Control_c, 12, 7, 76
13, 59219, Control_c, 12, 7, 75
13, 59255, Control_c, 12, 7, 74
13, 59291, Control_c, 12, 7, 73
13, 59327, Control_c, 12, 7, 72
13, 59363, Control_c, 12, 7, 71
13, 59399, Control_c, 12, 7, 70
13, 59435, Control_c, 12, 7, 69
13, 59471, Control_c, 12, 7, 68
13, 59507, Control_c, 12, 7, 67
13, 59543, Control_c, 12, 7, 66
13, 59579, Control_c, 12, 7, 65
13, 59615, Control_c, 12, 7, 64
13, 59651, Control_c, 12, 7, 63
13, 59687, Control_c, 12, 7, 62
13, 59723, Control_c, 12, 7, 61
13, 59759, Control_c, 12, 7, 60
13, 59795, Control_c, 12, 7, 59
13, 59831, Control_c, 12, 7, 58
13, 59867, Control_c, 12, 7, 57
13, 59903, Control_c, 12, 7, 56
13, 59939, Control_c, 12, 7, 55
13, 59975, Control_c, 12, 7, 54
13, 60011, Control_c, 12, 7, 53
13, 60047, Control_c, 12, 7, 52
13, 60083, Control_c, 12, 7, 51
13, 60119, Control_c, 12, 7, 50
13, 60155, Control_c, 12, 7, 49
13, 60191, Control_c, 12, 7, 48
13, 60227, Control_c, 12, 7, 47
13, 60263, Control_c, 12, 7, 46
13, 60299, Control_c, 12, 7, 45
13, 60335, Control_c, 12, 7, 44
13, 60371, Control_c, 12, 7, 43
13, 60407, Control_c, 12, 7, 42
13, 60443, Control_c, 12, 7, 41
13, 60479, Control_c, 12, 7, 40
13, 60515, Control_c, 12, 7, 39
13, 60551, Control_c, 12, 7, 38
13, 60587, Control_c, 12, 7, 37
13, 60623, Control_c, 12, 7, 36
13, 60659, Control_c, 12, 7, 35
13, 60695, Control_c, 12, 7, 34
13, 60731, Control_c, 12, 7, 33
13, 60767, Control_c, 12, 7, 32
13, 60803, Control_c, 12, 7, 31
13, 60839, Control_c, 12, 7, 30
13, 60875, Control_c, 12, 7, 29
13, 60911, Control_c, 12, 7, 28
13, 60947, Control_c, 12, 7, 27
13, 60983, Control_c, 12, 7, 26
13, 61019, Control_c, 12, 7, 25
13, 61055, Control_c, 12, 7, 24
13, 61091, Control_c, 12, 7, 23
13, 61127, Control_c, 12, 7, 22
13, 61163, Control_c, 12, 7, 21
13, 61199, Control_c, 12, 7, 20
13, 61235, Control_c, 12, 7, 19
13, 61271, Control_c, 12, 7, 18
13, 61307, Control_c, 12, 7, 17
13, 61343, Control_c, 12, 7, 16
13, 61379, Control_c, 12, 7, 15
13, 61415, Control_c, 12, 7, 14
13, 61451, Control_c, 12, 7, 13
13, 61487, Control_c, 12, 7, 12
13, 61523, Control_c, 12, 7, 11
13, 61559, Control_c, 12, 7, 10
13, 61595, Control_c, 12, 7, 9
13, 61631, Control_c, 12, 7, 8
13, 61667, Control_c, 12, 7, 7
13, 61703, Control_c, 12, 7, 6
13, 61739, Control_c, 12, 7, 5
13, 61775, Control_c, 12, 7, 4
13, 61811, Control_c, 12, 7, 3
13, 61847, Control_c, 12, 7, 2
13, 61883, Control_c, 12, 7, 1
13, 61919, Control_c, 12, 7, 0
13, 61919, End_track
14, 0, Start_track
14, 0, MIDI_port, 0
14, 0, Program_c, 13, 54
14, 0, Control_c, 13, 7, 80
14, 0, Control_c, 13, 10, 120
14, 10484, Control_c, 13, 95, 121
14, 10560, Note_on_c, 13, 70, 100
14, 10560, Note_on_c, 13, 70, 127
14, 10649, Note_on_c, 13, 70, 0
14, 10679, Note_on_c, 13, 70, 0
14, 10800, Note_on_c, 13, 65, 127
14, 10919, Note_on_c, 13, 65, 0
14, 10920, Note_on_c, 13, 63, 127
14, 10979, Note_on_c, 13, 63, 0
14, 10980, Note_on_c, 13, 60, 127
14, 11039, Note_on_c, 13, 60, 0
14, 11220, Note_on_c, 13, 65, 127
14, 11249, Note_on_c, 13, 65, 0
14, 11250, Note_on_c, 13, 63, 127
14, 11279, Note_on_c, 13, 63, 0
14, 11280, Note_on_c, 13, 63, 127
14, 11369, Control_c, 13, 95, 120
14, 11374, Control_c, 13, 95, 118
14, 11389, Control_c, 13, 95, 117
14, 11429, Note_on_c, 13, 63, 0
14, 22080, Note_on_c, 13, 65, 127
14, 22199, Note_on_c, 13, 65, 0
14, 22200, Note_on_c, 13, 70, 127
14, 22230, Note_on_c, 13, 65, 79
14, 22259, Note_on_c, 13, 65, 0
14, 22289, Note_on_c, 13, 70, 0
14, 22290, Note_on_c, 13, 70, 82
14, 22319, Note_on_c, 13, 70, 0
14, 22320, Note_on_c, 13, 65, 126
14, 22379, Note_on_c, 13, 65, 0
14, 22410, Note_on_c, 13, 70, 126
14, 22440, Note_on_c, 13, 60, 126
14, 22499, Note_on_c, 13, 70, 0
14, 22559, Note_on_c, 13, 60, 0
14, 22800, Note_on_c, 13, 65, 99
14, 22859, Note_on_c, 13, 65, 0
14, 22890, Note_on_c, 13, 70, 91
14, 22920, Note_on_c, 13, 60, 84
14, 23009, Note_on_c, 13, 70, 0
14, 23039, Note_on_c, 13, 60, 0
14, 27180, Note_on_c, 13, 70, 127
14, 27209, Note_on_c, 13, 70, 0
14, 27240, Note_on_c, 13, 70, 127
14, 27269, Note_on_c, 13, 70, 0
14, 27300, Note_on_c, 13, 70, 127
14, 27329, Note_on_c, 13, 70, 0
14, 27360, Note_on_c, 13, 70, 127
14, 27449, Note_on_c, 13, 70, 0
14, 40980, Note_on_c, 13, 72, 127
14, 41099, Note_on_c, 13, 72, 0
14, 41100, Note_on_c, 13, 70, 127
14, 41159, Note_on_c, 13, 70, 0
14, 41160, Note_on_c, 13, 72, 127
14, 41339, Note_on_c, 13, 72, 0
14, 41820, Note_on_c, 13, 75, 127
14, 41939, Note_on_c, 13, 75, 0
14, 41940, Note_on_c, 13, 74, 127
14, 42059, Note_on_c, 13, 74, 0
14, 42060, Note_on_c, 13, 70, 127
14, 42149, Note_on_c, 13, 70, 0
14, 42180, Note_on_c, 13, 67, 127
14, 42239, Note_on_c, 13, 67, 0
14, 42240, Note_on_c, 13, 72, 127
14, 42449, Note_on_c, 13, 72, 0
14, 53054, Note_on_c, 13, 75, 127
14, 53173, Note_on_c, 13, 75, 0
14, 53174, Note_on_c, 13, 74, 127
14, 53293, Note_on_c, 13, 74, 0
14, 53294, Note_on_c, 13, 70, 127
14, 53383, Note_on_c, 13, 70, 0
14, 53414, Note_on_c, 13, 67, 127
14, 53473, Note_on_c, 13, 67, 0
14, 53474, Note_on_c, 13, 72, 127
14, 53683, Note_on_c, 13, 72, 0
14, 55440, Note_on_c, 13, 70, 127
14, 55559, Note_on_c, 13, 70, 0
14, 55560, Note_on_c, 13, 67, 127
14, 55679, Note_on_c, 13, 67, 0
14, 55680, Note_on_c, 13, 72, 127
14, 55799, Note_on_c, 13, 72, 0
14, 57240, Note_on_c, 13, 72, 126
14, 57299, Note_on_c, 13, 72, 0
14, 57300, Note_on_c, 13, 72, 126
14, 57419, Note_on_c, 13, 72, 0
14, 57420, Note_on_c, 13, 70, 126
14, 57539, Note_on_c, 13, 70, 0
14, 57540, Note_on_c, 13, 67, 125
14, 57599, Note_on_c, 13, 67, 0
14, 57600, Note_on_c, 13, 72, 125
14, 57720, Note_on_c, 13, 70, 125
14, 57749, Note_on_c, 13, 72, 0
14, 57779, Note_on_c, 13, 70, 0
14, 57780, Note_on_c, 13, 70, 125
14, 57809, Note_on_c, 13, 70, 0
14, 57810, Note_on_c, 13, 72, 125
14, 57900, Note_on_c, 13, 70, 125
14, 57929, Note_on_c, 13, 70, 0
14, 57929, Note_on_c, 13, 72, 0
14, 57960, Note_on_c, 13, 70, 125
14, 58019, Note_on_c, 13, 70, 0
14, 58020, Note_on_c, 13, 70, 124
14, 58049, Note_on_c, 13, 70, 0
14, 58050, Note_on_c, 13, 72, 123
14, 58140, Note_on_c, 13, 70, 123
14, 58169, Note_on_c, 13, 70, 0
14, 58169, Note_on_c, 13, 72, 0
14, 58200, Note_on_c, 13, 70, 117
14, 58259, Note_on_c, 13, 70, 0
14, 58260, Note_on_c, 13, 70, 113
14, 58289, Note_on_c, 13, 70, 0
14, 58290, Note_on_c, 13, 72, 110
14, 58380, Note_on_c, 13, 70, 109
14, 58409, Note_on_c, 13, 70, 0
14, 58409, Note_on_c, 13, 72, 0
14, 58440, Note_on_c, 13, 70, 101
14, 58499, Note_on_c, 13, 70, 0
14, 58500, Note_on_c, 13, 70, 101
14, 58529, Note_on_c, 13, 70, 0
14, 58530, Note_on_c, 13, 72, 100
14, 58620, Note_on_c, 13, 70, 89
14, 58649, Note_on_c, 13, 70, 0
14, 58649, Note_on_c, 13, 72, 0
14, 58680, Note_on_c, 13, 70, 84
14, 58739, Note_on_c, 13, 70, 0
14, 58740, Note_on_c, 13, 70, 81
14, 58769, Note_on_c, 13, 70, 0
14, 58770, Note_on_c, 13, 72, 75
14, 58860, Note_on_c, 13, 70, 68
14, 58889, Note_on_c, 13, 70, 0
14, 58889, Note_on_c, 13, 72, 0
14, 58920, Note_on_c, 13, 70, 66
14, 58979, Note_on_c, 13, 70, 0
14, 58980, Note_on_c, 13, 70, 63
14, 59009, Note_on_c, 13, 70, 0
14, 59010, Note_on_c, 13, 72, 62
14, 59040, Control_c, 13, 7, 80
14, 59075, Control_c, 13, 7, 79
14, 59099, Note_on_c, 13, 72, 0
14, 59100, Note_on_c, 13, 70, 60
14, 59111, Control_c, 13, 7, 78
14, 59129, Note_on_c, 13, 70, 0
14, 59147, Control_c, 13, 7, 77
14, 59160, Note_on_c, 13, 70, 59
14, 59183, Control_c, 13, 7, 76
14, 59219, Note_on_c, 13, 70, 0
14, 59219, Control_c, 13, 7, 75
14, 59220, Note_on_c, 13, 70, 58
14, 59249, Note_on_c, 13, 70, 0
14, 59250, Note_on_c, 13, 72, 58
14, 59255, Control_c, 13, 7, 74
14, 59291, Control_c, 13, 7, 73
14, 59327, Control_c, 13, 7, 72
14, 59340, Note_on_c, 13, 70, 58
14, 59363, Control_c, 13, 7, 71
14, 59369, Note_on_c, 13, 70, 0
14, 59369, Note_on_c, 13, 72, 0
14, 59399, Control_c, 13, 7, 70
14, 59400, Note_on_c, 13, 70, 56
14, 59435, Control_c, 13, 7, 69
14, 59459, Note_on_c, 13, 70, 0
14, 59460, Note_on_c, 13, 70, 55
14, 59471, Control_c, 13, 7, 68
14, 59489, Note_on_c, 13, 70, 0
14, 59490, Note_on_c, 13, 72, 55
14, 59507, Control_c, 13, 7, 67
14, 59543, Control_c, 13, 7, 66
14, 59579, Control_c, 13, 7, 65
14, 59580, Note_on_c, 13, 70, 43
14, 59609, Note_on_c, 13, 70, 0
14, 59609, Note_on_c, 13, 72, 0
14, 59615, Control_c, 13, 7, 64
14, 59640, Note_on_c, 13, 70, 42
14, 59651, Control_c, 13, 7, 63
14, 59687, Control_c, 13, 7, 62
14, 59699, Note_on_c, 13, 70, 0
14, 59700, Note_on_c, 13, 70, 42
14, 59723, Control_c, 13, 7, 61
14, 59729, Note_on_c, 13, 70, 0
14, 59730, Note_on_c, 13, 72, 41
14, 59759, Control_c, 13, 7, 60
14, 59795, Control_c, 13, 7, 59
14, 59820, Note_on_c, 13, 70, 39
14, 59831, Control_c, 13, 7, 58
14, 59849, Note_on_c, 13, 70, 0
14, 59849, Note_on_c, 13, 72, 0
14, 59867, Control_c, 13, 7, 57
14, 59880, Note_on_c, 13, 70, 38
14, 59903, Control_c, 13, 7, 56
14, 59939, Note_on_c, 13, 70, 0
14, 59939, Control_c, 13, 7, 55
14, 59940, Note_on_c, 13, 70, 38
14, 59969, Note_on_c, 13, 70, 0
14, 59970, Note_on_c, 13, 72, 38
14, 59975, Control_c, 13, 7, 54
14, 60011, Control_c, 13, 7, 53
14, 60047, Control_c, 13, 7, 52
14, 60060, Note_on_c, 13, 70, 38
14, 60083, Control_c, 13, 7, 51
14, 60089, Note_on_c, 13, 70, 0
14, 60089, Note_on_c, 13, 72, 0
14, 60119, Control_c, 13, 7, 50
14, 60120, Note_on_c, 13, 70, 35
14, 60155, Control_c, 13, 7, 49
14, 60179, Note_on_c, 13, 70, 0
14, 60180, Note_on_c, 13, 70, 31
14, 60191, Control_c, 13, 7, 48
14, 60209, Note_on_c, 13, 70, 0
14, 60210, Note_on_c, 13, 72, 30
14, 60227, Control_c, 13, 7, 47
14, 60263, Control_c, 13, 7, 46
14, 60299, Control_c, 13, 7, 45
14, 60300, Note_on_c, 13, 70, 23
14, 60329, Note_on_c, 13, 70, 0
14, 60329, Note_on_c, 13, 72, 0
14, 60335, Control_c, 13, 7, 44
14, 60360, Note_on_c, 13, 70, 21
14, 60371, Control_c, 13, 7, 43
14, 60407, Control_c, 13, 7, 42
14, 60419, Note_on_c, 13, 70, 0
14, 60420, Note_on_c, 13, 70, 19
14, 60443, Control_c, 13, 7, 41
14, 60449, Note_on_c, 13, 70, 0
14, 60479, Control_c, 13, 7, 40
14, 60515, Control_c, 13, 7, 39
14, 60551, Control_c, 13, 7, 38
14, 60587, Control_c, 13, 7, 37
14, 60623, Control_c, 13, 7, 36
14, 60659, Control_c, 13, 7, 35
14, 60695, Control_c, 13, 7, 34
14, 60731, Control_c, 13, 7, 33
14, 60767, Control_c, 13, 7, 32
14, 60803, Control_c, 13, 7, 31
14, 60839, Control_c, 13, 7, 30
14, 60875, Control_c, 13, 7, 29
14, 60911, Control_c, 13, 7, 28
14, 60947, Control_c, 13, 7, 27
14, 60983, Control_c, 13, 7, 26
14, 61019, Control_c, 13, 7, 25
14, 61055, Control_c, 13, 7, 24
14, 61091, Control_c, 13, 7, 23
14, 61127, Control_c, 13, 7, 22
14, 61163, Control_c, 13, 7, 21
14, 61199, Control_c, 13, 7, 20
14, 61235, Control_c, 13, 7, 19
14, 61271, Control_c, 13, 7, 18
14, 61307, Control_c, 13, 7, 17
14, 61343, Control_c, 13, 7, 16
14, 61379, Control_c, 13, 7, 15
14, 61415, Control_c, 13, 7, 14
14, 61451, Control_c, 13, 7, 13
14, 61487, Control_c, 13, 7, 12
14, 61523, Control_c, 13, 7, 11
14, 61559, Control_c, 13, 7, 10
14, 61595, Control_c, 13, 7, 9
14, 61631, Control_c, 13, 7, 8
14, 61667, Control_c, 13, 7, 7
14, 61703, Control_c, 13, 7, 6
14, 61739, Control_c, 13, 7, 5
14, 61775, Control_c, 13, 7, 4
14, 61811, Control_c, 13, 7, 3
14, 61847, Control_c, 13, 7, 2
14, 61883, Control_c, 13, 7, 1
14, 61919, Control_c, 13, 7, 0
14, 61919, End_track
15, 0, Start_track
15, 0, MIDI_port, 0
15, 0, Program_c, 14, 54
15, 0, Control_c, 14, 7, 80
15, 0, Control_c, 14, 10, 10
15, 10680, Note_on_c, 14, 65, 100
15, 10680, Note_on_c, 14, 65, 127
15, 10710, Note_on_c, 14, 66, 84
15, 10739, Note_on_c, 14, 66, 0
15, 10740, Note_on_c, 14, 65, 90
15, 10769, Note_on_c, 14, 65, 0
15, 10769, Note_on_c, 14, 65, 0
15, 10770, Note_on_c, 14, 63, 96
15, 10799, Note_on_c, 14, 63, 0
15, 10799, Note_on_c, 14, 65, 0
15, 11040, Note_on_c, 14, 65, 127
15, 11129, Note_on_c, 14, 65, 0
15, 11130, Note_on_c, 14, 63, 127
15, 11219, Note_on_c, 14, 63, 0
15, 15360, Note_on_c, 14, 72, 103
15, 15479, Note_on_c, 14, 72, 0
15, 15480, Note_on_c, 14, 70, 103
15, 15539, Note_on_c, 14, 70, 0
15, 15540, Note_on_c, 14, 67, 103
15, 15599, Note_on_c, 14, 67, 0
15, 15600, Note_on_c, 14, 70, 103
15, 15659, Note_on_c, 14, 70, 0
15, 15660, Note_on_c, 14, 67, 103
15, 15719, Note_on_c, 14, 67, 0
15, 15720, Note_on_c, 14, 70, 103
15, 15839, Note_on_c, 14, 70, 0
15, 15840, Note_on_c, 14, 70, 103
15, 15959, Note_on_c, 14, 70, 0
15, 15960, Note_on_c, 14, 70, 103
15, 16079, Note_on_c, 14, 70, 0
15, 16080, Note_on_c, 14, 67, 103
15, 16199, Note_on_c, 14, 67, 0
15, 16200, Note_on_c, 14, 67, 103
15, 16259, Note_on_c, 14, 67, 0
15, 16260, Note_on_c, 14, 70, 103
15, 16319, Note_on_c, 14, 70, 0
15, 16320, Note_on_c, 14, 72, 103
15, 16439, Note_on_c, 14, 72, 0
15, 16440, Note_on_c, 14, 70, 103
15, 16499, Note_on_c, 14, 70, 0
15, 16500, Note_on_c, 14, 67, 103
15, 16559, Note_on_c, 14, 67, 0
15, 16560, Note_on_c, 14, 67, 103
15, 16619, Note_on_c, 14, 67, 0
15, 16620, Note_on_c, 14, 63, 103
15, 16679, Note_on_c, 14, 63, 0
15, 16680, Note_on_c, 14, 70, 103
15, 16799, Note_on_c, 14, 70, 0
15, 16800, Note_on_c, 14, 70, 103
15, 16919, Note_on_c, 14, 70, 0
15, 16920, Note_on_c, 14, 70, 103
15, 17039, Note_on_c, 14, 70, 0
15, 17040, Note_on_c, 14, 63, 103
15, 17159, Note_on_c, 14, 63, 0
15, 17160, Note_on_c, 14, 63, 103
15, 17219, Note_on_c, 14, 63, 0
15, 17220, Note_on_c, 14, 67, 103
15, 17279, Note_on_c, 14, 67, 0
15, 17280, Note_on_c, 14, 72, 103
15, 17399, Note_on_c, 14, 72, 0
15, 17400, Note_on_c, 14, 70, 103
15, 17459, Note_on_c, 14, 70, 0
15, 17460, Note_on_c, 14, 67, 103
15, 17519, Note_on_c, 14, 67, 0
15, 17520, Note_on_c, 14, 70, 103
15, 17579, Note_on_c, 14, 70, 0
15, 17580, Note_on_c, 14, 67, 103
15, 17639, Note_on_c, 14, 67, 0
15, 17640, Note_on_c, 14, 70, 103
15, 17759, Note_on_c, 14, 70, 0
15, 17760, Note_on_c, 14, 70, 103
15, 17850, Note_on_c, 14, 67, 103
15, 17879, Note_on_c, 14, 67, 0
15, 17879, Note_on_c, 14, 70, 0
15, 17880, Note_on_c, 14, 70, 103
15, 17999, Note_on_c, 14, 70, 0
15, 18000, Note_on_c, 14, 67, 127
15, 18119, Note_on_c, 14, 67, 0
15, 18120, Note_on_c, 14, 67, 102
15, 18179, Note_on_c, 14, 67, 0
15, 18180, Note_on_c, 14, 70, 102
15, 18239, Note_on_c, 14, 70, 0
15, 18240, Note_on_c, 14, 70, 102
15, 18359, Note_on_c, 14, 70, 0
15, 18360, Note_on_c, 14, 72, 102
15, 18479, Note_on_c, 14, 72, 0
15, 18480, Note_on_c, 14, 70, 102
15, 18599, Note_on_c, 14, 70, 0
15, 18600, Note_on_c, 14, 72, 102
15, 18719, Note_on_c, 14, 72, 0
15, 19200, Note_on_c, 14, 72, 98
15, 19319, Note_on_c, 14, 72, 0
15, 19320, Note_on_c, 14, 70, 98
15, 19379, Note_on_c, 14, 70, 0
15, 19380, Note_on_c, 14, 67, 98
15, 19529, Note_on_c, 14, 67, 0
15, 19560, Note_on_c, 14, 70, 98
15, 19679, Note_on_c, 14, 70, 0
15, 19680, Note_on_c, 14, 70, 98
15, 19799, Note_on_c, 14, 70, 0
15, 19800, Note_on_c, 14, 70, 98
15, 19919, Note_on_c, 14, 70, 0
15, 19920, Note_on_c, 14, 67, 98
15, 20039, Note_on_c, 14, 67, 0
15, 20160, Note_on_c, 14, 72, 98
15, 20279, Note_on_c, 14, 72, 0
15, 20280, Note_on_c, 14, 70, 98
15, 20339, Note_on_c, 14, 70, 0
15, 20340, Note_on_c, 14, 67, 98
15, 20399, Note_on_c, 14, 67, 0
15, 20400, Note_on_c, 14, 70, 98
15, 20459, Note_on_c, 14, 70, 0
15, 20460, Note_on_c, 14, 67, 98
15, 20519, Note_on_c, 14, 67, 0
15, 20520, Note_on_c, 14, 70, 98
15, 20580, Note_on_c, 14, 67, 98
15, 20639, Note_on_c, 14, 67, 0
15, 20639, Note_on_c, 14, 70, 0
15, 20640, Note_on_c, 14, 70, 98
15, 20759, Note_on_c, 14, 70, 0
15, 20760, Note_on_c, 14, 70, 98
15, 20879, Note_on_c, 14, 70, 0
15, 20880, Note_on_c, 14, 67, 98
15, 20999, Note_on_c, 14, 67, 0
15, 21120, Note_on_c, 14, 72, 98
15, 21239, Note_on_c, 14, 72, 0
15, 21240, Note_on_c, 14, 70, 98
15, 21299, Note_on_c, 14, 70, 0
15, 21300, Note_on_c, 14, 67, 98
15, 21359, Note_on_c, 14, 67, 0
15, 21360, Note_on_c, 14, 70, 98
15, 21479, Note_on_c, 14, 70, 0
15, 21480, Note_on_c, 14, 67, 98
15, 21539, Note_on_c, 14, 67, 0
15, 21540, Note_on_c, 14, 70, 98
15, 21659, Note_on_c, 14, 70, 0
15, 21660, Note_on_c, 14, 67, 98
15, 21719, Note_on_c, 14, 67, 0
15, 21720, Note_on_c, 14, 70, 98
15, 21839, Note_on_c, 14, 70, 0
15, 21840, Note_on_c, 14, 67, 98
15, 21959, Note_on_c, 14, 67, 0
15, 21960, Note_on_c, 14, 67, 98
15, 22019, Note_on_c, 14, 67, 0
15, 22020, Note_on_c, 14, 70, 98
15, 22079, Note_on_c, 14, 70, 0
15, 22080, Note_on_c, 14, 72, 98
15, 22199, Note_on_c, 14, 72, 0
15, 22200, Note_on_c, 14, 70, 98
15, 22230, Note_on_c, 14, 68, 97
15, 22259, Note_on_c, 14, 68, 0
15, 22289, Note_on_c, 14, 70, 0
15, 22560, Note_on_c, 14, 65, 96
15, 22619, Note_on_c, 14, 65, 0
15, 22650, Note_on_c, 14, 63, 96
15, 22680, Note_on_c, 14, 60, 96
15, 22769, Note_on_c, 14, 63, 0
15, 22799, Note_on_c, 14, 60, 0
15, 23040, Note_on_c, 14, 65, 72
15, 23099, Note_on_c, 14, 65, 0
15, 23130, Note_on_c, 14, 63, 65
15, 23160, Note_on_c, 14, 60, 64
15, 23219, Note_on_c, 14, 63, 0
15, 23279, Note_on_c, 14, 60, 0
15, 27180, Note_on_c, 14, 70, 127
15, 27209, Note_on_c, 14, 70, 0
15, 27240, Note_on_c, 14, 70, 127
15, 27269, Note_on_c, 14, 70, 0
15, 27300, Note_on_c, 14, 70, 127
15, 27329, Note_on_c, 14, 70, 0
15, 27360, Note_on_c, 14, 70, 127
15, 27449, Note_on_c, 14, 70, 0
15, 28800, Note_on_c, 14, 70, 104
15, 28919, Note_on_c, 14, 70, 0
15, 28920, Note_on_c, 14, 67, 102
15, 28950, Note_on_c, 14, 68, 102
15, 28979, Note_on_c, 14, 68, 0
15, 28980, Note_on_c, 14, 67, 102
15, 29009, Note_on_c, 14, 67, 0
15, 29010, Note_on_c, 14, 65, 101
15, 29039, Note_on_c, 14, 65, 0
15, 29039, Note_on_c, 14, 67, 0
15, 29040, Note_on_c, 14, 67, 101
15, 29159, Note_on_c, 14, 67, 0
15, 29160, Note_on_c, 14, 65, 101
15, 29219, Note_on_c, 14, 65, 0
15, 29220, Note_on_c, 14, 63, 101
15, 29279, Note_on_c, 14, 63, 0
15, 29280, Note_on_c, 14, 67, 101
15, 29400, Note_on_c, 14, 68, 101
15, 29459, Note_on_c, 14, 68, 0
15, 29639, Note_on_c, 14, 67, 0
15, 29684, Control_c, 14, 95, 121
15, 29705, Control_c, 14, 91, 103
15, 29749, Control_c, 14, 91, 105
15, 29760, Control_c, 14, 91, 108
15, 29760, Note_on_c, 14, 70, 96
15, 29770, Control_c, 14, 91, 122
15, 29779, Control_c, 14, 91, 125
15, 29879, Note_on_c, 14, 70, 0
15, 29880, Note_on_c, 14, 67, 97
15, 30119, Note_on_c, 14, 67, 0
15, 30120, Note_on_c, 14, 65, 97
15, 30179, Note_on_c, 14, 65, 0
15, 30180, Note_on_c, 14, 63, 97
15, 30239, Note_on_c, 14, 63, 0
15, 30240, Note_on_c, 14, 67, 97
15, 30330, Note_on_c, 14, 63, 97
15, 30359, Note_on_c, 14, 63, 0
15, 30420, Note_on_c, 14, 68, 97
15, 30449, Note_on_c, 14, 68, 0
15, 30539, Note_on_c, 14, 67, 0
15, 30569, Control_c, 14, 95, 120
15, 30574, Control_c, 14, 95, 118
15, 30589, Control_c, 14, 95, 117
15, 34560, Note_on_c, 14, 67, 101
15, 34679, Note_on_c, 14, 67, 0
15, 34680, Note_on_c, 14, 65, 101
15, 34739, Note_on_c, 14, 65, 0
15, 34740, Note_on_c, 14, 63, 101
15, 34799, Note_on_c, 14, 63, 0
15, 34800, Note_on_c, 14, 63, 101
15, 34859, Note_on_c, 14, 63, 0
15, 34860, Note_on_c, 14, 60, 101
15, 34919, Note_on_c, 14, 60, 0
15, 34920, Note_on_c, 14, 63, 101
15, 35039, Note_on_c, 14, 63, 0
15, 35040, Note_on_c, 14, 63, 101
15, 35159, Note_on_c, 14, 63, 0
15, 35160, Note_on_c, 14, 63, 101
15, 35279, Note_on_c, 14, 63, 0
15, 35280, Note_on_c, 14, 60, 101
15, 35339, Note_on_c, 14, 60, 0
15, 35340, Note_on_c, 14, 60, 101
15, 35369, Note_on_c, 14, 60, 0
15, 35400, Note_on_c, 14, 60, 101
15, 35459, Note_on_c, 14, 60, 0
15, 35460, Note_on_c, 14, 63, 101
15, 35519, Note_on_c, 14, 63, 0
15, 35520, Note_on_c, 14, 67, 101
15, 35639, Note_on_c, 14, 67, 0
15, 35640, Note_on_c, 14, 65, 101
15, 35699, Note_on_c, 14, 65, 0
15, 35700, Note_on_c, 14, 63, 101
15, 35759, Note_on_c, 14, 63, 0
15, 35760, Note_on_c, 14, 63, 101
15, 35819, Note_on_c, 14, 63, 0
15, 35820, Note_on_c, 14, 60, 101
15, 35879, Note_on_c, 14, 60, 0
15, 35880, Note_on_c, 14, 63, 101
15, 35999, Note_on_c, 14, 63, 0
15, 36000, Note_on_c, 14, 63, 101
15, 36119, Note_on_c, 14, 63, 0
15, 36120, Note_on_c, 14, 63, 101
15, 36239, Note_on_c, 14, 63, 0
15, 36240, Note_on_c, 14, 60, 101
15, 36359, Note_on_c, 14, 60, 0
15, 36360, Note_on_c, 14, 67, 101
15, 36479, Note_on_c, 14, 67, 0
15, 36480, Note_on_c, 14, 65, 101
15, 36539, Note_on_c, 14, 65, 0
15, 36540, Note_on_c, 14, 63, 101
15, 36599, Note_on_c, 14, 63, 0
15, 36600, Note_on_c, 14, 63, 101
15, 36659, Note_on_c, 14, 63, 0
15, 36660, Note_on_c, 14, 60, 101
15, 36719, Note_on_c, 14, 60, 0
15, 36720, Note_on_c, 14, 63, 101
15, 36779, Note_on_c, 14, 63, 0
15, 36780, Note_on_c, 14, 60, 101
15, 36839, Note_on_c, 14, 60, 0
15, 36840, Note_on_c, 14, 63, 101
15, 36899, Note_on_c, 14, 63, 0
15, 36900, Note_on_c, 14, 60, 101
15, 36959, Note_on_c, 14, 60, 0
15, 36960, Note_on_c, 14, 63, 101
15, 37079, Note_on_c, 14, 63, 0
15, 37080, Note_on_c, 14, 63, 101
15, 37199, Note_on_c, 14, 63, 0
15, 37200, Note_on_c, 14, 60, 101
15, 37319, Note_on_c, 14, 60, 0
15, 37320, Note_on_c, 14, 60, 101
15, 37379, Note_on_c, 14, 60, 0
15, 37380, Note_on_c, 14, 63, 101
15, 37439, Note_on_c, 14, 63, 0
15, 37440, Note_on_c, 14, 65, 101
15, 37559, Note_on_c, 14, 65, 0
15, 37560, Note_on_c, 14, 67, 101
15, 37590, Note_on_c, 14, 65, 79
15, 37619, Note_on_c, 14, 65, 0
15, 37649, Note_on_c, 14, 67, 0
15, 37650, Note_on_c, 14, 67, 97
15, 37679, Note_on_c, 14, 67, 0
15, 37680, Note_on_c, 14, 65, 78
15, 37770, Note_on_c, 14, 60, 81
15, 37799, Note_on_c, 14, 60, 0
15, 37799, Note_on_c, 14, 65, 0
15, 37800, Note_on_c, 14, 67, 98
15, 37800, Note_on_c, 14, 60, 98
15, 37919, Note_on_c, 14, 60, 0
15, 37920, Note_on_c, 14, 65, 99
15, 38009, Note_on_c, 14, 65, 0
15, 38010, Note_on_c, 14, 63, 99
15, 38040, Note_on_c, 14, 60, 99
15, 38069, Note_on_c, 14, 63, 0
15, 38279, Note_on_c, 14, 67, 0
15, 38309, Note_on_c, 14, 60, 0
15, 38400, Note_on_c, 14, 67, 100
15, 38519, Note_on_c, 14, 67, 0
15, 38520, Note_on_c, 14, 65, 100
15, 38579, Note_on_c, 14, 65, 0
15, 38580, Note_on_c, 14, 63, 100
15, 38729, Note_on_c, 14, 63, 0
15, 38760, Note_on_c, 14, 63, 100
15, 38879, Note_on_c, 14, 63, 0
15, 38880, Note_on_c, 14, 63, 100
15, 38999, Note_on_c, 14, 63, 0
15, 39000, Note_on_c, 14, 63, 100
15, 39119, Note_on_c, 14, 63, 0
15, 39120, Note_on_c, 14, 60, 100
15, 39239, Note_on_c, 14, 60, 0
15, 39360, Note_on_c, 14, 67, 100
15, 39479, Note_on_c, 14, 67, 0
15, 39480, Note_on_c, 14, 65, 100
15, 39539, Note_on_c, 14, 65, 0
15, 39540, Note_on_c, 14, 63, 100
15, 39599, Note_on_c, 14, 63, 0
15, 39600, Note_on_c, 14, 63, 100
15, 39659, Note_on_c, 14, 63, 0
15, 39660, Note_on_c, 14, 60, 100
15, 39719, Note_on_c, 14, 60, 0
15, 39720, Note_on_c, 14, 63, 100
15, 39780, Note_on_c, 14, 60, 100
15, 39839, Note_on_c, 14, 60, 0
15, 39839, Note_on_c, 14, 63, 0
15, 39840, Note_on_c, 14, 63, 100
15, 39959, Note_on_c, 14, 63, 0
15, 39960, Note_on_c, 14, 63, 101
15, 40079, Note_on_c, 14, 63, 0
15, 40080, Note_on_c, 14, 60, 101
15, 40199, Note_on_c, 14, 60, 0
15, 40200, Note_on_c, 14, 60, 101
15, 40259, Note_on_c, 14, 60, 0
15, 40260, Note_on_c, 14, 63, 101
15, 40319, Note_on_c, 14, 63, 0
15, 40320, Note_on_c, 14, 67, 101
15, 40439, Note_on_c, 14, 67, 0
15, 40440, Note_on_c, 14, 65, 101
15, 40499, Note_on_c, 14, 65, 0
15, 40500, Note_on_c, 14, 63, 101
15, 40559, Note_on_c, 14, 63, 0
15, 40560, Note_on_c, 14, 63, 101
15, 40679, Note_on_c, 14, 63, 0
15, 40680, Note_on_c, 14, 60, 106
15, 40739, Note_on_c, 14, 60, 0
15, 40740, Note_on_c, 14, 63, 105
15, 40859, Note_on_c, 14, 63, 0
15, 40860, Note_on_c, 14, 60, 104
15, 40919, Note_on_c, 14, 60, 0
15, 40920, Note_on_c, 14, 63, 103
15, 41039, Note_on_c, 14, 63, 0
15, 41040, Note_on_c, 14, 60, 103
15, 41159, Note_on_c, 14, 60, 0
15, 41160, Note_on_c, 14, 60, 101
15, 41219, Note_on_c, 14, 60, 0
15, 41220, Note_on_c, 14, 63, 101
15, 41279, Note_on_c, 14, 63, 0
15, 41280, Note_on_c, 14, 65, 100
15, 41399, Note_on_c, 14, 65, 0
15, 41400, Note_on_c, 14, 67, 99
15, 41430, Note_on_c, 14, 65, 79
15, 41459, Note_on_c, 14, 65, 0
15, 41489, Note_on_c, 14, 67, 0
15, 41490, Note_on_c, 14, 67, 82
15, 41519, Note_on_c, 14, 67, 0
15, 41520, Note_on_c, 14, 65, 107
15, 41610, Note_on_c, 14, 60, 81
15, 41639, Note_on_c, 14, 60, 0
15, 41639, Note_on_c, 14, 65, 0
15, 41640, Note_on_c, 14, 67, 103
15, 41640, Note_on_c, 14, 60, 103
15, 41759, Note_on_c, 14, 60, 0
15, 41760, Note_on_c, 14, 65, 99
15, 41820, Note_on_c, 14, 75, 127
15, 41849, Note_on_c, 14, 65, 0
15, 41850, Note_on_c, 14, 63, 99
15, 41880, Note_on_c, 14, 60, 99
15, 41909, Note_on_c, 14, 63, 0
15, 41939, Note_on_c, 14, 75, 0
15, 41940, Note_on_c, 14, 74, 127
15, 42059, Note_on_c, 14, 74, 0
15, 42060, Note_on_c, 14, 70, 127
15, 42119, Note_on_c, 14, 67, 0
15, 42149, Note_on_c, 14, 70, 0
15, 42149, Note_on_c, 14, 60, 0
15, 42180, Note_on_c, 14, 67, 127
15, 42239, Note_on_c, 14, 67, 0
15, 42240, Note_on_c, 14, 70, 99
15, 42240, Note_on_c, 14, 72, 127
15, 42359, Note_on_c, 14, 70, 0
15, 42360, Note_on_c, 14, 70, 99
15, 42449, Note_on_c, 14, 72, 0
15, 42479, Note_on_c, 14, 70, 0
15, 42480, Note_on_c, 14, 67, 99
15, 42599, Note_on_c, 14, 67, 0
15, 42600, Note_on_c, 14, 72, 99
15, 42719, Note_on_c, 14, 72, 0
15, 42720, Note_on_c, 14, 70, 99
15, 42929, Note_on_c, 14, 70, 0
15, 42960, Note_on_c, 14, 67, 99
15, 43079, Note_on_c, 14, 67, 0
15, 43080, Note_on_c, 14, 68, 99
15, 43199, Note_on_c, 14, 68, 0
15, 43200, Note_on_c, 14, 70, 99
15, 43319, Note_on_c, 14, 70, 0
15, 43320, Note_on_c, 14, 70, 99
15, 43439, Note_on_c, 14, 70, 0
15, 43440, Note_on_c, 14, 67, 99
15, 43559, Note_on_c, 14, 67, 0
15, 43560, Note_on_c, 14, 72, 99
15, 43679, Note_on_c, 14, 72, 0
15, 43680, Note_on_c, 14, 70, 99
15, 43920, Note_on_c, 14, 67, 100
15, 43979, Note_on_c, 14, 67, 0
15, 43979, Note_on_c, 14, 70, 0
15, 43980, Note_on_c, 14, 63, 101
15, 44039, Note_on_c, 14, 63, 0
15, 44040, Note_on_c, 14, 65, 105
15, 44160, Note_on_c, 14, 67, 105
15, 44219, Note_on_c, 14, 65, 0
15, 44279, Note_on_c, 14, 67, 0
15, 44280, Note_on_c, 14, 65, 105
15, 44399, Note_on_c, 14, 65, 0
15, 44400, Note_on_c, 14, 67, 105
15, 44519, Note_on_c, 14, 67, 0
15, 44520, Note_on_c, 14, 65, 98
15, 44639, Note_on_c, 14, 65, 0
15, 44640, Note_on_c, 14, 67, 86
15, 44759, Note_on_c, 14, 67, 0
15, 44760, Note_on_c, 14, 65, 85
15, 44879, Note_on_c, 14, 65, 0
15, 44880, Note_on_c, 14, 67, 66
15, 44970, Note_on_c, 14, 65, 59
15, 44999, Note_on_c, 14, 67, 0
15, 45089, Note_on_c, 14, 65, 0
15, 45120, Note_on_c, 14, 67, 50
15, 45239, Note_on_c, 14, 67, 0
15, 46080, Note_on_c, 14, 74, 97
15, 46199, Note_on_c, 14, 74, 0
15, 46200, Note_on_c, 14, 74, 98
15, 46319, Note_on_c, 14, 74, 0
15, 46320, Note_on_c, 14, 70, 98
15, 46439, Note_on_c, 14, 70, 0
15, 46440, Note_on_c, 14, 75, 98
15, 46559, Note_on_c, 14, 75, 0
15, 46560, Note_on_c, 14, 74, 98
15, 46769, Note_on_c, 14, 74, 0
15, 46800, Note_on_c, 14, 70, 98
15, 46919, Note_on_c, 14, 70, 0
15, 46920, Note_on_c, 14, 72, 98
15, 47039, Note_on_c, 14, 72, 0
15, 47040, Note_on_c, 14, 74, 98
15, 47159, Note_on_c, 14, 74, 0
15, 47160, Note_on_c, 14, 74, 98
15, 47279, Note_on_c, 14, 74, 0
15, 47280, Note_on_c, 14, 70, 98
15, 47399, Note_on_c, 14, 70, 0
15, 47400, Note_on_c, 14, 75, 98
15, 47519, Note_on_c, 14, 75, 0
15, 47520, Note_on_c, 14, 74, 98
15, 47760, Note_on_c, 14, 67, 98
15, 47819, Note_on_c, 14, 67, 0
15, 47819, Note_on_c, 14, 74, 0
15, 47820, Note_on_c, 14, 63, 101
15, 47879, Note_on_c, 14, 63, 0
15, 47880, Note_on_c, 14, 65, 100
15, 48000, Note_on_c, 14, 63, 100
15, 48059, Note_on_c, 14, 65, 0
15, 48119, Note_on_c, 14, 63, 0
15, 48120, Note_on_c, 14, 65, 100
15, 48239, Note_on_c, 14, 65, 0
15, 48240, Note_on_c, 14, 63, 97
15, 48359, Note_on_c, 14, 63, 0
15, 48360, Note_on_c, 14, 65, 91
15, 48479, Note_on_c, 14, 65, 0
15, 48480, Note_on_c, 14, 63, 89
15, 48599, Note_on_c, 14, 63, 0
15, 48600, Note_on_c, 14, 65, 81
15, 48719, Note_on_c, 14, 65, 0
15, 48720, Note_on_c, 14, 63, 67
15, 48839, Note_on_c, 14, 63, 0
15, 49920, Note_on_c, 14, 72, 96
15, 50039, Note_on_c, 14, 72, 0
15, 50040, Note_on_c, 14, 70, 98
15, 50099, Note_on_c, 14, 70, 0
15, 50100, Note_on_c, 14, 67, 98
15, 50159, Note_on_c, 14, 67, 0
15, 50160, Note_on_c, 14, 70, 98
15, 50219, Note_on_c, 14, 70, 0
15, 50220, Note_on_c, 14, 67, 98
15, 50279, Note_on_c, 14, 67, 0
15, 50280, Note_on_c, 14, 70, 98
15, 50399, Note_on_c, 14, 70, 0
15, 50400, Note_on_c, 14, 70, 98
15, 50519, Note_on_c, 14, 70, 0
15, 50520, Note_on_c, 14, 70, 98
15, 50639, Note_on_c, 14, 70, 0
15, 50640, Note_on_c, 14, 67, 98
15, 50699, Note_on_c, 14, 67, 0
15, 50700, Note_on_c, 14, 67, 98
15, 50729, Note_on_c, 14, 67, 0
15, 50760, Note_on_c, 14, 67, 98
15, 50819, Note_on_c, 14, 67, 0
15, 50820, Note_on_c, 14, 70, 98
15, 50879, Note_on_c, 14, 70, 0
15, 50880, Note_on_c, 14, 72, 98
15, 50999, Note_on_c, 14, 72, 0
15, 51000, Note_on_c, 14, 70, 98
15, 51059, Note_on_c, 14, 70, 0
15, 51060, Note_on_c, 14, 67, 98
15, 51119, Note_on_c, 14, 67, 0
15, 51120, Note_on_c, 14, 70, 98
15, 51179, Note_on_c, 14, 70, 0
15, 51180, Note_on_c, 14, 67, 98
15, 51239, Note_on_c, 14, 67, 0
15, 51240, Note_on_c, 14, 70, 98
15, 51299, Note_on_c, 14, 70, 0
15, 51300, Note_on_c, 14, 67, 98
15, 51359, Note_on_c, 14, 67, 0
15, 51360, Note_on_c, 14, 70, 98
15, 51479, Note_on_c, 14, 70, 0
15, 51480, Note_on_c, 14, 70, 98
15, 51599, Note_on_c, 14, 70, 0
15, 51600, Note_on_c, 14, 67, 98
15, 51719, Note_on_c, 14, 67, 0
15, 51720, Note_on_c, 14, 67, 98
15, 51779, Note_on_c, 14, 67, 0
15, 51780, Note_on_c, 14, 70, 98
15, 51839, Note_on_c, 14, 70, 0
15, 51840, Note_on_c, 14, 72, 98
15, 51959, Note_on_c, 14, 72, 0
15, 51960, Note_on_c, 14, 70, 98
15, 52019, Note_on_c, 14, 70, 0
15, 52020, Note_on_c, 14, 67, 98
15, 52079, Note_on_c, 14, 67, 0
15, 52080, Note_on_c, 14, 70, 98
15, 52139, Note_on_c, 14, 70, 0
15, 52140, Note_on_c, 14, 67, 98
15, 52199, Note_on_c, 14, 67, 0
15, 52200, Note_on_c, 14, 70, 98
15, 52259, Note_on_c, 14, 70, 0
15, 52260, Note_on_c, 14, 67, 98
15, 52319, Note_on_c, 14, 67, 0
15, 52320, Note_on_c, 14, 70, 98
15, 52439, Note_on_c, 14, 70, 0
15, 52440, Note_on_c, 14, 70, 98
15, 52559, Note_on_c, 14, 70, 0
15, 52560, Note_on_c, 14, 67, 98
15, 52679, Note_on_c, 14, 67, 0
15, 52680, Note_on_c, 14, 67, 98
15, 52739, Note_on_c, 14, 67, 0
15, 52740, Note_on_c, 14, 70, 98
15, 52799, Note_on_c, 14, 70, 0
15, 52800, Note_on_c, 14, 72, 98
15, 52919, Note_on_c, 14, 72, 0
15, 52920, Note_on_c, 14, 70, 127
15, 52950, Note_on_c, 14, 67, 101
15, 52979, Note_on_c, 14, 67, 0
15, 53009, Note_on_c, 14, 70, 0
15, 53010, Note_on_c, 14, 70, 101
15, 53039, Note_on_c, 14, 70, 0
15, 53040, Note_on_c, 14, 70, 101
15, 53130, Note_on_c, 14, 63, 101
15, 53159, Note_on_c, 14, 63, 0
15, 53159, Note_on_c, 14, 70, 0
15, 53160, Note_on_c, 14, 67, 101
15, 53160, Note_on_c, 14, 60, 101
15, 53279, Note_on_c, 14, 60, 0
15, 53639, Note_on_c, 14, 67, 0
15, 53760, Note_on_c, 14, 72, 101
15, 53879, Note_on_c, 14, 72, 0
15, 53880, Note_on_c, 14, 70, 101
15, 53939, Note_on_c, 14, 70, 0
15, 53940, Note_on_c, 14, 67, 101
15, 54089, Note_on_c, 14, 67, 0
15, 54120, Note_on_c, 14, 70, 101
15, 54239, Note_on_c, 14, 70, 0
15, 54240, Note_on_c, 14, 70, 101
15, 54359, Note_on_c, 14, 70, 0
15, 54360, Note_on_c, 14, 70, 101
15, 54479, Note_on_c, 14, 70, 0
15, 54480, Note_on_c, 14, 67, 101
15, 54599, Note_on_c, 14, 67, 0
15, 54720, Note_on_c, 14, 72, 101
15, 54839, Note_on_c, 14, 72, 0
15, 54840, Note_on_c, 14, 70, 101
15, 54899, Note_on_c, 14, 70, 0
15, 54900, Note_on_c, 14, 67, 101
15, 54959, Note_on_c, 14, 67, 0
15, 54960, Note_on_c, 14, 70, 101
15, 55019, Note_on_c, 14, 70, 0
15, 55020, Note_on_c, 14, 67, 101
15, 55079, Note_on_c, 14, 67, 0
15, 55080, Note_on_c, 14, 70, 101
15, 55139, Note_on_c, 14, 70, 0
15, 55140, Note_on_c, 14, 67, 101
15, 55199, Note_on_c, 14, 67, 0
15, 55200, Note_on_c, 14, 70, 101
15, 55319, Note_on_c, 14, 70, 0
15, 55320, Note_on_c, 14, 70, 101
15, 55439, Note_on_c, 14, 70, 0
15, 55440, Note_on_c, 14, 67, 101
15, 55559, Note_on_c, 14, 67, 0
15, 55680, Note_on_c, 14, 72, 101
15, 55799, Note_on_c, 14, 72, 0
15, 55800, Note_on_c, 14, 70, 101
15, 55859, Note_on_c, 14, 70, 0
15, 55860, Note_on_c, 14, 67, 101
15, 55919, Note_on_c, 14, 67, 0
15, 55920, Note_on_c, 14, 67, 101
15, 56039, Note_on_c, 14, 67, 0
15, 56040, Note_on_c, 14, 67, 101
15, 56099, Note_on_c, 14, 67, 0
15, 56100, Note_on_c, 14, 67, 101
15, 56219, Note_on_c, 14, 67, 0
15, 56220, Note_on_c, 14, 70, 101
15, 56279, Note_on_c, 14, 70, 0
15, 56280, Note_on_c, 14, 70, 101
15, 56399, Note_on_c, 14, 70, 0
15, 56400, Note_on_c, 14, 67, 101
15, 56519, Note_on_c, 14, 67, 0
15, 56520, Note_on_c, 14, 67, 101
15, 56579, Note_on_c, 14, 67, 0
15, 56580, Note_on_c, 14, 70, 101
15, 56639, Note_on_c, 14, 70, 0
15, 56640, Note_on_c, 14, 70, 101
15, 56759, Note_on_c, 14, 70, 0
15, 56760, Note_on_c, 14, 72, 101
15, 56790, Note_on_c, 14, 70, 101
15, 56819, Note_on_c, 14, 70, 0
15, 56849, Note_on_c, 14, 72, 0
15, 56850, Note_on_c, 14, 72, 101
15, 56879, Note_on_c, 14, 72, 0
15, 56880, Note_on_c, 14, 70, 101
15, 56970, Note_on_c, 14, 67, 101
15, 56999, Note_on_c, 14, 67, 0
15, 56999, Note_on_c, 14, 70, 0
15, 57000, Note_on_c, 14, 67, 101
15, 57479, Note_on_c, 14, 67, 0
15, 59040, Control_c, 14, 7, 80
15, 59075, Control_c, 14, 7, 79
15, 59111, Control_c, 14, 7, 78
15, 59147, Control_c, 14, 7, 77
15, 59183, Control_c, 14, 7, 76
15, 59219, Control_c, 14, 7, 75
15, 59255, Control_c, 14, 7, 74
15, 59291, Control_c, 14, 7, 73
15, 59327, Control_c, 14, 7, 72
15, 59363, Control_c, 14, 7, 71
15, 59399, Control_c, 14, 7, 70
15, 59435, Control_c, 14, 7, 69
15, 59471, Control_c, 14, 7, 68
15, 59507, Control_c, 14, 7, 67
15, 59543, Control_c, 14, 7, 66
15, 59579, Control_c, 14, 7, 65
15, 59615, Control_c, 14, 7, 64
15, 59651, Control_c, 14, 7, 63
15, 59687, Control_c, 14, 7, 62
15, 59723, Control_c, 14, 7, 61
15, 59759, Control_c, 14, 7, 60
15, 59795, Control_c, 14, 7, 59
15, 59831, Control_c, 14, 7, 58
15, 59867, Control_c, 14, 7, 57
15, 59903, Control_c, 14, 7, 56
15, 59939, Control_c, 14, 7, 55
15, 59975, Control_c, 14, 7, 54
15, 60011, Control_c, 14, 7, 53
15, 60047, Control_c, 14, 7, 52
15, 60083, Control_c, 14, 7, 51
15, 60119, Control_c, 14, 7, 50
15, 60155, Control_c, 14, 7, 49
15, 60191, Control_c, 14, 7, 48
15, 60227, Control_c, 14, 7, 47
15, 60263, Control_c, 14, 7, 46
15, 60299, Control_c, 14, 7, 45
15, 60335, Control_c, 14, 7, 44
15, 60371, Control_c, 14, 7, 43
15, 60407, Control_c, 14, 7, 42
15, 60443, Control_c, 14, 7, 41
15, 60479, Control_c, 14, 7, 40
15, 60515, Control_c, 14, 7, 39
15, 60551, Control_c, 14, 7, 38
15, 60587, Control_c, 14, 7, 37
15, 60623, Control_c, 14, 7, 36
15, 60659, Control_c, 14, 7, 35
15, 60695, Control_c, 14, 7, 34
15, 60731, Control_c, 14, 7, 33
15, 60767, Control_c, 14, 7, 32
15, 60803, Control_c, 14, 7, 31
15, 60839, Control_c, 14, 7, 30
15, 60875, Control_c, 14, 7, 29
15, 60911, Control_c, 14, 7, 28
15, 60947, Control_c, 14, 7, 27
15, 60983, Control_c, 14, 7, 26
15, 61019, Control_c, 14, 7, 25
15, 61055, Control_c, 14, 7, 24
15, 61091, Control_c, 14, 7, 23
15, 61127, Control_c, 14, 7, 22
15, 61163, Control_c, 14, 7, 21
15, 61199, Control_c, 14, 7, 20
15, 61235, Control_c, 14, 7, 19
15, 61271, Control_c, 14, 7, 18
15, 61307, Control_c, 14, 7, 17
15, 61343, Control_c, 14, 7, 16
15, 61379, Control_c, 14, 7, 15
15, 61415, Control_c, 14, 7, 14
15, 61451, Control_c, 14, 7, 13
15, 61487, Control_c, 14, 7, 12
15, 61523, Control_c, 14, 7, 11
15, 61559, Control_c, 14, 7, 10
15, 61595, Control_c, 14, 7, 9
15, 61631, Control_c, 14, 7, 8
15, 61667, Control_c, 14, 7, 7
15, 61703, Control_c, 14, 7, 6
15, 61739, Control_c, 14, 7, 5
15, 61775, Control_c, 14, 7, 4
15, 61811, Control_c, 14, 7, 3
15, 61847, Control_c, 14, 7, 2
15, 61883, Control_c, 14, 7, 1
15, 61919, Control_c, 14, 7, 0
15, 61919, End_track
16, 0, Start_track
16, 0, MIDI_port, 0
16, 0, Title_t, " "
16, 0, Program_c, 15, 4
16, 0, Control_c, 15, 7, 110
16, 0, Control_c, 15, 10, 63
16, 314, Control_c, 15, 1, 75
16, 399, Control_c, 15, 1, 78
16, 404, Control_c, 15, 1, 80
16, 485, Control_c, 15, 1, 78
16, 540, Note_on_c, 15, 65, 127
16, 659, Note_on_c, 15, 65, 0
16, 660, Note_on_c, 15, 67, 111
16, 689, Note_on_c, 15, 67, 0
16, 690, Note_on_c, 15, 65, 111
16, 690, Note_on_c, 15, 66, 111
16, 719, Note_on_c, 15, 66, 0
16, 839, Note_on_c, 15, 65, 0
16, 1800, Note_on_c, 15, 63, 123
16, 1861, Pitch_bend_c, 15, 8936
16, 1861, Pitch_bend_c, 15, 8340
16, 1867, Pitch_bend_c, 15, 7546
16, 1874, Pitch_bend_c, 15, 6355
16, 1880, Pitch_bend_c, 15, 4965
16, 1886, Pitch_bend_c, 15, 3773
16, 1892, Pitch_bend_c, 15, 2780
16, 1898, Pitch_bend_c, 15, 1787
16, 1905, Pitch_bend_c, 15, 596
16, 1911, Pitch_bend_c, 15, 0
16, 1949, Pitch_bend_c, 15, 8192
16, 2069, Note_on_c, 15, 63, 0
16, 2400, Note_on_c, 15, 65, 125
16, 2519, Note_on_c, 15, 65, 0
16, 2520, Note_on_c, 15, 67, 126
16, 2639, Note_on_c, 15, 67, 0
16, 2640, Note_on_c, 15, 65, 127
16, 2700, Note_on_c, 15, 67, 104
16, 2729, Note_on_c, 15, 65, 0
16, 2730, Note_on_c, 15, 65, 104
16, 2759, Note_on_c, 15, 67, 0
16, 2760, Note_on_c, 15, 60, 104
16, 2760, Note_on_c, 15, 63, 104
16, 2789, Note_on_c, 15, 65, 0
16, 2819, Note_on_c, 15, 63, 0
16, 2879, Note_on_c, 15, 60, 0
16, 3900, Note_on_c, 15, 70, 125
16, 3929, Note_on_c, 15, 70, 0
16, 3930, Note_on_c, 15, 70, 125
16, 3959, Note_on_c, 15, 70, 0
16, 3960, Note_on_c, 15, 70, 126
16, 3989, Note_on_c, 15, 70, 0
16, 3990, Note_on_c, 15, 70, 126
16, 4019, Note_on_c, 15, 70, 0
16, 4020, Note_on_c, 15, 70, 126
16, 4079, Note_on_c, 15, 70, 0
16, 4080, Note_on_c, 15, 70, 127
16, 4139, Note_on_c, 15, 70, 0
16, 4140, Note_on_c, 15, 70, 127
16, 4199, Note_on_c, 15, 70, 0
16, 4200, Note_on_c, 15, 67, 127
16, 4259, Note_on_c, 15, 67, 0
16, 4260, Note_on_c, 15, 67, 127
16, 4289, Note_on_c, 15, 67, 0
16, 4290, Note_on_c, 15, 68, 127
16, 4319, Note_on_c, 15, 68, 0
16, 4320, Note_on_c, 15, 70, 127
16, 4379, Note_on_c, 15, 70, 0
16, 4380, Note_on_c, 15, 70, 127
16, 4439, Note_on_c, 15, 70, 0
16, 4440, Note_on_c, 15, 67, 127
16, 4500, Note_on_c, 15, 70, 127
16, 4559, Note_on_c, 15, 67, 0
16, 4679, Note_on_c, 15, 70, 0
16, 4680, Note_on_c, 15, 67, 117
16, 4739, Note_on_c, 15, 67, 0
16, 4740, Note_on_c, 15, 68, 127
16, 4799, Note_on_c, 15, 68, 0
16, 4800, Note_on_c, 15, 70, 125
16, 4886, Pitch_bend_c, 15, 8539
16, 4979, Note_on_c, 15, 70, 0
16, 4980, Note_on_c, 15, 66, 109
16, 5000, Pitch_bend_c, 15, 8738
16, 5003, Pitch_bend_c, 15, 8739
16, 5007, Pitch_bend_c, 15, 9532
16, 5010, Pitch_bend_c, 15, 10128
16, 5013, Pitch_bend_c, 15, 10922
16, 5016, Pitch_bend_c, 15, 11121
16, 5019, Pitch_bend_c, 15, 11915
16, 5022, Pitch_bend_c, 15, 12511
16, 5025, Pitch_bend_c, 15, 13305
16, 5028, Pitch_bend_c, 15, 13504
16, 5032, Pitch_bend_c, 15, 13505
16, 5039, Note_on_c, 15, 66, 0
16, 5040, Note_on_c, 15, 65, 107
16, 5050, Pitch_bend_c, 15, 13305
16, 5057, Pitch_bend_c, 15, 8192
16, 5099, Note_on_c, 15, 65, 0
16, 5280, Note_on_c, 15, 70, 127
16, 5339, Note_on_c, 15, 70, 0
16, 5340, Note_on_c, 15, 70, 127
16, 5399, Note_on_c, 15, 70, 0
16, 5400, Note_on_c, 15, 67, 127
16, 5459, Note_on_c, 15, 67, 0
16, 5460, Note_on_c, 15, 72, 127
16, 5519, Note_on_c, 15, 72, 0
16, 5520, Note_on_c, 15, 70, 127
16, 5729, Note_on_c, 15, 70, 0
16, 5820, Note_on_c, 15, 67, 127
16, 5849, Note_on_c, 15, 67, 0
16, 5850, Note_on_c, 15, 67, 127
16, 5879, Note_on_c, 15, 67, 0
16, 5880, Note_on_c, 15, 67, 127
16, 5909, Note_on_c, 15, 67, 0
16, 5910, Note_on_c, 15, 67, 127
16, 5939, Note_on_c, 15, 67, 0
16, 5940, Note_on_c, 15, 68, 127
16, 5969, Note_on_c, 15, 68, 0
16, 5970, Note_on_c, 15, 70, 127
16, 6059, Note_on_c, 15, 70, 0
16, 6060, Note_on_c, 15, 67, 127
16, 6089, Note_on_c, 15, 67, 0
16, 6090, Note_on_c, 15, 67, 127
16, 6119, Note_on_c, 15, 67, 0
16, 6120, Note_on_c, 15, 67, 127
16, 6149, Note_on_c, 15, 67, 0
16, 6150, Note_on_c, 15, 67, 127
16, 6179, Note_on_c, 15, 67, 0
16, 6180, Note_on_c, 15, 67, 127
16, 6209, Note_on_c, 15, 67, 0
16, 6210, Note_on_c, 15, 67, 127
16, 6299, Note_on_c, 15, 67, 0
16, 6300, Note_on_c, 15, 67, 127
16, 6329, Note_on_c, 15, 67, 0
16, 6330, Note_on_c, 15, 67, 127
16, 6389, Note_on_c, 15, 67, 0
16, 6390, Note_on_c, 15, 67, 127
16, 6479, Note_on_c, 15, 67, 0
16, 6480, Note_on_c, 15, 67, 127
16, 6509, Note_on_c, 15, 67, 0
16, 6510, Note_on_c, 15, 67, 127
16, 6569, Note_on_c, 15, 67, 0
16, 6570, Note_on_c, 15, 68, 127
16, 6599, Note_on_c, 15, 68, 0
16, 6600, Note_on_c, 15, 70, 127
16, 6719, Note_on_c, 15, 70, 0
16, 6720, Note_on_c, 15, 67, 127
16, 6779, Note_on_c, 15, 67, 0
16, 6780, Note_on_c, 15, 67, 127
16, 6839, Note_on_c, 15, 67, 0
16, 6840, Note_on_c, 15, 67, 127
16, 6899, Note_on_c, 15, 67, 0
16, 6900, Note_on_c, 15, 68, 127
16, 6959, Note_on_c, 15, 68, 0
16, 6960, Note_on_c, 15, 70, 127
16, 7050, Note_on_c, 15, 67, 127
16, 7079, Note_on_c, 15, 70, 0
16, 7139, Note_on_c, 15, 67, 0
16, 7140, Note_on_c, 15, 65, 127
16, 7199, Note_on_c, 15, 65, 0
16, 7200, Note_on_c, 15, 67, 127
16, 7259, Note_on_c, 15, 67, 0
16, 7260, Note_on_c, 15, 68, 127
16, 7319, Note_on_c, 15, 68, 0
16, 7320, Note_on_c, 15, 67, 127
16, 7379, Note_on_c, 15, 67, 0
16, 7380, Note_on_c, 15, 72, 127
16, 7499, Note_on_c, 15, 72, 0
16, 7500, Note_on_c, 15, 70, 127
16, 7559, Note_on_c, 15, 70, 0
16, 7560, Note_on_c, 15, 65, 89
16, 7589, Note_on_c, 15, 65, 0
16, 7740, Note_on_c, 15, 67, 127
16, 7769, Note_on_c, 15, 67, 0
16, 7770, Note_on_c, 15, 67, 127
16, 7799, Note_on_c, 15, 67, 0
16, 7800, Note_on_c, 15, 67, 127
16, 7829, Note_on_c, 15, 67, 0
16, 7830, Note_on_c, 15, 68, 127
16, 7859, Note_on_c, 15, 68, 0
16, 7860, Note_on_c, 15, 70, 127
16, 7979, Note_on_c, 15, 70, 0
16, 7980, Note_on_c, 15, 67, 127
16, 8009, Note_on_c, 15, 67, 0
16, 8010, Note_on_c, 15, 67, 127
16, 8039, Note_on_c, 15, 67, 0
16, 8040, Note_on_c, 15, 67, 127
16, 8069, Note_on_c, 15, 67, 0
16, 8100, Note_on_c, 15, 67, 127
16, 8159, Note_on_c, 15, 67, 0
16, 8160, Note_on_c, 15, 67, 127
16, 8189, Note_on_c, 15, 67, 0
16, 8190, Note_on_c, 15, 68, 127
16, 8219, Note_on_c, 15, 68, 0
16, 8220, Note_on_c, 15, 70, 127
16, 8279, Note_on_c, 15, 70, 0
16, 8280, Note_on_c, 15, 67, 126
16, 8309, Note_on_c, 15, 67, 0
16, 8310, Note_on_c, 15, 68, 126
16, 8339, Note_on_c, 15, 68, 0
16, 8340, Note_on_c, 15, 70, 125
16, 8400, Note_on_c, 15, 67, 125
16, 8429, Note_on_c, 15, 67, 0
16, 8429, Note_on_c, 15, 70, 0
16, 8430, Note_on_c, 15, 67, 125
16, 8459, Note_on_c, 15, 67, 0
16, 8460, Note_on_c, 15, 67, 125
16, 8489, Note_on_c, 15, 67, 0
16, 8490, Note_on_c, 15, 67, 125
16, 8519, Note_on_c, 15, 67, 0
16, 8520, Note_on_c, 15, 67, 125
16, 8549, Note_on_c, 15, 67, 0
16, 8580, Note_on_c, 15, 67, 125
16, 8609, Note_on_c, 15, 67, 0
16, 8610, Note_on_c, 15, 67, 125
16, 8639, Note_on_c, 15, 67, 0
16, 8640, Note_on_c, 15, 67, 125
16, 8669, Note_on_c, 15, 67, 0
16, 8670, Note_on_c, 15, 68, 125
16, 8699, Note_on_c, 15, 68, 0
16, 8700, Note_on_c, 15, 67, 125
16, 8729, Note_on_c, 15, 67, 0
16, 8730, Note_on_c, 15, 68, 125
16, 8759, Note_on_c, 15, 68, 0
16, 8760, Note_on_c, 15, 67, 125
16, 8819, Note_on_c, 15, 67, 0
16, 8820, Note_on_c, 15, 68, 125
16, 8879, Note_on_c, 15, 68, 0
16, 8880, Note_on_c, 15, 70, 125
16, 9029, Note_on_c, 15, 70, 0
16, 9060, Note_on_c, 15, 67, 127
16, 9089, Note_on_c, 15, 67, 0
16, 9090, Note_on_c, 15, 67, 127
16, 9119, Note_on_c, 15, 67, 0
16, 9120, Note_on_c, 15, 67, 127
16, 9209, Note_on_c, 15, 67, 0
16, 9210, Note_on_c, 15, 68, 127
16, 9299, Note_on_c, 15, 68, 0
16, 9300, Note_on_c, 15, 70, 127
16, 9449, Note_on_c, 15, 70, 0
16, 9600, Note_on_c, 15, 70, 127
16, 9719, Note_on_c, 15, 70, 0
16, 9720, Note_on_c, 15, 65, 127
16, 9750, Note_on_c, 15, 66, 84
16, 9779, Note_on_c, 15, 66, 0
16, 9780, Note_on_c, 15, 65, 90
16, 9809, Note_on_c, 15, 65, 0
16, 9810, Note_on_c, 15, 63, 96
16, 9839, Note_on_c, 15, 63, 0
16, 9839, Note_on_c, 15, 65, 0
16, 9840, Note_on_c, 15, 65, 127
16, 9959, Note_on_c, 15, 65, 0
16, 9960, Note_on_c, 15, 63, 127
16, 10019, Note_on_c, 15, 63, 0
16, 10020, Note_on_c, 15, 60, 127
16, 10079, Note_on_c, 15, 60, 0
16, 10080, Note_on_c, 15, 65, 127
16, 10199, Note_on_c, 15, 65, 0
16, 10200, Note_on_c, 15, 65, 127
16, 10230, Note_on_c, 15, 67, 127
16, 10259, Note_on_c, 15, 67, 0
16, 10409, Note_on_c, 15, 65, 0
16, 10505, Control_c, 15, 91, 103
16, 10549, Control_c, 15, 91, 105
16, 10560, Control_c, 15, 91, 108
16, 10570, Control_c, 15, 91, 122
16, 10579, Control_c, 15, 91, 125
16, 11580, Note_on_c, 15, 70, 127
16, 11639, Note_on_c, 15, 70, 0
16, 11640, Note_on_c, 15, 72, 127
16, 11729, Note_on_c, 15, 72, 0
16, 11760, Note_on_c, 15, 72, 127
16, 11849, Note_on_c, 15, 72, 0
16, 11850, Note_on_c, 15, 72, 127
16, 11909, Note_on_c, 15, 72, 0
16, 11910, Note_on_c, 15, 72, 127
16, 11969, Note_on_c, 15, 72, 0
16, 11970, Note_on_c, 15, 72, 127
16, 12089, Note_on_c, 15, 72, 0
16, 12090, Note_on_c, 15, 67, 127
16, 12149, Note_on_c, 15, 67, 0
16, 12150, Note_on_c, 15, 70, 127
16, 12180, Note_on_c, 15, 72, 127
16, 12209, Note_on_c, 15, 70, 0
16, 12239, Note_on_c, 15, 72, 0
16, 12240, Note_on_c, 15, 72, 127
16, 12300, Note_on_c, 15, 71, 127
16, 12329, Note_on_c, 15, 72, 0
16, 12330, Note_on_c, 15, 70, 127
16, 12359, Note_on_c, 15, 71, 0
16, 12360, Note_on_c, 15, 67, 127
16, 12389, Note_on_c, 15, 70, 0
16, 12449, Note_on_c, 15, 67, 0
16, 12480, Note_on_c, 15, 65, 127
16, 12539, Note_on_c, 15, 65, 0
16, 12540, Note_on_c, 15, 67, 123
16, 12570, Note_on_c, 15, 72, 76
16, 12599, Note_on_c, 15, 72, 0
16, 12600, Note_on_c, 15, 65, 123
16, 12629, Note_on_c, 15, 67, 0
16, 12659, Note_on_c, 15, 65, 0
16, 12660, Note_on_c, 15, 63, 123
16, 12719, Note_on_c, 15, 63, 0
16, 12720, Note_on_c, 15, 65, 124
16, 12839, Note_on_c, 15, 65, 0
16, 12840, Note_on_c, 15, 63, 124
16, 12899, Note_on_c, 15, 63, 0
16, 12900, Note_on_c, 15, 60, 126
16, 12959, Note_on_c, 15, 60, 0
16, 12960, Note_on_c, 15, 63, 126
16, 13049, Note_on_c, 15, 63, 0
16, 13080, Note_on_c, 15, 63, 127
16, 13139, Note_on_c, 15, 63, 0
16, 13140, Note_on_c, 15, 63, 127
16, 13199, Note_on_c, 15, 63, 0
16, 13200, Note_on_c, 15, 60, 127
16, 13319, Note_on_c, 15, 60, 0
16, 13500, Note_on_c, 15, 75, 127
16, 13559, Note_on_c, 15, 75, 0
16, 13560, Note_on_c, 15, 74, 127
16, 13620, Note_on_c, 15, 70, 127
16, 13649, Note_on_c, 15, 74, 0
16, 13679, Note_on_c, 15, 70, 0
16, 13680, Note_on_c, 15, 72, 127
16, 13710, Note_on_c, 15, 70, 127
16, 13739, Note_on_c, 15, 72, 0
16, 13799, Note_on_c, 15, 70, 0
16, 13800, Note_on_c, 15, 70, 127
16, 13859, Note_on_c, 15, 70, 0
16, 13860, Note_on_c, 15, 67, 127
16, 13919, Note_on_c, 15, 67, 0
16, 13920, Note_on_c, 15, 70, 127
16, 13979, Note_on_c, 15, 70, 0
16, 13980, Note_on_c, 15, 67, 127
16, 14039, Note_on_c, 15, 67, 0
16, 14040, Note_on_c, 15, 70, 127
16, 14099, Note_on_c, 15, 70, 0
16, 14100, Note_on_c, 15, 72, 127
16, 14189, Note_on_c, 15, 72, 0
16, 14190, Note_on_c, 15, 72, 127
16, 14249, Note_on_c, 15, 72, 0
16, 14250, Note_on_c, 15, 70, 127
16, 14280, Note_on_c, 15, 67, 127
16, 14309, Note_on_c, 15, 70, 0
16, 14369, Note_on_c, 15, 67, 0
16, 14400, Note_on_c, 15, 70, 127
16, 14519, Note_on_c, 15, 70, 0
16, 14520, Note_on_c, 15, 65, 81
16, 14549, Note_on_c, 15, 65, 0
16, 14550, Note_on_c, 15, 67, 127
16, 14639, Note_on_c, 15, 67, 0
16, 14640, Note_on_c, 15, 65, 127
16, 14729, Note_on_c, 15, 65, 0
16, 14730, Note_on_c, 15, 63, 127
16, 14789, Note_on_c, 15, 63, 0
16, 14790, Note_on_c, 15, 63, 127
16, 14849, Note_on_c, 15, 63, 0
16, 14880, Note_on_c, 15, 63, 127
16, 14939, Note_on_c, 15, 63, 0
16, 14940, Note_on_c, 15, 60, 127
16, 14999, Note_on_c, 15, 60, 0
16, 15000, Note_on_c, 15, 63, 127
16, 15119, Note_on_c, 15, 63, 0
16, 15120, Note_on_c, 15, 60, 127
16, 15209, Note_on_c, 15, 60, 0
16, 15240, Note_on_c, 15, 60, 127
16, 15269, Note_on_c, 15, 60, 0
16, 15270, Note_on_c, 15, 63, 127
16, 15359, Note_on_c, 15, 63, 0
16, 15360, Note_on_c, 15, 67, 127
16, 15479, Note_on_c, 15, 67, 0
16, 15480, Note_on_c, 15, 65, 127
16, 15539, Note_on_c, 15, 65, 0
16, 15540, Note_on_c, 15, 63, 127
16, 15599, Note_on_c, 15, 63, 0
16, 15600, Note_on_c, 15, 63, 127
16, 15659, Note_on_c, 15, 63, 0
16, 15660, Note_on_c, 15, 60, 127
16, 15719, Note_on_c, 15, 60, 0
16, 15720, Note_on_c, 15, 63, 127
16, 15839, Note_on_c, 15, 63, 0
16, 15840, Note_on_c, 15, 63, 125
16, 15930, Note_on_c, 15, 60, 86
16, 15959, Note_on_c, 15, 60, 0
16, 15959, Note_on_c, 15, 63, 0
16, 15960, Note_on_c, 15, 63, 124
16, 16079, Note_on_c, 15, 63, 0
16, 16080, Note_on_c, 15, 60, 127
16, 16199, Note_on_c, 15, 60, 0
16, 16200, Note_on_c, 15, 60, 127
16, 16259, Note_on_c, 15, 60, 0
16, 16260, Note_on_c, 15, 63, 127
16, 16319, Note_on_c, 15, 63, 0
16, 16320, Note_on_c, 15, 67, 127
16, 16439, Note_on_c, 15, 67, 0
16, 16440, Note_on_c, 15, 65, 127
16, 16499, Note_on_c, 15, 65, 0
16, 16500, Note_on_c, 15, 63, 127
16, 16559, Note_on_c, 15, 63, 0
16, 16560, Note_on_c, 15, 63, 127
16, 16619, Note_on_c, 15, 63, 0
16, 16620, Note_on_c, 15, 60, 127
16, 16679, Note_on_c, 15, 60, 0
16, 16680, Note_on_c, 15, 63, 127
16, 16799, Note_on_c, 15, 63, 0
16, 16800, Note_on_c, 15, 63, 127
16, 16890, Note_on_c, 15, 60, 86
16, 16919, Note_on_c, 15, 60, 0
16, 16919, Note_on_c, 15, 63, 0
16, 16920, Note_on_c, 15, 63, 125
16, 17039, Note_on_c, 15, 63, 0
16, 17040, Note_on_c, 15, 60, 127
16, 17159, Note_on_c, 15, 60, 0
16, 17160, Note_on_c, 15, 60, 127
16, 17219, Note_on_c, 15, 60, 0
16, 17220, Note_on_c, 15, 63, 127
16, 17279, Note_on_c, 15, 63, 0
16, 17280, Note_on_c, 15, 67, 127
16, 17399, Note_on_c, 15, 67, 0
16, 17400, Note_on_c, 15, 65, 127
16, 17459, Note_on_c, 15, 65, 0
16, 17460, Note_on_c, 15, 63, 127
16, 17519, Note_on_c, 15, 63, 0
16, 17520, Note_on_c, 15, 63, 127
16, 17579, Note_on_c, 15, 63, 0
16, 17580, Note_on_c, 15, 60, 127
16, 17639, Note_on_c, 15, 60, 0
16, 17640, Note_on_c, 15, 63, 126
16, 17759, Note_on_c, 15, 63, 0
16, 17760, Note_on_c, 15, 63, 126
16, 17850, Note_on_c, 15, 60, 90
16, 17879, Note_on_c, 15, 60, 0
16, 17879, Note_on_c, 15, 63, 0
16, 17880, Note_on_c, 15, 63, 123
16, 17999, Note_on_c, 15, 63, 0
16, 18000, Note_on_c, 15, 60, 127
16, 18119, Note_on_c, 15, 60, 0
16, 18120, Note_on_c, 15, 60, 127
16, 18179, Note_on_c, 15, 60, 0
16, 18180, Note_on_c, 15, 63, 127
16, 18239, Note_on_c, 15, 63, 0
16, 18240, Note_on_c, 15, 65, 127
16, 18359, Note_on_c, 15, 65, 0
16, 18360, Note_on_c, 15, 67, 127
16, 18390, Note_on_c, 15, 65, 79
16, 18419, Note_on_c, 15, 65, 0
16, 18449, Note_on_c, 15, 67, 0
16, 18450, Note_on_c, 15, 67, 82
16, 18479, Note_on_c, 15, 67, 0
16, 18480, Note_on_c, 15, 65, 124
16, 18570, Note_on_c, 15, 60, 81
16, 18599, Note_on_c, 15, 60, 0
16, 18599, Note_on_c, 15, 65, 0
16, 18600, Note_on_c, 15, 67, 126
16, 18600, Note_on_c, 15, 60, 126
16, 18719, Note_on_c, 15, 60, 0
16, 18720, Note_on_c, 15, 65, 126
16, 18809, Note_on_c, 15, 65, 0
16, 18810, Note_on_c, 15, 63, 126
16, 18840, Note_on_c, 15, 60, 126
16, 18869, Note_on_c, 15, 63, 0
16, 19079, Note_on_c, 15, 67, 0
16, 19109, Note_on_c, 15, 60, 0
16, 19200, Note_on_c, 15, 67, 127
16, 19319, Note_on_c, 15, 67, 0
16, 19320, Note_on_c, 15, 65, 127
16, 19379, Note_on_c, 15, 65, 0
16, 19380, Note_on_c, 15, 63, 127
16, 19529, Note_on_c, 15, 63, 0
16, 19560, Note_on_c, 15, 63, 127
16, 19679, Note_on_c, 15, 63, 0
16, 19680, Note_on_c, 15, 63, 125
16, 19799, Note_on_c, 15, 63, 0
16, 19800, Note_on_c, 15, 63, 124
16, 19919, Note_on_c, 15, 63, 0
16, 19920, Note_on_c, 15, 60, 127
16, 20039, Note_on_c, 15, 60, 0
16, 20160, Note_on_c, 15, 67, 127
16, 20279, Note_on_c, 15, 67, 0
16, 20280, Note_on_c, 15, 65, 127
16, 20339, Note_on_c, 15, 65, 0
16, 20340, Note_on_c, 15, 63, 127
16, 20399, Note_on_c, 15, 63, 0
16, 20400, Note_on_c, 15, 63, 127
16, 20459, Note_on_c, 15, 63, 0
16, 20460, Note_on_c, 15, 60, 127
16, 20519, Note_on_c, 15, 60, 0
16, 20520, Note_on_c, 15, 63, 127
16, 20580, Note_on_c, 15, 60, 127
16, 20639, Note_on_c, 15, 60, 0
16, 20639, Note_on_c, 15, 63, 0
16, 20640, Note_on_c, 15, 63, 127
16, 20759, Note_on_c, 15, 63, 0
16, 20760, Note_on_c, 15, 63, 125
16, 20879, Note_on_c, 15, 63, 0
16, 20880, Note_on_c, 15, 60, 127
16, 20999, Note_on_c, 15, 60, 0
16, 21120, Note_on_c, 15, 67, 127
16, 21239, Note_on_c, 15, 67, 0
16, 21240, Note_on_c, 15, 65, 127
16, 21299, Note_on_c, 15, 65, 0
16, 21300, Note_on_c, 15, 63, 127
16, 21359, Note_on_c, 15, 63, 0
16, 21360, Note_on_c, 15, 63, 127
16, 21479, Note_on_c, 15, 63, 0
16, 21480, Note_on_c, 15, 60, 126
16, 21539, Note_on_c, 15, 60, 0
16, 21540, Note_on_c, 15, 63, 126
16, 21659, Note_on_c, 15, 63, 0
16, 21660, Note_on_c, 15, 60, 126
16, 21719, Note_on_c, 15, 60, 0
16, 21720, Note_on_c, 15, 63, 123
16, 21839, Note_on_c, 15, 63, 0
16, 21840, Note_on_c, 15, 60, 127
16, 21959, Note_on_c, 15, 60, 0
16, 21960, Note_on_c, 15, 60, 127
16, 22019, Note_on_c, 15, 60, 0
16, 22020, Note_on_c, 15, 63, 127
16, 22079, Note_on_c, 15, 63, 0
16, 22080, Note_on_c, 15, 65, 127
16, 22199, Note_on_c, 15, 65, 0
16, 22200, Note_on_c, 15, 67, 127
16, 22230, Note_on_c, 15, 65, 79
16, 22259, Note_on_c, 15, 65, 0
16, 22289, Note_on_c, 15, 67, 0
16, 22290, Note_on_c, 15, 67, 82
16, 22319, Note_on_c, 15, 67, 0
16, 22320, Note_on_c, 15, 65, 124
16, 22410, Note_on_c, 15, 60, 81
16, 22439, Note_on_c, 15, 60, 0
16, 22439, Note_on_c, 15, 65, 0
16, 22440, Note_on_c, 15, 60, 126
16, 22799, Note_on_c, 15, 60, 0
16, 23100, Note_on_c, 15, 70, 125
16, 23129, Note_on_c, 15, 70, 0
16, 23130, Note_on_c, 15, 70, 125
16, 23159, Note_on_c, 15, 70, 0
16, 23160, Note_on_c, 15, 70, 126
16, 23189, Note_on_c, 15, 70, 0
16, 23190, Note_on_c, 15, 70, 126
16, 23219, Note_on_c, 15, 70, 0
16, 23220, Note_on_c, 15, 70, 126
16, 23279, Note_on_c, 15, 70, 0
16, 23280, Note_on_c, 15, 70, 127
16, 23339, Note_on_c, 15, 70, 0
16, 23340, Note_on_c, 15, 70, 127
16, 23399, Note_on_c, 15, 70, 0
16, 23400, Note_on_c, 15, 67, 127
16, 23459, Note_on_c, 15, 67, 0
16, 23460, Note_on_c, 15, 67, 127
16, 23489, Note_on_c, 15, 67, 0
16, 23490, Note_on_c, 15, 68, 127
16, 23519, Note_on_c, 15, 68, 0
16, 23520, Note_on_c, 15, 70, 127
16, 23579, Note_on_c, 15, 70, 0
16, 23580, Note_on_c, 15, 70, 127
16, 23639, Note_on_c, 15, 70, 0
16, 23640, Note_on_c, 15, 67, 127
16, 23700, Note_on_c, 15, 70, 127
16, 23759, Note_on_c, 15, 67, 0
16, 23879, Note_on_c, 15, 70, 0
16, 23880, Note_on_c, 15, 67, 117
16, 23939, Note_on_c, 15, 67, 0
16, 23940, Note_on_c, 15, 68, 127
16, 23999, Note_on_c, 15, 68, 0
16, 24000, Note_on_c, 15, 70, 125
16, 24086, Pitch_bend_c, 15, 8539
16, 24179, Note_on_c, 15, 70, 0
16, 24180, Note_on_c, 15, 66, 109
16, 24200, Pitch_bend_c, 15, 8738
16, 24203, Pitch_bend_c, 15, 8739
16, 24207, Pitch_bend_c, 15, 9532
16, 24210, Pitch_bend_c, 15, 10128
16, 24213, Pitch_bend_c, 15, 10922
16, 24216, Pitch_bend_c, 15, 11121
16, 24219, Pitch_bend_c, 15, 11915
16, 24222, Pitch_bend_c, 15, 12511
16, 24225, Pitch_bend_c, 15, 13305
16, 24228, Pitch_bend_c, 15, 13504
16, 24232, Pitch_bend_c, 15, 13505
16, 24239, Note_on_c, 15, 66, 0
16, 24240, Note_on_c, 15, 65, 107
16, 24250, Pitch_bend_c, 15, 13305
16, 24257, Pitch_bend_c, 15, 8192
16, 24299, Note_on_c, 15, 65, 0
16, 24480, Note_on_c, 15, 70, 127
16, 24539, Note_on_c, 15, 70, 0
16, 24540, Note_on_c, 15, 70, 127
16, 24599, Note_on_c, 15, 70, 0
16, 24600, Note_on_c, 15, 67, 127
16, 24659, Note_on_c, 15, 67, 0
16, 24660, Note_on_c, 15, 72, 127
16, 24719, Note_on_c, 15, 72, 0
16, 24720, Note_on_c, 15, 70, 127
16, 24929, Note_on_c, 15, 70, 0
16, 25020, Note_on_c, 15, 67, 127
16, 25049, Note_on_c, 15, 67, 0
16, 25050, Note_on_c, 15, 67, 127
16, 25079, Note_on_c, 15, 67, 0
16, 25080, Note_on_c, 15, 67, 127
16, 25109, Note_on_c, 15, 67, 0
16, 25110, Note_on_c, 15, 67, 127
16, 25139, Note_on_c, 15, 67, 0
16, 25140, Note_on_c, 15, 68, 127
16, 25169, Note_on_c, 15, 68, 0
16, 25170, Note_on_c, 15, 70, 127
16, 25259, Note_on_c, 15, 70, 0
16, 25260, Note_on_c, 15, 67, 127
16, 25289, Note_on_c, 15, 67, 0
16, 25290, Note_on_c, 15, 67, 127
16, 25319, Note_on_c, 15, 67, 0
16, 25320, Note_on_c, 15, 67, 127
16, 25349, Note_on_c, 15, 67, 0
16, 25350, Note_on_c, 15, 67, 127
16, 25379, Note_on_c, 15, 67, 0
16, 25380, Note_on_c, 15, 67, 127
16, 25409, Note_on_c, 15, 67, 0
16, 25410, Note_on_c, 15, 67, 127
16, 25499, Note_on_c, 15, 67, 0
16, 25500, Note_on_c, 15, 67, 127
16, 25529, Note_on_c, 15, 67, 0
16, 25530, Note_on_c, 15, 67, 127
16, 25589, Note_on_c, 15, 67, 0
16, 25590, Note_on_c, 15, 67, 127
16, 25679, Note_on_c, 15, 67, 0
16, 25680, Note_on_c, 15, 67, 127
16, 25709, Note_on_c, 15, 67, 0
16, 25710, Note_on_c, 15, 67, 127
16, 25769, Note_on_c, 15, 67, 0
16, 25770, Note_on_c, 15, 68, 127
16, 25799, Note_on_c, 15, 68, 0
16, 25800, Note_on_c, 15, 70, 127
16, 25919, Note_on_c, 15, 70, 0
16, 25920, Note_on_c, 15, 67, 127
16, 25979, Note_on_c, 15, 67, 0
16, 25980, Note_on_c, 15, 67, 127
16, 26039, Note_on_c, 15, 67, 0
16, 26040, Note_on_c, 15, 67, 127
16, 26099, Note_on_c, 15, 67, 0
16, 26100, Note_on_c, 15, 68, 127
16, 26159, Note_on_c, 15, 68, 0
16, 26160, Note_on_c, 15, 70, 127
16, 26250, Note_on_c, 15, 67, 127
16, 26279, Note_on_c, 15, 70, 0
16, 26339, Note_on_c, 15, 67, 0
16, 26340, Note_on_c, 15, 65, 127
16, 26399, Note_on_c, 15, 65, 0
16, 26400, Note_on_c, 15, 67, 127
16, 26459, Note_on_c, 15, 67, 0
16, 26460, Note_on_c, 15, 68, 127
16, 26519, Note_on_c, 15, 68, 0
16, 26520, Note_on_c, 15, 67, 127
16, 26579, Note_on_c, 15, 67, 0
16, 26580, Note_on_c, 15, 72, 127
16, 26699, Note_on_c, 15, 72, 0
16, 26700, Note_on_c, 15, 70, 127
16, 26759, Note_on_c, 15, 70, 0
16, 26760, Note_on_c, 15, 65, 89
16, 26789, Note_on_c, 15, 65, 0
16, 26940, Note_on_c, 15, 67, 127
16, 26969, Note_on_c, 15, 67, 0
16, 26970, Note_on_c, 15, 67, 127
16, 26999, Note_on_c, 15, 67, 0
16, 27000, Note_on_c, 15, 67, 127
16, 27029, Note_on_c, 15, 67, 0
16, 27030, Note_on_c, 15, 68, 127
16, 27059, Note_on_c, 15, 68, 0
16, 27060, Note_on_c, 15, 70, 127
16, 27149, Note_on_c, 15, 70, 0
16, 27150, Note_on_c, 15, 67, 127
16, 27179, Note_on_c, 15, 67, 0
16, 27180, Note_on_c, 15, 67, 127
16, 27209, Note_on_c, 15, 67, 0
16, 27240, Note_on_c, 15, 67, 127
16, 27269, Note_on_c, 15, 67, 0
16, 27300, Note_on_c, 15, 67, 127
16, 27329, Note_on_c, 15, 67, 0
16, 27360, Note_on_c, 15, 67, 127
16, 27389, Note_on_c, 15, 67, 0
16, 27420, Note_on_c, 15, 67, 126
16, 27449, Note_on_c, 15, 67, 0
16, 27450, Note_on_c, 15, 67, 126
16, 27479, Note_on_c, 15, 67, 0
16, 27480, Note_on_c, 15, 67, 126
16, 27509, Note_on_c, 15, 67, 0
16, 27510, Note_on_c, 15, 68, 116
16, 27539, Note_on_c, 15, 68, 0
16, 27540, Note_on_c, 15, 70, 125
16, 27659, Note_on_c, 15, 70, 0
16, 27660, Note_on_c, 15, 67, 125
16, 27719, Note_on_c, 15, 67, 0
16, 27720, Note_on_c, 15, 67, 125
16, 27779, Note_on_c, 15, 67, 0
16, 27780, Note_on_c, 15, 68, 125
16, 27839, Note_on_c, 15, 68, 0
16, 27840, Note_on_c, 15, 67, 125
16, 27929, Note_on_c, 15, 67, 0
16, 27930, Note_on_c, 15, 67, 125
16, 27989, Note_on_c, 15, 67, 0
16, 27990, Note_on_c, 15, 68, 125
16, 28049, Note_on_c, 15, 68, 0
16, 28050, Note_on_c, 15, 70, 125
16, 28169, Note_on_c, 15, 70, 0
16, 28170, Note_on_c, 15, 67, 125
16, 28229, Note_on_c, 15, 67, 0
16, 28230, Note_on_c, 15, 67, 125
16, 28289, Note_on_c, 15, 67, 0
16, 28290, Note_on_c, 15, 68, 125
16, 28350, Note_on_c, 15, 67, 125
16, 28379, Note_on_c, 15, 68, 0
16, 28469, Note_on_c, 15, 67, 0
16, 28470, Note_on_c, 15, 68, 125
16, 28559, Note_on_c, 15, 68, 0
16, 28560, Note_on_c, 15, 70, 125
16, 28679, Note_on_c, 15, 70, 0
16, 28680, Note_on_c, 15, 63, 127
16, 28739, Note_on_c, 15, 63, 0
16, 28740, Note_on_c, 15, 63, 127
16, 28799, Note_on_c, 15, 63, 0
16, 28800, Note_on_c, 15, 67, 127
16, 28919, Note_on_c, 15, 67, 0
16, 28920, Note_on_c, 15, 65, 127
16, 28950, Note_on_c, 15, 66, 84
16, 28979, Note_on_c, 15, 66, 0
16, 28980, Note_on_c, 15, 65, 90
16, 29009, Note_on_c, 15, 65, 0
16, 29010, Note_on_c, 15, 63, 96
16, 29039, Note_on_c, 15, 63, 0
16, 29039, Note_on_c, 15, 65, 0
16, 29040, Note_on_c, 15, 65, 127
16, 29159, Note_on_c, 15, 65, 0
16, 29160, Note_on_c, 15, 63, 127
16, 29219, Note_on_c, 15, 63, 0
16, 29220, Note_on_c, 15, 60, 127
16, 29279, Note_on_c, 15, 60, 0
16, 29280, Note_on_c, 15, 65, 127
16, 29399, Note_on_c, 15, 65, 0
16, 29400, Note_on_c, 15, 65, 127
16, 29430, Note_on_c, 15, 67, 84
16, 29459, Note_on_c, 15, 67, 0
16, 29609, Note_on_c, 15, 65, 0
16, 29684, Control_c, 15, 95, 121
16, 29705, Control_c, 15, 91, 103
16, 29749, Control_c, 15, 91, 105
16, 29760, Note_on_c, 15, 67, 100
16, 29760, Control_c, 15, 91, 108
16, 29770, Control_c, 15, 91, 122
16, 29779, Control_c, 15, 91, 125
16, 29849, Note_on_c, 15, 67, 0
16, 29880, Note_on_c, 15, 65, 100
16, 29880, Note_on_c, 15, 65, 127
16, 29910, Note_on_c, 15, 66, 84
16, 29939, Note_on_c, 15, 66, 0
16, 29940, Note_on_c, 15, 65, 90
16, 29969, Note_on_c, 15, 65, 0
16, 29969, Note_on_c, 15, 65, 0
16, 29970, Note_on_c, 15, 63, 96
16, 29999, Note_on_c, 15, 63, 0
16, 29999, Note_on_c, 15, 65, 0
16, 30000, Note_on_c, 15, 65, 127
16, 30119, Note_on_c, 15, 65, 0
16, 30120, Note_on_c, 15, 63, 127
16, 30179, Note_on_c, 15, 63, 0
16, 30180, Note_on_c, 15, 60, 127
16, 30239, Note_on_c, 15, 60, 0
16, 30240, Note_on_c, 15, 65, 127
16, 30329, Note_on_c, 15, 65, 0
16, 30330, Note_on_c, 15, 63, 127
16, 30419, Note_on_c, 15, 63, 0
16, 30420, Note_on_c, 15, 65, 127
16, 30450, Note_on_c, 15, 67, 76
16, 30479, Note_on_c, 15, 67, 0
16, 30480, Note_on_c, 15, 63, 127
16, 30509, Note_on_c, 15, 65, 0
16, 30569, Control_c, 15, 95, 120
16, 30574, Control_c, 15, 95, 118
16, 30589, Control_c, 15, 95, 117
16, 30629, Note_on_c, 15, 63, 0
16, 30780, Note_on_c, 15, 70, 127
16, 30839, Note_on_c, 15, 70, 0
16, 30840, Note_on_c, 15, 72, 127
16, 30929, Note_on_c, 15, 72, 0
16, 30960, Note_on_c, 15, 72, 127
16, 31049, Note_on_c, 15, 72, 0
16, 31050, Note_on_c, 15, 72, 127
16, 31109, Note_on_c, 15, 72, 0
16, 31110, Note_on_c, 15, 72, 127
16, 31169, Note_on_c, 15, 72, 0
16, 31170, Note_on_c, 15, 72, 127
16, 31289, Note_on_c, 15, 72, 0
16, 31290, Note_on_c, 15, 67, 127
16, 31349, Note_on_c, 15, 67, 0
16, 31350, Note_on_c, 15, 70, 127
16, 31380, Note_on_c, 15, 72, 127
16, 31409, Note_on_c, 15, 70, 0
16, 31439, Note_on_c, 15, 72, 0
16, 31440, Note_on_c, 15, 72, 127
16, 31500, Note_on_c, 15, 71, 127
16, 31529, Note_on_c, 15, 72, 0
16, 31530, Note_on_c, 15, 70, 127
16, 31559, Note_on_c, 15, 71, 0
16, 31560, Note_on_c, 15, 67, 127
16, 31589, Note_on_c, 15, 70, 0
16, 31649, Note_on_c, 15, 67, 0
16, 31680, Note_on_c, 15, 65, 127
16, 31739, Note_on_c, 15, 65, 0
16, 31740, Note_on_c, 15, 67, 123
16, 31770, Note_on_c, 15, 72, 76
16, 31799, Note_on_c, 15, 72, 0
16, 31800, Note_on_c, 15, 65, 123
16, 31829, Note_on_c, 15, 67, 0
16, 31859, Note_on_c, 15, 65, 0
16, 31860, Note_on_c, 15, 63, 123
16, 31919, Note_on_c, 15, 63, 0
16, 31920, Note_on_c, 15, 65, 124
16, 32039, Note_on_c, 15, 65, 0
16, 32040, Note_on_c, 15, 63, 124
16, 32099, Note_on_c, 15, 63, 0
16, 32100, Note_on_c, 15, 60, 126
16, 32159, Note_on_c, 15, 60, 0
16, 32160, Note_on_c, 15, 63, 126
16, 32249, Note_on_c, 15, 63, 0
16, 32280, Note_on_c, 15, 63, 127
16, 32339, Note_on_c, 15, 63, 0
16, 32340, Note_on_c, 15, 63, 127
16, 32399, Note_on_c, 15, 63, 0
16, 32400, Note_on_c, 15, 60, 127
16, 32519, Note_on_c, 15, 60, 0
16, 32700, Note_on_c, 15, 75, 127
16, 32759, Note_on_c, 15, 75, 0
16, 32760, Note_on_c, 15, 74, 127
16, 32820, Note_on_c, 15, 70, 127
16, 32849, Note_on_c, 15, 74, 0
16, 32879, Note_on_c, 15, 70, 0
16, 32880, Note_on_c, 15, 72, 127
16, 32910, Note_on_c, 15, 70, 127
16, 32939, Note_on_c, 15, 72, 0
16, 32999, Note_on_c, 15, 70, 0
16, 33000, Note_on_c, 15, 70, 127
16, 33059, Note_on_c, 15, 70, 0
16, 33060, Note_on_c, 15, 67, 127
16, 33119, Note_on_c, 15, 67, 0
16, 33120, Note_on_c, 15, 70, 127
16, 33179, Note_on_c, 15, 70, 0
16, 33180, Note_on_c, 15, 67, 127
16, 33239, Note_on_c, 15, 67, 0
16, 33240, Note_on_c, 15, 70, 127
16, 33299, Note_on_c, 15, 70, 0
16, 33300, Note_on_c, 15, 72, 127
16, 33389, Note_on_c, 15, 72, 0
16, 33390, Note_on_c, 15, 72, 127
16, 33449, Note_on_c, 15, 72, 0
16, 33450, Note_on_c, 15, 70, 127
16, 33480, Note_on_c, 15, 67, 127
16, 33509, Note_on_c, 15, 70, 0
16, 33569, Note_on_c, 15, 67, 0
16, 33600, Note_on_c, 15, 70, 127
16, 33719, Note_on_c, 15, 70, 0
16, 33720, Note_on_c, 15, 65, 81
16, 33749, Note_on_c, 15, 65, 0
16, 33750, Note_on_c, 15, 67, 127
16, 33839, Note_on_c, 15, 67, 0
16, 33840, Note_on_c, 15, 65, 127
16, 33929, Note_on_c, 15, 65, 0
16, 33930, Note_on_c, 15, 63, 127
16, 33989, Note_on_c, 15, 63, 0
16, 33990, Note_on_c, 15, 63, 127
16, 34049, Note_on_c, 15, 63, 0
16, 34080, Note_on_c, 15, 63, 127
16, 34139, Note_on_c, 15, 63, 0
16, 34140, Note_on_c, 15, 60, 127
16, 34199, Note_on_c, 15, 60, 0
16, 34200, Note_on_c, 15, 63, 127
16, 34319, Note_on_c, 15, 63, 0
16, 34320, Note_on_c, 15, 60, 127
16, 34409, Note_on_c, 15, 60, 0
16, 34440, Note_on_c, 15, 60, 127
16, 34470, Note_on_c, 15, 63, 127
16, 34499, Note_on_c, 15, 60, 0
16, 34559, Note_on_c, 15, 63, 0
16, 34560, Note_on_c, 15, 67, 127
16, 34679, Note_on_c, 15, 67, 0
16, 34680, Note_on_c, 15, 65, 127
16, 34739, Note_on_c, 15, 65, 0
16, 34740, Note_on_c, 15, 63, 127
16, 34799, Note_on_c, 15, 63, 0
16, 34800, Note_on_c, 15, 63, 127
16, 34859, Note_on_c, 15, 63, 0
16, 34860, Note_on_c, 15, 60, 127
16, 34919, Note_on_c, 15, 60, 0
16, 34920, Note_on_c, 15, 63, 127
16, 35039, Note_on_c, 15, 63, 0
16, 35040, Note_on_c, 15, 63, 125
16, 35159, Note_on_c, 15, 63, 0
16, 35160, Note_on_c, 15, 63, 124
16, 35279, Note_on_c, 15, 63, 0
16, 35280, Note_on_c, 15, 60, 127
16, 35339, Note_on_c, 15, 60, 0
16, 35340, Note_on_c, 15, 60, 127
16, 35369, Note_on_c, 15, 60, 0
16, 35400, Note_on_c, 15, 60, 127
16, 35459, Note_on_c, 15, 60, 0
16, 35460, Note_on_c, 15, 63, 127
16, 35519, Note_on_c, 15, 63, 0
16, 35520, Note_on_c, 15, 67, 127
16, 35639, Note_on_c, 15, 67, 0
16, 35640, Note_on_c, 15, 65, 127
16, 35699, Note_on_c, 15, 65, 0
16, 35700, Note_on_c, 15, 63, 127
16, 35759, Note_on_c, 15, 63, 0
16, 35760, Note_on_c, 15, 63, 127
16, 35819, Note_on_c, 15, 63, 0
16, 35820, Note_on_c, 15, 60, 127
16, 35879, Note_on_c, 15, 60, 0
16, 35880, Note_on_c, 15, 63, 127
16, 35999, Note_on_c, 15, 63, 0
16, 36000, Note_on_c, 15, 63, 127
16, 36119, Note_on_c, 15, 63, 0
16, 36120, Note_on_c, 15, 63, 125
16, 36239, Note_on_c, 15, 63, 0
16, 36240, Note_on_c, 15, 60, 127
16, 36359, Note_on_c, 15, 60, 0
16, 36360, Note_on_c, 15, 67, 127
16, 36479, Note_on_c, 15, 67, 0
16, 36480, Note_on_c, 15, 65, 127
16, 36539, Note_on_c, 15, 65, 0
16, 36540, Note_on_c, 15, 63, 127
16, 36599, Note_on_c, 15, 63, 0
16, 36600, Note_on_c, 15, 63, 127
16, 36659, Note_on_c, 15, 63, 0
16, 36660, Note_on_c, 15, 60, 127
16, 36719, Note_on_c, 15, 60, 0
16, 36720, Note_on_c, 15, 63, 127
16, 36779, Note_on_c, 15, 63, 0
16, 36780, Note_on_c, 15, 60, 127
16, 36839, Note_on_c, 15, 60, 0
16, 36840, Note_on_c, 15, 63, 126
16, 36899, Note_on_c, 15, 63, 0
16, 36900, Note_on_c, 15, 60, 127
16, 36959, Note_on_c, 15, 60, 0
16, 36960, Note_on_c, 15, 63, 126
16, 37079, Note_on_c, 15, 63, 0
16, 37080, Note_on_c, 15, 63, 123
16, 37199, Note_on_c, 15, 63, 0
16, 37200, Note_on_c, 15, 60, 127
16, 37319, Note_on_c, 15, 60, 0
16, 37320, Note_on_c, 15, 60, 127
16, 37379, Note_on_c, 15, 60, 0
16, 37380, Note_on_c, 15, 63, 127
16, 37439, Note_on_c, 15, 63, 0
16, 37440, Note_on_c, 15, 65, 127
16, 37559, Note_on_c, 15, 65, 0
16, 37560, Note_on_c, 15, 67, 127
16, 37590, Note_on_c, 15, 65, 79
16, 37619, Note_on_c, 15, 65, 0
16, 37649, Note_on_c, 15, 67, 0
16, 37650, Note_on_c, 15, 67, 82
16, 37679, Note_on_c, 15, 67, 0
16, 37680, Note_on_c, 15, 65, 124
16, 37770, Note_on_c, 15, 60, 81
16, 37799, Note_on_c, 15, 60, 0
16, 37799, Note_on_c, 15, 65, 0
16, 37800, Note_on_c, 15, 67, 126
16, 37800, Note_on_c, 15, 60, 126
16, 37919, Note_on_c, 15, 60, 0
16, 37920, Note_on_c, 15, 65, 126
16, 38009, Note_on_c, 15, 65, 0
16, 38010, Note_on_c, 15, 63, 126
16, 38040, Note_on_c, 15, 60, 126
16, 38069, Note_on_c, 15, 63, 0
16, 38279, Note_on_c, 15, 67, 0
16, 38309, Note_on_c, 15, 60, 0
16, 38400, Note_on_c, 15, 67, 127
16, 38519, Note_on_c, 15, 67, 0
16, 38520, Note_on_c, 15, 65, 127
16, 38579, Note_on_c, 15, 65, 0
16, 38580, Note_on_c, 15, 63, 127
16, 38729, Note_on_c, 15, 63, 0
16, 38760, Note_on_c, 15, 63, 127
16, 38879, Note_on_c, 15, 63, 0
16, 38880, Note_on_c, 15, 63, 125
16, 38999, Note_on_c, 15, 63, 0
16, 39000, Note_on_c, 15, 63, 124
16, 39119, Note_on_c, 15, 63, 0
16, 39120, Note_on_c, 15, 60, 127
16, 39239, Note_on_c, 15, 60, 0
16, 39360, Note_on_c, 15, 67, 127
16, 39479, Note_on_c, 15, 67, 0
16, 39480, Note_on_c, 15, 65, 127
16, 39539, Note_on_c, 15, 65, 0
16, 39540, Note_on_c, 15, 63, 127
16, 39599, Note_on_c, 15, 63, 0
16, 39600, Note_on_c, 15, 63, 127
16, 39659, Note_on_c, 15, 63, 0
16, 39660, Note_on_c, 15, 60, 127
16, 39719, Note_on_c, 15, 60, 0
16, 39720, Note_on_c, 15, 63, 127
16, 39780, Note_on_c, 15, 60, 127
16, 39839, Note_on_c, 15, 60, 0
16, 39839, Note_on_c, 15, 63, 0
16, 39840, Note_on_c, 15, 63, 127
16, 39959, Note_on_c, 15, 63, 0
16, 39960, Note_on_c, 15, 63, 125
16, 40079, Note_on_c, 15, 63, 0
16, 40080, Note_on_c, 15, 60, 127
16, 40199, Note_on_c, 15, 60, 0
16, 40200, Note_on_c, 15, 60, 127
16, 40259, Note_on_c, 15, 60, 0
16, 40260, Note_on_c, 15, 63, 127
16, 40319, Note_on_c, 15, 63, 0
16, 40320, Note_on_c, 15, 67, 127
16, 40439, Note_on_c, 15, 67, 0
16, 40440, Note_on_c, 15, 65, 127
16, 40499, Note_on_c, 15, 65, 0
16, 40500, Note_on_c, 15, 63, 127
16, 40559, Note_on_c, 15, 63, 0
16, 40560, Note_on_c, 15, 63, 127
16, 40679, Note_on_c, 15, 63, 0
16, 40680, Note_on_c, 15, 60, 126
16, 40739, Note_on_c, 15, 60, 0
16, 40740, Note_on_c, 15, 63, 126
16, 40859, Note_on_c, 15, 63, 0
16, 40860, Note_on_c, 15, 60, 126
16, 40919, Note_on_c, 15, 60, 0
16, 40920, Note_on_c, 15, 63, 123
16, 40980, Note_on_c, 15, 72, 127
16, 41039, Note_on_c, 15, 63, 0
16, 41040, Note_on_c, 15, 60, 127
16, 41099, Note_on_c, 15, 72, 0
16, 41100, Note_on_c, 15, 70, 127
16, 41159, Note_on_c, 15, 70, 0
16, 41159, Note_on_c, 15, 60, 0
16, 41160, Note_on_c, 15, 60, 127
16, 41160, Note_on_c, 15, 72, 127
16, 41219, Note_on_c, 15, 60, 0
16, 41220, Note_on_c, 15, 63, 127
16, 41279, Note_on_c, 15, 63, 0
16, 41280, Note_on_c, 15, 65, 127
16, 41339, Note_on_c, 15, 72, 0
16, 41399, Note_on_c, 15, 65, 0
16, 41400, Note_on_c, 15, 67, 127
16, 41430, Note_on_c, 15, 65, 79
16, 41459, Note_on_c, 15, 65, 0
16, 41489, Note_on_c, 15, 67, 0
16, 41490, Note_on_c, 15, 67, 82
16, 41519, Note_on_c, 15, 67, 0
16, 41520, Note_on_c, 15, 65, 124
16, 41610, Note_on_c, 15, 60, 81
16, 41639, Note_on_c, 15, 60, 0
16, 41639, Note_on_c, 15, 65, 0
16, 41640, Note_on_c, 15, 67, 126
16, 41640, Note_on_c, 15, 60, 126
16, 41759, Note_on_c, 15, 60, 0
16, 41760, Note_on_c, 15, 65, 126
16, 41849, Note_on_c, 15, 65, 0
16, 41850, Note_on_c, 15, 63, 126
16, 41880, Note_on_c, 15, 60, 126
16, 41909, Note_on_c, 15, 63, 0
16, 42119, Note_on_c, 15, 67, 0
16, 42149, Note_on_c, 15, 60, 0
16, 42240, Note_on_c, 15, 70, 127
16, 42359, Note_on_c, 15, 70, 0
16, 42360, Note_on_c, 15, 70, 127
16, 42479, Note_on_c, 15, 70, 0
16, 42480, Note_on_c, 15, 67, 127
16, 42599, Note_on_c, 15, 67, 0
16, 42600, Note_on_c, 15, 72, 127
16, 42719, Note_on_c, 15, 72, 0
16, 42720, Note_on_c, 15, 70, 127
16, 42929, Note_on_c, 15, 70, 0
16, 42960, Note_on_c, 15, 67, 127
16, 43079, Note_on_c, 15, 67, 0
16, 43080, Note_on_c, 15, 68, 127
16, 43199, Note_on_c, 15, 68, 0
16, 43200, Note_on_c, 15, 70, 127
16, 43319, Note_on_c, 15, 70, 0
16, 43320, Note_on_c, 15, 70, 127
16, 43439, Note_on_c, 15, 70, 0
16, 43440, Note_on_c, 15, 67, 127
16, 43559, Note_on_c, 15, 67, 0
16, 43560, Note_on_c, 15, 72, 127
16, 43679, Note_on_c, 15, 72, 0
16, 43680, Note_on_c, 15, 70, 127
16, 43920, Note_on_c, 15, 67, 127
16, 43979, Note_on_c, 15, 67, 0
16, 43979, Note_on_c, 15, 70, 0
16, 43980, Note_on_c, 15, 63, 127
16, 44039, Note_on_c, 15, 63, 0
16, 44040, Note_on_c, 15, 65, 127
16, 44160, Note_on_c, 15, 67, 77
16, 44219, Note_on_c, 15, 65, 0
16, 44279, Note_on_c, 15, 67, 0
16, 44280, Note_on_c, 15, 65, 59
16, 44399, Note_on_c, 15, 65, 0
16, 44400, Note_on_c, 15, 67, 43
16, 44519, Note_on_c, 15, 67, 0
16, 44520, Note_on_c, 15, 65, 28
16, 44639, Note_on_c, 15, 65, 0
16, 44640, Note_on_c, 15, 67, 13
16, 44759, Note_on_c, 15, 67, 0
16, 45960, Note_on_c, 15, 68, 77
16, 46079, Note_on_c, 15, 68, 0
16, 46080, Note_on_c, 15, 70, 127
16, 46199, Note_on_c, 15, 70, 0
16, 46200, Note_on_c, 15, 70, 127
16, 46319, Note_on_c, 15, 70, 0
16, 46320, Note_on_c, 15, 67, 127
16, 46439, Note_on_c, 15, 67, 0
16, 46440, Note_on_c, 15, 72, 127
16, 46559, Note_on_c, 15, 72, 0
16, 46560, Note_on_c, 15, 70, 127
16, 46769, Note_on_c, 15, 70, 0
16, 46800, Note_on_c, 15, 67, 127
16, 46919, Note_on_c, 15, 67, 0
16, 46920, Note_on_c, 15, 68, 127
16, 47039, Note_on_c, 15, 68, 0
16, 47040, Note_on_c, 15, 70, 127
16, 47159, Note_on_c, 15, 70, 0
16, 47160, Note_on_c, 15, 70, 127
16, 47279, Note_on_c, 15, 70, 0
16, 47280, Note_on_c, 15, 67, 127
16, 47399, Note_on_c, 15, 67, 0
16, 47400, Note_on_c, 15, 72, 127
16, 47519, Note_on_c, 15, 72, 0
16, 47520, Note_on_c, 15, 70, 127
16, 47760, Note_on_c, 15, 67, 127
16, 47819, Note_on_c, 15, 67, 0
16, 47819, Note_on_c, 15, 70, 0
16, 47820, Note_on_c, 15, 63, 127
16, 47879, Note_on_c, 15, 63, 0
16, 47880, Note_on_c, 15, 65, 127
16, 48000, Note_on_c, 15, 63, 77
16, 48059, Note_on_c, 15, 65, 0
16, 48119, Note_on_c, 15, 63, 0
16, 48120, Note_on_c, 15, 65, 59
16, 48239, Note_on_c, 15, 65, 0
16, 48240, Note_on_c, 15, 63, 43
16, 48359, Note_on_c, 15, 63, 0
16, 48360, Note_on_c, 15, 65, 28
16, 48479, Note_on_c, 15, 65, 0
16, 48480, Note_on_c, 15, 63, 13
16, 48599, Note_on_c, 15, 63, 0
16, 48600, Note_on_c, 15, 65, 7
16, 48719, Note_on_c, 15, 65, 0
16, 48720, Note_on_c, 15, 63, 0
16, 48839, Note_on_c, 15, 63, 0
16, 49920, Note_on_c, 15, 67, 127
16, 50039, Note_on_c, 15, 67, 0
16, 50040, Note_on_c, 15, 65, 127
16, 50099, Note_on_c, 15, 65, 0
16, 50100, Note_on_c, 15, 63, 127
16, 50159, Note_on_c, 15, 63, 0
16, 50160, Note_on_c, 15, 63, 127
16, 50219, Note_on_c, 15, 63, 0
16, 50220, Note_on_c, 15, 60, 127
16, 50279, Note_on_c, 15, 60, 0
16, 50280, Note_on_c, 15, 63, 127
16, 50399, Note_on_c, 15, 63, 0
16, 50400, Note_on_c, 15, 63, 125
16, 50519, Note_on_c, 15, 63, 0
16, 50520, Note_on_c, 15, 63, 124
16, 50639, Note_on_c, 15, 63, 0
16, 50640, Note_on_c, 15, 60, 127
16, 50699, Note_on_c, 15, 60, 0
16, 50700, Note_on_c, 15, 60, 127
16, 50729, Note_on_c, 15, 60, 0
16, 50760, Note_on_c, 15, 60, 127
16, 50819, Note_on_c, 15, 60, 0
16, 50820, Note_on_c, 15, 63, 127
16, 50879, Note_on_c, 15, 63, 0
16, 50880, Note_on_c, 15, 67, 127
16, 50999, Note_on_c, 15, 67, 0
16, 51000, Note_on_c, 15, 65, 127
16, 51059, Note_on_c, 15, 65, 0
16, 51060, Note_on_c, 15, 63, 127
16, 51119, Note_on_c, 15, 63, 0
16, 51120, Note_on_c, 15, 63, 127
16, 51179, Note_on_c, 15, 63, 0
16, 51180, Note_on_c, 15, 60, 127
16, 51239, Note_on_c, 15, 60, 0
16, 51240, Note_on_c, 15, 63, 127
16, 51299, Note_on_c, 15, 63, 0
16, 51300, Note_on_c, 15, 60, 127
16, 51359, Note_on_c, 15, 60, 0
16, 51360, Note_on_c, 15, 63, 127
16, 51479, Note_on_c, 15, 63, 0
16, 51480, Note_on_c, 15, 63, 125
16, 51599, Note_on_c, 15, 63, 0
16, 51600, Note_on_c, 15, 60, 127
16, 51719, Note_on_c, 15, 60, 0
16, 51720, Note_on_c, 15, 60, 127
16, 51779, Note_on_c, 15, 60, 0
16, 51780, Note_on_c, 15, 63, 127
16, 51839, Note_on_c, 15, 63, 0
16, 51840, Note_on_c, 15, 67, 127
16, 51959, Note_on_c, 15, 67, 0
16, 51960, Note_on_c, 15, 65, 127
16, 52019, Note_on_c, 15, 65, 0
16, 52020, Note_on_c, 15, 63, 127
16, 52079, Note_on_c, 15, 63, 0
16, 52080, Note_on_c, 15, 63, 127
16, 52139, Note_on_c, 15, 63, 0
16, 52140, Note_on_c, 15, 60, 127
16, 52199, Note_on_c, 15, 60, 0
16, 52200, Note_on_c, 15, 63, 127
16, 52259, Note_on_c, 15, 63, 0
16, 52260, Note_on_c, 15, 60, 127
16, 52319, Note_on_c, 15, 60, 0
16, 52320, Note_on_c, 15, 63, 126
16, 52439, Note_on_c, 15, 63, 0
16, 52440, Note_on_c, 15, 63, 123
16, 52559, Note_on_c, 15, 63, 0
16, 52560, Note_on_c, 15, 60, 127
16, 52679, Note_on_c, 15, 60, 0
16, 52680, Note_on_c, 15, 60, 127
16, 52739, Note_on_c, 15, 60, 0
16, 52740, Note_on_c, 15, 63, 127
16, 52799, Note_on_c, 15, 63, 0
16, 52800, Note_on_c, 15, 65, 127
16, 52860, Note_on_c, 15, 75, 127
16, 52919, Note_on_c, 15, 65, 0
16, 52920, Note_on_c, 15, 67, 127
16, 52950, Note_on_c, 15, 65, 79
16, 52979, Note_on_c, 15, 65, 0
16, 52979, Note_on_c, 15, 75, 0
16, 52980, Note_on_c, 15, 74, 127
16, 53009, Note_on_c, 15, 67, 0
16, 53010, Note_on_c, 15, 67, 82
16, 53039, Note_on_c, 15, 67, 0
16, 53040, Note_on_c, 15, 65, 124
16, 53099, Note_on_c, 15, 74, 0
16, 53100, Note_on_c, 15, 70, 127
16, 53130, Note_on_c, 15, 60, 81
16, 53159, Note_on_c, 15, 60, 0
16, 53159, Note_on_c, 15, 65, 0
16, 53160, Note_on_c, 15, 67, 126
16, 53160, Note_on_c, 15, 60, 126
16, 53189, Note_on_c, 15, 70, 0
16, 53220, Note_on_c, 15, 67, 127
16, 53279, Note_on_c, 15, 67, 0
16, 53279, Note_on_c, 15, 60, 0
16, 53280, Note_on_c, 15, 65, 126
16, 53280, Note_on_c, 15, 72, 127
16, 53369, Note_on_c, 15, 65, 0
16, 53370, Note_on_c, 15, 63, 126
16, 53400, Note_on_c, 15, 60, 126
16, 53429, Note_on_c, 15, 63, 0
16, 53489, Note_on_c, 15, 72, 0
16, 53639, Note_on_c, 15, 67, 0
16, 53669, Note_on_c, 15, 60, 0
16, 53760, Note_on_c, 15, 67, 127
16, 53879, Note_on_c, 15, 67, 0
16, 53880, Note_on_c, 15, 65, 127
16, 53939, Note_on_c, 15, 65, 0
16, 53940, Note_on_c, 15, 63, 127
16, 54089, Note_on_c, 15, 63, 0
16, 54120, Note_on_c, 15, 63, 127
16, 54239, Note_on_c, 15, 63, 0
16, 54240, Note_on_c, 15, 63, 125
16, 54359, Note_on_c, 15, 63, 0
16, 54360, Note_on_c, 15, 63, 124
16, 54479, Note_on_c, 15, 63, 0
16, 54480, Note_on_c, 15, 60, 127
16, 54599, Note_on_c, 15, 60, 0
16, 54720, Note_on_c, 15, 67, 127
16, 54839, Note_on_c, 15, 67, 0
16, 54840, Note_on_c, 15, 65, 127
16, 54899, Note_on_c, 15, 65, 0
16, 54900, Note_on_c, 15, 63, 127
16, 54959, Note_on_c, 15, 63, 0
16, 54960, Note_on_c, 15, 63, 127
16, 55019, Note_on_c, 15, 63, 0
16, 55020, Note_on_c, 15, 60, 127
16, 55079, Note_on_c, 15, 60, 0
16, 55080, Note_on_c, 15, 63, 127
16, 55139, Note_on_c, 15, 63, 0
16, 55140, Note_on_c, 15, 60, 127
16, 55199, Note_on_c, 15, 60, 0
16, 55200, Note_on_c, 15, 63, 127
16, 55319, Note_on_c, 15, 63, 0
16, 55320, Note_on_c, 15, 63, 125
16, 55439, Note_on_c, 15, 63, 0
16, 55440, Note_on_c, 15, 60, 127
16, 55559, Note_on_c, 15, 60, 0
16, 55680, Note_on_c, 15, 67, 127
16, 55799, Note_on_c, 15, 67, 0
16, 55800, Note_on_c, 15, 65, 127
16, 55859, Note_on_c, 15, 65, 0
16, 55860, Note_on_c, 15, 63, 127
16, 55919, Note_on_c, 15, 63, 0
16, 55920, Note_on_c, 15, 63, 127
16, 56039, Note_on_c, 15, 63, 0
16, 56040, Note_on_c, 15, 60, 126
16, 56099, Note_on_c, 15, 60, 0
16, 56100, Note_on_c, 15, 63, 126
16, 56219, Note_on_c, 15, 63, 0
16, 56220, Note_on_c, 15, 60, 126
16, 56279, Note_on_c, 15, 60, 0
16, 56280, Note_on_c, 15, 63, 123
16, 56399, Note_on_c, 15, 63, 0
16, 56400, Note_on_c, 15, 60, 127
16, 56519, Note_on_c, 15, 60, 0
16, 56520, Note_on_c, 15, 60, 127
16, 56579, Note_on_c, 15, 60, 0
16, 56580, Note_on_c, 15, 63, 127
16, 56639, Note_on_c, 15, 63, 0
16, 56640, Note_on_c, 15, 65, 127
16, 56759, Note_on_c, 15, 65, 0
16, 56760, Note_on_c, 15, 67, 127
16, 56790, Note_on_c, 15, 65, 79
16, 56819, Note_on_c, 15, 65, 0
16, 56849, Note_on_c, 15, 67, 0
16, 56850, Note_on_c, 15, 67, 82
16, 56879, Note_on_c, 15, 67, 0
16, 56880, Note_on_c, 15, 65, 124
16, 56970, Note_on_c, 15, 60, 81
16, 56999, Note_on_c, 15, 60, 0
16, 56999, Note_on_c, 15, 65, 0
16, 57000, Note_on_c, 15, 67, 126
16, 57000, Note_on_c, 15, 60, 126
16, 57119, Note_on_c, 15, 60, 0
16, 57120, Note_on_c, 15, 65, 126
16, 57209, Note_on_c, 15, 65, 0
16, 57210, Note_on_c, 15, 63, 126
16, 57240, Note_on_c, 15, 60, 126
16, 57269, Note_on_c, 15, 63, 0
16, 57479, Note_on_c, 15, 67, 0
16, 57509, Note_on_c, 15, 60, 0
16, 59040, Control_c, 15, 7, 80
16, 59075, Control_c, 15, 7, 79
16, 59111, Control_c, 15, 7, 78
16, 59147, Control_c, 15, 7, 77
16, 59183, Control_c, 15, 7, 76
16, 59219, Control_c, 15, 7, 75
16, 59255, Control_c, 15, 7, 74
16, 59291, Control_c, 15, 7, 73
16, 59327, Control_c, 15, 7, 72
16, 59363, Control_c, 15, 7, 71
16, 59399, Control_c, 15, 7, 70
16, 59435, Control_c, 15, 7, 69
16, 59471, Control_c, 15, 7, 68
16, 59507, Control_c, 15, 7, 67
16, 59543, Control_c, 15, 7, 66
16, 59579, Control_c, 15, 7, 65
16, 59615, Control_c, 15, 7, 64
16, 59651, Control_c, 15, 7, 63
16, 59687, Control_c, 15, 7, 62
16, 59723, Control_c, 15, 7, 61
16, 59759, Control_c, 15, 7, 60
16, 59795, Control_c, 15, 7, 59
16, 59831, Control_c, 15, 7, 58
16, 59867, Control_c, 15, 7, 57
16, 59903, Control_c, 15, 7, 56
16, 59939, Control_c, 15, 7, 55
16, 59975, Control_c, 15, 7, 54
16, 60011, Control_c, 15, 7, 53
16, 60047, Control_c, 15, 7, 52
16, 60083, Control_c, 15, 7, 51
16, 60119, Control_c, 15, 7, 50
16, 60155, Control_c, 15, 7, 49
16, 60191, Control_c, 15, 7, 48
16, 60227, Control_c, 15, 7, 47
16, 60263, Control_c, 15, 7, 46
16, 60299, Control_c, 15, 7, 45
16, 60335, Control_c, 15, 7, 44
16, 60371, Control_c, 15, 7, 43
16, 60407, Control_c, 15, 7, 42
16, 60443, Control_c, 15, 7, 41
16, 60479, Control_c, 15, 7, 40
16, 60515, Control_c, 15, 7, 39
16, 60551, Control_c, 15, 7, 38
16, 60587, Control_c, 15, 7, 37
16, 60623, Control_c, 15, 7, 36
16, 60659, Control_c, 15, 7, 35
16, 60695, Control_c, 15, 7, 34
16, 60731, Control_c, 15, 7, 33
16, 60767, Control_c, 15, 7, 32
16, 60803, Control_c, 15, 7, 31
16, 60839, Control_c, 15, 7, 30
16, 60875, Control_c, 15, 7, 29
16, 60911, Control_c, 15, 7, 28
16, 60947, Control_c, 15, 7, 27
16, 60983, Control_c, 15, 7, 26
16, 61019, Control_c, 15, 7, 25
16, 61055, Control_c, 15, 7, 24
16, 61091, Control_c, 15, 7, 23
16, 61127, Control_c, 15, 7, 22
16, 61163, Control_c, 15, 7, 21
16, 61199, Control_c, 15, 7, 20
16, 61235, Control_c, 15, 7, 19
16, 61271, Control_c, 15, 7, 18
16, 61307, Control_c, 15, 7, 17
16, 61343, Control_c, 15, 7, 16
16, 61379, Control_c, 15, 7, 15
16, 61415, Control_c, 15, 7, 14
16, 61451, Control_c, 15, 7, 13
16, 61487, Control_c, 15, 7, 12
16, 61523, Control_c, 15, 7, 11
16, 61559, Control_c, 15, 7, 10
16, 61595, Control_c, 15, 7, 9
16, 61631, Control_c, 15, 7, 8
16, 61667, Control_c, 15, 7, 7
16, 61703, Control_c, 15, 7, 6
16, 61739, Control_c, 15, 7, 5
16, 61775, Control_c, 15, 7, 4
16, 61811, Control_c, 15, 7, 3
16, 61847, Control_c, 15, 7, 2
16, 61883, Control_c, 15, 7, 1
16, 61919, Control_c, 15, 7, 0
16, 61919, End_track
17, 0, Start_track
17, 0, MIDI_port, 0
17, 0, Title_t, " "
17, 0, Control_c, 9, 7, 110
17, 0, Control_c, 9, 10, 63
17, 0, Note_on_c, 9, 36, 80
17, 14, Note_on_c, 9, 36, 0
17, 180, Note_on_c, 9, 36, 80
17, 194, Note_on_c, 9, 36, 0
17, 780, Note_on_c, 9, 36, 80
17, 794, Note_on_c, 9, 36, 0
17, 1740, Note_on_c, 9, 36, 83
17, 1754, Note_on_c, 9, 36, 0
17, 1830, Note_on_c, 9, 36, 48
17, 1844, Note_on_c, 9, 36, 0
17, 1920, Note_on_c, 9, 36, 79
17, 1934, Note_on_c, 9, 36, 0
17, 2100, Note_on_c, 9, 36, 79
17, 2114, Note_on_c, 9, 36, 0
17, 2460, Note_on_c, 9, 36, 79
17, 2474, Note_on_c, 9, 36, 0
17, 2580, Note_on_c, 9, 36, 80
17, 2594, Note_on_c, 9, 36, 0
17, 2700, Note_on_c, 9, 36, 100
17, 2714, Note_on_c, 9, 36, 0
17, 2880, Note_on_c, 9, 36, 80
17, 2894, Note_on_c, 9, 36, 0
17, 3060, Note_on_c, 9, 36, 80
17, 3074, Note_on_c, 9, 36, 0
17, 3420, Note_on_c, 9, 36, 80
17, 3434, Note_on_c, 9, 36, 0
17, 3540, Note_on_c, 9, 36, 80
17, 3554, Note_on_c, 9, 36, 0
17, 3840, Note_on_c, 9, 36, 80
17, 3854, Note_on_c, 9, 36, 0
17, 4020, Note_on_c, 9, 36, 80
17, 4034, Note_on_c, 9, 36, 0
17, 4380, Note_on_c, 9, 36, 80
17, 4394, Note_on_c, 9, 36, 0
17, 4470, Note_on_c, 9, 36, 80
17, 4484, Note_on_c, 9, 36, 0
17, 4800, Note_on_c, 9, 36, 80
17, 4814, Note_on_c, 9, 36, 0
17, 4980, Note_on_c, 9, 36, 80
17, 4994, Note_on_c, 9, 36, 0
17, 5340, Note_on_c, 9, 36, 80
17, 5354, Note_on_c, 9, 36, 0
17, 5430, Note_on_c, 9, 36, 80
17, 5444, Note_on_c, 9, 36, 0
17, 5550, Note_on_c, 9, 36, 100
17, 5564, Note_on_c, 9, 36, 0
17, 5760, Note_on_c, 9, 36, 80
17, 5774, Note_on_c, 9, 36, 0
17, 5940, Note_on_c, 9, 36, 80
17, 5954, Note_on_c, 9, 36, 0
17, 6300, Note_on_c, 9, 36, 80
17, 6314, Note_on_c, 9, 36, 0
17, 6390, Note_on_c, 9, 36, 80
17, 6404, Note_on_c, 9, 36, 0
17, 6720, Note_on_c, 9, 36, 80
17, 6734, Note_on_c, 9, 36, 0
17, 6900, Note_on_c, 9, 36, 80
17, 6914, Note_on_c, 9, 36, 0
17, 7260, Note_on_c, 9, 36, 80
17, 7274, Note_on_c, 9, 36, 0
17, 7350, Note_on_c, 9, 36, 81
17, 7364, Note_on_c, 9, 36, 0
17, 7500, Note_on_c, 9, 36, 100
17, 7514, Note_on_c, 9, 36, 0
17, 7680, Note_on_c, 9, 36, 81
17, 7694, Note_on_c, 9, 36, 0
17, 7860, Note_on_c, 9, 36, 81
17, 7874, Note_on_c, 9, 36, 0
17, 8220, Note_on_c, 9, 36, 81
17, 8234, Note_on_c, 9, 36, 0
17, 8310, Note_on_c, 9, 36, 81
17, 8324, Note_on_c, 9, 36, 0
17, 8640, Note_on_c, 9, 36, 80
17, 8654, Note_on_c, 9, 36, 0
17, 8820, Note_on_c, 9, 36, 80
17, 8834, Note_on_c, 9, 36, 0
17, 9180, Note_on_c, 9, 36, 80
17, 9194, Note_on_c, 9, 36, 0
17, 9270, Note_on_c, 9, 36, 79
17, 9284, Note_on_c, 9, 36, 0
17, 9420, Note_on_c, 9, 36, 100
17, 9434, Note_on_c, 9, 36, 0
17, 9600, Note_on_c, 9, 36, 79
17, 9614, Note_on_c, 9, 36, 0
17, 9780, Note_on_c, 9, 36, 79
17, 9794, Note_on_c, 9, 36, 0
17, 10140, Note_on_c, 9, 36, 80
17, 10154, Note_on_c, 9, 36, 0
17, 10230, Note_on_c, 9, 36, 80
17, 10244, Note_on_c, 9, 36, 0
17, 10560, Note_on_c, 9, 36, 80
17, 10574, Note_on_c, 9, 36, 0
17, 10740, Note_on_c, 9, 36, 81
17, 10754, Note_on_c, 9, 36, 0
17, 11100, Note_on_c, 9, 36, 84
17, 11114, Note_on_c, 9, 36, 0
17, 11190, Note_on_c, 9, 36, 85
17, 11204, Note_on_c, 9, 36, 0
17, 11340, Note_on_c, 9, 36, 100
17, 11354, Note_on_c, 9, 36, 0
17, 11520, Note_on_c, 9, 36, 85
17, 11534, Note_on_c, 9, 36, 0
17, 11700, Note_on_c, 9, 36, 85
17, 11714, Note_on_c, 9, 36, 0
17, 12060, Note_on_c, 9, 36, 85
17, 12074, Note_on_c, 9, 36, 0
17, 12150, Note_on_c, 9, 36, 85
17, 12164, Note_on_c, 9, 36, 0
17, 12480, Note_on_c, 9, 36, 85
17, 12494, Note_on_c, 9, 36, 0
17, 12660, Note_on_c, 9, 36, 85
17, 12674, Note_on_c, 9, 36, 0
17, 13020, Note_on_c, 9, 36, 78
17, 13034, Note_on_c, 9, 36, 0
17, 13110, Note_on_c, 9, 36, 78
17, 13124, Note_on_c, 9, 36, 0
17, 13260, Note_on_c, 9, 36, 100
17, 13274, Note_on_c, 9, 36, 0
17, 13440, Note_on_c, 9, 36, 77
17, 13454, Note_on_c, 9, 36, 0
17, 13620, Note_on_c, 9, 36, 77
17, 13634, Note_on_c, 9, 36, 0
17, 13980, Note_on_c, 9, 36, 77
17, 13994, Note_on_c, 9, 36, 0
17, 14070, Note_on_c, 9, 36, 77
17, 14084, Note_on_c, 9, 36, 0
17, 14220, Note_on_c, 9, 36, 100
17, 14234, Note_on_c, 9, 36, 0
17, 14400, Note_on_c, 9, 36, 79
17, 14414, Note_on_c, 9, 36, 0
17, 14580, Note_on_c, 9, 36, 79
17, 14594, Note_on_c, 9, 36, 0
17, 14880, Note_on_c, 9, 36, 79
17, 14894, Note_on_c, 9, 36, 0
17, 15000, Note_on_c, 9, 36, 79
17, 15014, Note_on_c, 9, 36, 0
17, 15120, Note_on_c, 9, 36, 80
17, 15134, Note_on_c, 9, 36, 0
17, 15240, Note_on_c, 9, 36, 80
17, 15254, Note_on_c, 9, 36, 0
17, 15360, Note_on_c, 9, 36, 82
17, 15374, Note_on_c, 9, 36, 0
17, 15600, Note_on_c, 9, 36, 82
17, 15614, Note_on_c, 9, 36, 0
17, 15900, Note_on_c, 9, 36, 82
17, 15914, Note_on_c, 9, 36, 0
17, 16020, Note_on_c, 9, 36, 82
17, 16034, Note_on_c, 9, 36, 0
17, 16320, Note_on_c, 9, 36, 80
17, 16334, Note_on_c, 9, 36, 0
17, 16560, Note_on_c, 9, 36, 79
17, 16574, Note_on_c, 9, 36, 0
17, 16860, Note_on_c, 9, 36, 79
17, 16874, Note_on_c, 9, 36, 0
17, 16980, Note_on_c, 9, 36, 79
17, 16994, Note_on_c, 9, 36, 0
17, 17280, Note_on_c, 9, 36, 82
17, 17294, Note_on_c, 9, 36, 0
17, 17520, Note_on_c, 9, 36, 82
17, 17534, Note_on_c, 9, 36, 0
17, 17820, Note_on_c, 9, 36, 82
17, 17834, Note_on_c, 9, 36, 0
17, 17940, Note_on_c, 9, 36, 82
17, 17954, Note_on_c, 9, 36, 0
17, 18240, Note_on_c, 9, 36, 80
17, 18254, Note_on_c, 9, 36, 0
17, 18480, Note_on_c, 9, 36, 79
17, 18494, Note_on_c, 9, 36, 0
17, 18780, Note_on_c, 9, 36, 79
17, 18794, Note_on_c, 9, 36, 0
17, 18900, Note_on_c, 9, 36, 79
17, 18914, Note_on_c, 9, 36, 0
17, 19200, Note_on_c, 9, 36, 82
17, 19214, Note_on_c, 9, 36, 0
17, 19440, Note_on_c, 9, 36, 82
17, 19454, Note_on_c, 9, 36, 0
17, 19740, Note_on_c, 9, 36, 82
17, 19754, Note_on_c, 9, 36, 0
17, 19860, Note_on_c, 9, 36, 82
17, 19874, Note_on_c, 9, 36, 0
17, 20160, Note_on_c, 9, 36, 80
17, 20174, Note_on_c, 9, 36, 0
17, 20400, Note_on_c, 9, 36, 79
17, 20414, Note_on_c, 9, 36, 0
17, 20700, Note_on_c, 9, 36, 79
17, 20714, Note_on_c, 9, 36, 0
17, 20820, Note_on_c, 9, 36, 79
17, 20834, Note_on_c, 9, 36, 0
17, 21120, Note_on_c, 9, 36, 82
17, 21134, Note_on_c, 9, 36, 0
17, 21360, Note_on_c, 9, 36, 82
17, 21374, Note_on_c, 9, 36, 0
17, 21660, Note_on_c, 9, 36, 82
17, 21674, Note_on_c, 9, 36, 0
17, 21780, Note_on_c, 9, 36, 82
17, 21794, Note_on_c, 9, 36, 0
17, 22080, Note_on_c, 9, 36, 80
17, 22094, Note_on_c, 9, 36, 0
17, 22320, Note_on_c, 9, 36, 79
17, 22334, Note_on_c, 9, 36, 0
17, 22620, Note_on_c, 9, 36, 79
17, 22634, Note_on_c, 9, 36, 0
17, 22740, Note_on_c, 9, 36, 79
17, 22754, Note_on_c, 9, 36, 0
17, 23040, Note_on_c, 9, 36, 82
17, 23054, Note_on_c, 9, 36, 0
17, 23280, Note_on_c, 9, 36, 82
17, 23294, Note_on_c, 9, 36, 0
17, 23580, Note_on_c, 9, 36, 82
17, 23594, Note_on_c, 9, 36, 0
17, 23670, Note_on_c, 9, 36, 82
17, 23684, Note_on_c, 9, 36, 0
17, 24000, Note_on_c, 9, 36, 80
17, 24014, Note_on_c, 9, 36, 0
17, 24240, Note_on_c, 9, 36, 79
17, 24254, Note_on_c, 9, 36, 0
17, 24540, Note_on_c, 9, 36, 79
17, 24554, Note_on_c, 9, 36, 0
17, 24630, Note_on_c, 9, 36, 79
17, 24644, Note_on_c, 9, 36, 0
17, 24780, Note_on_c, 9, 36, 100
17, 24794, Note_on_c, 9, 36, 0
17, 24960, Note_on_c, 9, 36, 82
17, 24974, Note_on_c, 9, 36, 0
17, 25200, Note_on_c, 9, 36, 82
17, 25214, Note_on_c, 9, 36, 0
17, 25500, Note_on_c, 9, 36, 82
17, 25514, Note_on_c, 9, 36, 0
17, 25590, Note_on_c, 9, 36, 82
17, 25604, Note_on_c, 9, 36, 0
17, 25740, Note_on_c, 9, 36, 100
17, 25754, Note_on_c, 9, 36, 0
17, 25920, Note_on_c, 9, 36, 80
17, 25934, Note_on_c, 9, 36, 0
17, 26160, Note_on_c, 9, 36, 79
17, 26174, Note_on_c, 9, 36, 0
17, 26460, Note_on_c, 9, 36, 79
17, 26474, Note_on_c, 9, 36, 0
17, 26550, Note_on_c, 9, 36, 79
17, 26564, Note_on_c, 9, 36, 0
17, 26700, Note_on_c, 9, 36, 100
17, 26714, Note_on_c, 9, 36, 0
17, 26880, Note_on_c, 9, 36, 82
17, 26894, Note_on_c, 9, 36, 0
17, 27240, Note_on_c, 9, 36, 110
17, 27254, Note_on_c, 9, 36, 0
17, 27300, Note_on_c, 9, 36, 110
17, 27314, Note_on_c, 9, 36, 0
17, 27360, Note_on_c, 9, 36, 110
17, 27374, Note_on_c, 9, 36, 0
17, 27840, Note_on_c, 9, 36, 80
17, 27854, Note_on_c, 9, 36, 0
17, 28080, Note_on_c, 9, 36, 79
17, 28094, Note_on_c, 9, 36, 0
17, 28380, Note_on_c, 9, 36, 79
17, 28394, Note_on_c, 9, 36, 0
17, 28470, Note_on_c, 9, 36, 79
17, 28484, Note_on_c, 9, 36, 0
17, 28620, Note_on_c, 9, 36, 100
17, 28634, Note_on_c, 9, 36, 0
17, 28800, Note_on_c, 9, 36, 82
17, 28814, Note_on_c, 9, 36, 0
17, 29040, Note_on_c, 9, 36, 82
17, 29054, Note_on_c, 9, 36, 0
17, 29340, Note_on_c, 9, 36, 82
17, 29354, Note_on_c, 9, 36, 0
17, 29430, Note_on_c, 9, 36, 79
17, 29444, Note_on_c, 9, 36, 0
17, 29580, Note_on_c, 9, 36, 100
17, 29594, Note_on_c, 9, 36, 0
17, 29760, Note_on_c, 9, 36, 80
17, 29774, Note_on_c, 9, 36, 0
17, 30000, Note_on_c, 9, 36, 79
17, 30014, Note_on_c, 9, 36, 0
17, 30240, Note_on_c, 9, 36, 82
17, 30254, Note_on_c, 9, 36, 0
17, 30540, Note_on_c, 9, 36, 82
17, 30554, Note_on_c, 9, 36, 0
17, 30630, Note_on_c, 9, 36, 82
17, 30644, Note_on_c, 9, 36, 0
17, 34080, Note_on_c, 9, 36, 79
17, 34094, Note_on_c, 9, 36, 0
17, 34200, Note_on_c, 9, 36, 79
17, 34214, Note_on_c, 9, 36, 0
17, 34320, Note_on_c, 9, 36, 80
17, 34334, Note_on_c, 9, 36, 0
17, 34440, Note_on_c, 9, 36, 80
17, 34454, Note_on_c, 9, 36, 0
17, 34560, Note_on_c, 9, 36, 82
17, 34574, Note_on_c, 9, 36, 0
17, 34800, Note_on_c, 9, 36, 82
17, 34814, Note_on_c, 9, 36, 0
17, 35100, Note_on_c, 9, 36, 82
17, 35114, Note_on_c, 9, 36, 0
17, 35220, Note_on_c, 9, 36, 82
17, 35234, Note_on_c, 9, 36, 0
17, 35520, Note_on_c, 9, 36, 80
17, 35534, Note_on_c, 9, 36, 0
17, 35760, Note_on_c, 9, 36, 79
17, 35774, Note_on_c, 9, 36, 0
17, 36060, Note_on_c, 9, 36, 79
17, 36074, Note_on_c, 9, 36, 0
17, 36180, Note_on_c, 9, 36, 79
17, 36194, Note_on_c, 9, 36, 0
17, 36480, Note_on_c, 9, 36, 82
17, 36494, Note_on_c, 9, 36, 0
17, 36720, Note_on_c, 9, 36, 82
17, 36734, Note_on_c, 9, 36, 0
17, 37020, Note_on_c, 9, 36, 82
17, 37034, Note_on_c, 9, 36, 0
17, 37140, Note_on_c, 9, 36, 82
17, 37154, Note_on_c, 9, 36, 0
17, 37440, Note_on_c, 9, 36, 80
17, 37454, Note_on_c, 9, 36, 0
17, 37680, Note_on_c, 9, 36, 79
17, 37694, Note_on_c, 9, 36, 0
17, 37980, Note_on_c, 9, 36, 79
17, 37994, Note_on_c, 9, 36, 0
17, 38100, Note_on_c, 9, 36, 79
17, 38114, Note_on_c, 9, 36, 0
17, 38400, Note_on_c, 9, 36, 82
17, 38414, Note_on_c, 9, 36, 0
17, 38640, Note_on_c, 9, 36, 82
17, 38654, Note_on_c, 9, 36, 0
17, 38940, Note_on_c, 9, 36, 82
17, 38954, Note_on_c, 9, 36, 0
17, 39060, Note_on_c, 9, 36, 82
17, 39074, Note_on_c, 9, 36, 0
17, 39360, Note_on_c, 9, 36, 80
17, 39374, Note_on_c, 9, 36, 0
17, 39600, Note_on_c, 9, 36, 79
17, 39614, Note_on_c, 9, 36, 0
17, 39900, Note_on_c, 9, 36, 79
17, 39914, Note_on_c, 9, 36, 0
17, 40020, Note_on_c, 9, 36, 79
17, 40034, Note_on_c, 9, 36, 0
17, 40320, Note_on_c, 9, 36, 82
17, 40334, Note_on_c, 9, 36, 0
17, 40560, Note_on_c, 9, 36, 82
17, 40574, Note_on_c, 9, 36, 0
17, 40860, Note_on_c, 9, 36, 82
17, 40874, Note_on_c, 9, 36, 0
17, 40980, Note_on_c, 9, 36, 82
17, 40994, Note_on_c, 9, 36, 0
17, 41280, Note_on_c, 9, 36, 80
17, 41294, Note_on_c, 9, 36, 0
17, 41520, Note_on_c, 9, 36, 79
17, 41534, Note_on_c, 9, 36, 0
17, 41820, Note_on_c, 9, 36, 79
17, 41834, Note_on_c, 9, 36, 0
17, 41940, Note_on_c, 9, 36, 79
17, 41954, Note_on_c, 9, 36, 0
17, 42240, Note_on_c, 9, 36, 82
17, 42254, Note_on_c, 9, 36, 0
17, 42480, Note_on_c, 9, 36, 82
17, 42494, Note_on_c, 9, 36, 0
17, 42780, Note_on_c, 9, 36, 82
17, 42794, Note_on_c, 9, 36, 0
17, 42900, Note_on_c, 9, 36, 82
17, 42914, Note_on_c, 9, 36, 0
17, 43200, Note_on_c, 9, 36, 80
17, 43214, Note_on_c, 9, 36, 0
17, 43440, Note_on_c, 9, 36, 79
17, 43454, Note_on_c, 9, 36, 0
17, 43740, Note_on_c, 9, 36, 79
17, 43754, Note_on_c, 9, 36, 0
17, 43860, Note_on_c, 9, 36, 79
17, 43874, Note_on_c, 9, 36, 0
17, 44160, Note_on_c, 9, 36, 82
17, 44174, Note_on_c, 9, 36, 0
17, 44400, Note_on_c, 9, 36, 82
17, 44414, Note_on_c, 9, 36, 0
17, 44700, Note_on_c, 9, 36, 82
17, 44714, Note_on_c, 9, 36, 0
17, 44820, Note_on_c, 9, 36, 82
17, 44834, Note_on_c, 9, 36, 0
17, 45120, Note_on_c, 9, 36, 80
17, 45134, Note_on_c, 9, 36, 0
17, 45360, Note_on_c, 9, 36, 79
17, 45374, Note_on_c, 9, 36, 0
17, 45660, Note_on_c, 9, 36, 79
17, 45674, Note_on_c, 9, 36, 0
17, 45780, Note_on_c, 9, 36, 79
17, 45794, Note_on_c, 9, 36, 0
17, 45900, Note_on_c, 9, 36, 100
17, 45914, Note_on_c, 9, 36, 0
17, 46080, Note_on_c, 9, 36, 82
17, 46094, Note_on_c, 9, 36, 0
17, 46320, Note_on_c, 9, 36, 82
17, 46334, Note_on_c, 9, 36, 0
17, 46620, Note_on_c, 9, 36, 82
17, 46634, Note_on_c, 9, 36, 0
17, 46740, Note_on_c, 9, 36, 82
17, 46754, Note_on_c, 9, 36, 0
17, 47040, Note_on_c, 9, 36, 80
17, 47054, Note_on_c, 9, 36, 0
17, 47280, Note_on_c, 9, 36, 79
17, 47294, Note_on_c, 9, 36, 0
17, 47580, Note_on_c, 9, 36, 79
17, 47594, Note_on_c, 9, 36, 0
17, 47700, Note_on_c, 9, 36, 79
17, 47714, Note_on_c, 9, 36, 0
17, 48000, Note_on_c, 9, 36, 82
17, 48014, Note_on_c, 9, 36, 0
17, 48240, Note_on_c, 9, 36, 82
17, 48254, Note_on_c, 9, 36, 0
17, 48540, Note_on_c, 9, 36, 82
17, 48554, Note_on_c, 9, 36, 0
17, 48660, Note_on_c, 9, 36, 82
17, 48674, Note_on_c, 9, 36, 0
17, 48960, Note_on_c, 9, 36, 80
17, 48974, Note_on_c, 9, 36, 0
17, 49200, Note_on_c, 9, 36, 79
17, 49214, Note_on_c, 9, 36, 0
17, 49500, Note_on_c, 9, 36, 79
17, 49514, Note_on_c, 9, 36, 0
17, 49620, Note_on_c, 9, 36, 79
17, 49634, Note_on_c, 9, 36, 0
17, 49920, Note_on_c, 9, 36, 82
17, 49934, Note_on_c, 9, 36, 0
17, 53760, Note_on_c, 9, 36, 82
17, 53774, Note_on_c, 9, 36, 0
17, 54000, Note_on_c, 9, 36, 82
17, 54014, Note_on_c, 9, 36, 0
17, 54300, Note_on_c, 9, 36, 82
17, 54314, Note_on_c, 9, 36, 0
17, 54420, Note_on_c, 9, 36, 82
17, 54434, Note_on_c, 9, 36, 0
17, 54720, Note_on_c, 9, 36, 80
17, 54734, Note_on_c, 9, 36, 0
17, 54960, Note_on_c, 9, 36, 79
17, 54974, Note_on_c, 9, 36, 0
17, 55260, Note_on_c, 9, 36, 79
17, 55274, Note_on_c, 9, 36, 0
17, 55380, Note_on_c, 9, 36, 79
17, 55394, Note_on_c, 9, 36, 0
17, 55680, Note_on_c, 9, 36, 82
17, 55694, Note_on_c, 9, 36, 0
17, 55920, Note_on_c, 9, 36, 82
17, 55934, Note_on_c, 9, 36, 0
17, 56220, Note_on_c, 9, 36, 82
17, 56234, Note_on_c, 9, 36, 0
17, 56340, Note_on_c, 9, 36, 82
17, 56354, Note_on_c, 9, 36, 0
17, 56640, Note_on_c, 9, 36, 80
17, 56654, Note_on_c, 9, 36, 0
17, 56880, Note_on_c, 9, 36, 79
17, 56894, Note_on_c, 9, 36, 0
17, 57180, Note_on_c, 9, 36, 79
17, 57194, Note_on_c, 9, 36, 0
17, 57300, Note_on_c, 9, 36, 79
17, 57314, Note_on_c, 9, 36, 0
17, 57600, Note_on_c, 9, 36, 82
17, 57614, Note_on_c, 9, 36, 0
17, 57840, Note_on_c, 9, 36, 82
17, 57854, Note_on_c, 9, 36, 0
17, 59040, Control_c, 9, 7, 80
17, 59075, Control_c, 9, 7, 79
17, 59111, Control_c, 9, 7, 78
17, 59147, Control_c, 9, 7, 77
17, 59183, Control_c, 9, 7, 76
17, 59219, Control_c, 9, 7, 75
17, 59255, Control_c, 9, 7, 74
17, 59291, Control_c, 9, 7, 73
17, 59327, Control_c, 9, 7, 72
17, 59363, Control_c, 9, 7, 71
17, 59399, Control_c, 9, 7, 70
17, 59435, Control_c, 9, 7, 69
17, 59471, Control_c, 9, 7, 68
17, 59507, Control_c, 9, 7, 67
17, 59520, Note_on_c, 9, 36, 82
17, 59534, Note_on_c, 9, 36, 0
17, 59543, Control_c, 9, 7, 66
17, 59579, Control_c, 9, 7, 65
17, 59615, Control_c, 9, 7, 64
17, 59651, Control_c, 9, 7, 63
17, 59687, Control_c, 9, 7, 62
17, 59723, Control_c, 9, 7, 61
17, 59759, Control_c, 9, 7, 60
17, 59760, Note_on_c, 9, 36, 82
17, 59774, Note_on_c, 9, 36, 0
17, 59795, Control_c, 9, 7, 59
17, 59831, Control_c, 9, 7, 58
17, 59867, Control_c, 9, 7, 57
17, 59903, Control_c, 9, 7, 56
17, 59939, Control_c, 9, 7, 55
17, 59975, Control_c, 9, 7, 54
17, 60011, Control_c, 9, 7, 53
17, 60047, Control_c, 9, 7, 52
17, 60060, Note_on_c, 9, 36, 82
17, 60074, Note_on_c, 9, 36, 0
17, 60083, Control_c, 9, 7, 51
17, 60119, Control_c, 9, 7, 50
17, 60155, Control_c, 9, 7, 49
17, 60180, Note_on_c, 9, 36, 82
17, 60191, Control_c, 9, 7, 48
17, 60194, Note_on_c, 9, 36, 0
17, 60227, Control_c, 9, 7, 47
17, 60263, Control_c, 9, 7, 46
17, 60299, Control_c, 9, 7, 45
17, 60335, Control_c, 9, 7, 44
17, 60371, Control_c, 9, 7, 43
17, 60407, Control_c, 9, 7, 42
17, 60443, Control_c, 9, 7, 41
17, 60479, Control_c, 9, 7, 40
17, 60480, Note_on_c, 9, 36, 80
17, 60494, Note_on_c, 9, 36, 0
17, 60515, Control_c, 9, 7, 39
17, 60551, Control_c, 9, 7, 38
17, 60587, Control_c, 9, 7, 37
17, 60623, Control_c, 9, 7, 36
17, 60659, Control_c, 9, 7, 35
17, 60695, Control_c, 9, 7, 34
17, 60720, Note_on_c, 9, 36, 79
17, 60731, Control_c, 9, 7, 33
17, 60734, Note_on_c, 9, 36, 0
17, 60767, Control_c, 9, 7, 32
17, 60803, Control_c, 9, 7, 31
17, 60839, Control_c, 9, 7, 30
17, 60875, Control_c, 9, 7, 29
17, 60911, Control_c, 9, 7, 28
17, 60947, Control_c, 9, 7, 27
17, 60983, Control_c, 9, 7, 26
17, 61019, Control_c, 9, 7, 25
17, 61020, Note_on_c, 9, 36, 79
17, 61034, Note_on_c, 9, 36, 0
17, 61055, Control_c, 9, 7, 24
17, 61091, Control_c, 9, 7, 23
17, 61127, Control_c, 9, 7, 22
17, 61140, Note_on_c, 9, 36, 79
17, 61154, Note_on_c, 9, 36, 0
17, 61163, Control_c, 9, 7, 21
17, 61199, Control_c, 9, 7, 20
17, 61235, Control_c, 9, 7, 19
17, 61271, Control_c, 9, 7, 18
17, 61307, Control_c, 9, 7, 17
17, 61343, Control_c, 9, 7, 16
17, 61379, Control_c, 9, 7, 15
17, 61415, Control_c, 9, 7, 14
17, 61451, Control_c, 9, 7, 13
17, 61487, Control_c, 9, 7, 12
17, 61523, Control_c, 9, 7, 11
17, 61559, Control_c, 9, 7, 10
17, 61595, Control_c, 9, 7, 9
17, 61631, Control_c, 9, 7, 8
17, 61667, Control_c, 9, 7, 7
17, 61703, Control_c, 9, 7, 6
17, 61739, Control_c, 9, 7, 5
17, 61775, Control_c, 9, 7, 4
17, 61811, Control_c, 9, 7, 3
17, 61847, Control_c, 9, 7, 2
17, 61883, Control_c, 9, 7, 1
17, 61919, Control_c, 9, 7, 0
17, 61919, End_track
18, 0, Start_track
18, 0, MIDI_port, 0
18, 0, Title_t, " "
18, 0, Control_c, 9, 7, 110
18, 0, Control_c, 9, 10, 63
18, 59040, Control_c, 9, 7, 80
18, 59075, Control_c, 9, 7, 79
18, 59111, Control_c, 9, 7, 78
18, 59147, Control_c, 9, 7, 77
18, 59183, Control_c, 9, 7, 76
18, 59219, Control_c, 9, 7, 75
18, 59255, Control_c, 9, 7, 74
18, 59291, Control_c, 9, 7, 73
18, 59327, Control_c, 9, 7, 72
18, 59363, Control_c, 9, 7, 71
18, 59399, Control_c, 9, 7, 70
18, 59435, Control_c, 9, 7, 69
18, 59471, Control_c, 9, 7, 68
18, 59507, Control_c, 9, 7, 67
18, 59543, Control_c, 9, 7, 66
18, 59579, Control_c, 9, 7, 65
18, 59615, Control_c, 9, 7, 64
18, 59651, Control_c, 9, 7, 63
18, 59687, Control_c, 9, 7, 62
18, 59723, Control_c, 9, 7, 61
18, 59759, Control_c, 9, 7, 60
18, 59795, Control_c, 9, 7, 59
18, 59831, Control_c, 9, 7, 58
18, 59867, Control_c, 9, 7, 57
18, 59903, Control_c, 9, 7, 56
18, 59939, Control_c, 9, 7, 55
18, 59975, Control_c, 9, 7, 54
18, 60011, Control_c, 9, 7, 53
18, 60047, Control_c, 9, 7, 52
18, 60083, Control_c, 9, 7, 51
18, 60119, Control_c, 9, 7, 50
18, 60155, Control_c, 9, 7, 49
18, 60191, Control_c, 9, 7, 48
18, 60227, Control_c, 9, 7, 47
18, 60263, Control_c, 9, 7, 46
18, 60299, Control_c, 9, 7, 45
18, 60335, Control_c, 9, 7, 44
18, 60371, Control_c, 9, 7, 43
18, 60407, Control_c, 9, 7, 42
18, 60443, Control_c, 9, 7, 41
18, 60479, Control_c, 9, 7, 40
18, 60515, Control_c, 9, 7, 39
18, 60551, Control_c, 9, 7, 38
18, 60587, Control_c, 9, 7, 37
18, 60623, Control_c, 9, 7, 36
18, 60659, Control_c, 9, 7, 35
18, 60695, Control_c, 9, 7, 34
18, 60731, Control_c, 9, 7, 33
18, 60767, Control_c, 9, 7, 32
18, 60803, Control_c, 9, 7, 31
18, 60839, Control_c, 9, 7, 30
18, 60875, Control_c, 9, 7, 29
18, 60911, Control_c, 9, 7, 28
18, 60947, Control_c, 9, 7, 27
18, 60983, Control_c, 9, 7, 26
18, 61019, Control_c, 9, 7, 25
18, 61055, Control_c, 9, 7, 24
18, 61091, Control_c, 9, 7, 23
18, 61127, Control_c, 9, 7, 22
18, 61163, Control_c, 9, 7, 21
18, 61199, Control_c, 9, 7, 20
18, 61235, Control_c, 9, 7, 19
18, 61271, Control_c, 9, 7, 18
18, 61307, Control_c, 9, 7, 17
18, 61343, Control_c, 9, 7, 16
18, 61379, Control_c, 9, 7, 15
18, 61415, Control_c, 9, 7, 14
18, 61451, Control_c, 9, 7, 13
18, 61487, Control_c, 9, 7, 12
18, 61523, Control_c, 9, 7, 11
18, 61559, Control_c, 9, 7, 10
18, 61595, Control_c, 9, 7, 9
18, 61631, Control_c, 9, 7, 8
18, 61667, Control_c, 9, 7, 7
18, 61703, Control_c, 9, 7, 6
18, 61739, Control_c, 9, 7, 5
18, 61775, Control_c, 9, 7, 4
18, 61811, Control_c, 9, 7, 3
18, 61847, Control_c, 9, 7, 2
18, 61883, Control_c, 9, 7, 1
18, 61919, Control_c, 9, 7, 0
18, 61919, End_track
19, 0, Start_track
19, 0, MIDI_port, 0
19, 0, Title_t, " "
19, 0, Control_c, 9, 7, 110
19, 0, Control_c, 9, 10, 63
19, 2040, Note_on_c, 9, 37, 127
19, 2054, Note_on_c, 9, 37, 0
19, 2280, Note_on_c, 9, 37, 127
19, 2294, Note_on_c, 9, 37, 0
19, 2520, Note_on_c, 9, 37, 127
19, 2534, Note_on_c, 9, 37, 0
19, 2760, Note_on_c, 9, 37, 127
19, 2774, Note_on_c, 9, 37, 0
19, 3000, Note_on_c, 9, 37, 127
19, 3014, Note_on_c, 9, 37, 0
19, 3240, Note_on_c, 9, 37, 127
19, 3254, Note_on_c, 9, 37, 0
19, 3480, Note_on_c, 9, 37, 127
19, 3494, Note_on_c, 9, 37, 0
19, 3720, Note_on_c, 9, 37, 127
19, 3734, Note_on_c, 9, 37, 0
19, 4080, Note_on_c, 9, 37, 127
19, 4094, Note_on_c, 9, 37, 0
19, 4560, Note_on_c, 9, 37, 127
19, 4574, Note_on_c, 9, 37, 0
19, 5040, Note_on_c, 9, 37, 127
19, 5054, Note_on_c, 9, 37, 0
19, 5520, Note_on_c, 9, 37, 127
19, 5534, Note_on_c, 9, 37, 0
19, 6000, Note_on_c, 9, 37, 127
19, 6014, Note_on_c, 9, 37, 0
19, 6480, Note_on_c, 9, 37, 127
19, 6494, Note_on_c, 9, 37, 0
19, 6960, Note_on_c, 9, 37, 118
19, 6974, Note_on_c, 9, 37, 0
19, 7440, Note_on_c, 9, 37, 127
19, 7454, Note_on_c, 9, 37, 0
19, 7920, Note_on_c, 9, 37, 127
19, 7934, Note_on_c, 9, 37, 0
19, 8400, Note_on_c, 9, 37, 127
19, 8414, Note_on_c, 9, 37, 0
19, 8880, Note_on_c, 9, 37, 127
19, 8894, Note_on_c, 9, 37, 0
19, 9360, Note_on_c, 9, 37, 127
19, 9374, Note_on_c, 9, 37, 0
19, 9840, Note_on_c, 9, 37, 125
19, 9854, Note_on_c, 9, 37, 0
19, 10320, Note_on_c, 9, 37, 127
19, 10334, Note_on_c, 9, 37, 0
19, 10800, Note_on_c, 9, 37, 127
19, 10814, Note_on_c, 9, 37, 0
19, 11760, Note_on_c, 9, 37, 127
19, 11774, Note_on_c, 9, 37, 0
19, 12240, Note_on_c, 9, 37, 127
19, 12254, Note_on_c, 9, 37, 0
19, 12720, Note_on_c, 9, 37, 127
19, 12734, Note_on_c, 9, 37, 0
19, 13200, Note_on_c, 9, 37, 127
19, 13214, Note_on_c, 9, 37, 0
19, 13680, Note_on_c, 9, 37, 127
19, 13694, Note_on_c, 9, 37, 0
19, 14160, Note_on_c, 9, 37, 127
19, 14174, Note_on_c, 9, 37, 0
19, 14640, Note_on_c, 9, 37, 127
19, 14654, Note_on_c, 9, 37, 0
19, 15120, Note_on_c, 9, 37, 127
19, 15134, Note_on_c, 9, 37, 0
19, 15480, Note_on_c, 9, 37, 127
19, 15494, Note_on_c, 9, 37, 0
19, 15720, Note_on_c, 9, 37, 127
19, 15734, Note_on_c, 9, 37, 0
19, 15960, Note_on_c, 9, 37, 127
19, 15974, Note_on_c, 9, 37, 0
19, 16200, Note_on_c, 9, 37, 127
19, 16214, Note_on_c, 9, 37, 0
19, 16440, Note_on_c, 9, 37, 127
19, 16454, Note_on_c, 9, 37, 0
19, 16680, Note_on_c, 9, 37, 127
19, 16694, Note_on_c, 9, 37, 0
19, 16920, Note_on_c, 9, 37, 127
19, 16934, Note_on_c, 9, 37, 0
19, 17160, Note_on_c, 9, 37, 127
19, 17174, Note_on_c, 9, 37, 0
19, 17400, Note_on_c, 9, 37, 127
19, 17414, Note_on_c, 9, 37, 0
19, 17640, Note_on_c, 9, 37, 127
19, 17654, Note_on_c, 9, 37, 0
19, 17880, Note_on_c, 9, 37, 127
19, 17894, Note_on_c, 9, 37, 0
19, 18120, Note_on_c, 9, 37, 127
19, 18134, Note_on_c, 9, 37, 0
19, 18360, Note_on_c, 9, 37, 127
19, 18374, Note_on_c, 9, 37, 0
19, 18600, Note_on_c, 9, 37, 127
19, 18614, Note_on_c, 9, 37, 0
19, 18840, Note_on_c, 9, 37, 127
19, 18854, Note_on_c, 9, 37, 0
19, 19080, Note_on_c, 9, 37, 127
19, 19094, Note_on_c, 9, 37, 0
19, 19320, Note_on_c, 9, 37, 127
19, 19334, Note_on_c, 9, 37, 0
19, 19560, Note_on_c, 9, 37, 127
19, 19574, Note_on_c, 9, 37, 0
19, 19800, Note_on_c, 9, 37, 127
19, 19814, Note_on_c, 9, 37, 0
19, 20040, Note_on_c, 9, 37, 127
19, 20054, Note_on_c, 9, 37, 0
19, 20280, Note_on_c, 9, 37, 127
19, 20294, Note_on_c, 9, 37, 0
19, 20520, Note_on_c, 9, 37, 127
19, 20534, Note_on_c, 9, 37, 0
19, 20760, Note_on_c, 9, 37, 127
19, 20774, Note_on_c, 9, 37, 0
19, 21000, Note_on_c, 9, 37, 127
19, 21014, Note_on_c, 9, 37, 0
19, 21240, Note_on_c, 9, 37, 127
19, 21254, Note_on_c, 9, 37, 0
19, 21480, Note_on_c, 9, 37, 127
19, 21494, Note_on_c, 9, 37, 0
19, 21720, Note_on_c, 9, 37, 127
19, 21734, Note_on_c, 9, 37, 0
19, 21960, Note_on_c, 9, 37, 127
19, 21974, Note_on_c, 9, 37, 0
19, 22200, Note_on_c, 9, 37, 127
19, 22214, Note_on_c, 9, 37, 0
19, 22440, Note_on_c, 9, 37, 127
19, 22454, Note_on_c, 9, 37, 0
19, 22680, Note_on_c, 9, 37, 127
19, 22694, Note_on_c, 9, 37, 0
19, 22920, Note_on_c, 9, 37, 127
19, 22934, Note_on_c, 9, 37, 0
19, 23280, Note_on_c, 9, 37, 127
19, 23294, Note_on_c, 9, 37, 0
19, 23760, Note_on_c, 9, 37, 127
19, 23774, Note_on_c, 9, 37, 0
19, 24240, Note_on_c, 9, 37, 127
19, 24254, Note_on_c, 9, 37, 0
19, 24720, Note_on_c, 9, 37, 127
19, 24734, Note_on_c, 9, 37, 0
19, 25200, Note_on_c, 9, 37, 127
19, 25214, Note_on_c, 9, 37, 0
19, 25680, Note_on_c, 9, 37, 127
19, 25694, Note_on_c, 9, 37, 0
19, 26160, Note_on_c, 9, 37, 118
19, 26174, Note_on_c, 9, 37, 0
19, 26640, Note_on_c, 9, 37, 127
19, 26654, Note_on_c, 9, 37, 0
19, 27120, Note_on_c, 9, 37, 127
19, 27134, Note_on_c, 9, 37, 0
19, 27600, Note_on_c, 9, 37, 127
19, 27614, Note_on_c, 9, 37, 0
19, 28080, Note_on_c, 9, 37, 127
19, 28094, Note_on_c, 9, 37, 0
19, 28560, Note_on_c, 9, 37, 127
19, 28574, Note_on_c, 9, 37, 0
19, 29040, Note_on_c, 9, 37, 125
19, 29054, Note_on_c, 9, 37, 0
19, 29520, Note_on_c, 9, 37, 127
19, 29534, Note_on_c, 9, 37, 0
19, 30000, Note_on_c, 9, 37, 127
19, 30014, Note_on_c, 9, 37, 0
19, 34680, Note_on_c, 9, 37, 127
19, 34694, Note_on_c, 9, 37, 0
19, 34920, Note_on_c, 9, 37, 127
19, 34934, Note_on_c, 9, 37, 0
19, 35160, Note_on_c, 9, 37, 127
19, 35174, Note_on_c, 9, 37, 0
19, 35400, Note_on_c, 9, 37, 127
19, 35414, Note_on_c, 9, 37, 0
19, 35640, Note_on_c, 9, 37, 127
19, 35654, Note_on_c, 9, 37, 0
19, 35880, Note_on_c, 9, 37, 127
19, 35894, Note_on_c, 9, 37, 0
19, 36120, Note_on_c, 9, 37, 127
19, 36134, Note_on_c, 9, 37, 0
19, 36360, Note_on_c, 9, 37, 127
19, 36374, Note_on_c, 9, 37, 0
19, 36600, Note_on_c, 9, 37, 127
19, 36614, Note_on_c, 9, 37, 0
19, 36840, Note_on_c, 9, 37, 127
19, 36854, Note_on_c, 9, 37, 0
19, 37080, Note_on_c, 9, 37, 127
19, 37094, Note_on_c, 9, 37, 0
19, 37320, Note_on_c, 9, 37, 127
19, 37334, Note_on_c, 9, 37, 0
19, 37560, Note_on_c, 9, 37, 127
19, 37574, Note_on_c, 9, 37, 0
19, 37800, Note_on_c, 9, 37, 127
19, 37814, Note_on_c, 9, 37, 0
19, 38040, Note_on_c, 9, 37, 127
19, 38054, Note_on_c, 9, 37, 0
19, 38280, Note_on_c, 9, 37, 127
19, 38294, Note_on_c, 9, 37, 0
19, 38520, Note_on_c, 9, 37, 127
19, 38534, Note_on_c, 9, 37, 0
19, 38760, Note_on_c, 9, 37, 127
19, 38774, Note_on_c, 9, 37, 0
19, 39000, Note_on_c, 9, 37, 127
19, 39014, Note_on_c, 9, 37, 0
19, 39240, Note_on_c, 9, 37, 127
19, 39254, Note_on_c, 9, 37, 0
19, 39480, Note_on_c, 9, 37, 127
19, 39494, Note_on_c, 9, 37, 0
19, 39720, Note_on_c, 9, 37, 127
19, 39734, Note_on_c, 9, 37, 0
19, 39960, Note_on_c, 9, 37, 127
19, 39974, Note_on_c, 9, 37, 0
19, 40200, Note_on_c, 9, 37, 127
19, 40214, Note_on_c, 9, 37, 0
19, 40440, Note_on_c, 9, 37, 127
19, 40454, Note_on_c, 9, 37, 0
19, 40680, Note_on_c, 9, 37, 127
19, 40694, Note_on_c, 9, 37, 0
19, 40920, Note_on_c, 9, 37, 127
19, 40934, Note_on_c, 9, 37, 0
19, 41160, Note_on_c, 9, 37, 127
19, 41174, Note_on_c, 9, 37, 0
19, 41400, Note_on_c, 9, 37, 127
19, 41414, Note_on_c, 9, 37, 0
19, 41640, Note_on_c, 9, 37, 127
19, 41654, Note_on_c, 9, 37, 0
19, 41880, Note_on_c, 9, 37, 127
19, 41894, Note_on_c, 9, 37, 0
19, 42120, Note_on_c, 9, 37, 127
19, 42134, Note_on_c, 9, 37, 0
19, 42360, Note_on_c, 9, 37, 127
19, 42374, Note_on_c, 9, 37, 0
19, 42600, Note_on_c, 9, 37, 127
19, 42614, Note_on_c, 9, 37, 0
19, 42840, Note_on_c, 9, 37, 127
19, 42854, Note_on_c, 9, 37, 0
19, 43080, Note_on_c, 9, 37, 127
19, 43094, Note_on_c, 9, 37, 0
19, 43320, Note_on_c, 9, 37, 127
19, 43334, Note_on_c, 9, 37, 0
19, 43560, Note_on_c, 9, 37, 127
19, 43574, Note_on_c, 9, 37, 0
19, 43800, Note_on_c, 9, 37, 127
19, 43814, Note_on_c, 9, 37, 0
19, 44040, Note_on_c, 9, 37, 127
19, 44054, Note_on_c, 9, 37, 0
19, 44280, Note_on_c, 9, 37, 127
19, 44294, Note_on_c, 9, 37, 0
19, 44520, Note_on_c, 9, 37, 127
19, 44534, Note_on_c, 9, 37, 0
19, 44760, Note_on_c, 9, 37, 127
19, 44774, Note_on_c, 9, 37, 0
19, 45000, Note_on_c, 9, 37, 127
19, 45014, Note_on_c, 9, 37, 0
19, 45240, Note_on_c, 9, 37, 127
19, 45254, Note_on_c, 9, 37, 0
19, 45480, Note_on_c, 9, 37, 127
19, 45494, Note_on_c, 9, 37, 0
19, 45720, Note_on_c, 9, 37, 127
19, 45734, Note_on_c, 9, 37, 0
19, 45960, Note_on_c, 9, 37, 127
19, 45974, Note_on_c, 9, 37, 0
19, 46200, Note_on_c, 9, 37, 127
19, 46214, Note_on_c, 9, 37, 0
19, 46440, Note_on_c, 9, 37, 127
19, 46454, Note_on_c, 9, 37, 0
19, 46680, Note_on_c, 9, 37, 127
19, 46694, Note_on_c, 9, 37, 0
19, 46920, Note_on_c, 9, 37, 127
19, 46934, Note_on_c, 9, 37, 0
19, 47160, Note_on_c, 9, 37, 127
19, 47174, Note_on_c, 9, 37, 0
19, 47400, Note_on_c, 9, 37, 127
19, 47414, Note_on_c, 9, 37, 0
19, 47640, Note_on_c, 9, 37, 127
19, 47654, Note_on_c, 9, 37, 0
19, 47880, Note_on_c, 9, 37, 127
19, 47894, Note_on_c, 9, 37, 0
19, 48120, Note_on_c, 9, 37, 127
19, 48134, Note_on_c, 9, 37, 0
19, 48360, Note_on_c, 9, 37, 127
19, 48374, Note_on_c, 9, 37, 0
19, 48600, Note_on_c, 9, 37, 127
19, 48614, Note_on_c, 9, 37, 0
19, 48840, Note_on_c, 9, 37, 127
19, 48854, Note_on_c, 9, 37, 0
19, 49080, Note_on_c, 9, 37, 127
19, 49094, Note_on_c, 9, 37, 0
19, 49320, Note_on_c, 9, 37, 127
19, 49334, Note_on_c, 9, 37, 0
19, 49560, Note_on_c, 9, 37, 127
19, 49574, Note_on_c, 9, 37, 0
19, 49800, Note_on_c, 9, 37, 127
19, 49814, Note_on_c, 9, 37, 0
19, 50040, Note_on_c, 9, 37, 127
19, 50054, Note_on_c, 9, 37, 0
19, 50280, Note_on_c, 9, 37, 127
19, 50294, Note_on_c, 9, 37, 0
19, 50520, Note_on_c, 9, 37, 127
19, 50534, Note_on_c, 9, 37, 0
19, 50760, Note_on_c, 9, 37, 127
19, 50774, Note_on_c, 9, 37, 0
19, 51000, Note_on_c, 9, 37, 127
19, 51014, Note_on_c, 9, 37, 0
19, 51240, Note_on_c, 9, 37, 127
19, 51254, Note_on_c, 9, 37, 0
19, 51480, Note_on_c, 9, 37, 127
19, 51494, Note_on_c, 9, 37, 0
19, 51720, Note_on_c, 9, 37, 127
19, 51734, Note_on_c, 9, 37, 0
19, 51960, Note_on_c, 9, 37, 127
19, 51974, Note_on_c, 9, 37, 0
19, 52200, Note_on_c, 9, 37, 127
19, 52214, Note_on_c, 9, 37, 0
19, 52440, Note_on_c, 9, 37, 127
19, 52454, Note_on_c, 9, 37, 0
19, 52680, Note_on_c, 9, 37, 127
19, 52694, Note_on_c, 9, 37, 0
19, 52920, Note_on_c, 9, 37, 127
19, 52934, Note_on_c, 9, 37, 0
19, 53160, Note_on_c, 9, 37, 127
19, 53174, Note_on_c, 9, 37, 0
19, 53400, Note_on_c, 9, 37, 127
19, 53414, Note_on_c, 9, 37, 0
19, 53640, Note_on_c, 9, 37, 127
19, 53654, Note_on_c, 9, 37, 0
19, 53880, Note_on_c, 9, 37, 127
19, 53894, Note_on_c, 9, 37, 0
19, 54120, Note_on_c, 9, 37, 127
19, 54134, Note_on_c, 9, 37, 0
19, 54360, Note_on_c, 9, 37, 127
19, 54374, Note_on_c, 9, 37, 0
19, 54600, Note_on_c, 9, 37, 127
19, 54614, Note_on_c, 9, 37, 0
19, 54840, Note_on_c, 9, 37, 127
19, 54854, Note_on_c, 9, 37, 0
19, 55080, Note_on_c, 9, 37, 127
19, 55094, Note_on_c, 9, 37, 0
19, 55320, Note_on_c, 9, 37, 127
19, 55334, Note_on_c, 9, 37, 0
19, 55560, Note_on_c, 9, 37, 127
19, 55574, Note_on_c, 9, 37, 0
19, 55800, Note_on_c, 9, 37, 127
19, 55814, Note_on_c, 9, 37, 0
19, 56040, Note_on_c, 9, 37, 127
19, 56054, Note_on_c, 9, 37, 0
19, 56280, Note_on_c, 9, 37, 127
19, 56294, Note_on_c, 9, 37, 0
19, 56520, Note_on_c, 9, 37, 127
19, 56534, Note_on_c, 9, 37, 0
19, 56760, Note_on_c, 9, 37, 127
19, 56774, Note_on_c, 9, 37, 0
19, 57000, Note_on_c, 9, 37, 127
19, 57014, Note_on_c, 9, 37, 0
19, 57240, Note_on_c, 9, 37, 127
19, 57254, Note_on_c, 9, 37, 0
19, 57480, Note_on_c, 9, 37, 127
19, 57494, Note_on_c, 9, 37, 0
19, 59040, Control_c, 9, 7, 80
19, 59075, Control_c, 9, 7, 79
19, 59111, Control_c, 9, 7, 78
19, 59147, Control_c, 9, 7, 77
19, 59183, Control_c, 9, 7, 76
19, 59219, Control_c, 9, 7, 75
19, 59255, Control_c, 9, 7, 74
19, 59291, Control_c, 9, 7, 73
19, 59327, Control_c, 9, 7, 72
19, 59363, Control_c, 9, 7, 71
19, 59399, Control_c, 9, 7, 70
19, 59435, Control_c, 9, 7, 69
19, 59471, Control_c, 9, 7, 68
19, 59507, Control_c, 9, 7, 67
19, 59543, Control_c, 9, 7, 66
19, 59579, Control_c, 9, 7, 65
19, 59615, Control_c, 9, 7, 64
19, 59651, Control_c, 9, 7, 63
19, 59687, Control_c, 9, 7, 62
19, 59723, Control_c, 9, 7, 61
19, 59759, Control_c, 9, 7, 60
19, 59795, Control_c, 9, 7, 59
19, 59831, Control_c, 9, 7, 58
19, 59867, Control_c, 9, 7, 57
19, 59903, Control_c, 9, 7, 56
19, 59939, Control_c, 9, 7, 55
19, 59975, Control_c, 9, 7, 54
19, 60011, Control_c, 9, 7, 53
19, 60047, Control_c, 9, 7, 52
19, 60083, Control_c, 9, 7, 51
19, 60119, Control_c, 9, 7, 50
19, 60155, Control_c, 9, 7, 49
19, 60191, Control_c, 9, 7, 48
19, 60227, Control_c, 9, 7, 47
19, 60263, Control_c, 9, 7, 46
19, 60299, Control_c, 9, 7, 45
19, 60335, Control_c, 9, 7, 44
19, 60371, Control_c, 9, 7, 43
19, 60407, Control_c, 9, 7, 42
19, 60443, Control_c, 9, 7, 41
19, 60479, Control_c, 9, 7, 40
19, 60515, Control_c, 9, 7, 39
19, 60551, Control_c, 9, 7, 38
19, 60587, Control_c, 9, 7, 37
19, 60623, Control_c, 9, 7, 36
19, 60659, Control_c, 9, 7, 35
19, 60695, Control_c, 9, 7, 34
19, 60731, Control_c, 9, 7, 33
19, 60767, Control_c, 9, 7, 32
19, 60803, Control_c, 9, 7, 31
19, 60839, Control_c, 9, 7, 30
19, 60875, Control_c, 9, 7, 29
19, 60911, Control_c, 9, 7, 28
19, 60947, Control_c, 9, 7, 27
19, 60983, Control_c, 9, 7, 26
19, 61019, Control_c, 9, 7, 25
19, 61055, Control_c, 9, 7, 24
19, 61091, Control_c, 9, 7, 23
19, 61127, Control_c, 9, 7, 22
19, 61163, Control_c, 9, 7, 21
19, 61199, Control_c, 9, 7, 20
19, 61235, Control_c, 9, 7, 19
19, 61271, Control_c, 9, 7, 18
19, 61307, Control_c, 9, 7, 17
19, 61343, Control_c, 9, 7, 16
19, 61379, Control_c, 9, 7, 15
19, 61415, Control_c, 9, 7, 14
19, 61451, Control_c, 9, 7, 13
19, 61487, Control_c, 9, 7, 12
19, 61523, Control_c, 9, 7, 11
19, 61559, Control_c, 9, 7, 10
19, 61595, Control_c, 9, 7, 9
19, 61631, Control_c, 9, 7, 8
19, 61667, Control_c, 9, 7, 7
19, 61703, Control_c, 9, 7, 6
19, 61739, Control_c, 9, 7, 5
19, 61775, Control_c, 9, 7, 4
19, 61811, Control_c, 9, 7, 3
19, 61847, Control_c, 9, 7, 2
19, 61883, Control_c, 9, 7, 1
19, 61919, Control_c, 9, 7, 0
19, 61919, End_track
20, 0, Start_track
20, 0, MIDI_port, 0
20, 0, Title_t, " "
20, 0, Control_c, 9, 7, 110
20, 0, Control_c, 9, 10, 63
20, 0, Note_on_c, 9, 70, 100
20, 14, Note_on_c, 9, 70, 0
20, 60, Note_on_c, 9, 70, 100
20, 74, Note_on_c, 9, 70, 0
20, 90, Note_on_c, 9, 70, 100
20, 104, Note_on_c, 9, 70, 0
20, 180, Note_on_c, 9, 69, 63
20, 194, Note_on_c, 9, 69, 0
20, 210, Note_on_c, 9, 69, 63
20, 224, Note_on_c, 9, 69, 0
20, 240, Note_on_c, 9, 69, 63
20, 254, Note_on_c, 9, 69, 0
20, 720, Note_on_c, 9, 70, 100
20, 734, Note_on_c, 9, 70, 0
20, 960, Note_on_c, 9, 70, 100
20, 974, Note_on_c, 9, 70, 0
20, 1020, Note_on_c, 9, 70, 100
20, 1034, Note_on_c, 9, 70, 0
20, 1050, Note_on_c, 9, 70, 100
20, 1064, Note_on_c, 9, 70, 0
20, 1080, Note_on_c, 9, 70, 100
20, 1094, Note_on_c, 9, 70, 0
20, 1140, Note_on_c, 9, 69, 63
20, 1154, Note_on_c, 9, 69, 0
20, 1170, Note_on_c, 9, 69, 63
20, 1184, Note_on_c, 9, 69, 0
20, 1200, Note_on_c, 9, 69, 63
20, 1214, Note_on_c, 9, 69, 0
20, 1680, Note_on_c, 9, 70, 100
20, 1694, Note_on_c, 9, 70, 0
20, 1980, Note_on_c, 9, 70, 100
20, 1994, Note_on_c, 9, 70, 0
20, 2100, Note_on_c, 9, 70, 100
20, 2114, Note_on_c, 9, 70, 0
20, 2220, Note_on_c, 9, 70, 100
20, 2234, Note_on_c, 9, 70, 0
20, 2340, Note_on_c, 9, 70, 100
20, 2354, Note_on_c, 9, 70, 0
20, 2460, Note_on_c, 9, 70, 100
20, 2474, Note_on_c, 9, 70, 0
20, 2580, Note_on_c, 9, 70, 100
20, 2594, Note_on_c, 9, 70, 0
20, 2700, Note_on_c, 9, 70, 100
20, 2714, Note_on_c, 9, 70, 0
20, 2820, Note_on_c, 9, 70, 100
20, 2834, Note_on_c, 9, 70, 0
20, 2940, Note_on_c, 9, 70, 100
20, 2954, Note_on_c, 9, 70, 0
20, 3060, Note_on_c, 9, 70, 100
20, 3074, Note_on_c, 9, 70, 0
20, 3180, Note_on_c, 9, 70, 100
20, 3194, Note_on_c, 9, 70, 0
20, 3270, Note_on_c, 9, 70, 68
20, 3284, Note_on_c, 9, 70, 0
20, 3300, Note_on_c, 9, 70, 100
20, 3314, Note_on_c, 9, 70, 0
20, 3420, Note_on_c, 9, 70, 100
20, 3434, Note_on_c, 9, 70, 0
20, 3540, Note_on_c, 9, 70, 100
20, 3554, Note_on_c, 9, 70, 0
20, 3660, Note_on_c, 9, 70, 100
20, 3674, Note_on_c, 9, 70, 0
20, 3780, Note_on_c, 9, 70, 100
20, 3794, Note_on_c, 9, 70, 0
20, 3840, Note_on_c, 9, 70, 100
20, 3854, Note_on_c, 9, 70, 0
20, 3900, Note_on_c, 9, 70, 100
20, 3914, Note_on_c, 9, 70, 0
20, 3930, Note_on_c, 9, 70, 100
20, 3944, Note_on_c, 9, 70, 0
20, 4020, Note_on_c, 9, 69, 63
20, 4034, Note_on_c, 9, 69, 0
20, 4050, Note_on_c, 9, 69, 63
20, 4064, Note_on_c, 9, 69, 0
20, 4080, Note_on_c, 9, 69, 63
20, 4094, Note_on_c, 9, 69, 0
20, 4560, Note_on_c, 9, 70, 100
20, 4574, Note_on_c, 9, 70, 0
20, 4800, Note_on_c, 9, 70, 100
20, 4814, Note_on_c, 9, 70, 0
20, 4860, Note_on_c, 9, 70, 100
20, 4874, Note_on_c, 9, 70, 0
20, 4890, Note_on_c, 9, 70, 100
20, 4904, Note_on_c, 9, 70, 0
20, 4920, Note_on_c, 9, 70, 100
20, 4934, Note_on_c, 9, 70, 0
20, 4980, Note_on_c, 9, 69, 63
20, 4994, Note_on_c, 9, 69, 0
20, 5010, Note_on_c, 9, 69, 63
20, 5024, Note_on_c, 9, 69, 0
20, 5040, Note_on_c, 9, 69, 63
20, 5054, Note_on_c, 9, 69, 0
20, 5520, Note_on_c, 9, 70, 100
20, 5534, Note_on_c, 9, 70, 0
20, 5760, Note_on_c, 9, 70, 100
20, 5774, Note_on_c, 9, 70, 0
20, 5820, Note_on_c, 9, 70, 100
20, 5834, Note_on_c, 9, 70, 0
20, 5850, Note_on_c, 9, 70, 100
20, 5864, Note_on_c, 9, 70, 0
20, 5940, Note_on_c, 9, 69, 63
20, 5954, Note_on_c, 9, 69, 0
20, 5970, Note_on_c, 9, 69, 63
20, 5984, Note_on_c, 9, 69, 0
20, 6000, Note_on_c, 9, 69, 63
20, 6014, Note_on_c, 9, 69, 0
20, 6480, Note_on_c, 9, 70, 100
20, 6494, Note_on_c, 9, 70, 0
20, 6720, Note_on_c, 9, 70, 100
20, 6734, Note_on_c, 9, 70, 0
20, 6780, Note_on_c, 9, 70, 100
20, 6794, Note_on_c, 9, 70, 0
20, 6810, Note_on_c, 9, 70, 100
20, 6824, Note_on_c, 9, 70, 0
20, 6840, Note_on_c, 9, 70, 100
20, 6854, Note_on_c, 9, 70, 0
20, 6900, Note_on_c, 9, 69, 63
20, 6914, Note_on_c, 9, 69, 0
20, 6930, Note_on_c, 9, 69, 63
20, 6944, Note_on_c, 9, 69, 0
20, 6960, Note_on_c, 9, 69, 63
20, 6974, Note_on_c, 9, 69, 0
20, 7440, Note_on_c, 9, 70, 100
20, 7454, Note_on_c, 9, 70, 0
20, 7680, Note_on_c, 9, 70, 100
20, 7694, Note_on_c, 9, 70, 0
20, 7740, Note_on_c, 9, 70, 100
20, 7754, Note_on_c, 9, 70, 0
20, 7770, Note_on_c, 9, 70, 100
20, 7784, Note_on_c, 9, 70, 0
20, 7860, Note_on_c, 9, 69, 63
20, 7874, Note_on_c, 9, 69, 0
20, 7890, Note_on_c, 9, 69, 63
20, 7904, Note_on_c, 9, 69, 0
20, 7920, Note_on_c, 9, 69, 63
20, 7934, Note_on_c, 9, 69, 0
20, 8400, Note_on_c, 9, 70, 100
20, 8414, Note_on_c, 9, 70, 0
20, 8640, Note_on_c, 9, 70, 100
20, 8654, Note_on_c, 9, 70, 0
20, 8700, Note_on_c, 9, 70, 100
20, 8714, Note_on_c, 9, 70, 0
20, 8730, Note_on_c, 9, 70, 100
20, 8744, Note_on_c, 9, 70, 0
20, 8760, Note_on_c, 9, 70, 100
20, 8774, Note_on_c, 9, 70, 0
20, 8820, Note_on_c, 9, 69, 63
20, 8834, Note_on_c, 9, 69, 0
20, 8850, Note_on_c, 9, 69, 63
20, 8864, Note_on_c, 9, 69, 0
20, 8880, Note_on_c, 9, 69, 63
20, 8894, Note_on_c, 9, 69, 0
20, 9360, Note_on_c, 9, 70, 100
20, 9374, Note_on_c, 9, 70, 0
20, 9600, Note_on_c, 9, 70, 100
20, 9614, Note_on_c, 9, 70, 0
20, 9660, Note_on_c, 9, 70, 100
20, 9674, Note_on_c, 9, 70, 0
20, 9690, Note_on_c, 9, 70, 100
20, 9704, Note_on_c, 9, 70, 0
20, 9780, Note_on_c, 9, 69, 63
20, 9794, Note_on_c, 9, 69, 0
20, 9810, Note_on_c, 9, 69, 63
20, 9824, Note_on_c, 9, 69, 0
20, 9840, Note_on_c, 9, 69, 63
20, 9854, Note_on_c, 9, 69, 0
20, 10320, Note_on_c, 9, 70, 100
20, 10334, Note_on_c, 9, 70, 0
20, 10560, Note_on_c, 9, 70, 100
20, 10574, Note_on_c, 9, 70, 0
20, 10620, Note_on_c, 9, 70, 100
20, 10634, Note_on_c, 9, 70, 0
20, 10650, Note_on_c, 9, 70, 100
20, 10664, Note_on_c, 9, 70, 0
20, 10680, Note_on_c, 9, 70, 100
20, 10694, Note_on_c, 9, 70, 0
20, 10740, Note_on_c, 9, 69, 63
20, 10754, Note_on_c, 9, 69, 0
20, 10770, Note_on_c, 9, 69, 63
20, 10784, Note_on_c, 9, 69, 0
20, 10800, Note_on_c, 9, 69, 63
20, 10814, Note_on_c, 9, 69, 0
20, 11280, Note_on_c, 9, 70, 100
20, 11294, Note_on_c, 9, 70, 0
20, 11520, Note_on_c, 9, 70, 100
20, 11534, Note_on_c, 9, 70, 0
20, 11580, Note_on_c, 9, 70, 100
20, 11594, Note_on_c, 9, 70, 0
20, 11610, Note_on_c, 9, 70, 100
20, 11624, Note_on_c, 9, 70, 0
20, 11700, Note_on_c, 9, 69, 63
20, 11714, Note_on_c, 9, 69, 0
20, 11730, Note_on_c, 9, 69, 63
20, 11744, Note_on_c, 9, 69, 0
20, 11760, Note_on_c, 9, 69, 63
20, 11774, Note_on_c, 9, 69, 0
20, 12240, Note_on_c, 9, 70, 100
20, 12254, Note_on_c, 9, 70, 0
20, 12480, Note_on_c, 9, 70, 100
20, 12494, Note_on_c, 9, 70, 0
20, 12540, Note_on_c, 9, 70, 100
20, 12554, Note_on_c, 9, 70, 0
20, 12570, Note_on_c, 9, 70, 100
20, 12584, Note_on_c, 9, 70, 0
20, 12600, Note_on_c, 9, 70, 100
20, 12614, Note_on_c, 9, 70, 0
20, 12660, Note_on_c, 9, 69, 63
20, 12674, Note_on_c, 9, 69, 0
20, 12690, Note_on_c, 9, 69, 63
20, 12704, Note_on_c, 9, 69, 0
20, 12720, Note_on_c, 9, 69, 63
20, 12734, Note_on_c, 9, 69, 0
20, 13200, Note_on_c, 9, 70, 100
20, 13214, Note_on_c, 9, 70, 0
20, 13440, Note_on_c, 9, 70, 100
20, 13454, Note_on_c, 9, 70, 0
20, 13500, Note_on_c, 9, 70, 100
20, 13514, Note_on_c, 9, 70, 0
20, 13530, Note_on_c, 9, 70, 100
20, 13544, Note_on_c, 9, 70, 0
20, 13620, Note_on_c, 9, 69, 63
20, 13634, Note_on_c, 9, 69, 0
20, 13650, Note_on_c, 9, 69, 63
20, 13664, Note_on_c, 9, 69, 0
20, 13680, Note_on_c, 9, 69, 63
20, 13694, Note_on_c, 9, 69, 0
20, 14160, Note_on_c, 9, 70, 100
20, 14174, Note_on_c, 9, 70, 0
20, 14400, Note_on_c, 9, 70, 100
20, 14414, Note_on_c, 9, 70, 0
20, 14460, Note_on_c, 9, 70, 100
20, 14474, Note_on_c, 9, 70, 0
20, 14490, Note_on_c, 9, 70, 100
20, 14504, Note_on_c, 9, 70, 0
20, 14520, Note_on_c, 9, 70, 100
20, 14534, Note_on_c, 9, 70, 0
20, 14580, Note_on_c, 9, 69, 63
20, 14594, Note_on_c, 9, 69, 0
20, 14610, Note_on_c, 9, 69, 63
20, 14624, Note_on_c, 9, 69, 0
20, 14640, Note_on_c, 9, 69, 63
20, 14654, Note_on_c, 9, 69, 0
20, 15120, Note_on_c, 9, 70, 100
20, 15134, Note_on_c, 9, 70, 0
20, 15420, Note_on_c, 9, 70, 100
20, 15434, Note_on_c, 9, 70, 0
20, 15540, Note_on_c, 9, 70, 100
20, 15554, Note_on_c, 9, 70, 0
20, 15660, Note_on_c, 9, 70, 100
20, 15674, Note_on_c, 9, 70, 0
20, 15780, Note_on_c, 9, 70, 100
20, 15794, Note_on_c, 9, 70, 0
20, 15900, Note_on_c, 9, 70, 100
20, 15914, Note_on_c, 9, 70, 0
20, 16020, Note_on_c, 9, 70, 100
20, 16034, Note_on_c, 9, 70, 0
20, 16140, Note_on_c, 9, 70, 100
20, 16154, Note_on_c, 9, 70, 0
20, 16260, Note_on_c, 9, 70, 100
20, 16274, Note_on_c, 9, 70, 0
20, 16380, Note_on_c, 9, 70, 100
20, 16394, Note_on_c, 9, 70, 0
20, 16500, Note_on_c, 9, 70, 100
20, 16514, Note_on_c, 9, 70, 0
20, 16620, Note_on_c, 9, 70, 100
20, 16634, Note_on_c, 9, 70, 0
20, 16710, Note_on_c, 9, 70, 68
20, 16724, Note_on_c, 9, 70, 0
20, 16740, Note_on_c, 9, 70, 100
20, 16754, Note_on_c, 9, 70, 0
20, 16860, Note_on_c, 9, 70, 100
20, 16874, Note_on_c, 9, 70, 0
20, 16980, Note_on_c, 9, 70, 100
20, 16994, Note_on_c, 9, 70, 0
20, 17100, Note_on_c, 9, 70, 100
20, 17114, Note_on_c, 9, 70, 0
20, 17220, Note_on_c, 9, 70, 100
20, 17234, Note_on_c, 9, 70, 0
20, 17340, Note_on_c, 9, 70, 100
20, 17354, Note_on_c, 9, 70, 0
20, 17460, Note_on_c, 9, 70, 100
20, 17474, Note_on_c, 9, 70, 0
20, 17580, Note_on_c, 9, 70, 100
20, 17594, Note_on_c, 9, 70, 0
20, 17700, Note_on_c, 9, 70, 100
20, 17714, Note_on_c, 9, 70, 0
20, 17820, Note_on_c, 9, 70, 100
20, 17834, Note_on_c, 9, 70, 0
20, 17940, Note_on_c, 9, 70, 100
20, 17954, Note_on_c, 9, 70, 0
20, 18060, Note_on_c, 9, 70, 100
20, 18074, Note_on_c, 9, 70, 0
20, 18180, Note_on_c, 9, 70, 100
20, 18194, Note_on_c, 9, 70, 0
20, 18300, Note_on_c, 9, 70, 100
20, 18314, Note_on_c, 9, 70, 0
20, 18420, Note_on_c, 9, 70, 100
20, 18434, Note_on_c, 9, 70, 0
20, 18540, Note_on_c, 9, 70, 100
20, 18554, Note_on_c, 9, 70, 0
20, 18630, Note_on_c, 9, 70, 68
20, 18644, Note_on_c, 9, 70, 0
20, 18660, Note_on_c, 9, 70, 100
20, 18674, Note_on_c, 9, 70, 0
20, 18780, Note_on_c, 9, 70, 100
20, 18794, Note_on_c, 9, 70, 0
20, 18900, Note_on_c, 9, 70, 100
20, 18914, Note_on_c, 9, 70, 0
20, 19020, Note_on_c, 9, 70, 100
20, 19034, Note_on_c, 9, 70, 0
20, 19140, Note_on_c, 9, 70, 100
20, 19154, Note_on_c, 9, 70, 0
20, 19260, Note_on_c, 9, 70, 100
20, 19274, Note_on_c, 9, 70, 0
20, 19380, Note_on_c, 9, 70, 100
20, 19394, Note_on_c, 9, 70, 0
20, 19500, Note_on_c, 9, 70, 100
20, 19514, Note_on_c, 9, 70, 0
20, 19620, Note_on_c, 9, 70, 100
20, 19634, Note_on_c, 9, 70, 0
20, 19740, Note_on_c, 9, 70, 100
20, 19754, Note_on_c, 9, 70, 0
20, 19860, Note_on_c, 9, 70, 100
20, 19874, Note_on_c, 9, 70, 0
20, 19980, Note_on_c, 9, 70, 100
20, 19994, Note_on_c, 9, 70, 0
20, 20100, Note_on_c, 9, 70, 100
20, 20114, Note_on_c, 9, 70, 0
20, 20220, Note_on_c, 9, 70, 100
20, 20234, Note_on_c, 9, 70, 0
20, 20340, Note_on_c, 9, 70, 100
20, 20354, Note_on_c, 9, 70, 0
20, 20460, Note_on_c, 9, 70, 100
20, 20474, Note_on_c, 9, 70, 0
20, 20550, Note_on_c, 9, 70, 68
20, 20564, Note_on_c, 9, 70, 0
20, 20580, Note_on_c, 9, 70, 100
20, 20594, Note_on_c, 9, 70, 0
20, 20700, Note_on_c, 9, 70, 100
20, 20714, Note_on_c, 9, 70, 0
20, 20820, Note_on_c, 9, 70, 100
20, 20834, Note_on_c, 9, 70, 0
20, 20940, Note_on_c, 9, 70, 100
20, 20954, Note_on_c, 9, 70, 0
20, 21060, Note_on_c, 9, 70, 100
20, 21074, Note_on_c, 9, 70, 0
20, 21180, Note_on_c, 9, 70, 100
20, 21194, Note_on_c, 9, 70, 0
20, 21300, Note_on_c, 9, 70, 100
20, 21314, Note_on_c, 9, 70, 0
20, 21420, Note_on_c, 9, 70, 100
20, 21434, Note_on_c, 9, 70, 0
20, 21540, Note_on_c, 9, 70, 100
20, 21554, Note_on_c, 9, 70, 0
20, 21660, Note_on_c, 9, 70, 100
20, 21674, Note_on_c, 9, 70, 0
20, 21780, Note_on_c, 9, 70, 100
20, 21794, Note_on_c, 9, 70, 0
20, 21900, Note_on_c, 9, 70, 100
20, 21914, Note_on_c, 9, 70, 0
20, 22020, Note_on_c, 9, 70, 100
20, 22034, Note_on_c, 9, 70, 0
20, 22140, Note_on_c, 9, 70, 100
20, 22154, Note_on_c, 9, 70, 0
20, 22260, Note_on_c, 9, 70, 100
20, 22274, Note_on_c, 9, 70, 0
20, 22380, Note_on_c, 9, 70, 100
20, 22394, Note_on_c, 9, 70, 0
20, 22470, Note_on_c, 9, 70, 68
20, 22484, Note_on_c, 9, 70, 0
20, 22500, Note_on_c, 9, 70, 100
20, 22514, Note_on_c, 9, 70, 0
20, 22620, Note_on_c, 9, 70, 100
20, 22634, Note_on_c, 9, 70, 0
20, 22740, Note_on_c, 9, 70, 100
20, 22754, Note_on_c, 9, 70, 0
20, 22860, Note_on_c, 9, 70, 100
20, 22874, Note_on_c, 9, 70, 0
20, 22980, Note_on_c, 9, 70, 100
20, 22994, Note_on_c, 9, 70, 0
20, 23040, Note_on_c, 9, 70, 100
20, 23054, Note_on_c, 9, 70, 0
20, 23100, Note_on_c, 9, 70, 100
20, 23114, Note_on_c, 9, 70, 0
20, 23130, Note_on_c, 9, 70, 100
20, 23144, Note_on_c, 9, 70, 0
20, 23220, Note_on_c, 9, 69, 63
20, 23234, Note_on_c, 9, 69, 0
20, 23250, Note_on_c, 9, 69, 63
20, 23264, Note_on_c, 9, 69, 0
20, 23280, Note_on_c, 9, 69, 63
20, 23294, Note_on_c, 9, 69, 0
20, 23760, Note_on_c, 9, 70, 100
20, 23774, Note_on_c, 9, 70, 0
20, 24000, Note_on_c, 9, 70, 100
20, 24014, Note_on_c, 9, 70, 0
20, 24060, Note_on_c, 9, 70, 100
20, 24074, Note_on_c, 9, 70, 0
20, 24090, Note_on_c, 9, 70, 100
20, 24104, Note_on_c, 9, 70, 0
20, 24120, Note_on_c, 9, 70, 100
20, 24134, Note_on_c, 9, 70, 0
20, 24180, Note_on_c, 9, 69, 63
20, 24194, Note_on_c, 9, 69, 0
20, 24210, Note_on_c, 9, 69, 63
20, 24224, Note_on_c, 9, 69, 0
20, 24240, Note_on_c, 9, 69, 63
20, 24254, Note_on_c, 9, 69, 0
20, 24720, Note_on_c, 9, 70, 100
20, 24734, Note_on_c, 9, 70, 0
20, 24960, Note_on_c, 9, 70, 100
20, 24974, Note_on_c, 9, 70, 0
20, 25020, Note_on_c, 9, 70, 100
20, 25034, Note_on_c, 9, 70, 0
20, 25050, Note_on_c, 9, 70, 100
20, 25064, Note_on_c, 9, 70, 0
20, 25140, Note_on_c, 9, 69, 63
20, 25154, Note_on_c, 9, 69, 0
20, 25170, Note_on_c, 9, 69, 63
20, 25184, Note_on_c, 9, 69, 0
20, 25200, Note_on_c, 9, 69, 63
20, 25214, Note_on_c, 9, 69, 0
20, 25680, Note_on_c, 9, 70, 100
20, 25694, Note_on_c, 9, 70, 0
20, 25920, Note_on_c, 9, 70, 100
20, 25934, Note_on_c, 9, 70, 0
20, 25980, Note_on_c, 9, 70, 100
20, 25994, Note_on_c, 9, 70, 0
20, 26010, Note_on_c, 9, 70, 100
20, 26024, Note_on_c, 9, 70, 0
20, 26040, Note_on_c, 9, 70, 100
20, 26054, Note_on_c, 9, 70, 0
20, 26100, Note_on_c, 9, 69, 63
20, 26114, Note_on_c, 9, 69, 0
20, 26130, Note_on_c, 9, 69, 63
20, 26144, Note_on_c, 9, 69, 0
20, 26160, Note_on_c, 9, 69, 63
20, 26174, Note_on_c, 9, 69, 0
20, 26640, Note_on_c, 9, 70, 100
20, 26654, Note_on_c, 9, 70, 0
20, 26880, Note_on_c, 9, 70, 100
20, 26894, Note_on_c, 9, 70, 0
20, 26940, Note_on_c, 9, 70, 100
20, 26954, Note_on_c, 9, 70, 0
20, 26970, Note_on_c, 9, 70, 100
20, 26984, Note_on_c, 9, 70, 0
20, 27060, Note_on_c, 9, 69, 63
20, 27074, Note_on_c, 9, 69, 0
20, 27090, Note_on_c, 9, 69, 63
20, 27104, Note_on_c, 9, 69, 0
20, 27120, Note_on_c, 9, 69, 63
20, 27134, Note_on_c, 9, 69, 0
20, 27600, Note_on_c, 9, 70, 100
20, 27614, Note_on_c, 9, 70, 0
20, 27840, Note_on_c, 9, 70, 100
20, 27854, Note_on_c, 9, 70, 0
20, 27900, Note_on_c, 9, 70, 100
20, 27914, Note_on_c, 9, 70, 0
20, 27930, Note_on_c, 9, 70, 100
20, 27944, Note_on_c, 9, 70, 0
20, 27960, Note_on_c, 9, 70, 100
20, 27974, Note_on_c, 9, 70, 0
20, 28020, Note_on_c, 9, 69, 63
20, 28034, Note_on_c, 9, 69, 0
20, 28050, Note_on_c, 9, 69, 63
20, 28064, Note_on_c, 9, 69, 0
20, 28080, Note_on_c, 9, 69, 63
20, 28094, Note_on_c, 9, 69, 0
20, 28560, Note_on_c, 9, 70, 100
20, 28574, Note_on_c, 9, 70, 0
20, 28800, Note_on_c, 9, 70, 100
20, 28814, Note_on_c, 9, 70, 0
20, 28860, Note_on_c, 9, 70, 100
20, 28874, Note_on_c, 9, 70, 0
20, 28890, Note_on_c, 9, 70, 100
20, 28904, Note_on_c, 9, 70, 0
20, 28980, Note_on_c, 9, 69, 63
20, 28994, Note_on_c, 9, 69, 0
20, 29010, Note_on_c, 9, 69, 63
20, 29024, Note_on_c, 9, 69, 0
20, 29040, Note_on_c, 9, 69, 63
20, 29054, Note_on_c, 9, 69, 0
20, 29520, Note_on_c, 9, 70, 100
20, 29534, Note_on_c, 9, 70, 0
20, 29760, Note_on_c, 9, 70, 100
20, 29774, Note_on_c, 9, 70, 0
20, 29820, Note_on_c, 9, 70, 100
20, 29834, Note_on_c, 9, 70, 0
20, 29850, Note_on_c, 9, 70, 100
20, 29864, Note_on_c, 9, 70, 0
20, 29880, Note_on_c, 9, 70, 100
20, 29894, Note_on_c, 9, 70, 0
20, 29940, Note_on_c, 9, 69, 63
20, 29954, Note_on_c, 9, 69, 0
20, 29970, Note_on_c, 9, 69, 63
20, 29984, Note_on_c, 9, 69, 0
20, 30000, Note_on_c, 9, 69, 63
20, 30014, Note_on_c, 9, 69, 0
20, 30480, Note_on_c, 9, 70, 100
20, 30494, Note_on_c, 9, 70, 0
20, 30720, Note_on_c, 9, 70, 100
20, 30734, Note_on_c, 9, 70, 0
20, 30780, Note_on_c, 9, 70, 100
20, 30794, Note_on_c, 9, 70, 0
20, 30810, Note_on_c, 9, 70, 100
20, 30824, Note_on_c, 9, 70, 0
20, 30900, Note_on_c, 9, 69, 63
20, 30914, Note_on_c, 9, 69, 0
20, 30930, Note_on_c, 9, 69, 63
20, 30944, Note_on_c, 9, 69, 0
20, 30960, Note_on_c, 9, 69, 63
20, 30974, Note_on_c, 9, 69, 0
20, 31440, Note_on_c, 9, 70, 100
20, 31454, Note_on_c, 9, 70, 0
20, 31680, Note_on_c, 9, 70, 100
20, 31694, Note_on_c, 9, 70, 0
20, 31740, Note_on_c, 9, 70, 100
20, 31754, Note_on_c, 9, 70, 0
20, 31770, Note_on_c, 9, 70, 100
20, 31784, Note_on_c, 9, 70, 0
20, 31800, Note_on_c, 9, 70, 100
20, 31814, Note_on_c, 9, 70, 0
20, 31860, Note_on_c, 9, 69, 63
20, 31874, Note_on_c, 9, 69, 0
20, 31890, Note_on_c, 9, 69, 63
20, 31904, Note_on_c, 9, 69, 0
20, 31920, Note_on_c, 9, 69, 63
20, 31934, Note_on_c, 9, 69, 0
20, 32400, Note_on_c, 9, 70, 100
20, 32414, Note_on_c, 9, 70, 0
20, 32640, Note_on_c, 9, 70, 100
20, 32654, Note_on_c, 9, 70, 0
20, 32700, Note_on_c, 9, 70, 100
20, 32714, Note_on_c, 9, 70, 0
20, 32730, Note_on_c, 9, 70, 100
20, 32744, Note_on_c, 9, 70, 0
20, 32820, Note_on_c, 9, 69, 63
20, 32834, Note_on_c, 9, 69, 0
20, 32850, Note_on_c, 9, 69, 63
20, 32864, Note_on_c, 9, 69, 0
20, 32880, Note_on_c, 9, 69, 63
20, 32894, Note_on_c, 9, 69, 0
20, 33360, Note_on_c, 9, 70, 100
20, 33374, Note_on_c, 9, 70, 0
20, 33600, Note_on_c, 9, 70, 100
20, 33614, Note_on_c, 9, 70, 0
20, 33660, Note_on_c, 9, 70, 100
20, 33674, Note_on_c, 9, 70, 0
20, 33690, Note_on_c, 9, 70, 100
20, 33704, Note_on_c, 9, 70, 0
20, 33720, Note_on_c, 9, 70, 100
20, 33734, Note_on_c, 9, 70, 0
20, 33780, Note_on_c, 9, 69, 63
20, 33794, Note_on_c, 9, 69, 0
20, 33810, Note_on_c, 9, 69, 63
20, 33824, Note_on_c, 9, 69, 0
20, 33840, Note_on_c, 9, 69, 63
20, 33854, Note_on_c, 9, 69, 0
20, 34320, Note_on_c, 9, 70, 100
20, 34334, Note_on_c, 9, 70, 0
20, 34620, Note_on_c, 9, 70, 100
20, 34634, Note_on_c, 9, 70, 0
20, 34740, Note_on_c, 9, 70, 100
20, 34754, Note_on_c, 9, 70, 0
20, 34860, Note_on_c, 9, 70, 100
20, 34874, Note_on_c, 9, 70, 0
20, 34980, Note_on_c, 9, 70, 100
20, 34994, Note_on_c, 9, 70, 0
20, 35100, Note_on_c, 9, 70, 100
20, 35114, Note_on_c, 9, 70, 0
20, 35220, Note_on_c, 9, 70, 100
20, 35234, Note_on_c, 9, 70, 0
20, 35340, Note_on_c, 9, 70, 100
20, 35354, Note_on_c, 9, 70, 0
20, 35460, Note_on_c, 9, 70, 100
20, 35474, Note_on_c, 9, 70, 0
20, 35580, Note_on_c, 9, 70, 100
20, 35594, Note_on_c, 9, 70, 0
20, 35700, Note_on_c, 9, 70, 100
20, 35714, Note_on_c, 9, 70, 0
20, 35820, Note_on_c, 9, 70, 100
20, 35834, Note_on_c, 9, 70, 0
20, 35910, Note_on_c, 9, 70, 68
20, 35924, Note_on_c, 9, 70, 0
20, 35940, Note_on_c, 9, 70, 100
20, 35954, Note_on_c, 9, 70, 0
20, 36060, Note_on_c, 9, 70, 100
20, 36074, Note_on_c, 9, 70, 0
20, 36180, Note_on_c, 9, 70, 100
20, 36194, Note_on_c, 9, 70, 0
20, 36300, Note_on_c, 9, 70, 100
20, 36314, Note_on_c, 9, 70, 0
20, 36420, Note_on_c, 9, 70, 100
20, 36434, Note_on_c, 9, 70, 0
20, 36540, Note_on_c, 9, 70, 100
20, 36554, Note_on_c, 9, 70, 0
20, 36660, Note_on_c, 9, 70, 100
20, 36674, Note_on_c, 9, 70, 0
20, 36780, Note_on_c, 9, 70, 100
20, 36794, Note_on_c, 9, 70, 0
20, 36900, Note_on_c, 9, 70, 100
20, 36914, Note_on_c, 9, 70, 0
20, 37020, Note_on_c, 9, 70, 100
20, 37034, Note_on_c, 9, 70, 0
20, 37140, Note_on_c, 9, 70, 100
20, 37154, Note_on_c, 9, 70, 0
20, 37260, Note_on_c, 9, 70, 100
20, 37274, Note_on_c, 9, 70, 0
20, 37380, Note_on_c, 9, 70, 100
20, 37394, Note_on_c, 9, 70, 0
20, 37500, Note_on_c, 9, 70, 100
20, 37514, Note_on_c, 9, 70, 0
20, 37620, Note_on_c, 9, 70, 100
20, 37634, Note_on_c, 9, 70, 0
20, 37740, Note_on_c, 9, 70, 100
20, 37754, Note_on_c, 9, 70, 0
20, 37830, Note_on_c, 9, 70, 68
20, 37844, Note_on_c, 9, 70, 0
20, 37860, Note_on_c, 9, 70, 100
20, 37874, Note_on_c, 9, 70, 0
20, 37980, Note_on_c, 9, 70, 100
20, 37994, Note_on_c, 9, 70, 0
20, 38100, Note_on_c, 9, 70, 100
20, 38114, Note_on_c, 9, 70, 0
20, 38220, Note_on_c, 9, 70, 100
20, 38234, Note_on_c, 9, 70, 0
20, 38340, Note_on_c, 9, 70, 100
20, 38354, Note_on_c, 9, 70, 0
20, 38460, Note_on_c, 9, 70, 100
20, 38474, Note_on_c, 9, 70, 0
20, 38580, Note_on_c, 9, 70, 100
20, 38594, Note_on_c, 9, 70, 0
20, 38700, Note_on_c, 9, 70, 100
20, 38714, Note_on_c, 9, 70, 0
20, 38820, Note_on_c, 9, 70, 100
20, 38834, Note_on_c, 9, 70, 0
20, 38940, Note_on_c, 9, 70, 100
20, 38954, Note_on_c, 9, 70, 0
20, 39060, Note_on_c, 9, 70, 100
20, 39074, Note_on_c, 9, 70, 0
20, 39180, Note_on_c, 9, 70, 100
20, 39194, Note_on_c, 9, 70, 0
20, 39300, Note_on_c, 9, 70, 100
20, 39314, Note_on_c, 9, 70, 0
20, 39420, Note_on_c, 9, 70, 100
20, 39434, Note_on_c, 9, 70, 0
20, 39540, Note_on_c, 9, 70, 100
20, 39554, Note_on_c, 9, 70, 0
20, 39660, Note_on_c, 9, 70, 100
20, 39674, Note_on_c, 9, 70, 0
20, 39750, Note_on_c, 9, 70, 68
20, 39764, Note_on_c, 9, 70, 0
20, 39780, Note_on_c, 9, 70, 100
20, 39794, Note_on_c, 9, 70, 0
20, 39900, Note_on_c, 9, 70, 100
20, 39914, Note_on_c, 9, 70, 0
20, 40020, Note_on_c, 9, 70, 100
20, 40034, Note_on_c, 9, 70, 0
20, 40140, Note_on_c, 9, 70, 100
20, 40154, Note_on_c, 9, 70, 0
20, 40260, Note_on_c, 9, 70, 100
20, 40274, Note_on_c, 9, 70, 0
20, 40380, Note_on_c, 9, 70, 100
20, 40394, Note_on_c, 9, 70, 0
20, 40500, Note_on_c, 9, 70, 100
20, 40514, Note_on_c, 9, 70, 0
20, 40620, Note_on_c, 9, 70, 100
20, 40634, Note_on_c, 9, 70, 0
20, 40740, Note_on_c, 9, 70, 100
20, 40754, Note_on_c, 9, 70, 0
20, 40860, Note_on_c, 9, 70, 100
20, 40874, Note_on_c, 9, 70, 0
20, 40980, Note_on_c, 9, 70, 100
20, 40994, Note_on_c, 9, 70, 0
20, 41100, Note_on_c, 9, 70, 100
20, 41114, Note_on_c, 9, 70, 0
20, 41220, Note_on_c, 9, 70, 100
20, 41234, Note_on_c, 9, 70, 0
20, 41340, Note_on_c, 9, 70, 100
20, 41354, Note_on_c, 9, 70, 0
20, 41460, Note_on_c, 9, 70, 100
20, 41474, Note_on_c, 9, 70, 0
20, 41580, Note_on_c, 9, 70, 100
20, 41594, Note_on_c, 9, 70, 0
20, 41670, Note_on_c, 9, 70, 68
20, 41684, Note_on_c, 9, 70, 0
20, 41700, Note_on_c, 9, 70, 100
20, 41714, Note_on_c, 9, 70, 0
20, 41820, Note_on_c, 9, 70, 100
20, 41834, Note_on_c, 9, 70, 0
20, 41940, Note_on_c, 9, 70, 100
20, 41954, Note_on_c, 9, 70, 0
20, 42060, Note_on_c, 9, 70, 100
20, 42074, Note_on_c, 9, 70, 0
20, 42180, Note_on_c, 9, 70, 100
20, 42194, Note_on_c, 9, 70, 0
20, 42300, Note_on_c, 9, 70, 100
20, 42314, Note_on_c, 9, 70, 0
20, 42420, Note_on_c, 9, 70, 100
20, 42434, Note_on_c, 9, 70, 0
20, 42540, Note_on_c, 9, 70, 100
20, 42554, Note_on_c, 9, 70, 0
20, 42660, Note_on_c, 9, 70, 100
20, 42674, Note_on_c, 9, 70, 0
20, 42780, Note_on_c, 9, 70, 100
20, 42794, Note_on_c, 9, 70, 0
20, 42900, Note_on_c, 9, 70, 100
20, 42914, Note_on_c, 9, 70, 0
20, 43020, Note_on_c, 9, 70, 100
20, 43034, Note_on_c, 9, 70, 0
20, 43140, Note_on_c, 9, 70, 100
20, 43154, Note_on_c, 9, 70, 0
20, 43260, Note_on_c, 9, 70, 100
20, 43274, Note_on_c, 9, 70, 0
20, 43380, Note_on_c, 9, 70, 100
20, 43394, Note_on_c, 9, 70, 0
20, 43500, Note_on_c, 9, 70, 100
20, 43514, Note_on_c, 9, 70, 0
20, 43590, Note_on_c, 9, 70, 68
20, 43604, Note_on_c, 9, 70, 0
20, 43620, Note_on_c, 9, 70, 100
20, 43634, Note_on_c, 9, 70, 0
20, 43740, Note_on_c, 9, 70, 100
20, 43754, Note_on_c, 9, 70, 0
20, 43860, Note_on_c, 9, 70, 100
20, 43874, Note_on_c, 9, 70, 0
20, 43980, Note_on_c, 9, 70, 100
20, 43994, Note_on_c, 9, 70, 0
20, 44100, Note_on_c, 9, 70, 100
20, 44114, Note_on_c, 9, 70, 0
20, 44220, Note_on_c, 9, 70, 100
20, 44234, Note_on_c, 9, 70, 0
20, 44340, Note_on_c, 9, 70, 100
20, 44354, Note_on_c, 9, 70, 0
20, 44460, Note_on_c, 9, 70, 100
20, 44474, Note_on_c, 9, 70, 0
20, 44580, Note_on_c, 9, 70, 100
20, 44594, Note_on_c, 9, 70, 0
20, 44700, Note_on_c, 9, 70, 100
20, 44714, Note_on_c, 9, 70, 0
20, 44820, Note_on_c, 9, 70, 100
20, 44834, Note_on_c, 9, 70, 0
20, 44940, Note_on_c, 9, 70, 100
20, 44954, Note_on_c, 9, 70, 0
20, 45060, Note_on_c, 9, 70, 100
20, 45074, Note_on_c, 9, 70, 0
20, 45180, Note_on_c, 9, 70, 100
20, 45194, Note_on_c, 9, 70, 0
20, 45300, Note_on_c, 9, 70, 100
20, 45314, Note_on_c, 9, 70, 0
20, 45420, Note_on_c, 9, 70, 100
20, 45434, Note_on_c, 9, 70, 0
20, 45510, Note_on_c, 9, 70, 68
20, 45524, Note_on_c, 9, 70, 0
20, 45540, Note_on_c, 9, 70, 100
20, 45554, Note_on_c, 9, 70, 0
20, 45660, Note_on_c, 9, 70, 100
20, 45674, Note_on_c, 9, 70, 0
20, 45780, Note_on_c, 9, 70, 100
20, 45794, Note_on_c, 9, 70, 0
20, 45900, Note_on_c, 9, 70, 100
20, 45914, Note_on_c, 9, 70, 0
20, 46020, Note_on_c, 9, 70, 100
20, 46034, Note_on_c, 9, 70, 0
20, 46140, Note_on_c, 9, 70, 100
20, 46154, Note_on_c, 9, 70, 0
20, 46260, Note_on_c, 9, 70, 100
20, 46274, Note_on_c, 9, 70, 0
20, 46380, Note_on_c, 9, 70, 100
20, 46394, Note_on_c, 9, 70, 0
20, 46500, Note_on_c, 9, 70, 100
20, 46514, Note_on_c, 9, 70, 0
20, 46620, Note_on_c, 9, 70, 100
20, 46634, Note_on_c, 9, 70, 0
20, 46740, Note_on_c, 9, 70, 100
20, 46754, Note_on_c, 9, 70, 0
20, 46860, Note_on_c, 9, 70, 100
20, 46874, Note_on_c, 9, 70, 0
20, 46980, Note_on_c, 9, 70, 100
20, 46994, Note_on_c, 9, 70, 0
20, 47100, Note_on_c, 9, 70, 100
20, 47114, Note_on_c, 9, 70, 0
20, 47220, Note_on_c, 9, 70, 100
20, 47234, Note_on_c, 9, 70, 0
20, 47340, Note_on_c, 9, 70, 100
20, 47354, Note_on_c, 9, 70, 0
20, 47430, Note_on_c, 9, 70, 68
20, 47444, Note_on_c, 9, 70, 0
20, 47460, Note_on_c, 9, 70, 100
20, 47474, Note_on_c, 9, 70, 0
20, 47580, Note_on_c, 9, 70, 100
20, 47594, Note_on_c, 9, 70, 0
20, 47700, Note_on_c, 9, 70, 100
20, 47714, Note_on_c, 9, 70, 0
20, 47820, Note_on_c, 9, 70, 100
20, 47834, Note_on_c, 9, 70, 0
20, 47940, Note_on_c, 9, 70, 100
20, 47954, Note_on_c, 9, 70, 0
20, 48060, Note_on_c, 9, 70, 100
20, 48074, Note_on_c, 9, 70, 0
20, 48180, Note_on_c, 9, 70, 100
20, 48194, Note_on_c, 9, 70, 0
20, 48300, Note_on_c, 9, 70, 100
20, 48314, Note_on_c, 9, 70, 0
20, 48420, Note_on_c, 9, 70, 100
20, 48434, Note_on_c, 9, 70, 0
20, 48540, Note_on_c, 9, 70, 100
20, 48554, Note_on_c, 9, 70, 0
20, 48660, Note_on_c, 9, 70, 100
20, 48674, Note_on_c, 9, 70, 0
20, 48780, Note_on_c, 9, 70, 100
20, 48794, Note_on_c, 9, 70, 0
20, 48900, Note_on_c, 9, 70, 100
20, 48914, Note_on_c, 9, 70, 0
20, 49020, Note_on_c, 9, 70, 100
20, 49034, Note_on_c, 9, 70, 0
20, 49140, Note_on_c, 9, 70, 100
20, 49154, Note_on_c, 9, 70, 0
20, 49260, Note_on_c, 9, 70, 100
20, 49274, Note_on_c, 9, 70, 0
20, 49350, Note_on_c, 9, 70, 68
20, 49364, Note_on_c, 9, 70, 0
20, 49380, Note_on_c, 9, 70, 100
20, 49394, Note_on_c, 9, 70, 0
20, 49500, Note_on_c, 9, 70, 100
20, 49514, Note_on_c, 9, 70, 0
20, 49620, Note_on_c, 9, 70, 100
20, 49634, Note_on_c, 9, 70, 0
20, 49740, Note_on_c, 9, 70, 100
20, 49754, Note_on_c, 9, 70, 0
20, 49860, Note_on_c, 9, 70, 100
20, 49874, Note_on_c, 9, 70, 0
20, 49980, Note_on_c, 9, 70, 100
20, 49994, Note_on_c, 9, 70, 0
20, 50100, Note_on_c, 9, 70, 100
20, 50114, Note_on_c, 9, 70, 0
20, 50220, Note_on_c, 9, 70, 100
20, 50234, Note_on_c, 9, 70, 0
20, 50340, Note_on_c, 9, 70, 100
20, 50354, Note_on_c, 9, 70, 0
20, 50460, Note_on_c, 9, 70, 100
20, 50474, Note_on_c, 9, 70, 0
20, 50580, Note_on_c, 9, 70, 100
20, 50594, Note_on_c, 9, 70, 0
20, 50700, Note_on_c, 9, 70, 100
20, 50714, Note_on_c, 9, 70, 0
20, 50820, Note_on_c, 9, 70, 100
20, 50834, Note_on_c, 9, 70, 0
20, 50940, Note_on_c, 9, 70, 100
20, 50954, Note_on_c, 9, 70, 0
20, 51060, Note_on_c, 9, 70, 100
20, 51074, Note_on_c, 9, 70, 0
20, 51180, Note_on_c, 9, 70, 100
20, 51194, Note_on_c, 9, 70, 0
20, 51270, Note_on_c, 9, 70, 68
20, 51284, Note_on_c, 9, 70, 0
20, 51300, Note_on_c, 9, 70, 100
20, 51314, Note_on_c, 9, 70, 0
20, 51420, Note_on_c, 9, 70, 100
20, 51434, Note_on_c, 9, 70, 0
20, 51540, Note_on_c, 9, 70, 100
20, 51554, Note_on_c, 9, 70, 0
20, 51660, Note_on_c, 9, 70, 100
20, 51674, Note_on_c, 9, 70, 0
20, 51780, Note_on_c, 9, 70, 100
20, 51794, Note_on_c, 9, 70, 0
20, 51900, Note_on_c, 9, 70, 100
20, 51914, Note_on_c, 9, 70, 0
20, 52020, Note_on_c, 9, 70, 100
20, 52034, Note_on_c, 9, 70, 0
20, 52140, Note_on_c, 9, 70, 100
20, 52154, Note_on_c, 9, 70, 0
20, 52260, Note_on_c, 9, 70, 100
20, 52274, Note_on_c, 9, 70, 0
20, 52380, Note_on_c, 9, 70, 100
20, 52394, Note_on_c, 9, 70, 0
20, 52500, Note_on_c, 9, 70, 100
20, 52514, Note_on_c, 9, 70, 0
20, 52620, Note_on_c, 9, 70, 100
20, 52634, Note_on_c, 9, 70, 0
20, 52740, Note_on_c, 9, 70, 100
20, 52754, Note_on_c, 9, 70, 0
20, 52860, Note_on_c, 9, 70, 100
20, 52874, Note_on_c, 9, 70, 0
20, 52980, Note_on_c, 9, 70, 100
20, 52994, Note_on_c, 9, 70, 0
20, 53100, Note_on_c, 9, 70, 100
20, 53114, Note_on_c, 9, 70, 0
20, 53190, Note_on_c, 9, 70, 68
20, 53204, Note_on_c, 9, 70, 0
20, 53220, Note_on_c, 9, 70, 100
20, 53234, Note_on_c, 9, 70, 0
20, 53340, Note_on_c, 9, 70, 100
20, 53354, Note_on_c, 9, 70, 0
20, 53460, Note_on_c, 9, 70, 100
20, 53474, Note_on_c, 9, 70, 0
20, 53580, Note_on_c, 9, 70, 100
20, 53594, Note_on_c, 9, 70, 0
20, 53700, Note_on_c, 9, 70, 100
20, 53714, Note_on_c, 9, 70, 0
20, 53820, Note_on_c, 9, 70, 100
20, 53834, Note_on_c, 9, 70, 0
20, 53940, Note_on_c, 9, 70, 100
20, 53954, Note_on_c, 9, 70, 0
20, 54060, Note_on_c, 9, 70, 100
20, 54074, Note_on_c, 9, 70, 0
20, 54180, Note_on_c, 9, 70, 100
20, 54194, Note_on_c, 9, 70, 0
20, 54300, Note_on_c, 9, 70, 100
20, 54314, Note_on_c, 9, 70, 0
20, 54420, Note_on_c, 9, 70, 100
20, 54434, Note_on_c, 9, 70, 0
20, 54540, Note_on_c, 9, 70, 100
20, 54554, Note_on_c, 9, 70, 0
20, 54660, Note_on_c, 9, 70, 100
20, 54674, Note_on_c, 9, 70, 0
20, 54780, Note_on_c, 9, 70, 100
20, 54794, Note_on_c, 9, 70, 0
20, 54900, Note_on_c, 9, 70, 100
20, 54914, Note_on_c, 9, 70, 0
20, 55020, Note_on_c, 9, 70, 100
20, 55034, Note_on_c, 9, 70, 0
20, 55110, Note_on_c, 9, 70, 68
20, 55124, Note_on_c, 9, 70, 0
20, 55140, Note_on_c, 9, 70, 100
20, 55154, Note_on_c, 9, 70, 0
20, 55260, Note_on_c, 9, 70, 100
20, 55274, Note_on_c, 9, 70, 0
20, 55380, Note_on_c, 9, 70, 100
20, 55394, Note_on_c, 9, 70, 0
20, 55500, Note_on_c, 9, 70, 100
20, 55514, Note_on_c, 9, 70, 0
20, 55620, Note_on_c, 9, 70, 100
20, 55634, Note_on_c, 9, 70, 0
20, 55740, Note_on_c, 9, 70, 100
20, 55754, Note_on_c, 9, 70, 0
20, 55860, Note_on_c, 9, 70, 100
20, 55874, Note_on_c, 9, 70, 0
20, 55980, Note_on_c, 9, 70, 100
20, 55994, Note_on_c, 9, 70, 0
20, 56100, Note_on_c, 9, 70, 100
20, 56114, Note_on_c, 9, 70, 0
20, 56220, Note_on_c, 9, 70, 100
20, 56234, Note_on_c, 9, 70, 0
20, 56340, Note_on_c, 9, 70, 100
20, 56354, Note_on_c, 9, 70, 0
20, 56460, Note_on_c, 9, 70, 100
20, 56474, Note_on_c, 9, 70, 0
20, 56580, Note_on_c, 9, 70, 100
20, 56594, Note_on_c, 9, 70, 0
20, 56700, Note_on_c, 9, 70, 100
20, 56714, Note_on_c, 9, 70, 0
20, 56820, Note_on_c, 9, 70, 100
20, 56834, Note_on_c, 9, 70, 0
20, 56940, Note_on_c, 9, 70, 100
20, 56954, Note_on_c, 9, 70, 0
20, 57030, Note_on_c, 9, 70, 68
20, 57044, Note_on_c, 9, 70, 0
20, 57060, Note_on_c, 9, 70, 100
20, 57074, Note_on_c, 9, 70, 0
20, 57180, Note_on_c, 9, 70, 100
20, 57194, Note_on_c, 9, 70, 0
20, 57300, Note_on_c, 9, 70, 100
20, 57314, Note_on_c, 9, 70, 0
20, 57420, Note_on_c, 9, 70, 100
20, 57434, Note_on_c, 9, 70, 0
20, 57540, Note_on_c, 9, 70, 100
20, 57554, Note_on_c, 9, 70, 0
20, 57600, Note_on_c, 9, 70, 100
20, 57614, Note_on_c, 9, 70, 0
20, 57660, Note_on_c, 9, 70, 100
20, 57674, Note_on_c, 9, 70, 0
20, 57690, Note_on_c, 9, 70, 100
20, 57704, Note_on_c, 9, 70, 0
20, 57780, Note_on_c, 9, 69, 63
20, 57794, Note_on_c, 9, 69, 0
20, 57810, Note_on_c, 9, 69, 63
20, 57824, Note_on_c, 9, 69, 0
20, 57840, Note_on_c, 9, 69, 63
20, 57854, Note_on_c, 9, 69, 0
20, 58320, Note_on_c, 9, 70, 100
20, 58334, Note_on_c, 9, 70, 0
20, 58560, Note_on_c, 9, 70, 100
20, 58574, Note_on_c, 9, 70, 0
20, 58620, Note_on_c, 9, 70, 100
20, 58634, Note_on_c, 9, 70, 0
20, 58650, Note_on_c, 9, 70, 100
20, 58664, Note_on_c, 9, 70, 0
20, 58680, Note_on_c, 9, 70, 100
20, 58694, Note_on_c, 9, 70, 0
20, 58740, Note_on_c, 9, 69, 63
20, 58754, Note_on_c, 9, 69, 0
20, 58770, Note_on_c, 9, 69, 63
20, 58784, Note_on_c, 9, 69, 0
20, 58800, Note_on_c, 9, 69, 63
20, 58814, Note_on_c, 9, 69, 0
20, 59040, Control_c, 9, 7, 80
20, 59075, Control_c, 9, 7, 79
20, 59111, Control_c, 9, 7, 78
20, 59147, Control_c, 9, 7, 77
20, 59183, Control_c, 9, 7, 76
20, 59219, Control_c, 9, 7, 75
20, 59255, Control_c, 9, 7, 74
20, 59280, Note_on_c, 9, 70, 100
20, 59291, Control_c, 9, 7, 73
20, 59294, Note_on_c, 9, 70, 0
20, 59327, Control_c, 9, 7, 72
20, 59363, Control_c, 9, 7, 71
20, 59399, Control_c, 9, 7, 70
20, 59435, Control_c, 9, 7, 69
20, 59471, Control_c, 9, 7, 68
20, 59507, Control_c, 9, 7, 67
20, 59520, Note_on_c, 9, 70, 100
20, 59534, Note_on_c, 9, 70, 0
20, 59543, Control_c, 9, 7, 66
20, 59579, Control_c, 9, 7, 65
20, 59580, Note_on_c, 9, 70, 100
20, 59594, Note_on_c, 9, 70, 0
20, 59610, Note_on_c, 9, 70, 100
20, 59615, Control_c, 9, 7, 64
20, 59624, Note_on_c, 9, 70, 0
20, 59651, Control_c, 9, 7, 63
20, 59687, Control_c, 9, 7, 62
20, 59700, Note_on_c, 9, 69, 63
20, 59714, Note_on_c, 9, 69, 0
20, 59723, Control_c, 9, 7, 61
20, 59730, Note_on_c, 9, 69, 63
20, 59744, Note_on_c, 9, 69, 0
20, 59759, Control_c, 9, 7, 60
20, 59760, Note_on_c, 9, 69, 63
20, 59774, Note_on_c, 9, 69, 0
20, 59795, Control_c, 9, 7, 59
20, 59831, Control_c, 9, 7, 58
20, 59867, Control_c, 9, 7, 57
20, 59903, Control_c, 9, 7, 56
20, 59939, Control_c, 9, 7, 55
20, 59975, Control_c, 9, 7, 54
20, 60011, Control_c, 9, 7, 53
20, 60047, Control_c, 9, 7, 52
20, 60083, Control_c, 9, 7, 51
20, 60119, Control_c, 9, 7, 50
20, 60155, Control_c, 9, 7, 49
20, 60191, Control_c, 9, 7, 48
20, 60227, Control_c, 9, 7, 47
20, 60240, Note_on_c, 9, 70, 100
20, 60254, Note_on_c, 9, 70, 0
20, 60263, Control_c, 9, 7, 46
20, 60299, Control_c, 9, 7, 45
20, 60335, Control_c, 9, 7, 44
20, 60371, Control_c, 9, 7, 43
20, 60407, Control_c, 9, 7, 42
20, 60443, Control_c, 9, 7, 41
20, 60479, Control_c, 9, 7, 40
20, 60480, Note_on_c, 9, 70, 100
20, 60494, Note_on_c, 9, 70, 0
20, 60515, Control_c, 9, 7, 39
20, 60540, Note_on_c, 9, 70, 100
20, 60551, Control_c, 9, 7, 38
20, 60554, Note_on_c, 9, 70, 0
20, 60570, Note_on_c, 9, 70, 100
20, 60584, Note_on_c, 9, 70, 0
20, 60587, Control_c, 9, 7, 37
20, 60600, Note_on_c, 9, 70, 100
20, 60614, Note_on_c, 9, 70, 0
20, 60623, Control_c, 9, 7, 36
20, 60659, Control_c, 9, 7, 35
20, 60660, Note_on_c, 9, 69, 63
20, 60674, Note_on_c, 9, 69, 0
20, 60690, Note_on_c, 9, 69, 63
20, 60695, Control_c, 9, 7, 34
20, 60704, Note_on_c, 9, 69, 0
20, 60720, Note_on_c, 9, 69, 63
20, 60731, Control_c, 9, 7, 33
20, 60734, Note_on_c, 9, 69, 0
20, 60767, Control_c, 9, 7, 32
20, 60803, Control_c, 9, 7, 31
20, 60839, Control_c, 9, 7, 30
20, 60875, Control_c, 9, 7, 29
20, 60911, Control_c, 9, 7, 28
20, 60947, Control_c, 9, 7, 27
20, 60983, Control_c, 9, 7, 26
20, 61019, Control_c, 9, 7, 25
20, 61055, Control_c, 9, 7, 24
20, 61091, Control_c, 9, 7, 23
20, 61127, Control_c, 9, 7, 22
20, 61163, Control_c, 9, 7, 21
20, 61199, Control_c, 9, 7, 20
20, 61200, Note_on_c, 9, 70, 100
20, 61214, Note_on_c, 9, 70, 0
20, 61235, Control_c, 9, 7, 19
20, 61271, Control_c, 9, 7, 18
20, 61307, Control_c, 9, 7, 17
20, 61343, Control_c, 9, 7, 16
20, 61379, Control_c, 9, 7, 15
20, 61415, Control_c, 9, 7, 14
20, 61451, Control_c, 9, 7, 13
20, 61487, Control_c, 9, 7, 12
20, 61523, Control_c, 9, 7, 11
20, 61559, Control_c, 9, 7, 10
20, 61595, Control_c, 9, 7, 9
20, 61631, Control_c, 9, 7, 8
20, 61667, Control_c, 9, 7, 7
20, 61703, Control_c, 9, 7, 6
20, 61739, Control_c, 9, 7, 5
20, 61775, Control_c, 9, 7, 4
20, 61811, Control_c, 9, 7, 3
20, 61847, Control_c, 9, 7, 2
20, 61883, Control_c, 9, 7, 1
20, 61919, Control_c, 9, 7, 0
20, 61919, End_track
21, 0, Start_track
21, 0, MIDI_port, 0
21, 0, Title_t, " "
21, 0, Control_c, 9, 7, 110
21, 0, Control_c, 9, 10, 63
21, 0, Note_on_c, 9, 42, 77
21, 14, Note_on_c, 9, 42, 0
21, 120, Note_on_c, 9, 42, 81
21, 134, Note_on_c, 9, 42, 0
21, 240, Note_on_c, 9, 42, 81
21, 254, Note_on_c, 9, 42, 0
21, 360, Note_on_c, 9, 42, 82
21, 374, Note_on_c, 9, 42, 0
21, 480, Note_on_c, 9, 42, 82
21, 494, Note_on_c, 9, 42, 0
21, 600, Note_on_c, 9, 42, 82
21, 614, Note_on_c, 9, 42, 0
21, 720, Note_on_c, 9, 42, 84
21, 734, Note_on_c, 9, 42, 0
21, 840, Note_on_c, 9, 42, 84
21, 854, Note_on_c, 9, 42, 0
21, 960, Note_on_c, 9, 42, 84
21, 974, Note_on_c, 9, 42, 0
21, 1080, Note_on_c, 9, 42, 84
21, 1094, Note_on_c, 9, 42, 0
21, 1200, Note_on_c, 9, 42, 84
21, 1214, Note_on_c, 9, 42, 0
21, 1320, Note_on_c, 9, 42, 84
21, 1334, Note_on_c, 9, 42, 0
21, 1440, Note_on_c, 9, 42, 84
21, 1454, Note_on_c, 9, 42, 0
21, 1560, Note_on_c, 9, 42, 84
21, 1574, Note_on_c, 9, 42, 0
21, 1680, Note_on_c, 9, 42, 84
21, 1694, Note_on_c, 9, 42, 0
21, 1800, Note_on_c, 9, 42, 84
21, 1814, Note_on_c, 9, 42, 0
21, 1920, Note_on_c, 9, 42, 84
21, 1934, Note_on_c, 9, 42, 0
21, 2040, Note_on_c, 9, 42, 84
21, 2054, Note_on_c, 9, 42, 0
21, 2160, Note_on_c, 9, 42, 84
21, 2174, Note_on_c, 9, 42, 0
21, 2280, Note_on_c, 9, 42, 84
21, 2294, Note_on_c, 9, 42, 0
21, 2400, Note_on_c, 9, 42, 84
21, 2414, Note_on_c, 9, 42, 0
21, 2520, Note_on_c, 9, 42, 84
21, 2534, Note_on_c, 9, 42, 0
21, 2640, Note_on_c, 9, 42, 84
21, 2654, Note_on_c, 9, 42, 0
21, 2760, Note_on_c, 9, 42, 84
21, 2774, Note_on_c, 9, 42, 0
21, 2880, Note_on_c, 9, 42, 84
21, 2894, Note_on_c, 9, 42, 0
21, 3000, Note_on_c, 9, 42, 84
21, 3014, Note_on_c, 9, 42, 0
21, 3120, Note_on_c, 9, 42, 84
21, 3134, Note_on_c, 9, 42, 0
21, 3240, Note_on_c, 9, 42, 84
21, 3254, Note_on_c, 9, 42, 0
21, 3360, Note_on_c, 9, 42, 84
21, 3374, Note_on_c, 9, 42, 0
21, 3480, Note_on_c, 9, 42, 84
21, 3494, Note_on_c, 9, 42, 0
21, 3600, Note_on_c, 9, 42, 84
21, 3614, Note_on_c, 9, 42, 0
21, 3720, Note_on_c, 9, 42, 84
21, 3734, Note_on_c, 9, 42, 0
21, 3840, Note_on_c, 9, 42, 84
21, 3854, Note_on_c, 9, 42, 0
21, 3960, Note_on_c, 9, 42, 84
21, 3974, Note_on_c, 9, 42, 0
21, 4080, Note_on_c, 9, 42, 84
21, 4094, Note_on_c, 9, 42, 0
21, 4200, Note_on_c, 9, 42, 84
21, 4214, Note_on_c, 9, 42, 0
21, 4320, Note_on_c, 9, 42, 84
21, 4334, Note_on_c, 9, 42, 0
21, 4440, Note_on_c, 9, 42, 84
21, 4454, Note_on_c, 9, 42, 0
21, 4560, Note_on_c, 9, 42, 84
21, 4574, Note_on_c, 9, 42, 0
21, 4680, Note_on_c, 9, 42, 84
21, 4694, Note_on_c, 9, 42, 0
21, 4800, Note_on_c, 9, 42, 84
21, 4814, Note_on_c, 9, 42, 0
21, 4920, Note_on_c, 9, 42, 84
21, 4934, Note_on_c, 9, 42, 0
21, 5040, Note_on_c, 9, 42, 84
21, 5054, Note_on_c, 9, 42, 0
21, 5160, Note_on_c, 9, 42, 84
21, 5174, Note_on_c, 9, 42, 0
21, 5280, Note_on_c, 9, 42, 84
21, 5294, Note_on_c, 9, 42, 0
21, 5400, Note_on_c, 9, 42, 84
21, 5414, Note_on_c, 9, 42, 0
21, 5520, Note_on_c, 9, 42, 84
21, 5534, Note_on_c, 9, 42, 0
21, 5640, Note_on_c, 9, 42, 84
21, 5654, Note_on_c, 9, 42, 0
21, 5760, Note_on_c, 9, 42, 85
21, 5774, Note_on_c, 9, 42, 0
21, 5880, Note_on_c, 9, 42, 85
21, 5894, Note_on_c, 9, 42, 0
21, 6000, Note_on_c, 9, 42, 85
21, 6014, Note_on_c, 9, 42, 0
21, 6120, Note_on_c, 9, 42, 85
21, 6134, Note_on_c, 9, 42, 0
21, 6240, Note_on_c, 9, 42, 85
21, 6254, Note_on_c, 9, 42, 0
21, 6360, Note_on_c, 9, 42, 85
21, 6374, Note_on_c, 9, 42, 0
21, 6480, Note_on_c, 9, 42, 85
21, 6494, Note_on_c, 9, 42, 0
21, 6600, Note_on_c, 9, 42, 85
21, 6614, Note_on_c, 9, 42, 0
21, 6720, Note_on_c, 9, 42, 85
21, 6734, Note_on_c, 9, 42, 0
21, 6840, Note_on_c, 9, 42, 81
21, 6854, Note_on_c, 9, 42, 0
21, 6960, Note_on_c, 9, 42, 81
21, 6974, Note_on_c, 9, 42, 0
21, 7080, Note_on_c, 9, 42, 81
21, 7094, Note_on_c, 9, 42, 0
21, 7200, Note_on_c, 9, 42, 81
21, 7214, Note_on_c, 9, 42, 0
21, 7320, Note_on_c, 9, 42, 81
21, 7334, Note_on_c, 9, 42, 0
21, 7440, Note_on_c, 9, 42, 81
21, 7454, Note_on_c, 9, 42, 0
21, 7560, Note_on_c, 9, 42, 81
21, 7574, Note_on_c, 9, 42, 0
21, 7680, Note_on_c, 9, 42, 81
21, 7694, Note_on_c, 9, 42, 0
21, 7800, Note_on_c, 9, 42, 81
21, 7814, Note_on_c, 9, 42, 0
21, 7920, Note_on_c, 9, 42, 81
21, 7934, Note_on_c, 9, 42, 0
21, 8040, Note_on_c, 9, 42, 81
21, 8054, Note_on_c, 9, 42, 0
21, 8160, Note_on_c, 9, 42, 81
21, 8174, Note_on_c, 9, 42, 0
21, 8280, Note_on_c, 9, 42, 81
21, 8294, Note_on_c, 9, 42, 0
21, 8400, Note_on_c, 9, 42, 81
21, 8414, Note_on_c, 9, 42, 0
21, 8520, Note_on_c, 9, 42, 81
21, 8534, Note_on_c, 9, 42, 0
21, 8640, Note_on_c, 9, 42, 81
21, 8654, Note_on_c, 9, 42, 0
21, 8760, Note_on_c, 9, 42, 81
21, 8774, Note_on_c, 9, 42, 0
21, 8880, Note_on_c, 9, 42, 81
21, 8894, Note_on_c, 9, 42, 0
21, 9000, Note_on_c, 9, 42, 81
21, 9014, Note_on_c, 9, 42, 0
21, 9120, Note_on_c, 9, 42, 81
21, 9134, Note_on_c, 9, 42, 0
21, 9240, Note_on_c, 9, 42, 81
21, 9254, Note_on_c, 9, 42, 0
21, 9360, Note_on_c, 9, 42, 81
21, 9374, Note_on_c, 9, 42, 0
21, 9480, Note_on_c, 9, 42, 81
21, 9494, Note_on_c, 9, 42, 0
21, 9600, Note_on_c, 9, 42, 81
21, 9614, Note_on_c, 9, 42, 0
21, 9720, Note_on_c, 9, 42, 81
21, 9734, Note_on_c, 9, 42, 0
21, 9840, Note_on_c, 9, 42, 81
21, 9854, Note_on_c, 9, 42, 0
21, 9960, Note_on_c, 9, 42, 81
21, 9974, Note_on_c, 9, 42, 0
21, 10080, Note_on_c, 9, 42, 81
21, 10094, Note_on_c, 9, 42, 0
21, 10200, Note_on_c, 9, 42, 81
21, 10214, Note_on_c, 9, 42, 0
21, 10320, Note_on_c, 9, 42, 81
21, 10334, Note_on_c, 9, 42, 0
21, 10440, Note_on_c, 9, 42, 81
21, 10454, Note_on_c, 9, 42, 0
21, 10560, Note_on_c, 9, 42, 81
21, 10574, Note_on_c, 9, 42, 0
21, 10680, Note_on_c, 9, 42, 81
21, 10694, Note_on_c, 9, 42, 0
21, 10800, Note_on_c, 9, 42, 81
21, 10814, Note_on_c, 9, 42, 0
21, 10920, Note_on_c, 9, 42, 81
21, 10934, Note_on_c, 9, 42, 0
21, 11040, Note_on_c, 9, 42, 81
21, 11054, Note_on_c, 9, 42, 0
21, 11160, Note_on_c, 9, 42, 81
21, 11174, Note_on_c, 9, 42, 0
21, 11280, Note_on_c, 9, 42, 81
21, 11294, Note_on_c, 9, 42, 0
21, 11400, Note_on_c, 9, 42, 81
21, 11414, Note_on_c, 9, 42, 0
21, 11520, Note_on_c, 9, 42, 84
21, 11534, Note_on_c, 9, 42, 0
21, 11640, Note_on_c, 9, 42, 84
21, 11654, Note_on_c, 9, 42, 0
21, 11760, Note_on_c, 9, 42, 84
21, 11774, Note_on_c, 9, 42, 0
21, 11880, Note_on_c, 9, 42, 84
21, 11894, Note_on_c, 9, 42, 0
21, 12000, Note_on_c, 9, 42, 84
21, 12014, Note_on_c, 9, 42, 0
21, 12120, Note_on_c, 9, 42, 84
21, 12134, Note_on_c, 9, 42, 0
21, 12240, Note_on_c, 9, 42, 84
21, 12254, Note_on_c, 9, 42, 0
21, 12360, Note_on_c, 9, 42, 84
21, 12374, Note_on_c, 9, 42, 0
21, 12480, Note_on_c, 9, 42, 84
21, 12494, Note_on_c, 9, 42, 0
21, 12600, Note_on_c, 9, 42, 84
21, 12614, Note_on_c, 9, 42, 0
21, 12720, Note_on_c, 9, 42, 84
21, 12734, Note_on_c, 9, 42, 0
21, 12840, Note_on_c, 9, 42, 84
21, 12854, Note_on_c, 9, 42, 0
21, 12960, Note_on_c, 9, 42, 84
21, 12974, Note_on_c, 9, 42, 0
21, 13080, Note_on_c, 9, 42, 84
21, 13094, Note_on_c, 9, 42, 0
21, 13200, Note_on_c, 9, 42, 84
21, 13214, Note_on_c, 9, 42, 0
21, 13320, Note_on_c, 9, 42, 84
21, 13334, Note_on_c, 9, 42, 0
21, 13440, Note_on_c, 9, 42, 85
21, 13454, Note_on_c, 9, 42, 0
21, 13560, Note_on_c, 9, 42, 85
21, 13574, Note_on_c, 9, 42, 0
21, 13680, Note_on_c, 9, 42, 85
21, 13694, Note_on_c, 9, 42, 0
21, 13800, Note_on_c, 9, 42, 85
21, 13814, Note_on_c, 9, 42, 0
21, 13920, Note_on_c, 9, 42, 85
21, 13934, Note_on_c, 9, 42, 0
21, 14040, Note_on_c, 9, 42, 85
21, 14054, Note_on_c, 9, 42, 0
21, 14160, Note_on_c, 9, 42, 85
21, 14174, Note_on_c, 9, 42, 0
21, 14280, Note_on_c, 9, 42, 85
21, 14294, Note_on_c, 9, 42, 0
21, 14400, Note_on_c, 9, 42, 85
21, 14414, Note_on_c, 9, 42, 0
21, 14520, Note_on_c, 9, 42, 81
21, 14534, Note_on_c, 9, 42, 0
21, 14640, Note_on_c, 9, 42, 81
21, 14654, Note_on_c, 9, 42, 0
21, 14760, Note_on_c, 9, 42, 81
21, 14774, Note_on_c, 9, 42, 0
21, 14880, Note_on_c, 9, 42, 81
21, 14894, Note_on_c, 9, 42, 0
21, 15000, Note_on_c, 9, 42, 81
21, 15014, Note_on_c, 9, 42, 0
21, 15120, Note_on_c, 9, 42, 81
21, 15134, Note_on_c, 9, 42, 0
21, 15240, Note_on_c, 9, 42, 81
21, 15254, Note_on_c, 9, 42, 0
21, 15360, Note_on_c, 9, 42, 84
21, 15374, Note_on_c, 9, 42, 0
21, 15480, Note_on_c, 9, 42, 84
21, 15494, Note_on_c, 9, 42, 0
21, 15600, Note_on_c, 9, 42, 84
21, 15614, Note_on_c, 9, 42, 0
21, 15720, Note_on_c, 9, 42, 84
21, 15734, Note_on_c, 9, 42, 0
21, 15840, Note_on_c, 9, 42, 84
21, 15854, Note_on_c, 9, 42, 0
21, 15960, Note_on_c, 9, 42, 84
21, 15974, Note_on_c, 9, 42, 0
21, 16080, Note_on_c, 9, 42, 84
21, 16094, Note_on_c, 9, 42, 0
21, 16200, Note_on_c, 9, 42, 84
21, 16214, Note_on_c, 9, 42, 0
21, 16320, Note_on_c, 9, 42, 84
21, 16334, Note_on_c, 9, 42, 0
21, 16440, Note_on_c, 9, 42, 84
21, 16454, Note_on_c, 9, 42, 0
21, 16560, Note_on_c, 9, 42, 84
21, 16574, Note_on_c, 9, 42, 0
21, 16680, Note_on_c, 9, 42, 84
21, 16694, Note_on_c, 9, 42, 0
21, 16800, Note_on_c, 9, 42, 84
21, 16814, Note_on_c, 9, 42, 0
21, 16920, Note_on_c, 9, 42, 84
21, 16934, Note_on_c, 9, 42, 0
21, 17040, Note_on_c, 9, 42, 84
21, 17054, Note_on_c, 9, 42, 0
21, 17160, Note_on_c, 9, 42, 84
21, 17174, Note_on_c, 9, 42, 0
21, 17280, Note_on_c, 9, 42, 84
21, 17294, Note_on_c, 9, 42, 0
21, 17400, Note_on_c, 9, 42, 84
21, 17414, Note_on_c, 9, 42, 0
21, 17520, Note_on_c, 9, 42, 84
21, 17534, Note_on_c, 9, 42, 0
21, 17640, Note_on_c, 9, 42, 84
21, 17654, Note_on_c, 9, 42, 0
21, 17760, Note_on_c, 9, 42, 84
21, 17774, Note_on_c, 9, 42, 0
21, 17880, Note_on_c, 9, 42, 84
21, 17894, Note_on_c, 9, 42, 0
21, 18000, Note_on_c, 9, 42, 84
21, 18014, Note_on_c, 9, 42, 0
21, 18120, Note_on_c, 9, 42, 84
21, 18134, Note_on_c, 9, 42, 0
21, 18240, Note_on_c, 9, 42, 84
21, 18254, Note_on_c, 9, 42, 0
21, 18360, Note_on_c, 9, 42, 84
21, 18374, Note_on_c, 9, 42, 0
21, 18480, Note_on_c, 9, 42, 84
21, 18494, Note_on_c, 9, 42, 0
21, 18600, Note_on_c, 9, 42, 84
21, 18614, Note_on_c, 9, 42, 0
21, 18720, Note_on_c, 9, 42, 84
21, 18734, Note_on_c, 9, 42, 0
21, 18840, Note_on_c, 9, 42, 84
21, 18854, Note_on_c, 9, 42, 0
21, 18960, Note_on_c, 9, 42, 84
21, 18974, Note_on_c, 9, 42, 0
21, 19080, Note_on_c, 9, 42, 84
21, 19094, Note_on_c, 9, 42, 0
21, 19200, Note_on_c, 9, 42, 84
21, 19214, Note_on_c, 9, 42, 0
21, 19320, Note_on_c, 9, 42, 84
21, 19334, Note_on_c, 9, 42, 0
21, 19440, Note_on_c, 9, 42, 84
21, 19454, Note_on_c, 9, 42, 0
21, 19560, Note_on_c, 9, 42, 84
21, 19574, Note_on_c, 9, 42, 0
21, 19680, Note_on_c, 9, 42, 84
21, 19694, Note_on_c, 9, 42, 0
21, 19800, Note_on_c, 9, 42, 84
21, 19814, Note_on_c, 9, 42, 0
21, 19920, Note_on_c, 9, 42, 84
21, 19934, Note_on_c, 9, 42, 0
21, 20040, Note_on_c, 9, 42, 84
21, 20054, Note_on_c, 9, 42, 0
21, 20160, Note_on_c, 9, 42, 84
21, 20174, Note_on_c, 9, 42, 0
21, 20280, Note_on_c, 9, 42, 84
21, 20294, Note_on_c, 9, 42, 0
21, 20400, Note_on_c, 9, 42, 84
21, 20414, Note_on_c, 9, 42, 0
21, 20520, Note_on_c, 9, 42, 84
21, 20534, Note_on_c, 9, 42, 0
21, 20640, Note_on_c, 9, 42, 84
21, 20654, Note_on_c, 9, 42, 0
21, 20760, Note_on_c, 9, 42, 84
21, 20774, Note_on_c, 9, 42, 0
21, 20880, Note_on_c, 9, 42, 84
21, 20894, Note_on_c, 9, 42, 0
21, 21000, Note_on_c, 9, 42, 84
21, 21014, Note_on_c, 9, 42, 0
21, 21120, Note_on_c, 9, 42, 84
21, 21134, Note_on_c, 9, 42, 0
21, 21240, Note_on_c, 9, 42, 84
21, 21254, Note_on_c, 9, 42, 0
21, 21360, Note_on_c, 9, 42, 84
21, 21374, Note_on_c, 9, 42, 0
21, 21480, Note_on_c, 9, 42, 84
21, 21494, Note_on_c, 9, 42, 0
21, 21600, Note_on_c, 9, 42, 84
21, 21614, Note_on_c, 9, 42, 0
21, 21720, Note_on_c, 9, 42, 84
21, 21734, Note_on_c, 9, 42, 0
21, 21840, Note_on_c, 9, 42, 84
21, 21854, Note_on_c, 9, 42, 0
21, 21960, Note_on_c, 9, 42, 84
21, 21974, Note_on_c, 9, 42, 0
21, 22080, Note_on_c, 9, 42, 84
21, 22094, Note_on_c, 9, 42, 0
21, 22200, Note_on_c, 9, 42, 84
21, 22214, Note_on_c, 9, 42, 0
21, 22320, Note_on_c, 9, 42, 84
21, 22334, Note_on_c, 9, 42, 0
21, 22440, Note_on_c, 9, 42, 84
21, 22454, Note_on_c, 9, 42, 0
21, 22560, Note_on_c, 9, 42, 84
21, 22574, Note_on_c, 9, 42, 0
21, 22680, Note_on_c, 9, 42, 84
21, 22694, Note_on_c, 9, 42, 0
21, 22800, Note_on_c, 9, 42, 84
21, 22814, Note_on_c, 9, 42, 0
21, 22920, Note_on_c, 9, 42, 84
21, 22934, Note_on_c, 9, 42, 0
21, 23040, Note_on_c, 9, 42, 84
21, 23054, Note_on_c, 9, 42, 0
21, 23160, Note_on_c, 9, 42, 84
21, 23174, Note_on_c, 9, 42, 0
21, 23280, Note_on_c, 9, 42, 84
21, 23294, Note_on_c, 9, 42, 0
21, 23400, Note_on_c, 9, 42, 84
21, 23414, Note_on_c, 9, 42, 0
21, 23520, Note_on_c, 9, 42, 84
21, 23534, Note_on_c, 9, 42, 0
21, 23640, Note_on_c, 9, 42, 84
21, 23654, Note_on_c, 9, 42, 0
21, 23760, Note_on_c, 9, 42, 84
21, 23774, Note_on_c, 9, 42, 0
21, 23880, Note_on_c, 9, 42, 84
21, 23894, Note_on_c, 9, 42, 0
21, 24000, Note_on_c, 9, 42, 84
21, 24014, Note_on_c, 9, 42, 0
21, 24120, Note_on_c, 9, 42, 84
21, 24134, Note_on_c, 9, 42, 0
21, 24240, Note_on_c, 9, 42, 84
21, 24254, Note_on_c, 9, 42, 0
21, 24360, Note_on_c, 9, 42, 84
21, 24374, Note_on_c, 9, 42, 0
21, 24480, Note_on_c, 9, 42, 84
21, 24494, Note_on_c, 9, 42, 0
21, 24600, Note_on_c, 9, 42, 84
21, 24614, Note_on_c, 9, 42, 0
21, 24720, Note_on_c, 9, 42, 84
21, 24734, Note_on_c, 9, 42, 0
21, 24840, Note_on_c, 9, 42, 84
21, 24854, Note_on_c, 9, 42, 0
21, 24960, Note_on_c, 9, 42, 85
21, 24974, Note_on_c, 9, 42, 0
21, 25080, Note_on_c, 9, 42, 85
21, 25094, Note_on_c, 9, 42, 0
21, 25200, Note_on_c, 9, 42, 85
21, 25214, Note_on_c, 9, 42, 0
21, 25320, Note_on_c, 9, 42, 85
21, 25334, Note_on_c, 9, 42, 0
21, 25440, Note_on_c, 9, 42, 85
21, 25454, Note_on_c, 9, 42, 0
21, 25560, Note_on_c, 9, 42, 85
21, 25574, Note_on_c, 9, 42, 0
21, 25680, Note_on_c, 9, 42, 85
21, 25694, Note_on_c, 9, 42, 0
21, 25800, Note_on_c, 9, 42, 85
21, 25814, Note_on_c, 9, 42, 0
21, 25920, Note_on_c, 9, 42, 85
21, 25934, Note_on_c, 9, 42, 0
21, 26040, Note_on_c, 9, 42, 81
21, 26054, Note_on_c, 9, 42, 0
21, 26160, Note_on_c, 9, 42, 81
21, 26174, Note_on_c, 9, 42, 0
21, 26280, Note_on_c, 9, 42, 81
21, 26294, Note_on_c, 9, 42, 0
21, 26400, Note_on_c, 9, 42, 81
21, 26414, Note_on_c, 9, 42, 0
21, 26520, Note_on_c, 9, 42, 81
21, 26534, Note_on_c, 9, 42, 0
21, 26640, Note_on_c, 9, 42, 81
21, 26654, Note_on_c, 9, 42, 0
21, 26760, Note_on_c, 9, 42, 81
21, 26774, Note_on_c, 9, 42, 0
21, 26880, Note_on_c, 9, 42, 81
21, 26894, Note_on_c, 9, 42, 0
21, 27000, Note_on_c, 9, 42, 81
21, 27014, Note_on_c, 9, 42, 0
21, 27120, Note_on_c, 9, 42, 81
21, 27134, Note_on_c, 9, 42, 0
21, 27240, Note_on_c, 9, 42, 81
21, 27254, Note_on_c, 9, 42, 0
21, 27360, Note_on_c, 9, 42, 81
21, 27374, Note_on_c, 9, 42, 0
21, 27480, Note_on_c, 9, 42, 81
21, 27494, Note_on_c, 9, 42, 0
21, 27600, Note_on_c, 9, 42, 81
21, 27614, Note_on_c, 9, 42, 0
21, 27720, Note_on_c, 9, 42, 81
21, 27734, Note_on_c, 9, 42, 0
21, 27840, Note_on_c, 9, 42, 81
21, 27854, Note_on_c, 9, 42, 0
21, 27960, Note_on_c, 9, 42, 81
21, 27974, Note_on_c, 9, 42, 0
21, 28080, Note_on_c, 9, 42, 81
21, 28094, Note_on_c, 9, 42, 0
21, 28200, Note_on_c, 9, 42, 81
21, 28214, Note_on_c, 9, 42, 0
21, 28320, Note_on_c, 9, 42, 81
21, 28334, Note_on_c, 9, 42, 0
21, 28440, Note_on_c, 9, 42, 81
21, 28454, Note_on_c, 9, 42, 0
21, 28560, Note_on_c, 9, 42, 81
21, 28574, Note_on_c, 9, 42, 0
21, 28680, Note_on_c, 9, 42, 81
21, 28694, Note_on_c, 9, 42, 0
21, 28800, Note_on_c, 9, 42, 81
21, 28814, Note_on_c, 9, 42, 0
21, 28920, Note_on_c, 9, 42, 81
21, 28934, Note_on_c, 9, 42, 0
21, 29040, Note_on_c, 9, 42, 81
21, 29054, Note_on_c, 9, 42, 0
21, 29160, Note_on_c, 9, 42, 81
21, 29174, Note_on_c, 9, 42, 0
21, 29280, Note_on_c, 9, 42, 81
21, 29294, Note_on_c, 9, 42, 0
21, 29400, Note_on_c, 9, 42, 81
21, 29414, Note_on_c, 9, 42, 0
21, 29520, Note_on_c, 9, 42, 81
21, 29534, Note_on_c, 9, 42, 0
21, 29640, Note_on_c, 9, 42, 81
21, 29654, Note_on_c, 9, 42, 0
21, 29760, Note_on_c, 9, 42, 81
21, 29774, Note_on_c, 9, 42, 0
21, 29880, Note_on_c, 9, 42, 81
21, 29894, Note_on_c, 9, 42, 0
21, 30000, Note_on_c, 9, 42, 81
21, 30014, Note_on_c, 9, 42, 0
21, 30120, Note_on_c, 9, 42, 81
21, 30134, Note_on_c, 9, 42, 0
21, 30240, Note_on_c, 9, 42, 81
21, 30254, Note_on_c, 9, 42, 0
21, 30360, Note_on_c, 9, 42, 81
21, 30374, Note_on_c, 9, 42, 0
21, 30480, Note_on_c, 9, 42, 81
21, 30494, Note_on_c, 9, 42, 0
21, 30600, Note_on_c, 9, 42, 81
21, 30614, Note_on_c, 9, 42, 0
21, 30720, Note_on_c, 9, 42, 77
21, 30734, Note_on_c, 9, 42, 0
21, 30840, Note_on_c, 9, 42, 81
21, 30854, Note_on_c, 9, 42, 0
21, 30960, Note_on_c, 9, 42, 81
21, 30974, Note_on_c, 9, 42, 0
21, 31080, Note_on_c, 9, 42, 82
21, 31094, Note_on_c, 9, 42, 0
21, 31200, Note_on_c, 9, 42, 82
21, 31214, Note_on_c, 9, 42, 0
21, 31320, Note_on_c, 9, 42, 82
21, 31334, Note_on_c, 9, 42, 0
21, 31440, Note_on_c, 9, 42, 84
21, 31454, Note_on_c, 9, 42, 0
21, 31560, Note_on_c, 9, 42, 84
21, 31574, Note_on_c, 9, 42, 0
21, 31680, Note_on_c, 9, 42, 84
21, 31694, Note_on_c, 9, 42, 0
21, 31800, Note_on_c, 9, 42, 84
21, 31814, Note_on_c, 9, 42, 0
21, 31920, Note_on_c, 9, 42, 84
21, 31934, Note_on_c, 9, 42, 0
21, 32040, Note_on_c, 9, 42, 84
21, 32054, Note_on_c, 9, 42, 0
21, 32160, Note_on_c, 9, 42, 84
21, 32174, Note_on_c, 9, 42, 0
21, 32280, Note_on_c, 9, 42, 84
21, 32294, Note_on_c, 9, 42, 0
21, 32400, Note_on_c, 9, 42, 84
21, 32414, Note_on_c, 9, 42, 0
21, 32520, Note_on_c, 9, 42, 84
21, 32534, Note_on_c, 9, 42, 0
21, 32640, Note_on_c, 9, 42, 77
21, 32654, Note_on_c, 9, 42, 0
21, 32760, Note_on_c, 9, 42, 81
21, 32774, Note_on_c, 9, 42, 0
21, 32880, Note_on_c, 9, 42, 81
21, 32894, Note_on_c, 9, 42, 0
21, 33000, Note_on_c, 9, 42, 82
21, 33014, Note_on_c, 9, 42, 0
21, 33120, Note_on_c, 9, 42, 82
21, 33134, Note_on_c, 9, 42, 0
21, 33240, Note_on_c, 9, 42, 82
21, 33254, Note_on_c, 9, 42, 0
21, 33360, Note_on_c, 9, 42, 84
21, 33374, Note_on_c, 9, 42, 0
21, 33480, Note_on_c, 9, 42, 84
21, 33494, Note_on_c, 9, 42, 0
21, 33600, Note_on_c, 9, 42, 84
21, 33614, Note_on_c, 9, 42, 0
21, 33720, Note_on_c, 9, 42, 84
21, 33734, Note_on_c, 9, 42, 0
21, 33840, Note_on_c, 9, 42, 84
21, 33854, Note_on_c, 9, 42, 0
21, 33960, Note_on_c, 9, 42, 84
21, 33974, Note_on_c, 9, 42, 0
21, 34080, Note_on_c, 9, 42, 84
21, 34094, Note_on_c, 9, 42, 0
21, 34200, Note_on_c, 9, 42, 84
21, 34214, Note_on_c, 9, 42, 0
21, 34320, Note_on_c, 9, 42, 84
21, 34334, Note_on_c, 9, 42, 0
21, 34440, Note_on_c, 9, 42, 84
21, 34454, Note_on_c, 9, 42, 0
21, 34560, Note_on_c, 9, 42, 84
21, 34574, Note_on_c, 9, 42, 0
21, 34680, Note_on_c, 9, 42, 84
21, 34694, Note_on_c, 9, 42, 0
21, 34800, Note_on_c, 9, 42, 84
21, 34814, Note_on_c, 9, 42, 0
21, 34920, Note_on_c, 9, 42, 84
21, 34934, Note_on_c, 9, 42, 0
21, 35040, Note_on_c, 9, 42, 84
21, 35054, Note_on_c, 9, 42, 0
21, 35160, Note_on_c, 9, 42, 84
21, 35174, Note_on_c, 9, 42, 0
21, 35280, Note_on_c, 9, 42, 84
21, 35294, Note_on_c, 9, 42, 0
21, 35400, Note_on_c, 9, 42, 84
21, 35414, Note_on_c, 9, 42, 0
21, 35520, Note_on_c, 9, 42, 84
21, 35534, Note_on_c, 9, 42, 0
21, 35640, Note_on_c, 9, 42, 84
21, 35654, Note_on_c, 9, 42, 0
21, 35760, Note_on_c, 9, 42, 84
21, 35774, Note_on_c, 9, 42, 0
21, 35880, Note_on_c, 9, 42, 84
21, 35894, Note_on_c, 9, 42, 0
21, 36000, Note_on_c, 9, 42, 84
21, 36014, Note_on_c, 9, 42, 0
21, 36120, Note_on_c, 9, 42, 84
21, 36134, Note_on_c, 9, 42, 0
21, 36240, Note_on_c, 9, 42, 84
21, 36254, Note_on_c, 9, 42, 0
21, 36360, Note_on_c, 9, 42, 84
21, 36374, Note_on_c, 9, 42, 0
21, 36480, Note_on_c, 9, 42, 84
21, 36494, Note_on_c, 9, 42, 0
21, 36600, Note_on_c, 9, 42, 84
21, 36614, Note_on_c, 9, 42, 0
21, 36720, Note_on_c, 9, 42, 84
21, 36734, Note_on_c, 9, 42, 0
21, 36840, Note_on_c, 9, 42, 84
21, 36854, Note_on_c, 9, 42, 0
21, 36960, Note_on_c, 9, 42, 84
21, 36974, Note_on_c, 9, 42, 0
21, 37080, Note_on_c, 9, 42, 84
21, 37094, Note_on_c, 9, 42, 0
21, 37200, Note_on_c, 9, 42, 84
21, 37214, Note_on_c, 9, 42, 0
21, 37320, Note_on_c, 9, 42, 84
21, 37334, Note_on_c, 9, 42, 0
21, 37440, Note_on_c, 9, 42, 84
21, 37454, Note_on_c, 9, 42, 0
21, 37560, Note_on_c, 9, 42, 84
21, 37574, Note_on_c, 9, 42, 0
21, 37680, Note_on_c, 9, 42, 84
21, 37694, Note_on_c, 9, 42, 0
21, 37800, Note_on_c, 9, 42, 84
21, 37814, Note_on_c, 9, 42, 0
21, 37920, Note_on_c, 9, 42, 84
21, 37934, Note_on_c, 9, 42, 0
21, 38040, Note_on_c, 9, 42, 84
21, 38054, Note_on_c, 9, 42, 0
21, 38160, Note_on_c, 9, 42, 84
21, 38174, Note_on_c, 9, 42, 0
21, 38280, Note_on_c, 9, 42, 84
21, 38294, Note_on_c, 9, 42, 0
21, 38400, Note_on_c, 9, 42, 84
21, 38414, Note_on_c, 9, 42, 0
21, 38520, Note_on_c, 9, 42, 84
21, 38534, Note_on_c, 9, 42, 0
21, 38640, Note_on_c, 9, 42, 84
21, 38654, Note_on_c, 9, 42, 0
21, 38760, Note_on_c, 9, 42, 84
21, 38774, Note_on_c, 9, 42, 0
21, 38880, Note_on_c, 9, 42, 84
21, 38894, Note_on_c, 9, 42, 0
21, 39000, Note_on_c, 9, 42, 84
21, 39014, Note_on_c, 9, 42, 0
21, 39120, Note_on_c, 9, 42, 84
21, 39134, Note_on_c, 9, 42, 0
21, 39240, Note_on_c, 9, 42, 84
21, 39254, Note_on_c, 9, 42, 0
21, 39360, Note_on_c, 9, 42, 84
21, 39374, Note_on_c, 9, 42, 0
21, 39480, Note_on_c, 9, 42, 84
21, 39494, Note_on_c, 9, 42, 0
21, 39600, Note_on_c, 9, 42, 84
21, 39614, Note_on_c, 9, 42, 0
21, 39720, Note_on_c, 9, 42, 84
21, 39734, Note_on_c, 9, 42, 0
21, 39840, Note_on_c, 9, 42, 84
21, 39854, Note_on_c, 9, 42, 0
21, 39960, Note_on_c, 9, 42, 84
21, 39974, Note_on_c, 9, 42, 0
21, 40080, Note_on_c, 9, 42, 84
21, 40094, Note_on_c, 9, 42, 0
21, 40200, Note_on_c, 9, 42, 84
21, 40214, Note_on_c, 9, 42, 0
21, 40320, Note_on_c, 9, 42, 84
21, 40334, Note_on_c, 9, 42, 0
21, 40440, Note_on_c, 9, 42, 84
21, 40454, Note_on_c, 9, 42, 0
21, 40560, Note_on_c, 9, 42, 84
21, 40574, Note_on_c, 9, 42, 0
21, 40680, Note_on_c, 9, 42, 84
21, 40694, Note_on_c, 9, 42, 0
21, 40800, Note_on_c, 9, 42, 84
21, 40814, Note_on_c, 9, 42, 0
21, 40920, Note_on_c, 9, 42, 84
21, 40934, Note_on_c, 9, 42, 0
21, 41040, Note_on_c, 9, 42, 84
21, 41054, Note_on_c, 9, 42, 0
21, 41160, Note_on_c, 9, 42, 84
21, 41174, Note_on_c, 9, 42, 0
21, 41280, Note_on_c, 9, 42, 84
21, 41294, Note_on_c, 9, 42, 0
21, 41400, Note_on_c, 9, 42, 84
21, 41414, Note_on_c, 9, 42, 0
21, 41520, Note_on_c, 9, 42, 84
21, 41534, Note_on_c, 9, 42, 0
21, 41640, Note_on_c, 9, 42, 84
21, 41654, Note_on_c, 9, 42, 0
21, 41760, Note_on_c, 9, 42, 84
21, 41774, Note_on_c, 9, 42, 0
21, 41880, Note_on_c, 9, 42, 84
21, 41894, Note_on_c, 9, 42, 0
21, 42000, Note_on_c, 9, 42, 84
21, 42014, Note_on_c, 9, 42, 0
21, 42120, Note_on_c, 9, 42, 84
21, 42134, Note_on_c, 9, 42, 0
21, 42240, Note_on_c, 9, 42, 84
21, 42254, Note_on_c, 9, 42, 0
21, 42360, Note_on_c, 9, 42, 84
21, 42374, Note_on_c, 9, 42, 0
21, 42480, Note_on_c, 9, 42, 84
21, 42494, Note_on_c, 9, 42, 0
21, 42600, Note_on_c, 9, 42, 84
21, 42614, Note_on_c, 9, 42, 0
21, 42720, Note_on_c, 9, 42, 84
21, 42734, Note_on_c, 9, 42, 0
21, 42840, Note_on_c, 9, 42, 84
21, 42854, Note_on_c, 9, 42, 0
21, 42960, Note_on_c, 9, 42, 84
21, 42974, Note_on_c, 9, 42, 0
21, 43080, Note_on_c, 9, 42, 84
21, 43094, Note_on_c, 9, 42, 0
21, 43200, Note_on_c, 9, 42, 84
21, 43214, Note_on_c, 9, 42, 0
21, 43320, Note_on_c, 9, 42, 84
21, 43334, Note_on_c, 9, 42, 0
21, 43440, Note_on_c, 9, 42, 84
21, 43454, Note_on_c, 9, 42, 0
21, 43560, Note_on_c, 9, 42, 84
21, 43574, Note_on_c, 9, 42, 0
21, 43680, Note_on_c, 9, 42, 84
21, 43694, Note_on_c, 9, 42, 0
21, 43800, Note_on_c, 9, 42, 84
21, 43814, Note_on_c, 9, 42, 0
21, 43920, Note_on_c, 9, 42, 84
21, 43934, Note_on_c, 9, 42, 0
21, 44040, Note_on_c, 9, 42, 84
21, 44054, Note_on_c, 9, 42, 0
21, 44160, Note_on_c, 9, 42, 84
21, 44174, Note_on_c, 9, 42, 0
21, 44280, Note_on_c, 9, 42, 84
21, 44294, Note_on_c, 9, 42, 0
21, 44400, Note_on_c, 9, 42, 84
21, 44414, Note_on_c, 9, 42, 0
21, 44520, Note_on_c, 9, 42, 84
21, 44534, Note_on_c, 9, 42, 0
21, 44640, Note_on_c, 9, 42, 84
21, 44654, Note_on_c, 9, 42, 0
21, 44760, Note_on_c, 9, 42, 84
21, 44774, Note_on_c, 9, 42, 0
21, 44880, Note_on_c, 9, 42, 84
21, 44894, Note_on_c, 9, 42, 0
21, 45000, Note_on_c, 9, 42, 84
21, 45014, Note_on_c, 9, 42, 0
21, 45120, Note_on_c, 9, 42, 84
21, 45134, Note_on_c, 9, 42, 0
21, 45240, Note_on_c, 9, 42, 84
21, 45254, Note_on_c, 9, 42, 0
21, 45360, Note_on_c, 9, 42, 84
21, 45374, Note_on_c, 9, 42, 0
21, 45480, Note_on_c, 9, 42, 84
21, 45494, Note_on_c, 9, 42, 0
21, 45600, Note_on_c, 9, 42, 84
21, 45614, Note_on_c, 9, 42, 0
21, 45720, Note_on_c, 9, 42, 84
21, 45734, Note_on_c, 9, 42, 0
21, 45840, Note_on_c, 9, 42, 84
21, 45854, Note_on_c, 9, 42, 0
21, 45960, Note_on_c, 9, 42, 84
21, 45974, Note_on_c, 9, 42, 0
21, 46080, Note_on_c, 9, 42, 84
21, 46094, Note_on_c, 9, 42, 0
21, 46200, Note_on_c, 9, 42, 84
21, 46214, Note_on_c, 9, 42, 0
21, 46320, Note_on_c, 9, 42, 84
21, 46334, Note_on_c, 9, 42, 0
21, 46440, Note_on_c, 9, 42, 84
21, 46454, Note_on_c, 9, 42, 0
21, 46560, Note_on_c, 9, 42, 84
21, 46574, Note_on_c, 9, 42, 0
21, 46680, Note_on_c, 9, 42, 84
21, 46694, Note_on_c, 9, 42, 0
21, 46800, Note_on_c, 9, 42, 84
21, 46814, Note_on_c, 9, 42, 0
21, 46920, Note_on_c, 9, 42, 84
21, 46934, Note_on_c, 9, 42, 0
21, 47040, Note_on_c, 9, 42, 84
21, 47054, Note_on_c, 9, 42, 0
21, 47160, Note_on_c, 9, 42, 84
21, 47174, Note_on_c, 9, 42, 0
21, 47280, Note_on_c, 9, 42, 84
21, 47294, Note_on_c, 9, 42, 0
21, 47400, Note_on_c, 9, 42, 84
21, 47414, Note_on_c, 9, 42, 0
21, 47520, Note_on_c, 9, 42, 84
21, 47534, Note_on_c, 9, 42, 0
21, 47640, Note_on_c, 9, 42, 84
21, 47654, Note_on_c, 9, 42, 0
21, 47760, Note_on_c, 9, 42, 84
21, 47774, Note_on_c, 9, 42, 0
21, 47880, Note_on_c, 9, 42, 84
21, 47894, Note_on_c, 9, 42, 0
21, 48000, Note_on_c, 9, 42, 84
21, 48014, Note_on_c, 9, 42, 0
21, 48120, Note_on_c, 9, 42, 84
21, 48134, Note_on_c, 9, 42, 0
21, 48240, Note_on_c, 9, 42, 84
21, 48254, Note_on_c, 9, 42, 0
21, 48360, Note_on_c, 9, 42, 84
21, 48374, Note_on_c, 9, 42, 0
21, 48480, Note_on_c, 9, 42, 84
21, 48494, Note_on_c, 9, 42, 0
21, 48600, Note_on_c, 9, 42, 84
21, 48614, Note_on_c, 9, 42, 0
21, 48720, Note_on_c, 9, 42, 84
21, 48734, Note_on_c, 9, 42, 0
21, 48840, Note_on_c, 9, 42, 84
21, 48854, Note_on_c, 9, 42, 0
21, 48960, Note_on_c, 9, 42, 84
21, 48974, Note_on_c, 9, 42, 0
21, 49080, Note_on_c, 9, 42, 84
21, 49094, Note_on_c, 9, 42, 0
21, 49200, Note_on_c, 9, 42, 84
21, 49214, Note_on_c, 9, 42, 0
21, 49320, Note_on_c, 9, 42, 84
21, 49334, Note_on_c, 9, 42, 0
21, 49440, Note_on_c, 9, 42, 84
21, 49454, Note_on_c, 9, 42, 0
21, 49560, Note_on_c, 9, 42, 84
21, 49574, Note_on_c, 9, 42, 0
21, 49680, Note_on_c, 9, 42, 84
21, 49694, Note_on_c, 9, 42, 0
21, 49800, Note_on_c, 9, 42, 84
21, 49814, Note_on_c, 9, 42, 0
21, 49920, Note_on_c, 9, 42, 84
21, 49934, Note_on_c, 9, 42, 0
21, 50040, Note_on_c, 9, 42, 84
21, 50054, Note_on_c, 9, 42, 0
21, 50160, Note_on_c, 9, 42, 84
21, 50174, Note_on_c, 9, 42, 0
21, 50280, Note_on_c, 9, 42, 84
21, 50294, Note_on_c, 9, 42, 0
21, 50400, Note_on_c, 9, 42, 84
21, 50414, Note_on_c, 9, 42, 0
21, 50520, Note_on_c, 9, 42, 84
21, 50534, Note_on_c, 9, 42, 0
21, 50640, Note_on_c, 9, 42, 84
21, 50654, Note_on_c, 9, 42, 0
21, 50760, Note_on_c, 9, 42, 84
21, 50774, Note_on_c, 9, 42, 0
21, 50880, Note_on_c, 9, 42, 84
21, 50894, Note_on_c, 9, 42, 0
21, 51000, Note_on_c, 9, 42, 84
21, 51014, Note_on_c, 9, 42, 0
21, 51120, Note_on_c, 9, 42, 84
21, 51134, Note_on_c, 9, 42, 0
21, 51240, Note_on_c, 9, 42, 84
21, 51254, Note_on_c, 9, 42, 0
21, 51360, Note_on_c, 9, 42, 84
21, 51374, Note_on_c, 9, 42, 0
21, 51480, Note_on_c, 9, 42, 84
21, 51494, Note_on_c, 9, 42, 0
21, 51600, Note_on_c, 9, 42, 84
21, 51614, Note_on_c, 9, 42, 0
21, 51720, Note_on_c, 9, 42, 84
21, 51734, Note_on_c, 9, 42, 0
21, 51840, Note_on_c, 9, 42, 84
21, 51854, Note_on_c, 9, 42, 0
21, 51960, Note_on_c, 9, 42, 84
21, 51974, Note_on_c, 9, 42, 0
21, 52080, Note_on_c, 9, 42, 84
21, 52094, Note_on_c, 9, 42, 0
21, 52200, Note_on_c, 9, 42, 84
21, 52214, Note_on_c, 9, 42, 0
21, 52320, Note_on_c, 9, 42, 84
21, 52334, Note_on_c, 9, 42, 0
21, 52440, Note_on_c, 9, 42, 84
21, 52454, Note_on_c, 9, 42, 0
21, 52560, Note_on_c, 9, 42, 84
21, 52574, Note_on_c, 9, 42, 0
21, 52680, Note_on_c, 9, 42, 84
21, 52694, Note_on_c, 9, 42, 0
21, 52800, Note_on_c, 9, 42, 84
21, 52814, Note_on_c, 9, 42, 0
21, 52920, Note_on_c, 9, 42, 84
21, 52934, Note_on_c, 9, 42, 0
21, 53040, Note_on_c, 9, 42, 84
21, 53054, Note_on_c, 9, 42, 0
21, 53160, Note_on_c, 9, 42, 84
21, 53174, Note_on_c, 9, 42, 0
21, 53280, Note_on_c, 9, 42, 84
21, 53294, Note_on_c, 9, 42, 0
21, 53400, Note_on_c, 9, 42, 84
21, 53414, Note_on_c, 9, 42, 0
21, 53520, Note_on_c, 9, 42, 84
21, 53534, Note_on_c, 9, 42, 0
21, 53640, Note_on_c, 9, 42, 84
21, 53654, Note_on_c, 9, 42, 0
21, 53760, Note_on_c, 9, 42, 84
21, 53774, Note_on_c, 9, 42, 0
21, 53880, Note_on_c, 9, 42, 84
21, 53894, Note_on_c, 9, 42, 0
21, 54000, Note_on_c, 9, 42, 84
21, 54014, Note_on_c, 9, 42, 0
21, 54120, Note_on_c, 9, 42, 84
21, 54134, Note_on_c, 9, 42, 0
21, 54240, Note_on_c, 9, 42, 84
21, 54254, Note_on_c, 9, 42, 0
21, 54360, Note_on_c, 9, 42, 84
21, 54374, Note_on_c, 9, 42, 0
21, 54480, Note_on_c, 9, 42, 84
21, 54494, Note_on_c, 9, 42, 0
21, 54600, Note_on_c, 9, 42, 84
21, 54614, Note_on_c, 9, 42, 0
21, 54720, Note_on_c, 9, 42, 84
21, 54734, Note_on_c, 9, 42, 0
21, 54840, Note_on_c, 9, 42, 84
21, 54854, Note_on_c, 9, 42, 0
21, 54960, Note_on_c, 9, 42, 84
21, 54974, Note_on_c, 9, 42, 0
21, 55080, Note_on_c, 9, 42, 84
21, 55094, Note_on_c, 9, 42, 0
21, 55200, Note_on_c, 9, 42, 84
21, 55214, Note_on_c, 9, 42, 0
21, 55320, Note_on_c, 9, 42, 84
21, 55334, Note_on_c, 9, 42, 0
21, 55440, Note_on_c, 9, 42, 84
21, 55454, Note_on_c, 9, 42, 0
21, 55560, Note_on_c, 9, 42, 84
21, 55574, Note_on_c, 9, 42, 0
21, 55680, Note_on_c, 9, 42, 84
21, 55694, Note_on_c, 9, 42, 0
21, 55800, Note_on_c, 9, 42, 84
21, 55814, Note_on_c, 9, 42, 0
21, 55920, Note_on_c, 9, 42, 84
21, 55934, Note_on_c, 9, 42, 0
21, 56040, Note_on_c, 9, 42, 84
21, 56054, Note_on_c, 9, 42, 0
21, 56160, Note_on_c, 9, 42, 84
21, 56174, Note_on_c, 9, 42, 0
21, 56280, Note_on_c, 9, 42, 84
21, 56294, Note_on_c, 9, 42, 0
21, 56400, Note_on_c, 9, 42, 84
21, 56414, Note_on_c, 9, 42, 0
21, 56520, Note_on_c, 9, 42, 84
21, 56534, Note_on_c, 9, 42, 0
21, 56640, Note_on_c, 9, 42, 84
21, 56654, Note_on_c, 9, 42, 0
21, 56760, Note_on_c, 9, 42, 84
21, 56774, Note_on_c, 9, 42, 0
21, 56880, Note_on_c, 9, 42, 84
21, 56894, Note_on_c, 9, 42, 0
21, 57000, Note_on_c, 9, 42, 84
21, 57014, Note_on_c, 9, 42, 0
21, 57120, Note_on_c, 9, 42, 84
21, 57134, Note_on_c, 9, 42, 0
21, 57240, Note_on_c, 9, 42, 84
21, 57254, Note_on_c, 9, 42, 0
21, 57360, Note_on_c, 9, 42, 84
21, 57374, Note_on_c, 9, 42, 0
21, 57480, Note_on_c, 9, 42, 84
21, 57494, Note_on_c, 9, 42, 0
21, 57600, Note_on_c, 9, 42, 77
21, 57614, Note_on_c, 9, 42, 0
21, 57720, Note_on_c, 9, 42, 81
21, 57734, Note_on_c, 9, 42, 0
21, 57840, Note_on_c, 9, 42, 81
21, 57854, Note_on_c, 9, 42, 0
21, 57960, Note_on_c, 9, 42, 82
21, 57974, Note_on_c, 9, 42, 0
21, 58080, Note_on_c, 9, 42, 82
21, 58094, Note_on_c, 9, 42, 0
21, 58200, Note_on_c, 9, 42, 82
21, 58214, Note_on_c, 9, 42, 0
21, 58320, Note_on_c, 9, 42, 84
21, 58334, Note_on_c, 9, 42, 0
21, 58440, Note_on_c, 9, 42, 84
21, 58454, Note_on_c, 9, 42, 0
21, 58560, Note_on_c, 9, 42, 84
21, 58574, Note_on_c, 9, 42, 0
21, 58680, Note_on_c, 9, 42, 84
21, 58694, Note_on_c, 9, 42, 0
21, 58800, Note_on_c, 9, 42, 84
21, 58814, Note_on_c, 9, 42, 0
21, 58920, Note_on_c, 9, 42, 84
21, 58934, Note_on_c, 9, 42, 0
21, 59040, Control_c, 9, 7, 80
21, 59040, Note_on_c, 9, 42, 84
21, 59054, Note_on_c, 9, 42, 0
21, 59075, Control_c, 9, 7, 79
21, 59111, Control_c, 9, 7, 78
21, 59147, Control_c, 9, 7, 77
21, 59160, Note_on_c, 9, 42, 84
21, 59174, Note_on_c, 9, 42, 0
21, 59183, Control_c, 9, 7, 76
21, 59219, Control_c, 9, 7, 75
21, 59255, Control_c, 9, 7, 74
21, 59280, Note_on_c, 9, 42, 84
21, 59291, Control_c, 9, 7, 73
21, 59294, Note_on_c, 9, 42, 0
21, 59327, Control_c, 9, 7, 72
21, 59363, Control_c, 9, 7, 71
21, 59399, Control_c, 9, 7, 70
21, 59400, Note_on_c, 9, 42, 84
21, 59414, Note_on_c, 9, 42, 0
21, 59435, Control_c, 9, 7, 69
21, 59471, Control_c, 9, 7, 68
21, 59507, Control_c, 9, 7, 67
21, 59520, Note_on_c, 9, 42, 77
21, 59534, Note_on_c, 9, 42, 0
21, 59543, Control_c, 9, 7, 66
21, 59579, Control_c, 9, 7, 65
21, 59615, Control_c, 9, 7, 64
21, 59640, Note_on_c, 9, 42, 81
21, 59651, Control_c, 9, 7, 63
21, 59654, Note_on_c, 9, 42, 0
21, 59687, Control_c, 9, 7, 62
21, 59723, Control_c, 9, 7, 61
21, 59759, Control_c, 9, 7, 60
21, 59760, Note_on_c, 9, 42, 81
21, 59774, Note_on_c, 9, 42, 0
21, 59795, Control_c, 9, 7, 59
21, 59831, Control_c, 9, 7, 58
21, 59867, Control_c, 9, 7, 57
21, 59880, Note_on_c, 9, 42, 82
21, 59894, Note_on_c, 9, 42, 0
21, 59903, Control_c, 9, 7, 56
21, 59939, Control_c, 9, 7, 55
21, 59975, Control_c, 9, 7, 54
21, 60000, Note_on_c, 9, 42, 82
21, 60011, Control_c, 9, 7, 53
21, 60014, Note_on_c, 9, 42, 0
21, 60047, Control_c, 9, 7, 52
21, 60083, Control_c, 9, 7, 51
21, 60119, Control_c, 9, 7, 50
21, 60120, Note_on_c, 9, 42, 82
21, 60134, Note_on_c, 9, 42, 0
21, 60155, Control_c, 9, 7, 49
21, 60191, Control_c, 9, 7, 48
21, 60227, Control_c, 9, 7, 47
21, 60240, Note_on_c, 9, 42, 84
21, 60254, Note_on_c, 9, 42, 0
21, 60263, Control_c, 9, 7, 46
21, 60299, Control_c, 9, 7, 45
21, 60335, Control_c, 9, 7, 44
21, 60360, Note_on_c, 9, 42, 84
21, 60371, Control_c, 9, 7, 43
21, 60374, Note_on_c, 9, 42, 0
21, 60407, Control_c, 9, 7, 42
21, 60443, Control_c, 9, 7, 41
21, 60479, Control_c, 9, 7, 40
21, 60480, Note_on_c, 9, 42, 84
21, 60494, Note_on_c, 9, 42, 0
21, 60515, Control_c, 9, 7, 39
21, 60551, Control_c, 9, 7, 38
21, 60587, Control_c, 9, 7, 37
21, 60600, Note_on_c, 9, 42, 84
21, 60614, Note_on_c, 9, 42, 0
21, 60623, Control_c, 9, 7, 36
21, 60659, Control_c, 9, 7, 35
21, 60695, Control_c, 9, 7, 34
21, 60720, Note_on_c, 9, 42, 84
21, 60731, Control_c, 9, 7, 33
21, 60734, Note_on_c, 9, 42, 0
21, 60767, Control_c, 9, 7, 32
21, 60803, Control_c, 9, 7, 31
21, 60839, Control_c, 9, 7, 30
21, 60840, Note_on_c, 9, 42, 84
21, 60854, Note_on_c, 9, 42, 0
21, 60875, Control_c, 9, 7, 29
21, 60911, Control_c, 9, 7, 28
21, 60947, Control_c, 9, 7, 27
21, 60960, Note_on_c, 9, 42, 84
21, 60974, Note_on_c, 9, 42, 0
21, 60983, Control_c, 9, 7, 26
21, 61019, Control_c, 9, 7, 25
21, 61055, Control_c, 9, 7, 24
21, 61080, Note_on_c, 9, 42, 84
21, 61091, Control_c, 9, 7, 23
21, 61094, Note_on_c, 9, 42, 0
21, 61127, Control_c, 9, 7, 22
21, 61163, Control_c, 9, 7, 21
21, 61199, Control_c, 9, 7, 20
21, 61200, Note_on_c, 9, 42, 84
21, 61214, Note_on_c, 9, 42, 0
21, 61235, Control_c, 9, 7, 19
21, 61271, Control_c, 9, 7, 18
21, 61307, Control_c, 9, 7, 17
21, 61320, Note_on_c, 9, 42, 84
21, 61334, Note_on_c, 9, 42, 0
21, 61343, Control_c, 9, 7, 16
21, 61379, Control_c, 9, 7, 15
21, 61415, Control_c, 9, 7, 14
21, 61451, Control_c, 9, 7, 13
21, 61487, Control_c, 9, 7, 12
21, 61523, Control_c, 9, 7, 11
21, 61559, Control_c, 9, 7, 10
21, 61595, Control_c, 9, 7, 9
21, 61631, Control_c, 9, 7, 8
21, 61667, Control_c, 9, 7, 7
21, 61703, Control_c, 9, 7, 6
21, 61739, Control_c, 9, 7, 5
21, 61775, Control_c, 9, 7, 4
21, 61811, Control_c, 9, 7, 3
21, 61847, Control_c, 9, 7, 2
21, 61883, Control_c, 9, 7, 1
21, 61919, Control_c, 9, 7, 0
21, 61919, End_track
22, 0, Start_track
22, 0, MIDI_port, 0
22, 0, Title_t, " "
22, 0, Control_c, 9, 7, 110
22, 0, Control_c, 9, 10, 63
22, 60, Note_on_c, 9, 81, 62
22, 74, Note_on_c, 9, 81, 0
22, 300, Note_on_c, 9, 81, 57
22, 314, Note_on_c, 9, 81, 0
22, 480, Note_on_c, 9, 80, 59
22, 494, Note_on_c, 9, 80, 0
22, 510, Note_on_c, 9, 80, 59
22, 524, Note_on_c, 9, 80, 0
22, 540, Note_on_c, 9, 80, 59
22, 554, Note_on_c, 9, 80, 0
22, 600, Note_on_c, 9, 80, 59
22, 614, Note_on_c, 9, 80, 0
22, 720, Note_on_c, 9, 80, 59
22, 734, Note_on_c, 9, 80, 0
22, 840, Note_on_c, 9, 80, 60
22, 854, Note_on_c, 9, 80, 0
22, 1020, Note_on_c, 9, 81, 61
22, 1034, Note_on_c, 9, 81, 0
22, 1260, Note_on_c, 9, 81, 62
22, 1274, Note_on_c, 9, 81, 0
22, 1440, Note_on_c, 9, 80, 62
22, 1454, Note_on_c, 9, 80, 0
22, 1470, Note_on_c, 9, 80, 62
22, 1484, Note_on_c, 9, 80, 0
22, 1500, Note_on_c, 9, 80, 63
22, 1514, Note_on_c, 9, 80, 0
22, 1560, Note_on_c, 9, 80, 63
22, 1574, Note_on_c, 9, 80, 0
22, 1680, Note_on_c, 9, 80, 63
22, 1694, Note_on_c, 9, 80, 0
22, 1800, Note_on_c, 9, 80, 63
22, 1814, Note_on_c, 9, 80, 0
22, 1980, Note_on_c, 9, 81, 63
22, 1994, Note_on_c, 9, 81, 0
22, 2220, Note_on_c, 9, 81, 63
22, 2234, Note_on_c, 9, 81, 0
22, 2400, Note_on_c, 9, 80, 63
22, 2414, Note_on_c, 9, 80, 0
22, 2430, Note_on_c, 9, 80, 63
22, 2444, Note_on_c, 9, 80, 0
22, 2460, Note_on_c, 9, 80, 63
22, 2474, Note_on_c, 9, 80, 0
22, 2520, Note_on_c, 9, 80, 63
22, 2534, Note_on_c, 9, 80, 0
22, 2640, Note_on_c, 9, 80, 63
22, 2654, Note_on_c, 9, 80, 0
22, 2760, Note_on_c, 9, 80, 63
22, 2774, Note_on_c, 9, 80, 0
22, 2940, Note_on_c, 9, 81, 63
22, 2954, Note_on_c, 9, 81, 0
22, 3180, Note_on_c, 9, 81, 63
22, 3194, Note_on_c, 9, 81, 0
22, 3360, Note_on_c, 9, 80, 63
22, 3374, Note_on_c, 9, 80, 0
22, 3390, Note_on_c, 9, 80, 61
22, 3404, Note_on_c, 9, 80, 0
22, 3420, Note_on_c, 9, 80, 61
22, 3434, Note_on_c, 9, 80, 0
22, 3480, Note_on_c, 9, 80, 61
22, 3494, Note_on_c, 9, 80, 0
22, 3600, Note_on_c, 9, 80, 61
22, 3614, Note_on_c, 9, 80, 0
22, 3720, Note_on_c, 9, 80, 61
22, 3734, Note_on_c, 9, 80, 0
22, 3900, Note_on_c, 9, 81, 62
22, 3914, Note_on_c, 9, 81, 0
22, 4140, Note_on_c, 9, 81, 57
22, 4154, Note_on_c, 9, 81, 0
22, 4320, Note_on_c, 9, 80, 59
22, 4334, Note_on_c, 9, 80, 0
22, 4350, Note_on_c, 9, 80, 59
22, 4364, Note_on_c, 9, 80, 0
22, 4380, Note_on_c, 9, 80, 59
22, 4394, Note_on_c, 9, 80, 0
22, 4440, Note_on_c, 9, 80, 59
22, 4454, Note_on_c, 9, 80, 0
22, 4560, Note_on_c, 9, 80, 59
22, 4574, Note_on_c, 9, 80, 0
22, 4680, Note_on_c, 9, 80, 60
22, 4694, Note_on_c, 9, 80, 0
22, 4860, Note_on_c, 9, 81, 61
22, 4874, Note_on_c, 9, 81, 0
22, 5100, Note_on_c, 9, 81, 62
22, 5114, Note_on_c, 9, 81, 0
22, 5280, Note_on_c, 9, 80, 62
22, 5294, Note_on_c, 9, 80, 0
22, 5310, Note_on_c, 9, 80, 62
22, 5324, Note_on_c, 9, 80, 0
22, 5340, Note_on_c, 9, 80, 63
22, 5354, Note_on_c, 9, 80, 0
22, 5400, Note_on_c, 9, 80, 63
22, 5414, Note_on_c, 9, 80, 0
22, 5520, Note_on_c, 9, 80, 63
22, 5534, Note_on_c, 9, 80, 0
22, 5640, Note_on_c, 9, 80, 63
22, 5654, Note_on_c, 9, 80, 0
22, 5820, Note_on_c, 9, 81, 63
22, 5834, Note_on_c, 9, 81, 0
22, 6060, Note_on_c, 9, 81, 63
22, 6074, Note_on_c, 9, 81, 0
22, 6240, Note_on_c, 9, 80, 63
22, 6254, Note_on_c, 9, 80, 0
22, 6270, Note_on_c, 9, 80, 63
22, 6284, Note_on_c, 9, 80, 0
22, 6300, Note_on_c, 9, 80, 63
22, 6314, Note_on_c, 9, 80, 0
22, 6360, Note_on_c, 9, 80, 63
22, 6374, Note_on_c, 9, 80, 0
22, 6480, Note_on_c, 9, 80, 63
22, 6494, Note_on_c, 9, 80, 0
22, 6600, Note_on_c, 9, 80, 63
22, 6614, Note_on_c, 9, 80, 0
22, 6780, Note_on_c, 9, 81, 63
22, 6794, Note_on_c, 9, 81, 0
22, 7020, Note_on_c, 9, 81, 63
22, 7034, Note_on_c, 9, 81, 0
22, 7200, Note_on_c, 9, 80, 63
22, 7214, Note_on_c, 9, 80, 0
22, 7230, Note_on_c, 9, 80, 61
22, 7244, Note_on_c, 9, 80, 0
22, 7260, Note_on_c, 9, 80, 61
22, 7274, Note_on_c, 9, 80, 0
22, 7320, Note_on_c, 9, 80, 61
22, 7334, Note_on_c, 9, 80, 0
22, 7440, Note_on_c, 9, 80, 61
22, 7454, Note_on_c, 9, 80, 0
22, 7560, Note_on_c, 9, 80, 61
22, 7574, Note_on_c, 9, 80, 0
22, 7740, Note_on_c, 9, 81, 62
22, 7754, Note_on_c, 9, 81, 0
22, 7980, Note_on_c, 9, 81, 57
22, 7994, Note_on_c, 9, 81, 0
22, 8160, Note_on_c, 9, 80, 59
22, 8174, Note_on_c, 9, 80, 0
22, 8190, Note_on_c, 9, 80, 59
22, 8204, Note_on_c, 9, 80, 0
22, 8220, Note_on_c, 9, 80, 59
22, 8234, Note_on_c, 9, 80, 0
22, 8280, Note_on_c, 9, 80, 59
22, 8294, Note_on_c, 9, 80, 0
22, 8400, Note_on_c, 9, 80, 59
22, 8414, Note_on_c, 9, 80, 0
22, 8520, Note_on_c, 9, 80, 60
22, 8534, Note_on_c, 9, 80, 0
22, 8700, Note_on_c, 9, 81, 61
22, 8714, Note_on_c, 9, 81, 0
22, 8940, Note_on_c, 9, 81, 62
22, 8954, Note_on_c, 9, 81, 0
22, 9120, Note_on_c, 9, 80, 62
22, 9134, Note_on_c, 9, 80, 0
22, 9150, Note_on_c, 9, 80, 62
22, 9164, Note_on_c, 9, 80, 0
22, 9180, Note_on_c, 9, 80, 63
22, 9194, Note_on_c, 9, 80, 0
22, 9240, Note_on_c, 9, 80, 63
22, 9254, Note_on_c, 9, 80, 0
22, 9360, Note_on_c, 9, 80, 63
22, 9374, Note_on_c, 9, 80, 0
22, 9480, Note_on_c, 9, 80, 63
22, 9494, Note_on_c, 9, 80, 0
22, 9660, Note_on_c, 9, 81, 63
22, 9674, Note_on_c, 9, 81, 0
22, 9900, Note_on_c, 9, 81, 63
22, 9914, Note_on_c, 9, 81, 0
22, 10080, Note_on_c, 9, 80, 63
22, 10094, Note_on_c, 9, 80, 0
22, 10110, Note_on_c, 9, 80, 63
22, 10124, Note_on_c, 9, 80, 0
22, 10140, Note_on_c, 9, 80, 63
22, 10154, Note_on_c, 9, 80, 0
22, 10200, Note_on_c, 9, 80, 63
22, 10214, Note_on_c, 9, 80, 0
22, 10320, Note_on_c, 9, 80, 63
22, 10334, Note_on_c, 9, 80, 0
22, 10440, Note_on_c, 9, 80, 63
22, 10454, Note_on_c, 9, 80, 0
22, 10620, Note_on_c, 9, 81, 63
22, 10634, Note_on_c, 9, 81, 0
22, 10860, Note_on_c, 9, 81, 63
22, 10874, Note_on_c, 9, 81, 0
22, 11040, Note_on_c, 9, 80, 63
22, 11054, Note_on_c, 9, 80, 0
22, 11070, Note_on_c, 9, 80, 61
22, 11084, Note_on_c, 9, 80, 0
22, 11100, Note_on_c, 9, 80, 61
22, 11114, Note_on_c, 9, 80, 0
22, 11160, Note_on_c, 9, 80, 61
22, 11174, Note_on_c, 9, 80, 0
22, 11280, Note_on_c, 9, 80, 61
22, 11294, Note_on_c, 9, 80, 0
22, 11400, Note_on_c, 9, 80, 61
22, 11414, Note_on_c, 9, 80, 0
22, 11580, Note_on_c, 9, 81, 62
22, 11594, Note_on_c, 9, 81, 0
22, 11820, Note_on_c, 9, 81, 57
22, 11834, Note_on_c, 9, 81, 0
22, 12000, Note_on_c, 9, 80, 59
22, 12014, Note_on_c, 9, 80, 0
22, 12030, Note_on_c, 9, 80, 59
22, 12044, Note_on_c, 9, 80, 0
22, 12060, Note_on_c, 9, 80, 59
22, 12074, Note_on_c, 9, 80, 0
22, 12120, Note_on_c, 9, 80, 59
22, 12134, Note_on_c, 9, 80, 0
22, 12240, Note_on_c, 9, 80, 59
22, 12254, Note_on_c, 9, 80, 0
22, 12360, Note_on_c, 9, 80, 60
22, 12374, Note_on_c, 9, 80, 0
22, 12540, Note_on_c, 9, 81, 61
22, 12554, Note_on_c, 9, 81, 0
22, 12780, Note_on_c, 9, 81, 62
22, 12794, Note_on_c, 9, 81, 0
22, 12960, Note_on_c, 9, 80, 62
22, 12974, Note_on_c, 9, 80, 0
22, 12990, Note_on_c, 9, 80, 62
22, 13004, Note_on_c, 9, 80, 0
22, 13020, Note_on_c, 9, 80, 63
22, 13034, Note_on_c, 9, 80, 0
22, 13080, Note_on_c, 9, 80, 63
22, 13094, Note_on_c, 9, 80, 0
22, 13200, Note_on_c, 9, 80, 63
22, 13214, Note_on_c, 9, 80, 0
22, 13320, Note_on_c, 9, 80, 63
22, 13334, Note_on_c, 9, 80, 0
22, 13500, Note_on_c, 9, 81, 63
22, 13514, Note_on_c, 9, 81, 0
22, 13740, Note_on_c, 9, 81, 63
22, 13754, Note_on_c, 9, 81, 0
22, 13920, Note_on_c, 9, 80, 63
22, 13934, Note_on_c, 9, 80, 0
22, 13950, Note_on_c, 9, 80, 63
22, 13964, Note_on_c, 9, 80, 0
22, 13980, Note_on_c, 9, 80, 63
22, 13994, Note_on_c, 9, 80, 0
22, 14040, Note_on_c, 9, 80, 63
22, 14054, Note_on_c, 9, 80, 0
22, 14160, Note_on_c, 9, 80, 63
22, 14174, Note_on_c, 9, 80, 0
22, 14280, Note_on_c, 9, 80, 63
22, 14294, Note_on_c, 9, 80, 0
22, 14460, Note_on_c, 9, 81, 63
22, 14474, Note_on_c, 9, 81, 0
22, 14700, Note_on_c, 9, 81, 63
22, 14714, Note_on_c, 9, 81, 0
22, 14880, Note_on_c, 9, 80, 63
22, 14894, Note_on_c, 9, 80, 0
22, 14910, Note_on_c, 9, 80, 61
22, 14924, Note_on_c, 9, 80, 0
22, 14940, Note_on_c, 9, 80, 61
22, 14954, Note_on_c, 9, 80, 0
22, 15000, Note_on_c, 9, 80, 61
22, 15014, Note_on_c, 9, 80, 0
22, 15120, Note_on_c, 9, 80, 61
22, 15134, Note_on_c, 9, 80, 0
22, 15240, Note_on_c, 9, 80, 61
22, 15254, Note_on_c, 9, 80, 0
22, 15420, Note_on_c, 9, 81, 63
22, 15434, Note_on_c, 9, 81, 0
22, 15660, Note_on_c, 9, 81, 63
22, 15674, Note_on_c, 9, 81, 0
22, 15840, Note_on_c, 9, 80, 63
22, 15854, Note_on_c, 9, 80, 0
22, 15870, Note_on_c, 9, 80, 63
22, 15884, Note_on_c, 9, 80, 0
22, 15900, Note_on_c, 9, 80, 63
22, 15914, Note_on_c, 9, 80, 0
22, 15960, Note_on_c, 9, 80, 63
22, 15974, Note_on_c, 9, 80, 0
22, 16080, Note_on_c, 9, 80, 63
22, 16094, Note_on_c, 9, 80, 0
22, 16200, Note_on_c, 9, 80, 63
22, 16214, Note_on_c, 9, 80, 0
22, 16380, Note_on_c, 9, 81, 63
22, 16394, Note_on_c, 9, 81, 0
22, 16620, Note_on_c, 9, 81, 63
22, 16634, Note_on_c, 9, 81, 0
22, 16800, Note_on_c, 9, 80, 63
22, 16814, Note_on_c, 9, 80, 0
22, 16830, Note_on_c, 9, 80, 61
22, 16844, Note_on_c, 9, 80, 0
22, 16860, Note_on_c, 9, 80, 61
22, 16874, Note_on_c, 9, 80, 0
22, 16920, Note_on_c, 9, 80, 61
22, 16934, Note_on_c, 9, 80, 0
22, 17040, Note_on_c, 9, 80, 61
22, 17054, Note_on_c, 9, 80, 0
22, 17160, Note_on_c, 9, 80, 61
22, 17174, Note_on_c, 9, 80, 0
22, 17340, Note_on_c, 9, 81, 63
22, 17354, Note_on_c, 9, 81, 0
22, 17580, Note_on_c, 9, 81, 63
22, 17594, Note_on_c, 9, 81, 0
22, 17760, Note_on_c, 9, 80, 63
22, 17774, Note_on_c, 9, 80, 0
22, 17790, Note_on_c, 9, 80, 63
22, 17804, Note_on_c, 9, 80, 0
22, 17820, Note_on_c, 9, 80, 63
22, 17834, Note_on_c, 9, 80, 0
22, 17880, Note_on_c, 9, 80, 63
22, 17894, Note_on_c, 9, 80, 0
22, 18000, Note_on_c, 9, 80, 63
22, 18014, Note_on_c, 9, 80, 0
22, 18120, Note_on_c, 9, 80, 63
22, 18134, Note_on_c, 9, 80, 0
22, 18300, Note_on_c, 9, 81, 63
22, 18314, Note_on_c, 9, 81, 0
22, 18540, Note_on_c, 9, 81, 63
22, 18554, Note_on_c, 9, 81, 0
22, 18720, Note_on_c, 9, 80, 63
22, 18734, Note_on_c, 9, 80, 0
22, 18750, Note_on_c, 9, 80, 61
22, 18764, Note_on_c, 9, 80, 0
22, 18780, Note_on_c, 9, 80, 61
22, 18794, Note_on_c, 9, 80, 0
22, 18840, Note_on_c, 9, 80, 61
22, 18854, Note_on_c, 9, 80, 0
22, 18960, Note_on_c, 9, 80, 61
22, 18974, Note_on_c, 9, 80, 0
22, 19080, Note_on_c, 9, 80, 61
22, 19094, Note_on_c, 9, 80, 0
22, 19260, Note_on_c, 9, 81, 63
22, 19274, Note_on_c, 9, 81, 0
22, 19500, Note_on_c, 9, 81, 63
22, 19514, Note_on_c, 9, 81, 0
22, 19680, Note_on_c, 9, 80, 63
22, 19694, Note_on_c, 9, 80, 0
22, 19710, Note_on_c, 9, 80, 63
22, 19724, Note_on_c, 9, 80, 0
22, 19740, Note_on_c, 9, 80, 63
22, 19754, Note_on_c, 9, 80, 0
22, 19800, Note_on_c, 9, 80, 63
22, 19814, Note_on_c, 9, 80, 0
22, 19920, Note_on_c, 9, 80, 63
22, 19934, Note_on_c, 9, 80, 0
22, 20040, Note_on_c, 9, 80, 63
22, 20054, Note_on_c, 9, 80, 0
22, 20220, Note_on_c, 9, 81, 63
22, 20234, Note_on_c, 9, 81, 0
22, 20460, Note_on_c, 9, 81, 63
22, 20474, Note_on_c, 9, 81, 0
22, 20640, Note_on_c, 9, 80, 63
22, 20654, Note_on_c, 9, 80, 0
22, 20670, Note_on_c, 9, 80, 61
22, 20684, Note_on_c, 9, 80, 0
22, 20700, Note_on_c, 9, 80, 61
22, 20714, Note_on_c, 9, 80, 0
22, 20760, Note_on_c, 9, 80, 61
22, 20774, Note_on_c, 9, 80, 0
22, 20880, Note_on_c, 9, 80, 61
22, 20894, Note_on_c, 9, 80, 0
22, 21000, Note_on_c, 9, 80, 61
22, 21014, Note_on_c, 9, 80, 0
22, 21180, Note_on_c, 9, 81, 63
22, 21194, Note_on_c, 9, 81, 0
22, 21420, Note_on_c, 9, 81, 63
22, 21434, Note_on_c, 9, 81, 0
22, 21600, Note_on_c, 9, 80, 63
22, 21614, Note_on_c, 9, 80, 0
22, 21630, Note_on_c, 9, 80, 63
22, 21644, Note_on_c, 9, 80, 0
22, 21660, Note_on_c, 9, 80, 63
22, 21674, Note_on_c, 9, 80, 0
22, 21720, Note_on_c, 9, 80, 63
22, 21734, Note_on_c, 9, 80, 0
22, 21840, Note_on_c, 9, 80, 63
22, 21854, Note_on_c, 9, 80, 0
22, 21960, Note_on_c, 9, 80, 63
22, 21974, Note_on_c, 9, 80, 0
22, 22140, Note_on_c, 9, 81, 63
22, 22154, Note_on_c, 9, 81, 0
22, 22380, Note_on_c, 9, 81, 63
22, 22394, Note_on_c, 9, 81, 0
22, 22560, Note_on_c, 9, 80, 63
22, 22574, Note_on_c, 9, 80, 0
22, 22590, Note_on_c, 9, 80, 61
22, 22604, Note_on_c, 9, 80, 0
22, 22620, Note_on_c, 9, 80, 61
22, 22634, Note_on_c, 9, 80, 0
22, 22680, Note_on_c, 9, 80, 61
22, 22694, Note_on_c, 9, 80, 0
22, 22800, Note_on_c, 9, 80, 61
22, 22814, Note_on_c, 9, 80, 0
22, 22920, Note_on_c, 9, 80, 61
22, 22934, Note_on_c, 9, 80, 0
22, 23100, Note_on_c, 9, 81, 62
22, 23114, Note_on_c, 9, 81, 0
22, 23340, Note_on_c, 9, 81, 57
22, 23354, Note_on_c, 9, 81, 0
22, 23520, Note_on_c, 9, 80, 59
22, 23534, Note_on_c, 9, 80, 0
22, 23550, Note_on_c, 9, 80, 59
22, 23564, Note_on_c, 9, 80, 0
22, 23580, Note_on_c, 9, 80, 59
22, 23594, Note_on_c, 9, 80, 0
22, 23640, Note_on_c, 9, 80, 59
22, 23654, Note_on_c, 9, 80, 0
22, 23760, Note_on_c, 9, 80, 59
22, 23774, Note_on_c, 9, 80, 0
22, 23880, Note_on_c, 9, 80, 60
22, 23894, Note_on_c, 9, 80, 0
22, 24060, Note_on_c, 9, 81, 61
22, 24074, Note_on_c, 9, 81, 0
22, 24300, Note_on_c, 9, 81, 62
22, 24314, Note_on_c, 9, 81, 0
22, 24480, Note_on_c, 9, 80, 62
22, 24494, Note_on_c, 9, 80, 0
22, 24510, Note_on_c, 9, 80, 62
22, 24524, Note_on_c, 9, 80, 0
22, 24540, Note_on_c, 9, 80, 63
22, 24554, Note_on_c, 9, 80, 0
22, 24600, Note_on_c, 9, 80, 63
22, 24614, Note_on_c, 9, 80, 0
22, 24720, Note_on_c, 9, 80, 63
22, 24734, Note_on_c, 9, 80, 0
22, 24840, Note_on_c, 9, 80, 63
22, 24854, Note_on_c, 9, 80, 0
22, 25020, Note_on_c, 9, 81, 63
22, 25034, Note_on_c, 9, 81, 0
22, 25260, Note_on_c, 9, 81, 63
22, 25274, Note_on_c, 9, 81, 0
22, 25440, Note_on_c, 9, 80, 63
22, 25454, Note_on_c, 9, 80, 0
22, 25470, Note_on_c, 9, 80, 63
22, 25484, Note_on_c, 9, 80, 0
22, 25500, Note_on_c, 9, 80, 63
22, 25514, Note_on_c, 9, 80, 0
22, 25560, Note_on_c, 9, 80, 63
22, 25574, Note_on_c, 9, 80, 0
22, 25680, Note_on_c, 9, 80, 63
22, 25694, Note_on_c, 9, 80, 0
22, 25800, Note_on_c, 9, 80, 63
22, 25814, Note_on_c, 9, 80, 0
22, 25980, Note_on_c, 9, 81, 63
22, 25994, Note_on_c, 9, 81, 0
22, 26220, Note_on_c, 9, 81, 63
22, 26234, Note_on_c, 9, 81, 0
22, 26400, Note_on_c, 9, 80, 63
22, 26414, Note_on_c, 9, 80, 0
22, 26430, Note_on_c, 9, 80, 61
22, 26444, Note_on_c, 9, 80, 0
22, 26460, Note_on_c, 9, 80, 61
22, 26474, Note_on_c, 9, 80, 0
22, 26520, Note_on_c, 9, 80, 61
22, 26534, Note_on_c, 9, 80, 0
22, 26640, Note_on_c, 9, 80, 61
22, 26654, Note_on_c, 9, 80, 0
22, 26760, Note_on_c, 9, 80, 61
22, 26774, Note_on_c, 9, 80, 0
22, 26940, Note_on_c, 9, 81, 62
22, 26954, Note_on_c, 9, 81, 0
22, 27180, Note_on_c, 9, 81, 57
22, 27194, Note_on_c, 9, 81, 0
22, 27360, Note_on_c, 9, 80, 59
22, 27374, Note_on_c, 9, 80, 0
22, 27390, Note_on_c, 9, 80, 59
22, 27404, Note_on_c, 9, 80, 0
22, 27420, Note_on_c, 9, 80, 59
22, 27434, Note_on_c, 9, 80, 0
22, 27480, Note_on_c, 9, 80, 59
22, 27494, Note_on_c, 9, 80, 0
22, 27600, Note_on_c, 9, 80, 59
22, 27614, Note_on_c, 9, 80, 0
22, 27720, Note_on_c, 9, 80, 60
22, 27734, Note_on_c, 9, 80, 0
22, 27900, Note_on_c, 9, 81, 61
22, 27914, Note_on_c, 9, 81, 0
22, 28140, Note_on_c, 9, 81, 62
22, 28154, Note_on_c, 9, 81, 0
22, 28320, Note_on_c, 9, 80, 62
22, 28334, Note_on_c, 9, 80, 0
22, 28350, Note_on_c, 9, 80, 62
22, 28364, Note_on_c, 9, 80, 0
22, 28380, Note_on_c, 9, 80, 63
22, 28394, Note_on_c, 9, 80, 0
22, 28440, Note_on_c, 9, 80, 63
22, 28454, Note_on_c, 9, 80, 0
22, 28560, Note_on_c, 9, 80, 63
22, 28574, Note_on_c, 9, 80, 0
22, 28680, Note_on_c, 9, 80, 63
22, 28694, Note_on_c, 9, 80, 0
22, 28860, Note_on_c, 9, 81, 63
22, 28874, Note_on_c, 9, 81, 0
22, 29100, Note_on_c, 9, 81, 63
22, 29114, Note_on_c, 9, 81, 0
22, 29280, Note_on_c, 9, 80, 63
22, 29294, Note_on_c, 9, 80, 0
22, 29310, Note_on_c, 9, 80, 63
22, 29324, Note_on_c, 9, 80, 0
22, 29340, Note_on_c, 9, 80, 63
22, 29354, Note_on_c, 9, 80, 0
22, 29400, Note_on_c, 9, 80, 63
22, 29414, Note_on_c, 9, 80, 0
22, 29520, Note_on_c, 9, 80, 63
22, 29534, Note_on_c, 9, 80, 0
22, 29640, Note_on_c, 9, 80, 63
22, 29654, Note_on_c, 9, 80, 0
22, 29820, Note_on_c, 9, 81, 63
22, 29834, Note_on_c, 9, 81, 0
22, 30060, Note_on_c, 9, 81, 63
22, 30074, Note_on_c, 9, 81, 0
22, 30240, Note_on_c, 9, 80, 63
22, 30254, Note_on_c, 9, 80, 0
22, 30270, Note_on_c, 9, 80, 61
22, 30284, Note_on_c, 9, 80, 0
22, 30300, Note_on_c, 9, 80, 61
22, 30314, Note_on_c, 9, 80, 0
22, 30360, Note_on_c, 9, 80, 61
22, 30374, Note_on_c, 9, 80, 0
22, 30480, Note_on_c, 9, 80, 61
22, 30494, Note_on_c, 9, 80, 0
22, 30600, Note_on_c, 9, 80, 61
22, 30614, Note_on_c, 9, 80, 0
22, 30780, Note_on_c, 9, 81, 62
22, 30794, Note_on_c, 9, 81, 0
22, 31020, Note_on_c, 9, 81, 57
22, 31034, Note_on_c, 9, 81, 0
22, 31200, Note_on_c, 9, 80, 59
22, 31214, Note_on_c, 9, 80, 0
22, 31230, Note_on_c, 9, 80, 59
22, 31244, Note_on_c, 9, 80, 0
22, 31260, Note_on_c, 9, 80, 59
22, 31274, Note_on_c, 9, 80, 0
22, 31320, Note_on_c, 9, 80, 59
22, 31334, Note_on_c, 9, 80, 0
22, 31440, Note_on_c, 9, 80, 59
22, 31454, Note_on_c, 9, 80, 0
22, 31560, Note_on_c, 9, 80, 60
22, 31574, Note_on_c, 9, 80, 0
22, 31740, Note_on_c, 9, 81, 61
22, 31754, Note_on_c, 9, 81, 0
22, 31980, Note_on_c, 9, 81, 62
22, 31994, Note_on_c, 9, 81, 0
22, 32160, Note_on_c, 9, 80, 62
22, 32174, Note_on_c, 9, 80, 0
22, 32190, Note_on_c, 9, 80, 62
22, 32204, Note_on_c, 9, 80, 0
22, 32220, Note_on_c, 9, 80, 63
22, 32234, Note_on_c, 9, 80, 0
22, 32280, Note_on_c, 9, 80, 63
22, 32294, Note_on_c, 9, 80, 0
22, 32400, Note_on_c, 9, 80, 63
22, 32414, Note_on_c, 9, 80, 0
22, 32520, Note_on_c, 9, 80, 63
22, 32534, Note_on_c, 9, 80, 0
22, 32700, Note_on_c, 9, 81, 62
22, 32714, Note_on_c, 9, 81, 0
22, 32940, Note_on_c, 9, 81, 57
22, 32954, Note_on_c, 9, 81, 0
22, 33120, Note_on_c, 9, 80, 59
22, 33134, Note_on_c, 9, 80, 0
22, 33150, Note_on_c, 9, 80, 59
22, 33164, Note_on_c, 9, 80, 0
22, 33180, Note_on_c, 9, 80, 59
22, 33194, Note_on_c, 9, 80, 0
22, 33240, Note_on_c, 9, 80, 59
22, 33254, Note_on_c, 9, 80, 0
22, 33360, Note_on_c, 9, 80, 59
22, 33374, Note_on_c, 9, 80, 0
22, 33480, Note_on_c, 9, 80, 60
22, 33494, Note_on_c, 9, 80, 0
22, 33660, Note_on_c, 9, 81, 61
22, 33674, Note_on_c, 9, 81, 0
22, 33900, Note_on_c, 9, 81, 62
22, 33914, Note_on_c, 9, 81, 0
22, 34080, Note_on_c, 9, 80, 62
22, 34094, Note_on_c, 9, 80, 0
22, 34110, Note_on_c, 9, 80, 62
22, 34124, Note_on_c, 9, 80, 0
22, 34140, Note_on_c, 9, 80, 63
22, 34154, Note_on_c, 9, 80, 0
22, 34200, Note_on_c, 9, 80, 63
22, 34214, Note_on_c, 9, 80, 0
22, 34320, Note_on_c, 9, 80, 63
22, 34334, Note_on_c, 9, 80, 0
22, 34440, Note_on_c, 9, 80, 63
22, 34454, Note_on_c, 9, 80, 0
22, 34620, Note_on_c, 9, 81, 63
22, 34634, Note_on_c, 9, 81, 0
22, 34860, Note_on_c, 9, 81, 63
22, 34874, Note_on_c, 9, 81, 0
22, 35040, Note_on_c, 9, 80, 63
22, 35054, Note_on_c, 9, 80, 0
22, 35070, Note_on_c, 9, 80, 63
22, 35084, Note_on_c, 9, 80, 0
22, 35100, Note_on_c, 9, 80, 63
22, 35114, Note_on_c, 9, 80, 0
22, 35160, Note_on_c, 9, 80, 63
22, 35174, Note_on_c, 9, 80, 0
22, 35280, Note_on_c, 9, 80, 63
22, 35294, Note_on_c, 9, 80, 0
22, 35400, Note_on_c, 9, 80, 63
22, 35414, Note_on_c, 9, 80, 0
22, 35580, Note_on_c, 9, 81, 63
22, 35594, Note_on_c, 9, 81, 0
22, 35820, Note_on_c, 9, 81, 63
22, 35834, Note_on_c, 9, 81, 0
22, 36000, Note_on_c, 9, 80, 63
22, 36014, Note_on_c, 9, 80, 0
22, 36030, Note_on_c, 9, 80, 61
22, 36044, Note_on_c, 9, 80, 0
22, 36060, Note_on_c, 9, 80, 61
22, 36074, Note_on_c, 9, 80, 0
22, 36120, Note_on_c, 9, 80, 61
22, 36134, Note_on_c, 9, 80, 0
22, 36240, Note_on_c, 9, 80, 61
22, 36254, Note_on_c, 9, 80, 0
22, 36360, Note_on_c, 9, 80, 61
22, 36374, Note_on_c, 9, 80, 0
22, 36540, Note_on_c, 9, 81, 63
22, 36554, Note_on_c, 9, 81, 0
22, 36780, Note_on_c, 9, 81, 63
22, 36794, Note_on_c, 9, 81, 0
22, 36960, Note_on_c, 9, 80, 63
22, 36974, Note_on_c, 9, 80, 0
22, 36990, Note_on_c, 9, 80, 63
22, 37004, Note_on_c, 9, 80, 0
22, 37020, Note_on_c, 9, 80, 63
22, 37034, Note_on_c, 9, 80, 0
22, 37080, Note_on_c, 9, 80, 63
22, 37094, Note_on_c, 9, 80, 0
22, 37200, Note_on_c, 9, 80, 63
22, 37214, Note_on_c, 9, 80, 0
22, 37320, Note_on_c, 9, 80, 63
22, 37334, Note_on_c, 9, 80, 0
22, 37500, Note_on_c, 9, 81, 63
22, 37514, Note_on_c, 9, 81, 0
22, 37740, Note_on_c, 9, 81, 63
22, 37754, Note_on_c, 9, 81, 0
22, 37920, Note_on_c, 9, 80, 63
22, 37934, Note_on_c, 9, 80, 0
22, 37950, Note_on_c, 9, 80, 61
22, 37964, Note_on_c, 9, 80, 0
22, 37980, Note_on_c, 9, 80, 61
22, 37994, Note_on_c, 9, 80, 0
22, 38040, Note_on_c, 9, 80, 61
22, 38054, Note_on_c, 9, 80, 0
22, 38160, Note_on_c, 9, 80, 61
22, 38174, Note_on_c, 9, 80, 0
22, 38280, Note_on_c, 9, 80, 61
22, 38294, Note_on_c, 9, 80, 0
22, 38460, Note_on_c, 9, 81, 63
22, 38474, Note_on_c, 9, 81, 0
22, 38700, Note_on_c, 9, 81, 63
22, 38714, Note_on_c, 9, 81, 0
22, 38880, Note_on_c, 9, 80, 63
22, 38894, Note_on_c, 9, 80, 0
22, 38910, Note_on_c, 9, 80, 63
22, 38924, Note_on_c, 9, 80, 0
22, 38940, Note_on_c, 9, 80, 63
22, 38954, Note_on_c, 9, 80, 0
22, 39000, Note_on_c, 9, 80, 63
22, 39014, Note_on_c, 9, 80, 0
22, 39120, Note_on_c, 9, 80, 63
22, 39134, Note_on_c, 9, 80, 0
22, 39240, Note_on_c, 9, 80, 63
22, 39254, Note_on_c, 9, 80, 0
22, 39420, Note_on_c, 9, 81, 63
22, 39434, Note_on_c, 9, 81, 0
22, 39660, Note_on_c, 9, 81, 63
22, 39674, Note_on_c, 9, 81, 0
22, 39840, Note_on_c, 9, 80, 63
22, 39854, Note_on_c, 9, 80, 0
22, 39870, Note_on_c, 9, 80, 61
22, 39884, Note_on_c, 9, 80, 0
22, 39900, Note_on_c, 9, 80, 61
22, 39914, Note_on_c, 9, 80, 0
22, 39960, Note_on_c, 9, 80, 61
22, 39974, Note_on_c, 9, 80, 0
22, 40080, Note_on_c, 9, 80, 61
22, 40094, Note_on_c, 9, 80, 0
22, 40200, Note_on_c, 9, 80, 61
22, 40214, Note_on_c, 9, 80, 0
22, 40380, Note_on_c, 9, 81, 63
22, 40394, Note_on_c, 9, 81, 0
22, 40620, Note_on_c, 9, 81, 63
22, 40634, Note_on_c, 9, 81, 0
22, 40800, Note_on_c, 9, 80, 63
22, 40814, Note_on_c, 9, 80, 0
22, 40830, Note_on_c, 9, 80, 63
22, 40844, Note_on_c, 9, 80, 0
22, 40860, Note_on_c, 9, 80, 63
22, 40874, Note_on_c, 9, 80, 0
22, 40920, Note_on_c, 9, 80, 63
22, 40934, Note_on_c, 9, 80, 0
22, 41040, Note_on_c, 9, 80, 63
22, 41054, Note_on_c, 9, 80, 0
22, 41160, Note_on_c, 9, 80, 63
22, 41174, Note_on_c, 9, 80, 0
22, 41340, Note_on_c, 9, 81, 63
22, 41354, Note_on_c, 9, 81, 0
22, 41580, Note_on_c, 9, 81, 63
22, 41594, Note_on_c, 9, 81, 0
22, 41760, Note_on_c, 9, 80, 63
22, 41774, Note_on_c, 9, 80, 0
22, 41790, Note_on_c, 9, 80, 61
22, 41804, Note_on_c, 9, 80, 0
22, 41820, Note_on_c, 9, 80, 61
22, 41834, Note_on_c, 9, 80, 0
22, 41880, Note_on_c, 9, 80, 61
22, 41894, Note_on_c, 9, 80, 0
22, 42000, Note_on_c, 9, 80, 61
22, 42014, Note_on_c, 9, 80, 0
22, 42120, Note_on_c, 9, 80, 61
22, 42134, Note_on_c, 9, 80, 0
22, 42300, Note_on_c, 9, 81, 63
22, 42314, Note_on_c, 9, 81, 0
22, 42540, Note_on_c, 9, 81, 63
22, 42554, Note_on_c, 9, 81, 0
22, 42720, Note_on_c, 9, 80, 63
22, 42734, Note_on_c, 9, 80, 0
22, 42750, Note_on_c, 9, 80, 63
22, 42764, Note_on_c, 9, 80, 0
22, 42780, Note_on_c, 9, 80, 63
22, 42794, Note_on_c, 9, 80, 0
22, 42840, Note_on_c, 9, 80, 63
22, 42854, Note_on_c, 9, 80, 0
22, 42960, Note_on_c, 9, 80, 63
22, 42974, Note_on_c, 9, 80, 0
22, 43080, Note_on_c, 9, 80, 63
22, 43094, Note_on_c, 9, 80, 0
22, 43260, Note_on_c, 9, 81, 63
22, 43274, Note_on_c, 9, 81, 0
22, 43500, Note_on_c, 9, 81, 63
22, 43514, Note_on_c, 9, 81, 0
22, 43680, Note_on_c, 9, 80, 63
22, 43694, Note_on_c, 9, 80, 0
22, 43710, Note_on_c, 9, 80, 61
22, 43724, Note_on_c, 9, 80, 0
22, 43740, Note_on_c, 9, 80, 61
22, 43754, Note_on_c, 9, 80, 0
22, 43800, Note_on_c, 9, 80, 61
22, 43814, Note_on_c, 9, 80, 0
22, 43920, Note_on_c, 9, 80, 61
22, 43934, Note_on_c, 9, 80, 0
22, 44040, Note_on_c, 9, 80, 61
22, 44054, Note_on_c, 9, 80, 0
22, 44220, Note_on_c, 9, 81, 63
22, 44234, Note_on_c, 9, 81, 0
22, 44460, Note_on_c, 9, 81, 63
22, 44474, Note_on_c, 9, 81, 0
22, 44640, Note_on_c, 9, 80, 63
22, 44654, Note_on_c, 9, 80, 0
22, 44670, Note_on_c, 9, 80, 63
22, 44684, Note_on_c, 9, 80, 0
22, 44700, Note_on_c, 9, 80, 63
22, 44714, Note_on_c, 9, 80, 0
22, 44760, Note_on_c, 9, 80, 63
22, 44774, Note_on_c, 9, 80, 0
22, 44880, Note_on_c, 9, 80, 63
22, 44894, Note_on_c, 9, 80, 0
22, 45000, Note_on_c, 9, 80, 63
22, 45014, Note_on_c, 9, 80, 0
22, 45180, Note_on_c, 9, 81, 63
22, 45194, Note_on_c, 9, 81, 0
22, 45420, Note_on_c, 9, 81, 63
22, 45434, Note_on_c, 9, 81, 0
22, 45600, Note_on_c, 9, 80, 63
22, 45614, Note_on_c, 9, 80, 0
22, 45630, Note_on_c, 9, 80, 61
22, 45644, Note_on_c, 9, 80, 0
22, 45660, Note_on_c, 9, 80, 61
22, 45674, Note_on_c, 9, 80, 0
22, 45720, Note_on_c, 9, 80, 61
22, 45734, Note_on_c, 9, 80, 0
22, 45840, Note_on_c, 9, 80, 61
22, 45854, Note_on_c, 9, 80, 0
22, 45960, Note_on_c, 9, 80, 61
22, 45974, Note_on_c, 9, 80, 0
22, 46140, Note_on_c, 9, 81, 63
22, 46154, Note_on_c, 9, 81, 0
22, 46380, Note_on_c, 9, 81, 63
22, 46394, Note_on_c, 9, 81, 0
22, 46560, Note_on_c, 9, 80, 63
22, 46574, Note_on_c, 9, 80, 0
22, 46590, Note_on_c, 9, 80, 63
22, 46604, Note_on_c, 9, 80, 0
22, 46620, Note_on_c, 9, 80, 63
22, 46634, Note_on_c, 9, 80, 0
22, 46680, Note_on_c, 9, 80, 63
22, 46694, Note_on_c, 9, 80, 0
22, 46800, Note_on_c, 9, 80, 63
22, 46814, Note_on_c, 9, 80, 0
22, 46920, Note_on_c, 9, 80, 63
22, 46934, Note_on_c, 9, 80, 0
22, 47100, Note_on_c, 9, 81, 63
22, 47114, Note_on_c, 9, 81, 0
22, 47340, Note_on_c, 9, 81, 63
22, 47354, Note_on_c, 9, 81, 0
22, 47520, Note_on_c, 9, 80, 63
22, 47534, Note_on_c, 9, 80, 0
22, 47550, Note_on_c, 9, 80, 61
22, 47564, Note_on_c, 9, 80, 0
22, 47580, Note_on_c, 9, 80, 61
22, 47594, Note_on_c, 9, 80, 0
22, 47640, Note_on_c, 9, 80, 61
22, 47654, Note_on_c, 9, 80, 0
22, 47760, Note_on_c, 9, 80, 61
22, 47774, Note_on_c, 9, 80, 0
22, 47880, Note_on_c, 9, 80, 61
22, 47894, Note_on_c, 9, 80, 0
22, 48060, Note_on_c, 9, 81, 63
22, 48074, Note_on_c, 9, 81, 0
22, 48300, Note_on_c, 9, 81, 63
22, 48314, Note_on_c, 9, 81, 0
22, 48480, Note_on_c, 9, 80, 63
22, 48494, Note_on_c, 9, 80, 0
22, 48510, Note_on_c, 9, 80, 63
22, 48524, Note_on_c, 9, 80, 0
22, 48540, Note_on_c, 9, 80, 63
22, 48554, Note_on_c, 9, 80, 0
22, 48600, Note_on_c, 9, 80, 63
22, 48614, Note_on_c, 9, 80, 0
22, 48720, Note_on_c, 9, 80, 63
22, 48734, Note_on_c, 9, 80, 0
22, 48840, Note_on_c, 9, 80, 63
22, 48854, Note_on_c, 9, 80, 0
22, 49020, Note_on_c, 9, 81, 63
22, 49034, Note_on_c, 9, 81, 0
22, 49260, Note_on_c, 9, 81, 63
22, 49274, Note_on_c, 9, 81, 0
22, 49440, Note_on_c, 9, 80, 63
22, 49454, Note_on_c, 9, 80, 0
22, 49470, Note_on_c, 9, 80, 61
22, 49484, Note_on_c, 9, 80, 0
22, 49500, Note_on_c, 9, 80, 61
22, 49514, Note_on_c, 9, 80, 0
22, 49560, Note_on_c, 9, 80, 61
22, 49574, Note_on_c, 9, 80, 0
22, 49680, Note_on_c, 9, 80, 61
22, 49694, Note_on_c, 9, 80, 0
22, 49800, Note_on_c, 9, 80, 61
22, 49814, Note_on_c, 9, 80, 0
22, 49980, Note_on_c, 9, 81, 63
22, 49994, Note_on_c, 9, 81, 0
22, 50220, Note_on_c, 9, 81, 63
22, 50234, Note_on_c, 9, 81, 0
22, 50400, Note_on_c, 9, 80, 63
22, 50414, Note_on_c, 9, 80, 0
22, 50430, Note_on_c, 9, 80, 63
22, 50444, Note_on_c, 9, 80, 0
22, 50460, Note_on_c, 9, 80, 63
22, 50474, Note_on_c, 9, 80, 0
22, 50520, Note_on_c, 9, 80, 63
22, 50534, Note_on_c, 9, 80, 0
22, 50640, Note_on_c, 9, 80, 63
22, 50654, Note_on_c, 9, 80, 0
22, 50760, Note_on_c, 9, 80, 63
22, 50774, Note_on_c, 9, 80, 0
22, 50940, Note_on_c, 9, 81, 63
22, 50954, Note_on_c, 9, 81, 0
22, 51180, Note_on_c, 9, 81, 63
22, 51194, Note_on_c, 9, 81, 0
22, 51360, Note_on_c, 9, 80, 63
22, 51374, Note_on_c, 9, 80, 0
22, 51390, Note_on_c, 9, 80, 61
22, 51404, Note_on_c, 9, 80, 0
22, 51420, Note_on_c, 9, 80, 61
22, 51434, Note_on_c, 9, 80, 0
22, 51480, Note_on_c, 9, 80, 61
22, 51494, Note_on_c, 9, 80, 0
22, 51600, Note_on_c, 9, 80, 61
22, 51614, Note_on_c, 9, 80, 0
22, 51720, Note_on_c, 9, 80, 61
22, 51734, Note_on_c, 9, 80, 0
22, 51900, Note_on_c, 9, 81, 63
22, 51914, Note_on_c, 9, 81, 0
22, 52140, Note_on_c, 9, 81, 63
22, 52154, Note_on_c, 9, 81, 0
22, 52320, Note_on_c, 9, 80, 63
22, 52334, Note_on_c, 9, 80, 0
22, 52350, Note_on_c, 9, 80, 63
22, 52364, Note_on_c, 9, 80, 0
22, 52380, Note_on_c, 9, 80, 63
22, 52394, Note_on_c, 9, 80, 0
22, 52440, Note_on_c, 9, 80, 63
22, 52454, Note_on_c, 9, 80, 0
22, 52560, Note_on_c, 9, 80, 63
22, 52574, Note_on_c, 9, 80, 0
22, 52680, Note_on_c, 9, 80, 63
22, 52694, Note_on_c, 9, 80, 0
22, 52860, Note_on_c, 9, 81, 63
22, 52874, Note_on_c, 9, 81, 0
22, 53100, Note_on_c, 9, 81, 63
22, 53114, Note_on_c, 9, 81, 0
22, 53280, Note_on_c, 9, 80, 63
22, 53294, Note_on_c, 9, 80, 0
22, 53310, Note_on_c, 9, 80, 61
22, 53324, Note_on_c, 9, 80, 0
22, 53340, Note_on_c, 9, 80, 61
22, 53354, Note_on_c, 9, 80, 0
22, 53400, Note_on_c, 9, 80, 61
22, 53414, Note_on_c, 9, 80, 0
22, 53520, Note_on_c, 9, 80, 61
22, 53534, Note_on_c, 9, 80, 0
22, 53640, Note_on_c, 9, 80, 61
22, 53654, Note_on_c, 9, 80, 0
22, 53820, Note_on_c, 9, 81, 63
22, 53834, Note_on_c, 9, 81, 0
22, 54060, Note_on_c, 9, 81, 63
22, 54074, Note_on_c, 9, 81, 0
22, 54240, Note_on_c, 9, 80, 63
22, 54254, Note_on_c, 9, 80, 0
22, 54270, Note_on_c, 9, 80, 63
22, 54284, Note_on_c, 9, 80, 0
22, 54300, Note_on_c, 9, 80, 63
22, 54314, Note_on_c, 9, 80, 0
22, 54360, Note_on_c, 9, 80, 63
22, 54374, Note_on_c, 9, 80, 0
22, 54480, Note_on_c, 9, 80, 63
22, 54494, Note_on_c, 9, 80, 0
22, 54600, Note_on_c, 9, 80, 63
22, 54614, Note_on_c, 9, 80, 0
22, 54780, Note_on_c, 9, 81, 63
22, 54794, Note_on_c, 9, 81, 0
22, 55020, Note_on_c, 9, 81, 63
22, 55034, Note_on_c, 9, 81, 0
22, 55200, Note_on_c, 9, 80, 63
22, 55214, Note_on_c, 9, 80, 0
22, 55230, Note_on_c, 9, 80, 61
22, 55244, Note_on_c, 9, 80, 0
22, 55260, Note_on_c, 9, 80, 61
22, 55274, Note_on_c, 9, 80, 0
22, 55320, Note_on_c, 9, 80, 61
22, 55334, Note_on_c, 9, 80, 0
22, 55440, Note_on_c, 9, 80, 61
22, 55454, Note_on_c, 9, 80, 0
22, 55560, Note_on_c, 9, 80, 61
22, 55574, Note_on_c, 9, 80, 0
22, 55740, Note_on_c, 9, 81, 63
22, 55754, Note_on_c, 9, 81, 0
22, 55980, Note_on_c, 9, 81, 63
22, 55994, Note_on_c, 9, 81, 0
22, 56160, Note_on_c, 9, 80, 63
22, 56174, Note_on_c, 9, 80, 0
22, 56190, Note_on_c, 9, 80, 63
22, 56204, Note_on_c, 9, 80, 0
22, 56220, Note_on_c, 9, 80, 63
22, 56234, Note_on_c, 9, 80, 0
22, 56280, Note_on_c, 9, 80, 63
22, 56294, Note_on_c, 9, 80, 0
22, 56400, Note_on_c, 9, 80, 63
22, 56414, Note_on_c, 9, 80, 0
22, 56520, Note_on_c, 9, 80, 63
22, 56534, Note_on_c, 9, 80, 0
22, 56700, Note_on_c, 9, 81, 63
22, 56714, Note_on_c, 9, 81, 0
22, 56940, Note_on_c, 9, 81, 63
22, 56954, Note_on_c, 9, 81, 0
22, 57120, Note_on_c, 9, 80, 63
22, 57134, Note_on_c, 9, 80, 0
22, 57150, Note_on_c, 9, 80, 61
22, 57164, Note_on_c, 9, 80, 0
22, 57180, Note_on_c, 9, 80, 61
22, 57194, Note_on_c, 9, 80, 0
22, 57240, Note_on_c, 9, 80, 61
22, 57254, Note_on_c, 9, 80, 0
22, 57360, Note_on_c, 9, 80, 61
22, 57374, Note_on_c, 9, 80, 0
22, 57480, Note_on_c, 9, 80, 61
22, 57494, Note_on_c, 9, 80, 0
22, 57660, Note_on_c, 9, 81, 62
22, 57674, Note_on_c, 9, 81, 0
22, 57900, Note_on_c, 9, 81, 57
22, 57914, Note_on_c, 9, 81, 0
22, 58080, Note_on_c, 9, 80, 59
22, 58094, Note_on_c, 9, 80, 0
22, 58110, Note_on_c, 9, 80, 59
22, 58124, Note_on_c, 9, 80, 0
22, 58140, Note_on_c, 9, 80, 59
22, 58154, Note_on_c, 9, 80, 0
22, 58200, Note_on_c, 9, 80, 59
22, 58214, Note_on_c, 9, 80, 0
22, 58320, Note_on_c, 9, 80, 59
22, 58334, Note_on_c, 9, 80, 0
22, 58440, Note_on_c, 9, 80, 60
22, 58454, Note_on_c, 9, 80, 0
22, 58620, Note_on_c, 9, 81, 61
22, 58634, Note_on_c, 9, 81, 0
22, 58860, Note_on_c, 9, 81, 62
22, 58874, Note_on_c, 9, 81, 0
22, 59040, Control_c, 9, 7, 80
22, 59040, Note_on_c, 9, 80, 62
22, 59054, Note_on_c, 9, 80, 0
22, 59070, Note_on_c, 9, 80, 62
22, 59075, Control_c, 9, 7, 79
22, 59084, Note_on_c, 9, 80, 0
22, 59100, Note_on_c, 9, 80, 63
22, 59111, Control_c, 9, 7, 78
22, 59114, Note_on_c, 9, 80, 0
22, 59147, Control_c, 9, 7, 77
22, 59160, Note_on_c, 9, 80, 63
22, 59174, Note_on_c, 9, 80, 0
22, 59183, Control_c, 9, 7, 76
22, 59219, Control_c, 9, 7, 75
22, 59255, Control_c, 9, 7, 74
22, 59280, Note_on_c, 9, 80, 63
22, 59291, Control_c, 9, 7, 73
22, 59294, Note_on_c, 9, 80, 0
22, 59327, Control_c, 9, 7, 72
22, 59363, Control_c, 9, 7, 71
22, 59399, Control_c, 9, 7, 70
22, 59400, Note_on_c, 9, 80, 63
22, 59414, Note_on_c, 9, 80, 0
22, 59435, Control_c, 9, 7, 69
22, 59471, Control_c, 9, 7, 68
22, 59507, Control_c, 9, 7, 67
22, 59543, Control_c, 9, 7, 66
22, 59579, Control_c, 9, 7, 65
22, 59580, Note_on_c, 9, 81, 62
22, 59594, Note_on_c, 9, 81, 0
22, 59615, Control_c, 9, 7, 64
22, 59651, Control_c, 9, 7, 63
22, 59687, Control_c, 9, 7, 62
22, 59723, Control_c, 9, 7, 61
22, 59759, Control_c, 9, 7, 60
22, 59795, Control_c, 9, 7, 59
22, 59820, Note_on_c, 9, 81, 57
22, 59831, Control_c, 9, 7, 58
22, 59834, Note_on_c, 9, 81, 0
22, 59867, Control_c, 9, 7, 57
22, 59903, Control_c, 9, 7, 56
22, 59939, Control_c, 9, 7, 55
22, 59975, Control_c, 9, 7, 54
22, 60000, Note_on_c, 9, 80, 59
22, 60011, Control_c, 9, 7, 53
22, 60014, Note_on_c, 9, 80, 0
22, 60030, Note_on_c, 9, 80, 59
22, 60044, Note_on_c, 9, 80, 0
22, 60047, Control_c, 9, 7, 52
22, 60060, Note_on_c, 9, 80, 59
22, 60074, Note_on_c, 9, 80, 0
22, 60083, Control_c, 9, 7, 51
22, 60119, Control_c, 9, 7, 50
22, 60120, Note_on_c, 9, 80, 59
22, 60134, Note_on_c, 9, 80, 0
22, 60155, Control_c, 9, 7, 49
22, 60191, Control_c, 9, 7, 48
22, 60227, Control_c, 9, 7, 47
22, 60240, Note_on_c, 9, 80, 59
22, 60254, Note_on_c, 9, 80, 0
22, 60263, Control_c, 9, 7, 46
22, 60299, Control_c, 9, 7, 45
22, 60335, Control_c, 9, 7, 44
22, 60360, Note_on_c, 9, 80, 60
22, 60371, Control_c, 9, 7, 43
22, 60374, Note_on_c, 9, 80, 0
22, 60407, Control_c, 9, 7, 42
22, 60443, Control_c, 9, 7, 41
22, 60479, Control_c, 9, 7, 40
22, 60515, Control_c, 9, 7, 39
22, 60540, Note_on_c, 9, 81, 61
22, 60551, Control_c, 9, 7, 38
22, 60554, Note_on_c, 9, 81, 0
22, 60587, Control_c, 9, 7, 37
22, 60623, Control_c, 9, 7, 36
22, 60659, Control_c, 9, 7, 35
22, 60695, Control_c, 9, 7, 34
22, 60731, Control_c, 9, 7, 33
22, 60767, Control_c, 9, 7, 32
22, 60780, Note_on_c, 9, 81, 62
22, 60794, Note_on_c, 9, 81, 0
22, 60803, Control_c, 9, 7, 31
22, 60839, Control_c, 9, 7, 30
22, 60875, Control_c, 9, 7, 29
22, 60911, Control_c, 9, 7, 28
22, 60947, Control_c, 9, 7, 27
22, 60960, Note_on_c, 9, 80, 62
22, 60974, Note_on_c, 9, 80, 0
22, 60983, Control_c, 9, 7, 26
22, 60990, Note_on_c, 9, 80, 62
22, 61004, Note_on_c, 9, 80, 0
22, 61019, Control_c, 9, 7, 25
22, 61020, Note_on_c, 9, 80, 63
22, 61034, Note_on_c, 9, 80, 0
22, 61055, Control_c, 9, 7, 24
22, 61080, Note_on_c, 9, 80, 63
22, 61091, Control_c, 9, 7, 23
22, 61094, Note_on_c, 9, 80, 0
22, 61127, Control_c, 9, 7, 22
22, 61163, Control_c, 9, 7, 21
22, 61199, Control_c, 9, 7, 20
22, 61200, Note_on_c, 9, 80, 63
22, 61214, Note_on_c, 9, 80, 0
22, 61235, Control_c, 9, 7, 19
22, 61271, Control_c, 9, 7, 18
22, 61307, Control_c, 9, 7, 17
22, 61320, Note_on_c, 9, 80, 63
22, 61334, Note_on_c, 9, 80, 0
22, 61343, Control_c, 9, 7, 16
22, 61379, Control_c, 9, 7, 15
22, 61415, Control_c, 9, 7, 14
22, 61451, Control_c, 9, 7, 13
22, 61487, Control_c, 9, 7, 12
22, 61523, Control_c, 9, 7, 11
22, 61559, Control_c, 9, 7, 10
22, 61595, Control_c, 9, 7, 9
22, 61631, Control_c, 9, 7, 8
22, 61667, Control_c, 9, 7, 7
22, 61703, Control_c, 9, 7, 6
22, 61739, Control_c, 9, 7, 5
22, 61775, Control_c, 9, 7, 4
22, 61811, Control_c, 9, 7, 3
22, 61847, Control_c, 9, 7, 2
22, 61883, Control_c, 9, 7, 1
22, 61919, Control_c, 9, 7, 0
22, 61919, End_track
23, 0, Start_track
23, 0, MIDI_port, 0
23, 0, Title_t, " "
23, 0, Control_c, 9, 7, 110
23, 0, Control_c, 9, 10, 63
23, 30720, Note_on_c, 9, 57, 80
23, 30734, Note_on_c, 9, 57, 0
23, 59040, Control_c, 9, 7, 80
23, 59075, Control_c, 9, 7, 79
23, 59111, Control_c, 9, 7, 78
23, 59147, Control_c, 9, 7, 77
23, 59183, Control_c, 9, 7, 76
23, 59219, Control_c, 9, 7, 75
23, 59255, Control_c, 9, 7, 74
23, 59291, Control_c, 9, 7, 73
23, 59327, Control_c, 9, 7, 72
23, 59363, Control_c, 9, 7, 71
23, 59399, Control_c, 9, 7, 70
23, 59435, Control_c, 9, 7, 69
23, 59471, Control_c, 9, 7, 68
23, 59507, Control_c, 9, 7, 67
23, 59543, Control_c, 9, 7, 66
23, 59579, Control_c, 9, 7, 65
23, 59615, Control_c, 9, 7, 64
23, 59651, Control_c, 9, 7, 63
23, 59687, Control_c, 9, 7, 62
23, 59723, Control_c, 9, 7, 61
23, 59759, Control_c, 9, 7, 60
23, 59795, Control_c, 9, 7, 59
23, 59831, Control_c, 9, 7, 58
23, 59867, Control_c, 9, 7, 57
23, 59903, Control_c, 9, 7, 56
23, 59939, Control_c, 9, 7, 55
23, 59975, Control_c, 9, 7, 54
23, 60011, Control_c, 9, 7, 53
23, 60047, Control_c, 9, 7, 52
23, 60083, Control_c, 9, 7, 51
23, 60119, Control_c, 9, 7, 50
23, 60155, Control_c, 9, 7, 49
23, 60191, Control_c, 9, 7, 48
23, 60227, Control_c, 9, 7, 47
23, 60263, Control_c, 9, 7, 46
23, 60299, Control_c, 9, 7, 45
23, 60335, Control_c, 9, 7, 44
23, 60371, Control_c, 9, 7, 43
23, 60407, Control_c, 9, 7, 42
23, 60443, Control_c, 9, 7, 41
23, 60479, Control_c, 9, 7, 40
23, 60515, Control_c, 9, 7, 39
23, 60551, Control_c, 9, 7, 38
23, 60587, Control_c, 9, 7, 37
23, 60623, Control_c, 9, 7, 36
23, 60659, Control_c, 9, 7, 35
23, 60695, Control_c, 9, 7, 34
23, 60731, Control_c, 9, 7, 33
23, 60767, Control_c, 9, 7, 32
23, 60803, Control_c, 9, 7, 31
23, 60839, Control_c, 9, 7, 30
23, 60875, Control_c, 9, 7, 29
23, 60911, Control_c, 9, 7, 28
23, 60947, Control_c, 9, 7, 27
23, 60983, Control_c, 9, 7, 26
23, 61019, Control_c, 9, 7, 25
23, 61055, Control_c, 9, 7, 24
23, 61091, Control_c, 9, 7, 23
23, 61127, Control_c, 9, 7, 22
23, 61163, Control_c, 9, 7, 21
23, 61199, Control_c, 9, 7, 20
23, 61235, Control_c, 9, 7, 19
23, 61271, Control_c, 9, 7, 18
23, 61307, Control_c, 9, 7, 17
23, 61343, Control_c, 9, 7, 16
23, 61379, Control_c, 9, 7, 15
23, 61415, Control_c, 9, 7, 14
23, 61451, Control_c, 9, 7, 13
23, 61487, Control_c, 9, 7, 12
23, 61523, Control_c, 9, 7, 11
23, 61559, Control_c, 9, 7, 10
23, 61595, Control_c, 9, 7, 9
23, 61631, Control_c, 9, 7, 8
23, 61667, Control_c, 9, 7, 7
23, 61703, Control_c, 9, 7, 6
23, 61739, Control_c, 9, 7, 5
23, 61775, Control_c, 9, 7, 4
23, 61811, Control_c, 9, 7, 3
23, 61847, Control_c, 9, 7, 2
23, 61883, Control_c, 9, 7, 1
23, 61919, Control_c, 9, 7, 0
23, 61919, End_track
24, 0, Start_track
24, 0, MIDI_port, 0
24, 0, Title_t, " "
24, 0, Control_c, 9, 7, 110
24, 0, Control_c, 9, 10, 63
24, 59040, Control_c, 9, 7, 80
24, 59075, Control_c, 9, 7, 79
24, 59111, Control_c, 9, 7, 78
24, 59147, Control_c, 9, 7, 77
24, 59183, Control_c, 9, 7, 76
24, 59219, Control_c, 9, 7, 75
24, 59255, Control_c, 9, 7, 74
24, 59291, Control_c, 9, 7, 73
24, 59327, Control_c, 9, 7, 72
24, 59363, Control_c, 9, 7, 71
24, 59399, Control_c, 9, 7, 70
24, 59435, Control_c, 9, 7, 69
24, 59471, Control_c, 9, 7, 68
24, 59507, Control_c, 9, 7, 67
24, 59543, Control_c, 9, 7, 66
24, 59579, Control_c, 9, 7, 65
24, 59615, Control_c, 9, 7, 64
24, 59651, Control_c, 9, 7, 63
24, 59687, Control_c, 9, 7, 62
24, 59723, Control_c, 9, 7, 61
24, 59759, Control_c, 9, 7, 60
24, 59795, Control_c, 9, 7, 59
24, 59831, Control_c, 9, 7, 58
24, 59867, Control_c, 9, 7, 57
24, 59903, Control_c, 9, 7, 56
24, 59939, Control_c, 9, 7, 55
24, 59975, Control_c, 9, 7, 54
24, 60011, Control_c, 9, 7, 53
24, 60047, Control_c, 9, 7, 52
24, 60083, Control_c, 9, 7, 51
24, 60119, Control_c, 9, 7, 50
24, 60155, Control_c, 9, 7, 49
24, 60191, Control_c, 9, 7, 48
24, 60227, Control_c, 9, 7, 47
24, 60263, Control_c, 9, 7, 46
24, 60299, Control_c, 9, 7, 45
24, 60335, Control_c, 9, 7, 44
24, 60371, Control_c, 9, 7, 43
24, 60407, Control_c, 9, 7, 42
24, 60443, Control_c, 9, 7, 41
24, 60479, Control_c, 9, 7, 40
24, 60515, Control_c, 9, 7, 39
24, 60551, Control_c, 9, 7, 38
24, 60587, Control_c, 9, 7, 37
24, 60623, Control_c, 9, 7, 36
24, 60659, Control_c, 9, 7, 35
24, 60695, Control_c, 9, 7, 34
24, 60731, Control_c, 9, 7, 33
24, 60767, Control_c, 9, 7, 32
24, 60803, Control_c, 9, 7, 31
24, 60839, Control_c, 9, 7, 30
24, 60875, Control_c, 9, 7, 29
24, 60911, Control_c, 9, 7, 28
24, 60947, Control_c, 9, 7, 27
24, 60983, Control_c, 9, 7, 26
24, 61019, Control_c, 9, 7, 25
24, 61055, Control_c, 9, 7, 24
24, 61091, Control_c, 9, 7, 23
24, 61127, Control_c, 9, 7, 22
24, 61163, Control_c, 9, 7, 21
24, 61199, Control_c, 9, 7, 20
24, 61235, Control_c, 9, 7, 19
24, 61271, Control_c, 9, 7, 18
24, 61307, Control_c, 9, 7, 17
24, 61343, Control_c, 9, 7, 16
24, 61379, Control_c, 9, 7, 15
24, 61415, Control_c, 9, 7, 14
24, 61451, Control_c, 9, 7, 13
24, 61487, Control_c, 9, 7, 12
24, 61523, Control_c, 9, 7, 11
24, 61559, Control_c, 9, 7, 10
24, 61595, Control_c, 9, 7, 9
24, 61631, Control_c, 9, 7, 8
24, 61667, Control_c, 9, 7, 7
24, 61703, Control_c, 9, 7, 6
24, 61739, Control_c, 9, 7, 5
24, 61775, Control_c, 9, 7, 4
24, 61811, Control_c, 9, 7, 3
24, 61847, Control_c, 9, 7, 2
24, 61883, Control_c, 9, 7, 1
24, 61919, Control_c, 9, 7, 0
24, 61919, End_track
25, 0, Start_track
25, 0, MIDI_port, 0
25, 0, Title_t, " "
25, 0, Control_c, 9, 7, 110
25, 0, Control_c, 9, 10, 63
25, 180, Note_on_c, 9, 62, 52
25, 194, Note_on_c, 9, 62, 0
25, 240, Note_on_c, 9, 62, 103
25, 254, Note_on_c, 9, 62, 0
25, 300, Note_on_c, 9, 63, 59
25, 314, Note_on_c, 9, 63, 0
25, 720, Note_on_c, 9, 65, 25
25, 734, Note_on_c, 9, 65, 0
25, 780, Note_on_c, 9, 65, 25
25, 794, Note_on_c, 9, 65, 0
25, 840, Note_on_c, 9, 65, 25
25, 854, Note_on_c, 9, 65, 0
25, 900, Note_on_c, 9, 65, 25
25, 914, Note_on_c, 9, 65, 0
25, 1140, Note_on_c, 9, 62, 52
25, 1154, Note_on_c, 9, 62, 0
25, 1200, Note_on_c, 9, 62, 103
25, 1214, Note_on_c, 9, 62, 0
25, 1260, Note_on_c, 9, 63, 59
25, 1274, Note_on_c, 9, 63, 0
25, 1680, Note_on_c, 9, 65, 25
25, 1694, Note_on_c, 9, 65, 0
25, 1740, Note_on_c, 9, 65, 25
25, 1754, Note_on_c, 9, 65, 0
25, 1800, Note_on_c, 9, 65, 25
25, 1814, Note_on_c, 9, 65, 0
25, 1860, Note_on_c, 9, 65, 25
25, 1874, Note_on_c, 9, 65, 0
25, 2100, Note_on_c, 9, 62, 52
25, 2114, Note_on_c, 9, 62, 0
25, 2160, Note_on_c, 9, 62, 103
25, 2174, Note_on_c, 9, 62, 0
25, 2220, Note_on_c, 9, 63, 59
25, 2234, Note_on_c, 9, 63, 0
25, 2640, Note_on_c, 9, 65, 25
25, 2654, Note_on_c, 9, 65, 0
25, 2700, Note_on_c, 9, 65, 25
25, 2714, Note_on_c, 9, 65, 0
25, 2760, Note_on_c, 9, 65, 25
25, 2774, Note_on_c, 9, 65, 0
25, 2820, Note_on_c, 9, 65, 25
25, 2834, Note_on_c, 9, 65, 0
25, 3060, Note_on_c, 9, 62, 52
25, 3074, Note_on_c, 9, 62, 0
25, 3120, Note_on_c, 9, 62, 103
25, 3134, Note_on_c, 9, 62, 0
25, 3180, Note_on_c, 9, 63, 59
25, 3194, Note_on_c, 9, 63, 0
25, 3600, Note_on_c, 9, 65, 25
25, 3614, Note_on_c, 9, 65, 0
25, 3660, Note_on_c, 9, 65, 25
25, 3674, Note_on_c, 9, 65, 0
25, 3720, Note_on_c, 9, 65, 25
25, 3734, Note_on_c, 9, 65, 0
25, 3780, Note_on_c, 9, 65, 25
25, 3794, Note_on_c, 9, 65, 0
25, 4020, Note_on_c, 9, 62, 52
25, 4034, Note_on_c, 9, 62, 0
25, 4080, Note_on_c, 9, 62, 103
25, 4094, Note_on_c, 9, 62, 0
25, 4140, Note_on_c, 9, 63, 59
25, 4154, Note_on_c, 9, 63, 0
25, 4560, Note_on_c, 9, 65, 25
25, 4574, Note_on_c, 9, 65, 0
25, 4620, Note_on_c, 9, 65, 25
25, 4634, Note_on_c, 9, 65, 0
25, 4680, Note_on_c, 9, 65, 25
25, 4694, Note_on_c, 9, 65, 0
25, 4740, Note_on_c, 9, 65, 25
25, 4754, Note_on_c, 9, 65, 0
25, 4980, Note_on_c, 9, 62, 52
25, 4994, Note_on_c, 9, 62, 0
25, 5040, Note_on_c, 9, 62, 103
25, 5054, Note_on_c, 9, 62, 0
25, 5100, Note_on_c, 9, 63, 59
25, 5114, Note_on_c, 9, 63, 0
25, 5520, Note_on_c, 9, 65, 25
25, 5534, Note_on_c, 9, 65, 0
25, 5580, Note_on_c, 9, 65, 25
25, 5594, Note_on_c, 9, 65, 0
25, 5640, Note_on_c, 9, 65, 25
25, 5654, Note_on_c, 9, 65, 0
25, 5700, Note_on_c, 9, 65, 25
25, 5714, Note_on_c, 9, 65, 0
25, 5940, Note_on_c, 9, 62, 52
25, 5954, Note_on_c, 9, 62, 0
25, 6000, Note_on_c, 9, 62, 103
25, 6014, Note_on_c, 9, 62, 0
25, 6060, Note_on_c, 9, 63, 59
25, 6074, Note_on_c, 9, 63, 0
25, 6480, Note_on_c, 9, 65, 25
25, 6494, Note_on_c, 9, 65, 0
25, 6540, Note_on_c, 9, 65, 25
25, 6554, Note_on_c, 9, 65, 0
25, 6600, Note_on_c, 9, 65, 25
25, 6614, Note_on_c, 9, 65, 0
25, 6660, Note_on_c, 9, 65, 25
25, 6674, Note_on_c, 9, 65, 0
25, 6900, Note_on_c, 9, 62, 52
25, 6914, Note_on_c, 9, 62, 0
25, 6960, Note_on_c, 9, 62, 103
25, 6974, Note_on_c, 9, 62, 0
25, 7020, Note_on_c, 9, 63, 59
25, 7034, Note_on_c, 9, 63, 0
25, 7440, Note_on_c, 9, 65, 25
25, 7454, Note_on_c, 9, 65, 0
25, 7500, Note_on_c, 9, 65, 25
25, 7514, Note_on_c, 9, 65, 0
25, 7560, Note_on_c, 9, 65, 25
25, 7574, Note_on_c, 9, 65, 0
25, 7620, Note_on_c, 9, 65, 25
25, 7634, Note_on_c, 9, 65, 0
25, 7860, Note_on_c, 9, 62, 52
25, 7874, Note_on_c, 9, 62, 0
25, 7920, Note_on_c, 9, 62, 103
25, 7934, Note_on_c, 9, 62, 0
25, 7980, Note_on_c, 9, 63, 59
25, 7994, Note_on_c, 9, 63, 0
25, 8400, Note_on_c, 9, 65, 25
25, 8414, Note_on_c, 9, 65, 0
25, 8460, Note_on_c, 9, 65, 25
25, 8474, Note_on_c, 9, 65, 0
25, 8520, Note_on_c, 9, 65, 25
25, 8534, Note_on_c, 9, 65, 0
25, 8580, Note_on_c, 9, 65, 25
25, 8594, Note_on_c, 9, 65, 0
25, 8820, Note_on_c, 9, 62, 52
25, 8834, Note_on_c, 9, 62, 0
25, 8880, Note_on_c, 9, 62, 103
25, 8894, Note_on_c, 9, 62, 0
25, 8940, Note_on_c, 9, 63, 59
25, 8954, Note_on_c, 9, 63, 0
25, 9360, Note_on_c, 9, 65, 25
25, 9374, Note_on_c, 9, 65, 0
25, 9420, Note_on_c, 9, 65, 25
25, 9434, Note_on_c, 9, 65, 0
25, 9480, Note_on_c, 9, 65, 25
25, 9494, Note_on_c, 9, 65, 0
25, 9540, Note_on_c, 9, 65, 25
25, 9554, Note_on_c, 9, 65, 0
25, 9780, Note_on_c, 9, 62, 52
25, 9794, Note_on_c, 9, 62, 0
25, 9840, Note_on_c, 9, 62, 103
25, 9854, Note_on_c, 9, 62, 0
25, 9900, Note_on_c, 9, 63, 59
25, 9914, Note_on_c, 9, 63, 0
25, 10320, Note_on_c, 9, 65, 25
25, 10334, Note_on_c, 9, 65, 0
25, 10380, Note_on_c, 9, 65, 25
25, 10394, Note_on_c, 9, 65, 0
25, 10440, Note_on_c, 9, 65, 25
25, 10454, Note_on_c, 9, 65, 0
25, 10500, Note_on_c, 9, 65, 25
25, 10514, Note_on_c, 9, 65, 0
25, 10740, Note_on_c, 9, 62, 52
25, 10754, Note_on_c, 9, 62, 0
25, 10800, Note_on_c, 9, 62, 103
25, 10814, Note_on_c, 9, 62, 0
25, 10860, Note_on_c, 9, 63, 59
25, 10874, Note_on_c, 9, 63, 0
25, 11280, Note_on_c, 9, 65, 25
25, 11294, Note_on_c, 9, 65, 0
25, 11340, Note_on_c, 9, 65, 25
25, 11354, Note_on_c, 9, 65, 0
25, 11400, Note_on_c, 9, 65, 25
25, 11414, Note_on_c, 9, 65, 0
25, 11460, Note_on_c, 9, 65, 25
25, 11474, Note_on_c, 9, 65, 0
25, 11700, Note_on_c, 9, 62, 52
25, 11714, Note_on_c, 9, 62, 0
25, 11760, Note_on_c, 9, 62, 103
25, 11774, Note_on_c, 9, 62, 0
25, 11820, Note_on_c, 9, 63, 59
25, 11834, Note_on_c, 9, 63, 0
25, 12240, Note_on_c, 9, 65, 25
25, 12254, Note_on_c, 9, 65, 0
25, 12300, Note_on_c, 9, 65, 25
25, 12314, Note_on_c, 9, 65, 0
25, 12360, Note_on_c, 9, 65, 25
25, 12374, Note_on_c, 9, 65, 0
25, 12420, Note_on_c, 9, 65, 25
25, 12434, Note_on_c, 9, 65, 0
25, 12660, Note_on_c, 9, 62, 52
25, 12674, Note_on_c, 9, 62, 0
25, 12720, Note_on_c, 9, 62, 103
25, 12734, Note_on_c, 9, 62, 0
25, 12780, Note_on_c, 9, 63, 59
25, 12794, Note_on_c, 9, 63, 0
25, 13200, Note_on_c, 9, 65, 25
25, 13214, Note_on_c, 9, 65, 0
25, 13260, Note_on_c, 9, 65, 25
25, 13274, Note_on_c, 9, 65, 0
25, 13320, Note_on_c, 9, 65, 25
25, 13334, Note_on_c, 9, 65, 0
25, 13380, Note_on_c, 9, 65, 25
25, 13394, Note_on_c, 9, 65, 0
25, 13620, Note_on_c, 9, 62, 52
25, 13634, Note_on_c, 9, 62, 0
25, 13680, Note_on_c, 9, 62, 103
25, 13694, Note_on_c, 9, 62, 0
25, 13740, Note_on_c, 9, 63, 59
25, 13754, Note_on_c, 9, 63, 0
25, 14160, Note_on_c, 9, 65, 25
25, 14174, Note_on_c, 9, 65, 0
25, 14220, Note_on_c, 9, 65, 25
25, 14234, Note_on_c, 9, 65, 0
25, 14280, Note_on_c, 9, 65, 25
25, 14294, Note_on_c, 9, 65, 0
25, 14340, Note_on_c, 9, 65, 25
25, 14354, Note_on_c, 9, 65, 0
25, 14580, Note_on_c, 9, 62, 52
25, 14594, Note_on_c, 9, 62, 0
25, 14640, Note_on_c, 9, 62, 103
25, 14654, Note_on_c, 9, 62, 0
25, 14700, Note_on_c, 9, 63, 59
25, 14714, Note_on_c, 9, 63, 0
25, 15120, Note_on_c, 9, 65, 25
25, 15134, Note_on_c, 9, 65, 0
25, 15180, Note_on_c, 9, 65, 25
25, 15194, Note_on_c, 9, 65, 0
25, 15240, Note_on_c, 9, 65, 25
25, 15254, Note_on_c, 9, 65, 0
25, 15300, Note_on_c, 9, 65, 25
25, 15314, Note_on_c, 9, 65, 0
25, 15540, Note_on_c, 9, 62, 52
25, 15554, Note_on_c, 9, 62, 0
25, 15600, Note_on_c, 9, 62, 103
25, 15614, Note_on_c, 9, 62, 0
25, 15660, Note_on_c, 9, 63, 59
25, 15674, Note_on_c, 9, 63, 0
25, 16080, Note_on_c, 9, 65, 25
25, 16094, Note_on_c, 9, 65, 0
25, 16140, Note_on_c, 9, 65, 25
25, 16154, Note_on_c, 9, 65, 0
25, 16200, Note_on_c, 9, 65, 25
25, 16214, Note_on_c, 9, 65, 0
25, 16260, Note_on_c, 9, 65, 25
25, 16274, Note_on_c, 9, 65, 0
25, 16500, Note_on_c, 9, 62, 52
25, 16514, Note_on_c, 9, 62, 0
25, 16560, Note_on_c, 9, 62, 103
25, 16574, Note_on_c, 9, 62, 0
25, 16620, Note_on_c, 9, 63, 59
25, 16634, Note_on_c, 9, 63, 0
25, 17040, Note_on_c, 9, 65, 25
25, 17054, Note_on_c, 9, 65, 0
25, 17100, Note_on_c, 9, 65, 25
25, 17114, Note_on_c, 9, 65, 0
25, 17160, Note_on_c, 9, 65, 25
25, 17174, Note_on_c, 9, 65, 0
25, 17220, Note_on_c, 9, 65, 25
25, 17234, Note_on_c, 9, 65, 0
25, 17460, Note_on_c, 9, 62, 52
25, 17474, Note_on_c, 9, 62, 0
25, 17520, Note_on_c, 9, 62, 103
25, 17534, Note_on_c, 9, 62, 0
25, 17580, Note_on_c, 9, 63, 59
25, 17594, Note_on_c, 9, 63, 0
25, 18000, Note_on_c, 9, 65, 25
25, 18014, Note_on_c, 9, 65, 0
25, 18060, Note_on_c, 9, 65, 25
25, 18074, Note_on_c, 9, 65, 0
25, 18120, Note_on_c, 9, 65, 25
25, 18134, Note_on_c, 9, 65, 0
25, 18180, Note_on_c, 9, 65, 25
25, 18194, Note_on_c, 9, 65, 0
25, 18420, Note_on_c, 9, 62, 52
25, 18434, Note_on_c, 9, 62, 0
25, 18480, Note_on_c, 9, 62, 103
25, 18494, Note_on_c, 9, 62, 0
25, 18540, Note_on_c, 9, 63, 59
25, 18554, Note_on_c, 9, 63, 0
25, 18960, Note_on_c, 9, 65, 25
25, 18974, Note_on_c, 9, 65, 0
25, 19020, Note_on_c, 9, 65, 25
25, 19034, Note_on_c, 9, 65, 0
25, 19080, Note_on_c, 9, 65, 25
25, 19094, Note_on_c, 9, 65, 0
25, 19140, Note_on_c, 9, 65, 25
25, 19154, Note_on_c, 9, 65, 0
25, 19380, Note_on_c, 9, 62, 52
25, 19394, Note_on_c, 9, 62, 0
25, 19440, Note_on_c, 9, 62, 103
25, 19454, Note_on_c, 9, 62, 0
25, 19500, Note_on_c, 9, 63, 59
25, 19514, Note_on_c, 9, 63, 0
25, 19920, Note_on_c, 9, 65, 25
25, 19934, Note_on_c, 9, 65, 0
25, 19980, Note_on_c, 9, 65, 25
25, 19994, Note_on_c, 9, 65, 0
25, 20040, Note_on_c, 9, 65, 25
25, 20054, Note_on_c, 9, 65, 0
25, 20100, Note_on_c, 9, 65, 25
25, 20114, Note_on_c, 9, 65, 0
25, 20340, Note_on_c, 9, 62, 52
25, 20354, Note_on_c, 9, 62, 0
25, 20400, Note_on_c, 9, 62, 103
25, 20414, Note_on_c, 9, 62, 0
25, 20460, Note_on_c, 9, 63, 59
25, 20474, Note_on_c, 9, 63, 0
25, 20880, Note_on_c, 9, 65, 25
25, 20894, Note_on_c, 9, 65, 0
25, 20940, Note_on_c, 9, 65, 25
25, 20954, Note_on_c, 9, 65, 0
25, 21000, Note_on_c, 9, 65, 25
25, 21014, Note_on_c, 9, 65, 0
25, 21060, Note_on_c, 9, 65, 25
25, 21074, Note_on_c, 9, 65, 0
25, 21300, Note_on_c, 9, 62, 52
25, 21314, Note_on_c, 9, 62, 0
25, 21360, Note_on_c, 9, 62, 103
25, 21374, Note_on_c, 9, 62, 0
25, 21420, Note_on_c, 9, 63, 59
25, 21434, Note_on_c, 9, 63, 0
25, 21840, Note_on_c, 9, 65, 25
25, 21854, Note_on_c, 9, 65, 0
25, 21900, Note_on_c, 9, 65, 25
25, 21914, Note_on_c, 9, 65, 0
25, 21960, Note_on_c, 9, 65, 25
25, 21974, Note_on_c, 9, 65, 0
25, 22020, Note_on_c, 9, 65, 25
25, 22034, Note_on_c, 9, 65, 0
25, 22260, Note_on_c, 9, 62, 52
25, 22274, Note_on_c, 9, 62, 0
25, 22320, Note_on_c, 9, 62, 103
25, 22334, Note_on_c, 9, 62, 0
25, 22380, Note_on_c, 9, 63, 59
25, 22394, Note_on_c, 9, 63, 0
25, 22800, Note_on_c, 9, 65, 25
25, 22814, Note_on_c, 9, 65, 0
25, 22860, Note_on_c, 9, 65, 25
25, 22874, Note_on_c, 9, 65, 0
25, 22920, Note_on_c, 9, 65, 25
25, 22934, Note_on_c, 9, 65, 0
25, 22980, Note_on_c, 9, 65, 25
25, 22994, Note_on_c, 9, 65, 0
25, 23220, Note_on_c, 9, 62, 52
25, 23234, Note_on_c, 9, 62, 0
25, 23280, Note_on_c, 9, 62, 103
25, 23294, Note_on_c, 9, 62, 0
25, 23340, Note_on_c, 9, 63, 59
25, 23354, Note_on_c, 9, 63, 0
25, 23760, Note_on_c, 9, 65, 25
25, 23774, Note_on_c, 9, 65, 0
25, 23820, Note_on_c, 9, 65, 25
25, 23834, Note_on_c, 9, 65, 0
25, 23880, Note_on_c, 9, 65, 25
25, 23894, Note_on_c, 9, 65, 0
25, 23940, Note_on_c, 9, 65, 25
25, 23954, Note_on_c, 9, 65, 0
25, 24180, Note_on_c, 9, 62, 52
25, 24194, Note_on_c, 9, 62, 0
25, 24240, Note_on_c, 9, 62, 103
25, 24254, Note_on_c, 9, 62, 0
25, 24300, Note_on_c, 9, 63, 59
25, 24314, Note_on_c, 9, 63, 0
25, 24720, Note_on_c, 9, 65, 25
25, 24734, Note_on_c, 9, 65, 0
25, 24780, Note_on_c, 9, 65, 25
25, 24794, Note_on_c, 9, 65, 0
25, 24840, Note_on_c, 9, 65, 25
25, 24854, Note_on_c, 9, 65, 0
25, 24900, Note_on_c, 9, 65, 25
25, 24914, Note_on_c, 9, 65, 0
25, 25140, Note_on_c, 9, 62, 52
25, 25154, Note_on_c, 9, 62, 0
25, 25200, Note_on_c, 9, 62, 103
25, 25214, Note_on_c, 9, 62, 0
25, 25260, Note_on_c, 9, 63, 59
25, 25274, Note_on_c, 9, 63, 0
25, 25680, Note_on_c, 9, 65, 25
25, 25694, Note_on_c, 9, 65, 0
25, 25740, Note_on_c, 9, 65, 25
25, 25754, Note_on_c, 9, 65, 0
25, 25800, Note_on_c, 9, 65, 25
25, 25814, Note_on_c, 9, 65, 0
25, 25860, Note_on_c, 9, 65, 25
25, 25874, Note_on_c, 9, 65, 0
25, 26100, Note_on_c, 9, 62, 52
25, 26114, Note_on_c, 9, 62, 0
25, 26160, Note_on_c, 9, 62, 103
25, 26174, Note_on_c, 9, 62, 0
25, 26220, Note_on_c, 9, 63, 59
25, 26234, Note_on_c, 9, 63, 0
25, 26640, Note_on_c, 9, 65, 25
25, 26654, Note_on_c, 9, 65, 0
25, 26700, Note_on_c, 9, 65, 25
25, 26714, Note_on_c, 9, 65, 0
25, 26760, Note_on_c, 9, 65, 25
25, 26774, Note_on_c, 9, 65, 0
25, 26820, Note_on_c, 9, 65, 25
25, 26834, Note_on_c, 9, 65, 0
25, 27060, Note_on_c, 9, 62, 52
25, 27074, Note_on_c, 9, 62, 0
25, 27120, Note_on_c, 9, 62, 103
25, 27134, Note_on_c, 9, 62, 0
25, 27180, Note_on_c, 9, 63, 59
25, 27194, Note_on_c, 9, 63, 0
25, 27600, Note_on_c, 9, 65, 25
25, 27614, Note_on_c, 9, 65, 0
25, 27660, Note_on_c, 9, 65, 25
25, 27674, Note_on_c, 9, 65, 0
25, 27720, Note_on_c, 9, 65, 25
25, 27734, Note_on_c, 9, 65, 0
25, 27780, Note_on_c, 9, 65, 25
25, 27794, Note_on_c, 9, 65, 0
25, 28020, Note_on_c, 9, 62, 52
25, 28034, Note_on_c, 9, 62, 0
25, 28080, Note_on_c, 9, 62, 103
25, 28094, Note_on_c, 9, 62, 0
25, 28140, Note_on_c, 9, 63, 59
25, 28154, Note_on_c, 9, 63, 0
25, 28560, Note_on_c, 9, 65, 25
25, 28574, Note_on_c, 9, 65, 0
25, 28620, Note_on_c, 9, 65, 25
25, 28634, Note_on_c, 9, 65, 0
25, 28680, Note_on_c, 9, 65, 25
25, 28694, Note_on_c, 9, 65, 0
25, 28740, Note_on_c, 9, 65, 25
25, 28754, Note_on_c, 9, 65, 0
25, 28980, Note_on_c, 9, 62, 52
25, 28994, Note_on_c, 9, 62, 0
25, 29040, Note_on_c, 9, 62, 103
25, 29054, Note_on_c, 9, 62, 0
25, 29100, Note_on_c, 9, 63, 59
25, 29114, Note_on_c, 9, 63, 0
25, 29520, Note_on_c, 9, 65, 25
25, 29534, Note_on_c, 9, 65, 0
25, 29580, Note_on_c, 9, 65, 25
25, 29594, Note_on_c, 9, 65, 0
25, 29640, Note_on_c, 9, 65, 25
25, 29654, Note_on_c, 9, 65, 0
25, 29700, Note_on_c, 9, 65, 25
25, 29714, Note_on_c, 9, 65, 0
25, 29940, Note_on_c, 9, 62, 52
25, 29954, Note_on_c, 9, 62, 0
25, 30000, Note_on_c, 9, 62, 103
25, 30014, Note_on_c, 9, 62, 0
25, 30060, Note_on_c, 9, 63, 59
25, 30074, Note_on_c, 9, 63, 0
25, 30480, Note_on_c, 9, 65, 25
25, 30494, Note_on_c, 9, 65, 0
25, 30540, Note_on_c, 9, 65, 25
25, 30554, Note_on_c, 9, 65, 0
25, 30600, Note_on_c, 9, 65, 25
25, 30614, Note_on_c, 9, 65, 0
25, 30660, Note_on_c, 9, 65, 25
25, 30674, Note_on_c, 9, 65, 0
25, 30900, Note_on_c, 9, 62, 52
25, 30914, Note_on_c, 9, 62, 0
25, 30960, Note_on_c, 9, 62, 103
25, 30974, Note_on_c, 9, 62, 0
25, 31020, Note_on_c, 9, 63, 59
25, 31034, Note_on_c, 9, 63, 0
25, 31440, Note_on_c, 9, 65, 25
25, 31454, Note_on_c, 9, 65, 0
25, 31500, Note_on_c, 9, 65, 25
25, 31514, Note_on_c, 9, 65, 0
25, 31560, Note_on_c, 9, 65, 25
25, 31574, Note_on_c, 9, 65, 0
25, 31620, Note_on_c, 9, 65, 25
25, 31634, Note_on_c, 9, 65, 0
25, 31860, Note_on_c, 9, 62, 52
25, 31874, Note_on_c, 9, 62, 0
25, 31920, Note_on_c, 9, 62, 103
25, 31934, Note_on_c, 9, 62, 0
25, 31980, Note_on_c, 9, 63, 59
25, 31994, Note_on_c, 9, 63, 0
25, 32400, Note_on_c, 9, 65, 25
25, 32414, Note_on_c, 9, 65, 0
25, 32460, Note_on_c, 9, 65, 25
25, 32474, Note_on_c, 9, 65, 0
25, 32520, Note_on_c, 9, 65, 25
25, 32534, Note_on_c, 9, 65, 0
25, 32580, Note_on_c, 9, 65, 25
25, 32594, Note_on_c, 9, 65, 0
25, 32820, Note_on_c, 9, 62, 52
25, 32834, Note_on_c, 9, 62, 0
25, 32880, Note_on_c, 9, 62, 103
25, 32894, Note_on_c, 9, 62, 0
25, 32940, Note_on_c, 9, 63, 59
25, 32954, Note_on_c, 9, 63, 0
25, 33360, Note_on_c, 9, 65, 25
25, 33374, Note_on_c, 9, 65, 0
25, 33420, Note_on_c, 9, 65, 25
25, 33434, Note_on_c, 9, 65, 0
25, 33480, Note_on_c, 9, 65, 25
25, 33494, Note_on_c, 9, 65, 0
25, 33540, Note_on_c, 9, 65, 25
25, 33554, Note_on_c, 9, 65, 0
25, 33780, Note_on_c, 9, 62, 52
25, 33794, Note_on_c, 9, 62, 0
25, 33840, Note_on_c, 9, 62, 103
25, 33854, Note_on_c, 9, 62, 0
25, 33900, Note_on_c, 9, 63, 59
25, 33914, Note_on_c, 9, 63, 0
25, 34320, Note_on_c, 9, 65, 25
25, 34334, Note_on_c, 9, 65, 0
25, 34380, Note_on_c, 9, 65, 25
25, 34394, Note_on_c, 9, 65, 0
25, 34440, Note_on_c, 9, 65, 25
25, 34454, Note_on_c, 9, 65, 0
25, 34500, Note_on_c, 9, 65, 25
25, 34514, Note_on_c, 9, 65, 0
25, 34740, Note_on_c, 9, 62, 52
25, 34754, Note_on_c, 9, 62, 0
25, 34800, Note_on_c, 9, 62, 103
25, 34814, Note_on_c, 9, 62, 0
25, 34860, Note_on_c, 9, 63, 59
25, 34874, Note_on_c, 9, 63, 0
25, 35280, Note_on_c, 9, 65, 25
25, 35294, Note_on_c, 9, 65, 0
25, 35340, Note_on_c, 9, 65, 25
25, 35354, Note_on_c, 9, 65, 0
25, 35400, Note_on_c, 9, 65, 25
25, 35414, Note_on_c, 9, 65, 0
25, 35460, Note_on_c, 9, 65, 25
25, 35474, Note_on_c, 9, 65, 0
25, 35700, Note_on_c, 9, 62, 52
25, 35714, Note_on_c, 9, 62, 0
25, 35760, Note_on_c, 9, 62, 103
25, 35774, Note_on_c, 9, 62, 0
25, 35820, Note_on_c, 9, 63, 59
25, 35834, Note_on_c, 9, 63, 0
25, 36240, Note_on_c, 9, 65, 25
25, 36254, Note_on_c, 9, 65, 0
25, 36300, Note_on_c, 9, 65, 25
25, 36314, Note_on_c, 9, 65, 0
25, 36360, Note_on_c, 9, 65, 25
25, 36374, Note_on_c, 9, 65, 0
25, 36420, Note_on_c, 9, 65, 25
25, 36434, Note_on_c, 9, 65, 0
25, 36660, Note_on_c, 9, 62, 52
25, 36674, Note_on_c, 9, 62, 0
25, 36720, Note_on_c, 9, 62, 103
25, 36734, Note_on_c, 9, 62, 0
25, 36780, Note_on_c, 9, 63, 59
25, 36794, Note_on_c, 9, 63, 0
25, 37200, Note_on_c, 9, 65, 25
25, 37214, Note_on_c, 9, 65, 0
25, 37260, Note_on_c, 9, 65, 25
25, 37274, Note_on_c, 9, 65, 0
25, 37320, Note_on_c, 9, 65, 25
25, 37334, Note_on_c, 9, 65, 0
25, 37380, Note_on_c, 9, 65, 25
25, 37394, Note_on_c, 9, 65, 0
25, 37620, Note_on_c, 9, 62, 52
25, 37634, Note_on_c, 9, 62, 0
25, 37680, Note_on_c, 9, 62, 103
25, 37694, Note_on_c, 9, 62, 0
25, 37740, Note_on_c, 9, 63, 59
25, 37754, Note_on_c, 9, 63, 0
25, 38160, Note_on_c, 9, 65, 25
25, 38174, Note_on_c, 9, 65, 0
25, 38220, Note_on_c, 9, 65, 25
25, 38234, Note_on_c, 9, 65, 0
25, 38280, Note_on_c, 9, 65, 25
25, 38294, Note_on_c, 9, 65, 0
25, 38340, Note_on_c, 9, 65, 25
25, 38354, Note_on_c, 9, 65, 0
25, 38580, Note_on_c, 9, 62, 52
25, 38594, Note_on_c, 9, 62, 0
25, 38640, Note_on_c, 9, 62, 103
25, 38654, Note_on_c, 9, 62, 0
25, 38700, Note_on_c, 9, 63, 59
25, 38714, Note_on_c, 9, 63, 0
25, 39120, Note_on_c, 9, 65, 25
25, 39134, Note_on_c, 9, 65, 0
25, 39180, Note_on_c, 9, 65, 25
25, 39194, Note_on_c, 9, 65, 0
25, 39240, Note_on_c, 9, 65, 25
25, 39254, Note_on_c, 9, 65, 0
25, 39300, Note_on_c, 9, 65, 25
25, 39314, Note_on_c, 9, 65, 0
25, 39540, Note_on_c, 9, 62, 52
25, 39554, Note_on_c, 9, 62, 0
25, 39600, Note_on_c, 9, 62, 103
25, 39614, Note_on_c, 9, 62, 0
25, 39660, Note_on_c, 9, 63, 59
25, 39674, Note_on_c, 9, 63, 0
25, 40080, Note_on_c, 9, 65, 25
25, 40094, Note_on_c, 9, 65, 0
25, 40140, Note_on_c, 9, 65, 25
25, 40154, Note_on_c, 9, 65, 0
25, 40200, Note_on_c, 9, 65, 25
25, 40214, Note_on_c, 9, 65, 0
25, 40260, Note_on_c, 9, 65, 25
25, 40274, Note_on_c, 9, 65, 0
25, 40500, Note_on_c, 9, 62, 52
25, 40514, Note_on_c, 9, 62, 0
25, 40560, Note_on_c, 9, 62, 103
25, 40574, Note_on_c, 9, 62, 0
25, 40620, Note_on_c, 9, 63, 59
25, 40634, Note_on_c, 9, 63, 0
25, 41040, Note_on_c, 9, 65, 25
25, 41054, Note_on_c, 9, 65, 0
25, 41100, Note_on_c, 9, 65, 25
25, 41114, Note_on_c, 9, 65, 0
25, 41160, Note_on_c, 9, 65, 25
25, 41174, Note_on_c, 9, 65, 0
25, 41220, Note_on_c, 9, 65, 25
25, 41234, Note_on_c, 9, 65, 0
25, 41460, Note_on_c, 9, 62, 52
25, 41474, Note_on_c, 9, 62, 0
25, 41520, Note_on_c, 9, 62, 103
25, 41534, Note_on_c, 9, 62, 0
25, 41580, Note_on_c, 9, 63, 59
25, 41594, Note_on_c, 9, 63, 0
25, 42000, Note_on_c, 9, 65, 25
25, 42014, Note_on_c, 9, 65, 0
25, 42060, Note_on_c, 9, 65, 25
25, 42074, Note_on_c, 9, 65, 0
25, 42120, Note_on_c, 9, 65, 25
25, 42134, Note_on_c, 9, 65, 0
25, 42180, Note_on_c, 9, 65, 25
25, 42194, Note_on_c, 9, 65, 0
25, 42420, Note_on_c, 9, 62, 52
25, 42434, Note_on_c, 9, 62, 0
25, 42480, Note_on_c, 9, 62, 103
25, 42494, Note_on_c, 9, 62, 0
25, 42540, Note_on_c, 9, 63, 59
25, 42554, Note_on_c, 9, 63, 0
25, 42960, Note_on_c, 9, 65, 25
25, 42974, Note_on_c, 9, 65, 0
25, 43020, Note_on_c, 9, 65, 25
25, 43034, Note_on_c, 9, 65, 0
25, 43080, Note_on_c, 9, 65, 25
25, 43094, Note_on_c, 9, 65, 0
25, 43140, Note_on_c, 9, 65, 25
25, 43154, Note_on_c, 9, 65, 0
25, 43380, Note_on_c, 9, 62, 52
25, 43394, Note_on_c, 9, 62, 0
25, 43440, Note_on_c, 9, 62, 103
25, 43454, Note_on_c, 9, 62, 0
25, 43500, Note_on_c, 9, 63, 59
25, 43514, Note_on_c, 9, 63, 0
25, 43920, Note_on_c, 9, 65, 25
25, 43934, Note_on_c, 9, 65, 0
25, 43980, Note_on_c, 9, 65, 25
25, 43994, Note_on_c, 9, 65, 0
25, 44040, Note_on_c, 9, 65, 25
25, 44054, Note_on_c, 9, 65, 0
25, 44100, Note_on_c, 9, 65, 25
25, 44114, Note_on_c, 9, 65, 0
25, 44340, Note_on_c, 9, 62, 52
25, 44354, Note_on_c, 9, 62, 0
25, 44400, Note_on_c, 9, 62, 103
25, 44414, Note_on_c, 9, 62, 0
25, 44460, Note_on_c, 9, 63, 59
25, 44474, Note_on_c, 9, 63, 0
25, 44880, Note_on_c, 9, 65, 25
25, 44894, Note_on_c, 9, 65, 0
25, 44940, Note_on_c, 9, 65, 25
25, 44954, Note_on_c, 9, 65, 0
25, 45000, Note_on_c, 9, 65, 25
25, 45014, Note_on_c, 9, 65, 0
25, 45060, Note_on_c, 9, 65, 25
25, 45074, Note_on_c, 9, 65, 0
25, 45300, Note_on_c, 9, 62, 52
25, 45314, Note_on_c, 9, 62, 0
25, 45360, Note_on_c, 9, 62, 103
25, 45374, Note_on_c, 9, 62, 0
25, 45420, Note_on_c, 9, 63, 59
25, 45434, Note_on_c, 9, 63, 0
25, 45840, Note_on_c, 9, 65, 25
25, 45854, Note_on_c, 9, 65, 0
25, 45900, Note_on_c, 9, 65, 25
25, 45914, Note_on_c, 9, 65, 0
25, 45960, Note_on_c, 9, 65, 25
25, 45974, Note_on_c, 9, 65, 0
25, 46020, Note_on_c, 9, 65, 25
25, 46034, Note_on_c, 9, 65, 0
25, 46260, Note_on_c, 9, 62, 52
25, 46274, Note_on_c, 9, 62, 0
25, 46320, Note_on_c, 9, 62, 103
25, 46334, Note_on_c, 9, 62, 0
25, 46380, Note_on_c, 9, 63, 59
25, 46394, Note_on_c, 9, 63, 0
25, 46800, Note_on_c, 9, 65, 25
25, 46814, Note_on_c, 9, 65, 0
25, 46860, Note_on_c, 9, 65, 25
25, 46874, Note_on_c, 9, 65, 0
25, 46920, Note_on_c, 9, 65, 25
25, 46934, Note_on_c, 9, 65, 0
25, 46980, Note_on_c, 9, 65, 25
25, 46994, Note_on_c, 9, 65, 0
25, 47220, Note_on_c, 9, 62, 52
25, 47234, Note_on_c, 9, 62, 0
25, 47280, Note_on_c, 9, 62, 103
25, 47294, Note_on_c, 9, 62, 0
25, 47340, Note_on_c, 9, 63, 59
25, 47354, Note_on_c, 9, 63, 0
25, 47760, Note_on_c, 9, 65, 25
25, 47774, Note_on_c, 9, 65, 0
25, 47820, Note_on_c, 9, 65, 25
25, 47834, Note_on_c, 9, 65, 0
25, 47880, Note_on_c, 9, 65, 25
25, 47894, Note_on_c, 9, 65, 0
25, 47940, Note_on_c, 9, 65, 25
25, 47954, Note_on_c, 9, 65, 0
25, 48180, Note_on_c, 9, 62, 52
25, 48194, Note_on_c, 9, 62, 0
25, 48240, Note_on_c, 9, 62, 103
25, 48254, Note_on_c, 9, 62, 0
25, 48300, Note_on_c, 9, 63, 59
25, 48314, Note_on_c, 9, 63, 0
25, 48720, Note_on_c, 9, 65, 25
25, 48734, Note_on_c, 9, 65, 0
25, 48780, Note_on_c, 9, 65, 25
25, 48794, Note_on_c, 9, 65, 0
25, 48840, Note_on_c, 9, 65, 25
25, 48854, Note_on_c, 9, 65, 0
25, 48900, Note_on_c, 9, 65, 25
25, 48914, Note_on_c, 9, 65, 0
25, 49140, Note_on_c, 9, 62, 52
25, 49154, Note_on_c, 9, 62, 0
25, 49200, Note_on_c, 9, 62, 103
25, 49214, Note_on_c, 9, 62, 0
25, 49260, Note_on_c, 9, 63, 59
25, 49274, Note_on_c, 9, 63, 0
25, 49680, Note_on_c, 9, 65, 25
25, 49694, Note_on_c, 9, 65, 0
25, 49740, Note_on_c, 9, 65, 25
25, 49754, Note_on_c, 9, 65, 0
25, 49800, Note_on_c, 9, 65, 25
25, 49814, Note_on_c, 9, 65, 0
25, 49860, Note_on_c, 9, 65, 25
25, 49874, Note_on_c, 9, 65, 0
25, 50100, Note_on_c, 9, 62, 52
25, 50114, Note_on_c, 9, 62, 0
25, 50160, Note_on_c, 9, 62, 103
25, 50174, Note_on_c, 9, 62, 0
25, 50220, Note_on_c, 9, 63, 59
25, 50234, Note_on_c, 9, 63, 0
25, 50640, Note_on_c, 9, 65, 25
25, 50654, Note_on_c, 9, 65, 0
25, 50700, Note_on_c, 9, 65, 25
25, 50714, Note_on_c, 9, 65, 0
25, 50760, Note_on_c, 9, 65, 25
25, 50774, Note_on_c, 9, 65, 0
25, 50820, Note_on_c, 9, 65, 25
25, 50834, Note_on_c, 9, 65, 0
25, 51060, Note_on_c, 9, 62, 52
25, 51074, Note_on_c, 9, 62, 0
25, 51120, Note_on_c, 9, 62, 103
25, 51134, Note_on_c, 9, 62, 0
25, 51180, Note_on_c, 9, 63, 59
25, 51194, Note_on_c, 9, 63, 0
25, 51600, Note_on_c, 9, 65, 25
25, 51614, Note_on_c, 9, 65, 0
25, 51660, Note_on_c, 9, 65, 25
25, 51674, Note_on_c, 9, 65, 0
25, 51720, Note_on_c, 9, 65, 25
25, 51734, Note_on_c, 9, 65, 0
25, 51780, Note_on_c, 9, 65, 25
25, 51794, Note_on_c, 9, 65, 0
25, 52020, Note_on_c, 9, 62, 52
25, 52034, Note_on_c, 9, 62, 0
25, 52080, Note_on_c, 9, 62, 103
25, 52094, Note_on_c, 9, 62, 0
25, 52140, Note_on_c, 9, 63, 59
25, 52154, Note_on_c, 9, 63, 0
25, 52560, Note_on_c, 9, 65, 25
25, 52574, Note_on_c, 9, 65, 0
25, 52620, Note_on_c, 9, 65, 25
25, 52634, Note_on_c, 9, 65, 0
25, 52680, Note_on_c, 9, 65, 25
25, 52694, Note_on_c, 9, 65, 0
25, 52740, Note_on_c, 9, 65, 25
25, 52754, Note_on_c, 9, 65, 0
25, 52980, Note_on_c, 9, 62, 52
25, 52994, Note_on_c, 9, 62, 0
25, 53040, Note_on_c, 9, 62, 103
25, 53054, Note_on_c, 9, 62, 0
25, 53100, Note_on_c, 9, 63, 59
25, 53114, Note_on_c, 9, 63, 0
25, 53520, Note_on_c, 9, 65, 25
25, 53534, Note_on_c, 9, 65, 0
25, 53580, Note_on_c, 9, 65, 25
25, 53594, Note_on_c, 9, 65, 0
25, 53640, Note_on_c, 9, 65, 25
25, 53654, Note_on_c, 9, 65, 0
25, 53700, Note_on_c, 9, 65, 25
25, 53714, Note_on_c, 9, 65, 0
25, 53940, Note_on_c, 9, 62, 52
25, 53954, Note_on_c, 9, 62, 0
25, 54000, Note_on_c, 9, 62, 103
25, 54014, Note_on_c, 9, 62, 0
25, 54060, Note_on_c, 9, 63, 59
25, 54074, Note_on_c, 9, 63, 0
25, 54480, Note_on_c, 9, 65, 25
25, 54494, Note_on_c, 9, 65, 0
25, 54540, Note_on_c, 9, 65, 25
25, 54554, Note_on_c, 9, 65, 0
25, 54600, Note_on_c, 9, 65, 25
25, 54614, Note_on_c, 9, 65, 0
25, 54660, Note_on_c, 9, 65, 25
25, 54674, Note_on_c, 9, 65, 0
25, 54900, Note_on_c, 9, 62, 52
25, 54914, Note_on_c, 9, 62, 0
25, 54960, Note_on_c, 9, 62, 103
25, 54974, Note_on_c, 9, 62, 0
25, 55020, Note_on_c, 9, 63, 59
25, 55034, Note_on_c, 9, 63, 0
25, 55440, Note_on_c, 9, 65, 25
25, 55454, Note_on_c, 9, 65, 0
25, 55500, Note_on_c, 9, 65, 25
25, 55514, Note_on_c, 9, 65, 0
25, 55560, Note_on_c, 9, 65, 25
25, 55574, Note_on_c, 9, 65, 0
25, 55620, Note_on_c, 9, 65, 25
25, 55634, Note_on_c, 9, 65, 0
25, 55860, Note_on_c, 9, 62, 52
25, 55874, Note_on_c, 9, 62, 0
25, 55920, Note_on_c, 9, 62, 103
25, 55934, Note_on_c, 9, 62, 0
25, 55980, Note_on_c, 9, 63, 59
25, 55994, Note_on_c, 9, 63, 0
25, 56400, Note_on_c, 9, 65, 25
25, 56414, Note_on_c, 9, 65, 0
25, 56460, Note_on_c, 9, 65, 25
25, 56474, Note_on_c, 9, 65, 0
25, 56520, Note_on_c, 9, 65, 25
25, 56534, Note_on_c, 9, 65, 0
25, 56580, Note_on_c, 9, 65, 25
25, 56594, Note_on_c, 9, 65, 0
25, 56820, Note_on_c, 9, 62, 52
25, 56834, Note_on_c, 9, 62, 0
25, 56880, Note_on_c, 9, 62, 103
25, 56894, Note_on_c, 9, 62, 0
25, 56940, Note_on_c, 9, 63, 59
25, 56954, Note_on_c, 9, 63, 0
25, 57360, Note_on_c, 9, 65, 25
25, 57374, Note_on_c, 9, 65, 0
25, 57420, Note_on_c, 9, 65, 25
25, 57434, Note_on_c, 9, 65, 0
25, 57480, Note_on_c, 9, 65, 25
25, 57494, Note_on_c, 9, 65, 0
25, 57540, Note_on_c, 9, 65, 25
25, 57554, Note_on_c, 9, 65, 0
25, 57780, Note_on_c, 9, 62, 52
25, 57794, Note_on_c, 9, 62, 0
25, 57840, Note_on_c, 9, 62, 103
25, 57854, Note_on_c, 9, 62, 0
25, 57900, Note_on_c, 9, 63, 59
25, 57914, Note_on_c, 9, 63, 0
25, 58320, Note_on_c, 9, 65, 25
25, 58334, Note_on_c, 9, 65, 0
25, 58380, Note_on_c, 9, 65, 25
25, 58394, Note_on_c, 9, 65, 0
25, 58440, Note_on_c, 9, 65, 25
25, 58454, Note_on_c, 9, 65, 0
25, 58500, Note_on_c, 9, 65, 25
25, 58514, Note_on_c, 9, 65, 0
25, 58740, Note_on_c, 9, 62, 52
25, 58754, Note_on_c, 9, 62, 0
25, 58800, Note_on_c, 9, 62, 103
25, 58814, Note_on_c, 9, 62, 0
25, 58860, Note_on_c, 9, 63, 59
25, 58874, Note_on_c, 9, 63, 0
25, 59040, Control_c, 9, 7, 80
25, 59075, Control_c, 9, 7, 79
25, 59111, Control_c, 9, 7, 78
25, 59147, Control_c, 9, 7, 77
25, 59183, Control_c, 9, 7, 76
25, 59219, Control_c, 9, 7, 75
25, 59255, Control_c, 9, 7, 74
25, 59280, Note_on_c, 9, 65, 25
25, 59291, Control_c, 9, 7, 73
25, 59294, Note_on_c, 9, 65, 0
25, 59327, Control_c, 9, 7, 72
25, 59340, Note_on_c, 9, 65, 25
25, 59354, Note_on_c, 9, 65, 0
25, 59363, Control_c, 9, 7, 71
25, 59399, Control_c, 9, 7, 70
25, 59400, Note_on_c, 9, 65, 25
25, 59414, Note_on_c, 9, 65, 0
25, 59435, Control_c, 9, 7, 69
25, 59460, Note_on_c, 9, 65, 25
25, 59471, Control_c, 9, 7, 68
25, 59474, Note_on_c, 9, 65, 0
25, 59507, Control_c, 9, 7, 67
25, 59543, Control_c, 9, 7, 66
25, 59579, Control_c, 9, 7, 65
25, 59615, Control_c, 9, 7, 64
25, 59651, Control_c, 9, 7, 63
25, 59687, Control_c, 9, 7, 62
25, 59700, Note_on_c, 9, 62, 52
25, 59714, Note_on_c, 9, 62, 0
25, 59723, Control_c, 9, 7, 61
25, 59759, Control_c, 9, 7, 60
25, 59760, Note_on_c, 9, 62, 103
25, 59774, Note_on_c, 9, 62, 0
25, 59795, Control_c, 9, 7, 59
25, 59820, Note_on_c, 9, 63, 59
25, 59831, Control_c, 9, 7, 58
25, 59834, Note_on_c, 9, 63, 0
25, 59867, Control_c, 9, 7, 57
25, 59903, Control_c, 9, 7, 56
25, 59939, Control_c, 9, 7, 55
25, 59975, Control_c, 9, 7, 54
25, 60011, Control_c, 9, 7, 53
25, 60047, Control_c, 9, 7, 52
25, 60083, Control_c, 9, 7, 51
25, 60119, Control_c, 9, 7, 50
25, 60155, Control_c, 9, 7, 49
25, 60191, Control_c, 9, 7, 48
25, 60227, Control_c, 9, 7, 47
25, 60240, Note_on_c, 9, 65, 25
25, 60254, Note_on_c, 9, 65, 0
25, 60263, Control_c, 9, 7, 46
25, 60299, Control_c, 9, 7, 45
25, 60300, Note_on_c, 9, 65, 25
25, 60314, Note_on_c, 9, 65, 0
25, 60335, Control_c, 9, 7, 44
25, 60360, Note_on_c, 9, 65, 25
25, 60371, Control_c, 9, 7, 43
25, 60374, Note_on_c, 9, 65, 0
25, 60407, Control_c, 9, 7, 42
25, 60420, Note_on_c, 9, 65, 25
25, 60434, Note_on_c, 9, 65, 0
25, 60443, Control_c, 9, 7, 41
25, 60479, Control_c, 9, 7, 40
25, 60515, Control_c, 9, 7, 39
25, 60551, Control_c, 9, 7, 38
25, 60587, Control_c, 9, 7, 37
25, 60623, Control_c, 9, 7, 36
25, 60659, Control_c, 9, 7, 35
25, 60660, Note_on_c, 9, 62, 52
25, 60674, Note_on_c, 9, 62, 0
25, 60695, Control_c, 9, 7, 34
25, 60720, Note_on_c, 9, 62, 103
25, 60731, Control_c, 9, 7, 33
25, 60734, Note_on_c, 9, 62, 0
25, 60767, Control_c, 9, 7, 32
25, 60780, Note_on_c, 9, 63, 59
25, 60794, Note_on_c, 9, 63, 0
25, 60803, Control_c, 9, 7, 31
25, 60839, Control_c, 9, 7, 30
25, 60875, Control_c, 9, 7, 29
25, 60911, Control_c, 9, 7, 28
25, 60947, Control_c, 9, 7, 27
25, 60983, Control_c, 9, 7, 26
25, 61019, Control_c, 9, 7, 25
25, 61055, Control_c, 9, 7, 24
25, 61091, Control_c, 9, 7, 23
25, 61127, Control_c, 9, 7, 22
25, 61163, Control_c, 9, 7, 21
25, 61199, Control_c, 9, 7, 20
25, 61200, Note_on_c, 9, 65, 25
25, 61214, Note_on_c, 9, 65, 0
25, 61235, Control_c, 9, 7, 19
25, 61260, Note_on_c, 9, 65, 25
25, 61271, Control_c, 9, 7, 18
25, 61274, Note_on_c, 9, 65, 0
25, 61307, Control_c, 9, 7, 17
25, 61320, Note_on_c, 9, 65, 25
25, 61334, Note_on_c, 9, 65, 0
25, 61343, Control_c, 9, 7, 16
25, 61379, Control_c, 9, 7, 15
25, 61380, Note_on_c, 9, 65, 25
25, 61394, Note_on_c, 9, 65, 0
25, 61415, Control_c, 9, 7, 14
25, 61451, Control_c, 9, 7, 13
25, 61487, Control_c, 9, 7, 12
25, 61523, Control_c, 9, 7, 11
25, 61559, Control_c, 9, 7, 10
25, 61595, Control_c, 9, 7, 9
25, 61631, Control_c, 9, 7, 8
25, 61667, Control_c, 9, 7, 7
25, 61703, Control_c, 9, 7, 6
25, 61739, Control_c, 9, 7, 5
25, 61775, Control_c, 9, 7, 4
25, 61811, Control_c, 9, 7, 3
25, 61847, Control_c, 9, 7, 2
25, 61883, Control_c, 9, 7, 1
25, 61919, Control_c, 9, 7, 0
25, 61919, End_track
0, 0, End_of_file
