0, 0, Header, 1, 11, 384
1, 0, Start_track
1, 0, Tempo, 465110
1, 0, Time_signature, 4, 2, 24, 8
1, 150528, End_track
2, 0, Start_track
2, 0, Title_t, "Fine brow"
2, 1, Control_c, 15, 7, 64
2, 1, Control_c, 14, 7, 127
2, 1, Control_c, 13, 7, 127
2, 1, Control_c, 12, 7, 127
2, 1, Control_c, 11, 7, 127
2, 1, Control_c, 10, 7, 127
2, 1, Control_c, 9, 7, 127
2, 1, Control_c, 8, 7, 127
2, 1, Control_c, 7, 7, 127
2, 1, Control_c, 6, 7, 127
2, 1, Control_c, 5, 7, 127
2, 1, Control_c, 4, 7, 127
2, 1, Control_c, 3, 7, 127
2, 1, Control_c, 2, 7, 127
2, 1, Control_c, 1, 7, 127
2, 1, Control_c, 0, 7, 127
2, 1, Control_c, 0, 10, 64
2, 1, Control_c, 1, 10, 64
2, 1, Control_c, 2, 10, 64
2, 1, Control_c, 3, 10, 64
2, 1, Control_c, 4, 10, 64
2, 1, Control_c, 5, 10, 64
2, 1, Control_c, 6, 10, 64
2, 1, Control_c, 7, 10, 64
2, 1, Control_c, 15, 10, 64
2, 1, Control_c, 14, 10, 64
2, 1, Control_c, 13, 10, 64
2, 1, Control_c, 12, 10, 64
2, 1, Control_c, 11, 10, 64
2, 1, Control_c, 10, 10, 64
2, 1, Control_c, 9, 10, 64
2, 1, Control_c, 8, 10, 64
2, 1, Control_c, 0, 91, 40
2, 1, Control_c, 1, 91, 40
2, 1, Control_c, 2, 91, 40
2, 1, Control_c, 3, 91, 40
2, 1, Control_c, 4, 91, 40
2, 1, Control_c, 5, 91, 40
2, 1, Control_c, 6, 91, 40
2, 1, Control_c, 7, 91, 40
2, 1, Control_c, 8, 91, 40
2, 1, Control_c, 9, 91, 40
2, 1, Control_c, 10, 91, 40
2, 1, Control_c, 11, 91, 40
2, 1, Control_c, 12, 91, 40
2, 1, Control_c, 13, 91, 40
2, 1, Control_c, 14, 91, 40
2, 1, Control_c, 15, 91, 40
2, 1, Control_c, 15, 93, 0
2, 1, Control_c, 14, 93, 0
2, 1, Control_c, 13, 93, 0
2, 1, Control_c, 12, 93, 0
2, 1, Control_c, 11, 93, 0
2, 1, Control_c, 10, 93, 0
2, 1, Control_c, 9, 93, 0
2, 1, Control_c, 8, 93, 0
2, 1, Control_c, 7, 93, 0
2, 1, Control_c, 6, 93, 0
2, 1, Control_c, 5, 93, 0
2, 1, Control_c, 4, 93, 0
2, 1, Control_c, 3, 93, 0
2, 1, Control_c, 2, 93, 0
2, 1, Control_c, 1, 93, 0
2, 1, Control_c, 0, 93, 0
2, 1, Control_c, 15, 91, 40
2, 1, Control_c, 15, 93, 0
2, 385, Channel_aftertouch_c, 15, 0
2, 385, Control_c, 15, 64, 0
2, 385, Control_c, 15, 121, 0
2, 385, Control_c, 15, 1, 0
2, 385, Control_c, 15, 0, 0
2, 385, Pitch_bend_c, 15, 8192
2, 385, Channel_aftertouch_c, 14, 0
2, 385, Control_c, 14, 64, 0
2, 385, Control_c, 14, 121, 0
2, 385, Control_c, 14, 1, 0
2, 385, Control_c, 14, 0, 0
2, 385, Pitch_bend_c, 14, 8192
2, 385, Channel_aftertouch_c, 13, 0
2, 385, Control_c, 13, 64, 0
2, 385, Control_c, 13, 121, 0
2, 385, Control_c, 13, 1, 0
2, 385, Control_c, 13, 0, 0
2, 385, Pitch_bend_c, 13, 8192
2, 385, Channel_aftertouch_c, 12, 0
2, 385, Control_c, 12, 64, 0
2, 385, Control_c, 12, 121, 0
2, 385, Control_c, 12, 1, 0
2, 385, Control_c, 12, 0, 0
2, 385, Pitch_bend_c, 12, 8192
2, 385, Channel_aftertouch_c, 11, 0
2, 385, Control_c, 11, 64, 0
2, 385, Control_c, 11, 121, 0
2, 385, Control_c, 11, 1, 0
2, 385, Control_c, 11, 0, 0
2, 385, Pitch_bend_c, 11, 8192
2, 385, Channel_aftertouch_c, 10, 0
2, 385, Control_c, 10, 64, 0
2, 385, Control_c, 10, 121, 0
2, 385, Control_c, 10, 1, 0
2, 385, Control_c, 10, 0, 0
2, 385, Pitch_bend_c, 10, 8192
2, 385, Channel_aftertouch_c, 9, 0
2, 385, Control_c, 9, 64, 0
2, 385, Control_c, 9, 121, 0
2, 385, Control_c, 9, 1, 0
2, 385, Control_c, 9, 0, 0
2, 385, Pitch_bend_c, 9, 8192
2, 385, Channel_aftertouch_c, 8, 0
2, 385, Control_c, 8, 64, 0
2, 385, Control_c, 8, 121, 0
2, 385, Control_c, 8, 1, 0
2, 385, Control_c, 8, 0, 0
2, 385, Pitch_bend_c, 8, 8192
2, 385, Channel_aftertouch_c, 7, 0
2, 385, Control_c, 7, 64, 0
2, 385, Control_c, 7, 121, 0
2, 385, Control_c, 7, 1, 0
2, 385, Control_c, 7, 0, 0
2, 385, Pitch_bend_c, 7, 8192
2, 385, Channel_aftertouch_c, 6, 0
2, 385, Control_c, 6, 64, 0
2, 385, Control_c, 6, 121, 0
2, 385, Control_c, 6, 1, 0
2, 385, Control_c, 6, 0, 0
2, 385, Pitch_bend_c, 6, 8192
2, 385, Channel_aftertouch_c, 5, 0
2, 385, Control_c, 5, 64, 0
2, 385, Control_c, 5, 121, 0
2, 385, Control_c, 5, 1, 0
2, 385, Control_c, 5, 0, 0
2, 385, Pitch_bend_c, 5, 8192
2, 385, Channel_aftertouch_c, 4, 0
2, 385, Control_c, 4, 64, 0
2, 385, Control_c, 4, 121, 0
2, 385, Control_c, 4, 1, 0
2, 385, Control_c, 4, 0, 0
2, 385, Pitch_bend_c, 4, 8192
2, 385, Channel_aftertouch_c, 3, 0
2, 385, Control_c, 3, 64, 0
2, 385, Control_c, 3, 121, 0
2, 385, Control_c, 3, 1, 0
2, 385, Control_c, 3, 0, 0
2, 385, Pitch_bend_c, 3, 8192
2, 385, Channel_aftertouch_c, 2, 0
2, 385, Control_c, 2, 64, 0
2, 385, Control_c, 2, 121, 0
2, 385, Control_c, 2, 1, 0
2, 385, Control_c, 2, 0, 0
2, 385, Pitch_bend_c, 2, 8192
2, 385, Channel_aftertouch_c, 1, 0
2, 385, Control_c, 1, 64, 0
2, 385, Control_c, 1, 121, 0
2, 385, Control_c, 1, 1, 0
2, 385, Control_c, 1, 0, 0
2, 385, Pitch_bend_c, 1, 8192
2, 385, Channel_aftertouch_c, 0, 0
2, 385, Control_c, 0, 64, 0
2, 385, Control_c, 0, 121, 0
2, 385, Control_c, 0, 1, 0
2, 385, Control_c, 0, 0, 0
2, 385, Pitch_bend_c, 0, 8192
2, 1536, End_track
3, 0, Start_track
3, 0, Title_t, "Gitaar"
3, 1536, Program_c, 2, 25
3, 1536, Control_c, 2, 7, 127
3, 5376, Note_on_c, 2, 65, 81
3, 5376, Note_on_c, 2, 57, 83
3, 5376, Note_on_c, 2, 60, 81
3, 5504, Note_off_c, 2, 60, 0
3, 5504, Note_off_c, 2, 57, 0
3, 5504, Note_off_c, 2, 65, 0
3, 6912, Note_on_c, 2, 65, 77
3, 6912, Note_on_c, 2, 74, 92
3, 6912, Note_on_c, 2, 70, 76
3, 7040, Note_off_c, 2, 70, 0
3, 7040, Note_off_c, 2, 74, 0
3, 7040, Note_off_c, 2, 65, 0
3, 8448, Note_on_c, 2, 60, 92
3, 8448, Note_on_c, 2, 65, 81
3, 8448, Note_on_c, 2, 57, 83
3, 8576, Note_off_c, 2, 57, 0
3, 8576, Note_off_c, 2, 65, 0
3, 8576, Note_off_c, 2, 60, 0
3, 9984, Note_on_c, 2, 70, 83
3, 9984, Note_on_c, 2, 74, 86
3, 9984, Note_on_c, 2, 65, 77
3, 10112, Note_off_c, 2, 65, 0
3, 10112, Note_off_c, 2, 74, 0
3, 10112, Note_off_c, 2, 70, 0
3, 11520, Note_on_c, 2, 60, 78
3, 11520, Note_on_c, 2, 65, 83
3, 11520, Note_on_c, 2, 57, 76
3, 11648, Note_off_c, 2, 57, 0
3, 11648, Note_off_c, 2, 65, 0
3, 11648, Note_off_c, 2, 60, 0
3, 13056, Note_on_c, 2, 65, 79
3, 13056, Note_on_c, 2, 70, 76
3, 13056, Note_on_c, 2, 74, 94
3, 13184, Note_off_c, 2, 74, 0
3, 13184, Note_off_c, 2, 70, 0
3, 13184, Note_off_c, 2, 65, 0
3, 14592, Note_on_c, 2, 60, 89
3, 14592, Note_on_c, 2, 57, 86
3, 14592, Note_on_c, 2, 65, 63
3, 14720, Note_off_c, 2, 65, 0
3, 14720, Note_off_c, 2, 57, 0
3, 14720, Note_off_c, 2, 60, 0
3, 16128, Note_on_c, 2, 70, 81
3, 16128, Note_on_c, 2, 74, 86
3, 16128, Note_on_c, 2, 65, 79
3, 16256, Note_off_c, 2, 65, 0
3, 16256, Note_off_c, 2, 74, 0
3, 16256, Note_off_c, 2, 70, 0
3, 16896, Note_on_c, 2, 57, 73
3, 17152, Note_off_c, 2, 57, 0
3, 17152, Note_on_c, 2, 57, 57
3, 17152, Note_on_c, 2, 60, 70
3, 17152, Note_on_c, 2, 65, 74
3, 17280, Note_off_c, 2, 65, 0
3, 17280, Note_off_c, 2, 60, 0
3, 17280, Note_off_c, 2, 57, 0
3, 17536, Note_on_c, 2, 57, 77
3, 17664, Note_off_c, 2, 57, 0
3, 17664, Note_on_c, 2, 65, 79
3, 17664, Note_on_c, 2, 60, 72
3, 17664, Note_on_c, 2, 57, 71
3, 18048, Note_off_c, 2, 57, 0
3, 18048, Note_off_c, 2, 60, 0
3, 18048, Note_off_c, 2, 65, 0
3, 18304, Note_on_c, 2, 60, 78
3, 18304, Note_on_c, 2, 63, 73
3, 18304, Note_on_c, 2, 65, 76
3, 18304, Note_on_c, 2, 57, 78
3, 18432, Note_off_c, 2, 57, 0
3, 18432, Note_off_c, 2, 65, 0
3, 18432, Note_off_c, 2, 63, 0
3, 18432, Note_off_c, 2, 60, 0
3, 18688, Note_on_c, 2, 57, 72
3, 18688, Note_on_c, 2, 60, 79
3, 18688, Note_on_c, 2, 65, 76
3, 18688, Note_on_c, 2, 63, 78
3, 18816, Note_off_c, 2, 63, 0
3, 18816, Note_off_c, 2, 65, 0
3, 18816, Note_off_c, 2, 60, 0
3, 18816, Note_off_c, 2, 57, 0
3, 19072, Note_on_c, 2, 57, 74
3, 19200, Note_off_c, 2, 57, 0
3, 19200, Note_on_c, 2, 63, 74
3, 19200, Note_on_c, 2, 65, 74
3, 19200, Note_on_c, 2, 60, 73
3, 19200, Note_on_c, 2, 57, 71
3, 19456, Note_off_c, 2, 57, 0
3, 19456, Note_off_c, 2, 60, 0
3, 19456, Note_off_c, 2, 65, 0
3, 19456, Note_off_c, 2, 63, 0
3, 19456, Note_on_c, 2, 57, 73
3, 19456, Note_on_c, 2, 60, 70
3, 19456, Note_on_c, 2, 65, 70
3, 19456, Note_on_c, 2, 63, 72
3, 19584, Note_off_c, 2, 63, 0
3, 19584, Note_off_c, 2, 65, 0
3, 19584, Note_off_c, 2, 60, 0
3, 19584, Note_off_c, 2, 57, 0
3, 19968, Note_on_c, 2, 58, 92
3, 20224, Note_off_c, 2, 58, 0
3, 20224, Note_on_c, 2, 58, 77
3, 20224, Note_on_c, 2, 62, 89
3, 20224, Note_on_c, 2, 65, 83
3, 20352, Note_off_c, 2, 65, 0
3, 20352, Note_off_c, 2, 62, 0
3, 20352, Note_off_c, 2, 58, 0
3, 20608, Note_on_c, 2, 58, 68
3, 20736, Note_off_c, 2, 58, 0
3, 20736, Note_on_c, 2, 62, 79
3, 20736, Note_on_c, 2, 65, 89
3, 20736, Note_on_c, 2, 58, 72
3, 21248, Note_off_c, 2, 58, 0
3, 21248, Note_off_c, 2, 65, 0
3, 21248, Note_off_c, 2, 62, 0
3, 21376, Note_on_c, 2, 61, 83
3, 21376, Note_on_c, 2, 65, 78
3, 21376, Note_on_c, 2, 58, 73
3, 21504, Note_off_c, 2, 58, 0
3, 21504, Note_off_c, 2, 65, 0
3, 21504, Note_off_c, 2, 61, 0
3, 21760, Note_on_c, 2, 61, 83
3, 21760, Note_on_c, 2, 58, 70
3, 21760, Note_on_c, 2, 65, 78
3, 21888, Note_off_c, 2, 65, 0
3, 21888, Note_off_c, 2, 58, 0
3, 21888, Note_off_c, 2, 61, 0
3, 22144, Note_on_c, 2, 58, 60
3, 22272, Note_off_c, 2, 58, 0
3, 22272, Note_on_c, 2, 61, 86
3, 22272, Note_on_c, 2, 58, 61
3, 22272, Note_on_c, 2, 65, 77
3, 22400, Note_off_c, 2, 58, 0
3, 22528, Note_off_c, 2, 65, 0
3, 22528, Note_off_c, 2, 61, 0
3, 22528, Note_on_c, 2, 58, 74
3, 22528, Note_on_c, 2, 65, 79
3, 22528, Note_on_c, 2, 61, 77
3, 22656, Note_off_c, 2, 61, 0
3, 22656, Note_off_c, 2, 65, 0
3, 22656, Note_off_c, 2, 58, 0
3, 23296, Note_on_c, 2, 65, 83
3, 23296, Note_on_c, 2, 57, 73
3, 23296, Note_on_c, 2, 60, 78
3, 23424, Note_off_c, 2, 60, 0
3, 23424, Note_off_c, 2, 57, 0
3, 23424, Note_off_c, 2, 65, 0
3, 23680, Note_on_c, 2, 57, 55
3, 23808, Note_off_c, 2, 57, 0
3, 23808, Note_on_c, 2, 62, 79
3, 23808, Note_on_c, 2, 67, 74
3, 23808, Note_on_c, 2, 58, 72
3, 24192, Note_off_c, 2, 58, 0
3, 24192, Note_off_c, 2, 67, 0
3, 24192, Note_off_c, 2, 62, 0
3, 24448, Note_on_c, 2, 69, 77
3, 24448, Note_on_c, 2, 60, 81
3, 24448, Note_on_c, 2, 64, 81
3, 24576, Note_off_c, 2, 64, 0
3, 24576, Note_off_c, 2, 60, 0
3, 24576, Note_off_c, 2, 69, 0
3, 24832, Note_on_c, 2, 69, 79
3, 24832, Note_on_c, 2, 60, 74
3, 24832, Note_on_c, 2, 64, 81
3, 24960, Note_off_c, 2, 64, 0
3, 24960, Note_off_c, 2, 60, 0
3, 24960, Note_off_c, 2, 69, 0
3, 25216, Note_on_c, 2, 60, 71
3, 25344, Note_off_c, 2, 60, 0
3, 25344, Note_on_c, 2, 69, 79
3, 25344, Note_on_c, 2, 66, 81
3, 25344, Note_on_c, 2, 60, 81
3, 25472, Note_off_c, 2, 60, 0
3, 25600, Note_off_c, 2, 66, 0
3, 25600, Note_off_c, 2, 69, 0
3, 25600, Note_on_c, 2, 69, 74
3, 25600, Note_on_c, 2, 66, 71
3, 25600, Note_on_c, 2, 60, 83
3, 25728, Note_off_c, 2, 60, 0
3, 25728, Note_off_c, 2, 66, 0
3, 25728, Note_off_c, 2, 69, 0
3, 26368, Note_on_c, 2, 59, 72
3, 26368, Note_on_c, 2, 67, 73
3, 26368, Note_on_c, 2, 62, 73
3, 26368, Note_on_c, 2, 65, 67
3, 26496, Note_off_c, 2, 65, 0
3, 26496, Note_off_c, 2, 62, 0
3, 26496, Note_off_c, 2, 67, 0
3, 26496, Note_off_c, 2, 59, 0
3, 26752, Note_on_c, 2, 59, 63
3, 26880, Note_off_c, 2, 59, 0
3, 26880, Note_on_c, 2, 59, 66
3, 26880, Note_on_c, 2, 67, 76
3, 26880, Note_on_c, 2, 62, 73
3, 26880, Note_on_c, 2, 65, 76
3, 27264, Note_off_c, 2, 62, 0
3, 27264, Note_off_c, 2, 59, 0
3, 27392, Note_off_c, 2, 65, 0
3, 27392, Note_off_c, 2, 67, 0
3, 27520, Note_on_c, 2, 64, 77
3, 27520, Note_on_c, 2, 67, 73
3, 27520, Note_on_c, 2, 60, 76
3, 27648, Note_off_c, 2, 60, 0
3, 27648, Note_off_c, 2, 67, 0
3, 27648, Note_off_c, 2, 64, 0
3, 27904, Note_on_c, 2, 60, 83
3, 27904, Note_on_c, 2, 64, 81
3, 27904, Note_on_c, 2, 67, 76
3, 28032, Note_off_c, 2, 67, 0
3, 28032, Note_off_c, 2, 64, 0
3, 28032, Note_off_c, 2, 60, 0
3, 28288, Note_on_c, 2, 58, 50
3, 28416, Note_off_c, 2, 58, 0
3, 28416, Note_on_c, 2, 58, 77
3, 28416, Note_on_c, 2, 67, 81
3, 28416, Note_on_c, 2, 64, 83
3, 28544, Note_off_c, 2, 64, 0
3, 28544, Note_off_c, 2, 67, 0
3, 28544, Note_off_c, 2, 58, 0
3, 28672, Note_on_c, 2, 64, 74
3, 28672, Note_on_c, 2, 67, 83
3, 28672, Note_on_c, 2, 58, 81
3, 28800, Note_off_c, 2, 58, 0
3, 28800, Note_off_c, 2, 67, 0
3, 28800, Note_off_c, 2, 64, 0
3, 29440, Note_on_c, 2, 60, 92
3, 29440, Note_on_c, 2, 57, 79
3, 29440, Note_on_c, 2, 65, 83
3, 29568, Note_off_c, 2, 65, 0
3, 29568, Note_off_c, 2, 57, 0
3, 29568, Note_off_c, 2, 60, 0
3, 29824, Note_on_c, 2, 57, 81
3, 29952, Note_off_c, 2, 57, 0
3, 29952, Note_on_c, 2, 60, 73
3, 29952, Note_on_c, 2, 57, 70
3, 29952, Note_on_c, 2, 65, 83
3, 30336, Note_off_c, 2, 65, 0
3, 30336, Note_off_c, 2, 57, 0
3, 30336, Note_off_c, 2, 60, 0
3, 30976, Note_on_c, 2, 65, 77
3, 30976, Note_on_c, 2, 63, 83
3, 30976, Note_on_c, 2, 60, 78
3, 30976, Note_on_c, 2, 57, 86
3, 31104, Note_off_c, 2, 57, 0
3, 31104, Note_off_c, 2, 60, 0
3, 31104, Note_off_c, 2, 63, 0
3, 31104, Note_off_c, 2, 65, 0
3, 31360, Note_on_c, 2, 57, 77
3, 31488, Note_off_c, 2, 57, 0
3, 31488, Note_on_c, 2, 60, 77
3, 31488, Note_on_c, 2, 65, 74
3, 31488, Note_on_c, 2, 57, 73
3, 31488, Note_on_c, 2, 63, 83
3, 31616, Note_off_c, 2, 57, 0
3, 31616, Note_off_c, 2, 65, 0
3, 31744, Note_off_c, 2, 63, 0
3, 31744, Note_off_c, 2, 60, 0
3, 31744, Note_on_c, 2, 57, 81
3, 31744, Note_on_c, 2, 63, 76
3, 31744, Note_on_c, 2, 60, 72
3, 31744, Note_on_c, 2, 65, 77
3, 31872, Note_off_c, 2, 65, 0
3, 31872, Note_off_c, 2, 60, 0
3, 31872, Note_off_c, 2, 63, 0
3, 31872, Note_off_c, 2, 57, 0
3, 32512, Note_on_c, 2, 62, 89
3, 32512, Note_on_c, 2, 58, 76
3, 32512, Note_on_c, 2, 65, 77
3, 32640, Note_off_c, 2, 65, 0
3, 32640, Note_off_c, 2, 58, 0
3, 32640, Note_off_c, 2, 62, 0
3, 32896, Note_on_c, 2, 58, 68
3, 33024, Note_off_c, 2, 58, 0
3, 33024, Note_on_c, 2, 62, 81
3, 33024, Note_on_c, 2, 65, 79
3, 33024, Note_on_c, 2, 58, 74
3, 33536, Note_off_c, 2, 58, 0
3, 33536, Note_off_c, 2, 65, 0
3, 33536, Note_off_c, 2, 62, 0
3, 33664, Note_on_c, 2, 61, 81
3, 33664, Note_on_c, 2, 65, 78
3, 33664, Note_on_c, 2, 58, 70
3, 33792, Note_off_c, 2, 58, 0
3, 33792, Note_off_c, 2, 65, 0
3, 33792, Note_off_c, 2, 61, 0
3, 34048, Note_on_c, 2, 61, 83
3, 34048, Note_on_c, 2, 65, 83
3, 34048, Note_on_c, 2, 58, 78
3, 34176, Note_off_c, 2, 58, 0
3, 34176, Note_off_c, 2, 65, 0
3, 34176, Note_off_c, 2, 61, 0
3, 34432, Note_on_c, 2, 58, 61
3, 34560, Note_off_c, 2, 58, 0
3, 34560, Note_on_c, 2, 61, 83
3, 34560, Note_on_c, 2, 58, 70
3, 34560, Note_on_c, 2, 65, 86
3, 34688, Note_off_c, 2, 58, 0
3, 34816, Note_off_c, 2, 65, 0
3, 34816, Note_off_c, 2, 61, 0
3, 34816, Note_on_c, 2, 61, 83
3, 34816, Note_on_c, 2, 58, 83
3, 34816, Note_on_c, 2, 65, 86
3, 34944, Note_off_c, 2, 65, 0
3, 34944, Note_off_c, 2, 58, 0
3, 34944, Note_off_c, 2, 61, 0
3, 35584, Note_on_c, 2, 60, 81
3, 35584, Note_on_c, 2, 57, 81
3, 35584, Note_on_c, 2, 65, 89
3, 35712, Note_off_c, 2, 65, 0
3, 35712, Note_off_c, 2, 57, 0
3, 35712, Note_off_c, 2, 60, 0
3, 35968, Note_on_c, 2, 57, 71
3, 36096, Note_off_c, 2, 57, 0
3, 36096, Note_on_c, 2, 62, 79
3, 36096, Note_on_c, 2, 67, 83
3, 36096, Note_on_c, 2, 58, 63
3, 36480, Note_off_c, 2, 58, 0
3, 36480, Note_off_c, 2, 67, 0
3, 36480, Note_off_c, 2, 62, 0
3, 36736, Note_on_c, 2, 69, 77
3, 36736, Note_on_c, 2, 64, 76
3, 36736, Note_on_c, 2, 60, 78
3, 36864, Note_off_c, 2, 60, 0
3, 36864, Note_off_c, 2, 64, 0
3, 36864, Note_off_c, 2, 69, 0
3, 37120, Note_on_c, 2, 60, 79
3, 37120, Note_on_c, 2, 69, 81
3, 37120, Note_on_c, 2, 64, 83
3, 37248, Note_off_c, 2, 64, 0
3, 37248, Note_off_c, 2, 69, 0
3, 37248, Note_off_c, 2, 60, 0
3, 37504, Note_on_c, 2, 60, 52
3, 37632, Note_off_c, 2, 60, 0
3, 37632, Note_on_c, 2, 69, 81
3, 37632, Note_on_c, 2, 66, 83
3, 37632, Note_on_c, 2, 60, 72
3, 37760, Note_off_c, 2, 60, 0
3, 37888, Note_off_c, 2, 66, 0
3, 37888, Note_off_c, 2, 69, 0
3, 37888, Note_on_c, 2, 66, 89
3, 37888, Note_on_c, 2, 69, 78
3, 37888, Note_on_c, 2, 60, 79
3, 38016, Note_off_c, 2, 60, 0
3, 38016, Note_off_c, 2, 69, 0
3, 38016, Note_off_c, 2, 66, 0
3, 38656, Note_on_c, 2, 67, 79
3, 38656, Note_on_c, 2, 62, 94
3, 38656, Note_on_c, 2, 58, 83
3, 38784, Note_off_c, 2, 58, 0
3, 38784, Note_off_c, 2, 62, 0
3, 38784, Note_off_c, 2, 67, 0
3, 39040, Note_on_c, 2, 58, 42
3, 39168, Note_off_c, 2, 58, 0
3, 39168, Note_on_c, 2, 58, 73
3, 39168, Note_on_c, 2, 64, 78
3, 39168, Note_on_c, 2, 67, 81
3, 39424, Note_off_c, 2, 67, 0
3, 39424, Note_off_c, 2, 64, 0
3, 39424, Note_off_c, 2, 58, 0
3, 39424, Note_on_c, 2, 58, 78
3, 39424, Note_on_c, 2, 64, 83
3, 39424, Note_on_c, 2, 67, 74
3, 39552, Note_off_c, 2, 67, 0
3, 39552, Note_off_c, 2, 64, 0
3, 39552, Note_off_c, 2, 58, 0
3, 39936, Note_on_c, 2, 65, 83
3, 39936, Note_on_c, 2, 57, 78
3, 39936, Note_on_c, 2, 60, 77
3, 40960, Note_off_c, 2, 60, 0
3, 40960, Note_off_c, 2, 57, 0
3, 40960, Note_off_c, 2, 65, 0
3, 40960, Note_on_c, 2, 57, 89
3, 40960, Note_on_c, 2, 63, 81
3, 40960, Note_on_c, 2, 60, 81
3, 40960, Note_on_c, 2, 65, 78
3, 41088, Note_off_c, 2, 65, 0
3, 41088, Note_off_c, 2, 60, 0
3, 41088, Note_off_c, 2, 63, 0
3, 41088, Note_off_c, 2, 57, 0
3, 41728, Note_on_c, 2, 65, 79
3, 41728, Note_on_c, 2, 57, 77
3, 41728, Note_on_c, 2, 60, 83
3, 41812, Note_off_c, 2, 57, 0
3, 41816, Note_off_c, 2, 60, 0
3, 41828, Note_off_c, 2, 65, 0
3, 42112, Note_on_c, 2, 57, 72
3, 42188, Note_off_c, 2, 57, 0
3, 42240, Note_on_c, 2, 65, 83
3, 42240, Note_on_c, 2, 57, 72
3, 42240, Note_on_c, 2, 60, 79
3, 42420, Note_off_c, 2, 65, 0
3, 42440, Note_off_c, 2, 60, 0
3, 42448, Note_off_c, 2, 57, 0
3, 42880, Note_on_c, 2, 65, 73
3, 42880, Note_on_c, 2, 57, 78
3, 42880, Note_on_c, 2, 63, 81
3, 42960, Note_off_c, 2, 57, 0
3, 42964, Note_off_c, 2, 65, 0
3, 42996, Note_off_c, 2, 63, 0
3, 43264, Note_on_c, 2, 65, 77
3, 43264, Note_on_c, 2, 63, 89
3, 43264, Note_on_c, 2, 57, 79
3, 43348, Note_off_c, 2, 57, 0
3, 43356, Note_off_c, 2, 65, 0
3, 43372, Note_off_c, 2, 63, 0
3, 43648, Note_on_c, 2, 57, 63
3, 43716, Note_off_c, 2, 57, 0
3, 43776, Note_on_c, 2, 65, 81
3, 43776, Note_on_c, 2, 63, 89
3, 43776, Note_on_c, 2, 57, 68
3, 43932, Note_off_c, 2, 65, 0
3, 43948, Note_off_c, 2, 63, 0
3, 43952, Note_off_c, 2, 57, 0
3, 44032, Note_on_c, 2, 65, 81
3, 44032, Note_on_c, 2, 63, 79
3, 44032, Note_on_c, 2, 57, 77
3, 44144, Note_off_c, 2, 57, 0
3, 44148, Note_off_c, 2, 65, 0
3, 44172, Note_off_c, 2, 63, 0
3, 44800, Note_on_c, 2, 65, 76
3, 44800, Note_on_c, 2, 58, 76
3, 44800, Note_on_c, 2, 62, 83
3, 44888, Note_off_c, 2, 58, 0
3, 44892, Note_off_c, 2, 62, 0
3, 44916, Note_off_c, 2, 65, 0
3, 45184, Note_on_c, 2, 58, 50
3, 45256, Note_off_c, 2, 58, 0
3, 45312, Note_on_c, 2, 58, 71
3, 45312, Note_on_c, 2, 65, 79
3, 45312, Note_on_c, 2, 62, 78
3, 45500, Note_off_c, 2, 65, 0
3, 45500, Note_off_c, 2, 58, 0
3, 45524, Note_off_c, 2, 62, 0
3, 45952, Note_on_c, 2, 65, 74
3, 45952, Note_on_c, 2, 58, 73
3, 45952, Note_on_c, 2, 62, 86
3, 46024, Note_off_c, 2, 58, 0
3, 46032, Note_off_c, 2, 62, 0
3, 46040, Note_off_c, 2, 65, 0
3, 46336, Note_on_c, 2, 65, 76
3, 46336, Note_on_c, 2, 58, 72
3, 46336, Note_on_c, 2, 62, 81
3, 46404, Note_off_c, 2, 58, 0
3, 46416, Note_off_c, 2, 62, 0
3, 46420, Note_off_c, 2, 65, 0
3, 46720, Note_on_c, 2, 58, 48
3, 46788, Note_off_c, 2, 58, 0
3, 46848, Note_on_c, 2, 58, 68
3, 46848, Note_on_c, 2, 65, 78
3, 46848, Note_on_c, 2, 62, 81
3, 47016, Note_off_c, 2, 58, 0
3, 47020, Note_off_c, 2, 65, 0
3, 47040, Note_off_c, 2, 62, 0
3, 47104, Note_on_c, 2, 65, 77
3, 47104, Note_on_c, 2, 58, 77
3, 47104, Note_on_c, 2, 62, 73
3, 47208, Note_off_c, 2, 65, 0
3, 47212, Note_off_c, 2, 58, 0
3, 47232, Note_off_c, 2, 62, 0
3, 47872, Note_on_c, 2, 62, 79
3, 47872, Note_on_c, 2, 59, 79
3, 47872, Note_on_c, 2, 65, 77
3, 47872, Note_on_c, 2, 55, 71
3, 47960, Note_off_c, 2, 59, 0
3, 47968, Note_off_c, 2, 55, 0
3, 47968, Note_off_c, 2, 62, 0
3, 47996, Note_off_c, 2, 65, 0
3, 48256, Note_on_c, 2, 55, 72
3, 48336, Note_off_c, 2, 55, 0
3, 48384, Note_on_c, 2, 62, 76
3, 48384, Note_on_c, 2, 59, 79
3, 48384, Note_on_c, 2, 65, 79
3, 48384, Note_on_c, 2, 55, 73
3, 48580, Note_off_c, 2, 62, 0
3, 48584, Note_off_c, 2, 59, 0
3, 48592, Note_off_c, 2, 55, 0
3, 48596, Note_off_c, 2, 65, 0
3, 49024, Note_on_c, 2, 65, 71
3, 49024, Note_on_c, 2, 62, 76
3, 49024, Note_on_c, 2, 59, 78
3, 49024, Note_on_c, 2, 55, 76
3, 49116, Note_off_c, 2, 55, 0
3, 49116, Note_off_c, 2, 59, 0
3, 49128, Note_off_c, 2, 62, 0
3, 49132, Note_off_c, 2, 65, 0
3, 49408, Note_on_c, 2, 65, 68
3, 49408, Note_on_c, 2, 62, 77
3, 49408, Note_on_c, 2, 59, 77
3, 49408, Note_on_c, 2, 55, 78
3, 49500, Note_off_c, 2, 59, 0
3, 49508, Note_off_c, 2, 55, 0
3, 49512, Note_off_c, 2, 62, 0
3, 49532, Note_off_c, 2, 65, 0
3, 49792, Note_on_c, 2, 55, 66
3, 49872, Note_off_c, 2, 55, 0
3, 49920, Note_on_c, 2, 62, 70
3, 49920, Note_on_c, 2, 55, 67
3, 49920, Note_on_c, 2, 65, 76
3, 49920, Note_on_c, 2, 59, 77
3, 50092, Note_off_c, 2, 55, 0
3, 50096, Note_off_c, 2, 62, 0
3, 50104, Note_off_c, 2, 65, 0
3, 50112, Note_off_c, 2, 59, 0
3, 50176, Note_on_c, 2, 62, 67
3, 50176, Note_on_c, 2, 65, 76
3, 50176, Note_on_c, 2, 59, 79
3, 50176, Note_on_c, 2, 55, 78
3, 50272, Note_off_c, 2, 62, 0
3, 50304, Note_off_c, 2, 59, 0
3, 50308, Note_off_c, 2, 55, 0
3, 50308, Note_off_c, 2, 65, 0
3, 50688, Note_on_c, 2, 55, 92
3, 50688, Note_on_c, 2, 64, 92
3, 50688, Note_on_c, 2, 60, 78
3, 50840, Note_off_c, 2, 64, 0
3, 50852, Note_off_c, 2, 55, 0
3, 50860, Note_off_c, 2, 60, 0
3, 53376, Note_on_c, 2, 64, 92
3, 53376, Note_on_c, 2, 60, 79
3, 53376, Note_on_c, 2, 55, 86
3, 53680, Note_off_c, 2, 64, 0
3, 53692, Note_off_c, 2, 60, 0
3, 53696, Note_off_c, 2, 55, 0
3, 54016, Note_on_c, 2, 60, 92
3, 54016, Note_on_c, 2, 57, 79
3, 54016, Note_on_c, 2, 65, 83
3, 54144, Note_off_c, 2, 65, 0
3, 54144, Note_off_c, 2, 57, 0
3, 54144, Note_off_c, 2, 60, 0
3, 54400, Note_on_c, 2, 57, 81
3, 54528, Note_off_c, 2, 57, 0
3, 54528, Note_on_c, 2, 60, 73
3, 54528, Note_on_c, 2, 57, 70
3, 54528, Note_on_c, 2, 65, 83
3, 54912, Note_off_c, 2, 65, 0
3, 54912, Note_off_c, 2, 57, 0
3, 54912, Note_off_c, 2, 60, 0
3, 55552, Note_on_c, 2, 65, 77
3, 55552, Note_on_c, 2, 63, 83
3, 55552, Note_on_c, 2, 60, 78
3, 55552, Note_on_c, 2, 57, 86
3, 55680, Note_off_c, 2, 57, 0
3, 55680, Note_off_c, 2, 60, 0
3, 55680, Note_off_c, 2, 63, 0
3, 55680, Note_off_c, 2, 65, 0
3, 55936, Note_on_c, 2, 57, 77
3, 56064, Note_off_c, 2, 57, 0
3, 56064, Note_on_c, 2, 60, 77
3, 56064, Note_on_c, 2, 65, 74
3, 56064, Note_on_c, 2, 57, 73
3, 56064, Note_on_c, 2, 63, 83
3, 56192, Note_off_c, 2, 57, 0
3, 56192, Note_off_c, 2, 65, 0
3, 56320, Note_off_c, 2, 63, 0
3, 56320, Note_off_c, 2, 60, 0
3, 56320, Note_on_c, 2, 57, 81
3, 56320, Note_on_c, 2, 63, 76
3, 56320, Note_on_c, 2, 60, 72
3, 56320, Note_on_c, 2, 65, 77
3, 56448, Note_off_c, 2, 65, 0
3, 56448, Note_off_c, 2, 60, 0
3, 56448, Note_off_c, 2, 63, 0
3, 56448, Note_off_c, 2, 57, 0
3, 57088, Note_on_c, 2, 62, 89
3, 57088, Note_on_c, 2, 58, 76
3, 57088, Note_on_c, 2, 65, 77
3, 57216, Note_off_c, 2, 65, 0
3, 57216, Note_off_c, 2, 58, 0
3, 57216, Note_off_c, 2, 62, 0
3, 57472, Note_on_c, 2, 58, 68
3, 57600, Note_off_c, 2, 58, 0
3, 57600, Note_on_c, 2, 62, 81
3, 57600, Note_on_c, 2, 65, 79
3, 57600, Note_on_c, 2, 58, 74
3, 58112, Note_off_c, 2, 58, 0
3, 58112, Note_off_c, 2, 65, 0
3, 58112, Note_off_c, 2, 62, 0
3, 58240, Note_on_c, 2, 61, 81
3, 58240, Note_on_c, 2, 65, 78
3, 58240, Note_on_c, 2, 58, 70
3, 58368, Note_off_c, 2, 58, 0
3, 58368, Note_off_c, 2, 65, 0
3, 58368, Note_off_c, 2, 61, 0
3, 58624, Note_on_c, 2, 61, 83
3, 58624, Note_on_c, 2, 65, 83
3, 58624, Note_on_c, 2, 58, 78
3, 58752, Note_off_c, 2, 58, 0
3, 58752, Note_off_c, 2, 65, 0
3, 58752, Note_off_c, 2, 61, 0
3, 59008, Note_on_c, 2, 58, 61
3, 59136, Note_off_c, 2, 58, 0
3, 59136, Note_on_c, 2, 61, 83
3, 59136, Note_on_c, 2, 58, 70
3, 59136, Note_on_c, 2, 65, 86
3, 59264, Note_off_c, 2, 58, 0
3, 59392, Note_off_c, 2, 65, 0
3, 59392, Note_off_c, 2, 61, 0
3, 59392, Note_on_c, 2, 61, 83
3, 59392, Note_on_c, 2, 58, 83
3, 59392, Note_on_c, 2, 65, 86
3, 59520, Note_off_c, 2, 65, 0
3, 59520, Note_off_c, 2, 58, 0
3, 59520, Note_off_c, 2, 61, 0
3, 60160, Note_on_c, 2, 60, 81
3, 60160, Note_on_c, 2, 57, 81
3, 60160, Note_on_c, 2, 65, 89
3, 60288, Note_off_c, 2, 65, 0
3, 60288, Note_off_c, 2, 57, 0
3, 60288, Note_off_c, 2, 60, 0
3, 60544, Note_on_c, 2, 57, 71
3, 60672, Note_off_c, 2, 57, 0
3, 60672, Note_on_c, 2, 62, 79
3, 60672, Note_on_c, 2, 67, 83
3, 60672, Note_on_c, 2, 58, 63
3, 61056, Note_off_c, 2, 58, 0
3, 61056, Note_off_c, 2, 67, 0
3, 61056, Note_off_c, 2, 62, 0
3, 61312, Note_on_c, 2, 69, 77
3, 61312, Note_on_c, 2, 64, 76
3, 61312, Note_on_c, 2, 60, 78
3, 61440, Note_off_c, 2, 60, 0
3, 61440, Note_off_c, 2, 64, 0
3, 61440, Note_off_c, 2, 69, 0
3, 61696, Note_on_c, 2, 60, 79
3, 61696, Note_on_c, 2, 69, 81
3, 61696, Note_on_c, 2, 64, 83
3, 61824, Note_off_c, 2, 64, 0
3, 61824, Note_off_c, 2, 69, 0
3, 61824, Note_off_c, 2, 60, 0
3, 62080, Note_on_c, 2, 60, 52
3, 62208, Note_off_c, 2, 60, 0
3, 62208, Note_on_c, 2, 69, 81
3, 62208, Note_on_c, 2, 66, 83
3, 62208, Note_on_c, 2, 60, 72
3, 62336, Note_off_c, 2, 60, 0
3, 62464, Note_off_c, 2, 66, 0
3, 62464, Note_off_c, 2, 69, 0
3, 62464, Note_on_c, 2, 66, 89
3, 62464, Note_on_c, 2, 69, 78
3, 62464, Note_on_c, 2, 60, 79
3, 62592, Note_off_c, 2, 60, 0
3, 62592, Note_off_c, 2, 69, 0
3, 62592, Note_off_c, 2, 66, 0
3, 63232, Note_on_c, 2, 67, 79
3, 63232, Note_on_c, 2, 62, 94
3, 63232, Note_on_c, 2, 58, 83
3, 63360, Note_off_c, 2, 58, 0
3, 63360, Note_off_c, 2, 62, 0
3, 63360, Note_off_c, 2, 67, 0
3, 63616, Note_on_c, 2, 58, 42
3, 63744, Note_off_c, 2, 58, 0
3, 63744, Note_on_c, 2, 58, 73
3, 63744, Note_on_c, 2, 64, 78
3, 63744, Note_on_c, 2, 67, 81
3, 64000, Note_off_c, 2, 67, 0
3, 64000, Note_off_c, 2, 64, 0
3, 64000, Note_off_c, 2, 58, 0
3, 64000, Note_on_c, 2, 58, 78
3, 64000, Note_on_c, 2, 64, 83
3, 64000, Note_on_c, 2, 67, 74
3, 64128, Note_off_c, 2, 67, 0
3, 64128, Note_off_c, 2, 64, 0
3, 64128, Note_off_c, 2, 58, 0
3, 64512, Note_on_c, 2, 65, 83
3, 64512, Note_on_c, 2, 57, 78
3, 64512, Note_on_c, 2, 60, 77
3, 65536, Note_off_c, 2, 60, 0
3, 65536, Note_off_c, 2, 57, 0
3, 65536, Note_off_c, 2, 65, 0
3, 65536, Note_on_c, 2, 57, 89
3, 65536, Note_on_c, 2, 63, 81
3, 65536, Note_on_c, 2, 60, 81
3, 65536, Note_on_c, 2, 65, 78
3, 65664, Note_off_c, 2, 65, 0
3, 65664, Note_off_c, 2, 60, 0
3, 65664, Note_off_c, 2, 63, 0
3, 65664, Note_off_c, 2, 57, 0
3, 69120, Note_on_c, 2, 57, 73
3, 69376, Note_off_c, 2, 57, 0
3, 69376, Note_on_c, 2, 57, 57
3, 69376, Note_on_c, 2, 60, 70
3, 69376, Note_on_c, 2, 65, 74
3, 69504, Note_off_c, 2, 65, 0
3, 69504, Note_off_c, 2, 60, 0
3, 69504, Note_off_c, 2, 57, 0
3, 69760, Note_on_c, 2, 57, 77
3, 69888, Note_off_c, 2, 57, 0
3, 69888, Note_on_c, 2, 65, 79
3, 69888, Note_on_c, 2, 60, 72
3, 69888, Note_on_c, 2, 57, 71
3, 70272, Note_off_c, 2, 57, 0
3, 70272, Note_off_c, 2, 60, 0
3, 70272, Note_off_c, 2, 65, 0
3, 70528, Note_on_c, 2, 60, 78
3, 70528, Note_on_c, 2, 63, 73
3, 70528, Note_on_c, 2, 65, 76
3, 70528, Note_on_c, 2, 57, 78
3, 70656, Note_off_c, 2, 57, 0
3, 70656, Note_off_c, 2, 65, 0
3, 70656, Note_off_c, 2, 63, 0
3, 70656, Note_off_c, 2, 60, 0
3, 70912, Note_on_c, 2, 57, 72
3, 70912, Note_on_c, 2, 60, 79
3, 70912, Note_on_c, 2, 65, 76
3, 70912, Note_on_c, 2, 63, 78
3, 71040, Note_off_c, 2, 63, 0
3, 71040, Note_off_c, 2, 65, 0
3, 71040, Note_off_c, 2, 60, 0
3, 71040, Note_off_c, 2, 57, 0
3, 71296, Note_on_c, 2, 57, 74
3, 71424, Note_off_c, 2, 57, 0
3, 71424, Note_on_c, 2, 63, 74
3, 71424, Note_on_c, 2, 65, 74
3, 71424, Note_on_c, 2, 60, 73
3, 71424, Note_on_c, 2, 57, 71
3, 71680, Note_off_c, 2, 57, 0
3, 71680, Note_off_c, 2, 60, 0
3, 71680, Note_off_c, 2, 65, 0
3, 71680, Note_off_c, 2, 63, 0
3, 71680, Note_on_c, 2, 57, 73
3, 71680, Note_on_c, 2, 60, 70
3, 71680, Note_on_c, 2, 65, 70
3, 71680, Note_on_c, 2, 63, 72
3, 71808, Note_off_c, 2, 63, 0
3, 71808, Note_off_c, 2, 65, 0
3, 71808, Note_off_c, 2, 60, 0
3, 71808, Note_off_c, 2, 57, 0
3, 72192, Note_on_c, 2, 58, 92
3, 72448, Note_off_c, 2, 58, 0
3, 72448, Note_on_c, 2, 58, 77
3, 72448, Note_on_c, 2, 62, 89
3, 72448, Note_on_c, 2, 65, 83
3, 72576, Note_off_c, 2, 65, 0
3, 72576, Note_off_c, 2, 62, 0
3, 72576, Note_off_c, 2, 58, 0
3, 72832, Note_on_c, 2, 58, 68
3, 72960, Note_off_c, 2, 58, 0
3, 72960, Note_on_c, 2, 62, 79
3, 72960, Note_on_c, 2, 65, 89
3, 72960, Note_on_c, 2, 58, 72
3, 73472, Note_off_c, 2, 58, 0
3, 73472, Note_off_c, 2, 65, 0
3, 73472, Note_off_c, 2, 62, 0
3, 73600, Note_on_c, 2, 61, 83
3, 73600, Note_on_c, 2, 65, 78
3, 73600, Note_on_c, 2, 58, 73
3, 73728, Note_off_c, 2, 58, 0
3, 73728, Note_off_c, 2, 65, 0
3, 73728, Note_off_c, 2, 61, 0
3, 73984, Note_on_c, 2, 61, 83
3, 73984, Note_on_c, 2, 58, 70
3, 73984, Note_on_c, 2, 65, 78
3, 74112, Note_off_c, 2, 65, 0
3, 74112, Note_off_c, 2, 58, 0
3, 74112, Note_off_c, 2, 61, 0
3, 74368, Note_on_c, 2, 58, 60
3, 74496, Note_off_c, 2, 58, 0
3, 74496, Note_on_c, 2, 61, 86
3, 74496, Note_on_c, 2, 58, 61
3, 74496, Note_on_c, 2, 65, 77
3, 74624, Note_off_c, 2, 58, 0
3, 74752, Note_off_c, 2, 65, 0
3, 74752, Note_off_c, 2, 61, 0
3, 74752, Note_on_c, 2, 58, 74
3, 74752, Note_on_c, 2, 65, 79
3, 74752, Note_on_c, 2, 61, 77
3, 74880, Note_off_c, 2, 61, 0
3, 74880, Note_off_c, 2, 65, 0
3, 74880, Note_off_c, 2, 58, 0
3, 75520, Note_on_c, 2, 65, 83
3, 75520, Note_on_c, 2, 57, 73
3, 75520, Note_on_c, 2, 60, 78
3, 75648, Note_off_c, 2, 60, 0
3, 75648, Note_off_c, 2, 57, 0
3, 75648, Note_off_c, 2, 65, 0
3, 75904, Note_on_c, 2, 57, 55
3, 76032, Note_off_c, 2, 57, 0
3, 76032, Note_on_c, 2, 62, 79
3, 76032, Note_on_c, 2, 67, 74
3, 76032, Note_on_c, 2, 58, 72
3, 76416, Note_off_c, 2, 58, 0
3, 76416, Note_off_c, 2, 67, 0
3, 76416, Note_off_c, 2, 62, 0
3, 76672, Note_on_c, 2, 69, 77
3, 76672, Note_on_c, 2, 60, 81
3, 76672, Note_on_c, 2, 64, 81
3, 76800, Note_off_c, 2, 64, 0
3, 76800, Note_off_c, 2, 60, 0
3, 76800, Note_off_c, 2, 69, 0
3, 77056, Note_on_c, 2, 69, 79
3, 77056, Note_on_c, 2, 60, 74
3, 77056, Note_on_c, 2, 64, 81
3, 77184, Note_off_c, 2, 64, 0
3, 77184, Note_off_c, 2, 60, 0
3, 77184, Note_off_c, 2, 69, 0
3, 77440, Note_on_c, 2, 60, 71
3, 77568, Note_off_c, 2, 60, 0
3, 77568, Note_on_c, 2, 69, 79
3, 77568, Note_on_c, 2, 66, 81
3, 77568, Note_on_c, 2, 60, 81
3, 77696, Note_off_c, 2, 60, 0
3, 77824, Note_off_c, 2, 66, 0
3, 77824, Note_off_c, 2, 69, 0
3, 77824, Note_on_c, 2, 69, 74
3, 77824, Note_on_c, 2, 66, 71
3, 77824, Note_on_c, 2, 60, 83
3, 77952, Note_off_c, 2, 60, 0
3, 77952, Note_off_c, 2, 66, 0
3, 77952, Note_off_c, 2, 69, 0
3, 78592, Note_on_c, 2, 59, 72
3, 78592, Note_on_c, 2, 67, 73
3, 78592, Note_on_c, 2, 62, 73
3, 78592, Note_on_c, 2, 65, 67
3, 78720, Note_off_c, 2, 65, 0
3, 78720, Note_off_c, 2, 62, 0
3, 78720, Note_off_c, 2, 67, 0
3, 78720, Note_off_c, 2, 59, 0
3, 78976, Note_on_c, 2, 59, 63
3, 79104, Note_off_c, 2, 59, 0
3, 79104, Note_on_c, 2, 59, 66
3, 79104, Note_on_c, 2, 67, 76
3, 79104, Note_on_c, 2, 62, 73
3, 79104, Note_on_c, 2, 65, 76
3, 79488, Note_off_c, 2, 62, 0
3, 79488, Note_off_c, 2, 59, 0
3, 79616, Note_off_c, 2, 65, 0
3, 79616, Note_off_c, 2, 67, 0
3, 79744, Note_on_c, 2, 64, 77
3, 79744, Note_on_c, 2, 67, 73
3, 79744, Note_on_c, 2, 60, 76
3, 79872, Note_off_c, 2, 60, 0
3, 79872, Note_off_c, 2, 67, 0
3, 79872, Note_off_c, 2, 64, 0
3, 80128, Note_on_c, 2, 60, 83
3, 80128, Note_on_c, 2, 64, 81
3, 80128, Note_on_c, 2, 67, 76
3, 80256, Note_off_c, 2, 67, 0
3, 80256, Note_off_c, 2, 64, 0
3, 80256, Note_off_c, 2, 60, 0
3, 80512, Note_on_c, 2, 58, 50
3, 80640, Note_off_c, 2, 58, 0
3, 80640, Note_on_c, 2, 58, 77
3, 80640, Note_on_c, 2, 67, 81
3, 80640, Note_on_c, 2, 64, 83
3, 80768, Note_off_c, 2, 64, 0
3, 80768, Note_off_c, 2, 67, 0
3, 80768, Note_off_c, 2, 58, 0
3, 80896, Note_on_c, 2, 64, 74
3, 80896, Note_on_c, 2, 67, 83
3, 80896, Note_on_c, 2, 58, 81
3, 81024, Note_off_c, 2, 58, 0
3, 81024, Note_off_c, 2, 67, 0
3, 81024, Note_off_c, 2, 64, 0
3, 81664, Note_on_c, 2, 60, 92
3, 81664, Note_on_c, 2, 57, 79
3, 81664, Note_on_c, 2, 65, 83
3, 81792, Note_off_c, 2, 65, 0
3, 81792, Note_off_c, 2, 57, 0
3, 81792, Note_off_c, 2, 60, 0
3, 82048, Note_on_c, 2, 57, 81
3, 82176, Note_off_c, 2, 57, 0
3, 82176, Note_on_c, 2, 60, 73
3, 82176, Note_on_c, 2, 57, 70
3, 82176, Note_on_c, 2, 65, 83
3, 82560, Note_off_c, 2, 65, 0
3, 82560, Note_off_c, 2, 57, 0
3, 82560, Note_off_c, 2, 60, 0
3, 83200, Note_on_c, 2, 65, 77
3, 83200, Note_on_c, 2, 63, 83
3, 83200, Note_on_c, 2, 60, 78
3, 83200, Note_on_c, 2, 57, 86
3, 83328, Note_off_c, 2, 57, 0
3, 83328, Note_off_c, 2, 60, 0
3, 83328, Note_off_c, 2, 63, 0
3, 83328, Note_off_c, 2, 65, 0
3, 83584, Note_on_c, 2, 57, 77
3, 83712, Note_off_c, 2, 57, 0
3, 83712, Note_on_c, 2, 60, 77
3, 83712, Note_on_c, 2, 65, 74
3, 83712, Note_on_c, 2, 57, 73
3, 83712, Note_on_c, 2, 63, 83
3, 83840, Note_off_c, 2, 57, 0
3, 83840, Note_off_c, 2, 65, 0
3, 83968, Note_off_c, 2, 63, 0
3, 83968, Note_off_c, 2, 60, 0
3, 83968, Note_on_c, 2, 57, 81
3, 83968, Note_on_c, 2, 63, 76
3, 83968, Note_on_c, 2, 60, 72
3, 83968, Note_on_c, 2, 65, 77
3, 84096, Note_off_c, 2, 65, 0
3, 84096, Note_off_c, 2, 60, 0
3, 84096, Note_off_c, 2, 63, 0
3, 84096, Note_off_c, 2, 57, 0
3, 84736, Note_on_c, 2, 62, 89
3, 84736, Note_on_c, 2, 58, 76
3, 84736, Note_on_c, 2, 65, 77
3, 84864, Note_off_c, 2, 65, 0
3, 84864, Note_off_c, 2, 58, 0
3, 84864, Note_off_c, 2, 62, 0
3, 85120, Note_on_c, 2, 58, 68
3, 85248, Note_off_c, 2, 58, 0
3, 85248, Note_on_c, 2, 62, 81
3, 85248, Note_on_c, 2, 65, 79
3, 85248, Note_on_c, 2, 58, 74
3, 85760, Note_off_c, 2, 58, 0
3, 85760, Note_off_c, 2, 65, 0
3, 85760, Note_off_c, 2, 62, 0
3, 85888, Note_on_c, 2, 61, 81
3, 85888, Note_on_c, 2, 65, 78
3, 85888, Note_on_c, 2, 58, 70
3, 86016, Note_off_c, 2, 58, 0
3, 86016, Note_off_c, 2, 65, 0
3, 86016, Note_off_c, 2, 61, 0
3, 86272, Note_on_c, 2, 61, 83
3, 86272, Note_on_c, 2, 65, 83
3, 86272, Note_on_c, 2, 58, 78
3, 86400, Note_off_c, 2, 58, 0
3, 86400, Note_off_c, 2, 65, 0
3, 86400, Note_off_c, 2, 61, 0
3, 86656, Note_on_c, 2, 58, 61
3, 86784, Note_off_c, 2, 58, 0
3, 86784, Note_on_c, 2, 61, 83
3, 86784, Note_on_c, 2, 58, 70
3, 86784, Note_on_c, 2, 65, 86
3, 86912, Note_off_c, 2, 58, 0
3, 87040, Note_off_c, 2, 65, 0
3, 87040, Note_off_c, 2, 61, 0
3, 87040, Note_on_c, 2, 61, 83
3, 87040, Note_on_c, 2, 58, 83
3, 87040, Note_on_c, 2, 65, 86
3, 87168, Note_off_c, 2, 65, 0
3, 87168, Note_off_c, 2, 58, 0
3, 87168, Note_off_c, 2, 61, 0
3, 87808, Note_on_c, 2, 60, 81
3, 87808, Note_on_c, 2, 57, 81
3, 87808, Note_on_c, 2, 65, 89
3, 87936, Note_off_c, 2, 65, 0
3, 87936, Note_off_c, 2, 57, 0
3, 87936, Note_off_c, 2, 60, 0
3, 88192, Note_on_c, 2, 57, 71
3, 88320, Note_off_c, 2, 57, 0
3, 88320, Note_on_c, 2, 62, 79
3, 88320, Note_on_c, 2, 67, 83
3, 88320, Note_on_c, 2, 58, 63
3, 88704, Note_off_c, 2, 58, 0
3, 88704, Note_off_c, 2, 67, 0
3, 88704, Note_off_c, 2, 62, 0
3, 88960, Note_on_c, 2, 69, 77
3, 88960, Note_on_c, 2, 64, 76
3, 88960, Note_on_c, 2, 60, 78
3, 89088, Note_off_c, 2, 60, 0
3, 89088, Note_off_c, 2, 64, 0
3, 89088, Note_off_c, 2, 69, 0
3, 89344, Note_on_c, 2, 60, 79
3, 89344, Note_on_c, 2, 69, 81
3, 89344, Note_on_c, 2, 64, 83
3, 89472, Note_off_c, 2, 64, 0
3, 89472, Note_off_c, 2, 69, 0
3, 89472, Note_off_c, 2, 60, 0
3, 89728, Note_on_c, 2, 60, 52
3, 89856, Note_off_c, 2, 60, 0
3, 89856, Note_on_c, 2, 69, 81
3, 89856, Note_on_c, 2, 66, 83
3, 89856, Note_on_c, 2, 60, 72
3, 89984, Note_off_c, 2, 60, 0
3, 90112, Note_off_c, 2, 66, 0
3, 90112, Note_off_c, 2, 69, 0
3, 90112, Note_on_c, 2, 66, 89
3, 90112, Note_on_c, 2, 69, 78
3, 90112, Note_on_c, 2, 60, 79
3, 90240, Note_off_c, 2, 60, 0
3, 90240, Note_off_c, 2, 69, 0
3, 90240, Note_off_c, 2, 66, 0
3, 90880, Note_on_c, 2, 67, 79
3, 90880, Note_on_c, 2, 62, 94
3, 90880, Note_on_c, 2, 58, 83
3, 91008, Note_off_c, 2, 58, 0
3, 91008, Note_off_c, 2, 62, 0
3, 91008, Note_off_c, 2, 67, 0
3, 91264, Note_on_c, 2, 58, 42
3, 91392, Note_off_c, 2, 58, 0
3, 91392, Note_on_c, 2, 58, 73
3, 91392, Note_on_c, 2, 64, 78
3, 91392, Note_on_c, 2, 67, 81
3, 91648, Note_off_c, 2, 67, 0
3, 91648, Note_off_c, 2, 64, 0
3, 91648, Note_off_c, 2, 58, 0
3, 91648, Note_on_c, 2, 58, 78
3, 91648, Note_on_c, 2, 64, 83
3, 91648, Note_on_c, 2, 67, 74
3, 91776, Note_off_c, 2, 67, 0
3, 91776, Note_off_c, 2, 64, 0
3, 91776, Note_off_c, 2, 58, 0
3, 92160, Note_on_c, 2, 65, 83
3, 92160, Note_on_c, 2, 57, 78
3, 92160, Note_on_c, 2, 60, 77
3, 93184, Note_off_c, 2, 60, 0
3, 93184, Note_off_c, 2, 57, 0
3, 93184, Note_off_c, 2, 65, 0
3, 93184, Note_on_c, 2, 57, 89
3, 93184, Note_on_c, 2, 63, 81
3, 93184, Note_on_c, 2, 60, 81
3, 93184, Note_on_c, 2, 65, 78
3, 93312, Note_off_c, 2, 65, 0
3, 93312, Note_off_c, 2, 60, 0
3, 93312, Note_off_c, 2, 63, 0
3, 93312, Note_off_c, 2, 57, 0
3, 93952, Note_on_c, 2, 65, 79
3, 93952, Note_on_c, 2, 57, 77
3, 93952, Note_on_c, 2, 60, 83
3, 94036, Note_off_c, 2, 57, 0
3, 94040, Note_off_c, 2, 60, 0
3, 94052, Note_off_c, 2, 65, 0
3, 94336, Note_on_c, 2, 57, 72
3, 94412, Note_off_c, 2, 57, 0
3, 94464, Note_on_c, 2, 65, 83
3, 94464, Note_on_c, 2, 57, 72
3, 94464, Note_on_c, 2, 60, 79
3, 94644, Note_off_c, 2, 65, 0
3, 94664, Note_off_c, 2, 60, 0
3, 94672, Note_off_c, 2, 57, 0
3, 95104, Note_on_c, 2, 65, 73
3, 95104, Note_on_c, 2, 57, 78
3, 95104, Note_on_c, 2, 63, 81
3, 95184, Note_off_c, 2, 57, 0
3, 95188, Note_off_c, 2, 65, 0
3, 95220, Note_off_c, 2, 63, 0
3, 95488, Note_on_c, 2, 65, 77
3, 95488, Note_on_c, 2, 63, 89
3, 95488, Note_on_c, 2, 57, 79
3, 95572, Note_off_c, 2, 57, 0
3, 95580, Note_off_c, 2, 65, 0
3, 95596, Note_off_c, 2, 63, 0
3, 95872, Note_on_c, 2, 57, 63
3, 95940, Note_off_c, 2, 57, 0
3, 96000, Note_on_c, 2, 65, 81
3, 96000, Note_on_c, 2, 63, 89
3, 96000, Note_on_c, 2, 57, 68
3, 96156, Note_off_c, 2, 65, 0
3, 96172, Note_off_c, 2, 63, 0
3, 96176, Note_off_c, 2, 57, 0
3, 96256, Note_on_c, 2, 65, 81
3, 96256, Note_on_c, 2, 63, 79
3, 96256, Note_on_c, 2, 57, 77
3, 96368, Note_off_c, 2, 57, 0
3, 96372, Note_off_c, 2, 65, 0
3, 96396, Note_off_c, 2, 63, 0
3, 97024, Note_on_c, 2, 65, 76
3, 97024, Note_on_c, 2, 58, 76
3, 97024, Note_on_c, 2, 62, 83
3, 97112, Note_off_c, 2, 58, 0
3, 97116, Note_off_c, 2, 62, 0
3, 97140, Note_off_c, 2, 65, 0
3, 97408, Note_on_c, 2, 58, 50
3, 97480, Note_off_c, 2, 58, 0
3, 97536, Note_on_c, 2, 58, 71
3, 97536, Note_on_c, 2, 65, 79
3, 97536, Note_on_c, 2, 62, 78
3, 97724, Note_off_c, 2, 65, 0
3, 97724, Note_off_c, 2, 58, 0
3, 97748, Note_off_c, 2, 62, 0
3, 98176, Note_on_c, 2, 65, 74
3, 98176, Note_on_c, 2, 58, 73
3, 98176, Note_on_c, 2, 62, 86
3, 98248, Note_off_c, 2, 58, 0
3, 98256, Note_off_c, 2, 62, 0
3, 98264, Note_off_c, 2, 65, 0
3, 98560, Note_on_c, 2, 65, 76
3, 98560, Note_on_c, 2, 58, 72
3, 98560, Note_on_c, 2, 62, 81
3, 98628, Note_off_c, 2, 58, 0
3, 98640, Note_off_c, 2, 62, 0
3, 98644, Note_off_c, 2, 65, 0
3, 98944, Note_on_c, 2, 58, 48
3, 99012, Note_off_c, 2, 58, 0
3, 99072, Note_on_c, 2, 58, 68
3, 99072, Note_on_c, 2, 65, 78
3, 99072, Note_on_c, 2, 62, 81
3, 99240, Note_off_c, 2, 58, 0
3, 99244, Note_off_c, 2, 65, 0
3, 99264, Note_off_c, 2, 62, 0
3, 99328, Note_on_c, 2, 65, 77
3, 99328, Note_on_c, 2, 58, 77
3, 99328, Note_on_c, 2, 62, 73
3, 99432, Note_off_c, 2, 65, 0
3, 99436, Note_off_c, 2, 58, 0
3, 99456, Note_off_c, 2, 62, 0
3, 100096, Note_on_c, 2, 62, 79
3, 100096, Note_on_c, 2, 59, 79
3, 100096, Note_on_c, 2, 65, 77
3, 100096, Note_on_c, 2, 55, 71
3, 100184, Note_off_c, 2, 59, 0
3, 100192, Note_off_c, 2, 55, 0
3, 100192, Note_off_c, 2, 62, 0
3, 100220, Note_off_c, 2, 65, 0
3, 100480, Note_on_c, 2, 55, 72
3, 100560, Note_off_c, 2, 55, 0
3, 100608, Note_on_c, 2, 62, 76
3, 100608, Note_on_c, 2, 59, 79
3, 100608, Note_on_c, 2, 65, 79
3, 100608, Note_on_c, 2, 55, 73
3, 100804, Note_off_c, 2, 62, 0
3, 100808, Note_off_c, 2, 59, 0
3, 100816, Note_off_c, 2, 55, 0
3, 100820, Note_off_c, 2, 65, 0
3, 101248, Note_on_c, 2, 65, 71
3, 101248, Note_on_c, 2, 62, 76
3, 101248, Note_on_c, 2, 59, 78
3, 101248, Note_on_c, 2, 55, 76
3, 101340, Note_off_c, 2, 55, 0
3, 101340, Note_off_c, 2, 59, 0
3, 101352, Note_off_c, 2, 62, 0
3, 101356, Note_off_c, 2, 65, 0
3, 101632, Note_on_c, 2, 65, 68
3, 101632, Note_on_c, 2, 62, 77
3, 101632, Note_on_c, 2, 59, 77
3, 101632, Note_on_c, 2, 55, 78
3, 101724, Note_off_c, 2, 59, 0
3, 101732, Note_off_c, 2, 55, 0
3, 101736, Note_off_c, 2, 62, 0
3, 101756, Note_off_c, 2, 65, 0
3, 102016, Note_on_c, 2, 55, 66
3, 102096, Note_off_c, 2, 55, 0
3, 102144, Note_on_c, 2, 62, 70
3, 102144, Note_on_c, 2, 55, 67
3, 102144, Note_on_c, 2, 65, 76
3, 102144, Note_on_c, 2, 59, 77
3, 102316, Note_off_c, 2, 55, 0
3, 102320, Note_off_c, 2, 62, 0
3, 102328, Note_off_c, 2, 65, 0
3, 102336, Note_off_c, 2, 59, 0
3, 102400, Note_on_c, 2, 62, 67
3, 102400, Note_on_c, 2, 65, 76
3, 102400, Note_on_c, 2, 59, 79
3, 102400, Note_on_c, 2, 55, 78
3, 102496, Note_off_c, 2, 62, 0
3, 102528, Note_off_c, 2, 59, 0
3, 102532, Note_off_c, 2, 55, 0
3, 102532, Note_off_c, 2, 65, 0
3, 102912, Note_on_c, 2, 55, 92
3, 102912, Note_on_c, 2, 64, 92
3, 102912, Note_on_c, 2, 60, 78
3, 103064, Note_off_c, 2, 64, 0
3, 103076, Note_off_c, 2, 55, 0
3, 103084, Note_off_c, 2, 60, 0
3, 105600, Note_on_c, 2, 64, 92
3, 105600, Note_on_c, 2, 60, 79
3, 105600, Note_on_c, 2, 55, 86
3, 105904, Note_off_c, 2, 64, 0
3, 105916, Note_off_c, 2, 60, 0
3, 105920, Note_off_c, 2, 55, 0
3, 106240, Note_on_c, 2, 60, 92
3, 106240, Note_on_c, 2, 57, 79
3, 106240, Note_on_c, 2, 65, 83
3, 106368, Note_off_c, 2, 65, 0
3, 106368, Note_off_c, 2, 57, 0
3, 106368, Note_off_c, 2, 60, 0
3, 106624, Note_on_c, 2, 57, 81
3, 106752, Note_off_c, 2, 57, 0
3, 106752, Note_on_c, 2, 60, 73
3, 106752, Note_on_c, 2, 57, 70
3, 106752, Note_on_c, 2, 65, 83
3, 107136, Note_off_c, 2, 65, 0
3, 107136, Note_off_c, 2, 57, 0
3, 107136, Note_off_c, 2, 60, 0
3, 107776, Note_on_c, 2, 65, 77
3, 107776, Note_on_c, 2, 63, 83
3, 107776, Note_on_c, 2, 60, 78
3, 107776, Note_on_c, 2, 57, 86
3, 107904, Note_off_c, 2, 57, 0
3, 107904, Note_off_c, 2, 60, 0
3, 107904, Note_off_c, 2, 63, 0
3, 107904, Note_off_c, 2, 65, 0
3, 108160, Note_on_c, 2, 57, 77
3, 108288, Note_off_c, 2, 57, 0
3, 108288, Note_on_c, 2, 60, 77
3, 108288, Note_on_c, 2, 65, 74
3, 108288, Note_on_c, 2, 57, 73
3, 108288, Note_on_c, 2, 63, 83
3, 108416, Note_off_c, 2, 57, 0
3, 108416, Note_off_c, 2, 65, 0
3, 108544, Note_off_c, 2, 63, 0
3, 108544, Note_off_c, 2, 60, 0
3, 108544, Note_on_c, 2, 57, 81
3, 108544, Note_on_c, 2, 63, 76
3, 108544, Note_on_c, 2, 60, 72
3, 108544, Note_on_c, 2, 65, 77
3, 108672, Note_off_c, 2, 65, 0
3, 108672, Note_off_c, 2, 60, 0
3, 108672, Note_off_c, 2, 63, 0
3, 108672, Note_off_c, 2, 57, 0
3, 109312, Note_on_c, 2, 62, 89
3, 109312, Note_on_c, 2, 58, 76
3, 109312, Note_on_c, 2, 65, 77
3, 109440, Note_off_c, 2, 65, 0
3, 109440, Note_off_c, 2, 58, 0
3, 109440, Note_off_c, 2, 62, 0
3, 109696, Note_on_c, 2, 58, 68
3, 109824, Note_off_c, 2, 58, 0
3, 109824, Note_on_c, 2, 62, 81
3, 109824, Note_on_c, 2, 65, 79
3, 109824, Note_on_c, 2, 58, 74
3, 110336, Note_off_c, 2, 58, 0
3, 110336, Note_off_c, 2, 65, 0
3, 110336, Note_off_c, 2, 62, 0
3, 110464, Note_on_c, 2, 61, 81
3, 110464, Note_on_c, 2, 65, 78
3, 110464, Note_on_c, 2, 58, 70
3, 110592, Note_off_c, 2, 58, 0
3, 110592, Note_off_c, 2, 65, 0
3, 110592, Note_off_c, 2, 61, 0
3, 110848, Note_on_c, 2, 61, 83
3, 110848, Note_on_c, 2, 65, 83
3, 110848, Note_on_c, 2, 58, 78
3, 110976, Note_off_c, 2, 58, 0
3, 110976, Note_off_c, 2, 65, 0
3, 110976, Note_off_c, 2, 61, 0
3, 111232, Note_on_c, 2, 58, 61
3, 111360, Note_off_c, 2, 58, 0
3, 111360, Note_on_c, 2, 61, 83
3, 111360, Note_on_c, 2, 58, 70
3, 111360, Note_on_c, 2, 65, 86
3, 111488, Note_off_c, 2, 58, 0
3, 111616, Note_off_c, 2, 65, 0
3, 111616, Note_off_c, 2, 61, 0
3, 111616, Note_on_c, 2, 61, 83
3, 111616, Note_on_c, 2, 58, 83
3, 111616, Note_on_c, 2, 65, 86
3, 111744, Note_off_c, 2, 65, 0
3, 111744, Note_off_c, 2, 58, 0
3, 111744, Note_off_c, 2, 61, 0
3, 112384, Note_on_c, 2, 60, 81
3, 112384, Note_on_c, 2, 57, 81
3, 112384, Note_on_c, 2, 65, 89
3, 112512, Note_off_c, 2, 65, 0
3, 112512, Note_off_c, 2, 57, 0
3, 112512, Note_off_c, 2, 60, 0
3, 112768, Note_on_c, 2, 57, 71
3, 112896, Note_off_c, 2, 57, 0
3, 112896, Note_on_c, 2, 62, 79
3, 112896, Note_on_c, 2, 67, 83
3, 112896, Note_on_c, 2, 58, 63
3, 113280, Note_off_c, 2, 58, 0
3, 113280, Note_off_c, 2, 67, 0
3, 113280, Note_off_c, 2, 62, 0
3, 113536, Note_on_c, 2, 69, 77
3, 113536, Note_on_c, 2, 64, 76
3, 113536, Note_on_c, 2, 60, 78
3, 113664, Note_off_c, 2, 60, 0
3, 113664, Note_off_c, 2, 64, 0
3, 113664, Note_off_c, 2, 69, 0
3, 113920, Note_on_c, 2, 60, 79
3, 113920, Note_on_c, 2, 69, 81
3, 113920, Note_on_c, 2, 64, 83
3, 114048, Note_off_c, 2, 64, 0
3, 114048, Note_off_c, 2, 69, 0
3, 114048, Note_off_c, 2, 60, 0
3, 114304, Note_on_c, 2, 60, 52
3, 114432, Note_off_c, 2, 60, 0
3, 114432, Note_on_c, 2, 69, 81
3, 114432, Note_on_c, 2, 66, 83
3, 114432, Note_on_c, 2, 60, 72
3, 114560, Note_off_c, 2, 60, 0
3, 114688, Note_off_c, 2, 66, 0
3, 114688, Note_off_c, 2, 69, 0
3, 114688, Note_on_c, 2, 66, 89
3, 114688, Note_on_c, 2, 69, 78
3, 114688, Note_on_c, 2, 60, 79
3, 114816, Note_off_c, 2, 60, 0
3, 114816, Note_off_c, 2, 69, 0
3, 114816, Note_off_c, 2, 66, 0
3, 115456, Note_on_c, 2, 67, 79
3, 115456, Note_on_c, 2, 62, 94
3, 115456, Note_on_c, 2, 58, 83
3, 115584, Note_off_c, 2, 58, 0
3, 115584, Note_off_c, 2, 62, 0
3, 115584, Note_off_c, 2, 67, 0
3, 115840, Note_on_c, 2, 58, 42
3, 115968, Note_off_c, 2, 58, 0
3, 115968, Note_on_c, 2, 58, 73
3, 115968, Note_on_c, 2, 64, 78
3, 115968, Note_on_c, 2, 67, 81
3, 116224, Note_off_c, 2, 67, 0
3, 116224, Note_off_c, 2, 64, 0
3, 116224, Note_off_c, 2, 58, 0
3, 116224, Note_on_c, 2, 58, 78
3, 116224, Note_on_c, 2, 64, 83
3, 116224, Note_on_c, 2, 67, 74
3, 116352, Note_off_c, 2, 67, 0
3, 116352, Note_off_c, 2, 64, 0
3, 116352, Note_off_c, 2, 58, 0
3, 116736, Note_on_c, 2, 65, 83
3, 116736, Note_on_c, 2, 57, 78
3, 116736, Note_on_c, 2, 60, 77
3, 117760, Note_off_c, 2, 60, 0
3, 117760, Note_off_c, 2, 57, 0
3, 117760, Note_off_c, 2, 65, 0
3, 117760, Note_on_c, 2, 57, 89
3, 117760, Note_on_c, 2, 63, 81
3, 117760, Note_on_c, 2, 60, 81
3, 117760, Note_on_c, 2, 65, 78
3, 117888, Note_off_c, 2, 65, 0
3, 117888, Note_off_c, 2, 60, 0
3, 117888, Note_off_c, 2, 63, 0
3, 117888, Note_off_c, 2, 57, 0
3, 118272, Note_on_c, 2, 65, 86
3, 118272, Note_on_c, 2, 57, 81
3, 118272, Note_on_c, 2, 60, 89
3, 118528, Note_off_c, 2, 60, 0
3, 118528, Note_off_c, 2, 57, 0
3, 118528, Note_off_c, 2, 65, 0
3, 120832, Note_on_c, 2, 65, 89
3, 120832, Note_on_c, 2, 57, 83
3, 120832, Note_on_c, 2, 60, 86
3, 121216, Note_off_c, 2, 57, 0
3, 121344, Note_off_c, 2, 60, 0
3, 121344, Note_off_c, 2, 65, 0
3, 121344, Note_on_c, 2, 65, 94
3, 121344, Note_on_c, 2, 58, 81
3, 121344, Note_on_c, 2, 62, 89
3, 121472, Note_off_c, 2, 58, 0
3, 121472, Note_off_c, 2, 65, 0
3, 121600, Note_off_c, 2, 62, 0
3, 123904, Note_on_c, 2, 58, 81
3, 123904, Note_on_c, 2, 62, 94
3, 123904, Note_on_c, 2, 65, 89
3, 124288, Note_off_c, 2, 62, 0
3, 124288, Note_off_c, 2, 58, 0
3, 124416, Note_off_c, 2, 65, 0
3, 124416, Note_on_c, 2, 59, 83
3, 124416, Note_on_c, 2, 67, 92
3, 124416, Note_on_c, 2, 62, 89
3, 124672, Note_off_c, 2, 62, 0
3, 124672, Note_off_c, 2, 67, 0
3, 124672, Note_off_c, 2, 59, 0
3, 126976, Note_on_c, 2, 67, 89
3, 126976, Note_on_c, 2, 59, 81
3, 126976, Note_on_c, 2, 62, 89
3, 127360, Note_off_c, 2, 59, 0
3, 127488, Note_off_c, 2, 62, 0
3, 127488, Note_off_c, 2, 67, 0
3, 127488, Note_on_c, 2, 60, 86
3, 127488, Note_on_c, 2, 67, 89
3, 127488, Note_on_c, 2, 64, 94
3, 127616, Note_off_c, 2, 64, 0
3, 127616, Note_off_c, 2, 67, 0
3, 127616, Note_off_c, 2, 60, 0
3, 130560, Note_on_c, 2, 57, 73
3, 130816, Note_off_c, 2, 57, 0
3, 130816, Note_on_c, 2, 57, 57
3, 130816, Note_on_c, 2, 60, 70
3, 130816, Note_on_c, 2, 65, 74
3, 130944, Note_off_c, 2, 65, 0
3, 130944, Note_off_c, 2, 60, 0
3, 130944, Note_off_c, 2, 57, 0
3, 131200, Note_on_c, 2, 57, 77
3, 131328, Note_off_c, 2, 57, 0
3, 131328, Note_on_c, 2, 65, 79
3, 131328, Note_on_c, 2, 60, 72
3, 131328, Note_on_c, 2, 57, 71
3, 131712, Note_off_c, 2, 57, 0
3, 131712, Note_off_c, 2, 60, 0
3, 131712, Note_off_c, 2, 65, 0
3, 131968, Note_on_c, 2, 60, 78
3, 131968, Note_on_c, 2, 63, 73
3, 131968, Note_on_c, 2, 65, 76
3, 131968, Note_on_c, 2, 57, 78
3, 132096, Note_off_c, 2, 57, 0
3, 132096, Note_off_c, 2, 65, 0
3, 132096, Note_off_c, 2, 63, 0
3, 132096, Note_off_c, 2, 60, 0
3, 132352, Note_on_c, 2, 57, 72
3, 132352, Note_on_c, 2, 60, 79
3, 132352, Note_on_c, 2, 65, 76
3, 132352, Note_on_c, 2, 63, 78
3, 132480, Note_off_c, 2, 63, 0
3, 132480, Note_off_c, 2, 65, 0
3, 132480, Note_off_c, 2, 60, 0
3, 132480, Note_off_c, 2, 57, 0
3, 132736, Note_on_c, 2, 57, 74
3, 132864, Note_off_c, 2, 57, 0
3, 132864, Note_on_c, 2, 63, 74
3, 132864, Note_on_c, 2, 65, 74
3, 132864, Note_on_c, 2, 60, 73
3, 132864, Note_on_c, 2, 57, 71
3, 133120, Note_off_c, 2, 57, 0
3, 133120, Note_off_c, 2, 60, 0
3, 133120, Note_off_c, 2, 65, 0
3, 133120, Note_off_c, 2, 63, 0
3, 133120, Note_on_c, 2, 57, 73
3, 133120, Note_on_c, 2, 60, 70
3, 133120, Note_on_c, 2, 65, 70
3, 133120, Note_on_c, 2, 63, 72
3, 133248, Note_off_c, 2, 63, 0
3, 133248, Note_off_c, 2, 65, 0
3, 133248, Note_off_c, 2, 60, 0
3, 133248, Note_off_c, 2, 57, 0
3, 133632, Note_on_c, 2, 58, 92
3, 133888, Note_off_c, 2, 58, 0
3, 133888, Note_on_c, 2, 58, 77
3, 133888, Note_on_c, 2, 62, 89
3, 133888, Note_on_c, 2, 65, 83
3, 134016, Note_off_c, 2, 65, 0
3, 134016, Note_off_c, 2, 62, 0
3, 134016, Note_off_c, 2, 58, 0
3, 134272, Note_on_c, 2, 58, 68
3, 134400, Note_off_c, 2, 58, 0
3, 134400, Note_on_c, 2, 62, 79
3, 134400, Note_on_c, 2, 65, 89
3, 134400, Note_on_c, 2, 58, 72
3, 134912, Note_off_c, 2, 58, 0
3, 134912, Note_off_c, 2, 65, 0
3, 134912, Note_off_c, 2, 62, 0
3, 135040, Note_on_c, 2, 61, 83
3, 135040, Note_on_c, 2, 65, 78
3, 135040, Note_on_c, 2, 58, 73
3, 135168, Note_off_c, 2, 58, 0
3, 135168, Note_off_c, 2, 65, 0
3, 135168, Note_off_c, 2, 61, 0
3, 135424, Note_on_c, 2, 61, 83
3, 135424, Note_on_c, 2, 58, 70
3, 135424, Note_on_c, 2, 65, 78
3, 135552, Note_off_c, 2, 65, 0
3, 135552, Note_off_c, 2, 58, 0
3, 135552, Note_off_c, 2, 61, 0
3, 135808, Note_on_c, 2, 58, 60
3, 135936, Note_off_c, 2, 58, 0
3, 135936, Note_on_c, 2, 61, 86
3, 135936, Note_on_c, 2, 58, 61
3, 135936, Note_on_c, 2, 65, 77
3, 136064, Note_off_c, 2, 58, 0
3, 136192, Note_off_c, 2, 65, 0
3, 136192, Note_off_c, 2, 61, 0
3, 136192, Note_on_c, 2, 58, 74
3, 136192, Note_on_c, 2, 65, 79
3, 136192, Note_on_c, 2, 61, 77
3, 136320, Note_off_c, 2, 61, 0
3, 136320, Note_off_c, 2, 65, 0
3, 136320, Note_off_c, 2, 58, 0
3, 136960, Note_on_c, 2, 65, 83
3, 136960, Note_on_c, 2, 57, 73
3, 136960, Note_on_c, 2, 60, 78
3, 137088, Note_off_c, 2, 60, 0
3, 137088, Note_off_c, 2, 57, 0
3, 137088, Note_off_c, 2, 65, 0
3, 137344, Note_on_c, 2, 57, 55
3, 137472, Note_off_c, 2, 57, 0
3, 137472, Note_on_c, 2, 62, 79
3, 137472, Note_on_c, 2, 67, 74
3, 137472, Note_on_c, 2, 58, 72
3, 137856, Note_off_c, 2, 58, 0
3, 137856, Note_off_c, 2, 67, 0
3, 137856, Note_off_c, 2, 62, 0
3, 138112, Note_on_c, 2, 69, 77
3, 138112, Note_on_c, 2, 60, 81
3, 138112, Note_on_c, 2, 64, 81
3, 138240, Note_off_c, 2, 64, 0
3, 138240, Note_off_c, 2, 60, 0
3, 138240, Note_off_c, 2, 69, 0
3, 138496, Note_on_c, 2, 69, 79
3, 138496, Note_on_c, 2, 60, 74
3, 138496, Note_on_c, 2, 64, 81
3, 138624, Note_off_c, 2, 64, 0
3, 138624, Note_off_c, 2, 60, 0
3, 138624, Note_off_c, 2, 69, 0
3, 138880, Note_on_c, 2, 60, 71
3, 139008, Note_off_c, 2, 60, 0
3, 139008, Note_on_c, 2, 69, 79
3, 139008, Note_on_c, 2, 66, 81
3, 139008, Note_on_c, 2, 60, 81
3, 139136, Note_off_c, 2, 60, 0
3, 139264, Note_off_c, 2, 66, 0
3, 139264, Note_off_c, 2, 69, 0
3, 139264, Note_on_c, 2, 69, 74
3, 139264, Note_on_c, 2, 66, 71
3, 139264, Note_on_c, 2, 60, 83
3, 139392, Note_off_c, 2, 60, 0
3, 139392, Note_off_c, 2, 66, 0
3, 139392, Note_off_c, 2, 69, 0
3, 140032, Note_on_c, 2, 59, 72
3, 140032, Note_on_c, 2, 67, 73
3, 140032, Note_on_c, 2, 62, 73
3, 140032, Note_on_c, 2, 65, 67
3, 140160, Note_off_c, 2, 65, 0
3, 140160, Note_off_c, 2, 62, 0
3, 140160, Note_off_c, 2, 67, 0
3, 140160, Note_off_c, 2, 59, 0
3, 140416, Note_on_c, 2, 59, 63
3, 140544, Note_off_c, 2, 59, 0
3, 140544, Note_on_c, 2, 59, 66
3, 140544, Note_on_c, 2, 67, 76
3, 140544, Note_on_c, 2, 62, 73
3, 140544, Note_on_c, 2, 65, 76
3, 140928, Note_off_c, 2, 62, 0
3, 140928, Note_off_c, 2, 59, 0
3, 141056, Note_off_c, 2, 65, 0
3, 141056, Note_off_c, 2, 67, 0
3, 141184, Note_on_c, 2, 64, 77
3, 141184, Note_on_c, 2, 67, 73
3, 141184, Note_on_c, 2, 60, 76
3, 141312, Note_off_c, 2, 60, 0
3, 141312, Note_off_c, 2, 67, 0
3, 141312, Note_off_c, 2, 64, 0
3, 141568, Note_on_c, 2, 60, 83
3, 141568, Note_on_c, 2, 64, 81
3, 141568, Note_on_c, 2, 67, 76
3, 141696, Note_off_c, 2, 67, 0
3, 141696, Note_off_c, 2, 64, 0
3, 141696, Note_off_c, 2, 60, 0
3, 141952, Note_on_c, 2, 58, 50
3, 142080, Note_off_c, 2, 58, 0
3, 142080, Note_on_c, 2, 58, 77
3, 142080, Note_on_c, 2, 67, 81
3, 142080, Note_on_c, 2, 64, 83
3, 142208, Note_off_c, 2, 64, 0
3, 142208, Note_off_c, 2, 67, 0
3, 142208, Note_off_c, 2, 58, 0
3, 142336, Note_on_c, 2, 64, 74
3, 142336, Note_on_c, 2, 67, 83
3, 142336, Note_on_c, 2, 58, 81
3, 142464, Note_off_c, 2, 58, 0
3, 142464, Note_off_c, 2, 67, 0
3, 142464, Note_off_c, 2, 64, 0
3, 143104, Note_on_c, 2, 59, 72
3, 143104, Note_on_c, 2, 67, 73
3, 143104, Note_on_c, 2, 62, 73
3, 143104, Note_on_c, 2, 65, 67
3, 143232, Note_off_c, 2, 65, 0
3, 143232, Note_off_c, 2, 62, 0
3, 143232, Note_off_c, 2, 67, 0
3, 143232, Note_off_c, 2, 59, 0
3, 143488, Note_on_c, 2, 59, 63
3, 143616, Note_off_c, 2, 59, 0
3, 143616, Note_on_c, 2, 59, 66
3, 143616, Note_on_c, 2, 67, 76
3, 143616, Note_on_c, 2, 62, 73
3, 143616, Note_on_c, 2, 65, 76
3, 144000, Note_off_c, 2, 62, 0
3, 144000, Note_off_c, 2, 59, 0
3, 144128, Note_off_c, 2, 65, 0
3, 144128, Note_off_c, 2, 67, 0
3, 144384, Note_on_c, 2, 60, 76
3, 144384, Note_on_c, 2, 67, 73
3, 144384, Note_on_c, 2, 64, 77
3, 144512, Note_off_c, 2, 64, 0
3, 144512, Note_off_c, 2, 67, 0
3, 144512, Note_off_c, 2, 60, 0
3, 145920, End_track
4, 0, Start_track
4, 0, Title_t, "Bas"
4, 1536, Program_c, 4, 35
4, 1536, Control_c, 4, 7, 127
4, 4224, Note_on_c, 4, 36, 109
4, 4344, Note_off_c, 4, 36, 0
4, 4352, Note_on_c, 4, 38, 89
4, 4444, Note_off_c, 4, 38, 0
4, 4480, Note_on_c, 4, 40, 97
4, 4592, Note_off_c, 4, 40, 0
4, 4608, Note_on_c, 4, 41, 83
4, 4924, Note_off_c, 4, 41, 0
4, 4992, Note_on_c, 4, 40, 74
4, 5324, Note_off_c, 4, 40, 0
4, 5376, Note_on_c, 4, 38, 72
4, 5692, Note_off_c, 4, 38, 0
4, 5760, Note_on_c, 4, 36, 71
4, 6060, Note_off_c, 4, 36, 0
4, 6144, Note_on_c, 4, 34, 71
4, 6464, Note_off_c, 4, 34, 0
4, 6528, Note_on_c, 4, 33, 70
4, 6852, Note_off_c, 4, 33, 0
4, 6912, Note_on_c, 4, 31, 77
4, 7256, Note_off_c, 4, 31, 0
4, 7296, Note_on_c, 4, 36, 86
4, 7580, Note_off_c, 4, 36, 0
4, 7680, Note_on_c, 4, 41, 83
4, 7996, Note_off_c, 4, 41, 0
4, 8064, Note_on_c, 4, 40, 74
4, 8396, Note_off_c, 4, 40, 0
4, 8448, Note_on_c, 4, 38, 72
4, 8764, Note_off_c, 4, 38, 0
4, 8832, Note_on_c, 4, 36, 71
4, 9132, Note_off_c, 4, 36, 0
4, 9216, Note_on_c, 4, 34, 71
4, 9536, Note_off_c, 4, 34, 0
4, 9600, Note_on_c, 4, 33, 70
4, 9924, Note_off_c, 4, 33, 0
4, 9984, Note_on_c, 4, 31, 77
4, 10328, Note_off_c, 4, 31, 0
4, 10368, Note_on_c, 4, 36, 86
4, 10652, Note_off_c, 4, 36, 0
4, 10752, Note_on_c, 4, 41, 83
4, 11068, Note_off_c, 4, 41, 0
4, 11136, Note_on_c, 4, 40, 74
4, 11468, Note_off_c, 4, 40, 0
4, 11520, Note_on_c, 4, 38, 72
4, 11836, Note_off_c, 4, 38, 0
4, 11904, Note_on_c, 4, 36, 71
4, 12204, Note_off_c, 4, 36, 0
4, 12288, Note_on_c, 4, 34, 71
4, 12608, Note_off_c, 4, 34, 0
4, 12672, Note_on_c, 4, 33, 70
4, 12996, Note_off_c, 4, 33, 0
4, 13056, Note_on_c, 4, 31, 77
4, 13400, Note_off_c, 4, 31, 0
4, 13440, Note_on_c, 4, 36, 86
4, 13724, Note_off_c, 4, 36, 0
4, 13824, Note_on_c, 4, 41, 83
4, 14140, Note_off_c, 4, 41, 0
4, 14208, Note_on_c, 4, 40, 74
4, 14540, Note_off_c, 4, 40, 0
4, 14592, Note_on_c, 4, 38, 72
4, 14908, Note_off_c, 4, 38, 0
4, 14976, Note_on_c, 4, 36, 71
4, 15276, Note_off_c, 4, 36, 0
4, 15360, Note_on_c, 4, 34, 71
4, 15680, Note_off_c, 4, 34, 0
4, 15744, Note_on_c, 4, 33, 70
4, 16068, Note_off_c, 4, 33, 0
4, 16128, Note_on_c, 4, 31, 77
4, 16472, Note_off_c, 4, 31, 0
4, 16512, Note_on_c, 4, 36, 86
4, 16796, Note_off_c, 4, 36, 0
4, 16896, Note_on_c, 4, 41, 77
4, 17200, Note_off_c, 4, 41, 0
4, 17280, Note_on_c, 4, 40, 72
4, 17620, Note_off_c, 4, 40, 0
4, 17664, Note_on_c, 4, 38, 66
4, 17976, Note_off_c, 4, 38, 0
4, 18048, Note_on_c, 4, 36, 71
4, 18324, Note_off_c, 4, 36, 0
4, 18432, Note_on_c, 4, 29, 72
4, 18764, Note_off_c, 4, 29, 0
4, 18816, Note_on_c, 4, 30, 68
4, 19156, Note_off_c, 4, 30, 0
4, 19200, Note_on_c, 4, 31, 74
4, 19544, Note_off_c, 4, 31, 0
4, 19584, Note_on_c, 4, 33, 70
4, 19868, Note_off_c, 4, 33, 0
4, 19968, Note_on_c, 4, 34, 66
4, 20304, Note_off_c, 4, 34, 0
4, 20352, Note_on_c, 4, 38, 74
4, 20664, Note_off_c, 4, 38, 0
4, 20736, Note_on_c, 4, 41, 68
4, 21084, Note_off_c, 4, 41, 0
4, 21120, Note_on_c, 4, 38, 66
4, 21452, Note_off_c, 4, 38, 0
4, 21504, Note_on_c, 4, 34, 63
4, 21824, Note_off_c, 4, 34, 0
4, 21888, Note_on_c, 4, 36, 73
4, 22228, Note_off_c, 4, 36, 0
4, 22272, Note_on_c, 4, 37, 66
4, 22612, Note_off_c, 4, 37, 0
4, 22656, Note_on_c, 4, 34, 55
4, 22968, Note_off_c, 4, 34, 0
4, 23040, Note_on_c, 4, 29, 68
4, 23348, Note_off_c, 4, 29, 0
4, 23424, Note_on_c, 4, 29, 66
4, 23744, Note_off_c, 4, 29, 0
4, 23808, Note_on_c, 4, 31, 74
4, 24064, Note_off_c, 4, 31, 0
4, 24192, Note_on_c, 4, 31, 74
4, 24516, Note_off_c, 4, 31, 0
4, 24576, Note_on_c, 4, 33, 66
4, 24860, Note_off_c, 4, 33, 0
4, 24960, Note_on_c, 4, 33, 61
4, 25264, Note_off_c, 4, 33, 0
4, 25344, Note_on_c, 4, 26, 77
4, 25688, Note_off_c, 4, 26, 0
4, 25728, Note_on_c, 4, 38, 74
4, 26044, Note_off_c, 4, 38, 0
4, 26112, Note_on_c, 4, 31, 68
4, 26416, Note_off_c, 4, 31, 0
4, 26496, Note_on_c, 4, 35, 71
4, 26832, Note_off_c, 4, 35, 0
4, 26880, Note_on_c, 4, 38, 73
4, 27264, Note_on_c, 4, 31, 68
4, 27268, Note_off_c, 4, 38, 0
4, 27548, Note_off_c, 4, 31, 0
4, 27648, Note_on_c, 4, 36, 74
4, 27956, Note_off_c, 4, 36, 0
4, 28032, Note_on_c, 4, 34, 66
4, 28360, Note_off_c, 4, 34, 0
4, 28416, Note_on_c, 4, 33, 68
4, 28716, Note_off_c, 4, 33, 0
4, 28800, Note_on_c, 4, 31, 86
4, 29092, Note_off_c, 4, 31, 0
4, 29184, Note_on_c, 4, 41, 77
4, 29488, Note_off_c, 4, 41, 0
4, 29568, Note_on_c, 4, 40, 72
4, 29908, Note_off_c, 4, 40, 0
4, 29952, Note_on_c, 4, 38, 66
4, 30264, Note_off_c, 4, 38, 0
4, 30336, Note_on_c, 4, 36, 71
4, 30612, Note_off_c, 4, 36, 0
4, 30720, Note_on_c, 4, 29, 72
4, 31052, Note_off_c, 4, 29, 0
4, 31104, Note_on_c, 4, 30, 68
4, 31444, Note_off_c, 4, 30, 0
4, 31488, Note_on_c, 4, 31, 74
4, 31832, Note_off_c, 4, 31, 0
4, 31872, Note_on_c, 4, 33, 70
4, 32156, Note_off_c, 4, 33, 0
4, 32256, Note_on_c, 4, 34, 66
4, 32592, Note_off_c, 4, 34, 0
4, 32640, Note_on_c, 4, 38, 74
4, 32952, Note_off_c, 4, 38, 0
4, 33024, Note_on_c, 4, 41, 68
4, 33372, Note_off_c, 4, 41, 0
4, 33408, Note_on_c, 4, 38, 66
4, 33740, Note_off_c, 4, 38, 0
4, 33792, Note_on_c, 4, 34, 63
4, 34112, Note_off_c, 4, 34, 0
4, 34176, Note_on_c, 4, 36, 73
4, 34516, Note_off_c, 4, 36, 0
4, 34560, Note_on_c, 4, 37, 66
4, 34900, Note_off_c, 4, 37, 0
4, 34944, Note_on_c, 4, 34, 55
4, 35256, Note_off_c, 4, 34, 0
4, 35328, Note_on_c, 4, 29, 68
4, 35636, Note_off_c, 4, 29, 0
4, 35712, Note_on_c, 4, 29, 66
4, 36032, Note_off_c, 4, 29, 0
4, 36096, Note_on_c, 4, 31, 74
4, 36352, Note_off_c, 4, 31, 0
4, 36480, Note_on_c, 4, 31, 74
4, 36804, Note_off_c, 4, 31, 0
4, 36864, Note_on_c, 4, 33, 66
4, 37148, Note_off_c, 4, 33, 0
4, 37248, Note_on_c, 4, 33, 61
4, 37552, Note_off_c, 4, 33, 0
4, 37632, Note_on_c, 4, 26, 77
4, 37976, Note_off_c, 4, 26, 0
4, 38016, Note_on_c, 4, 38, 74
4, 38332, Note_off_c, 4, 38, 0
4, 38400, Note_on_c, 4, 31, 77
4, 38756, Note_off_c, 4, 31, 0
4, 38784, Note_on_c, 4, 35, 72
4, 39132, Note_off_c, 4, 35, 0
4, 39168, Note_on_c, 4, 36, 74
4, 39548, Note_off_c, 4, 36, 0
4, 39552, Note_on_c, 4, 40, 73
4, 39884, Note_off_c, 4, 40, 0
4, 39936, Note_on_c, 4, 29, 63
4, 40268, Note_off_c, 4, 29, 0
4, 40320, Note_on_c, 4, 33, 74
4, 40692, Note_off_c, 4, 33, 0
4, 40704, Note_on_c, 4, 36, 71
4, 41044, Note_off_c, 4, 36, 0
4, 41088, Note_on_c, 4, 33, 63
4, 41352, Note_off_c, 4, 33, 0
4, 41472, Note_on_c, 4, 41, 79
4, 41772, Note_off_c, 4, 41, 0
4, 41856, Note_on_c, 4, 40, 71
4, 42180, Note_off_c, 4, 40, 0
4, 42240, Note_on_c, 4, 38, 72
4, 42532, Note_off_c, 4, 38, 0
4, 42624, Note_on_c, 4, 36, 70
4, 42944, Note_off_c, 4, 36, 0
4, 43008, Note_on_c, 4, 34, 66
4, 43296, Note_off_c, 4, 34, 0
4, 43392, Note_on_c, 4, 33, 63
4, 43680, Note_off_c, 4, 33, 0
4, 43776, Note_on_c, 4, 31, 66
4, 44084, Note_off_c, 4, 31, 0
4, 44160, Note_on_c, 4, 29, 62
4, 44416, Note_off_c, 4, 29, 0
4, 44544, Note_on_c, 4, 34, 63
4, 44848, Note_off_c, 4, 34, 0
4, 44928, Note_on_c, 4, 38, 77
4, 45220, Note_off_c, 4, 38, 0
4, 45312, Note_on_c, 4, 41, 74
4, 45660, Note_off_c, 4, 41, 0
4, 45696, Note_on_c, 4, 38, 68
4, 46004, Note_off_c, 4, 38, 0
4, 46080, Note_on_c, 4, 34, 61
4, 46352, Note_off_c, 4, 34, 0
4, 46464, Note_on_c, 4, 38, 63
4, 46752, Note_off_c, 4, 38, 0
4, 46848, Note_on_c, 4, 41, 72
4, 47204, Note_off_c, 4, 41, 0
4, 47232, Note_on_c, 4, 34, 63
4, 47556, Note_off_c, 4, 34, 0
4, 47616, Note_on_c, 4, 31, 72
4, 47928, Note_off_c, 4, 31, 0
4, 48000, Note_on_c, 4, 35, 74
4, 48280, Note_off_c, 4, 35, 0
4, 48384, Note_on_c, 4, 38, 72
4, 48696, Note_off_c, 4, 38, 0
4, 48768, Note_on_c, 4, 43, 74
4, 49080, Note_off_c, 4, 43, 0
4, 49152, Note_on_c, 4, 41, 71
4, 49448, Note_off_c, 4, 41, 0
4, 49536, Note_on_c, 4, 38, 72
4, 49860, Note_off_c, 4, 38, 0
4, 49920, Note_on_c, 4, 35, 66
4, 50264, Note_off_c, 4, 35, 0
4, 50304, Note_on_c, 4, 31, 74
4, 50636, Note_off_c, 4, 31, 0
4, 50688, Note_on_c, 4, 36, 79
4, 50860, Note_off_c, 4, 36, 0
4, 53376, Note_on_c, 4, 36, 79
4, 53504, Note_on_c, 4, 38, 71
4, 53512, Note_off_c, 4, 36, 0
4, 53616, Note_off_c, 4, 38, 0
4, 53632, Note_on_c, 4, 40, 81
4, 53748, Note_off_c, 4, 40, 0
4, 53760, Note_on_c, 4, 41, 77
4, 54064, Note_off_c, 4, 41, 0
4, 54144, Note_on_c, 4, 40, 72
4, 54484, Note_off_c, 4, 40, 0
4, 54528, Note_on_c, 4, 38, 66
4, 54840, Note_off_c, 4, 38, 0
4, 54912, Note_on_c, 4, 36, 71
4, 55188, Note_off_c, 4, 36, 0
4, 55296, Note_on_c, 4, 29, 72
4, 55628, Note_off_c, 4, 29, 0
4, 55680, Note_on_c, 4, 30, 68
4, 56020, Note_off_c, 4, 30, 0
4, 56064, Note_on_c, 4, 31, 74
4, 56408, Note_off_c, 4, 31, 0
4, 56448, Note_on_c, 4, 33, 70
4, 56732, Note_off_c, 4, 33, 0
4, 56832, Note_on_c, 4, 34, 66
4, 57168, Note_off_c, 4, 34, 0
4, 57216, Note_on_c, 4, 38, 74
4, 57528, Note_off_c, 4, 38, 0
4, 57600, Note_on_c, 4, 41, 68
4, 57948, Note_off_c, 4, 41, 0
4, 57984, Note_on_c, 4, 38, 66
4, 58316, Note_off_c, 4, 38, 0
4, 58368, Note_on_c, 4, 34, 63
4, 58688, Note_off_c, 4, 34, 0
4, 58752, Note_on_c, 4, 36, 73
4, 59092, Note_off_c, 4, 36, 0
4, 59136, Note_on_c, 4, 37, 66
4, 59476, Note_off_c, 4, 37, 0
4, 59520, Note_on_c, 4, 34, 55
4, 59832, Note_off_c, 4, 34, 0
4, 59904, Note_on_c, 4, 29, 68
4, 60212, Note_off_c, 4, 29, 0
4, 60288, Note_on_c, 4, 29, 66
4, 60608, Note_off_c, 4, 29, 0
4, 60672, Note_on_c, 4, 31, 74
4, 60928, Note_off_c, 4, 31, 0
4, 61056, Note_on_c, 4, 31, 74
4, 61380, Note_off_c, 4, 31, 0
4, 61440, Note_on_c, 4, 33, 66
4, 61724, Note_off_c, 4, 33, 0
4, 61824, Note_on_c, 4, 33, 61
4, 62128, Note_off_c, 4, 33, 0
4, 62208, Note_on_c, 4, 26, 77
4, 62552, Note_off_c, 4, 26, 0
4, 62592, Note_on_c, 4, 38, 74
4, 62908, Note_off_c, 4, 38, 0
4, 62976, Note_on_c, 4, 31, 77
4, 63332, Note_off_c, 4, 31, 0
4, 63360, Note_on_c, 4, 35, 72
4, 63708, Note_off_c, 4, 35, 0
4, 63744, Note_on_c, 4, 36, 74
4, 64124, Note_off_c, 4, 36, 0
4, 64128, Note_on_c, 4, 40, 73
4, 64460, Note_off_c, 4, 40, 0
4, 64512, Note_on_c, 4, 29, 63
4, 64844, Note_off_c, 4, 29, 0
4, 64896, Note_on_c, 4, 33, 74
4, 65268, Note_off_c, 4, 33, 0
4, 65280, Note_on_c, 4, 36, 71
4, 65620, Note_off_c, 4, 36, 0
4, 65664, Note_on_c, 4, 33, 63
4, 65928, Note_off_c, 4, 33, 0
4, 66048, Note_on_c, 4, 36, 97
4, 66184, Note_off_c, 4, 36, 0
4, 66304, Note_on_c, 4, 36, 79
4, 66372, Note_off_c, 4, 36, 0
4, 66432, Note_on_c, 4, 36, 79
4, 66540, Note_off_c, 4, 36, 0
4, 66688, Note_on_c, 4, 36, 86
4, 66796, Note_off_c, 4, 36, 0
4, 66816, Note_on_c, 4, 34, 71
4, 67000, Note_off_c, 4, 34, 0
4, 67200, Note_on_c, 4, 31, 83
4, 67444, Note_off_c, 4, 31, 0
4, 67456, Note_on_c, 4, 36, 92
4, 67668, Note_off_c, 4, 36, 0
4, 69120, Note_on_c, 4, 41, 77
4, 69424, Note_off_c, 4, 41, 0
4, 69504, Note_on_c, 4, 40, 72
4, 69844, Note_off_c, 4, 40, 0
4, 69888, Note_on_c, 4, 38, 66
4, 70200, Note_off_c, 4, 38, 0
4, 70272, Note_on_c, 4, 36, 71
4, 70548, Note_off_c, 4, 36, 0
4, 70656, Note_on_c, 4, 29, 72
4, 70988, Note_off_c, 4, 29, 0
4, 71040, Note_on_c, 4, 30, 68
4, 71380, Note_off_c, 4, 30, 0
4, 71424, Note_on_c, 4, 31, 74
4, 71768, Note_off_c, 4, 31, 0
4, 71808, Note_on_c, 4, 33, 70
4, 72092, Note_off_c, 4, 33, 0
4, 72192, Note_on_c, 4, 34, 66
4, 72528, Note_off_c, 4, 34, 0
4, 72576, Note_on_c, 4, 38, 74
4, 72888, Note_off_c, 4, 38, 0
4, 72960, Note_on_c, 4, 41, 68
4, 73308, Note_off_c, 4, 41, 0
4, 73344, Note_on_c, 4, 38, 66
4, 73676, Note_off_c, 4, 38, 0
4, 73728, Note_on_c, 4, 34, 63
4, 74048, Note_off_c, 4, 34, 0
4, 74112, Note_on_c, 4, 36, 73
4, 74452, Note_off_c, 4, 36, 0
4, 74496, Note_on_c, 4, 37, 66
4, 74836, Note_off_c, 4, 37, 0
4, 74880, Note_on_c, 4, 34, 55
4, 75192, Note_off_c, 4, 34, 0
4, 75264, Note_on_c, 4, 29, 68
4, 75572, Note_off_c, 4, 29, 0
4, 75648, Note_on_c, 4, 29, 66
4, 75968, Note_off_c, 4, 29, 0
4, 76032, Note_on_c, 4, 31, 74
4, 76288, Note_off_c, 4, 31, 0
4, 76416, Note_on_c, 4, 31, 74
4, 76740, Note_off_c, 4, 31, 0
4, 76800, Note_on_c, 4, 33, 66
4, 77084, Note_off_c, 4, 33, 0
4, 77184, Note_on_c, 4, 33, 61
4, 77488, Note_off_c, 4, 33, 0
4, 77568, Note_on_c, 4, 26, 77
4, 77912, Note_off_c, 4, 26, 0
4, 77952, Note_on_c, 4, 38, 74
4, 78268, Note_off_c, 4, 38, 0
4, 78336, Note_on_c, 4, 31, 68
4, 78640, Note_off_c, 4, 31, 0
4, 78720, Note_on_c, 4, 35, 71
4, 79056, Note_off_c, 4, 35, 0
4, 79104, Note_on_c, 4, 38, 73
4, 79488, Note_on_c, 4, 31, 68
4, 79492, Note_off_c, 4, 38, 0
4, 79772, Note_off_c, 4, 31, 0
4, 79872, Note_on_c, 4, 36, 74
4, 80180, Note_off_c, 4, 36, 0
4, 80256, Note_on_c, 4, 34, 66
4, 80584, Note_off_c, 4, 34, 0
4, 80640, Note_on_c, 4, 33, 68
4, 80940, Note_off_c, 4, 33, 0
4, 81024, Note_on_c, 4, 31, 86
4, 81316, Note_off_c, 4, 31, 0
4, 81408, Note_on_c, 4, 41, 77
4, 81712, Note_off_c, 4, 41, 0
4, 81792, Note_on_c, 4, 40, 72
4, 82132, Note_off_c, 4, 40, 0
4, 82176, Note_on_c, 4, 38, 66
4, 82488, Note_off_c, 4, 38, 0
4, 82560, Note_on_c, 4, 36, 71
4, 82836, Note_off_c, 4, 36, 0
4, 82944, Note_on_c, 4, 29, 72
4, 83276, Note_off_c, 4, 29, 0
4, 83328, Note_on_c, 4, 30, 68
4, 83668, Note_off_c, 4, 30, 0
4, 83712, Note_on_c, 4, 31, 74
4, 84056, Note_off_c, 4, 31, 0
4, 84096, Note_on_c, 4, 33, 70
4, 84380, Note_off_c, 4, 33, 0
4, 84480, Note_on_c, 4, 34, 66
4, 84816, Note_off_c, 4, 34, 0
4, 84864, Note_on_c, 4, 38, 74
4, 85176, Note_off_c, 4, 38, 0
4, 85248, Note_on_c, 4, 41, 68
4, 85596, Note_off_c, 4, 41, 0
4, 85632, Note_on_c, 4, 38, 66
4, 85964, Note_off_c, 4, 38, 0
4, 86016, Note_on_c, 4, 34, 63
4, 86336, Note_off_c, 4, 34, 0
4, 86400, Note_on_c, 4, 36, 73
4, 86740, Note_off_c, 4, 36, 0
4, 86784, Note_on_c, 4, 37, 66
4, 87124, Note_off_c, 4, 37, 0
4, 87168, Note_on_c, 4, 34, 55
4, 87480, Note_off_c, 4, 34, 0
4, 87552, Note_on_c, 4, 29, 68
4, 87860, Note_off_c, 4, 29, 0
4, 87936, Note_on_c, 4, 29, 66
4, 88256, Note_off_c, 4, 29, 0
4, 88320, Note_on_c, 4, 31, 74
4, 88576, Note_off_c, 4, 31, 0
4, 88704, Note_on_c, 4, 31, 74
4, 89028, Note_off_c, 4, 31, 0
4, 89088, Note_on_c, 4, 33, 66
4, 89372, Note_off_c, 4, 33, 0
4, 89472, Note_on_c, 4, 33, 61
4, 89776, Note_off_c, 4, 33, 0
4, 89856, Note_on_c, 4, 26, 77
4, 90200, Note_off_c, 4, 26, 0
4, 90240, Note_on_c, 4, 38, 74
4, 90556, Note_off_c, 4, 38, 0
4, 90624, Note_on_c, 4, 31, 77
4, 90980, Note_off_c, 4, 31, 0
4, 91008, Note_on_c, 4, 35, 72
4, 91356, Note_off_c, 4, 35, 0
4, 91392, Note_on_c, 4, 36, 74
4, 91772, Note_off_c, 4, 36, 0
4, 91776, Note_on_c, 4, 40, 73
4, 92108, Note_off_c, 4, 40, 0
4, 92160, Note_on_c, 4, 29, 63
4, 92492, Note_off_c, 4, 29, 0
4, 92544, Note_on_c, 4, 33, 74
4, 92916, Note_off_c, 4, 33, 0
4, 92928, Note_on_c, 4, 36, 71
4, 93268, Note_off_c, 4, 36, 0
4, 93312, Note_on_c, 4, 33, 63
4, 93576, Note_off_c, 4, 33, 0
4, 93696, Note_on_c, 4, 41, 79
4, 93996, Note_off_c, 4, 41, 0
4, 94080, Note_on_c, 4, 40, 71
4, 94404, Note_off_c, 4, 40, 0
4, 94464, Note_on_c, 4, 38, 72
4, 94756, Note_off_c, 4, 38, 0
4, 94848, Note_on_c, 4, 36, 70
4, 95168, Note_off_c, 4, 36, 0
4, 95232, Note_on_c, 4, 34, 66
4, 95520, Note_off_c, 4, 34, 0
4, 95616, Note_on_c, 4, 33, 63
4, 95904, Note_off_c, 4, 33, 0
4, 96000, Note_on_c, 4, 31, 66
4, 96308, Note_off_c, 4, 31, 0
4, 96384, Note_on_c, 4, 29, 62
4, 96640, Note_off_c, 4, 29, 0
4, 96768, Note_on_c, 4, 34, 63
4, 97072, Note_off_c, 4, 34, 0
4, 97152, Note_on_c, 4, 38, 77
4, 97444, Note_off_c, 4, 38, 0
4, 97536, Note_on_c, 4, 41, 74
4, 97884, Note_off_c, 4, 41, 0
4, 97920, Note_on_c, 4, 38, 68
4, 98228, Note_off_c, 4, 38, 0
4, 98304, Note_on_c, 4, 34, 61
4, 98576, Note_off_c, 4, 34, 0
4, 98688, Note_on_c, 4, 38, 63
4, 98976, Note_off_c, 4, 38, 0
4, 99072, Note_on_c, 4, 41, 72
4, 99428, Note_off_c, 4, 41, 0
4, 99456, Note_on_c, 4, 34, 63
4, 99780, Note_off_c, 4, 34, 0
4, 99840, Note_on_c, 4, 31, 72
4, 100152, Note_off_c, 4, 31, 0
4, 100224, Note_on_c, 4, 35, 74
4, 100504, Note_off_c, 4, 35, 0
4, 100608, Note_on_c, 4, 38, 72
4, 100920, Note_off_c, 4, 38, 0
4, 100992, Note_on_c, 4, 43, 74
4, 101304, Note_off_c, 4, 43, 0
4, 101376, Note_on_c, 4, 41, 71
4, 101672, Note_off_c, 4, 41, 0
4, 101760, Note_on_c, 4, 38, 72
4, 102084, Note_off_c, 4, 38, 0
4, 102144, Note_on_c, 4, 35, 66
4, 102488, Note_off_c, 4, 35, 0
4, 102528, Note_on_c, 4, 31, 74
4, 102860, Note_off_c, 4, 31, 0
4, 102912, Note_on_c, 4, 36, 79
4, 103084, Note_off_c, 4, 36, 0
4, 105600, Note_on_c, 4, 36, 79
4, 105728, Note_on_c, 4, 38, 71
4, 105736, Note_off_c, 4, 36, 0
4, 105840, Note_off_c, 4, 38, 0
4, 105856, Note_on_c, 4, 40, 81
4, 105972, Note_off_c, 4, 40, 0
4, 105984, Note_on_c, 4, 41, 77
4, 106288, Note_off_c, 4, 41, 0
4, 106368, Note_on_c, 4, 40, 72
4, 106708, Note_off_c, 4, 40, 0
4, 106752, Note_on_c, 4, 38, 66
4, 107064, Note_off_c, 4, 38, 0
4, 107136, Note_on_c, 4, 36, 71
4, 107412, Note_off_c, 4, 36, 0
4, 107520, Note_on_c, 4, 29, 72
4, 107852, Note_off_c, 4, 29, 0
4, 107904, Note_on_c, 4, 30, 68
4, 108244, Note_off_c, 4, 30, 0
4, 108288, Note_on_c, 4, 31, 74
4, 108632, Note_off_c, 4, 31, 0
4, 108672, Note_on_c, 4, 33, 70
4, 108956, Note_off_c, 4, 33, 0
4, 109056, Note_on_c, 4, 34, 66
4, 109392, Note_off_c, 4, 34, 0
4, 109440, Note_on_c, 4, 38, 74
4, 109752, Note_off_c, 4, 38, 0
4, 109824, Note_on_c, 4, 41, 68
4, 110172, Note_off_c, 4, 41, 0
4, 110208, Note_on_c, 4, 38, 66
4, 110540, Note_off_c, 4, 38, 0
4, 110592, Note_on_c, 4, 34, 63
4, 110912, Note_off_c, 4, 34, 0
4, 110976, Note_on_c, 4, 36, 73
4, 111316, Note_off_c, 4, 36, 0
4, 111360, Note_on_c, 4, 37, 66
4, 111700, Note_off_c, 4, 37, 0
4, 111744, Note_on_c, 4, 34, 55
4, 112056, Note_off_c, 4, 34, 0
4, 112128, Note_on_c, 4, 29, 68
4, 112436, Note_off_c, 4, 29, 0
4, 112512, Note_on_c, 4, 29, 66
4, 112832, Note_off_c, 4, 29, 0
4, 112896, Note_on_c, 4, 31, 74
4, 113152, Note_off_c, 4, 31, 0
4, 113280, Note_on_c, 4, 31, 74
4, 113604, Note_off_c, 4, 31, 0
4, 113664, Note_on_c, 4, 33, 66
4, 113948, Note_off_c, 4, 33, 0
4, 114048, Note_on_c, 4, 33, 61
4, 114352, Note_off_c, 4, 33, 0
4, 114432, Note_on_c, 4, 26, 77
4, 114776, Note_off_c, 4, 26, 0
4, 114816, Note_on_c, 4, 38, 74
4, 115132, Note_off_c, 4, 38, 0
4, 115200, Note_on_c, 4, 31, 77
4, 115556, Note_off_c, 4, 31, 0
4, 115584, Note_on_c, 4, 35, 72
4, 115932, Note_off_c, 4, 35, 0
4, 115968, Note_on_c, 4, 36, 74
4, 116348, Note_off_c, 4, 36, 0
4, 116352, Note_on_c, 4, 40, 73
4, 116684, Note_off_c, 4, 40, 0
4, 116736, Note_on_c, 4, 29, 63
4, 117068, Note_off_c, 4, 29, 0
4, 117120, Note_on_c, 4, 33, 74
4, 117492, Note_off_c, 4, 33, 0
4, 117504, Note_on_c, 4, 36, 71
4, 117844, Note_off_c, 4, 36, 0
4, 117888, Note_on_c, 4, 33, 63
4, 118152, Note_off_c, 4, 33, 0
4, 118272, Note_on_c, 4, 29, 83
4, 118512, Note_off_c, 4, 29, 0
4, 120832, Note_on_c, 4, 29, 89
4, 121324, Note_off_c, 4, 29, 0
4, 121344, Note_on_c, 4, 34, 92
4, 121560, Note_off_c, 4, 34, 0
4, 123904, Note_on_c, 4, 34, 92
4, 124352, Note_off_c, 4, 34, 0
4, 124416, Note_on_c, 4, 31, 89
4, 124692, Note_off_c, 4, 31, 0
4, 126976, Note_on_c, 4, 31, 97
4, 127424, Note_off_c, 4, 31, 0
4, 127488, Note_on_c, 4, 36, 79
4, 127756, Note_off_c, 4, 36, 0
4, 130176, Note_on_c, 4, 36, 92
4, 130304, Note_off_c, 4, 36, 0
4, 130304, Note_on_c, 4, 38, 89
4, 130404, Note_off_c, 4, 38, 0
4, 130432, Note_on_c, 4, 40, 97
4, 130528, Note_off_c, 4, 40, 0
4, 130560, Note_on_c, 4, 41, 77
4, 130864, Note_off_c, 4, 41, 0
4, 130944, Note_on_c, 4, 40, 72
4, 131284, Note_off_c, 4, 40, 0
4, 131328, Note_on_c, 4, 38, 66
4, 131640, Note_off_c, 4, 38, 0
4, 131712, Note_on_c, 4, 36, 71
4, 131988, Note_off_c, 4, 36, 0
4, 132096, Note_on_c, 4, 29, 72
4, 132428, Note_off_c, 4, 29, 0
4, 132480, Note_on_c, 4, 30, 68
4, 132820, Note_off_c, 4, 30, 0
4, 132864, Note_on_c, 4, 31, 74
4, 133208, Note_off_c, 4, 31, 0
4, 133248, Note_on_c, 4, 33, 70
4, 133532, Note_off_c, 4, 33, 0
4, 133632, Note_on_c, 4, 34, 66
4, 133968, Note_off_c, 4, 34, 0
4, 134016, Note_on_c, 4, 38, 74
4, 134328, Note_off_c, 4, 38, 0
4, 134400, Note_on_c, 4, 41, 68
4, 134748, Note_off_c, 4, 41, 0
4, 134784, Note_on_c, 4, 38, 66
4, 135116, Note_off_c, 4, 38, 0
4, 135168, Note_on_c, 4, 34, 63
4, 135488, Note_off_c, 4, 34, 0
4, 135552, Note_on_c, 4, 36, 73
4, 135892, Note_off_c, 4, 36, 0
4, 135936, Note_on_c, 4, 37, 66
4, 136276, Note_off_c, 4, 37, 0
4, 136320, Note_on_c, 4, 34, 55
4, 136632, Note_off_c, 4, 34, 0
4, 136704, Note_on_c, 4, 29, 68
4, 137012, Note_off_c, 4, 29, 0
4, 137088, Note_on_c, 4, 29, 66
4, 137408, Note_off_c, 4, 29, 0
4, 137472, Note_on_c, 4, 31, 74
4, 137728, Note_off_c, 4, 31, 0
4, 137856, Note_on_c, 4, 31, 74
4, 138180, Note_off_c, 4, 31, 0
4, 138240, Note_on_c, 4, 33, 66
4, 138524, Note_off_c, 4, 33, 0
4, 138624, Note_on_c, 4, 33, 61
4, 138928, Note_off_c, 4, 33, 0
4, 139008, Note_on_c, 4, 26, 77
4, 139352, Note_off_c, 4, 26, 0
4, 139392, Note_on_c, 4, 38, 74
4, 139708, Note_off_c, 4, 38, 0
4, 139776, Note_on_c, 4, 31, 68
4, 140080, Note_off_c, 4, 31, 0
4, 140160, Note_on_c, 4, 35, 71
4, 140496, Note_off_c, 4, 35, 0
4, 140544, Note_on_c, 4, 38, 73
4, 140928, Note_on_c, 4, 31, 68
4, 140932, Note_off_c, 4, 38, 0
4, 141212, Note_off_c, 4, 31, 0
4, 141312, Note_on_c, 4, 36, 74
4, 141620, Note_off_c, 4, 36, 0
4, 141696, Note_on_c, 4, 34, 66
4, 142024, Note_off_c, 4, 34, 0
4, 142080, Note_on_c, 4, 33, 68
4, 142380, Note_off_c, 4, 33, 0
4, 142464, Note_on_c, 4, 31, 86
4, 142756, Note_off_c, 4, 31, 0
4, 142848, Note_on_c, 4, 31, 68
4, 143152, Note_off_c, 4, 31, 0
4, 143232, Note_on_c, 4, 35, 71
4, 143568, Note_off_c, 4, 35, 0
4, 143616, Note_on_c, 4, 38, 73
4, 144000, Note_on_c, 4, 31, 68
4, 144004, Note_off_c, 4, 38, 0
4, 144284, Note_off_c, 4, 31, 0
4, 144384, Note_on_c, 4, 36, 74
4, 144692, Note_off_c, 4, 36, 0
4, 145920, Note_on_c, 4, 29, 79
4, 146032, Note_off_c, 4, 29, 0
4, 146176, Note_on_c, 4, 33, 89
4, 146688, Note_on_c, 4, 34, 92
4, 146704, Note_off_c, 4, 33, 0
4, 146980, Note_off_c, 4, 34, 0
4, 147072, Note_on_c, 4, 37, 89
4, 147376, Note_off_c, 4, 37, 0
4, 147456, Note_on_c, 4, 36, 86
4, 147704, Note_off_c, 4, 36, 0
4, 147712, Note_on_c, 4, 38, 74
4, 147784, Note_off_c, 4, 38, 0
4, 147840, Note_on_c, 4, 40, 83
4, 148000, Note_off_c, 4, 40, 0
4, 148096, Note_on_c, 4, 41, 83
4, 148480, Note_on_c, 4, 29, 83
4, 148500, Note_off_c, 4, 41, 0
4, 150276, Note_off_c, 4, 29, 0
4, 150528, End_track
5, 0, Start_track
5, 0, Title_t, "Gitr2"
5, 1536, Program_c, 5, 24
5, 1536, Control_c, 5, 7, 127
5, 4864, Note_on_c, 5, 53, 69
5, 4864, Note_on_c, 5, 60, 62
5, 4864, Note_on_c, 5, 57, 68
5, 4928, Note_off_c, 5, 57, 0
5, 4928, Note_off_c, 5, 60, 0
5, 4928, Note_off_c, 5, 53, 0
5, 5248, Note_on_c, 5, 60, 67
5, 5248, Note_on_c, 5, 57, 63
5, 5248, Note_on_c, 5, 53, 63
5, 5312, Note_off_c, 5, 53, 0
5, 5312, Note_off_c, 5, 57, 0
5, 5312, Note_off_c, 5, 60, 0
5, 5632, Note_on_c, 5, 57, 71
5, 5632, Note_on_c, 5, 53, 62
5, 5632, Note_on_c, 5, 60, 64
5, 5696, Note_off_c, 5, 60, 0
5, 5696, Note_off_c, 5, 53, 0
5, 5696, Note_off_c, 5, 57, 0
5, 6016, Note_on_c, 5, 57, 64
5, 6016, Note_on_c, 5, 53, 46
5, 6016, Note_on_c, 5, 60, 63
5, 6080, Note_off_c, 5, 60, 0
5, 6080, Note_off_c, 5, 53, 0
5, 6080, Note_off_c, 5, 57, 0
5, 6400, Note_on_c, 5, 58, 62
5, 6400, Note_on_c, 5, 62, 73
5, 6400, Note_on_c, 5, 53, 62
5, 6464, Note_off_c, 5, 53, 0
5, 6464, Note_off_c, 5, 62, 0
5, 6464, Note_off_c, 5, 58, 0
5, 6784, Note_on_c, 5, 58, 61
5, 6784, Note_on_c, 5, 62, 71
5, 6784, Note_on_c, 5, 53, 62
5, 6848, Note_off_c, 5, 53, 0
5, 6848, Note_off_c, 5, 62, 0
5, 6848, Note_off_c, 5, 58, 0
5, 7168, Note_on_c, 5, 58, 66
5, 7168, Note_on_c, 5, 62, 82
5, 7168, Note_on_c, 5, 53, 63
5, 7232, Note_off_c, 5, 53, 0
5, 7232, Note_off_c, 5, 62, 0
5, 7232, Note_off_c, 5, 58, 0
5, 7552, Note_on_c, 5, 53, 60
5, 7552, Note_on_c, 5, 58, 52
5, 7552, Note_on_c, 5, 62, 79
5, 7616, Note_off_c, 5, 62, 0
5, 7616, Note_off_c, 5, 58, 0
5, 7616, Note_off_c, 5, 53, 0
5, 7936, Note_on_c, 5, 60, 63
5, 7936, Note_on_c, 5, 57, 66
5, 7936, Note_on_c, 5, 53, 57
5, 8000, Note_off_c, 5, 53, 0
5, 8000, Note_off_c, 5, 57, 0
5, 8000, Note_off_c, 5, 60, 0
5, 8320, Note_on_c, 5, 53, 62
5, 8320, Note_on_c, 5, 60, 73
5, 8320, Note_on_c, 5, 57, 66
5, 8384, Note_off_c, 5, 57, 0
5, 8384, Note_off_c, 5, 60, 0
5, 8384, Note_off_c, 5, 53, 0
5, 8704, Note_on_c, 5, 57, 71
5, 8704, Note_on_c, 5, 60, 68
5, 8704, Note_on_c, 5, 53, 63
5, 8768, Note_off_c, 5, 53, 0
5, 8768, Note_off_c, 5, 60, 0
5, 8768, Note_off_c, 5, 57, 0
5, 9088, Note_on_c, 5, 53, 63
5, 9088, Note_on_c, 5, 57, 63
5, 9088, Note_on_c, 5, 60, 64
5, 9152, Note_off_c, 5, 60, 0
5, 9152, Note_off_c, 5, 57, 0
5, 9152, Note_off_c, 5, 53, 0
5, 9472, Note_on_c, 5, 62, 73
5, 9472, Note_on_c, 5, 58, 58
5, 9472, Note_on_c, 5, 53, 58
5, 9536, Note_off_c, 5, 53, 0
5, 9536, Note_off_c, 5, 58, 0
5, 9536, Note_off_c, 5, 62, 0
5, 9856, Note_on_c, 5, 58, 62
5, 9856, Note_on_c, 5, 62, 71
5, 9856, Note_on_c, 5, 53, 63
5, 9920, Note_off_c, 5, 53, 0
5, 9920, Note_off_c, 5, 62, 0
5, 9920, Note_off_c, 5, 58, 0
5, 10240, Note_on_c, 5, 58, 63
5, 10240, Note_on_c, 5, 53, 57
5, 10240, Note_on_c, 5, 62, 62
5, 10304, Note_off_c, 5, 62, 0
5, 10304, Note_off_c, 5, 53, 0
5, 10304, Note_off_c, 5, 58, 0
5, 10624, Note_on_c, 5, 62, 76
5, 10624, Note_on_c, 5, 58, 61
5, 10624, Note_on_c, 5, 53, 61
5, 10688, Note_off_c, 5, 53, 0
5, 10688, Note_off_c, 5, 58, 0
5, 10688, Note_off_c, 5, 62, 0
5, 11008, Note_on_c, 5, 57, 64
5, 11008, Note_on_c, 5, 53, 56
5, 11008, Note_on_c, 5, 60, 55
5, 11072, Note_off_c, 5, 60, 0
5, 11072, Note_off_c, 5, 53, 0
5, 11072, Note_off_c, 5, 57, 0
5, 11392, Note_on_c, 5, 57, 71
5, 11392, Note_on_c, 5, 60, 67
5, 11392, Note_on_c, 5, 53, 62
5, 11456, Note_off_c, 5, 53, 0
5, 11456, Note_off_c, 5, 60, 0
5, 11456, Note_off_c, 5, 57, 0
5, 11776, Note_on_c, 5, 57, 68
5, 11776, Note_on_c, 5, 53, 60
5, 11776, Note_on_c, 5, 60, 62
5, 11840, Note_off_c, 5, 60, 0
5, 11840, Note_off_c, 5, 53, 0
5, 11840, Note_off_c, 5, 57, 0
5, 12160, Note_on_c, 5, 53, 53
5, 12160, Note_on_c, 5, 60, 60
5, 12160, Note_on_c, 5, 57, 60
5, 12224, Note_off_c, 5, 57, 0
5, 12224, Note_off_c, 5, 60, 0
5, 12224, Note_off_c, 5, 53, 0
5, 12544, Note_on_c, 5, 53, 58
5, 12544, Note_on_c, 5, 58, 60
5, 12544, Note_on_c, 5, 62, 67
5, 12608, Note_off_c, 5, 62, 0
5, 12608, Note_off_c, 5, 58, 0
5, 12608, Note_off_c, 5, 53, 0
5, 12928, Note_on_c, 5, 58, 60
5, 12928, Note_on_c, 5, 62, 67
5, 12928, Note_on_c, 5, 53, 60
5, 12992, Note_off_c, 5, 53, 0
5, 12992, Note_off_c, 5, 62, 0
5, 12992, Note_off_c, 5, 58, 0
5, 13312, Note_on_c, 5, 62, 69
5, 13312, Note_on_c, 5, 58, 63
5, 13312, Note_on_c, 5, 53, 61
5, 13376, Note_off_c, 5, 53, 0
5, 13376, Note_off_c, 5, 58, 0
5, 13376, Note_off_c, 5, 62, 0
5, 13696, Note_on_c, 5, 53, 55
5, 13696, Note_on_c, 5, 58, 28
5, 13696, Note_on_c, 5, 62, 66
5, 13760, Note_off_c, 5, 62, 0
5, 13760, Note_off_c, 5, 58, 0
5, 13760, Note_off_c, 5, 53, 0
5, 14080, Note_on_c, 5, 53, 64
5, 14080, Note_on_c, 5, 60, 61
5, 14080, Note_on_c, 5, 57, 66
5, 14144, Note_off_c, 5, 57, 0
5, 14144, Note_off_c, 5, 60, 0
5, 14144, Note_off_c, 5, 53, 0
5, 14464, Note_on_c, 5, 60, 60
5, 14464, Note_on_c, 5, 53, 64
5, 14464, Note_on_c, 5, 57, 63
5, 14528, Note_off_c, 5, 57, 0
5, 14528, Note_off_c, 5, 53, 0
5, 14528, Note_off_c, 5, 60, 0
5, 14848, Note_on_c, 5, 53, 63
5, 14848, Note_on_c, 5, 57, 58
5, 14848, Note_on_c, 5, 60, 62
5, 14912, Note_off_c, 5, 60, 0
5, 14912, Note_off_c, 5, 57, 0
5, 14912, Note_off_c, 5, 53, 0
5, 15232, Note_on_c, 5, 53, 61
5, 15232, Note_on_c, 5, 57, 64
5, 15232, Note_on_c, 5, 60, 66
5, 15296, Note_off_c, 5, 60, 0
5, 15296, Note_off_c, 5, 57, 0
5, 15296, Note_off_c, 5, 53, 0
5, 15616, Note_on_c, 5, 58, 57
5, 15616, Note_on_c, 5, 53, 62
5, 15616, Note_on_c, 5, 62, 66
5, 15680, Note_off_c, 5, 62, 0
5, 15680, Note_off_c, 5, 53, 0
5, 15680, Note_off_c, 5, 58, 0
5, 16000, Note_on_c, 5, 58, 64
5, 16000, Note_on_c, 5, 53, 63
5, 16000, Note_on_c, 5, 62, 71
5, 16064, Note_off_c, 5, 62, 0
5, 16064, Note_off_c, 5, 53, 0
5, 16064, Note_off_c, 5, 58, 0
5, 16384, Note_on_c, 5, 58, 62
5, 16384, Note_on_c, 5, 53, 57
5, 16384, Note_on_c, 5, 62, 68
5, 16448, Note_off_c, 5, 62, 0
5, 16448, Note_off_c, 5, 53, 0
5, 16448, Note_off_c, 5, 58, 0
5, 16768, Note_on_c, 5, 58, 57
5, 16768, Note_on_c, 5, 53, 67
5, 16768, Note_on_c, 5, 62, 82
5, 16832, Note_off_c, 5, 62, 0
5, 16832, Note_off_c, 5, 53, 0
5, 16832, Note_off_c, 5, 58, 0
5, 17152, Note_on_c, 5, 53, 63
5, 17152, Note_on_c, 5, 60, 64
5, 17152, Note_on_c, 5, 57, 66
5, 17216, Note_off_c, 5, 57, 0
5, 17216, Note_off_c, 5, 60, 0
5, 17216, Note_off_c, 5, 53, 0
5, 17536, Note_on_c, 5, 53, 69
5, 17536, Note_on_c, 5, 60, 66
5, 17536, Note_on_c, 5, 57, 76
5, 17600, Note_off_c, 5, 57, 0
5, 17600, Note_off_c, 5, 60, 0
5, 17600, Note_off_c, 5, 53, 0
5, 17920, Note_on_c, 5, 57, 73
5, 17920, Note_on_c, 5, 60, 68
5, 17920, Note_on_c, 5, 53, 68
5, 17984, Note_off_c, 5, 53, 0
5, 17984, Note_off_c, 5, 60, 0
5, 17984, Note_off_c, 5, 57, 0
5, 18304, Note_on_c, 5, 53, 63
5, 18304, Note_on_c, 5, 60, 64
5, 18304, Note_on_c, 5, 57, 68
5, 18368, Note_off_c, 5, 57, 0
5, 18368, Note_off_c, 5, 60, 0
5, 18368, Note_off_c, 5, 53, 0
5, 18688, Note_on_c, 5, 51, 84
5, 18688, Note_on_c, 5, 53, 67
5, 18688, Note_on_c, 5, 60, 63
5, 18688, Note_on_c, 5, 57, 63
5, 18752, Note_off_c, 5, 57, 0
5, 18752, Note_off_c, 5, 60, 0
5, 18752, Note_off_c, 5, 53, 0
5, 18752, Note_off_c, 5, 51, 0
5, 19072, Note_on_c, 5, 51, 79
5, 19072, Note_on_c, 5, 60, 63
5, 19072, Note_on_c, 5, 57, 69
5, 19072, Note_on_c, 5, 53, 63
5, 19136, Note_off_c, 5, 53, 0
5, 19136, Note_off_c, 5, 57, 0
5, 19136, Note_off_c, 5, 60, 0
5, 19136, Note_off_c, 5, 51, 0
5, 19456, Note_on_c, 5, 57, 71
5, 19456, Note_on_c, 5, 60, 63
5, 19456, Note_on_c, 5, 51, 79
5, 19456, Note_on_c, 5, 53, 61
5, 19520, Note_off_c, 5, 53, 0
5, 19520, Note_off_c, 5, 51, 0
5, 19520, Note_off_c, 5, 60, 0
5, 19520, Note_off_c, 5, 57, 0
5, 19840, Note_on_c, 5, 51, 82
5, 19840, Note_on_c, 5, 57, 66
5, 19840, Note_on_c, 5, 60, 67
5, 19840, Note_on_c, 5, 53, 62
5, 19904, Note_off_c, 5, 53, 0
5, 19904, Note_off_c, 5, 60, 0
5, 19904, Note_off_c, 5, 57, 0
5, 19904, Note_off_c, 5, 51, 0
5, 20224, Note_on_c, 5, 53, 67
5, 20224, Note_on_c, 5, 58, 64
5, 20224, Note_on_c, 5, 62, 67
5, 20288, Note_off_c, 5, 62, 0
5, 20288, Note_off_c, 5, 58, 0
5, 20288, Note_off_c, 5, 53, 0
5, 20608, Note_on_c, 5, 53, 66
5, 20608, Note_on_c, 5, 62, 69
5, 20608, Note_on_c, 5, 58, 63
5, 20672, Note_off_c, 5, 58, 0
5, 20672, Note_off_c, 5, 62, 0
5, 20672, Note_off_c, 5, 53, 0
5, 20992, Note_on_c, 5, 58, 60
5, 20992, Note_on_c, 5, 53, 69
5, 20992, Note_on_c, 5, 62, 69
5, 21056, Note_off_c, 5, 62, 0
5, 21056, Note_off_c, 5, 53, 0
5, 21056, Note_off_c, 5, 58, 0
5, 21376, Note_on_c, 5, 53, 68
5, 21376, Note_on_c, 5, 62, 71
5, 21376, Note_on_c, 5, 58, 57
5, 21440, Note_off_c, 5, 58, 0
5, 21440, Note_off_c, 5, 62, 0
5, 21440, Note_off_c, 5, 53, 0
5, 21760, Note_on_c, 5, 61, 64
5, 21760, Note_on_c, 5, 53, 62
5, 21760, Note_on_c, 5, 58, 63
5, 21824, Note_off_c, 5, 58, 0
5, 21824, Note_off_c, 5, 53, 0
5, 21824, Note_off_c, 5, 61, 0
5, 22144, Note_on_c, 5, 53, 68
5, 22144, Note_on_c, 5, 58, 62
5, 22144, Note_on_c, 5, 61, 73
5, 22208, Note_off_c, 5, 61, 0
5, 22208, Note_off_c, 5, 58, 0
5, 22208, Note_off_c, 5, 53, 0
5, 22528, Note_on_c, 5, 53, 69
5, 22528, Note_on_c, 5, 61, 79
5, 22528, Note_on_c, 5, 58, 64
5, 22592, Note_off_c, 5, 58, 0
5, 22592, Note_off_c, 5, 61, 0
5, 22592, Note_off_c, 5, 53, 0
5, 22912, Note_on_c, 5, 61, 68
5, 22912, Note_on_c, 5, 53, 66
5, 22912, Note_on_c, 5, 58, 60
5, 22976, Note_off_c, 5, 58, 0
5, 22976, Note_off_c, 5, 53, 0
5, 22976, Note_off_c, 5, 61, 0
5, 23296, Note_on_c, 5, 53, 63
5, 23296, Note_on_c, 5, 57, 69
5, 23296, Note_on_c, 5, 60, 68
5, 23360, Note_off_c, 5, 60, 0
5, 23360, Note_off_c, 5, 57, 0
5, 23360, Note_off_c, 5, 53, 0
5, 23680, Note_on_c, 5, 57, 64
5, 23680, Note_on_c, 5, 53, 60
5, 23680, Note_on_c, 5, 60, 67
5, 23744, Note_off_c, 5, 60, 0
5, 23744, Note_off_c, 5, 53, 0
5, 23744, Note_off_c, 5, 57, 0
5, 24064, Note_on_c, 5, 62, 62
5, 24064, Note_on_c, 5, 55, 66
5, 24064, Note_on_c, 5, 58, 62
5, 24128, Note_off_c, 5, 58, 0
5, 24128, Note_off_c, 5, 55, 0
5, 24128, Note_off_c, 5, 62, 0
5, 24448, Note_on_c, 5, 62, 66
5, 24448, Note_on_c, 5, 58, 63
5, 24448, Note_on_c, 5, 55, 68
5, 24512, Note_off_c, 5, 55, 0
5, 24512, Note_off_c, 5, 58, 0
5, 24512, Note_off_c, 5, 62, 0
5, 24832, Note_on_c, 5, 60, 63
5, 24832, Note_on_c, 5, 64, 63
5, 24832, Note_on_c, 5, 57, 67
5, 24896, Note_off_c, 5, 57, 0
5, 24896, Note_off_c, 5, 64, 0
5, 24896, Note_off_c, 5, 60, 0
5, 25216, Note_on_c, 5, 60, 73
5, 25216, Note_on_c, 5, 64, 71
5, 25216, Note_on_c, 5, 57, 66
5, 25280, Note_off_c, 5, 57, 0
5, 25280, Note_off_c, 5, 64, 0
5, 25280, Note_off_c, 5, 60, 0
5, 25600, Note_on_c, 5, 62, 67
5, 25600, Note_on_c, 5, 57, 61
5, 25600, Note_on_c, 5, 60, 56
5, 25600, Note_on_c, 5, 54, 66
5, 25664, Note_off_c, 5, 54, 0
5, 25664, Note_off_c, 5, 60, 0
5, 25664, Note_off_c, 5, 57, 0
5, 25664, Note_off_c, 5, 62, 0
5, 25984, Note_on_c, 5, 54, 76
5, 25984, Note_on_c, 5, 60, 69
5, 25984, Note_on_c, 5, 57, 71
5, 25984, Note_on_c, 5, 62, 71
5, 26048, Note_off_c, 5, 62, 0
5, 26048, Note_off_c, 5, 57, 0
5, 26048, Note_off_c, 5, 60, 0
5, 26048, Note_off_c, 5, 54, 0
5, 26368, Note_on_c, 5, 55, 68
5, 26368, Note_on_c, 5, 62, 68
5, 26368, Note_on_c, 5, 59, 64
5, 26432, Note_off_c, 5, 59, 0
5, 26432, Note_off_c, 5, 62, 0
5, 26432, Note_off_c, 5, 55, 0
5, 26752, Note_on_c, 5, 55, 73
5, 26752, Note_on_c, 5, 59, 69
5, 26752, Note_on_c, 5, 62, 73
5, 26816, Note_off_c, 5, 62, 0
5, 26816, Note_off_c, 5, 59, 0
5, 26816, Note_off_c, 5, 55, 0
5, 27136, Note_on_c, 5, 59, 73
5, 27136, Note_on_c, 5, 62, 76
5, 27136, Note_on_c, 5, 55, 69
5, 27200, Note_off_c, 5, 55, 0
5, 27200, Note_off_c, 5, 62, 0
5, 27200, Note_off_c, 5, 59, 0
5, 27520, Note_on_c, 5, 55, 61
5, 27520, Note_on_c, 5, 59, 62
5, 27520, Note_on_c, 5, 62, 66
5, 27584, Note_off_c, 5, 62, 0
5, 27584, Note_off_c, 5, 59, 0
5, 27584, Note_off_c, 5, 55, 0
5, 27904, Note_on_c, 5, 60, 71
5, 27904, Note_on_c, 5, 52, 63
5, 27904, Note_on_c, 5, 58, 69
5, 27968, Note_off_c, 5, 58, 0
5, 27968, Note_off_c, 5, 52, 0
5, 27968, Note_off_c, 5, 60, 0
5, 28288, Note_on_c, 5, 58, 68
5, 28288, Note_on_c, 5, 52, 69
5, 28288, Note_on_c, 5, 60, 73
5, 28352, Note_off_c, 5, 60, 0
5, 28352, Note_off_c, 5, 52, 0
5, 28352, Note_off_c, 5, 58, 0
5, 28672, Note_on_c, 5, 52, 69
5, 28672, Note_on_c, 5, 58, 73
5, 28672, Note_on_c, 5, 60, 73
5, 28736, Note_off_c, 5, 60, 0
5, 28736, Note_off_c, 5, 58, 0
5, 28736, Note_off_c, 5, 52, 0
5, 29056, Note_on_c, 5, 60, 73
5, 29056, Note_on_c, 5, 58, 73
5, 29056, Note_on_c, 5, 52, 82
5, 29120, Note_off_c, 5, 52, 0
5, 29120, Note_off_c, 5, 58, 0
5, 29120, Note_off_c, 5, 60, 0
5, 29440, Note_on_c, 5, 57, 79
5, 29440, Note_on_c, 5, 60, 62
5, 29440, Note_on_c, 5, 53, 73
5, 29504, Note_off_c, 5, 53, 0
5, 29504, Note_off_c, 5, 60, 0
5, 29504, Note_off_c, 5, 57, 0
5, 29824, Note_on_c, 5, 53, 69
5, 29824, Note_on_c, 5, 60, 68
5, 29824, Note_on_c, 5, 57, 73
5, 29888, Note_off_c, 5, 57, 0
5, 29888, Note_off_c, 5, 60, 0
5, 29888, Note_off_c, 5, 53, 0
5, 30208, Note_on_c, 5, 53, 67
5, 30208, Note_on_c, 5, 60, 61
5, 30208, Note_on_c, 5, 57, 73
5, 30272, Note_off_c, 5, 57, 0
5, 30272, Note_off_c, 5, 60, 0
5, 30272, Note_off_c, 5, 53, 0
5, 30592, Note_on_c, 5, 53, 63
5, 30592, Note_on_c, 5, 60, 62
5, 30592, Note_on_c, 5, 57, 69
5, 30656, Note_off_c, 5, 57, 0
5, 30656, Note_off_c, 5, 60, 0
5, 30656, Note_off_c, 5, 53, 0
5, 30976, Note_on_c, 5, 53, 67
5, 30976, Note_on_c, 5, 63, 63
5, 30976, Note_on_c, 5, 60, 62
5, 30976, Note_on_c, 5, 57, 68
5, 31040, Note_off_c, 5, 57, 0
5, 31040, Note_off_c, 5, 60, 0
5, 31040, Note_off_c, 5, 63, 0
5, 31040, Note_off_c, 5, 53, 0
5, 31360, Note_on_c, 5, 57, 73
5, 31360, Note_on_c, 5, 63, 62
5, 31360, Note_on_c, 5, 60, 61
5, 31360, Note_on_c, 5, 53, 66
5, 31424, Note_off_c, 5, 53, 0
5, 31424, Note_off_c, 5, 60, 0
5, 31424, Note_off_c, 5, 63, 0
5, 31424, Note_off_c, 5, 57, 0
5, 31744, Note_on_c, 5, 53, 63
5, 31744, Note_on_c, 5, 63, 62
5, 31744, Note_on_c, 5, 60, 55
5, 31744, Note_on_c, 5, 57, 71
5, 31808, Note_off_c, 5, 57, 0
5, 31808, Note_off_c, 5, 60, 0
5, 31808, Note_off_c, 5, 63, 0
5, 31808, Note_off_c, 5, 53, 0
5, 32128, Note_on_c, 5, 53, 64
5, 32128, Note_on_c, 5, 60, 55
5, 32128, Note_on_c, 5, 63, 58
5, 32128, Note_on_c, 5, 57, 73
5, 32192, Note_off_c, 5, 57, 0
5, 32192, Note_off_c, 5, 63, 0
5, 32192, Note_off_c, 5, 60, 0
5, 32192, Note_off_c, 5, 53, 0
5, 32512, Note_on_c, 5, 53, 73
5, 32512, Note_on_c, 5, 62, 62
5, 32512, Note_on_c, 5, 58, 64
5, 32576, Note_off_c, 5, 58, 0
5, 32576, Note_off_c, 5, 62, 0
5, 32576, Note_off_c, 5, 53, 0
5, 32896, Note_on_c, 5, 62, 67
5, 32896, Note_on_c, 5, 53, 69
5, 32896, Note_on_c, 5, 58, 64
5, 32960, Note_off_c, 5, 58, 0
5, 32960, Note_off_c, 5, 53, 0
5, 32960, Note_off_c, 5, 62, 0
5, 33280, Note_on_c, 5, 58, 58
5, 33280, Note_on_c, 5, 62, 76
5, 33280, Note_on_c, 5, 53, 68
5, 33344, Note_off_c, 5, 53, 0
5, 33344, Note_off_c, 5, 62, 0
5, 33344, Note_off_c, 5, 58, 0
5, 33664, Note_on_c, 5, 62, 79
5, 33664, Note_on_c, 5, 58, 62
5, 33664, Note_on_c, 5, 53, 71
5, 33728, Note_off_c, 5, 53, 0
5, 33728, Note_off_c, 5, 58, 0
5, 33728, Note_off_c, 5, 62, 0
5, 34048, Note_on_c, 5, 58, 57
5, 34048, Note_on_c, 5, 61, 76
5, 34048, Note_on_c, 5, 53, 62
5, 34112, Note_off_c, 5, 53, 0
5, 34112, Note_off_c, 5, 61, 0
5, 34112, Note_off_c, 5, 58, 0
5, 34432, Note_on_c, 5, 61, 76
5, 34432, Note_on_c, 5, 53, 62
5, 34432, Note_on_c, 5, 58, 60
5, 34496, Note_off_c, 5, 58, 0
5, 34496, Note_off_c, 5, 53, 0
5, 34496, Note_off_c, 5, 61, 0
5, 34816, Note_on_c, 5, 61, 73
5, 34816, Note_on_c, 5, 58, 63
5, 34816, Note_on_c, 5, 53, 67
5, 34880, Note_off_c, 5, 53, 0
5, 34880, Note_off_c, 5, 58, 0
5, 34880, Note_off_c, 5, 61, 0
5, 35200, Note_on_c, 5, 58, 62
5, 35200, Note_on_c, 5, 61, 76
5, 35200, Note_on_c, 5, 53, 62
5, 35264, Note_off_c, 5, 53, 0
5, 35264, Note_off_c, 5, 61, 0
5, 35264, Note_off_c, 5, 58, 0
5, 35584, Note_on_c, 5, 53, 64
5, 35584, Note_on_c, 5, 60, 63
5, 35584, Note_on_c, 5, 57, 73
5, 35648, Note_off_c, 5, 57, 0
5, 35648, Note_off_c, 5, 60, 0
5, 35648, Note_off_c, 5, 53, 0
5, 35968, Note_on_c, 5, 60, 53
5, 35968, Note_on_c, 5, 53, 64
5, 35968, Note_on_c, 5, 57, 71
5, 36032, Note_off_c, 5, 57, 0
5, 36032, Note_off_c, 5, 53, 0
5, 36032, Note_off_c, 5, 60, 0
5, 36352, Note_on_c, 5, 62, 73
5, 36352, Note_on_c, 5, 55, 68
5, 36352, Note_on_c, 5, 58, 63
5, 36416, Note_off_c, 5, 58, 0
5, 36416, Note_off_c, 5, 55, 0
5, 36416, Note_off_c, 5, 62, 0
5, 36736, Note_on_c, 5, 62, 76
5, 36736, Note_on_c, 5, 58, 64
5, 36736, Note_on_c, 5, 55, 68
5, 36800, Note_off_c, 5, 55, 0
5, 36800, Note_off_c, 5, 58, 0
5, 36800, Note_off_c, 5, 62, 0
5, 37120, Note_on_c, 5, 57, 73
5, 37120, Note_on_c, 5, 60, 68
5, 37120, Note_on_c, 5, 64, 82
5, 37184, Note_off_c, 5, 64, 0
5, 37184, Note_off_c, 5, 60, 0
5, 37184, Note_off_c, 5, 57, 0
5, 37504, Note_on_c, 5, 64, 87
5, 37504, Note_on_c, 5, 60, 73
5, 37504, Note_on_c, 5, 57, 68
5, 37568, Note_off_c, 5, 57, 0
5, 37568, Note_off_c, 5, 60, 0
5, 37568, Note_off_c, 5, 64, 0
5, 37888, Note_on_c, 5, 66, 76
5, 37888, Note_on_c, 5, 57, 73
5, 37888, Note_on_c, 5, 62, 71
5, 37952, Note_off_c, 5, 62, 0
5, 37952, Note_off_c, 5, 57, 0
5, 37952, Note_off_c, 5, 66, 0
5, 38272, Note_on_c, 5, 62, 76
5, 38272, Note_on_c, 5, 57, 73
5, 38272, Note_on_c, 5, 66, 79
5, 38336, Note_off_c, 5, 66, 0
5, 38336, Note_off_c, 5, 57, 0
5, 38336, Note_off_c, 5, 62, 0
5, 38656, Note_on_c, 5, 62, 64
5, 38656, Note_on_c, 5, 59, 69
5, 38656, Note_on_c, 5, 65, 67
5, 38656, Note_on_c, 5, 55, 73
5, 38720, Note_off_c, 5, 55, 0
5, 38720, Note_off_c, 5, 65, 0
5, 38720, Note_off_c, 5, 59, 0
5, 38720, Note_off_c, 5, 62, 0
5, 39040, Note_on_c, 5, 55, 67
5, 39040, Note_on_c, 5, 65, 69
5, 39040, Note_on_c, 5, 59, 63
5, 39040, Note_on_c, 5, 62, 66
5, 39104, Note_off_c, 5, 62, 0
5, 39104, Note_off_c, 5, 59, 0
5, 39104, Note_off_c, 5, 65, 0
5, 39104, Note_off_c, 5, 55, 0
5, 39424, Note_on_c, 5, 55, 71
5, 39424, Note_on_c, 5, 58, 63
5, 39424, Note_on_c, 5, 60, 63
5, 39424, Note_on_c, 5, 64, 73
5, 39488, Note_off_c, 5, 64, 0
5, 39488, Note_off_c, 5, 60, 0
5, 39488, Note_off_c, 5, 58, 0
5, 39488, Note_off_c, 5, 55, 0
5, 39808, Note_on_c, 5, 58, 63
5, 39808, Note_on_c, 5, 64, 69
5, 39808, Note_on_c, 5, 60, 60
5, 39808, Note_on_c, 5, 55, 67
5, 39872, Note_off_c, 5, 55, 0
5, 39872, Note_off_c, 5, 60, 0
5, 39872, Note_off_c, 5, 64, 0
5, 39872, Note_off_c, 5, 58, 0
5, 40192, Note_on_c, 5, 63, 68
5, 40192, Note_on_c, 5, 57, 66
5, 40192, Note_on_c, 5, 65, 69
5, 40256, Note_off_c, 5, 65, 0
5, 40256, Note_off_c, 5, 57, 0
5, 40256, Note_off_c, 5, 63, 0
5, 40576, Note_on_c, 5, 57, 71
5, 40576, Note_on_c, 5, 63, 79
5, 40576, Note_on_c, 5, 65, 73
5, 40640, Note_off_c, 5, 65, 0
5, 40640, Note_off_c, 5, 63, 0
5, 40640, Note_off_c, 5, 57, 0
5, 40960, Note_on_c, 5, 57, 76
5, 40960, Note_on_c, 5, 63, 82
5, 40960, Note_on_c, 5, 65, 73
5, 41024, Note_off_c, 5, 65, 0
5, 41024, Note_off_c, 5, 63, 0
5, 41024, Note_off_c, 5, 57, 0
5, 41344, Note_on_c, 5, 65, 79
5, 41344, Note_on_c, 5, 63, 82
5, 41344, Note_on_c, 5, 57, 79
5, 41408, Note_off_c, 5, 57, 0
5, 41408, Note_off_c, 5, 63, 0
5, 41408, Note_off_c, 5, 65, 0
5, 41728, Note_on_c, 5, 60, 71
5, 41728, Note_on_c, 5, 65, 76
5, 41728, Note_on_c, 5, 57, 68
5, 41792, Note_off_c, 5, 57, 0
5, 41792, Note_off_c, 5, 65, 0
5, 41792, Note_off_c, 5, 60, 0
5, 42112, Note_on_c, 5, 60, 66
5, 42112, Note_on_c, 5, 65, 62
5, 42112, Note_on_c, 5, 57, 63
5, 42176, Note_off_c, 5, 57, 0
5, 42176, Note_off_c, 5, 65, 0
5, 42176, Note_off_c, 5, 60, 0
5, 42496, Note_on_c, 5, 65, 66
5, 42496, Note_on_c, 5, 60, 61
5, 42496, Note_on_c, 5, 57, 62
5, 42560, Note_off_c, 5, 57, 0
5, 42560, Note_off_c, 5, 60, 0
5, 42560, Note_off_c, 5, 65, 0
5, 42880, Note_on_c, 5, 65, 66
5, 42880, Note_on_c, 5, 60, 64
5, 42880, Note_on_c, 5, 57, 61
5, 42944, Note_off_c, 5, 57, 0
5, 42944, Note_off_c, 5, 60, 0
5, 42944, Note_off_c, 5, 65, 0
5, 43264, Note_on_c, 5, 57, 66
5, 43264, Note_on_c, 5, 65, 62
5, 43264, Note_on_c, 5, 63, 64
5, 43264, Note_on_c, 5, 60, 61
5, 43328, Note_off_c, 5, 60, 0
5, 43328, Note_off_c, 5, 63, 0
5, 43328, Note_off_c, 5, 65, 0
5, 43328, Note_off_c, 5, 57, 0
5, 43648, Note_on_c, 5, 65, 60
5, 43648, Note_on_c, 5, 63, 69
5, 43648, Note_on_c, 5, 57, 69
5, 43648, Note_on_c, 5, 60, 68
5, 43712, Note_off_c, 5, 60, 0
5, 43712, Note_off_c, 5, 57, 0
5, 43712, Note_off_c, 5, 63, 0
5, 43712, Note_off_c, 5, 65, 0
5, 44032, Note_on_c, 5, 63, 67
5, 44032, Note_on_c, 5, 65, 61
5, 44032, Note_on_c, 5, 60, 63
5, 44032, Note_on_c, 5, 57, 71
5, 44096, Note_off_c, 5, 57, 0
5, 44096, Note_off_c, 5, 60, 0
5, 44096, Note_off_c, 5, 65, 0
5, 44096, Note_off_c, 5, 63, 0
5, 44416, Note_on_c, 5, 65, 57
5, 44416, Note_on_c, 5, 60, 61
5, 44416, Note_on_c, 5, 57, 67
5, 44416, Note_on_c, 5, 63, 63
5, 44480, Note_off_c, 5, 63, 0
5, 44480, Note_off_c, 5, 57, 0
5, 44480, Note_off_c, 5, 60, 0
5, 44480, Note_off_c, 5, 65, 0
5, 44800, Note_on_c, 5, 62, 66
5, 44800, Note_on_c, 5, 58, 58
5, 44800, Note_on_c, 5, 65, 58
5, 44864, Note_off_c, 5, 65, 0
5, 44864, Note_off_c, 5, 58, 0
5, 44864, Note_off_c, 5, 62, 0
5, 45184, Note_on_c, 5, 62, 64
5, 45184, Note_on_c, 5, 58, 62
5, 45184, Note_on_c, 5, 65, 58
5, 45248, Note_off_c, 5, 65, 0
5, 45248, Note_off_c, 5, 58, 0
5, 45248, Note_off_c, 5, 62, 0
5, 45568, Note_on_c, 5, 58, 50
5, 45568, Note_on_c, 5, 62, 63
5, 45568, Note_on_c, 5, 65, 51
5, 45632, Note_off_c, 5, 65, 0
5, 45632, Note_off_c, 5, 62, 0
5, 45632, Note_off_c, 5, 58, 0
5, 45952, Note_on_c, 5, 58, 57
5, 45952, Note_on_c, 5, 62, 67
5, 45952, Note_on_c, 5, 65, 58
5, 46016, Note_off_c, 5, 65, 0
5, 46016, Note_off_c, 5, 62, 0
5, 46016, Note_off_c, 5, 58, 0
5, 46336, Note_on_c, 5, 65, 62
5, 46336, Note_on_c, 5, 58, 62
5, 46336, Note_on_c, 5, 62, 64
5, 46400, Note_off_c, 5, 62, 0
5, 46400, Note_off_c, 5, 58, 0
5, 46400, Note_off_c, 5, 65, 0
5, 46720, Note_on_c, 5, 62, 63
5, 46720, Note_on_c, 5, 65, 67
5, 46720, Note_on_c, 5, 58, 64
5, 46784, Note_off_c, 5, 58, 0
5, 46784, Note_off_c, 5, 65, 0
5, 46784, Note_off_c, 5, 62, 0
5, 47104, Note_on_c, 5, 62, 61
5, 47104, Note_on_c, 5, 58, 64
5, 47104, Note_on_c, 5, 65, 67
5, 47168, Note_off_c, 5, 65, 0
5, 47168, Note_off_c, 5, 58, 0
5, 47168, Note_off_c, 5, 62, 0
5, 47488, Note_on_c, 5, 65, 60
5, 47488, Note_on_c, 5, 62, 46
5, 47488, Note_on_c, 5, 58, 62
5, 47552, Note_off_c, 5, 58, 0
5, 47552, Note_off_c, 5, 62, 0
5, 47552, Note_off_c, 5, 65, 0
5, 47872, Note_on_c, 5, 65, 50
5, 47872, Note_on_c, 5, 55, 61
5, 47872, Note_on_c, 5, 59, 63
5, 47872, Note_on_c, 5, 62, 63
5, 47936, Note_off_c, 5, 62, 0
5, 47936, Note_off_c, 5, 59, 0
5, 47936, Note_off_c, 5, 55, 0
5, 47936, Note_off_c, 5, 65, 0
5, 48256, Note_on_c, 5, 59, 66
5, 48256, Note_on_c, 5, 55, 56
5, 48256, Note_on_c, 5, 62, 64
5, 48256, Note_on_c, 5, 65, 60
5, 48320, Note_off_c, 5, 65, 0
5, 48320, Note_off_c, 5, 62, 0
5, 48320, Note_off_c, 5, 55, 0
5, 48320, Note_off_c, 5, 59, 0
5, 48640, Note_on_c, 5, 55, 63
5, 48640, Note_on_c, 5, 65, 60
5, 48640, Note_on_c, 5, 62, 64
5, 48640, Note_on_c, 5, 59, 62
5, 48704, Note_off_c, 5, 59, 0
5, 48704, Note_off_c, 5, 62, 0
5, 48704, Note_off_c, 5, 65, 0
5, 48704, Note_off_c, 5, 55, 0
5, 49024, Note_on_c, 5, 65, 58
5, 49024, Note_on_c, 5, 55, 57
5, 49024, Note_on_c, 5, 59, 62
5, 49024, Note_on_c, 5, 62, 64
5, 49088, Note_off_c, 5, 62, 0
5, 49088, Note_off_c, 5, 59, 0
5, 49088, Note_off_c, 5, 55, 0
5, 49088, Note_off_c, 5, 65, 0
5, 49408, Note_on_c, 5, 55, 58
5, 49408, Note_on_c, 5, 59, 66
5, 49408, Note_on_c, 5, 62, 62
5, 49408, Note_on_c, 5, 65, 52
5, 49472, Note_off_c, 5, 65, 0
5, 49472, Note_off_c, 5, 62, 0
5, 49472, Note_off_c, 5, 59, 0
5, 49472, Note_off_c, 5, 55, 0
5, 49792, Note_on_c, 5, 55, 60
5, 49792, Note_on_c, 5, 59, 69
5, 49792, Note_on_c, 5, 65, 67
5, 49792, Note_on_c, 5, 62, 64
5, 49856, Note_off_c, 5, 62, 0
5, 49856, Note_off_c, 5, 65, 0
5, 49856, Note_off_c, 5, 59, 0
5, 49856, Note_off_c, 5, 55, 0
5, 50176, Note_on_c, 5, 55, 66
5, 50176, Note_on_c, 5, 62, 61
5, 50176, Note_on_c, 5, 65, 62
5, 50176, Note_on_c, 5, 59, 73
5, 50240, Note_off_c, 5, 59, 0
5, 50240, Note_off_c, 5, 65, 0
5, 50240, Note_off_c, 5, 62, 0
5, 50240, Note_off_c, 5, 55, 0
5, 50560, Note_on_c, 5, 59, 60
5, 50560, Note_on_c, 5, 55, 41
5, 50560, Note_on_c, 5, 65, 38
5, 50624, Note_off_c, 5, 65, 0
5, 50624, Note_off_c, 5, 55, 0
5, 50624, Note_off_c, 5, 59, 0
5, 50688, Note_on_c, 5, 64, 76
5, 50688, Note_on_c, 5, 55, 82
5, 50688, Note_on_c, 5, 60, 69
5, 50752, Note_off_c, 5, 60, 0
5, 50752, Note_off_c, 5, 55, 0
5, 50752, Note_off_c, 5, 64, 0
5, 53248, Note_on_c, 5, 60, 66
5, 53248, Note_on_c, 5, 64, 71
5, 53248, Note_on_c, 5, 55, 63
5, 53312, Note_off_c, 5, 55, 0
5, 53312, Note_off_c, 5, 64, 0
5, 53312, Note_off_c, 5, 60, 0
5, 53376, Note_on_c, 5, 64, 71
5, 53376, Note_on_c, 5, 55, 66
5, 53376, Note_on_c, 5, 60, 66
5, 53440, Note_off_c, 5, 60, 0
5, 53440, Note_off_c, 5, 55, 0
5, 53440, Note_off_c, 5, 64, 0
5, 53632, Note_on_c, 5, 55, 73
5, 53632, Note_on_c, 5, 64, 87
5, 53632, Note_on_c, 5, 60, 68
5, 53696, Note_off_c, 5, 60, 0
5, 53696, Note_off_c, 5, 64, 0
5, 53696, Note_off_c, 5, 55, 0
5, 54016, Note_on_c, 5, 57, 79
5, 54016, Note_on_c, 5, 60, 62
5, 54016, Note_on_c, 5, 53, 73
5, 54080, Note_off_c, 5, 53, 0
5, 54080, Note_off_c, 5, 60, 0
5, 54080, Note_off_c, 5, 57, 0
5, 54400, Note_on_c, 5, 53, 69
5, 54400, Note_on_c, 5, 60, 68
5, 54400, Note_on_c, 5, 57, 73
5, 54464, Note_off_c, 5, 57, 0
5, 54464, Note_off_c, 5, 60, 0
5, 54464, Note_off_c, 5, 53, 0
5, 54784, Note_on_c, 5, 53, 67
5, 54784, Note_on_c, 5, 60, 61
5, 54784, Note_on_c, 5, 57, 73
5, 54848, Note_off_c, 5, 57, 0
5, 54848, Note_off_c, 5, 60, 0
5, 54848, Note_off_c, 5, 53, 0
5, 55168, Note_on_c, 5, 53, 63
5, 55168, Note_on_c, 5, 60, 62
5, 55168, Note_on_c, 5, 57, 69
5, 55232, Note_off_c, 5, 57, 0
5, 55232, Note_off_c, 5, 60, 0
5, 55232, Note_off_c, 5, 53, 0
5, 55552, Note_on_c, 5, 53, 67
5, 55552, Note_on_c, 5, 63, 63
5, 55552, Note_on_c, 5, 60, 62
5, 55552, Note_on_c, 5, 57, 68
5, 55616, Note_off_c, 5, 57, 0
5, 55616, Note_off_c, 5, 60, 0
5, 55616, Note_off_c, 5, 63, 0
5, 55616, Note_off_c, 5, 53, 0
5, 55936, Note_on_c, 5, 57, 73
5, 55936, Note_on_c, 5, 63, 62
5, 55936, Note_on_c, 5, 60, 61
5, 55936, Note_on_c, 5, 53, 66
5, 56000, Note_off_c, 5, 53, 0
5, 56000, Note_off_c, 5, 60, 0
5, 56000, Note_off_c, 5, 63, 0
5, 56000, Note_off_c, 5, 57, 0
5, 56320, Note_on_c, 5, 53, 63
5, 56320, Note_on_c, 5, 63, 62
5, 56320, Note_on_c, 5, 60, 55
5, 56320, Note_on_c, 5, 57, 71
5, 56384, Note_off_c, 5, 57, 0
5, 56384, Note_off_c, 5, 60, 0
5, 56384, Note_off_c, 5, 63, 0
5, 56384, Note_off_c, 5, 53, 0
5, 56704, Note_on_c, 5, 53, 64
5, 56704, Note_on_c, 5, 60, 55
5, 56704, Note_on_c, 5, 63, 58
5, 56704, Note_on_c, 5, 57, 73
5, 56768, Note_off_c, 5, 57, 0
5, 56768, Note_off_c, 5, 63, 0
5, 56768, Note_off_c, 5, 60, 0
5, 56768, Note_off_c, 5, 53, 0
5, 57088, Note_on_c, 5, 53, 73
5, 57088, Note_on_c, 5, 62, 62
5, 57088, Note_on_c, 5, 58, 64
5, 57152, Note_off_c, 5, 58, 0
5, 57152, Note_off_c, 5, 62, 0
5, 57152, Note_off_c, 5, 53, 0
5, 57472, Note_on_c, 5, 62, 67
5, 57472, Note_on_c, 5, 53, 69
5, 57472, Note_on_c, 5, 58, 64
5, 57536, Note_off_c, 5, 58, 0
5, 57536, Note_off_c, 5, 53, 0
5, 57536, Note_off_c, 5, 62, 0
5, 57856, Note_on_c, 5, 58, 58
5, 57856, Note_on_c, 5, 62, 76
5, 57856, Note_on_c, 5, 53, 68
5, 57920, Note_off_c, 5, 53, 0
5, 57920, Note_off_c, 5, 62, 0
5, 57920, Note_off_c, 5, 58, 0
5, 58240, Note_on_c, 5, 62, 79
5, 58240, Note_on_c, 5, 58, 62
5, 58240, Note_on_c, 5, 53, 71
5, 58304, Note_off_c, 5, 53, 0
5, 58304, Note_off_c, 5, 58, 0
5, 58304, Note_off_c, 5, 62, 0
5, 58624, Note_on_c, 5, 58, 57
5, 58624, Note_on_c, 5, 61, 76
5, 58624, Note_on_c, 5, 53, 62
5, 58688, Note_off_c, 5, 53, 0
5, 58688, Note_off_c, 5, 61, 0
5, 58688, Note_off_c, 5, 58, 0
5, 59008, Note_on_c, 5, 61, 76
5, 59008, Note_on_c, 5, 53, 62
5, 59008, Note_on_c, 5, 58, 60
5, 59072, Note_off_c, 5, 58, 0
5, 59072, Note_off_c, 5, 53, 0
5, 59072, Note_off_c, 5, 61, 0
5, 59392, Note_on_c, 5, 61, 73
5, 59392, Note_on_c, 5, 58, 63
5, 59392, Note_on_c, 5, 53, 67
5, 59456, Note_off_c, 5, 53, 0
5, 59456, Note_off_c, 5, 58, 0
5, 59456, Note_off_c, 5, 61, 0
5, 59776, Note_on_c, 5, 58, 62
5, 59776, Note_on_c, 5, 61, 76
5, 59776, Note_on_c, 5, 53, 62
5, 59840, Note_off_c, 5, 53, 0
5, 59840, Note_off_c, 5, 61, 0
5, 59840, Note_off_c, 5, 58, 0
5, 60160, Note_on_c, 5, 53, 64
5, 60160, Note_on_c, 5, 60, 63
5, 60160, Note_on_c, 5, 57, 73
5, 60224, Note_off_c, 5, 57, 0
5, 60224, Note_off_c, 5, 60, 0
5, 60224, Note_off_c, 5, 53, 0
5, 60544, Note_on_c, 5, 60, 53
5, 60544, Note_on_c, 5, 53, 64
5, 60544, Note_on_c, 5, 57, 71
5, 60608, Note_off_c, 5, 57, 0
5, 60608, Note_off_c, 5, 53, 0
5, 60608, Note_off_c, 5, 60, 0
5, 60928, Note_on_c, 5, 62, 73
5, 60928, Note_on_c, 5, 55, 68
5, 60928, Note_on_c, 5, 58, 63
5, 60992, Note_off_c, 5, 58, 0
5, 60992, Note_off_c, 5, 55, 0
5, 60992, Note_off_c, 5, 62, 0
5, 61312, Note_on_c, 5, 62, 76
5, 61312, Note_on_c, 5, 58, 64
5, 61312, Note_on_c, 5, 55, 68
5, 61376, Note_off_c, 5, 55, 0
5, 61376, Note_off_c, 5, 58, 0
5, 61376, Note_off_c, 5, 62, 0
5, 61696, Note_on_c, 5, 57, 73
5, 61696, Note_on_c, 5, 60, 68
5, 61696, Note_on_c, 5, 64, 82
5, 61760, Note_off_c, 5, 64, 0
5, 61760, Note_off_c, 5, 60, 0
5, 61760, Note_off_c, 5, 57, 0
5, 62080, Note_on_c, 5, 64, 87
5, 62080, Note_on_c, 5, 60, 73
5, 62080, Note_on_c, 5, 57, 68
5, 62144, Note_off_c, 5, 57, 0
5, 62144, Note_off_c, 5, 60, 0
5, 62144, Note_off_c, 5, 64, 0
5, 62464, Note_on_c, 5, 66, 76
5, 62464, Note_on_c, 5, 57, 73
5, 62464, Note_on_c, 5, 62, 71
5, 62528, Note_off_c, 5, 62, 0
5, 62528, Note_off_c, 5, 57, 0
5, 62528, Note_off_c, 5, 66, 0
5, 62848, Note_on_c, 5, 62, 76
5, 62848, Note_on_c, 5, 57, 73
5, 62848, Note_on_c, 5, 66, 79
5, 62912, Note_off_c, 5, 66, 0
5, 62912, Note_off_c, 5, 57, 0
5, 62912, Note_off_c, 5, 62, 0
5, 63232, Note_on_c, 5, 62, 64
5, 63232, Note_on_c, 5, 59, 69
5, 63232, Note_on_c, 5, 65, 67
5, 63232, Note_on_c, 5, 55, 73
5, 63296, Note_off_c, 5, 55, 0
5, 63296, Note_off_c, 5, 65, 0
5, 63296, Note_off_c, 5, 59, 0
5, 63296, Note_off_c, 5, 62, 0
5, 63616, Note_on_c, 5, 55, 67
5, 63616, Note_on_c, 5, 65, 69
5, 63616, Note_on_c, 5, 59, 63
5, 63616, Note_on_c, 5, 62, 66
5, 63680, Note_off_c, 5, 62, 0
5, 63680, Note_off_c, 5, 59, 0
5, 63680, Note_off_c, 5, 65, 0
5, 63680, Note_off_c, 5, 55, 0
5, 64000, Note_on_c, 5, 55, 71
5, 64000, Note_on_c, 5, 58, 63
5, 64000, Note_on_c, 5, 60, 63
5, 64000, Note_on_c, 5, 64, 73
5, 64064, Note_off_c, 5, 64, 0
5, 64064, Note_off_c, 5, 60, 0
5, 64064, Note_off_c, 5, 58, 0
5, 64064, Note_off_c, 5, 55, 0
5, 64384, Note_on_c, 5, 58, 63
5, 64384, Note_on_c, 5, 64, 69
5, 64384, Note_on_c, 5, 60, 60
5, 64384, Note_on_c, 5, 55, 67
5, 64448, Note_off_c, 5, 55, 0
5, 64448, Note_off_c, 5, 60, 0
5, 64448, Note_off_c, 5, 64, 0
5, 64448, Note_off_c, 5, 58, 0
5, 64768, Note_on_c, 5, 63, 68
5, 64768, Note_on_c, 5, 57, 66
5, 64768, Note_on_c, 5, 65, 69
5, 64832, Note_off_c, 5, 65, 0
5, 64832, Note_off_c, 5, 57, 0
5, 64832, Note_off_c, 5, 63, 0
5, 65152, Note_on_c, 5, 57, 71
5, 65152, Note_on_c, 5, 63, 79
5, 65152, Note_on_c, 5, 65, 73
5, 65216, Note_off_c, 5, 65, 0
5, 65216, Note_off_c, 5, 63, 0
5, 65216, Note_off_c, 5, 57, 0
5, 65536, Note_on_c, 5, 57, 76
5, 65536, Note_on_c, 5, 63, 82
5, 65536, Note_on_c, 5, 65, 73
5, 65600, Note_off_c, 5, 65, 0
5, 65600, Note_off_c, 5, 63, 0
5, 65600, Note_off_c, 5, 57, 0
5, 65920, Note_on_c, 5, 65, 79
5, 65920, Note_on_c, 5, 63, 82
5, 65920, Note_on_c, 5, 57, 79
5, 65984, Note_off_c, 5, 57, 0
5, 65984, Note_off_c, 5, 63, 0
5, 65984, Note_off_c, 5, 65, 0
5, 66048, Note_on_c, 5, 64, 69
5, 66048, Note_on_c, 5, 67, 62
5, 66048, Note_on_c, 5, 60, 63
5, 66176, Note_off_c, 5, 60, 0
5, 66176, Note_off_c, 5, 67, 0
5, 66176, Note_off_c, 5, 64, 0
5, 66304, Note_on_c, 5, 60, 60
5, 66304, Note_on_c, 5, 64, 63
5, 66304, Note_on_c, 5, 67, 66
5, 66432, Note_off_c, 5, 67, 0
5, 66432, Note_off_c, 5, 64, 0
5, 66432, Note_off_c, 5, 60, 0
5, 66432, Note_on_c, 5, 60, 63
5, 66432, Note_on_c, 5, 64, 66
5, 66432, Note_on_c, 5, 67, 67
5, 66560, Note_off_c, 5, 67, 0
5, 66560, Note_off_c, 5, 64, 0
5, 66560, Note_off_c, 5, 60, 0
5, 66688, Note_on_c, 5, 64, 62
5, 66688, Note_on_c, 5, 60, 53
5, 66688, Note_on_c, 5, 67, 58
5, 66816, Note_off_c, 5, 67, 0
5, 66816, Note_off_c, 5, 60, 0
5, 66816, Note_off_c, 5, 64, 0
5, 66816, Note_on_c, 5, 62, 67
5, 66816, Note_on_c, 5, 65, 63
5, 66816, Note_on_c, 5, 58, 62
5, 66944, Note_off_c, 5, 58, 0
5, 66944, Note_off_c, 5, 65, 0
5, 66944, Note_off_c, 5, 62, 0
5, 67200, Note_on_c, 5, 62, 66
5, 67200, Note_on_c, 5, 69, 79
5, 67200, Note_on_c, 5, 65, 67
5, 67328, Note_off_c, 5, 65, 0
5, 67328, Note_off_c, 5, 69, 0
5, 67328, Note_off_c, 5, 62, 0
5, 67456, Note_on_c, 5, 64, 73
5, 67456, Note_on_c, 5, 60, 69
5, 67456, Note_on_c, 5, 67, 68
5, 67584, Note_off_c, 5, 67, 0
5, 67584, Note_off_c, 5, 60, 0
5, 67584, Note_off_c, 5, 64, 0
5, 69376, Note_on_c, 5, 53, 63
5, 69376, Note_on_c, 5, 60, 64
5, 69376, Note_on_c, 5, 57, 66
5, 69440, Note_off_c, 5, 57, 0
5, 69440, Note_off_c, 5, 60, 0
5, 69440, Note_off_c, 5, 53, 0
5, 69760, Note_on_c, 5, 53, 69
5, 69760, Note_on_c, 5, 60, 66
5, 69760, Note_on_c, 5, 57, 76
5, 69824, Note_off_c, 5, 57, 0
5, 69824, Note_off_c, 5, 60, 0
5, 69824, Note_off_c, 5, 53, 0
5, 70144, Note_on_c, 5, 57, 73
5, 70144, Note_on_c, 5, 60, 68
5, 70144, Note_on_c, 5, 53, 68
5, 70208, Note_off_c, 5, 53, 0
5, 70208, Note_off_c, 5, 60, 0
5, 70208, Note_off_c, 5, 57, 0
5, 70528, Note_on_c, 5, 53, 63
5, 70528, Note_on_c, 5, 60, 64
5, 70528, Note_on_c, 5, 57, 68
5, 70592, Note_off_c, 5, 57, 0
5, 70592, Note_off_c, 5, 60, 0
5, 70592, Note_off_c, 5, 53, 0
5, 70912, Note_on_c, 5, 51, 84
5, 70912, Note_on_c, 5, 53, 67
5, 70912, Note_on_c, 5, 60, 63
5, 70912, Note_on_c, 5, 57, 63
5, 70976, Note_off_c, 5, 57, 0
5, 70976, Note_off_c, 5, 60, 0
5, 70976, Note_off_c, 5, 53, 0
5, 70976, Note_off_c, 5, 51, 0
5, 71296, Note_on_c, 5, 51, 79
5, 71296, Note_on_c, 5, 60, 63
5, 71296, Note_on_c, 5, 57, 69
5, 71296, Note_on_c, 5, 53, 63
5, 71360, Note_off_c, 5, 53, 0
5, 71360, Note_off_c, 5, 57, 0
5, 71360, Note_off_c, 5, 60, 0
5, 71360, Note_off_c, 5, 51, 0
5, 71680, Note_on_c, 5, 57, 71
5, 71680, Note_on_c, 5, 60, 63
5, 71680, Note_on_c, 5, 51, 79
5, 71680, Note_on_c, 5, 53, 61
5, 71744, Note_off_c, 5, 53, 0
5, 71744, Note_off_c, 5, 51, 0
5, 71744, Note_off_c, 5, 60, 0
5, 71744, Note_off_c, 5, 57, 0
5, 72064, Note_on_c, 5, 51, 82
5, 72064, Note_on_c, 5, 57, 66
5, 72064, Note_on_c, 5, 60, 67
5, 72064, Note_on_c, 5, 53, 62
5, 72128, Note_off_c, 5, 53, 0
5, 72128, Note_off_c, 5, 60, 0
5, 72128, Note_off_c, 5, 57, 0
5, 72128, Note_off_c, 5, 51, 0
5, 72448, Note_on_c, 5, 53, 67
5, 72448, Note_on_c, 5, 58, 64
5, 72448, Note_on_c, 5, 62, 67
5, 72512, Note_off_c, 5, 62, 0
5, 72512, Note_off_c, 5, 58, 0
5, 72512, Note_off_c, 5, 53, 0
5, 72832, Note_on_c, 5, 53, 66
5, 72832, Note_on_c, 5, 62, 69
5, 72832, Note_on_c, 5, 58, 63
5, 72896, Note_off_c, 5, 58, 0
5, 72896, Note_off_c, 5, 62, 0
5, 72896, Note_off_c, 5, 53, 0
5, 73216, Note_on_c, 5, 58, 60
5, 73216, Note_on_c, 5, 53, 69
5, 73216, Note_on_c, 5, 62, 69
5, 73280, Note_off_c, 5, 62, 0
5, 73280, Note_off_c, 5, 53, 0
5, 73280, Note_off_c, 5, 58, 0
5, 73600, Note_on_c, 5, 53, 68
5, 73600, Note_on_c, 5, 62, 71
5, 73600, Note_on_c, 5, 58, 57
5, 73664, Note_off_c, 5, 58, 0
5, 73664, Note_off_c, 5, 62, 0
5, 73664, Note_off_c, 5, 53, 0
5, 73984, Note_on_c, 5, 61, 64
5, 73984, Note_on_c, 5, 53, 62
5, 73984, Note_on_c, 5, 58, 63
5, 74048, Note_off_c, 5, 58, 0
5, 74048, Note_off_c, 5, 53, 0
5, 74048, Note_off_c, 5, 61, 0
5, 74368, Note_on_c, 5, 53, 68
5, 74368, Note_on_c, 5, 58, 62
5, 74368, Note_on_c, 5, 61, 73
5, 74432, Note_off_c, 5, 61, 0
5, 74432, Note_off_c, 5, 58, 0
5, 74432, Note_off_c, 5, 53, 0
5, 74752, Note_on_c, 5, 53, 69
5, 74752, Note_on_c, 5, 61, 79
5, 74752, Note_on_c, 5, 58, 64
5, 74816, Note_off_c, 5, 58, 0
5, 74816, Note_off_c, 5, 61, 0
5, 74816, Note_off_c, 5, 53, 0
5, 75136, Note_on_c, 5, 61, 68
5, 75136, Note_on_c, 5, 53, 66
5, 75136, Note_on_c, 5, 58, 60
5, 75200, Note_off_c, 5, 58, 0
5, 75200, Note_off_c, 5, 53, 0
5, 75200, Note_off_c, 5, 61, 0
5, 75520, Note_on_c, 5, 53, 63
5, 75520, Note_on_c, 5, 57, 69
5, 75520, Note_on_c, 5, 60, 68
5, 75584, Note_off_c, 5, 60, 0
5, 75584, Note_off_c, 5, 57, 0
5, 75584, Note_off_c, 5, 53, 0
5, 75904, Note_on_c, 5, 57, 64
5, 75904, Note_on_c, 5, 53, 60
5, 75904, Note_on_c, 5, 60, 67
5, 75968, Note_off_c, 5, 60, 0
5, 75968, Note_off_c, 5, 53, 0
5, 75968, Note_off_c, 5, 57, 0
5, 76288, Note_on_c, 5, 62, 62
5, 76288, Note_on_c, 5, 55, 66
5, 76288, Note_on_c, 5, 58, 62
5, 76352, Note_off_c, 5, 58, 0
5, 76352, Note_off_c, 5, 55, 0
5, 76352, Note_off_c, 5, 62, 0
5, 76672, Note_on_c, 5, 62, 66
5, 76672, Note_on_c, 5, 58, 63
5, 76672, Note_on_c, 5, 55, 68
5, 76736, Note_off_c, 5, 55, 0
5, 76736, Note_off_c, 5, 58, 0
5, 76736, Note_off_c, 5, 62, 0
5, 77056, Note_on_c, 5, 60, 63
5, 77056, Note_on_c, 5, 64, 63
5, 77056, Note_on_c, 5, 57, 67
5, 77120, Note_off_c, 5, 57, 0
5, 77120, Note_off_c, 5, 64, 0
5, 77120, Note_off_c, 5, 60, 0
5, 77440, Note_on_c, 5, 60, 73
5, 77440, Note_on_c, 5, 64, 71
5, 77440, Note_on_c, 5, 57, 66
5, 77504, Note_off_c, 5, 57, 0
5, 77504, Note_off_c, 5, 64, 0
5, 77504, Note_off_c, 5, 60, 0
5, 77824, Note_on_c, 5, 62, 67
5, 77824, Note_on_c, 5, 57, 61
5, 77824, Note_on_c, 5, 60, 56
5, 77824, Note_on_c, 5, 54, 66
5, 77888, Note_off_c, 5, 54, 0
5, 77888, Note_off_c, 5, 60, 0
5, 77888, Note_off_c, 5, 57, 0
5, 77888, Note_off_c, 5, 62, 0
5, 78208, Note_on_c, 5, 54, 76
5, 78208, Note_on_c, 5, 60, 69
5, 78208, Note_on_c, 5, 57, 71
5, 78208, Note_on_c, 5, 62, 71
5, 78272, Note_off_c, 5, 62, 0
5, 78272, Note_off_c, 5, 57, 0
5, 78272, Note_off_c, 5, 60, 0
5, 78272, Note_off_c, 5, 54, 0
5, 78592, Note_on_c, 5, 55, 68
5, 78592, Note_on_c, 5, 62, 68
5, 78592, Note_on_c, 5, 59, 64
5, 78656, Note_off_c, 5, 59, 0
5, 78656, Note_off_c, 5, 62, 0
5, 78656, Note_off_c, 5, 55, 0
5, 78976, Note_on_c, 5, 55, 73
5, 78976, Note_on_c, 5, 59, 69
5, 78976, Note_on_c, 5, 62, 73
5, 79040, Note_off_c, 5, 62, 0
5, 79040, Note_off_c, 5, 59, 0
5, 79040, Note_off_c, 5, 55, 0
5, 79360, Note_on_c, 5, 59, 73
5, 79360, Note_on_c, 5, 62, 76
5, 79360, Note_on_c, 5, 55, 69
5, 79424, Note_off_c, 5, 55, 0
5, 79424, Note_off_c, 5, 62, 0
5, 79424, Note_off_c, 5, 59, 0
5, 79744, Note_on_c, 5, 55, 61
5, 79744, Note_on_c, 5, 59, 62
5, 79744, Note_on_c, 5, 62, 66
5, 79808, Note_off_c, 5, 62, 0
5, 79808, Note_off_c, 5, 59, 0
5, 79808, Note_off_c, 5, 55, 0
5, 80128, Note_on_c, 5, 60, 71
5, 80128, Note_on_c, 5, 52, 63
5, 80128, Note_on_c, 5, 58, 69
5, 80192, Note_off_c, 5, 58, 0
5, 80192, Note_off_c, 5, 52, 0
5, 80192, Note_off_c, 5, 60, 0
5, 80512, Note_on_c, 5, 58, 68
5, 80512, Note_on_c, 5, 52, 69
5, 80512, Note_on_c, 5, 60, 73
5, 80576, Note_off_c, 5, 60, 0
5, 80576, Note_off_c, 5, 52, 0
5, 80576, Note_off_c, 5, 58, 0
5, 80896, Note_on_c, 5, 52, 69
5, 80896, Note_on_c, 5, 58, 73
5, 80896, Note_on_c, 5, 60, 73
5, 80960, Note_off_c, 5, 60, 0
5, 80960, Note_off_c, 5, 58, 0
5, 80960, Note_off_c, 5, 52, 0
5, 81280, Note_on_c, 5, 60, 73
5, 81280, Note_on_c, 5, 58, 73
5, 81280, Note_on_c, 5, 52, 82
5, 81344, Note_off_c, 5, 52, 0
5, 81344, Note_off_c, 5, 58, 0
5, 81344, Note_off_c, 5, 60, 0
5, 81664, Note_on_c, 5, 57, 79
5, 81664, Note_on_c, 5, 60, 62
5, 81664, Note_on_c, 5, 53, 73
5, 81728, Note_off_c, 5, 53, 0
5, 81728, Note_off_c, 5, 60, 0
5, 81728, Note_off_c, 5, 57, 0
5, 82048, Note_on_c, 5, 53, 69
5, 82048, Note_on_c, 5, 60, 68
5, 82048, Note_on_c, 5, 57, 73
5, 82112, Note_off_c, 5, 57, 0
5, 82112, Note_off_c, 5, 60, 0
5, 82112, Note_off_c, 5, 53, 0
5, 82432, Note_on_c, 5, 53, 67
5, 82432, Note_on_c, 5, 60, 61
5, 82432, Note_on_c, 5, 57, 73
5, 82496, Note_off_c, 5, 57, 0
5, 82496, Note_off_c, 5, 60, 0
5, 82496, Note_off_c, 5, 53, 0
5, 82816, Note_on_c, 5, 53, 63
5, 82816, Note_on_c, 5, 60, 62
5, 82816, Note_on_c, 5, 57, 69
5, 82880, Note_off_c, 5, 57, 0
5, 82880, Note_off_c, 5, 60, 0
5, 82880, Note_off_c, 5, 53, 0
5, 83200, Note_on_c, 5, 53, 67
5, 83200, Note_on_c, 5, 63, 63
5, 83200, Note_on_c, 5, 60, 62
5, 83200, Note_on_c, 5, 57, 68
5, 83264, Note_off_c, 5, 57, 0
5, 83264, Note_off_c, 5, 60, 0
5, 83264, Note_off_c, 5, 63, 0
5, 83264, Note_off_c, 5, 53, 0
5, 83584, Note_on_c, 5, 57, 73
5, 83584, Note_on_c, 5, 63, 62
5, 83584, Note_on_c, 5, 60, 61
5, 83584, Note_on_c, 5, 53, 66
5, 83648, Note_off_c, 5, 53, 0
5, 83648, Note_off_c, 5, 60, 0
5, 83648, Note_off_c, 5, 63, 0
5, 83648, Note_off_c, 5, 57, 0
5, 83968, Note_on_c, 5, 53, 63
5, 83968, Note_on_c, 5, 63, 62
5, 83968, Note_on_c, 5, 60, 55
5, 83968, Note_on_c, 5, 57, 71
5, 84032, Note_off_c, 5, 57, 0
5, 84032, Note_off_c, 5, 60, 0
5, 84032, Note_off_c, 5, 63, 0
5, 84032, Note_off_c, 5, 53, 0
5, 84352, Note_on_c, 5, 53, 64
5, 84352, Note_on_c, 5, 60, 55
5, 84352, Note_on_c, 5, 63, 58
5, 84352, Note_on_c, 5, 57, 73
5, 84416, Note_off_c, 5, 57, 0
5, 84416, Note_off_c, 5, 63, 0
5, 84416, Note_off_c, 5, 60, 0
5, 84416, Note_off_c, 5, 53, 0
5, 84736, Note_on_c, 5, 53, 73
5, 84736, Note_on_c, 5, 62, 62
5, 84736, Note_on_c, 5, 58, 64
5, 84800, Note_off_c, 5, 58, 0
5, 84800, Note_off_c, 5, 62, 0
5, 84800, Note_off_c, 5, 53, 0
5, 85120, Note_on_c, 5, 62, 67
5, 85120, Note_on_c, 5, 53, 69
5, 85120, Note_on_c, 5, 58, 64
5, 85184, Note_off_c, 5, 58, 0
5, 85184, Note_off_c, 5, 53, 0
5, 85184, Note_off_c, 5, 62, 0
5, 85504, Note_on_c, 5, 58, 58
5, 85504, Note_on_c, 5, 62, 76
5, 85504, Note_on_c, 5, 53, 68
5, 85568, Note_off_c, 5, 53, 0
5, 85568, Note_off_c, 5, 62, 0
5, 85568, Note_off_c, 5, 58, 0
5, 85888, Note_on_c, 5, 62, 79
5, 85888, Note_on_c, 5, 58, 62
5, 85888, Note_on_c, 5, 53, 71
5, 85952, Note_off_c, 5, 53, 0
5, 85952, Note_off_c, 5, 58, 0
5, 85952, Note_off_c, 5, 62, 0
5, 86272, Note_on_c, 5, 58, 57
5, 86272, Note_on_c, 5, 61, 76
5, 86272, Note_on_c, 5, 53, 62
5, 86336, Note_off_c, 5, 53, 0
5, 86336, Note_off_c, 5, 61, 0
5, 86336, Note_off_c, 5, 58, 0
5, 86656, Note_on_c, 5, 61, 76
5, 86656, Note_on_c, 5, 53, 62
5, 86656, Note_on_c, 5, 58, 60
5, 86720, Note_off_c, 5, 58, 0
5, 86720, Note_off_c, 5, 53, 0
5, 86720, Note_off_c, 5, 61, 0
5, 87040, Note_on_c, 5, 61, 73
5, 87040, Note_on_c, 5, 58, 63
5, 87040, Note_on_c, 5, 53, 67
5, 87104, Note_off_c, 5, 53, 0
5, 87104, Note_off_c, 5, 58, 0
5, 87104, Note_off_c, 5, 61, 0
5, 87424, Note_on_c, 5, 58, 62
5, 87424, Note_on_c, 5, 61, 76
5, 87424, Note_on_c, 5, 53, 62
5, 87488, Note_off_c, 5, 53, 0
5, 87488, Note_off_c, 5, 61, 0
5, 87488, Note_off_c, 5, 58, 0
5, 87808, Note_on_c, 5, 53, 64
5, 87808, Note_on_c, 5, 60, 63
5, 87808, Note_on_c, 5, 57, 73
5, 87872, Note_off_c, 5, 57, 0
5, 87872, Note_off_c, 5, 60, 0
5, 87872, Note_off_c, 5, 53, 0
5, 88192, Note_on_c, 5, 60, 53
5, 88192, Note_on_c, 5, 53, 64
5, 88192, Note_on_c, 5, 57, 71
5, 88256, Note_off_c, 5, 57, 0
5, 88256, Note_off_c, 5, 53, 0
5, 88256, Note_off_c, 5, 60, 0
5, 88576, Note_on_c, 5, 62, 73
5, 88576, Note_on_c, 5, 55, 68
5, 88576, Note_on_c, 5, 58, 63
5, 88640, Note_off_c, 5, 58, 0
5, 88640, Note_off_c, 5, 55, 0
5, 88640, Note_off_c, 5, 62, 0
5, 88960, Note_on_c, 5, 62, 76
5, 88960, Note_on_c, 5, 58, 64
5, 88960, Note_on_c, 5, 55, 68
5, 89024, Note_off_c, 5, 55, 0
5, 89024, Note_off_c, 5, 58, 0
5, 89024, Note_off_c, 5, 62, 0
5, 89344, Note_on_c, 5, 57, 73
5, 89344, Note_on_c, 5, 60, 68
5, 89344, Note_on_c, 5, 64, 82
5, 89408, Note_off_c, 5, 64, 0
5, 89408, Note_off_c, 5, 60, 0
5, 89408, Note_off_c, 5, 57, 0
5, 89728, Note_on_c, 5, 64, 87
5, 89728, Note_on_c, 5, 60, 73
5, 89728, Note_on_c, 5, 57, 68
5, 89792, Note_off_c, 5, 57, 0
5, 89792, Note_off_c, 5, 60, 0
5, 89792, Note_off_c, 5, 64, 0
5, 90112, Note_on_c, 5, 66, 76
5, 90112, Note_on_c, 5, 57, 73
5, 90112, Note_on_c, 5, 62, 71
5, 90176, Note_off_c, 5, 62, 0
5, 90176, Note_off_c, 5, 57, 0
5, 90176, Note_off_c, 5, 66, 0
5, 90496, Note_on_c, 5, 62, 76
5, 90496, Note_on_c, 5, 57, 73
5, 90496, Note_on_c, 5, 66, 79
5, 90560, Note_off_c, 5, 66, 0
5, 90560, Note_off_c, 5, 57, 0
5, 90560, Note_off_c, 5, 62, 0
5, 90880, Note_on_c, 5, 62, 64
5, 90880, Note_on_c, 5, 59, 69
5, 90880, Note_on_c, 5, 65, 67
5, 90880, Note_on_c, 5, 55, 73
5, 90944, Note_off_c, 5, 55, 0
5, 90944, Note_off_c, 5, 65, 0
5, 90944, Note_off_c, 5, 59, 0
5, 90944, Note_off_c, 5, 62, 0
5, 91264, Note_on_c, 5, 55, 67
5, 91264, Note_on_c, 5, 65, 69
5, 91264, Note_on_c, 5, 59, 63
5, 91264, Note_on_c, 5, 62, 66
5, 91328, Note_off_c, 5, 62, 0
5, 91328, Note_off_c, 5, 59, 0
5, 91328, Note_off_c, 5, 65, 0
5, 91328, Note_off_c, 5, 55, 0
5, 91648, Note_on_c, 5, 55, 71
5, 91648, Note_on_c, 5, 58, 63
5, 91648, Note_on_c, 5, 60, 63
5, 91648, Note_on_c, 5, 64, 73
5, 91712, Note_off_c, 5, 64, 0
5, 91712, Note_off_c, 5, 60, 0
5, 91712, Note_off_c, 5, 58, 0
5, 91712, Note_off_c, 5, 55, 0
5, 92032, Note_on_c, 5, 58, 63
5, 92032, Note_on_c, 5, 64, 69
5, 92032, Note_on_c, 5, 60, 60
5, 92032, Note_on_c, 5, 55, 67
5, 92096, Note_off_c, 5, 55, 0
5, 92096, Note_off_c, 5, 60, 0
5, 92096, Note_off_c, 5, 64, 0
5, 92096, Note_off_c, 5, 58, 0
5, 92416, Note_on_c, 5, 63, 68
5, 92416, Note_on_c, 5, 57, 66
5, 92416, Note_on_c, 5, 65, 69
5, 92480, Note_off_c, 5, 65, 0
5, 92480, Note_off_c, 5, 57, 0
5, 92480, Note_off_c, 5, 63, 0
5, 92800, Note_on_c, 5, 57, 71
5, 92800, Note_on_c, 5, 63, 79
5, 92800, Note_on_c, 5, 65, 73
5, 92864, Note_off_c, 5, 65, 0
5, 92864, Note_off_c, 5, 63, 0
5, 92864, Note_off_c, 5, 57, 0
5, 93184, Note_on_c, 5, 57, 76
5, 93184, Note_on_c, 5, 63, 82
5, 93184, Note_on_c, 5, 65, 73
5, 93248, Note_off_c, 5, 65, 0
5, 93248, Note_off_c, 5, 63, 0
5, 93248, Note_off_c, 5, 57, 0
5, 93568, Note_on_c, 5, 65, 79
5, 93568, Note_on_c, 5, 63, 82
5, 93568, Note_on_c, 5, 57, 79
5, 93632, Note_off_c, 5, 57, 0
5, 93632, Note_off_c, 5, 63, 0
5, 93632, Note_off_c, 5, 65, 0
5, 93952, Note_on_c, 5, 60, 71
5, 93952, Note_on_c, 5, 65, 76
5, 93952, Note_on_c, 5, 57, 68
5, 94016, Note_off_c, 5, 57, 0
5, 94016, Note_off_c, 5, 65, 0
5, 94016, Note_off_c, 5, 60, 0
5, 94336, Note_on_c, 5, 60, 66
5, 94336, Note_on_c, 5, 65, 62
5, 94336, Note_on_c, 5, 57, 63
5, 94400, Note_off_c, 5, 57, 0
5, 94400, Note_off_c, 5, 65, 0
5, 94400, Note_off_c, 5, 60, 0
5, 94720, Note_on_c, 5, 65, 66
5, 94720, Note_on_c, 5, 60, 61
5, 94720, Note_on_c, 5, 57, 62
5, 94784, Note_off_c, 5, 57, 0
5, 94784, Note_off_c, 5, 60, 0
5, 94784, Note_off_c, 5, 65, 0
5, 95104, Note_on_c, 5, 65, 66
5, 95104, Note_on_c, 5, 60, 64
5, 95104, Note_on_c, 5, 57, 61
5, 95168, Note_off_c, 5, 57, 0
5, 95168, Note_off_c, 5, 60, 0
5, 95168, Note_off_c, 5, 65, 0
5, 95488, Note_on_c, 5, 57, 66
5, 95488, Note_on_c, 5, 65, 62
5, 95488, Note_on_c, 5, 63, 64
5, 95488, Note_on_c, 5, 60, 61
5, 95552, Note_off_c, 5, 60, 0
5, 95552, Note_off_c, 5, 63, 0
5, 95552, Note_off_c, 5, 65, 0
5, 95552, Note_off_c, 5, 57, 0
5, 95872, Note_on_c, 5, 65, 60
5, 95872, Note_on_c, 5, 63, 69
5, 95872, Note_on_c, 5, 57, 69
5, 95872, Note_on_c, 5, 60, 68
5, 95936, Note_off_c, 5, 60, 0
5, 95936, Note_off_c, 5, 57, 0
5, 95936, Note_off_c, 5, 63, 0
5, 95936, Note_off_c, 5, 65, 0
5, 96256, Note_on_c, 5, 63, 67
5, 96256, Note_on_c, 5, 65, 61
5, 96256, Note_on_c, 5, 60, 63
5, 96256, Note_on_c, 5, 57, 71
5, 96320, Note_off_c, 5, 57, 0
5, 96320, Note_off_c, 5, 60, 0
5, 96320, Note_off_c, 5, 65, 0
5, 96320, Note_off_c, 5, 63, 0
5, 96640, Note_on_c, 5, 65, 57
5, 96640, Note_on_c, 5, 60, 61
5, 96640, Note_on_c, 5, 57, 67
5, 96640, Note_on_c, 5, 63, 63
5, 96704, Note_off_c, 5, 63, 0
5, 96704, Note_off_c, 5, 57, 0
5, 96704, Note_off_c, 5, 60, 0
5, 96704, Note_off_c, 5, 65, 0
5, 97024, Note_on_c, 5, 62, 66
5, 97024, Note_on_c, 5, 58, 58
5, 97024, Note_on_c, 5, 65, 58
5, 97088, Note_off_c, 5, 65, 0
5, 97088, Note_off_c, 5, 58, 0
5, 97088, Note_off_c, 5, 62, 0
5, 97408, Note_on_c, 5, 62, 64
5, 97408, Note_on_c, 5, 58, 62
5, 97408, Note_on_c, 5, 65, 58
5, 97472, Note_off_c, 5, 65, 0
5, 97472, Note_off_c, 5, 58, 0
5, 97472, Note_off_c, 5, 62, 0
5, 97792, Note_on_c, 5, 58, 50
5, 97792, Note_on_c, 5, 62, 63
5, 97792, Note_on_c, 5, 65, 51
5, 97856, Note_off_c, 5, 65, 0
5, 97856, Note_off_c, 5, 62, 0
5, 97856, Note_off_c, 5, 58, 0
5, 98176, Note_on_c, 5, 58, 57
5, 98176, Note_on_c, 5, 62, 67
5, 98176, Note_on_c, 5, 65, 58
5, 98240, Note_off_c, 5, 65, 0
5, 98240, Note_off_c, 5, 62, 0
5, 98240, Note_off_c, 5, 58, 0
5, 98560, Note_on_c, 5, 65, 62
5, 98560, Note_on_c, 5, 58, 62
5, 98560, Note_on_c, 5, 62, 64
5, 98624, Note_off_c, 5, 62, 0
5, 98624, Note_off_c, 5, 58, 0
5, 98624, Note_off_c, 5, 65, 0
5, 98944, Note_on_c, 5, 62, 63
5, 98944, Note_on_c, 5, 65, 67
5, 98944, Note_on_c, 5, 58, 64
5, 99008, Note_off_c, 5, 58, 0
5, 99008, Note_off_c, 5, 65, 0
5, 99008, Note_off_c, 5, 62, 0
5, 99328, Note_on_c, 5, 62, 61
5, 99328, Note_on_c, 5, 58, 64
5, 99328, Note_on_c, 5, 65, 67
5, 99392, Note_off_c, 5, 65, 0
5, 99392, Note_off_c, 5, 58, 0
5, 99392, Note_off_c, 5, 62, 0
5, 99712, Note_on_c, 5, 65, 60
5, 99712, Note_on_c, 5, 62, 46
5, 99712, Note_on_c, 5, 58, 62
5, 99776, Note_off_c, 5, 58, 0
5, 99776, Note_off_c, 5, 62, 0
5, 99776, Note_off_c, 5, 65, 0
5, 100096, Note_on_c, 5, 65, 50
5, 100096, Note_on_c, 5, 55, 61
5, 100096, Note_on_c, 5, 59, 63
5, 100096, Note_on_c, 5, 62, 63
5, 100160, Note_off_c, 5, 62, 0
5, 100160, Note_off_c, 5, 59, 0
5, 100160, Note_off_c, 5, 55, 0
5, 100160, Note_off_c, 5, 65, 0
5, 100480, Note_on_c, 5, 59, 66
5, 100480, Note_on_c, 5, 55, 56
5, 100480, Note_on_c, 5, 62, 64
5, 100480, Note_on_c, 5, 65, 60
5, 100544, Note_off_c, 5, 65, 0
5, 100544, Note_off_c, 5, 62, 0
5, 100544, Note_off_c, 5, 55, 0
5, 100544, Note_off_c, 5, 59, 0
5, 100864, Note_on_c, 5, 55, 63
5, 100864, Note_on_c, 5, 65, 60
5, 100864, Note_on_c, 5, 62, 64
5, 100864, Note_on_c, 5, 59, 62
5, 100928, Note_off_c, 5, 59, 0
5, 100928, Note_off_c, 5, 62, 0
5, 100928, Note_off_c, 5, 65, 0
5, 100928, Note_off_c, 5, 55, 0
5, 101248, Note_on_c, 5, 65, 58
5, 101248, Note_on_c, 5, 55, 57
5, 101248, Note_on_c, 5, 59, 62
5, 101248, Note_on_c, 5, 62, 64
5, 101312, Note_off_c, 5, 62, 0
5, 101312, Note_off_c, 5, 59, 0
5, 101312, Note_off_c, 5, 55, 0
5, 101312, Note_off_c, 5, 65, 0
5, 101632, Note_on_c, 5, 55, 58
5, 101632, Note_on_c, 5, 59, 66
5, 101632, Note_on_c, 5, 62, 62
5, 101632, Note_on_c, 5, 65, 52
5, 101696, Note_off_c, 5, 65, 0
5, 101696, Note_off_c, 5, 62, 0
5, 101696, Note_off_c, 5, 59, 0
5, 101696, Note_off_c, 5, 55, 0
5, 102016, Note_on_c, 5, 55, 60
5, 102016, Note_on_c, 5, 59, 69
5, 102016, Note_on_c, 5, 65, 67
5, 102016, Note_on_c, 5, 62, 64
5, 102080, Note_off_c, 5, 62, 0
5, 102080, Note_off_c, 5, 65, 0
5, 102080, Note_off_c, 5, 59, 0
5, 102080, Note_off_c, 5, 55, 0
5, 102400, Note_on_c, 5, 55, 66
5, 102400, Note_on_c, 5, 62, 61
5, 102400, Note_on_c, 5, 65, 62
5, 102400, Note_on_c, 5, 59, 73
5, 102464, Note_off_c, 5, 59, 0
5, 102464, Note_off_c, 5, 65, 0
5, 102464, Note_off_c, 5, 62, 0
5, 102464, Note_off_c, 5, 55, 0
5, 102784, Note_on_c, 5, 59, 60
5, 102784, Note_on_c, 5, 55, 41
5, 102784, Note_on_c, 5, 65, 38
5, 102848, Note_off_c, 5, 65, 0
5, 102848, Note_off_c, 5, 55, 0
5, 102848, Note_off_c, 5, 59, 0
5, 102912, Note_on_c, 5, 64, 76
5, 102912, Note_on_c, 5, 55, 82
5, 102912, Note_on_c, 5, 60, 69
5, 102976, Note_off_c, 5, 60, 0
5, 102976, Note_off_c, 5, 55, 0
5, 102976, Note_off_c, 5, 64, 0
5, 105472, Note_on_c, 5, 60, 66
5, 105472, Note_on_c, 5, 64, 71
5, 105472, Note_on_c, 5, 55, 63
5, 105536, Note_off_c, 5, 55, 0
5, 105536, Note_off_c, 5, 64, 0
5, 105536, Note_off_c, 5, 60, 0
5, 105600, Note_on_c, 5, 64, 71
5, 105600, Note_on_c, 5, 55, 66
5, 105600, Note_on_c, 5, 60, 66
5, 105664, Note_off_c, 5, 60, 0
5, 105664, Note_off_c, 5, 55, 0
5, 105664, Note_off_c, 5, 64, 0
5, 105856, Note_on_c, 5, 55, 73
5, 105856, Note_on_c, 5, 64, 87
5, 105856, Note_on_c, 5, 60, 68
5, 105920, Note_off_c, 5, 60, 0
5, 105920, Note_off_c, 5, 64, 0
5, 105920, Note_off_c, 5, 55, 0
5, 106240, Note_on_c, 5, 57, 79
5, 106240, Note_on_c, 5, 60, 62
5, 106240, Note_on_c, 5, 53, 73
5, 106304, Note_off_c, 5, 53, 0
5, 106304, Note_off_c, 5, 60, 0
5, 106304, Note_off_c, 5, 57, 0
5, 106624, Note_on_c, 5, 53, 69
5, 106624, Note_on_c, 5, 60, 68
5, 106624, Note_on_c, 5, 57, 73
5, 106688, Note_off_c, 5, 57, 0
5, 106688, Note_off_c, 5, 60, 0
5, 106688, Note_off_c, 5, 53, 0
5, 107008, Note_on_c, 5, 53, 67
5, 107008, Note_on_c, 5, 60, 61
5, 107008, Note_on_c, 5, 57, 73
5, 107072, Note_off_c, 5, 57, 0
5, 107072, Note_off_c, 5, 60, 0
5, 107072, Note_off_c, 5, 53, 0
5, 107392, Note_on_c, 5, 53, 63
5, 107392, Note_on_c, 5, 60, 62
5, 107392, Note_on_c, 5, 57, 69
5, 107456, Note_off_c, 5, 57, 0
5, 107456, Note_off_c, 5, 60, 0
5, 107456, Note_off_c, 5, 53, 0
5, 107776, Note_on_c, 5, 53, 67
5, 107776, Note_on_c, 5, 63, 63
5, 107776, Note_on_c, 5, 60, 62
5, 107776, Note_on_c, 5, 57, 68
5, 107840, Note_off_c, 5, 57, 0
5, 107840, Note_off_c, 5, 60, 0
5, 107840, Note_off_c, 5, 63, 0
5, 107840, Note_off_c, 5, 53, 0
5, 108160, Note_on_c, 5, 57, 73
5, 108160, Note_on_c, 5, 63, 62
5, 108160, Note_on_c, 5, 60, 61
5, 108160, Note_on_c, 5, 53, 66
5, 108224, Note_off_c, 5, 53, 0
5, 108224, Note_off_c, 5, 60, 0
5, 108224, Note_off_c, 5, 63, 0
5, 108224, Note_off_c, 5, 57, 0
5, 108544, Note_on_c, 5, 53, 63
5, 108544, Note_on_c, 5, 63, 62
5, 108544, Note_on_c, 5, 60, 55
5, 108544, Note_on_c, 5, 57, 71
5, 108608, Note_off_c, 5, 57, 0
5, 108608, Note_off_c, 5, 60, 0
5, 108608, Note_off_c, 5, 63, 0
5, 108608, Note_off_c, 5, 53, 0
5, 108928, Note_on_c, 5, 53, 64
5, 108928, Note_on_c, 5, 60, 55
5, 108928, Note_on_c, 5, 63, 58
5, 108928, Note_on_c, 5, 57, 73
5, 108992, Note_off_c, 5, 57, 0
5, 108992, Note_off_c, 5, 63, 0
5, 108992, Note_off_c, 5, 60, 0
5, 108992, Note_off_c, 5, 53, 0
5, 109312, Note_on_c, 5, 53, 73
5, 109312, Note_on_c, 5, 62, 62
5, 109312, Note_on_c, 5, 58, 64
5, 109376, Note_off_c, 5, 58, 0
5, 109376, Note_off_c, 5, 62, 0
5, 109376, Note_off_c, 5, 53, 0
5, 109696, Note_on_c, 5, 62, 67
5, 109696, Note_on_c, 5, 53, 69
5, 109696, Note_on_c, 5, 58, 64
5, 109760, Note_off_c, 5, 58, 0
5, 109760, Note_off_c, 5, 53, 0
5, 109760, Note_off_c, 5, 62, 0
5, 110080, Note_on_c, 5, 58, 58
5, 110080, Note_on_c, 5, 62, 76
5, 110080, Note_on_c, 5, 53, 68
5, 110144, Note_off_c, 5, 53, 0
5, 110144, Note_off_c, 5, 62, 0
5, 110144, Note_off_c, 5, 58, 0
5, 110464, Note_on_c, 5, 62, 79
5, 110464, Note_on_c, 5, 58, 62
5, 110464, Note_on_c, 5, 53, 71
5, 110528, Note_off_c, 5, 53, 0
5, 110528, Note_off_c, 5, 58, 0
5, 110528, Note_off_c, 5, 62, 0
5, 110848, Note_on_c, 5, 58, 57
5, 110848, Note_on_c, 5, 61, 76
5, 110848, Note_on_c, 5, 53, 62
5, 110912, Note_off_c, 5, 53, 0
5, 110912, Note_off_c, 5, 61, 0
5, 110912, Note_off_c, 5, 58, 0
5, 111232, Note_on_c, 5, 61, 76
5, 111232, Note_on_c, 5, 53, 62
5, 111232, Note_on_c, 5, 58, 60
5, 111296, Note_off_c, 5, 58, 0
5, 111296, Note_off_c, 5, 53, 0
5, 111296, Note_off_c, 5, 61, 0
5, 111616, Note_on_c, 5, 61, 73
5, 111616, Note_on_c, 5, 58, 63
5, 111616, Note_on_c, 5, 53, 67
5, 111680, Note_off_c, 5, 53, 0
5, 111680, Note_off_c, 5, 58, 0
5, 111680, Note_off_c, 5, 61, 0
5, 112000, Note_on_c, 5, 58, 62
5, 112000, Note_on_c, 5, 61, 76
5, 112000, Note_on_c, 5, 53, 62
5, 112064, Note_off_c, 5, 53, 0
5, 112064, Note_off_c, 5, 61, 0
5, 112064, Note_off_c, 5, 58, 0
5, 112384, Note_on_c, 5, 53, 64
5, 112384, Note_on_c, 5, 60, 63
5, 112384, Note_on_c, 5, 57, 73
5, 112448, Note_off_c, 5, 57, 0
5, 112448, Note_off_c, 5, 60, 0
5, 112448, Note_off_c, 5, 53, 0
5, 112768, Note_on_c, 5, 60, 53
5, 112768, Note_on_c, 5, 53, 64
5, 112768, Note_on_c, 5, 57, 71
5, 112832, Note_off_c, 5, 57, 0
5, 112832, Note_off_c, 5, 53, 0
5, 112832, Note_off_c, 5, 60, 0
5, 113152, Note_on_c, 5, 62, 73
5, 113152, Note_on_c, 5, 55, 68
5, 113152, Note_on_c, 5, 58, 63
5, 113216, Note_off_c, 5, 58, 0
5, 113216, Note_off_c, 5, 55, 0
5, 113216, Note_off_c, 5, 62, 0
5, 113536, Note_on_c, 5, 62, 76
5, 113536, Note_on_c, 5, 58, 64
5, 113536, Note_on_c, 5, 55, 68
5, 113600, Note_off_c, 5, 55, 0
5, 113600, Note_off_c, 5, 58, 0
5, 113600, Note_off_c, 5, 62, 0
5, 113920, Note_on_c, 5, 57, 73
5, 113920, Note_on_c, 5, 60, 68
5, 113920, Note_on_c, 5, 64, 82
5, 113984, Note_off_c, 5, 64, 0
5, 113984, Note_off_c, 5, 60, 0
5, 113984, Note_off_c, 5, 57, 0
5, 114304, Note_on_c, 5, 64, 87
5, 114304, Note_on_c, 5, 60, 73
5, 114304, Note_on_c, 5, 57, 68
5, 114368, Note_off_c, 5, 57, 0
5, 114368, Note_off_c, 5, 60, 0
5, 114368, Note_off_c, 5, 64, 0
5, 114688, Note_on_c, 5, 66, 76
5, 114688, Note_on_c, 5, 57, 73
5, 114688, Note_on_c, 5, 62, 71
5, 114752, Note_off_c, 5, 62, 0
5, 114752, Note_off_c, 5, 57, 0
5, 114752, Note_off_c, 5, 66, 0
5, 115072, Note_on_c, 5, 62, 76
5, 115072, Note_on_c, 5, 57, 73
5, 115072, Note_on_c, 5, 66, 79
5, 115136, Note_off_c, 5, 66, 0
5, 115136, Note_off_c, 5, 57, 0
5, 115136, Note_off_c, 5, 62, 0
5, 115456, Note_on_c, 5, 62, 64
5, 115456, Note_on_c, 5, 59, 69
5, 115456, Note_on_c, 5, 65, 67
5, 115456, Note_on_c, 5, 55, 73
5, 115520, Note_off_c, 5, 55, 0
5, 115520, Note_off_c, 5, 65, 0
5, 115520, Note_off_c, 5, 59, 0
5, 115520, Note_off_c, 5, 62, 0
5, 115840, Note_on_c, 5, 55, 67
5, 115840, Note_on_c, 5, 65, 69
5, 115840, Note_on_c, 5, 59, 63
5, 115840, Note_on_c, 5, 62, 66
5, 115904, Note_off_c, 5, 62, 0
5, 115904, Note_off_c, 5, 59, 0
5, 115904, Note_off_c, 5, 65, 0
5, 115904, Note_off_c, 5, 55, 0
5, 116224, Note_on_c, 5, 55, 71
5, 116224, Note_on_c, 5, 58, 63
5, 116224, Note_on_c, 5, 60, 63
5, 116224, Note_on_c, 5, 64, 73
5, 116288, Note_off_c, 5, 64, 0
5, 116288, Note_off_c, 5, 60, 0
5, 116288, Note_off_c, 5, 58, 0
5, 116288, Note_off_c, 5, 55, 0
5, 116608, Note_on_c, 5, 58, 63
5, 116608, Note_on_c, 5, 64, 69
5, 116608, Note_on_c, 5, 60, 60
5, 116608, Note_on_c, 5, 55, 67
5, 116672, Note_off_c, 5, 55, 0
5, 116672, Note_off_c, 5, 60, 0
5, 116672, Note_off_c, 5, 64, 0
5, 116672, Note_off_c, 5, 58, 0
5, 116992, Note_on_c, 5, 63, 68
5, 116992, Note_on_c, 5, 57, 66
5, 116992, Note_on_c, 5, 65, 69
5, 117056, Note_off_c, 5, 65, 0
5, 117056, Note_off_c, 5, 57, 0
5, 117056, Note_off_c, 5, 63, 0
5, 117376, Note_on_c, 5, 57, 71
5, 117376, Note_on_c, 5, 63, 79
5, 117376, Note_on_c, 5, 65, 73
5, 117440, Note_off_c, 5, 65, 0
5, 117440, Note_off_c, 5, 63, 0
5, 117440, Note_off_c, 5, 57, 0
5, 117760, Note_on_c, 5, 57, 76
5, 117760, Note_on_c, 5, 63, 82
5, 117760, Note_on_c, 5, 65, 73
5, 117824, Note_off_c, 5, 65, 0
5, 117824, Note_off_c, 5, 63, 0
5, 117824, Note_off_c, 5, 57, 0
5, 118144, Note_on_c, 5, 65, 79
5, 118144, Note_on_c, 5, 63, 82
5, 118144, Note_on_c, 5, 57, 79
5, 118208, Note_off_c, 5, 57, 0
5, 118208, Note_off_c, 5, 63, 0
5, 118208, Note_off_c, 5, 65, 0
5, 118272, Note_on_c, 5, 53, 82
5, 118272, Note_on_c, 5, 57, 87
5, 118272, Note_on_c, 5, 60, 84
5, 118400, Note_off_c, 5, 60, 0
5, 118400, Note_off_c, 5, 57, 0
5, 118400, Note_off_c, 5, 53, 0
5, 120832, Note_on_c, 5, 53, 73
5, 120832, Note_on_c, 5, 60, 76
5, 120832, Note_on_c, 5, 57, 90
5, 121216, Note_off_c, 5, 57, 0
5, 121216, Note_off_c, 5, 53, 0
5, 121224, Note_off_c, 5, 60, 0
5, 121344, Note_on_c, 5, 62, 76
5, 121344, Note_on_c, 5, 53, 76
5, 121344, Note_on_c, 5, 58, 73
5, 121472, Note_off_c, 5, 53, 0
5, 121472, Note_off_c, 5, 62, 0
5, 121600, Note_off_c, 5, 58, 0
5, 123904, Note_on_c, 5, 62, 87
5, 123904, Note_on_c, 5, 58, 71
5, 123904, Note_on_c, 5, 53, 71
5, 124288, Note_off_c, 5, 53, 0
5, 124288, Note_off_c, 5, 62, 0
5, 124416, Note_off_c, 5, 58, 0
5, 124416, Note_on_c, 5, 55, 73
5, 124416, Note_on_c, 5, 59, 73
5, 124416, Note_on_c, 5, 62, 82
5, 124672, Note_off_c, 5, 62, 0
5, 124672, Note_off_c, 5, 59, 0
5, 124672, Note_off_c, 5, 55, 0
5, 126976, Note_on_c, 5, 55, 71
5, 126976, Note_on_c, 5, 59, 76
5, 126976, Note_on_c, 5, 62, 79
5, 127360, Note_off_c, 5, 62, 0
5, 127360, Note_off_c, 5, 59, 0
5, 127360, Note_off_c, 5, 55, 0
5, 127488, Note_on_c, 5, 55, 73
5, 127488, Note_on_c, 5, 60, 64
5, 127488, Note_on_c, 5, 64, 79
5, 127744, Note_off_c, 5, 64, 0
5, 127744, Note_off_c, 5, 60, 0
5, 127744, Note_off_c, 5, 55, 0
5, 130816, Note_on_c, 5, 53, 63
5, 130816, Note_on_c, 5, 60, 64
5, 130816, Note_on_c, 5, 57, 66
5, 130880, Note_off_c, 5, 57, 0
5, 130880, Note_off_c, 5, 60, 0
5, 130880, Note_off_c, 5, 53, 0
5, 131200, Note_on_c, 5, 53, 69
5, 131200, Note_on_c, 5, 60, 66
5, 131200, Note_on_c, 5, 57, 76
5, 131264, Note_off_c, 5, 57, 0
5, 131264, Note_off_c, 5, 60, 0
5, 131264, Note_off_c, 5, 53, 0
5, 131584, Note_on_c, 5, 57, 73
5, 131584, Note_on_c, 5, 60, 68
5, 131584, Note_on_c, 5, 53, 68
5, 131648, Note_off_c, 5, 53, 0
5, 131648, Note_off_c, 5, 60, 0
5, 131648, Note_off_c, 5, 57, 0
5, 131968, Note_on_c, 5, 53, 63
5, 131968, Note_on_c, 5, 60, 64
5, 131968, Note_on_c, 5, 57, 68
5, 132032, Note_off_c, 5, 57, 0
5, 132032, Note_off_c, 5, 60, 0
5, 132032, Note_off_c, 5, 53, 0
5, 132352, Note_on_c, 5, 51, 84
5, 132352, Note_on_c, 5, 53, 67
5, 132352, Note_on_c, 5, 60, 63
5, 132352, Note_on_c, 5, 57, 63
5, 132416, Note_off_c, 5, 57, 0
5, 132416, Note_off_c, 5, 60, 0
5, 132416, Note_off_c, 5, 53, 0
5, 132416, Note_off_c, 5, 51, 0
5, 132736, Note_on_c, 5, 51, 79
5, 132736, Note_on_c, 5, 60, 63
5, 132736, Note_on_c, 5, 57, 69
5, 132736, Note_on_c, 5, 53, 63
5, 132800, Note_off_c, 5, 53, 0
5, 132800, Note_off_c, 5, 57, 0
5, 132800, Note_off_c, 5, 60, 0
5, 132800, Note_off_c, 5, 51, 0
5, 133120, Note_on_c, 5, 57, 71
5, 133120, Note_on_c, 5, 60, 63
5, 133120, Note_on_c, 5, 51, 79
5, 133120, Note_on_c, 5, 53, 61
5, 133184, Note_off_c, 5, 53, 0
5, 133184, Note_off_c, 5, 51, 0
5, 133184, Note_off_c, 5, 60, 0
5, 133184, Note_off_c, 5, 57, 0
5, 133504, Note_on_c, 5, 51, 82
5, 133504, Note_on_c, 5, 57, 66
5, 133504, Note_on_c, 5, 60, 67
5, 133504, Note_on_c, 5, 53, 62
5, 133568, Note_off_c, 5, 53, 0
5, 133568, Note_off_c, 5, 60, 0
5, 133568, Note_off_c, 5, 57, 0
5, 133568, Note_off_c, 5, 51, 0
5, 133888, Note_on_c, 5, 53, 67
5, 133888, Note_on_c, 5, 58, 64
5, 133888, Note_on_c, 5, 62, 67
5, 133952, Note_off_c, 5, 62, 0
5, 133952, Note_off_c, 5, 58, 0
5, 133952, Note_off_c, 5, 53, 0
5, 134272, Note_on_c, 5, 53, 66
5, 134272, Note_on_c, 5, 62, 69
5, 134272, Note_on_c, 5, 58, 63
5, 134336, Note_off_c, 5, 58, 0
5, 134336, Note_off_c, 5, 62, 0
5, 134336, Note_off_c, 5, 53, 0
5, 134656, Note_on_c, 5, 58, 60
5, 134656, Note_on_c, 5, 53, 69
5, 134656, Note_on_c, 5, 62, 69
5, 134720, Note_off_c, 5, 62, 0
5, 134720, Note_off_c, 5, 53, 0
5, 134720, Note_off_c, 5, 58, 0
5, 135040, Note_on_c, 5, 53, 68
5, 135040, Note_on_c, 5, 62, 71
5, 135040, Note_on_c, 5, 58, 57
5, 135104, Note_off_c, 5, 58, 0
5, 135104, Note_off_c, 5, 62, 0
5, 135104, Note_off_c, 5, 53, 0
5, 135424, Note_on_c, 5, 61, 64
5, 135424, Note_on_c, 5, 53, 62
5, 135424, Note_on_c, 5, 58, 63
5, 135488, Note_off_c, 5, 58, 0
5, 135488, Note_off_c, 5, 53, 0
5, 135488, Note_off_c, 5, 61, 0
5, 135808, Note_on_c, 5, 53, 68
5, 135808, Note_on_c, 5, 58, 62
5, 135808, Note_on_c, 5, 61, 73
5, 135872, Note_off_c, 5, 61, 0
5, 135872, Note_off_c, 5, 58, 0
5, 135872, Note_off_c, 5, 53, 0
5, 136192, Note_on_c, 5, 53, 69
5, 136192, Note_on_c, 5, 61, 79
5, 136192, Note_on_c, 5, 58, 64
5, 136256, Note_off_c, 5, 58, 0
5, 136256, Note_off_c, 5, 61, 0
5, 136256, Note_off_c, 5, 53, 0
5, 136576, Note_on_c, 5, 61, 68
5, 136576, Note_on_c, 5, 53, 66
5, 136576, Note_on_c, 5, 58, 60
5, 136640, Note_off_c, 5, 58, 0
5, 136640, Note_off_c, 5, 53, 0
5, 136640, Note_off_c, 5, 61, 0
5, 136960, Note_on_c, 5, 53, 63
5, 136960, Note_on_c, 5, 57, 69
5, 136960, Note_on_c, 5, 60, 68
5, 137024, Note_off_c, 5, 60, 0
5, 137024, Note_off_c, 5, 57, 0
5, 137024, Note_off_c, 5, 53, 0
5, 137344, Note_on_c, 5, 57, 64
5, 137344, Note_on_c, 5, 53, 60
5, 137344, Note_on_c, 5, 60, 67
5, 137408, Note_off_c, 5, 60, 0
5, 137408, Note_off_c, 5, 53, 0
5, 137408, Note_off_c, 5, 57, 0
5, 137728, Note_on_c, 5, 62, 62
5, 137728, Note_on_c, 5, 55, 66
5, 137728, Note_on_c, 5, 58, 62
5, 137792, Note_off_c, 5, 58, 0
5, 137792, Note_off_c, 5, 55, 0
5, 137792, Note_off_c, 5, 62, 0
5, 138112, Note_on_c, 5, 62, 66
5, 138112, Note_on_c, 5, 58, 63
5, 138112, Note_on_c, 5, 55, 68
5, 138176, Note_off_c, 5, 55, 0
5, 138176, Note_off_c, 5, 58, 0
5, 138176, Note_off_c, 5, 62, 0
5, 138496, Note_on_c, 5, 60, 63
5, 138496, Note_on_c, 5, 64, 63
5, 138496, Note_on_c, 5, 57, 67
5, 138560, Note_off_c, 5, 57, 0
5, 138560, Note_off_c, 5, 64, 0
5, 138560, Note_off_c, 5, 60, 0
5, 138880, Note_on_c, 5, 60, 73
5, 138880, Note_on_c, 5, 64, 71
5, 138880, Note_on_c, 5, 57, 66
5, 138944, Note_off_c, 5, 57, 0
5, 138944, Note_off_c, 5, 64, 0
5, 138944, Note_off_c, 5, 60, 0
5, 139264, Note_on_c, 5, 62, 67
5, 139264, Note_on_c, 5, 57, 61
5, 139264, Note_on_c, 5, 60, 56
5, 139264, Note_on_c, 5, 54, 66
5, 139328, Note_off_c, 5, 54, 0
5, 139328, Note_off_c, 5, 60, 0
5, 139328, Note_off_c, 5, 57, 0
5, 139328, Note_off_c, 5, 62, 0
5, 139648, Note_on_c, 5, 54, 76
5, 139648, Note_on_c, 5, 60, 69
5, 139648, Note_on_c, 5, 57, 71
5, 139648, Note_on_c, 5, 62, 71
5, 139712, Note_off_c, 5, 62, 0
5, 139712, Note_off_c, 5, 57, 0
5, 139712, Note_off_c, 5, 60, 0
5, 139712, Note_off_c, 5, 54, 0
5, 140032, Note_on_c, 5, 55, 68
5, 140032, Note_on_c, 5, 62, 68
5, 140032, Note_on_c, 5, 59, 64
5, 140096, Note_off_c, 5, 59, 0
5, 140096, Note_off_c, 5, 62, 0
5, 140096, Note_off_c, 5, 55, 0
5, 140416, Note_on_c, 5, 55, 73
5, 140416, Note_on_c, 5, 59, 69
5, 140416, Note_on_c, 5, 62, 73
5, 140480, Note_off_c, 5, 62, 0
5, 140480, Note_off_c, 5, 59, 0
5, 140480, Note_off_c, 5, 55, 0
5, 140800, Note_on_c, 5, 59, 73
5, 140800, Note_on_c, 5, 62, 76
5, 140800, Note_on_c, 5, 55, 69
5, 140864, Note_off_c, 5, 55, 0
5, 140864, Note_off_c, 5, 62, 0
5, 140864, Note_off_c, 5, 59, 0
5, 141184, Note_on_c, 5, 55, 61
5, 141184, Note_on_c, 5, 59, 62
5, 141184, Note_on_c, 5, 62, 66
5, 141248, Note_off_c, 5, 62, 0
5, 141248, Note_off_c, 5, 59, 0
5, 141248, Note_off_c, 5, 55, 0
5, 141568, Note_on_c, 5, 60, 71
5, 141568, Note_on_c, 5, 52, 63
5, 141568, Note_on_c, 5, 58, 69
5, 141632, Note_off_c, 5, 58, 0
5, 141632, Note_off_c, 5, 52, 0
5, 141632, Note_off_c, 5, 60, 0
5, 141952, Note_on_c, 5, 58, 68
5, 141952, Note_on_c, 5, 52, 69
5, 141952, Note_on_c, 5, 60, 73
5, 142016, Note_off_c, 5, 60, 0
5, 142016, Note_off_c, 5, 52, 0
5, 142016, Note_off_c, 5, 58, 0
5, 142336, Note_on_c, 5, 52, 69
5, 142336, Note_on_c, 5, 58, 73
5, 142336, Note_on_c, 5, 60, 73
5, 142400, Note_off_c, 5, 60, 0
5, 142400, Note_off_c, 5, 58, 0
5, 142400, Note_off_c, 5, 52, 0
5, 142720, Note_on_c, 5, 60, 73
5, 142720, Note_on_c, 5, 58, 73
5, 142720, Note_on_c, 5, 52, 82
5, 142784, Note_off_c, 5, 52, 0
5, 142784, Note_off_c, 5, 58, 0
5, 142784, Note_off_c, 5, 60, 0
5, 143104, Note_on_c, 5, 55, 66
5, 143104, Note_on_c, 5, 62, 66
5, 143104, Note_on_c, 5, 59, 69
5, 143168, Note_off_c, 5, 59, 0
5, 143168, Note_off_c, 5, 62, 0
5, 143168, Note_off_c, 5, 55, 0
5, 143488, Note_on_c, 5, 62, 67
5, 143488, Note_on_c, 5, 55, 69
5, 143488, Note_on_c, 5, 59, 82
5, 143552, Note_off_c, 5, 59, 0
5, 143552, Note_off_c, 5, 55, 0
5, 143552, Note_off_c, 5, 62, 0
5, 143872, Note_on_c, 5, 62, 66
5, 143872, Note_on_c, 5, 55, 76
5, 143872, Note_on_c, 5, 59, 71
5, 143936, Note_off_c, 5, 59, 0
5, 143936, Note_off_c, 5, 55, 0
5, 143936, Note_off_c, 5, 62, 0
5, 144256, Note_on_c, 5, 59, 56
5, 144256, Note_on_c, 5, 62, 51
5, 144256, Note_on_c, 5, 55, 40
5, 144320, Note_off_c, 5, 55, 0
5, 144320, Note_off_c, 5, 62, 0
5, 144320, Note_off_c, 5, 59, 0
5, 144384, Note_on_c, 5, 55, 73
5, 144384, Note_on_c, 5, 64, 79
5, 144384, Note_on_c, 5, 60, 71
5, 144448, Note_off_c, 5, 60, 0
5, 144448, Note_off_c, 5, 64, 0
5, 144448, Note_off_c, 5, 55, 0
5, 145920, Note_on_c, 5, 57, 63
5, 145920, Note_on_c, 5, 41, 60
5, 145920, Note_on_c, 5, 65, 67
5, 145920, Note_on_c, 5, 60, 63
5, 145968, Note_off_c, 5, 60, 0
5, 145984, Note_off_c, 5, 65, 0
5, 145988, Note_off_c, 5, 57, 0
5, 145996, Note_off_c, 5, 41, 0
5, 146176, Note_on_c, 5, 65, 68
5, 146176, Note_on_c, 5, 45, 64
5, 146176, Note_on_c, 5, 63, 73
5, 146176, Note_on_c, 5, 57, 73
5, 146572, Note_off_c, 5, 57, 0
5, 146636, Note_off_c, 5, 63, 0
5, 146636, Note_off_c, 5, 45, 0
5, 146664, Note_off_c, 5, 65, 0
5, 146688, Note_on_c, 5, 46, 60
5, 146688, Note_on_c, 5, 58, 46
5, 146688, Note_on_c, 5, 65, 48
5, 146688, Note_on_c, 5, 62, 60
5, 146768, Note_off_c, 5, 62, 0
5, 146772, Note_off_c, 5, 58, 0
5, 146784, Note_off_c, 5, 65, 0
5, 146784, Note_off_c, 5, 46, 0
5, 147072, Note_on_c, 5, 58, 57
5, 147072, Note_on_c, 5, 46, 64
5, 147072, Note_on_c, 5, 61, 76
5, 147072, Note_on_c, 5, 65, 64
5, 147240, Note_off_c, 5, 61, 0
5, 147292, Note_off_c, 5, 58, 0
5, 147400, Note_off_c, 5, 65, 0
5, 147444, Note_off_c, 5, 46, 0
5, 147456, Note_on_c, 5, 48, 73
5, 147456, Note_on_c, 5, 65, 63
5, 147456, Note_on_c, 5, 57, 60
5, 147456, Note_on_c, 5, 60, 60
5, 147512, Note_off_c, 5, 60, 0
5, 147512, Note_off_c, 5, 57, 0
5, 147520, Note_off_c, 5, 48, 0
5, 147532, Note_off_c, 5, 65, 0
5, 147840, Note_on_c, 5, 53, 73
5, 147840, Note_on_c, 5, 50, 69
5, 147840, Note_on_c, 5, 48, 82
5, 147840, Note_on_c, 5, 58, 71
5, 147972, Note_off_c, 5, 50, 0
5, 148004, Note_off_c, 5, 53, 0
5, 148020, Note_off_c, 5, 48, 0
5, 148040, Note_off_c, 5, 58, 0
5, 148096, Note_on_c, 5, 48, 60
5, 148096, Note_on_c, 5, 57, 64
5, 148096, Note_on_c, 5, 41, 58
5, 148096, Note_on_c, 5, 51, 68
5, 150272, Note_off_c, 5, 51, 0
5, 150280, Note_off_c, 5, 48, 0
5, 150292, Note_off_c, 5, 41, 0
5, 150300, Note_off_c, 5, 57, 0
5, 150528, End_track
6, 0, Start_track
6, 0, Title_t, "piano"
6, 1536, Program_c, 8, 0
6, 1536, Control_c, 8, 7, 127
6, 4224, Note_on_c, 8, 52, 82
6, 4224, Note_on_c, 8, 48, 82
6, 4304, Note_off_c, 8, 52, 0
6, 4352, Note_on_c, 8, 53, 87
6, 4352, Note_on_c, 8, 50, 73
6, 4380, Note_off_c, 8, 48, 0
6, 4412, Note_off_c, 8, 53, 0
6, 4424, Note_off_c, 8, 50, 0
6, 4480, Note_on_c, 8, 55, 96
6, 4480, Note_on_c, 8, 52, 87
6, 4532, Note_off_c, 8, 52, 0
6, 4536, Note_off_c, 8, 55, 0
6, 4608, Note_on_c, 8, 41, 67
6, 4856, Note_off_c, 8, 41, 0
6, 4992, Note_on_c, 8, 40, 56
6, 5288, Note_off_c, 8, 40, 0
6, 5376, Note_on_c, 8, 38, 56
6, 5664, Note_off_c, 8, 38, 0
6, 5760, Note_on_c, 8, 36, 50
6, 6008, Note_off_c, 8, 36, 0
6, 6144, Note_on_c, 8, 34, 62
6, 6412, Note_off_c, 8, 34, 0
6, 6528, Note_on_c, 8, 33, 62
6, 6832, Note_off_c, 8, 33, 0
6, 6912, Note_on_c, 8, 31, 63
6, 7192, Note_off_c, 8, 31, 0
6, 7296, Note_on_c, 8, 36, 58
6, 7552, Note_off_c, 8, 36, 0
6, 7680, Note_on_c, 8, 41, 67
6, 7928, Note_off_c, 8, 41, 0
6, 8064, Note_on_c, 8, 40, 56
6, 8360, Note_off_c, 8, 40, 0
6, 8448, Note_on_c, 8, 38, 56
6, 8736, Note_off_c, 8, 38, 0
6, 8832, Note_on_c, 8, 36, 50
6, 9080, Note_off_c, 8, 36, 0
6, 9216, Note_on_c, 8, 34, 62
6, 9484, Note_off_c, 8, 34, 0
6, 9600, Note_on_c, 8, 33, 62
6, 9904, Note_off_c, 8, 33, 0
6, 9984, Note_on_c, 8, 31, 63
6, 10264, Note_off_c, 8, 31, 0
6, 10368, Note_on_c, 8, 36, 58
6, 10624, Note_off_c, 8, 36, 0
6, 10752, Note_on_c, 8, 41, 67
6, 11000, Note_off_c, 8, 41, 0
6, 11136, Note_on_c, 8, 40, 56
6, 11432, Note_off_c, 8, 40, 0
6, 11520, Note_on_c, 8, 38, 56
6, 11808, Note_off_c, 8, 38, 0
6, 11904, Note_on_c, 8, 36, 50
6, 12152, Note_off_c, 8, 36, 0
6, 12288, Note_on_c, 8, 34, 62
6, 12556, Note_off_c, 8, 34, 0
6, 12672, Note_on_c, 8, 33, 62
6, 12976, Note_off_c, 8, 33, 0
6, 13056, Note_on_c, 8, 31, 63
6, 13336, Note_off_c, 8, 31, 0
6, 13440, Note_on_c, 8, 36, 58
6, 13696, Note_off_c, 8, 36, 0
6, 13824, Note_on_c, 8, 41, 67
6, 14072, Note_off_c, 8, 41, 0
6, 14208, Note_on_c, 8, 40, 56
6, 14504, Note_off_c, 8, 40, 0
6, 14592, Note_on_c, 8, 38, 56
6, 14880, Note_off_c, 8, 38, 0
6, 14976, Note_on_c, 8, 36, 50
6, 15224, Note_off_c, 8, 36, 0
6, 15360, Note_on_c, 8, 34, 62
6, 15628, Note_off_c, 8, 34, 0
6, 15744, Note_on_c, 8, 33, 62
6, 16048, Note_off_c, 8, 33, 0
6, 16128, Note_on_c, 8, 31, 63
6, 16408, Note_off_c, 8, 31, 0
6, 16512, Note_on_c, 8, 36, 58
6, 16768, Note_off_c, 8, 36, 0
6, 16896, Note_on_c, 8, 41, 67
6, 17200, Note_off_c, 8, 41, 0
6, 17280, Note_on_c, 8, 40, 62
6, 17620, Note_off_c, 8, 40, 0
6, 17664, Note_on_c, 8, 38, 56
6, 17976, Note_off_c, 8, 38, 0
6, 18048, Note_on_c, 8, 36, 61
6, 18324, Note_off_c, 8, 36, 0
6, 18432, Note_on_c, 8, 29, 62
6, 18764, Note_off_c, 8, 29, 0
6, 18816, Note_on_c, 8, 30, 58
6, 19156, Note_off_c, 8, 30, 0
6, 19200, Note_on_c, 8, 31, 64
6, 19544, Note_off_c, 8, 31, 0
6, 19584, Note_on_c, 8, 33, 60
6, 19868, Note_off_c, 8, 33, 0
6, 19968, Note_on_c, 8, 34, 56
6, 20304, Note_off_c, 8, 34, 0
6, 20352, Note_on_c, 8, 38, 64
6, 20664, Note_off_c, 8, 38, 0
6, 20736, Note_on_c, 8, 41, 58
6, 21084, Note_off_c, 8, 41, 0
6, 21120, Note_on_c, 8, 38, 56
6, 21452, Note_off_c, 8, 38, 0
6, 21504, Note_on_c, 8, 34, 53
6, 21824, Note_off_c, 8, 34, 0
6, 21888, Note_on_c, 8, 36, 63
6, 22228, Note_off_c, 8, 36, 0
6, 22272, Note_on_c, 8, 37, 56
6, 22612, Note_off_c, 8, 37, 0
6, 22656, Note_on_c, 8, 34, 45
6, 22968, Note_off_c, 8, 34, 0
6, 23040, Note_on_c, 8, 29, 58
6, 23348, Note_off_c, 8, 29, 0
6, 23424, Note_on_c, 8, 29, 56
6, 23744, Note_off_c, 8, 29, 0
6, 23808, Note_on_c, 8, 31, 64
6, 24064, Note_off_c, 8, 31, 0
6, 24192, Note_on_c, 8, 31, 64
6, 24516, Note_off_c, 8, 31, 0
6, 24576, Note_on_c, 8, 33, 56
6, 24860, Note_off_c, 8, 33, 0
6, 24960, Note_on_c, 8, 33, 51
6, 25264, Note_off_c, 8, 33, 0
6, 25344, Note_on_c, 8, 26, 67
6, 25688, Note_off_c, 8, 26, 0
6, 25728, Note_on_c, 8, 38, 64
6, 26044, Note_off_c, 8, 38, 0
6, 26112, Note_on_c, 8, 31, 58
6, 26416, Note_off_c, 8, 31, 0
6, 26496, Note_on_c, 8, 35, 61
6, 26832, Note_off_c, 8, 35, 0
6, 26880, Note_on_c, 8, 38, 63
6, 27264, Note_on_c, 8, 31, 58
6, 27268, Note_off_c, 8, 38, 0
6, 27548, Note_off_c, 8, 31, 0
6, 27648, Note_on_c, 8, 36, 64
6, 27956, Note_off_c, 8, 36, 0
6, 28032, Note_on_c, 8, 34, 56
6, 28360, Note_off_c, 8, 34, 0
6, 28416, Note_on_c, 8, 33, 58
6, 28716, Note_off_c, 8, 33, 0
6, 28800, Note_on_c, 8, 31, 76
6, 29092, Note_off_c, 8, 31, 0
6, 29184, Note_on_c, 8, 41, 67
6, 29488, Note_off_c, 8, 41, 0
6, 29568, Note_on_c, 8, 40, 62
6, 29908, Note_off_c, 8, 40, 0
6, 29952, Note_on_c, 8, 38, 56
6, 30264, Note_off_c, 8, 38, 0
6, 30336, Note_on_c, 8, 36, 61
6, 30612, Note_off_c, 8, 36, 0
6, 30720, Note_on_c, 8, 29, 62
6, 31052, Note_off_c, 8, 29, 0
6, 31104, Note_on_c, 8, 30, 58
6, 31444, Note_off_c, 8, 30, 0
6, 31488, Note_on_c, 8, 31, 64
6, 31832, Note_off_c, 8, 31, 0
6, 31872, Note_on_c, 8, 33, 60
6, 32156, Note_off_c, 8, 33, 0
6, 32256, Note_on_c, 8, 34, 56
6, 32592, Note_off_c, 8, 34, 0
6, 32640, Note_on_c, 8, 38, 64
6, 32952, Note_off_c, 8, 38, 0
6, 33024, Note_on_c, 8, 41, 58
6, 33372, Note_off_c, 8, 41, 0
6, 33408, Note_on_c, 8, 38, 56
6, 33740, Note_off_c, 8, 38, 0
6, 33792, Note_on_c, 8, 34, 53
6, 34112, Note_off_c, 8, 34, 0
6, 34176, Note_on_c, 8, 36, 63
6, 34516, Note_off_c, 8, 36, 0
6, 34560, Note_on_c, 8, 37, 56
6, 34900, Note_off_c, 8, 37, 0
6, 34944, Note_on_c, 8, 34, 45
6, 35256, Note_off_c, 8, 34, 0
6, 35328, Note_on_c, 8, 29, 58
6, 35636, Note_off_c, 8, 29, 0
6, 35712, Note_on_c, 8, 29, 56
6, 36032, Note_off_c, 8, 29, 0
6, 36096, Note_on_c, 8, 31, 64
6, 36352, Note_off_c, 8, 31, 0
6, 36480, Note_on_c, 8, 31, 64
6, 36804, Note_off_c, 8, 31, 0
6, 36864, Note_on_c, 8, 33, 56
6, 37148, Note_off_c, 8, 33, 0
6, 37248, Note_on_c, 8, 33, 51
6, 37552, Note_off_c, 8, 33, 0
6, 37632, Note_on_c, 8, 26, 67
6, 37976, Note_off_c, 8, 26, 0
6, 38016, Note_on_c, 8, 38, 64
6, 38332, Note_off_c, 8, 38, 0
6, 38400, Note_on_c, 8, 31, 67
6, 38756, Note_off_c, 8, 31, 0
6, 38784, Note_on_c, 8, 35, 62
6, 39132, Note_off_c, 8, 35, 0
6, 39168, Note_on_c, 8, 36, 64
6, 39548, Note_off_c, 8, 36, 0
6, 39552, Note_on_c, 8, 40, 63
6, 39884, Note_off_c, 8, 40, 0
6, 39936, Note_on_c, 8, 29, 53
6, 40268, Note_off_c, 8, 29, 0
6, 40320, Note_on_c, 8, 33, 64
6, 40692, Note_off_c, 8, 33, 0
6, 40704, Note_on_c, 8, 36, 61
6, 41044, Note_off_c, 8, 36, 0
6, 41088, Note_on_c, 8, 33, 53
6, 41352, Note_off_c, 8, 33, 0
6, 41472, Note_on_c, 8, 41, 79
6, 41772, Note_off_c, 8, 41, 0
6, 41856, Note_on_c, 8, 40, 71
6, 42180, Note_off_c, 8, 40, 0
6, 42240, Note_on_c, 8, 38, 72
6, 42532, Note_off_c, 8, 38, 0
6, 42624, Note_on_c, 8, 36, 70
6, 42944, Note_off_c, 8, 36, 0
6, 43008, Note_on_c, 8, 34, 66
6, 43296, Note_off_c, 8, 34, 0
6, 43392, Note_on_c, 8, 33, 63
6, 43680, Note_off_c, 8, 33, 0
6, 43776, Note_on_c, 8, 31, 66
6, 44084, Note_off_c, 8, 31, 0
6, 44160, Note_on_c, 8, 29, 62
6, 44416, Note_off_c, 8, 29, 0
6, 44544, Note_on_c, 8, 34, 63
6, 44848, Note_off_c, 8, 34, 0
6, 44928, Note_on_c, 8, 38, 77
6, 45220, Note_off_c, 8, 38, 0
6, 45312, Note_on_c, 8, 41, 74
6, 45660, Note_off_c, 8, 41, 0
6, 45696, Note_on_c, 8, 38, 68
6, 46004, Note_off_c, 8, 38, 0
6, 46080, Note_on_c, 8, 34, 61
6, 46352, Note_off_c, 8, 34, 0
6, 46464, Note_on_c, 8, 38, 63
6, 46752, Note_off_c, 8, 38, 0
6, 46848, Note_on_c, 8, 41, 72
6, 47204, Note_off_c, 8, 41, 0
6, 47232, Note_on_c, 8, 34, 63
6, 47556, Note_off_c, 8, 34, 0
6, 47616, Note_on_c, 8, 31, 72
6, 47928, Note_off_c, 8, 31, 0
6, 48000, Note_on_c, 8, 35, 74
6, 48280, Note_off_c, 8, 35, 0
6, 48384, Note_on_c, 8, 38, 72
6, 48696, Note_off_c, 8, 38, 0
6, 48768, Note_on_c, 8, 43, 74
6, 49080, Note_off_c, 8, 43, 0
6, 49152, Note_on_c, 8, 41, 71
6, 49448, Note_off_c, 8, 41, 0
6, 49536, Note_on_c, 8, 38, 72
6, 49860, Note_off_c, 8, 38, 0
6, 49920, Note_on_c, 8, 35, 66
6, 50264, Note_off_c, 8, 35, 0
6, 50304, Note_on_c, 8, 31, 74
6, 50636, Note_off_c, 8, 31, 0
6, 50688, Note_on_c, 8, 36, 79
6, 50860, Note_off_c, 8, 36, 0
6, 53376, Note_on_c, 8, 36, 79
6, 53504, Note_on_c, 8, 38, 71
6, 53512, Note_off_c, 8, 36, 0
6, 53616, Note_off_c, 8, 38, 0
6, 53632, Note_on_c, 8, 40, 81
6, 53748, Note_off_c, 8, 40, 0
6, 53760, Note_on_c, 8, 41, 67
6, 54064, Note_off_c, 8, 41, 0
6, 54144, Note_on_c, 8, 40, 62
6, 54484, Note_off_c, 8, 40, 0
6, 54528, Note_on_c, 8, 38, 56
6, 54840, Note_off_c, 8, 38, 0
6, 54912, Note_on_c, 8, 36, 61
6, 55188, Note_off_c, 8, 36, 0
6, 55296, Note_on_c, 8, 29, 62
6, 55628, Note_off_c, 8, 29, 0
6, 55680, Note_on_c, 8, 30, 58
6, 56020, Note_off_c, 8, 30, 0
6, 56064, Note_on_c, 8, 31, 64
6, 56408, Note_off_c, 8, 31, 0
6, 56448, Note_on_c, 8, 33, 60
6, 56732, Note_off_c, 8, 33, 0
6, 56832, Note_on_c, 8, 34, 56
6, 57168, Note_off_c, 8, 34, 0
6, 57216, Note_on_c, 8, 38, 64
6, 57528, Note_off_c, 8, 38, 0
6, 57600, Note_on_c, 8, 41, 58
6, 57948, Note_off_c, 8, 41, 0
6, 57984, Note_on_c, 8, 38, 56
6, 58316, Note_off_c, 8, 38, 0
6, 58368, Note_on_c, 8, 34, 53
6, 58688, Note_off_c, 8, 34, 0
6, 58752, Note_on_c, 8, 36, 63
6, 59092, Note_off_c, 8, 36, 0
6, 59136, Note_on_c, 8, 37, 56
6, 59476, Note_off_c, 8, 37, 0
6, 59520, Note_on_c, 8, 34, 45
6, 59832, Note_off_c, 8, 34, 0
6, 59904, Note_on_c, 8, 29, 58
6, 60212, Note_off_c, 8, 29, 0
6, 60288, Note_on_c, 8, 29, 56
6, 60608, Note_off_c, 8, 29, 0
6, 60672, Note_on_c, 8, 31, 64
6, 60928, Note_off_c, 8, 31, 0
6, 61056, Note_on_c, 8, 31, 64
6, 61380, Note_off_c, 8, 31, 0
6, 61440, Note_on_c, 8, 33, 56
6, 61724, Note_off_c, 8, 33, 0
6, 61824, Note_on_c, 8, 33, 51
6, 62128, Note_off_c, 8, 33, 0
6, 62208, Note_on_c, 8, 26, 67
6, 62552, Note_off_c, 8, 26, 0
6, 62592, Note_on_c, 8, 38, 64
6, 62908, Note_off_c, 8, 38, 0
6, 62976, Note_on_c, 8, 31, 67
6, 63332, Note_off_c, 8, 31, 0
6, 63360, Note_on_c, 8, 35, 62
6, 63708, Note_off_c, 8, 35, 0
6, 63744, Note_on_c, 8, 36, 64
6, 64124, Note_off_c, 8, 36, 0
6, 64128, Note_on_c, 8, 40, 63
6, 64460, Note_off_c, 8, 40, 0
6, 64512, Note_on_c, 8, 29, 53
6, 64844, Note_off_c, 8, 29, 0
6, 64896, Note_on_c, 8, 33, 64
6, 65268, Note_off_c, 8, 33, 0
6, 65280, Note_on_c, 8, 36, 61
6, 65620, Note_off_c, 8, 36, 0
6, 65664, Note_on_c, 8, 33, 53
6, 65928, Note_off_c, 8, 33, 0
6, 66048, Note_on_c, 8, 48, 79
6, 66168, Note_off_c, 8, 48, 0
6, 66304, Note_on_c, 8, 48, 73
6, 66376, Note_off_c, 8, 48, 0
6, 66432, Note_on_c, 8, 48, 82
6, 66520, Note_off_c, 8, 48, 0
6, 66688, Note_on_c, 8, 48, 76
6, 66748, Note_off_c, 8, 48, 0
6, 66816, Note_on_c, 8, 46, 79
6, 66976, Note_off_c, 8, 46, 0
6, 67200, Note_on_c, 8, 43, 82
6, 67340, Note_off_c, 8, 43, 0
6, 67456, Note_on_c, 8, 36, 73
6, 67672, Note_off_c, 8, 36, 0
6, 69120, Note_on_c, 8, 41, 67
6, 69424, Note_off_c, 8, 41, 0
6, 69504, Note_on_c, 8, 40, 62
6, 69844, Note_off_c, 8, 40, 0
6, 69888, Note_on_c, 8, 38, 56
6, 70200, Note_off_c, 8, 38, 0
6, 70272, Note_on_c, 8, 36, 61
6, 70548, Note_off_c, 8, 36, 0
6, 70656, Note_on_c, 8, 29, 62
6, 70988, Note_off_c, 8, 29, 0
6, 71040, Note_on_c, 8, 30, 58
6, 71380, Note_off_c, 8, 30, 0
6, 71424, Note_on_c, 8, 31, 64
6, 71768, Note_off_c, 8, 31, 0
6, 71808, Note_on_c, 8, 33, 60
6, 72092, Note_off_c, 8, 33, 0
6, 72192, Note_on_c, 8, 34, 56
6, 72528, Note_off_c, 8, 34, 0
6, 72576, Note_on_c, 8, 38, 64
6, 72888, Note_off_c, 8, 38, 0
6, 72960, Note_on_c, 8, 41, 58
6, 73308, Note_off_c, 8, 41, 0
6, 73344, Note_on_c, 8, 38, 56
6, 73676, Note_off_c, 8, 38, 0
6, 73728, Note_on_c, 8, 34, 53
6, 74048, Note_off_c, 8, 34, 0
6, 74112, Note_on_c, 8, 36, 63
6, 74452, Note_off_c, 8, 36, 0
6, 74496, Note_on_c, 8, 37, 56
6, 74836, Note_off_c, 8, 37, 0
6, 74880, Note_on_c, 8, 34, 45
6, 75192, Note_off_c, 8, 34, 0
6, 75264, Note_on_c, 8, 29, 58
6, 75572, Note_off_c, 8, 29, 0
6, 75648, Note_on_c, 8, 29, 56
6, 75968, Note_off_c, 8, 29, 0
6, 76032, Note_on_c, 8, 31, 64
6, 76288, Note_off_c, 8, 31, 0
6, 76416, Note_on_c, 8, 31, 64
6, 76740, Note_off_c, 8, 31, 0
6, 76800, Note_on_c, 8, 33, 56
6, 77084, Note_off_c, 8, 33, 0
6, 77184, Note_on_c, 8, 33, 51
6, 77488, Note_off_c, 8, 33, 0
6, 77568, Note_on_c, 8, 26, 67
6, 77912, Note_off_c, 8, 26, 0
6, 77952, Note_on_c, 8, 38, 64
6, 78268, Note_off_c, 8, 38, 0
6, 78336, Note_on_c, 8, 31, 58
6, 78640, Note_off_c, 8, 31, 0
6, 78720, Note_on_c, 8, 35, 61
6, 79056, Note_off_c, 8, 35, 0
6, 79104, Note_on_c, 8, 38, 63
6, 79488, Note_on_c, 8, 31, 58
6, 79492, Note_off_c, 8, 38, 0
6, 79772, Note_off_c, 8, 31, 0
6, 79872, Note_on_c, 8, 36, 64
6, 80180, Note_off_c, 8, 36, 0
6, 80256, Note_on_c, 8, 34, 56
6, 80584, Note_off_c, 8, 34, 0
6, 80640, Note_on_c, 8, 33, 58
6, 80940, Note_off_c, 8, 33, 0
6, 81024, Note_on_c, 8, 31, 76
6, 81316, Note_off_c, 8, 31, 0
6, 81408, Note_on_c, 8, 41, 67
6, 81712, Note_off_c, 8, 41, 0
6, 81792, Note_on_c, 8, 40, 62
6, 82132, Note_off_c, 8, 40, 0
6, 82176, Note_on_c, 8, 38, 56
6, 82488, Note_off_c, 8, 38, 0
6, 82560, Note_on_c, 8, 36, 61
6, 82836, Note_off_c, 8, 36, 0
6, 82944, Note_on_c, 8, 29, 62
6, 83276, Note_off_c, 8, 29, 0
6, 83328, Note_on_c, 8, 30, 58
6, 83668, Note_off_c, 8, 30, 0
6, 83712, Note_on_c, 8, 31, 64
6, 84056, Note_off_c, 8, 31, 0
6, 84096, Note_on_c, 8, 33, 60
6, 84380, Note_off_c, 8, 33, 0
6, 84480, Note_on_c, 8, 34, 56
6, 84816, Note_off_c, 8, 34, 0
6, 84864, Note_on_c, 8, 38, 64
6, 85176, Note_off_c, 8, 38, 0
6, 85248, Note_on_c, 8, 41, 58
6, 85596, Note_off_c, 8, 41, 0
6, 85632, Note_on_c, 8, 38, 56
6, 85964, Note_off_c, 8, 38, 0
6, 86016, Note_on_c, 8, 34, 53
6, 86336, Note_off_c, 8, 34, 0
6, 86400, Note_on_c, 8, 36, 63
6, 86740, Note_off_c, 8, 36, 0
6, 86784, Note_on_c, 8, 37, 56
6, 87124, Note_off_c, 8, 37, 0
6, 87168, Note_on_c, 8, 34, 45
6, 87480, Note_off_c, 8, 34, 0
6, 87552, Note_on_c, 8, 29, 58
6, 87860, Note_off_c, 8, 29, 0
6, 87936, Note_on_c, 8, 29, 56
6, 88256, Note_off_c, 8, 29, 0
6, 88320, Note_on_c, 8, 31, 64
6, 88576, Note_off_c, 8, 31, 0
6, 88704, Note_on_c, 8, 31, 64
6, 89028, Note_off_c, 8, 31, 0
6, 89088, Note_on_c, 8, 33, 56
6, 89372, Note_off_c, 8, 33, 0
6, 89472, Note_on_c, 8, 33, 51
6, 89776, Note_off_c, 8, 33, 0
6, 89856, Note_on_c, 8, 26, 67
6, 90200, Note_off_c, 8, 26, 0
6, 90240, Note_on_c, 8, 38, 64
6, 90556, Note_off_c, 8, 38, 0
6, 90624, Note_on_c, 8, 31, 67
6, 90980, Note_off_c, 8, 31, 0
6, 91008, Note_on_c, 8, 35, 62
6, 91356, Note_off_c, 8, 35, 0
6, 91392, Note_on_c, 8, 36, 64
6, 91772, Note_off_c, 8, 36, 0
6, 91776, Note_on_c, 8, 40, 63
6, 92108, Note_off_c, 8, 40, 0
6, 92160, Note_on_c, 8, 29, 53
6, 92492, Note_off_c, 8, 29, 0
6, 92544, Note_on_c, 8, 33, 64
6, 92916, Note_off_c, 8, 33, 0
6, 92928, Note_on_c, 8, 36, 61
6, 93268, Note_off_c, 8, 36, 0
6, 93312, Note_on_c, 8, 33, 53
6, 93576, Note_off_c, 8, 33, 0
6, 93696, Note_on_c, 8, 41, 69
6, 93996, Note_off_c, 8, 41, 0
6, 94080, Note_on_c, 8, 40, 61
6, 94404, Note_off_c, 8, 40, 0
6, 94464, Note_on_c, 8, 38, 62
6, 94756, Note_off_c, 8, 38, 0
6, 94848, Note_on_c, 8, 36, 60
6, 95168, Note_off_c, 8, 36, 0
6, 95232, Note_on_c, 8, 34, 56
6, 95520, Note_off_c, 8, 34, 0
6, 95616, Note_on_c, 8, 33, 53
6, 95904, Note_off_c, 8, 33, 0
6, 96000, Note_on_c, 8, 31, 56
6, 96308, Note_off_c, 8, 31, 0
6, 96384, Note_on_c, 8, 29, 52
6, 96640, Note_off_c, 8, 29, 0
6, 96768, Note_on_c, 8, 34, 53
6, 97072, Note_off_c, 8, 34, 0
6, 97152, Note_on_c, 8, 38, 67
6, 97444, Note_off_c, 8, 38, 0
6, 97536, Note_on_c, 8, 41, 64
6, 97884, Note_off_c, 8, 41, 0
6, 97920, Note_on_c, 8, 38, 58
6, 98228, Note_off_c, 8, 38, 0
6, 98304, Note_on_c, 8, 34, 51
6, 98576, Note_off_c, 8, 34, 0
6, 98688, Note_on_c, 8, 38, 53
6, 98976, Note_off_c, 8, 38, 0
6, 99072, Note_on_c, 8, 41, 62
6, 99428, Note_off_c, 8, 41, 0
6, 99456, Note_on_c, 8, 34, 53
6, 99780, Note_off_c, 8, 34, 0
6, 99840, Note_on_c, 8, 31, 62
6, 100152, Note_off_c, 8, 31, 0
6, 100224, Note_on_c, 8, 35, 64
6, 100504, Note_off_c, 8, 35, 0
6, 100608, Note_on_c, 8, 38, 62
6, 100920, Note_off_c, 8, 38, 0
6, 100992, Note_on_c, 8, 43, 64
6, 101304, Note_off_c, 8, 43, 0
6, 101376, Note_on_c, 8, 41, 61
6, 101672, Note_off_c, 8, 41, 0
6, 101760, Note_on_c, 8, 38, 62
6, 102084, Note_off_c, 8, 38, 0
6, 102144, Note_on_c, 8, 35, 56
6, 102488, Note_off_c, 8, 35, 0
6, 102528, Note_on_c, 8, 31, 64
6, 102860, Note_off_c, 8, 31, 0
6, 102912, Note_on_c, 8, 36, 69
6, 103084, Note_off_c, 8, 36, 0
6, 105600, Note_on_c, 8, 36, 69
6, 105728, Note_on_c, 8, 38, 61
6, 105736, Note_off_c, 8, 36, 0
6, 105840, Note_off_c, 8, 38, 0
6, 105856, Note_on_c, 8, 40, 71
6, 105972, Note_off_c, 8, 40, 0
6, 105984, Note_on_c, 8, 41, 67
6, 106288, Note_off_c, 8, 41, 0
6, 106368, Note_on_c, 8, 40, 62
6, 106708, Note_off_c, 8, 40, 0
6, 106752, Note_on_c, 8, 38, 56
6, 107064, Note_off_c, 8, 38, 0
6, 107136, Note_on_c, 8, 36, 61
6, 107412, Note_off_c, 8, 36, 0
6, 107520, Note_on_c, 8, 29, 62
6, 107852, Note_off_c, 8, 29, 0
6, 107904, Note_on_c, 8, 30, 58
6, 108244, Note_off_c, 8, 30, 0
6, 108288, Note_on_c, 8, 31, 64
6, 108632, Note_off_c, 8, 31, 0
6, 108672, Note_on_c, 8, 33, 60
6, 108956, Note_off_c, 8, 33, 0
6, 109056, Note_on_c, 8, 34, 56
6, 109392, Note_off_c, 8, 34, 0
6, 109440, Note_on_c, 8, 38, 64
6, 109752, Note_off_c, 8, 38, 0
6, 109824, Note_on_c, 8, 41, 58
6, 110172, Note_off_c, 8, 41, 0
6, 110208, Note_on_c, 8, 38, 56
6, 110540, Note_off_c, 8, 38, 0
6, 110592, Note_on_c, 8, 34, 53
6, 110912, Note_off_c, 8, 34, 0
6, 110976, Note_on_c, 8, 36, 63
6, 111316, Note_off_c, 8, 36, 0
6, 111360, Note_on_c, 8, 37, 56
6, 111700, Note_off_c, 8, 37, 0
6, 111744, Note_on_c, 8, 34, 45
6, 112056, Note_off_c, 8, 34, 0
6, 112128, Note_on_c, 8, 29, 58
6, 112436, Note_off_c, 8, 29, 0
6, 112512, Note_on_c, 8, 29, 56
6, 112832, Note_off_c, 8, 29, 0
6, 112896, Note_on_c, 8, 31, 64
6, 113152, Note_off_c, 8, 31, 0
6, 113280, Note_on_c, 8, 31, 64
6, 113604, Note_off_c, 8, 31, 0
6, 113664, Note_on_c, 8, 33, 56
6, 113948, Note_off_c, 8, 33, 0
6, 114048, Note_on_c, 8, 33, 51
6, 114352, Note_off_c, 8, 33, 0
6, 114432, Note_on_c, 8, 26, 67
6, 114776, Note_off_c, 8, 26, 0
6, 114816, Note_on_c, 8, 38, 64
6, 115132, Note_off_c, 8, 38, 0
6, 115200, Note_on_c, 8, 31, 67
6, 115556, Note_off_c, 8, 31, 0
6, 115584, Note_on_c, 8, 35, 62
6, 115932, Note_off_c, 8, 35, 0
6, 115968, Note_on_c, 8, 36, 64
6, 116348, Note_off_c, 8, 36, 0
6, 116352, Note_on_c, 8, 40, 63
6, 116684, Note_off_c, 8, 40, 0
6, 116736, Note_on_c, 8, 29, 53
6, 117068, Note_off_c, 8, 29, 0
6, 117120, Note_on_c, 8, 33, 64
6, 117492, Note_off_c, 8, 33, 0
6, 117504, Note_on_c, 8, 36, 61
6, 117844, Note_off_c, 8, 36, 0
6, 117888, Note_on_c, 8, 33, 53
6, 118152, Note_off_c, 8, 33, 0
6, 130176, Note_on_c, 8, 36, 76
6, 130288, Note_off_c, 8, 36, 0
6, 130304, Note_on_c, 8, 38, 73
6, 130412, Note_off_c, 8, 38, 0
6, 130432, Note_on_c, 8, 40, 87
6, 130540, Note_off_c, 8, 40, 0
6, 130560, Note_on_c, 8, 41, 67
6, 130864, Note_off_c, 8, 41, 0
6, 130944, Note_on_c, 8, 40, 62
6, 131284, Note_off_c, 8, 40, 0
6, 131328, Note_on_c, 8, 38, 56
6, 131640, Note_off_c, 8, 38, 0
6, 131712, Note_on_c, 8, 36, 61
6, 131988, Note_off_c, 8, 36, 0
6, 132096, Note_on_c, 8, 29, 62
6, 132428, Note_off_c, 8, 29, 0
6, 132480, Note_on_c, 8, 30, 58
6, 132820, Note_off_c, 8, 30, 0
6, 132864, Note_on_c, 8, 31, 64
6, 133208, Note_off_c, 8, 31, 0
6, 133248, Note_on_c, 8, 33, 60
6, 133532, Note_off_c, 8, 33, 0
6, 133632, Note_on_c, 8, 34, 56
6, 133968, Note_off_c, 8, 34, 0
6, 134016, Note_on_c, 8, 38, 64
6, 134328, Note_off_c, 8, 38, 0
6, 134400, Note_on_c, 8, 41, 58
6, 134748, Note_off_c, 8, 41, 0
6, 134784, Note_on_c, 8, 38, 56
6, 135116, Note_off_c, 8, 38, 0
6, 135168, Note_on_c, 8, 34, 53
6, 135488, Note_off_c, 8, 34, 0
6, 135552, Note_on_c, 8, 36, 63
6, 135892, Note_off_c, 8, 36, 0
6, 135936, Note_on_c, 8, 37, 56
6, 136276, Note_off_c, 8, 37, 0
6, 136320, Note_on_c, 8, 34, 45
6, 136632, Note_off_c, 8, 34, 0
6, 136704, Note_on_c, 8, 29, 58
6, 137012, Note_off_c, 8, 29, 0
6, 137088, Note_on_c, 8, 29, 56
6, 137408, Note_off_c, 8, 29, 0
6, 137472, Note_on_c, 8, 31, 64
6, 137728, Note_off_c, 8, 31, 0
6, 137856, Note_on_c, 8, 31, 64
6, 138180, Note_off_c, 8, 31, 0
6, 138240, Note_on_c, 8, 33, 56
6, 138524, Note_off_c, 8, 33, 0
6, 138624, Note_on_c, 8, 33, 51
6, 138928, Note_off_c, 8, 33, 0
6, 139008, Note_on_c, 8, 26, 67
6, 139352, Note_off_c, 8, 26, 0
6, 139392, Note_on_c, 8, 38, 64
6, 139708, Note_off_c, 8, 38, 0
6, 139776, Note_on_c, 8, 31, 58
6, 140080, Note_off_c, 8, 31, 0
6, 140160, Note_on_c, 8, 35, 61
6, 140496, Note_off_c, 8, 35, 0
6, 140544, Note_on_c, 8, 38, 63
6, 140928, Note_on_c, 8, 31, 58
6, 140932, Note_off_c, 8, 38, 0
6, 141212, Note_off_c, 8, 31, 0
6, 141312, Note_on_c, 8, 36, 64
6, 141620, Note_off_c, 8, 36, 0
6, 141696, Note_on_c, 8, 34, 56
6, 142024, Note_off_c, 8, 34, 0
6, 142080, Note_on_c, 8, 33, 58
6, 142380, Note_off_c, 8, 33, 0
6, 142464, Note_on_c, 8, 31, 76
6, 142756, Note_off_c, 8, 31, 0
6, 142848, Note_on_c, 8, 31, 58
6, 143152, Note_off_c, 8, 31, 0
6, 143232, Note_on_c, 8, 35, 61
6, 143568, Note_off_c, 8, 35, 0
6, 143616, Note_on_c, 8, 38, 63
6, 144000, Note_on_c, 8, 31, 58
6, 144004, Note_off_c, 8, 38, 0
6, 144284, Note_off_c, 8, 31, 0
6, 144384, Note_on_c, 8, 36, 64
6, 144692, Note_off_c, 8, 36, 0
6, 145920, End_track
7, 0, Start_track
7, 0, Title_t, "piano2"
7, 4864, Note_on_c, 8, 57, 65
7, 4864, Note_on_c, 8, 53, 63
7, 4864, Note_on_c, 8, 60, 66
7, 4912, Note_off_c, 8, 57, 0
7, 4916, Note_off_c, 8, 53, 0
7, 4928, Note_off_c, 8, 60, 0
7, 5248, Note_on_c, 8, 53, 48
7, 5248, Note_on_c, 8, 57, 61
7, 5248, Note_on_c, 8, 60, 56
7, 5292, Note_off_c, 8, 57, 0
7, 5300, Note_off_c, 8, 60, 0
7, 5300, Note_off_c, 8, 53, 0
7, 5632, Note_on_c, 8, 53, 53
7, 5632, Note_on_c, 8, 57, 67
7, 5632, Note_on_c, 8, 60, 63
7, 5684, Note_off_c, 8, 57, 0
7, 5688, Note_off_c, 8, 53, 0
7, 5692, Note_off_c, 8, 60, 0
7, 6016, Note_on_c, 8, 60, 57
7, 6016, Note_on_c, 8, 53, 37
7, 6016, Note_on_c, 8, 57, 52
7, 6052, Note_off_c, 8, 57, 0
7, 6068, Note_off_c, 8, 53, 0
7, 6088, Note_off_c, 8, 60, 0
7, 6400, Note_on_c, 8, 53, 53
7, 6400, Note_on_c, 8, 58, 55
7, 6400, Note_on_c, 8, 62, 52
7, 6452, Note_off_c, 8, 58, 0
7, 6456, Note_off_c, 8, 62, 0
7, 6456, Note_off_c, 8, 53, 0
7, 6784, Note_on_c, 8, 53, 51
7, 6784, Note_on_c, 8, 58, 56
7, 6784, Note_on_c, 8, 62, 58
7, 6836, Note_off_c, 8, 58, 0
7, 6844, Note_off_c, 8, 62, 0
7, 6852, Note_off_c, 8, 53, 0
7, 7168, Note_on_c, 8, 53, 52
7, 7168, Note_on_c, 8, 62, 63
7, 7168, Note_on_c, 8, 58, 61
7, 7224, Note_off_c, 8, 58, 0
7, 7228, Note_off_c, 8, 62, 0
7, 7228, Note_off_c, 8, 53, 0
7, 7552, Note_on_c, 8, 62, 63
7, 7552, Note_on_c, 8, 53, 56
7, 7552, Note_on_c, 8, 58, 67
7, 7596, Note_off_c, 8, 58, 0
7, 7596, Note_off_c, 8, 53, 0
7, 7596, Note_off_c, 8, 62, 0
7, 7936, Note_on_c, 8, 57, 65
7, 7936, Note_on_c, 8, 53, 63
7, 7936, Note_on_c, 8, 60, 66
7, 7984, Note_off_c, 8, 57, 0
7, 7988, Note_off_c, 8, 53, 0
7, 8000, Note_off_c, 8, 60, 0
7, 8320, Note_on_c, 8, 53, 48
7, 8320, Note_on_c, 8, 57, 61
7, 8320, Note_on_c, 8, 60, 56
7, 8364, Note_off_c, 8, 57, 0
7, 8372, Note_off_c, 8, 60, 0
7, 8372, Note_off_c, 8, 53, 0
7, 8704, Note_on_c, 8, 53, 53
7, 8704, Note_on_c, 8, 57, 67
7, 8704, Note_on_c, 8, 60, 63
7, 8756, Note_off_c, 8, 57, 0
7, 8760, Note_off_c, 8, 53, 0
7, 8764, Note_off_c, 8, 60, 0
7, 9088, Note_on_c, 8, 60, 57
7, 9088, Note_on_c, 8, 53, 37
7, 9088, Note_on_c, 8, 57, 52
7, 9124, Note_off_c, 8, 57, 0
7, 9140, Note_off_c, 8, 53, 0
7, 9160, Note_off_c, 8, 60, 0
7, 9472, Note_on_c, 8, 53, 53
7, 9472, Note_on_c, 8, 58, 55
7, 9472, Note_on_c, 8, 62, 52
7, 9524, Note_off_c, 8, 58, 0
7, 9528, Note_off_c, 8, 62, 0
7, 9528, Note_off_c, 8, 53, 0
7, 9856, Note_on_c, 8, 53, 51
7, 9856, Note_on_c, 8, 58, 56
7, 9856, Note_on_c, 8, 62, 58
7, 9908, Note_off_c, 8, 58, 0
7, 9916, Note_off_c, 8, 62, 0
7, 9924, Note_off_c, 8, 53, 0
7, 10240, Note_on_c, 8, 53, 52
7, 10240, Note_on_c, 8, 62, 63
7, 10240, Note_on_c, 8, 58, 61
7, 10296, Note_off_c, 8, 58, 0
7, 10300, Note_off_c, 8, 62, 0
7, 10300, Note_off_c, 8, 53, 0
7, 10624, Note_on_c, 8, 62, 63
7, 10624, Note_on_c, 8, 53, 56
7, 10624, Note_on_c, 8, 58, 67
7, 10668, Note_off_c, 8, 58, 0
7, 10668, Note_off_c, 8, 53, 0
7, 10668, Note_off_c, 8, 62, 0
7, 11008, Note_on_c, 8, 57, 65
7, 11008, Note_on_c, 8, 53, 63
7, 11008, Note_on_c, 8, 60, 66
7, 11056, Note_off_c, 8, 57, 0
7, 11060, Note_off_c, 8, 53, 0
7, 11072, Note_off_c, 8, 60, 0
7, 11392, Note_on_c, 8, 53, 48
7, 11392, Note_on_c, 8, 57, 61
7, 11392, Note_on_c, 8, 60, 56
7, 11436, Note_off_c, 8, 57, 0
7, 11444, Note_off_c, 8, 60, 0
7, 11444, Note_off_c, 8, 53, 0
7, 11776, Note_on_c, 8, 53, 53
7, 11776, Note_on_c, 8, 57, 67
7, 11776, Note_on_c, 8, 60, 63
7, 11828, Note_off_c, 8, 57, 0
7, 11832, Note_off_c, 8, 53, 0
7, 11836, Note_off_c, 8, 60, 0
7, 12160, Note_on_c, 8, 60, 57
7, 12160, Note_on_c, 8, 53, 37
7, 12160, Note_on_c, 8, 57, 52
7, 12196, Note_off_c, 8, 57, 0
7, 12212, Note_off_c, 8, 53, 0
7, 12232, Note_off_c, 8, 60, 0
7, 12544, Note_on_c, 8, 53, 53
7, 12544, Note_on_c, 8, 58, 55
7, 12544, Note_on_c, 8, 62, 52
7, 12596, Note_off_c, 8, 58, 0
7, 12600, Note_off_c, 8, 62, 0
7, 12600, Note_off_c, 8, 53, 0
7, 12928, Note_on_c, 8, 53, 51
7, 12928, Note_on_c, 8, 58, 56
7, 12928, Note_on_c, 8, 62, 58
7, 12980, Note_off_c, 8, 58, 0
7, 12988, Note_off_c, 8, 62, 0
7, 12996, Note_off_c, 8, 53, 0
7, 13312, Note_on_c, 8, 53, 52
7, 13312, Note_on_c, 8, 62, 63
7, 13312, Note_on_c, 8, 58, 61
7, 13368, Note_off_c, 8, 58, 0
7, 13372, Note_off_c, 8, 62, 0
7, 13372, Note_off_c, 8, 53, 0
7, 13696, Note_on_c, 8, 62, 63
7, 13696, Note_on_c, 8, 53, 56
7, 13696, Note_on_c, 8, 58, 67
7, 13740, Note_off_c, 8, 58, 0
7, 13740, Note_off_c, 8, 53, 0
7, 13740, Note_off_c, 8, 62, 0
7, 14080, Note_on_c, 8, 57, 65
7, 14080, Note_on_c, 8, 53, 63
7, 14080, Note_on_c, 8, 60, 66
7, 14128, Note_off_c, 8, 57, 0
7, 14132, Note_off_c, 8, 53, 0
7, 14144, Note_off_c, 8, 60, 0
7, 14464, Note_on_c, 8, 53, 48
7, 14464, Note_on_c, 8, 57, 61
7, 14464, Note_on_c, 8, 60, 56
7, 14508, Note_off_c, 8, 57, 0
7, 14516, Note_off_c, 8, 60, 0
7, 14516, Note_off_c, 8, 53, 0
7, 14848, Note_on_c, 8, 53, 53
7, 14848, Note_on_c, 8, 57, 67
7, 14848, Note_on_c, 8, 60, 63
7, 14900, Note_off_c, 8, 57, 0
7, 14904, Note_off_c, 8, 53, 0
7, 14908, Note_off_c, 8, 60, 0
7, 15232, Note_on_c, 8, 60, 57
7, 15232, Note_on_c, 8, 53, 37
7, 15232, Note_on_c, 8, 57, 52
7, 15268, Note_off_c, 8, 57, 0
7, 15284, Note_off_c, 8, 53, 0
7, 15304, Note_off_c, 8, 60, 0
7, 15616, Note_on_c, 8, 53, 53
7, 15616, Note_on_c, 8, 58, 55
7, 15616, Note_on_c, 8, 62, 52
7, 15668, Note_off_c, 8, 58, 0
7, 15672, Note_off_c, 8, 62, 0
7, 15672, Note_off_c, 8, 53, 0
7, 16000, Note_on_c, 8, 53, 51
7, 16000, Note_on_c, 8, 58, 56
7, 16000, Note_on_c, 8, 62, 58
7, 16052, Note_off_c, 8, 58, 0
7, 16060, Note_off_c, 8, 62, 0
7, 16068, Note_off_c, 8, 53, 0
7, 16384, Note_on_c, 8, 53, 52
7, 16384, Note_on_c, 8, 62, 63
7, 16384, Note_on_c, 8, 58, 61
7, 16440, Note_off_c, 8, 58, 0
7, 16444, Note_off_c, 8, 62, 0
7, 16444, Note_off_c, 8, 53, 0
7, 16768, Note_on_c, 8, 62, 63
7, 16768, Note_on_c, 8, 53, 56
7, 16768, Note_on_c, 8, 58, 67
7, 16812, Note_off_c, 8, 58, 0
7, 16812, Note_off_c, 8, 53, 0
7, 16812, Note_off_c, 8, 62, 0
7, 16896, Note_on_c, 8, 41, 89
7, 16896, Control_c, 8, 64, 127
7, 17104, Control_c, 8, 64, 0
7, 17152, Note_on_c, 8, 65, 92
7, 17152, Note_on_c, 8, 57, 92
7, 17152, Note_on_c, 8, 60, 92
7, 17216, Note_off_c, 8, 60, 0
7, 17224, Note_off_c, 8, 57, 0
7, 17232, Note_off_c, 8, 41, 0
7, 17240, Note_off_c, 8, 65, 0
7, 17536, Note_on_c, 8, 57, 74
7, 17612, Note_off_c, 8, 57, 0
7, 17664, Note_on_c, 8, 57, 60
7, 17664, Note_on_c, 8, 60, 79
7, 17664, Note_on_c, 8, 65, 83
7, 18048, Note_off_c, 8, 57, 0
7, 18048, Note_on_c, 8, 53, 97
7, 18060, Note_off_c, 8, 60, 0
7, 18072, Note_off_c, 8, 65, 0
7, 18176, Note_on_c, 8, 46, 21
7, 18192, Note_off_c, 8, 46, 0
7, 18296, Note_off_c, 8, 53, 0
7, 18304, Note_on_c, 8, 60, 83
7, 18304, Note_on_c, 8, 41, 86
7, 18304, Note_on_c, 8, 63, 86
7, 18304, Note_on_c, 8, 69, 86
7, 18364, Note_off_c, 8, 63, 0
7, 18368, Note_off_c, 8, 60, 0
7, 18384, Note_off_c, 8, 69, 0
7, 18392, Note_off_c, 8, 41, 0
7, 18688, Note_on_c, 8, 69, 89
7, 18688, Note_on_c, 8, 60, 73
7, 18688, Note_on_c, 8, 63, 79
7, 18688, Note_on_c, 8, 41, 83
7, 18744, Note_off_c, 8, 60, 0
7, 18772, Note_off_c, 8, 63, 0
7, 18780, Note_off_c, 8, 69, 0
7, 18816, Note_on_c, 8, 67, 62
7, 18816, Note_on_c, 8, 59, 62
7, 18816, Note_on_c, 8, 57, 66
7, 18816, Note_on_c, 8, 63, 48
7, 18840, Note_off_c, 8, 59, 0
7, 18948, Note_off_c, 8, 57, 0
7, 19020, Note_off_c, 8, 63, 0
7, 19040, Note_off_c, 8, 67, 0
7, 19072, Note_on_c, 8, 65, 89
7, 19072, Note_on_c, 8, 63, 81
7, 19072, Note_on_c, 8, 57, 92
7, 19088, Note_off_c, 8, 41, 0
7, 19200, Note_on_c, 8, 53, 92
7, 19328, Note_off_c, 8, 57, 0
7, 19364, Note_off_c, 8, 63, 0
7, 19380, Note_off_c, 8, 65, 0
7, 19456, Note_on_c, 8, 63, 83
7, 19456, Note_on_c, 8, 57, 89
7, 19456, Note_on_c, 8, 67, 97
7, 19548, Note_off_c, 8, 57, 0
7, 19556, Note_off_c, 8, 63, 0
7, 19584, Note_on_c, 8, 65, 83
7, 19584, Note_on_c, 8, 57, 76
7, 19592, Note_off_c, 8, 67, 0
7, 19608, Note_off_c, 8, 53, 0
7, 19712, Note_on_c, 8, 67, 32
7, 19732, Note_off_c, 8, 67, 0
7, 19772, Note_off_c, 8, 57, 0
7, 19784, Note_off_c, 8, 65, 0
7, 19840, Note_on_c, 8, 53, 103
7, 19900, Note_off_c, 8, 53, 0
7, 19968, Note_on_c, 8, 46, 97
7, 20224, Note_on_c, 8, 62, 81
7, 20224, Note_on_c, 8, 58, 89
7, 20224, Note_on_c, 8, 65, 83
7, 20292, Note_off_c, 8, 58, 0
7, 20292, Note_off_c, 8, 62, 0
7, 20320, Note_off_c, 8, 65, 0
7, 20320, Note_off_c, 8, 46, 0
7, 20608, Note_on_c, 8, 46, 86
7, 20736, Note_on_c, 8, 65, 79
7, 20736, Note_on_c, 8, 58, 78
7, 20736, Note_on_c, 8, 62, 78
7, 20824, Control_c, 8, 64, 127
7, 20916, Note_off_c, 8, 58, 0
7, 20920, Note_off_c, 8, 62, 0
7, 20940, Note_off_c, 8, 65, 0
7, 20960, Note_off_c, 8, 46, 0
7, 21176, Control_c, 8, 64, 0
7, 21376, Note_on_c, 8, 46, 71
7, 21376, Note_on_c, 8, 70, 83
7, 21376, Note_on_c, 8, 65, 89
7, 21376, Note_on_c, 8, 61, 86
7, 21440, Note_off_c, 8, 65, 0
7, 21448, Note_off_c, 8, 61, 0
7, 21468, Note_off_c, 8, 70, 0
7, 21472, Note_off_c, 8, 46, 0
7, 21504, Note_on_c, 8, 53, 72
7, 21568, Note_off_c, 8, 53, 0
7, 21760, Note_on_c, 8, 46, 79
7, 21760, Note_on_c, 8, 53, 76
7, 21760, Note_on_c, 8, 65, 83
7, 21760, Note_on_c, 8, 61, 94
7, 21760, Note_on_c, 8, 70, 83
7, 21816, Note_off_c, 8, 61, 0
7, 21816, Note_off_c, 8, 65, 0
7, 21820, Note_off_c, 8, 53, 0
7, 21844, Note_off_c, 8, 46, 0
7, 21852, Note_off_c, 8, 70, 0
7, 22144, Note_on_c, 8, 65, 70
7, 22192, Note_off_c, 8, 65, 0
7, 22272, Note_on_c, 8, 58, 89
7, 22272, Note_on_c, 8, 73, 86
7, 22272, Note_on_c, 8, 70, 92
7, 22272, Note_on_c, 8, 46, 66
7, 22272, Note_on_c, 8, 65, 86
7, 22444, Note_off_c, 8, 65, 0
7, 22452, Note_off_c, 8, 70, 0
7, 22460, Note_off_c, 8, 73, 0
7, 22528, Note_on_c, 8, 65, 71
7, 22528, Note_on_c, 8, 72, 77
7, 22596, Note_off_c, 8, 65, 0
7, 22628, Note_off_c, 8, 72, 0
7, 22656, Note_on_c, 8, 65, 74
7, 22656, Note_on_c, 8, 70, 97
7, 22696, Note_off_c, 8, 46, 0
7, 22788, Note_off_c, 8, 58, 0
7, 22912, Note_on_c, 8, 46, 77
7, 22940, Note_off_c, 8, 70, 0
7, 22940, Note_off_c, 8, 65, 0
7, 23040, Note_on_c, 8, 53, 77
7, 23044, Note_off_c, 8, 46, 0
7, 23296, Note_on_c, 8, 65, 78
7, 23296, Note_on_c, 8, 69, 89
7, 23368, Note_off_c, 8, 65, 0
7, 23384, Note_off_c, 8, 69, 0
7, 23424, Note_on_c, 8, 72, 89
7, 23424, Note_on_c, 8, 65, 73
7, 23444, Note_off_c, 8, 53, 0
7, 23488, Note_off_c, 8, 65, 0
7, 23552, Note_off_c, 8, 72, 0
7, 23680, Note_on_c, 8, 53, 74
7, 23680, Note_on_c, 8, 69, 73
7, 23732, Note_off_c, 8, 69, 0
7, 23780, Note_off_c, 8, 53, 0
7, 23808, Note_on_c, 8, 55, 79
7, 23808, Note_on_c, 8, 67, 79
7, 23808, Note_on_c, 8, 70, 83
7, 23808, Note_on_c, 8, 62, 76
7, 24136, Control_c, 8, 64, 127
7, 24264, Note_off_c, 8, 62, 0
7, 24272, Note_off_c, 8, 70, 0
7, 24272, Note_off_c, 8, 67, 0
7, 24296, Note_off_c, 8, 55, 0
7, 24432, Control_c, 8, 64, 0
7, 24448, Note_on_c, 8, 55, 73
7, 24448, Note_on_c, 8, 62, 72
7, 24448, Note_on_c, 8, 70, 83
7, 24448, Note_on_c, 8, 67, 86
7, 24488, Note_off_c, 8, 62, 0
7, 24508, Note_off_c, 8, 67, 0
7, 24520, Note_off_c, 8, 70, 0
7, 24548, Note_off_c, 8, 55, 0
7, 24576, Note_on_c, 8, 57, 92
7, 24576, Note_on_c, 8, 64, 76
7, 24576, Note_on_c, 8, 72, 94
7, 24576, Note_on_c, 8, 67, 81
7, 24732, Note_off_c, 8, 72, 0
7, 24832, Note_on_c, 8, 74, 77
7, 24844, Note_off_c, 8, 67, 0
7, 24884, Note_off_c, 8, 74, 0
7, 24892, Note_off_c, 8, 57, 0
7, 24960, Note_on_c, 8, 57, 74
7, 24960, Note_on_c, 8, 76, 83
7, 24992, Note_off_c, 8, 64, 0
7, 25056, Note_off_c, 8, 76, 0
7, 25056, Note_off_c, 8, 57, 0
7, 25088, Note_on_c, 8, 68, 21
7, 25096, Note_off_c, 8, 68, 0
7, 25216, Note_on_c, 8, 74, 86
7, 25216, Note_on_c, 8, 60, 79
7, 25216, Note_on_c, 8, 66, 86
7, 25216, Note_on_c, 8, 69, 86
7, 25216, Note_on_c, 8, 50, 76
7, 25280, Note_off_c, 8, 69, 0
7, 25296, Note_off_c, 8, 60, 0
7, 25296, Note_off_c, 8, 74, 0
7, 25300, Note_off_c, 8, 66, 0
7, 25316, Note_off_c, 8, 50, 0
7, 25600, Note_on_c, 8, 62, 76
7, 25600, Note_on_c, 8, 60, 79
7, 25600, Note_on_c, 8, 69, 92
7, 25600, Note_on_c, 8, 72, 86
7, 25984, Note_on_c, 8, 54, 47
7, 26012, Note_off_c, 8, 69, 0
7, 26012, Note_off_c, 8, 60, 0
7, 26020, Note_off_c, 8, 72, 0
7, 26080, Note_off_c, 8, 62, 0
7, 26084, Note_off_c, 8, 54, 0
7, 26112, Note_on_c, 8, 55, 74
7, 26112, Note_on_c, 8, 71, 83
7, 26112, Note_on_c, 8, 65, 86
7, 26112, Note_on_c, 8, 62, 77
7, 26288, Note_off_c, 8, 71, 0
7, 26292, Note_off_c, 8, 65, 0
7, 26300, Note_off_c, 8, 62, 0
7, 26368, Note_on_c, 8, 65, 89
7, 26368, Note_on_c, 8, 71, 89
7, 26492, Note_off_c, 8, 71, 0
7, 26496, Note_on_c, 8, 62, 68
7, 26524, Note_off_c, 8, 65, 0
7, 26544, Note_off_c, 8, 55, 0
7, 26612, Note_off_c, 8, 62, 0
7, 26752, Note_on_c, 8, 55, 92
7, 26880, Note_on_c, 8, 43, 83
7, 26880, Note_on_c, 8, 59, 73
7, 26940, Note_off_c, 8, 55, 0
7, 27052, Note_off_c, 8, 59, 0
7, 27136, Note_on_c, 8, 65, 81
7, 27136, Note_on_c, 8, 62, 86
7, 27136, Note_on_c, 8, 67, 86
7, 27136, Note_on_c, 8, 59, 79
7, 27264, Note_on_c, 8, 55, 74
7, 27348, Note_off_c, 8, 43, 0
7, 27408, Note_off_c, 8, 55, 0
7, 27520, Note_on_c, 8, 47, 77
7, 27556, Note_off_c, 8, 59, 0
7, 27580, Note_off_c, 8, 67, 0
7, 27592, Note_off_c, 8, 65, 0
7, 27612, Note_off_c, 8, 62, 0
7, 27648, Note_on_c, 8, 48, 97
7, 27656, Note_off_c, 8, 47, 0
7, 27772, Note_off_c, 8, 48, 0
7, 27776, Note_on_c, 8, 64, 89
7, 27776, Note_on_c, 8, 67, 79
7, 27776, Note_on_c, 8, 58, 81
7, 27868, Note_off_c, 8, 58, 0
7, 27876, Note_off_c, 8, 67, 0
7, 27896, Note_off_c, 8, 64, 0
7, 27904, Note_on_c, 8, 48, 94
7, 28032, Note_on_c, 8, 64, 81
7, 28032, Note_on_c, 8, 58, 92
7, 28032, Note_on_c, 8, 67, 83
7, 28160, Note_off_c, 8, 48, 0
7, 28200, Note_off_c, 8, 58, 0
7, 28288, Note_off_c, 8, 67, 0
7, 28288, Note_on_c, 8, 48, 106
7, 28316, Note_off_c, 8, 64, 0
7, 28352, Note_off_c, 8, 48, 0
7, 28416, Note_on_c, 8, 48, 83
7, 28544, Note_on_c, 8, 70, 92
7, 28544, Note_on_c, 8, 64, 71
7, 28544, Note_on_c, 8, 72, 89
7, 28552, Note_off_c, 8, 48, 0
7, 28644, Note_off_c, 8, 64, 0
7, 28672, Note_on_c, 8, 48, 86
7, 28684, Note_off_c, 8, 72, 0
7, 28684, Note_off_c, 8, 70, 0
7, 28800, Note_on_c, 8, 64, 89
7, 28800, Note_on_c, 8, 72, 97
7, 28800, Note_on_c, 8, 70, 94
7, 28872, Note_off_c, 8, 48, 0
7, 29052, Note_off_c, 8, 72, 0
7, 29056, Note_off_c, 8, 70, 0
7, 29056, Note_on_c, 8, 48, 92
7, 29080, Note_off_c, 8, 64, 0
7, 29172, Note_off_c, 8, 48, 0
7, 29184, Note_on_c, 8, 41, 79
7, 29440, Note_on_c, 8, 60, 76
7, 29440, Note_on_c, 8, 69, 83
7, 29440, Note_on_c, 8, 65, 83
7, 29480, Note_off_c, 8, 65, 0
7, 29500, Note_off_c, 8, 41, 0
7, 29508, Note_off_c, 8, 60, 0
7, 29516, Note_off_c, 8, 69, 0
7, 29824, Note_on_c, 8, 53, 86
7, 29952, Note_on_c, 8, 57, 86
7, 29952, Note_on_c, 8, 65, 89
7, 29952, Note_on_c, 8, 60, 81
7, 30336, Note_on_c, 8, 48, 86
7, 30348, Note_off_c, 8, 57, 0
7, 30352, Note_off_c, 8, 60, 0
7, 30356, Note_off_c, 8, 53, 0
7, 30376, Note_off_c, 8, 65, 0
7, 30556, Note_off_c, 8, 48, 0
7, 30592, Note_on_c, 8, 41, 81
7, 30592, Note_on_c, 8, 69, 83
7, 30592, Note_on_c, 8, 60, 83
7, 30592, Note_on_c, 8, 63, 83
7, 30672, Note_off_c, 8, 63, 0
7, 30672, Note_off_c, 8, 60, 0
7, 30684, Note_off_c, 8, 69, 0
7, 30688, Note_off_c, 8, 41, 0
7, 30976, Note_on_c, 8, 41, 79
7, 30976, Note_on_c, 8, 69, 92
7, 30976, Note_on_c, 8, 63, 79
7, 30976, Note_on_c, 8, 60, 74
7, 31060, Note_off_c, 8, 60, 0
7, 31068, Note_off_c, 8, 69, 0
7, 31104, Note_on_c, 8, 67, 70
7, 31252, Note_off_c, 8, 63, 0
7, 31272, Note_off_c, 8, 67, 0
7, 31360, Note_on_c, 8, 63, 77
7, 31360, Note_on_c, 8, 65, 86
7, 31360, Note_on_c, 8, 57, 79
7, 31388, Note_off_c, 8, 41, 0
7, 31488, Note_on_c, 8, 53, 83
7, 31624, Note_off_c, 8, 57, 0
7, 31660, Note_off_c, 8, 63, 0
7, 31668, Note_off_c, 8, 65, 0
7, 31744, Note_on_c, 8, 63, 81
7, 31744, Note_on_c, 8, 67, 81
7, 31744, Note_on_c, 8, 57, 81
7, 31816, Note_off_c, 8, 57, 0
7, 31840, Note_off_c, 8, 63, 0
7, 31860, Note_off_c, 8, 67, 0
7, 31872, Note_on_c, 8, 57, 76
7, 31872, Note_on_c, 8, 63, 43
7, 31872, Note_on_c, 8, 65, 77
7, 31900, Note_off_c, 8, 63, 0
7, 32116, Note_off_c, 8, 53, 0
7, 32128, Note_on_c, 8, 41, 83
7, 32144, Note_off_c, 8, 57, 0
7, 32216, Note_off_c, 8, 65, 0
7, 32256, Note_on_c, 8, 46, 89
7, 32276, Note_off_c, 8, 41, 0
7, 32512, Note_on_c, 8, 62, 78
7, 32512, Note_on_c, 8, 65, 77
7, 32512, Note_on_c, 8, 58, 77
7, 32572, Note_off_c, 8, 46, 0
7, 32576, Note_off_c, 8, 58, 0
7, 32584, Note_off_c, 8, 62, 0
7, 32600, Note_off_c, 8, 65, 0
7, 32896, Note_on_c, 8, 46, 77
7, 33024, Note_on_c, 8, 62, 78
7, 33024, Note_on_c, 8, 58, 86
7, 33024, Note_on_c, 8, 65, 76
7, 33152, Control_c, 8, 64, 127
7, 33168, Note_off_c, 8, 58, 0
7, 33200, Note_off_c, 8, 62, 0
7, 33220, Note_off_c, 8, 65, 0
7, 33292, Note_off_c, 8, 46, 0
7, 33572, Control_c, 8, 64, 0
7, 33664, Note_on_c, 8, 46, 86
7, 33664, Note_on_c, 8, 65, 81
7, 33664, Note_on_c, 8, 70, 81
7, 33664, Note_on_c, 8, 73, 83
7, 33756, Note_off_c, 8, 70, 0
7, 33768, Note_off_c, 8, 65, 0
7, 33788, Note_off_c, 8, 46, 0
7, 33796, Note_off_c, 8, 73, 0
7, 34048, Note_on_c, 8, 65, 92
7, 34048, Note_on_c, 8, 69, 73
7, 34048, Note_on_c, 8, 70, 83
7, 34048, Note_on_c, 8, 73, 81
7, 34048, Note_on_c, 8, 46, 83
7, 34088, Note_off_c, 8, 69, 0
7, 34124, Note_off_c, 8, 70, 0
7, 34140, Note_off_c, 8, 73, 0
7, 34152, Note_off_c, 8, 65, 0
7, 34176, Note_on_c, 8, 65, 61
7, 34176, Note_on_c, 8, 72, 78
7, 34316, Note_off_c, 8, 65, 0
7, 34380, Note_off_c, 8, 72, 0
7, 34432, Note_on_c, 8, 65, 76
7, 34432, Note_on_c, 8, 70, 94
7, 34544, Note_off_c, 8, 46, 0
7, 34560, Note_on_c, 8, 58, 77
7, 34744, Note_off_c, 8, 65, 0
7, 34804, Note_off_c, 8, 70, 0
7, 34816, Note_on_c, 8, 72, 73
7, 34816, Note_on_c, 8, 70, 35
7, 34816, Note_on_c, 8, 65, 61
7, 34848, Note_off_c, 8, 70, 0
7, 34884, Note_off_c, 8, 65, 0
7, 34892, Note_off_c, 8, 72, 0
7, 34944, Note_on_c, 8, 65, 68
7, 34944, Note_on_c, 8, 70, 61
7, 34944, Note_on_c, 8, 73, 79
7, 34968, Note_off_c, 8, 70, 0
7, 35136, Note_off_c, 8, 73, 0
7, 35148, Note_off_c, 8, 65, 0
7, 35168, Note_off_c, 8, 58, 0
7, 35200, Note_on_c, 8, 69, 86
7, 35200, Note_on_c, 8, 72, 97
7, 35200, Note_on_c, 8, 46, 71
7, 35200, Note_on_c, 8, 65, 78
7, 35260, Note_off_c, 8, 46, 0
7, 35328, Note_on_c, 8, 41, 83
7, 35448, Note_off_c, 8, 65, 0
7, 35452, Note_off_c, 8, 72, 0
7, 35452, Note_off_c, 8, 69, 0
7, 35584, Note_on_c, 8, 65, 72
7, 35584, Note_on_c, 8, 69, 94
7, 35584, Note_on_c, 8, 72, 94
7, 35624, Note_off_c, 8, 65, 0
7, 35716, Note_off_c, 8, 69, 0
7, 35740, Note_off_c, 8, 72, 0
7, 35840, Note_on_c, 8, 53, 21
7, 35844, Note_off_c, 8, 53, 0
7, 35912, Note_off_c, 8, 41, 0
7, 35968, Note_on_c, 8, 62, 74
7, 35968, Note_on_c, 8, 53, 73
7, 36040, Note_off_c, 8, 53, 0
7, 36052, Note_off_c, 8, 62, 0
7, 36096, Note_on_c, 8, 43, 77
7, 36096, Note_on_c, 8, 67, 76
7, 36096, Note_on_c, 8, 62, 74
7, 36096, Note_on_c, 8, 70, 86
7, 36268, Note_off_c, 8, 62, 0
7, 36280, Note_off_c, 8, 67, 0
7, 36296, Note_off_c, 8, 70, 0
7, 36352, Note_on_c, 8, 67, 78
7, 36352, Note_on_c, 8, 70, 74
7, 36352, Note_on_c, 8, 62, 86
7, 36424, Note_off_c, 8, 62, 0
7, 36440, Note_off_c, 8, 67, 0
7, 36472, Note_off_c, 8, 70, 0
7, 36480, Note_on_c, 8, 55, 63
7, 36540, Note_off_c, 8, 55, 0
7, 36724, Note_off_c, 8, 43, 0
7, 36736, Note_on_c, 8, 55, 68
7, 36736, Note_on_c, 8, 64, 72
7, 36808, Note_off_c, 8, 64, 0
7, 36816, Note_off_c, 8, 55, 0
7, 36864, Note_on_c, 8, 67, 72
7, 36864, Note_on_c, 8, 45, 56
7, 36864, Note_on_c, 8, 72, 53
7, 36864, Note_on_c, 8, 64, 58
7, 37012, Note_off_c, 8, 72, 0
7, 37068, Note_off_c, 8, 67, 0
7, 37120, Note_on_c, 8, 74, 79
7, 37176, Note_off_c, 8, 74, 0
7, 37228, Note_off_c, 8, 45, 0
7, 37248, Note_on_c, 8, 57, 79
7, 37248, Note_on_c, 8, 76, 86
7, 37328, Note_off_c, 8, 64, 0
7, 37352, Note_off_c, 8, 76, 0
7, 37392, Note_off_c, 8, 57, 0
7, 37504, Note_on_c, 8, 69, 83
7, 37504, Note_on_c, 8, 74, 83
7, 37504, Note_on_c, 8, 66, 86
7, 37504, Note_on_c, 8, 50, 70
7, 37504, Note_on_c, 8, 57, 65
7, 37808, Note_off_c, 8, 66, 0
7, 37816, Note_off_c, 8, 69, 0
7, 37824, Note_off_c, 8, 74, 0
7, 37888, Note_on_c, 8, 72, 81
7, 37888, Note_on_c, 8, 66, 83
7, 37888, Note_on_c, 8, 69, 79
7, 37916, Note_off_c, 8, 57, 0
7, 37984, Note_off_c, 8, 50, 0
7, 38016, Note_on_c, 8, 62, 71
7, 38204, Note_off_c, 8, 69, 0
7, 38232, Note_off_c, 8, 72, 0
7, 38236, Note_off_c, 8, 66, 0
7, 38272, Note_on_c, 8, 54, 71
7, 38336, Note_off_c, 8, 62, 0
7, 38400, Note_off_c, 8, 54, 0
7, 38400, Note_on_c, 8, 65, 81
7, 38400, Note_on_c, 8, 71, 94
7, 38400, Note_on_c, 8, 55, 94
7, 38400, Note_on_c, 8, 62, 76
7, 38648, Note_off_c, 8, 55, 0
7, 38668, Note_off_c, 8, 62, 0
7, 38676, Note_off_c, 8, 71, 0
7, 38684, Note_off_c, 8, 65, 0
7, 38784, Note_on_c, 8, 65, 86
7, 38784, Note_on_c, 8, 55, 74
7, 38784, Note_on_c, 8, 71, 83
7, 38784, Note_on_c, 8, 62, 73
7, 39076, Note_off_c, 8, 71, 0
7, 39080, Note_off_c, 8, 62, 0
7, 39092, Note_off_c, 8, 65, 0
7, 39096, Note_off_c, 8, 55, 0
7, 39168, Note_on_c, 8, 48, 73
7, 39168, Note_on_c, 8, 70, 79
7, 39168, Note_on_c, 8, 60, 63
7, 39168, Note_on_c, 8, 64, 73
7, 39168, Note_on_c, 8, 58, 73
7, 39444, Note_off_c, 8, 58, 0
7, 39448, Note_off_c, 8, 48, 0
7, 39456, Note_off_c, 8, 60, 0
7, 39476, Note_off_c, 8, 64, 0
7, 39476, Note_off_c, 8, 70, 0
7, 39552, Note_on_c, 8, 70, 79
7, 39552, Note_on_c, 8, 48, 51
7, 39552, Note_on_c, 8, 64, 72
7, 39552, Note_on_c, 8, 60, 68
7, 39552, Note_on_c, 8, 58, 76
7, 39788, Note_off_c, 8, 48, 0
7, 39796, Note_off_c, 8, 58, 0
7, 39820, Note_off_c, 8, 60, 0
7, 39840, Note_off_c, 8, 64, 0
7, 39844, Note_off_c, 8, 70, 0
7, 39936, Note_on_c, 8, 65, 81
7, 39936, Note_on_c, 8, 60, 81
7, 39936, Note_on_c, 8, 69, 89
7, 39936, Note_on_c, 8, 53, 72
7, 41004, Note_off_c, 8, 60, 0
7, 41008, Note_off_c, 8, 53, 0
7, 41016, Note_off_c, 8, 69, 0
7, 41016, Note_off_c, 8, 65, 0
7, 41472, Note_on_c, 8, 63, 71
7, 41472, Note_on_c, 8, 69, 92
7, 41472, Note_on_c, 8, 53, 81
7, 41472, Note_on_c, 8, 60, 76
7, 41632, Note_off_c, 8, 60, 0
7, 41632, Note_off_c, 8, 69, 0
7, 41636, Note_off_c, 8, 53, 0
7, 41652, Note_off_c, 8, 63, 0
7, 41728, Note_on_c, 8, 60, 66
7, 41728, Note_on_c, 8, 69, 92
7, 41728, Note_on_c, 8, 63, 73
7, 41812, Note_off_c, 8, 60, 0
7, 41820, Note_off_c, 8, 63, 0
7, 41820, Note_off_c, 8, 69, 0
7, 41856, Note_on_c, 8, 53, 83
7, 41956, Note_off_c, 8, 53, 0
7, 42112, Note_on_c, 8, 60, 63
7, 42192, Note_off_c, 8, 60, 0
7, 42240, Note_on_c, 8, 63, 78
7, 42240, Note_on_c, 8, 60, 73
7, 42240, Note_on_c, 8, 69, 89
7, 42420, Note_off_c, 8, 60, 0
7, 42440, Note_off_c, 8, 69, 0
7, 42440, Note_off_c, 8, 63, 0
7, 42496, Note_on_c, 8, 63, 79
7, 42496, Note_on_c, 8, 60, 71
7, 42496, Note_on_c, 8, 69, 86
7, 42564, Note_off_c, 8, 60, 0
7, 42572, Note_off_c, 8, 63, 0
7, 42588, Note_off_c, 8, 69, 0
7, 42624, Note_on_c, 8, 53, 74
7, 42676, Note_off_c, 8, 53, 0
7, 42880, Note_on_c, 8, 69, 83
7, 42880, Note_on_c, 8, 53, 66
7, 42880, Note_on_c, 8, 63, 78
7, 42880, Note_on_c, 8, 60, 83
7, 42924, Note_off_c, 8, 53, 0
7, 42952, Note_off_c, 8, 60, 0
7, 42968, Note_off_c, 8, 63, 0
7, 42996, Note_off_c, 8, 69, 0
7, 43008, Note_on_c, 8, 53, 63
7, 43048, Note_off_c, 8, 53, 0
7, 43264, Note_on_c, 8, 60, 72
7, 43264, Note_on_c, 8, 63, 68
7, 43264, Note_on_c, 8, 69, 89
7, 43344, Note_off_c, 8, 60, 0
7, 43356, Note_off_c, 8, 63, 0
7, 43372, Note_off_c, 8, 69, 0
7, 43392, Note_on_c, 8, 53, 77
7, 43456, Note_off_c, 8, 53, 0
7, 43648, Note_on_c, 8, 60, 62
7, 43708, Note_off_c, 8, 60, 0
7, 43776, Note_on_c, 8, 69, 89
7, 43776, Note_on_c, 8, 53, 81
7, 43776, Note_on_c, 8, 63, 77
7, 43776, Note_on_c, 8, 60, 72
7, 43948, Note_off_c, 8, 53, 0
7, 43964, Note_off_c, 8, 60, 0
7, 43980, Note_off_c, 8, 69, 0
7, 43988, Note_off_c, 8, 63, 0
7, 44032, Note_on_c, 8, 69, 89
7, 44032, Note_on_c, 8, 63, 76
7, 44032, Note_on_c, 8, 60, 76
7, 44120, Note_off_c, 8, 60, 0
7, 44132, Note_off_c, 8, 63, 0
7, 44160, Note_off_c, 8, 69, 0
7, 44160, Note_on_c, 8, 53, 79
7, 44416, Note_on_c, 8, 60, 61
7, 44444, Note_off_c, 8, 53, 0
7, 44484, Note_off_c, 8, 60, 0
7, 44544, Note_on_c, 8, 46, 73
7, 44800, Note_on_c, 8, 70, 79
7, 44800, Note_on_c, 8, 58, 79
7, 44800, Note_on_c, 8, 62, 77
7, 44800, Note_on_c, 8, 65, 73
7, 44816, Note_off_c, 8, 46, 0
7, 44876, Note_off_c, 8, 62, 0
7, 44876, Note_off_c, 8, 58, 0
7, 44896, Note_off_c, 8, 65, 0
7, 44924, Note_off_c, 8, 70, 0
7, 44928, Note_on_c, 8, 53, 42
7, 44956, Note_off_c, 8, 53, 0
7, 45184, Note_on_c, 8, 58, 61
7, 45248, Note_off_c, 8, 58, 0
7, 45312, Note_on_c, 8, 70, 81
7, 45312, Note_on_c, 8, 58, 77
7, 45312, Note_on_c, 8, 62, 77
7, 45312, Note_on_c, 8, 65, 78
7, 45496, Note_off_c, 8, 58, 0
7, 45516, Note_off_c, 8, 62, 0
7, 45524, Note_off_c, 8, 65, 0
7, 45536, Note_off_c, 8, 70, 0
7, 45568, Note_on_c, 8, 62, 77
7, 45568, Note_on_c, 8, 58, 86
7, 45568, Note_on_c, 8, 70, 72
7, 45568, Note_on_c, 8, 65, 77
7, 45620, Note_off_c, 8, 58, 0
7, 45636, Note_off_c, 8, 65, 0
7, 45636, Note_off_c, 8, 62, 0
7, 45668, Note_off_c, 8, 70, 0
7, 45952, Note_on_c, 8, 53, 68
7, 45952, Note_on_c, 8, 65, 42
7, 45996, Note_off_c, 8, 65, 0
7, 46012, Note_off_c, 8, 53, 0
7, 46080, Note_on_c, 8, 74, 94
7, 46080, Note_on_c, 8, 65, 79
7, 46080, Note_on_c, 8, 67, 78
7, 46080, Note_on_c, 8, 46, 70
7, 46080, Note_on_c, 8, 70, 81
7, 46220, Note_off_c, 8, 65, 0
7, 46232, Note_off_c, 8, 67, 0
7, 46244, Note_off_c, 8, 46, 0
7, 46252, Note_off_c, 8, 74, 0
7, 46260, Note_off_c, 8, 70, 0
7, 46336, Note_on_c, 8, 67, 55
7, 46336, Note_on_c, 8, 65, 42
7, 46336, Note_on_c, 8, 73, 63
7, 46336, Note_on_c, 8, 70, 60
7, 46380, Note_off_c, 8, 65, 0
7, 46380, Note_off_c, 8, 67, 0
7, 46396, Note_off_c, 8, 70, 0
7, 46400, Note_off_c, 8, 73, 0
7, 46464, Note_on_c, 8, 70, 76
7, 46464, Note_on_c, 8, 58, 50
7, 46464, Note_on_c, 8, 65, 72
7, 46464, Note_on_c, 8, 67, 77
7, 46464, Note_on_c, 8, 74, 89
7, 46492, Note_off_c, 8, 58, 0
7, 46544, Note_off_c, 8, 67, 0
7, 46568, Note_off_c, 8, 65, 0
7, 46584, Note_off_c, 8, 70, 0
7, 46588, Note_off_c, 8, 74, 0
7, 46720, Note_on_c, 8, 58, 83
7, 46816, Note_off_c, 8, 58, 0
7, 46848, Note_on_c, 8, 77, 89
7, 46848, Note_on_c, 8, 70, 86
7, 46848, Note_on_c, 8, 65, 77
7, 46976, Note_off_c, 8, 70, 0
7, 46976, Note_on_c, 8, 46, 72
7, 46992, Note_off_c, 8, 77, 0
7, 47036, Note_off_c, 8, 65, 0
7, 47092, Note_off_c, 8, 46, 0
7, 47232, Note_on_c, 8, 74, 89
7, 47232, Note_on_c, 8, 70, 83
7, 47232, Note_on_c, 8, 46, 68
7, 47232, Note_on_c, 8, 65, 77
7, 47356, Note_off_c, 8, 46, 0
7, 47412, Note_off_c, 8, 70, 0
7, 47412, Note_off_c, 8, 74, 0
7, 47420, Note_off_c, 8, 65, 0
7, 47616, Note_on_c, 8, 43, 68
7, 47872, Note_on_c, 8, 71, 83
7, 47872, Note_on_c, 8, 74, 86
7, 47872, Note_on_c, 8, 65, 74
7, 47948, Note_off_c, 8, 65, 0
7, 47948, Note_off_c, 8, 43, 0
7, 47956, Note_off_c, 8, 71, 0
7, 47984, Note_off_c, 8, 74, 0
7, 48000, Note_on_c, 8, 55, 55
7, 48064, Note_off_c, 8, 55, 0
7, 48256, Note_on_c, 8, 65, 61
7, 48324, Note_off_c, 8, 65, 0
7, 48384, Note_on_c, 8, 65, 78
7, 48384, Note_on_c, 8, 55, 73
7, 48384, Note_on_c, 8, 71, 83
7, 48384, Note_on_c, 8, 74, 81
7, 48548, Note_off_c, 8, 55, 0
7, 48560, Note_off_c, 8, 65, 0
7, 48584, Note_off_c, 8, 74, 0
7, 48584, Note_off_c, 8, 71, 0
7, 48640, Note_on_c, 8, 65, 78
7, 48640, Note_on_c, 8, 71, 89
7, 48640, Note_on_c, 8, 74, 81
7, 48692, Note_off_c, 8, 65, 0
7, 48716, Note_off_c, 8, 71, 0
7, 48736, Note_off_c, 8, 74, 0
7, 48768, Note_on_c, 8, 55, 73
7, 48812, Note_off_c, 8, 55, 0
7, 49024, Note_on_c, 8, 55, 71
7, 49024, Note_on_c, 8, 67, 65
7, 49076, Note_off_c, 8, 67, 0
7, 49084, Note_off_c, 8, 55, 0
7, 49152, Note_on_c, 8, 43, 70
7, 49152, Note_on_c, 8, 77, 97
7, 49152, Note_on_c, 8, 67, 65
7, 49152, Note_on_c, 8, 71, 83
7, 49284, Note_off_c, 8, 43, 0
7, 49292, Note_off_c, 8, 71, 0
7, 49300, Note_off_c, 8, 67, 0
7, 49316, Note_off_c, 8, 77, 0
7, 49408, Note_on_c, 8, 77, 65
7, 49408, Note_on_c, 8, 67, 65
7, 49408, Note_on_c, 8, 71, 61
7, 49452, Note_off_c, 8, 71, 0
7, 49460, Note_off_c, 8, 77, 0
7, 49480, Note_off_c, 8, 67, 0
7, 49536, Note_on_c, 8, 74, 76
7, 49536, Note_on_c, 8, 71, 81
7, 49536, Note_on_c, 8, 65, 70
7, 49648, Note_off_c, 8, 65, 0
7, 49700, Note_off_c, 8, 71, 0
7, 49704, Note_off_c, 8, 74, 0
7, 49792, Note_on_c, 8, 74, 71
7, 49792, Note_on_c, 8, 71, 62
7, 49792, Note_on_c, 8, 65, 62
7, 49836, Note_off_c, 8, 71, 0
7, 49848, Note_off_c, 8, 65, 0
7, 49848, Note_off_c, 8, 74, 0
7, 49920, Note_on_c, 8, 43, 72
7, 49920, Note_on_c, 8, 71, 83
7, 49920, Note_on_c, 8, 65, 77
7, 49920, Note_on_c, 8, 62, 67
7, 50068, Note_off_c, 8, 62, 0
7, 50072, Note_off_c, 8, 65, 0
7, 50092, Note_off_c, 8, 71, 0
7, 50132, Note_off_c, 8, 43, 0
7, 50176, Note_on_c, 8, 62, 62
7, 50176, Note_on_c, 8, 71, 77
7, 50176, Note_on_c, 8, 65, 74
7, 50220, Note_off_c, 8, 62, 0
7, 50232, Note_off_c, 8, 65, 0
7, 50256, Note_off_c, 8, 71, 0
7, 50304, Note_on_c, 8, 65, 76
7, 50304, Note_on_c, 8, 59, 50
7, 50304, Note_on_c, 8, 67, 70
7, 50304, Note_on_c, 8, 55, 76
7, 50440, Note_off_c, 8, 55, 0
7, 50440, Note_off_c, 8, 59, 0
7, 50456, Note_off_c, 8, 65, 0
7, 50468, Note_off_c, 8, 67, 0
7, 50560, Note_on_c, 8, 65, 66
7, 50560, Note_on_c, 8, 67, 74
7, 50560, Note_on_c, 8, 59, 57
7, 50596, Note_off_c, 8, 59, 0
7, 50620, Note_off_c, 8, 65, 0
7, 50628, Note_off_c, 8, 67, 0
7, 50688, Note_on_c, 8, 67, 89
7, 50688, Note_on_c, 8, 64, 78
7, 50688, Note_on_c, 8, 72, 97
7, 50688, Note_on_c, 8, 47, 70
7, 50776, Note_off_c, 8, 47, 0
7, 50804, Note_off_c, 8, 64, 0
7, 50812, Note_off_c, 8, 67, 0
7, 50816, Note_on_c, 8, 48, 89
7, 50828, Note_off_c, 8, 72, 0
7, 50912, Note_off_c, 8, 48, 0
7, 52096, Note_on_c, 8, 72, 86
7, 52220, Note_off_c, 8, 72, 0
7, 52224, Note_on_c, 8, 84, 97
7, 52340, Note_off_c, 8, 84, 0
7, 52352, Note_on_c, 8, 72, 71
7, 52480, Note_on_c, 8, 83, 83
7, 52504, Note_off_c, 8, 72, 0
7, 52588, Note_off_c, 8, 83, 0
7, 52608, Note_on_c, 8, 72, 73
7, 52736, Note_off_c, 8, 72, 0
7, 52736, Note_on_c, 8, 82, 83
7, 52840, Note_off_c, 8, 82, 0
7, 52864, Note_on_c, 8, 72, 79
7, 52972, Note_off_c, 8, 72, 0
7, 52992, Note_on_c, 8, 79, 79
7, 53092, Note_off_c, 8, 79, 0
7, 53120, Note_on_c, 8, 72, 86
7, 53220, Note_off_c, 8, 72, 0
7, 53248, Note_on_c, 8, 76, 92
7, 53352, Note_off_c, 8, 76, 0
7, 53376, Note_on_c, 8, 77, 79
7, 53480, Note_off_c, 8, 77, 0
7, 53504, Note_on_c, 8, 78, 74
7, 53580, Note_off_c, 8, 78, 0
7, 53632, Note_on_c, 8, 79, 83
7, 53716, Note_off_c, 8, 79, 0
7, 53760, Note_on_c, 8, 41, 79
7, 54016, Note_on_c, 8, 60, 76
7, 54016, Note_on_c, 8, 69, 83
7, 54016, Note_on_c, 8, 65, 83
7, 54056, Note_off_c, 8, 65, 0
7, 54076, Note_off_c, 8, 41, 0
7, 54084, Note_off_c, 8, 60, 0
7, 54092, Note_off_c, 8, 69, 0
7, 54400, Note_on_c, 8, 53, 86
7, 54528, Note_on_c, 8, 57, 86
7, 54528, Note_on_c, 8, 65, 89
7, 54528, Note_on_c, 8, 60, 81
7, 54912, Note_on_c, 8, 48, 86
7, 54924, Note_off_c, 8, 57, 0
7, 54928, Note_off_c, 8, 60, 0
7, 54932, Note_off_c, 8, 53, 0
7, 54952, Note_off_c, 8, 65, 0
7, 55132, Note_off_c, 8, 48, 0
7, 55168, Note_on_c, 8, 41, 81
7, 55168, Note_on_c, 8, 69, 83
7, 55168, Note_on_c, 8, 60, 83
7, 55168, Note_on_c, 8, 63, 83
7, 55248, Note_off_c, 8, 63, 0
7, 55248, Note_off_c, 8, 60, 0
7, 55260, Note_off_c, 8, 69, 0
7, 55264, Note_off_c, 8, 41, 0
7, 55552, Note_on_c, 8, 41, 79
7, 55552, Note_on_c, 8, 69, 92
7, 55552, Note_on_c, 8, 63, 79
7, 55552, Note_on_c, 8, 60, 74
7, 55636, Note_off_c, 8, 60, 0
7, 55644, Note_off_c, 8, 69, 0
7, 55680, Note_on_c, 8, 67, 70
7, 55828, Note_off_c, 8, 63, 0
7, 55848, Note_off_c, 8, 67, 0
7, 55936, Note_on_c, 8, 63, 77
7, 55936, Note_on_c, 8, 65, 86
7, 55936, Note_on_c, 8, 57, 79
7, 55964, Note_off_c, 8, 41, 0
7, 56064, Note_on_c, 8, 53, 83
7, 56200, Note_off_c, 8, 57, 0
7, 56236, Note_off_c, 8, 63, 0
7, 56244, Note_off_c, 8, 65, 0
7, 56320, Note_on_c, 8, 63, 81
7, 56320, Note_on_c, 8, 67, 81
7, 56320, Note_on_c, 8, 57, 81
7, 56392, Note_off_c, 8, 57, 0
7, 56416, Note_off_c, 8, 63, 0
7, 56436, Note_off_c, 8, 67, 0
7, 56448, Note_on_c, 8, 57, 76
7, 56448, Note_on_c, 8, 63, 43
7, 56448, Note_on_c, 8, 65, 77
7, 56476, Note_off_c, 8, 63, 0
7, 56692, Note_off_c, 8, 53, 0
7, 56704, Note_on_c, 8, 41, 83
7, 56720, Note_off_c, 8, 57, 0
7, 56792, Note_off_c, 8, 65, 0
7, 56832, Note_on_c, 8, 46, 89
7, 56852, Note_off_c, 8, 41, 0
7, 57088, Note_on_c, 8, 62, 78
7, 57088, Note_on_c, 8, 65, 77
7, 57088, Note_on_c, 8, 58, 77
7, 57148, Note_off_c, 8, 46, 0
7, 57152, Note_off_c, 8, 58, 0
7, 57160, Note_off_c, 8, 62, 0
7, 57176, Note_off_c, 8, 65, 0
7, 57472, Note_on_c, 8, 46, 77
7, 57600, Note_on_c, 8, 62, 78
7, 57600, Note_on_c, 8, 58, 86
7, 57600, Note_on_c, 8, 65, 76
7, 57728, Control_c, 8, 64, 127
7, 57744, Note_off_c, 8, 58, 0
7, 57776, Note_off_c, 8, 62, 0
7, 57796, Note_off_c, 8, 65, 0
7, 57868, Note_off_c, 8, 46, 0
7, 58148, Control_c, 8, 64, 0
7, 58240, Note_on_c, 8, 46, 86
7, 58240, Note_on_c, 8, 65, 81
7, 58240, Note_on_c, 8, 70, 81
7, 58240, Note_on_c, 8, 73, 83
7, 58332, Note_off_c, 8, 70, 0
7, 58344, Note_off_c, 8, 65, 0
7, 58364, Note_off_c, 8, 46, 0
7, 58372, Note_off_c, 8, 73, 0
7, 58624, Note_on_c, 8, 65, 92
7, 58624, Note_on_c, 8, 69, 73
7, 58624, Note_on_c, 8, 70, 83
7, 58624, Note_on_c, 8, 73, 81
7, 58624, Note_on_c, 8, 46, 83
7, 58664, Note_off_c, 8, 69, 0
7, 58700, Note_off_c, 8, 70, 0
7, 58716, Note_off_c, 8, 73, 0
7, 58728, Note_off_c, 8, 65, 0
7, 58752, Note_on_c, 8, 65, 61
7, 58752, Note_on_c, 8, 72, 78
7, 58892, Note_off_c, 8, 65, 0
7, 58956, Note_off_c, 8, 72, 0
7, 59008, Note_on_c, 8, 65, 76
7, 59008, Note_on_c, 8, 70, 94
7, 59120, Note_off_c, 8, 46, 0
7, 59136, Note_on_c, 8, 58, 77
7, 59320, Note_off_c, 8, 65, 0
7, 59380, Note_off_c, 8, 70, 0
7, 59392, Note_on_c, 8, 72, 73
7, 59392, Note_on_c, 8, 70, 35
7, 59392, Note_on_c, 8, 65, 61
7, 59424, Note_off_c, 8, 70, 0
7, 59460, Note_off_c, 8, 65, 0
7, 59468, Note_off_c, 8, 72, 0
7, 59520, Note_on_c, 8, 65, 68
7, 59520, Note_on_c, 8, 70, 61
7, 59520, Note_on_c, 8, 73, 79
7, 59544, Note_off_c, 8, 70, 0
7, 59712, Note_off_c, 8, 73, 0
7, 59724, Note_off_c, 8, 65, 0
7, 59744, Note_off_c, 8, 58, 0
7, 59776, Note_on_c, 8, 69, 86
7, 59776, Note_on_c, 8, 72, 97
7, 59776, Note_on_c, 8, 46, 71
7, 59776, Note_on_c, 8, 65, 78
7, 59836, Note_off_c, 8, 46, 0
7, 59904, Note_on_c, 8, 41, 83
7, 60024, Note_off_c, 8, 65, 0
7, 60028, Note_off_c, 8, 72, 0
7, 60028, Note_off_c, 8, 69, 0
7, 60160, Note_on_c, 8, 65, 72
7, 60160, Note_on_c, 8, 69, 94
7, 60160, Note_on_c, 8, 72, 94
7, 60200, Note_off_c, 8, 65, 0
7, 60292, Note_off_c, 8, 69, 0
7, 60316, Note_off_c, 8, 72, 0
7, 60416, Note_on_c, 8, 53, 21
7, 60420, Note_off_c, 8, 53, 0
7, 60488, Note_off_c, 8, 41, 0
7, 60544, Note_on_c, 8, 62, 74
7, 60544, Note_on_c, 8, 53, 73
7, 60616, Note_off_c, 8, 53, 0
7, 60628, Note_off_c, 8, 62, 0
7, 60672, Note_on_c, 8, 43, 77
7, 60672, Note_on_c, 8, 67, 76
7, 60672, Note_on_c, 8, 62, 74
7, 60672, Note_on_c, 8, 70, 86
7, 60844, Note_off_c, 8, 62, 0
7, 60856, Note_off_c, 8, 67, 0
7, 60872, Note_off_c, 8, 70, 0
7, 60928, Note_on_c, 8, 67, 78
7, 60928, Note_on_c, 8, 70, 74
7, 60928, Note_on_c, 8, 62, 86
7, 61000, Note_off_c, 8, 62, 0
7, 61016, Note_off_c, 8, 67, 0
7, 61048, Note_off_c, 8, 70, 0
7, 61056, Note_on_c, 8, 55, 63
7, 61116, Note_off_c, 8, 55, 0
7, 61300, Note_off_c, 8, 43, 0
7, 61312, Note_on_c, 8, 55, 68
7, 61312, Note_on_c, 8, 64, 72
7, 61384, Note_off_c, 8, 64, 0
7, 61392, Note_off_c, 8, 55, 0
7, 61440, Note_on_c, 8, 67, 72
7, 61440, Note_on_c, 8, 45, 56
7, 61440, Note_on_c, 8, 72, 53
7, 61440, Note_on_c, 8, 64, 58
7, 61588, Note_off_c, 8, 72, 0
7, 61644, Note_off_c, 8, 67, 0
7, 61696, Note_on_c, 8, 74, 79
7, 61752, Note_off_c, 8, 74, 0
7, 61804, Note_off_c, 8, 45, 0
7, 61824, Note_on_c, 8, 57, 79
7, 61824, Note_on_c, 8, 76, 86
7, 61904, Note_off_c, 8, 64, 0
7, 61928, Note_off_c, 8, 76, 0
7, 61968, Note_off_c, 8, 57, 0
7, 62080, Note_on_c, 8, 69, 83
7, 62080, Note_on_c, 8, 74, 83
7, 62080, Note_on_c, 8, 66, 86
7, 62080, Note_on_c, 8, 50, 70
7, 62080, Note_on_c, 8, 57, 65
7, 62384, Note_off_c, 8, 66, 0
7, 62392, Note_off_c, 8, 69, 0
7, 62400, Note_off_c, 8, 74, 0
7, 62464, Note_on_c, 8, 72, 81
7, 62464, Note_on_c, 8, 66, 83
7, 62464, Note_on_c, 8, 69, 79
7, 62492, Note_off_c, 8, 57, 0
7, 62560, Note_off_c, 8, 50, 0
7, 62592, Note_on_c, 8, 62, 71
7, 62780, Note_off_c, 8, 69, 0
7, 62808, Note_off_c, 8, 72, 0
7, 62812, Note_off_c, 8, 66, 0
7, 62848, Note_on_c, 8, 54, 71
7, 62912, Note_off_c, 8, 62, 0
7, 62976, Note_off_c, 8, 54, 0
7, 62976, Note_on_c, 8, 62, 76
7, 62976, Note_on_c, 8, 71, 83
7, 62976, Note_on_c, 8, 55, 81
7, 62976, Note_on_c, 8, 65, 76
7, 63208, Note_off_c, 8, 55, 0
7, 63264, Note_off_c, 8, 62, 0
7, 63272, Note_off_c, 8, 65, 0
7, 63272, Note_off_c, 8, 71, 0
7, 63360, Note_on_c, 8, 62, 78
7, 63360, Note_on_c, 8, 55, 78
7, 63360, Note_on_c, 8, 71, 89
7, 63360, Note_on_c, 8, 65, 78
7, 63580, Note_off_c, 8, 55, 0
7, 63608, Note_off_c, 8, 71, 0
7, 63644, Note_off_c, 8, 62, 0
7, 63652, Note_off_c, 8, 65, 0
7, 63744, Note_on_c, 8, 48, 67
7, 63744, Note_on_c, 8, 58, 79
7, 63744, Note_on_c, 8, 70, 83
7, 63744, Note_on_c, 8, 64, 77
7, 63744, Note_on_c, 8, 60, 73
7, 63968, Note_off_c, 8, 58, 0
7, 64008, Note_off_c, 8, 48, 0
7, 64044, Note_off_c, 8, 60, 0
7, 64044, Note_off_c, 8, 70, 0
7, 64048, Note_off_c, 8, 64, 0
7, 64128, Note_on_c, 8, 58, 73
7, 64128, Note_on_c, 8, 64, 77
7, 64128, Note_on_c, 8, 60, 67
7, 64128, Note_on_c, 8, 70, 77
7, 64128, Note_on_c, 8, 48, 74
7, 64288, Note_off_c, 8, 58, 0
7, 64296, Note_off_c, 8, 64, 0
7, 64328, Note_off_c, 8, 60, 0
7, 64336, Note_off_c, 8, 70, 0
7, 64344, Note_off_c, 8, 48, 0
7, 64384, Note_on_c, 8, 65, 77
7, 64384, Note_on_c, 8, 69, 83
7, 64384, Note_on_c, 8, 53, 83
7, 64384, Note_on_c, 8, 60, 78
7, 65820, Note_off_c, 8, 53, 0
7, 65820, Note_off_c, 8, 69, 0
7, 65828, Note_off_c, 8, 60, 0
7, 65840, Note_off_c, 8, 65, 0
7, 66048, Note_on_c, 8, 67, 72
7, 66048, Note_on_c, 8, 60, 73
7, 66048, Note_on_c, 8, 64, 76
7, 66172, Note_off_c, 8, 60, 0
7, 66192, Note_off_c, 8, 64, 0
7, 66196, Note_off_c, 8, 67, 0
7, 66304, Note_on_c, 8, 64, 77
7, 66304, Note_on_c, 8, 60, 65
7, 66304, Note_on_c, 8, 67, 74
7, 66372, Note_off_c, 8, 67, 0
7, 66376, Note_off_c, 8, 60, 0
7, 66380, Note_off_c, 8, 64, 0
7, 66432, Note_on_c, 8, 64, 58
7, 66432, Note_on_c, 8, 60, 56
7, 66432, Note_on_c, 8, 67, 66
7, 66508, Note_off_c, 8, 60, 0
7, 66524, Note_off_c, 8, 67, 0
7, 66528, Note_off_c, 8, 64, 0
7, 66688, Note_on_c, 8, 64, 56
7, 66688, Note_on_c, 8, 67, 56
7, 66688, Note_on_c, 8, 60, 45
7, 66760, Note_off_c, 8, 60, 0
7, 66768, Note_off_c, 8, 64, 0
7, 66796, Note_off_c, 8, 67, 0
7, 66816, Note_on_c, 8, 62, 74
7, 66816, Note_on_c, 8, 65, 73
7, 66816, Note_on_c, 8, 58, 73
7, 66952, Note_off_c, 8, 58, 0
7, 66956, Note_off_c, 8, 62, 0
7, 66988, Note_off_c, 8, 65, 0
7, 67200, Note_on_c, 8, 65, 74
7, 67200, Note_on_c, 8, 62, 73
7, 67200, Note_on_c, 8, 69, 89
7, 67348, Note_off_c, 8, 62, 0
7, 67388, Note_off_c, 8, 65, 0
7, 67400, Note_off_c, 8, 69, 0
7, 67456, Note_on_c, 8, 64, 76
7, 67456, Note_on_c, 8, 60, 73
7, 67456, Note_on_c, 8, 67, 78
7, 67704, Note_off_c, 8, 60, 0
7, 67708, Note_off_c, 8, 64, 0
7, 67716, Note_off_c, 8, 67, 0
7, 69120, Note_on_c, 8, 41, 89
7, 69120, Control_c, 8, 64, 127
7, 69328, Control_c, 8, 64, 0
7, 69376, Note_on_c, 8, 65, 92
7, 69376, Note_on_c, 8, 57, 92
7, 69376, Note_on_c, 8, 60, 92
7, 69440, Note_off_c, 8, 60, 0
7, 69448, Note_off_c, 8, 57, 0
7, 69456, Note_off_c, 8, 41, 0
7, 69464, Note_off_c, 8, 65, 0
7, 69760, Note_on_c, 8, 57, 74
7, 69836, Note_off_c, 8, 57, 0
7, 69888, Note_on_c, 8, 57, 60
7, 69888, Note_on_c, 8, 60, 79
7, 69888, Note_on_c, 8, 65, 83
7, 70272, Note_off_c, 8, 57, 0
7, 70272, Note_on_c, 8, 53, 97
7, 70284, Note_off_c, 8, 60, 0
7, 70296, Note_off_c, 8, 65, 0
7, 70400, Note_on_c, 8, 46, 21
7, 70416, Note_off_c, 8, 46, 0
7, 70520, Note_off_c, 8, 53, 0
7, 70528, Note_on_c, 8, 60, 83
7, 70528, Note_on_c, 8, 41, 86
7, 70528, Note_on_c, 8, 63, 86
7, 70528, Note_on_c, 8, 69, 86
7, 70588, Note_off_c, 8, 63, 0
7, 70592, Note_off_c, 8, 60, 0
7, 70608, Note_off_c, 8, 69, 0
7, 70616, Note_off_c, 8, 41, 0
7, 70912, Note_on_c, 8, 69, 89
7, 70912, Note_on_c, 8, 60, 73
7, 70912, Note_on_c, 8, 63, 79
7, 70912, Note_on_c, 8, 41, 83
7, 70968, Note_off_c, 8, 60, 0
7, 70996, Note_off_c, 8, 63, 0
7, 71004, Note_off_c, 8, 69, 0
7, 71040, Note_on_c, 8, 67, 62
7, 71040, Note_on_c, 8, 59, 62
7, 71040, Note_on_c, 8, 57, 66
7, 71040, Note_on_c, 8, 63, 48
7, 71064, Note_off_c, 8, 59, 0
7, 71172, Note_off_c, 8, 57, 0
7, 71244, Note_off_c, 8, 63, 0
7, 71264, Note_off_c, 8, 67, 0
7, 71296, Note_on_c, 8, 65, 89
7, 71296, Note_on_c, 8, 63, 81
7, 71296, Note_on_c, 8, 57, 92
7, 71312, Note_off_c, 8, 41, 0
7, 71424, Note_on_c, 8, 53, 92
7, 71552, Note_off_c, 8, 57, 0
7, 71588, Note_off_c, 8, 63, 0
7, 71604, Note_off_c, 8, 65, 0
7, 71680, Note_on_c, 8, 63, 83
7, 71680, Note_on_c, 8, 57, 89
7, 71680, Note_on_c, 8, 67, 97
7, 71772, Note_off_c, 8, 57, 0
7, 71780, Note_off_c, 8, 63, 0
7, 71808, Note_on_c, 8, 65, 83
7, 71808, Note_on_c, 8, 57, 76
7, 71816, Note_off_c, 8, 67, 0
7, 71832, Note_off_c, 8, 53, 0
7, 71936, Note_on_c, 8, 67, 32
7, 71956, Note_off_c, 8, 67, 0
7, 71996, Note_off_c, 8, 57, 0
7, 72008, Note_off_c, 8, 65, 0
7, 72064, Note_on_c, 8, 53, 103
7, 72124, Note_off_c, 8, 53, 0
7, 72192, Note_on_c, 8, 46, 97
7, 72448, Note_on_c, 8, 62, 81
7, 72448, Note_on_c, 8, 58, 89
7, 72448, Note_on_c, 8, 65, 83
7, 72516, Note_off_c, 8, 58, 0
7, 72516, Note_off_c, 8, 62, 0
7, 72544, Note_off_c, 8, 65, 0
7, 72544, Note_off_c, 8, 46, 0
7, 72832, Note_on_c, 8, 46, 86
7, 72960, Note_on_c, 8, 65, 79
7, 72960, Note_on_c, 8, 58, 78
7, 72960, Note_on_c, 8, 62, 78
7, 73048, Control_c, 8, 64, 127
7, 73140, Note_off_c, 8, 58, 0
7, 73144, Note_off_c, 8, 62, 0
7, 73164, Note_off_c, 8, 65, 0
7, 73184, Note_off_c, 8, 46, 0
7, 73400, Control_c, 8, 64, 0
7, 73600, Note_on_c, 8, 46, 71
7, 73600, Note_on_c, 8, 70, 83
7, 73600, Note_on_c, 8, 65, 89
7, 73600, Note_on_c, 8, 61, 86
7, 73664, Note_off_c, 8, 65, 0
7, 73672, Note_off_c, 8, 61, 0
7, 73692, Note_off_c, 8, 70, 0
7, 73696, Note_off_c, 8, 46, 0
7, 73728, Note_on_c, 8, 53, 72
7, 73792, Note_off_c, 8, 53, 0
7, 73984, Note_on_c, 8, 46, 79
7, 73984, Note_on_c, 8, 53, 76
7, 73984, Note_on_c, 8, 65, 83
7, 73984, Note_on_c, 8, 61, 94
7, 73984, Note_on_c, 8, 70, 83
7, 74040, Note_off_c, 8, 61, 0
7, 74040, Note_off_c, 8, 65, 0
7, 74044, Note_off_c, 8, 53, 0
7, 74068, Note_off_c, 8, 46, 0
7, 74076, Note_off_c, 8, 70, 0
7, 74368, Note_on_c, 8, 65, 70
7, 74416, Note_off_c, 8, 65, 0
7, 74496, Note_on_c, 8, 58, 89
7, 74496, Note_on_c, 8, 73, 86
7, 74496, Note_on_c, 8, 70, 92
7, 74496, Note_on_c, 8, 46, 66
7, 74496, Note_on_c, 8, 65, 86
7, 74668, Note_off_c, 8, 65, 0
7, 74676, Note_off_c, 8, 70, 0
7, 74684, Note_off_c, 8, 73, 0
7, 74752, Note_on_c, 8, 65, 71
7, 74752, Note_on_c, 8, 72, 77
7, 74820, Note_off_c, 8, 65, 0
7, 74852, Note_off_c, 8, 72, 0
7, 74880, Note_on_c, 8, 65, 74
7, 74880, Note_on_c, 8, 70, 97
7, 74920, Note_off_c, 8, 46, 0
7, 75012, Note_off_c, 8, 58, 0
7, 75136, Note_on_c, 8, 46, 77
7, 75164, Note_off_c, 8, 70, 0
7, 75164, Note_off_c, 8, 65, 0
7, 75264, Note_on_c, 8, 53, 77
7, 75268, Note_off_c, 8, 46, 0
7, 75520, Note_on_c, 8, 65, 78
7, 75520, Note_on_c, 8, 69, 89
7, 75592, Note_off_c, 8, 65, 0
7, 75608, Note_off_c, 8, 69, 0
7, 75648, Note_on_c, 8, 72, 89
7, 75648, Note_on_c, 8, 65, 73
7, 75668, Note_off_c, 8, 53, 0
7, 75712, Note_off_c, 8, 65, 0
7, 75776, Note_off_c, 8, 72, 0
7, 75904, Note_on_c, 8, 53, 74
7, 75904, Note_on_c, 8, 69, 73
7, 75956, Note_off_c, 8, 69, 0
7, 76004, Note_off_c, 8, 53, 0
7, 76032, Note_on_c, 8, 55, 79
7, 76032, Note_on_c, 8, 67, 79
7, 76032, Note_on_c, 8, 70, 83
7, 76032, Note_on_c, 8, 62, 76
7, 76360, Control_c, 8, 64, 127
7, 76488, Note_off_c, 8, 62, 0
7, 76496, Note_off_c, 8, 70, 0
7, 76496, Note_off_c, 8, 67, 0
7, 76520, Note_off_c, 8, 55, 0
7, 76656, Control_c, 8, 64, 0
7, 76672, Note_on_c, 8, 55, 73
7, 76672, Note_on_c, 8, 62, 72
7, 76672, Note_on_c, 8, 70, 83
7, 76672, Note_on_c, 8, 67, 86
7, 76712, Note_off_c, 8, 62, 0
7, 76732, Note_off_c, 8, 67, 0
7, 76744, Note_off_c, 8, 70, 0
7, 76772, Note_off_c, 8, 55, 0
7, 76800, Note_on_c, 8, 57, 92
7, 76800, Note_on_c, 8, 64, 76
7, 76800, Note_on_c, 8, 72, 94
7, 76800, Note_on_c, 8, 67, 81
7, 76956, Note_off_c, 8, 72, 0
7, 77056, Note_on_c, 8, 74, 77
7, 77068, Note_off_c, 8, 67, 0
7, 77108, Note_off_c, 8, 74, 0
7, 77116, Note_off_c, 8, 57, 0
7, 77184, Note_on_c, 8, 57, 74
7, 77184, Note_on_c, 8, 76, 83
7, 77216, Note_off_c, 8, 64, 0
7, 77280, Note_off_c, 8, 76, 0
7, 77280, Note_off_c, 8, 57, 0
7, 77312, Note_on_c, 8, 68, 21
7, 77320, Note_off_c, 8, 68, 0
7, 77440, Note_on_c, 8, 74, 86
7, 77440, Note_on_c, 8, 60, 79
7, 77440, Note_on_c, 8, 66, 86
7, 77440, Note_on_c, 8, 69, 86
7, 77440, Note_on_c, 8, 50, 76
7, 77504, Note_off_c, 8, 69, 0
7, 77520, Note_off_c, 8, 60, 0
7, 77520, Note_off_c, 8, 74, 0
7, 77524, Note_off_c, 8, 66, 0
7, 77540, Note_off_c, 8, 50, 0
7, 77824, Note_on_c, 8, 62, 76
7, 77824, Note_on_c, 8, 60, 79
7, 77824, Note_on_c, 8, 69, 92
7, 77824, Note_on_c, 8, 72, 86
7, 78208, Note_on_c, 8, 54, 47
7, 78236, Note_off_c, 8, 69, 0
7, 78236, Note_off_c, 8, 60, 0
7, 78244, Note_off_c, 8, 72, 0
7, 78304, Note_off_c, 8, 62, 0
7, 78308, Note_off_c, 8, 54, 0
7, 78336, Note_on_c, 8, 55, 74
7, 78336, Note_on_c, 8, 71, 83
7, 78336, Note_on_c, 8, 65, 86
7, 78336, Note_on_c, 8, 62, 77
7, 78512, Note_off_c, 8, 71, 0
7, 78516, Note_off_c, 8, 65, 0
7, 78524, Note_off_c, 8, 62, 0
7, 78592, Note_on_c, 8, 65, 89
7, 78592, Note_on_c, 8, 71, 89
7, 78716, Note_off_c, 8, 71, 0
7, 78720, Note_on_c, 8, 62, 68
7, 78748, Note_off_c, 8, 65, 0
7, 78768, Note_off_c, 8, 55, 0
7, 78836, Note_off_c, 8, 62, 0
7, 78976, Note_on_c, 8, 55, 92
7, 79104, Note_on_c, 8, 43, 83
7, 79104, Note_on_c, 8, 59, 73
7, 79164, Note_off_c, 8, 55, 0
7, 79276, Note_off_c, 8, 59, 0
7, 79360, Note_on_c, 8, 65, 81
7, 79360, Note_on_c, 8, 62, 86
7, 79360, Note_on_c, 8, 67, 86
7, 79360, Note_on_c, 8, 59, 79
7, 79488, Note_on_c, 8, 55, 74
7, 79572, Note_off_c, 8, 43, 0
7, 79632, Note_off_c, 8, 55, 0
7, 79744, Note_on_c, 8, 47, 77
7, 79780, Note_off_c, 8, 59, 0
7, 79804, Note_off_c, 8, 67, 0
7, 79816, Note_off_c, 8, 65, 0
7, 79836, Note_off_c, 8, 62, 0
7, 79872, Note_on_c, 8, 48, 97
7, 79880, Note_off_c, 8, 47, 0
7, 79996, Note_off_c, 8, 48, 0
7, 80000, Note_on_c, 8, 64, 89
7, 80000, Note_on_c, 8, 67, 79
7, 80000, Note_on_c, 8, 58, 81
7, 80092, Note_off_c, 8, 58, 0
7, 80100, Note_off_c, 8, 67, 0
7, 80120, Note_off_c, 8, 64, 0
7, 80128, Note_on_c, 8, 48, 94
7, 80256, Note_on_c, 8, 64, 81
7, 80256, Note_on_c, 8, 58, 92
7, 80256, Note_on_c, 8, 67, 83
7, 80384, Note_off_c, 8, 48, 0
7, 80424, Note_off_c, 8, 58, 0
7, 80512, Note_off_c, 8, 67, 0
7, 80512, Note_on_c, 8, 48, 106
7, 80540, Note_off_c, 8, 64, 0
7, 80576, Note_off_c, 8, 48, 0
7, 80640, Note_on_c, 8, 48, 83
7, 80768, Note_on_c, 8, 70, 92
7, 80768, Note_on_c, 8, 64, 71
7, 80768, Note_on_c, 8, 72, 89
7, 80776, Note_off_c, 8, 48, 0
7, 80868, Note_off_c, 8, 64, 0
7, 80896, Note_on_c, 8, 48, 86
7, 80908, Note_off_c, 8, 72, 0
7, 80908, Note_off_c, 8, 70, 0
7, 81024, Note_on_c, 8, 64, 89
7, 81024, Note_on_c, 8, 72, 97
7, 81024, Note_on_c, 8, 70, 94
7, 81096, Note_off_c, 8, 48, 0
7, 81276, Note_off_c, 8, 72, 0
7, 81280, Note_off_c, 8, 70, 0
7, 81280, Note_on_c, 8, 48, 92
7, 81304, Note_off_c, 8, 64, 0
7, 81396, Note_off_c, 8, 48, 0
7, 81408, Note_on_c, 8, 41, 79
7, 81664, Note_on_c, 8, 60, 76
7, 81664, Note_on_c, 8, 69, 83
7, 81664, Note_on_c, 8, 65, 83
7, 81704, Note_off_c, 8, 65, 0
7, 81724, Note_off_c, 8, 41, 0
7, 81732, Note_off_c, 8, 60, 0
7, 81740, Note_off_c, 8, 69, 0
7, 82048, Note_on_c, 8, 53, 86
7, 82176, Note_on_c, 8, 57, 86
7, 82176, Note_on_c, 8, 65, 89
7, 82176, Note_on_c, 8, 60, 81
7, 82560, Note_on_c, 8, 48, 86
7, 82572, Note_off_c, 8, 57, 0
7, 82576, Note_off_c, 8, 60, 0
7, 82580, Note_off_c, 8, 53, 0
7, 82600, Note_off_c, 8, 65, 0
7, 82780, Note_off_c, 8, 48, 0
7, 82816, Note_on_c, 8, 41, 81
7, 82816, Note_on_c, 8, 69, 83
7, 82816, Note_on_c, 8, 60, 83
7, 82816, Note_on_c, 8, 63, 83
7, 82896, Note_off_c, 8, 63, 0
7, 82896, Note_off_c, 8, 60, 0
7, 82908, Note_off_c, 8, 69, 0
7, 82912, Note_off_c, 8, 41, 0
7, 83200, Note_on_c, 8, 41, 79
7, 83200, Note_on_c, 8, 69, 92
7, 83200, Note_on_c, 8, 63, 79
7, 83200, Note_on_c, 8, 60, 74
7, 83284, Note_off_c, 8, 60, 0
7, 83292, Note_off_c, 8, 69, 0
7, 83328, Note_on_c, 8, 67, 70
7, 83476, Note_off_c, 8, 63, 0
7, 83496, Note_off_c, 8, 67, 0
7, 83584, Note_on_c, 8, 63, 77
7, 83584, Note_on_c, 8, 65, 86
7, 83584, Note_on_c, 8, 57, 79
7, 83612, Note_off_c, 8, 41, 0
7, 83712, Note_on_c, 8, 53, 83
7, 83848, Note_off_c, 8, 57, 0
7, 83884, Note_off_c, 8, 63, 0
7, 83892, Note_off_c, 8, 65, 0
7, 83968, Note_on_c, 8, 63, 81
7, 83968, Note_on_c, 8, 67, 81
7, 83968, Note_on_c, 8, 57, 81
7, 84040, Note_off_c, 8, 57, 0
7, 84064, Note_off_c, 8, 63, 0
7, 84084, Note_off_c, 8, 67, 0
7, 84096, Note_on_c, 8, 57, 76
7, 84096, Note_on_c, 8, 63, 43
7, 84096, Note_on_c, 8, 65, 77
7, 84124, Note_off_c, 8, 63, 0
7, 84340, Note_off_c, 8, 53, 0
7, 84352, Note_on_c, 8, 41, 83
7, 84368, Note_off_c, 8, 57, 0
7, 84440, Note_off_c, 8, 65, 0
7, 84480, Note_on_c, 8, 46, 89
7, 84500, Note_off_c, 8, 41, 0
7, 84736, Note_on_c, 8, 62, 78
7, 84736, Note_on_c, 8, 65, 77
7, 84736, Note_on_c, 8, 58, 77
7, 84796, Note_off_c, 8, 46, 0
7, 84800, Note_off_c, 8, 58, 0
7, 84808, Note_off_c, 8, 62, 0
7, 84824, Note_off_c, 8, 65, 0
7, 85120, Note_on_c, 8, 46, 77
7, 85248, Note_on_c, 8, 62, 78
7, 85248, Note_on_c, 8, 58, 86
7, 85248, Note_on_c, 8, 65, 76
7, 85376, Control_c, 8, 64, 127
7, 85392, Note_off_c, 8, 58, 0
7, 85424, Note_off_c, 8, 62, 0
7, 85444, Note_off_c, 8, 65, 0
7, 85516, Note_off_c, 8, 46, 0
7, 85796, Control_c, 8, 64, 0
7, 85888, Note_on_c, 8, 46, 86
7, 85888, Note_on_c, 8, 65, 81
7, 85888, Note_on_c, 8, 70, 81
7, 85888, Note_on_c, 8, 73, 83
7, 85980, Note_off_c, 8, 70, 0
7, 85992, Note_off_c, 8, 65, 0
7, 86012, Note_off_c, 8, 46, 0
7, 86020, Note_off_c, 8, 73, 0
7, 86272, Note_on_c, 8, 65, 92
7, 86272, Note_on_c, 8, 69, 73
7, 86272, Note_on_c, 8, 70, 83
7, 86272, Note_on_c, 8, 73, 81
7, 86272, Note_on_c, 8, 46, 83
7, 86312, Note_off_c, 8, 69, 0
7, 86348, Note_off_c, 8, 70, 0
7, 86364, Note_off_c, 8, 73, 0
7, 86376, Note_off_c, 8, 65, 0
7, 86400, Note_on_c, 8, 65, 61
7, 86400, Note_on_c, 8, 72, 78
7, 86540, Note_off_c, 8, 65, 0
7, 86604, Note_off_c, 8, 72, 0
7, 86656, Note_on_c, 8, 65, 76
7, 86656, Note_on_c, 8, 70, 94
7, 86768, Note_off_c, 8, 46, 0
7, 86784, Note_on_c, 8, 58, 77
7, 86968, Note_off_c, 8, 65, 0
7, 87028, Note_off_c, 8, 70, 0
7, 87040, Note_on_c, 8, 72, 73
7, 87040, Note_on_c, 8, 70, 35
7, 87040, Note_on_c, 8, 65, 61
7, 87072, Note_off_c, 8, 70, 0
7, 87108, Note_off_c, 8, 65, 0
7, 87116, Note_off_c, 8, 72, 0
7, 87168, Note_on_c, 8, 65, 68
7, 87168, Note_on_c, 8, 70, 61
7, 87168, Note_on_c, 8, 73, 79
7, 87192, Note_off_c, 8, 70, 0
7, 87360, Note_off_c, 8, 73, 0
7, 87372, Note_off_c, 8, 65, 0
7, 87392, Note_off_c, 8, 58, 0
7, 87424, Note_on_c, 8, 69, 86
7, 87424, Note_on_c, 8, 72, 97
7, 87424, Note_on_c, 8, 46, 71
7, 87424, Note_on_c, 8, 65, 78
7, 87484, Note_off_c, 8, 46, 0
7, 87552, Note_on_c, 8, 41, 83
7, 87672, Note_off_c, 8, 65, 0
7, 87676, Note_off_c, 8, 72, 0
7, 87676, Note_off_c, 8, 69, 0
7, 87808, Note_on_c, 8, 65, 72
7, 87808, Note_on_c, 8, 69, 94
7, 87808, Note_on_c, 8, 72, 94
7, 87848, Note_off_c, 8, 65, 0
7, 87940, Note_off_c, 8, 69, 0
7, 87964, Note_off_c, 8, 72, 0
7, 88064, Note_on_c, 8, 53, 21
7, 88068, Note_off_c, 8, 53, 0
7, 88136, Note_off_c, 8, 41, 0
7, 88192, Note_on_c, 8, 62, 74
7, 88192, Note_on_c, 8, 53, 73
7, 88264, Note_off_c, 8, 53, 0
7, 88276, Note_off_c, 8, 62, 0
7, 88320, Note_on_c, 8, 43, 77
7, 88320, Note_on_c, 8, 67, 76
7, 88320, Note_on_c, 8, 62, 74
7, 88320, Note_on_c, 8, 70, 86
7, 88492, Note_off_c, 8, 62, 0
7, 88504, Note_off_c, 8, 67, 0
7, 88520, Note_off_c, 8, 70, 0
7, 88576, Note_on_c, 8, 67, 78
7, 88576, Note_on_c, 8, 70, 74
7, 88576, Note_on_c, 8, 62, 86
7, 88648, Note_off_c, 8, 62, 0
7, 88664, Note_off_c, 8, 67, 0
7, 88696, Note_off_c, 8, 70, 0
7, 88704, Note_on_c, 8, 55, 63
7, 88764, Note_off_c, 8, 55, 0
7, 88948, Note_off_c, 8, 43, 0
7, 88960, Note_on_c, 8, 55, 68
7, 88960, Note_on_c, 8, 64, 72
7, 89032, Note_off_c, 8, 64, 0
7, 89040, Note_off_c, 8, 55, 0
7, 89088, Note_on_c, 8, 67, 72
7, 89088, Note_on_c, 8, 45, 56
7, 89088, Note_on_c, 8, 72, 53
7, 89088, Note_on_c, 8, 64, 58
7, 89236, Note_off_c, 8, 72, 0
7, 89292, Note_off_c, 8, 67, 0
7, 89344, Note_on_c, 8, 74, 79
7, 89400, Note_off_c, 8, 74, 0
7, 89452, Note_off_c, 8, 45, 0
7, 89472, Note_on_c, 8, 57, 79
7, 89472, Note_on_c, 8, 76, 86
7, 89552, Note_off_c, 8, 64, 0
7, 89576, Note_off_c, 8, 76, 0
7, 89616, Note_off_c, 8, 57, 0
7, 89728, Note_on_c, 8, 69, 83
7, 89728, Note_on_c, 8, 74, 83
7, 89728, Note_on_c, 8, 66, 86
7, 89728, Note_on_c, 8, 50, 70
7, 89728, Note_on_c, 8, 57, 65
7, 90032, Note_off_c, 8, 66, 0
7, 90040, Note_off_c, 8, 69, 0
7, 90048, Note_off_c, 8, 74, 0
7, 90112, Note_on_c, 8, 72, 81
7, 90112, Note_on_c, 8, 66, 83
7, 90112, Note_on_c, 8, 69, 79
7, 90140, Note_off_c, 8, 57, 0
7, 90208, Note_off_c, 8, 50, 0
7, 90240, Note_on_c, 8, 62, 71
7, 90428, Note_off_c, 8, 69, 0
7, 90456, Note_off_c, 8, 72, 0
7, 90460, Note_off_c, 8, 66, 0
7, 90496, Note_on_c, 8, 54, 71
7, 90560, Note_off_c, 8, 62, 0
7, 90624, Note_off_c, 8, 54, 0
7, 90624, Note_on_c, 8, 65, 81
7, 90624, Note_on_c, 8, 71, 94
7, 90624, Note_on_c, 8, 55, 94
7, 90624, Note_on_c, 8, 62, 76
7, 90872, Note_off_c, 8, 55, 0
7, 90892, Note_off_c, 8, 62, 0
7, 90900, Note_off_c, 8, 71, 0
7, 90908, Note_off_c, 8, 65, 0
7, 91008, Note_on_c, 8, 65, 86
7, 91008, Note_on_c, 8, 55, 74
7, 91008, Note_on_c, 8, 71, 83
7, 91008, Note_on_c, 8, 62, 73
7, 91300, Note_off_c, 8, 71, 0
7, 91304, Note_off_c, 8, 62, 0
7, 91316, Note_off_c, 8, 65, 0
7, 91320, Note_off_c, 8, 55, 0
7, 91392, Note_on_c, 8, 48, 73
7, 91392, Note_on_c, 8, 70, 79
7, 91392, Note_on_c, 8, 60, 63
7, 91392, Note_on_c, 8, 64, 73
7, 91392, Note_on_c, 8, 58, 73
7, 91668, Note_off_c, 8, 58, 0
7, 91672, Note_off_c, 8, 48, 0
7, 91680, Note_off_c, 8, 60, 0
7, 91700, Note_off_c, 8, 64, 0
7, 91700, Note_off_c, 8, 70, 0
7, 91776, Note_on_c, 8, 70, 79
7, 91776, Note_on_c, 8, 48, 51
7, 91776, Note_on_c, 8, 64, 72
7, 91776, Note_on_c, 8, 60, 68
7, 91776, Note_on_c, 8, 58, 76
7, 92012, Note_off_c, 8, 48, 0
7, 92020, Note_off_c, 8, 58, 0
7, 92044, Note_off_c, 8, 60, 0
7, 92064, Note_off_c, 8, 64, 0
7, 92068, Note_off_c, 8, 70, 0
7, 92160, Note_on_c, 8, 65, 81
7, 92160, Note_on_c, 8, 60, 81
7, 92160, Note_on_c, 8, 69, 89
7, 92160, Note_on_c, 8, 53, 72
7, 93228, Note_off_c, 8, 60, 0
7, 93232, Note_off_c, 8, 53, 0
7, 93240, Note_off_c, 8, 69, 0
7, 93240, Note_off_c, 8, 65, 0
7, 93696, Note_on_c, 8, 63, 71
7, 93696, Note_on_c, 8, 69, 92
7, 93696, Note_on_c, 8, 53, 81
7, 93696, Note_on_c, 8, 60, 76
7, 93856, Note_off_c, 8, 60, 0
7, 93856, Note_off_c, 8, 69, 0
7, 93860, Note_off_c, 8, 53, 0
7, 93876, Note_off_c, 8, 63, 0
7, 93952, Note_on_c, 8, 60, 66
7, 93952, Note_on_c, 8, 69, 92
7, 93952, Note_on_c, 8, 63, 73
7, 94036, Note_off_c, 8, 60, 0
7, 94044, Note_off_c, 8, 63, 0
7, 94044, Note_off_c, 8, 69, 0
7, 94080, Note_on_c, 8, 53, 83
7, 94180, Note_off_c, 8, 53, 0
7, 94336, Note_on_c, 8, 60, 63
7, 94416, Note_off_c, 8, 60, 0
7, 94464, Note_on_c, 8, 63, 78
7, 94464, Note_on_c, 8, 60, 73
7, 94464, Note_on_c, 8, 69, 89
7, 94644, Note_off_c, 8, 60, 0
7, 94664, Note_off_c, 8, 69, 0
7, 94664, Note_off_c, 8, 63, 0
7, 94720, Note_on_c, 8, 63, 79
7, 94720, Note_on_c, 8, 60, 71
7, 94720, Note_on_c, 8, 69, 86
7, 94788, Note_off_c, 8, 60, 0
7, 94796, Note_off_c, 8, 63, 0
7, 94812, Note_off_c, 8, 69, 0
7, 94848, Note_on_c, 8, 53, 74
7, 94900, Note_off_c, 8, 53, 0
7, 95104, Note_on_c, 8, 69, 83
7, 95104, Note_on_c, 8, 53, 66
7, 95104, Note_on_c, 8, 63, 78
7, 95104, Note_on_c, 8, 60, 83
7, 95148, Note_off_c, 8, 53, 0
7, 95176, Note_off_c, 8, 60, 0
7, 95192, Note_off_c, 8, 63, 0
7, 95220, Note_off_c, 8, 69, 0
7, 95232, Note_on_c, 8, 53, 63
7, 95272, Note_off_c, 8, 53, 0
7, 95488, Note_on_c, 8, 60, 72
7, 95488, Note_on_c, 8, 63, 68
7, 95488, Note_on_c, 8, 69, 89
7, 95568, Note_off_c, 8, 60, 0
7, 95580, Note_off_c, 8, 63, 0
7, 95596, Note_off_c, 8, 69, 0
7, 95616, Note_on_c, 8, 53, 77
7, 95680, Note_off_c, 8, 53, 0
7, 95872, Note_on_c, 8, 60, 62
7, 95932, Note_off_c, 8, 60, 0
7, 96000, Note_on_c, 8, 69, 89
7, 96000, Note_on_c, 8, 53, 81
7, 96000, Note_on_c, 8, 63, 77
7, 96000, Note_on_c, 8, 60, 72
7, 96172, Note_off_c, 8, 53, 0
7, 96188, Note_off_c, 8, 60, 0
7, 96204, Note_off_c, 8, 69, 0
7, 96212, Note_off_c, 8, 63, 0
7, 96256, Note_on_c, 8, 69, 89
7, 96256, Note_on_c, 8, 63, 76
7, 96256, Note_on_c, 8, 60, 76
7, 96344, Note_off_c, 8, 60, 0
7, 96356, Note_off_c, 8, 63, 0
7, 96384, Note_off_c, 8, 69, 0
7, 96384, Note_on_c, 8, 53, 79
7, 96640, Note_on_c, 8, 60, 61
7, 96668, Note_off_c, 8, 53, 0
7, 96708, Note_off_c, 8, 60, 0
7, 96768, Note_on_c, 8, 46, 73
7, 97024, Note_on_c, 8, 70, 79
7, 97024, Note_on_c, 8, 58, 79
7, 97024, Note_on_c, 8, 62, 77
7, 97024, Note_on_c, 8, 65, 73
7, 97040, Note_off_c, 8, 46, 0
7, 97100, Note_off_c, 8, 62, 0
7, 97100, Note_off_c, 8, 58, 0
7, 97120, Note_off_c, 8, 65, 0
7, 97148, Note_off_c, 8, 70, 0
7, 97152, Note_on_c, 8, 53, 42
7, 97180, Note_off_c, 8, 53, 0
7, 97408, Note_on_c, 8, 58, 61
7, 97472, Note_off_c, 8, 58, 0
7, 97536, Note_on_c, 8, 70, 81
7, 97536, Note_on_c, 8, 58, 77
7, 97536, Note_on_c, 8, 62, 77
7, 97536, Note_on_c, 8, 65, 78
7, 97720, Note_off_c, 8, 58, 0
7, 97740, Note_off_c, 8, 62, 0
7, 97748, Note_off_c, 8, 65, 0
7, 97760, Note_off_c, 8, 70, 0
7, 97792, Note_on_c, 8, 62, 77
7, 97792, Note_on_c, 8, 58, 86
7, 97792, Note_on_c, 8, 70, 72
7, 97792, Note_on_c, 8, 65, 77
7, 97844, Note_off_c, 8, 58, 0
7, 97860, Note_off_c, 8, 65, 0
7, 97860, Note_off_c, 8, 62, 0
7, 97892, Note_off_c, 8, 70, 0
7, 98176, Note_on_c, 8, 53, 68
7, 98176, Note_on_c, 8, 65, 42
7, 98220, Note_off_c, 8, 65, 0
7, 98236, Note_off_c, 8, 53, 0
7, 98304, Note_on_c, 8, 74, 94
7, 98304, Note_on_c, 8, 65, 79
7, 98304, Note_on_c, 8, 67, 78
7, 98304, Note_on_c, 8, 46, 70
7, 98304, Note_on_c, 8, 70, 81
7, 98444, Note_off_c, 8, 65, 0
7, 98456, Note_off_c, 8, 67, 0
7, 98468, Note_off_c, 8, 46, 0
7, 98476, Note_off_c, 8, 74, 0
7, 98484, Note_off_c, 8, 70, 0
7, 98560, Note_on_c, 8, 67, 55
7, 98560, Note_on_c, 8, 65, 42
7, 98560, Note_on_c, 8, 73, 63
7, 98560, Note_on_c, 8, 70, 60
7, 98604, Note_off_c, 8, 65, 0
7, 98604, Note_off_c, 8, 67, 0
7, 98620, Note_off_c, 8, 70, 0
7, 98624, Note_off_c, 8, 73, 0
7, 98688, Note_on_c, 8, 70, 76
7, 98688, Note_on_c, 8, 58, 50
7, 98688, Note_on_c, 8, 65, 72
7, 98688, Note_on_c, 8, 67, 77
7, 98688, Note_on_c, 8, 74, 89
7, 98716, Note_off_c, 8, 58, 0
7, 98768, Note_off_c, 8, 67, 0
7, 98792, Note_off_c, 8, 65, 0
7, 98808, Note_off_c, 8, 70, 0
7, 98812, Note_off_c, 8, 74, 0
7, 98944, Note_on_c, 8, 58, 83
7, 99040, Note_off_c, 8, 58, 0
7, 99072, Note_on_c, 8, 77, 89
7, 99072, Note_on_c, 8, 70, 86
7, 99072, Note_on_c, 8, 65, 77
7, 99200, Note_off_c, 8, 70, 0
7, 99200, Note_on_c, 8, 46, 72
7, 99216, Note_off_c, 8, 77, 0
7, 99260, Note_off_c, 8, 65, 0
7, 99316, Note_off_c, 8, 46, 0
7, 99456, Note_on_c, 8, 74, 89
7, 99456, Note_on_c, 8, 70, 83
7, 99456, Note_on_c, 8, 46, 68
7, 99456, Note_on_c, 8, 65, 77
7, 99580, Note_off_c, 8, 46, 0
7, 99636, Note_off_c, 8, 70, 0
7, 99636, Note_off_c, 8, 74, 0
7, 99644, Note_off_c, 8, 65, 0
7, 99840, Note_on_c, 8, 43, 68
7, 100096, Note_on_c, 8, 71, 83
7, 100096, Note_on_c, 8, 74, 86
7, 100096, Note_on_c, 8, 65, 74
7, 100172, Note_off_c, 8, 65, 0
7, 100172, Note_off_c, 8, 43, 0
7, 100180, Note_off_c, 8, 71, 0
7, 100208, Note_off_c, 8, 74, 0
7, 100224, Note_on_c, 8, 55, 55
7, 100288, Note_off_c, 8, 55, 0
7, 100480, Note_on_c, 8, 65, 61
7, 100548, Note_off_c, 8, 65, 0
7, 100608, Note_on_c, 8, 65, 78
7, 100608, Note_on_c, 8, 55, 73
7, 100608, Note_on_c, 8, 71, 83
7, 100608, Note_on_c, 8, 74, 81
7, 100772, Note_off_c, 8, 55, 0
7, 100784, Note_off_c, 8, 65, 0
7, 100808, Note_off_c, 8, 74, 0
7, 100808, Note_off_c, 8, 71, 0
7, 100864, Note_on_c, 8, 65, 78
7, 100864, Note_on_c, 8, 71, 89
7, 100864, Note_on_c, 8, 74, 81
7, 100916, Note_off_c, 8, 65, 0
7, 100940, Note_off_c, 8, 71, 0
7, 100960, Note_off_c, 8, 74, 0
7, 100992, Note_on_c, 8, 55, 73
7, 101036, Note_off_c, 8, 55, 0
7, 101248, Note_on_c, 8, 55, 71
7, 101248, Note_on_c, 8, 67, 65
7, 101300, Note_off_c, 8, 67, 0
7, 101308, Note_off_c, 8, 55, 0
7, 101376, Note_on_c, 8, 43, 70
7, 101376, Note_on_c, 8, 77, 97
7, 101376, Note_on_c, 8, 67, 65
7, 101376, Note_on_c, 8, 71, 83
7, 101508, Note_off_c, 8, 43, 0
7, 101516, Note_off_c, 8, 71, 0
7, 101524, Note_off_c, 8, 67, 0
7, 101540, Note_off_c, 8, 77, 0
7, 101632, Note_on_c, 8, 77, 65
7, 101632, Note_on_c, 8, 67, 65
7, 101632, Note_on_c, 8, 71, 61
7, 101676, Note_off_c, 8, 71, 0
7, 101684, Note_off_c, 8, 77, 0
7, 101704, Note_off_c, 8, 67, 0
7, 101760, Note_on_c, 8, 74, 76
7, 101760, Note_on_c, 8, 71, 81
7, 101760, Note_on_c, 8, 65, 70
7, 101872, Note_off_c, 8, 65, 0
7, 101924, Note_off_c, 8, 71, 0
7, 101928, Note_off_c, 8, 74, 0
7, 102016, Note_on_c, 8, 74, 71
7, 102016, Note_on_c, 8, 71, 62
7, 102016, Note_on_c, 8, 65, 62
7, 102060, Note_off_c, 8, 71, 0
7, 102072, Note_off_c, 8, 65, 0
7, 102072, Note_off_c, 8, 74, 0
7, 102144, Note_on_c, 8, 43, 72
7, 102144, Note_on_c, 8, 71, 83
7, 102144, Note_on_c, 8, 65, 77
7, 102144, Note_on_c, 8, 62, 67
7, 102292, Note_off_c, 8, 62, 0
7, 102296, Note_off_c, 8, 65, 0
7, 102316, Note_off_c, 8, 71, 0
7, 102356, Note_off_c, 8, 43, 0
7, 102400, Note_on_c, 8, 62, 62
7, 102400, Note_on_c, 8, 71, 77
7, 102400, Note_on_c, 8, 65, 74
7, 102444, Note_off_c, 8, 62, 0
7, 102456, Note_off_c, 8, 65, 0
7, 102480, Note_off_c, 8, 71, 0
7, 102528, Note_on_c, 8, 65, 76
7, 102528, Note_on_c, 8, 59, 50
7, 102528, Note_on_c, 8, 67, 70
7, 102528, Note_on_c, 8, 55, 76
7, 102664, Note_off_c, 8, 55, 0
7, 102664, Note_off_c, 8, 59, 0
7, 102680, Note_off_c, 8, 65, 0
7, 102692, Note_off_c, 8, 67, 0
7, 102784, Note_on_c, 8, 65, 66
7, 102784, Note_on_c, 8, 67, 74
7, 102784, Note_on_c, 8, 59, 57
7, 102820, Note_off_c, 8, 59, 0
7, 102844, Note_off_c, 8, 65, 0
7, 102852, Note_off_c, 8, 67, 0
7, 102912, Note_on_c, 8, 67, 89
7, 102912, Note_on_c, 8, 64, 78
7, 102912, Note_on_c, 8, 72, 97
7, 102912, Note_on_c, 8, 47, 70
7, 103000, Note_off_c, 8, 47, 0
7, 103028, Note_off_c, 8, 64, 0
7, 103036, Note_off_c, 8, 67, 0
7, 103040, Note_on_c, 8, 48, 89
7, 103052, Note_off_c, 8, 72, 0
7, 103136, Note_off_c, 8, 48, 0
7, 104320, Note_on_c, 8, 72, 86
7, 104444, Note_off_c, 8, 72, 0
7, 104448, Note_on_c, 8, 84, 97
7, 104564, Note_off_c, 8, 84, 0
7, 104576, Note_on_c, 8, 72, 71
7, 104704, Note_on_c, 8, 83, 83
7, 104728, Note_off_c, 8, 72, 0
7, 104812, Note_off_c, 8, 83, 0
7, 104832, Note_on_c, 8, 72, 73
7, 104960, Note_off_c, 8, 72, 0
7, 104960, Note_on_c, 8, 82, 83
7, 105064, Note_off_c, 8, 82, 0
7, 105088, Note_on_c, 8, 72, 79
7, 105196, Note_off_c, 8, 72, 0
7, 105216, Note_on_c, 8, 79, 79
7, 105316, Note_off_c, 8, 79, 0
7, 105344, Note_on_c, 8, 72, 86
7, 105444, Note_off_c, 8, 72, 0
7, 105472, Note_on_c, 8, 76, 92
7, 105576, Note_off_c, 8, 76, 0
7, 105600, Note_on_c, 8, 77, 79
7, 105704, Note_off_c, 8, 77, 0
7, 105728, Note_on_c, 8, 78, 74
7, 105804, Note_off_c, 8, 78, 0
7, 105856, Note_on_c, 8, 79, 83
7, 105940, Note_off_c, 8, 79, 0
7, 105984, Note_on_c, 8, 41, 79
7, 106240, Note_on_c, 8, 60, 76
7, 106240, Note_on_c, 8, 69, 83
7, 106240, Note_on_c, 8, 65, 83
7, 106280, Note_off_c, 8, 65, 0
7, 106300, Note_off_c, 8, 41, 0
7, 106308, Note_off_c, 8, 60, 0
7, 106316, Note_off_c, 8, 69, 0
7, 106624, Note_on_c, 8, 53, 86
7, 106752, Note_on_c, 8, 57, 86
7, 106752, Note_on_c, 8, 65, 89
7, 106752, Note_on_c, 8, 60, 81
7, 107136, Note_on_c, 8, 48, 86
7, 107148, Note_off_c, 8, 57, 0
7, 107152, Note_off_c, 8, 60, 0
7, 107156, Note_off_c, 8, 53, 0
7, 107176, Note_off_c, 8, 65, 0
7, 107356, Note_off_c, 8, 48, 0
7, 107392, Note_on_c, 8, 41, 81
7, 107392, Note_on_c, 8, 69, 83
7, 107392, Note_on_c, 8, 60, 83
7, 107392, Note_on_c, 8, 63, 83
7, 107472, Note_off_c, 8, 63, 0
7, 107472, Note_off_c, 8, 60, 0
7, 107484, Note_off_c, 8, 69, 0
7, 107488, Note_off_c, 8, 41, 0
7, 107776, Note_on_c, 8, 41, 79
7, 107776, Note_on_c, 8, 69, 92
7, 107776, Note_on_c, 8, 63, 79
7, 107776, Note_on_c, 8, 60, 74
7, 107860, Note_off_c, 8, 60, 0
7, 107868, Note_off_c, 8, 69, 0
7, 107904, Note_on_c, 8, 67, 70
7, 108052, Note_off_c, 8, 63, 0
7, 108072, Note_off_c, 8, 67, 0
7, 108160, Note_on_c, 8, 63, 77
7, 108160, Note_on_c, 8, 65, 86
7, 108160, Note_on_c, 8, 57, 79
7, 108188, Note_off_c, 8, 41, 0
7, 108288, Note_on_c, 8, 53, 83
7, 108424, Note_off_c, 8, 57, 0
7, 108460, Note_off_c, 8, 63, 0
7, 108468, Note_off_c, 8, 65, 0
7, 108544, Note_on_c, 8, 63, 81
7, 108544, Note_on_c, 8, 67, 81
7, 108544, Note_on_c, 8, 57, 81
7, 108616, Note_off_c, 8, 57, 0
7, 108640, Note_off_c, 8, 63, 0
7, 108660, Note_off_c, 8, 67, 0
7, 108672, Note_on_c, 8, 57, 76
7, 108672, Note_on_c, 8, 63, 43
7, 108672, Note_on_c, 8, 65, 77
7, 108700, Note_off_c, 8, 63, 0
7, 108916, Note_off_c, 8, 53, 0
7, 108928, Note_on_c, 8, 41, 83
7, 108944, Note_off_c, 8, 57, 0
7, 109016, Note_off_c, 8, 65, 0
7, 109056, Note_on_c, 8, 46, 89
7, 109076, Note_off_c, 8, 41, 0
7, 109312, Note_on_c, 8, 62, 78
7, 109312, Note_on_c, 8, 65, 77
7, 109312, Note_on_c, 8, 58, 77
7, 109372, Note_off_c, 8, 46, 0
7, 109376, Note_off_c, 8, 58, 0
7, 109384, Note_off_c, 8, 62, 0
7, 109400, Note_off_c, 8, 65, 0
7, 109696, Note_on_c, 8, 46, 77
7, 109824, Note_on_c, 8, 62, 78
7, 109824, Note_on_c, 8, 58, 86
7, 109824, Note_on_c, 8, 65, 76
7, 109952, Control_c, 8, 64, 127
7, 109968, Note_off_c, 8, 58, 0
7, 110000, Note_off_c, 8, 62, 0
7, 110020, Note_off_c, 8, 65, 0
7, 110092, Note_off_c, 8, 46, 0
7, 110372, Control_c, 8, 64, 0
7, 110464, Note_on_c, 8, 46, 86
7, 110464, Note_on_c, 8, 65, 81
7, 110464, Note_on_c, 8, 70, 81
7, 110464, Note_on_c, 8, 73, 83
7, 110556, Note_off_c, 8, 70, 0
7, 110568, Note_off_c, 8, 65, 0
7, 110588, Note_off_c, 8, 46, 0
7, 110596, Note_off_c, 8, 73, 0
7, 110848, Note_on_c, 8, 65, 92
7, 110848, Note_on_c, 8, 69, 73
7, 110848, Note_on_c, 8, 70, 83
7, 110848, Note_on_c, 8, 73, 81
7, 110848, Note_on_c, 8, 46, 83
7, 110888, Note_off_c, 8, 69, 0
7, 110924, Note_off_c, 8, 70, 0
7, 110940, Note_off_c, 8, 73, 0
7, 110952, Note_off_c, 8, 65, 0
7, 110976, Note_on_c, 8, 65, 61
7, 110976, Note_on_c, 8, 72, 78
7, 111116, Note_off_c, 8, 65, 0
7, 111180, Note_off_c, 8, 72, 0
7, 111232, Note_on_c, 8, 65, 76
7, 111232, Note_on_c, 8, 70, 94
7, 111344, Note_off_c, 8, 46, 0
7, 111360, Note_on_c, 8, 58, 77
7, 111544, Note_off_c, 8, 65, 0
7, 111604, Note_off_c, 8, 70, 0
7, 111616, Note_on_c, 8, 72, 73
7, 111616, Note_on_c, 8, 70, 35
7, 111616, Note_on_c, 8, 65, 61
7, 111648, Note_off_c, 8, 70, 0
7, 111684, Note_off_c, 8, 65, 0
7, 111692, Note_off_c, 8, 72, 0
7, 111744, Note_on_c, 8, 65, 68
7, 111744, Note_on_c, 8, 70, 61
7, 111744, Note_on_c, 8, 73, 79
7, 111768, Note_off_c, 8, 70, 0
7, 111936, Note_off_c, 8, 73, 0
7, 111948, Note_off_c, 8, 65, 0
7, 111968, Note_off_c, 8, 58, 0
7, 112000, Note_on_c, 8, 69, 86
7, 112000, Note_on_c, 8, 72, 97
7, 112000, Note_on_c, 8, 46, 71
7, 112000, Note_on_c, 8, 65, 78
7, 112060, Note_off_c, 8, 46, 0
7, 112128, Note_on_c, 8, 41, 83
7, 112248, Note_off_c, 8, 65, 0
7, 112252, Note_off_c, 8, 72, 0
7, 112252, Note_off_c, 8, 69, 0
7, 112384, Note_on_c, 8, 65, 72
7, 112384, Note_on_c, 8, 69, 94
7, 112384, Note_on_c, 8, 72, 94
7, 112424, Note_off_c, 8, 65, 0
7, 112516, Note_off_c, 8, 69, 0
7, 112540, Note_off_c, 8, 72, 0
7, 112640, Note_on_c, 8, 53, 21
7, 112644, Note_off_c, 8, 53, 0
7, 112712, Note_off_c, 8, 41, 0
7, 112768, Note_on_c, 8, 62, 74
7, 112768, Note_on_c, 8, 53, 73
7, 112840, Note_off_c, 8, 53, 0
7, 112852, Note_off_c, 8, 62, 0
7, 112896, Note_on_c, 8, 43, 77
7, 112896, Note_on_c, 8, 67, 76
7, 112896, Note_on_c, 8, 62, 74
7, 112896, Note_on_c, 8, 70, 86
7, 113068, Note_off_c, 8, 62, 0
7, 113080, Note_off_c, 8, 67, 0
7, 113096, Note_off_c, 8, 70, 0
7, 113152, Note_on_c, 8, 67, 78
7, 113152, Note_on_c, 8, 70, 74
7, 113152, Note_on_c, 8, 62, 86
7, 113224, Note_off_c, 8, 62, 0
7, 113240, Note_off_c, 8, 67, 0
7, 113272, Note_off_c, 8, 70, 0
7, 113280, Note_on_c, 8, 55, 63
7, 113340, Note_off_c, 8, 55, 0
7, 113524, Note_off_c, 8, 43, 0
7, 113536, Note_on_c, 8, 55, 68
7, 113536, Note_on_c, 8, 64, 72
7, 113608, Note_off_c, 8, 64, 0
7, 113616, Note_off_c, 8, 55, 0
7, 113664, Note_on_c, 8, 67, 72
7, 113664, Note_on_c, 8, 45, 56
7, 113664, Note_on_c, 8, 72, 53
7, 113664, Note_on_c, 8, 64, 58
7, 113812, Note_off_c, 8, 72, 0
7, 113868, Note_off_c, 8, 67, 0
7, 113920, Note_on_c, 8, 74, 79
7, 113976, Note_off_c, 8, 74, 0
7, 114028, Note_off_c, 8, 45, 0
7, 114048, Note_on_c, 8, 57, 79
7, 114048, Note_on_c, 8, 76, 86
7, 114128, Note_off_c, 8, 64, 0
7, 114152, Note_off_c, 8, 76, 0
7, 114192, Note_off_c, 8, 57, 0
7, 114304, Note_on_c, 8, 69, 83
7, 114304, Note_on_c, 8, 74, 83
7, 114304, Note_on_c, 8, 66, 86
7, 114304, Note_on_c, 8, 50, 70
7, 114304, Note_on_c, 8, 57, 65
7, 114608, Note_off_c, 8, 66, 0
7, 114616, Note_off_c, 8, 69, 0
7, 114624, Note_off_c, 8, 74, 0
7, 114688, Note_on_c, 8, 72, 81
7, 114688, Note_on_c, 8, 66, 83
7, 114688, Note_on_c, 8, 69, 79
7, 114716, Note_off_c, 8, 57, 0
7, 114784, Note_off_c, 8, 50, 0
7, 114816, Note_on_c, 8, 62, 71
7, 115004, Note_off_c, 8, 69, 0
7, 115032, Note_off_c, 8, 72, 0
7, 115036, Note_off_c, 8, 66, 0
7, 115072, Note_on_c, 8, 54, 71
7, 115136, Note_off_c, 8, 62, 0
7, 115200, Note_off_c, 8, 54, 0
7, 115200, Note_on_c, 8, 62, 76
7, 115200, Note_on_c, 8, 71, 83
7, 115200, Note_on_c, 8, 55, 81
7, 115200, Note_on_c, 8, 65, 76
7, 115432, Note_off_c, 8, 55, 0
7, 115488, Note_off_c, 8, 62, 0
7, 115496, Note_off_c, 8, 65, 0
7, 115496, Note_off_c, 8, 71, 0
7, 115584, Note_on_c, 8, 62, 78
7, 115584, Note_on_c, 8, 55, 78
7, 115584, Note_on_c, 8, 71, 89
7, 115584, Note_on_c, 8, 65, 78
7, 115804, Note_off_c, 8, 55, 0
7, 115832, Note_off_c, 8, 71, 0
7, 115868, Note_off_c, 8, 62, 0
7, 115876, Note_off_c, 8, 65, 0
7, 115968, Note_on_c, 8, 48, 67
7, 115968, Note_on_c, 8, 58, 79
7, 115968, Note_on_c, 8, 70, 83
7, 115968, Note_on_c, 8, 64, 77
7, 115968, Note_on_c, 8, 60, 73
7, 116192, Note_off_c, 8, 58, 0
7, 116232, Note_off_c, 8, 48, 0
7, 116268, Note_off_c, 8, 60, 0
7, 116268, Note_off_c, 8, 70, 0
7, 116272, Note_off_c, 8, 64, 0
7, 116352, Note_on_c, 8, 58, 73
7, 116352, Note_on_c, 8, 64, 77
7, 116352, Note_on_c, 8, 60, 67
7, 116352, Note_on_c, 8, 70, 77
7, 116352, Note_on_c, 8, 48, 74
7, 116512, Note_off_c, 8, 58, 0
7, 116520, Note_off_c, 8, 64, 0
7, 116552, Note_off_c, 8, 60, 0
7, 116560, Note_off_c, 8, 70, 0
7, 116568, Note_off_c, 8, 48, 0
7, 116608, Note_on_c, 8, 65, 77
7, 116608, Note_on_c, 8, 69, 83
7, 116608, Note_on_c, 8, 53, 83
7, 116608, Note_on_c, 8, 60, 78
7, 118044, Note_off_c, 8, 53, 0
7, 118044, Note_off_c, 8, 69, 0
7, 118052, Note_off_c, 8, 60, 0
7, 118064, Note_off_c, 8, 65, 0
7, 118272, Note_on_c, 8, 60, 92
7, 118272, Note_on_c, 8, 53, 86
7, 118272, Note_on_c, 8, 65, 79
7, 118272, Note_on_c, 8, 57, 86
7, 118432, Note_off_c, 8, 60, 0
7, 118436, Note_off_c, 8, 53, 0
7, 118440, Note_off_c, 8, 65, 0
7, 118444, Note_off_c, 8, 57, 0
7, 120832, Note_on_c, 8, 53, 94
7, 120832, Note_on_c, 8, 60, 89
7, 120832, Note_on_c, 8, 57, 86
7, 120832, Note_on_c, 8, 65, 83
7, 121240, Note_off_c, 8, 57, 0
7, 121240, Note_off_c, 8, 53, 0
7, 121256, Note_off_c, 8, 65, 0
7, 121284, Note_off_c, 8, 60, 0
7, 121344, Note_on_c, 8, 62, 86
7, 121344, Note_on_c, 8, 65, 78
7, 121344, Note_on_c, 8, 46, 83
7, 121344, Note_on_c, 8, 58, 72
7, 121536, Note_off_c, 8, 65, 0
7, 121540, Note_off_c, 8, 62, 0
7, 121544, Note_off_c, 8, 58, 0
7, 121544, Note_off_c, 8, 46, 0
7, 123904, Note_on_c, 8, 46, 78
7, 123904, Note_on_c, 8, 58, 76
7, 123904, Note_on_c, 8, 62, 94
7, 123904, Note_on_c, 8, 65, 79
7, 124308, Note_off_c, 8, 58, 0
7, 124316, Note_off_c, 8, 62, 0
7, 124316, Note_off_c, 8, 46, 0
7, 124332, Note_off_c, 8, 65, 0
7, 124416, Note_on_c, 8, 43, 92
7, 124416, Note_on_c, 8, 67, 81
7, 124416, Note_on_c, 8, 62, 81
7, 124416, Note_on_c, 8, 59, 83
7, 124580, Note_off_c, 8, 67, 0
7, 124584, Note_off_c, 8, 62, 0
7, 124596, Note_off_c, 8, 59, 0
7, 124604, Note_off_c, 8, 43, 0
7, 126976, Note_on_c, 8, 67, 86
7, 126976, Note_on_c, 8, 62, 79
7, 126976, Note_on_c, 8, 43, 97
7, 126976, Note_on_c, 8, 59, 92
7, 127348, Note_off_c, 8, 59, 0
7, 127372, Note_off_c, 8, 43, 0
7, 127392, Note_off_c, 8, 62, 0
7, 127408, Note_off_c, 8, 67, 0
7, 127488, Note_on_c, 8, 64, 89
7, 127488, Note_on_c, 8, 60, 83
7, 127488, Note_on_c, 8, 67, 92
7, 127488, Note_on_c, 8, 48, 89
7, 127640, Note_off_c, 8, 48, 0
7, 127640, Note_off_c, 8, 67, 0
7, 127644, Note_off_c, 8, 60, 0
7, 127652, Note_off_c, 8, 64, 0
7, 129408, Note_on_c, 8, 84, 106
7, 129408, Note_on_c, 8, 84, 100
7, 129408, Note_on_c, 8, 82, 94
7, 129408, Note_on_c, 8, 82, 97
7, 129409, Note_off_c, 8, 82, 0
7, 129409, Note_off_c, 8, 84, 0
7, 129532, Note_off_c, 8, 84, 0
7, 129536, Note_on_c, 8, 79, 74
7, 129572, Note_off_c, 8, 82, 0
7, 129660, Note_off_c, 8, 79, 0
7, 129664, Note_on_c, 8, 76, 71
7, 129728, Note_off_c, 8, 76, 0
7, 129792, Note_on_c, 8, 72, 86
7, 129920, Note_on_c, 8, 71, 74
7, 129924, Note_off_c, 8, 72, 0
7, 130012, Note_off_c, 8, 71, 0
7, 130048, Note_on_c, 8, 70, 70
7, 130156, Note_off_c, 8, 70, 0
7, 130176, Note_on_c, 8, 67, 83
7, 130272, Note_off_c, 8, 67, 0
7, 130304, Note_on_c, 8, 64, 73
7, 130364, Note_off_c, 8, 64, 0
7, 130432, Note_on_c, 8, 60, 71
7, 130496, Note_off_c, 8, 60, 0
7, 130560, Note_on_c, 8, 41, 79
7, 130816, Note_on_c, 8, 69, 89
7, 130816, Note_on_c, 8, 65, 83
7, 130816, Note_on_c, 8, 60, 83
7, 130836, Note_off_c, 8, 41, 0
7, 130900, Note_off_c, 8, 60, 0
7, 130900, Note_off_c, 8, 65, 0
7, 130928, Note_off_c, 8, 69, 0
7, 130944, Note_on_c, 8, 53, 73
7, 130996, Note_off_c, 8, 53, 0
7, 131328, Note_on_c, 8, 65, 77
7, 131328, Note_on_c, 8, 69, 83
7, 131328, Note_on_c, 8, 60, 79
7, 131328, Note_on_c, 8, 53, 83
7, 131360, Note_off_c, 8, 53, 0
7, 131704, Note_off_c, 8, 60, 0
7, 131712, Note_on_c, 8, 53, 83
7, 131732, Note_off_c, 8, 65, 0
7, 131744, Note_off_c, 8, 69, 0
7, 131764, Note_off_c, 8, 53, 0
7, 131840, Note_on_c, 8, 46, 21
7, 131844, Note_off_c, 8, 46, 0
7, 131968, Note_on_c, 8, 53, 74
7, 132068, Note_off_c, 8, 53, 0
7, 132096, Note_on_c, 8, 41, 83
7, 132096, Note_on_c, 8, 77, 97
7, 132096, Note_on_c, 8, 75, 94
7, 132164, Note_off_c, 8, 41, 0
7, 132208, Note_off_c, 8, 77, 0
7, 132224, Note_on_c, 8, 72, 71
7, 132272, Note_off_c, 8, 75, 0
7, 132320, Note_off_c, 8, 72, 0
7, 132352, Note_on_c, 8, 69, 86
7, 132412, Note_off_c, 8, 69, 0
7, 132480, Note_on_c, 8, 65, 83
7, 132480, Note_on_c, 8, 67, 71
7, 132480, Note_on_c, 8, 53, 67
7, 132508, Note_off_c, 8, 67, 0
7, 132528, Note_off_c, 8, 53, 0
7, 132592, Note_off_c, 8, 65, 0
7, 132608, Note_on_c, 8, 64, 81
7, 132684, Note_off_c, 8, 64, 0
7, 132736, Note_on_c, 8, 63, 77
7, 132836, Note_off_c, 8, 63, 0
7, 132864, Note_on_c, 8, 41, 71
7, 132992, Note_on_c, 8, 60, 74
7, 133092, Note_off_c, 8, 60, 0
7, 133120, Note_on_c, 8, 57, 77
7, 133188, Note_off_c, 8, 41, 0
7, 133248, Note_on_c, 8, 53, 92
7, 133252, Note_off_c, 8, 57, 0
7, 133376, Note_on_c, 8, 67, 103
7, 133376, Note_on_c, 8, 63, 83
7, 133376, Note_on_c, 8, 57, 83
7, 133412, Note_off_c, 8, 53, 0
7, 133504, Note_on_c, 8, 41, 89
7, 133520, Note_off_c, 8, 57, 0
7, 133564, Note_off_c, 8, 67, 0
7, 133592, Note_off_c, 8, 63, 0
7, 133632, Note_on_c, 8, 62, 81
7, 133632, Note_on_c, 8, 46, 83
7, 133632, Note_on_c, 8, 58, 73
7, 133632, Note_on_c, 8, 65, 76
7, 133640, Note_off_c, 8, 41, 0
7, 133820, Note_off_c, 8, 58, 0
7, 133840, Note_off_c, 8, 62, 0
7, 133844, Note_off_c, 8, 65, 0
7, 133888, Note_on_c, 8, 58, 81
7, 133888, Note_on_c, 8, 67, 94
7, 133888, Note_on_c, 8, 62, 89
7, 133904, Note_off_c, 8, 46, 0
7, 133956, Note_off_c, 8, 62, 0
7, 133960, Note_off_c, 8, 58, 0
7, 134016, Note_on_c, 8, 62, 52
7, 134016, Note_on_c, 8, 58, 41
7, 134016, Note_on_c, 8, 65, 76
7, 134020, Note_off_c, 8, 67, 0
7, 134084, Note_off_c, 8, 62, 0
7, 134096, Note_off_c, 8, 58, 0
7, 134144, Note_off_c, 8, 65, 0
7, 134272, Note_on_c, 8, 46, 83
7, 134400, Note_on_c, 8, 65, 86
7, 134400, Note_on_c, 8, 62, 89
7, 134400, Note_on_c, 8, 58, 78
7, 134684, Note_off_c, 8, 58, 0
7, 134704, Note_off_c, 8, 62, 0
7, 134720, Note_off_c, 8, 65, 0
7, 134824, Note_off_c, 8, 46, 0
7, 135040, Note_on_c, 8, 46, 77
7, 135168, Note_on_c, 8, 70, 97
7, 135168, Note_on_c, 8, 77, 103
7, 135168, Note_on_c, 8, 65, 89
7, 135168, Note_on_c, 8, 73, 92
7, 135312, Note_off_c, 8, 65, 0
7, 135328, Note_off_c, 8, 77, 0
7, 135328, Note_off_c, 8, 70, 0
7, 135332, Note_off_c, 8, 73, 0
7, 135424, Note_on_c, 8, 70, 83
7, 135424, Note_on_c, 8, 73, 83
7, 135424, Note_on_c, 8, 77, 89
7, 135424, Note_on_c, 8, 65, 83
7, 135500, Note_off_c, 8, 65, 0
7, 135520, Note_off_c, 8, 46, 0
7, 135524, Note_off_c, 8, 70, 0
7, 135536, Note_off_c, 8, 77, 0
7, 135544, Note_off_c, 8, 73, 0
7, 135552, Note_on_c, 8, 58, 97
7, 135808, Note_on_c, 8, 65, 46
7, 135856, Note_off_c, 8, 65, 0
7, 135936, Note_on_c, 8, 70, 86
7, 135936, Note_on_c, 8, 77, 97
7, 135936, Note_on_c, 8, 73, 89
7, 135936, Note_on_c, 8, 65, 81
7, 136108, Note_off_c, 8, 65, 0
7, 136124, Note_off_c, 8, 70, 0
7, 136144, Note_off_c, 8, 73, 0
7, 136144, Note_off_c, 8, 77, 0
7, 136192, Note_on_c, 8, 65, 77
7, 136192, Note_on_c, 8, 70, 83
7, 136192, Note_on_c, 8, 77, 81
7, 136192, Note_on_c, 8, 73, 67
7, 136260, Note_off_c, 8, 73, 0
7, 136260, Note_off_c, 8, 65, 0
7, 136264, Note_off_c, 8, 70, 0
7, 136292, Note_off_c, 8, 77, 0
7, 136456, Note_off_c, 8, 58, 0
7, 136576, Note_on_c, 8, 46, 77
7, 136704, Note_off_c, 8, 46, 0
7, 136704, Note_on_c, 8, 53, 70
7, 136832, Note_on_c, 8, 65, 72
7, 136908, Note_off_c, 8, 65, 0
7, 136960, Note_on_c, 8, 67, 86
7, 137012, Note_off_c, 8, 53, 0
7, 137024, Note_off_c, 8, 67, 0
7, 137088, Note_on_c, 8, 68, 71
7, 137136, Note_off_c, 8, 68, 0
7, 137216, Note_on_c, 8, 69, 83
7, 137284, Note_off_c, 8, 69, 0
7, 137344, Note_on_c, 8, 72, 83
7, 137344, Note_on_c, 8, 53, 74
7, 137416, Note_off_c, 8, 72, 0
7, 137420, Note_off_c, 8, 53, 0
7, 137472, Note_on_c, 8, 55, 81
7, 137472, Note_on_c, 8, 70, 92
7, 137700, Note_off_c, 8, 70, 0
7, 137728, Note_on_c, 8, 67, 89
7, 137760, Note_off_c, 8, 55, 0
7, 137844, Note_off_c, 8, 67, 0
7, 137856, Note_on_c, 8, 55, 72
7, 137912, Note_off_c, 8, 55, 0
7, 137984, Note_on_c, 8, 70, 83
7, 138044, Note_off_c, 8, 70, 0
7, 138112, Note_on_c, 8, 55, 71
7, 138112, Note_on_c, 8, 74, 83
7, 138160, Note_off_c, 8, 74, 0
7, 138188, Note_off_c, 8, 55, 0
7, 138240, Note_on_c, 8, 72, 79
7, 138240, Note_on_c, 8, 57, 77
7, 138448, Note_off_c, 8, 72, 0
7, 138496, Note_on_c, 8, 69, 92
7, 138536, Note_off_c, 8, 57, 0
7, 138636, Note_off_c, 8, 69, 0
7, 138752, Note_on_c, 8, 72, 83
7, 138752, Note_on_c, 8, 57, 74
7, 138800, Note_off_c, 8, 72, 0
7, 138804, Note_off_c, 8, 57, 0
7, 138880, Note_on_c, 8, 76, 92
7, 138880, Note_on_c, 8, 57, 74
7, 138936, Note_off_c, 8, 57, 0
7, 138936, Note_off_c, 8, 76, 0
7, 139008, Note_on_c, 8, 74, 92
7, 139008, Note_on_c, 8, 50, 71
7, 139252, Note_off_c, 8, 74, 0
7, 139384, Note_off_c, 8, 50, 0
7, 139392, Note_on_c, 8, 62, 77
7, 139392, Note_on_c, 8, 72, 86
7, 139548, Note_off_c, 8, 62, 0
7, 139588, Note_off_c, 8, 72, 0
7, 139648, Note_on_c, 8, 54, 72
7, 139764, Note_off_c, 8, 54, 0
7, 139776, Note_on_c, 8, 71, 103
7, 139776, Note_on_c, 8, 55, 79
7, 139944, Note_off_c, 8, 71, 0
7, 140032, Note_on_c, 8, 74, 86
7, 140132, Note_off_c, 8, 74, 0
7, 140288, Note_on_c, 8, 65, 83
7, 140416, Note_on_c, 8, 66, 83
7, 140436, Note_off_c, 8, 65, 0
7, 140480, Note_off_c, 8, 66, 0
7, 140528, Note_off_c, 8, 55, 0
7, 140544, Note_on_c, 8, 67, 68
7, 140544, Note_on_c, 8, 43, 72
7, 140704, Note_off_c, 8, 67, 0
7, 140800, Note_on_c, 8, 65, 79
7, 140888, Note_off_c, 8, 65, 0
7, 140892, Note_off_c, 8, 43, 0
7, 140928, Note_on_c, 8, 62, 72
7, 140928, Note_on_c, 8, 55, 71
7, 141052, Note_off_c, 8, 62, 0
7, 141076, Note_off_c, 8, 55, 0
7, 141184, Note_on_c, 8, 47, 66
7, 141184, Note_on_c, 8, 63, 83
7, 141268, Note_off_c, 8, 63, 0
7, 141300, Note_off_c, 8, 47, 0
7, 141312, Note_on_c, 8, 64, 73
7, 141312, Note_on_c, 8, 48, 77
7, 141540, Note_off_c, 8, 64, 0
7, 141568, Note_on_c, 8, 67, 77
7, 141672, Note_off_c, 8, 67, 0
7, 141696, Note_on_c, 8, 60, 83
7, 141700, Note_off_c, 8, 48, 0
7, 141924, Note_off_c, 8, 60, 0
7, 141952, Note_on_c, 8, 48, 79
7, 142080, Note_on_c, 8, 72, 83
7, 142080, Note_on_c, 8, 60, 79
7, 142080, Note_on_c, 8, 70, 89
7, 142252, Note_off_c, 8, 60, 0
7, 142272, Note_off_c, 8, 72, 0
7, 142284, Note_off_c, 8, 70, 0
7, 142336, Note_on_c, 8, 72, 83
7, 142336, Note_on_c, 8, 60, 79
7, 142336, Note_on_c, 8, 70, 81
7, 142388, Note_off_c, 8, 48, 0
7, 142404, Note_off_c, 8, 60, 0
7, 142464, Note_off_c, 8, 72, 0
7, 142468, Note_off_c, 8, 70, 0
7, 142720, Note_on_c, 8, 48, 67
7, 142720, Note_on_c, 8, 65, 62
7, 142780, Note_off_c, 8, 65, 0
7, 142788, Note_off_c, 8, 48, 0
7, 142848, Note_on_c, 8, 74, 83
7, 142848, Note_on_c, 8, 65, 77
7, 142848, Note_on_c, 8, 71, 83
7, 142848, Note_on_c, 8, 43, 72
7, 142992, Note_off_c, 8, 65, 0
7, 143020, Note_off_c, 8, 71, 0
7, 143032, Note_off_c, 8, 74, 0
7, 143104, Note_on_c, 8, 74, 77
7, 143104, Note_on_c, 8, 65, 78
7, 143104, Note_on_c, 8, 71, 86
7, 143232, Note_off_c, 8, 71, 0
7, 143232, Note_on_c, 8, 55, 83
7, 143244, Note_off_c, 8, 65, 0
7, 143264, Note_off_c, 8, 43, 0
7, 143268, Note_off_c, 8, 74, 0
7, 143296, Note_off_c, 8, 55, 0
7, 143488, Note_on_c, 8, 55, 70
7, 143488, Note_on_c, 8, 65, 42
7, 143540, Note_off_c, 8, 65, 0
7, 143568, Note_off_c, 8, 55, 0
7, 143616, Note_on_c, 8, 71, 89
7, 143616, Note_on_c, 8, 43, 72
7, 143616, Note_on_c, 8, 65, 72
7, 143616, Note_on_c, 8, 74, 79
7, 143716, Note_off_c, 8, 65, 0
7, 143760, Note_off_c, 8, 71, 0
7, 143780, Note_off_c, 8, 74, 0
7, 143872, Note_on_c, 8, 71, 62
7, 143872, Note_on_c, 8, 65, 27
7, 143872, Note_on_c, 8, 74, 63
7, 143900, Note_off_c, 8, 65, 0
7, 143924, Note_off_c, 8, 71, 0
7, 143932, Note_off_c, 8, 74, 0
7, 143968, Note_off_c, 8, 43, 0
7, 144000, Note_on_c, 8, 65, 63
7, 144000, Note_on_c, 8, 75, 92
7, 144000, Note_on_c, 8, 55, 68
7, 144156, Note_off_c, 8, 65, 0
7, 144160, Note_off_c, 8, 55, 0
7, 144184, Note_off_c, 8, 75, 0
7, 144256, Note_on_c, 8, 47, 66
7, 144368, Note_off_c, 8, 47, 0
7, 144384, Note_on_c, 8, 76, 89
7, 144384, Note_on_c, 8, 48, 81
7, 144384, Note_on_c, 8, 64, 83
7, 144384, Note_on_c, 8, 70, 94
7, 144512, Note_on_c, 8, 62, 79
7, 144516, Note_off_c, 8, 70, 0
7, 144516, Note_off_c, 8, 64, 0
7, 144524, Note_off_c, 8, 48, 0
7, 144556, Note_off_c, 8, 76, 0
7, 144568, Note_off_c, 8, 62, 0
7, 145920, Note_on_c, 8, 57, 73
7, 145920, Note_on_c, 8, 41, 70
7, 145920, Note_on_c, 8, 65, 77
7, 145920, Note_on_c, 8, 60, 73
7, 145968, Note_off_c, 8, 60, 0
7, 145984, Note_off_c, 8, 65, 0
7, 145988, Note_off_c, 8, 57, 0
7, 145996, Note_off_c, 8, 41, 0
7, 146176, Note_on_c, 8, 65, 78
7, 146176, Note_on_c, 8, 45, 74
7, 146176, Note_on_c, 8, 63, 83
7, 146176, Note_on_c, 8, 57, 83
7, 146572, Note_off_c, 8, 57, 0
7, 146636, Note_off_c, 8, 63, 0
7, 146636, Note_off_c, 8, 45, 0
7, 146664, Note_off_c, 8, 65, 0
7, 146688, Note_on_c, 8, 46, 70
7, 146688, Note_on_c, 8, 58, 56
7, 146688, Note_on_c, 8, 65, 58
7, 146688, Note_on_c, 8, 62, 70
7, 146768, Note_off_c, 8, 62, 0
7, 146772, Note_off_c, 8, 58, 0
7, 146784, Note_off_c, 8, 65, 0
7, 146784, Note_off_c, 8, 46, 0
7, 147072, Note_on_c, 8, 58, 67
7, 147072, Note_on_c, 8, 46, 74
7, 147072, Note_on_c, 8, 61, 86
7, 147072, Note_on_c, 8, 65, 74
7, 147240, Note_off_c, 8, 61, 0
7, 147292, Note_off_c, 8, 58, 0
7, 147400, Note_off_c, 8, 65, 0
7, 147444, Note_off_c, 8, 46, 0
7, 147456, Note_on_c, 8, 48, 83
7, 147456, Note_on_c, 8, 65, 73
7, 147456, Note_on_c, 8, 57, 70
7, 147456, Note_on_c, 8, 60, 70
7, 147512, Note_off_c, 8, 60, 0
7, 147512, Note_off_c, 8, 57, 0
7, 147520, Note_off_c, 8, 48, 0
7, 147532, Note_off_c, 8, 65, 0
7, 147840, Note_on_c, 8, 53, 83
7, 147840, Note_on_c, 8, 50, 79
7, 147840, Note_on_c, 8, 48, 92
7, 147840, Note_on_c, 8, 58, 81
7, 147972, Note_off_c, 8, 50, 0
7, 148004, Note_off_c, 8, 53, 0
7, 148020, Note_off_c, 8, 48, 0
7, 148040, Note_off_c, 8, 58, 0
7, 148096, Note_on_c, 8, 48, 70
7, 148096, Note_on_c, 8, 57, 74
7, 148096, Note_on_c, 8, 41, 68
7, 148096, Note_on_c, 8, 51, 78
7, 150272, Note_off_c, 8, 51, 0
7, 150280, Note_off_c, 8, 48, 0
7, 150292, Note_off_c, 8, 41, 0
7, 150300, Note_off_c, 8, 57, 0
7, 150528, End_track
8, 0, Start_track
8, 0, Title_t, "BassDrum"
8, 1536, Program_c, 9, 0
8, 1536, Control_c, 9, 7, 127
8, 4608, Note_on_c, 9, 36, 69
8, 4672, Note_off_c, 9, 36, 0
8, 5376, Note_on_c, 9, 36, 93
8, 5444, Note_off_c, 9, 36, 0
8, 6144, Note_on_c, 9, 36, 93
8, 6212, Note_off_c, 9, 36, 0
8, 6912, Note_on_c, 9, 36, 93
8, 6976, Note_off_c, 9, 36, 0
8, 7680, Note_on_c, 9, 36, 69
8, 7744, Note_off_c, 9, 36, 0
8, 8448, Note_on_c, 9, 36, 93
8, 8516, Note_off_c, 9, 36, 0
8, 9216, Note_on_c, 9, 36, 93
8, 9284, Note_off_c, 9, 36, 0
8, 9984, Note_on_c, 9, 36, 93
8, 10048, Note_off_c, 9, 36, 0
8, 10752, Note_on_c, 9, 36, 69
8, 10816, Note_off_c, 9, 36, 0
8, 11520, Note_on_c, 9, 36, 93
8, 11588, Note_off_c, 9, 36, 0
8, 12288, Note_on_c, 9, 36, 93
8, 12356, Note_off_c, 9, 36, 0
8, 13056, Note_on_c, 9, 36, 93
8, 13120, Note_off_c, 9, 36, 0
8, 13824, Note_on_c, 9, 36, 69
8, 13888, Note_off_c, 9, 36, 0
8, 14592, Note_on_c, 9, 36, 93
8, 14660, Note_off_c, 9, 36, 0
8, 15360, Note_on_c, 9, 36, 93
8, 15428, Note_off_c, 9, 36, 0
8, 16128, Note_on_c, 9, 36, 93
8, 16192, Note_off_c, 9, 36, 0
8, 16896, Note_on_c, 9, 36, 69
8, 16960, Note_off_c, 9, 36, 0
8, 17664, Note_on_c, 9, 36, 93
8, 17732, Note_off_c, 9, 36, 0
8, 18432, Note_on_c, 9, 36, 93
8, 18500, Note_off_c, 9, 36, 0
8, 19200, Note_on_c, 9, 36, 93
8, 19264, Note_off_c, 9, 36, 0
8, 19968, Note_on_c, 9, 36, 69
8, 20032, Note_off_c, 9, 36, 0
8, 20736, Note_on_c, 9, 36, 93
8, 20804, Note_off_c, 9, 36, 0
8, 21504, Note_on_c, 9, 36, 93
8, 21572, Note_off_c, 9, 36, 0
8, 22272, Note_on_c, 9, 36, 93
8, 22336, Note_off_c, 9, 36, 0
8, 23040, Note_on_c, 9, 36, 69
8, 23104, Note_off_c, 9, 36, 0
8, 23808, Note_on_c, 9, 36, 93
8, 23876, Note_off_c, 9, 36, 0
8, 24576, Note_on_c, 9, 36, 93
8, 24644, Note_off_c, 9, 36, 0
8, 25344, Note_on_c, 9, 36, 93
8, 25408, Note_off_c, 9, 36, 0
8, 26112, Note_on_c, 9, 36, 69
8, 26176, Note_off_c, 9, 36, 0
8, 26880, Note_on_c, 9, 36, 93
8, 26948, Note_off_c, 9, 36, 0
8, 27648, Note_on_c, 9, 36, 93
8, 27716, Note_off_c, 9, 36, 0
8, 28416, Note_on_c, 9, 36, 93
8, 28480, Note_off_c, 9, 36, 0
8, 29184, Note_on_c, 9, 36, 69
8, 29248, Note_off_c, 9, 36, 0
8, 29952, Note_on_c, 9, 36, 93
8, 30020, Note_off_c, 9, 36, 0
8, 30720, Note_on_c, 9, 36, 93
8, 30788, Note_off_c, 9, 36, 0
8, 31488, Note_on_c, 9, 36, 93
8, 31552, Note_off_c, 9, 36, 0
8, 32256, Note_on_c, 9, 36, 69
8, 32320, Note_off_c, 9, 36, 0
8, 33024, Note_on_c, 9, 36, 93
8, 33092, Note_off_c, 9, 36, 0
8, 33792, Note_on_c, 9, 36, 93
8, 33860, Note_off_c, 9, 36, 0
8, 34560, Note_on_c, 9, 36, 93
8, 34624, Note_off_c, 9, 36, 0
8, 35328, Note_on_c, 9, 36, 69
8, 35392, Note_off_c, 9, 36, 0
8, 36096, Note_on_c, 9, 36, 93
8, 36164, Note_off_c, 9, 36, 0
8, 36864, Note_on_c, 9, 36, 93
8, 36932, Note_off_c, 9, 36, 0
8, 37632, Note_on_c, 9, 36, 93
8, 37696, Note_off_c, 9, 36, 0
8, 38400, Note_on_c, 9, 36, 69
8, 38464, Note_off_c, 9, 36, 0
8, 39168, Note_on_c, 9, 36, 93
8, 39236, Note_off_c, 9, 36, 0
8, 39936, Note_on_c, 9, 36, 93
8, 40004, Note_off_c, 9, 36, 0
8, 40704, Note_on_c, 9, 36, 93
8, 40768, Note_off_c, 9, 36, 0
8, 41472, Note_on_c, 9, 36, 69
8, 41536, Note_off_c, 9, 36, 0
8, 42240, Note_on_c, 9, 36, 93
8, 42308, Note_off_c, 9, 36, 0
8, 43008, Note_on_c, 9, 36, 93
8, 43076, Note_off_c, 9, 36, 0
8, 43776, Note_on_c, 9, 36, 93
8, 43840, Note_off_c, 9, 36, 0
8, 44544, Note_on_c, 9, 36, 69
8, 44608, Note_off_c, 9, 36, 0
8, 45312, Note_on_c, 9, 36, 93
8, 45380, Note_off_c, 9, 36, 0
8, 46080, Note_on_c, 9, 36, 93
8, 46148, Note_off_c, 9, 36, 0
8, 46848, Note_on_c, 9, 36, 93
8, 46912, Note_off_c, 9, 36, 0
8, 47616, Note_on_c, 9, 36, 69
8, 47680, Note_off_c, 9, 36, 0
8, 48384, Note_on_c, 9, 36, 93
8, 48452, Note_off_c, 9, 36, 0
8, 49152, Note_on_c, 9, 36, 93
8, 49220, Note_off_c, 9, 36, 0
8, 49920, Note_on_c, 9, 36, 93
8, 49984, Note_off_c, 9, 36, 0
8, 50688, Note_on_c, 9, 36, 73
8, 50752, Note_off_c, 9, 36, 0
8, 53760, Note_on_c, 9, 36, 69
8, 53824, Note_off_c, 9, 36, 0
8, 54528, Note_on_c, 9, 36, 93
8, 54596, Note_off_c, 9, 36, 0
8, 55296, Note_on_c, 9, 36, 93
8, 55364, Note_off_c, 9, 36, 0
8, 56064, Note_on_c, 9, 36, 93
8, 56128, Note_off_c, 9, 36, 0
8, 56832, Note_on_c, 9, 36, 69
8, 56896, Note_off_c, 9, 36, 0
8, 57600, Note_on_c, 9, 36, 93
8, 57668, Note_off_c, 9, 36, 0
8, 58368, Note_on_c, 9, 36, 93
8, 58436, Note_off_c, 9, 36, 0
8, 59136, Note_on_c, 9, 36, 93
8, 59200, Note_off_c, 9, 36, 0
8, 59904, Note_on_c, 9, 36, 69
8, 59968, Note_off_c, 9, 36, 0
8, 60672, Note_on_c, 9, 36, 93
8, 60740, Note_off_c, 9, 36, 0
8, 61440, Note_on_c, 9, 36, 93
8, 61508, Note_off_c, 9, 36, 0
8, 62208, Note_on_c, 9, 36, 93
8, 62272, Note_off_c, 9, 36, 0
8, 62976, Note_on_c, 9, 36, 69
8, 63040, Note_off_c, 9, 36, 0
8, 63744, Note_on_c, 9, 36, 93
8, 63812, Note_off_c, 9, 36, 0
8, 64512, Note_on_c, 9, 36, 93
8, 64580, Note_off_c, 9, 36, 0
8, 65280, Note_on_c, 9, 36, 93
8, 65344, Note_off_c, 9, 36, 0
8, 66048, Note_on_c, 9, 36, 87
8, 66124, Note_off_c, 9, 36, 0
8, 66816, Note_on_c, 9, 36, 69
8, 66888, Note_off_c, 9, 36, 0
8, 67456, Note_on_c, 9, 36, 93
8, 67504, Note_off_c, 9, 36, 0
8, 68736, Note_on_c, 9, 36, 87
8, 68784, Note_off_c, 9, 36, 0
8, 69120, Note_on_c, 9, 36, 69
8, 69184, Note_off_c, 9, 36, 0
8, 69888, Note_on_c, 9, 36, 93
8, 69956, Note_off_c, 9, 36, 0
8, 70656, Note_on_c, 9, 36, 93
8, 70724, Note_off_c, 9, 36, 0
8, 71424, Note_on_c, 9, 36, 93
8, 71488, Note_off_c, 9, 36, 0
8, 72192, Note_on_c, 9, 36, 69
8, 72256, Note_off_c, 9, 36, 0
8, 72960, Note_on_c, 9, 36, 93
8, 73028, Note_off_c, 9, 36, 0
8, 73728, Note_on_c, 9, 36, 93
8, 73796, Note_off_c, 9, 36, 0
8, 74496, Note_on_c, 9, 36, 93
8, 74560, Note_off_c, 9, 36, 0
8, 75264, Note_on_c, 9, 36, 69
8, 75328, Note_off_c, 9, 36, 0
8, 76032, Note_on_c, 9, 36, 93
8, 76100, Note_off_c, 9, 36, 0
8, 76800, Note_on_c, 9, 36, 93
8, 76868, Note_off_c, 9, 36, 0
8, 77568, Note_on_c, 9, 36, 93
8, 77632, Note_off_c, 9, 36, 0
8, 78336, Note_on_c, 9, 36, 69
8, 78400, Note_off_c, 9, 36, 0
8, 79104, Note_on_c, 9, 36, 93
8, 79172, Note_off_c, 9, 36, 0
8, 79872, Note_on_c, 9, 36, 93
8, 79940, Note_off_c, 9, 36, 0
8, 80640, Note_on_c, 9, 36, 93
8, 80704, Note_off_c, 9, 36, 0
8, 81408, Note_on_c, 9, 36, 69
8, 81472, Note_off_c, 9, 36, 0
8, 82176, Note_on_c, 9, 36, 93
8, 82244, Note_off_c, 9, 36, 0
8, 82944, Note_on_c, 9, 36, 93
8, 83012, Note_off_c, 9, 36, 0
8, 83712, Note_on_c, 9, 36, 93
8, 83776, Note_off_c, 9, 36, 0
8, 84480, Note_on_c, 9, 36, 69
8, 84544, Note_off_c, 9, 36, 0
8, 85248, Note_on_c, 9, 36, 93
8, 85316, Note_off_c, 9, 36, 0
8, 86016, Note_on_c, 9, 36, 93
8, 86084, Note_off_c, 9, 36, 0
8, 86784, Note_on_c, 9, 36, 93
8, 86848, Note_off_c, 9, 36, 0
8, 87552, Note_on_c, 9, 36, 69
8, 87616, Note_off_c, 9, 36, 0
8, 88320, Note_on_c, 9, 36, 93
8, 88388, Note_off_c, 9, 36, 0
8, 89088, Note_on_c, 9, 36, 93
8, 89156, Note_off_c, 9, 36, 0
8, 89856, Note_on_c, 9, 36, 93
8, 89920, Note_off_c, 9, 36, 0
8, 90624, Note_on_c, 9, 36, 69
8, 90688, Note_off_c, 9, 36, 0
8, 91392, Note_on_c, 9, 36, 93
8, 91460, Note_off_c, 9, 36, 0
8, 92160, Note_on_c, 9, 36, 93
8, 92228, Note_off_c, 9, 36, 0
8, 92928, Note_on_c, 9, 36, 93
8, 92992, Note_off_c, 9, 36, 0
8, 93696, Note_on_c, 9, 36, 69
8, 93760, Note_off_c, 9, 36, 0
8, 94464, Note_on_c, 9, 36, 93
8, 94532, Note_off_c, 9, 36, 0
8, 95232, Note_on_c, 9, 36, 93
8, 95300, Note_off_c, 9, 36, 0
8, 96000, Note_on_c, 9, 36, 93
8, 96064, Note_off_c, 9, 36, 0
8, 96768, Note_on_c, 9, 36, 69
8, 96832, Note_off_c, 9, 36, 0
8, 97536, Note_on_c, 9, 36, 93
8, 97604, Note_off_c, 9, 36, 0
8, 98304, Note_on_c, 9, 36, 93
8, 98372, Note_off_c, 9, 36, 0
8, 99072, Note_on_c, 9, 36, 93
8, 99136, Note_off_c, 9, 36, 0
8, 99840, Note_on_c, 9, 36, 69
8, 99904, Note_off_c, 9, 36, 0
8, 100608, Note_on_c, 9, 36, 93
8, 100676, Note_off_c, 9, 36, 0
8, 101376, Note_on_c, 9, 36, 93
8, 101444, Note_off_c, 9, 36, 0
8, 102144, Note_on_c, 9, 36, 93
8, 102208, Note_off_c, 9, 36, 0
8, 102912, Note_on_c, 9, 36, 73
8, 102976, Note_off_c, 9, 36, 0
8, 105984, Note_on_c, 9, 36, 69
8, 106048, Note_off_c, 9, 36, 0
8, 106752, Note_on_c, 9, 36, 93
8, 106820, Note_off_c, 9, 36, 0
8, 107520, Note_on_c, 9, 36, 93
8, 107588, Note_off_c, 9, 36, 0
8, 108288, Note_on_c, 9, 36, 93
8, 108352, Note_off_c, 9, 36, 0
8, 109056, Note_on_c, 9, 36, 69
8, 109120, Note_off_c, 9, 36, 0
8, 109824, Note_on_c, 9, 36, 93
8, 109892, Note_off_c, 9, 36, 0
8, 110592, Note_on_c, 9, 36, 93
8, 110660, Note_off_c, 9, 36, 0
8, 111360, Note_on_c, 9, 36, 93
8, 111424, Note_off_c, 9, 36, 0
8, 112128, Note_on_c, 9, 36, 69
8, 112192, Note_off_c, 9, 36, 0
8, 112896, Note_on_c, 9, 36, 93
8, 112964, Note_off_c, 9, 36, 0
8, 113664, Note_on_c, 9, 36, 93
8, 113732, Note_off_c, 9, 36, 0
8, 114432, Note_on_c, 9, 36, 93
8, 114496, Note_off_c, 9, 36, 0
8, 115200, Note_on_c, 9, 36, 69
8, 115264, Note_off_c, 9, 36, 0
8, 115968, Note_on_c, 9, 36, 93
8, 116036, Note_off_c, 9, 36, 0
8, 116736, Note_on_c, 9, 36, 93
8, 116804, Note_off_c, 9, 36, 0
8, 117504, Note_on_c, 9, 36, 93
8, 117568, Note_off_c, 9, 36, 0
8, 130560, Note_on_c, 9, 36, 69
8, 130624, Note_off_c, 9, 36, 0
8, 131328, Note_on_c, 9, 36, 93
8, 131396, Note_off_c, 9, 36, 0
8, 132096, Note_on_c, 9, 36, 93
8, 132164, Note_off_c, 9, 36, 0
8, 132864, Note_on_c, 9, 36, 93
8, 132928, Note_off_c, 9, 36, 0
8, 133632, Note_on_c, 9, 36, 69
8, 133696, Note_off_c, 9, 36, 0
8, 134400, Note_on_c, 9, 36, 93
8, 134468, Note_off_c, 9, 36, 0
8, 135168, Note_on_c, 9, 36, 93
8, 135236, Note_off_c, 9, 36, 0
8, 135936, Note_on_c, 9, 36, 93
8, 136000, Note_off_c, 9, 36, 0
8, 136704, Note_on_c, 9, 36, 69
8, 136768, Note_off_c, 9, 36, 0
8, 137472, Note_on_c, 9, 36, 93
8, 137540, Note_off_c, 9, 36, 0
8, 138240, Note_on_c, 9, 36, 93
8, 138308, Note_off_c, 9, 36, 0
8, 139008, Note_on_c, 9, 36, 93
8, 139072, Note_off_c, 9, 36, 0
8, 139776, Note_on_c, 9, 36, 69
8, 139840, Note_off_c, 9, 36, 0
8, 140544, Note_on_c, 9, 36, 93
8, 140612, Note_off_c, 9, 36, 0
8, 141312, Note_on_c, 9, 36, 93
8, 141380, Note_off_c, 9, 36, 0
8, 142080, Note_on_c, 9, 36, 93
8, 142144, Note_off_c, 9, 36, 0
8, 142848, Note_on_c, 9, 36, 69
8, 142912, Note_off_c, 9, 36, 0
8, 143616, Note_on_c, 9, 36, 93
8, 143684, Note_off_c, 9, 36, 0
8, 144384, Note_on_c, 9, 36, 93
8, 144452, Note_off_c, 9, 36, 0
8, 145920, Note_on_c, 9, 36, 87
8, 145968, Note_off_c, 9, 36, 0
8, 146176, Note_on_c, 9, 36, 87
8, 146232, Note_off_c, 9, 36, 0
8, 146688, Note_on_c, 9, 36, 93
8, 146736, Note_off_c, 9, 36, 0
8, 147072, Note_on_c, 9, 36, 93
8, 147124, Note_off_c, 9, 36, 0
8, 147456, Note_on_c, 9, 36, 87
8, 147520, Note_off_c, 9, 36, 0
8, 147840, Note_on_c, 9, 36, 93
8, 147892, Note_off_c, 9, 36, 0
8, 148096, Note_on_c, 9, 36, 93
8, 148144, Note_off_c, 9, 36, 0
8, 148480, Note_on_c, 9, 36, 84
8, 148520, Note_off_c, 9, 36, 0
8, 148992, End_track
9, 0, Start_track
9, 0, Title_t, "Snare"
9, 4992, Note_on_c, 9, 38, 87
9, 5060, Note_off_c, 9, 38, 0
9, 5760, Note_on_c, 9, 38, 79
9, 5828, Note_off_c, 9, 38, 0
9, 6528, Note_on_c, 9, 38, 87
9, 6596, Note_off_c, 9, 38, 0
9, 7296, Note_on_c, 9, 38, 87
9, 7356, Note_off_c, 9, 38, 0
9, 8064, Note_on_c, 9, 38, 79
9, 8136, Note_off_c, 9, 38, 0
9, 8832, Note_on_c, 9, 38, 87
9, 8904, Note_off_c, 9, 38, 0
9, 9600, Note_on_c, 9, 38, 87
9, 9668, Note_off_c, 9, 38, 0
9, 10368, Note_on_c, 9, 38, 87
9, 10436, Note_off_c, 9, 38, 0
9, 11136, Note_on_c, 9, 38, 87
9, 11204, Note_off_c, 9, 38, 0
9, 11904, Note_on_c, 9, 38, 87
9, 11972, Note_off_c, 9, 38, 0
9, 12672, Note_on_c, 9, 38, 87
9, 12744, Note_off_c, 9, 38, 0
9, 13440, Note_on_c, 9, 38, 87
9, 13508, Note_off_c, 9, 38, 0
9, 14208, Note_on_c, 9, 38, 87
9, 14276, Note_off_c, 9, 38, 0
9, 14976, Note_on_c, 9, 38, 87
9, 15048, Note_off_c, 9, 38, 0
9, 15744, Note_on_c, 9, 38, 82
9, 15820, Note_off_c, 9, 38, 0
9, 16512, Note_on_c, 9, 38, 87
9, 16576, Note_off_c, 9, 38, 0
9, 17280, Note_on_c, 9, 38, 87
9, 17348, Note_off_c, 9, 38, 0
9, 18048, Note_on_c, 9, 38, 79
9, 18116, Note_off_c, 9, 38, 0
9, 18816, Note_on_c, 9, 38, 87
9, 18884, Note_off_c, 9, 38, 0
9, 19584, Note_on_c, 9, 38, 87
9, 19644, Note_off_c, 9, 38, 0
9, 20352, Note_on_c, 9, 38, 79
9, 20424, Note_off_c, 9, 38, 0
9, 21120, Note_on_c, 9, 38, 87
9, 21192, Note_off_c, 9, 38, 0
9, 21888, Note_on_c, 9, 38, 87
9, 21956, Note_off_c, 9, 38, 0
9, 22656, Note_on_c, 9, 38, 87
9, 22724, Note_off_c, 9, 38, 0
9, 23424, Note_on_c, 9, 38, 87
9, 23492, Note_off_c, 9, 38, 0
9, 24192, Note_on_c, 9, 38, 87
9, 24260, Note_off_c, 9, 38, 0
9, 24960, Note_on_c, 9, 38, 87
9, 25032, Note_off_c, 9, 38, 0
9, 25728, Note_on_c, 9, 38, 87
9, 25796, Note_off_c, 9, 38, 0
9, 26496, Note_on_c, 9, 38, 87
9, 26564, Note_off_c, 9, 38, 0
9, 27264, Note_on_c, 9, 38, 87
9, 27336, Note_off_c, 9, 38, 0
9, 28032, Note_on_c, 9, 38, 82
9, 28108, Note_off_c, 9, 38, 0
9, 28800, Note_on_c, 9, 38, 87
9, 28864, Note_off_c, 9, 38, 0
9, 29568, Note_on_c, 9, 38, 87
9, 29636, Note_off_c, 9, 38, 0
9, 30336, Note_on_c, 9, 38, 79
9, 30404, Note_off_c, 9, 38, 0
9, 31104, Note_on_c, 9, 38, 87
9, 31172, Note_off_c, 9, 38, 0
9, 31872, Note_on_c, 9, 38, 87
9, 31932, Note_off_c, 9, 38, 0
9, 32640, Note_on_c, 9, 38, 79
9, 32712, Note_off_c, 9, 38, 0
9, 33408, Note_on_c, 9, 38, 87
9, 33480, Note_off_c, 9, 38, 0
9, 34176, Note_on_c, 9, 38, 87
9, 34244, Note_off_c, 9, 38, 0
9, 34944, Note_on_c, 9, 38, 87
9, 35012, Note_off_c, 9, 38, 0
9, 35712, Note_on_c, 9, 38, 87
9, 35780, Note_off_c, 9, 38, 0
9, 36480, Note_on_c, 9, 38, 87
9, 36548, Note_off_c, 9, 38, 0
9, 37248, Note_on_c, 9, 38, 87
9, 37320, Note_off_c, 9, 38, 0
9, 38016, Note_on_c, 9, 38, 87
9, 38084, Note_off_c, 9, 38, 0
9, 38784, Note_on_c, 9, 38, 87
9, 38852, Note_off_c, 9, 38, 0
9, 39552, Note_on_c, 9, 38, 87
9, 39624, Note_off_c, 9, 38, 0
9, 40320, Note_on_c, 9, 38, 82
9, 40396, Note_off_c, 9, 38, 0
9, 41088, Note_on_c, 9, 38, 87
9, 41152, Note_off_c, 9, 38, 0
9, 41856, Note_on_c, 9, 38, 87
9, 41924, Note_off_c, 9, 38, 0
9, 42624, Note_on_c, 9, 38, 79
9, 42692, Note_off_c, 9, 38, 0
9, 43392, Note_on_c, 9, 38, 87
9, 43460, Note_off_c, 9, 38, 0
9, 44160, Note_on_c, 9, 38, 87
9, 44220, Note_off_c, 9, 38, 0
9, 44928, Note_on_c, 9, 38, 79
9, 45000, Note_off_c, 9, 38, 0
9, 45696, Note_on_c, 9, 38, 87
9, 45768, Note_off_c, 9, 38, 0
9, 46464, Note_on_c, 9, 38, 87
9, 46532, Note_off_c, 9, 38, 0
9, 47232, Note_on_c, 9, 38, 87
9, 47300, Note_off_c, 9, 38, 0
9, 48000, Note_on_c, 9, 38, 87
9, 48068, Note_off_c, 9, 38, 0
9, 48768, Note_on_c, 9, 38, 87
9, 48836, Note_off_c, 9, 38, 0
9, 49536, Note_on_c, 9, 38, 87
9, 49608, Note_off_c, 9, 38, 0
9, 50304, Note_on_c, 9, 38, 87
9, 50372, Note_off_c, 9, 38, 0
9, 53248, Note_on_c, 9, 38, 87
9, 53308, Note_off_c, 9, 38, 0
9, 53376, Note_on_c, 9, 38, 93
9, 53420, Note_off_c, 9, 38, 0
9, 53632, Note_on_c, 9, 38, 79
9, 53684, Note_off_c, 9, 38, 0
9, 54144, Note_on_c, 9, 38, 87
9, 54212, Note_off_c, 9, 38, 0
9, 54912, Note_on_c, 9, 38, 79
9, 54980, Note_off_c, 9, 38, 0
9, 55680, Note_on_c, 9, 38, 87
9, 55748, Note_off_c, 9, 38, 0
9, 56448, Note_on_c, 9, 38, 87
9, 56508, Note_off_c, 9, 38, 0
9, 57216, Note_on_c, 9, 38, 79
9, 57288, Note_off_c, 9, 38, 0
9, 57984, Note_on_c, 9, 38, 87
9, 58056, Note_off_c, 9, 38, 0
9, 58752, Note_on_c, 9, 38, 87
9, 58820, Note_off_c, 9, 38, 0
9, 59520, Note_on_c, 9, 38, 87
9, 59588, Note_off_c, 9, 38, 0
9, 60288, Note_on_c, 9, 38, 87
9, 60356, Note_off_c, 9, 38, 0
9, 61056, Note_on_c, 9, 38, 87
9, 61124, Note_off_c, 9, 38, 0
9, 61824, Note_on_c, 9, 38, 87
9, 61896, Note_off_c, 9, 38, 0
9, 62592, Note_on_c, 9, 38, 87
9, 62660, Note_off_c, 9, 38, 0
9, 63360, Note_on_c, 9, 38, 87
9, 63428, Note_off_c, 9, 38, 0
9, 64128, Note_on_c, 9, 38, 87
9, 64200, Note_off_c, 9, 38, 0
9, 64896, Note_on_c, 9, 38, 82
9, 64972, Note_off_c, 9, 38, 0
9, 65664, Note_on_c, 9, 38, 87
9, 65728, Note_off_c, 9, 38, 0
9, 66048, Note_on_c, 9, 38, 79
9, 66116, Note_off_c, 9, 38, 0
9, 66304, Note_on_c, 9, 38, 76
9, 66372, Note_off_c, 9, 38, 0
9, 66432, Note_on_c, 9, 38, 73
9, 66504, Note_off_c, 9, 38, 0
9, 66688, Note_on_c, 9, 38, 76
9, 66752, Note_off_c, 9, 38, 0
9, 66816, Note_on_c, 9, 38, 76
9, 66888, Note_off_c, 9, 38, 0
9, 67200, Note_on_c, 9, 38, 82
9, 67268, Note_off_c, 9, 38, 0
9, 67456, Note_on_c, 9, 38, 82
9, 67528, Note_off_c, 9, 38, 0
9, 68736, Note_on_c, 9, 38, 82
9, 68780, Note_off_c, 9, 38, 0
9, 69504, Note_on_c, 9, 38, 87
9, 69572, Note_off_c, 9, 38, 0
9, 70272, Note_on_c, 9, 38, 79
9, 70340, Note_off_c, 9, 38, 0
9, 71040, Note_on_c, 9, 38, 87
9, 71108, Note_off_c, 9, 38, 0
9, 71808, Note_on_c, 9, 38, 87
9, 71868, Note_off_c, 9, 38, 0
9, 72576, Note_on_c, 9, 38, 79
9, 72648, Note_off_c, 9, 38, 0
9, 73344, Note_on_c, 9, 38, 87
9, 73416, Note_off_c, 9, 38, 0
9, 74112, Note_on_c, 9, 38, 87
9, 74180, Note_off_c, 9, 38, 0
9, 74880, Note_on_c, 9, 38, 87
9, 74948, Note_off_c, 9, 38, 0
9, 75648, Note_on_c, 9, 38, 87
9, 75716, Note_off_c, 9, 38, 0
9, 76416, Note_on_c, 9, 38, 87
9, 76484, Note_off_c, 9, 38, 0
9, 77184, Note_on_c, 9, 38, 87
9, 77256, Note_off_c, 9, 38, 0
9, 77952, Note_on_c, 9, 38, 87
9, 78020, Note_off_c, 9, 38, 0
9, 78720, Note_on_c, 9, 38, 87
9, 78788, Note_off_c, 9, 38, 0
9, 79488, Note_on_c, 9, 38, 87
9, 79560, Note_off_c, 9, 38, 0
9, 80256, Note_on_c, 9, 38, 82
9, 80332, Note_off_c, 9, 38, 0
9, 81024, Note_on_c, 9, 38, 87
9, 81088, Note_off_c, 9, 38, 0
9, 81792, Note_on_c, 9, 38, 87
9, 81860, Note_off_c, 9, 38, 0
9, 82560, Note_on_c, 9, 38, 79
9, 82628, Note_off_c, 9, 38, 0
9, 83328, Note_on_c, 9, 38, 87
9, 83396, Note_off_c, 9, 38, 0
9, 84096, Note_on_c, 9, 38, 87
9, 84156, Note_off_c, 9, 38, 0
9, 84864, Note_on_c, 9, 38, 79
9, 84936, Note_off_c, 9, 38, 0
9, 85632, Note_on_c, 9, 38, 87
9, 85704, Note_off_c, 9, 38, 0
9, 86400, Note_on_c, 9, 38, 87
9, 86468, Note_off_c, 9, 38, 0
9, 87168, Note_on_c, 9, 38, 87
9, 87236, Note_off_c, 9, 38, 0
9, 87936, Note_on_c, 9, 38, 87
9, 88004, Note_off_c, 9, 38, 0
9, 88704, Note_on_c, 9, 38, 87
9, 88772, Note_off_c, 9, 38, 0
9, 89472, Note_on_c, 9, 38, 87
9, 89544, Note_off_c, 9, 38, 0
9, 90240, Note_on_c, 9, 38, 87
9, 90308, Note_off_c, 9, 38, 0
9, 91008, Note_on_c, 9, 38, 87
9, 91076, Note_off_c, 9, 38, 0
9, 91776, Note_on_c, 9, 38, 87
9, 91848, Note_off_c, 9, 38, 0
9, 92544, Note_on_c, 9, 38, 82
9, 92620, Note_off_c, 9, 38, 0
9, 93312, Note_on_c, 9, 38, 87
9, 93376, Note_off_c, 9, 38, 0
9, 94080, Note_on_c, 9, 38, 87
9, 94148, Note_off_c, 9, 38, 0
9, 94848, Note_on_c, 9, 38, 79
9, 94916, Note_off_c, 9, 38, 0
9, 95616, Note_on_c, 9, 38, 87
9, 95684, Note_off_c, 9, 38, 0
9, 96384, Note_on_c, 9, 38, 87
9, 96444, Note_off_c, 9, 38, 0
9, 97152, Note_on_c, 9, 38, 79
9, 97224, Note_off_c, 9, 38, 0
9, 97920, Note_on_c, 9, 38, 87
9, 97992, Note_off_c, 9, 38, 0
9, 98688, Note_on_c, 9, 38, 87
9, 98756, Note_off_c, 9, 38, 0
9, 99456, Note_on_c, 9, 38, 87
9, 99524, Note_off_c, 9, 38, 0
9, 100224, Note_on_c, 9, 38, 87
9, 100292, Note_off_c, 9, 38, 0
9, 100992, Note_on_c, 9, 38, 87
9, 101060, Note_off_c, 9, 38, 0
9, 101760, Note_on_c, 9, 38, 87
9, 101832, Note_off_c, 9, 38, 0
9, 102528, Note_on_c, 9, 38, 87
9, 102596, Note_off_c, 9, 38, 0
9, 105472, Note_on_c, 9, 38, 87
9, 105532, Note_off_c, 9, 38, 0
9, 105600, Note_on_c, 9, 38, 93
9, 105644, Note_off_c, 9, 38, 0
9, 105856, Note_on_c, 9, 38, 79
9, 105908, Note_off_c, 9, 38, 0
9, 106368, Note_on_c, 9, 38, 87
9, 106436, Note_off_c, 9, 38, 0
9, 107136, Note_on_c, 9, 38, 79
9, 107204, Note_off_c, 9, 38, 0
9, 107904, Note_on_c, 9, 38, 87
9, 107972, Note_off_c, 9, 38, 0
9, 108672, Note_on_c, 9, 38, 87
9, 108732, Note_off_c, 9, 38, 0
9, 109440, Note_on_c, 9, 38, 79
9, 109512, Note_off_c, 9, 38, 0
9, 110208, Note_on_c, 9, 38, 87
9, 110280, Note_off_c, 9, 38, 0
9, 110976, Note_on_c, 9, 38, 87
9, 111044, Note_off_c, 9, 38, 0
9, 111744, Note_on_c, 9, 38, 87
9, 111812, Note_off_c, 9, 38, 0
9, 112512, Note_on_c, 9, 38, 87
9, 112580, Note_off_c, 9, 38, 0
9, 113280, Note_on_c, 9, 38, 87
9, 113348, Note_off_c, 9, 38, 0
9, 114048, Note_on_c, 9, 38, 87
9, 114120, Note_off_c, 9, 38, 0
9, 114816, Note_on_c, 9, 38, 87
9, 114884, Note_off_c, 9, 38, 0
9, 115584, Note_on_c, 9, 38, 87
9, 115652, Note_off_c, 9, 38, 0
9, 116352, Note_on_c, 9, 38, 87
9, 116424, Note_off_c, 9, 38, 0
9, 117120, Note_on_c, 9, 38, 82
9, 117196, Note_off_c, 9, 38, 0
9, 117888, Note_on_c, 9, 38, 87
9, 117952, Note_off_c, 9, 38, 0
9, 130944, Note_on_c, 9, 38, 87
9, 131012, Note_off_c, 9, 38, 0
9, 131712, Note_on_c, 9, 38, 79
9, 131780, Note_off_c, 9, 38, 0
9, 132480, Note_on_c, 9, 38, 87
9, 132548, Note_off_c, 9, 38, 0
9, 133248, Note_on_c, 9, 38, 87
9, 133308, Note_off_c, 9, 38, 0
9, 134016, Note_on_c, 9, 38, 79
9, 134088, Note_off_c, 9, 38, 0
9, 134784, Note_on_c, 9, 38, 87
9, 134856, Note_off_c, 9, 38, 0
9, 135552, Note_on_c, 9, 38, 87
9, 135620, Note_off_c, 9, 38, 0
9, 136320, Note_on_c, 9, 38, 87
9, 136388, Note_off_c, 9, 38, 0
9, 137088, Note_on_c, 9, 38, 87
9, 137156, Note_off_c, 9, 38, 0
9, 137856, Note_on_c, 9, 38, 87
9, 137924, Note_off_c, 9, 38, 0
9, 138624, Note_on_c, 9, 38, 87
9, 138696, Note_off_c, 9, 38, 0
9, 139392, Note_on_c, 9, 38, 87
9, 139460, Note_off_c, 9, 38, 0
9, 140160, Note_on_c, 9, 38, 87
9, 140228, Note_off_c, 9, 38, 0
9, 140928, Note_on_c, 9, 38, 87
9, 141000, Note_off_c, 9, 38, 0
9, 141696, Note_on_c, 9, 38, 82
9, 141772, Note_off_c, 9, 38, 0
9, 142464, Note_on_c, 9, 38, 87
9, 142528, Note_off_c, 9, 38, 0
9, 143232, Note_on_c, 9, 38, 87
9, 143296, Note_off_c, 9, 38, 0
9, 144000, Note_on_c, 9, 38, 87
9, 144056, Note_off_c, 9, 38, 0
9, 144384, Note_on_c, 9, 38, 87
9, 144440, Note_off_c, 9, 38, 0
9, 146176, Note_on_c, 9, 38, 93
9, 146232, Note_off_c, 9, 38, 0
9, 146688, Note_on_c, 9, 38, 102
9, 146748, Note_off_c, 9, 38, 0
9, 147072, Note_on_c, 9, 38, 87
9, 147128, Note_off_c, 9, 38, 0
9, 147456, Note_on_c, 9, 38, 87
9, 147508, Note_off_c, 9, 38, 0
9, 147712, Note_on_c, 9, 38, 79
9, 147764, Note_off_c, 9, 38, 0
9, 147840, Note_on_c, 9, 38, 87
9, 147888, Note_off_c, 9, 38, 0
9, 148096, Note_on_c, 9, 38, 93
9, 148152, Note_off_c, 9, 38, 0
9, 148992, End_track
10, 0, Start_track
10, 0, Title_t, "HiHat"
10, 4992, Note_on_c, 9, 44, 92
10, 5052, Note_off_c, 9, 44, 0
10, 5760, Note_on_c, 9, 44, 92
10, 5820, Note_off_c, 9, 44, 0
10, 6528, Note_on_c, 9, 44, 83
10, 6580, Note_off_c, 9, 44, 0
10, 7168, Note_on_c, 9, 42, 77
10, 7212, Note_off_c, 9, 42, 0
10, 7296, Note_on_c, 9, 44, 92
10, 7344, Note_off_c, 9, 44, 0
10, 7552, Note_on_c, 9, 42, 89
10, 7600, Note_off_c, 9, 42, 0
10, 8064, Note_on_c, 9, 44, 92
10, 8120, Note_off_c, 9, 44, 0
10, 8832, Note_on_c, 9, 44, 89
10, 8884, Note_off_c, 9, 44, 0
10, 9600, Note_on_c, 9, 44, 83
10, 9656, Note_off_c, 9, 44, 0
10, 10240, Note_on_c, 9, 42, 77
10, 10284, Note_off_c, 9, 42, 0
10, 10368, Note_on_c, 9, 44, 92
10, 10420, Note_off_c, 9, 44, 0
10, 10624, Note_on_c, 9, 42, 89
10, 10672, Note_off_c, 9, 42, 0
10, 11136, Note_on_c, 9, 44, 92
10, 11188, Note_off_c, 9, 44, 0
10, 11904, Note_on_c, 9, 44, 86
10, 11960, Note_off_c, 9, 44, 0
10, 12672, Note_on_c, 9, 44, 92
10, 12732, Note_off_c, 9, 44, 0
10, 13312, Note_on_c, 9, 42, 77
10, 13356, Note_off_c, 9, 42, 0
10, 13440, Note_on_c, 9, 44, 92
10, 13492, Note_off_c, 9, 44, 0
10, 13696, Note_on_c, 9, 42, 89
10, 13744, Note_off_c, 9, 42, 0
10, 14208, Note_on_c, 9, 44, 92
10, 14260, Note_off_c, 9, 44, 0
10, 14976, Note_on_c, 9, 44, 86
10, 15028, Note_off_c, 9, 44, 0
10, 15744, Note_on_c, 9, 44, 83
10, 15800, Note_off_c, 9, 44, 0
10, 16384, Note_on_c, 9, 42, 77
10, 16428, Note_off_c, 9, 42, 0
10, 16512, Note_on_c, 9, 44, 97
10, 16564, Note_off_c, 9, 44, 0
10, 16768, Note_on_c, 9, 42, 89
10, 16816, Note_off_c, 9, 42, 0
10, 17280, Note_on_c, 9, 44, 92
10, 17340, Note_off_c, 9, 44, 0
10, 18048, Note_on_c, 9, 44, 92
10, 18108, Note_off_c, 9, 44, 0
10, 18816, Note_on_c, 9, 44, 83
10, 18868, Note_off_c, 9, 44, 0
10, 19456, Note_on_c, 9, 42, 77
10, 19500, Note_off_c, 9, 42, 0
10, 19584, Note_on_c, 9, 44, 92
10, 19632, Note_off_c, 9, 44, 0
10, 19840, Note_on_c, 9, 42, 89
10, 19888, Note_off_c, 9, 42, 0
10, 20352, Note_on_c, 9, 44, 92
10, 20408, Note_off_c, 9, 44, 0
10, 21120, Note_on_c, 9, 44, 89
10, 21172, Note_off_c, 9, 44, 0
10, 21888, Note_on_c, 9, 44, 83
10, 21944, Note_off_c, 9, 44, 0
10, 22528, Note_on_c, 9, 42, 77
10, 22572, Note_off_c, 9, 42, 0
10, 22656, Note_on_c, 9, 44, 92
10, 22708, Note_off_c, 9, 44, 0
10, 22912, Note_on_c, 9, 42, 89
10, 22960, Note_off_c, 9, 42, 0
10, 23424, Note_on_c, 9, 44, 92
10, 23476, Note_off_c, 9, 44, 0
10, 24192, Note_on_c, 9, 44, 86
10, 24248, Note_off_c, 9, 44, 0
10, 24960, Note_on_c, 9, 44, 92
10, 25020, Note_off_c, 9, 44, 0
10, 25600, Note_on_c, 9, 42, 77
10, 25644, Note_off_c, 9, 42, 0
10, 25728, Note_on_c, 9, 44, 92
10, 25780, Note_off_c, 9, 44, 0
10, 25984, Note_on_c, 9, 42, 89
10, 26032, Note_off_c, 9, 42, 0
10, 26496, Note_on_c, 9, 44, 92
10, 26548, Note_off_c, 9, 44, 0
10, 27264, Note_on_c, 9, 44, 86
10, 27316, Note_off_c, 9, 44, 0
10, 27648, Note_on_c, 9, 42, 74
10, 27680, Note_off_c, 9, 42, 0
10, 28032, Note_on_c, 9, 44, 79
10, 28076, Note_off_c, 9, 44, 0
10, 28416, Note_on_c, 9, 42, 71
10, 28456, Note_off_c, 9, 42, 0
10, 28544, Note_on_c, 9, 42, 71
10, 28584, Note_off_c, 9, 42, 0
10, 28672, Note_on_c, 9, 42, 72
10, 28712, Note_off_c, 9, 42, 0
10, 28800, Note_on_c, 9, 42, 79
10, 28844, Note_off_c, 9, 42, 0
10, 28928, Note_on_c, 9, 42, 81
10, 28964, Note_off_c, 9, 42, 0
10, 29056, Note_on_c, 9, 42, 89
10, 29096, Note_off_c, 9, 42, 0
10, 29568, Note_on_c, 9, 44, 92
10, 29628, Note_off_c, 9, 44, 0
10, 30336, Note_on_c, 9, 44, 92
10, 30396, Note_off_c, 9, 44, 0
10, 31104, Note_on_c, 9, 44, 83
10, 31156, Note_off_c, 9, 44, 0
10, 31744, Note_on_c, 9, 42, 77
10, 31788, Note_off_c, 9, 42, 0
10, 31872, Note_on_c, 9, 44, 92
10, 31920, Note_off_c, 9, 44, 0
10, 32128, Note_on_c, 9, 42, 89
10, 32176, Note_off_c, 9, 42, 0
10, 32640, Note_on_c, 9, 44, 92
10, 32696, Note_off_c, 9, 44, 0
10, 33408, Note_on_c, 9, 44, 89
10, 33460, Note_off_c, 9, 44, 0
10, 34176, Note_on_c, 9, 44, 83
10, 34232, Note_off_c, 9, 44, 0
10, 34816, Note_on_c, 9, 42, 77
10, 34860, Note_off_c, 9, 42, 0
10, 34944, Note_on_c, 9, 44, 92
10, 34996, Note_off_c, 9, 44, 0
10, 35200, Note_on_c, 9, 42, 89
10, 35248, Note_off_c, 9, 42, 0
10, 35712, Note_on_c, 9, 44, 92
10, 35764, Note_off_c, 9, 44, 0
10, 36480, Note_on_c, 9, 44, 86
10, 36536, Note_off_c, 9, 44, 0
10, 37248, Note_on_c, 9, 44, 92
10, 37308, Note_off_c, 9, 44, 0
10, 37888, Note_on_c, 9, 42, 77
10, 37932, Note_off_c, 9, 42, 0
10, 38016, Note_on_c, 9, 44, 92
10, 38068, Note_off_c, 9, 44, 0
10, 38272, Note_on_c, 9, 42, 89
10, 38320, Note_off_c, 9, 42, 0
10, 38784, Note_on_c, 9, 44, 92
10, 38836, Note_off_c, 9, 44, 0
10, 39552, Note_on_c, 9, 44, 86
10, 39604, Note_off_c, 9, 44, 0
10, 39936, Note_on_c, 9, 42, 74
10, 39968, Note_off_c, 9, 42, 0
10, 40320, Note_on_c, 9, 44, 79
10, 40364, Note_off_c, 9, 44, 0
10, 40704, Note_on_c, 9, 42, 71
10, 40744, Note_off_c, 9, 42, 0
10, 40832, Note_on_c, 9, 42, 71
10, 40872, Note_off_c, 9, 42, 0
10, 40960, Note_on_c, 9, 42, 72
10, 41000, Note_off_c, 9, 42, 0
10, 41088, Note_on_c, 9, 42, 79
10, 41132, Note_off_c, 9, 42, 0
10, 41216, Note_on_c, 9, 42, 81
10, 41252, Note_off_c, 9, 42, 0
10, 41344, Note_on_c, 9, 42, 89
10, 41384, Note_off_c, 9, 42, 0
10, 41856, Note_on_c, 9, 44, 92
10, 41916, Note_off_c, 9, 44, 0
10, 42624, Note_on_c, 9, 44, 92
10, 42684, Note_off_c, 9, 44, 0
10, 43392, Note_on_c, 9, 44, 83
10, 43444, Note_off_c, 9, 44, 0
10, 44032, Note_on_c, 9, 42, 77
10, 44076, Note_off_c, 9, 42, 0
10, 44160, Note_on_c, 9, 44, 92
10, 44208, Note_off_c, 9, 44, 0
10, 44416, Note_on_c, 9, 42, 89
10, 44464, Note_off_c, 9, 42, 0
10, 44928, Note_on_c, 9, 44, 92
10, 44984, Note_off_c, 9, 44, 0
10, 45696, Note_on_c, 9, 44, 89
10, 45748, Note_off_c, 9, 44, 0
10, 46464, Note_on_c, 9, 44, 83
10, 46520, Note_off_c, 9, 44, 0
10, 47104, Note_on_c, 9, 42, 77
10, 47148, Note_off_c, 9, 42, 0
10, 47232, Note_on_c, 9, 44, 92
10, 47284, Note_off_c, 9, 44, 0
10, 47488, Note_on_c, 9, 42, 89
10, 47536, Note_off_c, 9, 42, 0
10, 48000, Note_on_c, 9, 44, 92
10, 48052, Note_off_c, 9, 44, 0
10, 48768, Note_on_c, 9, 44, 86
10, 48824, Note_off_c, 9, 44, 0
10, 49536, Note_on_c, 9, 44, 92
10, 49596, Note_off_c, 9, 44, 0
10, 50176, Note_on_c, 9, 42, 77
10, 50220, Note_off_c, 9, 42, 0
10, 50304, Note_on_c, 9, 44, 92
10, 50356, Note_off_c, 9, 44, 0
10, 50560, Note_on_c, 9, 42, 89
10, 50608, Note_off_c, 9, 42, 0
10, 50688, Note_on_c, 9, 46, 103
10, 50740, Note_off_c, 9, 46, 0
10, 53120, Note_on_c, 9, 42, 89
10, 53172, Note_off_c, 9, 42, 0
10, 53248, Note_on_c, 9, 42, 103
10, 53296, Note_off_c, 9, 42, 0
10, 53376, Note_on_c, 9, 42, 97
10, 53420, Note_off_c, 9, 42, 0
10, 53504, Note_on_c, 9, 42, 89
10, 53544, Note_off_c, 9, 42, 0
10, 53632, Note_on_c, 9, 42, 109
10, 53680, Note_off_c, 9, 42, 0
10, 54144, Note_on_c, 9, 44, 92
10, 54204, Note_off_c, 9, 44, 0
10, 54912, Note_on_c, 9, 44, 92
10, 54972, Note_off_c, 9, 44, 0
10, 55680, Note_on_c, 9, 44, 83
10, 55732, Note_off_c, 9, 44, 0
10, 56320, Note_on_c, 9, 42, 77
10, 56364, Note_off_c, 9, 42, 0
10, 56448, Note_on_c, 9, 44, 92
10, 56496, Note_off_c, 9, 44, 0
10, 56704, Note_on_c, 9, 42, 89
10, 56752, Note_off_c, 9, 42, 0
10, 57216, Note_on_c, 9, 44, 92
10, 57272, Note_off_c, 9, 44, 0
10, 57984, Note_on_c, 9, 44, 89
10, 58036, Note_off_c, 9, 44, 0
10, 58752, Note_on_c, 9, 44, 83
10, 58808, Note_off_c, 9, 44, 0
10, 59392, Note_on_c, 9, 42, 77
10, 59436, Note_off_c, 9, 42, 0
10, 59520, Note_on_c, 9, 44, 92
10, 59572, Note_off_c, 9, 44, 0
10, 59776, Note_on_c, 9, 42, 89
10, 59824, Note_off_c, 9, 42, 0
10, 60288, Note_on_c, 9, 44, 92
10, 60340, Note_off_c, 9, 44, 0
10, 61056, Note_on_c, 9, 44, 86
10, 61112, Note_off_c, 9, 44, 0
10, 61824, Note_on_c, 9, 44, 92
10, 61884, Note_off_c, 9, 44, 0
10, 62464, Note_on_c, 9, 42, 77
10, 62508, Note_off_c, 9, 42, 0
10, 62592, Note_on_c, 9, 44, 92
10, 62644, Note_off_c, 9, 44, 0
10, 62848, Note_on_c, 9, 42, 89
10, 62896, Note_off_c, 9, 42, 0
10, 63360, Note_on_c, 9, 44, 92
10, 63412, Note_off_c, 9, 44, 0
10, 64128, Note_on_c, 9, 44, 86
10, 64180, Note_off_c, 9, 44, 0
10, 64512, Note_on_c, 9, 42, 74
10, 64544, Note_off_c, 9, 42, 0
10, 64896, Note_on_c, 9, 44, 79
10, 64940, Note_off_c, 9, 44, 0
10, 65280, Note_on_c, 9, 42, 71
10, 65320, Note_off_c, 9, 42, 0
10, 65408, Note_on_c, 9, 42, 71
10, 65448, Note_off_c, 9, 42, 0
10, 65536, Note_on_c, 9, 42, 72
10, 65576, Note_off_c, 9, 42, 0
10, 65664, Note_on_c, 9, 42, 79
10, 65708, Note_off_c, 9, 42, 0
10, 65792, Note_on_c, 9, 42, 81
10, 65828, Note_off_c, 9, 42, 0
10, 65920, Note_on_c, 9, 42, 89
10, 65960, Note_off_c, 9, 42, 0
10, 66048, Note_on_c, 9, 42, 71
10, 66156, Note_off_c, 9, 42, 0
10, 66304, Note_on_c, 9, 42, 73
10, 66376, Note_off_c, 9, 42, 0
10, 66432, Note_on_c, 9, 42, 74
10, 66512, Note_off_c, 9, 42, 0
10, 66688, Note_on_c, 9, 42, 79
10, 66744, Note_off_c, 9, 42, 0
10, 66816, Note_on_c, 9, 42, 77
10, 66920, Note_off_c, 9, 42, 0
10, 67200, Note_on_c, 9, 42, 97
10, 67304, Note_off_c, 9, 42, 0
10, 67456, Note_on_c, 9, 42, 83
10, 67532, Note_off_c, 9, 42, 0
10, 67840, Note_on_c, 9, 42, 118
10, 67900, Note_off_c, 9, 42, 0
10, 67968, Note_on_c, 9, 42, 77
10, 68016, Note_off_c, 9, 42, 0
10, 68096, Note_on_c, 9, 42, 77
10, 68096, Note_on_c, 9, 42, 74
10, 68140, Note_off_c, 9, 42, 0
10, 68192, Note_off_c, 9, 42, 0
10, 68224, Note_on_c, 9, 42, 106
10, 68224, Note_on_c, 9, 42, 66
10, 68280, Note_off_c, 9, 42, 0
10, 68320, Note_off_c, 9, 42, 0
10, 68352, Note_on_c, 9, 42, 97
10, 68408, Note_off_c, 9, 42, 0
10, 68480, Note_on_c, 9, 42, 86
10, 68480, Note_on_c, 9, 42, 66
10, 68536, Note_off_c, 9, 42, 0
10, 68576, Note_off_c, 9, 42, 0
10, 68608, Note_on_c, 9, 42, 106
10, 68660, Note_off_c, 9, 42, 0
10, 68736, Note_on_c, 9, 42, 86
10, 68788, Note_off_c, 9, 42, 0
10, 68864, Note_on_c, 9, 42, 86
10, 68864, Note_on_c, 9, 42, 74
10, 68908, Note_off_c, 9, 42, 0
10, 68960, Note_off_c, 9, 42, 0
10, 68992, Note_on_c, 9, 42, 110
10, 69040, Note_off_c, 9, 42, 0
10, 69504, Note_on_c, 9, 44, 92
10, 69564, Note_off_c, 9, 44, 0
10, 70272, Note_on_c, 9, 44, 92
10, 70332, Note_off_c, 9, 44, 0
10, 71040, Note_on_c, 9, 44, 83
10, 71092, Note_off_c, 9, 44, 0
10, 71680, Note_on_c, 9, 42, 77
10, 71724, Note_off_c, 9, 42, 0
10, 71808, Note_on_c, 9, 44, 92
10, 71856, Note_off_c, 9, 44, 0
10, 72064, Note_on_c, 9, 42, 89
10, 72112, Note_off_c, 9, 42, 0
10, 72576, Note_on_c, 9, 44, 92
10, 72632, Note_off_c, 9, 44, 0
10, 73344, Note_on_c, 9, 44, 89
10, 73396, Note_off_c, 9, 44, 0
10, 74112, Note_on_c, 9, 44, 83
10, 74168, Note_off_c, 9, 44, 0
10, 74752, Note_on_c, 9, 42, 77
10, 74796, Note_off_c, 9, 42, 0
10, 74880, Note_on_c, 9, 44, 92
10, 74932, Note_off_c, 9, 44, 0
10, 75136, Note_on_c, 9, 42, 89
10, 75184, Note_off_c, 9, 42, 0
10, 75648, Note_on_c, 9, 44, 92
10, 75700, Note_off_c, 9, 44, 0
10, 76416, Note_on_c, 9, 44, 86
10, 76472, Note_off_c, 9, 44, 0
10, 77184, Note_on_c, 9, 44, 92
10, 77244, Note_off_c, 9, 44, 0
10, 77824, Note_on_c, 9, 42, 77
10, 77868, Note_off_c, 9, 42, 0
10, 77952, Note_on_c, 9, 44, 92
10, 78004, Note_off_c, 9, 44, 0
10, 78208, Note_on_c, 9, 42, 89
10, 78256, Note_off_c, 9, 42, 0
10, 78720, Note_on_c, 9, 44, 92
10, 78772, Note_off_c, 9, 44, 0
10, 79488, Note_on_c, 9, 44, 86
10, 79540, Note_off_c, 9, 44, 0
10, 79872, Note_on_c, 9, 42, 74
10, 79904, Note_off_c, 9, 42, 0
10, 80256, Note_on_c, 9, 44, 79
10, 80300, Note_off_c, 9, 44, 0
10, 80640, Note_on_c, 9, 42, 71
10, 80680, Note_off_c, 9, 42, 0
10, 80768, Note_on_c, 9, 42, 71
10, 80808, Note_off_c, 9, 42, 0
10, 80896, Note_on_c, 9, 42, 72
10, 80936, Note_off_c, 9, 42, 0
10, 81024, Note_on_c, 9, 42, 79
10, 81068, Note_off_c, 9, 42, 0
10, 81152, Note_on_c, 9, 42, 81
10, 81188, Note_off_c, 9, 42, 0
10, 81280, Note_on_c, 9, 42, 89
10, 81320, Note_off_c, 9, 42, 0
10, 81792, Note_on_c, 9, 44, 92
10, 81852, Note_off_c, 9, 44, 0
10, 82560, Note_on_c, 9, 44, 92
10, 82620, Note_off_c, 9, 44, 0
10, 83328, Note_on_c, 9, 44, 83
10, 83380, Note_off_c, 9, 44, 0
10, 83968, Note_on_c, 9, 42, 77
10, 84012, Note_off_c, 9, 42, 0
10, 84096, Note_on_c, 9, 44, 92
10, 84144, Note_off_c, 9, 44, 0
10, 84352, Note_on_c, 9, 42, 89
10, 84400, Note_off_c, 9, 42, 0
10, 84864, Note_on_c, 9, 44, 92
10, 84920, Note_off_c, 9, 44, 0
10, 85632, Note_on_c, 9, 44, 89
10, 85684, Note_off_c, 9, 44, 0
10, 86400, Note_on_c, 9, 44, 83
10, 86456, Note_off_c, 9, 44, 0
10, 87040, Note_on_c, 9, 42, 77
10, 87084, Note_off_c, 9, 42, 0
10, 87168, Note_on_c, 9, 44, 92
10, 87220, Note_off_c, 9, 44, 0
10, 87424, Note_on_c, 9, 42, 89
10, 87472, Note_off_c, 9, 42, 0
10, 87936, Note_on_c, 9, 44, 92
10, 87988, Note_off_c, 9, 44, 0
10, 88704, Note_on_c, 9, 44, 86
10, 88760, Note_off_c, 9, 44, 0
10, 89472, Note_on_c, 9, 44, 92
10, 89532, Note_off_c, 9, 44, 0
10, 90112, Note_on_c, 9, 42, 77
10, 90156, Note_off_c, 9, 42, 0
10, 90240, Note_on_c, 9, 44, 92
10, 90292, Note_off_c, 9, 44, 0
10, 90496, Note_on_c, 9, 42, 89
10, 90544, Note_off_c, 9, 42, 0
10, 91008, Note_on_c, 9, 44, 92
10, 91060, Note_off_c, 9, 44, 0
10, 91776, Note_on_c, 9, 44, 86
10, 91828, Note_off_c, 9, 44, 0
10, 92160, Note_on_c, 9, 42, 74
10, 92192, Note_off_c, 9, 42, 0
10, 92544, Note_on_c, 9, 44, 79
10, 92588, Note_off_c, 9, 44, 0
10, 92928, Note_on_c, 9, 42, 71
10, 92968, Note_off_c, 9, 42, 0
10, 93056, Note_on_c, 9, 42, 71
10, 93096, Note_off_c, 9, 42, 0
10, 93184, Note_on_c, 9, 42, 72
10, 93224, Note_off_c, 9, 42, 0
10, 93312, Note_on_c, 9, 42, 79
10, 93356, Note_off_c, 9, 42, 0
10, 93440, Note_on_c, 9, 42, 81
10, 93476, Note_off_c, 9, 42, 0
10, 93568, Note_on_c, 9, 42, 89
10, 93608, Note_off_c, 9, 42, 0
10, 94080, Note_on_c, 9, 44, 92
10, 94140, Note_off_c, 9, 44, 0
10, 94848, Note_on_c, 9, 44, 92
10, 94908, Note_off_c, 9, 44, 0
10, 95616, Note_on_c, 9, 44, 83
10, 95668, Note_off_c, 9, 44, 0
10, 96256, Note_on_c, 9, 42, 77
10, 96300, Note_off_c, 9, 42, 0
10, 96384, Note_on_c, 9, 44, 92
10, 96432, Note_off_c, 9, 44, 0
10, 96640, Note_on_c, 9, 42, 89
10, 96688, Note_off_c, 9, 42, 0
10, 97152, Note_on_c, 9, 44, 92
10, 97208, Note_off_c, 9, 44, 0
10, 97920, Note_on_c, 9, 44, 89
10, 97972, Note_off_c, 9, 44, 0
10, 98688, Note_on_c, 9, 44, 83
10, 98744, Note_off_c, 9, 44, 0
10, 99328, Note_on_c, 9, 42, 77
10, 99372, Note_off_c, 9, 42, 0
10, 99456, Note_on_c, 9, 44, 92
10, 99508, Note_off_c, 9, 44, 0
10, 99712, Note_on_c, 9, 42, 89
10, 99760, Note_off_c, 9, 42, 0
10, 100224, Note_on_c, 9, 44, 92
10, 100276, Note_off_c, 9, 44, 0
10, 100992, Note_on_c, 9, 44, 86
10, 101048, Note_off_c, 9, 44, 0
10, 101760, Note_on_c, 9, 44, 92
10, 101820, Note_off_c, 9, 44, 0
10, 102400, Note_on_c, 9, 42, 77
10, 102444, Note_off_c, 9, 42, 0
10, 102528, Note_on_c, 9, 44, 92
10, 102580, Note_off_c, 9, 44, 0
10, 102784, Note_on_c, 9, 42, 89
10, 102832, Note_off_c, 9, 42, 0
10, 102912, Note_on_c, 9, 46, 103
10, 102964, Note_off_c, 9, 46, 0
10, 105344, Note_on_c, 9, 42, 89
10, 105396, Note_off_c, 9, 42, 0
10, 105472, Note_on_c, 9, 42, 103
10, 105520, Note_off_c, 9, 42, 0
10, 105600, Note_on_c, 9, 42, 97
10, 105644, Note_off_c, 9, 42, 0
10, 105728, Note_on_c, 9, 42, 89
10, 105768, Note_off_c, 9, 42, 0
10, 105856, Note_on_c, 9, 42, 109
10, 105904, Note_off_c, 9, 42, 0
10, 106368, Note_on_c, 9, 44, 92
10, 106428, Note_off_c, 9, 44, 0
10, 107136, Note_on_c, 9, 44, 92
10, 107196, Note_off_c, 9, 44, 0
10, 107904, Note_on_c, 9, 44, 83
10, 107956, Note_off_c, 9, 44, 0
10, 108544, Note_on_c, 9, 42, 77
10, 108588, Note_off_c, 9, 42, 0
10, 108672, Note_on_c, 9, 44, 92
10, 108720, Note_off_c, 9, 44, 0
10, 108928, Note_on_c, 9, 42, 89
10, 108976, Note_off_c, 9, 42, 0
10, 109440, Note_on_c, 9, 44, 92
10, 109496, Note_off_c, 9, 44, 0
10, 110208, Note_on_c, 9, 44, 89
10, 110260, Note_off_c, 9, 44, 0
10, 110976, Note_on_c, 9, 44, 83
10, 111032, Note_off_c, 9, 44, 0
10, 111616, Note_on_c, 9, 42, 77
10, 111660, Note_off_c, 9, 42, 0
10, 111744, Note_on_c, 9, 44, 92
10, 111796, Note_off_c, 9, 44, 0
10, 112000, Note_on_c, 9, 42, 89
10, 112048, Note_off_c, 9, 42, 0
10, 112512, Note_on_c, 9, 44, 92
10, 112564, Note_off_c, 9, 44, 0
10, 113280, Note_on_c, 9, 44, 86
10, 113336, Note_off_c, 9, 44, 0
10, 114048, Note_on_c, 9, 44, 92
10, 114108, Note_off_c, 9, 44, 0
10, 114688, Note_on_c, 9, 42, 77
10, 114732, Note_off_c, 9, 42, 0
10, 114816, Note_on_c, 9, 44, 92
10, 114868, Note_off_c, 9, 44, 0
10, 115072, Note_on_c, 9, 42, 89
10, 115120, Note_off_c, 9, 42, 0
10, 115584, Note_on_c, 9, 44, 92
10, 115636, Note_off_c, 9, 44, 0
10, 116352, Note_on_c, 9, 44, 86
10, 116404, Note_off_c, 9, 44, 0
10, 116736, Note_on_c, 9, 42, 74
10, 116768, Note_off_c, 9, 42, 0
10, 117120, Note_on_c, 9, 44, 79
10, 117164, Note_off_c, 9, 44, 0
10, 117504, Note_on_c, 9, 42, 71
10, 117544, Note_off_c, 9, 42, 0
10, 117632, Note_on_c, 9, 42, 71
10, 117672, Note_off_c, 9, 42, 0
10, 117760, Note_on_c, 9, 42, 72
10, 117800, Note_off_c, 9, 42, 0
10, 117888, Note_on_c, 9, 42, 79
10, 117932, Note_off_c, 9, 42, 0
10, 118016, Note_on_c, 9, 42, 81
10, 118052, Note_off_c, 9, 42, 0
10, 118144, Note_on_c, 9, 42, 89
10, 118184, Note_off_c, 9, 42, 0
10, 118656, Note_on_c, 9, 42, 89
10, 118712, Note_off_c, 9, 42, 0
10, 119424, Note_on_c, 9, 42, 92
10, 119488, Note_off_c, 9, 42, 0
10, 120192, Note_on_c, 9, 42, 97
10, 120264, Note_off_c, 9, 42, 0
10, 120832, Note_on_c, 9, 42, 79
10, 120904, Note_off_c, 9, 42, 0
10, 120960, Note_on_c, 9, 44, 97
10, 121012, Note_off_c, 9, 44, 0
10, 121344, Note_on_c, 9, 42, 79
10, 121380, Note_off_c, 9, 42, 0
10, 121728, Note_on_c, 9, 42, 92
10, 121788, Note_off_c, 9, 42, 0
10, 122496, Note_on_c, 9, 42, 92
10, 122560, Note_off_c, 9, 42, 0
10, 123264, Note_on_c, 9, 42, 89
10, 123332, Note_off_c, 9, 42, 0
10, 123904, Note_on_c, 9, 42, 97
10, 123984, Note_off_c, 9, 42, 0
10, 124032, Note_on_c, 9, 44, 97
10, 124088, Note_off_c, 9, 44, 0
10, 124416, Note_on_c, 9, 42, 97
10, 124472, Note_off_c, 9, 42, 0
10, 124800, Note_on_c, 9, 42, 97
10, 124868, Note_off_c, 9, 42, 0
10, 125568, Note_on_c, 9, 42, 89
10, 125632, Note_off_c, 9, 42, 0
10, 126336, Note_on_c, 9, 42, 92
10, 126400, Note_off_c, 9, 42, 0
10, 126976, Note_on_c, 9, 42, 83
10, 127044, Note_off_c, 9, 42, 0
10, 127104, Note_on_c, 9, 44, 89
10, 127156, Note_off_c, 9, 44, 0
10, 127488, Note_on_c, 9, 42, 97
10, 127540, Note_off_c, 9, 42, 0
10, 127872, Note_on_c, 9, 42, 89
10, 127940, Note_off_c, 9, 42, 0
10, 128640, Note_on_c, 9, 42, 89
10, 128708, Note_off_c, 9, 42, 0
10, 129408, Note_on_c, 9, 42, 89
10, 129480, Note_off_c, 9, 42, 0
10, 130048, Note_on_c, 9, 42, 92
10, 130112, Note_off_c, 9, 42, 0
10, 130176, Note_on_c, 9, 42, 81
10, 130240, Note_off_c, 9, 42, 0
10, 130432, Note_on_c, 9, 42, 97
10, 130484, Note_off_c, 9, 42, 0
10, 130944, Note_on_c, 9, 44, 92
10, 131004, Note_off_c, 9, 44, 0
10, 131712, Note_on_c, 9, 44, 92
10, 131772, Note_off_c, 9, 44, 0
10, 132480, Note_on_c, 9, 44, 83
10, 132532, Note_off_c, 9, 44, 0
10, 133120, Note_on_c, 9, 42, 77
10, 133164, Note_off_c, 9, 42, 0
10, 133248, Note_on_c, 9, 44, 92
10, 133296, Note_off_c, 9, 44, 0
10, 133504, Note_on_c, 9, 42, 89
10, 133552, Note_off_c, 9, 42, 0
10, 134016, Note_on_c, 9, 44, 92
10, 134072, Note_off_c, 9, 44, 0
10, 134784, Note_on_c, 9, 44, 89
10, 134836, Note_off_c, 9, 44, 0
10, 135552, Note_on_c, 9, 44, 83
10, 135608, Note_off_c, 9, 44, 0
10, 136192, Note_on_c, 9, 42, 77
10, 136236, Note_off_c, 9, 42, 0
10, 136320, Note_on_c, 9, 44, 92
10, 136372, Note_off_c, 9, 44, 0
10, 136576, Note_on_c, 9, 42, 89
10, 136624, Note_off_c, 9, 42, 0
10, 137088, Note_on_c, 9, 44, 92
10, 137140, Note_off_c, 9, 44, 0
10, 137856, Note_on_c, 9, 44, 86
10, 137912, Note_off_c, 9, 44, 0
10, 138624, Note_on_c, 9, 44, 92
10, 138684, Note_off_c, 9, 44, 0
10, 139264, Note_on_c, 9, 42, 77
10, 139308, Note_off_c, 9, 42, 0
10, 139392, Note_on_c, 9, 44, 92
10, 139444, Note_off_c, 9, 44, 0
10, 139648, Note_on_c, 9, 42, 89
10, 139696, Note_off_c, 9, 42, 0
10, 140160, Note_on_c, 9, 44, 92
10, 140212, Note_off_c, 9, 44, 0
10, 140928, Note_on_c, 9, 44, 86
10, 140980, Note_off_c, 9, 44, 0
10, 141312, Note_on_c, 9, 42, 74
10, 141344, Note_off_c, 9, 42, 0
10, 141696, Note_on_c, 9, 44, 79
10, 141740, Note_off_c, 9, 44, 0
10, 142080, Note_on_c, 9, 42, 71
10, 142120, Note_off_c, 9, 42, 0
10, 142208, Note_on_c, 9, 42, 71
10, 142248, Note_off_c, 9, 42, 0
10, 142336, Note_on_c, 9, 42, 72
10, 142376, Note_off_c, 9, 42, 0
10, 142464, Note_on_c, 9, 42, 79
10, 142508, Note_off_c, 9, 42, 0
10, 142592, Note_on_c, 9, 42, 81
10, 142628, Note_off_c, 9, 42, 0
10, 142720, Note_on_c, 9, 42, 89
10, 142760, Note_off_c, 9, 42, 0
10, 143232, Note_on_c, 9, 44, 92
10, 143284, Note_off_c, 9, 44, 0
10, 144000, Note_on_c, 9, 44, 86
10, 144052, Note_off_c, 9, 44, 0
10, 144384, Note_on_c, 9, 42, 74
10, 144416, Note_off_c, 9, 42, 0
10, 144768, Note_on_c, 9, 44, 79
10, 144812, Note_off_c, 9, 44, 0
10, 145152, Note_on_c, 9, 42, 71
10, 145192, Note_off_c, 9, 42, 0
10, 145280, Note_on_c, 9, 42, 71
10, 145320, Note_off_c, 9, 42, 0
10, 145408, Note_on_c, 9, 42, 72
10, 145448, Note_off_c, 9, 42, 0
10, 145536, Note_on_c, 9, 42, 79
10, 145580, Note_off_c, 9, 42, 0
10, 145664, Note_on_c, 9, 42, 81
10, 145700, Note_off_c, 9, 42, 0
10, 145792, Note_on_c, 9, 42, 89
10, 145832, Note_off_c, 9, 42, 0
10, 145920, Note_on_c, 9, 42, 92
10, 145976, Note_off_c, 9, 42, 0
10, 146176, Note_on_c, 9, 46, 103
10, 146320, Note_off_c, 9, 46, 0
10, 146560, Note_on_c, 9, 42, 86
10, 146636, Note_off_c, 9, 42, 0
10, 146688, Note_on_c, 9, 46, 97
10, 146792, Note_off_c, 9, 46, 0
10, 147072, Note_on_c, 9, 46, 97
10, 147232, Note_off_c, 9, 46, 0
10, 147456, Note_on_c, 9, 46, 106
10, 147608, Note_off_c, 9, 46, 0
10, 147712, Note_on_c, 9, 46, 66
10, 147756, Note_off_c, 9, 46, 0
10, 147840, Note_on_c, 9, 46, 97
10, 147956, Note_off_c, 9, 46, 0
10, 148096, Note_on_c, 9, 46, 89
10, 148164, Note_off_c, 9, 46, 0
10, 148480, Note_on_c, 9, 46, 103
10, 148564, Note_off_c, 9, 46, 0
10, 148992, End_track
11, 0, Start_track
11, 0, Title_t, "Crash"
11, 4608, Note_on_c, 9, 49, 79
11, 4628, Note_off_c, 9, 49, 0
11, 10752, Note_on_c, 9, 49, 59
11, 10796, Note_off_c, 9, 49, 0
11, 16896, Note_on_c, 9, 49, 82
11, 16944, Note_off_c, 9, 49, 0
11, 29184, Note_on_c, 9, 49, 79
11, 29232, Note_off_c, 9, 49, 0
11, 41472, Note_on_c, 9, 49, 67
11, 41524, Note_off_c, 9, 49, 0
11, 47616, Note_on_c, 9, 49, 62
11, 47668, Note_off_c, 9, 49, 0
11, 50688, Note_on_c, 9, 49, 79
11, 50736, Note_off_c, 9, 49, 0
11, 53760, Note_on_c, 9, 49, 82
11, 53804, Note_off_c, 9, 49, 0
11, 66048, Note_on_c, 9, 49, 67
11, 66108, Note_off_c, 9, 49, 0
11, 67456, Note_on_c, 9, 49, 67
11, 67496, Note_off_c, 9, 49, 0
11, 69120, Note_on_c, 9, 49, 67
11, 69156, Note_off_c, 9, 49, 0
11, 81408, Note_on_c, 9, 49, 73
11, 81452, Note_off_c, 9, 49, 0
11, 93696, Note_on_c, 9, 49, 73
11, 93736, Note_off_c, 9, 49, 0
11, 99840, Note_on_c, 9, 49, 73
11, 99884, Note_off_c, 9, 49, 0
11, 102912, Note_on_c, 9, 49, 67
11, 102952, Note_off_c, 9, 49, 0
11, 105984, Note_on_c, 9, 49, 62
11, 106024, Note_off_c, 9, 49, 0
11, 118272, Note_on_c, 9, 49, 79
11, 118320, Note_off_c, 9, 49, 0
11, 121344, Note_on_c, 9, 49, 67
11, 121388, Note_off_c, 9, 49, 0
11, 124416, Note_on_c, 9, 49, 67
11, 124456, Note_off_c, 9, 49, 0
11, 127488, Note_on_c, 9, 49, 82
11, 127536, Note_off_c, 9, 49, 0
11, 130560, Note_on_c, 9, 49, 73
11, 130604, Note_off_c, 9, 49, 0
11, 139776, Note_on_c, 9, 49, 62
11, 139816, Note_off_c, 9, 49, 0
11, 141312, Note_on_c, 9, 49, 59
11, 141356, Note_off_c, 9, 49, 0
11, 142848, Note_on_c, 9, 49, 62
11, 142896, Note_off_c, 9, 49, 0
11, 144384, Note_on_c, 9, 49, 67
11, 144428, Note_off_c, 9, 49, 0
11, 146176, Note_on_c, 9, 49, 62
11, 146212, Note_off_c, 9, 49, 0
11, 146688, Note_on_c, 9, 49, 67
11, 146732, Note_off_c, 9, 49, 0
11, 147456, Note_on_c, 9, 49, 62
11, 147500, Note_off_c, 9, 49, 0
11, 148096, Note_on_c, 9, 49, 62
11, 148140, Note_off_c, 9, 49, 0
11, 148480, Note_on_c, 9, 49, 56
11, 148516, Note_off_c, 9, 49, 0
11, 148992, End_track
0, 0, End_of_file
