0, 0, Header, 1, 8, 96
1, 0, Start_track
1, 0, Key_signature, 0, "major"
1, 0, SMPTE_offset, 96, 0, 0, 0, 0
1, 0, Tempo, 1000000
1, 0, Time_signature, 4, 2, 24, 8
1, 0, End_track
2, 0, Start_track
2, 0, MIDI_port, 0
2, 0, Title_t, "Piano 2"
2, 0, Program_c, 0, 1
2, 0, Control_c, 0, 7, 110
2, 0, Note_on_c, 0, 52, 79
2, 1, Control_c, 0, 91, 85
2, 1, Control_c, 0, 93, 55
2, 2, Control_c, 0, 64, 0
2, 2, Note_on_c, 0, 64, 82
2, 8, Control_c, 0, 64, 127
2, 23, Note_on_c, 0, 64, 0
2, 26, Note_on_c, 0, 56, 42
2, 48, Note_on_c, 0, 56, 0
2, 50, Note_on_c, 0, 59, 59
2, 72, Note_on_c, 0, 59, 0
2, 75, Note_on_c, 0, 64, 91
2, 83, Note_on_c, 0, 64, 0
2, 124, Note_on_c, 0, 71, 110
2, 132, Note_on_c, 0, 71, 0
2, 173, Note_on_c, 0, 66, 59
2, 179, Note_on_c, 0, 52, 0
2, 191, Note_on_c, 0, 66, 0
2, 197, Note_on_c, 0, 52, 73
2, 219, Note_on_c, 0, 56, 43
2, 242, Note_on_c, 0, 56, 0
2, 242, Note_on_c, 0, 59, 67
2, 268, Note_on_c, 0, 59, 0
2, 269, Note_on_c, 0, 64, 73
2, 291, Note_on_c, 0, 64, 0
2, 309, Note_on_c, 0, 52, 0
2, 399, Note_on_c, 0, 49, 79
2, 399, Note_on_c, 0, 66, 82
2, 399, Control_c, 0, 64, 0
2, 425, Control_c, 0, 64, 127
2, 427, Note_on_c, 0, 56, 48
2, 434, Note_on_c, 0, 66, 0
2, 449, Note_on_c, 0, 59, 77
2, 452, Note_on_c, 0, 56, 0
2, 459, Note_on_c, 0, 59, 0
2, 475, Note_on_c, 0, 64, 100
2, 492, Note_on_c, 0, 64, 0
2, 520, Note_on_c, 0, 71, 103
2, 528, Note_on_c, 0, 71, 0
2, 566, Note_on_c, 0, 66, 107
2, 571, Note_on_c, 0, 49, 0
2, 576, Control_c, 0, 93, 0
2, 576, Control_c, 0, 91, 40
2, 576, Program_c, 0, 1
2, 576, Control_c, 0, 0, 110
2, 584, Note_on_c, 0, 66, 0
2, 590, Note_on_c, 0, 49, 73
2, 613, Note_on_c, 0, 56, 42
2, 637, Note_on_c, 0, 59, 53
2, 638, Note_on_c, 0, 56, 0
2, 658, Note_on_c, 0, 59, 0
2, 663, Note_on_c, 0, 64, 88
2, 680, Note_on_c, 0, 64, 0
2, 728, Note_on_c, 0, 49, 0
2, 771, Control_c, 0, 64, 0
2, 779, Note_on_c, 0, 66, 82
2, 779, Note_on_c, 0, 45, 56
2, 780, Note_on_c, 0, 59, 56
2, 804, Control_c, 0, 64, 127
2, 811, Note_on_c, 0, 59, 0
2, 812, Note_on_c, 0, 56, 62
2, 814, Note_on_c, 0, 66, 0
2, 831, Note_on_c, 0, 56, 0
2, 834, Note_on_c, 0, 59, 65
2, 859, Note_on_c, 0, 64, 98
2, 863, Note_on_c, 0, 59, 0
2, 869, Note_on_c, 0, 64, 0
2, 911, Note_on_c, 0, 71, 108
2, 919, Note_on_c, 0, 71, 0
2, 939, Note_on_c, 0, 45, 0
2, 964, Note_on_c, 0, 66, 67
2, 987, Control_c, 0, 64, 0
2, 990, Note_on_c, 0, 47, 65
2, 1014, Control_c, 0, 64, 127
2, 1014, Note_on_c, 0, 56, 42
2, 1020, Note_on_c, 0, 66, 0
2, 1044, Note_on_c, 0, 59, 41
2, 1045, Note_on_c, 0, 56, 0
2, 1060, Note_on_c, 0, 59, 0
2, 1077, Note_on_c, 0, 64, 79
2, 1132, Note_on_c, 0, 54, 42
2, 1167, Note_on_c, 0, 57, 43
2, 1201, Note_on_c, 0, 64, 0
2, 1202, Note_on_c, 0, 54, 0
2, 1203, Note_on_c, 0, 57, 0
2, 1205, Note_on_c, 0, 47, 0
2, 1386, Control_c, 0, 64, 0
2, 1404, Control_c, 0, 64, 0
2, 1409, Note_on_c, 0, 52, 43
2, 1410, Note_on_c, 0, 64, 50
2, 1426, Control_c, 0, 64, 127
2, 1433, Note_on_c, 0, 56, 44
2, 1447, Note_on_c, 0, 64, 0
2, 1455, Note_on_c, 0, 59, 91
2, 1456, Note_on_c, 0, 56, 0
2, 1477, Note_on_c, 0, 59, 0
2, 1481, Note_on_c, 0, 64, 77
2, 1490, Note_on_c, 0, 64, 0
2, 1530, Note_on_c, 0, 71, 79
2, 1548, Note_on_c, 0, 71, 0
2, 1581, Note_on_c, 0, 66, 56
2, 1593, Note_on_c, 0, 66, 0
2, 1680, Note_on_c, 0, 64, 88
2, 1681, Note_on_c, 0, 52, 0
2, 1726, Note_on_c, 0, 56, 22
2, 1730, Note_on_c, 0, 64, 0
2, 1749, Note_on_c, 0, 59, 91
2, 1750, Note_on_c, 0, 56, 0
2, 1768, Note_on_c, 0, 59, 0
2, 1770, Note_on_c, 0, 56, 56
2, 1797, Note_on_c, 0, 52, 62
2, 1797, Note_on_c, 0, 66, 67
2, 1797, Note_on_c, 0, 59, 19
2, 1798, Control_c, 0, 64, 0
2, 1805, Note_on_c, 0, 56, 0
2, 1819, Control_c, 0, 64, 127
2, 1820, Note_on_c, 0, 56, 42
2, 1821, Note_on_c, 0, 59, 0
2, 1830, Note_on_c, 0, 66, 0
2, 1842, Note_on_c, 0, 56, 0
2, 1842, Note_on_c, 0, 59, 56
2, 1868, Note_on_c, 0, 64, 91
2, 1872, Note_on_c, 0, 59, 0
2, 1876, Note_on_c, 0, 64, 0
2, 1920, Note_on_c, 0, 71, 102
2, 1942, Note_on_c, 0, 71, 0
2, 1968, Note_on_c, 0, 66, 42
2, 1968, Note_on_c, 0, 64, 53
2, 1982, Note_on_c, 0, 66, 0
2, 1982, Note_on_c, 0, 64, 0
2, 2036, Note_on_c, 0, 56, 62
2, 2060, Note_on_c, 0, 66, 82
2, 2066, Note_on_c, 0, 56, 0
2, 2083, Note_on_c, 0, 66, 0
2, 2084, Note_on_c, 0, 56, 73
2, 2105, Note_on_c, 0, 59, 71
2, 2106, Note_on_c, 0, 56, 0
2, 2130, Note_on_c, 0, 52, 0
2, 2131, Note_on_c, 0, 64, 82
2, 2134, Note_on_c, 0, 59, 0
2, 2142, Note_on_c, 0, 64, 0
2, 2152, Note_on_c, 0, 56, 44
2, 2162, Note_on_c, 0, 56, 0
2, 2175, Control_c, 0, 64, 0
2, 2176, Note_on_c, 0, 49, 62
2, 2178, Note_on_c, 0, 66, 94
2, 2178, Note_on_c, 0, 59, 95
2, 2194, Control_c, 0, 64, 127
2, 2199, Note_on_c, 0, 59, 0
2, 2200, Note_on_c, 0, 56, 50
2, 2210, Note_on_c, 0, 66, 0
2, 2223, Note_on_c, 0, 56, 0
2, 2224, Note_on_c, 0, 59, 59
2, 2249, Note_on_c, 0, 64, 102
2, 2254, Note_on_c, 0, 59, 0
2, 2262, Note_on_c, 0, 64, 0
2, 2302, Note_on_c, 0, 71, 67
2, 2318, Note_on_c, 0, 71, 0
2, 2347, Note_on_c, 0, 66, 91
2, 2347, Note_on_c, 0, 64, 56
2, 2355, Note_on_c, 0, 66, 0
2, 2356, Note_on_c, 0, 64, 0
2, 2415, Note_on_c, 0, 56, 24
2, 2438, Note_on_c, 0, 64, 77
2, 2440, Note_on_c, 0, 56, 0
2, 2460, Note_on_c, 0, 56, 38
2, 2480, Note_on_c, 0, 64, 0
2, 2483, Note_on_c, 0, 56, 0
2, 2484, Note_on_c, 0, 59, 73
2, 2508, Note_on_c, 0, 59, 0
2, 2509, Note_on_c, 0, 56, 56
2, 2512, Note_on_c, 0, 49, 0
2, 2517, Note_on_c, 0, 56, 0
2, 2532, Note_on_c, 0, 49, 62
2, 2544, Note_on_c, 0, 49, 0
2, 2556, Note_on_c, 0, 66, 100
2, 2556, Note_on_c, 0, 49, 79
2, 2557, Note_on_c, 0, 59, 91
2, 2558, Control_c, 0, 64, 0
2, 2575, Control_c, 0, 64, 127
2, 2578, Note_on_c, 0, 59, 0
2, 2581, Note_on_c, 0, 56, 42
2, 2590, Note_on_c, 0, 66, 0
2, 2605, Note_on_c, 0, 56, 0
2, 2605, Note_on_c, 0, 59, 67
2, 2631, Note_on_c, 0, 64, 95
2, 2635, Note_on_c, 0, 59, 0
2, 2646, Note_on_c, 0, 64, 0
2, 2682, Note_on_c, 0, 71, 91
2, 2697, Note_on_c, 0, 71, 0
2, 2729, Note_on_c, 0, 66, 36
2, 2741, Note_on_c, 0, 66, 0
2, 2801, Note_on_c, 0, 56, 34
2, 2832, Note_on_c, 0, 56, 0
2, 2851, Note_on_c, 0, 56, 1
2, 2871, Note_on_c, 0, 56, 0
2, 2874, Note_on_c, 0, 59, 30
2, 2898, Note_on_c, 0, 59, 0
2, 2898, Note_on_c, 0, 64, 100
2, 2902, Note_on_c, 0, 49, 0
2, 2915, Note_on_c, 0, 64, 0
2, 2921, Note_on_c, 0, 56, 24
2, 2938, Note_on_c, 0, 56, 0
2, 2945, Control_c, 0, 64, 0
2, 2946, Note_on_c, 0, 45, 95
2, 2949, Note_on_c, 0, 61, 102
2, 2952, Note_on_c, 0, 59, 36
2, 2954, Note_on_c, 0, 59, 0
2, 2964, Control_c, 0, 64, 127
2, 2973, Note_on_c, 0, 57, 44
2, 2976, Note_on_c, 0, 61, 0
2, 2992, Note_on_c, 0, 57, 0
2, 2994, Note_on_c, 0, 59, 56
2, 3037, Note_on_c, 0, 59, 0
2, 3042, Note_on_c, 0, 57, 26
2, 3054, Note_on_c, 0, 57, 0
2, 3064, Note_on_c, 0, 64, 85
2, 3077, Note_on_c, 0, 64, 0
2, 3088, Note_on_c, 0, 57, 44
2, 3095, Note_on_c, 0, 57, 0
2, 3111, Note_on_c, 0, 69, 67
2, 3125, Note_on_c, 0, 69, 0
2, 3152, Note_on_c, 0, 61, 38
2, 3163, Note_on_c, 0, 61, 0
2, 3192, Note_on_c, 0, 45, 0
2, 3208, Note_on_c, 0, 57, 16
2, 3226, Note_on_c, 0, 57, 0
2, 3230, Note_on_c, 0, 59, 67
2, 3252, Note_on_c, 0, 61, 94
2, 3253, Note_on_c, 0, 59, 0
2, 3267, Note_on_c, 0, 61, 0
2, 3277, Note_on_c, 0, 57, 53
2, 3278, Note_on_c, 0, 52, 48
2, 3287, Note_on_c, 0, 57, 0
2, 3288, Note_on_c, 0, 52, 0
2, 3300, Note_on_c, 0, 59, 94
2, 3322, Control_c, 0, 64, 0
2, 3324, Note_on_c, 0, 45, 85
2, 3325, Note_on_c, 0, 64, 100
2, 3326, Note_on_c, 0, 57, 79
2, 3342, Note_on_c, 0, 57, 0
2, 3342, Control_c, 0, 64, 127
2, 3350, Note_on_c, 0, 57, 19
2, 3354, Note_on_c, 0, 59, 0
2, 3363, Note_on_c, 0, 64, 0
2, 3363, Note_on_c, 0, 57, 0
2, 3389, Note_on_c, 0, 45, 0
2, 3389, Note_on_c, 0, 57, 36
2, 3395, Note_on_c, 0, 57, 0
2, 3416, Note_on_c, 0, 52, 44
2, 3438, Note_on_c, 0, 61, 30
2, 3453, Note_on_c, 0, 61, 0
2, 3461, Note_on_c, 0, 64, 48
2, 3466, Note_on_c, 0, 52, 0
2, 3488, Note_on_c, 0, 61, 13
2, 3499, Note_on_c, 0, 61, 0
2, 3511, Note_on_c, 0, 64, 0
2, 3515, Note_on_c, 0, 69, 48
2, 3559, Note_on_c, 0, 69, 0
2, 3568, Note_on_c, 0, 61, 38
2, 3573, Note_on_c, 0, 61, 0
2, 3615, Note_on_c, 0, 52, 43
2, 3630, Note_on_c, 0, 52, 0
2, 3630, Note_on_c, 0, 57, 31
2, 3644, Note_on_c, 0, 57, 0
2, 3654, Note_on_c, 0, 59, 53
2, 3670, Note_on_c, 0, 59, 0
2, 3679, Note_on_c, 0, 57, 22
2, 3707, Control_c, 0, 64, 0
2, 3709, Note_on_c, 0, 68, 42
2, 3710, Note_on_c, 0, 42, 59
2, 3711, Note_on_c, 0, 61, 41
2, 3717, Note_on_c, 0, 57, 0
2, 3720, Note_on_c, 0, 61, 0
2, 3727, Control_c, 0, 64, 127
2, 3733, Note_on_c, 0, 57, 56
2, 3737, Note_on_c, 0, 68, 0
2, 3749, Note_on_c, 0, 57, 0
2, 3753, Note_on_c, 0, 42, 0
2, 3757, Note_on_c, 0, 61, 91
2, 3767, Note_on_c, 0, 61, 0
2, 3780, Note_on_c, 0, 54, 88
2, 3793, Note_on_c, 0, 54, 0
2, 3805, Note_on_c, 0, 57, 20
2, 3826, Note_on_c, 0, 57, 0
2, 3828, Note_on_c, 0, 61, 94
2, 3852, Note_on_c, 0, 61, 0
2, 3855, Note_on_c, 0, 57, 48
2, 3864, Note_on_c, 0, 57, 0
2, 3889, Note_on_c, 0, 54, 42
2, 3901, Note_on_c, 0, 64, 107
2, 3927, Note_on_c, 0, 54, 0
2, 3941, Note_on_c, 0, 64, 0
2, 3952, Note_on_c, 0, 57, 26
2, 3970, Note_on_c, 0, 57, 0
2, 3975, Note_on_c, 0, 54, 67
2, 3990, Note_on_c, 0, 54, 0
2, 3998, Note_on_c, 0, 57, 38
2, 4002, Note_on_c, 0, 42, 44
2, 4016, Note_on_c, 0, 42, 0
2, 4019, Note_on_c, 0, 57, 0
2, 4021, Note_on_c, 0, 61, 43
2, 4046, Note_on_c, 0, 61, 0
2, 4047, Note_on_c, 0, 64, 98
2, 4060, Note_on_c, 0, 64, 0
2, 4095, Note_on_c, 0, 47, 48
2, 4096, Note_on_c, 0, 64, 95
2, 4097, Note_on_c, 0, 57, 62
2, 4097, Note_on_c, 0, 59, 56
2, 4099, Control_c, 0, 64, 0
2, 4116, Control_c, 0, 64, 127
2, 4128, Note_on_c, 0, 57, 0
2, 4128, Note_on_c, 0, 59, 0
2, 4130, Note_on_c, 0, 64, 0
2, 4156, Note_on_c, 0, 47, 0
2, 4166, Note_on_c, 0, 54, 79
2, 4173, Note_on_c, 0, 54, 0
2, 4215, Note_on_c, 0, 59, 36
2, 4216, Note_on_c, 0, 57, 36
2, 4227, Note_on_c, 0, 57, 0
2, 4228, Note_on_c, 0, 59, 0
2, 4239, Note_on_c, 0, 61, 62
2, 4260, Note_on_c, 0, 61, 0
2, 4263, Note_on_c, 0, 64, 56
2, 4283, Note_on_c, 0, 64, 0
2, 4291, Note_on_c, 0, 63, 38
2, 4293, Note_on_c, 0, 54, 41
2, 4294, Note_on_c, 0, 57, 38
2, 4294, Note_on_c, 0, 59, 36
2, 4309, Note_on_c, 0, 57, 0
2, 4310, Note_on_c, 0, 59, 0
2, 4312, Note_on_c, 0, 63, 0
2, 4325, Note_on_c, 0, 54, 0
2, 4389, Note_on_c, 0, 71, 65
2, 4402, Note_on_c, 0, 71, 0
2, 4542, Control_c, 0, 64, 0
2, 4576, Control_c, 0, 64, 0
2, 4576, Control_c, 0, 64, 127
2, 4578, Note_on_c, 0, 40, 62
2, 4578, Note_on_c, 0, 56, 53
2, 4579, Note_on_c, 0, 64, 79
2, 4579, Note_on_c, 0, 59, 67
2, 4621, Control_c, 0, 64, 127
2, 4622, Note_on_c, 0, 56, 0
2, 4630, Note_on_c, 0, 56, 43
2, 4632, Note_on_c, 0, 59, 0
2, 4641, Note_on_c, 0, 64, 0
2, 4644, Note_on_c, 0, 56, 0
2, 4650, Note_on_c, 0, 59, 79
2, 4660, Note_on_c, 0, 59, 0
2, 4673, Note_on_c, 0, 56, 48
2, 4674, Note_on_c, 0, 40, 0
2, 4695, Note_on_c, 0, 56, 0
2, 4697, Note_on_c, 0, 66, 62
2, 4714, Note_on_c, 0, 66, 0
2, 4721, Note_on_c, 0, 56, 59
2, 4734, Note_on_c, 0, 56, 0
2, 4742, Note_on_c, 0, 59, 85
2, 4746, Note_on_c, 0, 59, 0
2, 4765, Note_on_c, 0, 52, 43
2, 4780, Note_on_c, 0, 52, 0
2, 4788, Note_on_c, 0, 64, 48
2, 4798, Note_on_c, 0, 64, 0
2, 4839, Note_on_c, 0, 66, 19
2, 4855, Note_on_c, 0, 66, 0
2, 4863, Note_on_c, 0, 64, 12
2, 4876, Note_on_c, 0, 64, 0
2, 4887, Note_on_c, 0, 71, 98
2, 4911, Note_on_c, 0, 71, 0
2, 4912, Note_on_c, 0, 66, 41
2, 4928, Note_on_c, 0, 66, 0
2, 4936, Note_on_c, 0, 64, 31
2, 4941, Note_on_c, 0, 64, 0
2, 4963, Control_c, 0, 64, 0
2, 4965, Note_on_c, 0, 40, 73
2, 4965, Note_on_c, 0, 64, 53
2, 4967, Note_on_c, 0, 56, 56
2, 4967, Note_on_c, 0, 59, 73
2, 4989, Control_c, 0, 64, 127
2, 4992, Note_on_c, 0, 56, 0
2, 5007, Note_on_c, 0, 64, 0
2, 5013, Note_on_c, 0, 59, 0
2, 5013, Note_on_c, 0, 56, 62
2, 5020, Note_on_c, 0, 56, 0
2, 5027, Note_on_c, 0, 40, 0
2, 5036, Note_on_c, 0, 52, 38
2, 5054, Note_on_c, 0, 52, 0
2, 5058, Note_on_c, 0, 64, 29
2, 5078, Note_on_c, 0, 64, 0
2, 5081, Note_on_c, 0, 71, 95
2, 5104, Note_on_c, 0, 71, 0
2, 5105, Note_on_c, 0, 64, 50
2, 5115, Note_on_c, 0, 64, 0
2, 5128, Note_on_c, 0, 66, 48
2, 5138, Note_on_c, 0, 66, 0
2, 5151, Note_on_c, 0, 40, 82
2, 5174, Note_on_c, 0, 56, 67
2, 5177, Note_on_c, 0, 40, 0
2, 5187, Note_on_c, 0, 56, 0
2, 5197, Note_on_c, 0, 59, 31
2, 5224, Note_on_c, 0, 52, 59
2, 5226, Note_on_c, 0, 59, 0
2, 5249, Note_on_c, 0, 56, 73
2, 5262, Note_on_c, 0, 52, 0
2, 5269, Note_on_c, 0, 56, 0
2, 5272, Note_on_c, 0, 64, 73
2, 5298, Note_on_c, 0, 59, 100
2, 5306, Note_on_c, 0, 64, 0
2, 5321, Note_on_c, 0, 56, 100
2, 5345, Control_c, 0, 64, 0
2, 5345, Note_on_c, 0, 61, 56
2, 5346, Note_on_c, 0, 37, 73
2, 5368, Control_c, 0, 64, 127
2, 5370, Note_on_c, 0, 56, 0
2, 5389, Note_on_c, 0, 61, 0
2, 5392, Note_on_c, 0, 59, 0
2, 5392, Note_on_c, 0, 37, 0
2, 5392, Note_on_c, 0, 56, 53
2, 5398, Note_on_c, 0, 56, 0
2, 5415, Note_on_c, 0, 49, 41
2, 5425, Note_on_c, 0, 49, 0
2, 5462, Note_on_c, 0, 71, 88
2, 5485, Note_on_c, 0, 71, 0
2, 5487, Note_on_c, 0, 64, 30
2, 5501, Note_on_c, 0, 64, 0
2, 5509, Note_on_c, 0, 66, 42
2, 5520, Note_on_c, 0, 66, 0
2, 5537, Note_on_c, 0, 49, 41
2, 5558, Note_on_c, 0, 56, 38
2, 5565, Note_on_c, 0, 49, 0
2, 5580, Note_on_c, 0, 56, 0
2, 5582, Note_on_c, 0, 59, 38
2, 5605, Note_on_c, 0, 61, 73
2, 5610, Note_on_c, 0, 59, 0
2, 5630, Note_on_c, 0, 61, 0
2, 5631, Note_on_c, 0, 56, 53
2, 5649, Note_on_c, 0, 56, 0
2, 5657, Note_on_c, 0, 59, 77
2, 5677, Note_on_c, 0, 59, 0
2, 5681, Note_on_c, 0, 64, 91
2, 5688, Note_on_c, 0, 64, 0
2, 5729, Note_on_c, 0, 37, 73
2, 5729, Note_on_c, 0, 66, 67
2, 5731, Note_on_c, 0, 64, 82
2, 5738, Control_c, 0, 64, 0
2, 5757, Control_c, 0, 64, 127
2, 5765, Note_on_c, 0, 64, 0
2, 5777, Note_on_c, 0, 66, 0
2, 5780, Note_on_c, 0, 37, 0
2, 5800, Note_on_c, 0, 49, 62
2, 5811, Note_on_c, 0, 49, 0
2, 5823, Note_on_c, 0, 64, 65
2, 5837, Note_on_c, 0, 64, 0
2, 5847, Note_on_c, 0, 71, 100
2, 5871, Note_on_c, 0, 66, 62
2, 5873, Note_on_c, 0, 71, 0
2, 5890, Note_on_c, 0, 66, 0
2, 5893, Note_on_c, 0, 64, 44
2, 5898, Note_on_c, 0, 64, 0
2, 5919, Note_on_c, 0, 49, 59
2, 5943, Note_on_c, 0, 56, 42
2, 5971, Note_on_c, 0, 59, 42
2, 5972, Note_on_c, 0, 49, 0
2, 5974, Note_on_c, 0, 56, 0
2, 5997, Note_on_c, 0, 64, 85
2, 6020, Note_on_c, 0, 47, 56
2, 6021, Control_c, 0, 64, 0
2, 6041, Control_c, 0, 64, 127
2, 6044, Note_on_c, 0, 59, 0
2, 6045, Note_on_c, 0, 56, 102
2, 6065, Note_on_c, 0, 64, 0
2, 6066, Note_on_c, 0, 56, 0
2, 6068, Note_on_c, 0, 47, 0
2, 6072, Note_on_c, 0, 59, 108
2, 6098, Note_on_c, 0, 64, 108
2, 6105, Note_on_c, 0, 59, 0
2, 6113, Control_c, 0, 64, 0
2, 6122, Note_on_c, 0, 45, 71
2, 6123, Note_on_c, 0, 59, 7
2, 6134, Control_c, 0, 64, 127
2, 6148, Note_on_c, 0, 59, 0
2, 6148, Note_on_c, 0, 57, 43
2, 6166, Note_on_c, 0, 64, 0
2, 6169, Note_on_c, 0, 57, 0
2, 6170, Note_on_c, 0, 59, 48
2, 6189, Note_on_c, 0, 59, 0
2, 6190, Note_on_c, 0, 45, 0
2, 6194, Note_on_c, 0, 57, 53
2, 6204, Note_on_c, 0, 57, 0
2, 6242, Note_on_c, 0, 61, 43
2, 6260, Note_on_c, 0, 61, 0
2, 6262, Note_on_c, 0, 64, 67
2, 6286, Note_on_c, 0, 69, 98
2, 6291, Note_on_c, 0, 64, 0
2, 6307, Note_on_c, 0, 33, 56
2, 6313, Note_on_c, 0, 69, 0
2, 6330, Note_on_c, 0, 61, 20
2, 6338, Note_on_c, 0, 61, 0
2, 6354, Note_on_c, 0, 33, 0
2, 6358, Note_on_c, 0, 57, 42
2, 6376, Note_on_c, 0, 57, 0
2, 6385, Note_on_c, 0, 59, 1
2, 6402, Note_on_c, 0, 59, 0
2, 6403, Note_on_c, 0, 57, 44
2, 6406, Note_on_c, 0, 45, 36
2, 6423, Note_on_c, 0, 57, 0
2, 6424, Note_on_c, 0, 61, 42
2, 6444, Note_on_c, 0, 45, 0
2, 6449, Note_on_c, 0, 59, 88
2, 6453, Note_on_c, 0, 61, 0
2, 6472, Note_on_c, 0, 57, 59
2, 6496, Note_on_c, 0, 45, 59
2, 6496, Control_c, 0, 64, 0
2, 6497, Note_on_c, 0, 64, 91
2, 6514, Control_c, 0, 64, 127
2, 6520, Note_on_c, 0, 57, 0
2, 6536, Note_on_c, 0, 45, 0
2, 6541, Note_on_c, 0, 64, 0
2, 6543, Note_on_c, 0, 59, 0
2, 6544, Note_on_c, 0, 57, 67
2, 6550, Note_on_c, 0, 57, 0
2, 6592, Note_on_c, 0, 61, 23
2, 6597, Note_on_c, 0, 61, 0
2, 6615, Note_on_c, 0, 69, 102
2, 6637, Note_on_c, 0, 61, 35
2, 6651, Note_on_c, 0, 69, 0
2, 6654, Note_on_c, 0, 61, 0
2, 6662, Note_on_c, 0, 64, 82
2, 6678, Note_on_c, 0, 64, 0
2, 6685, Note_on_c, 0, 45, 79
2, 6708, Note_on_c, 0, 57, 73
2, 6725, Note_on_c, 0, 57, 0
2, 6734, Note_on_c, 0, 59, 77
2, 6745, Note_on_c, 0, 45, 0
2, 6757, Note_on_c, 0, 64, 91
2, 6784, Note_on_c, 0, 59, 0
2, 6787, Note_on_c, 0, 57, 34
2, 6794, Note_on_c, 0, 57, 0
2, 6807, Note_on_c, 0, 59, 95
2, 6828, Note_on_c, 0, 64, 0
2, 6831, Note_on_c, 0, 59, 0
2, 6831, Note_on_c, 0, 57, 67
2, 6843, Note_on_c, 0, 57, 0
2, 6856, Note_on_c, 0, 45, 48
2, 6882, Note_on_c, 0, 45, 0
2, 6883, Note_on_c, 0, 42, 73
2, 6883, Control_c, 0, 64, 0
2, 6885, Note_on_c, 0, 57, 79
2, 6905, Control_c, 0, 64, 127
2, 6916, Note_on_c, 0, 61, 2
2, 6919, Note_on_c, 0, 57, 0
2, 6928, Note_on_c, 0, 61, 0
2, 6929, Note_on_c, 0, 42, 0
2, 6937, Note_on_c, 0, 57, 42
2, 6953, Note_on_c, 0, 57, 0
2, 6960, Note_on_c, 0, 68, 88
2, 6980, Note_on_c, 0, 68, 0
2, 6982, Note_on_c, 0, 57, 41
2, 7003, Note_on_c, 0, 57, 0
2, 7005, Note_on_c, 0, 61, 50
2, 7029, Note_on_c, 0, 61, 0
2, 7031, Note_on_c, 0, 57, 37
2, 7050, Note_on_c, 0, 57, 0
2, 7075, Note_on_c, 0, 54, 41
2, 7078, Note_on_c, 0, 64, 53
2, 7079, Note_on_c, 0, 57, 56
2, 7082, Control_c, 0, 64, 0
2, 7099, Control_c, 0, 64, 127
2, 7108, Note_on_c, 0, 57, 0
2, 7121, Note_on_c, 0, 64, 0
2, 7123, Note_on_c, 0, 54, 0
2, 7124, Note_on_c, 0, 57, 53
2, 7137, Note_on_c, 0, 57, 0
2, 7148, Note_on_c, 0, 54, 88
2, 7180, Note_on_c, 0, 54, 0
2, 7180, Note_on_c, 0, 57, 44
2, 7201, Note_on_c, 0, 61, 79
2, 7206, Note_on_c, 0, 57, 0
2, 7229, Note_on_c, 0, 64, 88
2, 7232, Note_on_c, 0, 61, 0
2, 7253, Note_on_c, 0, 64, 0
2, 7255, Note_on_c, 0, 61, 36
2, 7280, Note_on_c, 0, 64, 71
2, 7280, Note_on_c, 0, 57, 65
2, 7280, Note_on_c, 0, 59, 56
2, 7281, Note_on_c, 0, 47, 53
2, 7282, Control_c, 0, 64, 0
2, 7304, Control_c, 0, 64, 127
2, 7318, Note_on_c, 0, 57, 0
2, 7318, Note_on_c, 0, 59, 0
2, 7329, Note_on_c, 0, 61, 0
2, 7330, Note_on_c, 0, 64, 0
2, 7332, Note_on_c, 0, 57, 38
2, 7332, Note_on_c, 0, 59, 35
2, 7343, Note_on_c, 0, 57, 0
2, 7343, Note_on_c, 0, 59, 0
2, 7392, Note_on_c, 0, 57, 1
2, 7393, Note_on_c, 0, 59, 1
2, 7410, Note_on_c, 0, 61, 50
2, 7415, Note_on_c, 0, 57, 0
2, 7415, Note_on_c, 0, 59, 0
2, 7440, Note_on_c, 0, 64, 71
2, 7450, Note_on_c, 0, 61, 0
2, 7465, Note_on_c, 0, 64, 0
2, 7472, Note_on_c, 0, 54, 82
2, 7473, Note_on_c, 0, 47, 0
2, 7480, Note_on_c, 0, 54, 0
2, 7509, Note_on_c, 0, 63, 35
2, 7509, Note_on_c, 0, 57, 42
2, 7510, Note_on_c, 0, 59, 41
2, 7510, Note_on_c, 0, 47, 71
2, 7517, Control_c, 0, 64, 0
2, 7535, Control_c, 0, 64, 127
2, 7546, Note_on_c, 0, 57, 0
2, 7547, Note_on_c, 0, 63, 0
2, 7547, Note_on_c, 0, 59, 0
2, 7566, Note_on_c, 0, 54, 38
2, 7594, Note_on_c, 0, 63, 42
2, 7629, Note_on_c, 0, 59, 31
2, 7630, Note_on_c, 0, 71, 53
2, 7662, Note_on_c, 0, 47, 0
2, 7662, Note_on_c, 0, 54, 0
2, 7663, Note_on_c, 0, 59, 0
2, 7702, Note_on_c, 0, 63, 0
2, 7703, Note_on_c, 0, 71, 0
2, 7860, Control_c, 0, 64, 0
2, 7872, Control_c, 0, 64, 0
2, 7872, Note_on_c, 0, 28, 77
2, 7872, Note_on_c, 0, 56, 102
2, 7872, Note_on_c, 0, 59, 114
2, 7872, Note_on_c, 0, 64, 100
2, 7882, Control_c, 0, 64, 127
2, 7905, Note_on_c, 0, 56, 0
2, 7916, Note_on_c, 0, 56, 53
2, 7918, Note_on_c, 0, 64, 0
2, 7921, Note_on_c, 0, 59, 0
2, 7924, Note_on_c, 0, 56, 0
2, 7934, Note_on_c, 0, 28, 0
2, 7939, Note_on_c, 0, 40, 91
2, 7963, Note_on_c, 0, 64, 53
2, 7977, Note_on_c, 0, 64, 0
2, 7985, Note_on_c, 0, 66, 44
2, 7995, Note_on_c, 0, 66, 0
2, 7996, Note_on_c, 0, 40, 0
2, 8012, Note_on_c, 0, 64, 44
2, 8021, Note_on_c, 0, 64, 0
2, 8033, Note_on_c, 0, 71, 100
2, 8053, Note_on_c, 0, 71, 0
2, 8055, Note_on_c, 0, 68, 62
2, 8056, Note_on_c, 0, 64, 85
2, 8070, Note_on_c, 0, 64, 0
2, 8073, Note_on_c, 0, 68, 0
2, 8078, Note_on_c, 0, 66, 62
2, 8096, Note_on_c, 0, 66, 0
2, 8103, Note_on_c, 0, 64, 41
2, 8109, Note_on_c, 0, 64, 0
2, 8130, Note_on_c, 0, 40, 94
2, 8150, Note_on_c, 0, 56, 98
2, 8160, Note_on_c, 0, 40, 0
2, 8167, Note_on_c, 0, 56, 0
2, 8171, Note_on_c, 0, 59, 107
2, 8194, Note_on_c, 0, 59, 0
2, 8195, Note_on_c, 0, 64, 113
2, 8205, Note_on_c, 0, 64, 0
2, 8214, Note_on_c, 0, 35, 42
2, 8221, Note_on_c, 0, 66, 48
2, 8226, Note_on_c, 0, 66, 0
2, 8229, Note_on_c, 0, 35, 0
2, 8246, Note_on_c, 0, 40, 44
2, 8246, Note_on_c, 0, 59, 29
2, 8247, Note_on_c, 0, 68, 107
2, 8247, Note_on_c, 0, 28, 73
2, 8250, Control_c, 0, 64, 0
2, 8272, Note_on_c, 0, 64, 53
2, 8275, Control_c, 0, 64, 127
2, 8280, Note_on_c, 0, 59, 0
2, 8283, Note_on_c, 0, 28, 0
2, 8292, Note_on_c, 0, 68, 0
2, 8292, Note_on_c, 0, 64, 0
2, 8294, Note_on_c, 0, 40, 0
2, 8296, Note_on_c, 0, 59, 59
2, 8303, Note_on_c, 0, 59, 0
2, 8336, Note_on_c, 0, 64, 59
2, 8347, Note_on_c, 0, 64, 0
2, 8355, Note_on_c, 0, 66, 38
2, 8376, Note_on_c, 0, 66, 0
2, 8383, Note_on_c, 0, 64, 26
2, 8391, Note_on_c, 0, 64, 0
2, 8404, Note_on_c, 0, 52, 77
2, 8425, Note_on_c, 0, 68, 94
2, 8425, Note_on_c, 0, 64, 79
2, 8425, Note_on_c, 0, 71, 98
2, 8437, Note_on_c, 0, 52, 0
2, 8443, Note_on_c, 0, 64, 0
2, 8447, Note_on_c, 0, 66, 42
2, 8449, Note_on_c, 0, 71, 0
2, 8453, Note_on_c, 0, 68, 0
2, 8470, Note_on_c, 0, 66, 0
2, 8471, Note_on_c, 0, 64, 56
2, 8486, Note_on_c, 0, 64, 0
2, 8493, Note_on_c, 0, 66, 79
2, 8518, Control_c, 0, 64, 0
2, 8519, Note_on_c, 0, 39, 114
2, 8534, Control_c, 0, 64, 127
2, 8539, Note_on_c, 0, 64, 79
2, 8542, Note_on_c, 0, 66, 0
2, 8556, Note_on_c, 0, 64, 0
2, 8564, Note_on_c, 0, 66, 65
2, 8571, Note_on_c, 0, 39, 0
2, 8572, Note_on_c, 0, 66, 0
2, 8594, Note_on_c, 0, 59, 71
2, 8594, Note_on_c, 0, 60, 56
2, 8596, Note_on_c, 0, 60, 0
2, 8614, Control_c, 0, 64, 0
2, 8617, Note_on_c, 0, 37, 98
2, 8618, Note_on_c, 0, 61, 88
2, 8618, Note_on_c, 0, 56, 91
2, 8620, Note_on_c, 0, 64, 95
2, 8635, Control_c, 0, 64, 127
2, 8654, Note_on_c, 0, 56, 0
2, 8667, Note_on_c, 0, 56, 59
2, 8669, Note_on_c, 0, 64, 0
2, 8672, Note_on_c, 0, 59, 0
2, 8672, Note_on_c, 0, 61, 0
2, 8677, Note_on_c, 0, 56, 0
2, 8687, Note_on_c, 0, 37, 0
2, 8707, Note_on_c, 0, 59, 65
2, 8728, Note_on_c, 0, 59, 0
2, 8730, Note_on_c, 0, 64, 31
2, 8749, Note_on_c, 0, 64, 0
2, 8753, Note_on_c, 0, 59, 67
2, 8754, Note_on_c, 0, 66, 44
2, 8762, Note_on_c, 0, 66, 0
2, 8770, Note_on_c, 0, 66, 42
2, 8779, Note_on_c, 0, 59, 0
2, 8792, Note_on_c, 0, 66, 0
2, 8793, Note_on_c, 0, 49, 98
2, 8818, Note_on_c, 0, 59, 59
2, 8826, Note_on_c, 0, 49, 0
2, 8835, Note_on_c, 0, 59, 0
2, 8839, Note_on_c, 0, 64, 95
2, 8860, Note_on_c, 0, 64, 0
2, 8863, Note_on_c, 0, 68, 91
2, 8884, Note_on_c, 0, 66, 108
2, 8884, Note_on_c, 0, 59, 113
2, 8889, Note_on_c, 0, 68, 0
2, 8904, Note_on_c, 0, 64, 91
2, 8908, Note_on_c, 0, 59, 0
2, 8909, Note_on_c, 0, 66, 0
2, 8924, Note_on_c, 0, 64, 0
2, 8927, Note_on_c, 0, 59, 85
2, 8935, Note_on_c, 0, 59, 0
2, 8948, Note_on_c, 0, 59, 50
2, 8953, Note_on_c, 0, 37, 44
2, 8963, Note_on_c, 0, 37, 0
2, 8975, Note_on_c, 0, 61, 91
2, 8977, Note_on_c, 0, 64, 95
2, 8977, Note_on_c, 0, 56, 88
2, 8978, Note_on_c, 0, 37, 100
2, 8981, Control_c, 0, 64, 0
2, 8999, Control_c, 0, 64, 127
2, 9006, Note_on_c, 0, 56, 0
2, 9025, Note_on_c, 0, 56, 50
2, 9028, Note_on_c, 0, 59, 0
2, 9033, Note_on_c, 0, 61, 0
2, 9045, Note_on_c, 0, 56, 0
2, 9046, Note_on_c, 0, 59, 59
2, 9050, Note_on_c, 0, 64, 0
2, 9066, Note_on_c, 0, 59, 0
2, 9067, Note_on_c, 0, 56, 43
2, 9077, Note_on_c, 0, 37, 0
2, 9081, Note_on_c, 0, 56, 0
2, 9089, Note_on_c, 0, 59, 34
2, 9103, Note_on_c, 0, 59, 0
2, 9154, Note_on_c, 0, 25, 65
2, 9175, Note_on_c, 0, 59, 48
2, 9187, Note_on_c, 0, 25, 0
2, 9200, Note_on_c, 0, 64, 71
2, 9203, Note_on_c, 0, 59, 0
2, 9215, Note_on_c, 0, 64, 0
2, 9222, Note_on_c, 0, 68, 79
2, 9246, Note_on_c, 0, 59, 95
2, 9246, Note_on_c, 0, 66, 94
2, 9247, Note_on_c, 0, 33, 53
2, 9250, Control_c, 0, 64, 0
2, 9267, Control_c, 0, 64, 127
2, 9270, Note_on_c, 0, 64, 77
2, 9276, Note_on_c, 0, 68, 0
2, 9279, Note_on_c, 0, 59, 0
2, 9288, Note_on_c, 0, 66, 0
2, 9291, Note_on_c, 0, 33, 0
2, 9291, Note_on_c, 0, 64, 0
2, 9292, Note_on_c, 0, 59, 73
2, 9303, Note_on_c, 0, 59, 0
2, 9310, Note_on_c, 0, 59, 100
2, 9337, Note_on_c, 0, 61, 102
2, 9337, Control_c, 0, 64, 0
2, 9337, Note_on_c, 0, 64, 103
2, 9338, Note_on_c, 0, 57, 107
2, 9338, Note_on_c, 0, 33, 100
2, 9359, Control_c, 0, 64, 127
2, 9371, Note_on_c, 0, 57, 0
2, 9383, Note_on_c, 0, 59, 0
2, 9383, Note_on_c, 0, 57, 73
2, 9384, Note_on_c, 0, 64, 0
2, 9385, Note_on_c, 0, 61, 0
2, 9392, Note_on_c, 0, 57, 0
2, 9425, Note_on_c, 0, 45, 82
2, 9427, Note_on_c, 0, 69, 73
2, 9443, Note_on_c, 0, 69, 0
2, 9446, Note_on_c, 0, 71, 50
2, 9467, Note_on_c, 0, 33, 0
2, 9468, Note_on_c, 0, 45, 0
2, 9468, Note_on_c, 0, 71, 0
2, 9470, Note_on_c, 0, 69, 42
2, 9477, Note_on_c, 0, 69, 0
2, 9489, Note_on_c, 0, 73, 62
2, 9499, Note_on_c, 0, 73, 0
2, 9511, Note_on_c, 0, 76, 102
2, 9512, Note_on_c, 0, 69, 65
2, 9532, Note_on_c, 0, 76, 0
2, 9532, Note_on_c, 0, 69, 0
2, 9532, Note_on_c, 0, 73, 65
2, 9550, Note_on_c, 0, 73, 0
2, 9553, Note_on_c, 0, 71, 82
2, 9562, Note_on_c, 0, 71, 0
2, 9601, Note_on_c, 0, 45, 91
2, 9624, Note_on_c, 0, 57, 77
2, 9641, Note_on_c, 0, 57, 0
2, 9646, Note_on_c, 0, 45, 0
2, 9646, Note_on_c, 0, 59, 95
2, 9661, Note_on_c, 0, 59, 0
2, 9668, Note_on_c, 0, 61, 108
2, 9668, Note_on_c, 0, 40, 62
2, 9689, Control_c, 0, 64, 0
2, 9693, Note_on_c, 0, 40, 0
2, 9694, Note_on_c, 0, 33, 71
2, 9695, Note_on_c, 0, 64, 98
2, 9695, Note_on_c, 0, 59, 95
2, 9695, Note_on_c, 0, 57, 95
2, 9720, Control_c, 0, 64, 127
2, 9727, Note_on_c, 0, 57, 0
2, 9741, Note_on_c, 0, 57, 50
2, 9743, Note_on_c, 0, 64, 0
2, 9747, Note_on_c, 0, 59, 0
2, 9748, Note_on_c, 0, 61, 0
2, 9751, Note_on_c, 0, 57, 0
2, 9752, Note_on_c, 0, 33, 0
2, 9762, Note_on_c, 0, 45, 44
2, 9784, Note_on_c, 0, 61, 62
2, 9802, Note_on_c, 0, 61, 0
2, 9805, Note_on_c, 0, 64, 28
2, 9821, Note_on_c, 0, 64, 0
2, 9826, Note_on_c, 0, 61, 42
2, 9829, Note_on_c, 0, 45, 0
2, 9836, Note_on_c, 0, 61, 0
2, 9849, Note_on_c, 0, 45, 82
2, 9871, Note_on_c, 0, 64, 110
2, 9872, Note_on_c, 0, 61, 110
2, 9872, Note_on_c, 0, 69, 103
2, 9899, Note_on_c, 0, 61, 0
2, 9912, Note_on_c, 0, 64, 0
2, 9912, Note_on_c, 0, 61, 56
2, 9913, Note_on_c, 0, 69, 0
2, 9920, Note_on_c, 0, 45, 0
2, 9926, Note_on_c, 0, 61, 0
2, 9933, Note_on_c, 0, 45, 50
2, 9934, Note_on_c, 0, 64, 77
2, 9958, Note_on_c, 0, 45, 0
2, 9959, Note_on_c, 0, 44, 98
2, 9959, Note_on_c, 0, 61, 98
2, 9959, Note_on_c, 0, 68, 79
2, 9962, Control_c, 0, 64, 0
2, 9977, Note_on_c, 0, 61, 0
2, 9981, Control_c, 0, 64, 127
2, 9982, Note_on_c, 0, 61, 38
2, 9994, Note_on_c, 0, 61, 0
2, 9996, Note_on_c, 0, 68, 0
2, 10005, Note_on_c, 0, 44, 0
2, 10008, Note_on_c, 0, 64, 0
2, 10010, Note_on_c, 0, 61, 100
2, 10017, Note_on_c, 0, 61, 0
2, 10028, Note_on_c, 0, 61, 73
2, 10055, Note_on_c, 0, 30, 67
2, 10055, Note_on_c, 0, 42, 91
2, 10056, Note_on_c, 0, 68, 108
2, 10056, Note_on_c, 0, 57, 85
2, 10057, Control_c, 0, 64, 0
2, 10074, Control_c, 0, 64, 127
2, 10088, Note_on_c, 0, 57, 0
2, 10100, Note_on_c, 0, 68, 0
2, 10100, Note_on_c, 0, 57, 77
2, 10102, Note_on_c, 0, 61, 0
2, 10105, Note_on_c, 0, 42, 0
2, 10106, Note_on_c, 0, 30, 0
2, 10116, Note_on_c, 0, 57, 0
2, 10119, Note_on_c, 0, 61, 79
2, 10124, Note_on_c, 0, 61, 0
2, 10145, Note_on_c, 0, 42, 82
2, 10166, Note_on_c, 0, 57, 50
2, 10181, Note_on_c, 0, 57, 0
2, 10188, Note_on_c, 0, 61, 53
2, 10190, Note_on_c, 0, 42, 0
2, 10206, Note_on_c, 0, 61, 0
2, 10213, Note_on_c, 0, 57, 19
2, 10221, Note_on_c, 0, 57, 0
2, 10235, Note_on_c, 0, 64, 103
2, 10235, Note_on_c, 0, 57, 88
2, 10269, Note_on_c, 0, 57, 0
2, 10277, Note_on_c, 0, 64, 0
2, 10279, Note_on_c, 0, 57, 42
2, 10295, Note_on_c, 0, 57, 0
2, 10302, Note_on_c, 0, 42, 73
2, 10328, Note_on_c, 0, 57, 59
2, 10350, Note_on_c, 0, 61, 100
2, 10351, Note_on_c, 0, 42, 0
2, 10354, Note_on_c, 0, 57, 0
2, 10372, Note_on_c, 0, 64, 82
2, 10377, Note_on_c, 0, 61, 0
2, 10385, Note_on_c, 0, 64, 0
2, 10391, Note_on_c, 0, 30, 41
2, 10407, Note_on_c, 0, 30, 0
2, 10419, Note_on_c, 0, 61, 65
2, 10420, Note_on_c, 0, 64, 50
2, 10421, Note_on_c, 0, 57, 79
2, 10421, Note_on_c, 0, 59, 67
2, 10422, Note_on_c, 0, 35, 62
2, 10423, Control_c, 0, 64, 0
2, 10442, Control_c, 0, 64, 127
2, 10525, Note_on_c, 0, 64, 0
2, 10529, Note_on_c, 0, 59, 0
2, 10530, Note_on_c, 0, 57, 0
2, 10534, Note_on_c, 0, 61, 0
2, 10605, Note_on_c, 0, 63, 13
2, 10608, Note_on_c, 0, 71, 14
2, 10610, Note_on_c, 0, 47, 12
2, 10639, Note_on_c, 0, 63, 0
2, 10641, Note_on_c, 0, 71, 0
2, 10726, Note_on_c, 0, 71, 1
2, 10728, Note_on_c, 0, 83, 22
2, 10753, Note_on_c, 0, 83, 0
2, 10756, Note_on_c, 0, 71, 0
2, 10768, Note_on_c, 0, 47, 0
2, 10773, Note_on_c, 0, 35, 0
2, 10948, Control_c, 0, 64, 0
2, 11028, Control_c, 0, 64, 0
2, 11028, Note_on_c, 0, 40, 85
2, 11029, Note_on_c, 0, 66, 108
2, 11030, Note_on_c, 0, 56, 98
2, 11030, Note_on_c, 0, 59, 108
2, 11042, Control_c, 0, 64, 127
2, 11047, Note_on_c, 0, 56, 0
2, 11053, Note_on_c, 0, 56, 56
2, 11058, Note_on_c, 0, 59, 0
2, 11064, Note_on_c, 0, 66, 0
2, 11073, Note_on_c, 0, 56, 0
2, 11078, Note_on_c, 0, 59, 82
2, 11102, Note_on_c, 0, 64, 95
2, 11109, Note_on_c, 0, 59, 0
2, 11122, Note_on_c, 0, 64, 0
2, 11125, Note_on_c, 0, 56, 62
2, 11132, Note_on_c, 0, 56, 0
2, 11151, Note_on_c, 0, 71, 42
2, 11170, Note_on_c, 0, 71, 0
2, 11197, Note_on_c, 0, 66, 62
2, 11209, Note_on_c, 0, 66, 0
2, 11212, Note_on_c, 0, 40, 0
2, 11270, Note_on_c, 0, 56, 41
2, 11276, Note_on_c, 0, 56, 0
2, 11290, Note_on_c, 0, 59, 85
2, 11332, Note_on_c, 0, 56, 67
2, 11333, Note_on_c, 0, 64, 73
2, 11341, Note_on_c, 0, 59, 0
2, 11348, Note_on_c, 0, 56, 0
2, 11354, Note_on_c, 0, 64, 0
2, 11355, Note_on_c, 0, 59, 95
2, 11372, Note_on_c, 0, 59, 0
2, 11376, Note_on_c, 0, 56, 102
2, 11378, Note_on_c, 0, 59, 29
2, 11381, Note_on_c, 0, 59, 0
2, 11386, Note_on_c, 0, 56, 0
2, 11401, Note_on_c, 0, 28, 77
2, 11402, Note_on_c, 0, 59, 103
2, 11402, Note_on_c, 0, 56, 65
2, 11403, Note_on_c, 0, 66, 102
2, 11404, Control_c, 0, 64, 0
2, 11429, Control_c, 0, 64, 127
2, 11434, Note_on_c, 0, 56, 0
2, 11448, Note_on_c, 0, 56, 82
2, 11449, Note_on_c, 0, 66, 0
2, 11451, Note_on_c, 0, 59, 0
2, 11461, Note_on_c, 0, 28, 0
2, 11462, Note_on_c, 0, 56, 0
2, 11470, Note_on_c, 0, 64, 107
2, 11485, Note_on_c, 0, 64, 0
2, 11493, Note_on_c, 0, 56, 34
2, 11500, Note_on_c, 0, 56, 0
2, 11540, Note_on_c, 0, 64, 56
2, 11547, Note_on_c, 0, 64, 0
2, 11558, Note_on_c, 0, 71, 103
2, 11578, Note_on_c, 0, 71, 0
2, 11580, Note_on_c, 0, 66, 43
2, 11583, Note_on_c, 0, 64, 53
2, 11583, Note_on_c, 0, 40, 77
2, 11589, Note_on_c, 0, 66, 0
2, 11593, Note_on_c, 0, 64, 0
2, 11621, Note_on_c, 0, 40, 0
2, 11628, Note_on_c, 0, 56, 36
2, 11645, Note_on_c, 0, 56, 0
2, 11650, Note_on_c, 0, 59, 65
2, 11675, Note_on_c, 0, 56, 108
2, 11675, Note_on_c, 0, 39, 108
2, 11678, Control_c, 0, 64, 0
2, 11687, Note_on_c, 0, 59, 0
2, 11695, Note_on_c, 0, 59, 53
2, 11699, Note_on_c, 0, 56, 0
2, 11701, Control_c, 0, 64, 127
2, 11718, Note_on_c, 0, 64, 107
2, 11724, Note_on_c, 0, 59, 0
2, 11731, Note_on_c, 0, 39, 0
2, 11741, Note_on_c, 0, 64, 0
2, 11741, Note_on_c, 0, 59, 103
2, 11742, Note_on_c, 0, 56, 41
2, 11749, Note_on_c, 0, 56, 0
2, 11759, Control_c, 0, 64, 0
2, 11763, Note_on_c, 0, 61, 102
2, 11763, Note_on_c, 0, 56, 82
2, 11764, Note_on_c, 0, 37, 110
2, 11781, Note_on_c, 0, 56, 0
2, 11783, Control_c, 0, 64, 127
2, 11801, Note_on_c, 0, 61, 0
2, 11807, Note_on_c, 0, 59, 0
2, 11811, Note_on_c, 0, 56, 20
2, 11816, Note_on_c, 0, 56, 0
2, 11831, Note_on_c, 0, 68, 38
2, 11847, Note_on_c, 0, 68, 0
2, 11853, Note_on_c, 0, 59, 71
2, 11876, Note_on_c, 0, 64, 85
2, 11880, Note_on_c, 0, 59, 0
2, 11891, Note_on_c, 0, 64, 0
2, 11925, Note_on_c, 0, 75, 110
2, 11943, Note_on_c, 0, 75, 0
2, 11946, Note_on_c, 0, 64, 43
2, 11961, Note_on_c, 0, 64, 0
2, 11967, Note_on_c, 0, 68, 35
2, 11968, Note_on_c, 0, 37, 0
2, 11984, Note_on_c, 0, 68, 0
2, 12012, Note_on_c, 0, 71, 95
2, 12037, Note_on_c, 0, 71, 0
2, 12040, Note_on_c, 0, 64, 6
2, 12044, Note_on_c, 0, 49, 12
2, 12048, Note_on_c, 0, 49, 0
2, 12050, Note_on_c, 0, 64, 0
2, 12055, Note_on_c, 0, 68, 59
2, 12061, Note_on_c, 0, 68, 0
2, 12080, Note_on_c, 0, 49, 62
2, 12092, Note_on_c, 0, 49, 0
2, 12100, Note_on_c, 0, 44, 44
2, 12107, Note_on_c, 0, 59, 22
2, 12125, Control_c, 0, 64, 0
2, 12126, Note_on_c, 0, 44, 0
2, 12127, Note_on_c, 0, 61, 102
2, 12128, Note_on_c, 0, 37, 73
2, 12128, Note_on_c, 0, 56, 62
2, 12129, Note_on_c, 0, 64, 91
2, 12131, Note_on_c, 0, 49, 88
2, 12149, Control_c, 0, 64, 127
2, 12161, Note_on_c, 0, 56, 0
2, 12162, Note_on_c, 0, 49, 0
2, 12174, Note_on_c, 0, 64, 0
2, 12174, Note_on_c, 0, 56, 44
2, 12175, Note_on_c, 0, 59, 0
2, 12176, Note_on_c, 0, 61, 0
2, 12176, Note_on_c, 0, 37, 0
2, 12189, Note_on_c, 0, 56, 0
2, 12195, Note_on_c, 0, 59, 82
2, 12202, Note_on_c, 0, 37, 19
2, 12206, Note_on_c, 0, 37, 0
2, 12213, Note_on_c, 0, 59, 0
2, 12217, Note_on_c, 0, 56, 38
2, 12223, Note_on_c, 0, 56, 0
2, 12239, Note_on_c, 0, 68, 53
2, 12258, Note_on_c, 0, 59, 59
2, 12263, Note_on_c, 0, 68, 0
2, 12280, Note_on_c, 0, 64, 98
2, 12303, Note_on_c, 0, 37, 107
2, 12304, Note_on_c, 0, 25, 91
2, 12316, Note_on_c, 0, 59, 0
2, 12319, Note_on_c, 0, 64, 0
2, 12326, Note_on_c, 0, 59, 59
2, 12334, Note_on_c, 0, 25, 0
2, 12347, Note_on_c, 0, 64, 35
2, 12348, Note_on_c, 0, 59, 0
2, 12349, Note_on_c, 0, 37, 0
2, 12365, Note_on_c, 0, 64, 0
2, 12370, Note_on_c, 0, 68, 43
2, 12393, Note_on_c, 0, 35, 71
2, 12393, Note_on_c, 0, 66, 31
2, 12394, Note_on_c, 0, 59, 73
2, 12396, Control_c, 0, 64, 0
2, 12413, Control_c, 0, 64, 127
2, 12414, Note_on_c, 0, 64, 82
2, 12419, Note_on_c, 0, 68, 0
2, 12420, Note_on_c, 0, 59, 0
2, 12427, Note_on_c, 0, 66, 0
2, 12434, Note_on_c, 0, 64, 0
2, 12437, Note_on_c, 0, 59, 88
2, 12444, Note_on_c, 0, 35, 0
2, 12447, Note_on_c, 0, 59, 0
2, 12456, Note_on_c, 0, 59, 98
2, 12483, Note_on_c, 0, 59, 0
2, 12485, Control_c, 0, 64, 0
2, 12485, Note_on_c, 0, 33, 103
2, 12486, Note_on_c, 0, 57, 77
2, 12486, Note_on_c, 0, 59, 65
2, 12505, Control_c, 0, 64, 127
2, 12511, Note_on_c, 0, 57, 0
2, 12529, Note_on_c, 0, 59, 0
2, 12531, Note_on_c, 0, 57, 50
2, 12550, Note_on_c, 0, 57, 0
2, 12553, Note_on_c, 0, 64, 107
2, 12574, Note_on_c, 0, 57, 56
2, 12575, Note_on_c, 0, 64, 0
2, 12587, Note_on_c, 0, 57, 0
2, 12595, Note_on_c, 0, 61, 79
2, 12597, Note_on_c, 0, 57, 53
2, 12618, Note_on_c, 0, 59, 98
2, 12621, Note_on_c, 0, 57, 0
2, 12622, Note_on_c, 0, 61, 0
2, 12637, Note_on_c, 0, 59, 0
2, 12640, Note_on_c, 0, 57, 88
2, 12648, Note_on_c, 0, 57, 0
2, 12664, Note_on_c, 0, 45, 94
2, 12683, Note_on_c, 0, 61, 59
2, 12698, Note_on_c, 0, 61, 0
2, 12704, Note_on_c, 0, 64, 43
2, 12727, Note_on_c, 0, 69, 102
2, 12733, Note_on_c, 0, 64, 0
2, 12767, Note_on_c, 0, 69, 0
2, 12770, Note_on_c, 0, 64, 59
2, 12775, Note_on_c, 0, 45, 0
2, 12788, Note_on_c, 0, 33, 0
2, 12790, Note_on_c, 0, 64, 0
2, 12792, Note_on_c, 0, 61, 73
2, 12801, Note_on_c, 0, 61, 0
2, 12813, Note_on_c, 0, 59, 100
2, 12836, Note_on_c, 0, 61, 98
2, 12836, Note_on_c, 0, 57, 102
2, 12836, Note_on_c, 0, 64, 107
2, 12837, Note_on_c, 0, 33, 100
2, 12837, Control_c, 0, 64, 0
2, 12855, Control_c, 0, 64, 127
2, 12868, Note_on_c, 0, 57, 0
2, 12879, Note_on_c, 0, 57, 59
2, 12881, Note_on_c, 0, 64, 0
2, 12885, Note_on_c, 0, 59, 0
2, 12886, Note_on_c, 0, 61, 0
2, 12898, Note_on_c, 0, 57, 0
2, 12901, Note_on_c, 0, 45, 94
2, 12920, Note_on_c, 0, 57, 44
2, 12941, Note_on_c, 0, 57, 0
2, 12946, Note_on_c, 0, 59, 48
2, 12969, Note_on_c, 0, 59, 0
2, 12969, Note_on_c, 0, 57, 62
2, 12985, Note_on_c, 0, 57, 0
2, 12993, Note_on_c, 0, 61, 113
2, 13016, Note_on_c, 0, 57, 65
2, 13018, Note_on_c, 0, 61, 0
2, 13033, Note_on_c, 0, 57, 0
2, 13034, Note_on_c, 0, 45, 0
2, 13037, Note_on_c, 0, 59, 94
2, 13044, Note_on_c, 0, 33, 0
2, 13053, Note_on_c, 0, 59, 0
2, 13058, Note_on_c, 0, 57, 82
2, 13065, Note_on_c, 0, 57, 0
2, 13081, Note_on_c, 0, 45, 94
2, 13102, Note_on_c, 0, 69, 79
2, 13103, Note_on_c, 0, 61, 35
2, 13108, Note_on_c, 0, 61, 0
2, 13121, Note_on_c, 0, 69, 0
2, 13122, Note_on_c, 0, 64, 100
2, 13128, Note_on_c, 0, 45, 0
2, 13143, Note_on_c, 0, 64, 0
2, 13145, Note_on_c, 0, 61, 113
2, 13155, Note_on_c, 0, 61, 0
2, 13164, Note_on_c, 0, 33, 71
2, 13187, Note_on_c, 0, 33, 0
2, 13191, Note_on_c, 0, 35, 71
2, 13192, Note_on_c, 0, 57, 110
2, 13192, Note_on_c, 0, 59, 103
2, 13192, Note_on_c, 0, 64, 100
2, 13195, Control_c, 0, 64, 0
2, 13217, Control_c, 0, 64, 127
2, 13234, Note_on_c, 0, 57, 0
2, 13235, Note_on_c, 0, 59, 0
2, 13241, Note_on_c, 0, 64, 0
2, 13241, Note_on_c, 0, 57, 17
2, 13242, Note_on_c, 0, 59, 10
2, 13248, Note_on_c, 0, 57, 0
2, 13248, Note_on_c, 0, 59, 0
2, 13279, Note_on_c, 0, 57, 53
2, 13279, Note_on_c, 0, 59, 44
2, 13289, Note_on_c, 0, 59, 0
2, 13290, Note_on_c, 0, 57, 0
2, 13300, Note_on_c, 0, 61, 82
2, 13319, Note_on_c, 0, 61, 0
2, 13345, Note_on_c, 0, 64, 88
2, 13367, Note_on_c, 0, 57, 20
2, 13368, Note_on_c, 0, 64, 0
2, 13384, Note_on_c, 0, 57, 0
2, 13384, Note_on_c, 0, 61, 79
2, 13406, Note_on_c, 0, 61, 0
2, 13408, Note_on_c, 0, 57, 42
2, 13408, Note_on_c, 0, 59, 36
2, 13417, Note_on_c, 0, 57, 0
2, 13417, Note_on_c, 0, 59, 0
2, 13432, Note_on_c, 0, 64, 56
2, 13440, Note_on_c, 0, 64, 0
2, 13452, Note_on_c, 0, 35, 0
2, 13456, Note_on_c, 0, 47, 65
2, 13477, Note_on_c, 0, 71, 94
2, 13489, Note_on_c, 0, 71, 0
2, 13506, Note_on_c, 0, 47, 0
2, 13522, Note_on_c, 0, 61, 62
2, 13523, Note_on_c, 0, 42, 43
2, 13545, Note_on_c, 0, 42, 0
2, 13550, Note_on_c, 0, 61, 0
2, 13550, Note_on_c, 0, 63, 56
2, 13550, Note_on_c, 0, 47, 44
2, 13550, Note_on_c, 0, 35, 53
2, 13551, Note_on_c, 0, 57, 59
2, 13551, Note_on_c, 0, 59, 50
2, 13555, Control_c, 0, 64, 0
2, 13574, Control_c, 0, 64, 127
2, 13587, Note_on_c, 0, 57, 0
2, 13588, Note_on_c, 0, 59, 0
2, 13594, Note_on_c, 0, 57, 41
2, 13594, Note_on_c, 0, 59, 31
2, 13595, Note_on_c, 0, 63, 0
2, 13595, Note_on_c, 0, 35, 0
2, 13601, Note_on_c, 0, 57, 0
2, 13602, Note_on_c, 0, 47, 0
2, 13602, Note_on_c, 0, 59, 0
2, 13616, Note_on_c, 0, 47, 34
2, 13660, Note_on_c, 0, 47, 0
2, 13687, Note_on_c, 0, 47, 26
2, 13738, Note_on_c, 0, 83, 50
2, 13742, Note_on_c, 0, 75, 29
2, 13771, Note_on_c, 0, 83, 0
2, 13777, Note_on_c, 0, 75, 0
2, 13786, Note_on_c, 0, 78, 1
2, 13811, Note_on_c, 0, 47, 0
2, 13817, Note_on_c, 0, 78, 0
2, 13843, Note_on_c, 0, 75, 14
2, 13857, Note_on_c, 0, 75, 0
2, 13989, Control_c, 0, 64, 0
2, 13997, Control_c, 0, 64, 0
2, 13997, Note_on_c, 0, 40, 82
2, 13997, Note_on_c, 0, 52, 98
2, 14019, Control_c, 0, 64, 127
2, 14023, Note_on_c, 0, 59, 38
2, 14046, Note_on_c, 0, 64, 53
2, 14057, Note_on_c, 0, 40, 0
2, 14063, Note_on_c, 0, 59, 0
2, 14063, Note_on_c, 0, 64, 0
2, 14070, Note_on_c, 0, 68, 62
2, 14071, Note_on_c, 0, 52, 0
2, 14089, Note_on_c, 0, 68, 0
2, 14097, Note_on_c, 0, 59, 16
2, 14114, Note_on_c, 0, 66, 41
2, 14123, Note_on_c, 0, 59, 0
2, 14140, Note_on_c, 0, 59, 41
2, 14142, Note_on_c, 0, 66, 0
2, 14150, Note_on_c, 0, 59, 0
2, 14166, Note_on_c, 0, 71, 71
2, 14187, Note_on_c, 0, 71, 0
2, 14214, Note_on_c, 0, 64, 37
2, 14233, Note_on_c, 0, 64, 0
2, 14243, Note_on_c, 0, 66, 36
2, 14260, Note_on_c, 0, 66, 0
2, 14296, Note_on_c, 0, 52, 35
2, 14316, Note_on_c, 0, 59, 35
2, 14327, Note_on_c, 0, 52, 0
2, 14340, Note_on_c, 0, 64, 42
2, 14366, Note_on_c, 0, 66, 44
2, 14390, Control_c, 0, 64, 0
2, 14395, Note_on_c, 0, 68, 59
2, 14396, Note_on_c, 0, 40, 62
2, 14421, Control_c, 0, 64, 127
2, 14423, Note_on_c, 0, 59, 0
2, 14428, Note_on_c, 0, 59, 42
2, 14435, Note_on_c, 0, 64, 0
2, 14442, Note_on_c, 0, 68, 0
2, 14451, Note_on_c, 0, 59, 0
2, 14453, Note_on_c, 0, 64, 48
2, 14455, Note_on_c, 0, 40, 0
2, 14462, Note_on_c, 0, 66, 0
2, 14474, Note_on_c, 0, 64, 0
2, 14477, Note_on_c, 0, 59, 48
2, 14485, Note_on_c, 0, 59, 0
2, 14501, Note_on_c, 0, 52, 62
2, 14521, Note_on_c, 0, 64, 22
2, 14545, Note_on_c, 0, 64, 0
2, 14545, Note_on_c, 0, 71, 85
2, 14569, Note_on_c, 0, 66, 62
2, 14570, Note_on_c, 0, 71, 0
2, 14593, Note_on_c, 0, 64, 56
2, 14595, Note_on_c, 0, 66, 0
2, 14606, Note_on_c, 0, 64, 0
2, 14615, Note_on_c, 0, 66, 59
2, 14616, Note_on_c, 0, 52, 0
2, 14621, Note_on_c, 0, 66, 0
2, 14642, Note_on_c, 0, 52, 42
2, 14662, Note_on_c, 0, 68, 43
2, 14690, Note_on_c, 0, 76, 79
2, 14710, Note_on_c, 0, 68, 0
2, 14716, Note_on_c, 0, 71, 65
2, 14720, Note_on_c, 0, 76, 0
2, 14728, Note_on_c, 0, 52, 0
2, 14741, Note_on_c, 0, 68, 62
2, 14742, Note_on_c, 0, 71, 0
2, 14750, Note_on_c, 0, 68, 0
2, 14800, Control_c, 0, 64, 0
2, 14803, Note_on_c, 0, 49, 102
2, 14829, Note_on_c, 0, 56, 41
2, 14836, Control_c, 0, 64, 127
2, 14853, Note_on_c, 0, 59, 36
2, 14857, Note_on_c, 0, 56, 0
2, 14878, Note_on_c, 0, 64, 98
2, 14884, Note_on_c, 0, 59, 0
2, 14904, Note_on_c, 0, 56, 41
2, 14927, Note_on_c, 0, 56, 0
2, 14932, Note_on_c, 0, 61, 26
2, 14935, Note_on_c, 0, 64, 0
2, 14955, Note_on_c, 0, 59, 56
2, 14957, Note_on_c, 0, 61, 0
2, 14981, Note_on_c, 0, 59, 0
2, 14982, Note_on_c, 0, 56, 29
2, 14996, Note_on_c, 0, 56, 0
2, 15016, Note_on_c, 0, 68, 10
2, 15028, Note_on_c, 0, 49, 0
2, 15028, Note_on_c, 0, 68, 0
2, 15043, Note_on_c, 0, 61, 1
2, 15058, Note_on_c, 0, 61, 0
2, 15066, Note_on_c, 0, 64, 16
2, 15088, Note_on_c, 0, 64, 0
2, 15092, Note_on_c, 0, 61, 19
2, 15123, Note_on_c, 0, 61, 0
2, 15164, Note_on_c, 0, 61, 19
2, 15172, Note_on_c, 0, 61, 0
2, 15200, Note_on_c, 0, 57, 13
2, 15237, Note_on_c, 0, 45, 65
2, 15240, Control_c, 0, 64, 0
2, 15254, Note_on_c, 0, 57, 0
2, 15265, Note_on_c, 0, 57, 38
2, 15277, Control_c, 0, 64, 127
2, 15296, Note_on_c, 0, 59, 14
2, 15299, Note_on_c, 0, 57, 0
2, 15317, Note_on_c, 0, 59, 0
2, 15331, Note_on_c, 0, 64, 59
2, 15338, Note_on_c, 0, 64, 0
2, 15391, Note_on_c, 0, 69, 19
2, 15423, Note_on_c, 0, 71, 31
2, 15450, Note_on_c, 0, 69, 0
2, 15458, Note_on_c, 0, 76, 13
2, 15464, Note_on_c, 0, 71, 0
2, 15469, Note_on_c, 0, 76, 0
2, 15519, Note_on_c, 0, 81, 20
2, 15557, Note_on_c, 0, 83, 12
2, 15598, Note_on_c, 0, 88, 1
2, 15608, Note_on_c, 0, 81, 0
2, 15618, Note_on_c, 0, 83, 0
2, 15619, Note_on_c, 0, 88, 0
2, 15638, Note_on_c, 0, 45, 0
2, 15880, Control_c, 0, 64, 0
2, 15880, End_track
3, 0, Start_track
3, 0, MIDI_port, 0
3, 0, Title_t, "Fretless Bass"
3, 3, Control_c, 1, 64, 0
3, 3, Control_c, 1, 93, 80
3, 3, Control_c, 1, 91, 80
3, 3, Program_c, 1, 35
3, 3, Control_c, 1, 7, 110
3, 3, Note_on_c, 1, 28, 53
3, 392, Note_on_c, 1, 28, 0
3, 394, Note_on_c, 1, 25, 38
3, 782, Note_on_c, 1, 25, 0
3, 790, Note_on_c, 1, 33, 42
3, 987, Note_on_c, 1, 35, 38
3, 988, Note_on_c, 1, 33, 0
3, 1403, Note_on_c, 1, 35, 0
3, 4576, Pitch_bend_c, 1, 8050
3, 4576, Pitch_bend_c, 1, 7980
3, 4576, Pitch_bend_c, 1, 7838
3, 4576, Pitch_bend_c, 1, 7627
3, 4576, Pitch_bend_c, 1, 7485
3, 4576, Pitch_bend_c, 1, 7344
3, 4576, Pitch_bend_c, 1, 7273
3, 4576, Pitch_bend_c, 1, 7132
3, 4576, Pitch_bend_c, 1, 6991
3, 4576, Pitch_bend_c, 1, 6850
3, 4576, Pitch_bend_c, 1, 6779
3, 4576, Pitch_bend_c, 1, 6567
3, 4576, Pitch_bend_c, 1, 6426
3, 4576, Pitch_bend_c, 1, 6285
3, 4576, Pitch_bend_c, 1, 6143
3, 4576, Pitch_bend_c, 1, 6002
3, 4576, Pitch_bend_c, 1, 5932
3, 4576, Pitch_bend_c, 1, 5790
3, 4576, Pitch_bend_c, 1, 5720
3, 4576, Pitch_bend_c, 1, 5579
3, 4576, Pitch_bend_c, 1, 5508
3, 4576, Pitch_bend_c, 1, 5437
3, 4576, Pitch_bend_c, 1, 5367
3, 4576, Pitch_bend_c, 1, 5296
3, 4576, Pitch_bend_c, 1, 5225
3, 4576, Pitch_bend_c, 1, 5155
3, 4578, Note_on_c, 1, 40, 98
3, 4581, Pitch_bend_c, 1, 5084
3, 4589, Pitch_bend_c, 1, 5155
3, 4590, Pitch_bend_c, 1, 5296
3, 4592, Pitch_bend_c, 1, 5437
3, 4593, Pitch_bend_c, 1, 5579
3, 4593, Pitch_bend_c, 1, 5720
3, 4594, Pitch_bend_c, 1, 5932
3, 4595, Pitch_bend_c, 1, 6143
3, 4596, Pitch_bend_c, 1, 6355
3, 4597, Pitch_bend_c, 1, 6567
3, 4598, Pitch_bend_c, 1, 6708
3, 4599, Pitch_bend_c, 1, 6850
3, 4600, Pitch_bend_c, 1, 6920
3, 4601, Pitch_bend_c, 1, 6991
3, 4602, Pitch_bend_c, 1, 7062
3, 4603, Pitch_bend_c, 1, 7203
3, 4604, Pitch_bend_c, 1, 7344
3, 4605, Pitch_bend_c, 1, 7485
3, 4606, Pitch_bend_c, 1, 7697
3, 4607, Pitch_bend_c, 1, 7909
3, 4608, Pitch_bend_c, 1, 8050
3, 4609, Pitch_bend_c, 1, 8192
3, 4916, Note_on_c, 1, 35, 59
3, 4917, Note_on_c, 1, 40, 0
3, 4961, Note_on_c, 1, 35, 0
3, 4967, Note_on_c, 1, 28, 95
3, 5245, Note_on_c, 1, 28, 0
3, 5253, Note_on_c, 1, 39, 88
3, 5344, Note_on_c, 1, 39, 0
3, 5349, Note_on_c, 1, 37, 91
3, 5728, Note_on_c, 1, 37, 0
3, 5736, Note_on_c, 1, 25, 107
3, 6012, Note_on_c, 1, 25, 0
3, 6020, Note_on_c, 1, 35, 59
3, 6111, Note_on_c, 1, 35, 0
3, 6122, Note_on_c, 1, 33, 94
3, 6492, Note_on_c, 1, 33, 0
3, 6502, Note_on_c, 1, 45, 102
3, 6567, Control_c, 1, 1, 14
3, 6569, Control_c, 1, 1, 19
3, 6571, Control_c, 1, 1, 23
3, 6573, Control_c, 1, 1, 27
3, 6575, Control_c, 1, 1, 31
3, 6577, Control_c, 1, 1, 35
3, 6579, Control_c, 1, 1, 39
3, 6581, Control_c, 1, 1, 42
3, 6583, Control_c, 1, 1, 45
3, 6585, Control_c, 1, 1, 48
3, 6587, Control_c, 1, 1, 51
3, 6589, Control_c, 1, 1, 54
3, 6591, Control_c, 1, 1, 56
3, 6593, Control_c, 1, 1, 59
3, 6595, Control_c, 1, 1, 61
3, 6596, Control_c, 1, 1, 64
3, 6598, Control_c, 1, 1, 66
3, 6600, Control_c, 1, 1, 68
3, 6602, Control_c, 1, 1, 70
3, 6604, Control_c, 1, 1, 72
3, 6606, Control_c, 1, 1, 73
3, 6608, Control_c, 1, 1, 75
3, 6610, Control_c, 1, 1, 76
3, 6612, Control_c, 1, 1, 77
3, 6620, Control_c, 1, 1, 78
3, 6624, Control_c, 1, 1, 79
3, 6626, Control_c, 1, 1, 81
3, 6628, Control_c, 1, 1, 82
3, 6629, Control_c, 1, 1, 83
3, 6632, Control_c, 1, 1, 86
3, 6633, Control_c, 1, 1, 87
3, 6635, Control_c, 1, 1, 88
3, 6637, Control_c, 1, 1, 90
3, 6641, Control_c, 1, 1, 91
3, 6649, Control_c, 1, 1, 89
3, 6651, Control_c, 1, 1, 87
3, 6653, Control_c, 1, 1, 85
3, 6655, Control_c, 1, 1, 82
3, 6657, Control_c, 1, 1, 79
3, 6659, Control_c, 1, 1, 77
3, 6661, Control_c, 1, 1, 74
3, 6663, Control_c, 1, 1, 71
3, 6665, Control_c, 1, 1, 68
3, 6666, Control_c, 1, 1, 66
3, 6668, Control_c, 1, 1, 63
3, 6670, Control_c, 1, 1, 61
3, 6672, Control_c, 1, 1, 59
3, 6674, Control_c, 1, 1, 57
3, 6676, Control_c, 1, 1, 55
3, 6678, Control_c, 1, 1, 53
3, 6680, Control_c, 1, 1, 51
3, 6682, Control_c, 1, 1, 50
3, 6684, Control_c, 1, 1, 49
3, 6686, Control_c, 1, 1, 47
3, 6690, Control_c, 1, 1, 45
3, 6692, Control_c, 1, 1, 43
3, 6694, Control_c, 1, 1, 42
3, 6696, Control_c, 1, 1, 41
3, 6698, Control_c, 1, 1, 39
3, 6699, Control_c, 1, 1, 38
3, 6702, Control_c, 1, 1, 37
3, 6704, Control_c, 1, 1, 36
3, 6705, Control_c, 1, 1, 35
3, 6707, Control_c, 1, 1, 33
3, 6709, Control_c, 1, 1, 31
3, 6711, Control_c, 1, 1, 28
3, 6713, Control_c, 1, 1, 25
3, 6715, Control_c, 1, 1, 23
3, 6717, Control_c, 1, 1, 19
3, 6719, Control_c, 1, 1, 16
3, 6721, Control_c, 1, 1, 14
3, 6723, Control_c, 1, 1, 11
3, 6725, Control_c, 1, 1, 9
3, 6727, Control_c, 1, 1, 6
3, 6729, Control_c, 1, 1, 3
3, 6731, Control_c, 1, 1, 0
3, 6754, Control_c, 1, 1, 2
3, 6756, Control_c, 1, 1, 4
3, 6778, Pitch_bend_c, 1, 8121
3, 6779, Pitch_bend_c, 1, 7909
3, 6780, Pitch_bend_c, 1, 7485
3, 6781, Pitch_bend_c, 1, 6991
3, 6782, Pitch_bend_c, 1, 6567
3, 6783, Pitch_bend_c, 1, 6143
3, 6784, Pitch_bend_c, 1, 5790
3, 6785, Pitch_bend_c, 1, 5579
3, 6786, Note_on_c, 1, 45, 0
3, 6786, Pitch_bend_c, 1, 5508
3, 6787, Note_on_c, 1, 44, 118
3, 6792, Pitch_bend_c, 1, 5579
3, 6792, Pitch_bend_c, 1, 5790
3, 6794, Pitch_bend_c, 1, 6002
3, 6795, Pitch_bend_c, 1, 6285
3, 6795, Pitch_bend_c, 1, 6567
3, 6796, Pitch_bend_c, 1, 6991
3, 6797, Pitch_bend_c, 1, 7415
3, 6798, Pitch_bend_c, 1, 7838
3, 6799, Pitch_bend_c, 1, 8050
3, 6800, Pitch_bend_c, 1, 8192
3, 6881, Note_on_c, 1, 44, 0
3, 6883, Note_on_c, 1, 42, 73
3, 7073, Note_on_c, 1, 42, 0
3, 7076, Note_on_c, 1, 30, 43
3, 7279, Note_on_c, 1, 30, 0
3, 7287, Note_on_c, 1, 35, 62
3, 7861, Note_on_c, 1, 35, 0
3, 7872, Note_on_c, 1, 28, 118
3, 8234, Note_on_c, 1, 28, 0
3, 8243, Note_on_c, 1, 40, 103
3, 8506, Pitch_bend_c, 1, 8121
3, 8507, Pitch_bend_c, 1, 7980
3, 8508, Pitch_bend_c, 1, 7697
3, 8509, Pitch_bend_c, 1, 7344
3, 8510, Pitch_bend_c, 1, 7062
3, 8511, Pitch_bend_c, 1, 6850
3, 8512, Pitch_bend_c, 1, 6638
3, 8513, Pitch_bend_c, 1, 6497
3, 8514, Pitch_bend_c, 1, 6426
3, 8515, Pitch_bend_c, 1, 6285
3, 8516, Note_on_c, 1, 40, 0
3, 8516, Pitch_bend_c, 1, 6214
3, 8517, Pitch_bend_c, 1, 6143
3, 8519, Note_on_c, 1, 39, 94
3, 8524, Pitch_bend_c, 1, 6285
3, 8525, Pitch_bend_c, 1, 6497
3, 8525, Pitch_bend_c, 1, 6708
3, 8527, Pitch_bend_c, 1, 7062
3, 8528, Pitch_bend_c, 1, 7415
3, 8528, Pitch_bend_c, 1, 7838
3, 8530, Pitch_bend_c, 1, 8121
3, 8531, Pitch_bend_c, 1, 8192
3, 8617, Note_on_c, 1, 39, 0
3, 8619, Note_on_c, 1, 37, 91
3, 8971, Note_on_c, 1, 37, 0
3, 8980, Note_on_c, 1, 25, 127
3, 9313, Note_on_c, 1, 25, 0
3, 9339, Note_on_c, 1, 33, 103
3, 9674, Note_on_c, 1, 33, 0
3, 9690, Note_on_c, 1, 33, 108
3, 9951, Note_on_c, 1, 33, 0
3, 9961, Note_on_c, 1, 32, 79
3, 10040, Note_on_c, 1, 32, 0
3, 10057, Note_on_c, 1, 30, 125
3, 10221, Control_c, 1, 1, 5
3, 10223, Control_c, 1, 1, 3
3, 10225, Control_c, 1, 1, 0
3, 10325, Note_on_c, 1, 30, 0
3, 10329, Note_on_c, 1, 42, 110
3, 10417, Note_on_c, 1, 42, 0
3, 10422, Note_on_c, 1, 35, 107
3, 10620, Note_on_c, 1, 35, 0
3, 10623, Note_on_c, 1, 47, 31
3, 10883, Note_on_c, 1, 47, 0
3, 14002, Note_on_c, 1, 40, 77
3, 14171, Note_on_c, 1, 40, 0
3, 14190, Note_on_c, 1, 28, 59
3, 14378, Note_on_c, 1, 28, 0
3, 14390, Note_on_c, 1, 28, 48
3, 14681, Note_on_c, 1, 28, 0
3, 14689, Note_on_c, 1, 27, 65
3, 14784, Note_on_c, 1, 27, 0
3, 14791, Note_on_c, 1, 25, 82
3, 15174, Note_on_c, 1, 25, 0
3, 15228, Note_on_c, 1, 33, 35
3, 15693, Note_on_c, 1, 33, 0
3, 15693, End_track
4, 0, Start_track
4, 0, MIDI_port, 0
4, 0, Title_t, "Synth.Strings 1"
4, 0, Control_c, 2, 64, 0
4, 0, Control_c, 2, 93, 127
4, 0, Control_c, 2, 91, 127
4, 0, Program_c, 2, 50
4, 0, Control_c, 2, 7, 110
4, 0, Control_c, 2, 64, 127
4, 1, Note_on_c, 2, 66, 31
4, 1, Note_on_c, 2, 64, 42
4, 1, Note_on_c, 2, 40, 44
4, 2, Note_on_c, 2, 68, 41
4, 2, Note_on_c, 2, 71, 44
4, 317, Note_on_c, 2, 40, 0
4, 342, Note_on_c, 2, 64, 0
4, 343, Note_on_c, 2, 66, 0
4, 343, Note_on_c, 2, 68, 0
4, 349, Note_on_c, 2, 71, 0
4, 388, Note_on_c, 2, 66, 29
4, 388, Note_on_c, 2, 68, 37
4, 389, Note_on_c, 2, 37, 48
4, 389, Note_on_c, 2, 64, 41
4, 390, Note_on_c, 2, 71, 44
4, 396, Control_c, 2, 64, 0
4, 715, Control_c, 2, 64, 127
4, 739, Note_on_c, 2, 37, 0
4, 742, Note_on_c, 2, 68, 0
4, 742, Note_on_c, 2, 64, 0
4, 743, Note_on_c, 2, 66, 0
4, 744, Note_on_c, 2, 71, 0
4, 787, Note_on_c, 2, 71, 43
4, 787, Note_on_c, 2, 45, 53
4, 787, Note_on_c, 2, 64, 42
4, 788, Note_on_c, 2, 61, 35
4, 795, Control_c, 2, 64, 0
4, 896, Control_c, 2, 64, 127
4, 980, Note_on_c, 2, 45, 0
4, 986, Note_on_c, 2, 47, 10
4, 987, Control_c, 2, 64, 0
4, 1065, Control_c, 2, 64, 127
4, 1100, Control_c, 2, 64, 0
4, 1145, Control_c, 2, 64, 127
4, 1162, Note_on_c, 2, 71, 0
4, 1164, Note_on_c, 2, 64, 0
4, 1169, Note_on_c, 2, 61, 0
4, 1183, Note_on_c, 2, 47, 0
4, 1404, Control_c, 2, 64, 0
4, 1404, Note_on_c, 2, 66, 23
4, 1404, Note_on_c, 2, 64, 30
4, 1404, Note_on_c, 2, 28, 50
4, 1404, Note_on_c, 2, 68, 20
4, 1404, Note_on_c, 2, 71, 38
4, 1432, Control_c, 2, 64, 127
4, 1489, Note_on_c, 2, 64, 0
4, 1497, Note_on_c, 2, 64, 20
4, 1508, Note_on_c, 2, 71, 0
4, 1525, Note_on_c, 2, 66, 0
4, 1525, Note_on_c, 2, 64, 0
4, 1526, Note_on_c, 2, 68, 0
4, 1538, Note_on_c, 2, 28, 0
4, 1595, Note_on_c, 2, 40, 29
4, 1595, Note_on_c, 2, 59, 53
4, 1597, Note_on_c, 2, 56, 35
4, 1645, Note_on_c, 2, 56, 0
4, 1653, Note_on_c, 2, 56, 20
4, 1658, Note_on_c, 2, 59, 0
4, 1660, Note_on_c, 2, 56, 0
4, 1664, Note_on_c, 2, 40, 0
4, 1703, Note_on_c, 2, 68, 38
4, 1703, Note_on_c, 2, 59, 19
4, 1753, Note_on_c, 2, 68, 0
4, 1757, Note_on_c, 2, 59, 0
4, 1801, Note_on_c, 2, 66, 37
4, 1802, Note_on_c, 2, 59, 38
4, 1803, Note_on_c, 2, 64, 50
4, 1803, Note_on_c, 2, 68, 42
4, 1804, Note_on_c, 2, 28, 42
4, 1817, Control_c, 2, 64, 0
4, 1838, Control_c, 2, 64, 127
4, 1872, Note_on_c, 2, 64, 0
4, 1874, Note_on_c, 2, 68, 0
4, 1875, Note_on_c, 2, 66, 0
4, 1877, Note_on_c, 2, 59, 0
4, 1884, Note_on_c, 2, 28, 0
4, 1901, Note_on_c, 2, 40, 42
4, 1912, Note_on_c, 2, 64, 1
4, 1928, Note_on_c, 2, 40, 0
4, 1931, Note_on_c, 2, 64, 0
4, 1938, Note_on_c, 2, 66, 14
4, 1958, Note_on_c, 2, 64, 22
4, 1963, Note_on_c, 2, 66, 0
4, 1971, Note_on_c, 2, 64, 0
4, 1976, Note_on_c, 2, 66, 7
4, 1980, Note_on_c, 2, 64, 22
4, 1982, Note_on_c, 2, 40, 43
4, 1985, Note_on_c, 2, 68, 10
4, 1993, Note_on_c, 2, 71, 16
4, 2036, Note_on_c, 2, 64, 0
4, 2041, Note_on_c, 2, 64, 34
4, 2056, Note_on_c, 2, 68, 0
4, 2060, Note_on_c, 2, 66, 0
4, 2063, Note_on_c, 2, 71, 0
4, 2063, Note_on_c, 2, 64, 0
4, 2084, Note_on_c, 2, 68, 22
4, 2086, Note_on_c, 2, 66, 6
4, 2087, Note_on_c, 2, 64, 22
4, 2100, Note_on_c, 2, 68, 0
4, 2100, Note_on_c, 2, 66, 0
4, 2102, Note_on_c, 2, 64, 0
4, 2108, Note_on_c, 2, 40, 0
4, 2179, Note_on_c, 2, 61, 42
4, 2181, Note_on_c, 2, 59, 56
4, 2181, Note_on_c, 2, 64, 73
4, 2181, Note_on_c, 2, 37, 42
4, 2182, Note_on_c, 2, 56, 53
4, 2184, Control_c, 2, 64, 0
4, 2299, Control_c, 2, 64, 127
4, 2305, Note_on_c, 2, 56, 0
4, 2320, Note_on_c, 2, 56, 23
4, 2323, Note_on_c, 2, 64, 0
4, 2326, Note_on_c, 2, 61, 0
4, 2327, Note_on_c, 2, 59, 0
4, 2330, Note_on_c, 2, 56, 0
4, 2367, Note_on_c, 2, 59, 50
4, 2367, Note_on_c, 2, 68, 43
4, 2464, Note_on_c, 2, 64, 67
4, 2508, Note_on_c, 2, 59, 0
4, 2508, Note_on_c, 2, 64, 0
4, 2512, Note_on_c, 2, 68, 0
4, 2515, Note_on_c, 2, 37, 0
4, 2946, Note_on_c, 2, 61, 37
4, 2946, Note_on_c, 2, 57, 44
4, 2947, Note_on_c, 2, 33, 56
4, 2947, Control_c, 2, 64, 0
4, 2947, Note_on_c, 2, 59, 82
4, 2947, Note_on_c, 2, 64, 82
4, 3077, Control_c, 2, 64, 127
4, 3079, Note_on_c, 2, 57, 0
4, 3089, Note_on_c, 2, 57, 42
4, 3099, Note_on_c, 2, 59, 0
4, 3101, Note_on_c, 2, 57, 0
4, 3102, Note_on_c, 2, 61, 0
4, 3105, Note_on_c, 2, 64, 0
4, 3110, Note_on_c, 2, 57, 56
4, 3116, Note_on_c, 2, 57, 0
4, 3134, Note_on_c, 2, 45, 73
4, 3141, Note_on_c, 2, 33, 0
4, 3176, Note_on_c, 2, 61, 17
4, 3186, Note_on_c, 2, 61, 0
4, 3192, Note_on_c, 2, 45, 0
4, 3197, Note_on_c, 2, 64, 56
4, 3213, Note_on_c, 2, 45, 44
4, 3221, Note_on_c, 2, 61, 35
4, 3228, Note_on_c, 2, 69, 36
4, 3264, Note_on_c, 2, 61, 0
4, 3275, Note_on_c, 2, 69, 0
4, 3276, Note_on_c, 2, 64, 0
4, 3276, Note_on_c, 2, 61, 29
4, 3282, Note_on_c, 2, 61, 0
4, 3283, Note_on_c, 2, 45, 0
4, 3513, Note_on_c, 2, 76, 44
4, 3514, Note_on_c, 2, 71, 36
4, 3514, Note_on_c, 2, 69, 31
4, 3545, Note_on_c, 2, 76, 0
4, 3545, Note_on_c, 2, 71, 0
4, 3546, Note_on_c, 2, 69, 0
4, 3706, Note_on_c, 2, 61, 44
4, 3707, Note_on_c, 2, 57, 53
4, 3707, Note_on_c, 2, 64, 59
4, 3708, Note_on_c, 2, 30, 56
4, 3712, Control_c, 2, 64, 0
4, 3853, Control_c, 2, 64, 127
4, 3879, Note_on_c, 2, 57, 0
4, 3891, Note_on_c, 2, 61, 0
4, 3892, Note_on_c, 2, 64, 0
4, 3899, Note_on_c, 2, 57, 17
4, 3925, Note_on_c, 2, 57, 0
4, 3944, Note_on_c, 2, 57, 43
4, 3950, Note_on_c, 2, 57, 0
4, 3958, Note_on_c, 2, 30, 0
4, 3999, Note_on_c, 2, 57, 29
4, 4008, Note_on_c, 2, 57, 0
4, 4093, Note_on_c, 2, 66, 42
4, 4093, Note_on_c, 2, 35, 36
4, 4093, Note_on_c, 2, 71, 67
4, 4093, Note_on_c, 2, 64, 62
4, 4101, Control_c, 2, 64, 0
4, 4260, Note_on_c, 2, 64, 0
4, 4293, Note_on_c, 2, 63, 20
4, 4492, Note_on_c, 2, 63, 0
4, 4494, Note_on_c, 2, 66, 0
4, 4494, Note_on_c, 2, 35, 0
4, 4494, Note_on_c, 2, 71, 0
4, 4577, Control_c, 2, 64, 0
4, 4577, Note_on_c, 2, 66, 38
4, 4577, Note_on_c, 2, 68, 38
4, 4577, Note_on_c, 2, 71, 82
4, 4577, Note_on_c, 2, 64, 59
4, 4578, Note_on_c, 2, 28, 71
4, 4677, Control_c, 2, 64, 127
4, 4721, Note_on_c, 2, 71, 0
4, 4722, Note_on_c, 2, 68, 0
4, 4722, Note_on_c, 2, 28, 0
4, 4724, Note_on_c, 2, 66, 0
4, 4731, Note_on_c, 2, 64, 0
4, 4798, Note_on_c, 2, 59, 8
4, 4836, Note_on_c, 2, 59, 0
4, 4855, Note_on_c, 2, 40, 44
4, 4868, Note_on_c, 2, 59, 37
4, 4896, Note_on_c, 2, 64, 1
4, 4914, Note_on_c, 2, 40, 0
4, 4915, Note_on_c, 2, 59, 0
4, 4920, Note_on_c, 2, 59, 14
4, 4934, Note_on_c, 2, 59, 0
4, 4937, Note_on_c, 2, 40, 42
4, 4949, Note_on_c, 2, 40, 0
4, 4961, Note_on_c, 2, 59, 34
4, 4961, Note_on_c, 2, 66, 35
4, 4963, Note_on_c, 2, 28, 53
4, 5022, Note_on_c, 2, 28, 0
4, 5026, Note_on_c, 2, 64, 0
4, 5032, Note_on_c, 2, 66, 0
4, 5033, Note_on_c, 2, 59, 0
4, 5104, Note_on_c, 2, 56, 37
4, 5111, Note_on_c, 2, 56, 0
4, 5151, Note_on_c, 2, 56, 28
4, 5151, Note_on_c, 2, 59, 41
4, 5153, Note_on_c, 2, 40, 42
4, 5155, Note_on_c, 2, 64, 44
4, 5192, Note_on_c, 2, 56, 0
4, 5204, Note_on_c, 2, 56, 22
4, 5221, Note_on_c, 2, 56, 0
4, 5226, Note_on_c, 2, 64, 0
4, 5230, Note_on_c, 2, 59, 0
4, 5247, Note_on_c, 2, 52, 14
4, 5250, Note_on_c, 2, 63, 38
4, 5251, Note_on_c, 2, 56, 38
4, 5251, Note_on_c, 2, 59, 36
4, 5274, Note_on_c, 2, 40, 0
4, 5294, Note_on_c, 2, 52, 0
4, 5299, Note_on_c, 2, 56, 0
4, 5306, Note_on_c, 2, 56, 26
4, 5307, Note_on_c, 2, 63, 0
4, 5318, Note_on_c, 2, 56, 0
4, 5327, Note_on_c, 2, 59, 0
4, 5345, Note_on_c, 2, 61, 34
4, 5347, Note_on_c, 2, 49, 56
4, 5347, Note_on_c, 2, 64, 77
4, 5348, Note_on_c, 2, 56, 43
4, 5349, Note_on_c, 2, 59, 37
4, 5354, Control_c, 2, 64, 0
4, 5433, Note_on_c, 2, 56, 0
4, 5436, Control_c, 2, 64, 127
4, 5444, Note_on_c, 2, 56, 36
4, 5446, Note_on_c, 2, 64, 0
4, 5452, Note_on_c, 2, 61, 0
4, 5452, Note_on_c, 2, 59, 0
4, 5453, Note_on_c, 2, 56, 0
4, 5467, Note_on_c, 2, 49, 0
4, 5530, Note_on_c, 2, 37, 38
4, 5531, Note_on_c, 2, 73, 53
4, 5531, Note_on_c, 2, 68, 30
4, 5534, Note_on_c, 2, 67, 31
4, 5541, Note_on_c, 2, 67, 0
4, 5605, Note_on_c, 2, 73, 0
4, 5609, Note_on_c, 2, 68, 0
4, 5623, Note_on_c, 2, 37, 0
4, 5715, Note_on_c, 2, 49, 62
4, 5730, Note_on_c, 2, 63, 43
4, 5731, Note_on_c, 2, 71, 56
4, 5734, Note_on_c, 2, 37, 62
4, 5762, Note_on_c, 2, 63, 0
4, 5766, Note_on_c, 2, 71, 0
4, 5776, Note_on_c, 2, 49, 0
4, 5791, Note_on_c, 2, 37, 0
4, 6019, Note_on_c, 2, 35, 50
4, 6073, Note_on_c, 2, 35, 0
4, 6116, Note_on_c, 2, 61, 31
4, 6116, Note_on_c, 2, 33, 50
4, 6117, Note_on_c, 2, 45, 44
4, 6117, Note_on_c, 2, 59, 48
4, 6117, Note_on_c, 2, 57, 50
4, 6118, Note_on_c, 2, 64, 73
4, 6118, Control_c, 2, 64, 0
4, 6215, Note_on_c, 2, 57, 0
4, 6221, Note_on_c, 2, 57, 19
4, 6239, Control_c, 2, 64, 127
4, 6248, Note_on_c, 2, 57, 0
4, 6262, Note_on_c, 2, 59, 0
4, 6262, Note_on_c, 2, 64, 0
4, 6264, Note_on_c, 2, 61, 0
4, 6265, Note_on_c, 2, 57, 42
4, 6274, Note_on_c, 2, 57, 0
4, 6276, Note_on_c, 2, 33, 0
4, 6276, Note_on_c, 2, 45, 0
4, 6312, Note_on_c, 2, 45, 65
4, 6398, Note_on_c, 2, 45, 0
4, 6428, Note_on_c, 2, 57, 48
4, 6449, Note_on_c, 2, 59, 35
4, 6450, Note_on_c, 2, 57, 0
4, 6471, Note_on_c, 2, 61, 62
4, 6473, Note_on_c, 2, 57, 42
4, 6495, Note_on_c, 2, 57, 0
4, 6506, Note_on_c, 2, 66, 31
4, 6506, Note_on_c, 2, 57, 23
4, 6507, Note_on_c, 2, 33, 43
4, 6573, Note_on_c, 2, 57, 0
4, 6589, Note_on_c, 2, 66, 0
4, 6590, Note_on_c, 2, 57, 38
4, 6595, Note_on_c, 2, 59, 0
4, 6595, Note_on_c, 2, 61, 0
4, 6615, Note_on_c, 2, 57, 0
4, 6636, Note_on_c, 2, 57, 38
4, 6657, Note_on_c, 2, 57, 0
4, 6661, Note_on_c, 2, 45, 53
4, 6681, Note_on_c, 2, 61, 35
4, 6682, Note_on_c, 2, 59, 42
4, 6683, Note_on_c, 2, 57, 44
4, 6749, Note_on_c, 2, 45, 0
4, 6751, Note_on_c, 2, 33, 0
4, 6758, Note_on_c, 2, 59, 0
4, 6759, Note_on_c, 2, 61, 0
4, 6759, Note_on_c, 2, 57, 0
4, 6785, Note_on_c, 2, 57, 43
4, 6806, Note_on_c, 2, 57, 0
4, 6881, Note_on_c, 2, 66, 65
4, 6882, Note_on_c, 2, 61, 91
4, 6882, Note_on_c, 2, 30, 56
4, 6882, Note_on_c, 2, 42, 59
4, 6883, Note_on_c, 2, 57, 43
4, 6887, Control_c, 2, 64, 0
4, 6978, Control_c, 2, 64, 127
4, 7002, Note_on_c, 2, 30, 0
4, 7006, Note_on_c, 2, 42, 0
4, 7006, Note_on_c, 2, 57, 0
4, 7009, Note_on_c, 2, 66, 0
4, 7021, Note_on_c, 2, 61, 0
4, 7025, Note_on_c, 2, 57, 44
4, 7032, Note_on_c, 2, 57, 0
4, 7067, Note_on_c, 2, 61, 38
4, 7069, Note_on_c, 2, 54, 53
4, 7070, Note_on_c, 2, 64, 53
4, 7070, Note_on_c, 2, 57, 38
4, 7133, Note_on_c, 2, 54, 0
4, 7155, Note_on_c, 2, 57, 0
4, 7166, Note_on_c, 2, 57, 42
4, 7181, Note_on_c, 2, 61, 0
4, 7193, Note_on_c, 2, 57, 0
4, 7195, Note_on_c, 2, 64, 0
4, 7213, Note_on_c, 2, 57, 48
4, 7221, Note_on_c, 2, 57, 0
4, 7274, Note_on_c, 2, 64, 37
4, 7276, Note_on_c, 2, 59, 43
4, 7276, Note_on_c, 2, 47, 43
4, 7276, Note_on_c, 2, 57, 44
4, 7283, Control_c, 2, 64, 0
4, 7506, Note_on_c, 2, 63, 17
4, 7509, Note_on_c, 2, 64, 0
4, 7510, Note_on_c, 2, 35, 37
4, 7565, Control_c, 2, 64, 127
4, 7577, Note_on_c, 2, 57, 0
4, 7578, Note_on_c, 2, 59, 0
4, 7583, Note_on_c, 2, 63, 0
4, 7628, Note_on_c, 2, 71, 36
4, 7629, Note_on_c, 2, 63, 17
4, 7636, Note_on_c, 2, 63, 0
4, 7649, Note_on_c, 2, 71, 0
4, 7692, Note_on_c, 2, 83, 41
4, 7721, Note_on_c, 2, 83, 0
4, 7730, Note_on_c, 2, 47, 0
4, 7744, Note_on_c, 2, 35, 0
4, 7873, Control_c, 2, 64, 0
4, 7873, Note_on_c, 2, 66, 43
4, 7873, Note_on_c, 2, 40, 53
4, 7873, Note_on_c, 2, 68, 44
4, 7873, Note_on_c, 2, 64, 82
4, 7874, Note_on_c, 2, 71, 94
4, 7874, Note_on_c, 2, 28, 59
4, 7906, Control_c, 2, 64, 127
4, 8019, Note_on_c, 2, 40, 0
4, 8032, Note_on_c, 2, 28, 0
4, 8040, Note_on_c, 2, 71, 0
4, 8041, Note_on_c, 2, 64, 0
4, 8055, Note_on_c, 2, 68, 0
4, 8057, Note_on_c, 2, 64, 38
4, 8063, Note_on_c, 2, 66, 0
4, 8079, Note_on_c, 2, 64, 0
4, 8158, Note_on_c, 2, 64, 77
4, 8158, Note_on_c, 2, 69, 95
4, 8169, Note_on_c, 2, 69, 0
4, 8173, Note_on_c, 2, 64, 0
4, 8246, Note_on_c, 2, 28, 53
4, 8246, Note_on_c, 2, 40, 73
4, 8246, Note_on_c, 2, 64, 77
4, 8246, Note_on_c, 2, 59, 91
4, 8247, Note_on_c, 2, 68, 59
4, 8253, Control_c, 2, 64, 0
4, 8344, Control_c, 2, 64, 127
4, 8381, Note_on_c, 2, 64, 0
4, 8383, Note_on_c, 2, 68, 0
4, 8393, Note_on_c, 2, 59, 0
4, 8398, Note_on_c, 2, 28, 0
4, 8398, Note_on_c, 2, 40, 0
4, 8439, Note_on_c, 2, 64, 67
4, 8439, Note_on_c, 2, 59, 48
4, 8440, Note_on_c, 2, 56, 62
4, 8441, Note_on_c, 2, 40, 59
4, 8514, Note_on_c, 2, 40, 0
4, 8529, Note_on_c, 2, 39, 79
4, 8531, Control_c, 2, 64, 0
4, 8602, Note_on_c, 2, 56, 0
4, 8613, Note_on_c, 2, 61, 2
4, 8616, Note_on_c, 2, 37, 91
4, 8616, Note_on_c, 2, 56, 59
4, 8618, Note_on_c, 2, 39, 0
4, 8654, Control_c, 2, 64, 127
4, 8664, Note_on_c, 2, 59, 0
4, 8664, Note_on_c, 2, 61, 0
4, 8664, Note_on_c, 2, 56, 0
4, 8666, Note_on_c, 2, 64, 0
4, 8712, Note_on_c, 2, 64, 65
4, 8712, Note_on_c, 2, 73, 94
4, 8761, Note_on_c, 2, 68, 41
4, 8767, Note_on_c, 2, 37, 0
4, 8767, Note_on_c, 2, 64, 0
4, 8768, Note_on_c, 2, 73, 0
4, 8772, Note_on_c, 2, 37, 20
4, 8777, Note_on_c, 2, 37, 0
4, 8803, Note_on_c, 2, 64, 50
4, 8823, Note_on_c, 2, 68, 0
4, 8838, Note_on_c, 2, 68, 42
4, 8842, Note_on_c, 2, 64, 0
4, 8849, Note_on_c, 2, 68, 0
4, 8879, Note_on_c, 2, 68, 82
4, 8880, Note_on_c, 2, 64, 65
4, 8900, Note_on_c, 2, 68, 0
4, 8901, Note_on_c, 2, 64, 0
4, 8972, Note_on_c, 2, 61, 29
4, 8973, Note_on_c, 2, 59, 65
4, 8973, Note_on_c, 2, 56, 50
4, 8974, Note_on_c, 2, 64, 59
4, 8975, Note_on_c, 2, 25, 65
4, 8986, Control_c, 2, 64, 0
4, 9015, Control_c, 2, 64, 127
4, 9035, Note_on_c, 2, 25, 0
4, 9045, Note_on_c, 2, 56, 0
4, 9053, Note_on_c, 2, 64, 0
4, 9058, Note_on_c, 2, 59, 0
4, 9061, Note_on_c, 2, 61, 0
4, 9063, Note_on_c, 2, 56, 59
4, 9071, Note_on_c, 2, 56, 0
4, 9109, Note_on_c, 2, 59, 42
4, 9126, Note_on_c, 2, 59, 0
4, 9134, Note_on_c, 2, 49, 79
4, 9148, Note_on_c, 2, 64, 50
4, 9149, Note_on_c, 2, 68, 62
4, 9150, Note_on_c, 2, 59, 73
4, 9193, Note_on_c, 2, 49, 0
4, 9245, Note_on_c, 2, 47, 44
4, 9246, Note_on_c, 2, 35, 42
4, 9246, Note_on_c, 2, 61, 67
4, 9255, Control_c, 2, 64, 0
4, 9274, Control_c, 2, 64, 127
4, 9293, Note_on_c, 2, 64, 0
4, 9294, Note_on_c, 2, 61, 0
4, 9295, Note_on_c, 2, 59, 0
4, 9296, Note_on_c, 2, 68, 0
4, 9296, Note_on_c, 2, 47, 0
4, 9299, Note_on_c, 2, 35, 0
4, 9336, Note_on_c, 2, 61, 88
4, 9336, Note_on_c, 2, 33, 53
4, 9336, Control_c, 2, 64, 0
4, 9337, Note_on_c, 2, 45, 77
4, 9337, Note_on_c, 2, 64, 100
4, 9338, Note_on_c, 2, 59, 100
4, 9338, Note_on_c, 2, 57, 77
4, 9341, Note_on_c, 2, 45, 0
4, 9434, Control_c, 2, 64, 127
4, 9465, Note_on_c, 2, 57, 0
4, 9470, Note_on_c, 2, 57, 17
4, 9476, Note_on_c, 2, 61, 0
4, 9476, Note_on_c, 2, 59, 0
4, 9477, Note_on_c, 2, 64, 0
4, 9479, Note_on_c, 2, 57, 0
4, 9484, Note_on_c, 2, 33, 0
4, 9515, Note_on_c, 2, 45, 79
4, 9518, Note_on_c, 2, 69, 65
4, 9518, Note_on_c, 2, 61, 38
4, 9651, Note_on_c, 2, 45, 0
4, 9657, Note_on_c, 2, 61, 0
4, 9696, Note_on_c, 2, 33, 42
4, 9697, Note_on_c, 2, 64, 59
4, 9697, Note_on_c, 2, 61, 62
4, 9743, Note_on_c, 2, 69, 0
4, 9743, Note_on_c, 2, 64, 0
4, 9745, Note_on_c, 2, 61, 0
4, 9758, Note_on_c, 2, 33, 0
4, 9782, Note_on_c, 2, 61, 37
4, 9782, Note_on_c, 2, 59, 38
4, 9784, Note_on_c, 2, 64, 44
4, 9784, Note_on_c, 2, 57, 29
4, 9796, Note_on_c, 2, 33, 1
4, 9830, Note_on_c, 2, 33, 0
4, 9833, Note_on_c, 2, 59, 0
4, 9835, Note_on_c, 2, 61, 0
4, 9836, Note_on_c, 2, 64, 0
4, 9836, Note_on_c, 2, 57, 0
4, 9962, Note_on_c, 2, 73, 79
4, 9962, Note_on_c, 2, 32, 59
4, 9963, Note_on_c, 2, 64, 48
4, 9967, Control_c, 2, 64, 0
4, 9988, Control_c, 2, 64, 127
4, 9999, Note_on_c, 2, 73, 0
4, 10002, Note_on_c, 2, 64, 0
4, 10005, Note_on_c, 2, 32, 0
4, 10061, Note_on_c, 2, 61, 73
4, 10061, Note_on_c, 2, 30, 50
4, 10061, Note_on_c, 2, 57, 85
4, 10062, Note_on_c, 2, 42, 79
4, 10062, Note_on_c, 2, 68, 73
4, 10064, Control_c, 2, 64, 0
4, 10167, Control_c, 2, 64, 127
4, 10185, Note_on_c, 2, 57, 0
4, 10193, Note_on_c, 2, 57, 53
4, 10196, Note_on_c, 2, 68, 0
4, 10198, Note_on_c, 2, 61, 0
4, 10203, Note_on_c, 2, 42, 0
4, 10207, Note_on_c, 2, 57, 0
4, 10215, Note_on_c, 2, 30, 0
4, 10231, Note_on_c, 2, 42, 41
4, 10234, Note_on_c, 2, 61, 48
4, 10235, Note_on_c, 2, 66, 59
4, 10236, Note_on_c, 2, 57, 59
4, 10243, Control_c, 2, 64, 0
4, 10248, Note_on_c, 2, 30, 1
4, 10260, Control_c, 2, 64, 127
4, 10327, Note_on_c, 2, 64, 42
4, 10331, Note_on_c, 2, 66, 0
4, 10342, Note_on_c, 2, 30, 0
4, 10347, Note_on_c, 2, 42, 0
4, 10373, Note_on_c, 2, 64, 0
4, 10376, Note_on_c, 2, 57, 0
4, 10377, Note_on_c, 2, 61, 0
4, 10418, Note_on_c, 2, 61, 43
4, 10419, Note_on_c, 2, 47, 29
4, 10419, Note_on_c, 2, 64, 50
4, 10419, Note_on_c, 2, 57, 44
4, 10419, Note_on_c, 2, 59, 43
4, 10420, Note_on_c, 2, 35, 26
4, 10424, Control_c, 2, 64, 0
4, 10537, Control_c, 2, 64, 127
4, 10609, Note_on_c, 2, 64, 0
4, 10610, Note_on_c, 2, 61, 0
4, 10610, Note_on_c, 2, 63, 35
4, 10614, Control_c, 2, 64, 0
4, 10844, Note_on_c, 2, 47, 0
4, 10868, Note_on_c, 2, 35, 0
4, 10900, Note_on_c, 2, 57, 0
4, 10900, Note_on_c, 2, 59, 0
4, 10901, Note_on_c, 2, 63, 0
4, 11028, Control_c, 2, 64, 0
4, 11028, Note_on_c, 2, 56, 65
4, 11028, Note_on_c, 2, 64, 94
4, 11028, Note_on_c, 2, 59, 88
4, 11028, Note_on_c, 2, 28, 79
4, 11317, Control_c, 2, 64, 127
4, 11341, Note_on_c, 2, 56, 0
4, 11341, Note_on_c, 2, 59, 0
4, 11342, Note_on_c, 2, 64, 0
4, 11348, Note_on_c, 2, 28, 0
4, 11387, Note_on_c, 2, 59, 56
4, 11387, Note_on_c, 2, 66, 44
4, 11387, Note_on_c, 2, 40, 59
4, 11388, Note_on_c, 2, 68, 48
4, 11388, Note_on_c, 2, 64, 73
4, 11398, Control_c, 2, 64, 0
4, 11584, Note_on_c, 2, 28, 65
4, 11616, Control_c, 2, 64, 127
4, 11639, Note_on_c, 2, 28, 0
4, 11654, Note_on_c, 2, 40, 0
4, 11674, Control_c, 2, 64, 0
4, 11677, Note_on_c, 2, 39, 56
4, 11710, Control_c, 2, 64, 127
4, 11723, Note_on_c, 2, 64, 0
4, 11724, Note_on_c, 2, 66, 0
4, 11726, Note_on_c, 2, 68, 0
4, 11728, Note_on_c, 2, 39, 0
4, 11729, Note_on_c, 2, 59, 0
4, 11765, Note_on_c, 2, 61, 30
4, 11766, Note_on_c, 2, 37, 82
4, 11767, Note_on_c, 2, 64, 94
4, 11768, Note_on_c, 2, 56, 62
4, 11768, Note_on_c, 2, 59, 88
4, 11768, Control_c, 2, 64, 0
4, 11953, Control_c, 2, 64, 127
4, 11968, Note_on_c, 2, 56, 0
4, 11970, Note_on_c, 2, 64, 0
4, 11970, Note_on_c, 2, 59, 0
4, 11971, Note_on_c, 2, 61, 0
4, 12037, Note_on_c, 2, 66, 38
4, 12038, Note_on_c, 2, 73, 88
4, 12078, Note_on_c, 2, 37, 0
4, 12088, Note_on_c, 2, 73, 0
4, 12090, Note_on_c, 2, 66, 0
4, 12132, Note_on_c, 2, 37, 82
4, 12187, Note_on_c, 2, 37, 0
4, 12220, Note_on_c, 2, 56, 29
4, 12259, Note_on_c, 2, 59, 22
4, 12264, Note_on_c, 2, 56, 0
4, 12301, Note_on_c, 2, 56, 1
4, 12307, Note_on_c, 2, 61, 59
4, 12339, Note_on_c, 2, 56, 0
4, 12356, Note_on_c, 2, 56, 2
4, 12399, Note_on_c, 2, 35, 56
4, 12400, Control_c, 2, 64, 0
4, 12429, Control_c, 2, 64, 127
4, 12452, Note_on_c, 2, 56, 0
4, 12455, Note_on_c, 2, 35, 0
4, 12456, Note_on_c, 2, 59, 0
4, 12457, Note_on_c, 2, 61, 0
4, 12484, Note_on_c, 2, 33, 88
4, 12484, Note_on_c, 2, 61, 67
4, 12484, Note_on_c, 2, 59, 82
4, 12485, Note_on_c, 2, 57, 59
4, 12485, Note_on_c, 2, 64, 71
4, 12486, Control_c, 2, 64, 0
4, 12572, Note_on_c, 2, 57, 0
4, 12576, Note_on_c, 2, 57, 26
4, 12599, Control_c, 2, 64, 127
4, 12609, Note_on_c, 2, 57, 0
4, 12614, Note_on_c, 2, 57, 44
4, 12620, Note_on_c, 2, 61, 0
4, 12620, Note_on_c, 2, 59, 0
4, 12620, Note_on_c, 2, 64, 0
4, 12624, Note_on_c, 2, 57, 0
4, 12667, Note_on_c, 2, 71, 98
4, 12684, Note_on_c, 2, 71, 0
4, 12749, Note_on_c, 2, 69, 59
4, 12750, Note_on_c, 2, 61, 62
4, 12750, Note_on_c, 2, 64, 73
4, 12750, Note_on_c, 2, 45, 53
4, 12756, Control_c, 2, 64, 0
4, 12781, Control_c, 2, 64, 127
4, 12812, Note_on_c, 2, 45, 0
4, 12816, Note_on_c, 2, 33, 0
4, 12952, Note_on_c, 2, 61, 0
4, 12970, Note_on_c, 2, 61, 19
4, 12999, Note_on_c, 2, 61, 0
4, 13007, Note_on_c, 2, 69, 0
4, 13024, Note_on_c, 2, 61, 1
4, 13038, Note_on_c, 2, 61, 0
4, 13042, Note_on_c, 2, 64, 0
4, 13059, Note_on_c, 2, 61, 73
4, 13059, Note_on_c, 2, 64, 22
4, 13070, Note_on_c, 2, 61, 0
4, 13090, Note_on_c, 2, 64, 0
4, 13098, Note_on_c, 2, 64, 77
4, 13099, Note_on_c, 2, 61, 82
4, 13099, Note_on_c, 2, 32, 41
4, 13100, Note_on_c, 2, 68, 65
4, 13106, Control_c, 2, 64, 0
4, 13130, Control_c, 2, 64, 127
4, 13144, Note_on_c, 2, 64, 0
4, 13144, Note_on_c, 2, 68, 0
4, 13147, Note_on_c, 2, 61, 0
4, 13149, Note_on_c, 2, 32, 0
4, 13189, Note_on_c, 2, 61, 100
4, 13190, Note_on_c, 2, 30, 41
4, 13190, Note_on_c, 2, 57, 95
4, 13190, Note_on_c, 2, 68, 91
4, 13192, Control_c, 2, 64, 0
4, 13192, Note_on_c, 2, 42, 100
4, 13293, Control_c, 2, 64, 127
4, 13313, Note_on_c, 2, 57, 0
4, 13315, Note_on_c, 2, 68, 0
4, 13329, Note_on_c, 2, 57, 22
4, 13334, Note_on_c, 2, 42, 0
4, 13347, Note_on_c, 2, 57, 0
4, 13366, Note_on_c, 2, 42, 56
4, 13367, Note_on_c, 2, 66, 65
4, 13368, Note_on_c, 2, 57, 67
4, 13375, Control_c, 2, 64, 0
4, 13468, Control_c, 2, 64, 127
4, 13488, Note_on_c, 2, 30, 0
4, 13488, Note_on_c, 2, 42, 0
4, 13491, Note_on_c, 2, 57, 0
4, 13500, Note_on_c, 2, 57, 36
4, 13509, Note_on_c, 2, 61, 0
4, 13511, Note_on_c, 2, 57, 0
4, 13512, Note_on_c, 2, 66, 0
4, 13544, Note_on_c, 2, 35, 44
4, 13544, Note_on_c, 2, 64, 56
4, 13545, Note_on_c, 2, 57, 53
4, 13545, Note_on_c, 2, 59, 50
4, 13548, Control_c, 2, 64, 0
4, 13732, Note_on_c, 2, 63, 34
4, 13733, Note_on_c, 2, 47, 14
4, 13737, Note_on_c, 2, 64, 0
4, 13963, Note_on_c, 2, 47, 0
4, 13995, Note_on_c, 2, 35, 0
4, 13995, Note_on_c, 2, 57, 0
4, 13995, Note_on_c, 2, 59, 0
4, 13995, Note_on_c, 2, 63, 0
4, 13998, Control_c, 2, 64, 0
4, 13998, Note_on_c, 2, 59, 38
4, 13999, Note_on_c, 2, 64, 42
4, 14000, Note_on_c, 2, 56, 20
4, 14112, Control_c, 2, 64, 127
4, 14130, Note_on_c, 2, 59, 0
4, 14130, Note_on_c, 2, 56, 0
4, 14131, Note_on_c, 2, 64, 0
4, 14284, Note_on_c, 2, 66, 1
4, 14286, Note_on_c, 2, 71, 1
4, 14289, Note_on_c, 2, 64, 1
4, 14325, Note_on_c, 2, 64, 0
4, 14327, Note_on_c, 2, 71, 0
4, 14328, Note_on_c, 2, 66, 0
4, 14788, Control_c, 2, 64, 0
4, 14796, Note_on_c, 2, 61, 37
4, 14797, Note_on_c, 2, 56, 36
4, 14797, Note_on_c, 2, 64, 42
4, 14978, Note_on_c, 2, 59, 1
4, 15038, Control_c, 2, 64, 127
4, 15083, Note_on_c, 2, 64, 0
4, 15084, Note_on_c, 2, 59, 0
4, 15087, Note_on_c, 2, 61, 0
4, 15088, Note_on_c, 2, 56, 0
4, 15238, Control_c, 2, 64, 0
4, 15243, Note_on_c, 2, 59, 8
4, 15243, Note_on_c, 2, 61, 13
4, 15245, Note_on_c, 2, 57, 14
4, 15245, Note_on_c, 2, 64, 17
4, 15941, Note_on_c, 2, 57, 0
4, 15954, Note_on_c, 2, 64, 0
4, 15956, Note_on_c, 2, 59, 0
4, 15959, Note_on_c, 2, 61, 0
4, 15959, End_track
5, 0, Start_track
5, 0, MIDI_port, 0
5, 0, Title_t, "Strings"
5, 7872, Control_c, 3, 64, 0
5, 7872, Control_c, 3, 93, 127
5, 7872, Control_c, 3, 91, 127
5, 7872, Program_c, 3, 48
5, 7872, Control_c, 3, 7, 110
5, 7872, Note_on_c, 3, 71, 79
5, 8065, Note_on_c, 3, 78, 88
5, 8068, Note_on_c, 3, 71, 0
5, 8184, Control_c, 3, 1, 3
5, 8186, Control_c, 3, 1, 7
5, 8188, Control_c, 3, 1, 11
5, 8190, Control_c, 3, 1, 13
5, 8194, Control_c, 3, 1, 14
5, 8210, Control_c, 3, 1, 9
5, 8212, Control_c, 3, 1, 2
5, 8214, Control_c, 3, 1, 0
5, 8252, Note_on_c, 3, 80, 88
5, 8254, Note_on_c, 3, 78, 0
5, 8282, Control_c, 3, 1, 1
5, 8284, Control_c, 3, 1, 3
5, 8285, Control_c, 3, 1, 4
5, 8288, Control_c, 3, 1, 6
5, 8289, Control_c, 3, 1, 7
5, 8293, Control_c, 3, 1, 9
5, 8295, Control_c, 3, 1, 10
5, 8297, Control_c, 3, 1, 12
5, 8299, Control_c, 3, 1, 15
5, 8301, Control_c, 3, 1, 18
5, 8303, Control_c, 3, 1, 22
5, 8305, Control_c, 3, 1, 25
5, 8307, Control_c, 3, 1, 28
5, 8309, Control_c, 3, 1, 31
5, 8311, Control_c, 3, 1, 33
5, 8313, Control_c, 3, 1, 35
5, 8315, Control_c, 3, 1, 38
5, 8317, Control_c, 3, 1, 40
5, 8319, Control_c, 3, 1, 42
5, 8321, Control_c, 3, 1, 43
5, 8323, Control_c, 3, 1, 44
5, 8327, Control_c, 3, 1, 46
5, 8334, Control_c, 3, 1, 47
5, 8338, Control_c, 3, 1, 48
5, 8344, Control_c, 3, 1, 49
5, 8348, Control_c, 3, 1, 50
5, 8352, Control_c, 3, 1, 51
5, 8389, Control_c, 3, 1, 50
5, 8391, Control_c, 3, 1, 49
5, 8394, Control_c, 3, 1, 47
5, 8398, Control_c, 3, 1, 46
5, 8402, Control_c, 3, 1, 44
5, 8406, Control_c, 3, 1, 43
5, 8410, Control_c, 3, 1, 42
5, 8412, Control_c, 3, 1, 41
5, 8414, Control_c, 3, 1, 40
5, 8416, Control_c, 3, 1, 38
5, 8420, Control_c, 3, 1, 37
5, 8422, Control_c, 3, 1, 35
5, 8424, Control_c, 3, 1, 33
5, 8425, Control_c, 3, 1, 31
5, 8428, Control_c, 3, 1, 29
5, 8430, Control_c, 3, 1, 28
5, 8431, Control_c, 3, 1, 26
5, 8433, Control_c, 3, 1, 23
5, 8435, Control_c, 3, 1, 20
5, 8437, Control_c, 3, 1, 17
5, 8439, Control_c, 3, 1, 13
5, 8441, Control_c, 3, 1, 8
5, 8443, Note_on_c, 3, 80, 0
5, 8443, Control_c, 3, 1, 0
5, 8443, Note_on_c, 3, 78, 62
5, 8524, Note_on_c, 3, 78, 0
5, 8525, Note_on_c, 3, 76, 67
5, 8617, Note_on_c, 3, 76, 0
5, 8619, Note_on_c, 3, 75, 56
5, 8803, Note_on_c, 3, 75, 0
5, 8804, Note_on_c, 3, 73, 50
5, 9070, Note_on_c, 3, 73, 0
5, 9070, Note_on_c, 3, 80, 62
5, 9165, Note_on_c, 3, 76, 82
5, 9166, Note_on_c, 3, 80, 0
5, 9260, Note_on_c, 3, 71, 50
5, 9262, Note_on_c, 3, 76, 0
5, 9347, Note_on_c, 3, 73, 94
5, 9349, Note_on_c, 3, 71, 0
5, 9553, Note_on_c, 3, 69, 73
5, 9554, Note_on_c, 3, 73, 0
5, 9598, Note_on_c, 3, 69, 0
5, 9598, Note_on_c, 3, 71, 94
5, 9641, Note_on_c, 3, 71, 0
5, 9641, Note_on_c, 3, 73, 88
5, 9689, Note_on_c, 3, 73, 0
5, 9691, Note_on_c, 3, 76, 56
5, 9962, Note_on_c, 3, 76, 0
5, 9962, Note_on_c, 3, 81, 91
5, 10006, Note_on_c, 3, 81, 0
5, 10006, Note_on_c, 3, 80, 36
5, 10059, Note_on_c, 3, 81, 42
5, 10062, Note_on_c, 3, 80, 0
5, 10227, Control_c, 3, 1, 2
5, 10281, Control_c, 3, 1, 0
5, 10329, Note_on_c, 3, 81, 0
5, 10329, Note_on_c, 3, 80, 56
5, 10376, Note_on_c, 3, 80, 0
5, 10378, Note_on_c, 3, 76, 50
5, 10621, Note_on_c, 3, 75, 22
5, 10626, Note_on_c, 3, 76, 0
5, 10949, Note_on_c, 3, 75, 0
5, 11028, Control_c, 3, 64, 0
5, 11028, Note_on_c, 3, 83, 59
5, 11671, Note_on_c, 3, 85, 59
5, 11676, Note_on_c, 3, 83, 0
5, 11719, Note_on_c, 3, 87, 42
5, 11720, Note_on_c, 3, 85, 0
5, 11857, Note_on_c, 3, 85, 73
5, 11859, Note_on_c, 3, 87, 0
5, 11949, Note_on_c, 3, 85, 0
5, 11951, Note_on_c, 3, 80, 44
5, 12219, Note_on_c, 3, 80, 0
5, 12220, Note_on_c, 3, 83, 77
5, 12312, Note_on_c, 3, 80, 65
5, 12313, Note_on_c, 3, 83, 0
5, 12396, Note_on_c, 3, 80, 0
5, 12396, Note_on_c, 3, 78, 62
5, 12484, Note_on_c, 3, 78, 0
5, 12486, Note_on_c, 3, 76, 67
5, 12667, Note_on_c, 3, 76, 0
5, 12667, Note_on_c, 3, 83, 82
5, 13061, Note_on_c, 3, 81, 71
5, 13066, Note_on_c, 3, 83, 0
5, 13104, Note_on_c, 3, 81, 0
5, 13104, Note_on_c, 3, 80, 50
5, 13148, Note_on_c, 3, 80, 0
5, 13149, Note_on_c, 3, 76, 73
5, 13197, Note_on_c, 3, 76, 0
5, 13197, Note_on_c, 3, 78, 44
5, 13375, Note_on_c, 3, 73, 59
5, 13377, Note_on_c, 3, 78, 0
5, 13550, Note_on_c, 3, 76, 50
5, 13559, Note_on_c, 3, 73, 0
5, 13748, Note_on_c, 3, 75, 1
5, 13755, Note_on_c, 3, 76, 0
5, 13995, Note_on_c, 3, 75, 0
5, 13995, End_track
6, 0, Start_track
6, 0, MIDI_port, 0
6, 0, Title_t, "French Horn"
6, 11028, Control_c, 4, 64, 0
6, 11028, Program_c, 4, 60
6, 11028, Control_c, 4, 7, 110
6, 11028, Control_c, 4, 93, 127
6, 11028, Control_c, 4, 91, 127
6, 11028, Note_on_c, 4, 64, 82
6, 11217, Note_on_c, 4, 64, 0
6, 11217, Note_on_c, 4, 71, 88
6, 11583, Note_on_c, 4, 69, 103
6, 11585, Note_on_c, 4, 71, 0
6, 11673, Note_on_c, 4, 69, 0
6, 11673, Note_on_c, 4, 68, 65
6, 11771, Note_on_c, 4, 75, 67
6, 11772, Note_on_c, 4, 68, 0
6, 11946, Note_on_c, 4, 73, 67
6, 11949, Note_on_c, 4, 75, 0
6, 12130, Note_on_c, 4, 73, 0
6, 12131, Note_on_c, 4, 68, 82
6, 12315, Note_on_c, 4, 66, 44
6, 12316, Note_on_c, 4, 68, 0
6, 12399, Note_on_c, 4, 66, 0
6, 12401, Note_on_c, 4, 64, 56
6, 12491, Note_on_c, 4, 64, 0
6, 12491, Note_on_c, 4, 69, 91
6, 12666, Note_on_c, 4, 71, 100
6, 12667, Note_on_c, 4, 69, 0
6, 12846, Note_on_c, 4, 71, 0
6, 12846, Note_on_c, 4, 76, 98
6, 13239, Note_on_c, 4, 76, 0
6, 13240, Note_on_c, 4, 66, 100
6, 13285, Note_on_c, 4, 66, 0
6, 13285, Note_on_c, 4, 68, 102
6, 13324, Note_on_c, 4, 68, 0
6, 13327, Note_on_c, 4, 69, 103
6, 13374, Note_on_c, 4, 69, 0
6, 13375, Note_on_c, 4, 73, 107
6, 13555, Note_on_c, 4, 71, 26
6, 13559, Note_on_c, 4, 73, 0
6, 13756, Note_on_c, 4, 83, 1
6, 13806, Note_on_c, 4, 71, 0
6, 13966, Note_on_c, 4, 83, 0
6, 13966, End_track
7, 0, Start_track
7, 0, MIDI_port, 0
7, 0, Title_t, "Harp"
7, 11028, Control_c, 5, 93, 127
7, 11028, Control_c, 5, 91, 127
7, 11028, Program_c, 5, 46
7, 11028, Control_c, 5, 7, 110
7, 11028, Note_on_c, 5, 78, 37
7, 11050, Control_c, 5, 64, 127
7, 11054, Note_on_c, 5, 68, 42
7, 11075, Note_on_c, 5, 78, 0
7, 11078, Note_on_c, 5, 71, 62
7, 11080, Note_on_c, 5, 68, 0
7, 11101, Note_on_c, 5, 71, 0
7, 11103, Note_on_c, 5, 76, 73
7, 11114, Note_on_c, 5, 76, 0
7, 11151, Note_on_c, 5, 83, 100
7, 11168, Note_on_c, 5, 83, 0
7, 11200, Note_on_c, 5, 78, 65
7, 11209, Note_on_c, 5, 78, 0
7, 11295, Note_on_c, 5, 76, 56
7, 11341, Note_on_c, 5, 76, 0
7, 11401, Control_c, 5, 64, 0
7, 11406, Note_on_c, 5, 78, 91
7, 11430, Note_on_c, 5, 68, 42
7, 11435, Control_c, 5, 64, 127
7, 11445, Note_on_c, 5, 78, 0
7, 11452, Note_on_c, 5, 71, 71
7, 11456, Note_on_c, 5, 68, 0
7, 11475, Note_on_c, 5, 71, 0
7, 11477, Note_on_c, 5, 76, 88
7, 11485, Note_on_c, 5, 76, 0
7, 11523, Note_on_c, 5, 83, 102
7, 11535, Note_on_c, 5, 83, 0
7, 11571, Note_on_c, 5, 78, 48
7, 11580, Note_on_c, 5, 78, 0
7, 11727, Control_c, 5, 64, 0
7, 11768, Note_on_c, 5, 78, 107
7, 11786, Control_c, 5, 64, 127
7, 11790, Note_on_c, 5, 68, 79
7, 11797, Note_on_c, 5, 78, 0
7, 11809, Note_on_c, 5, 68, 0
7, 11812, Note_on_c, 5, 71, 71
7, 11834, Note_on_c, 5, 71, 0
7, 11837, Note_on_c, 5, 76, 100
7, 11845, Note_on_c, 5, 76, 0
7, 11885, Note_on_c, 5, 83, 94
7, 11896, Note_on_c, 5, 83, 0
7, 11929, Note_on_c, 5, 78, 44
7, 11939, Note_on_c, 5, 78, 0
7, 12089, Note_on_c, 5, 68, 1
7, 12099, Note_on_c, 5, 68, 0
7, 12101, Control_c, 5, 64, 0
7, 12106, Note_on_c, 5, 71, 44
7, 12153, Control_c, 5, 64, 127
7, 12173, Note_on_c, 5, 71, 0
7, 12176, Note_on_c, 5, 68, 42
7, 12191, Note_on_c, 5, 68, 0
7, 12200, Note_on_c, 5, 76, 100
7, 12215, Note_on_c, 5, 76, 0
7, 12221, Note_on_c, 5, 68, 43
7, 12229, Note_on_c, 5, 68, 0
7, 12247, Note_on_c, 5, 83, 56
7, 12265, Note_on_c, 5, 83, 0
7, 12292, Note_on_c, 5, 78, 35
7, 12302, Note_on_c, 5, 78, 0
7, 12466, Control_c, 5, 64, 0
7, 12488, Note_on_c, 5, 76, 91
7, 12519, Control_c, 5, 64, 127
7, 12548, Note_on_c, 5, 76, 0
7, 12558, Note_on_c, 5, 69, 48
7, 12592, Note_on_c, 5, 69, 0
7, 12602, Note_on_c, 5, 71, 88
7, 12627, Note_on_c, 5, 71, 0
7, 12863, Control_c, 5, 64, 0
7, 12866, Note_on_c, 5, 88, 85
7, 12887, Note_on_c, 5, 83, 65
7, 12911, Note_on_c, 5, 81, 59
7, 12948, Note_on_c, 5, 83, 0
7, 12949, Control_c, 5, 64, 127
7, 12953, Note_on_c, 5, 88, 0
7, 12959, Note_on_c, 5, 81, 0
7, 13016, Note_on_c, 5, 76, 95
7, 13039, Note_on_c, 5, 76, 0
7, 13039, Note_on_c, 5, 71, 56
7, 13063, Note_on_c, 5, 71, 0
7, 13063, Note_on_c, 5, 69, 59
7, 13074, Note_on_c, 5, 69, 0
7, 13175, Control_c, 5, 64, 0
7, 13213, Note_on_c, 5, 66, 48
7, 13233, Control_c, 5, 64, 127
7, 13239, Note_on_c, 5, 69, 44
7, 13267, Note_on_c, 5, 66, 0
7, 13271, Note_on_c, 5, 69, 0
7, 13328, Note_on_c, 5, 68, 82
7, 13338, Control_c, 5, 64, 0
7, 13347, Note_on_c, 5, 68, 0
7, 13350, Note_on_c, 5, 69, 62
7, 13359, Control_c, 5, 64, 127
7, 13389, Note_on_c, 5, 69, 0
7, 13444, Note_on_c, 5, 78, 73
7, 13463, Note_on_c, 5, 78, 0
7, 13514, Note_on_c, 5, 69, 13
7, 13519, Note_on_c, 5, 69, 0
7, 13529, Note_on_c, 5, 76, 67
7, 13542, Control_c, 5, 64, 0
7, 13591, Control_c, 5, 64, 127
7, 13608, Note_on_c, 5, 76, 0
7, 13627, Note_on_c, 5, 75, 38
7, 13651, Note_on_c, 5, 75, 0
7, 13736, Note_on_c, 5, 95, 50
7, 13765, Note_on_c, 5, 95, 0
7, 13859, Control_c, 5, 64, 0
7, 13859, End_track
8, 0, Start_track
8, 0, MIDI_port, 0
8, 0, Title_t, "VOLE (Cline Dion)"
8, 0, End_track
0, 0, End_of_file
