0, 0, Header, 1, 16, 480
1, 0, Start_track
1, 0, Title_t, "followthatdream"
1, 0, SMPTE_offset, 0, 0, 0, 0, 0
1, 0, Tempo, 375000
1, 0, Time_signature, 4, 2, 24, 8
1, 0, Key_signature, -3, "major"
1, 0, End_track
2, 0, Start_track
2, 0, Title_t, "Trombone"
2, 0, MIDI_port, 0
2, 0, Channel_prefix, 0
2, 0, Control_c, 0, 7, 127
2, 0, Control_c, 0, 10, 88
2, 0, Program_c, 0, 57
2, 0, Control_c, 0, 121, 0
2, 40, Control_c, 0, 123, 0
2, 80, Control_c, 0, 93, 65
2, 120, Control_c, 0, 91, 65
2, 160, Control_c, 0, 64, 0
2, 2400, Note_on_c, 0, 70, 114
2, 2592, Note_off_c, 0, 70, 64
2, 2640, Note_on_c, 0, 70, 122
2, 2832, Note_off_c, 0, 70, 64
2, 2880, Note_on_c, 0, 70, 108
2, 3264, Note_off_c, 0, 70, 64
2, 3360, Note_on_c, 0, 72, 108
2, 3744, Note_off_c, 0, 72, 64
2, 3840, Note_on_c, 0, 67, 118
2, 4224, Note_off_c, 0, 67, 64
2, 4320, Note_on_c, 0, 65, 115
2, 4512, Note_off_c, 0, 65, 64
2, 4560, Note_on_c, 0, 63, 102
2, 5740, Note_off_c, 0, 63, 64
2, 6240, Note_on_c, 0, 63, 102
2, 6432, Note_off_c, 0, 63, 64
2, 6480, Note_on_c, 0, 63, 120
2, 6672, Note_off_c, 0, 63, 64
2, 6720, Note_on_c, 0, 60, 117
2, 7104, Note_off_c, 0, 60, 64
2, 7200, Note_on_c, 0, 63, 114
2, 7584, Note_off_c, 0, 63, 64
2, 7680, Note_on_c, 0, 63, 117
2, 8448, Note_off_c, 0, 63, 64
2, 8640, Note_on_c, 0, 72, 114
2, 9024, Note_off_c, 0, 72, 64
2, 9120, Note_on_c, 0, 72, 105
2, 9504, Note_off_c, 0, 72, 64
2, 9600, Note_on_c, 0, 70, 116
2, 9984, Note_off_c, 0, 70, 64
2, 10080, Note_on_c, 0, 70, 121
2, 10272, Note_off_c, 0, 70, 64
2, 10320, Note_on_c, 0, 70, 106
2, 10512, Note_off_c, 0, 70, 64
2, 10560, Note_on_c, 0, 70, 118
2, 10944, Note_off_c, 0, 70, 64
2, 11040, Note_on_c, 0, 72, 111
2, 11424, Note_off_c, 0, 72, 64
2, 11520, Note_on_c, 0, 67, 111
2, 11904, Note_off_c, 0, 67, 64
2, 12000, Note_on_c, 0, 65, 97
2, 12192, Note_off_c, 0, 65, 64
2, 12240, Note_on_c, 0, 63, 118
2, 13420, Note_off_c, 0, 63, 64
2, 13920, Note_on_c, 0, 63, 104
2, 14112, Note_off_c, 0, 63, 64
2, 14160, Note_on_c, 0, 63, 99
2, 14352, Note_off_c, 0, 63, 64
2, 14400, Note_on_c, 0, 60, 120
2, 14784, Note_off_c, 0, 60, 64
2, 14880, Note_on_c, 0, 63, 120
2, 15264, Note_off_c, 0, 63, 64
2, 15360, Note_on_c, 0, 63, 109
2, 17568, Note_off_c, 0, 63, 64
2, 17760, Note_on_c, 0, 70, 109
2, 17952, Note_off_c, 0, 70, 64
2, 18000, Note_on_c, 0, 70, 113
2, 18192, Note_off_c, 0, 70, 64
2, 18240, Note_on_c, 0, 70, 109
2, 18624, Note_off_c, 0, 70, 64
2, 18720, Note_on_c, 0, 72, 111
2, 19104, Note_off_c, 0, 72, 64
2, 19200, Note_on_c, 0, 67, 122
2, 19584, Note_off_c, 0, 67, 64
2, 19680, Note_on_c, 0, 65, 120
2, 19872, Note_off_c, 0, 65, 64
2, 19920, Note_on_c, 0, 63, 105
2, 21100, Note_off_c, 0, 63, 64
2, 21600, Note_on_c, 0, 63, 120
2, 21792, Note_off_c, 0, 63, 64
2, 21840, Note_on_c, 0, 63, 110
2, 22032, Note_off_c, 0, 63, 64
2, 22080, Note_on_c, 0, 67, 107
2, 22464, Note_off_c, 0, 67, 64
2, 22560, Note_on_c, 0, 70, 117
2, 22944, Note_off_c, 0, 70, 64
2, 23040, Note_on_c, 0, 70, 122
2, 25248, Note_off_c, 0, 70, 64
2, 25440, Note_on_c, 0, 70, 114
2, 25824, Note_off_c, 0, 70, 64
2, 25920, Note_on_c, 0, 70, 111
2, 26304, Note_off_c, 0, 70, 64
2, 26400, Note_on_c, 0, 72, 95
2, 26784, Note_off_c, 0, 72, 64
2, 26880, Note_on_c, 0, 75, 110
2, 29088, Note_off_c, 0, 75, 64
2, 29280, Note_on_c, 0, 72, 111
2, 29664, Note_off_c, 0, 72, 64
2, 29760, Note_on_c, 0, 70, 108
2, 30144, Note_off_c, 0, 70, 64
2, 30240, Note_on_c, 0, 72, 122
2, 30624, Note_off_c, 0, 72, 64
2, 30720, Note_on_c, 0, 70, 111
2, 31104, Note_off_c, 0, 70, 64
2, 31200, Note_on_c, 0, 68, 103
2, 32736, Note_off_c, 0, 68, 64
2, 33120, Note_on_c, 0, 63, 115
2, 33504, Note_off_c, 0, 63, 64
2, 33600, Note_on_c, 0, 63, 109
2, 33984, Note_off_c, 0, 63, 64
2, 34080, Note_on_c, 0, 63, 119
2, 34464, Note_off_c, 0, 63, 64
2, 34560, Note_on_c, 0, 67, 110
2, 36460, Note_off_c, 0, 67, 64
2, 36960, Note_on_c, 0, 63, 124
2, 37344, Note_off_c, 0, 63, 64
2, 37440, Note_on_c, 0, 60, 109
2, 37824, Note_off_c, 0, 60, 64
2, 37920, Note_on_c, 0, 63, 108
2, 38304, Note_off_c, 0, 63, 64
2, 38400, Note_on_c, 0, 63, 101
2, 40608, Note_off_c, 0, 63, 64
2, 40800, Note_on_c, 0, 75, 109
2, 41568, Note_off_c, 0, 75, 64
2, 41760, Note_on_c, 0, 75, 96
2, 41952, Note_off_c, 0, 75, 64
2, 42000, Note_on_c, 0, 75, 110
2, 42192, Note_off_c, 0, 75, 64
2, 42240, Note_on_c, 0, 72, 112
2, 42432, Note_off_c, 0, 72, 64
2, 42480, Note_on_c, 0, 72, 101
2, 42672, Note_off_c, 0, 72, 64
2, 42720, Note_on_c, 0, 72, 106
2, 43104, Note_off_c, 0, 72, 64
2, 43200, Note_on_c, 0, 72, 110
2, 43776, Note_off_c, 0, 72, 64
2, 43920, Note_on_c, 0, 72, 111
2, 44112, Note_off_c, 0, 72, 64
2, 44160, Note_on_c, 0, 75, 113
2, 44352, Note_off_c, 0, 75, 64
2, 44400, Note_on_c, 0, 75, 109
2, 44592, Note_off_c, 0, 75, 64
2, 44640, Note_on_c, 0, 75, 99
2, 45024, Note_off_c, 0, 75, 64
2, 45120, Note_on_c, 0, 74, 103
2, 45504, Note_off_c, 0, 74, 64
2, 45600, Note_on_c, 0, 72, 114
2, 45984, Note_off_c, 0, 72, 64
2, 46080, Note_on_c, 0, 72, 110
2, 46464, Note_off_c, 0, 72, 64
2, 46560, Note_on_c, 0, 70, 112
2, 46752, Note_off_c, 0, 70, 64
2, 46800, Note_on_c, 0, 67, 113
2, 47376, Note_off_c, 0, 67, 64
2, 47520, Note_on_c, 0, 72, 114
2, 47904, Note_off_c, 0, 72, 64
2, 48000, Note_on_c, 0, 70, 111
2, 48940, Note_off_c, 0, 70, 64
2, 49200, Note_on_c, 0, 75, 110
2, 49392, Note_off_c, 0, 75, 64
2, 49440, Note_on_c, 0, 75, 114
2, 49632, Note_off_c, 0, 75, 64
2, 49680, Note_on_c, 0, 75, 110
2, 49872, Note_off_c, 0, 75, 64
2, 49920, Note_on_c, 0, 72, 104
2, 50112, Note_off_c, 0, 72, 64
2, 50160, Note_on_c, 0, 72, 103
2, 50352, Note_off_c, 0, 72, 64
2, 50400, Note_on_c, 0, 70, 111
2, 50784, Note_off_c, 0, 70, 64
2, 50880, Note_on_c, 0, 67, 109
2, 51264, Note_off_c, 0, 67, 64
2, 51360, Note_on_c, 0, 65, 102
2, 51744, Note_off_c, 0, 65, 64
2, 51840, Note_on_c, 0, 67, 110
2, 52032, Note_off_c, 0, 67, 64
2, 52080, Note_on_c, 0, 65, 106
2, 52272, Note_off_c, 0, 65, 64
2, 52320, Note_on_c, 0, 63, 110
2, 52704, Note_off_c, 0, 63, 64
2, 52800, Note_on_c, 0, 60, 108
2, 53184, Note_off_c, 0, 60, 64
2, 53280, Note_on_c, 0, 58, 117
2, 53664, Note_off_c, 0, 58, 64
2, 53760, Note_on_c, 0, 60, 122
2, 54144, Note_off_c, 0, 60, 64
2, 54240, Note_on_c, 0, 63, 111
2, 55776, Note_off_c, 0, 63, 64
2, 56160, Note_on_c, 0, 70, 112
2, 56352, Note_off_c, 0, 70, 64
2, 56400, Note_on_c, 0, 70, 105
2, 56592, Note_off_c, 0, 70, 64
2, 56640, Note_on_c, 0, 70, 110
2, 57024, Note_off_c, 0, 70, 64
2, 57120, Note_on_c, 0, 72, 110
2, 57504, Note_off_c, 0, 72, 64
2, 57600, Note_on_c, 0, 67, 113
2, 57984, Note_off_c, 0, 67, 64
2, 58080, Note_on_c, 0, 65, 102
2, 58272, Note_off_c, 0, 65, 64
2, 58320, Note_on_c, 0, 63, 98
2, 59500, Note_off_c, 0, 63, 64
2, 60000, Note_on_c, 0, 63, 114
2, 60384, Note_off_c, 0, 63, 64
2, 60480, Note_on_c, 0, 60, 124
2, 60864, Note_off_c, 0, 60, 64
2, 60960, Note_on_c, 0, 63, 119
2, 61344, Note_off_c, 0, 63, 64
2, 61440, Note_on_c, 0, 63, 124
2, 63648, Note_off_c, 0, 63, 64
2, 63840, Note_on_c, 0, 70, 120
2, 64224, Note_off_c, 0, 70, 64
2, 64320, Note_on_c, 0, 70, 111
2, 64704, Note_off_c, 0, 70, 64
2, 64800, Note_on_c, 0, 72, 112
2, 65184, Note_off_c, 0, 72, 64
2, 65280, Note_on_c, 0, 67, 110
2, 65664, Note_off_c, 0, 67, 64
2, 65760, Note_on_c, 0, 65, 110
2, 65952, Note_off_c, 0, 65, 64
2, 66000, Note_on_c, 0, 63, 110
2, 67180, Note_off_c, 0, 63, 64
2, 67680, Note_on_c, 0, 63, 110
2, 68064, Note_off_c, 0, 63, 64
2, 68160, Note_on_c, 0, 67, 109
2, 68544, Note_off_c, 0, 67, 64
2, 68640, Note_on_c, 0, 70, 111
2, 69024, Note_off_c, 0, 70, 64
2, 69120, Note_on_c, 0, 70, 100
2, 71328, Note_off_c, 0, 70, 64
2, 71520, Note_on_c, 0, 70, 120
2, 71904, Note_off_c, 0, 70, 64
2, 72000, Note_on_c, 0, 70, 115
2, 72384, Note_off_c, 0, 70, 64
2, 72480, Note_on_c, 0, 72, 110
2, 72864, Note_off_c, 0, 72, 64
2, 72960, Note_on_c, 0, 75, 121
2, 75168, Note_off_c, 0, 75, 64
2, 75360, Note_on_c, 0, 72, 100
2, 75744, Note_off_c, 0, 72, 64
2, 75840, Note_on_c, 0, 70, 104
2, 76224, Note_off_c, 0, 70, 64
2, 76320, Note_on_c, 0, 72, 120
2, 76704, Note_off_c, 0, 72, 64
2, 76800, Note_on_c, 0, 70, 103
2, 77184, Note_off_c, 0, 70, 64
2, 77280, Note_on_c, 0, 68, 107
2, 78816, Note_off_c, 0, 68, 64
2, 79200, Note_on_c, 0, 63, 116
2, 79584, Note_off_c, 0, 63, 64
2, 79680, Note_on_c, 0, 63, 109
2, 80064, Note_off_c, 0, 63, 64
2, 80160, Note_on_c, 0, 63, 108
2, 80544, Note_off_c, 0, 63, 64
2, 80640, Note_on_c, 0, 67, 114
2, 82540, Note_off_c, 0, 67, 64
2, 83040, Note_on_c, 0, 63, 109
2, 83424, Note_off_c, 0, 63, 64
2, 83520, Note_on_c, 0, 60, 110
2, 83904, Note_off_c, 0, 60, 64
2, 84000, Note_on_c, 0, 63, 109
2, 84384, Note_off_c, 0, 63, 64
2, 84480, Note_on_c, 0, 63, 124
2, 86688, Note_off_c, 0, 63, 64
2, 86880, Note_on_c, 0, 75, 97
2, 87648, Note_off_c, 0, 75, 64
2, 87840, Note_on_c, 0, 75, 110
2, 88032, Note_off_c, 0, 75, 64
2, 88080, Note_on_c, 0, 75, 96
2, 88272, Note_off_c, 0, 75, 64
2, 88320, Note_on_c, 0, 72, 108
2, 88512, Note_off_c, 0, 72, 64
2, 88560, Note_on_c, 0, 72, 110
2, 88752, Note_off_c, 0, 72, 64
2, 88800, Note_on_c, 0, 72, 95
2, 89184, Note_off_c, 0, 72, 64
2, 89280, Note_on_c, 0, 72, 109
2, 89856, Note_off_c, 0, 72, 64
2, 90000, Note_on_c, 0, 72, 110
2, 90192, Note_off_c, 0, 72, 64
2, 90240, Note_on_c, 0, 75, 106
2, 90432, Note_off_c, 0, 75, 64
2, 90480, Note_on_c, 0, 75, 109
2, 90672, Note_off_c, 0, 75, 64
2, 90720, Note_on_c, 0, 75, 112
2, 91104, Note_off_c, 0, 75, 64
2, 91200, Note_on_c, 0, 74, 110
2, 91584, Note_off_c, 0, 74, 64
2, 91680, Note_on_c, 0, 72, 114
2, 92064, Note_off_c, 0, 72, 64
2, 92160, Note_on_c, 0, 72, 108
2, 92544, Note_off_c, 0, 72, 64
2, 92640, Note_on_c, 0, 70, 111
2, 92832, Note_off_c, 0, 70, 64
2, 92880, Note_on_c, 0, 67, 115
2, 93456, Note_off_c, 0, 67, 64
2, 93600, Note_on_c, 0, 72, 113
2, 93984, Note_off_c, 0, 72, 64
2, 94080, Note_on_c, 0, 70, 98
2, 95020, Note_off_c, 0, 70, 64
2, 95280, Note_on_c, 0, 75, 115
2, 95472, Note_off_c, 0, 75, 64
2, 95520, Note_on_c, 0, 75, 122
2, 95712, Note_off_c, 0, 75, 64
2, 95760, Note_on_c, 0, 75, 123
2, 95952, Note_off_c, 0, 75, 64
2, 96000, Note_on_c, 0, 72, 110
2, 96192, Note_off_c, 0, 72, 64
2, 96240, Note_on_c, 0, 72, 104
2, 96432, Note_off_c, 0, 72, 64
2, 96480, Note_on_c, 0, 70, 110
2, 96864, Note_off_c, 0, 70, 64
2, 96960, Note_on_c, 0, 67, 110
2, 97344, Note_off_c, 0, 67, 64
2, 97440, Note_on_c, 0, 65, 110
2, 97824, Note_off_c, 0, 65, 64
2, 97920, Note_on_c, 0, 67, 113
2, 98112, Note_off_c, 0, 67, 64
2, 98160, Note_on_c, 0, 65, 110
2, 98352, Note_off_c, 0, 65, 64
2, 98400, Note_on_c, 0, 63, 97
2, 98784, Note_off_c, 0, 63, 64
2, 98880, Note_on_c, 0, 60, 102
2, 99264, Note_off_c, 0, 60, 64
2, 99360, Note_on_c, 0, 58, 110
2, 99744, Note_off_c, 0, 58, 64
2, 99840, Note_on_c, 0, 60, 110
2, 100224, Note_off_c, 0, 60, 64
2, 100320, Note_on_c, 0, 63, 119
2, 103008, Note_off_c, 0, 63, 64
2, 103008, End_track
3, 0, Start_track
3, 0, Title_t, "Sax"
3, 0, MIDI_port, 0
3, 0, Channel_prefix, 1
3, 0, Control_c, 1, 7, 94
3, 0, Control_c, 1, 10, 40
3, 0, Program_c, 1, 66
3, 0, Control_c, 1, 121, 0
3, 40, Control_c, 1, 123, 0
3, 120, Control_c, 1, 91, 65
3, 160, Control_c, 1, 64, 0
3, 2400, Note_on_c, 1, 58, 99
3, 2592, Note_off_c, 1, 58, 64
3, 2640, Note_on_c, 1, 58, 110
3, 2832, Note_off_c, 1, 58, 64
3, 2880, Note_on_c, 1, 58, 107
3, 3264, Note_off_c, 1, 58, 64
3, 3360, Note_on_c, 1, 60, 107
3, 3744, Note_off_c, 1, 60, 64
3, 3840, Note_on_c, 1, 55, 123
3, 4224, Note_off_c, 1, 55, 64
3, 4320, Note_on_c, 1, 53, 96
3, 4512, Note_off_c, 1, 53, 64
3, 4560, Note_on_c, 1, 51, 110
3, 5740, Note_off_c, 1, 51, 64
3, 6240, Note_on_c, 1, 51, 109
3, 6432, Note_off_c, 1, 51, 64
3, 6480, Note_on_c, 1, 51, 110
3, 6672, Note_off_c, 1, 51, 64
3, 6720, Note_on_c, 1, 48, 111
3, 7104, Note_off_c, 1, 48, 64
3, 7200, Note_on_c, 1, 51, 122
3, 7584, Note_off_c, 1, 51, 64
3, 7680, Note_on_c, 1, 51, 96
3, 8448, Note_off_c, 1, 51, 64
3, 8640, Note_on_c, 1, 60, 101
3, 9024, Note_off_c, 1, 60, 64
3, 9120, Note_on_c, 1, 60, 110
3, 9504, Note_off_c, 1, 60, 64
3, 9600, Note_on_c, 1, 58, 102
3, 9984, Note_off_c, 1, 58, 64
3, 10080, Note_on_c, 1, 58, 95
3, 10272, Note_off_c, 1, 58, 64
3, 10320, Note_on_c, 1, 58, 116
3, 10512, Note_off_c, 1, 58, 64
3, 10560, Note_on_c, 1, 58, 96
3, 10944, Note_off_c, 1, 58, 64
3, 11040, Note_on_c, 1, 60, 110
3, 11424, Note_off_c, 1, 60, 64
3, 11520, Note_on_c, 1, 55, 105
3, 11904, Note_off_c, 1, 55, 64
3, 12000, Note_on_c, 1, 53, 115
3, 12192, Note_off_c, 1, 53, 64
3, 12240, Note_on_c, 1, 51, 110
3, 13420, Note_off_c, 1, 51, 64
3, 13920, Note_on_c, 1, 51, 112
3, 14112, Note_off_c, 1, 51, 64
3, 14160, Note_on_c, 1, 51, 110
3, 14352, Note_off_c, 1, 51, 64
3, 14400, Note_on_c, 1, 48, 106
3, 14784, Note_off_c, 1, 48, 64
3, 14880, Note_on_c, 1, 51, 119
3, 15264, Note_off_c, 1, 51, 64
3, 15360, Note_on_c, 1, 51, 110
3, 17568, Note_off_c, 1, 51, 64
3, 17760, Note_on_c, 1, 58, 107
3, 17952, Note_off_c, 1, 58, 64
3, 18000, Note_on_c, 1, 58, 105
3, 18192, Note_off_c, 1, 58, 64
3, 18240, Note_on_c, 1, 58, 110
3, 18624, Note_off_c, 1, 58, 64
3, 18720, Note_on_c, 1, 60, 119
3, 19104, Note_off_c, 1, 60, 64
3, 19200, Note_on_c, 1, 55, 110
3, 19584, Note_off_c, 1, 55, 64
3, 19680, Note_on_c, 1, 53, 104
3, 19872, Note_off_c, 1, 53, 64
3, 19920, Note_on_c, 1, 51, 104
3, 21100, Note_off_c, 1, 51, 64
3, 21600, Note_on_c, 1, 51, 110
3, 21792, Note_off_c, 1, 51, 64
3, 21840, Note_on_c, 1, 51, 123
3, 22032, Note_off_c, 1, 51, 64
3, 22080, Note_on_c, 1, 55, 109
3, 22464, Note_off_c, 1, 55, 64
3, 22560, Note_on_c, 1, 58, 110
3, 22944, Note_off_c, 1, 58, 64
3, 23040, Note_on_c, 1, 58, 114
3, 25248, Note_off_c, 1, 58, 64
3, 25440, Note_on_c, 1, 58, 101
3, 25824, Note_off_c, 1, 58, 64
3, 25920, Note_on_c, 1, 58, 117
3, 26304, Note_off_c, 1, 58, 64
3, 26400, Note_on_c, 1, 60, 119
3, 26784, Note_off_c, 1, 60, 64
3, 26880, Note_on_c, 1, 63, 117
3, 29088, Note_off_c, 1, 63, 64
3, 29280, Note_on_c, 1, 60, 110
3, 29664, Note_off_c, 1, 60, 64
3, 29760, Note_on_c, 1, 58, 102
3, 30144, Note_off_c, 1, 58, 64
3, 30240, Note_on_c, 1, 60, 110
3, 30624, Note_off_c, 1, 60, 64
3, 30720, Note_on_c, 1, 58, 111
3, 31104, Note_off_c, 1, 58, 64
3, 31200, Note_on_c, 1, 56, 113
3, 32736, Note_off_c, 1, 56, 64
3, 33120, Note_on_c, 1, 51, 118
3, 33504, Note_off_c, 1, 51, 64
3, 33600, Note_on_c, 1, 51, 105
3, 33984, Note_off_c, 1, 51, 64
3, 34080, Note_on_c, 1, 51, 119
3, 34464, Note_off_c, 1, 51, 64
3, 34560, Note_on_c, 1, 55, 110
3, 36460, Note_off_c, 1, 55, 64
3, 36960, Note_on_c, 1, 51, 109
3, 37344, Note_off_c, 1, 51, 64
3, 37440, Note_on_c, 1, 48, 118
3, 37824, Note_off_c, 1, 48, 64
3, 37920, Note_on_c, 1, 51, 111
3, 38304, Note_off_c, 1, 51, 64
3, 38400, Note_on_c, 1, 51, 110
3, 40608, Note_off_c, 1, 51, 64
3, 40800, Note_on_c, 1, 63, 111
3, 41568, Note_off_c, 1, 63, 64
3, 41760, Note_on_c, 1, 63, 99
3, 41952, Note_off_c, 1, 63, 64
3, 42000, Note_on_c, 1, 63, 116
3, 42192, Note_off_c, 1, 63, 64
3, 42240, Note_on_c, 1, 60, 116
3, 42432, Note_off_c, 1, 60, 64
3, 42480, Note_on_c, 1, 60, 105
3, 42672, Note_off_c, 1, 60, 64
3, 42720, Note_on_c, 1, 60, 120
3, 43104, Note_off_c, 1, 60, 64
3, 43200, Note_on_c, 1, 60, 109
3, 43776, Note_off_c, 1, 60, 64
3, 43920, Note_on_c, 1, 60, 97
3, 44112, Note_off_c, 1, 60, 64
3, 44160, Note_on_c, 1, 63, 97
3, 44352, Note_off_c, 1, 63, 64
3, 44400, Note_on_c, 1, 63, 110
3, 44592, Note_off_c, 1, 63, 64
3, 44640, Note_on_c, 1, 63, 112
3, 45024, Note_off_c, 1, 63, 64
3, 45120, Note_on_c, 1, 62, 104
3, 45504, Note_off_c, 1, 62, 64
3, 45600, Note_on_c, 1, 60, 110
3, 45984, Note_off_c, 1, 60, 64
3, 46080, Note_on_c, 1, 60, 110
3, 46464, Note_off_c, 1, 60, 64
3, 46560, Note_on_c, 1, 58, 110
3, 46752, Note_off_c, 1, 58, 64
3, 46800, Note_on_c, 1, 55, 95
3, 47376, Note_off_c, 1, 55, 64
3, 47520, Note_on_c, 1, 60, 123
3, 47904, Note_off_c, 1, 60, 64
3, 48000, Note_on_c, 1, 58, 110
3, 48940, Note_off_c, 1, 58, 64
3, 49200, Note_on_c, 1, 63, 107
3, 49392, Note_off_c, 1, 63, 64
3, 49440, Note_on_c, 1, 63, 109
3, 49632, Note_off_c, 1, 63, 64
3, 49680, Note_on_c, 1, 63, 104
3, 49872, Note_off_c, 1, 63, 64
3, 49920, Note_on_c, 1, 60, 110
3, 50112, Note_off_c, 1, 60, 64
3, 50160, Note_on_c, 1, 60, 109
3, 50352, Note_off_c, 1, 60, 64
3, 50400, Note_on_c, 1, 58, 110
3, 50784, Note_off_c, 1, 58, 64
3, 50880, Note_on_c, 1, 55, 109
3, 51264, Note_off_c, 1, 55, 64
3, 51360, Note_on_c, 1, 53, 107
3, 51744, Note_off_c, 1, 53, 64
3, 51840, Note_on_c, 1, 55, 108
3, 52032, Note_off_c, 1, 55, 64
3, 52080, Note_on_c, 1, 53, 111
3, 52272, Note_off_c, 1, 53, 64
3, 52320, Note_on_c, 1, 51, 106
3, 52704, Note_off_c, 1, 51, 64
3, 52800, Note_on_c, 1, 48, 125
3, 53184, Note_off_c, 1, 48, 64
3, 53280, Note_on_c, 1, 46, 110
3, 53664, Note_off_c, 1, 46, 64
3, 53760, Note_on_c, 1, 48, 118
3, 54144, Note_off_c, 1, 48, 64
3, 54240, Note_on_c, 1, 51, 99
3, 55776, Note_off_c, 1, 51, 64
3, 56160, Note_on_c, 1, 58, 119
3, 56352, Note_off_c, 1, 58, 64
3, 56400, Note_on_c, 1, 58, 111
3, 56592, Note_off_c, 1, 58, 64
3, 56640, Note_on_c, 1, 58, 110
3, 57024, Note_off_c, 1, 58, 64
3, 57120, Note_on_c, 1, 60, 105
3, 57504, Note_off_c, 1, 60, 64
3, 57600, Note_on_c, 1, 55, 112
3, 57984, Note_off_c, 1, 55, 64
3, 58080, Note_on_c, 1, 53, 118
3, 58272, Note_off_c, 1, 53, 64
3, 58320, Note_on_c, 1, 51, 111
3, 59500, Note_off_c, 1, 51, 64
3, 60000, Note_on_c, 1, 51, 120
3, 60384, Note_off_c, 1, 51, 64
3, 60480, Note_on_c, 1, 48, 111
3, 60864, Note_off_c, 1, 48, 64
3, 60960, Note_on_c, 1, 51, 110
3, 61344, Note_off_c, 1, 51, 64
3, 61440, Note_on_c, 1, 51, 111
3, 63648, Note_off_c, 1, 51, 64
3, 63840, Note_on_c, 1, 58, 101
3, 64224, Note_off_c, 1, 58, 64
3, 64320, Note_on_c, 1, 58, 112
3, 64704, Note_off_c, 1, 58, 64
3, 64800, Note_on_c, 1, 60, 117
3, 65184, Note_off_c, 1, 60, 64
3, 65280, Note_on_c, 1, 55, 106
3, 65664, Note_off_c, 1, 55, 64
3, 65760, Note_on_c, 1, 53, 120
3, 65952, Note_off_c, 1, 53, 64
3, 66000, Note_on_c, 1, 51, 110
3, 67180, Note_off_c, 1, 51, 64
3, 67680, Note_on_c, 1, 51, 105
3, 68064, Note_off_c, 1, 51, 64
3, 68160, Note_on_c, 1, 55, 100
3, 68544, Note_off_c, 1, 55, 64
3, 68640, Note_on_c, 1, 58, 112
3, 69024, Note_off_c, 1, 58, 64
3, 69120, Note_on_c, 1, 58, 121
3, 71328, Note_off_c, 1, 58, 64
3, 71520, Note_on_c, 1, 58, 123
3, 71904, Note_off_c, 1, 58, 64
3, 72000, Note_on_c, 1, 58, 110
3, 72384, Note_off_c, 1, 58, 64
3, 72480, Note_on_c, 1, 60, 114
3, 72864, Note_off_c, 1, 60, 64
3, 72960, Note_on_c, 1, 63, 109
3, 75168, Note_off_c, 1, 63, 64
3, 75360, Note_on_c, 1, 60, 118
3, 75744, Note_off_c, 1, 60, 64
3, 75840, Note_on_c, 1, 58, 105
3, 76224, Note_off_c, 1, 58, 64
3, 76320, Note_on_c, 1, 60, 102
3, 76704, Note_off_c, 1, 60, 64
3, 76800, Note_on_c, 1, 58, 107
3, 77184, Note_off_c, 1, 58, 64
3, 77280, Note_on_c, 1, 56, 111
3, 78816, Note_off_c, 1, 56, 64
3, 79200, Note_on_c, 1, 51, 111
3, 79584, Note_off_c, 1, 51, 64
3, 79680, Note_on_c, 1, 51, 100
3, 80064, Note_off_c, 1, 51, 64
3, 80160, Note_on_c, 1, 51, 104
3, 80544, Note_off_c, 1, 51, 64
3, 80640, Note_on_c, 1, 55, 112
3, 82540, Note_off_c, 1, 55, 64
3, 83040, Note_on_c, 1, 51, 102
3, 83424, Note_off_c, 1, 51, 64
3, 83520, Note_on_c, 1, 48, 125
3, 83904, Note_off_c, 1, 48, 64
3, 84000, Note_on_c, 1, 51, 107
3, 84384, Note_off_c, 1, 51, 64
3, 84480, Note_on_c, 1, 51, 110
3, 86688, Note_off_c, 1, 51, 64
3, 86880, Note_on_c, 1, 63, 110
3, 87648, Note_off_c, 1, 63, 64
3, 87840, Note_on_c, 1, 63, 106
3, 88032, Note_off_c, 1, 63, 64
3, 88080, Note_on_c, 1, 63, 117
3, 88272, Note_off_c, 1, 63, 64
3, 88320, Note_on_c, 1, 60, 108
3, 88512, Note_off_c, 1, 60, 64
3, 88560, Note_on_c, 1, 60, 98
3, 88752, Note_off_c, 1, 60, 64
3, 88800, Note_on_c, 1, 60, 120
3, 89184, Note_off_c, 1, 60, 64
3, 89280, Note_on_c, 1, 60, 105
3, 89856, Note_off_c, 1, 60, 64
3, 90000, Note_on_c, 1, 60, 111
3, 90192, Note_off_c, 1, 60, 64
3, 90240, Note_on_c, 1, 63, 110
3, 90432, Note_off_c, 1, 63, 64
3, 90480, Note_on_c, 1, 63, 114
3, 90672, Note_off_c, 1, 63, 64
3, 90720, Note_on_c, 1, 63, 111
3, 91104, Note_off_c, 1, 63, 64
3, 91200, Note_on_c, 1, 62, 110
3, 91584, Note_off_c, 1, 62, 64
3, 91680, Note_on_c, 1, 60, 121
3, 92064, Note_off_c, 1, 60, 64
3, 92160, Note_on_c, 1, 60, 112
3, 92544, Note_off_c, 1, 60, 64
3, 92640, Note_on_c, 1, 58, 110
3, 92832, Note_off_c, 1, 58, 64
3, 92880, Note_on_c, 1, 55, 107
3, 93456, Note_off_c, 1, 55, 64
3, 93600, Note_on_c, 1, 60, 110
3, 93984, Note_off_c, 1, 60, 64
3, 94080, Note_on_c, 1, 58, 110
3, 95020, Note_off_c, 1, 58, 64
3, 95280, Note_on_c, 1, 63, 118
3, 95472, Note_off_c, 1, 63, 64
3, 95520, Note_on_c, 1, 63, 110
3, 95712, Note_off_c, 1, 63, 64
3, 95760, Note_on_c, 1, 63, 123
3, 95952, Note_off_c, 1, 63, 64
3, 96000, Note_on_c, 1, 60, 110
3, 96192, Note_off_c, 1, 60, 64
3, 96240, Note_on_c, 1, 60, 121
3, 96432, Note_off_c, 1, 60, 64
3, 96480, Note_on_c, 1, 58, 99
3, 96864, Note_off_c, 1, 58, 64
3, 96960, Note_on_c, 1, 55, 105
3, 97344, Note_off_c, 1, 55, 64
3, 97440, Note_on_c, 1, 53, 109
3, 97824, Note_off_c, 1, 53, 64
3, 97920, Note_on_c, 1, 55, 98
3, 98112, Note_off_c, 1, 55, 64
3, 98160, Note_on_c, 1, 53, 118
3, 98352, Note_off_c, 1, 53, 64
3, 98400, Note_on_c, 1, 51, 110
3, 98784, Note_off_c, 1, 51, 64
3, 98880, Note_on_c, 1, 48, 123
3, 99264, Note_off_c, 1, 48, 64
3, 99360, Note_on_c, 1, 46, 119
3, 99744, Note_off_c, 1, 46, 64
3, 99840, Note_on_c, 1, 48, 103
3, 100224, Note_off_c, 1, 48, 64
3, 100320, Note_on_c, 1, 51, 118
3, 103008, Note_off_c, 1, 51, 64
3, 103008, End_track
4, 0, Start_track
4, 0, Title_t, "Sax"
4, 0, MIDI_port, 0
4, 0, Channel_prefix, 2
4, 0, Control_c, 2, 7, 117
4, 0, Control_c, 2, 10, 32
4, 0, Program_c, 2, 66
4, 0, Control_c, 2, 121, 0
4, 40, Control_c, 2, 123, 0
4, 80, Control_c, 2, 93, 65
4, 120, Control_c, 2, 91, 65
4, 160, Control_c, 2, 64, 0
4, 4320, Note_on_c, 2, 55, 111
4, 4320, Note_on_c, 2, 58, 112
4, 4780, Note_off_c, 2, 58, 64
4, 4780, Note_off_c, 2, 55, 64
4, 4800, Control_c, 2, 86, 37
4, 5280, Note_on_c, 2, 55, 111
4, 5280, Note_on_c, 2, 58, 103
4, 5740, Note_off_c, 2, 58, 64
4, 5740, Note_off_c, 2, 55, 64
4, 5760, Control_c, 2, 86, 37
4, 6240, Note_on_c, 2, 56, 98
4, 6240, Note_on_c, 2, 60, 107
4, 6700, Note_off_c, 2, 60, 64
4, 6700, Note_off_c, 2, 56, 64
4, 6720, Control_c, 2, 86, 37
4, 7200, Note_on_c, 2, 56, 118
4, 7200, Note_on_c, 2, 60, 122
4, 7584, Note_off_c, 2, 60, 64
4, 7584, Note_off_c, 2, 56, 64
4, 7680, Note_on_c, 2, 55, 114
4, 7680, Note_on_c, 2, 58, 110
4, 8448, Note_off_c, 2, 58, 64
4, 8448, Note_off_c, 2, 55, 64
4, 8640, Note_on_c, 2, 63, 117
4, 8640, Note_on_c, 2, 66, 107
4, 9024, Note_off_c, 2, 66, 64
4, 9024, Note_off_c, 2, 63, 64
4, 9120, Note_on_c, 2, 63, 122
4, 9120, Note_on_c, 2, 66, 95
4, 9504, Note_off_c, 2, 66, 64
4, 9504, Note_off_c, 2, 63, 64
4, 9600, Note_on_c, 2, 62, 112
4, 9600, Note_on_c, 2, 68, 110
4, 10060, Note_off_c, 2, 68, 64
4, 10060, Note_off_c, 2, 62, 64
4, 10080, Control_c, 2, 86, 37
4, 11520, Control_c, 2, 86, 37
4, 12000, Note_on_c, 2, 55, 107
4, 12000, Note_on_c, 2, 58, 110
4, 12460, Note_off_c, 2, 58, 64
4, 12460, Note_off_c, 2, 55, 64
4, 12480, Control_c, 2, 86, 37
4, 12960, Note_on_c, 2, 55, 119
4, 12960, Note_on_c, 2, 58, 112
4, 13420, Note_off_c, 2, 58, 64
4, 13420, Note_off_c, 2, 55, 64
4, 13440, Control_c, 2, 86, 37
4, 13920, Note_on_c, 2, 56, 104
4, 13920, Note_on_c, 2, 60, 120
4, 14380, Note_off_c, 2, 60, 64
4, 14380, Note_off_c, 2, 56, 64
4, 14400, Control_c, 2, 86, 37
4, 14880, Note_on_c, 2, 56, 100
4, 14880, Note_on_c, 2, 60, 111
4, 15340, Note_off_c, 2, 60, 64
4, 15340, Note_off_c, 2, 56, 64
4, 15360, Control_c, 2, 86, 37
4, 15840, Note_on_c, 2, 55, 115
4, 15840, Note_on_c, 2, 58, 123
4, 16300, Note_off_c, 2, 58, 64
4, 16300, Note_off_c, 2, 55, 64
4, 16320, Control_c, 2, 86, 37
4, 16800, Note_on_c, 2, 56, 118
4, 16800, Note_on_c, 2, 60, 113
4, 17184, Note_off_c, 2, 60, 64
4, 17184, Note_off_c, 2, 56, 64
4, 17280, Note_on_c, 2, 55, 105
4, 17280, Note_on_c, 2, 58, 111
4, 17664, Note_off_c, 2, 58, 64
4, 17664, Note_off_c, 2, 55, 64
4, 17760, Note_on_c, 2, 63, 111
4, 17760, Note_on_c, 2, 67, 96
4, 18220, Note_off_c, 2, 67, 64
4, 18220, Note_off_c, 2, 63, 64
4, 18240, Control_c, 2, 86, 37
4, 18720, Note_on_c, 2, 63, 116
4, 18720, Note_on_c, 2, 67, 98
4, 19180, Note_off_c, 2, 67, 64
4, 19180, Note_off_c, 2, 63, 64
4, 19200, Control_c, 2, 86, 37
4, 19680, Note_on_c, 2, 55, 113
4, 19680, Note_on_c, 2, 58, 113
4, 20140, Note_off_c, 2, 58, 64
4, 20140, Note_off_c, 2, 55, 64
4, 20160, Control_c, 2, 86, 37
4, 20640, Note_on_c, 2, 55, 109
4, 20640, Note_on_c, 2, 58, 112
4, 21100, Note_off_c, 2, 58, 64
4, 21100, Note_off_c, 2, 55, 64
4, 21120, Control_c, 2, 86, 37
4, 21600, Note_on_c, 2, 55, 101
4, 21600, Note_on_c, 2, 60, 110
4, 22060, Note_off_c, 2, 60, 64
4, 22060, Note_off_c, 2, 55, 64
4, 22080, Control_c, 2, 86, 37
4, 22560, Note_on_c, 2, 63, 109
4, 22560, Note_on_c, 2, 67, 103
4, 23020, Note_off_c, 2, 67, 64
4, 23020, Note_off_c, 2, 63, 64
4, 23040, Control_c, 2, 86, 37
4, 23520, Note_on_c, 2, 58, 122
4, 23520, Note_on_c, 2, 62, 110
4, 23520, Note_on_c, 2, 67, 119
4, 23980, Note_off_c, 2, 67, 64
4, 23980, Note_off_c, 2, 62, 64
4, 23980, Note_off_c, 2, 58, 64
4, 24000, Control_c, 2, 86, 37
4, 24480, Note_on_c, 2, 58, 114
4, 24480, Note_on_c, 2, 62, 121
4, 24480, Note_on_c, 2, 67, 111
4, 24864, Note_off_c, 2, 67, 64
4, 24864, Note_off_c, 2, 62, 64
4, 24864, Note_off_c, 2, 58, 64
4, 24960, Note_on_c, 2, 58, 121
4, 24960, Note_on_c, 2, 62, 110
4, 24960, Note_on_c, 2, 68, 95
4, 25344, Note_off_c, 2, 68, 64
4, 25344, Note_off_c, 2, 62, 64
4, 25344, Note_off_c, 2, 58, 64
4, 25440, Note_on_c, 2, 62, 102
4, 25440, Note_on_c, 2, 68, 99
4, 25900, Note_off_c, 2, 68, 64
4, 25900, Note_off_c, 2, 62, 64
4, 25920, Control_c, 2, 86, 37
4, 26400, Note_on_c, 2, 62, 122
4, 26400, Note_on_c, 2, 68, 109
4, 26860, Note_off_c, 2, 68, 64
4, 26860, Note_off_c, 2, 62, 64
4, 26880, Control_c, 2, 86, 37
4, 27360, Note_on_c, 2, 63, 107
4, 27360, Note_on_c, 2, 67, 107
4, 27360, Note_on_c, 2, 73, 110
4, 27820, Note_off_c, 2, 73, 64
4, 27820, Note_off_c, 2, 67, 64
4, 27820, Note_off_c, 2, 63, 64
4, 27840, Control_c, 2, 86, 37
4, 28320, Note_on_c, 2, 63, 108
4, 28320, Note_on_c, 2, 67, 110
4, 28320, Note_on_c, 2, 73, 110
4, 28780, Note_off_c, 2, 73, 64
4, 28780, Note_off_c, 2, 67, 64
4, 28780, Note_off_c, 2, 63, 64
4, 28800, Control_c, 2, 86, 37
4, 29280, Note_on_c, 2, 63, 106
4, 29280, Note_on_c, 2, 67, 110
4, 29664, Note_off_c, 2, 67, 64
4, 29664, Note_off_c, 2, 63, 64
4, 29760, Note_on_c, 2, 61, 98
4, 29760, Note_on_c, 2, 67, 113
4, 30144, Note_off_c, 2, 67, 64
4, 30144, Note_off_c, 2, 61, 64
4, 30240, Note_on_c, 2, 63, 98
4, 30240, Note_on_c, 2, 67, 117
4, 30624, Note_off_c, 2, 67, 64
4, 30624, Note_off_c, 2, 63, 64
4, 30720, Note_on_c, 2, 60, 111
4, 30720, Note_on_c, 2, 63, 110
4, 31104, Note_off_c, 2, 63, 64
4, 31104, Note_off_c, 2, 60, 64
4, 31200, Note_on_c, 2, 60, 99
4, 31200, Note_on_c, 2, 63, 108
4, 32620, Note_off_c, 2, 63, 64
4, 32620, Note_off_c, 2, 60, 64
4, 32640, Control_c, 2, 86, 37
4, 33120, Note_on_c, 2, 56, 103
4, 33120, Note_on_c, 2, 59, 100
4, 33580, Note_off_c, 2, 59, 64
4, 33580, Note_off_c, 2, 56, 64
4, 33600, Control_c, 2, 86, 37
4, 34080, Note_on_c, 2, 56, 97
4, 34080, Note_on_c, 2, 59, 109
4, 34540, Note_off_c, 2, 59, 64
4, 34540, Note_off_c, 2, 56, 64
4, 34560, Control_c, 2, 86, 37
4, 35040, Note_on_c, 2, 55, 103
4, 35040, Note_on_c, 2, 58, 110
4, 35040, Note_on_c, 2, 63, 95
4, 35500, Note_off_c, 2, 63, 64
4, 35500, Note_off_c, 2, 58, 64
4, 35500, Note_off_c, 2, 55, 64
4, 35520, Control_c, 2, 86, 37
4, 36000, Note_on_c, 2, 55, 104
4, 36000, Note_on_c, 2, 58, 116
4, 36000, Note_on_c, 2, 63, 110
4, 36460, Note_off_c, 2, 63, 64
4, 36460, Note_off_c, 2, 58, 64
4, 36460, Note_off_c, 2, 55, 64
4, 36480, Control_c, 2, 86, 37
4, 36960, Note_on_c, 2, 56, 114
4, 36960, Note_on_c, 2, 60, 110
4, 37420, Note_off_c, 2, 60, 64
4, 37420, Note_off_c, 2, 56, 64
4, 37440, Control_c, 2, 86, 37
4, 37920, Note_on_c, 2, 56, 103
4, 37920, Note_on_c, 2, 60, 110
4, 38380, Note_off_c, 2, 60, 64
4, 38380, Note_off_c, 2, 56, 64
4, 38400, Control_c, 2, 86, 37
4, 38880, Note_on_c, 2, 55, 111
4, 38880, Note_on_c, 2, 58, 103
4, 39264, Note_off_c, 2, 58, 64
4, 39264, Note_off_c, 2, 55, 64
4, 39360, Note_on_c, 2, 56, 109
4, 39360, Note_on_c, 2, 60, 95
4, 39744, Note_off_c, 2, 60, 64
4, 39744, Note_off_c, 2, 56, 64
4, 39840, Note_on_c, 2, 56, 120
4, 39840, Note_on_c, 2, 60, 113
4, 40224, Note_off_c, 2, 60, 64
4, 40224, Note_off_c, 2, 56, 64
4, 40320, Note_on_c, 2, 55, 120
4, 40320, Note_on_c, 2, 58, 99
4, 40780, Note_off_c, 2, 58, 64
4, 40780, Note_off_c, 2, 55, 64
4, 40800, Control_c, 2, 86, 37
4, 42720, Note_on_c, 2, 63, 110
4, 42720, Note_on_c, 2, 68, 110
4, 43180, Note_off_c, 2, 68, 64
4, 43180, Note_off_c, 2, 63, 64
4, 43200, Control_c, 2, 86, 37
4, 43680, Note_on_c, 2, 63, 110
4, 43680, Note_on_c, 2, 68, 109
4, 44140, Note_off_c, 2, 68, 64
4, 44140, Note_off_c, 2, 63, 64
4, 44160, Control_c, 2, 86, 37
4, 44640, Note_on_c, 2, 63, 103
4, 44640, Note_on_c, 2, 68, 100
4, 44640, Note_on_c, 2, 72, 110
4, 45024, Note_off_c, 2, 72, 64
4, 45024, Note_off_c, 2, 68, 64
4, 45024, Note_off_c, 2, 63, 64
4, 45120, Note_on_c, 2, 65, 109
4, 45120, Note_on_c, 2, 68, 119
4, 45504, Note_off_c, 2, 68, 64
4, 45504, Note_off_c, 2, 65, 64
4, 45600, Note_on_c, 2, 62, 116
4, 45600, Note_on_c, 2, 68, 124
4, 45984, Note_off_c, 2, 68, 64
4, 45984, Note_off_c, 2, 62, 64
4, 46080, Note_on_c, 2, 63, 112
4, 46080, Note_on_c, 2, 67, 112
4, 46464, Note_off_c, 2, 67, 64
4, 46464, Note_off_c, 2, 63, 64
4, 46560, Note_on_c, 2, 63, 112
4, 46560, Note_on_c, 2, 67, 111
4, 46752, Note_off_c, 2, 67, 64
4, 46752, Note_off_c, 2, 63, 64
4, 46800, Note_on_c, 2, 58, 113
4, 46800, Note_on_c, 2, 63, 114
4, 47376, Note_off_c, 2, 63, 64
4, 47376, Note_off_c, 2, 58, 64
4, 47520, Note_on_c, 2, 63, 122
4, 47520, Note_on_c, 2, 67, 100
4, 47980, Note_off_c, 2, 67, 64
4, 47980, Note_off_c, 2, 63, 64
4, 48000, Control_c, 2, 86, 37
4, 48480, Note_on_c, 2, 63, 119
4, 48480, Note_on_c, 2, 67, 100
4, 48940, Note_off_c, 2, 67, 64
4, 48940, Note_off_c, 2, 63, 64
4, 48960, Control_c, 2, 86, 37
4, 49440, Note_on_c, 2, 63, 117
4, 49440, Note_on_c, 2, 67, 111
4, 49440, Note_on_c, 2, 70, 106
4, 49900, Note_off_c, 2, 70, 64
4, 49900, Note_off_c, 2, 67, 64
4, 49900, Note_off_c, 2, 63, 64
4, 49920, Control_c, 2, 86, 37
4, 50400, Note_on_c, 2, 63, 106
4, 50400, Note_on_c, 2, 67, 118
4, 50860, Note_off_c, 2, 67, 64
4, 50860, Note_off_c, 2, 63, 64
4, 50880, Control_c, 2, 86, 37
4, 51360, Note_on_c, 2, 55, 109
4, 51360, Note_on_c, 2, 60, 107
4, 51820, Note_off_c, 2, 60, 64
4, 51820, Note_off_c, 2, 55, 64
4, 51840, Control_c, 2, 86, 37
4, 52320, Note_on_c, 2, 56, 104
4, 52320, Note_on_c, 2, 60, 110
4, 52704, Note_off_c, 2, 60, 64
4, 52704, Note_off_c, 2, 56, 64
4, 52800, Note_on_c, 2, 56, 119
4, 53740, Note_off_c, 2, 56, 64
4, 53760, Control_c, 2, 86, 37
4, 54240, Note_on_c, 2, 55, 102
4, 54240, Note_on_c, 2, 58, 110
4, 54624, Note_off_c, 2, 58, 64
4, 54624, Note_off_c, 2, 55, 64
4, 54720, Note_on_c, 2, 54, 101
4, 54720, Note_on_c, 2, 60, 110
4, 55104, Note_off_c, 2, 60, 64
4, 55104, Note_off_c, 2, 54, 64
4, 55200, Note_on_c, 2, 54, 97
4, 55200, Note_on_c, 2, 60, 97
4, 55584, Note_off_c, 2, 60, 64
4, 55584, Note_off_c, 2, 54, 64
4, 55680, Note_on_c, 2, 55, 110
4, 55680, Note_on_c, 2, 58, 110
4, 56140, Note_off_c, 2, 58, 64
4, 56140, Note_off_c, 2, 55, 64
4, 56160, Control_c, 2, 86, 37
4, 57600, Control_c, 2, 86, 37
4, 58080, Note_on_c, 2, 55, 99
4, 58080, Note_on_c, 2, 58, 109
4, 58540, Note_off_c, 2, 58, 64
4, 58540, Note_off_c, 2, 55, 64
4, 58560, Control_c, 2, 86, 37
4, 59040, Note_on_c, 2, 55, 108
4, 59040, Note_on_c, 2, 58, 106
4, 59500, Note_off_c, 2, 58, 64
4, 59500, Note_off_c, 2, 55, 64
4, 59520, Control_c, 2, 86, 37
4, 60000, Note_on_c, 2, 56, 99
4, 60000, Note_on_c, 2, 60, 97
4, 60460, Note_off_c, 2, 60, 64
4, 60460, Note_off_c, 2, 56, 64
4, 60480, Control_c, 2, 86, 37
4, 60960, Note_on_c, 2, 56, 102
4, 60960, Note_on_c, 2, 60, 110
4, 61420, Note_off_c, 2, 60, 64
4, 61420, Note_off_c, 2, 56, 64
4, 61440, Control_c, 2, 86, 37
4, 61920, Note_on_c, 2, 55, 112
4, 61920, Note_on_c, 2, 58, 115
4, 62380, Note_off_c, 2, 58, 64
4, 62380, Note_off_c, 2, 55, 64
4, 62400, Control_c, 2, 86, 37
4, 62880, Note_on_c, 2, 56, 106
4, 62880, Note_on_c, 2, 60, 113
4, 63264, Note_off_c, 2, 60, 64
4, 63264, Note_off_c, 2, 56, 64
4, 63360, Note_on_c, 2, 55, 111
4, 63360, Note_on_c, 2, 58, 108
4, 63744, Note_off_c, 2, 58, 64
4, 63744, Note_off_c, 2, 55, 64
4, 63840, Note_on_c, 2, 63, 111
4, 63840, Note_on_c, 2, 67, 109
4, 64300, Note_off_c, 2, 67, 64
4, 64300, Note_off_c, 2, 63, 64
4, 64320, Control_c, 2, 86, 37
4, 64800, Note_on_c, 2, 63, 105
4, 64800, Note_on_c, 2, 67, 118
4, 65260, Note_off_c, 2, 67, 64
4, 65260, Note_off_c, 2, 63, 64
4, 65280, Control_c, 2, 86, 37
4, 65760, Note_on_c, 2, 55, 110
4, 65760, Note_on_c, 2, 58, 109
4, 66220, Note_off_c, 2, 58, 64
4, 66220, Note_off_c, 2, 55, 64
4, 66240, Control_c, 2, 86, 37
4, 66720, Note_on_c, 2, 55, 110
4, 66720, Note_on_c, 2, 58, 124
4, 67180, Note_off_c, 2, 58, 64
4, 67180, Note_off_c, 2, 55, 64
4, 67200, Control_c, 2, 86, 37
4, 67680, Note_on_c, 2, 55, 96
4, 67680, Note_on_c, 2, 60, 110
4, 68140, Note_off_c, 2, 60, 64
4, 68140, Note_off_c, 2, 55, 64
4, 68160, Control_c, 2, 86, 37
4, 68640, Note_on_c, 2, 63, 108
4, 68640, Note_on_c, 2, 67, 112
4, 69100, Note_off_c, 2, 67, 64
4, 69100, Note_off_c, 2, 63, 64
4, 69120, Control_c, 2, 86, 37
4, 69600, Note_on_c, 2, 58, 116
4, 69600, Note_on_c, 2, 62, 110
4, 69600, Note_on_c, 2, 67, 98
4, 70060, Note_off_c, 2, 67, 64
4, 70060, Note_off_c, 2, 62, 64
4, 70060, Note_off_c, 2, 58, 64
4, 70080, Control_c, 2, 86, 37
4, 70560, Note_on_c, 2, 58, 112
4, 70560, Note_on_c, 2, 62, 99
4, 70560, Note_on_c, 2, 67, 110
4, 70944, Note_off_c, 2, 67, 64
4, 70944, Note_off_c, 2, 62, 64
4, 70944, Note_off_c, 2, 58, 64
4, 71040, Note_on_c, 2, 58, 123
4, 71040, Note_on_c, 2, 62, 110
4, 71040, Note_on_c, 2, 68, 124
4, 71424, Note_off_c, 2, 68, 64
4, 71424, Note_off_c, 2, 62, 64
4, 71424, Note_off_c, 2, 58, 64
4, 71520, Note_on_c, 2, 62, 116
4, 71520, Note_on_c, 2, 68, 105
4, 71980, Note_off_c, 2, 68, 64
4, 71980, Note_off_c, 2, 62, 64
4, 72000, Control_c, 2, 86, 37
4, 72480, Note_on_c, 2, 62, 107
4, 72480, Note_on_c, 2, 68, 99
4, 72940, Note_off_c, 2, 68, 64
4, 72940, Note_off_c, 2, 62, 64
4, 72960, Control_c, 2, 86, 37
4, 73440, Note_on_c, 2, 63, 102
4, 73440, Note_on_c, 2, 67, 110
4, 73440, Note_on_c, 2, 73, 112
4, 73900, Note_off_c, 2, 73, 64
4, 73900, Note_off_c, 2, 67, 64
4, 73900, Note_off_c, 2, 63, 64
4, 73920, Control_c, 2, 86, 37
4, 74400, Note_on_c, 2, 63, 110
4, 74400, Note_on_c, 2, 67, 111
4, 74400, Note_on_c, 2, 73, 101
4, 74860, Note_off_c, 2, 73, 64
4, 74860, Note_off_c, 2, 67, 64
4, 74860, Note_off_c, 2, 63, 64
4, 74880, Control_c, 2, 86, 37
4, 75360, Note_on_c, 2, 63, 110
4, 75360, Note_on_c, 2, 67, 105
4, 75744, Note_off_c, 2, 67, 64
4, 75744, Note_off_c, 2, 63, 64
4, 75840, Note_on_c, 2, 61, 110
4, 75840, Note_on_c, 2, 67, 111
4, 76224, Note_off_c, 2, 67, 64
4, 76224, Note_off_c, 2, 61, 64
4, 76320, Note_on_c, 2, 63, 110
4, 76320, Note_on_c, 2, 67, 110
4, 76704, Note_off_c, 2, 67, 64
4, 76704, Note_off_c, 2, 63, 64
4, 76800, Note_on_c, 2, 60, 102
4, 76800, Note_on_c, 2, 63, 110
4, 77184, Note_off_c, 2, 63, 64
4, 77184, Note_off_c, 2, 60, 64
4, 77280, Note_on_c, 2, 60, 100
4, 77280, Note_on_c, 2, 63, 110
4, 78700, Note_off_c, 2, 63, 64
4, 78700, Note_off_c, 2, 60, 64
4, 78720, Control_c, 2, 86, 37
4, 79200, Note_on_c, 2, 56, 113
4, 79200, Note_on_c, 2, 59, 122
4, 79660, Note_off_c, 2, 59, 64
4, 79660, Note_off_c, 2, 56, 64
4, 79680, Control_c, 2, 86, 37
4, 80160, Note_on_c, 2, 56, 121
4, 80160, Note_on_c, 2, 59, 114
4, 80620, Note_off_c, 2, 59, 64
4, 80620, Note_off_c, 2, 56, 64
4, 80640, Control_c, 2, 86, 37
4, 81120, Note_on_c, 2, 55, 121
4, 81120, Note_on_c, 2, 58, 123
4, 81120, Note_on_c, 2, 63, 109
4, 81580, Note_off_c, 2, 63, 64
4, 81580, Note_off_c, 2, 58, 64
4, 81580, Note_off_c, 2, 55, 64
4, 81600, Control_c, 2, 86, 37
4, 82080, Note_on_c, 2, 55, 110
4, 82080, Note_on_c, 2, 58, 101
4, 82080, Note_on_c, 2, 63, 106
4, 82540, Note_off_c, 2, 63, 64
4, 82540, Note_off_c, 2, 58, 64
4, 82540, Note_off_c, 2, 55, 64
4, 82560, Control_c, 2, 86, 37
4, 83040, Note_on_c, 2, 56, 124
4, 83040, Note_on_c, 2, 60, 109
4, 83500, Note_off_c, 2, 60, 64
4, 83500, Note_off_c, 2, 56, 64
4, 83520, Control_c, 2, 86, 37
4, 84000, Note_on_c, 2, 56, 99
4, 84000, Note_on_c, 2, 60, 109
4, 84460, Note_off_c, 2, 60, 64
4, 84460, Note_off_c, 2, 56, 64
4, 84480, Control_c, 2, 86, 37
4, 84960, Note_on_c, 2, 55, 117
4, 84960, Note_on_c, 2, 58, 113
4, 85344, Note_off_c, 2, 58, 64
4, 85344, Note_off_c, 2, 55, 64
4, 85440, Note_on_c, 2, 56, 107
4, 85440, Note_on_c, 2, 60, 115
4, 85824, Note_off_c, 2, 60, 64
4, 85824, Note_off_c, 2, 56, 64
4, 85920, Note_on_c, 2, 56, 114
4, 85920, Note_on_c, 2, 60, 107
4, 86304, Note_off_c, 2, 60, 64
4, 86304, Note_off_c, 2, 56, 64
4, 86400, Note_on_c, 2, 55, 105
4, 86400, Note_on_c, 2, 58, 122
4, 86860, Note_off_c, 2, 58, 64
4, 86860, Note_off_c, 2, 55, 64
4, 86880, Control_c, 2, 86, 37
4, 88800, Note_on_c, 2, 63, 103
4, 88800, Note_on_c, 2, 68, 118
4, 89260, Note_off_c, 2, 68, 64
4, 89260, Note_off_c, 2, 63, 64
4, 89280, Control_c, 2, 86, 37
4, 89760, Note_on_c, 2, 63, 111
4, 89760, Note_on_c, 2, 68, 110
4, 90220, Note_off_c, 2, 68, 64
4, 90220, Note_off_c, 2, 63, 64
4, 90240, Control_c, 2, 86, 37
4, 90720, Note_on_c, 2, 63, 111
4, 90720, Note_on_c, 2, 68, 108
4, 90720, Note_on_c, 2, 72, 114
4, 91104, Note_off_c, 2, 72, 64
4, 91104, Note_off_c, 2, 68, 64
4, 91104, Note_off_c, 2, 63, 64
4, 91200, Note_on_c, 2, 65, 114
4, 91200, Note_on_c, 2, 68, 111
4, 91584, Note_off_c, 2, 68, 64
4, 91584, Note_off_c, 2, 65, 64
4, 91680, Note_on_c, 2, 62, 101
4, 91680, Note_on_c, 2, 68, 113
4, 92064, Note_off_c, 2, 68, 64
4, 92064, Note_off_c, 2, 62, 64
4, 92160, Note_on_c, 2, 63, 101
4, 92160, Note_on_c, 2, 67, 122
4, 92544, Note_off_c, 2, 67, 64
4, 92544, Note_off_c, 2, 63, 64
4, 92640, Note_on_c, 2, 63, 109
4, 92640, Note_on_c, 2, 67, 107
4, 92832, Note_off_c, 2, 67, 64
4, 92832, Note_off_c, 2, 63, 64
4, 92880, Note_on_c, 2, 58, 110
4, 92880, Note_on_c, 2, 63, 112
4, 93456, Note_off_c, 2, 63, 64
4, 93456, Note_off_c, 2, 58, 64
4, 93600, Note_on_c, 2, 63, 115
4, 93600, Note_on_c, 2, 67, 111
4, 94060, Note_off_c, 2, 67, 64
4, 94060, Note_off_c, 2, 63, 64
4, 94080, Control_c, 2, 86, 37
4, 94560, Note_on_c, 2, 63, 111
4, 94560, Note_on_c, 2, 67, 110
4, 95020, Note_off_c, 2, 67, 64
4, 95020, Note_off_c, 2, 63, 64
4, 95040, Control_c, 2, 86, 37
4, 95520, Note_on_c, 2, 63, 110
4, 95520, Note_on_c, 2, 67, 95
4, 95520, Note_on_c, 2, 70, 118
4, 95980, Note_off_c, 2, 70, 64
4, 95980, Note_off_c, 2, 67, 64
4, 95980, Note_off_c, 2, 63, 64
4, 96000, Control_c, 2, 86, 37
4, 96480, Note_on_c, 2, 63, 110
4, 96480, Note_on_c, 2, 67, 102
4, 96940, Note_off_c, 2, 67, 64
4, 96940, Note_off_c, 2, 63, 64
4, 96960, Control_c, 2, 86, 37
4, 97440, Note_on_c, 2, 55, 110
4, 97440, Note_on_c, 2, 60, 124
4, 97900, Note_off_c, 2, 60, 64
4, 97900, Note_off_c, 2, 55, 64
4, 97920, Control_c, 2, 86, 37
4, 98400, Note_on_c, 2, 56, 102
4, 98400, Note_on_c, 2, 60, 95
4, 98784, Note_off_c, 2, 60, 64
4, 98784, Note_off_c, 2, 56, 64
4, 98880, Note_on_c, 2, 56, 110
4, 99648, Note_off_c, 2, 56, 64
4, 99840, Note_on_c, 2, 60, 119
4, 100224, Note_off_c, 2, 60, 64
4, 100320, Note_on_c, 2, 63, 119
4, 100320, Note_on_c, 2, 55, 117
4, 100320, Note_on_c, 2, 58, 123
4, 100704, Note_off_c, 2, 58, 64
4, 100704, Note_off_c, 2, 55, 64
4, 100704, Note_off_c, 2, 63, 64
4, 100800, Note_on_c, 2, 72, 109
4, 100800, Note_on_c, 2, 66, 115
4, 100800, Note_on_c, 2, 60, 110
4, 100992, Note_off_c, 2, 72, 64
4, 101040, Note_on_c, 2, 72, 120
4, 101184, Note_off_c, 2, 66, 64
4, 101184, Note_off_c, 2, 60, 64
4, 101232, Note_off_c, 2, 72, 64
4, 101280, Note_on_c, 2, 72, 109
4, 101280, Note_on_c, 2, 66, 124
4, 101280, Note_on_c, 2, 60, 120
4, 101664, Note_off_c, 2, 60, 64
4, 101664, Note_off_c, 2, 66, 64
4, 101664, Note_off_c, 2, 72, 64
4, 101760, Note_on_c, 2, 70, 110
4, 101760, Note_on_c, 2, 67, 110
4, 101760, Note_on_c, 2, 63, 106
4, 102528, Note_off_c, 2, 63, 64
4, 102528, Note_off_c, 2, 67, 64
4, 102528, Note_off_c, 2, 70, 64
4, 102720, Note_on_c, 2, 63, 111
4, 102720, Note_on_c, 2, 67, 115
4, 102720, Note_on_c, 2, 70, 109
4, 102720, Note_on_c, 2, 75, 109
4, 103180, Note_off_c, 2, 75, 64
4, 103180, Note_off_c, 2, 70, 64
4, 103180, Note_off_c, 2, 67, 64
4, 103180, Note_off_c, 2, 63, 64
4, 103200, Control_c, 2, 86, 37
4, 103200, End_track
5, 0, Start_track
5, 0, Title_t, "Piano   "
5, 0, MIDI_port, 0
5, 0, Channel_prefix, 3
5, 0, Control_c, 3, 7, 105
5, 0, Control_c, 3, 10, 112
5, 0, Program_c, 3, 1
5, 0, Control_c, 3, 121, 0
5, 40, Control_c, 3, 123, 0
5, 80, Control_c, 3, 93, 85
5, 120, Control_c, 3, 91, 65
5, 160, Control_c, 3, 64, 0
5, 3840, Note_on_c, 3, 63, 54
5, 3840, Note_on_c, 3, 58, 54
5, 3840, Note_on_c, 3, 55, 54
5, 4800, Note_on_c, 3, 63, 43
5, 5040, Note_off_c, 3, 63, 64
5, 5040, Note_on_c, 3, 67, 39
5, 5068, Note_off_c, 3, 58, 64
5, 5068, Note_off_c, 3, 55, 64
5, 5068, Note_off_c, 3, 63, 64
5, 5280, Note_on_c, 3, 70, 49
5, 5288, Note_off_c, 3, 67, 64
5, 5516, Note_off_c, 3, 70, 64
5, 5520, Note_on_c, 3, 75, 69
5, 5604, Note_off_c, 3, 75, 64
5, 5760, Note_on_c, 3, 63, 54
5, 5760, Note_on_c, 3, 60, 54
5, 5760, Note_on_c, 3, 56, 54
5, 5928, Note_off_c, 3, 56, 64
5, 5928, Note_off_c, 3, 60, 64
5, 5928, Note_off_c, 3, 63, 64
5, 6000, Note_on_c, 3, 63, 49
5, 6000, Note_on_c, 3, 60, 49
5, 6000, Note_on_c, 3, 56, 49
5, 6136, Note_off_c, 3, 56, 64
5, 6136, Note_off_c, 3, 60, 64
5, 6136, Note_off_c, 3, 63, 64
5, 6480, Note_on_c, 3, 63, 49
5, 6480, Note_on_c, 3, 60, 49
5, 6480, Note_on_c, 3, 56, 49
5, 7236, Note_off_c, 3, 56, 64
5, 7236, Note_off_c, 3, 60, 64
5, 7236, Note_off_c, 3, 63, 64
5, 7920, Note_on_c, 3, 63, 50
5, 7920, Note_on_c, 3, 58, 50
5, 7920, Note_on_c, 3, 55, 50
5, 8440, Note_off_c, 3, 55, 64
5, 8440, Note_off_c, 3, 58, 64
5, 8440, Note_off_c, 3, 63, 64
5, 8640, Note_on_c, 3, 63, 50
5, 8640, Note_on_c, 3, 60, 50
5, 8640, Note_on_c, 3, 56, 50
5, 9512, Note_off_c, 3, 56, 64
5, 9512, Note_off_c, 3, 60, 64
5, 9512, Note_off_c, 3, 63, 64
5, 9600, Note_on_c, 3, 63, 50
5, 9600, Note_on_c, 3, 58, 50
5, 9600, Note_on_c, 3, 55, 50
5, 10080, Note_off_c, 3, 55, 64
5, 10080, Note_off_c, 3, 58, 64
5, 10080, Note_off_c, 3, 63, 64
5, 11760, Note_on_c, 3, 63, 54
5, 11760, Note_on_c, 3, 58, 54
5, 11760, Note_on_c, 3, 55, 54
5, 11944, Note_off_c, 3, 55, 64
5, 11944, Note_off_c, 3, 58, 64
5, 11944, Note_off_c, 3, 63, 64
5, 12240, Note_on_c, 3, 51, 40
5, 12480, Note_on_c, 3, 63, 52
5, 12480, Note_on_c, 3, 58, 52
5, 12480, Note_on_c, 3, 55, 52
5, 12520, Note_off_c, 3, 51, 64
5, 12760, Note_off_c, 3, 63, 64
5, 12760, Note_off_c, 3, 58, 64
5, 12760, Note_off_c, 3, 55, 64
5, 12960, Note_on_c, 3, 63, 54
5, 12960, Note_on_c, 3, 58, 54
5, 12960, Note_on_c, 3, 55, 54
5, 13112, Note_off_c, 3, 55, 64
5, 13112, Note_off_c, 3, 58, 64
5, 13112, Note_off_c, 3, 63, 64
5, 13680, Note_on_c, 3, 63, 54
5, 13680, Note_on_c, 3, 60, 54
5, 13680, Note_on_c, 3, 56, 54
5, 13864, Note_off_c, 3, 56, 64
5, 13864, Note_off_c, 3, 60, 64
5, 13864, Note_off_c, 3, 63, 64
5, 14160, Note_on_c, 3, 44, 40
5, 14400, Note_on_c, 3, 63, 52
5, 14400, Note_on_c, 3, 60, 52
5, 14400, Note_on_c, 3, 56, 52
5, 14440, Note_off_c, 3, 44, 64
5, 14680, Note_off_c, 3, 63, 64
5, 14680, Note_off_c, 3, 60, 64
5, 14680, Note_off_c, 3, 56, 64
5, 14880, Note_on_c, 3, 63, 54
5, 14880, Note_on_c, 3, 60, 54
5, 14880, Note_on_c, 3, 56, 54
5, 15032, Note_off_c, 3, 56, 64
5, 15032, Note_off_c, 3, 60, 64
5, 15032, Note_off_c, 3, 63, 64
5, 15360, Note_on_c, 3, 63, 50
5, 15360, Note_on_c, 3, 58, 50
5, 15360, Note_on_c, 3, 55, 50
5, 16232, Note_off_c, 3, 55, 64
5, 16232, Note_off_c, 3, 58, 64
5, 16232, Note_off_c, 3, 63, 64
5, 16320, Note_on_c, 3, 63, 50
5, 16320, Note_on_c, 3, 60, 50
5, 16320, Note_on_c, 3, 56, 50
5, 17192, Note_off_c, 3, 56, 64
5, 17192, Note_off_c, 3, 60, 64
5, 17192, Note_off_c, 3, 63, 64
5, 17280, Note_on_c, 3, 67, 54
5, 17280, Note_on_c, 3, 63, 54
5, 17280, Note_on_c, 3, 58, 54
5, 17448, Note_off_c, 3, 58, 64
5, 17448, Note_off_c, 3, 63, 64
5, 17448, Note_off_c, 3, 67, 64
5, 17520, Note_on_c, 3, 67, 49
5, 17520, Note_on_c, 3, 63, 49
5, 17520, Note_on_c, 3, 58, 49
5, 17656, Note_off_c, 3, 58, 64
5, 17656, Note_off_c, 3, 63, 64
5, 17656, Note_off_c, 3, 67, 64
5, 18000, Note_on_c, 3, 67, 49
5, 18000, Note_on_c, 3, 63, 49
5, 18000, Note_on_c, 3, 58, 49
5, 18756, Note_off_c, 3, 58, 64
5, 18756, Note_off_c, 3, 63, 64
5, 18756, Note_off_c, 3, 67, 64
5, 19200, Note_on_c, 3, 67, 54
5, 19200, Note_on_c, 3, 63, 54
5, 19200, Note_on_c, 3, 58, 54
5, 20160, Note_on_c, 3, 63, 43
5, 20400, Note_off_c, 3, 63, 64
5, 20400, Note_on_c, 3, 67, 39
5, 20428, Note_off_c, 3, 67, 64
5, 20428, Note_off_c, 3, 58, 64
5, 20428, Note_off_c, 3, 63, 64
5, 20640, Note_on_c, 3, 70, 49
5, 20648, Note_off_c, 3, 67, 64
5, 20876, Note_off_c, 3, 70, 64
5, 20880, Note_on_c, 3, 75, 69
5, 20964, Note_off_c, 3, 75, 64
5, 21120, Note_on_c, 3, 63, 54
5, 21120, Note_on_c, 3, 60, 54
5, 21120, Note_on_c, 3, 55, 54
5, 21288, Note_off_c, 3, 55, 64
5, 21288, Note_off_c, 3, 60, 64
5, 21288, Note_off_c, 3, 63, 64
5, 21360, Note_on_c, 3, 63, 49
5, 21360, Note_on_c, 3, 60, 49
5, 21360, Note_on_c, 3, 55, 49
5, 21496, Note_off_c, 3, 55, 64
5, 21496, Note_off_c, 3, 60, 64
5, 21496, Note_off_c, 3, 63, 64
5, 21840, Note_on_c, 3, 63, 49
5, 21840, Note_on_c, 3, 60, 49
5, 21840, Note_on_c, 3, 55, 49
5, 22596, Note_off_c, 3, 55, 64
5, 22596, Note_off_c, 3, 60, 64
5, 22596, Note_off_c, 3, 63, 64
5, 23040, Note_on_c, 3, 62, 54
5, 23040, Note_on_c, 3, 58, 54
5, 23040, Note_on_c, 3, 55, 54
5, 23208, Note_off_c, 3, 55, 64
5, 23208, Note_off_c, 3, 58, 64
5, 23208, Note_off_c, 3, 62, 64
5, 23280, Note_on_c, 3, 62, 49
5, 23280, Note_on_c, 3, 58, 49
5, 23280, Note_on_c, 3, 55, 49
5, 23416, Note_off_c, 3, 55, 64
5, 23416, Note_off_c, 3, 58, 64
5, 23416, Note_off_c, 3, 62, 64
5, 23760, Note_on_c, 3, 62, 49
5, 23760, Note_on_c, 3, 58, 49
5, 23760, Note_on_c, 3, 55, 49
5, 24516, Note_off_c, 3, 55, 64
5, 24516, Note_off_c, 3, 58, 64
5, 24516, Note_off_c, 3, 62, 64
5, 24960, Note_on_c, 3, 68, 49
5, 24960, Note_on_c, 3, 65, 49
5, 24960, Note_on_c, 3, 62, 49
5, 24960, Note_on_c, 3, 70, 49
5, 25680, Note_on_c, 3, 46, 42
5, 25712, Note_off_c, 3, 70, 64
5, 25712, Note_off_c, 3, 62, 64
5, 25712, Note_off_c, 3, 65, 64
5, 25712, Note_off_c, 3, 68, 64
5, 25920, Note_on_c, 3, 68, 47
5, 25920, Note_on_c, 3, 65, 47
5, 25920, Note_on_c, 3, 62, 47
5, 25920, Note_on_c, 3, 70, 47
5, 25948, Note_off_c, 3, 46, 64
5, 26244, Note_off_c, 3, 68, 64
5, 26244, Note_off_c, 3, 65, 64
5, 26244, Note_off_c, 3, 62, 64
5, 26244, Note_off_c, 3, 70, 64
5, 26400, Note_on_c, 3, 68, 62
5, 26400, Note_on_c, 3, 65, 62
5, 26400, Note_on_c, 3, 62, 62
5, 26400, Note_on_c, 3, 70, 62
5, 26564, Note_off_c, 3, 70, 64
5, 26564, Note_off_c, 3, 62, 64
5, 26564, Note_off_c, 3, 65, 64
5, 26564, Note_off_c, 3, 68, 64
5, 26880, Note_on_c, 3, 63, 30
5, 26880, Note_on_c, 3, 70, 48
5, 26880, Note_on_c, 3, 67, 54
5, 26880, Note_on_c, 3, 61, 29
5, 28560, Note_on_c, 3, 51, 42
5, 28628, Note_off_c, 3, 61, 64
5, 28712, Note_off_c, 3, 67, 64
5, 28720, Note_off_c, 3, 70, 64
5, 28728, Note_off_c, 3, 63, 64
5, 28800, Note_on_c, 3, 63, 42
5, 28800, Note_on_c, 3, 70, 54
5, 28800, Note_on_c, 3, 67, 54
5, 28800, Note_on_c, 3, 61, 31
5, 28900, Note_off_c, 3, 67, 64
5, 28924, Note_off_c, 3, 61, 64
5, 28940, Note_off_c, 3, 70, 64
5, 28940, Note_off_c, 3, 63, 64
5, 29040, Note_on_c, 3, 63, 50
5, 29040, Note_on_c, 3, 70, 38
5, 29040, Note_on_c, 3, 61, 36
5, 29040, Note_on_c, 3, 67, 57
5, 29164, Note_off_c, 3, 67, 64
5, 29188, Note_off_c, 3, 70, 64
5, 29188, Note_off_c, 3, 63, 64
5, 29196, Note_off_c, 3, 61, 64
5, 29520, Note_on_c, 3, 70, 52
5, 29520, Note_on_c, 3, 63, 57
5, 29520, Note_on_c, 3, 67, 54
5, 29520, Note_on_c, 3, 61, 57
5, 29616, Note_off_c, 3, 51, 64
5, 29684, Note_off_c, 3, 67, 64
5, 29696, Note_off_c, 3, 63, 64
5, 29704, Note_off_c, 3, 70, 64
5, 29720, Note_off_c, 3, 61, 64
5, 30000, Note_on_c, 3, 51, 65
5, 30240, Note_on_c, 3, 63, 65
5, 30240, Note_on_c, 3, 70, 59
5, 30240, Note_on_c, 3, 67, 65
5, 30240, Note_on_c, 3, 61, 67
5, 30268, Note_off_c, 3, 51, 64
5, 30408, Note_off_c, 3, 67, 64
5, 30420, Note_off_c, 3, 70, 64
5, 30444, Note_off_c, 3, 63, 64
5, 30444, Note_off_c, 3, 61, 64
5, 30720, Note_on_c, 3, 63, 54
5, 30720, Note_on_c, 3, 60, 54
5, 30720, Note_on_c, 3, 56, 54
5, 30888, Note_off_c, 3, 56, 64
5, 30888, Note_off_c, 3, 60, 64
5, 30888, Note_off_c, 3, 63, 64
5, 30960, Note_on_c, 3, 63, 49
5, 30960, Note_on_c, 3, 60, 49
5, 30960, Note_on_c, 3, 56, 49
5, 31096, Note_off_c, 3, 56, 64
5, 31096, Note_off_c, 3, 60, 64
5, 31096, Note_off_c, 3, 63, 64
5, 31440, Note_on_c, 3, 63, 49
5, 31440, Note_on_c, 3, 60, 49
5, 31440, Note_on_c, 3, 56, 49
5, 32196, Note_off_c, 3, 56, 64
5, 32196, Note_off_c, 3, 60, 64
5, 32196, Note_off_c, 3, 63, 64
5, 32640, Note_on_c, 3, 63, 54
5, 32640, Note_on_c, 3, 59, 54
5, 32640, Note_on_c, 3, 56, 54
5, 32808, Note_off_c, 3, 56, 64
5, 32808, Note_off_c, 3, 59, 64
5, 32808, Note_off_c, 3, 63, 64
5, 32880, Note_on_c, 3, 63, 49
5, 32880, Note_on_c, 3, 59, 49
5, 32880, Note_on_c, 3, 56, 49
5, 33016, Note_off_c, 3, 56, 64
5, 33016, Note_off_c, 3, 59, 64
5, 33016, Note_off_c, 3, 63, 64
5, 33360, Note_on_c, 3, 63, 49
5, 33360, Note_on_c, 3, 59, 49
5, 33360, Note_on_c, 3, 56, 49
5, 34116, Note_off_c, 3, 56, 64
5, 34116, Note_off_c, 3, 59, 64
5, 34116, Note_off_c, 3, 63, 64
5, 34560, Note_on_c, 3, 63, 54
5, 34560, Note_on_c, 3, 58, 54
5, 34560, Note_on_c, 3, 55, 54
5, 35520, Note_on_c, 3, 63, 43
5, 35760, Note_off_c, 3, 63, 64
5, 35760, Note_on_c, 3, 67, 39
5, 35788, Note_off_c, 3, 58, 64
5, 35788, Note_off_c, 3, 55, 64
5, 35788, Note_off_c, 3, 63, 64
5, 36000, Note_on_c, 3, 70, 49
5, 36008, Note_off_c, 3, 67, 64
5, 36236, Note_off_c, 3, 70, 64
5, 36240, Note_on_c, 3, 75, 69
5, 36324, Note_off_c, 3, 75, 64
5, 36480, Note_on_c, 3, 63, 54
5, 36480, Note_on_c, 3, 60, 54
5, 36480, Note_on_c, 3, 56, 54
5, 37440, Note_on_c, 3, 56, 43
5, 37680, Note_off_c, 3, 56, 64
5, 37680, Note_on_c, 3, 60, 39
5, 37708, Note_off_c, 3, 60, 64
5, 37708, Note_off_c, 3, 63, 64
5, 37708, Note_off_c, 3, 56, 64
5, 37920, Note_on_c, 3, 63, 49
5, 37928, Note_off_c, 3, 60, 64
5, 38156, Note_off_c, 3, 63, 64
5, 38160, Note_on_c, 3, 68, 69
5, 38244, Note_off_c, 3, 68, 64
5, 38640, Note_on_c, 3, 63, 50
5, 38640, Note_on_c, 3, 58, 50
5, 38640, Note_on_c, 3, 55, 50
5, 39160, Note_off_c, 3, 55, 64
5, 39160, Note_off_c, 3, 58, 64
5, 39160, Note_off_c, 3, 63, 64
5, 39360, Note_on_c, 3, 63, 50
5, 39360, Note_on_c, 3, 60, 50
5, 39360, Note_on_c, 3, 56, 50
5, 40232, Note_off_c, 3, 56, 64
5, 40232, Note_off_c, 3, 60, 64
5, 40232, Note_off_c, 3, 63, 64
5, 40320, Note_on_c, 3, 63, 50
5, 40320, Note_on_c, 3, 58, 50
5, 40320, Note_on_c, 3, 55, 50
5, 40800, Note_off_c, 3, 55, 64
5, 40800, Note_off_c, 3, 58, 64
5, 40800, Note_off_c, 3, 63, 64
5, 42240, Note_on_c, 3, 63, 54
5, 42240, Note_on_c, 3, 60, 54
5, 42240, Note_on_c, 3, 56, 54
5, 42408, Note_off_c, 3, 56, 64
5, 42408, Note_off_c, 3, 60, 64
5, 42408, Note_off_c, 3, 63, 64
5, 42480, Note_on_c, 3, 63, 49
5, 42480, Note_on_c, 3, 60, 49
5, 42480, Note_on_c, 3, 56, 49
5, 42616, Note_off_c, 3, 56, 64
5, 42616, Note_off_c, 3, 60, 64
5, 42616, Note_off_c, 3, 63, 64
5, 42960, Note_on_c, 3, 63, 49
5, 42960, Note_on_c, 3, 60, 49
5, 42960, Note_on_c, 3, 56, 49
5, 43716, Note_off_c, 3, 56, 64
5, 43716, Note_off_c, 3, 60, 64
5, 43716, Note_off_c, 3, 63, 64
5, 44160, Note_on_c, 3, 63, 50
5, 44160, Note_on_c, 3, 60, 50
5, 44160, Note_on_c, 3, 56, 50
5, 45032, Note_off_c, 3, 56, 64
5, 45032, Note_off_c, 3, 60, 64
5, 45032, Note_off_c, 3, 63, 64
5, 45120, Note_on_c, 3, 62, 50
5, 45120, Note_on_c, 3, 58, 50
5, 45120, Note_on_c, 3, 56, 50
5, 45120, Note_on_c, 3, 65, 50
5, 45992, Note_off_c, 3, 65, 64
5, 45992, Note_off_c, 3, 56, 64
5, 45992, Note_off_c, 3, 58, 64
5, 45992, Note_off_c, 3, 62, 64
5, 46080, Note_on_c, 3, 63, 48
5, 46080, Note_on_c, 3, 58, 48
5, 46080, Note_on_c, 3, 55, 48
5, 47368, Note_off_c, 3, 55, 64
5, 47368, Note_off_c, 3, 58, 64
5, 47368, Note_off_c, 3, 63, 64
5, 47520, Note_on_c, 3, 63, 51
5, 47520, Note_on_c, 3, 58, 51
5, 47520, Note_on_c, 3, 55, 51
5, 47872, Note_off_c, 3, 55, 64
5, 47872, Note_off_c, 3, 58, 64
5, 47872, Note_off_c, 3, 63, 64
5, 48240, Note_on_c, 3, 63, 46
5, 48240, Note_on_c, 3, 58, 46
5, 48240, Note_on_c, 3, 55, 46
5, 48420, Note_off_c, 3, 55, 64
5, 48420, Note_off_c, 3, 58, 64
5, 48420, Note_off_c, 3, 63, 64
5, 48960, Note_on_c, 3, 63, 55
5, 48960, Note_on_c, 3, 58, 55
5, 48960, Note_on_c, 3, 55, 55
5, 49728, Note_off_c, 3, 55, 64
5, 49728, Note_off_c, 3, 58, 64
5, 49728, Note_off_c, 3, 63, 64
5, 49920, Note_on_c, 3, 63, 50
5, 49920, Note_on_c, 3, 60, 50
5, 49920, Note_on_c, 3, 55, 50
5, 51756, Note_off_c, 3, 55, 64
5, 51756, Note_off_c, 3, 60, 64
5, 51756, Note_off_c, 3, 63, 64
5, 51840, Note_on_c, 3, 63, 50
5, 51840, Note_on_c, 3, 60, 50
5, 51840, Note_on_c, 3, 56, 50
5, 52712, Note_off_c, 3, 56, 64
5, 52712, Note_off_c, 3, 60, 64
5, 52712, Note_off_c, 3, 63, 64
5, 52800, Note_on_c, 3, 68, 50
5, 52800, Note_on_c, 3, 65, 50
5, 52800, Note_on_c, 3, 62, 50
5, 52800, Note_on_c, 3, 70, 50
5, 53672, Note_off_c, 3, 70, 64
5, 53672, Note_off_c, 3, 62, 64
5, 53672, Note_off_c, 3, 65, 64
5, 53672, Note_off_c, 3, 68, 64
5, 53760, Note_on_c, 3, 63, 50
5, 53760, Note_on_c, 3, 58, 50
5, 53760, Note_on_c, 3, 55, 50
5, 54632, Note_off_c, 3, 55, 64
5, 54632, Note_off_c, 3, 58, 64
5, 54632, Note_off_c, 3, 63, 64
5, 54720, Note_on_c, 3, 66, 50
5, 54720, Note_on_c, 3, 63, 50
5, 54720, Note_on_c, 3, 60, 50
5, 54720, Note_on_c, 3, 68, 50
5, 55592, Note_off_c, 3, 68, 64
5, 55592, Note_off_c, 3, 60, 64
5, 55592, Note_off_c, 3, 63, 64
5, 55592, Note_off_c, 3, 66, 64
5, 55680, Note_on_c, 3, 63, 50
5, 55680, Note_on_c, 3, 58, 50
5, 55680, Note_on_c, 3, 55, 50
5, 56160, Note_off_c, 3, 55, 64
5, 56160, Note_off_c, 3, 58, 64
5, 56160, Note_off_c, 3, 63, 64
5, 57600, Note_on_c, 3, 63, 54
5, 57600, Note_on_c, 3, 58, 54
5, 57600, Note_on_c, 3, 55, 54
5, 57768, Note_off_c, 3, 55, 64
5, 57768, Note_off_c, 3, 58, 64
5, 57768, Note_off_c, 3, 63, 64
5, 57840, Note_on_c, 3, 63, 49
5, 57840, Note_on_c, 3, 58, 49
5, 57840, Note_on_c, 3, 55, 49
5, 57976, Note_off_c, 3, 55, 64
5, 57976, Note_off_c, 3, 58, 64
5, 57976, Note_off_c, 3, 63, 64
5, 58320, Note_on_c, 3, 63, 49
5, 58320, Note_on_c, 3, 58, 49
5, 58320, Note_on_c, 3, 55, 49
5, 59076, Note_off_c, 3, 55, 64
5, 59076, Note_off_c, 3, 58, 64
5, 59076, Note_off_c, 3, 63, 64
5, 59520, Note_on_c, 3, 63, 50
5, 59520, Note_on_c, 3, 60, 50
5, 59520, Note_on_c, 3, 56, 50
5, 61356, Note_off_c, 3, 56, 64
5, 61356, Note_off_c, 3, 60, 64
5, 61356, Note_off_c, 3, 63, 64
5, 61440, Note_on_c, 3, 63, 50
5, 61440, Note_on_c, 3, 58, 50
5, 61440, Note_on_c, 3, 55, 50
5, 62312, Note_off_c, 3, 55, 64
5, 62312, Note_off_c, 3, 58, 64
5, 62312, Note_off_c, 3, 63, 64
5, 62400, Note_on_c, 3, 63, 50
5, 62400, Note_on_c, 3, 60, 50
5, 62400, Note_on_c, 3, 56, 50
5, 63272, Note_off_c, 3, 56, 64
5, 63272, Note_off_c, 3, 60, 64
5, 63272, Note_off_c, 3, 63, 64
5, 63600, Note_on_c, 3, 63, 54
5, 63600, Note_on_c, 3, 58, 54
5, 63600, Note_on_c, 3, 55, 54
5, 63784, Note_off_c, 3, 55, 64
5, 63784, Note_off_c, 3, 58, 64
5, 63784, Note_off_c, 3, 63, 64
5, 64080, Note_on_c, 3, 51, 40
5, 64320, Note_on_c, 3, 63, 52
5, 64320, Note_on_c, 3, 58, 52
5, 64320, Note_on_c, 3, 55, 52
5, 64360, Note_off_c, 3, 51, 64
5, 64600, Note_off_c, 3, 63, 64
5, 64600, Note_off_c, 3, 58, 64
5, 64600, Note_off_c, 3, 55, 64
5, 64800, Note_on_c, 3, 63, 54
5, 64800, Note_on_c, 3, 58, 54
5, 64800, Note_on_c, 3, 55, 54
5, 64952, Note_off_c, 3, 55, 64
5, 64952, Note_off_c, 3, 58, 64
5, 64952, Note_off_c, 3, 63, 64
5, 65280, Note_on_c, 3, 63, 54
5, 65280, Note_on_c, 3, 58, 54
5, 65280, Note_on_c, 3, 55, 54
5, 65448, Note_off_c, 3, 55, 64
5, 65448, Note_off_c, 3, 58, 64
5, 65448, Note_off_c, 3, 63, 64
5, 65520, Note_on_c, 3, 63, 49
5, 65520, Note_on_c, 3, 58, 49
5, 65520, Note_on_c, 3, 55, 49
5, 65656, Note_off_c, 3, 55, 64
5, 65656, Note_off_c, 3, 58, 64
5, 65656, Note_off_c, 3, 63, 64
5, 66000, Note_on_c, 3, 63, 49
5, 66000, Note_on_c, 3, 58, 49
5, 66000, Note_on_c, 3, 55, 49
5, 66756, Note_off_c, 3, 55, 64
5, 66756, Note_off_c, 3, 58, 64
5, 66756, Note_off_c, 3, 63, 64
5, 67200, Note_on_c, 3, 63, 54
5, 67200, Note_on_c, 3, 60, 54
5, 67200, Note_on_c, 3, 55, 54
5, 67368, Note_off_c, 3, 55, 64
5, 67368, Note_off_c, 3, 60, 64
5, 67368, Note_off_c, 3, 63, 64
5, 67440, Note_on_c, 3, 63, 49
5, 67440, Note_on_c, 3, 60, 49
5, 67440, Note_on_c, 3, 55, 49
5, 67576, Note_off_c, 3, 55, 64
5, 67576, Note_off_c, 3, 60, 64
5, 67576, Note_off_c, 3, 63, 64
5, 67920, Note_on_c, 3, 63, 49
5, 67920, Note_on_c, 3, 60, 49
5, 67920, Note_on_c, 3, 55, 49
5, 68676, Note_off_c, 3, 55, 64
5, 68676, Note_off_c, 3, 60, 64
5, 68676, Note_off_c, 3, 63, 64
5, 69120, Note_on_c, 3, 62, 49
5, 69120, Note_on_c, 3, 58, 49
5, 69120, Note_on_c, 3, 55, 49
5, 69840, Note_on_c, 3, 43, 42
5, 69872, Note_off_c, 3, 55, 64
5, 69872, Note_off_c, 3, 58, 64
5, 69872, Note_off_c, 3, 62, 64
5, 70080, Note_on_c, 3, 62, 47
5, 70080, Note_on_c, 3, 58, 47
5, 70080, Note_on_c, 3, 55, 47
5, 70108, Note_off_c, 3, 43, 64
5, 70404, Note_off_c, 3, 62, 64
5, 70404, Note_off_c, 3, 58, 64
5, 70404, Note_off_c, 3, 55, 64
5, 70560, Note_on_c, 3, 62, 62
5, 70560, Note_on_c, 3, 58, 62
5, 70560, Note_on_c, 3, 55, 62
5, 70724, Note_off_c, 3, 55, 64
5, 70724, Note_off_c, 3, 58, 64
5, 70724, Note_off_c, 3, 62, 64
5, 71040, Note_on_c, 3, 68, 54
5, 71040, Note_on_c, 3, 65, 54
5, 71040, Note_on_c, 3, 62, 54
5, 71040, Note_on_c, 3, 70, 54
5, 71208, Note_off_c, 3, 70, 64
5, 71208, Note_off_c, 3, 62, 64
5, 71208, Note_off_c, 3, 65, 64
5, 71208, Note_off_c, 3, 68, 64
5, 71280, Note_on_c, 3, 68, 49
5, 71280, Note_on_c, 3, 65, 49
5, 71280, Note_on_c, 3, 62, 49
5, 71280, Note_on_c, 3, 70, 49
5, 71416, Note_off_c, 3, 70, 64
5, 71416, Note_off_c, 3, 62, 64
5, 71416, Note_off_c, 3, 65, 64
5, 71416, Note_off_c, 3, 68, 64
5, 71760, Note_on_c, 3, 68, 49
5, 71760, Note_on_c, 3, 65, 49
5, 71760, Note_on_c, 3, 62, 49
5, 71760, Note_on_c, 3, 70, 49
5, 72516, Note_off_c, 3, 70, 64
5, 72516, Note_off_c, 3, 62, 64
5, 72516, Note_off_c, 3, 65, 64
5, 72516, Note_off_c, 3, 68, 64
5, 72960, Note_on_c, 3, 67, 62
5, 72960, Note_on_c, 3, 63, 62
5, 72960, Note_on_c, 3, 61, 62
5, 72960, Note_on_c, 3, 70, 62
5, 73920, Note_on_c, 3, 63, 56
5, 74160, Note_on_c, 3, 67, 43
5, 74400, Note_on_c, 3, 70, 45
5, 74432, Note_off_c, 3, 63, 64
5, 74476, Note_off_c, 3, 67, 64
5, 74640, Note_on_c, 3, 73, 34
5, 74656, Note_off_c, 3, 61, 64
5, 74656, Note_off_c, 3, 70, 64
5, 74656, Note_off_c, 3, 63, 64
5, 74656, Note_off_c, 3, 67, 64
5, 74668, Note_off_c, 3, 70, 64
5, 74880, Note_off_c, 3, 73, 64
5, 74880, Note_on_c, 3, 67, 47
5, 74880, Note_on_c, 3, 63, 47
5, 74880, Note_on_c, 3, 61, 47
5, 74880, Note_on_c, 3, 70, 47
5, 75016, Note_off_c, 3, 70, 64
5, 75016, Note_off_c, 3, 61, 64
5, 75016, Note_off_c, 3, 63, 64
5, 75016, Note_off_c, 3, 67, 64
5, 75120, Note_on_c, 3, 67, 53
5, 75120, Note_on_c, 3, 63, 53
5, 75120, Note_on_c, 3, 61, 53
5, 75120, Note_on_c, 3, 70, 53
5, 75276, Note_off_c, 3, 70, 64
5, 75276, Note_off_c, 3, 61, 64
5, 75276, Note_off_c, 3, 63, 64
5, 75276, Note_off_c, 3, 67, 64
5, 75600, Note_on_c, 3, 67, 64
5, 75600, Note_on_c, 3, 63, 64
5, 75600, Note_on_c, 3, 61, 64
5, 75600, Note_on_c, 3, 70, 64
5, 76572, Note_off_c, 3, 70, 64
5, 76572, Note_off_c, 3, 61, 64
5, 76572, Note_off_c, 3, 63, 64
5, 76572, Note_off_c, 3, 67, 64
5, 76800, Note_on_c, 3, 63, 49
5, 76800, Note_on_c, 3, 60, 49
5, 76800, Note_on_c, 3, 56, 49
5, 77520, Note_on_c, 3, 44, 42
5, 77552, Note_off_c, 3, 56, 64
5, 77552, Note_off_c, 3, 60, 64
5, 77552, Note_off_c, 3, 63, 64
5, 77760, Note_on_c, 3, 63, 47
5, 77760, Note_on_c, 3, 60, 47
5, 77760, Note_on_c, 3, 56, 47
5, 77788, Note_off_c, 3, 44, 64
5, 78084, Note_off_c, 3, 63, 64
5, 78084, Note_off_c, 3, 60, 64
5, 78084, Note_off_c, 3, 56, 64
5, 78240, Note_on_c, 3, 63, 62
5, 78240, Note_on_c, 3, 60, 62
5, 78240, Note_on_c, 3, 56, 62
5, 78404, Note_off_c, 3, 56, 64
5, 78404, Note_off_c, 3, 60, 64
5, 78404, Note_off_c, 3, 63, 64
5, 78720, Note_on_c, 3, 63, 49
5, 78720, Note_on_c, 3, 59, 49
5, 78720, Note_on_c, 3, 56, 49
5, 79440, Note_on_c, 3, 44, 42
5, 79472, Note_off_c, 3, 56, 64
5, 79472, Note_off_c, 3, 59, 64
5, 79472, Note_off_c, 3, 63, 64
5, 79680, Note_on_c, 3, 63, 47
5, 79680, Note_on_c, 3, 59, 47
5, 79680, Note_on_c, 3, 56, 47
5, 79708, Note_off_c, 3, 44, 64
5, 80004, Note_off_c, 3, 63, 64
5, 80004, Note_off_c, 3, 59, 64
5, 80004, Note_off_c, 3, 56, 64
5, 80160, Note_on_c, 3, 63, 62
5, 80160, Note_on_c, 3, 59, 62
5, 80160, Note_on_c, 3, 56, 62
5, 80324, Note_off_c, 3, 56, 64
5, 80324, Note_off_c, 3, 59, 64
5, 80324, Note_off_c, 3, 63, 64
5, 80640, Note_on_c, 3, 67, 54
5, 80640, Note_on_c, 3, 63, 54
5, 80640, Note_on_c, 3, 58, 54
5, 80808, Note_off_c, 3, 58, 64
5, 80808, Note_off_c, 3, 63, 64
5, 80808, Note_off_c, 3, 67, 64
5, 80880, Note_on_c, 3, 67, 49
5, 80880, Note_on_c, 3, 63, 49
5, 80880, Note_on_c, 3, 58, 49
5, 81016, Note_off_c, 3, 58, 64
5, 81016, Note_off_c, 3, 63, 64
5, 81016, Note_off_c, 3, 67, 64
5, 81360, Note_on_c, 3, 67, 49
5, 81360, Note_on_c, 3, 63, 49
5, 81360, Note_on_c, 3, 58, 49
5, 82116, Note_off_c, 3, 58, 64
5, 82116, Note_off_c, 3, 63, 64
5, 82116, Note_off_c, 3, 67, 64
5, 82560, Note_on_c, 3, 63, 49
5, 82560, Note_on_c, 3, 60, 49
5, 82560, Note_on_c, 3, 56, 49
5, 83280, Note_on_c, 3, 44, 42
5, 83312, Note_off_c, 3, 56, 64
5, 83312, Note_off_c, 3, 60, 64
5, 83312, Note_off_c, 3, 63, 64
5, 83520, Note_on_c, 3, 63, 47
5, 83520, Note_on_c, 3, 60, 47
5, 83520, Note_on_c, 3, 56, 47
5, 83548, Note_off_c, 3, 44, 64
5, 83844, Note_off_c, 3, 63, 64
5, 83844, Note_off_c, 3, 60, 64
5, 83844, Note_off_c, 3, 56, 64
5, 84000, Note_on_c, 3, 63, 62
5, 84000, Note_on_c, 3, 60, 62
5, 84000, Note_on_c, 3, 56, 62
5, 84164, Note_off_c, 3, 56, 64
5, 84164, Note_off_c, 3, 60, 64
5, 84164, Note_off_c, 3, 63, 64
5, 84480, Note_on_c, 3, 63, 50
5, 84480, Note_on_c, 3, 58, 50
5, 84480, Note_on_c, 3, 55, 50
5, 85352, Note_off_c, 3, 55, 64
5, 85352, Note_off_c, 3, 58, 64
5, 85352, Note_off_c, 3, 63, 64
5, 85440, Note_on_c, 3, 63, 50
5, 85440, Note_on_c, 3, 60, 50
5, 85440, Note_on_c, 3, 56, 50
5, 86312, Note_off_c, 3, 56, 64
5, 86312, Note_off_c, 3, 60, 64
5, 86312, Note_off_c, 3, 63, 64
5, 86400, Note_on_c, 3, 63, 50
5, 86400, Note_on_c, 3, 58, 50
5, 86400, Note_on_c, 3, 55, 50
5, 86880, Note_off_c, 3, 55, 64
5, 86880, Note_off_c, 3, 58, 64
5, 86880, Note_off_c, 3, 63, 64
5, 88320, Note_on_c, 3, 63, 54
5, 88320, Note_on_c, 3, 60, 54
5, 88320, Note_on_c, 3, 56, 54
5, 88488, Note_off_c, 3, 56, 64
5, 88488, Note_off_c, 3, 60, 64
5, 88488, Note_off_c, 3, 63, 64
5, 88560, Note_on_c, 3, 63, 49
5, 88560, Note_on_c, 3, 60, 49
5, 88560, Note_on_c, 3, 56, 49
5, 88696, Note_off_c, 3, 56, 64
5, 88696, Note_off_c, 3, 60, 64
5, 88696, Note_off_c, 3, 63, 64
5, 89040, Note_on_c, 3, 63, 49
5, 89040, Note_on_c, 3, 60, 49
5, 89040, Note_on_c, 3, 56, 49
5, 89796, Note_off_c, 3, 56, 64
5, 89796, Note_off_c, 3, 60, 64
5, 89796, Note_off_c, 3, 63, 64
5, 90240, Note_on_c, 3, 63, 50
5, 90240, Note_on_c, 3, 60, 50
5, 90240, Note_on_c, 3, 56, 50
5, 91112, Note_off_c, 3, 56, 64
5, 91112, Note_off_c, 3, 60, 64
5, 91112, Note_off_c, 3, 63, 64
5, 91200, Note_on_c, 3, 62, 50
5, 91200, Note_on_c, 3, 58, 50
5, 91200, Note_on_c, 3, 56, 50
5, 91200, Note_on_c, 3, 65, 50
5, 92072, Note_off_c, 3, 65, 64
5, 92072, Note_off_c, 3, 56, 64
5, 92072, Note_off_c, 3, 58, 64
5, 92072, Note_off_c, 3, 62, 64
5, 92160, Note_on_c, 3, 63, 49
5, 92160, Note_on_c, 3, 58, 49
5, 92160, Note_on_c, 3, 55, 49
5, 93172, Note_off_c, 3, 55, 64
5, 93172, Note_off_c, 3, 58, 64
5, 93172, Note_off_c, 3, 63, 64
5, 93360, Note_on_c, 3, 63, 51
5, 93360, Note_on_c, 3, 58, 51
5, 93360, Note_on_c, 3, 55, 51
5, 93896, Note_off_c, 3, 55, 64
5, 93896, Note_off_c, 3, 58, 64
5, 93896, Note_off_c, 3, 63, 64
5, 94080, Note_on_c, 3, 63, 56
5, 94080, Note_on_c, 3, 58, 56
5, 94080, Note_on_c, 3, 55, 56
5, 95336, Note_off_c, 3, 55, 64
5, 95336, Note_off_c, 3, 58, 64
5, 95336, Note_off_c, 3, 63, 64
5, 95520, Note_on_c, 3, 63, 45
5, 95520, Note_on_c, 3, 58, 45
5, 95520, Note_on_c, 3, 55, 45
5, 95700, Note_off_c, 3, 55, 64
5, 95700, Note_off_c, 3, 58, 64
5, 95700, Note_off_c, 3, 63, 64
5, 96000, Note_on_c, 3, 63, 54
5, 96000, Note_on_c, 3, 60, 54
5, 96000, Note_on_c, 3, 55, 54
5, 96168, Note_off_c, 3, 55, 64
5, 96168, Note_off_c, 3, 60, 64
5, 96168, Note_off_c, 3, 63, 64
5, 96240, Note_on_c, 3, 63, 49
5, 96240, Note_on_c, 3, 60, 49
5, 96240, Note_on_c, 3, 55, 49
5, 96376, Note_off_c, 3, 55, 64
5, 96376, Note_off_c, 3, 60, 64
5, 96376, Note_off_c, 3, 63, 64
5, 96720, Note_on_c, 3, 63, 49
5, 96720, Note_on_c, 3, 60, 49
5, 96720, Note_on_c, 3, 55, 49
5, 97476, Note_off_c, 3, 55, 64
5, 97476, Note_off_c, 3, 60, 64
5, 97476, Note_off_c, 3, 63, 64
5, 97920, Note_on_c, 3, 63, 50
5, 97920, Note_on_c, 3, 60, 50
5, 97920, Note_on_c, 3, 56, 50
5, 98792, Note_off_c, 3, 56, 64
5, 98792, Note_off_c, 3, 60, 64
5, 98792, Note_off_c, 3, 63, 64
5, 98880, Note_on_c, 3, 68, 50
5, 98880, Note_on_c, 3, 65, 50
5, 98880, Note_on_c, 3, 62, 50
5, 98880, Note_on_c, 3, 70, 50
5, 99752, Note_off_c, 3, 70, 64
5, 99752, Note_off_c, 3, 62, 64
5, 99752, Note_off_c, 3, 65, 64
5, 99752, Note_off_c, 3, 68, 64
5, 99840, Note_on_c, 3, 63, 50
5, 99840, Note_on_c, 3, 58, 50
5, 99840, Note_on_c, 3, 55, 50
5, 100712, Note_off_c, 3, 55, 64
5, 100712, Note_off_c, 3, 58, 64
5, 100712, Note_off_c, 3, 63, 64
5, 101040, Note_on_c, 3, 66, 50
5, 101040, Note_on_c, 3, 63, 50
5, 101040, Note_on_c, 3, 60, 50
5, 101040, Note_on_c, 3, 68, 50
5, 101560, Note_off_c, 3, 68, 64
5, 101560, Note_off_c, 3, 60, 64
5, 101560, Note_off_c, 3, 63, 64
5, 101560, Note_off_c, 3, 66, 64
5, 102000, Note_on_c, 3, 67, 50
5, 102000, Note_on_c, 3, 63, 50
5, 102000, Note_on_c, 3, 58, 50
5, 102520, Note_off_c, 3, 58, 64
5, 102520, Note_off_c, 3, 63, 64
5, 102520, Note_off_c, 3, 67, 64
5, 102720, Note_on_c, 3, 63, 50
5, 102720, Note_on_c, 3, 58, 50
5, 102720, Note_on_c, 3, 55, 50
5, 103200, Note_off_c, 3, 55, 64
5, 103200, Note_off_c, 3, 58, 64
5, 103200, Note_off_c, 3, 63, 64
5, 103680, Control_c, 3, 64, 0
5, 103680, End_track
6, 0, Start_track
6, 0, Title_t, "Guitar  "
6, 0, MIDI_port, 0
6, 0, Channel_prefix, 4
6, 0, Control_c, 4, 7, 99
6, 0, Control_c, 4, 10, 16
6, 0, Program_c, 4, 28
6, 0, Control_c, 4, 121, 0
6, 40, Control_c, 4, 123, 0
6, 120, Control_c, 4, 91, 65
6, 160, Control_c, 4, 64, 0
6, 4080, Note_on_c, 4, 51, 70
6, 4320, Control_c, 4, 64, 127
6, 4320, Note_on_c, 4, 55, 45
6, 4560, Note_on_c, 4, 58, 43
6, 4604, Note_off_c, 4, 55, 64
6, 4604, Note_off_c, 4, 51, 64
6, 4820, Note_off_c, 4, 58, 64
6, 5040, Note_on_c, 4, 51, 64
6, 5280, Note_on_c, 4, 55, 47
6, 5404, Note_off_c, 4, 51, 64
6, 5488, Note_off_c, 4, 55, 64
6, 5520, Note_on_c, 4, 58, 55
6, 5640, Note_off_c, 4, 58, 64
6, 5760, Control_c, 4, 64, 0
6, 6240, Note_on_c, 4, 63, 44
6, 6480, Note_on_c, 4, 60, 66
6, 7680, Note_off_c, 4, 60, 64
6, 7680, Note_off_c, 4, 63, 64
6, 8160, Note_on_c, 4, 58, 66
6, 8400, Note_on_c, 4, 51, 38
6, 8640, Note_off_c, 4, 51, 64
6, 8640, Note_off_c, 4, 58, 64
6, 9120, Note_on_c, 4, 63, 44
6, 9360, Note_on_c, 4, 60, 66
6, 9600, Note_off_c, 4, 60, 64
6, 9600, Note_off_c, 4, 63, 64
6, 11760, Note_on_c, 4, 51, 64
6, 12000, Control_c, 4, 64, 127
6, 12000, Note_on_c, 4, 55, 73
6, 12212, Note_off_c, 4, 55, 64
6, 12240, Note_on_c, 4, 58, 48
6, 12288, Note_off_c, 4, 51, 64
6, 12440, Note_off_c, 4, 58, 64
6, 12720, Note_on_c, 4, 51, 44
6, 12960, Note_on_c, 4, 55, 54
6, 13132, Note_off_c, 4, 55, 64
6, 13200, Note_on_c, 4, 58, 52
6, 13440, Note_off_c, 4, 51, 64
6, 13440, Note_off_c, 4, 58, 64
6, 13440, Control_c, 4, 64, 0
6, 13920, Note_on_c, 4, 56, 55
6, 14160, Note_on_c, 4, 63, 55
6, 15360, Note_off_c, 4, 63, 64
6, 15360, Note_off_c, 4, 56, 64
6, 15840, Note_on_c, 4, 58, 66
6, 16080, Note_on_c, 4, 51, 38
6, 16320, Note_off_c, 4, 51, 64
6, 16320, Note_off_c, 4, 58, 64
6, 16800, Note_on_c, 4, 63, 58
6, 16800, Note_on_c, 4, 56, 70
6, 16880, Note_off_c, 4, 63, 64
6, 16912, Note_off_c, 4, 56, 64
6, 17520, Note_on_c, 4, 51, 64
6, 17760, Control_c, 4, 64, 127
6, 17760, Note_on_c, 4, 55, 73
6, 17972, Note_off_c, 4, 55, 64
6, 18000, Note_on_c, 4, 58, 48
6, 18048, Note_off_c, 4, 51, 64
6, 18200, Note_off_c, 4, 58, 64
6, 18480, Note_on_c, 4, 51, 44
6, 18720, Note_on_c, 4, 55, 54
6, 18892, Note_off_c, 4, 55, 64
6, 18960, Note_on_c, 4, 58, 52
6, 19200, Note_off_c, 4, 51, 64
6, 19200, Note_off_c, 4, 58, 64
6, 19200, Control_c, 4, 64, 0
6, 19680, Note_on_c, 4, 58, 44
6, 19920, Note_on_c, 4, 55, 66
6, 21120, Note_off_c, 4, 55, 64
6, 21120, Note_off_c, 4, 58, 64
6, 21600, Note_on_c, 4, 60, 58
6, 21600, Note_on_c, 4, 51, 70
6, 21680, Note_off_c, 4, 60, 64
6, 21712, Note_off_c, 4, 51, 64
6, 22320, Note_on_c, 4, 60, 54
6, 22320, Note_on_c, 4, 51, 51
6, 23040, Note_off_c, 4, 51, 64
6, 23040, Note_off_c, 4, 60, 64
6, 23280, Note_on_c, 4, 55, 70
6, 23520, Control_c, 4, 64, 127
6, 23520, Note_on_c, 4, 58, 45
6, 23760, Note_on_c, 4, 62, 43
6, 23804, Note_off_c, 4, 58, 64
6, 23804, Note_off_c, 4, 55, 64
6, 24020, Note_off_c, 4, 62, 64
6, 24240, Note_on_c, 4, 55, 64
6, 24480, Note_on_c, 4, 58, 47
6, 24604, Note_off_c, 4, 55, 64
6, 24688, Note_off_c, 4, 58, 64
6, 24720, Note_on_c, 4, 62, 55
6, 24840, Note_off_c, 4, 62, 64
6, 24960, Control_c, 4, 64, 0
6, 25200, Note_on_c, 4, 50, 64
6, 25440, Control_c, 4, 64, 127
6, 25440, Note_on_c, 4, 53, 73
6, 25652, Note_off_c, 4, 53, 64
6, 25680, Note_on_c, 4, 56, 48
6, 25728, Note_off_c, 4, 50, 64
6, 25880, Note_off_c, 4, 56, 64
6, 26160, Note_on_c, 4, 50, 44
6, 26400, Note_on_c, 4, 53, 54
6, 26572, Note_off_c, 4, 53, 64
6, 26640, Note_on_c, 4, 56, 52
6, 26880, Note_off_c, 4, 50, 64
6, 26880, Note_off_c, 4, 56, 64
6, 26880, Control_c, 4, 64, 0
6, 27360, Note_on_c, 4, 55, 58
6, 27360, Note_on_c, 4, 49, 70
6, 27440, Note_off_c, 4, 55, 64
6, 27472, Note_off_c, 4, 49, 64
6, 28080, Note_on_c, 4, 55, 54
6, 28080, Note_on_c, 4, 49, 51
6, 29068, Note_off_c, 4, 55, 64
6, 29080, Note_off_c, 4, 49, 64
6, 29280, Note_on_c, 4, 55, 48
6, 29280, Note_on_c, 4, 49, 54
6, 29372, Note_off_c, 4, 55, 64
6, 29380, Note_off_c, 4, 49, 64
6, 30000, Note_on_c, 4, 55, 51
6, 30000, Note_on_c, 4, 49, 60
6, 30680, Note_off_c, 4, 49, 64
6, 30680, Note_off_c, 4, 55, 64
6, 30960, Note_on_c, 4, 56, 70
6, 31200, Control_c, 4, 64, 127
6, 31200, Note_on_c, 4, 60, 45
6, 31440, Note_on_c, 4, 63, 43
6, 31484, Note_off_c, 4, 60, 64
6, 31484, Note_off_c, 4, 56, 64
6, 31700, Note_off_c, 4, 63, 64
6, 31920, Note_on_c, 4, 56, 64
6, 32160, Note_on_c, 4, 60, 47
6, 32284, Note_off_c, 4, 56, 64
6, 32368, Note_off_c, 4, 60, 64
6, 32400, Note_on_c, 4, 63, 55
6, 32520, Note_off_c, 4, 63, 64
6, 32640, Control_c, 4, 64, 0
6, 33120, Note_on_c, 4, 63, 58
6, 33120, Note_on_c, 4, 56, 70
6, 33200, Note_off_c, 4, 63, 64
6, 33232, Note_off_c, 4, 56, 64
6, 33840, Note_on_c, 4, 63, 54
6, 33840, Note_on_c, 4, 56, 51
6, 34560, Note_off_c, 4, 56, 64
6, 34560, Note_off_c, 4, 63, 64
6, 34800, Note_on_c, 4, 51, 70
6, 35040, Control_c, 4, 64, 127
6, 35040, Note_on_c, 4, 55, 45
6, 35280, Note_on_c, 4, 58, 43
6, 35324, Note_off_c, 4, 55, 64
6, 35324, Note_off_c, 4, 51, 64
6, 35540, Note_off_c, 4, 58, 64
6, 35760, Note_on_c, 4, 51, 64
6, 36000, Note_on_c, 4, 55, 47
6, 36124, Note_off_c, 4, 51, 64
6, 36208, Note_off_c, 4, 55, 64
6, 36240, Note_on_c, 4, 58, 55
6, 36360, Note_off_c, 4, 58, 64
6, 36480, Control_c, 4, 64, 0
6, 36960, Note_on_c, 4, 56, 55
6, 37200, Note_on_c, 4, 63, 55
6, 38400, Note_off_c, 4, 63, 64
6, 38400, Note_off_c, 4, 56, 64
6, 38880, Note_on_c, 4, 58, 66
6, 39120, Note_on_c, 4, 51, 38
6, 39360, Note_off_c, 4, 51, 64
6, 39360, Note_off_c, 4, 58, 64
6, 39600, Note_on_c, 4, 60, 59
6, 39600, Note_on_c, 4, 63, 51
6, 40268, Note_off_c, 4, 60, 64
6, 40280, Note_off_c, 4, 63, 64
6, 42720, Note_on_c, 4, 63, 58
6, 42720, Note_on_c, 4, 56, 70
6, 42800, Note_off_c, 4, 63, 64
6, 42832, Note_off_c, 4, 56, 64
6, 43440, Note_on_c, 4, 63, 54
6, 43440, Note_on_c, 4, 56, 51
6, 44160, Note_off_c, 4, 56, 64
6, 44160, Note_off_c, 4, 63, 64
6, 44640, Note_on_c, 4, 63, 58
6, 44640, Note_on_c, 4, 56, 70
6, 44720, Note_off_c, 4, 63, 64
6, 44752, Note_off_c, 4, 56, 64
6, 45360, Note_on_c, 4, 53, 59
6, 45360, Note_on_c, 4, 56, 51
6, 46028, Note_off_c, 4, 53, 64
6, 46040, Note_off_c, 4, 56, 64
6, 46560, Note_on_c, 4, 51, 55
6, 46800, Note_on_c, 4, 58, 55
6, 48760, Note_off_c, 4, 58, 64
6, 48792, Note_off_c, 4, 51, 64
6, 50160, Note_on_c, 4, 51, 70
6, 50400, Control_c, 4, 64, 127
6, 50400, Note_on_c, 4, 55, 45
6, 50640, Note_on_c, 4, 60, 43
6, 50684, Note_off_c, 4, 55, 64
6, 50684, Note_off_c, 4, 51, 64
6, 50900, Note_off_c, 4, 60, 64
6, 51120, Note_on_c, 4, 51, 64
6, 51360, Note_on_c, 4, 55, 47
6, 51484, Note_off_c, 4, 51, 64
6, 51568, Note_off_c, 4, 55, 64
6, 51600, Note_on_c, 4, 60, 55
6, 51720, Note_off_c, 4, 60, 64
6, 51840, Control_c, 4, 64, 0
6, 52080, Note_on_c, 4, 56, 70
6, 52320, Control_c, 4, 64, 127
6, 52320, Note_on_c, 4, 60, 45
6, 52560, Note_on_c, 4, 63, 43
6, 52604, Note_off_c, 4, 60, 64
6, 52604, Note_off_c, 4, 56, 64
6, 52800, Note_off_c, 4, 63, 64
6, 52800, Control_c, 4, 64, 0
6, 53280, Note_on_c, 4, 56, 44
6, 53520, Note_on_c, 4, 53, 66
6, 53760, Note_off_c, 4, 53, 64
6, 53760, Note_off_c, 4, 56, 64
6, 54240, Note_on_c, 4, 58, 44
6, 54480, Note_on_c, 4, 55, 66
6, 54720, Note_off_c, 4, 55, 64
6, 54720, Note_off_c, 4, 58, 64
6, 55200, Note_on_c, 4, 60, 66
6, 55440, Note_on_c, 4, 54, 38
6, 55680, Note_off_c, 4, 54, 64
6, 55680, Note_off_c, 4, 60, 64
6, 57840, Note_on_c, 4, 51, 64
6, 58080, Control_c, 4, 64, 127
6, 58080, Note_on_c, 4, 55, 73
6, 58292, Note_off_c, 4, 55, 64
6, 58320, Note_on_c, 4, 58, 48
6, 58368, Note_off_c, 4, 51, 64
6, 58520, Note_off_c, 4, 58, 64
6, 58800, Note_on_c, 4, 51, 44
6, 59040, Note_on_c, 4, 55, 54
6, 59212, Note_off_c, 4, 55, 64
6, 59280, Note_on_c, 4, 58, 52
6, 59520, Note_off_c, 4, 51, 64
6, 59520, Note_off_c, 4, 58, 64
6, 59520, Control_c, 4, 64, 0
6, 60000, Note_on_c, 4, 63, 44
6, 60240, Note_on_c, 4, 60, 66
6, 61440, Note_off_c, 4, 60, 64
6, 61440, Note_off_c, 4, 63, 64
6, 61680, Note_on_c, 4, 51, 70
6, 61920, Control_c, 4, 64, 127
6, 61920, Note_on_c, 4, 55, 45
6, 62160, Note_on_c, 4, 58, 43
6, 62204, Note_off_c, 4, 55, 64
6, 62204, Note_off_c, 4, 51, 64
6, 62400, Note_off_c, 4, 58, 64
6, 62400, Control_c, 4, 64, 0
6, 62880, Note_on_c, 4, 63, 58
6, 62880, Note_on_c, 4, 56, 70
6, 62960, Note_off_c, 4, 63, 64
6, 62992, Note_off_c, 4, 56, 64
6, 63600, Note_on_c, 4, 51, 70
6, 63840, Control_c, 4, 64, 127
6, 63840, Note_on_c, 4, 55, 45
6, 64080, Note_on_c, 4, 58, 43
6, 64124, Note_off_c, 4, 55, 64
6, 64124, Note_off_c, 4, 51, 64
6, 64340, Note_off_c, 4, 58, 64
6, 64560, Note_on_c, 4, 51, 64
6, 64800, Note_on_c, 4, 55, 47
6, 64924, Note_off_c, 4, 51, 64
6, 65008, Note_off_c, 4, 55, 64
6, 65040, Note_on_c, 4, 58, 55
6, 65160, Note_off_c, 4, 58, 64
6, 65280, Control_c, 4, 64, 0
6, 65520, Note_on_c, 4, 51, 70
6, 65760, Control_c, 4, 64, 127
6, 65760, Note_on_c, 4, 55, 45
6, 66000, Note_on_c, 4, 58, 43
6, 66044, Note_off_c, 4, 55, 64
6, 66044, Note_off_c, 4, 51, 64
6, 66260, Note_off_c, 4, 58, 64
6, 66480, Note_on_c, 4, 51, 64
6, 66720, Note_on_c, 4, 55, 47
6, 66844, Note_off_c, 4, 51, 64
6, 66928, Note_off_c, 4, 55, 64
6, 66960, Note_on_c, 4, 58, 55
6, 67080, Note_off_c, 4, 58, 64
6, 67200, Control_c, 4, 64, 0
6, 67440, Note_on_c, 4, 51, 70
6, 67680, Control_c, 4, 64, 127
6, 67680, Note_on_c, 4, 55, 45
6, 67920, Note_on_c, 4, 60, 43
6, 67964, Note_off_c, 4, 55, 64
6, 67964, Note_off_c, 4, 51, 64
6, 68180, Note_off_c, 4, 60, 64
6, 68400, Note_on_c, 4, 51, 64
6, 68640, Note_on_c, 4, 55, 47
6, 68764, Note_off_c, 4, 51, 64
6, 68848, Note_off_c, 4, 55, 64
6, 68880, Note_on_c, 4, 60, 55
6, 69000, Note_off_c, 4, 60, 64
6, 69120, Control_c, 4, 64, 0
6, 69600, Note_on_c, 4, 62, 58
6, 69600, Note_on_c, 4, 55, 70
6, 69680, Note_off_c, 4, 62, 64
6, 69712, Note_off_c, 4, 55, 64
6, 70320, Note_on_c, 4, 62, 54
6, 70320, Note_on_c, 4, 55, 51
6, 71040, Note_off_c, 4, 55, 64
6, 71040, Note_off_c, 4, 62, 64
6, 71520, Note_on_c, 4, 56, 58
6, 71520, Note_on_c, 4, 50, 70
6, 71600, Note_off_c, 4, 56, 64
6, 71632, Note_off_c, 4, 50, 64
6, 72240, Note_on_c, 4, 56, 54
6, 72240, Note_on_c, 4, 50, 51
6, 72960, Note_off_c, 4, 50, 64
6, 72960, Note_off_c, 4, 56, 64
6, 73200, Note_on_c, 4, 49, 64
6, 73440, Control_c, 4, 64, 127
6, 73440, Note_on_c, 4, 51, 73
6, 73652, Note_off_c, 4, 51, 64
6, 73680, Note_on_c, 4, 55, 48
6, 73728, Note_off_c, 4, 49, 64
6, 73880, Note_off_c, 4, 55, 64
6, 74160, Note_on_c, 4, 49, 44
6, 74400, Note_on_c, 4, 51, 54
6, 74572, Note_off_c, 4, 51, 64
6, 74640, Note_on_c, 4, 55, 52
6, 75100, Note_off_c, 4, 55, 64
6, 75232, Note_off_c, 4, 49, 64
6, 75360, Note_on_c, 4, 55, 48
6, 75528, Note_off_c, 4, 55, 64
6, 75600, Note_on_c, 4, 49, 41
6, 75840, Note_on_c, 4, 51, 64
6, 76028, Note_off_c, 4, 51, 64
6, 76080, Note_on_c, 4, 55, 62
6, 76240, Note_off_c, 4, 49, 64
6, 76368, Note_off_c, 4, 55, 64
6, 76800, Control_c, 4, 64, 0
6, 77040, Note_on_c, 4, 56, 70
6, 77280, Control_c, 4, 64, 127
6, 77280, Note_on_c, 4, 60, 45
6, 77520, Note_on_c, 4, 63, 43
6, 77564, Note_off_c, 4, 60, 64
6, 77564, Note_off_c, 4, 56, 64
6, 77780, Note_off_c, 4, 63, 64
6, 78000, Note_on_c, 4, 56, 64
6, 78240, Note_on_c, 4, 60, 47
6, 78364, Note_off_c, 4, 56, 64
6, 78448, Note_off_c, 4, 60, 64
6, 78480, Note_on_c, 4, 63, 55
6, 78600, Note_off_c, 4, 63, 64
6, 78720, Control_c, 4, 64, 0
6, 79200, Note_on_c, 4, 63, 66
6, 79440, Note_on_c, 4, 56, 38
6, 79680, Note_on_c, 4, 59, 45
6, 79792, Note_off_c, 4, 63, 64
6, 79920, Note_on_c, 4, 63, 62
6, 80640, Note_off_c, 4, 56, 64
6, 80640, Note_off_c, 4, 59, 64
6, 80640, Note_off_c, 4, 63, 64
6, 80880, Note_on_c, 4, 51, 64
6, 81120, Control_c, 4, 64, 127
6, 81120, Note_on_c, 4, 55, 73
6, 81332, Note_off_c, 4, 55, 64
6, 81360, Note_on_c, 4, 58, 48
6, 81408, Note_off_c, 4, 51, 64
6, 81560, Note_off_c, 4, 58, 64
6, 81840, Note_on_c, 4, 51, 44
6, 82080, Note_on_c, 4, 55, 54
6, 82252, Note_off_c, 4, 55, 64
6, 82320, Note_on_c, 4, 58, 52
6, 82560, Note_off_c, 4, 51, 64
6, 82560, Note_off_c, 4, 58, 64
6, 82560, Control_c, 4, 64, 0
6, 83040, Note_on_c, 4, 56, 55
6, 83280, Note_on_c, 4, 63, 55
6, 84480, Note_off_c, 4, 63, 64
6, 84480, Note_off_c, 4, 56, 64
6, 84720, Note_on_c, 4, 51, 70
6, 84960, Control_c, 4, 64, 127
6, 84960, Note_on_c, 4, 55, 45
6, 85200, Note_on_c, 4, 58, 43
6, 85244, Note_off_c, 4, 55, 64
6, 85244, Note_off_c, 4, 51, 64
6, 85440, Note_off_c, 4, 58, 64
6, 85440, Control_c, 4, 64, 0
6, 85920, Note_on_c, 4, 63, 66
6, 86160, Note_on_c, 4, 56, 38
6, 86400, Note_off_c, 4, 56, 64
6, 86400, Note_off_c, 4, 63, 64
6, 88800, Note_on_c, 4, 63, 44
6, 89040, Note_on_c, 4, 60, 66
6, 90240, Note_off_c, 4, 60, 64
6, 90240, Note_off_c, 4, 63, 64
6, 90720, Note_on_c, 4, 63, 66
6, 90960, Note_on_c, 4, 56, 38
6, 91200, Note_off_c, 4, 56, 64
6, 91200, Note_off_c, 4, 63, 64
6, 91440, Note_on_c, 4, 50, 70
6, 91680, Control_c, 4, 64, 127
6, 91680, Note_on_c, 4, 53, 45
6, 91920, Note_on_c, 4, 56, 43
6, 91964, Note_off_c, 4, 53, 64
6, 91964, Note_off_c, 4, 50, 64
6, 92160, Note_off_c, 4, 56, 64
6, 92160, Control_c, 4, 64, 0
6, 92640, Note_on_c, 4, 58, 58
6, 92640, Note_on_c, 4, 51, 70
6, 92720, Note_off_c, 4, 58, 64
6, 92752, Note_off_c, 4, 51, 64
6, 93360, Note_on_c, 4, 58, 54
6, 93360, Note_on_c, 4, 51, 51
6, 94348, Note_off_c, 4, 58, 64
6, 94360, Note_off_c, 4, 51, 64
6, 94560, Note_on_c, 4, 58, 48
6, 94560, Note_on_c, 4, 51, 54
6, 94652, Note_off_c, 4, 58, 64
6, 94660, Note_off_c, 4, 51, 64
6, 95280, Note_on_c, 4, 58, 51
6, 95280, Note_on_c, 4, 51, 60
6, 95960, Note_off_c, 4, 51, 64
6, 95960, Note_off_c, 4, 58, 64
6, 96480, Note_on_c, 4, 51, 55
6, 96720, Note_on_c, 4, 60, 55
6, 97920, Note_off_c, 4, 60, 64
6, 97920, Note_off_c, 4, 51, 64
6, 98400, Note_on_c, 4, 63, 66
6, 98640, Note_on_c, 4, 56, 38
6, 98880, Note_off_c, 4, 56, 64
6, 98880, Note_off_c, 4, 63, 64
6, 99360, Note_on_c, 4, 56, 58
6, 99360, Note_on_c, 4, 50, 70
6, 99440, Note_off_c, 4, 56, 64
6, 99472, Note_off_c, 4, 50, 64
6, 100320, Note_on_c, 4, 58, 58
6, 100320, Note_on_c, 4, 51, 70
6, 100400, Note_off_c, 4, 58, 64
6, 100432, Note_off_c, 4, 51, 64
6, 101040, Note_on_c, 4, 54, 70
6, 101280, Control_c, 4, 64, 127
6, 101280, Note_on_c, 4, 56, 45
6, 101520, Note_on_c, 4, 60, 43
6, 101564, Note_off_c, 4, 56, 64
6, 101564, Note_off_c, 4, 54, 64
6, 101760, Note_off_c, 4, 60, 64
6, 101760, Control_c, 4, 64, 0
6, 102240, Note_on_c, 4, 58, 66
6, 102480, Note_on_c, 4, 51, 38
6, 102720, Note_off_c, 4, 51, 64
6, 102720, Note_off_c, 4, 58, 64
6, 103680, Control_c, 4, 64, 0
6, 103680, End_track
7, 0, Start_track
7, 0, Title_t, "Strings "
7, 0, MIDI_port, 0
7, 0, Channel_prefix, 5
7, 0, Control_c, 5, 7, 127
7, 0, Control_c, 5, 10, 127
7, 0, Program_c, 5, 48
7, 0, Control_c, 5, 121, 0
7, 40, Control_c, 5, 123, 0
7, 120, Control_c, 5, 91, 65
7, 160, Control_c, 5, 64, 0
7, 3844, Note_on_c, 5, 70, 33
7, 3848, Note_on_c, 5, 63, 38
7, 5760, Note_off_c, 5, 63, 64
7, 5760, Note_off_c, 5, 70, 64
7, 5764, Note_on_c, 5, 75, 33
7, 5768, Note_on_c, 5, 68, 38
7, 7680, Note_off_c, 5, 68, 64
7, 7680, Note_off_c, 5, 75, 64
7, 7684, Note_on_c, 5, 70, 33
7, 7688, Note_on_c, 5, 63, 38
7, 8640, Note_off_c, 5, 63, 64
7, 8640, Note_off_c, 5, 70, 64
7, 8644, Note_on_c, 5, 75, 33
7, 8648, Note_on_c, 5, 68, 38
7, 9600, Note_off_c, 5, 68, 64
7, 9600, Note_off_c, 5, 75, 64
7, 9604, Note_on_c, 5, 70, 48
7, 9608, Note_on_c, 5, 63, 53
7, 10080, Note_off_c, 5, 63, 64
7, 10080, Note_off_c, 5, 70, 64
7, 42244, Note_on_c, 5, 75, 33
7, 42248, Note_on_c, 5, 68, 38
7, 44160, Note_off_c, 5, 68, 64
7, 44160, Note_off_c, 5, 75, 64
7, 44164, Note_on_c, 5, 75, 33
7, 44168, Note_on_c, 5, 68, 38
7, 45120, Note_off_c, 5, 68, 64
7, 45120, Note_off_c, 5, 75, 64
7, 45124, Note_on_c, 5, 68, 33
7, 45128, Note_on_c, 5, 62, 38
7, 46080, Note_off_c, 5, 62, 64
7, 46080, Note_off_c, 5, 68, 64
7, 46084, Note_on_c, 5, 70, 33
7, 46088, Note_on_c, 5, 63, 38
7, 49920, Note_off_c, 5, 63, 64
7, 49920, Note_off_c, 5, 70, 64
7, 49924, Note_on_c, 5, 72, 33
7, 49928, Note_on_c, 5, 63, 38
7, 51840, Note_off_c, 5, 63, 64
7, 51840, Note_off_c, 5, 72, 64
7, 51844, Note_on_c, 5, 75, 33
7, 51848, Note_on_c, 5, 68, 38
7, 52800, Note_off_c, 5, 68, 64
7, 52800, Note_off_c, 5, 75, 64
7, 52804, Note_on_c, 5, 68, 33
7, 52808, Note_on_c, 5, 62, 38
7, 53760, Note_off_c, 5, 62, 64
7, 53760, Note_off_c, 5, 68, 64
7, 53764, Note_on_c, 5, 70, 33
7, 53768, Note_on_c, 5, 63, 38
7, 54720, Note_off_c, 5, 63, 64
7, 54720, Note_off_c, 5, 70, 64
7, 54724, Note_on_c, 5, 72, 33
7, 54728, Note_on_c, 5, 66, 38
7, 55680, Note_off_c, 5, 66, 64
7, 55680, Note_off_c, 5, 72, 64
7, 55684, Note_on_c, 5, 70, 48
7, 55688, Note_on_c, 5, 63, 53
7, 56160, Note_off_c, 5, 63, 64
7, 56160, Note_off_c, 5, 70, 64
7, 88324, Note_on_c, 5, 75, 33
7, 88328, Note_on_c, 5, 68, 38
7, 90240, Note_off_c, 5, 68, 64
7, 90240, Note_off_c, 5, 75, 64
7, 90244, Note_on_c, 5, 75, 33
7, 90248, Note_on_c, 5, 68, 38
7, 91200, Note_off_c, 5, 68, 64
7, 91200, Note_off_c, 5, 75, 64
7, 91204, Note_on_c, 5, 68, 33
7, 91208, Note_on_c, 5, 62, 38
7, 92160, Note_off_c, 5, 62, 64
7, 92160, Note_off_c, 5, 68, 64
7, 92164, Note_on_c, 5, 70, 33
7, 92168, Note_on_c, 5, 63, 38
7, 96000, Note_off_c, 5, 63, 64
7, 96000, Note_off_c, 5, 70, 64
7, 96004, Note_on_c, 5, 72, 33
7, 96008, Note_on_c, 5, 63, 38
7, 97920, Note_off_c, 5, 63, 64
7, 97920, Note_off_c, 5, 72, 64
7, 97924, Note_on_c, 5, 75, 33
7, 97928, Note_on_c, 5, 68, 38
7, 98880, Note_off_c, 5, 68, 64
7, 98880, Note_off_c, 5, 75, 64
7, 98884, Note_on_c, 5, 68, 33
7, 98888, Note_on_c, 5, 62, 38
7, 99840, Note_off_c, 5, 62, 64
7, 99840, Note_off_c, 5, 68, 64
7, 99844, Note_on_c, 5, 70, 33
7, 99848, Note_on_c, 5, 63, 38
7, 100800, Note_off_c, 5, 63, 64
7, 100800, Note_off_c, 5, 70, 64
7, 100804, Note_on_c, 5, 72, 33
7, 100808, Note_on_c, 5, 66, 38
7, 101760, Note_off_c, 5, 66, 64
7, 101760, Note_off_c, 5, 72, 64
7, 101764, Note_on_c, 5, 70, 33
7, 101768, Note_on_c, 5, 63, 38
7, 102720, Note_off_c, 5, 63, 64
7, 102720, Note_off_c, 5, 70, 64
7, 102724, Note_on_c, 5, 70, 48
7, 102728, Note_on_c, 5, 63, 53
7, 103200, Note_off_c, 5, 63, 64
7, 103200, Note_off_c, 5, 70, 64
7, 103680, Control_c, 5, 64, 0
7, 103680, End_track
8, 0, Start_track
8, 0, Title_t, "Bass    "
8, 0, MIDI_port, 0
8, 0, Channel_prefix, 6
8, 0, Control_c, 6, 7, 127
8, 0, Control_c, 6, 10, 0
8, 0, Program_c, 6, 33
8, 0, Control_c, 6, 121, 0
8, 40, Control_c, 6, 123, 0
8, 80, Control_c, 6, 93, 65
8, 120, Control_c, 6, 91, 100
8, 160, Control_c, 6, 64, 0
8, 3840, Note_on_c, 6, 39, 110
8, 4300, Note_off_c, 6, 39, 64
8, 4320, Control_c, 6, 85, 37
8, 4800, Note_on_c, 6, 48, 110
8, 5184, Note_off_c, 6, 48, 64
8, 5280, Note_on_c, 6, 46, 110
8, 5664, Note_off_c, 6, 46, 64
8, 5760, Note_on_c, 6, 44, 110
8, 6220, Note_off_c, 6, 44, 64
8, 6240, Control_c, 6, 85, 37
8, 6720, Note_on_c, 6, 44, 104
8, 7180, Note_off_c, 6, 44, 64
8, 7200, Control_c, 6, 85, 37
8, 7680, Note_on_c, 6, 39, 110
8, 8064, Note_off_c, 6, 39, 64
8, 8160, Note_on_c, 6, 46, 110
8, 8544, Note_off_c, 6, 46, 64
8, 8640, Note_on_c, 6, 44, 108
8, 9024, Note_off_c, 6, 44, 64
8, 9120, Note_on_c, 6, 44, 109
8, 9504, Note_off_c, 6, 44, 64
8, 9600, Note_on_c, 6, 46, 110
8, 10060, Note_off_c, 6, 46, 64
8, 10080, Control_c, 6, 85, 37
8, 11520, Note_on_c, 6, 39, 123
8, 11980, Note_off_c, 6, 39, 64
8, 12000, Control_c, 6, 85, 37
8, 12480, Note_on_c, 6, 48, 100
8, 12864, Note_off_c, 6, 48, 64
8, 12960, Note_on_c, 6, 46, 110
8, 13344, Note_off_c, 6, 46, 64
8, 13440, Note_on_c, 6, 44, 116
8, 13900, Note_off_c, 6, 44, 64
8, 13920, Control_c, 6, 85, 37
8, 14400, Note_on_c, 6, 44, 110
8, 14860, Note_off_c, 6, 44, 64
8, 14880, Control_c, 6, 85, 37
8, 15360, Note_on_c, 6, 39, 109
8, 15820, Note_off_c, 6, 39, 64
8, 15840, Control_c, 6, 85, 37
8, 16080, Note_on_c, 6, 46, 111
8, 16272, Note_off_c, 6, 46, 64
8, 16320, Note_on_c, 6, 44, 125
8, 16704, Note_off_c, 6, 44, 64
8, 16800, Note_on_c, 6, 44, 123
8, 17184, Note_off_c, 6, 44, 64
8, 17280, Note_on_c, 6, 39, 121
8, 17740, Note_off_c, 6, 39, 64
8, 17760, Control_c, 6, 85, 37
8, 18240, Note_on_c, 6, 34, 109
8, 18700, Note_off_c, 6, 34, 64
8, 18720, Control_c, 6, 85, 37
8, 19200, Note_on_c, 6, 39, 110
8, 19660, Note_off_c, 6, 39, 64
8, 19680, Control_c, 6, 85, 37
8, 20160, Note_on_c, 6, 43, 121
8, 20544, Note_off_c, 6, 43, 64
8, 20640, Note_on_c, 6, 46, 111
8, 21024, Note_off_c, 6, 46, 64
8, 21120, Note_on_c, 6, 48, 110
8, 21580, Note_off_c, 6, 48, 64
8, 21600, Control_c, 6, 86, 37
8, 22080, Note_on_c, 6, 36, 111
8, 22464, Note_off_c, 6, 36, 64
8, 22560, Note_on_c, 6, 48, 110
8, 22944, Note_off_c, 6, 48, 64
8, 23040, Note_on_c, 6, 43, 104
8, 23500, Note_off_c, 6, 43, 64
8, 23520, Control_c, 6, 86, 37
8, 23760, Note_on_c, 6, 50, 121
8, 23952, Note_off_c, 6, 50, 64
8, 24000, Note_on_c, 6, 46, 111
8, 24384, Note_off_c, 6, 46, 64
8, 24480, Note_on_c, 6, 43, 110
8, 24864, Note_off_c, 6, 43, 64
8, 24960, Note_on_c, 6, 46, 105
8, 25420, Note_off_c, 6, 46, 64
8, 25440, Control_c, 6, 85, 37
8, 25920, Note_on_c, 6, 34, 124
8, 26380, Note_off_c, 6, 34, 64
8, 26400, Control_c, 6, 85, 37
8, 26880, Note_on_c, 6, 39, 110
8, 27340, Note_off_c, 6, 39, 64
8, 27360, Control_c, 6, 85, 37
8, 27600, Note_on_c, 6, 46, 111
8, 27792, Note_off_c, 6, 46, 64
8, 27840, Note_on_c, 6, 48, 110
8, 28032, Note_off_c, 6, 48, 64
8, 28080, Note_on_c, 6, 48, 106
8, 28272, Note_off_c, 6, 48, 64
8, 28320, Note_on_c, 6, 46, 118
8, 28704, Note_off_c, 6, 46, 64
8, 28800, Note_on_c, 6, 39, 120
8, 29260, Note_off_c, 6, 39, 64
8, 29280, Control_c, 6, 85, 37
8, 29760, Note_on_c, 6, 51, 111
8, 30144, Note_off_c, 6, 51, 64
8, 30240, Note_on_c, 6, 39, 110
8, 30624, Note_off_c, 6, 39, 64
8, 30720, Note_on_c, 6, 44, 107
8, 31180, Note_off_c, 6, 44, 64
8, 31200, Control_c, 6, 86, 37
8, 31440, Note_on_c, 6, 51, 109
8, 31632, Note_off_c, 6, 51, 64
8, 31680, Note_on_c, 6, 53, 98
8, 31872, Note_off_c, 6, 53, 64
8, 31920, Note_on_c, 6, 53, 106
8, 32112, Note_off_c, 6, 53, 64
8, 32160, Note_on_c, 6, 51, 111
8, 32544, Note_off_c, 6, 51, 64
8, 32640, Note_on_c, 6, 44, 110
8, 33100, Note_off_c, 6, 44, 64
8, 33120, Control_c, 6, 85, 37
8, 33600, Note_on_c, 6, 44, 124
8, 34060, Note_off_c, 6, 44, 64
8, 34080, Control_c, 6, 85, 37
8, 34560, Note_on_c, 6, 39, 97
8, 35020, Note_off_c, 6, 39, 64
8, 35040, Control_c, 6, 85, 37
8, 35280, Note_on_c, 6, 46, 112
8, 35472, Note_off_c, 6, 46, 64
8, 35520, Note_on_c, 6, 48, 110
8, 35904, Note_off_c, 6, 48, 64
8, 36000, Note_on_c, 6, 46, 105
8, 36384, Note_off_c, 6, 46, 64
8, 36480, Note_on_c, 6, 44, 104
8, 36940, Note_off_c, 6, 44, 64
8, 36960, Control_c, 6, 85, 37
8, 37440, Note_on_c, 6, 44, 110
8, 37900, Note_off_c, 6, 44, 64
8, 37920, Control_c, 6, 85, 37
8, 38400, Note_on_c, 6, 39, 114
8, 38860, Note_off_c, 6, 39, 64
8, 38880, Control_c, 6, 85, 37
8, 39120, Note_on_c, 6, 46, 111
8, 39312, Note_off_c, 6, 46, 64
8, 39360, Note_on_c, 6, 44, 109
8, 39744, Note_off_c, 6, 44, 64
8, 39840, Note_on_c, 6, 44, 112
8, 40224, Note_off_c, 6, 44, 64
8, 40320, Note_on_c, 6, 39, 123
8, 40780, Note_off_c, 6, 39, 64
8, 40800, Control_c, 6, 85, 37
8, 42240, Note_on_c, 6, 44, 111
8, 42700, Note_off_c, 6, 44, 64
8, 42720, Control_c, 6, 85, 37
8, 43200, Note_on_c, 6, 39, 122
8, 43660, Note_off_c, 6, 39, 64
8, 43680, Control_c, 6, 85, 37
8, 44160, Note_on_c, 6, 44, 122
8, 44620, Note_off_c, 6, 44, 64
8, 44640, Control_c, 6, 85, 37
8, 45120, Note_on_c, 6, 46, 115
8, 45504, Note_off_c, 6, 46, 64
8, 45600, Note_on_c, 6, 34, 106
8, 45984, Note_off_c, 6, 34, 64
8, 46080, Note_on_c, 6, 39, 116
8, 46540, Note_off_c, 6, 39, 64
8, 46560, Control_c, 6, 85, 37
8, 47040, Note_on_c, 6, 46, 117
8, 47424, Note_off_c, 6, 46, 64
8, 47520, Note_on_c, 6, 34, 110
8, 47904, Note_off_c, 6, 34, 64
8, 48000, Note_on_c, 6, 39, 114
8, 48460, Note_off_c, 6, 39, 64
8, 48480, Control_c, 6, 85, 37
8, 48960, Note_on_c, 6, 43, 111
8, 49344, Note_off_c, 6, 43, 64
8, 49440, Note_on_c, 6, 46, 117
8, 49824, Note_off_c, 6, 46, 64
8, 49920, Note_on_c, 6, 48, 110
8, 50380, Note_off_c, 6, 48, 64
8, 50400, Control_c, 6, 85, 37
8, 50880, Note_on_c, 6, 36, 112
8, 51264, Note_off_c, 6, 36, 64
8, 51360, Note_on_c, 6, 39, 107
8, 51744, Note_off_c, 6, 39, 64
8, 51840, Note_on_c, 6, 44, 104
8, 52300, Note_off_c, 6, 44, 64
8, 52320, Control_c, 6, 85, 37
8, 52800, Note_on_c, 6, 46, 105
8, 53184, Note_off_c, 6, 46, 64
8, 53280, Note_on_c, 6, 34, 115
8, 53664, Note_off_c, 6, 34, 64
8, 53760, Note_on_c, 6, 39, 97
8, 54220, Note_off_c, 6, 39, 64
8, 54240, Control_c, 6, 85, 37
8, 54720, Note_on_c, 6, 44, 111
8, 55104, Note_off_c, 6, 44, 64
8, 55200, Note_on_c, 6, 44, 99
8, 55584, Note_off_c, 6, 44, 64
8, 55680, Note_on_c, 6, 39, 112
8, 56140, Note_off_c, 6, 39, 64
8, 56160, Control_c, 6, 85, 37
8, 57600, Note_on_c, 6, 39, 116
8, 58060, Note_off_c, 6, 39, 64
8, 58080, Control_c, 6, 85, 37
8, 58560, Note_on_c, 6, 48, 122
8, 58944, Note_off_c, 6, 48, 64
8, 59040, Note_on_c, 6, 46, 107
8, 59424, Note_off_c, 6, 46, 64
8, 59520, Note_on_c, 6, 44, 108
8, 59980, Note_off_c, 6, 44, 64
8, 60000, Control_c, 6, 85, 37
8, 60480, Note_on_c, 6, 44, 114
8, 60940, Note_off_c, 6, 44, 64
8, 60960, Control_c, 6, 85, 37
8, 61440, Note_on_c, 6, 39, 114
8, 61900, Note_off_c, 6, 39, 64
8, 61920, Control_c, 6, 85, 37
8, 62160, Note_on_c, 6, 46, 111
8, 62352, Note_off_c, 6, 46, 64
8, 62400, Note_on_c, 6, 44, 111
8, 62784, Note_off_c, 6, 44, 64
8, 62880, Note_on_c, 6, 44, 104
8, 63264, Note_off_c, 6, 44, 64
8, 63360, Note_on_c, 6, 39, 114
8, 63820, Note_off_c, 6, 39, 64
8, 63840, Control_c, 6, 85, 37
8, 64320, Note_on_c, 6, 34, 125
8, 64780, Note_off_c, 6, 34, 64
8, 64800, Control_c, 6, 85, 37
8, 65280, Note_on_c, 6, 39, 99
8, 65740, Note_off_c, 6, 39, 64
8, 65760, Control_c, 6, 85, 37
8, 66240, Note_on_c, 6, 43, 113
8, 66624, Note_off_c, 6, 43, 64
8, 66720, Note_on_c, 6, 46, 108
8, 67104, Note_off_c, 6, 46, 64
8, 67200, Note_on_c, 6, 48, 111
8, 67660, Note_off_c, 6, 48, 64
8, 67680, Control_c, 6, 86, 37
8, 68160, Note_on_c, 6, 36, 110
8, 68544, Note_off_c, 6, 36, 64
8, 68640, Note_on_c, 6, 48, 112
8, 69024, Note_off_c, 6, 48, 64
8, 69120, Note_on_c, 6, 43, 111
8, 69580, Note_off_c, 6, 43, 64
8, 69600, Control_c, 6, 86, 37
8, 69840, Note_on_c, 6, 50, 108
8, 70032, Note_off_c, 6, 50, 64
8, 70080, Note_on_c, 6, 46, 107
8, 70464, Note_off_c, 6, 46, 64
8, 70560, Note_on_c, 6, 43, 110
8, 70944, Note_off_c, 6, 43, 64
8, 71040, Note_on_c, 6, 46, 111
8, 71500, Note_off_c, 6, 46, 64
8, 71520, Control_c, 6, 85, 37
8, 72000, Note_on_c, 6, 34, 99
8, 72460, Note_off_c, 6, 34, 64
8, 72480, Control_c, 6, 85, 37
8, 72960, Note_on_c, 6, 39, 109
8, 73420, Note_off_c, 6, 39, 64
8, 73440, Control_c, 6, 85, 37
8, 73680, Note_on_c, 6, 46, 115
8, 73872, Note_off_c, 6, 46, 64
8, 73920, Note_on_c, 6, 48, 109
8, 74112, Note_off_c, 6, 48, 64
8, 74160, Note_on_c, 6, 48, 114
8, 74352, Note_off_c, 6, 48, 64
8, 74400, Note_on_c, 6, 46, 111
8, 74784, Note_off_c, 6, 46, 64
8, 74880, Note_on_c, 6, 39, 110
8, 75340, Note_off_c, 6, 39, 64
8, 75360, Control_c, 6, 85, 37
8, 75840, Note_on_c, 6, 51, 107
8, 76224, Note_off_c, 6, 51, 64
8, 76320, Note_on_c, 6, 39, 96
8, 76704, Note_off_c, 6, 39, 64
8, 76800, Note_on_c, 6, 44, 123
8, 77260, Note_off_c, 6, 44, 64
8, 77280, Control_c, 6, 86, 37
8, 77520, Note_on_c, 6, 51, 108
8, 77712, Note_off_c, 6, 51, 64
8, 77760, Note_on_c, 6, 53, 114
8, 77952, Note_off_c, 6, 53, 64
8, 78000, Note_on_c, 6, 53, 111
8, 78192, Note_off_c, 6, 53, 64
8, 78240, Note_on_c, 6, 51, 110
8, 78624, Note_off_c, 6, 51, 64
8, 78720, Note_on_c, 6, 44, 111
8, 79180, Note_off_c, 6, 44, 64
8, 79200, Control_c, 6, 85, 37
8, 79680, Note_on_c, 6, 44, 117
8, 80140, Note_off_c, 6, 44, 64
8, 80160, Control_c, 6, 85, 37
8, 80640, Note_on_c, 6, 39, 97
8, 81100, Note_off_c, 6, 39, 64
8, 81120, Control_c, 6, 85, 37
8, 81360, Note_on_c, 6, 46, 111
8, 81552, Note_off_c, 6, 46, 64
8, 81600, Note_on_c, 6, 48, 107
8, 81984, Note_off_c, 6, 48, 64
8, 82080, Note_on_c, 6, 46, 106
8, 82464, Note_off_c, 6, 46, 64
8, 82560, Note_on_c, 6, 44, 109
8, 83020, Note_off_c, 6, 44, 64
8, 83040, Control_c, 6, 85, 37
8, 83520, Note_on_c, 6, 44, 117
8, 83980, Note_off_c, 6, 44, 64
8, 84000, Control_c, 6, 85, 37
8, 84480, Note_on_c, 6, 39, 111
8, 84940, Note_off_c, 6, 39, 64
8, 84960, Control_c, 6, 85, 37
8, 85200, Note_on_c, 6, 46, 99
8, 85392, Note_off_c, 6, 46, 64
8, 85440, Note_on_c, 6, 44, 96
8, 85824, Note_off_c, 6, 44, 64
8, 85920, Note_on_c, 6, 44, 109
8, 86304, Note_off_c, 6, 44, 64
8, 86400, Note_on_c, 6, 39, 110
8, 86860, Note_off_c, 6, 39, 64
8, 86880, Control_c, 6, 85, 37
8, 88320, Note_on_c, 6, 44, 110
8, 88780, Note_off_c, 6, 44, 64
8, 88800, Control_c, 6, 85, 37
8, 89280, Note_on_c, 6, 39, 110
8, 89740, Note_off_c, 6, 39, 64
8, 89760, Control_c, 6, 85, 37
8, 90240, Note_on_c, 6, 44, 122
8, 90700, Note_off_c, 6, 44, 64
8, 90720, Control_c, 6, 85, 37
8, 91200, Note_on_c, 6, 46, 95
8, 91584, Note_off_c, 6, 46, 64
8, 91680, Note_on_c, 6, 34, 102
8, 92064, Note_off_c, 6, 34, 64
8, 92160, Note_on_c, 6, 39, 118
8, 92620, Note_off_c, 6, 39, 64
8, 92640, Control_c, 6, 85, 37
8, 93120, Note_on_c, 6, 46, 118
8, 93504, Note_off_c, 6, 46, 64
8, 93600, Note_on_c, 6, 34, 109
8, 93984, Note_off_c, 6, 34, 64
8, 94080, Note_on_c, 6, 39, 109
8, 94540, Note_off_c, 6, 39, 64
8, 94560, Control_c, 6, 85, 37
8, 95040, Note_on_c, 6, 43, 107
8, 95424, Note_off_c, 6, 43, 64
8, 95520, Note_on_c, 6, 46, 114
8, 95904, Note_off_c, 6, 46, 64
8, 96000, Note_on_c, 6, 48, 112
8, 96460, Note_off_c, 6, 48, 64
8, 96480, Control_c, 6, 85, 37
8, 96960, Note_on_c, 6, 36, 115
8, 97344, Note_off_c, 6, 36, 64
8, 97440, Note_on_c, 6, 39, 110
8, 97824, Note_off_c, 6, 39, 64
8, 97920, Note_on_c, 6, 44, 117
8, 98380, Note_off_c, 6, 44, 64
8, 98400, Control_c, 6, 85, 37
8, 98880, Note_on_c, 6, 46, 125
8, 99264, Note_off_c, 6, 46, 64
8, 99360, Note_on_c, 6, 34, 107
8, 99744, Note_off_c, 6, 34, 64
8, 99840, Note_on_c, 6, 39, 110
8, 100300, Note_off_c, 6, 39, 64
8, 100320, Control_c, 6, 85, 37
8, 100800, Note_on_c, 6, 44, 110
8, 101184, Note_off_c, 6, 44, 64
8, 101280, Note_on_c, 6, 44, 99
8, 101664, Note_off_c, 6, 44, 64
8, 101760, Note_on_c, 6, 51, 96
8, 102144, Note_off_c, 6, 51, 64
8, 102240, Note_on_c, 6, 46, 121
8, 102624, Note_off_c, 6, 46, 64
8, 102720, Note_on_c, 6, 39, 101
8, 102720, Note_on_c, 6, 51, 100
8, 103180, Note_off_c, 6, 51, 64
8, 103180, Note_off_c, 6, 39, 64
8, 103200, Control_c, 6, 85, 37
8, 103200, End_track
9, 0, Start_track
9, 0, Title_t, "Drums   "
9, 0, MIDI_port, 0
9, 0, Channel_prefix, 9
9, 0, Control_c, 9, 7, 127
9, 0, Control_c, 9, 10, 64
9, 0, Program_c, 9, 32
9, 0, Control_c, 9, 121, 0
9, 40, Control_c, 9, 123, 0
9, 120, Control_c, 9, 91, 65
9, 3840, Note_on_c, 9, 35, 90
9, 3840, Note_on_c, 9, 38, 90
9, 3840, Note_on_c, 9, 42, 90
9, 3840, Note_on_c, 9, 49, 90
9, 3940, Note_off_c, 9, 49, 64
9, 3940, Note_off_c, 9, 42, 64
9, 3940, Note_off_c, 9, 38, 64
9, 3940, Note_off_c, 9, 35, 64
9, 4080, Note_on_c, 9, 42, 70
9, 4180, Note_off_c, 9, 42, 64
9, 4320, Note_on_c, 9, 38, 100
9, 4320, Note_on_c, 9, 42, 100
9, 4420, Note_off_c, 9, 42, 64
9, 4420, Note_off_c, 9, 38, 64
9, 4560, Note_on_c, 9, 35, 80
9, 4560, Note_on_c, 9, 42, 70
9, 4660, Note_off_c, 9, 42, 64
9, 4660, Note_off_c, 9, 35, 64
9, 4800, Note_on_c, 9, 35, 100
9, 4800, Note_on_c, 9, 42, 90
9, 4900, Note_off_c, 9, 42, 64
9, 4900, Note_off_c, 9, 35, 64
9, 5040, Note_on_c, 9, 42, 70
9, 5140, Note_off_c, 9, 42, 64
9, 5280, Note_on_c, 9, 38, 100
9, 5280, Note_on_c, 9, 42, 100
9, 5380, Note_off_c, 9, 42, 64
9, 5380, Note_off_c, 9, 38, 64
9, 5520, Note_on_c, 9, 35, 70
9, 5520, Note_on_c, 9, 42, 70
9, 5620, Note_off_c, 9, 42, 64
9, 5620, Note_off_c, 9, 35, 64
9, 5760, Note_on_c, 9, 35, 90
9, 5760, Note_on_c, 9, 42, 90
9, 5860, Note_off_c, 9, 42, 64
9, 5860, Note_off_c, 9, 35, 64
9, 6000, Note_on_c, 9, 42, 70
9, 6100, Note_off_c, 9, 42, 64
9, 6240, Note_on_c, 9, 38, 100
9, 6240, Note_on_c, 9, 42, 100
9, 6340, Note_off_c, 9, 42, 64
9, 6340, Note_off_c, 9, 38, 64
9, 6480, Note_on_c, 9, 35, 80
9, 6480, Note_on_c, 9, 42, 100
9, 6580, Note_off_c, 9, 42, 64
9, 6580, Note_off_c, 9, 35, 64
9, 6720, Note_on_c, 9, 35, 100
9, 6720, Note_on_c, 9, 42, 90
9, 6820, Note_off_c, 9, 42, 64
9, 6820, Note_off_c, 9, 35, 64
9, 6960, Note_on_c, 9, 35, 90
9, 6960, Note_on_c, 9, 42, 70
9, 7060, Note_off_c, 9, 42, 64
9, 7060, Note_off_c, 9, 35, 64
9, 7200, Note_on_c, 9, 38, 100
9, 7200, Note_on_c, 9, 42, 100
9, 7300, Note_off_c, 9, 42, 64
9, 7300, Note_off_c, 9, 38, 64
9, 7440, Note_on_c, 9, 35, 70
9, 7440, Note_on_c, 9, 42, 70
9, 7540, Note_off_c, 9, 42, 64
9, 7540, Note_off_c, 9, 35, 64
9, 7680, Note_on_c, 9, 35, 90
9, 7680, Note_on_c, 9, 42, 90
9, 7780, Note_off_c, 9, 42, 64
9, 7780, Note_off_c, 9, 35, 64
9, 7920, Note_on_c, 9, 42, 70
9, 8020, Note_off_c, 9, 42, 64
9, 8160, Note_on_c, 9, 38, 100
9, 8160, Note_on_c, 9, 42, 100
9, 8260, Note_off_c, 9, 42, 64
9, 8260, Note_off_c, 9, 38, 64
9, 8400, Note_on_c, 9, 35, 80
9, 8400, Note_on_c, 9, 42, 70
9, 8500, Note_off_c, 9, 42, 64
9, 8500, Note_off_c, 9, 35, 64
9, 8640, Note_on_c, 9, 35, 100
9, 8640, Note_on_c, 9, 42, 90
9, 8740, Note_off_c, 9, 42, 64
9, 8740, Note_off_c, 9, 35, 64
9, 8880, Note_on_c, 9, 42, 70
9, 8980, Note_off_c, 9, 42, 64
9, 9120, Note_on_c, 9, 38, 100
9, 9120, Note_on_c, 9, 42, 100
9, 9220, Note_off_c, 9, 42, 64
9, 9220, Note_off_c, 9, 38, 64
9, 9360, Note_on_c, 9, 35, 70
9, 9360, Note_on_c, 9, 42, 70
9, 9460, Note_off_c, 9, 42, 64
9, 9460, Note_off_c, 9, 35, 64
9, 9600, Note_on_c, 9, 35, 90
9, 9600, Note_on_c, 9, 42, 90
9, 9700, Note_off_c, 9, 42, 64
9, 9700, Note_off_c, 9, 35, 64
9, 11100, Note_on_c, 9, 45, 56
9, 11200, Note_off_c, 9, 45, 64
9, 11520, Note_on_c, 9, 35, 90
9, 11520, Note_on_c, 9, 42, 90
9, 11620, Note_off_c, 9, 42, 64
9, 11620, Note_off_c, 9, 35, 64
9, 11760, Note_on_c, 9, 42, 70
9, 11860, Note_off_c, 9, 42, 64
9, 12000, Note_on_c, 9, 38, 100
9, 12000, Note_on_c, 9, 42, 115
9, 12100, Note_off_c, 9, 42, 64
9, 12100, Note_off_c, 9, 38, 64
9, 12240, Note_on_c, 9, 35, 80
9, 12240, Note_on_c, 9, 42, 70
9, 12340, Note_off_c, 9, 42, 64
9, 12340, Note_off_c, 9, 35, 64
9, 12480, Note_on_c, 9, 35, 100
9, 12480, Note_on_c, 9, 42, 90
9, 12580, Note_off_c, 9, 42, 64
9, 12580, Note_off_c, 9, 35, 64
9, 12720, Note_on_c, 9, 42, 70
9, 12820, Note_off_c, 9, 42, 64
9, 12960, Note_on_c, 9, 38, 100
9, 12960, Note_on_c, 9, 42, 100
9, 13060, Note_off_c, 9, 42, 64
9, 13060, Note_off_c, 9, 38, 64
9, 13200, Note_on_c, 9, 42, 70
9, 13300, Note_off_c, 9, 42, 64
9, 13440, Note_on_c, 9, 35, 90
9, 13440, Note_on_c, 9, 42, 100
9, 13540, Note_off_c, 9, 42, 64
9, 13540, Note_off_c, 9, 35, 64
9, 13680, Note_on_c, 9, 42, 70
9, 13780, Note_off_c, 9, 42, 64
9, 13920, Note_on_c, 9, 38, 100
9, 13920, Note_on_c, 9, 42, 115
9, 14020, Note_off_c, 9, 42, 64
9, 14020, Note_off_c, 9, 38, 64
9, 14160, Note_on_c, 9, 35, 80
9, 14160, Note_on_c, 9, 42, 70
9, 14260, Note_off_c, 9, 42, 64
9, 14260, Note_off_c, 9, 35, 64
9, 14400, Note_on_c, 9, 35, 100
9, 14400, Note_on_c, 9, 42, 90
9, 14500, Note_off_c, 9, 42, 64
9, 14500, Note_off_c, 9, 35, 64
9, 14640, Note_on_c, 9, 42, 70
9, 14740, Note_off_c, 9, 42, 64
9, 14880, Note_on_c, 9, 38, 100
9, 14880, Note_on_c, 9, 42, 100
9, 14980, Note_off_c, 9, 42, 64
9, 14980, Note_off_c, 9, 38, 64
9, 15120, Note_on_c, 9, 42, 70
9, 15220, Note_off_c, 9, 42, 64
9, 15360, Note_on_c, 9, 35, 90
9, 15360, Note_on_c, 9, 42, 90
9, 15460, Note_off_c, 9, 42, 64
9, 15460, Note_off_c, 9, 35, 64
9, 15600, Note_on_c, 9, 42, 70
9, 15700, Note_off_c, 9, 42, 64
9, 15840, Note_on_c, 9, 38, 100
9, 15840, Note_on_c, 9, 42, 115
9, 15940, Note_off_c, 9, 42, 64
9, 15940, Note_off_c, 9, 38, 64
9, 16080, Note_on_c, 9, 35, 80
9, 16080, Note_on_c, 9, 42, 70
9, 16180, Note_off_c, 9, 42, 64
9, 16180, Note_off_c, 9, 35, 64
9, 16320, Note_on_c, 9, 35, 100
9, 16320, Note_on_c, 9, 42, 90
9, 16420, Note_off_c, 9, 42, 64
9, 16420, Note_off_c, 9, 35, 64
9, 16560, Note_on_c, 9, 42, 70
9, 16660, Note_off_c, 9, 42, 64
9, 16800, Note_on_c, 9, 38, 100
9, 16800, Note_on_c, 9, 42, 100
9, 16900, Note_off_c, 9, 42, 64
9, 16900, Note_off_c, 9, 38, 64
9, 17040, Note_on_c, 9, 42, 70
9, 17140, Note_off_c, 9, 42, 64
9, 17280, Note_on_c, 9, 35, 90
9, 17280, Note_on_c, 9, 42, 90
9, 17380, Note_off_c, 9, 42, 64
9, 17380, Note_off_c, 9, 35, 64
9, 17520, Note_on_c, 9, 42, 70
9, 17620, Note_off_c, 9, 42, 64
9, 17760, Note_on_c, 9, 38, 100
9, 17760, Note_on_c, 9, 42, 115
9, 17860, Note_off_c, 9, 42, 64
9, 17860, Note_off_c, 9, 38, 64
9, 18000, Note_on_c, 9, 35, 80
9, 18000, Note_on_c, 9, 42, 75
9, 18100, Note_off_c, 9, 42, 64
9, 18100, Note_off_c, 9, 35, 64
9, 18240, Note_on_c, 9, 35, 100
9, 18240, Note_on_c, 9, 42, 90
9, 18340, Note_off_c, 9, 42, 64
9, 18340, Note_off_c, 9, 35, 64
9, 18480, Note_on_c, 9, 42, 70
9, 18580, Note_off_c, 9, 42, 64
9, 18720, Note_on_c, 9, 38, 100
9, 18720, Note_on_c, 9, 42, 100
9, 18720, Note_on_c, 9, 54, 115
9, 18820, Note_off_c, 9, 54, 64
9, 18820, Note_off_c, 9, 42, 64
9, 18820, Note_off_c, 9, 38, 64
9, 18960, Note_on_c, 9, 35, 70
9, 18960, Note_on_c, 9, 46, 80
9, 19060, Note_off_c, 9, 46, 64
9, 19060, Note_off_c, 9, 35, 64
9, 19200, Note_on_c, 9, 35, 90
9, 19200, Note_on_c, 9, 42, 90
9, 19300, Note_off_c, 9, 42, 64
9, 19300, Note_off_c, 9, 35, 64
9, 19440, Note_on_c, 9, 42, 70
9, 19540, Note_off_c, 9, 42, 64
9, 19680, Note_on_c, 9, 38, 100
9, 19680, Note_on_c, 9, 42, 115
9, 19780, Note_off_c, 9, 42, 64
9, 19780, Note_off_c, 9, 38, 64
9, 19920, Note_on_c, 9, 35, 80
9, 19920, Note_on_c, 9, 42, 70
9, 20020, Note_off_c, 9, 42, 64
9, 20020, Note_off_c, 9, 35, 64
9, 20160, Note_on_c, 9, 35, 100
9, 20160, Note_on_c, 9, 42, 90
9, 20260, Note_off_c, 9, 42, 64
9, 20260, Note_off_c, 9, 35, 64
9, 20400, Note_on_c, 9, 42, 70
9, 20500, Note_off_c, 9, 42, 64
9, 20640, Note_on_c, 9, 38, 100
9, 20640, Note_on_c, 9, 42, 100
9, 20740, Note_off_c, 9, 42, 64
9, 20740, Note_off_c, 9, 38, 64
9, 20880, Note_on_c, 9, 42, 70
9, 20980, Note_off_c, 9, 42, 64
9, 21120, Note_on_c, 9, 35, 90
9, 21120, Note_on_c, 9, 42, 100
9, 21220, Note_off_c, 9, 42, 64
9, 21220, Note_off_c, 9, 35, 64
9, 21360, Note_on_c, 9, 42, 70
9, 21460, Note_off_c, 9, 42, 64
9, 21600, Note_on_c, 9, 38, 100
9, 21600, Note_on_c, 9, 42, 115
9, 21700, Note_off_c, 9, 42, 64
9, 21700, Note_off_c, 9, 38, 64
9, 21840, Note_on_c, 9, 35, 80
9, 21840, Note_on_c, 9, 42, 70
9, 21940, Note_off_c, 9, 42, 64
9, 21940, Note_off_c, 9, 35, 64
9, 22080, Note_on_c, 9, 35, 100
9, 22080, Note_on_c, 9, 42, 90
9, 22180, Note_off_c, 9, 42, 64
9, 22180, Note_off_c, 9, 35, 64
9, 22320, Note_on_c, 9, 42, 70
9, 22420, Note_off_c, 9, 42, 64
9, 22560, Note_on_c, 9, 38, 100
9, 22560, Note_on_c, 9, 42, 100
9, 22660, Note_off_c, 9, 42, 64
9, 22660, Note_off_c, 9, 38, 64
9, 22800, Note_on_c, 9, 42, 70
9, 22900, Note_off_c, 9, 42, 64
9, 23040, Note_on_c, 9, 35, 90
9, 23040, Note_on_c, 9, 42, 90
9, 23140, Note_off_c, 9, 42, 64
9, 23140, Note_off_c, 9, 35, 64
9, 23280, Note_on_c, 9, 42, 70
9, 23380, Note_off_c, 9, 42, 64
9, 23520, Note_on_c, 9, 38, 100
9, 23520, Note_on_c, 9, 42, 115
9, 23620, Note_off_c, 9, 42, 64
9, 23620, Note_off_c, 9, 38, 64
9, 23760, Note_on_c, 9, 35, 80
9, 23760, Note_on_c, 9, 42, 70
9, 23860, Note_off_c, 9, 42, 64
9, 23860, Note_off_c, 9, 35, 64
9, 24000, Note_on_c, 9, 35, 100
9, 24000, Note_on_c, 9, 42, 90
9, 24100, Note_off_c, 9, 42, 64
9, 24100, Note_off_c, 9, 35, 64
9, 24240, Note_on_c, 9, 42, 70
9, 24340, Note_off_c, 9, 42, 64
9, 24480, Note_on_c, 9, 38, 100
9, 24480, Note_on_c, 9, 42, 100
9, 24580, Note_off_c, 9, 42, 64
9, 24580, Note_off_c, 9, 38, 64
9, 24720, Note_on_c, 9, 42, 70
9, 24820, Note_off_c, 9, 42, 64
9, 24960, Note_on_c, 9, 35, 90
9, 24960, Note_on_c, 9, 42, 90
9, 25060, Note_off_c, 9, 42, 64
9, 25060, Note_off_c, 9, 35, 64
9, 25200, Note_on_c, 9, 42, 70
9, 25300, Note_off_c, 9, 42, 64
9, 25440, Note_on_c, 9, 38, 100
9, 25440, Note_on_c, 9, 42, 115
9, 25540, Note_off_c, 9, 42, 64
9, 25540, Note_off_c, 9, 38, 64
9, 25680, Note_on_c, 9, 35, 80
9, 25680, Note_on_c, 9, 42, 70
9, 25780, Note_off_c, 9, 42, 64
9, 25780, Note_off_c, 9, 35, 64
9, 25920, Note_on_c, 9, 35, 100
9, 25920, Note_on_c, 9, 38, 50
9, 25920, Note_on_c, 9, 42, 90
9, 26020, Note_off_c, 9, 42, 64
9, 26020, Note_off_c, 9, 38, 64
9, 26020, Note_off_c, 9, 35, 64
9, 26040, Note_on_c, 9, 38, 40
9, 26140, Note_off_c, 9, 38, 64
9, 26160, Note_on_c, 9, 38, 70
9, 26160, Note_on_c, 9, 42, 60
9, 26260, Note_off_c, 9, 42, 64
9, 26260, Note_off_c, 9, 38, 64
9, 26280, Note_on_c, 9, 38, 60
9, 26380, Note_off_c, 9, 38, 64
9, 26400, Note_on_c, 9, 42, 80
9, 26400, Note_on_c, 9, 45, 70
9, 26500, Note_off_c, 9, 45, 64
9, 26500, Note_off_c, 9, 42, 64
9, 26520, Note_on_c, 9, 45, 60
9, 26620, Note_off_c, 9, 45, 64
9, 26640, Note_on_c, 9, 42, 60
9, 26640, Note_on_c, 9, 45, 80
9, 26740, Note_off_c, 9, 45, 64
9, 26740, Note_off_c, 9, 42, 64
9, 26760, Note_on_c, 9, 45, 70
9, 26860, Note_off_c, 9, 45, 64
9, 26880, Note_on_c, 9, 35, 90
9, 26880, Note_on_c, 9, 42, 90
9, 26980, Note_off_c, 9, 42, 64
9, 26980, Note_off_c, 9, 35, 64
9, 27120, Note_on_c, 9, 42, 70
9, 27220, Note_off_c, 9, 42, 64
9, 27360, Note_on_c, 9, 38, 100
9, 27360, Note_on_c, 9, 42, 115
9, 27460, Note_off_c, 9, 42, 64
9, 27460, Note_off_c, 9, 38, 64
9, 27600, Note_on_c, 9, 35, 80
9, 27600, Note_on_c, 9, 42, 70
9, 27700, Note_off_c, 9, 42, 64
9, 27700, Note_off_c, 9, 35, 64
9, 27840, Note_on_c, 9, 35, 100
9, 27840, Note_on_c, 9, 42, 90
9, 27940, Note_off_c, 9, 42, 64
9, 27940, Note_off_c, 9, 35, 64
9, 28080, Note_on_c, 9, 42, 70
9, 28180, Note_off_c, 9, 42, 64
9, 28320, Note_on_c, 9, 38, 100
9, 28320, Note_on_c, 9, 42, 100
9, 28420, Note_off_c, 9, 42, 64
9, 28420, Note_off_c, 9, 38, 64
9, 28560, Note_on_c, 9, 42, 70
9, 28660, Note_off_c, 9, 42, 64
9, 28800, Note_on_c, 9, 35, 90
9, 28800, Note_on_c, 9, 42, 90
9, 28900, Note_off_c, 9, 42, 64
9, 28900, Note_off_c, 9, 35, 64
9, 29040, Note_on_c, 9, 42, 70
9, 29140, Note_off_c, 9, 42, 64
9, 29280, Note_on_c, 9, 38, 100
9, 29280, Note_on_c, 9, 42, 115
9, 29380, Note_off_c, 9, 42, 64
9, 29380, Note_off_c, 9, 38, 64
9, 29520, Note_on_c, 9, 35, 80
9, 29520, Note_on_c, 9, 42, 80
9, 29620, Note_off_c, 9, 42, 64
9, 29620, Note_off_c, 9, 35, 64
9, 29760, Note_on_c, 9, 35, 100
9, 29760, Note_on_c, 9, 42, 90
9, 29860, Note_off_c, 9, 42, 64
9, 29860, Note_off_c, 9, 35, 64
9, 30000, Note_on_c, 9, 42, 70
9, 30100, Note_off_c, 9, 42, 64
9, 30240, Note_on_c, 9, 38, 100
9, 30240, Note_on_c, 9, 42, 100
9, 30240, Note_on_c, 9, 54, 115
9, 30340, Note_off_c, 9, 54, 64
9, 30340, Note_off_c, 9, 42, 64
9, 30340, Note_off_c, 9, 38, 64
9, 30480, Note_on_c, 9, 35, 70
9, 30480, Note_on_c, 9, 42, 70
9, 30580, Note_off_c, 9, 42, 64
9, 30580, Note_off_c, 9, 35, 64
9, 30720, Note_on_c, 9, 35, 90
9, 30720, Note_on_c, 9, 42, 90
9, 30820, Note_off_c, 9, 42, 64
9, 30820, Note_off_c, 9, 35, 64
9, 30960, Note_on_c, 9, 42, 70
9, 31060, Note_off_c, 9, 42, 64
9, 31200, Note_on_c, 9, 38, 100
9, 31200, Note_on_c, 9, 42, 115
9, 31300, Note_off_c, 9, 42, 64
9, 31300, Note_off_c, 9, 38, 64
9, 31440, Note_on_c, 9, 35, 80
9, 31440, Note_on_c, 9, 42, 70
9, 31540, Note_off_c, 9, 42, 64
9, 31540, Note_off_c, 9, 35, 64
9, 31680, Note_on_c, 9, 35, 100
9, 31680, Note_on_c, 9, 42, 90
9, 31780, Note_off_c, 9, 42, 64
9, 31780, Note_off_c, 9, 35, 64
9, 31920, Note_on_c, 9, 42, 70
9, 32020, Note_off_c, 9, 42, 64
9, 32160, Note_on_c, 9, 38, 100
9, 32160, Note_on_c, 9, 42, 100
9, 32260, Note_off_c, 9, 42, 64
9, 32260, Note_off_c, 9, 38, 64
9, 32400, Note_on_c, 9, 42, 70
9, 32500, Note_off_c, 9, 42, 64
9, 32640, Note_on_c, 9, 35, 90
9, 32640, Note_on_c, 9, 42, 90
9, 32740, Note_off_c, 9, 42, 64
9, 32740, Note_off_c, 9, 35, 64
9, 32880, Note_on_c, 9, 42, 70
9, 32980, Note_off_c, 9, 42, 64
9, 33120, Note_on_c, 9, 38, 100
9, 33120, Note_on_c, 9, 42, 115
9, 33220, Note_off_c, 9, 42, 64
9, 33220, Note_off_c, 9, 38, 64
9, 33360, Note_on_c, 9, 35, 80
9, 33360, Note_on_c, 9, 42, 80
9, 33460, Note_off_c, 9, 42, 64
9, 33460, Note_off_c, 9, 35, 64
9, 33600, Note_on_c, 9, 35, 100
9, 33600, Note_on_c, 9, 42, 90
9, 33700, Note_off_c, 9, 42, 64
9, 33700, Note_off_c, 9, 35, 64
9, 33840, Note_on_c, 9, 42, 70
9, 33940, Note_off_c, 9, 42, 64
9, 34080, Note_on_c, 9, 38, 100
9, 34080, Note_on_c, 9, 42, 100
9, 34080, Note_on_c, 9, 54, 115
9, 34180, Note_off_c, 9, 54, 64
9, 34180, Note_off_c, 9, 42, 64
9, 34180, Note_off_c, 9, 38, 64
9, 34320, Note_on_c, 9, 35, 70
9, 34320, Note_on_c, 9, 42, 70
9, 34420, Note_off_c, 9, 42, 64
9, 34420, Note_off_c, 9, 35, 64
9, 34560, Note_on_c, 9, 35, 90
9, 34560, Note_on_c, 9, 42, 90
9, 34660, Note_off_c, 9, 42, 64
9, 34660, Note_off_c, 9, 35, 64
9, 34800, Note_on_c, 9, 42, 70
9, 34900, Note_off_c, 9, 42, 64
9, 35040, Note_on_c, 9, 38, 100
9, 35040, Note_on_c, 9, 42, 115
9, 35140, Note_off_c, 9, 42, 64
9, 35140, Note_off_c, 9, 38, 64
9, 35280, Note_on_c, 9, 35, 80
9, 35280, Note_on_c, 9, 42, 70
9, 35380, Note_off_c, 9, 42, 64
9, 35380, Note_off_c, 9, 35, 64
9, 35520, Note_on_c, 9, 35, 100
9, 35520, Note_on_c, 9, 42, 90
9, 35620, Note_off_c, 9, 42, 64
9, 35620, Note_off_c, 9, 35, 64
9, 35760, Note_on_c, 9, 42, 70
9, 35860, Note_off_c, 9, 42, 64
9, 36000, Note_on_c, 9, 38, 100
9, 36000, Note_on_c, 9, 42, 100
9, 36100, Note_off_c, 9, 42, 64
9, 36100, Note_off_c, 9, 38, 64
9, 36240, Note_on_c, 9, 42, 70
9, 36340, Note_off_c, 9, 42, 64
9, 36480, Note_on_c, 9, 35, 90
9, 36480, Note_on_c, 9, 42, 100
9, 36580, Note_off_c, 9, 42, 64
9, 36580, Note_off_c, 9, 35, 64
9, 36720, Note_on_c, 9, 42, 70
9, 36820, Note_off_c, 9, 42, 64
9, 36960, Note_on_c, 9, 38, 100
9, 36960, Note_on_c, 9, 42, 115
9, 37060, Note_off_c, 9, 42, 64
9, 37060, Note_off_c, 9, 38, 64
9, 37200, Note_on_c, 9, 35, 80
9, 37200, Note_on_c, 9, 42, 70
9, 37300, Note_off_c, 9, 42, 64
9, 37300, Note_off_c, 9, 35, 64
9, 37440, Note_on_c, 9, 35, 100
9, 37440, Note_on_c, 9, 42, 90
9, 37540, Note_off_c, 9, 42, 64
9, 37540, Note_off_c, 9, 35, 64
9, 37680, Note_on_c, 9, 42, 70
9, 37780, Note_off_c, 9, 42, 64
9, 37920, Note_on_c, 9, 38, 100
9, 37920, Note_on_c, 9, 42, 100
9, 38020, Note_off_c, 9, 42, 64
9, 38020, Note_off_c, 9, 38, 64
9, 38160, Note_on_c, 9, 42, 70
9, 38260, Note_off_c, 9, 42, 64
9, 38400, Note_on_c, 9, 35, 90
9, 38400, Note_on_c, 9, 42, 90
9, 38500, Note_off_c, 9, 42, 64
9, 38500, Note_off_c, 9, 35, 64
9, 38640, Note_on_c, 9, 42, 70
9, 38740, Note_off_c, 9, 42, 64
9, 38880, Note_on_c, 9, 38, 100
9, 38880, Note_on_c, 9, 42, 115
9, 38980, Note_off_c, 9, 42, 64
9, 38980, Note_off_c, 9, 38, 64
9, 39120, Note_on_c, 9, 35, 80
9, 39120, Note_on_c, 9, 42, 70
9, 39220, Note_off_c, 9, 42, 64
9, 39220, Note_off_c, 9, 35, 64
9, 39360, Note_on_c, 9, 35, 100
9, 39360, Note_on_c, 9, 42, 90
9, 39460, Note_off_c, 9, 42, 64
9, 39460, Note_off_c, 9, 35, 64
9, 39600, Note_on_c, 9, 46, 72
9, 39700, Note_off_c, 9, 46, 64
9, 39840, Note_on_c, 9, 38, 100
9, 39840, Note_on_c, 9, 42, 100
9, 39940, Note_off_c, 9, 42, 64
9, 39940, Note_off_c, 9, 38, 64
9, 40080, Note_on_c, 9, 42, 70
9, 40180, Note_off_c, 9, 42, 64
9, 40320, Note_on_c, 9, 35, 90
9, 40320, Note_on_c, 9, 42, 90
9, 40420, Note_off_c, 9, 42, 64
9, 40420, Note_off_c, 9, 35, 64
9, 42240, Note_on_c, 9, 35, 90
9, 42240, Note_on_c, 9, 42, 90
9, 42340, Note_off_c, 9, 42, 64
9, 42340, Note_off_c, 9, 35, 64
9, 42480, Note_on_c, 9, 42, 70
9, 42580, Note_off_c, 9, 42, 64
9, 42720, Note_on_c, 9, 38, 100
9, 42720, Note_on_c, 9, 42, 100
9, 42820, Note_off_c, 9, 42, 64
9, 42820, Note_off_c, 9, 38, 64
9, 42960, Note_on_c, 9, 35, 80
9, 42960, Note_on_c, 9, 42, 70
9, 43060, Note_off_c, 9, 42, 64
9, 43060, Note_off_c, 9, 35, 64
9, 43200, Note_on_c, 9, 35, 100
9, 43200, Note_on_c, 9, 42, 90
9, 43300, Note_off_c, 9, 42, 64
9, 43300, Note_off_c, 9, 35, 64
9, 43440, Note_on_c, 9, 42, 70
9, 43540, Note_off_c, 9, 42, 64
9, 43680, Note_on_c, 9, 38, 100
9, 43680, Note_on_c, 9, 42, 100
9, 43780, Note_off_c, 9, 42, 64
9, 43780, Note_off_c, 9, 38, 64
9, 43920, Note_on_c, 9, 35, 70
9, 43920, Note_on_c, 9, 42, 70
9, 44020, Note_off_c, 9, 42, 64
9, 44020, Note_off_c, 9, 35, 64
9, 44160, Note_on_c, 9, 35, 90
9, 44160, Note_on_c, 9, 42, 90
9, 44260, Note_off_c, 9, 42, 64
9, 44260, Note_off_c, 9, 35, 64
9, 44400, Note_on_c, 9, 42, 70
9, 44500, Note_off_c, 9, 42, 64
9, 44640, Note_on_c, 9, 38, 100
9, 44640, Note_on_c, 9, 42, 100
9, 44740, Note_off_c, 9, 42, 64
9, 44740, Note_off_c, 9, 38, 64
9, 44880, Note_on_c, 9, 35, 80
9, 44880, Note_on_c, 9, 42, 100
9, 44980, Note_off_c, 9, 42, 64
9, 44980, Note_off_c, 9, 35, 64
9, 45120, Note_on_c, 9, 35, 100
9, 45120, Note_on_c, 9, 42, 90
9, 45220, Note_off_c, 9, 42, 64
9, 45220, Note_off_c, 9, 35, 64
9, 45360, Note_on_c, 9, 35, 90
9, 45360, Note_on_c, 9, 42, 70
9, 45460, Note_off_c, 9, 42, 64
9, 45460, Note_off_c, 9, 35, 64
9, 45600, Note_on_c, 9, 38, 100
9, 45600, Note_on_c, 9, 42, 100
9, 45700, Note_off_c, 9, 42, 64
9, 45700, Note_off_c, 9, 38, 64
9, 45840, Note_on_c, 9, 35, 70
9, 45840, Note_on_c, 9, 46, 80
9, 45940, Note_off_c, 9, 46, 64
9, 45940, Note_off_c, 9, 35, 64
9, 46080, Note_on_c, 9, 35, 90
9, 46080, Note_on_c, 9, 42, 90
9, 46180, Note_off_c, 9, 42, 64
9, 46180, Note_off_c, 9, 35, 64
9, 46320, Note_on_c, 9, 42, 70
9, 46420, Note_off_c, 9, 42, 64
9, 46560, Note_on_c, 9, 38, 100
9, 46560, Note_on_c, 9, 42, 100
9, 46660, Note_off_c, 9, 42, 64
9, 46660, Note_off_c, 9, 38, 64
9, 46800, Note_on_c, 9, 35, 80
9, 46800, Note_on_c, 9, 42, 70
9, 46900, Note_off_c, 9, 42, 64
9, 46900, Note_off_c, 9, 35, 64
9, 47040, Note_on_c, 9, 35, 100
9, 47040, Note_on_c, 9, 42, 90
9, 47140, Note_off_c, 9, 42, 64
9, 47140, Note_off_c, 9, 35, 64
9, 47280, Note_on_c, 9, 42, 70
9, 47380, Note_off_c, 9, 42, 64
9, 47520, Note_on_c, 9, 38, 100
9, 47520, Note_on_c, 9, 42, 100
9, 47620, Note_off_c, 9, 42, 64
9, 47620, Note_off_c, 9, 38, 64
9, 47760, Note_on_c, 9, 35, 70
9, 47760, Note_on_c, 9, 42, 70
9, 47860, Note_off_c, 9, 42, 64
9, 47860, Note_off_c, 9, 35, 64
9, 48000, Note_on_c, 9, 35, 90
9, 48000, Note_on_c, 9, 42, 90
9, 48100, Note_off_c, 9, 42, 64
9, 48100, Note_off_c, 9, 35, 64
9, 48240, Note_on_c, 9, 42, 70
9, 48340, Note_off_c, 9, 42, 64
9, 48480, Note_on_c, 9, 38, 100
9, 48480, Note_on_c, 9, 42, 100
9, 48580, Note_off_c, 9, 42, 64
9, 48580, Note_off_c, 9, 38, 64
9, 48720, Note_on_c, 9, 35, 80
9, 48720, Note_on_c, 9, 42, 100
9, 48820, Note_off_c, 9, 42, 64
9, 48820, Note_off_c, 9, 35, 64
9, 48960, Note_on_c, 9, 35, 100
9, 48960, Note_on_c, 9, 42, 90
9, 49060, Note_off_c, 9, 42, 64
9, 49060, Note_off_c, 9, 35, 64
9, 49200, Note_on_c, 9, 35, 90
9, 49200, Note_on_c, 9, 42, 70
9, 49300, Note_off_c, 9, 42, 64
9, 49300, Note_off_c, 9, 35, 64
9, 49440, Note_on_c, 9, 38, 100
9, 49440, Note_on_c, 9, 42, 100
9, 49540, Note_off_c, 9, 42, 64
9, 49540, Note_off_c, 9, 38, 64
9, 49680, Note_on_c, 9, 35, 70
9, 49680, Note_on_c, 9, 42, 70
9, 49780, Note_off_c, 9, 42, 64
9, 49780, Note_off_c, 9, 35, 64
9, 49920, Note_on_c, 9, 35, 90
9, 49920, Note_on_c, 9, 42, 90
9, 50020, Note_off_c, 9, 42, 64
9, 50020, Note_off_c, 9, 35, 64
9, 50160, Note_on_c, 9, 42, 70
9, 50260, Note_off_c, 9, 42, 64
9, 50400, Note_on_c, 9, 38, 100
9, 50400, Note_on_c, 9, 42, 100
9, 50500, Note_off_c, 9, 42, 64
9, 50500, Note_off_c, 9, 38, 64
9, 50640, Note_on_c, 9, 35, 80
9, 50640, Note_on_c, 9, 42, 70
9, 50740, Note_off_c, 9, 42, 64
9, 50740, Note_off_c, 9, 35, 64
9, 50880, Note_on_c, 9, 35, 100
9, 50880, Note_on_c, 9, 42, 90
9, 50980, Note_off_c, 9, 42, 64
9, 50980, Note_off_c, 9, 35, 64
9, 51120, Note_on_c, 9, 42, 70
9, 51220, Note_off_c, 9, 42, 64
9, 51360, Note_on_c, 9, 38, 100
9, 51360, Note_on_c, 9, 42, 100
9, 51460, Note_off_c, 9, 42, 64
9, 51460, Note_off_c, 9, 38, 64
9, 51600, Note_on_c, 9, 35, 70
9, 51600, Note_on_c, 9, 42, 70
9, 51700, Note_off_c, 9, 42, 64
9, 51700, Note_off_c, 9, 35, 64
9, 51840, Note_on_c, 9, 35, 90
9, 51840, Note_on_c, 9, 42, 90
9, 51940, Note_off_c, 9, 42, 64
9, 51940, Note_off_c, 9, 35, 64
9, 52080, Note_on_c, 9, 42, 70
9, 52180, Note_off_c, 9, 42, 64
9, 52320, Note_on_c, 9, 38, 100
9, 52320, Note_on_c, 9, 42, 100
9, 52420, Note_off_c, 9, 42, 64
9, 52420, Note_off_c, 9, 38, 64
9, 52560, Note_on_c, 9, 35, 80
9, 52560, Note_on_c, 9, 42, 100
9, 52660, Note_off_c, 9, 42, 64
9, 52660, Note_off_c, 9, 35, 64
9, 52800, Note_on_c, 9, 35, 100
9, 52800, Note_on_c, 9, 42, 90
9, 52900, Note_off_c, 9, 42, 64
9, 52900, Note_off_c, 9, 35, 64
9, 53040, Note_on_c, 9, 35, 90
9, 53040, Note_on_c, 9, 42, 70
9, 53140, Note_off_c, 9, 42, 64
9, 53140, Note_off_c, 9, 35, 64
9, 53280, Note_on_c, 9, 38, 100
9, 53280, Note_on_c, 9, 42, 100
9, 53380, Note_off_c, 9, 42, 64
9, 53380, Note_off_c, 9, 38, 64
9, 53520, Note_on_c, 9, 35, 70
9, 53520, Note_on_c, 9, 46, 80
9, 53620, Note_off_c, 9, 46, 64
9, 53620, Note_off_c, 9, 35, 64
9, 53760, Note_on_c, 9, 35, 90
9, 53760, Note_on_c, 9, 42, 115
9, 53860, Note_off_c, 9, 42, 64
9, 53860, Note_off_c, 9, 35, 64
9, 54000, Note_on_c, 9, 42, 70
9, 54100, Note_off_c, 9, 42, 64
9, 54240, Note_on_c, 9, 38, 100
9, 54240, Note_on_c, 9, 42, 100
9, 54340, Note_off_c, 9, 42, 64
9, 54340, Note_off_c, 9, 38, 64
9, 54480, Note_on_c, 9, 35, 80
9, 54480, Note_on_c, 9, 42, 70
9, 54580, Note_off_c, 9, 42, 64
9, 54580, Note_off_c, 9, 35, 64
9, 54600, Note_on_c, 9, 42, 80
9, 54700, Note_off_c, 9, 42, 64
9, 54720, Note_on_c, 9, 35, 100
9, 54720, Note_on_c, 9, 42, 90
9, 54820, Note_off_c, 9, 42, 64
9, 54820, Note_off_c, 9, 35, 64
9, 54960, Note_on_c, 9, 42, 70
9, 55060, Note_off_c, 9, 42, 64
9, 55200, Note_on_c, 9, 38, 100
9, 55200, Note_on_c, 9, 42, 100
9, 55300, Note_off_c, 9, 42, 64
9, 55300, Note_off_c, 9, 38, 64
9, 55440, Note_on_c, 9, 35, 70
9, 55440, Note_on_c, 9, 42, 70
9, 55540, Note_off_c, 9, 42, 64
9, 55540, Note_off_c, 9, 35, 64
9, 55680, Note_on_c, 9, 35, 90
9, 55680, Note_on_c, 9, 42, 90
9, 55780, Note_off_c, 9, 42, 64
9, 55780, Note_off_c, 9, 35, 64
9, 57180, Note_on_c, 9, 45, 56
9, 57280, Note_off_c, 9, 45, 64
9, 57600, Note_on_c, 9, 35, 90
9, 57600, Note_on_c, 9, 42, 90
9, 57700, Note_off_c, 9, 42, 64
9, 57700, Note_off_c, 9, 35, 64
9, 57840, Note_on_c, 9, 42, 70
9, 57940, Note_off_c, 9, 42, 64
9, 58080, Note_on_c, 9, 38, 100
9, 58080, Note_on_c, 9, 42, 115
9, 58180, Note_off_c, 9, 42, 64
9, 58180, Note_off_c, 9, 38, 64
9, 58320, Note_on_c, 9, 35, 80
9, 58320, Note_on_c, 9, 42, 70
9, 58420, Note_off_c, 9, 42, 64
9, 58420, Note_off_c, 9, 35, 64
9, 58560, Note_on_c, 9, 35, 100
9, 58560, Note_on_c, 9, 42, 90
9, 58660, Note_off_c, 9, 42, 64
9, 58660, Note_off_c, 9, 35, 64
9, 58800, Note_on_c, 9, 42, 70
9, 58900, Note_off_c, 9, 42, 64
9, 59040, Note_on_c, 9, 38, 100
9, 59040, Note_on_c, 9, 42, 100
9, 59140, Note_off_c, 9, 42, 64
9, 59140, Note_off_c, 9, 38, 64
9, 59280, Note_on_c, 9, 42, 70
9, 59380, Note_off_c, 9, 42, 64
9, 59520, Note_on_c, 9, 35, 90
9, 59520, Note_on_c, 9, 42, 100
9, 59620, Note_off_c, 9, 42, 64
9, 59620, Note_off_c, 9, 35, 64
9, 59760, Note_on_c, 9, 42, 70
9, 59860, Note_off_c, 9, 42, 64
9, 60000, Note_on_c, 9, 38, 100
9, 60000, Note_on_c, 9, 42, 115
9, 60100, Note_off_c, 9, 42, 64
9, 60100, Note_off_c, 9, 38, 64
9, 60240, Note_on_c, 9, 35, 80
9, 60240, Note_on_c, 9, 42, 70
9, 60340, Note_off_c, 9, 42, 64
9, 60340, Note_off_c, 9, 35, 64
9, 60480, Note_on_c, 9, 35, 100
9, 60480, Note_on_c, 9, 42, 90
9, 60580, Note_off_c, 9, 42, 64
9, 60580, Note_off_c, 9, 35, 64
9, 60720, Note_on_c, 9, 42, 70
9, 60820, Note_off_c, 9, 42, 64
9, 60960, Note_on_c, 9, 38, 100
9, 60960, Note_on_c, 9, 42, 100
9, 61060, Note_off_c, 9, 42, 64
9, 61060, Note_off_c, 9, 38, 64
9, 61200, Note_on_c, 9, 42, 70
9, 61300, Note_off_c, 9, 42, 64
9, 61440, Note_on_c, 9, 35, 90
9, 61440, Note_on_c, 9, 42, 90
9, 61540, Note_off_c, 9, 42, 64
9, 61540, Note_off_c, 9, 35, 64
9, 61680, Note_on_c, 9, 42, 70
9, 61780, Note_off_c, 9, 42, 64
9, 61920, Note_on_c, 9, 38, 100
9, 61920, Note_on_c, 9, 42, 115
9, 62020, Note_off_c, 9, 42, 64
9, 62020, Note_off_c, 9, 38, 64
9, 62160, Note_on_c, 9, 35, 80
9, 62160, Note_on_c, 9, 42, 70
9, 62260, Note_off_c, 9, 42, 64
9, 62260, Note_off_c, 9, 35, 64
9, 62400, Note_on_c, 9, 35, 100
9, 62400, Note_on_c, 9, 42, 90
9, 62500, Note_off_c, 9, 42, 64
9, 62500, Note_off_c, 9, 35, 64
9, 62640, Note_on_c, 9, 42, 70
9, 62740, Note_off_c, 9, 42, 64
9, 62880, Note_on_c, 9, 38, 100
9, 62880, Note_on_c, 9, 42, 100
9, 62980, Note_off_c, 9, 42, 64
9, 62980, Note_off_c, 9, 38, 64
9, 63120, Note_on_c, 9, 42, 70
9, 63220, Note_off_c, 9, 42, 64
9, 63360, Note_on_c, 9, 35, 90
9, 63360, Note_on_c, 9, 42, 90
9, 63460, Note_off_c, 9, 42, 64
9, 63460, Note_off_c, 9, 35, 64
9, 63600, Note_on_c, 9, 42, 70
9, 63700, Note_off_c, 9, 42, 64
9, 63840, Note_on_c, 9, 38, 100
9, 63840, Note_on_c, 9, 42, 115
9, 63940, Note_off_c, 9, 42, 64
9, 63940, Note_off_c, 9, 38, 64
9, 64080, Note_on_c, 9, 35, 80
9, 64080, Note_on_c, 9, 42, 80
9, 64180, Note_off_c, 9, 42, 64
9, 64180, Note_off_c, 9, 35, 64
9, 64320, Note_on_c, 9, 35, 100
9, 64320, Note_on_c, 9, 42, 90
9, 64420, Note_off_c, 9, 42, 64
9, 64420, Note_off_c, 9, 35, 64
9, 64560, Note_on_c, 9, 42, 70
9, 64660, Note_off_c, 9, 42, 64
9, 64800, Note_on_c, 9, 38, 100
9, 64800, Note_on_c, 9, 42, 100
9, 64800, Note_on_c, 9, 54, 115
9, 64900, Note_off_c, 9, 54, 64
9, 64900, Note_off_c, 9, 42, 64
9, 64900, Note_off_c, 9, 38, 64
9, 65040, Note_on_c, 9, 35, 70
9, 65040, Note_on_c, 9, 42, 70
9, 65140, Note_off_c, 9, 42, 64
9, 65140, Note_off_c, 9, 35, 64
9, 65280, Note_on_c, 9, 35, 90
9, 65280, Note_on_c, 9, 42, 90
9, 65380, Note_off_c, 9, 42, 64
9, 65380, Note_off_c, 9, 35, 64
9, 65520, Note_on_c, 9, 42, 70
9, 65620, Note_off_c, 9, 42, 64
9, 65760, Note_on_c, 9, 38, 100
9, 65760, Note_on_c, 9, 42, 115
9, 65860, Note_off_c, 9, 42, 64
9, 65860, Note_off_c, 9, 38, 64
9, 66000, Note_on_c, 9, 35, 80
9, 66000, Note_on_c, 9, 42, 70
9, 66100, Note_off_c, 9, 42, 64
9, 66100, Note_off_c, 9, 35, 64
9, 66240, Note_on_c, 9, 35, 100
9, 66240, Note_on_c, 9, 42, 90
9, 66340, Note_off_c, 9, 42, 64
9, 66340, Note_off_c, 9, 35, 64
9, 66480, Note_on_c, 9, 42, 70
9, 66580, Note_off_c, 9, 42, 64
9, 66720, Note_on_c, 9, 38, 100
9, 66720, Note_on_c, 9, 42, 100
9, 66820, Note_off_c, 9, 42, 64
9, 66820, Note_off_c, 9, 38, 64
9, 66960, Note_on_c, 9, 42, 70
9, 67060, Note_off_c, 9, 42, 64
9, 67200, Note_on_c, 9, 35, 90
9, 67200, Note_on_c, 9, 42, 100
9, 67300, Note_off_c, 9, 42, 64
9, 67300, Note_off_c, 9, 35, 64
9, 67440, Note_on_c, 9, 42, 70
9, 67540, Note_off_c, 9, 42, 64
9, 67680, Note_on_c, 9, 38, 100
9, 67680, Note_on_c, 9, 42, 115
9, 67780, Note_off_c, 9, 42, 64
9, 67780, Note_off_c, 9, 38, 64
9, 67920, Note_on_c, 9, 35, 80
9, 67920, Note_on_c, 9, 42, 70
9, 68020, Note_off_c, 9, 42, 64
9, 68020, Note_off_c, 9, 35, 64
9, 68160, Note_on_c, 9, 35, 100
9, 68160, Note_on_c, 9, 42, 90
9, 68260, Note_off_c, 9, 42, 64
9, 68260, Note_off_c, 9, 35, 64
9, 68400, Note_on_c, 9, 42, 70
9, 68500, Note_off_c, 9, 42, 64
9, 68640, Note_on_c, 9, 38, 100
9, 68640, Note_on_c, 9, 42, 100
9, 68740, Note_off_c, 9, 42, 64
9, 68740, Note_off_c, 9, 38, 64
9, 68880, Note_on_c, 9, 42, 70
9, 68980, Note_off_c, 9, 42, 64
9, 69120, Note_on_c, 9, 35, 90
9, 69120, Note_on_c, 9, 42, 90
9, 69220, Note_off_c, 9, 42, 64
9, 69220, Note_off_c, 9, 35, 64
9, 69360, Note_on_c, 9, 42, 70
9, 69460, Note_off_c, 9, 42, 64
9, 69600, Note_on_c, 9, 38, 100
9, 69600, Note_on_c, 9, 42, 115
9, 69700, Note_off_c, 9, 42, 64
9, 69700, Note_off_c, 9, 38, 64
9, 69840, Note_on_c, 9, 35, 80
9, 69840, Note_on_c, 9, 42, 70
9, 69940, Note_off_c, 9, 42, 64
9, 69940, Note_off_c, 9, 35, 64
9, 70080, Note_on_c, 9, 35, 100
9, 70080, Note_on_c, 9, 42, 90
9, 70180, Note_off_c, 9, 42, 64
9, 70180, Note_off_c, 9, 35, 64
9, 70320, Note_on_c, 9, 42, 70
9, 70420, Note_off_c, 9, 42, 64
9, 70560, Note_on_c, 9, 38, 100
9, 70560, Note_on_c, 9, 42, 100
9, 70660, Note_off_c, 9, 42, 64
9, 70660, Note_off_c, 9, 38, 64
9, 70800, Note_on_c, 9, 42, 70
9, 70900, Note_off_c, 9, 42, 64
9, 71040, Note_on_c, 9, 35, 90
9, 71040, Note_on_c, 9, 42, 90
9, 71140, Note_off_c, 9, 42, 64
9, 71140, Note_off_c, 9, 35, 64
9, 71280, Note_on_c, 9, 42, 70
9, 71380, Note_off_c, 9, 42, 64
9, 71520, Note_on_c, 9, 38, 100
9, 71520, Note_on_c, 9, 42, 115
9, 71620, Note_off_c, 9, 42, 64
9, 71620, Note_off_c, 9, 38, 64
9, 71760, Note_on_c, 9, 35, 80
9, 71760, Note_on_c, 9, 42, 70
9, 71860, Note_off_c, 9, 42, 64
9, 71860, Note_off_c, 9, 35, 64
9, 72000, Note_on_c, 9, 35, 100
9, 72000, Note_on_c, 9, 42, 90
9, 72100, Note_off_c, 9, 42, 64
9, 72100, Note_off_c, 9, 35, 64
9, 72240, Note_on_c, 9, 38, 50
9, 72240, Note_on_c, 9, 42, 50
9, 72340, Note_off_c, 9, 42, 64
9, 72340, Note_off_c, 9, 38, 64
9, 72360, Note_on_c, 9, 38, 40
9, 72460, Note_off_c, 9, 38, 64
9, 72480, Note_on_c, 9, 38, 80
9, 72480, Note_on_c, 9, 42, 70
9, 72580, Note_off_c, 9, 42, 64
9, 72580, Note_off_c, 9, 38, 64
9, 72600, Note_on_c, 9, 38, 50
9, 72700, Note_off_c, 9, 38, 64
9, 72720, Note_on_c, 9, 38, 90
9, 72720, Note_on_c, 9, 42, 50
9, 72820, Note_off_c, 9, 42, 64
9, 72820, Note_off_c, 9, 38, 64
9, 72840, Note_on_c, 9, 38, 60
9, 72940, Note_off_c, 9, 38, 64
9, 72960, Note_on_c, 9, 35, 90
9, 72960, Note_on_c, 9, 42, 90
9, 73060, Note_off_c, 9, 42, 64
9, 73060, Note_off_c, 9, 35, 64
9, 73200, Note_on_c, 9, 42, 70
9, 73300, Note_off_c, 9, 42, 64
9, 73440, Note_on_c, 9, 38, 100
9, 73440, Note_on_c, 9, 42, 115
9, 73540, Note_off_c, 9, 42, 64
9, 73540, Note_off_c, 9, 38, 64
9, 73680, Note_on_c, 9, 35, 80
9, 73680, Note_on_c, 9, 42, 70
9, 73780, Note_off_c, 9, 42, 64
9, 73780, Note_off_c, 9, 35, 64
9, 73920, Note_on_c, 9, 35, 100
9, 73920, Note_on_c, 9, 42, 90
9, 74020, Note_off_c, 9, 42, 64
9, 74020, Note_off_c, 9, 35, 64
9, 74160, Note_on_c, 9, 42, 70
9, 74260, Note_off_c, 9, 42, 64
9, 74400, Note_on_c, 9, 38, 100
9, 74400, Note_on_c, 9, 42, 100
9, 74500, Note_off_c, 9, 42, 64
9, 74500, Note_off_c, 9, 38, 64
9, 74640, Note_on_c, 9, 42, 70
9, 74740, Note_off_c, 9, 42, 64
9, 74880, Note_on_c, 9, 35, 90
9, 74880, Note_on_c, 9, 42, 90
9, 74980, Note_off_c, 9, 42, 64
9, 74980, Note_off_c, 9, 35, 64
9, 75120, Note_on_c, 9, 42, 70
9, 75220, Note_off_c, 9, 42, 64
9, 75360, Note_on_c, 9, 38, 100
9, 75360, Note_on_c, 9, 42, 115
9, 75460, Note_off_c, 9, 42, 64
9, 75460, Note_off_c, 9, 38, 64
9, 75600, Note_on_c, 9, 35, 80
9, 75600, Note_on_c, 9, 42, 75
9, 75700, Note_off_c, 9, 42, 64
9, 75700, Note_off_c, 9, 35, 64
9, 75840, Note_on_c, 9, 35, 100
9, 75840, Note_on_c, 9, 42, 90
9, 75940, Note_off_c, 9, 42, 64
9, 75940, Note_off_c, 9, 35, 64
9, 76080, Note_on_c, 9, 42, 70
9, 76180, Note_off_c, 9, 42, 64
9, 76320, Note_on_c, 9, 38, 100
9, 76320, Note_on_c, 9, 42, 100
9, 76320, Note_on_c, 9, 54, 115
9, 76420, Note_off_c, 9, 54, 64
9, 76420, Note_off_c, 9, 42, 64
9, 76420, Note_off_c, 9, 38, 64
9, 76560, Note_on_c, 9, 35, 70
9, 76560, Note_on_c, 9, 46, 80
9, 76660, Note_off_c, 9, 46, 64
9, 76660, Note_off_c, 9, 35, 64
9, 76800, Note_on_c, 9, 35, 90
9, 76800, Note_on_c, 9, 42, 90
9, 76900, Note_off_c, 9, 42, 64
9, 76900, Note_off_c, 9, 35, 64
9, 77040, Note_on_c, 9, 42, 70
9, 77140, Note_off_c, 9, 42, 64
9, 77280, Note_on_c, 9, 38, 100
9, 77280, Note_on_c, 9, 42, 115
9, 77380, Note_off_c, 9, 42, 64
9, 77380, Note_off_c, 9, 38, 64
9, 77520, Note_on_c, 9, 35, 80
9, 77520, Note_on_c, 9, 42, 70
9, 77620, Note_off_c, 9, 42, 64
9, 77620, Note_off_c, 9, 35, 64
9, 77760, Note_on_c, 9, 35, 100
9, 77760, Note_on_c, 9, 42, 90
9, 77860, Note_off_c, 9, 42, 64
9, 77860, Note_off_c, 9, 35, 64
9, 78000, Note_on_c, 9, 42, 70
9, 78100, Note_off_c, 9, 42, 64
9, 78240, Note_on_c, 9, 38, 100
9, 78240, Note_on_c, 9, 42, 100
9, 78340, Note_off_c, 9, 42, 64
9, 78340, Note_off_c, 9, 38, 64
9, 78480, Note_on_c, 9, 42, 70
9, 78580, Note_off_c, 9, 42, 64
9, 78720, Note_on_c, 9, 35, 90
9, 78720, Note_on_c, 9, 42, 90
9, 78820, Note_off_c, 9, 42, 64
9, 78820, Note_off_c, 9, 35, 64
9, 78960, Note_on_c, 9, 42, 70
9, 79060, Note_off_c, 9, 42, 64
9, 79200, Note_on_c, 9, 38, 100
9, 79200, Note_on_c, 9, 42, 115
9, 79300, Note_off_c, 9, 42, 64
9, 79300, Note_off_c, 9, 38, 64
9, 79440, Note_on_c, 9, 35, 80
9, 79440, Note_on_c, 9, 42, 80
9, 79540, Note_off_c, 9, 42, 64
9, 79540, Note_off_c, 9, 35, 64
9, 79680, Note_on_c, 9, 35, 100
9, 79680, Note_on_c, 9, 42, 90
9, 79780, Note_off_c, 9, 42, 64
9, 79780, Note_off_c, 9, 35, 64
9, 79920, Note_on_c, 9, 42, 70
9, 80020, Note_off_c, 9, 42, 64
9, 80160, Note_on_c, 9, 38, 100
9, 80160, Note_on_c, 9, 42, 100
9, 80160, Note_on_c, 9, 54, 115
9, 80260, Note_off_c, 9, 54, 64
9, 80260, Note_off_c, 9, 42, 64
9, 80260, Note_off_c, 9, 38, 64
9, 80400, Note_on_c, 9, 35, 70
9, 80400, Note_on_c, 9, 42, 70
9, 80500, Note_off_c, 9, 42, 64
9, 80500, Note_off_c, 9, 35, 64
9, 80640, Note_on_c, 9, 35, 90
9, 80640, Note_on_c, 9, 42, 90
9, 80740, Note_off_c, 9, 42, 64
9, 80740, Note_off_c, 9, 35, 64
9, 80880, Note_on_c, 9, 42, 70
9, 80980, Note_off_c, 9, 42, 64
9, 81120, Note_on_c, 9, 38, 100
9, 81120, Note_on_c, 9, 42, 115
9, 81220, Note_off_c, 9, 42, 64
9, 81220, Note_off_c, 9, 38, 64
9, 81360, Note_on_c, 9, 35, 80
9, 81360, Note_on_c, 9, 42, 70
9, 81460, Note_off_c, 9, 42, 64
9, 81460, Note_off_c, 9, 35, 64
9, 81600, Note_on_c, 9, 35, 100
9, 81600, Note_on_c, 9, 42, 90
9, 81700, Note_off_c, 9, 42, 64
9, 81700, Note_off_c, 9, 35, 64
9, 81840, Note_on_c, 9, 42, 70
9, 81940, Note_off_c, 9, 42, 64
9, 82080, Note_on_c, 9, 38, 100
9, 82080, Note_on_c, 9, 42, 100
9, 82180, Note_off_c, 9, 42, 64
9, 82180, Note_off_c, 9, 38, 64
9, 82320, Note_on_c, 9, 42, 70
9, 82420, Note_off_c, 9, 42, 64
9, 82560, Note_on_c, 9, 35, 90
9, 82560, Note_on_c, 9, 42, 90
9, 82660, Note_off_c, 9, 42, 64
9, 82660, Note_off_c, 9, 35, 64
9, 82800, Note_on_c, 9, 42, 70
9, 82900, Note_off_c, 9, 42, 64
9, 83040, Note_on_c, 9, 38, 100
9, 83040, Note_on_c, 9, 42, 115
9, 83140, Note_off_c, 9, 42, 64
9, 83140, Note_off_c, 9, 38, 64
9, 83280, Note_on_c, 9, 35, 80
9, 83280, Note_on_c, 9, 42, 75
9, 83380, Note_off_c, 9, 42, 64
9, 83380, Note_off_c, 9, 35, 64
9, 83520, Note_on_c, 9, 35, 100
9, 83520, Note_on_c, 9, 42, 90
9, 83620, Note_off_c, 9, 42, 64
9, 83620, Note_off_c, 9, 35, 64
9, 83760, Note_on_c, 9, 42, 70
9, 83860, Note_off_c, 9, 42, 64
9, 84000, Note_on_c, 9, 38, 100
9, 84000, Note_on_c, 9, 42, 100
9, 84000, Note_on_c, 9, 54, 115
9, 84100, Note_off_c, 9, 54, 64
9, 84100, Note_off_c, 9, 42, 64
9, 84100, Note_off_c, 9, 38, 64
9, 84240, Note_on_c, 9, 35, 70
9, 84240, Note_on_c, 9, 46, 80
9, 84340, Note_off_c, 9, 46, 64
9, 84340, Note_off_c, 9, 35, 64
9, 84480, Note_on_c, 9, 35, 90
9, 84480, Note_on_c, 9, 42, 90
9, 84580, Note_off_c, 9, 42, 64
9, 84580, Note_off_c, 9, 35, 64
9, 84720, Note_on_c, 9, 42, 70
9, 84820, Note_off_c, 9, 42, 64
9, 84960, Note_on_c, 9, 38, 100
9, 84960, Note_on_c, 9, 42, 115
9, 85060, Note_off_c, 9, 42, 64
9, 85060, Note_off_c, 9, 38, 64
9, 85200, Note_on_c, 9, 35, 80
9, 85200, Note_on_c, 9, 42, 70
9, 85300, Note_off_c, 9, 42, 64
9, 85300, Note_off_c, 9, 35, 64
9, 85440, Note_on_c, 9, 35, 100
9, 85440, Note_on_c, 9, 42, 90
9, 85540, Note_off_c, 9, 42, 64
9, 85540, Note_off_c, 9, 35, 64
9, 85680, Note_on_c, 9, 42, 70
9, 85780, Note_off_c, 9, 42, 64
9, 85920, Note_on_c, 9, 38, 100
9, 85920, Note_on_c, 9, 42, 100
9, 86020, Note_off_c, 9, 42, 64
9, 86020, Note_off_c, 9, 38, 64
9, 86160, Note_on_c, 9, 42, 70
9, 86260, Note_off_c, 9, 42, 64
9, 86400, Note_on_c, 9, 35, 90
9, 86400, Note_on_c, 9, 42, 90
9, 86500, Note_off_c, 9, 42, 64
9, 86500, Note_off_c, 9, 35, 64
9, 88320, Note_on_c, 9, 35, 90
9, 88320, Note_on_c, 9, 42, 115
9, 88420, Note_off_c, 9, 42, 64
9, 88420, Note_off_c, 9, 35, 64
9, 88560, Note_on_c, 9, 42, 70
9, 88660, Note_off_c, 9, 42, 64
9, 88800, Note_on_c, 9, 38, 100
9, 88800, Note_on_c, 9, 42, 100
9, 88900, Note_off_c, 9, 42, 64
9, 88900, Note_off_c, 9, 38, 64
9, 89040, Note_on_c, 9, 35, 80
9, 89040, Note_on_c, 9, 42, 70
9, 89140, Note_off_c, 9, 42, 64
9, 89140, Note_off_c, 9, 35, 64
9, 89280, Note_on_c, 9, 35, 100
9, 89280, Note_on_c, 9, 42, 90
9, 89380, Note_off_c, 9, 42, 64
9, 89380, Note_off_c, 9, 35, 64
9, 89520, Note_on_c, 9, 42, 70
9, 89620, Note_off_c, 9, 42, 64
9, 89760, Note_on_c, 9, 38, 100
9, 89760, Note_on_c, 9, 42, 100
9, 89860, Note_off_c, 9, 42, 64
9, 89860, Note_off_c, 9, 38, 64
9, 90000, Note_on_c, 9, 35, 70
9, 90000, Note_on_c, 9, 42, 70
9, 90100, Note_off_c, 9, 42, 64
9, 90100, Note_off_c, 9, 35, 64
9, 90240, Note_on_c, 9, 35, 90
9, 90240, Note_on_c, 9, 42, 90
9, 90340, Note_off_c, 9, 42, 64
9, 90340, Note_off_c, 9, 35, 64
9, 90480, Note_on_c, 9, 42, 70
9, 90580, Note_off_c, 9, 42, 64
9, 90720, Note_on_c, 9, 38, 100
9, 90720, Note_on_c, 9, 42, 100
9, 90820, Note_off_c, 9, 42, 64
9, 90820, Note_off_c, 9, 38, 64
9, 90960, Note_on_c, 9, 35, 80
9, 90960, Note_on_c, 9, 42, 100
9, 91060, Note_off_c, 9, 42, 64
9, 91060, Note_off_c, 9, 35, 64
9, 91200, Note_on_c, 9, 35, 100
9, 91200, Note_on_c, 9, 42, 90
9, 91300, Note_off_c, 9, 42, 64
9, 91300, Note_off_c, 9, 35, 64
9, 91440, Note_on_c, 9, 35, 90
9, 91440, Note_on_c, 9, 42, 70
9, 91540, Note_off_c, 9, 42, 64
9, 91540, Note_off_c, 9, 35, 64
9, 91680, Note_on_c, 9, 38, 100
9, 91680, Note_on_c, 9, 42, 100
9, 91780, Note_off_c, 9, 42, 64
9, 91780, Note_off_c, 9, 38, 64
9, 91920, Note_on_c, 9, 35, 70
9, 91920, Note_on_c, 9, 46, 80
9, 92020, Note_off_c, 9, 46, 64
9, 92020, Note_off_c, 9, 35, 64
9, 92160, Note_on_c, 9, 35, 90
9, 92160, Note_on_c, 9, 42, 90
9, 92260, Note_off_c, 9, 42, 64
9, 92260, Note_off_c, 9, 35, 64
9, 92400, Note_on_c, 9, 42, 70
9, 92500, Note_off_c, 9, 42, 64
9, 92640, Note_on_c, 9, 38, 100
9, 92640, Note_on_c, 9, 42, 100
9, 92740, Note_off_c, 9, 42, 64
9, 92740, Note_off_c, 9, 38, 64
9, 92880, Note_on_c, 9, 35, 80
9, 92880, Note_on_c, 9, 42, 70
9, 92980, Note_off_c, 9, 42, 64
9, 92980, Note_off_c, 9, 35, 64
9, 93120, Note_on_c, 9, 35, 100
9, 93120, Note_on_c, 9, 42, 90
9, 93220, Note_off_c, 9, 42, 64
9, 93220, Note_off_c, 9, 35, 64
9, 93360, Note_on_c, 9, 42, 70
9, 93460, Note_off_c, 9, 42, 64
9, 93600, Note_on_c, 9, 38, 100
9, 93600, Note_on_c, 9, 42, 100
9, 93700, Note_off_c, 9, 42, 64
9, 93700, Note_off_c, 9, 38, 64
9, 93840, Note_on_c, 9, 35, 70
9, 93840, Note_on_c, 9, 42, 70
9, 93940, Note_off_c, 9, 42, 64
9, 93940, Note_off_c, 9, 35, 64
9, 94080, Note_on_c, 9, 35, 90
9, 94080, Note_on_c, 9, 42, 90
9, 94180, Note_off_c, 9, 42, 64
9, 94180, Note_off_c, 9, 35, 64
9, 94320, Note_on_c, 9, 42, 70
9, 94420, Note_off_c, 9, 42, 64
9, 94560, Note_on_c, 9, 38, 100
9, 94560, Note_on_c, 9, 42, 100
9, 94660, Note_off_c, 9, 42, 64
9, 94660, Note_off_c, 9, 38, 64
9, 94800, Note_on_c, 9, 35, 80
9, 94800, Note_on_c, 9, 42, 100
9, 94900, Note_off_c, 9, 42, 64
9, 94900, Note_off_c, 9, 35, 64
9, 95040, Note_on_c, 9, 35, 100
9, 95040, Note_on_c, 9, 42, 90
9, 95140, Note_off_c, 9, 42, 64
9, 95140, Note_off_c, 9, 35, 64
9, 95280, Note_on_c, 9, 35, 90
9, 95280, Note_on_c, 9, 42, 70
9, 95380, Note_off_c, 9, 42, 64
9, 95380, Note_off_c, 9, 35, 64
9, 95520, Note_on_c, 9, 38, 100
9, 95520, Note_on_c, 9, 42, 100
9, 95620, Note_off_c, 9, 42, 64
9, 95620, Note_off_c, 9, 38, 64
9, 95760, Note_on_c, 9, 35, 70
9, 95760, Note_on_c, 9, 42, 70
9, 95860, Note_off_c, 9, 42, 64
9, 95860, Note_off_c, 9, 35, 64
9, 96000, Note_on_c, 9, 35, 90
9, 96000, Note_on_c, 9, 42, 90
9, 96100, Note_off_c, 9, 42, 64
9, 96100, Note_off_c, 9, 35, 64
9, 96240, Note_on_c, 9, 42, 70
9, 96340, Note_off_c, 9, 42, 64
9, 96480, Note_on_c, 9, 38, 100
9, 96480, Note_on_c, 9, 42, 100
9, 96580, Note_off_c, 9, 42, 64
9, 96580, Note_off_c, 9, 38, 64
9, 96720, Note_on_c, 9, 35, 80
9, 96720, Note_on_c, 9, 42, 70
9, 96820, Note_off_c, 9, 42, 64
9, 96820, Note_off_c, 9, 35, 64
9, 96960, Note_on_c, 9, 35, 100
9, 96960, Note_on_c, 9, 42, 90
9, 97060, Note_off_c, 9, 42, 64
9, 97060, Note_off_c, 9, 35, 64
9, 97200, Note_on_c, 9, 41, 72
9, 97300, Note_off_c, 9, 41, 64
9, 97440, Note_on_c, 9, 38, 100
9, 97440, Note_on_c, 9, 42, 100
9, 97540, Note_off_c, 9, 42, 64
9, 97540, Note_off_c, 9, 38, 64
9, 97680, Note_on_c, 9, 35, 70
9, 97680, Note_on_c, 9, 42, 70
9, 97780, Note_off_c, 9, 42, 64
9, 97780, Note_off_c, 9, 35, 64
9, 97920, Note_on_c, 9, 35, 90
9, 97920, Note_on_c, 9, 42, 90
9, 98020, Note_off_c, 9, 42, 64
9, 98020, Note_off_c, 9, 35, 64
9, 98160, Note_on_c, 9, 42, 70
9, 98260, Note_off_c, 9, 42, 64
9, 98400, Note_on_c, 9, 38, 100
9, 98400, Note_on_c, 9, 42, 100
9, 98500, Note_off_c, 9, 42, 64
9, 98500, Note_off_c, 9, 38, 64
9, 98640, Note_on_c, 9, 35, 80
9, 98640, Note_on_c, 9, 42, 100
9, 98740, Note_off_c, 9, 42, 64
9, 98740, Note_off_c, 9, 35, 64
9, 98880, Note_on_c, 9, 35, 100
9, 98880, Note_on_c, 9, 42, 90
9, 98980, Note_off_c, 9, 42, 64
9, 98980, Note_off_c, 9, 35, 64
9, 99120, Note_on_c, 9, 35, 90
9, 99120, Note_on_c, 9, 42, 70
9, 99220, Note_off_c, 9, 42, 64
9, 99220, Note_off_c, 9, 35, 64
9, 99360, Note_on_c, 9, 38, 100
9, 99360, Note_on_c, 9, 42, 100
9, 99460, Note_off_c, 9, 42, 64
9, 99460, Note_off_c, 9, 38, 64
9, 99600, Note_on_c, 9, 35, 70
9, 99600, Note_on_c, 9, 42, 70
9, 99700, Note_off_c, 9, 42, 64
9, 99700, Note_off_c, 9, 35, 64
9, 99840, Note_on_c, 9, 35, 90
9, 99840, Note_on_c, 9, 42, 90
9, 99940, Note_off_c, 9, 42, 64
9, 99940, Note_off_c, 9, 35, 64
9, 100080, Note_on_c, 9, 42, 70
9, 100180, Note_off_c, 9, 42, 64
9, 100320, Note_on_c, 9, 38, 100
9, 100320, Note_on_c, 9, 42, 100
9, 100420, Note_off_c, 9, 42, 64
9, 100420, Note_off_c, 9, 38, 64
9, 100560, Note_on_c, 9, 35, 80
9, 100560, Note_on_c, 9, 42, 70
9, 100660, Note_off_c, 9, 42, 64
9, 100660, Note_off_c, 9, 35, 64
9, 100800, Note_on_c, 9, 35, 100
9, 100800, Note_on_c, 9, 42, 90
9, 100900, Note_off_c, 9, 42, 64
9, 100900, Note_off_c, 9, 35, 64
9, 101040, Note_on_c, 9, 42, 70
9, 101140, Note_off_c, 9, 42, 64
9, 101280, Note_on_c, 9, 38, 100
9, 101280, Note_on_c, 9, 42, 100
9, 101380, Note_off_c, 9, 42, 64
9, 101380, Note_off_c, 9, 38, 64
9, 101520, Note_on_c, 9, 35, 70
9, 101520, Note_on_c, 9, 42, 70
9, 101620, Note_off_c, 9, 42, 64
9, 101620, Note_off_c, 9, 35, 64
9, 101640, Note_on_c, 9, 46, 70
9, 101740, Note_off_c, 9, 46, 64
9, 101760, Note_on_c, 9, 35, 90
9, 101760, Note_on_c, 9, 42, 90
9, 101860, Note_off_c, 9, 42, 64
9, 101860, Note_off_c, 9, 35, 64
9, 102000, Note_on_c, 9, 42, 70
9, 102100, Note_off_c, 9, 42, 64
9, 102240, Note_on_c, 9, 38, 100
9, 102240, Note_on_c, 9, 42, 115
9, 102340, Note_off_c, 9, 42, 64
9, 102340, Note_off_c, 9, 38, 64
9, 102480, Note_on_c, 9, 35, 80
9, 102480, Note_on_c, 9, 42, 70
9, 102580, Note_off_c, 9, 42, 64
9, 102580, Note_off_c, 9, 35, 64
9, 102720, Note_on_c, 9, 35, 100
9, 102720, Note_on_c, 9, 42, 90
9, 102820, Note_off_c, 9, 42, 64
9, 102820, Note_off_c, 9, 35, 64
9, 102820, End_track
10, 0, Start_track
10, 0, Title_t, "Follow That Dream"
10, 0, MIDI_port, 0
10, 0, End_track
11, 0, Start_track
11, 0, Title_t, "Words and Music by:"
11, 0, MIDI_port, 0
11, 0, End_track
12, 0, Start_track
12, 0, Title_t, "Fred Wise and"
12, 0, MIDI_port, 0
12, 0, End_track
13, 0, Start_track
13, 0, Title_t, "Ben Weisman"
13, 0, MIDI_port, 0
13, 0, End_track
14, 0, Start_track
14, 0, Title_t, "Sequenced by:"
14, 0, MIDI_port, 0
14, 0, End_track
15, 0, Start_track
15, 0, Title_t, "Gary Rogers"
15, 0, MIDI_port, 0
15, 0, End_track
16, 0, Start_track
16, 0, Title_t, "10/99"
16, 0, MIDI_port, 0
16, 0, End_track
0, 0, End_of_file
