0, 0, Header, 1, 23, 480
1, 0, Start_track
1, 0, System_exclusive, 10, 65, 16, 66, 18, 64, 0, 127, 0, 65, 247
1, 0, Text_t, "forever man - try to be your forever man.\012"
1, 0, Title_t, "untitled"
1, 0, Tempo, 545455
1, 0, Time_signature, 4, 2, 24, 8
1, 0, Key_signature, 0, "major"
1, 0, End_track
2, 0, Start_track
2, 0, Title_t, "Vocal | Forever Man"
2, 0, MIDI_port, 0
2, 0, Channel_prefix, 0
2, 0, Control_c, 0, 10, 64
2, 20, Control_c, 0, 121, 0
2, 20, Control_c, 0, 0, 0
2, 20, Control_c, 0, 7, 100
2, 20, Control_c, 0, 91, 0
2, 20, Control_c, 0, 93, 0
2, 20, Control_c, 0, 10, 64
2, 20, Control_c, 0, 1, 0
2, 20, Control_c, 0, 64, 0
2, 20, Pitch_bend_c, 0, 8192
2, 488, Program_c, 0, 66
2, 19680, Note_on_c, 0, 65, 119
2, 19784, Note_off_c, 0, 65, 64
2, 19800, Note_on_c, 0, 67, 112
2, 19904, Note_off_c, 0, 67, 64
2, 19920, Note_on_c, 0, 69, 115
2, 20024, Note_off_c, 0, 69, 64
2, 20040, Note_on_c, 0, 69, 123
2, 20364, Note_off_c, 0, 69, 64
2, 20400, Note_on_c, 0, 67, 119
2, 20616, Note_off_c, 0, 67, 64
2, 20760, Note_on_c, 0, 65, 117
2, 20976, Note_off_c, 0, 65, 64
2, 21000, Note_on_c, 0, 65, 125
2, 21324, Note_off_c, 0, 65, 64
2, 21360, Note_on_c, 0, 65, 115
2, 21684, Note_off_c, 0, 65, 64
2, 21720, Note_on_c, 0, 65, 119
2, 22044, Note_off_c, 0, 65, 64
2, 22080, Note_on_c, 0, 62, 127
2, 22404, Note_off_c, 0, 62, 64
2, 22440, Note_on_c, 0, 65, 115
2, 22544, Note_off_c, 0, 65, 64
2, 23520, Note_on_c, 0, 65, 107
2, 23624, Note_off_c, 0, 65, 64
2, 23640, Note_on_c, 0, 67, 104
2, 23744, Note_off_c, 0, 67, 64
2, 23760, Note_on_c, 0, 69, 93
2, 23864, Note_off_c, 0, 69, 64
2, 23880, Note_on_c, 0, 67, 119
2, 24096, Note_off_c, 0, 67, 64
2, 24120, Note_on_c, 0, 67, 107
2, 24336, Note_off_c, 0, 67, 64
2, 24360, Note_on_c, 0, 65, 115
2, 24576, Note_off_c, 0, 65, 64
2, 24600, Note_on_c, 0, 65, 115
2, 24816, Note_off_c, 0, 65, 64
2, 24840, Note_on_c, 0, 65, 115
2, 25164, Note_off_c, 0, 65, 64
2, 25200, Note_on_c, 0, 62, 115
2, 25304, Note_off_c, 0, 62, 64
2, 25320, Note_on_c, 0, 60, 117
2, 25424, Note_off_c, 0, 60, 64
2, 25440, Note_on_c, 0, 57, 115
2, 25872, Note_off_c, 0, 57, 64
2, 27360, Note_on_c, 0, 65, 119
2, 27464, Note_off_c, 0, 65, 64
2, 27480, Note_on_c, 0, 67, 115
2, 27584, Note_off_c, 0, 67, 64
2, 27600, Note_on_c, 0, 69, 104
2, 27704, Note_off_c, 0, 69, 64
2, 27720, Note_on_c, 0, 67, 119
2, 28044, Note_off_c, 0, 67, 64
2, 28080, Note_on_c, 0, 65, 119
2, 28296, Note_off_c, 0, 65, 64
2, 28320, Note_on_c, 0, 65, 115
2, 28536, Note_off_c, 0, 65, 64
2, 28560, Note_on_c, 0, 65, 125
2, 28664, Note_off_c, 0, 65, 64
2, 28680, Note_on_c, 0, 65, 119
2, 28784, Note_off_c, 0, 65, 64
2, 28800, Note_on_c, 0, 65, 117
2, 29344, Note_off_c, 0, 65, 64
2, 29400, Note_on_c, 0, 62, 119
2, 29724, Note_off_c, 0, 62, 64
2, 29760, Note_on_c, 0, 62, 119
2, 30628, Note_off_c, 0, 62, 64
2, 31200, Note_on_c, 0, 60, 119
2, 31304, Note_off_c, 0, 60, 64
2, 31320, Note_on_c, 0, 62, 115
2, 31536, Note_off_c, 0, 62, 64
2, 31560, Note_on_c, 0, 62, 117
2, 31664, Note_off_c, 0, 62, 64
2, 31800, Note_on_c, 0, 65, 119
2, 32344, Note_off_c, 0, 65, 64
2, 32400, Note_on_c, 0, 62, 115
2, 32504, Note_off_c, 0, 62, 64
2, 32520, Note_on_c, 0, 60, 119
2, 32624, Note_off_c, 0, 60, 64
2, 32640, Note_on_c, 0, 62, 119
2, 32744, Note_off_c, 0, 62, 64
2, 32760, Note_on_c, 0, 60, 117
2, 32864, Note_off_c, 0, 60, 64
2, 32880, Note_on_c, 0, 62, 119
2, 33532, Note_off_c, 0, 62, 64
2, 34800, Note_on_c, 0, 60, 112
2, 35124, Note_off_c, 0, 60, 64
2, 35160, Note_on_c, 0, 62, 119
2, 35376, Note_off_c, 0, 62, 64
2, 35400, Note_on_c, 0, 62, 123
2, 35616, Note_off_c, 0, 62, 64
2, 35640, Note_on_c, 0, 67, 112
2, 36184, Note_off_c, 0, 67, 64
2, 36240, Note_on_c, 0, 65, 117
2, 36564, Note_off_c, 0, 65, 64
2, 36600, Note_on_c, 0, 62, 119
2, 36704, Note_off_c, 0, 62, 64
2, 36720, Note_on_c, 0, 62, 117
2, 36824, Note_off_c, 0, 62, 64
2, 36840, Note_on_c, 0, 60, 119
2, 36944, Note_off_c, 0, 60, 64
2, 36960, Note_on_c, 0, 57, 112
2, 37392, Note_off_c, 0, 57, 64
2, 44640, Note_on_c, 0, 65, 119
2, 44744, Note_off_c, 0, 65, 64
2, 44760, Note_on_c, 0, 67, 115
2, 44864, Note_off_c, 0, 67, 64
2, 44880, Note_on_c, 0, 69, 119
2, 44984, Note_off_c, 0, 69, 64
2, 45000, Note_on_c, 0, 69, 125
2, 45216, Note_off_c, 0, 69, 64
2, 45240, Note_on_c, 0, 67, 125
2, 45564, Note_off_c, 0, 67, 64
2, 45600, Note_on_c, 0, 65, 123
2, 45816, Note_off_c, 0, 65, 64
2, 45840, Note_on_c, 0, 65, 119
2, 46272, Note_off_c, 0, 65, 64
2, 46320, Note_on_c, 0, 65, 119
2, 46644, Note_off_c, 0, 65, 64
2, 46680, Note_on_c, 0, 65, 115
2, 46896, Note_off_c, 0, 65, 64
2, 46920, Note_on_c, 0, 65, 119
2, 47464, Note_off_c, 0, 65, 64
2, 47520, Note_on_c, 0, 62, 123
2, 47624, Note_off_c, 0, 62, 64
2, 47640, Note_on_c, 0, 65, 115
2, 47964, Note_off_c, 0, 65, 64
2, 48360, Note_on_c, 0, 62, 119
2, 48464, Note_off_c, 0, 62, 64
2, 48480, Note_on_c, 0, 60, 119
2, 48696, Note_off_c, 0, 60, 64
2, 48720, Note_on_c, 0, 62, 123
2, 48936, Note_off_c, 0, 62, 64
2, 48960, Note_on_c, 0, 67, 127
2, 49176, Note_off_c, 0, 67, 64
2, 49200, Note_on_c, 0, 67, 123
2, 49304, Note_off_c, 0, 67, 64
2, 49320, Note_on_c, 0, 65, 119
2, 49536, Note_off_c, 0, 65, 64
2, 49560, Note_on_c, 0, 65, 119
2, 49776, Note_off_c, 0, 65, 64
2, 49800, Note_on_c, 0, 62, 127
2, 49904, Note_off_c, 0, 62, 64
2, 49920, Note_on_c, 0, 60, 115
2, 50024, Note_off_c, 0, 60, 64
2, 50040, Note_on_c, 0, 57, 119
2, 50364, Note_off_c, 0, 57, 64
2, 51840, Note_on_c, 0, 60, 119
2, 52056, Note_off_c, 0, 60, 64
2, 52080, Note_on_c, 0, 62, 125
2, 52184, Note_off_c, 0, 62, 64
2, 52200, Note_on_c, 0, 62, 117
2, 52416, Note_off_c, 0, 62, 64
2, 52440, Note_on_c, 0, 62, 127
2, 52764, Note_off_c, 0, 62, 64
2, 52800, Note_on_c, 0, 65, 119
2, 53232, Note_off_c, 0, 65, 64
2, 53280, Note_on_c, 0, 62, 125
2, 53384, Note_off_c, 0, 62, 64
2, 53400, Note_on_c, 0, 60, 123
2, 53504, Note_off_c, 0, 60, 64
2, 53520, Note_on_c, 0, 65, 119
2, 53736, Note_off_c, 0, 65, 64
2, 53760, Note_on_c, 0, 62, 127
2, 53864, Note_off_c, 0, 62, 64
2, 53880, Note_on_c, 0, 65, 125
2, 54204, Note_off_c, 0, 65, 64
2, 55440, Note_on_c, 0, 57, 119
2, 55656, Note_off_c, 0, 57, 64
2, 55680, Note_on_c, 0, 60, 119
2, 55896, Note_off_c, 0, 60, 64
2, 55920, Note_on_c, 0, 62, 119
2, 56024, Note_off_c, 0, 62, 64
2, 56040, Note_on_c, 0, 62, 115
2, 56256, Note_off_c, 0, 62, 64
2, 56280, Note_on_c, 0, 62, 127
2, 56604, Note_off_c, 0, 62, 64
2, 56640, Note_on_c, 0, 67, 119
2, 57184, Note_off_c, 0, 67, 64
2, 57240, Note_on_c, 0, 65, 115
2, 57564, Note_off_c, 0, 65, 64
2, 57600, Note_on_c, 0, 65, 119
2, 57816, Note_off_c, 0, 65, 64
2, 57840, Note_on_c, 0, 62, 94
2, 57944, Note_off_c, 0, 62, 64
2, 57960, Note_on_c, 0, 60, 115
2, 58064, Note_off_c, 0, 60, 64
2, 58080, Note_on_c, 0, 57, 117
2, 58512, Note_off_c, 0, 57, 64
2, 59520, Note_on_c, 0, 60, 112
2, 59736, Note_off_c, 0, 60, 64
2, 59760, Note_on_c, 0, 62, 112
2, 59864, Note_off_c, 0, 62, 64
2, 59880, Note_on_c, 0, 62, 125
2, 60096, Note_off_c, 0, 62, 64
2, 60120, Note_on_c, 0, 62, 123
2, 60444, Note_off_c, 0, 62, 64
2, 60480, Note_on_c, 0, 65, 119
2, 60912, Note_off_c, 0, 65, 64
2, 60960, Note_on_c, 0, 62, 119
2, 61064, Note_off_c, 0, 62, 64
2, 61080, Note_on_c, 0, 60, 127
2, 61296, Note_off_c, 0, 60, 64
2, 61320, Note_on_c, 0, 62, 119
2, 61536, Note_off_c, 0, 62, 64
2, 61560, Note_on_c, 0, 60, 119
2, 61664, Note_off_c, 0, 60, 64
2, 61680, Note_on_c, 0, 62, 123
2, 62332, Note_off_c, 0, 62, 64
2, 94800, Note_on_c, 0, 67, 123
2, 94904, Note_off_c, 0, 67, 64
2, 94920, Note_on_c, 0, 69, 123
2, 95024, Note_off_c, 0, 69, 64
2, 95040, Note_on_c, 0, 69, 119
2, 95144, Note_off_c, 0, 69, 64
2, 95160, Note_on_c, 0, 69, 119
2, 95376, Note_off_c, 0, 69, 64
2, 95400, Note_on_c, 0, 67, 112
2, 95724, Note_off_c, 0, 67, 64
2, 95760, Note_on_c, 0, 67, 117
2, 95864, Note_off_c, 0, 67, 64
2, 95880, Note_on_c, 0, 65, 117
2, 96096, Note_off_c, 0, 65, 64
2, 96120, Note_on_c, 0, 65, 115
2, 96336, Note_off_c, 0, 65, 64
2, 96360, Note_on_c, 0, 65, 115
2, 96684, Note_off_c, 0, 65, 64
2, 96720, Note_on_c, 0, 65, 115
2, 96936, Note_off_c, 0, 65, 64
2, 96960, Note_on_c, 0, 65, 117
2, 97176, Note_off_c, 0, 65, 64
2, 97200, Note_on_c, 0, 62, 115
2, 97416, Note_off_c, 0, 62, 64
2, 98280, Note_on_c, 0, 62, 125
2, 98384, Note_off_c, 0, 62, 64
2, 98400, Note_on_c, 0, 60, 125
2, 98616, Note_off_c, 0, 60, 64
2, 98640, Note_on_c, 0, 62, 119
2, 98856, Note_off_c, 0, 62, 64
2, 98880, Note_on_c, 0, 67, 115
2, 99096, Note_off_c, 0, 67, 64
2, 99120, Note_on_c, 0, 67, 119
2, 99224, Note_off_c, 0, 67, 64
2, 99240, Note_on_c, 0, 65, 115
2, 99456, Note_off_c, 0, 65, 64
2, 99480, Note_on_c, 0, 65, 125
2, 100024, Note_off_c, 0, 65, 64
2, 100080, Note_on_c, 0, 62, 123
2, 100184, Note_off_c, 0, 62, 64
2, 100200, Note_on_c, 0, 60, 119
2, 100304, Note_off_c, 0, 60, 64
2, 100320, Note_on_c, 0, 57, 117
2, 100752, Note_off_c, 0, 57, 64
2, 101760, Note_on_c, 0, 60, 119
2, 101976, Note_off_c, 0, 60, 64
2, 102000, Note_on_c, 0, 62, 123
2, 102104, Note_off_c, 0, 62, 64
2, 102120, Note_on_c, 0, 62, 123
2, 102336, Note_off_c, 0, 62, 64
2, 102360, Note_on_c, 0, 62, 125
2, 102684, Note_off_c, 0, 62, 64
2, 102720, Note_on_c, 0, 67, 115
2, 103152, Note_off_c, 0, 67, 64
2, 103200, Note_on_c, 0, 65, 123
2, 103304, Note_off_c, 0, 65, 64
2, 103320, Note_on_c, 0, 62, 123
2, 103536, Note_off_c, 0, 62, 64
2, 103560, Note_on_c, 0, 65, 119
2, 103664, Note_off_c, 0, 65, 64
2, 103680, Note_on_c, 0, 62, 115
2, 103784, Note_off_c, 0, 62, 64
2, 103800, Note_on_c, 0, 65, 115
2, 104560, Note_off_c, 0, 65, 64
2, 105600, Note_on_c, 0, 60, 127
2, 105816, Note_off_c, 0, 60, 64
2, 105840, Note_on_c, 0, 62, 125
2, 105944, Note_off_c, 0, 62, 64
2, 105960, Note_on_c, 0, 62, 117
2, 106176, Note_off_c, 0, 62, 64
2, 106200, Note_on_c, 0, 62, 119
2, 106524, Note_off_c, 0, 62, 64
2, 106560, Note_on_c, 0, 67, 125
2, 107104, Note_off_c, 0, 67, 64
2, 107160, Note_on_c, 0, 65, 119
2, 107376, Note_off_c, 0, 65, 64
2, 107400, Note_on_c, 0, 65, 123
2, 107724, Note_off_c, 0, 65, 64
2, 107760, Note_on_c, 0, 62, 119
2, 108412, Note_off_c, 0, 62, 64
2, 109440, Note_on_c, 0, 60, 119
2, 109656, Note_off_c, 0, 60, 64
2, 109680, Note_on_c, 0, 62, 125
2, 109784, Note_off_c, 0, 62, 64
2, 109800, Note_on_c, 0, 62, 125
2, 110016, Note_off_c, 0, 62, 64
2, 110040, Note_on_c, 0, 62, 119
2, 110364, Note_off_c, 0, 62, 64
2, 110400, Note_on_c, 0, 65, 119
2, 110832, Note_off_c, 0, 65, 64
2, 110880, Note_on_c, 0, 62, 123
2, 110984, Note_off_c, 0, 62, 64
2, 111000, Note_on_c, 0, 60, 115
2, 111104, Note_off_c, 0, 60, 64
2, 111120, Note_on_c, 0, 62, 119
2, 111444, Note_off_c, 0, 62, 64
2, 111480, Note_on_c, 0, 62, 125
2, 112240, Note_off_c, 0, 62, 64
2, 112680, Note_on_c, 0, 57, 119
2, 112784, Note_off_c, 0, 57, 64
2, 112800, Note_on_c, 0, 55, 125
2, 112904, Note_off_c, 0, 55, 64
2, 112920, Note_on_c, 0, 57, 123
2, 113136, Note_off_c, 0, 57, 64
2, 113160, Note_on_c, 0, 62, 125
2, 113592, Note_off_c, 0, 62, 64
2, 113640, Note_on_c, 0, 57, 123
2, 113744, Note_off_c, 0, 57, 64
2, 113760, Note_on_c, 0, 55, 115
2, 113864, Note_off_c, 0, 55, 64
2, 113880, Note_on_c, 0, 57, 115
2, 114096, Note_off_c, 0, 57, 64
2, 114120, Note_on_c, 0, 62, 119
2, 114552, Note_off_c, 0, 62, 64
2, 114600, Note_on_c, 0, 57, 115
2, 114704, Note_off_c, 0, 57, 64
2, 114720, Note_on_c, 0, 55, 119
2, 114824, Note_off_c, 0, 55, 64
2, 114840, Note_on_c, 0, 57, 127
2, 115056, Note_off_c, 0, 57, 64
2, 115080, Note_on_c, 0, 62, 125
2, 115624, Note_off_c, 0, 62, 64
2, 116520, Note_on_c, 0, 57, 119
2, 116624, Note_off_c, 0, 57, 64
2, 116640, Note_on_c, 0, 55, 117
2, 116744, Note_off_c, 0, 55, 64
2, 116760, Note_on_c, 0, 57, 117
2, 116976, Note_off_c, 0, 57, 64
2, 117000, Note_on_c, 0, 62, 119
2, 117432, Note_off_c, 0, 62, 64
2, 117480, Note_on_c, 0, 57, 119
2, 117584, Note_off_c, 0, 57, 64
2, 117600, Note_on_c, 0, 55, 112
2, 117704, Note_off_c, 0, 55, 64
2, 117720, Note_on_c, 0, 57, 115
2, 117936, Note_off_c, 0, 57, 64
2, 117960, Note_on_c, 0, 62, 119
2, 118392, Note_off_c, 0, 62, 64
2, 118440, Note_on_c, 0, 57, 117
2, 118544, Note_off_c, 0, 57, 64
2, 118560, Note_on_c, 0, 55, 115
2, 118664, Note_off_c, 0, 55, 64
2, 118680, Note_on_c, 0, 65, 117
2, 119224, Note_off_c, 0, 65, 64
2, 119280, Note_on_c, 0, 62, 119
2, 119712, Note_off_c, 0, 62, 64
2, 120960, Note_on_c, 0, 60, 115
2, 121176, Note_off_c, 0, 60, 64
2, 121200, Note_on_c, 0, 62, 123
2, 121304, Note_off_c, 0, 62, 64
2, 121320, Note_on_c, 0, 62, 123
2, 121536, Note_off_c, 0, 62, 64
2, 121560, Note_on_c, 0, 62, 115
2, 121884, Note_off_c, 0, 62, 64
2, 122160, Note_on_c, 0, 67, 117
2, 122704, Note_off_c, 0, 67, 64
2, 122760, Note_on_c, 0, 65, 123
2, 123084, Note_off_c, 0, 65, 64
2, 123120, Note_on_c, 0, 65, 115
2, 123552, Note_off_c, 0, 65, 64
2, 123600, Note_on_c, 0, 62, 127
2, 123704, Note_off_c, 0, 62, 64
2, 123720, Note_on_c, 0, 60, 115
2, 123824, Note_off_c, 0, 60, 64
2, 123840, Note_on_c, 0, 57, 119
2, 124056, Note_off_c, 0, 57, 64
2, 124200, Note_on_c, 0, 57, 115
2, 124304, Note_off_c, 0, 57, 64
2, 124320, Note_on_c, 0, 55, 125
2, 124424, Note_off_c, 0, 55, 64
2, 124440, Note_on_c, 0, 57, 119
2, 124656, Note_off_c, 0, 57, 64
2, 124680, Note_on_c, 0, 62, 119
2, 125112, Note_off_c, 0, 62, 64
2, 125160, Note_on_c, 0, 57, 115
2, 125264, Note_off_c, 0, 57, 64
2, 125280, Note_on_c, 0, 55, 117
2, 125384, Note_off_c, 0, 55, 64
2, 125400, Note_on_c, 0, 57, 119
2, 125616, Note_off_c, 0, 57, 64
2, 125640, Note_on_c, 0, 62, 119
2, 126072, Note_off_c, 0, 62, 64
2, 126120, Note_on_c, 0, 57, 110
2, 126224, Note_off_c, 0, 57, 64
2, 126240, Note_on_c, 0, 55, 112
2, 126344, Note_off_c, 0, 55, 64
2, 126360, Note_on_c, 0, 57, 115
2, 126464, Note_off_c, 0, 57, 64
2, 126960, Note_on_c, 0, 62, 125
2, 127284, Note_off_c, 0, 62, 64
2, 127320, Note_on_c, 0, 60, 117
2, 127424, Note_off_c, 0, 60, 64
2, 127440, Note_on_c, 0, 62, 125
2, 127656, Note_off_c, 0, 62, 64
2, 128040, Note_on_c, 0, 57, 115
2, 128144, Note_off_c, 0, 57, 64
2, 128160, Note_on_c, 0, 55, 125
2, 128264, Note_off_c, 0, 55, 64
2, 128280, Note_on_c, 0, 57, 119
2, 128496, Note_off_c, 0, 57, 64
2, 128520, Note_on_c, 0, 62, 119
2, 128952, Note_off_c, 0, 62, 64
2, 129000, Note_on_c, 0, 57, 119
2, 129104, Note_off_c, 0, 57, 64
2, 129120, Note_on_c, 0, 55, 107
2, 129224, Note_off_c, 0, 55, 64
2, 129240, Note_on_c, 0, 57, 119
2, 129456, Note_off_c, 0, 57, 64
2, 129480, Note_on_c, 0, 62, 117
2, 129912, Note_off_c, 0, 62, 64
2, 129960, Note_on_c, 0, 57, 115
2, 130176, Note_off_c, 0, 57, 64
2, 130200, Note_on_c, 0, 55, 119
2, 130416, Note_off_c, 0, 55, 64
2, 130440, Note_on_c, 0, 57, 117
2, 130872, Note_off_c, 0, 57, 64
2, 130920, Note_on_c, 0, 57, 115
2, 131024, Note_off_c, 0, 57, 64
2, 131040, Note_on_c, 0, 55, 117
2, 131144, Note_off_c, 0, 55, 64
2, 131160, Note_on_c, 0, 57, 119
2, 131376, Note_off_c, 0, 57, 64
2, 131400, Note_on_c, 0, 62, 123
2, 131832, Note_off_c, 0, 62, 64
2, 131880, Note_on_c, 0, 57, 119
2, 131984, Note_off_c, 0, 57, 64
2, 132000, Note_on_c, 0, 55, 107
2, 132104, Note_off_c, 0, 55, 64
2, 132120, Note_on_c, 0, 57, 112
2, 132336, Note_off_c, 0, 57, 64
2, 132360, Note_on_c, 0, 62, 115
2, 132904, Note_off_c, 0, 62, 64
2, 133800, Note_on_c, 0, 57, 115
2, 133904, Note_off_c, 0, 57, 64
2, 133920, Note_on_c, 0, 55, 107
2, 134024, Note_off_c, 0, 55, 64
2, 134040, Note_on_c, 0, 57, 115
2, 134256, Note_off_c, 0, 57, 64
2, 134280, Note_on_c, 0, 62, 119
2, 134712, Note_off_c, 0, 62, 64
2, 134760, Note_on_c, 0, 57, 119
2, 134864, Note_off_c, 0, 57, 64
2, 134880, Note_on_c, 0, 55, 119
2, 134984, Note_off_c, 0, 55, 64
2, 135000, Note_on_c, 0, 57, 119
2, 135216, Note_off_c, 0, 57, 64
2, 135240, Note_on_c, 0, 62, 125
2, 135672, Note_off_c, 0, 62, 64
2, 135720, Note_on_c, 0, 57, 119
2, 135824, Note_off_c, 0, 57, 64
2, 135840, Note_on_c, 0, 55, 119
2, 135944, Note_off_c, 0, 55, 64
2, 135960, Note_on_c, 0, 65, 115
2, 136720, Note_off_c, 0, 65, 64
2, 136800, Note_on_c, 0, 62, 119
2, 137232, Note_off_c, 0, 62, 64
2, 138240, Note_on_c, 0, 60, 119
2, 138456, Note_off_c, 0, 60, 64
2, 138480, Note_on_c, 0, 62, 119
2, 138584, Note_off_c, 0, 62, 64
2, 138600, Note_on_c, 0, 62, 117
2, 138816, Note_off_c, 0, 62, 64
2, 138840, Note_on_c, 0, 62, 119
2, 139164, Note_off_c, 0, 62, 64
2, 139200, Note_on_c, 0, 65, 119
2, 139632, Note_off_c, 0, 65, 64
2, 139680, Note_on_c, 0, 62, 119
2, 139784, Note_off_c, 0, 62, 64
2, 139800, Note_on_c, 0, 60, 115
2, 139904, Note_off_c, 0, 60, 64
2, 139920, Note_on_c, 0, 62, 119
2, 140244, Note_off_c, 0, 62, 64
2, 140280, Note_on_c, 0, 60, 115
2, 140384, Note_off_c, 0, 60, 64
2, 142560, Control_c, 0, 91, 0
2, 142560, Control_c, 0, 93, 0
2, 142560, Control_c, 0, 1, 0
2, 142560, Control_c, 0, 0, 0
2, 142560, Control_c, 0, 10, 64
2, 142560, Control_c, 0, 64, 0
2, 142560, Control_c, 0, 7, 127
2, 142560, Pitch_bend_c, 0, 8192
2, 142560, End_track
3, 0, Start_track
3, 0, Title_t, "Choir | Eric Clapton"
3, 0, MIDI_port, 0
3, 0, Channel_prefix, 1
3, 0, Control_c, 1, 10, 64
3, 20, Control_c, 1, 121, 0
3, 20, Control_c, 1, 0, 0
3, 20, Control_c, 1, 7, 100
3, 20, Control_c, 1, 91, 0
3, 20, Control_c, 1, 93, 43
3, 20, Control_c, 1, 10, 84
3, 20, Control_c, 1, 1, 0
3, 20, Control_c, 1, 64, 0
3, 20, Pitch_bend_c, 1, 8192
3, 508, Program_c, 1, 52
3, 57600, Note_on_c, 1, 81, 77
3, 57600, Note_on_c, 1, 77, 84
3, 57600, Note_on_c, 1, 74, 77
3, 57600, Note_on_c, 1, 86, 117
3, 57956, Note_off_c, 1, 86, 64
3, 57956, Note_off_c, 1, 74, 64
3, 57956, Note_off_c, 1, 77, 64
3, 57956, Note_off_c, 1, 81, 64
3, 57960, Note_on_c, 1, 76, 78
3, 57960, Note_on_c, 1, 79, 66
3, 57960, Note_on_c, 1, 72, 78
3, 57960, Note_on_c, 1, 84, 112
3, 58196, Note_off_c, 1, 84, 64
3, 58196, Note_off_c, 1, 72, 64
3, 58196, Note_off_c, 1, 79, 64
3, 58196, Note_off_c, 1, 76, 64
3, 58200, Note_on_c, 1, 77, 69
3, 58200, Note_on_c, 1, 74, 84
3, 58200, Note_on_c, 1, 81, 117
3, 58200, Note_on_c, 1, 69, 67
3, 58316, Note_off_c, 1, 69, 64
3, 58316, Note_off_c, 1, 81, 64
3, 58316, Note_off_c, 1, 74, 64
3, 58316, Note_off_c, 1, 77, 64
3, 58320, Note_on_c, 1, 81, 73
3, 58320, Note_on_c, 1, 77, 74
3, 58320, Note_on_c, 1, 74, 89
3, 58320, Note_on_c, 1, 86, 117
3, 59036, Note_off_c, 1, 86, 64
3, 59036, Note_off_c, 1, 74, 64
3, 59036, Note_off_c, 1, 77, 64
3, 59036, Note_off_c, 1, 81, 64
3, 126720, Note_on_c, 1, 77, 85
3, 126720, Note_on_c, 1, 81, 81
3, 126720, Note_on_c, 1, 74, 82
3, 126720, Note_on_c, 1, 86, 117
3, 127076, Note_off_c, 1, 86, 64
3, 127076, Note_off_c, 1, 74, 64
3, 127076, Note_off_c, 1, 81, 64
3, 127076, Note_off_c, 1, 77, 64
3, 127080, Note_on_c, 1, 76, 84
3, 127080, Note_on_c, 1, 79, 53
3, 127080, Note_on_c, 1, 84, 117
3, 127080, Note_on_c, 1, 72, 89
3, 127316, Note_off_c, 1, 72, 64
3, 127316, Note_off_c, 1, 84, 64
3, 127316, Note_off_c, 1, 79, 64
3, 127316, Note_off_c, 1, 76, 64
3, 127320, Note_on_c, 1, 69, 77
3, 127320, Note_on_c, 1, 77, 89
3, 127320, Note_on_c, 1, 74, 93
3, 127320, Note_on_c, 1, 81, 119
3, 127436, Note_off_c, 1, 81, 64
3, 127436, Note_off_c, 1, 74, 64
3, 127436, Note_off_c, 1, 77, 64
3, 127436, Note_off_c, 1, 69, 64
3, 127440, Note_on_c, 1, 81, 69
3, 127440, Note_on_c, 1, 77, 73
3, 127440, Note_on_c, 1, 86, 123
3, 127440, Note_on_c, 1, 74, 78
3, 128156, Note_off_c, 1, 74, 64
3, 128156, Note_off_c, 1, 86, 64
3, 128156, Note_off_c, 1, 77, 64
3, 128156, Note_off_c, 1, 81, 64
3, 130560, Note_on_c, 1, 77, 85
3, 130560, Note_on_c, 1, 81, 81
3, 130560, Note_on_c, 1, 74, 82
3, 130560, Note_on_c, 1, 86, 117
3, 130916, Note_off_c, 1, 86, 64
3, 130916, Note_off_c, 1, 74, 64
3, 130916, Note_off_c, 1, 81, 64
3, 130916, Note_off_c, 1, 77, 64
3, 130920, Note_on_c, 1, 76, 84
3, 130920, Note_on_c, 1, 79, 53
3, 130920, Note_on_c, 1, 84, 117
3, 130920, Note_on_c, 1, 72, 89
3, 131156, Note_off_c, 1, 72, 64
3, 131156, Note_off_c, 1, 84, 64
3, 131156, Note_off_c, 1, 79, 64
3, 131156, Note_off_c, 1, 76, 64
3, 131160, Note_on_c, 1, 69, 77
3, 131160, Note_on_c, 1, 77, 89
3, 131160, Note_on_c, 1, 74, 93
3, 131160, Note_on_c, 1, 81, 119
3, 131276, Note_off_c, 1, 81, 64
3, 131276, Note_off_c, 1, 74, 64
3, 131276, Note_off_c, 1, 77, 64
3, 131276, Note_off_c, 1, 69, 64
3, 131280, Note_on_c, 1, 81, 69
3, 131280, Note_on_c, 1, 77, 73
3, 131280, Note_on_c, 1, 86, 123
3, 131280, Note_on_c, 1, 74, 78
3, 131996, Note_off_c, 1, 74, 64
3, 131996, Note_off_c, 1, 86, 64
3, 131996, Note_off_c, 1, 77, 64
3, 131996, Note_off_c, 1, 81, 64
3, 134400, Note_on_c, 1, 77, 85
3, 134400, Note_on_c, 1, 81, 81
3, 134400, Note_on_c, 1, 74, 82
3, 134400, Note_on_c, 1, 86, 117
3, 134756, Note_off_c, 1, 86, 64
3, 134756, Note_off_c, 1, 74, 64
3, 134756, Note_off_c, 1, 81, 64
3, 134756, Note_off_c, 1, 77, 64
3, 134760, Note_on_c, 1, 76, 84
3, 134760, Note_on_c, 1, 79, 53
3, 134760, Note_on_c, 1, 84, 117
3, 134760, Note_on_c, 1, 72, 89
3, 134996, Note_off_c, 1, 72, 64
3, 134996, Note_off_c, 1, 84, 64
3, 134996, Note_off_c, 1, 79, 64
3, 134996, Note_off_c, 1, 76, 64
3, 135000, Note_on_c, 1, 69, 77
3, 135000, Note_on_c, 1, 77, 89
3, 135000, Note_on_c, 1, 74, 93
3, 135000, Note_on_c, 1, 81, 119
3, 135116, Note_off_c, 1, 81, 64
3, 135116, Note_off_c, 1, 74, 64
3, 135116, Note_off_c, 1, 77, 64
3, 135116, Note_off_c, 1, 69, 64
3, 135120, Note_on_c, 1, 81, 69
3, 135120, Note_on_c, 1, 77, 73
3, 135120, Note_on_c, 1, 86, 123
3, 135120, Note_on_c, 1, 74, 78
3, 135836, Note_off_c, 1, 74, 64
3, 135836, Note_off_c, 1, 86, 64
3, 135836, Note_off_c, 1, 77, 64
3, 135836, Note_off_c, 1, 81, 64
3, 135836, End_track
4, 0, Start_track
4, 0, Title_t, "E. Guitar 1"
4, 0, MIDI_port, 0
4, 0, Channel_prefix, 2
4, 0, Control_c, 2, 10, 64
4, 20, Control_c, 2, 121, 0
4, 20, Control_c, 2, 0, 0
4, 20, Control_c, 2, 7, 100
4, 20, Control_c, 2, 91, 31
4, 20, Control_c, 2, 93, 0
4, 20, Control_c, 2, 10, 54
4, 20, Control_c, 2, 1, 0
4, 20, Control_c, 2, 64, 0
4, 20, Pitch_bend_c, 2, 8192
4, 528, Program_c, 2, 29
4, 3840, Note_on_c, 2, 38, 68
4, 4556, Note_off_c, 2, 38, 64
4, 4560, Note_on_c, 2, 43, 74
4, 4676, Note_off_c, 2, 43, 64
4, 4680, Note_on_c, 2, 45, 65
4, 4916, Note_off_c, 2, 45, 64
4, 4920, Note_on_c, 2, 48, 76
4, 5156, Note_off_c, 2, 48, 64
4, 5160, Note_on_c, 2, 45, 72
4, 5276, Note_off_c, 2, 45, 64
4, 5280, Note_on_c, 2, 50, 76
4, 5756, Note_off_c, 2, 50, 64
4, 5760, Note_on_c, 2, 38, 66
4, 6476, Note_off_c, 2, 38, 64
4, 6480, Note_on_c, 2, 43, 53
4, 6596, Note_off_c, 2, 43, 64
4, 6600, Note_on_c, 2, 45, 63
4, 6836, Note_off_c, 2, 45, 64
4, 6840, Note_on_c, 2, 48, 57
4, 7076, Note_off_c, 2, 48, 64
4, 7080, Note_on_c, 2, 45, 64
4, 7196, Note_off_c, 2, 45, 64
4, 7200, Note_on_c, 2, 50, 53
4, 7676, Note_off_c, 2, 50, 64
4, 7680, Note_on_c, 2, 38, 63
4, 8396, Note_off_c, 2, 38, 64
4, 8400, Note_on_c, 2, 43, 68
4, 8516, Note_off_c, 2, 43, 64
4, 8520, Note_on_c, 2, 45, 69
4, 8756, Note_off_c, 2, 45, 64
4, 8760, Note_on_c, 2, 48, 70
4, 8996, Note_off_c, 2, 48, 64
4, 9000, Note_on_c, 2, 45, 62
4, 9116, Note_off_c, 2, 45, 64
4, 9120, Note_on_c, 2, 50, 69
4, 9596, Note_off_c, 2, 50, 64
4, 9600, Note_on_c, 2, 38, 74
4, 10316, Note_off_c, 2, 38, 64
4, 10320, Note_on_c, 2, 43, 60
4, 10436, Note_off_c, 2, 43, 64
4, 10440, Note_on_c, 2, 45, 72
4, 10676, Note_off_c, 2, 45, 64
4, 10680, Note_on_c, 2, 48, 77
4, 10916, Note_off_c, 2, 48, 64
4, 10920, Note_on_c, 2, 45, 56
4, 11036, Note_off_c, 2, 45, 64
4, 11040, Note_on_c, 2, 50, 59
4, 11516, Note_off_c, 2, 50, 64
4, 11520, Note_on_c, 2, 38, 58
4, 12236, Note_off_c, 2, 38, 64
4, 12240, Note_on_c, 2, 43, 75
4, 12356, Note_off_c, 2, 43, 64
4, 12360, Note_on_c, 2, 45, 79
4, 12596, Note_off_c, 2, 45, 64
4, 12600, Note_on_c, 2, 48, 63
4, 12836, Note_off_c, 2, 48, 64
4, 12840, Note_on_c, 2, 45, 60
4, 12956, Note_off_c, 2, 45, 64
4, 12960, Note_on_c, 2, 50, 53
4, 13436, Note_off_c, 2, 50, 64
4, 13440, Note_on_c, 2, 38, 56
4, 14156, Note_off_c, 2, 38, 64
4, 14160, Note_on_c, 2, 43, 54
4, 14276, Note_off_c, 2, 43, 64
4, 14280, Note_on_c, 2, 45, 77
4, 14516, Note_off_c, 2, 45, 64
4, 14520, Note_on_c, 2, 48, 60
4, 14756, Note_off_c, 2, 48, 64
4, 14760, Note_on_c, 2, 45, 71
4, 14876, Note_off_c, 2, 45, 64
4, 14880, Note_on_c, 2, 50, 72
4, 15356, Note_off_c, 2, 50, 64
4, 15360, Note_on_c, 2, 38, 58
4, 16076, Note_off_c, 2, 38, 64
4, 16080, Note_on_c, 2, 43, 65
4, 16196, Note_off_c, 2, 43, 64
4, 16200, Note_on_c, 2, 45, 78
4, 16436, Note_off_c, 2, 45, 64
4, 16440, Note_on_c, 2, 48, 56
4, 16676, Note_off_c, 2, 48, 64
4, 16680, Note_on_c, 2, 45, 63
4, 16796, Note_off_c, 2, 45, 64
4, 16800, Note_on_c, 2, 50, 69
4, 17276, Note_off_c, 2, 50, 64
4, 17280, Note_on_c, 2, 38, 62
4, 17996, Note_off_c, 2, 38, 64
4, 18000, Note_on_c, 2, 43, 59
4, 18116, Note_off_c, 2, 43, 64
4, 18120, Note_on_c, 2, 45, 74
4, 18356, Note_off_c, 2, 45, 64
4, 18360, Note_on_c, 2, 48, 79
4, 18596, Note_off_c, 2, 48, 64
4, 18600, Note_on_c, 2, 45, 62
4, 18716, Note_off_c, 2, 45, 64
4, 18720, Note_on_c, 2, 50, 70
4, 19196, Note_off_c, 2, 50, 64
4, 19200, Note_on_c, 2, 53, 55
4, 19200, Note_on_c, 2, 58, 66
4, 19200, Note_on_c, 2, 62, 78
4, 19556, Note_off_c, 2, 62, 64
4, 19556, Note_off_c, 2, 58, 64
4, 19556, Note_off_c, 2, 53, 64
4, 19560, Note_on_c, 2, 58, 76
4, 19560, Note_on_c, 2, 62, 61
4, 19560, Note_on_c, 2, 53, 55
4, 19676, Note_off_c, 2, 53, 64
4, 19676, Note_off_c, 2, 62, 64
4, 19676, Note_off_c, 2, 58, 64
4, 20160, Note_on_c, 2, 55, 71
4, 20160, Note_on_c, 2, 60, 76
4, 20160, Note_on_c, 2, 64, 68
4, 20516, Note_off_c, 2, 64, 64
4, 20516, Note_off_c, 2, 60, 64
4, 20516, Note_off_c, 2, 55, 64
4, 20520, Note_on_c, 2, 60, 57
4, 20520, Note_on_c, 2, 55, 65
4, 20520, Note_on_c, 2, 64, 66
4, 20636, Note_off_c, 2, 64, 64
4, 20636, Note_off_c, 2, 55, 64
4, 20636, Note_off_c, 2, 60, 64
4, 21120, Note_on_c, 2, 60, 64
4, 21236, Note_off_c, 2, 60, 64
4, 21240, Note_on_c, 2, 62, 68
4, 21476, Note_off_c, 2, 62, 64
4, 21480, Note_on_c, 2, 62, 72
4, 21596, Note_off_c, 2, 62, 64
4, 21600, Note_on_c, 2, 62, 65
4, 21836, Note_off_c, 2, 62, 64
4, 21840, Note_on_c, 2, 69, 63
4, 21840, Note_on_c, 2, 65, 54
4, 22196, Note_off_c, 2, 65, 64
4, 22196, Note_off_c, 2, 69, 64
4, 22200, Note_on_c, 2, 69, 70
4, 22200, Note_on_c, 2, 65, 56
4, 22436, Note_off_c, 2, 65, 64
4, 22436, Note_off_c, 2, 69, 64
4, 22440, Note_on_c, 2, 62, 77
4, 22556, Note_off_c, 2, 62, 64
4, 22560, Note_on_c, 2, 69, 62
4, 22560, Note_on_c, 2, 65, 63
4, 22676, Note_off_c, 2, 65, 64
4, 22676, Note_off_c, 2, 69, 64
4, 22680, Note_on_c, 2, 62, 61
4, 23036, Note_off_c, 2, 62, 64
4, 23040, Note_on_c, 2, 62, 60
4, 23040, Note_on_c, 2, 53, 60
4, 23040, Note_on_c, 2, 58, 68
4, 23396, Note_off_c, 2, 58, 64
4, 23396, Note_off_c, 2, 53, 64
4, 23396, Note_off_c, 2, 62, 64
4, 23400, Note_on_c, 2, 62, 73
4, 23400, Note_on_c, 2, 58, 64
4, 23400, Note_on_c, 2, 53, 76
4, 23516, Note_off_c, 2, 53, 64
4, 23516, Note_off_c, 2, 58, 64
4, 23516, Note_off_c, 2, 62, 64
4, 24000, Note_on_c, 2, 55, 79
4, 24000, Note_on_c, 2, 60, 48
4, 24000, Note_on_c, 2, 64, 52
4, 24356, Note_off_c, 2, 64, 64
4, 24356, Note_off_c, 2, 60, 64
4, 24356, Note_off_c, 2, 55, 64
4, 24360, Note_on_c, 2, 60, 67
4, 24360, Note_on_c, 2, 64, 52
4, 24360, Note_on_c, 2, 55, 50
4, 24476, Note_off_c, 2, 55, 64
4, 24476, Note_off_c, 2, 64, 64
4, 24476, Note_off_c, 2, 60, 64
4, 24960, Note_on_c, 2, 62, 71
4, 25316, Note_off_c, 2, 62, 64
4, 25320, Note_on_c, 2, 69, 77
4, 25320, Note_on_c, 2, 65, 57
4, 25436, Note_off_c, 2, 65, 64
4, 25436, Note_off_c, 2, 69, 64
4, 25560, Note_on_c, 2, 62, 70
4, 25676, Note_off_c, 2, 62, 64
4, 25680, Note_on_c, 2, 60, 69
4, 25796, Note_off_c, 2, 60, 64
4, 25800, Note_on_c, 2, 62, 71
4, 25916, Note_off_c, 2, 62, 64
4, 25920, Note_on_c, 2, 60, 51
4, 26036, Note_off_c, 2, 60, 64
4, 26040, Note_on_c, 2, 62, 48
4, 26156, Note_off_c, 2, 62, 64
4, 26160, Note_on_c, 2, 69, 74
4, 26160, Note_on_c, 2, 65, 49
4, 26276, Note_off_c, 2, 65, 64
4, 26276, Note_off_c, 2, 69, 64
4, 26280, Note_on_c, 2, 69, 46
4, 26280, Note_on_c, 2, 65, 61
4, 26876, Note_off_c, 2, 65, 64
4, 26876, Note_off_c, 2, 69, 64
4, 26880, Note_on_c, 2, 58, 68
4, 26880, Note_on_c, 2, 53, 48
4, 26880, Note_on_c, 2, 62, 52
4, 27236, Note_off_c, 2, 62, 64
4, 27236, Note_off_c, 2, 53, 64
4, 27236, Note_off_c, 2, 58, 64
4, 27240, Note_on_c, 2, 58, 56
4, 27240, Note_on_c, 2, 62, 53
4, 27240, Note_on_c, 2, 53, 64
4, 27356, Note_off_c, 2, 53, 64
4, 27356, Note_off_c, 2, 62, 64
4, 27356, Note_off_c, 2, 58, 64
4, 27840, Note_on_c, 2, 55, 51
4, 27840, Note_on_c, 2, 60, 78
4, 27840, Note_on_c, 2, 64, 76
4, 28196, Note_off_c, 2, 64, 64
4, 28196, Note_off_c, 2, 60, 64
4, 28196, Note_off_c, 2, 55, 64
4, 28200, Note_on_c, 2, 55, 57
4, 28200, Note_on_c, 2, 60, 79
4, 28200, Note_on_c, 2, 64, 79
4, 28316, Note_off_c, 2, 64, 64
4, 28316, Note_off_c, 2, 60, 64
4, 28316, Note_off_c, 2, 55, 64
4, 28800, Note_on_c, 2, 62, 67
4, 28800, Note_on_c, 2, 69, 60
4, 28800, Note_on_c, 2, 65, 48
4, 29516, Note_off_c, 2, 65, 64
4, 29516, Note_off_c, 2, 69, 64
4, 29516, Note_off_c, 2, 62, 64
4, 29520, Note_on_c, 2, 62, 56
4, 29520, Note_on_c, 2, 67, 72
4, 29520, Note_on_c, 2, 58, 52
4, 30236, Note_off_c, 2, 58, 64
4, 30236, Note_off_c, 2, 67, 64
4, 30236, Note_off_c, 2, 62, 64
4, 30240, Note_on_c, 2, 62, 66
4, 30240, Note_on_c, 2, 67, 61
4, 30240, Note_on_c, 2, 58, 67
4, 30476, Note_off_c, 2, 58, 64
4, 30476, Note_off_c, 2, 67, 64
4, 30476, Note_off_c, 2, 62, 64
4, 30720, Note_on_c, 2, 58, 73
4, 30720, Note_on_c, 2, 62, 70
4, 30720, Note_on_c, 2, 53, 58
4, 31076, Note_off_c, 2, 53, 64
4, 31076, Note_off_c, 2, 62, 64
4, 31076, Note_off_c, 2, 58, 64
4, 31080, Note_on_c, 2, 62, 70
4, 31080, Note_on_c, 2, 58, 76
4, 31080, Note_on_c, 2, 53, 50
4, 31196, Note_off_c, 2, 53, 64
4, 31196, Note_off_c, 2, 58, 64
4, 31196, Note_off_c, 2, 62, 64
4, 31680, Note_on_c, 2, 55, 68
4, 31680, Note_on_c, 2, 60, 56
4, 31680, Note_on_c, 2, 64, 46
4, 32036, Note_off_c, 2, 64, 64
4, 32036, Note_off_c, 2, 60, 64
4, 32036, Note_off_c, 2, 55, 64
4, 32040, Note_on_c, 2, 60, 65
4, 32040, Note_on_c, 2, 55, 68
4, 32040, Note_on_c, 2, 64, 48
4, 32156, Note_off_c, 2, 64, 64
4, 32156, Note_off_c, 2, 55, 64
4, 32156, Note_off_c, 2, 60, 64
4, 32640, Note_on_c, 2, 65, 75
4, 32640, Note_on_c, 2, 62, 65
4, 32640, Note_on_c, 2, 69, 44
4, 32996, Note_off_c, 2, 69, 64
4, 32996, Note_off_c, 2, 62, 64
4, 32996, Note_off_c, 2, 65, 64
4, 33000, Note_on_c, 2, 69, 78
4, 33000, Note_on_c, 2, 65, 64
4, 33000, Note_on_c, 2, 62, 49
4, 33116, Note_off_c, 2, 62, 64
4, 33116, Note_off_c, 2, 65, 64
4, 33116, Note_off_c, 2, 69, 64
4, 33360, Note_on_c, 2, 65, 75
4, 33360, Note_on_c, 2, 62, 70
4, 33360, Note_on_c, 2, 69, 55
4, 33716, Note_off_c, 2, 69, 64
4, 33716, Note_off_c, 2, 62, 64
4, 33716, Note_off_c, 2, 65, 64
4, 33720, Note_on_c, 2, 62, 46
4, 33720, Note_on_c, 2, 69, 72
4, 33720, Note_on_c, 2, 65, 60
4, 33836, Note_off_c, 2, 65, 64
4, 33836, Note_off_c, 2, 69, 64
4, 33836, Note_off_c, 2, 62, 64
4, 34080, Note_on_c, 2, 69, 54
4, 34080, Note_on_c, 2, 65, 61
4, 34080, Note_on_c, 2, 62, 55
4, 34556, Note_off_c, 2, 62, 64
4, 34556, Note_off_c, 2, 65, 64
4, 34556, Note_off_c, 2, 69, 64
4, 34560, Note_on_c, 2, 58, 55
4, 34560, Note_on_c, 2, 53, 78
4, 34560, Note_on_c, 2, 62, 69
4, 34916, Note_off_c, 2, 62, 64
4, 34916, Note_off_c, 2, 53, 64
4, 34916, Note_off_c, 2, 58, 64
4, 34920, Note_on_c, 2, 62, 77
4, 34920, Note_on_c, 2, 58, 45
4, 34920, Note_on_c, 2, 53, 62
4, 35036, Note_off_c, 2, 53, 64
4, 35036, Note_off_c, 2, 58, 64
4, 35036, Note_off_c, 2, 62, 64
4, 35520, Note_on_c, 2, 55, 78
4, 35520, Note_on_c, 2, 60, 75
4, 35520, Note_on_c, 2, 64, 55
4, 35876, Note_off_c, 2, 64, 64
4, 35876, Note_off_c, 2, 60, 64
4, 35876, Note_off_c, 2, 55, 64
4, 35880, Note_on_c, 2, 55, 61
4, 35880, Note_on_c, 2, 64, 54
4, 35880, Note_on_c, 2, 60, 63
4, 35996, Note_off_c, 2, 60, 64
4, 35996, Note_off_c, 2, 64, 64
4, 35996, Note_off_c, 2, 55, 64
4, 36480, Note_on_c, 2, 40, 48
4, 37196, Note_off_c, 2, 40, 64
4, 37200, Note_on_c, 2, 43, 57
4, 37316, Note_off_c, 2, 43, 64
4, 37320, Note_on_c, 2, 45, 72
4, 37556, Note_off_c, 2, 45, 64
4, 37560, Note_on_c, 2, 48, 57
4, 37796, Note_off_c, 2, 48, 64
4, 37800, Note_on_c, 2, 45, 62
4, 37916, Note_off_c, 2, 45, 64
4, 37920, Note_on_c, 2, 50, 57
4, 38396, Note_off_c, 2, 50, 64
4, 38400, Note_on_c, 2, 40, 68
4, 39116, Note_off_c, 2, 40, 64
4, 39120, Note_on_c, 2, 43, 66
4, 39236, Note_off_c, 2, 43, 64
4, 39240, Note_on_c, 2, 45, 61
4, 39476, Note_off_c, 2, 45, 64
4, 39480, Note_on_c, 2, 48, 61
4, 39716, Note_off_c, 2, 48, 64
4, 39720, Note_on_c, 2, 45, 72
4, 39836, Note_off_c, 2, 45, 64
4, 39840, Note_on_c, 2, 50, 56
4, 40316, Note_off_c, 2, 50, 64
4, 40320, Note_on_c, 2, 40, 66
4, 41036, Note_off_c, 2, 40, 64
4, 41040, Note_on_c, 2, 43, 56
4, 41156, Note_off_c, 2, 43, 64
4, 41160, Note_on_c, 2, 45, 70
4, 41396, Note_off_c, 2, 45, 64
4, 41400, Note_on_c, 2, 48, 65
4, 41636, Note_off_c, 2, 48, 64
4, 41640, Note_on_c, 2, 45, 55
4, 41756, Note_off_c, 2, 45, 64
4, 41760, Note_on_c, 2, 50, 66
4, 42236, Note_off_c, 2, 50, 64
4, 42240, Note_on_c, 2, 40, 74
4, 42956, Note_off_c, 2, 40, 64
4, 42960, Note_on_c, 2, 43, 64
4, 43076, Note_off_c, 2, 43, 64
4, 43080, Note_on_c, 2, 45, 74
4, 43316, Note_off_c, 2, 45, 64
4, 43320, Note_on_c, 2, 48, 48
4, 43556, Note_off_c, 2, 48, 64
4, 43560, Note_on_c, 2, 45, 65
4, 43676, Note_off_c, 2, 45, 64
4, 43680, Note_on_c, 2, 50, 45
4, 44156, Note_off_c, 2, 50, 64
4, 44160, Note_on_c, 2, 58, 66
4, 44160, Note_on_c, 2, 62, 55
4, 44160, Note_on_c, 2, 53, 67
4, 44516, Note_off_c, 2, 53, 64
4, 44516, Note_off_c, 2, 62, 64
4, 44516, Note_off_c, 2, 58, 64
4, 44520, Note_on_c, 2, 58, 72
4, 44520, Note_on_c, 2, 62, 65
4, 44520, Note_on_c, 2, 53, 76
4, 44636, Note_off_c, 2, 53, 64
4, 44636, Note_off_c, 2, 62, 64
4, 44636, Note_off_c, 2, 58, 64
4, 45120, Note_on_c, 2, 60, 66
4, 45120, Note_on_c, 2, 55, 52
4, 45120, Note_on_c, 2, 64, 74
4, 45476, Note_off_c, 2, 64, 64
4, 45476, Note_off_c, 2, 55, 64
4, 45476, Note_off_c, 2, 60, 64
4, 45480, Note_on_c, 2, 64, 59
4, 45480, Note_on_c, 2, 60, 54
4, 45480, Note_on_c, 2, 55, 52
4, 45596, Note_off_c, 2, 55, 64
4, 45596, Note_off_c, 2, 60, 64
4, 45596, Note_off_c, 2, 64, 64
4, 46320, Note_on_c, 2, 60, 47
4, 46436, Note_off_c, 2, 60, 64
4, 46440, Note_on_c, 2, 62, 48
4, 46556, Note_off_c, 2, 62, 64
4, 46560, Note_on_c, 2, 69, 72
4, 46560, Note_on_c, 2, 65, 72
4, 46796, Note_off_c, 2, 65, 64
4, 46796, Note_off_c, 2, 69, 64
4, 46800, Note_on_c, 2, 62, 65
4, 47036, Note_off_c, 2, 62, 64
4, 47040, Note_on_c, 2, 60, 74
4, 47040, Note_on_c, 2, 65, 74
4, 47156, Note_off_c, 2, 60, 64
4, 47160, Note_on_c, 2, 62, 52
4, 47396, Note_off_c, 2, 65, 64
4, 47396, Note_off_c, 2, 62, 64
4, 47400, Note_on_c, 2, 62, 79
4, 47400, Note_on_c, 2, 65, 46
4, 47996, Note_off_c, 2, 65, 64
4, 47996, Note_off_c, 2, 62, 64
4, 48000, Note_on_c, 2, 53, 59
4, 48000, Note_on_c, 2, 58, 52
4, 48000, Note_on_c, 2, 62, 52
4, 48356, Note_off_c, 2, 62, 64
4, 48356, Note_off_c, 2, 58, 64
4, 48356, Note_off_c, 2, 53, 64
4, 48360, Note_on_c, 2, 62, 48
4, 48360, Note_on_c, 2, 58, 46
4, 48360, Note_on_c, 2, 53, 45
4, 48476, Note_off_c, 2, 53, 64
4, 48476, Note_off_c, 2, 58, 64
4, 48476, Note_off_c, 2, 62, 64
4, 48960, Note_on_c, 2, 55, 76
4, 48960, Note_on_c, 2, 60, 59
4, 48960, Note_on_c, 2, 64, 73
4, 49316, Note_off_c, 2, 64, 64
4, 49316, Note_off_c, 2, 60, 64
4, 49316, Note_off_c, 2, 55, 64
4, 49320, Note_on_c, 2, 60, 73
4, 49320, Note_on_c, 2, 64, 57
4, 49320, Note_on_c, 2, 55, 44
4, 49436, Note_off_c, 2, 55, 64
4, 49436, Note_off_c, 2, 64, 64
4, 49436, Note_off_c, 2, 60, 64
4, 50160, Note_on_c, 2, 60, 77
4, 50276, Note_off_c, 2, 60, 64
4, 50280, Note_on_c, 2, 62, 52
4, 50396, Note_off_c, 2, 62, 64
4, 50400, Note_on_c, 2, 62, 52
4, 50636, Note_off_c, 2, 62, 64
4, 50640, Note_on_c, 2, 62, 77
4, 50876, Note_off_c, 2, 62, 64
4, 50880, Note_on_c, 2, 67, 76
4, 50996, Note_off_c, 2, 67, 64
4, 51000, Note_on_c, 2, 64, 77
4, 51236, Note_off_c, 2, 64, 64
4, 51240, Note_on_c, 2, 62, 72
4, 51836, Note_off_c, 2, 62, 64
4, 51840, Note_on_c, 2, 58, 48
4, 51840, Note_on_c, 2, 53, 57
4, 51840, Note_on_c, 2, 62, 58
4, 52196, Note_off_c, 2, 62, 64
4, 52196, Note_off_c, 2, 53, 64
4, 52196, Note_off_c, 2, 58, 64
4, 52200, Note_on_c, 2, 53, 67
4, 52200, Note_on_c, 2, 58, 45
4, 52200, Note_on_c, 2, 62, 67
4, 52316, Note_off_c, 2, 62, 64
4, 52316, Note_off_c, 2, 58, 64
4, 52316, Note_off_c, 2, 53, 64
4, 52800, Note_on_c, 2, 55, 72
4, 52800, Note_on_c, 2, 60, 68
4, 52800, Note_on_c, 2, 64, 68
4, 53156, Note_off_c, 2, 64, 64
4, 53156, Note_off_c, 2, 60, 64
4, 53156, Note_off_c, 2, 55, 64
4, 53160, Note_on_c, 2, 60, 71
4, 53160, Note_on_c, 2, 64, 75
4, 53160, Note_on_c, 2, 55, 68
4, 53276, Note_off_c, 2, 55, 64
4, 53276, Note_off_c, 2, 64, 64
4, 53276, Note_off_c, 2, 60, 64
4, 53760, Note_on_c, 2, 69, 63
4, 53760, Note_on_c, 2, 62, 45
4, 53760, Note_on_c, 2, 67, 48
4, 54476, Note_off_c, 2, 67, 64
4, 54476, Note_off_c, 2, 62, 64
4, 54476, Note_off_c, 2, 69, 64
4, 54480, Note_on_c, 2, 67, 65
4, 54480, Note_on_c, 2, 62, 76
4, 54480, Note_on_c, 2, 58, 68
4, 55196, Note_off_c, 2, 58, 64
4, 55196, Note_off_c, 2, 62, 64
4, 55196, Note_off_c, 2, 67, 64
4, 55200, Note_on_c, 2, 67, 49
4, 55200, Note_on_c, 2, 62, 62
4, 55200, Note_on_c, 2, 58, 47
4, 55436, Note_off_c, 2, 58, 64
4, 55436, Note_off_c, 2, 62, 64
4, 55436, Note_off_c, 2, 67, 64
4, 55680, Note_on_c, 2, 53, 59
4, 55680, Note_on_c, 2, 58, 72
4, 55680, Note_on_c, 2, 62, 78
4, 56036, Note_off_c, 2, 62, 64
4, 56036, Note_off_c, 2, 58, 64
4, 56036, Note_off_c, 2, 53, 64
4, 56040, Note_on_c, 2, 53, 75
4, 56040, Note_on_c, 2, 62, 60
4, 56040, Note_on_c, 2, 58, 70
4, 56156, Note_off_c, 2, 58, 64
4, 56156, Note_off_c, 2, 62, 64
4, 56156, Note_off_c, 2, 53, 64
4, 56640, Note_on_c, 2, 55, 58
4, 56640, Note_on_c, 2, 64, 79
4, 56640, Note_on_c, 2, 60, 52
4, 56996, Note_off_c, 2, 60, 64
4, 56996, Note_off_c, 2, 64, 64
4, 56996, Note_off_c, 2, 55, 64
4, 57000, Note_on_c, 2, 55, 52
4, 57000, Note_on_c, 2, 64, 65
4, 57000, Note_on_c, 2, 60, 77
4, 57116, Note_off_c, 2, 60, 64
4, 57116, Note_off_c, 2, 64, 64
4, 57116, Note_off_c, 2, 55, 64
4, 57600, Note_on_c, 2, 69, 72
4, 57600, Note_on_c, 2, 65, 67
4, 57600, Note_on_c, 2, 62, 60
4, 57956, Note_off_c, 2, 62, 64
4, 57956, Note_off_c, 2, 65, 64
4, 57956, Note_off_c, 2, 69, 64
4, 57960, Note_on_c, 2, 69, 67
4, 57960, Note_on_c, 2, 65, 66
4, 57960, Note_on_c, 2, 62, 58
4, 58076, Note_off_c, 2, 62, 64
4, 58076, Note_off_c, 2, 65, 64
4, 58076, Note_off_c, 2, 69, 64
4, 58320, Note_on_c, 2, 69, 63
4, 58320, Note_on_c, 2, 62, 63
4, 58320, Note_on_c, 2, 65, 57
4, 58676, Note_off_c, 2, 65, 64
4, 58676, Note_off_c, 2, 62, 64
4, 58676, Note_off_c, 2, 69, 64
4, 58680, Note_on_c, 2, 62, 44
4, 58680, Note_on_c, 2, 69, 50
4, 58680, Note_on_c, 2, 65, 57
4, 58796, Note_off_c, 2, 65, 64
4, 58796, Note_off_c, 2, 69, 64
4, 58796, Note_off_c, 2, 62, 64
4, 59040, Note_on_c, 2, 65, 46
4, 59040, Note_on_c, 2, 62, 49
4, 59040, Note_on_c, 2, 69, 60
4, 59516, Note_off_c, 2, 69, 64
4, 59516, Note_off_c, 2, 62, 64
4, 59516, Note_off_c, 2, 65, 64
4, 59520, Note_on_c, 2, 62, 68
4, 59520, Note_on_c, 2, 58, 68
4, 59520, Note_on_c, 2, 53, 73
4, 59876, Note_off_c, 2, 53, 64
4, 59876, Note_off_c, 2, 58, 64
4, 59876, Note_off_c, 2, 62, 64
4, 59880, Note_on_c, 2, 58, 50
4, 59880, Note_on_c, 2, 62, 75
4, 59880, Note_on_c, 2, 53, 79
4, 59996, Note_off_c, 2, 53, 64
4, 59996, Note_off_c, 2, 62, 64
4, 59996, Note_off_c, 2, 58, 64
4, 60480, Note_on_c, 2, 60, 76
4, 60480, Note_on_c, 2, 64, 59
4, 60480, Note_on_c, 2, 55, 68
4, 60836, Note_off_c, 2, 55, 64
4, 60836, Note_off_c, 2, 64, 64
4, 60836, Note_off_c, 2, 60, 64
4, 60840, Note_on_c, 2, 55, 53
4, 60840, Note_on_c, 2, 64, 58
4, 60840, Note_on_c, 2, 60, 68
4, 60956, Note_off_c, 2, 60, 64
4, 60956, Note_off_c, 2, 64, 64
4, 60956, Note_off_c, 2, 55, 64
4, 61440, Note_on_c, 2, 38, 76
4, 62156, Note_off_c, 2, 38, 64
4, 62160, Note_on_c, 2, 43, 57
4, 62276, Note_off_c, 2, 43, 64
4, 62280, Note_on_c, 2, 45, 54
4, 62516, Note_off_c, 2, 45, 64
4, 62520, Note_on_c, 2, 48, 64
4, 62756, Note_off_c, 2, 48, 64
4, 62760, Note_on_c, 2, 45, 70
4, 62876, Note_off_c, 2, 45, 64
4, 62880, Note_on_c, 2, 50, 70
4, 63356, Note_off_c, 2, 50, 64
4, 63360, Note_on_c, 2, 38, 48
4, 64076, Note_off_c, 2, 38, 64
4, 64080, Note_on_c, 2, 43, 53
4, 64196, Note_off_c, 2, 43, 64
4, 64200, Note_on_c, 2, 45, 76
4, 64436, Note_off_c, 2, 45, 64
4, 64440, Note_on_c, 2, 48, 62
4, 64676, Note_off_c, 2, 48, 64
4, 64680, Note_on_c, 2, 45, 76
4, 64796, Note_off_c, 2, 45, 64
4, 64800, Note_on_c, 2, 50, 62
4, 65276, Note_off_c, 2, 50, 64
4, 65280, Note_on_c, 2, 38, 59
4, 65996, Note_off_c, 2, 38, 64
4, 66000, Note_on_c, 2, 43, 47
4, 66116, Note_off_c, 2, 43, 64
4, 66120, Note_on_c, 2, 45, 46
4, 66356, Note_off_c, 2, 45, 64
4, 66360, Note_on_c, 2, 48, 56
4, 66596, Note_off_c, 2, 48, 64
4, 66600, Note_on_c, 2, 45, 68
4, 66716, Note_off_c, 2, 45, 64
4, 66720, Note_on_c, 2, 50, 57
4, 67196, Note_off_c, 2, 50, 64
4, 67200, Note_on_c, 2, 38, 68
4, 67916, Note_off_c, 2, 38, 64
4, 67920, Note_on_c, 2, 43, 50
4, 68036, Note_off_c, 2, 43, 64
4, 68040, Note_on_c, 2, 45, 65
4, 68276, Note_off_c, 2, 45, 64
4, 68280, Note_on_c, 2, 48, 63
4, 68516, Note_off_c, 2, 48, 64
4, 68520, Note_on_c, 2, 45, 63
4, 68636, Note_off_c, 2, 45, 64
4, 68640, Note_on_c, 2, 50, 78
4, 69116, Note_off_c, 2, 50, 64
4, 69360, Note_on_c, 2, 81, 78
4, 70076, Note_off_c, 2, 81, 64
4, 70080, Note_on_c, 2, 81, 62
4, 70796, Note_off_c, 2, 81, 64
4, 70800, Note_on_c, 2, 79, 68
4, 70916, Note_off_c, 2, 79, 64
4, 70920, Note_on_c, 2, 77, 57
4, 71036, Note_off_c, 2, 77, 64
4, 71040, Note_on_c, 2, 81, 72
4, 71516, Note_off_c, 2, 81, 64
4, 71520, Note_on_c, 2, 77, 45
4, 71636, Note_off_c, 2, 77, 64
4, 71640, Note_on_c, 2, 74, 72
4, 72476, Note_off_c, 2, 74, 64
4, 73200, Note_on_c, 2, 74, 55
4, 73676, Note_off_c, 2, 74, 64
4, 73920, Note_on_c, 2, 74, 44
4, 74156, Note_off_c, 2, 74, 64
4, 74160, Note_on_c, 2, 79, 61
4, 74636, Note_off_c, 2, 79, 64
4, 74640, Note_on_c, 2, 77, 71
4, 74880, Note_on_c, 2, 74, 56
4, 74936, Note_off_c, 2, 74, 64
4, 74940, Note_on_c, 2, 77, 77
4, 74996, Note_off_c, 2, 77, 64
4, 75000, Note_on_c, 2, 74, 79
4, 75116, Note_off_c, 2, 77, 64
4, 75596, Note_off_c, 2, 74, 64
4, 76080, Note_on_c, 2, 81, 64
4, 76316, Note_off_c, 2, 81, 64
4, 76320, Note_on_c, 2, 81, 57
4, 76436, Note_off_c, 2, 81, 64
4, 76440, Note_on_c, 2, 81, 53
4, 76676, Note_off_c, 2, 81, 64
4, 76680, Note_on_c, 2, 81, 65
4, 76796, Note_off_c, 2, 81, 64
4, 76800, Note_on_c, 2, 81, 44
4, 77036, Note_off_c, 2, 81, 64
4, 77040, Note_on_c, 2, 81, 60
4, 77156, Note_off_c, 2, 81, 64
4, 77160, Note_on_c, 2, 81, 77
4, 77276, Note_off_c, 2, 81, 64
4, 77280, Note_on_c, 2, 81, 69
4, 77396, Note_off_c, 2, 81, 64
4, 77400, Note_on_c, 2, 81, 72
4, 77516, Note_off_c, 2, 81, 64
4, 77520, Note_on_c, 2, 81, 64
4, 77756, Note_off_c, 2, 81, 64
4, 77760, Note_on_c, 2, 81, 46
4, 77876, Note_off_c, 2, 81, 64
4, 77880, Note_on_c, 2, 81, 60
4, 78116, Note_off_c, 2, 81, 64
4, 78120, Note_on_c, 2, 81, 64
4, 78236, Note_off_c, 2, 81, 64
4, 78240, Note_on_c, 2, 86, 72
4, 78956, Note_off_c, 2, 86, 64
4, 78960, Note_on_c, 2, 86, 56
4, 79076, Note_off_c, 2, 86, 64
4, 79080, Note_on_c, 2, 84, 53
4, 79196, Note_off_c, 2, 84, 64
4, 79200, Note_on_c, 2, 81, 52
4, 79316, Note_off_c, 2, 81, 64
4, 79320, Note_on_c, 2, 81, 56
4, 79436, Note_off_c, 2, 81, 64
4, 79440, Note_on_c, 2, 79, 48
4, 79556, Note_off_c, 2, 79, 64
4, 79560, Note_on_c, 2, 77, 66
4, 79676, Note_off_c, 2, 77, 64
4, 79680, Note_on_c, 2, 79, 50
4, 79796, Note_off_c, 2, 79, 64
4, 79800, Note_on_c, 2, 77, 76
4, 79916, Note_off_c, 2, 77, 64
4, 79920, Note_on_c, 2, 74, 78
4, 80156, Note_off_c, 2, 74, 64
4, 80160, Note_on_c, 2, 74, 76
4, 80396, Note_off_c, 2, 74, 64
4, 80400, Note_on_c, 2, 77, 77
4, 80636, Note_off_c, 2, 77, 64
4, 81120, Note_on_c, 2, 74, 76
4, 81476, Note_off_c, 2, 74, 64
4, 81480, Note_on_c, 2, 72, 50
4, 81596, Note_off_c, 2, 72, 64
4, 81600, Note_on_c, 2, 74, 52
4, 81716, Note_off_c, 2, 74, 64
4, 81720, Note_on_c, 2, 72, 69
4, 81836, Note_off_c, 2, 72, 64
4, 81840, Note_on_c, 2, 79, 49
4, 82796, Note_off_c, 2, 79, 64
4, 82800, Note_on_c, 2, 77, 60
4, 83036, Note_off_c, 2, 77, 64
4, 83040, Note_on_c, 2, 74, 72
4, 83636, Note_off_c, 2, 74, 64
4, 83640, Note_on_c, 2, 77, 48
4, 83756, Note_off_c, 2, 77, 64
4, 83760, Note_on_c, 2, 74, 64
4, 84476, Note_off_c, 2, 74, 64
4, 84720, Note_on_c, 2, 81, 71
4, 85196, Note_off_c, 2, 81, 64
4, 85200, Note_on_c, 2, 79, 69
4, 85316, Note_off_c, 2, 79, 64
4, 85320, Note_on_c, 2, 77, 44
4, 85436, Note_off_c, 2, 77, 64
4, 85440, Note_on_c, 2, 81, 68
4, 85916, Note_off_c, 2, 81, 64
4, 85920, Note_on_c, 2, 77, 46
4, 86036, Note_off_c, 2, 77, 64
4, 86040, Note_on_c, 2, 74, 68
4, 87836, Note_off_c, 2, 74, 64
4, 94080, Note_on_c, 2, 58, 64
4, 94080, Note_on_c, 2, 62, 72
4, 94080, Note_on_c, 2, 53, 66
4, 94436, Note_off_c, 2, 53, 64
4, 94436, Note_off_c, 2, 62, 64
4, 94436, Note_off_c, 2, 58, 64
4, 94440, Note_on_c, 2, 62, 51
4, 94440, Note_on_c, 2, 58, 53
4, 94440, Note_on_c, 2, 53, 71
4, 94556, Note_off_c, 2, 53, 64
4, 94556, Note_off_c, 2, 58, 64
4, 94556, Note_off_c, 2, 62, 64
4, 95040, Note_on_c, 2, 60, 45
4, 95040, Note_on_c, 2, 64, 56
4, 95040, Note_on_c, 2, 55, 56
4, 95396, Note_off_c, 2, 55, 64
4, 95396, Note_off_c, 2, 64, 64
4, 95396, Note_off_c, 2, 60, 64
4, 95400, Note_on_c, 2, 60, 58
4, 95400, Note_on_c, 2, 64, 63
4, 95400, Note_on_c, 2, 55, 56
4, 95516, Note_off_c, 2, 55, 64
4, 95516, Note_off_c, 2, 64, 64
4, 95516, Note_off_c, 2, 60, 64
4, 100920, Note_on_c, 2, 60, 75
4, 101156, Note_off_c, 2, 60, 64
4, 101160, Note_on_c, 2, 62, 64
4, 101276, Note_off_c, 2, 62, 64
4, 101280, Note_on_c, 2, 65, 60
4, 101396, Note_off_c, 2, 65, 64
4, 101400, Note_on_c, 2, 62, 59
4, 101516, Note_off_c, 2, 62, 64
4, 101520, Note_on_c, 2, 60, 60
4, 101636, Note_off_c, 2, 60, 64
4, 101640, Note_on_c, 2, 62, 64
4, 102236, Note_off_c, 2, 62, 64
4, 103920, Note_on_c, 2, 67, 72
4, 104396, Note_off_c, 2, 67, 64
4, 104400, Note_on_c, 2, 65, 74
4, 104516, Note_off_c, 2, 65, 64
4, 104520, Note_on_c, 2, 62, 74
4, 104876, Note_off_c, 2, 62, 64
4, 104880, Note_on_c, 2, 57, 70
4, 104996, Note_off_c, 2, 57, 64
4, 105000, Note_on_c, 2, 57, 71
4, 105116, Note_off_c, 2, 57, 64
4, 105120, Note_on_c, 2, 55, 76
4, 105236, Note_off_c, 2, 55, 64
4, 105240, Note_on_c, 2, 53, 62
4, 105356, Note_off_c, 2, 53, 64
4, 105360, Note_on_c, 2, 50, 47
4, 105476, Note_off_c, 2, 50, 64
4, 105480, Note_on_c, 2, 48, 73
4, 105596, Note_off_c, 2, 48, 64
4, 105600, Note_on_c, 2, 53, 49
4, 105716, Note_off_c, 2, 53, 64
4, 105720, Note_on_c, 2, 50, 67
4, 106076, Note_off_c, 2, 50, 64
4, 123120, Note_on_c, 2, 60, 45
4, 123356, Note_off_c, 2, 60, 64
4, 123480, Note_on_c, 2, 60, 57
4, 123836, Note_off_c, 2, 60, 64
4, 123840, Note_on_c, 2, 62, 72
4, 124796, Note_off_c, 2, 62, 64
4, 125040, Note_on_c, 2, 69, 48
4, 125276, Note_off_c, 2, 69, 64
4, 125280, Note_on_c, 2, 67, 56
4, 125516, Note_off_c, 2, 67, 64
4, 125520, Note_on_c, 2, 69, 79
4, 125756, Note_off_c, 2, 69, 64
4, 125760, Note_on_c, 2, 67, 45
4, 126236, Note_off_c, 2, 67, 64
4, 126240, Note_on_c, 2, 65, 66
4, 126356, Note_off_c, 2, 65, 64
4, 126360, Note_on_c, 2, 62, 44
4, 126476, Note_off_c, 2, 62, 64
4, 126480, Note_on_c, 2, 69, 57
4, 127436, Note_off_c, 2, 69, 64
4, 127440, Note_on_c, 2, 62, 72
4, 127676, Note_off_c, 2, 62, 64
4, 127680, Note_on_c, 2, 65, 73
4, 127796, Note_off_c, 2, 65, 64
4, 127800, Note_on_c, 2, 62, 66
4, 128036, Note_off_c, 2, 62, 64
4, 128040, Note_on_c, 2, 62, 79
4, 128636, Note_off_c, 2, 62, 64
4, 128880, Note_on_c, 2, 69, 51
4, 129236, Note_off_c, 2, 69, 64
4, 129240, Note_on_c, 2, 74, 72
4, 129596, Note_off_c, 2, 74, 64
4, 129600, Note_on_c, 2, 67, 60
4, 130076, Note_off_c, 2, 67, 64
4, 130080, Note_on_c, 2, 72, 47
4, 130556, Note_off_c, 2, 72, 64
4, 130800, Note_on_c, 2, 74, 71
4, 131516, Note_off_c, 2, 74, 64
4, 131520, Note_on_c, 2, 74, 60
4, 132476, Note_off_c, 2, 74, 64
4, 132720, Note_on_c, 2, 65, 79
4, 132956, Note_off_c, 2, 65, 64
4, 132960, Note_on_c, 2, 62, 66
4, 133076, Note_off_c, 2, 62, 64
4, 133080, Note_on_c, 2, 65, 77
4, 133316, Note_off_c, 2, 65, 64
4, 133320, Note_on_c, 2, 62, 54
4, 133436, Note_off_c, 2, 62, 64
4, 133440, Note_on_c, 2, 65, 54
4, 133676, Note_off_c, 2, 65, 64
4, 133680, Note_on_c, 2, 62, 69
4, 133796, Note_off_c, 2, 62, 64
4, 133800, Note_on_c, 2, 65, 63
4, 134036, Note_off_c, 2, 65, 64
4, 134040, Note_on_c, 2, 62, 77
4, 134156, Note_off_c, 2, 62, 64
4, 134160, Note_on_c, 2, 65, 71
4, 134396, Note_off_c, 2, 65, 64
4, 134400, Note_on_c, 2, 62, 60
4, 134636, Note_off_c, 2, 62, 64
4, 134640, Note_on_c, 2, 65, 70
4, 134876, Note_off_c, 2, 65, 64
4, 134880, Note_on_c, 2, 62, 51
4, 135116, Note_off_c, 2, 62, 64
4, 135120, Note_on_c, 2, 62, 76
4, 135596, Note_off_c, 2, 62, 64
4, 135600, Note_on_c, 2, 67, 76
4, 135836, Note_off_c, 2, 67, 64
4, 135840, Note_on_c, 2, 69, 61
4, 136076, Note_off_c, 2, 69, 64
4, 136080, Note_on_c, 2, 69, 76
4, 136556, Note_off_c, 2, 69, 64
4, 136560, Note_on_c, 2, 67, 50
4, 136676, Note_off_c, 2, 67, 64
4, 136680, Note_on_c, 2, 65, 51
4, 136796, Note_off_c, 2, 65, 64
4, 136800, Note_on_c, 2, 67, 77
4, 137276, Note_off_c, 2, 67, 64
4, 146160, Note_on_c, 2, 69, 44
4, 146876, Note_off_c, 2, 69, 64
4, 146880, Note_on_c, 2, 67, 44
4, 146996, Note_off_c, 2, 67, 64
4, 147000, Note_on_c, 2, 65, 63
4, 147236, Note_off_c, 2, 65, 64
4, 147240, Note_on_c, 2, 65, 45
4, 147476, Note_off_c, 2, 65, 64
4, 147480, Note_on_c, 2, 60, 48
4, 147596, Note_off_c, 2, 60, 64
4, 147600, Note_on_c, 2, 62, 45
4, 147716, Note_off_c, 2, 62, 64
4, 147720, Note_on_c, 2, 60, 67
4, 147836, Note_off_c, 2, 60, 64
4, 147840, Note_on_c, 2, 62, 55
4, 148076, Note_off_c, 2, 62, 64
4, 149040, Note_on_c, 2, 72, 58
4, 149156, Note_off_c, 2, 72, 64
4, 149160, Note_on_c, 2, 69, 51
4, 149276, Note_off_c, 2, 69, 64
4, 149280, Note_on_c, 2, 67, 49
4, 149396, Note_off_c, 2, 67, 64
4, 149400, Note_on_c, 2, 65, 61
4, 149516, Note_off_c, 2, 65, 64
4, 149520, Note_on_c, 2, 62, 59
4, 149636, Note_off_c, 2, 62, 64
4, 149640, Note_on_c, 2, 65, 56
4, 149996, Note_off_c, 2, 65, 64
4, 150000, Note_on_c, 2, 62, 48
4, 150236, Note_off_c, 2, 62, 64
4, 151440, Note_on_c, 2, 74, 69
4, 151916, Note_off_c, 2, 74, 64
4, 151920, Note_on_c, 2, 72, 66
4, 152156, Note_off_c, 2, 72, 64
4, 152160, Note_on_c, 2, 74, 62
4, 152876, Note_off_c, 2, 74, 64
4, 152880, Note_on_c, 2, 74, 70
4, 152996, Note_off_c, 2, 74, 64
4, 153000, Note_on_c, 2, 74, 60
4, 153356, Note_off_c, 2, 74, 64
4, 153360, Note_on_c, 2, 74, 48
4, 153476, Note_off_c, 2, 74, 64
4, 153480, Note_on_c, 2, 74, 72
4, 153836, Note_off_c, 2, 74, 64
4, 153840, Note_on_c, 2, 74, 47
4, 154316, Note_off_c, 2, 74, 64
4, 154320, Note_on_c, 2, 74, 71
4, 154436, Note_off_c, 2, 74, 64
4, 154440, Note_on_c, 2, 74, 58
4, 154796, Note_off_c, 2, 74, 64
4, 154800, Note_on_c, 2, 74, 46
4, 155276, Note_off_c, 2, 74, 64
4, 155280, Note_on_c, 2, 74, 51
4, 155396, Note_off_c, 2, 74, 64
4, 155400, Note_on_c, 2, 74, 64
4, 155756, Note_off_c, 2, 74, 64
4, 155760, Note_on_c, 2, 74, 65
4, 155996, Note_off_c, 2, 74, 64
4, 157200, Note_on_c, 2, 72, 68
4, 157316, Note_off_c, 2, 72, 64
4, 157320, Note_on_c, 2, 69, 76
4, 157436, Note_off_c, 2, 69, 64
4, 157440, Note_on_c, 2, 69, 54
4, 157916, Note_off_c, 2, 69, 64
4, 158640, Note_on_c, 2, 72, 57
4, 158756, Note_off_c, 2, 72, 64
4, 158760, Note_on_c, 2, 69, 71
4, 158876, Note_off_c, 2, 69, 64
4, 158880, Note_on_c, 2, 67, 49
4, 158996, Note_off_c, 2, 67, 64
4, 159000, Note_on_c, 2, 65, 50
4, 159116, Note_off_c, 2, 65, 64
4, 159120, Note_on_c, 2, 62, 50
4, 159236, Note_off_c, 2, 62, 64
4, 159240, Note_on_c, 2, 65, 50
4, 159836, Note_off_c, 2, 65, 64
4, 161280, Note_on_c, 2, 65, 54
4, 161396, Note_off_c, 2, 65, 64
4, 161400, Note_on_c, 2, 62, 50
4, 161516, Note_off_c, 2, 62, 64
4, 161520, Note_on_c, 2, 62, 71
4, 161996, Note_off_c, 2, 62, 64
4, 162000, Note_on_c, 2, 57, 75
4, 162116, Note_off_c, 2, 57, 64
4, 162120, Note_on_c, 2, 60, 60
4, 162236, Note_off_c, 2, 60, 64
4, 162240, Note_on_c, 2, 57, 72
4, 162356, Note_off_c, 2, 57, 64
4, 162360, Note_on_c, 2, 55, 61
4, 162476, Note_off_c, 2, 55, 64
4, 162480, Note_on_c, 2, 53, 52
4, 162596, Note_off_c, 2, 53, 64
4, 162600, Note_on_c, 2, 50, 47
4, 162716, Note_off_c, 2, 50, 64
4, 162720, Note_on_c, 2, 55, 76
4, 162836, Note_off_c, 2, 55, 64
4, 162840, Note_on_c, 2, 53, 45
4, 162956, Note_off_c, 2, 53, 64
4, 162960, Note_on_c, 2, 50, 66
4, 163076, Note_off_c, 2, 50, 64
4, 163080, Note_on_c, 2, 50, 71
4, 163436, Note_off_c, 2, 50, 64
4, 163440, Note_on_c, 2, 48, 76
4, 163676, Note_off_c, 2, 48, 64
4, 164280, Note_on_c, 2, 45, 50
4, 164516, Note_off_c, 2, 45, 64
4, 164520, Note_on_c, 2, 48, 45
4, 164636, Note_off_c, 2, 48, 64
4, 164640, Note_on_c, 2, 50, 72
4, 164756, Note_off_c, 2, 50, 64
4, 164760, Note_on_c, 2, 50, 44
4, 164876, Note_off_c, 2, 50, 64
4, 164880, Note_on_c, 2, 48, 63
4, 164996, Note_off_c, 2, 48, 64
4, 165000, Note_on_c, 2, 48, 75
4, 165356, Note_off_c, 2, 48, 64
4, 165360, Note_on_c, 2, 50, 54
4, 165596, Note_off_c, 2, 50, 64
4, 166320, Note_on_c, 2, 62, 60
4, 166436, Note_off_c, 2, 62, 64
4, 166440, Note_on_c, 2, 60, 67
4, 166556, Note_off_c, 2, 60, 64
4, 166680, Note_on_c, 2, 60, 71
4, 167036, Note_off_c, 2, 60, 64
4, 167040, Note_on_c, 2, 60, 51
4, 167156, Note_off_c, 2, 60, 64
4, 167160, Note_on_c, 2, 62, 45
4, 167276, Note_off_c, 2, 62, 64
4, 168960, Note_on_c, 2, 65, 44
4, 169196, Note_off_c, 2, 65, 64
4, 169200, Note_on_c, 2, 62, 68
4, 169436, Note_off_c, 2, 62, 64
4, 169920, Note_on_c, 2, 67, 59
4, 170036, Note_off_c, 2, 67, 64
4, 170040, Note_on_c, 2, 65, 66
4, 170156, Note_off_c, 2, 65, 64
4, 170160, Note_on_c, 2, 62, 60
4, 170276, Note_off_c, 2, 62, 64
4, 170280, Note_on_c, 2, 65, 46
4, 170636, Note_off_c, 2, 65, 64
4, 170640, Note_on_c, 2, 62, 48
4, 170876, Note_off_c, 2, 62, 64
4, 170880, Note_on_c, 2, 62, 76
4, 170880, Note_on_c, 2, 58, 56
4, 170880, Note_on_c, 2, 53, 45
4, 171236, Note_off_c, 2, 53, 64
4, 171236, Note_off_c, 2, 58, 64
4, 171236, Note_off_c, 2, 62, 64
4, 171240, Note_on_c, 2, 62, 52
4, 171240, Note_on_c, 2, 58, 52
4, 171240, Note_on_c, 2, 53, 51
4, 171356, Note_off_c, 2, 53, 64
4, 171356, Note_off_c, 2, 58, 64
4, 171356, Note_off_c, 2, 62, 64
4, 171600, Note_on_c, 2, 60, 74
4, 171600, Note_on_c, 2, 64, 75
4, 171600, Note_on_c, 2, 55, 65
4, 172076, Note_off_c, 2, 55, 64
4, 172076, Note_off_c, 2, 64, 64
4, 172076, Note_off_c, 2, 60, 64
4, 173280, Control_c, 2, 91, 0
4, 173280, Control_c, 2, 93, 0
4, 173280, Control_c, 2, 1, 0
4, 173280, Control_c, 2, 0, 0
4, 173280, Control_c, 2, 10, 64
4, 173280, Control_c, 2, 64, 0
4, 173280, Control_c, 2, 7, 127
4, 173280, Pitch_bend_c, 2, 8192
4, 173280, End_track
5, 0, Start_track
5, 0, Title_t, "Mute Guitar"
5, 0, MIDI_port, 0
5, 0, Channel_prefix, 3
5, 0, Control_c, 3, 10, 64
5, 20, Control_c, 3, 121, 0
5, 20, Control_c, 3, 0, 0
5, 20, Control_c, 3, 7, 100
5, 20, Control_c, 3, 91, 77
5, 20, Control_c, 3, 93, 88
5, 20, Control_c, 3, 10, 44
5, 20, Control_c, 3, 1, 0
5, 20, Control_c, 3, 64, 0
5, 20, Pitch_bend_c, 3, 8192
5, 548, Program_c, 3, 28
5, 4080, Note_on_c, 3, 60, 70
5, 4196, Note_off_c, 3, 60, 64
5, 4200, Note_on_c, 3, 60, 72
5, 4316, Note_off_c, 3, 60, 64
5, 4560, Note_on_c, 3, 60, 70
5, 4676, Note_off_c, 3, 60, 64
5, 4680, Note_on_c, 3, 60, 75
5, 4796, Note_off_c, 3, 60, 64
5, 5040, Note_on_c, 3, 60, 78
5, 5156, Note_off_c, 3, 60, 64
5, 5160, Note_on_c, 3, 60, 76
5, 5276, Note_off_c, 3, 60, 64
5, 5520, Note_on_c, 3, 60, 79
5, 5636, Note_off_c, 3, 60, 64
5, 5640, Note_on_c, 3, 60, 77
5, 5756, Note_off_c, 3, 60, 64
5, 6000, Note_on_c, 3, 60, 72
5, 6116, Note_off_c, 3, 60, 64
5, 6120, Note_on_c, 3, 60, 70
5, 6236, Note_off_c, 3, 60, 64
5, 6480, Note_on_c, 3, 60, 76
5, 6596, Note_off_c, 3, 60, 64
5, 6600, Note_on_c, 3, 60, 68
5, 6716, Note_off_c, 3, 60, 64
5, 6960, Note_on_c, 3, 60, 77
5, 7076, Note_off_c, 3, 60, 64
5, 7080, Note_on_c, 3, 60, 77
5, 7196, Note_off_c, 3, 60, 64
5, 7440, Note_on_c, 3, 60, 76
5, 7556, Note_off_c, 3, 60, 64
5, 7560, Note_on_c, 3, 60, 75
5, 7676, Note_off_c, 3, 60, 64
5, 7920, Note_on_c, 3, 60, 78
5, 8036, Note_off_c, 3, 60, 64
5, 8040, Note_on_c, 3, 60, 77
5, 8156, Note_off_c, 3, 60, 64
5, 8400, Note_on_c, 3, 60, 68
5, 8516, Note_off_c, 3, 60, 64
5, 8520, Note_on_c, 3, 60, 72
5, 8636, Note_off_c, 3, 60, 64
5, 8880, Note_on_c, 3, 60, 78
5, 8996, Note_off_c, 3, 60, 64
5, 9000, Note_on_c, 3, 60, 71
5, 9116, Note_off_c, 3, 60, 64
5, 9360, Note_on_c, 3, 60, 78
5, 9476, Note_off_c, 3, 60, 64
5, 9480, Note_on_c, 3, 60, 68
5, 9596, Note_off_c, 3, 60, 64
5, 9840, Note_on_c, 3, 60, 70
5, 9956, Note_off_c, 3, 60, 64
5, 9960, Note_on_c, 3, 60, 77
5, 10076, Note_off_c, 3, 60, 64
5, 10320, Note_on_c, 3, 60, 72
5, 10436, Note_off_c, 3, 60, 64
5, 10440, Note_on_c, 3, 60, 79
5, 10556, Note_off_c, 3, 60, 64
5, 10800, Note_on_c, 3, 60, 75
5, 10916, Note_off_c, 3, 60, 64
5, 10920, Note_on_c, 3, 60, 77
5, 11036, Note_off_c, 3, 60, 64
5, 11280, Note_on_c, 3, 60, 72
5, 11396, Note_off_c, 3, 60, 64
5, 11400, Note_on_c, 3, 60, 74
5, 11516, Note_off_c, 3, 60, 64
5, 11760, Note_on_c, 3, 60, 69
5, 11876, Note_off_c, 3, 60, 64
5, 11880, Note_on_c, 3, 60, 78
5, 11996, Note_off_c, 3, 60, 64
5, 12240, Note_on_c, 3, 60, 79
5, 12356, Note_off_c, 3, 60, 64
5, 12360, Note_on_c, 3, 60, 78
5, 12476, Note_off_c, 3, 60, 64
5, 12720, Note_on_c, 3, 60, 72
5, 12836, Note_off_c, 3, 60, 64
5, 12840, Note_on_c, 3, 60, 75
5, 12956, Note_off_c, 3, 60, 64
5, 13200, Note_on_c, 3, 60, 75
5, 13316, Note_off_c, 3, 60, 64
5, 13320, Note_on_c, 3, 60, 68
5, 13436, Note_off_c, 3, 60, 64
5, 13680, Note_on_c, 3, 60, 69
5, 13796, Note_off_c, 3, 60, 64
5, 13800, Note_on_c, 3, 60, 71
5, 13916, Note_off_c, 3, 60, 64
5, 14160, Note_on_c, 3, 60, 74
5, 14276, Note_off_c, 3, 60, 64
5, 14280, Note_on_c, 3, 60, 74
5, 14396, Note_off_c, 3, 60, 64
5, 14640, Note_on_c, 3, 60, 72
5, 14756, Note_off_c, 3, 60, 64
5, 14760, Note_on_c, 3, 60, 76
5, 14876, Note_off_c, 3, 60, 64
5, 15120, Note_on_c, 3, 60, 73
5, 15236, Note_off_c, 3, 60, 64
5, 15240, Note_on_c, 3, 60, 68
5, 15356, Note_off_c, 3, 60, 64
5, 15600, Note_on_c, 3, 60, 72
5, 15716, Note_off_c, 3, 60, 64
5, 15720, Note_on_c, 3, 60, 73
5, 15836, Note_off_c, 3, 60, 64
5, 16080, Note_on_c, 3, 60, 68
5, 16196, Note_off_c, 3, 60, 64
5, 16200, Note_on_c, 3, 60, 68
5, 16316, Note_off_c, 3, 60, 64
5, 16560, Note_on_c, 3, 60, 79
5, 16676, Note_off_c, 3, 60, 64
5, 16680, Note_on_c, 3, 60, 76
5, 16796, Note_off_c, 3, 60, 64
5, 17040, Note_on_c, 3, 60, 77
5, 17156, Note_off_c, 3, 60, 64
5, 17160, Note_on_c, 3, 60, 74
5, 17276, Note_off_c, 3, 60, 64
5, 17520, Note_on_c, 3, 60, 77
5, 17636, Note_off_c, 3, 60, 64
5, 17640, Note_on_c, 3, 60, 76
5, 17756, Note_off_c, 3, 60, 64
5, 18000, Note_on_c, 3, 60, 68
5, 18116, Note_off_c, 3, 60, 64
5, 18120, Note_on_c, 3, 60, 75
5, 18236, Note_off_c, 3, 60, 64
5, 18480, Note_on_c, 3, 60, 72
5, 18596, Note_off_c, 3, 60, 64
5, 18600, Note_on_c, 3, 60, 71
5, 18716, Note_off_c, 3, 60, 64
5, 18960, Note_on_c, 3, 60, 78
5, 19076, Note_off_c, 3, 60, 64
5, 19080, Note_on_c, 3, 60, 79
5, 19196, Note_off_c, 3, 60, 64
5, 36720, Note_on_c, 3, 60, 73
5, 36836, Note_off_c, 3, 60, 64
5, 36840, Note_on_c, 3, 60, 79
5, 36956, Note_off_c, 3, 60, 64
5, 37200, Note_on_c, 3, 60, 72
5, 37316, Note_off_c, 3, 60, 64
5, 37320, Note_on_c, 3, 60, 72
5, 37436, Note_off_c, 3, 60, 64
5, 37680, Note_on_c, 3, 60, 73
5, 37796, Note_off_c, 3, 60, 64
5, 37800, Note_on_c, 3, 60, 68
5, 37916, Note_off_c, 3, 60, 64
5, 38160, Note_on_c, 3, 60, 71
5, 38276, Note_off_c, 3, 60, 64
5, 38280, Note_on_c, 3, 60, 78
5, 38396, Note_off_c, 3, 60, 64
5, 38640, Note_on_c, 3, 60, 74
5, 38756, Note_off_c, 3, 60, 64
5, 38760, Note_on_c, 3, 60, 68
5, 38876, Note_off_c, 3, 60, 64
5, 39120, Note_on_c, 3, 60, 71
5, 39236, Note_off_c, 3, 60, 64
5, 39240, Note_on_c, 3, 60, 69
5, 39356, Note_off_c, 3, 60, 64
5, 39600, Note_on_c, 3, 60, 71
5, 39716, Note_off_c, 3, 60, 64
5, 39720, Note_on_c, 3, 60, 79
5, 39836, Note_off_c, 3, 60, 64
5, 40080, Note_on_c, 3, 60, 70
5, 40196, Note_off_c, 3, 60, 64
5, 40200, Note_on_c, 3, 60, 74
5, 40316, Note_off_c, 3, 60, 64
5, 40560, Note_on_c, 3, 60, 71
5, 40676, Note_off_c, 3, 60, 64
5, 40680, Note_on_c, 3, 60, 76
5, 40796, Note_off_c, 3, 60, 64
5, 41040, Note_on_c, 3, 60, 71
5, 41156, Note_off_c, 3, 60, 64
5, 41160, Note_on_c, 3, 60, 72
5, 41276, Note_off_c, 3, 60, 64
5, 41520, Note_on_c, 3, 60, 74
5, 41636, Note_off_c, 3, 60, 64
5, 41640, Note_on_c, 3, 60, 79
5, 41756, Note_off_c, 3, 60, 64
5, 42000, Note_on_c, 3, 60, 75
5, 42116, Note_off_c, 3, 60, 64
5, 42120, Note_on_c, 3, 60, 70
5, 42236, Note_off_c, 3, 60, 64
5, 42480, Note_on_c, 3, 60, 71
5, 42596, Note_off_c, 3, 60, 64
5, 42600, Note_on_c, 3, 60, 79
5, 42716, Note_off_c, 3, 60, 64
5, 42960, Note_on_c, 3, 60, 69
5, 43076, Note_off_c, 3, 60, 64
5, 43080, Note_on_c, 3, 60, 71
5, 43196, Note_off_c, 3, 60, 64
5, 43440, Note_on_c, 3, 60, 73
5, 43556, Note_off_c, 3, 60, 64
5, 43560, Note_on_c, 3, 60, 79
5, 43676, Note_off_c, 3, 60, 64
5, 43920, Note_on_c, 3, 60, 71
5, 44036, Note_off_c, 3, 60, 64
5, 44040, Note_on_c, 3, 60, 72
5, 44156, Note_off_c, 3, 60, 64
5, 61680, Note_on_c, 3, 60, 74
5, 61796, Note_off_c, 3, 60, 64
5, 61800, Note_on_c, 3, 60, 77
5, 61916, Note_off_c, 3, 60, 64
5, 62160, Note_on_c, 3, 60, 74
5, 62276, Note_off_c, 3, 60, 64
5, 62280, Note_on_c, 3, 60, 72
5, 62396, Note_off_c, 3, 60, 64
5, 62640, Note_on_c, 3, 60, 71
5, 62756, Note_off_c, 3, 60, 64
5, 62760, Note_on_c, 3, 60, 76
5, 62876, Note_off_c, 3, 60, 64
5, 63120, Note_on_c, 3, 60, 77
5, 63236, Note_off_c, 3, 60, 64
5, 63240, Note_on_c, 3, 60, 70
5, 63356, Note_off_c, 3, 60, 64
5, 63600, Note_on_c, 3, 60, 68
5, 63716, Note_off_c, 3, 60, 64
5, 63720, Note_on_c, 3, 60, 78
5, 63836, Note_off_c, 3, 60, 64
5, 64080, Note_on_c, 3, 60, 68
5, 64196, Note_off_c, 3, 60, 64
5, 64200, Note_on_c, 3, 60, 77
5, 64316, Note_off_c, 3, 60, 64
5, 64560, Note_on_c, 3, 60, 77
5, 64676, Note_off_c, 3, 60, 64
5, 64680, Note_on_c, 3, 60, 71
5, 64796, Note_off_c, 3, 60, 64
5, 65040, Note_on_c, 3, 60, 78
5, 65156, Note_off_c, 3, 60, 64
5, 65160, Note_on_c, 3, 60, 71
5, 65276, Note_off_c, 3, 60, 64
5, 65520, Note_on_c, 3, 60, 68
5, 65636, Note_off_c, 3, 60, 64
5, 65640, Note_on_c, 3, 60, 68
5, 65756, Note_off_c, 3, 60, 64
5, 66000, Note_on_c, 3, 60, 76
5, 66116, Note_off_c, 3, 60, 64
5, 66120, Note_on_c, 3, 60, 70
5, 66236, Note_off_c, 3, 60, 64
5, 66480, Note_on_c, 3, 60, 70
5, 66596, Note_off_c, 3, 60, 64
5, 66600, Note_on_c, 3, 60, 69
5, 66716, Note_off_c, 3, 60, 64
5, 66960, Note_on_c, 3, 60, 73
5, 67076, Note_off_c, 3, 60, 64
5, 67080, Note_on_c, 3, 60, 77
5, 67196, Note_off_c, 3, 60, 64
5, 67440, Note_on_c, 3, 60, 78
5, 67556, Note_off_c, 3, 60, 64
5, 67560, Note_on_c, 3, 60, 68
5, 67676, Note_off_c, 3, 60, 64
5, 67920, Note_on_c, 3, 60, 77
5, 68036, Note_off_c, 3, 60, 64
5, 68040, Note_on_c, 3, 60, 74
5, 68156, Note_off_c, 3, 60, 64
5, 68400, Note_on_c, 3, 60, 74
5, 68516, Note_off_c, 3, 60, 64
5, 68520, Note_on_c, 3, 60, 78
5, 68636, Note_off_c, 3, 60, 64
5, 68640, Note_on_c, 3, 60, 79
5, 68756, Note_off_c, 3, 60, 64
5, 68760, Note_on_c, 3, 62, 69
5, 68996, Note_off_c, 3, 62, 64
5, 69000, Note_on_c, 3, 62, 77
5, 69116, Note_off_c, 3, 62, 64
5, 86640, Note_on_c, 3, 60, 68
5, 86756, Note_off_c, 3, 60, 64
5, 86760, Note_on_c, 3, 60, 77
5, 86876, Note_off_c, 3, 60, 64
5, 87120, Note_on_c, 3, 60, 74
5, 87236, Note_off_c, 3, 60, 64
5, 87240, Note_on_c, 3, 60, 72
5, 87356, Note_off_c, 3, 60, 64
5, 87600, Note_on_c, 3, 60, 79
5, 87716, Note_off_c, 3, 60, 64
5, 87720, Note_on_c, 3, 60, 76
5, 87836, Note_off_c, 3, 60, 64
5, 88080, Note_on_c, 3, 60, 71
5, 88196, Note_off_c, 3, 60, 64
5, 88200, Note_on_c, 3, 60, 70
5, 88316, Note_off_c, 3, 60, 64
5, 88560, Note_on_c, 3, 60, 73
5, 88676, Note_off_c, 3, 60, 64
5, 88680, Note_on_c, 3, 60, 70
5, 88796, Note_off_c, 3, 60, 64
5, 89040, Note_on_c, 3, 60, 75
5, 89156, Note_off_c, 3, 60, 64
5, 89160, Note_on_c, 3, 60, 75
5, 89276, Note_off_c, 3, 60, 64
5, 89520, Note_on_c, 3, 60, 71
5, 89636, Note_off_c, 3, 60, 64
5, 89640, Note_on_c, 3, 60, 71
5, 89756, Note_off_c, 3, 60, 64
5, 90000, Note_on_c, 3, 60, 73
5, 90116, Note_off_c, 3, 60, 64
5, 90120, Note_on_c, 3, 60, 73
5, 90236, Note_off_c, 3, 60, 64
5, 90480, Note_on_c, 3, 60, 72
5, 90596, Note_off_c, 3, 60, 64
5, 90600, Note_on_c, 3, 60, 70
5, 90716, Note_off_c, 3, 60, 64
5, 90960, Note_on_c, 3, 60, 70
5, 91076, Note_off_c, 3, 60, 64
5, 91080, Note_on_c, 3, 60, 76
5, 91196, Note_off_c, 3, 60, 64
5, 91440, Note_on_c, 3, 60, 75
5, 91556, Note_off_c, 3, 60, 64
5, 91560, Note_on_c, 3, 60, 71
5, 91676, Note_off_c, 3, 60, 64
5, 91920, Note_on_c, 3, 60, 68
5, 92036, Note_off_c, 3, 60, 64
5, 92040, Note_on_c, 3, 60, 78
5, 92156, Note_off_c, 3, 60, 64
5, 92400, Note_on_c, 3, 60, 68
5, 92516, Note_off_c, 3, 60, 64
5, 92520, Note_on_c, 3, 60, 68
5, 92636, Note_off_c, 3, 60, 64
5, 92880, Note_on_c, 3, 60, 75
5, 92996, Note_off_c, 3, 60, 64
5, 93000, Note_on_c, 3, 60, 74
5, 93116, Note_off_c, 3, 60, 64
5, 93360, Note_on_c, 3, 60, 77
5, 93476, Note_off_c, 3, 60, 64
5, 93480, Note_on_c, 3, 60, 76
5, 93596, Note_off_c, 3, 60, 64
5, 93840, Note_on_c, 3, 60, 78
5, 93956, Note_off_c, 3, 60, 64
5, 93960, Note_on_c, 3, 60, 72
5, 94076, Note_off_c, 3, 60, 64
5, 140400, Note_on_c, 3, 60, 68
5, 140516, Note_off_c, 3, 60, 64
5, 140520, Note_on_c, 3, 60, 68
5, 140636, Note_off_c, 3, 60, 64
5, 140880, Note_on_c, 3, 60, 71
5, 140996, Note_off_c, 3, 60, 64
5, 141000, Note_on_c, 3, 60, 71
5, 141116, Note_off_c, 3, 60, 64
5, 141360, Note_on_c, 3, 60, 73
5, 141476, Note_off_c, 3, 60, 64
5, 141480, Note_on_c, 3, 60, 68
5, 141596, Note_off_c, 3, 60, 64
5, 141840, Note_on_c, 3, 60, 79
5, 141956, Note_off_c, 3, 60, 64
5, 141960, Note_on_c, 3, 60, 72
5, 142076, Note_off_c, 3, 60, 64
5, 142320, Note_on_c, 3, 60, 71
5, 142436, Note_off_c, 3, 60, 64
5, 142440, Note_on_c, 3, 60, 79
5, 142556, Note_off_c, 3, 60, 64
5, 142800, Note_on_c, 3, 60, 68
5, 142916, Note_off_c, 3, 60, 64
5, 142920, Note_on_c, 3, 60, 71
5, 143036, Note_off_c, 3, 60, 64
5, 143280, Note_on_c, 3, 60, 75
5, 143396, Note_off_c, 3, 60, 64
5, 143400, Note_on_c, 3, 60, 71
5, 143516, Note_off_c, 3, 60, 64
5, 143760, Note_on_c, 3, 60, 70
5, 143876, Note_off_c, 3, 60, 64
5, 143880, Note_on_c, 3, 60, 70
5, 143996, Note_off_c, 3, 60, 64
5, 144240, Note_on_c, 3, 60, 69
5, 144356, Note_off_c, 3, 60, 64
5, 144360, Note_on_c, 3, 60, 76
5, 144476, Note_off_c, 3, 60, 64
5, 144720, Note_on_c, 3, 60, 68
5, 144836, Note_off_c, 3, 60, 64
5, 144840, Note_on_c, 3, 60, 76
5, 144956, Note_off_c, 3, 60, 64
5, 145200, Note_on_c, 3, 60, 74
5, 145316, Note_off_c, 3, 60, 64
5, 145320, Note_on_c, 3, 60, 69
5, 145436, Note_off_c, 3, 60, 64
5, 145680, Note_on_c, 3, 60, 79
5, 145796, Note_off_c, 3, 60, 64
5, 145800, Note_on_c, 3, 60, 75
5, 145916, Note_off_c, 3, 60, 64
5, 146160, Note_on_c, 3, 60, 74
5, 146276, Note_off_c, 3, 60, 64
5, 146280, Note_on_c, 3, 60, 79
5, 146396, Note_off_c, 3, 60, 64
5, 146640, Note_on_c, 3, 60, 68
5, 146756, Note_off_c, 3, 60, 64
5, 146760, Note_on_c, 3, 60, 71
5, 146876, Note_off_c, 3, 60, 64
5, 147120, Note_on_c, 3, 60, 77
5, 147236, Note_off_c, 3, 60, 64
5, 147240, Note_on_c, 3, 60, 78
5, 147356, Note_off_c, 3, 60, 64
5, 147600, Note_on_c, 3, 60, 76
5, 147716, Note_off_c, 3, 60, 64
5, 147720, Note_on_c, 3, 60, 68
5, 147836, Note_off_c, 3, 60, 64
5, 148080, Note_on_c, 3, 60, 72
5, 148196, Note_off_c, 3, 60, 64
5, 148200, Note_on_c, 3, 60, 75
5, 148316, Note_off_c, 3, 60, 64
5, 148560, Note_on_c, 3, 60, 70
5, 148676, Note_off_c, 3, 60, 64
5, 148680, Note_on_c, 3, 60, 72
5, 148796, Note_off_c, 3, 60, 64
5, 149040, Note_on_c, 3, 60, 75
5, 149156, Note_off_c, 3, 60, 64
5, 149160, Note_on_c, 3, 60, 71
5, 149276, Note_off_c, 3, 60, 64
5, 149520, Note_on_c, 3, 60, 73
5, 149636, Note_off_c, 3, 60, 64
5, 149640, Note_on_c, 3, 60, 70
5, 149756, Note_off_c, 3, 60, 64
5, 150000, Note_on_c, 3, 60, 69
5, 150116, Note_off_c, 3, 60, 64
5, 150120, Note_on_c, 3, 60, 77
5, 150236, Note_off_c, 3, 60, 64
5, 150480, Note_on_c, 3, 60, 77
5, 150596, Note_off_c, 3, 60, 64
5, 150600, Note_on_c, 3, 60, 73
5, 150716, Note_off_c, 3, 60, 64
5, 150960, Note_on_c, 3, 60, 79
5, 151076, Note_off_c, 3, 60, 64
5, 151080, Note_on_c, 3, 60, 74
5, 151196, Note_off_c, 3, 60, 64
5, 151440, Note_on_c, 3, 60, 78
5, 151556, Note_off_c, 3, 60, 64
5, 151560, Note_on_c, 3, 60, 77
5, 151676, Note_off_c, 3, 60, 64
5, 151920, Note_on_c, 3, 60, 71
5, 152036, Note_off_c, 3, 60, 64
5, 152040, Note_on_c, 3, 60, 69
5, 152156, Note_off_c, 3, 60, 64
5, 152400, Note_on_c, 3, 60, 75
5, 152516, Note_off_c, 3, 60, 64
5, 152520, Note_on_c, 3, 60, 79
5, 152636, Note_off_c, 3, 60, 64
5, 152880, Note_on_c, 3, 60, 72
5, 152996, Note_off_c, 3, 60, 64
5, 153000, Note_on_c, 3, 60, 75
5, 153116, Note_off_c, 3, 60, 64
5, 153360, Note_on_c, 3, 60, 70
5, 153476, Note_off_c, 3, 60, 64
5, 153480, Note_on_c, 3, 60, 70
5, 153596, Note_off_c, 3, 60, 64
5, 153840, Note_on_c, 3, 60, 76
5, 153956, Note_off_c, 3, 60, 64
5, 153960, Note_on_c, 3, 60, 73
5, 154076, Note_off_c, 3, 60, 64
5, 154320, Note_on_c, 3, 60, 79
5, 154436, Note_off_c, 3, 60, 64
5, 154440, Note_on_c, 3, 60, 74
5, 154556, Note_off_c, 3, 60, 64
5, 154800, Note_on_c, 3, 60, 74
5, 154916, Note_off_c, 3, 60, 64
5, 154920, Note_on_c, 3, 60, 72
5, 155036, Note_off_c, 3, 60, 64
5, 155280, Note_on_c, 3, 60, 72
5, 155396, Note_off_c, 3, 60, 64
5, 155400, Note_on_c, 3, 60, 77
5, 155516, Note_off_c, 3, 60, 64
5, 155760, Note_on_c, 3, 60, 71
5, 155876, Note_off_c, 3, 60, 64
5, 155880, Note_on_c, 3, 60, 75
5, 155996, Note_off_c, 3, 60, 64
5, 156240, Note_on_c, 3, 60, 75
5, 156356, Note_off_c, 3, 60, 64
5, 156360, Note_on_c, 3, 60, 79
5, 156476, Note_off_c, 3, 60, 64
5, 156720, Note_on_c, 3, 60, 70
5, 156836, Note_off_c, 3, 60, 64
5, 156840, Note_on_c, 3, 60, 72
5, 156956, Note_off_c, 3, 60, 64
5, 157200, Note_on_c, 3, 60, 77
5, 157316, Note_off_c, 3, 60, 64
5, 157320, Note_on_c, 3, 60, 69
5, 157436, Note_off_c, 3, 60, 64
5, 157680, Note_on_c, 3, 60, 71
5, 157796, Note_off_c, 3, 60, 64
5, 157800, Note_on_c, 3, 60, 77
5, 157916, Note_off_c, 3, 60, 64
5, 158160, Note_on_c, 3, 60, 72
5, 158276, Note_off_c, 3, 60, 64
5, 158280, Note_on_c, 3, 60, 74
5, 158396, Note_off_c, 3, 60, 64
5, 158640, Note_on_c, 3, 60, 79
5, 158756, Note_off_c, 3, 60, 64
5, 158760, Note_on_c, 3, 60, 72
5, 158876, Note_off_c, 3, 60, 64
5, 159120, Note_on_c, 3, 60, 72
5, 159236, Note_off_c, 3, 60, 64
5, 159240, Note_on_c, 3, 60, 78
5, 159356, Note_off_c, 3, 60, 64
5, 159600, Note_on_c, 3, 60, 72
5, 159716, Note_off_c, 3, 60, 64
5, 159720, Note_on_c, 3, 60, 73
5, 159836, Note_off_c, 3, 60, 64
5, 160080, Note_on_c, 3, 60, 74
5, 160196, Note_off_c, 3, 60, 64
5, 160200, Note_on_c, 3, 60, 69
5, 160316, Note_off_c, 3, 60, 64
5, 160560, Note_on_c, 3, 60, 70
5, 160676, Note_off_c, 3, 60, 64
5, 160680, Note_on_c, 3, 60, 72
5, 160796, Note_off_c, 3, 60, 64
5, 161040, Note_on_c, 3, 60, 75
5, 161156, Note_off_c, 3, 60, 64
5, 161160, Note_on_c, 3, 60, 69
5, 161276, Note_off_c, 3, 60, 64
5, 161520, Note_on_c, 3, 60, 69
5, 161636, Note_off_c, 3, 60, 64
5, 161640, Note_on_c, 3, 60, 77
5, 161756, Note_off_c, 3, 60, 64
5, 162000, Note_on_c, 3, 60, 79
5, 162116, Note_off_c, 3, 60, 64
5, 162120, Note_on_c, 3, 60, 69
5, 162236, Note_off_c, 3, 60, 64
5, 162480, Note_on_c, 3, 60, 71
5, 162596, Note_off_c, 3, 60, 64
5, 162600, Note_on_c, 3, 60, 74
5, 162716, Note_off_c, 3, 60, 64
5, 162960, Note_on_c, 3, 60, 69
5, 163076, Note_off_c, 3, 60, 64
5, 163080, Note_on_c, 3, 60, 72
5, 163196, Note_off_c, 3, 60, 64
5, 163440, Note_on_c, 3, 60, 73
5, 163556, Note_off_c, 3, 60, 64
5, 163560, Note_on_c, 3, 60, 71
5, 163676, Note_off_c, 3, 60, 64
5, 163920, Note_on_c, 3, 60, 72
5, 164036, Note_off_c, 3, 60, 64
5, 164040, Note_on_c, 3, 60, 76
5, 164156, Note_off_c, 3, 60, 64
5, 164400, Note_on_c, 3, 60, 72
5, 164516, Note_off_c, 3, 60, 64
5, 164520, Note_on_c, 3, 60, 76
5, 164636, Note_off_c, 3, 60, 64
5, 164880, Note_on_c, 3, 60, 69
5, 164996, Note_off_c, 3, 60, 64
5, 165000, Note_on_c, 3, 60, 76
5, 165116, Note_off_c, 3, 60, 64
5, 165360, Note_on_c, 3, 60, 75
5, 165476, Note_off_c, 3, 60, 64
5, 165480, Note_on_c, 3, 60, 73
5, 165596, Note_off_c, 3, 60, 64
5, 165840, Note_on_c, 3, 60, 72
5, 165956, Note_off_c, 3, 60, 64
5, 165960, Note_on_c, 3, 60, 72
5, 166076, Note_off_c, 3, 60, 64
5, 166320, Note_on_c, 3, 60, 70
5, 166436, Note_off_c, 3, 60, 64
5, 166440, Note_on_c, 3, 60, 70
5, 166556, Note_off_c, 3, 60, 64
5, 166800, Note_on_c, 3, 60, 70
5, 166916, Note_off_c, 3, 60, 64
5, 166920, Note_on_c, 3, 60, 70
5, 167036, Note_off_c, 3, 60, 64
5, 167280, Note_on_c, 3, 60, 72
5, 167396, Note_off_c, 3, 60, 64
5, 167400, Note_on_c, 3, 60, 73
5, 167516, Note_off_c, 3, 60, 64
5, 167760, Note_on_c, 3, 60, 77
5, 167876, Note_off_c, 3, 60, 64
5, 167880, Note_on_c, 3, 60, 78
5, 167996, Note_off_c, 3, 60, 64
5, 168240, Note_on_c, 3, 60, 73
5, 168356, Note_off_c, 3, 60, 64
5, 168360, Note_on_c, 3, 60, 76
5, 168476, Note_off_c, 3, 60, 64
5, 168720, Note_on_c, 3, 60, 79
5, 168836, Note_off_c, 3, 60, 64
5, 168840, Note_on_c, 3, 60, 71
5, 168956, Note_off_c, 3, 60, 64
5, 169200, Note_on_c, 3, 60, 77
5, 169316, Note_off_c, 3, 60, 64
5, 169320, Note_on_c, 3, 60, 77
5, 169436, Note_off_c, 3, 60, 64
5, 169680, Note_on_c, 3, 60, 71
5, 169796, Note_off_c, 3, 60, 64
5, 169800, Note_on_c, 3, 60, 79
5, 169916, Note_off_c, 3, 60, 64
5, 170160, Note_on_c, 3, 60, 73
5, 170276, Note_off_c, 3, 60, 64
5, 170280, Note_on_c, 3, 60, 71
5, 170396, Note_off_c, 3, 60, 64
5, 170640, Note_on_c, 3, 60, 73
5, 170756, Note_off_c, 3, 60, 64
5, 170760, Note_on_c, 3, 60, 77
5, 170876, Note_off_c, 3, 60, 64
5, 173280, Control_c, 3, 91, 0
5, 173280, Control_c, 3, 93, 0
5, 173280, Control_c, 3, 1, 0
5, 173280, Control_c, 3, 0, 0
5, 173280, Control_c, 3, 10, 64
5, 173280, Control_c, 3, 64, 0
5, 173280, Control_c, 3, 7, 127
5, 173280, Pitch_bend_c, 3, 8192
5, 173280, End_track
6, 0, Start_track
6, 0, Title_t, "E. Guitar 2"
6, 0, MIDI_port, 0
6, 0, Channel_prefix, 8
6, 0, Control_c, 8, 10, 64
6, 20, Control_c, 8, 121, 0
6, 20, Control_c, 8, 0, 0
6, 20, Control_c, 8, 7, 100
6, 20, Control_c, 8, 91, 54
6, 20, Control_c, 8, 93, 77
6, 20, Control_c, 8, 10, 54
6, 20, Control_c, 8, 1, 0
6, 20, Control_c, 8, 64, 0
6, 20, Pitch_bend_c, 8, 8192
6, 648, Program_c, 8, 25
6, 72960, Note_on_c, 8, 58, 65
6, 72960, Note_on_c, 8, 62, 72
6, 72960, Note_on_c, 8, 53, 68
6, 73316, Note_off_c, 8, 53, 64
6, 73316, Note_off_c, 8, 62, 64
6, 73316, Note_off_c, 8, 58, 64
6, 73320, Note_on_c, 8, 58, 79
6, 73320, Note_on_c, 8, 62, 59
6, 73320, Note_on_c, 8, 53, 67
6, 73436, Note_off_c, 8, 53, 64
6, 73436, Note_off_c, 8, 62, 64
6, 73436, Note_off_c, 8, 58, 64
6, 73920, Note_on_c, 8, 55, 62
6, 73920, Note_on_c, 8, 60, 68
6, 73920, Note_on_c, 8, 64, 69
6, 74276, Note_off_c, 8, 64, 64
6, 74276, Note_off_c, 8, 60, 64
6, 74276, Note_off_c, 8, 55, 64
6, 74280, Note_on_c, 8, 64, 76
6, 74280, Note_on_c, 8, 60, 68
6, 74280, Note_on_c, 8, 55, 61
6, 74396, Note_off_c, 8, 55, 64
6, 74396, Note_off_c, 8, 60, 64
6, 74396, Note_off_c, 8, 64, 64
6, 74880, Note_on_c, 8, 62, 69
6, 75236, Note_off_c, 8, 62, 64
6, 75240, Note_on_c, 8, 69, 60
6, 75240, Note_on_c, 8, 65, 63
6, 75356, Note_off_c, 8, 65, 64
6, 75356, Note_off_c, 8, 69, 64
6, 75480, Note_on_c, 8, 62, 63
6, 75596, Note_off_c, 8, 62, 64
6, 75600, Note_on_c, 8, 60, 71
6, 75716, Note_off_c, 8, 60, 64
6, 75720, Note_on_c, 8, 62, 64
6, 75836, Note_off_c, 8, 62, 64
6, 75840, Note_on_c, 8, 60, 75
6, 75956, Note_off_c, 8, 60, 64
6, 75960, Note_on_c, 8, 62, 78
6, 76076, Note_off_c, 8, 62, 64
6, 76080, Note_on_c, 8, 69, 64
6, 76080, Note_on_c, 8, 65, 60
6, 76196, Note_off_c, 8, 65, 64
6, 76196, Note_off_c, 8, 69, 64
6, 76200, Note_on_c, 8, 69, 61
6, 76200, Note_on_c, 8, 65, 66
6, 76796, Note_off_c, 8, 65, 64
6, 76796, Note_off_c, 8, 69, 64
6, 76800, Note_on_c, 8, 53, 66
6, 76800, Note_on_c, 8, 62, 72
6, 76800, Note_on_c, 8, 58, 66
6, 77156, Note_off_c, 8, 58, 64
6, 77156, Note_off_c, 8, 62, 64
6, 77156, Note_off_c, 8, 53, 64
6, 77160, Note_on_c, 8, 53, 72
6, 77160, Note_on_c, 8, 62, 68
6, 77160, Note_on_c, 8, 58, 75
6, 77276, Note_off_c, 8, 58, 64
6, 77276, Note_off_c, 8, 62, 64
6, 77276, Note_off_c, 8, 53, 64
6, 77760, Note_on_c, 8, 55, 74
6, 77760, Note_on_c, 8, 60, 76
6, 77760, Note_on_c, 8, 64, 64
6, 78116, Note_off_c, 8, 64, 64
6, 78116, Note_off_c, 8, 60, 64
6, 78116, Note_off_c, 8, 55, 64
6, 78120, Note_on_c, 8, 60, 60
6, 78120, Note_on_c, 8, 64, 74
6, 78120, Note_on_c, 8, 55, 64
6, 78236, Note_off_c, 8, 55, 64
6, 78236, Note_off_c, 8, 64, 64
6, 78236, Note_off_c, 8, 60, 64
6, 78720, Note_on_c, 8, 62, 65
6, 78720, Note_on_c, 8, 69, 76
6, 78720, Note_on_c, 8, 67, 67
6, 79436, Note_off_c, 8, 67, 64
6, 79436, Note_off_c, 8, 69, 64
6, 79436, Note_off_c, 8, 62, 64
6, 79440, Note_on_c, 8, 67, 76
6, 79440, Note_on_c, 8, 58, 75
6, 79440, Note_on_c, 8, 62, 68
6, 80156, Note_off_c, 8, 62, 64
6, 80156, Note_off_c, 8, 58, 64
6, 80156, Note_off_c, 8, 67, 64
6, 80160, Note_on_c, 8, 67, 68
6, 80160, Note_on_c, 8, 62, 75
6, 80160, Note_on_c, 8, 58, 65
6, 80396, Note_off_c, 8, 58, 64
6, 80396, Note_off_c, 8, 62, 64
6, 80396, Note_off_c, 8, 67, 64
6, 80640, Note_on_c, 8, 58, 73
6, 80640, Note_on_c, 8, 62, 76
6, 80640, Note_on_c, 8, 53, 74
6, 80996, Note_off_c, 8, 53, 64
6, 80996, Note_off_c, 8, 62, 64
6, 80996, Note_off_c, 8, 58, 64
6, 81000, Note_on_c, 8, 58, 61
6, 81000, Note_on_c, 8, 62, 70
6, 81000, Note_on_c, 8, 53, 69
6, 81116, Note_off_c, 8, 53, 64
6, 81116, Note_off_c, 8, 62, 64
6, 81116, Note_off_c, 8, 58, 64
6, 81600, Note_on_c, 8, 55, 60
6, 81600, Note_on_c, 8, 60, 60
6, 81600, Note_on_c, 8, 64, 61
6, 81956, Note_off_c, 8, 64, 64
6, 81956, Note_off_c, 8, 60, 64
6, 81956, Note_off_c, 8, 55, 64
6, 81960, Note_on_c, 8, 64, 76
6, 81960, Note_on_c, 8, 60, 64
6, 81960, Note_on_c, 8, 55, 77
6, 82076, Note_off_c, 8, 55, 64
6, 82076, Note_off_c, 8, 60, 64
6, 82076, Note_off_c, 8, 64, 64
6, 82560, Note_on_c, 8, 69, 64
6, 82560, Note_on_c, 8, 65, 68
6, 82560, Note_on_c, 8, 62, 65
6, 82916, Note_off_c, 8, 62, 64
6, 82916, Note_off_c, 8, 65, 64
6, 82916, Note_off_c, 8, 69, 64
6, 82920, Note_on_c, 8, 69, 76
6, 82920, Note_on_c, 8, 65, 60
6, 82920, Note_on_c, 8, 62, 70
6, 83036, Note_off_c, 8, 62, 64
6, 83036, Note_off_c, 8, 65, 64
6, 83036, Note_off_c, 8, 69, 64
6, 83280, Note_on_c, 8, 69, 69
6, 83280, Note_on_c, 8, 65, 73
6, 83280, Note_on_c, 8, 62, 68
6, 83636, Note_off_c, 8, 62, 64
6, 83636, Note_off_c, 8, 65, 64
6, 83636, Note_off_c, 8, 69, 64
6, 83640, Note_on_c, 8, 69, 70
6, 83640, Note_on_c, 8, 65, 76
6, 83640, Note_on_c, 8, 62, 61
6, 83756, Note_off_c, 8, 62, 64
6, 83756, Note_off_c, 8, 65, 64
6, 83756, Note_off_c, 8, 69, 64
6, 84000, Note_on_c, 8, 69, 60
6, 84000, Note_on_c, 8, 65, 70
6, 84000, Note_on_c, 8, 62, 66
6, 84476, Note_off_c, 8, 62, 64
6, 84476, Note_off_c, 8, 65, 64
6, 84476, Note_off_c, 8, 69, 64
6, 84480, Note_on_c, 8, 58, 74
6, 84480, Note_on_c, 8, 62, 66
6, 84480, Note_on_c, 8, 53, 71
6, 84836, Note_off_c, 8, 53, 64
6, 84836, Note_off_c, 8, 62, 64
6, 84836, Note_off_c, 8, 58, 64
6, 84840, Note_on_c, 8, 58, 72
6, 84840, Note_on_c, 8, 62, 68
6, 84840, Note_on_c, 8, 53, 62
6, 84956, Note_off_c, 8, 53, 64
6, 84956, Note_off_c, 8, 62, 64
6, 84956, Note_off_c, 8, 58, 64
6, 85440, Note_on_c, 8, 55, 60
6, 85440, Note_on_c, 8, 60, 63
6, 85440, Note_on_c, 8, 64, 67
6, 85796, Note_off_c, 8, 64, 64
6, 85796, Note_off_c, 8, 60, 64
6, 85796, Note_off_c, 8, 55, 64
6, 85800, Note_on_c, 8, 64, 68
6, 85800, Note_on_c, 8, 60, 70
6, 85800, Note_on_c, 8, 55, 75
6, 85916, Note_off_c, 8, 55, 64
6, 85916, Note_off_c, 8, 60, 64
6, 85916, Note_off_c, 8, 64, 64
6, 96240, Note_on_c, 8, 60, 78
6, 96356, Note_off_c, 8, 60, 64
6, 96360, Note_on_c, 8, 62, 61
6, 96476, Note_off_c, 8, 62, 64
6, 96480, Note_on_c, 8, 69, 59
6, 96480, Note_on_c, 8, 65, 69
6, 96716, Note_off_c, 8, 65, 64
6, 96716, Note_off_c, 8, 69, 64
6, 96720, Note_on_c, 8, 62, 59
6, 96956, Note_off_c, 8, 62, 64
6, 96960, Note_on_c, 8, 60, 77
6, 96960, Note_on_c, 8, 65, 61
6, 97076, Note_off_c, 8, 60, 64
6, 97080, Note_on_c, 8, 62, 69
6, 97316, Note_off_c, 8, 65, 64
6, 97316, Note_off_c, 8, 62, 64
6, 97320, Note_on_c, 8, 62, 72
6, 97320, Note_on_c, 8, 65, 67
6, 97916, Note_off_c, 8, 65, 64
6, 97916, Note_off_c, 8, 62, 64
6, 97920, Note_on_c, 8, 53, 60
6, 97920, Note_on_c, 8, 62, 69
6, 97920, Note_on_c, 8, 58, 65
6, 98276, Note_off_c, 8, 58, 64
6, 98276, Note_off_c, 8, 62, 64
6, 98276, Note_off_c, 8, 53, 64
6, 98280, Note_on_c, 8, 62, 64
6, 98280, Note_on_c, 8, 53, 69
6, 98280, Note_on_c, 8, 58, 68
6, 98396, Note_off_c, 8, 58, 64
6, 98396, Note_off_c, 8, 53, 64
6, 98396, Note_off_c, 8, 62, 64
6, 98880, Note_on_c, 8, 55, 72
6, 98880, Note_on_c, 8, 60, 71
6, 98880, Note_on_c, 8, 64, 77
6, 99236, Note_off_c, 8, 64, 64
6, 99236, Note_off_c, 8, 60, 64
6, 99236, Note_off_c, 8, 55, 64
6, 99240, Note_on_c, 8, 60, 72
6, 99240, Note_on_c, 8, 64, 62
6, 99240, Note_on_c, 8, 55, 59
6, 99356, Note_off_c, 8, 55, 64
6, 99356, Note_off_c, 8, 64, 64
6, 99356, Note_off_c, 8, 60, 64
6, 100080, Note_on_c, 8, 60, 76
6, 100196, Note_off_c, 8, 60, 64
6, 100200, Note_on_c, 8, 62, 67
6, 100436, Note_off_c, 8, 62, 64
6, 100440, Note_on_c, 8, 62, 66
6, 100556, Note_off_c, 8, 62, 64
6, 100560, Note_on_c, 8, 62, 59
6, 100796, Note_off_c, 8, 62, 64
6, 100800, Note_on_c, 8, 67, 65
6, 100916, Note_off_c, 8, 67, 64
6, 100920, Note_on_c, 8, 64, 68
6, 101156, Note_off_c, 8, 64, 64
6, 101160, Note_on_c, 8, 62, 66
6, 101756, Note_off_c, 8, 62, 64
6, 101760, Note_on_c, 8, 58, 71
6, 101760, Note_on_c, 8, 53, 75
6, 101760, Note_on_c, 8, 62, 58
6, 102116, Note_off_c, 8, 62, 64
6, 102116, Note_off_c, 8, 53, 64
6, 102116, Note_off_c, 8, 58, 64
6, 102120, Note_on_c, 8, 62, 65
6, 102120, Note_on_c, 8, 53, 75
6, 102120, Note_on_c, 8, 58, 63
6, 102236, Note_off_c, 8, 58, 64
6, 102236, Note_off_c, 8, 53, 64
6, 102236, Note_off_c, 8, 62, 64
6, 102720, Note_on_c, 8, 55, 60
6, 102720, Note_on_c, 8, 60, 74
6, 102720, Note_on_c, 8, 64, 63
6, 103076, Note_off_c, 8, 64, 64
6, 103076, Note_off_c, 8, 60, 64
6, 103076, Note_off_c, 8, 55, 64
6, 103080, Note_on_c, 8, 64, 69
6, 103080, Note_on_c, 8, 60, 64
6, 103080, Note_on_c, 8, 55, 72
6, 103196, Note_off_c, 8, 55, 64
6, 103196, Note_off_c, 8, 60, 64
6, 103196, Note_off_c, 8, 64, 64
6, 103680, Note_on_c, 8, 65, 72
6, 103680, Note_on_c, 8, 69, 58
6, 103680, Note_on_c, 8, 62, 78
6, 104396, Note_off_c, 8, 62, 64
6, 104396, Note_off_c, 8, 69, 64
6, 104396, Note_off_c, 8, 65, 64
6, 104400, Note_on_c, 8, 67, 64
6, 104400, Note_on_c, 8, 62, 65
6, 104400, Note_on_c, 8, 58, 78
6, 105116, Note_off_c, 8, 58, 64
6, 105116, Note_off_c, 8, 62, 64
6, 105116, Note_off_c, 8, 67, 64
6, 105120, Note_on_c, 8, 67, 63
6, 105120, Note_on_c, 8, 62, 74
6, 105120, Note_on_c, 8, 58, 63
6, 105356, Note_off_c, 8, 58, 64
6, 105356, Note_off_c, 8, 62, 64
6, 105356, Note_off_c, 8, 67, 64
6, 105600, Note_on_c, 8, 62, 64
6, 105600, Note_on_c, 8, 53, 57
6, 105600, Note_on_c, 8, 58, 71
6, 105956, Note_off_c, 8, 58, 64
6, 105956, Note_off_c, 8, 53, 64
6, 105956, Note_off_c, 8, 62, 64
6, 105960, Note_on_c, 8, 53, 73
6, 105960, Note_on_c, 8, 62, 68
6, 105960, Note_on_c, 8, 58, 70
6, 106076, Note_off_c, 8, 58, 64
6, 106076, Note_off_c, 8, 62, 64
6, 106076, Note_off_c, 8, 53, 64
6, 106560, Note_on_c, 8, 55, 57
6, 106560, Note_on_c, 8, 64, 69
6, 106560, Note_on_c, 8, 60, 70
6, 106916, Note_off_c, 8, 60, 64
6, 106916, Note_off_c, 8, 64, 64
6, 106916, Note_off_c, 8, 55, 64
6, 106920, Note_on_c, 8, 55, 57
6, 106920, Note_on_c, 8, 64, 69
6, 106920, Note_on_c, 8, 60, 63
6, 107036, Note_off_c, 8, 60, 64
6, 107036, Note_off_c, 8, 64, 64
6, 107036, Note_off_c, 8, 55, 64
6, 107760, Note_on_c, 8, 60, 76
6, 107760, Note_on_c, 8, 55, 64
6, 107760, Note_on_c, 8, 64, 66
6, 107996, Note_off_c, 8, 64, 64
6, 107996, Note_off_c, 8, 55, 64
6, 107996, Note_off_c, 8, 60, 64
6, 108120, Note_on_c, 8, 64, 65
6, 108120, Note_on_c, 8, 60, 72
6, 108120, Note_on_c, 8, 55, 72
6, 108476, Note_off_c, 8, 55, 64
6, 108476, Note_off_c, 8, 60, 64
6, 108476, Note_off_c, 8, 64, 64
6, 108480, Note_on_c, 8, 60, 73
6, 108596, Note_off_c, 8, 60, 64
6, 108600, Note_on_c, 8, 62, 74
6, 108716, Note_off_c, 8, 62, 64
6, 108720, Note_on_c, 8, 69, 63
6, 108720, Note_on_c, 8, 65, 63
6, 108956, Note_off_c, 8, 65, 64
6, 108956, Note_off_c, 8, 69, 64
6, 108960, Note_on_c, 8, 65, 79
6, 109076, Note_off_c, 8, 65, 64
6, 109080, Note_on_c, 8, 62, 62
6, 109436, Note_off_c, 8, 62, 64
6, 109440, Note_on_c, 8, 62, 71
6, 109440, Note_on_c, 8, 53, 68
6, 109440, Note_on_c, 8, 58, 65
6, 109796, Note_off_c, 8, 58, 64
6, 109796, Note_off_c, 8, 53, 64
6, 109796, Note_off_c, 8, 62, 64
6, 109800, Note_on_c, 8, 62, 62
6, 109800, Note_on_c, 8, 58, 70
6, 109800, Note_on_c, 8, 53, 78
6, 109916, Note_off_c, 8, 53, 64
6, 109916, Note_off_c, 8, 58, 64
6, 109916, Note_off_c, 8, 62, 64
6, 110400, Note_on_c, 8, 55, 71
6, 110400, Note_on_c, 8, 64, 72
6, 110400, Note_on_c, 8, 60, 59
6, 110756, Note_off_c, 8, 60, 64
6, 110756, Note_off_c, 8, 64, 64
6, 110756, Note_off_c, 8, 55, 64
6, 110760, Note_on_c, 8, 60, 61
6, 110760, Note_on_c, 8, 64, 73
6, 110760, Note_on_c, 8, 55, 74
6, 110876, Note_off_c, 8, 55, 64
6, 110876, Note_off_c, 8, 64, 64
6, 110876, Note_off_c, 8, 60, 64
6, 111360, Note_on_c, 8, 65, 69
6, 111360, Note_on_c, 8, 69, 76
6, 111360, Note_on_c, 8, 62, 73
6, 111716, Note_off_c, 8, 62, 64
6, 111716, Note_off_c, 8, 69, 64
6, 111716, Note_off_c, 8, 65, 64
6, 111720, Note_on_c, 8, 69, 60
6, 111720, Note_on_c, 8, 62, 60
6, 111720, Note_on_c, 8, 65, 71
6, 111836, Note_off_c, 8, 65, 64
6, 111836, Note_off_c, 8, 62, 64
6, 111836, Note_off_c, 8, 69, 64
6, 112080, Note_on_c, 8, 69, 76
6, 112080, Note_on_c, 8, 65, 58
6, 112080, Note_on_c, 8, 62, 70
6, 112436, Note_off_c, 8, 62, 64
6, 112436, Note_off_c, 8, 65, 64
6, 112436, Note_off_c, 8, 69, 64
6, 112440, Note_on_c, 8, 69, 67
6, 112440, Note_on_c, 8, 65, 70
6, 112440, Note_on_c, 8, 62, 70
6, 112556, Note_off_c, 8, 62, 64
6, 112556, Note_off_c, 8, 65, 64
6, 112556, Note_off_c, 8, 69, 64
6, 112800, Note_on_c, 8, 69, 73
6, 112800, Note_on_c, 8, 65, 59
6, 112800, Note_on_c, 8, 62, 58
6, 113276, Note_off_c, 8, 62, 64
6, 113276, Note_off_c, 8, 65, 64
6, 113276, Note_off_c, 8, 69, 64
6, 113280, Note_on_c, 8, 58, 60
6, 113280, Note_on_c, 8, 62, 67
6, 113280, Note_on_c, 8, 53, 67
6, 113636, Note_off_c, 8, 53, 64
6, 113636, Note_off_c, 8, 62, 64
6, 113636, Note_off_c, 8, 58, 64
6, 113640, Note_on_c, 8, 62, 63
6, 113640, Note_on_c, 8, 53, 77
6, 113640, Note_on_c, 8, 58, 67
6, 113756, Note_off_c, 8, 58, 64
6, 113756, Note_off_c, 8, 53, 64
6, 113756, Note_off_c, 8, 62, 64
6, 114240, Note_on_c, 8, 64, 62
6, 114240, Note_on_c, 8, 60, 73
6, 114240, Note_on_c, 8, 55, 73
6, 114596, Note_off_c, 8, 55, 64
6, 114596, Note_off_c, 8, 60, 64
6, 114596, Note_off_c, 8, 64, 64
6, 114600, Note_on_c, 8, 60, 71
6, 114600, Note_on_c, 8, 64, 72
6, 114600, Note_on_c, 8, 55, 60
6, 114716, Note_off_c, 8, 55, 64
6, 114716, Note_off_c, 8, 64, 64
6, 114716, Note_off_c, 8, 60, 64
6, 115560, Note_on_c, 8, 62, 73
6, 115916, Note_off_c, 8, 62, 64
6, 115920, Note_on_c, 8, 62, 57
6, 116156, Note_off_c, 8, 62, 64
6, 116160, Note_on_c, 8, 60, 67
6, 116276, Note_off_c, 8, 60, 64
6, 116280, Note_on_c, 8, 62, 76
6, 116516, Note_off_c, 8, 62, 64
6, 116520, Note_on_c, 8, 62, 62
6, 117116, Note_off_c, 8, 62, 64
6, 117120, Note_on_c, 8, 62, 63
6, 117120, Note_on_c, 8, 58, 70
6, 117120, Note_on_c, 8, 53, 65
6, 117476, Note_off_c, 8, 53, 64
6, 117476, Note_off_c, 8, 58, 64
6, 117476, Note_off_c, 8, 62, 64
6, 117480, Note_on_c, 8, 62, 79
6, 117480, Note_on_c, 8, 58, 58
6, 117480, Note_on_c, 8, 53, 72
6, 117596, Note_off_c, 8, 53, 64
6, 117596, Note_off_c, 8, 58, 64
6, 117596, Note_off_c, 8, 62, 64
6, 118080, Note_on_c, 8, 55, 72
6, 118080, Note_on_c, 8, 60, 60
6, 118080, Note_on_c, 8, 64, 71
6, 118436, Note_off_c, 8, 64, 64
6, 118436, Note_off_c, 8, 60, 64
6, 118436, Note_off_c, 8, 55, 64
6, 118440, Note_on_c, 8, 64, 79
6, 118440, Note_on_c, 8, 60, 77
6, 118440, Note_on_c, 8, 55, 71
6, 118556, Note_off_c, 8, 55, 64
6, 118556, Note_off_c, 8, 60, 64
6, 118556, Note_off_c, 8, 64, 64
6, 119040, Note_on_c, 8, 60, 70
6, 119276, Note_off_c, 8, 60, 64
6, 119280, Note_on_c, 8, 62, 77
6, 119516, Note_off_c, 8, 62, 64
6, 119520, Note_on_c, 8, 60, 63
6, 119756, Note_off_c, 8, 60, 64
6, 119760, Note_on_c, 8, 53, 71
6, 120956, Note_off_c, 8, 53, 64
6, 120960, Note_on_c, 8, 53, 72
6, 120960, Note_on_c, 8, 58, 67
6, 120960, Note_on_c, 8, 62, 72
6, 121316, Note_off_c, 8, 62, 64
6, 121316, Note_off_c, 8, 58, 64
6, 121316, Note_off_c, 8, 53, 64
6, 121320, Note_on_c, 8, 62, 58
6, 121320, Note_on_c, 8, 58, 73
6, 121320, Note_on_c, 8, 53, 76
6, 121436, Note_off_c, 8, 53, 64
6, 121436, Note_off_c, 8, 58, 64
6, 121436, Note_off_c, 8, 62, 64
6, 121920, Note_on_c, 8, 64, 60
6, 121920, Note_on_c, 8, 60, 64
6, 121920, Note_on_c, 8, 55, 76
6, 122276, Note_off_c, 8, 55, 64
6, 122276, Note_off_c, 8, 60, 64
6, 122276, Note_off_c, 8, 64, 64
6, 122280, Note_on_c, 8, 64, 62
6, 122280, Note_on_c, 8, 60, 67
6, 122280, Note_on_c, 8, 55, 78
6, 122396, Note_off_c, 8, 55, 64
6, 122396, Note_off_c, 8, 60, 64
6, 122396, Note_off_c, 8, 64, 64
6, 123120, Note_on_c, 8, 64, 65
6, 123120, Note_on_c, 8, 55, 69
6, 123120, Note_on_c, 8, 60, 78
6, 123356, Note_off_c, 8, 60, 64
6, 123356, Note_off_c, 8, 55, 64
6, 123356, Note_off_c, 8, 64, 64
6, 123480, Note_on_c, 8, 55, 73
6, 123480, Note_on_c, 8, 64, 69
6, 123480, Note_on_c, 8, 60, 71
6, 123836, Note_off_c, 8, 60, 64
6, 123836, Note_off_c, 8, 64, 64
6, 123836, Note_off_c, 8, 55, 64
6, 123840, Note_on_c, 8, 60, 67
6, 123956, Note_off_c, 8, 60, 64
6, 123960, Note_on_c, 8, 62, 72
6, 124076, Note_off_c, 8, 62, 64
6, 124080, Note_on_c, 8, 69, 72
6, 124080, Note_on_c, 8, 65, 59
6, 124316, Note_off_c, 8, 65, 64
6, 124316, Note_off_c, 8, 69, 64
6, 124320, Note_on_c, 8, 65, 60
6, 124436, Note_off_c, 8, 65, 64
6, 124440, Note_on_c, 8, 62, 61
6, 124796, Note_off_c, 8, 62, 64
6, 124800, Note_on_c, 8, 62, 76
6, 124800, Note_on_c, 8, 58, 75
6, 124800, Note_on_c, 8, 53, 77
6, 125156, Note_off_c, 8, 53, 64
6, 125156, Note_off_c, 8, 58, 64
6, 125156, Note_off_c, 8, 62, 64
6, 125160, Note_on_c, 8, 62, 63
6, 125160, Note_on_c, 8, 58, 72
6, 125160, Note_on_c, 8, 53, 60
6, 125276, Note_off_c, 8, 53, 64
6, 125276, Note_off_c, 8, 58, 64
6, 125276, Note_off_c, 8, 62, 64
6, 125760, Note_on_c, 8, 55, 68
6, 125760, Note_on_c, 8, 64, 59
6, 125760, Note_on_c, 8, 60, 59
6, 126116, Note_off_c, 8, 60, 64
6, 126116, Note_off_c, 8, 64, 64
6, 126116, Note_off_c, 8, 55, 64
6, 126120, Note_on_c, 8, 64, 64
6, 126120, Note_on_c, 8, 60, 76
6, 126120, Note_on_c, 8, 55, 69
6, 126236, Note_off_c, 8, 55, 64
6, 126236, Note_off_c, 8, 60, 64
6, 126236, Note_off_c, 8, 64, 64
6, 126720, Note_on_c, 8, 60, 61
6, 126836, Note_off_c, 8, 60, 64
6, 126840, Note_on_c, 8, 62, 66
6, 127076, Note_off_c, 8, 62, 64
6, 127080, Note_on_c, 8, 62, 73
6, 127196, Note_off_c, 8, 62, 64
6, 127200, Note_on_c, 8, 62, 76
6, 127436, Note_off_c, 8, 62, 64
6, 127440, Note_on_c, 8, 69, 68
6, 127440, Note_on_c, 8, 65, 73
6, 127796, Note_off_c, 8, 65, 64
6, 127796, Note_off_c, 8, 69, 64
6, 127800, Note_on_c, 8, 65, 65
6, 127800, Note_on_c, 8, 69, 63
6, 128156, Note_off_c, 8, 69, 64
6, 128156, Note_off_c, 8, 65, 64
6, 128160, Note_on_c, 8, 62, 57
6, 128276, Note_off_c, 8, 62, 64
6, 128280, Note_on_c, 8, 69, 74
6, 128280, Note_on_c, 8, 65, 62
6, 128396, Note_off_c, 8, 65, 64
6, 128396, Note_off_c, 8, 69, 64
6, 128400, Note_on_c, 8, 62, 63
6, 128636, Note_off_c, 8, 62, 64
6, 128640, Note_on_c, 8, 62, 74
6, 128640, Note_on_c, 8, 58, 63
6, 128640, Note_on_c, 8, 53, 74
6, 128996, Note_off_c, 8, 53, 64
6, 128996, Note_off_c, 8, 58, 64
6, 128996, Note_off_c, 8, 62, 64
6, 129000, Note_on_c, 8, 58, 64
6, 129000, Note_on_c, 8, 62, 79
6, 129000, Note_on_c, 8, 53, 63
6, 129116, Note_off_c, 8, 53, 64
6, 129116, Note_off_c, 8, 62, 64
6, 129116, Note_off_c, 8, 58, 64
6, 129600, Note_on_c, 8, 64, 70
6, 129600, Note_on_c, 8, 60, 64
6, 129600, Note_on_c, 8, 55, 76
6, 129956, Note_off_c, 8, 55, 64
6, 129956, Note_off_c, 8, 60, 64
6, 129956, Note_off_c, 8, 64, 64
6, 129960, Note_on_c, 8, 64, 64
6, 129960, Note_on_c, 8, 60, 69
6, 129960, Note_on_c, 8, 55, 71
6, 130076, Note_off_c, 8, 55, 64
6, 130076, Note_off_c, 8, 60, 64
6, 130076, Note_off_c, 8, 64, 64
6, 130560, Note_on_c, 8, 60, 58
6, 130676, Note_off_c, 8, 60, 64
6, 130680, Note_on_c, 8, 62, 59
6, 130916, Note_off_c, 8, 62, 64
6, 130920, Note_on_c, 8, 62, 60
6, 131036, Note_off_c, 8, 62, 64
6, 131040, Note_on_c, 8, 62, 75
6, 131276, Note_off_c, 8, 62, 64
6, 131280, Note_on_c, 8, 69, 61
6, 131280, Note_on_c, 8, 65, 70
6, 131636, Note_off_c, 8, 65, 64
6, 131636, Note_off_c, 8, 69, 64
6, 131640, Note_on_c, 8, 65, 76
6, 131640, Note_on_c, 8, 69, 73
6, 131996, Note_off_c, 8, 69, 64
6, 131996, Note_off_c, 8, 65, 64
6, 132000, Note_on_c, 8, 62, 78
6, 132116, Note_off_c, 8, 62, 64
6, 132120, Note_on_c, 8, 69, 70
6, 132120, Note_on_c, 8, 65, 60
6, 132236, Note_off_c, 8, 65, 64
6, 132236, Note_off_c, 8, 69, 64
6, 132240, Note_on_c, 8, 62, 74
6, 132476, Note_off_c, 8, 62, 64
6, 132480, Note_on_c, 8, 62, 60
6, 132480, Note_on_c, 8, 58, 77
6, 132480, Note_on_c, 8, 53, 60
6, 132836, Note_off_c, 8, 53, 64
6, 132836, Note_off_c, 8, 58, 64
6, 132836, Note_off_c, 8, 62, 64
6, 132840, Note_on_c, 8, 58, 59
6, 132840, Note_on_c, 8, 62, 60
6, 132840, Note_on_c, 8, 53, 74
6, 132956, Note_off_c, 8, 53, 64
6, 132956, Note_off_c, 8, 62, 64
6, 132956, Note_off_c, 8, 58, 64
6, 133440, Note_on_c, 8, 64, 68
6, 133440, Note_on_c, 8, 60, 63
6, 133440, Note_on_c, 8, 55, 73
6, 133796, Note_off_c, 8, 55, 64
6, 133796, Note_off_c, 8, 60, 64
6, 133796, Note_off_c, 8, 64, 64
6, 133800, Note_on_c, 8, 64, 61
6, 133800, Note_on_c, 8, 60, 72
6, 133800, Note_on_c, 8, 55, 68
6, 133916, Note_off_c, 8, 55, 64
6, 133916, Note_off_c, 8, 60, 64
6, 133916, Note_off_c, 8, 64, 64
6, 134400, Note_on_c, 8, 60, 63
6, 134636, Note_off_c, 8, 60, 64
6, 134640, Note_on_c, 8, 62, 55
6, 134876, Note_off_c, 8, 62, 64
6, 134880, Note_on_c, 8, 60, 53
6, 135116, Note_off_c, 8, 60, 64
6, 135120, Note_on_c, 8, 53, 61
6, 136316, Note_off_c, 8, 53, 64
6, 136320, Note_on_c, 8, 62, 67
6, 136320, Note_on_c, 8, 53, 72
6, 136320, Note_on_c, 8, 58, 68
6, 136676, Note_off_c, 8, 58, 64
6, 136676, Note_off_c, 8, 53, 64
6, 136676, Note_off_c, 8, 62, 64
6, 136680, Note_on_c, 8, 62, 70
6, 136680, Note_on_c, 8, 53, 68
6, 136680, Note_on_c, 8, 58, 60
6, 136796, Note_off_c, 8, 58, 64
6, 136796, Note_off_c, 8, 53, 64
6, 136796, Note_off_c, 8, 62, 64
6, 137280, Note_on_c, 8, 60, 73
6, 137280, Note_on_c, 8, 55, 68
6, 137280, Note_on_c, 8, 64, 65
6, 137280, Note_on_c, 8, 57, 67
6, 137636, Note_off_c, 8, 57, 64
6, 137636, Note_off_c, 8, 64, 64
6, 137636, Note_off_c, 8, 55, 64
6, 137636, Note_off_c, 8, 60, 64
6, 137640, Note_on_c, 8, 60, 68
6, 137640, Note_on_c, 8, 64, 66
6, 137640, Note_on_c, 8, 55, 72
6, 137756, Note_off_c, 8, 55, 64
6, 137756, Note_off_c, 8, 64, 64
6, 137756, Note_off_c, 8, 60, 64
6, 138000, Note_on_c, 8, 60, 69
6, 138000, Note_on_c, 8, 64, 78
6, 138000, Note_on_c, 8, 55, 54
6, 138236, Note_off_c, 8, 55, 64
6, 138236, Note_off_c, 8, 64, 64
6, 138236, Note_off_c, 8, 60, 64
6, 138480, Note_on_c, 8, 64, 66
6, 138480, Note_on_c, 8, 60, 79
6, 138480, Note_on_c, 8, 55, 73
6, 138716, Note_off_c, 8, 55, 64
6, 138716, Note_off_c, 8, 60, 64
6, 138716, Note_off_c, 8, 64, 64
6, 138840, Note_on_c, 8, 64, 73
6, 138840, Note_on_c, 8, 60, 75
6, 138840, Note_on_c, 8, 55, 79
6, 139196, Note_off_c, 8, 55, 64
6, 139196, Note_off_c, 8, 60, 64
6, 139196, Note_off_c, 8, 64, 64
6, 139200, Note_on_c, 8, 64, 62
6, 139200, Note_on_c, 8, 60, 56
6, 139200, Note_on_c, 8, 55, 79
6, 139676, Note_off_c, 8, 55, 64
6, 139676, Note_off_c, 8, 60, 64
6, 139676, Note_off_c, 8, 64, 64
6, 139680, Note_on_c, 8, 64, 56
6, 139680, Note_on_c, 8, 55, 61
6, 139680, Note_on_c, 8, 60, 64
6, 140156, Note_off_c, 8, 60, 64
6, 140156, Note_off_c, 8, 55, 64
6, 140156, Note_off_c, 8, 64, 64
6, 171360, Control_c, 8, 91, 0
6, 171360, Control_c, 8, 93, 0
6, 171360, Control_c, 8, 1, 0
6, 171360, Control_c, 8, 0, 0
6, 171360, Control_c, 8, 10, 64
6, 171360, Control_c, 8, 64, 0
6, 171360, Control_c, 8, 7, 127
6, 171360, Pitch_bend_c, 8, 8192
6, 171360, End_track
7, 0, Start_track
7, 0, Title_t, "E. Guitar 3"
7, 0, MIDI_port, 0
7, 0, Channel_prefix, 4
7, 0, Control_c, 4, 10, 64
7, 20, Control_c, 4, 121, 0
7, 20, Control_c, 4, 0, 0
7, 20, Control_c, 4, 7, 100
7, 20, Control_c, 4, 91, 33
7, 20, Control_c, 4, 93, 0
7, 20, Control_c, 4, 10, 94
7, 20, Control_c, 4, 1, 0
7, 20, Control_c, 4, 64, 0
7, 20, Pitch_bend_c, 4, 8192
7, 568, Program_c, 4, 26
7, 19200, Note_on_c, 4, 53, 74
7, 19200, Note_on_c, 4, 62, 76
7, 19200, Note_on_c, 4, 58, 76
7, 19200, Note_on_c, 4, 69, 58
7, 20156, Note_off_c, 4, 69, 64
7, 20156, Note_off_c, 4, 58, 64
7, 20156, Note_off_c, 4, 62, 64
7, 20156, Note_off_c, 4, 53, 64
7, 20160, Note_on_c, 4, 55, 64
7, 20160, Note_on_c, 4, 60, 57
7, 20160, Note_on_c, 4, 67, 73
7, 20160, Note_on_c, 4, 62, 61
7, 21116, Note_off_c, 4, 62, 64
7, 21116, Note_off_c, 4, 67, 64
7, 21116, Note_off_c, 4, 60, 64
7, 21116, Note_off_c, 4, 55, 64
7, 21120, Note_on_c, 4, 55, 78
7, 21120, Note_on_c, 4, 64, 72
7, 21120, Note_on_c, 4, 60, 64
7, 21236, Note_off_c, 4, 60, 64
7, 21236, Note_off_c, 4, 64, 64
7, 21236, Note_off_c, 4, 55, 64
7, 21240, Note_on_c, 4, 57, 69
7, 21240, Note_on_c, 4, 65, 54
7, 21476, Note_off_c, 4, 65, 64
7, 21476, Note_off_c, 4, 57, 64
7, 21480, Note_on_c, 4, 57, 63
7, 21480, Note_on_c, 4, 60, 76
7, 21480, Note_on_c, 4, 65, 54
7, 21716, Note_off_c, 4, 65, 64
7, 21716, Note_off_c, 4, 60, 64
7, 21716, Note_off_c, 4, 57, 64
7, 21720, Note_on_c, 4, 57, 69
7, 21720, Note_on_c, 4, 65, 79
7, 21720, Note_on_c, 4, 60, 64
7, 21836, Note_off_c, 4, 60, 64
7, 21836, Note_off_c, 4, 65, 64
7, 21836, Note_off_c, 4, 57, 64
7, 21840, Note_on_c, 4, 55, 50
7, 21840, Note_on_c, 4, 64, 75
7, 21840, Note_on_c, 4, 60, 67
7, 21956, Note_off_c, 4, 60, 64
7, 21956, Note_off_c, 4, 64, 64
7, 21956, Note_off_c, 4, 55, 64
7, 21960, Note_on_c, 4, 57, 57
7, 21960, Note_on_c, 4, 65, 60
7, 22076, Note_off_c, 4, 65, 64
7, 22076, Note_off_c, 4, 57, 64
7, 22080, Note_on_c, 4, 55, 52
7, 22080, Note_on_c, 4, 64, 51
7, 22080, Note_on_c, 4, 60, 60
7, 22196, Note_off_c, 4, 60, 64
7, 22196, Note_off_c, 4, 64, 64
7, 22196, Note_off_c, 4, 55, 64
7, 22200, Note_on_c, 4, 57, 49
7, 22200, Note_on_c, 4, 65, 56
7, 22436, Note_off_c, 4, 65, 64
7, 22436, Note_off_c, 4, 57, 64
7, 22440, Note_on_c, 4, 57, 64
7, 22440, Note_on_c, 4, 60, 76
7, 22440, Note_on_c, 4, 65, 66
7, 23036, Note_off_c, 4, 65, 64
7, 23036, Note_off_c, 4, 60, 64
7, 23036, Note_off_c, 4, 57, 64
7, 23040, Note_on_c, 4, 62, 70
7, 23040, Note_on_c, 4, 53, 67
7, 23040, Note_on_c, 4, 58, 53
7, 23040, Note_on_c, 4, 69, 72
7, 23996, Note_off_c, 4, 69, 64
7, 23996, Note_off_c, 4, 58, 64
7, 23996, Note_off_c, 4, 53, 64
7, 23996, Note_off_c, 4, 62, 64
7, 24000, Note_on_c, 4, 62, 65
7, 24000, Note_on_c, 4, 60, 72
7, 24000, Note_on_c, 4, 55, 72
7, 24000, Note_on_c, 4, 67, 68
7, 24956, Note_off_c, 4, 67, 64
7, 24956, Note_off_c, 4, 55, 64
7, 24956, Note_off_c, 4, 60, 64
7, 24956, Note_off_c, 4, 62, 64
7, 24960, Note_on_c, 4, 64, 74
7, 24960, Note_on_c, 4, 60, 71
7, 24960, Note_on_c, 4, 55, 67
7, 25076, Note_off_c, 4, 55, 64
7, 25076, Note_off_c, 4, 60, 64
7, 25076, Note_off_c, 4, 64, 64
7, 25080, Note_on_c, 4, 57, 76
7, 25080, Note_on_c, 4, 65, 64
7, 25316, Note_off_c, 4, 65, 64
7, 25316, Note_off_c, 4, 57, 64
7, 25320, Note_on_c, 4, 60, 67
7, 25320, Note_on_c, 4, 65, 68
7, 25320, Note_on_c, 4, 57, 65
7, 25556, Note_off_c, 4, 57, 64
7, 25556, Note_off_c, 4, 65, 64
7, 25556, Note_off_c, 4, 60, 64
7, 25560, Note_on_c, 4, 57, 64
7, 25560, Note_on_c, 4, 65, 76
7, 25560, Note_on_c, 4, 60, 52
7, 25676, Note_off_c, 4, 60, 64
7, 25676, Note_off_c, 4, 65, 64
7, 25676, Note_off_c, 4, 57, 64
7, 25680, Note_on_c, 4, 60, 69
7, 25680, Note_on_c, 4, 55, 67
7, 25680, Note_on_c, 4, 64, 79
7, 25796, Note_off_c, 4, 64, 64
7, 25796, Note_off_c, 4, 55, 64
7, 25796, Note_off_c, 4, 60, 64
7, 25800, Note_on_c, 4, 57, 64
7, 25800, Note_on_c, 4, 65, 48
7, 25916, Note_off_c, 4, 65, 64
7, 25916, Note_off_c, 4, 57, 64
7, 25920, Note_on_c, 4, 64, 76
7, 25920, Note_on_c, 4, 55, 56
7, 25920, Note_on_c, 4, 60, 77
7, 26036, Note_off_c, 4, 60, 64
7, 26036, Note_off_c, 4, 55, 64
7, 26036, Note_off_c, 4, 64, 64
7, 26040, Note_on_c, 4, 57, 50
7, 26040, Note_on_c, 4, 65, 75
7, 26276, Note_off_c, 4, 65, 64
7, 26276, Note_off_c, 4, 57, 64
7, 26280, Note_on_c, 4, 57, 72
7, 26280, Note_on_c, 4, 65, 58
7, 26280, Note_on_c, 4, 60, 50
7, 26876, Note_off_c, 4, 60, 64
7, 26876, Note_off_c, 4, 65, 64
7, 26876, Note_off_c, 4, 57, 64
7, 26880, Note_on_c, 4, 69, 48
7, 26880, Note_on_c, 4, 62, 65
7, 26880, Note_on_c, 4, 58, 53
7, 26880, Note_on_c, 4, 53, 44
7, 27836, Note_off_c, 4, 53, 64
7, 27836, Note_off_c, 4, 58, 64
7, 27836, Note_off_c, 4, 62, 64
7, 27836, Note_off_c, 4, 69, 64
7, 27840, Note_on_c, 4, 62, 55
7, 27840, Note_on_c, 4, 55, 76
7, 27840, Note_on_c, 4, 60, 62
7, 27840, Note_on_c, 4, 67, 63
7, 28796, Note_off_c, 4, 67, 64
7, 28796, Note_off_c, 4, 60, 64
7, 28796, Note_off_c, 4, 55, 64
7, 28796, Note_off_c, 4, 62, 64
7, 28800, Note_on_c, 4, 64, 52
7, 28800, Note_on_c, 4, 60, 64
7, 28800, Note_on_c, 4, 55, 65
7, 28916, Note_off_c, 4, 55, 64
7, 28916, Note_off_c, 4, 60, 64
7, 28916, Note_off_c, 4, 64, 64
7, 28920, Note_on_c, 4, 57, 59
7, 28920, Note_on_c, 4, 65, 46
7, 29156, Note_off_c, 4, 65, 64
7, 29156, Note_off_c, 4, 57, 64
7, 29160, Note_on_c, 4, 57, 58
7, 29160, Note_on_c, 4, 60, 75
7, 29160, Note_on_c, 4, 65, 42
7, 29276, Note_off_c, 4, 65, 64
7, 29276, Note_off_c, 4, 60, 64
7, 29276, Note_off_c, 4, 57, 64
7, 29520, Note_on_c, 4, 53, 55
7, 29520, Note_on_c, 4, 58, 76
7, 29520, Note_on_c, 4, 62, 62
7, 30716, Note_off_c, 4, 62, 64
7, 30716, Note_off_c, 4, 58, 64
7, 30716, Note_off_c, 4, 53, 64
7, 30720, Note_on_c, 4, 62, 55
7, 30720, Note_on_c, 4, 53, 60
7, 30720, Note_on_c, 4, 58, 74
7, 30720, Note_on_c, 4, 69, 69
7, 31676, Note_off_c, 4, 69, 64
7, 31676, Note_off_c, 4, 58, 64
7, 31676, Note_off_c, 4, 53, 64
7, 31676, Note_off_c, 4, 62, 64
7, 31680, Note_on_c, 4, 62, 48
7, 31680, Note_on_c, 4, 60, 58
7, 31680, Note_on_c, 4, 55, 53
7, 31680, Note_on_c, 4, 67, 77
7, 32636, Note_off_c, 4, 67, 64
7, 32636, Note_off_c, 4, 55, 64
7, 32636, Note_off_c, 4, 60, 64
7, 32636, Note_off_c, 4, 62, 64
7, 32640, Note_on_c, 4, 64, 77
7, 32640, Note_on_c, 4, 60, 70
7, 32640, Note_on_c, 4, 55, 69
7, 32756, Note_off_c, 4, 55, 64
7, 32756, Note_off_c, 4, 60, 64
7, 32756, Note_off_c, 4, 64, 64
7, 32760, Note_on_c, 4, 57, 41
7, 32760, Note_on_c, 4, 65, 61
7, 32996, Note_off_c, 4, 65, 64
7, 32996, Note_off_c, 4, 57, 64
7, 33000, Note_on_c, 4, 60, 44
7, 33000, Note_on_c, 4, 65, 68
7, 33000, Note_on_c, 4, 57, 53
7, 33236, Note_off_c, 4, 57, 64
7, 33236, Note_off_c, 4, 65, 64
7, 33236, Note_off_c, 4, 60, 64
7, 33240, Note_on_c, 4, 57, 76
7, 33240, Note_on_c, 4, 65, 76
7, 33240, Note_on_c, 4, 60, 62
7, 33356, Note_off_c, 4, 60, 64
7, 33356, Note_off_c, 4, 65, 64
7, 33356, Note_off_c, 4, 57, 64
7, 33360, Note_on_c, 4, 60, 67
7, 33360, Note_on_c, 4, 55, 79
7, 33360, Note_on_c, 4, 64, 77
7, 33476, Note_off_c, 4, 64, 64
7, 33476, Note_off_c, 4, 55, 64
7, 33476, Note_off_c, 4, 60, 64
7, 33480, Note_on_c, 4, 57, 59
7, 33480, Note_on_c, 4, 65, 68
7, 33596, Note_off_c, 4, 65, 64
7, 33596, Note_off_c, 4, 57, 64
7, 33600, Note_on_c, 4, 64, 52
7, 33600, Note_on_c, 4, 55, 48
7, 33600, Note_on_c, 4, 60, 45
7, 33716, Note_off_c, 4, 60, 64
7, 33716, Note_off_c, 4, 55, 64
7, 33716, Note_off_c, 4, 64, 64
7, 33720, Note_on_c, 4, 57, 52
7, 33720, Note_on_c, 4, 65, 61
7, 33956, Note_off_c, 4, 65, 64
7, 33956, Note_off_c, 4, 57, 64
7, 33960, Note_on_c, 4, 57, 40
7, 33960, Note_on_c, 4, 65, 51
7, 33960, Note_on_c, 4, 60, 40
7, 34556, Note_off_c, 4, 60, 64
7, 34556, Note_off_c, 4, 65, 64
7, 34556, Note_off_c, 4, 57, 64
7, 34560, Note_on_c, 4, 69, 42
7, 34560, Note_on_c, 4, 62, 72
7, 34560, Note_on_c, 4, 58, 55
7, 34560, Note_on_c, 4, 53, 70
7, 35516, Note_off_c, 4, 53, 64
7, 35516, Note_off_c, 4, 58, 64
7, 35516, Note_off_c, 4, 62, 64
7, 35516, Note_off_c, 4, 69, 64
7, 35520, Note_on_c, 4, 62, 76
7, 35520, Note_on_c, 4, 55, 65
7, 35520, Note_on_c, 4, 60, 64
7, 35520, Note_on_c, 4, 67, 68
7, 36476, Note_off_c, 4, 67, 64
7, 36476, Note_off_c, 4, 60, 64
7, 36476, Note_off_c, 4, 55, 64
7, 36476, Note_off_c, 4, 62, 64
7, 44160, Note_on_c, 4, 62, 62
7, 44160, Note_on_c, 4, 58, 53
7, 44160, Note_on_c, 4, 53, 70
7, 44160, Note_on_c, 4, 69, 77
7, 45116, Note_off_c, 4, 69, 64
7, 45116, Note_off_c, 4, 53, 64
7, 45116, Note_off_c, 4, 58, 64
7, 45116, Note_off_c, 4, 62, 64
7, 45120, Note_on_c, 4, 67, 44
7, 45120, Note_on_c, 4, 62, 40
7, 45120, Note_on_c, 4, 60, 57
7, 45120, Note_on_c, 4, 55, 64
7, 46076, Note_off_c, 4, 55, 64
7, 46076, Note_off_c, 4, 60, 64
7, 46076, Note_off_c, 4, 62, 64
7, 46076, Note_off_c, 4, 67, 64
7, 46080, Note_on_c, 4, 64, 52
7, 46080, Note_on_c, 4, 60, 65
7, 46080, Note_on_c, 4, 55, 45
7, 46196, Note_off_c, 4, 55, 64
7, 46196, Note_off_c, 4, 60, 64
7, 46196, Note_off_c, 4, 64, 64
7, 46200, Note_on_c, 4, 57, 46
7, 46200, Note_on_c, 4, 65, 42
7, 46436, Note_off_c, 4, 65, 64
7, 46436, Note_off_c, 4, 57, 64
7, 46440, Note_on_c, 4, 60, 69
7, 46440, Note_on_c, 4, 65, 72
7, 46440, Note_on_c, 4, 57, 56
7, 46676, Note_off_c, 4, 57, 64
7, 46676, Note_off_c, 4, 65, 64
7, 46676, Note_off_c, 4, 60, 64
7, 46680, Note_on_c, 4, 57, 65
7, 46680, Note_on_c, 4, 65, 51
7, 46680, Note_on_c, 4, 60, 48
7, 46796, Note_off_c, 4, 60, 64
7, 46796, Note_off_c, 4, 65, 64
7, 46796, Note_off_c, 4, 57, 64
7, 46800, Note_on_c, 4, 60, 40
7, 46800, Note_on_c, 4, 55, 52
7, 46800, Note_on_c, 4, 64, 60
7, 46916, Note_off_c, 4, 64, 64
7, 46916, Note_off_c, 4, 55, 64
7, 46916, Note_off_c, 4, 60, 64
7, 46920, Note_on_c, 4, 57, 62
7, 46920, Note_on_c, 4, 65, 45
7, 47036, Note_off_c, 4, 65, 64
7, 47036, Note_off_c, 4, 57, 64
7, 47040, Note_on_c, 4, 64, 45
7, 47040, Note_on_c, 4, 55, 48
7, 47040, Note_on_c, 4, 60, 50
7, 47156, Note_off_c, 4, 60, 64
7, 47156, Note_off_c, 4, 55, 64
7, 47156, Note_off_c, 4, 64, 64
7, 47160, Note_on_c, 4, 57, 73
7, 47160, Note_on_c, 4, 65, 63
7, 47396, Note_off_c, 4, 65, 64
7, 47396, Note_off_c, 4, 57, 64
7, 47400, Note_on_c, 4, 57, 68
7, 47400, Note_on_c, 4, 65, 71
7, 47400, Note_on_c, 4, 60, 43
7, 47996, Note_off_c, 4, 60, 64
7, 47996, Note_off_c, 4, 65, 64
7, 47996, Note_off_c, 4, 57, 64
7, 48000, Note_on_c, 4, 62, 60
7, 48000, Note_on_c, 4, 58, 56
7, 48000, Note_on_c, 4, 53, 66
7, 48000, Note_on_c, 4, 69, 56
7, 48956, Note_off_c, 4, 69, 64
7, 48956, Note_off_c, 4, 53, 64
7, 48956, Note_off_c, 4, 58, 64
7, 48956, Note_off_c, 4, 62, 64
7, 48960, Note_on_c, 4, 67, 53
7, 48960, Note_on_c, 4, 62, 44
7, 48960, Note_on_c, 4, 60, 63
7, 48960, Note_on_c, 4, 55, 47
7, 49916, Note_off_c, 4, 55, 64
7, 49916, Note_off_c, 4, 60, 64
7, 49916, Note_off_c, 4, 62, 64
7, 49916, Note_off_c, 4, 67, 64
7, 49920, Note_on_c, 4, 64, 41
7, 49920, Note_on_c, 4, 60, 62
7, 49920, Note_on_c, 4, 55, 64
7, 50036, Note_off_c, 4, 55, 64
7, 50036, Note_off_c, 4, 60, 64
7, 50036, Note_off_c, 4, 64, 64
7, 50040, Note_on_c, 4, 57, 61
7, 50040, Note_on_c, 4, 65, 62
7, 50276, Note_off_c, 4, 65, 64
7, 50276, Note_off_c, 4, 57, 64
7, 50280, Note_on_c, 4, 60, 52
7, 50280, Note_on_c, 4, 65, 65
7, 50280, Note_on_c, 4, 57, 71
7, 50516, Note_off_c, 4, 57, 64
7, 50516, Note_off_c, 4, 65, 64
7, 50516, Note_off_c, 4, 60, 64
7, 50520, Note_on_c, 4, 57, 49
7, 50520, Note_on_c, 4, 65, 59
7, 50520, Note_on_c, 4, 60, 70
7, 50636, Note_off_c, 4, 60, 64
7, 50636, Note_off_c, 4, 65, 64
7, 50636, Note_off_c, 4, 57, 64
7, 50640, Note_on_c, 4, 60, 68
7, 50640, Note_on_c, 4, 55, 51
7, 50640, Note_on_c, 4, 64, 65
7, 50756, Note_off_c, 4, 64, 64
7, 50756, Note_off_c, 4, 55, 64
7, 50756, Note_off_c, 4, 60, 64
7, 50760, Note_on_c, 4, 57, 76
7, 50760, Note_on_c, 4, 65, 48
7, 50876, Note_off_c, 4, 65, 64
7, 50876, Note_off_c, 4, 57, 64
7, 50880, Note_on_c, 4, 64, 60
7, 50880, Note_on_c, 4, 55, 40
7, 50880, Note_on_c, 4, 60, 68
7, 50996, Note_off_c, 4, 60, 64
7, 50996, Note_off_c, 4, 55, 64
7, 50996, Note_off_c, 4, 64, 64
7, 51000, Note_on_c, 4, 57, 70
7, 51000, Note_on_c, 4, 65, 48
7, 51236, Note_off_c, 4, 65, 64
7, 51236, Note_off_c, 4, 57, 64
7, 51240, Note_on_c, 4, 57, 61
7, 51240, Note_on_c, 4, 65, 45
7, 51240, Note_on_c, 4, 60, 55
7, 51836, Note_off_c, 4, 60, 64
7, 51836, Note_off_c, 4, 65, 64
7, 51836, Note_off_c, 4, 57, 64
7, 51840, Note_on_c, 4, 69, 73
7, 51840, Note_on_c, 4, 62, 56
7, 51840, Note_on_c, 4, 58, 68
7, 51840, Note_on_c, 4, 53, 54
7, 52796, Note_off_c, 4, 53, 64
7, 52796, Note_off_c, 4, 58, 64
7, 52796, Note_off_c, 4, 62, 64
7, 52796, Note_off_c, 4, 69, 64
7, 52800, Note_on_c, 4, 62, 54
7, 52800, Note_on_c, 4, 55, 52
7, 52800, Note_on_c, 4, 60, 61
7, 52800, Note_on_c, 4, 67, 57
7, 53756, Note_off_c, 4, 67, 64
7, 53756, Note_off_c, 4, 60, 64
7, 53756, Note_off_c, 4, 55, 64
7, 53756, Note_off_c, 4, 62, 64
7, 53760, Note_on_c, 4, 64, 48
7, 53760, Note_on_c, 4, 60, 45
7, 53760, Note_on_c, 4, 55, 57
7, 53876, Note_off_c, 4, 55, 64
7, 53876, Note_off_c, 4, 60, 64
7, 53876, Note_off_c, 4, 64, 64
7, 53880, Note_on_c, 4, 57, 72
7, 53880, Note_on_c, 4, 65, 68
7, 54116, Note_off_c, 4, 65, 64
7, 54116, Note_off_c, 4, 57, 64
7, 54120, Note_on_c, 4, 57, 68
7, 54120, Note_on_c, 4, 60, 59
7, 54120, Note_on_c, 4, 65, 58
7, 54236, Note_off_c, 4, 65, 64
7, 54236, Note_off_c, 4, 60, 64
7, 54236, Note_off_c, 4, 57, 64
7, 54480, Note_on_c, 4, 53, 56
7, 54480, Note_on_c, 4, 58, 57
7, 54480, Note_on_c, 4, 62, 52
7, 55676, Note_off_c, 4, 62, 64
7, 55676, Note_off_c, 4, 58, 64
7, 55676, Note_off_c, 4, 53, 64
7, 55680, Note_on_c, 4, 62, 61
7, 55680, Note_on_c, 4, 53, 70
7, 55680, Note_on_c, 4, 58, 61
7, 55680, Note_on_c, 4, 69, 78
7, 56636, Note_off_c, 4, 69, 64
7, 56636, Note_off_c, 4, 58, 64
7, 56636, Note_off_c, 4, 53, 64
7, 56636, Note_off_c, 4, 62, 64
7, 56640, Note_on_c, 4, 62, 76
7, 56640, Note_on_c, 4, 60, 65
7, 56640, Note_on_c, 4, 55, 76
7, 56640, Note_on_c, 4, 67, 55
7, 57596, Note_off_c, 4, 67, 64
7, 57596, Note_off_c, 4, 55, 64
7, 57596, Note_off_c, 4, 60, 64
7, 57596, Note_off_c, 4, 62, 64
7, 57600, Note_on_c, 4, 64, 71
7, 57600, Note_on_c, 4, 60, 50
7, 57600, Note_on_c, 4, 55, 55
7, 57716, Note_off_c, 4, 55, 64
7, 57716, Note_off_c, 4, 60, 64
7, 57716, Note_off_c, 4, 64, 64
7, 57720, Note_on_c, 4, 57, 56
7, 57720, Note_on_c, 4, 65, 57
7, 57956, Note_off_c, 4, 65, 64
7, 57956, Note_off_c, 4, 57, 64
7, 57960, Note_on_c, 4, 60, 42
7, 57960, Note_on_c, 4, 65, 45
7, 57960, Note_on_c, 4, 57, 72
7, 58196, Note_off_c, 4, 57, 64
7, 58196, Note_off_c, 4, 65, 64
7, 58196, Note_off_c, 4, 60, 64
7, 58200, Note_on_c, 4, 57, 48
7, 58200, Note_on_c, 4, 65, 70
7, 58200, Note_on_c, 4, 60, 42
7, 58316, Note_off_c, 4, 60, 64
7, 58316, Note_off_c, 4, 65, 64
7, 58316, Note_off_c, 4, 57, 64
7, 58320, Note_on_c, 4, 60, 48
7, 58320, Note_on_c, 4, 55, 56
7, 58320, Note_on_c, 4, 64, 59
7, 58436, Note_off_c, 4, 64, 64
7, 58436, Note_off_c, 4, 55, 64
7, 58436, Note_off_c, 4, 60, 64
7, 58440, Note_on_c, 4, 57, 56
7, 58440, Note_on_c, 4, 65, 62
7, 58556, Note_off_c, 4, 65, 64
7, 58556, Note_off_c, 4, 57, 64
7, 58560, Note_on_c, 4, 64, 61
7, 58560, Note_on_c, 4, 55, 47
7, 58560, Note_on_c, 4, 60, 57
7, 58676, Note_off_c, 4, 60, 64
7, 58676, Note_off_c, 4, 55, 64
7, 58676, Note_off_c, 4, 64, 64
7, 58680, Note_on_c, 4, 57, 52
7, 58680, Note_on_c, 4, 65, 60
7, 58916, Note_off_c, 4, 65, 64
7, 58916, Note_off_c, 4, 57, 64
7, 58920, Note_on_c, 4, 57, 78
7, 58920, Note_on_c, 4, 65, 51
7, 58920, Note_on_c, 4, 60, 40
7, 59516, Note_off_c, 4, 60, 64
7, 59516, Note_off_c, 4, 65, 64
7, 59516, Note_off_c, 4, 57, 64
7, 59520, Note_on_c, 4, 69, 45
7, 59520, Note_on_c, 4, 62, 64
7, 59520, Note_on_c, 4, 58, 76
7, 59520, Note_on_c, 4, 53, 74
7, 60476, Note_off_c, 4, 53, 64
7, 60476, Note_off_c, 4, 58, 64
7, 60476, Note_off_c, 4, 62, 64
7, 60476, Note_off_c, 4, 69, 64
7, 60480, Note_on_c, 4, 62, 59
7, 60480, Note_on_c, 4, 55, 56
7, 60480, Note_on_c, 4, 60, 46
7, 60480, Note_on_c, 4, 67, 60
7, 61436, Note_off_c, 4, 67, 64
7, 61436, Note_off_c, 4, 60, 64
7, 61436, Note_off_c, 4, 55, 64
7, 61436, Note_off_c, 4, 62, 64
7, 69120, Note_on_c, 4, 62, 68
7, 69120, Note_on_c, 4, 53, 70
7, 69120, Note_on_c, 4, 58, 41
7, 69120, Note_on_c, 4, 69, 76
7, 70076, Note_off_c, 4, 69, 64
7, 70076, Note_off_c, 4, 58, 64
7, 70076, Note_off_c, 4, 53, 64
7, 70076, Note_off_c, 4, 62, 64
7, 70080, Note_on_c, 4, 62, 65
7, 70080, Note_on_c, 4, 60, 49
7, 70080, Note_on_c, 4, 55, 79
7, 70080, Note_on_c, 4, 67, 48
7, 71036, Note_off_c, 4, 67, 64
7, 71036, Note_off_c, 4, 55, 64
7, 71036, Note_off_c, 4, 60, 64
7, 71036, Note_off_c, 4, 62, 64
7, 71040, Note_on_c, 4, 64, 73
7, 71040, Note_on_c, 4, 60, 65
7, 71040, Note_on_c, 4, 55, 52
7, 71156, Note_off_c, 4, 55, 64
7, 71156, Note_off_c, 4, 60, 64
7, 71156, Note_off_c, 4, 64, 64
7, 71160, Note_on_c, 4, 57, 79
7, 71160, Note_on_c, 4, 65, 60
7, 71396, Note_off_c, 4, 65, 64
7, 71396, Note_off_c, 4, 57, 64
7, 71400, Note_on_c, 4, 60, 42
7, 71400, Note_on_c, 4, 65, 74
7, 71400, Note_on_c, 4, 57, 56
7, 71636, Note_off_c, 4, 57, 64
7, 71636, Note_off_c, 4, 65, 64
7, 71636, Note_off_c, 4, 60, 64
7, 71640, Note_on_c, 4, 57, 68
7, 71640, Note_on_c, 4, 65, 51
7, 71640, Note_on_c, 4, 60, 64
7, 71756, Note_off_c, 4, 60, 64
7, 71756, Note_off_c, 4, 65, 64
7, 71756, Note_off_c, 4, 57, 64
7, 71760, Note_on_c, 4, 60, 65
7, 71760, Note_on_c, 4, 55, 61
7, 71760, Note_on_c, 4, 64, 46
7, 71876, Note_off_c, 4, 64, 64
7, 71876, Note_off_c, 4, 55, 64
7, 71876, Note_off_c, 4, 60, 64
7, 71880, Note_on_c, 4, 57, 64
7, 71880, Note_on_c, 4, 65, 53
7, 71996, Note_off_c, 4, 65, 64
7, 71996, Note_off_c, 4, 57, 64
7, 72000, Note_on_c, 4, 64, 65
7, 72000, Note_on_c, 4, 55, 48
7, 72000, Note_on_c, 4, 60, 76
7, 72116, Note_off_c, 4, 60, 64
7, 72116, Note_off_c, 4, 55, 64
7, 72116, Note_off_c, 4, 64, 64
7, 72120, Note_on_c, 4, 57, 48
7, 72120, Note_on_c, 4, 65, 64
7, 72356, Note_off_c, 4, 65, 64
7, 72356, Note_off_c, 4, 57, 64
7, 72360, Note_on_c, 4, 57, 48
7, 72360, Note_on_c, 4, 65, 60
7, 72360, Note_on_c, 4, 60, 72
7, 72956, Note_off_c, 4, 60, 64
7, 72956, Note_off_c, 4, 65, 64
7, 72956, Note_off_c, 4, 57, 64
7, 72960, Note_on_c, 4, 62, 70
7, 72960, Note_on_c, 4, 53, 45
7, 72960, Note_on_c, 4, 58, 74
7, 72960, Note_on_c, 4, 69, 54
7, 73916, Note_off_c, 4, 69, 64
7, 73916, Note_off_c, 4, 58, 64
7, 73916, Note_off_c, 4, 53, 64
7, 73916, Note_off_c, 4, 62, 64
7, 73920, Note_on_c, 4, 62, 70
7, 73920, Note_on_c, 4, 60, 76
7, 73920, Note_on_c, 4, 55, 73
7, 73920, Note_on_c, 4, 67, 71
7, 74876, Note_off_c, 4, 67, 64
7, 74876, Note_off_c, 4, 55, 64
7, 74876, Note_off_c, 4, 60, 64
7, 74876, Note_off_c, 4, 62, 64
7, 74880, Note_on_c, 4, 64, 65
7, 74880, Note_on_c, 4, 60, 65
7, 74880, Note_on_c, 4, 55, 59
7, 74996, Note_off_c, 4, 55, 64
7, 74996, Note_off_c, 4, 60, 64
7, 74996, Note_off_c, 4, 64, 64
7, 75000, Note_on_c, 4, 57, 68
7, 75000, Note_on_c, 4, 65, 68
7, 75236, Note_off_c, 4, 65, 64
7, 75236, Note_off_c, 4, 57, 64
7, 75240, Note_on_c, 4, 60, 64
7, 75240, Note_on_c, 4, 65, 58
7, 75240, Note_on_c, 4, 57, 77
7, 75476, Note_off_c, 4, 57, 64
7, 75476, Note_off_c, 4, 65, 64
7, 75476, Note_off_c, 4, 60, 64
7, 75480, Note_on_c, 4, 57, 74
7, 75480, Note_on_c, 4, 65, 68
7, 75480, Note_on_c, 4, 60, 70
7, 75596, Note_off_c, 4, 60, 64
7, 75596, Note_off_c, 4, 65, 64
7, 75596, Note_off_c, 4, 57, 64
7, 75600, Note_on_c, 4, 60, 60
7, 75600, Note_on_c, 4, 55, 64
7, 75600, Note_on_c, 4, 64, 72
7, 75716, Note_off_c, 4, 64, 64
7, 75716, Note_off_c, 4, 55, 64
7, 75716, Note_off_c, 4, 60, 64
7, 75720, Note_on_c, 4, 57, 63
7, 75720, Note_on_c, 4, 65, 57
7, 75836, Note_off_c, 4, 65, 64
7, 75836, Note_off_c, 4, 57, 64
7, 75840, Note_on_c, 4, 64, 68
7, 75840, Note_on_c, 4, 55, 54
7, 75840, Note_on_c, 4, 60, 48
7, 75956, Note_off_c, 4, 60, 64
7, 75956, Note_off_c, 4, 55, 64
7, 75956, Note_off_c, 4, 64, 64
7, 75960, Note_on_c, 4, 57, 47
7, 75960, Note_on_c, 4, 65, 61
7, 76196, Note_off_c, 4, 65, 64
7, 76196, Note_off_c, 4, 57, 64
7, 76200, Note_on_c, 4, 57, 40
7, 76200, Note_on_c, 4, 65, 49
7, 76200, Note_on_c, 4, 60, 58
7, 76796, Note_off_c, 4, 60, 64
7, 76796, Note_off_c, 4, 65, 64
7, 76796, Note_off_c, 4, 57, 64
7, 76800, Note_on_c, 4, 69, 71
7, 76800, Note_on_c, 4, 62, 55
7, 76800, Note_on_c, 4, 58, 64
7, 76800, Note_on_c, 4, 53, 41
7, 77756, Note_off_c, 4, 53, 64
7, 77756, Note_off_c, 4, 58, 64
7, 77756, Note_off_c, 4, 62, 64
7, 77756, Note_off_c, 4, 69, 64
7, 77760, Note_on_c, 4, 62, 47
7, 77760, Note_on_c, 4, 55, 44
7, 77760, Note_on_c, 4, 60, 42
7, 77760, Note_on_c, 4, 67, 72
7, 78716, Note_off_c, 4, 67, 64
7, 78716, Note_off_c, 4, 60, 64
7, 78716, Note_off_c, 4, 55, 64
7, 78716, Note_off_c, 4, 62, 64
7, 78720, Note_on_c, 4, 64, 60
7, 78720, Note_on_c, 4, 60, 72
7, 78720, Note_on_c, 4, 55, 60
7, 78836, Note_off_c, 4, 55, 64
7, 78836, Note_off_c, 4, 60, 64
7, 78836, Note_off_c, 4, 64, 64
7, 78840, Note_on_c, 4, 57, 72
7, 78840, Note_on_c, 4, 65, 60
7, 79076, Note_off_c, 4, 65, 64
7, 79076, Note_off_c, 4, 57, 64
7, 79080, Note_on_c, 4, 57, 49
7, 79080, Note_on_c, 4, 60, 68
7, 79080, Note_on_c, 4, 65, 64
7, 79196, Note_off_c, 4, 65, 64
7, 79196, Note_off_c, 4, 60, 64
7, 79196, Note_off_c, 4, 57, 64
7, 79440, Note_on_c, 4, 53, 41
7, 79440, Note_on_c, 4, 58, 66
7, 79440, Note_on_c, 4, 62, 77
7, 80636, Note_off_c, 4, 62, 64
7, 80636, Note_off_c, 4, 58, 64
7, 80636, Note_off_c, 4, 53, 64
7, 80640, Note_on_c, 4, 62, 56
7, 80640, Note_on_c, 4, 53, 53
7, 80640, Note_on_c, 4, 58, 48
7, 80640, Note_on_c, 4, 69, 70
7, 81596, Note_off_c, 4, 69, 64
7, 81596, Note_off_c, 4, 58, 64
7, 81596, Note_off_c, 4, 53, 64
7, 81596, Note_off_c, 4, 62, 64
7, 81600, Note_on_c, 4, 62, 74
7, 81600, Note_on_c, 4, 60, 60
7, 81600, Note_on_c, 4, 55, 58
7, 81600, Note_on_c, 4, 67, 41
7, 82556, Note_off_c, 4, 67, 64
7, 82556, Note_off_c, 4, 55, 64
7, 82556, Note_off_c, 4, 60, 64
7, 82556, Note_off_c, 4, 62, 64
7, 82560, Note_on_c, 4, 64, 56
7, 82560, Note_on_c, 4, 60, 77
7, 82560, Note_on_c, 4, 55, 47
7, 82676, Note_off_c, 4, 55, 64
7, 82676, Note_off_c, 4, 60, 64
7, 82676, Note_off_c, 4, 64, 64
7, 82680, Note_on_c, 4, 57, 42
7, 82680, Note_on_c, 4, 65, 45
7, 82916, Note_off_c, 4, 65, 64
7, 82916, Note_off_c, 4, 57, 64
7, 82920, Note_on_c, 4, 60, 79
7, 82920, Note_on_c, 4, 65, 40
7, 82920, Note_on_c, 4, 57, 64
7, 83156, Note_off_c, 4, 57, 64
7, 83156, Note_off_c, 4, 65, 64
7, 83156, Note_off_c, 4, 60, 64
7, 83160, Note_on_c, 4, 57, 67
7, 83160, Note_on_c, 4, 65, 69
7, 83160, Note_on_c, 4, 60, 56
7, 83276, Note_off_c, 4, 60, 64
7, 83276, Note_off_c, 4, 65, 64
7, 83276, Note_off_c, 4, 57, 64
7, 83280, Note_on_c, 4, 60, 60
7, 83280, Note_on_c, 4, 55, 44
7, 83280, Note_on_c, 4, 64, 76
7, 83396, Note_off_c, 4, 64, 64
7, 83396, Note_off_c, 4, 55, 64
7, 83396, Note_off_c, 4, 60, 64
7, 83400, Note_on_c, 4, 57, 72
7, 83400, Note_on_c, 4, 65, 72
7, 83516, Note_off_c, 4, 65, 64
7, 83516, Note_off_c, 4, 57, 64
7, 83520, Note_on_c, 4, 64, 47
7, 83520, Note_on_c, 4, 55, 73
7, 83520, Note_on_c, 4, 60, 67
7, 83636, Note_off_c, 4, 60, 64
7, 83636, Note_off_c, 4, 55, 64
7, 83636, Note_off_c, 4, 64, 64
7, 83640, Note_on_c, 4, 57, 65
7, 83640, Note_on_c, 4, 65, 53
7, 83876, Note_off_c, 4, 65, 64
7, 83876, Note_off_c, 4, 57, 64
7, 83880, Note_on_c, 4, 57, 69
7, 83880, Note_on_c, 4, 65, 76
7, 83880, Note_on_c, 4, 60, 69
7, 84476, Note_off_c, 4, 60, 64
7, 84476, Note_off_c, 4, 65, 64
7, 84476, Note_off_c, 4, 57, 64
7, 84480, Note_on_c, 4, 69, 54
7, 84480, Note_on_c, 4, 62, 72
7, 84480, Note_on_c, 4, 58, 44
7, 84480, Note_on_c, 4, 53, 52
7, 85436, Note_off_c, 4, 53, 64
7, 85436, Note_off_c, 4, 58, 64
7, 85436, Note_off_c, 4, 62, 64
7, 85436, Note_off_c, 4, 69, 64
7, 85440, Note_on_c, 4, 62, 66
7, 85440, Note_on_c, 4, 55, 67
7, 85440, Note_on_c, 4, 60, 54
7, 85440, Note_on_c, 4, 67, 42
7, 86396, Note_off_c, 4, 67, 64
7, 86396, Note_off_c, 4, 60, 64
7, 86396, Note_off_c, 4, 55, 64
7, 86396, Note_off_c, 4, 62, 64
7, 86400, Note_on_c, 4, 38, 79
7, 87116, Note_off_c, 4, 38, 64
7, 87120, Note_on_c, 4, 43, 42
7, 87236, Note_off_c, 4, 43, 64
7, 87240, Note_on_c, 4, 45, 66
7, 87476, Note_off_c, 4, 45, 64
7, 87480, Note_on_c, 4, 48, 48
7, 87716, Note_off_c, 4, 48, 64
7, 87720, Note_on_c, 4, 45, 41
7, 87836, Note_off_c, 4, 45, 64
7, 87840, Note_on_c, 4, 50, 47
7, 88316, Note_off_c, 4, 50, 64
7, 88320, Note_on_c, 4, 38, 76
7, 89036, Note_off_c, 4, 38, 64
7, 89040, Note_on_c, 4, 43, 67
7, 89156, Note_off_c, 4, 43, 64
7, 89160, Note_on_c, 4, 45, 62
7, 89396, Note_off_c, 4, 45, 64
7, 89400, Note_on_c, 4, 48, 69
7, 89636, Note_off_c, 4, 48, 64
7, 89640, Note_on_c, 4, 45, 71
7, 89756, Note_off_c, 4, 45, 64
7, 89760, Note_on_c, 4, 50, 61
7, 90236, Note_off_c, 4, 50, 64
7, 90240, Note_on_c, 4, 38, 42
7, 90956, Note_off_c, 4, 38, 64
7, 90960, Note_on_c, 4, 43, 66
7, 91076, Note_off_c, 4, 43, 64
7, 91080, Note_on_c, 4, 45, 68
7, 91316, Note_off_c, 4, 45, 64
7, 91320, Note_on_c, 4, 48, 52
7, 91556, Note_off_c, 4, 48, 64
7, 91560, Note_on_c, 4, 45, 45
7, 91676, Note_off_c, 4, 45, 64
7, 91680, Note_on_c, 4, 50, 47
7, 92156, Note_off_c, 4, 50, 64
7, 92160, Note_on_c, 4, 38, 43
7, 92876, Note_off_c, 4, 38, 64
7, 92880, Note_on_c, 4, 43, 68
7, 92996, Note_off_c, 4, 43, 64
7, 93000, Note_on_c, 4, 45, 64
7, 93236, Note_off_c, 4, 45, 64
7, 93240, Note_on_c, 4, 48, 40
7, 93476, Note_off_c, 4, 48, 64
7, 93480, Note_on_c, 4, 45, 66
7, 93596, Note_off_c, 4, 45, 64
7, 93600, Note_on_c, 4, 50, 46
7, 94076, Note_off_c, 4, 50, 64
7, 94080, Note_on_c, 4, 62, 74
7, 94080, Note_on_c, 4, 53, 62
7, 94080, Note_on_c, 4, 58, 74
7, 94080, Note_on_c, 4, 69, 72
7, 95036, Note_off_c, 4, 69, 64
7, 95036, Note_off_c, 4, 58, 64
7, 95036, Note_off_c, 4, 53, 64
7, 95036, Note_off_c, 4, 62, 64
7, 95040, Note_on_c, 4, 62, 57
7, 95040, Note_on_c, 4, 60, 55
7, 95040, Note_on_c, 4, 55, 56
7, 95040, Note_on_c, 4, 67, 57
7, 95996, Note_off_c, 4, 67, 64
7, 95996, Note_off_c, 4, 55, 64
7, 95996, Note_off_c, 4, 60, 64
7, 95996, Note_off_c, 4, 62, 64
7, 96000, Note_on_c, 4, 64, 62
7, 96000, Note_on_c, 4, 60, 64
7, 96000, Note_on_c, 4, 55, 75
7, 96116, Note_off_c, 4, 55, 64
7, 96116, Note_off_c, 4, 60, 64
7, 96116, Note_off_c, 4, 64, 64
7, 96120, Note_on_c, 4, 57, 56
7, 96120, Note_on_c, 4, 65, 76
7, 96356, Note_off_c, 4, 65, 64
7, 96356, Note_off_c, 4, 57, 64
7, 96360, Note_on_c, 4, 60, 66
7, 96360, Note_on_c, 4, 65, 67
7, 96360, Note_on_c, 4, 57, 44
7, 96596, Note_off_c, 4, 57, 64
7, 96596, Note_off_c, 4, 65, 64
7, 96596, Note_off_c, 4, 60, 64
7, 96600, Note_on_c, 4, 57, 57
7, 96600, Note_on_c, 4, 65, 41
7, 96600, Note_on_c, 4, 60, 73
7, 96716, Note_off_c, 4, 60, 64
7, 96716, Note_off_c, 4, 65, 64
7, 96716, Note_off_c, 4, 57, 64
7, 96720, Note_on_c, 4, 60, 42
7, 96720, Note_on_c, 4, 55, 58
7, 96720, Note_on_c, 4, 64, 48
7, 96836, Note_off_c, 4, 64, 64
7, 96836, Note_off_c, 4, 55, 64
7, 96836, Note_off_c, 4, 60, 64
7, 96840, Note_on_c, 4, 57, 43
7, 96840, Note_on_c, 4, 65, 60
7, 96956, Note_off_c, 4, 65, 64
7, 96956, Note_off_c, 4, 57, 64
7, 96960, Note_on_c, 4, 64, 65
7, 96960, Note_on_c, 4, 55, 58
7, 96960, Note_on_c, 4, 60, 43
7, 97076, Note_off_c, 4, 60, 64
7, 97076, Note_off_c, 4, 55, 64
7, 97076, Note_off_c, 4, 64, 64
7, 97080, Note_on_c, 4, 57, 76
7, 97080, Note_on_c, 4, 65, 53
7, 97316, Note_off_c, 4, 65, 64
7, 97316, Note_off_c, 4, 57, 64
7, 97320, Note_on_c, 4, 57, 54
7, 97320, Note_on_c, 4, 65, 65
7, 97320, Note_on_c, 4, 60, 72
7, 97916, Note_off_c, 4, 60, 64
7, 97916, Note_off_c, 4, 65, 64
7, 97916, Note_off_c, 4, 57, 64
7, 97920, Note_on_c, 4, 62, 77
7, 97920, Note_on_c, 4, 53, 69
7, 97920, Note_on_c, 4, 58, 48
7, 97920, Note_on_c, 4, 69, 57
7, 98876, Note_off_c, 4, 69, 64
7, 98876, Note_off_c, 4, 58, 64
7, 98876, Note_off_c, 4, 53, 64
7, 98876, Note_off_c, 4, 62, 64
7, 98880, Note_on_c, 4, 62, 50
7, 98880, Note_on_c, 4, 60, 49
7, 98880, Note_on_c, 4, 55, 56
7, 98880, Note_on_c, 4, 67, 74
7, 99836, Note_off_c, 4, 67, 64
7, 99836, Note_off_c, 4, 55, 64
7, 99836, Note_off_c, 4, 60, 64
7, 99836, Note_off_c, 4, 62, 64
7, 99840, Note_on_c, 4, 64, 52
7, 99840, Note_on_c, 4, 60, 70
7, 99840, Note_on_c, 4, 55, 68
7, 99956, Note_off_c, 4, 55, 64
7, 99956, Note_off_c, 4, 60, 64
7, 99956, Note_off_c, 4, 64, 64
7, 99960, Note_on_c, 4, 57, 79
7, 99960, Note_on_c, 4, 65, 76
7, 100196, Note_off_c, 4, 65, 64
7, 100196, Note_off_c, 4, 57, 64
7, 100200, Note_on_c, 4, 60, 46
7, 100200, Note_on_c, 4, 65, 48
7, 100200, Note_on_c, 4, 57, 68
7, 100436, Note_off_c, 4, 57, 64
7, 100436, Note_off_c, 4, 65, 64
7, 100436, Note_off_c, 4, 60, 64
7, 100440, Note_on_c, 4, 57, 63
7, 100440, Note_on_c, 4, 65, 40
7, 100440, Note_on_c, 4, 60, 63
7, 100556, Note_off_c, 4, 60, 64
7, 100556, Note_off_c, 4, 65, 64
7, 100556, Note_off_c, 4, 57, 64
7, 100560, Note_on_c, 4, 60, 56
7, 100560, Note_on_c, 4, 55, 64
7, 100560, Note_on_c, 4, 64, 56
7, 100676, Note_off_c, 4, 64, 64
7, 100676, Note_off_c, 4, 55, 64
7, 100676, Note_off_c, 4, 60, 64
7, 100680, Note_on_c, 4, 57, 44
7, 100680, Note_on_c, 4, 65, 49
7, 100796, Note_off_c, 4, 65, 64
7, 100796, Note_off_c, 4, 57, 64
7, 100800, Note_on_c, 4, 64, 41
7, 100800, Note_on_c, 4, 55, 47
7, 100800, Note_on_c, 4, 60, 75
7, 100916, Note_off_c, 4, 60, 64
7, 100916, Note_off_c, 4, 55, 64
7, 100916, Note_off_c, 4, 64, 64
7, 100920, Note_on_c, 4, 57, 70
7, 100920, Note_on_c, 4, 65, 40
7, 101156, Note_off_c, 4, 65, 64
7, 101156, Note_off_c, 4, 57, 64
7, 101160, Note_on_c, 4, 57, 73
7, 101160, Note_on_c, 4, 65, 44
7, 101160, Note_on_c, 4, 60, 68
7, 101756, Note_off_c, 4, 60, 64
7, 101756, Note_off_c, 4, 65, 64
7, 101756, Note_off_c, 4, 57, 64
7, 101760, Note_on_c, 4, 62, 43
7, 101760, Note_on_c, 4, 53, 76
7, 101760, Note_on_c, 4, 58, 59
7, 101760, Note_on_c, 4, 69, 70
7, 102716, Note_off_c, 4, 69, 64
7, 102716, Note_off_c, 4, 58, 64
7, 102716, Note_off_c, 4, 53, 64
7, 102716, Note_off_c, 4, 62, 64
7, 102720, Note_on_c, 4, 62, 67
7, 102720, Note_on_c, 4, 60, 56
7, 102720, Note_on_c, 4, 55, 72
7, 102720, Note_on_c, 4, 67, 60
7, 103676, Note_off_c, 4, 67, 64
7, 103676, Note_off_c, 4, 55, 64
7, 103676, Note_off_c, 4, 60, 64
7, 103676, Note_off_c, 4, 62, 64
7, 103680, Note_on_c, 4, 60, 72
7, 103680, Note_on_c, 4, 55, 50
7, 103680, Note_on_c, 4, 64, 64
7, 103796, Note_off_c, 4, 64, 64
7, 103796, Note_off_c, 4, 55, 64
7, 103796, Note_off_c, 4, 60, 64
7, 103800, Note_on_c, 4, 65, 64
7, 103800, Note_on_c, 4, 57, 68
7, 104036, Note_off_c, 4, 57, 64
7, 104036, Note_off_c, 4, 65, 64
7, 104040, Note_on_c, 4, 60, 79
7, 104040, Note_on_c, 4, 65, 40
7, 104040, Note_on_c, 4, 57, 72
7, 104156, Note_off_c, 4, 57, 64
7, 104156, Note_off_c, 4, 65, 64
7, 104156, Note_off_c, 4, 60, 64
7, 104400, Note_on_c, 4, 58, 68
7, 104400, Note_on_c, 4, 62, 56
7, 104400, Note_on_c, 4, 53, 61
7, 105596, Note_off_c, 4, 53, 64
7, 105596, Note_off_c, 4, 62, 64
7, 105596, Note_off_c, 4, 58, 64
7, 105600, Note_on_c, 4, 69, 59
7, 105600, Note_on_c, 4, 62, 52
7, 105600, Note_on_c, 4, 60, 68
7, 105600, Note_on_c, 4, 53, 52
7, 106556, Note_off_c, 4, 53, 64
7, 106556, Note_off_c, 4, 60, 64
7, 106556, Note_off_c, 4, 62, 64
7, 106556, Note_off_c, 4, 69, 64
7, 106560, Note_on_c, 4, 62, 79
7, 106560, Note_on_c, 4, 60, 48
7, 106560, Note_on_c, 4, 67, 51
7, 106560, Note_on_c, 4, 55, 44
7, 107516, Note_off_c, 4, 55, 64
7, 107516, Note_off_c, 4, 67, 64
7, 107516, Note_off_c, 4, 60, 64
7, 107516, Note_off_c, 4, 62, 64
7, 107760, Note_on_c, 4, 60, 48
7, 107760, Note_on_c, 4, 62, 61
7, 107760, Note_on_c, 4, 55, 77
7, 107996, Note_off_c, 4, 55, 64
7, 107996, Note_off_c, 4, 62, 64
7, 107996, Note_off_c, 4, 60, 64
7, 108120, Note_on_c, 4, 62, 69
7, 108120, Note_on_c, 4, 60, 56
7, 108120, Note_on_c, 4, 55, 52
7, 108476, Note_off_c, 4, 55, 64
7, 108476, Note_off_c, 4, 60, 64
7, 108476, Note_off_c, 4, 62, 64
7, 108480, Note_on_c, 4, 62, 47
7, 108480, Note_on_c, 4, 53, 57
7, 108480, Note_on_c, 4, 57, 76
7, 109436, Note_off_c, 4, 57, 64
7, 109436, Note_off_c, 4, 53, 64
7, 109436, Note_off_c, 4, 62, 64
7, 109440, Note_on_c, 4, 58, 72
7, 109440, Note_on_c, 4, 69, 63
7, 109440, Note_on_c, 4, 62, 56
7, 109440, Note_on_c, 4, 53, 44
7, 110396, Note_off_c, 4, 53, 64
7, 110396, Note_off_c, 4, 62, 64
7, 110396, Note_off_c, 4, 69, 64
7, 110396, Note_off_c, 4, 58, 64
7, 110400, Note_on_c, 4, 62, 50
7, 110400, Note_on_c, 4, 60, 53
7, 110400, Note_on_c, 4, 67, 60
7, 110400, Note_on_c, 4, 55, 61
7, 111356, Note_off_c, 4, 55, 64
7, 111356, Note_off_c, 4, 67, 64
7, 111356, Note_off_c, 4, 60, 64
7, 111356, Note_off_c, 4, 62, 64
7, 111360, Note_on_c, 4, 64, 62
7, 111360, Note_on_c, 4, 60, 75
7, 111360, Note_on_c, 4, 55, 42
7, 111476, Note_off_c, 4, 55, 64
7, 111476, Note_off_c, 4, 60, 64
7, 111476, Note_off_c, 4, 64, 64
7, 111480, Note_on_c, 4, 57, 47
7, 111480, Note_on_c, 4, 65, 45
7, 111716, Note_off_c, 4, 65, 64
7, 111716, Note_off_c, 4, 57, 64
7, 111720, Note_on_c, 4, 60, 65
7, 111720, Note_on_c, 4, 65, 72
7, 111720, Note_on_c, 4, 57, 65
7, 111956, Note_off_c, 4, 57, 64
7, 111956, Note_off_c, 4, 65, 64
7, 111956, Note_off_c, 4, 60, 64
7, 111960, Note_on_c, 4, 57, 78
7, 111960, Note_on_c, 4, 65, 40
7, 111960, Note_on_c, 4, 60, 74
7, 112076, Note_off_c, 4, 60, 64
7, 112076, Note_off_c, 4, 65, 64
7, 112076, Note_off_c, 4, 57, 64
7, 112080, Note_on_c, 4, 60, 67
7, 112080, Note_on_c, 4, 55, 62
7, 112080, Note_on_c, 4, 64, 49
7, 112196, Note_off_c, 4, 64, 64
7, 112196, Note_off_c, 4, 55, 64
7, 112196, Note_off_c, 4, 60, 64
7, 112200, Note_on_c, 4, 57, 78
7, 112200, Note_on_c, 4, 65, 72
7, 112316, Note_off_c, 4, 65, 64
7, 112316, Note_off_c, 4, 57, 64
7, 112320, Note_on_c, 4, 64, 55
7, 112320, Note_on_c, 4, 55, 68
7, 112320, Note_on_c, 4, 60, 72
7, 112436, Note_off_c, 4, 60, 64
7, 112436, Note_off_c, 4, 55, 64
7, 112436, Note_off_c, 4, 64, 64
7, 112440, Note_on_c, 4, 57, 40
7, 112440, Note_on_c, 4, 65, 44
7, 112676, Note_off_c, 4, 65, 64
7, 112676, Note_off_c, 4, 57, 64
7, 112680, Note_on_c, 4, 57, 44
7, 112680, Note_on_c, 4, 65, 55
7, 112680, Note_on_c, 4, 60, 60
7, 113276, Note_off_c, 4, 60, 64
7, 113276, Note_off_c, 4, 65, 64
7, 113276, Note_off_c, 4, 57, 64
7, 113280, Note_on_c, 4, 62, 46
7, 113280, Note_on_c, 4, 53, 74
7, 113280, Note_on_c, 4, 58, 61
7, 113280, Note_on_c, 4, 69, 70
7, 114236, Note_off_c, 4, 69, 64
7, 114236, Note_off_c, 4, 58, 64
7, 114236, Note_off_c, 4, 53, 64
7, 114236, Note_off_c, 4, 62, 64
7, 114240, Note_on_c, 4, 62, 49
7, 114240, Note_on_c, 4, 60, 66
7, 114240, Note_on_c, 4, 55, 70
7, 114240, Note_on_c, 4, 67, 61
7, 115196, Note_off_c, 4, 67, 64
7, 115196, Note_off_c, 4, 55, 64
7, 115196, Note_off_c, 4, 60, 64
7, 115196, Note_off_c, 4, 62, 64
7, 115200, Note_on_c, 4, 64, 45
7, 115200, Note_on_c, 4, 60, 45
7, 115200, Note_on_c, 4, 55, 73
7, 115316, Note_off_c, 4, 55, 64
7, 115316, Note_off_c, 4, 60, 64
7, 115316, Note_off_c, 4, 64, 64
7, 115320, Note_on_c, 4, 57, 45
7, 115320, Note_on_c, 4, 65, 64
7, 115556, Note_off_c, 4, 65, 64
7, 115556, Note_off_c, 4, 57, 64
7, 115560, Note_on_c, 4, 60, 61
7, 115560, Note_on_c, 4, 65, 75
7, 115560, Note_on_c, 4, 57, 68
7, 115796, Note_off_c, 4, 57, 64
7, 115796, Note_off_c, 4, 65, 64
7, 115796, Note_off_c, 4, 60, 64
7, 115800, Note_on_c, 4, 57, 52
7, 115800, Note_on_c, 4, 65, 67
7, 115800, Note_on_c, 4, 60, 52
7, 115916, Note_off_c, 4, 60, 64
7, 115916, Note_off_c, 4, 65, 64
7, 115916, Note_off_c, 4, 57, 64
7, 115920, Note_on_c, 4, 60, 69
7, 115920, Note_on_c, 4, 55, 78
7, 115920, Note_on_c, 4, 64, 40
7, 116036, Note_off_c, 4, 64, 64
7, 116036, Note_off_c, 4, 55, 64
7, 116036, Note_off_c, 4, 60, 64
7, 116040, Note_on_c, 4, 57, 44
7, 116040, Note_on_c, 4, 65, 60
7, 116156, Note_off_c, 4, 65, 64
7, 116156, Note_off_c, 4, 57, 64
7, 116160, Note_on_c, 4, 64, 60
7, 116160, Note_on_c, 4, 55, 66
7, 116160, Note_on_c, 4, 60, 40
7, 116276, Note_off_c, 4, 60, 64
7, 116276, Note_off_c, 4, 55, 64
7, 116276, Note_off_c, 4, 64, 64
7, 116280, Note_on_c, 4, 57, 42
7, 116280, Note_on_c, 4, 65, 61
7, 116516, Note_off_c, 4, 65, 64
7, 116516, Note_off_c, 4, 57, 64
7, 116520, Note_on_c, 4, 57, 71
7, 116520, Note_on_c, 4, 65, 43
7, 116520, Note_on_c, 4, 60, 67
7, 117116, Note_off_c, 4, 60, 64
7, 117116, Note_off_c, 4, 65, 64
7, 117116, Note_off_c, 4, 57, 64
7, 117120, Note_on_c, 4, 62, 74
7, 117120, Note_on_c, 4, 53, 76
7, 117120, Note_on_c, 4, 58, 44
7, 117120, Note_on_c, 4, 69, 48
7, 118076, Note_off_c, 4, 69, 64
7, 118076, Note_off_c, 4, 58, 64
7, 118076, Note_off_c, 4, 53, 64
7, 118076, Note_off_c, 4, 62, 64
7, 118080, Note_on_c, 4, 62, 76
7, 118080, Note_on_c, 4, 60, 59
7, 118080, Note_on_c, 4, 55, 52
7, 118080, Note_on_c, 4, 67, 73
7, 119036, Note_off_c, 4, 67, 64
7, 119036, Note_off_c, 4, 55, 64
7, 119036, Note_off_c, 4, 60, 64
7, 119036, Note_off_c, 4, 62, 64
7, 119040, Note_on_c, 4, 60, 65
7, 119040, Note_on_c, 4, 55, 61
7, 119040, Note_on_c, 4, 64, 52
7, 119156, Note_off_c, 4, 64, 64
7, 119156, Note_off_c, 4, 55, 64
7, 119156, Note_off_c, 4, 60, 64
7, 119160, Note_on_c, 4, 65, 60
7, 119160, Note_on_c, 4, 57, 55
7, 119396, Note_off_c, 4, 57, 64
7, 119396, Note_off_c, 4, 65, 64
7, 119400, Note_on_c, 4, 60, 56
7, 119400, Note_on_c, 4, 65, 72
7, 119400, Note_on_c, 4, 57, 45
7, 119516, Note_off_c, 4, 57, 64
7, 119516, Note_off_c, 4, 65, 64
7, 119516, Note_off_c, 4, 60, 64
7, 119760, Note_on_c, 4, 58, 69
7, 119760, Note_on_c, 4, 62, 66
7, 119760, Note_on_c, 4, 53, 72
7, 120956, Note_off_c, 4, 53, 64
7, 120956, Note_off_c, 4, 62, 64
7, 120956, Note_off_c, 4, 58, 64
7, 120960, Note_on_c, 4, 69, 44
7, 120960, Note_on_c, 4, 62, 72
7, 120960, Note_on_c, 4, 60, 42
7, 120960, Note_on_c, 4, 53, 68
7, 121916, Note_off_c, 4, 53, 64
7, 121916, Note_off_c, 4, 60, 64
7, 121916, Note_off_c, 4, 62, 64
7, 121916, Note_off_c, 4, 69, 64
7, 121920, Note_on_c, 4, 62, 73
7, 121920, Note_on_c, 4, 60, 52
7, 121920, Note_on_c, 4, 67, 73
7, 121920, Note_on_c, 4, 55, 64
7, 122876, Note_off_c, 4, 55, 64
7, 122876, Note_off_c, 4, 67, 64
7, 122876, Note_off_c, 4, 60, 64
7, 122876, Note_off_c, 4, 62, 64
7, 123120, Note_on_c, 4, 60, 63
7, 123120, Note_on_c, 4, 62, 43
7, 123120, Note_on_c, 4, 55, 72
7, 123356, Note_off_c, 4, 55, 64
7, 123356, Note_off_c, 4, 62, 64
7, 123356, Note_off_c, 4, 60, 64
7, 123480, Note_on_c, 4, 62, 75
7, 123480, Note_on_c, 4, 60, 42
7, 123480, Note_on_c, 4, 55, 57
7, 123836, Note_off_c, 4, 55, 64
7, 123836, Note_off_c, 4, 60, 64
7, 123836, Note_off_c, 4, 62, 64
7, 123840, Note_on_c, 4, 62, 75
7, 123840, Note_on_c, 4, 53, 56
7, 123840, Note_on_c, 4, 57, 64
7, 124796, Note_off_c, 4, 57, 64
7, 124796, Note_off_c, 4, 53, 64
7, 124796, Note_off_c, 4, 62, 64
7, 124800, Note_on_c, 4, 58, 75
7, 124800, Note_on_c, 4, 69, 60
7, 124800, Note_on_c, 4, 62, 64
7, 124800, Note_on_c, 4, 53, 47
7, 125756, Note_off_c, 4, 53, 64
7, 125756, Note_off_c, 4, 62, 64
7, 125756, Note_off_c, 4, 69, 64
7, 125756, Note_off_c, 4, 58, 64
7, 125760, Note_on_c, 4, 62, 70
7, 125760, Note_on_c, 4, 60, 54
7, 125760, Note_on_c, 4, 67, 78
7, 125760, Note_on_c, 4, 55, 63
7, 126716, Note_off_c, 4, 55, 64
7, 126716, Note_off_c, 4, 67, 64
7, 126716, Note_off_c, 4, 60, 64
7, 126716, Note_off_c, 4, 62, 64
7, 126720, Note_on_c, 4, 64, 47
7, 126720, Note_on_c, 4, 60, 44
7, 126720, Note_on_c, 4, 55, 45
7, 126836, Note_off_c, 4, 55, 64
7, 126836, Note_off_c, 4, 60, 64
7, 126836, Note_off_c, 4, 64, 64
7, 126840, Note_on_c, 4, 57, 68
7, 126840, Note_on_c, 4, 65, 40
7, 127076, Note_off_c, 4, 65, 64
7, 127076, Note_off_c, 4, 57, 64
7, 127080, Note_on_c, 4, 60, 52
7, 127080, Note_on_c, 4, 65, 76
7, 127080, Note_on_c, 4, 57, 48
7, 127316, Note_off_c, 4, 57, 64
7, 127316, Note_off_c, 4, 65, 64
7, 127316, Note_off_c, 4, 60, 64
7, 127320, Note_on_c, 4, 57, 78
7, 127320, Note_on_c, 4, 65, 54
7, 127320, Note_on_c, 4, 60, 56
7, 127436, Note_off_c, 4, 60, 64
7, 127436, Note_off_c, 4, 65, 64
7, 127436, Note_off_c, 4, 57, 64
7, 127440, Note_on_c, 4, 60, 71
7, 127440, Note_on_c, 4, 55, 71
7, 127440, Note_on_c, 4, 64, 69
7, 127556, Note_off_c, 4, 64, 64
7, 127556, Note_off_c, 4, 55, 64
7, 127556, Note_off_c, 4, 60, 64
7, 127560, Note_on_c, 4, 57, 53
7, 127560, Note_on_c, 4, 65, 45
7, 127676, Note_off_c, 4, 65, 64
7, 127676, Note_off_c, 4, 57, 64
7, 127680, Note_on_c, 4, 64, 69
7, 127680, Note_on_c, 4, 55, 51
7, 127680, Note_on_c, 4, 60, 60
7, 127796, Note_off_c, 4, 60, 64
7, 127796, Note_off_c, 4, 55, 64
7, 127796, Note_off_c, 4, 64, 64
7, 127800, Note_on_c, 4, 57, 68
7, 127800, Note_on_c, 4, 65, 40
7, 128036, Note_off_c, 4, 65, 64
7, 128036, Note_off_c, 4, 57, 64
7, 128040, Note_on_c, 4, 57, 56
7, 128040, Note_on_c, 4, 65, 53
7, 128040, Note_on_c, 4, 60, 65
7, 128636, Note_off_c, 4, 60, 64
7, 128636, Note_off_c, 4, 65, 64
7, 128636, Note_off_c, 4, 57, 64
7, 128640, Note_on_c, 4, 62, 52
7, 128640, Note_on_c, 4, 53, 76
7, 128640, Note_on_c, 4, 58, 60
7, 128640, Note_on_c, 4, 69, 72
7, 129596, Note_off_c, 4, 69, 64
7, 129596, Note_off_c, 4, 58, 64
7, 129596, Note_off_c, 4, 53, 64
7, 129596, Note_off_c, 4, 62, 64
7, 129600, Note_on_c, 4, 62, 68
7, 129600, Note_on_c, 4, 60, 55
7, 129600, Note_on_c, 4, 55, 71
7, 129600, Note_on_c, 4, 67, 46
7, 130556, Note_off_c, 4, 67, 64
7, 130556, Note_off_c, 4, 55, 64
7, 130556, Note_off_c, 4, 60, 64
7, 130556, Note_off_c, 4, 62, 64
7, 130560, Note_on_c, 4, 64, 52
7, 130560, Note_on_c, 4, 60, 79
7, 130560, Note_on_c, 4, 55, 76
7, 130676, Note_off_c, 4, 55, 64
7, 130676, Note_off_c, 4, 60, 64
7, 130676, Note_off_c, 4, 64, 64
7, 130680, Note_on_c, 4, 57, 75
7, 130680, Note_on_c, 4, 65, 60
7, 130916, Note_off_c, 4, 65, 64
7, 130916, Note_off_c, 4, 57, 64
7, 130920, Note_on_c, 4, 60, 61
7, 130920, Note_on_c, 4, 65, 70
7, 130920, Note_on_c, 4, 57, 79
7, 131156, Note_off_c, 4, 57, 64
7, 131156, Note_off_c, 4, 65, 64
7, 131156, Note_off_c, 4, 60, 64
7, 131160, Note_on_c, 4, 57, 72
7, 131160, Note_on_c, 4, 65, 53
7, 131160, Note_on_c, 4, 60, 55
7, 131276, Note_off_c, 4, 60, 64
7, 131276, Note_off_c, 4, 65, 64
7, 131276, Note_off_c, 4, 57, 64
7, 131280, Note_on_c, 4, 60, 72
7, 131280, Note_on_c, 4, 55, 54
7, 131280, Note_on_c, 4, 64, 56
7, 131396, Note_off_c, 4, 64, 64
7, 131396, Note_off_c, 4, 55, 64
7, 131396, Note_off_c, 4, 60, 64
7, 131400, Note_on_c, 4, 57, 55
7, 131400, Note_on_c, 4, 65, 72
7, 131516, Note_off_c, 4, 65, 64
7, 131516, Note_off_c, 4, 57, 64
7, 131520, Note_on_c, 4, 64, 40
7, 131520, Note_on_c, 4, 55, 70
7, 131520, Note_on_c, 4, 60, 52
7, 131636, Note_off_c, 4, 60, 64
7, 131636, Note_off_c, 4, 55, 64
7, 131636, Note_off_c, 4, 64, 64
7, 131640, Note_on_c, 4, 57, 52
7, 131640, Note_on_c, 4, 65, 44
7, 131876, Note_off_c, 4, 65, 64
7, 131876, Note_off_c, 4, 57, 64
7, 131880, Note_on_c, 4, 57, 68
7, 131880, Note_on_c, 4, 65, 50
7, 131880, Note_on_c, 4, 60, 60
7, 132476, Note_off_c, 4, 60, 64
7, 132476, Note_off_c, 4, 65, 64
7, 132476, Note_off_c, 4, 57, 64
7, 132480, Note_on_c, 4, 62, 73
7, 132480, Note_on_c, 4, 53, 59
7, 132480, Note_on_c, 4, 58, 59
7, 132480, Note_on_c, 4, 69, 60
7, 133436, Note_off_c, 4, 69, 64
7, 133436, Note_off_c, 4, 58, 64
7, 133436, Note_off_c, 4, 53, 64
7, 133436, Note_off_c, 4, 62, 64
7, 133440, Note_on_c, 4, 62, 45
7, 133440, Note_on_c, 4, 60, 73
7, 133440, Note_on_c, 4, 55, 49
7, 133440, Note_on_c, 4, 67, 62
7, 134396, Note_off_c, 4, 67, 64
7, 134396, Note_off_c, 4, 55, 64
7, 134396, Note_off_c, 4, 60, 64
7, 134396, Note_off_c, 4, 62, 64
7, 134400, Note_on_c, 4, 60, 60
7, 134400, Note_on_c, 4, 55, 74
7, 134400, Note_on_c, 4, 64, 67
7, 134516, Note_off_c, 4, 64, 64
7, 134516, Note_off_c, 4, 55, 64
7, 134516, Note_off_c, 4, 60, 64
7, 134520, Note_on_c, 4, 65, 57
7, 134520, Note_on_c, 4, 57, 40
7, 134756, Note_off_c, 4, 57, 64
7, 134756, Note_off_c, 4, 65, 64
7, 134760, Note_on_c, 4, 60, 70
7, 134760, Note_on_c, 4, 65, 77
7, 134760, Note_on_c, 4, 57, 73
7, 134876, Note_off_c, 4, 57, 64
7, 134876, Note_off_c, 4, 65, 64
7, 134876, Note_off_c, 4, 60, 64
7, 135120, Note_on_c, 4, 58, 51
7, 135120, Note_on_c, 4, 62, 40
7, 135120, Note_on_c, 4, 53, 52
7, 136316, Note_off_c, 4, 53, 64
7, 136316, Note_off_c, 4, 62, 64
7, 136316, Note_off_c, 4, 58, 64
7, 136320, Note_on_c, 4, 69, 76
7, 136320, Note_on_c, 4, 62, 79
7, 136320, Note_on_c, 4, 60, 55
7, 136320, Note_on_c, 4, 53, 59
7, 137276, Note_off_c, 4, 53, 64
7, 137276, Note_off_c, 4, 60, 64
7, 137276, Note_off_c, 4, 62, 64
7, 137276, Note_off_c, 4, 69, 64
7, 137280, Note_on_c, 4, 62, 45
7, 137280, Note_on_c, 4, 60, 78
7, 137280, Note_on_c, 4, 67, 54
7, 137280, Note_on_c, 4, 55, 41
7, 138236, Note_off_c, 4, 55, 64
7, 138236, Note_off_c, 4, 67, 64
7, 138236, Note_off_c, 4, 60, 64
7, 138236, Note_off_c, 4, 62, 64
7, 138480, Note_on_c, 4, 60, 78
7, 138480, Note_on_c, 4, 62, 73
7, 138480, Note_on_c, 4, 55, 53
7, 138716, Note_off_c, 4, 55, 64
7, 138716, Note_off_c, 4, 62, 64
7, 138716, Note_off_c, 4, 60, 64
7, 138840, Note_on_c, 4, 60, 79
7, 138840, Note_on_c, 4, 62, 74
7, 138840, Note_on_c, 4, 55, 64
7, 139196, Note_off_c, 4, 55, 64
7, 139196, Note_off_c, 4, 62, 64
7, 139196, Note_off_c, 4, 60, 64
7, 139200, Note_on_c, 4, 62, 54
7, 139200, Note_on_c, 4, 57, 56
7, 139200, Note_on_c, 4, 53, 57
7, 140156, Note_off_c, 4, 53, 64
7, 140156, Note_off_c, 4, 57, 64
7, 140156, Note_off_c, 4, 62, 64
7, 140160, Note_on_c, 4, 38, 52
7, 140876, Note_off_c, 4, 38, 64
7, 140880, Note_on_c, 4, 43, 62
7, 140996, Note_off_c, 4, 43, 64
7, 141000, Note_on_c, 4, 45, 52
7, 141236, Note_off_c, 4, 45, 64
7, 141240, Note_on_c, 4, 48, 63
7, 141476, Note_off_c, 4, 48, 64
7, 141480, Note_on_c, 4, 45, 42
7, 141596, Note_off_c, 4, 45, 64
7, 141600, Note_on_c, 4, 50, 43
7, 142076, Note_off_c, 4, 50, 64
7, 142080, Note_on_c, 4, 38, 58
7, 142796, Note_off_c, 4, 38, 64
7, 142800, Note_on_c, 4, 43, 72
7, 142916, Note_off_c, 4, 43, 64
7, 142920, Note_on_c, 4, 45, 73
7, 143156, Note_off_c, 4, 45, 64
7, 143160, Note_on_c, 4, 48, 74
7, 143396, Note_off_c, 4, 48, 64
7, 143400, Note_on_c, 4, 45, 62
7, 143516, Note_off_c, 4, 45, 64
7, 143520, Note_on_c, 4, 50, 69
7, 143996, Note_off_c, 4, 50, 64
7, 144000, Note_on_c, 4, 38, 68
7, 144716, Note_off_c, 4, 38, 64
7, 144720, Note_on_c, 4, 43, 71
7, 144836, Note_off_c, 4, 43, 64
7, 144840, Note_on_c, 4, 45, 54
7, 145076, Note_off_c, 4, 45, 64
7, 145080, Note_on_c, 4, 48, 65
7, 145316, Note_off_c, 4, 48, 64
7, 145320, Note_on_c, 4, 45, 44
7, 145436, Note_off_c, 4, 45, 64
7, 145440, Note_on_c, 4, 50, 66
7, 145916, Note_off_c, 4, 50, 64
7, 145920, Note_on_c, 4, 38, 75
7, 146636, Note_off_c, 4, 38, 64
7, 146640, Note_on_c, 4, 43, 48
7, 146756, Note_off_c, 4, 43, 64
7, 146760, Note_on_c, 4, 45, 41
7, 146996, Note_off_c, 4, 45, 64
7, 147000, Note_on_c, 4, 48, 65
7, 147236, Note_off_c, 4, 48, 64
7, 147240, Note_on_c, 4, 45, 40
7, 147356, Note_off_c, 4, 45, 64
7, 147360, Note_on_c, 4, 50, 50
7, 147836, Note_off_c, 4, 50, 64
7, 147840, Note_on_c, 4, 38, 69
7, 148556, Note_off_c, 4, 38, 64
7, 148560, Note_on_c, 4, 43, 60
7, 148676, Note_off_c, 4, 43, 64
7, 148680, Note_on_c, 4, 45, 76
7, 148916, Note_off_c, 4, 45, 64
7, 148920, Note_on_c, 4, 48, 76
7, 149156, Note_off_c, 4, 48, 64
7, 149160, Note_on_c, 4, 45, 48
7, 149276, Note_off_c, 4, 45, 64
7, 149280, Note_on_c, 4, 50, 51
7, 149756, Note_off_c, 4, 50, 64
7, 149760, Note_on_c, 4, 38, 68
7, 150476, Note_off_c, 4, 38, 64
7, 150480, Note_on_c, 4, 43, 56
7, 150596, Note_off_c, 4, 43, 64
7, 150600, Note_on_c, 4, 45, 75
7, 150836, Note_off_c, 4, 45, 64
7, 150840, Note_on_c, 4, 48, 71
7, 151076, Note_off_c, 4, 48, 64
7, 151080, Note_on_c, 4, 45, 58
7, 151196, Note_off_c, 4, 45, 64
7, 151200, Note_on_c, 4, 50, 61
7, 151676, Note_off_c, 4, 50, 64
7, 151680, Note_on_c, 4, 38, 68
7, 152396, Note_off_c, 4, 38, 64
7, 152400, Note_on_c, 4, 43, 58
7, 152516, Note_off_c, 4, 43, 64
7, 152520, Note_on_c, 4, 45, 72
7, 152756, Note_off_c, 4, 45, 64
7, 152760, Note_on_c, 4, 48, 73
7, 152996, Note_off_c, 4, 48, 64
7, 153000, Note_on_c, 4, 45, 73
7, 153116, Note_off_c, 4, 45, 64
7, 153120, Note_on_c, 4, 50, 50
7, 153596, Note_off_c, 4, 50, 64
7, 153600, Note_on_c, 4, 38, 49
7, 154316, Note_off_c, 4, 38, 64
7, 154320, Note_on_c, 4, 43, 44
7, 154436, Note_off_c, 4, 43, 64
7, 154440, Note_on_c, 4, 45, 41
7, 154676, Note_off_c, 4, 45, 64
7, 154680, Note_on_c, 4, 48, 66
7, 154916, Note_off_c, 4, 48, 64
7, 154920, Note_on_c, 4, 45, 46
7, 155036, Note_off_c, 4, 45, 64
7, 155040, Note_on_c, 4, 50, 77
7, 155516, Note_off_c, 4, 50, 64
7, 155520, Note_on_c, 4, 38, 67
7, 156236, Note_off_c, 4, 38, 64
7, 156240, Note_on_c, 4, 43, 71
7, 156356, Note_off_c, 4, 43, 64
7, 156360, Note_on_c, 4, 45, 52
7, 156596, Note_off_c, 4, 45, 64
7, 156600, Note_on_c, 4, 48, 60
7, 156836, Note_off_c, 4, 48, 64
7, 156840, Note_on_c, 4, 45, 52
7, 156956, Note_off_c, 4, 45, 64
7, 156960, Note_on_c, 4, 50, 68
7, 157436, Note_off_c, 4, 50, 64
7, 157440, Note_on_c, 4, 38, 40
7, 158156, Note_off_c, 4, 38, 64
7, 158160, Note_on_c, 4, 43, 54
7, 158276, Note_off_c, 4, 43, 64
7, 158280, Note_on_c, 4, 45, 76
7, 158516, Note_off_c, 4, 45, 64
7, 158520, Note_on_c, 4, 48, 74
7, 158756, Note_off_c, 4, 48, 64
7, 158760, Note_on_c, 4, 45, 73
7, 158876, Note_off_c, 4, 45, 64
7, 158880, Note_on_c, 4, 50, 52
7, 159356, Note_off_c, 4, 50, 64
7, 159360, Note_on_c, 4, 38, 72
7, 160076, Note_off_c, 4, 38, 64
7, 160080, Note_on_c, 4, 43, 59
7, 160196, Note_off_c, 4, 43, 64
7, 160200, Note_on_c, 4, 45, 53
7, 160436, Note_off_c, 4, 45, 64
7, 160440, Note_on_c, 4, 48, 66
7, 160676, Note_off_c, 4, 48, 64
7, 160680, Note_on_c, 4, 45, 43
7, 160796, Note_off_c, 4, 45, 64
7, 160800, Note_on_c, 4, 50, 52
7, 161276, Note_off_c, 4, 50, 64
7, 161280, Note_on_c, 4, 38, 68
7, 161996, Note_off_c, 4, 38, 64
7, 162000, Note_on_c, 4, 43, 49
7, 162116, Note_off_c, 4, 43, 64
7, 162120, Note_on_c, 4, 45, 67
7, 162356, Note_off_c, 4, 45, 64
7, 162360, Note_on_c, 4, 48, 55
7, 162596, Note_off_c, 4, 48, 64
7, 162600, Note_on_c, 4, 45, 70
7, 162716, Note_off_c, 4, 45, 64
7, 162720, Note_on_c, 4, 50, 76
7, 163196, Note_off_c, 4, 50, 64
7, 163200, Note_on_c, 4, 38, 52
7, 163916, Note_off_c, 4, 38, 64
7, 163920, Note_on_c, 4, 43, 74
7, 164036, Note_off_c, 4, 43, 64
7, 164040, Note_on_c, 4, 45, 41
7, 164276, Note_off_c, 4, 45, 64
7, 164280, Note_on_c, 4, 48, 74
7, 164516, Note_off_c, 4, 48, 64
7, 164520, Note_on_c, 4, 45, 63
7, 164636, Note_off_c, 4, 45, 64
7, 164640, Note_on_c, 4, 50, 44
7, 165116, Note_off_c, 4, 50, 64
7, 165120, Note_on_c, 4, 38, 77
7, 165836, Note_off_c, 4, 38, 64
7, 165840, Note_on_c, 4, 43, 52
7, 165956, Note_off_c, 4, 43, 64
7, 165960, Note_on_c, 4, 45, 46
7, 166196, Note_off_c, 4, 45, 64
7, 166200, Note_on_c, 4, 48, 71
7, 166436, Note_off_c, 4, 48, 64
7, 166440, Note_on_c, 4, 45, 79
7, 166556, Note_off_c, 4, 45, 64
7, 166560, Note_on_c, 4, 50, 46
7, 167036, Note_off_c, 4, 50, 64
7, 167040, Note_on_c, 4, 38, 48
7, 167756, Note_off_c, 4, 38, 64
7, 167760, Note_on_c, 4, 43, 47
7, 167876, Note_off_c, 4, 43, 64
7, 167880, Note_on_c, 4, 45, 52
7, 168116, Note_off_c, 4, 45, 64
7, 168120, Note_on_c, 4, 48, 74
7, 168356, Note_off_c, 4, 48, 64
7, 168360, Note_on_c, 4, 45, 76
7, 168476, Note_off_c, 4, 45, 64
7, 168480, Note_on_c, 4, 50, 61
7, 168956, Note_off_c, 4, 50, 64
7, 168960, Note_on_c, 4, 38, 47
7, 169676, Note_off_c, 4, 38, 64
7, 169680, Note_on_c, 4, 43, 51
7, 169796, Note_off_c, 4, 43, 64
7, 169800, Note_on_c, 4, 45, 40
7, 170036, Note_off_c, 4, 45, 64
7, 170040, Note_on_c, 4, 48, 65
7, 170276, Note_off_c, 4, 48, 64
7, 170280, Note_on_c, 4, 45, 67
7, 170396, Note_off_c, 4, 45, 64
7, 170400, Note_on_c, 4, 50, 76
7, 170876, Note_off_c, 4, 50, 64
7, 170880, Note_on_c, 4, 62, 62
7, 170880, Note_on_c, 4, 58, 56
7, 170880, Note_on_c, 4, 53, 59
7, 171236, Note_off_c, 4, 53, 64
7, 171236, Note_off_c, 4, 58, 64
7, 171236, Note_off_c, 4, 62, 64
7, 171240, Note_on_c, 4, 62, 79
7, 171240, Note_on_c, 4, 58, 71
7, 171240, Note_on_c, 4, 53, 65
7, 171356, Note_off_c, 4, 53, 64
7, 171356, Note_off_c, 4, 58, 64
7, 171356, Note_off_c, 4, 62, 64
7, 171600, Note_on_c, 4, 60, 74
7, 171600, Note_on_c, 4, 64, 74
7, 171600, Note_on_c, 4, 55, 44
7, 172076, Note_off_c, 4, 55, 64
7, 172076, Note_off_c, 4, 64, 64
7, 172076, Note_off_c, 4, 60, 64
7, 173280, Control_c, 4, 91, 0
7, 173280, Control_c, 4, 93, 0
7, 173280, Control_c, 4, 1, 0
7, 173280, Control_c, 4, 0, 0
7, 173280, Control_c, 4, 10, 64
7, 173280, Control_c, 4, 64, 0
7, 173280, Control_c, 4, 7, 127
7, 173280, Pitch_bend_c, 4, 8192
7, 173280, End_track
8, 0, Start_track
8, 0, Title_t, "Brass"
8, 0, MIDI_port, 0
8, 0, Channel_prefix, 5
8, 0, Control_c, 5, 10, 64
8, 20, Control_c, 5, 121, 0
8, 20, Control_c, 5, 0, 0
8, 20, Control_c, 5, 7, 100
8, 20, Control_c, 5, 91, 44
8, 20, Control_c, 5, 93, 0
8, 20, Control_c, 5, 10, 44
8, 20, Control_c, 5, 1, 0
8, 20, Control_c, 5, 64, 0
8, 20, Pitch_bend_c, 5, 8192
8, 588, Program_c, 5, 61
8, 7680, Note_on_c, 5, 67, 78
8, 7680, Note_on_c, 5, 62, 98
8, 8036, Note_off_c, 5, 62, 64
8, 8036, Note_off_c, 5, 67, 64
8, 8040, Note_on_c, 5, 67, 80
8, 8040, Note_on_c, 5, 62, 89
8, 8156, Note_off_c, 5, 62, 64
8, 8156, Note_off_c, 5, 67, 64
8, 11520, Note_on_c, 5, 62, 92
8, 11520, Note_on_c, 5, 67, 80
8, 11876, Note_off_c, 5, 67, 64
8, 11876, Note_off_c, 5, 62, 64
8, 11880, Note_on_c, 5, 62, 95
8, 11880, Note_on_c, 5, 67, 84
8, 11996, Note_off_c, 5, 67, 64
8, 11996, Note_off_c, 5, 62, 64
8, 12360, Note_on_c, 5, 67, 80
8, 12360, Note_on_c, 5, 62, 93
8, 12476, Note_off_c, 5, 62, 64
8, 12476, Note_off_c, 5, 67, 64
8, 12840, Note_on_c, 5, 67, 84
8, 12840, Note_on_c, 5, 62, 89
8, 12956, Note_off_c, 5, 62, 64
8, 12956, Note_off_c, 5, 67, 64
8, 13440, Note_on_c, 5, 62, 100
8, 13796, Note_off_c, 5, 62, 64
8, 13800, Note_on_c, 5, 62, 100
8, 13916, Note_off_c, 5, 62, 64
8, 14640, Note_on_c, 5, 60, 101
8, 14756, Note_off_c, 5, 60, 64
8, 14760, Note_on_c, 5, 62, 89
8, 14876, Note_off_c, 5, 62, 64
8, 15360, Note_on_c, 5, 67, 79
8, 15360, Note_on_c, 5, 64, 88
8, 15476, Note_off_c, 5, 64, 64
8, 15476, Note_off_c, 5, 67, 64
8, 15480, Note_on_c, 5, 67, 78
8, 15480, Note_on_c, 5, 64, 93
8, 15596, Note_off_c, 5, 64, 64
8, 15596, Note_off_c, 5, 67, 64
8, 15600, Note_on_c, 5, 65, 75
8, 15600, Note_on_c, 5, 62, 89
8, 15716, Note_off_c, 5, 62, 64
8, 15716, Note_off_c, 5, 65, 64
8, 15720, Note_on_c, 5, 65, 80
8, 15720, Note_on_c, 5, 62, 92
8, 15836, Note_off_c, 5, 62, 64
8, 15836, Note_off_c, 5, 65, 64
8, 17280, Note_on_c, 5, 67, 79
8, 17280, Note_on_c, 5, 62, 93
8, 17636, Note_off_c, 5, 62, 64
8, 17636, Note_off_c, 5, 67, 64
8, 17640, Note_on_c, 5, 62, 95
8, 17640, Note_on_c, 5, 67, 84
8, 17756, Note_off_c, 5, 67, 64
8, 17756, Note_off_c, 5, 62, 64
8, 19200, Note_on_c, 5, 69, 79
8, 19200, Note_on_c, 5, 62, 89
8, 19556, Note_off_c, 5, 62, 64
8, 19556, Note_off_c, 5, 69, 64
8, 19560, Note_on_c, 5, 69, 83
8, 19560, Note_on_c, 5, 62, 98
8, 19676, Note_off_c, 5, 62, 64
8, 19676, Note_off_c, 5, 69, 64
8, 20160, Note_on_c, 5, 67, 79
8, 20160, Note_on_c, 5, 62, 93
8, 20516, Note_off_c, 5, 62, 64
8, 20516, Note_off_c, 5, 67, 64
8, 20520, Note_on_c, 5, 67, 75
8, 20520, Note_on_c, 5, 62, 93
8, 20636, Note_off_c, 5, 62, 64
8, 20636, Note_off_c, 5, 67, 64
8, 21120, Note_on_c, 5, 62, 95
8, 21120, Note_on_c, 5, 65, 75
8, 21476, Note_off_c, 5, 65, 64
8, 21476, Note_off_c, 5, 62, 64
8, 21480, Note_on_c, 5, 65, 75
8, 21480, Note_on_c, 5, 62, 93
8, 21596, Note_off_c, 5, 62, 64
8, 21596, Note_off_c, 5, 65, 64
8, 22080, Note_on_c, 5, 65, 79
8, 22080, Note_on_c, 5, 62, 95
8, 22436, Note_off_c, 5, 62, 64
8, 22436, Note_off_c, 5, 65, 64
8, 22440, Note_on_c, 5, 65, 80
8, 22440, Note_on_c, 5, 62, 95
8, 22556, Note_off_c, 5, 62, 64
8, 22556, Note_off_c, 5, 65, 64
8, 23040, Note_on_c, 5, 62, 75
8, 23040, Note_on_c, 5, 69, 74
8, 23396, Note_off_c, 5, 69, 64
8, 23396, Note_off_c, 5, 62, 64
8, 23400, Note_on_c, 5, 62, 75
8, 23400, Note_on_c, 5, 69, 64
8, 23516, Note_off_c, 5, 69, 64
8, 23516, Note_off_c, 5, 62, 64
8, 24000, Note_on_c, 5, 67, 74
8, 24000, Note_on_c, 5, 62, 79
8, 24356, Note_off_c, 5, 62, 64
8, 24356, Note_off_c, 5, 67, 64
8, 24360, Note_on_c, 5, 67, 68
8, 24360, Note_on_c, 5, 62, 83
8, 24476, Note_off_c, 5, 62, 64
8, 24476, Note_off_c, 5, 67, 64
8, 24960, Note_on_c, 5, 65, 75
8, 24960, Note_on_c, 5, 62, 79
8, 25316, Note_off_c, 5, 62, 64
8, 25316, Note_off_c, 5, 65, 64
8, 25320, Note_on_c, 5, 65, 72
8, 25320, Note_on_c, 5, 62, 79
8, 25436, Note_off_c, 5, 62, 64
8, 25436, Note_off_c, 5, 65, 64
8, 25920, Note_on_c, 5, 65, 64
8, 25920, Note_on_c, 5, 62, 92
8, 26276, Note_off_c, 5, 62, 64
8, 26276, Note_off_c, 5, 65, 64
8, 26280, Note_on_c, 5, 65, 80
8, 26280, Note_on_c, 5, 62, 93
8, 26396, Note_off_c, 5, 62, 64
8, 26396, Note_off_c, 5, 65, 64
8, 26880, Note_on_c, 5, 69, 78
8, 26880, Note_on_c, 5, 62, 89
8, 27236, Note_off_c, 5, 62, 64
8, 27236, Note_off_c, 5, 69, 64
8, 27240, Note_on_c, 5, 69, 78
8, 27240, Note_on_c, 5, 62, 89
8, 27356, Note_off_c, 5, 62, 64
8, 27356, Note_off_c, 5, 69, 64
8, 27840, Note_on_c, 5, 67, 83
8, 27840, Note_on_c, 5, 62, 89
8, 28196, Note_off_c, 5, 62, 64
8, 28196, Note_off_c, 5, 67, 64
8, 28200, Note_on_c, 5, 67, 68
8, 28200, Note_on_c, 5, 62, 95
8, 28316, Note_off_c, 5, 62, 64
8, 28316, Note_off_c, 5, 67, 64
8, 28800, Note_on_c, 5, 65, 74
8, 28800, Note_on_c, 5, 62, 93
8, 29156, Note_off_c, 5, 62, 64
8, 29156, Note_off_c, 5, 65, 64
8, 29160, Note_on_c, 5, 65, 75
8, 29160, Note_on_c, 5, 62, 89
8, 29276, Note_off_c, 5, 62, 64
8, 29276, Note_off_c, 5, 65, 64
8, 29520, Note_on_c, 5, 67, 79
8, 29520, Note_on_c, 5, 62, 93
8, 30476, Note_off_c, 5, 62, 64
8, 30476, Note_off_c, 5, 67, 64
8, 30720, Note_on_c, 5, 62, 75
8, 30720, Note_on_c, 5, 69, 74
8, 31076, Note_off_c, 5, 69, 64
8, 31076, Note_off_c, 5, 62, 64
8, 31080, Note_on_c, 5, 62, 75
8, 31080, Note_on_c, 5, 69, 64
8, 31196, Note_off_c, 5, 69, 64
8, 31196, Note_off_c, 5, 62, 64
8, 31680, Note_on_c, 5, 67, 74
8, 31680, Note_on_c, 5, 62, 79
8, 32036, Note_off_c, 5, 62, 64
8, 32036, Note_off_c, 5, 67, 64
8, 32040, Note_on_c, 5, 67, 68
8, 32040, Note_on_c, 5, 62, 83
8, 32156, Note_off_c, 5, 62, 64
8, 32156, Note_off_c, 5, 67, 64
8, 32640, Note_on_c, 5, 65, 75
8, 32640, Note_on_c, 5, 62, 79
8, 32996, Note_off_c, 5, 62, 64
8, 32996, Note_off_c, 5, 65, 64
8, 33000, Note_on_c, 5, 65, 72
8, 33000, Note_on_c, 5, 62, 79
8, 33116, Note_off_c, 5, 62, 64
8, 33116, Note_off_c, 5, 65, 64
8, 33600, Note_on_c, 5, 65, 64
8, 33600, Note_on_c, 5, 62, 92
8, 33956, Note_off_c, 5, 62, 64
8, 33956, Note_off_c, 5, 65, 64
8, 33960, Note_on_c, 5, 65, 80
8, 33960, Note_on_c, 5, 62, 93
8, 34076, Note_off_c, 5, 62, 64
8, 34076, Note_off_c, 5, 65, 64
8, 34560, Note_on_c, 5, 69, 78
8, 34560, Note_on_c, 5, 62, 89
8, 34916, Note_off_c, 5, 62, 64
8, 34916, Note_off_c, 5, 69, 64
8, 34920, Note_on_c, 5, 69, 78
8, 34920, Note_on_c, 5, 62, 89
8, 35036, Note_off_c, 5, 62, 64
8, 35036, Note_off_c, 5, 69, 64
8, 35520, Note_on_c, 5, 67, 83
8, 35520, Note_on_c, 5, 62, 89
8, 35876, Note_off_c, 5, 62, 64
8, 35876, Note_off_c, 5, 67, 64
8, 35880, Note_on_c, 5, 67, 68
8, 35880, Note_on_c, 5, 62, 95
8, 35996, Note_off_c, 5, 62, 64
8, 35996, Note_off_c, 5, 67, 64
8, 36480, Note_on_c, 5, 67, 74
8, 36480, Note_on_c, 5, 62, 89
8, 36836, Note_off_c, 5, 62, 64
8, 36836, Note_off_c, 5, 67, 64
8, 36840, Note_on_c, 5, 67, 83
8, 36840, Note_on_c, 5, 62, 92
8, 36956, Note_off_c, 5, 62, 64
8, 36956, Note_off_c, 5, 67, 64
8, 48000, Note_on_c, 5, 62, 89
8, 48000, Note_on_c, 5, 69, 74
8, 48356, Note_off_c, 5, 69, 64
8, 48356, Note_off_c, 5, 62, 64
8, 48360, Note_on_c, 5, 69, 79
8, 48360, Note_on_c, 5, 62, 89
8, 48476, Note_off_c, 5, 62, 64
8, 48476, Note_off_c, 5, 69, 64
8, 48960, Note_on_c, 5, 67, 83
8, 48960, Note_on_c, 5, 62, 89
8, 49316, Note_off_c, 5, 62, 64
8, 49316, Note_off_c, 5, 67, 64
8, 49320, Note_on_c, 5, 67, 83
8, 49320, Note_on_c, 5, 62, 89
8, 49436, Note_off_c, 5, 62, 64
8, 49436, Note_off_c, 5, 67, 64
8, 49920, Note_on_c, 5, 65, 79
8, 49920, Note_on_c, 5, 62, 93
8, 50276, Note_off_c, 5, 62, 64
8, 50276, Note_off_c, 5, 65, 64
8, 50280, Note_on_c, 5, 65, 78
8, 50280, Note_on_c, 5, 62, 92
8, 50396, Note_off_c, 5, 62, 64
8, 50396, Note_off_c, 5, 65, 64
8, 50880, Note_on_c, 5, 65, 79
8, 50880, Note_on_c, 5, 62, 93
8, 51236, Note_off_c, 5, 62, 64
8, 51236, Note_off_c, 5, 65, 64
8, 51240, Note_on_c, 5, 65, 80
8, 51240, Note_on_c, 5, 62, 93
8, 51356, Note_off_c, 5, 62, 64
8, 51356, Note_off_c, 5, 65, 64
8, 51840, Note_on_c, 5, 62, 89
8, 51840, Note_on_c, 5, 69, 75
8, 52196, Note_off_c, 5, 69, 64
8, 52196, Note_off_c, 5, 62, 64
8, 52200, Note_on_c, 5, 69, 79
8, 52200, Note_on_c, 5, 62, 92
8, 52316, Note_off_c, 5, 62, 64
8, 52316, Note_off_c, 5, 69, 64
8, 52800, Note_on_c, 5, 67, 84
8, 52800, Note_on_c, 5, 62, 95
8, 53156, Note_off_c, 5, 62, 64
8, 53156, Note_off_c, 5, 67, 64
8, 53160, Note_on_c, 5, 67, 84
8, 53160, Note_on_c, 5, 62, 95
8, 53276, Note_off_c, 5, 62, 64
8, 53276, Note_off_c, 5, 67, 64
8, 53760, Note_on_c, 5, 65, 80
8, 53760, Note_on_c, 5, 62, 98
8, 54116, Note_off_c, 5, 62, 64
8, 54116, Note_off_c, 5, 65, 64
8, 54120, Note_on_c, 5, 65, 80
8, 54120, Note_on_c, 5, 62, 98
8, 54236, Note_off_c, 5, 62, 64
8, 54236, Note_off_c, 5, 65, 64
8, 54480, Note_on_c, 5, 67, 79
8, 54480, Note_on_c, 5, 62, 92
8, 55436, Note_off_c, 5, 62, 64
8, 55436, Note_off_c, 5, 67, 64
8, 55680, Note_on_c, 5, 69, 79
8, 55680, Note_on_c, 5, 62, 89
8, 56036, Note_off_c, 5, 62, 64
8, 56036, Note_off_c, 5, 69, 64
8, 56040, Note_on_c, 5, 62, 98
8, 56040, Note_on_c, 5, 69, 84
8, 56156, Note_off_c, 5, 69, 64
8, 56156, Note_off_c, 5, 62, 64
8, 56640, Note_on_c, 5, 67, 78
8, 56640, Note_on_c, 5, 62, 89
8, 56996, Note_off_c, 5, 62, 64
8, 56996, Note_off_c, 5, 67, 64
8, 57000, Note_on_c, 5, 67, 80
8, 57000, Note_on_c, 5, 62, 95
8, 57116, Note_off_c, 5, 62, 64
8, 57116, Note_off_c, 5, 67, 64
8, 57600, Note_on_c, 5, 65, 76
8, 57600, Note_on_c, 5, 62, 95
8, 57956, Note_off_c, 5, 62, 64
8, 57956, Note_off_c, 5, 65, 64
8, 57960, Note_on_c, 5, 62, 85
8, 57960, Note_on_c, 5, 65, 75
8, 58076, Note_off_c, 5, 65, 64
8, 58076, Note_off_c, 5, 62, 64
8, 58560, Note_on_c, 5, 65, 75
8, 58560, Note_on_c, 5, 62, 79
8, 58916, Note_off_c, 5, 62, 64
8, 58916, Note_off_c, 5, 65, 64
8, 58920, Note_on_c, 5, 65, 75
8, 58920, Note_on_c, 5, 62, 80
8, 59036, Note_off_c, 5, 62, 64
8, 59036, Note_off_c, 5, 65, 64
8, 59520, Note_on_c, 5, 62, 79
8, 59520, Note_on_c, 5, 69, 72
8, 59876, Note_off_c, 5, 69, 64
8, 59876, Note_off_c, 5, 62, 64
8, 59880, Note_on_c, 5, 69, 72
8, 59880, Note_on_c, 5, 62, 75
8, 59996, Note_off_c, 5, 62, 64
8, 59996, Note_off_c, 5, 69, 64
8, 60480, Note_on_c, 5, 67, 75
8, 60480, Note_on_c, 5, 62, 79
8, 60836, Note_off_c, 5, 62, 64
8, 60836, Note_off_c, 5, 67, 64
8, 60840, Note_on_c, 5, 67, 68
8, 60840, Note_on_c, 5, 62, 74
8, 60956, Note_off_c, 5, 62, 64
8, 60956, Note_off_c, 5, 67, 64
8, 65280, Note_on_c, 5, 67, 71
8, 65280, Note_on_c, 5, 62, 68
8, 65636, Note_off_c, 5, 62, 64
8, 65636, Note_off_c, 5, 67, 64
8, 65640, Note_on_c, 5, 67, 72
8, 65640, Note_on_c, 5, 62, 78
8, 65756, Note_off_c, 5, 62, 64
8, 65756, Note_off_c, 5, 67, 64
8, 66120, Note_on_c, 5, 67, 76
8, 66120, Note_on_c, 5, 62, 98
8, 66236, Note_off_c, 5, 62, 64
8, 66236, Note_off_c, 5, 67, 64
8, 66600, Note_on_c, 5, 67, 72
8, 66600, Note_on_c, 5, 62, 85
8, 66716, Note_off_c, 5, 62, 64
8, 66716, Note_off_c, 5, 67, 64
8, 67200, Note_on_c, 5, 67, 67
8, 67200, Note_on_c, 5, 62, 93
8, 67556, Note_off_c, 5, 62, 64
8, 67556, Note_off_c, 5, 67, 64
8, 67560, Note_on_c, 5, 67, 79
8, 67560, Note_on_c, 5, 62, 95
8, 67676, Note_off_c, 5, 62, 64
8, 67676, Note_off_c, 5, 67, 64
8, 68040, Note_on_c, 5, 67, 80
8, 68040, Note_on_c, 5, 62, 98
8, 68156, Note_off_c, 5, 62, 64
8, 68156, Note_off_c, 5, 67, 64
8, 68520, Note_on_c, 5, 67, 80
8, 68520, Note_on_c, 5, 62, 98
8, 68636, Note_off_c, 5, 62, 64
8, 68636, Note_off_c, 5, 67, 64
8, 69120, Note_on_c, 5, 69, 75
8, 69120, Note_on_c, 5, 62, 89
8, 69476, Note_off_c, 5, 62, 64
8, 69476, Note_off_c, 5, 69, 64
8, 69480, Note_on_c, 5, 69, 76
8, 69480, Note_on_c, 5, 62, 95
8, 69596, Note_off_c, 5, 62, 64
8, 69596, Note_off_c, 5, 69, 64
8, 70080, Note_on_c, 5, 67, 75
8, 70080, Note_on_c, 5, 62, 89
8, 70436, Note_off_c, 5, 62, 64
8, 70436, Note_off_c, 5, 67, 64
8, 70440, Note_on_c, 5, 67, 83
8, 70440, Note_on_c, 5, 62, 89
8, 70556, Note_off_c, 5, 62, 64
8, 70556, Note_off_c, 5, 67, 64
8, 71040, Note_on_c, 5, 65, 78
8, 71040, Note_on_c, 5, 62, 89
8, 71396, Note_off_c, 5, 62, 64
8, 71396, Note_off_c, 5, 65, 64
8, 71400, Note_on_c, 5, 65, 83
8, 71400, Note_on_c, 5, 62, 100
8, 71516, Note_off_c, 5, 62, 64
8, 71516, Note_off_c, 5, 65, 64
8, 72000, Note_on_c, 5, 65, 76
8, 72000, Note_on_c, 5, 62, 93
8, 72356, Note_off_c, 5, 62, 64
8, 72356, Note_off_c, 5, 65, 64
8, 72360, Note_on_c, 5, 65, 75
8, 72360, Note_on_c, 5, 62, 89
8, 72476, Note_off_c, 5, 62, 64
8, 72476, Note_off_c, 5, 65, 64
8, 72960, Note_on_c, 5, 69, 75
8, 72960, Note_on_c, 5, 62, 92
8, 73316, Note_off_c, 5, 62, 64
8, 73316, Note_off_c, 5, 69, 64
8, 73320, Note_on_c, 5, 69, 68
8, 73320, Note_on_c, 5, 62, 92
8, 73436, Note_off_c, 5, 62, 64
8, 73436, Note_off_c, 5, 69, 64
8, 73920, Note_on_c, 5, 67, 76
8, 73920, Note_on_c, 5, 62, 93
8, 74276, Note_off_c, 5, 62, 64
8, 74276, Note_off_c, 5, 67, 64
8, 74280, Note_on_c, 5, 67, 75
8, 74280, Note_on_c, 5, 62, 95
8, 74396, Note_off_c, 5, 62, 64
8, 74396, Note_off_c, 5, 67, 64
8, 74880, Note_on_c, 5, 65, 80
8, 74880, Note_on_c, 5, 62, 93
8, 75236, Note_off_c, 5, 62, 64
8, 75236, Note_off_c, 5, 65, 64
8, 75240, Note_on_c, 5, 65, 72
8, 75240, Note_on_c, 5, 62, 95
8, 75356, Note_off_c, 5, 62, 64
8, 75356, Note_off_c, 5, 65, 64
8, 75840, Note_on_c, 5, 65, 67
8, 75840, Note_on_c, 5, 62, 95
8, 76196, Note_off_c, 5, 62, 64
8, 76196, Note_off_c, 5, 65, 64
8, 76200, Note_on_c, 5, 65, 68
8, 76200, Note_on_c, 5, 62, 92
8, 76316, Note_off_c, 5, 62, 64
8, 76316, Note_off_c, 5, 65, 64
8, 76800, Note_on_c, 5, 69, 78
8, 76800, Note_on_c, 5, 62, 92
8, 77156, Note_off_c, 5, 62, 64
8, 77156, Note_off_c, 5, 69, 64
8, 77160, Note_on_c, 5, 69, 72
8, 77160, Note_on_c, 5, 62, 93
8, 77276, Note_off_c, 5, 62, 64
8, 77276, Note_off_c, 5, 69, 64
8, 77760, Note_on_c, 5, 67, 78
8, 77760, Note_on_c, 5, 62, 95
8, 78116, Note_off_c, 5, 62, 64
8, 78116, Note_off_c, 5, 67, 64
8, 78120, Note_on_c, 5, 67, 68
8, 78120, Note_on_c, 5, 62, 89
8, 78236, Note_off_c, 5, 62, 64
8, 78236, Note_off_c, 5, 67, 64
8, 78720, Note_on_c, 5, 65, 71
8, 78720, Note_on_c, 5, 62, 93
8, 79076, Note_off_c, 5, 62, 64
8, 79076, Note_off_c, 5, 65, 64
8, 79080, Note_on_c, 5, 65, 65
8, 79080, Note_on_c, 5, 62, 93
8, 79196, Note_off_c, 5, 62, 64
8, 79196, Note_off_c, 5, 65, 64
8, 79440, Note_on_c, 5, 67, 78
8, 79440, Note_on_c, 5, 62, 93
8, 80396, Note_off_c, 5, 62, 64
8, 80396, Note_off_c, 5, 67, 64
8, 80640, Note_on_c, 5, 69, 76
8, 80640, Note_on_c, 5, 62, 85
8, 80996, Note_off_c, 5, 62, 64
8, 80996, Note_off_c, 5, 69, 64
8, 81000, Note_on_c, 5, 62, 88
8, 81000, Note_on_c, 5, 69, 71
8, 81116, Note_off_c, 5, 69, 64
8, 81116, Note_off_c, 5, 62, 64
8, 81600, Note_on_c, 5, 67, 75
8, 81600, Note_on_c, 5, 62, 85
8, 81956, Note_off_c, 5, 62, 64
8, 81956, Note_off_c, 5, 67, 64
8, 81960, Note_on_c, 5, 67, 71
8, 81960, Note_on_c, 5, 62, 89
8, 82076, Note_off_c, 5, 62, 64
8, 82076, Note_off_c, 5, 67, 64
8, 82560, Note_on_c, 5, 65, 84
8, 82560, Note_on_c, 5, 62, 93
8, 82916, Note_off_c, 5, 62, 64
8, 82916, Note_off_c, 5, 65, 64
8, 82920, Note_on_c, 5, 65, 89
8, 82920, Note_on_c, 5, 62, 95
8, 83036, Note_off_c, 5, 62, 64
8, 83036, Note_off_c, 5, 65, 64
8, 83520, Note_on_c, 5, 62, 98
8, 83520, Note_on_c, 5, 65, 89
8, 83876, Note_off_c, 5, 65, 64
8, 83876, Note_off_c, 5, 62, 64
8, 83880, Note_on_c, 5, 65, 80
8, 83880, Note_on_c, 5, 62, 95
8, 83996, Note_off_c, 5, 62, 64
8, 83996, Note_off_c, 5, 65, 64
8, 84480, Note_on_c, 5, 69, 79
8, 84480, Note_on_c, 5, 62, 95
8, 84836, Note_off_c, 5, 62, 64
8, 84836, Note_off_c, 5, 69, 64
8, 84840, Note_on_c, 5, 69, 75
8, 84840, Note_on_c, 5, 62, 92
8, 84956, Note_off_c, 5, 62, 64
8, 84956, Note_off_c, 5, 69, 64
8, 85440, Note_on_c, 5, 67, 64
8, 85440, Note_on_c, 5, 62, 89
8, 85600, Note_on_c, 5, 67, 68
8, 85600, Note_on_c, 5, 62, 100
8, 85716, Note_off_c, 5, 62, 64
8, 85716, Note_off_c, 5, 67, 64
8, 85796, Note_off_c, 5, 67, 64
8, 85796, Note_off_c, 5, 62, 64
8, 88320, Note_on_c, 5, 62, 100
8, 88556, Note_off_c, 5, 62, 64
8, 88560, Note_on_c, 5, 62, 95
8, 88796, Note_off_c, 5, 62, 64
8, 90240, Note_on_c, 5, 67, 76
8, 90240, Note_on_c, 5, 62, 89
8, 90476, Note_off_c, 5, 62, 64
8, 90476, Note_off_c, 5, 67, 64
8, 90480, Note_on_c, 5, 67, 79
8, 90480, Note_on_c, 5, 62, 93
8, 90716, Note_off_c, 5, 62, 64
8, 90716, Note_off_c, 5, 67, 64
8, 92160, Note_on_c, 5, 67, 71
8, 92160, Note_on_c, 5, 62, 89
8, 92396, Note_off_c, 5, 62, 64
8, 92396, Note_off_c, 5, 67, 64
8, 92400, Note_on_c, 5, 67, 79
8, 92400, Note_on_c, 5, 62, 89
8, 92516, Note_off_c, 5, 62, 64
8, 92516, Note_off_c, 5, 67, 64
8, 92520, Note_on_c, 5, 62, 89
8, 92520, Note_on_c, 5, 67, 78
8, 92636, Note_off_c, 5, 67, 64
8, 92636, Note_off_c, 5, 62, 64
8, 92880, Note_on_c, 5, 67, 79
8, 92880, Note_on_c, 5, 62, 89
8, 92996, Note_off_c, 5, 62, 64
8, 92996, Note_off_c, 5, 67, 64
8, 93000, Note_on_c, 5, 62, 89
8, 93000, Note_on_c, 5, 67, 79
8, 93116, Note_off_c, 5, 67, 64
8, 93116, Note_off_c, 5, 62, 64
8, 93360, Note_on_c, 5, 67, 75
8, 93360, Note_on_c, 5, 62, 89
8, 93476, Note_off_c, 5, 62, 64
8, 93476, Note_off_c, 5, 67, 64
8, 93480, Note_on_c, 5, 67, 79
8, 93480, Note_on_c, 5, 62, 93
8, 93596, Note_off_c, 5, 62, 64
8, 93596, Note_off_c, 5, 67, 64
8, 140160, Note_on_c, 5, 62, 100
8, 140396, Note_off_c, 5, 62, 64
8, 140400, Note_on_c, 5, 62, 95
8, 140636, Note_off_c, 5, 62, 64
8, 142080, Note_on_c, 5, 62, 95
8, 142316, Note_off_c, 5, 62, 64
8, 142320, Note_on_c, 5, 62, 95
8, 142556, Note_off_c, 5, 62, 64
8, 144000, Note_on_c, 5, 62, 89
8, 144000, Note_on_c, 5, 67, 79
8, 144236, Note_off_c, 5, 67, 64
8, 144236, Note_off_c, 5, 62, 64
8, 144240, Note_on_c, 5, 62, 84
8, 144240, Note_on_c, 5, 67, 75
8, 144476, Note_off_c, 5, 67, 64
8, 144476, Note_off_c, 5, 62, 64
8, 145920, Note_on_c, 5, 62, 95
8, 146156, Note_off_c, 5, 62, 64
8, 146160, Note_on_c, 5, 62, 95
8, 146396, Note_off_c, 5, 62, 64
8, 170880, Note_on_c, 5, 74, 68
8, 170880, Note_on_c, 5, 70, 77
8, 170880, Note_on_c, 5, 65, 84
8, 171236, Note_off_c, 5, 65, 64
8, 171236, Note_off_c, 5, 70, 64
8, 171236, Note_off_c, 5, 74, 64
8, 171240, Note_on_c, 5, 74, 72
8, 171240, Note_on_c, 5, 70, 71
8, 171240, Note_on_c, 5, 65, 80
8, 171356, Note_off_c, 5, 65, 64
8, 171356, Note_off_c, 5, 70, 64
8, 171356, Note_off_c, 5, 74, 64
8, 171600, Note_on_c, 5, 72, 71
8, 171600, Note_on_c, 5, 76, 75
8, 171600, Note_on_c, 5, 67, 72
8, 172076, Note_off_c, 5, 67, 64
8, 172076, Note_off_c, 5, 76, 64
8, 172076, Note_off_c, 5, 72, 64
8, 173280, Control_c, 5, 91, 0
8, 173280, Control_c, 5, 93, 0
8, 173280, Control_c, 5, 1, 0
8, 173280, Control_c, 5, 0, 0
8, 173280, Control_c, 5, 10, 64
8, 173280, Control_c, 5, 64, 0
8, 173280, Control_c, 5, 7, 127
8, 173280, Pitch_bend_c, 5, 8192
8, 173280, End_track
9, 0, Start_track
9, 0, Title_t, "Clavinet"
9, 0, MIDI_port, 0
9, 0, Channel_prefix, 10
9, 0, Control_c, 10, 10, 64
9, 20, Control_c, 10, 121, 0
9, 20, Control_c, 10, 0, 0
9, 20, Control_c, 10, 7, 100
9, 20, Control_c, 10, 91, 54
9, 20, Control_c, 10, 93, 77
9, 20, Control_c, 10, 10, 104
9, 20, Control_c, 10, 1, 0
9, 20, Control_c, 10, 64, 0
9, 20, Pitch_bend_c, 10, 8192
9, 688, Program_c, 10, 7
9, 147600, Note_on_c, 10, 65, 61
9, 147600, Note_on_c, 10, 62, 78
9, 147716, Note_off_c, 10, 62, 64
9, 147716, Note_off_c, 10, 65, 64
9, 147720, Note_on_c, 10, 65, 72
9, 147720, Note_on_c, 10, 62, 68
9, 147836, Note_off_c, 10, 62, 64
9, 147836, Note_off_c, 10, 65, 64
9, 147840, Note_on_c, 10, 64, 61
9, 147840, Note_on_c, 10, 67, 69
9, 147956, Note_off_c, 10, 67, 64
9, 147956, Note_off_c, 10, 64, 64
9, 147960, Note_on_c, 10, 67, 81
9, 147960, Note_on_c, 10, 64, 73
9, 148076, Note_off_c, 10, 64, 64
9, 148076, Note_off_c, 10, 67, 64
9, 148080, Note_on_c, 10, 65, 64
9, 148080, Note_on_c, 10, 62, 78
9, 148196, Note_off_c, 10, 62, 64
9, 148196, Note_off_c, 10, 65, 64
9, 148200, Note_on_c, 10, 65, 81
9, 148200, Note_on_c, 10, 62, 84
9, 148316, Note_off_c, 10, 62, 64
9, 148316, Note_off_c, 10, 65, 64
9, 155280, Note_on_c, 10, 65, 63
9, 155280, Note_on_c, 10, 62, 81
9, 155396, Note_off_c, 10, 62, 64
9, 155396, Note_off_c, 10, 65, 64
9, 155400, Note_on_c, 10, 65, 85
9, 155400, Note_on_c, 10, 62, 84
9, 155516, Note_off_c, 10, 62, 64
9, 155516, Note_off_c, 10, 65, 64
9, 155520, Note_on_c, 10, 64, 65
9, 155520, Note_on_c, 10, 67, 81
9, 155636, Note_off_c, 10, 67, 64
9, 155636, Note_off_c, 10, 64, 64
9, 155640, Note_on_c, 10, 64, 73
9, 155640, Note_on_c, 10, 67, 60
9, 155756, Note_off_c, 10, 67, 64
9, 155756, Note_off_c, 10, 64, 64
9, 155760, Note_on_c, 10, 65, 60
9, 155760, Note_on_c, 10, 62, 79
9, 155876, Note_off_c, 10, 62, 64
9, 155876, Note_off_c, 10, 65, 64
9, 155880, Note_on_c, 10, 65, 72
9, 155880, Note_on_c, 10, 62, 76
9, 155996, Note_off_c, 10, 62, 64
9, 155996, Note_off_c, 10, 65, 64
9, 159120, Note_on_c, 10, 65, 84
9, 159120, Note_on_c, 10, 62, 83
9, 159236, Note_off_c, 10, 62, 64
9, 159236, Note_off_c, 10, 65, 64
9, 159240, Note_on_c, 10, 65, 77
9, 159240, Note_on_c, 10, 62, 67
9, 159356, Note_off_c, 10, 62, 64
9, 159356, Note_off_c, 10, 65, 64
9, 159360, Note_on_c, 10, 67, 78
9, 159360, Note_on_c, 10, 64, 64
9, 159476, Note_off_c, 10, 64, 64
9, 159476, Note_off_c, 10, 67, 64
9, 159480, Note_on_c, 10, 64, 63
9, 159480, Note_on_c, 10, 67, 76
9, 159596, Note_off_c, 10, 67, 64
9, 159596, Note_off_c, 10, 64, 64
9, 159600, Note_on_c, 10, 62, 81
9, 159600, Note_on_c, 10, 65, 60
9, 159716, Note_off_c, 10, 65, 64
9, 159716, Note_off_c, 10, 62, 64
9, 159720, Note_on_c, 10, 65, 82
9, 159720, Note_on_c, 10, 62, 73
9, 159836, Note_off_c, 10, 62, 64
9, 159836, Note_off_c, 10, 65, 64
9, 162960, Note_on_c, 10, 65, 89
9, 162960, Note_on_c, 10, 62, 73
9, 162960, Note_on_c, 10, 60, 82
9, 163076, Note_off_c, 10, 60, 64
9, 163076, Note_off_c, 10, 62, 64
9, 163076, Note_off_c, 10, 65, 64
9, 163080, Note_on_c, 10, 65, 62
9, 163080, Note_on_c, 10, 62, 88
9, 163196, Note_off_c, 10, 62, 64
9, 163196, Note_off_c, 10, 65, 64
9, 163200, Note_on_c, 10, 67, 74
9, 163200, Note_on_c, 10, 64, 65
9, 163316, Note_off_c, 10, 64, 64
9, 163316, Note_off_c, 10, 67, 64
9, 163320, Note_on_c, 10, 64, 78
9, 163320, Note_on_c, 10, 67, 61
9, 163436, Note_off_c, 10, 67, 64
9, 163436, Note_off_c, 10, 64, 64
9, 163440, Note_on_c, 10, 65, 75
9, 163440, Note_on_c, 10, 62, 61
9, 163556, Note_off_c, 10, 62, 64
9, 163556, Note_off_c, 10, 65, 64
9, 163560, Note_on_c, 10, 65, 66
9, 163560, Note_on_c, 10, 62, 89
9, 163676, Note_off_c, 10, 62, 64
9, 163676, Note_off_c, 10, 65, 64
9, 166800, Note_on_c, 10, 62, 87
9, 166800, Note_on_c, 10, 65, 62
9, 166916, Note_off_c, 10, 65, 64
9, 166916, Note_off_c, 10, 62, 64
9, 166920, Note_on_c, 10, 65, 72
9, 166920, Note_on_c, 10, 62, 67
9, 167036, Note_off_c, 10, 62, 64
9, 167036, Note_off_c, 10, 65, 64
9, 167040, Note_on_c, 10, 67, 79
9, 167040, Note_on_c, 10, 64, 87
9, 167156, Note_off_c, 10, 64, 64
9, 167156, Note_off_c, 10, 67, 64
9, 167160, Note_on_c, 10, 64, 81
9, 167160, Note_on_c, 10, 67, 86
9, 167276, Note_off_c, 10, 67, 64
9, 167276, Note_off_c, 10, 64, 64
9, 167280, Note_on_c, 10, 62, 63
9, 167280, Note_on_c, 10, 65, 70
9, 167396, Note_off_c, 10, 65, 64
9, 167396, Note_off_c, 10, 62, 64
9, 167400, Note_on_c, 10, 62, 86
9, 167400, Note_on_c, 10, 65, 63
9, 167516, Note_off_c, 10, 65, 64
9, 167516, Note_off_c, 10, 62, 64
9, 170640, Note_on_c, 10, 62, 64
9, 170640, Note_on_c, 10, 65, 73
9, 170756, Note_off_c, 10, 65, 64
9, 170756, Note_off_c, 10, 62, 64
9, 170760, Note_on_c, 10, 65, 72
9, 170760, Note_on_c, 10, 62, 67
9, 170876, Note_off_c, 10, 62, 64
9, 170876, Note_off_c, 10, 65, 64
9, 173280, Control_c, 10, 91, 0
9, 173280, Control_c, 10, 93, 0
9, 173280, Control_c, 10, 1, 0
9, 173280, Control_c, 10, 0, 0
9, 173280, Control_c, 10, 10, 64
9, 173280, Control_c, 10, 64, 0
9, 173280, Control_c, 10, 7, 127
9, 173280, Pitch_bend_c, 10, 8192
9, 173280, End_track
10, 0, Start_track
10, 0, Title_t, "Organ"
10, 0, MIDI_port, 0
10, 0, Channel_prefix, 6
10, 0, Control_c, 6, 10, 64
10, 20, Control_c, 6, 121, 0
10, 20, Control_c, 6, 0, 0
10, 20, Control_c, 6, 7, 80
10, 20, Control_c, 6, 91, 0
10, 20, Control_c, 6, 93, 121
10, 20, Control_c, 6, 10, 34
10, 20, Control_c, 6, 1, 0
10, 20, Control_c, 6, 64, 0
10, 20, Pitch_bend_c, 6, 8192
10, 608, Program_c, 6, 16
10, 3840, Note_on_c, 6, 50, 86
10, 4556, Note_off_c, 6, 50, 64
10, 4560, Note_on_c, 6, 55, 71
10, 4676, Note_off_c, 6, 55, 64
10, 4680, Note_on_c, 6, 57, 64
10, 4916, Note_off_c, 6, 57, 64
10, 4920, Note_on_c, 6, 60, 85
10, 5156, Note_off_c, 6, 60, 64
10, 5160, Note_on_c, 6, 57, 64
10, 5276, Note_off_c, 6, 57, 64
10, 5280, Note_on_c, 6, 62, 71
10, 5756, Note_off_c, 6, 62, 64
10, 5760, Note_on_c, 6, 50, 86
10, 6476, Note_off_c, 6, 50, 64
10, 6480, Note_on_c, 6, 55, 81
10, 6596, Note_off_c, 6, 55, 64
10, 6600, Note_on_c, 6, 57, 70
10, 6836, Note_off_c, 6, 57, 64
10, 6840, Note_on_c, 6, 60, 67
10, 7076, Note_off_c, 6, 60, 64
10, 7080, Note_on_c, 6, 57, 79
10, 7196, Note_off_c, 6, 57, 64
10, 7200, Note_on_c, 6, 62, 67
10, 7676, Note_off_c, 6, 62, 64
10, 7680, Note_on_c, 6, 50, 76
10, 8396, Note_off_c, 6, 50, 64
10, 8400, Note_on_c, 6, 55, 75
10, 8516, Note_off_c, 6, 55, 64
10, 8520, Note_on_c, 6, 57, 67
10, 8756, Note_off_c, 6, 57, 64
10, 8760, Note_on_c, 6, 60, 76
10, 8996, Note_off_c, 6, 60, 64
10, 9000, Note_on_c, 6, 57, 76
10, 9116, Note_off_c, 6, 57, 64
10, 9120, Note_on_c, 6, 62, 82
10, 9596, Note_off_c, 6, 62, 64
10, 9600, Note_on_c, 6, 50, 71
10, 10316, Note_off_c, 6, 50, 64
10, 10320, Note_on_c, 6, 55, 79
10, 10436, Note_off_c, 6, 55, 64
10, 10440, Note_on_c, 6, 57, 79
10, 10676, Note_off_c, 6, 57, 64
10, 10680, Note_on_c, 6, 60, 80
10, 10916, Note_off_c, 6, 60, 64
10, 10920, Note_on_c, 6, 57, 71
10, 11036, Note_off_c, 6, 57, 64
10, 11040, Note_on_c, 6, 62, 71
10, 11516, Note_off_c, 6, 62, 64
10, 11520, Note_on_c, 6, 50, 75
10, 12236, Note_off_c, 6, 50, 64
10, 12240, Note_on_c, 6, 55, 64
10, 12356, Note_off_c, 6, 55, 64
10, 12360, Note_on_c, 6, 57, 86
10, 12596, Note_off_c, 6, 57, 64
10, 12600, Note_on_c, 6, 60, 75
10, 12836, Note_off_c, 6, 60, 64
10, 12840, Note_on_c, 6, 57, 88
10, 12956, Note_off_c, 6, 57, 64
10, 12960, Note_on_c, 6, 62, 72
10, 13436, Note_off_c, 6, 62, 64
10, 13440, Note_on_c, 6, 50, 64
10, 14156, Note_off_c, 6, 50, 64
10, 14160, Note_on_c, 6, 55, 78
10, 14276, Note_off_c, 6, 55, 64
10, 14280, Note_on_c, 6, 57, 71
10, 14516, Note_off_c, 6, 57, 64
10, 14520, Note_on_c, 6, 60, 88
10, 14756, Note_off_c, 6, 60, 64
10, 14760, Note_on_c, 6, 57, 75
10, 14876, Note_off_c, 6, 57, 64
10, 14880, Note_on_c, 6, 62, 66
10, 15356, Note_off_c, 6, 62, 64
10, 15360, Note_on_c, 6, 50, 69
10, 16076, Note_off_c, 6, 50, 64
10, 16080, Note_on_c, 6, 55, 88
10, 16196, Note_off_c, 6, 55, 64
10, 16200, Note_on_c, 6, 57, 73
10, 16436, Note_off_c, 6, 57, 64
10, 16440, Note_on_c, 6, 60, 73
10, 16676, Note_off_c, 6, 60, 64
10, 16680, Note_on_c, 6, 57, 69
10, 16796, Note_off_c, 6, 57, 64
10, 16800, Note_on_c, 6, 62, 81
10, 17276, Note_off_c, 6, 62, 64
10, 17280, Note_on_c, 6, 50, 71
10, 17996, Note_off_c, 6, 50, 64
10, 18000, Note_on_c, 6, 55, 88
10, 18116, Note_off_c, 6, 55, 64
10, 18120, Note_on_c, 6, 57, 88
10, 18356, Note_off_c, 6, 57, 64
10, 18360, Note_on_c, 6, 60, 82
10, 18596, Note_off_c, 6, 60, 64
10, 18600, Note_on_c, 6, 57, 68
10, 18716, Note_off_c, 6, 57, 64
10, 18720, Note_on_c, 6, 62, 63
10, 19196, Note_off_c, 6, 62, 64
10, 36480, Note_on_c, 6, 50, 87
10, 37196, Note_off_c, 6, 50, 64
10, 37200, Note_on_c, 6, 55, 81
10, 37316, Note_off_c, 6, 55, 64
10, 37320, Note_on_c, 6, 57, 73
10, 37556, Note_off_c, 6, 57, 64
10, 37560, Note_on_c, 6, 60, 84
10, 37796, Note_off_c, 6, 60, 64
10, 37800, Note_on_c, 6, 57, 88
10, 37916, Note_off_c, 6, 57, 64
10, 37920, Note_on_c, 6, 62, 73
10, 38396, Note_off_c, 6, 62, 64
10, 38400, Note_on_c, 6, 50, 63
10, 39116, Note_off_c, 6, 50, 64
10, 39120, Note_on_c, 6, 55, 74
10, 39236, Note_off_c, 6, 55, 64
10, 39240, Note_on_c, 6, 57, 69
10, 39476, Note_off_c, 6, 57, 64
10, 39480, Note_on_c, 6, 60, 64
10, 39716, Note_off_c, 6, 60, 64
10, 39720, Note_on_c, 6, 57, 64
10, 39836, Note_off_c, 6, 57, 64
10, 39840, Note_on_c, 6, 62, 76
10, 40316, Note_off_c, 6, 62, 64
10, 40320, Note_on_c, 6, 50, 64
10, 41036, Note_off_c, 6, 50, 64
10, 41040, Note_on_c, 6, 55, 78
10, 41156, Note_off_c, 6, 55, 64
10, 41160, Note_on_c, 6, 57, 71
10, 41396, Note_off_c, 6, 57, 64
10, 41400, Note_on_c, 6, 60, 66
10, 41636, Note_off_c, 6, 60, 64
10, 41640, Note_on_c, 6, 57, 87
10, 41756, Note_off_c, 6, 57, 64
10, 41760, Note_on_c, 6, 62, 66
10, 42236, Note_off_c, 6, 62, 64
10, 42240, Note_on_c, 6, 50, 76
10, 42956, Note_off_c, 6, 50, 64
10, 42960, Note_on_c, 6, 55, 83
10, 43076, Note_off_c, 6, 55, 64
10, 43080, Note_on_c, 6, 57, 82
10, 43316, Note_off_c, 6, 57, 64
10, 43320, Note_on_c, 6, 60, 79
10, 43556, Note_off_c, 6, 60, 64
10, 43560, Note_on_c, 6, 57, 76
10, 43676, Note_off_c, 6, 57, 64
10, 43680, Note_on_c, 6, 62, 79
10, 44156, Note_off_c, 6, 62, 64
10, 61440, Note_on_c, 6, 50, 65
10, 62156, Note_off_c, 6, 50, 64
10, 62160, Note_on_c, 6, 55, 72
10, 62276, Note_off_c, 6, 55, 64
10, 62280, Note_on_c, 6, 57, 82
10, 62516, Note_off_c, 6, 57, 64
10, 62520, Note_on_c, 6, 60, 79
10, 62756, Note_off_c, 6, 60, 64
10, 62760, Note_on_c, 6, 57, 81
10, 62876, Note_off_c, 6, 57, 64
10, 62880, Note_on_c, 6, 62, 64
10, 63356, Note_off_c, 6, 62, 64
10, 63360, Note_on_c, 6, 50, 76
10, 64076, Note_off_c, 6, 50, 64
10, 64080, Note_on_c, 6, 55, 64
10, 64196, Note_off_c, 6, 55, 64
10, 64200, Note_on_c, 6, 57, 88
10, 64436, Note_off_c, 6, 57, 64
10, 64440, Note_on_c, 6, 60, 79
10, 64676, Note_off_c, 6, 60, 64
10, 64680, Note_on_c, 6, 57, 83
10, 64796, Note_off_c, 6, 57, 64
10, 64800, Note_on_c, 6, 62, 63
10, 65276, Note_off_c, 6, 62, 64
10, 65280, Note_on_c, 6, 50, 79
10, 65996, Note_off_c, 6, 50, 64
10, 66000, Note_on_c, 6, 55, 72
10, 66116, Note_off_c, 6, 55, 64
10, 66120, Note_on_c, 6, 57, 88
10, 66356, Note_off_c, 6, 57, 64
10, 66360, Note_on_c, 6, 60, 88
10, 66596, Note_off_c, 6, 60, 64
10, 66600, Note_on_c, 6, 57, 75
10, 66716, Note_off_c, 6, 57, 64
10, 66720, Note_on_c, 6, 62, 66
10, 67196, Note_off_c, 6, 62, 64
10, 67200, Note_on_c, 6, 50, 79
10, 67916, Note_off_c, 6, 50, 64
10, 67920, Note_on_c, 6, 55, 79
10, 68036, Note_off_c, 6, 55, 64
10, 68040, Note_on_c, 6, 57, 76
10, 68276, Note_off_c, 6, 57, 64
10, 68280, Note_on_c, 6, 60, 78
10, 68516, Note_off_c, 6, 60, 64
10, 68520, Note_on_c, 6, 57, 75
10, 68636, Note_off_c, 6, 57, 64
10, 68640, Note_on_c, 6, 62, 82
10, 69116, Note_off_c, 6, 62, 64
10, 98400, Note_on_c, 6, 70, 78
10, 98400, Note_on_c, 6, 74, 80
10, 98400, Note_on_c, 6, 65, 70
10, 98876, Note_off_c, 6, 65, 64
10, 98876, Note_off_c, 6, 74, 64
10, 98876, Note_off_c, 6, 70, 64
10, 98880, Note_on_c, 6, 76, 51
10, 98880, Note_on_c, 6, 72, 71
10, 98880, Note_on_c, 6, 67, 80
10, 99356, Note_off_c, 6, 67, 64
10, 99356, Note_off_c, 6, 72, 64
10, 99356, Note_off_c, 6, 76, 64
10, 101040, Note_on_c, 6, 74, 76
10, 101040, Note_on_c, 6, 69, 55
10, 101040, Note_on_c, 6, 65, 41
10, 101276, Note_off_c, 6, 65, 64
10, 101276, Note_off_c, 6, 69, 64
10, 101276, Note_off_c, 6, 74, 64
10, 101280, Note_on_c, 6, 74, 47
10, 101280, Note_on_c, 6, 69, 58
10, 101280, Note_on_c, 6, 65, 72
10, 101756, Note_off_c, 6, 65, 64
10, 101756, Note_off_c, 6, 69, 64
10, 101756, Note_off_c, 6, 74, 64
10, 102000, Note_on_c, 6, 70, 38
10, 102000, Note_on_c, 6, 74, 87
10, 102000, Note_on_c, 6, 65, 64
10, 102236, Note_off_c, 6, 65, 64
10, 102236, Note_off_c, 6, 74, 64
10, 102236, Note_off_c, 6, 70, 64
10, 102240, Note_on_c, 6, 70, 81
10, 102240, Note_on_c, 6, 74, 40
10, 102240, Note_on_c, 6, 65, 72
10, 102716, Note_off_c, 6, 65, 64
10, 102716, Note_off_c, 6, 74, 64
10, 102716, Note_off_c, 6, 70, 64
10, 102720, Note_on_c, 6, 72, 43
10, 102720, Note_on_c, 6, 76, 38
10, 102720, Note_on_c, 6, 67, 87
10, 103676, Note_off_c, 6, 67, 64
10, 103676, Note_off_c, 6, 76, 64
10, 103676, Note_off_c, 6, 72, 64
10, 104400, Note_on_c, 6, 70, 54
10, 104400, Note_on_c, 6, 67, 85
10, 104400, Note_on_c, 6, 74, 51
10, 104876, Note_off_c, 6, 74, 64
10, 104876, Note_off_c, 6, 67, 64
10, 104876, Note_off_c, 6, 70, 64
10, 104880, Note_on_c, 6, 69, 69
10, 105116, Note_off_c, 6, 69, 64
10, 105120, Note_on_c, 6, 67, 68
10, 105356, Note_off_c, 6, 67, 64
10, 105360, Note_on_c, 6, 65, 56
10, 105596, Note_off_c, 6, 65, 64
10, 106080, Note_on_c, 6, 70, 69
10, 106080, Note_on_c, 6, 65, 81
10, 106080, Note_on_c, 6, 74, 48
10, 106556, Note_off_c, 6, 74, 64
10, 106556, Note_off_c, 6, 65, 64
10, 106556, Note_off_c, 6, 70, 64
10, 107040, Note_on_c, 6, 72, 56
10, 107040, Note_on_c, 6, 76, 82
10, 107040, Note_on_c, 6, 67, 64
10, 107516, Note_off_c, 6, 67, 64
10, 107516, Note_off_c, 6, 76, 64
10, 107516, Note_off_c, 6, 72, 64
10, 107760, Note_on_c, 6, 79, 60
10, 107760, Note_on_c, 6, 72, 73
10, 107760, Note_on_c, 6, 76, 65
10, 107996, Note_off_c, 6, 76, 64
10, 107996, Note_off_c, 6, 72, 64
10, 107996, Note_off_c, 6, 79, 64
10, 108120, Note_on_c, 6, 79, 72
10, 108120, Note_on_c, 6, 72, 67
10, 108120, Note_on_c, 6, 76, 38
10, 108476, Note_off_c, 6, 76, 64
10, 108476, Note_off_c, 6, 72, 64
10, 108476, Note_off_c, 6, 79, 64
10, 108480, Note_on_c, 6, 74, 43
10, 108480, Note_on_c, 6, 77, 83
10, 108480, Note_on_c, 6, 69, 75
10, 109436, Note_off_c, 6, 69, 64
10, 109436, Note_off_c, 6, 77, 64
10, 109436, Note_off_c, 6, 74, 64
10, 109440, Note_on_c, 6, 70, 52
10, 109440, Note_on_c, 6, 74, 47
10, 109440, Note_on_c, 6, 65, 72
10, 110396, Note_off_c, 6, 65, 64
10, 110396, Note_off_c, 6, 74, 64
10, 110396, Note_off_c, 6, 70, 64
10, 110400, Note_on_c, 6, 74, 69
10, 110400, Note_on_c, 6, 72, 56
10, 110400, Note_on_c, 6, 67, 39
10, 111356, Note_off_c, 6, 67, 64
10, 111356, Note_off_c, 6, 72, 64
10, 111356, Note_off_c, 6, 74, 64
10, 111360, Note_on_c, 6, 74, 88
10, 111360, Note_on_c, 6, 69, 66
10, 111360, Note_on_c, 6, 65, 63
10, 113276, Note_off_c, 6, 65, 64
10, 113276, Note_off_c, 6, 69, 64
10, 113276, Note_off_c, 6, 74, 64
10, 113280, Note_on_c, 6, 70, 86
10, 113280, Note_on_c, 6, 74, 86
10, 113280, Note_on_c, 6, 65, 63
10, 114236, Note_off_c, 6, 65, 64
10, 114236, Note_off_c, 6, 74, 64
10, 114236, Note_off_c, 6, 70, 64
10, 114240, Note_on_c, 6, 74, 41
10, 114240, Note_on_c, 6, 72, 39
10, 114240, Note_on_c, 6, 67, 72
10, 115196, Note_off_c, 6, 67, 64
10, 115196, Note_off_c, 6, 72, 64
10, 115196, Note_off_c, 6, 74, 64
10, 115200, Note_on_c, 6, 69, 50
10, 115200, Note_on_c, 6, 74, 64
10, 115200, Note_on_c, 6, 65, 80
10, 117116, Note_off_c, 6, 65, 64
10, 117116, Note_off_c, 6, 74, 64
10, 117116, Note_off_c, 6, 69, 64
10, 117120, Note_on_c, 6, 70, 44
10, 117120, Note_on_c, 6, 74, 79
10, 117120, Note_on_c, 6, 65, 55
10, 118076, Note_off_c, 6, 65, 64
10, 118076, Note_off_c, 6, 74, 64
10, 118076, Note_off_c, 6, 70, 64
10, 118080, Note_on_c, 6, 74, 56
10, 118080, Note_on_c, 6, 72, 49
10, 118080, Note_on_c, 6, 67, 82
10, 119036, Note_off_c, 6, 67, 64
10, 119036, Note_off_c, 6, 72, 64
10, 119036, Note_off_c, 6, 74, 64
10, 119040, Note_on_c, 6, 74, 42
10, 119040, Note_on_c, 6, 69, 41
10, 119040, Note_on_c, 6, 65, 87
10, 119756, Note_off_c, 6, 65, 64
10, 119756, Note_off_c, 6, 69, 64
10, 119756, Note_off_c, 6, 74, 64
10, 119760, Note_on_c, 6, 70, 55
10, 119760, Note_on_c, 6, 74, 74
10, 119760, Note_on_c, 6, 67, 85
10, 120956, Note_off_c, 6, 67, 64
10, 120956, Note_off_c, 6, 74, 64
10, 120956, Note_off_c, 6, 70, 64
10, 120960, Note_on_c, 6, 74, 78
10, 120960, Note_on_c, 6, 70, 40
10, 120960, Note_on_c, 6, 65, 85
10, 121916, Note_off_c, 6, 65, 64
10, 121916, Note_off_c, 6, 70, 64
10, 121916, Note_off_c, 6, 74, 64
10, 121920, Note_on_c, 6, 74, 78
10, 121920, Note_on_c, 6, 72, 87
10, 121920, Note_on_c, 6, 67, 70
10, 122876, Note_off_c, 6, 67, 64
10, 122876, Note_off_c, 6, 72, 64
10, 122876, Note_off_c, 6, 74, 64
10, 123120, Note_on_c, 6, 79, 70
10, 123120, Note_on_c, 6, 76, 74
10, 123120, Note_on_c, 6, 72, 43
10, 123356, Note_off_c, 6, 72, 64
10, 123356, Note_off_c, 6, 76, 64
10, 123356, Note_off_c, 6, 79, 64
10, 123480, Note_on_c, 6, 79, 60
10, 123480, Note_on_c, 6, 72, 68
10, 123480, Note_on_c, 6, 76, 66
10, 123836, Note_off_c, 6, 76, 64
10, 123836, Note_off_c, 6, 72, 64
10, 123836, Note_off_c, 6, 79, 64
10, 123840, Note_on_c, 6, 69, 87
10, 123840, Note_on_c, 6, 77, 69
10, 123840, Note_on_c, 6, 74, 42
10, 124796, Note_off_c, 6, 74, 64
10, 124796, Note_off_c, 6, 77, 64
10, 124796, Note_off_c, 6, 69, 64
10, 125040, Note_on_c, 6, 77, 66
10, 125040, Note_on_c, 6, 81, 43
10, 125040, Note_on_c, 6, 74, 57
10, 125040, Note_on_c, 6, 70, 84
10, 125396, Note_off_c, 6, 70, 64
10, 125396, Note_off_c, 6, 74, 64
10, 125396, Note_off_c, 6, 81, 64
10, 125396, Note_off_c, 6, 77, 64
10, 125400, Note_on_c, 6, 81, 43
10, 125400, Note_on_c, 6, 70, 83
10, 125400, Note_on_c, 6, 74, 51
10, 125400, Note_on_c, 6, 77, 47
10, 125756, Note_off_c, 6, 77, 64
10, 125756, Note_off_c, 6, 74, 64
10, 125756, Note_off_c, 6, 70, 64
10, 125756, Note_off_c, 6, 81, 64
10, 125760, Note_on_c, 6, 79, 72
10, 125760, Note_on_c, 6, 72, 64
10, 125760, Note_on_c, 6, 76, 68
10, 126476, Note_off_c, 6, 76, 64
10, 126476, Note_off_c, 6, 72, 64
10, 126476, Note_off_c, 6, 79, 64
10, 126720, Note_on_c, 6, 74, 72
10, 126720, Note_on_c, 6, 65, 80
10, 126720, Note_on_c, 6, 69, 48
10, 128636, Note_off_c, 6, 69, 64
10, 128636, Note_off_c, 6, 65, 64
10, 128636, Note_off_c, 6, 74, 64
10, 128880, Note_on_c, 6, 74, 44
10, 128880, Note_on_c, 6, 77, 81
10, 128880, Note_on_c, 6, 70, 56
10, 129596, Note_off_c, 6, 70, 64
10, 129596, Note_off_c, 6, 77, 64
10, 129596, Note_off_c, 6, 74, 64
10, 129600, Note_on_c, 6, 79, 63
10, 129600, Note_on_c, 6, 72, 75
10, 129600, Note_on_c, 6, 76, 55
10, 130556, Note_off_c, 6, 76, 64
10, 130556, Note_off_c, 6, 72, 64
10, 130556, Note_off_c, 6, 79, 64
10, 130560, Note_on_c, 6, 69, 66
10, 130560, Note_on_c, 6, 74, 72
10, 130560, Note_on_c, 6, 65, 44
10, 132476, Note_off_c, 6, 65, 64
10, 132476, Note_off_c, 6, 74, 64
10, 132476, Note_off_c, 6, 69, 64
10, 132480, Note_on_c, 6, 70, 58
10, 132480, Note_on_c, 6, 74, 68
10, 132480, Note_on_c, 6, 65, 54
10, 133436, Note_off_c, 6, 65, 64
10, 133436, Note_off_c, 6, 74, 64
10, 133436, Note_off_c, 6, 70, 64
10, 133440, Note_on_c, 6, 74, 88
10, 133440, Note_on_c, 6, 72, 64
10, 133440, Note_on_c, 6, 67, 41
10, 134396, Note_off_c, 6, 67, 64
10, 134396, Note_off_c, 6, 72, 64
10, 134396, Note_off_c, 6, 74, 64
10, 134400, Note_on_c, 6, 69, 86
10, 134400, Note_on_c, 6, 65, 87
10, 134400, Note_on_c, 6, 74, 48
10, 135116, Note_off_c, 6, 74, 64
10, 135116, Note_off_c, 6, 65, 64
10, 135116, Note_off_c, 6, 69, 64
10, 135120, Note_on_c, 6, 70, 70
10, 135120, Note_on_c, 6, 74, 84
10, 135120, Note_on_c, 6, 67, 80
10, 136316, Note_off_c, 6, 67, 64
10, 136316, Note_off_c, 6, 74, 64
10, 136316, Note_off_c, 6, 70, 64
10, 136320, Note_on_c, 6, 70, 74
10, 136320, Note_on_c, 6, 74, 76
10, 136320, Note_on_c, 6, 65, 45
10, 137276, Note_off_c, 6, 65, 64
10, 137276, Note_off_c, 6, 74, 64
10, 137276, Note_off_c, 6, 70, 64
10, 137280, Note_on_c, 6, 74, 85
10, 137280, Note_on_c, 6, 72, 50
10, 137280, Note_on_c, 6, 67, 71
10, 138236, Note_off_c, 6, 67, 64
10, 138236, Note_off_c, 6, 72, 64
10, 138236, Note_off_c, 6, 74, 64
10, 138480, Note_on_c, 6, 76, 62
10, 138480, Note_on_c, 6, 79, 64
10, 138480, Note_on_c, 6, 72, 81
10, 138716, Note_off_c, 6, 72, 64
10, 138716, Note_off_c, 6, 79, 64
10, 138716, Note_off_c, 6, 76, 64
10, 138840, Note_on_c, 6, 79, 51
10, 138840, Note_on_c, 6, 72, 65
10, 138840, Note_on_c, 6, 76, 60
10, 139196, Note_off_c, 6, 76, 64
10, 139196, Note_off_c, 6, 72, 64
10, 139196, Note_off_c, 6, 79, 64
10, 139200, Note_on_c, 6, 69, 80
10, 139200, Note_on_c, 6, 77, 59
10, 139200, Note_on_c, 6, 74, 50
10, 139676, Note_off_c, 6, 74, 64
10, 139676, Note_off_c, 6, 77, 64
10, 139676, Note_off_c, 6, 69, 64
10, 140160, Note_on_c, 6, 50, 78
10, 140876, Note_off_c, 6, 50, 64
10, 140880, Note_on_c, 6, 55, 38
10, 140996, Note_off_c, 6, 55, 64
10, 141000, Note_on_c, 6, 57, 41
10, 141236, Note_off_c, 6, 57, 64
10, 141240, Note_on_c, 6, 60, 44
10, 141476, Note_off_c, 6, 60, 64
10, 141480, Note_on_c, 6, 57, 73
10, 141596, Note_off_c, 6, 57, 64
10, 141600, Note_on_c, 6, 62, 48
10, 142076, Note_off_c, 6, 62, 64
10, 142080, Note_on_c, 6, 50, 78
10, 142796, Note_off_c, 6, 50, 64
10, 142800, Note_on_c, 6, 55, 86
10, 142916, Note_off_c, 6, 55, 64
10, 142920, Note_on_c, 6, 57, 59
10, 143156, Note_off_c, 6, 57, 64
10, 143160, Note_on_c, 6, 60, 85
10, 143396, Note_off_c, 6, 60, 64
10, 143400, Note_on_c, 6, 57, 47
10, 143516, Note_off_c, 6, 57, 64
10, 143520, Note_on_c, 6, 62, 53
10, 143996, Note_off_c, 6, 62, 64
10, 144000, Note_on_c, 6, 50, 50
10, 144716, Note_off_c, 6, 50, 64
10, 144720, Note_on_c, 6, 55, 41
10, 144836, Note_off_c, 6, 55, 64
10, 144840, Note_on_c, 6, 57, 64
10, 145076, Note_off_c, 6, 57, 64
10, 145080, Note_on_c, 6, 60, 64
10, 145316, Note_off_c, 6, 60, 64
10, 145320, Note_on_c, 6, 57, 84
10, 145436, Note_off_c, 6, 57, 64
10, 145440, Note_on_c, 6, 62, 76
10, 145916, Note_off_c, 6, 62, 64
10, 145920, Note_on_c, 6, 50, 71
10, 146636, Note_off_c, 6, 50, 64
10, 146640, Note_on_c, 6, 55, 62
10, 146756, Note_off_c, 6, 55, 64
10, 146760, Note_on_c, 6, 57, 73
10, 146996, Note_off_c, 6, 57, 64
10, 147000, Note_on_c, 6, 60, 54
10, 147236, Note_off_c, 6, 60, 64
10, 147240, Note_on_c, 6, 57, 76
10, 147356, Note_off_c, 6, 57, 64
10, 147360, Note_on_c, 6, 62, 75
10, 147836, Note_off_c, 6, 62, 64
10, 147840, Note_on_c, 6, 50, 43
10, 148556, Note_off_c, 6, 50, 64
10, 148560, Note_on_c, 6, 55, 64
10, 148676, Note_off_c, 6, 55, 64
10, 148680, Note_on_c, 6, 57, 56
10, 148916, Note_off_c, 6, 57, 64
10, 148920, Note_on_c, 6, 60, 71
10, 149156, Note_off_c, 6, 60, 64
10, 149160, Note_on_c, 6, 57, 52
10, 149276, Note_off_c, 6, 57, 64
10, 149280, Note_on_c, 6, 62, 71
10, 149756, Note_off_c, 6, 62, 64
10, 149760, Note_on_c, 6, 50, 68
10, 150476, Note_off_c, 6, 50, 64
10, 150480, Note_on_c, 6, 55, 76
10, 150596, Note_off_c, 6, 55, 64
10, 150600, Note_on_c, 6, 57, 79
10, 150836, Note_off_c, 6, 57, 64
10, 150840, Note_on_c, 6, 60, 87
10, 151076, Note_off_c, 6, 60, 64
10, 151080, Note_on_c, 6, 57, 60
10, 151196, Note_off_c, 6, 57, 64
10, 151200, Note_on_c, 6, 62, 42
10, 151676, Note_off_c, 6, 62, 64
10, 151680, Note_on_c, 6, 50, 63
10, 152396, Note_off_c, 6, 50, 64
10, 152400, Note_on_c, 6, 55, 45
10, 152516, Note_off_c, 6, 55, 64
10, 152520, Note_on_c, 6, 57, 88
10, 152756, Note_off_c, 6, 57, 64
10, 152760, Note_on_c, 6, 60, 80
10, 152996, Note_off_c, 6, 60, 64
10, 153000, Note_on_c, 6, 57, 56
10, 153116, Note_off_c, 6, 57, 64
10, 153120, Note_on_c, 6, 62, 86
10, 153596, Note_off_c, 6, 62, 64
10, 153600, Note_on_c, 6, 50, 43
10, 154316, Note_off_c, 6, 50, 64
10, 154320, Note_on_c, 6, 55, 87
10, 154436, Note_off_c, 6, 55, 64
10, 154440, Note_on_c, 6, 57, 76
10, 154676, Note_off_c, 6, 57, 64
10, 154680, Note_on_c, 6, 60, 84
10, 154916, Note_off_c, 6, 60, 64
10, 154920, Note_on_c, 6, 57, 39
10, 155036, Note_off_c, 6, 57, 64
10, 155040, Note_on_c, 6, 62, 87
10, 155516, Note_off_c, 6, 62, 64
10, 155520, Note_on_c, 6, 50, 57
10, 156236, Note_off_c, 6, 50, 64
10, 156240, Note_on_c, 6, 55, 50
10, 156356, Note_off_c, 6, 55, 64
10, 156360, Note_on_c, 6, 57, 44
10, 156596, Note_off_c, 6, 57, 64
10, 156600, Note_on_c, 6, 60, 84
10, 156836, Note_off_c, 6, 60, 64
10, 156840, Note_on_c, 6, 57, 85
10, 156956, Note_off_c, 6, 57, 64
10, 156960, Note_on_c, 6, 62, 76
10, 157436, Note_off_c, 6, 62, 64
10, 157440, Note_on_c, 6, 50, 79
10, 158156, Note_off_c, 6, 50, 64
10, 158160, Note_on_c, 6, 55, 56
10, 158276, Note_off_c, 6, 55, 64
10, 158280, Note_on_c, 6, 57, 50
10, 158516, Note_off_c, 6, 57, 64
10, 158520, Note_on_c, 6, 60, 40
10, 158756, Note_off_c, 6, 60, 64
10, 158760, Note_on_c, 6, 57, 65
10, 158876, Note_off_c, 6, 57, 64
10, 158880, Note_on_c, 6, 62, 72
10, 159356, Note_off_c, 6, 62, 64
10, 159360, Note_on_c, 6, 50, 44
10, 160076, Note_off_c, 6, 50, 64
10, 160080, Note_on_c, 6, 55, 75
10, 160196, Note_off_c, 6, 55, 64
10, 160200, Note_on_c, 6, 57, 87
10, 160436, Note_off_c, 6, 57, 64
10, 160440, Note_on_c, 6, 60, 50
10, 160676, Note_off_c, 6, 60, 64
10, 160680, Note_on_c, 6, 57, 80
10, 160796, Note_off_c, 6, 57, 64
10, 160800, Note_on_c, 6, 62, 73
10, 161276, Note_off_c, 6, 62, 64
10, 161280, Note_on_c, 6, 50, 49
10, 161996, Note_off_c, 6, 50, 64
10, 162000, Note_on_c, 6, 55, 81
10, 162116, Note_off_c, 6, 55, 64
10, 162120, Note_on_c, 6, 57, 44
10, 162356, Note_off_c, 6, 57, 64
10, 162360, Note_on_c, 6, 60, 78
10, 162596, Note_off_c, 6, 60, 64
10, 162600, Note_on_c, 6, 57, 52
10, 162716, Note_off_c, 6, 57, 64
10, 162720, Note_on_c, 6, 62, 56
10, 163196, Note_off_c, 6, 62, 64
10, 163200, Note_on_c, 6, 50, 40
10, 163916, Note_off_c, 6, 50, 64
10, 163920, Note_on_c, 6, 55, 48
10, 164036, Note_off_c, 6, 55, 64
10, 164040, Note_on_c, 6, 57, 66
10, 164276, Note_off_c, 6, 57, 64
10, 164280, Note_on_c, 6, 60, 53
10, 164516, Note_off_c, 6, 60, 64
10, 164520, Note_on_c, 6, 57, 46
10, 164636, Note_off_c, 6, 57, 64
10, 164640, Note_on_c, 6, 62, 60
10, 165116, Note_off_c, 6, 62, 64
10, 165120, Note_on_c, 6, 50, 57
10, 165836, Note_off_c, 6, 50, 64
10, 165840, Note_on_c, 6, 55, 73
10, 165956, Note_off_c, 6, 55, 64
10, 165960, Note_on_c, 6, 57, 68
10, 166196, Note_off_c, 6, 57, 64
10, 166200, Note_on_c, 6, 60, 88
10, 166436, Note_off_c, 6, 60, 64
10, 166440, Note_on_c, 6, 57, 38
10, 166556, Note_off_c, 6, 57, 64
10, 166560, Note_on_c, 6, 62, 87
10, 167036, Note_off_c, 6, 62, 64
10, 167040, Note_on_c, 6, 50, 62
10, 167756, Note_off_c, 6, 50, 64
10, 167760, Note_on_c, 6, 55, 56
10, 167876, Note_off_c, 6, 55, 64
10, 167880, Note_on_c, 6, 57, 52
10, 168116, Note_off_c, 6, 57, 64
10, 168120, Note_on_c, 6, 60, 88
10, 168356, Note_off_c, 6, 60, 64
10, 168360, Note_on_c, 6, 57, 58
10, 168476, Note_off_c, 6, 57, 64
10, 168480, Note_on_c, 6, 62, 55
10, 168956, Note_off_c, 6, 62, 64
10, 168960, Note_on_c, 6, 50, 79
10, 169676, Note_off_c, 6, 50, 64
10, 169680, Note_on_c, 6, 55, 55
10, 169796, Note_off_c, 6, 55, 64
10, 169800, Note_on_c, 6, 57, 86
10, 170036, Note_off_c, 6, 57, 64
10, 170040, Note_on_c, 6, 60, 38
10, 170276, Note_off_c, 6, 60, 64
10, 170280, Note_on_c, 6, 57, 39
10, 170396, Note_off_c, 6, 57, 64
10, 170400, Note_on_c, 6, 62, 61
10, 170876, Note_off_c, 6, 62, 64
10, 170880, Note_on_c, 6, 74, 59
10, 170880, Note_on_c, 6, 70, 50
10, 170880, Note_on_c, 6, 65, 64
10, 171236, Note_off_c, 6, 65, 64
10, 171236, Note_off_c, 6, 70, 64
10, 171236, Note_off_c, 6, 74, 64
10, 171240, Note_on_c, 6, 74, 49
10, 171240, Note_on_c, 6, 70, 73
10, 171240, Note_on_c, 6, 65, 48
10, 171356, Note_off_c, 6, 65, 64
10, 171356, Note_off_c, 6, 70, 64
10, 171356, Note_off_c, 6, 74, 64
10, 171600, Note_on_c, 6, 72, 57
10, 171600, Note_on_c, 6, 76, 57
10, 171600, Note_on_c, 6, 67, 46
10, 172076, Note_off_c, 6, 67, 64
10, 172076, Note_off_c, 6, 76, 64
10, 172076, Note_off_c, 6, 72, 64
10, 173280, Control_c, 6, 91, 0
10, 173280, Control_c, 6, 93, 0
10, 173280, Control_c, 6, 1, 0
10, 173280, Control_c, 6, 0, 0
10, 173280, Control_c, 6, 10, 64
10, 173280, Control_c, 6, 64, 0
10, 173280, Control_c, 6, 7, 127
10, 173280, Pitch_bend_c, 6, 8192
10, 173280, End_track
11, 0, Start_track
11, 0, Title_t, "Bass"
11, 0, MIDI_port, 0
11, 0, Channel_prefix, 7
11, 0, Control_c, 7, 10, 64
11, 20, Control_c, 7, 121, 0
11, 20, Control_c, 7, 0, 0
11, 20, Control_c, 7, 7, 103
11, 20, Control_c, 7, 91, 0
11, 20, Control_c, 7, 93, 0
11, 20, Control_c, 7, 10, 64
11, 20, Control_c, 7, 1, 0
11, 20, Control_c, 7, 64, 0
11, 20, Pitch_bend_c, 7, 8192
11, 628, Program_c, 7, 32
11, 3840, Note_on_c, 7, 26, 87
11, 4316, Note_off_c, 7, 26, 64
11, 5760, Note_on_c, 7, 26, 84
11, 6236, Note_off_c, 7, 26, 64
11, 7680, Note_on_c, 7, 26, 76
11, 8156, Note_off_c, 7, 26, 64
11, 9600, Note_on_c, 7, 26, 85
11, 10076, Note_off_c, 7, 26, 64
11, 11520, Note_on_c, 7, 26, 86
11, 12236, Note_off_c, 7, 26, 64
11, 12240, Note_on_c, 7, 31, 78
11, 12356, Note_off_c, 7, 31, 64
11, 12360, Note_on_c, 7, 33, 84
11, 12596, Note_off_c, 7, 33, 64
11, 12600, Note_on_c, 7, 36, 76
11, 12836, Note_off_c, 7, 36, 64
11, 12840, Note_on_c, 7, 33, 74
11, 12956, Note_off_c, 7, 33, 64
11, 12960, Note_on_c, 7, 38, 82
11, 13436, Note_off_c, 7, 38, 64
11, 13440, Note_on_c, 7, 26, 84
11, 14156, Note_off_c, 7, 26, 64
11, 14160, Note_on_c, 7, 31, 84
11, 14276, Note_off_c, 7, 31, 64
11, 14280, Note_on_c, 7, 33, 79
11, 14516, Note_off_c, 7, 33, 64
11, 14520, Note_on_c, 7, 36, 70
11, 14756, Note_off_c, 7, 36, 64
11, 14760, Note_on_c, 7, 33, 84
11, 14876, Note_off_c, 7, 33, 64
11, 14880, Note_on_c, 7, 38, 80
11, 15356, Note_off_c, 7, 38, 64
11, 15360, Note_on_c, 7, 26, 84
11, 16076, Note_off_c, 7, 26, 64
11, 16080, Note_on_c, 7, 31, 82
11, 16196, Note_off_c, 7, 31, 64
11, 16200, Note_on_c, 7, 33, 84
11, 16436, Note_off_c, 7, 33, 64
11, 16440, Note_on_c, 7, 36, 75
11, 16676, Note_off_c, 7, 36, 64
11, 16680, Note_on_c, 7, 33, 88
11, 16796, Note_off_c, 7, 33, 64
11, 16800, Note_on_c, 7, 38, 86
11, 17276, Note_off_c, 7, 38, 64
11, 17280, Note_on_c, 7, 26, 82
11, 17996, Note_off_c, 7, 26, 64
11, 18000, Note_on_c, 7, 31, 82
11, 18116, Note_off_c, 7, 31, 64
11, 18120, Note_on_c, 7, 33, 72
11, 18356, Note_off_c, 7, 33, 64
11, 18360, Note_on_c, 7, 36, 88
11, 18596, Note_off_c, 7, 36, 64
11, 18600, Note_on_c, 7, 33, 79
11, 18716, Note_off_c, 7, 33, 64
11, 18720, Note_on_c, 7, 38, 87
11, 19196, Note_off_c, 7, 38, 64
11, 19200, Note_on_c, 7, 34, 88
11, 19676, Note_off_c, 7, 34, 64
11, 19680, Note_on_c, 7, 29, 78
11, 20156, Note_off_c, 7, 29, 64
11, 20160, Note_on_c, 7, 36, 74
11, 20636, Note_off_c, 7, 36, 64
11, 20640, Note_on_c, 7, 31, 87
11, 21116, Note_off_c, 7, 31, 64
11, 21120, Note_on_c, 7, 26, 80
11, 21596, Note_off_c, 7, 26, 64
11, 21720, Note_on_c, 7, 36, 77
11, 21836, Note_off_c, 7, 36, 64
11, 22080, Note_on_c, 7, 36, 76
11, 22196, Note_off_c, 7, 36, 64
11, 22200, Note_on_c, 7, 38, 76
11, 22556, Note_off_c, 7, 38, 64
11, 22560, Note_on_c, 7, 36, 85
11, 23036, Note_off_c, 7, 36, 64
11, 23040, Note_on_c, 7, 34, 76
11, 23516, Note_off_c, 7, 34, 64
11, 23520, Note_on_c, 7, 29, 79
11, 23996, Note_off_c, 7, 29, 64
11, 24000, Note_on_c, 7, 36, 88
11, 24476, Note_off_c, 7, 36, 64
11, 24480, Note_on_c, 7, 31, 83
11, 24956, Note_off_c, 7, 31, 64
11, 24960, Note_on_c, 7, 38, 87
11, 25436, Note_off_c, 7, 38, 64
11, 25560, Note_on_c, 7, 40, 83
11, 25676, Note_off_c, 7, 40, 64
11, 25920, Note_on_c, 7, 41, 81
11, 26036, Note_off_c, 7, 41, 64
11, 26040, Note_on_c, 7, 40, 88
11, 26396, Note_off_c, 7, 40, 64
11, 26400, Note_on_c, 7, 38, 80
11, 26876, Note_off_c, 7, 38, 64
11, 26880, Note_on_c, 7, 34, 72
11, 27356, Note_off_c, 7, 34, 64
11, 27360, Note_on_c, 7, 29, 88
11, 27836, Note_off_c, 7, 29, 64
11, 27840, Note_on_c, 7, 36, 73
11, 28316, Note_off_c, 7, 36, 64
11, 28320, Note_on_c, 7, 31, 88
11, 28796, Note_off_c, 7, 31, 64
11, 28800, Note_on_c, 7, 26, 81
11, 29036, Note_off_c, 7, 26, 64
11, 29040, Note_on_c, 7, 29, 72
11, 29276, Note_off_c, 7, 29, 64
11, 29280, Note_on_c, 7, 33, 79
11, 29516, Note_off_c, 7, 33, 64
11, 29520, Note_on_c, 7, 31, 87
11, 30476, Note_off_c, 7, 31, 64
11, 30720, Note_on_c, 7, 34, 79
11, 31196, Note_off_c, 7, 34, 64
11, 31200, Note_on_c, 7, 29, 70
11, 31676, Note_off_c, 7, 29, 64
11, 31680, Note_on_c, 7, 36, 75
11, 32156, Note_off_c, 7, 36, 64
11, 32160, Note_on_c, 7, 31, 80
11, 32516, Note_off_c, 7, 31, 64
11, 32520, Note_on_c, 7, 36, 78
11, 32636, Note_off_c, 7, 36, 64
11, 32640, Note_on_c, 7, 38, 84
11, 33116, Note_off_c, 7, 38, 64
11, 33240, Note_on_c, 7, 38, 72
11, 33356, Note_off_c, 7, 38, 64
11, 33480, Note_on_c, 7, 33, 70
11, 33596, Note_off_c, 7, 33, 64
11, 33600, Note_on_c, 7, 38, 84
11, 34076, Note_off_c, 7, 38, 64
11, 34080, Note_on_c, 7, 36, 86
11, 34556, Note_off_c, 7, 36, 64
11, 34560, Note_on_c, 7, 34, 76
11, 34916, Note_off_c, 7, 34, 64
11, 34920, Note_on_c, 7, 34, 84
11, 35036, Note_off_c, 7, 34, 64
11, 35040, Note_on_c, 7, 29, 76
11, 35516, Note_off_c, 7, 29, 64
11, 35520, Note_on_c, 7, 36, 70
11, 35996, Note_off_c, 7, 36, 64
11, 36000, Note_on_c, 7, 36, 80
11, 36236, Note_off_c, 7, 36, 64
11, 36240, Note_on_c, 7, 40, 89
11, 36476, Note_off_c, 7, 40, 64
11, 36480, Note_on_c, 7, 26, 88
11, 36956, Note_off_c, 7, 26, 64
11, 37680, Note_on_c, 7, 28, 72
11, 37916, Note_off_c, 7, 28, 64
11, 37920, Note_on_c, 7, 29, 83
11, 38396, Note_off_c, 7, 29, 64
11, 38400, Note_on_c, 7, 26, 89
11, 38876, Note_off_c, 7, 26, 64
11, 39600, Note_on_c, 7, 28, 88
11, 39836, Note_off_c, 7, 28, 64
11, 39840, Note_on_c, 7, 29, 76
11, 40316, Note_off_c, 7, 29, 64
11, 40320, Note_on_c, 7, 26, 89
11, 40796, Note_off_c, 7, 26, 64
11, 41400, Note_on_c, 7, 28, 80
11, 41516, Note_off_c, 7, 28, 64
11, 41640, Note_on_c, 7, 26, 77
11, 41756, Note_off_c, 7, 26, 64
11, 41760, Note_on_c, 7, 29, 84
11, 42236, Note_off_c, 7, 29, 64
11, 42240, Note_on_c, 7, 26, 70
11, 42956, Note_off_c, 7, 26, 64
11, 42960, Note_on_c, 7, 31, 72
11, 43076, Note_off_c, 7, 31, 64
11, 43080, Note_on_c, 7, 33, 71
11, 43316, Note_off_c, 7, 33, 64
11, 43320, Note_on_c, 7, 36, 88
11, 43556, Note_off_c, 7, 36, 64
11, 43560, Note_on_c, 7, 33, 71
11, 43676, Note_off_c, 7, 33, 64
11, 43680, Note_on_c, 7, 36, 72
11, 44156, Note_off_c, 7, 36, 64
11, 44160, Note_on_c, 7, 34, 74
11, 44636, Note_off_c, 7, 34, 64
11, 44640, Note_on_c, 7, 29, 83
11, 45116, Note_off_c, 7, 29, 64
11, 45120, Note_on_c, 7, 36, 75
11, 45596, Note_off_c, 7, 36, 64
11, 45600, Note_on_c, 7, 31, 88
11, 45836, Note_off_c, 7, 31, 64
11, 45840, Note_on_c, 7, 36, 76
11, 46076, Note_off_c, 7, 36, 64
11, 46080, Note_on_c, 7, 38, 87
11, 46556, Note_off_c, 7, 38, 64
11, 46560, Note_on_c, 7, 33, 76
11, 47036, Note_off_c, 7, 33, 64
11, 47040, Note_on_c, 7, 29, 77
11, 47396, Note_off_c, 7, 29, 64
11, 47400, Note_on_c, 7, 28, 76
11, 47516, Note_off_c, 7, 28, 64
11, 47520, Note_on_c, 7, 26, 74
11, 47756, Note_off_c, 7, 26, 64
11, 47760, Note_on_c, 7, 26, 88
11, 47996, Note_off_c, 7, 26, 64
11, 48000, Note_on_c, 7, 34, 77
11, 48000, Note_on_c, 7, 35, 74
11, 48476, Note_off_c, 7, 35, 64
11, 48476, Note_off_c, 7, 34, 64
11, 48480, Note_on_c, 7, 29, 76
11, 48956, Note_off_c, 7, 29, 64
11, 48960, Note_on_c, 7, 36, 77
11, 49436, Note_off_c, 7, 36, 64
11, 49440, Note_on_c, 7, 31, 72
11, 49916, Note_off_c, 7, 31, 64
11, 49920, Note_on_c, 7, 38, 76
11, 50396, Note_off_c, 7, 38, 64
11, 50520, Note_on_c, 7, 40, 61
11, 50636, Note_off_c, 7, 40, 64
11, 50880, Note_on_c, 7, 41, 86
11, 50996, Note_off_c, 7, 41, 64
11, 51000, Note_on_c, 7, 40, 84
11, 51356, Note_off_c, 7, 40, 64
11, 51360, Note_on_c, 7, 38, 86
11, 51596, Note_off_c, 7, 38, 64
11, 51600, Note_on_c, 7, 36, 85
11, 51836, Note_off_c, 7, 36, 64
11, 51840, Note_on_c, 7, 34, 68
11, 52196, Note_off_c, 7, 34, 64
11, 52200, Note_on_c, 7, 29, 72
11, 52316, Note_off_c, 7, 29, 64
11, 52320, Note_on_c, 7, 29, 48
11, 52796, Note_off_c, 7, 29, 64
11, 52800, Note_on_c, 7, 36, 56
11, 53156, Note_off_c, 7, 36, 64
11, 53160, Note_on_c, 7, 36, 54
11, 53276, Note_off_c, 7, 36, 64
11, 53280, Note_on_c, 7, 31, 62
11, 53636, Note_off_c, 7, 31, 64
11, 53640, Note_on_c, 7, 31, 80
11, 53756, Note_off_c, 7, 31, 64
11, 53760, Note_on_c, 7, 26, 76
11, 53996, Note_off_c, 7, 26, 64
11, 54000, Note_on_c, 7, 29, 74
11, 54236, Note_off_c, 7, 29, 64
11, 54240, Note_on_c, 7, 33, 58
11, 54476, Note_off_c, 7, 33, 64
11, 54480, Note_on_c, 7, 31, 74
11, 55436, Note_off_c, 7, 31, 64
11, 55440, Note_on_c, 7, 26, 52
11, 55676, Note_off_c, 7, 26, 64
11, 55680, Note_on_c, 7, 34, 52
11, 56036, Note_off_c, 7, 34, 64
11, 56040, Note_on_c, 7, 34, 55
11, 56156, Note_off_c, 7, 34, 64
11, 56160, Note_on_c, 7, 29, 88
11, 56396, Note_off_c, 7, 29, 64
11, 56400, Note_on_c, 7, 34, 65
11, 56636, Note_off_c, 7, 34, 64
11, 56640, Note_on_c, 7, 36, 69
11, 57116, Note_off_c, 7, 36, 64
11, 57120, Note_on_c, 7, 31, 52
11, 57356, Note_off_c, 7, 31, 64
11, 57360, Note_on_c, 7, 36, 81
11, 57596, Note_off_c, 7, 36, 64
11, 57600, Note_on_c, 7, 38, 80
11, 58076, Note_off_c, 7, 38, 64
11, 58080, Note_on_c, 7, 45, 65
11, 58196, Note_off_c, 7, 45, 64
11, 58200, Note_on_c, 7, 43, 76
11, 58556, Note_off_c, 7, 43, 64
11, 58560, Note_on_c, 7, 41, 59
11, 58796, Note_off_c, 7, 41, 64
11, 58800, Note_on_c, 7, 40, 68
11, 59036, Note_off_c, 7, 40, 64
11, 59040, Note_on_c, 7, 38, 71
11, 59276, Note_off_c, 7, 38, 64
11, 59280, Note_on_c, 7, 36, 87
11, 59516, Note_off_c, 7, 36, 64
11, 59520, Note_on_c, 7, 34, 71
11, 59996, Note_off_c, 7, 34, 64
11, 60000, Note_on_c, 7, 29, 59
11, 60476, Note_off_c, 7, 29, 64
11, 60480, Note_on_c, 7, 36, 77
11, 60956, Note_off_c, 7, 36, 64
11, 60960, Note_on_c, 7, 31, 84
11, 61436, Note_off_c, 7, 31, 64
11, 61440, Note_on_c, 7, 26, 81
11, 61916, Note_off_c, 7, 26, 64
11, 62880, Note_on_c, 7, 29, 75
11, 63356, Note_off_c, 7, 29, 64
11, 63360, Note_on_c, 7, 26, 81
11, 63836, Note_off_c, 7, 26, 64
11, 64800, Note_on_c, 7, 36, 70
11, 65036, Note_off_c, 7, 36, 64
11, 65040, Note_on_c, 7, 38, 54
11, 65276, Note_off_c, 7, 38, 64
11, 65280, Note_on_c, 7, 26, 63
11, 65756, Note_off_c, 7, 26, 64
11, 66720, Note_on_c, 7, 29, 88
11, 67196, Note_off_c, 7, 29, 64
11, 67200, Note_on_c, 7, 26, 86
11, 67916, Note_off_c, 7, 26, 64
11, 67920, Note_on_c, 7, 31, 86
11, 68036, Note_off_c, 7, 31, 64
11, 68040, Note_on_c, 7, 33, 86
11, 68276, Note_off_c, 7, 33, 64
11, 68280, Note_on_c, 7, 36, 76
11, 68516, Note_off_c, 7, 36, 64
11, 68520, Note_on_c, 7, 33, 55
11, 68636, Note_off_c, 7, 33, 64
11, 68640, Note_on_c, 7, 36, 84
11, 69116, Note_off_c, 7, 36, 64
11, 69120, Note_on_c, 7, 34, 63
11, 69596, Note_off_c, 7, 34, 64
11, 69600, Note_on_c, 7, 29, 59
11, 70076, Note_off_c, 7, 29, 64
11, 70080, Note_on_c, 7, 36, 84
11, 70556, Note_off_c, 7, 36, 64
11, 70560, Note_on_c, 7, 31, 77
11, 70796, Note_off_c, 7, 31, 64
11, 70800, Note_on_c, 7, 36, 50
11, 71036, Note_off_c, 7, 36, 64
11, 71040, Note_on_c, 7, 38, 64
11, 71516, Note_off_c, 7, 38, 64
11, 71520, Note_on_c, 7, 33, 62
11, 71996, Note_off_c, 7, 33, 64
11, 72000, Note_on_c, 7, 29, 69
11, 72356, Note_off_c, 7, 29, 64
11, 72360, Note_on_c, 7, 28, 75
11, 72476, Note_off_c, 7, 28, 64
11, 72480, Note_on_c, 7, 26, 68
11, 72480, Note_on_c, 7, 28, 60
11, 72716, Note_off_c, 7, 28, 64
11, 72716, Note_off_c, 7, 26, 64
11, 72720, Note_on_c, 7, 26, 72
11, 72956, Note_off_c, 7, 26, 64
11, 72960, Note_on_c, 7, 34, 55
11, 73436, Note_off_c, 7, 34, 64
11, 73440, Note_on_c, 7, 29, 79
11, 73916, Note_off_c, 7, 29, 64
11, 73920, Note_on_c, 7, 36, 60
11, 74396, Note_off_c, 7, 36, 64
11, 74400, Note_on_c, 7, 31, 52
11, 74876, Note_off_c, 7, 31, 64
11, 74880, Note_on_c, 7, 38, 59
11, 75356, Note_off_c, 7, 38, 64
11, 75480, Note_on_c, 7, 40, 80
11, 75596, Note_off_c, 7, 40, 64
11, 75840, Note_on_c, 7, 41, 81
11, 75956, Note_off_c, 7, 41, 64
11, 75960, Note_on_c, 7, 40, 50
11, 76316, Note_off_c, 7, 40, 64
11, 76320, Note_on_c, 7, 38, 66
11, 76556, Note_off_c, 7, 38, 64
11, 76560, Note_on_c, 7, 36, 78
11, 76796, Note_off_c, 7, 36, 64
11, 76800, Note_on_c, 7, 34, 80
11, 77156, Note_off_c, 7, 34, 64
11, 77160, Note_on_c, 7, 29, 64
11, 77276, Note_off_c, 7, 29, 64
11, 77280, Note_on_c, 7, 29, 73
11, 77756, Note_off_c, 7, 29, 64
11, 77760, Note_on_c, 7, 36, 60
11, 78116, Note_off_c, 7, 36, 64
11, 78120, Note_on_c, 7, 36, 82
11, 78236, Note_off_c, 7, 36, 64
11, 78240, Note_on_c, 7, 31, 55
11, 78596, Note_off_c, 7, 31, 64
11, 78600, Note_on_c, 7, 31, 74
11, 78716, Note_off_c, 7, 31, 64
11, 78720, Note_on_c, 7, 26, 51
11, 78956, Note_off_c, 7, 26, 64
11, 78960, Note_on_c, 7, 29, 67
11, 79196, Note_off_c, 7, 29, 64
11, 79200, Note_on_c, 7, 33, 78
11, 79436, Note_off_c, 7, 33, 64
11, 79440, Note_on_c, 7, 31, 50
11, 80396, Note_off_c, 7, 31, 64
11, 80400, Note_on_c, 7, 26, 81
11, 80636, Note_off_c, 7, 26, 64
11, 80640, Note_on_c, 7, 34, 52
11, 80996, Note_off_c, 7, 34, 64
11, 81000, Note_on_c, 7, 34, 59
11, 81116, Note_off_c, 7, 34, 64
11, 81120, Note_on_c, 7, 29, 83
11, 81356, Note_off_c, 7, 29, 64
11, 81360, Note_on_c, 7, 34, 87
11, 81596, Note_off_c, 7, 34, 64
11, 81600, Note_on_c, 7, 36, 80
11, 82076, Note_off_c, 7, 36, 64
11, 82080, Note_on_c, 7, 31, 62
11, 82316, Note_off_c, 7, 31, 64
11, 82320, Note_on_c, 7, 36, 69
11, 82556, Note_off_c, 7, 36, 64
11, 82560, Note_on_c, 7, 38, 57
11, 83036, Note_off_c, 7, 38, 64
11, 83040, Note_on_c, 7, 45, 64
11, 83156, Note_off_c, 7, 45, 64
11, 83160, Note_on_c, 7, 43, 71
11, 83516, Note_off_c, 7, 43, 64
11, 83520, Note_on_c, 7, 41, 48
11, 83756, Note_off_c, 7, 41, 64
11, 83760, Note_on_c, 7, 40, 68
11, 83996, Note_off_c, 7, 40, 64
11, 84000, Note_on_c, 7, 38, 68
11, 84236, Note_off_c, 7, 38, 64
11, 84240, Note_on_c, 7, 36, 60
11, 84476, Note_off_c, 7, 36, 64
11, 84480, Note_on_c, 7, 34, 53
11, 84956, Note_off_c, 7, 34, 64
11, 84960, Note_on_c, 7, 29, 65
11, 85436, Note_off_c, 7, 29, 64
11, 85440, Note_on_c, 7, 36, 48
11, 85916, Note_off_c, 7, 36, 64
11, 85920, Note_on_c, 7, 29, 79
11, 86396, Note_off_c, 7, 29, 64
11, 86400, Note_on_c, 7, 26, 74
11, 86876, Note_off_c, 7, 26, 64
11, 87840, Note_on_c, 7, 29, 72
11, 88316, Note_off_c, 7, 29, 64
11, 88320, Note_on_c, 7, 26, 56
11, 88796, Note_off_c, 7, 26, 64
11, 89760, Note_on_c, 7, 36, 84
11, 89996, Note_off_c, 7, 36, 64
11, 90000, Note_on_c, 7, 38, 84
11, 90236, Note_off_c, 7, 38, 64
11, 90240, Note_on_c, 7, 26, 73
11, 90716, Note_off_c, 7, 26, 64
11, 91680, Note_on_c, 7, 29, 71
11, 92156, Note_off_c, 7, 29, 64
11, 92160, Note_on_c, 7, 26, 76
11, 92876, Note_off_c, 7, 26, 64
11, 92880, Note_on_c, 7, 31, 60
11, 92996, Note_off_c, 7, 31, 64
11, 93000, Note_on_c, 7, 33, 62
11, 93236, Note_off_c, 7, 33, 64
11, 93240, Note_on_c, 7, 36, 52
11, 93476, Note_off_c, 7, 36, 64
11, 93480, Note_on_c, 7, 33, 64
11, 93596, Note_off_c, 7, 33, 64
11, 93600, Note_on_c, 7, 36, 56
11, 94076, Note_off_c, 7, 36, 64
11, 94080, Note_on_c, 7, 34, 56
11, 94556, Note_off_c, 7, 34, 64
11, 94560, Note_on_c, 7, 29, 68
11, 95036, Note_off_c, 7, 29, 64
11, 95040, Note_on_c, 7, 36, 88
11, 95516, Note_off_c, 7, 36, 64
11, 95520, Note_on_c, 7, 31, 66
11, 95996, Note_off_c, 7, 31, 64
11, 96000, Note_on_c, 7, 26, 80
11, 96476, Note_off_c, 7, 26, 64
11, 96600, Note_on_c, 7, 28, 71
11, 96716, Note_off_c, 7, 28, 64
11, 96840, Note_on_c, 7, 28, 73
11, 96956, Note_off_c, 7, 28, 64
11, 96960, Note_on_c, 7, 29, 71
11, 97196, Note_off_c, 7, 29, 64
11, 97200, Note_on_c, 7, 26, 60
11, 97436, Note_off_c, 7, 26, 64
11, 97440, Note_on_c, 7, 29, 78
11, 97676, Note_off_c, 7, 29, 64
11, 97680, Note_on_c, 7, 33, 70
11, 97916, Note_off_c, 7, 33, 64
11, 97920, Note_on_c, 7, 34, 80
11, 98276, Note_off_c, 7, 34, 64
11, 98280, Note_on_c, 7, 34, 68
11, 98396, Note_off_c, 7, 34, 64
11, 98400, Note_on_c, 7, 29, 79
11, 98756, Note_off_c, 7, 29, 64
11, 98760, Note_on_c, 7, 29, 73
11, 98876, Note_off_c, 7, 29, 64
11, 98880, Note_on_c, 7, 36, 56
11, 99356, Note_off_c, 7, 36, 64
11, 99360, Note_on_c, 7, 31, 62
11, 99836, Note_off_c, 7, 31, 64
11, 99840, Note_on_c, 7, 38, 61
11, 100316, Note_off_c, 7, 38, 64
11, 100320, Note_on_c, 7, 45, 64
11, 100436, Note_off_c, 7, 45, 64
11, 100440, Note_on_c, 7, 48, 53
11, 100796, Note_off_c, 7, 48, 64
11, 100800, Note_on_c, 7, 43, 56
11, 100916, Note_off_c, 7, 43, 64
11, 100920, Note_on_c, 7, 45, 57
11, 101276, Note_off_c, 7, 45, 64
11, 101280, Note_on_c, 7, 41, 55
11, 101396, Note_off_c, 7, 41, 64
11, 101400, Note_on_c, 7, 38, 73
11, 101756, Note_off_c, 7, 38, 64
11, 101760, Note_on_c, 7, 34, 78
11, 102116, Note_off_c, 7, 34, 64
11, 102120, Note_on_c, 7, 34, 51
11, 102236, Note_off_c, 7, 34, 64
11, 102240, Note_on_c, 7, 29, 53
11, 102596, Note_off_c, 7, 29, 64
11, 102600, Note_on_c, 7, 29, 87
11, 102716, Note_off_c, 7, 29, 64
11, 102720, Note_on_c, 7, 36, 64
11, 103196, Note_off_c, 7, 36, 64
11, 103200, Note_on_c, 7, 31, 75
11, 103676, Note_off_c, 7, 31, 64
11, 103680, Note_on_c, 7, 26, 72
11, 103916, Note_off_c, 7, 26, 64
11, 103920, Note_on_c, 7, 29, 62
11, 104156, Note_off_c, 7, 29, 64
11, 104160, Note_on_c, 7, 33, 68
11, 104396, Note_off_c, 7, 33, 64
11, 104400, Note_on_c, 7, 31, 52
11, 105356, Note_off_c, 7, 31, 64
11, 105600, Note_on_c, 7, 34, 72
11, 106076, Note_off_c, 7, 34, 64
11, 106080, Note_on_c, 7, 29, 86
11, 106556, Note_off_c, 7, 29, 64
11, 106560, Note_on_c, 7, 36, 88
11, 107036, Note_off_c, 7, 36, 64
11, 107040, Note_on_c, 7, 48, 60
11, 107516, Note_off_c, 7, 48, 64
11, 107760, Note_on_c, 7, 36, 56
11, 107996, Note_off_c, 7, 36, 64
11, 108120, Note_on_c, 7, 36, 67
11, 108476, Note_off_c, 7, 36, 64
11, 108480, Note_on_c, 7, 38, 83
11, 108956, Note_off_c, 7, 38, 64
11, 108960, Note_on_c, 7, 36, 69
11, 109436, Note_off_c, 7, 36, 64
11, 109440, Note_on_c, 7, 34, 68
11, 109796, Note_off_c, 7, 34, 64
11, 109800, Note_on_c, 7, 34, 75
11, 109916, Note_off_c, 7, 34, 64
11, 109920, Note_on_c, 7, 29, 87
11, 110276, Note_off_c, 7, 29, 64
11, 110280, Note_on_c, 7, 29, 83
11, 110396, Note_off_c, 7, 29, 64
11, 110400, Note_on_c, 7, 36, 48
11, 110876, Note_off_c, 7, 36, 64
11, 110880, Note_on_c, 7, 31, 57
11, 111356, Note_off_c, 7, 31, 64
11, 111360, Note_on_c, 7, 38, 83
11, 111836, Note_off_c, 7, 38, 64
11, 111840, Note_on_c, 7, 38, 52
11, 111956, Note_off_c, 7, 38, 64
11, 111960, Note_on_c, 7, 38, 50
11, 112316, Note_off_c, 7, 38, 64
11, 112320, Note_on_c, 7, 41, 59
11, 112436, Note_off_c, 7, 41, 64
11, 112440, Note_on_c, 7, 40, 84
11, 112796, Note_off_c, 7, 40, 64
11, 112800, Note_on_c, 7, 38, 79
11, 113276, Note_off_c, 7, 38, 64
11, 113280, Note_on_c, 7, 34, 64
11, 113636, Note_off_c, 7, 34, 64
11, 113640, Note_on_c, 7, 34, 79
11, 113756, Note_off_c, 7, 34, 64
11, 113760, Note_on_c, 7, 29, 51
11, 114116, Note_off_c, 7, 29, 64
11, 114120, Note_on_c, 7, 34, 81
11, 114236, Note_off_c, 7, 34, 64
11, 114240, Note_on_c, 7, 36, 76
11, 114596, Note_off_c, 7, 36, 64
11, 114600, Note_on_c, 7, 36, 48
11, 114716, Note_off_c, 7, 36, 64
11, 114720, Note_on_c, 7, 31, 75
11, 115196, Note_off_c, 7, 31, 64
11, 115200, Note_on_c, 7, 50, 52
11, 115316, Note_off_c, 7, 50, 64
11, 115320, Note_on_c, 7, 48, 72
11, 115676, Note_off_c, 7, 48, 64
11, 115680, Note_on_c, 7, 45, 72
11, 115796, Note_off_c, 7, 45, 64
11, 115800, Note_on_c, 7, 43, 54
11, 116156, Note_off_c, 7, 43, 64
11, 116160, Note_on_c, 7, 41, 68
11, 116276, Note_off_c, 7, 41, 64
11, 116280, Note_on_c, 7, 38, 65
11, 116636, Note_off_c, 7, 38, 64
11, 116640, Note_on_c, 7, 36, 86
11, 117116, Note_off_c, 7, 36, 64
11, 117120, Note_on_c, 7, 34, 52
11, 117476, Note_off_c, 7, 34, 64
11, 117480, Note_on_c, 7, 34, 56
11, 117596, Note_off_c, 7, 34, 64
11, 117600, Note_on_c, 7, 29, 67
11, 117956, Note_off_c, 7, 29, 64
11, 117960, Note_on_c, 7, 34, 64
11, 118076, Note_off_c, 7, 34, 64
11, 118080, Note_on_c, 7, 36, 67
11, 118436, Note_off_c, 7, 36, 64
11, 118440, Note_on_c, 7, 36, 67
11, 118556, Note_off_c, 7, 36, 64
11, 118560, Note_on_c, 7, 31, 80
11, 119036, Note_off_c, 7, 31, 64
11, 119040, Note_on_c, 7, 26, 65
11, 119276, Note_off_c, 7, 26, 64
11, 119280, Note_on_c, 7, 29, 69
11, 119516, Note_off_c, 7, 29, 64
11, 119520, Note_on_c, 7, 33, 50
11, 119756, Note_off_c, 7, 33, 64
11, 119760, Note_on_c, 7, 31, 48
11, 120716, Note_off_c, 7, 31, 64
11, 120960, Note_on_c, 7, 34, 71
11, 121316, Note_off_c, 7, 34, 64
11, 121320, Note_on_c, 7, 34, 76
11, 121436, Note_off_c, 7, 34, 64
11, 121440, Note_on_c, 7, 29, 55
11, 121796, Note_off_c, 7, 29, 64
11, 121800, Note_on_c, 7, 34, 59
11, 121916, Note_off_c, 7, 34, 64
11, 121920, Note_on_c, 7, 36, 86
11, 122276, Note_off_c, 7, 36, 64
11, 122280, Note_on_c, 7, 36, 66
11, 122396, Note_off_c, 7, 36, 64
11, 122400, Note_on_c, 7, 31, 55
11, 122876, Note_off_c, 7, 31, 64
11, 123120, Note_on_c, 7, 36, 53
11, 123356, Note_off_c, 7, 36, 64
11, 123480, Note_on_c, 7, 36, 76
11, 123836, Note_off_c, 7, 36, 64
11, 123840, Note_on_c, 7, 38, 69
11, 124316, Note_off_c, 7, 38, 64
11, 124320, Note_on_c, 7, 36, 80
11, 124796, Note_off_c, 7, 36, 64
11, 124800, Note_on_c, 7, 34, 88
11, 125156, Note_off_c, 7, 34, 64
11, 125160, Note_on_c, 7, 34, 70
11, 125276, Note_off_c, 7, 34, 64
11, 125280, Note_on_c, 7, 29, 52
11, 125636, Note_off_c, 7, 29, 64
11, 125640, Note_on_c, 7, 34, 49
11, 125756, Note_off_c, 7, 34, 64
11, 125760, Note_on_c, 7, 36, 52
11, 126116, Note_off_c, 7, 36, 64
11, 126120, Note_on_c, 7, 36, 67
11, 126236, Note_off_c, 7, 36, 64
11, 126240, Note_on_c, 7, 43, 57
11, 126476, Note_off_c, 7, 43, 64
11, 126480, Note_on_c, 7, 36, 80
11, 126716, Note_off_c, 7, 36, 64
11, 126720, Note_on_c, 7, 38, 58
11, 127196, Note_off_c, 7, 38, 64
11, 127200, Note_on_c, 7, 45, 72
11, 127316, Note_off_c, 7, 45, 64
11, 127320, Note_on_c, 7, 38, 56
11, 127556, Note_off_c, 7, 38, 64
11, 127560, Note_on_c, 7, 45, 84
11, 127676, Note_off_c, 7, 45, 64
11, 127680, Note_on_c, 7, 38, 56
11, 127916, Note_off_c, 7, 38, 64
11, 127920, Note_on_c, 7, 38, 51
11, 128156, Note_off_c, 7, 38, 64
11, 128160, Note_on_c, 7, 45, 60
11, 128396, Note_off_c, 7, 45, 64
11, 128400, Note_on_c, 7, 38, 80
11, 128636, Note_off_c, 7, 38, 64
11, 128640, Note_on_c, 7, 34, 63
11, 129116, Note_off_c, 7, 34, 64
11, 129120, Note_on_c, 7, 29, 60
11, 129476, Note_off_c, 7, 29, 64
11, 129480, Note_on_c, 7, 29, 67
11, 129596, Note_off_c, 7, 29, 64
11, 129600, Note_on_c, 7, 36, 56
11, 130076, Note_off_c, 7, 36, 64
11, 130080, Note_on_c, 7, 24, 72
11, 130436, Note_off_c, 7, 24, 64
11, 130440, Note_on_c, 7, 36, 88
11, 130556, Note_off_c, 7, 36, 64
11, 130560, Note_on_c, 7, 38, 52
11, 130796, Note_off_c, 7, 38, 64
11, 130800, Note_on_c, 7, 38, 83
11, 131036, Note_off_c, 7, 38, 64
11, 131280, Note_on_c, 7, 50, 50
11, 131396, Note_off_c, 7, 50, 64
11, 131400, Note_on_c, 7, 50, 68
11, 131636, Note_off_c, 7, 50, 64
11, 131640, Note_on_c, 7, 50, 57
11, 131876, Note_off_c, 7, 50, 64
11, 131880, Note_on_c, 7, 50, 64
11, 131996, Note_off_c, 7, 50, 64
11, 132000, Note_on_c, 7, 45, 69
11, 132476, Note_off_c, 7, 45, 64
11, 132480, Note_on_c, 7, 34, 64
11, 132956, Note_off_c, 7, 34, 64
11, 132960, Note_on_c, 7, 29, 66
11, 133436, Note_off_c, 7, 29, 64
11, 133440, Note_on_c, 7, 36, 63
11, 133916, Note_off_c, 7, 36, 64
11, 133920, Note_on_c, 7, 31, 56
11, 134396, Note_off_c, 7, 31, 64
11, 134400, Note_on_c, 7, 26, 88
11, 134636, Note_off_c, 7, 26, 64
11, 134880, Note_on_c, 7, 33, 56
11, 135116, Note_off_c, 7, 33, 64
11, 135120, Note_on_c, 7, 31, 66
11, 136076, Note_off_c, 7, 31, 64
11, 136080, Note_on_c, 7, 36, 61
11, 136196, Note_off_c, 7, 36, 64
11, 136200, Note_on_c, 7, 35, 48
11, 136316, Note_off_c, 7, 35, 64
11, 136320, Note_on_c, 7, 34, 56
11, 136796, Note_off_c, 7, 34, 64
11, 136800, Note_on_c, 7, 29, 72
11, 137156, Note_off_c, 7, 29, 64
11, 137160, Note_on_c, 7, 34, 64
11, 137276, Note_off_c, 7, 34, 64
11, 137280, Note_on_c, 7, 36, 68
11, 137756, Note_off_c, 7, 36, 64
11, 137760, Note_on_c, 7, 48, 84
11, 138236, Note_off_c, 7, 48, 64
11, 138480, Note_on_c, 7, 36, 68
11, 138716, Note_off_c, 7, 36, 64
11, 138840, Note_on_c, 7, 36, 83
11, 139196, Note_off_c, 7, 36, 64
11, 139200, Note_on_c, 7, 38, 76
11, 139916, Note_off_c, 7, 38, 64
11, 140160, Note_on_c, 7, 26, 48
11, 140636, Note_off_c, 7, 26, 64
11, 142080, Note_on_c, 7, 26, 55
11, 142556, Note_off_c, 7, 26, 64
11, 144000, Note_on_c, 7, 26, 75
11, 144476, Note_off_c, 7, 26, 64
11, 145920, Note_on_c, 7, 26, 51
11, 146636, Note_off_c, 7, 26, 64
11, 146640, Note_on_c, 7, 43, 65
11, 146756, Note_off_c, 7, 43, 64
11, 146760, Note_on_c, 7, 45, 68
11, 146996, Note_off_c, 7, 45, 64
11, 147000, Note_on_c, 7, 48, 55
11, 147236, Note_off_c, 7, 48, 64
11, 147240, Note_on_c, 7, 45, 81
11, 147356, Note_off_c, 7, 45, 64
11, 147360, Note_on_c, 7, 48, 84
11, 147836, Note_off_c, 7, 48, 64
11, 147840, Note_on_c, 7, 26, 89
11, 148316, Note_off_c, 7, 26, 64
11, 149760, Note_on_c, 7, 26, 89
11, 150236, Note_off_c, 7, 26, 64
11, 151680, Note_on_c, 7, 26, 80
11, 152156, Note_off_c, 7, 26, 64
11, 153600, Note_on_c, 7, 26, 50
11, 154316, Note_off_c, 7, 26, 64
11, 154320, Note_on_c, 7, 43, 81
11, 154436, Note_off_c, 7, 43, 64
11, 154440, Note_on_c, 7, 45, 52
11, 154676, Note_off_c, 7, 45, 64
11, 154680, Note_on_c, 7, 48, 59
11, 154916, Note_off_c, 7, 48, 64
11, 154920, Note_on_c, 7, 45, 77
11, 155036, Note_off_c, 7, 45, 64
11, 155040, Note_on_c, 7, 50, 73
11, 155516, Note_off_c, 7, 50, 64
11, 155520, Note_on_c, 7, 26, 48
11, 155996, Note_off_c, 7, 26, 64
11, 157440, Note_on_c, 7, 26, 63
11, 157916, Note_off_c, 7, 26, 64
11, 158880, Note_on_c, 7, 29, 83
11, 159356, Note_off_c, 7, 29, 64
11, 159360, Note_on_c, 7, 26, 83
11, 159836, Note_off_c, 7, 26, 64
11, 161280, Note_on_c, 7, 26, 48
11, 161996, Note_off_c, 7, 26, 64
11, 162360, Note_on_c, 7, 36, 82
11, 162596, Note_off_c, 7, 36, 64
11, 162600, Note_on_c, 7, 33, 51
11, 162716, Note_off_c, 7, 33, 64
11, 162720, Note_on_c, 7, 38, 86
11, 163196, Note_off_c, 7, 38, 64
11, 163200, Note_on_c, 7, 26, 74
11, 163916, Note_off_c, 7, 26, 64
11, 164280, Note_on_c, 7, 45, 80
11, 164516, Note_off_c, 7, 45, 64
11, 164520, Note_on_c, 7, 48, 56
11, 164636, Note_off_c, 7, 48, 64
11, 164640, Note_on_c, 7, 29, 76
11, 165116, Note_off_c, 7, 29, 64
11, 165120, Note_on_c, 7, 26, 56
11, 165596, Note_off_c, 7, 26, 64
11, 167040, Note_on_c, 7, 26, 82
11, 167756, Note_off_c, 7, 26, 64
11, 168120, Note_on_c, 7, 29, 78
11, 168476, Note_off_c, 7, 29, 64
11, 168480, Note_on_c, 7, 29, 84
11, 168956, Note_off_c, 7, 29, 64
11, 168960, Note_on_c, 7, 26, 71
11, 169436, Note_off_c, 7, 26, 64
11, 170880, Note_on_c, 7, 34, 88
11, 171236, Note_off_c, 7, 34, 64
11, 171240, Note_on_c, 7, 34, 74
11, 171356, Note_off_c, 7, 34, 64
11, 171600, Note_on_c, 7, 36, 79
11, 172076, Note_off_c, 7, 36, 64
11, 173280, Control_c, 7, 91, 0
11, 173280, Control_c, 7, 93, 0
11, 173280, Control_c, 7, 1, 0
11, 173280, Control_c, 7, 0, 0
11, 173280, Control_c, 7, 10, 64
11, 173280, Control_c, 7, 64, 0
11, 173280, Control_c, 7, 7, 127
11, 173280, Pitch_bend_c, 7, 8192
11, 173280, End_track
12, 0, Start_track
12, 0, Title_t, "Kick"
12, 0, MIDI_port, 0
12, 0, Channel_prefix, 9
12, 0, Control_c, 9, 10, 64
12, 20, Control_c, 9, 121, 0
12, 20, Control_c, 9, 0, 0
12, 20, Control_c, 9, 7, 127
12, 20, Control_c, 9, 91, 99
12, 20, Control_c, 9, 93, 0
12, 20, Control_c, 9, 10, 64
12, 20, Control_c, 9, 1, 0
12, 20, Control_c, 9, 64, 0
12, 20, Pitch_bend_c, 9, 8192
12, 668, Program_c, 9, 0
12, 4320, Note_on_c, 9, 36, 121
12, 4352, Note_off_c, 9, 36, 64
12, 5280, Note_on_c, 9, 36, 123
12, 5312, Note_off_c, 9, 36, 64
12, 6240, Note_on_c, 9, 36, 106
12, 6272, Note_off_c, 9, 36, 64
12, 7200, Note_on_c, 9, 36, 126
12, 7232, Note_off_c, 9, 36, 64
12, 8160, Note_on_c, 9, 36, 101
12, 8192, Note_off_c, 9, 36, 64
12, 9120, Note_on_c, 9, 36, 105
12, 9152, Note_off_c, 9, 36, 64
12, 10080, Note_on_c, 9, 36, 106
12, 10112, Note_off_c, 9, 36, 64
12, 11040, Note_on_c, 9, 36, 107
12, 11072, Note_off_c, 9, 36, 64
12, 12000, Note_on_c, 9, 36, 100
12, 12032, Note_off_c, 9, 36, 64
12, 12960, Note_on_c, 9, 36, 106
12, 12992, Note_off_c, 9, 36, 64
12, 13920, Note_on_c, 9, 36, 120
12, 13952, Note_off_c, 9, 36, 64
12, 14880, Note_on_c, 9, 36, 125
12, 14912, Note_off_c, 9, 36, 64
12, 15840, Note_on_c, 9, 36, 116
12, 15872, Note_off_c, 9, 36, 64
12, 16800, Note_on_c, 9, 36, 103
12, 16832, Note_off_c, 9, 36, 64
12, 17760, Note_on_c, 9, 36, 113
12, 17792, Note_off_c, 9, 36, 64
12, 18720, Note_on_c, 9, 36, 106
12, 18728, Note_off_c, 9, 36, 64
12, 19200, Note_on_c, 9, 36, 110
12, 19232, Note_off_c, 9, 36, 64
12, 19680, Note_on_c, 9, 36, 125
12, 19712, Note_off_c, 9, 36, 64
12, 20160, Note_on_c, 9, 36, 110
12, 20192, Note_off_c, 9, 36, 64
12, 20640, Note_on_c, 9, 36, 111
12, 20672, Note_off_c, 9, 36, 64
12, 21120, Note_on_c, 9, 36, 105
12, 21152, Note_off_c, 9, 36, 64
12, 21600, Note_on_c, 9, 36, 101
12, 21632, Note_off_c, 9, 36, 64
12, 22080, Note_on_c, 9, 36, 119
12, 22112, Note_off_c, 9, 36, 64
12, 22560, Note_on_c, 9, 36, 116
12, 22592, Note_off_c, 9, 36, 64
12, 23040, Note_on_c, 9, 36, 117
12, 23072, Note_off_c, 9, 36, 64
12, 23520, Note_on_c, 9, 36, 121
12, 23552, Note_off_c, 9, 36, 64
12, 24000, Note_on_c, 9, 36, 100
12, 24032, Note_off_c, 9, 36, 64
12, 24480, Note_on_c, 9, 36, 115
12, 24512, Note_off_c, 9, 36, 64
12, 24960, Note_on_c, 9, 36, 113
12, 24992, Note_off_c, 9, 36, 64
12, 25440, Note_on_c, 9, 36, 118
12, 25472, Note_off_c, 9, 36, 64
12, 25920, Note_on_c, 9, 36, 120
12, 25952, Note_off_c, 9, 36, 64
12, 26400, Note_on_c, 9, 36, 105
12, 26432, Note_off_c, 9, 36, 64
12, 26880, Note_on_c, 9, 36, 123
12, 26912, Note_off_c, 9, 36, 64
12, 27360, Note_on_c, 9, 36, 110
12, 27392, Note_off_c, 9, 36, 64
12, 27840, Note_on_c, 9, 36, 127
12, 27872, Note_off_c, 9, 36, 64
12, 28320, Note_on_c, 9, 36, 114
12, 28352, Note_off_c, 9, 36, 64
12, 28800, Note_on_c, 9, 36, 125
12, 28832, Note_off_c, 9, 36, 64
12, 29280, Note_on_c, 9, 36, 118
12, 29312, Note_off_c, 9, 36, 64
12, 29760, Note_on_c, 9, 36, 117
12, 29792, Note_off_c, 9, 36, 64
12, 30240, Note_on_c, 9, 36, 108
12, 30272, Note_off_c, 9, 36, 64
12, 30720, Note_on_c, 9, 36, 126
12, 30752, Note_off_c, 9, 36, 64
12, 31200, Note_on_c, 9, 36, 122
12, 31232, Note_off_c, 9, 36, 64
12, 31680, Note_on_c, 9, 36, 111
12, 31712, Note_off_c, 9, 36, 64
12, 32160, Note_on_c, 9, 36, 107
12, 32192, Note_off_c, 9, 36, 64
12, 32640, Note_on_c, 9, 36, 116
12, 32672, Note_off_c, 9, 36, 64
12, 33120, Note_on_c, 9, 36, 110
12, 33152, Note_off_c, 9, 36, 64
12, 33600, Note_on_c, 9, 36, 103
12, 33632, Note_off_c, 9, 36, 64
12, 34320, Note_on_c, 9, 36, 105
12, 34336, Note_off_c, 9, 36, 64
12, 34560, Note_on_c, 9, 36, 104
12, 34592, Note_off_c, 9, 36, 64
12, 35040, Note_on_c, 9, 36, 124
12, 35072, Note_off_c, 9, 36, 64
12, 35520, Note_on_c, 9, 36, 102
12, 35552, Note_off_c, 9, 36, 64
12, 36000, Note_on_c, 9, 36, 104
12, 36032, Note_off_c, 9, 36, 64
12, 36480, Note_on_c, 9, 36, 99
12, 36512, Note_off_c, 9, 36, 64
12, 36960, Note_on_c, 9, 36, 113
12, 36992, Note_off_c, 9, 36, 64
12, 37440, Note_on_c, 9, 36, 114
12, 37472, Note_off_c, 9, 36, 64
12, 37920, Note_on_c, 9, 36, 125
12, 37952, Note_off_c, 9, 36, 64
12, 38400, Note_on_c, 9, 36, 99
12, 38432, Note_off_c, 9, 36, 64
12, 38880, Note_on_c, 9, 36, 103
12, 38912, Note_off_c, 9, 36, 64
12, 39360, Note_on_c, 9, 36, 103
12, 39392, Note_off_c, 9, 36, 64
12, 39840, Note_on_c, 9, 36, 112
12, 39872, Note_off_c, 9, 36, 64
12, 40320, Note_on_c, 9, 36, 109
12, 40352, Note_off_c, 9, 36, 64
12, 40800, Note_on_c, 9, 36, 114
12, 40832, Note_off_c, 9, 36, 64
12, 41280, Note_on_c, 9, 36, 99
12, 41312, Note_off_c, 9, 36, 64
12, 41760, Note_on_c, 9, 36, 119
12, 41792, Note_off_c, 9, 36, 64
12, 42240, Note_on_c, 9, 36, 111
12, 42272, Note_off_c, 9, 36, 64
12, 42720, Note_on_c, 9, 36, 107
12, 42752, Note_off_c, 9, 36, 64
12, 43200, Note_on_c, 9, 36, 109
12, 43216, Note_off_c, 9, 36, 64
12, 44160, Note_on_c, 9, 36, 101
12, 44192, Note_off_c, 9, 36, 64
12, 44640, Note_on_c, 9, 36, 112
12, 44672, Note_off_c, 9, 36, 64
12, 45120, Note_on_c, 9, 36, 112
12, 45152, Note_off_c, 9, 36, 64
12, 45600, Note_on_c, 9, 36, 114
12, 45632, Note_off_c, 9, 36, 64
12, 46080, Note_on_c, 9, 36, 120
12, 46112, Note_off_c, 9, 36, 64
12, 46560, Note_on_c, 9, 36, 124
12, 46592, Note_off_c, 9, 36, 64
12, 47040, Note_on_c, 9, 36, 123
12, 47072, Note_off_c, 9, 36, 64
12, 47520, Note_on_c, 9, 36, 102
12, 47552, Note_off_c, 9, 36, 64
12, 48000, Note_on_c, 9, 36, 104
12, 48032, Note_off_c, 9, 36, 64
12, 48480, Note_on_c, 9, 36, 105
12, 48512, Note_off_c, 9, 36, 64
12, 48960, Note_on_c, 9, 36, 114
12, 48992, Note_off_c, 9, 36, 64
12, 49440, Note_on_c, 9, 36, 105
12, 49472, Note_off_c, 9, 36, 64
12, 49920, Note_on_c, 9, 36, 121
12, 49952, Note_off_c, 9, 36, 64
12, 50400, Note_on_c, 9, 36, 117
12, 50432, Note_off_c, 9, 36, 64
12, 50880, Note_on_c, 9, 36, 121
12, 50912, Note_off_c, 9, 36, 64
12, 51360, Note_on_c, 9, 36, 122
12, 51392, Note_off_c, 9, 36, 64
12, 51840, Note_on_c, 9, 36, 121
12, 51872, Note_off_c, 9, 36, 64
12, 52320, Note_on_c, 9, 36, 106
12, 52352, Note_off_c, 9, 36, 64
12, 52800, Note_on_c, 9, 36, 118
12, 52832, Note_off_c, 9, 36, 64
12, 53280, Note_on_c, 9, 36, 105
12, 53312, Note_off_c, 9, 36, 64
12, 53760, Note_on_c, 9, 36, 121
12, 53792, Note_off_c, 9, 36, 64
12, 54240, Note_on_c, 9, 36, 117
12, 54272, Note_off_c, 9, 36, 64
12, 54720, Note_on_c, 9, 36, 104
12, 54752, Note_off_c, 9, 36, 64
12, 55200, Note_on_c, 9, 36, 118
12, 55232, Note_off_c, 9, 36, 64
12, 55680, Note_on_c, 9, 36, 108
12, 55712, Note_off_c, 9, 36, 64
12, 56160, Note_on_c, 9, 36, 116
12, 56192, Note_off_c, 9, 36, 64
12, 56640, Note_on_c, 9, 36, 104
12, 56672, Note_off_c, 9, 36, 64
12, 57120, Note_on_c, 9, 36, 102
12, 57152, Note_off_c, 9, 36, 64
12, 57600, Note_on_c, 9, 36, 112
12, 57632, Note_off_c, 9, 36, 64
12, 58080, Note_on_c, 9, 36, 126
12, 58112, Note_off_c, 9, 36, 64
12, 58560, Note_on_c, 9, 36, 122
12, 58592, Note_off_c, 9, 36, 64
12, 59040, Note_on_c, 9, 36, 102
12, 59072, Note_off_c, 9, 36, 64
12, 59520, Note_on_c, 9, 36, 113
12, 59552, Note_off_c, 9, 36, 64
12, 60000, Note_on_c, 9, 36, 108
12, 60032, Note_off_c, 9, 36, 64
12, 60480, Note_on_c, 9, 36, 113
12, 60496, Note_off_c, 9, 36, 64
12, 61440, Note_on_c, 9, 36, 120
12, 61472, Note_off_c, 9, 36, 64
12, 61920, Note_on_c, 9, 36, 126
12, 61952, Note_off_c, 9, 36, 64
12, 62400, Note_on_c, 9, 36, 112
12, 62432, Note_off_c, 9, 36, 64
12, 62880, Note_on_c, 9, 36, 121
12, 62912, Note_off_c, 9, 36, 64
12, 63360, Note_on_c, 9, 36, 119
12, 63392, Note_off_c, 9, 36, 64
12, 63840, Note_on_c, 9, 36, 115
12, 63872, Note_off_c, 9, 36, 64
12, 64320, Note_on_c, 9, 36, 101
12, 64352, Note_off_c, 9, 36, 64
12, 64800, Note_on_c, 9, 36, 115
12, 64832, Note_off_c, 9, 36, 64
12, 65280, Note_on_c, 9, 36, 117
12, 65312, Note_off_c, 9, 36, 64
12, 65760, Note_on_c, 9, 36, 111
12, 65792, Note_off_c, 9, 36, 64
12, 66240, Note_on_c, 9, 36, 112
12, 66272, Note_off_c, 9, 36, 64
12, 66720, Note_on_c, 9, 36, 102
12, 66752, Note_off_c, 9, 36, 64
12, 67200, Note_on_c, 9, 36, 112
12, 67232, Note_off_c, 9, 36, 64
12, 67680, Note_on_c, 9, 36, 107
12, 67712, Note_off_c, 9, 36, 64
12, 68160, Note_on_c, 9, 36, 120
12, 68176, Note_off_c, 9, 36, 64
12, 68640, Note_on_c, 9, 36, 118
12, 68648, Note_off_c, 9, 36, 64
12, 69120, Note_on_c, 9, 36, 122
12, 69152, Note_off_c, 9, 36, 64
12, 69600, Note_on_c, 9, 36, 123
12, 69632, Note_off_c, 9, 36, 64
12, 70080, Note_on_c, 9, 36, 111
12, 70112, Note_off_c, 9, 36, 64
12, 70560, Note_on_c, 9, 36, 113
12, 70592, Note_off_c, 9, 36, 64
12, 71040, Note_on_c, 9, 36, 119
12, 71072, Note_off_c, 9, 36, 64
12, 71520, Note_on_c, 9, 36, 108
12, 71552, Note_off_c, 9, 36, 64
12, 72000, Note_on_c, 9, 36, 103
12, 72032, Note_off_c, 9, 36, 64
12, 72480, Note_on_c, 9, 36, 127
12, 72512, Note_off_c, 9, 36, 64
12, 72960, Note_on_c, 9, 36, 106
12, 72992, Note_off_c, 9, 36, 64
12, 73440, Note_on_c, 9, 36, 106
12, 73472, Note_off_c, 9, 36, 64
12, 73920, Note_on_c, 9, 36, 110
12, 73952, Note_off_c, 9, 36, 64
12, 74400, Note_on_c, 9, 36, 121
12, 74432, Note_off_c, 9, 36, 64
12, 74880, Note_on_c, 9, 36, 114
12, 74912, Note_off_c, 9, 36, 64
12, 75360, Note_on_c, 9, 36, 99
12, 75392, Note_off_c, 9, 36, 64
12, 75840, Note_on_c, 9, 36, 114
12, 75872, Note_off_c, 9, 36, 64
12, 76320, Note_on_c, 9, 36, 103
12, 76352, Note_off_c, 9, 36, 64
12, 76800, Note_on_c, 9, 36, 116
12, 76832, Note_off_c, 9, 36, 64
12, 77280, Note_on_c, 9, 36, 123
12, 77312, Note_off_c, 9, 36, 64
12, 77760, Note_on_c, 9, 36, 121
12, 77792, Note_off_c, 9, 36, 64
12, 78240, Note_on_c, 9, 36, 115
12, 78272, Note_off_c, 9, 36, 64
12, 78720, Note_on_c, 9, 36, 116
12, 78752, Note_off_c, 9, 36, 64
12, 79200, Note_on_c, 9, 36, 124
12, 79232, Note_off_c, 9, 36, 64
12, 79680, Note_on_c, 9, 36, 109
12, 79712, Note_off_c, 9, 36, 64
12, 80160, Note_on_c, 9, 36, 99
12, 80192, Note_off_c, 9, 36, 64
12, 80640, Note_on_c, 9, 36, 124
12, 80672, Note_off_c, 9, 36, 64
12, 81120, Note_on_c, 9, 36, 105
12, 81152, Note_off_c, 9, 36, 64
12, 81600, Note_on_c, 9, 36, 125
12, 81632, Note_off_c, 9, 36, 64
12, 82080, Note_on_c, 9, 36, 99
12, 82112, Note_off_c, 9, 36, 64
12, 82560, Note_on_c, 9, 36, 115
12, 82592, Note_off_c, 9, 36, 64
12, 83040, Note_on_c, 9, 36, 107
12, 83072, Note_off_c, 9, 36, 64
12, 83520, Note_on_c, 9, 36, 122
12, 83552, Note_off_c, 9, 36, 64
12, 84000, Note_on_c, 9, 36, 104
12, 84032, Note_off_c, 9, 36, 64
12, 84480, Note_on_c, 9, 36, 125
12, 84512, Note_off_c, 9, 36, 64
12, 84960, Note_on_c, 9, 36, 105
12, 84992, Note_off_c, 9, 36, 64
12, 85440, Note_on_c, 9, 36, 119
12, 85456, Note_off_c, 9, 36, 64
12, 85920, Note_on_c, 9, 36, 109
12, 85936, Note_off_c, 9, 36, 64
12, 86400, Note_on_c, 9, 36, 125
12, 86432, Note_off_c, 9, 36, 64
12, 86880, Note_on_c, 9, 36, 104
12, 86912, Note_off_c, 9, 36, 64
12, 87360, Note_on_c, 9, 36, 109
12, 87392, Note_off_c, 9, 36, 64
12, 87840, Note_on_c, 9, 36, 116
12, 87872, Note_off_c, 9, 36, 64
12, 88320, Note_on_c, 9, 36, 101
12, 88352, Note_off_c, 9, 36, 64
12, 88800, Note_on_c, 9, 36, 110
12, 88832, Note_off_c, 9, 36, 64
12, 89280, Note_on_c, 9, 36, 106
12, 89312, Note_off_c, 9, 36, 64
12, 89760, Note_on_c, 9, 36, 112
12, 89792, Note_off_c, 9, 36, 64
12, 90240, Note_on_c, 9, 36, 109
12, 90272, Note_off_c, 9, 36, 64
12, 90720, Note_on_c, 9, 36, 115
12, 90752, Note_off_c, 9, 36, 64
12, 91200, Note_on_c, 9, 36, 117
12, 91232, Note_off_c, 9, 36, 64
12, 91680, Note_on_c, 9, 36, 107
12, 91712, Note_off_c, 9, 36, 64
12, 92160, Note_on_c, 9, 36, 126
12, 92192, Note_off_c, 9, 36, 64
12, 92640, Note_on_c, 9, 36, 124
12, 92672, Note_off_c, 9, 36, 64
12, 93120, Note_on_c, 9, 36, 112
12, 93136, Note_off_c, 9, 36, 64
12, 93600, Note_on_c, 9, 36, 116
12, 93608, Note_off_c, 9, 36, 64
12, 94080, Note_on_c, 9, 36, 118
12, 94112, Note_off_c, 9, 36, 64
12, 94560, Note_on_c, 9, 36, 101
12, 94592, Note_off_c, 9, 36, 64
12, 95040, Note_on_c, 9, 36, 120
12, 95072, Note_off_c, 9, 36, 64
12, 95520, Note_on_c, 9, 36, 124
12, 95552, Note_off_c, 9, 36, 64
12, 96000, Note_on_c, 9, 36, 124
12, 96032, Note_off_c, 9, 36, 64
12, 96480, Note_on_c, 9, 36, 118
12, 96512, Note_off_c, 9, 36, 64
12, 96960, Note_on_c, 9, 36, 118
12, 96992, Note_off_c, 9, 36, 64
12, 97440, Note_on_c, 9, 36, 127
12, 97456, Note_off_c, 9, 36, 64
12, 97920, Note_on_c, 9, 36, 103
12, 97952, Note_off_c, 9, 36, 64
12, 98400, Note_on_c, 9, 36, 126
12, 98432, Note_off_c, 9, 36, 64
12, 98880, Note_on_c, 9, 36, 104
12, 98912, Note_off_c, 9, 36, 64
12, 99360, Note_on_c, 9, 36, 106
12, 99376, Note_off_c, 9, 36, 64
12, 99840, Note_on_c, 9, 36, 115
12, 99872, Note_off_c, 9, 36, 64
12, 100320, Note_on_c, 9, 36, 115
12, 100352, Note_off_c, 9, 36, 64
12, 100800, Note_on_c, 9, 36, 108
12, 100832, Note_off_c, 9, 36, 64
12, 101280, Note_on_c, 9, 36, 109
12, 101312, Note_off_c, 9, 36, 64
12, 101760, Note_on_c, 9, 36, 111
12, 101792, Note_off_c, 9, 36, 64
12, 102240, Note_on_c, 9, 36, 103
12, 102272, Note_off_c, 9, 36, 64
12, 102720, Note_on_c, 9, 36, 104
12, 102752, Note_off_c, 9, 36, 64
12, 103200, Note_on_c, 9, 36, 107
12, 103232, Note_off_c, 9, 36, 64
12, 103680, Note_on_c, 9, 36, 123
12, 103712, Note_off_c, 9, 36, 64
12, 104160, Note_on_c, 9, 36, 117
12, 104192, Note_off_c, 9, 36, 64
12, 104640, Note_on_c, 9, 36, 113
12, 104672, Note_off_c, 9, 36, 64
12, 105120, Note_on_c, 9, 36, 119
12, 105152, Note_off_c, 9, 36, 64
12, 105600, Note_on_c, 9, 36, 123
12, 105632, Note_off_c, 9, 36, 64
12, 106080, Note_on_c, 9, 36, 110
12, 106112, Note_off_c, 9, 36, 64
12, 106560, Note_on_c, 9, 36, 117
12, 106592, Note_off_c, 9, 36, 64
12, 107040, Note_on_c, 9, 36, 106
12, 107064, Note_off_c, 9, 36, 64
12, 107760, Note_on_c, 9, 36, 102
12, 107776, Note_off_c, 9, 36, 64
12, 108120, Note_on_c, 9, 36, 124
12, 108128, Note_off_c, 9, 36, 64
12, 108240, Note_on_c, 9, 36, 116
12, 108248, Note_off_c, 9, 36, 64
12, 108360, Note_on_c, 9, 36, 124
12, 108376, Note_off_c, 9, 36, 64
12, 109440, Note_on_c, 9, 36, 107
12, 109472, Note_off_c, 9, 36, 64
12, 109920, Note_on_c, 9, 36, 118
12, 109952, Note_off_c, 9, 36, 64
12, 110400, Note_on_c, 9, 36, 110
12, 110432, Note_off_c, 9, 36, 64
12, 110880, Note_on_c, 9, 36, 116
12, 110912, Note_off_c, 9, 36, 64
12, 111360, Note_on_c, 9, 36, 101
12, 111392, Note_off_c, 9, 36, 64
12, 111840, Note_on_c, 9, 36, 121
12, 111872, Note_off_c, 9, 36, 64
12, 112320, Note_on_c, 9, 36, 99
12, 112352, Note_off_c, 9, 36, 64
12, 112800, Note_on_c, 9, 36, 101
12, 112832, Note_off_c, 9, 36, 64
12, 113280, Note_on_c, 9, 36, 120
12, 113312, Note_off_c, 9, 36, 64
12, 113760, Note_on_c, 9, 36, 120
12, 113792, Note_off_c, 9, 36, 64
12, 114240, Note_on_c, 9, 36, 104
12, 114272, Note_off_c, 9, 36, 64
12, 114720, Note_on_c, 9, 36, 115
12, 114752, Note_off_c, 9, 36, 64
12, 115200, Note_on_c, 9, 36, 110
12, 115232, Note_off_c, 9, 36, 64
12, 115680, Note_on_c, 9, 36, 101
12, 115712, Note_off_c, 9, 36, 64
12, 116160, Note_on_c, 9, 36, 117
12, 116192, Note_off_c, 9, 36, 64
12, 116640, Note_on_c, 9, 36, 120
12, 116672, Note_off_c, 9, 36, 64
12, 117120, Note_on_c, 9, 36, 124
12, 117152, Note_off_c, 9, 36, 64
12, 117600, Note_on_c, 9, 36, 123
12, 117632, Note_off_c, 9, 36, 64
12, 118080, Note_on_c, 9, 36, 100
12, 118112, Note_off_c, 9, 36, 64
12, 118560, Note_on_c, 9, 36, 122
12, 118592, Note_off_c, 9, 36, 64
12, 119040, Note_on_c, 9, 36, 105
12, 119072, Note_off_c, 9, 36, 64
12, 119520, Note_on_c, 9, 36, 106
12, 119552, Note_off_c, 9, 36, 64
12, 120000, Note_on_c, 9, 36, 116
12, 120032, Note_off_c, 9, 36, 64
12, 120480, Note_on_c, 9, 36, 122
12, 120512, Note_off_c, 9, 36, 64
12, 120960, Note_on_c, 9, 36, 120
12, 120992, Note_off_c, 9, 36, 64
12, 121440, Note_on_c, 9, 36, 111
12, 121472, Note_off_c, 9, 36, 64
12, 121920, Note_on_c, 9, 36, 101
12, 121952, Note_off_c, 9, 36, 64
12, 122400, Note_on_c, 9, 36, 125
12, 122424, Note_off_c, 9, 36, 64
12, 123120, Note_on_c, 9, 36, 124
12, 123136, Note_off_c, 9, 36, 64
12, 123480, Note_on_c, 9, 36, 107
12, 123496, Note_off_c, 9, 36, 64
12, 123720, Note_on_c, 9, 36, 122
12, 123728, Note_off_c, 9, 36, 64
12, 123840, Note_on_c, 9, 36, 121
12, 123864, Note_off_c, 9, 36, 64
12, 124560, Note_on_c, 9, 36, 109
12, 124576, Note_off_c, 9, 36, 64
12, 124800, Note_on_c, 9, 36, 116
12, 124832, Note_off_c, 9, 36, 64
12, 125280, Note_on_c, 9, 36, 126
12, 125312, Note_off_c, 9, 36, 64
12, 125760, Note_on_c, 9, 36, 105
12, 125792, Note_off_c, 9, 36, 64
12, 126240, Note_on_c, 9, 36, 111
12, 126272, Note_off_c, 9, 36, 64
12, 126720, Note_on_c, 9, 36, 102
12, 126752, Note_off_c, 9, 36, 64
12, 127200, Note_on_c, 9, 36, 117
12, 127232, Note_off_c, 9, 36, 64
12, 127680, Note_on_c, 9, 36, 125
12, 127712, Note_off_c, 9, 36, 64
12, 128160, Note_on_c, 9, 36, 107
12, 128192, Note_off_c, 9, 36, 64
12, 128640, Note_on_c, 9, 36, 122
12, 128672, Note_off_c, 9, 36, 64
12, 129120, Note_on_c, 9, 36, 116
12, 129152, Note_off_c, 9, 36, 64
12, 129600, Note_on_c, 9, 36, 105
12, 129632, Note_off_c, 9, 36, 64
12, 130080, Note_on_c, 9, 36, 111
12, 130112, Note_off_c, 9, 36, 64
12, 130560, Note_on_c, 9, 36, 109
12, 130592, Note_off_c, 9, 36, 64
12, 131040, Note_on_c, 9, 36, 114
12, 131072, Note_off_c, 9, 36, 64
12, 131520, Note_on_c, 9, 36, 103
12, 131552, Note_off_c, 9, 36, 64
12, 132000, Note_on_c, 9, 36, 110
12, 132032, Note_off_c, 9, 36, 64
12, 132480, Note_on_c, 9, 36, 115
12, 132512, Note_off_c, 9, 36, 64
12, 132960, Note_on_c, 9, 36, 123
12, 132992, Note_off_c, 9, 36, 64
12, 133440, Note_on_c, 9, 36, 110
12, 133472, Note_off_c, 9, 36, 64
12, 133920, Note_on_c, 9, 36, 111
12, 133952, Note_off_c, 9, 36, 64
12, 134400, Note_on_c, 9, 36, 100
12, 134432, Note_off_c, 9, 36, 64
12, 134880, Note_on_c, 9, 36, 115
12, 134912, Note_off_c, 9, 36, 64
12, 135360, Note_on_c, 9, 36, 116
12, 135392, Note_off_c, 9, 36, 64
12, 135840, Note_on_c, 9, 36, 108
12, 135872, Note_off_c, 9, 36, 64
12, 136320, Note_on_c, 9, 36, 127
12, 136352, Note_off_c, 9, 36, 64
12, 136800, Note_on_c, 9, 36, 100
12, 136832, Note_off_c, 9, 36, 64
12, 137280, Note_on_c, 9, 36, 118
12, 137312, Note_off_c, 9, 36, 64
12, 137760, Note_on_c, 9, 36, 115
12, 137784, Note_off_c, 9, 36, 64
12, 138480, Note_on_c, 9, 36, 99
12, 138496, Note_off_c, 9, 36, 64
12, 138840, Note_on_c, 9, 36, 104
12, 138856, Note_off_c, 9, 36, 64
12, 139080, Note_on_c, 9, 36, 106
12, 139088, Note_off_c, 9, 36, 64
12, 139200, Note_on_c, 9, 36, 106
12, 139232, Note_off_c, 9, 36, 64
12, 139680, Note_on_c, 9, 36, 107
12, 139712, Note_off_c, 9, 36, 64
12, 140160, Note_on_c, 9, 36, 116
12, 140192, Note_off_c, 9, 36, 64
12, 142080, Note_on_c, 9, 36, 104
12, 142112, Note_off_c, 9, 36, 64
12, 144000, Note_on_c, 9, 36, 110
12, 144032, Note_off_c, 9, 36, 64
12, 145920, Note_on_c, 9, 36, 118
12, 145952, Note_off_c, 9, 36, 64
12, 147840, Note_on_c, 9, 36, 122
12, 147872, Note_off_c, 9, 36, 64
12, 148320, Note_on_c, 9, 36, 112
12, 148352, Note_off_c, 9, 36, 64
12, 149280, Note_on_c, 9, 36, 109
12, 149312, Note_off_c, 9, 36, 64
12, 149760, Note_on_c, 9, 36, 121
12, 149792, Note_off_c, 9, 36, 64
12, 150240, Note_on_c, 9, 36, 120
12, 150272, Note_off_c, 9, 36, 64
12, 151200, Note_on_c, 9, 36, 122
12, 151232, Note_off_c, 9, 36, 64
12, 151680, Note_on_c, 9, 36, 106
12, 151712, Note_off_c, 9, 36, 64
12, 152160, Note_on_c, 9, 36, 116
12, 152192, Note_off_c, 9, 36, 64
12, 153120, Note_on_c, 9, 36, 107
12, 153152, Note_off_c, 9, 36, 64
12, 153600, Note_on_c, 9, 36, 121
12, 153632, Note_off_c, 9, 36, 64
12, 154080, Note_on_c, 9, 36, 117
12, 154112, Note_off_c, 9, 36, 64
12, 155040, Note_on_c, 9, 36, 99
12, 155056, Note_off_c, 9, 36, 64
12, 155520, Note_on_c, 9, 36, 99
12, 155552, Note_off_c, 9, 36, 64
12, 156000, Note_on_c, 9, 36, 121
12, 156032, Note_off_c, 9, 36, 64
12, 156480, Note_on_c, 9, 36, 102
12, 156512, Note_off_c, 9, 36, 64
12, 156960, Note_on_c, 9, 36, 106
12, 156992, Note_off_c, 9, 36, 64
12, 157440, Note_on_c, 9, 36, 123
12, 157472, Note_off_c, 9, 36, 64
12, 157920, Note_on_c, 9, 36, 109
12, 157952, Note_off_c, 9, 36, 64
12, 158400, Note_on_c, 9, 36, 110
12, 158432, Note_off_c, 9, 36, 64
12, 158880, Note_on_c, 9, 36, 123
12, 158912, Note_off_c, 9, 36, 64
12, 159360, Note_on_c, 9, 36, 100
12, 159392, Note_off_c, 9, 36, 64
12, 159840, Note_on_c, 9, 36, 110
12, 159872, Note_off_c, 9, 36, 64
12, 160320, Note_on_c, 9, 36, 100
12, 160352, Note_off_c, 9, 36, 64
12, 160800, Note_on_c, 9, 36, 111
12, 160832, Note_off_c, 9, 36, 64
12, 161280, Note_on_c, 9, 36, 108
12, 161312, Note_off_c, 9, 36, 64
12, 161760, Note_on_c, 9, 36, 119
12, 161792, Note_off_c, 9, 36, 64
12, 162240, Note_on_c, 9, 36, 123
12, 162272, Note_off_c, 9, 36, 64
12, 162720, Note_on_c, 9, 36, 121
12, 162752, Note_off_c, 9, 36, 64
12, 163200, Note_on_c, 9, 36, 127
12, 163232, Note_off_c, 9, 36, 64
12, 163680, Note_on_c, 9, 36, 115
12, 163712, Note_off_c, 9, 36, 64
12, 164160, Note_on_c, 9, 36, 125
12, 164192, Note_off_c, 9, 36, 64
12, 164640, Note_on_c, 9, 36, 126
12, 164672, Note_off_c, 9, 36, 64
12, 165120, Note_on_c, 9, 36, 104
12, 165152, Note_off_c, 9, 36, 64
12, 165600, Note_on_c, 9, 36, 109
12, 165632, Note_off_c, 9, 36, 64
12, 166080, Note_on_c, 9, 36, 126
12, 166112, Note_off_c, 9, 36, 64
12, 166560, Note_on_c, 9, 36, 118
12, 166592, Note_off_c, 9, 36, 64
12, 167040, Note_on_c, 9, 36, 109
12, 167072, Note_off_c, 9, 36, 64
12, 167520, Note_on_c, 9, 36, 113
12, 167552, Note_off_c, 9, 36, 64
12, 168000, Note_on_c, 9, 36, 126
12, 168032, Note_off_c, 9, 36, 64
12, 168480, Note_on_c, 9, 36, 111
12, 168512, Note_off_c, 9, 36, 64
12, 168960, Note_on_c, 9, 36, 123
12, 168992, Note_off_c, 9, 36, 64
12, 169440, Note_on_c, 9, 36, 108
12, 169472, Note_off_c, 9, 36, 64
12, 169920, Note_on_c, 9, 36, 119
12, 169928, Note_off_c, 9, 36, 64
12, 170280, Note_on_c, 9, 36, 109
12, 170288, Note_off_c, 9, 36, 64
12, 170400, Note_on_c, 9, 36, 112
12, 170432, Note_off_c, 9, 36, 64
12, 170880, Note_on_c, 9, 36, 105
12, 170912, Note_off_c, 9, 36, 64
12, 173280, Control_c, 9, 91, 0
12, 173280, Control_c, 9, 93, 0
12, 173280, Control_c, 9, 1, 0
12, 173280, Control_c, 9, 0, 0
12, 173280, Control_c, 9, 10, 64
12, 173280, Control_c, 9, 64, 0
12, 173280, Control_c, 9, 7, 127
12, 173280, Pitch_bend_c, 9, 8192
12, 173280, End_track
13, 0, Start_track
13, 0, Title_t, "Snare"
13, 0, MIDI_port, 0
13, 0, Channel_prefix, 9
13, 0, Control_c, 9, 10, 64
13, 3360, Note_on_c, 9, 40, 117
13, 3392, Note_off_c, 9, 40, 64
13, 18240, Note_on_c, 9, 38, 114
13, 18256, Note_off_c, 9, 38, 64
13, 19680, Note_on_c, 9, 40, 117
13, 19712, Note_off_c, 9, 40, 64
13, 20640, Note_on_c, 9, 40, 110
13, 20672, Note_off_c, 9, 40, 64
13, 21600, Note_on_c, 9, 38, 123
13, 21632, Note_off_c, 9, 38, 64
13, 22560, Note_on_c, 9, 40, 102
13, 22592, Note_off_c, 9, 40, 64
13, 23520, Note_on_c, 9, 40, 110
13, 23552, Note_off_c, 9, 40, 64
13, 24480, Note_on_c, 9, 40, 102
13, 24512, Note_off_c, 9, 40, 64
13, 25440, Note_on_c, 9, 38, 110
13, 25472, Note_off_c, 9, 38, 64
13, 26400, Note_on_c, 9, 40, 115
13, 26432, Note_off_c, 9, 40, 64
13, 27360, Note_on_c, 9, 40, 111
13, 27392, Note_off_c, 9, 40, 64
13, 28320, Note_on_c, 9, 40, 108
13, 28352, Note_off_c, 9, 40, 64
13, 29280, Note_on_c, 9, 38, 102
13, 29312, Note_off_c, 9, 38, 64
13, 30240, Note_on_c, 9, 40, 114
13, 30272, Note_off_c, 9, 40, 64
13, 31200, Note_on_c, 9, 40, 111
13, 31232, Note_off_c, 9, 40, 64
13, 32160, Note_on_c, 9, 40, 108
13, 32192, Note_off_c, 9, 40, 64
13, 33120, Note_on_c, 9, 40, 121
13, 33152, Note_off_c, 9, 40, 64
13, 34080, Note_on_c, 9, 38, 110
13, 34096, Note_off_c, 9, 38, 64
13, 35040, Note_on_c, 9, 40, 100
13, 35072, Note_off_c, 9, 40, 64
13, 36000, Note_on_c, 9, 40, 100
13, 36032, Note_off_c, 9, 40, 64
13, 36960, Note_on_c, 9, 40, 115
13, 36992, Note_off_c, 9, 40, 64
13, 37920, Note_on_c, 9, 40, 114
13, 37952, Note_off_c, 9, 40, 64
13, 38880, Note_on_c, 9, 38, 101
13, 38912, Note_off_c, 9, 38, 64
13, 39840, Note_on_c, 9, 40, 120
13, 39872, Note_off_c, 9, 40, 64
13, 40800, Note_on_c, 9, 40, 122
13, 40832, Note_off_c, 9, 40, 64
13, 41760, Note_on_c, 9, 40, 101
13, 41792, Note_off_c, 9, 40, 64
13, 42720, Note_on_c, 9, 40, 126
13, 42752, Note_off_c, 9, 40, 64
13, 43200, Note_on_c, 9, 38, 112
13, 43216, Note_off_c, 9, 38, 64
13, 43440, Note_on_c, 9, 40, 125
13, 43448, Note_off_c, 9, 40, 64
13, 44640, Note_on_c, 9, 40, 106
13, 44672, Note_off_c, 9, 40, 64
13, 45600, Note_on_c, 9, 40, 109
13, 45632, Note_off_c, 9, 40, 64
13, 46560, Note_on_c, 9, 40, 115
13, 46592, Note_off_c, 9, 40, 64
13, 47520, Note_on_c, 9, 40, 112
13, 47552, Note_off_c, 9, 40, 64
13, 48480, Note_on_c, 9, 38, 109
13, 48512, Note_off_c, 9, 38, 64
13, 49440, Note_on_c, 9, 40, 114
13, 49472, Note_off_c, 9, 40, 64
13, 50400, Note_on_c, 9, 40, 120
13, 50432, Note_off_c, 9, 40, 64
13, 51360, Note_on_c, 9, 40, 112
13, 51392, Note_off_c, 9, 40, 64
13, 52320, Note_on_c, 9, 40, 108
13, 52352, Note_off_c, 9, 40, 64
13, 53280, Note_on_c, 9, 38, 112
13, 53312, Note_off_c, 9, 38, 64
13, 54240, Note_on_c, 9, 40, 122
13, 54272, Note_off_c, 9, 40, 64
13, 55200, Note_on_c, 9, 40, 117
13, 55232, Note_off_c, 9, 40, 64
13, 56160, Note_on_c, 9, 40, 100
13, 56192, Note_off_c, 9, 40, 64
13, 57120, Note_on_c, 9, 40, 111
13, 57152, Note_off_c, 9, 40, 64
13, 58080, Note_on_c, 9, 40, 122
13, 58112, Note_off_c, 9, 40, 64
13, 59040, Note_on_c, 9, 38, 123
13, 59072, Note_off_c, 9, 38, 64
13, 60000, Note_on_c, 9, 40, 106
13, 60032, Note_off_c, 9, 40, 64
13, 61920, Note_on_c, 9, 40, 107
13, 61952, Note_off_c, 9, 40, 64
13, 62880, Note_on_c, 9, 40, 105
13, 62912, Note_off_c, 9, 40, 64
13, 63840, Note_on_c, 9, 38, 123
13, 63872, Note_off_c, 9, 38, 64
13, 64800, Note_on_c, 9, 40, 122
13, 64832, Note_off_c, 9, 40, 64
13, 65760, Note_on_c, 9, 40, 111
13, 65792, Note_off_c, 9, 40, 64
13, 66720, Note_on_c, 9, 40, 102
13, 66752, Note_off_c, 9, 40, 64
13, 67680, Note_on_c, 9, 40, 120
13, 67712, Note_off_c, 9, 40, 64
13, 68160, Note_on_c, 9, 40, 104
13, 68176, Note_off_c, 9, 40, 64
13, 68400, Note_on_c, 9, 40, 102
13, 68408, Note_off_c, 9, 40, 64
13, 69600, Note_on_c, 9, 40, 120
13, 69632, Note_off_c, 9, 40, 64
13, 70560, Note_on_c, 9, 40, 99
13, 70592, Note_off_c, 9, 40, 64
13, 71520, Note_on_c, 9, 40, 119
13, 71552, Note_off_c, 9, 40, 64
13, 72480, Note_on_c, 9, 40, 125
13, 72512, Note_off_c, 9, 40, 64
13, 73440, Note_on_c, 9, 40, 101
13, 73472, Note_off_c, 9, 40, 64
13, 74400, Note_on_c, 9, 40, 108
13, 74432, Note_off_c, 9, 40, 64
13, 75360, Note_on_c, 9, 40, 111
13, 75392, Note_off_c, 9, 40, 64
13, 76320, Note_on_c, 9, 40, 105
13, 76352, Note_off_c, 9, 40, 64
13, 77280, Note_on_c, 9, 40, 107
13, 77312, Note_off_c, 9, 40, 64
13, 78240, Note_on_c, 9, 40, 121
13, 78272, Note_off_c, 9, 40, 64
13, 79200, Note_on_c, 9, 40, 120
13, 79232, Note_off_c, 9, 40, 64
13, 80160, Note_on_c, 9, 40, 118
13, 80192, Note_off_c, 9, 40, 64
13, 81120, Note_on_c, 9, 40, 123
13, 81152, Note_off_c, 9, 40, 64
13, 82080, Note_on_c, 9, 40, 126
13, 82112, Note_off_c, 9, 40, 64
13, 83040, Note_on_c, 9, 40, 106
13, 83072, Note_off_c, 9, 40, 64
13, 84000, Note_on_c, 9, 40, 110
13, 84032, Note_off_c, 9, 40, 64
13, 84960, Note_on_c, 9, 40, 104
13, 84992, Note_off_c, 9, 40, 64
13, 86880, Note_on_c, 9, 40, 110
13, 86912, Note_off_c, 9, 40, 64
13, 88800, Note_on_c, 9, 40, 120
13, 88832, Note_off_c, 9, 40, 64
13, 89760, Note_on_c, 9, 40, 109
13, 89792, Note_off_c, 9, 40, 64
13, 90720, Note_on_c, 9, 40, 124
13, 90752, Note_off_c, 9, 40, 64
13, 91680, Note_on_c, 9, 40, 125
13, 91712, Note_off_c, 9, 40, 64
13, 92640, Note_on_c, 9, 40, 108
13, 92672, Note_off_c, 9, 40, 64
13, 93120, Note_on_c, 9, 40, 121
13, 93136, Note_off_c, 9, 40, 64
13, 93360, Note_on_c, 9, 40, 124
13, 93368, Note_off_c, 9, 40, 64
13, 94560, Note_on_c, 9, 40, 108
13, 94592, Note_off_c, 9, 40, 64
13, 95520, Note_on_c, 9, 40, 117
13, 95552, Note_off_c, 9, 40, 64
13, 96480, Note_on_c, 9, 40, 103
13, 96512, Note_off_c, 9, 40, 64
13, 97440, Note_on_c, 9, 40, 116
13, 97456, Note_off_c, 9, 40, 64
13, 97680, Note_on_c, 9, 40, 124
13, 97688, Note_off_c, 9, 40, 64
13, 97800, Note_on_c, 9, 40, 109
13, 97808, Note_off_c, 9, 40, 64
13, 98400, Note_on_c, 9, 40, 110
13, 98432, Note_off_c, 9, 40, 64
13, 99360, Note_on_c, 9, 40, 117
13, 99376, Note_off_c, 9, 40, 64
13, 99600, Note_on_c, 9, 40, 116
13, 99608, Note_off_c, 9, 40, 64
13, 99720, Note_on_c, 9, 40, 111
13, 99728, Note_off_c, 9, 40, 64
13, 100320, Note_on_c, 9, 40, 111
13, 100352, Note_off_c, 9, 40, 64
13, 101280, Note_on_c, 9, 40, 99
13, 101312, Note_off_c, 9, 40, 64
13, 102240, Note_on_c, 9, 40, 118
13, 102272, Note_off_c, 9, 40, 64
13, 103200, Note_on_c, 9, 40, 123
13, 103232, Note_off_c, 9, 40, 64
13, 104160, Note_on_c, 9, 40, 116
13, 104192, Note_off_c, 9, 40, 64
13, 105120, Note_on_c, 9, 40, 101
13, 105152, Note_off_c, 9, 40, 64
13, 106080, Note_on_c, 9, 40, 123
13, 106112, Note_off_c, 9, 40, 64
13, 107040, Note_on_c, 9, 40, 113
13, 107064, Note_off_c, 9, 40, 64
13, 108000, Note_on_c, 9, 40, 110
13, 108016, Note_off_c, 9, 40, 64
13, 109920, Note_on_c, 9, 40, 104
13, 109952, Note_off_c, 9, 40, 64
13, 110880, Note_on_c, 9, 40, 118
13, 110912, Note_off_c, 9, 40, 64
13, 111840, Note_on_c, 9, 40, 118
13, 111872, Note_off_c, 9, 40, 64
13, 112800, Note_on_c, 9, 40, 100
13, 112832, Note_off_c, 9, 40, 64
13, 113760, Note_on_c, 9, 40, 120
13, 113792, Note_off_c, 9, 40, 64
13, 114720, Note_on_c, 9, 40, 116
13, 114752, Note_off_c, 9, 40, 64
13, 115680, Note_on_c, 9, 40, 113
13, 115712, Note_off_c, 9, 40, 64
13, 116640, Note_on_c, 9, 40, 116
13, 116672, Note_off_c, 9, 40, 64
13, 117600, Note_on_c, 9, 40, 103
13, 117632, Note_off_c, 9, 40, 64
13, 118560, Note_on_c, 9, 40, 119
13, 118592, Note_off_c, 9, 40, 64
13, 119520, Note_on_c, 9, 40, 117
13, 119552, Note_off_c, 9, 40, 64
13, 120480, Note_on_c, 9, 40, 125
13, 120512, Note_off_c, 9, 40, 64
13, 121440, Note_on_c, 9, 40, 126
13, 121472, Note_off_c, 9, 40, 64
13, 122400, Note_on_c, 9, 40, 102
13, 122424, Note_off_c, 9, 40, 64
13, 123360, Note_on_c, 9, 40, 122
13, 123368, Note_off_c, 9, 40, 64
13, 125280, Note_on_c, 9, 40, 119
13, 125312, Note_off_c, 9, 40, 64
13, 126240, Note_on_c, 9, 40, 107
13, 126272, Note_off_c, 9, 40, 64
13, 127200, Note_on_c, 9, 40, 116
13, 127232, Note_off_c, 9, 40, 64
13, 128160, Note_on_c, 9, 40, 101
13, 128192, Note_off_c, 9, 40, 64
13, 129120, Note_on_c, 9, 40, 126
13, 129152, Note_off_c, 9, 40, 64
13, 130080, Note_on_c, 9, 40, 104
13, 130112, Note_off_c, 9, 40, 64
13, 131040, Note_on_c, 9, 40, 120
13, 131072, Note_off_c, 9, 40, 64
13, 132000, Note_on_c, 9, 40, 107
13, 132032, Note_off_c, 9, 40, 64
13, 132960, Note_on_c, 9, 40, 102
13, 132992, Note_off_c, 9, 40, 64
13, 133920, Note_on_c, 9, 40, 102
13, 133952, Note_off_c, 9, 40, 64
13, 134880, Note_on_c, 9, 40, 117
13, 134912, Note_off_c, 9, 40, 64
13, 135840, Note_on_c, 9, 40, 118
13, 135872, Note_off_c, 9, 40, 64
13, 136800, Note_on_c, 9, 40, 121
13, 136832, Note_off_c, 9, 40, 64
13, 137760, Note_on_c, 9, 40, 120
13, 137784, Note_off_c, 9, 40, 64
13, 138720, Note_on_c, 9, 40, 126
13, 138728, Note_off_c, 9, 40, 64
13, 139680, Note_on_c, 9, 40, 119
13, 139712, Note_off_c, 9, 40, 64
13, 156000, Note_on_c, 9, 40, 109
13, 156032, Note_off_c, 9, 40, 64
13, 156960, Note_on_c, 9, 40, 120
13, 156992, Note_off_c, 9, 40, 64
13, 157920, Note_on_c, 9, 40, 109
13, 157952, Note_off_c, 9, 40, 64
13, 158880, Note_on_c, 9, 40, 123
13, 158912, Note_off_c, 9, 40, 64
13, 159840, Note_on_c, 9, 40, 118
13, 159872, Note_off_c, 9, 40, 64
13, 160800, Note_on_c, 9, 40, 115
13, 160832, Note_off_c, 9, 40, 64
13, 161760, Note_on_c, 9, 40, 116
13, 161792, Note_off_c, 9, 40, 64
13, 162720, Note_on_c, 9, 40, 116
13, 162752, Note_off_c, 9, 40, 64
13, 163680, Note_on_c, 9, 40, 100
13, 163712, Note_off_c, 9, 40, 64
13, 164640, Note_on_c, 9, 40, 118
13, 164672, Note_off_c, 9, 40, 64
13, 165600, Note_on_c, 9, 40, 104
13, 165632, Note_off_c, 9, 40, 64
13, 166560, Note_on_c, 9, 40, 115
13, 166592, Note_off_c, 9, 40, 64
13, 167520, Note_on_c, 9, 40, 102
13, 167552, Note_off_c, 9, 40, 64
13, 168480, Note_on_c, 9, 40, 117
13, 168512, Note_off_c, 9, 40, 64
13, 169440, Note_on_c, 9, 40, 119
13, 169472, Note_off_c, 9, 40, 64
13, 170040, Note_on_c, 9, 40, 120
13, 170056, Note_off_c, 9, 40, 64
13, 170400, Note_on_c, 9, 40, 104
13, 170432, Note_off_c, 9, 40, 64
13, 170880, Note_on_c, 9, 40, 109
13, 170904, Note_off_c, 9, 40, 64
13, 171240, Note_on_c, 9, 40, 124
13, 171248, Note_off_c, 9, 40, 64
13, 171360, Note_on_c, 9, 40, 124
13, 171368, Note_off_c, 9, 40, 64
13, 171480, Note_on_c, 9, 40, 111
13, 171488, Note_off_c, 9, 40, 64
13, 171600, Note_on_c, 9, 40, 118
13, 171632, Note_off_c, 9, 40, 64
13, 171632, End_track
14, 0, Start_track
14, 0, Title_t, "HH Closed"
14, 0, MIDI_port, 0
14, 0, Channel_prefix, 9
14, 0, Control_c, 9, 10, 64
14, 1920, Note_on_c, 9, 42, 67
14, 1928, Note_off_c, 9, 42, 64
14, 2400, Note_on_c, 9, 42, 67
14, 2408, Note_off_c, 9, 42, 64
14, 2880, Note_on_c, 9, 42, 67
14, 2888, Note_off_c, 9, 42, 64
14, 3360, Note_on_c, 9, 42, 67
14, 3368, Note_off_c, 9, 42, 64
14, 3840, Note_on_c, 9, 42, 67
14, 3848, Note_off_c, 9, 42, 64
14, 3960, Note_on_c, 9, 42, 86
14, 3968, Note_off_c, 9, 42, 64
14, 4080, Note_on_c, 9, 42, 68
14, 4088, Note_off_c, 9, 42, 64
14, 4200, Note_on_c, 9, 42, 83
14, 4208, Note_off_c, 9, 42, 64
14, 4320, Note_on_c, 9, 42, 75
14, 4328, Note_off_c, 9, 42, 64
14, 4440, Note_on_c, 9, 42, 77
14, 4448, Note_off_c, 9, 42, 64
14, 4560, Note_on_c, 9, 42, 76
14, 4568, Note_off_c, 9, 42, 64
14, 4680, Note_on_c, 9, 42, 84
14, 4688, Note_off_c, 9, 42, 64
14, 4800, Note_on_c, 9, 42, 86
14, 4808, Note_off_c, 9, 42, 64
14, 4920, Note_on_c, 9, 42, 68
14, 4928, Note_off_c, 9, 42, 64
14, 5040, Note_on_c, 9, 42, 87
14, 5048, Note_off_c, 9, 42, 64
14, 5160, Note_on_c, 9, 42, 65
14, 5168, Note_off_c, 9, 42, 64
14, 5280, Note_on_c, 9, 42, 74
14, 5288, Note_off_c, 9, 42, 64
14, 5400, Note_on_c, 9, 42, 78
14, 5408, Note_off_c, 9, 42, 64
14, 5760, Note_on_c, 9, 42, 70
14, 5768, Note_off_c, 9, 42, 64
14, 5880, Note_on_c, 9, 42, 69
14, 5888, Note_off_c, 9, 42, 64
14, 6000, Note_on_c, 9, 42, 72
14, 6008, Note_off_c, 9, 42, 64
14, 6120, Note_on_c, 9, 42, 87
14, 6128, Note_off_c, 9, 42, 64
14, 6240, Note_on_c, 9, 42, 66
14, 6248, Note_off_c, 9, 42, 64
14, 6360, Note_on_c, 9, 42, 68
14, 6368, Note_off_c, 9, 42, 64
14, 6480, Note_on_c, 9, 42, 82
14, 6488, Note_off_c, 9, 42, 64
14, 6600, Note_on_c, 9, 42, 66
14, 6608, Note_off_c, 9, 42, 64
14, 6720, Note_on_c, 9, 42, 73
14, 6728, Note_off_c, 9, 42, 64
14, 6840, Note_on_c, 9, 42, 78
14, 6848, Note_off_c, 9, 42, 64
14, 6960, Note_on_c, 9, 42, 70
14, 6968, Note_off_c, 9, 42, 64
14, 7080, Note_on_c, 9, 42, 76
14, 7088, Note_off_c, 9, 42, 64
14, 7200, Note_on_c, 9, 42, 66
14, 7208, Note_off_c, 9, 42, 64
14, 7320, Note_on_c, 9, 42, 78
14, 7328, Note_off_c, 9, 42, 64
14, 7680, Note_on_c, 9, 42, 73
14, 7688, Note_off_c, 9, 42, 64
14, 7800, Note_on_c, 9, 42, 83
14, 7808, Note_off_c, 9, 42, 64
14, 7920, Note_on_c, 9, 42, 85
14, 7928, Note_off_c, 9, 42, 64
14, 8040, Note_on_c, 9, 42, 87
14, 8048, Note_off_c, 9, 42, 64
14, 8160, Note_on_c, 9, 42, 82
14, 8168, Note_off_c, 9, 42, 64
14, 8280, Note_on_c, 9, 42, 71
14, 8288, Note_off_c, 9, 42, 64
14, 8400, Note_on_c, 9, 42, 69
14, 8408, Note_off_c, 9, 42, 64
14, 8520, Note_on_c, 9, 42, 83
14, 8528, Note_off_c, 9, 42, 64
14, 8640, Note_on_c, 9, 42, 82
14, 8648, Note_off_c, 9, 42, 64
14, 8760, Note_on_c, 9, 42, 76
14, 8768, Note_off_c, 9, 42, 64
14, 8880, Note_on_c, 9, 42, 85
14, 8888, Note_off_c, 9, 42, 64
14, 9000, Note_on_c, 9, 42, 68
14, 9008, Note_off_c, 9, 42, 64
14, 9120, Note_on_c, 9, 42, 84
14, 9128, Note_off_c, 9, 42, 64
14, 9240, Note_on_c, 9, 42, 87
14, 9248, Note_off_c, 9, 42, 64
14, 9600, Note_on_c, 9, 42, 86
14, 9608, Note_off_c, 9, 42, 64
14, 9720, Note_on_c, 9, 42, 87
14, 9728, Note_off_c, 9, 42, 64
14, 9840, Note_on_c, 9, 42, 77
14, 9848, Note_off_c, 9, 42, 64
14, 9960, Note_on_c, 9, 42, 88
14, 9968, Note_off_c, 9, 42, 64
14, 10080, Note_on_c, 9, 42, 88
14, 10088, Note_off_c, 9, 42, 64
14, 10200, Note_on_c, 9, 42, 80
14, 10208, Note_off_c, 9, 42, 64
14, 10320, Note_on_c, 9, 42, 65
14, 10328, Note_off_c, 9, 42, 64
14, 10440, Note_on_c, 9, 42, 83
14, 10448, Note_off_c, 9, 42, 64
14, 10560, Note_on_c, 9, 42, 79
14, 10568, Note_off_c, 9, 42, 64
14, 10680, Note_on_c, 9, 42, 78
14, 10688, Note_off_c, 9, 42, 64
14, 10800, Note_on_c, 9, 42, 72
14, 10808, Note_off_c, 9, 42, 64
14, 10920, Note_on_c, 9, 42, 76
14, 10928, Note_off_c, 9, 42, 64
14, 11040, Note_on_c, 9, 42, 66
14, 11048, Note_off_c, 9, 42, 64
14, 11160, Note_on_c, 9, 42, 86
14, 11168, Note_off_c, 9, 42, 64
14, 11520, Note_on_c, 9, 42, 65
14, 11528, Note_off_c, 9, 42, 64
14, 11640, Note_on_c, 9, 42, 72
14, 11648, Note_off_c, 9, 42, 64
14, 11760, Note_on_c, 9, 42, 74
14, 11768, Note_off_c, 9, 42, 64
14, 11880, Note_on_c, 9, 42, 67
14, 11888, Note_off_c, 9, 42, 64
14, 12000, Note_on_c, 9, 42, 65
14, 12008, Note_off_c, 9, 42, 64
14, 12120, Note_on_c, 9, 42, 70
14, 12128, Note_off_c, 9, 42, 64
14, 12240, Note_on_c, 9, 42, 85
14, 12248, Note_off_c, 9, 42, 64
14, 12360, Note_on_c, 9, 42, 69
14, 12368, Note_off_c, 9, 42, 64
14, 12480, Note_on_c, 9, 42, 70
14, 12488, Note_off_c, 9, 42, 64
14, 12600, Note_on_c, 9, 42, 65
14, 12608, Note_off_c, 9, 42, 64
14, 12720, Note_on_c, 9, 42, 73
14, 12728, Note_off_c, 9, 42, 64
14, 12840, Note_on_c, 9, 42, 77
14, 12848, Note_off_c, 9, 42, 64
14, 12960, Note_on_c, 9, 42, 81
14, 12968, Note_off_c, 9, 42, 64
14, 13080, Note_on_c, 9, 42, 71
14, 13088, Note_off_c, 9, 42, 64
14, 13440, Note_on_c, 9, 42, 80
14, 13448, Note_off_c, 9, 42, 64
14, 13560, Note_on_c, 9, 42, 68
14, 13568, Note_off_c, 9, 42, 64
14, 13680, Note_on_c, 9, 42, 76
14, 13688, Note_off_c, 9, 42, 64
14, 13800, Note_on_c, 9, 42, 85
14, 13808, Note_off_c, 9, 42, 64
14, 13920, Note_on_c, 9, 42, 75
14, 13928, Note_off_c, 9, 42, 64
14, 14040, Note_on_c, 9, 42, 65
14, 14048, Note_off_c, 9, 42, 64
14, 14160, Note_on_c, 9, 42, 67
14, 14168, Note_off_c, 9, 42, 64
14, 14280, Note_on_c, 9, 42, 87
14, 14288, Note_off_c, 9, 42, 64
14, 14400, Note_on_c, 9, 42, 82
14, 14408, Note_off_c, 9, 42, 64
14, 14520, Note_on_c, 9, 42, 75
14, 14528, Note_off_c, 9, 42, 64
14, 14640, Note_on_c, 9, 42, 80
14, 14648, Note_off_c, 9, 42, 64
14, 14760, Note_on_c, 9, 42, 88
14, 14768, Note_off_c, 9, 42, 64
14, 14880, Note_on_c, 9, 42, 66
14, 14888, Note_off_c, 9, 42, 64
14, 15000, Note_on_c, 9, 42, 79
14, 15008, Note_off_c, 9, 42, 64
14, 15360, Note_on_c, 9, 42, 72
14, 15368, Note_off_c, 9, 42, 64
14, 15480, Note_on_c, 9, 42, 80
14, 15488, Note_off_c, 9, 42, 64
14, 15600, Note_on_c, 9, 42, 70
14, 15608, Note_off_c, 9, 42, 64
14, 15720, Note_on_c, 9, 42, 72
14, 15728, Note_off_c, 9, 42, 64
14, 15840, Note_on_c, 9, 42, 68
14, 15848, Note_off_c, 9, 42, 64
14, 15960, Note_on_c, 9, 42, 72
14, 15968, Note_off_c, 9, 42, 64
14, 16080, Note_on_c, 9, 42, 80
14, 16088, Note_off_c, 9, 42, 64
14, 16200, Note_on_c, 9, 42, 81
14, 16208, Note_off_c, 9, 42, 64
14, 16320, Note_on_c, 9, 42, 75
14, 16328, Note_off_c, 9, 42, 64
14, 16440, Note_on_c, 9, 42, 70
14, 16448, Note_off_c, 9, 42, 64
14, 16560, Note_on_c, 9, 42, 77
14, 16568, Note_off_c, 9, 42, 64
14, 16680, Note_on_c, 9, 42, 72
14, 16688, Note_off_c, 9, 42, 64
14, 16800, Note_on_c, 9, 42, 83
14, 16808, Note_off_c, 9, 42, 64
14, 16920, Note_on_c, 9, 42, 69
14, 16928, Note_off_c, 9, 42, 64
14, 17280, Note_on_c, 9, 42, 71
14, 17288, Note_off_c, 9, 42, 64
14, 17400, Note_on_c, 9, 42, 84
14, 17408, Note_off_c, 9, 42, 64
14, 17520, Note_on_c, 9, 42, 88
14, 17528, Note_off_c, 9, 42, 64
14, 17640, Note_on_c, 9, 42, 87
14, 17648, Note_off_c, 9, 42, 64
14, 17760, Note_on_c, 9, 42, 66
14, 17768, Note_off_c, 9, 42, 64
14, 17880, Note_on_c, 9, 42, 83
14, 17888, Note_off_c, 9, 42, 64
14, 18000, Note_on_c, 9, 42, 69
14, 18016, Note_off_c, 9, 42, 64
14, 19680, Note_on_c, 9, 42, 65
14, 19696, Note_off_c, 9, 42, 64
14, 20160, Note_on_c, 9, 42, 74
14, 20176, Note_off_c, 9, 42, 64
14, 20640, Note_on_c, 9, 42, 69
14, 20656, Note_off_c, 9, 42, 64
14, 21120, Note_on_c, 9, 42, 86
14, 21128, Note_off_c, 9, 42, 64
14, 21240, Note_on_c, 9, 42, 81
14, 21248, Note_off_c, 9, 42, 64
14, 21600, Note_on_c, 9, 42, 87
14, 21616, Note_off_c, 9, 42, 64
14, 21840, Note_on_c, 9, 42, 81
14, 21856, Note_off_c, 9, 42, 64
14, 22080, Note_on_c, 9, 42, 77
14, 22088, Note_off_c, 9, 42, 64
14, 22200, Note_on_c, 9, 42, 84
14, 22208, Note_off_c, 9, 42, 64
14, 22560, Note_on_c, 9, 42, 72
14, 22568, Note_off_c, 9, 42, 64
14, 22680, Note_on_c, 9, 42, 72
14, 22688, Note_off_c, 9, 42, 64
14, 22800, Note_on_c, 9, 42, 82
14, 22816, Note_off_c, 9, 42, 64
14, 23040, Note_on_c, 9, 42, 88
14, 23056, Note_off_c, 9, 42, 64
14, 23520, Note_on_c, 9, 42, 72
14, 23528, Note_off_c, 9, 42, 64
14, 23640, Note_on_c, 9, 42, 88
14, 23648, Note_off_c, 9, 42, 64
14, 24000, Note_on_c, 9, 42, 66
14, 24016, Note_off_c, 9, 42, 64
14, 24480, Note_on_c, 9, 42, 85
14, 24496, Note_off_c, 9, 42, 64
14, 24720, Note_on_c, 9, 42, 86
14, 24736, Note_off_c, 9, 42, 64
14, 24960, Note_on_c, 9, 42, 79
14, 24976, Note_off_c, 9, 42, 64
14, 25440, Note_on_c, 9, 42, 80
14, 25456, Note_off_c, 9, 42, 64
14, 25680, Note_on_c, 9, 42, 74
14, 25696, Note_off_c, 9, 42, 64
14, 25920, Note_on_c, 9, 42, 75
14, 25936, Note_off_c, 9, 42, 64
14, 26400, Note_on_c, 9, 42, 77
14, 26416, Note_off_c, 9, 42, 64
14, 26640, Note_on_c, 9, 42, 88
14, 26648, Note_off_c, 9, 42, 64
14, 26760, Note_on_c, 9, 42, 74
14, 26768, Note_off_c, 9, 42, 64
14, 26880, Note_on_c, 9, 42, 69
14, 26896, Note_off_c, 9, 42, 64
14, 27360, Note_on_c, 9, 42, 67
14, 27376, Note_off_c, 9, 42, 64
14, 27600, Note_on_c, 9, 42, 85
14, 27616, Note_off_c, 9, 42, 64
14, 27840, Note_on_c, 9, 42, 69
14, 27856, Note_off_c, 9, 42, 64
14, 28320, Note_on_c, 9, 42, 85
14, 28336, Note_off_c, 9, 42, 64
14, 28560, Note_on_c, 9, 42, 74
14, 28576, Note_off_c, 9, 42, 64
14, 28800, Note_on_c, 9, 42, 79
14, 28816, Note_off_c, 9, 42, 64
14, 29280, Note_on_c, 9, 42, 69
14, 29296, Note_off_c, 9, 42, 64
14, 30360, Note_on_c, 9, 42, 66
14, 30376, Note_off_c, 9, 42, 64
14, 30600, Note_on_c, 9, 42, 65
14, 30608, Note_off_c, 9, 42, 64
14, 30720, Note_on_c, 9, 42, 70
14, 30736, Note_off_c, 9, 42, 64
14, 31200, Note_on_c, 9, 42, 88
14, 31216, Note_off_c, 9, 42, 64
14, 31440, Note_on_c, 9, 42, 72
14, 31448, Note_off_c, 9, 42, 64
14, 31560, Note_on_c, 9, 42, 85
14, 31568, Note_off_c, 9, 42, 64
14, 31680, Note_on_c, 9, 42, 77
14, 31696, Note_off_c, 9, 42, 64
14, 32160, Note_on_c, 9, 42, 68
14, 32176, Note_off_c, 9, 42, 64
14, 32400, Note_on_c, 9, 42, 83
14, 32408, Note_off_c, 9, 42, 64
14, 32520, Note_on_c, 9, 42, 73
14, 32528, Note_off_c, 9, 42, 64
14, 32640, Note_on_c, 9, 42, 87
14, 32656, Note_off_c, 9, 42, 64
14, 33120, Note_on_c, 9, 42, 74
14, 33136, Note_off_c, 9, 42, 64
14, 33360, Note_on_c, 9, 42, 72
14, 33368, Note_off_c, 9, 42, 64
14, 33480, Note_on_c, 9, 42, 78
14, 33488, Note_off_c, 9, 42, 64
14, 33600, Note_on_c, 9, 42, 85
14, 33616, Note_off_c, 9, 42, 64
14, 34080, Note_on_c, 9, 42, 87
14, 34096, Note_off_c, 9, 42, 64
14, 34320, Note_on_c, 9, 42, 80
14, 34328, Note_off_c, 9, 42, 64
14, 34440, Note_on_c, 9, 42, 78
14, 34448, Note_off_c, 9, 42, 64
14, 34560, Note_on_c, 9, 42, 71
14, 34576, Note_off_c, 9, 42, 64
14, 35040, Note_on_c, 9, 42, 80
14, 35056, Note_off_c, 9, 42, 64
14, 35280, Note_on_c, 9, 42, 80
14, 35288, Note_off_c, 9, 42, 64
14, 35400, Note_on_c, 9, 42, 80
14, 35408, Note_off_c, 9, 42, 64
14, 35520, Note_on_c, 9, 42, 87
14, 35536, Note_off_c, 9, 42, 64
14, 36000, Note_on_c, 9, 42, 81
14, 36016, Note_off_c, 9, 42, 64
14, 36240, Note_on_c, 9, 42, 81
14, 36248, Note_off_c, 9, 42, 64
14, 36360, Note_on_c, 9, 42, 68
14, 36368, Note_off_c, 9, 42, 64
14, 36960, Note_on_c, 9, 42, 87
14, 36976, Note_off_c, 9, 42, 64
14, 37200, Note_on_c, 9, 42, 67
14, 37208, Note_off_c, 9, 42, 64
14, 37320, Note_on_c, 9, 42, 68
14, 37328, Note_off_c, 9, 42, 64
14, 37440, Note_on_c, 9, 42, 88
14, 37456, Note_off_c, 9, 42, 64
14, 37920, Note_on_c, 9, 42, 66
14, 37936, Note_off_c, 9, 42, 64
14, 38160, Note_on_c, 9, 42, 78
14, 38168, Note_off_c, 9, 42, 64
14, 38280, Note_on_c, 9, 42, 68
14, 38288, Note_off_c, 9, 42, 64
14, 38400, Note_on_c, 9, 42, 74
14, 38416, Note_off_c, 9, 42, 64
14, 38880, Note_on_c, 9, 42, 86
14, 38896, Note_off_c, 9, 42, 64
14, 39120, Note_on_c, 9, 42, 66
14, 39128, Note_off_c, 9, 42, 64
14, 39240, Note_on_c, 9, 42, 71
14, 39248, Note_off_c, 9, 42, 64
14, 39360, Note_on_c, 9, 42, 65
14, 39376, Note_off_c, 9, 42, 64
14, 39840, Note_on_c, 9, 42, 66
14, 39856, Note_off_c, 9, 42, 64
14, 40080, Note_on_c, 9, 42, 71
14, 40088, Note_off_c, 9, 42, 64
14, 40200, Note_on_c, 9, 42, 72
14, 40208, Note_off_c, 9, 42, 64
14, 40320, Note_on_c, 9, 42, 83
14, 40336, Note_off_c, 9, 42, 64
14, 40800, Note_on_c, 9, 42, 87
14, 40816, Note_off_c, 9, 42, 64
14, 41040, Note_on_c, 9, 42, 71
14, 41048, Note_off_c, 9, 42, 64
14, 41160, Note_on_c, 9, 42, 80
14, 41168, Note_off_c, 9, 42, 64
14, 41280, Note_on_c, 9, 42, 70
14, 41296, Note_off_c, 9, 42, 64
14, 41760, Note_on_c, 9, 42, 86
14, 41776, Note_off_c, 9, 42, 64
14, 42000, Note_on_c, 9, 42, 88
14, 42008, Note_off_c, 9, 42, 64
14, 42120, Note_on_c, 9, 42, 87
14, 42128, Note_off_c, 9, 42, 64
14, 42240, Note_on_c, 9, 42, 83
14, 42256, Note_off_c, 9, 42, 64
14, 42720, Note_on_c, 9, 42, 72
14, 42736, Note_off_c, 9, 42, 64
14, 42960, Note_on_c, 9, 42, 77
14, 42968, Note_off_c, 9, 42, 64
14, 43080, Note_on_c, 9, 42, 83
14, 43088, Note_off_c, 9, 42, 64
14, 43200, Note_on_c, 9, 42, 88
14, 43232, Note_off_c, 9, 42, 64
14, 44640, Note_on_c, 9, 42, 71
14, 44656, Note_off_c, 9, 42, 64
14, 45120, Note_on_c, 9, 42, 80
14, 45136, Note_off_c, 9, 42, 64
14, 45600, Note_on_c, 9, 42, 86
14, 45616, Note_off_c, 9, 42, 64
14, 46080, Note_on_c, 9, 42, 73
14, 46096, Note_off_c, 9, 42, 64
14, 46560, Note_on_c, 9, 42, 74
14, 46576, Note_off_c, 9, 42, 64
14, 47040, Note_on_c, 9, 42, 74
14, 47056, Note_off_c, 9, 42, 64
14, 47520, Note_on_c, 9, 42, 82
14, 47536, Note_off_c, 9, 42, 64
14, 47880, Note_on_c, 9, 42, 86
14, 47888, Note_off_c, 9, 42, 64
14, 48000, Note_on_c, 9, 42, 70
14, 48016, Note_off_c, 9, 42, 64
14, 48480, Note_on_c, 9, 42, 83
14, 48496, Note_off_c, 9, 42, 64
14, 48960, Note_on_c, 9, 42, 65
14, 48976, Note_off_c, 9, 42, 64
14, 49440, Note_on_c, 9, 42, 85
14, 49456, Note_off_c, 9, 42, 64
14, 49920, Note_on_c, 9, 42, 69
14, 49936, Note_off_c, 9, 42, 64
14, 50400, Note_on_c, 9, 42, 82
14, 50416, Note_off_c, 9, 42, 64
14, 50880, Note_on_c, 9, 42, 79
14, 50896, Note_off_c, 9, 42, 64
14, 51360, Note_on_c, 9, 42, 81
14, 51376, Note_off_c, 9, 42, 64
14, 51840, Note_on_c, 9, 42, 88
14, 51856, Note_off_c, 9, 42, 64
14, 52320, Note_on_c, 9, 42, 66
14, 52336, Note_off_c, 9, 42, 64
14, 52800, Note_on_c, 9, 42, 74
14, 52816, Note_off_c, 9, 42, 64
14, 53280, Note_on_c, 9, 42, 70
14, 53296, Note_off_c, 9, 42, 64
14, 53760, Note_on_c, 9, 42, 66
14, 53776, Note_off_c, 9, 42, 64
14, 54240, Note_on_c, 9, 42, 76
14, 54256, Note_off_c, 9, 42, 64
14, 54480, Note_on_c, 9, 42, 71
14, 54488, Note_off_c, 9, 42, 64
14, 54600, Note_on_c, 9, 42, 80
14, 54608, Note_off_c, 9, 42, 64
14, 54720, Note_on_c, 9, 42, 71
14, 54736, Note_off_c, 9, 42, 64
14, 55200, Note_on_c, 9, 42, 87
14, 55216, Note_off_c, 9, 42, 64
14, 55440, Note_on_c, 9, 42, 71
14, 55448, Note_off_c, 9, 42, 64
14, 55560, Note_on_c, 9, 42, 87
14, 55568, Note_off_c, 9, 42, 64
14, 55680, Note_on_c, 9, 42, 73
14, 55696, Note_off_c, 9, 42, 64
14, 56160, Note_on_c, 9, 42, 65
14, 56176, Note_off_c, 9, 42, 64
14, 56640, Note_on_c, 9, 42, 87
14, 56656, Note_off_c, 9, 42, 64
14, 57120, Note_on_c, 9, 42, 72
14, 57136, Note_off_c, 9, 42, 64
14, 57600, Note_on_c, 9, 42, 67
14, 57616, Note_off_c, 9, 42, 64
14, 58080, Note_on_c, 9, 42, 72
14, 58096, Note_off_c, 9, 42, 64
14, 58560, Note_on_c, 9, 42, 77
14, 58576, Note_off_c, 9, 42, 64
14, 59040, Note_on_c, 9, 42, 79
14, 59056, Note_off_c, 9, 42, 64
14, 60000, Note_on_c, 9, 42, 88
14, 60016, Note_off_c, 9, 42, 64
14, 60480, Note_on_c, 9, 42, 67
14, 60512, Note_off_c, 9, 42, 64
14, 61680, Note_on_c, 9, 42, 84
14, 61696, Note_off_c, 9, 42, 64
14, 61920, Note_on_c, 9, 42, 67
14, 61936, Note_off_c, 9, 42, 64
14, 62160, Note_on_c, 9, 42, 74
14, 62176, Note_off_c, 9, 42, 64
14, 62640, Note_on_c, 9, 42, 66
14, 62656, Note_off_c, 9, 42, 64
14, 62880, Note_on_c, 9, 42, 73
14, 62896, Note_off_c, 9, 42, 64
14, 63120, Note_on_c, 9, 42, 73
14, 63136, Note_off_c, 9, 42, 64
14, 63600, Note_on_c, 9, 42, 88
14, 63616, Note_off_c, 9, 42, 64
14, 63840, Note_on_c, 9, 42, 70
14, 63856, Note_off_c, 9, 42, 64
14, 64080, Note_on_c, 9, 42, 81
14, 64096, Note_off_c, 9, 42, 64
14, 64800, Note_on_c, 9, 42, 88
14, 64816, Note_off_c, 9, 42, 64
14, 65040, Note_on_c, 9, 42, 80
14, 65056, Note_off_c, 9, 42, 64
14, 65520, Note_on_c, 9, 44, 83
14, 65520, Note_on_c, 9, 42, 85
14, 65536, Note_off_c, 9, 42, 64
14, 65536, Note_off_c, 9, 44, 64
14, 65760, Note_on_c, 9, 42, 83
14, 65776, Note_off_c, 9, 42, 64
14, 66000, Note_on_c, 9, 42, 73
14, 66016, Note_off_c, 9, 42, 64
14, 66720, Note_on_c, 9, 42, 73
14, 66736, Note_off_c, 9, 42, 64
14, 66960, Note_on_c, 9, 42, 81
14, 66968, Note_off_c, 9, 42, 64
14, 67080, Note_on_c, 9, 42, 88
14, 67088, Note_off_c, 9, 42, 64
14, 67200, Note_on_c, 9, 42, 75
14, 67216, Note_off_c, 9, 42, 64
14, 67680, Note_on_c, 9, 42, 71
14, 67696, Note_off_c, 9, 42, 64
14, 67920, Note_on_c, 9, 42, 82
14, 67928, Note_off_c, 9, 42, 64
14, 68040, Note_on_c, 9, 42, 73
14, 68048, Note_off_c, 9, 42, 64
14, 68160, Note_on_c, 9, 42, 76
14, 68192, Note_off_c, 9, 42, 64
14, 69600, Note_on_c, 9, 42, 81
14, 69616, Note_off_c, 9, 42, 64
14, 70080, Note_on_c, 9, 42, 80
14, 70096, Note_off_c, 9, 42, 64
14, 70560, Note_on_c, 9, 42, 86
14, 70576, Note_off_c, 9, 42, 64
14, 71040, Note_on_c, 9, 42, 66
14, 71056, Note_off_c, 9, 42, 64
14, 71520, Note_on_c, 9, 42, 72
14, 71536, Note_off_c, 9, 42, 64
14, 72000, Note_on_c, 9, 42, 82
14, 72016, Note_off_c, 9, 42, 64
14, 72480, Note_on_c, 9, 42, 68
14, 72496, Note_off_c, 9, 42, 64
14, 72720, Note_on_c, 9, 42, 84
14, 72728, Note_off_c, 9, 42, 64
14, 72840, Note_on_c, 9, 42, 86
14, 72848, Note_off_c, 9, 42, 64
14, 72960, Note_on_c, 9, 42, 66
14, 72976, Note_off_c, 9, 42, 64
14, 73440, Note_on_c, 9, 42, 88
14, 73456, Note_off_c, 9, 42, 64
14, 73680, Note_on_c, 9, 42, 72
14, 73688, Note_off_c, 9, 42, 64
14, 73800, Note_on_c, 9, 42, 68
14, 73808, Note_off_c, 9, 42, 64
14, 73920, Note_on_c, 9, 42, 77
14, 73936, Note_off_c, 9, 42, 64
14, 74400, Note_on_c, 9, 42, 73
14, 74416, Note_off_c, 9, 42, 64
14, 74640, Note_on_c, 9, 42, 77
14, 74648, Note_off_c, 9, 42, 64
14, 74760, Note_on_c, 9, 42, 71
14, 74768, Note_off_c, 9, 42, 64
14, 74880, Note_on_c, 9, 42, 73
14, 74896, Note_off_c, 9, 42, 64
14, 75360, Note_on_c, 9, 42, 73
14, 75376, Note_off_c, 9, 42, 64
14, 75600, Note_on_c, 9, 42, 87
14, 75608, Note_off_c, 9, 42, 64
14, 75720, Note_on_c, 9, 42, 71
14, 75728, Note_off_c, 9, 42, 64
14, 75840, Note_on_c, 9, 42, 68
14, 75856, Note_off_c, 9, 42, 64
14, 76320, Note_on_c, 9, 42, 66
14, 76336, Note_off_c, 9, 42, 64
14, 76560, Note_on_c, 9, 42, 68
14, 76568, Note_off_c, 9, 42, 64
14, 76680, Note_on_c, 9, 42, 86
14, 76688, Note_off_c, 9, 42, 64
14, 76800, Note_on_c, 9, 42, 84
14, 76816, Note_off_c, 9, 42, 64
14, 77280, Note_on_c, 9, 42, 85
14, 77296, Note_off_c, 9, 42, 64
14, 77520, Note_on_c, 9, 42, 74
14, 77528, Note_off_c, 9, 42, 64
14, 77640, Note_on_c, 9, 42, 86
14, 77648, Note_off_c, 9, 42, 64
14, 77760, Note_on_c, 9, 42, 83
14, 77776, Note_off_c, 9, 42, 64
14, 78240, Note_on_c, 9, 42, 82
14, 78256, Note_off_c, 9, 42, 64
14, 78480, Note_on_c, 9, 42, 68
14, 78488, Note_off_c, 9, 42, 64
14, 78600, Note_on_c, 9, 42, 76
14, 78608, Note_off_c, 9, 42, 64
14, 78720, Note_on_c, 9, 42, 66
14, 78736, Note_off_c, 9, 42, 64
14, 79200, Note_on_c, 9, 42, 79
14, 79216, Note_off_c, 9, 42, 64
14, 79440, Note_on_c, 9, 42, 71
14, 79448, Note_off_c, 9, 42, 64
14, 79560, Note_on_c, 9, 42, 80
14, 79568, Note_off_c, 9, 42, 64
14, 79680, Note_on_c, 9, 42, 66
14, 79696, Note_off_c, 9, 42, 64
14, 80160, Note_on_c, 9, 42, 87
14, 80176, Note_off_c, 9, 42, 64
14, 80400, Note_on_c, 9, 42, 78
14, 80408, Note_off_c, 9, 42, 64
14, 80520, Note_on_c, 9, 42, 88
14, 80528, Note_off_c, 9, 42, 64
14, 80640, Note_on_c, 9, 42, 81
14, 80656, Note_off_c, 9, 42, 64
14, 81120, Note_on_c, 9, 42, 75
14, 81136, Note_off_c, 9, 42, 64
14, 81360, Note_on_c, 9, 42, 69
14, 81368, Note_off_c, 9, 42, 64
14, 81480, Note_on_c, 9, 42, 69
14, 81488, Note_off_c, 9, 42, 64
14, 81600, Note_on_c, 9, 42, 70
14, 81616, Note_off_c, 9, 42, 64
14, 82080, Note_on_c, 9, 42, 86
14, 82096, Note_off_c, 9, 42, 64
14, 82320, Note_on_c, 9, 42, 80
14, 82328, Note_off_c, 9, 42, 64
14, 82440, Note_on_c, 9, 42, 69
14, 82448, Note_off_c, 9, 42, 64
14, 82560, Note_on_c, 9, 42, 87
14, 82576, Note_off_c, 9, 42, 64
14, 83040, Note_on_c, 9, 42, 86
14, 83056, Note_off_c, 9, 42, 64
14, 83280, Note_on_c, 9, 42, 70
14, 83288, Note_off_c, 9, 42, 64
14, 83400, Note_on_c, 9, 42, 85
14, 83408, Note_off_c, 9, 42, 64
14, 83520, Note_on_c, 9, 42, 68
14, 83536, Note_off_c, 9, 42, 64
14, 84000, Note_on_c, 9, 42, 68
14, 84016, Note_off_c, 9, 42, 64
14, 84240, Note_on_c, 9, 42, 75
14, 84248, Note_off_c, 9, 42, 64
14, 84360, Note_on_c, 9, 42, 74
14, 84368, Note_off_c, 9, 42, 64
14, 84480, Note_on_c, 9, 42, 69
14, 84496, Note_off_c, 9, 42, 64
14, 84960, Note_on_c, 9, 42, 77
14, 84976, Note_off_c, 9, 42, 64
14, 85200, Note_on_c, 9, 42, 79
14, 85208, Note_off_c, 9, 42, 64
14, 85320, Note_on_c, 9, 42, 71
14, 85328, Note_off_c, 9, 42, 64
14, 85440, Note_on_c, 9, 42, 75
14, 85472, Note_off_c, 9, 42, 64
14, 86880, Note_on_c, 9, 42, 71
14, 86896, Note_off_c, 9, 42, 64
14, 87120, Note_on_c, 9, 42, 77
14, 87136, Note_off_c, 9, 42, 64
14, 87840, Note_on_c, 9, 42, 87
14, 87856, Note_off_c, 9, 42, 64
14, 88080, Note_on_c, 9, 42, 83
14, 88096, Note_off_c, 9, 42, 64
14, 88800, Note_on_c, 9, 42, 80
14, 88816, Note_off_c, 9, 42, 64
14, 89040, Note_on_c, 9, 42, 72
14, 89056, Note_off_c, 9, 42, 64
14, 89760, Note_on_c, 9, 42, 87
14, 89776, Note_off_c, 9, 42, 64
14, 90000, Note_on_c, 9, 42, 83
14, 90016, Note_off_c, 9, 42, 64
14, 90720, Note_on_c, 9, 42, 71
14, 90736, Note_off_c, 9, 42, 64
14, 90960, Note_on_c, 9, 42, 76
14, 90968, Note_off_c, 9, 42, 64
14, 91080, Note_on_c, 9, 42, 86
14, 91088, Note_off_c, 9, 42, 64
14, 91680, Note_on_c, 9, 42, 76
14, 91696, Note_off_c, 9, 42, 64
14, 91920, Note_on_c, 9, 42, 87
14, 91928, Note_off_c, 9, 42, 64
14, 92040, Note_on_c, 9, 42, 83
14, 92048, Note_off_c, 9, 42, 64
14, 92640, Note_on_c, 9, 42, 86
14, 92656, Note_off_c, 9, 42, 64
14, 92880, Note_on_c, 9, 42, 82
14, 92888, Note_off_c, 9, 42, 64
14, 93000, Note_on_c, 9, 42, 73
14, 93008, Note_off_c, 9, 42, 64
14, 93120, Note_on_c, 9, 42, 80
14, 93152, Note_off_c, 9, 42, 64
14, 94560, Note_on_c, 9, 42, 81
14, 94576, Note_off_c, 9, 42, 64
14, 95040, Note_on_c, 9, 42, 70
14, 95056, Note_off_c, 9, 42, 64
14, 95520, Note_on_c, 9, 42, 68
14, 95536, Note_off_c, 9, 42, 64
14, 96000, Note_on_c, 9, 42, 73
14, 96016, Note_off_c, 9, 42, 64
14, 96480, Note_on_c, 9, 42, 74
14, 96496, Note_off_c, 9, 42, 64
14, 96960, Note_on_c, 9, 42, 70
14, 96976, Note_off_c, 9, 42, 64
14, 97440, Note_on_c, 9, 42, 81
14, 97456, Note_off_c, 9, 42, 64
14, 97680, Note_on_c, 9, 42, 80
14, 97688, Note_off_c, 9, 42, 64
14, 97800, Note_on_c, 9, 42, 82
14, 97808, Note_off_c, 9, 42, 64
14, 97920, Note_on_c, 9, 42, 81
14, 97936, Note_off_c, 9, 42, 64
14, 98400, Note_on_c, 9, 42, 78
14, 98416, Note_off_c, 9, 42, 64
14, 98880, Note_on_c, 9, 42, 67
14, 98896, Note_off_c, 9, 42, 64
14, 99360, Note_on_c, 9, 42, 73
14, 99376, Note_off_c, 9, 42, 64
14, 99840, Note_on_c, 9, 42, 71
14, 99856, Note_off_c, 9, 42, 64
14, 100320, Note_on_c, 9, 42, 82
14, 100336, Note_off_c, 9, 42, 64
14, 100800, Note_on_c, 9, 42, 67
14, 100816, Note_off_c, 9, 42, 64
14, 101280, Note_on_c, 9, 42, 66
14, 101296, Note_off_c, 9, 42, 64
14, 102240, Note_on_c, 9, 42, 84
14, 102256, Note_off_c, 9, 42, 64
14, 102720, Note_on_c, 9, 42, 84
14, 102736, Note_off_c, 9, 42, 64
14, 103200, Note_on_c, 9, 42, 74
14, 103216, Note_off_c, 9, 42, 64
14, 103440, Note_on_c, 9, 42, 71
14, 103448, Note_off_c, 9, 42, 64
14, 103560, Note_on_c, 9, 42, 76
14, 103568, Note_off_c, 9, 42, 64
14, 103680, Note_on_c, 9, 42, 65
14, 103696, Note_off_c, 9, 42, 64
14, 103920, Note_on_c, 9, 42, 69
14, 103928, Note_off_c, 9, 42, 64
14, 104040, Note_on_c, 9, 42, 84
14, 104048, Note_off_c, 9, 42, 64
14, 104160, Note_on_c, 9, 42, 79
14, 104176, Note_off_c, 9, 42, 64
14, 104400, Note_on_c, 9, 42, 73
14, 104408, Note_off_c, 9, 42, 64
14, 104520, Note_on_c, 9, 42, 73
14, 104528, Note_off_c, 9, 42, 64
14, 104640, Note_on_c, 9, 42, 76
14, 104648, Note_off_c, 9, 42, 64
14, 104760, Note_on_c, 9, 42, 86
14, 104768, Note_off_c, 9, 42, 64
14, 105120, Note_on_c, 9, 42, 84
14, 105136, Note_off_c, 9, 42, 64
14, 105360, Note_on_c, 9, 42, 72
14, 105368, Note_off_c, 9, 42, 64
14, 105480, Note_on_c, 9, 42, 66
14, 105488, Note_off_c, 9, 42, 64
14, 105600, Note_on_c, 9, 42, 80
14, 105616, Note_off_c, 9, 42, 64
14, 106080, Note_on_c, 9, 42, 67
14, 106096, Note_off_c, 9, 42, 64
14, 106320, Note_on_c, 9, 42, 82
14, 106328, Note_off_c, 9, 42, 64
14, 106440, Note_on_c, 9, 42, 68
14, 106448, Note_off_c, 9, 42, 64
14, 106560, Note_on_c, 9, 42, 73
14, 106576, Note_off_c, 9, 42, 64
14, 107040, Note_on_c, 9, 42, 82
14, 107072, Note_off_c, 9, 42, 64
14, 108960, Note_on_c, 9, 42, 81
14, 108992, Note_off_c, 9, 42, 64
14, 109920, Note_on_c, 9, 42, 73
14, 109936, Note_off_c, 9, 42, 64
14, 110400, Note_on_c, 9, 42, 84
14, 110416, Note_off_c, 9, 42, 64
14, 110880, Note_on_c, 9, 42, 70
14, 110896, Note_off_c, 9, 42, 64
14, 111360, Note_on_c, 9, 42, 74
14, 111376, Note_off_c, 9, 42, 64
14, 111840, Note_on_c, 9, 42, 79
14, 111856, Note_off_c, 9, 42, 64
14, 112320, Note_on_c, 9, 42, 72
14, 112336, Note_off_c, 9, 42, 64
14, 112800, Note_on_c, 9, 42, 71
14, 112816, Note_off_c, 9, 42, 64
14, 113040, Note_on_c, 9, 42, 87
14, 113048, Note_off_c, 9, 42, 64
14, 113160, Note_on_c, 9, 42, 73
14, 113168, Note_off_c, 9, 42, 64
14, 113280, Note_on_c, 9, 42, 83
14, 113296, Note_off_c, 9, 42, 64
14, 113760, Note_on_c, 9, 42, 76
14, 113776, Note_off_c, 9, 42, 64
14, 114240, Note_on_c, 9, 42, 65
14, 114256, Note_off_c, 9, 42, 64
14, 114720, Note_on_c, 9, 42, 68
14, 114736, Note_off_c, 9, 42, 64
14, 114960, Note_on_c, 9, 42, 73
14, 114968, Note_off_c, 9, 42, 64
14, 115080, Note_on_c, 9, 42, 77
14, 115088, Note_off_c, 9, 42, 64
14, 115200, Note_on_c, 9, 42, 86
14, 115216, Note_off_c, 9, 42, 64
14, 115680, Note_on_c, 9, 42, 73
14, 115696, Note_off_c, 9, 42, 64
14, 116160, Note_on_c, 9, 42, 82
14, 116176, Note_off_c, 9, 42, 64
14, 116640, Note_on_c, 9, 42, 67
14, 116656, Note_off_c, 9, 42, 64
14, 116880, Note_on_c, 9, 42, 79
14, 116888, Note_off_c, 9, 42, 64
14, 117000, Note_on_c, 9, 42, 80
14, 117008, Note_off_c, 9, 42, 64
14, 117120, Note_on_c, 9, 42, 87
14, 117136, Note_off_c, 9, 42, 64
14, 117600, Note_on_c, 9, 42, 81
14, 117616, Note_off_c, 9, 42, 64
14, 118080, Note_on_c, 9, 42, 88
14, 118096, Note_off_c, 9, 42, 64
14, 118560, Note_on_c, 9, 42, 66
14, 118576, Note_off_c, 9, 42, 64
14, 118800, Note_on_c, 9, 42, 88
14, 118808, Note_off_c, 9, 42, 64
14, 118920, Note_on_c, 9, 42, 74
14, 118928, Note_off_c, 9, 42, 64
14, 119040, Note_on_c, 9, 42, 69
14, 119056, Note_off_c, 9, 42, 64
14, 119520, Note_on_c, 9, 42, 88
14, 119536, Note_off_c, 9, 42, 64
14, 119760, Note_on_c, 9, 42, 85
14, 119768, Note_off_c, 9, 42, 64
14, 119880, Note_on_c, 9, 42, 87
14, 119888, Note_off_c, 9, 42, 64
14, 120000, Note_on_c, 9, 42, 88
14, 120008, Note_off_c, 9, 42, 64
14, 120120, Note_on_c, 9, 42, 68
14, 120128, Note_off_c, 9, 42, 64
14, 120480, Note_on_c, 9, 42, 77
14, 120496, Note_off_c, 9, 42, 64
14, 120720, Note_on_c, 9, 42, 67
14, 120728, Note_off_c, 9, 42, 64
14, 120840, Note_on_c, 9, 42, 75
14, 120848, Note_off_c, 9, 42, 64
14, 120960, Note_on_c, 9, 42, 87
14, 120976, Note_off_c, 9, 42, 64
14, 121440, Note_on_c, 9, 42, 65
14, 121456, Note_off_c, 9, 42, 64
14, 121920, Note_on_c, 9, 42, 82
14, 121936, Note_off_c, 9, 42, 64
14, 122400, Note_on_c, 9, 42, 80
14, 122432, Note_off_c, 9, 42, 64
14, 124320, Note_on_c, 9, 42, 85
14, 124352, Note_off_c, 9, 42, 64
14, 125280, Note_on_c, 9, 42, 84
14, 125296, Note_off_c, 9, 42, 64
14, 125520, Note_on_c, 9, 42, 73
14, 125528, Note_off_c, 9, 42, 64
14, 125640, Note_on_c, 9, 42, 74
14, 125648, Note_off_c, 9, 42, 64
14, 125760, Note_on_c, 9, 42, 82
14, 125776, Note_off_c, 9, 42, 64
14, 126240, Note_on_c, 9, 42, 65
14, 126256, Note_off_c, 9, 42, 64
14, 126480, Note_on_c, 9, 42, 80
14, 126488, Note_off_c, 9, 42, 64
14, 126600, Note_on_c, 9, 42, 71
14, 126608, Note_off_c, 9, 42, 64
14, 126720, Note_on_c, 9, 42, 80
14, 126736, Note_off_c, 9, 42, 64
14, 127200, Note_on_c, 9, 42, 68
14, 127216, Note_off_c, 9, 42, 64
14, 127440, Note_on_c, 9, 42, 68
14, 127448, Note_off_c, 9, 42, 64
14, 127560, Note_on_c, 9, 42, 84
14, 127568, Note_off_c, 9, 42, 64
14, 127680, Note_on_c, 9, 42, 77
14, 127688, Note_off_c, 9, 42, 64
14, 127800, Note_on_c, 9, 42, 80
14, 127808, Note_off_c, 9, 42, 64
14, 128160, Note_on_c, 9, 42, 65
14, 128176, Note_off_c, 9, 42, 64
14, 128400, Note_on_c, 9, 42, 75
14, 128408, Note_off_c, 9, 42, 64
14, 128520, Note_on_c, 9, 42, 87
14, 128528, Note_off_c, 9, 42, 64
14, 128640, Note_on_c, 9, 42, 78
14, 128656, Note_off_c, 9, 42, 64
14, 129120, Note_on_c, 9, 42, 87
14, 129136, Note_off_c, 9, 42, 64
14, 129360, Note_on_c, 9, 42, 67
14, 129368, Note_off_c, 9, 42, 64
14, 129480, Note_on_c, 9, 42, 69
14, 129488, Note_off_c, 9, 42, 64
14, 129600, Note_on_c, 9, 42, 81
14, 129608, Note_off_c, 9, 42, 64
14, 129720, Note_on_c, 9, 42, 73
14, 129728, Note_off_c, 9, 42, 64
14, 130080, Note_on_c, 9, 42, 76
14, 130096, Note_off_c, 9, 42, 64
14, 130320, Note_on_c, 9, 42, 75
14, 130328, Note_off_c, 9, 42, 64
14, 130440, Note_on_c, 9, 42, 72
14, 130448, Note_off_c, 9, 42, 64
14, 130560, Note_on_c, 9, 42, 74
14, 130576, Note_off_c, 9, 42, 64
14, 131040, Note_on_c, 9, 42, 83
14, 131056, Note_off_c, 9, 42, 64
14, 131280, Note_on_c, 9, 42, 85
14, 131288, Note_off_c, 9, 42, 64
14, 131400, Note_on_c, 9, 42, 77
14, 131408, Note_off_c, 9, 42, 64
14, 131520, Note_on_c, 9, 42, 71
14, 131528, Note_off_c, 9, 42, 64
14, 131640, Note_on_c, 9, 42, 70
14, 131648, Note_off_c, 9, 42, 64
14, 132000, Note_on_c, 9, 42, 65
14, 132016, Note_off_c, 9, 42, 64
14, 132240, Note_on_c, 9, 42, 75
14, 132248, Note_off_c, 9, 42, 64
14, 132360, Note_on_c, 9, 42, 83
14, 132368, Note_off_c, 9, 42, 64
14, 132480, Note_on_c, 9, 42, 66
14, 132496, Note_off_c, 9, 42, 64
14, 132960, Note_on_c, 9, 42, 77
14, 132976, Note_off_c, 9, 42, 64
14, 133200, Note_on_c, 9, 42, 79
14, 133208, Note_off_c, 9, 42, 64
14, 133320, Note_on_c, 9, 42, 83
14, 133328, Note_off_c, 9, 42, 64
14, 133440, Note_on_c, 9, 42, 77
14, 133448, Note_off_c, 9, 42, 64
14, 133560, Note_on_c, 9, 42, 74
14, 133568, Note_off_c, 9, 42, 64
14, 133920, Note_on_c, 9, 42, 77
14, 133936, Note_off_c, 9, 42, 64
14, 134160, Note_on_c, 9, 42, 85
14, 134168, Note_off_c, 9, 42, 64
14, 134280, Note_on_c, 9, 42, 82
14, 134288, Note_off_c, 9, 42, 64
14, 134400, Note_on_c, 9, 42, 86
14, 134416, Note_off_c, 9, 42, 64
14, 134880, Note_on_c, 9, 42, 71
14, 134896, Note_off_c, 9, 42, 64
14, 135120, Note_on_c, 9, 42, 69
14, 135128, Note_off_c, 9, 42, 64
14, 135240, Note_on_c, 9, 42, 65
14, 135248, Note_off_c, 9, 42, 64
14, 135360, Note_on_c, 9, 42, 75
14, 135368, Note_off_c, 9, 42, 64
14, 135480, Note_on_c, 9, 42, 71
14, 135488, Note_off_c, 9, 42, 64
14, 135840, Note_on_c, 9, 42, 74
14, 135856, Note_off_c, 9, 42, 64
14, 136080, Note_on_c, 9, 42, 73
14, 136088, Note_off_c, 9, 42, 64
14, 136200, Note_on_c, 9, 42, 79
14, 136208, Note_off_c, 9, 42, 64
14, 136800, Note_on_c, 9, 42, 70
14, 136816, Note_off_c, 9, 42, 64
14, 137040, Note_on_c, 9, 42, 80
14, 137048, Note_off_c, 9, 42, 64
14, 137160, Note_on_c, 9, 42, 79
14, 137168, Note_off_c, 9, 42, 64
14, 137280, Note_on_c, 9, 42, 67
14, 137296, Note_off_c, 9, 42, 64
14, 137760, Note_on_c, 9, 42, 67
14, 137792, Note_off_c, 9, 42, 64
14, 140160, Note_on_c, 9, 42, 82
14, 140192, Note_off_c, 9, 42, 64
14, 140640, Note_on_c, 9, 42, 72
14, 140672, Note_off_c, 9, 42, 64
14, 142560, Note_on_c, 9, 42, 70
14, 142592, Note_off_c, 9, 42, 64
14, 144480, Note_on_c, 9, 42, 70
14, 144512, Note_off_c, 9, 42, 64
14, 146400, Note_on_c, 9, 42, 79
14, 146432, Note_off_c, 9, 42, 64
14, 146880, Note_on_c, 9, 42, 70
14, 146912, Note_off_c, 9, 42, 64
14, 147840, Note_on_c, 9, 42, 87
14, 147872, Note_off_c, 9, 42, 64
14, 148320, Note_on_c, 9, 42, 83
14, 148352, Note_off_c, 9, 42, 64
14, 148800, Note_on_c, 9, 42, 76
14, 148808, Note_off_c, 9, 42, 64
14, 148920, Note_on_c, 9, 42, 70
14, 148936, Note_off_c, 9, 42, 64
14, 149160, Note_on_c, 9, 42, 80
14, 149168, Note_off_c, 9, 42, 64
14, 149280, Note_on_c, 9, 42, 84
14, 149288, Note_off_c, 9, 42, 64
14, 149400, Note_on_c, 9, 42, 82
14, 149408, Note_off_c, 9, 42, 64
14, 149520, Note_on_c, 9, 42, 72
14, 149536, Note_off_c, 9, 42, 64
14, 150000, Note_on_c, 9, 42, 80
14, 150008, Note_off_c, 9, 42, 64
14, 150120, Note_on_c, 9, 42, 66
14, 150128, Note_off_c, 9, 42, 64
14, 150240, Note_on_c, 9, 42, 69
14, 150248, Note_off_c, 9, 42, 64
14, 150360, Note_on_c, 9, 42, 78
14, 150368, Note_off_c, 9, 42, 64
14, 150480, Note_on_c, 9, 42, 86
14, 150488, Note_off_c, 9, 42, 64
14, 150600, Note_on_c, 9, 42, 79
14, 150608, Note_off_c, 9, 42, 64
14, 150720, Note_on_c, 9, 42, 71
14, 150728, Note_off_c, 9, 42, 64
14, 150840, Note_on_c, 9, 42, 76
14, 150848, Note_off_c, 9, 42, 64
14, 150960, Note_on_c, 9, 42, 85
14, 150968, Note_off_c, 9, 42, 64
14, 151080, Note_on_c, 9, 42, 74
14, 151088, Note_off_c, 9, 42, 64
14, 151200, Note_on_c, 9, 42, 82
14, 151208, Note_off_c, 9, 42, 64
14, 151320, Note_on_c, 9, 42, 72
14, 151328, Note_off_c, 9, 42, 64
14, 151440, Note_on_c, 9, 42, 78
14, 151448, Note_off_c, 9, 42, 64
14, 151560, Note_on_c, 9, 42, 73
14, 151568, Note_off_c, 9, 42, 64
14, 151920, Note_on_c, 9, 42, 85
14, 151928, Note_off_c, 9, 42, 64
14, 152040, Note_on_c, 9, 42, 72
14, 152048, Note_off_c, 9, 42, 64
14, 152160, Note_on_c, 9, 42, 79
14, 152168, Note_off_c, 9, 42, 64
14, 152280, Note_on_c, 9, 42, 73
14, 152288, Note_off_c, 9, 42, 64
14, 152400, Note_on_c, 9, 42, 73
14, 152408, Note_off_c, 9, 42, 64
14, 152520, Note_on_c, 9, 42, 80
14, 152528, Note_off_c, 9, 42, 64
14, 152640, Note_on_c, 9, 42, 77
14, 152648, Note_off_c, 9, 42, 64
14, 152760, Note_on_c, 9, 42, 71
14, 152768, Note_off_c, 9, 42, 64
14, 152880, Note_on_c, 9, 42, 88
14, 152888, Note_off_c, 9, 42, 64
14, 153000, Note_on_c, 9, 42, 83
14, 153008, Note_off_c, 9, 42, 64
14, 153120, Note_on_c, 9, 42, 66
14, 153128, Note_off_c, 9, 42, 64
14, 153240, Note_on_c, 9, 42, 74
14, 153248, Note_off_c, 9, 42, 64
14, 153360, Note_on_c, 9, 42, 85
14, 153368, Note_off_c, 9, 42, 64
14, 153480, Note_on_c, 9, 42, 76
14, 153488, Note_off_c, 9, 42, 64
14, 153840, Note_on_c, 9, 42, 80
14, 153848, Note_off_c, 9, 42, 64
14, 153960, Note_on_c, 9, 42, 82
14, 153968, Note_off_c, 9, 42, 64
14, 154080, Note_on_c, 9, 42, 85
14, 154088, Note_off_c, 9, 42, 64
14, 154200, Note_on_c, 9, 42, 84
14, 154208, Note_off_c, 9, 42, 64
14, 154320, Note_on_c, 9, 42, 67
14, 154328, Note_off_c, 9, 42, 64
14, 154440, Note_on_c, 9, 42, 77
14, 154448, Note_off_c, 9, 42, 64
14, 154560, Note_on_c, 9, 42, 76
14, 154568, Note_off_c, 9, 42, 64
14, 154680, Note_on_c, 9, 42, 67
14, 154688, Note_off_c, 9, 42, 64
14, 154800, Note_on_c, 9, 42, 71
14, 154808, Note_off_c, 9, 42, 64
14, 154920, Note_on_c, 9, 42, 87
14, 154928, Note_off_c, 9, 42, 64
14, 155040, Note_on_c, 9, 42, 80
14, 155072, Note_off_c, 9, 42, 64
14, 156000, Note_on_c, 9, 42, 69
14, 156032, Note_off_c, 9, 42, 64
14, 156720, Note_on_c, 9, 42, 87
14, 156736, Note_off_c, 9, 42, 64
14, 156960, Note_on_c, 9, 42, 84
14, 156976, Note_off_c, 9, 42, 64
14, 157200, Note_on_c, 9, 42, 77
14, 157216, Note_off_c, 9, 42, 64
14, 157680, Note_on_c, 9, 42, 85
14, 157696, Note_off_c, 9, 42, 64
14, 158160, Note_on_c, 9, 42, 85
14, 158176, Note_off_c, 9, 42, 64
14, 158640, Note_on_c, 9, 42, 77
14, 158648, Note_off_c, 9, 42, 64
14, 158760, Note_on_c, 9, 42, 79
14, 158768, Note_off_c, 9, 42, 64
14, 158880, Note_on_c, 9, 42, 65
14, 158896, Note_off_c, 9, 42, 64
14, 159120, Note_on_c, 9, 42, 83
14, 159136, Note_off_c, 9, 42, 64
14, 159360, Note_on_c, 9, 42, 66
14, 159376, Note_off_c, 9, 42, 64
14, 159600, Note_on_c, 9, 42, 85
14, 159608, Note_off_c, 9, 42, 64
14, 159720, Note_on_c, 9, 42, 81
14, 159728, Note_off_c, 9, 42, 64
14, 160080, Note_on_c, 9, 42, 82
14, 160088, Note_off_c, 9, 42, 64
14, 160200, Note_on_c, 9, 42, 67
14, 160208, Note_off_c, 9, 42, 64
14, 160320, Note_on_c, 9, 42, 68
14, 160336, Note_off_c, 9, 42, 64
14, 160800, Note_on_c, 9, 42, 72
14, 160816, Note_off_c, 9, 42, 64
14, 161040, Note_on_c, 9, 42, 74
14, 161048, Note_off_c, 9, 42, 64
14, 161160, Note_on_c, 9, 42, 75
14, 161168, Note_off_c, 9, 42, 64
14, 161280, Note_on_c, 9, 42, 79
14, 161296, Note_off_c, 9, 42, 64
14, 161520, Note_on_c, 9, 42, 86
14, 161528, Note_off_c, 9, 42, 64
14, 161640, Note_on_c, 9, 42, 79
14, 161648, Note_off_c, 9, 42, 64
14, 162000, Note_on_c, 9, 42, 66
14, 162008, Note_off_c, 9, 42, 64
14, 162120, Note_on_c, 9, 42, 88
14, 162128, Note_off_c, 9, 42, 64
14, 162240, Note_on_c, 9, 42, 81
14, 162256, Note_off_c, 9, 42, 64
14, 162720, Note_on_c, 9, 42, 85
14, 162736, Note_off_c, 9, 42, 64
14, 162960, Note_on_c, 9, 42, 67
14, 162968, Note_off_c, 9, 42, 64
14, 163080, Note_on_c, 9, 42, 82
14, 163088, Note_off_c, 9, 42, 64
14, 163200, Note_on_c, 9, 42, 77
14, 163216, Note_off_c, 9, 42, 64
14, 163440, Note_on_c, 9, 42, 68
14, 163448, Note_off_c, 9, 42, 64
14, 163560, Note_on_c, 9, 42, 66
14, 163568, Note_off_c, 9, 42, 64
14, 163920, Note_on_c, 9, 42, 74
14, 163928, Note_off_c, 9, 42, 64
14, 164040, Note_on_c, 9, 42, 87
14, 164048, Note_off_c, 9, 42, 64
14, 164160, Note_on_c, 9, 42, 87
14, 164176, Note_off_c, 9, 42, 64
14, 164640, Note_on_c, 9, 42, 85
14, 164656, Note_off_c, 9, 42, 64
14, 164880, Note_on_c, 9, 42, 84
14, 164888, Note_off_c, 9, 42, 64
14, 165000, Note_on_c, 9, 42, 72
14, 165008, Note_off_c, 9, 42, 64
14, 165120, Note_on_c, 9, 42, 84
14, 165136, Note_off_c, 9, 42, 64
14, 165360, Note_on_c, 9, 42, 79
14, 165368, Note_off_c, 9, 42, 64
14, 165480, Note_on_c, 9, 42, 88
14, 165488, Note_off_c, 9, 42, 64
14, 165840, Note_on_c, 9, 42, 81
14, 165848, Note_off_c, 9, 42, 64
14, 165960, Note_on_c, 9, 42, 65
14, 165968, Note_off_c, 9, 42, 64
14, 166080, Note_on_c, 9, 42, 80
14, 166096, Note_off_c, 9, 42, 64
14, 166560, Note_on_c, 9, 42, 75
14, 166576, Note_off_c, 9, 42, 64
14, 166800, Note_on_c, 9, 42, 88
14, 166808, Note_off_c, 9, 42, 64
14, 166920, Note_on_c, 9, 42, 71
14, 166928, Note_off_c, 9, 42, 64
14, 167040, Note_on_c, 9, 42, 84
14, 167056, Note_off_c, 9, 42, 64
14, 167280, Note_on_c, 9, 42, 73
14, 167288, Note_off_c, 9, 42, 64
14, 167400, Note_on_c, 9, 42, 65
14, 167408, Note_off_c, 9, 42, 64
14, 167760, Note_on_c, 9, 42, 76
14, 167768, Note_off_c, 9, 42, 64
14, 167880, Note_on_c, 9, 42, 75
14, 167888, Note_off_c, 9, 42, 64
14, 168000, Note_on_c, 9, 42, 65
14, 168016, Note_off_c, 9, 42, 64
14, 168480, Note_on_c, 9, 42, 67
14, 168496, Note_off_c, 9, 42, 64
14, 168720, Note_on_c, 9, 42, 66
14, 168728, Note_off_c, 9, 42, 64
14, 168840, Note_on_c, 9, 42, 88
14, 168848, Note_off_c, 9, 42, 64
14, 168960, Note_on_c, 9, 42, 78
14, 168976, Note_off_c, 9, 42, 64
14, 169200, Note_on_c, 9, 42, 68
14, 169208, Note_off_c, 9, 42, 64
14, 169320, Note_on_c, 9, 42, 77
14, 169328, Note_off_c, 9, 42, 64
14, 169680, Note_on_c, 9, 42, 76
14, 169688, Note_off_c, 9, 42, 64
14, 169800, Note_on_c, 9, 42, 72
14, 169808, Note_off_c, 9, 42, 64
14, 169920, Note_on_c, 9, 42, 81
14, 169936, Note_off_c, 9, 42, 64
14, 170400, Note_on_c, 9, 42, 72
14, 170416, Note_off_c, 9, 42, 64
14, 170640, Note_on_c, 9, 42, 69
14, 170648, Note_off_c, 9, 42, 64
14, 170760, Note_on_c, 9, 42, 87
14, 170768, Note_off_c, 9, 42, 64
14, 170768, End_track
15, 0, Start_track
15, 0, Title_t, "HH Open"
15, 0, MIDI_port, 0
15, 0, Channel_prefix, 9
15, 0, Control_c, 9, 10, 64
15, 5520, Note_on_c, 9, 46, 87
15, 5536, Note_off_c, 9, 46, 64
15, 7440, Note_on_c, 9, 46, 79
15, 7456, Note_off_c, 9, 46, 64
15, 9360, Note_on_c, 9, 46, 73
15, 9376, Note_off_c, 9, 46, 64
15, 11280, Note_on_c, 9, 46, 69
15, 11296, Note_off_c, 9, 46, 64
15, 13200, Note_on_c, 9, 46, 79
15, 13216, Note_off_c, 9, 46, 64
15, 15120, Note_on_c, 9, 46, 73
15, 15136, Note_off_c, 9, 46, 64
15, 17040, Note_on_c, 9, 46, 87
15, 17056, Note_off_c, 9, 46, 64
15, 19920, Note_on_c, 9, 46, 80
15, 19936, Note_off_c, 9, 46, 64
15, 20400, Note_on_c, 9, 46, 80
15, 20416, Note_off_c, 9, 46, 64
15, 20880, Note_on_c, 9, 46, 70
15, 20896, Note_off_c, 9, 46, 64
15, 21360, Note_on_c, 9, 46, 69
15, 21376, Note_off_c, 9, 46, 64
15, 22320, Note_on_c, 9, 46, 83
15, 22336, Note_off_c, 9, 46, 64
15, 23280, Note_on_c, 9, 46, 77
15, 23296, Note_off_c, 9, 46, 64
15, 23760, Note_on_c, 9, 46, 68
15, 23776, Note_off_c, 9, 46, 64
15, 24240, Note_on_c, 9, 46, 84
15, 24256, Note_off_c, 9, 46, 64
15, 25200, Note_on_c, 9, 46, 72
15, 25216, Note_off_c, 9, 46, 64
15, 26160, Note_on_c, 9, 46, 75
15, 26176, Note_off_c, 9, 46, 64
15, 27120, Note_on_c, 9, 46, 73
15, 27136, Note_off_c, 9, 46, 64
15, 28080, Note_on_c, 9, 46, 76
15, 28096, Note_off_c, 9, 46, 64
15, 29040, Note_on_c, 9, 46, 86
15, 29056, Note_off_c, 9, 46, 64
15, 30120, Note_on_c, 9, 46, 73
15, 30136, Note_off_c, 9, 46, 64
15, 30960, Note_on_c, 9, 46, 69
15, 30976, Note_off_c, 9, 46, 64
15, 31920, Note_on_c, 9, 46, 68
15, 31936, Note_off_c, 9, 46, 64
15, 32880, Note_on_c, 9, 46, 74
15, 32896, Note_off_c, 9, 46, 64
15, 33840, Note_on_c, 9, 46, 86
15, 33856, Note_off_c, 9, 46, 64
15, 34800, Note_on_c, 9, 46, 73
15, 34816, Note_off_c, 9, 46, 64
15, 35760, Note_on_c, 9, 46, 85
15, 35776, Note_off_c, 9, 46, 64
15, 36720, Note_on_c, 9, 46, 70
15, 36736, Note_off_c, 9, 46, 64
15, 37680, Note_on_c, 9, 46, 81
15, 37696, Note_off_c, 9, 46, 64
15, 38640, Note_on_c, 9, 46, 86
15, 38656, Note_off_c, 9, 46, 64
15, 39600, Note_on_c, 9, 46, 70
15, 39616, Note_off_c, 9, 46, 64
15, 40560, Note_on_c, 9, 46, 72
15, 40576, Note_off_c, 9, 46, 64
15, 41520, Note_on_c, 9, 46, 70
15, 41536, Note_off_c, 9, 46, 64
15, 42480, Note_on_c, 9, 46, 71
15, 42496, Note_off_c, 9, 46, 64
15, 44880, Note_on_c, 9, 46, 79
15, 44896, Note_off_c, 9, 46, 64
15, 45360, Note_on_c, 9, 46, 76
15, 45376, Note_off_c, 9, 46, 64
15, 45840, Note_on_c, 9, 46, 68
15, 45856, Note_off_c, 9, 46, 64
15, 46320, Note_on_c, 9, 46, 79
15, 46336, Note_off_c, 9, 46, 64
15, 46800, Note_on_c, 9, 46, 78
15, 46816, Note_off_c, 9, 46, 64
15, 47280, Note_on_c, 9, 46, 81
15, 47296, Note_off_c, 9, 46, 64
15, 47760, Note_on_c, 9, 46, 86
15, 47768, Note_off_c, 9, 46, 64
15, 48240, Note_on_c, 9, 46, 81
15, 48256, Note_off_c, 9, 46, 64
15, 48720, Note_on_c, 9, 46, 86
15, 48736, Note_off_c, 9, 46, 64
15, 49200, Note_on_c, 9, 46, 87
15, 49216, Note_off_c, 9, 46, 64
15, 49680, Note_on_c, 9, 46, 82
15, 49696, Note_off_c, 9, 46, 64
15, 50160, Note_on_c, 9, 46, 80
15, 50176, Note_off_c, 9, 46, 64
15, 50640, Note_on_c, 9, 46, 72
15, 50656, Note_off_c, 9, 46, 64
15, 51120, Note_on_c, 9, 46, 69
15, 51136, Note_off_c, 9, 46, 64
15, 51600, Note_on_c, 9, 46, 77
15, 51616, Note_off_c, 9, 46, 64
15, 52080, Note_on_c, 9, 46, 75
15, 52096, Note_off_c, 9, 46, 64
15, 52560, Note_on_c, 9, 46, 70
15, 52576, Note_off_c, 9, 46, 64
15, 53040, Note_on_c, 9, 46, 80
15, 53056, Note_off_c, 9, 46, 64
15, 53520, Note_on_c, 9, 46, 67
15, 53536, Note_off_c, 9, 46, 64
15, 54000, Note_on_c, 9, 46, 74
15, 54016, Note_off_c, 9, 46, 64
15, 54960, Note_on_c, 9, 46, 77
15, 54976, Note_off_c, 9, 46, 64
15, 55920, Note_on_c, 9, 46, 82
15, 55936, Note_off_c, 9, 46, 64
15, 56400, Note_on_c, 9, 46, 68
15, 56416, Note_off_c, 9, 46, 64
15, 56880, Note_on_c, 9, 46, 83
15, 56896, Note_off_c, 9, 46, 64
15, 57360, Note_on_c, 9, 46, 68
15, 57376, Note_off_c, 9, 46, 64
15, 57840, Note_on_c, 9, 46, 81
15, 57856, Note_off_c, 9, 46, 64
15, 58320, Note_on_c, 9, 46, 75
15, 58336, Note_off_c, 9, 46, 64
15, 58800, Note_on_c, 9, 46, 80
15, 58816, Note_off_c, 9, 46, 64
15, 59280, Note_on_c, 9, 46, 70
15, 59296, Note_off_c, 9, 46, 64
15, 60240, Note_on_c, 9, 46, 85
15, 60256, Note_off_c, 9, 46, 64
15, 64560, Note_on_c, 9, 46, 83
15, 64576, Note_off_c, 9, 46, 64
15, 66480, Note_on_c, 9, 46, 78
15, 66496, Note_off_c, 9, 46, 64
15, 67440, Note_on_c, 9, 46, 77
15, 67456, Note_off_c, 9, 46, 64
15, 69840, Note_on_c, 9, 46, 76
15, 69856, Note_off_c, 9, 46, 64
15, 70320, Note_on_c, 9, 46, 78
15, 70336, Note_off_c, 9, 46, 64
15, 70800, Note_on_c, 9, 46, 78
15, 70816, Note_off_c, 9, 46, 64
15, 71280, Note_on_c, 9, 46, 82
15, 71296, Note_off_c, 9, 46, 64
15, 71760, Note_on_c, 9, 46, 80
15, 71776, Note_off_c, 9, 46, 64
15, 72240, Note_on_c, 9, 46, 87
15, 72256, Note_off_c, 9, 46, 64
15, 73200, Note_on_c, 9, 46, 76
15, 73216, Note_off_c, 9, 46, 64
15, 74160, Note_on_c, 9, 46, 67
15, 74176, Note_off_c, 9, 46, 64
15, 75120, Note_on_c, 9, 46, 83
15, 75136, Note_off_c, 9, 46, 64
15, 76080, Note_on_c, 9, 46, 82
15, 76096, Note_off_c, 9, 46, 64
15, 77040, Note_on_c, 9, 46, 85
15, 77056, Note_off_c, 9, 46, 64
15, 78000, Note_on_c, 9, 46, 80
15, 78016, Note_off_c, 9, 46, 64
15, 78960, Note_on_c, 9, 46, 80
15, 78976, Note_off_c, 9, 46, 64
15, 79920, Note_on_c, 9, 46, 85
15, 79936, Note_off_c, 9, 46, 64
15, 80880, Note_on_c, 9, 46, 83
15, 80896, Note_off_c, 9, 46, 64
15, 81840, Note_on_c, 9, 46, 79
15, 81856, Note_off_c, 9, 46, 64
15, 82800, Note_on_c, 9, 46, 85
15, 82816, Note_off_c, 9, 46, 64
15, 83760, Note_on_c, 9, 46, 75
15, 83776, Note_off_c, 9, 46, 64
15, 84720, Note_on_c, 9, 46, 84
15, 84736, Note_off_c, 9, 46, 64
15, 86640, Note_on_c, 9, 46, 86
15, 86656, Note_off_c, 9, 46, 64
15, 87600, Note_on_c, 9, 46, 78
15, 87616, Note_off_c, 9, 46, 64
15, 88560, Note_on_c, 9, 46, 75
15, 88576, Note_off_c, 9, 46, 64
15, 89520, Note_on_c, 9, 46, 69
15, 89536, Note_off_c, 9, 46, 64
15, 90480, Note_on_c, 9, 46, 70
15, 90496, Note_off_c, 9, 46, 64
15, 91440, Note_on_c, 9, 46, 84
15, 91456, Note_off_c, 9, 46, 64
15, 92400, Note_on_c, 9, 46, 67
15, 92416, Note_off_c, 9, 46, 64
15, 94800, Note_on_c, 9, 46, 82
15, 94816, Note_off_c, 9, 46, 64
15, 95280, Note_on_c, 9, 46, 69
15, 95296, Note_off_c, 9, 46, 64
15, 95760, Note_on_c, 9, 46, 81
15, 95776, Note_off_c, 9, 46, 64
15, 96240, Note_on_c, 9, 46, 81
15, 96256, Note_off_c, 9, 46, 64
15, 96720, Note_on_c, 9, 46, 84
15, 96736, Note_off_c, 9, 46, 64
15, 97200, Note_on_c, 9, 46, 74
15, 97216, Note_off_c, 9, 46, 64
15, 98160, Note_on_c, 9, 46, 68
15, 98176, Note_off_c, 9, 46, 64
15, 98640, Note_on_c, 9, 46, 77
15, 98656, Note_off_c, 9, 46, 64
15, 99120, Note_on_c, 9, 46, 76
15, 99136, Note_off_c, 9, 46, 64
15, 99600, Note_on_c, 9, 46, 76
15, 99616, Note_off_c, 9, 46, 64
15, 100080, Note_on_c, 9, 46, 81
15, 100096, Note_off_c, 9, 46, 64
15, 100560, Note_on_c, 9, 46, 79
15, 100576, Note_off_c, 9, 46, 64
15, 101040, Note_on_c, 9, 46, 83
15, 101056, Note_off_c, 9, 46, 64
15, 101520, Note_on_c, 9, 46, 84
15, 101536, Note_off_c, 9, 46, 64
15, 102000, Note_on_c, 9, 46, 73
15, 102016, Note_off_c, 9, 46, 64
15, 102480, Note_on_c, 9, 46, 86
15, 102496, Note_off_c, 9, 46, 64
15, 102960, Note_on_c, 9, 46, 71
15, 102976, Note_off_c, 9, 46, 64
15, 104880, Note_on_c, 9, 46, 86
15, 104896, Note_off_c, 9, 46, 64
15, 107760, Note_on_c, 9, 46, 69
15, 107776, Note_off_c, 9, 46, 64
15, 108720, Note_on_c, 9, 46, 79
15, 108736, Note_off_c, 9, 46, 64
15, 111600, Note_on_c, 9, 46, 86
15, 111616, Note_off_c, 9, 46, 64
15, 112080, Note_on_c, 9, 46, 74
15, 112096, Note_off_c, 9, 46, 64
15, 112560, Note_on_c, 9, 46, 67
15, 112576, Note_off_c, 9, 46, 64
15, 113040, Note_on_c, 9, 46, 68
15, 113056, Note_off_c, 9, 46, 64
15, 113520, Note_on_c, 9, 46, 69
15, 113536, Note_off_c, 9, 46, 64
15, 114000, Note_on_c, 9, 46, 77
15, 114016, Note_off_c, 9, 46, 64
15, 114480, Note_on_c, 9, 46, 71
15, 114496, Note_off_c, 9, 46, 64
15, 115440, Note_on_c, 9, 46, 67
15, 115456, Note_off_c, 9, 46, 64
15, 115920, Note_on_c, 9, 46, 86
15, 115936, Note_off_c, 9, 46, 64
15, 116400, Note_on_c, 9, 46, 87
15, 116416, Note_off_c, 9, 46, 64
15, 117360, Note_on_c, 9, 46, 86
15, 117376, Note_off_c, 9, 46, 64
15, 117840, Note_on_c, 9, 46, 72
15, 117856, Note_off_c, 9, 46, 64
15, 118320, Note_on_c, 9, 46, 84
15, 118336, Note_off_c, 9, 46, 64
15, 119280, Note_on_c, 9, 46, 70
15, 119296, Note_off_c, 9, 46, 64
15, 119760, Note_on_c, 9, 46, 72
15, 119776, Note_off_c, 9, 46, 64
15, 120240, Note_on_c, 9, 46, 69
15, 120256, Note_off_c, 9, 46, 64
15, 121200, Note_on_c, 9, 46, 84
15, 121216, Note_off_c, 9, 46, 64
15, 122160, Note_on_c, 9, 46, 67
15, 122176, Note_off_c, 9, 46, 64
15, 123120, Note_on_c, 9, 46, 85
15, 123136, Note_off_c, 9, 46, 64
15, 123600, Note_on_c, 9, 46, 81
15, 123616, Note_off_c, 9, 46, 64
15, 124080, Note_on_c, 9, 46, 70
15, 124096, Note_off_c, 9, 46, 64
15, 125040, Note_on_c, 9, 46, 68
15, 125056, Note_off_c, 9, 46, 64
15, 126000, Note_on_c, 9, 46, 75
15, 126016, Note_off_c, 9, 46, 64
15, 126960, Note_on_c, 9, 46, 74
15, 126976, Note_off_c, 9, 46, 64
15, 127440, Note_on_c, 9, 46, 79
15, 127456, Note_off_c, 9, 46, 64
15, 127920, Note_on_c, 9, 46, 75
15, 127936, Note_off_c, 9, 46, 64
15, 128880, Note_on_c, 9, 46, 72
15, 128896, Note_off_c, 9, 46, 64
15, 129360, Note_on_c, 9, 46, 73
15, 129376, Note_off_c, 9, 46, 64
15, 129840, Note_on_c, 9, 46, 80
15, 129856, Note_off_c, 9, 46, 64
15, 130800, Note_on_c, 9, 46, 81
15, 130816, Note_off_c, 9, 46, 64
15, 131280, Note_on_c, 9, 46, 72
15, 131296, Note_off_c, 9, 46, 64
15, 131760, Note_on_c, 9, 46, 71
15, 131776, Note_off_c, 9, 46, 64
15, 132720, Note_on_c, 9, 46, 84
15, 132736, Note_off_c, 9, 46, 64
15, 133200, Note_on_c, 9, 46, 77
15, 133216, Note_off_c, 9, 46, 64
15, 133680, Note_on_c, 9, 46, 83
15, 133696, Note_off_c, 9, 46, 64
15, 134640, Note_on_c, 9, 46, 70
15, 134656, Note_off_c, 9, 46, 64
15, 135120, Note_on_c, 9, 46, 73
15, 135136, Note_off_c, 9, 46, 64
15, 135600, Note_on_c, 9, 46, 86
15, 135616, Note_off_c, 9, 46, 64
15, 137520, Note_on_c, 9, 46, 77
15, 137536, Note_off_c, 9, 46, 64
15, 160560, Note_on_c, 9, 46, 80
15, 160576, Note_off_c, 9, 46, 64
15, 162480, Note_on_c, 9, 46, 74
15, 162496, Note_off_c, 9, 46, 64
15, 164400, Note_on_c, 9, 46, 81
15, 164416, Note_off_c, 9, 46, 64
15, 166320, Note_on_c, 9, 46, 87
15, 166336, Note_off_c, 9, 46, 64
15, 168240, Note_on_c, 9, 46, 75
15, 168256, Note_off_c, 9, 46, 64
15, 170160, Note_on_c, 9, 46, 70
15, 170176, Note_off_c, 9, 46, 64
15, 170176, End_track
16, 0, Start_track
16, 0, Title_t, "Crash"
16, 0, MIDI_port, 0
16, 0, Channel_prefix, 9
16, 0, Control_c, 9, 10, 64
16, 3360, Note_on_c, 9, 49, 86
16, 3392, Note_off_c, 9, 49, 64
16, 19200, Note_on_c, 9, 49, 78
16, 19232, Note_off_c, 9, 49, 64
16, 29520, Note_on_c, 9, 49, 81
16, 29560, Note_off_c, 9, 49, 64
16, 36480, Note_on_c, 9, 49, 80
16, 36488, Note_off_c, 9, 49, 64
16, 44160, Note_on_c, 9, 49, 81
16, 44192, Note_off_c, 9, 49, 64
16, 59520, Note_on_c, 9, 49, 81
16, 59552, Note_off_c, 9, 49, 64
16, 61440, Note_on_c, 9, 49, 77
16, 61456, Note_off_c, 9, 49, 64
16, 69120, Note_on_c, 9, 49, 81
16, 69152, Note_off_c, 9, 49, 64
16, 86400, Note_on_c, 9, 49, 81
16, 86416, Note_off_c, 9, 49, 64
16, 94080, Note_on_c, 9, 49, 78
16, 94112, Note_off_c, 9, 49, 64
16, 101760, Note_on_c, 9, 49, 81
16, 101776, Note_off_c, 9, 49, 64
16, 107760, Note_on_c, 9, 49, 81
16, 107784, Note_off_c, 9, 49, 64
16, 108120, Note_on_c, 9, 49, 81
16, 108144, Note_off_c, 9, 49, 64
16, 108480, Note_on_c, 9, 49, 86
16, 108512, Note_off_c, 9, 49, 64
16, 109440, Note_on_c, 9, 49, 78
16, 109456, Note_off_c, 9, 49, 64
16, 123120, Note_on_c, 9, 49, 80
16, 123144, Note_off_c, 9, 49, 64
16, 123480, Note_on_c, 9, 49, 81
16, 123504, Note_off_c, 9, 49, 64
16, 123840, Note_on_c, 9, 49, 78
16, 123872, Note_off_c, 9, 49, 64
16, 124800, Note_on_c, 9, 49, 86
16, 124816, Note_off_c, 9, 49, 64
16, 136320, Note_on_c, 9, 49, 81
16, 136352, Note_off_c, 9, 49, 64
16, 138480, Note_on_c, 9, 49, 83
16, 138504, Note_off_c, 9, 49, 64
16, 138840, Note_on_c, 9, 49, 86
16, 138864, Note_off_c, 9, 49, 64
16, 139200, Note_on_c, 9, 49, 81
16, 139232, Note_off_c, 9, 49, 64
16, 139680, Note_on_c, 9, 49, 77
16, 139712, Note_off_c, 9, 49, 64
16, 147360, Note_on_c, 9, 49, 80
16, 147392, Note_off_c, 9, 49, 64
16, 155520, Note_on_c, 9, 49, 80
16, 155552, Note_off_c, 9, 49, 64
16, 171600, Note_on_c, 9, 49, 86
16, 171632, Note_off_c, 9, 49, 64
16, 171632, End_track
17, 0, Start_track
17, 0, Title_t, "H Conga"
17, 0, MIDI_port, 0
17, 0, Channel_prefix, 9
17, 0, Control_c, 9, 10, 64
17, 4080, Note_on_c, 9, 63, 80
17, 4112, Note_off_c, 9, 63, 64
17, 5040, Note_on_c, 9, 63, 88
17, 5072, Note_off_c, 9, 63, 64
17, 6240, Note_on_c, 9, 63, 98
17, 6272, Note_off_c, 9, 63, 64
17, 6960, Note_on_c, 9, 63, 95
17, 6976, Note_off_c, 9, 63, 64
17, 7200, Note_on_c, 9, 64, 96
17, 7232, Note_off_c, 9, 64, 64
17, 8160, Note_on_c, 9, 63, 98
17, 8192, Note_off_c, 9, 63, 64
17, 8880, Note_on_c, 9, 63, 90
17, 8896, Note_off_c, 9, 63, 64
17, 9120, Note_on_c, 9, 64, 98
17, 9152, Note_off_c, 9, 64, 64
17, 10080, Note_on_c, 9, 63, 89
17, 10112, Note_off_c, 9, 63, 64
17, 10800, Note_on_c, 9, 63, 97
17, 10816, Note_off_c, 9, 63, 64
17, 12000, Note_on_c, 9, 63, 81
17, 12032, Note_off_c, 9, 63, 64
17, 12720, Note_on_c, 9, 63, 84
17, 12736, Note_off_c, 9, 63, 64
17, 13920, Note_on_c, 9, 63, 81
17, 13952, Note_off_c, 9, 63, 64
17, 14640, Note_on_c, 9, 63, 95
17, 14656, Note_off_c, 9, 63, 64
17, 15840, Note_on_c, 9, 63, 86
17, 15872, Note_off_c, 9, 63, 64
17, 16560, Note_on_c, 9, 63, 90
17, 16576, Note_off_c, 9, 63, 64
17, 17760, Note_on_c, 9, 63, 98
17, 17792, Note_off_c, 9, 63, 64
17, 18480, Note_on_c, 9, 63, 83
17, 18496, Note_off_c, 9, 63, 64
17, 19680, Note_on_c, 9, 63, 94
17, 19712, Note_off_c, 9, 63, 64
17, 20400, Note_on_c, 9, 63, 79
17, 20416, Note_off_c, 9, 63, 64
17, 21600, Note_on_c, 9, 63, 92
17, 21632, Note_off_c, 9, 63, 64
17, 22320, Note_on_c, 9, 63, 88
17, 22336, Note_off_c, 9, 63, 64
17, 36960, Note_on_c, 9, 63, 84
17, 36992, Note_off_c, 9, 63, 64
17, 37680, Note_on_c, 9, 63, 98
17, 37696, Note_off_c, 9, 63, 64
17, 38880, Note_on_c, 9, 63, 83
17, 38912, Note_off_c, 9, 63, 64
17, 39600, Note_on_c, 9, 63, 96
17, 39616, Note_off_c, 9, 63, 64
17, 40800, Note_on_c, 9, 63, 87
17, 40832, Note_off_c, 9, 63, 64
17, 41520, Note_on_c, 9, 63, 78
17, 41536, Note_off_c, 9, 63, 64
17, 42720, Note_on_c, 9, 63, 98
17, 42752, Note_off_c, 9, 63, 64
17, 43440, Note_on_c, 9, 63, 86
17, 43456, Note_off_c, 9, 63, 64
17, 44640, Note_on_c, 9, 63, 82
17, 44672, Note_off_c, 9, 63, 64
17, 45360, Note_on_c, 9, 63, 88
17, 45376, Note_off_c, 9, 63, 64
17, 46560, Note_on_c, 9, 63, 84
17, 46592, Note_off_c, 9, 63, 64
17, 47280, Note_on_c, 9, 63, 98
17, 47296, Note_off_c, 9, 63, 64
17, 48480, Note_on_c, 9, 63, 87
17, 48512, Note_off_c, 9, 63, 64
17, 49200, Note_on_c, 9, 63, 89
17, 49216, Note_off_c, 9, 63, 64
17, 50400, Note_on_c, 9, 63, 91
17, 50432, Note_off_c, 9, 63, 64
17, 51120, Note_on_c, 9, 63, 94
17, 51136, Note_off_c, 9, 63, 64
17, 52320, Note_on_c, 9, 63, 99
17, 52352, Note_off_c, 9, 63, 64
17, 53040, Note_on_c, 9, 63, 93
17, 53056, Note_off_c, 9, 63, 64
17, 54240, Note_on_c, 9, 63, 81
17, 54272, Note_off_c, 9, 63, 64
17, 54960, Note_on_c, 9, 63, 93
17, 54976, Note_off_c, 9, 63, 64
17, 56160, Note_on_c, 9, 63, 85
17, 56192, Note_off_c, 9, 63, 64
17, 56880, Note_on_c, 9, 63, 94
17, 56896, Note_off_c, 9, 63, 64
17, 58080, Note_on_c, 9, 63, 78
17, 58112, Note_off_c, 9, 63, 64
17, 58800, Note_on_c, 9, 63, 89
17, 58816, Note_off_c, 9, 63, 64
17, 60000, Note_on_c, 9, 63, 81
17, 60032, Note_off_c, 9, 63, 64
17, 60720, Note_on_c, 9, 63, 99
17, 60736, Note_off_c, 9, 63, 64
17, 61920, Note_on_c, 9, 63, 81
17, 61952, Note_off_c, 9, 63, 64
17, 62640, Note_on_c, 9, 63, 96
17, 62656, Note_off_c, 9, 63, 64
17, 63840, Note_on_c, 9, 63, 96
17, 63872, Note_off_c, 9, 63, 64
17, 64560, Note_on_c, 9, 63, 90
17, 64576, Note_off_c, 9, 63, 64
17, 65520, Note_on_c, 9, 63, 98
17, 65536, Note_off_c, 9, 63, 64
17, 66480, Note_on_c, 9, 63, 98
17, 66496, Note_off_c, 9, 63, 64
17, 67440, Note_on_c, 9, 63, 90
17, 67456, Note_off_c, 9, 63, 64
17, 68400, Note_on_c, 9, 63, 80
17, 68416, Note_off_c, 9, 63, 64
17, 69360, Note_on_c, 9, 63, 82
17, 69376, Note_off_c, 9, 63, 64
17, 70320, Note_on_c, 9, 63, 99
17, 70336, Note_off_c, 9, 63, 64
17, 71280, Note_on_c, 9, 63, 79
17, 71296, Note_off_c, 9, 63, 64
17, 72240, Note_on_c, 9, 63, 80
17, 72256, Note_off_c, 9, 63, 64
17, 86640, Note_on_c, 9, 63, 79
17, 86656, Note_off_c, 9, 63, 64
17, 87600, Note_on_c, 9, 63, 78
17, 87616, Note_off_c, 9, 63, 64
17, 88560, Note_on_c, 9, 63, 96
17, 88576, Note_off_c, 9, 63, 64
17, 89520, Note_on_c, 9, 63, 96
17, 89536, Note_off_c, 9, 63, 64
17, 90480, Note_on_c, 9, 63, 86
17, 90496, Note_off_c, 9, 63, 64
17, 91440, Note_on_c, 9, 63, 88
17, 91456, Note_off_c, 9, 63, 64
17, 92400, Note_on_c, 9, 63, 86
17, 92416, Note_off_c, 9, 63, 64
17, 93360, Note_on_c, 9, 63, 83
17, 93376, Note_off_c, 9, 63, 64
17, 94320, Note_on_c, 9, 63, 93
17, 94336, Note_off_c, 9, 63, 64
17, 95280, Note_on_c, 9, 63, 86
17, 95296, Note_off_c, 9, 63, 64
17, 96240, Note_on_c, 9, 63, 83
17, 96256, Note_off_c, 9, 63, 64
17, 97200, Note_on_c, 9, 63, 92
17, 97216, Note_off_c, 9, 63, 64
17, 98160, Note_on_c, 9, 63, 98
17, 98176, Note_off_c, 9, 63, 64
17, 99120, Note_on_c, 9, 63, 79
17, 99136, Note_off_c, 9, 63, 64
17, 100080, Note_on_c, 9, 63, 99
17, 100096, Note_off_c, 9, 63, 64
17, 101040, Note_on_c, 9, 63, 85
17, 101056, Note_off_c, 9, 63, 64
17, 102000, Note_on_c, 9, 63, 89
17, 102016, Note_off_c, 9, 63, 64
17, 102960, Note_on_c, 9, 63, 92
17, 102976, Note_off_c, 9, 63, 64
17, 147000, Note_on_c, 9, 63, 81
17, 147008, Note_off_c, 9, 63, 64
17, 147120, Note_on_c, 9, 63, 84
17, 147128, Note_off_c, 9, 63, 64
17, 147600, Note_on_c, 9, 63, 88
17, 147608, Note_off_c, 9, 63, 64
17, 147720, Note_on_c, 9, 63, 84
17, 147728, Note_off_c, 9, 63, 64
17, 148920, Note_on_c, 9, 63, 89
17, 148928, Note_off_c, 9, 63, 64
17, 149040, Note_on_c, 9, 63, 98
17, 149048, Note_off_c, 9, 63, 64
17, 149520, Note_on_c, 9, 63, 96
17, 149528, Note_off_c, 9, 63, 64
17, 149640, Note_on_c, 9, 63, 86
17, 149648, Note_off_c, 9, 63, 64
17, 150840, Note_on_c, 9, 63, 91
17, 150848, Note_off_c, 9, 63, 64
17, 150960, Note_on_c, 9, 63, 86
17, 150968, Note_off_c, 9, 63, 64
17, 151440, Note_on_c, 9, 63, 97
17, 151448, Note_off_c, 9, 63, 64
17, 151560, Note_on_c, 9, 63, 86
17, 151568, Note_off_c, 9, 63, 64
17, 152760, Note_on_c, 9, 63, 94
17, 152768, Note_off_c, 9, 63, 64
17, 152880, Note_on_c, 9, 63, 82
17, 152888, Note_off_c, 9, 63, 64
17, 153360, Note_on_c, 9, 63, 92
17, 153368, Note_off_c, 9, 63, 64
17, 153480, Note_on_c, 9, 63, 85
17, 153488, Note_off_c, 9, 63, 64
17, 154680, Note_on_c, 9, 63, 81
17, 154688, Note_off_c, 9, 63, 64
17, 154800, Note_on_c, 9, 63, 79
17, 154808, Note_off_c, 9, 63, 64
17, 155280, Note_on_c, 9, 63, 94
17, 155288, Note_off_c, 9, 63, 64
17, 155400, Note_on_c, 9, 63, 93
17, 155408, Note_off_c, 9, 63, 64
17, 156600, Note_on_c, 9, 63, 80
17, 156608, Note_off_c, 9, 63, 64
17, 156720, Note_on_c, 9, 63, 93
17, 156728, Note_off_c, 9, 63, 64
17, 157200, Note_on_c, 9, 63, 99
17, 157208, Note_off_c, 9, 63, 64
17, 157320, Note_on_c, 9, 63, 85
17, 157328, Note_off_c, 9, 63, 64
17, 158520, Note_on_c, 9, 63, 85
17, 158528, Note_off_c, 9, 63, 64
17, 158640, Note_on_c, 9, 63, 94
17, 158648, Note_off_c, 9, 63, 64
17, 159120, Note_on_c, 9, 63, 82
17, 159128, Note_off_c, 9, 63, 64
17, 159240, Note_on_c, 9, 63, 88
17, 159248, Note_off_c, 9, 63, 64
17, 160440, Note_on_c, 9, 63, 86
17, 160448, Note_off_c, 9, 63, 64
17, 160560, Note_on_c, 9, 63, 99
17, 160568, Note_off_c, 9, 63, 64
17, 161040, Note_on_c, 9, 63, 90
17, 161048, Note_off_c, 9, 63, 64
17, 161160, Note_on_c, 9, 63, 97
17, 161168, Note_off_c, 9, 63, 64
17, 162360, Note_on_c, 9, 63, 84
17, 162368, Note_off_c, 9, 63, 64
17, 162480, Note_on_c, 9, 63, 88
17, 162488, Note_off_c, 9, 63, 64
17, 162960, Note_on_c, 9, 63, 85
17, 162968, Note_off_c, 9, 63, 64
17, 163080, Note_on_c, 9, 63, 84
17, 163088, Note_off_c, 9, 63, 64
17, 164280, Note_on_c, 9, 63, 84
17, 164288, Note_off_c, 9, 63, 64
17, 164400, Note_on_c, 9, 63, 80
17, 164408, Note_off_c, 9, 63, 64
17, 164880, Note_on_c, 9, 63, 89
17, 164888, Note_off_c, 9, 63, 64
17, 165000, Note_on_c, 9, 63, 92
17, 165008, Note_off_c, 9, 63, 64
17, 166200, Note_on_c, 9, 63, 89
17, 166208, Note_off_c, 9, 63, 64
17, 166320, Note_on_c, 9, 63, 96
17, 166328, Note_off_c, 9, 63, 64
17, 166800, Note_on_c, 9, 63, 99
17, 166808, Note_off_c, 9, 63, 64
17, 166920, Note_on_c, 9, 63, 96
17, 166928, Note_off_c, 9, 63, 64
17, 168120, Note_on_c, 9, 63, 80
17, 168128, Note_off_c, 9, 63, 64
17, 168240, Note_on_c, 9, 63, 87
17, 168248, Note_off_c, 9, 63, 64
17, 168720, Note_on_c, 9, 63, 78
17, 168728, Note_off_c, 9, 63, 64
17, 168840, Note_on_c, 9, 63, 83
17, 168848, Note_off_c, 9, 63, 64
17, 170040, Note_on_c, 9, 63, 84
17, 170048, Note_off_c, 9, 63, 64
17, 170160, Note_on_c, 9, 63, 85
17, 170168, Note_off_c, 9, 63, 64
17, 170640, Note_on_c, 9, 63, 81
17, 170648, Note_off_c, 9, 63, 64
17, 170760, Note_on_c, 9, 63, 89
17, 170768, Note_off_c, 9, 63, 64
17, 170768, End_track
18, 0, Start_track
18, 0, Title_t, "L Conga"
18, 0, MIDI_port, 0
18, 0, Channel_prefix, 9
18, 0, Control_c, 9, 10, 64
18, 11040, Note_on_c, 9, 64, 87
18, 11072, Note_off_c, 9, 64, 64
18, 12960, Note_on_c, 9, 64, 82
18, 12992, Note_off_c, 9, 64, 64
18, 14880, Note_on_c, 9, 64, 94
18, 14912, Note_off_c, 9, 64, 64
18, 16800, Note_on_c, 9, 64, 93
18, 16832, Note_off_c, 9, 64, 64
18, 18720, Note_on_c, 9, 64, 89
18, 18752, Note_off_c, 9, 64, 64
18, 20640, Note_on_c, 9, 64, 82
18, 20672, Note_off_c, 9, 64, 64
18, 22560, Note_on_c, 9, 64, 98
18, 22592, Note_off_c, 9, 64, 64
18, 37920, Note_on_c, 9, 64, 79
18, 37952, Note_off_c, 9, 64, 64
18, 39840, Note_on_c, 9, 64, 89
18, 39872, Note_off_c, 9, 64, 64
18, 41760, Note_on_c, 9, 64, 99
18, 41792, Note_off_c, 9, 64, 64
18, 43680, Note_on_c, 9, 64, 92
18, 43712, Note_off_c, 9, 64, 64
18, 45600, Note_on_c, 9, 64, 85
18, 45632, Note_off_c, 9, 64, 64
18, 47520, Note_on_c, 9, 64, 81
18, 47552, Note_off_c, 9, 64, 64
18, 49440, Note_on_c, 9, 64, 99
18, 49472, Note_off_c, 9, 64, 64
18, 51360, Note_on_c, 9, 64, 96
18, 51392, Note_off_c, 9, 64, 64
18, 53280, Note_on_c, 9, 64, 79
18, 53312, Note_off_c, 9, 64, 64
18, 55200, Note_on_c, 9, 64, 83
18, 55232, Note_off_c, 9, 64, 64
18, 57120, Note_on_c, 9, 64, 91
18, 57152, Note_off_c, 9, 64, 64
18, 59040, Note_on_c, 9, 64, 90
18, 59072, Note_off_c, 9, 64, 64
18, 60960, Note_on_c, 9, 64, 78
18, 60992, Note_off_c, 9, 64, 64
18, 62880, Note_on_c, 9, 64, 98
18, 62912, Note_off_c, 9, 64, 64
18, 64800, Note_on_c, 9, 64, 78
18, 64832, Note_off_c, 9, 64, 64
18, 65280, Note_on_c, 9, 64, 91
18, 65296, Note_off_c, 9, 64, 64
18, 65760, Note_on_c, 9, 64, 94
18, 65776, Note_off_c, 9, 64, 64
18, 66000, Note_on_c, 9, 64, 87
18, 66008, Note_off_c, 9, 64, 64
18, 66120, Note_on_c, 9, 64, 88
18, 66136, Note_off_c, 9, 64, 64
18, 66360, Note_on_c, 9, 64, 96
18, 66368, Note_off_c, 9, 64, 64
18, 66720, Note_on_c, 9, 64, 81
18, 66736, Note_off_c, 9, 64, 64
18, 66960, Note_on_c, 9, 64, 79
18, 66968, Note_off_c, 9, 64, 64
18, 67080, Note_on_c, 9, 64, 84
18, 67088, Note_off_c, 9, 64, 64
18, 67200, Note_on_c, 9, 64, 96
18, 67216, Note_off_c, 9, 64, 64
18, 67680, Note_on_c, 9, 64, 88
18, 67696, Note_off_c, 9, 64, 64
18, 67920, Note_on_c, 9, 64, 92
18, 67928, Note_off_c, 9, 64, 64
18, 68040, Note_on_c, 9, 64, 88
18, 68056, Note_off_c, 9, 64, 64
18, 68280, Note_on_c, 9, 64, 96
18, 68288, Note_off_c, 9, 64, 64
18, 68640, Note_on_c, 9, 64, 78
18, 68672, Note_off_c, 9, 64, 64
18, 69120, Note_on_c, 9, 64, 93
18, 69136, Note_off_c, 9, 64, 64
18, 69600, Note_on_c, 9, 64, 97
18, 69616, Note_off_c, 9, 64, 64
18, 69840, Note_on_c, 9, 64, 87
18, 69848, Note_off_c, 9, 64, 64
18, 69960, Note_on_c, 9, 64, 88
18, 69976, Note_off_c, 9, 64, 64
18, 70200, Note_on_c, 9, 64, 97
18, 70208, Note_off_c, 9, 64, 64
18, 70560, Note_on_c, 9, 64, 85
18, 70576, Note_off_c, 9, 64, 64
18, 70800, Note_on_c, 9, 64, 93
18, 70808, Note_off_c, 9, 64, 64
18, 70920, Note_on_c, 9, 64, 92
18, 70928, Note_off_c, 9, 64, 64
18, 71040, Note_on_c, 9, 64, 92
18, 71056, Note_off_c, 9, 64, 64
18, 71520, Note_on_c, 9, 64, 93
18, 71536, Note_off_c, 9, 64, 64
18, 71760, Note_on_c, 9, 64, 86
18, 71768, Note_off_c, 9, 64, 64
18, 71880, Note_on_c, 9, 64, 86
18, 71896, Note_off_c, 9, 64, 64
18, 72120, Note_on_c, 9, 64, 98
18, 72128, Note_off_c, 9, 64, 64
18, 72480, Note_on_c, 9, 64, 87
18, 72512, Note_off_c, 9, 64, 64
18, 86400, Note_on_c, 9, 64, 78
18, 86416, Note_off_c, 9, 64, 64
18, 86880, Note_on_c, 9, 64, 84
18, 86896, Note_off_c, 9, 64, 64
18, 87120, Note_on_c, 9, 64, 99
18, 87128, Note_off_c, 9, 64, 64
18, 87240, Note_on_c, 9, 64, 78
18, 87256, Note_off_c, 9, 64, 64
18, 87480, Note_on_c, 9, 64, 88
18, 87488, Note_off_c, 9, 64, 64
18, 87840, Note_on_c, 9, 64, 97
18, 87872, Note_off_c, 9, 64, 64
18, 88320, Note_on_c, 9, 64, 84
18, 88336, Note_off_c, 9, 64, 64
18, 88800, Note_on_c, 9, 64, 87
18, 88816, Note_off_c, 9, 64, 64
18, 89040, Note_on_c, 9, 64, 84
18, 89048, Note_off_c, 9, 64, 64
18, 89160, Note_on_c, 9, 64, 99
18, 89176, Note_off_c, 9, 64, 64
18, 89400, Note_on_c, 9, 64, 93
18, 89408, Note_off_c, 9, 64, 64
18, 89760, Note_on_c, 9, 64, 81
18, 89792, Note_off_c, 9, 64, 64
18, 90240, Note_on_c, 9, 64, 90
18, 90256, Note_off_c, 9, 64, 64
18, 90720, Note_on_c, 9, 64, 87
18, 90736, Note_off_c, 9, 64, 64
18, 90960, Note_on_c, 9, 64, 91
18, 90968, Note_off_c, 9, 64, 64
18, 91080, Note_on_c, 9, 64, 95
18, 91096, Note_off_c, 9, 64, 64
18, 91320, Note_on_c, 9, 64, 90
18, 91328, Note_off_c, 9, 64, 64
18, 91680, Note_on_c, 9, 64, 85
18, 91712, Note_off_c, 9, 64, 64
18, 92160, Note_on_c, 9, 64, 83
18, 92176, Note_off_c, 9, 64, 64
18, 92640, Note_on_c, 9, 64, 80
18, 92656, Note_off_c, 9, 64, 64
18, 92880, Note_on_c, 9, 64, 92
18, 92888, Note_off_c, 9, 64, 64
18, 93000, Note_on_c, 9, 64, 94
18, 93016, Note_off_c, 9, 64, 64
18, 93240, Note_on_c, 9, 64, 85
18, 93248, Note_off_c, 9, 64, 64
18, 93600, Note_on_c, 9, 64, 85
18, 93632, Note_off_c, 9, 64, 64
18, 94080, Note_on_c, 9, 64, 83
18, 94096, Note_off_c, 9, 64, 64
18, 94560, Note_on_c, 9, 64, 80
18, 94576, Note_off_c, 9, 64, 64
18, 94800, Note_on_c, 9, 64, 85
18, 94808, Note_off_c, 9, 64, 64
18, 94920, Note_on_c, 9, 64, 81
18, 94936, Note_off_c, 9, 64, 64
18, 95160, Note_on_c, 9, 64, 80
18, 95168, Note_off_c, 9, 64, 64
18, 95520, Note_on_c, 9, 64, 87
18, 95552, Note_off_c, 9, 64, 64
18, 96000, Note_on_c, 9, 64, 87
18, 96016, Note_off_c, 9, 64, 64
18, 96480, Note_on_c, 9, 64, 81
18, 96496, Note_off_c, 9, 64, 64
18, 96720, Note_on_c, 9, 64, 89
18, 96728, Note_off_c, 9, 64, 64
18, 96840, Note_on_c, 9, 64, 94
18, 96856, Note_off_c, 9, 64, 64
18, 97080, Note_on_c, 9, 64, 84
18, 97088, Note_off_c, 9, 64, 64
18, 97440, Note_on_c, 9, 64, 87
18, 97472, Note_off_c, 9, 64, 64
18, 97920, Note_on_c, 9, 64, 92
18, 97936, Note_off_c, 9, 64, 64
18, 98400, Note_on_c, 9, 64, 93
18, 98416, Note_off_c, 9, 64, 64
18, 98640, Note_on_c, 9, 64, 98
18, 98648, Note_off_c, 9, 64, 64
18, 98760, Note_on_c, 9, 64, 99
18, 98776, Note_off_c, 9, 64, 64
18, 99000, Note_on_c, 9, 64, 80
18, 99008, Note_off_c, 9, 64, 64
18, 99360, Note_on_c, 9, 64, 80
18, 99392, Note_off_c, 9, 64, 64
18, 99840, Note_on_c, 9, 64, 98
18, 99856, Note_off_c, 9, 64, 64
18, 100320, Note_on_c, 9, 64, 92
18, 100336, Note_off_c, 9, 64, 64
18, 100560, Note_on_c, 9, 64, 92
18, 100568, Note_off_c, 9, 64, 64
18, 100680, Note_on_c, 9, 64, 99
18, 100696, Note_off_c, 9, 64, 64
18, 100920, Note_on_c, 9, 64, 89
18, 100928, Note_off_c, 9, 64, 64
18, 101280, Note_on_c, 9, 64, 97
18, 101312, Note_off_c, 9, 64, 64
18, 101760, Note_on_c, 9, 64, 96
18, 101776, Note_off_c, 9, 64, 64
18, 102240, Note_on_c, 9, 64, 81
18, 102256, Note_off_c, 9, 64, 64
18, 102480, Note_on_c, 9, 64, 79
18, 102488, Note_off_c, 9, 64, 64
18, 102600, Note_on_c, 9, 64, 93
18, 102616, Note_off_c, 9, 64, 64
18, 102840, Note_on_c, 9, 64, 99
18, 102848, Note_off_c, 9, 64, 64
18, 103200, Note_on_c, 9, 64, 89
18, 103232, Note_off_c, 9, 64, 64
18, 146760, Note_on_c, 9, 64, 85
18, 146768, Note_off_c, 9, 64, 64
18, 146880, Note_on_c, 9, 64, 98
18, 146888, Note_off_c, 9, 64, 64
18, 147240, Note_on_c, 9, 64, 82
18, 147248, Note_off_c, 9, 64, 64
18, 147360, Note_on_c, 9, 64, 83
18, 147368, Note_off_c, 9, 64, 64
18, 147480, Note_on_c, 9, 64, 81
18, 147488, Note_off_c, 9, 64, 64
18, 148680, Note_on_c, 9, 64, 83
18, 148688, Note_off_c, 9, 64, 64
18, 148800, Note_on_c, 9, 64, 89
18, 148808, Note_off_c, 9, 64, 64
18, 149160, Note_on_c, 9, 64, 98
18, 149168, Note_off_c, 9, 64, 64
18, 149280, Note_on_c, 9, 64, 84
18, 149288, Note_off_c, 9, 64, 64
18, 149400, Note_on_c, 9, 64, 94
18, 149408, Note_off_c, 9, 64, 64
18, 150600, Note_on_c, 9, 64, 81
18, 150608, Note_off_c, 9, 64, 64
18, 150720, Note_on_c, 9, 64, 81
18, 150728, Note_off_c, 9, 64, 64
18, 151080, Note_on_c, 9, 64, 98
18, 151088, Note_off_c, 9, 64, 64
18, 151200, Note_on_c, 9, 64, 84
18, 151208, Note_off_c, 9, 64, 64
18, 151320, Note_on_c, 9, 64, 97
18, 151328, Note_off_c, 9, 64, 64
18, 152520, Note_on_c, 9, 64, 99
18, 152528, Note_off_c, 9, 64, 64
18, 152640, Note_on_c, 9, 64, 78
18, 152648, Note_off_c, 9, 64, 64
18, 153000, Note_on_c, 9, 64, 82
18, 153008, Note_off_c, 9, 64, 64
18, 153120, Note_on_c, 9, 64, 90
18, 153128, Note_off_c, 9, 64, 64
18, 153240, Note_on_c, 9, 64, 90
18, 153248, Note_off_c, 9, 64, 64
18, 154440, Note_on_c, 9, 64, 99
18, 154448, Note_off_c, 9, 64, 64
18, 154560, Note_on_c, 9, 64, 98
18, 154568, Note_off_c, 9, 64, 64
18, 154920, Note_on_c, 9, 64, 97
18, 154928, Note_off_c, 9, 64, 64
18, 155040, Note_on_c, 9, 64, 79
18, 155048, Note_off_c, 9, 64, 64
18, 155160, Note_on_c, 9, 64, 84
18, 155168, Note_off_c, 9, 64, 64
18, 156360, Note_on_c, 9, 64, 78
18, 156368, Note_off_c, 9, 64, 64
18, 156480, Note_on_c, 9, 64, 98
18, 156488, Note_off_c, 9, 64, 64
18, 156840, Note_on_c, 9, 64, 89
18, 156848, Note_off_c, 9, 64, 64
18, 156960, Note_on_c, 9, 64, 88
18, 156968, Note_off_c, 9, 64, 64
18, 157080, Note_on_c, 9, 64, 99
18, 157088, Note_off_c, 9, 64, 64
18, 158280, Note_on_c, 9, 64, 85
18, 158288, Note_off_c, 9, 64, 64
18, 158400, Note_on_c, 9, 64, 97
18, 158408, Note_off_c, 9, 64, 64
18, 158760, Note_on_c, 9, 64, 95
18, 158768, Note_off_c, 9, 64, 64
18, 158880, Note_on_c, 9, 64, 87
18, 158888, Note_off_c, 9, 64, 64
18, 159000, Note_on_c, 9, 64, 79
18, 159008, Note_off_c, 9, 64, 64
18, 160200, Note_on_c, 9, 64, 84
18, 160208, Note_off_c, 9, 64, 64
18, 160320, Note_on_c, 9, 64, 92
18, 160328, Note_off_c, 9, 64, 64
18, 160680, Note_on_c, 9, 64, 87
18, 160688, Note_off_c, 9, 64, 64
18, 160800, Note_on_c, 9, 64, 91
18, 160808, Note_off_c, 9, 64, 64
18, 160920, Note_on_c, 9, 64, 81
18, 160928, Note_off_c, 9, 64, 64
18, 162120, Note_on_c, 9, 64, 89
18, 162128, Note_off_c, 9, 64, 64
18, 162240, Note_on_c, 9, 64, 92
18, 162248, Note_off_c, 9, 64, 64
18, 162600, Note_on_c, 9, 64, 88
18, 162608, Note_off_c, 9, 64, 64
18, 162720, Note_on_c, 9, 64, 96
18, 162728, Note_off_c, 9, 64, 64
18, 162840, Note_on_c, 9, 64, 90
18, 162848, Note_off_c, 9, 64, 64
18, 164040, Note_on_c, 9, 64, 82
18, 164048, Note_off_c, 9, 64, 64
18, 164160, Note_on_c, 9, 64, 83
18, 164168, Note_off_c, 9, 64, 64
18, 164520, Note_on_c, 9, 64, 80
18, 164528, Note_off_c, 9, 64, 64
18, 164640, Note_on_c, 9, 64, 93
18, 164648, Note_off_c, 9, 64, 64
18, 164760, Note_on_c, 9, 64, 94
18, 164768, Note_off_c, 9, 64, 64
18, 165960, Note_on_c, 9, 64, 84
18, 165968, Note_off_c, 9, 64, 64
18, 166080, Note_on_c, 9, 64, 91
18, 166088, Note_off_c, 9, 64, 64
18, 166440, Note_on_c, 9, 64, 92
18, 166448, Note_off_c, 9, 64, 64
18, 166560, Note_on_c, 9, 64, 94
18, 166568, Note_off_c, 9, 64, 64
18, 166680, Note_on_c, 9, 64, 88
18, 166688, Note_off_c, 9, 64, 64
18, 167880, Note_on_c, 9, 64, 80
18, 167888, Note_off_c, 9, 64, 64
18, 168000, Note_on_c, 9, 64, 81
18, 168008, Note_off_c, 9, 64, 64
18, 168360, Note_on_c, 9, 64, 78
18, 168368, Note_off_c, 9, 64, 64
18, 168480, Note_on_c, 9, 64, 94
18, 168488, Note_off_c, 9, 64, 64
18, 168600, Note_on_c, 9, 64, 99
18, 168608, Note_off_c, 9, 64, 64
18, 169800, Note_on_c, 9, 64, 86
18, 169808, Note_off_c, 9, 64, 64
18, 169920, Note_on_c, 9, 64, 95
18, 169928, Note_off_c, 9, 64, 64
18, 170280, Note_on_c, 9, 64, 80
18, 170288, Note_off_c, 9, 64, 64
18, 170400, Note_on_c, 9, 64, 88
18, 170408, Note_off_c, 9, 64, 64
18, 170520, Note_on_c, 9, 64, 81
18, 170528, Note_off_c, 9, 64, 64
18, 170528, End_track
19, 0, Start_track
19, 0, Title_t, "H Tom"
19, 0, MIDI_port, 0
19, 0, Channel_prefix, 9
19, 0, Control_c, 9, 10, 64
19, 60720, Note_on_c, 9, 50, 120
19, 60728, Note_off_c, 9, 50, 64
19, 60840, Note_on_c, 9, 50, 118
19, 60848, Note_off_c, 9, 50, 64
19, 85680, Note_on_c, 9, 50, 122
19, 85688, Note_off_c, 9, 50, 64
19, 85800, Note_on_c, 9, 50, 120
19, 85808, Note_off_c, 9, 50, 64
19, 107400, Note_on_c, 9, 50, 116
19, 107408, Note_off_c, 9, 50, 64
19, 107520, Note_on_c, 9, 50, 124
19, 107536, Note_off_c, 9, 50, 64
19, 108720, Note_on_c, 9, 50, 120
19, 108736, Note_off_c, 9, 50, 64
19, 108960, Note_on_c, 9, 50, 119
19, 108968, Note_off_c, 9, 50, 64
19, 109080, Note_on_c, 9, 50, 99
19, 109088, Note_off_c, 9, 50, 64
19, 109088, End_track
20, 0, Start_track
20, 0, Title_t, "Mid Tom"
20, 0, MIDI_port, 0
20, 0, Channel_prefix, 9
20, 0, Control_c, 9, 10, 64
20, 10920, Note_on_c, 9, 47, 115
20, 10928, Note_off_c, 9, 47, 64
20, 11040, Note_on_c, 9, 47, 116
20, 11072, Note_off_c, 9, 47, 64
20, 18480, Note_on_c, 9, 47, 107
20, 18496, Note_off_c, 9, 47, 64
20, 18840, Note_on_c, 9, 47, 104
20, 18848, Note_off_c, 9, 47, 64
20, 43560, Note_on_c, 9, 47, 110
20, 43568, Note_off_c, 9, 47, 64
20, 43680, Note_on_c, 9, 47, 125
20, 43688, Note_off_c, 9, 47, 64
20, 60960, Note_on_c, 9, 47, 119
20, 60976, Note_off_c, 9, 47, 64
20, 61200, Note_on_c, 9, 47, 121
20, 61208, Note_off_c, 9, 47, 64
20, 68520, Note_on_c, 9, 47, 114
20, 68528, Note_off_c, 9, 47, 64
20, 68640, Note_on_c, 9, 47, 107
20, 68648, Note_off_c, 9, 47, 64
20, 85920, Note_on_c, 9, 47, 103
20, 85936, Note_off_c, 9, 47, 64
20, 93480, Note_on_c, 9, 47, 106
20, 93488, Note_off_c, 9, 47, 64
20, 93600, Note_on_c, 9, 47, 106
20, 93608, Note_off_c, 9, 47, 64
20, 109200, Note_on_c, 9, 47, 103
20, 109216, Note_off_c, 9, 47, 64
20, 122760, Note_on_c, 9, 47, 127
20, 122768, Note_off_c, 9, 47, 64
20, 122880, Note_on_c, 9, 47, 101
20, 122896, Note_off_c, 9, 47, 64
20, 124200, Note_on_c, 9, 47, 115
20, 124208, Note_off_c, 9, 47, 64
20, 124320, Note_on_c, 9, 47, 115
20, 124336, Note_off_c, 9, 47, 64
20, 155040, Note_on_c, 9, 47, 102
20, 155056, Note_off_c, 9, 47, 64
20, 155056, End_track
21, 0, Start_track
21, 0, Title_t, "L Tom"
21, 0, MIDI_port, 0
21, 0, Channel_prefix, 9
21, 0, Control_c, 9, 10, 64
21, 18720, Note_on_c, 9, 43, 102
21, 18728, Note_off_c, 9, 43, 64
21, 18960, Note_on_c, 9, 43, 96
21, 18976, Note_off_c, 9, 43, 64
21, 43800, Note_on_c, 9, 43, 101
21, 43808, Note_off_c, 9, 43, 64
21, 43920, Note_on_c, 9, 43, 100
21, 43936, Note_off_c, 9, 43, 64
21, 61320, Note_on_c, 9, 43, 102
21, 61328, Note_off_c, 9, 43, 64
21, 68760, Note_on_c, 9, 43, 114
21, 68768, Note_off_c, 9, 43, 64
21, 68880, Note_on_c, 9, 43, 96
21, 68896, Note_off_c, 9, 43, 64
21, 86160, Note_on_c, 9, 43, 91
21, 86168, Note_off_c, 9, 43, 64
21, 86280, Note_on_c, 9, 43, 101
21, 86288, Note_off_c, 9, 43, 64
21, 86400, Note_on_c, 9, 43, 106
21, 86432, Note_off_c, 9, 43, 64
21, 93720, Note_on_c, 9, 43, 93
21, 93728, Note_off_c, 9, 43, 64
21, 93840, Note_on_c, 9, 43, 123
21, 93856, Note_off_c, 9, 43, 64
21, 138240, Note_on_c, 9, 43, 97
21, 138256, Note_off_c, 9, 43, 64
21, 140160, Note_on_c, 9, 43, 90
21, 140192, Note_off_c, 9, 43, 64
21, 142080, Note_on_c, 9, 43, 113
21, 142112, Note_off_c, 9, 43, 64
21, 144000, Note_on_c, 9, 43, 115
21, 144032, Note_off_c, 9, 43, 64
21, 145920, Note_on_c, 9, 43, 119
21, 145952, Note_off_c, 9, 43, 64
21, 147840, Note_on_c, 9, 43, 106
21, 147872, Note_off_c, 9, 43, 64
21, 148320, Note_on_c, 9, 43, 115
21, 148352, Note_off_c, 9, 43, 64
21, 149760, Note_on_c, 9, 43, 96
21, 149792, Note_off_c, 9, 43, 64
21, 150240, Note_on_c, 9, 43, 120
21, 150272, Note_off_c, 9, 43, 64
21, 151680, Note_on_c, 9, 43, 89
21, 151712, Note_off_c, 9, 43, 64
21, 152160, Note_on_c, 9, 43, 122
21, 152192, Note_off_c, 9, 43, 64
21, 153600, Note_on_c, 9, 43, 96
21, 153632, Note_off_c, 9, 43, 64
21, 153632, End_track
22, 0, Start_track
22, 0, Title_t, "H Timbale"
22, 0, MIDI_port, 0
22, 0, Channel_prefix, 9
22, 0, Control_c, 9, 10, 64
22, 13740, Note_on_c, 9, 65, 72
22, 13744, Note_off_c, 9, 65, 64
22, 13800, Note_on_c, 9, 65, 82
22, 13804, Note_off_c, 9, 65, 64
22, 13860, Note_on_c, 9, 65, 89
22, 13864, Note_off_c, 9, 65, 64
22, 13920, Note_on_c, 9, 65, 67
22, 13936, Note_off_c, 9, 65, 64
22, 14160, Note_on_c, 9, 65, 99
22, 14176, Note_off_c, 9, 65, 64
22, 17280, Note_on_c, 9, 65, 73
22, 17304, Note_off_c, 9, 65, 64
22, 17640, Note_on_c, 9, 65, 95
22, 17664, Note_off_c, 9, 65, 64
22, 39240, Note_on_c, 9, 65, 85
22, 39248, Note_off_c, 9, 65, 64
22, 39360, Note_on_c, 9, 65, 88
22, 39368, Note_off_c, 9, 65, 64
22, 39480, Note_on_c, 9, 65, 66
22, 39504, Note_off_c, 9, 65, 64
22, 58800, Note_on_c, 9, 65, 70
22, 58808, Note_off_c, 9, 65, 64
22, 58920, Note_on_c, 9, 65, 93
22, 58928, Note_off_c, 9, 65, 64
22, 59040, Note_on_c, 9, 65, 68
22, 59048, Note_off_c, 9, 65, 64
22, 59160, Note_on_c, 9, 65, 99
22, 59168, Note_off_c, 9, 65, 64
22, 59280, Note_on_c, 9, 65, 98
22, 59296, Note_off_c, 9, 65, 64
22, 63600, Note_on_c, 9, 65, 83
22, 63608, Note_off_c, 9, 65, 64
22, 63720, Note_on_c, 9, 65, 83
22, 63736, Note_off_c, 9, 65, 64
22, 63960, Note_on_c, 9, 65, 93
22, 63976, Note_off_c, 9, 65, 64
22, 64200, Note_on_c, 9, 65, 94
22, 64208, Note_off_c, 9, 65, 64
22, 64320, Note_on_c, 9, 65, 93
22, 64336, Note_off_c, 9, 65, 64
22, 64560, Note_on_c, 9, 65, 78
22, 64568, Note_off_c, 9, 65, 64
22, 64680, Note_on_c, 9, 65, 66
22, 64688, Note_off_c, 9, 65, 64
22, 64800, Note_on_c, 9, 65, 98
22, 64816, Note_off_c, 9, 65, 64
22, 65040, Note_on_c, 9, 65, 68
22, 65056, Note_off_c, 9, 65, 64
22, 88800, Note_on_c, 9, 65, 77
22, 88808, Note_off_c, 9, 65, 64
22, 88920, Note_on_c, 9, 65, 73
22, 88936, Note_off_c, 9, 65, 64
22, 89160, Note_on_c, 9, 65, 83
22, 89176, Note_off_c, 9, 65, 64
22, 89400, Note_on_c, 9, 65, 95
22, 89416, Note_off_c, 9, 65, 64
22, 89640, Note_on_c, 9, 65, 74
22, 89648, Note_off_c, 9, 65, 64
22, 89760, Note_on_c, 9, 65, 98
22, 89768, Note_off_c, 9, 65, 64
22, 89880, Note_on_c, 9, 65, 84
22, 89888, Note_off_c, 9, 65, 64
22, 90000, Note_on_c, 9, 65, 70
22, 90016, Note_off_c, 9, 65, 64
22, 151920, Note_on_c, 9, 65, 89
22, 151936, Note_off_c, 9, 65, 64
22, 152160, Note_on_c, 9, 65, 97
22, 152176, Note_off_c, 9, 65, 64
22, 152400, Note_on_c, 9, 65, 87
22, 152408, Note_off_c, 9, 65, 64
22, 152520, Note_on_c, 9, 65, 70
22, 152536, Note_off_c, 9, 65, 64
22, 152760, Note_on_c, 9, 65, 98
22, 152776, Note_off_c, 9, 65, 64
22, 153000, Note_on_c, 9, 65, 69
22, 153008, Note_off_c, 9, 65, 64
22, 153120, Note_on_c, 9, 65, 96
22, 153128, Note_off_c, 9, 65, 64
22, 153240, Note_on_c, 9, 65, 69
22, 153248, Note_off_c, 9, 65, 64
22, 153360, Note_on_c, 9, 65, 97
22, 153376, Note_off_c, 9, 65, 64
22, 155880, Note_on_c, 9, 65, 81
22, 155888, Note_off_c, 9, 65, 64
22, 156000, Note_on_c, 9, 65, 98
22, 156008, Note_off_c, 9, 65, 64
22, 156120, Note_on_c, 9, 65, 82
22, 156136, Note_off_c, 9, 65, 64
22, 156360, Note_on_c, 9, 65, 74
22, 156400, Note_off_c, 9, 65, 64
22, 157920, Note_on_c, 9, 65, 99
22, 157928, Note_off_c, 9, 65, 64
22, 158040, Note_on_c, 9, 65, 73
22, 158056, Note_off_c, 9, 65, 64
22, 158280, Note_on_c, 9, 65, 85
22, 158288, Note_off_c, 9, 65, 64
22, 158400, Note_on_c, 9, 65, 85
22, 158424, Note_off_c, 9, 65, 64
22, 158760, Note_on_c, 9, 65, 98
22, 158768, Note_off_c, 9, 65, 64
22, 158880, Note_on_c, 9, 65, 71
22, 158912, Note_off_c, 9, 65, 64
22, 160680, Note_on_c, 9, 65, 74
22, 160688, Note_off_c, 9, 65, 64
22, 160800, Note_on_c, 9, 65, 96
22, 160832, Note_off_c, 9, 65, 64
22, 163440, Note_on_c, 9, 65, 66
22, 163448, Note_off_c, 9, 65, 64
22, 163560, Note_on_c, 9, 65, 87
22, 163568, Note_off_c, 9, 65, 64
22, 163680, Note_on_c, 9, 65, 93
22, 163688, Note_off_c, 9, 65, 64
22, 163800, Note_on_c, 9, 65, 69
22, 163816, Note_off_c, 9, 65, 64
22, 164040, Note_on_c, 9, 65, 90
22, 164048, Note_off_c, 9, 65, 64
22, 164160, Note_on_c, 9, 65, 83
22, 164176, Note_off_c, 9, 65, 64
22, 164400, Note_on_c, 9, 65, 96
22, 164408, Note_off_c, 9, 65, 64
22, 164520, Note_on_c, 9, 65, 81
22, 164528, Note_off_c, 9, 65, 64
22, 164640, Note_on_c, 9, 65, 66
22, 164664, Note_off_c, 9, 65, 64
22, 165000, Note_on_c, 9, 65, 81
22, 165008, Note_off_c, 9, 65, 64
22, 165120, Note_on_c, 9, 65, 85
22, 165152, Note_off_c, 9, 65, 64
22, 167280, Note_on_c, 9, 65, 83
22, 167288, Note_off_c, 9, 65, 64
22, 167400, Note_on_c, 9, 65, 95
22, 167408, Note_off_c, 9, 65, 64
22, 167520, Note_on_c, 9, 65, 83
22, 167528, Note_off_c, 9, 65, 64
22, 167640, Note_on_c, 9, 65, 85
22, 167656, Note_off_c, 9, 65, 64
22, 167880, Note_on_c, 9, 65, 93
22, 167888, Note_off_c, 9, 65, 64
22, 168000, Note_on_c, 9, 65, 99
22, 168016, Note_off_c, 9, 65, 64
22, 168240, Note_on_c, 9, 65, 71
22, 168248, Note_off_c, 9, 65, 64
22, 168360, Note_on_c, 9, 65, 86
22, 168368, Note_off_c, 9, 65, 64
22, 168480, Note_on_c, 9, 65, 99
22, 168488, Note_off_c, 9, 65, 64
22, 168600, Note_on_c, 9, 65, 96
22, 168608, Note_off_c, 9, 65, 64
22, 168720, Note_on_c, 9, 65, 78
22, 168728, Note_off_c, 9, 65, 64
22, 168840, Note_on_c, 9, 65, 92
22, 168848, Note_off_c, 9, 65, 64
22, 168960, Note_on_c, 9, 65, 93
22, 168992, Note_off_c, 9, 65, 64
22, 168992, End_track
23, 0, Start_track
23, 0, Title_t, "L Timbale"
23, 0, MIDI_port, 0
23, 0, Channel_prefix, 9
23, 0, Control_c, 9, 10, 64
23, 14880, Note_on_c, 9, 66, 92
23, 14896, Note_off_c, 9, 66, 64
23, 15120, Note_on_c, 9, 66, 94
23, 15136, Note_off_c, 9, 66, 64
23, 18000, Note_on_c, 9, 66, 83
23, 18008, Note_off_c, 9, 66, 64
23, 18120, Note_on_c, 9, 66, 87
23, 18136, Note_off_c, 9, 66, 64
23, 18360, Note_on_c, 9, 66, 86
23, 18368, Note_off_c, 9, 66, 64
23, 18480, Note_on_c, 9, 66, 96
23, 18488, Note_off_c, 9, 66, 64
23, 18600, Note_on_c, 9, 66, 97
23, 18608, Note_off_c, 9, 66, 64
23, 18720, Note_on_c, 9, 66, 97
23, 18752, Note_off_c, 9, 66, 64
23, 39120, Note_on_c, 9, 66, 81
23, 39128, Note_off_c, 9, 66, 64
23, 43800, Note_on_c, 9, 66, 89
23, 43808, Note_off_c, 9, 66, 64
23, 43920, Note_on_c, 9, 66, 81
23, 43936, Note_off_c, 9, 66, 64
23, 47520, Note_on_c, 9, 66, 83
23, 47528, Note_off_c, 9, 66, 64
23, 47640, Note_on_c, 9, 66, 91
23, 47648, Note_off_c, 9, 66, 64
23, 47760, Note_on_c, 9, 66, 92
23, 47776, Note_off_c, 9, 66, 64
23, 50280, Note_on_c, 9, 66, 98
23, 50288, Note_off_c, 9, 66, 64
23, 50400, Note_on_c, 9, 66, 93
23, 50408, Note_off_c, 9, 66, 64
23, 50520, Note_on_c, 9, 66, 87
23, 50536, Note_off_c, 9, 66, 64
23, 50760, Note_on_c, 9, 66, 91
23, 50776, Note_off_c, 9, 66, 64
23, 51000, Note_on_c, 9, 66, 96
23, 51016, Note_off_c, 9, 66, 64
23, 51240, Note_on_c, 9, 66, 95
23, 51248, Note_off_c, 9, 66, 64
23, 51360, Note_on_c, 9, 66, 79
23, 51368, Note_off_c, 9, 66, 64
23, 51480, Note_on_c, 9, 66, 84
23, 51488, Note_off_c, 9, 66, 64
23, 51600, Note_on_c, 9, 66, 82
23, 51616, Note_off_c, 9, 66, 64
23, 60720, Note_on_c, 9, 66, 95
23, 60728, Note_off_c, 9, 66, 64
23, 60840, Note_on_c, 9, 66, 84
23, 60848, Note_off_c, 9, 66, 64
23, 60960, Note_on_c, 9, 66, 94
23, 60976, Note_off_c, 9, 66, 64
23, 61200, Note_on_c, 9, 66, 87
23, 61208, Note_off_c, 9, 66, 64
23, 61320, Note_on_c, 9, 66, 81
23, 61328, Note_off_c, 9, 66, 64
23, 61440, Note_on_c, 9, 66, 83
23, 61472, Note_off_c, 9, 66, 64
23, 61472, End_track
0, 0, End_of_file
