0, 0, Header, 1, 11, 120
1, 0, Start_track
1, 0, Title_t, "For Ol' Times Sake, Words and Music by Tony Joe White"
1, 0, Title_t, "Recorded by Elvis Presley"
1, 0, Text_t, "Sequenced by Deb Ackley, 03/28/99\012"
1, 0, Text_t, "deback@acd.net\012"
1, 0, Text_t, "MIDI Haven, http://midihaven.com/midi.html \012"
1, 0, MIDI_port, 0
1, 0, System_exclusive, 5, 126, 127, 9, 1, 247
1, 0, MIDI_port, 0
1, 0, Time_signature, 4, 2, 24, 8
1, 0, Key_signature, 0, "major"
1, 0, Tempo, 545455
1, 0, End_track
2, 0, Start_track
2, 0, MIDI_port, 0
2, 0, Title_t, "Bass"
2, 0, Control_c, 1, 121, 0
2, 0, Control_c, 1, 123, 0
2, 0, Control_c, 1, 91, 40
2, 0, Control_c, 1, 93, 0
2, 0, Control_c, 1, 64, 0
2, 127, Program_c, 1, 35
2, 128, Control_c, 1, 7, 95
2, 128, Control_c, 1, 10, 64
2, 960, Note_on_c, 1, 36, 91
2, 1117, Note_on_c, 1, 36, 0
2, 1140, Note_on_c, 1, 36, 62
2, 1169, Note_on_c, 1, 36, 0
2, 1200, Note_on_c, 1, 36, 84
2, 1418, Note_on_c, 1, 36, 0
2, 1440, Note_on_c, 1, 36, 84
2, 1580, Note_on_c, 1, 36, 0
2, 1620, Note_on_c, 1, 36, 55
2, 1645, Note_on_c, 1, 36, 0
2, 1680, Note_on_c, 1, 36, 78
2, 1835, Note_on_c, 1, 36, 0
2, 1860, Note_on_c, 1, 36, 87
2, 1898, Note_on_c, 1, 36, 0
2, 1920, Note_on_c, 1, 36, 87
2, 2064, Note_on_c, 1, 36, 0
2, 2100, Note_on_c, 1, 36, 68
2, 2134, Note_on_c, 1, 36, 0
2, 2160, Note_on_c, 1, 36, 78
2, 2323, Note_on_c, 1, 36, 0
2, 2340, Note_on_c, 1, 36, 87
2, 2374, Note_on_c, 1, 36, 0
2, 2400, Note_on_c, 1, 31, 78
2, 2549, Note_on_c, 1, 31, 0
2, 2580, Note_on_c, 1, 31, 78
2, 2609, Note_on_c, 1, 31, 0
2, 2640, Note_on_c, 1, 31, 91
2, 2786, Note_on_c, 1, 31, 0
2, 2820, Note_on_c, 1, 31, 71
2, 2842, Note_on_c, 1, 31, 0
2, 2880, Note_on_c, 1, 36, 78
2, 3029, Note_on_c, 1, 36, 0
2, 3060, Note_on_c, 1, 36, 78
2, 3089, Note_on_c, 1, 36, 0
2, 3120, Note_on_c, 1, 36, 84
2, 3304, Note_on_c, 1, 36, 0
2, 3304, Note_on_c, 1, 31, 60
2, 3344, Note_on_c, 1, 31, 0
2, 3360, Note_on_c, 1, 36, 91
2, 3514, Note_on_c, 1, 36, 0
2, 3540, Note_on_c, 1, 36, 78
2, 3568, Note_on_c, 1, 36, 0
2, 3600, Note_on_c, 1, 36, 91
2, 3764, Note_on_c, 1, 36, 0
2, 3780, Note_on_c, 1, 36, 94
2, 3814, Note_on_c, 1, 36, 0
2, 3840, Note_on_c, 1, 40, 91
2, 3981, Note_on_c, 1, 40, 0
2, 4020, Note_on_c, 1, 40, 62
2, 4049, Note_on_c, 1, 40, 0
2, 4080, Note_on_c, 1, 40, 87
2, 4231, Note_on_c, 1, 40, 0
2, 4260, Note_on_c, 1, 40, 53
2, 4278, Note_on_c, 1, 40, 0
2, 4320, Note_on_c, 1, 40, 74
2, 4465, Note_on_c, 1, 40, 0
2, 4500, Note_on_c, 1, 40, 87
2, 4538, Note_on_c, 1, 40, 0
2, 4560, Note_on_c, 1, 35, 68
2, 4611, Note_on_c, 1, 35, 0
2, 4620, Note_on_c, 1, 36, 38
2, 4668, Note_on_c, 1, 36, 0
2, 4680, Note_on_c, 1, 40, 78
2, 4728, Note_on_c, 1, 40, 0
2, 4740, Note_on_c, 1, 36, 81
2, 4777, Note_on_c, 1, 36, 0
2, 4800, Note_on_c, 1, 31, 87
2, 4953, Note_on_c, 1, 31, 0
2, 4980, Note_on_c, 1, 31, 91
2, 5016, Note_on_c, 1, 31, 0
2, 5040, Note_on_c, 1, 31, 87
2, 5220, Note_on_c, 1, 31, 0
2, 5220, Note_on_c, 1, 31, 65
2, 5257, Note_on_c, 1, 31, 0
2, 5280, Note_on_c, 1, 36, 87
2, 5424, Note_on_c, 1, 36, 0
2, 5460, Note_on_c, 1, 36, 68
2, 5494, Note_on_c, 1, 36, 0
2, 5520, Note_on_c, 1, 36, 78
2, 5683, Note_on_c, 1, 36, 0
2, 5700, Note_on_c, 1, 36, 87
2, 5734, Note_on_c, 1, 36, 0
2, 5760, Note_on_c, 1, 29, 91
2, 5907, Note_on_c, 1, 29, 0
2, 5940, Note_on_c, 1, 29, 71
2, 5969, Note_on_c, 1, 29, 0
2, 6000, Note_on_c, 1, 29, 91
2, 6161, Note_on_c, 1, 29, 0
2, 6180, Note_on_c, 1, 29, 81
2, 6215, Note_on_c, 1, 29, 0
2, 6240, Note_on_c, 1, 29, 87
2, 6388, Note_on_c, 1, 29, 0
2, 6420, Note_on_c, 1, 29, 78
2, 6443, Note_on_c, 1, 29, 0
2, 6480, Note_on_c, 1, 29, 91
2, 6642, Note_on_c, 1, 29, 0
2, 6660, Note_on_c, 1, 29, 98
2, 6690, Note_on_c, 1, 29, 0
2, 6720, Note_on_c, 1, 36, 87
2, 6873, Note_on_c, 1, 36, 0
2, 6900, Note_on_c, 1, 36, 91
2, 6936, Note_on_c, 1, 36, 0
2, 6960, Note_on_c, 1, 36, 87
2, 7140, Note_on_c, 1, 36, 0
2, 7140, Note_on_c, 1, 36, 65
2, 7177, Note_on_c, 1, 36, 0
2, 7200, Note_on_c, 1, 36, 57
2, 7363, Note_on_c, 1, 36, 0
2, 7380, Note_on_c, 1, 36, 87
2, 7406, Note_on_c, 1, 36, 0
2, 7440, Note_on_c, 1, 36, 81
2, 7497, Note_on_c, 1, 36, 0
2, 7500, Note_on_c, 1, 40, 68
2, 7560, Note_on_c, 1, 40, 0
2, 7560, Note_on_c, 1, 43, 78
2, 7620, Note_on_c, 1, 43, 0
2, 7620, Note_on_c, 1, 40, 81
2, 7655, Note_on_c, 1, 40, 0
2, 7680, Note_on_c, 1, 28, 91
2, 7827, Note_on_c, 1, 28, 0
2, 7860, Note_on_c, 1, 28, 71
2, 7889, Note_on_c, 1, 28, 0
2, 7920, Note_on_c, 1, 28, 91
2, 8081, Note_on_c, 1, 28, 0
2, 8100, Note_on_c, 1, 28, 81
2, 8135, Note_on_c, 1, 28, 0
2, 8160, Note_on_c, 1, 28, 87
2, 8308, Note_on_c, 1, 28, 0
2, 8340, Note_on_c, 1, 28, 78
2, 8363, Note_on_c, 1, 28, 0
2, 8400, Note_on_c, 1, 28, 91
2, 8562, Note_on_c, 1, 28, 0
2, 8580, Note_on_c, 1, 28, 98
2, 8610, Note_on_c, 1, 28, 0
2, 8640, Note_on_c, 1, 31, 87
2, 8784, Note_on_c, 1, 31, 0
2, 8820, Note_on_c, 1, 31, 68
2, 8854, Note_on_c, 1, 31, 0
2, 8880, Note_on_c, 1, 31, 78
2, 9043, Note_on_c, 1, 31, 0
2, 9060, Note_on_c, 1, 31, 87
2, 9094, Note_on_c, 1, 31, 0
2, 9120, Note_on_c, 1, 36, 91
2, 9277, Note_on_c, 1, 36, 0
2, 9300, Note_on_c, 1, 36, 62
2, 9329, Note_on_c, 1, 36, 0
2, 9360, Note_on_c, 1, 36, 84
2, 9578, Note_on_c, 1, 36, 0
2, 9600, Note_on_c, 1, 41, 91
2, 9741, Note_on_c, 1, 41, 0
2, 9780, Note_on_c, 1, 41, 62
2, 9809, Note_on_c, 1, 41, 0
2, 9840, Note_on_c, 1, 41, 87
2, 9991, Note_on_c, 1, 41, 0
2, 10020, Note_on_c, 1, 41, 53
2, 10038, Note_on_c, 1, 41, 0
2, 10080, Note_on_c, 1, 41, 74
2, 10225, Note_on_c, 1, 41, 0
2, 10260, Note_on_c, 1, 41, 87
2, 10298, Note_on_c, 1, 41, 0
2, 10320, Note_on_c, 1, 36, 68
2, 10371, Note_on_c, 1, 36, 0
2, 10380, Note_on_c, 1, 38, 38
2, 10428, Note_on_c, 1, 38, 0
2, 10440, Note_on_c, 1, 41, 78
2, 10488, Note_on_c, 1, 41, 0
2, 10500, Note_on_c, 1, 38, 81
2, 10537, Note_on_c, 1, 38, 0
2, 10560, Note_on_c, 1, 29, 87
2, 10704, Note_on_c, 1, 29, 0
2, 10740, Note_on_c, 1, 29, 68
2, 10774, Note_on_c, 1, 29, 0
2, 10800, Note_on_c, 1, 29, 78
2, 10963, Note_on_c, 1, 29, 0
2, 10980, Note_on_c, 1, 29, 87
2, 11014, Note_on_c, 1, 29, 0
2, 11040, Note_on_c, 1, 43, 78
2, 11189, Note_on_c, 1, 43, 0
2, 11220, Note_on_c, 1, 43, 78
2, 11249, Note_on_c, 1, 43, 0
2, 11280, Note_on_c, 1, 43, 84
2, 11464, Note_on_c, 1, 43, 0
2, 11464, Note_on_c, 1, 38, 60
2, 11504, Note_on_c, 1, 38, 0
2, 11520, Note_on_c, 1, 36, 91
2, 11677, Note_on_c, 1, 36, 0
2, 11700, Note_on_c, 1, 36, 62
2, 11729, Note_on_c, 1, 36, 0
2, 11760, Note_on_c, 1, 36, 84
2, 11978, Note_on_c, 1, 36, 0
2, 12000, Note_on_c, 1, 36, 84
2, 12140, Note_on_c, 1, 36, 0
2, 12180, Note_on_c, 1, 36, 55
2, 12205, Note_on_c, 1, 36, 0
2, 12240, Note_on_c, 1, 36, 78
2, 12395, Note_on_c, 1, 36, 0
2, 12420, Note_on_c, 1, 36, 87
2, 12458, Note_on_c, 1, 36, 0
2, 12480, Note_on_c, 1, 38, 87
2, 12624, Note_on_c, 1, 38, 0
2, 12660, Note_on_c, 1, 38, 68
2, 12694, Note_on_c, 1, 38, 0
2, 12720, Note_on_c, 1, 38, 78
2, 12883, Note_on_c, 1, 38, 0
2, 12900, Note_on_c, 1, 38, 87
2, 12934, Note_on_c, 1, 38, 0
2, 12960, Note_on_c, 1, 43, 78
2, 13109, Note_on_c, 1, 43, 0
2, 13140, Note_on_c, 1, 43, 78
2, 13169, Note_on_c, 1, 43, 0
2, 13200, Note_on_c, 1, 43, 84
2, 13384, Note_on_c, 1, 43, 0
2, 13384, Note_on_c, 1, 38, 60
2, 13424, Note_on_c, 1, 38, 0
2, 13440, Note_on_c, 1, 36, 91
2, 13597, Note_on_c, 1, 36, 0
2, 13620, Note_on_c, 1, 36, 62
2, 13649, Note_on_c, 1, 36, 0
2, 13680, Note_on_c, 1, 36, 84
2, 13898, Note_on_c, 1, 36, 0
2, 13920, Note_on_c, 1, 31, 87
2, 14064, Note_on_c, 1, 31, 0
2, 14100, Note_on_c, 1, 31, 68
2, 14134, Note_on_c, 1, 31, 0
2, 14160, Note_on_c, 1, 31, 78
2, 14323, Note_on_c, 1, 31, 0
2, 14340, Note_on_c, 1, 31, 87
2, 14374, Note_on_c, 1, 31, 0
2, 14400, Note_on_c, 1, 36, 78
2, 14549, Note_on_c, 1, 36, 0
2, 14580, Note_on_c, 1, 36, 78
2, 14609, Note_on_c, 1, 36, 0
2, 14640, Note_on_c, 1, 36, 84
2, 14824, Note_on_c, 1, 36, 0
2, 14824, Note_on_c, 1, 31, 60
2, 14864, Note_on_c, 1, 31, 0
2, 14880, Note_on_c, 1, 36, 91
2, 15034, Note_on_c, 1, 36, 0
2, 15060, Note_on_c, 1, 36, 78
2, 15088, Note_on_c, 1, 36, 0
2, 15120, Note_on_c, 1, 36, 91
2, 15284, Note_on_c, 1, 36, 0
2, 15300, Note_on_c, 1, 36, 94
2, 15334, Note_on_c, 1, 36, 0
2, 15360, Note_on_c, 1, 28, 91
2, 15507, Note_on_c, 1, 28, 0
2, 15540, Note_on_c, 1, 28, 71
2, 15569, Note_on_c, 1, 28, 0
2, 15600, Note_on_c, 1, 28, 91
2, 15761, Note_on_c, 1, 28, 0
2, 15780, Note_on_c, 1, 28, 81
2, 15815, Note_on_c, 1, 28, 0
2, 15840, Note_on_c, 1, 28, 87
2, 15988, Note_on_c, 1, 28, 0
2, 16020, Note_on_c, 1, 28, 78
2, 16043, Note_on_c, 1, 28, 0
2, 16080, Note_on_c, 1, 28, 91
2, 16242, Note_on_c, 1, 28, 0
2, 16260, Note_on_c, 1, 28, 98
2, 16290, Note_on_c, 1, 28, 0
2, 16320, Note_on_c, 1, 31, 87
2, 16464, Note_on_c, 1, 31, 0
2, 16500, Note_on_c, 1, 31, 68
2, 16534, Note_on_c, 1, 31, 0
2, 16560, Note_on_c, 1, 31, 78
2, 16723, Note_on_c, 1, 31, 0
2, 16740, Note_on_c, 1, 31, 87
2, 16774, Note_on_c, 1, 31, 0
2, 16800, Note_on_c, 1, 36, 91
2, 16957, Note_on_c, 1, 36, 0
2, 16980, Note_on_c, 1, 36, 62
2, 17009, Note_on_c, 1, 36, 0
2, 17040, Note_on_c, 1, 36, 84
2, 17258, Note_on_c, 1, 36, 0
2, 17280, Note_on_c, 1, 29, 91
2, 17437, Note_on_c, 1, 29, 0
2, 17460, Note_on_c, 1, 29, 62
2, 17489, Note_on_c, 1, 29, 0
2, 17520, Note_on_c, 1, 29, 84
2, 17738, Note_on_c, 1, 29, 0
2, 17760, Note_on_c, 1, 29, 84
2, 17900, Note_on_c, 1, 29, 0
2, 17940, Note_on_c, 1, 29, 55
2, 17965, Note_on_c, 1, 29, 0
2, 18000, Note_on_c, 1, 29, 78
2, 18155, Note_on_c, 1, 29, 0
2, 18180, Note_on_c, 1, 29, 87
2, 18218, Note_on_c, 1, 29, 0
2, 18240, Note_on_c, 1, 36, 91
2, 18387, Note_on_c, 1, 36, 0
2, 18420, Note_on_c, 1, 36, 71
2, 18449, Note_on_c, 1, 36, 0
2, 18480, Note_on_c, 1, 36, 91
2, 18641, Note_on_c, 1, 36, 0
2, 18660, Note_on_c, 1, 36, 81
2, 18695, Note_on_c, 1, 36, 0
2, 18720, Note_on_c, 1, 36, 87
2, 18868, Note_on_c, 1, 36, 0
2, 18900, Note_on_c, 1, 36, 78
2, 18923, Note_on_c, 1, 36, 0
2, 18960, Note_on_c, 1, 36, 91
2, 19122, Note_on_c, 1, 36, 0
2, 19140, Note_on_c, 1, 36, 98
2, 19170, Note_on_c, 1, 36, 0
2, 19200, Note_on_c, 1, 28, 87
2, 19344, Note_on_c, 1, 28, 0
2, 19380, Note_on_c, 1, 28, 68
2, 19414, Note_on_c, 1, 28, 0
2, 19440, Note_on_c, 1, 28, 78
2, 19603, Note_on_c, 1, 28, 0
2, 19620, Note_on_c, 1, 28, 87
2, 19654, Note_on_c, 1, 28, 0
2, 19680, Note_on_c, 1, 28, 91
2, 19835, Note_on_c, 1, 28, 0
2, 19860, Note_on_c, 1, 28, 71
2, 19885, Note_on_c, 1, 28, 0
2, 19920, Note_on_c, 1, 28, 84
2, 20071, Note_on_c, 1, 28, 0
2, 20100, Note_on_c, 1, 28, 81
2, 20124, Note_on_c, 1, 28, 0
2, 20160, Note_on_c, 1, 31, 91
2, 20306, Note_on_c, 1, 31, 0
2, 20340, Note_on_c, 1, 31, 71
2, 20362, Note_on_c, 1, 31, 0
2, 20400, Note_on_c, 1, 31, 91
2, 20555, Note_on_c, 1, 31, 0
2, 20580, Note_on_c, 1, 31, 57
2, 20598, Note_on_c, 1, 31, 0
2, 20640, Note_on_c, 1, 36, 81
2, 20780, Note_on_c, 1, 36, 0
2, 20820, Note_on_c, 1, 36, 55
2, 20842, Note_on_c, 1, 36, 0
2, 20880, Note_on_c, 1, 36, 71
2, 21082, Note_on_c, 1, 36, 0
2, 21120, Note_on_c, 1, 29, 81
2, 21260, Note_on_c, 1, 29, 0
2, 21300, Note_on_c, 1, 29, 55
2, 21322, Note_on_c, 1, 29, 0
2, 21360, Note_on_c, 1, 29, 71
2, 21562, Note_on_c, 1, 29, 0
2, 21600, Note_on_c, 1, 29, 78
2, 21756, Note_on_c, 1, 29, 0
2, 21780, Note_on_c, 1, 29, 47
2, 21796, Note_on_c, 1, 29, 0
2, 21840, Note_on_c, 1, 29, 74
2, 22045, Note_on_c, 1, 29, 0
2, 22080, Note_on_c, 1, 29, 91
2, 22227, Note_on_c, 1, 29, 0
2, 22260, Note_on_c, 1, 29, 71
2, 22289, Note_on_c, 1, 29, 0
2, 22320, Note_on_c, 1, 29, 91
2, 22481, Note_on_c, 1, 29, 0
2, 22500, Note_on_c, 1, 29, 81
2, 22535, Note_on_c, 1, 29, 0
2, 22560, Note_on_c, 1, 31, 87
2, 22713, Note_on_c, 1, 31, 0
2, 22740, Note_on_c, 1, 31, 91
2, 22776, Note_on_c, 1, 31, 0
2, 22800, Note_on_c, 1, 31, 87
2, 22980, Note_on_c, 1, 31, 0
2, 22980, Note_on_c, 1, 31, 65
2, 23017, Note_on_c, 1, 31, 0
2, 23040, Note_on_c, 1, 36, 91
2, 23181, Note_on_c, 1, 36, 0
2, 23220, Note_on_c, 1, 36, 62
2, 23249, Note_on_c, 1, 36, 0
2, 23280, Note_on_c, 1, 36, 87
2, 23431, Note_on_c, 1, 36, 0
2, 23460, Note_on_c, 1, 36, 53
2, 23478, Note_on_c, 1, 36, 0
2, 23520, Note_on_c, 1, 36, 74
2, 23665, Note_on_c, 1, 36, 0
2, 23700, Note_on_c, 1, 36, 87
2, 23738, Note_on_c, 1, 36, 0
2, 23760, Note_on_c, 1, 31, 68
2, 23811, Note_on_c, 1, 31, 0
2, 23820, Note_on_c, 1, 33, 38
2, 23868, Note_on_c, 1, 33, 0
2, 23880, Note_on_c, 1, 36, 78
2, 23928, Note_on_c, 1, 36, 0
2, 23940, Note_on_c, 1, 33, 81
2, 23977, Note_on_c, 1, 33, 0
2, 24000, Note_on_c, 1, 38, 87
2, 24153, Note_on_c, 1, 38, 0
2, 24180, Note_on_c, 1, 38, 91
2, 24216, Note_on_c, 1, 38, 0
2, 24240, Note_on_c, 1, 38, 87
2, 24420, Note_on_c, 1, 38, 0
2, 24420, Note_on_c, 1, 38, 65
2, 24457, Note_on_c, 1, 38, 0
2, 24480, Note_on_c, 1, 31, 87
2, 24624, Note_on_c, 1, 31, 0
2, 24660, Note_on_c, 1, 31, 68
2, 24694, Note_on_c, 1, 31, 0
2, 24720, Note_on_c, 1, 31, 78
2, 24883, Note_on_c, 1, 31, 0
2, 24900, Note_on_c, 1, 31, 87
2, 24934, Note_on_c, 1, 31, 0
2, 24960, Note_on_c, 1, 36, 81
2, 25100, Note_on_c, 1, 36, 0
2, 25140, Note_on_c, 1, 36, 55
2, 25162, Note_on_c, 1, 36, 0
2, 25200, Note_on_c, 1, 36, 71
2, 25402, Note_on_c, 1, 36, 0
2, 25440, Note_on_c, 1, 36, 78
2, 25596, Note_on_c, 1, 36, 0
2, 25620, Note_on_c, 1, 36, 47
2, 25636, Note_on_c, 1, 36, 0
2, 25680, Note_on_c, 1, 36, 74
2, 25885, Note_on_c, 1, 36, 0
2, 25920, Note_on_c, 1, 29, 91
2, 26067, Note_on_c, 1, 29, 0
2, 26100, Note_on_c, 1, 29, 71
2, 26129, Note_on_c, 1, 29, 0
2, 26160, Note_on_c, 1, 29, 91
2, 26321, Note_on_c, 1, 29, 0
2, 26340, Note_on_c, 1, 29, 81
2, 26375, Note_on_c, 1, 29, 0
2, 26400, Note_on_c, 1, 31, 87
2, 26553, Note_on_c, 1, 31, 0
2, 26580, Note_on_c, 1, 31, 91
2, 26616, Note_on_c, 1, 31, 0
2, 26640, Note_on_c, 1, 31, 87
2, 26820, Note_on_c, 1, 31, 0
2, 26820, Note_on_c, 1, 31, 65
2, 26857, Note_on_c, 1, 31, 0
2, 26880, Note_on_c, 1, 36, 87
2, 27033, Note_on_c, 1, 36, 0
2, 27060, Note_on_c, 1, 36, 91
2, 27096, Note_on_c, 1, 36, 0
2, 27120, Note_on_c, 1, 36, 87
2, 27300, Note_on_c, 1, 36, 0
2, 27300, Note_on_c, 1, 36, 65
2, 27337, Note_on_c, 1, 36, 0
2, 27360, Note_on_c, 1, 36, 57
2, 27523, Note_on_c, 1, 36, 0
2, 27540, Note_on_c, 1, 36, 87
2, 27566, Note_on_c, 1, 36, 0
2, 27600, Note_on_c, 1, 36, 81
2, 27657, Note_on_c, 1, 36, 0
2, 27660, Note_on_c, 1, 40, 68
2, 27720, Note_on_c, 1, 40, 0
2, 27720, Note_on_c, 1, 43, 78
2, 27780, Note_on_c, 1, 43, 0
2, 27780, Note_on_c, 1, 40, 81
2, 27815, Note_on_c, 1, 40, 0
2, 27840, Note_on_c, 1, 38, 87
2, 27984, Note_on_c, 1, 38, 0
2, 28020, Note_on_c, 1, 38, 68
2, 28054, Note_on_c, 1, 38, 0
2, 28080, Note_on_c, 1, 38, 78
2, 28243, Note_on_c, 1, 38, 0
2, 28260, Note_on_c, 1, 38, 87
2, 28294, Note_on_c, 1, 38, 0
2, 28320, Note_on_c, 1, 31, 91
2, 28467, Note_on_c, 1, 31, 0
2, 28500, Note_on_c, 1, 31, 71
2, 28529, Note_on_c, 1, 31, 0
2, 28560, Note_on_c, 1, 31, 91
2, 28721, Note_on_c, 1, 31, 0
2, 28740, Note_on_c, 1, 31, 81
2, 28775, Note_on_c, 1, 31, 0
2, 28800, Note_on_c, 1, 36, 91
2, 28957, Note_on_c, 1, 36, 0
2, 28980, Note_on_c, 1, 36, 62
2, 29009, Note_on_c, 1, 36, 0
2, 29040, Note_on_c, 1, 36, 84
2, 29258, Note_on_c, 1, 36, 0
2, 29280, Note_on_c, 1, 36, 84
2, 29420, Note_on_c, 1, 36, 0
2, 29460, Note_on_c, 1, 36, 55
2, 29485, Note_on_c, 1, 36, 0
2, 29520, Note_on_c, 1, 36, 78
2, 29675, Note_on_c, 1, 36, 0
2, 29700, Note_on_c, 1, 36, 87
2, 29738, Note_on_c, 1, 36, 0
2, 29760, Note_on_c, 1, 29, 91
2, 29917, Note_on_c, 1, 29, 0
2, 29940, Note_on_c, 1, 29, 62
2, 29969, Note_on_c, 1, 29, 0
2, 30000, Note_on_c, 1, 29, 84
2, 30218, Note_on_c, 1, 29, 0
2, 30240, Note_on_c, 1, 31, 91
2, 30387, Note_on_c, 1, 31, 0
2, 30420, Note_on_c, 1, 31, 71
2, 30449, Note_on_c, 1, 31, 0
2, 30480, Note_on_c, 1, 31, 91
2, 30641, Note_on_c, 1, 31, 0
2, 30660, Note_on_c, 1, 31, 81
2, 30695, Note_on_c, 1, 31, 0
2, 30720, Note_on_c, 1, 36, 87
2, 30873, Note_on_c, 1, 36, 0
2, 30900, Note_on_c, 1, 36, 91
2, 30936, Note_on_c, 1, 36, 0
2, 30960, Note_on_c, 1, 36, 87
2, 31140, Note_on_c, 1, 36, 0
2, 31140, Note_on_c, 1, 36, 65
2, 31177, Note_on_c, 1, 36, 0
2, 31200, Note_on_c, 1, 36, 57
2, 31363, Note_on_c, 1, 36, 0
2, 31380, Note_on_c, 1, 36, 87
2, 31406, Note_on_c, 1, 36, 0
2, 31440, Note_on_c, 1, 36, 81
2, 31497, Note_on_c, 1, 36, 0
2, 31500, Note_on_c, 1, 40, 68
2, 31560, Note_on_c, 1, 40, 0
2, 31560, Note_on_c, 1, 43, 78
2, 31620, Note_on_c, 1, 43, 0
2, 31620, Note_on_c, 1, 40, 81
2, 31655, Note_on_c, 1, 40, 0
2, 31680, Note_on_c, 1, 35, 87
2, 31833, Note_on_c, 1, 35, 0
2, 31860, Note_on_c, 1, 35, 91
2, 31896, Note_on_c, 1, 35, 0
2, 31920, Note_on_c, 1, 35, 87
2, 32100, Note_on_c, 1, 35, 0
2, 32100, Note_on_c, 1, 35, 65
2, 32137, Note_on_c, 1, 35, 0
2, 32160, Note_on_c, 1, 33, 78
2, 32309, Note_on_c, 1, 33, 0
2, 32340, Note_on_c, 1, 33, 78
2, 32369, Note_on_c, 1, 33, 0
2, 32400, Note_on_c, 1, 33, 84
2, 32584, Note_on_c, 1, 33, 0
2, 32584, Note_on_c, 1, 28, 60
2, 32624, Note_on_c, 1, 28, 0
2, 32640, Note_on_c, 1, 29, 91
2, 32786, Note_on_c, 1, 29, 0
2, 32820, Note_on_c, 1, 29, 71
2, 32842, Note_on_c, 1, 29, 0
2, 32880, Note_on_c, 1, 29, 91
2, 33035, Note_on_c, 1, 29, 0
2, 33060, Note_on_c, 1, 29, 57
2, 33078, Note_on_c, 1, 29, 0
2, 33120, Note_on_c, 1, 38, 91
2, 33277, Note_on_c, 1, 38, 0
2, 33300, Note_on_c, 1, 38, 62
2, 33329, Note_on_c, 1, 38, 0
2, 33360, Note_on_c, 1, 38, 84
2, 33578, Note_on_c, 1, 38, 0
2, 33600, Note_on_c, 1, 38, 87
2, 33744, Note_on_c, 1, 38, 0
2, 33780, Note_on_c, 1, 38, 68
2, 33814, Note_on_c, 1, 38, 0
2, 33840, Note_on_c, 1, 38, 78
2, 34003, Note_on_c, 1, 38, 0
2, 34020, Note_on_c, 1, 38, 87
2, 34054, Note_on_c, 1, 38, 0
2, 34080, Note_on_c, 1, 31, 91
2, 34227, Note_on_c, 1, 31, 0
2, 34260, Note_on_c, 1, 31, 71
2, 34289, Note_on_c, 1, 31, 0
2, 34320, Note_on_c, 1, 31, 91
2, 34481, Note_on_c, 1, 31, 0
2, 34500, Note_on_c, 1, 31, 81
2, 34535, Note_on_c, 1, 31, 0
2, 34560, Note_on_c, 1, 43, 78
2, 34709, Note_on_c, 1, 43, 0
2, 34740, Note_on_c, 1, 43, 78
2, 34769, Note_on_c, 1, 43, 0
2, 34800, Note_on_c, 1, 43, 84
2, 34984, Note_on_c, 1, 43, 0
2, 34984, Note_on_c, 1, 38, 60
2, 35024, Note_on_c, 1, 38, 0
2, 35040, Note_on_c, 1, 36, 81
2, 35180, Note_on_c, 1, 36, 0
2, 35220, Note_on_c, 1, 36, 55
2, 35242, Note_on_c, 1, 36, 0
2, 35280, Note_on_c, 1, 36, 71
2, 35482, Note_on_c, 1, 36, 0
2, 35520, Note_on_c, 1, 36, 78
2, 35676, Note_on_c, 1, 36, 0
2, 35700, Note_on_c, 1, 36, 47
2, 35716, Note_on_c, 1, 36, 0
2, 35760, Note_on_c, 1, 36, 74
2, 35965, Note_on_c, 1, 36, 0
2, 36000, Note_on_c, 1, 28, 91
2, 36146, Note_on_c, 1, 28, 0
2, 36180, Note_on_c, 1, 28, 71
2, 36202, Note_on_c, 1, 28, 0
2, 36240, Note_on_c, 1, 28, 91
2, 36395, Note_on_c, 1, 28, 0
2, 36420, Note_on_c, 1, 28, 57
2, 36438, Note_on_c, 1, 28, 0
2, 36480, Note_on_c, 1, 28, 81
2, 36638, Note_on_c, 1, 28, 0
2, 36660, Note_on_c, 1, 28, 68
2, 36684, Note_on_c, 1, 28, 0
2, 36720, Note_on_c, 1, 28, 94
2, 36883, Note_on_c, 1, 28, 0
2, 36900, Note_on_c, 1, 28, 98
2, 36924, Note_on_c, 1, 28, 0
2, 36960, Note_on_c, 1, 31, 91
2, 37117, Note_on_c, 1, 31, 0
2, 37140, Note_on_c, 1, 31, 62
2, 37169, Note_on_c, 1, 31, 0
2, 37200, Note_on_c, 1, 31, 84
2, 37418, Note_on_c, 1, 31, 0
2, 37440, Note_on_c, 1, 36, 78
2, 37589, Note_on_c, 1, 36, 0
2, 37620, Note_on_c, 1, 36, 78
2, 37649, Note_on_c, 1, 36, 0
2, 37680, Note_on_c, 1, 36, 84
2, 37864, Note_on_c, 1, 36, 0
2, 37864, Note_on_c, 1, 31, 60
2, 37904, Note_on_c, 1, 31, 0
2, 37920, Note_on_c, 1, 29, 87
2, 38064, Note_on_c, 1, 29, 0
2, 38100, Note_on_c, 1, 29, 68
2, 38134, Note_on_c, 1, 29, 0
2, 38160, Note_on_c, 1, 29, 78
2, 38323, Note_on_c, 1, 29, 0
2, 38340, Note_on_c, 1, 29, 87
2, 38374, Note_on_c, 1, 29, 0
2, 38400, Note_on_c, 1, 29, 91
2, 38555, Note_on_c, 1, 29, 0
2, 38580, Note_on_c, 1, 29, 71
2, 38605, Note_on_c, 1, 29, 0
2, 38640, Note_on_c, 1, 29, 84
2, 38791, Note_on_c, 1, 29, 0
2, 38820, Note_on_c, 1, 29, 81
2, 38844, Note_on_c, 1, 29, 0
2, 38880, Note_on_c, 1, 36, 81
2, 39020, Note_on_c, 1, 36, 0
2, 39060, Note_on_c, 1, 36, 55
2, 39082, Note_on_c, 1, 36, 0
2, 39120, Note_on_c, 1, 36, 71
2, 39322, Note_on_c, 1, 36, 0
2, 39360, Note_on_c, 1, 36, 78
2, 39516, Note_on_c, 1, 36, 0
2, 39540, Note_on_c, 1, 36, 47
2, 39556, Note_on_c, 1, 36, 0
2, 39600, Note_on_c, 1, 36, 74
2, 39805, Note_on_c, 1, 36, 0
2, 39840, Note_on_c, 1, 28, 87
2, 39993, Note_on_c, 1, 28, 0
2, 40020, Note_on_c, 1, 28, 91
2, 40056, Note_on_c, 1, 28, 0
2, 40080, Note_on_c, 1, 28, 87
2, 40260, Note_on_c, 1, 28, 0
2, 40260, Note_on_c, 1, 28, 65
2, 40297, Note_on_c, 1, 28, 0
2, 40320, Note_on_c, 1, 28, 57
2, 40483, Note_on_c, 1, 28, 0
2, 40500, Note_on_c, 1, 28, 87
2, 40526, Note_on_c, 1, 28, 0
2, 40560, Note_on_c, 1, 28, 81
2, 40617, Note_on_c, 1, 28, 0
2, 40620, Note_on_c, 1, 31, 68
2, 40680, Note_on_c, 1, 31, 0
2, 40680, Note_on_c, 1, 35, 78
2, 40740, Note_on_c, 1, 35, 0
2, 40740, Note_on_c, 1, 31, 81
2, 40775, Note_on_c, 1, 31, 0
2, 40800, Note_on_c, 1, 31, 91
2, 40957, Note_on_c, 1, 31, 0
2, 40980, Note_on_c, 1, 31, 62
2, 41009, Note_on_c, 1, 31, 0
2, 41040, Note_on_c, 1, 31, 84
2, 41258, Note_on_c, 1, 31, 0
2, 41280, Note_on_c, 1, 36, 91
2, 41427, Note_on_c, 1, 36, 0
2, 41460, Note_on_c, 1, 36, 71
2, 41489, Note_on_c, 1, 36, 0
2, 41520, Note_on_c, 1, 36, 91
2, 41681, Note_on_c, 1, 36, 0
2, 41700, Note_on_c, 1, 36, 81
2, 41735, Note_on_c, 1, 36, 0
2, 41760, Note_on_c, 1, 29, 91
2, 41917, Note_on_c, 1, 29, 0
2, 41940, Note_on_c, 1, 29, 62
2, 41969, Note_on_c, 1, 29, 0
2, 42000, Note_on_c, 1, 29, 84
2, 42218, Note_on_c, 1, 29, 0
2, 42240, Note_on_c, 1, 29, 84
2, 42380, Note_on_c, 1, 29, 0
2, 42420, Note_on_c, 1, 29, 55
2, 42445, Note_on_c, 1, 29, 0
2, 42480, Note_on_c, 1, 29, 78
2, 42635, Note_on_c, 1, 29, 0
2, 42660, Note_on_c, 1, 29, 87
2, 42698, Note_on_c, 1, 29, 0
2, 42720, Note_on_c, 1, 29, 91
2, 42867, Note_on_c, 1, 29, 0
2, 42900, Note_on_c, 1, 29, 71
2, 42929, Note_on_c, 1, 29, 0
2, 42960, Note_on_c, 1, 29, 91
2, 43121, Note_on_c, 1, 29, 0
2, 43140, Note_on_c, 1, 29, 81
2, 43175, Note_on_c, 1, 29, 0
2, 43200, Note_on_c, 1, 31, 87
2, 43344, Note_on_c, 1, 31, 0
2, 43380, Note_on_c, 1, 31, 68
2, 43414, Note_on_c, 1, 31, 0
2, 43440, Note_on_c, 1, 31, 78
2, 43603, Note_on_c, 1, 31, 0
2, 43620, Note_on_c, 1, 31, 87
2, 43654, Note_on_c, 1, 31, 0
2, 43680, Note_on_c, 1, 36, 87
2, 43833, Note_on_c, 1, 36, 0
2, 43860, Note_on_c, 1, 36, 91
2, 43896, Note_on_c, 1, 36, 0
2, 43920, Note_on_c, 1, 36, 87
2, 44100, Note_on_c, 1, 36, 0
2, 44100, Note_on_c, 1, 36, 65
2, 44137, Note_on_c, 1, 36, 0
2, 44160, Note_on_c, 1, 36, 57
2, 44323, Note_on_c, 1, 36, 0
2, 44340, Note_on_c, 1, 36, 87
2, 44366, Note_on_c, 1, 36, 0
2, 44400, Note_on_c, 1, 36, 81
2, 44457, Note_on_c, 1, 36, 0
2, 44460, Note_on_c, 1, 40, 68
2, 44520, Note_on_c, 1, 40, 0
2, 44520, Note_on_c, 1, 43, 78
2, 44580, Note_on_c, 1, 43, 0
2, 44580, Note_on_c, 1, 40, 81
2, 44615, Note_on_c, 1, 40, 0
2, 44640, Note_on_c, 1, 38, 87
2, 44784, Note_on_c, 1, 38, 0
2, 44820, Note_on_c, 1, 38, 68
2, 44854, Note_on_c, 1, 38, 0
2, 44880, Note_on_c, 1, 38, 78
2, 45043, Note_on_c, 1, 38, 0
2, 45060, Note_on_c, 1, 38, 87
2, 45094, Note_on_c, 1, 38, 0
2, 45120, Note_on_c, 1, 31, 81
2, 45260, Note_on_c, 1, 31, 0
2, 45300, Note_on_c, 1, 31, 55
2, 45322, Note_on_c, 1, 31, 0
2, 45360, Note_on_c, 1, 31, 71
2, 45562, Note_on_c, 1, 31, 0
2, 45600, Note_on_c, 1, 36, 81
2, 45740, Note_on_c, 1, 36, 0
2, 45780, Note_on_c, 1, 36, 55
2, 45802, Note_on_c, 1, 36, 0
2, 45840, Note_on_c, 1, 36, 71
2, 46042, Note_on_c, 1, 36, 0
2, 46080, Note_on_c, 1, 36, 78
2, 46236, Note_on_c, 1, 36, 0
2, 46260, Note_on_c, 1, 36, 47
2, 46276, Note_on_c, 1, 36, 0
2, 46320, Note_on_c, 1, 36, 74
2, 46525, Note_on_c, 1, 36, 0
2, 46560, Note_on_c, 1, 28, 87
2, 46713, Note_on_c, 1, 28, 0
2, 46740, Note_on_c, 1, 28, 91
2, 46776, Note_on_c, 1, 28, 0
2, 46800, Note_on_c, 1, 28, 87
2, 46980, Note_on_c, 1, 28, 0
2, 46980, Note_on_c, 1, 28, 65
2, 47017, Note_on_c, 1, 28, 0
2, 47040, Note_on_c, 1, 28, 57
2, 47203, Note_on_c, 1, 28, 0
2, 47220, Note_on_c, 1, 28, 87
2, 47246, Note_on_c, 1, 28, 0
2, 47280, Note_on_c, 1, 28, 81
2, 47337, Note_on_c, 1, 28, 0
2, 47340, Note_on_c, 1, 31, 68
2, 47400, Note_on_c, 1, 31, 0
2, 47400, Note_on_c, 1, 35, 78
2, 47460, Note_on_c, 1, 35, 0
2, 47460, Note_on_c, 1, 31, 81
2, 47495, Note_on_c, 1, 31, 0
2, 47520, Note_on_c, 1, 31, 91
2, 47667, Note_on_c, 1, 31, 0
2, 47700, Note_on_c, 1, 31, 71
2, 47729, Note_on_c, 1, 31, 0
2, 47760, Note_on_c, 1, 31, 91
2, 47921, Note_on_c, 1, 31, 0
2, 47940, Note_on_c, 1, 31, 81
2, 47975, Note_on_c, 1, 31, 0
2, 48000, Note_on_c, 1, 36, 87
2, 48146, Note_on_c, 1, 36, 0
2, 48180, Note_on_c, 1, 36, 71
2, 48202, Note_on_c, 1, 36, 0
2, 48240, Note_on_c, 1, 36, 91
2, 48395, Note_on_c, 1, 36, 0
2, 48395, End_track
3, 0, Start_track
3, 0, MIDI_port, 0
3, 0, Title_t, "Piano"
3, 0, Control_c, 2, 121, 0
3, 0, Control_c, 2, 123, 0
3, 0, Control_c, 2, 91, 40
3, 0, Control_c, 2, 93, 0
3, 0, Control_c, 2, 64, 0
3, 132, Program_c, 2, 26
3, 133, Control_c, 2, 7, 85
3, 133, Control_c, 2, 10, 54
3, 960, Note_on_c, 2, 72, 67
3, 960, Note_on_c, 2, 48, 71
3, 1020, Note_on_c, 2, 67, 57
3, 1065, Note_on_c, 2, 72, 0
3, 1110, Note_on_c, 2, 64, 51
3, 1140, Note_on_c, 2, 60, 20
3, 1500, Note_on_c, 2, 55, 60
3, 1520, Note_on_c, 2, 60, 0
3, 1557, Note_on_c, 2, 64, 0
3, 1560, Note_on_c, 2, 60, 87
3, 1564, Note_on_c, 2, 67, 0
3, 1620, Note_on_c, 2, 64, 78
3, 1740, Note_on_c, 2, 67, 74
3, 1800, Note_on_c, 2, 72, 87
3, 1857, Note_on_c, 2, 67, 0
3, 1861, Note_on_c, 2, 64, 0
3, 1864, Note_on_c, 2, 72, 0
3, 1873, Note_on_c, 2, 60, 0
3, 1883, Note_on_c, 2, 48, 0
3, 1883, Note_on_c, 2, 55, 0
3, 1920, Note_on_c, 2, 64, 49
3, 1920, Note_on_c, 2, 60, 49
3, 1920, Note_on_c, 2, 55, 49
3, 2362, Note_on_c, 2, 55, 0
3, 2362, Note_on_c, 2, 60, 0
3, 2362, Note_on_c, 2, 64, 0
3, 2400, Note_on_c, 2, 64, 62
3, 2400, Note_on_c, 2, 60, 62
3, 2400, Note_on_c, 2, 55, 62
3, 2637, Note_on_c, 2, 55, 0
3, 2637, Note_on_c, 2, 60, 0
3, 2637, Note_on_c, 2, 64, 0
3, 2700, Note_on_c, 2, 62, 62
3, 2700, Note_on_c, 2, 59, 62
3, 2700, Note_on_c, 2, 55, 62
3, 2880, Note_on_c, 2, 55, 0
3, 2880, Note_on_c, 2, 59, 0
3, 2880, Note_on_c, 2, 62, 0
3, 2880, Note_on_c, 2, 64, 81
3, 2880, Note_on_c, 2, 60, 81
3, 2880, Note_on_c, 2, 55, 81
3, 3150, Note_on_c, 2, 55, 0
3, 3150, Note_on_c, 2, 60, 0
3, 3150, Note_on_c, 2, 64, 0
3, 3180, Note_on_c, 2, 64, 78
3, 3180, Note_on_c, 2, 60, 78
3, 3180, Note_on_c, 2, 55, 78
3, 3220, Note_on_c, 2, 55, 0
3, 3220, Note_on_c, 2, 60, 0
3, 3220, Note_on_c, 2, 64, 0
3, 3360, Note_on_c, 2, 64, 68
3, 3360, Note_on_c, 2, 60, 68
3, 3360, Note_on_c, 2, 55, 68
3, 3806, Note_on_c, 2, 55, 0
3, 3806, Note_on_c, 2, 60, 0
3, 3806, Note_on_c, 2, 64, 0
3, 3840, Note_on_c, 2, 64, 62
3, 3840, Note_on_c, 2, 59, 62
3, 3840, Note_on_c, 2, 55, 62
3, 4735, Note_on_c, 2, 55, 0
3, 4735, Note_on_c, 2, 59, 0
3, 4735, Note_on_c, 2, 64, 0
3, 4860, Note_on_c, 2, 43, 81
3, 4920, Note_on_c, 2, 55, 71
3, 4980, Note_on_c, 2, 58, 60
3, 4980, Note_on_c, 2, 65, 78
3, 5256, Note_on_c, 2, 65, 0
3, 5256, Note_on_c, 2, 58, 0
3, 5268, Note_on_c, 2, 55, 0
3, 5271, Note_on_c, 2, 43, 0
3, 5280, Note_on_c, 2, 64, 81
3, 5280, Note_on_c, 2, 60, 81
3, 5280, Note_on_c, 2, 58, 81
3, 5280, Note_on_c, 2, 67, 81
3, 5550, Note_on_c, 2, 67, 0
3, 5550, Note_on_c, 2, 64, 0
3, 5550, Note_on_c, 2, 60, 0
3, 5550, Note_on_c, 2, 58, 0
3, 5580, Note_on_c, 2, 64, 78
3, 5580, Note_on_c, 2, 60, 78
3, 5580, Note_on_c, 2, 58, 78
3, 5580, Note_on_c, 2, 67, 78
3, 5620, Note_on_c, 2, 67, 0
3, 5620, Note_on_c, 2, 64, 0
3, 5620, Note_on_c, 2, 60, 0
3, 5620, Note_on_c, 2, 58, 0
3, 5760, Note_on_c, 2, 65, 81
3, 5760, Note_on_c, 2, 60, 81
3, 5760, Note_on_c, 2, 57, 81
3, 6030, Note_on_c, 2, 57, 0
3, 6030, Note_on_c, 2, 60, 0
3, 6030, Note_on_c, 2, 65, 0
3, 6060, Note_on_c, 2, 65, 78
3, 6060, Note_on_c, 2, 60, 78
3, 6060, Note_on_c, 2, 57, 78
3, 6100, Note_on_c, 2, 57, 0
3, 6100, Note_on_c, 2, 60, 0
3, 6100, Note_on_c, 2, 65, 0
3, 6240, Note_on_c, 2, 65, 68
3, 6240, Note_on_c, 2, 60, 68
3, 6240, Note_on_c, 2, 57, 68
3, 6686, Note_on_c, 2, 57, 0
3, 6686, Note_on_c, 2, 60, 0
3, 6686, Note_on_c, 2, 65, 0
3, 6720, Note_on_c, 2, 72, 67
3, 6720, Note_on_c, 2, 48, 71
3, 6780, Note_on_c, 2, 67, 57
3, 6825, Note_on_c, 2, 72, 0
3, 6870, Note_on_c, 2, 64, 51
3, 6900, Note_on_c, 2, 60, 20
3, 7260, Note_on_c, 2, 55, 60
3, 7280, Note_on_c, 2, 60, 0
3, 7317, Note_on_c, 2, 64, 0
3, 7320, Note_on_c, 2, 60, 87
3, 7324, Note_on_c, 2, 67, 0
3, 7380, Note_on_c, 2, 64, 78
3, 7500, Note_on_c, 2, 67, 74
3, 7560, Note_on_c, 2, 72, 87
3, 7617, Note_on_c, 2, 67, 0
3, 7621, Note_on_c, 2, 64, 0
3, 7624, Note_on_c, 2, 72, 0
3, 7633, Note_on_c, 2, 60, 0
3, 7643, Note_on_c, 2, 48, 0
3, 7643, Note_on_c, 2, 55, 0
3, 7680, Note_on_c, 2, 64, 81
3, 7680, Note_on_c, 2, 59, 81
3, 7680, Note_on_c, 2, 55, 81
3, 7950, Note_on_c, 2, 55, 0
3, 7950, Note_on_c, 2, 59, 0
3, 7950, Note_on_c, 2, 64, 0
3, 7980, Note_on_c, 2, 64, 78
3, 7980, Note_on_c, 2, 59, 78
3, 7980, Note_on_c, 2, 55, 78
3, 8020, Note_on_c, 2, 55, 0
3, 8020, Note_on_c, 2, 59, 0
3, 8020, Note_on_c, 2, 64, 0
3, 8160, Note_on_c, 2, 64, 68
3, 8160, Note_on_c, 2, 59, 68
3, 8160, Note_on_c, 2, 55, 68
3, 8606, Note_on_c, 2, 55, 0
3, 8606, Note_on_c, 2, 59, 0
3, 8606, Note_on_c, 2, 64, 0
3, 8640, Note_on_c, 2, 65, 68
3, 8640, Note_on_c, 2, 67, 60
3, 8640, Note_on_c, 2, 58, 36
3, 8700, Note_on_c, 2, 43, 68
3, 8760, Note_on_c, 2, 53, 57
3, 8777, Note_on_c, 2, 58, 0
3, 8820, Note_on_c, 2, 55, 71
3, 8832, Note_on_c, 2, 53, 0
3, 9048, Note_on_c, 2, 65, 0
3, 9048, Note_on_c, 2, 67, 0
3, 9051, Note_on_c, 2, 55, 0
3, 9061, Note_on_c, 2, 43, 0
3, 9120, Note_on_c, 2, 64, 49
3, 9120, Note_on_c, 2, 60, 49
3, 9120, Note_on_c, 2, 58, 49
3, 9120, Note_on_c, 2, 67, 49
3, 9562, Note_on_c, 2, 67, 0
3, 9562, Note_on_c, 2, 64, 0
3, 9562, Note_on_c, 2, 60, 0
3, 9562, Note_on_c, 2, 58, 0
3, 9600, Note_on_c, 2, 65, 78
3, 9600, Note_on_c, 2, 60, 78
3, 9600, Note_on_c, 2, 57, 78
3, 10200, Note_on_c, 2, 67, 62
3, 10200, Note_on_c, 2, 72, 71
3, 10205, Note_on_c, 2, 57, 0
3, 10205, Note_on_c, 2, 65, 0
3, 10205, Note_on_c, 2, 60, 0
3, 10260, Note_on_c, 2, 69, 81
3, 10274, Note_on_c, 2, 67, 0
3, 10380, Note_on_c, 2, 67, 71
3, 10442, Note_on_c, 2, 69, 0
3, 10442, Note_on_c, 2, 65, 78
3, 10458, Note_on_c, 2, 67, 0
3, 10509, Note_on_c, 2, 65, 0
3, 10517, Note_on_c, 2, 72, 0
3, 10560, Note_on_c, 2, 65, 49
3, 10560, Note_on_c, 2, 60, 49
3, 10560, Note_on_c, 2, 57, 49
3, 11002, Note_on_c, 2, 57, 0
3, 11002, Note_on_c, 2, 60, 0
3, 11002, Note_on_c, 2, 65, 0
3, 11100, Note_on_c, 2, 43, 81
3, 11160, Note_on_c, 2, 55, 71
3, 11220, Note_on_c, 2, 59, 60
3, 11220, Note_on_c, 2, 65, 78
3, 11496, Note_on_c, 2, 65, 0
3, 11496, Note_on_c, 2, 59, 0
3, 11508, Note_on_c, 2, 55, 0
3, 11511, Note_on_c, 2, 43, 0
3, 11580, Note_on_c, 2, 48, 73
3, 11640, Note_on_c, 2, 55, 86
3, 11700, Note_on_c, 2, 64, 70
3, 11700, Note_on_c, 2, 60, 47
3, 12138, Note_on_c, 2, 55, 0
3, 12160, Note_on_c, 2, 60, 0
3, 12166, Note_on_c, 2, 64, 0
3, 12180, Note_on_c, 2, 55, 76
3, 12240, Note_on_c, 2, 62, 82
3, 12240, Note_on_c, 2, 67, 89
3, 12293, Note_on_c, 2, 62, 0
3, 12300, Note_on_c, 2, 64, 76
3, 12355, Note_on_c, 2, 64, 0
3, 12360, Note_on_c, 2, 62, 46
3, 12412, Note_on_c, 2, 62, 0
3, 12420, Note_on_c, 2, 60, 79
3, 12466, Note_on_c, 2, 60, 0
3, 12466, Note_on_c, 2, 67, 0
3, 12466, Note_on_c, 2, 55, 0
3, 12466, Note_on_c, 2, 48, 0
3, 12480, Note_on_c, 2, 65, 49
3, 12480, Note_on_c, 2, 62, 49
3, 12480, Note_on_c, 2, 60, 49
3, 12480, Note_on_c, 2, 69, 49
3, 12922, Note_on_c, 2, 69, 0
3, 12922, Note_on_c, 2, 65, 0
3, 12922, Note_on_c, 2, 62, 0
3, 12922, Note_on_c, 2, 60, 0
3, 13020, Note_on_c, 2, 43, 81
3, 13080, Note_on_c, 2, 55, 71
3, 13140, Note_on_c, 2, 59, 60
3, 13140, Note_on_c, 2, 65, 78
3, 13416, Note_on_c, 2, 65, 0
3, 13416, Note_on_c, 2, 59, 0
3, 13428, Note_on_c, 2, 55, 0
3, 13431, Note_on_c, 2, 43, 0
3, 13440, Note_on_c, 2, 64, 68
3, 13440, Note_on_c, 2, 67, 60
3, 13440, Note_on_c, 2, 60, 36
3, 13500, Note_on_c, 2, 48, 68
3, 13560, Note_on_c, 2, 52, 57
3, 13577, Note_on_c, 2, 60, 0
3, 13620, Note_on_c, 2, 55, 71
3, 13632, Note_on_c, 2, 52, 0
3, 13848, Note_on_c, 2, 64, 0
3, 13848, Note_on_c, 2, 67, 0
3, 13851, Note_on_c, 2, 55, 0
3, 13861, Note_on_c, 2, 48, 0
3, 13920, Note_on_c, 2, 65, 68
3, 13920, Note_on_c, 2, 67, 60
3, 13920, Note_on_c, 2, 59, 36
3, 13980, Note_on_c, 2, 43, 68
3, 14040, Note_on_c, 2, 53, 57
3, 14057, Note_on_c, 2, 59, 0
3, 14100, Note_on_c, 2, 55, 71
3, 14112, Note_on_c, 2, 53, 0
3, 14328, Note_on_c, 2, 65, 0
3, 14328, Note_on_c, 2, 67, 0
3, 14331, Note_on_c, 2, 55, 0
3, 14341, Note_on_c, 2, 43, 0
3, 14460, Note_on_c, 2, 48, 73
3, 14520, Note_on_c, 2, 55, 86
3, 14580, Note_on_c, 2, 64, 70
3, 14580, Note_on_c, 2, 60, 47
3, 15018, Note_on_c, 2, 55, 0
3, 15040, Note_on_c, 2, 60, 0
3, 15046, Note_on_c, 2, 64, 0
3, 15060, Note_on_c, 2, 55, 76
3, 15120, Note_on_c, 2, 62, 82
3, 15120, Note_on_c, 2, 67, 89
3, 15173, Note_on_c, 2, 62, 0
3, 15180, Note_on_c, 2, 64, 76
3, 15235, Note_on_c, 2, 64, 0
3, 15240, Note_on_c, 2, 62, 46
3, 15292, Note_on_c, 2, 62, 0
3, 15300, Note_on_c, 2, 60, 79
3, 15346, Note_on_c, 2, 60, 0
3, 15346, Note_on_c, 2, 67, 0
3, 15346, Note_on_c, 2, 55, 0
3, 15346, Note_on_c, 2, 48, 0
3, 15360, Note_on_c, 2, 64, 78
3, 15360, Note_on_c, 2, 59, 78
3, 15360, Note_on_c, 2, 55, 78
3, 15960, Note_on_c, 2, 66, 62
3, 15960, Note_on_c, 2, 71, 71
3, 15965, Note_on_c, 2, 55, 0
3, 15965, Note_on_c, 2, 64, 0
3, 15965, Note_on_c, 2, 59, 0
3, 16020, Note_on_c, 2, 67, 81
3, 16034, Note_on_c, 2, 66, 0
3, 16140, Note_on_c, 2, 66, 71
3, 16202, Note_on_c, 2, 67, 0
3, 16202, Note_on_c, 2, 64, 78
3, 16218, Note_on_c, 2, 66, 0
3, 16269, Note_on_c, 2, 64, 0
3, 16277, Note_on_c, 2, 71, 0
3, 16320, Note_on_c, 2, 65, 81
3, 16320, Note_on_c, 2, 62, 81
3, 16320, Note_on_c, 2, 58, 81
3, 16320, Note_on_c, 2, 67, 81
3, 16590, Note_on_c, 2, 67, 0
3, 16590, Note_on_c, 2, 65, 0
3, 16590, Note_on_c, 2, 62, 0
3, 16590, Note_on_c, 2, 58, 0
3, 16620, Note_on_c, 2, 65, 78
3, 16620, Note_on_c, 2, 62, 78
3, 16620, Note_on_c, 2, 58, 78
3, 16620, Note_on_c, 2, 67, 78
3, 16660, Note_on_c, 2, 67, 0
3, 16660, Note_on_c, 2, 65, 0
3, 16660, Note_on_c, 2, 62, 0
3, 16660, Note_on_c, 2, 58, 0
3, 16800, Note_on_c, 2, 64, 49
3, 16800, Note_on_c, 2, 60, 49
3, 16800, Note_on_c, 2, 58, 49
3, 16800, Note_on_c, 2, 67, 49
3, 17242, Note_on_c, 2, 67, 0
3, 17242, Note_on_c, 2, 64, 0
3, 17242, Note_on_c, 2, 60, 0
3, 17242, Note_on_c, 2, 58, 0
3, 17280, Note_on_c, 2, 72, 67
3, 17280, Note_on_c, 2, 41, 71
3, 17340, Note_on_c, 2, 69, 57
3, 17385, Note_on_c, 2, 72, 0
3, 17430, Note_on_c, 2, 65, 51
3, 17460, Note_on_c, 2, 60, 20
3, 17820, Note_on_c, 2, 57, 60
3, 17840, Note_on_c, 2, 60, 0
3, 17877, Note_on_c, 2, 65, 0
3, 17880, Note_on_c, 2, 60, 87
3, 17884, Note_on_c, 2, 69, 0
3, 17940, Note_on_c, 2, 65, 78
3, 18060, Note_on_c, 2, 69, 74
3, 18120, Note_on_c, 2, 72, 87
3, 18177, Note_on_c, 2, 69, 0
3, 18181, Note_on_c, 2, 65, 0
3, 18184, Note_on_c, 2, 72, 0
3, 18193, Note_on_c, 2, 60, 0
3, 18203, Note_on_c, 2, 41, 0
3, 18203, Note_on_c, 2, 57, 0
3, 18300, Note_on_c, 2, 48, 73
3, 18360, Note_on_c, 2, 55, 86
3, 18420, Note_on_c, 2, 64, 70
3, 18420, Note_on_c, 2, 60, 47
3, 18858, Note_on_c, 2, 55, 0
3, 18880, Note_on_c, 2, 60, 0
3, 18886, Note_on_c, 2, 64, 0
3, 18900, Note_on_c, 2, 55, 76
3, 18960, Note_on_c, 2, 62, 82
3, 18960, Note_on_c, 2, 67, 89
3, 19013, Note_on_c, 2, 62, 0
3, 19020, Note_on_c, 2, 64, 76
3, 19075, Note_on_c, 2, 64, 0
3, 19080, Note_on_c, 2, 62, 46
3, 19132, Note_on_c, 2, 62, 0
3, 19140, Note_on_c, 2, 60, 79
3, 19186, Note_on_c, 2, 60, 0
3, 19186, Note_on_c, 2, 67, 0
3, 19186, Note_on_c, 2, 55, 0
3, 19186, Note_on_c, 2, 48, 0
3, 19200, Note_on_c, 2, 71, 67
3, 19200, Note_on_c, 2, 40, 71
3, 19260, Note_on_c, 2, 67, 57
3, 19305, Note_on_c, 2, 71, 0
3, 19350, Note_on_c, 2, 64, 51
3, 19380, Note_on_c, 2, 59, 20
3, 19740, Note_on_c, 2, 55, 60
3, 19760, Note_on_c, 2, 59, 0
3, 19797, Note_on_c, 2, 64, 0
3, 19800, Note_on_c, 2, 59, 87
3, 19804, Note_on_c, 2, 67, 0
3, 19860, Note_on_c, 2, 64, 78
3, 19980, Note_on_c, 2, 67, 74
3, 20040, Note_on_c, 2, 71, 87
3, 20097, Note_on_c, 2, 67, 0
3, 20101, Note_on_c, 2, 64, 0
3, 20104, Note_on_c, 2, 71, 0
3, 20113, Note_on_c, 2, 59, 0
3, 20123, Note_on_c, 2, 40, 0
3, 20123, Note_on_c, 2, 55, 0
3, 20220, Note_on_c, 2, 43, 81
3, 20280, Note_on_c, 2, 55, 71
3, 20340, Note_on_c, 2, 58, 60
3, 20340, Note_on_c, 2, 65, 78
3, 20616, Note_on_c, 2, 65, 0
3, 20616, Note_on_c, 2, 58, 0
3, 20628, Note_on_c, 2, 55, 0
3, 20631, Note_on_c, 2, 43, 0
3, 20640, Note_on_c, 2, 64, 49
3, 20640, Note_on_c, 2, 60, 49
3, 20640, Note_on_c, 2, 58, 49
3, 20640, Note_on_c, 2, 67, 49
3, 21082, Note_on_c, 2, 67, 0
3, 21082, Note_on_c, 2, 64, 0
3, 21082, Note_on_c, 2, 60, 0
3, 21082, Note_on_c, 2, 58, 0
3, 21120, Note_on_c, 2, 65, 68
3, 21120, Note_on_c, 2, 60, 68
3, 21120, Note_on_c, 2, 57, 68
3, 21165, Note_on_c, 2, 57, 0
3, 21165, Note_on_c, 2, 60, 0
3, 21165, Note_on_c, 2, 65, 0
3, 21240, Note_on_c, 2, 65, 81
3, 21240, Note_on_c, 2, 60, 81
3, 21240, Note_on_c, 2, 57, 81
3, 21660, Note_on_c, 2, 41, 74
3, 21695, Note_on_c, 2, 57, 0
3, 21695, Note_on_c, 2, 65, 0
3, 21695, Note_on_c, 2, 60, 0
3, 21720, Note_on_c, 2, 57, 78
3, 21780, Note_on_c, 2, 65, 62
3, 21900, Note_on_c, 2, 60, 45
3, 22072, Note_on_c, 2, 60, 0
3, 22072, Note_on_c, 2, 41, 0
3, 22072, Note_on_c, 2, 57, 0
3, 22072, Note_on_c, 2, 65, 0
3, 22140, Note_on_c, 2, 41, 81
3, 22200, Note_on_c, 2, 57, 71
3, 22260, Note_on_c, 2, 60, 60
3, 22260, Note_on_c, 2, 65, 78
3, 22536, Note_on_c, 2, 65, 0
3, 22536, Note_on_c, 2, 60, 0
3, 22548, Note_on_c, 2, 57, 0
3, 22551, Note_on_c, 2, 41, 0
3, 22560, Note_on_c, 2, 65, 49
3, 22560, Note_on_c, 2, 62, 49
3, 22560, Note_on_c, 2, 59, 49
3, 22560, Note_on_c, 2, 67, 49
3, 23002, Note_on_c, 2, 67, 0
3, 23002, Note_on_c, 2, 65, 0
3, 23002, Note_on_c, 2, 62, 0
3, 23002, Note_on_c, 2, 59, 0
3, 23040, Note_on_c, 2, 64, 62
3, 23040, Note_on_c, 2, 60, 62
3, 23040, Note_on_c, 2, 55, 62
3, 23935, Note_on_c, 2, 55, 0
3, 23935, Note_on_c, 2, 60, 0
3, 23935, Note_on_c, 2, 64, 0
3, 24000, Note_on_c, 2, 65, 49
3, 24000, Note_on_c, 2, 62, 49
3, 24000, Note_on_c, 2, 60, 49
3, 24000, Note_on_c, 2, 69, 49
3, 24442, Note_on_c, 2, 69, 0
3, 24442, Note_on_c, 2, 65, 0
3, 24442, Note_on_c, 2, 62, 0
3, 24442, Note_on_c, 2, 60, 0
3, 24480, Note_on_c, 2, 65, 68
3, 24480, Note_on_c, 2, 67, 60
3, 24480, Note_on_c, 2, 59, 36
3, 24540, Note_on_c, 2, 43, 68
3, 24600, Note_on_c, 2, 53, 57
3, 24617, Note_on_c, 2, 59, 0
3, 24660, Note_on_c, 2, 55, 71
3, 24672, Note_on_c, 2, 53, 0
3, 24888, Note_on_c, 2, 65, 0
3, 24888, Note_on_c, 2, 67, 0
3, 24891, Note_on_c, 2, 55, 0
3, 24901, Note_on_c, 2, 43, 0
3, 24960, Note_on_c, 2, 64, 62
3, 24960, Note_on_c, 2, 60, 62
3, 24960, Note_on_c, 2, 55, 62
3, 25855, Note_on_c, 2, 55, 0
3, 25855, Note_on_c, 2, 60, 0
3, 25855, Note_on_c, 2, 64, 0
3, 25920, Note_on_c, 2, 65, 68
3, 25920, Note_on_c, 2, 69, 60
3, 25920, Note_on_c, 2, 60, 36
3, 25980, Note_on_c, 2, 41, 68
3, 26040, Note_on_c, 2, 53, 57
3, 26057, Note_on_c, 2, 60, 0
3, 26100, Note_on_c, 2, 57, 71
3, 26112, Note_on_c, 2, 53, 0
3, 26328, Note_on_c, 2, 65, 0
3, 26328, Note_on_c, 2, 69, 0
3, 26331, Note_on_c, 2, 57, 0
3, 26341, Note_on_c, 2, 41, 0
3, 26400, Note_on_c, 2, 65, 81
3, 26400, Note_on_c, 2, 62, 81
3, 26400, Note_on_c, 2, 59, 81
3, 26400, Note_on_c, 2, 67, 81
3, 26670, Note_on_c, 2, 67, 0
3, 26670, Note_on_c, 2, 65, 0
3, 26670, Note_on_c, 2, 62, 0
3, 26670, Note_on_c, 2, 59, 0
3, 26700, Note_on_c, 2, 65, 78
3, 26700, Note_on_c, 2, 62, 78
3, 26700, Note_on_c, 2, 59, 78
3, 26700, Note_on_c, 2, 67, 78
3, 26740, Note_on_c, 2, 67, 0
3, 26740, Note_on_c, 2, 65, 0
3, 26740, Note_on_c, 2, 62, 0
3, 26740, Note_on_c, 2, 59, 0
3, 26940, Note_on_c, 2, 48, 73
3, 27000, Note_on_c, 2, 55, 86
3, 27060, Note_on_c, 2, 64, 70
3, 27060, Note_on_c, 2, 59, 47
3, 27498, Note_on_c, 2, 55, 0
3, 27520, Note_on_c, 2, 59, 0
3, 27526, Note_on_c, 2, 64, 0
3, 27540, Note_on_c, 2, 55, 76
3, 27600, Note_on_c, 2, 62, 82
3, 27600, Note_on_c, 2, 67, 89
3, 27653, Note_on_c, 2, 62, 0
3, 27660, Note_on_c, 2, 64, 76
3, 27715, Note_on_c, 2, 64, 0
3, 27720, Note_on_c, 2, 62, 46
3, 27772, Note_on_c, 2, 62, 0
3, 27780, Note_on_c, 2, 60, 79
3, 27826, Note_on_c, 2, 60, 0
3, 27826, Note_on_c, 2, 67, 0
3, 27826, Note_on_c, 2, 55, 0
3, 27826, Note_on_c, 2, 48, 0
3, 27840, Note_on_c, 2, 65, 49
3, 27840, Note_on_c, 2, 62, 49
3, 27840, Note_on_c, 2, 60, 49
3, 27840, Note_on_c, 2, 69, 49
3, 28282, Note_on_c, 2, 69, 0
3, 28282, Note_on_c, 2, 65, 0
3, 28282, Note_on_c, 2, 62, 0
3, 28282, Note_on_c, 2, 60, 0
3, 28320, Note_on_c, 2, 65, 49
3, 28320, Note_on_c, 2, 62, 49
3, 28320, Note_on_c, 2, 59, 49
3, 28320, Note_on_c, 2, 67, 49
3, 28762, Note_on_c, 2, 67, 0
3, 28762, Note_on_c, 2, 65, 0
3, 28762, Note_on_c, 2, 62, 0
3, 28762, Note_on_c, 2, 59, 0
3, 28800, Note_on_c, 2, 71, 67
3, 28800, Note_on_c, 2, 48, 71
3, 28860, Note_on_c, 2, 67, 57
3, 28905, Note_on_c, 2, 71, 0
3, 28950, Note_on_c, 2, 64, 51
3, 28980, Note_on_c, 2, 59, 20
3, 29340, Note_on_c, 2, 55, 60
3, 29360, Note_on_c, 2, 59, 0
3, 29397, Note_on_c, 2, 64, 0
3, 29400, Note_on_c, 2, 59, 87
3, 29404, Note_on_c, 2, 67, 0
3, 29460, Note_on_c, 2, 64, 78
3, 29580, Note_on_c, 2, 67, 74
3, 29640, Note_on_c, 2, 71, 87
3, 29697, Note_on_c, 2, 67, 0
3, 29701, Note_on_c, 2, 64, 0
3, 29704, Note_on_c, 2, 71, 0
3, 29713, Note_on_c, 2, 59, 0
3, 29723, Note_on_c, 2, 48, 0
3, 29723, Note_on_c, 2, 55, 0
3, 29760, Note_on_c, 2, 65, 81
3, 29760, Note_on_c, 2, 60, 81
3, 29760, Note_on_c, 2, 57, 81
3, 30030, Note_on_c, 2, 57, 0
3, 30030, Note_on_c, 2, 60, 0
3, 30030, Note_on_c, 2, 65, 0
3, 30060, Note_on_c, 2, 65, 78
3, 30060, Note_on_c, 2, 60, 78
3, 30060, Note_on_c, 2, 57, 78
3, 30100, Note_on_c, 2, 57, 0
3, 30100, Note_on_c, 2, 60, 0
3, 30100, Note_on_c, 2, 65, 0
3, 30240, Note_on_c, 2, 65, 68
3, 30240, Note_on_c, 2, 67, 60
3, 30240, Note_on_c, 2, 59, 36
3, 30300, Note_on_c, 2, 43, 68
3, 30360, Note_on_c, 2, 53, 57
3, 30377, Note_on_c, 2, 59, 0
3, 30420, Note_on_c, 2, 55, 71
3, 30432, Note_on_c, 2, 53, 0
3, 30648, Note_on_c, 2, 65, 0
3, 30648, Note_on_c, 2, 67, 0
3, 30651, Note_on_c, 2, 55, 0
3, 30661, Note_on_c, 2, 43, 0
3, 30720, Note_on_c, 2, 72, 67
3, 30720, Note_on_c, 2, 48, 71
3, 30780, Note_on_c, 2, 67, 57
3, 30825, Note_on_c, 2, 72, 0
3, 30870, Note_on_c, 2, 64, 51
3, 30900, Note_on_c, 2, 60, 20
3, 31260, Note_on_c, 2, 55, 60
3, 31280, Note_on_c, 2, 60, 0
3, 31317, Note_on_c, 2, 64, 0
3, 31320, Note_on_c, 2, 60, 87
3, 31324, Note_on_c, 2, 67, 0
3, 31380, Note_on_c, 2, 64, 78
3, 31500, Note_on_c, 2, 67, 74
3, 31560, Note_on_c, 2, 72, 87
3, 31617, Note_on_c, 2, 67, 0
3, 31621, Note_on_c, 2, 64, 0
3, 31624, Note_on_c, 2, 72, 0
3, 31633, Note_on_c, 2, 60, 0
3, 31643, Note_on_c, 2, 48, 0
3, 31643, Note_on_c, 2, 55, 0
3, 31680, Note_on_c, 2, 43, 55
3, 31680, Note_on_c, 2, 62, 78
3, 31680, Note_on_c, 2, 57, 71
3, 31736, Note_on_c, 2, 57, 0
3, 31740, Note_on_c, 2, 59, 62
3, 31800, Note_on_c, 2, 57, 60
3, 31812, Note_on_c, 2, 59, 0
3, 31864, Note_on_c, 2, 57, 0
3, 31864, Note_on_c, 2, 55, 81
3, 32160, Note_on_c, 2, 55, 0
3, 32160, Note_on_c, 2, 62, 0
3, 32160, Note_on_c, 2, 43, 0
3, 32160, Note_on_c, 2, 60, 68
3, 32160, Note_on_c, 2, 64, 60
3, 32160, Note_on_c, 2, 57, 36
3, 32220, Note_on_c, 2, 45, 68
3, 32280, Note_on_c, 2, 48, 57
3, 32297, Note_on_c, 2, 57, 0
3, 32340, Note_on_c, 2, 52, 71
3, 32352, Note_on_c, 2, 48, 0
3, 32568, Note_on_c, 2, 60, 0
3, 32568, Note_on_c, 2, 64, 0
3, 32571, Note_on_c, 2, 52, 0
3, 32581, Note_on_c, 2, 45, 0
3, 32640, Note_on_c, 2, 53, 55
3, 32640, Note_on_c, 2, 72, 78
3, 32640, Note_on_c, 2, 67, 71
3, 32696, Note_on_c, 2, 67, 0
3, 32700, Note_on_c, 2, 69, 62
3, 32760, Note_on_c, 2, 67, 60
3, 32772, Note_on_c, 2, 69, 0
3, 32824, Note_on_c, 2, 67, 0
3, 32824, Note_on_c, 2, 65, 81
3, 33120, Note_on_c, 2, 65, 0
3, 33120, Note_on_c, 2, 72, 0
3, 33120, Note_on_c, 2, 53, 0
3, 33120, Note_on_c, 2, 65, 81
3, 33120, Note_on_c, 2, 62, 81
3, 33120, Note_on_c, 2, 60, 81
3, 33120, Note_on_c, 2, 69, 81
3, 33390, Note_on_c, 2, 69, 0
3, 33390, Note_on_c, 2, 65, 0
3, 33390, Note_on_c, 2, 62, 0
3, 33390, Note_on_c, 2, 60, 0
3, 33420, Note_on_c, 2, 65, 78
3, 33420, Note_on_c, 2, 62, 78
3, 33420, Note_on_c, 2, 60, 78
3, 33420, Note_on_c, 2, 69, 78
3, 33460, Note_on_c, 2, 69, 0
3, 33460, Note_on_c, 2, 65, 0
3, 33460, Note_on_c, 2, 62, 0
3, 33460, Note_on_c, 2, 60, 0
3, 33600, Note_on_c, 2, 65, 49
3, 33600, Note_on_c, 2, 62, 49
3, 33600, Note_on_c, 2, 60, 49
3, 33600, Note_on_c, 2, 69, 49
3, 34042, Note_on_c, 2, 69, 0
3, 34042, Note_on_c, 2, 65, 0
3, 34042, Note_on_c, 2, 62, 0
3, 34042, Note_on_c, 2, 60, 0
3, 34080, Note_on_c, 2, 65, 49
3, 34080, Note_on_c, 2, 62, 49
3, 34080, Note_on_c, 2, 59, 49
3, 34080, Note_on_c, 2, 67, 49
3, 34522, Note_on_c, 2, 67, 0
3, 34522, Note_on_c, 2, 65, 0
3, 34522, Note_on_c, 2, 62, 0
3, 34522, Note_on_c, 2, 59, 0
3, 34560, Note_on_c, 2, 65, 81
3, 34560, Note_on_c, 2, 62, 81
3, 34560, Note_on_c, 2, 59, 81
3, 34560, Note_on_c, 2, 67, 81
3, 34830, Note_on_c, 2, 67, 0
3, 34830, Note_on_c, 2, 65, 0
3, 34830, Note_on_c, 2, 62, 0
3, 34830, Note_on_c, 2, 59, 0
3, 34860, Note_on_c, 2, 65, 78
3, 34860, Note_on_c, 2, 62, 78
3, 34860, Note_on_c, 2, 59, 78
3, 34860, Note_on_c, 2, 67, 78
3, 34900, Note_on_c, 2, 67, 0
3, 34900, Note_on_c, 2, 65, 0
3, 34900, Note_on_c, 2, 62, 0
3, 34900, Note_on_c, 2, 59, 0
3, 35040, Note_on_c, 2, 64, 78
3, 35040, Note_on_c, 2, 60, 78
3, 35040, Note_on_c, 2, 55, 78
3, 35640, Note_on_c, 2, 62, 62
3, 35640, Note_on_c, 2, 67, 71
3, 35645, Note_on_c, 2, 55, 0
3, 35645, Note_on_c, 2, 64, 0
3, 35645, Note_on_c, 2, 60, 0
3, 35700, Note_on_c, 2, 64, 81
3, 35714, Note_on_c, 2, 62, 0
3, 35820, Note_on_c, 2, 62, 71
3, 35882, Note_on_c, 2, 64, 0
3, 35882, Note_on_c, 2, 60, 78
3, 35898, Note_on_c, 2, 62, 0
3, 35949, Note_on_c, 2, 60, 0
3, 35957, Note_on_c, 2, 67, 0
3, 36000, Note_on_c, 2, 71, 67
3, 36000, Note_on_c, 2, 40, 71
3, 36060, Note_on_c, 2, 67, 57
3, 36105, Note_on_c, 2, 71, 0
3, 36150, Note_on_c, 2, 64, 51
3, 36180, Note_on_c, 2, 59, 20
3, 36540, Note_on_c, 2, 55, 60
3, 36560, Note_on_c, 2, 59, 0
3, 36597, Note_on_c, 2, 64, 0
3, 36600, Note_on_c, 2, 59, 87
3, 36604, Note_on_c, 2, 67, 0
3, 36660, Note_on_c, 2, 64, 78
3, 36780, Note_on_c, 2, 67, 74
3, 36840, Note_on_c, 2, 71, 87
3, 36897, Note_on_c, 2, 67, 0
3, 36901, Note_on_c, 2, 64, 0
3, 36904, Note_on_c, 2, 71, 0
3, 36913, Note_on_c, 2, 59, 0
3, 36923, Note_on_c, 2, 40, 0
3, 36923, Note_on_c, 2, 55, 0
3, 36960, Note_on_c, 2, 65, 49
3, 36960, Note_on_c, 2, 62, 49
3, 36960, Note_on_c, 2, 58, 49
3, 36960, Note_on_c, 2, 67, 49
3, 37402, Note_on_c, 2, 67, 0
3, 37402, Note_on_c, 2, 65, 0
3, 37402, Note_on_c, 2, 62, 0
3, 37402, Note_on_c, 2, 58, 0
3, 37440, Note_on_c, 2, 64, 68
3, 37440, Note_on_c, 2, 67, 60
3, 37440, Note_on_c, 2, 58, 36
3, 37500, Note_on_c, 2, 48, 68
3, 37560, Note_on_c, 2, 52, 57
3, 37577, Note_on_c, 2, 58, 0
3, 37620, Note_on_c, 2, 55, 71
3, 37632, Note_on_c, 2, 52, 0
3, 37848, Note_on_c, 2, 64, 0
3, 37848, Note_on_c, 2, 67, 0
3, 37851, Note_on_c, 2, 55, 0
3, 37861, Note_on_c, 2, 48, 0
3, 37980, Note_on_c, 2, 53, 73
3, 38040, Note_on_c, 2, 60, 86
3, 38100, Note_on_c, 2, 69, 70
3, 38100, Note_on_c, 2, 65, 47
3, 38538, Note_on_c, 2, 60, 0
3, 38560, Note_on_c, 2, 65, 0
3, 38566, Note_on_c, 2, 69, 0
3, 38580, Note_on_c, 2, 60, 76
3, 38640, Note_on_c, 2, 67, 82
3, 38640, Note_on_c, 2, 72, 89
3, 38693, Note_on_c, 2, 67, 0
3, 38700, Note_on_c, 2, 69, 76
3, 38755, Note_on_c, 2, 69, 0
3, 38760, Note_on_c, 2, 67, 46
3, 38812, Note_on_c, 2, 67, 0
3, 38820, Note_on_c, 2, 65, 79
3, 38866, Note_on_c, 2, 65, 0
3, 38866, Note_on_c, 2, 72, 0
3, 38866, Note_on_c, 2, 60, 0
3, 38866, Note_on_c, 2, 53, 0
3, 38880, Note_on_c, 2, 64, 81
3, 38880, Note_on_c, 2, 60, 81
3, 38880, Note_on_c, 2, 55, 81
3, 39150, Note_on_c, 2, 55, 0
3, 39150, Note_on_c, 2, 60, 0
3, 39150, Note_on_c, 2, 64, 0
3, 39180, Note_on_c, 2, 64, 78
3, 39180, Note_on_c, 2, 60, 78
3, 39180, Note_on_c, 2, 55, 78
3, 39220, Note_on_c, 2, 55, 0
3, 39220, Note_on_c, 2, 60, 0
3, 39220, Note_on_c, 2, 64, 0
3, 39360, Note_on_c, 2, 64, 68
3, 39360, Note_on_c, 2, 60, 68
3, 39360, Note_on_c, 2, 55, 68
3, 39806, Note_on_c, 2, 55, 0
3, 39806, Note_on_c, 2, 60, 0
3, 39806, Note_on_c, 2, 64, 0
3, 39840, Note_on_c, 2, 64, 62
3, 39840, Note_on_c, 2, 59, 62
3, 39840, Note_on_c, 2, 55, 62
3, 40735, Note_on_c, 2, 55, 0
3, 40735, Note_on_c, 2, 59, 0
3, 40735, Note_on_c, 2, 64, 0
3, 40800, Note_on_c, 2, 65, 81
3, 40800, Note_on_c, 2, 62, 81
3, 40800, Note_on_c, 2, 58, 81
3, 40800, Note_on_c, 2, 67, 81
3, 41070, Note_on_c, 2, 67, 0
3, 41070, Note_on_c, 2, 65, 0
3, 41070, Note_on_c, 2, 62, 0
3, 41070, Note_on_c, 2, 58, 0
3, 41100, Note_on_c, 2, 65, 78
3, 41100, Note_on_c, 2, 62, 78
3, 41100, Note_on_c, 2, 58, 78
3, 41100, Note_on_c, 2, 67, 78
3, 41140, Note_on_c, 2, 67, 0
3, 41140, Note_on_c, 2, 65, 0
3, 41140, Note_on_c, 2, 62, 0
3, 41140, Note_on_c, 2, 58, 0
3, 41280, Note_on_c, 2, 64, 49
3, 41280, Note_on_c, 2, 60, 49
3, 41280, Note_on_c, 2, 58, 49
3, 41280, Note_on_c, 2, 67, 49
3, 41722, Note_on_c, 2, 67, 0
3, 41722, Note_on_c, 2, 64, 0
3, 41722, Note_on_c, 2, 60, 0
3, 41722, Note_on_c, 2, 58, 0
3, 41760, Note_on_c, 2, 65, 78
3, 41760, Note_on_c, 2, 60, 78
3, 41760, Note_on_c, 2, 57, 78
3, 42360, Note_on_c, 2, 67, 62
3, 42360, Note_on_c, 2, 72, 71
3, 42365, Note_on_c, 2, 57, 0
3, 42365, Note_on_c, 2, 65, 0
3, 42365, Note_on_c, 2, 60, 0
3, 42420, Note_on_c, 2, 69, 81
3, 42434, Note_on_c, 2, 67, 0
3, 42540, Note_on_c, 2, 67, 71
3, 42602, Note_on_c, 2, 69, 0
3, 42602, Note_on_c, 2, 65, 78
3, 42618, Note_on_c, 2, 67, 0
3, 42669, Note_on_c, 2, 65, 0
3, 42677, Note_on_c, 2, 72, 0
3, 42780, Note_on_c, 2, 41, 81
3, 42840, Note_on_c, 2, 57, 71
3, 42900, Note_on_c, 2, 60, 60
3, 42900, Note_on_c, 2, 65, 78
3, 43176, Note_on_c, 2, 65, 0
3, 43176, Note_on_c, 2, 60, 0
3, 43188, Note_on_c, 2, 57, 0
3, 43191, Note_on_c, 2, 41, 0
3, 43200, Note_on_c, 2, 65, 81
3, 43200, Note_on_c, 2, 62, 81
3, 43200, Note_on_c, 2, 59, 81
3, 43200, Note_on_c, 2, 67, 81
3, 43470, Note_on_c, 2, 67, 0
3, 43470, Note_on_c, 2, 65, 0
3, 43470, Note_on_c, 2, 62, 0
3, 43470, Note_on_c, 2, 59, 0
3, 43500, Note_on_c, 2, 65, 78
3, 43500, Note_on_c, 2, 62, 78
3, 43500, Note_on_c, 2, 59, 78
3, 43500, Note_on_c, 2, 67, 78
3, 43540, Note_on_c, 2, 67, 0
3, 43540, Note_on_c, 2, 65, 0
3, 43540, Note_on_c, 2, 62, 0
3, 43540, Note_on_c, 2, 59, 0
3, 43680, Note_on_c, 2, 64, 68
3, 43680, Note_on_c, 2, 60, 68
3, 43680, Note_on_c, 2, 55, 68
3, 43725, Note_on_c, 2, 55, 0
3, 43725, Note_on_c, 2, 60, 0
3, 43725, Note_on_c, 2, 64, 0
3, 43800, Note_on_c, 2, 64, 81
3, 43800, Note_on_c, 2, 60, 81
3, 43800, Note_on_c, 2, 55, 81
3, 44220, Note_on_c, 2, 48, 74
3, 44255, Note_on_c, 2, 55, 0
3, 44255, Note_on_c, 2, 64, 0
3, 44255, Note_on_c, 2, 60, 0
3, 44280, Note_on_c, 2, 55, 78
3, 44340, Note_on_c, 2, 64, 62
3, 44460, Note_on_c, 2, 60, 45
3, 44632, Note_on_c, 2, 60, 0
3, 44632, Note_on_c, 2, 48, 0
3, 44632, Note_on_c, 2, 55, 0
3, 44632, Note_on_c, 2, 64, 0
3, 44640, Note_on_c, 2, 65, 49
3, 44640, Note_on_c, 2, 62, 49
3, 44640, Note_on_c, 2, 60, 49
3, 44640, Note_on_c, 2, 69, 49
3, 45082, Note_on_c, 2, 69, 0
3, 45082, Note_on_c, 2, 65, 0
3, 45082, Note_on_c, 2, 62, 0
3, 45082, Note_on_c, 2, 60, 0
3, 45120, Note_on_c, 2, 65, 81
3, 45120, Note_on_c, 2, 62, 81
3, 45120, Note_on_c, 2, 59, 81
3, 45120, Note_on_c, 2, 67, 81
3, 45390, Note_on_c, 2, 67, 0
3, 45390, Note_on_c, 2, 65, 0
3, 45390, Note_on_c, 2, 62, 0
3, 45390, Note_on_c, 2, 59, 0
3, 45420, Note_on_c, 2, 65, 78
3, 45420, Note_on_c, 2, 62, 78
3, 45420, Note_on_c, 2, 59, 78
3, 45420, Note_on_c, 2, 67, 78
3, 45460, Note_on_c, 2, 67, 0
3, 45460, Note_on_c, 2, 65, 0
3, 45460, Note_on_c, 2, 62, 0
3, 45460, Note_on_c, 2, 59, 0
3, 45600, Note_on_c, 2, 64, 62
3, 45600, Note_on_c, 2, 60, 62
3, 45600, Note_on_c, 2, 55, 62
3, 46495, Note_on_c, 2, 55, 0
3, 46495, Note_on_c, 2, 60, 0
3, 46495, Note_on_c, 2, 64, 0
3, 46560, Note_on_c, 2, 71, 67
3, 46560, Note_on_c, 2, 40, 71
3, 46620, Note_on_c, 2, 67, 57
3, 46665, Note_on_c, 2, 71, 0
3, 46710, Note_on_c, 2, 64, 51
3, 46740, Note_on_c, 2, 59, 20
3, 47100, Note_on_c, 2, 55, 60
3, 47120, Note_on_c, 2, 59, 0
3, 47157, Note_on_c, 2, 64, 0
3, 47160, Note_on_c, 2, 59, 87
3, 47164, Note_on_c, 2, 67, 0
3, 47220, Note_on_c, 2, 64, 78
3, 47340, Note_on_c, 2, 67, 74
3, 47400, Note_on_c, 2, 71, 87
3, 47457, Note_on_c, 2, 67, 0
3, 47461, Note_on_c, 2, 64, 0
3, 47464, Note_on_c, 2, 71, 0
3, 47473, Note_on_c, 2, 59, 0
3, 47483, Note_on_c, 2, 40, 0
3, 47483, Note_on_c, 2, 55, 0
3, 47520, Note_on_c, 2, 62, 81
3, 47520, Note_on_c, 2, 59, 81
3, 47520, Note_on_c, 2, 55, 81
3, 47790, Note_on_c, 2, 55, 0
3, 47790, Note_on_c, 2, 59, 0
3, 47790, Note_on_c, 2, 62, 0
3, 47820, Note_on_c, 2, 62, 78
3, 47820, Note_on_c, 2, 59, 78
3, 47820, Note_on_c, 2, 55, 78
3, 47860, Note_on_c, 2, 55, 0
3, 47860, Note_on_c, 2, 59, 0
3, 47860, Note_on_c, 2, 62, 0
3, 48000, Note_on_c, 2, 64, 81
3, 48000, Note_on_c, 2, 62, 81
3, 48000, Note_on_c, 2, 59, 81
3, 48000, Note_on_c, 2, 67, 81
3, 48270, Note_on_c, 2, 67, 0
3, 48270, Note_on_c, 2, 64, 0
3, 48270, Note_on_c, 2, 62, 0
3, 48270, Note_on_c, 2, 59, 0
3, 48480, Control_c, 2, 64, 0
3, 48480, End_track
4, 0, Start_track
4, 0, MIDI_port, 0
4, 0, Title_t, "Guitar"
4, 0, Control_c, 3, 121, 0
4, 0, Control_c, 3, 123, 0
4, 0, Control_c, 3, 91, 40
4, 0, Control_c, 3, 93, 0
4, 0, Control_c, 3, 64, 0
4, 137, Program_c, 3, 26
4, 138, Control_c, 3, 7, 84
4, 138, Control_c, 3, 10, 74
4, 960, Note_on_c, 3, 60, 52
4, 960, Note_on_c, 3, 64, 51
4, 960, Note_on_c, 3, 48, 62
4, 1003, Note_on_c, 3, 60, 0
4, 1012, Note_on_c, 3, 48, 0
4, 1012, Note_on_c, 3, 64, 0
4, 1080, Note_on_c, 3, 60, 52
4, 1080, Note_on_c, 3, 64, 53
4, 1123, Note_on_c, 3, 60, 0
4, 1136, Note_on_c, 3, 64, 0
4, 1260, Note_on_c, 3, 64, 65
4, 1260, Note_on_c, 3, 60, 52
4, 1299, Note_on_c, 3, 60, 0
4, 1306, Note_on_c, 3, 64, 0
4, 1380, Note_on_c, 3, 60, 56
4, 1380, Note_on_c, 3, 64, 71
4, 1414, Note_on_c, 3, 60, 0
4, 1424, Note_on_c, 3, 64, 0
4, 1500, Note_on_c, 3, 60, 67
4, 1500, Note_on_c, 3, 64, 62
4, 1528, Note_on_c, 3, 60, 0
4, 1541, Note_on_c, 3, 64, 0
4, 1620, Note_on_c, 3, 48, 71
4, 1680, Note_on_c, 3, 60, 42
4, 1680, Note_on_c, 3, 64, 44
4, 1691, Note_on_c, 3, 48, 0
4, 1830, Note_on_c, 3, 60, 0
4, 1836, Note_on_c, 3, 64, 0
4, 1920, Note_on_c, 3, 64, 65
4, 1920, Note_on_c, 3, 60, 45
4, 1950, Note_on_c, 3, 60, 0
4, 1957, Note_on_c, 3, 64, 0
4, 2040, Note_on_c, 3, 64, 65
4, 2040, Note_on_c, 3, 60, 56
4, 2081, Note_on_c, 3, 60, 0
4, 2095, Note_on_c, 3, 64, 0
4, 2160, Note_on_c, 3, 48, 65
4, 2220, Note_on_c, 3, 64, 68
4, 2220, Note_on_c, 3, 60, 56
4, 2227, Note_on_c, 3, 48, 0
4, 2260, Note_on_c, 3, 60, 0
4, 2274, Note_on_c, 3, 64, 0
4, 2400, Note_on_c, 3, 60, 60
4, 2400, Note_on_c, 3, 64, 62
4, 2453, Note_on_c, 3, 60, 0
4, 2454, Note_on_c, 3, 64, 0
4, 2520, Note_on_c, 3, 60, 60
4, 2520, Note_on_c, 3, 64, 71
4, 2596, Note_on_c, 3, 60, 0
4, 2600, Note_on_c, 3, 64, 0
4, 2640, Note_on_c, 3, 62, 77
4, 2640, Note_on_c, 3, 67, 55
4, 2861, Note_on_c, 3, 62, 0
4, 2862, Note_on_c, 3, 67, 0
4, 2880, Note_on_c, 3, 60, 45
4, 2880, Note_on_c, 3, 64, 60
4, 2932, Note_on_c, 3, 64, 0
4, 2933, Note_on_c, 3, 60, 0
4, 3000, Note_on_c, 3, 64, 81
4, 3000, Note_on_c, 3, 60, 36
4, 3041, Note_on_c, 3, 64, 0
4, 3054, Note_on_c, 3, 60, 0
4, 3180, Note_on_c, 3, 48, 60
4, 3241, Note_on_c, 3, 48, 0
4, 3241, Note_on_c, 3, 55, 5
4, 3264, Note_on_c, 3, 55, 0
4, 3300, Note_on_c, 3, 64, 71
4, 3300, Note_on_c, 3, 60, 30
4, 3360, Note_on_c, 3, 60, 0
4, 3360, Note_on_c, 3, 64, 0
4, 3420, Note_on_c, 3, 64, 68
4, 3420, Note_on_c, 3, 60, 63
4, 3457, Note_on_c, 3, 60, 0
4, 3461, Note_on_c, 3, 64, 0
4, 3600, Note_on_c, 3, 52, 40
4, 3600, Note_on_c, 3, 60, 45
4, 3774, Note_on_c, 3, 60, 0
4, 3782, Note_on_c, 3, 52, 0
4, 3840, Note_on_c, 3, 64, 71
4, 3840, Note_on_c, 3, 59, 52
4, 3885, Note_on_c, 3, 59, 0
4, 3887, Note_on_c, 3, 64, 0
4, 3960, Note_on_c, 3, 59, 49
4, 3960, Note_on_c, 3, 64, 53
4, 4007, Note_on_c, 3, 59, 0
4, 4016, Note_on_c, 3, 64, 0
4, 4080, Note_on_c, 3, 40, 68
4, 4140, Note_on_c, 3, 40, 0
4, 4140, Note_on_c, 3, 64, 65
4, 4140, Note_on_c, 3, 59, 45
4, 4189, Note_on_c, 3, 59, 0
4, 4192, Note_on_c, 3, 64, 0
4, 4260, Note_on_c, 3, 59, 42
4, 4260, Note_on_c, 3, 64, 60
4, 4299, Note_on_c, 3, 59, 0
4, 4320, Note_on_c, 3, 64, 0
4, 4380, Note_on_c, 3, 59, 42
4, 4380, Note_on_c, 3, 64, 51
4, 4422, Note_on_c, 3, 59, 0
4, 4425, Note_on_c, 3, 64, 0
4, 4500, Note_on_c, 3, 55, 55
4, 4560, Note_on_c, 3, 55, 0
4, 4560, Note_on_c, 3, 64, 60
4, 4560, Note_on_c, 3, 59, 45
4, 4686, Note_on_c, 3, 59, 0
4, 4698, Note_on_c, 3, 64, 0
4, 4860, Note_on_c, 3, 43, 87
4, 4920, Note_on_c, 3, 55, 65
4, 4943, Note_on_c, 3, 43, 0
4, 4980, Note_on_c, 3, 58, 36
4, 4980, Note_on_c, 3, 65, 60
4, 5051, Note_on_c, 3, 55, 0
4, 5183, Note_on_c, 3, 58, 0
4, 5185, Note_on_c, 3, 65, 0
4, 5340, Note_on_c, 3, 48, 47
4, 5402, Note_on_c, 3, 48, 0
4, 5402, Note_on_c, 3, 55, 65
4, 5448, Note_on_c, 3, 55, 0
4, 5460, Note_on_c, 3, 64, 60
4, 5460, Note_on_c, 3, 58, 42
4, 5695, Note_on_c, 3, 58, 0
4, 5698, Note_on_c, 3, 64, 0
4, 5760, Note_on_c, 3, 60, 45
4, 5760, Note_on_c, 3, 65, 60
4, 5812, Note_on_c, 3, 65, 0
4, 5813, Note_on_c, 3, 60, 0
4, 5880, Note_on_c, 3, 65, 81
4, 5880, Note_on_c, 3, 60, 36
4, 5921, Note_on_c, 3, 65, 0
4, 5934, Note_on_c, 3, 60, 0
4, 6060, Note_on_c, 3, 41, 60
4, 6121, Note_on_c, 3, 41, 0
4, 6121, Note_on_c, 3, 57, 5
4, 6144, Note_on_c, 3, 57, 0
4, 6180, Note_on_c, 3, 65, 71
4, 6180, Note_on_c, 3, 60, 30
4, 6240, Note_on_c, 3, 60, 0
4, 6240, Note_on_c, 3, 65, 0
4, 6300, Note_on_c, 3, 65, 68
4, 6300, Note_on_c, 3, 60, 63
4, 6337, Note_on_c, 3, 60, 0
4, 6341, Note_on_c, 3, 65, 0
4, 6480, Note_on_c, 3, 53, 40
4, 6480, Note_on_c, 3, 60, 45
4, 6654, Note_on_c, 3, 60, 0
4, 6662, Note_on_c, 3, 53, 0
4, 6720, Note_on_c, 3, 60, 52
4, 6720, Note_on_c, 3, 64, 51
4, 6720, Note_on_c, 3, 48, 62
4, 6763, Note_on_c, 3, 60, 0
4, 6772, Note_on_c, 3, 48, 0
4, 6772, Note_on_c, 3, 64, 0
4, 6840, Note_on_c, 3, 60, 52
4, 6840, Note_on_c, 3, 64, 53
4, 6883, Note_on_c, 3, 60, 0
4, 6896, Note_on_c, 3, 64, 0
4, 7020, Note_on_c, 3, 64, 65
4, 7020, Note_on_c, 3, 60, 52
4, 7059, Note_on_c, 3, 60, 0
4, 7066, Note_on_c, 3, 64, 0
4, 7140, Note_on_c, 3, 60, 56
4, 7140, Note_on_c, 3, 64, 71
4, 7174, Note_on_c, 3, 60, 0
4, 7184, Note_on_c, 3, 64, 0
4, 7260, Note_on_c, 3, 60, 67
4, 7260, Note_on_c, 3, 64, 62
4, 7288, Note_on_c, 3, 60, 0
4, 7301, Note_on_c, 3, 64, 0
4, 7380, Note_on_c, 3, 48, 71
4, 7440, Note_on_c, 3, 60, 42
4, 7440, Note_on_c, 3, 64, 44
4, 7451, Note_on_c, 3, 48, 0
4, 7590, Note_on_c, 3, 60, 0
4, 7596, Note_on_c, 3, 64, 0
4, 7680, Note_on_c, 3, 59, 49
4, 7680, Note_on_c, 3, 64, 71
4, 7724, Note_on_c, 3, 59, 0
4, 7728, Note_on_c, 3, 64, 0
4, 7800, Note_on_c, 3, 59, 45
4, 7800, Note_on_c, 3, 64, 71
4, 7853, Note_on_c, 3, 64, 0
4, 7888, Note_on_c, 3, 59, 0
4, 8100, Note_on_c, 3, 59, 52
4, 8100, Note_on_c, 3, 64, 60
4, 8131, Note_on_c, 3, 59, 0
4, 8136, Note_on_c, 3, 64, 0
4, 8220, Note_on_c, 3, 59, 56
4, 8220, Note_on_c, 3, 64, 65
4, 8251, Note_on_c, 3, 59, 0
4, 8265, Note_on_c, 3, 64, 0
4, 8340, Note_on_c, 3, 40, 53
4, 8389, Note_on_c, 3, 40, 0
4, 8400, Note_on_c, 3, 64, 49
4, 8400, Note_on_c, 3, 59, 42
4, 8518, Note_on_c, 3, 59, 0
4, 8524, Note_on_c, 3, 64, 0
4, 8640, Note_on_c, 3, 43, 53
4, 8750, Note_on_c, 3, 43, 0
4, 8760, Note_on_c, 3, 65, 74
4, 8760, Note_on_c, 3, 58, 60
4, 8850, Note_on_c, 3, 58, 0
4, 8853, Note_on_c, 3, 65, 0
4, 8940, Note_on_c, 3, 65, 65
4, 8940, Note_on_c, 3, 58, 60
4, 8989, Note_on_c, 3, 58, 0
4, 8996, Note_on_c, 3, 65, 0
4, 9180, Note_on_c, 3, 64, 71
4, 9180, Note_on_c, 3, 58, 60
4, 9219, Note_on_c, 3, 58, 0
4, 9226, Note_on_c, 3, 64, 0
4, 9360, Note_on_c, 3, 64, 74
4, 9360, Note_on_c, 3, 58, 52
4, 9548, Note_on_c, 3, 58, 0
4, 9555, Note_on_c, 3, 64, 0
4, 9600, Note_on_c, 3, 65, 62
4, 9600, Note_on_c, 3, 60, 52
4, 9644, Note_on_c, 3, 60, 0
4, 9656, Note_on_c, 3, 65, 0
4, 9720, Note_on_c, 3, 60, 52
4, 9720, Note_on_c, 3, 65, 55
4, 9771, Note_on_c, 3, 60, 0
4, 9773, Note_on_c, 3, 65, 0
4, 9840, Note_on_c, 3, 57, 55
4, 9900, Note_on_c, 3, 60, 56
4, 9900, Note_on_c, 3, 65, 49
4, 9904, Note_on_c, 3, 57, 0
4, 9949, Note_on_c, 3, 65, 0
4, 9953, Note_on_c, 3, 60, 0
4, 10020, Note_on_c, 3, 60, 63
4, 10020, Note_on_c, 3, 65, 62
4, 10068, Note_on_c, 3, 60, 0
4, 10080, Note_on_c, 3, 65, 0
4, 10140, Note_on_c, 3, 65, 60
4, 10140, Note_on_c, 3, 60, 45
4, 10177, Note_on_c, 3, 60, 0
4, 10185, Note_on_c, 3, 65, 0
4, 10260, Note_on_c, 3, 57, 74
4, 10307, Note_on_c, 3, 57, 0
4, 10320, Note_on_c, 3, 65, 62
4, 10320, Note_on_c, 3, 60, 49
4, 10489, Note_on_c, 3, 60, 0
4, 10497, Note_on_c, 3, 65, 0
4, 10500, Note_on_c, 3, 57, 53
4, 10525, Note_on_c, 3, 57, 0
4, 10560, Note_on_c, 3, 60, 52
4, 10560, Note_on_c, 3, 65, 60
4, 10608, Note_on_c, 3, 60, 0
4, 10611, Note_on_c, 3, 65, 0
4, 10680, Note_on_c, 3, 60, 56
4, 10680, Note_on_c, 3, 65, 60
4, 10758, Note_on_c, 3, 60, 0
4, 10770, Note_on_c, 3, 65, 0
4, 10860, Note_on_c, 3, 41, 60
4, 10920, Note_on_c, 3, 57, 25
4, 10936, Note_on_c, 3, 41, 0
4, 10955, Note_on_c, 3, 57, 0
4, 11100, Note_on_c, 3, 59, 72
4, 11100, Note_on_c, 3, 65, 71
4, 11126, Note_on_c, 3, 59, 0
4, 11135, Note_on_c, 3, 65, 0
4, 11220, Note_on_c, 3, 43, 60
4, 11242, Note_on_c, 3, 43, 0
4, 11280, Note_on_c, 3, 65, 78
4, 11280, Note_on_c, 3, 59, 60
4, 11492, Note_on_c, 3, 59, 0
4, 11498, Note_on_c, 3, 65, 0
4, 11520, Note_on_c, 3, 60, 42
4, 11520, Note_on_c, 3, 64, 62
4, 11520, Note_on_c, 3, 67, 47
4, 11562, Note_on_c, 3, 67, 0
4, 11564, Note_on_c, 3, 60, 0
4, 11572, Note_on_c, 3, 64, 0
4, 11640, Note_on_c, 3, 64, 55
4, 11640, Note_on_c, 3, 67, 57
4, 11640, Note_on_c, 3, 60, 34
4, 11694, Note_on_c, 3, 67, 0
4, 11698, Note_on_c, 3, 60, 0
4, 11700, Note_on_c, 3, 64, 0
4, 11820, Note_on_c, 3, 48, 68
4, 11880, Note_on_c, 3, 48, 0
4, 11880, Note_on_c, 3, 55, 23
4, 11907, Note_on_c, 3, 55, 0
4, 11940, Note_on_c, 3, 67, 62
4, 11940, Note_on_c, 3, 60, 36
4, 11940, Note_on_c, 3, 64, 60
4, 11978, Note_on_c, 3, 60, 0
4, 11982, Note_on_c, 3, 64, 0
4, 11987, Note_on_c, 3, 67, 0
4, 12060, Note_on_c, 3, 64, 60
4, 12060, Note_on_c, 3, 67, 74
4, 12060, Note_on_c, 3, 60, 45
4, 12095, Note_on_c, 3, 60, 0
4, 12095, Note_on_c, 3, 67, 0
4, 12095, Note_on_c, 3, 64, 0
4, 12180, Note_on_c, 3, 48, 78
4, 12219, Note_on_c, 3, 48, 0
4, 12240, Note_on_c, 3, 64, 68
4, 12240, Note_on_c, 3, 60, 32
4, 12384, Note_on_c, 3, 60, 0
4, 12387, Note_on_c, 3, 64, 0
4, 12480, Note_on_c, 3, 60, 52
4, 12480, Note_on_c, 3, 65, 60
4, 12528, Note_on_c, 3, 60, 0
4, 12531, Note_on_c, 3, 65, 0
4, 12600, Note_on_c, 3, 60, 56
4, 12600, Note_on_c, 3, 65, 60
4, 12678, Note_on_c, 3, 60, 0
4, 12690, Note_on_c, 3, 65, 0
4, 12780, Note_on_c, 3, 50, 60
4, 12840, Note_on_c, 3, 57, 25
4, 12856, Note_on_c, 3, 50, 0
4, 12875, Note_on_c, 3, 57, 0
4, 13020, Note_on_c, 3, 59, 72
4, 13020, Note_on_c, 3, 65, 71
4, 13046, Note_on_c, 3, 59, 0
4, 13055, Note_on_c, 3, 65, 0
4, 13140, Note_on_c, 3, 43, 60
4, 13162, Note_on_c, 3, 43, 0
4, 13200, Note_on_c, 3, 65, 78
4, 13200, Note_on_c, 3, 59, 60
4, 13412, Note_on_c, 3, 59, 0
4, 13418, Note_on_c, 3, 65, 0
4, 13440, Note_on_c, 3, 48, 53
4, 13550, Note_on_c, 3, 48, 0
4, 13560, Note_on_c, 3, 64, 74
4, 13560, Note_on_c, 3, 60, 60
4, 13650, Note_on_c, 3, 60, 0
4, 13653, Note_on_c, 3, 64, 0
4, 13740, Note_on_c, 3, 64, 65
4, 13740, Note_on_c, 3, 60, 60
4, 13789, Note_on_c, 3, 60, 0
4, 13796, Note_on_c, 3, 64, 0
4, 13980, Note_on_c, 3, 59, 56
4, 13980, Note_on_c, 3, 65, 68
4, 14011, Note_on_c, 3, 59, 0
4, 14016, Note_on_c, 3, 65, 0
4, 14100, Note_on_c, 3, 43, 78
4, 14154, Note_on_c, 3, 43, 0
4, 14160, Note_on_c, 3, 65, 62
4, 14160, Note_on_c, 3, 59, 42
4, 14388, Note_on_c, 3, 59, 0
4, 14393, Note_on_c, 3, 65, 0
4, 14400, Note_on_c, 3, 64, 71
4, 14400, Note_on_c, 3, 60, 60
4, 14450, Note_on_c, 3, 60, 0
4, 14463, Note_on_c, 3, 64, 0
4, 14520, Note_on_c, 3, 64, 71
4, 14520, Note_on_c, 3, 60, 63
4, 14560, Note_on_c, 3, 60, 0
4, 14563, Note_on_c, 3, 64, 0
4, 14640, Note_on_c, 3, 48, 65
4, 14676, Note_on_c, 3, 48, 0
4, 14700, Note_on_c, 3, 60, 63
4, 14700, Note_on_c, 3, 64, 68
4, 14729, Note_on_c, 3, 60, 0
4, 14732, Note_on_c, 3, 64, 0
4, 14820, Note_on_c, 3, 60, 56
4, 14820, Note_on_c, 3, 64, 60
4, 14848, Note_on_c, 3, 60, 0
4, 14857, Note_on_c, 3, 64, 0
4, 14940, Note_on_c, 3, 64, 62
4, 14940, Note_on_c, 3, 60, 56
4, 14968, Note_on_c, 3, 60, 0
4, 14978, Note_on_c, 3, 64, 0
4, 15060, Note_on_c, 3, 48, 84
4, 15120, Note_on_c, 3, 64, 60
4, 15120, Note_on_c, 3, 60, 49
4, 15132, Note_on_c, 3, 48, 0
4, 15223, Note_on_c, 3, 60, 0
4, 15237, Note_on_c, 3, 64, 0
4, 15360, Note_on_c, 3, 59, 42
4, 15360, Note_on_c, 3, 64, 62
4, 15360, Note_on_c, 3, 67, 47
4, 15402, Note_on_c, 3, 67, 0
4, 15404, Note_on_c, 3, 59, 0
4, 15412, Note_on_c, 3, 64, 0
4, 15480, Note_on_c, 3, 64, 55
4, 15480, Note_on_c, 3, 67, 57
4, 15480, Note_on_c, 3, 59, 34
4, 15534, Note_on_c, 3, 67, 0
4, 15538, Note_on_c, 3, 59, 0
4, 15540, Note_on_c, 3, 64, 0
4, 15660, Note_on_c, 3, 40, 68
4, 15720, Note_on_c, 3, 40, 0
4, 15720, Note_on_c, 3, 55, 23
4, 15747, Note_on_c, 3, 55, 0
4, 15780, Note_on_c, 3, 67, 62
4, 15780, Note_on_c, 3, 59, 36
4, 15780, Note_on_c, 3, 64, 60
4, 15818, Note_on_c, 3, 59, 0
4, 15822, Note_on_c, 3, 64, 0
4, 15827, Note_on_c, 3, 67, 0
4, 15900, Note_on_c, 3, 64, 60
4, 15900, Note_on_c, 3, 67, 74
4, 15900, Note_on_c, 3, 59, 45
4, 15935, Note_on_c, 3, 59, 0
4, 15935, Note_on_c, 3, 67, 0
4, 15935, Note_on_c, 3, 64, 0
4, 16020, Note_on_c, 3, 40, 78
4, 16059, Note_on_c, 3, 40, 0
4, 16080, Note_on_c, 3, 64, 68
4, 16080, Note_on_c, 3, 59, 32
4, 16224, Note_on_c, 3, 59, 0
4, 16227, Note_on_c, 3, 64, 0
4, 16320, Note_on_c, 3, 58, 52
4, 16320, Note_on_c, 3, 65, 60
4, 16368, Note_on_c, 3, 58, 0
4, 16371, Note_on_c, 3, 65, 0
4, 16440, Note_on_c, 3, 58, 56
4, 16440, Note_on_c, 3, 65, 60
4, 16518, Note_on_c, 3, 58, 0
4, 16530, Note_on_c, 3, 65, 0
4, 16620, Note_on_c, 3, 43, 60
4, 16680, Note_on_c, 3, 55, 25
4, 16696, Note_on_c, 3, 43, 0
4, 16715, Note_on_c, 3, 55, 0
4, 16860, Note_on_c, 3, 64, 81
4, 16860, Note_on_c, 3, 58, 63
4, 16892, Note_on_c, 3, 58, 0
4, 16899, Note_on_c, 3, 64, 0
4, 16980, Note_on_c, 3, 48, 87
4, 17040, Note_on_c, 3, 64, 71
4, 17040, Note_on_c, 3, 58, 56
4, 17050, Note_on_c, 3, 48, 0
4, 17184, Note_on_c, 3, 58, 0
4, 17191, Note_on_c, 3, 64, 0
4, 17280, Note_on_c, 3, 60, 45
4, 17280, Note_on_c, 3, 65, 60
4, 17332, Note_on_c, 3, 65, 0
4, 17333, Note_on_c, 3, 60, 0
4, 17400, Note_on_c, 3, 65, 81
4, 17400, Note_on_c, 3, 60, 36
4, 17441, Note_on_c, 3, 65, 0
4, 17454, Note_on_c, 3, 60, 0
4, 17580, Note_on_c, 3, 41, 60
4, 17641, Note_on_c, 3, 41, 0
4, 17641, Note_on_c, 3, 57, 45
4, 17664, Note_on_c, 3, 57, 0
4, 17700, Note_on_c, 3, 65, 71
4, 17700, Note_on_c, 3, 60, 30
4, 17760, Note_on_c, 3, 60, 0
4, 17760, Note_on_c, 3, 65, 0
4, 17820, Note_on_c, 3, 65, 68
4, 17820, Note_on_c, 3, 60, 63
4, 17857, Note_on_c, 3, 60, 0
4, 17861, Note_on_c, 3, 65, 0
4, 18000, Note_on_c, 3, 53, 40
4, 18000, Note_on_c, 3, 60, 45
4, 18174, Note_on_c, 3, 60, 0
4, 18182, Note_on_c, 3, 53, 0
4, 18240, Note_on_c, 3, 60, 42
4, 18240, Note_on_c, 3, 64, 62
4, 18240, Note_on_c, 3, 67, 47
4, 18282, Note_on_c, 3, 67, 0
4, 18284, Note_on_c, 3, 60, 0
4, 18292, Note_on_c, 3, 64, 0
4, 18360, Note_on_c, 3, 64, 55
4, 18360, Note_on_c, 3, 67, 57
4, 18360, Note_on_c, 3, 60, 34
4, 18414, Note_on_c, 3, 67, 0
4, 18418, Note_on_c, 3, 60, 0
4, 18420, Note_on_c, 3, 64, 0
4, 18540, Note_on_c, 3, 48, 68
4, 18600, Note_on_c, 3, 48, 0
4, 18600, Note_on_c, 3, 55, 23
4, 18627, Note_on_c, 3, 55, 0
4, 18660, Note_on_c, 3, 67, 62
4, 18660, Note_on_c, 3, 60, 36
4, 18660, Note_on_c, 3, 64, 60
4, 18698, Note_on_c, 3, 60, 0
4, 18702, Note_on_c, 3, 64, 0
4, 18707, Note_on_c, 3, 67, 0
4, 18780, Note_on_c, 3, 64, 60
4, 18780, Note_on_c, 3, 67, 74
4, 18780, Note_on_c, 3, 60, 45
4, 18815, Note_on_c, 3, 60, 0
4, 18815, Note_on_c, 3, 67, 0
4, 18815, Note_on_c, 3, 64, 0
4, 18900, Note_on_c, 3, 48, 78
4, 18939, Note_on_c, 3, 48, 0
4, 18960, Note_on_c, 3, 64, 68
4, 18960, Note_on_c, 3, 60, 32
4, 19104, Note_on_c, 3, 60, 0
4, 19107, Note_on_c, 3, 64, 0
4, 19200, Note_on_c, 3, 59, 52
4, 19200, Note_on_c, 3, 64, 51
4, 19200, Note_on_c, 3, 40, 62
4, 19243, Note_on_c, 3, 59, 0
4, 19252, Note_on_c, 3, 40, 0
4, 19252, Note_on_c, 3, 64, 0
4, 19320, Note_on_c, 3, 59, 52
4, 19320, Note_on_c, 3, 64, 53
4, 19363, Note_on_c, 3, 59, 0
4, 19376, Note_on_c, 3, 64, 0
4, 19500, Note_on_c, 3, 64, 65
4, 19500, Note_on_c, 3, 59, 52
4, 19539, Note_on_c, 3, 59, 0
4, 19546, Note_on_c, 3, 64, 0
4, 19620, Note_on_c, 3, 59, 56
4, 19620, Note_on_c, 3, 64, 71
4, 19654, Note_on_c, 3, 59, 0
4, 19664, Note_on_c, 3, 64, 0
4, 19740, Note_on_c, 3, 59, 67
4, 19740, Note_on_c, 3, 64, 62
4, 19768, Note_on_c, 3, 59, 0
4, 19781, Note_on_c, 3, 64, 0
4, 19860, Note_on_c, 3, 40, 71
4, 19920, Note_on_c, 3, 59, 42
4, 19920, Note_on_c, 3, 64, 44
4, 19931, Note_on_c, 3, 40, 0
4, 20070, Note_on_c, 3, 59, 0
4, 20076, Note_on_c, 3, 64, 0
4, 20160, Note_on_c, 3, 65, 65
4, 20160, Note_on_c, 3, 58, 45
4, 20190, Note_on_c, 3, 58, 0
4, 20197, Note_on_c, 3, 65, 0
4, 20280, Note_on_c, 3, 65, 65
4, 20280, Note_on_c, 3, 58, 56
4, 20321, Note_on_c, 3, 58, 0
4, 20335, Note_on_c, 3, 65, 0
4, 20400, Note_on_c, 3, 43, 65
4, 20460, Note_on_c, 3, 65, 68
4, 20460, Note_on_c, 3, 58, 56
4, 20467, Note_on_c, 3, 43, 0
4, 20500, Note_on_c, 3, 58, 0
4, 20514, Note_on_c, 3, 65, 0
4, 20700, Note_on_c, 3, 64, 71
4, 20700, Note_on_c, 3, 58, 60
4, 20739, Note_on_c, 3, 58, 0
4, 20746, Note_on_c, 3, 64, 0
4, 20880, Note_on_c, 3, 64, 74
4, 20880, Note_on_c, 3, 58, 52
4, 21068, Note_on_c, 3, 58, 0
4, 21075, Note_on_c, 3, 64, 0
4, 21120, Note_on_c, 3, 65, 71
4, 21120, Note_on_c, 3, 60, 60
4, 21170, Note_on_c, 3, 60, 0
4, 21183, Note_on_c, 3, 65, 0
4, 21240, Note_on_c, 3, 65, 71
4, 21240, Note_on_c, 3, 60, 63
4, 21280, Note_on_c, 3, 60, 0
4, 21283, Note_on_c, 3, 65, 0
4, 21360, Note_on_c, 3, 41, 65
4, 21396, Note_on_c, 3, 41, 0
4, 21420, Note_on_c, 3, 60, 63
4, 21420, Note_on_c, 3, 65, 68
4, 21449, Note_on_c, 3, 60, 0
4, 21452, Note_on_c, 3, 65, 0
4, 21540, Note_on_c, 3, 60, 56
4, 21540, Note_on_c, 3, 65, 60
4, 21568, Note_on_c, 3, 60, 0
4, 21577, Note_on_c, 3, 65, 0
4, 21660, Note_on_c, 3, 65, 62
4, 21660, Note_on_c, 3, 60, 56
4, 21688, Note_on_c, 3, 60, 0
4, 21698, Note_on_c, 3, 65, 0
4, 21780, Note_on_c, 3, 41, 84
4, 21840, Note_on_c, 3, 65, 60
4, 21840, Note_on_c, 3, 60, 49
4, 21852, Note_on_c, 3, 41, 0
4, 21943, Note_on_c, 3, 60, 0
4, 21957, Note_on_c, 3, 65, 0
4, 22080, Note_on_c, 3, 65, 53
4, 22080, Note_on_c, 3, 69, 49
4, 22080, Note_on_c, 3, 60, 17
4, 22123, Note_on_c, 3, 69, 0
4, 22124, Note_on_c, 3, 60, 0
4, 22133, Note_on_c, 3, 65, 0
4, 22200, Note_on_c, 3, 65, 68
4, 22200, Note_on_c, 3, 60, 52
4, 22200, Note_on_c, 3, 69, 68
4, 22249, Note_on_c, 3, 69, 0
4, 22251, Note_on_c, 3, 60, 0
4, 22252, Note_on_c, 3, 65, 0
4, 22620, Note_on_c, 3, 59, 56
4, 22620, Note_on_c, 3, 65, 68
4, 22651, Note_on_c, 3, 59, 0
4, 22656, Note_on_c, 3, 65, 0
4, 22740, Note_on_c, 3, 43, 78
4, 22794, Note_on_c, 3, 43, 0
4, 22800, Note_on_c, 3, 65, 62
4, 22800, Note_on_c, 3, 59, 42
4, 23028, Note_on_c, 3, 59, 0
4, 23033, Note_on_c, 3, 65, 0
4, 23040, Note_on_c, 3, 64, 71
4, 23040, Note_on_c, 3, 60, 60
4, 23090, Note_on_c, 3, 60, 0
4, 23103, Note_on_c, 3, 64, 0
4, 23160, Note_on_c, 3, 64, 71
4, 23160, Note_on_c, 3, 60, 63
4, 23200, Note_on_c, 3, 60, 0
4, 23203, Note_on_c, 3, 64, 0
4, 23280, Note_on_c, 3, 48, 65
4, 23316, Note_on_c, 3, 48, 0
4, 23340, Note_on_c, 3, 60, 63
4, 23340, Note_on_c, 3, 64, 68
4, 23369, Note_on_c, 3, 60, 0
4, 23372, Note_on_c, 3, 64, 0
4, 23460, Note_on_c, 3, 60, 56
4, 23460, Note_on_c, 3, 64, 60
4, 23488, Note_on_c, 3, 60, 0
4, 23497, Note_on_c, 3, 64, 0
4, 23580, Note_on_c, 3, 64, 62
4, 23580, Note_on_c, 3, 60, 56
4, 23608, Note_on_c, 3, 60, 0
4, 23618, Note_on_c, 3, 64, 0
4, 23700, Note_on_c, 3, 48, 84
4, 23760, Note_on_c, 3, 64, 60
4, 23760, Note_on_c, 3, 60, 49
4, 23772, Note_on_c, 3, 48, 0
4, 23863, Note_on_c, 3, 60, 0
4, 23877, Note_on_c, 3, 64, 0
4, 24000, Note_on_c, 3, 65, 53
4, 24000, Note_on_c, 3, 69, 49
4, 24000, Note_on_c, 3, 60, 17
4, 24043, Note_on_c, 3, 69, 0
4, 24044, Note_on_c, 3, 60, 0
4, 24053, Note_on_c, 3, 65, 0
4, 24120, Note_on_c, 3, 65, 68
4, 24120, Note_on_c, 3, 60, 52
4, 24120, Note_on_c, 3, 69, 68
4, 24169, Note_on_c, 3, 69, 0
4, 24171, Note_on_c, 3, 60, 0
4, 24172, Note_on_c, 3, 65, 0
4, 24540, Note_on_c, 3, 65, 71
4, 24540, Note_on_c, 3, 59, 60
4, 24579, Note_on_c, 3, 59, 0
4, 24586, Note_on_c, 3, 65, 0
4, 24720, Note_on_c, 3, 65, 74
4, 24720, Note_on_c, 3, 59, 52
4, 24908, Note_on_c, 3, 59, 0
4, 24915, Note_on_c, 3, 65, 0
4, 24960, Note_on_c, 3, 60, 49
4, 24960, Note_on_c, 3, 64, 71
4, 25004, Note_on_c, 3, 60, 0
4, 25008, Note_on_c, 3, 64, 0
4, 25080, Note_on_c, 3, 60, 45
4, 25080, Note_on_c, 3, 64, 71
4, 25133, Note_on_c, 3, 64, 0
4, 25168, Note_on_c, 3, 60, 0
4, 25380, Note_on_c, 3, 60, 52
4, 25380, Note_on_c, 3, 64, 60
4, 25411, Note_on_c, 3, 60, 0
4, 25416, Note_on_c, 3, 64, 0
4, 25500, Note_on_c, 3, 60, 56
4, 25500, Note_on_c, 3, 64, 65
4, 25531, Note_on_c, 3, 60, 0
4, 25545, Note_on_c, 3, 64, 0
4, 25620, Note_on_c, 3, 48, 53
4, 25669, Note_on_c, 3, 48, 0
4, 25680, Note_on_c, 3, 64, 49
4, 25680, Note_on_c, 3, 60, 42
4, 25798, Note_on_c, 3, 60, 0
4, 25804, Note_on_c, 3, 64, 0
4, 25920, Note_on_c, 3, 65, 65
4, 25920, Note_on_c, 3, 60, 45
4, 25950, Note_on_c, 3, 60, 0
4, 25957, Note_on_c, 3, 65, 0
4, 26040, Note_on_c, 3, 65, 65
4, 26040, Note_on_c, 3, 60, 56
4, 26081, Note_on_c, 3, 60, 0
4, 26095, Note_on_c, 3, 65, 0
4, 26160, Note_on_c, 3, 41, 65
4, 26220, Note_on_c, 3, 65, 68
4, 26220, Note_on_c, 3, 60, 56
4, 26227, Note_on_c, 3, 41, 0
4, 26260, Note_on_c, 3, 60, 0
4, 26274, Note_on_c, 3, 65, 0
4, 26460, Note_on_c, 3, 59, 72
4, 26460, Note_on_c, 3, 65, 71
4, 26486, Note_on_c, 3, 59, 0
4, 26495, Note_on_c, 3, 65, 0
4, 26580, Note_on_c, 3, 43, 60
4, 26602, Note_on_c, 3, 43, 0
4, 26640, Note_on_c, 3, 65, 78
4, 26640, Note_on_c, 3, 59, 60
4, 26852, Note_on_c, 3, 59, 0
4, 26858, Note_on_c, 3, 65, 0
4, 26880, Note_on_c, 3, 59, 45
4, 26880, Note_on_c, 3, 64, 60
4, 26932, Note_on_c, 3, 64, 0
4, 26933, Note_on_c, 3, 59, 0
4, 27000, Note_on_c, 3, 64, 81
4, 27000, Note_on_c, 3, 59, 36
4, 27041, Note_on_c, 3, 64, 0
4, 27054, Note_on_c, 3, 59, 0
4, 27180, Note_on_c, 3, 48, 60
4, 27241, Note_on_c, 3, 48, 0
4, 27241, Note_on_c, 3, 55, 5
4, 27264, Note_on_c, 3, 55, 0
4, 27300, Note_on_c, 3, 64, 71
4, 27300, Note_on_c, 3, 59, 30
4, 27360, Note_on_c, 3, 59, 0
4, 27360, Note_on_c, 3, 64, 0
4, 27420, Note_on_c, 3, 64, 68
4, 27420, Note_on_c, 3, 59, 63
4, 27457, Note_on_c, 3, 59, 0
4, 27461, Note_on_c, 3, 64, 0
4, 27600, Note_on_c, 3, 52, 40
4, 27600, Note_on_c, 3, 59, 45
4, 27774, Note_on_c, 3, 59, 0
4, 27782, Note_on_c, 3, 52, 0
4, 27840, Note_on_c, 3, 65, 53
4, 27840, Note_on_c, 3, 69, 49
4, 27840, Note_on_c, 3, 60, 17
4, 27883, Note_on_c, 3, 69, 0
4, 27884, Note_on_c, 3, 60, 0
4, 27893, Note_on_c, 3, 65, 0
4, 27960, Note_on_c, 3, 65, 68
4, 27960, Note_on_c, 3, 60, 52
4, 27960, Note_on_c, 3, 69, 68
4, 28009, Note_on_c, 3, 69, 0
4, 28011, Note_on_c, 3, 60, 0
4, 28012, Note_on_c, 3, 65, 0
4, 28380, Note_on_c, 3, 65, 71
4, 28380, Note_on_c, 3, 59, 60
4, 28419, Note_on_c, 3, 59, 0
4, 28426, Note_on_c, 3, 65, 0
4, 28560, Note_on_c, 3, 65, 74
4, 28560, Note_on_c, 3, 59, 52
4, 28748, Note_on_c, 3, 59, 0
4, 28755, Note_on_c, 3, 65, 0
4, 28800, Note_on_c, 3, 64, 62
4, 28800, Note_on_c, 3, 59, 52
4, 28844, Note_on_c, 3, 59, 0
4, 28856, Note_on_c, 3, 64, 0
4, 28920, Note_on_c, 3, 59, 52
4, 28920, Note_on_c, 3, 64, 55
4, 28971, Note_on_c, 3, 59, 0
4, 28973, Note_on_c, 3, 64, 0
4, 29040, Note_on_c, 3, 55, 55
4, 29100, Note_on_c, 3, 59, 56
4, 29100, Note_on_c, 3, 64, 49
4, 29104, Note_on_c, 3, 55, 0
4, 29149, Note_on_c, 3, 64, 0
4, 29153, Note_on_c, 3, 59, 0
4, 29220, Note_on_c, 3, 59, 63
4, 29220, Note_on_c, 3, 64, 62
4, 29268, Note_on_c, 3, 59, 0
4, 29280, Note_on_c, 3, 64, 0
4, 29340, Note_on_c, 3, 64, 60
4, 29340, Note_on_c, 3, 59, 45
4, 29377, Note_on_c, 3, 59, 0
4, 29385, Note_on_c, 3, 64, 0
4, 29460, Note_on_c, 3, 55, 74
4, 29507, Note_on_c, 3, 55, 0
4, 29520, Note_on_c, 3, 64, 62
4, 29520, Note_on_c, 3, 59, 49
4, 29689, Note_on_c, 3, 59, 0
4, 29697, Note_on_c, 3, 64, 0
4, 29700, Note_on_c, 3, 55, 53
4, 29725, Note_on_c, 3, 55, 0
4, 29760, Note_on_c, 3, 65, 65
4, 29760, Note_on_c, 3, 60, 45
4, 29790, Note_on_c, 3, 60, 0
4, 29797, Note_on_c, 3, 65, 0
4, 29880, Note_on_c, 3, 65, 65
4, 29880, Note_on_c, 3, 60, 56
4, 29921, Note_on_c, 3, 60, 0
4, 29935, Note_on_c, 3, 65, 0
4, 30000, Note_on_c, 3, 41, 65
4, 30060, Note_on_c, 3, 65, 68
4, 30060, Note_on_c, 3, 60, 56
4, 30067, Note_on_c, 3, 41, 0
4, 30100, Note_on_c, 3, 60, 0
4, 30114, Note_on_c, 3, 65, 0
4, 30300, Note_on_c, 3, 65, 81
4, 30300, Note_on_c, 3, 59, 63
4, 30332, Note_on_c, 3, 59, 0
4, 30339, Note_on_c, 3, 65, 0
4, 30420, Note_on_c, 3, 43, 87
4, 30480, Note_on_c, 3, 65, 71
4, 30480, Note_on_c, 3, 59, 56
4, 30490, Note_on_c, 3, 43, 0
4, 30624, Note_on_c, 3, 59, 0
4, 30631, Note_on_c, 3, 65, 0
4, 30720, Note_on_c, 3, 64, 71
4, 30720, Note_on_c, 3, 60, 60
4, 30770, Note_on_c, 3, 60, 0
4, 30783, Note_on_c, 3, 64, 0
4, 30840, Note_on_c, 3, 64, 71
4, 30840, Note_on_c, 3, 60, 63
4, 30880, Note_on_c, 3, 60, 0
4, 30883, Note_on_c, 3, 64, 0
4, 30960, Note_on_c, 3, 48, 65
4, 30996, Note_on_c, 3, 48, 0
4, 31020, Note_on_c, 3, 60, 63
4, 31020, Note_on_c, 3, 64, 68
4, 31049, Note_on_c, 3, 60, 0
4, 31052, Note_on_c, 3, 64, 0
4, 31140, Note_on_c, 3, 60, 56
4, 31140, Note_on_c, 3, 64, 60
4, 31168, Note_on_c, 3, 60, 0
4, 31177, Note_on_c, 3, 64, 0
4, 31260, Note_on_c, 3, 64, 62
4, 31260, Note_on_c, 3, 60, 56
4, 31288, Note_on_c, 3, 60, 0
4, 31298, Note_on_c, 3, 64, 0
4, 31380, Note_on_c, 3, 48, 84
4, 31440, Note_on_c, 3, 64, 60
4, 31440, Note_on_c, 3, 60, 49
4, 31452, Note_on_c, 3, 48, 0
4, 31543, Note_on_c, 3, 60, 0
4, 31557, Note_on_c, 3, 64, 0
4, 31680, Note_on_c, 3, 67, 57
4, 31680, Note_on_c, 3, 62, 52
4, 31730, Note_on_c, 3, 62, 0
4, 31736, Note_on_c, 3, 67, 0
4, 31800, Note_on_c, 3, 67, 57
4, 31800, Note_on_c, 3, 62, 60
4, 31860, Note_on_c, 3, 62, 0
4, 31862, Note_on_c, 3, 67, 0
4, 32220, Note_on_c, 3, 57, 72
4, 32220, Note_on_c, 3, 60, 71
4, 32246, Note_on_c, 3, 57, 0
4, 32255, Note_on_c, 3, 60, 0
4, 32340, Note_on_c, 3, 45, 60
4, 32362, Note_on_c, 3, 45, 0
4, 32400, Note_on_c, 3, 60, 78
4, 32400, Note_on_c, 3, 57, 60
4, 32612, Note_on_c, 3, 57, 0
4, 32618, Note_on_c, 3, 60, 0
4, 32700, Note_on_c, 3, 41, 87
4, 32760, Note_on_c, 3, 53, 65
4, 32783, Note_on_c, 3, 41, 0
4, 32820, Note_on_c, 3, 57, 36
4, 32820, Note_on_c, 3, 64, 60
4, 32891, Note_on_c, 3, 53, 0
4, 33023, Note_on_c, 3, 57, 0
4, 33025, Note_on_c, 3, 64, 0
4, 33180, Note_on_c, 3, 50, 47
4, 33242, Note_on_c, 3, 50, 0
4, 33242, Note_on_c, 3, 57, 65
4, 33288, Note_on_c, 3, 57, 0
4, 33300, Note_on_c, 3, 65, 60
4, 33300, Note_on_c, 3, 60, 42
4, 33535, Note_on_c, 3, 60, 0
4, 33538, Note_on_c, 3, 65, 0
4, 33660, Note_on_c, 3, 50, 87
4, 33720, Note_on_c, 3, 57, 65
4, 33743, Note_on_c, 3, 50, 0
4, 33780, Note_on_c, 3, 60, 36
4, 33780, Note_on_c, 3, 65, 60
4, 33851, Note_on_c, 3, 57, 0
4, 33983, Note_on_c, 3, 60, 0
4, 33985, Note_on_c, 3, 65, 0
4, 34140, Note_on_c, 3, 43, 47
4, 34202, Note_on_c, 3, 43, 0
4, 34202, Note_on_c, 3, 55, 65
4, 34248, Note_on_c, 3, 55, 0
4, 34260, Note_on_c, 3, 65, 60
4, 34260, Note_on_c, 3, 59, 42
4, 34495, Note_on_c, 3, 59, 0
4, 34498, Note_on_c, 3, 65, 0
4, 34560, Note_on_c, 3, 59, 52
4, 34560, Note_on_c, 3, 65, 60
4, 34608, Note_on_c, 3, 59, 0
4, 34611, Note_on_c, 3, 65, 0
4, 34680, Note_on_c, 3, 59, 56
4, 34680, Note_on_c, 3, 65, 60
4, 34758, Note_on_c, 3, 59, 0
4, 34770, Note_on_c, 3, 65, 0
4, 34860, Note_on_c, 3, 43, 60
4, 34920, Note_on_c, 3, 55, 25
4, 34936, Note_on_c, 3, 43, 0
4, 34955, Note_on_c, 3, 55, 0
4, 35040, Note_on_c, 3, 60, 60
4, 35040, Note_on_c, 3, 64, 60
4, 35084, Note_on_c, 3, 60, 0
4, 35096, Note_on_c, 3, 64, 0
4, 35160, Note_on_c, 3, 60, 67
4, 35160, Note_on_c, 3, 64, 62
4, 35203, Note_on_c, 3, 60, 0
4, 35214, Note_on_c, 3, 64, 0
4, 35280, Note_on_c, 3, 48, 53
4, 35345, Note_on_c, 3, 48, 0
4, 35345, Note_on_c, 3, 55, 57
4, 35400, Note_on_c, 3, 60, 12
4, 35411, Note_on_c, 3, 55, 0
4, 35449, Note_on_c, 3, 60, 0
4, 35460, Note_on_c, 3, 64, 68
4, 35460, Note_on_c, 3, 60, 72
4, 35507, Note_on_c, 3, 60, 0
4, 35520, Note_on_c, 3, 64, 0
4, 35580, Note_on_c, 3, 60, 52
4, 35580, Note_on_c, 3, 64, 65
4, 35617, Note_on_c, 3, 60, 0
4, 35627, Note_on_c, 3, 64, 0
4, 35700, Note_on_c, 3, 55, 65
4, 35756, Note_on_c, 3, 55, 0
4, 35760, Note_on_c, 3, 60, 42
4, 35760, Note_on_c, 3, 64, 68
4, 35909, Note_on_c, 3, 60, 0
4, 35915, Note_on_c, 3, 64, 0
4, 36000, Note_on_c, 3, 59, 42
4, 36000, Note_on_c, 3, 64, 62
4, 36000, Note_on_c, 3, 67, 47
4, 36042, Note_on_c, 3, 67, 0
4, 36044, Note_on_c, 3, 59, 0
4, 36052, Note_on_c, 3, 64, 0
4, 36120, Note_on_c, 3, 64, 55
4, 36120, Note_on_c, 3, 67, 57
4, 36120, Note_on_c, 3, 59, 34
4, 36174, Note_on_c, 3, 67, 0
4, 36178, Note_on_c, 3, 59, 0
4, 36180, Note_on_c, 3, 64, 0
4, 36300, Note_on_c, 3, 40, 68
4, 36360, Note_on_c, 3, 40, 0
4, 36360, Note_on_c, 3, 55, 23
4, 36387, Note_on_c, 3, 55, 0
4, 36420, Note_on_c, 3, 67, 62
4, 36420, Note_on_c, 3, 59, 36
4, 36420, Note_on_c, 3, 64, 60
4, 36458, Note_on_c, 3, 59, 0
4, 36462, Note_on_c, 3, 64, 0
4, 36467, Note_on_c, 3, 67, 0
4, 36540, Note_on_c, 3, 64, 60
4, 36540, Note_on_c, 3, 67, 74
4, 36540, Note_on_c, 3, 59, 45
4, 36575, Note_on_c, 3, 59, 0
4, 36575, Note_on_c, 3, 67, 0
4, 36575, Note_on_c, 3, 64, 0
4, 36660, Note_on_c, 3, 40, 78
4, 36699, Note_on_c, 3, 40, 0
4, 36720, Note_on_c, 3, 64, 68
4, 36720, Note_on_c, 3, 59, 32
4, 36864, Note_on_c, 3, 59, 0
4, 36867, Note_on_c, 3, 64, 0
4, 36960, Note_on_c, 3, 65, 65
4, 36960, Note_on_c, 3, 58, 45
4, 36990, Note_on_c, 3, 58, 0
4, 36997, Note_on_c, 3, 65, 0
4, 37080, Note_on_c, 3, 65, 65
4, 37080, Note_on_c, 3, 58, 56
4, 37121, Note_on_c, 3, 58, 0
4, 37135, Note_on_c, 3, 65, 0
4, 37200, Note_on_c, 3, 43, 65
4, 37260, Note_on_c, 3, 65, 68
4, 37260, Note_on_c, 3, 58, 56
4, 37267, Note_on_c, 3, 43, 0
4, 37300, Note_on_c, 3, 58, 0
4, 37314, Note_on_c, 3, 65, 0
4, 37500, Note_on_c, 3, 48, 47
4, 37562, Note_on_c, 3, 48, 0
4, 37562, Note_on_c, 3, 55, 65
4, 37608, Note_on_c, 3, 55, 0
4, 37620, Note_on_c, 3, 64, 60
4, 37620, Note_on_c, 3, 58, 42
4, 37855, Note_on_c, 3, 58, 0
4, 37858, Note_on_c, 3, 64, 0
4, 37920, Note_on_c, 3, 65, 81
4, 37920, Note_on_c, 3, 60, 45
4, 37968, Note_on_c, 3, 60, 0
4, 37979, Note_on_c, 3, 65, 0
4, 38040, Note_on_c, 3, 65, 71
4, 38040, Note_on_c, 3, 60, 45
4, 38084, Note_on_c, 3, 65, 0
4, 38107, Note_on_c, 3, 60, 0
4, 38340, Note_on_c, 3, 65, 78
4, 38340, Note_on_c, 3, 60, 52
4, 38384, Note_on_c, 3, 60, 0
4, 38384, Note_on_c, 3, 65, 0
4, 38460, Note_on_c, 3, 60, 63
4, 38460, Note_on_c, 3, 65, 65
4, 38501, Note_on_c, 3, 60, 0
4, 38512, Note_on_c, 3, 65, 0
4, 38580, Note_on_c, 3, 41, 84
4, 38640, Note_on_c, 3, 65, 68
4, 38641, Note_on_c, 3, 41, 0
4, 38641, Note_on_c, 3, 60, 52
4, 38773, Note_on_c, 3, 60, 0
4, 38788, Note_on_c, 3, 65, 0
4, 38880, Note_on_c, 3, 60, 45
4, 38880, Note_on_c, 3, 64, 60
4, 38932, Note_on_c, 3, 64, 0
4, 38933, Note_on_c, 3, 60, 0
4, 39000, Note_on_c, 3, 64, 81
4, 39000, Note_on_c, 3, 60, 36
4, 39041, Note_on_c, 3, 64, 0
4, 39054, Note_on_c, 3, 60, 0
4, 39180, Note_on_c, 3, 48, 60
4, 39241, Note_on_c, 3, 48, 0
4, 39241, Note_on_c, 3, 55, 5
4, 39264, Note_on_c, 3, 55, 0
4, 39300, Note_on_c, 3, 64, 71
4, 39300, Note_on_c, 3, 60, 30
4, 39360, Note_on_c, 3, 60, 0
4, 39360, Note_on_c, 3, 64, 0
4, 39420, Note_on_c, 3, 64, 68
4, 39420, Note_on_c, 3, 60, 63
4, 39457, Note_on_c, 3, 60, 0
4, 39461, Note_on_c, 3, 64, 0
4, 39600, Note_on_c, 3, 52, 40
4, 39600, Note_on_c, 3, 60, 45
4, 39774, Note_on_c, 3, 60, 0
4, 39782, Note_on_c, 3, 52, 0
4, 39840, Note_on_c, 3, 59, 60
4, 39840, Note_on_c, 3, 64, 60
4, 39884, Note_on_c, 3, 59, 0
4, 39896, Note_on_c, 3, 64, 0
4, 39960, Note_on_c, 3, 59, 67
4, 39960, Note_on_c, 3, 64, 62
4, 40003, Note_on_c, 3, 59, 0
4, 40014, Note_on_c, 3, 64, 0
4, 40080, Note_on_c, 3, 40, 53
4, 40145, Note_on_c, 3, 40, 0
4, 40145, Note_on_c, 3, 55, 57
4, 40200, Note_on_c, 3, 59, 12
4, 40211, Note_on_c, 3, 55, 0
4, 40249, Note_on_c, 3, 59, 0
4, 40260, Note_on_c, 3, 64, 68
4, 40260, Note_on_c, 3, 59, 72
4, 40307, Note_on_c, 3, 59, 0
4, 40320, Note_on_c, 3, 64, 0
4, 40380, Note_on_c, 3, 59, 52
4, 40380, Note_on_c, 3, 64, 65
4, 40417, Note_on_c, 3, 59, 0
4, 40427, Note_on_c, 3, 64, 0
4, 40500, Note_on_c, 3, 55, 65
4, 40556, Note_on_c, 3, 55, 0
4, 40560, Note_on_c, 3, 59, 42
4, 40560, Note_on_c, 3, 64, 68
4, 40709, Note_on_c, 3, 59, 0
4, 40715, Note_on_c, 3, 64, 0
4, 40800, Note_on_c, 3, 65, 57
4, 40800, Note_on_c, 3, 58, 52
4, 40850, Note_on_c, 3, 58, 0
4, 40856, Note_on_c, 3, 65, 0
4, 40920, Note_on_c, 3, 65, 57
4, 40920, Note_on_c, 3, 58, 60
4, 40980, Note_on_c, 3, 58, 0
4, 40982, Note_on_c, 3, 65, 0
4, 41340, Note_on_c, 3, 64, 71
4, 41340, Note_on_c, 3, 58, 60
4, 41379, Note_on_c, 3, 58, 0
4, 41386, Note_on_c, 3, 64, 0
4, 41520, Note_on_c, 3, 64, 74
4, 41520, Note_on_c, 3, 58, 52
4, 41708, Note_on_c, 3, 58, 0
4, 41715, Note_on_c, 3, 64, 0
4, 41760, Note_on_c, 3, 65, 71
4, 41760, Note_on_c, 3, 60, 60
4, 41810, Note_on_c, 3, 60, 0
4, 41823, Note_on_c, 3, 65, 0
4, 41880, Note_on_c, 3, 65, 71
4, 41880, Note_on_c, 3, 60, 63
4, 41920, Note_on_c, 3, 60, 0
4, 41923, Note_on_c, 3, 65, 0
4, 42000, Note_on_c, 3, 41, 65
4, 42036, Note_on_c, 3, 41, 0
4, 42060, Note_on_c, 3, 60, 63
4, 42060, Note_on_c, 3, 65, 68
4, 42089, Note_on_c, 3, 60, 0
4, 42092, Note_on_c, 3, 65, 0
4, 42180, Note_on_c, 3, 60, 56
4, 42180, Note_on_c, 3, 65, 60
4, 42208, Note_on_c, 3, 60, 0
4, 42217, Note_on_c, 3, 65, 0
4, 42300, Note_on_c, 3, 65, 62
4, 42300, Note_on_c, 3, 60, 56
4, 42328, Note_on_c, 3, 60, 0
4, 42338, Note_on_c, 3, 65, 0
4, 42420, Note_on_c, 3, 41, 84
4, 42480, Note_on_c, 3, 65, 60
4, 42480, Note_on_c, 3, 60, 49
4, 42492, Note_on_c, 3, 41, 0
4, 42583, Note_on_c, 3, 60, 0
4, 42597, Note_on_c, 3, 65, 0
4, 42720, Note_on_c, 3, 65, 57
4, 42720, Note_on_c, 3, 60, 52
4, 42770, Note_on_c, 3, 60, 0
4, 42776, Note_on_c, 3, 65, 0
4, 42840, Note_on_c, 3, 65, 57
4, 42840, Note_on_c, 3, 60, 60
4, 42900, Note_on_c, 3, 60, 0
4, 42902, Note_on_c, 3, 65, 0
4, 43260, Note_on_c, 3, 65, 71
4, 43260, Note_on_c, 3, 59, 60
4, 43299, Note_on_c, 3, 59, 0
4, 43306, Note_on_c, 3, 65, 0
4, 43440, Note_on_c, 3, 65, 74
4, 43440, Note_on_c, 3, 59, 52
4, 43628, Note_on_c, 3, 59, 0
4, 43635, Note_on_c, 3, 65, 0
4, 43680, Note_on_c, 3, 60, 60
4, 43680, Note_on_c, 3, 64, 60
4, 43724, Note_on_c, 3, 60, 0
4, 43736, Note_on_c, 3, 64, 0
4, 43800, Note_on_c, 3, 60, 67
4, 43800, Note_on_c, 3, 64, 62
4, 43843, Note_on_c, 3, 60, 0
4, 43854, Note_on_c, 3, 64, 0
4, 43920, Note_on_c, 3, 48, 53
4, 43985, Note_on_c, 3, 48, 0
4, 43985, Note_on_c, 3, 55, 57
4, 44040, Note_on_c, 3, 60, 12
4, 44051, Note_on_c, 3, 55, 0
4, 44089, Note_on_c, 3, 60, 0
4, 44100, Note_on_c, 3, 64, 68
4, 44100, Note_on_c, 3, 60, 72
4, 44147, Note_on_c, 3, 60, 0
4, 44160, Note_on_c, 3, 64, 0
4, 44220, Note_on_c, 3, 60, 52
4, 44220, Note_on_c, 3, 64, 65
4, 44257, Note_on_c, 3, 60, 0
4, 44267, Note_on_c, 3, 64, 0
4, 44340, Note_on_c, 3, 55, 65
4, 44396, Note_on_c, 3, 55, 0
4, 44400, Note_on_c, 3, 60, 42
4, 44400, Note_on_c, 3, 64, 68
4, 44549, Note_on_c, 3, 60, 0
4, 44555, Note_on_c, 3, 64, 0
4, 44640, Note_on_c, 3, 65, 65
4, 44640, Note_on_c, 3, 60, 45
4, 44670, Note_on_c, 3, 60, 0
4, 44677, Note_on_c, 3, 65, 0
4, 44760, Note_on_c, 3, 65, 65
4, 44760, Note_on_c, 3, 60, 56
4, 44801, Note_on_c, 3, 60, 0
4, 44815, Note_on_c, 3, 65, 0
4, 44880, Note_on_c, 3, 50, 65
4, 44940, Note_on_c, 3, 65, 68
4, 44940, Note_on_c, 3, 60, 56
4, 44947, Note_on_c, 3, 50, 0
4, 44980, Note_on_c, 3, 60, 0
4, 44994, Note_on_c, 3, 65, 0
4, 45180, Note_on_c, 3, 65, 71
4, 45180, Note_on_c, 3, 59, 60
4, 45219, Note_on_c, 3, 59, 0
4, 45226, Note_on_c, 3, 65, 0
4, 45360, Note_on_c, 3, 65, 74
4, 45360, Note_on_c, 3, 59, 52
4, 45548, Note_on_c, 3, 59, 0
4, 45555, Note_on_c, 3, 65, 0
4, 45600, Note_on_c, 3, 60, 42
4, 45600, Note_on_c, 3, 64, 62
4, 45600, Note_on_c, 3, 67, 47
4, 45642, Note_on_c, 3, 67, 0
4, 45644, Note_on_c, 3, 60, 0
4, 45652, Note_on_c, 3, 64, 0
4, 45720, Note_on_c, 3, 64, 55
4, 45720, Note_on_c, 3, 67, 57
4, 45720, Note_on_c, 3, 60, 34
4, 45774, Note_on_c, 3, 67, 0
4, 45778, Note_on_c, 3, 60, 0
4, 45780, Note_on_c, 3, 64, 0
4, 45900, Note_on_c, 3, 48, 68
4, 45960, Note_on_c, 3, 48, 0
4, 45960, Note_on_c, 3, 55, 23
4, 45987, Note_on_c, 3, 55, 0
4, 46020, Note_on_c, 3, 67, 62
4, 46020, Note_on_c, 3, 60, 36
4, 46020, Note_on_c, 3, 64, 60
4, 46058, Note_on_c, 3, 60, 0
4, 46062, Note_on_c, 3, 64, 0
4, 46067, Note_on_c, 3, 67, 0
4, 46140, Note_on_c, 3, 64, 60
4, 46140, Note_on_c, 3, 67, 74
4, 46140, Note_on_c, 3, 60, 45
4, 46175, Note_on_c, 3, 60, 0
4, 46175, Note_on_c, 3, 67, 0
4, 46175, Note_on_c, 3, 64, 0
4, 46260, Note_on_c, 3, 48, 78
4, 46299, Note_on_c, 3, 48, 0
4, 46320, Note_on_c, 3, 64, 68
4, 46320, Note_on_c, 3, 60, 32
4, 46464, Note_on_c, 3, 60, 0
4, 46467, Note_on_c, 3, 64, 0
4, 46560, Note_on_c, 3, 64, 81
4, 46560, Note_on_c, 3, 59, 45
4, 46608, Note_on_c, 3, 59, 0
4, 46619, Note_on_c, 3, 64, 0
4, 46680, Note_on_c, 3, 64, 71
4, 46680, Note_on_c, 3, 59, 45
4, 46724, Note_on_c, 3, 64, 0
4, 46747, Note_on_c, 3, 59, 0
4, 46980, Note_on_c, 3, 64, 78
4, 46980, Note_on_c, 3, 59, 52
4, 47024, Note_on_c, 3, 59, 0
4, 47024, Note_on_c, 3, 64, 0
4, 47100, Note_on_c, 3, 59, 63
4, 47100, Note_on_c, 3, 64, 65
4, 47141, Note_on_c, 3, 59, 0
4, 47152, Note_on_c, 3, 64, 0
4, 47220, Note_on_c, 3, 40, 84
4, 47280, Note_on_c, 3, 64, 68
4, 47281, Note_on_c, 3, 40, 0
4, 47281, Note_on_c, 3, 59, 52
4, 47413, Note_on_c, 3, 59, 0
4, 47428, Note_on_c, 3, 64, 0
4, 47520, Note_on_c, 3, 67, 65
4, 47520, Note_on_c, 3, 62, 45
4, 47550, Note_on_c, 3, 62, 0
4, 47557, Note_on_c, 3, 67, 0
4, 47640, Note_on_c, 3, 67, 65
4, 47640, Note_on_c, 3, 62, 56
4, 47681, Note_on_c, 3, 62, 0
4, 47695, Note_on_c, 3, 67, 0
4, 47760, Note_on_c, 3, 43, 65
4, 47820, Note_on_c, 3, 67, 68
4, 47820, Note_on_c, 3, 62, 56
4, 47827, Note_on_c, 3, 43, 0
4, 47860, Note_on_c, 3, 62, 0
4, 47874, Note_on_c, 3, 67, 0
4, 48060, Note_on_c, 3, 64, 71
4, 48060, Note_on_c, 3, 59, 60
4, 48099, Note_on_c, 3, 59, 0
4, 48106, Note_on_c, 3, 64, 0
4, 48240, Note_on_c, 3, 64, 74
4, 48240, Note_on_c, 3, 59, 52
4, 48360, Control_c, 3, 64, 0
4, 48428, Note_on_c, 3, 59, 0
4, 48435, Note_on_c, 3, 64, 0
4, 48435, End_track
5, 0, Start_track
5, 0, MIDI_port, 0
5, 0, Title_t, "Melody 1"
5, 0, Control_c, 4, 121, 0
5, 0, Control_c, 4, 123, 0
5, 0, Control_c, 4, 1, 0
5, 0, Control_c, 4, 91, 60
5, 0, Control_c, 4, 93, 40
5, 0, Control_c, 4, 5, 127
5, 0, Control_c, 4, 65, 0
5, 142, Program_c, 4, 58
5, 143, Control_c, 4, 7, 95
5, 143, Control_c, 4, 10, 64
5, 2820, Note_on_c, 4, 55, 79
5, 2879, Note_on_c, 4, 55, 0
5, 2880, Note_on_c, 4, 60, 81
5, 2998, Note_on_c, 4, 60, 0
5, 3000, Note_on_c, 4, 67, 80
5, 3059, Note_on_c, 4, 67, 0
5, 3060, Note_on_c, 4, 67, 79
5, 3236, Note_on_c, 4, 67, 0
5, 3240, Note_on_c, 4, 69, 80
5, 3358, Note_on_c, 4, 69, 0
5, 3660, Note_on_c, 4, 60, 79
5, 3719, Note_on_c, 4, 60, 0
5, 3720, Note_on_c, 4, 60, 81
5, 3838, Note_on_c, 4, 60, 0
5, 3840, Note_on_c, 4, 59, 81
5, 3958, Note_on_c, 4, 59, 0
5, 3960, Note_on_c, 4, 67, 80
5, 4078, Note_on_c, 4, 67, 0
5, 4080, Note_on_c, 4, 67, 80
5, 4139, Note_on_c, 4, 67, 0
5, 4140, Note_on_c, 4, 69, 79
5, 4316, Note_on_c, 4, 69, 0
5, 4800, Note_on_c, 4, 70, 81
5, 4859, Note_on_c, 4, 70, 0
5, 4860, Note_on_c, 4, 70, 79
5, 5036, Note_on_c, 4, 70, 0
5, 5040, Note_on_c, 4, 70, 80
5, 5158, Note_on_c, 4, 70, 0
5, 5160, Note_on_c, 4, 72, 80
5, 5278, Note_on_c, 4, 72, 0
5, 5280, Note_on_c, 4, 74, 81
5, 5309, Note_on_c, 4, 74, 0
5, 5310, Note_on_c, 4, 72, 78
5, 5339, Note_on_c, 4, 72, 0
5, 5340, Note_on_c, 4, 74, 79
5, 5458, Note_on_c, 4, 74, 0
5, 5460, Note_on_c, 4, 72, 79
5, 5519, Note_on_c, 4, 72, 0
5, 5520, Note_on_c, 4, 72, 80
5, 5638, Note_on_c, 4, 72, 0
5, 5640, Note_on_c, 4, 72, 81
5, 5758, Note_on_c, 4, 72, 0
5, 5760, Note_on_c, 4, 70, 81
5, 5819, Note_on_c, 4, 70, 0
5, 5820, Note_on_c, 4, 69, 79
5, 5938, Note_on_c, 4, 69, 0
5, 5940, Note_on_c, 4, 69, 79
5, 6234, Note_on_c, 4, 69, 0
5, 6720, Note_on_c, 4, 60, 81
5, 6838, Note_on_c, 4, 60, 0
5, 6840, Note_on_c, 4, 67, 80
5, 6899, Note_on_c, 4, 67, 0
5, 6900, Note_on_c, 4, 67, 79
5, 7194, Note_on_c, 4, 67, 0
5, 7560, Note_on_c, 4, 60, 81
5, 7619, Note_on_c, 4, 60, 0
5, 7620, Note_on_c, 4, 60, 79
5, 7679, Note_on_c, 4, 60, 0
5, 7680, Note_on_c, 4, 59, 81
5, 7739, Note_on_c, 4, 59, 0
5, 7740, Note_on_c, 4, 67, 79
5, 7858, Note_on_c, 4, 67, 0
5, 7860, Note_on_c, 4, 67, 79
5, 7919, Note_on_c, 4, 67, 0
5, 7920, Note_on_c, 4, 69, 80
5, 8155, Note_on_c, 4, 69, 0
5, 8640, Note_on_c, 4, 70, 81
5, 8699, Note_on_c, 4, 70, 0
5, 8700, Note_on_c, 4, 70, 79
5, 8876, Note_on_c, 4, 70, 0
5, 8880, Note_on_c, 4, 70, 80
5, 8998, Note_on_c, 4, 70, 0
5, 9000, Note_on_c, 4, 72, 80
5, 9118, Note_on_c, 4, 72, 0
5, 9120, Note_on_c, 4, 72, 81
5, 9179, Note_on_c, 4, 72, 0
5, 9180, Note_on_c, 4, 74, 79
5, 9298, Note_on_c, 4, 74, 0
5, 9300, Note_on_c, 4, 64, 79
5, 9359, Note_on_c, 4, 64, 0
5, 9360, Note_on_c, 4, 72, 80
5, 9419, Note_on_c, 4, 72, 0
5, 9420, Note_on_c, 4, 72, 79
5, 9596, Note_on_c, 4, 72, 0
5, 9600, Note_on_c, 4, 70, 81
5, 9659, Note_on_c, 4, 70, 0
5, 9660, Note_on_c, 4, 69, 79
5, 9778, Note_on_c, 4, 69, 0
5, 9780, Note_on_c, 4, 69, 79
5, 10074, Note_on_c, 4, 69, 0
5, 10500, Note_on_c, 4, 60, 79
5, 10559, Note_on_c, 4, 60, 0
5, 10560, Note_on_c, 4, 69, 81
5, 10619, Note_on_c, 4, 69, 0
5, 10620, Note_on_c, 4, 69, 79
5, 10796, Note_on_c, 4, 69, 0
5, 10800, Note_on_c, 4, 69, 80
5, 10918, Note_on_c, 4, 69, 0
5, 10920, Note_on_c, 4, 71, 80
5, 10979, Note_on_c, 4, 71, 0
5, 10980, Note_on_c, 4, 72, 79
5, 11156, Note_on_c, 4, 72, 0
5, 11160, Note_on_c, 4, 72, 80
5, 11278, Note_on_c, 4, 72, 0
5, 11280, Note_on_c, 4, 71, 80
5, 11398, Note_on_c, 4, 71, 0
5, 11400, Note_on_c, 4, 69, 81
5, 11518, Note_on_c, 4, 69, 0
5, 11520, Note_on_c, 4, 69, 81
5, 11579, Note_on_c, 4, 69, 0
5, 11580, Note_on_c, 4, 67, 79
5, 11992, Note_on_c, 4, 67, 0
5, 12180, Note_on_c, 4, 55, 79
5, 12239, Note_on_c, 4, 55, 0
5, 12240, Note_on_c, 4, 57, 80
5, 12358, Note_on_c, 4, 57, 0
5, 12360, Note_on_c, 4, 60, 81
5, 12478, Note_on_c, 4, 60, 0
5, 12480, Note_on_c, 4, 65, 81
5, 12539, Note_on_c, 4, 65, 0
5, 12540, Note_on_c, 4, 65, 79
5, 12716, Note_on_c, 4, 65, 0
5, 12720, Note_on_c, 4, 65, 80
5, 12838, Note_on_c, 4, 65, 0
5, 12840, Note_on_c, 4, 65, 80
5, 12958, Note_on_c, 4, 65, 0
5, 12960, Note_on_c, 4, 65, 81
5, 13078, Note_on_c, 4, 65, 0
5, 13080, Note_on_c, 4, 62, 80
5, 13198, Note_on_c, 4, 62, 0
5, 13200, Note_on_c, 4, 60, 80
5, 13318, Note_on_c, 4, 60, 0
5, 13320, Note_on_c, 4, 59, 81
5, 13438, Note_on_c, 4, 59, 0
5, 13440, Note_on_c, 4, 60, 81
5, 13910, Note_on_c, 4, 60, 0
5, 14340, Note_on_c, 4, 55, 79
5, 14399, Note_on_c, 4, 55, 0
5, 14400, Note_on_c, 4, 60, 81
5, 14518, Note_on_c, 4, 60, 0
5, 14520, Note_on_c, 4, 67, 80
5, 14579, Note_on_c, 4, 67, 0
5, 14580, Note_on_c, 4, 67, 79
5, 14756, Note_on_c, 4, 67, 0
5, 14760, Note_on_c, 4, 69, 80
5, 14878, Note_on_c, 4, 69, 0
5, 15180, Note_on_c, 4, 60, 79
5, 15239, Note_on_c, 4, 60, 0
5, 15240, Note_on_c, 4, 60, 81
5, 15358, Note_on_c, 4, 60, 0
5, 15360, Note_on_c, 4, 59, 81
5, 15478, Note_on_c, 4, 59, 0
5, 15480, Note_on_c, 4, 67, 80
5, 15598, Note_on_c, 4, 67, 0
5, 15600, Note_on_c, 4, 67, 80
5, 15659, Note_on_c, 4, 67, 0
5, 15660, Note_on_c, 4, 69, 79
5, 15836, Note_on_c, 4, 69, 0
5, 16320, Note_on_c, 4, 70, 81
5, 16379, Note_on_c, 4, 70, 0
5, 16380, Note_on_c, 4, 70, 79
5, 16556, Note_on_c, 4, 70, 0
5, 16560, Note_on_c, 4, 70, 80
5, 16678, Note_on_c, 4, 70, 0
5, 16680, Note_on_c, 4, 72, 80
5, 16798, Note_on_c, 4, 72, 0
5, 16800, Note_on_c, 4, 74, 81
5, 16829, Note_on_c, 4, 74, 0
5, 16830, Note_on_c, 4, 72, 78
5, 16859, Note_on_c, 4, 72, 0
5, 16860, Note_on_c, 4, 74, 79
5, 16978, Note_on_c, 4, 74, 0
5, 16980, Note_on_c, 4, 72, 79
5, 17039, Note_on_c, 4, 72, 0
5, 17040, Note_on_c, 4, 72, 80
5, 17158, Note_on_c, 4, 72, 0
5, 17160, Note_on_c, 4, 72, 81
5, 17278, Note_on_c, 4, 72, 0
5, 17280, Note_on_c, 4, 70, 81
5, 17339, Note_on_c, 4, 70, 0
5, 17340, Note_on_c, 4, 69, 79
5, 17458, Note_on_c, 4, 69, 0
5, 17460, Note_on_c, 4, 69, 79
5, 17754, Note_on_c, 4, 69, 0
5, 18240, Note_on_c, 4, 60, 81
5, 18358, Note_on_c, 4, 60, 0
5, 18360, Note_on_c, 4, 67, 80
5, 18419, Note_on_c, 4, 67, 0
5, 18420, Note_on_c, 4, 67, 79
5, 18714, Note_on_c, 4, 67, 0
5, 19080, Note_on_c, 4, 60, 81
5, 19139, Note_on_c, 4, 60, 0
5, 19140, Note_on_c, 4, 60, 79
5, 19199, Note_on_c, 4, 60, 0
5, 19200, Note_on_c, 4, 59, 81
5, 19259, Note_on_c, 4, 59, 0
5, 19260, Note_on_c, 4, 67, 79
5, 19378, Note_on_c, 4, 67, 0
5, 19380, Note_on_c, 4, 67, 79
5, 19439, Note_on_c, 4, 67, 0
5, 19440, Note_on_c, 4, 69, 80
5, 19675, Note_on_c, 4, 69, 0
5, 20160, Note_on_c, 4, 70, 81
5, 20219, Note_on_c, 4, 70, 0
5, 20220, Note_on_c, 4, 70, 79
5, 20396, Note_on_c, 4, 70, 0
5, 20400, Note_on_c, 4, 70, 80
5, 20518, Note_on_c, 4, 70, 0
5, 20520, Note_on_c, 4, 72, 80
5, 20638, Note_on_c, 4, 72, 0
5, 20640, Note_on_c, 4, 72, 81
5, 20699, Note_on_c, 4, 72, 0
5, 20700, Note_on_c, 4, 74, 79
5, 20818, Note_on_c, 4, 74, 0
5, 20820, Note_on_c, 4, 64, 79
5, 20879, Note_on_c, 4, 64, 0
5, 20880, Note_on_c, 4, 72, 80
5, 20939, Note_on_c, 4, 72, 0
5, 20940, Note_on_c, 4, 72, 79
5, 21116, Note_on_c, 4, 72, 0
5, 21120, Note_on_c, 4, 70, 81
5, 21179, Note_on_c, 4, 70, 0
5, 21180, Note_on_c, 4, 69, 79
5, 21298, Note_on_c, 4, 69, 0
5, 21300, Note_on_c, 4, 69, 79
5, 21594, Note_on_c, 4, 69, 0
5, 22020, Note_on_c, 4, 60, 79
5, 22079, Note_on_c, 4, 60, 0
5, 22080, Note_on_c, 4, 69, 81
5, 22139, Note_on_c, 4, 69, 0
5, 22140, Note_on_c, 4, 69, 79
5, 22316, Note_on_c, 4, 69, 0
5, 22320, Note_on_c, 4, 69, 80
5, 22438, Note_on_c, 4, 69, 0
5, 22440, Note_on_c, 4, 71, 80
5, 22499, Note_on_c, 4, 71, 0
5, 22500, Note_on_c, 4, 72, 79
5, 22676, Note_on_c, 4, 72, 0
5, 22680, Note_on_c, 4, 72, 80
5, 22798, Note_on_c, 4, 72, 0
5, 22800, Note_on_c, 4, 71, 80
5, 22918, Note_on_c, 4, 71, 0
5, 22920, Note_on_c, 4, 69, 81
5, 23038, Note_on_c, 4, 69, 0
5, 23040, Note_on_c, 4, 69, 81
5, 23099, Note_on_c, 4, 69, 0
5, 23100, Note_on_c, 4, 67, 79
5, 23512, Note_on_c, 4, 67, 0
5, 23700, Note_on_c, 4, 55, 79
5, 23759, Note_on_c, 4, 55, 0
5, 23760, Note_on_c, 4, 57, 80
5, 23878, Note_on_c, 4, 57, 0
5, 23880, Note_on_c, 4, 60, 81
5, 23998, Note_on_c, 4, 60, 0
5, 24000, Note_on_c, 4, 65, 81
5, 24059, Note_on_c, 4, 65, 0
5, 24060, Note_on_c, 4, 65, 79
5, 24236, Note_on_c, 4, 65, 0
5, 24240, Note_on_c, 4, 65, 80
5, 24358, Note_on_c, 4, 65, 0
5, 24360, Note_on_c, 4, 65, 80
5, 24478, Note_on_c, 4, 65, 0
5, 24480, Note_on_c, 4, 65, 81
5, 24598, Note_on_c, 4, 65, 0
5, 24600, Note_on_c, 4, 62, 80
5, 24718, Note_on_c, 4, 62, 0
5, 24720, Note_on_c, 4, 60, 80
5, 24838, Note_on_c, 4, 60, 0
5, 24840, Note_on_c, 4, 59, 81
5, 24958, Note_on_c, 4, 59, 0
5, 24960, Note_on_c, 4, 60, 81
5, 25430, Note_on_c, 4, 60, 0
5, 25860, Note_on_c, 4, 60, 79
5, 25919, Note_on_c, 4, 60, 0
5, 25920, Note_on_c, 4, 69, 81
5, 26096, Note_on_c, 4, 69, 0
5, 26100, Note_on_c, 4, 69, 79
5, 26159, Note_on_c, 4, 69, 0
5, 26160, Note_on_c, 4, 69, 80
5, 26219, Note_on_c, 4, 69, 0
5, 26220, Note_on_c, 4, 71, 79
5, 26338, Note_on_c, 4, 71, 0
5, 26340, Note_on_c, 4, 72, 79
5, 26575, Note_on_c, 4, 72, 0
5, 26580, Note_on_c, 4, 60, 79
5, 26639, Note_on_c, 4, 60, 0
5, 26640, Note_on_c, 4, 71, 80
5, 26816, Note_on_c, 4, 71, 0
5, 26820, Note_on_c, 4, 69, 79
5, 26879, Note_on_c, 4, 69, 0
5, 26880, Note_on_c, 4, 69, 81
5, 26998, Note_on_c, 4, 69, 0
5, 27000, Note_on_c, 4, 67, 80
5, 27353, Note_on_c, 4, 67, 0
5, 27780, Note_on_c, 4, 60, 79
5, 27839, Note_on_c, 4, 60, 0
5, 27840, Note_on_c, 4, 65, 81
5, 27899, Note_on_c, 4, 65, 0
5, 27900, Note_on_c, 4, 65, 79
5, 28076, Note_on_c, 4, 65, 0
5, 28080, Note_on_c, 4, 69, 80
5, 28139, Note_on_c, 4, 69, 0
5, 28140, Note_on_c, 4, 69, 79
5, 28316, Note_on_c, 4, 69, 0
5, 28320, Note_on_c, 4, 67, 81
5, 28379, Note_on_c, 4, 67, 0
5, 28380, Note_on_c, 4, 62, 79
5, 28556, Note_on_c, 4, 62, 0
5, 28680, Note_on_c, 4, 60, 81
5, 28739, Note_on_c, 4, 60, 0
5, 28740, Note_on_c, 4, 62, 79
5, 28799, Note_on_c, 4, 62, 0
5, 28800, Note_on_c, 4, 64, 81
5, 29270, Note_on_c, 4, 64, 0
5, 29700, Note_on_c, 4, 60, 79
5, 29759, Note_on_c, 4, 60, 0
5, 29760, Note_on_c, 4, 69, 81
5, 29936, Note_on_c, 4, 69, 0
5, 29940, Note_on_c, 4, 69, 79
5, 29999, Note_on_c, 4, 69, 0
5, 30000, Note_on_c, 4, 69, 80
5, 30118, Note_on_c, 4, 69, 0
5, 30120, Note_on_c, 4, 71, 80
5, 30238, Note_on_c, 4, 71, 0
5, 30240, Note_on_c, 4, 72, 81
5, 30358, Note_on_c, 4, 72, 0
5, 30360, Note_on_c, 4, 72, 80
5, 30478, Note_on_c, 4, 72, 0
5, 30480, Note_on_c, 4, 71, 80
5, 30656, Note_on_c, 4, 71, 0
5, 30660, Note_on_c, 4, 69, 79
5, 30719, Note_on_c, 4, 69, 0
5, 30720, Note_on_c, 4, 69, 81
5, 30838, Note_on_c, 4, 69, 0
5, 30840, Note_on_c, 4, 67, 80
5, 31193, Note_on_c, 4, 67, 0
5, 31380, Note_on_c, 4, 57, 79
5, 31439, Note_on_c, 4, 57, 0
5, 31440, Note_on_c, 4, 57, 80
5, 31499, Note_on_c, 4, 57, 0
5, 31500, Note_on_c, 4, 60, 79
5, 31676, Note_on_c, 4, 60, 0
5, 31680, Note_on_c, 4, 67, 81
5, 32033, Note_on_c, 4, 67, 0
5, 32040, Note_on_c, 4, 69, 80
5, 32099, Note_on_c, 4, 69, 0
5, 32100, Note_on_c, 4, 67, 79
5, 32159, Note_on_c, 4, 67, 0
5, 32160, Note_on_c, 4, 64, 81
5, 32572, Note_on_c, 4, 64, 0
5, 32580, Note_on_c, 4, 60, 79
5, 32639, Note_on_c, 4, 60, 0
5, 32640, Note_on_c, 4, 64, 81
5, 32699, Note_on_c, 4, 64, 0
5, 32700, Note_on_c, 4, 62, 79
5, 32759, Note_on_c, 4, 62, 0
5, 32760, Note_on_c, 4, 60, 80
5, 32878, Note_on_c, 4, 60, 0
5, 32880, Note_on_c, 4, 60, 80
5, 32998, Note_on_c, 4, 60, 0
5, 33000, Note_on_c, 4, 57, 80
5, 33059, Note_on_c, 4, 57, 0
5, 33060, Note_on_c, 4, 62, 79
5, 33589, Note_on_c, 4, 62, 0
5, 34980, Note_on_c, 4, 55, 79
5, 35039, Note_on_c, 4, 55, 0
5, 35040, Note_on_c, 4, 60, 81
5, 35158, Note_on_c, 4, 60, 0
5, 35160, Note_on_c, 4, 67, 80
5, 35219, Note_on_c, 4, 67, 0
5, 35220, Note_on_c, 4, 67, 79
5, 35396, Note_on_c, 4, 67, 0
5, 35400, Note_on_c, 4, 69, 81
5, 35518, Note_on_c, 4, 69, 0
5, 35820, Note_on_c, 4, 60, 79
5, 35879, Note_on_c, 4, 60, 0
5, 35880, Note_on_c, 4, 60, 80
5, 35998, Note_on_c, 4, 60, 0
5, 36000, Note_on_c, 4, 59, 81
5, 36118, Note_on_c, 4, 59, 0
5, 36120, Note_on_c, 4, 67, 80
5, 36238, Note_on_c, 4, 67, 0
5, 36240, Note_on_c, 4, 67, 80
5, 36299, Note_on_c, 4, 67, 0
5, 36300, Note_on_c, 4, 69, 79
5, 36476, Note_on_c, 4, 69, 0
5, 36960, Note_on_c, 4, 70, 81
5, 37019, Note_on_c, 4, 70, 0
5, 37020, Note_on_c, 4, 70, 79
5, 37196, Note_on_c, 4, 70, 0
5, 37200, Note_on_c, 4, 70, 80
5, 37318, Note_on_c, 4, 70, 0
5, 37320, Note_on_c, 4, 72, 81
5, 37438, Note_on_c, 4, 72, 0
5, 37440, Note_on_c, 4, 74, 81
5, 37469, Note_on_c, 4, 74, 0
5, 37470, Note_on_c, 4, 72, 78
5, 37499, Note_on_c, 4, 72, 0
5, 37500, Note_on_c, 4, 74, 79
5, 37618, Note_on_c, 4, 74, 0
5, 37620, Note_on_c, 4, 72, 79
5, 37679, Note_on_c, 4, 72, 0
5, 37680, Note_on_c, 4, 72, 80
5, 37798, Note_on_c, 4, 72, 0
5, 37800, Note_on_c, 4, 72, 80
5, 37918, Note_on_c, 4, 72, 0
5, 37920, Note_on_c, 4, 70, 81
5, 37979, Note_on_c, 4, 70, 0
5, 37980, Note_on_c, 4, 69, 79
5, 38098, Note_on_c, 4, 69, 0
5, 38100, Note_on_c, 4, 69, 79
5, 38394, Note_on_c, 4, 69, 0
5, 38880, Note_on_c, 4, 60, 81
5, 38998, Note_on_c, 4, 60, 0
5, 39000, Note_on_c, 4, 67, 80
5, 39059, Note_on_c, 4, 67, 0
5, 39060, Note_on_c, 4, 67, 79
5, 39354, Note_on_c, 4, 67, 0
5, 39720, Note_on_c, 4, 60, 80
5, 39779, Note_on_c, 4, 60, 0
5, 39780, Note_on_c, 4, 60, 79
5, 39839, Note_on_c, 4, 60, 0
5, 39840, Note_on_c, 4, 59, 81
5, 39899, Note_on_c, 4, 59, 0
5, 39900, Note_on_c, 4, 67, 79
5, 40018, Note_on_c, 4, 67, 0
5, 40020, Note_on_c, 4, 67, 79
5, 40079, Note_on_c, 4, 67, 0
5, 40080, Note_on_c, 4, 69, 80
5, 40315, Note_on_c, 4, 69, 0
5, 40800, Note_on_c, 4, 70, 81
5, 40859, Note_on_c, 4, 70, 0
5, 40860, Note_on_c, 4, 70, 79
5, 41036, Note_on_c, 4, 70, 0
5, 41040, Note_on_c, 4, 70, 80
5, 41158, Note_on_c, 4, 70, 0
5, 41160, Note_on_c, 4, 72, 81
5, 41278, Note_on_c, 4, 72, 0
5, 41280, Note_on_c, 4, 72, 81
5, 41339, Note_on_c, 4, 72, 0
5, 41340, Note_on_c, 4, 74, 79
5, 41458, Note_on_c, 4, 74, 0
5, 41460, Note_on_c, 4, 64, 79
5, 41519, Note_on_c, 4, 64, 0
5, 41520, Note_on_c, 4, 72, 80
5, 41579, Note_on_c, 4, 72, 0
5, 41580, Note_on_c, 4, 72, 79
5, 41756, Note_on_c, 4, 72, 0
5, 41760, Note_on_c, 4, 70, 81
5, 41819, Note_on_c, 4, 70, 0
5, 41820, Note_on_c, 4, 69, 79
5, 41938, Note_on_c, 4, 69, 0
5, 41940, Note_on_c, 4, 69, 79
5, 42234, Note_on_c, 4, 69, 0
5, 42660, Note_on_c, 4, 60, 79
5, 42719, Note_on_c, 4, 60, 0
5, 42720, Note_on_c, 4, 69, 81
5, 42779, Note_on_c, 4, 69, 0
5, 42780, Note_on_c, 4, 69, 79
5, 42956, Note_on_c, 4, 69, 0
5, 42960, Note_on_c, 4, 69, 80
5, 43078, Note_on_c, 4, 69, 0
5, 43080, Note_on_c, 4, 71, 81
5, 43139, Note_on_c, 4, 71, 0
5, 43140, Note_on_c, 4, 72, 79
5, 43316, Note_on_c, 4, 72, 0
5, 43320, Note_on_c, 4, 72, 80
5, 43438, Note_on_c, 4, 72, 0
5, 43440, Note_on_c, 4, 71, 80
5, 43558, Note_on_c, 4, 71, 0
5, 43560, Note_on_c, 4, 69, 80
5, 43678, Note_on_c, 4, 69, 0
5, 43680, Note_on_c, 4, 69, 81
5, 43739, Note_on_c, 4, 69, 0
5, 43740, Note_on_c, 4, 67, 79
5, 44152, Note_on_c, 4, 67, 0
5, 44340, Note_on_c, 4, 55, 79
5, 44399, Note_on_c, 4, 55, 0
5, 44400, Note_on_c, 4, 57, 80
5, 44518, Note_on_c, 4, 57, 0
5, 44520, Note_on_c, 4, 60, 80
5, 44638, Note_on_c, 4, 60, 0
5, 44640, Note_on_c, 4, 65, 81
5, 44699, Note_on_c, 4, 65, 0
5, 44700, Note_on_c, 4, 65, 79
5, 44876, Note_on_c, 4, 65, 0
5, 44880, Note_on_c, 4, 65, 80
5, 44998, Note_on_c, 4, 65, 0
5, 45000, Note_on_c, 4, 65, 81
5, 45118, Note_on_c, 4, 65, 0
5, 45120, Note_on_c, 4, 65, 81
5, 45296, Note_on_c, 4, 65, 0
5, 45300, Note_on_c, 4, 62, 79
5, 45359, Note_on_c, 4, 62, 0
5, 45360, Note_on_c, 4, 60, 80
5, 45478, Note_on_c, 4, 60, 0
5, 45480, Note_on_c, 4, 59, 80
5, 45598, Note_on_c, 4, 59, 0
5, 45600, Note_on_c, 4, 60, 81
5, 46070, Note_on_c, 4, 60, 0
5, 46070, End_track
6, 0, Start_track
6, 0, MIDI_port, 0
6, 0, Title_t, "Melody 2"
6, 0, Control_c, 5, 121, 0
6, 0, Control_c, 5, 123, 0
6, 0, Control_c, 5, 1, 0
6, 0, Control_c, 5, 91, 45
6, 0, Control_c, 5, 93, 40
6, 147, Program_c, 5, 0
6, 148, Control_c, 5, 7, 90
6, 148, Control_c, 5, 10, 49
6, 1200, Note_on_c, 5, 72, 83
6, 1200, Note_on_c, 5, 76, 83
6, 1380, Note_on_c, 5, 76, 0
6, 1380, Note_on_c, 5, 72, 0
6, 1380, Note_on_c, 5, 71, 83
6, 1380, Note_on_c, 5, 74, 83
6, 1440, Note_on_c, 5, 74, 0
6, 1440, Note_on_c, 5, 71, 0
6, 1440, Note_on_c, 5, 74, 83
6, 1440, Note_on_c, 5, 77, 83
6, 1500, Note_on_c, 5, 77, 0
6, 1500, Note_on_c, 5, 74, 0
6, 1500, Note_on_c, 5, 72, 83
6, 1500, Note_on_c, 5, 76, 83
6, 1680, Note_on_c, 5, 76, 0
6, 1680, Note_on_c, 5, 72, 0
6, 1680, Note_on_c, 5, 71, 83
6, 1680, Note_on_c, 5, 74, 83
6, 1800, Note_on_c, 5, 74, 0
6, 1800, Note_on_c, 5, 71, 0
6, 1800, Note_on_c, 5, 69, 83
6, 1800, Note_on_c, 5, 72, 83
6, 1920, Note_on_c, 5, 72, 0
6, 1920, Note_on_c, 5, 69, 0
6, 1920, Note_on_c, 5, 64, 83
6, 1920, Note_on_c, 5, 67, 83
6, 2280, Note_on_c, 5, 67, 0
6, 2280, Note_on_c, 5, 64, 0
6, 2280, Note_on_c, 5, 62, 83
6, 2280, Note_on_c, 5, 65, 83
6, 2400, Note_on_c, 5, 65, 0
6, 2400, Note_on_c, 5, 62, 0
6, 2400, Note_on_c, 5, 60, 83
6, 2400, Note_on_c, 5, 64, 83
6, 2640, Note_on_c, 5, 64, 0
6, 2640, Note_on_c, 5, 60, 0
6, 2640, Note_on_c, 5, 59, 83
6, 2640, Note_on_c, 5, 62, 83
6, 2820, Note_on_c, 5, 62, 0
6, 2820, Note_on_c, 5, 59, 0
6, 2820, Note_on_c, 5, 55, 83
6, 2880, Note_on_c, 5, 55, 0
6, 2880, Note_on_c, 5, 60, 83
6, 3000, Note_on_c, 5, 60, 0
6, 3000, Note_on_c, 5, 67, 83
6, 3060, Note_on_c, 5, 67, 0
6, 3060, Note_on_c, 5, 60, 83
6, 3060, Note_on_c, 5, 64, 83
6, 3060, Note_on_c, 5, 67, 83
6, 3240, Note_on_c, 5, 67, 0
6, 3240, Note_on_c, 5, 69, 83
6, 3360, Note_on_c, 5, 69, 0
6, 3360, Note_on_c, 5, 64, 0
6, 3360, Note_on_c, 5, 60, 0
6, 3660, Note_on_c, 5, 60, 83
6, 3720, Note_on_c, 5, 60, 0
6, 3720, Note_on_c, 5, 60, 83
6, 3840, Note_on_c, 5, 60, 0
6, 3840, Note_on_c, 5, 59, 83
6, 3960, Note_on_c, 5, 59, 0
6, 3960, Note_on_c, 5, 67, 83
6, 4080, Note_on_c, 5, 67, 0
6, 4080, Note_on_c, 5, 67, 83
6, 4140, Note_on_c, 5, 67, 0
6, 4140, Note_on_c, 5, 69, 83
6, 4320, Note_on_c, 5, 69, 0
6, 4800, Note_on_c, 5, 70, 83
6, 4860, Note_on_c, 5, 70, 0
6, 4860, Note_on_c, 5, 70, 83
6, 5040, Note_on_c, 5, 70, 0
6, 5040, Note_on_c, 5, 70, 83
6, 5160, Note_on_c, 5, 70, 0
6, 5160, Note_on_c, 5, 72, 83
6, 5280, Note_on_c, 5, 72, 0
6, 5280, Note_on_c, 5, 74, 83
6, 5310, Note_on_c, 5, 74, 0
6, 5310, Note_on_c, 5, 72, 83
6, 5340, Note_on_c, 5, 72, 0
6, 5340, Note_on_c, 5, 74, 83
6, 5460, Note_on_c, 5, 74, 0
6, 5460, Note_on_c, 5, 72, 83
6, 5520, Note_on_c, 5, 72, 0
6, 5520, Note_on_c, 5, 72, 83
6, 5640, Note_on_c, 5, 72, 0
6, 5640, Note_on_c, 5, 72, 83
6, 5760, Note_on_c, 5, 72, 0
6, 5760, Note_on_c, 5, 60, 83
6, 5760, Note_on_c, 5, 65, 83
6, 5760, Note_on_c, 5, 70, 83
6, 5820, Note_on_c, 5, 70, 0
6, 5820, Note_on_c, 5, 65, 0
6, 5820, Note_on_c, 5, 60, 0
6, 5820, Note_on_c, 5, 69, 83
6, 5940, Note_on_c, 5, 69, 0
6, 5940, Note_on_c, 5, 60, 83
6, 5940, Note_on_c, 5, 65, 83
6, 5940, Note_on_c, 5, 69, 83
6, 6240, Note_on_c, 5, 69, 0
6, 6240, Note_on_c, 5, 65, 0
6, 6240, Note_on_c, 5, 60, 0
6, 6720, Note_on_c, 5, 60, 83
6, 6840, Note_on_c, 5, 60, 0
6, 6840, Note_on_c, 5, 67, 83
6, 6900, Note_on_c, 5, 67, 0
6, 6900, Note_on_c, 5, 60, 83
6, 6900, Note_on_c, 5, 64, 83
6, 6900, Note_on_c, 5, 67, 83
6, 7200, Note_on_c, 5, 67, 0
6, 7200, Note_on_c, 5, 64, 0
6, 7200, Note_on_c, 5, 60, 0
6, 7560, Note_on_c, 5, 60, 83
6, 7620, Note_on_c, 5, 60, 0
6, 7620, Note_on_c, 5, 60, 83
6, 7680, Note_on_c, 5, 60, 0
6, 7680, Note_on_c, 5, 59, 83
6, 7740, Note_on_c, 5, 59, 0
6, 7740, Note_on_c, 5, 67, 83
6, 7860, Note_on_c, 5, 67, 0
6, 7860, Note_on_c, 5, 67, 83
6, 7920, Note_on_c, 5, 67, 0
6, 7920, Note_on_c, 5, 59, 83
6, 7920, Note_on_c, 5, 64, 83
6, 7920, Note_on_c, 5, 69, 83
6, 8160, Note_on_c, 5, 69, 0
6, 8160, Note_on_c, 5, 64, 0
6, 8160, Note_on_c, 5, 59, 0
6, 8640, Note_on_c, 5, 70, 83
6, 8700, Note_on_c, 5, 70, 0
6, 8700, Note_on_c, 5, 70, 83
6, 8880, Note_on_c, 5, 70, 0
6, 8880, Note_on_c, 5, 70, 83
6, 9000, Note_on_c, 5, 70, 0
6, 9000, Note_on_c, 5, 72, 83
6, 9120, Note_on_c, 5, 72, 0
6, 9120, Note_on_c, 5, 72, 83
6, 9180, Note_on_c, 5, 72, 0
6, 9180, Note_on_c, 5, 74, 83
6, 9300, Note_on_c, 5, 74, 0
6, 9300, Note_on_c, 5, 64, 83
6, 9360, Note_on_c, 5, 64, 0
6, 9360, Note_on_c, 5, 72, 83
6, 9420, Note_on_c, 5, 72, 0
6, 9420, Note_on_c, 5, 72, 83
6, 9600, Note_on_c, 5, 72, 0
6, 9600, Note_on_c, 5, 60, 83
6, 9600, Note_on_c, 5, 65, 83
6, 9600, Note_on_c, 5, 70, 83
6, 9660, Note_on_c, 5, 70, 0
6, 9660, Note_on_c, 5, 65, 0
6, 9660, Note_on_c, 5, 60, 0
6, 9660, Note_on_c, 5, 69, 83
6, 9780, Note_on_c, 5, 69, 0
6, 9780, Note_on_c, 5, 60, 83
6, 9780, Note_on_c, 5, 65, 83
6, 9780, Note_on_c, 5, 69, 83
6, 10080, Note_on_c, 5, 69, 0
6, 10080, Note_on_c, 5, 65, 0
6, 10080, Note_on_c, 5, 60, 0
6, 10500, Note_on_c, 5, 60, 83
6, 10560, Note_on_c, 5, 60, 0
6, 10560, Note_on_c, 5, 69, 83
6, 10620, Note_on_c, 5, 69, 0
6, 10620, Note_on_c, 5, 69, 83
6, 10800, Note_on_c, 5, 69, 0
6, 10800, Note_on_c, 5, 69, 83
6, 10920, Note_on_c, 5, 69, 0
6, 10920, Note_on_c, 5, 71, 83
6, 10980, Note_on_c, 5, 71, 0
6, 10980, Note_on_c, 5, 72, 83
6, 11160, Note_on_c, 5, 72, 0
6, 11160, Note_on_c, 5, 72, 83
6, 11280, Note_on_c, 5, 72, 0
6, 11280, Note_on_c, 5, 71, 83
6, 11400, Note_on_c, 5, 71, 0
6, 11400, Note_on_c, 5, 69, 83
6, 11520, Note_on_c, 5, 69, 0
6, 11520, Note_on_c, 5, 69, 83
6, 11580, Note_on_c, 5, 69, 0
6, 11580, Note_on_c, 5, 67, 83
6, 12000, Note_on_c, 5, 67, 0
6, 12180, Note_on_c, 5, 55, 83
6, 12240, Note_on_c, 5, 55, 0
6, 12240, Note_on_c, 5, 57, 83
6, 12360, Note_on_c, 5, 57, 0
6, 12360, Note_on_c, 5, 60, 83
6, 12480, Note_on_c, 5, 60, 0
6, 12480, Note_on_c, 5, 65, 83
6, 12540, Note_on_c, 5, 65, 0
6, 12540, Note_on_c, 5, 65, 83
6, 12720, Note_on_c, 5, 65, 0
6, 12720, Note_on_c, 5, 65, 83
6, 12840, Note_on_c, 5, 65, 0
6, 12840, Note_on_c, 5, 65, 83
6, 12960, Note_on_c, 5, 65, 0
6, 12960, Note_on_c, 5, 65, 83
6, 13080, Note_on_c, 5, 65, 0
6, 13080, Note_on_c, 5, 62, 83
6, 13200, Note_on_c, 5, 62, 0
6, 13200, Note_on_c, 5, 60, 83
6, 13320, Note_on_c, 5, 60, 0
6, 13320, Note_on_c, 5, 59, 83
6, 13440, Note_on_c, 5, 59, 0
6, 13440, Note_on_c, 5, 60, 83
6, 13920, Note_on_c, 5, 60, 0
6, 14340, Note_on_c, 5, 55, 83
6, 14400, Note_on_c, 5, 55, 0
6, 14400, Note_on_c, 5, 60, 83
6, 14520, Note_on_c, 5, 60, 0
6, 14520, Note_on_c, 5, 67, 83
6, 14580, Note_on_c, 5, 67, 0
6, 14580, Note_on_c, 5, 60, 83
6, 14580, Note_on_c, 5, 64, 83
6, 14580, Note_on_c, 5, 67, 83
6, 14760, Note_on_c, 5, 67, 0
6, 14760, Note_on_c, 5, 69, 83
6, 14880, Note_on_c, 5, 69, 0
6, 14880, Note_on_c, 5, 64, 0
6, 14880, Note_on_c, 5, 60, 0
6, 15180, Note_on_c, 5, 60, 83
6, 15240, Note_on_c, 5, 60, 0
6, 15240, Note_on_c, 5, 60, 83
6, 15360, Note_on_c, 5, 60, 0
6, 15360, Note_on_c, 5, 59, 83
6, 15480, Note_on_c, 5, 59, 0
6, 15480, Note_on_c, 5, 67, 83
6, 15600, Note_on_c, 5, 67, 0
6, 15600, Note_on_c, 5, 67, 83
6, 15660, Note_on_c, 5, 67, 0
6, 15660, Note_on_c, 5, 69, 83
6, 15840, Note_on_c, 5, 69, 0
6, 16320, Note_on_c, 5, 70, 83
6, 16380, Note_on_c, 5, 70, 0
6, 16380, Note_on_c, 5, 70, 83
6, 16560, Note_on_c, 5, 70, 0
6, 16560, Note_on_c, 5, 70, 83
6, 16680, Note_on_c, 5, 70, 0
6, 16680, Note_on_c, 5, 72, 83
6, 16800, Note_on_c, 5, 72, 0
6, 16800, Note_on_c, 5, 74, 83
6, 16830, Note_on_c, 5, 74, 0
6, 16830, Note_on_c, 5, 72, 83
6, 16860, Note_on_c, 5, 72, 0
6, 16860, Note_on_c, 5, 74, 83
6, 16980, Note_on_c, 5, 74, 0
6, 16980, Note_on_c, 5, 72, 83
6, 17040, Note_on_c, 5, 72, 0
6, 17040, Note_on_c, 5, 72, 83
6, 17160, Note_on_c, 5, 72, 0
6, 17160, Note_on_c, 5, 72, 83
6, 17280, Note_on_c, 5, 72, 0
6, 17280, Note_on_c, 5, 60, 83
6, 17280, Note_on_c, 5, 65, 83
6, 17280, Note_on_c, 5, 70, 83
6, 17340, Note_on_c, 5, 70, 0
6, 17340, Note_on_c, 5, 65, 0
6, 17340, Note_on_c, 5, 60, 0
6, 17340, Note_on_c, 5, 69, 83
6, 17460, Note_on_c, 5, 69, 0
6, 17460, Note_on_c, 5, 60, 83
6, 17460, Note_on_c, 5, 65, 83
6, 17460, Note_on_c, 5, 69, 83
6, 17760, Note_on_c, 5, 69, 0
6, 17760, Note_on_c, 5, 65, 0
6, 17760, Note_on_c, 5, 60, 0
6, 18240, Note_on_c, 5, 60, 83
6, 18360, Note_on_c, 5, 60, 0
6, 18360, Note_on_c, 5, 67, 83
6, 18420, Note_on_c, 5, 67, 0
6, 18420, Note_on_c, 5, 60, 83
6, 18420, Note_on_c, 5, 64, 83
6, 18420, Note_on_c, 5, 67, 83
6, 18720, Note_on_c, 5, 67, 0
6, 18720, Note_on_c, 5, 64, 0
6, 18720, Note_on_c, 5, 60, 0
6, 19080, Note_on_c, 5, 60, 83
6, 19140, Note_on_c, 5, 60, 0
6, 19140, Note_on_c, 5, 60, 83
6, 19200, Note_on_c, 5, 60, 0
6, 19200, Note_on_c, 5, 59, 83
6, 19260, Note_on_c, 5, 59, 0
6, 19260, Note_on_c, 5, 67, 83
6, 19380, Note_on_c, 5, 67, 0
6, 19380, Note_on_c, 5, 67, 83
6, 19440, Note_on_c, 5, 67, 0
6, 19440, Note_on_c, 5, 69, 83
6, 19440, Note_on_c, 5, 59, 83
6, 19440, Note_on_c, 5, 64, 83
6, 19680, Note_on_c, 5, 64, 0
6, 19680, Note_on_c, 5, 59, 0
6, 19680, Note_on_c, 5, 69, 0
6, 20160, Note_on_c, 5, 70, 83
6, 20220, Note_on_c, 5, 70, 0
6, 20220, Note_on_c, 5, 70, 83
6, 20400, Note_on_c, 5, 70, 0
6, 20400, Note_on_c, 5, 70, 83
6, 20520, Note_on_c, 5, 70, 0
6, 20520, Note_on_c, 5, 72, 83
6, 20640, Note_on_c, 5, 72, 0
6, 20640, Note_on_c, 5, 72, 83
6, 20700, Note_on_c, 5, 72, 0
6, 20700, Note_on_c, 5, 74, 83
6, 20820, Note_on_c, 5, 74, 0
6, 20820, Note_on_c, 5, 64, 83
6, 20880, Note_on_c, 5, 64, 0
6, 20880, Note_on_c, 5, 72, 83
6, 20940, Note_on_c, 5, 72, 0
6, 20940, Note_on_c, 5, 72, 83
6, 21120, Note_on_c, 5, 72, 0
6, 21120, Note_on_c, 5, 70, 83
6, 21120, Note_on_c, 5, 65, 83
6, 21120, Note_on_c, 5, 60, 83
6, 21180, Note_on_c, 5, 60, 0
6, 21180, Note_on_c, 5, 65, 0
6, 21180, Note_on_c, 5, 70, 0
6, 21180, Note_on_c, 5, 69, 83
6, 21300, Note_on_c, 5, 69, 0
6, 21300, Note_on_c, 5, 69, 83
6, 21300, Note_on_c, 5, 65, 83
6, 21300, Note_on_c, 5, 60, 83
6, 21600, Note_on_c, 5, 60, 0
6, 21600, Note_on_c, 5, 65, 0
6, 21600, Note_on_c, 5, 69, 0
6, 22020, Note_on_c, 5, 60, 83
6, 22080, Note_on_c, 5, 60, 0
6, 22080, Note_on_c, 5, 69, 83
6, 22140, Note_on_c, 5, 69, 0
6, 22140, Note_on_c, 5, 69, 83
6, 22320, Note_on_c, 5, 69, 0
6, 22320, Note_on_c, 5, 69, 83
6, 22440, Note_on_c, 5, 69, 0
6, 22440, Note_on_c, 5, 71, 83
6, 22500, Note_on_c, 5, 71, 0
6, 22500, Note_on_c, 5, 72, 83
6, 22680, Note_on_c, 5, 72, 0
6, 22680, Note_on_c, 5, 72, 83
6, 22800, Note_on_c, 5, 72, 0
6, 22800, Note_on_c, 5, 71, 83
6, 22920, Note_on_c, 5, 71, 0
6, 22920, Note_on_c, 5, 69, 83
6, 23040, Note_on_c, 5, 69, 0
6, 23040, Note_on_c, 5, 69, 83
6, 23100, Note_on_c, 5, 69, 0
6, 23100, Note_on_c, 5, 67, 83
6, 23520, Note_on_c, 5, 67, 0
6, 23700, Note_on_c, 5, 55, 83
6, 23760, Note_on_c, 5, 55, 0
6, 23760, Note_on_c, 5, 57, 83
6, 23880, Note_on_c, 5, 57, 0
6, 23880, Note_on_c, 5, 60, 83
6, 24000, Note_on_c, 5, 60, 0
6, 24000, Note_on_c, 5, 65, 83
6, 24060, Note_on_c, 5, 65, 0
6, 24060, Note_on_c, 5, 65, 83
6, 24240, Note_on_c, 5, 65, 0
6, 24240, Note_on_c, 5, 65, 83
6, 24360, Note_on_c, 5, 65, 0
6, 24360, Note_on_c, 5, 65, 83
6, 24480, Note_on_c, 5, 65, 0
6, 24480, Note_on_c, 5, 65, 83
6, 24600, Note_on_c, 5, 65, 0
6, 24600, Note_on_c, 5, 62, 83
6, 24720, Note_on_c, 5, 62, 0
6, 24720, Note_on_c, 5, 60, 83
6, 24840, Note_on_c, 5, 60, 0
6, 24840, Note_on_c, 5, 59, 83
6, 24960, Note_on_c, 5, 59, 0
6, 24960, Note_on_c, 5, 60, 83
6, 25440, Note_on_c, 5, 60, 0
6, 25860, Note_on_c, 5, 60, 83
6, 25920, Note_on_c, 5, 60, 0
6, 25920, Note_on_c, 5, 69, 83
6, 26100, Note_on_c, 5, 69, 0
6, 26100, Note_on_c, 5, 69, 83
6, 26160, Note_on_c, 5, 69, 0
6, 26160, Note_on_c, 5, 69, 83
6, 26220, Note_on_c, 5, 69, 0
6, 26220, Note_on_c, 5, 71, 83
6, 26340, Note_on_c, 5, 71, 0
6, 26340, Note_on_c, 5, 65, 83
6, 26340, Note_on_c, 5, 72, 83
6, 26580, Note_on_c, 5, 72, 0
6, 26580, Note_on_c, 5, 65, 0
6, 26580, Note_on_c, 5, 60, 83
6, 26640, Note_on_c, 5, 60, 0
6, 26640, Note_on_c, 5, 65, 83
6, 26640, Note_on_c, 5, 71, 83
6, 26820, Note_on_c, 5, 71, 0
6, 26820, Note_on_c, 5, 65, 0
6, 26820, Note_on_c, 5, 69, 83
6, 26880, Note_on_c, 5, 69, 0
6, 26880, Note_on_c, 5, 69, 83
6, 27000, Note_on_c, 5, 69, 0
6, 27000, Note_on_c, 5, 67, 83
6, 27360, Note_on_c, 5, 67, 0
6, 27780, Note_on_c, 5, 60, 83
6, 27840, Note_on_c, 5, 60, 0
6, 27840, Note_on_c, 5, 65, 83
6, 27900, Note_on_c, 5, 65, 0
6, 27900, Note_on_c, 5, 65, 83
6, 28080, Note_on_c, 5, 65, 0
6, 28080, Note_on_c, 5, 69, 83
6, 28140, Note_on_c, 5, 69, 0
6, 28140, Note_on_c, 5, 69, 83
6, 28320, Note_on_c, 5, 69, 0
6, 28320, Note_on_c, 5, 67, 83
6, 28380, Note_on_c, 5, 67, 0
6, 28380, Note_on_c, 5, 53, 83
6, 28380, Note_on_c, 5, 59, 83
6, 28380, Note_on_c, 5, 62, 83
6, 28560, Note_on_c, 5, 62, 0
6, 28560, Note_on_c, 5, 59, 0
6, 28560, Note_on_c, 5, 53, 0
6, 28680, Note_on_c, 5, 60, 83
6, 28740, Note_on_c, 5, 60, 0
6, 28740, Note_on_c, 5, 62, 83
6, 28800, Note_on_c, 5, 62, 0
6, 28800, Note_on_c, 5, 64, 83
6, 29280, Note_on_c, 5, 64, 0
6, 29700, Note_on_c, 5, 60, 83
6, 29760, Note_on_c, 5, 60, 0
6, 29760, Note_on_c, 5, 69, 83
6, 29940, Note_on_c, 5, 69, 0
6, 29940, Note_on_c, 5, 69, 83
6, 30000, Note_on_c, 5, 69, 0
6, 30000, Note_on_c, 5, 69, 83
6, 30120, Note_on_c, 5, 69, 0
6, 30120, Note_on_c, 5, 71, 83
6, 30240, Note_on_c, 5, 71, 0
6, 30240, Note_on_c, 5, 72, 83
6, 30360, Note_on_c, 5, 72, 0
6, 30360, Note_on_c, 5, 72, 83
6, 30480, Note_on_c, 5, 72, 0
6, 30480, Note_on_c, 5, 71, 83
6, 30660, Note_on_c, 5, 71, 0
6, 30660, Note_on_c, 5, 69, 83
6, 30720, Note_on_c, 5, 69, 0
6, 30720, Note_on_c, 5, 69, 83
6, 30840, Note_on_c, 5, 69, 0
6, 30840, Note_on_c, 5, 67, 83
6, 31200, Note_on_c, 5, 67, 0
6, 31380, Note_on_c, 5, 57, 83
6, 31440, Note_on_c, 5, 57, 0
6, 31440, Note_on_c, 5, 57, 83
6, 31500, Note_on_c, 5, 57, 0
6, 31500, Note_on_c, 5, 60, 83
6, 31680, Note_on_c, 5, 60, 0
6, 31680, Note_on_c, 5, 67, 83
6, 32040, Note_on_c, 5, 67, 0
6, 32040, Note_on_c, 5, 69, 83
6, 32100, Note_on_c, 5, 69, 0
6, 32100, Note_on_c, 5, 67, 83
6, 32160, Note_on_c, 5, 67, 0
6, 32160, Note_on_c, 5, 60, 83
6, 32160, Note_on_c, 5, 64, 83
6, 32580, Note_on_c, 5, 64, 0
6, 32580, Note_on_c, 5, 60, 0
6, 32580, Note_on_c, 5, 60, 83
6, 32640, Note_on_c, 5, 60, 0
6, 32640, Note_on_c, 5, 64, 83
6, 32700, Note_on_c, 5, 64, 0
6, 32700, Note_on_c, 5, 62, 83
6, 32760, Note_on_c, 5, 62, 0
6, 32760, Note_on_c, 5, 60, 83
6, 32880, Note_on_c, 5, 60, 0
6, 32880, Note_on_c, 5, 57, 83
6, 32880, Note_on_c, 5, 60, 83
6, 33000, Note_on_c, 5, 60, 0
6, 33000, Note_on_c, 5, 57, 0
6, 33000, Note_on_c, 5, 57, 83
6, 33060, Note_on_c, 5, 57, 0
6, 33060, Note_on_c, 5, 53, 83
6, 33060, Note_on_c, 5, 57, 83
6, 33060, Note_on_c, 5, 62, 83
6, 33060, Note_on_c, 5, 60, 83
6, 33360, Note_on_c, 5, 60, 0
6, 33360, Note_on_c, 5, 53, 0
6, 33360, Note_on_c, 5, 57, 0
6, 33360, Note_on_c, 5, 62, 0
6, 33360, Note_on_c, 5, 57, 86
6, 33360, Note_on_c, 5, 60, 86
6, 33360, Note_on_c, 5, 64, 86
6, 33600, Note_on_c, 5, 64, 0
6, 33600, Note_on_c, 5, 60, 0
6, 33600, Note_on_c, 5, 57, 0
6, 33600, Note_on_c, 5, 57, 86
6, 33600, Note_on_c, 5, 60, 86
6, 33600, Note_on_c, 5, 64, 86
6, 33720, Note_on_c, 5, 64, 0
6, 33720, Note_on_c, 5, 60, 0
6, 33720, Note_on_c, 5, 57, 0
6, 33720, Note_on_c, 5, 53, 86
6, 33720, Note_on_c, 5, 57, 86
6, 33720, Note_on_c, 5, 60, 86
6, 33840, Note_on_c, 5, 60, 0
6, 33840, Note_on_c, 5, 57, 0
6, 33840, Note_on_c, 5, 53, 0
6, 33840, Note_on_c, 5, 53, 86
6, 33840, Note_on_c, 5, 57, 86
6, 33840, Note_on_c, 5, 60, 86
6, 34080, Note_on_c, 5, 60, 0
6, 34080, Note_on_c, 5, 57, 0
6, 34080, Note_on_c, 5, 53, 0
6, 34080, Note_on_c, 5, 53, 86
6, 34080, Note_on_c, 5, 59, 86
6, 34080, Note_on_c, 5, 64, 86
6, 34200, Note_on_c, 5, 64, 0
6, 34200, Note_on_c, 5, 59, 0
6, 34200, Note_on_c, 5, 53, 0
6, 34200, Note_on_c, 5, 62, 86
6, 34320, Note_on_c, 5, 62, 0
6, 34320, Note_on_c, 5, 60, 86
6, 34440, Note_on_c, 5, 60, 0
6, 34440, Note_on_c, 5, 64, 86
6, 34560, Note_on_c, 5, 64, 0
6, 34560, Note_on_c, 5, 59, 86
6, 34560, Note_on_c, 5, 65, 86
6, 34560, Note_on_c, 5, 67, 86
6, 34920, Note_on_c, 5, 67, 0
6, 34920, Note_on_c, 5, 65, 0
6, 34920, Note_on_c, 5, 59, 0
6, 34980, Note_on_c, 5, 55, 86
6, 35040, Note_on_c, 5, 55, 0
6, 35040, Note_on_c, 5, 60, 83
6, 35160, Note_on_c, 5, 60, 0
6, 35160, Note_on_c, 5, 67, 83
6, 35220, Note_on_c, 5, 67, 0
6, 35220, Note_on_c, 5, 60, 83
6, 35220, Note_on_c, 5, 67, 83
6, 35220, Note_on_c, 5, 64, 83
6, 35400, Note_on_c, 5, 67, 0
6, 35400, Note_on_c, 5, 69, 83
6, 35520, Note_on_c, 5, 69, 0
6, 35520, Note_on_c, 5, 64, 0
6, 35520, Note_on_c, 5, 60, 0
6, 35820, Note_on_c, 5, 60, 83
6, 35880, Note_on_c, 5, 60, 0
6, 35880, Note_on_c, 5, 60, 83
6, 36000, Note_on_c, 5, 60, 0
6, 36000, Note_on_c, 5, 59, 83
6, 36120, Note_on_c, 5, 59, 0
6, 36120, Note_on_c, 5, 67, 83
6, 36240, Note_on_c, 5, 67, 0
6, 36240, Note_on_c, 5, 67, 83
6, 36300, Note_on_c, 5, 67, 0
6, 36300, Note_on_c, 5, 69, 83
6, 36480, Note_on_c, 5, 69, 0
6, 36960, Note_on_c, 5, 70, 83
6, 37020, Note_on_c, 5, 70, 0
6, 37020, Note_on_c, 5, 70, 83
6, 37200, Note_on_c, 5, 70, 0
6, 37200, Note_on_c, 5, 70, 83
6, 37320, Note_on_c, 5, 70, 0
6, 37320, Note_on_c, 5, 72, 83
6, 37440, Note_on_c, 5, 72, 0
6, 37440, Note_on_c, 5, 74, 83
6, 37470, Note_on_c, 5, 74, 0
6, 37470, Note_on_c, 5, 72, 83
6, 37500, Note_on_c, 5, 72, 0
6, 37500, Note_on_c, 5, 74, 83
6, 37620, Note_on_c, 5, 74, 0
6, 37620, Note_on_c, 5, 72, 83
6, 37680, Note_on_c, 5, 72, 0
6, 37680, Note_on_c, 5, 72, 83
6, 37800, Note_on_c, 5, 72, 0
6, 37800, Note_on_c, 5, 72, 83
6, 37920, Note_on_c, 5, 72, 0
6, 37920, Note_on_c, 5, 65, 83
6, 37920, Note_on_c, 5, 60, 83
6, 37920, Note_on_c, 5, 70, 83
6, 37980, Note_on_c, 5, 70, 0
6, 37980, Note_on_c, 5, 60, 0
6, 37980, Note_on_c, 5, 65, 0
6, 37980, Note_on_c, 5, 69, 83
6, 38100, Note_on_c, 5, 69, 0
6, 38100, Note_on_c, 5, 65, 83
6, 38100, Note_on_c, 5, 69, 83
6, 38100, Note_on_c, 5, 60, 83
6, 38400, Note_on_c, 5, 60, 0
6, 38400, Note_on_c, 5, 69, 0
6, 38400, Note_on_c, 5, 65, 0
6, 38880, Note_on_c, 5, 60, 83
6, 39000, Note_on_c, 5, 60, 0
6, 39000, Note_on_c, 5, 67, 83
6, 39060, Note_on_c, 5, 67, 0
6, 39060, Note_on_c, 5, 64, 83
6, 39060, Note_on_c, 5, 67, 83
6, 39060, Note_on_c, 5, 60, 83
6, 39360, Note_on_c, 5, 60, 0
6, 39360, Note_on_c, 5, 67, 0
6, 39360, Note_on_c, 5, 64, 0
6, 39720, Note_on_c, 5, 60, 83
6, 39780, Note_on_c, 5, 60, 0
6, 39780, Note_on_c, 5, 60, 83
6, 39840, Note_on_c, 5, 60, 0
6, 39840, Note_on_c, 5, 59, 83
6, 39900, Note_on_c, 5, 59, 0
6, 39900, Note_on_c, 5, 67, 83
6, 40020, Note_on_c, 5, 67, 0
6, 40020, Note_on_c, 5, 67, 83
6, 40080, Note_on_c, 5, 67, 0
6, 40080, Note_on_c, 5, 64, 83
6, 40080, Note_on_c, 5, 69, 83
6, 40080, Note_on_c, 5, 59, 83
6, 40320, Note_on_c, 5, 59, 0
6, 40320, Note_on_c, 5, 69, 0
6, 40320, Note_on_c, 5, 64, 0
6, 40800, Note_on_c, 5, 70, 83
6, 40860, Note_on_c, 5, 70, 0
6, 40860, Note_on_c, 5, 70, 83
6, 41040, Note_on_c, 5, 70, 0
6, 41040, Note_on_c, 5, 70, 83
6, 41160, Note_on_c, 5, 70, 0
6, 41160, Note_on_c, 5, 72, 83
6, 41280, Note_on_c, 5, 72, 0
6, 41280, Note_on_c, 5, 72, 83
6, 41340, Note_on_c, 5, 72, 0
6, 41340, Note_on_c, 5, 74, 83
6, 41460, Note_on_c, 5, 74, 0
6, 41460, Note_on_c, 5, 64, 83
6, 41520, Note_on_c, 5, 64, 0
6, 41520, Note_on_c, 5, 72, 83
6, 41580, Note_on_c, 5, 72, 0
6, 41580, Note_on_c, 5, 72, 83
6, 41760, Note_on_c, 5, 72, 0
6, 41760, Note_on_c, 5, 65, 83
6, 41760, Note_on_c, 5, 60, 83
6, 41760, Note_on_c, 5, 70, 83
6, 41820, Note_on_c, 5, 70, 0
6, 41820, Note_on_c, 5, 60, 0
6, 41820, Note_on_c, 5, 65, 0
6, 41820, Note_on_c, 5, 69, 83
6, 41940, Note_on_c, 5, 69, 0
6, 41940, Note_on_c, 5, 60, 83
6, 41940, Note_on_c, 5, 69, 83
6, 41940, Note_on_c, 5, 65, 83
6, 42240, Note_on_c, 5, 65, 0
6, 42240, Note_on_c, 5, 69, 0
6, 42240, Note_on_c, 5, 60, 0
6, 42660, Note_on_c, 5, 60, 83
6, 42720, Note_on_c, 5, 60, 0
6, 42720, Note_on_c, 5, 69, 83
6, 42780, Note_on_c, 5, 69, 0
6, 42780, Note_on_c, 5, 69, 83
6, 42960, Note_on_c, 5, 69, 0
6, 42960, Note_on_c, 5, 69, 83
6, 43080, Note_on_c, 5, 69, 0
6, 43080, Note_on_c, 5, 71, 83
6, 43140, Note_on_c, 5, 71, 0
6, 43140, Note_on_c, 5, 72, 83
6, 43320, Note_on_c, 5, 72, 0
6, 43320, Note_on_c, 5, 72, 83
6, 43440, Note_on_c, 5, 72, 0
6, 43440, Note_on_c, 5, 71, 83
6, 43560, Note_on_c, 5, 71, 0
6, 43560, Note_on_c, 5, 69, 83
6, 43680, Note_on_c, 5, 69, 0
6, 43680, Note_on_c, 5, 69, 83
6, 43740, Note_on_c, 5, 69, 0
6, 43740, Note_on_c, 5, 67, 83
6, 44160, Note_on_c, 5, 67, 0
6, 44340, Note_on_c, 5, 55, 83
6, 44400, Note_on_c, 5, 55, 0
6, 44400, Note_on_c, 5, 57, 83
6, 44520, Note_on_c, 5, 57, 0
6, 44520, Note_on_c, 5, 60, 83
6, 44640, Note_on_c, 5, 60, 0
6, 44640, Note_on_c, 5, 65, 83
6, 44700, Note_on_c, 5, 65, 0
6, 44700, Note_on_c, 5, 65, 83
6, 44880, Note_on_c, 5, 65, 0
6, 44880, Note_on_c, 5, 65, 83
6, 45000, Note_on_c, 5, 65, 0
6, 45000, Note_on_c, 5, 65, 83
6, 45120, Note_on_c, 5, 65, 0
6, 45120, Note_on_c, 5, 59, 83
6, 45120, Note_on_c, 5, 62, 83
6, 45120, Note_on_c, 5, 65, 83
6, 45300, Note_on_c, 5, 65, 0
6, 45300, Note_on_c, 5, 62, 0
6, 45300, Note_on_c, 5, 59, 0
6, 45300, Note_on_c, 5, 62, 83
6, 45360, Note_on_c, 5, 62, 0
6, 45360, Note_on_c, 5, 60, 83
6, 45480, Note_on_c, 5, 60, 0
6, 45480, Note_on_c, 5, 59, 83
6, 45600, Note_on_c, 5, 59, 0
6, 45600, Note_on_c, 5, 60, 86
6, 45720, Note_on_c, 5, 60, 0
6, 45720, Note_on_c, 5, 67, 88
6, 45840, Note_on_c, 5, 67, 0
6, 45840, Note_on_c, 5, 60, 81
6, 45840, Note_on_c, 5, 64, 81
6, 45840, Note_on_c, 5, 67, 81
6, 46440, Note_on_c, 5, 67, 0
6, 46440, Note_on_c, 5, 64, 0
6, 46440, Note_on_c, 5, 60, 0
6, 46440, Note_on_c, 5, 60, 86
6, 46560, Note_on_c, 5, 60, 0
6, 46560, Note_on_c, 5, 59, 88
6, 46680, Note_on_c, 5, 59, 0
6, 46680, Note_on_c, 5, 67, 88
6, 46800, Note_on_c, 5, 67, 0
6, 46800, Note_on_c, 5, 59, 79
6, 46800, Note_on_c, 5, 64, 79
6, 46800, Note_on_c, 5, 67, 79
6, 47520, Note_on_c, 5, 67, 0
6, 47520, Note_on_c, 5, 64, 0
6, 47520, Note_on_c, 5, 59, 0
6, 47520, Note_on_c, 5, 59, 85
6, 47520, Note_on_c, 5, 62, 85
6, 47640, Note_on_c, 5, 62, 0
6, 47640, Note_on_c, 5, 59, 0
6, 47640, Note_on_c, 5, 64, 85
6, 47760, Note_on_c, 5, 64, 0
6, 47760, Note_on_c, 5, 59, 84
6, 47760, Note_on_c, 5, 64, 84
6, 48000, Note_on_c, 5, 64, 0
6, 48000, Note_on_c, 5, 59, 0
6, 48000, Note_on_c, 5, 55, 73
6, 48001, Note_on_c, 5, 59, 73
6, 48002, Note_on_c, 5, 64, 73
6, 48480, Note_on_c, 5, 55, 0
6, 48481, Note_on_c, 5, 59, 0
6, 48482, Note_on_c, 5, 64, 0
6, 48482, End_track
7, 0, Start_track
7, 0, MIDI_port, 0
7, 0, Title_t, "Melody 3"
7, 0, Control_c, 6, 121, 0
7, 0, Control_c, 6, 123, 0
7, 0, Control_c, 6, 1, 0
7, 0, Control_c, 6, 91, 40
7, 0, Control_c, 6, 93, 40
7, 152, Program_c, 6, 4
7, 153, Control_c, 6, 7, 88
7, 153, Control_c, 6, 10, 44
7, 4080, Note_on_c, 6, 59, 85
7, 4080, Note_on_c, 6, 64, 85
7, 4320, Note_on_c, 6, 64, 0
7, 4320, Note_on_c, 6, 59, 0
7, 4800, Note_on_c, 6, 62, 85
7, 4800, Note_on_c, 6, 65, 85
7, 5280, Note_on_c, 6, 65, 0
7, 5280, Note_on_c, 6, 62, 0
7, 5280, Note_on_c, 6, 65, 85
7, 5280, Note_on_c, 6, 70, 85
7, 5760, Note_on_c, 6, 70, 0
7, 5760, Note_on_c, 6, 65, 0
7, 8640, Note_on_c, 6, 62, 85
7, 8640, Note_on_c, 6, 65, 85
7, 9120, Note_on_c, 6, 65, 0
7, 9120, Note_on_c, 6, 62, 0
7, 9120, Note_on_c, 6, 64, 85
7, 9120, Note_on_c, 6, 70, 85
7, 9300, Note_on_c, 6, 70, 0
7, 9300, Note_on_c, 6, 64, 0
7, 9360, Note_on_c, 6, 64, 85
7, 9360, Note_on_c, 6, 70, 85
7, 9600, Note_on_c, 6, 70, 0
7, 9600, Note_on_c, 6, 64, 0
7, 10560, Note_on_c, 6, 65, 85
7, 10980, Note_on_c, 6, 65, 0
7, 10980, Note_on_c, 6, 65, 85
7, 11280, Note_on_c, 6, 65, 0
7, 11280, Note_on_c, 6, 65, 85
7, 11520, Note_on_c, 6, 65, 0
7, 11520, Note_on_c, 6, 64, 85
7, 12000, Note_on_c, 6, 64, 0
7, 12480, Note_on_c, 6, 57, 85
7, 12480, Note_on_c, 6, 60, 85
7, 12960, Note_on_c, 6, 60, 0
7, 12960, Note_on_c, 6, 57, 0
7, 12960, Note_on_c, 6, 59, 85
7, 13200, Note_on_c, 6, 59, 0
7, 13200, Note_on_c, 6, 57, 85
7, 13440, Note_on_c, 6, 57, 0
7, 13440, Note_on_c, 6, 55, 85
7, 13920, Note_on_c, 6, 55, 0
7, 13920, Note_on_c, 6, 59, 85
7, 13920, Note_on_c, 6, 65, 85
7, 13920, Note_on_c, 6, 67, 85
7, 14280, Note_on_c, 6, 67, 0
7, 14280, Note_on_c, 6, 65, 0
7, 14280, Note_on_c, 6, 59, 0
7, 15600, Note_on_c, 6, 59, 85
7, 15600, Note_on_c, 6, 64, 85
7, 15840, Note_on_c, 6, 64, 0
7, 15840, Note_on_c, 6, 59, 0
7, 16320, Note_on_c, 6, 62, 85
7, 16320, Note_on_c, 6, 65, 85
7, 16800, Note_on_c, 6, 65, 0
7, 16800, Note_on_c, 6, 62, 0
7, 16800, Note_on_c, 6, 65, 85
7, 16800, Note_on_c, 6, 70, 85
7, 17280, Note_on_c, 6, 70, 0
7, 17280, Note_on_c, 6, 65, 0
7, 20160, Note_on_c, 6, 62, 85
7, 20160, Note_on_c, 6, 65, 85
7, 20640, Note_on_c, 6, 65, 0
7, 20640, Note_on_c, 6, 62, 0
7, 20640, Note_on_c, 6, 64, 85
7, 20640, Note_on_c, 6, 70, 85
7, 20820, Note_on_c, 6, 70, 0
7, 20820, Note_on_c, 6, 64, 0
7, 20880, Note_on_c, 6, 64, 85
7, 20880, Note_on_c, 6, 70, 85
7, 21120, Note_on_c, 6, 70, 0
7, 21120, Note_on_c, 6, 64, 0
7, 22080, Note_on_c, 6, 65, 85
7, 22500, Note_on_c, 6, 65, 0
7, 22500, Note_on_c, 6, 65, 85
7, 22800, Note_on_c, 6, 65, 0
7, 22800, Note_on_c, 6, 65, 85
7, 23040, Note_on_c, 6, 65, 0
7, 23040, Note_on_c, 6, 64, 85
7, 23520, Note_on_c, 6, 64, 0
7, 24000, Note_on_c, 6, 57, 85
7, 24000, Note_on_c, 6, 60, 85
7, 24480, Note_on_c, 6, 60, 0
7, 24480, Note_on_c, 6, 57, 0
7, 24480, Note_on_c, 6, 59, 85
7, 24720, Note_on_c, 6, 59, 0
7, 24720, Note_on_c, 6, 57, 85
7, 24960, Note_on_c, 6, 57, 0
7, 24960, Note_on_c, 6, 55, 85
7, 25440, Note_on_c, 6, 55, 0
7, 25920, Note_on_c, 6, 60, 85
7, 25920, Note_on_c, 6, 65, 85
7, 26160, Note_on_c, 6, 65, 0
7, 26160, Note_on_c, 6, 60, 0
7, 26160, Note_on_c, 6, 60, 85
7, 26160, Note_on_c, 6, 65, 85
7, 26340, Note_on_c, 6, 65, 0
7, 26340, Note_on_c, 6, 60, 0
7, 26340, Note_on_c, 6, 65, 85
7, 26580, Note_on_c, 6, 65, 0
7, 26880, Note_on_c, 6, 59, 85
7, 26880, Note_on_c, 6, 64, 85
7, 27360, Note_on_c, 6, 64, 0
7, 27360, Note_on_c, 6, 59, 0
7, 27840, Note_on_c, 6, 60, 85
7, 28080, Note_on_c, 6, 60, 0
7, 28080, Note_on_c, 6, 60, 85
7, 28080, Note_on_c, 6, 65, 85
7, 28320, Note_on_c, 6, 65, 0
7, 28320, Note_on_c, 6, 60, 0
7, 28800, Note_on_c, 6, 55, 85
7, 28800, Note_on_c, 6, 59, 85
7, 29280, Note_on_c, 6, 59, 0
7, 29280, Note_on_c, 6, 55, 0
7, 29760, Note_on_c, 6, 60, 85
7, 29760, Note_on_c, 6, 65, 85
7, 30240, Note_on_c, 6, 65, 0
7, 30240, Note_on_c, 6, 60, 0
7, 30240, Note_on_c, 6, 65, 85
7, 30480, Note_on_c, 6, 65, 0
7, 30480, Note_on_c, 6, 65, 85
7, 30720, Note_on_c, 6, 65, 0
7, 30720, Note_on_c, 6, 64, 85
7, 31200, Note_on_c, 6, 64, 0
7, 31680, Note_on_c, 6, 62, 85
7, 32160, Note_on_c, 6, 62, 0
7, 32640, Note_on_c, 6, 57, 85
7, 32880, Note_on_c, 6, 57, 0
7, 36240, Note_on_c, 6, 59, 85
7, 36240, Note_on_c, 6, 64, 85
7, 36480, Note_on_c, 6, 64, 0
7, 36480, Note_on_c, 6, 59, 0
7, 36960, Note_on_c, 6, 62, 85
7, 36960, Note_on_c, 6, 65, 85
7, 37440, Note_on_c, 6, 65, 0
7, 37440, Note_on_c, 6, 62, 0
7, 37440, Note_on_c, 6, 65, 85
7, 37440, Note_on_c, 6, 70, 85
7, 37920, Note_on_c, 6, 70, 0
7, 37920, Note_on_c, 6, 65, 0
7, 40800, Note_on_c, 6, 62, 85
7, 40800, Note_on_c, 6, 65, 85
7, 41280, Note_on_c, 6, 65, 0
7, 41280, Note_on_c, 6, 62, 0
7, 41280, Note_on_c, 6, 64, 85
7, 41280, Note_on_c, 6, 70, 85
7, 41460, Note_on_c, 6, 70, 0
7, 41460, Note_on_c, 6, 64, 0
7, 41520, Note_on_c, 6, 64, 85
7, 41520, Note_on_c, 6, 70, 85
7, 41760, Note_on_c, 6, 70, 0
7, 41760, Note_on_c, 6, 64, 0
7, 42720, Note_on_c, 6, 65, 85
7, 43140, Note_on_c, 6, 65, 0
7, 43140, Note_on_c, 6, 65, 85
7, 43440, Note_on_c, 6, 65, 0
7, 43440, Note_on_c, 6, 65, 85
7, 43680, Note_on_c, 6, 65, 0
7, 43680, Note_on_c, 6, 64, 85
7, 44160, Note_on_c, 6, 64, 0
7, 44640, Note_on_c, 6, 57, 85
7, 44640, Note_on_c, 6, 60, 85
7, 45120, Note_on_c, 6, 60, 0
7, 45120, Note_on_c, 6, 57, 0
7, 45120, End_track
8, 0, Start_track
8, 0, MIDI_port, 0
8, 0, Title_t, "Melody Extra"
8, 0, Control_c, 7, 121, 0
8, 0, Control_c, 7, 123, 0
8, 0, Control_c, 7, 1, 60
8, 0, Control_c, 7, 91, 60
8, 0, Control_c, 7, 93, 60
8, 157, Program_c, 7, 73
8, 158, Control_c, 7, 7, 86
8, 158, Control_c, 7, 10, 61
8, 4740, Note_on_c, 7, 69, 90
8, 4800, Note_on_c, 7, 69, 0
8, 5760, Note_on_c, 7, 69, 90
8, 6240, Note_on_c, 7, 69, 0
8, 6660, Note_on_c, 7, 55, 90
8, 6720, Note_on_c, 7, 55, 0
8, 8520, Note_on_c, 7, 55, 90
8, 8580, Note_on_c, 7, 55, 0
8, 8580, Note_on_c, 7, 55, 90
8, 8640, Note_on_c, 7, 55, 0
8, 9600, Note_on_c, 7, 69, 90
8, 10080, Note_on_c, 7, 69, 0
8, 16260, Note_on_c, 7, 69, 90
8, 16320, Note_on_c, 7, 69, 0
8, 17280, Note_on_c, 7, 69, 90
8, 17760, Note_on_c, 7, 69, 0
8, 18180, Note_on_c, 7, 55, 90
8, 18240, Note_on_c, 7, 55, 0
8, 20040, Note_on_c, 7, 55, 90
8, 20100, Note_on_c, 7, 55, 0
8, 20100, Note_on_c, 7, 55, 90
8, 20160, Note_on_c, 7, 55, 0
8, 21120, Note_on_c, 7, 69, 90
8, 21600, Note_on_c, 7, 69, 0
8, 36900, Note_on_c, 7, 69, 90
8, 36960, Note_on_c, 7, 69, 0
8, 37920, Note_on_c, 7, 69, 90
8, 38400, Note_on_c, 7, 69, 0
8, 38820, Note_on_c, 7, 55, 90
8, 38880, Note_on_c, 7, 55, 0
8, 40680, Note_on_c, 7, 55, 90
8, 40740, Note_on_c, 7, 55, 0
8, 40740, Note_on_c, 7, 55, 90
8, 40800, Note_on_c, 7, 55, 0
8, 41760, Note_on_c, 7, 69, 90
8, 42240, Note_on_c, 7, 69, 0
8, 42240, End_track
9, 0, Start_track
9, 0, MIDI_port, 0
9, 0, Title_t, "Bass"
9, 0, Control_c, 8, 121, 0
9, 0, Control_c, 8, 123, 0
9, 0, Control_c, 8, 91, 40
9, 162, Program_c, 8, 33
9, 163, Control_c, 8, 7, 96
9, 163, Control_c, 8, 10, 66
9, 960, Note_on_c, 8, 36, 85
9, 1920, Note_on_c, 8, 36, 0
9, 1920, Note_on_c, 8, 36, 85
9, 2160, Note_on_c, 8, 36, 0
9, 2160, Note_on_c, 8, 36, 85
9, 2400, Note_on_c, 8, 36, 0
9, 2400, Note_on_c, 8, 43, 85
9, 2640, Note_on_c, 8, 43, 0
9, 2640, Note_on_c, 8, 43, 85
9, 2820, Note_on_c, 8, 43, 0
9, 2880, Note_on_c, 8, 36, 85
9, 3120, Note_on_c, 8, 36, 0
9, 3120, Note_on_c, 8, 43, 85
9, 3360, Note_on_c, 8, 43, 0
9, 3360, Note_on_c, 8, 48, 85
9, 3600, Note_on_c, 8, 48, 0
9, 3600, Note_on_c, 8, 36, 85
9, 3840, Note_on_c, 8, 36, 0
9, 3840, Note_on_c, 8, 40, 85
9, 4080, Note_on_c, 8, 40, 0
9, 4080, Note_on_c, 8, 47, 85
9, 4320, Note_on_c, 8, 47, 0
9, 4320, Note_on_c, 8, 52, 85
9, 4560, Note_on_c, 8, 52, 0
9, 4560, Note_on_c, 8, 40, 85
9, 4800, Note_on_c, 8, 40, 0
9, 4800, Note_on_c, 8, 43, 85
9, 5040, Note_on_c, 8, 43, 0
9, 5040, Note_on_c, 8, 43, 85
9, 5280, Note_on_c, 8, 43, 0
9, 5280, Note_on_c, 8, 36, 85
9, 5520, Note_on_c, 8, 36, 0
9, 5520, Note_on_c, 8, 36, 85
9, 5760, Note_on_c, 8, 36, 0
9, 5760, Note_on_c, 8, 41, 85
9, 6000, Note_on_c, 8, 41, 0
9, 6000, Note_on_c, 8, 41, 85
9, 6240, Note_on_c, 8, 41, 0
9, 6240, Note_on_c, 8, 41, 85
9, 6420, Note_on_c, 8, 41, 0
9, 6420, Note_on_c, 8, 41, 85
9, 6480, Note_on_c, 8, 41, 0
9, 6480, Note_on_c, 8, 40, 85
9, 6600, Note_on_c, 8, 40, 0
9, 6600, Note_on_c, 8, 38, 85
9, 6720, Note_on_c, 8, 38, 0
9, 6720, Note_on_c, 8, 36, 85
9, 6960, Note_on_c, 8, 36, 0
9, 6960, Note_on_c, 8, 43, 85
9, 7200, Note_on_c, 8, 43, 0
9, 7200, Note_on_c, 8, 48, 85
9, 7440, Note_on_c, 8, 48, 0
9, 7440, Note_on_c, 8, 36, 85
9, 7680, Note_on_c, 8, 36, 0
9, 7680, Note_on_c, 8, 40, 85
9, 7920, Note_on_c, 8, 40, 0
9, 7920, Note_on_c, 8, 47, 85
9, 8160, Note_on_c, 8, 47, 0
9, 8160, Note_on_c, 8, 52, 85
9, 8400, Note_on_c, 8, 52, 0
9, 8400, Note_on_c, 8, 40, 85
9, 8640, Note_on_c, 8, 40, 0
9, 8640, Note_on_c, 8, 43, 85
9, 8880, Note_on_c, 8, 43, 0
9, 8880, Note_on_c, 8, 43, 85
9, 9120, Note_on_c, 8, 43, 0
9, 9120, Note_on_c, 8, 36, 85
9, 9360, Note_on_c, 8, 36, 0
9, 9360, Note_on_c, 8, 36, 85
9, 9600, Note_on_c, 8, 36, 0
9, 9600, Note_on_c, 8, 41, 85
9, 9840, Note_on_c, 8, 41, 0
9, 9840, Note_on_c, 8, 41, 85
9, 10080, Note_on_c, 8, 41, 0
9, 10080, Note_on_c, 8, 41, 85
9, 10200, Note_on_c, 8, 41, 0
9, 10200, Note_on_c, 8, 36, 85
9, 10320, Note_on_c, 8, 36, 0
9, 10320, Note_on_c, 8, 38, 85
9, 10440, Note_on_c, 8, 38, 0
9, 10440, Note_on_c, 8, 40, 85
9, 10560, Note_on_c, 8, 40, 0
9, 10560, Note_on_c, 8, 41, 85
9, 10800, Note_on_c, 8, 41, 0
9, 10800, Note_on_c, 8, 41, 85
9, 11040, Note_on_c, 8, 41, 0
9, 11040, Note_on_c, 8, 43, 85
9, 11280, Note_on_c, 8, 43, 0
9, 11280, Note_on_c, 8, 43, 85
9, 11520, Note_on_c, 8, 43, 0
9, 11520, Note_on_c, 8, 36, 85
9, 11760, Note_on_c, 8, 36, 0
9, 11760, Note_on_c, 8, 43, 85
9, 12000, Note_on_c, 8, 43, 0
9, 12000, Note_on_c, 8, 36, 85
9, 12240, Note_on_c, 8, 36, 0
9, 12240, Note_on_c, 8, 36, 85
9, 12480, Note_on_c, 8, 36, 0
9, 12480, Note_on_c, 8, 38, 85
9, 12720, Note_on_c, 8, 38, 0
9, 12720, Note_on_c, 8, 38, 85
9, 12960, Note_on_c, 8, 38, 0
9, 12960, Note_on_c, 8, 43, 85
9, 13200, Note_on_c, 8, 43, 0
9, 13200, Note_on_c, 8, 43, 85
9, 13440, Note_on_c, 8, 43, 0
9, 13440, Note_on_c, 8, 36, 85
9, 13680, Note_on_c, 8, 36, 0
9, 13680, Note_on_c, 8, 36, 85
9, 13920, Note_on_c, 8, 36, 0
9, 13920, Note_on_c, 8, 43, 85
9, 14160, Note_on_c, 8, 43, 0
9, 14160, Note_on_c, 8, 43, 85
9, 14400, Note_on_c, 8, 43, 0
9, 14400, Note_on_c, 8, 36, 85
9, 14640, Note_on_c, 8, 36, 0
9, 14640, Note_on_c, 8, 43, 85
9, 14880, Note_on_c, 8, 43, 0
9, 14880, Note_on_c, 8, 48, 85
9, 15120, Note_on_c, 8, 48, 0
9, 15120, Note_on_c, 8, 36, 85
9, 15360, Note_on_c, 8, 36, 0
9, 15360, Note_on_c, 8, 40, 85
9, 15600, Note_on_c, 8, 40, 0
9, 15600, Note_on_c, 8, 47, 85
9, 15840, Note_on_c, 8, 47, 0
9, 15840, Note_on_c, 8, 52, 85
9, 16080, Note_on_c, 8, 52, 0
9, 16080, Note_on_c, 8, 40, 85
9, 16320, Note_on_c, 8, 40, 0
9, 16320, Note_on_c, 8, 43, 85
9, 16560, Note_on_c, 8, 43, 0
9, 16560, Note_on_c, 8, 43, 85
9, 16800, Note_on_c, 8, 43, 0
9, 16800, Note_on_c, 8, 36, 85
9, 17040, Note_on_c, 8, 36, 0
9, 17040, Note_on_c, 8, 36, 85
9, 17280, Note_on_c, 8, 36, 0
9, 17280, Note_on_c, 8, 41, 85
9, 17520, Note_on_c, 8, 41, 0
9, 17520, Note_on_c, 8, 41, 85
9, 17760, Note_on_c, 8, 41, 0
9, 17760, Note_on_c, 8, 41, 85
9, 17940, Note_on_c, 8, 41, 0
9, 17940, Note_on_c, 8, 41, 85
9, 18000, Note_on_c, 8, 41, 0
9, 18000, Note_on_c, 8, 40, 85
9, 18120, Note_on_c, 8, 40, 0
9, 18120, Note_on_c, 8, 38, 85
9, 18240, Note_on_c, 8, 38, 0
9, 18240, Note_on_c, 8, 36, 85
9, 18480, Note_on_c, 8, 36, 0
9, 18480, Note_on_c, 8, 43, 85
9, 18720, Note_on_c, 8, 43, 0
9, 18720, Note_on_c, 8, 48, 85
9, 18960, Note_on_c, 8, 48, 0
9, 18960, Note_on_c, 8, 36, 85
9, 19200, Note_on_c, 8, 36, 0
9, 19200, Note_on_c, 8, 40, 85
9, 19440, Note_on_c, 8, 40, 0
9, 19440, Note_on_c, 8, 47, 85
9, 19680, Note_on_c, 8, 47, 0
9, 19680, Note_on_c, 8, 52, 85
9, 19920, Note_on_c, 8, 52, 0
9, 19920, Note_on_c, 8, 40, 85
9, 20160, Note_on_c, 8, 40, 0
9, 20160, Note_on_c, 8, 43, 85
9, 20400, Note_on_c, 8, 43, 0
9, 20400, Note_on_c, 8, 43, 85
9, 20640, Note_on_c, 8, 43, 0
9, 20640, Note_on_c, 8, 36, 85
9, 20880, Note_on_c, 8, 36, 0
9, 20880, Note_on_c, 8, 36, 85
9, 21120, Note_on_c, 8, 36, 0
9, 21120, Note_on_c, 8, 41, 85
9, 21360, Note_on_c, 8, 41, 0
9, 21360, Note_on_c, 8, 41, 85
9, 21600, Note_on_c, 8, 41, 0
9, 21600, Note_on_c, 8, 41, 85
9, 21720, Note_on_c, 8, 41, 0
9, 21720, Note_on_c, 8, 36, 85
9, 21840, Note_on_c, 8, 36, 0
9, 21840, Note_on_c, 8, 38, 85
9, 21960, Note_on_c, 8, 38, 0
9, 21960, Note_on_c, 8, 40, 85
9, 22080, Note_on_c, 8, 40, 0
9, 22080, Note_on_c, 8, 41, 85
9, 22320, Note_on_c, 8, 41, 0
9, 22320, Note_on_c, 8, 41, 85
9, 22560, Note_on_c, 8, 41, 0
9, 22560, Note_on_c, 8, 43, 85
9, 22800, Note_on_c, 8, 43, 0
9, 22800, Note_on_c, 8, 43, 85
9, 23040, Note_on_c, 8, 43, 0
9, 23040, Note_on_c, 8, 36, 85
9, 23280, Note_on_c, 8, 36, 0
9, 23280, Note_on_c, 8, 43, 85
9, 23520, Note_on_c, 8, 43, 0
9, 23520, Note_on_c, 8, 36, 85
9, 23760, Note_on_c, 8, 36, 0
9, 23760, Note_on_c, 8, 36, 85
9, 24000, Note_on_c, 8, 36, 0
9, 24000, Note_on_c, 8, 38, 85
9, 24240, Note_on_c, 8, 38, 0
9, 24240, Note_on_c, 8, 38, 85
9, 24480, Note_on_c, 8, 38, 0
9, 24480, Note_on_c, 8, 43, 85
9, 24720, Note_on_c, 8, 43, 0
9, 24720, Note_on_c, 8, 43, 85
9, 24960, Note_on_c, 8, 43, 0
9, 24960, Note_on_c, 8, 36, 85
9, 25200, Note_on_c, 8, 36, 0
9, 25200, Note_on_c, 8, 36, 85
9, 25440, Note_on_c, 8, 36, 0
9, 25440, Note_on_c, 8, 36, 85
9, 25560, Note_on_c, 8, 36, 0
9, 25560, Note_on_c, 8, 36, 85
9, 25680, Note_on_c, 8, 36, 0
9, 25680, Note_on_c, 8, 38, 85
9, 25800, Note_on_c, 8, 38, 0
9, 25800, Note_on_c, 8, 40, 85
9, 25920, Note_on_c, 8, 40, 0
9, 25920, Note_on_c, 8, 41, 85
9, 26160, Note_on_c, 8, 41, 0
9, 26160, Note_on_c, 8, 41, 85
9, 26400, Note_on_c, 8, 41, 0
9, 26400, Note_on_c, 8, 43, 85
9, 26640, Note_on_c, 8, 43, 0
9, 26640, Note_on_c, 8, 43, 85
9, 26880, Note_on_c, 8, 43, 0
9, 26880, Note_on_c, 8, 36, 85
9, 27120, Note_on_c, 8, 36, 0
9, 27120, Note_on_c, 8, 43, 85
9, 27360, Note_on_c, 8, 43, 0
9, 27360, Note_on_c, 8, 36, 85
9, 27540, Note_on_c, 8, 36, 0
9, 27540, Note_on_c, 8, 36, 85
9, 27600, Note_on_c, 8, 36, 0
9, 27600, Note_on_c, 8, 40, 85
9, 27720, Note_on_c, 8, 40, 0
9, 27720, Note_on_c, 8, 43, 85
9, 27840, Note_on_c, 8, 43, 0
9, 27840, Note_on_c, 8, 38, 85
9, 28080, Note_on_c, 8, 38, 0
9, 28080, Note_on_c, 8, 38, 85
9, 28320, Note_on_c, 8, 38, 0
9, 28320, Note_on_c, 8, 43, 85
9, 28560, Note_on_c, 8, 43, 0
9, 28560, Note_on_c, 8, 43, 85
9, 28800, Note_on_c, 8, 43, 0
9, 28800, Note_on_c, 8, 36, 85
9, 29040, Note_on_c, 8, 36, 0
9, 29040, Note_on_c, 8, 43, 85
9, 29280, Note_on_c, 8, 43, 0
9, 29280, Note_on_c, 8, 36, 85
9, 29400, Note_on_c, 8, 36, 0
9, 29400, Note_on_c, 8, 36, 85
9, 29520, Note_on_c, 8, 36, 0
9, 29520, Note_on_c, 8, 38, 85
9, 29640, Note_on_c, 8, 38, 0
9, 29640, Note_on_c, 8, 40, 85
9, 29760, Note_on_c, 8, 40, 0
9, 29760, Note_on_c, 8, 41, 85
9, 30000, Note_on_c, 8, 41, 0
9, 30000, Note_on_c, 8, 41, 85
9, 30240, Note_on_c, 8, 41, 0
9, 30240, Note_on_c, 8, 43, 85
9, 30480, Note_on_c, 8, 43, 0
9, 30480, Note_on_c, 8, 43, 85
9, 30720, Note_on_c, 8, 43, 0
9, 30720, Note_on_c, 8, 36, 85
9, 30960, Note_on_c, 8, 36, 0
9, 30960, Note_on_c, 8, 43, 85
9, 31200, Note_on_c, 8, 43, 0
9, 31200, Note_on_c, 8, 36, 85
9, 31440, Note_on_c, 8, 36, 0
9, 31440, Note_on_c, 8, 36, 85
9, 31680, Note_on_c, 8, 36, 0
9, 31680, Note_on_c, 8, 47, 85
9, 31920, Note_on_c, 8, 47, 0
9, 31920, Note_on_c, 8, 47, 85
9, 32160, Note_on_c, 8, 47, 0
9, 32160, Note_on_c, 8, 45, 85
9, 32400, Note_on_c, 8, 45, 0
9, 32400, Note_on_c, 8, 45, 85
9, 32640, Note_on_c, 8, 45, 0
9, 32640, Note_on_c, 8, 41, 85
9, 32880, Note_on_c, 8, 41, 0
9, 32880, Note_on_c, 8, 41, 85
9, 33120, Note_on_c, 8, 41, 0
9, 33120, Note_on_c, 8, 38, 85
9, 33600, Note_on_c, 8, 38, 0
9, 33600, Note_on_c, 8, 38, 85
9, 34080, Note_on_c, 8, 38, 0
9, 34080, Note_on_c, 8, 43, 85
9, 34320, Note_on_c, 8, 43, 0
9, 34320, Note_on_c, 8, 43, 85
9, 34560, Note_on_c, 8, 43, 0
9, 34560, Note_on_c, 8, 43, 85
9, 34800, Note_on_c, 8, 43, 0
9, 34800, Note_on_c, 8, 43, 85
9, 35040, Note_on_c, 8, 43, 0
9, 35040, Note_on_c, 8, 36, 85
9, 35280, Note_on_c, 8, 36, 0
9, 35280, Note_on_c, 8, 43, 85
9, 35520, Note_on_c, 8, 43, 0
9, 35520, Note_on_c, 8, 48, 85
9, 35760, Note_on_c, 8, 48, 0
9, 35760, Note_on_c, 8, 36, 85
9, 36000, Note_on_c, 8, 36, 0
9, 36000, Note_on_c, 8, 40, 85
9, 36240, Note_on_c, 8, 40, 0
9, 36240, Note_on_c, 8, 47, 85
9, 36480, Note_on_c, 8, 47, 0
9, 36480, Note_on_c, 8, 52, 85
9, 36720, Note_on_c, 8, 52, 0
9, 36720, Note_on_c, 8, 40, 85
9, 36960, Note_on_c, 8, 40, 0
9, 36960, Note_on_c, 8, 43, 85
9, 37200, Note_on_c, 8, 43, 0
9, 37200, Note_on_c, 8, 43, 85
9, 37440, Note_on_c, 8, 43, 0
9, 37440, Note_on_c, 8, 36, 85
9, 37680, Note_on_c, 8, 36, 0
9, 37680, Note_on_c, 8, 36, 85
9, 37920, Note_on_c, 8, 36, 0
9, 37920, Note_on_c, 8, 41, 85
9, 38160, Note_on_c, 8, 41, 0
9, 38160, Note_on_c, 8, 41, 85
9, 38400, Note_on_c, 8, 41, 0
9, 38400, Note_on_c, 8, 41, 85
9, 38580, Note_on_c, 8, 41, 0
9, 38580, Note_on_c, 8, 41, 85
9, 38640, Note_on_c, 8, 41, 0
9, 38640, Note_on_c, 8, 40, 85
9, 38760, Note_on_c, 8, 40, 0
9, 38760, Note_on_c, 8, 38, 85
9, 38880, Note_on_c, 8, 38, 0
9, 38880, Note_on_c, 8, 36, 85
9, 39120, Note_on_c, 8, 36, 0
9, 39120, Note_on_c, 8, 43, 85
9, 39360, Note_on_c, 8, 43, 0
9, 39360, Note_on_c, 8, 48, 85
9, 39600, Note_on_c, 8, 48, 0
9, 39600, Note_on_c, 8, 36, 85
9, 39840, Note_on_c, 8, 36, 0
9, 39840, Note_on_c, 8, 40, 85
9, 40080, Note_on_c, 8, 40, 0
9, 40080, Note_on_c, 8, 47, 85
9, 40320, Note_on_c, 8, 47, 0
9, 40320, Note_on_c, 8, 52, 85
9, 40560, Note_on_c, 8, 52, 0
9, 40560, Note_on_c, 8, 40, 85
9, 40800, Note_on_c, 8, 40, 0
9, 40800, Note_on_c, 8, 43, 85
9, 41040, Note_on_c, 8, 43, 0
9, 41040, Note_on_c, 8, 43, 85
9, 41280, Note_on_c, 8, 43, 0
9, 41280, Note_on_c, 8, 36, 85
9, 41520, Note_on_c, 8, 36, 0
9, 41520, Note_on_c, 8, 36, 85
9, 41760, Note_on_c, 8, 36, 0
9, 41760, Note_on_c, 8, 41, 85
9, 42000, Note_on_c, 8, 41, 0
9, 42000, Note_on_c, 8, 41, 85
9, 42240, Note_on_c, 8, 41, 0
9, 42240, Note_on_c, 8, 41, 85
9, 42360, Note_on_c, 8, 41, 0
9, 42360, Note_on_c, 8, 36, 85
9, 42480, Note_on_c, 8, 36, 0
9, 42480, Note_on_c, 8, 38, 85
9, 42600, Note_on_c, 8, 38, 0
9, 42600, Note_on_c, 8, 40, 85
9, 42720, Note_on_c, 8, 40, 0
9, 42720, Note_on_c, 8, 41, 85
9, 42960, Note_on_c, 8, 41, 0
9, 42960, Note_on_c, 8, 41, 85
9, 43200, Note_on_c, 8, 41, 0
9, 43200, Note_on_c, 8, 43, 85
9, 43440, Note_on_c, 8, 43, 0
9, 43440, Note_on_c, 8, 43, 85
9, 43680, Note_on_c, 8, 43, 0
9, 43680, Note_on_c, 8, 36, 85
9, 43920, Note_on_c, 8, 36, 0
9, 43920, Note_on_c, 8, 43, 85
9, 44160, Note_on_c, 8, 43, 0
9, 44160, Note_on_c, 8, 36, 85
9, 44400, Note_on_c, 8, 36, 0
9, 44400, Note_on_c, 8, 36, 85
9, 44640, Note_on_c, 8, 36, 0
9, 44640, Note_on_c, 8, 38, 85
9, 44880, Note_on_c, 8, 38, 0
9, 44880, Note_on_c, 8, 38, 85
9, 45120, Note_on_c, 8, 38, 0
9, 45120, Note_on_c, 8, 43, 85
9, 45360, Note_on_c, 8, 43, 0
9, 45360, Note_on_c, 8, 43, 85
9, 45600, Note_on_c, 8, 43, 0
9, 45600, Note_on_c, 8, 36, 85
9, 45840, Note_on_c, 8, 36, 0
9, 45840, Note_on_c, 8, 43, 85
9, 46080, Note_on_c, 8, 43, 0
9, 46080, Note_on_c, 8, 48, 85
9, 46320, Note_on_c, 8, 48, 0
9, 46320, Note_on_c, 8, 36, 85
9, 46560, Note_on_c, 8, 36, 0
9, 46560, Note_on_c, 8, 40, 85
9, 46800, Note_on_c, 8, 40, 0
9, 46800, Note_on_c, 8, 47, 85
9, 47040, Note_on_c, 8, 47, 0
9, 47040, Note_on_c, 8, 52, 85
9, 47280, Note_on_c, 8, 52, 0
9, 47280, Note_on_c, 8, 40, 85
9, 47520, Note_on_c, 8, 40, 0
9, 47520, Note_on_c, 8, 43, 85
9, 47760, Note_on_c, 8, 43, 0
9, 47760, Note_on_c, 8, 43, 85
9, 48000, Note_on_c, 8, 43, 0
9, 48000, Note_on_c, 8, 36, 81
9, 48000, Note_on_c, 8, 48, 81
9, 48480, Note_on_c, 8, 48, 0
9, 48480, Note_on_c, 8, 36, 0
9, 48480, End_track
10, 0, Start_track
10, 0, MIDI_port, 0
10, 0, Title_t, "Drums"
10, 0, Control_c, 9, 121, 0
10, 0, Control_c, 9, 123, 0
10, 0, Control_c, 9, 91, 40
10, 0, Control_c, 9, 93, 0
10, 167, Program_c, 9, 16
10, 168, Control_c, 9, 7, 85
10, 168, Control_c, 9, 10, 59
10, 960, Note_on_c, 9, 35, 81
10, 960, Note_on_c, 9, 42, 81
10, 960, Note_on_c, 9, 51, 81
10, 960, Note_on_c, 9, 70, 51
10, 961, Note_on_c, 9, 70, 0
10, 961, Note_on_c, 9, 35, 0
10, 961, Note_on_c, 9, 42, 0
10, 961, Note_on_c, 9, 51, 0
10, 1020, Note_on_c, 9, 42, 31
10, 1020, Note_on_c, 9, 70, 13
10, 1020, Note_on_c, 9, 69, 51
10, 1021, Note_on_c, 9, 69, 0
10, 1021, Note_on_c, 9, 70, 0
10, 1021, Note_on_c, 9, 42, 0
10, 1080, Note_on_c, 9, 42, 61
10, 1080, Note_on_c, 9, 37, 106
10, 1080, Note_on_c, 9, 70, 51
10, 1080, Note_on_c, 9, 69, 81
10, 1081, Note_on_c, 9, 69, 0
10, 1081, Note_on_c, 9, 42, 0
10, 1081, Note_on_c, 9, 37, 0
10, 1081, Note_on_c, 9, 70, 0
10, 1140, Note_on_c, 9, 35, 61
10, 1140, Note_on_c, 9, 42, 31
10, 1140, Note_on_c, 9, 70, 13
10, 1141, Note_on_c, 9, 70, 0
10, 1141, Note_on_c, 9, 42, 0
10, 1141, Note_on_c, 9, 35, 0
10, 1200, Note_on_c, 9, 35, 81
10, 1200, Note_on_c, 9, 42, 81
10, 1200, Note_on_c, 9, 70, 51
10, 1201, Note_on_c, 9, 70, 0
10, 1201, Note_on_c, 9, 42, 0
10, 1201, Note_on_c, 9, 35, 0
10, 1260, Note_on_c, 9, 42, 31
10, 1260, Note_on_c, 9, 70, 13
10, 1260, Note_on_c, 9, 69, 51
10, 1261, Note_on_c, 9, 69, 0
10, 1261, Note_on_c, 9, 70, 0
10, 1261, Note_on_c, 9, 42, 0
10, 1320, Note_on_c, 9, 42, 61
10, 1320, Note_on_c, 9, 37, 106
10, 1320, Note_on_c, 9, 70, 51
10, 1320, Note_on_c, 9, 69, 81
10, 1321, Note_on_c, 9, 69, 0
10, 1321, Note_on_c, 9, 42, 0
10, 1321, Note_on_c, 9, 37, 0
10, 1321, Note_on_c, 9, 70, 0
10, 1380, Note_on_c, 9, 35, 61
10, 1380, Note_on_c, 9, 42, 31
10, 1380, Note_on_c, 9, 70, 13
10, 1381, Note_on_c, 9, 70, 0
10, 1381, Note_on_c, 9, 42, 0
10, 1381, Note_on_c, 9, 35, 0
10, 1440, Note_on_c, 9, 35, 81
10, 1440, Note_on_c, 9, 42, 81
10, 1440, Note_on_c, 9, 70, 51
10, 1441, Note_on_c, 9, 70, 0
10, 1441, Note_on_c, 9, 42, 0
10, 1441, Note_on_c, 9, 35, 0
10, 1500, Note_on_c, 9, 42, 46
10, 1500, Note_on_c, 9, 70, 13
10, 1500, Note_on_c, 9, 69, 51
10, 1501, Note_on_c, 9, 69, 0
10, 1501, Note_on_c, 9, 70, 0
10, 1501, Note_on_c, 9, 42, 0
10, 1560, Note_on_c, 9, 42, 86
10, 1560, Note_on_c, 9, 37, 106
10, 1560, Note_on_c, 9, 70, 51
10, 1560, Note_on_c, 9, 69, 81
10, 1561, Note_on_c, 9, 69, 0
10, 1561, Note_on_c, 9, 42, 0
10, 1561, Note_on_c, 9, 37, 0
10, 1561, Note_on_c, 9, 70, 0
10, 1620, Note_on_c, 9, 35, 61
10, 1620, Note_on_c, 9, 42, 41
10, 1620, Note_on_c, 9, 70, 13
10, 1621, Note_on_c, 9, 70, 0
10, 1621, Note_on_c, 9, 42, 0
10, 1621, Note_on_c, 9, 35, 0
10, 1680, Note_on_c, 9, 35, 81
10, 1680, Note_on_c, 9, 42, 71
10, 1680, Note_on_c, 9, 70, 51
10, 1681, Note_on_c, 9, 70, 0
10, 1681, Note_on_c, 9, 42, 0
10, 1681, Note_on_c, 9, 35, 0
10, 1740, Note_on_c, 9, 42, 81
10, 1740, Note_on_c, 9, 70, 13
10, 1740, Note_on_c, 9, 69, 51
10, 1741, Note_on_c, 9, 69, 0
10, 1741, Note_on_c, 9, 70, 0
10, 1741, Note_on_c, 9, 42, 0
10, 1800, Note_on_c, 9, 42, 91
10, 1800, Note_on_c, 9, 37, 106
10, 1800, Note_on_c, 9, 70, 51
10, 1800, Note_on_c, 9, 69, 81
10, 1801, Note_on_c, 9, 69, 0
10, 1801, Note_on_c, 9, 42, 0
10, 1801, Note_on_c, 9, 37, 0
10, 1801, Note_on_c, 9, 70, 0
10, 1860, Note_on_c, 9, 35, 66
10, 1860, Note_on_c, 9, 46, 81
10, 1860, Note_on_c, 9, 70, 13
10, 1861, Note_on_c, 9, 70, 0
10, 1861, Note_on_c, 9, 46, 0
10, 1861, Note_on_c, 9, 35, 0
10, 1920, Note_on_c, 9, 35, 81
10, 1920, Note_on_c, 9, 42, 81
10, 1920, Note_on_c, 9, 70, 51
10, 1921, Note_on_c, 9, 70, 0
10, 1921, Note_on_c, 9, 42, 0
10, 1921, Note_on_c, 9, 35, 0
10, 1980, Note_on_c, 9, 42, 31
10, 1980, Note_on_c, 9, 70, 13
10, 1980, Note_on_c, 9, 69, 51
10, 1981, Note_on_c, 9, 69, 0
10, 1981, Note_on_c, 9, 70, 0
10, 1981, Note_on_c, 9, 42, 0
10, 2040, Note_on_c, 9, 42, 61
10, 2040, Note_on_c, 9, 37, 106
10, 2040, Note_on_c, 9, 70, 51
10, 2040, Note_on_c, 9, 69, 81
10, 2041, Note_on_c, 9, 69, 0
10, 2041, Note_on_c, 9, 42, 0
10, 2041, Note_on_c, 9, 37, 0
10, 2041, Note_on_c, 9, 70, 0
10, 2100, Note_on_c, 9, 35, 61
10, 2100, Note_on_c, 9, 42, 31
10, 2100, Note_on_c, 9, 70, 13
10, 2101, Note_on_c, 9, 70, 0
10, 2101, Note_on_c, 9, 42, 0
10, 2101, Note_on_c, 9, 35, 0
10, 2160, Note_on_c, 9, 35, 81
10, 2160, Note_on_c, 9, 42, 81
10, 2160, Note_on_c, 9, 70, 51
10, 2161, Note_on_c, 9, 70, 0
10, 2161, Note_on_c, 9, 42, 0
10, 2161, Note_on_c, 9, 35, 0
10, 2220, Note_on_c, 9, 42, 31
10, 2220, Note_on_c, 9, 70, 13
10, 2220, Note_on_c, 9, 69, 51
10, 2221, Note_on_c, 9, 69, 0
10, 2221, Note_on_c, 9, 70, 0
10, 2221, Note_on_c, 9, 42, 0
10, 2280, Note_on_c, 9, 42, 61
10, 2280, Note_on_c, 9, 37, 106
10, 2280, Note_on_c, 9, 70, 51
10, 2280, Note_on_c, 9, 69, 81
10, 2281, Note_on_c, 9, 69, 0
10, 2281, Note_on_c, 9, 42, 0
10, 2281, Note_on_c, 9, 37, 0
10, 2281, Note_on_c, 9, 70, 0
10, 2340, Note_on_c, 9, 35, 61
10, 2340, Note_on_c, 9, 42, 31
10, 2340, Note_on_c, 9, 70, 13
10, 2341, Note_on_c, 9, 70, 0
10, 2341, Note_on_c, 9, 42, 0
10, 2341, Note_on_c, 9, 35, 0
10, 2400, Note_on_c, 9, 35, 81
10, 2400, Note_on_c, 9, 42, 81
10, 2400, Note_on_c, 9, 70, 51
10, 2401, Note_on_c, 9, 70, 0
10, 2401, Note_on_c, 9, 42, 0
10, 2401, Note_on_c, 9, 35, 0
10, 2460, Note_on_c, 9, 42, 31
10, 2460, Note_on_c, 9, 70, 13
10, 2460, Note_on_c, 9, 69, 51
10, 2461, Note_on_c, 9, 69, 0
10, 2461, Note_on_c, 9, 70, 0
10, 2461, Note_on_c, 9, 42, 0
10, 2520, Note_on_c, 9, 42, 91
10, 2520, Note_on_c, 9, 37, 106
10, 2520, Note_on_c, 9, 70, 51
10, 2520, Note_on_c, 9, 69, 81
10, 2521, Note_on_c, 9, 69, 0
10, 2521, Note_on_c, 9, 42, 0
10, 2521, Note_on_c, 9, 37, 0
10, 2521, Note_on_c, 9, 70, 0
10, 2580, Note_on_c, 9, 35, 61
10, 2580, Note_on_c, 9, 42, 31
10, 2580, Note_on_c, 9, 70, 13
10, 2581, Note_on_c, 9, 70, 0
10, 2581, Note_on_c, 9, 42, 0
10, 2581, Note_on_c, 9, 35, 0
10, 2640, Note_on_c, 9, 35, 81
10, 2640, Note_on_c, 9, 42, 81
10, 2640, Note_on_c, 9, 70, 51
10, 2641, Note_on_c, 9, 70, 0
10, 2641, Note_on_c, 9, 42, 0
10, 2641, Note_on_c, 9, 35, 0
10, 2700, Note_on_c, 9, 42, 31
10, 2700, Note_on_c, 9, 70, 13
10, 2700, Note_on_c, 9, 69, 51
10, 2701, Note_on_c, 9, 69, 0
10, 2701, Note_on_c, 9, 70, 0
10, 2701, Note_on_c, 9, 42, 0
10, 2760, Note_on_c, 9, 42, 91
10, 2760, Note_on_c, 9, 37, 106
10, 2760, Note_on_c, 9, 70, 51
10, 2760, Note_on_c, 9, 69, 81
10, 2761, Note_on_c, 9, 69, 0
10, 2761, Note_on_c, 9, 42, 0
10, 2761, Note_on_c, 9, 37, 0
10, 2761, Note_on_c, 9, 70, 0
10, 2820, Note_on_c, 9, 35, 66
10, 2820, Note_on_c, 9, 46, 81
10, 2820, Note_on_c, 9, 70, 13
10, 2821, Note_on_c, 9, 70, 0
10, 2821, Note_on_c, 9, 46, 0
10, 2821, Note_on_c, 9, 35, 0
10, 2880, Note_on_c, 9, 35, 81
10, 2880, Note_on_c, 9, 42, 81
10, 2880, Note_on_c, 9, 70, 51
10, 2881, Note_on_c, 9, 70, 0
10, 2881, Note_on_c, 9, 42, 0
10, 2881, Note_on_c, 9, 35, 0
10, 2940, Note_on_c, 9, 42, 31
10, 2940, Note_on_c, 9, 70, 13
10, 2940, Note_on_c, 9, 69, 51
10, 2941, Note_on_c, 9, 69, 0
10, 2941, Note_on_c, 9, 70, 0
10, 2941, Note_on_c, 9, 42, 0
10, 3000, Note_on_c, 9, 42, 71
10, 3000, Note_on_c, 9, 37, 106
10, 3000, Note_on_c, 9, 70, 51
10, 3000, Note_on_c, 9, 69, 81
10, 3001, Note_on_c, 9, 69, 0
10, 3001, Note_on_c, 9, 42, 0
10, 3001, Note_on_c, 9, 37, 0
10, 3001, Note_on_c, 9, 70, 0
10, 3060, Note_on_c, 9, 35, 61
10, 3060, Note_on_c, 9, 42, 31
10, 3060, Note_on_c, 9, 70, 13
10, 3061, Note_on_c, 9, 70, 0
10, 3061, Note_on_c, 9, 42, 0
10, 3061, Note_on_c, 9, 35, 0
10, 3120, Note_on_c, 9, 35, 81
10, 3120, Note_on_c, 9, 42, 81
10, 3120, Note_on_c, 9, 70, 51
10, 3121, Note_on_c, 9, 70, 0
10, 3121, Note_on_c, 9, 42, 0
10, 3121, Note_on_c, 9, 35, 0
10, 3180, Note_on_c, 9, 42, 31
10, 3180, Note_on_c, 9, 70, 13
10, 3180, Note_on_c, 9, 69, 51
10, 3181, Note_on_c, 9, 69, 0
10, 3181, Note_on_c, 9, 70, 0
10, 3181, Note_on_c, 9, 42, 0
10, 3240, Note_on_c, 9, 42, 71
10, 3240, Note_on_c, 9, 37, 106
10, 3240, Note_on_c, 9, 70, 51
10, 3240, Note_on_c, 9, 69, 81
10, 3241, Note_on_c, 9, 69, 0
10, 3241, Note_on_c, 9, 42, 0
10, 3241, Note_on_c, 9, 37, 0
10, 3241, Note_on_c, 9, 70, 0
10, 3300, Note_on_c, 9, 35, 61
10, 3300, Note_on_c, 9, 46, 63
10, 3300, Note_on_c, 9, 70, 13
10, 3301, Note_on_c, 9, 70, 0
10, 3301, Note_on_c, 9, 46, 0
10, 3301, Note_on_c, 9, 35, 0
10, 3360, Note_on_c, 9, 35, 81
10, 3360, Note_on_c, 9, 42, 81
10, 3360, Note_on_c, 9, 70, 51
10, 3361, Note_on_c, 9, 70, 0
10, 3361, Note_on_c, 9, 42, 0
10, 3361, Note_on_c, 9, 35, 0
10, 3420, Note_on_c, 9, 42, 46
10, 3420, Note_on_c, 9, 70, 13
10, 3420, Note_on_c, 9, 69, 51
10, 3421, Note_on_c, 9, 69, 0
10, 3421, Note_on_c, 9, 70, 0
10, 3421, Note_on_c, 9, 42, 0
10, 3480, Note_on_c, 9, 42, 86
10, 3480, Note_on_c, 9, 37, 106
10, 3480, Note_on_c, 9, 70, 51
10, 3480, Note_on_c, 9, 69, 81
10, 3481, Note_on_c, 9, 69, 0
10, 3481, Note_on_c, 9, 42, 0
10, 3481, Note_on_c, 9, 37, 0
10, 3481, Note_on_c, 9, 70, 0
10, 3540, Note_on_c, 9, 35, 61
10, 3540, Note_on_c, 9, 42, 63
10, 3540, Note_on_c, 9, 70, 13
10, 3541, Note_on_c, 9, 70, 0
10, 3541, Note_on_c, 9, 42, 0
10, 3541, Note_on_c, 9, 35, 0
10, 3600, Note_on_c, 9, 35, 81
10, 3600, Note_on_c, 9, 42, 99
10, 3600, Note_on_c, 9, 70, 51
10, 3601, Note_on_c, 9, 70, 0
10, 3601, Note_on_c, 9, 42, 0
10, 3601, Note_on_c, 9, 35, 0
10, 3660, Note_on_c, 9, 42, 81
10, 3660, Note_on_c, 9, 70, 13
10, 3660, Note_on_c, 9, 69, 51
10, 3661, Note_on_c, 9, 69, 0
10, 3661, Note_on_c, 9, 70, 0
10, 3661, Note_on_c, 9, 42, 0
10, 3720, Note_on_c, 9, 42, 91
10, 3720, Note_on_c, 9, 37, 106
10, 3720, Note_on_c, 9, 70, 51
10, 3720, Note_on_c, 9, 69, 81
10, 3721, Note_on_c, 9, 69, 0
10, 3721, Note_on_c, 9, 42, 0
10, 3721, Note_on_c, 9, 37, 0
10, 3721, Note_on_c, 9, 70, 0
10, 3780, Note_on_c, 9, 35, 66
10, 3780, Note_on_c, 9, 46, 81
10, 3780, Note_on_c, 9, 70, 13
10, 3781, Note_on_c, 9, 70, 0
10, 3781, Note_on_c, 9, 46, 0
10, 3781, Note_on_c, 9, 35, 0
10, 3840, Note_on_c, 9, 35, 81
10, 3840, Note_on_c, 9, 42, 81
10, 3840, Note_on_c, 9, 70, 51
10, 3841, Note_on_c, 9, 70, 0
10, 3841, Note_on_c, 9, 42, 0
10, 3841, Note_on_c, 9, 35, 0
10, 3900, Note_on_c, 9, 42, 31
10, 3900, Note_on_c, 9, 70, 13
10, 3900, Note_on_c, 9, 69, 51
10, 3901, Note_on_c, 9, 69, 0
10, 3901, Note_on_c, 9, 70, 0
10, 3901, Note_on_c, 9, 42, 0
10, 3960, Note_on_c, 9, 42, 71
10, 3960, Note_on_c, 9, 37, 106
10, 3960, Note_on_c, 9, 70, 51
10, 3960, Note_on_c, 9, 69, 81
10, 3961, Note_on_c, 9, 69, 0
10, 3961, Note_on_c, 9, 42, 0
10, 3961, Note_on_c, 9, 37, 0
10, 3961, Note_on_c, 9, 70, 0
10, 4020, Note_on_c, 9, 35, 61
10, 4020, Note_on_c, 9, 46, 63
10, 4020, Note_on_c, 9, 70, 13
10, 4021, Note_on_c, 9, 70, 0
10, 4021, Note_on_c, 9, 46, 0
10, 4021, Note_on_c, 9, 35, 0
10, 4080, Note_on_c, 9, 35, 81
10, 4080, Note_on_c, 9, 42, 81
10, 4080, Note_on_c, 9, 70, 51
10, 4081, Note_on_c, 9, 70, 0
10, 4081, Note_on_c, 9, 42, 0
10, 4081, Note_on_c, 9, 35, 0
10, 4140, Note_on_c, 9, 42, 31
10, 4140, Note_on_c, 9, 70, 13
10, 4140, Note_on_c, 9, 69, 51
10, 4141, Note_on_c, 9, 69, 0
10, 4141, Note_on_c, 9, 70, 0
10, 4141, Note_on_c, 9, 42, 0
10, 4200, Note_on_c, 9, 42, 71
10, 4200, Note_on_c, 9, 37, 106
10, 4200, Note_on_c, 9, 70, 51
10, 4200, Note_on_c, 9, 69, 81
10, 4201, Note_on_c, 9, 69, 0
10, 4201, Note_on_c, 9, 42, 0
10, 4201, Note_on_c, 9, 37, 0
10, 4201, Note_on_c, 9, 70, 0
10, 4260, Note_on_c, 9, 35, 61
10, 4260, Note_on_c, 9, 42, 31
10, 4260, Note_on_c, 9, 70, 13
10, 4261, Note_on_c, 9, 70, 0
10, 4261, Note_on_c, 9, 42, 0
10, 4261, Note_on_c, 9, 35, 0
10, 4320, Note_on_c, 9, 35, 81
10, 4320, Note_on_c, 9, 42, 81
10, 4320, Note_on_c, 9, 70, 51
10, 4321, Note_on_c, 9, 70, 0
10, 4321, Note_on_c, 9, 42, 0
10, 4321, Note_on_c, 9, 35, 0
10, 4380, Note_on_c, 9, 42, 35
10, 4380, Note_on_c, 9, 70, 13
10, 4380, Note_on_c, 9, 69, 51
10, 4381, Note_on_c, 9, 69, 0
10, 4381, Note_on_c, 9, 70, 0
10, 4381, Note_on_c, 9, 42, 0
10, 4440, Note_on_c, 9, 42, 91
10, 4440, Note_on_c, 9, 37, 106
10, 4440, Note_on_c, 9, 70, 51
10, 4440, Note_on_c, 9, 69, 81
10, 4441, Note_on_c, 9, 69, 0
10, 4441, Note_on_c, 9, 42, 0
10, 4441, Note_on_c, 9, 37, 0
10, 4441, Note_on_c, 9, 70, 0
10, 4500, Note_on_c, 9, 35, 61
10, 4500, Note_on_c, 9, 42, 46
10, 4500, Note_on_c, 9, 70, 13
10, 4501, Note_on_c, 9, 70, 0
10, 4501, Note_on_c, 9, 42, 0
10, 4501, Note_on_c, 9, 35, 0
10, 4560, Note_on_c, 9, 35, 81
10, 4560, Note_on_c, 9, 42, 81
10, 4560, Note_on_c, 9, 70, 51
10, 4561, Note_on_c, 9, 70, 0
10, 4561, Note_on_c, 9, 42, 0
10, 4561, Note_on_c, 9, 35, 0
10, 4620, Note_on_c, 9, 46, 45
10, 4620, Note_on_c, 9, 70, 13
10, 4620, Note_on_c, 9, 69, 51
10, 4621, Note_on_c, 9, 69, 0
10, 4621, Note_on_c, 9, 70, 0
10, 4621, Note_on_c, 9, 46, 0
10, 4680, Note_on_c, 9, 46, 81
10, 4680, Note_on_c, 9, 37, 106
10, 4680, Note_on_c, 9, 70, 51
10, 4680, Note_on_c, 9, 69, 81
10, 4681, Note_on_c, 9, 69, 0
10, 4681, Note_on_c, 9, 46, 0
10, 4681, Note_on_c, 9, 37, 0
10, 4681, Note_on_c, 9, 70, 0
10, 4740, Note_on_c, 9, 35, 66
10, 4740, Note_on_c, 9, 42, 51
10, 4740, Note_on_c, 9, 70, 13
10, 4741, Note_on_c, 9, 70, 0
10, 4741, Note_on_c, 9, 42, 0
10, 4741, Note_on_c, 9, 35, 0
10, 4800, Note_on_c, 9, 35, 81
10, 4800, Note_on_c, 9, 42, 81
10, 4800, Note_on_c, 9, 70, 51
10, 4801, Note_on_c, 9, 70, 0
10, 4801, Note_on_c, 9, 42, 0
10, 4801, Note_on_c, 9, 35, 0
10, 4860, Note_on_c, 9, 42, 31
10, 4860, Note_on_c, 9, 70, 13
10, 4860, Note_on_c, 9, 69, 51
10, 4861, Note_on_c, 9, 69, 0
10, 4861, Note_on_c, 9, 70, 0
10, 4861, Note_on_c, 9, 42, 0
10, 4920, Note_on_c, 9, 42, 71
10, 4920, Note_on_c, 9, 37, 106
10, 4920, Note_on_c, 9, 70, 51
10, 4920, Note_on_c, 9, 69, 81
10, 4921, Note_on_c, 9, 69, 0
10, 4921, Note_on_c, 9, 42, 0
10, 4921, Note_on_c, 9, 37, 0
10, 4921, Note_on_c, 9, 70, 0
10, 4980, Note_on_c, 9, 35, 61
10, 4980, Note_on_c, 9, 42, 31
10, 4980, Note_on_c, 9, 70, 13
10, 4981, Note_on_c, 9, 70, 0
10, 4981, Note_on_c, 9, 42, 0
10, 4981, Note_on_c, 9, 35, 0
10, 5040, Note_on_c, 9, 35, 81
10, 5040, Note_on_c, 9, 42, 81
10, 5040, Note_on_c, 9, 70, 51
10, 5041, Note_on_c, 9, 70, 0
10, 5041, Note_on_c, 9, 42, 0
10, 5041, Note_on_c, 9, 35, 0
10, 5100, Note_on_c, 9, 42, 31
10, 5100, Note_on_c, 9, 70, 13
10, 5100, Note_on_c, 9, 69, 51
10, 5101, Note_on_c, 9, 69, 0
10, 5101, Note_on_c, 9, 70, 0
10, 5101, Note_on_c, 9, 42, 0
10, 5160, Note_on_c, 9, 42, 71
10, 5160, Note_on_c, 9, 37, 106
10, 5160, Note_on_c, 9, 70, 51
10, 5160, Note_on_c, 9, 69, 81
10, 5161, Note_on_c, 9, 69, 0
10, 5161, Note_on_c, 9, 42, 0
10, 5161, Note_on_c, 9, 37, 0
10, 5161, Note_on_c, 9, 70, 0
10, 5220, Note_on_c, 9, 35, 61
10, 5220, Note_on_c, 9, 42, 31
10, 5220, Note_on_c, 9, 70, 13
10, 5221, Note_on_c, 9, 70, 0
10, 5221, Note_on_c, 9, 42, 0
10, 5221, Note_on_c, 9, 35, 0
10, 5280, Note_on_c, 9, 35, 81
10, 5280, Note_on_c, 9, 42, 81
10, 5280, Note_on_c, 9, 70, 51
10, 5281, Note_on_c, 9, 70, 0
10, 5281, Note_on_c, 9, 42, 0
10, 5281, Note_on_c, 9, 35, 0
10, 5340, Note_on_c, 9, 42, 46
10, 5340, Note_on_c, 9, 70, 13
10, 5340, Note_on_c, 9, 69, 51
10, 5341, Note_on_c, 9, 69, 0
10, 5341, Note_on_c, 9, 70, 0
10, 5341, Note_on_c, 9, 42, 0
10, 5400, Note_on_c, 9, 42, 86
10, 5400, Note_on_c, 9, 37, 106
10, 5400, Note_on_c, 9, 70, 51
10, 5400, Note_on_c, 9, 69, 81
10, 5401, Note_on_c, 9, 69, 0
10, 5401, Note_on_c, 9, 42, 0
10, 5401, Note_on_c, 9, 37, 0
10, 5401, Note_on_c, 9, 70, 0
10, 5460, Note_on_c, 9, 35, 61
10, 5460, Note_on_c, 9, 42, 41
10, 5460, Note_on_c, 9, 70, 13
10, 5461, Note_on_c, 9, 70, 0
10, 5461, Note_on_c, 9, 42, 0
10, 5461, Note_on_c, 9, 35, 0
10, 5520, Note_on_c, 9, 35, 81
10, 5520, Note_on_c, 9, 42, 71
10, 5520, Note_on_c, 9, 70, 51
10, 5521, Note_on_c, 9, 70, 0
10, 5521, Note_on_c, 9, 42, 0
10, 5521, Note_on_c, 9, 35, 0
10, 5580, Note_on_c, 9, 42, 81
10, 5580, Note_on_c, 9, 70, 13
10, 5580, Note_on_c, 9, 69, 51
10, 5581, Note_on_c, 9, 69, 0
10, 5581, Note_on_c, 9, 70, 0
10, 5581, Note_on_c, 9, 42, 0
10, 5640, Note_on_c, 9, 42, 91
10, 5640, Note_on_c, 9, 37, 106
10, 5640, Note_on_c, 9, 70, 51
10, 5640, Note_on_c, 9, 69, 81
10, 5641, Note_on_c, 9, 69, 0
10, 5641, Note_on_c, 9, 42, 0
10, 5641, Note_on_c, 9, 37, 0
10, 5641, Note_on_c, 9, 70, 0
10, 5700, Note_on_c, 9, 35, 66
10, 5700, Note_on_c, 9, 46, 81
10, 5700, Note_on_c, 9, 70, 13
10, 5701, Note_on_c, 9, 70, 0
10, 5701, Note_on_c, 9, 46, 0
10, 5701, Note_on_c, 9, 35, 0
10, 5760, Note_on_c, 9, 35, 81
10, 5760, Note_on_c, 9, 42, 81
10, 5760, Note_on_c, 9, 70, 51
10, 5761, Note_on_c, 9, 70, 0
10, 5761, Note_on_c, 9, 42, 0
10, 5761, Note_on_c, 9, 35, 0
10, 5820, Note_on_c, 9, 42, 31
10, 5820, Note_on_c, 9, 70, 13
10, 5820, Note_on_c, 9, 69, 51
10, 5821, Note_on_c, 9, 69, 0
10, 5821, Note_on_c, 9, 70, 0
10, 5821, Note_on_c, 9, 42, 0
10, 5880, Note_on_c, 9, 42, 61
10, 5880, Note_on_c, 9, 37, 106
10, 5880, Note_on_c, 9, 70, 51
10, 5880, Note_on_c, 9, 69, 81
10, 5881, Note_on_c, 9, 69, 0
10, 5881, Note_on_c, 9, 42, 0
10, 5881, Note_on_c, 9, 37, 0
10, 5881, Note_on_c, 9, 70, 0
10, 5940, Note_on_c, 9, 35, 61
10, 5940, Note_on_c, 9, 42, 31
10, 5940, Note_on_c, 9, 70, 13
10, 5941, Note_on_c, 9, 70, 0
10, 5941, Note_on_c, 9, 42, 0
10, 5941, Note_on_c, 9, 35, 0
10, 6000, Note_on_c, 9, 35, 81
10, 6000, Note_on_c, 9, 42, 81
10, 6000, Note_on_c, 9, 70, 51
10, 6001, Note_on_c, 9, 70, 0
10, 6001, Note_on_c, 9, 42, 0
10, 6001, Note_on_c, 9, 35, 0
10, 6060, Note_on_c, 9, 42, 31
10, 6060, Note_on_c, 9, 70, 13
10, 6060, Note_on_c, 9, 69, 51
10, 6061, Note_on_c, 9, 69, 0
10, 6061, Note_on_c, 9, 70, 0
10, 6061, Note_on_c, 9, 42, 0
10, 6120, Note_on_c, 9, 42, 61
10, 6120, Note_on_c, 9, 37, 106
10, 6120, Note_on_c, 9, 70, 51
10, 6120, Note_on_c, 9, 69, 81
10, 6121, Note_on_c, 9, 69, 0
10, 6121, Note_on_c, 9, 42, 0
10, 6121, Note_on_c, 9, 37, 0
10, 6121, Note_on_c, 9, 70, 0
10, 6180, Note_on_c, 9, 35, 61
10, 6180, Note_on_c, 9, 42, 31
10, 6180, Note_on_c, 9, 70, 13
10, 6181, Note_on_c, 9, 70, 0
10, 6181, Note_on_c, 9, 42, 0
10, 6181, Note_on_c, 9, 35, 0
10, 6240, Note_on_c, 9, 35, 81
10, 6240, Note_on_c, 9, 42, 81
10, 6240, Note_on_c, 9, 70, 51
10, 6241, Note_on_c, 9, 70, 0
10, 6241, Note_on_c, 9, 42, 0
10, 6241, Note_on_c, 9, 35, 0
10, 6300, Note_on_c, 9, 42, 35
10, 6300, Note_on_c, 9, 70, 13
10, 6300, Note_on_c, 9, 69, 51
10, 6301, Note_on_c, 9, 69, 0
10, 6301, Note_on_c, 9, 70, 0
10, 6301, Note_on_c, 9, 42, 0
10, 6360, Note_on_c, 9, 42, 91
10, 6360, Note_on_c, 9, 37, 106
10, 6360, Note_on_c, 9, 70, 51
10, 6360, Note_on_c, 9, 69, 81
10, 6361, Note_on_c, 9, 69, 0
10, 6361, Note_on_c, 9, 42, 0
10, 6361, Note_on_c, 9, 37, 0
10, 6361, Note_on_c, 9, 70, 0
10, 6420, Note_on_c, 9, 35, 61
10, 6420, Note_on_c, 9, 42, 46
10, 6420, Note_on_c, 9, 70, 13
10, 6421, Note_on_c, 9, 70, 0
10, 6421, Note_on_c, 9, 42, 0
10, 6421, Note_on_c, 9, 35, 0
10, 6480, Note_on_c, 9, 35, 81
10, 6480, Note_on_c, 9, 42, 81
10, 6480, Note_on_c, 9, 70, 51
10, 6481, Note_on_c, 9, 70, 0
10, 6481, Note_on_c, 9, 42, 0
10, 6481, Note_on_c, 9, 35, 0
10, 6540, Note_on_c, 9, 46, 45
10, 6540, Note_on_c, 9, 70, 13
10, 6540, Note_on_c, 9, 69, 51
10, 6541, Note_on_c, 9, 69, 0
10, 6541, Note_on_c, 9, 70, 0
10, 6541, Note_on_c, 9, 46, 0
10, 6600, Note_on_c, 9, 42, 81
10, 6600, Note_on_c, 9, 37, 106
10, 6600, Note_on_c, 9, 70, 51
10, 6600, Note_on_c, 9, 69, 81
10, 6601, Note_on_c, 9, 69, 0
10, 6601, Note_on_c, 9, 42, 0
10, 6601, Note_on_c, 9, 37, 0
10, 6601, Note_on_c, 9, 70, 0
10, 6660, Note_on_c, 9, 35, 66
10, 6660, Note_on_c, 9, 42, 51
10, 6660, Note_on_c, 9, 70, 13
10, 6661, Note_on_c, 9, 70, 0
10, 6661, Note_on_c, 9, 42, 0
10, 6661, Note_on_c, 9, 35, 0
10, 6720, Note_on_c, 9, 35, 81
10, 6720, Note_on_c, 9, 42, 81
10, 6720, Note_on_c, 9, 70, 51
10, 6721, Note_on_c, 9, 70, 0
10, 6721, Note_on_c, 9, 42, 0
10, 6721, Note_on_c, 9, 35, 0
10, 6780, Note_on_c, 9, 42, 31
10, 6780, Note_on_c, 9, 70, 13
10, 6780, Note_on_c, 9, 69, 51
10, 6781, Note_on_c, 9, 69, 0
10, 6781, Note_on_c, 9, 70, 0
10, 6781, Note_on_c, 9, 42, 0
10, 6840, Note_on_c, 9, 42, 61
10, 6840, Note_on_c, 9, 37, 106
10, 6840, Note_on_c, 9, 70, 51
10, 6840, Note_on_c, 9, 69, 81
10, 6841, Note_on_c, 9, 69, 0
10, 6841, Note_on_c, 9, 42, 0
10, 6841, Note_on_c, 9, 37, 0
10, 6841, Note_on_c, 9, 70, 0
10, 6900, Note_on_c, 9, 35, 61
10, 6900, Note_on_c, 9, 42, 31
10, 6900, Note_on_c, 9, 70, 13
10, 6901, Note_on_c, 9, 70, 0
10, 6901, Note_on_c, 9, 42, 0
10, 6901, Note_on_c, 9, 35, 0
10, 6960, Note_on_c, 9, 35, 81
10, 6960, Note_on_c, 9, 42, 81
10, 6960, Note_on_c, 9, 70, 51
10, 6961, Note_on_c, 9, 70, 0
10, 6961, Note_on_c, 9, 42, 0
10, 6961, Note_on_c, 9, 35, 0
10, 7020, Note_on_c, 9, 42, 31
10, 7020, Note_on_c, 9, 70, 13
10, 7020, Note_on_c, 9, 69, 51
10, 7021, Note_on_c, 9, 69, 0
10, 7021, Note_on_c, 9, 70, 0
10, 7021, Note_on_c, 9, 42, 0
10, 7080, Note_on_c, 9, 42, 61
10, 7080, Note_on_c, 9, 37, 106
10, 7080, Note_on_c, 9, 70, 51
10, 7080, Note_on_c, 9, 69, 81
10, 7081, Note_on_c, 9, 69, 0
10, 7081, Note_on_c, 9, 42, 0
10, 7081, Note_on_c, 9, 37, 0
10, 7081, Note_on_c, 9, 70, 0
10, 7140, Note_on_c, 9, 35, 61
10, 7140, Note_on_c, 9, 42, 31
10, 7140, Note_on_c, 9, 70, 13
10, 7141, Note_on_c, 9, 70, 0
10, 7141, Note_on_c, 9, 42, 0
10, 7141, Note_on_c, 9, 35, 0
10, 7200, Note_on_c, 9, 35, 81
10, 7200, Note_on_c, 9, 42, 81
10, 7200, Note_on_c, 9, 70, 51
10, 7201, Note_on_c, 9, 70, 0
10, 7201, Note_on_c, 9, 42, 0
10, 7201, Note_on_c, 9, 35, 0
10, 7260, Note_on_c, 9, 42, 46
10, 7260, Note_on_c, 9, 70, 13
10, 7260, Note_on_c, 9, 69, 51
10, 7261, Note_on_c, 9, 69, 0
10, 7261, Note_on_c, 9, 70, 0
10, 7261, Note_on_c, 9, 42, 0
10, 7320, Note_on_c, 9, 42, 86
10, 7320, Note_on_c, 9, 37, 106
10, 7320, Note_on_c, 9, 70, 51
10, 7320, Note_on_c, 9, 69, 81
10, 7321, Note_on_c, 9, 69, 0
10, 7321, Note_on_c, 9, 42, 0
10, 7321, Note_on_c, 9, 37, 0
10, 7321, Note_on_c, 9, 70, 0
10, 7380, Note_on_c, 9, 35, 61
10, 7380, Note_on_c, 9, 42, 63
10, 7380, Note_on_c, 9, 70, 13
10, 7381, Note_on_c, 9, 70, 0
10, 7381, Note_on_c, 9, 42, 0
10, 7381, Note_on_c, 9, 35, 0
10, 7440, Note_on_c, 9, 35, 81
10, 7440, Note_on_c, 9, 42, 71
10, 7440, Note_on_c, 9, 70, 51
10, 7441, Note_on_c, 9, 70, 0
10, 7441, Note_on_c, 9, 42, 0
10, 7441, Note_on_c, 9, 35, 0
10, 7500, Note_on_c, 9, 42, 81
10, 7500, Note_on_c, 9, 70, 13
10, 7500, Note_on_c, 9, 69, 51
10, 7501, Note_on_c, 9, 69, 0
10, 7501, Note_on_c, 9, 70, 0
10, 7501, Note_on_c, 9, 42, 0
10, 7560, Note_on_c, 9, 42, 91
10, 7560, Note_on_c, 9, 37, 106
10, 7560, Note_on_c, 9, 70, 51
10, 7560, Note_on_c, 9, 69, 81
10, 7561, Note_on_c, 9, 69, 0
10, 7561, Note_on_c, 9, 42, 0
10, 7561, Note_on_c, 9, 37, 0
10, 7561, Note_on_c, 9, 70, 0
10, 7620, Note_on_c, 9, 35, 66
10, 7620, Note_on_c, 9, 46, 81
10, 7620, Note_on_c, 9, 70, 13
10, 7621, Note_on_c, 9, 70, 0
10, 7621, Note_on_c, 9, 46, 0
10, 7621, Note_on_c, 9, 35, 0
10, 7680, Note_on_c, 9, 35, 81
10, 7680, Note_on_c, 9, 42, 81
10, 7680, Note_on_c, 9, 70, 51
10, 7681, Note_on_c, 9, 70, 0
10, 7681, Note_on_c, 9, 42, 0
10, 7681, Note_on_c, 9, 35, 0
10, 7740, Note_on_c, 9, 42, 31
10, 7740, Note_on_c, 9, 70, 13
10, 7740, Note_on_c, 9, 69, 51
10, 7741, Note_on_c, 9, 69, 0
10, 7741, Note_on_c, 9, 70, 0
10, 7741, Note_on_c, 9, 42, 0
10, 7800, Note_on_c, 9, 42, 71
10, 7800, Note_on_c, 9, 37, 106
10, 7800, Note_on_c, 9, 70, 51
10, 7800, Note_on_c, 9, 69, 81
10, 7801, Note_on_c, 9, 69, 0
10, 7801, Note_on_c, 9, 42, 0
10, 7801, Note_on_c, 9, 37, 0
10, 7801, Note_on_c, 9, 70, 0
10, 7860, Note_on_c, 9, 35, 61
10, 7860, Note_on_c, 9, 42, 31
10, 7860, Note_on_c, 9, 70, 13
10, 7861, Note_on_c, 9, 70, 0
10, 7861, Note_on_c, 9, 42, 0
10, 7861, Note_on_c, 9, 35, 0
10, 7920, Note_on_c, 9, 35, 81
10, 7920, Note_on_c, 9, 42, 81
10, 7920, Note_on_c, 9, 70, 51
10, 7921, Note_on_c, 9, 70, 0
10, 7921, Note_on_c, 9, 42, 0
10, 7921, Note_on_c, 9, 35, 0
10, 7980, Note_on_c, 9, 42, 31
10, 7980, Note_on_c, 9, 70, 13
10, 7980, Note_on_c, 9, 69, 51
10, 7981, Note_on_c, 9, 69, 0
10, 7981, Note_on_c, 9, 70, 0
10, 7981, Note_on_c, 9, 42, 0
10, 8040, Note_on_c, 9, 42, 71
10, 8040, Note_on_c, 9, 37, 106
10, 8040, Note_on_c, 9, 70, 51
10, 8040, Note_on_c, 9, 69, 81
10, 8041, Note_on_c, 9, 69, 0
10, 8041, Note_on_c, 9, 42, 0
10, 8041, Note_on_c, 9, 37, 0
10, 8041, Note_on_c, 9, 70, 0
10, 8100, Note_on_c, 9, 35, 61
10, 8100, Note_on_c, 9, 42, 31
10, 8100, Note_on_c, 9, 70, 13
10, 8101, Note_on_c, 9, 70, 0
10, 8101, Note_on_c, 9, 42, 0
10, 8101, Note_on_c, 9, 35, 0
10, 8160, Note_on_c, 9, 35, 81
10, 8160, Note_on_c, 9, 42, 81
10, 8160, Note_on_c, 9, 70, 51
10, 8161, Note_on_c, 9, 70, 0
10, 8161, Note_on_c, 9, 42, 0
10, 8161, Note_on_c, 9, 35, 0
10, 8220, Note_on_c, 9, 42, 46
10, 8220, Note_on_c, 9, 70, 13
10, 8220, Note_on_c, 9, 69, 51
10, 8221, Note_on_c, 9, 69, 0
10, 8221, Note_on_c, 9, 70, 0
10, 8221, Note_on_c, 9, 42, 0
10, 8280, Note_on_c, 9, 42, 86
10, 8280, Note_on_c, 9, 37, 106
10, 8280, Note_on_c, 9, 70, 51
10, 8280, Note_on_c, 9, 69, 81
10, 8281, Note_on_c, 9, 69, 0
10, 8281, Note_on_c, 9, 42, 0
10, 8281, Note_on_c, 9, 37, 0
10, 8281, Note_on_c, 9, 70, 0
10, 8340, Note_on_c, 9, 35, 61
10, 8340, Note_on_c, 9, 42, 41
10, 8340, Note_on_c, 9, 70, 13
10, 8341, Note_on_c, 9, 70, 0
10, 8341, Note_on_c, 9, 42, 0
10, 8341, Note_on_c, 9, 35, 0
10, 8400, Note_on_c, 9, 35, 81
10, 8400, Note_on_c, 9, 42, 71
10, 8400, Note_on_c, 9, 70, 51
10, 8401, Note_on_c, 9, 70, 0
10, 8401, Note_on_c, 9, 42, 0
10, 8401, Note_on_c, 9, 35, 0
10, 8460, Note_on_c, 9, 42, 81
10, 8460, Note_on_c, 9, 70, 13
10, 8460, Note_on_c, 9, 69, 51
10, 8461, Note_on_c, 9, 69, 0
10, 8461, Note_on_c, 9, 70, 0
10, 8461, Note_on_c, 9, 42, 0
10, 8520, Note_on_c, 9, 42, 91
10, 8520, Note_on_c, 9, 37, 106
10, 8520, Note_on_c, 9, 70, 51
10, 8520, Note_on_c, 9, 69, 81
10, 8521, Note_on_c, 9, 69, 0
10, 8521, Note_on_c, 9, 42, 0
10, 8521, Note_on_c, 9, 37, 0
10, 8521, Note_on_c, 9, 70, 0
10, 8580, Note_on_c, 9, 35, 66
10, 8580, Note_on_c, 9, 46, 81
10, 8580, Note_on_c, 9, 70, 13
10, 8581, Note_on_c, 9, 70, 0
10, 8581, Note_on_c, 9, 46, 0
10, 8581, Note_on_c, 9, 35, 0
10, 8640, Note_on_c, 9, 35, 81
10, 8640, Note_on_c, 9, 42, 81
10, 8640, Note_on_c, 9, 70, 51
10, 8641, Note_on_c, 9, 70, 0
10, 8641, Note_on_c, 9, 42, 0
10, 8641, Note_on_c, 9, 35, 0
10, 8700, Note_on_c, 9, 42, 31
10, 8700, Note_on_c, 9, 70, 13
10, 8700, Note_on_c, 9, 69, 51
10, 8701, Note_on_c, 9, 69, 0
10, 8701, Note_on_c, 9, 70, 0
10, 8701, Note_on_c, 9, 42, 0
10, 8760, Note_on_c, 9, 42, 61
10, 8760, Note_on_c, 9, 37, 106
10, 8760, Note_on_c, 9, 70, 51
10, 8760, Note_on_c, 9, 69, 81
10, 8761, Note_on_c, 9, 69, 0
10, 8761, Note_on_c, 9, 42, 0
10, 8761, Note_on_c, 9, 37, 0
10, 8761, Note_on_c, 9, 70, 0
10, 8820, Note_on_c, 9, 35, 61
10, 8820, Note_on_c, 9, 42, 31
10, 8820, Note_on_c, 9, 70, 13
10, 8821, Note_on_c, 9, 70, 0
10, 8821, Note_on_c, 9, 42, 0
10, 8821, Note_on_c, 9, 35, 0
10, 8880, Note_on_c, 9, 35, 81
10, 8880, Note_on_c, 9, 42, 81
10, 8880, Note_on_c, 9, 70, 51
10, 8881, Note_on_c, 9, 70, 0
10, 8881, Note_on_c, 9, 42, 0
10, 8881, Note_on_c, 9, 35, 0
10, 8940, Note_on_c, 9, 42, 31
10, 8940, Note_on_c, 9, 70, 13
10, 8940, Note_on_c, 9, 69, 51
10, 8941, Note_on_c, 9, 69, 0
10, 8941, Note_on_c, 9, 70, 0
10, 8941, Note_on_c, 9, 42, 0
10, 9000, Note_on_c, 9, 42, 61
10, 9000, Note_on_c, 9, 37, 106
10, 9000, Note_on_c, 9, 70, 51
10, 9000, Note_on_c, 9, 69, 81
10, 9001, Note_on_c, 9, 69, 0
10, 9001, Note_on_c, 9, 42, 0
10, 9001, Note_on_c, 9, 37, 0
10, 9001, Note_on_c, 9, 70, 0
10, 9060, Note_on_c, 9, 35, 61
10, 9060, Note_on_c, 9, 42, 31
10, 9060, Note_on_c, 9, 70, 13
10, 9061, Note_on_c, 9, 70, 0
10, 9061, Note_on_c, 9, 42, 0
10, 9061, Note_on_c, 9, 35, 0
10, 9120, Note_on_c, 9, 35, 81
10, 9120, Note_on_c, 9, 42, 81
10, 9120, Note_on_c, 9, 70, 51
10, 9121, Note_on_c, 9, 70, 0
10, 9121, Note_on_c, 9, 42, 0
10, 9121, Note_on_c, 9, 35, 0
10, 9180, Note_on_c, 9, 42, 46
10, 9180, Note_on_c, 9, 70, 13
10, 9180, Note_on_c, 9, 69, 51
10, 9181, Note_on_c, 9, 69, 0
10, 9181, Note_on_c, 9, 70, 0
10, 9181, Note_on_c, 9, 42, 0
10, 9240, Note_on_c, 9, 42, 86
10, 9240, Note_on_c, 9, 37, 106
10, 9240, Note_on_c, 9, 70, 51
10, 9240, Note_on_c, 9, 69, 81
10, 9241, Note_on_c, 9, 69, 0
10, 9241, Note_on_c, 9, 42, 0
10, 9241, Note_on_c, 9, 37, 0
10, 9241, Note_on_c, 9, 70, 0
10, 9300, Note_on_c, 9, 35, 61
10, 9300, Note_on_c, 9, 42, 63
10, 9300, Note_on_c, 9, 70, 13
10, 9301, Note_on_c, 9, 70, 0
10, 9301, Note_on_c, 9, 42, 0
10, 9301, Note_on_c, 9, 35, 0
10, 9360, Note_on_c, 9, 35, 81
10, 9360, Note_on_c, 9, 42, 99
10, 9360, Note_on_c, 9, 70, 51
10, 9361, Note_on_c, 9, 70, 0
10, 9361, Note_on_c, 9, 42, 0
10, 9361, Note_on_c, 9, 35, 0
10, 9420, Note_on_c, 9, 42, 81
10, 9420, Note_on_c, 9, 70, 13
10, 9420, Note_on_c, 9, 69, 51
10, 9421, Note_on_c, 9, 69, 0
10, 9421, Note_on_c, 9, 70, 0
10, 9421, Note_on_c, 9, 42, 0
10, 9480, Note_on_c, 9, 42, 91
10, 9480, Note_on_c, 9, 37, 106
10, 9480, Note_on_c, 9, 70, 51
10, 9480, Note_on_c, 9, 69, 81
10, 9481, Note_on_c, 9, 69, 0
10, 9481, Note_on_c, 9, 42, 0
10, 9481, Note_on_c, 9, 37, 0
10, 9481, Note_on_c, 9, 70, 0
10, 9540, Note_on_c, 9, 35, 66
10, 9540, Note_on_c, 9, 46, 81
10, 9540, Note_on_c, 9, 70, 13
10, 9541, Note_on_c, 9, 70, 0
10, 9541, Note_on_c, 9, 46, 0
10, 9541, Note_on_c, 9, 35, 0
10, 9600, Note_on_c, 9, 35, 81
10, 9600, Note_on_c, 9, 42, 81
10, 9600, Note_on_c, 9, 70, 51
10, 9601, Note_on_c, 9, 70, 0
10, 9601, Note_on_c, 9, 42, 0
10, 9601, Note_on_c, 9, 35, 0
10, 9660, Note_on_c, 9, 46, 45
10, 9660, Note_on_c, 9, 70, 13
10, 9660, Note_on_c, 9, 69, 51
10, 9661, Note_on_c, 9, 69, 0
10, 9661, Note_on_c, 9, 70, 0
10, 9661, Note_on_c, 9, 46, 0
10, 9720, Note_on_c, 9, 42, 71
10, 9720, Note_on_c, 9, 37, 106
10, 9720, Note_on_c, 9, 70, 51
10, 9720, Note_on_c, 9, 69, 81
10, 9721, Note_on_c, 9, 69, 0
10, 9721, Note_on_c, 9, 42, 0
10, 9721, Note_on_c, 9, 37, 0
10, 9721, Note_on_c, 9, 70, 0
10, 9780, Note_on_c, 9, 35, 61
10, 9780, Note_on_c, 9, 42, 31
10, 9780, Note_on_c, 9, 70, 13
10, 9781, Note_on_c, 9, 70, 0
10, 9781, Note_on_c, 9, 42, 0
10, 9781, Note_on_c, 9, 35, 0
10, 9840, Note_on_c, 9, 35, 81
10, 9840, Note_on_c, 9, 42, 81
10, 9840, Note_on_c, 9, 70, 51
10, 9841, Note_on_c, 9, 70, 0
10, 9841, Note_on_c, 9, 42, 0
10, 9841, Note_on_c, 9, 35, 0
10, 9900, Note_on_c, 9, 42, 31
10, 9900, Note_on_c, 9, 70, 13
10, 9900, Note_on_c, 9, 69, 51
10, 9901, Note_on_c, 9, 69, 0
10, 9901, Note_on_c, 9, 70, 0
10, 9901, Note_on_c, 9, 42, 0
10, 9960, Note_on_c, 9, 42, 71
10, 9960, Note_on_c, 9, 37, 106
10, 9960, Note_on_c, 9, 70, 51
10, 9960, Note_on_c, 9, 69, 81
10, 9961, Note_on_c, 9, 69, 0
10, 9961, Note_on_c, 9, 42, 0
10, 9961, Note_on_c, 9, 37, 0
10, 9961, Note_on_c, 9, 70, 0
10, 10020, Note_on_c, 9, 35, 61
10, 10020, Note_on_c, 9, 46, 63
10, 10020, Note_on_c, 9, 70, 13
10, 10021, Note_on_c, 9, 70, 0
10, 10021, Note_on_c, 9, 46, 0
10, 10021, Note_on_c, 9, 35, 0
10, 10080, Note_on_c, 9, 35, 81
10, 10080, Note_on_c, 9, 42, 81
10, 10080, Note_on_c, 9, 70, 51
10, 10081, Note_on_c, 9, 70, 0
10, 10081, Note_on_c, 9, 42, 0
10, 10081, Note_on_c, 9, 35, 0
10, 10140, Note_on_c, 9, 42, 46
10, 10140, Note_on_c, 9, 70, 13
10, 10140, Note_on_c, 9, 69, 51
10, 10141, Note_on_c, 9, 69, 0
10, 10141, Note_on_c, 9, 70, 0
10, 10141, Note_on_c, 9, 42, 0
10, 10200, Note_on_c, 9, 42, 86
10, 10200, Note_on_c, 9, 37, 106
10, 10200, Note_on_c, 9, 70, 51
10, 10200, Note_on_c, 9, 69, 81
10, 10201, Note_on_c, 9, 69, 0
10, 10201, Note_on_c, 9, 42, 0
10, 10201, Note_on_c, 9, 37, 0
10, 10201, Note_on_c, 9, 70, 0
10, 10260, Note_on_c, 9, 35, 61
10, 10260, Note_on_c, 9, 42, 63
10, 10260, Note_on_c, 9, 70, 13
10, 10261, Note_on_c, 9, 70, 0
10, 10261, Note_on_c, 9, 42, 0
10, 10261, Note_on_c, 9, 35, 0
10, 10320, Note_on_c, 9, 35, 81
10, 10320, Note_on_c, 9, 42, 99
10, 10320, Note_on_c, 9, 70, 51
10, 10321, Note_on_c, 9, 70, 0
10, 10321, Note_on_c, 9, 42, 0
10, 10321, Note_on_c, 9, 35, 0
10, 10380, Note_on_c, 9, 42, 81
10, 10380, Note_on_c, 9, 70, 13
10, 10380, Note_on_c, 9, 69, 51
10, 10381, Note_on_c, 9, 69, 0
10, 10381, Note_on_c, 9, 70, 0
10, 10381, Note_on_c, 9, 42, 0
10, 10440, Note_on_c, 9, 42, 91
10, 10440, Note_on_c, 9, 37, 106
10, 10440, Note_on_c, 9, 70, 51
10, 10440, Note_on_c, 9, 69, 81
10, 10441, Note_on_c, 9, 69, 0
10, 10441, Note_on_c, 9, 42, 0
10, 10441, Note_on_c, 9, 37, 0
10, 10441, Note_on_c, 9, 70, 0
10, 10500, Note_on_c, 9, 35, 66
10, 10500, Note_on_c, 9, 46, 81
10, 10500, Note_on_c, 9, 70, 13
10, 10501, Note_on_c, 9, 70, 0
10, 10501, Note_on_c, 9, 46, 0
10, 10501, Note_on_c, 9, 35, 0
10, 10560, Note_on_c, 9, 35, 81
10, 10560, Note_on_c, 9, 42, 81
10, 10560, Note_on_c, 9, 70, 51
10, 10561, Note_on_c, 9, 70, 0
10, 10561, Note_on_c, 9, 42, 0
10, 10561, Note_on_c, 9, 35, 0
10, 10620, Note_on_c, 9, 42, 31
10, 10620, Note_on_c, 9, 70, 13
10, 10620, Note_on_c, 9, 69, 51
10, 10621, Note_on_c, 9, 69, 0
10, 10621, Note_on_c, 9, 70, 0
10, 10621, Note_on_c, 9, 42, 0
10, 10680, Note_on_c, 9, 42, 61
10, 10680, Note_on_c, 9, 37, 106
10, 10680, Note_on_c, 9, 70, 51
10, 10680, Note_on_c, 9, 69, 81
10, 10681, Note_on_c, 9, 69, 0
10, 10681, Note_on_c, 9, 42, 0
10, 10681, Note_on_c, 9, 37, 0
10, 10681, Note_on_c, 9, 70, 0
10, 10740, Note_on_c, 9, 35, 61
10, 10740, Note_on_c, 9, 42, 31
10, 10740, Note_on_c, 9, 70, 13
10, 10741, Note_on_c, 9, 70, 0
10, 10741, Note_on_c, 9, 42, 0
10, 10741, Note_on_c, 9, 35, 0
10, 10800, Note_on_c, 9, 35, 81
10, 10800, Note_on_c, 9, 42, 81
10, 10800, Note_on_c, 9, 70, 51
10, 10801, Note_on_c, 9, 70, 0
10, 10801, Note_on_c, 9, 42, 0
10, 10801, Note_on_c, 9, 35, 0
10, 10860, Note_on_c, 9, 42, 31
10, 10860, Note_on_c, 9, 70, 13
10, 10860, Note_on_c, 9, 69, 51
10, 10861, Note_on_c, 9, 69, 0
10, 10861, Note_on_c, 9, 70, 0
10, 10861, Note_on_c, 9, 42, 0
10, 10920, Note_on_c, 9, 42, 61
10, 10920, Note_on_c, 9, 37, 106
10, 10920, Note_on_c, 9, 70, 51
10, 10920, Note_on_c, 9, 69, 81
10, 10921, Note_on_c, 9, 69, 0
10, 10921, Note_on_c, 9, 42, 0
10, 10921, Note_on_c, 9, 37, 0
10, 10921, Note_on_c, 9, 70, 0
10, 10980, Note_on_c, 9, 35, 61
10, 10980, Note_on_c, 9, 42, 31
10, 10980, Note_on_c, 9, 70, 13
10, 10981, Note_on_c, 9, 70, 0
10, 10981, Note_on_c, 9, 42, 0
10, 10981, Note_on_c, 9, 35, 0
10, 11040, Note_on_c, 9, 35, 81
10, 11040, Note_on_c, 9, 42, 81
10, 11040, Note_on_c, 9, 70, 51
10, 11041, Note_on_c, 9, 70, 0
10, 11041, Note_on_c, 9, 42, 0
10, 11041, Note_on_c, 9, 35, 0
10, 11100, Note_on_c, 9, 42, 31
10, 11100, Note_on_c, 9, 70, 13
10, 11100, Note_on_c, 9, 69, 51
10, 11101, Note_on_c, 9, 69, 0
10, 11101, Note_on_c, 9, 70, 0
10, 11101, Note_on_c, 9, 42, 0
10, 11160, Note_on_c, 9, 42, 91
10, 11160, Note_on_c, 9, 37, 106
10, 11160, Note_on_c, 9, 70, 51
10, 11160, Note_on_c, 9, 69, 81
10, 11161, Note_on_c, 9, 69, 0
10, 11161, Note_on_c, 9, 42, 0
10, 11161, Note_on_c, 9, 37, 0
10, 11161, Note_on_c, 9, 70, 0
10, 11220, Note_on_c, 9, 35, 61
10, 11220, Note_on_c, 9, 42, 31
10, 11220, Note_on_c, 9, 70, 13
10, 11221, Note_on_c, 9, 70, 0
10, 11221, Note_on_c, 9, 42, 0
10, 11221, Note_on_c, 9, 35, 0
10, 11280, Note_on_c, 9, 35, 81
10, 11280, Note_on_c, 9, 42, 81
10, 11280, Note_on_c, 9, 70, 51
10, 11281, Note_on_c, 9, 70, 0
10, 11281, Note_on_c, 9, 42, 0
10, 11281, Note_on_c, 9, 35, 0
10, 11340, Note_on_c, 9, 42, 31
10, 11340, Note_on_c, 9, 70, 13
10, 11340, Note_on_c, 9, 69, 51
10, 11341, Note_on_c, 9, 69, 0
10, 11341, Note_on_c, 9, 70, 0
10, 11341, Note_on_c, 9, 42, 0
10, 11400, Note_on_c, 9, 42, 91
10, 11400, Note_on_c, 9, 37, 106
10, 11400, Note_on_c, 9, 70, 51
10, 11400, Note_on_c, 9, 69, 81
10, 11401, Note_on_c, 9, 69, 0
10, 11401, Note_on_c, 9, 42, 0
10, 11401, Note_on_c, 9, 37, 0
10, 11401, Note_on_c, 9, 70, 0
10, 11460, Note_on_c, 9, 35, 66
10, 11460, Note_on_c, 9, 46, 81
10, 11460, Note_on_c, 9, 70, 13
10, 11461, Note_on_c, 9, 70, 0
10, 11461, Note_on_c, 9, 46, 0
10, 11461, Note_on_c, 9, 35, 0
10, 11520, Note_on_c, 9, 35, 81
10, 11520, Note_on_c, 9, 42, 81
10, 11520, Note_on_c, 9, 70, 51
10, 11521, Note_on_c, 9, 70, 0
10, 11521, Note_on_c, 9, 42, 0
10, 11521, Note_on_c, 9, 35, 0
10, 11580, Note_on_c, 9, 42, 31
10, 11580, Note_on_c, 9, 70, 13
10, 11580, Note_on_c, 9, 69, 51
10, 11581, Note_on_c, 9, 69, 0
10, 11581, Note_on_c, 9, 70, 0
10, 11581, Note_on_c, 9, 42, 0
10, 11640, Note_on_c, 9, 42, 71
10, 11640, Note_on_c, 9, 37, 106
10, 11640, Note_on_c, 9, 70, 51
10, 11640, Note_on_c, 9, 69, 81
10, 11641, Note_on_c, 9, 69, 0
10, 11641, Note_on_c, 9, 42, 0
10, 11641, Note_on_c, 9, 37, 0
10, 11641, Note_on_c, 9, 70, 0
10, 11700, Note_on_c, 9, 35, 61
10, 11700, Note_on_c, 9, 42, 31
10, 11700, Note_on_c, 9, 70, 13
10, 11701, Note_on_c, 9, 70, 0
10, 11701, Note_on_c, 9, 42, 0
10, 11701, Note_on_c, 9, 35, 0
10, 11760, Note_on_c, 9, 35, 81
10, 11760, Note_on_c, 9, 42, 81
10, 11760, Note_on_c, 9, 70, 51
10, 11761, Note_on_c, 9, 70, 0
10, 11761, Note_on_c, 9, 42, 0
10, 11761, Note_on_c, 9, 35, 0
10, 11820, Note_on_c, 9, 42, 31
10, 11820, Note_on_c, 9, 70, 13
10, 11820, Note_on_c, 9, 69, 51
10, 11821, Note_on_c, 9, 69, 0
10, 11821, Note_on_c, 9, 70, 0
10, 11821, Note_on_c, 9, 42, 0
10, 11880, Note_on_c, 9, 42, 71
10, 11880, Note_on_c, 9, 37, 106
10, 11880, Note_on_c, 9, 70, 51
10, 11880, Note_on_c, 9, 69, 81
10, 11881, Note_on_c, 9, 69, 0
10, 11881, Note_on_c, 9, 42, 0
10, 11881, Note_on_c, 9, 37, 0
10, 11881, Note_on_c, 9, 70, 0
10, 11940, Note_on_c, 9, 35, 61
10, 11940, Note_on_c, 9, 46, 63
10, 11940, Note_on_c, 9, 70, 13
10, 11941, Note_on_c, 9, 70, 0
10, 11941, Note_on_c, 9, 46, 0
10, 11941, Note_on_c, 9, 35, 0
10, 12000, Note_on_c, 9, 35, 81
10, 12000, Note_on_c, 9, 42, 81
10, 12000, Note_on_c, 9, 70, 51
10, 12001, Note_on_c, 9, 70, 0
10, 12001, Note_on_c, 9, 42, 0
10, 12001, Note_on_c, 9, 35, 0
10, 12060, Note_on_c, 9, 42, 35
10, 12060, Note_on_c, 9, 70, 13
10, 12060, Note_on_c, 9, 69, 51
10, 12061, Note_on_c, 9, 69, 0
10, 12061, Note_on_c, 9, 70, 0
10, 12061, Note_on_c, 9, 42, 0
10, 12120, Note_on_c, 9, 42, 91
10, 12120, Note_on_c, 9, 37, 106
10, 12120, Note_on_c, 9, 70, 51
10, 12120, Note_on_c, 9, 69, 81
10, 12121, Note_on_c, 9, 69, 0
10, 12121, Note_on_c, 9, 42, 0
10, 12121, Note_on_c, 9, 37, 0
10, 12121, Note_on_c, 9, 70, 0
10, 12180, Note_on_c, 9, 35, 61
10, 12180, Note_on_c, 9, 42, 46
10, 12180, Note_on_c, 9, 70, 13
10, 12181, Note_on_c, 9, 70, 0
10, 12181, Note_on_c, 9, 42, 0
10, 12181, Note_on_c, 9, 35, 0
10, 12240, Note_on_c, 9, 35, 81
10, 12240, Note_on_c, 9, 42, 81
10, 12240, Note_on_c, 9, 70, 51
10, 12241, Note_on_c, 9, 70, 0
10, 12241, Note_on_c, 9, 42, 0
10, 12241, Note_on_c, 9, 35, 0
10, 12300, Note_on_c, 9, 42, 35
10, 12300, Note_on_c, 9, 70, 13
10, 12300, Note_on_c, 9, 69, 51
10, 12301, Note_on_c, 9, 69, 0
10, 12301, Note_on_c, 9, 70, 0
10, 12301, Note_on_c, 9, 42, 0
10, 12360, Note_on_c, 9, 42, 81
10, 12360, Note_on_c, 9, 37, 106
10, 12360, Note_on_c, 9, 70, 51
10, 12360, Note_on_c, 9, 69, 81
10, 12361, Note_on_c, 9, 69, 0
10, 12361, Note_on_c, 9, 42, 0
10, 12361, Note_on_c, 9, 37, 0
10, 12361, Note_on_c, 9, 70, 0
10, 12420, Note_on_c, 9, 35, 66
10, 12420, Note_on_c, 9, 42, 51
10, 12420, Note_on_c, 9, 70, 13
10, 12421, Note_on_c, 9, 70, 0
10, 12421, Note_on_c, 9, 42, 0
10, 12421, Note_on_c, 9, 35, 0
10, 12480, Note_on_c, 9, 35, 81
10, 12480, Note_on_c, 9, 42, 81
10, 12480, Note_on_c, 9, 70, 51
10, 12481, Note_on_c, 9, 70, 0
10, 12481, Note_on_c, 9, 42, 0
10, 12481, Note_on_c, 9, 35, 0
10, 12540, Note_on_c, 9, 42, 31
10, 12540, Note_on_c, 9, 70, 13
10, 12540, Note_on_c, 9, 69, 51
10, 12541, Note_on_c, 9, 69, 0
10, 12541, Note_on_c, 9, 70, 0
10, 12541, Note_on_c, 9, 42, 0
10, 12600, Note_on_c, 9, 42, 71
10, 12600, Note_on_c, 9, 37, 106
10, 12600, Note_on_c, 9, 70, 51
10, 12600, Note_on_c, 9, 69, 81
10, 12601, Note_on_c, 9, 69, 0
10, 12601, Note_on_c, 9, 42, 0
10, 12601, Note_on_c, 9, 37, 0
10, 12601, Note_on_c, 9, 70, 0
10, 12660, Note_on_c, 9, 35, 61
10, 12660, Note_on_c, 9, 46, 63
10, 12660, Note_on_c, 9, 70, 13
10, 12661, Note_on_c, 9, 70, 0
10, 12661, Note_on_c, 9, 46, 0
10, 12661, Note_on_c, 9, 35, 0
10, 12720, Note_on_c, 9, 35, 81
10, 12720, Note_on_c, 9, 42, 81
10, 12720, Note_on_c, 9, 70, 51
10, 12721, Note_on_c, 9, 70, 0
10, 12721, Note_on_c, 9, 42, 0
10, 12721, Note_on_c, 9, 35, 0
10, 12780, Note_on_c, 9, 42, 31
10, 12780, Note_on_c, 9, 70, 13
10, 12780, Note_on_c, 9, 69, 51
10, 12781, Note_on_c, 9, 69, 0
10, 12781, Note_on_c, 9, 70, 0
10, 12781, Note_on_c, 9, 42, 0
10, 12840, Note_on_c, 9, 42, 71
10, 12840, Note_on_c, 9, 37, 106
10, 12840, Note_on_c, 9, 70, 51
10, 12840, Note_on_c, 9, 69, 81
10, 12841, Note_on_c, 9, 69, 0
10, 12841, Note_on_c, 9, 42, 0
10, 12841, Note_on_c, 9, 37, 0
10, 12841, Note_on_c, 9, 70, 0
10, 12900, Note_on_c, 9, 35, 61
10, 12900, Note_on_c, 9, 42, 31
10, 12900, Note_on_c, 9, 70, 13
10, 12901, Note_on_c, 9, 70, 0
10, 12901, Note_on_c, 9, 42, 0
10, 12901, Note_on_c, 9, 35, 0
10, 12960, Note_on_c, 9, 35, 81
10, 12960, Note_on_c, 9, 42, 81
10, 12960, Note_on_c, 9, 70, 51
10, 12961, Note_on_c, 9, 70, 0
10, 12961, Note_on_c, 9, 42, 0
10, 12961, Note_on_c, 9, 35, 0
10, 13020, Note_on_c, 9, 42, 31
10, 13020, Note_on_c, 9, 70, 13
10, 13020, Note_on_c, 9, 69, 51
10, 13021, Note_on_c, 9, 69, 0
10, 13021, Note_on_c, 9, 70, 0
10, 13021, Note_on_c, 9, 42, 0
10, 13080, Note_on_c, 9, 42, 91
10, 13080, Note_on_c, 9, 37, 106
10, 13080, Note_on_c, 9, 70, 51
10, 13080, Note_on_c, 9, 69, 81
10, 13081, Note_on_c, 9, 69, 0
10, 13081, Note_on_c, 9, 42, 0
10, 13081, Note_on_c, 9, 37, 0
10, 13081, Note_on_c, 9, 70, 0
10, 13140, Note_on_c, 9, 35, 61
10, 13140, Note_on_c, 9, 42, 31
10, 13140, Note_on_c, 9, 70, 13
10, 13141, Note_on_c, 9, 70, 0
10, 13141, Note_on_c, 9, 42, 0
10, 13141, Note_on_c, 9, 35, 0
10, 13200, Note_on_c, 9, 35, 81
10, 13200, Note_on_c, 9, 42, 81
10, 13200, Note_on_c, 9, 70, 51
10, 13201, Note_on_c, 9, 70, 0
10, 13201, Note_on_c, 9, 42, 0
10, 13201, Note_on_c, 9, 35, 0
10, 13260, Note_on_c, 9, 42, 31
10, 13260, Note_on_c, 9, 70, 13
10, 13260, Note_on_c, 9, 69, 51
10, 13261, Note_on_c, 9, 69, 0
10, 13261, Note_on_c, 9, 70, 0
10, 13261, Note_on_c, 9, 42, 0
10, 13320, Note_on_c, 9, 42, 91
10, 13320, Note_on_c, 9, 37, 106
10, 13320, Note_on_c, 9, 70, 51
10, 13320, Note_on_c, 9, 69, 81
10, 13321, Note_on_c, 9, 69, 0
10, 13321, Note_on_c, 9, 42, 0
10, 13321, Note_on_c, 9, 37, 0
10, 13321, Note_on_c, 9, 70, 0
10, 13380, Note_on_c, 9, 35, 66
10, 13380, Note_on_c, 9, 46, 81
10, 13380, Note_on_c, 9, 70, 13
10, 13381, Note_on_c, 9, 70, 0
10, 13381, Note_on_c, 9, 46, 0
10, 13381, Note_on_c, 9, 35, 0
10, 13440, Note_on_c, 9, 35, 81
10, 13440, Note_on_c, 9, 42, 81
10, 13440, Note_on_c, 9, 70, 51
10, 13441, Note_on_c, 9, 70, 0
10, 13441, Note_on_c, 9, 42, 0
10, 13441, Note_on_c, 9, 35, 0
10, 13500, Note_on_c, 9, 42, 31
10, 13500, Note_on_c, 9, 70, 13
10, 13500, Note_on_c, 9, 69, 51
10, 13501, Note_on_c, 9, 69, 0
10, 13501, Note_on_c, 9, 70, 0
10, 13501, Note_on_c, 9, 42, 0
10, 13560, Note_on_c, 9, 42, 71
10, 13560, Note_on_c, 9, 37, 106
10, 13560, Note_on_c, 9, 70, 51
10, 13560, Note_on_c, 9, 69, 81
10, 13561, Note_on_c, 9, 69, 0
10, 13561, Note_on_c, 9, 42, 0
10, 13561, Note_on_c, 9, 37, 0
10, 13561, Note_on_c, 9, 70, 0
10, 13620, Note_on_c, 9, 35, 61
10, 13620, Note_on_c, 9, 42, 31
10, 13620, Note_on_c, 9, 70, 13
10, 13621, Note_on_c, 9, 70, 0
10, 13621, Note_on_c, 9, 42, 0
10, 13621, Note_on_c, 9, 35, 0
10, 13680, Note_on_c, 9, 35, 81
10, 13680, Note_on_c, 9, 42, 81
10, 13680, Note_on_c, 9, 70, 51
10, 13681, Note_on_c, 9, 70, 0
10, 13681, Note_on_c, 9, 42, 0
10, 13681, Note_on_c, 9, 35, 0
10, 13740, Note_on_c, 9, 42, 31
10, 13740, Note_on_c, 9, 70, 13
10, 13740, Note_on_c, 9, 69, 51
10, 13741, Note_on_c, 9, 69, 0
10, 13741, Note_on_c, 9, 70, 0
10, 13741, Note_on_c, 9, 42, 0
10, 13800, Note_on_c, 9, 42, 71
10, 13800, Note_on_c, 9, 37, 106
10, 13800, Note_on_c, 9, 70, 51
10, 13800, Note_on_c, 9, 69, 81
10, 13801, Note_on_c, 9, 69, 0
10, 13801, Note_on_c, 9, 42, 0
10, 13801, Note_on_c, 9, 37, 0
10, 13801, Note_on_c, 9, 70, 0
10, 13860, Note_on_c, 9, 35, 61
10, 13860, Note_on_c, 9, 42, 31
10, 13860, Note_on_c, 9, 70, 13
10, 13861, Note_on_c, 9, 70, 0
10, 13861, Note_on_c, 9, 42, 0
10, 13861, Note_on_c, 9, 35, 0
10, 13920, Note_on_c, 9, 35, 81
10, 13920, Note_on_c, 9, 42, 81
10, 13920, Note_on_c, 9, 54, 81
10, 13920, Note_on_c, 9, 70, 51
10, 13921, Note_on_c, 9, 70, 0
10, 13921, Note_on_c, 9, 35, 0
10, 13921, Note_on_c, 9, 42, 0
10, 13921, Note_on_c, 9, 54, 0
10, 13980, Note_on_c, 9, 42, 35
10, 13980, Note_on_c, 9, 70, 13
10, 13980, Note_on_c, 9, 69, 51
10, 13981, Note_on_c, 9, 69, 0
10, 13981, Note_on_c, 9, 70, 0
10, 13981, Note_on_c, 9, 42, 0
10, 14040, Note_on_c, 9, 42, 91
10, 14040, Note_on_c, 9, 37, 106
10, 14040, Note_on_c, 9, 54, 51
10, 14040, Note_on_c, 9, 39, 71
10, 14040, Note_on_c, 9, 70, 51
10, 14040, Note_on_c, 9, 69, 81
10, 14041, Note_on_c, 9, 69, 0
10, 14041, Note_on_c, 9, 37, 0
10, 14041, Note_on_c, 9, 54, 0
10, 14041, Note_on_c, 9, 42, 0
10, 14041, Note_on_c, 9, 70, 0
10, 14041, Note_on_c, 9, 39, 0
10, 14100, Note_on_c, 9, 35, 61
10, 14100, Note_on_c, 9, 48, 91
10, 14100, Note_on_c, 9, 70, 13
10, 14101, Note_on_c, 9, 70, 0
10, 14101, Note_on_c, 9, 48, 0
10, 14101, Note_on_c, 9, 35, 0
10, 14160, Note_on_c, 9, 35, 81
10, 14160, Note_on_c, 9, 54, 81
10, 14160, Note_on_c, 9, 70, 51
10, 14161, Note_on_c, 9, 70, 0
10, 14161, Note_on_c, 9, 54, 0
10, 14161, Note_on_c, 9, 35, 0
10, 14220, Note_on_c, 9, 45, 81
10, 14220, Note_on_c, 9, 70, 13
10, 14220, Note_on_c, 9, 69, 51
10, 14221, Note_on_c, 9, 69, 0
10, 14221, Note_on_c, 9, 70, 0
10, 14221, Note_on_c, 9, 45, 0
10, 14280, Note_on_c, 9, 54, 51
10, 14280, Note_on_c, 9, 39, 71
10, 14280, Note_on_c, 9, 70, 51
10, 14280, Note_on_c, 9, 69, 81
10, 14281, Note_on_c, 9, 69, 0
10, 14281, Note_on_c, 9, 54, 0
10, 14281, Note_on_c, 9, 39, 0
10, 14281, Note_on_c, 9, 70, 0
10, 14340, Note_on_c, 9, 35, 66
10, 14340, Note_on_c, 9, 41, 91
10, 14340, Note_on_c, 9, 70, 13
10, 14341, Note_on_c, 9, 70, 0
10, 14341, Note_on_c, 9, 41, 0
10, 14341, Note_on_c, 9, 35, 0
10, 14400, Note_on_c, 9, 35, 81
10, 14400, Note_on_c, 9, 42, 81
10, 14400, Note_on_c, 9, 51, 81
10, 14400, Note_on_c, 9, 70, 51
10, 14401, Note_on_c, 9, 70, 0
10, 14401, Note_on_c, 9, 35, 0
10, 14401, Note_on_c, 9, 42, 0
10, 14401, Note_on_c, 9, 51, 0
10, 14460, Note_on_c, 9, 42, 31
10, 14460, Note_on_c, 9, 70, 13
10, 14460, Note_on_c, 9, 69, 51
10, 14461, Note_on_c, 9, 69, 0
10, 14461, Note_on_c, 9, 70, 0
10, 14461, Note_on_c, 9, 42, 0
10, 14520, Note_on_c, 9, 42, 61
10, 14520, Note_on_c, 9, 37, 106
10, 14520, Note_on_c, 9, 70, 51
10, 14520, Note_on_c, 9, 69, 81
10, 14521, Note_on_c, 9, 69, 0
10, 14521, Note_on_c, 9, 42, 0
10, 14521, Note_on_c, 9, 37, 0
10, 14521, Note_on_c, 9, 70, 0
10, 14580, Note_on_c, 9, 35, 61
10, 14580, Note_on_c, 9, 42, 31
10, 14580, Note_on_c, 9, 70, 13
10, 14581, Note_on_c, 9, 70, 0
10, 14581, Note_on_c, 9, 42, 0
10, 14581, Note_on_c, 9, 35, 0
10, 14640, Note_on_c, 9, 35, 81
10, 14640, Note_on_c, 9, 42, 81
10, 14640, Note_on_c, 9, 70, 51
10, 14641, Note_on_c, 9, 70, 0
10, 14641, Note_on_c, 9, 42, 0
10, 14641, Note_on_c, 9, 35, 0
10, 14700, Note_on_c, 9, 42, 31
10, 14700, Note_on_c, 9, 70, 13
10, 14700, Note_on_c, 9, 69, 51
10, 14701, Note_on_c, 9, 69, 0
10, 14701, Note_on_c, 9, 70, 0
10, 14701, Note_on_c, 9, 42, 0
10, 14760, Note_on_c, 9, 42, 61
10, 14760, Note_on_c, 9, 37, 106
10, 14760, Note_on_c, 9, 70, 51
10, 14760, Note_on_c, 9, 69, 81
10, 14761, Note_on_c, 9, 69, 0
10, 14761, Note_on_c, 9, 42, 0
10, 14761, Note_on_c, 9, 37, 0
10, 14761, Note_on_c, 9, 70, 0
10, 14820, Note_on_c, 9, 35, 61
10, 14820, Note_on_c, 9, 42, 31
10, 14820, Note_on_c, 9, 70, 13
10, 14821, Note_on_c, 9, 70, 0
10, 14821, Note_on_c, 9, 42, 0
10, 14821, Note_on_c, 9, 35, 0
10, 14880, Note_on_c, 9, 35, 81
10, 14880, Note_on_c, 9, 42, 81
10, 14880, Note_on_c, 9, 70, 51
10, 14881, Note_on_c, 9, 70, 0
10, 14881, Note_on_c, 9, 42, 0
10, 14881, Note_on_c, 9, 35, 0
10, 14940, Note_on_c, 9, 42, 31
10, 14940, Note_on_c, 9, 70, 13
10, 14940, Note_on_c, 9, 69, 51
10, 14941, Note_on_c, 9, 69, 0
10, 14941, Note_on_c, 9, 70, 0
10, 14941, Note_on_c, 9, 42, 0
10, 15000, Note_on_c, 9, 42, 91
10, 15000, Note_on_c, 9, 37, 106
10, 15000, Note_on_c, 9, 70, 51
10, 15000, Note_on_c, 9, 69, 81
10, 15001, Note_on_c, 9, 69, 0
10, 15001, Note_on_c, 9, 42, 0
10, 15001, Note_on_c, 9, 37, 0
10, 15001, Note_on_c, 9, 70, 0
10, 15060, Note_on_c, 9, 35, 61
10, 15060, Note_on_c, 9, 42, 31
10, 15060, Note_on_c, 9, 70, 13
10, 15061, Note_on_c, 9, 70, 0
10, 15061, Note_on_c, 9, 42, 0
10, 15061, Note_on_c, 9, 35, 0
10, 15120, Note_on_c, 9, 35, 81
10, 15120, Note_on_c, 9, 42, 81
10, 15120, Note_on_c, 9, 70, 51
10, 15121, Note_on_c, 9, 70, 0
10, 15121, Note_on_c, 9, 42, 0
10, 15121, Note_on_c, 9, 35, 0
10, 15180, Note_on_c, 9, 42, 31
10, 15180, Note_on_c, 9, 70, 13
10, 15180, Note_on_c, 9, 69, 51
10, 15181, Note_on_c, 9, 69, 0
10, 15181, Note_on_c, 9, 70, 0
10, 15181, Note_on_c, 9, 42, 0
10, 15240, Note_on_c, 9, 42, 91
10, 15240, Note_on_c, 9, 37, 106
10, 15240, Note_on_c, 9, 70, 51
10, 15240, Note_on_c, 9, 69, 81
10, 15241, Note_on_c, 9, 69, 0
10, 15241, Note_on_c, 9, 42, 0
10, 15241, Note_on_c, 9, 37, 0
10, 15241, Note_on_c, 9, 70, 0
10, 15300, Note_on_c, 9, 35, 66
10, 15300, Note_on_c, 9, 46, 81
10, 15300, Note_on_c, 9, 70, 13
10, 15301, Note_on_c, 9, 70, 0
10, 15301, Note_on_c, 9, 46, 0
10, 15301, Note_on_c, 9, 35, 0
10, 15360, Note_on_c, 9, 35, 81
10, 15360, Note_on_c, 9, 42, 81
10, 15360, Note_on_c, 9, 70, 51
10, 15361, Note_on_c, 9, 70, 0
10, 15361, Note_on_c, 9, 42, 0
10, 15361, Note_on_c, 9, 35, 0
10, 15420, Note_on_c, 9, 42, 31
10, 15420, Note_on_c, 9, 70, 13
10, 15420, Note_on_c, 9, 69, 51
10, 15421, Note_on_c, 9, 69, 0
10, 15421, Note_on_c, 9, 70, 0
10, 15421, Note_on_c, 9, 42, 0
10, 15480, Note_on_c, 9, 42, 71
10, 15480, Note_on_c, 9, 37, 106
10, 15480, Note_on_c, 9, 70, 51
10, 15480, Note_on_c, 9, 69, 81
10, 15481, Note_on_c, 9, 69, 0
10, 15481, Note_on_c, 9, 42, 0
10, 15481, Note_on_c, 9, 37, 0
10, 15481, Note_on_c, 9, 70, 0
10, 15540, Note_on_c, 9, 35, 61
10, 15540, Note_on_c, 9, 46, 63
10, 15540, Note_on_c, 9, 70, 13
10, 15541, Note_on_c, 9, 70, 0
10, 15541, Note_on_c, 9, 46, 0
10, 15541, Note_on_c, 9, 35, 0
10, 15600, Note_on_c, 9, 35, 81
10, 15600, Note_on_c, 9, 42, 81
10, 15600, Note_on_c, 9, 70, 51
10, 15601, Note_on_c, 9, 70, 0
10, 15601, Note_on_c, 9, 42, 0
10, 15601, Note_on_c, 9, 35, 0
10, 15660, Note_on_c, 9, 42, 31
10, 15660, Note_on_c, 9, 70, 13
10, 15660, Note_on_c, 9, 69, 51
10, 15661, Note_on_c, 9, 69, 0
10, 15661, Note_on_c, 9, 70, 0
10, 15661, Note_on_c, 9, 42, 0
10, 15720, Note_on_c, 9, 42, 71
10, 15720, Note_on_c, 9, 37, 106
10, 15720, Note_on_c, 9, 70, 51
10, 15720, Note_on_c, 9, 69, 81
10, 15721, Note_on_c, 9, 69, 0
10, 15721, Note_on_c, 9, 42, 0
10, 15721, Note_on_c, 9, 37, 0
10, 15721, Note_on_c, 9, 70, 0
10, 15780, Note_on_c, 9, 35, 61
10, 15780, Note_on_c, 9, 42, 31
10, 15780, Note_on_c, 9, 70, 13
10, 15781, Note_on_c, 9, 70, 0
10, 15781, Note_on_c, 9, 42, 0
10, 15781, Note_on_c, 9, 35, 0
10, 15840, Note_on_c, 9, 35, 81
10, 15840, Note_on_c, 9, 42, 81
10, 15840, Note_on_c, 9, 70, 51
10, 15841, Note_on_c, 9, 70, 0
10, 15841, Note_on_c, 9, 42, 0
10, 15841, Note_on_c, 9, 35, 0
10, 15900, Note_on_c, 9, 42, 35
10, 15900, Note_on_c, 9, 70, 13
10, 15900, Note_on_c, 9, 69, 51
10, 15901, Note_on_c, 9, 69, 0
10, 15901, Note_on_c, 9, 70, 0
10, 15901, Note_on_c, 9, 42, 0
10, 15960, Note_on_c, 9, 42, 91
10, 15960, Note_on_c, 9, 37, 106
10, 15960, Note_on_c, 9, 70, 51
10, 15960, Note_on_c, 9, 69, 81
10, 15961, Note_on_c, 9, 69, 0
10, 15961, Note_on_c, 9, 42, 0
10, 15961, Note_on_c, 9, 37, 0
10, 15961, Note_on_c, 9, 70, 0
10, 16020, Note_on_c, 9, 35, 61
10, 16020, Note_on_c, 9, 42, 46
10, 16020, Note_on_c, 9, 70, 13
10, 16021, Note_on_c, 9, 70, 0
10, 16021, Note_on_c, 9, 42, 0
10, 16021, Note_on_c, 9, 35, 0
10, 16080, Note_on_c, 9, 35, 81
10, 16080, Note_on_c, 9, 42, 81
10, 16080, Note_on_c, 9, 70, 51
10, 16081, Note_on_c, 9, 70, 0
10, 16081, Note_on_c, 9, 42, 0
10, 16081, Note_on_c, 9, 35, 0
10, 16140, Note_on_c, 9, 46, 45
10, 16140, Note_on_c, 9, 70, 13
10, 16140, Note_on_c, 9, 69, 51
10, 16141, Note_on_c, 9, 69, 0
10, 16141, Note_on_c, 9, 70, 0
10, 16141, Note_on_c, 9, 46, 0
10, 16200, Note_on_c, 9, 42, 81
10, 16200, Note_on_c, 9, 37, 106
10, 16200, Note_on_c, 9, 70, 51
10, 16200, Note_on_c, 9, 69, 81
10, 16201, Note_on_c, 9, 69, 0
10, 16201, Note_on_c, 9, 42, 0
10, 16201, Note_on_c, 9, 37, 0
10, 16201, Note_on_c, 9, 70, 0
10, 16260, Note_on_c, 9, 35, 66
10, 16260, Note_on_c, 9, 42, 51
10, 16260, Note_on_c, 9, 70, 13
10, 16261, Note_on_c, 9, 70, 0
10, 16261, Note_on_c, 9, 42, 0
10, 16261, Note_on_c, 9, 35, 0
10, 16320, Note_on_c, 9, 35, 81
10, 16320, Note_on_c, 9, 42, 81
10, 16320, Note_on_c, 9, 70, 51
10, 16321, Note_on_c, 9, 70, 0
10, 16321, Note_on_c, 9, 42, 0
10, 16321, Note_on_c, 9, 35, 0
10, 16380, Note_on_c, 9, 42, 31
10, 16380, Note_on_c, 9, 70, 13
10, 16380, Note_on_c, 9, 69, 51
10, 16381, Note_on_c, 9, 69, 0
10, 16381, Note_on_c, 9, 70, 0
10, 16381, Note_on_c, 9, 42, 0
10, 16440, Note_on_c, 9, 42, 71
10, 16440, Note_on_c, 9, 37, 106
10, 16440, Note_on_c, 9, 70, 51
10, 16440, Note_on_c, 9, 69, 81
10, 16441, Note_on_c, 9, 69, 0
10, 16441, Note_on_c, 9, 42, 0
10, 16441, Note_on_c, 9, 37, 0
10, 16441, Note_on_c, 9, 70, 0
10, 16500, Note_on_c, 9, 35, 61
10, 16500, Note_on_c, 9, 42, 31
10, 16500, Note_on_c, 9, 70, 13
10, 16501, Note_on_c, 9, 70, 0
10, 16501, Note_on_c, 9, 42, 0
10, 16501, Note_on_c, 9, 35, 0
10, 16560, Note_on_c, 9, 35, 81
10, 16560, Note_on_c, 9, 42, 81
10, 16560, Note_on_c, 9, 70, 51
10, 16561, Note_on_c, 9, 70, 0
10, 16561, Note_on_c, 9, 42, 0
10, 16561, Note_on_c, 9, 35, 0
10, 16620, Note_on_c, 9, 42, 31
10, 16620, Note_on_c, 9, 70, 13
10, 16620, Note_on_c, 9, 69, 51
10, 16621, Note_on_c, 9, 69, 0
10, 16621, Note_on_c, 9, 70, 0
10, 16621, Note_on_c, 9, 42, 0
10, 16680, Note_on_c, 9, 42, 71
10, 16680, Note_on_c, 9, 37, 106
10, 16680, Note_on_c, 9, 70, 51
10, 16680, Note_on_c, 9, 69, 81
10, 16681, Note_on_c, 9, 69, 0
10, 16681, Note_on_c, 9, 42, 0
10, 16681, Note_on_c, 9, 37, 0
10, 16681, Note_on_c, 9, 70, 0
10, 16740, Note_on_c, 9, 35, 61
10, 16740, Note_on_c, 9, 42, 31
10, 16740, Note_on_c, 9, 70, 13
10, 16741, Note_on_c, 9, 70, 0
10, 16741, Note_on_c, 9, 42, 0
10, 16741, Note_on_c, 9, 35, 0
10, 16800, Note_on_c, 9, 35, 81
10, 16800, Note_on_c, 9, 42, 81
10, 16800, Note_on_c, 9, 70, 51
10, 16801, Note_on_c, 9, 70, 0
10, 16801, Note_on_c, 9, 42, 0
10, 16801, Note_on_c, 9, 35, 0
10, 16860, Note_on_c, 9, 42, 31
10, 16860, Note_on_c, 9, 70, 13
10, 16860, Note_on_c, 9, 69, 51
10, 16861, Note_on_c, 9, 69, 0
10, 16861, Note_on_c, 9, 70, 0
10, 16861, Note_on_c, 9, 42, 0
10, 16920, Note_on_c, 9, 42, 91
10, 16920, Note_on_c, 9, 37, 106
10, 16920, Note_on_c, 9, 70, 51
10, 16920, Note_on_c, 9, 69, 81
10, 16921, Note_on_c, 9, 69, 0
10, 16921, Note_on_c, 9, 42, 0
10, 16921, Note_on_c, 9, 37, 0
10, 16921, Note_on_c, 9, 70, 0
10, 16980, Note_on_c, 9, 35, 61
10, 16980, Note_on_c, 9, 42, 31
10, 16980, Note_on_c, 9, 70, 13
10, 16981, Note_on_c, 9, 70, 0
10, 16981, Note_on_c, 9, 42, 0
10, 16981, Note_on_c, 9, 35, 0
10, 17040, Note_on_c, 9, 35, 81
10, 17040, Note_on_c, 9, 42, 81
10, 17040, Note_on_c, 9, 70, 51
10, 17041, Note_on_c, 9, 70, 0
10, 17041, Note_on_c, 9, 42, 0
10, 17041, Note_on_c, 9, 35, 0
10, 17100, Note_on_c, 9, 42, 31
10, 17100, Note_on_c, 9, 70, 13
10, 17100, Note_on_c, 9, 69, 51
10, 17101, Note_on_c, 9, 69, 0
10, 17101, Note_on_c, 9, 70, 0
10, 17101, Note_on_c, 9, 42, 0
10, 17160, Note_on_c, 9, 42, 91
10, 17160, Note_on_c, 9, 37, 106
10, 17160, Note_on_c, 9, 70, 51
10, 17160, Note_on_c, 9, 69, 81
10, 17161, Note_on_c, 9, 69, 0
10, 17161, Note_on_c, 9, 42, 0
10, 17161, Note_on_c, 9, 37, 0
10, 17161, Note_on_c, 9, 70, 0
10, 17220, Note_on_c, 9, 35, 66
10, 17220, Note_on_c, 9, 46, 81
10, 17220, Note_on_c, 9, 70, 13
10, 17221, Note_on_c, 9, 70, 0
10, 17221, Note_on_c, 9, 46, 0
10, 17221, Note_on_c, 9, 35, 0
10, 17280, Note_on_c, 9, 35, 81
10, 17280, Note_on_c, 9, 42, 81
10, 17280, Note_on_c, 9, 70, 51
10, 17281, Note_on_c, 9, 70, 0
10, 17281, Note_on_c, 9, 42, 0
10, 17281, Note_on_c, 9, 35, 0
10, 17340, Note_on_c, 9, 42, 31
10, 17340, Note_on_c, 9, 70, 13
10, 17340, Note_on_c, 9, 69, 51
10, 17341, Note_on_c, 9, 69, 0
10, 17341, Note_on_c, 9, 70, 0
10, 17341, Note_on_c, 9, 42, 0
10, 17400, Note_on_c, 9, 42, 71
10, 17400, Note_on_c, 9, 37, 106
10, 17400, Note_on_c, 9, 70, 51
10, 17400, Note_on_c, 9, 69, 81
10, 17401, Note_on_c, 9, 69, 0
10, 17401, Note_on_c, 9, 42, 0
10, 17401, Note_on_c, 9, 37, 0
10, 17401, Note_on_c, 9, 70, 0
10, 17460, Note_on_c, 9, 35, 61
10, 17460, Note_on_c, 9, 42, 31
10, 17460, Note_on_c, 9, 70, 13
10, 17461, Note_on_c, 9, 70, 0
10, 17461, Note_on_c, 9, 42, 0
10, 17461, Note_on_c, 9, 35, 0
10, 17520, Note_on_c, 9, 35, 81
10, 17520, Note_on_c, 9, 42, 81
10, 17520, Note_on_c, 9, 70, 51
10, 17521, Note_on_c, 9, 70, 0
10, 17521, Note_on_c, 9, 42, 0
10, 17521, Note_on_c, 9, 35, 0
10, 17580, Note_on_c, 9, 42, 31
10, 17580, Note_on_c, 9, 70, 13
10, 17580, Note_on_c, 9, 69, 51
10, 17581, Note_on_c, 9, 69, 0
10, 17581, Note_on_c, 9, 70, 0
10, 17581, Note_on_c, 9, 42, 0
10, 17640, Note_on_c, 9, 42, 71
10, 17640, Note_on_c, 9, 37, 106
10, 17640, Note_on_c, 9, 70, 51
10, 17640, Note_on_c, 9, 69, 81
10, 17641, Note_on_c, 9, 69, 0
10, 17641, Note_on_c, 9, 42, 0
10, 17641, Note_on_c, 9, 37, 0
10, 17641, Note_on_c, 9, 70, 0
10, 17700, Note_on_c, 9, 35, 61
10, 17700, Note_on_c, 9, 42, 31
10, 17700, Note_on_c, 9, 70, 13
10, 17701, Note_on_c, 9, 70, 0
10, 17701, Note_on_c, 9, 42, 0
10, 17701, Note_on_c, 9, 35, 0
10, 17760, Note_on_c, 9, 35, 81
10, 17760, Note_on_c, 9, 42, 81
10, 17760, Note_on_c, 9, 70, 51
10, 17761, Note_on_c, 9, 70, 0
10, 17761, Note_on_c, 9, 42, 0
10, 17761, Note_on_c, 9, 35, 0
10, 17820, Note_on_c, 9, 42, 35
10, 17820, Note_on_c, 9, 70, 13
10, 17820, Note_on_c, 9, 69, 51
10, 17821, Note_on_c, 9, 69, 0
10, 17821, Note_on_c, 9, 70, 0
10, 17821, Note_on_c, 9, 42, 0
10, 17880, Note_on_c, 9, 42, 91
10, 17880, Note_on_c, 9, 37, 106
10, 17880, Note_on_c, 9, 70, 51
10, 17880, Note_on_c, 9, 69, 81
10, 17881, Note_on_c, 9, 69, 0
10, 17881, Note_on_c, 9, 42, 0
10, 17881, Note_on_c, 9, 37, 0
10, 17881, Note_on_c, 9, 70, 0
10, 17940, Note_on_c, 9, 35, 61
10, 17940, Note_on_c, 9, 42, 46
10, 17940, Note_on_c, 9, 70, 13
10, 17941, Note_on_c, 9, 70, 0
10, 17941, Note_on_c, 9, 42, 0
10, 17941, Note_on_c, 9, 35, 0
10, 18000, Note_on_c, 9, 35, 81
10, 18000, Note_on_c, 9, 42, 81
10, 18000, Note_on_c, 9, 70, 51
10, 18001, Note_on_c, 9, 70, 0
10, 18001, Note_on_c, 9, 42, 0
10, 18001, Note_on_c, 9, 35, 0
10, 18060, Note_on_c, 9, 46, 45
10, 18060, Note_on_c, 9, 70, 13
10, 18060, Note_on_c, 9, 69, 51
10, 18061, Note_on_c, 9, 69, 0
10, 18061, Note_on_c, 9, 70, 0
10, 18061, Note_on_c, 9, 46, 0
10, 18120, Note_on_c, 9, 42, 81
10, 18120, Note_on_c, 9, 37, 106
10, 18120, Note_on_c, 9, 70, 51
10, 18120, Note_on_c, 9, 69, 81
10, 18121, Note_on_c, 9, 69, 0
10, 18121, Note_on_c, 9, 42, 0
10, 18121, Note_on_c, 9, 37, 0
10, 18121, Note_on_c, 9, 70, 0
10, 18180, Note_on_c, 9, 35, 66
10, 18180, Note_on_c, 9, 42, 51
10, 18180, Note_on_c, 9, 70, 13
10, 18181, Note_on_c, 9, 70, 0
10, 18181, Note_on_c, 9, 42, 0
10, 18181, Note_on_c, 9, 35, 0
10, 18240, Note_on_c, 9, 35, 81
10, 18240, Note_on_c, 9, 42, 81
10, 18240, Note_on_c, 9, 70, 51
10, 18241, Note_on_c, 9, 70, 0
10, 18241, Note_on_c, 9, 42, 0
10, 18241, Note_on_c, 9, 35, 0
10, 18300, Note_on_c, 9, 42, 31
10, 18300, Note_on_c, 9, 70, 13
10, 18300, Note_on_c, 9, 69, 51
10, 18301, Note_on_c, 9, 69, 0
10, 18301, Note_on_c, 9, 70, 0
10, 18301, Note_on_c, 9, 42, 0
10, 18360, Note_on_c, 9, 42, 61
10, 18360, Note_on_c, 9, 37, 106
10, 18360, Note_on_c, 9, 70, 51
10, 18360, Note_on_c, 9, 69, 81
10, 18361, Note_on_c, 9, 69, 0
10, 18361, Note_on_c, 9, 42, 0
10, 18361, Note_on_c, 9, 37, 0
10, 18361, Note_on_c, 9, 70, 0
10, 18420, Note_on_c, 9, 35, 61
10, 18420, Note_on_c, 9, 42, 31
10, 18420, Note_on_c, 9, 70, 13
10, 18421, Note_on_c, 9, 70, 0
10, 18421, Note_on_c, 9, 42, 0
10, 18421, Note_on_c, 9, 35, 0
10, 18480, Note_on_c, 9, 35, 81
10, 18480, Note_on_c, 9, 42, 81
10, 18480, Note_on_c, 9, 70, 51
10, 18481, Note_on_c, 9, 70, 0
10, 18481, Note_on_c, 9, 42, 0
10, 18481, Note_on_c, 9, 35, 0
10, 18540, Note_on_c, 9, 42, 31
10, 18540, Note_on_c, 9, 70, 13
10, 18540, Note_on_c, 9, 69, 51
10, 18541, Note_on_c, 9, 69, 0
10, 18541, Note_on_c, 9, 70, 0
10, 18541, Note_on_c, 9, 42, 0
10, 18600, Note_on_c, 9, 42, 61
10, 18600, Note_on_c, 9, 37, 106
10, 18600, Note_on_c, 9, 70, 51
10, 18600, Note_on_c, 9, 69, 81
10, 18601, Note_on_c, 9, 69, 0
10, 18601, Note_on_c, 9, 42, 0
10, 18601, Note_on_c, 9, 37, 0
10, 18601, Note_on_c, 9, 70, 0
10, 18660, Note_on_c, 9, 35, 61
10, 18660, Note_on_c, 9, 42, 31
10, 18660, Note_on_c, 9, 70, 13
10, 18661, Note_on_c, 9, 70, 0
10, 18661, Note_on_c, 9, 42, 0
10, 18661, Note_on_c, 9, 35, 0
10, 18720, Note_on_c, 9, 35, 81
10, 18720, Note_on_c, 9, 42, 81
10, 18720, Note_on_c, 9, 70, 51
10, 18721, Note_on_c, 9, 70, 0
10, 18721, Note_on_c, 9, 42, 0
10, 18721, Note_on_c, 9, 35, 0
10, 18780, Note_on_c, 9, 42, 46
10, 18780, Note_on_c, 9, 70, 13
10, 18780, Note_on_c, 9, 69, 51
10, 18781, Note_on_c, 9, 69, 0
10, 18781, Note_on_c, 9, 70, 0
10, 18781, Note_on_c, 9, 42, 0
10, 18840, Note_on_c, 9, 42, 86
10, 18840, Note_on_c, 9, 37, 106
10, 18840, Note_on_c, 9, 70, 51
10, 18840, Note_on_c, 9, 69, 81
10, 18841, Note_on_c, 9, 69, 0
10, 18841, Note_on_c, 9, 42, 0
10, 18841, Note_on_c, 9, 37, 0
10, 18841, Note_on_c, 9, 70, 0
10, 18900, Note_on_c, 9, 35, 61
10, 18900, Note_on_c, 9, 42, 41
10, 18900, Note_on_c, 9, 70, 13
10, 18901, Note_on_c, 9, 70, 0
10, 18901, Note_on_c, 9, 42, 0
10, 18901, Note_on_c, 9, 35, 0
10, 18960, Note_on_c, 9, 35, 81
10, 18960, Note_on_c, 9, 42, 99
10, 18960, Note_on_c, 9, 70, 51
10, 18961, Note_on_c, 9, 70, 0
10, 18961, Note_on_c, 9, 42, 0
10, 18961, Note_on_c, 9, 35, 0
10, 19020, Note_on_c, 9, 42, 81
10, 19020, Note_on_c, 9, 70, 13
10, 19020, Note_on_c, 9, 69, 51
10, 19021, Note_on_c, 9, 69, 0
10, 19021, Note_on_c, 9, 70, 0
10, 19021, Note_on_c, 9, 42, 0
10, 19080, Note_on_c, 9, 42, 91
10, 19080, Note_on_c, 9, 37, 106
10, 19080, Note_on_c, 9, 70, 51
10, 19080, Note_on_c, 9, 69, 81
10, 19081, Note_on_c, 9, 69, 0
10, 19081, Note_on_c, 9, 42, 0
10, 19081, Note_on_c, 9, 37, 0
10, 19081, Note_on_c, 9, 70, 0
10, 19140, Note_on_c, 9, 35, 66
10, 19140, Note_on_c, 9, 46, 81
10, 19140, Note_on_c, 9, 70, 13
10, 19141, Note_on_c, 9, 70, 0
10, 19141, Note_on_c, 9, 46, 0
10, 19141, Note_on_c, 9, 35, 0
10, 19200, Note_on_c, 9, 35, 81
10, 19200, Note_on_c, 9, 42, 81
10, 19200, Note_on_c, 9, 70, 51
10, 19201, Note_on_c, 9, 70, 0
10, 19201, Note_on_c, 9, 42, 0
10, 19201, Note_on_c, 9, 35, 0
10, 19260, Note_on_c, 9, 42, 31
10, 19260, Note_on_c, 9, 70, 13
10, 19260, Note_on_c, 9, 69, 51
10, 19261, Note_on_c, 9, 69, 0
10, 19261, Note_on_c, 9, 70, 0
10, 19261, Note_on_c, 9, 42, 0
10, 19320, Note_on_c, 9, 42, 61
10, 19320, Note_on_c, 9, 37, 106
10, 19320, Note_on_c, 9, 70, 51
10, 19320, Note_on_c, 9, 69, 81
10, 19321, Note_on_c, 9, 69, 0
10, 19321, Note_on_c, 9, 42, 0
10, 19321, Note_on_c, 9, 37, 0
10, 19321, Note_on_c, 9, 70, 0
10, 19380, Note_on_c, 9, 35, 61
10, 19380, Note_on_c, 9, 42, 31
10, 19380, Note_on_c, 9, 70, 13
10, 19381, Note_on_c, 9, 70, 0
10, 19381, Note_on_c, 9, 42, 0
10, 19381, Note_on_c, 9, 35, 0
10, 19440, Note_on_c, 9, 35, 81
10, 19440, Note_on_c, 9, 42, 81
10, 19440, Note_on_c, 9, 70, 51
10, 19441, Note_on_c, 9, 70, 0
10, 19441, Note_on_c, 9, 42, 0
10, 19441, Note_on_c, 9, 35, 0
10, 19500, Note_on_c, 9, 42, 31
10, 19500, Note_on_c, 9, 70, 13
10, 19500, Note_on_c, 9, 69, 51
10, 19501, Note_on_c, 9, 69, 0
10, 19501, Note_on_c, 9, 70, 0
10, 19501, Note_on_c, 9, 42, 0
10, 19560, Note_on_c, 9, 42, 61
10, 19560, Note_on_c, 9, 37, 106
10, 19560, Note_on_c, 9, 70, 51
10, 19560, Note_on_c, 9, 69, 81
10, 19561, Note_on_c, 9, 69, 0
10, 19561, Note_on_c, 9, 42, 0
10, 19561, Note_on_c, 9, 37, 0
10, 19561, Note_on_c, 9, 70, 0
10, 19620, Note_on_c, 9, 35, 61
10, 19620, Note_on_c, 9, 42, 31
10, 19620, Note_on_c, 9, 70, 13
10, 19621, Note_on_c, 9, 70, 0
10, 19621, Note_on_c, 9, 42, 0
10, 19621, Note_on_c, 9, 35, 0
10, 19680, Note_on_c, 9, 35, 81
10, 19680, Note_on_c, 9, 42, 81
10, 19680, Note_on_c, 9, 70, 51
10, 19681, Note_on_c, 9, 70, 0
10, 19681, Note_on_c, 9, 42, 0
10, 19681, Note_on_c, 9, 35, 0
10, 19740, Note_on_c, 9, 42, 35
10, 19740, Note_on_c, 9, 70, 13
10, 19740, Note_on_c, 9, 69, 51
10, 19741, Note_on_c, 9, 69, 0
10, 19741, Note_on_c, 9, 70, 0
10, 19741, Note_on_c, 9, 42, 0
10, 19800, Note_on_c, 9, 42, 91
10, 19800, Note_on_c, 9, 37, 106
10, 19800, Note_on_c, 9, 70, 51
10, 19800, Note_on_c, 9, 69, 81
10, 19801, Note_on_c, 9, 69, 0
10, 19801, Note_on_c, 9, 42, 0
10, 19801, Note_on_c, 9, 37, 0
10, 19801, Note_on_c, 9, 70, 0
10, 19860, Note_on_c, 9, 35, 61
10, 19860, Note_on_c, 9, 42, 46
10, 19860, Note_on_c, 9, 70, 13
10, 19861, Note_on_c, 9, 70, 0
10, 19861, Note_on_c, 9, 42, 0
10, 19861, Note_on_c, 9, 35, 0
10, 19920, Note_on_c, 9, 35, 81
10, 19920, Note_on_c, 9, 42, 81
10, 19920, Note_on_c, 9, 70, 51
10, 19921, Note_on_c, 9, 70, 0
10, 19921, Note_on_c, 9, 42, 0
10, 19921, Note_on_c, 9, 35, 0
10, 19980, Note_on_c, 9, 42, 35
10, 19980, Note_on_c, 9, 70, 13
10, 19980, Note_on_c, 9, 69, 51
10, 19981, Note_on_c, 9, 69, 0
10, 19981, Note_on_c, 9, 70, 0
10, 19981, Note_on_c, 9, 42, 0
10, 20040, Note_on_c, 9, 42, 81
10, 20040, Note_on_c, 9, 37, 106
10, 20040, Note_on_c, 9, 70, 51
10, 20040, Note_on_c, 9, 69, 81
10, 20041, Note_on_c, 9, 69, 0
10, 20041, Note_on_c, 9, 42, 0
10, 20041, Note_on_c, 9, 37, 0
10, 20041, Note_on_c, 9, 70, 0
10, 20100, Note_on_c, 9, 35, 66
10, 20100, Note_on_c, 9, 42, 51
10, 20100, Note_on_c, 9, 70, 13
10, 20101, Note_on_c, 9, 70, 0
10, 20101, Note_on_c, 9, 42, 0
10, 20101, Note_on_c, 9, 35, 0
10, 20160, Note_on_c, 9, 35, 81
10, 20160, Note_on_c, 9, 42, 81
10, 20160, Note_on_c, 9, 70, 51
10, 20161, Note_on_c, 9, 70, 0
10, 20161, Note_on_c, 9, 42, 0
10, 20161, Note_on_c, 9, 35, 0
10, 20220, Note_on_c, 9, 42, 31
10, 20220, Note_on_c, 9, 70, 13
10, 20220, Note_on_c, 9, 69, 51
10, 20221, Note_on_c, 9, 69, 0
10, 20221, Note_on_c, 9, 70, 0
10, 20221, Note_on_c, 9, 42, 0
10, 20280, Note_on_c, 9, 42, 71
10, 20280, Note_on_c, 9, 37, 106
10, 20280, Note_on_c, 9, 70, 51
10, 20280, Note_on_c, 9, 69, 81
10, 20281, Note_on_c, 9, 69, 0
10, 20281, Note_on_c, 9, 42, 0
10, 20281, Note_on_c, 9, 37, 0
10, 20281, Note_on_c, 9, 70, 0
10, 20340, Note_on_c, 9, 35, 61
10, 20340, Note_on_c, 9, 42, 31
10, 20340, Note_on_c, 9, 70, 13
10, 20341, Note_on_c, 9, 70, 0
10, 20341, Note_on_c, 9, 42, 0
10, 20341, Note_on_c, 9, 35, 0
10, 20400, Note_on_c, 9, 35, 81
10, 20400, Note_on_c, 9, 42, 81
10, 20400, Note_on_c, 9, 70, 51
10, 20401, Note_on_c, 9, 70, 0
10, 20401, Note_on_c, 9, 42, 0
10, 20401, Note_on_c, 9, 35, 0
10, 20460, Note_on_c, 9, 42, 31
10, 20460, Note_on_c, 9, 70, 13
10, 20460, Note_on_c, 9, 69, 51
10, 20461, Note_on_c, 9, 69, 0
10, 20461, Note_on_c, 9, 70, 0
10, 20461, Note_on_c, 9, 42, 0
10, 20520, Note_on_c, 9, 42, 71
10, 20520, Note_on_c, 9, 37, 106
10, 20520, Note_on_c, 9, 70, 51
10, 20520, Note_on_c, 9, 69, 81
10, 20521, Note_on_c, 9, 69, 0
10, 20521, Note_on_c, 9, 42, 0
10, 20521, Note_on_c, 9, 37, 0
10, 20521, Note_on_c, 9, 70, 0
10, 20580, Note_on_c, 9, 35, 61
10, 20580, Note_on_c, 9, 46, 63
10, 20580, Note_on_c, 9, 70, 13
10, 20581, Note_on_c, 9, 70, 0
10, 20581, Note_on_c, 9, 46, 0
10, 20581, Note_on_c, 9, 35, 0
10, 20640, Note_on_c, 9, 35, 81
10, 20640, Note_on_c, 9, 42, 81
10, 20640, Note_on_c, 9, 70, 51
10, 20641, Note_on_c, 9, 70, 0
10, 20641, Note_on_c, 9, 42, 0
10, 20641, Note_on_c, 9, 35, 0
10, 20700, Note_on_c, 9, 42, 46
10, 20700, Note_on_c, 9, 70, 13
10, 20700, Note_on_c, 9, 69, 51
10, 20701, Note_on_c, 9, 69, 0
10, 20701, Note_on_c, 9, 70, 0
10, 20701, Note_on_c, 9, 42, 0
10, 20760, Note_on_c, 9, 42, 86
10, 20760, Note_on_c, 9, 37, 106
10, 20760, Note_on_c, 9, 70, 51
10, 20760, Note_on_c, 9, 69, 81
10, 20761, Note_on_c, 9, 69, 0
10, 20761, Note_on_c, 9, 42, 0
10, 20761, Note_on_c, 9, 37, 0
10, 20761, Note_on_c, 9, 70, 0
10, 20820, Note_on_c, 9, 35, 61
10, 20820, Note_on_c, 9, 42, 63
10, 20820, Note_on_c, 9, 70, 13
10, 20821, Note_on_c, 9, 70, 0
10, 20821, Note_on_c, 9, 42, 0
10, 20821, Note_on_c, 9, 35, 0
10, 20880, Note_on_c, 9, 35, 81
10, 20880, Note_on_c, 9, 42, 99
10, 20880, Note_on_c, 9, 70, 51
10, 20881, Note_on_c, 9, 70, 0
10, 20881, Note_on_c, 9, 42, 0
10, 20881, Note_on_c, 9, 35, 0
10, 20940, Note_on_c, 9, 42, 81
10, 20940, Note_on_c, 9, 70, 13
10, 20940, Note_on_c, 9, 69, 51
10, 20941, Note_on_c, 9, 69, 0
10, 20941, Note_on_c, 9, 70, 0
10, 20941, Note_on_c, 9, 42, 0
10, 21000, Note_on_c, 9, 42, 91
10, 21000, Note_on_c, 9, 37, 106
10, 21000, Note_on_c, 9, 70, 51
10, 21000, Note_on_c, 9, 69, 81
10, 21001, Note_on_c, 9, 69, 0
10, 21001, Note_on_c, 9, 42, 0
10, 21001, Note_on_c, 9, 37, 0
10, 21001, Note_on_c, 9, 70, 0
10, 21060, Note_on_c, 9, 35, 66
10, 21060, Note_on_c, 9, 46, 81
10, 21060, Note_on_c, 9, 70, 13
10, 21061, Note_on_c, 9, 70, 0
10, 21061, Note_on_c, 9, 46, 0
10, 21061, Note_on_c, 9, 35, 0
10, 21120, Note_on_c, 9, 35, 81
10, 21120, Note_on_c, 9, 42, 81
10, 21120, Note_on_c, 9, 70, 51
10, 21121, Note_on_c, 9, 70, 0
10, 21121, Note_on_c, 9, 42, 0
10, 21121, Note_on_c, 9, 35, 0
10, 21180, Note_on_c, 9, 42, 31
10, 21180, Note_on_c, 9, 70, 13
10, 21180, Note_on_c, 9, 69, 51
10, 21181, Note_on_c, 9, 69, 0
10, 21181, Note_on_c, 9, 70, 0
10, 21181, Note_on_c, 9, 42, 0
10, 21240, Note_on_c, 9, 42, 71
10, 21240, Note_on_c, 9, 37, 106
10, 21240, Note_on_c, 9, 70, 51
10, 21240, Note_on_c, 9, 69, 81
10, 21241, Note_on_c, 9, 69, 0
10, 21241, Note_on_c, 9, 42, 0
10, 21241, Note_on_c, 9, 37, 0
10, 21241, Note_on_c, 9, 70, 0
10, 21300, Note_on_c, 9, 35, 61
10, 21300, Note_on_c, 9, 46, 63
10, 21300, Note_on_c, 9, 70, 13
10, 21301, Note_on_c, 9, 70, 0
10, 21301, Note_on_c, 9, 46, 0
10, 21301, Note_on_c, 9, 35, 0
10, 21360, Note_on_c, 9, 35, 81
10, 21360, Note_on_c, 9, 42, 81
10, 21360, Note_on_c, 9, 70, 51
10, 21361, Note_on_c, 9, 70, 0
10, 21361, Note_on_c, 9, 42, 0
10, 21361, Note_on_c, 9, 35, 0
10, 21420, Note_on_c, 9, 42, 31
10, 21420, Note_on_c, 9, 70, 13
10, 21420, Note_on_c, 9, 69, 51
10, 21421, Note_on_c, 9, 69, 0
10, 21421, Note_on_c, 9, 70, 0
10, 21421, Note_on_c, 9, 42, 0
10, 21480, Note_on_c, 9, 42, 71
10, 21480, Note_on_c, 9, 37, 106
10, 21480, Note_on_c, 9, 70, 51
10, 21480, Note_on_c, 9, 69, 81
10, 21481, Note_on_c, 9, 69, 0
10, 21481, Note_on_c, 9, 42, 0
10, 21481, Note_on_c, 9, 37, 0
10, 21481, Note_on_c, 9, 70, 0
10, 21540, Note_on_c, 9, 35, 61
10, 21540, Note_on_c, 9, 42, 31
10, 21540, Note_on_c, 9, 70, 13
10, 21541, Note_on_c, 9, 70, 0
10, 21541, Note_on_c, 9, 42, 0
10, 21541, Note_on_c, 9, 35, 0
10, 21600, Note_on_c, 9, 35, 81
10, 21600, Note_on_c, 9, 42, 81
10, 21600, Note_on_c, 9, 70, 51
10, 21601, Note_on_c, 9, 70, 0
10, 21601, Note_on_c, 9, 42, 0
10, 21601, Note_on_c, 9, 35, 0
10, 21660, Note_on_c, 9, 42, 35
10, 21660, Note_on_c, 9, 70, 13
10, 21660, Note_on_c, 9, 69, 51
10, 21661, Note_on_c, 9, 69, 0
10, 21661, Note_on_c, 9, 70, 0
10, 21661, Note_on_c, 9, 42, 0
10, 21720, Note_on_c, 9, 42, 91
10, 21720, Note_on_c, 9, 37, 106
10, 21720, Note_on_c, 9, 70, 51
10, 21720, Note_on_c, 9, 69, 81
10, 21721, Note_on_c, 9, 69, 0
10, 21721, Note_on_c, 9, 42, 0
10, 21721, Note_on_c, 9, 37, 0
10, 21721, Note_on_c, 9, 70, 0
10, 21780, Note_on_c, 9, 35, 61
10, 21780, Note_on_c, 9, 42, 46
10, 21780, Note_on_c, 9, 70, 13
10, 21781, Note_on_c, 9, 70, 0
10, 21781, Note_on_c, 9, 42, 0
10, 21781, Note_on_c, 9, 35, 0
10, 21840, Note_on_c, 9, 35, 81
10, 21840, Note_on_c, 9, 42, 81
10, 21840, Note_on_c, 9, 70, 51
10, 21841, Note_on_c, 9, 70, 0
10, 21841, Note_on_c, 9, 42, 0
10, 21841, Note_on_c, 9, 35, 0
10, 21900, Note_on_c, 9, 42, 35
10, 21900, Note_on_c, 9, 70, 13
10, 21900, Note_on_c, 9, 69, 51
10, 21901, Note_on_c, 9, 69, 0
10, 21901, Note_on_c, 9, 70, 0
10, 21901, Note_on_c, 9, 42, 0
10, 21960, Note_on_c, 9, 42, 81
10, 21960, Note_on_c, 9, 37, 106
10, 21960, Note_on_c, 9, 70, 51
10, 21960, Note_on_c, 9, 69, 81
10, 21961, Note_on_c, 9, 69, 0
10, 21961, Note_on_c, 9, 42, 0
10, 21961, Note_on_c, 9, 37, 0
10, 21961, Note_on_c, 9, 70, 0
10, 22020, Note_on_c, 9, 35, 66
10, 22020, Note_on_c, 9, 42, 51
10, 22020, Note_on_c, 9, 70, 13
10, 22021, Note_on_c, 9, 70, 0
10, 22021, Note_on_c, 9, 42, 0
10, 22021, Note_on_c, 9, 35, 0
10, 22080, Note_on_c, 9, 35, 81
10, 22080, Note_on_c, 9, 42, 81
10, 22080, Note_on_c, 9, 70, 51
10, 22081, Note_on_c, 9, 70, 0
10, 22081, Note_on_c, 9, 42, 0
10, 22081, Note_on_c, 9, 35, 0
10, 22140, Note_on_c, 9, 42, 31
10, 22140, Note_on_c, 9, 70, 13
10, 22140, Note_on_c, 9, 69, 51
10, 22141, Note_on_c, 9, 69, 0
10, 22141, Note_on_c, 9, 70, 0
10, 22141, Note_on_c, 9, 42, 0
10, 22200, Note_on_c, 9, 42, 61
10, 22200, Note_on_c, 9, 37, 106
10, 22200, Note_on_c, 9, 70, 51
10, 22200, Note_on_c, 9, 69, 81
10, 22201, Note_on_c, 9, 69, 0
10, 22201, Note_on_c, 9, 42, 0
10, 22201, Note_on_c, 9, 37, 0
10, 22201, Note_on_c, 9, 70, 0
10, 22260, Note_on_c, 9, 35, 61
10, 22260, Note_on_c, 9, 42, 31
10, 22260, Note_on_c, 9, 70, 13
10, 22261, Note_on_c, 9, 70, 0
10, 22261, Note_on_c, 9, 42, 0
10, 22261, Note_on_c, 9, 35, 0
10, 22320, Note_on_c, 9, 35, 81
10, 22320, Note_on_c, 9, 42, 81
10, 22320, Note_on_c, 9, 70, 51
10, 22321, Note_on_c, 9, 70, 0
10, 22321, Note_on_c, 9, 42, 0
10, 22321, Note_on_c, 9, 35, 0
10, 22380, Note_on_c, 9, 42, 31
10, 22380, Note_on_c, 9, 70, 13
10, 22380, Note_on_c, 9, 69, 51
10, 22381, Note_on_c, 9, 69, 0
10, 22381, Note_on_c, 9, 70, 0
10, 22381, Note_on_c, 9, 42, 0
10, 22440, Note_on_c, 9, 42, 61
10, 22440, Note_on_c, 9, 37, 106
10, 22440, Note_on_c, 9, 70, 51
10, 22440, Note_on_c, 9, 69, 81
10, 22441, Note_on_c, 9, 69, 0
10, 22441, Note_on_c, 9, 42, 0
10, 22441, Note_on_c, 9, 37, 0
10, 22441, Note_on_c, 9, 70, 0
10, 22500, Note_on_c, 9, 35, 61
10, 22500, Note_on_c, 9, 42, 31
10, 22500, Note_on_c, 9, 70, 13
10, 22501, Note_on_c, 9, 70, 0
10, 22501, Note_on_c, 9, 42, 0
10, 22501, Note_on_c, 9, 35, 0
10, 22560, Note_on_c, 9, 35, 81
10, 22560, Note_on_c, 9, 42, 81
10, 22560, Note_on_c, 9, 70, 51
10, 22561, Note_on_c, 9, 70, 0
10, 22561, Note_on_c, 9, 42, 0
10, 22561, Note_on_c, 9, 35, 0
10, 22620, Note_on_c, 9, 42, 46
10, 22620, Note_on_c, 9, 70, 13
10, 22620, Note_on_c, 9, 69, 51
10, 22621, Note_on_c, 9, 69, 0
10, 22621, Note_on_c, 9, 70, 0
10, 22621, Note_on_c, 9, 42, 0
10, 22680, Note_on_c, 9, 42, 86
10, 22680, Note_on_c, 9, 37, 106
10, 22680, Note_on_c, 9, 70, 51
10, 22680, Note_on_c, 9, 69, 81
10, 22681, Note_on_c, 9, 69, 0
10, 22681, Note_on_c, 9, 42, 0
10, 22681, Note_on_c, 9, 37, 0
10, 22681, Note_on_c, 9, 70, 0
10, 22740, Note_on_c, 9, 35, 61
10, 22740, Note_on_c, 9, 42, 63
10, 22740, Note_on_c, 9, 70, 13
10, 22741, Note_on_c, 9, 70, 0
10, 22741, Note_on_c, 9, 42, 0
10, 22741, Note_on_c, 9, 35, 0
10, 22800, Note_on_c, 9, 35, 81
10, 22800, Note_on_c, 9, 42, 99
10, 22800, Note_on_c, 9, 70, 51
10, 22801, Note_on_c, 9, 70, 0
10, 22801, Note_on_c, 9, 42, 0
10, 22801, Note_on_c, 9, 35, 0
10, 22860, Note_on_c, 9, 42, 81
10, 22860, Note_on_c, 9, 70, 13
10, 22860, Note_on_c, 9, 69, 51
10, 22861, Note_on_c, 9, 69, 0
10, 22861, Note_on_c, 9, 70, 0
10, 22861, Note_on_c, 9, 42, 0
10, 22920, Note_on_c, 9, 42, 91
10, 22920, Note_on_c, 9, 37, 106
10, 22920, Note_on_c, 9, 70, 51
10, 22920, Note_on_c, 9, 69, 81
10, 22921, Note_on_c, 9, 69, 0
10, 22921, Note_on_c, 9, 42, 0
10, 22921, Note_on_c, 9, 37, 0
10, 22921, Note_on_c, 9, 70, 0
10, 22980, Note_on_c, 9, 35, 66
10, 22980, Note_on_c, 9, 46, 81
10, 22980, Note_on_c, 9, 70, 13
10, 22981, Note_on_c, 9, 70, 0
10, 22981, Note_on_c, 9, 46, 0
10, 22981, Note_on_c, 9, 35, 0
10, 23040, Note_on_c, 9, 35, 81
10, 23040, Note_on_c, 9, 42, 81
10, 23040, Note_on_c, 9, 70, 51
10, 23041, Note_on_c, 9, 70, 0
10, 23041, Note_on_c, 9, 42, 0
10, 23041, Note_on_c, 9, 35, 0
10, 23100, Note_on_c, 9, 46, 45
10, 23100, Note_on_c, 9, 70, 13
10, 23100, Note_on_c, 9, 69, 51
10, 23101, Note_on_c, 9, 69, 0
10, 23101, Note_on_c, 9, 70, 0
10, 23101, Note_on_c, 9, 46, 0
10, 23160, Note_on_c, 9, 42, 71
10, 23160, Note_on_c, 9, 37, 106
10, 23160, Note_on_c, 9, 70, 51
10, 23160, Note_on_c, 9, 69, 81
10, 23161, Note_on_c, 9, 69, 0
10, 23161, Note_on_c, 9, 42, 0
10, 23161, Note_on_c, 9, 37, 0
10, 23161, Note_on_c, 9, 70, 0
10, 23220, Note_on_c, 9, 35, 61
10, 23220, Note_on_c, 9, 46, 63
10, 23220, Note_on_c, 9, 70, 13
10, 23221, Note_on_c, 9, 70, 0
10, 23221, Note_on_c, 9, 46, 0
10, 23221, Note_on_c, 9, 35, 0
10, 23280, Note_on_c, 9, 35, 81
10, 23280, Note_on_c, 9, 42, 81
10, 23280, Note_on_c, 9, 70, 51
10, 23281, Note_on_c, 9, 70, 0
10, 23281, Note_on_c, 9, 42, 0
10, 23281, Note_on_c, 9, 35, 0
10, 23340, Note_on_c, 9, 42, 31
10, 23340, Note_on_c, 9, 70, 13
10, 23340, Note_on_c, 9, 69, 51
10, 23341, Note_on_c, 9, 69, 0
10, 23341, Note_on_c, 9, 70, 0
10, 23341, Note_on_c, 9, 42, 0
10, 23400, Note_on_c, 9, 42, 71
10, 23400, Note_on_c, 9, 37, 106
10, 23400, Note_on_c, 9, 70, 51
10, 23400, Note_on_c, 9, 69, 81
10, 23401, Note_on_c, 9, 69, 0
10, 23401, Note_on_c, 9, 42, 0
10, 23401, Note_on_c, 9, 37, 0
10, 23401, Note_on_c, 9, 70, 0
10, 23460, Note_on_c, 9, 35, 61
10, 23460, Note_on_c, 9, 42, 31
10, 23460, Note_on_c, 9, 70, 13
10, 23461, Note_on_c, 9, 70, 0
10, 23461, Note_on_c, 9, 42, 0
10, 23461, Note_on_c, 9, 35, 0
10, 23520, Note_on_c, 9, 35, 81
10, 23520, Note_on_c, 9, 42, 81
10, 23520, Note_on_c, 9, 70, 51
10, 23521, Note_on_c, 9, 70, 0
10, 23521, Note_on_c, 9, 42, 0
10, 23521, Note_on_c, 9, 35, 0
10, 23580, Note_on_c, 9, 42, 35
10, 23580, Note_on_c, 9, 70, 13
10, 23580, Note_on_c, 9, 69, 51
10, 23581, Note_on_c, 9, 69, 0
10, 23581, Note_on_c, 9, 70, 0
10, 23581, Note_on_c, 9, 42, 0
10, 23640, Note_on_c, 9, 42, 91
10, 23640, Note_on_c, 9, 37, 106
10, 23640, Note_on_c, 9, 70, 51
10, 23640, Note_on_c, 9, 69, 81
10, 23641, Note_on_c, 9, 69, 0
10, 23641, Note_on_c, 9, 42, 0
10, 23641, Note_on_c, 9, 37, 0
10, 23641, Note_on_c, 9, 70, 0
10, 23700, Note_on_c, 9, 35, 61
10, 23700, Note_on_c, 9, 42, 46
10, 23700, Note_on_c, 9, 70, 13
10, 23701, Note_on_c, 9, 70, 0
10, 23701, Note_on_c, 9, 42, 0
10, 23701, Note_on_c, 9, 35, 0
10, 23760, Note_on_c, 9, 35, 81
10, 23760, Note_on_c, 9, 42, 81
10, 23760, Note_on_c, 9, 70, 51
10, 23761, Note_on_c, 9, 70, 0
10, 23761, Note_on_c, 9, 42, 0
10, 23761, Note_on_c, 9, 35, 0
10, 23820, Note_on_c, 9, 42, 35
10, 23820, Note_on_c, 9, 70, 13
10, 23820, Note_on_c, 9, 69, 51
10, 23821, Note_on_c, 9, 69, 0
10, 23821, Note_on_c, 9, 70, 0
10, 23821, Note_on_c, 9, 42, 0
10, 23880, Note_on_c, 9, 46, 81
10, 23880, Note_on_c, 9, 37, 106
10, 23880, Note_on_c, 9, 70, 51
10, 23880, Note_on_c, 9, 69, 81
10, 23881, Note_on_c, 9, 69, 0
10, 23881, Note_on_c, 9, 46, 0
10, 23881, Note_on_c, 9, 37, 0
10, 23881, Note_on_c, 9, 70, 0
10, 23940, Note_on_c, 9, 35, 66
10, 23940, Note_on_c, 9, 42, 51
10, 23940, Note_on_c, 9, 70, 13
10, 23941, Note_on_c, 9, 70, 0
10, 23941, Note_on_c, 9, 42, 0
10, 23941, Note_on_c, 9, 35, 0
10, 24000, Note_on_c, 9, 35, 81
10, 24000, Note_on_c, 9, 42, 81
10, 24000, Note_on_c, 9, 70, 51
10, 24001, Note_on_c, 9, 70, 0
10, 24001, Note_on_c, 9, 42, 0
10, 24001, Note_on_c, 9, 35, 0
10, 24060, Note_on_c, 9, 42, 31
10, 24060, Note_on_c, 9, 70, 13
10, 24060, Note_on_c, 9, 69, 51
10, 24061, Note_on_c, 9, 69, 0
10, 24061, Note_on_c, 9, 70, 0
10, 24061, Note_on_c, 9, 42, 0
10, 24120, Note_on_c, 9, 42, 61
10, 24120, Note_on_c, 9, 37, 106
10, 24120, Note_on_c, 9, 70, 51
10, 24120, Note_on_c, 9, 69, 81
10, 24121, Note_on_c, 9, 69, 0
10, 24121, Note_on_c, 9, 42, 0
10, 24121, Note_on_c, 9, 37, 0
10, 24121, Note_on_c, 9, 70, 0
10, 24180, Note_on_c, 9, 35, 61
10, 24180, Note_on_c, 9, 42, 31
10, 24180, Note_on_c, 9, 70, 13
10, 24181, Note_on_c, 9, 70, 0
10, 24181, Note_on_c, 9, 42, 0
10, 24181, Note_on_c, 9, 35, 0
10, 24240, Note_on_c, 9, 35, 81
10, 24240, Note_on_c, 9, 42, 81
10, 24240, Note_on_c, 9, 70, 51
10, 24241, Note_on_c, 9, 70, 0
10, 24241, Note_on_c, 9, 42, 0
10, 24241, Note_on_c, 9, 35, 0
10, 24300, Note_on_c, 9, 42, 31
10, 24300, Note_on_c, 9, 70, 13
10, 24300, Note_on_c, 9, 69, 51
10, 24301, Note_on_c, 9, 69, 0
10, 24301, Note_on_c, 9, 70, 0
10, 24301, Note_on_c, 9, 42, 0
10, 24360, Note_on_c, 9, 42, 61
10, 24360, Note_on_c, 9, 37, 106
10, 24360, Note_on_c, 9, 70, 51
10, 24360, Note_on_c, 9, 69, 81
10, 24361, Note_on_c, 9, 69, 0
10, 24361, Note_on_c, 9, 42, 0
10, 24361, Note_on_c, 9, 37, 0
10, 24361, Note_on_c, 9, 70, 0
10, 24420, Note_on_c, 9, 35, 61
10, 24420, Note_on_c, 9, 42, 31
10, 24420, Note_on_c, 9, 70, 13
10, 24421, Note_on_c, 9, 70, 0
10, 24421, Note_on_c, 9, 42, 0
10, 24421, Note_on_c, 9, 35, 0
10, 24480, Note_on_c, 9, 35, 81
10, 24480, Note_on_c, 9, 42, 81
10, 24480, Note_on_c, 9, 70, 51
10, 24481, Note_on_c, 9, 70, 0
10, 24481, Note_on_c, 9, 42, 0
10, 24481, Note_on_c, 9, 35, 0
10, 24540, Note_on_c, 9, 42, 31
10, 24540, Note_on_c, 9, 70, 13
10, 24540, Note_on_c, 9, 69, 51
10, 24541, Note_on_c, 9, 69, 0
10, 24541, Note_on_c, 9, 70, 0
10, 24541, Note_on_c, 9, 42, 0
10, 24600, Note_on_c, 9, 42, 91
10, 24600, Note_on_c, 9, 37, 106
10, 24600, Note_on_c, 9, 70, 51
10, 24600, Note_on_c, 9, 69, 81
10, 24601, Note_on_c, 9, 69, 0
10, 24601, Note_on_c, 9, 42, 0
10, 24601, Note_on_c, 9, 37, 0
10, 24601, Note_on_c, 9, 70, 0
10, 24660, Note_on_c, 9, 35, 61
10, 24660, Note_on_c, 9, 42, 31
10, 24660, Note_on_c, 9, 70, 13
10, 24661, Note_on_c, 9, 70, 0
10, 24661, Note_on_c, 9, 42, 0
10, 24661, Note_on_c, 9, 35, 0
10, 24720, Note_on_c, 9, 35, 81
10, 24720, Note_on_c, 9, 42, 81
10, 24720, Note_on_c, 9, 70, 51
10, 24721, Note_on_c, 9, 70, 0
10, 24721, Note_on_c, 9, 42, 0
10, 24721, Note_on_c, 9, 35, 0
10, 24780, Note_on_c, 9, 42, 31
10, 24780, Note_on_c, 9, 70, 13
10, 24780, Note_on_c, 9, 69, 51
10, 24781, Note_on_c, 9, 69, 0
10, 24781, Note_on_c, 9, 70, 0
10, 24781, Note_on_c, 9, 42, 0
10, 24840, Note_on_c, 9, 42, 91
10, 24840, Note_on_c, 9, 37, 106
10, 24840, Note_on_c, 9, 70, 51
10, 24840, Note_on_c, 9, 69, 81
10, 24841, Note_on_c, 9, 69, 0
10, 24841, Note_on_c, 9, 42, 0
10, 24841, Note_on_c, 9, 37, 0
10, 24841, Note_on_c, 9, 70, 0
10, 24900, Note_on_c, 9, 35, 66
10, 24900, Note_on_c, 9, 46, 81
10, 24900, Note_on_c, 9, 70, 13
10, 24901, Note_on_c, 9, 70, 0
10, 24901, Note_on_c, 9, 46, 0
10, 24901, Note_on_c, 9, 35, 0
10, 24960, Note_on_c, 9, 35, 81
10, 24960, Note_on_c, 9, 42, 81
10, 24960, Note_on_c, 9, 70, 51
10, 24961, Note_on_c, 9, 70, 0
10, 24961, Note_on_c, 9, 42, 0
10, 24961, Note_on_c, 9, 35, 0
10, 25020, Note_on_c, 9, 42, 31
10, 25020, Note_on_c, 9, 70, 13
10, 25020, Note_on_c, 9, 69, 51
10, 25021, Note_on_c, 9, 69, 0
10, 25021, Note_on_c, 9, 70, 0
10, 25021, Note_on_c, 9, 42, 0
10, 25080, Note_on_c, 9, 42, 61
10, 25080, Note_on_c, 9, 37, 106
10, 25080, Note_on_c, 9, 70, 51
10, 25080, Note_on_c, 9, 69, 81
10, 25081, Note_on_c, 9, 69, 0
10, 25081, Note_on_c, 9, 42, 0
10, 25081, Note_on_c, 9, 37, 0
10, 25081, Note_on_c, 9, 70, 0
10, 25140, Note_on_c, 9, 35, 61
10, 25140, Note_on_c, 9, 42, 31
10, 25140, Note_on_c, 9, 70, 13
10, 25141, Note_on_c, 9, 70, 0
10, 25141, Note_on_c, 9, 42, 0
10, 25141, Note_on_c, 9, 35, 0
10, 25200, Note_on_c, 9, 35, 81
10, 25200, Note_on_c, 9, 42, 81
10, 25200, Note_on_c, 9, 70, 51
10, 25201, Note_on_c, 9, 70, 0
10, 25201, Note_on_c, 9, 42, 0
10, 25201, Note_on_c, 9, 35, 0
10, 25260, Note_on_c, 9, 42, 31
10, 25260, Note_on_c, 9, 70, 13
10, 25260, Note_on_c, 9, 69, 51
10, 25261, Note_on_c, 9, 69, 0
10, 25261, Note_on_c, 9, 70, 0
10, 25261, Note_on_c, 9, 42, 0
10, 25320, Note_on_c, 9, 42, 61
10, 25320, Note_on_c, 9, 37, 106
10, 25320, Note_on_c, 9, 70, 51
10, 25320, Note_on_c, 9, 69, 81
10, 25321, Note_on_c, 9, 69, 0
10, 25321, Note_on_c, 9, 42, 0
10, 25321, Note_on_c, 9, 37, 0
10, 25321, Note_on_c, 9, 70, 0
10, 25380, Note_on_c, 9, 35, 61
10, 25380, Note_on_c, 9, 42, 31
10, 25380, Note_on_c, 9, 70, 13
10, 25381, Note_on_c, 9, 70, 0
10, 25381, Note_on_c, 9, 42, 0
10, 25381, Note_on_c, 9, 35, 0
10, 25440, Note_on_c, 9, 35, 81
10, 25440, Note_on_c, 9, 42, 81
10, 25440, Note_on_c, 9, 70, 51
10, 25441, Note_on_c, 9, 70, 0
10, 25441, Note_on_c, 9, 42, 0
10, 25441, Note_on_c, 9, 35, 0
10, 25500, Note_on_c, 9, 42, 46
10, 25500, Note_on_c, 9, 70, 13
10, 25500, Note_on_c, 9, 69, 51
10, 25501, Note_on_c, 9, 69, 0
10, 25501, Note_on_c, 9, 70, 0
10, 25501, Note_on_c, 9, 42, 0
10, 25560, Note_on_c, 9, 42, 86
10, 25560, Note_on_c, 9, 37, 106
10, 25560, Note_on_c, 9, 70, 51
10, 25560, Note_on_c, 9, 69, 81
10, 25561, Note_on_c, 9, 69, 0
10, 25561, Note_on_c, 9, 42, 0
10, 25561, Note_on_c, 9, 37, 0
10, 25561, Note_on_c, 9, 70, 0
10, 25620, Note_on_c, 9, 35, 61
10, 25620, Note_on_c, 9, 42, 41
10, 25620, Note_on_c, 9, 70, 13
10, 25621, Note_on_c, 9, 70, 0
10, 25621, Note_on_c, 9, 42, 0
10, 25621, Note_on_c, 9, 35, 0
10, 25680, Note_on_c, 9, 35, 81
10, 25680, Note_on_c, 9, 42, 99
10, 25680, Note_on_c, 9, 70, 51
10, 25681, Note_on_c, 9, 70, 0
10, 25681, Note_on_c, 9, 42, 0
10, 25681, Note_on_c, 9, 35, 0
10, 25740, Note_on_c, 9, 42, 81
10, 25740, Note_on_c, 9, 70, 13
10, 25740, Note_on_c, 9, 69, 51
10, 25741, Note_on_c, 9, 69, 0
10, 25741, Note_on_c, 9, 70, 0
10, 25741, Note_on_c, 9, 42, 0
10, 25800, Note_on_c, 9, 42, 91
10, 25800, Note_on_c, 9, 37, 106
10, 25800, Note_on_c, 9, 70, 51
10, 25800, Note_on_c, 9, 69, 81
10, 25801, Note_on_c, 9, 69, 0
10, 25801, Note_on_c, 9, 42, 0
10, 25801, Note_on_c, 9, 37, 0
10, 25801, Note_on_c, 9, 70, 0
10, 25860, Note_on_c, 9, 35, 66
10, 25860, Note_on_c, 9, 46, 81
10, 25860, Note_on_c, 9, 70, 13
10, 25861, Note_on_c, 9, 70, 0
10, 25861, Note_on_c, 9, 46, 0
10, 25861, Note_on_c, 9, 35, 0
10, 25920, Note_on_c, 9, 35, 81
10, 25920, Note_on_c, 9, 42, 81
10, 25920, Note_on_c, 9, 70, 51
10, 25921, Note_on_c, 9, 70, 0
10, 25921, Note_on_c, 9, 42, 0
10, 25921, Note_on_c, 9, 35, 0
10, 25980, Note_on_c, 9, 42, 31
10, 25980, Note_on_c, 9, 70, 13
10, 25980, Note_on_c, 9, 69, 51
10, 25981, Note_on_c, 9, 69, 0
10, 25981, Note_on_c, 9, 70, 0
10, 25981, Note_on_c, 9, 42, 0
10, 26040, Note_on_c, 9, 42, 61
10, 26040, Note_on_c, 9, 37, 106
10, 26040, Note_on_c, 9, 70, 51
10, 26040, Note_on_c, 9, 69, 81
10, 26041, Note_on_c, 9, 69, 0
10, 26041, Note_on_c, 9, 42, 0
10, 26041, Note_on_c, 9, 37, 0
10, 26041, Note_on_c, 9, 70, 0
10, 26100, Note_on_c, 9, 35, 61
10, 26100, Note_on_c, 9, 42, 31
10, 26100, Note_on_c, 9, 70, 13
10, 26101, Note_on_c, 9, 70, 0
10, 26101, Note_on_c, 9, 42, 0
10, 26101, Note_on_c, 9, 35, 0
10, 26160, Note_on_c, 9, 35, 81
10, 26160, Note_on_c, 9, 42, 81
10, 26160, Note_on_c, 9, 70, 51
10, 26161, Note_on_c, 9, 70, 0
10, 26161, Note_on_c, 9, 42, 0
10, 26161, Note_on_c, 9, 35, 0
10, 26220, Note_on_c, 9, 42, 31
10, 26220, Note_on_c, 9, 70, 13
10, 26220, Note_on_c, 9, 69, 51
10, 26221, Note_on_c, 9, 69, 0
10, 26221, Note_on_c, 9, 70, 0
10, 26221, Note_on_c, 9, 42, 0
10, 26280, Note_on_c, 9, 42, 61
10, 26280, Note_on_c, 9, 37, 106
10, 26280, Note_on_c, 9, 70, 51
10, 26280, Note_on_c, 9, 69, 81
10, 26281, Note_on_c, 9, 69, 0
10, 26281, Note_on_c, 9, 42, 0
10, 26281, Note_on_c, 9, 37, 0
10, 26281, Note_on_c, 9, 70, 0
10, 26340, Note_on_c, 9, 35, 61
10, 26340, Note_on_c, 9, 42, 31
10, 26340, Note_on_c, 9, 70, 13
10, 26341, Note_on_c, 9, 70, 0
10, 26341, Note_on_c, 9, 42, 0
10, 26341, Note_on_c, 9, 35, 0
10, 26400, Note_on_c, 9, 35, 81
10, 26400, Note_on_c, 9, 42, 81
10, 26400, Note_on_c, 9, 70, 51
10, 26401, Note_on_c, 9, 70, 0
10, 26401, Note_on_c, 9, 42, 0
10, 26401, Note_on_c, 9, 35, 0
10, 26460, Note_on_c, 9, 42, 46
10, 26460, Note_on_c, 9, 70, 13
10, 26460, Note_on_c, 9, 69, 51
10, 26461, Note_on_c, 9, 69, 0
10, 26461, Note_on_c, 9, 70, 0
10, 26461, Note_on_c, 9, 42, 0
10, 26520, Note_on_c, 9, 42, 86
10, 26520, Note_on_c, 9, 37, 106
10, 26520, Note_on_c, 9, 70, 51
10, 26520, Note_on_c, 9, 69, 81
10, 26521, Note_on_c, 9, 69, 0
10, 26521, Note_on_c, 9, 42, 0
10, 26521, Note_on_c, 9, 37, 0
10, 26521, Note_on_c, 9, 70, 0
10, 26580, Note_on_c, 9, 35, 61
10, 26580, Note_on_c, 9, 42, 41
10, 26580, Note_on_c, 9, 70, 13
10, 26581, Note_on_c, 9, 70, 0
10, 26581, Note_on_c, 9, 42, 0
10, 26581, Note_on_c, 9, 35, 0
10, 26640, Note_on_c, 9, 35, 81
10, 26640, Note_on_c, 9, 42, 71
10, 26640, Note_on_c, 9, 70, 51
10, 26641, Note_on_c, 9, 70, 0
10, 26641, Note_on_c, 9, 42, 0
10, 26641, Note_on_c, 9, 35, 0
10, 26700, Note_on_c, 9, 42, 81
10, 26700, Note_on_c, 9, 70, 13
10, 26700, Note_on_c, 9, 69, 51
10, 26701, Note_on_c, 9, 69, 0
10, 26701, Note_on_c, 9, 70, 0
10, 26701, Note_on_c, 9, 42, 0
10, 26760, Note_on_c, 9, 42, 91
10, 26760, Note_on_c, 9, 37, 106
10, 26760, Note_on_c, 9, 70, 51
10, 26760, Note_on_c, 9, 69, 81
10, 26761, Note_on_c, 9, 69, 0
10, 26761, Note_on_c, 9, 42, 0
10, 26761, Note_on_c, 9, 37, 0
10, 26761, Note_on_c, 9, 70, 0
10, 26820, Note_on_c, 9, 35, 66
10, 26820, Note_on_c, 9, 46, 81
10, 26820, Note_on_c, 9, 70, 13
10, 26821, Note_on_c, 9, 70, 0
10, 26821, Note_on_c, 9, 46, 0
10, 26821, Note_on_c, 9, 35, 0
10, 26880, Note_on_c, 9, 35, 81
10, 26880, Note_on_c, 9, 42, 81
10, 26880, Note_on_c, 9, 70, 51
10, 26881, Note_on_c, 9, 70, 0
10, 26881, Note_on_c, 9, 42, 0
10, 26881, Note_on_c, 9, 35, 0
10, 26940, Note_on_c, 9, 42, 31
10, 26940, Note_on_c, 9, 70, 13
10, 26940, Note_on_c, 9, 69, 51
10, 26941, Note_on_c, 9, 69, 0
10, 26941, Note_on_c, 9, 70, 0
10, 26941, Note_on_c, 9, 42, 0
10, 27000, Note_on_c, 9, 42, 61
10, 27000, Note_on_c, 9, 37, 106
10, 27000, Note_on_c, 9, 70, 51
10, 27000, Note_on_c, 9, 69, 81
10, 27001, Note_on_c, 9, 69, 0
10, 27001, Note_on_c, 9, 42, 0
10, 27001, Note_on_c, 9, 37, 0
10, 27001, Note_on_c, 9, 70, 0
10, 27060, Note_on_c, 9, 35, 61
10, 27060, Note_on_c, 9, 42, 31
10, 27060, Note_on_c, 9, 70, 13
10, 27061, Note_on_c, 9, 70, 0
10, 27061, Note_on_c, 9, 42, 0
10, 27061, Note_on_c, 9, 35, 0
10, 27120, Note_on_c, 9, 35, 81
10, 27120, Note_on_c, 9, 42, 81
10, 27120, Note_on_c, 9, 70, 51
10, 27121, Note_on_c, 9, 70, 0
10, 27121, Note_on_c, 9, 42, 0
10, 27121, Note_on_c, 9, 35, 0
10, 27180, Note_on_c, 9, 42, 31
10, 27180, Note_on_c, 9, 70, 13
10, 27180, Note_on_c, 9, 69, 51
10, 27181, Note_on_c, 9, 69, 0
10, 27181, Note_on_c, 9, 70, 0
10, 27181, Note_on_c, 9, 42, 0
10, 27240, Note_on_c, 9, 42, 61
10, 27240, Note_on_c, 9, 37, 106
10, 27240, Note_on_c, 9, 70, 51
10, 27240, Note_on_c, 9, 69, 81
10, 27241, Note_on_c, 9, 69, 0
10, 27241, Note_on_c, 9, 42, 0
10, 27241, Note_on_c, 9, 37, 0
10, 27241, Note_on_c, 9, 70, 0
10, 27300, Note_on_c, 9, 35, 61
10, 27300, Note_on_c, 9, 42, 31
10, 27300, Note_on_c, 9, 70, 13
10, 27301, Note_on_c, 9, 70, 0
10, 27301, Note_on_c, 9, 42, 0
10, 27301, Note_on_c, 9, 35, 0
10, 27360, Note_on_c, 9, 35, 81
10, 27360, Note_on_c, 9, 42, 81
10, 27360, Note_on_c, 9, 70, 51
10, 27361, Note_on_c, 9, 70, 0
10, 27361, Note_on_c, 9, 42, 0
10, 27361, Note_on_c, 9, 35, 0
10, 27420, Note_on_c, 9, 42, 31
10, 27420, Note_on_c, 9, 70, 13
10, 27420, Note_on_c, 9, 69, 51
10, 27421, Note_on_c, 9, 69, 0
10, 27421, Note_on_c, 9, 70, 0
10, 27421, Note_on_c, 9, 42, 0
10, 27480, Note_on_c, 9, 42, 91
10, 27480, Note_on_c, 9, 37, 106
10, 27480, Note_on_c, 9, 70, 51
10, 27480, Note_on_c, 9, 69, 81
10, 27481, Note_on_c, 9, 69, 0
10, 27481, Note_on_c, 9, 42, 0
10, 27481, Note_on_c, 9, 37, 0
10, 27481, Note_on_c, 9, 70, 0
10, 27540, Note_on_c, 9, 35, 61
10, 27540, Note_on_c, 9, 42, 31
10, 27540, Note_on_c, 9, 70, 13
10, 27541, Note_on_c, 9, 70, 0
10, 27541, Note_on_c, 9, 42, 0
10, 27541, Note_on_c, 9, 35, 0
10, 27600, Note_on_c, 9, 35, 81
10, 27600, Note_on_c, 9, 42, 81
10, 27600, Note_on_c, 9, 70, 51
10, 27601, Note_on_c, 9, 70, 0
10, 27601, Note_on_c, 9, 42, 0
10, 27601, Note_on_c, 9, 35, 0
10, 27660, Note_on_c, 9, 42, 31
10, 27660, Note_on_c, 9, 70, 13
10, 27660, Note_on_c, 9, 69, 51
10, 27661, Note_on_c, 9, 69, 0
10, 27661, Note_on_c, 9, 70, 0
10, 27661, Note_on_c, 9, 42, 0
10, 27720, Note_on_c, 9, 42, 91
10, 27720, Note_on_c, 9, 37, 106
10, 27720, Note_on_c, 9, 70, 51
10, 27720, Note_on_c, 9, 69, 81
10, 27721, Note_on_c, 9, 69, 0
10, 27721, Note_on_c, 9, 42, 0
10, 27721, Note_on_c, 9, 37, 0
10, 27721, Note_on_c, 9, 70, 0
10, 27780, Note_on_c, 9, 35, 66
10, 27780, Note_on_c, 9, 46, 81
10, 27780, Note_on_c, 9, 70, 13
10, 27781, Note_on_c, 9, 70, 0
10, 27781, Note_on_c, 9, 46, 0
10, 27781, Note_on_c, 9, 35, 0
10, 27840, Note_on_c, 9, 35, 81
10, 27840, Note_on_c, 9, 42, 81
10, 27840, Note_on_c, 9, 70, 51
10, 27841, Note_on_c, 9, 70, 0
10, 27841, Note_on_c, 9, 42, 0
10, 27841, Note_on_c, 9, 35, 0
10, 27900, Note_on_c, 9, 42, 31
10, 27900, Note_on_c, 9, 70, 13
10, 27900, Note_on_c, 9, 69, 51
10, 27901, Note_on_c, 9, 69, 0
10, 27901, Note_on_c, 9, 70, 0
10, 27901, Note_on_c, 9, 42, 0
10, 27960, Note_on_c, 9, 42, 61
10, 27960, Note_on_c, 9, 37, 106
10, 27960, Note_on_c, 9, 70, 51
10, 27960, Note_on_c, 9, 69, 81
10, 27961, Note_on_c, 9, 69, 0
10, 27961, Note_on_c, 9, 42, 0
10, 27961, Note_on_c, 9, 37, 0
10, 27961, Note_on_c, 9, 70, 0
10, 28020, Note_on_c, 9, 35, 61
10, 28020, Note_on_c, 9, 42, 31
10, 28020, Note_on_c, 9, 70, 13
10, 28021, Note_on_c, 9, 70, 0
10, 28021, Note_on_c, 9, 42, 0
10, 28021, Note_on_c, 9, 35, 0
10, 28080, Note_on_c, 9, 35, 81
10, 28080, Note_on_c, 9, 42, 81
10, 28080, Note_on_c, 9, 70, 51
10, 28081, Note_on_c, 9, 70, 0
10, 28081, Note_on_c, 9, 42, 0
10, 28081, Note_on_c, 9, 35, 0
10, 28140, Note_on_c, 9, 42, 31
10, 28140, Note_on_c, 9, 70, 13
10, 28140, Note_on_c, 9, 69, 51
10, 28141, Note_on_c, 9, 69, 0
10, 28141, Note_on_c, 9, 70, 0
10, 28141, Note_on_c, 9, 42, 0
10, 28200, Note_on_c, 9, 42, 61
10, 28200, Note_on_c, 9, 37, 106
10, 28200, Note_on_c, 9, 70, 51
10, 28200, Note_on_c, 9, 69, 81
10, 28201, Note_on_c, 9, 69, 0
10, 28201, Note_on_c, 9, 42, 0
10, 28201, Note_on_c, 9, 37, 0
10, 28201, Note_on_c, 9, 70, 0
10, 28260, Note_on_c, 9, 35, 61
10, 28260, Note_on_c, 9, 42, 31
10, 28260, Note_on_c, 9, 70, 13
10, 28261, Note_on_c, 9, 70, 0
10, 28261, Note_on_c, 9, 42, 0
10, 28261, Note_on_c, 9, 35, 0
10, 28320, Note_on_c, 9, 35, 81
10, 28320, Note_on_c, 9, 42, 81
10, 28320, Note_on_c, 9, 70, 51
10, 28321, Note_on_c, 9, 70, 0
10, 28321, Note_on_c, 9, 42, 0
10, 28321, Note_on_c, 9, 35, 0
10, 28380, Note_on_c, 9, 42, 31
10, 28380, Note_on_c, 9, 70, 13
10, 28380, Note_on_c, 9, 69, 51
10, 28381, Note_on_c, 9, 69, 0
10, 28381, Note_on_c, 9, 70, 0
10, 28381, Note_on_c, 9, 42, 0
10, 28440, Note_on_c, 9, 42, 91
10, 28440, Note_on_c, 9, 37, 106
10, 28440, Note_on_c, 9, 70, 51
10, 28440, Note_on_c, 9, 69, 81
10, 28441, Note_on_c, 9, 69, 0
10, 28441, Note_on_c, 9, 42, 0
10, 28441, Note_on_c, 9, 37, 0
10, 28441, Note_on_c, 9, 70, 0
10, 28500, Note_on_c, 9, 35, 61
10, 28500, Note_on_c, 9, 42, 31
10, 28500, Note_on_c, 9, 70, 13
10, 28501, Note_on_c, 9, 70, 0
10, 28501, Note_on_c, 9, 42, 0
10, 28501, Note_on_c, 9, 35, 0
10, 28560, Note_on_c, 9, 35, 81
10, 28560, Note_on_c, 9, 42, 81
10, 28560, Note_on_c, 9, 70, 51
10, 28561, Note_on_c, 9, 70, 0
10, 28561, Note_on_c, 9, 42, 0
10, 28561, Note_on_c, 9, 35, 0
10, 28620, Note_on_c, 9, 42, 31
10, 28620, Note_on_c, 9, 70, 13
10, 28620, Note_on_c, 9, 69, 51
10, 28621, Note_on_c, 9, 69, 0
10, 28621, Note_on_c, 9, 70, 0
10, 28621, Note_on_c, 9, 42, 0
10, 28680, Note_on_c, 9, 42, 91
10, 28680, Note_on_c, 9, 37, 106
10, 28680, Note_on_c, 9, 70, 51
10, 28680, Note_on_c, 9, 69, 81
10, 28681, Note_on_c, 9, 69, 0
10, 28681, Note_on_c, 9, 42, 0
10, 28681, Note_on_c, 9, 37, 0
10, 28681, Note_on_c, 9, 70, 0
10, 28740, Note_on_c, 9, 35, 66
10, 28740, Note_on_c, 9, 46, 81
10, 28740, Note_on_c, 9, 70, 13
10, 28741, Note_on_c, 9, 70, 0
10, 28741, Note_on_c, 9, 46, 0
10, 28741, Note_on_c, 9, 35, 0
10, 28800, Note_on_c, 9, 35, 81
10, 28800, Note_on_c, 9, 42, 81
10, 28800, Note_on_c, 9, 70, 51
10, 28801, Note_on_c, 9, 70, 0
10, 28801, Note_on_c, 9, 42, 0
10, 28801, Note_on_c, 9, 35, 0
10, 28860, Note_on_c, 9, 42, 31
10, 28860, Note_on_c, 9, 70, 13
10, 28860, Note_on_c, 9, 69, 51
10, 28861, Note_on_c, 9, 69, 0
10, 28861, Note_on_c, 9, 70, 0
10, 28861, Note_on_c, 9, 42, 0
10, 28920, Note_on_c, 9, 42, 61
10, 28920, Note_on_c, 9, 37, 106
10, 28920, Note_on_c, 9, 70, 51
10, 28920, Note_on_c, 9, 69, 81
10, 28921, Note_on_c, 9, 69, 0
10, 28921, Note_on_c, 9, 42, 0
10, 28921, Note_on_c, 9, 37, 0
10, 28921, Note_on_c, 9, 70, 0
10, 28980, Note_on_c, 9, 35, 61
10, 28980, Note_on_c, 9, 42, 31
10, 28980, Note_on_c, 9, 70, 13
10, 28981, Note_on_c, 9, 70, 0
10, 28981, Note_on_c, 9, 42, 0
10, 28981, Note_on_c, 9, 35, 0
10, 29040, Note_on_c, 9, 35, 81
10, 29040, Note_on_c, 9, 42, 81
10, 29040, Note_on_c, 9, 70, 51
10, 29041, Note_on_c, 9, 70, 0
10, 29041, Note_on_c, 9, 42, 0
10, 29041, Note_on_c, 9, 35, 0
10, 29100, Note_on_c, 9, 42, 31
10, 29100, Note_on_c, 9, 70, 13
10, 29100, Note_on_c, 9, 69, 51
10, 29101, Note_on_c, 9, 69, 0
10, 29101, Note_on_c, 9, 70, 0
10, 29101, Note_on_c, 9, 42, 0
10, 29160, Note_on_c, 9, 42, 61
10, 29160, Note_on_c, 9, 37, 106
10, 29160, Note_on_c, 9, 70, 51
10, 29160, Note_on_c, 9, 69, 81
10, 29161, Note_on_c, 9, 69, 0
10, 29161, Note_on_c, 9, 42, 0
10, 29161, Note_on_c, 9, 37, 0
10, 29161, Note_on_c, 9, 70, 0
10, 29220, Note_on_c, 9, 35, 61
10, 29220, Note_on_c, 9, 42, 31
10, 29220, Note_on_c, 9, 70, 13
10, 29221, Note_on_c, 9, 70, 0
10, 29221, Note_on_c, 9, 42, 0
10, 29221, Note_on_c, 9, 35, 0
10, 29280, Note_on_c, 9, 35, 81
10, 29280, Note_on_c, 9, 42, 81
10, 29280, Note_on_c, 9, 70, 51
10, 29281, Note_on_c, 9, 70, 0
10, 29281, Note_on_c, 9, 42, 0
10, 29281, Note_on_c, 9, 35, 0
10, 29340, Note_on_c, 9, 42, 35
10, 29340, Note_on_c, 9, 70, 13
10, 29340, Note_on_c, 9, 69, 51
10, 29341, Note_on_c, 9, 69, 0
10, 29341, Note_on_c, 9, 70, 0
10, 29341, Note_on_c, 9, 42, 0
10, 29400, Note_on_c, 9, 42, 91
10, 29400, Note_on_c, 9, 37, 106
10, 29400, Note_on_c, 9, 70, 51
10, 29400, Note_on_c, 9, 69, 81
10, 29401, Note_on_c, 9, 69, 0
10, 29401, Note_on_c, 9, 42, 0
10, 29401, Note_on_c, 9, 37, 0
10, 29401, Note_on_c, 9, 70, 0
10, 29460, Note_on_c, 9, 35, 61
10, 29460, Note_on_c, 9, 42, 46
10, 29460, Note_on_c, 9, 70, 13
10, 29461, Note_on_c, 9, 70, 0
10, 29461, Note_on_c, 9, 42, 0
10, 29461, Note_on_c, 9, 35, 0
10, 29520, Note_on_c, 9, 35, 81
10, 29520, Note_on_c, 9, 42, 81
10, 29520, Note_on_c, 9, 70, 51
10, 29521, Note_on_c, 9, 70, 0
10, 29521, Note_on_c, 9, 42, 0
10, 29521, Note_on_c, 9, 35, 0
10, 29580, Note_on_c, 9, 42, 35
10, 29580, Note_on_c, 9, 70, 13
10, 29580, Note_on_c, 9, 69, 51
10, 29581, Note_on_c, 9, 69, 0
10, 29581, Note_on_c, 9, 70, 0
10, 29581, Note_on_c, 9, 42, 0
10, 29640, Note_on_c, 9, 42, 81
10, 29640, Note_on_c, 9, 37, 106
10, 29640, Note_on_c, 9, 70, 51
10, 29640, Note_on_c, 9, 69, 81
10, 29641, Note_on_c, 9, 69, 0
10, 29641, Note_on_c, 9, 42, 0
10, 29641, Note_on_c, 9, 37, 0
10, 29641, Note_on_c, 9, 70, 0
10, 29700, Note_on_c, 9, 35, 66
10, 29700, Note_on_c, 9, 42, 51
10, 29700, Note_on_c, 9, 70, 13
10, 29701, Note_on_c, 9, 70, 0
10, 29701, Note_on_c, 9, 42, 0
10, 29701, Note_on_c, 9, 35, 0
10, 29760, Note_on_c, 9, 35, 81
10, 29760, Note_on_c, 9, 42, 81
10, 29760, Note_on_c, 9, 70, 51
10, 29761, Note_on_c, 9, 70, 0
10, 29761, Note_on_c, 9, 42, 0
10, 29761, Note_on_c, 9, 35, 0
10, 29820, Note_on_c, 9, 46, 45
10, 29820, Note_on_c, 9, 70, 13
10, 29820, Note_on_c, 9, 69, 51
10, 29821, Note_on_c, 9, 69, 0
10, 29821, Note_on_c, 9, 70, 0
10, 29821, Note_on_c, 9, 46, 0
10, 29880, Note_on_c, 9, 42, 71
10, 29880, Note_on_c, 9, 37, 106
10, 29880, Note_on_c, 9, 70, 51
10, 29880, Note_on_c, 9, 69, 81
10, 29881, Note_on_c, 9, 69, 0
10, 29881, Note_on_c, 9, 42, 0
10, 29881, Note_on_c, 9, 37, 0
10, 29881, Note_on_c, 9, 70, 0
10, 29940, Note_on_c, 9, 35, 61
10, 29940, Note_on_c, 9, 42, 31
10, 29940, Note_on_c, 9, 70, 13
10, 29941, Note_on_c, 9, 70, 0
10, 29941, Note_on_c, 9, 42, 0
10, 29941, Note_on_c, 9, 35, 0
10, 30000, Note_on_c, 9, 35, 81
10, 30000, Note_on_c, 9, 42, 81
10, 30000, Note_on_c, 9, 70, 51
10, 30001, Note_on_c, 9, 70, 0
10, 30001, Note_on_c, 9, 42, 0
10, 30001, Note_on_c, 9, 35, 0
10, 30060, Note_on_c, 9, 42, 31
10, 30060, Note_on_c, 9, 70, 13
10, 30060, Note_on_c, 9, 69, 51
10, 30061, Note_on_c, 9, 69, 0
10, 30061, Note_on_c, 9, 70, 0
10, 30061, Note_on_c, 9, 42, 0
10, 30120, Note_on_c, 9, 42, 71
10, 30120, Note_on_c, 9, 37, 106
10, 30120, Note_on_c, 9, 70, 51
10, 30120, Note_on_c, 9, 69, 81
10, 30121, Note_on_c, 9, 69, 0
10, 30121, Note_on_c, 9, 42, 0
10, 30121, Note_on_c, 9, 37, 0
10, 30121, Note_on_c, 9, 70, 0
10, 30180, Note_on_c, 9, 35, 61
10, 30180, Note_on_c, 9, 42, 31
10, 30180, Note_on_c, 9, 70, 13
10, 30181, Note_on_c, 9, 70, 0
10, 30181, Note_on_c, 9, 42, 0
10, 30181, Note_on_c, 9, 35, 0
10, 30240, Note_on_c, 9, 35, 81
10, 30240, Note_on_c, 9, 42, 81
10, 30240, Note_on_c, 9, 70, 51
10, 30241, Note_on_c, 9, 70, 0
10, 30241, Note_on_c, 9, 42, 0
10, 30241, Note_on_c, 9, 35, 0
10, 30300, Note_on_c, 9, 42, 46
10, 30300, Note_on_c, 9, 70, 13
10, 30300, Note_on_c, 9, 69, 51
10, 30301, Note_on_c, 9, 69, 0
10, 30301, Note_on_c, 9, 70, 0
10, 30301, Note_on_c, 9, 42, 0
10, 30360, Note_on_c, 9, 42, 86
10, 30360, Note_on_c, 9, 37, 106
10, 30360, Note_on_c, 9, 70, 51
10, 30360, Note_on_c, 9, 69, 81
10, 30361, Note_on_c, 9, 69, 0
10, 30361, Note_on_c, 9, 42, 0
10, 30361, Note_on_c, 9, 37, 0
10, 30361, Note_on_c, 9, 70, 0
10, 30420, Note_on_c, 9, 35, 61
10, 30420, Note_on_c, 9, 42, 63
10, 30420, Note_on_c, 9, 70, 13
10, 30421, Note_on_c, 9, 70, 0
10, 30421, Note_on_c, 9, 42, 0
10, 30421, Note_on_c, 9, 35, 0
10, 30480, Note_on_c, 9, 35, 81
10, 30480, Note_on_c, 9, 42, 99
10, 30480, Note_on_c, 9, 70, 51
10, 30481, Note_on_c, 9, 70, 0
10, 30481, Note_on_c, 9, 42, 0
10, 30481, Note_on_c, 9, 35, 0
10, 30540, Note_on_c, 9, 42, 81
10, 30540, Note_on_c, 9, 70, 13
10, 30540, Note_on_c, 9, 69, 51
10, 30541, Note_on_c, 9, 69, 0
10, 30541, Note_on_c, 9, 70, 0
10, 30541, Note_on_c, 9, 42, 0
10, 30600, Note_on_c, 9, 42, 91
10, 30600, Note_on_c, 9, 37, 106
10, 30600, Note_on_c, 9, 70, 51
10, 30600, Note_on_c, 9, 69, 81
10, 30601, Note_on_c, 9, 69, 0
10, 30601, Note_on_c, 9, 42, 0
10, 30601, Note_on_c, 9, 37, 0
10, 30601, Note_on_c, 9, 70, 0
10, 30660, Note_on_c, 9, 35, 66
10, 30660, Note_on_c, 9, 46, 81
10, 30660, Note_on_c, 9, 70, 13
10, 30661, Note_on_c, 9, 70, 0
10, 30661, Note_on_c, 9, 46, 0
10, 30661, Note_on_c, 9, 35, 0
10, 30720, Note_on_c, 9, 35, 81
10, 30720, Note_on_c, 9, 42, 81
10, 30720, Note_on_c, 9, 70, 51
10, 30721, Note_on_c, 9, 70, 0
10, 30721, Note_on_c, 9, 42, 0
10, 30721, Note_on_c, 9, 35, 0
10, 30780, Note_on_c, 9, 42, 31
10, 30780, Note_on_c, 9, 70, 13
10, 30780, Note_on_c, 9, 69, 51
10, 30781, Note_on_c, 9, 69, 0
10, 30781, Note_on_c, 9, 70, 0
10, 30781, Note_on_c, 9, 42, 0
10, 30840, Note_on_c, 9, 42, 61
10, 30840, Note_on_c, 9, 37, 106
10, 30840, Note_on_c, 9, 70, 51
10, 30840, Note_on_c, 9, 69, 81
10, 30841, Note_on_c, 9, 69, 0
10, 30841, Note_on_c, 9, 42, 0
10, 30841, Note_on_c, 9, 37, 0
10, 30841, Note_on_c, 9, 70, 0
10, 30900, Note_on_c, 9, 35, 61
10, 30900, Note_on_c, 9, 42, 31
10, 30900, Note_on_c, 9, 70, 13
10, 30901, Note_on_c, 9, 70, 0
10, 30901, Note_on_c, 9, 42, 0
10, 30901, Note_on_c, 9, 35, 0
10, 30960, Note_on_c, 9, 35, 81
10, 30960, Note_on_c, 9, 42, 81
10, 30960, Note_on_c, 9, 70, 51
10, 30961, Note_on_c, 9, 70, 0
10, 30961, Note_on_c, 9, 42, 0
10, 30961, Note_on_c, 9, 35, 0
10, 31020, Note_on_c, 9, 42, 31
10, 31020, Note_on_c, 9, 70, 13
10, 31020, Note_on_c, 9, 69, 51
10, 31021, Note_on_c, 9, 69, 0
10, 31021, Note_on_c, 9, 70, 0
10, 31021, Note_on_c, 9, 42, 0
10, 31080, Note_on_c, 9, 42, 61
10, 31080, Note_on_c, 9, 37, 106
10, 31080, Note_on_c, 9, 70, 51
10, 31080, Note_on_c, 9, 69, 81
10, 31081, Note_on_c, 9, 69, 0
10, 31081, Note_on_c, 9, 42, 0
10, 31081, Note_on_c, 9, 37, 0
10, 31081, Note_on_c, 9, 70, 0
10, 31140, Note_on_c, 9, 35, 61
10, 31140, Note_on_c, 9, 42, 31
10, 31140, Note_on_c, 9, 70, 13
10, 31141, Note_on_c, 9, 70, 0
10, 31141, Note_on_c, 9, 42, 0
10, 31141, Note_on_c, 9, 35, 0
10, 31200, Note_on_c, 9, 35, 81
10, 31200, Note_on_c, 9, 42, 81
10, 31200, Note_on_c, 9, 70, 51
10, 31201, Note_on_c, 9, 70, 0
10, 31201, Note_on_c, 9, 42, 0
10, 31201, Note_on_c, 9, 35, 0
10, 31260, Note_on_c, 9, 42, 31
10, 31260, Note_on_c, 9, 70, 13
10, 31260, Note_on_c, 9, 69, 51
10, 31261, Note_on_c, 9, 69, 0
10, 31261, Note_on_c, 9, 70, 0
10, 31261, Note_on_c, 9, 42, 0
10, 31320, Note_on_c, 9, 42, 91
10, 31320, Note_on_c, 9, 37, 106
10, 31320, Note_on_c, 9, 70, 51
10, 31320, Note_on_c, 9, 69, 81
10, 31321, Note_on_c, 9, 69, 0
10, 31321, Note_on_c, 9, 42, 0
10, 31321, Note_on_c, 9, 37, 0
10, 31321, Note_on_c, 9, 70, 0
10, 31380, Note_on_c, 9, 35, 61
10, 31380, Note_on_c, 9, 42, 31
10, 31380, Note_on_c, 9, 70, 13
10, 31381, Note_on_c, 9, 70, 0
10, 31381, Note_on_c, 9, 42, 0
10, 31381, Note_on_c, 9, 35, 0
10, 31440, Note_on_c, 9, 35, 81
10, 31440, Note_on_c, 9, 42, 81
10, 31440, Note_on_c, 9, 70, 51
10, 31441, Note_on_c, 9, 70, 0
10, 31441, Note_on_c, 9, 42, 0
10, 31441, Note_on_c, 9, 35, 0
10, 31500, Note_on_c, 9, 42, 31
10, 31500, Note_on_c, 9, 70, 13
10, 31500, Note_on_c, 9, 69, 51
10, 31501, Note_on_c, 9, 69, 0
10, 31501, Note_on_c, 9, 70, 0
10, 31501, Note_on_c, 9, 42, 0
10, 31560, Note_on_c, 9, 42, 91
10, 31560, Note_on_c, 9, 37, 106
10, 31560, Note_on_c, 9, 70, 51
10, 31560, Note_on_c, 9, 69, 81
10, 31561, Note_on_c, 9, 69, 0
10, 31561, Note_on_c, 9, 42, 0
10, 31561, Note_on_c, 9, 37, 0
10, 31561, Note_on_c, 9, 70, 0
10, 31620, Note_on_c, 9, 35, 66
10, 31620, Note_on_c, 9, 46, 81
10, 31620, Note_on_c, 9, 70, 13
10, 31621, Note_on_c, 9, 70, 0
10, 31621, Note_on_c, 9, 46, 0
10, 31621, Note_on_c, 9, 35, 0
10, 31680, Note_on_c, 9, 35, 81
10, 31680, Note_on_c, 9, 42, 81
10, 31680, Note_on_c, 9, 70, 51
10, 31681, Note_on_c, 9, 70, 0
10, 31681, Note_on_c, 9, 42, 0
10, 31681, Note_on_c, 9, 35, 0
10, 31740, Note_on_c, 9, 42, 31
10, 31740, Note_on_c, 9, 70, 13
10, 31740, Note_on_c, 9, 69, 51
10, 31741, Note_on_c, 9, 69, 0
10, 31741, Note_on_c, 9, 70, 0
10, 31741, Note_on_c, 9, 42, 0
10, 31800, Note_on_c, 9, 42, 71
10, 31800, Note_on_c, 9, 37, 106
10, 31800, Note_on_c, 9, 70, 51
10, 31800, Note_on_c, 9, 69, 81
10, 31801, Note_on_c, 9, 69, 0
10, 31801, Note_on_c, 9, 42, 0
10, 31801, Note_on_c, 9, 37, 0
10, 31801, Note_on_c, 9, 70, 0
10, 31860, Note_on_c, 9, 35, 61
10, 31860, Note_on_c, 9, 42, 31
10, 31860, Note_on_c, 9, 70, 13
10, 31861, Note_on_c, 9, 70, 0
10, 31861, Note_on_c, 9, 42, 0
10, 31861, Note_on_c, 9, 35, 0
10, 31920, Note_on_c, 9, 35, 81
10, 31920, Note_on_c, 9, 42, 81
10, 31920, Note_on_c, 9, 70, 51
10, 31921, Note_on_c, 9, 70, 0
10, 31921, Note_on_c, 9, 42, 0
10, 31921, Note_on_c, 9, 35, 0
10, 31980, Note_on_c, 9, 42, 31
10, 31980, Note_on_c, 9, 70, 13
10, 31980, Note_on_c, 9, 69, 51
10, 31981, Note_on_c, 9, 69, 0
10, 31981, Note_on_c, 9, 70, 0
10, 31981, Note_on_c, 9, 42, 0
10, 32040, Note_on_c, 9, 42, 71
10, 32040, Note_on_c, 9, 37, 106
10, 32040, Note_on_c, 9, 70, 51
10, 32040, Note_on_c, 9, 69, 81
10, 32041, Note_on_c, 9, 69, 0
10, 32041, Note_on_c, 9, 42, 0
10, 32041, Note_on_c, 9, 37, 0
10, 32041, Note_on_c, 9, 70, 0
10, 32100, Note_on_c, 9, 35, 61
10, 32100, Note_on_c, 9, 42, 31
10, 32100, Note_on_c, 9, 70, 13
10, 32101, Note_on_c, 9, 70, 0
10, 32101, Note_on_c, 9, 42, 0
10, 32101, Note_on_c, 9, 35, 0
10, 32160, Note_on_c, 9, 35, 81
10, 32160, Note_on_c, 9, 42, 81
10, 32160, Note_on_c, 9, 70, 51
10, 32161, Note_on_c, 9, 70, 0
10, 32161, Note_on_c, 9, 42, 0
10, 32161, Note_on_c, 9, 35, 0
10, 32220, Note_on_c, 9, 42, 31
10, 32220, Note_on_c, 9, 70, 13
10, 32220, Note_on_c, 9, 69, 51
10, 32221, Note_on_c, 9, 69, 0
10, 32221, Note_on_c, 9, 70, 0
10, 32221, Note_on_c, 9, 42, 0
10, 32280, Note_on_c, 9, 42, 91
10, 32280, Note_on_c, 9, 37, 106
10, 32280, Note_on_c, 9, 70, 51
10, 32280, Note_on_c, 9, 69, 81
10, 32281, Note_on_c, 9, 69, 0
10, 32281, Note_on_c, 9, 42, 0
10, 32281, Note_on_c, 9, 37, 0
10, 32281, Note_on_c, 9, 70, 0
10, 32340, Note_on_c, 9, 35, 61
10, 32340, Note_on_c, 9, 42, 31
10, 32340, Note_on_c, 9, 70, 13
10, 32341, Note_on_c, 9, 70, 0
10, 32341, Note_on_c, 9, 42, 0
10, 32341, Note_on_c, 9, 35, 0
10, 32400, Note_on_c, 9, 35, 81
10, 32400, Note_on_c, 9, 42, 81
10, 32400, Note_on_c, 9, 70, 51
10, 32401, Note_on_c, 9, 70, 0
10, 32401, Note_on_c, 9, 42, 0
10, 32401, Note_on_c, 9, 35, 0
10, 32460, Note_on_c, 9, 42, 31
10, 32460, Note_on_c, 9, 70, 13
10, 32460, Note_on_c, 9, 69, 51
10, 32461, Note_on_c, 9, 69, 0
10, 32461, Note_on_c, 9, 70, 0
10, 32461, Note_on_c, 9, 42, 0
10, 32520, Note_on_c, 9, 42, 91
10, 32520, Note_on_c, 9, 37, 106
10, 32520, Note_on_c, 9, 70, 51
10, 32520, Note_on_c, 9, 69, 81
10, 32521, Note_on_c, 9, 69, 0
10, 32521, Note_on_c, 9, 42, 0
10, 32521, Note_on_c, 9, 37, 0
10, 32521, Note_on_c, 9, 70, 0
10, 32580, Note_on_c, 9, 35, 66
10, 32580, Note_on_c, 9, 46, 81
10, 32580, Note_on_c, 9, 70, 13
10, 32581, Note_on_c, 9, 70, 0
10, 32581, Note_on_c, 9, 46, 0
10, 32581, Note_on_c, 9, 35, 0
10, 32640, Note_on_c, 9, 35, 81
10, 32640, Note_on_c, 9, 42, 81
10, 32640, Note_on_c, 9, 70, 51
10, 32641, Note_on_c, 9, 70, 0
10, 32641, Note_on_c, 9, 42, 0
10, 32641, Note_on_c, 9, 35, 0
10, 32700, Note_on_c, 9, 42, 31
10, 32700, Note_on_c, 9, 70, 13
10, 32700, Note_on_c, 9, 69, 51
10, 32701, Note_on_c, 9, 69, 0
10, 32701, Note_on_c, 9, 70, 0
10, 32701, Note_on_c, 9, 42, 0
10, 32760, Note_on_c, 9, 42, 61
10, 32760, Note_on_c, 9, 37, 106
10, 32760, Note_on_c, 9, 70, 51
10, 32760, Note_on_c, 9, 69, 81
10, 32761, Note_on_c, 9, 69, 0
10, 32761, Note_on_c, 9, 42, 0
10, 32761, Note_on_c, 9, 37, 0
10, 32761, Note_on_c, 9, 70, 0
10, 32820, Note_on_c, 9, 35, 61
10, 32820, Note_on_c, 9, 42, 31
10, 32820, Note_on_c, 9, 70, 13
10, 32821, Note_on_c, 9, 70, 0
10, 32821, Note_on_c, 9, 42, 0
10, 32821, Note_on_c, 9, 35, 0
10, 32880, Note_on_c, 9, 35, 81
10, 32880, Note_on_c, 9, 42, 81
10, 32880, Note_on_c, 9, 70, 51
10, 32881, Note_on_c, 9, 70, 0
10, 32881, Note_on_c, 9, 42, 0
10, 32881, Note_on_c, 9, 35, 0
10, 32940, Note_on_c, 9, 42, 31
10, 32940, Note_on_c, 9, 70, 13
10, 32940, Note_on_c, 9, 69, 51
10, 32941, Note_on_c, 9, 69, 0
10, 32941, Note_on_c, 9, 70, 0
10, 32941, Note_on_c, 9, 42, 0
10, 33000, Note_on_c, 9, 42, 61
10, 33000, Note_on_c, 9, 37, 106
10, 33000, Note_on_c, 9, 70, 51
10, 33000, Note_on_c, 9, 69, 81
10, 33001, Note_on_c, 9, 69, 0
10, 33001, Note_on_c, 9, 42, 0
10, 33001, Note_on_c, 9, 37, 0
10, 33001, Note_on_c, 9, 70, 0
10, 33060, Note_on_c, 9, 35, 61
10, 33060, Note_on_c, 9, 42, 31
10, 33060, Note_on_c, 9, 70, 13
10, 33061, Note_on_c, 9, 70, 0
10, 33061, Note_on_c, 9, 42, 0
10, 33061, Note_on_c, 9, 35, 0
10, 33120, Note_on_c, 9, 35, 81
10, 33120, Note_on_c, 9, 42, 81
10, 33120, Note_on_c, 9, 70, 51
10, 33121, Note_on_c, 9, 70, 0
10, 33121, Note_on_c, 9, 42, 0
10, 33121, Note_on_c, 9, 35, 0
10, 33180, Note_on_c, 9, 42, 46
10, 33180, Note_on_c, 9, 70, 13
10, 33180, Note_on_c, 9, 69, 51
10, 33181, Note_on_c, 9, 69, 0
10, 33181, Note_on_c, 9, 70, 0
10, 33181, Note_on_c, 9, 42, 0
10, 33240, Note_on_c, 9, 42, 86
10, 33240, Note_on_c, 9, 37, 106
10, 33240, Note_on_c, 9, 70, 51
10, 33240, Note_on_c, 9, 69, 81
10, 33241, Note_on_c, 9, 69, 0
10, 33241, Note_on_c, 9, 42, 0
10, 33241, Note_on_c, 9, 37, 0
10, 33241, Note_on_c, 9, 70, 0
10, 33300, Note_on_c, 9, 35, 61
10, 33300, Note_on_c, 9, 42, 41
10, 33300, Note_on_c, 9, 70, 13
10, 33301, Note_on_c, 9, 70, 0
10, 33301, Note_on_c, 9, 42, 0
10, 33301, Note_on_c, 9, 35, 0
10, 33360, Note_on_c, 9, 35, 81
10, 33360, Note_on_c, 9, 42, 99
10, 33360, Note_on_c, 9, 70, 51
10, 33361, Note_on_c, 9, 70, 0
10, 33361, Note_on_c, 9, 42, 0
10, 33361, Note_on_c, 9, 35, 0
10, 33420, Note_on_c, 9, 42, 51
10, 33420, Note_on_c, 9, 70, 13
10, 33420, Note_on_c, 9, 69, 51
10, 33421, Note_on_c, 9, 69, 0
10, 33421, Note_on_c, 9, 70, 0
10, 33421, Note_on_c, 9, 42, 0
10, 33480, Note_on_c, 9, 42, 91
10, 33480, Note_on_c, 9, 37, 106
10, 33480, Note_on_c, 9, 70, 51
10, 33480, Note_on_c, 9, 69, 81
10, 33481, Note_on_c, 9, 69, 0
10, 33481, Note_on_c, 9, 42, 0
10, 33481, Note_on_c, 9, 37, 0
10, 33481, Note_on_c, 9, 70, 0
10, 33540, Note_on_c, 9, 35, 66
10, 33540, Note_on_c, 9, 46, 81
10, 33540, Note_on_c, 9, 70, 13
10, 33541, Note_on_c, 9, 70, 0
10, 33541, Note_on_c, 9, 46, 0
10, 33541, Note_on_c, 9, 35, 0
10, 33600, Note_on_c, 9, 35, 81
10, 33600, Note_on_c, 9, 42, 81
10, 33600, Note_on_c, 9, 70, 51
10, 33601, Note_on_c, 9, 70, 0
10, 33601, Note_on_c, 9, 42, 0
10, 33601, Note_on_c, 9, 35, 0
10, 33660, Note_on_c, 9, 42, 31
10, 33660, Note_on_c, 9, 70, 13
10, 33660, Note_on_c, 9, 69, 51
10, 33661, Note_on_c, 9, 69, 0
10, 33661, Note_on_c, 9, 70, 0
10, 33661, Note_on_c, 9, 42, 0
10, 33720, Note_on_c, 9, 42, 71
10, 33720, Note_on_c, 9, 37, 106
10, 33720, Note_on_c, 9, 70, 51
10, 33720, Note_on_c, 9, 69, 81
10, 33721, Note_on_c, 9, 69, 0
10, 33721, Note_on_c, 9, 42, 0
10, 33721, Note_on_c, 9, 37, 0
10, 33721, Note_on_c, 9, 70, 0
10, 33780, Note_on_c, 9, 35, 61
10, 33780, Note_on_c, 9, 42, 31
10, 33780, Note_on_c, 9, 70, 13
10, 33781, Note_on_c, 9, 70, 0
10, 33781, Note_on_c, 9, 42, 0
10, 33781, Note_on_c, 9, 35, 0
10, 33840, Note_on_c, 9, 35, 81
10, 33840, Note_on_c, 9, 42, 81
10, 33840, Note_on_c, 9, 70, 51
10, 33841, Note_on_c, 9, 70, 0
10, 33841, Note_on_c, 9, 42, 0
10, 33841, Note_on_c, 9, 35, 0
10, 33900, Note_on_c, 9, 42, 31
10, 33900, Note_on_c, 9, 70, 13
10, 33900, Note_on_c, 9, 69, 51
10, 33901, Note_on_c, 9, 69, 0
10, 33901, Note_on_c, 9, 70, 0
10, 33901, Note_on_c, 9, 42, 0
10, 33960, Note_on_c, 9, 42, 71
10, 33960, Note_on_c, 9, 37, 106
10, 33960, Note_on_c, 9, 70, 51
10, 33960, Note_on_c, 9, 69, 81
10, 33961, Note_on_c, 9, 69, 0
10, 33961, Note_on_c, 9, 42, 0
10, 33961, Note_on_c, 9, 37, 0
10, 33961, Note_on_c, 9, 70, 0
10, 34020, Note_on_c, 9, 35, 61
10, 34020, Note_on_c, 9, 42, 31
10, 34020, Note_on_c, 9, 70, 13
10, 34021, Note_on_c, 9, 70, 0
10, 34021, Note_on_c, 9, 42, 0
10, 34021, Note_on_c, 9, 35, 0
10, 34080, Note_on_c, 9, 35, 81
10, 34080, Note_on_c, 9, 42, 81
10, 34080, Note_on_c, 9, 70, 51
10, 34081, Note_on_c, 9, 70, 0
10, 34081, Note_on_c, 9, 42, 0
10, 34081, Note_on_c, 9, 35, 0
10, 34140, Note_on_c, 9, 42, 31
10, 34140, Note_on_c, 9, 70, 13
10, 34140, Note_on_c, 9, 69, 51
10, 34141, Note_on_c, 9, 69, 0
10, 34141, Note_on_c, 9, 70, 0
10, 34141, Note_on_c, 9, 42, 0
10, 34200, Note_on_c, 9, 42, 91
10, 34200, Note_on_c, 9, 37, 106
10, 34200, Note_on_c, 9, 70, 51
10, 34200, Note_on_c, 9, 69, 81
10, 34201, Note_on_c, 9, 69, 0
10, 34201, Note_on_c, 9, 42, 0
10, 34201, Note_on_c, 9, 37, 0
10, 34201, Note_on_c, 9, 70, 0
10, 34260, Note_on_c, 9, 35, 61
10, 34260, Note_on_c, 9, 42, 31
10, 34260, Note_on_c, 9, 70, 13
10, 34261, Note_on_c, 9, 70, 0
10, 34261, Note_on_c, 9, 42, 0
10, 34261, Note_on_c, 9, 35, 0
10, 34320, Note_on_c, 9, 35, 81
10, 34320, Note_on_c, 9, 42, 81
10, 34320, Note_on_c, 9, 70, 51
10, 34321, Note_on_c, 9, 70, 0
10, 34321, Note_on_c, 9, 42, 0
10, 34321, Note_on_c, 9, 35, 0
10, 34380, Note_on_c, 9, 42, 31
10, 34380, Note_on_c, 9, 70, 13
10, 34380, Note_on_c, 9, 69, 51
10, 34381, Note_on_c, 9, 69, 0
10, 34381, Note_on_c, 9, 70, 0
10, 34381, Note_on_c, 9, 42, 0
10, 34440, Note_on_c, 9, 42, 91
10, 34440, Note_on_c, 9, 37, 106
10, 34440, Note_on_c, 9, 70, 51
10, 34440, Note_on_c, 9, 69, 81
10, 34441, Note_on_c, 9, 69, 0
10, 34441, Note_on_c, 9, 42, 0
10, 34441, Note_on_c, 9, 37, 0
10, 34441, Note_on_c, 9, 70, 0
10, 34500, Note_on_c, 9, 35, 66
10, 34500, Note_on_c, 9, 46, 81
10, 34500, Note_on_c, 9, 70, 13
10, 34501, Note_on_c, 9, 70, 0
10, 34501, Note_on_c, 9, 46, 0
10, 34501, Note_on_c, 9, 35, 0
10, 34560, Note_on_c, 9, 35, 81
10, 34560, Note_on_c, 9, 42, 81
10, 34560, Note_on_c, 9, 54, 81
10, 34560, Note_on_c, 9, 70, 51
10, 34561, Note_on_c, 9, 70, 0
10, 34561, Note_on_c, 9, 35, 0
10, 34561, Note_on_c, 9, 42, 0
10, 34561, Note_on_c, 9, 54, 0
10, 34620, Note_on_c, 9, 42, 35
10, 34620, Note_on_c, 9, 70, 13
10, 34620, Note_on_c, 9, 69, 51
10, 34621, Note_on_c, 9, 69, 0
10, 34621, Note_on_c, 9, 70, 0
10, 34621, Note_on_c, 9, 42, 0
10, 34680, Note_on_c, 9, 48, 91
10, 34680, Note_on_c, 9, 54, 51
10, 34680, Note_on_c, 9, 39, 71
10, 34680, Note_on_c, 9, 70, 51
10, 34680, Note_on_c, 9, 69, 81
10, 34681, Note_on_c, 9, 69, 0
10, 34681, Note_on_c, 9, 39, 0
10, 34681, Note_on_c, 9, 48, 0
10, 34681, Note_on_c, 9, 54, 0
10, 34681, Note_on_c, 9, 70, 0
10, 34740, Note_on_c, 9, 35, 61
10, 34740, Note_on_c, 9, 45, 71
10, 34740, Note_on_c, 9, 70, 13
10, 34741, Note_on_c, 9, 70, 0
10, 34741, Note_on_c, 9, 45, 0
10, 34741, Note_on_c, 9, 35, 0
10, 34800, Note_on_c, 9, 35, 81
10, 34800, Note_on_c, 9, 54, 81
10, 34800, Note_on_c, 9, 70, 51
10, 34801, Note_on_c, 9, 70, 0
10, 34801, Note_on_c, 9, 54, 0
10, 34801, Note_on_c, 9, 35, 0
10, 34860, Note_on_c, 9, 45, 81
10, 34860, Note_on_c, 9, 70, 13
10, 34860, Note_on_c, 9, 69, 51
10, 34861, Note_on_c, 9, 69, 0
10, 34861, Note_on_c, 9, 70, 0
10, 34861, Note_on_c, 9, 45, 0
10, 34920, Note_on_c, 9, 38, 91
10, 34920, Note_on_c, 9, 46, 91
10, 34920, Note_on_c, 9, 54, 51
10, 34920, Note_on_c, 9, 39, 71
10, 34920, Note_on_c, 9, 70, 51
10, 34920, Note_on_c, 9, 69, 81
10, 34921, Note_on_c, 9, 69, 0
10, 34921, Note_on_c, 9, 46, 0
10, 34921, Note_on_c, 9, 54, 0
10, 34921, Note_on_c, 9, 38, 0
10, 34921, Note_on_c, 9, 70, 0
10, 34921, Note_on_c, 9, 39, 0
10, 34980, Note_on_c, 9, 35, 66
10, 34980, Note_on_c, 9, 49, 61
10, 34980, Note_on_c, 9, 70, 13
10, 34981, Note_on_c, 9, 70, 0
10, 34981, Note_on_c, 9, 49, 0
10, 34981, Note_on_c, 9, 35, 0
10, 35040, Note_on_c, 9, 35, 81
10, 35040, Note_on_c, 9, 42, 81
10, 35040, Note_on_c, 9, 51, 81
10, 35040, Note_on_c, 9, 70, 51
10, 35041, Note_on_c, 9, 70, 0
10, 35041, Note_on_c, 9, 35, 0
10, 35041, Note_on_c, 9, 42, 0
10, 35041, Note_on_c, 9, 51, 0
10, 35100, Note_on_c, 9, 42, 31
10, 35100, Note_on_c, 9, 70, 13
10, 35100, Note_on_c, 9, 69, 51
10, 35101, Note_on_c, 9, 69, 0
10, 35101, Note_on_c, 9, 70, 0
10, 35101, Note_on_c, 9, 42, 0
10, 35160, Note_on_c, 9, 42, 61
10, 35160, Note_on_c, 9, 37, 106
10, 35160, Note_on_c, 9, 70, 51
10, 35160, Note_on_c, 9, 69, 81
10, 35161, Note_on_c, 9, 69, 0
10, 35161, Note_on_c, 9, 42, 0
10, 35161, Note_on_c, 9, 37, 0
10, 35161, Note_on_c, 9, 70, 0
10, 35220, Note_on_c, 9, 35, 61
10, 35220, Note_on_c, 9, 42, 31
10, 35220, Note_on_c, 9, 70, 13
10, 35221, Note_on_c, 9, 70, 0
10, 35221, Note_on_c, 9, 42, 0
10, 35221, Note_on_c, 9, 35, 0
10, 35280, Note_on_c, 9, 35, 81
10, 35280, Note_on_c, 9, 42, 81
10, 35280, Note_on_c, 9, 70, 51
10, 35281, Note_on_c, 9, 70, 0
10, 35281, Note_on_c, 9, 42, 0
10, 35281, Note_on_c, 9, 35, 0
10, 35340, Note_on_c, 9, 42, 31
10, 35340, Note_on_c, 9, 70, 13
10, 35340, Note_on_c, 9, 69, 51
10, 35341, Note_on_c, 9, 69, 0
10, 35341, Note_on_c, 9, 70, 0
10, 35341, Note_on_c, 9, 42, 0
10, 35400, Note_on_c, 9, 42, 61
10, 35400, Note_on_c, 9, 37, 106
10, 35400, Note_on_c, 9, 70, 51
10, 35400, Note_on_c, 9, 69, 81
10, 35401, Note_on_c, 9, 69, 0
10, 35401, Note_on_c, 9, 42, 0
10, 35401, Note_on_c, 9, 37, 0
10, 35401, Note_on_c, 9, 70, 0
10, 35460, Note_on_c, 9, 35, 61
10, 35460, Note_on_c, 9, 42, 31
10, 35460, Note_on_c, 9, 70, 13
10, 35461, Note_on_c, 9, 70, 0
10, 35461, Note_on_c, 9, 42, 0
10, 35461, Note_on_c, 9, 35, 0
10, 35520, Note_on_c, 9, 35, 81
10, 35520, Note_on_c, 9, 42, 81
10, 35520, Note_on_c, 9, 70, 51
10, 35521, Note_on_c, 9, 70, 0
10, 35521, Note_on_c, 9, 42, 0
10, 35521, Note_on_c, 9, 35, 0
10, 35580, Note_on_c, 9, 42, 46
10, 35580, Note_on_c, 9, 70, 13
10, 35580, Note_on_c, 9, 69, 51
10, 35581, Note_on_c, 9, 69, 0
10, 35581, Note_on_c, 9, 70, 0
10, 35581, Note_on_c, 9, 42, 0
10, 35640, Note_on_c, 9, 42, 86
10, 35640, Note_on_c, 9, 37, 106
10, 35640, Note_on_c, 9, 70, 51
10, 35640, Note_on_c, 9, 69, 81
10, 35641, Note_on_c, 9, 69, 0
10, 35641, Note_on_c, 9, 42, 0
10, 35641, Note_on_c, 9, 37, 0
10, 35641, Note_on_c, 9, 70, 0
10, 35700, Note_on_c, 9, 35, 61
10, 35700, Note_on_c, 9, 42, 41
10, 35700, Note_on_c, 9, 70, 13
10, 35701, Note_on_c, 9, 70, 0
10, 35701, Note_on_c, 9, 42, 0
10, 35701, Note_on_c, 9, 35, 0
10, 35760, Note_on_c, 9, 35, 81
10, 35760, Note_on_c, 9, 42, 71
10, 35760, Note_on_c, 9, 70, 51
10, 35761, Note_on_c, 9, 70, 0
10, 35761, Note_on_c, 9, 42, 0
10, 35761, Note_on_c, 9, 35, 0
10, 35820, Note_on_c, 9, 42, 81
10, 35820, Note_on_c, 9, 70, 13
10, 35820, Note_on_c, 9, 69, 51
10, 35821, Note_on_c, 9, 69, 0
10, 35821, Note_on_c, 9, 70, 0
10, 35821, Note_on_c, 9, 42, 0
10, 35880, Note_on_c, 9, 42, 91
10, 35880, Note_on_c, 9, 37, 106
10, 35880, Note_on_c, 9, 70, 51
10, 35880, Note_on_c, 9, 69, 81
10, 35881, Note_on_c, 9, 69, 0
10, 35881, Note_on_c, 9, 42, 0
10, 35881, Note_on_c, 9, 37, 0
10, 35881, Note_on_c, 9, 70, 0
10, 35940, Note_on_c, 9, 35, 66
10, 35940, Note_on_c, 9, 46, 81
10, 35940, Note_on_c, 9, 70, 13
10, 35941, Note_on_c, 9, 70, 0
10, 35941, Note_on_c, 9, 46, 0
10, 35941, Note_on_c, 9, 35, 0
10, 36000, Note_on_c, 9, 35, 81
10, 36000, Note_on_c, 9, 42, 81
10, 36000, Note_on_c, 9, 70, 51
10, 36001, Note_on_c, 9, 70, 0
10, 36001, Note_on_c, 9, 42, 0
10, 36001, Note_on_c, 9, 35, 0
10, 36060, Note_on_c, 9, 42, 31
10, 36060, Note_on_c, 9, 70, 13
10, 36060, Note_on_c, 9, 69, 51
10, 36061, Note_on_c, 9, 69, 0
10, 36061, Note_on_c, 9, 70, 0
10, 36061, Note_on_c, 9, 42, 0
10, 36120, Note_on_c, 9, 42, 71
10, 36120, Note_on_c, 9, 37, 106
10, 36120, Note_on_c, 9, 70, 51
10, 36120, Note_on_c, 9, 69, 81
10, 36121, Note_on_c, 9, 69, 0
10, 36121, Note_on_c, 9, 42, 0
10, 36121, Note_on_c, 9, 37, 0
10, 36121, Note_on_c, 9, 70, 0
10, 36180, Note_on_c, 9, 35, 61
10, 36180, Note_on_c, 9, 42, 31
10, 36180, Note_on_c, 9, 70, 13
10, 36181, Note_on_c, 9, 70, 0
10, 36181, Note_on_c, 9, 42, 0
10, 36181, Note_on_c, 9, 35, 0
10, 36240, Note_on_c, 9, 35, 81
10, 36240, Note_on_c, 9, 42, 81
10, 36240, Note_on_c, 9, 70, 51
10, 36241, Note_on_c, 9, 70, 0
10, 36241, Note_on_c, 9, 42, 0
10, 36241, Note_on_c, 9, 35, 0
10, 36300, Note_on_c, 9, 42, 31
10, 36300, Note_on_c, 9, 70, 13
10, 36300, Note_on_c, 9, 69, 51
10, 36301, Note_on_c, 9, 69, 0
10, 36301, Note_on_c, 9, 70, 0
10, 36301, Note_on_c, 9, 42, 0
10, 36360, Note_on_c, 9, 42, 71
10, 36360, Note_on_c, 9, 37, 106
10, 36360, Note_on_c, 9, 70, 51
10, 36360, Note_on_c, 9, 69, 81
10, 36361, Note_on_c, 9, 69, 0
10, 36361, Note_on_c, 9, 42, 0
10, 36361, Note_on_c, 9, 37, 0
10, 36361, Note_on_c, 9, 70, 0
10, 36420, Note_on_c, 9, 35, 61
10, 36420, Note_on_c, 9, 42, 31
10, 36420, Note_on_c, 9, 70, 13
10, 36421, Note_on_c, 9, 70, 0
10, 36421, Note_on_c, 9, 42, 0
10, 36421, Note_on_c, 9, 35, 0
10, 36480, Note_on_c, 9, 35, 81
10, 36480, Note_on_c, 9, 42, 81
10, 36480, Note_on_c, 9, 70, 51
10, 36481, Note_on_c, 9, 70, 0
10, 36481, Note_on_c, 9, 42, 0
10, 36481, Note_on_c, 9, 35, 0
10, 36540, Note_on_c, 9, 42, 46
10, 36540, Note_on_c, 9, 70, 13
10, 36540, Note_on_c, 9, 69, 51
10, 36541, Note_on_c, 9, 69, 0
10, 36541, Note_on_c, 9, 70, 0
10, 36541, Note_on_c, 9, 42, 0
10, 36600, Note_on_c, 9, 42, 86
10, 36600, Note_on_c, 9, 37, 106
10, 36600, Note_on_c, 9, 70, 51
10, 36600, Note_on_c, 9, 69, 81
10, 36601, Note_on_c, 9, 69, 0
10, 36601, Note_on_c, 9, 42, 0
10, 36601, Note_on_c, 9, 37, 0
10, 36601, Note_on_c, 9, 70, 0
10, 36660, Note_on_c, 9, 35, 61
10, 36660, Note_on_c, 9, 42, 41
10, 36660, Note_on_c, 9, 70, 13
10, 36661, Note_on_c, 9, 70, 0
10, 36661, Note_on_c, 9, 42, 0
10, 36661, Note_on_c, 9, 35, 0
10, 36720, Note_on_c, 9, 35, 81
10, 36720, Note_on_c, 9, 42, 71
10, 36720, Note_on_c, 9, 70, 51
10, 36721, Note_on_c, 9, 70, 0
10, 36721, Note_on_c, 9, 42, 0
10, 36721, Note_on_c, 9, 35, 0
10, 36780, Note_on_c, 9, 42, 51
10, 36780, Note_on_c, 9, 70, 13
10, 36780, Note_on_c, 9, 69, 51
10, 36781, Note_on_c, 9, 69, 0
10, 36781, Note_on_c, 9, 70, 0
10, 36781, Note_on_c, 9, 42, 0
10, 36840, Note_on_c, 9, 42, 91
10, 36840, Note_on_c, 9, 37, 106
10, 36840, Note_on_c, 9, 70, 51
10, 36840, Note_on_c, 9, 69, 81
10, 36841, Note_on_c, 9, 69, 0
10, 36841, Note_on_c, 9, 42, 0
10, 36841, Note_on_c, 9, 37, 0
10, 36841, Note_on_c, 9, 70, 0
10, 36900, Note_on_c, 9, 35, 66
10, 36900, Note_on_c, 9, 46, 81
10, 36900, Note_on_c, 9, 70, 13
10, 36901, Note_on_c, 9, 70, 0
10, 36901, Note_on_c, 9, 46, 0
10, 36901, Note_on_c, 9, 35, 0
10, 36960, Note_on_c, 9, 35, 81
10, 36960, Note_on_c, 9, 42, 81
10, 36960, Note_on_c, 9, 70, 51
10, 36961, Note_on_c, 9, 70, 0
10, 36961, Note_on_c, 9, 42, 0
10, 36961, Note_on_c, 9, 35, 0
10, 37020, Note_on_c, 9, 42, 31
10, 37020, Note_on_c, 9, 70, 13
10, 37020, Note_on_c, 9, 69, 51
10, 37021, Note_on_c, 9, 69, 0
10, 37021, Note_on_c, 9, 70, 0
10, 37021, Note_on_c, 9, 42, 0
10, 37080, Note_on_c, 9, 42, 61
10, 37080, Note_on_c, 9, 37, 106
10, 37080, Note_on_c, 9, 70, 51
10, 37080, Note_on_c, 9, 69, 81
10, 37081, Note_on_c, 9, 69, 0
10, 37081, Note_on_c, 9, 42, 0
10, 37081, Note_on_c, 9, 37, 0
10, 37081, Note_on_c, 9, 70, 0
10, 37140, Note_on_c, 9, 35, 61
10, 37140, Note_on_c, 9, 42, 31
10, 37140, Note_on_c, 9, 70, 13
10, 37141, Note_on_c, 9, 70, 0
10, 37141, Note_on_c, 9, 42, 0
10, 37141, Note_on_c, 9, 35, 0
10, 37200, Note_on_c, 9, 35, 81
10, 37200, Note_on_c, 9, 42, 81
10, 37200, Note_on_c, 9, 70, 51
10, 37201, Note_on_c, 9, 70, 0
10, 37201, Note_on_c, 9, 42, 0
10, 37201, Note_on_c, 9, 35, 0
10, 37260, Note_on_c, 9, 42, 31
10, 37260, Note_on_c, 9, 70, 13
10, 37260, Note_on_c, 9, 69, 51
10, 37261, Note_on_c, 9, 69, 0
10, 37261, Note_on_c, 9, 70, 0
10, 37261, Note_on_c, 9, 42, 0
10, 37320, Note_on_c, 9, 42, 61
10, 37320, Note_on_c, 9, 37, 106
10, 37320, Note_on_c, 9, 70, 51
10, 37320, Note_on_c, 9, 69, 81
10, 37321, Note_on_c, 9, 69, 0
10, 37321, Note_on_c, 9, 42, 0
10, 37321, Note_on_c, 9, 37, 0
10, 37321, Note_on_c, 9, 70, 0
10, 37380, Note_on_c, 9, 35, 61
10, 37380, Note_on_c, 9, 42, 31
10, 37380, Note_on_c, 9, 70, 13
10, 37381, Note_on_c, 9, 70, 0
10, 37381, Note_on_c, 9, 42, 0
10, 37381, Note_on_c, 9, 35, 0
10, 37440, Note_on_c, 9, 35, 81
10, 37440, Note_on_c, 9, 42, 81
10, 37440, Note_on_c, 9, 70, 51
10, 37441, Note_on_c, 9, 70, 0
10, 37441, Note_on_c, 9, 42, 0
10, 37441, Note_on_c, 9, 35, 0
10, 37500, Note_on_c, 9, 42, 31
10, 37500, Note_on_c, 9, 70, 13
10, 37500, Note_on_c, 9, 69, 51
10, 37501, Note_on_c, 9, 69, 0
10, 37501, Note_on_c, 9, 70, 0
10, 37501, Note_on_c, 9, 42, 0
10, 37560, Note_on_c, 9, 42, 91
10, 37560, Note_on_c, 9, 37, 106
10, 37560, Note_on_c, 9, 70, 51
10, 37560, Note_on_c, 9, 69, 81
10, 37561, Note_on_c, 9, 69, 0
10, 37561, Note_on_c, 9, 42, 0
10, 37561, Note_on_c, 9, 37, 0
10, 37561, Note_on_c, 9, 70, 0
10, 37620, Note_on_c, 9, 35, 61
10, 37620, Note_on_c, 9, 42, 31
10, 37620, Note_on_c, 9, 70, 13
10, 37621, Note_on_c, 9, 70, 0
10, 37621, Note_on_c, 9, 42, 0
10, 37621, Note_on_c, 9, 35, 0
10, 37680, Note_on_c, 9, 35, 81
10, 37680, Note_on_c, 9, 42, 81
10, 37680, Note_on_c, 9, 70, 51
10, 37681, Note_on_c, 9, 70, 0
10, 37681, Note_on_c, 9, 42, 0
10, 37681, Note_on_c, 9, 35, 0
10, 37740, Note_on_c, 9, 42, 31
10, 37740, Note_on_c, 9, 70, 13
10, 37740, Note_on_c, 9, 69, 51
10, 37741, Note_on_c, 9, 69, 0
10, 37741, Note_on_c, 9, 70, 0
10, 37741, Note_on_c, 9, 42, 0
10, 37800, Note_on_c, 9, 42, 91
10, 37800, Note_on_c, 9, 37, 106
10, 37800, Note_on_c, 9, 70, 51
10, 37800, Note_on_c, 9, 69, 81
10, 37801, Note_on_c, 9, 69, 0
10, 37801, Note_on_c, 9, 42, 0
10, 37801, Note_on_c, 9, 37, 0
10, 37801, Note_on_c, 9, 70, 0
10, 37860, Note_on_c, 9, 35, 66
10, 37860, Note_on_c, 9, 46, 81
10, 37860, Note_on_c, 9, 70, 13
10, 37861, Note_on_c, 9, 70, 0
10, 37861, Note_on_c, 9, 46, 0
10, 37861, Note_on_c, 9, 35, 0
10, 37920, Note_on_c, 9, 35, 81
10, 37920, Note_on_c, 9, 42, 81
10, 37920, Note_on_c, 9, 70, 51
10, 37921, Note_on_c, 9, 70, 0
10, 37921, Note_on_c, 9, 42, 0
10, 37921, Note_on_c, 9, 35, 0
10, 37980, Note_on_c, 9, 42, 31
10, 37980, Note_on_c, 9, 70, 13
10, 37980, Note_on_c, 9, 69, 51
10, 37981, Note_on_c, 9, 69, 0
10, 37981, Note_on_c, 9, 70, 0
10, 37981, Note_on_c, 9, 42, 0
10, 38040, Note_on_c, 9, 42, 71
10, 38040, Note_on_c, 9, 37, 106
10, 38040, Note_on_c, 9, 70, 51
10, 38040, Note_on_c, 9, 69, 81
10, 38041, Note_on_c, 9, 69, 0
10, 38041, Note_on_c, 9, 42, 0
10, 38041, Note_on_c, 9, 37, 0
10, 38041, Note_on_c, 9, 70, 0
10, 38100, Note_on_c, 9, 35, 61
10, 38100, Note_on_c, 9, 42, 31
10, 38100, Note_on_c, 9, 70, 13
10, 38101, Note_on_c, 9, 70, 0
10, 38101, Note_on_c, 9, 42, 0
10, 38101, Note_on_c, 9, 35, 0
10, 38160, Note_on_c, 9, 35, 81
10, 38160, Note_on_c, 9, 42, 81
10, 38160, Note_on_c, 9, 70, 51
10, 38161, Note_on_c, 9, 70, 0
10, 38161, Note_on_c, 9, 42, 0
10, 38161, Note_on_c, 9, 35, 0
10, 38220, Note_on_c, 9, 42, 31
10, 38220, Note_on_c, 9, 70, 13
10, 38220, Note_on_c, 9, 69, 51
10, 38221, Note_on_c, 9, 69, 0
10, 38221, Note_on_c, 9, 70, 0
10, 38221, Note_on_c, 9, 42, 0
10, 38280, Note_on_c, 9, 42, 71
10, 38280, Note_on_c, 9, 37, 106
10, 38280, Note_on_c, 9, 70, 51
10, 38280, Note_on_c, 9, 69, 81
10, 38281, Note_on_c, 9, 69, 0
10, 38281, Note_on_c, 9, 42, 0
10, 38281, Note_on_c, 9, 37, 0
10, 38281, Note_on_c, 9, 70, 0
10, 38340, Note_on_c, 9, 35, 61
10, 38340, Note_on_c, 9, 42, 31
10, 38340, Note_on_c, 9, 70, 13
10, 38341, Note_on_c, 9, 70, 0
10, 38341, Note_on_c, 9, 42, 0
10, 38341, Note_on_c, 9, 35, 0
10, 38400, Note_on_c, 9, 35, 81
10, 38400, Note_on_c, 9, 42, 81
10, 38400, Note_on_c, 9, 70, 51
10, 38401, Note_on_c, 9, 70, 0
10, 38401, Note_on_c, 9, 42, 0
10, 38401, Note_on_c, 9, 35, 0
10, 38460, Note_on_c, 9, 42, 35
10, 38460, Note_on_c, 9, 70, 13
10, 38460, Note_on_c, 9, 69, 51
10, 38461, Note_on_c, 9, 69, 0
10, 38461, Note_on_c, 9, 70, 0
10, 38461, Note_on_c, 9, 42, 0
10, 38520, Note_on_c, 9, 42, 91
10, 38520, Note_on_c, 9, 37, 106
10, 38520, Note_on_c, 9, 70, 51
10, 38520, Note_on_c, 9, 69, 81
10, 38521, Note_on_c, 9, 69, 0
10, 38521, Note_on_c, 9, 42, 0
10, 38521, Note_on_c, 9, 37, 0
10, 38521, Note_on_c, 9, 70, 0
10, 38580, Note_on_c, 9, 35, 61
10, 38580, Note_on_c, 9, 42, 46
10, 38580, Note_on_c, 9, 70, 13
10, 38581, Note_on_c, 9, 70, 0
10, 38581, Note_on_c, 9, 42, 0
10, 38581, Note_on_c, 9, 35, 0
10, 38640, Note_on_c, 9, 35, 81
10, 38640, Note_on_c, 9, 42, 81
10, 38640, Note_on_c, 9, 70, 51
10, 38641, Note_on_c, 9, 70, 0
10, 38641, Note_on_c, 9, 42, 0
10, 38641, Note_on_c, 9, 35, 0
10, 38700, Note_on_c, 9, 42, 35
10, 38700, Note_on_c, 9, 70, 13
10, 38700, Note_on_c, 9, 69, 51
10, 38701, Note_on_c, 9, 69, 0
10, 38701, Note_on_c, 9, 70, 0
10, 38701, Note_on_c, 9, 42, 0
10, 38760, Note_on_c, 9, 42, 81
10, 38760, Note_on_c, 9, 37, 106
10, 38760, Note_on_c, 9, 70, 51
10, 38760, Note_on_c, 9, 69, 81
10, 38761, Note_on_c, 9, 69, 0
10, 38761, Note_on_c, 9, 42, 0
10, 38761, Note_on_c, 9, 37, 0
10, 38761, Note_on_c, 9, 70, 0
10, 38820, Note_on_c, 9, 35, 66
10, 38820, Note_on_c, 9, 42, 51
10, 38820, Note_on_c, 9, 70, 13
10, 38821, Note_on_c, 9, 70, 0
10, 38821, Note_on_c, 9, 42, 0
10, 38821, Note_on_c, 9, 35, 0
10, 38880, Note_on_c, 9, 35, 81
10, 38880, Note_on_c, 9, 42, 81
10, 38880, Note_on_c, 9, 70, 51
10, 38881, Note_on_c, 9, 70, 0
10, 38881, Note_on_c, 9, 42, 0
10, 38881, Note_on_c, 9, 35, 0
10, 38940, Note_on_c, 9, 42, 31
10, 38940, Note_on_c, 9, 70, 13
10, 38940, Note_on_c, 9, 69, 51
10, 38941, Note_on_c, 9, 69, 0
10, 38941, Note_on_c, 9, 70, 0
10, 38941, Note_on_c, 9, 42, 0
10, 39000, Note_on_c, 9, 42, 71
10, 39000, Note_on_c, 9, 37, 106
10, 39000, Note_on_c, 9, 70, 51
10, 39000, Note_on_c, 9, 69, 81
10, 39001, Note_on_c, 9, 69, 0
10, 39001, Note_on_c, 9, 42, 0
10, 39001, Note_on_c, 9, 37, 0
10, 39001, Note_on_c, 9, 70, 0
10, 39060, Note_on_c, 9, 35, 61
10, 39060, Note_on_c, 9, 46, 63
10, 39060, Note_on_c, 9, 70, 13
10, 39061, Note_on_c, 9, 70, 0
10, 39061, Note_on_c, 9, 46, 0
10, 39061, Note_on_c, 9, 35, 0
10, 39120, Note_on_c, 9, 35, 81
10, 39120, Note_on_c, 9, 42, 81
10, 39120, Note_on_c, 9, 70, 51
10, 39121, Note_on_c, 9, 70, 0
10, 39121, Note_on_c, 9, 42, 0
10, 39121, Note_on_c, 9, 35, 0
10, 39180, Note_on_c, 9, 42, 31
10, 39180, Note_on_c, 9, 70, 13
10, 39180, Note_on_c, 9, 69, 51
10, 39181, Note_on_c, 9, 69, 0
10, 39181, Note_on_c, 9, 70, 0
10, 39181, Note_on_c, 9, 42, 0
10, 39240, Note_on_c, 9, 42, 71
10, 39240, Note_on_c, 9, 37, 106
10, 39240, Note_on_c, 9, 70, 51
10, 39240, Note_on_c, 9, 69, 81
10, 39241, Note_on_c, 9, 69, 0
10, 39241, Note_on_c, 9, 42, 0
10, 39241, Note_on_c, 9, 37, 0
10, 39241, Note_on_c, 9, 70, 0
10, 39300, Note_on_c, 9, 35, 61
10, 39300, Note_on_c, 9, 42, 31
10, 39300, Note_on_c, 9, 70, 13
10, 39301, Note_on_c, 9, 70, 0
10, 39301, Note_on_c, 9, 42, 0
10, 39301, Note_on_c, 9, 35, 0
10, 39360, Note_on_c, 9, 35, 81
10, 39360, Note_on_c, 9, 42, 81
10, 39360, Note_on_c, 9, 70, 51
10, 39361, Note_on_c, 9, 70, 0
10, 39361, Note_on_c, 9, 42, 0
10, 39361, Note_on_c, 9, 35, 0
10, 39420, Note_on_c, 9, 42, 46
10, 39420, Note_on_c, 9, 70, 13
10, 39420, Note_on_c, 9, 69, 51
10, 39421, Note_on_c, 9, 69, 0
10, 39421, Note_on_c, 9, 70, 0
10, 39421, Note_on_c, 9, 42, 0
10, 39480, Note_on_c, 9, 42, 86
10, 39480, Note_on_c, 9, 37, 106
10, 39480, Note_on_c, 9, 70, 51
10, 39480, Note_on_c, 9, 69, 81
10, 39481, Note_on_c, 9, 69, 0
10, 39481, Note_on_c, 9, 42, 0
10, 39481, Note_on_c, 9, 37, 0
10, 39481, Note_on_c, 9, 70, 0
10, 39540, Note_on_c, 9, 35, 61
10, 39540, Note_on_c, 9, 42, 41
10, 39540, Note_on_c, 9, 70, 13
10, 39541, Note_on_c, 9, 70, 0
10, 39541, Note_on_c, 9, 42, 0
10, 39541, Note_on_c, 9, 35, 0
10, 39600, Note_on_c, 9, 35, 81
10, 39600, Note_on_c, 9, 42, 71
10, 39600, Note_on_c, 9, 70, 51
10, 39601, Note_on_c, 9, 70, 0
10, 39601, Note_on_c, 9, 42, 0
10, 39601, Note_on_c, 9, 35, 0
10, 39660, Note_on_c, 9, 42, 81
10, 39660, Note_on_c, 9, 70, 13
10, 39660, Note_on_c, 9, 69, 51
10, 39661, Note_on_c, 9, 69, 0
10, 39661, Note_on_c, 9, 70, 0
10, 39661, Note_on_c, 9, 42, 0
10, 39720, Note_on_c, 9, 42, 91
10, 39720, Note_on_c, 9, 37, 106
10, 39720, Note_on_c, 9, 70, 51
10, 39720, Note_on_c, 9, 69, 81
10, 39721, Note_on_c, 9, 69, 0
10, 39721, Note_on_c, 9, 42, 0
10, 39721, Note_on_c, 9, 37, 0
10, 39721, Note_on_c, 9, 70, 0
10, 39780, Note_on_c, 9, 35, 66
10, 39780, Note_on_c, 9, 46, 81
10, 39780, Note_on_c, 9, 70, 13
10, 39781, Note_on_c, 9, 70, 0
10, 39781, Note_on_c, 9, 46, 0
10, 39781, Note_on_c, 9, 35, 0
10, 39840, Note_on_c, 9, 35, 81
10, 39840, Note_on_c, 9, 42, 81
10, 39840, Note_on_c, 9, 70, 51
10, 39841, Note_on_c, 9, 70, 0
10, 39841, Note_on_c, 9, 42, 0
10, 39841, Note_on_c, 9, 35, 0
10, 39900, Note_on_c, 9, 42, 31
10, 39900, Note_on_c, 9, 70, 13
10, 39900, Note_on_c, 9, 69, 51
10, 39901, Note_on_c, 9, 69, 0
10, 39901, Note_on_c, 9, 70, 0
10, 39901, Note_on_c, 9, 42, 0
10, 39960, Note_on_c, 9, 42, 61
10, 39960, Note_on_c, 9, 37, 106
10, 39960, Note_on_c, 9, 70, 51
10, 39960, Note_on_c, 9, 69, 81
10, 39961, Note_on_c, 9, 69, 0
10, 39961, Note_on_c, 9, 42, 0
10, 39961, Note_on_c, 9, 37, 0
10, 39961, Note_on_c, 9, 70, 0
10, 40020, Note_on_c, 9, 35, 61
10, 40020, Note_on_c, 9, 42, 31
10, 40020, Note_on_c, 9, 70, 13
10, 40021, Note_on_c, 9, 70, 0
10, 40021, Note_on_c, 9, 42, 0
10, 40021, Note_on_c, 9, 35, 0
10, 40080, Note_on_c, 9, 35, 81
10, 40080, Note_on_c, 9, 42, 81
10, 40080, Note_on_c, 9, 70, 51
10, 40081, Note_on_c, 9, 70, 0
10, 40081, Note_on_c, 9, 42, 0
10, 40081, Note_on_c, 9, 35, 0
10, 40140, Note_on_c, 9, 42, 31
10, 40140, Note_on_c, 9, 70, 13
10, 40140, Note_on_c, 9, 69, 51
10, 40141, Note_on_c, 9, 69, 0
10, 40141, Note_on_c, 9, 70, 0
10, 40141, Note_on_c, 9, 42, 0
10, 40200, Note_on_c, 9, 42, 61
10, 40200, Note_on_c, 9, 37, 106
10, 40200, Note_on_c, 9, 70, 51
10, 40200, Note_on_c, 9, 69, 81
10, 40201, Note_on_c, 9, 69, 0
10, 40201, Note_on_c, 9, 42, 0
10, 40201, Note_on_c, 9, 37, 0
10, 40201, Note_on_c, 9, 70, 0
10, 40260, Note_on_c, 9, 35, 61
10, 40260, Note_on_c, 9, 42, 31
10, 40260, Note_on_c, 9, 70, 13
10, 40261, Note_on_c, 9, 70, 0
10, 40261, Note_on_c, 9, 42, 0
10, 40261, Note_on_c, 9, 35, 0
10, 40320, Note_on_c, 9, 35, 81
10, 40320, Note_on_c, 9, 42, 81
10, 40320, Note_on_c, 9, 70, 51
10, 40321, Note_on_c, 9, 70, 0
10, 40321, Note_on_c, 9, 42, 0
10, 40321, Note_on_c, 9, 35, 0
10, 40380, Note_on_c, 9, 42, 35
10, 40380, Note_on_c, 9, 70, 13
10, 40380, Note_on_c, 9, 69, 51
10, 40381, Note_on_c, 9, 69, 0
10, 40381, Note_on_c, 9, 70, 0
10, 40381, Note_on_c, 9, 42, 0
10, 40440, Note_on_c, 9, 42, 91
10, 40440, Note_on_c, 9, 37, 106
10, 40440, Note_on_c, 9, 70, 51
10, 40440, Note_on_c, 9, 69, 81
10, 40441, Note_on_c, 9, 69, 0
10, 40441, Note_on_c, 9, 42, 0
10, 40441, Note_on_c, 9, 37, 0
10, 40441, Note_on_c, 9, 70, 0
10, 40500, Note_on_c, 9, 35, 61
10, 40500, Note_on_c, 9, 42, 46
10, 40500, Note_on_c, 9, 70, 13
10, 40501, Note_on_c, 9, 70, 0
10, 40501, Note_on_c, 9, 42, 0
10, 40501, Note_on_c, 9, 35, 0
10, 40560, Note_on_c, 9, 35, 81
10, 40560, Note_on_c, 9, 42, 81
10, 40560, Note_on_c, 9, 70, 51
10, 40561, Note_on_c, 9, 70, 0
10, 40561, Note_on_c, 9, 42, 0
10, 40561, Note_on_c, 9, 35, 0
10, 40620, Note_on_c, 9, 46, 45
10, 40620, Note_on_c, 9, 70, 13
10, 40620, Note_on_c, 9, 69, 51
10, 40621, Note_on_c, 9, 69, 0
10, 40621, Note_on_c, 9, 70, 0
10, 40621, Note_on_c, 9, 46, 0
10, 40680, Note_on_c, 9, 46, 81
10, 40680, Note_on_c, 9, 37, 106
10, 40680, Note_on_c, 9, 70, 51
10, 40680, Note_on_c, 9, 69, 81
10, 40681, Note_on_c, 9, 69, 0
10, 40681, Note_on_c, 9, 46, 0
10, 40681, Note_on_c, 9, 37, 0
10, 40681, Note_on_c, 9, 70, 0
10, 40740, Note_on_c, 9, 35, 66
10, 40740, Note_on_c, 9, 42, 51
10, 40740, Note_on_c, 9, 70, 13
10, 40741, Note_on_c, 9, 70, 0
10, 40741, Note_on_c, 9, 42, 0
10, 40741, Note_on_c, 9, 35, 0
10, 40800, Note_on_c, 9, 35, 81
10, 40800, Note_on_c, 9, 42, 81
10, 40800, Note_on_c, 9, 70, 51
10, 40801, Note_on_c, 9, 70, 0
10, 40801, Note_on_c, 9, 42, 0
10, 40801, Note_on_c, 9, 35, 0
10, 40860, Note_on_c, 9, 42, 31
10, 40860, Note_on_c, 9, 70, 13
10, 40860, Note_on_c, 9, 69, 51
10, 40861, Note_on_c, 9, 69, 0
10, 40861, Note_on_c, 9, 70, 0
10, 40861, Note_on_c, 9, 42, 0
10, 40920, Note_on_c, 9, 42, 61
10, 40920, Note_on_c, 9, 37, 106
10, 40920, Note_on_c, 9, 70, 51
10, 40920, Note_on_c, 9, 69, 81
10, 40921, Note_on_c, 9, 69, 0
10, 40921, Note_on_c, 9, 42, 0
10, 40921, Note_on_c, 9, 37, 0
10, 40921, Note_on_c, 9, 70, 0
10, 40980, Note_on_c, 9, 35, 61
10, 40980, Note_on_c, 9, 42, 31
10, 40980, Note_on_c, 9, 70, 13
10, 40981, Note_on_c, 9, 70, 0
10, 40981, Note_on_c, 9, 42, 0
10, 40981, Note_on_c, 9, 35, 0
10, 41040, Note_on_c, 9, 35, 81
10, 41040, Note_on_c, 9, 42, 81
10, 41040, Note_on_c, 9, 70, 51
10, 41041, Note_on_c, 9, 70, 0
10, 41041, Note_on_c, 9, 42, 0
10, 41041, Note_on_c, 9, 35, 0
10, 41100, Note_on_c, 9, 42, 31
10, 41100, Note_on_c, 9, 70, 13
10, 41100, Note_on_c, 9, 69, 51
10, 41101, Note_on_c, 9, 69, 0
10, 41101, Note_on_c, 9, 70, 0
10, 41101, Note_on_c, 9, 42, 0
10, 41160, Note_on_c, 9, 42, 61
10, 41160, Note_on_c, 9, 37, 106
10, 41160, Note_on_c, 9, 70, 51
10, 41160, Note_on_c, 9, 69, 81
10, 41161, Note_on_c, 9, 69, 0
10, 41161, Note_on_c, 9, 42, 0
10, 41161, Note_on_c, 9, 37, 0
10, 41161, Note_on_c, 9, 70, 0
10, 41220, Note_on_c, 9, 35, 61
10, 41220, Note_on_c, 9, 42, 31
10, 41220, Note_on_c, 9, 70, 13
10, 41221, Note_on_c, 9, 70, 0
10, 41221, Note_on_c, 9, 42, 0
10, 41221, Note_on_c, 9, 35, 0
10, 41280, Note_on_c, 9, 35, 81
10, 41280, Note_on_c, 9, 42, 81
10, 41280, Note_on_c, 9, 70, 51
10, 41281, Note_on_c, 9, 70, 0
10, 41281, Note_on_c, 9, 42, 0
10, 41281, Note_on_c, 9, 35, 0
10, 41340, Note_on_c, 9, 42, 46
10, 41340, Note_on_c, 9, 70, 13
10, 41340, Note_on_c, 9, 69, 51
10, 41341, Note_on_c, 9, 69, 0
10, 41341, Note_on_c, 9, 70, 0
10, 41341, Note_on_c, 9, 42, 0
10, 41400, Note_on_c, 9, 42, 86
10, 41400, Note_on_c, 9, 37, 106
10, 41400, Note_on_c, 9, 70, 51
10, 41400, Note_on_c, 9, 69, 81
10, 41401, Note_on_c, 9, 69, 0
10, 41401, Note_on_c, 9, 42, 0
10, 41401, Note_on_c, 9, 37, 0
10, 41401, Note_on_c, 9, 70, 0
10, 41460, Note_on_c, 9, 35, 61
10, 41460, Note_on_c, 9, 42, 41
10, 41460, Note_on_c, 9, 70, 13
10, 41461, Note_on_c, 9, 70, 0
10, 41461, Note_on_c, 9, 42, 0
10, 41461, Note_on_c, 9, 35, 0
10, 41520, Note_on_c, 9, 35, 81
10, 41520, Note_on_c, 9, 42, 71
10, 41520, Note_on_c, 9, 70, 51
10, 41521, Note_on_c, 9, 70, 0
10, 41521, Note_on_c, 9, 42, 0
10, 41521, Note_on_c, 9, 35, 0
10, 41580, Note_on_c, 9, 42, 51
10, 41580, Note_on_c, 9, 70, 13
10, 41580, Note_on_c, 9, 69, 51
10, 41581, Note_on_c, 9, 69, 0
10, 41581, Note_on_c, 9, 70, 0
10, 41581, Note_on_c, 9, 42, 0
10, 41640, Note_on_c, 9, 42, 91
10, 41640, Note_on_c, 9, 37, 106
10, 41640, Note_on_c, 9, 70, 51
10, 41640, Note_on_c, 9, 69, 81
10, 41641, Note_on_c, 9, 69, 0
10, 41641, Note_on_c, 9, 42, 0
10, 41641, Note_on_c, 9, 37, 0
10, 41641, Note_on_c, 9, 70, 0
10, 41700, Note_on_c, 9, 35, 66
10, 41700, Note_on_c, 9, 46, 81
10, 41700, Note_on_c, 9, 70, 13
10, 41701, Note_on_c, 9, 70, 0
10, 41701, Note_on_c, 9, 46, 0
10, 41701, Note_on_c, 9, 35, 0
10, 41760, Note_on_c, 9, 35, 81
10, 41760, Note_on_c, 9, 42, 81
10, 41760, Note_on_c, 9, 70, 51
10, 41761, Note_on_c, 9, 70, 0
10, 41761, Note_on_c, 9, 42, 0
10, 41761, Note_on_c, 9, 35, 0
10, 41820, Note_on_c, 9, 42, 31
10, 41820, Note_on_c, 9, 70, 13
10, 41820, Note_on_c, 9, 69, 51
10, 41821, Note_on_c, 9, 69, 0
10, 41821, Note_on_c, 9, 70, 0
10, 41821, Note_on_c, 9, 42, 0
10, 41880, Note_on_c, 9, 42, 61
10, 41880, Note_on_c, 9, 37, 106
10, 41880, Note_on_c, 9, 70, 51
10, 41880, Note_on_c, 9, 69, 81
10, 41881, Note_on_c, 9, 69, 0
10, 41881, Note_on_c, 9, 42, 0
10, 41881, Note_on_c, 9, 37, 0
10, 41881, Note_on_c, 9, 70, 0
10, 41940, Note_on_c, 9, 35, 61
10, 41940, Note_on_c, 9, 42, 31
10, 41940, Note_on_c, 9, 70, 13
10, 41941, Note_on_c, 9, 70, 0
10, 41941, Note_on_c, 9, 42, 0
10, 41941, Note_on_c, 9, 35, 0
10, 42000, Note_on_c, 9, 35, 81
10, 42000, Note_on_c, 9, 42, 81
10, 42000, Note_on_c, 9, 70, 51
10, 42001, Note_on_c, 9, 70, 0
10, 42001, Note_on_c, 9, 42, 0
10, 42001, Note_on_c, 9, 35, 0
10, 42060, Note_on_c, 9, 42, 31
10, 42060, Note_on_c, 9, 70, 13
10, 42060, Note_on_c, 9, 69, 51
10, 42061, Note_on_c, 9, 69, 0
10, 42061, Note_on_c, 9, 70, 0
10, 42061, Note_on_c, 9, 42, 0
10, 42120, Note_on_c, 9, 42, 61
10, 42120, Note_on_c, 9, 37, 106
10, 42120, Note_on_c, 9, 70, 51
10, 42120, Note_on_c, 9, 69, 81
10, 42121, Note_on_c, 9, 69, 0
10, 42121, Note_on_c, 9, 42, 0
10, 42121, Note_on_c, 9, 37, 0
10, 42121, Note_on_c, 9, 70, 0
10, 42180, Note_on_c, 9, 35, 61
10, 42180, Note_on_c, 9, 42, 31
10, 42180, Note_on_c, 9, 70, 13
10, 42181, Note_on_c, 9, 70, 0
10, 42181, Note_on_c, 9, 42, 0
10, 42181, Note_on_c, 9, 35, 0
10, 42240, Note_on_c, 9, 35, 81
10, 42240, Note_on_c, 9, 42, 81
10, 42240, Note_on_c, 9, 70, 51
10, 42241, Note_on_c, 9, 70, 0
10, 42241, Note_on_c, 9, 42, 0
10, 42241, Note_on_c, 9, 35, 0
10, 42300, Note_on_c, 9, 42, 46
10, 42300, Note_on_c, 9, 70, 13
10, 42300, Note_on_c, 9, 69, 51
10, 42301, Note_on_c, 9, 69, 0
10, 42301, Note_on_c, 9, 70, 0
10, 42301, Note_on_c, 9, 42, 0
10, 42360, Note_on_c, 9, 42, 86
10, 42360, Note_on_c, 9, 37, 106
10, 42360, Note_on_c, 9, 70, 51
10, 42360, Note_on_c, 9, 69, 81
10, 42361, Note_on_c, 9, 69, 0
10, 42361, Note_on_c, 9, 42, 0
10, 42361, Note_on_c, 9, 37, 0
10, 42361, Note_on_c, 9, 70, 0
10, 42420, Note_on_c, 9, 35, 61
10, 42420, Note_on_c, 9, 42, 63
10, 42420, Note_on_c, 9, 70, 13
10, 42421, Note_on_c, 9, 70, 0
10, 42421, Note_on_c, 9, 42, 0
10, 42421, Note_on_c, 9, 35, 0
10, 42480, Note_on_c, 9, 35, 81
10, 42480, Note_on_c, 9, 42, 71
10, 42480, Note_on_c, 9, 70, 51
10, 42481, Note_on_c, 9, 70, 0
10, 42481, Note_on_c, 9, 42, 0
10, 42481, Note_on_c, 9, 35, 0
10, 42540, Note_on_c, 9, 42, 51
10, 42540, Note_on_c, 9, 70, 13
10, 42540, Note_on_c, 9, 69, 51
10, 42541, Note_on_c, 9, 69, 0
10, 42541, Note_on_c, 9, 70, 0
10, 42541, Note_on_c, 9, 42, 0
10, 42600, Note_on_c, 9, 42, 91
10, 42600, Note_on_c, 9, 37, 106
10, 42600, Note_on_c, 9, 70, 51
10, 42600, Note_on_c, 9, 69, 81
10, 42601, Note_on_c, 9, 69, 0
10, 42601, Note_on_c, 9, 42, 0
10, 42601, Note_on_c, 9, 37, 0
10, 42601, Note_on_c, 9, 70, 0
10, 42660, Note_on_c, 9, 35, 66
10, 42660, Note_on_c, 9, 46, 81
10, 42660, Note_on_c, 9, 70, 13
10, 42661, Note_on_c, 9, 70, 0
10, 42661, Note_on_c, 9, 46, 0
10, 42661, Note_on_c, 9, 35, 0
10, 42720, Note_on_c, 9, 35, 81
10, 42720, Note_on_c, 9, 42, 81
10, 42720, Note_on_c, 9, 70, 51
10, 42721, Note_on_c, 9, 70, 0
10, 42721, Note_on_c, 9, 42, 0
10, 42721, Note_on_c, 9, 35, 0
10, 42780, Note_on_c, 9, 42, 31
10, 42780, Note_on_c, 9, 70, 13
10, 42780, Note_on_c, 9, 69, 51
10, 42781, Note_on_c, 9, 69, 0
10, 42781, Note_on_c, 9, 70, 0
10, 42781, Note_on_c, 9, 42, 0
10, 42840, Note_on_c, 9, 42, 61
10, 42840, Note_on_c, 9, 37, 106
10, 42840, Note_on_c, 9, 70, 51
10, 42840, Note_on_c, 9, 69, 81
10, 42841, Note_on_c, 9, 69, 0
10, 42841, Note_on_c, 9, 42, 0
10, 42841, Note_on_c, 9, 37, 0
10, 42841, Note_on_c, 9, 70, 0
10, 42900, Note_on_c, 9, 35, 61
10, 42900, Note_on_c, 9, 42, 31
10, 42900, Note_on_c, 9, 70, 13
10, 42901, Note_on_c, 9, 70, 0
10, 42901, Note_on_c, 9, 42, 0
10, 42901, Note_on_c, 9, 35, 0
10, 42960, Note_on_c, 9, 35, 81
10, 42960, Note_on_c, 9, 42, 81
10, 42960, Note_on_c, 9, 70, 51
10, 42961, Note_on_c, 9, 70, 0
10, 42961, Note_on_c, 9, 42, 0
10, 42961, Note_on_c, 9, 35, 0
10, 43020, Note_on_c, 9, 42, 31
10, 43020, Note_on_c, 9, 70, 13
10, 43020, Note_on_c, 9, 69, 51
10, 43021, Note_on_c, 9, 69, 0
10, 43021, Note_on_c, 9, 70, 0
10, 43021, Note_on_c, 9, 42, 0
10, 43080, Note_on_c, 9, 42, 61
10, 43080, Note_on_c, 9, 37, 106
10, 43080, Note_on_c, 9, 70, 51
10, 43080, Note_on_c, 9, 69, 81
10, 43081, Note_on_c, 9, 69, 0
10, 43081, Note_on_c, 9, 42, 0
10, 43081, Note_on_c, 9, 37, 0
10, 43081, Note_on_c, 9, 70, 0
10, 43140, Note_on_c, 9, 35, 61
10, 43140, Note_on_c, 9, 42, 31
10, 43140, Note_on_c, 9, 70, 13
10, 43141, Note_on_c, 9, 70, 0
10, 43141, Note_on_c, 9, 42, 0
10, 43141, Note_on_c, 9, 35, 0
10, 43200, Note_on_c, 9, 35, 81
10, 43200, Note_on_c, 9, 42, 81
10, 43200, Note_on_c, 9, 70, 51
10, 43201, Note_on_c, 9, 70, 0
10, 43201, Note_on_c, 9, 42, 0
10, 43201, Note_on_c, 9, 35, 0
10, 43260, Note_on_c, 9, 42, 31
10, 43260, Note_on_c, 9, 70, 13
10, 43260, Note_on_c, 9, 69, 51
10, 43261, Note_on_c, 9, 69, 0
10, 43261, Note_on_c, 9, 70, 0
10, 43261, Note_on_c, 9, 42, 0
10, 43320, Note_on_c, 9, 42, 91
10, 43320, Note_on_c, 9, 37, 106
10, 43320, Note_on_c, 9, 70, 51
10, 43320, Note_on_c, 9, 69, 81
10, 43321, Note_on_c, 9, 69, 0
10, 43321, Note_on_c, 9, 42, 0
10, 43321, Note_on_c, 9, 37, 0
10, 43321, Note_on_c, 9, 70, 0
10, 43380, Note_on_c, 9, 35, 61
10, 43380, Note_on_c, 9, 42, 31
10, 43380, Note_on_c, 9, 70, 13
10, 43381, Note_on_c, 9, 70, 0
10, 43381, Note_on_c, 9, 42, 0
10, 43381, Note_on_c, 9, 35, 0
10, 43440, Note_on_c, 9, 35, 81
10, 43440, Note_on_c, 9, 42, 81
10, 43440, Note_on_c, 9, 70, 51
10, 43441, Note_on_c, 9, 70, 0
10, 43441, Note_on_c, 9, 42, 0
10, 43441, Note_on_c, 9, 35, 0
10, 43500, Note_on_c, 9, 42, 31
10, 43500, Note_on_c, 9, 70, 13
10, 43500, Note_on_c, 9, 69, 51
10, 43501, Note_on_c, 9, 69, 0
10, 43501, Note_on_c, 9, 70, 0
10, 43501, Note_on_c, 9, 42, 0
10, 43560, Note_on_c, 9, 42, 91
10, 43560, Note_on_c, 9, 37, 106
10, 43560, Note_on_c, 9, 70, 51
10, 43560, Note_on_c, 9, 69, 81
10, 43561, Note_on_c, 9, 69, 0
10, 43561, Note_on_c, 9, 42, 0
10, 43561, Note_on_c, 9, 37, 0
10, 43561, Note_on_c, 9, 70, 0
10, 43620, Note_on_c, 9, 35, 66
10, 43620, Note_on_c, 9, 46, 81
10, 43620, Note_on_c, 9, 70, 13
10, 43621, Note_on_c, 9, 70, 0
10, 43621, Note_on_c, 9, 46, 0
10, 43621, Note_on_c, 9, 35, 0
10, 43680, Note_on_c, 9, 35, 81
10, 43680, Note_on_c, 9, 42, 81
10, 43680, Note_on_c, 9, 70, 51
10, 43681, Note_on_c, 9, 70, 0
10, 43681, Note_on_c, 9, 42, 0
10, 43681, Note_on_c, 9, 35, 0
10, 43740, Note_on_c, 9, 42, 31
10, 43740, Note_on_c, 9, 70, 13
10, 43740, Note_on_c, 9, 69, 51
10, 43741, Note_on_c, 9, 69, 0
10, 43741, Note_on_c, 9, 70, 0
10, 43741, Note_on_c, 9, 42, 0
10, 43800, Note_on_c, 9, 42, 61
10, 43800, Note_on_c, 9, 37, 106
10, 43800, Note_on_c, 9, 70, 51
10, 43800, Note_on_c, 9, 69, 81
10, 43801, Note_on_c, 9, 69, 0
10, 43801, Note_on_c, 9, 42, 0
10, 43801, Note_on_c, 9, 37, 0
10, 43801, Note_on_c, 9, 70, 0
10, 43860, Note_on_c, 9, 35, 61
10, 43860, Note_on_c, 9, 42, 31
10, 43860, Note_on_c, 9, 70, 13
10, 43861, Note_on_c, 9, 70, 0
10, 43861, Note_on_c, 9, 42, 0
10, 43861, Note_on_c, 9, 35, 0
10, 43920, Note_on_c, 9, 35, 81
10, 43920, Note_on_c, 9, 42, 81
10, 43920, Note_on_c, 9, 70, 51
10, 43921, Note_on_c, 9, 70, 0
10, 43921, Note_on_c, 9, 42, 0
10, 43921, Note_on_c, 9, 35, 0
10, 43980, Note_on_c, 9, 42, 31
10, 43980, Note_on_c, 9, 70, 13
10, 43980, Note_on_c, 9, 69, 51
10, 43981, Note_on_c, 9, 69, 0
10, 43981, Note_on_c, 9, 70, 0
10, 43981, Note_on_c, 9, 42, 0
10, 44040, Note_on_c, 9, 42, 61
10, 44040, Note_on_c, 9, 37, 106
10, 44040, Note_on_c, 9, 70, 51
10, 44040, Note_on_c, 9, 69, 81
10, 44041, Note_on_c, 9, 69, 0
10, 44041, Note_on_c, 9, 42, 0
10, 44041, Note_on_c, 9, 37, 0
10, 44041, Note_on_c, 9, 70, 0
10, 44100, Note_on_c, 9, 35, 61
10, 44100, Note_on_c, 9, 42, 31
10, 44100, Note_on_c, 9, 70, 13
10, 44101, Note_on_c, 9, 70, 0
10, 44101, Note_on_c, 9, 42, 0
10, 44101, Note_on_c, 9, 35, 0
10, 44160, Note_on_c, 9, 35, 81
10, 44160, Note_on_c, 9, 42, 81
10, 44160, Note_on_c, 9, 70, 51
10, 44161, Note_on_c, 9, 70, 0
10, 44161, Note_on_c, 9, 42, 0
10, 44161, Note_on_c, 9, 35, 0
10, 44220, Note_on_c, 9, 42, 46
10, 44220, Note_on_c, 9, 70, 13
10, 44220, Note_on_c, 9, 69, 51
10, 44221, Note_on_c, 9, 69, 0
10, 44221, Note_on_c, 9, 70, 0
10, 44221, Note_on_c, 9, 42, 0
10, 44280, Note_on_c, 9, 42, 86
10, 44280, Note_on_c, 9, 37, 106
10, 44280, Note_on_c, 9, 70, 51
10, 44280, Note_on_c, 9, 69, 81
10, 44281, Note_on_c, 9, 69, 0
10, 44281, Note_on_c, 9, 42, 0
10, 44281, Note_on_c, 9, 37, 0
10, 44281, Note_on_c, 9, 70, 0
10, 44340, Note_on_c, 9, 35, 61
10, 44340, Note_on_c, 9, 42, 41
10, 44340, Note_on_c, 9, 70, 13
10, 44341, Note_on_c, 9, 70, 0
10, 44341, Note_on_c, 9, 42, 0
10, 44341, Note_on_c, 9, 35, 0
10, 44400, Note_on_c, 9, 35, 81
10, 44400, Note_on_c, 9, 42, 71
10, 44400, Note_on_c, 9, 70, 51
10, 44401, Note_on_c, 9, 70, 0
10, 44401, Note_on_c, 9, 42, 0
10, 44401, Note_on_c, 9, 35, 0
10, 44460, Note_on_c, 9, 42, 51
10, 44460, Note_on_c, 9, 70, 13
10, 44460, Note_on_c, 9, 69, 51
10, 44461, Note_on_c, 9, 69, 0
10, 44461, Note_on_c, 9, 70, 0
10, 44461, Note_on_c, 9, 42, 0
10, 44520, Note_on_c, 9, 42, 91
10, 44520, Note_on_c, 9, 37, 106
10, 44520, Note_on_c, 9, 70, 51
10, 44520, Note_on_c, 9, 69, 81
10, 44521, Note_on_c, 9, 69, 0
10, 44521, Note_on_c, 9, 42, 0
10, 44521, Note_on_c, 9, 37, 0
10, 44521, Note_on_c, 9, 70, 0
10, 44580, Note_on_c, 9, 35, 66
10, 44580, Note_on_c, 9, 46, 81
10, 44580, Note_on_c, 9, 70, 13
10, 44581, Note_on_c, 9, 70, 0
10, 44581, Note_on_c, 9, 46, 0
10, 44581, Note_on_c, 9, 35, 0
10, 44640, Note_on_c, 9, 35, 81
10, 44640, Note_on_c, 9, 42, 81
10, 44640, Note_on_c, 9, 70, 51
10, 44641, Note_on_c, 9, 70, 0
10, 44641, Note_on_c, 9, 42, 0
10, 44641, Note_on_c, 9, 35, 0
10, 44700, Note_on_c, 9, 42, 31
10, 44700, Note_on_c, 9, 70, 13
10, 44700, Note_on_c, 9, 69, 51
10, 44701, Note_on_c, 9, 69, 0
10, 44701, Note_on_c, 9, 70, 0
10, 44701, Note_on_c, 9, 42, 0
10, 44760, Note_on_c, 9, 42, 61
10, 44760, Note_on_c, 9, 37, 106
10, 44760, Note_on_c, 9, 70, 51
10, 44760, Note_on_c, 9, 69, 81
10, 44761, Note_on_c, 9, 69, 0
10, 44761, Note_on_c, 9, 42, 0
10, 44761, Note_on_c, 9, 37, 0
10, 44761, Note_on_c, 9, 70, 0
10, 44820, Note_on_c, 9, 35, 61
10, 44820, Note_on_c, 9, 42, 31
10, 44820, Note_on_c, 9, 70, 13
10, 44821, Note_on_c, 9, 70, 0
10, 44821, Note_on_c, 9, 42, 0
10, 44821, Note_on_c, 9, 35, 0
10, 44880, Note_on_c, 9, 35, 81
10, 44880, Note_on_c, 9, 42, 81
10, 44880, Note_on_c, 9, 70, 51
10, 44881, Note_on_c, 9, 70, 0
10, 44881, Note_on_c, 9, 42, 0
10, 44881, Note_on_c, 9, 35, 0
10, 44940, Note_on_c, 9, 42, 31
10, 44940, Note_on_c, 9, 70, 13
10, 44940, Note_on_c, 9, 69, 51
10, 44941, Note_on_c, 9, 69, 0
10, 44941, Note_on_c, 9, 70, 0
10, 44941, Note_on_c, 9, 42, 0
10, 45000, Note_on_c, 9, 42, 61
10, 45000, Note_on_c, 9, 37, 106
10, 45000, Note_on_c, 9, 70, 51
10, 45000, Note_on_c, 9, 69, 81
10, 45001, Note_on_c, 9, 69, 0
10, 45001, Note_on_c, 9, 42, 0
10, 45001, Note_on_c, 9, 37, 0
10, 45001, Note_on_c, 9, 70, 0
10, 45060, Note_on_c, 9, 35, 61
10, 45060, Note_on_c, 9, 42, 31
10, 45060, Note_on_c, 9, 70, 13
10, 45061, Note_on_c, 9, 70, 0
10, 45061, Note_on_c, 9, 42, 0
10, 45061, Note_on_c, 9, 35, 0
10, 45120, Note_on_c, 9, 35, 81
10, 45120, Note_on_c, 9, 42, 81
10, 45120, Note_on_c, 9, 70, 51
10, 45121, Note_on_c, 9, 70, 0
10, 45121, Note_on_c, 9, 42, 0
10, 45121, Note_on_c, 9, 35, 0
10, 45180, Note_on_c, 9, 42, 31
10, 45180, Note_on_c, 9, 70, 13
10, 45180, Note_on_c, 9, 69, 51
10, 45181, Note_on_c, 9, 69, 0
10, 45181, Note_on_c, 9, 70, 0
10, 45181, Note_on_c, 9, 42, 0
10, 45240, Note_on_c, 9, 42, 91
10, 45240, Note_on_c, 9, 37, 106
10, 45240, Note_on_c, 9, 70, 51
10, 45240, Note_on_c, 9, 69, 81
10, 45241, Note_on_c, 9, 69, 0
10, 45241, Note_on_c, 9, 42, 0
10, 45241, Note_on_c, 9, 37, 0
10, 45241, Note_on_c, 9, 70, 0
10, 45300, Note_on_c, 9, 35, 61
10, 45300, Note_on_c, 9, 42, 31
10, 45300, Note_on_c, 9, 70, 13
10, 45301, Note_on_c, 9, 70, 0
10, 45301, Note_on_c, 9, 42, 0
10, 45301, Note_on_c, 9, 35, 0
10, 45360, Note_on_c, 9, 35, 81
10, 45360, Note_on_c, 9, 42, 81
10, 45360, Note_on_c, 9, 70, 51
10, 45361, Note_on_c, 9, 70, 0
10, 45361, Note_on_c, 9, 42, 0
10, 45361, Note_on_c, 9, 35, 0
10, 45420, Note_on_c, 9, 42, 31
10, 45420, Note_on_c, 9, 70, 13
10, 45420, Note_on_c, 9, 69, 51
10, 45421, Note_on_c, 9, 69, 0
10, 45421, Note_on_c, 9, 70, 0
10, 45421, Note_on_c, 9, 42, 0
10, 45480, Note_on_c, 9, 42, 91
10, 45480, Note_on_c, 9, 37, 106
10, 45480, Note_on_c, 9, 70, 51
10, 45480, Note_on_c, 9, 69, 81
10, 45481, Note_on_c, 9, 69, 0
10, 45481, Note_on_c, 9, 42, 0
10, 45481, Note_on_c, 9, 37, 0
10, 45481, Note_on_c, 9, 70, 0
10, 45540, Note_on_c, 9, 35, 66
10, 45540, Note_on_c, 9, 46, 81
10, 45540, Note_on_c, 9, 70, 13
10, 45541, Note_on_c, 9, 70, 0
10, 45541, Note_on_c, 9, 46, 0
10, 45541, Note_on_c, 9, 35, 0
10, 45600, Note_on_c, 9, 35, 81
10, 45600, Note_on_c, 9, 42, 81
10, 45600, Note_on_c, 9, 70, 51
10, 45601, Note_on_c, 9, 70, 0
10, 45601, Note_on_c, 9, 42, 0
10, 45601, Note_on_c, 9, 35, 0
10, 45660, Note_on_c, 9, 42, 31
10, 45660, Note_on_c, 9, 70, 13
10, 45660, Note_on_c, 9, 69, 51
10, 45661, Note_on_c, 9, 69, 0
10, 45661, Note_on_c, 9, 70, 0
10, 45661, Note_on_c, 9, 42, 0
10, 45720, Note_on_c, 9, 42, 71
10, 45720, Note_on_c, 9, 37, 106
10, 45720, Note_on_c, 9, 70, 51
10, 45720, Note_on_c, 9, 69, 81
10, 45721, Note_on_c, 9, 69, 0
10, 45721, Note_on_c, 9, 42, 0
10, 45721, Note_on_c, 9, 37, 0
10, 45721, Note_on_c, 9, 70, 0
10, 45780, Note_on_c, 9, 35, 61
10, 45780, Note_on_c, 9, 42, 31
10, 45780, Note_on_c, 9, 70, 13
10, 45781, Note_on_c, 9, 70, 0
10, 45781, Note_on_c, 9, 42, 0
10, 45781, Note_on_c, 9, 35, 0
10, 45840, Note_on_c, 9, 35, 81
10, 45840, Note_on_c, 9, 42, 81
10, 45840, Note_on_c, 9, 70, 51
10, 45841, Note_on_c, 9, 70, 0
10, 45841, Note_on_c, 9, 42, 0
10, 45841, Note_on_c, 9, 35, 0
10, 45900, Note_on_c, 9, 42, 31
10, 45900, Note_on_c, 9, 70, 13
10, 45900, Note_on_c, 9, 69, 51
10, 45901, Note_on_c, 9, 69, 0
10, 45901, Note_on_c, 9, 70, 0
10, 45901, Note_on_c, 9, 42, 0
10, 45960, Note_on_c, 9, 42, 71
10, 45960, Note_on_c, 9, 37, 106
10, 45960, Note_on_c, 9, 70, 51
10, 45960, Note_on_c, 9, 69, 81
10, 45961, Note_on_c, 9, 69, 0
10, 45961, Note_on_c, 9, 42, 0
10, 45961, Note_on_c, 9, 37, 0
10, 45961, Note_on_c, 9, 70, 0
10, 46020, Note_on_c, 9, 35, 61
10, 46020, Note_on_c, 9, 42, 31
10, 46020, Note_on_c, 9, 70, 13
10, 46021, Note_on_c, 9, 70, 0
10, 46021, Note_on_c, 9, 42, 0
10, 46021, Note_on_c, 9, 35, 0
10, 46080, Note_on_c, 9, 35, 81
10, 46080, Note_on_c, 9, 42, 81
10, 46080, Note_on_c, 9, 70, 51
10, 46081, Note_on_c, 9, 70, 0
10, 46081, Note_on_c, 9, 42, 0
10, 46081, Note_on_c, 9, 35, 0
10, 46140, Note_on_c, 9, 42, 31
10, 46140, Note_on_c, 9, 70, 13
10, 46140, Note_on_c, 9, 69, 51
10, 46141, Note_on_c, 9, 69, 0
10, 46141, Note_on_c, 9, 70, 0
10, 46141, Note_on_c, 9, 42, 0
10, 46200, Note_on_c, 9, 42, 91
10, 46200, Note_on_c, 9, 37, 106
10, 46200, Note_on_c, 9, 70, 51
10, 46200, Note_on_c, 9, 69, 81
10, 46201, Note_on_c, 9, 69, 0
10, 46201, Note_on_c, 9, 42, 0
10, 46201, Note_on_c, 9, 37, 0
10, 46201, Note_on_c, 9, 70, 0
10, 46260, Note_on_c, 9, 35, 61
10, 46260, Note_on_c, 9, 42, 31
10, 46260, Note_on_c, 9, 70, 13
10, 46261, Note_on_c, 9, 70, 0
10, 46261, Note_on_c, 9, 42, 0
10, 46261, Note_on_c, 9, 35, 0
10, 46320, Note_on_c, 9, 35, 81
10, 46320, Note_on_c, 9, 42, 81
10, 46320, Note_on_c, 9, 70, 51
10, 46321, Note_on_c, 9, 70, 0
10, 46321, Note_on_c, 9, 42, 0
10, 46321, Note_on_c, 9, 35, 0
10, 46380, Note_on_c, 9, 42, 31
10, 46380, Note_on_c, 9, 70, 13
10, 46380, Note_on_c, 9, 69, 51
10, 46381, Note_on_c, 9, 69, 0
10, 46381, Note_on_c, 9, 70, 0
10, 46381, Note_on_c, 9, 42, 0
10, 46440, Note_on_c, 9, 42, 91
10, 46440, Note_on_c, 9, 37, 106
10, 46440, Note_on_c, 9, 70, 51
10, 46440, Note_on_c, 9, 69, 81
10, 46441, Note_on_c, 9, 69, 0
10, 46441, Note_on_c, 9, 42, 0
10, 46441, Note_on_c, 9, 37, 0
10, 46441, Note_on_c, 9, 70, 0
10, 46500, Note_on_c, 9, 35, 66
10, 46500, Note_on_c, 9, 46, 81
10, 46500, Note_on_c, 9, 70, 13
10, 46501, Note_on_c, 9, 70, 0
10, 46501, Note_on_c, 9, 46, 0
10, 46501, Note_on_c, 9, 35, 0
10, 46560, Note_on_c, 9, 35, 81
10, 46560, Note_on_c, 9, 42, 81
10, 46560, Note_on_c, 9, 70, 51
10, 46561, Note_on_c, 9, 70, 0
10, 46561, Note_on_c, 9, 42, 0
10, 46561, Note_on_c, 9, 35, 0
10, 46620, Note_on_c, 9, 46, 45
10, 46620, Note_on_c, 9, 70, 13
10, 46620, Note_on_c, 9, 69, 51
10, 46621, Note_on_c, 9, 69, 0
10, 46621, Note_on_c, 9, 70, 0
10, 46621, Note_on_c, 9, 46, 0
10, 46680, Note_on_c, 9, 42, 71
10, 46680, Note_on_c, 9, 37, 106
10, 46680, Note_on_c, 9, 70, 51
10, 46680, Note_on_c, 9, 69, 81
10, 46681, Note_on_c, 9, 69, 0
10, 46681, Note_on_c, 9, 42, 0
10, 46681, Note_on_c, 9, 37, 0
10, 46681, Note_on_c, 9, 70, 0
10, 46740, Note_on_c, 9, 35, 61
10, 46740, Note_on_c, 9, 42, 31
10, 46740, Note_on_c, 9, 70, 13
10, 46741, Note_on_c, 9, 70, 0
10, 46741, Note_on_c, 9, 42, 0
10, 46741, Note_on_c, 9, 35, 0
10, 46800, Note_on_c, 9, 35, 81
10, 46800, Note_on_c, 9, 42, 81
10, 46800, Note_on_c, 9, 70, 51
10, 46801, Note_on_c, 9, 70, 0
10, 46801, Note_on_c, 9, 42, 0
10, 46801, Note_on_c, 9, 35, 0
10, 46860, Note_on_c, 9, 42, 31
10, 46860, Note_on_c, 9, 70, 13
10, 46860, Note_on_c, 9, 69, 51
10, 46861, Note_on_c, 9, 69, 0
10, 46861, Note_on_c, 9, 70, 0
10, 46861, Note_on_c, 9, 42, 0
10, 46920, Note_on_c, 9, 42, 71
10, 46920, Note_on_c, 9, 37, 106
10, 46920, Note_on_c, 9, 70, 51
10, 46920, Note_on_c, 9, 69, 81
10, 46921, Note_on_c, 9, 69, 0
10, 46921, Note_on_c, 9, 42, 0
10, 46921, Note_on_c, 9, 37, 0
10, 46921, Note_on_c, 9, 70, 0
10, 46980, Note_on_c, 9, 35, 61
10, 46980, Note_on_c, 9, 42, 31
10, 46980, Note_on_c, 9, 70, 13
10, 46981, Note_on_c, 9, 70, 0
10, 46981, Note_on_c, 9, 42, 0
10, 46981, Note_on_c, 9, 35, 0
10, 47040, Note_on_c, 9, 35, 81
10, 47040, Note_on_c, 9, 42, 81
10, 47040, Note_on_c, 9, 70, 51
10, 47041, Note_on_c, 9, 70, 0
10, 47041, Note_on_c, 9, 42, 0
10, 47041, Note_on_c, 9, 35, 0
10, 47100, Note_on_c, 9, 42, 46
10, 47100, Note_on_c, 9, 70, 13
10, 47100, Note_on_c, 9, 69, 51
10, 47101, Note_on_c, 9, 69, 0
10, 47101, Note_on_c, 9, 70, 0
10, 47101, Note_on_c, 9, 42, 0
10, 47160, Note_on_c, 9, 42, 86
10, 47160, Note_on_c, 9, 37, 106
10, 47160, Note_on_c, 9, 70, 51
10, 47160, Note_on_c, 9, 69, 81
10, 47161, Note_on_c, 9, 69, 0
10, 47161, Note_on_c, 9, 42, 0
10, 47161, Note_on_c, 9, 37, 0
10, 47161, Note_on_c, 9, 70, 0
10, 47220, Note_on_c, 9, 35, 61
10, 47220, Note_on_c, 9, 42, 63
10, 47220, Note_on_c, 9, 70, 13
10, 47221, Note_on_c, 9, 70, 0
10, 47221, Note_on_c, 9, 42, 0
10, 47221, Note_on_c, 9, 35, 0
10, 47280, Note_on_c, 9, 35, 81
10, 47280, Note_on_c, 9, 42, 99
10, 47280, Note_on_c, 9, 70, 51
10, 47281, Note_on_c, 9, 70, 0
10, 47281, Note_on_c, 9, 42, 0
10, 47281, Note_on_c, 9, 35, 0
10, 47340, Note_on_c, 9, 42, 81
10, 47340, Note_on_c, 9, 70, 13
10, 47340, Note_on_c, 9, 69, 51
10, 47341, Note_on_c, 9, 69, 0
10, 47341, Note_on_c, 9, 70, 0
10, 47341, Note_on_c, 9, 42, 0
10, 47400, Note_on_c, 9, 42, 91
10, 47400, Note_on_c, 9, 37, 106
10, 47400, Note_on_c, 9, 70, 51
10, 47400, Note_on_c, 9, 69, 81
10, 47401, Note_on_c, 9, 69, 0
10, 47401, Note_on_c, 9, 42, 0
10, 47401, Note_on_c, 9, 37, 0
10, 47401, Note_on_c, 9, 70, 0
10, 47460, Note_on_c, 9, 35, 66
10, 47460, Note_on_c, 9, 46, 81
10, 47460, Note_on_c, 9, 70, 13
10, 47461, Note_on_c, 9, 70, 0
10, 47461, Note_on_c, 9, 46, 0
10, 47461, Note_on_c, 9, 35, 0
10, 47520, Note_on_c, 9, 35, 81
10, 47520, Note_on_c, 9, 42, 81
10, 47520, Note_on_c, 9, 70, 51
10, 47521, Note_on_c, 9, 70, 0
10, 47521, Note_on_c, 9, 42, 0
10, 47521, Note_on_c, 9, 35, 0
10, 47580, Note_on_c, 9, 42, 31
10, 47580, Note_on_c, 9, 70, 13
10, 47580, Note_on_c, 9, 69, 51
10, 47581, Note_on_c, 9, 69, 0
10, 47581, Note_on_c, 9, 70, 0
10, 47581, Note_on_c, 9, 42, 0
10, 47640, Note_on_c, 9, 42, 61
10, 47640, Note_on_c, 9, 37, 106
10, 47640, Note_on_c, 9, 70, 51
10, 47640, Note_on_c, 9, 69, 81
10, 47641, Note_on_c, 9, 69, 0
10, 47641, Note_on_c, 9, 42, 0
10, 47641, Note_on_c, 9, 37, 0
10, 47641, Note_on_c, 9, 70, 0
10, 47700, Note_on_c, 9, 35, 61
10, 47700, Note_on_c, 9, 42, 31
10, 47700, Note_on_c, 9, 70, 13
10, 47701, Note_on_c, 9, 70, 0
10, 47701, Note_on_c, 9, 42, 0
10, 47701, Note_on_c, 9, 35, 0
10, 47760, Note_on_c, 9, 35, 81
10, 47760, Note_on_c, 9, 42, 81
10, 47760, Note_on_c, 9, 70, 51
10, 47761, Note_on_c, 9, 70, 0
10, 47761, Note_on_c, 9, 42, 0
10, 47761, Note_on_c, 9, 35, 0
10, 47820, Note_on_c, 9, 42, 31
10, 47820, Note_on_c, 9, 70, 13
10, 47820, Note_on_c, 9, 69, 51
10, 47821, Note_on_c, 9, 69, 0
10, 47821, Note_on_c, 9, 70, 0
10, 47821, Note_on_c, 9, 42, 0
10, 47880, Note_on_c, 9, 42, 61
10, 47880, Note_on_c, 9, 37, 106
10, 47880, Note_on_c, 9, 70, 51
10, 47880, Note_on_c, 9, 69, 81
10, 47881, Note_on_c, 9, 69, 0
10, 47881, Note_on_c, 9, 42, 0
10, 47881, Note_on_c, 9, 37, 0
10, 47881, Note_on_c, 9, 70, 0
10, 47940, Note_on_c, 9, 35, 61
10, 47940, Note_on_c, 9, 42, 31
10, 47940, Note_on_c, 9, 70, 13
10, 47941, Note_on_c, 9, 70, 0
10, 47941, Note_on_c, 9, 42, 0
10, 47941, Note_on_c, 9, 35, 0
10, 48000, Note_on_c, 9, 35, 79
10, 48000, Note_on_c, 9, 42, 79
10, 48000, Note_on_c, 9, 54, 79
10, 48000, Note_on_c, 9, 70, 49
10, 48001, Note_on_c, 9, 70, 0
10, 48001, Note_on_c, 9, 35, 0
10, 48001, Note_on_c, 9, 42, 0
10, 48001, Note_on_c, 9, 54, 0
10, 48060, Note_on_c, 9, 42, 35
10, 48060, Note_on_c, 9, 70, 13
10, 48060, Note_on_c, 9, 69, 51
10, 48061, Note_on_c, 9, 69, 0
10, 48061, Note_on_c, 9, 70, 0
10, 48061, Note_on_c, 9, 42, 0
10, 48120, Note_on_c, 9, 42, 91
10, 48120, Note_on_c, 9, 37, 106
10, 48120, Note_on_c, 9, 54, 51
10, 48120, Note_on_c, 9, 39, 71
10, 48120, Note_on_c, 9, 70, 51
10, 48120, Note_on_c, 9, 69, 81
10, 48121, Note_on_c, 9, 69, 0
10, 48121, Note_on_c, 9, 37, 0
10, 48121, Note_on_c, 9, 54, 0
10, 48121, Note_on_c, 9, 42, 0
10, 48121, Note_on_c, 9, 70, 0
10, 48121, Note_on_c, 9, 39, 0
10, 48180, Note_on_c, 9, 35, 61
10, 48180, Note_on_c, 9, 48, 91
10, 48180, Note_on_c, 9, 70, 13
10, 48181, Note_on_c, 9, 70, 0
10, 48181, Note_on_c, 9, 48, 0
10, 48181, Note_on_c, 9, 35, 0
10, 48240, Note_on_c, 9, 35, 81
10, 48240, Note_on_c, 9, 54, 81
10, 48240, Note_on_c, 9, 70, 51
10, 48241, Note_on_c, 9, 70, 0
10, 48241, Note_on_c, 9, 54, 0
10, 48241, Note_on_c, 9, 35, 0
10, 48241, End_track
11, 0, Start_track
11, 0, MIDI_port, 0
11, 0, Title_t, "Strings"
11, 5, Control_c, 10, 121, 0
11, 5, Control_c, 10, 123, 0
11, 5, Control_c, 10, 1, 0
11, 5, Control_c, 10, 91, 45
11, 5, Control_c, 10, 93, 40
11, 172, Program_c, 10, 50
11, 173, Control_c, 10, 7, 84
11, 173, Control_c, 10, 10, 79
11, 1205, Note_on_c, 10, 72, 80
11, 1205, Note_on_c, 10, 76, 80
11, 1385, Note_on_c, 10, 76, 0
11, 1385, Note_on_c, 10, 72, 0
11, 1385, Note_on_c, 10, 71, 80
11, 1385, Note_on_c, 10, 74, 80
11, 1445, Note_on_c, 10, 74, 0
11, 1445, Note_on_c, 10, 71, 0
11, 1445, Note_on_c, 10, 74, 80
11, 1445, Note_on_c, 10, 77, 80
11, 1505, Note_on_c, 10, 77, 0
11, 1505, Note_on_c, 10, 74, 0
11, 1505, Note_on_c, 10, 72, 80
11, 1505, Note_on_c, 10, 76, 80
11, 1685, Note_on_c, 10, 76, 0
11, 1685, Note_on_c, 10, 72, 0
11, 1685, Note_on_c, 10, 71, 80
11, 1685, Note_on_c, 10, 74, 80
11, 1805, Note_on_c, 10, 74, 0
11, 1805, Note_on_c, 10, 71, 0
11, 1805, Note_on_c, 10, 69, 80
11, 1805, Note_on_c, 10, 72, 80
11, 1925, Note_on_c, 10, 72, 0
11, 1925, Note_on_c, 10, 69, 0
11, 1925, Note_on_c, 10, 64, 80
11, 1925, Note_on_c, 10, 67, 80
11, 2285, Note_on_c, 10, 67, 0
11, 2285, Note_on_c, 10, 64, 0
11, 2285, Note_on_c, 10, 62, 80
11, 2285, Note_on_c, 10, 65, 80
11, 2405, Note_on_c, 10, 65, 0
11, 2405, Note_on_c, 10, 62, 0
11, 2405, Note_on_c, 10, 60, 80
11, 2405, Note_on_c, 10, 64, 80
11, 2645, Note_on_c, 10, 64, 0
11, 2645, Note_on_c, 10, 60, 0
11, 2645, Note_on_c, 10, 59, 80
11, 2645, Note_on_c, 10, 62, 80
11, 2825, Note_on_c, 10, 62, 0
11, 2825, Note_on_c, 10, 59, 0
11, 2825, Note_on_c, 10, 55, 80
11, 2885, Note_on_c, 10, 55, 0
11, 2885, Note_on_c, 10, 60, 80
11, 3005, Note_on_c, 10, 60, 0
11, 3005, Note_on_c, 10, 67, 80
11, 3065, Note_on_c, 10, 67, 0
11, 3065, Note_on_c, 10, 60, 80
11, 3065, Note_on_c, 10, 64, 80
11, 3065, Note_on_c, 10, 67, 80
11, 3245, Note_on_c, 10, 67, 0
11, 3245, Note_on_c, 10, 69, 80
11, 3365, Note_on_c, 10, 69, 0
11, 3365, Note_on_c, 10, 64, 0
11, 3365, Note_on_c, 10, 60, 0
11, 3665, Note_on_c, 10, 60, 80
11, 3725, Note_on_c, 10, 60, 0
11, 3725, Note_on_c, 10, 60, 80
11, 3845, Note_on_c, 10, 60, 0
11, 3845, Note_on_c, 10, 59, 80
11, 3965, Note_on_c, 10, 59, 0
11, 3965, Note_on_c, 10, 67, 80
11, 4085, Note_on_c, 10, 67, 0
11, 4085, Note_on_c, 10, 67, 80
11, 4145, Note_on_c, 10, 67, 0
11, 4145, Note_on_c, 10, 69, 80
11, 4325, Note_on_c, 10, 69, 0
11, 4805, Note_on_c, 10, 70, 80
11, 4865, Note_on_c, 10, 70, 0
11, 4865, Note_on_c, 10, 70, 80
11, 5045, Note_on_c, 10, 70, 0
11, 5045, Note_on_c, 10, 70, 80
11, 5165, Note_on_c, 10, 70, 0
11, 5165, Note_on_c, 10, 72, 80
11, 5285, Note_on_c, 10, 72, 0
11, 5285, Note_on_c, 10, 74, 80
11, 5315, Note_on_c, 10, 74, 0
11, 5315, Note_on_c, 10, 72, 80
11, 5345, Note_on_c, 10, 72, 0
11, 5345, Note_on_c, 10, 74, 80
11, 5465, Note_on_c, 10, 74, 0
11, 5465, Note_on_c, 10, 72, 80
11, 5525, Note_on_c, 10, 72, 0
11, 5525, Note_on_c, 10, 72, 80
11, 5645, Note_on_c, 10, 72, 0
11, 5645, Note_on_c, 10, 72, 80
11, 5765, Note_on_c, 10, 72, 0
11, 5765, Note_on_c, 10, 60, 80
11, 5765, Note_on_c, 10, 65, 80
11, 5765, Note_on_c, 10, 70, 80
11, 5825, Note_on_c, 10, 70, 0
11, 5825, Note_on_c, 10, 65, 0
11, 5825, Note_on_c, 10, 60, 0
11, 5825, Note_on_c, 10, 69, 80
11, 5945, Note_on_c, 10, 69, 0
11, 5945, Note_on_c, 10, 60, 80
11, 5945, Note_on_c, 10, 65, 80
11, 5945, Note_on_c, 10, 69, 80
11, 6245, Note_on_c, 10, 69, 0
11, 6245, Note_on_c, 10, 65, 0
11, 6245, Note_on_c, 10, 60, 0
11, 6725, Note_on_c, 10, 60, 80
11, 6845, Note_on_c, 10, 60, 0
11, 6845, Note_on_c, 10, 67, 80
11, 6905, Note_on_c, 10, 67, 0
11, 6905, Note_on_c, 10, 60, 80
11, 6905, Note_on_c, 10, 64, 80
11, 6905, Note_on_c, 10, 67, 80
11, 7205, Note_on_c, 10, 67, 0
11, 7205, Note_on_c, 10, 64, 0
11, 7205, Note_on_c, 10, 60, 0
11, 7565, Note_on_c, 10, 60, 80
11, 7625, Note_on_c, 10, 60, 0
11, 7625, Note_on_c, 10, 60, 80
11, 7685, Note_on_c, 10, 60, 0
11, 7685, Note_on_c, 10, 59, 80
11, 7745, Note_on_c, 10, 59, 0
11, 7745, Note_on_c, 10, 67, 80
11, 7865, Note_on_c, 10, 67, 0
11, 7865, Note_on_c, 10, 67, 80
11, 7925, Note_on_c, 10, 67, 0
11, 7925, Note_on_c, 10, 59, 80
11, 7925, Note_on_c, 10, 64, 80
11, 7925, Note_on_c, 10, 69, 80
11, 8165, Note_on_c, 10, 69, 0
11, 8165, Note_on_c, 10, 64, 0
11, 8165, Note_on_c, 10, 59, 0
11, 8645, Note_on_c, 10, 70, 80
11, 8705, Note_on_c, 10, 70, 0
11, 8705, Note_on_c, 10, 70, 80
11, 8885, Note_on_c, 10, 70, 0
11, 8885, Note_on_c, 10, 70, 80
11, 9005, Note_on_c, 10, 70, 0
11, 9005, Note_on_c, 10, 72, 80
11, 9125, Note_on_c, 10, 72, 0
11, 9125, Note_on_c, 10, 72, 80
11, 9185, Note_on_c, 10, 72, 0
11, 9185, Note_on_c, 10, 74, 80
11, 9305, Note_on_c, 10, 74, 0
11, 9305, Note_on_c, 10, 64, 80
11, 9365, Note_on_c, 10, 64, 0
11, 9365, Note_on_c, 10, 72, 80
11, 9425, Note_on_c, 10, 72, 0
11, 9425, Note_on_c, 10, 72, 80
11, 9605, Note_on_c, 10, 72, 0
11, 9605, Note_on_c, 10, 60, 80
11, 9605, Note_on_c, 10, 65, 80
11, 9605, Note_on_c, 10, 70, 80
11, 9665, Note_on_c, 10, 70, 0
11, 9665, Note_on_c, 10, 65, 0
11, 9665, Note_on_c, 10, 60, 0
11, 9665, Note_on_c, 10, 69, 80
11, 9785, Note_on_c, 10, 69, 0
11, 9785, Note_on_c, 10, 60, 80
11, 9785, Note_on_c, 10, 65, 80
11, 9785, Note_on_c, 10, 69, 80
11, 10085, Note_on_c, 10, 69, 0
11, 10085, Note_on_c, 10, 65, 0
11, 10085, Note_on_c, 10, 60, 0
11, 10505, Note_on_c, 10, 60, 80
11, 10565, Note_on_c, 10, 60, 0
11, 10565, Note_on_c, 10, 69, 80
11, 10625, Note_on_c, 10, 69, 0
11, 10625, Note_on_c, 10, 69, 80
11, 10805, Note_on_c, 10, 69, 0
11, 10805, Note_on_c, 10, 69, 80
11, 10925, Note_on_c, 10, 69, 0
11, 10925, Note_on_c, 10, 71, 80
11, 10985, Note_on_c, 10, 71, 0
11, 10985, Note_on_c, 10, 72, 80
11, 11165, Note_on_c, 10, 72, 0
11, 11165, Note_on_c, 10, 72, 80
11, 11285, Note_on_c, 10, 72, 0
11, 11285, Note_on_c, 10, 71, 80
11, 11405, Note_on_c, 10, 71, 0
11, 11405, Note_on_c, 10, 69, 80
11, 11525, Note_on_c, 10, 69, 0
11, 11525, Note_on_c, 10, 69, 80
11, 11585, Note_on_c, 10, 69, 0
11, 11585, Note_on_c, 10, 67, 80
11, 12005, Note_on_c, 10, 67, 0
11, 12185, Note_on_c, 10, 55, 80
11, 12245, Note_on_c, 10, 55, 0
11, 12245, Note_on_c, 10, 57, 80
11, 12365, Note_on_c, 10, 57, 0
11, 12365, Note_on_c, 10, 60, 80
11, 12485, Note_on_c, 10, 60, 0
11, 12485, Note_on_c, 10, 65, 80
11, 12545, Note_on_c, 10, 65, 0
11, 12545, Note_on_c, 10, 65, 80
11, 12725, Note_on_c, 10, 65, 0
11, 12725, Note_on_c, 10, 65, 80
11, 12845, Note_on_c, 10, 65, 0
11, 12845, Note_on_c, 10, 65, 80
11, 12965, Note_on_c, 10, 65, 0
11, 12965, Note_on_c, 10, 65, 80
11, 13085, Note_on_c, 10, 65, 0
11, 13085, Note_on_c, 10, 62, 80
11, 13205, Note_on_c, 10, 62, 0
11, 13205, Note_on_c, 10, 60, 80
11, 13325, Note_on_c, 10, 60, 0
11, 13325, Note_on_c, 10, 59, 80
11, 13445, Note_on_c, 10, 59, 0
11, 13445, Note_on_c, 10, 60, 80
11, 13925, Note_on_c, 10, 60, 0
11, 14345, Note_on_c, 10, 55, 80
11, 14405, Note_on_c, 10, 55, 0
11, 14405, Note_on_c, 10, 60, 80
11, 14525, Note_on_c, 10, 60, 0
11, 14525, Note_on_c, 10, 67, 80
11, 14585, Note_on_c, 10, 67, 0
11, 14585, Note_on_c, 10, 60, 80
11, 14585, Note_on_c, 10, 64, 80
11, 14585, Note_on_c, 10, 67, 80
11, 14765, Note_on_c, 10, 67, 0
11, 14765, Note_on_c, 10, 69, 80
11, 14885, Note_on_c, 10, 69, 0
11, 14885, Note_on_c, 10, 64, 0
11, 14885, Note_on_c, 10, 60, 0
11, 15185, Note_on_c, 10, 60, 80
11, 15245, Note_on_c, 10, 60, 0
11, 15245, Note_on_c, 10, 60, 80
11, 15365, Note_on_c, 10, 60, 0
11, 15365, Note_on_c, 10, 59, 80
11, 15485, Note_on_c, 10, 59, 0
11, 15485, Note_on_c, 10, 67, 80
11, 15605, Note_on_c, 10, 67, 0
11, 15605, Note_on_c, 10, 67, 80
11, 15665, Note_on_c, 10, 67, 0
11, 15665, Note_on_c, 10, 69, 80
11, 15845, Note_on_c, 10, 69, 0
11, 16325, Note_on_c, 10, 70, 80
11, 16385, Note_on_c, 10, 70, 0
11, 16385, Note_on_c, 10, 70, 80
11, 16565, Note_on_c, 10, 70, 0
11, 16565, Note_on_c, 10, 70, 80
11, 16685, Note_on_c, 10, 70, 0
11, 16685, Note_on_c, 10, 72, 80
11, 16805, Note_on_c, 10, 72, 0
11, 16805, Note_on_c, 10, 74, 80
11, 16835, Note_on_c, 10, 74, 0
11, 16835, Note_on_c, 10, 72, 80
11, 16865, Note_on_c, 10, 72, 0
11, 16865, Note_on_c, 10, 74, 80
11, 16985, Note_on_c, 10, 74, 0
11, 16985, Note_on_c, 10, 72, 80
11, 17045, Note_on_c, 10, 72, 0
11, 17045, Note_on_c, 10, 72, 80
11, 17165, Note_on_c, 10, 72, 0
11, 17165, Note_on_c, 10, 72, 80
11, 17285, Note_on_c, 10, 72, 0
11, 17285, Note_on_c, 10, 60, 80
11, 17285, Note_on_c, 10, 65, 80
11, 17285, Note_on_c, 10, 70, 80
11, 17345, Note_on_c, 10, 70, 0
11, 17345, Note_on_c, 10, 65, 0
11, 17345, Note_on_c, 10, 60, 0
11, 17345, Note_on_c, 10, 69, 80
11, 17465, Note_on_c, 10, 69, 0
11, 17465, Note_on_c, 10, 60, 80
11, 17465, Note_on_c, 10, 65, 80
11, 17465, Note_on_c, 10, 69, 80
11, 17765, Note_on_c, 10, 69, 0
11, 17765, Note_on_c, 10, 65, 0
11, 17765, Note_on_c, 10, 60, 0
11, 18245, Note_on_c, 10, 60, 80
11, 18365, Note_on_c, 10, 60, 0
11, 18365, Note_on_c, 10, 67, 80
11, 18425, Note_on_c, 10, 67, 0
11, 18425, Note_on_c, 10, 60, 80
11, 18425, Note_on_c, 10, 64, 80
11, 18425, Note_on_c, 10, 67, 80
11, 18725, Note_on_c, 10, 67, 0
11, 18725, Note_on_c, 10, 64, 0
11, 18725, Note_on_c, 10, 60, 0
11, 19085, Note_on_c, 10, 60, 80
11, 19145, Note_on_c, 10, 60, 0
11, 19145, Note_on_c, 10, 60, 80
11, 19205, Note_on_c, 10, 60, 0
11, 19205, Note_on_c, 10, 59, 80
11, 19265, Note_on_c, 10, 59, 0
11, 19265, Note_on_c, 10, 67, 80
11, 19385, Note_on_c, 10, 67, 0
11, 19385, Note_on_c, 10, 67, 80
11, 19445, Note_on_c, 10, 67, 0
11, 19445, Note_on_c, 10, 69, 80
11, 19445, Note_on_c, 10, 59, 80
11, 19445, Note_on_c, 10, 64, 80
11, 19685, Note_on_c, 10, 64, 0
11, 19685, Note_on_c, 10, 59, 0
11, 19685, Note_on_c, 10, 69, 0
11, 20165, Note_on_c, 10, 70, 80
11, 20225, Note_on_c, 10, 70, 0
11, 20225, Note_on_c, 10, 70, 80
11, 20405, Note_on_c, 10, 70, 0
11, 20405, Note_on_c, 10, 70, 80
11, 20525, Note_on_c, 10, 70, 0
11, 20525, Note_on_c, 10, 72, 80
11, 20645, Note_on_c, 10, 72, 0
11, 20645, Note_on_c, 10, 72, 80
11, 20705, Note_on_c, 10, 72, 0
11, 20705, Note_on_c, 10, 74, 80
11, 20825, Note_on_c, 10, 74, 0
11, 20825, Note_on_c, 10, 64, 80
11, 20885, Note_on_c, 10, 64, 0
11, 20885, Note_on_c, 10, 72, 80
11, 20945, Note_on_c, 10, 72, 0
11, 20945, Note_on_c, 10, 72, 80
11, 21125, Note_on_c, 10, 72, 0
11, 21125, Note_on_c, 10, 70, 80
11, 21125, Note_on_c, 10, 65, 80
11, 21125, Note_on_c, 10, 60, 80
11, 21185, Note_on_c, 10, 60, 0
11, 21185, Note_on_c, 10, 65, 0
11, 21185, Note_on_c, 10, 70, 0
11, 21185, Note_on_c, 10, 69, 80
11, 21305, Note_on_c, 10, 69, 0
11, 21305, Note_on_c, 10, 69, 80
11, 21305, Note_on_c, 10, 65, 80
11, 21305, Note_on_c, 10, 60, 80
11, 21605, Note_on_c, 10, 60, 0
11, 21605, Note_on_c, 10, 65, 0
11, 21605, Note_on_c, 10, 69, 0
11, 22025, Note_on_c, 10, 60, 80
11, 22085, Note_on_c, 10, 60, 0
11, 22085, Note_on_c, 10, 69, 80
11, 22145, Note_on_c, 10, 69, 0
11, 22145, Note_on_c, 10, 69, 80
11, 22325, Note_on_c, 10, 69, 0
11, 22325, Note_on_c, 10, 69, 80
11, 22445, Note_on_c, 10, 69, 0
11, 22445, Note_on_c, 10, 71, 80
11, 22505, Note_on_c, 10, 71, 0
11, 22505, Note_on_c, 10, 72, 80
11, 22685, Note_on_c, 10, 72, 0
11, 22685, Note_on_c, 10, 72, 80
11, 22805, Note_on_c, 10, 72, 0
11, 22805, Note_on_c, 10, 71, 80
11, 22925, Note_on_c, 10, 71, 0
11, 22925, Note_on_c, 10, 69, 80
11, 23045, Note_on_c, 10, 69, 0
11, 23045, Note_on_c, 10, 69, 80
11, 23105, Note_on_c, 10, 69, 0
11, 23105, Note_on_c, 10, 67, 80
11, 23525, Note_on_c, 10, 67, 0
11, 23705, Note_on_c, 10, 55, 80
11, 23765, Note_on_c, 10, 55, 0
11, 23765, Note_on_c, 10, 57, 80
11, 23885, Note_on_c, 10, 57, 0
11, 23885, Note_on_c, 10, 60, 80
11, 24005, Note_on_c, 10, 60, 0
11, 24005, Note_on_c, 10, 65, 80
11, 24065, Note_on_c, 10, 65, 0
11, 24065, Note_on_c, 10, 65, 80
11, 24245, Note_on_c, 10, 65, 0
11, 24245, Note_on_c, 10, 65, 80
11, 24365, Note_on_c, 10, 65, 0
11, 24365, Note_on_c, 10, 65, 80
11, 24485, Note_on_c, 10, 65, 0
11, 24485, Note_on_c, 10, 65, 80
11, 24605, Note_on_c, 10, 65, 0
11, 24605, Note_on_c, 10, 62, 80
11, 24725, Note_on_c, 10, 62, 0
11, 24725, Note_on_c, 10, 60, 80
11, 24845, Note_on_c, 10, 60, 0
11, 24845, Note_on_c, 10, 59, 80
11, 24965, Note_on_c, 10, 59, 0
11, 24965, Note_on_c, 10, 60, 80
11, 25445, Note_on_c, 10, 60, 0
11, 25865, Note_on_c, 10, 60, 80
11, 25925, Note_on_c, 10, 60, 0
11, 25925, Note_on_c, 10, 69, 80
11, 26105, Note_on_c, 10, 69, 0
11, 26105, Note_on_c, 10, 69, 80
11, 26165, Note_on_c, 10, 69, 0
11, 26165, Note_on_c, 10, 69, 80
11, 26225, Note_on_c, 10, 69, 0
11, 26225, Note_on_c, 10, 71, 80
11, 26345, Note_on_c, 10, 71, 0
11, 26345, Note_on_c, 10, 65, 80
11, 26345, Note_on_c, 10, 72, 80
11, 26585, Note_on_c, 10, 72, 0
11, 26585, Note_on_c, 10, 65, 0
11, 26585, Note_on_c, 10, 60, 80
11, 26645, Note_on_c, 10, 60, 0
11, 26645, Note_on_c, 10, 65, 80
11, 26645, Note_on_c, 10, 71, 80
11, 26825, Note_on_c, 10, 71, 0
11, 26825, Note_on_c, 10, 65, 0
11, 26825, Note_on_c, 10, 69, 80
11, 26885, Note_on_c, 10, 69, 0
11, 26885, Note_on_c, 10, 69, 80
11, 27005, Note_on_c, 10, 69, 0
11, 27005, Note_on_c, 10, 67, 80
11, 27365, Note_on_c, 10, 67, 0
11, 27785, Note_on_c, 10, 60, 80
11, 27845, Note_on_c, 10, 60, 0
11, 27845, Note_on_c, 10, 65, 80
11, 27905, Note_on_c, 10, 65, 0
11, 27905, Note_on_c, 10, 65, 80
11, 28085, Note_on_c, 10, 65, 0
11, 28085, Note_on_c, 10, 69, 80
11, 28145, Note_on_c, 10, 69, 0
11, 28145, Note_on_c, 10, 69, 80
11, 28325, Note_on_c, 10, 69, 0
11, 28325, Note_on_c, 10, 67, 80
11, 28385, Note_on_c, 10, 67, 0
11, 28385, Note_on_c, 10, 53, 80
11, 28385, Note_on_c, 10, 59, 80
11, 28385, Note_on_c, 10, 62, 80
11, 28565, Note_on_c, 10, 62, 0
11, 28565, Note_on_c, 10, 59, 0
11, 28565, Note_on_c, 10, 53, 0
11, 28685, Note_on_c, 10, 60, 80
11, 28745, Note_on_c, 10, 60, 0
11, 28745, Note_on_c, 10, 62, 80
11, 28805, Note_on_c, 10, 62, 0
11, 28805, Note_on_c, 10, 64, 80
11, 29285, Note_on_c, 10, 64, 0
11, 29705, Note_on_c, 10, 60, 80
11, 29765, Note_on_c, 10, 60, 0
11, 29765, Note_on_c, 10, 69, 80
11, 29945, Note_on_c, 10, 69, 0
11, 29945, Note_on_c, 10, 69, 80
11, 30005, Note_on_c, 10, 69, 0
11, 30005, Note_on_c, 10, 69, 80
11, 30125, Note_on_c, 10, 69, 0
11, 30125, Note_on_c, 10, 71, 80
11, 30245, Note_on_c, 10, 71, 0
11, 30245, Note_on_c, 10, 72, 80
11, 30365, Note_on_c, 10, 72, 0
11, 30365, Note_on_c, 10, 72, 80
11, 30485, Note_on_c, 10, 72, 0
11, 30485, Note_on_c, 10, 71, 80
11, 30665, Note_on_c, 10, 71, 0
11, 30665, Note_on_c, 10, 69, 80
11, 30725, Note_on_c, 10, 69, 0
11, 30725, Note_on_c, 10, 69, 80
11, 30845, Note_on_c, 10, 69, 0
11, 30845, Note_on_c, 10, 67, 80
11, 31205, Note_on_c, 10, 67, 0
11, 31385, Note_on_c, 10, 57, 80
11, 31445, Note_on_c, 10, 57, 0
11, 31445, Note_on_c, 10, 57, 80
11, 31505, Note_on_c, 10, 57, 0
11, 31505, Note_on_c, 10, 60, 80
11, 31685, Note_on_c, 10, 60, 0
11, 31685, Note_on_c, 10, 67, 80
11, 32045, Note_on_c, 10, 67, 0
11, 32045, Note_on_c, 10, 69, 80
11, 32105, Note_on_c, 10, 69, 0
11, 32105, Note_on_c, 10, 67, 80
11, 32165, Note_on_c, 10, 67, 0
11, 32165, Note_on_c, 10, 60, 80
11, 32165, Note_on_c, 10, 64, 80
11, 32585, Note_on_c, 10, 64, 0
11, 32585, Note_on_c, 10, 60, 0
11, 32585, Note_on_c, 10, 60, 80
11, 32645, Note_on_c, 10, 60, 0
11, 32645, Note_on_c, 10, 64, 80
11, 32705, Note_on_c, 10, 64, 0
11, 32705, Note_on_c, 10, 62, 80
11, 32765, Note_on_c, 10, 62, 0
11, 32765, Note_on_c, 10, 60, 80
11, 32885, Note_on_c, 10, 60, 0
11, 32885, Note_on_c, 10, 57, 80
11, 32885, Note_on_c, 10, 60, 80
11, 33005, Note_on_c, 10, 60, 0
11, 33005, Note_on_c, 10, 57, 0
11, 33005, Note_on_c, 10, 57, 80
11, 33065, Note_on_c, 10, 57, 0
11, 33065, Note_on_c, 10, 53, 80
11, 33065, Note_on_c, 10, 57, 80
11, 33065, Note_on_c, 10, 62, 80
11, 33065, Note_on_c, 10, 60, 80
11, 33365, Note_on_c, 10, 60, 0
11, 33365, Note_on_c, 10, 53, 0
11, 33365, Note_on_c, 10, 57, 0
11, 33365, Note_on_c, 10, 62, 0
11, 33365, Note_on_c, 10, 57, 80
11, 33365, Note_on_c, 10, 60, 80
11, 33365, Note_on_c, 10, 64, 80
11, 33605, Note_on_c, 10, 64, 0
11, 33605, Note_on_c, 10, 60, 0
11, 33605, Note_on_c, 10, 57, 0
11, 33605, Note_on_c, 10, 57, 80
11, 33605, Note_on_c, 10, 60, 80
11, 33605, Note_on_c, 10, 64, 80
11, 33725, Note_on_c, 10, 64, 0
11, 33725, Note_on_c, 10, 60, 0
11, 33725, Note_on_c, 10, 57, 0
11, 33725, Note_on_c, 10, 53, 80
11, 33725, Note_on_c, 10, 57, 80
11, 33725, Note_on_c, 10, 60, 80
11, 33845, Note_on_c, 10, 60, 0
11, 33845, Note_on_c, 10, 57, 0
11, 33845, Note_on_c, 10, 53, 0
11, 33845, Note_on_c, 10, 53, 80
11, 33845, Note_on_c, 10, 57, 80
11, 33845, Note_on_c, 10, 60, 80
11, 34085, Note_on_c, 10, 60, 0
11, 34085, Note_on_c, 10, 57, 0
11, 34085, Note_on_c, 10, 53, 0
11, 34085, Note_on_c, 10, 53, 80
11, 34085, Note_on_c, 10, 59, 80
11, 34085, Note_on_c, 10, 64, 80
11, 34205, Note_on_c, 10, 64, 0
11, 34205, Note_on_c, 10, 59, 0
11, 34205, Note_on_c, 10, 53, 0
11, 34205, Note_on_c, 10, 62, 80
11, 34325, Note_on_c, 10, 62, 0
11, 34325, Note_on_c, 10, 60, 80
11, 34445, Note_on_c, 10, 60, 0
11, 34445, Note_on_c, 10, 64, 80
11, 34565, Note_on_c, 10, 64, 0
11, 34565, Note_on_c, 10, 59, 80
11, 34565, Note_on_c, 10, 65, 80
11, 34565, Note_on_c, 10, 67, 80
11, 34925, Note_on_c, 10, 67, 0
11, 34925, Note_on_c, 10, 65, 0
11, 34925, Note_on_c, 10, 59, 0
11, 34985, Note_on_c, 10, 55, 80
11, 35045, Note_on_c, 10, 55, 0
11, 35045, Note_on_c, 10, 60, 80
11, 35165, Note_on_c, 10, 60, 0
11, 35165, Note_on_c, 10, 67, 80
11, 35225, Note_on_c, 10, 67, 0
11, 35225, Note_on_c, 10, 60, 80
11, 35225, Note_on_c, 10, 67, 80
11, 35225, Note_on_c, 10, 64, 80
11, 35405, Note_on_c, 10, 67, 0
11, 35405, Note_on_c, 10, 69, 80
11, 35525, Note_on_c, 10, 69, 0
11, 35525, Note_on_c, 10, 64, 0
11, 35525, Note_on_c, 10, 60, 0
11, 35825, Note_on_c, 10, 60, 80
11, 35885, Note_on_c, 10, 60, 0
11, 35885, Note_on_c, 10, 60, 80
11, 36005, Note_on_c, 10, 60, 0
11, 36005, Note_on_c, 10, 59, 80
11, 36125, Note_on_c, 10, 59, 0
11, 36125, Note_on_c, 10, 67, 80
11, 36245, Note_on_c, 10, 67, 0
11, 36245, Note_on_c, 10, 67, 80
11, 36305, Note_on_c, 10, 67, 0
11, 36305, Note_on_c, 10, 69, 80
11, 36485, Note_on_c, 10, 69, 0
11, 36965, Note_on_c, 10, 70, 80
11, 37025, Note_on_c, 10, 70, 0
11, 37025, Note_on_c, 10, 70, 80
11, 37205, Note_on_c, 10, 70, 0
11, 37205, Note_on_c, 10, 70, 80
11, 37325, Note_on_c, 10, 70, 0
11, 37325, Note_on_c, 10, 72, 80
11, 37445, Note_on_c, 10, 72, 0
11, 37445, Note_on_c, 10, 74, 80
11, 37475, Note_on_c, 10, 74, 0
11, 37475, Note_on_c, 10, 72, 80
11, 37505, Note_on_c, 10, 72, 0
11, 37505, Note_on_c, 10, 74, 80
11, 37625, Note_on_c, 10, 74, 0
11, 37625, Note_on_c, 10, 72, 80
11, 37685, Note_on_c, 10, 72, 0
11, 37685, Note_on_c, 10, 72, 80
11, 37805, Note_on_c, 10, 72, 0
11, 37805, Note_on_c, 10, 72, 80
11, 37925, Note_on_c, 10, 72, 0
11, 37925, Note_on_c, 10, 65, 80
11, 37925, Note_on_c, 10, 60, 80
11, 37925, Note_on_c, 10, 70, 80
11, 37985, Note_on_c, 10, 70, 0
11, 37985, Note_on_c, 10, 60, 0
11, 37985, Note_on_c, 10, 65, 0
11, 37985, Note_on_c, 10, 69, 80
11, 38105, Note_on_c, 10, 69, 0
11, 38105, Note_on_c, 10, 65, 80
11, 38105, Note_on_c, 10, 69, 80
11, 38105, Note_on_c, 10, 60, 80
11, 38405, Note_on_c, 10, 60, 0
11, 38405, Note_on_c, 10, 69, 0
11, 38405, Note_on_c, 10, 65, 0
11, 38885, Note_on_c, 10, 60, 80
11, 39005, Note_on_c, 10, 60, 0
11, 39005, Note_on_c, 10, 67, 80
11, 39065, Note_on_c, 10, 67, 0
11, 39065, Note_on_c, 10, 64, 80
11, 39065, Note_on_c, 10, 67, 80
11, 39065, Note_on_c, 10, 60, 80
11, 39365, Note_on_c, 10, 60, 0
11, 39365, Note_on_c, 10, 67, 0
11, 39365, Note_on_c, 10, 64, 0
11, 39725, Note_on_c, 10, 60, 80
11, 39785, Note_on_c, 10, 60, 0
11, 39785, Note_on_c, 10, 60, 80
11, 39845, Note_on_c, 10, 60, 0
11, 39845, Note_on_c, 10, 59, 80
11, 39905, Note_on_c, 10, 59, 0
11, 39905, Note_on_c, 10, 67, 80
11, 40025, Note_on_c, 10, 67, 0
11, 40025, Note_on_c, 10, 67, 80
11, 40085, Note_on_c, 10, 67, 0
11, 40085, Note_on_c, 10, 64, 80
11, 40085, Note_on_c, 10, 69, 80
11, 40085, Note_on_c, 10, 59, 80
11, 40325, Note_on_c, 10, 59, 0
11, 40325, Note_on_c, 10, 69, 0
11, 40325, Note_on_c, 10, 64, 0
11, 40805, Note_on_c, 10, 70, 80
11, 40865, Note_on_c, 10, 70, 0
11, 40865, Note_on_c, 10, 70, 80
11, 41045, Note_on_c, 10, 70, 0
11, 41045, Note_on_c, 10, 70, 80
11, 41165, Note_on_c, 10, 70, 0
11, 41165, Note_on_c, 10, 72, 80
11, 41285, Note_on_c, 10, 72, 0
11, 41285, Note_on_c, 10, 72, 80
11, 41345, Note_on_c, 10, 72, 0
11, 41345, Note_on_c, 10, 74, 80
11, 41465, Note_on_c, 10, 74, 0
11, 41465, Note_on_c, 10, 64, 80
11, 41525, Note_on_c, 10, 64, 0
11, 41525, Note_on_c, 10, 72, 80
11, 41585, Note_on_c, 10, 72, 0
11, 41585, Note_on_c, 10, 72, 80
11, 41765, Note_on_c, 10, 72, 0
11, 41765, Note_on_c, 10, 65, 80
11, 41765, Note_on_c, 10, 60, 80
11, 41765, Note_on_c, 10, 70, 80
11, 41825, Note_on_c, 10, 70, 0
11, 41825, Note_on_c, 10, 60, 0
11, 41825, Note_on_c, 10, 65, 0
11, 41825, Note_on_c, 10, 69, 80
11, 41945, Note_on_c, 10, 69, 0
11, 41945, Note_on_c, 10, 60, 80
11, 41945, Note_on_c, 10, 69, 80
11, 41945, Note_on_c, 10, 65, 80
11, 42245, Note_on_c, 10, 65, 0
11, 42245, Note_on_c, 10, 69, 0
11, 42245, Note_on_c, 10, 60, 0
11, 42665, Note_on_c, 10, 60, 80
11, 42725, Note_on_c, 10, 60, 0
11, 42725, Note_on_c, 10, 69, 80
11, 42785, Note_on_c, 10, 69, 0
11, 42785, Note_on_c, 10, 69, 80
11, 42965, Note_on_c, 10, 69, 0
11, 42965, Note_on_c, 10, 69, 80
11, 43085, Note_on_c, 10, 69, 0
11, 43085, Note_on_c, 10, 71, 80
11, 43145, Note_on_c, 10, 71, 0
11, 43145, Note_on_c, 10, 72, 80
11, 43325, Note_on_c, 10, 72, 0
11, 43325, Note_on_c, 10, 72, 80
11, 43445, Note_on_c, 10, 72, 0
11, 43445, Note_on_c, 10, 71, 80
11, 43565, Note_on_c, 10, 71, 0
11, 43565, Note_on_c, 10, 69, 80
11, 43685, Note_on_c, 10, 69, 0
11, 43685, Note_on_c, 10, 69, 80
11, 43745, Note_on_c, 10, 69, 0
11, 43745, Note_on_c, 10, 67, 80
11, 44165, Note_on_c, 10, 67, 0
11, 44345, Note_on_c, 10, 55, 80
11, 44405, Note_on_c, 10, 55, 0
11, 44405, Note_on_c, 10, 57, 80
11, 44525, Note_on_c, 10, 57, 0
11, 44525, Note_on_c, 10, 60, 80
11, 44645, Note_on_c, 10, 60, 0
11, 44645, Note_on_c, 10, 65, 80
11, 44705, Note_on_c, 10, 65, 0
11, 44705, Note_on_c, 10, 65, 80
11, 44885, Note_on_c, 10, 65, 0
11, 44885, Note_on_c, 10, 65, 80
11, 45005, Note_on_c, 10, 65, 0
11, 45005, Note_on_c, 10, 65, 80
11, 45125, Note_on_c, 10, 65, 0
11, 45125, Note_on_c, 10, 59, 80
11, 45125, Note_on_c, 10, 62, 80
11, 45125, Note_on_c, 10, 65, 80
11, 45305, Note_on_c, 10, 65, 0
11, 45305, Note_on_c, 10, 62, 0
11, 45305, Note_on_c, 10, 59, 0
11, 45305, Note_on_c, 10, 62, 80
11, 45365, Note_on_c, 10, 62, 0
11, 45365, Note_on_c, 10, 60, 80
11, 45485, Note_on_c, 10, 60, 0
11, 45485, Note_on_c, 10, 59, 80
11, 45605, Note_on_c, 10, 59, 0
11, 45605, Note_on_c, 10, 60, 80
11, 45725, Note_on_c, 10, 60, 0
11, 45725, Note_on_c, 10, 67, 80
11, 45845, Note_on_c, 10, 67, 0
11, 45845, Note_on_c, 10, 60, 80
11, 45845, Note_on_c, 10, 64, 80
11, 45845, Note_on_c, 10, 67, 80
11, 46445, Note_on_c, 10, 67, 0
11, 46445, Note_on_c, 10, 64, 0
11, 46445, Note_on_c, 10, 60, 0
11, 46445, Note_on_c, 10, 60, 80
11, 46565, Note_on_c, 10, 60, 0
11, 46565, Note_on_c, 10, 59, 80
11, 46685, Note_on_c, 10, 59, 0
11, 46685, Note_on_c, 10, 67, 80
11, 46805, Note_on_c, 10, 67, 0
11, 46805, Note_on_c, 10, 59, 80
11, 46805, Note_on_c, 10, 64, 80
11, 46805, Note_on_c, 10, 67, 80
11, 47525, Note_on_c, 10, 67, 0
11, 47525, Note_on_c, 10, 64, 0
11, 47525, Note_on_c, 10, 59, 0
11, 47525, Note_on_c, 10, 59, 80
11, 47525, Note_on_c, 10, 62, 80
11, 47645, Note_on_c, 10, 62, 0
11, 47645, Note_on_c, 10, 59, 0
11, 47645, Note_on_c, 10, 64, 80
11, 47765, Note_on_c, 10, 64, 0
11, 47765, Note_on_c, 10, 59, 80
11, 47765, Note_on_c, 10, 64, 80
11, 48005, Note_on_c, 10, 64, 0
11, 48005, Note_on_c, 10, 59, 0
11, 48005, Note_on_c, 10, 55, 77
11, 48006, Note_on_c, 10, 59, 77
11, 48007, Note_on_c, 10, 64, 77
11, 48485, Note_on_c, 10, 55, 0
11, 48486, Note_on_c, 10, 59, 0
11, 48487, Note_on_c, 10, 64, 0
11, 48487, End_track
0, 0, End_of_file
