0, 0, Header, 1, 9, 240
1, 0, Start_track
1, 0, Time_signature, 4, 2, 24, 8
1, 0, Tempo, 500000
1, 0, End_track
2, 0, Start_track
2, 0, Title_t, "pianomel"
2, 0, Program_c, 11, 0
2, 0, Control_c, 11, 7, 115
2, 970, Note_on_c, 11, 65, 100
2, 970, Note_on_c, 11, 57, 100
2, 970, Note_on_c, 11, 60, 100
2, 1066, Note_off_c, 11, 60, 64
2, 1066, Note_off_c, 11, 57, 64
2, 1066, Note_off_c, 11, 65, 64
2, 1130, Note_on_c, 11, 62, 100
2, 1130, Note_on_c, 11, 67, 100
2, 1130, Note_on_c, 11, 58, 100
2, 1210, Note_on_c, 11, 69, 100
2, 1210, Note_on_c, 11, 60, 100
2, 1210, Note_on_c, 11, 65, 100
2, 1226, Note_off_c, 11, 58, 64
2, 1226, Note_off_c, 11, 67, 64
2, 1226, Note_off_c, 11, 62, 64
2, 1306, Note_off_c, 11, 65, 64
2, 1306, Note_off_c, 11, 60, 64
2, 1306, Note_off_c, 11, 69, 64
2, 1370, Note_on_c, 11, 67, 100
2, 1370, Note_on_c, 11, 74, 100
2, 1370, Note_on_c, 11, 64, 100
2, 1586, Note_off_c, 11, 64, 64
2, 1586, Note_off_c, 11, 74, 64
2, 1586, Note_off_c, 11, 67, 64
2, 1610, Note_on_c, 11, 72, 100
2, 1610, Note_on_c, 11, 67, 100
2, 1610, Note_on_c, 11, 64, 100
2, 1690, Note_on_c, 11, 69, 100
2, 1690, Note_on_c, 11, 64, 100
2, 1690, Note_on_c, 11, 58, 100
2, 1706, Note_off_c, 11, 64, 64
2, 1706, Note_off_c, 11, 67, 64
2, 1706, Note_off_c, 11, 72, 64
2, 1882, Note_off_c, 11, 58, 64
2, 1882, Note_off_c, 11, 69, 64
2, 1882, Note_off_c, 11, 64, 64
2, 1930, Note_on_c, 11, 57, 80
2, 1930, Note_on_c, 11, 60, 80
2, 1930, Note_on_c, 11, 65, 80
2, 2122, Note_off_c, 11, 65, 64
2, 2122, Note_off_c, 11, 60, 64
2, 2122, Note_off_c, 11, 57, 64
2, 2170, Note_on_c, 11, 65, 80
2, 2170, Note_on_c, 11, 60, 80
2, 2170, Note_on_c, 11, 57, 80
2, 2394, Note_off_c, 11, 57, 64
2, 2404, Note_on_c, 11, 58, 80
2, 2554, Note_off_c, 11, 58, 64
2, 2554, Note_off_c, 11, 65, 64
2, 2554, Note_off_c, 11, 60, 64
2, 2890, Note_on_c, 11, 57, 80
2, 2890, Note_on_c, 11, 65, 80
2, 2890, Note_on_c, 11, 60, 80
2, 2986, Note_off_c, 11, 60, 64
2, 2986, Note_off_c, 11, 65, 64
2, 2986, Note_off_c, 11, 57, 64
2, 3050, Note_on_c, 11, 62, 80
2, 3050, Note_on_c, 11, 67, 80
2, 3050, Note_on_c, 11, 58, 80
2, 3130, Note_on_c, 11, 65, 80
2, 3130, Note_on_c, 11, 69, 80
2, 3130, Note_on_c, 11, 60, 80
2, 3146, Note_off_c, 11, 58, 64
2, 3146, Note_off_c, 11, 67, 64
2, 3146, Note_off_c, 11, 62, 64
2, 3226, Note_off_c, 11, 60, 64
2, 3226, Note_off_c, 11, 69, 64
2, 3226, Note_off_c, 11, 65, 64
2, 3290, Note_on_c, 11, 74, 80
2, 3290, Note_on_c, 11, 67, 80
2, 3290, Note_on_c, 11, 64, 80
2, 3506, Note_off_c, 11, 74, 64
2, 3506, Note_off_c, 11, 64, 64
2, 3506, Note_off_c, 11, 67, 64
2, 3530, Note_on_c, 11, 64, 80
2, 3530, Note_on_c, 11, 72, 80
2, 3530, Note_on_c, 11, 67, 80
2, 3610, Note_on_c, 11, 58, 80
2, 3610, Note_on_c, 11, 69, 80
2, 3610, Note_on_c, 11, 64, 80
2, 3626, Note_off_c, 11, 64, 64
2, 3626, Note_off_c, 11, 67, 64
2, 3626, Note_off_c, 11, 72, 64
2, 3802, Note_off_c, 11, 69, 64
2, 3802, Note_off_c, 11, 58, 64
2, 3802, Note_off_c, 11, 64, 64
2, 3850, Note_on_c, 11, 60, 80
2, 3850, Note_on_c, 11, 57, 80
2, 3850, Note_on_c, 11, 65, 80
2, 4426, Note_off_c, 11, 65, 64
2, 4426, Note_off_c, 11, 57, 64
2, 4426, Note_off_c, 11, 60, 64
2, 4570, Note_on_c, 11, 65, 80
2, 4570, Note_on_c, 11, 60, 80
2, 4570, Note_on_c, 11, 57, 80
2, 4762, Note_off_c, 11, 57, 64
2, 4762, Note_off_c, 11, 60, 64
2, 4762, Note_off_c, 11, 65, 64
2, 4810, Note_on_c, 11, 65, 80
2, 4810, Note_on_c, 11, 62, 80
2, 4810, Note_on_c, 11, 70, 80
2, 4906, Note_off_c, 11, 70, 64
2, 4906, Note_off_c, 11, 62, 64
2, 4906, Note_off_c, 11, 65, 64
2, 4970, Note_on_c, 11, 67, 80
2, 4970, Note_on_c, 11, 72, 80
2, 4970, Note_on_c, 11, 63, 80
2, 5050, Note_on_c, 11, 65, 80
2, 5050, Note_on_c, 11, 70, 80
2, 5050, Note_on_c, 11, 74, 80
2, 5066, Note_off_c, 11, 63, 64
2, 5066, Note_off_c, 11, 72, 64
2, 5066, Note_off_c, 11, 67, 64
2, 5146, Note_off_c, 11, 74, 64
2, 5146, Note_off_c, 11, 70, 64
2, 5146, Note_off_c, 11, 65, 64
2, 5210, Note_on_c, 11, 77, 80
2, 5210, Note_on_c, 11, 74, 80
2, 5210, Note_on_c, 11, 70, 80
2, 5426, Note_off_c, 11, 77, 64
2, 5426, Note_off_c, 11, 70, 64
2, 5426, Note_off_c, 11, 74, 64
2, 5450, Note_on_c, 11, 72, 80
2, 5450, Note_on_c, 11, 79, 80
2, 5450, Note_on_c, 11, 75, 80
2, 5530, Note_on_c, 11, 65, 80
2, 5530, Note_on_c, 11, 70, 80
2, 5530, Note_on_c, 11, 74, 80
2, 5546, Note_off_c, 11, 75, 64
2, 5546, Note_off_c, 11, 79, 64
2, 5546, Note_off_c, 11, 72, 64
2, 5722, Note_off_c, 11, 74, 64
2, 5722, Note_off_c, 11, 70, 64
2, 5722, Note_off_c, 11, 65, 64
2, 5770, Note_on_c, 11, 74, 80
2, 5770, Note_on_c, 11, 68, 80
2, 5770, Note_on_c, 11, 77, 80
2, 5962, Note_off_c, 11, 77, 64
2, 5962, Note_off_c, 11, 68, 64
2, 5962, Note_off_c, 11, 74, 64
2, 6010, Note_on_c, 11, 77, 80
2, 6010, Note_on_c, 11, 74, 80
2, 6010, Note_on_c, 11, 68, 80
2, 6394, Note_off_c, 11, 77, 64
2, 6394, Note_off_c, 11, 74, 64
2, 6394, Note_off_c, 11, 68, 64
2, 6490, Note_on_c, 11, 68, 80
2, 6490, Note_on_c, 11, 74, 80
2, 6490, Note_on_c, 11, 65, 80
2, 6586, Note_off_c, 11, 65, 64
2, 6586, Note_off_c, 11, 74, 64
2, 6586, Note_off_c, 11, 68, 64
2, 6650, Note_on_c, 11, 70, 80
2, 6650, Note_on_c, 11, 67, 80
2, 6650, Note_on_c, 11, 76, 80
2, 6714, Note_off_c, 11, 67, 64
2, 6724, Note_on_c, 11, 65, 80
2, 6730, Note_on_c, 11, 70, 80
2, 6730, Note_on_c, 11, 74, 80
2, 6730, Note_on_c, 11, 77, 80
2, 6746, Note_off_c, 11, 70, 64
2, 6746, Note_off_c, 11, 65, 64
2, 6746, Note_off_c, 11, 76, 64
2, 6922, Note_off_c, 11, 77, 64
2, 6922, Note_off_c, 11, 74, 64
2, 6922, Note_off_c, 11, 70, 64
2, 6970, Note_on_c, 11, 77, 80
2, 6970, Note_on_c, 11, 74, 80
2, 6970, Note_on_c, 11, 70, 80
2, 7066, Note_off_c, 11, 70, 64
2, 7066, Note_off_c, 11, 74, 64
2, 7066, Note_off_c, 11, 77, 64
2, 7130, Note_on_c, 11, 77, 80
2, 7130, Note_on_c, 11, 70, 80
2, 7130, Note_on_c, 11, 74, 80
2, 7194, Note_off_c, 11, 70, 64
2, 7204, Note_on_c, 11, 71, 80
2, 7210, Note_on_c, 11, 76, 80
2, 7210, Note_on_c, 11, 71, 80
2, 7210, Note_on_c, 11, 65, 80
2, 7226, Note_off_c, 11, 71, 64
2, 7226, Note_off_c, 11, 74, 64
2, 7226, Note_off_c, 11, 77, 64
2, 7402, Note_off_c, 11, 65, 64
2, 7402, Note_off_c, 11, 76, 64
2, 7402, Note_off_c, 11, 71, 64
2, 7450, Note_on_c, 11, 70, 80
2, 7450, Note_on_c, 11, 74, 80
2, 7450, Note_on_c, 11, 67, 80
2, 7546, Note_off_c, 11, 67, 64
2, 7546, Note_off_c, 11, 74, 64
2, 7546, Note_off_c, 11, 70, 64
2, 7610, Note_on_c, 11, 60, 80
2, 7610, Note_on_c, 11, 65, 80
2, 7610, Note_on_c, 11, 69, 80
2, 7922, Note_off_c, 11, 69, 64
2, 7922, Note_off_c, 11, 65, 64
2, 7922, Note_off_c, 11, 60, 64
2, 7930, Note_on_c, 11, 60, 80
2, 7930, Note_on_c, 11, 65, 80
2, 7930, Note_on_c, 11, 69, 80
2, 8122, Note_off_c, 11, 69, 64
2, 8122, Note_off_c, 11, 65, 64
2, 8122, Note_off_c, 11, 60, 64
2, 8170, Note_on_c, 11, 65, 80
2, 8170, Note_on_c, 11, 60, 80
2, 8170, Note_on_c, 11, 69, 80
2, 8266, Note_off_c, 11, 69, 64
2, 8266, Note_off_c, 11, 60, 64
2, 8266, Note_off_c, 11, 65, 64
2, 8330, Note_on_c, 11, 60, 80
2, 8330, Note_on_c, 11, 68, 80
2, 8330, Note_on_c, 11, 65, 80
2, 8618, Note_off_c, 11, 65, 64
2, 8618, Note_off_c, 11, 68, 64
2, 8618, Note_off_c, 11, 60, 64
2, 8650, Note_on_c, 11, 67, 80
2, 8650, Note_on_c, 11, 58, 80
2, 8650, Note_on_c, 11, 64, 80
2, 9802, Note_off_c, 11, 64, 64
2, 9802, Note_off_c, 11, 67, 64
2, 9802, Note_off_c, 11, 58, 64
2, 9850, Note_on_c, 11, 65, 80
2, 9850, Note_on_c, 11, 69, 80
2, 9850, Note_on_c, 11, 74, 80
2, 9946, Note_off_c, 11, 74, 64
2, 9946, Note_off_c, 11, 69, 64
2, 9946, Note_off_c, 11, 65, 64
2, 10010, Note_on_c, 11, 72, 80
2, 10010, Note_on_c, 11, 67, 80
2, 10010, Note_on_c, 11, 64, 80
2, 10090, Note_on_c, 11, 69, 80
2, 10090, Note_on_c, 11, 74, 80
2, 10090, Note_on_c, 11, 65, 80
2, 10106, Note_off_c, 11, 64, 64
2, 10106, Note_off_c, 11, 67, 64
2, 10106, Note_off_c, 11, 72, 64
2, 10186, Note_off_c, 11, 65, 64
2, 10186, Note_off_c, 11, 74, 64
2, 10186, Note_off_c, 11, 69, 64
2, 10250, Note_on_c, 11, 72, 80
2, 10250, Note_on_c, 11, 64, 80
2, 10250, Note_on_c, 11, 67, 80
2, 10330, Note_on_c, 11, 74, 80
2, 10330, Note_on_c, 11, 65, 80
2, 10330, Note_on_c, 11, 69, 80
2, 10346, Note_off_c, 11, 67, 64
2, 10346, Note_off_c, 11, 64, 64
2, 10346, Note_off_c, 11, 72, 64
2, 10426, Note_off_c, 11, 69, 64
2, 10426, Note_off_c, 11, 65, 64
2, 10426, Note_off_c, 11, 74, 64
2, 10490, Note_on_c, 11, 64, 80
2, 10490, Note_on_c, 11, 67, 80
2, 10490, Note_on_c, 11, 72, 80
2, 10554, Note_off_c, 11, 67, 64
2, 10554, Note_off_c, 11, 64, 64
2, 10564, Note_on_c, 11, 60, 80
2, 10564, Note_on_c, 11, 69, 80
2, 10570, Note_on_c, 11, 65, 80
2, 10570, Note_on_c, 11, 60, 80
2, 10570, Note_on_c, 11, 57, 80
2, 10586, Note_off_c, 11, 60, 64
2, 10586, Note_off_c, 11, 69, 64
2, 10586, Note_off_c, 11, 72, 64
2, 11914, Note_off_c, 11, 65, 64
2, 11914, Note_off_c, 11, 57, 64
2, 11914, Note_off_c, 11, 60, 64
2, 12490, Note_on_c, 11, 69, 120
2, 12490, Note_on_c, 11, 72, 120
2, 12490, Note_on_c, 11, 77, 120
2, 12586, Note_off_c, 11, 77, 64
2, 12586, Note_off_c, 11, 72, 64
2, 12586, Note_off_c, 11, 69, 64
2, 12650, Note_on_c, 11, 70, 120
2, 12650, Note_on_c, 11, 74, 120
2, 12650, Note_on_c, 11, 79, 120
2, 12730, Note_on_c, 11, 81, 120
2, 12730, Note_on_c, 11, 77, 120
2, 12730, Note_on_c, 11, 72, 120
2, 12746, Note_off_c, 11, 79, 64
2, 12746, Note_off_c, 11, 74, 64
2, 12746, Note_off_c, 11, 70, 64
2, 12826, Note_off_c, 11, 72, 64
2, 12826, Note_off_c, 11, 77, 64
2, 12826, Note_off_c, 11, 81, 64
2, 12890, Note_on_c, 11, 76, 120
2, 12890, Note_on_c, 11, 86, 120
2, 12890, Note_on_c, 11, 79, 120
2, 13106, Note_off_c, 11, 79, 64
2, 13106, Note_off_c, 11, 86, 64
2, 13106, Note_off_c, 11, 76, 64
2, 13130, Note_on_c, 11, 84, 120
2, 13130, Note_on_c, 11, 79, 120
2, 13130, Note_on_c, 11, 76, 120
2, 13210, Note_on_c, 11, 70, 120
2, 13210, Note_on_c, 11, 76, 120
2, 13210, Note_on_c, 11, 81, 120
2, 13226, Note_off_c, 11, 76, 64
2, 13226, Note_off_c, 11, 79, 64
2, 13226, Note_off_c, 11, 84, 64
2, 13402, Note_off_c, 11, 81, 64
2, 13402, Note_off_c, 11, 70, 64
2, 13402, Note_off_c, 11, 76, 64
2, 13450, Note_on_c, 11, 77, 80
2, 13450, Note_on_c, 11, 72, 80
2, 13450, Note_on_c, 11, 69, 80
2, 13642, Note_off_c, 11, 69, 64
2, 13642, Note_off_c, 11, 72, 64
2, 13642, Note_off_c, 11, 77, 64
2, 13690, Note_on_c, 11, 72, 80
2, 13690, Note_on_c, 11, 77, 80
2, 13690, Note_on_c, 11, 69, 80
2, 13914, Note_off_c, 11, 69, 64
2, 13924, Note_on_c, 11, 70, 80
2, 14074, Note_off_c, 11, 70, 64
2, 14074, Note_off_c, 11, 77, 64
2, 14074, Note_off_c, 11, 72, 64
2, 14410, Note_on_c, 11, 65, 80
2, 14410, Note_on_c, 11, 60, 80
2, 14410, Note_on_c, 11, 57, 80
2, 14506, Note_off_c, 11, 57, 64
2, 14506, Note_off_c, 11, 60, 64
2, 14506, Note_off_c, 11, 65, 64
2, 14570, Note_on_c, 11, 62, 80
2, 14570, Note_on_c, 11, 58, 80
2, 14570, Note_on_c, 11, 67, 80
2, 14650, Note_on_c, 11, 65, 80
2, 14650, Note_on_c, 11, 60, 80
2, 14650, Note_on_c, 11, 69, 80
2, 14666, Note_off_c, 11, 67, 64
2, 14666, Note_off_c, 11, 58, 64
2, 14666, Note_off_c, 11, 62, 64
2, 14746, Note_off_c, 11, 69, 64
2, 14746, Note_off_c, 11, 60, 64
2, 14746, Note_off_c, 11, 65, 64
2, 14810, Note_on_c, 11, 74, 80
2, 14810, Note_on_c, 11, 67, 80
2, 14810, Note_on_c, 11, 64, 80
2, 15026, Note_off_c, 11, 67, 64
2, 15026, Note_off_c, 11, 64, 64
2, 15026, Note_off_c, 11, 74, 64
2, 15050, Note_on_c, 11, 67, 80
2, 15050, Note_on_c, 11, 64, 80
2, 15050, Note_on_c, 11, 72, 80
2, 15130, Note_on_c, 11, 58, 80
2, 15130, Note_on_c, 11, 69, 80
2, 15130, Note_on_c, 11, 64, 80
2, 15146, Note_off_c, 11, 64, 64
2, 15146, Note_off_c, 11, 72, 64
2, 15146, Note_off_c, 11, 67, 64
2, 15322, Note_off_c, 11, 69, 64
2, 15322, Note_off_c, 11, 58, 64
2, 15322, Note_off_c, 11, 64, 64
2, 15370, Note_on_c, 11, 65, 80
2, 15370, Note_on_c, 11, 60, 80
2, 15370, Note_on_c, 11, 57, 80
2, 15946, Note_off_c, 11, 57, 64
2, 15946, Note_off_c, 11, 60, 64
2, 15946, Note_off_c, 11, 65, 64
2, 16090, Note_on_c, 11, 65, 80
2, 16090, Note_on_c, 11, 60, 80
2, 16090, Note_on_c, 11, 57, 80
2, 16282, Note_off_c, 11, 57, 64
2, 16282, Note_off_c, 11, 60, 64
2, 16282, Note_off_c, 11, 65, 64
2, 16330, Note_on_c, 11, 62, 80
2, 16330, Note_on_c, 11, 70, 80
2, 16330, Note_on_c, 11, 65, 80
2, 16426, Note_off_c, 11, 65, 64
2, 16426, Note_off_c, 11, 70, 64
2, 16426, Note_off_c, 11, 62, 64
2, 16490, Note_on_c, 11, 63, 80
2, 16490, Note_on_c, 11, 67, 80
2, 16490, Note_on_c, 11, 72, 80
2, 16570, Note_on_c, 11, 65, 80
2, 16570, Note_on_c, 11, 74, 80
2, 16570, Note_on_c, 11, 70, 80
2, 16586, Note_off_c, 11, 72, 64
2, 16586, Note_off_c, 11, 67, 64
2, 16586, Note_off_c, 11, 63, 64
2, 16666, Note_off_c, 11, 70, 64
2, 16666, Note_off_c, 11, 74, 64
2, 16666, Note_off_c, 11, 65, 64
2, 16730, Note_on_c, 11, 77, 80
2, 16730, Note_on_c, 11, 74, 80
2, 16730, Note_on_c, 11, 70, 80
2, 16946, Note_off_c, 11, 70, 64
2, 16946, Note_off_c, 11, 74, 64
2, 16946, Note_off_c, 11, 77, 64
2, 16970, Note_on_c, 11, 72, 80
2, 16970, Note_on_c, 11, 79, 80
2, 16970, Note_on_c, 11, 75, 80
2, 17050, Note_on_c, 11, 74, 80
2, 17050, Note_on_c, 11, 70, 80
2, 17050, Note_on_c, 11, 65, 80
2, 17066, Note_off_c, 11, 75, 64
2, 17066, Note_off_c, 11, 79, 64
2, 17066, Note_off_c, 11, 72, 64
2, 17242, Note_off_c, 11, 65, 64
2, 17242, Note_off_c, 11, 70, 64
2, 17242, Note_off_c, 11, 74, 64
2, 17290, Note_on_c, 11, 77, 80
2, 17290, Note_on_c, 11, 68, 80
2, 17290, Note_on_c, 11, 74, 80
2, 17482, Note_off_c, 11, 74, 64
2, 17482, Note_off_c, 11, 68, 64
2, 17482, Note_off_c, 11, 77, 64
2, 17530, Note_on_c, 11, 77, 80
2, 17530, Note_on_c, 11, 74, 80
2, 17530, Note_on_c, 11, 68, 80
2, 17914, Note_off_c, 11, 77, 64
2, 17914, Note_off_c, 11, 74, 64
2, 17914, Note_off_c, 11, 68, 64
2, 18010, Note_on_c, 11, 65, 80
2, 18010, Note_on_c, 11, 74, 80
2, 18010, Note_on_c, 11, 68, 80
2, 18106, Note_off_c, 11, 68, 64
2, 18106, Note_off_c, 11, 74, 64
2, 18106, Note_off_c, 11, 65, 64
2, 18170, Note_on_c, 11, 70, 80
2, 18170, Note_on_c, 11, 67, 80
2, 18170, Note_on_c, 11, 76, 80
2, 18234, Note_off_c, 11, 67, 64
2, 18244, Note_on_c, 11, 65, 80
2, 18250, Note_on_c, 11, 70, 80
2, 18250, Note_on_c, 11, 74, 80
2, 18250, Note_on_c, 11, 77, 80
2, 18266, Note_off_c, 11, 70, 64
2, 18266, Note_off_c, 11, 65, 64
2, 18266, Note_off_c, 11, 76, 64
2, 18442, Note_off_c, 11, 77, 64
2, 18442, Note_off_c, 11, 74, 64
2, 18442, Note_off_c, 11, 70, 64
2, 18490, Note_on_c, 11, 70, 80
2, 18490, Note_on_c, 11, 77, 80
2, 18490, Note_on_c, 11, 74, 80
2, 18586, Note_off_c, 11, 74, 64
2, 18586, Note_off_c, 11, 77, 64
2, 18586, Note_off_c, 11, 70, 64
2, 18650, Note_on_c, 11, 77, 80
2, 18650, Note_on_c, 11, 70, 80
2, 18650, Note_on_c, 11, 74, 80
2, 18714, Note_off_c, 11, 70, 64
2, 18724, Note_on_c, 11, 71, 80
2, 18730, Note_on_c, 11, 65, 80
2, 18730, Note_on_c, 11, 71, 80
2, 18730, Note_on_c, 11, 76, 80
2, 18746, Note_off_c, 11, 71, 64
2, 18746, Note_off_c, 11, 74, 64
2, 18746, Note_off_c, 11, 77, 64
2, 18922, Note_off_c, 11, 76, 64
2, 18922, Note_off_c, 11, 65, 64
2, 18922, Note_off_c, 11, 71, 64
2, 18970, Note_on_c, 11, 70, 80
2, 18970, Note_on_c, 11, 74, 80
2, 18970, Note_on_c, 11, 67, 80
2, 19066, Note_off_c, 11, 67, 64
2, 19066, Note_off_c, 11, 74, 64
2, 19066, Note_off_c, 11, 70, 64
2, 19130, Note_on_c, 11, 60, 80
2, 19130, Note_on_c, 11, 69, 80
2, 19130, Note_on_c, 11, 65, 80
2, 19442, Note_off_c, 11, 65, 64
2, 19442, Note_off_c, 11, 69, 64
2, 19442, Note_off_c, 11, 60, 64
2, 19450, Note_on_c, 11, 60, 80
2, 19450, Note_on_c, 11, 65, 80
2, 19450, Note_on_c, 11, 69, 80
2, 19642, Note_off_c, 11, 69, 64
2, 19642, Note_off_c, 11, 65, 64
2, 19642, Note_off_c, 11, 60, 64
2, 19690, Note_on_c, 11, 69, 80
2, 19690, Note_on_c, 11, 65, 80
2, 19690, Note_on_c, 11, 60, 80
2, 19786, Note_off_c, 11, 60, 64
2, 19786, Note_off_c, 11, 65, 64
2, 19786, Note_off_c, 11, 69, 64
2, 19850, Note_on_c, 11, 65, 80
2, 19850, Note_on_c, 11, 68, 80
2, 19850, Note_on_c, 11, 60, 80
2, 20138, Note_off_c, 11, 60, 64
2, 20138, Note_off_c, 11, 68, 64
2, 20138, Note_off_c, 11, 65, 64
2, 20170, Note_on_c, 11, 67, 80
2, 20170, Note_on_c, 11, 58, 80
2, 20170, Note_on_c, 11, 64, 80
2, 21322, Note_off_c, 11, 58, 64
2, 21322, Note_off_c, 11, 67, 64
2, 21322, Note_off_c, 11, 64, 64
2, 21370, Note_on_c, 11, 65, 80
2, 21370, Note_on_c, 11, 69, 80
2, 21370, Note_on_c, 11, 74, 80
2, 21466, Note_off_c, 11, 74, 64
2, 21466, Note_off_c, 11, 69, 64
2, 21466, Note_off_c, 11, 65, 64
2, 21530, Note_on_c, 11, 67, 80
2, 21530, Note_on_c, 11, 64, 80
2, 21530, Note_on_c, 11, 72, 80
2, 21610, Note_on_c, 11, 65, 80
2, 21610, Note_on_c, 11, 69, 80
2, 21610, Note_on_c, 11, 74, 80
2, 21626, Note_off_c, 11, 72, 64
2, 21626, Note_off_c, 11, 64, 64
2, 21626, Note_off_c, 11, 67, 64
2, 21706, Note_off_c, 11, 74, 64
2, 21706, Note_off_c, 11, 69, 64
2, 21706, Note_off_c, 11, 65, 64
2, 21770, Note_on_c, 11, 67, 80
2, 21770, Note_on_c, 11, 72, 80
2, 21770, Note_on_c, 11, 64, 80
2, 21850, Note_on_c, 11, 65, 80
2, 21850, Note_on_c, 11, 74, 80
2, 21850, Note_on_c, 11, 69, 80
2, 21866, Note_off_c, 11, 64, 64
2, 21866, Note_off_c, 11, 72, 64
2, 21866, Note_off_c, 11, 67, 64
2, 21946, Note_off_c, 11, 69, 64
2, 21946, Note_off_c, 11, 74, 64
2, 21946, Note_off_c, 11, 65, 64
2, 22010, Note_on_c, 11, 72, 80
2, 22010, Note_on_c, 11, 64, 80
2, 22010, Note_on_c, 11, 67, 80
2, 22074, Note_off_c, 11, 67, 64
2, 22074, Note_off_c, 11, 64, 64
2, 22084, Note_on_c, 11, 69, 80
2, 22084, Note_on_c, 11, 60, 80
2, 22090, Note_on_c, 11, 57, 80
2, 22090, Note_on_c, 11, 65, 80
2, 22090, Note_on_c, 11, 60, 80
2, 22106, Note_off_c, 11, 60, 64
2, 22106, Note_off_c, 11, 69, 64
2, 22106, Note_off_c, 11, 72, 64
2, 23434, Note_off_c, 11, 60, 64
2, 23434, Note_off_c, 11, 57, 64
2, 23434, Note_off_c, 11, 65, 64
2, 24010, Note_on_c, 11, 65, 80
2, 24010, Note_on_c, 11, 60, 80
2, 24010, Note_on_c, 11, 57, 80
2, 24106, Note_off_c, 11, 57, 64
2, 24106, Note_off_c, 11, 60, 64
2, 24106, Note_off_c, 11, 65, 64
2, 24170, Note_on_c, 11, 67, 80
2, 24170, Note_on_c, 11, 62, 80
2, 24170, Note_on_c, 11, 58, 80
2, 24250, Note_on_c, 11, 69, 80
2, 24250, Note_on_c, 11, 65, 80
2, 24250, Note_on_c, 11, 60, 80
2, 24266, Note_off_c, 11, 58, 64
2, 24266, Note_off_c, 11, 62, 64
2, 24266, Note_off_c, 11, 67, 64
2, 24346, Note_off_c, 11, 60, 64
2, 24346, Note_off_c, 11, 65, 64
2, 24346, Note_off_c, 11, 69, 64
2, 24410, Note_on_c, 11, 64, 80
2, 24410, Note_on_c, 11, 74, 80
2, 24410, Note_on_c, 11, 67, 80
2, 24626, Note_off_c, 11, 67, 64
2, 24626, Note_off_c, 11, 74, 64
2, 24626, Note_off_c, 11, 64, 64
2, 24650, Note_on_c, 11, 64, 80
2, 24650, Note_on_c, 11, 72, 80
2, 24650, Note_on_c, 11, 67, 80
2, 24730, Note_on_c, 11, 69, 80
2, 24730, Note_on_c, 11, 64, 80
2, 24730, Note_on_c, 11, 58, 80
2, 24746, Note_off_c, 11, 64, 64
2, 24746, Note_off_c, 11, 67, 64
2, 24746, Note_off_c, 11, 72, 64
2, 24922, Note_off_c, 11, 58, 64
2, 24922, Note_off_c, 11, 69, 64
2, 24922, Note_off_c, 11, 64, 64
2, 24970, Note_on_c, 11, 57, 80
2, 24970, Note_on_c, 11, 65, 80
2, 24970, Note_on_c, 11, 60, 80
2, 25162, Note_off_c, 11, 60, 64
2, 25162, Note_off_c, 11, 65, 64
2, 25162, Note_off_c, 11, 57, 64
2, 25210, Note_on_c, 11, 60, 80
2, 25210, Note_on_c, 11, 65, 80
2, 25210, Note_on_c, 11, 57, 80
2, 25434, Note_off_c, 11, 57, 64
2, 25444, Note_on_c, 11, 58, 80
2, 25594, Note_off_c, 11, 58, 64
2, 25594, Note_off_c, 11, 65, 64
2, 25594, Note_off_c, 11, 60, 64
2, 25930, Note_on_c, 11, 60, 80
2, 25930, Note_on_c, 11, 65, 80
2, 25930, Note_on_c, 11, 57, 80
2, 26026, Note_off_c, 11, 57, 64
2, 26026, Note_off_c, 11, 65, 64
2, 26026, Note_off_c, 11, 60, 64
2, 26090, Note_on_c, 11, 62, 80
2, 26090, Note_on_c, 11, 67, 80
2, 26090, Note_on_c, 11, 58, 80
2, 26170, Note_on_c, 11, 65, 80
2, 26170, Note_on_c, 11, 69, 80
2, 26170, Note_on_c, 11, 60, 80
2, 26186, Note_off_c, 11, 58, 64
2, 26186, Note_off_c, 11, 67, 64
2, 26186, Note_off_c, 11, 62, 64
2, 26266, Note_off_c, 11, 60, 64
2, 26266, Note_off_c, 11, 69, 64
2, 26266, Note_off_c, 11, 65, 64
2, 26330, Note_on_c, 11, 74, 80
2, 26330, Note_on_c, 11, 67, 80
2, 26330, Note_on_c, 11, 64, 80
2, 26546, Note_off_c, 11, 67, 64
2, 26546, Note_off_c, 11, 64, 64
2, 26546, Note_off_c, 11, 74, 64
2, 26570, Note_on_c, 11, 72, 80
2, 26570, Note_on_c, 11, 64, 80
2, 26570, Note_on_c, 11, 67, 80
2, 26650, Note_on_c, 11, 58, 80
2, 26650, Note_on_c, 11, 69, 80
2, 26650, Note_on_c, 11, 64, 80
2, 26666, Note_off_c, 11, 64, 64
2, 26666, Note_off_c, 11, 67, 64
2, 26666, Note_off_c, 11, 72, 64
2, 26842, Note_off_c, 11, 69, 64
2, 26842, Note_off_c, 11, 58, 64
2, 26842, Note_off_c, 11, 64, 64
2, 26890, Note_on_c, 11, 65, 80
2, 26890, Note_on_c, 11, 57, 80
2, 26890, Note_on_c, 11, 60, 80
2, 27466, Note_off_c, 11, 60, 64
2, 27466, Note_off_c, 11, 57, 64
2, 27466, Note_off_c, 11, 65, 64
2, 27610, Note_on_c, 11, 57, 80
2, 27610, Note_on_c, 11, 65, 80
2, 27610, Note_on_c, 11, 60, 80
2, 27802, Note_off_c, 11, 60, 64
2, 27802, Note_off_c, 11, 65, 64
2, 27802, Note_off_c, 11, 57, 64
2, 27850, Note_on_c, 11, 70, 80
2, 27850, Note_on_c, 11, 62, 80
2, 27850, Note_on_c, 11, 65, 80
2, 27946, Note_off_c, 11, 65, 64
2, 27946, Note_off_c, 11, 62, 64
2, 27946, Note_off_c, 11, 70, 64
2, 28010, Note_on_c, 11, 72, 80
2, 28010, Note_on_c, 11, 67, 80
2, 28010, Note_on_c, 11, 63, 80
2, 28090, Note_on_c, 11, 65, 80
2, 28090, Note_on_c, 11, 70, 80
2, 28090, Note_on_c, 11, 74, 80
2, 28106, Note_off_c, 11, 63, 64
2, 28106, Note_off_c, 11, 67, 64
2, 28106, Note_off_c, 11, 72, 64
2, 28186, Note_off_c, 11, 74, 64
2, 28186, Note_off_c, 11, 70, 64
2, 28186, Note_off_c, 11, 65, 64
2, 28250, Note_on_c, 11, 70, 80
2, 28250, Note_on_c, 11, 74, 80
2, 28250, Note_on_c, 11, 77, 80
2, 28466, Note_off_c, 11, 70, 64
2, 28466, Note_off_c, 11, 77, 64
2, 28466, Note_off_c, 11, 74, 64
2, 28490, Note_on_c, 11, 75, 80
2, 28490, Note_on_c, 11, 79, 80
2, 28490, Note_on_c, 11, 72, 80
2, 28570, Note_on_c, 11, 65, 80
2, 28570, Note_on_c, 11, 70, 80
2, 28570, Note_on_c, 11, 74, 80
2, 28586, Note_off_c, 11, 72, 64
2, 28586, Note_off_c, 11, 79, 64
2, 28586, Note_off_c, 11, 75, 64
2, 28762, Note_off_c, 11, 74, 64
2, 28762, Note_off_c, 11, 70, 64
2, 28762, Note_off_c, 11, 65, 64
2, 28810, Note_on_c, 11, 68, 80
2, 28810, Note_on_c, 11, 77, 80
2, 28810, Note_on_c, 11, 74, 80
2, 29002, Note_off_c, 11, 74, 64
2, 29002, Note_off_c, 11, 77, 64
2, 29002, Note_off_c, 11, 68, 64
2, 29050, Note_on_c, 11, 77, 80
2, 29050, Note_on_c, 11, 74, 80
2, 29050, Note_on_c, 11, 68, 80
2, 29434, Note_off_c, 11, 68, 64
2, 29434, Note_off_c, 11, 77, 64
2, 29434, Note_off_c, 11, 74, 64
2, 29530, Note_on_c, 11, 65, 80
2, 29530, Note_on_c, 11, 74, 80
2, 29530, Note_on_c, 11, 68, 80
2, 29626, Note_off_c, 11, 68, 64
2, 29626, Note_off_c, 11, 74, 64
2, 29626, Note_off_c, 11, 65, 64
2, 29690, Note_on_c, 11, 70, 80
2, 29690, Note_on_c, 11, 67, 80
2, 29690, Note_on_c, 11, 76, 80
2, 29754, Note_off_c, 11, 67, 64
2, 29764, Note_on_c, 11, 65, 80
2, 29770, Note_on_c, 11, 70, 80
2, 29770, Note_on_c, 11, 74, 80
2, 29770, Note_on_c, 11, 77, 80
2, 29786, Note_off_c, 11, 70, 64
2, 29786, Note_off_c, 11, 65, 64
2, 29786, Note_off_c, 11, 76, 64
2, 29962, Note_off_c, 11, 77, 64
2, 29962, Note_off_c, 11, 74, 64
2, 29962, Note_off_c, 11, 70, 64
2, 30010, Note_on_c, 11, 74, 80
2, 30010, Note_on_c, 11, 77, 80
2, 30010, Note_on_c, 11, 70, 80
2, 30106, Note_off_c, 11, 70, 64
2, 30106, Note_off_c, 11, 77, 64
2, 30106, Note_off_c, 11, 74, 64
2, 30170, Note_on_c, 11, 74, 80
2, 30170, Note_on_c, 11, 70, 80
2, 30170, Note_on_c, 11, 77, 80
2, 30234, Note_off_c, 11, 70, 64
2, 30244, Note_on_c, 11, 71, 80
2, 30250, Note_on_c, 11, 65, 80
2, 30250, Note_on_c, 11, 71, 80
2, 30250, Note_on_c, 11, 76, 80
2, 30266, Note_off_c, 11, 71, 64
2, 30266, Note_off_c, 11, 77, 64
2, 30266, Note_off_c, 11, 74, 64
2, 30442, Note_off_c, 11, 76, 64
2, 30442, Note_off_c, 11, 65, 64
2, 30442, Note_off_c, 11, 71, 64
2, 30490, Note_on_c, 11, 67, 80
2, 30490, Note_on_c, 11, 70, 80
2, 30490, Note_on_c, 11, 74, 80
2, 30586, Note_off_c, 11, 74, 64
2, 30586, Note_off_c, 11, 70, 64
2, 30586, Note_off_c, 11, 67, 64
2, 30650, Note_on_c, 11, 60, 80
2, 30650, Note_on_c, 11, 65, 80
2, 30650, Note_on_c, 11, 69, 80
2, 30962, Note_off_c, 11, 65, 64
2, 30962, Note_off_c, 11, 60, 64
2, 30962, Note_off_c, 11, 69, 64
2, 30970, Note_on_c, 11, 60, 80
2, 30970, Note_on_c, 11, 65, 80
2, 30970, Note_on_c, 11, 69, 80
2, 31162, Note_off_c, 11, 69, 64
2, 31162, Note_off_c, 11, 65, 64
2, 31162, Note_off_c, 11, 60, 64
2, 31210, Note_on_c, 11, 60, 80
2, 31210, Note_on_c, 11, 65, 80
2, 31210, Note_on_c, 11, 69, 80
2, 31306, Note_off_c, 11, 69, 64
2, 31306, Note_off_c, 11, 65, 64
2, 31306, Note_off_c, 11, 60, 64
2, 31370, Note_on_c, 11, 68, 80
2, 31370, Note_on_c, 11, 60, 80
2, 31370, Note_on_c, 11, 65, 80
2, 31658, Note_off_c, 11, 65, 64
2, 31658, Note_off_c, 11, 60, 64
2, 31658, Note_off_c, 11, 68, 64
2, 31690, Note_on_c, 11, 58, 80
2, 31690, Note_on_c, 11, 64, 80
2, 31690, Note_on_c, 11, 67, 80
2, 32842, Note_off_c, 11, 67, 64
2, 32842, Note_off_c, 11, 64, 64
2, 32842, Note_off_c, 11, 58, 64
2, 32890, Note_on_c, 11, 69, 80
2, 32890, Note_on_c, 11, 65, 80
2, 32890, Note_on_c, 11, 74, 80
2, 32986, Note_off_c, 11, 74, 64
2, 32986, Note_off_c, 11, 65, 64
2, 32986, Note_off_c, 11, 69, 64
2, 33050, Note_on_c, 11, 72, 80
2, 33050, Note_on_c, 11, 64, 80
2, 33050, Note_on_c, 11, 67, 80
2, 33130, Note_on_c, 11, 74, 80
2, 33130, Note_on_c, 11, 69, 80
2, 33130, Note_on_c, 11, 65, 80
2, 33146, Note_off_c, 11, 67, 64
2, 33146, Note_off_c, 11, 64, 64
2, 33146, Note_off_c, 11, 72, 64
2, 33226, Note_off_c, 11, 65, 64
2, 33226, Note_off_c, 11, 69, 64
2, 33226, Note_off_c, 11, 74, 64
2, 33290, Note_on_c, 11, 67, 80
2, 33290, Note_on_c, 11, 72, 80
2, 33290, Note_on_c, 11, 64, 80
2, 33370, Note_on_c, 11, 74, 80
2, 33370, Note_on_c, 11, 65, 80
2, 33370, Note_on_c, 11, 69, 80
2, 33386, Note_off_c, 11, 64, 64
2, 33386, Note_off_c, 11, 72, 64
2, 33386, Note_off_c, 11, 67, 64
2, 33466, Note_off_c, 11, 69, 64
2, 33466, Note_off_c, 11, 65, 64
2, 33466, Note_off_c, 11, 74, 64
2, 33530, Note_on_c, 11, 67, 80
2, 33530, Note_on_c, 11, 64, 80
2, 33530, Note_on_c, 11, 72, 80
2, 33594, Note_off_c, 11, 64, 64
2, 33594, Note_off_c, 11, 67, 64
2, 33604, Note_on_c, 11, 69, 80
2, 33604, Note_on_c, 11, 60, 80
2, 33610, Note_on_c, 11, 57, 80
2, 33610, Note_on_c, 11, 65, 80
2, 33610, Note_on_c, 11, 60, 80
2, 33626, Note_off_c, 11, 60, 64
2, 33626, Note_off_c, 11, 69, 64
2, 33626, Note_off_c, 11, 72, 64
2, 34954, Note_off_c, 11, 57, 64
2, 34954, Note_off_c, 11, 65, 64
2, 34954, Note_off_c, 11, 60, 64
2, 35530, Note_on_c, 11, 57, 80
2, 35530, Note_on_c, 11, 65, 80
2, 35530, Note_on_c, 11, 60, 80
2, 35626, Note_off_c, 11, 60, 64
2, 35626, Note_off_c, 11, 65, 64
2, 35626, Note_off_c, 11, 57, 64
2, 35690, Note_on_c, 11, 58, 80
2, 35690, Note_on_c, 11, 62, 80
2, 35690, Note_on_c, 11, 67, 80
2, 35770, Note_on_c, 11, 60, 80
2, 35770, Note_on_c, 11, 65, 80
2, 35770, Note_on_c, 11, 69, 80
2, 35786, Note_off_c, 11, 67, 64
2, 35786, Note_off_c, 11, 62, 64
2, 35786, Note_off_c, 11, 58, 64
2, 35866, Note_off_c, 11, 69, 64
2, 35866, Note_off_c, 11, 65, 64
2, 35866, Note_off_c, 11, 60, 64
2, 35930, Note_on_c, 11, 64, 80
2, 35930, Note_on_c, 11, 67, 80
2, 35930, Note_on_c, 11, 74, 80
2, 36146, Note_off_c, 11, 74, 64
2, 36146, Note_off_c, 11, 64, 64
2, 36146, Note_off_c, 11, 67, 64
2, 36170, Note_on_c, 11, 67, 80
2, 36170, Note_on_c, 11, 64, 80
2, 36170, Note_on_c, 11, 72, 80
2, 36250, Note_on_c, 11, 64, 80
2, 36250, Note_on_c, 11, 69, 80
2, 36250, Note_on_c, 11, 58, 80
2, 36266, Note_off_c, 11, 64, 64
2, 36266, Note_off_c, 11, 72, 64
2, 36266, Note_off_c, 11, 67, 64
2, 36442, Note_off_c, 11, 58, 64
2, 36442, Note_off_c, 11, 69, 64
2, 36442, Note_off_c, 11, 64, 64
2, 36490, Note_on_c, 11, 60, 80
2, 36490, Note_on_c, 11, 65, 80
2, 36490, Note_on_c, 11, 57, 80
2, 36682, Note_off_c, 11, 57, 64
2, 36682, Note_off_c, 11, 65, 64
2, 36682, Note_off_c, 11, 60, 64
2, 36730, Note_on_c, 11, 60, 80
2, 36730, Note_on_c, 11, 65, 80
2, 36730, Note_on_c, 11, 57, 80
2, 36954, Note_off_c, 11, 57, 64
2, 36964, Note_on_c, 11, 58, 80
2, 37114, Note_off_c, 11, 58, 64
2, 37114, Note_off_c, 11, 60, 64
2, 37114, Note_off_c, 11, 65, 64
2, 37450, Note_on_c, 11, 60, 80
2, 37450, Note_on_c, 11, 65, 80
2, 37450, Note_on_c, 11, 57, 80
2, 37546, Note_off_c, 11, 57, 64
2, 37546, Note_off_c, 11, 65, 64
2, 37546, Note_off_c, 11, 60, 64
2, 37610, Note_on_c, 11, 62, 80
2, 37610, Note_on_c, 11, 58, 80
2, 37610, Note_on_c, 11, 67, 80
2, 37690, Note_on_c, 11, 60, 80
2, 37690, Note_on_c, 11, 65, 80
2, 37690, Note_on_c, 11, 69, 80
2, 37706, Note_off_c, 11, 67, 64
2, 37706, Note_off_c, 11, 58, 64
2, 37706, Note_off_c, 11, 62, 64
2, 37786, Note_off_c, 11, 69, 64
2, 37786, Note_off_c, 11, 65, 64
2, 37786, Note_off_c, 11, 60, 64
2, 37850, Note_on_c, 11, 74, 80
2, 37850, Note_on_c, 11, 67, 80
2, 37850, Note_on_c, 11, 64, 80
2, 38066, Note_off_c, 11, 64, 64
2, 38066, Note_off_c, 11, 67, 64
2, 38066, Note_off_c, 11, 74, 64
2, 38090, Note_on_c, 11, 67, 80
2, 38090, Note_on_c, 11, 64, 80
2, 38090, Note_on_c, 11, 72, 80
2, 38170, Note_on_c, 11, 58, 80
2, 38170, Note_on_c, 11, 69, 80
2, 38170, Note_on_c, 11, 64, 80
2, 38186, Note_off_c, 11, 64, 64
2, 38186, Note_off_c, 11, 72, 64
2, 38186, Note_off_c, 11, 67, 64
2, 38362, Note_off_c, 11, 69, 64
2, 38362, Note_off_c, 11, 58, 64
2, 38362, Note_off_c, 11, 64, 64
2, 38410, Note_on_c, 11, 60, 80
2, 38410, Note_on_c, 11, 65, 80
2, 38410, Note_on_c, 11, 57, 80
2, 38986, Note_off_c, 11, 57, 64
2, 38986, Note_off_c, 11, 65, 64
2, 38986, Note_off_c, 11, 60, 64
2, 39130, Note_on_c, 11, 57, 80
2, 39130, Note_on_c, 11, 65, 80
2, 39130, Note_on_c, 11, 60, 80
2, 39322, Note_off_c, 11, 60, 64
2, 39322, Note_off_c, 11, 65, 64
2, 39322, Note_off_c, 11, 57, 64
2, 39370, Note_on_c, 11, 70, 80
2, 39370, Note_on_c, 11, 65, 80
2, 39370, Note_on_c, 11, 62, 80
2, 39466, Note_off_c, 11, 62, 64
2, 39466, Note_off_c, 11, 65, 64
2, 39466, Note_off_c, 11, 70, 64
2, 39530, Note_on_c, 11, 72, 80
2, 39530, Note_on_c, 11, 67, 80
2, 39530, Note_on_c, 11, 63, 80
2, 39610, Note_on_c, 11, 70, 80
2, 39610, Note_on_c, 11, 65, 80
2, 39610, Note_on_c, 11, 74, 80
2, 39626, Note_off_c, 11, 63, 64
2, 39626, Note_off_c, 11, 67, 64
2, 39626, Note_off_c, 11, 72, 64
2, 39706, Note_off_c, 11, 74, 64
2, 39706, Note_off_c, 11, 65, 64
2, 39706, Note_off_c, 11, 70, 64
2, 39770, Note_on_c, 11, 77, 80
2, 39770, Note_on_c, 11, 74, 80
2, 39770, Note_on_c, 11, 70, 80
2, 39986, Note_off_c, 11, 70, 64
2, 39986, Note_off_c, 11, 74, 64
2, 39986, Note_off_c, 11, 77, 64
2, 40010, Note_on_c, 11, 72, 80
2, 40010, Note_on_c, 11, 75, 80
2, 40010, Note_on_c, 11, 79, 80
2, 40090, Note_on_c, 11, 70, 80
2, 40090, Note_on_c, 11, 65, 80
2, 40090, Note_on_c, 11, 74, 80
2, 40106, Note_off_c, 11, 79, 64
2, 40106, Note_off_c, 11, 75, 64
2, 40106, Note_off_c, 11, 72, 64
2, 40282, Note_off_c, 11, 74, 64
2, 40282, Note_off_c, 11, 65, 64
2, 40282, Note_off_c, 11, 70, 64
2, 40330, Note_on_c, 11, 77, 80
2, 40330, Note_on_c, 11, 68, 80
2, 40330, Note_on_c, 11, 74, 80
2, 40522, Note_off_c, 11, 74, 64
2, 40522, Note_off_c, 11, 68, 64
2, 40522, Note_off_c, 11, 77, 64
2, 40570, Note_on_c, 11, 77, 80
2, 40570, Note_on_c, 11, 74, 80
2, 40570, Note_on_c, 11, 68, 80
2, 40954, Note_off_c, 11, 77, 64
2, 40954, Note_off_c, 11, 68, 64
2, 40954, Note_off_c, 11, 74, 64
2, 41050, Note_on_c, 11, 68, 80
2, 41050, Note_on_c, 11, 74, 80
2, 41050, Note_on_c, 11, 65, 80
2, 41146, Note_off_c, 11, 65, 64
2, 41146, Note_off_c, 11, 74, 64
2, 41146, Note_off_c, 11, 68, 64
2, 41210, Note_on_c, 11, 70, 80
2, 41210, Note_on_c, 11, 76, 80
2, 41210, Note_on_c, 11, 67, 80
2, 41274, Note_off_c, 11, 67, 64
2, 41284, Note_on_c, 11, 65, 80
2, 41290, Note_on_c, 11, 74, 80
2, 41290, Note_on_c, 11, 77, 80
2, 41290, Note_on_c, 11, 70, 80
2, 41306, Note_off_c, 11, 70, 64
2, 41306, Note_off_c, 11, 65, 64
2, 41306, Note_off_c, 11, 76, 64
2, 41482, Note_off_c, 11, 77, 64
2, 41482, Note_off_c, 11, 74, 64
2, 41482, Note_off_c, 11, 70, 64
2, 41530, Note_on_c, 11, 74, 80
2, 41530, Note_on_c, 11, 70, 80
2, 41530, Note_on_c, 11, 77, 80
2, 41626, Note_off_c, 11, 77, 64
2, 41626, Note_off_c, 11, 70, 64
2, 41626, Note_off_c, 11, 74, 64
2, 41690, Note_on_c, 11, 77, 80
2, 41690, Note_on_c, 11, 74, 80
2, 41690, Note_on_c, 11, 70, 80
2, 41754, Note_off_c, 11, 70, 64
2, 41764, Note_on_c, 11, 71, 80
2, 41770, Note_on_c, 11, 65, 80
2, 41770, Note_on_c, 11, 71, 80
2, 41770, Note_on_c, 11, 76, 80
2, 41786, Note_off_c, 11, 71, 64
2, 41786, Note_off_c, 11, 74, 64
2, 41786, Note_off_c, 11, 77, 64
2, 41962, Note_off_c, 11, 76, 64
2, 41962, Note_off_c, 11, 65, 64
2, 41962, Note_off_c, 11, 71, 64
2, 42010, Note_on_c, 11, 74, 80
2, 42010, Note_on_c, 11, 67, 80
2, 42010, Note_on_c, 11, 70, 80
2, 42106, Note_off_c, 11, 70, 64
2, 42106, Note_off_c, 11, 67, 64
2, 42106, Note_off_c, 11, 74, 64
2, 42170, Note_on_c, 11, 65, 80
2, 42170, Note_on_c, 11, 69, 80
2, 42170, Note_on_c, 11, 60, 80
2, 42482, Note_off_c, 11, 69, 64
2, 42482, Note_off_c, 11, 60, 64
2, 42482, Note_off_c, 11, 65, 64
2, 42490, Note_on_c, 11, 60, 80
2, 42490, Note_on_c, 11, 65, 80
2, 42490, Note_on_c, 11, 69, 80
2, 42682, Note_off_c, 11, 69, 64
2, 42682, Note_off_c, 11, 65, 64
2, 42682, Note_off_c, 11, 60, 64
2, 42730, Note_on_c, 11, 65, 80
2, 42730, Note_on_c, 11, 60, 80
2, 42730, Note_on_c, 11, 69, 80
2, 42826, Note_off_c, 11, 69, 64
2, 42826, Note_off_c, 11, 60, 64
2, 42826, Note_off_c, 11, 65, 64
2, 42890, Note_on_c, 11, 65, 80
2, 42890, Note_on_c, 11, 60, 80
2, 42890, Note_on_c, 11, 68, 80
2, 43178, Note_off_c, 11, 68, 64
2, 43178, Note_off_c, 11, 60, 64
2, 43178, Note_off_c, 11, 65, 64
2, 43210, Note_on_c, 11, 58, 80
2, 43210, Note_on_c, 11, 64, 80
2, 43210, Note_on_c, 11, 67, 80
2, 44362, Note_off_c, 11, 58, 64
2, 44362, Note_off_c, 11, 64, 64
2, 44362, Note_off_c, 11, 67, 64
2, 44410, Note_on_c, 11, 65, 80
2, 44410, Note_on_c, 11, 74, 80
2, 44410, Note_on_c, 11, 69, 80
2, 44506, Note_off_c, 11, 69, 64
2, 44506, Note_off_c, 11, 74, 64
2, 44506, Note_off_c, 11, 65, 64
2, 44570, Note_on_c, 11, 64, 80
2, 44570, Note_on_c, 11, 67, 80
2, 44570, Note_on_c, 11, 72, 80
2, 44650, Note_on_c, 11, 69, 80
2, 44650, Note_on_c, 11, 65, 80
2, 44650, Note_on_c, 11, 74, 80
2, 44666, Note_off_c, 11, 72, 64
2, 44666, Note_off_c, 11, 67, 64
2, 44666, Note_off_c, 11, 64, 64
2, 44746, Note_off_c, 11, 74, 64
2, 44746, Note_off_c, 11, 65, 64
2, 44746, Note_off_c, 11, 69, 64
2, 44810, Note_on_c, 11, 67, 80
2, 44810, Note_on_c, 11, 72, 80
2, 44810, Note_on_c, 11, 64, 80
2, 44890, Note_on_c, 11, 74, 80
2, 44890, Note_on_c, 11, 69, 80
2, 44890, Note_on_c, 11, 65, 80
2, 44906, Note_off_c, 11, 64, 64
2, 44906, Note_off_c, 11, 72, 64
2, 44906, Note_off_c, 11, 67, 64
2, 44986, Note_off_c, 11, 65, 64
2, 44986, Note_off_c, 11, 69, 64
2, 44986, Note_off_c, 11, 74, 64
2, 45050, Note_on_c, 11, 67, 80
2, 45050, Note_on_c, 11, 64, 80
2, 45050, Note_on_c, 11, 72, 80
2, 45114, Note_off_c, 11, 64, 64
2, 45114, Note_off_c, 11, 67, 64
2, 45124, Note_on_c, 11, 60, 80
2, 45124, Note_on_c, 11, 69, 80
2, 45130, Note_on_c, 11, 57, 80
2, 45130, Note_on_c, 11, 65, 80
2, 45130, Note_on_c, 11, 60, 80
2, 45146, Note_off_c, 11, 60, 64
2, 45146, Note_off_c, 11, 69, 64
2, 45146, Note_off_c, 11, 72, 64
2, 46474, Note_off_c, 11, 57, 64
2, 46474, Note_off_c, 11, 65, 64
2, 46474, Note_off_c, 11, 60, 64
2, 46474, End_track
3, 0, Start_track
3, 0, Title_t, "piano"
3, 0, Program_c, 2, 0
3, 0, Control_c, 2, 7, 109
3, 12502, Note_on_c, 2, 63, 110
3, 12562, Note_off_c, 2, 63, 64
3, 12652, Note_on_c, 2, 66, 127
3, 12702, Note_on_c, 2, 67, 70
3, 12704, Note_off_c, 2, 66, 64
3, 12830, Note_off_c, 2, 67, 64
3, 12870, Note_on_c, 2, 63, 82
3, 12920, Note_off_c, 2, 63, 64
3, 12970, Note_on_c, 2, 62, 80
3, 13052, Note_off_c, 2, 62, 64
3, 13112, Note_on_c, 2, 65, 127
3, 13196, Note_off_c, 2, 65, 64
3, 13216, Note_on_c, 2, 64, 72
3, 13304, Note_off_c, 2, 64, 64
3, 13358, Note_on_c, 2, 62, 110
3, 13446, Note_off_c, 2, 62, 64
3, 13456, Note_on_c, 2, 60, 68
3, 13520, Note_off_c, 2, 60, 64
3, 13604, Note_on_c, 2, 60, 88
3, 13680, Note_off_c, 2, 60, 64
3, 13696, Note_on_c, 2, 62, 120
3, 13826, Note_off_c, 2, 62, 64
3, 13850, Note_on_c, 2, 60, 63
3, 13908, Note_off_c, 2, 60, 64
3, 13934, Note_on_c, 2, 62, 107
3, 14044, Note_off_c, 2, 62, 64
3, 14090, Note_on_c, 2, 58, 88
3, 14156, Note_off_c, 2, 58, 64
3, 14184, Note_on_c, 2, 60, 68
3, 14286, Note_off_c, 2, 60, 64
3, 14328, Note_on_c, 2, 64, 127
3, 14414, Note_off_c, 2, 64, 64
3, 14414, Note_on_c, 2, 65, 83
3, 14510, Note_off_c, 2, 65, 64
3, 14578, Note_on_c, 2, 65, 112
3, 14640, Note_off_c, 2, 65, 64
3, 14656, Note_on_c, 2, 63, 88
3, 14780, Note_off_c, 2, 63, 64
3, 14830, Note_on_c, 2, 60, 51
3, 14872, Note_off_c, 2, 60, 64
3, 15048, Note_on_c, 2, 62, 127
3, 15122, Note_off_c, 2, 62, 64
3, 15152, Note_on_c, 2, 64, 78
3, 15232, Note_off_c, 2, 64, 64
3, 15288, Note_on_c, 2, 65, 111
3, 15352, Note_off_c, 2, 65, 64
3, 15378, Note_on_c, 2, 67, 98
3, 15378, Note_on_c, 2, 79, 102
3, 15490, Note_off_c, 2, 79, 64
3, 15502, Note_off_c, 2, 67, 64
3, 15548, Note_on_c, 2, 75, 53
3, 15572, Note_off_c, 2, 75, 64
3, 15616, Note_on_c, 2, 79, 121
3, 15620, Note_on_c, 2, 67, 111
3, 15738, Note_off_c, 2, 67, 64
3, 15744, Note_off_c, 2, 79, 64
3, 15774, Note_on_c, 2, 75, 80
3, 15808, Note_off_c, 2, 75, 64
3, 15860, Note_on_c, 2, 72, 85
3, 16018, Note_off_c, 2, 72, 64
3, 16492, Note_on_c, 2, 73, 127
3, 16566, Note_off_c, 2, 73, 64
3, 16586, Note_on_c, 2, 74, 91
3, 16682, Note_off_c, 2, 74, 64
3, 16724, Note_on_c, 2, 70, 121
3, 16956, Note_off_c, 2, 70, 64
3, 16970, Note_on_c, 2, 68, 120
3, 17046, Note_off_c, 2, 68, 64
3, 17060, Note_on_c, 2, 65, 61
3, 17176, Note_off_c, 2, 65, 64
3, 19216, Note_on_c, 2, 63, 127
3, 19336, Note_off_c, 2, 63, 64
3, 19362, Note_on_c, 2, 65, 96
3, 19420, Note_off_c, 2, 65, 64
3, 19592, Note_on_c, 2, 68, 127
3, 19640, Note_on_c, 2, 69, 68
3, 19648, Note_off_c, 2, 68, 64
3, 19732, Note_off_c, 2, 69, 64
3, 19826, Note_on_c, 2, 60, 77
3, 19914, Note_off_c, 2, 60, 64
3, 19932, Note_on_c, 2, 63, 83
3, 20016, Note_off_c, 2, 63, 64
3, 20080, Note_on_c, 2, 65, 97
3, 20110, Note_off_c, 2, 65, 64
3, 20324, Note_on_c, 2, 75, 127
3, 20324, Note_on_c, 2, 68, 127
3, 20350, Note_off_c, 2, 68, 64
3, 20352, Note_on_c, 2, 69, 105
3, 20428, Note_off_c, 2, 75, 64
3, 20450, Note_off_c, 2, 69, 64
3, 20550, Note_on_c, 2, 75, 127
3, 20552, Note_on_c, 2, 68, 127
3, 20592, Note_off_c, 2, 68, 64
3, 20594, Note_on_c, 2, 69, 101
3, 20664, Note_off_c, 2, 75, 64
3, 20756, Note_off_c, 2, 69, 64
3, 20798, Note_on_c, 2, 67, 90
3, 20798, Note_on_c, 2, 72, 98
3, 20848, Note_off_c, 2, 72, 64
3, 20854, Note_off_c, 2, 67, 64
3, 20890, Note_on_c, 2, 68, 123
3, 20896, Note_on_c, 2, 75, 122
3, 20928, Note_on_c, 2, 69, 105
3, 20938, Note_off_c, 2, 68, 64
3, 20978, Note_off_c, 2, 75, 64
3, 20980, Note_off_c, 2, 69, 64
3, 21050, Note_on_c, 2, 75, 108
3, 21052, Note_on_c, 2, 68, 127
3, 21074, Note_off_c, 2, 68, 64
3, 21120, Note_on_c, 2, 69, 105
3, 21184, Note_off_c, 2, 75, 64
3, 21260, Note_off_c, 2, 69, 64
3, 21288, Note_on_c, 2, 67, 111
3, 21290, Note_on_c, 2, 72, 122
3, 21418, Note_off_c, 2, 67, 64
3, 21444, Note_off_c, 2, 72, 64
3, 21524, Note_on_c, 2, 72, 127
3, 21622, Note_on_c, 2, 70, 107
3, 21628, Note_off_c, 2, 72, 64
3, 21716, Note_off_c, 2, 70, 64
3, 21752, Note_on_c, 2, 67, 105
3, 21812, Note_off_c, 2, 67, 64
3, 21852, Note_on_c, 2, 65, 113
3, 21984, Note_off_c, 2, 65, 64
3, 22004, Note_on_c, 2, 60, 77
3, 22054, Note_off_c, 2, 60, 64
3, 22080, Note_on_c, 2, 67, 127
3, 22208, Note_off_c, 2, 67, 64
3, 22248, Note_on_c, 2, 62, 22
3, 22292, Note_off_c, 2, 62, 64
3, 22322, Note_on_c, 2, 65, 68
3, 22410, Note_off_c, 2, 65, 64
3, 22470, Note_on_c, 2, 65, 85
3, 22570, Note_off_c, 2, 65, 64
3, 22580, Note_on_c, 2, 62, 53
3, 22808, Note_off_c, 2, 62, 64
3, 22814, Note_on_c, 2, 65, 55
3, 23000, Note_off_c, 2, 65, 64
3, 35538, Note_on_c, 2, 79, 102
3, 35538, Note_on_c, 2, 67, 98
3, 35650, Note_off_c, 2, 79, 64
3, 35662, Note_off_c, 2, 67, 64
3, 35708, Note_on_c, 2, 75, 53
3, 35732, Note_off_c, 2, 75, 64
3, 35776, Note_on_c, 2, 79, 121
3, 35780, Note_on_c, 2, 67, 111
3, 35898, Note_off_c, 2, 67, 64
3, 35904, Note_off_c, 2, 79, 64
3, 35934, Note_on_c, 2, 75, 80
3, 35968, Note_off_c, 2, 75, 64
3, 36020, Note_on_c, 2, 72, 127
3, 36022, Note_on_c, 2, 60, 127
3, 36240, Note_off_c, 2, 72, 64
3, 36262, Note_off_c, 2, 60, 64
3, 36266, Note_on_c, 2, 70, 85
3, 36350, Note_off_c, 2, 70, 64
3, 36422, Note_on_c, 2, 67, 16
3, 36450, Note_off_c, 2, 67, 64
3, 36514, Note_on_c, 2, 65, 91
3, 36572, Note_off_c, 2, 65, 64
3, 36654, Note_on_c, 2, 65, 127
3, 36736, Note_off_c, 2, 65, 64
3, 36752, Note_on_c, 2, 62, 37
3, 36848, Note_off_c, 2, 62, 64
3, 36886, Note_on_c, 2, 65, 101
3, 36942, Note_off_c, 2, 65, 64
3, 36970, Note_on_c, 2, 62, 80
3, 37052, Note_off_c, 2, 62, 64
3, 37112, Note_on_c, 2, 65, 127
3, 37196, Note_off_c, 2, 65, 64
3, 37216, Note_on_c, 2, 64, 72
3, 37304, Note_off_c, 2, 64, 64
3, 37358, Note_on_c, 2, 62, 110
3, 37446, Note_off_c, 2, 62, 64
3, 37456, Note_on_c, 2, 60, 68
3, 37520, Note_off_c, 2, 60, 64
3, 37604, Note_on_c, 2, 60, 88
3, 37680, Note_off_c, 2, 60, 64
3, 37696, Note_on_c, 2, 62, 120
3, 37826, Note_off_c, 2, 62, 64
3, 37850, Note_on_c, 2, 60, 63
3, 37908, Note_off_c, 2, 60, 64
3, 39532, Note_on_c, 2, 73, 127
3, 39612, Note_off_c, 2, 73, 64
3, 39630, Note_on_c, 2, 74, 105
3, 39722, Note_off_c, 2, 74, 64
3, 39764, Note_on_c, 2, 77, 127
3, 39818, Note_off_c, 2, 77, 64
3, 39864, Note_on_c, 2, 74, 38
3, 39888, Note_off_c, 2, 74, 64
3, 39908, Note_on_c, 2, 77, 56
3, 39926, Note_on_c, 2, 74, 102
3, 39954, Note_on_c, 2, 70, 88
3, 39984, Note_off_c, 2, 77, 64
3, 40006, Note_off_c, 2, 74, 64
3, 40016, Note_on_c, 2, 65, 96
3, 40030, Note_off_c, 2, 70, 64
3, 40056, Note_off_c, 2, 65, 64
3, 40098, Note_on_c, 2, 63, 126
3, 40246, Note_off_c, 2, 63, 64
3, 41194, Note_on_c, 2, 63, 127
3, 41194, Note_on_c, 2, 68, 127
3, 41202, Note_on_c, 2, 64, 127
3, 41272, Note_off_c, 2, 68, 64
3, 41274, Note_off_c, 2, 63, 64
3, 41276, Note_off_c, 2, 64, 64
3, 41280, Note_on_c, 2, 65, 80
3, 41350, Note_off_c, 2, 65, 64
3, 41354, Note_on_c, 2, 68, 81
3, 41412, Note_off_c, 2, 68, 64
3, 41416, Note_on_c, 2, 65, 62
3, 41452, Note_off_c, 2, 65, 64
3, 41466, Note_on_c, 2, 68, 85
3, 41516, Note_off_c, 2, 68, 64
3, 41528, Note_on_c, 2, 65, 58
3, 41566, Note_on_c, 2, 68, 85
3, 41582, Note_off_c, 2, 65, 64
3, 41622, Note_off_c, 2, 68, 64
3, 41626, Note_on_c, 2, 65, 61
3, 41670, Note_on_c, 2, 68, 82
3, 41682, Note_off_c, 2, 65, 64
3, 41706, Note_off_c, 2, 68, 64
3, 41722, Note_on_c, 2, 65, 76
3, 41780, Note_off_c, 2, 65, 64
3, 41928, Note_on_c, 2, 62, 93
3, 41994, Note_off_c, 2, 62, 64
3, 42028, Note_on_c, 2, 63, 35
3, 42034, Note_on_c, 2, 69, 32
3, 42068, Note_off_c, 2, 63, 64
3, 42070, Note_on_c, 2, 65, 77
3, 42096, Note_on_c, 2, 63, 62
3, 42136, Note_off_c, 2, 65, 64
3, 42146, Note_off_c, 2, 69, 64
3, 42154, Note_on_c, 2, 60, 100
3, 42184, Note_off_c, 2, 63, 64
3, 42202, Note_off_c, 2, 60, 64
3, 42268, Note_on_c, 2, 62, 60
3, 42354, Note_off_c, 2, 62, 64
3, 42412, Note_on_c, 2, 65, 88
3, 42458, Note_off_c, 2, 65, 64
3, 42496, Note_on_c, 2, 65, 127
3, 42610, Note_off_c, 2, 65, 64
3, 42662, Note_on_c, 2, 62, 36
3, 42706, Note_off_c, 2, 62, 64
3, 42742, Note_on_c, 2, 65, 126
3, 42942, Note_off_c, 2, 65, 64
3, 42980, Note_on_c, 2, 67, 127
3, 43088, Note_off_c, 2, 67, 64
3, 43124, Note_on_c, 2, 65, 90
3, 43158, Note_off_c, 2, 65, 64
3, 43360, Note_on_c, 2, 67, 88
3, 43412, Note_off_c, 2, 67, 64
3, 43448, Note_on_c, 2, 69, 111
3, 43536, Note_off_c, 2, 69, 64
3, 43604, Note_on_c, 2, 67, 62
3, 43634, Note_off_c, 2, 67, 64
3, 43698, Note_on_c, 2, 76, 101
3, 43700, Note_on_c, 2, 70, 91
3, 43740, Note_off_c, 2, 70, 64
3, 43752, Note_on_c, 2, 72, 42
3, 43790, Note_on_c, 2, 70, 60
3, 43808, Note_off_c, 2, 72, 64
3, 43826, Note_on_c, 2, 67, 67
3, 43846, Note_off_c, 2, 70, 64
3, 43864, Note_off_c, 2, 76, 64
3, 43872, Note_off_c, 2, 67, 64
3, 43928, Note_on_c, 2, 76, 90
3, 43928, Note_on_c, 2, 69, 102
3, 44048, Note_off_c, 2, 69, 64
3, 44056, Note_off_c, 2, 76, 64
3, 44080, Note_on_c, 2, 67, 80
3, 44398, Note_off_c, 2, 67, 64
3, 45758, Note_on_c, 2, 68, 127
3, 45840, Note_off_c, 2, 68, 64
3, 45856, Note_on_c, 2, 69, 81
3, 45930, Note_off_c, 2, 69, 64
3, 46004, Note_on_c, 2, 62, 115
3, 46004, Note_on_c, 2, 74, 96
3, 46018, Note_on_c, 2, 76, 102
3, 46036, Note_off_c, 2, 62, 64
3, 46040, Note_off_c, 2, 74, 64
3, 46042, Note_off_c, 2, 76, 64
3, 46256, Note_on_c, 2, 77, 127
3, 46256, Note_on_c, 2, 65, 123
3, 46300, Note_off_c, 2, 65, 64
3, 46340, Note_off_c, 2, 77, 64
3, 46500, Note_on_c, 2, 74, 85
3, 46524, Note_off_c, 2, 74, 64
3, 46588, Note_on_c, 2, 77, 127
3, 46588, Note_on_c, 2, 65, 126
3, 46640, Note_off_c, 2, 65, 64
3, 46652, Note_off_c, 2, 77, 64
3, 46730, Note_on_c, 2, 77, 127
3, 46734, Note_on_c, 2, 65, 110
3, 46796, Note_off_c, 2, 65, 64
3, 46810, Note_off_c, 2, 77, 64
3, 46840, Note_on_c, 2, 74, 62
3, 46888, Note_off_c, 2, 74, 64
3, 46888, End_track
4, 0, Start_track
4, 0, Title_t, "vibes"
4, 0, Program_c, 6, 11
4, 0, Control_c, 6, 7, 97
4, 1214, Note_on_c, 6, 72, 64
4, 1264, Note_off_c, 6, 72, 64
4, 1302, Note_on_c, 6, 75, 43
4, 1348, Note_on_c, 6, 77, 72
4, 1358, Note_off_c, 6, 75, 64
4, 1404, Note_off_c, 6, 77, 64
4, 1450, Note_on_c, 6, 74, 64
4, 1532, Note_off_c, 6, 74, 64
4, 1592, Note_on_c, 6, 77, 109
4, 1676, Note_off_c, 6, 77, 64
4, 1696, Note_on_c, 6, 76, 58
4, 1784, Note_off_c, 6, 76, 64
4, 1838, Note_on_c, 6, 74, 88
4, 1926, Note_off_c, 6, 74, 64
4, 1936, Note_on_c, 6, 72, 55
4, 2000, Note_off_c, 6, 72, 64
4, 2084, Note_on_c, 6, 72, 71
4, 2160, Note_off_c, 6, 72, 64
4, 2176, Note_on_c, 6, 74, 96
4, 2306, Note_off_c, 6, 74, 64
4, 2330, Note_on_c, 6, 72, 51
4, 2388, Note_off_c, 6, 72, 64
4, 2420, Note_on_c, 6, 70, 87
4, 2524, Note_off_c, 6, 70, 64
4, 2576, Note_on_c, 6, 65, 51
4, 2610, Note_off_c, 6, 65, 64
4, 2646, Note_on_c, 6, 68, 90
4, 2758, Note_off_c, 6, 68, 64
4, 2806, Note_on_c, 6, 69, 49
4, 2864, Note_off_c, 6, 69, 64
4, 2900, Note_on_c, 6, 72, 61
4, 2980, Note_off_c, 6, 72, 64
4, 3040, Note_on_c, 6, 75, 101
4, 3094, Note_off_c, 6, 75, 64
4, 3130, Note_on_c, 6, 77, 80
4, 3226, Note_off_c, 6, 77, 64
4, 3268, Note_on_c, 6, 79, 96
4, 3342, Note_off_c, 6, 79, 64
4, 3528, Note_on_c, 6, 74, 106
4, 3602, Note_off_c, 6, 74, 64
4, 3632, Note_on_c, 6, 76, 63
4, 3712, Note_off_c, 6, 76, 64
4, 3768, Note_on_c, 6, 77, 89
4, 3832, Note_off_c, 6, 77, 64
4, 3880, Note_on_c, 6, 75, 52
4, 3920, Note_off_c, 6, 75, 64
4, 4010, Note_on_c, 6, 75, 102
4, 4010, Note_on_c, 6, 77, 96
4, 4072, Note_off_c, 6, 77, 64
4, 4078, Note_off_c, 6, 75, 64
4, 4116, Note_on_c, 6, 74, 70
4, 4116, Note_on_c, 6, 77, 32
4, 4164, Note_off_c, 6, 77, 64
4, 4166, Note_off_c, 6, 74, 64
4, 4258, Note_on_c, 6, 77, 97
4, 4258, Note_on_c, 6, 74, 105
4, 4320, Note_off_c, 6, 77, 64
4, 4322, Note_off_c, 6, 74, 64
4, 4334, Note_on_c, 6, 79, 86
4, 4444, Note_off_c, 6, 79, 64
4, 4490, Note_on_c, 6, 75, 71
4, 4556, Note_off_c, 6, 75, 64
4, 4584, Note_on_c, 6, 77, 55
4, 4686, Note_off_c, 6, 77, 64
4, 4728, Note_on_c, 6, 81, 103
4, 4814, Note_off_c, 6, 81, 64
4, 4818, Note_on_c, 6, 82, 81
4, 4876, Note_off_c, 6, 82, 64
4, 4958, Note_on_c, 6, 82, 100
4, 5028, Note_off_c, 6, 82, 64
4, 5062, Note_on_c, 6, 84, 107
4, 5170, Note_off_c, 6, 84, 64
4, 5212, Note_on_c, 6, 79, 43
4, 5272, Note_off_c, 6, 79, 64
4, 5296, Note_on_c, 6, 82, 105
4, 5396, Note_off_c, 6, 82, 64
4, 5710, Note_on_c, 6, 80, 48
4, 5744, Note_off_c, 6, 80, 64
4, 5780, Note_on_c, 6, 82, 115
4, 5998, Note_off_c, 6, 82, 64
4, 6018, Note_on_c, 6, 80, 43
4, 6068, Note_off_c, 6, 80, 64
4, 6166, Note_on_c, 6, 82, 92
4, 6198, Note_on_c, 6, 83, 47
4, 6216, Note_off_c, 6, 82, 64
4, 6228, Note_on_c, 6, 84, 65
4, 6254, Note_off_c, 6, 83, 64
4, 6302, Note_off_c, 6, 84, 64
4, 7702, Note_on_c, 6, 80, 48
4, 7730, Note_off_c, 6, 80, 64
4, 7730, Note_on_c, 6, 81, 55
4, 7790, Note_off_c, 6, 81, 64
4, 7850, Note_on_c, 6, 74, 103
4, 7850, Note_on_c, 6, 86, 109
4, 7894, Note_off_c, 6, 74, 64
4, 7908, Note_off_c, 6, 86, 64
4, 7944, Note_on_c, 6, 86, 99
4, 7946, Note_on_c, 6, 74, 97
4, 8048, Note_off_c, 6, 74, 64
4, 8064, Note_off_c, 6, 86, 64
4, 8114, Note_on_c, 6, 81, 44
4, 8158, Note_off_c, 6, 81, 64
4, 8190, Note_on_c, 6, 84, 101
4, 8190, Note_on_c, 6, 72, 95
4, 8300, Note_off_c, 6, 72, 64
4, 8330, Note_off_c, 6, 84, 64
4, 8564, Note_on_c, 6, 86, 96
4, 8566, Note_on_c, 6, 74, 87
4, 8566, Note_on_c, 6, 80, 99
4, 8596, Note_off_c, 6, 80, 64
4, 8640, Note_on_c, 6, 81, 40
4, 8650, Note_off_c, 6, 74, 64
4, 8672, Note_off_c, 6, 81, 64
4, 8674, Note_off_c, 6, 86, 64
4, 8804, Note_on_c, 6, 84, 121
4, 8876, Note_off_c, 6, 84, 64
4, 8892, Note_on_c, 6, 82, 72
4, 8972, Note_off_c, 6, 82, 64
4, 9044, Note_on_c, 6, 79, 75
4, 9094, Note_off_c, 6, 79, 64
4, 9136, Note_on_c, 6, 77, 90
4, 9210, Note_off_c, 6, 77, 64
4, 9272, Note_on_c, 6, 75, 85
4, 9342, Note_off_c, 6, 75, 64
4, 9370, Note_on_c, 6, 72, 63
4, 9442, Note_off_c, 6, 72, 64
4, 9510, Note_on_c, 6, 70, 77
4, 9558, Note_off_c, 6, 70, 64
4, 9614, Note_on_c, 6, 67, 47
4, 9980, Note_off_c, 6, 67, 64
4, 10824, Note_on_c, 6, 65, 115
4, 10884, Note_off_c, 6, 65, 64
4, 10970, Note_on_c, 6, 65, 109
4, 11020, Note_off_c, 6, 65, 64
4, 11062, Note_on_c, 6, 65, 91
4, 11134, Note_off_c, 6, 65, 64
4, 11200, Note_on_c, 6, 65, 95
4, 11284, Note_off_c, 6, 65, 64
4, 11304, Note_on_c, 6, 63, 87
4, 11422, Note_off_c, 6, 63, 64
4, 11454, Note_on_c, 6, 60, 50
4, 11482, Note_off_c, 6, 60, 64
4, 11538, Note_on_c, 6, 63, 89
4, 11540, Note_on_c, 6, 69, 90
4, 11564, Note_on_c, 6, 65, 54
4, 11590, Note_off_c, 6, 63, 64
4, 11740, Note_off_c, 6, 65, 64
4, 11790, Note_on_c, 6, 63, 66
4, 11908, Note_off_c, 6, 63, 64
4, 11926, Note_off_c, 6, 69, 64
4, 11932, Note_on_c, 6, 60, 51
4, 12300, Note_off_c, 6, 60, 64
4, 12300, End_track
5, 0, Start_track
5, 0, Title_t, "guitar"
5, 0, Program_c, 4, 26
5, 0, Control_c, 4, 7, 121
5, 24168, Note_on_c, 4, 66, 127
5, 24226, Note_off_c, 4, 66, 64
5, 24260, Note_on_c, 4, 67, 127
5, 24326, Note_off_c, 4, 67, 64
5, 24412, Note_on_c, 4, 65, 127
5, 24474, Note_off_c, 4, 65, 64
5, 24490, Note_on_c, 4, 62, 127
5, 24572, Note_off_c, 4, 62, 64
5, 24632, Note_on_c, 4, 65, 127
5, 24716, Note_off_c, 4, 65, 64
5, 24736, Note_on_c, 4, 64, 121
5, 24824, Note_off_c, 4, 64, 64
5, 24878, Note_on_c, 4, 62, 127
5, 24966, Note_off_c, 4, 62, 64
5, 24976, Note_on_c, 4, 60, 114
5, 25040, Note_off_c, 4, 60, 64
5, 25124, Note_on_c, 4, 60, 127
5, 25200, Note_off_c, 4, 60, 64
5, 25216, Note_on_c, 4, 62, 127
5, 25346, Note_off_c, 4, 62, 64
5, 25370, Note_on_c, 4, 60, 106
5, 25428, Note_off_c, 4, 60, 64
5, 25454, Note_on_c, 4, 62, 127
5, 25564, Note_off_c, 4, 62, 64
5, 25610, Note_on_c, 4, 58, 127
5, 25676, Note_off_c, 4, 58, 64
5, 25704, Note_on_c, 4, 60, 114
5, 25806, Note_off_c, 4, 60, 64
5, 25848, Note_on_c, 4, 64, 127
5, 25934, Note_off_c, 4, 64, 64
5, 25934, Note_on_c, 4, 65, 127
5, 26030, Note_off_c, 4, 65, 64
5, 26098, Note_on_c, 4, 65, 127
5, 26160, Note_off_c, 4, 65, 64
5, 26176, Note_on_c, 4, 63, 127
5, 26300, Note_off_c, 4, 63, 64
5, 26350, Note_on_c, 4, 60, 85
5, 26392, Note_off_c, 4, 60, 64
5, 26400, Note_on_c, 4, 65, 127
5, 26496, Note_off_c, 4, 65, 64
5, 26564, Note_on_c, 4, 65, 127
5, 26626, Note_off_c, 4, 65, 64
5, 26642, Note_on_c, 4, 63, 127
5, 26766, Note_off_c, 4, 63, 64
5, 26816, Note_on_c, 4, 60, 85
5, 26858, Note_off_c, 4, 60, 64
5, 26898, Note_on_c, 4, 67, 127
5, 26898, Note_on_c, 4, 79, 127
5, 27010, Note_off_c, 4, 79, 64
5, 27022, Note_off_c, 4, 67, 64
5, 27068, Note_on_c, 4, 75, 74
5, 27092, Note_off_c, 4, 75, 64
5, 27136, Note_on_c, 4, 79, 127
5, 27140, Note_on_c, 4, 67, 127
5, 27258, Note_off_c, 4, 67, 64
5, 27264, Note_off_c, 4, 79, 64
5, 27294, Note_on_c, 4, 75, 112
5, 27328, Note_off_c, 4, 75, 64
5, 27354, Note_on_c, 4, 72, 112
5, 27738, Note_off_c, 4, 72, 64
5, 28010, Note_on_c, 4, 73, 127
5, 28088, Note_off_c, 4, 73, 64
5, 28120, Note_on_c, 4, 74, 110
5, 28196, Note_off_c, 4, 74, 64
5, 28250, Note_on_c, 4, 77, 127
5, 28320, Note_off_c, 4, 77, 64
5, 28352, Note_on_c, 4, 79, 127
5, 28460, Note_off_c, 4, 79, 64
5, 28506, Note_on_c, 4, 77, 89
5, 28546, Note_off_c, 4, 77, 64
5, 28588, Note_on_c, 4, 79, 127
5, 28710, Note_off_c, 4, 79, 64
5, 28744, Note_on_c, 4, 77, 110
5, 28770, Note_off_c, 4, 77, 64
5, 28984, Note_on_c, 4, 75, 79
5, 29006, Note_off_c, 4, 75, 64
5, 29068, Note_on_c, 4, 84, 127
5, 29068, Note_on_c, 4, 72, 127
5, 29122, Note_off_c, 4, 72, 64
5, 29178, Note_off_c, 4, 84, 64
5, 29210, Note_on_c, 4, 72, 127
5, 29248, Note_off_c, 4, 72, 64
5, 29256, Note_on_c, 4, 84, 127
5, 29306, Note_off_c, 4, 84, 64
5, 29308, Note_on_c, 4, 72, 110
5, 29358, Note_off_c, 4, 72, 64
5, 29370, Note_on_c, 4, 84, 98
5, 29414, Note_off_c, 4, 84, 64
5, 29416, Note_on_c, 4, 72, 89
5, 29448, Note_off_c, 4, 72, 64
5, 29924, Note_on_c, 4, 74, 127
5, 30026, Note_on_c, 4, 72, 110
5, 30058, Note_off_c, 4, 74, 64
5, 30118, Note_off_c, 4, 72, 64
5, 30180, Note_on_c, 4, 70, 106
5, 30252, Note_on_c, 4, 69, 127
5, 30268, Note_off_c, 4, 70, 64
5, 30360, Note_off_c, 4, 69, 64
5, 30408, Note_on_c, 4, 67, 117
5, 30470, Note_off_c, 4, 67, 64
5, 30518, Note_on_c, 4, 68, 127
5, 30548, Note_off_c, 4, 68, 64
5, 30556, Note_on_c, 4, 69, 127
5, 30732, Note_off_c, 4, 69, 64
5, 30732, Note_on_c, 4, 70, 127
5, 30734, Note_on_c, 4, 77, 127
5, 30800, Note_off_c, 4, 70, 64
5, 30812, Note_off_c, 4, 77, 64
5, 30882, Note_on_c, 4, 77, 127
5, 30882, Note_on_c, 4, 70, 127
5, 30918, Note_off_c, 4, 70, 64
5, 30932, Note_off_c, 4, 77, 64
5, 30976, Note_on_c, 4, 68, 127
5, 30980, Note_on_c, 4, 77, 102
5, 31016, Note_off_c, 4, 68, 64
5, 31018, Note_on_c, 4, 69, 98
5, 31098, Note_off_c, 4, 77, 64
5, 31118, Note_off_c, 4, 69, 64
5, 31204, Note_on_c, 4, 65, 126
5, 31352, Note_off_c, 4, 65, 64
5, 31844, Note_on_c, 4, 75, 127
5, 31844, Note_on_c, 4, 68, 127
5, 31870, Note_off_c, 4, 68, 64
5, 31872, Note_on_c, 4, 69, 127
5, 31948, Note_off_c, 4, 75, 64
5, 31970, Note_off_c, 4, 69, 64
5, 32070, Note_on_c, 4, 75, 127
5, 32072, Note_on_c, 4, 68, 127
5, 32112, Note_off_c, 4, 68, 64
5, 32114, Note_on_c, 4, 69, 127
5, 32184, Note_off_c, 4, 75, 64
5, 32276, Note_off_c, 4, 69, 64
5, 32318, Note_on_c, 4, 67, 126
5, 32318, Note_on_c, 4, 72, 127
5, 32368, Note_off_c, 4, 72, 64
5, 32374, Note_off_c, 4, 67, 64
5, 32410, Note_on_c, 4, 68, 127
5, 32416, Note_on_c, 4, 75, 127
5, 32448, Note_on_c, 4, 69, 127
5, 32458, Note_off_c, 4, 68, 64
5, 32498, Note_off_c, 4, 75, 64
5, 32500, Note_off_c, 4, 69, 64
5, 32572, Note_on_c, 4, 68, 127
5, 32594, Note_off_c, 4, 68, 64
5, 32640, Note_on_c, 4, 67, 112
5, 32832, Note_off_c, 4, 67, 64
5, 33044, Note_on_c, 4, 67, 127
5, 33076, Note_on_c, 4, 69, 127
5, 33080, Note_off_c, 4, 67, 64
5, 33126, Note_off_c, 4, 69, 64
5, 33160, Note_on_c, 4, 72, 127
5, 33226, Note_off_c, 4, 72, 64
5, 33296, Note_on_c, 4, 75, 127
5, 33318, Note_off_c, 4, 75, 64
5, 33620, Note_on_c, 4, 74, 114
5, 33706, Note_off_c, 4, 74, 64
5, 33756, Note_on_c, 4, 82, 127
5, 33850, Note_off_c, 4, 82, 64
5, 33860, Note_on_c, 4, 74, 96
5, 33940, Note_off_c, 4, 74, 64
5, 34000, Note_on_c, 4, 73, 127
5, 34080, Note_off_c, 4, 73, 64
5, 34090, Note_on_c, 4, 72, 113
5, 34188, Note_off_c, 4, 72, 64
5, 34240, Note_on_c, 4, 81, 127
5, 34334, Note_off_c, 4, 81, 64
5, 34346, Note_on_c, 4, 72, 106
5, 34444, Note_off_c, 4, 72, 64
5, 34484, Note_on_c, 4, 71, 127
5, 34548, Note_off_c, 4, 71, 64
5, 34582, Note_on_c, 4, 70, 114
5, 34662, Note_off_c, 4, 70, 64
5, 34712, Note_on_c, 4, 68, 127
5, 34782, Note_off_c, 4, 68, 64
5, 34814, Note_on_c, 4, 69, 127
5, 34914, Note_off_c, 4, 69, 64
5, 34950, Note_on_c, 4, 72, 127
5, 35016, Note_off_c, 4, 72, 64
5, 35058, Note_on_c, 4, 74, 71
5, 35132, Note_off_c, 4, 74, 64
5, 35184, Note_on_c, 4, 77, 127
5, 35236, Note_off_c, 4, 77, 64
5, 35286, Note_on_c, 4, 79, 77
5, 35308, Note_off_c, 4, 79, 64
5, 35318, Note_on_c, 4, 80, 127
5, 35344, Note_on_c, 4, 79, 126
5, 35374, Note_off_c, 4, 80, 64
5, 35404, Note_on_c, 4, 77, 127
5, 35420, Note_off_c, 4, 79, 64
5, 35454, Note_off_c, 4, 77, 64
5, 35454, End_track
6, 0, Start_track
6, 0, Title_t, "bass"
6, 0, Program_c, 1, 32
6, 0, Control_c, 1, 7, 93
6, 960, Note_on_c, 1, 41, 86
6, 1440, Note_off_c, 1, 41, 64
6, 1440, Note_on_c, 1, 36, 86
6, 1920, Note_off_c, 1, 36, 64
6, 1920, Note_on_c, 1, 29, 86
6, 2400, Note_off_c, 1, 29, 64
6, 2400, Note_on_c, 1, 36, 86
6, 2880, Note_off_c, 1, 36, 64
6, 2880, Note_on_c, 1, 29, 86
6, 3360, Note_off_c, 1, 29, 64
6, 3360, Note_on_c, 1, 36, 86
6, 3840, Note_off_c, 1, 36, 64
6, 3840, Note_on_c, 1, 29, 86
6, 4320, Note_off_c, 1, 29, 64
6, 4320, Note_on_c, 1, 41, 86
6, 4800, Note_off_c, 1, 41, 64
6, 4800, Note_on_c, 1, 34, 96
6, 5280, Note_on_c, 1, 41, 81
6, 5308, Note_off_c, 1, 34, 64
6, 5760, Note_off_c, 1, 41, 64
6, 5760, Note_on_c, 1, 34, 96
6, 6240, Note_on_c, 1, 41, 81
6, 6268, Note_off_c, 1, 34, 64
6, 6720, Note_off_c, 1, 41, 64
6, 6720, Note_on_c, 1, 34, 86
6, 7200, Note_off_c, 1, 34, 64
6, 7200, Note_on_c, 1, 43, 75
6, 7440, Note_off_c, 1, 43, 64
6, 7440, Note_on_c, 1, 41, 75
6, 7680, Note_off_c, 1, 41, 64
6, 7680, Note_on_c, 1, 41, 96
6, 8160, Note_on_c, 1, 48, 81
6, 8188, Note_off_c, 1, 41, 64
6, 8640, Note_off_c, 1, 48, 64
6, 8640, Note_on_c, 1, 36, 88
6, 9120, Note_off_c, 1, 36, 64
6, 9120, Note_on_c, 1, 43, 80
6, 9600, Note_off_c, 1, 43, 64
6, 9600, Note_on_c, 1, 36, 85
6, 10080, Note_on_c, 1, 43, 80
6, 10110, Note_off_c, 1, 36, 64
6, 10464, Note_off_c, 1, 43, 64
6, 10560, Note_on_c, 1, 29, 88
6, 11040, Note_off_c, 1, 29, 64
6, 11040, Note_on_c, 1, 36, 78
6, 11520, Note_on_c, 1, 41, 82
6, 11580, Note_off_c, 1, 36, 64
6, 12000, Note_on_c, 1, 36, 83
6, 12010, Note_off_c, 1, 41, 64
6, 12454, Note_off_c, 1, 36, 64
6, 12480, Note_on_c, 1, 41, 86
6, 12960, Note_off_c, 1, 41, 64
6, 12960, Note_on_c, 1, 36, 86
6, 13440, Note_off_c, 1, 36, 64
6, 13440, Note_on_c, 1, 29, 86
6, 13920, Note_off_c, 1, 29, 64
6, 13920, Note_on_c, 1, 36, 86
6, 14400, Note_off_c, 1, 36, 64
6, 14400, Note_on_c, 1, 41, 86
6, 14880, Note_off_c, 1, 41, 64
6, 14880, Note_on_c, 1, 36, 86
6, 15360, Note_off_c, 1, 36, 64
6, 15360, Note_on_c, 1, 29, 86
6, 15840, Note_off_c, 1, 29, 64
6, 15840, Note_on_c, 1, 41, 86
6, 16320, Note_off_c, 1, 41, 64
6, 16320, Note_on_c, 1, 34, 96
6, 16800, Note_on_c, 1, 41, 81
6, 16828, Note_off_c, 1, 34, 64
6, 17280, Note_off_c, 1, 41, 64
6, 17280, Note_on_c, 1, 34, 80
6, 17614, Note_off_c, 1, 34, 64
6, 17760, Note_on_c, 1, 34, 93
6, 18240, Note_off_c, 1, 34, 64
6, 18240, Note_on_c, 1, 34, 86
6, 18720, Note_off_c, 1, 34, 64
6, 18720, Note_on_c, 1, 43, 75
6, 18960, Note_off_c, 1, 43, 64
6, 18960, Note_on_c, 1, 41, 75
6, 19200, Note_off_c, 1, 41, 64
6, 19200, Note_on_c, 1, 41, 96
6, 19680, Note_on_c, 1, 48, 81
6, 19708, Note_off_c, 1, 41, 64
6, 20160, Note_off_c, 1, 48, 64
6, 20160, Note_on_c, 1, 36, 88
6, 20640, Note_off_c, 1, 36, 64
6, 20640, Note_on_c, 1, 43, 80
6, 21120, Note_off_c, 1, 43, 64
6, 21120, Note_on_c, 1, 36, 85
6, 21600, Note_on_c, 1, 43, 80
6, 21630, Note_off_c, 1, 36, 64
6, 21984, Note_off_c, 1, 43, 64
6, 22080, Note_on_c, 1, 41, 96
6, 22560, Note_on_c, 1, 48, 81
6, 22588, Note_off_c, 1, 41, 64
6, 23040, Note_off_c, 1, 48, 64
6, 23040, Note_on_c, 1, 41, 96
6, 23520, Note_on_c, 1, 48, 81
6, 23548, Note_off_c, 1, 41, 64
6, 24000, Note_off_c, 1, 48, 64
6, 24000, Note_on_c, 1, 41, 86
6, 24480, Note_off_c, 1, 41, 64
6, 24480, Note_on_c, 1, 36, 86
6, 24960, Note_off_c, 1, 36, 64
6, 24960, Note_on_c, 1, 41, 86
6, 25440, Note_off_c, 1, 41, 64
6, 25440, Note_on_c, 1, 36, 86
6, 25920, Note_off_c, 1, 36, 64
6, 25920, Note_on_c, 1, 29, 86
6, 26400, Note_off_c, 1, 29, 64
6, 26400, Note_on_c, 1, 36, 86
6, 26880, Note_off_c, 1, 36, 64
6, 26880, Note_on_c, 1, 29, 86
6, 27360, Note_off_c, 1, 29, 64
6, 27360, Note_on_c, 1, 29, 86
6, 27840, Note_off_c, 1, 29, 64
6, 27840, Note_on_c, 1, 34, 96
6, 28320, Note_on_c, 1, 41, 81
6, 28348, Note_off_c, 1, 34, 64
6, 28800, Note_off_c, 1, 41, 64
6, 28800, Note_on_c, 1, 34, 96
6, 29280, Note_on_c, 1, 41, 81
6, 29308, Note_off_c, 1, 34, 64
6, 29760, Note_off_c, 1, 41, 64
6, 29760, Note_on_c, 1, 34, 86
6, 30240, Note_off_c, 1, 34, 64
6, 30240, Note_on_c, 1, 43, 75
6, 30480, Note_off_c, 1, 43, 64
6, 30480, Note_on_c, 1, 41, 75
6, 30720, Note_off_c, 1, 41, 64
6, 30720, Note_on_c, 1, 41, 80
6, 31054, Note_off_c, 1, 41, 64
6, 31200, Note_on_c, 1, 41, 93
6, 31680, Note_off_c, 1, 41, 64
6, 31680, Note_on_c, 1, 36, 88
6, 32160, Note_off_c, 1, 36, 64
6, 32160, Note_on_c, 1, 43, 80
6, 32640, Note_off_c, 1, 43, 64
6, 32640, Note_on_c, 1, 36, 85
6, 33120, Note_on_c, 1, 43, 80
6, 33150, Note_off_c, 1, 36, 64
6, 33504, Note_off_c, 1, 43, 64
6, 33600, Note_on_c, 1, 41, 88
6, 34080, Note_off_c, 1, 41, 64
6, 34080, Note_on_c, 1, 48, 80
6, 34560, Note_off_c, 1, 48, 64
6, 34560, Note_on_c, 1, 41, 85
6, 35040, Note_on_c, 1, 48, 80
6, 35070, Note_off_c, 1, 41, 64
6, 35424, Note_off_c, 1, 48, 64
6, 35520, Note_on_c, 1, 41, 86
6, 36000, Note_off_c, 1, 41, 64
6, 36000, Note_on_c, 1, 36, 86
6, 36480, Note_off_c, 1, 36, 64
6, 36480, Note_on_c, 1, 41, 86
6, 36960, Note_off_c, 1, 41, 64
6, 36960, Note_on_c, 1, 36, 86
6, 37440, Note_off_c, 1, 36, 64
6, 37440, Note_on_c, 1, 29, 86
6, 37920, Note_off_c, 1, 29, 64
6, 37920, Note_on_c, 1, 36, 86
6, 38400, Note_off_c, 1, 36, 64
6, 38400, Note_on_c, 1, 41, 86
6, 38880, Note_off_c, 1, 41, 64
6, 38880, Note_on_c, 1, 41, 86
6, 39360, Note_off_c, 1, 41, 64
6, 39360, Note_on_c, 1, 34, 96
6, 39840, Note_on_c, 1, 41, 81
6, 39868, Note_off_c, 1, 34, 64
6, 40320, Note_off_c, 1, 41, 64
6, 40320, Note_on_c, 1, 34, 96
6, 40800, Note_on_c, 1, 41, 81
6, 40828, Note_off_c, 1, 34, 64
6, 41280, Note_off_c, 1, 41, 64
6, 41280, Note_on_c, 1, 34, 86
6, 41760, Note_off_c, 1, 34, 64
6, 41760, Note_on_c, 1, 43, 75
6, 42000, Note_off_c, 1, 43, 64
6, 42000, Note_on_c, 1, 41, 75
6, 42240, Note_off_c, 1, 41, 64
6, 42240, Note_on_c, 1, 41, 80
6, 42574, Note_off_c, 1, 41, 64
6, 42720, Note_on_c, 1, 41, 93
6, 43200, Note_off_c, 1, 41, 64
6, 43200, Note_on_c, 1, 36, 88
6, 43680, Note_off_c, 1, 36, 64
6, 43680, Note_on_c, 1, 43, 80
6, 44160, Note_off_c, 1, 43, 64
6, 44160, Note_on_c, 1, 36, 85
6, 44640, Note_on_c, 1, 43, 80
6, 44670, Note_off_c, 1, 36, 64
6, 45024, Note_off_c, 1, 43, 64
6, 45120, Note_on_c, 1, 41, 80
6, 45454, Note_off_c, 1, 41, 64
6, 45600, Note_on_c, 1, 41, 93
6, 46080, Note_off_c, 1, 41, 64
6, 46080, Note_on_c, 1, 41, 80
6, 46414, Note_off_c, 1, 41, 64
6, 46560, Note_on_c, 1, 41, 93
6, 47040, Note_off_c, 1, 41, 64
6, 47040, Note_on_c, 1, 41, 99
6, 47222, Note_off_c, 1, 41, 64
6, 47280, Note_on_c, 1, 45, 87
6, 47424, Note_off_c, 1, 45, 64
6, 47520, Note_on_c, 1, 46, 88
6, 47654, Note_off_c, 1, 46, 64
6, 47760, Note_on_c, 1, 47, 101
6, 47906, Note_off_c, 1, 47, 64
6, 48000, Note_on_c, 1, 48, 83
6, 48318, Note_off_c, 1, 48, 64
6, 48400, Note_on_c, 1, 41, 94
6, 48900, Note_off_c, 1, 41, 64
6, 48900, End_track
7, 0, Start_track
7, 0, Title_t, "drums"
7, 0, Control_c, 9, 7, 113
7, 1200, Note_on_c, 9, 55, 80
7, 1392, Note_off_c, 9, 55, 64
7, 1440, Note_on_c, 9, 51, 127
7, 1560, Note_off_c, 9, 51, 64
7, 1680, Note_on_c, 9, 55, 80
7, 1872, Note_off_c, 9, 55, 64
7, 2160, Note_on_c, 9, 55, 80
7, 2352, Note_off_c, 9, 55, 64
7, 2400, Note_on_c, 9, 51, 127
7, 2520, Note_off_c, 9, 51, 64
7, 2640, Note_on_c, 9, 55, 80
7, 2832, Note_off_c, 9, 55, 64
7, 3120, Note_on_c, 9, 55, 80
7, 3312, Note_off_c, 9, 55, 64
7, 3360, Note_on_c, 9, 51, 127
7, 3480, Note_off_c, 9, 51, 64
7, 3600, Note_on_c, 9, 55, 80
7, 3792, Note_off_c, 9, 55, 64
7, 4080, Note_on_c, 9, 55, 80
7, 4272, Note_off_c, 9, 55, 64
7, 4320, Note_on_c, 9, 51, 127
7, 4440, Note_off_c, 9, 51, 64
7, 4560, Note_on_c, 9, 55, 80
7, 4752, Note_off_c, 9, 55, 64
7, 5040, Note_on_c, 9, 55, 80
7, 5232, Note_off_c, 9, 55, 64
7, 5280, Note_on_c, 9, 51, 127
7, 5400, Note_off_c, 9, 51, 64
7, 5520, Note_on_c, 9, 55, 80
7, 5712, Note_off_c, 9, 55, 64
7, 6000, Note_on_c, 9, 55, 80
7, 6192, Note_off_c, 9, 55, 64
7, 6240, Note_on_c, 9, 51, 127
7, 6360, Note_off_c, 9, 51, 64
7, 6480, Note_on_c, 9, 55, 80
7, 6672, Note_off_c, 9, 55, 64
7, 6960, Note_on_c, 9, 55, 80
7, 7152, Note_off_c, 9, 55, 64
7, 7200, Note_on_c, 9, 51, 127
7, 7320, Note_off_c, 9, 51, 64
7, 7440, Note_on_c, 9, 55, 80
7, 7632, Note_off_c, 9, 55, 64
7, 7920, Note_on_c, 9, 55, 80
7, 8112, Note_off_c, 9, 55, 64
7, 8160, Note_on_c, 9, 51, 127
7, 8280, Note_off_c, 9, 51, 64
7, 8400, Note_on_c, 9, 55, 80
7, 8592, Note_off_c, 9, 55, 64
7, 8880, Note_on_c, 9, 55, 80
7, 9072, Note_off_c, 9, 55, 64
7, 9120, Note_on_c, 9, 51, 127
7, 9240, Note_off_c, 9, 51, 64
7, 9360, Note_on_c, 9, 55, 80
7, 9552, Note_off_c, 9, 55, 64
7, 9840, Note_on_c, 9, 55, 80
7, 10032, Note_off_c, 9, 55, 64
7, 10080, Note_on_c, 9, 51, 127
7, 10200, Note_off_c, 9, 51, 64
7, 10320, Note_on_c, 9, 55, 80
7, 10512, Note_off_c, 9, 55, 64
7, 10800, Note_on_c, 9, 55, 80
7, 10992, Note_off_c, 9, 55, 64
7, 11040, Note_on_c, 9, 51, 127
7, 11160, Note_off_c, 9, 51, 64
7, 11280, Note_on_c, 9, 55, 80
7, 11472, Note_off_c, 9, 55, 64
7, 11760, Note_on_c, 9, 55, 80
7, 11952, Note_off_c, 9, 55, 64
7, 12000, Note_on_c, 9, 51, 127
7, 12120, Note_off_c, 9, 51, 64
7, 12240, Note_on_c, 9, 55, 80
7, 12432, Note_off_c, 9, 55, 64
7, 12720, Note_on_c, 9, 55, 80
7, 12912, Note_off_c, 9, 55, 64
7, 12960, Note_on_c, 9, 51, 127
7, 13080, Note_off_c, 9, 51, 64
7, 13200, Note_on_c, 9, 55, 80
7, 13392, Note_off_c, 9, 55, 64
7, 13680, Note_on_c, 9, 55, 80
7, 13872, Note_off_c, 9, 55, 64
7, 13920, Note_on_c, 9, 51, 127
7, 14040, Note_off_c, 9, 51, 64
7, 14160, Note_on_c, 9, 55, 80
7, 14352, Note_off_c, 9, 55, 64
7, 14640, Note_on_c, 9, 55, 80
7, 14832, Note_off_c, 9, 55, 64
7, 14880, Note_on_c, 9, 51, 127
7, 15000, Note_off_c, 9, 51, 64
7, 15120, Note_on_c, 9, 55, 80
7, 15312, Note_off_c, 9, 55, 64
7, 15600, Note_on_c, 9, 55, 80
7, 15792, Note_off_c, 9, 55, 64
7, 15840, Note_on_c, 9, 51, 127
7, 15960, Note_off_c, 9, 51, 64
7, 16080, Note_on_c, 9, 55, 80
7, 16272, Note_off_c, 9, 55, 64
7, 16560, Note_on_c, 9, 55, 80
7, 16752, Note_off_c, 9, 55, 64
7, 16800, Note_on_c, 9, 51, 127
7, 16920, Note_off_c, 9, 51, 64
7, 17040, Note_on_c, 9, 55, 80
7, 17232, Note_off_c, 9, 55, 64
7, 17520, Note_on_c, 9, 55, 80
7, 17712, Note_off_c, 9, 55, 64
7, 17760, Note_on_c, 9, 51, 127
7, 17880, Note_off_c, 9, 51, 64
7, 18000, Note_on_c, 9, 55, 80
7, 18192, Note_off_c, 9, 55, 64
7, 18480, Note_on_c, 9, 55, 80
7, 18672, Note_off_c, 9, 55, 64
7, 18720, Note_on_c, 9, 51, 127
7, 18840, Note_off_c, 9, 51, 64
7, 18960, Note_on_c, 9, 55, 80
7, 19152, Note_off_c, 9, 55, 64
7, 19440, Note_on_c, 9, 55, 80
7, 19632, Note_off_c, 9, 55, 64
7, 19680, Note_on_c, 9, 51, 127
7, 19800, Note_off_c, 9, 51, 64
7, 19920, Note_on_c, 9, 55, 80
7, 20112, Note_off_c, 9, 55, 64
7, 20400, Note_on_c, 9, 55, 80
7, 20592, Note_off_c, 9, 55, 64
7, 20640, Note_on_c, 9, 51, 127
7, 20760, Note_off_c, 9, 51, 64
7, 20880, Note_on_c, 9, 55, 80
7, 21072, Note_off_c, 9, 55, 64
7, 21360, Note_on_c, 9, 55, 80
7, 21552, Note_off_c, 9, 55, 64
7, 21600, Note_on_c, 9, 51, 127
7, 21720, Note_off_c, 9, 51, 64
7, 21840, Note_on_c, 9, 55, 80
7, 22032, Note_off_c, 9, 55, 64
7, 22320, Note_on_c, 9, 55, 80
7, 22512, Note_off_c, 9, 55, 64
7, 22560, Note_on_c, 9, 51, 127
7, 22680, Note_off_c, 9, 51, 64
7, 22800, Note_on_c, 9, 55, 80
7, 22992, Note_off_c, 9, 55, 64
7, 23280, Note_on_c, 9, 55, 80
7, 23472, Note_off_c, 9, 55, 64
7, 23520, Note_on_c, 9, 51, 127
7, 23640, Note_off_c, 9, 51, 64
7, 23760, Note_on_c, 9, 55, 80
7, 23952, Note_off_c, 9, 55, 64
7, 24240, Note_on_c, 9, 55, 80
7, 24432, Note_off_c, 9, 55, 64
7, 24480, Note_on_c, 9, 51, 127
7, 24600, Note_off_c, 9, 51, 64
7, 24720, Note_on_c, 9, 55, 80
7, 24912, Note_off_c, 9, 55, 64
7, 25200, Note_on_c, 9, 55, 80
7, 25392, Note_off_c, 9, 55, 64
7, 25440, Note_on_c, 9, 51, 127
7, 25560, Note_off_c, 9, 51, 64
7, 25680, Note_on_c, 9, 55, 80
7, 25872, Note_off_c, 9, 55, 64
7, 26160, Note_on_c, 9, 55, 80
7, 26352, Note_off_c, 9, 55, 64
7, 26400, Note_on_c, 9, 51, 127
7, 26520, Note_off_c, 9, 51, 64
7, 26640, Note_on_c, 9, 55, 80
7, 26832, Note_off_c, 9, 55, 64
7, 27120, Note_on_c, 9, 55, 80
7, 27312, Note_off_c, 9, 55, 64
7, 27360, Note_on_c, 9, 51, 127
7, 27480, Note_off_c, 9, 51, 64
7, 27600, Note_on_c, 9, 55, 80
7, 27792, Note_off_c, 9, 55, 64
7, 28080, Note_on_c, 9, 55, 80
7, 28272, Note_off_c, 9, 55, 64
7, 28320, Note_on_c, 9, 51, 127
7, 28440, Note_off_c, 9, 51, 64
7, 28560, Note_on_c, 9, 55, 80
7, 28752, Note_off_c, 9, 55, 64
7, 29040, Note_on_c, 9, 55, 80
7, 29232, Note_off_c, 9, 55, 64
7, 29280, Note_on_c, 9, 51, 127
7, 29400, Note_off_c, 9, 51, 64
7, 29520, Note_on_c, 9, 55, 80
7, 29712, Note_off_c, 9, 55, 64
7, 30000, Note_on_c, 9, 55, 80
7, 30192, Note_off_c, 9, 55, 64
7, 30240, Note_on_c, 9, 51, 127
7, 30360, Note_off_c, 9, 51, 64
7, 30480, Note_on_c, 9, 55, 80
7, 30672, Note_off_c, 9, 55, 64
7, 30960, Note_on_c, 9, 55, 80
7, 31152, Note_off_c, 9, 55, 64
7, 31200, Note_on_c, 9, 51, 127
7, 31320, Note_off_c, 9, 51, 64
7, 31440, Note_on_c, 9, 55, 80
7, 31632, Note_off_c, 9, 55, 64
7, 31920, Note_on_c, 9, 55, 80
7, 32112, Note_off_c, 9, 55, 64
7, 32160, Note_on_c, 9, 51, 127
7, 32280, Note_off_c, 9, 51, 64
7, 32400, Note_on_c, 9, 55, 80
7, 32592, Note_off_c, 9, 55, 64
7, 32880, Note_on_c, 9, 55, 80
7, 33072, Note_off_c, 9, 55, 64
7, 33120, Note_on_c, 9, 51, 127
7, 33240, Note_off_c, 9, 51, 64
7, 33360, Note_on_c, 9, 55, 80
7, 33552, Note_off_c, 9, 55, 64
7, 33840, Note_on_c, 9, 55, 80
7, 34032, Note_off_c, 9, 55, 64
7, 34080, Note_on_c, 9, 51, 127
7, 34200, Note_off_c, 9, 51, 64
7, 34320, Note_on_c, 9, 55, 80
7, 34512, Note_off_c, 9, 55, 64
7, 34800, Note_on_c, 9, 55, 80
7, 34992, Note_off_c, 9, 55, 64
7, 35040, Note_on_c, 9, 51, 127
7, 35160, Note_off_c, 9, 51, 64
7, 35280, Note_on_c, 9, 55, 80
7, 35472, Note_off_c, 9, 55, 64
7, 35760, Note_on_c, 9, 55, 80
7, 35952, Note_off_c, 9, 55, 64
7, 36000, Note_on_c, 9, 51, 127
7, 36120, Note_off_c, 9, 51, 64
7, 36240, Note_on_c, 9, 55, 80
7, 36432, Note_off_c, 9, 55, 64
7, 36720, Note_on_c, 9, 55, 80
7, 36912, Note_off_c, 9, 55, 64
7, 36960, Note_on_c, 9, 51, 127
7, 37080, Note_off_c, 9, 51, 64
7, 37200, Note_on_c, 9, 55, 80
7, 37392, Note_off_c, 9, 55, 64
7, 37680, Note_on_c, 9, 55, 80
7, 37872, Note_off_c, 9, 55, 64
7, 37920, Note_on_c, 9, 51, 127
7, 38040, Note_off_c, 9, 51, 64
7, 38160, Note_on_c, 9, 55, 80
7, 38352, Note_off_c, 9, 55, 64
7, 38640, Note_on_c, 9, 55, 80
7, 38832, Note_off_c, 9, 55, 64
7, 38880, Note_on_c, 9, 51, 127
7, 39000, Note_off_c, 9, 51, 64
7, 39120, Note_on_c, 9, 55, 80
7, 39312, Note_off_c, 9, 55, 64
7, 39600, Note_on_c, 9, 55, 80
7, 39792, Note_off_c, 9, 55, 64
7, 39840, Note_on_c, 9, 51, 127
7, 39960, Note_off_c, 9, 51, 64
7, 40080, Note_on_c, 9, 55, 80
7, 40272, Note_off_c, 9, 55, 64
7, 40560, Note_on_c, 9, 55, 80
7, 40752, Note_off_c, 9, 55, 64
7, 40800, Note_on_c, 9, 51, 127
7, 40920, Note_off_c, 9, 51, 64
7, 41040, Note_on_c, 9, 55, 80
7, 41232, Note_off_c, 9, 55, 64
7, 41520, Note_on_c, 9, 55, 80
7, 41712, Note_off_c, 9, 55, 64
7, 41760, Note_on_c, 9, 51, 127
7, 41880, Note_off_c, 9, 51, 64
7, 42000, Note_on_c, 9, 55, 80
7, 42192, Note_off_c, 9, 55, 64
7, 42480, Note_on_c, 9, 55, 80
7, 42672, Note_off_c, 9, 55, 64
7, 42720, Note_on_c, 9, 51, 127
7, 42840, Note_off_c, 9, 51, 64
7, 42960, Note_on_c, 9, 55, 80
7, 43152, Note_off_c, 9, 55, 64
7, 43440, Note_on_c, 9, 55, 80
7, 43632, Note_off_c, 9, 55, 64
7, 43680, Note_on_c, 9, 51, 127
7, 43800, Note_off_c, 9, 51, 64
7, 43920, Note_on_c, 9, 55, 80
7, 44112, Note_off_c, 9, 55, 64
7, 44400, Note_on_c, 9, 55, 80
7, 44592, Note_off_c, 9, 55, 64
7, 44640, Note_on_c, 9, 51, 127
7, 44760, Note_off_c, 9, 51, 64
7, 44880, Note_on_c, 9, 55, 80
7, 45072, Note_off_c, 9, 55, 64
7, 45360, Note_on_c, 9, 55, 80
7, 45552, Note_off_c, 9, 55, 64
7, 45600, Note_on_c, 9, 51, 127
7, 45720, Note_off_c, 9, 51, 64
7, 45840, Note_on_c, 9, 55, 80
7, 46032, Note_off_c, 9, 55, 64
7, 46032, End_track
8, 0, Start_track
8, 0, Title_t, "guitar"
8, 0, Program_c, 5, 24
8, 0, Control_c, 5, 7, 122
8, 960, Note_on_c, 5, 41, 56
8, 960, Note_on_c, 5, 57, 62
8, 980, Note_on_c, 5, 65, 63
8, 994, Control_c, 5, 64, 127
8, 1022, Note_off_c, 5, 41, 64
8, 1038, Note_off_c, 5, 65, 64
8, 1042, Note_off_c, 5, 57, 64
8, 1192, Note_on_c, 5, 57, 61
8, 1204, Note_on_c, 5, 41, 74
8, 1206, Note_on_c, 5, 65, 85
8, 1218, Control_c, 5, 64, 0
8, 1236, Note_off_c, 5, 57, 64
8, 1250, Note_off_c, 5, 41, 64
8, 1254, Note_off_c, 5, 65, 64
8, 1440, Note_on_c, 5, 48, 56
8, 1440, Note_on_c, 5, 58, 62
8, 1440, Control_c, 5, 64, 0
8, 1460, Note_on_c, 5, 64, 63
8, 1474, Control_c, 5, 64, 127
8, 1502, Note_off_c, 5, 48, 64
8, 1518, Note_off_c, 5, 64, 64
8, 1522, Note_off_c, 5, 58, 64
8, 1672, Note_on_c, 5, 58, 61
8, 1684, Note_on_c, 5, 48, 74
8, 1686, Note_on_c, 5, 64, 85
8, 1698, Control_c, 5, 64, 0
8, 1716, Note_off_c, 5, 58, 64
8, 1730, Note_off_c, 5, 48, 64
8, 1734, Note_off_c, 5, 64, 64
8, 1920, Control_c, 5, 64, 0
8, 1920, Note_on_c, 5, 41, 56
8, 1920, Note_on_c, 5, 57, 62
8, 1940, Note_on_c, 5, 65, 63
8, 1954, Control_c, 5, 64, 127
8, 1982, Note_off_c, 5, 41, 64
8, 1998, Note_off_c, 5, 65, 64
8, 2002, Note_off_c, 5, 57, 64
8, 2152, Note_on_c, 5, 57, 61
8, 2164, Note_on_c, 5, 41, 74
8, 2166, Note_on_c, 5, 65, 85
8, 2178, Control_c, 5, 64, 0
8, 2196, Note_off_c, 5, 57, 64
8, 2210, Note_off_c, 5, 41, 64
8, 2214, Note_off_c, 5, 65, 64
8, 2400, Note_on_c, 5, 48, 56
8, 2400, Note_on_c, 5, 58, 62
8, 2400, Control_c, 5, 64, 0
8, 2420, Note_on_c, 5, 64, 63
8, 2434, Control_c, 5, 64, 127
8, 2462, Note_off_c, 5, 48, 64
8, 2478, Note_off_c, 5, 64, 64
8, 2482, Note_off_c, 5, 58, 64
8, 2632, Note_on_c, 5, 58, 61
8, 2644, Note_on_c, 5, 48, 74
8, 2646, Note_on_c, 5, 64, 85
8, 2658, Control_c, 5, 64, 0
8, 2676, Note_off_c, 5, 58, 64
8, 2690, Note_off_c, 5, 48, 64
8, 2694, Note_off_c, 5, 64, 64
8, 2880, Note_on_c, 5, 41, 56
8, 2880, Note_on_c, 5, 57, 62
8, 2880, Control_c, 5, 64, 0
8, 2900, Note_on_c, 5, 65, 63
8, 2914, Control_c, 5, 64, 127
8, 2942, Note_off_c, 5, 41, 64
8, 2958, Note_off_c, 5, 65, 64
8, 2962, Note_off_c, 5, 57, 64
8, 3112, Note_on_c, 5, 57, 61
8, 3124, Note_on_c, 5, 41, 74
8, 3126, Note_on_c, 5, 65, 85
8, 3138, Control_c, 5, 64, 0
8, 3156, Note_off_c, 5, 57, 64
8, 3170, Note_off_c, 5, 41, 64
8, 3174, Note_off_c, 5, 65, 64
8, 3360, Note_on_c, 5, 48, 56
8, 3360, Note_on_c, 5, 58, 62
8, 3360, Control_c, 5, 64, 0
8, 3380, Note_on_c, 5, 64, 63
8, 3394, Control_c, 5, 64, 127
8, 3422, Note_off_c, 5, 48, 64
8, 3438, Note_off_c, 5, 64, 64
8, 3442, Note_off_c, 5, 58, 64
8, 3592, Note_on_c, 5, 58, 61
8, 3604, Note_on_c, 5, 48, 74
8, 3606, Note_on_c, 5, 64, 85
8, 3618, Control_c, 5, 64, 0
8, 3636, Note_off_c, 5, 58, 64
8, 3650, Note_off_c, 5, 48, 64
8, 3654, Note_off_c, 5, 64, 64
8, 3840, Note_on_c, 5, 41, 56
8, 3840, Note_on_c, 5, 57, 62
8, 3840, Control_c, 5, 64, 0
8, 3860, Note_on_c, 5, 65, 63
8, 3874, Control_c, 5, 64, 127
8, 3902, Note_off_c, 5, 41, 64
8, 3918, Note_off_c, 5, 65, 64
8, 3922, Note_off_c, 5, 57, 64
8, 4072, Note_on_c, 5, 57, 61
8, 4084, Note_on_c, 5, 41, 74
8, 4086, Note_on_c, 5, 65, 85
8, 4098, Control_c, 5, 64, 0
8, 4116, Note_off_c, 5, 57, 64
8, 4130, Note_off_c, 5, 41, 64
8, 4134, Note_off_c, 5, 65, 64
8, 4320, Note_on_c, 5, 41, 56
8, 4320, Control_c, 5, 64, 0
8, 4320, Note_on_c, 5, 57, 62
8, 4340, Note_on_c, 5, 63, 63
8, 4354, Control_c, 5, 64, 127
8, 4382, Note_off_c, 5, 41, 64
8, 4398, Note_off_c, 5, 63, 64
8, 4402, Note_off_c, 5, 57, 64
8, 4552, Note_on_c, 5, 57, 61
8, 4564, Note_on_c, 5, 41, 74
8, 4566, Note_on_c, 5, 63, 85
8, 4578, Control_c, 5, 64, 0
8, 4596, Note_off_c, 5, 57, 64
8, 4610, Note_off_c, 5, 41, 64
8, 4614, Note_off_c, 5, 63, 64
8, 4800, Note_on_c, 5, 53, 62
8, 4800, Note_on_c, 5, 46, 56
8, 4800, Control_c, 5, 64, 0
8, 4820, Note_on_c, 5, 62, 63
8, 4834, Control_c, 5, 64, 127
8, 4862, Note_off_c, 5, 46, 64
8, 4878, Note_off_c, 5, 62, 64
8, 4882, Note_off_c, 5, 53, 64
8, 5032, Note_on_c, 5, 53, 61
8, 5044, Note_on_c, 5, 46, 74
8, 5046, Note_on_c, 5, 62, 85
8, 5058, Control_c, 5, 64, 0
8, 5076, Note_off_c, 5, 53, 64
8, 5090, Note_off_c, 5, 46, 64
8, 5094, Note_off_c, 5, 62, 64
8, 5282, Note_on_c, 5, 46, 46
8, 5282, Note_on_c, 5, 53, 69
8, 5302, Note_on_c, 5, 62, 40
8, 5306, Control_c, 5, 64, 127
8, 5332, Note_off_c, 5, 53, 64
8, 5338, Note_off_c, 5, 62, 64
8, 5342, Note_off_c, 5, 46, 64
8, 5522, Note_on_c, 5, 53, 104
8, 5530, Note_on_c, 5, 46, 67
8, 5536, Note_on_c, 5, 62, 81
8, 5566, Note_off_c, 5, 53, 64
8, 5572, Control_c, 5, 64, 0
8, 5580, Note_off_c, 5, 46, 64
8, 5584, Note_off_c, 5, 62, 64
8, 5760, Control_c, 5, 64, 0
8, 5760, Note_on_c, 5, 46, 56
8, 5760, Note_on_c, 5, 56, 62
8, 5780, Note_on_c, 5, 62, 63
8, 5794, Control_c, 5, 64, 127
8, 5822, Note_off_c, 5, 46, 64
8, 5838, Note_off_c, 5, 62, 64
8, 5842, Note_off_c, 5, 56, 64
8, 5992, Note_on_c, 5, 56, 61
8, 6004, Note_on_c, 5, 46, 74
8, 6006, Note_on_c, 5, 62, 85
8, 6018, Control_c, 5, 64, 0
8, 6036, Note_off_c, 5, 56, 64
8, 6050, Note_off_c, 5, 46, 64
8, 6054, Note_off_c, 5, 62, 64
8, 6242, Note_on_c, 5, 46, 46
8, 6242, Note_on_c, 5, 56, 69
8, 6262, Note_on_c, 5, 62, 40
8, 6266, Control_c, 5, 64, 127
8, 6292, Note_off_c, 5, 56, 64
8, 6298, Note_off_c, 5, 62, 64
8, 6302, Note_off_c, 5, 46, 64
8, 6482, Note_on_c, 5, 56, 104
8, 6490, Note_on_c, 5, 46, 67
8, 6496, Note_on_c, 5, 62, 81
8, 6526, Note_off_c, 5, 56, 64
8, 6532, Control_c, 5, 64, 0
8, 6540, Note_off_c, 5, 46, 64
8, 6544, Note_off_c, 5, 62, 64
8, 6720, Note_on_c, 5, 53, 62
8, 6720, Note_on_c, 5, 46, 56
8, 6720, Control_c, 5, 64, 0
8, 6740, Note_on_c, 5, 62, 63
8, 6754, Control_c, 5, 64, 127
8, 6782, Note_off_c, 5, 46, 64
8, 6798, Note_off_c, 5, 62, 64
8, 6802, Note_off_c, 5, 53, 64
8, 6952, Note_on_c, 5, 53, 61
8, 6964, Note_on_c, 5, 46, 74
8, 6966, Note_on_c, 5, 62, 85
8, 6978, Control_c, 5, 64, 0
8, 6996, Note_off_c, 5, 53, 64
8, 7010, Note_off_c, 5, 46, 64
8, 7014, Note_off_c, 5, 62, 64
8, 7200, Control_c, 5, 64, 0
8, 7200, Note_on_c, 5, 59, 62
8, 7200, Note_on_c, 5, 43, 56
8, 7220, Note_on_c, 5, 65, 63
8, 7234, Control_c, 5, 64, 127
8, 7262, Note_off_c, 5, 43, 64
8, 7278, Note_off_c, 5, 65, 64
8, 7282, Note_off_c, 5, 59, 64
8, 7440, Control_c, 5, 64, 0
8, 7440, Note_on_c, 5, 57, 62
8, 7440, Note_on_c, 5, 41, 56
8, 7460, Note_on_c, 5, 65, 63
8, 7474, Control_c, 5, 64, 127
8, 7502, Note_off_c, 5, 41, 64
8, 7518, Note_off_c, 5, 65, 64
8, 7522, Note_off_c, 5, 57, 64
8, 7680, Note_on_c, 5, 41, 56
8, 7680, Note_on_c, 5, 57, 62
8, 7680, Control_c, 5, 64, 0
8, 7700, Note_on_c, 5, 65, 63
8, 7714, Control_c, 5, 64, 127
8, 7742, Note_off_c, 5, 41, 64
8, 7758, Note_off_c, 5, 65, 64
8, 7762, Note_off_c, 5, 57, 64
8, 7912, Note_on_c, 5, 57, 61
8, 7924, Note_on_c, 5, 41, 74
8, 7926, Note_on_c, 5, 65, 85
8, 7938, Control_c, 5, 64, 0
8, 7956, Note_off_c, 5, 57, 64
8, 7970, Note_off_c, 5, 41, 64
8, 7974, Note_off_c, 5, 65, 64
8, 8162, Note_on_c, 5, 41, 46
8, 8162, Note_on_c, 5, 57, 69
8, 8182, Note_on_c, 5, 65, 40
8, 8186, Control_c, 5, 64, 127
8, 8212, Note_off_c, 5, 57, 64
8, 8218, Note_off_c, 5, 65, 64
8, 8222, Note_off_c, 5, 41, 64
8, 8402, Note_on_c, 5, 57, 104
8, 8410, Note_on_c, 5, 41, 67
8, 8416, Note_on_c, 5, 65, 81
8, 8446, Note_off_c, 5, 57, 64
8, 8452, Control_c, 5, 64, 0
8, 8460, Note_off_c, 5, 41, 64
8, 8464, Note_off_c, 5, 65, 64
8, 8640, Note_on_c, 5, 58, 62
8, 8640, Note_on_c, 5, 48, 56
8, 8640, Control_c, 5, 64, 0
8, 8660, Note_on_c, 5, 64, 63
8, 8674, Control_c, 5, 64, 127
8, 8702, Note_off_c, 5, 48, 64
8, 8718, Note_off_c, 5, 64, 64
8, 8722, Note_off_c, 5, 58, 64
8, 8872, Note_on_c, 5, 58, 61
8, 8884, Note_on_c, 5, 48, 74
8, 8886, Note_on_c, 5, 64, 85
8, 8898, Control_c, 5, 64, 0
8, 8916, Note_off_c, 5, 58, 64
8, 8930, Note_off_c, 5, 48, 64
8, 8934, Note_off_c, 5, 64, 64
8, 9122, Note_on_c, 5, 48, 46
8, 9122, Note_on_c, 5, 58, 69
8, 9142, Note_on_c, 5, 64, 40
8, 9146, Control_c, 5, 64, 127
8, 9172, Note_off_c, 5, 58, 64
8, 9178, Note_off_c, 5, 64, 64
8, 9182, Note_off_c, 5, 48, 64
8, 9362, Note_on_c, 5, 58, 104
8, 9370, Note_on_c, 5, 48, 67
8, 9376, Note_on_c, 5, 64, 81
8, 9406, Note_off_c, 5, 58, 64
8, 9412, Control_c, 5, 64, 0
8, 9420, Note_off_c, 5, 48, 64
8, 9424, Note_off_c, 5, 64, 64
8, 9614, Note_on_c, 5, 48, 60
8, 9618, Note_on_c, 5, 58, 100
8, 9632, Note_on_c, 5, 64, 54
8, 9632, Control_c, 5, 64, 127
8, 9662, Note_off_c, 5, 58, 64
8, 9672, Note_off_c, 5, 48, 64
8, 9684, Note_off_c, 5, 64, 64
8, 9852, Note_on_c, 5, 58, 61
8, 9856, Note_on_c, 5, 48, 69
8, 9864, Note_on_c, 5, 64, 90
8, 9884, Note_off_c, 5, 58, 64
8, 9896, Note_off_c, 5, 64, 64
8, 9896, Note_off_c, 5, 48, 64
8, 9902, Control_c, 5, 64, 0
8, 10094, Note_on_c, 5, 58, 105
8, 10094, Note_on_c, 5, 48, 56
8, 10108, Note_on_c, 5, 64, 69
8, 10120, Control_c, 5, 64, 127
8, 10138, Note_off_c, 5, 58, 64
8, 10152, Note_off_c, 5, 48, 64
8, 10156, Note_off_c, 5, 64, 64
8, 10318, Note_on_c, 5, 58, 92
8, 10324, Note_on_c, 5, 48, 84
8, 10332, Note_on_c, 5, 64, 79
8, 10358, Note_off_c, 5, 58, 64
8, 10368, Note_off_c, 5, 48, 64
8, 10376, Note_off_c, 5, 64, 64
8, 10408, Control_c, 5, 64, 0
8, 10560, Note_on_c, 5, 41, 56
8, 10560, Note_on_c, 5, 57, 62
8, 10560, Control_c, 5, 64, 0
8, 10580, Note_on_c, 5, 65, 63
8, 10594, Control_c, 5, 64, 127
8, 10622, Note_off_c, 5, 41, 64
8, 10638, Note_off_c, 5, 65, 64
8, 10642, Note_off_c, 5, 57, 64
8, 10792, Note_on_c, 5, 57, 61
8, 10804, Note_on_c, 5, 41, 74
8, 10806, Note_on_c, 5, 65, 85
8, 10818, Control_c, 5, 64, 0
8, 10836, Note_off_c, 5, 57, 64
8, 10850, Note_off_c, 5, 41, 64
8, 10854, Note_off_c, 5, 65, 64
8, 11042, Note_on_c, 5, 41, 46
8, 11042, Note_on_c, 5, 57, 69
8, 11062, Note_on_c, 5, 65, 40
8, 11066, Control_c, 5, 64, 127
8, 11092, Note_off_c, 5, 57, 64
8, 11098, Note_off_c, 5, 65, 64
8, 11102, Note_off_c, 5, 41, 64
8, 11282, Note_on_c, 5, 57, 104
8, 11290, Note_on_c, 5, 41, 67
8, 11296, Note_on_c, 5, 65, 81
8, 11326, Note_off_c, 5, 57, 64
8, 11332, Control_c, 5, 64, 0
8, 11340, Note_off_c, 5, 41, 64
8, 11344, Note_off_c, 5, 65, 64
8, 11534, Note_on_c, 5, 41, 60
8, 11538, Note_on_c, 5, 57, 100
8, 11552, Control_c, 5, 64, 127
8, 11552, Note_on_c, 5, 65, 54
8, 11582, Note_off_c, 5, 57, 64
8, 11592, Note_off_c, 5, 41, 64
8, 11604, Note_off_c, 5, 65, 64
8, 11772, Note_on_c, 5, 57, 61
8, 11776, Note_on_c, 5, 41, 69
8, 11784, Note_on_c, 5, 65, 90
8, 11804, Note_off_c, 5, 57, 64
8, 11816, Note_off_c, 5, 65, 64
8, 11816, Note_off_c, 5, 41, 64
8, 11822, Control_c, 5, 64, 0
8, 12014, Note_on_c, 5, 41, 56
8, 12014, Note_on_c, 5, 57, 105
8, 12028, Note_on_c, 5, 65, 69
8, 12040, Control_c, 5, 64, 127
8, 12058, Note_off_c, 5, 57, 64
8, 12072, Note_off_c, 5, 41, 64
8, 12076, Note_off_c, 5, 65, 64
8, 12238, Note_on_c, 5, 57, 92
8, 12244, Note_on_c, 5, 41, 84
8, 12252, Note_on_c, 5, 65, 79
8, 12278, Note_off_c, 5, 57, 64
8, 12288, Note_off_c, 5, 41, 64
8, 12296, Note_off_c, 5, 65, 64
8, 12328, Control_c, 5, 64, 0
8, 12480, Note_on_c, 5, 41, 56
8, 12480, Note_on_c, 5, 57, 62
8, 12480, Control_c, 5, 64, 0
8, 12500, Note_on_c, 5, 65, 63
8, 12514, Control_c, 5, 64, 127
8, 12542, Note_off_c, 5, 41, 64
8, 12558, Note_off_c, 5, 65, 64
8, 12562, Note_off_c, 5, 57, 64
8, 12712, Note_on_c, 5, 57, 61
8, 12724, Note_on_c, 5, 41, 74
8, 12726, Note_on_c, 5, 65, 85
8, 12738, Control_c, 5, 64, 0
8, 12756, Note_off_c, 5, 57, 64
8, 12770, Note_off_c, 5, 41, 64
8, 12774, Note_off_c, 5, 65, 64
8, 12960, Note_on_c, 5, 48, 56
8, 12960, Note_on_c, 5, 58, 62
8, 12960, Control_c, 5, 64, 0
8, 12980, Note_on_c, 5, 64, 63
8, 12994, Control_c, 5, 64, 127
8, 13022, Note_off_c, 5, 48, 64
8, 13038, Note_off_c, 5, 64, 64
8, 13042, Note_off_c, 5, 58, 64
8, 13192, Note_on_c, 5, 58, 61
8, 13204, Note_on_c, 5, 48, 74
8, 13206, Note_on_c, 5, 64, 85
8, 13218, Control_c, 5, 64, 0
8, 13236, Note_off_c, 5, 58, 64
8, 13250, Note_off_c, 5, 48, 64
8, 13254, Note_off_c, 5, 64, 64
8, 13440, Note_on_c, 5, 41, 56
8, 13440, Note_on_c, 5, 57, 62
8, 13440, Control_c, 5, 64, 0
8, 13460, Note_on_c, 5, 65, 63
8, 13474, Control_c, 5, 64, 127
8, 13502, Note_off_c, 5, 41, 64
8, 13518, Note_off_c, 5, 65, 64
8, 13522, Note_off_c, 5, 57, 64
8, 13672, Note_on_c, 5, 57, 61
8, 13684, Note_on_c, 5, 41, 74
8, 13686, Note_on_c, 5, 65, 85
8, 13698, Control_c, 5, 64, 0
8, 13716, Note_off_c, 5, 57, 64
8, 13730, Note_off_c, 5, 41, 64
8, 13734, Note_off_c, 5, 65, 64
8, 13920, Note_on_c, 5, 48, 56
8, 13920, Note_on_c, 5, 58, 62
8, 13920, Control_c, 5, 64, 0
8, 13940, Note_on_c, 5, 64, 63
8, 13954, Control_c, 5, 64, 127
8, 13982, Note_off_c, 5, 48, 64
8, 13998, Note_off_c, 5, 64, 64
8, 14002, Note_off_c, 5, 58, 64
8, 14152, Note_on_c, 5, 58, 61
8, 14164, Note_on_c, 5, 48, 74
8, 14166, Note_on_c, 5, 64, 85
8, 14178, Control_c, 5, 64, 0
8, 14196, Note_off_c, 5, 58, 64
8, 14210, Note_off_c, 5, 48, 64
8, 14214, Note_off_c, 5, 64, 64
8, 14400, Note_on_c, 5, 41, 56
8, 14400, Note_on_c, 5, 57, 62
8, 14400, Control_c, 5, 64, 0
8, 14420, Note_on_c, 5, 65, 63
8, 14434, Control_c, 5, 64, 127
8, 14462, Note_off_c, 5, 41, 64
8, 14478, Note_off_c, 5, 65, 64
8, 14482, Note_off_c, 5, 57, 64
8, 14632, Note_on_c, 5, 57, 61
8, 14644, Note_on_c, 5, 41, 74
8, 14646, Note_on_c, 5, 65, 85
8, 14658, Control_c, 5, 64, 0
8, 14676, Note_off_c, 5, 57, 64
8, 14690, Note_off_c, 5, 41, 64
8, 14694, Note_off_c, 5, 65, 64
8, 14880, Control_c, 5, 64, 0
8, 14880, Note_on_c, 5, 48, 56
8, 14880, Note_on_c, 5, 58, 62
8, 14900, Note_on_c, 5, 64, 63
8, 14914, Control_c, 5, 64, 127
8, 14942, Note_off_c, 5, 48, 64
8, 14958, Note_off_c, 5, 64, 64
8, 14962, Note_off_c, 5, 58, 64
8, 15112, Note_on_c, 5, 58, 61
8, 15124, Note_on_c, 5, 48, 74
8, 15126, Note_on_c, 5, 64, 85
8, 15138, Control_c, 5, 64, 0
8, 15156, Note_off_c, 5, 58, 64
8, 15170, Note_off_c, 5, 48, 64
8, 15174, Note_off_c, 5, 64, 64
8, 15360, Note_on_c, 5, 57, 62
8, 15360, Note_on_c, 5, 41, 56
8, 15360, Control_c, 5, 64, 0
8, 15380, Note_on_c, 5, 65, 63
8, 15394, Control_c, 5, 64, 127
8, 15422, Note_off_c, 5, 41, 64
8, 15438, Note_off_c, 5, 65, 64
8, 15442, Note_off_c, 5, 57, 64
8, 15592, Note_on_c, 5, 57, 61
8, 15604, Note_on_c, 5, 41, 74
8, 15606, Note_on_c, 5, 65, 85
8, 15618, Control_c, 5, 64, 0
8, 15636, Note_off_c, 5, 57, 64
8, 15650, Note_off_c, 5, 41, 64
8, 15654, Note_off_c, 5, 65, 64
8, 15840, Note_on_c, 5, 41, 56
8, 15840, Note_on_c, 5, 57, 62
8, 15840, Control_c, 5, 64, 0
8, 15860, Note_on_c, 5, 63, 63
8, 15874, Control_c, 5, 64, 127
8, 15902, Note_off_c, 5, 41, 64
8, 15918, Note_off_c, 5, 63, 64
8, 15922, Note_off_c, 5, 57, 64
8, 16072, Note_on_c, 5, 57, 61
8, 16084, Note_on_c, 5, 41, 74
8, 16086, Note_on_c, 5, 63, 85
8, 16098, Control_c, 5, 64, 0
8, 16116, Note_off_c, 5, 57, 64
8, 16130, Note_off_c, 5, 41, 64
8, 16134, Note_off_c, 5, 63, 64
8, 16320, Note_on_c, 5, 46, 56
8, 16320, Control_c, 5, 64, 0
8, 16320, Note_on_c, 5, 53, 62
8, 16340, Note_on_c, 5, 62, 63
8, 16354, Control_c, 5, 64, 127
8, 16382, Note_off_c, 5, 46, 64
8, 16398, Note_off_c, 5, 62, 64
8, 16402, Note_off_c, 5, 53, 64
8, 16552, Note_on_c, 5, 53, 61
8, 16564, Note_on_c, 5, 46, 74
8, 16566, Note_on_c, 5, 62, 85
8, 16578, Control_c, 5, 64, 0
8, 16596, Note_off_c, 5, 53, 64
8, 16610, Note_off_c, 5, 46, 64
8, 16614, Note_off_c, 5, 62, 64
8, 16802, Note_on_c, 5, 46, 46
8, 16802, Note_on_c, 5, 53, 69
8, 16822, Note_on_c, 5, 62, 40
8, 16826, Control_c, 5, 64, 127
8, 16852, Note_off_c, 5, 53, 64
8, 16858, Note_off_c, 5, 62, 64
8, 16862, Note_off_c, 5, 46, 64
8, 17042, Note_on_c, 5, 53, 104
8, 17050, Note_on_c, 5, 46, 67
8, 17056, Note_on_c, 5, 62, 81
8, 17086, Note_off_c, 5, 53, 64
8, 17092, Control_c, 5, 64, 0
8, 17100, Note_off_c, 5, 46, 64
8, 17104, Note_off_c, 5, 62, 64
8, 17280, Note_on_c, 5, 46, 56
8, 17280, Note_on_c, 5, 56, 62
8, 17280, Control_c, 5, 64, 0
8, 17300, Note_on_c, 5, 62, 63
8, 17314, Control_c, 5, 64, 127
8, 17342, Note_off_c, 5, 46, 64
8, 17358, Note_off_c, 5, 62, 64
8, 17362, Note_off_c, 5, 56, 64
8, 17512, Note_on_c, 5, 56, 61
8, 17524, Note_on_c, 5, 46, 74
8, 17526, Note_on_c, 5, 62, 85
8, 17538, Control_c, 5, 64, 0
8, 17556, Note_off_c, 5, 56, 64
8, 17570, Note_off_c, 5, 46, 64
8, 17574, Note_off_c, 5, 62, 64
8, 17762, Note_on_c, 5, 46, 46
8, 17762, Note_on_c, 5, 56, 69
8, 17782, Note_on_c, 5, 62, 40
8, 17786, Control_c, 5, 64, 127
8, 17812, Note_off_c, 5, 56, 64
8, 17818, Note_off_c, 5, 62, 64
8, 17822, Note_off_c, 5, 46, 64
8, 18002, Note_on_c, 5, 56, 104
8, 18010, Note_on_c, 5, 46, 67
8, 18016, Note_on_c, 5, 62, 81
8, 18046, Note_off_c, 5, 56, 64
8, 18052, Control_c, 5, 64, 0
8, 18060, Note_off_c, 5, 46, 64
8, 18064, Note_off_c, 5, 62, 64
8, 18240, Note_on_c, 5, 53, 62
8, 18240, Note_on_c, 5, 46, 56
8, 18240, Control_c, 5, 64, 0
8, 18260, Note_on_c, 5, 62, 63
8, 18274, Control_c, 5, 64, 127
8, 18302, Note_off_c, 5, 46, 64
8, 18318, Note_off_c, 5, 62, 64
8, 18322, Note_off_c, 5, 53, 64
8, 18472, Note_on_c, 5, 53, 61
8, 18484, Note_on_c, 5, 46, 74
8, 18486, Note_on_c, 5, 62, 85
8, 18498, Control_c, 5, 64, 0
8, 18516, Note_off_c, 5, 53, 64
8, 18530, Note_off_c, 5, 46, 64
8, 18534, Note_off_c, 5, 62, 64
8, 18720, Control_c, 5, 64, 0
8, 18720, Note_on_c, 5, 59, 62
8, 18720, Note_on_c, 5, 43, 56
8, 18740, Note_on_c, 5, 65, 63
8, 18754, Control_c, 5, 64, 127
8, 18782, Note_off_c, 5, 43, 64
8, 18798, Note_off_c, 5, 65, 64
8, 18802, Note_off_c, 5, 59, 64
8, 18960, Control_c, 5, 64, 0
8, 18960, Note_on_c, 5, 57, 62
8, 18960, Note_on_c, 5, 41, 56
8, 18980, Note_on_c, 5, 65, 63
8, 18994, Control_c, 5, 64, 127
8, 19022, Note_off_c, 5, 41, 64
8, 19038, Note_off_c, 5, 65, 64
8, 19042, Note_off_c, 5, 57, 64
8, 19200, Note_on_c, 5, 57, 62
8, 19200, Note_on_c, 5, 41, 56
8, 19200, Control_c, 5, 64, 0
8, 19220, Note_on_c, 5, 65, 63
8, 19234, Control_c, 5, 64, 127
8, 19262, Note_off_c, 5, 41, 64
8, 19278, Note_off_c, 5, 65, 64
8, 19282, Note_off_c, 5, 57, 64
8, 19432, Note_on_c, 5, 57, 61
8, 19444, Note_on_c, 5, 41, 74
8, 19446, Note_on_c, 5, 65, 85
8, 19458, Control_c, 5, 64, 0
8, 19476, Note_off_c, 5, 57, 64
8, 19490, Note_off_c, 5, 41, 64
8, 19494, Note_off_c, 5, 65, 64
8, 19682, Note_on_c, 5, 41, 46
8, 19682, Note_on_c, 5, 57, 69
8, 19702, Note_on_c, 5, 65, 40
8, 19706, Control_c, 5, 64, 127
8, 19732, Note_off_c, 5, 57, 64
8, 19738, Note_off_c, 5, 65, 64
8, 19742, Note_off_c, 5, 41, 64
8, 19922, Note_on_c, 5, 57, 104
8, 19930, Note_on_c, 5, 41, 67
8, 19936, Note_on_c, 5, 65, 81
8, 19966, Note_off_c, 5, 57, 64
8, 19972, Control_c, 5, 64, 0
8, 19980, Note_off_c, 5, 41, 64
8, 19984, Note_off_c, 5, 65, 64
8, 20160, Note_on_c, 5, 58, 62
8, 20160, Control_c, 5, 64, 0
8, 20160, Note_on_c, 5, 48, 56
8, 20180, Note_on_c, 5, 64, 63
8, 20194, Control_c, 5, 64, 127
8, 20222, Note_off_c, 5, 48, 64
8, 20238, Note_off_c, 5, 64, 64
8, 20242, Note_off_c, 5, 58, 64
8, 20392, Note_on_c, 5, 58, 61
8, 20404, Note_on_c, 5, 48, 74
8, 20406, Note_on_c, 5, 64, 85
8, 20418, Control_c, 5, 64, 0
8, 20436, Note_off_c, 5, 58, 64
8, 20450, Note_off_c, 5, 48, 64
8, 20454, Note_off_c, 5, 64, 64
8, 20642, Note_on_c, 5, 48, 46
8, 20642, Note_on_c, 5, 58, 69
8, 20662, Note_on_c, 5, 64, 40
8, 20666, Control_c, 5, 64, 127
8, 20692, Note_off_c, 5, 58, 64
8, 20698, Note_off_c, 5, 64, 64
8, 20702, Note_off_c, 5, 48, 64
8, 20882, Note_on_c, 5, 58, 104
8, 20890, Note_on_c, 5, 48, 67
8, 20896, Note_on_c, 5, 64, 81
8, 20926, Note_off_c, 5, 58, 64
8, 20932, Control_c, 5, 64, 0
8, 20940, Note_off_c, 5, 48, 64
8, 20944, Note_off_c, 5, 64, 64
8, 21134, Note_on_c, 5, 48, 60
8, 21138, Note_on_c, 5, 58, 100
8, 21152, Note_on_c, 5, 64, 54
8, 21152, Control_c, 5, 64, 127
8, 21182, Note_off_c, 5, 58, 64
8, 21192, Note_off_c, 5, 48, 64
8, 21204, Note_off_c, 5, 64, 64
8, 21372, Note_on_c, 5, 58, 61
8, 21376, Note_on_c, 5, 48, 69
8, 21384, Note_on_c, 5, 64, 90
8, 21404, Note_off_c, 5, 58, 64
8, 21416, Note_off_c, 5, 64, 64
8, 21416, Note_off_c, 5, 48, 64
8, 21422, Control_c, 5, 64, 0
8, 21614, Note_on_c, 5, 58, 105
8, 21614, Note_on_c, 5, 48, 56
8, 21628, Note_on_c, 5, 64, 69
8, 21640, Control_c, 5, 64, 127
8, 21658, Note_off_c, 5, 58, 64
8, 21672, Note_off_c, 5, 48, 64
8, 21676, Note_off_c, 5, 64, 64
8, 21838, Note_on_c, 5, 58, 92
8, 21844, Note_on_c, 5, 48, 84
8, 21852, Note_on_c, 5, 64, 79
8, 21878, Note_off_c, 5, 58, 64
8, 21888, Note_off_c, 5, 48, 64
8, 21896, Note_off_c, 5, 64, 64
8, 21928, Control_c, 5, 64, 0
8, 22080, Note_on_c, 5, 57, 62
8, 22080, Control_c, 5, 64, 0
8, 22080, Note_on_c, 5, 41, 56
8, 22100, Note_on_c, 5, 65, 63
8, 22114, Control_c, 5, 64, 127
8, 22142, Note_off_c, 5, 41, 64
8, 22158, Note_off_c, 5, 65, 64
8, 22162, Note_off_c, 5, 57, 64
8, 22312, Note_on_c, 5, 57, 61
8, 22324, Note_on_c, 5, 41, 74
8, 22326, Note_on_c, 5, 65, 85
8, 22338, Control_c, 5, 64, 0
8, 22356, Note_off_c, 5, 57, 64
8, 22370, Note_off_c, 5, 41, 64
8, 22374, Note_off_c, 5, 65, 64
8, 22562, Note_on_c, 5, 41, 46
8, 22562, Note_on_c, 5, 57, 69
8, 22582, Note_on_c, 5, 65, 40
8, 22586, Control_c, 5, 64, 127
8, 22612, Note_off_c, 5, 57, 64
8, 22618, Note_off_c, 5, 65, 64
8, 22622, Note_off_c, 5, 41, 64
8, 22802, Note_on_c, 5, 57, 104
8, 22810, Note_on_c, 5, 41, 67
8, 22816, Note_on_c, 5, 65, 81
8, 22846, Note_off_c, 5, 57, 64
8, 22852, Control_c, 5, 64, 0
8, 22860, Note_off_c, 5, 41, 64
8, 22864, Note_off_c, 5, 65, 64
8, 23040, Note_on_c, 5, 57, 62
8, 23040, Note_on_c, 5, 41, 56
8, 23040, Control_c, 5, 64, 0
8, 23060, Note_on_c, 5, 65, 63
8, 23074, Control_c, 5, 64, 127
8, 23102, Note_off_c, 5, 41, 64
8, 23118, Note_off_c, 5, 65, 64
8, 23122, Note_off_c, 5, 57, 64
8, 23272, Note_on_c, 5, 57, 61
8, 23284, Note_on_c, 5, 41, 74
8, 23286, Note_on_c, 5, 65, 85
8, 23298, Control_c, 5, 64, 0
8, 23316, Note_off_c, 5, 57, 64
8, 23330, Note_off_c, 5, 41, 64
8, 23334, Note_off_c, 5, 65, 64
8, 23522, Note_on_c, 5, 41, 46
8, 23522, Note_on_c, 5, 57, 69
8, 23542, Note_on_c, 5, 65, 40
8, 23546, Control_c, 5, 64, 127
8, 23572, Note_off_c, 5, 57, 64
8, 23578, Note_off_c, 5, 65, 64
8, 23582, Note_off_c, 5, 41, 64
8, 23762, Note_on_c, 5, 57, 104
8, 23770, Note_on_c, 5, 41, 67
8, 23776, Note_on_c, 5, 65, 81
8, 23806, Note_off_c, 5, 57, 64
8, 23812, Control_c, 5, 64, 0
8, 23820, Note_off_c, 5, 41, 64
8, 23824, Note_off_c, 5, 65, 64
8, 24000, Note_on_c, 5, 41, 56
8, 24000, Note_on_c, 5, 57, 62
8, 24000, Control_c, 5, 64, 0
8, 24020, Note_on_c, 5, 65, 63
8, 24034, Control_c, 5, 64, 127
8, 24062, Note_off_c, 5, 41, 64
8, 24078, Note_off_c, 5, 65, 64
8, 24082, Note_off_c, 5, 57, 64
8, 24232, Note_on_c, 5, 57, 61
8, 24244, Note_on_c, 5, 41, 74
8, 24246, Note_on_c, 5, 65, 85
8, 24258, Control_c, 5, 64, 0
8, 24276, Note_off_c, 5, 57, 64
8, 24290, Note_off_c, 5, 41, 64
8, 24294, Note_off_c, 5, 65, 64
8, 24480, Note_on_c, 5, 48, 56
8, 24480, Note_on_c, 5, 58, 62
8, 24480, Control_c, 5, 64, 0
8, 24500, Note_on_c, 5, 64, 63
8, 24514, Control_c, 5, 64, 127
8, 24542, Note_off_c, 5, 48, 64
8, 24558, Note_off_c, 5, 64, 64
8, 24562, Note_off_c, 5, 58, 64
8, 24712, Note_on_c, 5, 58, 61
8, 24724, Note_on_c, 5, 48, 74
8, 24726, Note_on_c, 5, 64, 85
8, 24738, Control_c, 5, 64, 0
8, 24756, Note_off_c, 5, 58, 64
8, 24770, Note_off_c, 5, 48, 64
8, 24774, Note_off_c, 5, 64, 64
8, 24960, Note_on_c, 5, 41, 56
8, 24960, Note_on_c, 5, 57, 62
8, 24960, Control_c, 5, 64, 0
8, 24980, Note_on_c, 5, 65, 63
8, 24994, Control_c, 5, 64, 127
8, 25022, Note_off_c, 5, 41, 64
8, 25038, Note_off_c, 5, 65, 64
8, 25042, Note_off_c, 5, 57, 64
8, 25192, Note_on_c, 5, 57, 61
8, 25204, Note_on_c, 5, 41, 74
8, 25206, Note_on_c, 5, 65, 85
8, 25218, Control_c, 5, 64, 0
8, 25236, Note_off_c, 5, 57, 64
8, 25250, Note_off_c, 5, 41, 64
8, 25254, Note_off_c, 5, 65, 64
8, 25440, Note_on_c, 5, 48, 56
8, 25440, Note_on_c, 5, 58, 62
8, 25440, Control_c, 5, 64, 0
8, 25460, Note_on_c, 5, 64, 63
8, 25474, Control_c, 5, 64, 127
8, 25502, Note_off_c, 5, 48, 64
8, 25518, Note_off_c, 5, 64, 64
8, 25522, Note_off_c, 5, 58, 64
8, 25672, Note_on_c, 5, 58, 61
8, 25684, Note_on_c, 5, 48, 74
8, 25686, Note_on_c, 5, 64, 85
8, 25698, Control_c, 5, 64, 0
8, 25716, Note_off_c, 5, 58, 64
8, 25730, Note_off_c, 5, 48, 64
8, 25734, Note_off_c, 5, 64, 64
8, 25920, Note_on_c, 5, 41, 56
8, 25920, Note_on_c, 5, 57, 62
8, 25920, Control_c, 5, 64, 0
8, 25940, Note_on_c, 5, 65, 63
8, 25954, Control_c, 5, 64, 127
8, 25982, Note_off_c, 5, 41, 64
8, 25998, Note_off_c, 5, 65, 64
8, 26002, Note_off_c, 5, 57, 64
8, 26152, Note_on_c, 5, 57, 61
8, 26164, Note_on_c, 5, 41, 74
8, 26166, Note_on_c, 5, 65, 85
8, 26178, Control_c, 5, 64, 0
8, 26196, Note_off_c, 5, 57, 64
8, 26210, Note_off_c, 5, 41, 64
8, 26214, Note_off_c, 5, 65, 64
8, 26400, Control_c, 5, 64, 0
8, 26400, Note_on_c, 5, 48, 56
8, 26400, Note_on_c, 5, 58, 62
8, 26420, Note_on_c, 5, 64, 63
8, 26434, Control_c, 5, 64, 127
8, 26462, Note_off_c, 5, 48, 64
8, 26478, Note_off_c, 5, 64, 64
8, 26482, Note_off_c, 5, 58, 64
8, 26632, Note_on_c, 5, 58, 61
8, 26644, Note_on_c, 5, 48, 74
8, 26646, Note_on_c, 5, 64, 85
8, 26658, Control_c, 5, 64, 0
8, 26676, Note_off_c, 5, 58, 64
8, 26690, Note_off_c, 5, 48, 64
8, 26694, Note_off_c, 5, 64, 64
8, 26880, Note_on_c, 5, 41, 56
8, 26880, Note_on_c, 5, 57, 62
8, 26880, Control_c, 5, 64, 0
8, 26900, Note_on_c, 5, 65, 63
8, 26914, Control_c, 5, 64, 127
8, 26942, Note_off_c, 5, 41, 64
8, 26958, Note_off_c, 5, 65, 64
8, 26962, Note_off_c, 5, 57, 64
8, 27112, Note_on_c, 5, 57, 61
8, 27124, Note_on_c, 5, 41, 74
8, 27126, Note_on_c, 5, 65, 85
8, 27138, Control_c, 5, 64, 0
8, 27156, Note_off_c, 5, 57, 64
8, 27170, Note_off_c, 5, 41, 64
8, 27174, Note_off_c, 5, 65, 64
8, 27360, Note_on_c, 5, 41, 56
8, 27360, Note_on_c, 5, 57, 62
8, 27360, Control_c, 5, 64, 0
8, 27380, Note_on_c, 5, 63, 63
8, 27394, Control_c, 5, 64, 127
8, 27422, Note_off_c, 5, 41, 64
8, 27438, Note_off_c, 5, 63, 64
8, 27442, Note_off_c, 5, 57, 64
8, 27592, Note_on_c, 5, 57, 61
8, 27604, Note_on_c, 5, 41, 74
8, 27606, Note_on_c, 5, 63, 85
8, 27618, Control_c, 5, 64, 0
8, 27636, Note_off_c, 5, 57, 64
8, 27650, Note_off_c, 5, 41, 64
8, 27654, Note_off_c, 5, 63, 64
8, 27840, Note_on_c, 5, 46, 56
8, 27840, Control_c, 5, 64, 0
8, 27840, Note_on_c, 5, 53, 62
8, 27860, Note_on_c, 5, 62, 63
8, 27874, Control_c, 5, 64, 127
8, 27902, Note_off_c, 5, 46, 64
8, 27918, Note_off_c, 5, 62, 64
8, 27922, Note_off_c, 5, 53, 64
8, 28072, Note_on_c, 5, 53, 61
8, 28084, Note_on_c, 5, 46, 74
8, 28086, Note_on_c, 5, 62, 85
8, 28098, Control_c, 5, 64, 0
8, 28116, Note_off_c, 5, 53, 64
8, 28130, Note_off_c, 5, 46, 64
8, 28134, Note_off_c, 5, 62, 64
8, 28322, Note_on_c, 5, 46, 46
8, 28322, Note_on_c, 5, 53, 69
8, 28342, Note_on_c, 5, 62, 40
8, 28346, Control_c, 5, 64, 127
8, 28372, Note_off_c, 5, 53, 64
8, 28378, Note_off_c, 5, 62, 64
8, 28382, Note_off_c, 5, 46, 64
8, 28562, Note_on_c, 5, 53, 104
8, 28570, Note_on_c, 5, 46, 67
8, 28576, Note_on_c, 5, 62, 81
8, 28606, Note_off_c, 5, 53, 64
8, 28612, Control_c, 5, 64, 0
8, 28620, Note_off_c, 5, 46, 64
8, 28624, Note_off_c, 5, 62, 64
8, 28800, Note_on_c, 5, 46, 56
8, 28800, Note_on_c, 5, 56, 62
8, 28800, Control_c, 5, 64, 0
8, 28820, Note_on_c, 5, 62, 63
8, 28834, Control_c, 5, 64, 127
8, 28862, Note_off_c, 5, 46, 64
8, 28878, Note_off_c, 5, 62, 64
8, 28882, Note_off_c, 5, 56, 64
8, 29032, Note_on_c, 5, 56, 61
8, 29044, Note_on_c, 5, 46, 74
8, 29046, Note_on_c, 5, 62, 85
8, 29058, Control_c, 5, 64, 0
8, 29076, Note_off_c, 5, 56, 64
8, 29090, Note_off_c, 5, 46, 64
8, 29094, Note_off_c, 5, 62, 64
8, 29282, Note_on_c, 5, 46, 46
8, 29282, Note_on_c, 5, 56, 69
8, 29302, Note_on_c, 5, 62, 40
8, 29306, Control_c, 5, 64, 127
8, 29332, Note_off_c, 5, 56, 64
8, 29338, Note_off_c, 5, 62, 64
8, 29342, Note_off_c, 5, 46, 64
8, 29522, Note_on_c, 5, 56, 104
8, 29530, Note_on_c, 5, 46, 67
8, 29536, Note_on_c, 5, 62, 81
8, 29566, Note_off_c, 5, 56, 64
8, 29572, Control_c, 5, 64, 0
8, 29580, Note_off_c, 5, 46, 64
8, 29584, Note_off_c, 5, 62, 64
8, 29760, Control_c, 5, 64, 0
8, 29760, Note_on_c, 5, 53, 62
8, 29760, Note_on_c, 5, 46, 56
8, 29780, Note_on_c, 5, 62, 63
8, 29794, Control_c, 5, 64, 127
8, 29822, Note_off_c, 5, 46, 64
8, 29838, Note_off_c, 5, 62, 64
8, 29842, Note_off_c, 5, 53, 64
8, 29992, Note_on_c, 5, 53, 61
8, 30004, Note_on_c, 5, 46, 74
8, 30006, Note_on_c, 5, 62, 85
8, 30018, Control_c, 5, 64, 0
8, 30036, Note_off_c, 5, 53, 64
8, 30050, Note_off_c, 5, 46, 64
8, 30054, Note_off_c, 5, 62, 64
8, 30240, Note_on_c, 5, 59, 62
8, 30240, Note_on_c, 5, 43, 56
8, 30240, Control_c, 5, 64, 0
8, 30260, Note_on_c, 5, 65, 63
8, 30274, Control_c, 5, 64, 127
8, 30302, Note_off_c, 5, 43, 64
8, 30318, Note_off_c, 5, 65, 64
8, 30322, Note_off_c, 5, 59, 64
8, 30480, Control_c, 5, 64, 0
8, 30480, Note_on_c, 5, 41, 56
8, 30480, Note_on_c, 5, 57, 62
8, 30500, Note_on_c, 5, 65, 63
8, 30514, Control_c, 5, 64, 127
8, 30542, Note_off_c, 5, 41, 64
8, 30558, Note_off_c, 5, 65, 64
8, 30562, Note_off_c, 5, 57, 64
8, 30720, Note_on_c, 5, 41, 56
8, 30720, Note_on_c, 5, 57, 62
8, 30720, Control_c, 5, 64, 0
8, 30740, Note_on_c, 5, 65, 63
8, 30754, Control_c, 5, 64, 127
8, 30782, Note_off_c, 5, 41, 64
8, 30798, Note_off_c, 5, 65, 64
8, 30802, Note_off_c, 5, 57, 64
8, 30952, Note_on_c, 5, 57, 61
8, 30964, Note_on_c, 5, 41, 74
8, 30966, Note_on_c, 5, 65, 85
8, 30978, Control_c, 5, 64, 0
8, 30996, Note_off_c, 5, 57, 64
8, 31010, Note_off_c, 5, 41, 64
8, 31014, Note_off_c, 5, 65, 64
8, 31202, Note_on_c, 5, 41, 46
8, 31202, Note_on_c, 5, 57, 69
8, 31222, Note_on_c, 5, 65, 40
8, 31226, Control_c, 5, 64, 127
8, 31252, Note_off_c, 5, 57, 64
8, 31258, Note_off_c, 5, 65, 64
8, 31262, Note_off_c, 5, 41, 64
8, 31442, Note_on_c, 5, 57, 104
8, 31450, Note_on_c, 5, 41, 67
8, 31456, Note_on_c, 5, 65, 81
8, 31486, Note_off_c, 5, 57, 64
8, 31492, Control_c, 5, 64, 0
8, 31500, Note_off_c, 5, 41, 64
8, 31504, Note_off_c, 5, 65, 64
8, 31680, Note_on_c, 5, 48, 56
8, 31680, Control_c, 5, 64, 0
8, 31680, Note_on_c, 5, 58, 62
8, 31700, Note_on_c, 5, 64, 63
8, 31714, Control_c, 5, 64, 127
8, 31742, Note_off_c, 5, 48, 64
8, 31758, Note_off_c, 5, 64, 64
8, 31762, Note_off_c, 5, 58, 64
8, 31912, Note_on_c, 5, 58, 61
8, 31924, Note_on_c, 5, 48, 74
8, 31926, Note_on_c, 5, 64, 85
8, 31938, Control_c, 5, 64, 0
8, 31956, Note_off_c, 5, 58, 64
8, 31970, Note_off_c, 5, 48, 64
8, 31974, Note_off_c, 5, 64, 64
8, 32162, Note_on_c, 5, 48, 46
8, 32162, Note_on_c, 5, 58, 69
8, 32182, Note_on_c, 5, 64, 40
8, 32186, Control_c, 5, 64, 127
8, 32212, Note_off_c, 5, 58, 64
8, 32218, Note_off_c, 5, 64, 64
8, 32222, Note_off_c, 5, 48, 64
8, 32402, Note_on_c, 5, 58, 104
8, 32410, Note_on_c, 5, 48, 67
8, 32416, Note_on_c, 5, 64, 81
8, 32446, Note_off_c, 5, 58, 64
8, 32452, Control_c, 5, 64, 0
8, 32460, Note_off_c, 5, 48, 64
8, 32464, Note_off_c, 5, 64, 64
8, 32654, Note_on_c, 5, 48, 60
8, 32658, Note_on_c, 5, 58, 100
8, 32672, Note_on_c, 5, 64, 54
8, 32672, Control_c, 5, 64, 127
8, 32702, Note_off_c, 5, 58, 64
8, 32712, Note_off_c, 5, 48, 64
8, 32724, Note_off_c, 5, 64, 64
8, 32892, Note_on_c, 5, 58, 61
8, 32896, Note_on_c, 5, 48, 69
8, 32904, Note_on_c, 5, 64, 90
8, 32924, Note_off_c, 5, 58, 64
8, 32936, Note_off_c, 5, 64, 64
8, 32936, Note_off_c, 5, 48, 64
8, 32942, Control_c, 5, 64, 0
8, 33134, Note_on_c, 5, 58, 105
8, 33134, Note_on_c, 5, 48, 56
8, 33148, Note_on_c, 5, 64, 69
8, 33160, Control_c, 5, 64, 127
8, 33178, Note_off_c, 5, 58, 64
8, 33192, Note_off_c, 5, 48, 64
8, 33196, Note_off_c, 5, 64, 64
8, 33358, Note_on_c, 5, 58, 92
8, 33364, Note_on_c, 5, 48, 84
8, 33372, Note_on_c, 5, 64, 79
8, 33398, Note_off_c, 5, 58, 64
8, 33408, Note_off_c, 5, 48, 64
8, 33416, Note_off_c, 5, 64, 64
8, 33448, Control_c, 5, 64, 0
8, 33600, Note_on_c, 5, 57, 62
8, 33600, Note_on_c, 5, 41, 56
8, 33600, Control_c, 5, 64, 0
8, 33620, Note_on_c, 5, 65, 63
8, 33634, Control_c, 5, 64, 127
8, 33662, Note_off_c, 5, 41, 64
8, 33678, Note_off_c, 5, 65, 64
8, 33682, Note_off_c, 5, 57, 64
8, 33832, Note_on_c, 5, 57, 61
8, 33844, Note_on_c, 5, 41, 74
8, 33846, Note_on_c, 5, 65, 85
8, 33858, Control_c, 5, 64, 0
8, 33876, Note_off_c, 5, 57, 64
8, 33890, Note_off_c, 5, 41, 64
8, 33894, Note_off_c, 5, 65, 64
8, 34082, Note_on_c, 5, 41, 46
8, 34082, Note_on_c, 5, 57, 69
8, 34102, Note_on_c, 5, 65, 40
8, 34106, Control_c, 5, 64, 127
8, 34132, Note_off_c, 5, 57, 64
8, 34138, Note_off_c, 5, 65, 64
8, 34142, Note_off_c, 5, 41, 64
8, 34322, Note_on_c, 5, 57, 104
8, 34330, Note_on_c, 5, 41, 67
8, 34336, Note_on_c, 5, 65, 81
8, 34366, Note_off_c, 5, 57, 64
8, 34372, Control_c, 5, 64, 0
8, 34380, Note_off_c, 5, 41, 64
8, 34384, Note_off_c, 5, 65, 64
8, 34574, Note_on_c, 5, 41, 60
8, 34578, Note_on_c, 5, 57, 100
8, 34592, Control_c, 5, 64, 127
8, 34592, Note_on_c, 5, 65, 54
8, 34622, Note_off_c, 5, 57, 64
8, 34632, Note_off_c, 5, 41, 64
8, 34644, Note_off_c, 5, 65, 64
8, 34812, Note_on_c, 5, 57, 61
8, 34816, Note_on_c, 5, 41, 69
8, 34824, Note_on_c, 5, 65, 90
8, 34844, Note_off_c, 5, 57, 64
8, 34856, Note_off_c, 5, 65, 64
8, 34856, Note_off_c, 5, 41, 64
8, 34862, Control_c, 5, 64, 0
8, 35054, Note_on_c, 5, 41, 56
8, 35054, Note_on_c, 5, 57, 105
8, 35068, Note_on_c, 5, 65, 69
8, 35080, Control_c, 5, 64, 127
8, 35098, Note_off_c, 5, 57, 64
8, 35112, Note_off_c, 5, 41, 64
8, 35116, Note_off_c, 5, 65, 64
8, 35278, Note_on_c, 5, 57, 92
8, 35284, Note_on_c, 5, 41, 84
8, 35292, Note_on_c, 5, 65, 79
8, 35318, Note_off_c, 5, 57, 64
8, 35328, Note_off_c, 5, 41, 64
8, 35336, Note_off_c, 5, 65, 64
8, 35368, Control_c, 5, 64, 0
8, 35520, Note_on_c, 5, 57, 62
8, 35520, Note_on_c, 5, 41, 56
8, 35520, Control_c, 5, 64, 0
8, 35540, Note_on_c, 5, 65, 63
8, 35554, Control_c, 5, 64, 127
8, 35582, Note_off_c, 5, 41, 64
8, 35598, Note_off_c, 5, 65, 64
8, 35602, Note_off_c, 5, 57, 64
8, 35752, Note_on_c, 5, 57, 61
8, 35764, Note_on_c, 5, 41, 74
8, 35766, Note_on_c, 5, 65, 85
8, 35778, Control_c, 5, 64, 0
8, 35796, Note_off_c, 5, 57, 64
8, 35810, Note_off_c, 5, 41, 64
8, 35814, Note_off_c, 5, 65, 64
8, 36000, Control_c, 5, 64, 0
8, 36000, Note_on_c, 5, 48, 56
8, 36000, Note_on_c, 5, 58, 62
8, 36020, Note_on_c, 5, 64, 63
8, 36034, Control_c, 5, 64, 127
8, 36062, Note_off_c, 5, 48, 64
8, 36078, Note_off_c, 5, 64, 64
8, 36082, Note_off_c, 5, 58, 64
8, 36232, Note_on_c, 5, 58, 61
8, 36244, Note_on_c, 5, 48, 74
8, 36246, Note_on_c, 5, 64, 85
8, 36258, Control_c, 5, 64, 0
8, 36276, Note_off_c, 5, 58, 64
8, 36290, Note_off_c, 5, 48, 64
8, 36294, Note_off_c, 5, 64, 64
8, 36480, Note_on_c, 5, 41, 56
8, 36480, Note_on_c, 5, 57, 62
8, 36480, Control_c, 5, 64, 0
8, 36500, Note_on_c, 5, 65, 63
8, 36514, Control_c, 5, 64, 127
8, 36542, Note_off_c, 5, 41, 64
8, 36558, Note_off_c, 5, 65, 64
8, 36562, Note_off_c, 5, 57, 64
8, 36712, Note_on_c, 5, 57, 61
8, 36724, Note_on_c, 5, 41, 74
8, 36726, Note_on_c, 5, 65, 85
8, 36738, Control_c, 5, 64, 0
8, 36756, Note_off_c, 5, 57, 64
8, 36770, Note_off_c, 5, 41, 64
8, 36774, Note_off_c, 5, 65, 64
8, 36960, Note_on_c, 5, 48, 56
8, 36960, Note_on_c, 5, 58, 62
8, 36960, Control_c, 5, 64, 0
8, 36980, Note_on_c, 5, 64, 63
8, 36994, Control_c, 5, 64, 127
8, 37022, Note_off_c, 5, 48, 64
8, 37038, Note_off_c, 5, 64, 64
8, 37042, Note_off_c, 5, 58, 64
8, 37192, Note_on_c, 5, 58, 61
8, 37204, Note_on_c, 5, 48, 74
8, 37206, Note_on_c, 5, 64, 85
8, 37218, Control_c, 5, 64, 0
8, 37236, Note_off_c, 5, 58, 64
8, 37250, Note_off_c, 5, 48, 64
8, 37254, Note_off_c, 5, 64, 64
8, 37440, Note_on_c, 5, 41, 56
8, 37440, Note_on_c, 5, 57, 62
8, 37440, Control_c, 5, 64, 0
8, 37460, Note_on_c, 5, 65, 63
8, 37474, Control_c, 5, 64, 127
8, 37502, Note_off_c, 5, 41, 64
8, 37518, Note_off_c, 5, 65, 64
8, 37522, Note_off_c, 5, 57, 64
8, 37672, Note_on_c, 5, 57, 61
8, 37684, Note_on_c, 5, 41, 74
8, 37686, Note_on_c, 5, 65, 85
8, 37698, Control_c, 5, 64, 0
8, 37716, Note_off_c, 5, 57, 64
8, 37730, Note_off_c, 5, 41, 64
8, 37734, Note_off_c, 5, 65, 64
8, 37920, Control_c, 5, 64, 0
8, 37920, Note_on_c, 5, 48, 56
8, 37920, Note_on_c, 5, 58, 62
8, 37940, Note_on_c, 5, 64, 63
8, 37954, Control_c, 5, 64, 127
8, 37982, Note_off_c, 5, 48, 64
8, 37998, Note_off_c, 5, 64, 64
8, 38002, Note_off_c, 5, 58, 64
8, 38152, Note_on_c, 5, 58, 61
8, 38164, Note_on_c, 5, 48, 74
8, 38166, Note_on_c, 5, 64, 85
8, 38178, Control_c, 5, 64, 0
8, 38196, Note_off_c, 5, 58, 64
8, 38210, Note_off_c, 5, 48, 64
8, 38214, Note_off_c, 5, 64, 64
8, 38400, Note_on_c, 5, 57, 62
8, 38400, Note_on_c, 5, 41, 56
8, 38400, Control_c, 5, 64, 0
8, 38420, Note_on_c, 5, 65, 63
8, 38434, Control_c, 5, 64, 127
8, 38462, Note_off_c, 5, 41, 64
8, 38478, Note_off_c, 5, 65, 64
8, 38482, Note_off_c, 5, 57, 64
8, 38632, Note_on_c, 5, 57, 61
8, 38644, Note_on_c, 5, 41, 74
8, 38646, Note_on_c, 5, 65, 85
8, 38658, Control_c, 5, 64, 0
8, 38676, Note_off_c, 5, 57, 64
8, 38690, Note_off_c, 5, 41, 64
8, 38694, Note_off_c, 5, 65, 64
8, 38880, Note_on_c, 5, 41, 56
8, 38880, Control_c, 5, 64, 0
8, 38880, Note_on_c, 5, 57, 62
8, 38900, Note_on_c, 5, 63, 63
8, 38914, Control_c, 5, 64, 127
8, 38942, Note_off_c, 5, 41, 64
8, 38958, Note_off_c, 5, 63, 64
8, 38962, Note_off_c, 5, 57, 64
8, 39112, Note_on_c, 5, 57, 61
8, 39124, Note_on_c, 5, 41, 74
8, 39126, Note_on_c, 5, 63, 85
8, 39138, Control_c, 5, 64, 0
8, 39156, Note_off_c, 5, 57, 64
8, 39170, Note_off_c, 5, 41, 64
8, 39174, Note_off_c, 5, 63, 64
8, 39360, Control_c, 5, 64, 0
8, 39360, Note_on_c, 5, 46, 56
8, 39360, Note_on_c, 5, 53, 62
8, 39380, Note_on_c, 5, 62, 63
8, 39394, Control_c, 5, 64, 127
8, 39422, Note_off_c, 5, 46, 64
8, 39438, Note_off_c, 5, 62, 64
8, 39442, Note_off_c, 5, 53, 64
8, 39592, Note_on_c, 5, 53, 61
8, 39604, Note_on_c, 5, 46, 74
8, 39606, Note_on_c, 5, 62, 85
8, 39618, Control_c, 5, 64, 0
8, 39636, Note_off_c, 5, 53, 64
8, 39650, Note_off_c, 5, 46, 64
8, 39654, Note_off_c, 5, 62, 64
8, 39842, Note_on_c, 5, 46, 46
8, 39842, Note_on_c, 5, 53, 69
8, 39862, Note_on_c, 5, 62, 40
8, 39866, Control_c, 5, 64, 127
8, 39892, Note_off_c, 5, 53, 64
8, 39898, Note_off_c, 5, 62, 64
8, 39902, Note_off_c, 5, 46, 64
8, 40082, Note_on_c, 5, 53, 104
8, 40090, Note_on_c, 5, 46, 67
8, 40096, Note_on_c, 5, 62, 81
8, 40126, Note_off_c, 5, 53, 64
8, 40132, Control_c, 5, 64, 0
8, 40140, Note_off_c, 5, 46, 64
8, 40144, Note_off_c, 5, 62, 64
8, 40320, Control_c, 5, 64, 0
8, 40320, Note_on_c, 5, 56, 62
8, 40320, Note_on_c, 5, 46, 56
8, 40340, Note_on_c, 5, 62, 63
8, 40354, Control_c, 5, 64, 127
8, 40382, Note_off_c, 5, 46, 64
8, 40398, Note_off_c, 5, 62, 64
8, 40402, Note_off_c, 5, 56, 64
8, 40552, Note_on_c, 5, 56, 61
8, 40564, Note_on_c, 5, 46, 74
8, 40566, Note_on_c, 5, 62, 85
8, 40578, Control_c, 5, 64, 0
8, 40596, Note_off_c, 5, 56, 64
8, 40610, Note_off_c, 5, 46, 64
8, 40614, Note_off_c, 5, 62, 64
8, 40802, Note_on_c, 5, 46, 46
8, 40802, Note_on_c, 5, 56, 69
8, 40822, Note_on_c, 5, 62, 40
8, 40826, Control_c, 5, 64, 127
8, 40852, Note_off_c, 5, 56, 64
8, 40858, Note_off_c, 5, 62, 64
8, 40862, Note_off_c, 5, 46, 64
8, 41042, Note_on_c, 5, 56, 104
8, 41050, Note_on_c, 5, 46, 67
8, 41056, Note_on_c, 5, 62, 81
8, 41086, Note_off_c, 5, 56, 64
8, 41092, Control_c, 5, 64, 0
8, 41100, Note_off_c, 5, 46, 64
8, 41104, Note_off_c, 5, 62, 64
8, 41280, Note_on_c, 5, 46, 56
8, 41280, Note_on_c, 5, 53, 62
8, 41280, Control_c, 5, 64, 0
8, 41300, Note_on_c, 5, 62, 63
8, 41314, Control_c, 5, 64, 127
8, 41342, Note_off_c, 5, 46, 64
8, 41358, Note_off_c, 5, 62, 64
8, 41362, Note_off_c, 5, 53, 64
8, 41512, Note_on_c, 5, 53, 61
8, 41524, Note_on_c, 5, 46, 74
8, 41526, Note_on_c, 5, 62, 85
8, 41538, Control_c, 5, 64, 0
8, 41556, Note_off_c, 5, 53, 64
8, 41570, Note_off_c, 5, 46, 64
8, 41574, Note_off_c, 5, 62, 64
8, 41760, Note_on_c, 5, 59, 62
8, 41760, Control_c, 5, 64, 0
8, 41760, Note_on_c, 5, 43, 56
8, 41780, Note_on_c, 5, 65, 63
8, 41794, Control_c, 5, 64, 127
8, 41822, Note_off_c, 5, 43, 64
8, 41838, Note_off_c, 5, 65, 64
8, 41842, Note_off_c, 5, 59, 64
8, 42000, Note_on_c, 5, 57, 62
8, 42000, Control_c, 5, 64, 0
8, 42000, Note_on_c, 5, 41, 56
8, 42020, Note_on_c, 5, 65, 63
8, 42034, Control_c, 5, 64, 127
8, 42062, Note_off_c, 5, 41, 64
8, 42078, Note_off_c, 5, 65, 64
8, 42082, Note_off_c, 5, 57, 64
8, 42240, Note_on_c, 5, 57, 62
8, 42240, Note_on_c, 5, 41, 56
8, 42240, Control_c, 5, 64, 0
8, 42260, Note_on_c, 5, 65, 63
8, 42274, Control_c, 5, 64, 127
8, 42302, Note_off_c, 5, 41, 64
8, 42318, Note_off_c, 5, 65, 64
8, 42322, Note_off_c, 5, 57, 64
8, 42472, Note_on_c, 5, 57, 61
8, 42484, Note_on_c, 5, 41, 74
8, 42486, Note_on_c, 5, 65, 85
8, 42498, Control_c, 5, 64, 0
8, 42516, Note_off_c, 5, 57, 64
8, 42530, Note_off_c, 5, 41, 64
8, 42534, Note_off_c, 5, 65, 64
8, 42722, Note_on_c, 5, 41, 46
8, 42722, Note_on_c, 5, 57, 69
8, 42742, Note_on_c, 5, 65, 40
8, 42746, Control_c, 5, 64, 127
8, 42772, Note_off_c, 5, 57, 64
8, 42778, Note_off_c, 5, 65, 64
8, 42782, Note_off_c, 5, 41, 64
8, 42962, Note_on_c, 5, 57, 104
8, 42970, Note_on_c, 5, 41, 67
8, 42976, Note_on_c, 5, 65, 81
8, 43006, Note_off_c, 5, 57, 64
8, 43012, Control_c, 5, 64, 0
8, 43020, Note_off_c, 5, 41, 64
8, 43024, Note_off_c, 5, 65, 64
8, 43200, Control_c, 5, 64, 0
8, 43200, Note_on_c, 5, 58, 62
8, 43200, Note_on_c, 5, 48, 56
8, 43220, Note_on_c, 5, 64, 63
8, 43234, Control_c, 5, 64, 127
8, 43262, Note_off_c, 5, 48, 64
8, 43278, Note_off_c, 5, 64, 64
8, 43282, Note_off_c, 5, 58, 64
8, 43432, Note_on_c, 5, 58, 61
8, 43444, Note_on_c, 5, 48, 74
8, 43446, Note_on_c, 5, 64, 85
8, 43458, Control_c, 5, 64, 0
8, 43476, Note_off_c, 5, 58, 64
8, 43490, Note_off_c, 5, 48, 64
8, 43494, Note_off_c, 5, 64, 64
8, 43682, Note_on_c, 5, 48, 46
8, 43682, Note_on_c, 5, 58, 69
8, 43702, Note_on_c, 5, 64, 40
8, 43706, Control_c, 5, 64, 127
8, 43732, Note_off_c, 5, 58, 64
8, 43738, Note_off_c, 5, 64, 64
8, 43742, Note_off_c, 5, 48, 64
8, 43922, Note_on_c, 5, 58, 104
8, 43930, Note_on_c, 5, 48, 67
8, 43936, Note_on_c, 5, 64, 81
8, 43966, Note_off_c, 5, 58, 64
8, 43972, Control_c, 5, 64, 0
8, 43980, Note_off_c, 5, 48, 64
8, 43984, Note_off_c, 5, 64, 64
8, 44174, Note_on_c, 5, 48, 60
8, 44178, Note_on_c, 5, 58, 100
8, 44192, Note_on_c, 5, 64, 54
8, 44192, Control_c, 5, 64, 127
8, 44222, Note_off_c, 5, 58, 64
8, 44232, Note_off_c, 5, 48, 64
8, 44244, Note_off_c, 5, 64, 64
8, 44412, Note_on_c, 5, 58, 61
8, 44416, Note_on_c, 5, 48, 69
8, 44424, Note_on_c, 5, 64, 90
8, 44444, Note_off_c, 5, 58, 64
8, 44456, Note_off_c, 5, 64, 64
8, 44456, Note_off_c, 5, 48, 64
8, 44462, Control_c, 5, 64, 0
8, 44654, Note_on_c, 5, 48, 56
8, 44654, Note_on_c, 5, 58, 105
8, 44668, Note_on_c, 5, 64, 69
8, 44680, Control_c, 5, 64, 127
8, 44698, Note_off_c, 5, 58, 64
8, 44712, Note_off_c, 5, 48, 64
8, 44716, Note_off_c, 5, 64, 64
8, 44878, Note_on_c, 5, 58, 92
8, 44884, Note_on_c, 5, 48, 84
8, 44892, Note_on_c, 5, 64, 79
8, 44918, Note_off_c, 5, 58, 64
8, 44928, Note_off_c, 5, 48, 64
8, 44936, Note_off_c, 5, 64, 64
8, 44968, Control_c, 5, 64, 0
8, 45120, Control_c, 5, 64, 0
8, 45120, Note_on_c, 5, 41, 56
8, 45120, Note_on_c, 5, 57, 62
8, 45140, Note_on_c, 5, 65, 63
8, 45154, Control_c, 5, 64, 127
8, 45182, Note_off_c, 5, 41, 64
8, 45198, Note_off_c, 5, 65, 64
8, 45202, Note_off_c, 5, 57, 64
8, 45352, Note_on_c, 5, 57, 61
8, 45364, Note_on_c, 5, 41, 74
8, 45366, Note_on_c, 5, 65, 85
8, 45378, Control_c, 5, 64, 0
8, 45396, Note_off_c, 5, 57, 64
8, 45410, Note_off_c, 5, 41, 64
8, 45414, Note_off_c, 5, 65, 64
8, 45602, Note_on_c, 5, 41, 46
8, 45602, Note_on_c, 5, 57, 69
8, 45622, Note_on_c, 5, 65, 40
8, 45626, Control_c, 5, 64, 127
8, 45652, Note_off_c, 5, 57, 64
8, 45658, Note_off_c, 5, 65, 64
8, 45662, Note_off_c, 5, 41, 64
8, 45842, Note_on_c, 5, 57, 104
8, 45850, Note_on_c, 5, 41, 67
8, 45856, Note_on_c, 5, 65, 81
8, 45886, Note_off_c, 5, 57, 64
8, 45892, Control_c, 5, 64, 0
8, 45900, Note_off_c, 5, 41, 64
8, 45904, Note_off_c, 5, 65, 64
8, 46080, Note_on_c, 5, 57, 62
8, 46080, Control_c, 5, 64, 0
8, 46080, Note_on_c, 5, 41, 56
8, 46100, Note_on_c, 5, 65, 63
8, 46114, Control_c, 5, 64, 127
8, 46142, Note_off_c, 5, 41, 64
8, 46158, Note_off_c, 5, 65, 64
8, 46162, Note_off_c, 5, 57, 64
8, 46312, Note_on_c, 5, 57, 61
8, 46324, Note_on_c, 5, 41, 74
8, 46326, Note_on_c, 5, 65, 85
8, 46338, Control_c, 5, 64, 0
8, 46356, Note_off_c, 5, 57, 64
8, 46370, Note_off_c, 5, 41, 64
8, 46374, Note_off_c, 5, 65, 64
8, 46562, Note_on_c, 5, 41, 46
8, 46562, Note_on_c, 5, 57, 69
8, 46582, Note_on_c, 5, 65, 40
8, 46586, Control_c, 5, 64, 127
8, 46612, Note_off_c, 5, 57, 64
8, 46618, Note_off_c, 5, 65, 64
8, 46622, Note_off_c, 5, 41, 64
8, 46802, Note_on_c, 5, 57, 104
8, 46810, Note_on_c, 5, 41, 67
8, 46816, Note_on_c, 5, 65, 81
8, 46846, Note_off_c, 5, 57, 64
8, 46852, Control_c, 5, 64, 0
8, 46860, Note_off_c, 5, 41, 64
8, 46864, Note_off_c, 5, 65, 64
8, 47040, Note_on_c, 5, 57, 84
8, 47040, Note_on_c, 5, 41, 57
8, 47040, Control_c, 5, 64, 0
8, 47046, Note_on_c, 5, 65, 55
8, 47054, Control_c, 5, 64, 127
8, 47068, Note_off_c, 5, 41, 64
8, 47076, Note_off_c, 5, 57, 64
8, 47094, Note_off_c, 5, 65, 64
8, 47280, Note_on_c, 5, 57, 85
8, 47288, Note_on_c, 5, 41, 56
8, 47292, Note_on_c, 5, 65, 79
8, 47314, Note_off_c, 5, 57, 64
8, 47324, Note_off_c, 5, 41, 64
8, 47332, Note_off_c, 5, 65, 64
8, 47342, Control_c, 5, 64, 0
8, 47512, Note_on_c, 5, 41, 49
8, 47518, Note_on_c, 5, 57, 92
8, 47550, Control_c, 5, 64, 127
8, 47554, Note_off_c, 5, 41, 64
8, 47554, Note_on_c, 5, 65, 73
8, 47576, Note_off_c, 5, 57, 64
8, 47594, Note_off_c, 5, 65, 64
8, 47764, Note_on_c, 5, 57, 85
8, 47768, Note_on_c, 5, 41, 57
8, 47770, Note_on_c, 5, 65, 82
8, 47796, Note_off_c, 5, 57, 64
8, 47806, Note_off_c, 5, 65, 64
8, 47806, Note_off_c, 5, 41, 64
8, 47818, Control_c, 5, 64, 0
8, 48000, Note_on_c, 5, 41, 54
8, 48000, Note_on_c, 5, 57, 93
8, 48016, Control_c, 5, 64, 127
8, 48020, Note_on_c, 5, 65, 79
8, 48042, Note_off_c, 5, 57, 64
8, 48048, Note_off_c, 5, 41, 64
8, 48060, Note_off_c, 5, 65, 64
8, 48168, Control_c, 5, 64, 0
8, 48408, Control_c, 5, 0, 0
8, 48648, Control_c, 5, 0, 0
8, 48648, End_track
9, 0, Start_track
9, 0, Title_t, "seq'97 herbca@dsp.net"
9, 0, Control_c, 15, 7, 119
9, 0, End_track
0, 0, End_of_file
