0, 0, Header, 1, 7, 120
1, 0, Start_track
1, 0, Title_t, "untitled"
1, 0, Time_signature, 4, 2, 24, 8
1, 0, Key_signature, 4, "major"
1, 0, Tempo, 512821
1, 0, Marker_t, "(C)1996 Devian Music Inc"
1, 0, End_track
2, 0, Start_track
2, 0, MIDI_port, 0
2, 0, Title_t, "FREEDOM AT MIDNIGHT"
2, 0, Program_c, 1, 0
2, 0, Control_c, 1, 7, 100
2, 0, Control_c, 1, 10, 64
2, 600, Control_c, 1, 121, 0
2, 600, Control_c, 1, 91, 50
2, 600, Control_c, 1, 93, 20
2, 600, Note_on_c, 1, 37, 115
2, 600, Note_on_c, 1, 64, 115
2, 600, Note_on_c, 1, 68, 115
2, 600, Note_on_c, 1, 73, 115
2, 600, Note_on_c, 1, 76, 115
2, 630, Note_on_c, 1, 76, 0
2, 630, Note_on_c, 1, 68, 0
2, 630, Note_on_c, 1, 37, 0
2, 630, Note_on_c, 1, 64, 0
2, 630, Note_on_c, 1, 73, 0
2, 660, Note_on_c, 1, 37, 115
2, 660, Note_on_c, 1, 64, 115
2, 660, Note_on_c, 1, 68, 115
2, 660, Note_on_c, 1, 73, 115
2, 660, Note_on_c, 1, 76, 115
2, 690, Note_on_c, 1, 76, 0
2, 690, Note_on_c, 1, 68, 0
2, 690, Note_on_c, 1, 37, 0
2, 690, Note_on_c, 1, 64, 0
2, 690, Note_on_c, 1, 73, 0
2, 720, Note_on_c, 1, 44, 115
2, 720, Note_on_c, 1, 63, 115
2, 720, Note_on_c, 1, 68, 115
2, 720, Note_on_c, 1, 71, 115
2, 720, Note_on_c, 1, 75, 115
2, 810, Note_on_c, 1, 75, 0
2, 810, Note_on_c, 1, 68, 0
2, 810, Note_on_c, 1, 44, 0
2, 810, Note_on_c, 1, 63, 0
2, 810, Note_on_c, 1, 71, 0
2, 840, Note_on_c, 1, 44, 115
2, 840, Note_on_c, 1, 66, 115
2, 840, Note_on_c, 1, 71, 115
2, 930, Note_on_c, 1, 71, 0
2, 930, Note_on_c, 1, 66, 0
2, 930, Note_on_c, 1, 44, 0
2, 930, Note_on_c, 1, 49, 115
2, 930, Note_on_c, 1, 64, 115
2, 930, Note_on_c, 1, 68, 115
2, 930, Note_on_c, 1, 73, 115
2, 960, Note_on_c, 1, 73, 0
2, 960, Note_on_c, 1, 49, 0
2, 960, Note_on_c, 1, 64, 0
2, 960, Note_on_c, 1, 68, 0
2, 1080, Note_on_c, 1, 49, 115
2, 1080, Note_on_c, 1, 64, 115
2, 1080, Note_on_c, 1, 68, 115
2, 1080, Note_on_c, 1, 73, 115
2, 1110, Note_on_c, 1, 73, 0
2, 1110, Note_on_c, 1, 49, 0
2, 1110, Note_on_c, 1, 64, 0
2, 1110, Note_on_c, 1, 68, 0
2, 1140, Note_on_c, 1, 49, 115
2, 1140, Note_on_c, 1, 64, 115
2, 1140, Note_on_c, 1, 68, 115
2, 1140, Note_on_c, 1, 76, 115
2, 1170, Note_on_c, 1, 76, 0
2, 1170, Note_on_c, 1, 49, 0
2, 1170, Note_on_c, 1, 64, 0
2, 1170, Note_on_c, 1, 68, 0
2, 1200, Note_on_c, 1, 47, 115
2, 1200, Note_on_c, 1, 74, 115
2, 1200, Note_on_c, 1, 69, 115
2, 1200, Note_on_c, 1, 78, 115
2, 1290, Note_on_c, 1, 78, 0
2, 1290, Note_on_c, 1, 47, 0
2, 1290, Note_on_c, 1, 74, 0
2, 1290, Note_on_c, 1, 69, 0
2, 1320, Note_on_c, 1, 40, 115
2, 1320, Note_on_c, 1, 76, 115
2, 1320, Note_on_c, 1, 68, 115
2, 1320, Note_on_c, 1, 80, 115
2, 1320, Note_on_c, 1, 71, 115
2, 1410, Note_on_c, 1, 71, 0
2, 1410, Note_on_c, 1, 68, 0
2, 1410, Note_on_c, 1, 40, 0
2, 1410, Note_on_c, 1, 76, 0
2, 1410, Note_on_c, 1, 80, 0
2, 1410, Note_on_c, 1, 45, 115
2, 1410, Note_on_c, 1, 73, 115
2, 1410, Note_on_c, 1, 76, 115
2, 1410, Note_on_c, 1, 64, 115
2, 1410, Note_on_c, 1, 68, 115
2, 1440, Note_on_c, 1, 68, 0
2, 1440, Note_on_c, 1, 76, 0
2, 1440, Note_on_c, 1, 45, 0
2, 1440, Note_on_c, 1, 73, 0
2, 1440, Note_on_c, 1, 64, 0
2, 1530, Note_on_c, 1, 45, 115
2, 1560, Note_on_c, 1, 45, 0
2, 1560, Note_on_c, 1, 45, 115
2, 1560, Note_on_c, 1, 64, 115
2, 1560, Note_on_c, 1, 68, 115
2, 1560, Note_on_c, 1, 73, 115
2, 1560, Note_on_c, 1, 76, 115
2, 1590, Note_on_c, 1, 76, 0
2, 1590, Note_on_c, 1, 68, 0
2, 1590, Note_on_c, 1, 45, 0
2, 1590, Note_on_c, 1, 64, 0
2, 1590, Note_on_c, 1, 73, 0
2, 1620, Note_on_c, 1, 45, 115
2, 1620, Note_on_c, 1, 64, 115
2, 1620, Note_on_c, 1, 68, 115
2, 1620, Note_on_c, 1, 73, 115
2, 1620, Note_on_c, 1, 76, 115
2, 1650, Note_on_c, 1, 76, 0
2, 1650, Note_on_c, 1, 68, 0
2, 1650, Note_on_c, 1, 45, 0
2, 1650, Note_on_c, 1, 64, 0
2, 1650, Note_on_c, 1, 73, 0
2, 1680, Note_on_c, 1, 44, 115
2, 1680, Note_on_c, 1, 64, 115
2, 1680, Note_on_c, 1, 76, 115
2, 1680, Note_on_c, 1, 68, 115
2, 1680, Note_on_c, 1, 71, 115
2, 1770, Note_on_c, 1, 71, 0
2, 1770, Note_on_c, 1, 76, 0
2, 1770, Note_on_c, 1, 44, 0
2, 1770, Note_on_c, 1, 64, 0
2, 1770, Note_on_c, 1, 68, 0
2, 1800, Note_on_c, 1, 49, 115
2, 1800, Note_on_c, 1, 59, 115
2, 1800, Note_on_c, 1, 64, 115
2, 1800, Note_on_c, 1, 71, 115
2, 1890, Note_on_c, 1, 71, 0
2, 1890, Note_on_c, 1, 49, 0
2, 1890, Note_on_c, 1, 59, 0
2, 1890, Note_on_c, 1, 64, 0
2, 1920, Note_on_c, 1, 78, 115
2, 1920, Note_on_c, 1, 42, 115
2, 1920, Note_on_c, 1, 66, 115
2, 1920, Note_on_c, 1, 73, 115
2, 1920, Note_on_c, 1, 81, 115
2, 2040, Note_on_c, 1, 81, 0
2, 2040, Note_on_c, 1, 66, 0
2, 2040, Note_on_c, 1, 78, 0
2, 2040, Note_on_c, 1, 42, 0
2, 2040, Note_on_c, 1, 73, 0
2, 2040, Note_on_c, 1, 71, 115
2, 2040, Note_on_c, 1, 68, 115
2, 2040, Note_on_c, 1, 44, 115
2, 2040, Note_on_c, 1, 76, 115
2, 2040, Note_on_c, 1, 80, 115
2, 2070, Note_on_c, 1, 80, 0
2, 2070, Note_on_c, 1, 44, 0
2, 2070, Note_on_c, 1, 71, 0
2, 2070, Note_on_c, 1, 68, 0
2, 2070, Note_on_c, 1, 76, 0
2, 2100, Note_on_c, 1, 75, 115
2, 2100, Note_on_c, 1, 68, 115
2, 2100, Note_on_c, 1, 45, 115
2, 2100, Note_on_c, 1, 78, 115
2, 2130, Note_on_c, 1, 78, 0
2, 2130, Note_on_c, 1, 75, 0
2, 2130, Note_on_c, 1, 68, 0
2, 2130, Note_on_c, 1, 45, 0
2, 2160, Note_on_c, 1, 71, 115
2, 2160, Note_on_c, 1, 66, 115
2, 2160, Note_on_c, 1, 47, 115
2, 2160, Note_on_c, 1, 76, 115
2, 2160, Note_on_c, 1, 69, 115
2, 2280, Note_on_c, 1, 69, 0
2, 2280, Note_on_c, 1, 47, 0
2, 2280, Note_on_c, 1, 71, 0
2, 2280, Note_on_c, 1, 66, 0
2, 2280, Note_on_c, 1, 76, 0
2, 2280, Note_on_c, 1, 63, 115
2, 2280, Note_on_c, 1, 68, 115
2, 2280, Note_on_c, 1, 75, 115
2, 2280, Note_on_c, 1, 48, 115
2, 2370, Note_on_c, 1, 48, 0
2, 2370, Note_on_c, 1, 63, 0
2, 2370, Note_on_c, 1, 68, 0
2, 2370, Note_on_c, 1, 75, 0
2, 2370, Note_on_c, 1, 64, 115
2, 2370, Note_on_c, 1, 68, 115
2, 2370, Note_on_c, 1, 76, 115
2, 2370, Note_on_c, 1, 49, 115
2, 2400, Note_on_c, 1, 49, 0
2, 2400, Note_on_c, 1, 64, 0
2, 2400, Note_on_c, 1, 68, 0
2, 2400, Note_on_c, 1, 76, 0
2, 2430, Note_on_c, 1, 37, 115
2, 2460, Note_on_c, 1, 37, 0
2, 2490, Note_on_c, 1, 37, 115
2, 2520, Note_on_c, 1, 37, 0
2, 2520, Note_on_c, 1, 37, 115
2, 2520, Note_on_c, 1, 64, 115
2, 2520, Note_on_c, 1, 68, 115
2, 2520, Note_on_c, 1, 73, 115
2, 2520, Note_on_c, 1, 76, 115
2, 2550, Note_on_c, 1, 76, 0
2, 2550, Note_on_c, 1, 68, 0
2, 2550, Note_on_c, 1, 37, 0
2, 2550, Note_on_c, 1, 64, 0
2, 2550, Note_on_c, 1, 73, 0
2, 2580, Note_on_c, 1, 44, 115
2, 2580, Note_on_c, 1, 64, 115
2, 2580, Note_on_c, 1, 68, 115
2, 2580, Note_on_c, 1, 73, 115
2, 2580, Note_on_c, 1, 76, 115
2, 2610, Note_on_c, 1, 76, 0
2, 2610, Note_on_c, 1, 68, 0
2, 2610, Note_on_c, 1, 44, 0
2, 2610, Note_on_c, 1, 64, 0
2, 2610, Note_on_c, 1, 73, 0
2, 2640, Note_on_c, 1, 44, 115
2, 2640, Note_on_c, 1, 63, 115
2, 2640, Note_on_c, 1, 68, 115
2, 2640, Note_on_c, 1, 71, 115
2, 2640, Note_on_c, 1, 75, 115
2, 2730, Note_on_c, 1, 75, 0
2, 2730, Note_on_c, 1, 68, 0
2, 2730, Note_on_c, 1, 44, 0
2, 2730, Note_on_c, 1, 63, 0
2, 2730, Note_on_c, 1, 71, 0
2, 2760, Note_on_c, 1, 44, 115
2, 2760, Note_on_c, 1, 66, 115
2, 2760, Note_on_c, 1, 71, 115
2, 2850, Note_on_c, 1, 71, 0
2, 2850, Note_on_c, 1, 66, 0
2, 2850, Note_on_c, 1, 44, 0
2, 2850, Note_on_c, 1, 49, 115
2, 2850, Note_on_c, 1, 64, 115
2, 2850, Note_on_c, 1, 68, 115
2, 2850, Note_on_c, 1, 73, 115
2, 2880, Note_on_c, 1, 73, 0
2, 2880, Note_on_c, 1, 49, 0
2, 2880, Note_on_c, 1, 64, 0
2, 2880, Note_on_c, 1, 68, 0
2, 3000, Note_on_c, 1, 49, 115
2, 3000, Note_on_c, 1, 64, 115
2, 3000, Note_on_c, 1, 68, 115
2, 3000, Note_on_c, 1, 73, 115
2, 3030, Note_on_c, 1, 73, 0
2, 3030, Note_on_c, 1, 49, 0
2, 3030, Note_on_c, 1, 64, 0
2, 3030, Note_on_c, 1, 68, 0
2, 3060, Note_on_c, 1, 49, 115
2, 3060, Note_on_c, 1, 64, 115
2, 3060, Note_on_c, 1, 68, 115
2, 3060, Note_on_c, 1, 76, 115
2, 3090, Note_on_c, 1, 76, 0
2, 3090, Note_on_c, 1, 49, 0
2, 3090, Note_on_c, 1, 64, 0
2, 3090, Note_on_c, 1, 68, 0
2, 3120, Note_on_c, 1, 47, 115
2, 3120, Note_on_c, 1, 74, 115
2, 3120, Note_on_c, 1, 69, 115
2, 3120, Note_on_c, 1, 78, 115
2, 3210, Note_on_c, 1, 78, 0
2, 3210, Note_on_c, 1, 47, 0
2, 3210, Note_on_c, 1, 74, 0
2, 3210, Note_on_c, 1, 69, 0
2, 3240, Note_on_c, 1, 40, 115
2, 3240, Note_on_c, 1, 76, 115
2, 3240, Note_on_c, 1, 68, 115
2, 3240, Note_on_c, 1, 80, 115
2, 3240, Note_on_c, 1, 71, 115
2, 3330, Note_on_c, 1, 71, 0
2, 3330, Note_on_c, 1, 68, 0
2, 3330, Note_on_c, 1, 40, 0
2, 3330, Note_on_c, 1, 76, 0
2, 3330, Note_on_c, 1, 80, 0
2, 3330, Note_on_c, 1, 59, 115
2, 3330, Note_on_c, 1, 76, 115
2, 3330, Note_on_c, 1, 73, 115
2, 3330, Note_on_c, 1, 68, 115
2, 3330, Note_on_c, 1, 64, 115
2, 3330, Note_on_c, 1, 45, 115
2, 3780, Note_on_c, 1, 88, 105
2, 3810, Note_on_c, 1, 88, 0
2, 3810, Note_on_c, 1, 85, 105
2, 3840, Note_on_c, 1, 85, 0
2, 3840, Note_on_c, 1, 45, 0
2, 3840, Note_on_c, 1, 76, 0
2, 3840, Note_on_c, 1, 73, 0
2, 3840, Note_on_c, 1, 59, 0
2, 3840, Note_on_c, 1, 64, 0
2, 3840, Note_on_c, 1, 68, 0
2, 3840, Note_on_c, 1, 88, 105
2, 3840, Note_on_c, 1, 66, 105
2, 3840, Note_on_c, 1, 61, 105
2, 3840, Note_on_c, 1, 71, 105
2, 3840, Note_on_c, 1, 47, 105
2, 3870, Note_on_c, 1, 88, 0
2, 3870, Note_on_c, 1, 83, 105
2, 3900, Note_on_c, 1, 83, 0
2, 3900, Note_on_c, 1, 81, 105
2, 4290, Note_on_c, 1, 81, 0
2, 4320, Note_on_c, 1, 71, 0
2, 4320, Note_on_c, 1, 66, 0
2, 4320, Note_on_c, 1, 61, 0
2, 4320, Note_on_c, 1, 47, 0
2, 4320, Control_c, 1, 64, 50
2, 4320, Note_on_c, 1, 61, 105
2, 4320, Note_on_c, 1, 64, 105
2, 4320, Note_on_c, 1, 59, 105
2, 4320, Note_on_c, 1, 68, 105
2, 4320, Note_on_c, 1, 71, 105
2, 4500, Note_on_c, 1, 80, 115
2, 4530, Note_on_c, 1, 80, 0
2, 4530, Note_on_c, 1, 81, 115
2, 4560, Note_on_c, 1, 81, 0
2, 4560, Note_on_c, 1, 80, 115
2, 5040, Note_on_c, 1, 80, 0
2, 5130, Note_on_c, 1, 78, 105
2, 5145, Note_on_c, 1, 78, 0
2, 5145, Note_on_c, 1, 77, 105
2, 5160, Note_on_c, 1, 77, 0
2, 5160, Note_on_c, 1, 76, 115
2, 5280, Note_on_c, 1, 76, 0
2, 5280, Note_on_c, 1, 71, 0
2, 5280, Note_on_c, 1, 59, 0
2, 5280, Note_on_c, 1, 61, 0
2, 5280, Note_on_c, 1, 64, 0
2, 5280, Note_on_c, 1, 68, 0
2, 5280, Note_on_c, 1, 78, 115
2, 5280, Note_on_c, 1, 56, 105
2, 5280, Note_on_c, 1, 59, 105
2, 5280, Note_on_c, 1, 61, 105
2, 5280, Note_on_c, 1, 64, 105
2, 5280, Note_on_c, 1, 68, 105
2, 5400, Note_on_c, 1, 78, 0
2, 5400, Note_on_c, 1, 83, 115
2, 6120, Note_on_c, 1, 83, 0
2, 6240, Note_on_c, 1, 68, 0
2, 6240, Note_on_c, 1, 61, 0
2, 6240, Note_on_c, 1, 56, 0
2, 6240, Note_on_c, 1, 59, 0
2, 6240, Note_on_c, 1, 64, 0
2, 6240, Note_on_c, 1, 61, 105
2, 6240, Note_on_c, 1, 64, 105
2, 6240, Note_on_c, 1, 59, 105
2, 6240, Note_on_c, 1, 68, 105
2, 6240, Note_on_c, 1, 71, 105
2, 6420, Note_on_c, 1, 80, 115
2, 6450, Note_on_c, 1, 80, 0
2, 6450, Note_on_c, 1, 81, 115
2, 6480, Note_on_c, 1, 81, 0
2, 6480, Note_on_c, 1, 80, 115
2, 6720, Note_on_c, 1, 80, 0
2, 7050, Note_on_c, 1, 78, 105
2, 7065, Note_on_c, 1, 78, 0
2, 7065, Note_on_c, 1, 77, 105
2, 7080, Note_on_c, 1, 77, 0
2, 7080, Note_on_c, 1, 76, 105
2, 7200, Note_on_c, 1, 76, 0
2, 7200, Note_on_c, 1, 71, 0
2, 7200, Note_on_c, 1, 59, 0
2, 7200, Note_on_c, 1, 61, 0
2, 7200, Note_on_c, 1, 64, 0
2, 7200, Note_on_c, 1, 68, 0
2, 7200, Note_on_c, 1, 78, 115
2, 7200, Note_on_c, 1, 56, 105
2, 7200, Note_on_c, 1, 59, 105
2, 7200, Note_on_c, 1, 61, 105
2, 7200, Note_on_c, 1, 64, 105
2, 7200, Note_on_c, 1, 68, 105
2, 7320, Note_on_c, 1, 78, 0
2, 7320, Note_on_c, 1, 87, 115
2, 7680, Note_on_c, 1, 87, 0
2, 8160, Note_on_c, 1, 68, 0
2, 8160, Note_on_c, 1, 61, 0
2, 8160, Note_on_c, 1, 56, 0
2, 8160, Note_on_c, 1, 59, 0
2, 8160, Note_on_c, 1, 64, 0
2, 8160, Note_on_c, 1, 61, 105
2, 8160, Note_on_c, 1, 68, 105
2, 8160, Note_on_c, 1, 59, 105
2, 8160, Note_on_c, 1, 64, 105
2, 8340, Note_on_c, 1, 80, 115
2, 8370, Note_on_c, 1, 80, 0
2, 8370, Note_on_c, 1, 81, 115
2, 8400, Note_on_c, 1, 81, 0
2, 8400, Note_on_c, 1, 80, 115
2, 8550, Note_on_c, 1, 78, 105
2, 8565, Note_on_c, 1, 78, 0
2, 8565, Note_on_c, 1, 77, 105
2, 8580, Note_on_c, 1, 77, 0
2, 8580, Note_on_c, 1, 76, 115
2, 8610, Note_on_c, 1, 80, 0
2, 8640, Note_on_c, 1, 68, 0
2, 8640, Note_on_c, 1, 59, 0
2, 8640, Note_on_c, 1, 61, 0
2, 8640, Note_on_c, 1, 76, 0
2, 8640, Note_on_c, 1, 64, 0
2, 8640, Note_on_c, 1, 78, 115
2, 8640, Note_on_c, 1, 59, 105
2, 8640, Note_on_c, 1, 66, 105
2, 8640, Note_on_c, 1, 56, 105
2, 8640, Note_on_c, 1, 64, 105
2, 8760, Note_on_c, 1, 78, 0
2, 8760, Note_on_c, 1, 83, 115
2, 9000, Note_on_c, 1, 83, 0
2, 9120, Note_on_c, 1, 64, 0
2, 9120, Note_on_c, 1, 59, 0
2, 9120, Note_on_c, 1, 66, 0
2, 9120, Note_on_c, 1, 56, 0
2, 9120, Note_on_c, 1, 61, 105
2, 9120, Note_on_c, 1, 64, 105
2, 9120, Note_on_c, 1, 68, 105
2, 9120, Note_on_c, 1, 59, 105
2, 9270, Note_on_c, 1, 71, 115
2, 9300, Note_on_c, 1, 71, 0
2, 9300, Note_on_c, 1, 76, 115
2, 9330, Note_on_c, 1, 76, 0
2, 9330, Note_on_c, 1, 78, 115
2, 9360, Note_on_c, 1, 78, 0
2, 9360, Note_on_c, 1, 80, 115
2, 9390, Note_on_c, 1, 80, 0
2, 9390, Note_on_c, 1, 81, 115
2, 9420, Note_on_c, 1, 81, 0
2, 9420, Note_on_c, 1, 80, 115
2, 9540, Note_on_c, 1, 78, 115
2, 9570, Note_on_c, 1, 78, 0
2, 9570, Note_on_c, 1, 76, 115
2, 9600, Note_on_c, 1, 76, 0
2, 9600, Note_on_c, 1, 80, 0
2, 9600, Note_on_c, 1, 59, 0
2, 9600, Note_on_c, 1, 61, 0
2, 9600, Note_on_c, 1, 64, 0
2, 9600, Note_on_c, 1, 68, 0
2, 9600, Note_on_c, 1, 78, 115
2, 9600, Note_on_c, 1, 57, 105
2, 9600, Note_on_c, 1, 54, 105
2, 9600, Note_on_c, 1, 61, 105
2, 9600, Note_on_c, 1, 64, 105
2, 9720, Note_on_c, 1, 78, 0
2, 9720, Note_on_c, 1, 87, 115
2, 9840, Note_on_c, 1, 87, 0
2, 9840, Note_on_c, 1, 64, 0
2, 9840, Note_on_c, 1, 57, 0
2, 9840, Note_on_c, 1, 54, 0
2, 9840, Note_on_c, 1, 61, 0
2, 9840, Note_on_c, 1, 68, 105
2, 9840, Note_on_c, 1, 84, 115
2, 9840, Note_on_c, 1, 56, 105
2, 9840, Note_on_c, 1, 60, 105
2, 9840, Note_on_c, 1, 64, 105
2, 10080, Note_on_c, 1, 64, 0
2, 10080, Note_on_c, 1, 56, 0
2, 10080, Note_on_c, 1, 68, 0
2, 10080, Note_on_c, 1, 84, 0
2, 10080, Note_on_c, 1, 60, 0
2, 10200, Note_on_c, 1, 85, 115
2, 10200, Note_on_c, 1, 88, 115
2, 10200, Control_c, 1, 64, 20
2, 10200, Note_on_c, 1, 68, 115
2, 10200, Note_on_c, 1, 73, 115
2, 10200, Note_on_c, 1, 76, 115
2, 10230, Note_on_c, 1, 76, 0
2, 10230, Note_on_c, 1, 68, 0
2, 10230, Note_on_c, 1, 85, 0
2, 10230, Note_on_c, 1, 88, 0
2, 10230, Note_on_c, 1, 73, 0
2, 10260, Note_on_c, 1, 85, 115
2, 10260, Note_on_c, 1, 88, 115
2, 10260, Note_on_c, 1, 68, 115
2, 10260, Note_on_c, 1, 73, 115
2, 10260, Note_on_c, 1, 76, 115
2, 10290, Note_on_c, 1, 76, 0
2, 10290, Note_on_c, 1, 68, 0
2, 10290, Note_on_c, 1, 85, 0
2, 10290, Note_on_c, 1, 88, 0
2, 10290, Note_on_c, 1, 73, 0
2, 10320, Note_on_c, 1, 83, 115
2, 10320, Note_on_c, 1, 87, 115
2, 10320, Note_on_c, 1, 68, 115
2, 10320, Note_on_c, 1, 71, 115
2, 10320, Note_on_c, 1, 75, 115
2, 10410, Note_on_c, 1, 75, 0
2, 10410, Note_on_c, 1, 68, 0
2, 10410, Note_on_c, 1, 83, 0
2, 10410, Note_on_c, 1, 87, 0
2, 10410, Note_on_c, 1, 71, 0
2, 10440, Note_on_c, 1, 75, 115
2, 10440, Note_on_c, 1, 83, 115
2, 10440, Note_on_c, 1, 66, 115
2, 10440, Note_on_c, 1, 71, 115
2, 10530, Note_on_c, 1, 71, 0
2, 10530, Note_on_c, 1, 75, 0
2, 10530, Note_on_c, 1, 83, 0
2, 10530, Note_on_c, 1, 66, 0
2, 10530, Note_on_c, 1, 76, 115
2, 10530, Note_on_c, 1, 85, 115
2, 10530, Note_on_c, 1, 64, 115
2, 10530, Note_on_c, 1, 68, 115
2, 10530, Note_on_c, 1, 73, 115
2, 10560, Note_on_c, 1, 73, 0
2, 10560, Note_on_c, 1, 64, 0
2, 10560, Note_on_c, 1, 76, 0
2, 10560, Note_on_c, 1, 85, 0
2, 10560, Note_on_c, 1, 68, 0
2, 10680, Note_on_c, 1, 80, 115
2, 10680, Note_on_c, 1, 85, 115
2, 10680, Note_on_c, 1, 64, 115
2, 10680, Note_on_c, 1, 68, 115
2, 10680, Note_on_c, 1, 73, 115
2, 10710, Note_on_c, 1, 73, 0
2, 10710, Note_on_c, 1, 64, 0
2, 10710, Note_on_c, 1, 80, 0
2, 10710, Note_on_c, 1, 85, 0
2, 10710, Note_on_c, 1, 68, 0
2, 10740, Note_on_c, 1, 83, 115
2, 10740, Note_on_c, 1, 76, 115
2, 10740, Note_on_c, 1, 71, 115
2, 10740, Note_on_c, 1, 88, 115
2, 10740, Note_on_c, 1, 68, 115
2, 10770, Note_on_c, 1, 68, 0
2, 10770, Note_on_c, 1, 71, 0
2, 10770, Note_on_c, 1, 83, 0
2, 10770, Note_on_c, 1, 76, 0
2, 10770, Note_on_c, 1, 88, 0
2, 10800, Note_on_c, 1, 86, 115
2, 10800, Note_on_c, 1, 90, 115
2, 10800, Note_on_c, 1, 74, 115
2, 10800, Note_on_c, 1, 69, 115
2, 10800, Note_on_c, 1, 78, 115
2, 10890, Note_on_c, 1, 78, 0
2, 10890, Note_on_c, 1, 74, 0
2, 10890, Note_on_c, 1, 86, 0
2, 10890, Note_on_c, 1, 90, 0
2, 10890, Note_on_c, 1, 69, 0
2, 10920, Note_on_c, 1, 88, 115
2, 10920, Note_on_c, 1, 92, 115
2, 10920, Note_on_c, 1, 76, 115
2, 10920, Note_on_c, 1, 80, 115
2, 10920, Note_on_c, 1, 71, 115
2, 11010, Note_on_c, 1, 71, 0
2, 11010, Note_on_c, 1, 76, 0
2, 11010, Note_on_c, 1, 88, 0
2, 11010, Note_on_c, 1, 92, 0
2, 11010, Note_on_c, 1, 80, 0
2, 11010, Note_on_c, 1, 85, 115
2, 11010, Note_on_c, 1, 88, 115
2, 11010, Note_on_c, 1, 73, 115
2, 11010, Note_on_c, 1, 76, 115
2, 11010, Note_on_c, 1, 68, 115
2, 11040, Note_on_c, 1, 68, 0
2, 11040, Note_on_c, 1, 73, 0
2, 11040, Note_on_c, 1, 85, 0
2, 11040, Note_on_c, 1, 88, 0
2, 11040, Note_on_c, 1, 76, 0
2, 11160, Note_on_c, 1, 85, 115
2, 11160, Note_on_c, 1, 88, 115
2, 11160, Note_on_c, 1, 68, 115
2, 11160, Note_on_c, 1, 73, 115
2, 11160, Note_on_c, 1, 76, 115
2, 11190, Note_on_c, 1, 76, 0
2, 11190, Note_on_c, 1, 68, 0
2, 11190, Note_on_c, 1, 85, 0
2, 11190, Note_on_c, 1, 88, 0
2, 11190, Note_on_c, 1, 73, 0
2, 11220, Note_on_c, 1, 85, 115
2, 11220, Note_on_c, 1, 88, 115
2, 11220, Note_on_c, 1, 68, 115
2, 11220, Note_on_c, 1, 73, 115
2, 11220, Note_on_c, 1, 76, 115
2, 11250, Note_on_c, 1, 76, 0
2, 11250, Note_on_c, 1, 68, 0
2, 11250, Note_on_c, 1, 85, 0
2, 11250, Note_on_c, 1, 88, 0
2, 11250, Note_on_c, 1, 73, 0
2, 11280, Note_on_c, 1, 83, 115
2, 11280, Note_on_c, 1, 88, 115
2, 11280, Note_on_c, 1, 76, 115
2, 11280, Note_on_c, 1, 68, 115
2, 11280, Note_on_c, 1, 71, 115
2, 11370, Note_on_c, 1, 71, 0
2, 11370, Note_on_c, 1, 76, 0
2, 11370, Note_on_c, 1, 83, 0
2, 11370, Note_on_c, 1, 88, 0
2, 11370, Note_on_c, 1, 68, 0
2, 11400, Note_on_c, 1, 76, 115
2, 11400, Note_on_c, 1, 83, 115
2, 11400, Note_on_c, 1, 59, 115
2, 11400, Note_on_c, 1, 64, 115
2, 11400, Note_on_c, 1, 71, 115
2, 11490, Note_on_c, 1, 71, 0
2, 11490, Note_on_c, 1, 59, 0
2, 11490, Note_on_c, 1, 76, 0
2, 11490, Note_on_c, 1, 83, 0
2, 11490, Note_on_c, 1, 64, 0
2, 11520, Note_on_c, 1, 90, 115
2, 11520, Note_on_c, 1, 93, 115
2, 11520, Note_on_c, 1, 78, 115
2, 11520, Note_on_c, 1, 73, 115
2, 11520, Note_on_c, 1, 81, 115
2, 11640, Note_on_c, 1, 81, 0
2, 11640, Note_on_c, 1, 78, 0
2, 11640, Note_on_c, 1, 90, 0
2, 11640, Note_on_c, 1, 93, 0
2, 11640, Note_on_c, 1, 73, 0
2, 11640, Note_on_c, 1, 88, 115
2, 11640, Note_on_c, 1, 92, 115
2, 11640, Note_on_c, 1, 71, 115
2, 11640, Note_on_c, 1, 76, 115
2, 11640, Note_on_c, 1, 80, 115
2, 11670, Note_on_c, 1, 80, 0
2, 11670, Note_on_c, 1, 71, 0
2, 11670, Note_on_c, 1, 88, 0
2, 11670, Note_on_c, 1, 92, 0
2, 11670, Note_on_c, 1, 76, 0
2, 11700, Note_on_c, 1, 87, 115
2, 11700, Note_on_c, 1, 90, 115
2, 11700, Note_on_c, 1, 75, 115
2, 11700, Note_on_c, 1, 68, 115
2, 11700, Note_on_c, 1, 78, 115
2, 11730, Note_on_c, 1, 78, 0
2, 11730, Note_on_c, 1, 75, 0
2, 11730, Note_on_c, 1, 87, 0
2, 11730, Note_on_c, 1, 90, 0
2, 11730, Note_on_c, 1, 68, 0
2, 11760, Note_on_c, 1, 83, 115
2, 11760, Note_on_c, 1, 88, 115
2, 11760, Note_on_c, 1, 71, 115
2, 11760, Note_on_c, 1, 66, 115
2, 11760, Note_on_c, 1, 76, 115
2, 11760, Note_on_c, 1, 69, 115
2, 11880, Note_on_c, 1, 69, 0
2, 11880, Note_on_c, 1, 88, 0
2, 11880, Note_on_c, 1, 71, 0
2, 11880, Note_on_c, 1, 83, 0
2, 11880, Note_on_c, 1, 76, 0
2, 11880, Note_on_c, 1, 66, 0
2, 11880, Note_on_c, 1, 87, 115
2, 11880, Note_on_c, 1, 63, 115
2, 11880, Note_on_c, 1, 68, 115
2, 11880, Note_on_c, 1, 75, 115
2, 11970, Note_on_c, 1, 75, 0
2, 11970, Note_on_c, 1, 87, 0
2, 11970, Note_on_c, 1, 63, 0
2, 11970, Note_on_c, 1, 68, 0
2, 11970, Note_on_c, 1, 83, 115
2, 11970, Note_on_c, 1, 88, 115
2, 11970, Note_on_c, 1, 64, 115
2, 11970, Note_on_c, 1, 68, 115
2, 11970, Note_on_c, 1, 76, 115
2, 12000, Note_on_c, 1, 76, 0
2, 12000, Note_on_c, 1, 64, 0
2, 12000, Note_on_c, 1, 83, 0
2, 12000, Note_on_c, 1, 88, 0
2, 12000, Note_on_c, 1, 68, 0
2, 12120, Note_on_c, 1, 85, 115
2, 12120, Note_on_c, 1, 88, 115
2, 12120, Control_c, 1, 64, 20
2, 12120, Note_on_c, 1, 68, 115
2, 12120, Note_on_c, 1, 73, 115
2, 12120, Note_on_c, 1, 76, 115
2, 12150, Note_on_c, 1, 76, 0
2, 12150, Note_on_c, 1, 68, 0
2, 12150, Note_on_c, 1, 85, 0
2, 12150, Note_on_c, 1, 88, 0
2, 12150, Note_on_c, 1, 73, 0
2, 12180, Note_on_c, 1, 85, 115
2, 12180, Note_on_c, 1, 88, 115
2, 12180, Note_on_c, 1, 68, 115
2, 12180, Note_on_c, 1, 73, 115
2, 12180, Note_on_c, 1, 76, 115
2, 12210, Note_on_c, 1, 76, 0
2, 12210, Note_on_c, 1, 68, 0
2, 12210, Note_on_c, 1, 85, 0
2, 12210, Note_on_c, 1, 88, 0
2, 12210, Note_on_c, 1, 73, 0
2, 12240, Note_on_c, 1, 83, 115
2, 12240, Note_on_c, 1, 87, 115
2, 12240, Note_on_c, 1, 68, 115
2, 12240, Note_on_c, 1, 71, 115
2, 12240, Note_on_c, 1, 75, 115
2, 12330, Note_on_c, 1, 75, 0
2, 12330, Note_on_c, 1, 68, 0
2, 12330, Note_on_c, 1, 83, 0
2, 12330, Note_on_c, 1, 87, 0
2, 12330, Note_on_c, 1, 71, 0
2, 12360, Note_on_c, 1, 75, 115
2, 12360, Note_on_c, 1, 83, 115
2, 12360, Note_on_c, 1, 66, 115
2, 12360, Note_on_c, 1, 71, 115
2, 12450, Note_on_c, 1, 71, 0
2, 12450, Note_on_c, 1, 75, 0
2, 12450, Note_on_c, 1, 83, 0
2, 12450, Note_on_c, 1, 66, 0
2, 12450, Note_on_c, 1, 76, 115
2, 12450, Note_on_c, 1, 85, 115
2, 12450, Note_on_c, 1, 64, 115
2, 12450, Note_on_c, 1, 68, 115
2, 12450, Note_on_c, 1, 73, 115
2, 12480, Note_on_c, 1, 73, 0
2, 12480, Note_on_c, 1, 64, 0
2, 12480, Note_on_c, 1, 76, 0
2, 12480, Note_on_c, 1, 85, 0
2, 12480, Note_on_c, 1, 68, 0
2, 12600, Note_on_c, 1, 80, 115
2, 12600, Note_on_c, 1, 85, 115
2, 12600, Note_on_c, 1, 64, 115
2, 12600, Note_on_c, 1, 68, 115
2, 12600, Note_on_c, 1, 73, 115
2, 12630, Note_on_c, 1, 73, 0
2, 12630, Note_on_c, 1, 64, 0
2, 12630, Note_on_c, 1, 80, 0
2, 12630, Note_on_c, 1, 85, 0
2, 12630, Note_on_c, 1, 68, 0
2, 12660, Note_on_c, 1, 83, 115
2, 12660, Note_on_c, 1, 76, 115
2, 12660, Note_on_c, 1, 71, 115
2, 12660, Note_on_c, 1, 88, 115
2, 12660, Note_on_c, 1, 68, 115
2, 12690, Note_on_c, 1, 68, 0
2, 12690, Note_on_c, 1, 71, 0
2, 12690, Note_on_c, 1, 83, 0
2, 12690, Note_on_c, 1, 76, 0
2, 12690, Note_on_c, 1, 88, 0
2, 12720, Note_on_c, 1, 86, 115
2, 12720, Note_on_c, 1, 90, 115
2, 12720, Note_on_c, 1, 74, 115
2, 12720, Note_on_c, 1, 69, 115
2, 12720, Note_on_c, 1, 78, 115
2, 12810, Note_on_c, 1, 78, 0
2, 12810, Note_on_c, 1, 74, 0
2, 12810, Note_on_c, 1, 86, 0
2, 12810, Note_on_c, 1, 90, 0
2, 12810, Note_on_c, 1, 69, 0
2, 12840, Note_on_c, 1, 88, 115
2, 12840, Note_on_c, 1, 92, 115
2, 12840, Note_on_c, 1, 76, 115
2, 12840, Note_on_c, 1, 80, 115
2, 12840, Note_on_c, 1, 71, 115
2, 12930, Note_on_c, 1, 71, 0
2, 12930, Note_on_c, 1, 76, 0
2, 12930, Note_on_c, 1, 88, 0
2, 12930, Note_on_c, 1, 92, 0
2, 12930, Note_on_c, 1, 80, 0
2, 12930, Note_on_c, 1, 85, 115
2, 12930, Note_on_c, 1, 88, 115
2, 12930, Note_on_c, 1, 73, 115
2, 12930, Note_on_c, 1, 76, 115
2, 12930, Note_on_c, 1, 68, 115
2, 12960, Note_on_c, 1, 68, 0
2, 12960, Note_on_c, 1, 73, 0
2, 12960, Note_on_c, 1, 85, 0
2, 12960, Note_on_c, 1, 88, 0
2, 12960, Note_on_c, 1, 76, 0
2, 13080, Note_on_c, 1, 85, 115
2, 13080, Note_on_c, 1, 88, 115
2, 13080, Note_on_c, 1, 68, 115
2, 13080, Note_on_c, 1, 73, 115
2, 13080, Note_on_c, 1, 76, 115
2, 13110, Note_on_c, 1, 76, 0
2, 13110, Note_on_c, 1, 68, 0
2, 13110, Note_on_c, 1, 85, 0
2, 13110, Note_on_c, 1, 88, 0
2, 13110, Note_on_c, 1, 73, 0
2, 13140, Note_on_c, 1, 85, 115
2, 13140, Note_on_c, 1, 88, 115
2, 13140, Note_on_c, 1, 68, 115
2, 13140, Note_on_c, 1, 73, 115
2, 13140, Note_on_c, 1, 76, 115
2, 13170, Note_on_c, 1, 76, 0
2, 13170, Note_on_c, 1, 68, 0
2, 13170, Note_on_c, 1, 85, 0
2, 13170, Note_on_c, 1, 88, 0
2, 13170, Note_on_c, 1, 73, 0
2, 13200, Note_on_c, 1, 83, 115
2, 13200, Note_on_c, 1, 88, 115
2, 13200, Note_on_c, 1, 76, 115
2, 13200, Note_on_c, 1, 68, 115
2, 13200, Note_on_c, 1, 71, 115
2, 13290, Note_on_c, 1, 71, 0
2, 13290, Note_on_c, 1, 76, 0
2, 13290, Note_on_c, 1, 83, 0
2, 13290, Note_on_c, 1, 88, 0
2, 13290, Note_on_c, 1, 68, 0
2, 13320, Note_on_c, 1, 76, 115
2, 13320, Note_on_c, 1, 83, 115
2, 13320, Note_on_c, 1, 59, 115
2, 13320, Note_on_c, 1, 64, 115
2, 13320, Note_on_c, 1, 71, 115
2, 13410, Note_on_c, 1, 71, 0
2, 13410, Note_on_c, 1, 59, 0
2, 13410, Note_on_c, 1, 76, 0
2, 13410, Note_on_c, 1, 83, 0
2, 13410, Note_on_c, 1, 64, 0
2, 13440, Note_on_c, 1, 90, 115
2, 13440, Note_on_c, 1, 93, 115
2, 13440, Note_on_c, 1, 78, 115
2, 13440, Note_on_c, 1, 73, 115
2, 13440, Note_on_c, 1, 81, 115
2, 13560, Note_on_c, 1, 81, 0
2, 13560, Note_on_c, 1, 78, 0
2, 13560, Note_on_c, 1, 90, 0
2, 13560, Note_on_c, 1, 93, 0
2, 13560, Note_on_c, 1, 73, 0
2, 13560, Note_on_c, 1, 88, 115
2, 13560, Note_on_c, 1, 92, 115
2, 13560, Note_on_c, 1, 71, 115
2, 13560, Note_on_c, 1, 76, 115
2, 13560, Note_on_c, 1, 80, 115
2, 13590, Note_on_c, 1, 80, 0
2, 13590, Note_on_c, 1, 71, 0
2, 13590, Note_on_c, 1, 88, 0
2, 13590, Note_on_c, 1, 92, 0
2, 13590, Note_on_c, 1, 76, 0
2, 13620, Note_on_c, 1, 87, 115
2, 13620, Note_on_c, 1, 90, 115
2, 13620, Note_on_c, 1, 75, 115
2, 13620, Note_on_c, 1, 68, 115
2, 13620, Note_on_c, 1, 78, 115
2, 13650, Note_on_c, 1, 78, 0
2, 13650, Note_on_c, 1, 75, 0
2, 13650, Note_on_c, 1, 87, 0
2, 13650, Note_on_c, 1, 90, 0
2, 13650, Note_on_c, 1, 68, 0
2, 13680, Note_on_c, 1, 83, 115
2, 13680, Note_on_c, 1, 88, 115
2, 13680, Note_on_c, 1, 71, 115
2, 13680, Note_on_c, 1, 66, 115
2, 13680, Note_on_c, 1, 76, 115
2, 13680, Note_on_c, 1, 69, 115
2, 13800, Note_on_c, 1, 69, 0
2, 13800, Note_on_c, 1, 88, 0
2, 13800, Note_on_c, 1, 71, 0
2, 13800, Note_on_c, 1, 83, 0
2, 13800, Note_on_c, 1, 76, 0
2, 13800, Note_on_c, 1, 66, 0
2, 13800, Note_on_c, 1, 87, 115
2, 13800, Note_on_c, 1, 63, 115
2, 13800, Note_on_c, 1, 68, 115
2, 13800, Note_on_c, 1, 75, 115
2, 13890, Note_on_c, 1, 75, 0
2, 13890, Note_on_c, 1, 87, 0
2, 13890, Note_on_c, 1, 63, 0
2, 13890, Note_on_c, 1, 68, 0
2, 13890, Control_c, 1, 64, 50
2, 13890, Note_on_c, 1, 59, 115
2, 13890, Note_on_c, 1, 64, 115
2, 13890, Note_on_c, 1, 68, 115
2, 13890, Note_on_c, 1, 71, 115
2, 13890, Note_on_c, 1, 76, 115
2, 14100, Note_on_c, 1, 80, 115
2, 14130, Note_on_c, 1, 80, 0
2, 14130, Note_on_c, 1, 81, 115
2, 14160, Note_on_c, 1, 81, 0
2, 14160, Note_on_c, 1, 80, 115
2, 14400, Note_on_c, 1, 80, 0
2, 14730, Note_on_c, 1, 78, 105
2, 14745, Note_on_c, 1, 78, 0
2, 14745, Note_on_c, 1, 77, 105
2, 14760, Note_on_c, 1, 77, 0
2, 14760, Note_on_c, 1, 76, 115
2, 14880, Note_on_c, 1, 76, 0
2, 14880, Note_on_c, 1, 76, 0
2, 14880, Note_on_c, 1, 68, 0
2, 14880, Note_on_c, 1, 59, 0
2, 14880, Note_on_c, 1, 64, 0
2, 14880, Note_on_c, 1, 71, 0
2, 14880, Note_on_c, 1, 78, 115
2, 14880, Note_on_c, 1, 56, 105
2, 14880, Note_on_c, 1, 59, 105
2, 14880, Note_on_c, 1, 61, 105
2, 14880, Note_on_c, 1, 64, 105
2, 14880, Note_on_c, 1, 68, 105
2, 15000, Note_on_c, 1, 78, 0
2, 15000, Note_on_c, 1, 83, 115
2, 15360, Note_on_c, 1, 83, 0
2, 15840, Note_on_c, 1, 68, 0
2, 15840, Note_on_c, 1, 61, 0
2, 15840, Note_on_c, 1, 56, 0
2, 15840, Note_on_c, 1, 59, 0
2, 15840, Note_on_c, 1, 64, 0
2, 15840, Note_on_c, 1, 61, 105
2, 15840, Note_on_c, 1, 64, 105
2, 15840, Note_on_c, 1, 59, 105
2, 15840, Note_on_c, 1, 68, 105
2, 15840, Note_on_c, 1, 71, 105
2, 16020, Note_on_c, 1, 80, 115
2, 16050, Note_on_c, 1, 80, 0
2, 16050, Note_on_c, 1, 81, 115
2, 16080, Note_on_c, 1, 81, 0
2, 16080, Note_on_c, 1, 80, 115
2, 16320, Note_on_c, 1, 80, 0
2, 16650, Note_on_c, 1, 78, 105
2, 16665, Note_on_c, 1, 78, 0
2, 16665, Note_on_c, 1, 77, 105
2, 16680, Note_on_c, 1, 77, 0
2, 16680, Note_on_c, 1, 76, 115
2, 16800, Note_on_c, 1, 76, 0
2, 16800, Note_on_c, 1, 71, 0
2, 16800, Note_on_c, 1, 59, 0
2, 16800, Note_on_c, 1, 61, 0
2, 16800, Note_on_c, 1, 64, 0
2, 16800, Note_on_c, 1, 68, 0
2, 16800, Note_on_c, 1, 78, 115
2, 16800, Note_on_c, 1, 56, 105
2, 16800, Note_on_c, 1, 59, 105
2, 16800, Note_on_c, 1, 61, 105
2, 16800, Note_on_c, 1, 64, 105
2, 16800, Note_on_c, 1, 68, 105
2, 16920, Note_on_c, 1, 78, 0
2, 16920, Note_on_c, 1, 87, 115
2, 17280, Note_on_c, 1, 87, 0
2, 17760, Note_on_c, 1, 68, 0
2, 17760, Note_on_c, 1, 61, 0
2, 17760, Note_on_c, 1, 56, 0
2, 17760, Note_on_c, 1, 59, 0
2, 17760, Note_on_c, 1, 64, 0
2, 17760, Note_on_c, 1, 71, 105
2, 17760, Note_on_c, 1, 68, 105
2, 17760, Note_on_c, 1, 59, 105
2, 17760, Note_on_c, 1, 64, 105
2, 17940, Note_on_c, 1, 80, 115
2, 17970, Note_on_c, 1, 80, 0
2, 17970, Note_on_c, 1, 81, 115
2, 18000, Note_on_c, 1, 81, 0
2, 18000, Note_on_c, 1, 80, 115
2, 18150, Note_on_c, 1, 78, 105
2, 18165, Note_on_c, 1, 78, 0
2, 18165, Note_on_c, 1, 77, 105
2, 18180, Note_on_c, 1, 77, 0
2, 18180, Note_on_c, 1, 76, 115
2, 18210, Note_on_c, 1, 80, 0
2, 18240, Note_on_c, 1, 68, 0
2, 18240, Note_on_c, 1, 59, 0
2, 18240, Note_on_c, 1, 71, 0
2, 18240, Note_on_c, 1, 76, 0
2, 18240, Note_on_c, 1, 64, 0
2, 18240, Note_on_c, 1, 78, 115
2, 18240, Note_on_c, 1, 59, 105
2, 18240, Note_on_c, 1, 66, 105
2, 18240, Note_on_c, 1, 56, 105
2, 18240, Note_on_c, 1, 64, 105
2, 18360, Note_on_c, 1, 78, 0
2, 18360, Note_on_c, 1, 83, 115
2, 18600, Note_on_c, 1, 83, 0
2, 18720, Note_on_c, 1, 64, 0
2, 18720, Note_on_c, 1, 59, 0
2, 18720, Note_on_c, 1, 66, 0
2, 18720, Note_on_c, 1, 56, 0
2, 18720, Note_on_c, 1, 61, 105
2, 18720, Note_on_c, 1, 64, 105
2, 18720, Note_on_c, 1, 68, 105
2, 18720, Note_on_c, 1, 59, 105
2, 18870, Note_on_c, 1, 71, 115
2, 18900, Note_on_c, 1, 71, 0
2, 18900, Note_on_c, 1, 76, 115
2, 18930, Note_on_c, 1, 76, 0
2, 18930, Note_on_c, 1, 78, 115
2, 18960, Note_on_c, 1, 78, 0
2, 18960, Note_on_c, 1, 80, 115
2, 18990, Note_on_c, 1, 80, 0
2, 18990, Note_on_c, 1, 81, 115
2, 19020, Note_on_c, 1, 81, 0
2, 19020, Note_on_c, 1, 80, 115
2, 19140, Note_on_c, 1, 78, 115
2, 19170, Note_on_c, 1, 78, 0
2, 19170, Note_on_c, 1, 76, 115
2, 19200, Note_on_c, 1, 76, 0
2, 19200, Note_on_c, 1, 80, 0
2, 19200, Note_on_c, 1, 59, 0
2, 19200, Note_on_c, 1, 61, 0
2, 19200, Note_on_c, 1, 64, 0
2, 19200, Note_on_c, 1, 68, 0
2, 19200, Note_on_c, 1, 78, 115
2, 19200, Note_on_c, 1, 57, 105
2, 19200, Note_on_c, 1, 54, 105
2, 19200, Note_on_c, 1, 61, 105
2, 19200, Note_on_c, 1, 64, 105
2, 19320, Note_on_c, 1, 78, 0
2, 19320, Note_on_c, 1, 87, 115
2, 19440, Note_on_c, 1, 87, 0
2, 19440, Note_on_c, 1, 64, 0
2, 19440, Note_on_c, 1, 57, 0
2, 19440, Note_on_c, 1, 54, 0
2, 19440, Note_on_c, 1, 61, 0
2, 19440, Note_on_c, 1, 84, 115
2, 19440, Note_on_c, 1, 68, 105
2, 19440, Note_on_c, 1, 56, 105
2, 19440, Note_on_c, 1, 60, 105
2, 19440, Note_on_c, 1, 64, 105
2, 19545, Control_c, 1, 64, 20
2, 19680, Note_on_c, 1, 64, 0
2, 19680, Note_on_c, 1, 56, 0
2, 19680, Note_on_c, 1, 84, 0
2, 19680, Note_on_c, 1, 68, 0
2, 19680, Note_on_c, 1, 60, 0
2, 19800, Note_on_c, 1, 85, 115
2, 19800, Note_on_c, 1, 88, 115
2, 19800, Control_c, 1, 64, 20
2, 19800, Note_on_c, 1, 68, 115
2, 19800, Note_on_c, 1, 73, 115
2, 19800, Note_on_c, 1, 76, 115
2, 19830, Note_on_c, 1, 76, 0
2, 19830, Note_on_c, 1, 68, 0
2, 19830, Note_on_c, 1, 85, 0
2, 19830, Note_on_c, 1, 88, 0
2, 19830, Note_on_c, 1, 73, 0
2, 19860, Note_on_c, 1, 85, 115
2, 19860, Note_on_c, 1, 88, 115
2, 19860, Note_on_c, 1, 68, 115
2, 19860, Note_on_c, 1, 73, 115
2, 19860, Note_on_c, 1, 76, 115
2, 19890, Note_on_c, 1, 76, 0
2, 19890, Note_on_c, 1, 68, 0
2, 19890, Note_on_c, 1, 85, 0
2, 19890, Note_on_c, 1, 88, 0
2, 19890, Note_on_c, 1, 73, 0
2, 19920, Note_on_c, 1, 83, 115
2, 19920, Note_on_c, 1, 87, 115
2, 19920, Note_on_c, 1, 68, 115
2, 19920, Note_on_c, 1, 71, 115
2, 19920, Note_on_c, 1, 75, 115
2, 20010, Note_on_c, 1, 75, 0
2, 20010, Note_on_c, 1, 68, 0
2, 20010, Note_on_c, 1, 83, 0
2, 20010, Note_on_c, 1, 87, 0
2, 20010, Note_on_c, 1, 71, 0
2, 20040, Note_on_c, 1, 75, 115
2, 20040, Note_on_c, 1, 83, 115
2, 20040, Note_on_c, 1, 66, 115
2, 20040, Note_on_c, 1, 71, 115
2, 20130, Note_on_c, 1, 71, 0
2, 20130, Note_on_c, 1, 75, 0
2, 20130, Note_on_c, 1, 83, 0
2, 20130, Note_on_c, 1, 66, 0
2, 20130, Note_on_c, 1, 76, 115
2, 20130, Note_on_c, 1, 85, 115
2, 20130, Note_on_c, 1, 64, 115
2, 20130, Note_on_c, 1, 68, 115
2, 20130, Note_on_c, 1, 73, 115
2, 20160, Note_on_c, 1, 73, 0
2, 20160, Note_on_c, 1, 64, 0
2, 20160, Note_on_c, 1, 76, 0
2, 20160, Note_on_c, 1, 85, 0
2, 20160, Note_on_c, 1, 68, 0
2, 20280, Note_on_c, 1, 80, 115
2, 20280, Note_on_c, 1, 85, 115
2, 20280, Note_on_c, 1, 64, 115
2, 20280, Note_on_c, 1, 68, 115
2, 20280, Note_on_c, 1, 73, 115
2, 20310, Note_on_c, 1, 73, 0
2, 20310, Note_on_c, 1, 64, 0
2, 20310, Note_on_c, 1, 80, 0
2, 20310, Note_on_c, 1, 85, 0
2, 20310, Note_on_c, 1, 68, 0
2, 20340, Note_on_c, 1, 83, 115
2, 20340, Note_on_c, 1, 76, 115
2, 20340, Note_on_c, 1, 71, 115
2, 20340, Note_on_c, 1, 88, 115
2, 20340, Note_on_c, 1, 68, 115
2, 20370, Note_on_c, 1, 68, 0
2, 20370, Note_on_c, 1, 71, 0
2, 20370, Note_on_c, 1, 83, 0
2, 20370, Note_on_c, 1, 76, 0
2, 20370, Note_on_c, 1, 88, 0
2, 20400, Note_on_c, 1, 86, 115
2, 20400, Note_on_c, 1, 90, 115
2, 20400, Note_on_c, 1, 74, 115
2, 20400, Note_on_c, 1, 69, 115
2, 20400, Note_on_c, 1, 78, 115
2, 20490, Note_on_c, 1, 78, 0
2, 20490, Note_on_c, 1, 74, 0
2, 20490, Note_on_c, 1, 86, 0
2, 20490, Note_on_c, 1, 90, 0
2, 20490, Note_on_c, 1, 69, 0
2, 20520, Note_on_c, 1, 88, 115
2, 20520, Note_on_c, 1, 92, 115
2, 20520, Note_on_c, 1, 76, 115
2, 20520, Note_on_c, 1, 80, 115
2, 20520, Note_on_c, 1, 71, 115
2, 20610, Note_on_c, 1, 71, 0
2, 20610, Note_on_c, 1, 76, 0
2, 20610, Note_on_c, 1, 88, 0
2, 20610, Note_on_c, 1, 92, 0
2, 20610, Note_on_c, 1, 80, 0
2, 20610, Note_on_c, 1, 85, 115
2, 20610, Note_on_c, 1, 88, 115
2, 20610, Note_on_c, 1, 73, 115
2, 20610, Note_on_c, 1, 76, 115
2, 20610, Note_on_c, 1, 68, 115
2, 20640, Note_on_c, 1, 68, 0
2, 20640, Note_on_c, 1, 73, 0
2, 20640, Note_on_c, 1, 85, 0
2, 20640, Note_on_c, 1, 88, 0
2, 20640, Note_on_c, 1, 76, 0
2, 20760, Note_on_c, 1, 85, 115
2, 20760, Note_on_c, 1, 88, 115
2, 20760, Note_on_c, 1, 68, 115
2, 20760, Note_on_c, 1, 73, 115
2, 20760, Note_on_c, 1, 76, 115
2, 20790, Note_on_c, 1, 76, 0
2, 20790, Note_on_c, 1, 68, 0
2, 20790, Note_on_c, 1, 85, 0
2, 20790, Note_on_c, 1, 88, 0
2, 20790, Note_on_c, 1, 73, 0
2, 20820, Note_on_c, 1, 85, 115
2, 20820, Note_on_c, 1, 88, 115
2, 20820, Note_on_c, 1, 68, 115
2, 20820, Note_on_c, 1, 73, 115
2, 20820, Note_on_c, 1, 76, 115
2, 20850, Note_on_c, 1, 76, 0
2, 20850, Note_on_c, 1, 68, 0
2, 20850, Note_on_c, 1, 85, 0
2, 20850, Note_on_c, 1, 88, 0
2, 20850, Note_on_c, 1, 73, 0
2, 20880, Note_on_c, 1, 83, 115
2, 20880, Note_on_c, 1, 88, 115
2, 20880, Note_on_c, 1, 76, 115
2, 20880, Note_on_c, 1, 68, 115
2, 20880, Note_on_c, 1, 71, 115
2, 20970, Note_on_c, 1, 71, 0
2, 20970, Note_on_c, 1, 76, 0
2, 20970, Note_on_c, 1, 83, 0
2, 20970, Note_on_c, 1, 88, 0
2, 20970, Note_on_c, 1, 68, 0
2, 21000, Note_on_c, 1, 76, 115
2, 21000, Note_on_c, 1, 83, 115
2, 21000, Note_on_c, 1, 59, 115
2, 21000, Note_on_c, 1, 64, 115
2, 21000, Note_on_c, 1, 71, 115
2, 21090, Note_on_c, 1, 71, 0
2, 21090, Note_on_c, 1, 59, 0
2, 21090, Note_on_c, 1, 76, 0
2, 21090, Note_on_c, 1, 83, 0
2, 21090, Note_on_c, 1, 64, 0
2, 21120, Note_on_c, 1, 90, 115
2, 21120, Note_on_c, 1, 93, 115
2, 21120, Note_on_c, 1, 78, 115
2, 21120, Note_on_c, 1, 73, 115
2, 21120, Note_on_c, 1, 81, 115
2, 21240, Note_on_c, 1, 81, 0
2, 21240, Note_on_c, 1, 78, 0
2, 21240, Note_on_c, 1, 90, 0
2, 21240, Note_on_c, 1, 93, 0
2, 21240, Note_on_c, 1, 73, 0
2, 21240, Note_on_c, 1, 88, 115
2, 21240, Note_on_c, 1, 92, 115
2, 21240, Note_on_c, 1, 71, 115
2, 21240, Note_on_c, 1, 76, 115
2, 21240, Note_on_c, 1, 80, 115
2, 21270, Note_on_c, 1, 80, 0
2, 21270, Note_on_c, 1, 71, 0
2, 21270, Note_on_c, 1, 88, 0
2, 21270, Note_on_c, 1, 92, 0
2, 21270, Note_on_c, 1, 76, 0
2, 21300, Note_on_c, 1, 87, 115
2, 21300, Note_on_c, 1, 90, 115
2, 21300, Note_on_c, 1, 75, 115
2, 21300, Note_on_c, 1, 68, 115
2, 21300, Note_on_c, 1, 78, 115
2, 21330, Note_on_c, 1, 78, 0
2, 21330, Note_on_c, 1, 75, 0
2, 21330, Note_on_c, 1, 87, 0
2, 21330, Note_on_c, 1, 90, 0
2, 21330, Note_on_c, 1, 68, 0
2, 21360, Note_on_c, 1, 83, 115
2, 21360, Note_on_c, 1, 88, 115
2, 21360, Note_on_c, 1, 71, 115
2, 21360, Note_on_c, 1, 66, 115
2, 21360, Note_on_c, 1, 76, 115
2, 21360, Note_on_c, 1, 69, 115
2, 21480, Note_on_c, 1, 69, 0
2, 21480, Note_on_c, 1, 88, 0
2, 21480, Note_on_c, 1, 71, 0
2, 21480, Note_on_c, 1, 83, 0
2, 21480, Note_on_c, 1, 76, 0
2, 21480, Note_on_c, 1, 66, 0
2, 21480, Note_on_c, 1, 87, 115
2, 21480, Note_on_c, 1, 63, 115
2, 21480, Note_on_c, 1, 68, 115
2, 21480, Note_on_c, 1, 75, 115
2, 21570, Note_on_c, 1, 75, 0
2, 21570, Note_on_c, 1, 87, 0
2, 21570, Note_on_c, 1, 63, 0
2, 21570, Note_on_c, 1, 68, 0
2, 21570, Note_on_c, 1, 83, 115
2, 21570, Note_on_c, 1, 88, 115
2, 21570, Note_on_c, 1, 64, 115
2, 21570, Note_on_c, 1, 68, 115
2, 21570, Note_on_c, 1, 76, 115
2, 21600, Note_on_c, 1, 76, 0
2, 21600, Note_on_c, 1, 64, 0
2, 21600, Note_on_c, 1, 83, 0
2, 21600, Note_on_c, 1, 88, 0
2, 21600, Note_on_c, 1, 68, 0
2, 21720, Note_on_c, 1, 85, 115
2, 21720, Note_on_c, 1, 88, 115
2, 21720, Control_c, 1, 64, 20
2, 21720, Note_on_c, 1, 68, 115
2, 21720, Note_on_c, 1, 73, 115
2, 21720, Note_on_c, 1, 76, 115
2, 21750, Note_on_c, 1, 76, 0
2, 21750, Note_on_c, 1, 68, 0
2, 21750, Note_on_c, 1, 85, 0
2, 21750, Note_on_c, 1, 88, 0
2, 21750, Note_on_c, 1, 73, 0
2, 21780, Note_on_c, 1, 85, 115
2, 21780, Note_on_c, 1, 88, 115
2, 21780, Note_on_c, 1, 68, 115
2, 21780, Note_on_c, 1, 73, 115
2, 21780, Note_on_c, 1, 76, 115
2, 21810, Note_on_c, 1, 76, 0
2, 21810, Note_on_c, 1, 68, 0
2, 21810, Note_on_c, 1, 85, 0
2, 21810, Note_on_c, 1, 88, 0
2, 21810, Note_on_c, 1, 73, 0
2, 21840, Note_on_c, 1, 83, 115
2, 21840, Note_on_c, 1, 87, 115
2, 21840, Note_on_c, 1, 68, 115
2, 21840, Note_on_c, 1, 71, 115
2, 21840, Note_on_c, 1, 75, 115
2, 21930, Note_on_c, 1, 75, 0
2, 21930, Note_on_c, 1, 68, 0
2, 21930, Note_on_c, 1, 83, 0
2, 21930, Note_on_c, 1, 87, 0
2, 21930, Note_on_c, 1, 71, 0
2, 21960, Note_on_c, 1, 75, 115
2, 21960, Note_on_c, 1, 83, 115
2, 21960, Note_on_c, 1, 66, 115
2, 21960, Note_on_c, 1, 71, 115
2, 22050, Note_on_c, 1, 71, 0
2, 22050, Note_on_c, 1, 75, 0
2, 22050, Note_on_c, 1, 83, 0
2, 22050, Note_on_c, 1, 66, 0
2, 22050, Note_on_c, 1, 76, 115
2, 22050, Note_on_c, 1, 85, 115
2, 22050, Note_on_c, 1, 64, 115
2, 22050, Note_on_c, 1, 68, 115
2, 22050, Note_on_c, 1, 73, 115
2, 22080, Note_on_c, 1, 73, 0
2, 22080, Note_on_c, 1, 64, 0
2, 22080, Note_on_c, 1, 76, 0
2, 22080, Note_on_c, 1, 85, 0
2, 22080, Note_on_c, 1, 68, 0
2, 22200, Note_on_c, 1, 80, 115
2, 22200, Note_on_c, 1, 85, 115
2, 22200, Note_on_c, 1, 64, 115
2, 22200, Note_on_c, 1, 68, 115
2, 22200, Note_on_c, 1, 73, 115
2, 22230, Note_on_c, 1, 73, 0
2, 22230, Note_on_c, 1, 64, 0
2, 22230, Note_on_c, 1, 80, 0
2, 22230, Note_on_c, 1, 85, 0
2, 22230, Note_on_c, 1, 68, 0
2, 22260, Note_on_c, 1, 83, 115
2, 22260, Note_on_c, 1, 76, 115
2, 22260, Note_on_c, 1, 71, 115
2, 22260, Note_on_c, 1, 88, 115
2, 22260, Note_on_c, 1, 68, 115
2, 22290, Note_on_c, 1, 68, 0
2, 22290, Note_on_c, 1, 71, 0
2, 22290, Note_on_c, 1, 83, 0
2, 22290, Note_on_c, 1, 76, 0
2, 22290, Note_on_c, 1, 88, 0
2, 22320, Note_on_c, 1, 86, 115
2, 22320, Note_on_c, 1, 90, 115
2, 22320, Note_on_c, 1, 74, 115
2, 22320, Note_on_c, 1, 69, 115
2, 22320, Note_on_c, 1, 78, 115
2, 22410, Note_on_c, 1, 78, 0
2, 22410, Note_on_c, 1, 74, 0
2, 22410, Note_on_c, 1, 86, 0
2, 22410, Note_on_c, 1, 90, 0
2, 22410, Note_on_c, 1, 69, 0
2, 22440, Note_on_c, 1, 88, 115
2, 22440, Note_on_c, 1, 92, 115
2, 22440, Note_on_c, 1, 76, 115
2, 22440, Note_on_c, 1, 80, 115
2, 22440, Note_on_c, 1, 71, 115
2, 22530, Note_on_c, 1, 71, 0
2, 22530, Note_on_c, 1, 76, 0
2, 22530, Note_on_c, 1, 88, 0
2, 22530, Note_on_c, 1, 92, 0
2, 22530, Note_on_c, 1, 80, 0
2, 22530, Note_on_c, 1, 85, 115
2, 22530, Note_on_c, 1, 88, 115
2, 22530, Note_on_c, 1, 73, 115
2, 22530, Note_on_c, 1, 76, 115
2, 22530, Note_on_c, 1, 68, 115
2, 22560, Note_on_c, 1, 68, 0
2, 22560, Note_on_c, 1, 73, 0
2, 22560, Note_on_c, 1, 85, 0
2, 22560, Note_on_c, 1, 88, 0
2, 22560, Note_on_c, 1, 76, 0
2, 22680, Note_on_c, 1, 85, 115
2, 22680, Note_on_c, 1, 88, 115
2, 22680, Note_on_c, 1, 68, 115
2, 22680, Note_on_c, 1, 73, 115
2, 22680, Note_on_c, 1, 76, 115
2, 22710, Note_on_c, 1, 76, 0
2, 22710, Note_on_c, 1, 68, 0
2, 22710, Note_on_c, 1, 85, 0
2, 22710, Note_on_c, 1, 88, 0
2, 22710, Note_on_c, 1, 73, 0
2, 22740, Note_on_c, 1, 85, 115
2, 22740, Note_on_c, 1, 88, 115
2, 22740, Note_on_c, 1, 68, 115
2, 22740, Note_on_c, 1, 73, 115
2, 22740, Note_on_c, 1, 76, 115
2, 22770, Note_on_c, 1, 76, 0
2, 22770, Note_on_c, 1, 68, 0
2, 22770, Note_on_c, 1, 85, 0
2, 22770, Note_on_c, 1, 88, 0
2, 22770, Note_on_c, 1, 73, 0
2, 22800, Note_on_c, 1, 83, 115
2, 22800, Note_on_c, 1, 88, 115
2, 22800, Note_on_c, 1, 76, 115
2, 22800, Note_on_c, 1, 68, 115
2, 22800, Note_on_c, 1, 71, 115
2, 22890, Note_on_c, 1, 71, 0
2, 22890, Note_on_c, 1, 76, 0
2, 22890, Note_on_c, 1, 83, 0
2, 22890, Note_on_c, 1, 88, 0
2, 22890, Note_on_c, 1, 68, 0
2, 22920, Note_on_c, 1, 76, 115
2, 22920, Note_on_c, 1, 83, 115
2, 22920, Note_on_c, 1, 59, 115
2, 22920, Note_on_c, 1, 64, 115
2, 22920, Note_on_c, 1, 71, 115
2, 23010, Note_on_c, 1, 71, 0
2, 23010, Note_on_c, 1, 59, 0
2, 23010, Note_on_c, 1, 76, 0
2, 23010, Note_on_c, 1, 83, 0
2, 23010, Note_on_c, 1, 64, 0
2, 23040, Note_on_c, 1, 90, 115
2, 23040, Note_on_c, 1, 93, 115
2, 23040, Note_on_c, 1, 78, 115
2, 23040, Note_on_c, 1, 73, 115
2, 23040, Note_on_c, 1, 81, 115
2, 23160, Note_on_c, 1, 81, 0
2, 23160, Note_on_c, 1, 78, 0
2, 23160, Note_on_c, 1, 90, 0
2, 23160, Note_on_c, 1, 93, 0
2, 23160, Note_on_c, 1, 73, 0
2, 23160, Note_on_c, 1, 88, 115
2, 23160, Note_on_c, 1, 92, 115
2, 23160, Note_on_c, 1, 71, 115
2, 23160, Note_on_c, 1, 76, 115
2, 23160, Note_on_c, 1, 80, 115
2, 23190, Note_on_c, 1, 80, 0
2, 23190, Note_on_c, 1, 71, 0
2, 23190, Note_on_c, 1, 88, 0
2, 23190, Note_on_c, 1, 92, 0
2, 23190, Note_on_c, 1, 76, 0
2, 23220, Note_on_c, 1, 87, 115
2, 23220, Note_on_c, 1, 90, 115
2, 23220, Note_on_c, 1, 75, 115
2, 23220, Note_on_c, 1, 68, 115
2, 23220, Note_on_c, 1, 78, 115
2, 23250, Note_on_c, 1, 78, 0
2, 23250, Note_on_c, 1, 75, 0
2, 23250, Note_on_c, 1, 87, 0
2, 23250, Note_on_c, 1, 90, 0
2, 23250, Note_on_c, 1, 68, 0
2, 23280, Note_on_c, 1, 83, 115
2, 23280, Note_on_c, 1, 88, 115
2, 23280, Note_on_c, 1, 71, 115
2, 23280, Note_on_c, 1, 66, 115
2, 23280, Note_on_c, 1, 76, 115
2, 23280, Note_on_c, 1, 69, 115
2, 23400, Note_on_c, 1, 69, 0
2, 23400, Note_on_c, 1, 88, 0
2, 23400, Note_on_c, 1, 71, 0
2, 23400, Note_on_c, 1, 83, 0
2, 23400, Note_on_c, 1, 76, 0
2, 23400, Note_on_c, 1, 66, 0
2, 23400, Note_on_c, 1, 87, 115
2, 23400, Note_on_c, 1, 63, 115
2, 23400, Note_on_c, 1, 68, 115
2, 23400, Note_on_c, 1, 75, 115
2, 23490, Note_on_c, 1, 75, 0
2, 23490, Note_on_c, 1, 87, 0
2, 23490, Note_on_c, 1, 63, 0
2, 23490, Note_on_c, 1, 68, 0
2, 23520, Control_c, 1, 64, 70
2, 23520, Note_on_c, 1, 80, 115
2, 23520, Note_on_c, 1, 56, 105
2, 23520, Note_on_c, 1, 63, 105
2, 23520, Note_on_c, 1, 60, 105
2, 23520, Note_on_c, 1, 68, 105
2, 23760, Note_on_c, 1, 80, 0
2, 23760, Note_on_c, 1, 80, 115
2, 23850, Note_on_c, 1, 80, 0
2, 23850, Note_on_c, 1, 82, 115
2, 23940, Note_on_c, 1, 82, 0
2, 23940, Note_on_c, 1, 84, 115
2, 24000, Note_on_c, 1, 84, 0
2, 24000, Note_on_c, 1, 68, 0
2, 24000, Note_on_c, 1, 56, 0
2, 24000, Note_on_c, 1, 63, 0
2, 24000, Note_on_c, 1, 60, 0
2, 24000, Note_on_c, 1, 85, 115
2, 24000, Note_on_c, 1, 58, 105
2, 24000, Note_on_c, 1, 61, 105
2, 24000, Note_on_c, 1, 56, 105
2, 24000, Note_on_c, 1, 65, 105
2, 24240, Note_on_c, 1, 85, 0
2, 24240, Note_on_c, 1, 80, 115
2, 24330, Note_on_c, 1, 80, 0
2, 24330, Note_on_c, 1, 78, 115
2, 24420, Note_on_c, 1, 78, 0
2, 24420, Note_on_c, 1, 76, 115
2, 24478, Control_c, 1, 64, 0
2, 24480, Note_on_c, 1, 76, 0
2, 24480, Note_on_c, 1, 65, 0
2, 24480, Note_on_c, 1, 58, 0
2, 24480, Note_on_c, 1, 61, 0
2, 24480, Note_on_c, 1, 56, 0
2, 24480, Control_c, 1, 64, 70
2, 24480, Note_on_c, 1, 57, 105
2, 24480, Note_on_c, 1, 61, 105
2, 24480, Note_on_c, 1, 68, 105
2, 24480, Note_on_c, 1, 64, 105
2, 24480, Note_on_c, 1, 73, 115
2, 24720, Note_on_c, 1, 73, 0
2, 24780, Note_on_c, 1, 73, 115
2, 24840, Note_on_c, 1, 73, 0
2, 24840, Note_on_c, 1, 76, 115
2, 24840, Note_on_c, 1, 63, 105
2, 24840, Note_on_c, 1, 59, 105
2, 24840, Note_on_c, 1, 66, 105
2, 24900, Note_on_c, 1, 76, 0
2, 24900, Note_on_c, 1, 78, 115
2, 24960, Note_on_c, 1, 78, 0
2, 24960, Note_on_c, 1, 64, 0
2, 24960, Note_on_c, 1, 63, 0
2, 24960, Note_on_c, 1, 61, 0
2, 24960, Note_on_c, 1, 68, 0
2, 24960, Note_on_c, 1, 66, 0
2, 24960, Note_on_c, 1, 59, 0
2, 24960, Note_on_c, 1, 57, 0
2, 24960, Note_on_c, 1, 80, 115
2, 24960, Note_on_c, 1, 66, 105
2, 24960, Note_on_c, 1, 59, 105
2, 24960, Note_on_c, 1, 64, 105
2, 25140, Note_on_c, 1, 80, 0
2, 25140, Note_on_c, 1, 78, 115
2, 25170, Note_on_c, 1, 78, 0
2, 25170, Note_on_c, 1, 76, 115
2, 25200, Note_on_c, 1, 76, 0
2, 25200, Note_on_c, 1, 66, 0
2, 25200, Note_on_c, 1, 59, 0
2, 25200, Note_on_c, 1, 64, 0
2, 25200, Note_on_c, 1, 78, 115
2, 25200, Note_on_c, 1, 61, 105
2, 25200, Note_on_c, 1, 68, 105
2, 25200, Note_on_c, 1, 59, 105
2, 25200, Note_on_c, 1, 64, 105
2, 25439, Control_c, 1, 64, 0
2, 25440, Note_on_c, 1, 64, 0
2, 25440, Note_on_c, 1, 68, 0
2, 25440, Note_on_c, 1, 78, 0
2, 25440, Note_on_c, 1, 61, 0
2, 25440, Note_on_c, 1, 59, 0
2, 25440, Control_c, 1, 64, 70
2, 25440, Note_on_c, 1, 80, 115
2, 25440, Note_on_c, 1, 56, 105
2, 25440, Note_on_c, 1, 63, 105
2, 25440, Note_on_c, 1, 60, 105
2, 25440, Note_on_c, 1, 68, 105
2, 25680, Note_on_c, 1, 80, 0
2, 25680, Note_on_c, 1, 80, 115
2, 25770, Note_on_c, 1, 80, 0
2, 25770, Note_on_c, 1, 82, 115
2, 25860, Note_on_c, 1, 82, 0
2, 25860, Note_on_c, 1, 84, 115
2, 25920, Note_on_c, 1, 84, 0
2, 25920, Note_on_c, 1, 68, 0
2, 25920, Note_on_c, 1, 56, 0
2, 25920, Note_on_c, 1, 63, 0
2, 25920, Note_on_c, 1, 60, 0
2, 25920, Note_on_c, 1, 87, 115
2, 25920, Note_on_c, 1, 58, 105
2, 25920, Note_on_c, 1, 61, 105
2, 25920, Note_on_c, 1, 56, 105
2, 25920, Note_on_c, 1, 65, 105
2, 26160, Note_on_c, 1, 87, 0
2, 26160, Note_on_c, 1, 85, 115
2, 26340, Note_on_c, 1, 76, 115
2, 26370, Note_on_c, 1, 76, 0
2, 26370, Note_on_c, 1, 78, 115
2, 26400, Note_on_c, 1, 78, 0
2, 26400, Note_on_c, 1, 85, 0
2, 26400, Note_on_c, 1, 65, 0
2, 26400, Note_on_c, 1, 58, 0
2, 26400, Note_on_c, 1, 61, 0
2, 26400, Note_on_c, 1, 56, 0
2, 26400, Note_on_c, 1, 80, 115
2, 26400, Note_on_c, 1, 57, 105
2, 26400, Note_on_c, 1, 61, 105
2, 26400, Note_on_c, 1, 68, 105
2, 26400, Note_on_c, 1, 64, 105
2, 26640, Note_on_c, 1, 80, 0
2, 26700, Note_on_c, 1, 73, 115
2, 26760, Note_on_c, 1, 73, 0
2, 26760, Note_on_c, 1, 76, 115
2, 26760, Note_on_c, 1, 63, 105
2, 26760, Note_on_c, 1, 59, 105
2, 26760, Note_on_c, 1, 66, 105
2, 26820, Note_on_c, 1, 76, 0
2, 26820, Note_on_c, 1, 78, 115
2, 26880, Note_on_c, 1, 78, 0
2, 26880, Note_on_c, 1, 64, 0
2, 26880, Note_on_c, 1, 63, 0
2, 26880, Note_on_c, 1, 61, 0
2, 26880, Note_on_c, 1, 68, 0
2, 26880, Note_on_c, 1, 66, 0
2, 26880, Note_on_c, 1, 59, 0
2, 26880, Note_on_c, 1, 57, 0
2, 26880, Note_on_c, 1, 80, 115
2, 26880, Note_on_c, 1, 66, 105
2, 26880, Note_on_c, 1, 59, 105
2, 26880, Note_on_c, 1, 64, 105
2, 27060, Note_on_c, 1, 80, 0
2, 27060, Note_on_c, 1, 78, 115
2, 27090, Note_on_c, 1, 78, 0
2, 27090, Note_on_c, 1, 76, 115
2, 27120, Note_on_c, 1, 76, 0
2, 27120, Note_on_c, 1, 66, 0
2, 27120, Note_on_c, 1, 59, 0
2, 27120, Note_on_c, 1, 64, 0
2, 27120, Note_on_c, 1, 78, 115
2, 27120, Note_on_c, 1, 61, 105
2, 27120, Note_on_c, 1, 68, 105
2, 27120, Note_on_c, 1, 59, 105
2, 27120, Note_on_c, 1, 64, 105
2, 27360, Note_on_c, 1, 64, 0
2, 27360, Note_on_c, 1, 68, 0
2, 27360, Note_on_c, 1, 78, 0
2, 27360, Note_on_c, 1, 61, 0
2, 27360, Note_on_c, 1, 59, 0
2, 27360, Note_on_c, 1, 76, 105
2, 27360, Control_c, 1, 64, 30
2, 27360, Note_on_c, 1, 61, 105
2, 27360, Note_on_c, 1, 64, 105
2, 27360, Note_on_c, 1, 59, 105
2, 27360, Note_on_c, 1, 68, 105
2, 27360, Note_on_c, 1, 71, 105
2, 28320, Note_on_c, 1, 71, 0
2, 28320, Note_on_c, 1, 61, 0
2, 28320, Note_on_c, 1, 64, 0
2, 28320, Note_on_c, 1, 76, 0
2, 28320, Note_on_c, 1, 68, 0
2, 28320, Note_on_c, 1, 59, 0
2, 28320, Note_on_c, 1, 71, 105
2, 28320, Note_on_c, 1, 56, 105
2, 28320, Note_on_c, 1, 61, 105
2, 28320, Note_on_c, 1, 64, 105
2, 28320, Note_on_c, 1, 68, 105
2, 28980, Note_on_c, 1, 64, 105
2, 28980, Note_on_c, 1, 71, 105
2, 28980, Note_on_c, 1, 56, 105
2, 28980, Note_on_c, 1, 75, 105
2, 29010, Note_on_c, 1, 75, 0
2, 29010, Note_on_c, 1, 71, 0
2, 29010, Note_on_c, 1, 64, 0
2, 29010, Note_on_c, 1, 56, 0
2, 29100, Note_on_c, 1, 64, 105
2, 29100, Note_on_c, 1, 56, 105
2, 29100, Note_on_c, 1, 71, 105
2, 29100, Note_on_c, 1, 75, 105
2, 29130, Note_on_c, 1, 75, 0
2, 29130, Note_on_c, 1, 64, 0
2, 29130, Note_on_c, 1, 56, 0
2, 29130, Note_on_c, 1, 71, 0
2, 29190, Note_on_c, 1, 56, 105
2, 29190, Note_on_c, 1, 64, 105
2, 29190, Note_on_c, 1, 71, 105
2, 29190, Note_on_c, 1, 75, 105
2, 29280, Note_on_c, 1, 75, 0
2, 29280, Note_on_c, 1, 61, 0
2, 29280, Note_on_c, 1, 71, 0
2, 29280, Note_on_c, 1, 64, 0
2, 29280, Note_on_c, 1, 56, 0
2, 29280, Note_on_c, 1, 68, 0
2, 29280, Note_on_c, 1, 64, 0
2, 29280, Note_on_c, 1, 56, 0
2, 29280, Note_on_c, 1, 71, 0
2, 29280, Note_on_c, 1, 64, 105
2, 29280, Note_on_c, 1, 71, 105
2, 29280, Note_on_c, 1, 73, 105
2, 29280, Note_on_c, 1, 59, 105
2, 29280, Note_on_c, 1, 68, 105
2, 30240, Note_on_c, 1, 68, 0
2, 30240, Note_on_c, 1, 73, 0
2, 30240, Note_on_c, 1, 64, 0
2, 30240, Note_on_c, 1, 71, 0
2, 30240, Note_on_c, 1, 59, 0
2, 30300, Note_on_c, 1, 80, 105
2, 30300, Note_on_c, 1, 71, 105
2, 30300, Note_on_c, 1, 64, 105
2, 30300, Note_on_c, 1, 87, 105
2, 30300, Note_on_c, 1, 75, 105
2, 30330, Note_on_c, 1, 75, 0
2, 30330, Note_on_c, 1, 64, 0
2, 30330, Note_on_c, 1, 80, 0
2, 30330, Note_on_c, 1, 71, 0
2, 30330, Note_on_c, 1, 87, 0
2, 30390, Note_on_c, 1, 78, 105
2, 30390, Note_on_c, 1, 68, 105
2, 30390, Note_on_c, 1, 73, 105
2, 30390, Note_on_c, 1, 64, 105
2, 30390, Note_on_c, 1, 85, 105
2, 30420, Note_on_c, 1, 85, 0
2, 30420, Note_on_c, 1, 73, 0
2, 30420, Note_on_c, 1, 78, 0
2, 30420, Note_on_c, 1, 68, 0
2, 30420, Note_on_c, 1, 64, 0
2, 30480, Note_on_c, 1, 76, 105
2, 30480, Note_on_c, 1, 71, 105
2, 30480, Note_on_c, 1, 64, 105
2, 30480, Note_on_c, 1, 59, 105
2, 30480, Note_on_c, 1, 68, 105
2, 30480, Note_on_c, 1, 85, 105
2, 31200, Note_on_c, 1, 85, 0
2, 31200, Note_on_c, 1, 71, 0
2, 31200, Note_on_c, 1, 64, 0
2, 31200, Note_on_c, 1, 76, 0
2, 31200, Note_on_c, 1, 68, 0
2, 31200, Note_on_c, 1, 59, 0
2, 31200, Note_on_c, 1, 71, 105
2, 31200, Note_on_c, 1, 73, 105
2, 31200, Note_on_c, 1, 68, 105
2, 31200, Note_on_c, 1, 59, 105
2, 31200, Note_on_c, 1, 64, 105
2, 31500, Note_on_c, 1, 71, 105
2, 31500, Note_on_c, 1, 68, 105
2, 31500, Note_on_c, 1, 76, 105
2, 31500, Note_on_c, 1, 57, 105
2, 31500, Note_on_c, 1, 64, 105
2, 31530, Note_on_c, 1, 57, 0
2, 31530, Note_on_c, 1, 76, 0
2, 31530, Note_on_c, 1, 64, 0
2, 31530, Note_on_c, 1, 68, 0
2, 31530, Note_on_c, 1, 71, 0
2, 31590, Note_on_c, 1, 71, 105
2, 31590, Note_on_c, 1, 64, 105
2, 31590, Note_on_c, 1, 68, 105
2, 31590, Note_on_c, 1, 73, 105
2, 31680, Note_on_c, 1, 73, 0
2, 31680, Note_on_c, 1, 73, 0
2, 31680, Note_on_c, 1, 59, 0
2, 31680, Note_on_c, 1, 71, 0
2, 31680, Note_on_c, 1, 68, 0
2, 31680, Note_on_c, 1, 64, 0
2, 31680, Note_on_c, 1, 64, 0
2, 31680, Note_on_c, 1, 71, 0
2, 31680, Note_on_c, 1, 68, 0
2, 31680, Note_on_c, 1, 68, 105
2, 31680, Note_on_c, 1, 59, 105
2, 31680, Note_on_c, 1, 66, 105
2, 31680, Note_on_c, 1, 64, 105
2, 32160, Note_on_c, 1, 64, 0
2, 32160, Note_on_c, 1, 68, 0
2, 32160, Note_on_c, 1, 59, 0
2, 32160, Note_on_c, 1, 66, 0
2, 32160, Note_on_c, 1, 61, 105
2, 32160, Note_on_c, 1, 64, 105
2, 32160, Note_on_c, 1, 68, 105
2, 32160, Note_on_c, 1, 59, 105
2, 32640, Note_on_c, 1, 59, 0
2, 32640, Note_on_c, 1, 61, 0
2, 32640, Note_on_c, 1, 64, 0
2, 32640, Note_on_c, 1, 68, 0
2, 32640, Note_on_c, 1, 57, 105
2, 32640, Note_on_c, 1, 54, 105
2, 32640, Note_on_c, 1, 61, 105
2, 32640, Note_on_c, 1, 64, 105
2, 32880, Note_on_c, 1, 64, 0
2, 32880, Note_on_c, 1, 57, 0
2, 32880, Note_on_c, 1, 54, 0
2, 32880, Note_on_c, 1, 61, 0
2, 32880, Note_on_c, 1, 68, 105
2, 32880, Note_on_c, 1, 56, 105
2, 32880, Note_on_c, 1, 60, 105
2, 32880, Note_on_c, 1, 64, 105
2, 33120, Note_on_c, 1, 64, 0
2, 33120, Note_on_c, 1, 68, 0
2, 33120, Note_on_c, 1, 56, 0
2, 33120, Note_on_c, 1, 60, 0
2, 33240, Note_on_c, 1, 85, 115
2, 33240, Note_on_c, 1, 88, 115
2, 33240, Control_c, 1, 64, 20
2, 33240, Note_on_c, 1, 68, 115
2, 33240, Note_on_c, 1, 73, 115
2, 33240, Note_on_c, 1, 76, 115
2, 33270, Note_on_c, 1, 76, 0
2, 33270, Note_on_c, 1, 68, 0
2, 33270, Note_on_c, 1, 85, 0
2, 33270, Note_on_c, 1, 88, 0
2, 33270, Note_on_c, 1, 73, 0
2, 33300, Note_on_c, 1, 85, 115
2, 33300, Note_on_c, 1, 88, 115
2, 33300, Note_on_c, 1, 68, 115
2, 33300, Note_on_c, 1, 73, 115
2, 33300, Note_on_c, 1, 76, 115
2, 33330, Note_on_c, 1, 76, 0
2, 33330, Note_on_c, 1, 68, 0
2, 33330, Note_on_c, 1, 85, 0
2, 33330, Note_on_c, 1, 88, 0
2, 33330, Note_on_c, 1, 73, 0
2, 33360, Note_on_c, 1, 83, 115
2, 33360, Note_on_c, 1, 87, 115
2, 33360, Note_on_c, 1, 68, 115
2, 33360, Note_on_c, 1, 71, 115
2, 33360, Note_on_c, 1, 75, 115
2, 33450, Note_on_c, 1, 75, 0
2, 33450, Note_on_c, 1, 68, 0
2, 33450, Note_on_c, 1, 83, 0
2, 33450, Note_on_c, 1, 87, 0
2, 33450, Note_on_c, 1, 71, 0
2, 33480, Note_on_c, 1, 75, 115
2, 33480, Note_on_c, 1, 83, 115
2, 33480, Note_on_c, 1, 66, 115
2, 33480, Note_on_c, 1, 71, 115
2, 33570, Note_on_c, 1, 71, 0
2, 33570, Note_on_c, 1, 75, 0
2, 33570, Note_on_c, 1, 83, 0
2, 33570, Note_on_c, 1, 66, 0
2, 33570, Note_on_c, 1, 76, 115
2, 33570, Note_on_c, 1, 85, 115
2, 33570, Note_on_c, 1, 64, 115
2, 33570, Note_on_c, 1, 68, 115
2, 33570, Note_on_c, 1, 73, 115
2, 33600, Note_on_c, 1, 73, 0
2, 33600, Note_on_c, 1, 64, 0
2, 33600, Note_on_c, 1, 76, 0
2, 33600, Note_on_c, 1, 85, 0
2, 33600, Note_on_c, 1, 68, 0
2, 33720, Note_on_c, 1, 80, 115
2, 33720, Note_on_c, 1, 85, 115
2, 33720, Note_on_c, 1, 64, 115
2, 33720, Note_on_c, 1, 68, 115
2, 33720, Note_on_c, 1, 73, 115
2, 33750, Note_on_c, 1, 73, 0
2, 33750, Note_on_c, 1, 64, 0
2, 33750, Note_on_c, 1, 80, 0
2, 33750, Note_on_c, 1, 85, 0
2, 33750, Note_on_c, 1, 68, 0
2, 33780, Note_on_c, 1, 83, 115
2, 33780, Note_on_c, 1, 76, 115
2, 33780, Note_on_c, 1, 71, 115
2, 33780, Note_on_c, 1, 88, 115
2, 33780, Note_on_c, 1, 68, 115
2, 33810, Note_on_c, 1, 68, 0
2, 33810, Note_on_c, 1, 71, 0
2, 33810, Note_on_c, 1, 83, 0
2, 33810, Note_on_c, 1, 76, 0
2, 33810, Note_on_c, 1, 88, 0
2, 33840, Note_on_c, 1, 86, 115
2, 33840, Note_on_c, 1, 90, 115
2, 33840, Note_on_c, 1, 74, 115
2, 33840, Note_on_c, 1, 69, 115
2, 33840, Note_on_c, 1, 78, 115
2, 33930, Note_on_c, 1, 78, 0
2, 33930, Note_on_c, 1, 74, 0
2, 33930, Note_on_c, 1, 86, 0
2, 33930, Note_on_c, 1, 90, 0
2, 33930, Note_on_c, 1, 69, 0
2, 33960, Note_on_c, 1, 88, 115
2, 33960, Note_on_c, 1, 92, 115
2, 33960, Note_on_c, 1, 76, 115
2, 33960, Note_on_c, 1, 80, 115
2, 33960, Note_on_c, 1, 71, 115
2, 34050, Note_on_c, 1, 71, 0
2, 34050, Note_on_c, 1, 76, 0
2, 34050, Note_on_c, 1, 88, 0
2, 34050, Note_on_c, 1, 92, 0
2, 34050, Note_on_c, 1, 80, 0
2, 34050, Note_on_c, 1, 85, 115
2, 34050, Note_on_c, 1, 88, 115
2, 34050, Note_on_c, 1, 73, 115
2, 34050, Note_on_c, 1, 76, 115
2, 34050, Note_on_c, 1, 68, 115
2, 34080, Note_on_c, 1, 68, 0
2, 34080, Note_on_c, 1, 73, 0
2, 34080, Note_on_c, 1, 85, 0
2, 34080, Note_on_c, 1, 88, 0
2, 34080, Note_on_c, 1, 76, 0
2, 34200, Note_on_c, 1, 85, 115
2, 34200, Note_on_c, 1, 88, 115
2, 34200, Note_on_c, 1, 68, 115
2, 34200, Note_on_c, 1, 73, 115
2, 34200, Note_on_c, 1, 76, 115
2, 34230, Note_on_c, 1, 76, 0
2, 34230, Note_on_c, 1, 68, 0
2, 34230, Note_on_c, 1, 85, 0
2, 34230, Note_on_c, 1, 88, 0
2, 34230, Note_on_c, 1, 73, 0
2, 34260, Note_on_c, 1, 85, 115
2, 34260, Note_on_c, 1, 88, 115
2, 34260, Note_on_c, 1, 68, 115
2, 34260, Note_on_c, 1, 73, 115
2, 34260, Note_on_c, 1, 76, 115
2, 34290, Note_on_c, 1, 76, 0
2, 34290, Note_on_c, 1, 68, 0
2, 34290, Note_on_c, 1, 85, 0
2, 34290, Note_on_c, 1, 88, 0
2, 34290, Note_on_c, 1, 73, 0
2, 34320, Note_on_c, 1, 83, 115
2, 34320, Note_on_c, 1, 88, 115
2, 34320, Note_on_c, 1, 76, 115
2, 34320, Note_on_c, 1, 68, 115
2, 34320, Note_on_c, 1, 71, 115
2, 34410, Note_on_c, 1, 71, 0
2, 34410, Note_on_c, 1, 76, 0
2, 34410, Note_on_c, 1, 83, 0
2, 34410, Note_on_c, 1, 88, 0
2, 34410, Note_on_c, 1, 68, 0
2, 34440, Note_on_c, 1, 76, 115
2, 34440, Note_on_c, 1, 83, 115
2, 34440, Note_on_c, 1, 59, 115
2, 34440, Note_on_c, 1, 64, 115
2, 34440, Note_on_c, 1, 71, 115
2, 34530, Note_on_c, 1, 71, 0
2, 34530, Note_on_c, 1, 59, 0
2, 34530, Note_on_c, 1, 76, 0
2, 34530, Note_on_c, 1, 83, 0
2, 34530, Note_on_c, 1, 64, 0
2, 34560, Note_on_c, 1, 90, 115
2, 34560, Note_on_c, 1, 93, 115
2, 34560, Note_on_c, 1, 78, 115
2, 34560, Note_on_c, 1, 73, 115
2, 34560, Note_on_c, 1, 81, 115
2, 34680, Note_on_c, 1, 81, 0
2, 34680, Note_on_c, 1, 78, 0
2, 34680, Note_on_c, 1, 90, 0
2, 34680, Note_on_c, 1, 93, 0
2, 34680, Note_on_c, 1, 73, 0
2, 34680, Note_on_c, 1, 88, 115
2, 34680, Note_on_c, 1, 92, 115
2, 34680, Note_on_c, 1, 71, 115
2, 34680, Note_on_c, 1, 76, 115
2, 34680, Note_on_c, 1, 80, 115
2, 34710, Note_on_c, 1, 80, 0
2, 34710, Note_on_c, 1, 71, 0
2, 34710, Note_on_c, 1, 88, 0
2, 34710, Note_on_c, 1, 92, 0
2, 34710, Note_on_c, 1, 76, 0
2, 34740, Note_on_c, 1, 87, 115
2, 34740, Note_on_c, 1, 90, 115
2, 34740, Note_on_c, 1, 75, 115
2, 34740, Note_on_c, 1, 68, 115
2, 34740, Note_on_c, 1, 78, 115
2, 34770, Note_on_c, 1, 78, 0
2, 34770, Note_on_c, 1, 75, 0
2, 34770, Note_on_c, 1, 87, 0
2, 34770, Note_on_c, 1, 90, 0
2, 34770, Note_on_c, 1, 68, 0
2, 34800, Note_on_c, 1, 83, 115
2, 34800, Note_on_c, 1, 88, 115
2, 34800, Note_on_c, 1, 71, 115
2, 34800, Note_on_c, 1, 66, 115
2, 34800, Note_on_c, 1, 76, 115
2, 34800, Note_on_c, 1, 69, 115
2, 34920, Note_on_c, 1, 69, 0
2, 34920, Note_on_c, 1, 88, 0
2, 34920, Note_on_c, 1, 71, 0
2, 34920, Note_on_c, 1, 83, 0
2, 34920, Note_on_c, 1, 76, 0
2, 34920, Note_on_c, 1, 66, 0
2, 34920, Note_on_c, 1, 87, 115
2, 34920, Note_on_c, 1, 63, 115
2, 34920, Note_on_c, 1, 68, 115
2, 34920, Note_on_c, 1, 75, 115
2, 35010, Note_on_c, 1, 75, 0
2, 35010, Note_on_c, 1, 87, 0
2, 35010, Note_on_c, 1, 63, 0
2, 35010, Note_on_c, 1, 68, 0
2, 35010, Note_on_c, 1, 83, 115
2, 35010, Note_on_c, 1, 88, 115
2, 35010, Note_on_c, 1, 64, 115
2, 35010, Note_on_c, 1, 68, 115
2, 35010, Note_on_c, 1, 76, 115
2, 35040, Note_on_c, 1, 76, 0
2, 35040, Note_on_c, 1, 64, 0
2, 35040, Note_on_c, 1, 83, 0
2, 35040, Note_on_c, 1, 88, 0
2, 35040, Note_on_c, 1, 68, 0
2, 35160, Note_on_c, 1, 85, 115
2, 35160, Note_on_c, 1, 88, 115
2, 35160, Control_c, 1, 64, 20
2, 35160, Note_on_c, 1, 68, 115
2, 35160, Note_on_c, 1, 73, 115
2, 35160, Note_on_c, 1, 76, 115
2, 35190, Note_on_c, 1, 76, 0
2, 35190, Note_on_c, 1, 68, 0
2, 35190, Note_on_c, 1, 85, 0
2, 35190, Note_on_c, 1, 88, 0
2, 35190, Note_on_c, 1, 73, 0
2, 35220, Note_on_c, 1, 85, 115
2, 35220, Note_on_c, 1, 88, 115
2, 35220, Note_on_c, 1, 68, 115
2, 35220, Note_on_c, 1, 73, 115
2, 35220, Note_on_c, 1, 76, 115
2, 35250, Note_on_c, 1, 76, 0
2, 35250, Note_on_c, 1, 68, 0
2, 35250, Note_on_c, 1, 85, 0
2, 35250, Note_on_c, 1, 88, 0
2, 35250, Note_on_c, 1, 73, 0
2, 35280, Note_on_c, 1, 83, 115
2, 35280, Note_on_c, 1, 87, 115
2, 35280, Note_on_c, 1, 68, 115
2, 35280, Note_on_c, 1, 71, 115
2, 35280, Note_on_c, 1, 75, 115
2, 35370, Note_on_c, 1, 75, 0
2, 35370, Note_on_c, 1, 68, 0
2, 35370, Note_on_c, 1, 83, 0
2, 35370, Note_on_c, 1, 87, 0
2, 35370, Note_on_c, 1, 71, 0
2, 35400, Note_on_c, 1, 75, 115
2, 35400, Note_on_c, 1, 83, 115
2, 35400, Note_on_c, 1, 66, 115
2, 35400, Note_on_c, 1, 71, 115
2, 35490, Note_on_c, 1, 71, 0
2, 35490, Note_on_c, 1, 75, 0
2, 35490, Note_on_c, 1, 83, 0
2, 35490, Note_on_c, 1, 66, 0
2, 35490, Note_on_c, 1, 76, 115
2, 35490, Note_on_c, 1, 85, 115
2, 35490, Note_on_c, 1, 64, 115
2, 35490, Note_on_c, 1, 68, 115
2, 35490, Note_on_c, 1, 73, 115
2, 35520, Note_on_c, 1, 73, 0
2, 35520, Note_on_c, 1, 64, 0
2, 35520, Note_on_c, 1, 76, 0
2, 35520, Note_on_c, 1, 85, 0
2, 35520, Note_on_c, 1, 68, 0
2, 35640, Note_on_c, 1, 80, 115
2, 35640, Note_on_c, 1, 85, 115
2, 35640, Note_on_c, 1, 64, 115
2, 35640, Note_on_c, 1, 68, 115
2, 35640, Note_on_c, 1, 73, 115
2, 35670, Note_on_c, 1, 73, 0
2, 35670, Note_on_c, 1, 64, 0
2, 35670, Note_on_c, 1, 80, 0
2, 35670, Note_on_c, 1, 85, 0
2, 35670, Note_on_c, 1, 68, 0
2, 35700, Note_on_c, 1, 83, 115
2, 35700, Note_on_c, 1, 76, 115
2, 35700, Note_on_c, 1, 71, 115
2, 35700, Note_on_c, 1, 88, 115
2, 35700, Note_on_c, 1, 68, 115
2, 35730, Note_on_c, 1, 68, 0
2, 35730, Note_on_c, 1, 71, 0
2, 35730, Note_on_c, 1, 83, 0
2, 35730, Note_on_c, 1, 76, 0
2, 35730, Note_on_c, 1, 88, 0
2, 35760, Note_on_c, 1, 86, 115
2, 35760, Note_on_c, 1, 90, 115
2, 35760, Note_on_c, 1, 74, 115
2, 35760, Note_on_c, 1, 69, 115
2, 35760, Note_on_c, 1, 78, 115
2, 35850, Note_on_c, 1, 78, 0
2, 35850, Note_on_c, 1, 74, 0
2, 35850, Note_on_c, 1, 86, 0
2, 35850, Note_on_c, 1, 90, 0
2, 35850, Note_on_c, 1, 69, 0
2, 35880, Note_on_c, 1, 88, 115
2, 35880, Note_on_c, 1, 92, 115
2, 35880, Note_on_c, 1, 76, 115
2, 35880, Note_on_c, 1, 80, 115
2, 35880, Note_on_c, 1, 71, 115
2, 35970, Note_on_c, 1, 71, 0
2, 35970, Note_on_c, 1, 76, 0
2, 35970, Note_on_c, 1, 88, 0
2, 35970, Note_on_c, 1, 92, 0
2, 35970, Note_on_c, 1, 80, 0
2, 35970, Note_on_c, 1, 85, 115
2, 35970, Note_on_c, 1, 88, 115
2, 35970, Note_on_c, 1, 73, 115
2, 35970, Note_on_c, 1, 76, 115
2, 35970, Note_on_c, 1, 68, 115
2, 36000, Note_on_c, 1, 68, 0
2, 36000, Note_on_c, 1, 73, 0
2, 36000, Note_on_c, 1, 85, 0
2, 36000, Note_on_c, 1, 88, 0
2, 36000, Note_on_c, 1, 76, 0
2, 36120, Note_on_c, 1, 85, 115
2, 36120, Note_on_c, 1, 88, 115
2, 36120, Note_on_c, 1, 68, 115
2, 36120, Note_on_c, 1, 73, 115
2, 36120, Note_on_c, 1, 76, 115
2, 36150, Note_on_c, 1, 76, 0
2, 36150, Note_on_c, 1, 68, 0
2, 36150, Note_on_c, 1, 85, 0
2, 36150, Note_on_c, 1, 88, 0
2, 36150, Note_on_c, 1, 73, 0
2, 36180, Note_on_c, 1, 85, 115
2, 36180, Note_on_c, 1, 88, 115
2, 36180, Note_on_c, 1, 68, 115
2, 36180, Note_on_c, 1, 73, 115
2, 36180, Note_on_c, 1, 76, 115
2, 36210, Note_on_c, 1, 76, 0
2, 36210, Note_on_c, 1, 68, 0
2, 36210, Note_on_c, 1, 85, 0
2, 36210, Note_on_c, 1, 88, 0
2, 36210, Note_on_c, 1, 73, 0
2, 36240, Note_on_c, 1, 83, 115
2, 36240, Note_on_c, 1, 88, 115
2, 36240, Note_on_c, 1, 76, 115
2, 36240, Note_on_c, 1, 68, 115
2, 36240, Note_on_c, 1, 71, 115
2, 36330, Note_on_c, 1, 71, 0
2, 36330, Note_on_c, 1, 76, 0
2, 36330, Note_on_c, 1, 83, 0
2, 36330, Note_on_c, 1, 88, 0
2, 36330, Note_on_c, 1, 68, 0
2, 36360, Note_on_c, 1, 76, 115
2, 36360, Note_on_c, 1, 83, 115
2, 36360, Note_on_c, 1, 59, 115
2, 36360, Note_on_c, 1, 64, 115
2, 36360, Note_on_c, 1, 71, 115
2, 36450, Note_on_c, 1, 71, 0
2, 36450, Note_on_c, 1, 59, 0
2, 36450, Note_on_c, 1, 76, 0
2, 36450, Note_on_c, 1, 83, 0
2, 36450, Note_on_c, 1, 64, 0
2, 36480, Note_on_c, 1, 90, 115
2, 36480, Note_on_c, 1, 93, 115
2, 36480, Note_on_c, 1, 78, 115
2, 36480, Note_on_c, 1, 73, 115
2, 36480, Note_on_c, 1, 81, 115
2, 36600, Note_on_c, 1, 81, 0
2, 36600, Note_on_c, 1, 78, 0
2, 36600, Note_on_c, 1, 90, 0
2, 36600, Note_on_c, 1, 93, 0
2, 36600, Note_on_c, 1, 73, 0
2, 36600, Note_on_c, 1, 88, 115
2, 36600, Note_on_c, 1, 92, 115
2, 36600, Note_on_c, 1, 71, 115
2, 36600, Note_on_c, 1, 76, 115
2, 36600, Note_on_c, 1, 80, 115
2, 36630, Note_on_c, 1, 80, 0
2, 36630, Note_on_c, 1, 71, 0
2, 36630, Note_on_c, 1, 88, 0
2, 36630, Note_on_c, 1, 92, 0
2, 36630, Note_on_c, 1, 76, 0
2, 36660, Note_on_c, 1, 87, 115
2, 36660, Note_on_c, 1, 90, 115
2, 36660, Note_on_c, 1, 75, 115
2, 36660, Note_on_c, 1, 68, 115
2, 36660, Note_on_c, 1, 78, 115
2, 36690, Note_on_c, 1, 78, 0
2, 36690, Note_on_c, 1, 75, 0
2, 36690, Note_on_c, 1, 87, 0
2, 36690, Note_on_c, 1, 90, 0
2, 36690, Note_on_c, 1, 68, 0
2, 36720, Note_on_c, 1, 83, 115
2, 36720, Note_on_c, 1, 88, 115
2, 36720, Note_on_c, 1, 71, 115
2, 36720, Note_on_c, 1, 66, 115
2, 36720, Note_on_c, 1, 76, 115
2, 36720, Note_on_c, 1, 69, 115
2, 36840, Note_on_c, 1, 69, 0
2, 36840, Note_on_c, 1, 88, 0
2, 36840, Note_on_c, 1, 71, 0
2, 36840, Note_on_c, 1, 83, 0
2, 36840, Note_on_c, 1, 76, 0
2, 36840, Note_on_c, 1, 66, 0
2, 36840, Note_on_c, 1, 87, 115
2, 36840, Note_on_c, 1, 63, 115
2, 36840, Note_on_c, 1, 68, 115
2, 36840, Note_on_c, 1, 75, 115
2, 36930, Note_on_c, 1, 75, 0
2, 36930, Note_on_c, 1, 87, 0
2, 36930, Note_on_c, 1, 63, 0
2, 36930, Note_on_c, 1, 68, 0
2, 36960, Control_c, 1, 64, 70
2, 36960, Note_on_c, 1, 80, 115
2, 36960, Note_on_c, 1, 56, 105
2, 36960, Note_on_c, 1, 63, 105
2, 36960, Note_on_c, 1, 60, 105
2, 36960, Note_on_c, 1, 68, 105
2, 37200, Note_on_c, 1, 80, 0
2, 37200, Note_on_c, 1, 80, 115
2, 37290, Note_on_c, 1, 80, 0
2, 37290, Note_on_c, 1, 82, 115
2, 37380, Note_on_c, 1, 82, 0
2, 37380, Note_on_c, 1, 84, 115
2, 37440, Note_on_c, 1, 84, 0
2, 37440, Note_on_c, 1, 68, 0
2, 37440, Note_on_c, 1, 56, 0
2, 37440, Note_on_c, 1, 63, 0
2, 37440, Note_on_c, 1, 60, 0
2, 37440, Note_on_c, 1, 85, 115
2, 37440, Note_on_c, 1, 58, 105
2, 37440, Note_on_c, 1, 61, 105
2, 37440, Note_on_c, 1, 56, 105
2, 37440, Note_on_c, 1, 65, 105
2, 37680, Note_on_c, 1, 85, 0
2, 37680, Note_on_c, 1, 80, 115
2, 37770, Note_on_c, 1, 80, 0
2, 37770, Note_on_c, 1, 78, 115
2, 37860, Note_on_c, 1, 78, 0
2, 37860, Note_on_c, 1, 76, 115
2, 37920, Note_on_c, 1, 76, 0
2, 37920, Note_on_c, 1, 65, 0
2, 37920, Note_on_c, 1, 58, 0
2, 37920, Note_on_c, 1, 61, 0
2, 37920, Note_on_c, 1, 56, 0
2, 37920, Note_on_c, 1, 57, 105
2, 37920, Note_on_c, 1, 61, 105
2, 37920, Note_on_c, 1, 68, 105
2, 37920, Note_on_c, 1, 64, 105
2, 37920, Note_on_c, 1, 73, 115
2, 38160, Note_on_c, 1, 73, 0
2, 38220, Note_on_c, 1, 73, 115
2, 38280, Note_on_c, 1, 73, 0
2, 38280, Note_on_c, 1, 76, 115
2, 38280, Note_on_c, 1, 63, 105
2, 38280, Note_on_c, 1, 59, 105
2, 38280, Note_on_c, 1, 66, 105
2, 38340, Note_on_c, 1, 76, 0
2, 38340, Note_on_c, 1, 78, 115
2, 38400, Note_on_c, 1, 78, 0
2, 38400, Note_on_c, 1, 64, 0
2, 38400, Note_on_c, 1, 63, 0
2, 38400, Note_on_c, 1, 61, 0
2, 38400, Note_on_c, 1, 68, 0
2, 38400, Note_on_c, 1, 66, 0
2, 38400, Note_on_c, 1, 59, 0
2, 38400, Note_on_c, 1, 57, 0
2, 38400, Note_on_c, 1, 80, 115
2, 38400, Note_on_c, 1, 66, 105
2, 38400, Note_on_c, 1, 59, 105
2, 38400, Note_on_c, 1, 64, 105
2, 38580, Note_on_c, 1, 80, 0
2, 38580, Note_on_c, 1, 78, 115
2, 38610, Note_on_c, 1, 78, 0
2, 38610, Note_on_c, 1, 76, 115
2, 38640, Note_on_c, 1, 76, 0
2, 38640, Note_on_c, 1, 66, 0
2, 38640, Note_on_c, 1, 59, 0
2, 38640, Note_on_c, 1, 64, 0
2, 38640, Note_on_c, 1, 78, 115
2, 38640, Note_on_c, 1, 61, 105
2, 38640, Note_on_c, 1, 68, 105
2, 38640, Note_on_c, 1, 59, 105
2, 38640, Note_on_c, 1, 64, 105
2, 38770, Control_c, 1, 64, 20
2, 38880, Note_on_c, 1, 64, 0
2, 38880, Note_on_c, 1, 68, 0
2, 38880, Note_on_c, 1, 78, 0
2, 38880, Note_on_c, 1, 61, 0
2, 38880, Note_on_c, 1, 59, 0
2, 38880, Control_c, 1, 64, 70
2, 38880, Note_on_c, 1, 80, 115
2, 38880, Note_on_c, 1, 56, 105
2, 38880, Note_on_c, 1, 63, 105
2, 38880, Note_on_c, 1, 60, 105
2, 38880, Note_on_c, 1, 68, 105
2, 39120, Note_on_c, 1, 80, 0
2, 39120, Note_on_c, 1, 80, 115
2, 39210, Note_on_c, 1, 80, 0
2, 39210, Note_on_c, 1, 82, 115
2, 39300, Note_on_c, 1, 82, 0
2, 39300, Note_on_c, 1, 84, 115
2, 39360, Note_on_c, 1, 84, 0
2, 39360, Note_on_c, 1, 68, 0
2, 39360, Note_on_c, 1, 56, 0
2, 39360, Note_on_c, 1, 63, 0
2, 39360, Note_on_c, 1, 60, 0
2, 39360, Note_on_c, 1, 87, 115
2, 39360, Note_on_c, 1, 58, 105
2, 39360, Note_on_c, 1, 61, 105
2, 39360, Note_on_c, 1, 56, 105
2, 39360, Note_on_c, 1, 65, 105
2, 39600, Note_on_c, 1, 87, 0
2, 39600, Note_on_c, 1, 85, 115
2, 39780, Note_on_c, 1, 76, 115
2, 39810, Note_on_c, 1, 76, 0
2, 39810, Note_on_c, 1, 78, 115
2, 39840, Note_on_c, 1, 78, 0
2, 39840, Note_on_c, 1, 85, 0
2, 39840, Note_on_c, 1, 65, 0
2, 39840, Note_on_c, 1, 58, 0
2, 39840, Note_on_c, 1, 61, 0
2, 39840, Note_on_c, 1, 56, 0
2, 39840, Note_on_c, 1, 80, 115
2, 39840, Note_on_c, 1, 57, 105
2, 39840, Note_on_c, 1, 61, 105
2, 39840, Note_on_c, 1, 68, 105
2, 39840, Note_on_c, 1, 64, 105
2, 40080, Note_on_c, 1, 80, 0
2, 40140, Note_on_c, 1, 73, 115
2, 40200, Note_on_c, 1, 73, 0
2, 40200, Note_on_c, 1, 76, 115
2, 40200, Note_on_c, 1, 63, 105
2, 40200, Note_on_c, 1, 59, 105
2, 40200, Note_on_c, 1, 66, 105
2, 40260, Note_on_c, 1, 76, 0
2, 40260, Note_on_c, 1, 78, 115
2, 40320, Note_on_c, 1, 78, 0
2, 40320, Note_on_c, 1, 64, 0
2, 40320, Note_on_c, 1, 63, 0
2, 40320, Note_on_c, 1, 61, 0
2, 40320, Note_on_c, 1, 68, 0
2, 40320, Note_on_c, 1, 66, 0
2, 40320, Note_on_c, 1, 59, 0
2, 40320, Note_on_c, 1, 57, 0
2, 40320, Note_on_c, 1, 80, 115
2, 40320, Note_on_c, 1, 66, 105
2, 40320, Note_on_c, 1, 59, 105
2, 40320, Note_on_c, 1, 64, 105
2, 40500, Note_on_c, 1, 80, 0
2, 40500, Note_on_c, 1, 78, 115
2, 40530, Note_on_c, 1, 78, 0
2, 40530, Note_on_c, 1, 76, 115
2, 40560, Note_on_c, 1, 76, 0
2, 40560, Note_on_c, 1, 66, 0
2, 40560, Note_on_c, 1, 59, 0
2, 40560, Note_on_c, 1, 64, 0
2, 40560, Note_on_c, 1, 78, 115
2, 40560, Note_on_c, 1, 61, 105
2, 40560, Note_on_c, 1, 68, 105
2, 40560, Note_on_c, 1, 59, 105
2, 40560, Note_on_c, 1, 64, 105
2, 40800, Note_on_c, 1, 64, 0
2, 40800, Note_on_c, 1, 68, 0
2, 40800, Note_on_c, 1, 78, 0
2, 40800, Note_on_c, 1, 61, 0
2, 40800, Note_on_c, 1, 59, 0
2, 40875, Control_c, 1, 64, 20
2, 40920, Note_on_c, 1, 37, 115
2, 40920, Note_on_c, 1, 64, 115
2, 40920, Note_on_c, 1, 68, 115
2, 40920, Note_on_c, 1, 73, 115
2, 40920, Note_on_c, 1, 76, 115
2, 40950, Note_on_c, 1, 76, 0
2, 40950, Note_on_c, 1, 68, 0
2, 40950, Note_on_c, 1, 37, 0
2, 40950, Note_on_c, 1, 64, 0
2, 40950, Note_on_c, 1, 73, 0
2, 40980, Note_on_c, 1, 37, 115
2, 40980, Note_on_c, 1, 64, 115
2, 40980, Note_on_c, 1, 68, 115
2, 40980, Note_on_c, 1, 73, 115
2, 40980, Note_on_c, 1, 76, 115
2, 41010, Note_on_c, 1, 76, 0
2, 41010, Note_on_c, 1, 68, 0
2, 41010, Note_on_c, 1, 37, 0
2, 41010, Note_on_c, 1, 64, 0
2, 41010, Note_on_c, 1, 73, 0
2, 41040, Note_on_c, 1, 44, 115
2, 41040, Note_on_c, 1, 63, 115
2, 41040, Note_on_c, 1, 68, 115
2, 41040, Note_on_c, 1, 71, 115
2, 41040, Note_on_c, 1, 75, 115
2, 41130, Note_on_c, 1, 75, 0
2, 41130, Note_on_c, 1, 68, 0
2, 41130, Note_on_c, 1, 44, 0
2, 41130, Note_on_c, 1, 63, 0
2, 41130, Note_on_c, 1, 71, 0
2, 41160, Note_on_c, 1, 44, 115
2, 41160, Note_on_c, 1, 66, 115
2, 41160, Note_on_c, 1, 71, 115
2, 41250, Note_on_c, 1, 71, 0
2, 41250, Note_on_c, 1, 66, 0
2, 41250, Note_on_c, 1, 44, 0
2, 41250, Note_on_c, 1, 49, 115
2, 41250, Note_on_c, 1, 64, 115
2, 41250, Note_on_c, 1, 68, 115
2, 41250, Note_on_c, 1, 73, 115
2, 41280, Note_on_c, 1, 73, 0
2, 41280, Note_on_c, 1, 49, 0
2, 41280, Note_on_c, 1, 64, 0
2, 41280, Note_on_c, 1, 68, 0
2, 41400, Note_on_c, 1, 49, 115
2, 41400, Note_on_c, 1, 64, 115
2, 41400, Note_on_c, 1, 68, 115
2, 41400, Note_on_c, 1, 73, 115
2, 41430, Note_on_c, 1, 73, 0
2, 41430, Note_on_c, 1, 49, 0
2, 41430, Note_on_c, 1, 64, 0
2, 41430, Note_on_c, 1, 68, 0
2, 41460, Note_on_c, 1, 49, 115
2, 41460, Note_on_c, 1, 64, 115
2, 41460, Note_on_c, 1, 68, 115
2, 41460, Note_on_c, 1, 76, 115
2, 41490, Note_on_c, 1, 76, 0
2, 41490, Note_on_c, 1, 49, 0
2, 41490, Note_on_c, 1, 64, 0
2, 41490, Note_on_c, 1, 68, 0
2, 41520, Note_on_c, 1, 47, 115
2, 41520, Note_on_c, 1, 74, 115
2, 41520, Note_on_c, 1, 69, 115
2, 41520, Note_on_c, 1, 78, 115
2, 41610, Note_on_c, 1, 78, 0
2, 41610, Note_on_c, 1, 47, 0
2, 41610, Note_on_c, 1, 74, 0
2, 41610, Note_on_c, 1, 69, 0
2, 41640, Note_on_c, 1, 40, 115
2, 41640, Note_on_c, 1, 76, 115
2, 41640, Note_on_c, 1, 68, 115
2, 41640, Note_on_c, 1, 80, 115
2, 41640, Note_on_c, 1, 71, 115
2, 41730, Note_on_c, 1, 71, 0
2, 41730, Note_on_c, 1, 68, 0
2, 41730, Note_on_c, 1, 40, 0
2, 41730, Note_on_c, 1, 76, 0
2, 41730, Note_on_c, 1, 80, 0
2, 41730, Note_on_c, 1, 45, 115
2, 41730, Note_on_c, 1, 73, 115
2, 41730, Note_on_c, 1, 76, 115
2, 41730, Note_on_c, 1, 64, 115
2, 41730, Note_on_c, 1, 68, 115
2, 41760, Note_on_c, 1, 68, 0
2, 41760, Note_on_c, 1, 76, 0
2, 41760, Note_on_c, 1, 45, 0
2, 41760, Note_on_c, 1, 73, 0
2, 41760, Note_on_c, 1, 64, 0
2, 41850, Note_on_c, 1, 45, 115
2, 41880, Note_on_c, 1, 45, 0
2, 41880, Note_on_c, 1, 45, 115
2, 41880, Note_on_c, 1, 64, 115
2, 41880, Note_on_c, 1, 68, 115
2, 41880, Note_on_c, 1, 73, 115
2, 41880, Note_on_c, 1, 76, 115
2, 41910, Note_on_c, 1, 76, 0
2, 41910, Note_on_c, 1, 68, 0
2, 41910, Note_on_c, 1, 45, 0
2, 41910, Note_on_c, 1, 64, 0
2, 41910, Note_on_c, 1, 73, 0
2, 41940, Note_on_c, 1, 45, 115
2, 41940, Note_on_c, 1, 64, 115
2, 41940, Note_on_c, 1, 68, 115
2, 41940, Note_on_c, 1, 73, 115
2, 41940, Note_on_c, 1, 76, 115
2, 41970, Note_on_c, 1, 76, 0
2, 41970, Note_on_c, 1, 68, 0
2, 41970, Note_on_c, 1, 45, 0
2, 41970, Note_on_c, 1, 64, 0
2, 41970, Note_on_c, 1, 73, 0
2, 42000, Note_on_c, 1, 44, 115
2, 42000, Note_on_c, 1, 64, 115
2, 42000, Note_on_c, 1, 76, 115
2, 42000, Note_on_c, 1, 68, 115
2, 42000, Note_on_c, 1, 71, 115
2, 42090, Note_on_c, 1, 71, 0
2, 42090, Note_on_c, 1, 76, 0
2, 42090, Note_on_c, 1, 44, 0
2, 42090, Note_on_c, 1, 64, 0
2, 42090, Note_on_c, 1, 68, 0
2, 42120, Note_on_c, 1, 49, 115
2, 42120, Note_on_c, 1, 59, 115
2, 42120, Note_on_c, 1, 64, 115
2, 42120, Note_on_c, 1, 71, 115
2, 42210, Note_on_c, 1, 71, 0
2, 42210, Note_on_c, 1, 49, 0
2, 42210, Note_on_c, 1, 59, 0
2, 42210, Note_on_c, 1, 64, 0
2, 42240, Note_on_c, 1, 78, 115
2, 42240, Note_on_c, 1, 42, 115
2, 42240, Note_on_c, 1, 66, 115
2, 42240, Note_on_c, 1, 73, 115
2, 42240, Note_on_c, 1, 81, 115
2, 42360, Note_on_c, 1, 81, 0
2, 42360, Note_on_c, 1, 66, 0
2, 42360, Note_on_c, 1, 78, 0
2, 42360, Note_on_c, 1, 42, 0
2, 42360, Note_on_c, 1, 73, 0
2, 42360, Note_on_c, 1, 71, 115
2, 42360, Note_on_c, 1, 68, 115
2, 42360, Note_on_c, 1, 44, 115
2, 42360, Note_on_c, 1, 76, 115
2, 42360, Note_on_c, 1, 80, 115
2, 42390, Note_on_c, 1, 80, 0
2, 42390, Note_on_c, 1, 44, 0
2, 42390, Note_on_c, 1, 71, 0
2, 42390, Note_on_c, 1, 68, 0
2, 42390, Note_on_c, 1, 76, 0
2, 42420, Note_on_c, 1, 75, 115
2, 42420, Note_on_c, 1, 68, 115
2, 42420, Note_on_c, 1, 45, 115
2, 42420, Note_on_c, 1, 78, 115
2, 42450, Note_on_c, 1, 78, 0
2, 42450, Note_on_c, 1, 75, 0
2, 42450, Note_on_c, 1, 68, 0
2, 42450, Note_on_c, 1, 45, 0
2, 42480, Note_on_c, 1, 71, 115
2, 42480, Note_on_c, 1, 66, 115
2, 42480, Note_on_c, 1, 47, 115
2, 42480, Note_on_c, 1, 76, 115
2, 42480, Note_on_c, 1, 69, 115
2, 42600, Note_on_c, 1, 69, 0
2, 42600, Note_on_c, 1, 47, 0
2, 42600, Note_on_c, 1, 71, 0
2, 42600, Note_on_c, 1, 66, 0
2, 42600, Note_on_c, 1, 76, 0
2, 42600, Note_on_c, 1, 63, 115
2, 42600, Note_on_c, 1, 68, 115
2, 42600, Note_on_c, 1, 75, 115
2, 42600, Note_on_c, 1, 48, 115
2, 42690, Note_on_c, 1, 48, 0
2, 42690, Note_on_c, 1, 63, 0
2, 42690, Note_on_c, 1, 68, 0
2, 42690, Note_on_c, 1, 75, 0
2, 42690, Note_on_c, 1, 64, 115
2, 42690, Note_on_c, 1, 68, 115
2, 42690, Note_on_c, 1, 76, 115
2, 42690, Note_on_c, 1, 49, 115
2, 42720, Note_on_c, 1, 49, 0
2, 42720, Note_on_c, 1, 64, 0
2, 42720, Note_on_c, 1, 68, 0
2, 42720, Note_on_c, 1, 76, 0
2, 42840, Note_on_c, 1, 37, 115
2, 42840, Note_on_c, 1, 64, 115
2, 42840, Note_on_c, 1, 68, 115
2, 42840, Note_on_c, 1, 73, 115
2, 42840, Note_on_c, 1, 76, 115
2, 42870, Note_on_c, 1, 76, 0
2, 42870, Note_on_c, 1, 68, 0
2, 42870, Note_on_c, 1, 37, 0
2, 42870, Note_on_c, 1, 64, 0
2, 42870, Note_on_c, 1, 73, 0
2, 42900, Note_on_c, 1, 37, 115
2, 42900, Note_on_c, 1, 64, 115
2, 42900, Note_on_c, 1, 68, 115
2, 42900, Note_on_c, 1, 73, 115
2, 42900, Note_on_c, 1, 76, 115
2, 42930, Note_on_c, 1, 76, 0
2, 42930, Note_on_c, 1, 68, 0
2, 42930, Note_on_c, 1, 37, 0
2, 42930, Note_on_c, 1, 64, 0
2, 42930, Note_on_c, 1, 73, 0
2, 42960, Note_on_c, 1, 44, 115
2, 42960, Note_on_c, 1, 63, 115
2, 42960, Note_on_c, 1, 68, 115
2, 42960, Note_on_c, 1, 71, 115
2, 42960, Note_on_c, 1, 75, 115
2, 43050, Note_on_c, 1, 75, 0
2, 43050, Note_on_c, 1, 68, 0
2, 43050, Note_on_c, 1, 44, 0
2, 43050, Note_on_c, 1, 63, 0
2, 43050, Note_on_c, 1, 71, 0
2, 43080, Note_on_c, 1, 44, 115
2, 43080, Note_on_c, 1, 66, 115
2, 43080, Note_on_c, 1, 71, 115
2, 43170, Note_on_c, 1, 71, 0
2, 43170, Note_on_c, 1, 66, 0
2, 43170, Note_on_c, 1, 44, 0
2, 43170, Note_on_c, 1, 49, 115
2, 43170, Note_on_c, 1, 64, 115
2, 43170, Note_on_c, 1, 68, 115
2, 43170, Note_on_c, 1, 73, 115
2, 43200, Note_on_c, 1, 73, 0
2, 43200, Note_on_c, 1, 49, 0
2, 43200, Note_on_c, 1, 64, 0
2, 43200, Note_on_c, 1, 68, 0
2, 43320, Note_on_c, 1, 49, 115
2, 43320, Note_on_c, 1, 64, 115
2, 43320, Note_on_c, 1, 68, 115
2, 43320, Note_on_c, 1, 73, 115
2, 43350, Note_on_c, 1, 73, 0
2, 43350, Note_on_c, 1, 49, 0
2, 43350, Note_on_c, 1, 64, 0
2, 43350, Note_on_c, 1, 68, 0
2, 43380, Note_on_c, 1, 49, 115
2, 43380, Note_on_c, 1, 64, 115
2, 43380, Note_on_c, 1, 68, 115
2, 43380, Note_on_c, 1, 76, 115
2, 43410, Note_on_c, 1, 76, 0
2, 43410, Note_on_c, 1, 49, 0
2, 43410, Note_on_c, 1, 64, 0
2, 43410, Note_on_c, 1, 68, 0
2, 43440, Note_on_c, 1, 47, 115
2, 43440, Note_on_c, 1, 74, 115
2, 43440, Note_on_c, 1, 69, 115
2, 43440, Note_on_c, 1, 78, 115
2, 43530, Note_on_c, 1, 78, 0
2, 43530, Note_on_c, 1, 47, 0
2, 43530, Note_on_c, 1, 74, 0
2, 43530, Note_on_c, 1, 69, 0
2, 43560, Note_on_c, 1, 40, 115
2, 43560, Note_on_c, 1, 76, 115
2, 43560, Note_on_c, 1, 68, 115
2, 43560, Note_on_c, 1, 80, 115
2, 43560, Note_on_c, 1, 71, 115
2, 43650, Note_on_c, 1, 71, 0
2, 43650, Note_on_c, 1, 68, 0
2, 43650, Note_on_c, 1, 40, 0
2, 43650, Note_on_c, 1, 76, 0
2, 43650, Note_on_c, 1, 80, 0
2, 43650, Note_on_c, 1, 45, 115
2, 43650, Note_on_c, 1, 73, 115
2, 43650, Note_on_c, 1, 76, 115
2, 43650, Note_on_c, 1, 64, 115
2, 43650, Note_on_c, 1, 68, 115
2, 43680, Note_on_c, 1, 68, 0
2, 43680, Note_on_c, 1, 76, 0
2, 43680, Note_on_c, 1, 45, 0
2, 43680, Note_on_c, 1, 73, 0
2, 43680, Note_on_c, 1, 64, 0
2, 43770, Note_on_c, 1, 45, 115
2, 43800, Note_on_c, 1, 45, 0
2, 43800, Note_on_c, 1, 45, 115
2, 43800, Note_on_c, 1, 64, 115
2, 43800, Note_on_c, 1, 68, 115
2, 43800, Note_on_c, 1, 73, 115
2, 43800, Note_on_c, 1, 76, 115
2, 43830, Note_on_c, 1, 76, 0
2, 43830, Note_on_c, 1, 68, 0
2, 43830, Note_on_c, 1, 45, 0
2, 43830, Note_on_c, 1, 64, 0
2, 43830, Note_on_c, 1, 73, 0
2, 43860, Note_on_c, 1, 45, 115
2, 43860, Note_on_c, 1, 64, 115
2, 43860, Note_on_c, 1, 68, 115
2, 43860, Note_on_c, 1, 73, 115
2, 43860, Note_on_c, 1, 76, 115
2, 43890, Note_on_c, 1, 76, 0
2, 43890, Note_on_c, 1, 68, 0
2, 43890, Note_on_c, 1, 45, 0
2, 43890, Note_on_c, 1, 64, 0
2, 43890, Note_on_c, 1, 73, 0
2, 43920, Note_on_c, 1, 44, 115
2, 43920, Note_on_c, 1, 64, 115
2, 43920, Note_on_c, 1, 76, 115
2, 43920, Note_on_c, 1, 68, 115
2, 43920, Note_on_c, 1, 71, 115
2, 44010, Note_on_c, 1, 71, 0
2, 44010, Note_on_c, 1, 76, 0
2, 44010, Note_on_c, 1, 44, 0
2, 44010, Note_on_c, 1, 64, 0
2, 44010, Note_on_c, 1, 68, 0
2, 44040, Note_on_c, 1, 49, 115
2, 44040, Note_on_c, 1, 59, 115
2, 44040, Note_on_c, 1, 64, 115
2, 44040, Note_on_c, 1, 71, 115
2, 44130, Note_on_c, 1, 71, 0
2, 44130, Note_on_c, 1, 49, 0
2, 44130, Note_on_c, 1, 59, 0
2, 44130, Note_on_c, 1, 64, 0
2, 44160, Note_on_c, 1, 78, 115
2, 44160, Note_on_c, 1, 42, 115
2, 44160, Note_on_c, 1, 66, 115
2, 44160, Note_on_c, 1, 73, 115
2, 44160, Note_on_c, 1, 81, 115
2, 44280, Note_on_c, 1, 81, 0
2, 44280, Note_on_c, 1, 66, 0
2, 44280, Note_on_c, 1, 78, 0
2, 44280, Note_on_c, 1, 42, 0
2, 44280, Note_on_c, 1, 73, 0
2, 44280, Note_on_c, 1, 71, 115
2, 44280, Note_on_c, 1, 68, 115
2, 44280, Note_on_c, 1, 44, 115
2, 44280, Note_on_c, 1, 76, 115
2, 44280, Note_on_c, 1, 80, 115
2, 44310, Note_on_c, 1, 80, 0
2, 44310, Note_on_c, 1, 44, 0
2, 44310, Note_on_c, 1, 71, 0
2, 44310, Note_on_c, 1, 68, 0
2, 44310, Note_on_c, 1, 76, 0
2, 44340, Note_on_c, 1, 75, 115
2, 44340, Note_on_c, 1, 68, 115
2, 44340, Note_on_c, 1, 45, 115
2, 44340, Note_on_c, 1, 78, 115
2, 44370, Note_on_c, 1, 78, 0
2, 44370, Note_on_c, 1, 75, 0
2, 44370, Note_on_c, 1, 68, 0
2, 44370, Note_on_c, 1, 45, 0
2, 44400, Note_on_c, 1, 71, 115
2, 44400, Note_on_c, 1, 66, 115
2, 44400, Note_on_c, 1, 47, 115
2, 44400, Note_on_c, 1, 76, 115
2, 44400, Note_on_c, 1, 69, 115
2, 44520, Note_on_c, 1, 69, 0
2, 44520, Note_on_c, 1, 47, 0
2, 44520, Note_on_c, 1, 71, 0
2, 44520, Note_on_c, 1, 66, 0
2, 44520, Note_on_c, 1, 76, 0
2, 44520, Note_on_c, 1, 63, 115
2, 44520, Note_on_c, 1, 68, 115
2, 44520, Note_on_c, 1, 75, 115
2, 44520, Note_on_c, 1, 48, 115
2, 44610, Note_on_c, 1, 48, 0
2, 44610, Note_on_c, 1, 63, 0
2, 44610, Note_on_c, 1, 68, 0
2, 44610, Note_on_c, 1, 75, 0
2, 44610, Note_on_c, 1, 49, 115
2, 44610, Note_on_c, 1, 59, 115
2, 44610, Note_on_c, 1, 64, 115
2, 44610, Note_on_c, 1, 68, 115
2, 44610, Note_on_c, 1, 71, 115
2, 44610, Note_on_c, 1, 76, 115
2, 44640, Note_on_c, 1, 76, 0
2, 44640, Note_on_c, 1, 59, 0
2, 44640, Note_on_c, 1, 64, 0
2, 44640, Note_on_c, 1, 49, 0
2, 44640, Note_on_c, 1, 71, 0
2, 44640, Note_on_c, 1, 68, 0
2, 44760, Note_on_c, 1, 85, 115
2, 44760, Note_on_c, 1, 88, 115
2, 44760, Control_c, 1, 64, 20
2, 44760, Note_on_c, 1, 68, 115
2, 44760, Note_on_c, 1, 73, 115
2, 44760, Note_on_c, 1, 76, 115
2, 44790, Note_on_c, 1, 76, 0
2, 44790, Note_on_c, 1, 68, 0
2, 44790, Note_on_c, 1, 85, 0
2, 44790, Note_on_c, 1, 88, 0
2, 44790, Note_on_c, 1, 73, 0
2, 44820, Note_on_c, 1, 85, 115
2, 44820, Note_on_c, 1, 88, 115
2, 44820, Note_on_c, 1, 68, 115
2, 44820, Note_on_c, 1, 73, 115
2, 44820, Note_on_c, 1, 76, 115
2, 44850, Note_on_c, 1, 76, 0
2, 44850, Note_on_c, 1, 68, 0
2, 44850, Note_on_c, 1, 85, 0
2, 44850, Note_on_c, 1, 88, 0
2, 44850, Note_on_c, 1, 73, 0
2, 44880, Note_on_c, 1, 83, 115
2, 44880, Note_on_c, 1, 87, 115
2, 44880, Note_on_c, 1, 68, 115
2, 44880, Note_on_c, 1, 71, 115
2, 44880, Note_on_c, 1, 75, 115
2, 44970, Note_on_c, 1, 75, 0
2, 44970, Note_on_c, 1, 68, 0
2, 44970, Note_on_c, 1, 83, 0
2, 44970, Note_on_c, 1, 87, 0
2, 44970, Note_on_c, 1, 71, 0
2, 45000, Note_on_c, 1, 75, 115
2, 45000, Note_on_c, 1, 83, 115
2, 45000, Note_on_c, 1, 66, 115
2, 45000, Note_on_c, 1, 71, 115
2, 45090, Note_on_c, 1, 71, 0
2, 45090, Note_on_c, 1, 75, 0
2, 45090, Note_on_c, 1, 83, 0
2, 45090, Note_on_c, 1, 66, 0
2, 45090, Note_on_c, 1, 76, 115
2, 45090, Note_on_c, 1, 85, 115
2, 45090, Note_on_c, 1, 64, 115
2, 45090, Note_on_c, 1, 68, 115
2, 45090, Note_on_c, 1, 73, 115
2, 45120, Note_on_c, 1, 73, 0
2, 45120, Note_on_c, 1, 64, 0
2, 45120, Note_on_c, 1, 76, 0
2, 45120, Note_on_c, 1, 85, 0
2, 45120, Note_on_c, 1, 68, 0
2, 45240, Note_on_c, 1, 80, 115
2, 45240, Note_on_c, 1, 85, 115
2, 45240, Note_on_c, 1, 64, 115
2, 45240, Note_on_c, 1, 68, 115
2, 45240, Note_on_c, 1, 73, 115
2, 45270, Note_on_c, 1, 73, 0
2, 45270, Note_on_c, 1, 64, 0
2, 45270, Note_on_c, 1, 80, 0
2, 45270, Note_on_c, 1, 85, 0
2, 45270, Note_on_c, 1, 68, 0
2, 45300, Note_on_c, 1, 83, 115
2, 45300, Note_on_c, 1, 76, 115
2, 45300, Note_on_c, 1, 71, 115
2, 45300, Note_on_c, 1, 88, 115
2, 45300, Note_on_c, 1, 68, 115
2, 45330, Note_on_c, 1, 68, 0
2, 45330, Note_on_c, 1, 71, 0
2, 45330, Note_on_c, 1, 83, 0
2, 45330, Note_on_c, 1, 76, 0
2, 45330, Note_on_c, 1, 88, 0
2, 45360, Note_on_c, 1, 86, 115
2, 45360, Note_on_c, 1, 90, 115
2, 45360, Note_on_c, 1, 74, 115
2, 45360, Note_on_c, 1, 69, 115
2, 45360, Note_on_c, 1, 78, 115
2, 45450, Note_on_c, 1, 78, 0
2, 45450, Note_on_c, 1, 74, 0
2, 45450, Note_on_c, 1, 86, 0
2, 45450, Note_on_c, 1, 90, 0
2, 45450, Note_on_c, 1, 69, 0
2, 45480, Note_on_c, 1, 88, 115
2, 45480, Note_on_c, 1, 92, 115
2, 45480, Note_on_c, 1, 76, 115
2, 45480, Note_on_c, 1, 80, 115
2, 45480, Note_on_c, 1, 71, 115
2, 45570, Note_on_c, 1, 71, 0
2, 45570, Note_on_c, 1, 76, 0
2, 45570, Note_on_c, 1, 88, 0
2, 45570, Note_on_c, 1, 92, 0
2, 45570, Note_on_c, 1, 80, 0
2, 45570, Note_on_c, 1, 85, 115
2, 45570, Note_on_c, 1, 88, 115
2, 45570, Note_on_c, 1, 73, 115
2, 45570, Note_on_c, 1, 76, 115
2, 45570, Note_on_c, 1, 68, 115
2, 45600, Note_on_c, 1, 68, 0
2, 45600, Note_on_c, 1, 73, 0
2, 45600, Note_on_c, 1, 85, 0
2, 45600, Note_on_c, 1, 88, 0
2, 45600, Note_on_c, 1, 76, 0
2, 45720, Note_on_c, 1, 85, 115
2, 45720, Note_on_c, 1, 88, 115
2, 45720, Note_on_c, 1, 68, 115
2, 45720, Note_on_c, 1, 73, 115
2, 45720, Note_on_c, 1, 76, 115
2, 45750, Note_on_c, 1, 76, 0
2, 45750, Note_on_c, 1, 68, 0
2, 45750, Note_on_c, 1, 85, 0
2, 45750, Note_on_c, 1, 88, 0
2, 45750, Note_on_c, 1, 73, 0
2, 45780, Note_on_c, 1, 85, 115
2, 45780, Note_on_c, 1, 88, 115
2, 45780, Note_on_c, 1, 68, 115
2, 45780, Note_on_c, 1, 73, 115
2, 45780, Note_on_c, 1, 76, 115
2, 45810, Note_on_c, 1, 76, 0
2, 45810, Note_on_c, 1, 68, 0
2, 45810, Note_on_c, 1, 85, 0
2, 45810, Note_on_c, 1, 88, 0
2, 45810, Note_on_c, 1, 73, 0
2, 45840, Note_on_c, 1, 83, 115
2, 45840, Note_on_c, 1, 88, 115
2, 45840, Note_on_c, 1, 76, 115
2, 45840, Note_on_c, 1, 68, 115
2, 45840, Note_on_c, 1, 71, 115
2, 45930, Note_on_c, 1, 71, 0
2, 45930, Note_on_c, 1, 76, 0
2, 45930, Note_on_c, 1, 83, 0
2, 45930, Note_on_c, 1, 88, 0
2, 45930, Note_on_c, 1, 68, 0
2, 45960, Note_on_c, 1, 76, 115
2, 45960, Note_on_c, 1, 83, 115
2, 45960, Note_on_c, 1, 59, 115
2, 45960, Note_on_c, 1, 64, 115
2, 45960, Note_on_c, 1, 71, 115
2, 46050, Note_on_c, 1, 71, 0
2, 46050, Note_on_c, 1, 59, 0
2, 46050, Note_on_c, 1, 76, 0
2, 46050, Note_on_c, 1, 83, 0
2, 46050, Note_on_c, 1, 64, 0
2, 46080, Note_on_c, 1, 90, 115
2, 46080, Note_on_c, 1, 93, 115
2, 46080, Note_on_c, 1, 78, 115
2, 46080, Note_on_c, 1, 73, 115
2, 46080, Note_on_c, 1, 81, 115
2, 46200, Note_on_c, 1, 81, 0
2, 46200, Note_on_c, 1, 78, 0
2, 46200, Note_on_c, 1, 90, 0
2, 46200, Note_on_c, 1, 93, 0
2, 46200, Note_on_c, 1, 73, 0
2, 46200, Note_on_c, 1, 88, 115
2, 46200, Note_on_c, 1, 92, 115
2, 46200, Note_on_c, 1, 71, 115
2, 46200, Note_on_c, 1, 76, 115
2, 46200, Note_on_c, 1, 80, 115
2, 46230, Note_on_c, 1, 80, 0
2, 46230, Note_on_c, 1, 71, 0
2, 46230, Note_on_c, 1, 88, 0
2, 46230, Note_on_c, 1, 92, 0
2, 46230, Note_on_c, 1, 76, 0
2, 46260, Note_on_c, 1, 87, 115
2, 46260, Note_on_c, 1, 90, 115
2, 46260, Note_on_c, 1, 75, 115
2, 46260, Note_on_c, 1, 68, 115
2, 46260, Note_on_c, 1, 78, 115
2, 46290, Note_on_c, 1, 78, 0
2, 46290, Note_on_c, 1, 75, 0
2, 46290, Note_on_c, 1, 87, 0
2, 46290, Note_on_c, 1, 90, 0
2, 46290, Note_on_c, 1, 68, 0
2, 46320, Note_on_c, 1, 83, 115
2, 46320, Note_on_c, 1, 88, 115
2, 46320, Note_on_c, 1, 71, 115
2, 46320, Note_on_c, 1, 66, 115
2, 46320, Note_on_c, 1, 76, 115
2, 46320, Note_on_c, 1, 69, 115
2, 46440, Note_on_c, 1, 69, 0
2, 46440, Note_on_c, 1, 88, 0
2, 46440, Note_on_c, 1, 71, 0
2, 46440, Note_on_c, 1, 83, 0
2, 46440, Note_on_c, 1, 76, 0
2, 46440, Note_on_c, 1, 66, 0
2, 46440, Note_on_c, 1, 87, 115
2, 46440, Note_on_c, 1, 63, 115
2, 46440, Note_on_c, 1, 68, 115
2, 46440, Note_on_c, 1, 75, 115
2, 46530, Note_on_c, 1, 75, 0
2, 46530, Note_on_c, 1, 87, 0
2, 46530, Note_on_c, 1, 63, 0
2, 46530, Note_on_c, 1, 68, 0
2, 46530, Note_on_c, 1, 83, 115
2, 46530, Note_on_c, 1, 88, 115
2, 46530, Note_on_c, 1, 64, 115
2, 46530, Note_on_c, 1, 68, 115
2, 46530, Note_on_c, 1, 76, 115
2, 46560, Note_on_c, 1, 76, 0
2, 46560, Note_on_c, 1, 64, 0
2, 46560, Note_on_c, 1, 83, 0
2, 46560, Note_on_c, 1, 88, 0
2, 46560, Note_on_c, 1, 68, 0
2, 46680, Note_on_c, 1, 85, 115
2, 46680, Note_on_c, 1, 88, 115
2, 46680, Control_c, 1, 64, 20
2, 46680, Note_on_c, 1, 68, 115
2, 46680, Note_on_c, 1, 73, 115
2, 46680, Note_on_c, 1, 76, 115
2, 46710, Note_on_c, 1, 76, 0
2, 46710, Note_on_c, 1, 68, 0
2, 46710, Note_on_c, 1, 85, 0
2, 46710, Note_on_c, 1, 88, 0
2, 46710, Note_on_c, 1, 73, 0
2, 46740, Note_on_c, 1, 85, 115
2, 46740, Note_on_c, 1, 88, 115
2, 46740, Note_on_c, 1, 68, 115
2, 46740, Note_on_c, 1, 73, 115
2, 46740, Note_on_c, 1, 76, 115
2, 46770, Note_on_c, 1, 76, 0
2, 46770, Note_on_c, 1, 68, 0
2, 46770, Note_on_c, 1, 85, 0
2, 46770, Note_on_c, 1, 88, 0
2, 46770, Note_on_c, 1, 73, 0
2, 46800, Note_on_c, 1, 83, 115
2, 46800, Note_on_c, 1, 87, 115
2, 46800, Note_on_c, 1, 68, 115
2, 46800, Note_on_c, 1, 71, 115
2, 46800, Note_on_c, 1, 75, 115
2, 46890, Note_on_c, 1, 75, 0
2, 46890, Note_on_c, 1, 68, 0
2, 46890, Note_on_c, 1, 83, 0
2, 46890, Note_on_c, 1, 87, 0
2, 46890, Note_on_c, 1, 71, 0
2, 46920, Note_on_c, 1, 75, 115
2, 46920, Note_on_c, 1, 83, 115
2, 46920, Note_on_c, 1, 66, 115
2, 46920, Note_on_c, 1, 71, 115
2, 47010, Note_on_c, 1, 71, 0
2, 47010, Note_on_c, 1, 75, 0
2, 47010, Note_on_c, 1, 83, 0
2, 47010, Note_on_c, 1, 66, 0
2, 47010, Note_on_c, 1, 76, 115
2, 47010, Note_on_c, 1, 85, 115
2, 47010, Note_on_c, 1, 64, 115
2, 47010, Note_on_c, 1, 68, 115
2, 47010, Note_on_c, 1, 73, 115
2, 47040, Note_on_c, 1, 73, 0
2, 47040, Note_on_c, 1, 64, 0
2, 47040, Note_on_c, 1, 76, 0
2, 47040, Note_on_c, 1, 85, 0
2, 47040, Note_on_c, 1, 68, 0
2, 47160, Note_on_c, 1, 80, 115
2, 47160, Note_on_c, 1, 85, 115
2, 47160, Note_on_c, 1, 64, 115
2, 47160, Note_on_c, 1, 68, 115
2, 47160, Note_on_c, 1, 73, 115
2, 47190, Note_on_c, 1, 73, 0
2, 47190, Note_on_c, 1, 64, 0
2, 47190, Note_on_c, 1, 80, 0
2, 47190, Note_on_c, 1, 85, 0
2, 47190, Note_on_c, 1, 68, 0
2, 47220, Note_on_c, 1, 83, 115
2, 47220, Note_on_c, 1, 76, 115
2, 47220, Note_on_c, 1, 71, 115
2, 47220, Note_on_c, 1, 88, 115
2, 47220, Note_on_c, 1, 68, 115
2, 47250, Note_on_c, 1, 68, 0
2, 47250, Note_on_c, 1, 71, 0
2, 47250, Note_on_c, 1, 83, 0
2, 47250, Note_on_c, 1, 76, 0
2, 47250, Note_on_c, 1, 88, 0
2, 47280, Note_on_c, 1, 86, 115
2, 47280, Note_on_c, 1, 90, 115
2, 47280, Note_on_c, 1, 74, 115
2, 47280, Note_on_c, 1, 69, 115
2, 47280, Note_on_c, 1, 78, 115
2, 47370, Note_on_c, 1, 78, 0
2, 47370, Note_on_c, 1, 74, 0
2, 47370, Note_on_c, 1, 86, 0
2, 47370, Note_on_c, 1, 90, 0
2, 47370, Note_on_c, 1, 69, 0
2, 47400, Note_on_c, 1, 88, 115
2, 47400, Note_on_c, 1, 92, 115
2, 47400, Note_on_c, 1, 76, 115
2, 47400, Note_on_c, 1, 80, 115
2, 47400, Note_on_c, 1, 71, 115
2, 47490, Note_on_c, 1, 71, 0
2, 47490, Note_on_c, 1, 76, 0
2, 47490, Note_on_c, 1, 88, 0
2, 47490, Note_on_c, 1, 92, 0
2, 47490, Note_on_c, 1, 80, 0
2, 47490, Note_on_c, 1, 85, 115
2, 47490, Note_on_c, 1, 88, 115
2, 47490, Note_on_c, 1, 73, 115
2, 47490, Note_on_c, 1, 76, 115
2, 47490, Note_on_c, 1, 68, 115
2, 47520, Note_on_c, 1, 68, 0
2, 47520, Note_on_c, 1, 73, 0
2, 47520, Note_on_c, 1, 85, 0
2, 47520, Note_on_c, 1, 88, 0
2, 47520, Note_on_c, 1, 76, 0
2, 47640, Note_on_c, 1, 85, 115
2, 47640, Note_on_c, 1, 88, 115
2, 47640, Note_on_c, 1, 68, 115
2, 47640, Note_on_c, 1, 73, 115
2, 47640, Note_on_c, 1, 76, 115
2, 47670, Note_on_c, 1, 76, 0
2, 47670, Note_on_c, 1, 68, 0
2, 47670, Note_on_c, 1, 85, 0
2, 47670, Note_on_c, 1, 88, 0
2, 47670, Note_on_c, 1, 73, 0
2, 47700, Note_on_c, 1, 85, 115
2, 47700, Note_on_c, 1, 88, 115
2, 47700, Note_on_c, 1, 68, 115
2, 47700, Note_on_c, 1, 73, 115
2, 47700, Note_on_c, 1, 76, 115
2, 47730, Note_on_c, 1, 76, 0
2, 47730, Note_on_c, 1, 68, 0
2, 47730, Note_on_c, 1, 85, 0
2, 47730, Note_on_c, 1, 88, 0
2, 47730, Note_on_c, 1, 73, 0
2, 47760, Note_on_c, 1, 83, 115
2, 47760, Note_on_c, 1, 88, 115
2, 47760, Note_on_c, 1, 76, 115
2, 47760, Note_on_c, 1, 68, 115
2, 47760, Note_on_c, 1, 71, 115
2, 47850, Note_on_c, 1, 71, 0
2, 47850, Note_on_c, 1, 76, 0
2, 47850, Note_on_c, 1, 83, 0
2, 47850, Note_on_c, 1, 88, 0
2, 47850, Note_on_c, 1, 68, 0
2, 47880, Note_on_c, 1, 76, 115
2, 47880, Note_on_c, 1, 83, 115
2, 47880, Note_on_c, 1, 59, 115
2, 47880, Note_on_c, 1, 64, 115
2, 47880, Note_on_c, 1, 71, 115
2, 47970, Note_on_c, 1, 71, 0
2, 47970, Note_on_c, 1, 59, 0
2, 47970, Note_on_c, 1, 76, 0
2, 47970, Note_on_c, 1, 83, 0
2, 47970, Note_on_c, 1, 64, 0
2, 48000, Note_on_c, 1, 90, 115
2, 48000, Note_on_c, 1, 93, 115
2, 48000, Note_on_c, 1, 78, 115
2, 48000, Note_on_c, 1, 73, 115
2, 48000, Note_on_c, 1, 81, 115
2, 48120, Note_on_c, 1, 81, 0
2, 48120, Note_on_c, 1, 78, 0
2, 48120, Note_on_c, 1, 90, 0
2, 48120, Note_on_c, 1, 93, 0
2, 48120, Note_on_c, 1, 73, 0
2, 48120, Note_on_c, 1, 88, 115
2, 48120, Note_on_c, 1, 92, 115
2, 48120, Note_on_c, 1, 71, 115
2, 48120, Note_on_c, 1, 76, 115
2, 48120, Note_on_c, 1, 80, 115
2, 48150, Note_on_c, 1, 80, 0
2, 48150, Note_on_c, 1, 71, 0
2, 48150, Note_on_c, 1, 88, 0
2, 48150, Note_on_c, 1, 92, 0
2, 48150, Note_on_c, 1, 76, 0
2, 48180, Note_on_c, 1, 87, 115
2, 48180, Note_on_c, 1, 90, 115
2, 48180, Note_on_c, 1, 75, 115
2, 48180, Note_on_c, 1, 68, 115
2, 48180, Note_on_c, 1, 78, 115
2, 48210, Note_on_c, 1, 78, 0
2, 48210, Note_on_c, 1, 75, 0
2, 48210, Note_on_c, 1, 87, 0
2, 48210, Note_on_c, 1, 90, 0
2, 48210, Note_on_c, 1, 68, 0
2, 48240, Note_on_c, 1, 83, 115
2, 48240, Note_on_c, 1, 88, 115
2, 48240, Note_on_c, 1, 71, 115
2, 48240, Note_on_c, 1, 66, 115
2, 48240, Note_on_c, 1, 76, 115
2, 48240, Note_on_c, 1, 69, 115
2, 48360, Note_on_c, 1, 69, 0
2, 48360, Note_on_c, 1, 88, 0
2, 48360, Note_on_c, 1, 71, 0
2, 48360, Note_on_c, 1, 83, 0
2, 48360, Note_on_c, 1, 76, 0
2, 48360, Note_on_c, 1, 66, 0
2, 48360, Note_on_c, 1, 87, 115
2, 48360, Note_on_c, 1, 63, 115
2, 48360, Note_on_c, 1, 68, 115
2, 48360, Note_on_c, 1, 75, 115
2, 48450, Note_on_c, 1, 75, 0
2, 48450, Note_on_c, 1, 87, 0
2, 48450, Note_on_c, 1, 63, 0
2, 48450, Note_on_c, 1, 68, 0
2, 48450, Note_on_c, 1, 59, 115
2, 48450, Note_on_c, 1, 64, 115
2, 48450, Note_on_c, 1, 68, 115
2, 48450, Note_on_c, 1, 71, 115
2, 48450, Note_on_c, 1, 76, 115
2, 48480, Note_on_c, 1, 76, 0
2, 48480, Note_on_c, 1, 68, 0
2, 48480, Note_on_c, 1, 59, 0
2, 48480, Note_on_c, 1, 64, 0
2, 48480, Note_on_c, 1, 71, 0
2, 48510, Note_on_c, 1, 88, 105
2, 48540, Note_on_c, 1, 88, 0
2, 48540, Note_on_c, 1, 85, 105
2, 48570, Note_on_c, 1, 85, 0
2, 48570, Note_on_c, 1, 83, 105
2, 48600, Note_on_c, 1, 83, 0
2, 48600, Note_on_c, 1, 88, 105
2, 48660, Note_on_c, 1, 88, 0
2, 48660, Note_on_c, 1, 85, 105
2, 48690, Note_on_c, 1, 85, 0
2, 48690, Note_on_c, 1, 83, 105
2, 48720, Note_on_c, 1, 83, 0
2, 48720, Note_on_c, 1, 63, 105
2, 48720, Note_on_c, 1, 59, 105
2, 48720, Note_on_c, 1, 56, 105
2, 48720, Note_on_c, 1, 68, 105
2, 48720, Note_on_c, 1, 80, 105
2, 48750, Note_on_c, 1, 80, 0
2, 48750, Note_on_c, 1, 78, 105
2, 48780, Note_on_c, 1, 78, 0
2, 48780, Note_on_c, 1, 76, 105
2, 48810, Note_on_c, 1, 76, 0
2, 48810, Note_on_c, 1, 73, 105
2, 48840, Note_on_c, 1, 73, 0
2, 48900, Note_on_c, 1, 73, 105
2, 48930, Note_on_c, 1, 73, 0
2, 48930, Note_on_c, 1, 76, 105
2, 49020, Note_on_c, 1, 76, 0
2, 49020, Note_on_c, 1, 73, 105
2, 49050, Note_on_c, 1, 73, 0
2, 49050, Note_on_c, 1, 71, 105
2, 49080, Note_on_c, 1, 71, 0
2, 49110, Note_on_c, 1, 59, 105
2, 49110, Note_on_c, 1, 64, 105
2, 49110, Note_on_c, 1, 56, 105
2, 49110, Note_on_c, 1, 68, 105
2, 49140, Note_on_c, 1, 64, 0
2, 49140, Note_on_c, 1, 56, 0
2, 49140, Note_on_c, 1, 68, 0
2, 49140, Note_on_c, 1, 59, 0
2, 49170, Note_on_c, 1, 61, 105
2, 49170, Note_on_c, 1, 64, 105
2, 49170, Note_on_c, 1, 56, 105
2, 49200, Note_on_c, 1, 59, 0
2, 49200, Note_on_c, 1, 63, 0
2, 49200, Note_on_c, 1, 68, 0
2, 49200, Note_on_c, 1, 56, 0
2, 49230, Note_on_c, 1, 74, 105
2, 49245, Note_on_c, 1, 74, 0
2, 49245, Note_on_c, 1, 76, 105
2, 49260, Note_on_c, 1, 76, 0
2, 49260, Note_on_c, 1, 81, 105
2, 49290, Note_on_c, 1, 81, 0
2, 49290, Note_on_c, 1, 85, 105
2, 49320, Note_on_c, 1, 85, 0
2, 49320, Note_on_c, 1, 84, 105
2, 49350, Note_on_c, 1, 84, 0
2, 49350, Note_on_c, 1, 81, 105
2, 49380, Note_on_c, 1, 81, 0
2, 49380, Note_on_c, 1, 78, 105
2, 49410, Note_on_c, 1, 78, 0
2, 49410, Note_on_c, 1, 74, 105
2, 49440, Note_on_c, 1, 74, 0
2, 49440, Note_on_c, 1, 56, 0
2, 49440, Note_on_c, 1, 61, 0
2, 49440, Note_on_c, 1, 64, 0
2, 49440, Note_on_c, 1, 83, 105
2, 49470, Note_on_c, 1, 83, 0
2, 49470, Note_on_c, 1, 80, 105
2, 49500, Note_on_c, 1, 80, 0
2, 49500, Note_on_c, 1, 63, 105
2, 49500, Note_on_c, 1, 68, 105
2, 49500, Note_on_c, 1, 56, 105
2, 49500, Note_on_c, 1, 59, 105
2, 49500, Note_on_c, 1, 78, 105
2, 49530, Note_on_c, 1, 78, 0
2, 49530, Note_on_c, 1, 56, 0
2, 49530, Note_on_c, 1, 63, 0
2, 49530, Note_on_c, 1, 68, 0
2, 49530, Note_on_c, 1, 59, 0
2, 49560, Note_on_c, 1, 73, 105
2, 49590, Note_on_c, 1, 73, 0
2, 49620, Note_on_c, 1, 73, 105
2, 49650, Note_on_c, 1, 73, 0
2, 49650, Note_on_c, 1, 68, 105
2, 49650, Note_on_c, 1, 56, 105
2, 49650, Note_on_c, 1, 61, 105
2, 49650, Note_on_c, 1, 64, 105
2, 49650, Note_on_c, 1, 76, 105
2, 49680, Note_on_c, 1, 76, 0
2, 49680, Note_on_c, 1, 61, 0
2, 49680, Note_on_c, 1, 68, 0
2, 49680, Note_on_c, 1, 56, 0
2, 49680, Note_on_c, 1, 64, 0
2, 49740, Note_on_c, 1, 83, 105
2, 49770, Note_on_c, 1, 83, 0
2, 49860, Note_on_c, 1, 85, 105
2, 49890, Note_on_c, 1, 85, 0
2, 49890, Note_on_c, 1, 88, 105
2, 49920, Note_on_c, 1, 88, 0
2, 49920, Note_on_c, 1, 66, 95
2, 49920, Note_on_c, 1, 61, 95
2, 49920, Note_on_c, 1, 54, 95
2, 49920, Note_on_c, 1, 57, 95
2, 49920, Note_on_c, 1, 92, 105
2, 49950, Note_on_c, 1, 92, 0
2, 49950, Note_on_c, 1, 95, 105
2, 49980, Note_on_c, 1, 95, 0
2, 49980, Note_on_c, 1, 97, 105
2, 50010, Note_on_c, 1, 97, 0
2, 50010, Note_on_c, 1, 100, 105
2, 50040, Note_on_c, 1, 100, 0
2, 50070, Note_on_c, 1, 97, 105
2, 50100, Note_on_c, 1, 97, 0
2, 50130, Note_on_c, 1, 95, 105
2, 50160, Note_on_c, 1, 95, 0
2, 50160, Note_on_c, 1, 92, 105
2, 50190, Note_on_c, 1, 92, 0
2, 50190, Note_on_c, 1, 54, 0
2, 50190, Note_on_c, 1, 66, 0
2, 50190, Note_on_c, 1, 61, 0
2, 50190, Note_on_c, 1, 57, 0
2, 50190, Note_on_c, 1, 90, 105
2, 50220, Note_on_c, 1, 90, 0
2, 50220, Note_on_c, 1, 57, 95
2, 50220, Note_on_c, 1, 61, 95
2, 50220, Note_on_c, 1, 64, 95
2, 50220, Note_on_c, 1, 68, 95
2, 50220, Note_on_c, 1, 88, 105
2, 50250, Note_on_c, 1, 88, 0
2, 50250, Note_on_c, 1, 64, 0
2, 50250, Note_on_c, 1, 57, 0
2, 50250, Note_on_c, 1, 61, 0
2, 50250, Note_on_c, 1, 68, 0
2, 50250, Note_on_c, 1, 85, 105
2, 50280, Note_on_c, 1, 85, 0
2, 50280, Note_on_c, 1, 83, 105
2, 50310, Note_on_c, 1, 83, 0
2, 50310, Note_on_c, 1, 80, 105
2, 50340, Note_on_c, 1, 80, 0
2, 50340, Note_on_c, 1, 78, 105
2, 50370, Note_on_c, 1, 78, 0
2, 50370, Note_on_c, 1, 76, 105
2, 50400, Note_on_c, 1, 76, 0
2, 50400, Note_on_c, 1, 61, 95
2, 50400, Note_on_c, 1, 59, 95
2, 50400, Note_on_c, 1, 68, 95
2, 50400, Note_on_c, 1, 64, 95
2, 50400, Note_on_c, 1, 78, 105
2, 50430, Note_on_c, 1, 78, 0
2, 50430, Note_on_c, 1, 78, 105
2, 50460, Note_on_c, 1, 78, 0
2, 50460, Note_on_c, 1, 76, 105
2, 50490, Note_on_c, 1, 76, 0
2, 50490, Note_on_c, 1, 73, 105
2, 50520, Note_on_c, 1, 73, 0
2, 50550, Note_on_c, 1, 68, 105
2, 50580, Note_on_c, 1, 68, 0
2, 50610, Note_on_c, 1, 64, 105
2, 50640, Note_on_c, 1, 64, 0
2, 50640, Note_on_c, 1, 66, 105
2, 50670, Note_on_c, 1, 66, 0
2, 50670, Note_on_c, 1, 64, 0
2, 50670, Note_on_c, 1, 61, 0
2, 50670, Note_on_c, 1, 59, 0
2, 50670, Note_on_c, 1, 68, 0
2, 50670, Note_on_c, 1, 68, 105
2, 50700, Note_on_c, 1, 68, 0
2, 50700, Note_on_c, 1, 64, 105
2, 50730, Note_on_c, 1, 64, 0
2, 50730, Note_on_c, 1, 61, 105
2, 50760, Note_on_c, 1, 61, 0
2, 50790, Note_on_c, 1, 61, 105
2, 50820, Note_on_c, 1, 61, 0
2, 50820, Note_on_c, 1, 64, 105
2, 50850, Note_on_c, 1, 64, 0
2, 50850, Note_on_c, 1, 61, 105
2, 50880, Note_on_c, 1, 61, 0
2, 50880, Note_on_c, 1, 66, 105
2, 50910, Note_on_c, 1, 66, 0
2, 50910, Note_on_c, 1, 61, 105
2, 50940, Note_on_c, 1, 61, 0
2, 50940, Note_on_c, 1, 68, 105
2, 50970, Note_on_c, 1, 68, 0
2, 50970, Note_on_c, 1, 64, 105
2, 51000, Note_on_c, 1, 64, 0
2, 51000, Note_on_c, 1, 71, 105
2, 51030, Note_on_c, 1, 71, 0
2, 51030, Note_on_c, 1, 68, 105
2, 51060, Note_on_c, 1, 68, 0
2, 51060, Note_on_c, 1, 73, 105
2, 51090, Note_on_c, 1, 73, 0
2, 51090, Note_on_c, 1, 76, 105
2, 51120, Note_on_c, 1, 76, 0
2, 51120, Note_on_c, 1, 73, 105
2, 51150, Note_on_c, 1, 73, 0
2, 51150, Note_on_c, 1, 78, 105
2, 51180, Note_on_c, 1, 78, 0
2, 51180, Note_on_c, 1, 56, 105
2, 51180, Note_on_c, 1, 61, 105
2, 51180, Note_on_c, 1, 64, 105
2, 51180, Note_on_c, 1, 73, 105
2, 51210, Note_on_c, 1, 73, 0
2, 51210, Note_on_c, 1, 80, 105
2, 51240, Note_on_c, 1, 80, 0
2, 51240, Note_on_c, 1, 73, 105
2, 51270, Note_on_c, 1, 73, 0
2, 51270, Note_on_c, 1, 83, 105
2, 51300, Note_on_c, 1, 83, 0
2, 51300, Note_on_c, 1, 73, 105
2, 51330, Note_on_c, 1, 73, 0
2, 51330, Note_on_c, 1, 85, 105
2, 51360, Note_on_c, 1, 85, 0
2, 51360, Note_on_c, 1, 64, 0
2, 51360, Note_on_c, 1, 61, 0
2, 51360, Note_on_c, 1, 56, 0
2, 51360, Note_on_c, 1, 56, 105
2, 51360, Note_on_c, 1, 66, 105
2, 51360, Note_on_c, 1, 59, 105
2, 51360, Note_on_c, 1, 61, 105
2, 51360, Note_on_c, 1, 76, 105
2, 51390, Note_on_c, 1, 76, 0
2, 51390, Note_on_c, 1, 87, 105
2, 51420, Note_on_c, 1, 87, 0
2, 51420, Note_on_c, 1, 76, 105
2, 51450, Note_on_c, 1, 76, 0
2, 51450, Note_on_c, 1, 88, 105
2, 51465, Note_on_c, 1, 76, 105
2, 51480, Note_on_c, 1, 76, 0
2, 51480, Note_on_c, 1, 88, 0
2, 51480, Note_on_c, 1, 88, 105
2, 51495, Note_on_c, 1, 88, 0
2, 51495, Note_on_c, 1, 76, 105
2, 51510, Note_on_c, 1, 76, 0
2, 51510, Note_on_c, 1, 88, 105
2, 51525, Note_on_c, 1, 88, 0
2, 51525, Note_on_c, 1, 76, 105
2, 51540, Note_on_c, 1, 76, 0
2, 51540, Note_on_c, 1, 88, 105
2, 51555, Note_on_c, 1, 88, 0
2, 51555, Note_on_c, 1, 76, 105
2, 51570, Note_on_c, 1, 76, 0
2, 51570, Note_on_c, 1, 88, 105
2, 51585, Note_on_c, 1, 88, 0
2, 51585, Note_on_c, 1, 76, 105
2, 51600, Note_on_c, 1, 76, 0
2, 51600, Note_on_c, 1, 88, 105
2, 51615, Note_on_c, 1, 88, 0
2, 51615, Note_on_c, 1, 76, 105
2, 51630, Note_on_c, 1, 76, 0
2, 51630, Note_on_c, 1, 88, 105
2, 51645, Note_on_c, 1, 88, 0
2, 51645, Note_on_c, 1, 76, 105
2, 51660, Note_on_c, 1, 76, 0
2, 51660, Note_on_c, 1, 88, 105
2, 51675, Note_on_c, 1, 88, 0
2, 51675, Note_on_c, 1, 76, 105
2, 51690, Note_on_c, 1, 76, 0
2, 51690, Note_on_c, 1, 88, 105
2, 51705, Note_on_c, 1, 88, 0
2, 51705, Note_on_c, 1, 76, 105
2, 51720, Note_on_c, 1, 76, 0
2, 51720, Note_on_c, 1, 88, 105
2, 51735, Note_on_c, 1, 88, 0
2, 51735, Note_on_c, 1, 76, 105
2, 51750, Note_on_c, 1, 76, 0
2, 51750, Note_on_c, 1, 88, 105
2, 51765, Note_on_c, 1, 88, 0
2, 51780, Note_on_c, 1, 97, 105
2, 51810, Note_on_c, 1, 97, 0
2, 51810, Note_on_c, 1, 95, 105
2, 51840, Note_on_c, 1, 95, 0
2, 51840, Note_on_c, 1, 59, 0
2, 51840, Note_on_c, 1, 56, 0
2, 51840, Note_on_c, 1, 66, 0
2, 51840, Note_on_c, 1, 61, 0
2, 51840, Note_on_c, 1, 61, 105
2, 51840, Note_on_c, 1, 66, 105
2, 51840, Note_on_c, 1, 69, 105
2, 51840, Note_on_c, 1, 97, 105
2, 51870, Note_on_c, 1, 97, 0
2, 51900, Note_on_c, 1, 95, 105
2, 51930, Note_on_c, 1, 95, 0
2, 51930, Note_on_c, 1, 93, 105
2, 51960, Note_on_c, 1, 93, 0
2, 51960, Note_on_c, 1, 92, 105
2, 51990, Note_on_c, 1, 92, 0
2, 51990, Note_on_c, 1, 90, 105
2, 52020, Note_on_c, 1, 90, 0
2, 52020, Note_on_c, 1, 88, 105
2, 52050, Note_on_c, 1, 88, 0
2, 52050, Note_on_c, 1, 85, 105
2, 52080, Note_on_c, 1, 85, 0
2, 52080, Note_on_c, 1, 61, 0
2, 52080, Note_on_c, 1, 66, 0
2, 52080, Note_on_c, 1, 69, 0
2, 52080, Note_on_c, 1, 83, 105
2, 52110, Note_on_c, 1, 83, 0
2, 52110, Note_on_c, 1, 88, 105
2, 52140, Note_on_c, 1, 88, 0
2, 52140, Note_on_c, 1, 56, 105
2, 52140, Note_on_c, 1, 64, 105
2, 52140, Note_on_c, 1, 59, 105
2, 52140, Note_on_c, 1, 83, 105
2, 52170, Note_on_c, 1, 83, 0
2, 52170, Note_on_c, 1, 80, 105
2, 52200, Note_on_c, 1, 80, 0
2, 52200, Note_on_c, 1, 78, 105
2, 52230, Note_on_c, 1, 78, 0
2, 52230, Note_on_c, 1, 76, 105
2, 52260, Note_on_c, 1, 76, 0
2, 52260, Note_on_c, 1, 78, 105
2, 52290, Note_on_c, 1, 78, 0
2, 52290, Note_on_c, 1, 76, 105
2, 52320, Note_on_c, 1, 56, 0
2, 52320, Note_on_c, 1, 59, 0
2, 52320, Note_on_c, 1, 64, 0
2, 52380, Note_on_c, 1, 76, 0
2, 52380, Note_on_c, 1, 73, 105
2, 52410, Note_on_c, 1, 73, 0
2, 52410, Note_on_c, 1, 56, 105
2, 52410, Note_on_c, 1, 64, 105
2, 52410, Note_on_c, 1, 59, 105
2, 52410, Note_on_c, 1, 71, 105
2, 52440, Note_on_c, 1, 71, 0
2, 52440, Note_on_c, 1, 68, 105
2, 52470, Note_on_c, 1, 68, 0
2, 52470, Note_on_c, 1, 64, 105
2, 52500, Note_on_c, 1, 64, 0
2, 52500, Note_on_c, 1, 66, 105
2, 52530, Note_on_c, 1, 66, 0
2, 52530, Note_on_c, 1, 68, 105
2, 52560, Note_on_c, 1, 68, 0
2, 52560, Note_on_c, 1, 71, 105
2, 52590, Note_on_c, 1, 71, 0
2, 52590, Note_on_c, 1, 68, 105
2, 52680, Note_on_c, 1, 68, 0
2, 52740, Note_on_c, 1, 71, 105
2, 52740, Note_on_c, 1, 66, 105
2, 52770, Note_on_c, 1, 66, 0
2, 52770, Note_on_c, 1, 71, 0
2, 52770, Note_on_c, 1, 64, 105
2, 52795, Note_on_c, 1, 66, 105
2, 52800, Note_on_c, 1, 64, 0
2, 52800, Note_on_c, 1, 64, 0
2, 52800, Note_on_c, 1, 56, 0
2, 52800, Note_on_c, 1, 59, 0
2, 52800, Note_on_c, 1, 71, 105
2, 52800, Note_on_c, 1, 68, 105
2, 52825, Note_on_c, 1, 66, 0
2, 52860, Note_on_c, 1, 56, 90
2, 52860, Note_on_c, 1, 59, 90
2, 52890, Note_on_c, 1, 59, 0
2, 52890, Note_on_c, 1, 71, 0
2, 52890, Note_on_c, 1, 68, 0
2, 52890, Note_on_c, 1, 56, 0
2, 52890, Note_on_c, 1, 66, 105
2, 52890, Note_on_c, 1, 71, 105
2, 52920, Note_on_c, 1, 71, 0
2, 52920, Note_on_c, 1, 66, 0
2, 52950, Note_on_c, 1, 61, 105
2, 52950, Note_on_c, 1, 57, 105
2, 52975, Note_on_c, 1, 64, 105
2, 52980, Note_on_c, 1, 57, 0
2, 52980, Note_on_c, 1, 61, 0
2, 52980, Note_on_c, 1, 66, 105
2, 52980, Note_on_c, 1, 69, 105
2, 53005, Note_on_c, 1, 64, 0
2, 53070, Note_on_c, 1, 69, 0
2, 53070, Note_on_c, 1, 66, 0
2, 53070, Note_on_c, 1, 64, 105
2, 53070, Note_on_c, 1, 69, 105
2, 53100, Note_on_c, 1, 69, 0
2, 53100, Note_on_c, 1, 64, 0
2, 53100, Note_on_c, 1, 62, 105
2, 53130, Note_on_c, 1, 62, 0
2, 53130, Note_on_c, 1, 61, 105
2, 53160, Note_on_c, 1, 61, 0
2, 53160, Note_on_c, 1, 59, 105
2, 53160, Note_on_c, 1, 56, 105
2, 53190, Note_on_c, 1, 56, 0
2, 53190, Note_on_c, 1, 59, 0
2, 53190, Note_on_c, 1, 66, 105
2, 53220, Note_on_c, 1, 66, 0
2, 53250, Note_on_c, 1, 56, 85
2, 53250, Note_on_c, 1, 61, 85
2, 53250, Note_on_c, 1, 64, 85
2, 53250, Note_on_c, 1, 66, 85
2, 53300, Note_on_c, 1, 71, 105
2, 53320, Note_on_c, 1, 71, 0
2, 53320, Note_on_c, 1, 76, 105
2, 53340, Note_on_c, 1, 76, 0
2, 53340, Note_on_c, 1, 80, 105
2, 53360, Note_on_c, 1, 80, 0
2, 53360, Note_on_c, 1, 83, 105
2, 53380, Note_on_c, 1, 83, 0
2, 53380, Note_on_c, 1, 85, 105
2, 53400, Note_on_c, 1, 85, 0
2, 53400, Note_on_c, 1, 88, 105
2, 53420, Note_on_c, 1, 88, 0
2, 53420, Note_on_c, 1, 83, 105
2, 53440, Note_on_c, 1, 83, 0
2, 53440, Note_on_c, 1, 88, 105
2, 53460, Note_on_c, 1, 88, 0
2, 53460, Note_on_c, 1, 83, 105
2, 53480, Note_on_c, 1, 83, 0
2, 53480, Note_on_c, 1, 80, 105
2, 53500, Note_on_c, 1, 80, 0
2, 53500, Note_on_c, 1, 76, 105
2, 53520, Note_on_c, 1, 76, 0
2, 53520, Note_on_c, 1, 88, 105
2, 53540, Note_on_c, 1, 88, 0
2, 53540, Note_on_c, 1, 83, 105
2, 53560, Note_on_c, 1, 83, 0
2, 53560, Note_on_c, 1, 88, 105
2, 53580, Note_on_c, 1, 88, 0
2, 53580, Note_on_c, 1, 83, 105
2, 53600, Note_on_c, 1, 83, 0
2, 53600, Note_on_c, 1, 80, 105
2, 53620, Note_on_c, 1, 80, 0
2, 53620, Note_on_c, 1, 76, 105
2, 53640, Note_on_c, 1, 76, 0
2, 53640, Note_on_c, 1, 78, 105
2, 53670, Note_on_c, 1, 78, 0
2, 53670, Note_on_c, 1, 80, 105
2, 53700, Note_on_c, 1, 80, 0
2, 53760, Note_on_c, 1, 64, 0
2, 53760, Note_on_c, 1, 56, 0
2, 53760, Note_on_c, 1, 61, 0
2, 53760, Note_on_c, 1, 66, 0
2, 53760, Note_on_c, 1, 61, 105
2, 53760, Note_on_c, 1, 66, 105
2, 53820, Note_on_c, 1, 66, 0
2, 53820, Note_on_c, 1, 61, 0
2, 53820, Note_on_c, 1, 92, 105
2, 53820, Note_on_c, 1, 80, 105
2, 53840, Note_on_c, 1, 80, 0
2, 53840, Note_on_c, 1, 92, 0
2, 53850, Note_on_c, 1, 93, 105
2, 53850, Note_on_c, 1, 81, 105
2, 53870, Note_on_c, 1, 81, 0
2, 53870, Note_on_c, 1, 93, 0
2, 53880, Note_on_c, 1, 57, 105
2, 53880, Note_on_c, 1, 61, 105
2, 53940, Note_on_c, 1, 61, 0
2, 53940, Note_on_c, 1, 57, 0
2, 53940, Note_on_c, 1, 80, 105
2, 53940, Note_on_c, 1, 92, 105
2, 53960, Note_on_c, 1, 92, 0
2, 53960, Note_on_c, 1, 80, 0
2, 53970, Note_on_c, 1, 81, 105
2, 53970, Note_on_c, 1, 93, 105
2, 53990, Note_on_c, 1, 93, 0
2, 53990, Note_on_c, 1, 81, 0
2, 54000, Note_on_c, 1, 66, 105
2, 54000, Note_on_c, 1, 63, 105
2, 54000, Note_on_c, 1, 59, 105
2, 54060, Note_on_c, 1, 59, 0
2, 54060, Note_on_c, 1, 63, 0
2, 54060, Note_on_c, 1, 66, 0
2, 54060, Note_on_c, 1, 80, 105
2, 54060, Note_on_c, 1, 92, 105
2, 54080, Note_on_c, 1, 92, 0
2, 54080, Note_on_c, 1, 80, 0
2, 54090, Note_on_c, 1, 93, 105
2, 54090, Note_on_c, 1, 81, 105
2, 54110, Note_on_c, 1, 81, 0
2, 54110, Note_on_c, 1, 93, 0
2, 54120, Note_on_c, 1, 59, 105
2, 54120, Note_on_c, 1, 67, 105
2, 54120, Note_on_c, 1, 63, 105
2, 54150, Note_on_c, 1, 63, 0
2, 54150, Note_on_c, 1, 67, 0
2, 54150, Note_on_c, 1, 59, 0
2, 54150, Note_on_c, 1, 95, 105
2, 54150, Note_on_c, 1, 83, 105
2, 54170, Note_on_c, 1, 83, 0
2, 54170, Note_on_c, 1, 95, 0
2, 54180, Note_on_c, 1, 97, 105
2, 54180, Note_on_c, 1, 85, 105
2, 54200, Note_on_c, 1, 85, 0
2, 54200, Note_on_c, 1, 97, 0
2, 54210, Note_on_c, 1, 59, 105
2, 54210, Note_on_c, 1, 61, 105
2, 54210, Note_on_c, 1, 64, 105
2, 54210, Note_on_c, 1, 68, 105
2, 54210, Note_on_c, 1, 100, 105
2, 54210, Note_on_c, 1, 88, 105
2, 54300, Note_on_c, 1, 88, 0
2, 54300, Note_on_c, 1, 100, 0
2, 54300, Note_on_c, 1, 85, 105
2, 54330, Note_on_c, 1, 85, 0
2, 54360, Note_on_c, 1, 83, 105
2, 54390, Note_on_c, 1, 83, 0
2, 54420, Note_on_c, 1, 85, 105
2, 54450, Note_on_c, 1, 85, 0
2, 54540, Note_on_c, 1, 83, 105
2, 54570, Note_on_c, 1, 83, 0
2, 54570, Note_on_c, 1, 88, 105
2, 54600, Note_on_c, 1, 88, 0
2, 54600, Note_on_c, 1, 83, 105
2, 54630, Note_on_c, 1, 83, 0
2, 54630, Note_on_c, 1, 80, 105
2, 54660, Note_on_c, 1, 80, 0
2, 54660, Note_on_c, 1, 68, 0
2, 54660, Note_on_c, 1, 59, 0
2, 54660, Note_on_c, 1, 61, 0
2, 54660, Note_on_c, 1, 64, 0
2, 54660, Note_on_c, 1, 76, 105
2, 54690, Note_on_c, 1, 76, 0
2, 54720, Note_on_c, 1, 78, 105
2, 54750, Note_on_c, 1, 78, 0
2, 54750, Note_on_c, 1, 78, 105
2, 54780, Note_on_c, 1, 78, 0
2, 54780, Note_on_c, 1, 76, 105
2, 54810, Note_on_c, 1, 76, 0
2, 54810, Note_on_c, 1, 73, 105
2, 54840, Note_on_c, 1, 73, 0
2, 54860, Note_on_c, 1, 74, 105
2, 54870, Note_on_c, 1, 57, 105
2, 54870, Note_on_c, 1, 61, 105
2, 54870, Note_on_c, 1, 64, 105
2, 54880, Note_on_c, 1, 74, 0
2, 54880, Note_on_c, 1, 78, 105
2, 54900, Note_on_c, 1, 78, 0
2, 54900, Note_on_c, 1, 64, 0
2, 54900, Note_on_c, 1, 61, 0
2, 54900, Note_on_c, 1, 57, 0
2, 54900, Note_on_c, 1, 81, 105
2, 54930, Note_on_c, 1, 81, 0
2, 54930, Note_on_c, 1, 63, 105
2, 54930, Note_on_c, 1, 56, 105
2, 54930, Note_on_c, 1, 59, 105
2, 54930, Note_on_c, 1, 88, 105
2, 54960, Note_on_c, 1, 88, 0
2, 54960, Note_on_c, 1, 85, 105
2, 54990, Note_on_c, 1, 85, 0
2, 54990, Note_on_c, 1, 88, 105
2, 55020, Note_on_c, 1, 88, 0
2, 55020, Note_on_c, 1, 92, 105
2, 55050, Note_on_c, 1, 92, 0
2, 55050, Note_on_c, 1, 95, 105
2, 55080, Note_on_c, 1, 95, 0
2, 55080, Note_on_c, 1, 97, 105
2, 55110, Note_on_c, 1, 97, 0
2, 55140, Note_on_c, 1, 97, 105
2, 55170, Note_on_c, 1, 97, 0
2, 55200, Note_on_c, 1, 63, 0
2, 55200, Note_on_c, 1, 56, 0
2, 55200, Note_on_c, 1, 59, 0
2, 55200, Note_on_c, 1, 66, 105
2, 55200, Note_on_c, 1, 59, 105
2, 55200, Note_on_c, 1, 61, 105
2, 55200, Note_on_c, 1, 56, 105
2, 55200, Note_on_c, 1, 98, 105
2, 55230, Note_on_c, 1, 98, 0
2, 55230, Note_on_c, 1, 97, 105
2, 55260, Note_on_c, 1, 97, 0
2, 55290, Note_on_c, 1, 94, 105
2, 55320, Note_on_c, 1, 94, 0
2, 55350, Note_on_c, 1, 97, 105
2, 55380, Note_on_c, 1, 97, 0
2, 55380, Note_on_c, 1, 95, 105
2, 55410, Note_on_c, 1, 95, 0
2, 55410, Note_on_c, 1, 92, 105
2, 55440, Note_on_c, 1, 92, 0
2, 55440, Note_on_c, 1, 90, 105
2, 55470, Note_on_c, 1, 90, 0
2, 55470, Note_on_c, 1, 88, 105
2, 55500, Note_on_c, 1, 88, 0
2, 55500, Note_on_c, 1, 85, 105
2, 55530, Note_on_c, 1, 85, 0
2, 55530, Note_on_c, 1, 83, 105
2, 55560, Note_on_c, 1, 83, 0
2, 55560, Note_on_c, 1, 80, 105
2, 55590, Note_on_c, 1, 80, 0
2, 55590, Note_on_c, 1, 78, 105
2, 55620, Note_on_c, 1, 78, 0
2, 55620, Note_on_c, 1, 76, 105
2, 55650, Note_on_c, 1, 76, 0
2, 55650, Note_on_c, 1, 78, 105
2, 55680, Note_on_c, 1, 78, 0
2, 55680, Note_on_c, 1, 56, 0
2, 55680, Note_on_c, 1, 66, 0
2, 55680, Note_on_c, 1, 59, 0
2, 55680, Note_on_c, 1, 61, 0
2, 55680, Note_on_c, 1, 90, 115
2, 55680, Note_on_c, 1, 93, 115
2, 55680, Note_on_c, 1, 78, 115
2, 55680, Note_on_c, 1, 73, 115
2, 55680, Note_on_c, 1, 81, 115
2, 55800, Note_on_c, 1, 81, 0
2, 55800, Note_on_c, 1, 78, 0
2, 55800, Note_on_c, 1, 90, 0
2, 55800, Note_on_c, 1, 93, 0
2, 55800, Note_on_c, 1, 73, 0
2, 55800, Note_on_c, 1, 88, 115
2, 55800, Note_on_c, 1, 92, 115
2, 55800, Note_on_c, 1, 71, 115
2, 55800, Note_on_c, 1, 76, 115
2, 55800, Note_on_c, 1, 80, 115
2, 55830, Note_on_c, 1, 80, 0
2, 55830, Note_on_c, 1, 71, 0
2, 55830, Note_on_c, 1, 88, 0
2, 55830, Note_on_c, 1, 92, 0
2, 55830, Note_on_c, 1, 76, 0
2, 55860, Note_on_c, 1, 87, 115
2, 55860, Note_on_c, 1, 90, 115
2, 55860, Note_on_c, 1, 75, 115
2, 55860, Note_on_c, 1, 68, 115
2, 55860, Note_on_c, 1, 78, 115
2, 55890, Note_on_c, 1, 78, 0
2, 55890, Note_on_c, 1, 75, 0
2, 55890, Note_on_c, 1, 87, 0
2, 55890, Note_on_c, 1, 90, 0
2, 55890, Note_on_c, 1, 68, 0
2, 55920, Note_on_c, 1, 83, 115
2, 55920, Note_on_c, 1, 88, 115
2, 55920, Note_on_c, 1, 71, 115
2, 55920, Note_on_c, 1, 66, 115
2, 55920, Note_on_c, 1, 76, 115
2, 55920, Note_on_c, 1, 69, 115
2, 56040, Note_on_c, 1, 69, 0
2, 56040, Note_on_c, 1, 88, 0
2, 56040, Note_on_c, 1, 71, 0
2, 56040, Note_on_c, 1, 83, 0
2, 56040, Note_on_c, 1, 76, 0
2, 56040, Note_on_c, 1, 66, 0
2, 56040, Note_on_c, 1, 87, 115
2, 56040, Note_on_c, 1, 63, 115
2, 56040, Note_on_c, 1, 68, 115
2, 56040, Note_on_c, 1, 75, 115
2, 56130, Note_on_c, 1, 75, 0
2, 56130, Note_on_c, 1, 87, 0
2, 56130, Note_on_c, 1, 63, 0
2, 56130, Note_on_c, 1, 68, 0
2, 56130, Note_on_c, 1, 59, 115
2, 56130, Note_on_c, 1, 64, 115
2, 56130, Note_on_c, 1, 68, 115
2, 56130, Note_on_c, 1, 71, 115
2, 56130, Note_on_c, 1, 76, 115
2, 56160, Note_on_c, 1, 76, 0
2, 56160, Note_on_c, 1, 68, 0
2, 56160, Note_on_c, 1, 59, 0
2, 56160, Note_on_c, 1, 64, 0
2, 56160, Note_on_c, 1, 71, 0
2, 56160, End_track
3, 0, Start_track
3, 0, MIDI_port, 0
3, 0, Title_t, "by David Benoit"
3, 0, Program_c, 9, 0
3, 0, Control_c, 9, 7, 100
3, 0, Control_c, 9, 10, 64
3, 480, Control_c, 9, 121, 0
3, 480, Control_c, 9, 91, 60
3, 480, Note_on_c, 9, 62, 80
3, 480, Note_on_c, 9, 56, 70
3, 510, Note_on_c, 9, 62, 0
3, 570, Note_on_c, 9, 62, 80
3, 600, Note_on_c, 9, 62, 0
3, 600, Note_on_c, 9, 56, 0
3, 600, Note_on_c, 9, 62, 80
3, 600, Note_on_c, 9, 56, 70
3, 630, Note_on_c, 9, 62, 0
3, 660, Note_on_c, 9, 63, 80
3, 690, Note_on_c, 9, 63, 0
3, 720, Note_on_c, 9, 56, 0
3, 720, Note_on_c, 9, 62, 80
3, 720, Note_on_c, 9, 56, 70
3, 750, Note_on_c, 9, 62, 0
3, 810, Note_on_c, 9, 62, 80
3, 840, Note_on_c, 9, 62, 0
3, 840, Note_on_c, 9, 56, 0
3, 840, Note_on_c, 9, 62, 80
3, 840, Note_on_c, 9, 56, 70
3, 870, Note_on_c, 9, 62, 0
3, 900, Note_on_c, 9, 63, 80
3, 930, Note_on_c, 9, 63, 0
3, 960, Note_on_c, 9, 56, 0
3, 960, Note_on_c, 9, 62, 80
3, 960, Note_on_c, 9, 56, 70
3, 990, Note_on_c, 9, 62, 0
3, 1050, Note_on_c, 9, 62, 80
3, 1080, Note_on_c, 9, 62, 0
3, 1080, Note_on_c, 9, 56, 0
3, 1080, Note_on_c, 9, 62, 80
3, 1080, Note_on_c, 9, 56, 70
3, 1110, Note_on_c, 9, 62, 0
3, 1140, Note_on_c, 9, 63, 80
3, 1170, Note_on_c, 9, 63, 0
3, 1200, Note_on_c, 9, 56, 0
3, 1200, Note_on_c, 9, 62, 80
3, 1200, Note_on_c, 9, 56, 70
3, 1230, Note_on_c, 9, 62, 0
3, 1290, Note_on_c, 9, 62, 80
3, 1320, Note_on_c, 9, 62, 0
3, 1320, Note_on_c, 9, 56, 0
3, 1320, Note_on_c, 9, 62, 80
3, 1320, Note_on_c, 9, 56, 70
3, 1350, Note_on_c, 9, 62, 0
3, 1380, Note_on_c, 9, 63, 80
3, 1410, Note_on_c, 9, 63, 0
3, 1440, Note_on_c, 9, 56, 0
3, 1440, Note_on_c, 9, 56, 70
3, 1470, Note_on_c, 9, 62, 80
3, 1485, Note_on_c, 9, 62, 0
3, 1485, Note_on_c, 9, 62, 80
3, 1500, Note_on_c, 9, 62, 0
3, 1500, Note_on_c, 9, 62, 80
3, 1515, Note_on_c, 9, 62, 0
3, 1530, Note_on_c, 9, 62, 80
3, 1545, Note_on_c, 9, 62, 0
3, 1560, Note_on_c, 9, 56, 0
3, 1560, Note_on_c, 9, 63, 80
3, 1560, Note_on_c, 9, 56, 70
3, 1575, Note_on_c, 9, 63, 0
3, 1620, Note_on_c, 9, 63, 80
3, 1650, Note_on_c, 9, 63, 0
3, 1680, Note_on_c, 9, 56, 0
3, 1680, Note_on_c, 9, 62, 80
3, 1680, Note_on_c, 9, 56, 70
3, 1710, Note_on_c, 9, 62, 0
3, 1770, Note_on_c, 9, 62, 80
3, 1800, Note_on_c, 9, 62, 0
3, 1800, Note_on_c, 9, 56, 0
3, 1800, Note_on_c, 9, 62, 80
3, 1800, Note_on_c, 9, 56, 70
3, 1830, Note_on_c, 9, 62, 0
3, 1860, Note_on_c, 9, 63, 80
3, 1890, Note_on_c, 9, 63, 0
3, 1890, Note_on_c, 9, 63, 80
3, 1920, Note_on_c, 9, 63, 0
3, 1920, Note_on_c, 9, 56, 0
3, 1920, Note_on_c, 9, 62, 80
3, 1920, Note_on_c, 9, 56, 70
3, 1950, Note_on_c, 9, 62, 0
3, 2010, Note_on_c, 9, 62, 80
3, 2040, Note_on_c, 9, 62, 0
3, 2040, Note_on_c, 9, 56, 0
3, 2040, Note_on_c, 9, 62, 80
3, 2040, Note_on_c, 9, 56, 70
3, 2070, Note_on_c, 9, 62, 0
3, 2130, Note_on_c, 9, 63, 80
3, 2160, Note_on_c, 9, 63, 0
3, 2160, Note_on_c, 9, 56, 0
3, 2160, Note_on_c, 9, 63, 80
3, 2160, Note_on_c, 9, 56, 70
3, 2190, Note_on_c, 9, 63, 0
3, 2190, Note_on_c, 9, 62, 80
3, 2220, Note_on_c, 9, 62, 0
3, 2250, Note_on_c, 9, 62, 60
3, 2280, Note_on_c, 9, 62, 0
3, 2280, Note_on_c, 9, 56, 0
3, 2280, Note_on_c, 9, 62, 80
3, 2280, Note_on_c, 9, 56, 70
3, 2310, Note_on_c, 9, 62, 0
3, 2340, Note_on_c, 9, 62, 60
3, 2370, Note_on_c, 9, 62, 0
3, 2370, Note_on_c, 9, 62, 80
3, 2400, Note_on_c, 9, 62, 0
3, 2400, Note_on_c, 9, 56, 0
3, 2400, Note_on_c, 9, 62, 80
3, 2400, Note_on_c, 9, 56, 70
3, 2430, Note_on_c, 9, 62, 0
3, 2490, Note_on_c, 9, 62, 80
3, 2520, Note_on_c, 9, 62, 0
3, 2520, Note_on_c, 9, 56, 0
3, 2520, Note_on_c, 9, 63, 80
3, 2520, Note_on_c, 9, 56, 70
3, 2550, Note_on_c, 9, 63, 0
3, 2580, Note_on_c, 9, 63, 80
3, 2610, Note_on_c, 9, 63, 0
3, 2640, Note_on_c, 9, 56, 0
3, 2640, Note_on_c, 9, 62, 80
3, 2640, Note_on_c, 9, 56, 70
3, 2670, Note_on_c, 9, 62, 0
3, 2760, Note_on_c, 9, 56, 0
3, 2760, Note_on_c, 9, 62, 80
3, 2760, Note_on_c, 9, 56, 70
3, 2790, Note_on_c, 9, 62, 0
3, 2820, Note_on_c, 9, 63, 80
3, 2850, Note_on_c, 9, 63, 0
3, 2850, Note_on_c, 9, 63, 80
3, 2880, Note_on_c, 9, 63, 0
3, 2880, Note_on_c, 9, 56, 0
3, 2880, Note_on_c, 9, 62, 80
3, 2880, Note_on_c, 9, 56, 70
3, 2910, Note_on_c, 9, 62, 0
3, 2970, Note_on_c, 9, 63, 80
3, 3000, Note_on_c, 9, 63, 0
3, 3000, Note_on_c, 9, 56, 0
3, 3000, Note_on_c, 9, 62, 80
3, 3000, Note_on_c, 9, 56, 70
3, 3030, Note_on_c, 9, 62, 0
3, 3060, Note_on_c, 9, 63, 80
3, 3090, Note_on_c, 9, 63, 0
3, 3120, Note_on_c, 9, 56, 0
3, 3120, Note_on_c, 9, 62, 80
3, 3120, Note_on_c, 9, 56, 70
3, 3150, Note_on_c, 9, 62, 0
3, 3210, Note_on_c, 9, 63, 80
3, 3240, Note_on_c, 9, 63, 0
3, 3240, Note_on_c, 9, 56, 0
3, 3240, Note_on_c, 9, 62, 80
3, 3240, Note_on_c, 9, 56, 70
3, 3270, Note_on_c, 9, 62, 0
3, 3300, Note_on_c, 9, 63, 80
3, 3330, Note_on_c, 9, 63, 0
3, 3330, Note_on_c, 9, 62, 80
3, 3360, Note_on_c, 9, 62, 0
3, 3360, Note_on_c, 9, 56, 0
3, 4409, Note_on_c, 9, 63, 80
3, 4439, Note_on_c, 9, 63, 0
3, 4439, Note_on_c, 9, 60, 80
3, 4469, Note_on_c, 9, 60, 0
3, 4499, Note_on_c, 9, 63, 80
3, 4529, Note_on_c, 9, 63, 0
3, 4529, Note_on_c, 9, 63, 80
3, 4559, Note_on_c, 9, 63, 0
3, 4559, Note_on_c, 9, 60, 80
3, 4589, Note_on_c, 9, 60, 0
3, 4649, Note_on_c, 9, 63, 80
3, 4679, Note_on_c, 9, 63, 0
3, 4679, Note_on_c, 9, 62, 80
3, 4709, Note_on_c, 9, 62, 0
3, 4739, Note_on_c, 9, 63, 80
3, 4769, Note_on_c, 9, 63, 0
3, 4769, Note_on_c, 9, 63, 80
3, 4799, Note_on_c, 9, 63, 0
3, 4799, Note_on_c, 9, 60, 80
3, 4829, Note_on_c, 9, 60, 0
3, 4889, Note_on_c, 9, 63, 80
3, 4919, Note_on_c, 9, 63, 0
3, 4919, Note_on_c, 9, 62, 80
3, 4949, Note_on_c, 9, 62, 0
3, 4979, Note_on_c, 9, 63, 80
3, 5009, Note_on_c, 9, 63, 0
3, 5009, Note_on_c, 9, 60, 80
3, 5039, Note_on_c, 9, 60, 0
3, 5129, Note_on_c, 9, 63, 80
3, 5159, Note_on_c, 9, 63, 0
3, 5159, Note_on_c, 9, 63, 80
3, 5189, Note_on_c, 9, 63, 0
3, 5189, Note_on_c, 9, 60, 80
3, 5219, Note_on_c, 9, 60, 0
3, 5249, Note_on_c, 9, 63, 80
3, 5279, Note_on_c, 9, 63, 0
3, 5279, Note_on_c, 9, 60, 80
3, 5309, Note_on_c, 9, 60, 0
3, 5369, Note_on_c, 9, 63, 80
3, 5399, Note_on_c, 9, 63, 0
3, 5399, Note_on_c, 9, 62, 80
3, 5429, Note_on_c, 9, 62, 0
3, 5459, Note_on_c, 9, 63, 80
3, 5489, Note_on_c, 9, 63, 0
3, 5519, Note_on_c, 9, 60, 80
3, 5549, Note_on_c, 9, 60, 0
3, 5609, Note_on_c, 9, 63, 80
3, 5639, Note_on_c, 9, 63, 0
3, 5639, Note_on_c, 9, 62, 80
3, 5669, Note_on_c, 9, 62, 0
3, 5699, Note_on_c, 9, 63, 80
3, 5729, Note_on_c, 9, 63, 0
3, 5729, Note_on_c, 9, 63, 80
3, 5759, Note_on_c, 9, 63, 0
3, 5789, Note_on_c, 9, 63, 80
3, 5819, Note_on_c, 9, 63, 0
3, 5819, Note_on_c, 9, 63, 80
3, 5849, Note_on_c, 9, 63, 0
3, 5849, Note_on_c, 9, 60, 80
3, 5879, Note_on_c, 9, 60, 0
3, 5999, Note_on_c, 9, 60, 80
3, 6029, Note_on_c, 9, 60, 0
3, 6029, Note_on_c, 9, 62, 80
3, 6059, Note_on_c, 9, 62, 0
3, 6059, Note_on_c, 9, 60, 80
3, 6089, Note_on_c, 9, 60, 0
3, 6119, Note_on_c, 9, 62, 80
3, 6149, Note_on_c, 9, 62, 0
3, 6149, Note_on_c, 9, 62, 80
3, 6179, Note_on_c, 9, 62, 0
3, 6179, Note_on_c, 9, 60, 80
3, 6209, Note_on_c, 9, 60, 0
3, 6240, Note_on_c, 9, 63, 80
3, 6270, Note_on_c, 9, 63, 0
3, 6329, Note_on_c, 9, 63, 80
3, 6359, Note_on_c, 9, 63, 0
3, 6359, Note_on_c, 9, 60, 80
3, 6389, Note_on_c, 9, 60, 0
3, 6419, Note_on_c, 9, 63, 80
3, 6449, Note_on_c, 9, 63, 0
3, 6449, Note_on_c, 9, 63, 80
3, 6479, Note_on_c, 9, 63, 0
3, 6479, Note_on_c, 9, 60, 80
3, 6509, Note_on_c, 9, 60, 0
3, 6569, Note_on_c, 9, 63, 80
3, 6599, Note_on_c, 9, 63, 0
3, 6599, Note_on_c, 9, 62, 80
3, 6629, Note_on_c, 9, 62, 0
3, 6659, Note_on_c, 9, 63, 80
3, 6689, Note_on_c, 9, 63, 0
3, 6689, Note_on_c, 9, 63, 80
3, 6719, Note_on_c, 9, 63, 0
3, 6719, Note_on_c, 9, 60, 80
3, 6749, Note_on_c, 9, 60, 0
3, 6809, Note_on_c, 9, 63, 80
3, 6839, Note_on_c, 9, 63, 0
3, 6839, Note_on_c, 9, 62, 80
3, 6869, Note_on_c, 9, 62, 0
3, 6899, Note_on_c, 9, 63, 80
3, 6929, Note_on_c, 9, 63, 0
3, 6929, Note_on_c, 9, 60, 80
3, 6959, Note_on_c, 9, 60, 0
3, 7049, Note_on_c, 9, 63, 80
3, 7079, Note_on_c, 9, 63, 0
3, 7079, Note_on_c, 9, 63, 80
3, 7109, Note_on_c, 9, 63, 0
3, 7109, Note_on_c, 9, 60, 80
3, 7139, Note_on_c, 9, 60, 0
3, 7169, Note_on_c, 9, 63, 80
3, 7199, Note_on_c, 9, 63, 0
3, 7199, Note_on_c, 9, 60, 80
3, 7229, Note_on_c, 9, 60, 0
3, 7289, Note_on_c, 9, 63, 80
3, 7319, Note_on_c, 9, 63, 0
3, 7319, Note_on_c, 9, 62, 80
3, 7349, Note_on_c, 9, 62, 0
3, 7379, Note_on_c, 9, 63, 80
3, 7409, Note_on_c, 9, 63, 0
3, 7439, Note_on_c, 9, 60, 80
3, 7469, Note_on_c, 9, 60, 0
3, 7529, Note_on_c, 9, 63, 80
3, 7559, Note_on_c, 9, 63, 0
3, 7559, Note_on_c, 9, 62, 80
3, 7589, Note_on_c, 9, 62, 0
3, 7619, Note_on_c, 9, 63, 80
3, 7649, Note_on_c, 9, 63, 0
3, 7649, Note_on_c, 9, 63, 80
3, 7679, Note_on_c, 9, 63, 0
3, 7709, Note_on_c, 9, 63, 80
3, 7739, Note_on_c, 9, 63, 0
3, 7739, Note_on_c, 9, 63, 80
3, 7769, Note_on_c, 9, 63, 0
3, 7769, Note_on_c, 9, 60, 80
3, 7799, Note_on_c, 9, 60, 0
3, 7919, Note_on_c, 9, 60, 80
3, 7949, Note_on_c, 9, 60, 0
3, 7949, Note_on_c, 9, 62, 80
3, 7979, Note_on_c, 9, 62, 0
3, 7979, Note_on_c, 9, 60, 80
3, 8009, Note_on_c, 9, 60, 0
3, 8039, Note_on_c, 9, 62, 80
3, 8069, Note_on_c, 9, 62, 0
3, 8069, Note_on_c, 9, 62, 80
3, 8099, Note_on_c, 9, 62, 0
3, 8099, Note_on_c, 9, 60, 80
3, 8129, Note_on_c, 9, 60, 0
3, 8160, Note_on_c, 9, 61, 80
3, 8190, Note_on_c, 9, 61, 0
3, 8220, Note_on_c, 9, 69, 40
3, 8249, Note_on_c, 9, 62, 80
3, 8250, Note_on_c, 9, 69, 0
3, 8250, Note_on_c, 9, 69, 40
3, 8279, Note_on_c, 9, 62, 0
3, 8280, Note_on_c, 9, 69, 0
3, 8280, Note_on_c, 9, 63, 80
3, 8280, Note_on_c, 9, 70, 40
3, 8310, Note_on_c, 9, 70, 0
3, 8310, Note_on_c, 9, 63, 0
3, 8339, Note_on_c, 9, 63, 80
3, 8340, Note_on_c, 9, 69, 40
3, 8369, Note_on_c, 9, 63, 0
3, 8370, Note_on_c, 9, 69, 0
3, 8370, Note_on_c, 9, 69, 40
3, 8400, Note_on_c, 9, 69, 0
3, 8400, Note_on_c, 9, 61, 80
3, 8400, Note_on_c, 9, 70, 40
3, 8430, Note_on_c, 9, 70, 0
3, 8430, Note_on_c, 9, 61, 0
3, 8489, Note_on_c, 9, 62, 80
3, 8519, Note_on_c, 9, 62, 0
3, 8519, Note_on_c, 9, 62, 80
3, 8520, Note_on_c, 9, 69, 40
3, 8549, Note_on_c, 9, 62, 0
3, 8550, Note_on_c, 9, 69, 0
3, 8550, Note_on_c, 9, 69, 40
3, 8579, Note_on_c, 9, 63, 80
3, 8580, Note_on_c, 9, 69, 0
3, 8609, Note_on_c, 9, 63, 0
3, 8639, Note_on_c, 9, 60, 80
3, 8669, Note_on_c, 9, 60, 0
3, 8700, Note_on_c, 9, 69, 40
3, 8729, Note_on_c, 9, 63, 80
3, 8730, Note_on_c, 9, 69, 0
3, 8730, Note_on_c, 9, 69, 40
3, 8759, Note_on_c, 9, 63, 0
3, 8759, Note_on_c, 9, 60, 80
3, 8760, Note_on_c, 9, 69, 0
3, 8760, Note_on_c, 9, 70, 40
3, 8789, Note_on_c, 9, 60, 0
3, 8790, Note_on_c, 9, 70, 0
3, 8819, Note_on_c, 9, 63, 80
3, 8820, Note_on_c, 9, 69, 40
3, 8849, Note_on_c, 9, 63, 0
3, 8850, Note_on_c, 9, 69, 0
3, 8850, Note_on_c, 9, 69, 40
3, 8879, Note_on_c, 9, 60, 80
3, 8880, Note_on_c, 9, 69, 0
3, 8880, Note_on_c, 9, 70, 40
3, 8909, Note_on_c, 9, 60, 0
3, 8910, Note_on_c, 9, 70, 0
3, 8969, Note_on_c, 9, 62, 80
3, 8999, Note_on_c, 9, 62, 0
3, 8999, Note_on_c, 9, 62, 80
3, 9000, Note_on_c, 9, 69, 40
3, 9029, Note_on_c, 9, 62, 0
3, 9030, Note_on_c, 9, 69, 0
3, 9030, Note_on_c, 9, 69, 40
3, 9059, Note_on_c, 9, 63, 80
3, 9060, Note_on_c, 9, 69, 0
3, 9089, Note_on_c, 9, 63, 0
3, 9149, Note_on_c, 9, 62, 80
3, 9164, Note_on_c, 9, 62, 0
3, 9164, Note_on_c, 9, 62, 80
3, 9179, Note_on_c, 9, 62, 0
3, 9179, Note_on_c, 9, 62, 80
3, 9180, Note_on_c, 9, 69, 40
3, 9194, Note_on_c, 9, 62, 0
3, 9209, Note_on_c, 9, 62, 80
3, 9210, Note_on_c, 9, 69, 0
3, 9210, Note_on_c, 9, 69, 40
3, 9224, Note_on_c, 9, 62, 0
3, 9239, Note_on_c, 9, 63, 80
3, 9240, Note_on_c, 9, 69, 0
3, 9240, Note_on_c, 9, 70, 40
3, 9254, Note_on_c, 9, 63, 0
3, 9270, Note_on_c, 9, 70, 0
3, 9299, Note_on_c, 9, 63, 80
3, 9300, Note_on_c, 9, 69, 40
3, 9329, Note_on_c, 9, 63, 0
3, 9330, Note_on_c, 9, 69, 0
3, 9330, Note_on_c, 9, 69, 40
3, 9359, Note_on_c, 9, 60, 80
3, 9360, Note_on_c, 9, 69, 0
3, 9360, Note_on_c, 9, 70, 40
3, 9389, Note_on_c, 9, 60, 0
3, 9390, Note_on_c, 9, 70, 0
3, 9449, Note_on_c, 9, 63, 80
3, 9479, Note_on_c, 9, 63, 0
3, 9479, Note_on_c, 9, 60, 80
3, 9480, Note_on_c, 9, 69, 40
3, 9509, Note_on_c, 9, 60, 0
3, 9510, Note_on_c, 9, 69, 0
3, 9510, Note_on_c, 9, 69, 40
3, 9539, Note_on_c, 9, 63, 80
3, 9540, Note_on_c, 9, 69, 0
3, 9569, Note_on_c, 9, 63, 0
3, 9569, Note_on_c, 9, 63, 80
3, 9599, Note_on_c, 9, 63, 0
3, 9599, Note_on_c, 9, 60, 80
3, 9629, Note_on_c, 9, 60, 0
3, 9660, Note_on_c, 9, 69, 40
3, 9689, Note_on_c, 9, 62, 80
3, 9690, Note_on_c, 9, 69, 0
3, 9690, Note_on_c, 9, 69, 40
3, 9719, Note_on_c, 9, 62, 0
3, 9719, Note_on_c, 9, 62, 80
3, 9720, Note_on_c, 9, 69, 0
3, 9720, Note_on_c, 9, 70, 40
3, 9749, Note_on_c, 9, 62, 0
3, 9750, Note_on_c, 9, 70, 0
3, 9780, Note_on_c, 9, 69, 40
3, 9809, Note_on_c, 9, 63, 80
3, 9810, Note_on_c, 9, 69, 0
3, 9810, Note_on_c, 9, 69, 40
3, 9839, Note_on_c, 9, 63, 0
3, 9839, Note_on_c, 9, 63, 80
3, 9840, Note_on_c, 9, 69, 0
3, 9840, Note_on_c, 9, 70, 40
3, 9869, Note_on_c, 9, 63, 0
3, 9869, Note_on_c, 9, 62, 80
3, 9870, Note_on_c, 9, 70, 0
3, 9899, Note_on_c, 9, 62, 0
3, 9929, Note_on_c, 9, 62, 60
3, 9959, Note_on_c, 9, 62, 0
3, 9959, Note_on_c, 9, 62, 80
3, 9960, Note_on_c, 9, 69, 40
3, 9989, Note_on_c, 9, 62, 0
3, 9990, Note_on_c, 9, 69, 0
3, 9990, Note_on_c, 9, 69, 40
3, 10019, Note_on_c, 9, 62, 60
3, 10020, Note_on_c, 9, 69, 0
3, 10049, Note_on_c, 9, 62, 0
3, 10049, Note_on_c, 9, 62, 80
3, 10079, Note_on_c, 9, 62, 0
3, 10080, Control_c, 9, 10, 64
3, 10080, Control_c, 9, 121, 0
3, 10080, Control_c, 9, 7, 100
3, 10080, Control_c, 9, 91, 40
3, 10080, Program_c, 9, 0
3, 10080, Note_on_c, 9, 62, 80
3, 10080, Note_on_c, 9, 56, 70
3, 10110, Note_on_c, 9, 62, 0
3, 10170, Note_on_c, 9, 62, 80
3, 10200, Note_on_c, 9, 62, 0
3, 10200, Note_on_c, 9, 56, 0
3, 10200, Note_on_c, 9, 62, 80
3, 10200, Note_on_c, 9, 56, 70
3, 10230, Note_on_c, 9, 62, 0
3, 10260, Note_on_c, 9, 63, 80
3, 10290, Note_on_c, 9, 63, 0
3, 10320, Note_on_c, 9, 56, 0
3, 10320, Note_on_c, 9, 62, 80
3, 10320, Note_on_c, 9, 56, 70
3, 10350, Note_on_c, 9, 62, 0
3, 10410, Note_on_c, 9, 62, 80
3, 10440, Note_on_c, 9, 62, 0
3, 10440, Note_on_c, 9, 56, 0
3, 10440, Note_on_c, 9, 62, 80
3, 10440, Note_on_c, 9, 56, 70
3, 10470, Note_on_c, 9, 62, 0
3, 10500, Note_on_c, 9, 63, 80
3, 10530, Note_on_c, 9, 63, 0
3, 10560, Note_on_c, 9, 56, 0
3, 10560, Note_on_c, 9, 62, 80
3, 10560, Note_on_c, 9, 56, 70
3, 10590, Note_on_c, 9, 62, 0
3, 10650, Note_on_c, 9, 62, 80
3, 10680, Note_on_c, 9, 62, 0
3, 10680, Note_on_c, 9, 56, 0
3, 10680, Note_on_c, 9, 62, 80
3, 10680, Note_on_c, 9, 56, 70
3, 10710, Note_on_c, 9, 62, 0
3, 10740, Note_on_c, 9, 63, 80
3, 10770, Note_on_c, 9, 63, 0
3, 10800, Note_on_c, 9, 56, 0
3, 10800, Note_on_c, 9, 62, 80
3, 10800, Note_on_c, 9, 56, 70
3, 10830, Note_on_c, 9, 62, 0
3, 10890, Note_on_c, 9, 62, 80
3, 10920, Note_on_c, 9, 62, 0
3, 10920, Note_on_c, 9, 56, 0
3, 10920, Note_on_c, 9, 62, 80
3, 10920, Note_on_c, 9, 56, 70
3, 10950, Note_on_c, 9, 62, 0
3, 10980, Note_on_c, 9, 63, 80
3, 11010, Note_on_c, 9, 63, 0
3, 11040, Note_on_c, 9, 56, 0
3, 11040, Note_on_c, 9, 56, 70
3, 11070, Note_on_c, 9, 62, 80
3, 11085, Note_on_c, 9, 62, 0
3, 11085, Note_on_c, 9, 62, 80
3, 11100, Note_on_c, 9, 62, 0
3, 11100, Note_on_c, 9, 62, 80
3, 11115, Note_on_c, 9, 62, 0
3, 11130, Note_on_c, 9, 62, 80
3, 11145, Note_on_c, 9, 62, 0
3, 11160, Note_on_c, 9, 56, 0
3, 11160, Note_on_c, 9, 63, 80
3, 11160, Note_on_c, 9, 56, 70
3, 11175, Note_on_c, 9, 63, 0
3, 11220, Note_on_c, 9, 63, 80
3, 11250, Note_on_c, 9, 63, 0
3, 11280, Note_on_c, 9, 56, 0
3, 11280, Note_on_c, 9, 62, 80
3, 11280, Note_on_c, 9, 56, 70
3, 11310, Note_on_c, 9, 62, 0
3, 11370, Note_on_c, 9, 62, 80
3, 11400, Note_on_c, 9, 62, 0
3, 11400, Note_on_c, 9, 56, 0
3, 11400, Note_on_c, 9, 62, 80
3, 11400, Note_on_c, 9, 56, 70
3, 11430, Note_on_c, 9, 62, 0
3, 11460, Note_on_c, 9, 63, 80
3, 11490, Note_on_c, 9, 63, 0
3, 11490, Note_on_c, 9, 63, 80
3, 11520, Note_on_c, 9, 63, 0
3, 11520, Note_on_c, 9, 56, 0
3, 11520, Note_on_c, 9, 62, 80
3, 11520, Note_on_c, 9, 56, 70
3, 11550, Note_on_c, 9, 62, 0
3, 11610, Note_on_c, 9, 62, 80
3, 11640, Note_on_c, 9, 62, 0
3, 11640, Note_on_c, 9, 56, 0
3, 11640, Note_on_c, 9, 62, 80
3, 11640, Note_on_c, 9, 56, 70
3, 11670, Note_on_c, 9, 62, 0
3, 11730, Note_on_c, 9, 63, 80
3, 11760, Note_on_c, 9, 63, 0
3, 11760, Note_on_c, 9, 56, 0
3, 11760, Note_on_c, 9, 63, 80
3, 11760, Note_on_c, 9, 56, 70
3, 11790, Note_on_c, 9, 63, 0
3, 11790, Note_on_c, 9, 62, 80
3, 11820, Note_on_c, 9, 62, 0
3, 11850, Note_on_c, 9, 62, 60
3, 11880, Note_on_c, 9, 62, 0
3, 11880, Note_on_c, 9, 56, 0
3, 11880, Note_on_c, 9, 62, 80
3, 11880, Note_on_c, 9, 56, 70
3, 11910, Note_on_c, 9, 62, 0
3, 11940, Note_on_c, 9, 62, 60
3, 11970, Note_on_c, 9, 62, 0
3, 11970, Note_on_c, 9, 62, 80
3, 12000, Note_on_c, 9, 62, 0
3, 12000, Note_on_c, 9, 56, 0
3, 12000, Control_c, 9, 10, 64
3, 12000, Control_c, 9, 121, 0
3, 12000, Control_c, 9, 7, 100
3, 12000, Control_c, 9, 91, 40
3, 12000, Program_c, 9, 0
3, 12000, Note_on_c, 9, 62, 80
3, 12000, Note_on_c, 9, 56, 70
3, 12030, Note_on_c, 9, 62, 0
3, 12090, Note_on_c, 9, 62, 80
3, 12120, Note_on_c, 9, 62, 0
3, 12120, Note_on_c, 9, 56, 0
3, 12120, Note_on_c, 9, 62, 80
3, 12120, Note_on_c, 9, 56, 70
3, 12150, Note_on_c, 9, 62, 0
3, 12180, Note_on_c, 9, 63, 80
3, 12210, Note_on_c, 9, 63, 0
3, 12240, Note_on_c, 9, 56, 0
3, 12240, Note_on_c, 9, 62, 80
3, 12240, Note_on_c, 9, 56, 70
3, 12270, Note_on_c, 9, 62, 0
3, 12330, Note_on_c, 9, 62, 80
3, 12360, Note_on_c, 9, 62, 0
3, 12360, Note_on_c, 9, 56, 0
3, 12360, Note_on_c, 9, 62, 80
3, 12360, Note_on_c, 9, 56, 70
3, 12390, Note_on_c, 9, 62, 0
3, 12420, Note_on_c, 9, 63, 80
3, 12450, Note_on_c, 9, 63, 0
3, 12480, Note_on_c, 9, 56, 0
3, 12480, Note_on_c, 9, 62, 80
3, 12480, Note_on_c, 9, 56, 70
3, 12510, Note_on_c, 9, 62, 0
3, 12570, Note_on_c, 9, 62, 80
3, 12600, Note_on_c, 9, 62, 0
3, 12600, Note_on_c, 9, 56, 0
3, 12600, Note_on_c, 9, 62, 80
3, 12600, Note_on_c, 9, 56, 70
3, 12630, Note_on_c, 9, 62, 0
3, 12660, Note_on_c, 9, 63, 80
3, 12690, Note_on_c, 9, 63, 0
3, 12720, Note_on_c, 9, 56, 0
3, 12720, Note_on_c, 9, 62, 80
3, 12720, Note_on_c, 9, 56, 70
3, 12750, Note_on_c, 9, 62, 0
3, 12810, Note_on_c, 9, 62, 80
3, 12840, Note_on_c, 9, 62, 0
3, 12840, Note_on_c, 9, 56, 0
3, 12840, Note_on_c, 9, 62, 80
3, 12840, Note_on_c, 9, 56, 70
3, 12870, Note_on_c, 9, 62, 0
3, 12900, Note_on_c, 9, 63, 80
3, 12930, Note_on_c, 9, 63, 0
3, 12960, Note_on_c, 9, 56, 0
3, 12960, Note_on_c, 9, 56, 70
3, 12990, Note_on_c, 9, 62, 80
3, 13005, Note_on_c, 9, 62, 0
3, 13005, Note_on_c, 9, 62, 80
3, 13020, Note_on_c, 9, 62, 0
3, 13020, Note_on_c, 9, 62, 80
3, 13035, Note_on_c, 9, 62, 0
3, 13050, Note_on_c, 9, 62, 80
3, 13065, Note_on_c, 9, 62, 0
3, 13080, Note_on_c, 9, 56, 0
3, 13080, Note_on_c, 9, 63, 80
3, 13080, Note_on_c, 9, 56, 70
3, 13095, Note_on_c, 9, 63, 0
3, 13140, Note_on_c, 9, 63, 80
3, 13170, Note_on_c, 9, 63, 0
3, 13200, Note_on_c, 9, 56, 0
3, 13200, Note_on_c, 9, 62, 80
3, 13200, Note_on_c, 9, 56, 70
3, 13230, Note_on_c, 9, 62, 0
3, 13290, Note_on_c, 9, 62, 80
3, 13320, Note_on_c, 9, 62, 0
3, 13320, Note_on_c, 9, 56, 0
3, 13320, Note_on_c, 9, 62, 80
3, 13320, Note_on_c, 9, 56, 70
3, 13350, Note_on_c, 9, 62, 0
3, 13380, Note_on_c, 9, 63, 80
3, 13410, Note_on_c, 9, 63, 0
3, 13410, Note_on_c, 9, 63, 80
3, 13440, Note_on_c, 9, 63, 0
3, 13440, Note_on_c, 9, 56, 0
3, 13440, Note_on_c, 9, 62, 80
3, 13440, Note_on_c, 9, 56, 70
3, 13470, Note_on_c, 9, 62, 0
3, 13530, Note_on_c, 9, 62, 80
3, 13560, Note_on_c, 9, 62, 0
3, 13560, Note_on_c, 9, 56, 0
3, 13560, Note_on_c, 9, 62, 80
3, 13560, Note_on_c, 9, 56, 70
3, 13590, Note_on_c, 9, 62, 0
3, 13650, Note_on_c, 9, 63, 80
3, 13680, Note_on_c, 9, 63, 0
3, 13680, Note_on_c, 9, 56, 0
3, 13680, Note_on_c, 9, 63, 80
3, 13680, Note_on_c, 9, 56, 70
3, 13710, Note_on_c, 9, 63, 0
3, 13710, Note_on_c, 9, 62, 80
3, 13740, Note_on_c, 9, 62, 0
3, 13770, Note_on_c, 9, 62, 60
3, 13800, Note_on_c, 9, 62, 0
3, 13800, Note_on_c, 9, 56, 0
3, 13800, Note_on_c, 9, 62, 80
3, 13800, Note_on_c, 9, 56, 70
3, 13830, Note_on_c, 9, 62, 0
3, 13860, Note_on_c, 9, 62, 60
3, 13890, Note_on_c, 9, 62, 0
3, 13890, Note_on_c, 9, 62, 80
3, 13920, Note_on_c, 9, 62, 0
3, 13920, Note_on_c, 9, 56, 0
3, 14010, Note_on_c, 9, 63, 80
3, 14040, Note_on_c, 9, 63, 0
3, 14040, Note_on_c, 9, 60, 80
3, 14070, Note_on_c, 9, 60, 0
3, 14100, Note_on_c, 9, 63, 80
3, 14130, Note_on_c, 9, 63, 0
3, 14160, Note_on_c, 9, 62, 80
3, 14190, Note_on_c, 9, 62, 0
3, 14250, Note_on_c, 9, 63, 80
3, 14280, Note_on_c, 9, 63, 0
3, 14280, Note_on_c, 9, 62, 80
3, 14310, Note_on_c, 9, 62, 0
3, 14340, Note_on_c, 9, 63, 80
3, 14370, Note_on_c, 9, 63, 0
3, 14370, Note_on_c, 9, 63, 80
3, 14400, Note_on_c, 9, 63, 0
3, 14400, Note_on_c, 9, 60, 80
3, 14430, Note_on_c, 9, 60, 0
3, 14490, Note_on_c, 9, 63, 80
3, 14520, Note_on_c, 9, 63, 0
3, 14520, Note_on_c, 9, 62, 80
3, 14550, Note_on_c, 9, 62, 0
3, 14610, Note_on_c, 9, 60, 80
3, 14640, Note_on_c, 9, 60, 0
3, 14640, Note_on_c, 9, 63, 80
3, 14670, Note_on_c, 9, 63, 0
3, 14730, Note_on_c, 9, 63, 80
3, 14760, Note_on_c, 9, 63, 0
3, 14760, Note_on_c, 9, 62, 80
3, 14790, Note_on_c, 9, 62, 0
3, 14820, Note_on_c, 9, 63, 80
3, 14850, Note_on_c, 9, 63, 0
3, 14850, Note_on_c, 9, 63, 80
3, 14880, Note_on_c, 9, 63, 0
3, 14880, Note_on_c, 9, 60, 80
3, 14910, Note_on_c, 9, 60, 0
3, 14970, Note_on_c, 9, 63, 80
3, 15000, Note_on_c, 9, 63, 0
3, 15000, Note_on_c, 9, 62, 80
3, 15030, Note_on_c, 9, 62, 0
3, 15060, Note_on_c, 9, 63, 80
3, 15090, Note_on_c, 9, 63, 0
3, 15120, Note_on_c, 9, 60, 80
3, 15150, Note_on_c, 9, 60, 0
3, 15210, Note_on_c, 9, 63, 80
3, 15240, Note_on_c, 9, 63, 0
3, 15240, Note_on_c, 9, 62, 80
3, 15270, Note_on_c, 9, 62, 0
3, 15300, Note_on_c, 9, 63, 80
3, 15330, Note_on_c, 9, 63, 0
3, 15330, Note_on_c, 9, 63, 80
3, 15360, Note_on_c, 9, 63, 0
3, 15390, Note_on_c, 9, 63, 80
3, 15420, Note_on_c, 9, 63, 0
3, 15420, Note_on_c, 9, 63, 80
3, 15450, Note_on_c, 9, 63, 0
3, 15450, Note_on_c, 9, 60, 80
3, 15480, Note_on_c, 9, 60, 0
3, 15600, Note_on_c, 9, 60, 80
3, 15630, Note_on_c, 9, 60, 0
3, 15630, Note_on_c, 9, 62, 80
3, 15660, Note_on_c, 9, 62, 0
3, 15660, Note_on_c, 9, 60, 80
3, 15690, Note_on_c, 9, 60, 0
3, 15720, Note_on_c, 9, 62, 80
3, 15750, Note_on_c, 9, 62, 0
3, 15750, Note_on_c, 9, 62, 80
3, 15780, Note_on_c, 9, 62, 0
3, 15780, Note_on_c, 9, 60, 80
3, 15810, Note_on_c, 9, 60, 0
3, 15840, Note_on_c, 9, 60, 80
3, 15870, Note_on_c, 9, 60, 0
3, 15930, Note_on_c, 9, 63, 80
3, 15960, Note_on_c, 9, 63, 0
3, 15960, Note_on_c, 9, 62, 80
3, 15990, Note_on_c, 9, 62, 0
3, 16020, Note_on_c, 9, 63, 80
3, 16050, Note_on_c, 9, 63, 0
3, 16080, Note_on_c, 9, 60, 80
3, 16110, Note_on_c, 9, 60, 0
3, 16170, Note_on_c, 9, 63, 80
3, 16200, Note_on_c, 9, 63, 0
3, 16200, Note_on_c, 9, 62, 80
3, 16230, Note_on_c, 9, 62, 0
3, 16260, Note_on_c, 9, 63, 80
3, 16290, Note_on_c, 9, 63, 0
3, 16290, Note_on_c, 9, 63, 80
3, 16320, Note_on_c, 9, 63, 0
3, 16320, Note_on_c, 9, 60, 80
3, 16350, Note_on_c, 9, 60, 0
3, 16410, Note_on_c, 9, 63, 80
3, 16440, Note_on_c, 9, 63, 0
3, 16440, Note_on_c, 9, 62, 80
3, 16470, Note_on_c, 9, 62, 0
3, 16530, Note_on_c, 9, 60, 80
3, 16560, Note_on_c, 9, 60, 0
3, 16560, Note_on_c, 9, 63, 80
3, 16590, Note_on_c, 9, 63, 0
3, 16650, Note_on_c, 9, 63, 80
3, 16680, Note_on_c, 9, 63, 0
3, 16680, Note_on_c, 9, 62, 80
3, 16710, Note_on_c, 9, 62, 0
3, 16740, Note_on_c, 9, 63, 80
3, 16770, Note_on_c, 9, 63, 0
3, 16770, Note_on_c, 9, 63, 80
3, 16800, Note_on_c, 9, 63, 0
3, 16800, Note_on_c, 9, 60, 80
3, 16830, Note_on_c, 9, 60, 0
3, 16890, Note_on_c, 9, 63, 80
3, 16920, Note_on_c, 9, 63, 0
3, 16920, Note_on_c, 9, 62, 80
3, 16950, Note_on_c, 9, 62, 0
3, 16980, Note_on_c, 9, 63, 80
3, 17010, Note_on_c, 9, 63, 0
3, 17040, Note_on_c, 9, 60, 80
3, 17070, Note_on_c, 9, 60, 0
3, 17130, Note_on_c, 9, 63, 80
3, 17160, Note_on_c, 9, 63, 0
3, 17160, Note_on_c, 9, 62, 80
3, 17190, Note_on_c, 9, 62, 0
3, 17220, Note_on_c, 9, 63, 80
3, 17250, Note_on_c, 9, 63, 0
3, 17250, Note_on_c, 9, 63, 80
3, 17280, Note_on_c, 9, 63, 0
3, 17310, Note_on_c, 9, 63, 80
3, 17340, Note_on_c, 9, 63, 0
3, 17340, Note_on_c, 9, 63, 80
3, 17370, Note_on_c, 9, 63, 0
3, 17370, Note_on_c, 9, 60, 80
3, 17400, Note_on_c, 9, 60, 0
3, 17520, Note_on_c, 9, 60, 80
3, 17550, Note_on_c, 9, 60, 0
3, 17550, Note_on_c, 9, 62, 80
3, 17580, Note_on_c, 9, 62, 0
3, 17580, Note_on_c, 9, 60, 80
3, 17610, Note_on_c, 9, 60, 0
3, 17640, Note_on_c, 9, 62, 80
3, 17670, Note_on_c, 9, 62, 0
3, 17670, Note_on_c, 9, 62, 80
3, 17700, Note_on_c, 9, 62, 0
3, 17700, Note_on_c, 9, 60, 80
3, 17730, Note_on_c, 9, 60, 0
3, 17760, Note_on_c, 9, 60, 80
3, 17790, Note_on_c, 9, 60, 0
3, 17820, Note_on_c, 9, 69, 40
3, 17850, Note_on_c, 9, 69, 0
3, 17850, Note_on_c, 9, 63, 80
3, 17850, Note_on_c, 9, 69, 40
3, 17880, Note_on_c, 9, 69, 0
3, 17880, Note_on_c, 9, 63, 0
3, 17880, Note_on_c, 9, 60, 80
3, 17880, Note_on_c, 9, 70, 40
3, 17910, Note_on_c, 9, 70, 0
3, 17910, Note_on_c, 9, 60, 0
3, 17940, Note_on_c, 9, 63, 80
3, 17940, Note_on_c, 9, 69, 40
3, 17970, Note_on_c, 9, 69, 0
3, 17970, Note_on_c, 9, 63, 0
3, 17970, Note_on_c, 9, 63, 80
3, 17970, Note_on_c, 9, 69, 40
3, 18000, Note_on_c, 9, 69, 0
3, 18000, Note_on_c, 9, 63, 0
3, 18000, Note_on_c, 9, 60, 80
3, 18000, Note_on_c, 9, 70, 40
3, 18030, Note_on_c, 9, 70, 0
3, 18030, Note_on_c, 9, 60, 0
3, 18090, Note_on_c, 9, 63, 80
3, 18120, Note_on_c, 9, 63, 0
3, 18120, Note_on_c, 9, 62, 80
3, 18120, Note_on_c, 9, 69, 40
3, 18150, Note_on_c, 9, 69, 0
3, 18150, Note_on_c, 9, 62, 0
3, 18150, Note_on_c, 9, 69, 40
3, 18180, Note_on_c, 9, 69, 0
3, 18180, Note_on_c, 9, 63, 80
3, 18210, Note_on_c, 9, 63, 0
3, 18210, Note_on_c, 9, 63, 80
3, 18240, Note_on_c, 9, 63, 0
3, 18240, Note_on_c, 9, 60, 80
3, 18270, Note_on_c, 9, 60, 0
3, 18300, Note_on_c, 9, 69, 40
3, 18330, Note_on_c, 9, 69, 0
3, 18330, Note_on_c, 9, 63, 80
3, 18330, Note_on_c, 9, 69, 40
3, 18360, Note_on_c, 9, 69, 0
3, 18360, Note_on_c, 9, 63, 0
3, 18360, Note_on_c, 9, 62, 80
3, 18360, Note_on_c, 9, 70, 40
3, 18390, Note_on_c, 9, 70, 0
3, 18390, Note_on_c, 9, 62, 0
3, 18420, Note_on_c, 9, 63, 80
3, 18420, Note_on_c, 9, 69, 40
3, 18450, Note_on_c, 9, 69, 0
3, 18450, Note_on_c, 9, 63, 0
3, 18450, Note_on_c, 9, 60, 80
3, 18450, Note_on_c, 9, 69, 40
3, 18480, Note_on_c, 9, 69, 0
3, 18480, Note_on_c, 9, 60, 0
3, 18480, Note_on_c, 9, 70, 40
3, 18510, Note_on_c, 9, 70, 0
3, 18570, Note_on_c, 9, 63, 80
3, 18600, Note_on_c, 9, 63, 0
3, 18600, Note_on_c, 9, 63, 80
3, 18600, Note_on_c, 9, 69, 40
3, 18630, Note_on_c, 9, 69, 0
3, 18630, Note_on_c, 9, 63, 0
3, 18630, Note_on_c, 9, 60, 80
3, 18630, Note_on_c, 9, 69, 40
3, 18660, Note_on_c, 9, 69, 0
3, 18660, Note_on_c, 9, 60, 0
3, 18690, Note_on_c, 9, 63, 80
3, 18720, Note_on_c, 9, 63, 0
3, 18720, Note_on_c, 9, 60, 80
3, 18750, Note_on_c, 9, 60, 0
3, 18780, Note_on_c, 9, 69, 40
3, 18810, Note_on_c, 9, 69, 0
3, 18810, Note_on_c, 9, 63, 80
3, 18810, Note_on_c, 9, 69, 40
3, 18840, Note_on_c, 9, 69, 0
3, 18840, Note_on_c, 9, 63, 0
3, 18840, Note_on_c, 9, 62, 80
3, 18840, Note_on_c, 9, 70, 40
3, 18870, Note_on_c, 9, 70, 0
3, 18870, Note_on_c, 9, 62, 0
3, 18900, Note_on_c, 9, 63, 80
3, 18900, Note_on_c, 9, 69, 40
3, 18930, Note_on_c, 9, 69, 0
3, 18930, Note_on_c, 9, 63, 0
3, 18930, Note_on_c, 9, 69, 40
3, 18960, Note_on_c, 9, 69, 0
3, 18960, Note_on_c, 9, 60, 80
3, 18960, Note_on_c, 9, 70, 40
3, 18990, Note_on_c, 9, 70, 0
3, 18990, Note_on_c, 9, 60, 0
3, 19050, Note_on_c, 9, 63, 80
3, 19080, Note_on_c, 9, 63, 0
3, 19080, Note_on_c, 9, 62, 80
3, 19080, Note_on_c, 9, 69, 40
3, 19110, Note_on_c, 9, 69, 0
3, 19110, Note_on_c, 9, 62, 0
3, 19110, Note_on_c, 9, 69, 40
3, 19140, Note_on_c, 9, 69, 0
3, 19140, Note_on_c, 9, 63, 80
3, 19170, Note_on_c, 9, 63, 0
3, 19170, Note_on_c, 9, 63, 80
3, 19200, Note_on_c, 9, 63, 0
3, 19230, Note_on_c, 9, 63, 80
3, 19260, Note_on_c, 9, 63, 0
3, 19260, Note_on_c, 9, 63, 80
3, 19260, Note_on_c, 9, 69, 40
3, 19290, Note_on_c, 9, 69, 0
3, 19290, Note_on_c, 9, 63, 0
3, 19290, Note_on_c, 9, 60, 80
3, 19290, Note_on_c, 9, 69, 40
3, 19320, Note_on_c, 9, 69, 0
3, 19320, Note_on_c, 9, 60, 0
3, 19320, Note_on_c, 9, 70, 40
3, 19350, Note_on_c, 9, 70, 0
3, 19380, Note_on_c, 9, 69, 40
3, 19410, Note_on_c, 9, 69, 0
3, 19410, Note_on_c, 9, 69, 40
3, 19440, Note_on_c, 9, 69, 0
3, 19440, Note_on_c, 9, 60, 80
3, 19440, Note_on_c, 9, 70, 40
3, 19470, Note_on_c, 9, 70, 0
3, 19470, Note_on_c, 9, 60, 0
3, 19470, Note_on_c, 9, 62, 80
3, 19500, Note_on_c, 9, 62, 0
3, 19500, Note_on_c, 9, 60, 80
3, 19530, Note_on_c, 9, 60, 0
3, 19560, Note_on_c, 9, 62, 80
3, 19560, Note_on_c, 9, 69, 40
3, 19590, Note_on_c, 9, 69, 0
3, 19590, Note_on_c, 9, 62, 0
3, 19590, Note_on_c, 9, 62, 80
3, 19590, Note_on_c, 9, 69, 40
3, 19620, Note_on_c, 9, 69, 0
3, 19620, Note_on_c, 9, 62, 0
3, 19620, Note_on_c, 9, 60, 80
3, 19650, Note_on_c, 9, 60, 0
3, 19680, Note_on_c, 9, 60, 80
3, 19680, Note_on_c, 9, 56, 70
3, 19710, Note_on_c, 9, 60, 0
3, 19770, Note_on_c, 9, 63, 80
3, 19800, Note_on_c, 9, 63, 0
3, 19800, Note_on_c, 9, 56, 0
3, 19800, Note_on_c, 9, 62, 80
3, 19800, Note_on_c, 9, 56, 70
3, 19830, Note_on_c, 9, 62, 0
3, 19890, Note_on_c, 9, 63, 80
3, 19920, Note_on_c, 9, 63, 0
3, 19920, Note_on_c, 9, 56, 0
3, 19920, Note_on_c, 9, 60, 80
3, 19920, Note_on_c, 9, 56, 70
3, 19950, Note_on_c, 9, 60, 0
3, 20010, Note_on_c, 9, 62, 80
3, 20040, Note_on_c, 9, 62, 0
3, 20040, Note_on_c, 9, 56, 0
3, 20040, Note_on_c, 9, 62, 80
3, 20040, Note_on_c, 9, 56, 70
3, 20070, Note_on_c, 9, 62, 0
3, 20100, Note_on_c, 9, 63, 80
3, 20130, Note_on_c, 9, 63, 0
3, 20160, Note_on_c, 9, 56, 0
3, 20160, Note_on_c, 9, 60, 80
3, 20160, Note_on_c, 9, 56, 70
3, 20190, Note_on_c, 9, 60, 0
3, 20250, Note_on_c, 9, 62, 80
3, 20280, Note_on_c, 9, 62, 0
3, 20280, Note_on_c, 9, 56, 0
3, 20280, Note_on_c, 9, 60, 80
3, 20280, Note_on_c, 9, 56, 70
3, 20310, Note_on_c, 9, 60, 0
3, 20340, Note_on_c, 9, 63, 80
3, 20370, Note_on_c, 9, 63, 0
3, 20400, Note_on_c, 9, 56, 0
3, 20400, Note_on_c, 9, 60, 80
3, 20400, Note_on_c, 9, 56, 70
3, 20430, Note_on_c, 9, 60, 0
3, 20490, Note_on_c, 9, 62, 80
3, 20520, Note_on_c, 9, 62, 0
3, 20520, Note_on_c, 9, 56, 0
3, 20520, Note_on_c, 9, 62, 80
3, 20520, Note_on_c, 9, 56, 70
3, 20550, Note_on_c, 9, 62, 0
3, 20580, Note_on_c, 9, 63, 80
3, 20610, Note_on_c, 9, 63, 0
3, 20610, Note_on_c, 9, 63, 80
3, 20640, Note_on_c, 9, 63, 0
3, 20640, Note_on_c, 9, 56, 0
3, 20640, Note_on_c, 9, 60, 80
3, 20640, Note_on_c, 9, 56, 70
3, 20670, Note_on_c, 9, 60, 0
3, 20730, Note_on_c, 9, 63, 80
3, 20760, Note_on_c, 9, 63, 0
3, 20760, Note_on_c, 9, 56, 0
3, 20760, Note_on_c, 9, 60, 80
3, 20760, Note_on_c, 9, 56, 70
3, 20790, Note_on_c, 9, 60, 0
3, 20820, Note_on_c, 9, 63, 80
3, 20850, Note_on_c, 9, 63, 0
3, 20880, Note_on_c, 9, 56, 0
3, 20880, Note_on_c, 9, 62, 80
3, 20880, Note_on_c, 9, 56, 70
3, 20910, Note_on_c, 9, 62, 0
3, 20970, Note_on_c, 9, 62, 80
3, 21000, Note_on_c, 9, 62, 0
3, 21000, Note_on_c, 9, 56, 0
3, 21000, Note_on_c, 9, 62, 80
3, 21000, Note_on_c, 9, 56, 70
3, 21030, Note_on_c, 9, 62, 0
3, 21060, Note_on_c, 9, 63, 80
3, 21090, Note_on_c, 9, 63, 0
3, 21090, Note_on_c, 9, 63, 80
3, 21120, Note_on_c, 9, 63, 0
3, 21120, Note_on_c, 9, 56, 0
3, 21120, Note_on_c, 9, 62, 80
3, 21120, Note_on_c, 9, 56, 70
3, 21150, Note_on_c, 9, 62, 0
3, 21210, Note_on_c, 9, 62, 80
3, 21240, Note_on_c, 9, 62, 0
3, 21240, Note_on_c, 9, 56, 0
3, 21240, Note_on_c, 9, 62, 80
3, 21240, Note_on_c, 9, 56, 70
3, 21270, Note_on_c, 9, 62, 0
3, 21330, Note_on_c, 9, 63, 80
3, 21360, Note_on_c, 9, 63, 0
3, 21360, Note_on_c, 9, 56, 0
3, 21360, Note_on_c, 9, 63, 80
3, 21360, Note_on_c, 9, 56, 70
3, 21390, Note_on_c, 9, 63, 0
3, 21390, Note_on_c, 9, 62, 80
3, 21420, Note_on_c, 9, 62, 0
3, 21450, Note_on_c, 9, 62, 60
3, 21480, Note_on_c, 9, 62, 0
3, 21480, Note_on_c, 9, 56, 0
3, 21480, Note_on_c, 9, 62, 80
3, 21480, Note_on_c, 9, 56, 70
3, 21510, Note_on_c, 9, 62, 0
3, 21540, Note_on_c, 9, 62, 60
3, 21570, Note_on_c, 9, 62, 0
3, 21570, Note_on_c, 9, 62, 80
3, 21600, Note_on_c, 9, 62, 0
3, 21600, Note_on_c, 9, 56, 0
3, 21600, Note_on_c, 9, 56, 70
3, 21690, Note_on_c, 9, 62, 80
3, 21720, Note_on_c, 9, 62, 0
3, 21720, Note_on_c, 9, 56, 0
3, 21720, Note_on_c, 9, 60, 80
3, 21720, Note_on_c, 9, 56, 70
3, 21750, Note_on_c, 9, 60, 0
3, 21780, Note_on_c, 9, 63, 80
3, 21810, Note_on_c, 9, 63, 0
3, 21840, Note_on_c, 9, 56, 0
3, 21840, Note_on_c, 9, 60, 80
3, 21840, Note_on_c, 9, 56, 70
3, 21870, Note_on_c, 9, 60, 0
3, 21930, Note_on_c, 9, 62, 80
3, 21960, Note_on_c, 9, 62, 0
3, 21960, Note_on_c, 9, 56, 0
3, 21960, Note_on_c, 9, 62, 80
3, 21960, Note_on_c, 9, 56, 70
3, 21990, Note_on_c, 9, 62, 0
3, 22020, Note_on_c, 9, 63, 80
3, 22050, Note_on_c, 9, 63, 0
3, 22080, Note_on_c, 9, 56, 0
3, 22080, Note_on_c, 9, 60, 80
3, 22080, Note_on_c, 9, 56, 70
3, 22110, Note_on_c, 9, 60, 0
3, 22170, Note_on_c, 9, 63, 80
3, 22200, Note_on_c, 9, 63, 0
3, 22200, Note_on_c, 9, 56, 0
3, 22200, Note_on_c, 9, 60, 80
3, 22200, Note_on_c, 9, 56, 70
3, 22230, Note_on_c, 9, 60, 0
3, 22260, Note_on_c, 9, 63, 80
3, 22290, Note_on_c, 9, 63, 0
3, 22320, Note_on_c, 9, 56, 0
3, 22320, Note_on_c, 9, 60, 80
3, 22320, Note_on_c, 9, 56, 70
3, 22350, Note_on_c, 9, 60, 0
3, 22410, Note_on_c, 9, 62, 80
3, 22440, Note_on_c, 9, 62, 0
3, 22440, Note_on_c, 9, 56, 0
3, 22440, Note_on_c, 9, 62, 80
3, 22440, Note_on_c, 9, 56, 70
3, 22470, Note_on_c, 9, 62, 0
3, 22500, Note_on_c, 9, 63, 80
3, 22530, Note_on_c, 9, 63, 0
3, 22560, Note_on_c, 9, 56, 0
3, 22560, Note_on_c, 9, 56, 70
3, 22590, Note_on_c, 9, 62, 80
3, 22605, Note_on_c, 9, 62, 0
3, 22605, Note_on_c, 9, 62, 80
3, 22620, Note_on_c, 9, 62, 0
3, 22620, Note_on_c, 9, 62, 80
3, 22635, Note_on_c, 9, 62, 0
3, 22650, Note_on_c, 9, 62, 80
3, 22665, Note_on_c, 9, 62, 0
3, 22680, Note_on_c, 9, 56, 0
3, 22680, Note_on_c, 9, 63, 80
3, 22680, Note_on_c, 9, 56, 70
3, 22695, Note_on_c, 9, 63, 0
3, 22740, Note_on_c, 9, 63, 80
3, 22770, Note_on_c, 9, 63, 0
3, 22800, Note_on_c, 9, 56, 0
3, 22800, Note_on_c, 9, 60, 80
3, 22800, Note_on_c, 9, 56, 70
3, 22830, Note_on_c, 9, 60, 0
3, 22890, Note_on_c, 9, 63, 80
3, 22920, Note_on_c, 9, 63, 0
3, 22920, Note_on_c, 9, 56, 0
3, 22920, Note_on_c, 9, 60, 80
3, 22920, Note_on_c, 9, 56, 70
3, 22950, Note_on_c, 9, 60, 0
3, 22980, Note_on_c, 9, 63, 80
3, 23010, Note_on_c, 9, 63, 0
3, 23010, Note_on_c, 9, 63, 80
3, 23040, Note_on_c, 9, 63, 0
3, 23040, Note_on_c, 9, 56, 0
3, 23040, Note_on_c, 9, 60, 80
3, 23040, Note_on_c, 9, 56, 70
3, 23070, Note_on_c, 9, 60, 0
3, 23130, Note_on_c, 9, 62, 80
3, 23160, Note_on_c, 9, 62, 0
3, 23160, Note_on_c, 9, 56, 0
3, 23160, Note_on_c, 9, 62, 80
3, 23160, Note_on_c, 9, 56, 70
3, 23190, Note_on_c, 9, 62, 0
3, 23250, Note_on_c, 9, 63, 80
3, 23280, Note_on_c, 9, 63, 0
3, 23280, Note_on_c, 9, 56, 0
3, 23280, Note_on_c, 9, 63, 80
3, 23280, Note_on_c, 9, 56, 70
3, 23310, Note_on_c, 9, 63, 0
3, 23310, Note_on_c, 9, 62, 80
3, 23340, Note_on_c, 9, 62, 0
3, 23370, Note_on_c, 9, 62, 60
3, 23400, Note_on_c, 9, 62, 0
3, 23400, Note_on_c, 9, 56, 0
3, 23400, Note_on_c, 9, 62, 80
3, 23400, Note_on_c, 9, 56, 70
3, 23430, Note_on_c, 9, 62, 0
3, 23460, Note_on_c, 9, 62, 60
3, 23490, Note_on_c, 9, 62, 0
3, 23490, Note_on_c, 9, 62, 80
3, 23520, Note_on_c, 9, 62, 0
3, 23520, Note_on_c, 9, 56, 0
3, 27450, Note_on_c, 9, 63, 80
3, 27480, Note_on_c, 9, 63, 0
3, 27480, Note_on_c, 9, 60, 80
3, 27510, Note_on_c, 9, 60, 0
3, 27540, Note_on_c, 9, 63, 80
3, 27570, Note_on_c, 9, 63, 0
3, 27600, Note_on_c, 9, 62, 80
3, 27630, Note_on_c, 9, 62, 0
3, 27690, Note_on_c, 9, 63, 80
3, 27720, Note_on_c, 9, 63, 0
3, 27720, Note_on_c, 9, 62, 80
3, 27750, Note_on_c, 9, 62, 0
3, 27780, Note_on_c, 9, 63, 80
3, 27810, Note_on_c, 9, 63, 0
3, 27810, Note_on_c, 9, 63, 80
3, 27840, Note_on_c, 9, 63, 0
3, 27840, Note_on_c, 9, 60, 80
3, 27870, Note_on_c, 9, 60, 0
3, 27930, Note_on_c, 9, 63, 80
3, 27960, Note_on_c, 9, 63, 0
3, 27960, Note_on_c, 9, 62, 80
3, 27990, Note_on_c, 9, 62, 0
3, 28050, Note_on_c, 9, 60, 80
3, 28080, Note_on_c, 9, 60, 0
3, 28080, Note_on_c, 9, 63, 80
3, 28110, Note_on_c, 9, 63, 0
3, 28170, Note_on_c, 9, 63, 80
3, 28200, Note_on_c, 9, 63, 0
3, 28200, Note_on_c, 9, 62, 80
3, 28230, Note_on_c, 9, 62, 0
3, 28260, Note_on_c, 9, 63, 80
3, 28290, Note_on_c, 9, 63, 0
3, 28290, Note_on_c, 9, 63, 80
3, 28320, Note_on_c, 9, 63, 0
3, 28320, Note_on_c, 9, 60, 80
3, 28350, Note_on_c, 9, 60, 0
3, 28410, Note_on_c, 9, 63, 80
3, 28440, Note_on_c, 9, 63, 0
3, 28440, Note_on_c, 9, 62, 80
3, 28470, Note_on_c, 9, 62, 0
3, 28500, Note_on_c, 9, 63, 80
3, 28530, Note_on_c, 9, 63, 0
3, 28560, Note_on_c, 9, 60, 80
3, 28590, Note_on_c, 9, 60, 0
3, 28650, Note_on_c, 9, 63, 80
3, 28680, Note_on_c, 9, 63, 0
3, 28680, Note_on_c, 9, 62, 80
3, 28710, Note_on_c, 9, 62, 0
3, 28740, Note_on_c, 9, 63, 80
3, 28770, Note_on_c, 9, 63, 0
3, 28770, Note_on_c, 9, 63, 80
3, 28800, Note_on_c, 9, 63, 0
3, 28830, Note_on_c, 9, 63, 80
3, 28860, Note_on_c, 9, 63, 0
3, 28860, Note_on_c, 9, 63, 80
3, 28890, Note_on_c, 9, 63, 0
3, 28890, Note_on_c, 9, 60, 80
3, 28920, Note_on_c, 9, 60, 0
3, 29040, Note_on_c, 9, 60, 80
3, 29070, Note_on_c, 9, 60, 0
3, 29070, Note_on_c, 9, 62, 80
3, 29100, Note_on_c, 9, 62, 0
3, 29100, Note_on_c, 9, 60, 80
3, 29130, Note_on_c, 9, 60, 0
3, 29160, Note_on_c, 9, 62, 80
3, 29190, Note_on_c, 9, 62, 0
3, 29190, Note_on_c, 9, 62, 80
3, 29220, Note_on_c, 9, 62, 0
3, 29220, Note_on_c, 9, 60, 80
3, 29250, Note_on_c, 9, 60, 0
3, 29280, Note_on_c, 9, 60, 80
3, 29310, Note_on_c, 9, 60, 0
3, 29370, Note_on_c, 9, 63, 80
3, 29400, Note_on_c, 9, 63, 0
3, 29400, Note_on_c, 9, 62, 80
3, 29430, Note_on_c, 9, 62, 0
3, 29460, Note_on_c, 9, 63, 80
3, 29490, Note_on_c, 9, 63, 0
3, 29520, Note_on_c, 9, 60, 80
3, 29550, Note_on_c, 9, 60, 0
3, 29610, Note_on_c, 9, 63, 80
3, 29640, Note_on_c, 9, 63, 0
3, 29640, Note_on_c, 9, 62, 80
3, 29670, Note_on_c, 9, 62, 0
3, 29700, Note_on_c, 9, 63, 80
3, 29730, Note_on_c, 9, 63, 0
3, 29730, Note_on_c, 9, 63, 80
3, 29760, Note_on_c, 9, 63, 0
3, 29760, Note_on_c, 9, 60, 80
3, 29790, Note_on_c, 9, 60, 0
3, 29850, Note_on_c, 9, 63, 80
3, 29880, Note_on_c, 9, 63, 0
3, 29880, Note_on_c, 9, 62, 80
3, 29910, Note_on_c, 9, 62, 0
3, 29970, Note_on_c, 9, 60, 80
3, 30000, Note_on_c, 9, 60, 0
3, 30000, Note_on_c, 9, 63, 80
3, 30030, Note_on_c, 9, 63, 0
3, 30090, Note_on_c, 9, 63, 80
3, 30120, Note_on_c, 9, 63, 0
3, 30120, Note_on_c, 9, 62, 80
3, 30150, Note_on_c, 9, 62, 0
3, 30180, Note_on_c, 9, 63, 80
3, 30210, Note_on_c, 9, 63, 0
3, 30210, Note_on_c, 9, 63, 80
3, 30240, Note_on_c, 9, 63, 0
3, 30240, Note_on_c, 9, 60, 80
3, 30270, Note_on_c, 9, 60, 0
3, 30330, Note_on_c, 9, 63, 80
3, 30360, Note_on_c, 9, 63, 0
3, 30360, Note_on_c, 9, 62, 80
3, 30390, Note_on_c, 9, 62, 0
3, 30420, Note_on_c, 9, 63, 80
3, 30450, Note_on_c, 9, 63, 0
3, 30480, Note_on_c, 9, 60, 80
3, 30510, Note_on_c, 9, 60, 0
3, 30570, Note_on_c, 9, 63, 80
3, 30600, Note_on_c, 9, 63, 0
3, 30600, Note_on_c, 9, 62, 80
3, 30630, Note_on_c, 9, 62, 0
3, 30660, Note_on_c, 9, 63, 80
3, 30690, Note_on_c, 9, 63, 0
3, 30690, Note_on_c, 9, 63, 80
3, 30720, Note_on_c, 9, 63, 0
3, 30750, Note_on_c, 9, 63, 80
3, 30780, Note_on_c, 9, 63, 0
3, 30780, Note_on_c, 9, 63, 80
3, 30810, Note_on_c, 9, 63, 0
3, 30810, Note_on_c, 9, 60, 80
3, 30840, Note_on_c, 9, 60, 0
3, 30960, Note_on_c, 9, 60, 80
3, 30990, Note_on_c, 9, 60, 0
3, 30990, Note_on_c, 9, 62, 80
3, 31020, Note_on_c, 9, 62, 0
3, 31020, Note_on_c, 9, 60, 80
3, 31050, Note_on_c, 9, 60, 0
3, 31080, Note_on_c, 9, 62, 80
3, 31110, Note_on_c, 9, 62, 0
3, 31110, Note_on_c, 9, 62, 80
3, 31140, Note_on_c, 9, 62, 0
3, 31140, Note_on_c, 9, 60, 80
3, 31170, Note_on_c, 9, 60, 0
3, 31200, Note_on_c, 9, 60, 80
3, 31230, Note_on_c, 9, 60, 0
3, 31260, Note_on_c, 9, 69, 40
3, 31290, Note_on_c, 9, 69, 0
3, 31290, Note_on_c, 9, 63, 80
3, 31290, Note_on_c, 9, 69, 40
3, 31320, Note_on_c, 9, 69, 0
3, 31320, Note_on_c, 9, 63, 0
3, 31320, Note_on_c, 9, 60, 80
3, 31320, Note_on_c, 9, 70, 40
3, 31350, Note_on_c, 9, 70, 0
3, 31350, Note_on_c, 9, 60, 0
3, 31380, Note_on_c, 9, 63, 80
3, 31380, Note_on_c, 9, 69, 40
3, 31410, Note_on_c, 9, 69, 0
3, 31410, Note_on_c, 9, 63, 0
3, 31410, Note_on_c, 9, 63, 80
3, 31410, Note_on_c, 9, 69, 40
3, 31440, Note_on_c, 9, 69, 0
3, 31440, Note_on_c, 9, 63, 0
3, 31440, Note_on_c, 9, 60, 80
3, 31440, Note_on_c, 9, 70, 40
3, 31470, Note_on_c, 9, 70, 0
3, 31470, Note_on_c, 9, 60, 0
3, 31530, Note_on_c, 9, 63, 80
3, 31560, Note_on_c, 9, 63, 0
3, 31560, Note_on_c, 9, 62, 80
3, 31560, Note_on_c, 9, 69, 40
3, 31590, Note_on_c, 9, 69, 0
3, 31590, Note_on_c, 9, 62, 0
3, 31590, Note_on_c, 9, 69, 40
3, 31620, Note_on_c, 9, 69, 0
3, 31620, Note_on_c, 9, 63, 80
3, 31650, Note_on_c, 9, 63, 0
3, 31650, Note_on_c, 9, 63, 80
3, 31680, Note_on_c, 9, 63, 0
3, 31680, Note_on_c, 9, 60, 80
3, 31710, Note_on_c, 9, 60, 0
3, 31740, Note_on_c, 9, 69, 40
3, 31770, Note_on_c, 9, 69, 0
3, 31770, Note_on_c, 9, 63, 80
3, 31770, Note_on_c, 9, 69, 40
3, 31800, Note_on_c, 9, 69, 0
3, 31800, Note_on_c, 9, 63, 0
3, 31800, Note_on_c, 9, 62, 80
3, 31800, Note_on_c, 9, 70, 40
3, 31830, Note_on_c, 9, 70, 0
3, 31830, Note_on_c, 9, 62, 0
3, 31860, Note_on_c, 9, 63, 80
3, 31860, Note_on_c, 9, 69, 40
3, 31890, Note_on_c, 9, 69, 0
3, 31890, Note_on_c, 9, 63, 0
3, 31890, Note_on_c, 9, 60, 80
3, 31890, Note_on_c, 9, 69, 40
3, 31920, Note_on_c, 9, 69, 0
3, 31920, Note_on_c, 9, 60, 0
3, 31920, Note_on_c, 9, 70, 40
3, 31950, Note_on_c, 9, 70, 0
3, 32010, Note_on_c, 9, 63, 80
3, 32040, Note_on_c, 9, 63, 0
3, 32040, Note_on_c, 9, 63, 80
3, 32040, Note_on_c, 9, 69, 40
3, 32070, Note_on_c, 9, 69, 0
3, 32070, Note_on_c, 9, 63, 0
3, 32070, Note_on_c, 9, 60, 80
3, 32070, Note_on_c, 9, 69, 40
3, 32100, Note_on_c, 9, 69, 0
3, 32100, Note_on_c, 9, 60, 0
3, 32130, Note_on_c, 9, 63, 80
3, 32160, Note_on_c, 9, 63, 0
3, 32160, Note_on_c, 9, 60, 80
3, 32190, Note_on_c, 9, 60, 0
3, 32220, Note_on_c, 9, 69, 40
3, 32250, Note_on_c, 9, 69, 0
3, 32250, Note_on_c, 9, 63, 80
3, 32250, Note_on_c, 9, 69, 40
3, 32280, Note_on_c, 9, 69, 0
3, 32280, Note_on_c, 9, 63, 0
3, 32280, Note_on_c, 9, 62, 80
3, 32280, Note_on_c, 9, 70, 40
3, 32310, Note_on_c, 9, 70, 0
3, 32310, Note_on_c, 9, 62, 0
3, 32340, Note_on_c, 9, 63, 80
3, 32340, Note_on_c, 9, 69, 40
3, 32370, Note_on_c, 9, 69, 0
3, 32370, Note_on_c, 9, 63, 0
3, 32370, Note_on_c, 9, 69, 40
3, 32400, Note_on_c, 9, 69, 0
3, 32400, Note_on_c, 9, 60, 80
3, 32400, Note_on_c, 9, 70, 40
3, 32430, Note_on_c, 9, 70, 0
3, 32430, Note_on_c, 9, 60, 0
3, 32490, Note_on_c, 9, 63, 80
3, 32520, Note_on_c, 9, 63, 0
3, 32520, Note_on_c, 9, 62, 80
3, 32520, Note_on_c, 9, 69, 40
3, 32550, Note_on_c, 9, 69, 0
3, 32550, Note_on_c, 9, 62, 0
3, 32550, Note_on_c, 9, 69, 40
3, 32580, Note_on_c, 9, 69, 0
3, 32580, Note_on_c, 9, 63, 80
3, 32610, Note_on_c, 9, 63, 0
3, 32610, Note_on_c, 9, 63, 80
3, 32640, Note_on_c, 9, 63, 0
3, 32670, Note_on_c, 9, 63, 80
3, 32700, Note_on_c, 9, 63, 0
3, 32700, Note_on_c, 9, 63, 80
3, 32700, Note_on_c, 9, 69, 40
3, 32730, Note_on_c, 9, 69, 0
3, 32730, Note_on_c, 9, 63, 0
3, 32730, Note_on_c, 9, 60, 80
3, 32730, Note_on_c, 9, 69, 40
3, 32760, Note_on_c, 9, 69, 0
3, 32760, Note_on_c, 9, 60, 0
3, 32760, Note_on_c, 9, 70, 40
3, 32790, Note_on_c, 9, 70, 0
3, 32820, Note_on_c, 9, 69, 40
3, 32850, Note_on_c, 9, 69, 0
3, 32850, Note_on_c, 9, 69, 40
3, 32880, Note_on_c, 9, 69, 0
3, 32880, Note_on_c, 9, 60, 80
3, 32880, Note_on_c, 9, 70, 40
3, 32910, Note_on_c, 9, 70, 0
3, 32910, Note_on_c, 9, 60, 0
3, 32910, Note_on_c, 9, 62, 80
3, 32940, Note_on_c, 9, 62, 0
3, 32940, Note_on_c, 9, 60, 80
3, 32970, Note_on_c, 9, 60, 0
3, 33000, Note_on_c, 9, 62, 80
3, 33000, Note_on_c, 9, 69, 40
3, 33030, Note_on_c, 9, 69, 0
3, 33030, Note_on_c, 9, 62, 0
3, 33030, Note_on_c, 9, 62, 80
3, 33030, Note_on_c, 9, 69, 40
3, 33060, Note_on_c, 9, 69, 0
3, 33060, Note_on_c, 9, 62, 0
3, 33060, Note_on_c, 9, 60, 80
3, 33090, Note_on_c, 9, 60, 0
3, 33120, Note_on_c, 9, 60, 80
3, 33120, Note_on_c, 9, 56, 70
3, 33150, Note_on_c, 9, 60, 0
3, 33210, Note_on_c, 9, 63, 80
3, 33240, Note_on_c, 9, 63, 0
3, 33240, Note_on_c, 9, 56, 0
3, 33240, Note_on_c, 9, 62, 80
3, 33240, Note_on_c, 9, 56, 70
3, 33270, Note_on_c, 9, 62, 0
3, 33330, Note_on_c, 9, 63, 80
3, 33360, Note_on_c, 9, 63, 0
3, 33360, Note_on_c, 9, 56, 0
3, 33360, Note_on_c, 9, 60, 80
3, 33360, Note_on_c, 9, 56, 70
3, 33390, Note_on_c, 9, 60, 0
3, 33450, Note_on_c, 9, 62, 80
3, 33480, Note_on_c, 9, 62, 0
3, 33480, Note_on_c, 9, 56, 0
3, 33480, Note_on_c, 9, 62, 80
3, 33480, Note_on_c, 9, 56, 70
3, 33510, Note_on_c, 9, 62, 0
3, 33540, Note_on_c, 9, 63, 80
3, 33570, Note_on_c, 9, 63, 0
3, 33600, Note_on_c, 9, 56, 0
3, 33600, Note_on_c, 9, 60, 80
3, 33600, Note_on_c, 9, 56, 70
3, 33630, Note_on_c, 9, 60, 0
3, 33690, Note_on_c, 9, 62, 80
3, 33720, Note_on_c, 9, 62, 0
3, 33720, Note_on_c, 9, 56, 0
3, 33720, Note_on_c, 9, 60, 80
3, 33720, Note_on_c, 9, 56, 70
3, 33750, Note_on_c, 9, 60, 0
3, 33780, Note_on_c, 9, 63, 80
3, 33810, Note_on_c, 9, 63, 0
3, 33840, Note_on_c, 9, 56, 0
3, 33840, Note_on_c, 9, 60, 80
3, 33840, Note_on_c, 9, 56, 70
3, 33870, Note_on_c, 9, 60, 0
3, 33930, Note_on_c, 9, 62, 80
3, 33960, Note_on_c, 9, 62, 0
3, 33960, Note_on_c, 9, 56, 0
3, 33960, Note_on_c, 9, 62, 80
3, 33960, Note_on_c, 9, 56, 70
3, 33990, Note_on_c, 9, 62, 0
3, 34020, Note_on_c, 9, 63, 80
3, 34050, Note_on_c, 9, 63, 0
3, 34050, Note_on_c, 9, 63, 80
3, 34080, Note_on_c, 9, 63, 0
3, 34080, Note_on_c, 9, 56, 0
3, 34080, Note_on_c, 9, 60, 80
3, 34080, Note_on_c, 9, 56, 70
3, 34110, Note_on_c, 9, 60, 0
3, 34170, Note_on_c, 9, 63, 80
3, 34200, Note_on_c, 9, 63, 0
3, 34200, Note_on_c, 9, 56, 0
3, 34200, Note_on_c, 9, 60, 80
3, 34200, Note_on_c, 9, 56, 70
3, 34230, Note_on_c, 9, 60, 0
3, 34260, Note_on_c, 9, 63, 80
3, 34290, Note_on_c, 9, 63, 0
3, 34320, Note_on_c, 9, 56, 0
3, 34320, Note_on_c, 9, 62, 80
3, 34320, Note_on_c, 9, 56, 70
3, 34350, Note_on_c, 9, 62, 0
3, 34410, Note_on_c, 9, 62, 80
3, 34440, Note_on_c, 9, 62, 0
3, 34440, Note_on_c, 9, 56, 0
3, 34440, Note_on_c, 9, 62, 80
3, 34440, Note_on_c, 9, 56, 70
3, 34470, Note_on_c, 9, 62, 0
3, 34500, Note_on_c, 9, 63, 80
3, 34530, Note_on_c, 9, 63, 0
3, 34530, Note_on_c, 9, 63, 80
3, 34560, Note_on_c, 9, 63, 0
3, 34560, Note_on_c, 9, 56, 0
3, 34560, Note_on_c, 9, 62, 80
3, 34560, Note_on_c, 9, 56, 70
3, 34590, Note_on_c, 9, 62, 0
3, 34650, Note_on_c, 9, 62, 80
3, 34680, Note_on_c, 9, 62, 0
3, 34680, Note_on_c, 9, 56, 0
3, 34680, Note_on_c, 9, 62, 80
3, 34680, Note_on_c, 9, 56, 70
3, 34710, Note_on_c, 9, 62, 0
3, 34770, Note_on_c, 9, 63, 80
3, 34800, Note_on_c, 9, 63, 0
3, 34800, Note_on_c, 9, 56, 0
3, 34800, Note_on_c, 9, 63, 80
3, 34800, Note_on_c, 9, 56, 70
3, 34830, Note_on_c, 9, 63, 0
3, 34830, Note_on_c, 9, 62, 80
3, 34860, Note_on_c, 9, 62, 0
3, 34890, Note_on_c, 9, 62, 60
3, 34920, Note_on_c, 9, 62, 0
3, 34920, Note_on_c, 9, 56, 0
3, 34920, Note_on_c, 9, 62, 80
3, 34920, Note_on_c, 9, 56, 70
3, 34950, Note_on_c, 9, 62, 0
3, 34980, Note_on_c, 9, 62, 60
3, 35010, Note_on_c, 9, 62, 0
3, 35010, Note_on_c, 9, 62, 80
3, 35040, Note_on_c, 9, 62, 0
3, 35040, Note_on_c, 9, 56, 0
3, 35040, Note_on_c, 9, 56, 70
3, 35130, Note_on_c, 9, 62, 80
3, 35160, Note_on_c, 9, 62, 0
3, 35160, Note_on_c, 9, 56, 0
3, 35160, Note_on_c, 9, 60, 80
3, 35160, Note_on_c, 9, 56, 70
3, 35190, Note_on_c, 9, 60, 0
3, 35220, Note_on_c, 9, 63, 80
3, 35250, Note_on_c, 9, 63, 0
3, 35280, Note_on_c, 9, 56, 0
3, 35280, Note_on_c, 9, 60, 80
3, 35280, Note_on_c, 9, 56, 70
3, 35310, Note_on_c, 9, 60, 0
3, 35370, Note_on_c, 9, 62, 80
3, 35400, Note_on_c, 9, 62, 0
3, 35400, Note_on_c, 9, 56, 0
3, 35400, Note_on_c, 9, 62, 80
3, 35400, Note_on_c, 9, 56, 70
3, 35430, Note_on_c, 9, 62, 0
3, 35460, Note_on_c, 9, 63, 80
3, 35490, Note_on_c, 9, 63, 0
3, 35520, Note_on_c, 9, 56, 0
3, 35520, Note_on_c, 9, 60, 80
3, 35520, Note_on_c, 9, 56, 70
3, 35550, Note_on_c, 9, 60, 0
3, 35610, Note_on_c, 9, 63, 80
3, 35640, Note_on_c, 9, 63, 0
3, 35640, Note_on_c, 9, 56, 0
3, 35640, Note_on_c, 9, 60, 80
3, 35640, Note_on_c, 9, 56, 70
3, 35670, Note_on_c, 9, 60, 0
3, 35700, Note_on_c, 9, 63, 80
3, 35730, Note_on_c, 9, 63, 0
3, 35760, Note_on_c, 9, 56, 0
3, 35760, Note_on_c, 9, 60, 80
3, 35760, Note_on_c, 9, 56, 70
3, 35790, Note_on_c, 9, 60, 0
3, 35850, Note_on_c, 9, 62, 80
3, 35880, Note_on_c, 9, 62, 0
3, 35880, Note_on_c, 9, 56, 0
3, 35880, Note_on_c, 9, 62, 80
3, 35880, Note_on_c, 9, 56, 70
3, 35910, Note_on_c, 9, 62, 0
3, 35940, Note_on_c, 9, 63, 80
3, 35970, Note_on_c, 9, 63, 0
3, 36000, Note_on_c, 9, 56, 0
3, 36000, Note_on_c, 9, 56, 70
3, 36030, Note_on_c, 9, 62, 80
3, 36045, Note_on_c, 9, 62, 0
3, 36045, Note_on_c, 9, 62, 80
3, 36060, Note_on_c, 9, 62, 0
3, 36060, Note_on_c, 9, 62, 80
3, 36075, Note_on_c, 9, 62, 0
3, 36090, Note_on_c, 9, 62, 80
3, 36105, Note_on_c, 9, 62, 0
3, 36120, Note_on_c, 9, 56, 0
3, 36120, Note_on_c, 9, 63, 80
3, 36120, Note_on_c, 9, 56, 70
3, 36135, Note_on_c, 9, 63, 0
3, 36180, Note_on_c, 9, 63, 80
3, 36210, Note_on_c, 9, 63, 0
3, 36240, Note_on_c, 9, 56, 0
3, 36240, Note_on_c, 9, 60, 80
3, 36240, Note_on_c, 9, 56, 70
3, 36270, Note_on_c, 9, 60, 0
3, 36330, Note_on_c, 9, 63, 80
3, 36360, Note_on_c, 9, 63, 0
3, 36360, Note_on_c, 9, 56, 0
3, 36360, Note_on_c, 9, 60, 80
3, 36360, Note_on_c, 9, 56, 70
3, 36390, Note_on_c, 9, 60, 0
3, 36420, Note_on_c, 9, 63, 80
3, 36450, Note_on_c, 9, 63, 0
3, 36450, Note_on_c, 9, 63, 80
3, 36480, Note_on_c, 9, 63, 0
3, 36480, Note_on_c, 9, 56, 0
3, 36480, Note_on_c, 9, 60, 80
3, 36480, Note_on_c, 9, 56, 70
3, 36510, Note_on_c, 9, 60, 0
3, 36570, Note_on_c, 9, 62, 80
3, 36600, Note_on_c, 9, 62, 0
3, 36600, Note_on_c, 9, 56, 0
3, 36600, Note_on_c, 9, 62, 80
3, 36600, Note_on_c, 9, 56, 70
3, 36630, Note_on_c, 9, 62, 0
3, 36690, Note_on_c, 9, 63, 80
3, 36720, Note_on_c, 9, 63, 0
3, 36720, Note_on_c, 9, 56, 0
3, 36720, Note_on_c, 9, 63, 80
3, 36720, Note_on_c, 9, 56, 70
3, 36750, Note_on_c, 9, 63, 0
3, 36750, Note_on_c, 9, 62, 80
3, 36780, Note_on_c, 9, 62, 0
3, 36810, Note_on_c, 9, 62, 60
3, 36840, Note_on_c, 9, 62, 0
3, 36840, Note_on_c, 9, 56, 0
3, 36840, Note_on_c, 9, 62, 80
3, 36840, Note_on_c, 9, 56, 70
3, 36870, Note_on_c, 9, 62, 0
3, 36900, Note_on_c, 9, 62, 60
3, 36930, Note_on_c, 9, 62, 0
3, 36930, Note_on_c, 9, 62, 80
3, 36960, Note_on_c, 9, 62, 0
3, 36960, Note_on_c, 9, 56, 0
3, 40800, Control_c, 9, 10, 64
3, 40800, Control_c, 9, 121, 0
3, 40800, Control_c, 9, 7, 100
3, 40800, Control_c, 9, 91, 40
3, 40800, Program_c, 9, 0
3, 40800, Note_on_c, 9, 62, 80
3, 40800, Note_on_c, 9, 56, 70
3, 40830, Note_on_c, 9, 62, 0
3, 40890, Note_on_c, 9, 62, 80
3, 40920, Note_on_c, 9, 62, 0
3, 40920, Note_on_c, 9, 56, 0
3, 40920, Note_on_c, 9, 62, 80
3, 40920, Note_on_c, 9, 56, 70
3, 40950, Note_on_c, 9, 62, 0
3, 40980, Note_on_c, 9, 63, 80
3, 41010, Note_on_c, 9, 63, 0
3, 41040, Note_on_c, 9, 56, 0
3, 41040, Note_on_c, 9, 62, 80
3, 41040, Note_on_c, 9, 56, 70
3, 41070, Note_on_c, 9, 62, 0
3, 41130, Note_on_c, 9, 62, 80
3, 41160, Note_on_c, 9, 62, 0
3, 41160, Note_on_c, 9, 56, 0
3, 41160, Note_on_c, 9, 62, 80
3, 41160, Note_on_c, 9, 56, 70
3, 41190, Note_on_c, 9, 62, 0
3, 41220, Note_on_c, 9, 63, 80
3, 41250, Note_on_c, 9, 63, 0
3, 41280, Note_on_c, 9, 56, 0
3, 41280, Note_on_c, 9, 62, 80
3, 41280, Note_on_c, 9, 56, 70
3, 41310, Note_on_c, 9, 62, 0
3, 41370, Note_on_c, 9, 62, 80
3, 41400, Note_on_c, 9, 62, 0
3, 41400, Note_on_c, 9, 56, 0
3, 41400, Note_on_c, 9, 62, 80
3, 41400, Note_on_c, 9, 56, 70
3, 41430, Note_on_c, 9, 62, 0
3, 41460, Note_on_c, 9, 63, 80
3, 41490, Note_on_c, 9, 63, 0
3, 41520, Note_on_c, 9, 56, 0
3, 41520, Note_on_c, 9, 62, 80
3, 41520, Note_on_c, 9, 56, 70
3, 41550, Note_on_c, 9, 62, 0
3, 41610, Note_on_c, 9, 62, 80
3, 41640, Note_on_c, 9, 62, 0
3, 41640, Note_on_c, 9, 56, 0
3, 41640, Note_on_c, 9, 62, 80
3, 41640, Note_on_c, 9, 56, 70
3, 41670, Note_on_c, 9, 62, 0
3, 41700, Note_on_c, 9, 63, 80
3, 41730, Note_on_c, 9, 63, 0
3, 41760, Note_on_c, 9, 56, 0
3, 41760, Note_on_c, 9, 56, 70
3, 41790, Note_on_c, 9, 62, 80
3, 41805, Note_on_c, 9, 62, 0
3, 41805, Note_on_c, 9, 62, 80
3, 41820, Note_on_c, 9, 62, 0
3, 41820, Note_on_c, 9, 62, 80
3, 41835, Note_on_c, 9, 62, 0
3, 41850, Note_on_c, 9, 62, 80
3, 41865, Note_on_c, 9, 62, 0
3, 41880, Note_on_c, 9, 56, 0
3, 41880, Note_on_c, 9, 63, 80
3, 41880, Note_on_c, 9, 56, 70
3, 41895, Note_on_c, 9, 63, 0
3, 41940, Note_on_c, 9, 63, 80
3, 41970, Note_on_c, 9, 63, 0
3, 42000, Note_on_c, 9, 56, 0
3, 42000, Note_on_c, 9, 62, 80
3, 42000, Note_on_c, 9, 56, 70
3, 42030, Note_on_c, 9, 62, 0
3, 42090, Note_on_c, 9, 62, 80
3, 42120, Note_on_c, 9, 62, 0
3, 42120, Note_on_c, 9, 56, 0
3, 42120, Note_on_c, 9, 62, 80
3, 42120, Note_on_c, 9, 56, 70
3, 42150, Note_on_c, 9, 62, 0
3, 42180, Note_on_c, 9, 63, 80
3, 42210, Note_on_c, 9, 63, 0
3, 42210, Note_on_c, 9, 63, 80
3, 42240, Note_on_c, 9, 63, 0
3, 42240, Note_on_c, 9, 56, 0
3, 42240, Note_on_c, 9, 62, 80
3, 42240, Note_on_c, 9, 56, 70
3, 42270, Note_on_c, 9, 62, 0
3, 42330, Note_on_c, 9, 62, 80
3, 42360, Note_on_c, 9, 62, 0
3, 42360, Note_on_c, 9, 56, 0
3, 42360, Note_on_c, 9, 62, 80
3, 42360, Note_on_c, 9, 56, 70
3, 42390, Note_on_c, 9, 62, 0
3, 42450, Note_on_c, 9, 63, 80
3, 42480, Note_on_c, 9, 63, 0
3, 42480, Note_on_c, 9, 56, 0
3, 42480, Note_on_c, 9, 63, 80
3, 42480, Note_on_c, 9, 56, 70
3, 42510, Note_on_c, 9, 63, 0
3, 42510, Note_on_c, 9, 62, 80
3, 42540, Note_on_c, 9, 62, 0
3, 42570, Note_on_c, 9, 62, 60
3, 42600, Note_on_c, 9, 62, 0
3, 42600, Note_on_c, 9, 56, 0
3, 42600, Note_on_c, 9, 62, 80
3, 42600, Note_on_c, 9, 56, 70
3, 42630, Note_on_c, 9, 62, 0
3, 42660, Note_on_c, 9, 62, 60
3, 42690, Note_on_c, 9, 62, 0
3, 42690, Note_on_c, 9, 62, 80
3, 42720, Note_on_c, 9, 62, 0
3, 42720, Note_on_c, 9, 56, 0
3, 42720, Control_c, 9, 10, 64
3, 42720, Control_c, 9, 121, 0
3, 42720, Control_c, 9, 7, 100
3, 42720, Control_c, 9, 91, 40
3, 42720, Program_c, 9, 0
3, 42720, Note_on_c, 9, 62, 80
3, 42720, Note_on_c, 9, 56, 70
3, 42750, Note_on_c, 9, 62, 0
3, 42810, Note_on_c, 9, 62, 80
3, 42840, Note_on_c, 9, 62, 0
3, 42840, Note_on_c, 9, 56, 0
3, 42840, Note_on_c, 9, 62, 80
3, 42840, Note_on_c, 9, 56, 70
3, 42870, Note_on_c, 9, 62, 0
3, 42900, Note_on_c, 9, 63, 80
3, 42930, Note_on_c, 9, 63, 0
3, 42960, Note_on_c, 9, 56, 0
3, 42960, Note_on_c, 9, 62, 80
3, 42960, Note_on_c, 9, 56, 70
3, 42990, Note_on_c, 9, 62, 0
3, 43050, Note_on_c, 9, 62, 80
3, 43080, Note_on_c, 9, 62, 0
3, 43080, Note_on_c, 9, 56, 0
3, 43080, Note_on_c, 9, 62, 80
3, 43080, Note_on_c, 9, 56, 70
3, 43110, Note_on_c, 9, 62, 0
3, 43140, Note_on_c, 9, 63, 80
3, 43170, Note_on_c, 9, 63, 0
3, 43200, Note_on_c, 9, 56, 0
3, 43200, Note_on_c, 9, 62, 80
3, 43200, Note_on_c, 9, 56, 70
3, 43230, Note_on_c, 9, 62, 0
3, 43290, Note_on_c, 9, 62, 80
3, 43320, Note_on_c, 9, 62, 0
3, 43320, Note_on_c, 9, 56, 0
3, 43320, Note_on_c, 9, 62, 80
3, 43320, Note_on_c, 9, 56, 70
3, 43350, Note_on_c, 9, 62, 0
3, 43380, Note_on_c, 9, 63, 80
3, 43410, Note_on_c, 9, 63, 0
3, 43440, Note_on_c, 9, 56, 0
3, 43440, Note_on_c, 9, 62, 80
3, 43440, Note_on_c, 9, 56, 70
3, 43470, Note_on_c, 9, 62, 0
3, 43530, Note_on_c, 9, 62, 80
3, 43560, Note_on_c, 9, 62, 0
3, 43560, Note_on_c, 9, 56, 0
3, 43560, Note_on_c, 9, 62, 80
3, 43560, Note_on_c, 9, 56, 70
3, 43590, Note_on_c, 9, 62, 0
3, 43620, Note_on_c, 9, 63, 80
3, 43650, Note_on_c, 9, 63, 0
3, 43680, Note_on_c, 9, 56, 0
3, 43680, Note_on_c, 9, 56, 70
3, 43710, Note_on_c, 9, 62, 80
3, 43725, Note_on_c, 9, 62, 0
3, 43725, Note_on_c, 9, 62, 80
3, 43740, Note_on_c, 9, 62, 0
3, 43740, Note_on_c, 9, 62, 80
3, 43755, Note_on_c, 9, 62, 0
3, 43770, Note_on_c, 9, 62, 80
3, 43785, Note_on_c, 9, 62, 0
3, 43800, Note_on_c, 9, 56, 0
3, 43800, Note_on_c, 9, 63, 80
3, 43800, Note_on_c, 9, 56, 70
3, 43815, Note_on_c, 9, 63, 0
3, 43860, Note_on_c, 9, 63, 80
3, 43890, Note_on_c, 9, 63, 0
3, 43920, Note_on_c, 9, 56, 0
3, 43920, Note_on_c, 9, 62, 80
3, 43920, Note_on_c, 9, 56, 70
3, 43950, Note_on_c, 9, 62, 0
3, 44010, Note_on_c, 9, 62, 80
3, 44040, Note_on_c, 9, 62, 0
3, 44040, Note_on_c, 9, 56, 0
3, 44040, Note_on_c, 9, 62, 80
3, 44040, Note_on_c, 9, 56, 70
3, 44070, Note_on_c, 9, 62, 0
3, 44100, Note_on_c, 9, 63, 80
3, 44130, Note_on_c, 9, 63, 0
3, 44130, Note_on_c, 9, 63, 80
3, 44160, Note_on_c, 9, 63, 0
3, 44160, Note_on_c, 9, 56, 0
3, 44160, Note_on_c, 9, 62, 80
3, 44160, Note_on_c, 9, 56, 70
3, 44190, Note_on_c, 9, 62, 0
3, 44250, Note_on_c, 9, 62, 80
3, 44280, Note_on_c, 9, 62, 0
3, 44280, Note_on_c, 9, 56, 0
3, 44280, Note_on_c, 9, 62, 80
3, 44280, Note_on_c, 9, 56, 70
3, 44310, Note_on_c, 9, 62, 0
3, 44370, Note_on_c, 9, 63, 80
3, 44400, Note_on_c, 9, 63, 0
3, 44400, Note_on_c, 9, 56, 0
3, 44400, Note_on_c, 9, 63, 80
3, 44400, Note_on_c, 9, 56, 70
3, 44430, Note_on_c, 9, 63, 0
3, 44430, Note_on_c, 9, 62, 80
3, 44460, Note_on_c, 9, 62, 0
3, 44490, Note_on_c, 9, 62, 60
3, 44520, Note_on_c, 9, 62, 0
3, 44520, Note_on_c, 9, 56, 0
3, 44520, Note_on_c, 9, 62, 80
3, 44520, Note_on_c, 9, 56, 70
3, 44550, Note_on_c, 9, 62, 0
3, 44580, Note_on_c, 9, 62, 60
3, 44610, Note_on_c, 9, 62, 0
3, 44610, Note_on_c, 9, 62, 80
3, 44640, Note_on_c, 9, 62, 0
3, 44640, Note_on_c, 9, 56, 0
3, 44640, Control_c, 9, 10, 64
3, 44640, Control_c, 9, 121, 0
3, 44640, Control_c, 9, 7, 100
3, 44640, Control_c, 9, 91, 40
3, 44640, Program_c, 9, 0
3, 44640, Note_on_c, 9, 62, 80
3, 44640, Note_on_c, 9, 56, 70
3, 44670, Note_on_c, 9, 62, 0
3, 44730, Note_on_c, 9, 62, 80
3, 44760, Note_on_c, 9, 62, 0
3, 44760, Note_on_c, 9, 56, 0
3, 44760, Note_on_c, 9, 62, 80
3, 44760, Note_on_c, 9, 56, 70
3, 44790, Note_on_c, 9, 62, 0
3, 44820, Note_on_c, 9, 63, 80
3, 44850, Note_on_c, 9, 63, 0
3, 44880, Note_on_c, 9, 56, 0
3, 44880, Note_on_c, 9, 62, 80
3, 44880, Note_on_c, 9, 56, 70
3, 44910, Note_on_c, 9, 62, 0
3, 44970, Note_on_c, 9, 62, 80
3, 45000, Note_on_c, 9, 62, 0
3, 45000, Note_on_c, 9, 56, 0
3, 45000, Note_on_c, 9, 62, 80
3, 45000, Note_on_c, 9, 56, 70
3, 45030, Note_on_c, 9, 62, 0
3, 45060, Note_on_c, 9, 63, 80
3, 45090, Note_on_c, 9, 63, 0
3, 45120, Note_on_c, 9, 56, 0
3, 45120, Note_on_c, 9, 62, 80
3, 45120, Note_on_c, 9, 56, 70
3, 45150, Note_on_c, 9, 62, 0
3, 45210, Note_on_c, 9, 62, 80
3, 45240, Note_on_c, 9, 62, 0
3, 45240, Note_on_c, 9, 56, 0
3, 45240, Note_on_c, 9, 62, 80
3, 45240, Note_on_c, 9, 56, 70
3, 45270, Note_on_c, 9, 62, 0
3, 45300, Note_on_c, 9, 63, 80
3, 45330, Note_on_c, 9, 63, 0
3, 45360, Note_on_c, 9, 56, 0
3, 45360, Note_on_c, 9, 62, 80
3, 45360, Note_on_c, 9, 56, 70
3, 45390, Note_on_c, 9, 62, 0
3, 45450, Note_on_c, 9, 62, 80
3, 45480, Note_on_c, 9, 62, 0
3, 45480, Note_on_c, 9, 56, 0
3, 45480, Note_on_c, 9, 62, 80
3, 45480, Note_on_c, 9, 56, 70
3, 45510, Note_on_c, 9, 62, 0
3, 45540, Note_on_c, 9, 63, 80
3, 45570, Note_on_c, 9, 63, 0
3, 45600, Note_on_c, 9, 56, 0
3, 45600, Note_on_c, 9, 56, 70
3, 45630, Note_on_c, 9, 62, 80
3, 45645, Note_on_c, 9, 62, 0
3, 45645, Note_on_c, 9, 62, 80
3, 45660, Note_on_c, 9, 62, 0
3, 45660, Note_on_c, 9, 62, 80
3, 45675, Note_on_c, 9, 62, 0
3, 45690, Note_on_c, 9, 62, 80
3, 45705, Note_on_c, 9, 62, 0
3, 45720, Note_on_c, 9, 56, 0
3, 45720, Note_on_c, 9, 63, 80
3, 45720, Note_on_c, 9, 56, 70
3, 45735, Note_on_c, 9, 63, 0
3, 45780, Note_on_c, 9, 63, 80
3, 45810, Note_on_c, 9, 63, 0
3, 45840, Note_on_c, 9, 56, 0
3, 45840, Note_on_c, 9, 62, 80
3, 45840, Note_on_c, 9, 56, 70
3, 45870, Note_on_c, 9, 62, 0
3, 45930, Note_on_c, 9, 62, 80
3, 45960, Note_on_c, 9, 62, 0
3, 45960, Note_on_c, 9, 56, 0
3, 45960, Note_on_c, 9, 62, 80
3, 45960, Note_on_c, 9, 56, 70
3, 45990, Note_on_c, 9, 62, 0
3, 46020, Note_on_c, 9, 63, 80
3, 46050, Note_on_c, 9, 63, 0
3, 46050, Note_on_c, 9, 63, 80
3, 46080, Note_on_c, 9, 63, 0
3, 46080, Note_on_c, 9, 56, 0
3, 46080, Note_on_c, 9, 62, 80
3, 46080, Note_on_c, 9, 56, 70
3, 46110, Note_on_c, 9, 62, 0
3, 46170, Note_on_c, 9, 62, 80
3, 46200, Note_on_c, 9, 62, 0
3, 46200, Note_on_c, 9, 56, 0
3, 46200, Note_on_c, 9, 62, 80
3, 46200, Note_on_c, 9, 56, 70
3, 46230, Note_on_c, 9, 62, 0
3, 46290, Note_on_c, 9, 63, 80
3, 46320, Note_on_c, 9, 63, 0
3, 46320, Note_on_c, 9, 56, 0
3, 46320, Note_on_c, 9, 63, 80
3, 46320, Note_on_c, 9, 56, 70
3, 46350, Note_on_c, 9, 63, 0
3, 46350, Note_on_c, 9, 62, 80
3, 46380, Note_on_c, 9, 62, 0
3, 46410, Note_on_c, 9, 62, 60
3, 46440, Note_on_c, 9, 62, 0
3, 46440, Note_on_c, 9, 56, 0
3, 46440, Note_on_c, 9, 62, 80
3, 46440, Note_on_c, 9, 56, 70
3, 46470, Note_on_c, 9, 62, 0
3, 46500, Note_on_c, 9, 62, 60
3, 46530, Note_on_c, 9, 62, 0
3, 46530, Note_on_c, 9, 62, 80
3, 46560, Note_on_c, 9, 62, 0
3, 46560, Note_on_c, 9, 56, 0
3, 46560, Control_c, 9, 10, 64
3, 46560, Control_c, 9, 121, 0
3, 46560, Control_c, 9, 7, 100
3, 46560, Control_c, 9, 91, 40
3, 46560, Program_c, 9, 0
3, 46560, Note_on_c, 9, 62, 80
3, 46560, Note_on_c, 9, 56, 70
3, 46590, Note_on_c, 9, 62, 0
3, 46650, Note_on_c, 9, 62, 80
3, 46680, Note_on_c, 9, 62, 0
3, 46680, Note_on_c, 9, 56, 0
3, 46680, Note_on_c, 9, 62, 80
3, 46680, Note_on_c, 9, 56, 70
3, 46710, Note_on_c, 9, 62, 0
3, 46740, Note_on_c, 9, 63, 80
3, 46770, Note_on_c, 9, 63, 0
3, 46800, Note_on_c, 9, 56, 0
3, 46800, Note_on_c, 9, 62, 80
3, 46800, Note_on_c, 9, 56, 70
3, 46830, Note_on_c, 9, 62, 0
3, 46890, Note_on_c, 9, 62, 80
3, 46920, Note_on_c, 9, 62, 0
3, 46920, Note_on_c, 9, 56, 0
3, 46920, Note_on_c, 9, 62, 80
3, 46920, Note_on_c, 9, 56, 70
3, 46950, Note_on_c, 9, 62, 0
3, 46980, Note_on_c, 9, 63, 80
3, 47010, Note_on_c, 9, 63, 0
3, 47040, Note_on_c, 9, 56, 0
3, 47040, Note_on_c, 9, 62, 80
3, 47040, Note_on_c, 9, 56, 70
3, 47070, Note_on_c, 9, 62, 0
3, 47130, Note_on_c, 9, 62, 80
3, 47160, Note_on_c, 9, 62, 0
3, 47160, Note_on_c, 9, 56, 0
3, 47160, Note_on_c, 9, 62, 80
3, 47160, Note_on_c, 9, 56, 70
3, 47190, Note_on_c, 9, 62, 0
3, 47220, Note_on_c, 9, 63, 80
3, 47250, Note_on_c, 9, 63, 0
3, 47280, Note_on_c, 9, 56, 0
3, 47280, Note_on_c, 9, 62, 80
3, 47280, Note_on_c, 9, 56, 70
3, 47310, Note_on_c, 9, 62, 0
3, 47370, Note_on_c, 9, 62, 80
3, 47400, Note_on_c, 9, 62, 0
3, 47400, Note_on_c, 9, 56, 0
3, 47400, Note_on_c, 9, 62, 80
3, 47400, Note_on_c, 9, 56, 70
3, 47430, Note_on_c, 9, 62, 0
3, 47460, Note_on_c, 9, 63, 80
3, 47490, Note_on_c, 9, 63, 0
3, 47520, Note_on_c, 9, 56, 0
3, 47520, Note_on_c, 9, 56, 70
3, 47550, Note_on_c, 9, 62, 80
3, 47565, Note_on_c, 9, 62, 0
3, 47565, Note_on_c, 9, 62, 80
3, 47580, Note_on_c, 9, 62, 0
3, 47580, Note_on_c, 9, 62, 80
3, 47595, Note_on_c, 9, 62, 0
3, 47610, Note_on_c, 9, 62, 80
3, 47625, Note_on_c, 9, 62, 0
3, 47640, Note_on_c, 9, 56, 0
3, 47640, Note_on_c, 9, 63, 80
3, 47640, Note_on_c, 9, 56, 70
3, 47655, Note_on_c, 9, 63, 0
3, 47700, Note_on_c, 9, 63, 80
3, 47730, Note_on_c, 9, 63, 0
3, 47760, Note_on_c, 9, 56, 0
3, 47760, Note_on_c, 9, 62, 80
3, 47760, Note_on_c, 9, 56, 70
3, 47790, Note_on_c, 9, 62, 0
3, 47850, Note_on_c, 9, 62, 80
3, 47880, Note_on_c, 9, 62, 0
3, 47880, Note_on_c, 9, 56, 0
3, 47880, Note_on_c, 9, 62, 80
3, 47880, Note_on_c, 9, 56, 70
3, 47910, Note_on_c, 9, 62, 0
3, 47940, Note_on_c, 9, 63, 80
3, 47970, Note_on_c, 9, 63, 0
3, 47970, Note_on_c, 9, 63, 80
3, 48000, Note_on_c, 9, 63, 0
3, 48000, Note_on_c, 9, 56, 0
3, 48000, Note_on_c, 9, 62, 80
3, 48000, Note_on_c, 9, 56, 70
3, 48030, Note_on_c, 9, 62, 0
3, 48090, Note_on_c, 9, 62, 80
3, 48120, Note_on_c, 9, 62, 0
3, 48120, Note_on_c, 9, 56, 0
3, 48120, Note_on_c, 9, 62, 80
3, 48120, Note_on_c, 9, 56, 70
3, 48150, Note_on_c, 9, 62, 0
3, 48210, Note_on_c, 9, 63, 80
3, 48240, Note_on_c, 9, 63, 0
3, 48240, Note_on_c, 9, 56, 0
3, 48240, Note_on_c, 9, 63, 80
3, 48240, Note_on_c, 9, 56, 70
3, 48270, Note_on_c, 9, 63, 0
3, 48270, Note_on_c, 9, 62, 80
3, 48300, Note_on_c, 9, 62, 0
3, 48330, Note_on_c, 9, 62, 60
3, 48360, Note_on_c, 9, 62, 0
3, 48360, Note_on_c, 9, 56, 0
3, 48360, Note_on_c, 9, 62, 80
3, 48360, Note_on_c, 9, 56, 70
3, 48390, Note_on_c, 9, 62, 0
3, 48420, Note_on_c, 9, 62, 60
3, 48450, Note_on_c, 9, 62, 0
3, 48450, Note_on_c, 9, 62, 80
3, 48480, Note_on_c, 9, 62, 0
3, 48480, Note_on_c, 9, 56, 0
3, 48480, Control_c, 9, 10, 64
3, 48480, Control_c, 9, 121, 0
3, 48480, Control_c, 9, 7, 100
3, 48480, Control_c, 9, 91, 40
3, 48480, Program_c, 9, 0
3, 48480, Note_on_c, 9, 62, 80
3, 48480, Note_on_c, 9, 56, 70
3, 48510, Note_on_c, 9, 62, 0
3, 48570, Note_on_c, 9, 62, 80
3, 48600, Note_on_c, 9, 62, 0
3, 48600, Note_on_c, 9, 56, 0
3, 48600, Note_on_c, 9, 62, 80
3, 48600, Note_on_c, 9, 56, 70
3, 48630, Note_on_c, 9, 62, 0
3, 48660, Note_on_c, 9, 63, 80
3, 48690, Note_on_c, 9, 63, 0
3, 48720, Note_on_c, 9, 56, 0
3, 48720, Note_on_c, 9, 62, 80
3, 48720, Note_on_c, 9, 56, 70
3, 48750, Note_on_c, 9, 62, 0
3, 48810, Note_on_c, 9, 62, 80
3, 48840, Note_on_c, 9, 62, 0
3, 48840, Note_on_c, 9, 56, 0
3, 48840, Note_on_c, 9, 62, 80
3, 48840, Note_on_c, 9, 56, 70
3, 48870, Note_on_c, 9, 62, 0
3, 48900, Note_on_c, 9, 63, 80
3, 48930, Note_on_c, 9, 63, 0
3, 48960, Note_on_c, 9, 56, 0
3, 48960, Note_on_c, 9, 62, 80
3, 48960, Note_on_c, 9, 56, 70
3, 48990, Note_on_c, 9, 62, 0
3, 49050, Note_on_c, 9, 62, 80
3, 49080, Note_on_c, 9, 62, 0
3, 49080, Note_on_c, 9, 56, 0
3, 49080, Note_on_c, 9, 62, 80
3, 49080, Note_on_c, 9, 56, 70
3, 49110, Note_on_c, 9, 62, 0
3, 49140, Note_on_c, 9, 63, 80
3, 49170, Note_on_c, 9, 63, 0
3, 49200, Note_on_c, 9, 56, 0
3, 49200, Note_on_c, 9, 62, 80
3, 49200, Note_on_c, 9, 56, 70
3, 49230, Note_on_c, 9, 62, 0
3, 49290, Note_on_c, 9, 62, 80
3, 49320, Note_on_c, 9, 62, 0
3, 49320, Note_on_c, 9, 56, 0
3, 49320, Note_on_c, 9, 62, 80
3, 49320, Note_on_c, 9, 56, 70
3, 49350, Note_on_c, 9, 62, 0
3, 49380, Note_on_c, 9, 63, 80
3, 49410, Note_on_c, 9, 63, 0
3, 49440, Note_on_c, 9, 56, 0
3, 49440, Note_on_c, 9, 56, 70
3, 49470, Note_on_c, 9, 62, 80
3, 49485, Note_on_c, 9, 62, 0
3, 49485, Note_on_c, 9, 62, 80
3, 49500, Note_on_c, 9, 62, 0
3, 49500, Note_on_c, 9, 62, 80
3, 49515, Note_on_c, 9, 62, 0
3, 49530, Note_on_c, 9, 62, 80
3, 49545, Note_on_c, 9, 62, 0
3, 49560, Note_on_c, 9, 56, 0
3, 49560, Note_on_c, 9, 63, 80
3, 49560, Note_on_c, 9, 56, 70
3, 49575, Note_on_c, 9, 63, 0
3, 49620, Note_on_c, 9, 63, 80
3, 49650, Note_on_c, 9, 63, 0
3, 49680, Note_on_c, 9, 56, 0
3, 49680, Note_on_c, 9, 62, 80
3, 49680, Note_on_c, 9, 56, 70
3, 49710, Note_on_c, 9, 62, 0
3, 49770, Note_on_c, 9, 62, 80
3, 49800, Note_on_c, 9, 62, 0
3, 49800, Note_on_c, 9, 56, 0
3, 49800, Note_on_c, 9, 62, 80
3, 49800, Note_on_c, 9, 56, 70
3, 49830, Note_on_c, 9, 62, 0
3, 49860, Note_on_c, 9, 63, 80
3, 49890, Note_on_c, 9, 63, 0
3, 49890, Note_on_c, 9, 63, 80
3, 49920, Note_on_c, 9, 63, 0
3, 49920, Note_on_c, 9, 56, 0
3, 49920, Note_on_c, 9, 62, 80
3, 49920, Note_on_c, 9, 56, 70
3, 49950, Note_on_c, 9, 62, 0
3, 50010, Note_on_c, 9, 62, 80
3, 50040, Note_on_c, 9, 62, 0
3, 50040, Note_on_c, 9, 56, 0
3, 50040, Note_on_c, 9, 62, 80
3, 50040, Note_on_c, 9, 56, 70
3, 50070, Note_on_c, 9, 62, 0
3, 50130, Note_on_c, 9, 63, 80
3, 50160, Note_on_c, 9, 63, 0
3, 50160, Note_on_c, 9, 56, 0
3, 50160, Note_on_c, 9, 63, 80
3, 50160, Note_on_c, 9, 56, 70
3, 50190, Note_on_c, 9, 63, 0
3, 50190, Note_on_c, 9, 62, 80
3, 50220, Note_on_c, 9, 62, 0
3, 50250, Note_on_c, 9, 62, 60
3, 50280, Note_on_c, 9, 62, 0
3, 50280, Note_on_c, 9, 56, 0
3, 50280, Note_on_c, 9, 62, 80
3, 50280, Note_on_c, 9, 56, 70
3, 50310, Note_on_c, 9, 62, 0
3, 50340, Note_on_c, 9, 62, 60
3, 50370, Note_on_c, 9, 62, 0
3, 50370, Note_on_c, 9, 62, 80
3, 50400, Note_on_c, 9, 62, 0
3, 50400, Note_on_c, 9, 56, 0
3, 50400, Control_c, 9, 10, 64
3, 50400, Control_c, 9, 121, 0
3, 50400, Control_c, 9, 7, 100
3, 50400, Control_c, 9, 91, 40
3, 50400, Program_c, 9, 0
3, 50400, Note_on_c, 9, 62, 80
3, 50400, Note_on_c, 9, 56, 70
3, 50430, Note_on_c, 9, 62, 0
3, 50490, Note_on_c, 9, 62, 80
3, 50520, Note_on_c, 9, 62, 0
3, 50520, Note_on_c, 9, 56, 0
3, 50520, Note_on_c, 9, 62, 80
3, 50520, Note_on_c, 9, 56, 70
3, 50550, Note_on_c, 9, 62, 0
3, 50580, Note_on_c, 9, 63, 80
3, 50610, Note_on_c, 9, 63, 0
3, 50640, Note_on_c, 9, 56, 0
3, 50640, Note_on_c, 9, 62, 80
3, 50640, Note_on_c, 9, 56, 70
3, 50670, Note_on_c, 9, 62, 0
3, 50730, Note_on_c, 9, 62, 80
3, 50760, Note_on_c, 9, 62, 0
3, 50760, Note_on_c, 9, 56, 0
3, 50760, Note_on_c, 9, 62, 80
3, 50760, Note_on_c, 9, 56, 70
3, 50790, Note_on_c, 9, 62, 0
3, 50820, Note_on_c, 9, 63, 80
3, 50850, Note_on_c, 9, 63, 0
3, 50880, Note_on_c, 9, 56, 0
3, 50880, Note_on_c, 9, 62, 80
3, 50880, Note_on_c, 9, 56, 70
3, 50910, Note_on_c, 9, 62, 0
3, 50970, Note_on_c, 9, 62, 80
3, 51000, Note_on_c, 9, 62, 0
3, 51000, Note_on_c, 9, 56, 0
3, 51000, Note_on_c, 9, 62, 80
3, 51000, Note_on_c, 9, 56, 70
3, 51030, Note_on_c, 9, 62, 0
3, 51060, Note_on_c, 9, 63, 80
3, 51090, Note_on_c, 9, 63, 0
3, 51120, Note_on_c, 9, 56, 0
3, 51120, Note_on_c, 9, 62, 80
3, 51120, Note_on_c, 9, 56, 70
3, 51150, Note_on_c, 9, 62, 0
3, 51210, Note_on_c, 9, 62, 80
3, 51240, Note_on_c, 9, 62, 0
3, 51240, Note_on_c, 9, 56, 0
3, 51240, Note_on_c, 9, 62, 80
3, 51240, Note_on_c, 9, 56, 70
3, 51270, Note_on_c, 9, 62, 0
3, 51300, Note_on_c, 9, 63, 80
3, 51330, Note_on_c, 9, 63, 0
3, 51360, Note_on_c, 9, 56, 0
3, 51360, Note_on_c, 9, 56, 70
3, 51390, Note_on_c, 9, 62, 80
3, 51405, Note_on_c, 9, 62, 0
3, 51405, Note_on_c, 9, 62, 80
3, 51420, Note_on_c, 9, 62, 0
3, 51420, Note_on_c, 9, 62, 80
3, 51435, Note_on_c, 9, 62, 0
3, 51450, Note_on_c, 9, 62, 80
3, 51465, Note_on_c, 9, 62, 0
3, 51480, Note_on_c, 9, 56, 0
3, 51480, Note_on_c, 9, 63, 80
3, 51480, Note_on_c, 9, 56, 70
3, 51495, Note_on_c, 9, 63, 0
3, 51540, Note_on_c, 9, 63, 80
3, 51570, Note_on_c, 9, 63, 0
3, 51600, Note_on_c, 9, 56, 0
3, 51600, Note_on_c, 9, 62, 80
3, 51600, Note_on_c, 9, 56, 70
3, 51630, Note_on_c, 9, 62, 0
3, 51690, Note_on_c, 9, 62, 80
3, 51720, Note_on_c, 9, 62, 0
3, 51720, Note_on_c, 9, 56, 0
3, 51720, Note_on_c, 9, 62, 80
3, 51720, Note_on_c, 9, 56, 70
3, 51750, Note_on_c, 9, 62, 0
3, 51780, Note_on_c, 9, 63, 80
3, 51810, Note_on_c, 9, 63, 0
3, 51810, Note_on_c, 9, 63, 80
3, 51840, Note_on_c, 9, 63, 0
3, 51840, Note_on_c, 9, 56, 0
3, 51840, Note_on_c, 9, 62, 80
3, 51840, Note_on_c, 9, 56, 70
3, 51870, Note_on_c, 9, 62, 0
3, 51930, Note_on_c, 9, 62, 80
3, 51960, Note_on_c, 9, 62, 0
3, 51960, Note_on_c, 9, 56, 0
3, 51960, Note_on_c, 9, 62, 80
3, 51960, Note_on_c, 9, 56, 70
3, 51990, Note_on_c, 9, 62, 0
3, 52050, Note_on_c, 9, 63, 80
3, 52080, Note_on_c, 9, 63, 0
3, 52080, Note_on_c, 9, 56, 0
3, 52080, Note_on_c, 9, 63, 80
3, 52080, Note_on_c, 9, 56, 70
3, 52110, Note_on_c, 9, 63, 0
3, 52110, Note_on_c, 9, 62, 80
3, 52140, Note_on_c, 9, 62, 0
3, 52170, Note_on_c, 9, 62, 60
3, 52200, Note_on_c, 9, 62, 0
3, 52200, Note_on_c, 9, 56, 0
3, 52200, Note_on_c, 9, 62, 80
3, 52200, Note_on_c, 9, 56, 70
3, 52230, Note_on_c, 9, 62, 0
3, 52260, Note_on_c, 9, 62, 60
3, 52290, Note_on_c, 9, 62, 0
3, 52290, Note_on_c, 9, 62, 80
3, 52320, Note_on_c, 9, 62, 0
3, 52320, Note_on_c, 9, 56, 0
3, 52320, Control_c, 9, 10, 64
3, 52320, Control_c, 9, 121, 0
3, 52320, Control_c, 9, 7, 100
3, 52320, Control_c, 9, 91, 40
3, 52320, Program_c, 9, 0
3, 52320, Note_on_c, 9, 62, 80
3, 52320, Note_on_c, 9, 56, 70
3, 52350, Note_on_c, 9, 62, 0
3, 52410, Note_on_c, 9, 62, 80
3, 52440, Note_on_c, 9, 62, 0
3, 52440, Note_on_c, 9, 56, 0
3, 52440, Note_on_c, 9, 62, 80
3, 52440, Note_on_c, 9, 56, 70
3, 52470, Note_on_c, 9, 62, 0
3, 52500, Note_on_c, 9, 63, 80
3, 52530, Note_on_c, 9, 63, 0
3, 52560, Note_on_c, 9, 56, 0
3, 52560, Note_on_c, 9, 62, 80
3, 52560, Note_on_c, 9, 56, 70
3, 52590, Note_on_c, 9, 62, 0
3, 52650, Note_on_c, 9, 62, 80
3, 52680, Note_on_c, 9, 62, 0
3, 52680, Note_on_c, 9, 56, 0
3, 52680, Note_on_c, 9, 62, 80
3, 52680, Note_on_c, 9, 56, 70
3, 52710, Note_on_c, 9, 62, 0
3, 52740, Note_on_c, 9, 63, 80
3, 52770, Note_on_c, 9, 63, 0
3, 52800, Note_on_c, 9, 56, 0
3, 52800, Note_on_c, 9, 62, 80
3, 52800, Note_on_c, 9, 56, 70
3, 52830, Note_on_c, 9, 62, 0
3, 52890, Note_on_c, 9, 62, 80
3, 52920, Note_on_c, 9, 62, 0
3, 52920, Note_on_c, 9, 56, 0
3, 52920, Note_on_c, 9, 62, 80
3, 52920, Note_on_c, 9, 56, 70
3, 52950, Note_on_c, 9, 62, 0
3, 52980, Note_on_c, 9, 63, 80
3, 53010, Note_on_c, 9, 63, 0
3, 53040, Note_on_c, 9, 56, 0
3, 53040, Note_on_c, 9, 62, 80
3, 53040, Note_on_c, 9, 56, 70
3, 53070, Note_on_c, 9, 62, 0
3, 53130, Note_on_c, 9, 62, 80
3, 53160, Note_on_c, 9, 62, 0
3, 53160, Note_on_c, 9, 56, 0
3, 53160, Note_on_c, 9, 62, 80
3, 53160, Note_on_c, 9, 56, 70
3, 53190, Note_on_c, 9, 62, 0
3, 53220, Note_on_c, 9, 63, 80
3, 53250, Note_on_c, 9, 63, 0
3, 53280, Note_on_c, 9, 56, 0
3, 53280, Note_on_c, 9, 56, 70
3, 53310, Note_on_c, 9, 62, 80
3, 53325, Note_on_c, 9, 62, 0
3, 53325, Note_on_c, 9, 62, 80
3, 53340, Note_on_c, 9, 62, 0
3, 53340, Note_on_c, 9, 62, 80
3, 53355, Note_on_c, 9, 62, 0
3, 53370, Note_on_c, 9, 62, 80
3, 53385, Note_on_c, 9, 62, 0
3, 53400, Note_on_c, 9, 56, 0
3, 53400, Note_on_c, 9, 63, 80
3, 53400, Note_on_c, 9, 56, 70
3, 53415, Note_on_c, 9, 63, 0
3, 53460, Note_on_c, 9, 63, 80
3, 53490, Note_on_c, 9, 63, 0
3, 53520, Note_on_c, 9, 56, 0
3, 53520, Note_on_c, 9, 62, 80
3, 53520, Note_on_c, 9, 56, 70
3, 53550, Note_on_c, 9, 62, 0
3, 53610, Note_on_c, 9, 62, 80
3, 53640, Note_on_c, 9, 62, 0
3, 53640, Note_on_c, 9, 56, 0
3, 53640, Note_on_c, 9, 62, 80
3, 53640, Note_on_c, 9, 56, 70
3, 53670, Note_on_c, 9, 62, 0
3, 53700, Note_on_c, 9, 63, 80
3, 53730, Note_on_c, 9, 63, 0
3, 53730, Note_on_c, 9, 63, 80
3, 53760, Note_on_c, 9, 63, 0
3, 53760, Note_on_c, 9, 56, 0
3, 53760, Note_on_c, 9, 62, 80
3, 53760, Note_on_c, 9, 56, 70
3, 53790, Note_on_c, 9, 62, 0
3, 53850, Note_on_c, 9, 62, 80
3, 53880, Note_on_c, 9, 62, 0
3, 53880, Note_on_c, 9, 56, 0
3, 53880, Note_on_c, 9, 62, 80
3, 53880, Note_on_c, 9, 56, 70
3, 53910, Note_on_c, 9, 62, 0
3, 53970, Note_on_c, 9, 63, 80
3, 54000, Note_on_c, 9, 63, 0
3, 54000, Note_on_c, 9, 56, 0
3, 54000, Note_on_c, 9, 63, 80
3, 54000, Note_on_c, 9, 56, 70
3, 54030, Note_on_c, 9, 63, 0
3, 54030, Note_on_c, 9, 62, 80
3, 54060, Note_on_c, 9, 62, 0
3, 54090, Note_on_c, 9, 62, 60
3, 54120, Note_on_c, 9, 62, 0
3, 54120, Note_on_c, 9, 56, 0
3, 54120, Note_on_c, 9, 62, 80
3, 54120, Note_on_c, 9, 56, 70
3, 54150, Note_on_c, 9, 62, 0
3, 54180, Note_on_c, 9, 62, 60
3, 54210, Note_on_c, 9, 62, 0
3, 54210, Note_on_c, 9, 62, 80
3, 54240, Note_on_c, 9, 62, 0
3, 54240, Note_on_c, 9, 56, 0
3, 54240, Control_c, 9, 10, 64
3, 54240, Control_c, 9, 121, 0
3, 54240, Control_c, 9, 7, 100
3, 54240, Control_c, 9, 91, 40
3, 54240, Program_c, 9, 0
3, 54240, Note_on_c, 9, 62, 80
3, 54240, Note_on_c, 9, 56, 70
3, 54270, Note_on_c, 9, 62, 0
3, 54330, Note_on_c, 9, 62, 80
3, 54360, Note_on_c, 9, 62, 0
3, 54360, Note_on_c, 9, 56, 0
3, 54360, Note_on_c, 9, 62, 80
3, 54360, Note_on_c, 9, 56, 70
3, 54390, Note_on_c, 9, 62, 0
3, 54420, Note_on_c, 9, 63, 80
3, 54450, Note_on_c, 9, 63, 0
3, 54480, Note_on_c, 9, 56, 0
3, 54480, Note_on_c, 9, 62, 80
3, 54480, Note_on_c, 9, 56, 70
3, 54510, Note_on_c, 9, 62, 0
3, 54570, Note_on_c, 9, 62, 80
3, 54600, Note_on_c, 9, 62, 0
3, 54600, Note_on_c, 9, 56, 0
3, 54600, Note_on_c, 9, 62, 80
3, 54600, Note_on_c, 9, 56, 70
3, 54630, Note_on_c, 9, 62, 0
3, 54660, Note_on_c, 9, 63, 80
3, 54690, Note_on_c, 9, 63, 0
3, 54720, Note_on_c, 9, 56, 0
3, 54720, Note_on_c, 9, 62, 80
3, 54720, Note_on_c, 9, 56, 70
3, 54750, Note_on_c, 9, 62, 0
3, 54810, Note_on_c, 9, 62, 80
3, 54840, Note_on_c, 9, 62, 0
3, 54840, Note_on_c, 9, 56, 0
3, 54840, Note_on_c, 9, 62, 80
3, 54840, Note_on_c, 9, 56, 70
3, 54870, Note_on_c, 9, 62, 0
3, 54900, Note_on_c, 9, 63, 80
3, 54930, Note_on_c, 9, 63, 0
3, 54960, Note_on_c, 9, 56, 0
3, 54960, Note_on_c, 9, 62, 80
3, 54960, Note_on_c, 9, 56, 70
3, 54990, Note_on_c, 9, 62, 0
3, 55050, Note_on_c, 9, 62, 80
3, 55080, Note_on_c, 9, 62, 0
3, 55080, Note_on_c, 9, 56, 0
3, 55080, Note_on_c, 9, 62, 80
3, 55080, Note_on_c, 9, 56, 70
3, 55110, Note_on_c, 9, 62, 0
3, 55140, Note_on_c, 9, 63, 80
3, 55170, Note_on_c, 9, 63, 0
3, 55200, Note_on_c, 9, 56, 0
3, 55200, Note_on_c, 9, 56, 70
3, 55230, Note_on_c, 9, 62, 80
3, 55245, Note_on_c, 9, 62, 0
3, 55245, Note_on_c, 9, 62, 80
3, 55260, Note_on_c, 9, 62, 0
3, 55260, Note_on_c, 9, 62, 80
3, 55275, Note_on_c, 9, 62, 0
3, 55290, Note_on_c, 9, 62, 80
3, 55305, Note_on_c, 9, 62, 0
3, 55320, Note_on_c, 9, 56, 0
3, 55320, Note_on_c, 9, 63, 80
3, 55320, Note_on_c, 9, 56, 70
3, 55335, Note_on_c, 9, 63, 0
3, 55380, Note_on_c, 9, 63, 80
3, 55410, Note_on_c, 9, 63, 0
3, 55440, Note_on_c, 9, 56, 0
3, 55440, Note_on_c, 9, 62, 80
3, 55440, Note_on_c, 9, 56, 70
3, 55470, Note_on_c, 9, 62, 0
3, 55530, Note_on_c, 9, 62, 80
3, 55560, Note_on_c, 9, 62, 0
3, 55560, Note_on_c, 9, 56, 0
3, 55560, Note_on_c, 9, 62, 80
3, 55560, Note_on_c, 9, 56, 70
3, 55590, Note_on_c, 9, 62, 0
3, 55620, Note_on_c, 9, 63, 80
3, 55650, Note_on_c, 9, 63, 0
3, 55650, Note_on_c, 9, 63, 80
3, 55680, Note_on_c, 9, 63, 0
3, 55680, Note_on_c, 9, 56, 0
3, 55680, Note_on_c, 9, 62, 80
3, 55680, Note_on_c, 9, 56, 70
3, 55710, Note_on_c, 9, 62, 0
3, 55770, Note_on_c, 9, 62, 80
3, 55800, Note_on_c, 9, 62, 0
3, 55800, Note_on_c, 9, 56, 0
3, 55800, Note_on_c, 9, 62, 80
3, 55800, Note_on_c, 9, 56, 70
3, 55830, Note_on_c, 9, 62, 0
3, 55890, Note_on_c, 9, 63, 80
3, 55920, Note_on_c, 9, 63, 0
3, 55920, Note_on_c, 9, 56, 0
3, 55920, Note_on_c, 9, 63, 80
3, 55920, Note_on_c, 9, 56, 70
3, 55950, Note_on_c, 9, 63, 0
3, 55950, Note_on_c, 9, 62, 80
3, 55980, Note_on_c, 9, 62, 0
3, 56010, Note_on_c, 9, 62, 60
3, 56040, Note_on_c, 9, 62, 0
3, 56040, Note_on_c, 9, 56, 0
3, 56040, Note_on_c, 9, 62, 80
3, 56040, Note_on_c, 9, 56, 70
3, 56070, Note_on_c, 9, 62, 0
3, 56100, Note_on_c, 9, 62, 60
3, 56130, Note_on_c, 9, 62, 0
3, 56130, Note_on_c, 9, 62, 80
3, 56160, Note_on_c, 9, 62, 0
3, 56160, Note_on_c, 9, 56, 0
3, 56160, End_track
4, 0, Start_track
4, 0, MIDI_port, 0
4, 3330, Note_on_c, 9, 35, 125
4, 3330, Note_on_c, 9, 49, 115
4, 3360, Note_on_c, 9, 49, 0
4, 3360, Note_on_c, 9, 35, 0
4, 3840, Note_on_c, 9, 49, 115
4, 3840, Note_on_c, 9, 35, 125
4, 3870, Note_on_c, 9, 35, 0
4, 3870, Note_on_c, 9, 49, 0
4, 4200, Note_on_c, 9, 40, 125
4, 4200, Note_on_c, 9, 46, 95
4, 4230, Note_on_c, 9, 46, 0
4, 4230, Note_on_c, 9, 40, 0
4, 4320, Note_on_c, 9, 49, 95
4, 4320, Note_on_c, 9, 42, 95
4, 4320, Note_on_c, 9, 35, 125
4, 4380, Note_on_c, 9, 42, 0
4, 4380, Note_on_c, 9, 49, 0
4, 4440, Note_on_c, 9, 35, 0
4, 4440, Note_on_c, 9, 42, 95
4, 4440, Note_on_c, 9, 40, 125
4, 4500, Note_on_c, 9, 42, 0
4, 4530, Note_on_c, 9, 35, 125
4, 4560, Note_on_c, 9, 35, 0
4, 4560, Note_on_c, 9, 40, 0
4, 4560, Note_on_c, 9, 35, 125
4, 4560, Note_on_c, 9, 42, 95
4, 4620, Note_on_c, 9, 42, 0
4, 4680, Note_on_c, 9, 35, 0
4, 4680, Note_on_c, 9, 42, 95
4, 4680, Note_on_c, 9, 40, 125
4, 4740, Note_on_c, 9, 42, 0
4, 4800, Note_on_c, 9, 40, 0
4, 4800, Note_on_c, 9, 42, 95
4, 4800, Note_on_c, 9, 35, 125
4, 4860, Note_on_c, 9, 42, 0
4, 4920, Note_on_c, 9, 35, 0
4, 4920, Note_on_c, 9, 42, 95
4, 4920, Note_on_c, 9, 40, 125
4, 4980, Note_on_c, 9, 42, 0
4, 5010, Note_on_c, 9, 35, 125
4, 5040, Note_on_c, 9, 35, 0
4, 5040, Note_on_c, 9, 40, 0
4, 5040, Note_on_c, 9, 35, 125
4, 5040, Note_on_c, 9, 42, 95
4, 5100, Note_on_c, 9, 42, 0
4, 5160, Note_on_c, 9, 35, 0
4, 5160, Note_on_c, 9, 42, 95
4, 5160, Note_on_c, 9, 40, 125
4, 5220, Note_on_c, 9, 42, 0
4, 5280, Note_on_c, 9, 40, 0
4, 5280, Note_on_c, 9, 42, 95
4, 5280, Note_on_c, 9, 35, 125
4, 5340, Note_on_c, 9, 42, 0
4, 5400, Note_on_c, 9, 35, 0
4, 5400, Note_on_c, 9, 42, 95
4, 5400, Note_on_c, 9, 40, 125
4, 5460, Note_on_c, 9, 42, 0
4, 5490, Note_on_c, 9, 35, 125
4, 5520, Note_on_c, 9, 35, 0
4, 5520, Note_on_c, 9, 40, 0
4, 5520, Note_on_c, 9, 35, 125
4, 5520, Note_on_c, 9, 42, 95
4, 5580, Note_on_c, 9, 42, 0
4, 5640, Note_on_c, 9, 35, 0
4, 5640, Note_on_c, 9, 42, 95
4, 5640, Note_on_c, 9, 40, 125
4, 5700, Note_on_c, 9, 42, 0
4, 5760, Note_on_c, 9, 40, 0
4, 5760, Note_on_c, 9, 42, 95
4, 5760, Note_on_c, 9, 35, 125
4, 5820, Note_on_c, 9, 42, 0
4, 5880, Note_on_c, 9, 35, 0
4, 5880, Note_on_c, 9, 42, 95
4, 5880, Note_on_c, 9, 40, 125
4, 5940, Note_on_c, 9, 42, 0
4, 5970, Note_on_c, 9, 35, 125
4, 6000, Note_on_c, 9, 35, 0
4, 6000, Note_on_c, 9, 40, 0
4, 6000, Note_on_c, 9, 35, 125
4, 6000, Note_on_c, 9, 42, 95
4, 6060, Note_on_c, 9, 42, 0
4, 6120, Note_on_c, 9, 35, 0
4, 6120, Note_on_c, 9, 46, 95
4, 6120, Note_on_c, 9, 40, 125
4, 6180, Note_on_c, 9, 46, 0
4, 6240, Note_on_c, 9, 40, 0
4, 6240, Note_on_c, 9, 55, 95
4, 6240, Note_on_c, 9, 42, 95
4, 6240, Note_on_c, 9, 35, 125
4, 6300, Note_on_c, 9, 42, 0
4, 6300, Note_on_c, 9, 55, 0
4, 6360, Note_on_c, 9, 35, 0
4, 6360, Note_on_c, 9, 42, 95
4, 6360, Note_on_c, 9, 40, 125
4, 6420, Note_on_c, 9, 42, 0
4, 6450, Note_on_c, 9, 35, 125
4, 6480, Note_on_c, 9, 35, 0
4, 6480, Note_on_c, 9, 40, 0
4, 6480, Note_on_c, 9, 35, 125
4, 6480, Note_on_c, 9, 42, 95
4, 6540, Note_on_c, 9, 42, 0
4, 6600, Note_on_c, 9, 35, 0
4, 6600, Note_on_c, 9, 42, 95
4, 6600, Note_on_c, 9, 40, 125
4, 6660, Note_on_c, 9, 42, 0
4, 6720, Note_on_c, 9, 40, 0
4, 6720, Note_on_c, 9, 42, 95
4, 6720, Note_on_c, 9, 35, 125
4, 6780, Note_on_c, 9, 42, 0
4, 6840, Note_on_c, 9, 35, 0
4, 6840, Note_on_c, 9, 42, 95
4, 6840, Note_on_c, 9, 40, 125
4, 6900, Note_on_c, 9, 42, 0
4, 6930, Note_on_c, 9, 35, 125
4, 6960, Note_on_c, 9, 35, 0
4, 6960, Note_on_c, 9, 40, 0
4, 6960, Note_on_c, 9, 35, 125
4, 6960, Note_on_c, 9, 42, 95
4, 7020, Note_on_c, 9, 42, 0
4, 7080, Note_on_c, 9, 35, 0
4, 7080, Note_on_c, 9, 42, 95
4, 7080, Note_on_c, 9, 40, 125
4, 7140, Note_on_c, 9, 42, 0
4, 7200, Note_on_c, 9, 40, 0
4, 7200, Note_on_c, 9, 42, 95
4, 7200, Note_on_c, 9, 35, 125
4, 7260, Note_on_c, 9, 42, 0
4, 7320, Note_on_c, 9, 35, 0
4, 7320, Note_on_c, 9, 42, 95
4, 7320, Note_on_c, 9, 40, 125
4, 7380, Note_on_c, 9, 42, 0
4, 7410, Note_on_c, 9, 35, 125
4, 7440, Note_on_c, 9, 35, 0
4, 7440, Note_on_c, 9, 40, 0
4, 7440, Note_on_c, 9, 35, 125
4, 7440, Note_on_c, 9, 42, 95
4, 7500, Note_on_c, 9, 42, 0
4, 7560, Note_on_c, 9, 35, 0
4, 7560, Note_on_c, 9, 42, 95
4, 7560, Note_on_c, 9, 40, 125
4, 7620, Note_on_c, 9, 42, 0
4, 7680, Note_on_c, 9, 40, 0
4, 7680, Note_on_c, 9, 42, 95
4, 7680, Note_on_c, 9, 35, 125
4, 7740, Note_on_c, 9, 42, 0
4, 7800, Note_on_c, 9, 35, 0
4, 7800, Note_on_c, 9, 42, 95
4, 7800, Note_on_c, 9, 40, 125
4, 7860, Note_on_c, 9, 42, 0
4, 7890, Note_on_c, 9, 35, 125
4, 7920, Note_on_c, 9, 35, 0
4, 7920, Note_on_c, 9, 40, 0
4, 7920, Note_on_c, 9, 35, 125
4, 7920, Note_on_c, 9, 42, 95
4, 7980, Note_on_c, 9, 42, 0
4, 8040, Note_on_c, 9, 35, 0
4, 8040, Note_on_c, 9, 42, 95
4, 8040, Note_on_c, 9, 40, 125
4, 8100, Note_on_c, 9, 42, 0
4, 8160, Note_on_c, 9, 40, 0
4, 8160, Note_on_c, 9, 55, 115
4, 8160, Note_on_c, 9, 42, 95
4, 8160, Note_on_c, 9, 35, 125
4, 8220, Note_on_c, 9, 42, 0
4, 8220, Note_on_c, 9, 55, 0
4, 8280, Note_on_c, 9, 35, 0
4, 8280, Note_on_c, 9, 42, 95
4, 8280, Note_on_c, 9, 40, 125
4, 8340, Note_on_c, 9, 42, 0
4, 8370, Note_on_c, 9, 35, 125
4, 8400, Note_on_c, 9, 35, 0
4, 8400, Note_on_c, 9, 40, 0
4, 8400, Note_on_c, 9, 35, 125
4, 8400, Note_on_c, 9, 42, 95
4, 8460, Note_on_c, 9, 42, 0
4, 8520, Note_on_c, 9, 35, 0
4, 8520, Note_on_c, 9, 46, 95
4, 8520, Note_on_c, 9, 40, 125
4, 8580, Note_on_c, 9, 46, 0
4, 8640, Note_on_c, 9, 40, 0
4, 8640, Note_on_c, 9, 42, 95
4, 8640, Note_on_c, 9, 35, 125
4, 8700, Note_on_c, 9, 42, 0
4, 8760, Note_on_c, 9, 35, 0
4, 8760, Note_on_c, 9, 42, 95
4, 8760, Note_on_c, 9, 40, 125
4, 8820, Note_on_c, 9, 42, 0
4, 8850, Note_on_c, 9, 35, 125
4, 8880, Note_on_c, 9, 35, 0
4, 8880, Note_on_c, 9, 40, 0
4, 8880, Note_on_c, 9, 35, 125
4, 8880, Note_on_c, 9, 42, 95
4, 8940, Note_on_c, 9, 42, 0
4, 9000, Note_on_c, 9, 35, 0
4, 9000, Note_on_c, 9, 42, 95
4, 9000, Note_on_c, 9, 40, 125
4, 9060, Note_on_c, 9, 42, 0
4, 9090, Note_on_c, 9, 35, 125
4, 9120, Note_on_c, 9, 35, 0
4, 9120, Note_on_c, 9, 40, 0
4, 9120, Note_on_c, 9, 42, 95
4, 9120, Note_on_c, 9, 35, 125
4, 9180, Note_on_c, 9, 42, 0
4, 9240, Note_on_c, 9, 35, 0
4, 9240, Note_on_c, 9, 42, 95
4, 9240, Note_on_c, 9, 40, 125
4, 9300, Note_on_c, 9, 42, 0
4, 9330, Note_on_c, 9, 35, 125
4, 9360, Note_on_c, 9, 35, 0
4, 9360, Note_on_c, 9, 40, 0
4, 9360, Note_on_c, 9, 35, 125
4, 9360, Note_on_c, 9, 42, 95
4, 9420, Note_on_c, 9, 42, 0
4, 9480, Note_on_c, 9, 35, 0
4, 9480, Note_on_c, 9, 42, 95
4, 9480, Note_on_c, 9, 40, 125
4, 9540, Note_on_c, 9, 42, 0
4, 9600, Note_on_c, 9, 40, 0
4, 9600, Note_on_c, 9, 55, 105
4, 9600, Note_on_c, 9, 42, 95
4, 9600, Note_on_c, 9, 35, 125
4, 9660, Note_on_c, 9, 42, 0
4, 9660, Note_on_c, 9, 55, 0
4, 9720, Note_on_c, 9, 35, 0
4, 9720, Note_on_c, 9, 42, 95
4, 9720, Note_on_c, 9, 40, 125
4, 9780, Note_on_c, 9, 42, 0
4, 9810, Note_on_c, 9, 35, 125
4, 9840, Note_on_c, 9, 35, 0
4, 9840, Note_on_c, 9, 40, 0
4, 9840, Note_on_c, 9, 55, 105
4, 9840, Note_on_c, 9, 35, 125
4, 9840, Note_on_c, 9, 42, 95
4, 9900, Note_on_c, 9, 42, 0
4, 9900, Note_on_c, 9, 55, 0
4, 9960, Note_on_c, 9, 35, 0
4, 9960, Note_on_c, 9, 42, 95
4, 9960, Note_on_c, 9, 40, 125
4, 10020, Note_on_c, 9, 42, 0
4, 10020, Note_on_c, 9, 35, 125
4, 10050, Note_on_c, 9, 35, 0
4, 10050, Note_on_c, 9, 40, 125
4, 10080, Note_on_c, 9, 40, 0
4, 10080, Note_on_c, 9, 40, 0
4, 10080, Note_on_c, 9, 40, 125
4, 10080, Note_on_c, 9, 42, 95
4, 10080, Note_on_c, 9, 51, 95
4, 10110, Note_on_c, 9, 40, 0
4, 10140, Note_on_c, 9, 42, 0
4, 10140, Note_on_c, 9, 35, 125
4, 10140, Note_on_c, 9, 42, 55
4, 10170, Note_on_c, 9, 35, 0
4, 10200, Note_on_c, 9, 42, 0
4, 10200, Note_on_c, 9, 51, 0
4, 10200, Note_on_c, 9, 42, 95
4, 10200, Note_on_c, 9, 40, 125
4, 10200, Note_on_c, 9, 51, 95
4, 10260, Note_on_c, 9, 42, 0
4, 10260, Note_on_c, 9, 35, 125
4, 10260, Note_on_c, 9, 42, 55
4, 10290, Note_on_c, 9, 35, 0
4, 10320, Note_on_c, 9, 40, 0
4, 10320, Note_on_c, 9, 51, 0
4, 10320, Note_on_c, 9, 42, 0
4, 10320, Note_on_c, 9, 35, 125
4, 10320, Note_on_c, 9, 42, 95
4, 10320, Note_on_c, 9, 51, 95
4, 10380, Note_on_c, 9, 42, 0
4, 10380, Note_on_c, 9, 42, 55
4, 10440, Note_on_c, 9, 42, 0
4, 10440, Note_on_c, 9, 51, 0
4, 10440, Note_on_c, 9, 35, 0
4, 10440, Note_on_c, 9, 42, 95
4, 10440, Note_on_c, 9, 40, 125
4, 10440, Note_on_c, 9, 51, 95
4, 10500, Note_on_c, 9, 42, 0
4, 10500, Note_on_c, 9, 42, 55
4, 10560, Note_on_c, 9, 42, 0
4, 10560, Note_on_c, 9, 51, 0
4, 10560, Note_on_c, 9, 40, 0
4, 10560, Note_on_c, 9, 42, 95
4, 10560, Note_on_c, 9, 35, 125
4, 10560, Note_on_c, 9, 51, 95
4, 10620, Note_on_c, 9, 42, 0
4, 10620, Note_on_c, 9, 42, 55
4, 10680, Note_on_c, 9, 42, 0
4, 10680, Note_on_c, 9, 51, 0
4, 10680, Note_on_c, 9, 35, 0
4, 10680, Note_on_c, 9, 42, 95
4, 10680, Note_on_c, 9, 40, 125
4, 10680, Note_on_c, 9, 51, 95
4, 10740, Note_on_c, 9, 42, 0
4, 10740, Note_on_c, 9, 35, 125
4, 10740, Note_on_c, 9, 42, 55
4, 10770, Note_on_c, 9, 35, 0
4, 10800, Note_on_c, 9, 40, 0
4, 10800, Note_on_c, 9, 51, 0
4, 10800, Note_on_c, 9, 42, 0
4, 10800, Note_on_c, 9, 35, 125
4, 10800, Note_on_c, 9, 42, 95
4, 10800, Note_on_c, 9, 51, 95
4, 10860, Note_on_c, 9, 42, 0
4, 10860, Note_on_c, 9, 42, 55
4, 10920, Note_on_c, 9, 42, 0
4, 10920, Note_on_c, 9, 51, 0
4, 10920, Note_on_c, 9, 35, 0
4, 10920, Note_on_c, 9, 42, 95
4, 10920, Note_on_c, 9, 40, 125
4, 10920, Note_on_c, 9, 51, 95
4, 10980, Note_on_c, 9, 42, 0
4, 10980, Note_on_c, 9, 42, 55
4, 11040, Note_on_c, 9, 42, 0
4, 11040, Note_on_c, 9, 51, 0
4, 11040, Note_on_c, 9, 40, 0
4, 11040, Note_on_c, 9, 42, 95
4, 11040, Note_on_c, 9, 35, 125
4, 11040, Note_on_c, 9, 51, 95
4, 11100, Note_on_c, 9, 42, 0
4, 11100, Note_on_c, 9, 42, 55
4, 11160, Note_on_c, 9, 42, 0
4, 11160, Note_on_c, 9, 51, 0
4, 11160, Note_on_c, 9, 35, 0
4, 11160, Note_on_c, 9, 42, 95
4, 11160, Note_on_c, 9, 40, 125
4, 11160, Note_on_c, 9, 51, 95
4, 11220, Note_on_c, 9, 42, 0
4, 11220, Note_on_c, 9, 35, 125
4, 11220, Note_on_c, 9, 42, 55
4, 11250, Note_on_c, 9, 35, 0
4, 11280, Note_on_c, 9, 40, 0
4, 11280, Note_on_c, 9, 51, 0
4, 11280, Note_on_c, 9, 42, 0
4, 11280, Note_on_c, 9, 35, 125
4, 11280, Note_on_c, 9, 42, 95
4, 11280, Note_on_c, 9, 51, 95
4, 11340, Note_on_c, 9, 42, 0
4, 11340, Note_on_c, 9, 42, 55
4, 11400, Note_on_c, 9, 42, 0
4, 11400, Note_on_c, 9, 51, 0
4, 11400, Note_on_c, 9, 35, 0
4, 11400, Note_on_c, 9, 42, 95
4, 11400, Note_on_c, 9, 40, 125
4, 11400, Note_on_c, 9, 51, 95
4, 11460, Note_on_c, 9, 42, 0
4, 11460, Note_on_c, 9, 42, 55
4, 11520, Note_on_c, 9, 42, 0
4, 11520, Note_on_c, 9, 51, 0
4, 11520, Note_on_c, 9, 40, 0
4, 11520, Note_on_c, 9, 42, 95
4, 11520, Note_on_c, 9, 35, 125
4, 11520, Note_on_c, 9, 51, 95
4, 11580, Note_on_c, 9, 42, 0
4, 11580, Note_on_c, 9, 42, 55
4, 11640, Note_on_c, 9, 42, 0
4, 11640, Note_on_c, 9, 51, 0
4, 11640, Note_on_c, 9, 35, 0
4, 11640, Note_on_c, 9, 42, 95
4, 11640, Note_on_c, 9, 40, 125
4, 11640, Note_on_c, 9, 51, 95
4, 11700, Note_on_c, 9, 42, 0
4, 11700, Note_on_c, 9, 35, 125
4, 11700, Note_on_c, 9, 42, 55
4, 11730, Note_on_c, 9, 35, 0
4, 11760, Note_on_c, 9, 40, 0
4, 11760, Note_on_c, 9, 51, 0
4, 11760, Note_on_c, 9, 42, 0
4, 11760, Note_on_c, 9, 35, 125
4, 11760, Note_on_c, 9, 42, 95
4, 11760, Note_on_c, 9, 51, 95
4, 11820, Note_on_c, 9, 42, 0
4, 11820, Note_on_c, 9, 42, 55
4, 11880, Note_on_c, 9, 42, 0
4, 11880, Note_on_c, 9, 51, 0
4, 11880, Note_on_c, 9, 35, 0
4, 11880, Note_on_c, 9, 42, 95
4, 11880, Note_on_c, 9, 40, 125
4, 11880, Note_on_c, 9, 51, 95
4, 11940, Note_on_c, 9, 42, 0
4, 11940, Note_on_c, 9, 42, 55
4, 11970, Note_on_c, 9, 46, 95
4, 11970, Note_on_c, 9, 35, 125
4, 12000, Note_on_c, 9, 35, 0
4, 12000, Note_on_c, 9, 42, 0
4, 12000, Note_on_c, 9, 40, 0
4, 12000, Note_on_c, 9, 51, 0
4, 12000, Note_on_c, 9, 46, 0
4, 12000, Note_on_c, 9, 42, 95
4, 12000, Note_on_c, 9, 51, 95
4, 12030, Note_on_c, 9, 42, 0
4, 12060, Note_on_c, 9, 42, 55
4, 12120, Note_on_c, 9, 42, 0
4, 12120, Note_on_c, 9, 51, 0
4, 12120, Note_on_c, 9, 42, 95
4, 12120, Note_on_c, 9, 40, 125
4, 12120, Note_on_c, 9, 51, 95
4, 12180, Note_on_c, 9, 42, 0
4, 12180, Note_on_c, 9, 35, 125
4, 12180, Note_on_c, 9, 42, 55
4, 12210, Note_on_c, 9, 35, 0
4, 12240, Note_on_c, 9, 40, 0
4, 12240, Note_on_c, 9, 51, 0
4, 12240, Note_on_c, 9, 42, 0
4, 12240, Note_on_c, 9, 35, 125
4, 12240, Note_on_c, 9, 42, 95
4, 12240, Note_on_c, 9, 51, 95
4, 12300, Note_on_c, 9, 42, 0
4, 12300, Note_on_c, 9, 42, 55
4, 12360, Note_on_c, 9, 42, 0
4, 12360, Note_on_c, 9, 51, 0
4, 12360, Note_on_c, 9, 35, 0
4, 12360, Note_on_c, 9, 42, 95
4, 12360, Note_on_c, 9, 40, 125
4, 12360, Note_on_c, 9, 51, 95
4, 12420, Note_on_c, 9, 42, 0
4, 12420, Note_on_c, 9, 42, 55
4, 12480, Note_on_c, 9, 42, 0
4, 12480, Note_on_c, 9, 51, 0
4, 12480, Note_on_c, 9, 40, 0
4, 12480, Note_on_c, 9, 42, 95
4, 12480, Note_on_c, 9, 35, 125
4, 12480, Note_on_c, 9, 51, 95
4, 12540, Note_on_c, 9, 42, 0
4, 12540, Note_on_c, 9, 42, 55
4, 12600, Note_on_c, 9, 42, 0
4, 12600, Note_on_c, 9, 51, 0
4, 12600, Note_on_c, 9, 35, 0
4, 12600, Note_on_c, 9, 42, 95
4, 12600, Note_on_c, 9, 40, 125
4, 12600, Note_on_c, 9, 51, 95
4, 12660, Note_on_c, 9, 42, 0
4, 12660, Note_on_c, 9, 35, 125
4, 12660, Note_on_c, 9, 42, 55
4, 12690, Note_on_c, 9, 35, 0
4, 12720, Note_on_c, 9, 40, 0
4, 12720, Note_on_c, 9, 51, 0
4, 12720, Note_on_c, 9, 42, 0
4, 12720, Note_on_c, 9, 35, 125
4, 12720, Note_on_c, 9, 42, 95
4, 12720, Note_on_c, 9, 51, 95
4, 12780, Note_on_c, 9, 42, 0
4, 12780, Note_on_c, 9, 42, 55
4, 12840, Note_on_c, 9, 42, 0
4, 12840, Note_on_c, 9, 51, 0
4, 12840, Note_on_c, 9, 35, 0
4, 12840, Note_on_c, 9, 42, 95
4, 12840, Note_on_c, 9, 40, 125
4, 12840, Note_on_c, 9, 51, 95
4, 12900, Note_on_c, 9, 42, 0
4, 12900, Note_on_c, 9, 42, 55
4, 12960, Note_on_c, 9, 42, 0
4, 12960, Note_on_c, 9, 51, 0
4, 12960, Note_on_c, 9, 40, 0
4, 12960, Note_on_c, 9, 42, 95
4, 12960, Note_on_c, 9, 35, 125
4, 12960, Note_on_c, 9, 51, 95
4, 13020, Note_on_c, 9, 42, 0
4, 13020, Note_on_c, 9, 42, 55
4, 13080, Note_on_c, 9, 42, 0
4, 13080, Note_on_c, 9, 51, 0
4, 13080, Note_on_c, 9, 35, 0
4, 13080, Note_on_c, 9, 42, 95
4, 13080, Note_on_c, 9, 40, 125
4, 13080, Note_on_c, 9, 51, 95
4, 13140, Note_on_c, 9, 42, 0
4, 13140, Note_on_c, 9, 35, 125
4, 13140, Note_on_c, 9, 42, 55
4, 13170, Note_on_c, 9, 35, 0
4, 13200, Note_on_c, 9, 40, 0
4, 13200, Note_on_c, 9, 51, 0
4, 13200, Note_on_c, 9, 42, 0
4, 13200, Note_on_c, 9, 35, 125
4, 13200, Note_on_c, 9, 42, 95
4, 13200, Note_on_c, 9, 51, 95
4, 13260, Note_on_c, 9, 42, 0
4, 13260, Note_on_c, 9, 42, 55
4, 13320, Note_on_c, 9, 42, 0
4, 13320, Note_on_c, 9, 51, 0
4, 13320, Note_on_c, 9, 35, 0
4, 13320, Note_on_c, 9, 42, 95
4, 13320, Note_on_c, 9, 40, 125
4, 13320, Note_on_c, 9, 51, 95
4, 13380, Note_on_c, 9, 42, 0
4, 13380, Note_on_c, 9, 42, 55
4, 13440, Note_on_c, 9, 42, 0
4, 13440, Note_on_c, 9, 51, 0
4, 13440, Note_on_c, 9, 40, 0
4, 13440, Note_on_c, 9, 42, 95
4, 13440, Note_on_c, 9, 35, 125
4, 13440, Note_on_c, 9, 51, 95
4, 13500, Note_on_c, 9, 42, 0
4, 13500, Note_on_c, 9, 42, 55
4, 13560, Note_on_c, 9, 42, 0
4, 13560, Note_on_c, 9, 51, 0
4, 13560, Note_on_c, 9, 35, 0
4, 13560, Note_on_c, 9, 42, 95
4, 13560, Note_on_c, 9, 40, 125
4, 13560, Note_on_c, 9, 51, 95
4, 13620, Note_on_c, 9, 42, 0
4, 13620, Note_on_c, 9, 35, 125
4, 13620, Note_on_c, 9, 42, 55
4, 13650, Note_on_c, 9, 35, 0
4, 13680, Note_on_c, 9, 40, 0
4, 13680, Note_on_c, 9, 51, 0
4, 13680, Note_on_c, 9, 42, 0
4, 13680, Note_on_c, 9, 35, 125
4, 13680, Note_on_c, 9, 42, 95
4, 13680, Note_on_c, 9, 51, 95
4, 13740, Note_on_c, 9, 42, 0
4, 13740, Note_on_c, 9, 42, 55
4, 13800, Note_on_c, 9, 42, 0
4, 13800, Note_on_c, 9, 51, 0
4, 13800, Note_on_c, 9, 35, 0
4, 13800, Note_on_c, 9, 42, 95
4, 13800, Note_on_c, 9, 40, 125
4, 13800, Note_on_c, 9, 51, 95
4, 13860, Note_on_c, 9, 42, 0
4, 13860, Note_on_c, 9, 42, 55
4, 13890, Note_on_c, 9, 49, 95
4, 13890, Note_on_c, 9, 35, 125
4, 13920, Note_on_c, 9, 35, 0
4, 13920, Note_on_c, 9, 42, 0
4, 13920, Note_on_c, 9, 40, 0
4, 13920, Note_on_c, 9, 51, 0
4, 13920, Note_on_c, 9, 49, 0
4, 13920, Note_on_c, 9, 42, 95
4, 13980, Note_on_c, 9, 42, 0
4, 14040, Note_on_c, 9, 42, 95
4, 14040, Note_on_c, 9, 40, 125
4, 14100, Note_on_c, 9, 42, 0
4, 14130, Note_on_c, 9, 35, 125
4, 14160, Note_on_c, 9, 35, 0
4, 14160, Note_on_c, 9, 40, 0
4, 14160, Note_on_c, 9, 35, 125
4, 14160, Note_on_c, 9, 42, 95
4, 14220, Note_on_c, 9, 42, 0
4, 14280, Note_on_c, 9, 35, 0
4, 14280, Note_on_c, 9, 42, 95
4, 14280, Note_on_c, 9, 40, 125
4, 14340, Note_on_c, 9, 42, 0
4, 14400, Note_on_c, 9, 40, 0
4, 14400, Note_on_c, 9, 42, 95
4, 14400, Note_on_c, 9, 35, 125
4, 14460, Note_on_c, 9, 42, 0
4, 14520, Note_on_c, 9, 35, 0
4, 14520, Note_on_c, 9, 42, 95
4, 14520, Note_on_c, 9, 40, 125
4, 14580, Note_on_c, 9, 42, 0
4, 14610, Note_on_c, 9, 35, 125
4, 14640, Note_on_c, 9, 35, 0
4, 14640, Note_on_c, 9, 40, 0
4, 14640, Note_on_c, 9, 35, 125
4, 14640, Note_on_c, 9, 42, 95
4, 14700, Note_on_c, 9, 42, 0
4, 14760, Note_on_c, 9, 35, 0
4, 14760, Note_on_c, 9, 42, 95
4, 14760, Note_on_c, 9, 40, 125
4, 14820, Note_on_c, 9, 42, 0
4, 14880, Note_on_c, 9, 40, 0
4, 14880, Note_on_c, 9, 42, 95
4, 14880, Note_on_c, 9, 35, 125
4, 14940, Note_on_c, 9, 42, 0
4, 15000, Note_on_c, 9, 35, 0
4, 15000, Note_on_c, 9, 42, 95
4, 15000, Note_on_c, 9, 40, 125
4, 15060, Note_on_c, 9, 42, 0
4, 15090, Note_on_c, 9, 35, 125
4, 15120, Note_on_c, 9, 35, 0
4, 15120, Note_on_c, 9, 40, 0
4, 15120, Note_on_c, 9, 35, 125
4, 15120, Note_on_c, 9, 42, 95
4, 15180, Note_on_c, 9, 42, 0
4, 15240, Note_on_c, 9, 35, 0
4, 15240, Note_on_c, 9, 42, 95
4, 15240, Note_on_c, 9, 40, 125
4, 15300, Note_on_c, 9, 42, 0
4, 15360, Note_on_c, 9, 40, 0
4, 15360, Note_on_c, 9, 42, 95
4, 15360, Note_on_c, 9, 35, 125
4, 15420, Note_on_c, 9, 42, 0
4, 15480, Note_on_c, 9, 35, 0
4, 15480, Note_on_c, 9, 42, 95
4, 15480, Note_on_c, 9, 40, 125
4, 15540, Note_on_c, 9, 42, 0
4, 15570, Note_on_c, 9, 35, 125
4, 15600, Note_on_c, 9, 35, 0
4, 15600, Note_on_c, 9, 40, 0
4, 15600, Note_on_c, 9, 35, 125
4, 15600, Note_on_c, 9, 42, 95
4, 15660, Note_on_c, 9, 42, 0
4, 15720, Note_on_c, 9, 35, 0
4, 15720, Note_on_c, 9, 42, 95
4, 15720, Note_on_c, 9, 40, 125
4, 15780, Note_on_c, 9, 42, 0
4, 15810, Note_on_c, 9, 40, 125
4, 15840, Note_on_c, 9, 40, 0
4, 15840, Note_on_c, 9, 40, 0
4, 15840, Note_on_c, 9, 55, 105
4, 15840, Note_on_c, 9, 42, 95
4, 15840, Note_on_c, 9, 35, 125
4, 15870, Note_on_c, 9, 55, 0
4, 15900, Note_on_c, 9, 42, 0
4, 15960, Note_on_c, 9, 35, 0
4, 15960, Note_on_c, 9, 42, 95
4, 15960, Note_on_c, 9, 40, 125
4, 16020, Note_on_c, 9, 42, 0
4, 16050, Note_on_c, 9, 35, 125
4, 16080, Note_on_c, 9, 35, 0
4, 16080, Note_on_c, 9, 40, 0
4, 16080, Note_on_c, 9, 35, 125
4, 16080, Note_on_c, 9, 42, 95
4, 16140, Note_on_c, 9, 42, 0
4, 16200, Note_on_c, 9, 35, 0
4, 16200, Note_on_c, 9, 42, 95
4, 16200, Note_on_c, 9, 40, 125
4, 16260, Note_on_c, 9, 42, 0
4, 16320, Note_on_c, 9, 40, 0
4, 16320, Note_on_c, 9, 42, 95
4, 16320, Note_on_c, 9, 35, 125
4, 16380, Note_on_c, 9, 42, 0
4, 16440, Note_on_c, 9, 35, 0
4, 16440, Note_on_c, 9, 42, 95
4, 16440, Note_on_c, 9, 40, 125
4, 16500, Note_on_c, 9, 42, 0
4, 16530, Note_on_c, 9, 35, 125
4, 16560, Note_on_c, 9, 35, 0
4, 16560, Note_on_c, 9, 40, 0
4, 16560, Note_on_c, 9, 35, 125
4, 16560, Note_on_c, 9, 42, 95
4, 16620, Note_on_c, 9, 42, 0
4, 16680, Note_on_c, 9, 35, 0
4, 16680, Note_on_c, 9, 42, 95
4, 16680, Note_on_c, 9, 40, 125
4, 16740, Note_on_c, 9, 42, 0
4, 16800, Note_on_c, 9, 40, 0
4, 16800, Note_on_c, 9, 42, 95
4, 16800, Note_on_c, 9, 35, 125
4, 16860, Note_on_c, 9, 42, 0
4, 16920, Note_on_c, 9, 35, 0
4, 16920, Note_on_c, 9, 42, 95
4, 16920, Note_on_c, 9, 40, 125
4, 16980, Note_on_c, 9, 42, 0
4, 17010, Note_on_c, 9, 35, 125
4, 17040, Note_on_c, 9, 35, 0
4, 17040, Note_on_c, 9, 40, 0
4, 17040, Note_on_c, 9, 35, 125
4, 17040, Note_on_c, 9, 42, 95
4, 17100, Note_on_c, 9, 42, 0
4, 17160, Note_on_c, 9, 35, 0
4, 17160, Note_on_c, 9, 42, 95
4, 17160, Note_on_c, 9, 40, 125
4, 17220, Note_on_c, 9, 42, 0
4, 17280, Note_on_c, 9, 40, 0
4, 17280, Note_on_c, 9, 42, 95
4, 17280, Note_on_c, 9, 35, 125
4, 17340, Note_on_c, 9, 42, 0
4, 17400, Note_on_c, 9, 35, 0
4, 17400, Note_on_c, 9, 42, 95
4, 17400, Note_on_c, 9, 40, 125
4, 17460, Note_on_c, 9, 42, 0
4, 17490, Note_on_c, 9, 35, 125
4, 17520, Note_on_c, 9, 35, 0
4, 17520, Note_on_c, 9, 40, 0
4, 17520, Note_on_c, 9, 35, 125
4, 17520, Note_on_c, 9, 42, 95
4, 17580, Note_on_c, 9, 42, 0
4, 17640, Note_on_c, 9, 35, 0
4, 17640, Note_on_c, 9, 42, 95
4, 17640, Note_on_c, 9, 40, 125
4, 17700, Note_on_c, 9, 42, 0
4, 17760, Note_on_c, 9, 40, 0
4, 17760, Note_on_c, 9, 55, 115
4, 17760, Note_on_c, 9, 42, 95
4, 17760, Note_on_c, 9, 35, 125
4, 17760, Note_on_c, 9, 51, 95
4, 17820, Note_on_c, 9, 42, 0
4, 17820, Note_on_c, 9, 55, 0
4, 17880, Note_on_c, 9, 35, 0
4, 17880, Note_on_c, 9, 51, 0
4, 17880, Note_on_c, 9, 42, 95
4, 17880, Note_on_c, 9, 40, 125
4, 17880, Note_on_c, 9, 51, 95
4, 17940, Note_on_c, 9, 42, 0
4, 17970, Note_on_c, 9, 35, 125
4, 18000, Note_on_c, 9, 35, 0
4, 18000, Note_on_c, 9, 51, 0
4, 18000, Note_on_c, 9, 40, 0
4, 18000, Note_on_c, 9, 35, 125
4, 18000, Note_on_c, 9, 42, 95
4, 18000, Note_on_c, 9, 51, 95
4, 18060, Note_on_c, 9, 42, 0
4, 18120, Note_on_c, 9, 51, 0
4, 18120, Note_on_c, 9, 35, 0
4, 18120, Note_on_c, 9, 42, 95
4, 18120, Note_on_c, 9, 40, 125
4, 18120, Note_on_c, 9, 51, 95
4, 18180, Note_on_c, 9, 42, 0
4, 18240, Note_on_c, 9, 51, 0
4, 18240, Note_on_c, 9, 40, 0
4, 18240, Note_on_c, 9, 42, 95
4, 18240, Note_on_c, 9, 35, 125
4, 18240, Note_on_c, 9, 51, 95
4, 18300, Note_on_c, 9, 42, 0
4, 18360, Note_on_c, 9, 51, 0
4, 18360, Note_on_c, 9, 35, 0
4, 18360, Note_on_c, 9, 42, 95
4, 18360, Note_on_c, 9, 40, 125
4, 18360, Note_on_c, 9, 51, 95
4, 18420, Note_on_c, 9, 42, 0
4, 18450, Note_on_c, 9, 35, 125
4, 18480, Note_on_c, 9, 35, 0
4, 18480, Note_on_c, 9, 51, 0
4, 18480, Note_on_c, 9, 40, 0
4, 18480, Note_on_c, 9, 35, 125
4, 18480, Note_on_c, 9, 42, 95
4, 18480, Note_on_c, 9, 51, 95
4, 18540, Note_on_c, 9, 42, 0
4, 18600, Note_on_c, 9, 51, 0
4, 18600, Note_on_c, 9, 35, 0
4, 18600, Note_on_c, 9, 42, 95
4, 18600, Note_on_c, 9, 40, 125
4, 18600, Note_on_c, 9, 51, 95
4, 18660, Note_on_c, 9, 42, 0
4, 18720, Note_on_c, 9, 51, 0
4, 18720, Note_on_c, 9, 40, 0
4, 18720, Note_on_c, 9, 42, 95
4, 18720, Note_on_c, 9, 35, 125
4, 18720, Note_on_c, 9, 51, 95
4, 18780, Note_on_c, 9, 42, 0
4, 18840, Note_on_c, 9, 51, 0
4, 18840, Note_on_c, 9, 35, 0
4, 18840, Note_on_c, 9, 42, 95
4, 18840, Note_on_c, 9, 40, 125
4, 18840, Note_on_c, 9, 51, 95
4, 18900, Note_on_c, 9, 42, 0
4, 18930, Note_on_c, 9, 35, 125
4, 18960, Note_on_c, 9, 35, 0
4, 18960, Note_on_c, 9, 51, 0
4, 18960, Note_on_c, 9, 40, 0
4, 18960, Note_on_c, 9, 35, 125
4, 18960, Note_on_c, 9, 42, 95
4, 18960, Note_on_c, 9, 51, 95
4, 19020, Note_on_c, 9, 42, 0
4, 19080, Note_on_c, 9, 51, 0
4, 19080, Note_on_c, 9, 35, 0
4, 19080, Note_on_c, 9, 42, 95
4, 19080, Note_on_c, 9, 40, 125
4, 19080, Note_on_c, 9, 51, 95
4, 19140, Note_on_c, 9, 42, 0
4, 19200, Note_on_c, 9, 51, 0
4, 19200, Note_on_c, 9, 40, 0
4, 19200, Note_on_c, 9, 42, 95
4, 19200, Note_on_c, 9, 35, 125
4, 19200, Note_on_c, 9, 51, 95
4, 19260, Note_on_c, 9, 42, 0
4, 19320, Note_on_c, 9, 51, 0
4, 19320, Note_on_c, 9, 35, 0
4, 19320, Note_on_c, 9, 42, 95
4, 19320, Note_on_c, 9, 40, 125
4, 19320, Note_on_c, 9, 51, 95
4, 19380, Note_on_c, 9, 42, 0
4, 19410, Note_on_c, 9, 35, 125
4, 19440, Note_on_c, 9, 35, 0
4, 19440, Note_on_c, 9, 51, 0
4, 19440, Note_on_c, 9, 40, 0
4, 19440, Note_on_c, 9, 35, 125
4, 19440, Note_on_c, 9, 42, 95
4, 19440, Note_on_c, 9, 51, 95
4, 19500, Note_on_c, 9, 42, 0
4, 19560, Note_on_c, 9, 51, 0
4, 19560, Note_on_c, 9, 35, 0
4, 19560, Note_on_c, 9, 42, 95
4, 19560, Note_on_c, 9, 40, 125
4, 19560, Note_on_c, 9, 51, 95
4, 19620, Note_on_c, 9, 42, 0
4, 19650, Note_on_c, 9, 40, 115
4, 19680, Note_on_c, 9, 40, 0
4, 19680, Note_on_c, 9, 51, 0
4, 19680, Note_on_c, 9, 40, 0
4, 19680, Note_on_c, 9, 40, 125
4, 19680, Note_on_c, 9, 42, 95
4, 19680, Note_on_c, 9, 51, 95
4, 19710, Note_on_c, 9, 40, 0
4, 19740, Note_on_c, 9, 42, 0
4, 19740, Note_on_c, 9, 35, 125
4, 19740, Note_on_c, 9, 42, 55
4, 19770, Note_on_c, 9, 35, 0
4, 19800, Note_on_c, 9, 42, 0
4, 19800, Note_on_c, 9, 51, 0
4, 19800, Note_on_c, 9, 55, 95
4, 19800, Note_on_c, 9, 42, 95
4, 19800, Note_on_c, 9, 40, 125
4, 19860, Note_on_c, 9, 42, 0
4, 19860, Note_on_c, 9, 35, 125
4, 19860, Note_on_c, 9, 42, 55
4, 19890, Note_on_c, 9, 35, 0
4, 19920, Note_on_c, 9, 55, 0
4, 19920, Note_on_c, 9, 40, 0
4, 19920, Note_on_c, 9, 42, 0
4, 19920, Note_on_c, 9, 35, 125
4, 19920, Note_on_c, 9, 42, 95
4, 19920, Note_on_c, 9, 51, 95
4, 19980, Note_on_c, 9, 42, 0
4, 19980, Note_on_c, 9, 42, 55
4, 20040, Note_on_c, 9, 42, 0
4, 20040, Note_on_c, 9, 51, 0
4, 20040, Note_on_c, 9, 35, 0
4, 20040, Note_on_c, 9, 42, 95
4, 20040, Note_on_c, 9, 40, 125
4, 20040, Note_on_c, 9, 51, 95
4, 20100, Note_on_c, 9, 42, 0
4, 20100, Note_on_c, 9, 42, 55
4, 20160, Note_on_c, 9, 42, 0
4, 20160, Note_on_c, 9, 51, 0
4, 20160, Note_on_c, 9, 40, 0
4, 20160, Note_on_c, 9, 42, 95
4, 20160, Note_on_c, 9, 35, 125
4, 20160, Note_on_c, 9, 51, 95
4, 20220, Note_on_c, 9, 42, 0
4, 20220, Note_on_c, 9, 42, 55
4, 20280, Note_on_c, 9, 42, 0
4, 20280, Note_on_c, 9, 51, 0
4, 20280, Note_on_c, 9, 35, 0
4, 20280, Note_on_c, 9, 42, 95
4, 20280, Note_on_c, 9, 40, 125
4, 20280, Note_on_c, 9, 51, 95
4, 20340, Note_on_c, 9, 42, 0
4, 20340, Note_on_c, 9, 35, 125
4, 20340, Note_on_c, 9, 42, 55
4, 20370, Note_on_c, 9, 35, 0
4, 20400, Note_on_c, 9, 40, 0
4, 20400, Note_on_c, 9, 51, 0
4, 20400, Note_on_c, 9, 42, 0
4, 20400, Note_on_c, 9, 35, 125
4, 20400, Note_on_c, 9, 42, 95
4, 20400, Note_on_c, 9, 51, 95
4, 20460, Note_on_c, 9, 42, 0
4, 20460, Note_on_c, 9, 42, 55
4, 20520, Note_on_c, 9, 42, 0
4, 20520, Note_on_c, 9, 51, 0
4, 20520, Note_on_c, 9, 35, 0
4, 20520, Note_on_c, 9, 42, 95
4, 20520, Note_on_c, 9, 40, 125
4, 20520, Note_on_c, 9, 51, 95
4, 20580, Note_on_c, 9, 42, 0
4, 20580, Note_on_c, 9, 42, 55
4, 20640, Note_on_c, 9, 42, 0
4, 20640, Note_on_c, 9, 51, 0
4, 20640, Note_on_c, 9, 40, 0
4, 20640, Note_on_c, 9, 42, 95
4, 20640, Note_on_c, 9, 35, 125
4, 20640, Note_on_c, 9, 51, 95
4, 20700, Note_on_c, 9, 42, 0
4, 20700, Note_on_c, 9, 42, 55
4, 20760, Note_on_c, 9, 42, 0
4, 20760, Note_on_c, 9, 51, 0
4, 20760, Note_on_c, 9, 35, 0
4, 20760, Note_on_c, 9, 42, 95
4, 20760, Note_on_c, 9, 40, 125
4, 20760, Note_on_c, 9, 51, 95
4, 20820, Note_on_c, 9, 42, 0
4, 20820, Note_on_c, 9, 35, 125
4, 20820, Note_on_c, 9, 42, 55
4, 20850, Note_on_c, 9, 35, 0
4, 20880, Note_on_c, 9, 40, 0
4, 20880, Note_on_c, 9, 51, 0
4, 20880, Note_on_c, 9, 42, 0
4, 20880, Note_on_c, 9, 35, 125
4, 20880, Note_on_c, 9, 42, 95
4, 20880, Note_on_c, 9, 51, 95
4, 20940, Note_on_c, 9, 42, 0
4, 20940, Note_on_c, 9, 42, 55
4, 21000, Note_on_c, 9, 42, 0
4, 21000, Note_on_c, 9, 51, 0
4, 21000, Note_on_c, 9, 35, 0
4, 21000, Note_on_c, 9, 42, 95
4, 21000, Note_on_c, 9, 40, 125
4, 21000, Note_on_c, 9, 51, 95
4, 21060, Note_on_c, 9, 42, 0
4, 21060, Note_on_c, 9, 42, 55
4, 21120, Note_on_c, 9, 42, 0
4, 21120, Note_on_c, 9, 51, 0
4, 21120, Note_on_c, 9, 40, 0
4, 21120, Note_on_c, 9, 42, 95
4, 21120, Note_on_c, 9, 35, 125
4, 21120, Note_on_c, 9, 51, 95
4, 21180, Note_on_c, 9, 42, 0
4, 21180, Note_on_c, 9, 42, 55
4, 21240, Note_on_c, 9, 42, 0
4, 21240, Note_on_c, 9, 51, 0
4, 21240, Note_on_c, 9, 35, 0
4, 21240, Note_on_c, 9, 42, 95
4, 21240, Note_on_c, 9, 40, 125
4, 21240, Note_on_c, 9, 51, 95
4, 21300, Note_on_c, 9, 42, 0
4, 21300, Note_on_c, 9, 35, 125
4, 21300, Note_on_c, 9, 42, 55
4, 21330, Note_on_c, 9, 35, 0
4, 21360, Note_on_c, 9, 40, 0
4, 21360, Note_on_c, 9, 51, 0
4, 21360, Note_on_c, 9, 42, 0
4, 21360, Note_on_c, 9, 35, 125
4, 21360, Note_on_c, 9, 42, 95
4, 21360, Note_on_c, 9, 51, 95
4, 21420, Note_on_c, 9, 42, 0
4, 21420, Note_on_c, 9, 42, 55
4, 21480, Note_on_c, 9, 42, 0
4, 21480, Note_on_c, 9, 51, 0
4, 21480, Note_on_c, 9, 35, 0
4, 21480, Note_on_c, 9, 42, 95
4, 21480, Note_on_c, 9, 40, 125
4, 21480, Note_on_c, 9, 51, 95
4, 21540, Note_on_c, 9, 42, 0
4, 21540, Note_on_c, 9, 42, 55
4, 21570, Note_on_c, 9, 46, 95
4, 21570, Note_on_c, 9, 35, 125
4, 21600, Note_on_c, 9, 35, 0
4, 21600, Note_on_c, 9, 42, 0
4, 21600, Note_on_c, 9, 40, 0
4, 21600, Note_on_c, 9, 51, 0
4, 21600, Note_on_c, 9, 46, 0
4, 21600, Note_on_c, 9, 42, 95
4, 21600, Note_on_c, 9, 51, 95
4, 21630, Note_on_c, 9, 42, 0
4, 21660, Note_on_c, 9, 42, 55
4, 21720, Note_on_c, 9, 42, 0
4, 21720, Note_on_c, 9, 51, 0
4, 21720, Note_on_c, 9, 42, 95
4, 21720, Note_on_c, 9, 40, 125
4, 21720, Note_on_c, 9, 51, 95
4, 21780, Note_on_c, 9, 42, 0
4, 21780, Note_on_c, 9, 35, 125
4, 21780, Note_on_c, 9, 42, 55
4, 21810, Note_on_c, 9, 35, 0
4, 21840, Note_on_c, 9, 40, 0
4, 21840, Note_on_c, 9, 51, 0
4, 21840, Note_on_c, 9, 42, 0
4, 21840, Note_on_c, 9, 35, 125
4, 21840, Note_on_c, 9, 42, 95
4, 21840, Note_on_c, 9, 51, 95
4, 21900, Note_on_c, 9, 42, 0
4, 21900, Note_on_c, 9, 42, 55
4, 21960, Note_on_c, 9, 42, 0
4, 21960, Note_on_c, 9, 51, 0
4, 21960, Note_on_c, 9, 35, 0
4, 21960, Note_on_c, 9, 42, 95
4, 21960, Note_on_c, 9, 40, 125
4, 21960, Note_on_c, 9, 51, 95
4, 22020, Note_on_c, 9, 42, 0
4, 22020, Note_on_c, 9, 42, 55
4, 22080, Note_on_c, 9, 42, 0
4, 22080, Note_on_c, 9, 51, 0
4, 22080, Note_on_c, 9, 40, 0
4, 22080, Note_on_c, 9, 42, 95
4, 22080, Note_on_c, 9, 35, 125
4, 22080, Note_on_c, 9, 51, 95
4, 22140, Note_on_c, 9, 42, 0
4, 22140, Note_on_c, 9, 42, 55
4, 22200, Note_on_c, 9, 42, 0
4, 22200, Note_on_c, 9, 51, 0
4, 22200, Note_on_c, 9, 35, 0
4, 22200, Note_on_c, 9, 42, 95
4, 22200, Note_on_c, 9, 40, 125
4, 22200, Note_on_c, 9, 51, 95
4, 22260, Note_on_c, 9, 42, 0
4, 22260, Note_on_c, 9, 35, 125
4, 22260, Note_on_c, 9, 42, 55
4, 22290, Note_on_c, 9, 35, 0
4, 22320, Note_on_c, 9, 40, 0
4, 22320, Note_on_c, 9, 51, 0
4, 22320, Note_on_c, 9, 42, 0
4, 22320, Note_on_c, 9, 35, 125
4, 22320, Note_on_c, 9, 42, 95
4, 22320, Note_on_c, 9, 51, 95
4, 22380, Note_on_c, 9, 42, 0
4, 22380, Note_on_c, 9, 42, 55
4, 22440, Note_on_c, 9, 42, 0
4, 22440, Note_on_c, 9, 51, 0
4, 22440, Note_on_c, 9, 35, 0
4, 22440, Note_on_c, 9, 42, 95
4, 22440, Note_on_c, 9, 40, 125
4, 22440, Note_on_c, 9, 51, 95
4, 22500, Note_on_c, 9, 42, 0
4, 22500, Note_on_c, 9, 42, 55
4, 22560, Note_on_c, 9, 42, 0
4, 22560, Note_on_c, 9, 51, 0
4, 22560, Note_on_c, 9, 40, 0
4, 22560, Note_on_c, 9, 42, 95
4, 22560, Note_on_c, 9, 35, 125
4, 22560, Note_on_c, 9, 51, 95
4, 22620, Note_on_c, 9, 42, 0
4, 22620, Note_on_c, 9, 42, 55
4, 22680, Note_on_c, 9, 42, 0
4, 22680, Note_on_c, 9, 51, 0
4, 22680, Note_on_c, 9, 35, 0
4, 22680, Note_on_c, 9, 42, 95
4, 22680, Note_on_c, 9, 40, 125
4, 22680, Note_on_c, 9, 51, 95
4, 22740, Note_on_c, 9, 42, 0
4, 22740, Note_on_c, 9, 35, 125
4, 22740, Note_on_c, 9, 42, 55
4, 22770, Note_on_c, 9, 35, 0
4, 22800, Note_on_c, 9, 40, 0
4, 22800, Note_on_c, 9, 51, 0
4, 22800, Note_on_c, 9, 42, 0
4, 22800, Note_on_c, 9, 35, 125
4, 22800, Note_on_c, 9, 42, 95
4, 22800, Note_on_c, 9, 51, 95
4, 22860, Note_on_c, 9, 42, 0
4, 22860, Note_on_c, 9, 42, 55
4, 22920, Note_on_c, 9, 42, 0
4, 22920, Note_on_c, 9, 51, 0
4, 22920, Note_on_c, 9, 35, 0
4, 22920, Note_on_c, 9, 42, 95
4, 22920, Note_on_c, 9, 40, 125
4, 22920, Note_on_c, 9, 51, 95
4, 22980, Note_on_c, 9, 42, 0
4, 22980, Note_on_c, 9, 42, 55
4, 23040, Note_on_c, 9, 42, 0
4, 23040, Note_on_c, 9, 51, 0
4, 23040, Note_on_c, 9, 40, 0
4, 23040, Note_on_c, 9, 42, 95
4, 23040, Note_on_c, 9, 35, 125
4, 23040, Note_on_c, 9, 51, 95
4, 23100, Note_on_c, 9, 42, 0
4, 23100, Note_on_c, 9, 42, 55
4, 23160, Note_on_c, 9, 42, 0
4, 23160, Note_on_c, 9, 51, 0
4, 23160, Note_on_c, 9, 35, 0
4, 23160, Note_on_c, 9, 42, 95
4, 23160, Note_on_c, 9, 40, 125
4, 23160, Note_on_c, 9, 51, 95
4, 23220, Note_on_c, 9, 42, 0
4, 23220, Note_on_c, 9, 35, 125
4, 23220, Note_on_c, 9, 42, 55
4, 23250, Note_on_c, 9, 35, 0
4, 23280, Note_on_c, 9, 40, 0
4, 23280, Note_on_c, 9, 51, 0
4, 23280, Note_on_c, 9, 42, 0
4, 23280, Note_on_c, 9, 35, 125
4, 23280, Note_on_c, 9, 42, 95
4, 23280, Note_on_c, 9, 51, 95
4, 23340, Note_on_c, 9, 42, 0
4, 23340, Note_on_c, 9, 42, 55
4, 23400, Note_on_c, 9, 42, 0
4, 23400, Note_on_c, 9, 51, 0
4, 23400, Note_on_c, 9, 35, 0
4, 23400, Note_on_c, 9, 42, 95
4, 23400, Note_on_c, 9, 40, 125
4, 23400, Note_on_c, 9, 51, 95
4, 23460, Note_on_c, 9, 42, 0
4, 23460, Note_on_c, 9, 42, 55
4, 23490, Note_on_c, 9, 55, 125
4, 23490, Note_on_c, 9, 35, 125
4, 23520, Note_on_c, 9, 35, 0
4, 23520, Note_on_c, 9, 42, 0
4, 23520, Note_on_c, 9, 40, 0
4, 23520, Note_on_c, 9, 51, 0
4, 23520, Note_on_c, 9, 55, 0
4, 23520, Note_on_c, 9, 49, 125
4, 23520, Note_on_c, 9, 42, 95
4, 23520, Note_on_c, 9, 35, 125
4, 23550, Note_on_c, 9, 49, 0
4, 23580, Note_on_c, 9, 42, 0
4, 23580, Note_on_c, 9, 42, 55
4, 23640, Note_on_c, 9, 42, 0
4, 23640, Note_on_c, 9, 35, 0
4, 23640, Note_on_c, 9, 51, 105
4, 23640, Note_on_c, 9, 42, 95
4, 23640, Note_on_c, 9, 40, 125
4, 23700, Note_on_c, 9, 42, 0
4, 23700, Note_on_c, 9, 42, 55
4, 23730, Note_on_c, 9, 35, 125
4, 23760, Note_on_c, 9, 35, 0
4, 23760, Note_on_c, 9, 51, 0
4, 23760, Note_on_c, 9, 40, 0
4, 23760, Note_on_c, 9, 42, 0
4, 23760, Note_on_c, 9, 51, 105
4, 23760, Note_on_c, 9, 35, 125
4, 23760, Note_on_c, 9, 42, 95
4, 23820, Note_on_c, 9, 42, 0
4, 23820, Note_on_c, 9, 42, 55
4, 23880, Note_on_c, 9, 42, 0
4, 23880, Note_on_c, 9, 35, 0
4, 23880, Note_on_c, 9, 51, 0
4, 23880, Note_on_c, 9, 51, 105
4, 23880, Note_on_c, 9, 42, 95
4, 23880, Note_on_c, 9, 40, 125
4, 23940, Note_on_c, 9, 42, 0
4, 23940, Note_on_c, 9, 42, 55
4, 24000, Note_on_c, 9, 42, 0
4, 24000, Note_on_c, 9, 40, 0
4, 24000, Note_on_c, 9, 51, 0
4, 24000, Note_on_c, 9, 51, 105
4, 24000, Note_on_c, 9, 42, 95
4, 24000, Note_on_c, 9, 35, 125
4, 24060, Note_on_c, 9, 42, 0
4, 24060, Note_on_c, 9, 42, 55
4, 24120, Note_on_c, 9, 42, 0
4, 24120, Note_on_c, 9, 35, 0
4, 24120, Note_on_c, 9, 51, 0
4, 24120, Note_on_c, 9, 51, 105
4, 24120, Note_on_c, 9, 42, 95
4, 24120, Note_on_c, 9, 40, 125
4, 24180, Note_on_c, 9, 42, 0
4, 24180, Note_on_c, 9, 42, 55
4, 24210, Note_on_c, 9, 35, 125
4, 24240, Note_on_c, 9, 35, 0
4, 24240, Note_on_c, 9, 51, 0
4, 24240, Note_on_c, 9, 40, 0
4, 24240, Note_on_c, 9, 42, 0
4, 24240, Note_on_c, 9, 51, 105
4, 24240, Note_on_c, 9, 35, 125
4, 24240, Note_on_c, 9, 42, 95
4, 24300, Note_on_c, 9, 42, 0
4, 24300, Note_on_c, 9, 42, 55
4, 24360, Note_on_c, 9, 42, 0
4, 24360, Note_on_c, 9, 35, 0
4, 24360, Note_on_c, 9, 51, 0
4, 24360, Note_on_c, 9, 51, 105
4, 24360, Note_on_c, 9, 42, 95
4, 24360, Note_on_c, 9, 40, 125
4, 24420, Note_on_c, 9, 42, 0
4, 24420, Note_on_c, 9, 42, 55
4, 24480, Note_on_c, 9, 42, 0
4, 24480, Note_on_c, 9, 40, 0
4, 24480, Note_on_c, 9, 51, 0
4, 24480, Note_on_c, 9, 51, 105
4, 24480, Note_on_c, 9, 42, 95
4, 24480, Note_on_c, 9, 35, 125
4, 24540, Note_on_c, 9, 42, 0
4, 24540, Note_on_c, 9, 42, 55
4, 24600, Note_on_c, 9, 42, 0
4, 24600, Note_on_c, 9, 35, 0
4, 24600, Note_on_c, 9, 51, 0
4, 24600, Note_on_c, 9, 51, 105
4, 24600, Note_on_c, 9, 42, 95
4, 24600, Note_on_c, 9, 40, 125
4, 24660, Note_on_c, 9, 42, 0
4, 24660, Note_on_c, 9, 42, 55
4, 24690, Note_on_c, 9, 35, 125
4, 24720, Note_on_c, 9, 35, 0
4, 24720, Note_on_c, 9, 51, 0
4, 24720, Note_on_c, 9, 40, 0
4, 24720, Note_on_c, 9, 42, 0
4, 24720, Note_on_c, 9, 51, 105
4, 24720, Note_on_c, 9, 35, 125
4, 24720, Note_on_c, 9, 42, 95
4, 24780, Note_on_c, 9, 42, 0
4, 24780, Note_on_c, 9, 42, 55
4, 24840, Note_on_c, 9, 42, 0
4, 24840, Note_on_c, 9, 35, 0
4, 24840, Note_on_c, 9, 51, 0
4, 24840, Note_on_c, 9, 51, 105
4, 24840, Note_on_c, 9, 42, 95
4, 24840, Note_on_c, 9, 40, 125
4, 24900, Note_on_c, 9, 42, 0
4, 24900, Note_on_c, 9, 42, 55
4, 24960, Note_on_c, 9, 42, 0
4, 24960, Note_on_c, 9, 40, 0
4, 24960, Note_on_c, 9, 51, 0
4, 24960, Note_on_c, 9, 51, 105
4, 24960, Note_on_c, 9, 42, 95
4, 24960, Note_on_c, 9, 35, 125
4, 25020, Note_on_c, 9, 42, 0
4, 25020, Note_on_c, 9, 42, 55
4, 25080, Note_on_c, 9, 42, 0
4, 25080, Note_on_c, 9, 35, 0
4, 25080, Note_on_c, 9, 51, 0
4, 25080, Note_on_c, 9, 51, 105
4, 25080, Note_on_c, 9, 42, 95
4, 25080, Note_on_c, 9, 40, 125
4, 25140, Note_on_c, 9, 42, 0
4, 25140, Note_on_c, 9, 42, 55
4, 25170, Note_on_c, 9, 35, 125
4, 25200, Note_on_c, 9, 35, 0
4, 25200, Note_on_c, 9, 51, 0
4, 25200, Note_on_c, 9, 40, 0
4, 25200, Note_on_c, 9, 42, 0
4, 25200, Note_on_c, 9, 51, 105
4, 25200, Note_on_c, 9, 35, 125
4, 25200, Note_on_c, 9, 42, 95
4, 25260, Note_on_c, 9, 42, 0
4, 25260, Note_on_c, 9, 42, 55
4, 25320, Note_on_c, 9, 42, 0
4, 25320, Note_on_c, 9, 35, 0
4, 25320, Note_on_c, 9, 51, 0
4, 25320, Note_on_c, 9, 46, 95
4, 25320, Note_on_c, 9, 51, 105
4, 25320, Note_on_c, 9, 40, 125
4, 25380, Note_on_c, 9, 46, 0
4, 25440, Note_on_c, 9, 40, 0
4, 25440, Note_on_c, 9, 51, 0
4, 25440, Note_on_c, 9, 49, 105
4, 25440, Note_on_c, 9, 42, 95
4, 25440, Note_on_c, 9, 35, 125
4, 25500, Note_on_c, 9, 42, 0
4, 25500, Note_on_c, 9, 42, 55
4, 25560, Note_on_c, 9, 42, 0
4, 25560, Note_on_c, 9, 35, 0
4, 25560, Note_on_c, 9, 49, 0
4, 25560, Note_on_c, 9, 51, 105
4, 25560, Note_on_c, 9, 42, 95
4, 25560, Note_on_c, 9, 40, 125
4, 25620, Note_on_c, 9, 42, 0
4, 25620, Note_on_c, 9, 42, 55
4, 25650, Note_on_c, 9, 35, 125
4, 25680, Note_on_c, 9, 35, 0
4, 25680, Note_on_c, 9, 51, 0
4, 25680, Note_on_c, 9, 40, 0
4, 25680, Note_on_c, 9, 42, 0
4, 25680, Note_on_c, 9, 51, 105
4, 25680, Note_on_c, 9, 35, 125
4, 25680, Note_on_c, 9, 42, 95
4, 25740, Note_on_c, 9, 42, 0
4, 25740, Note_on_c, 9, 42, 55
4, 25800, Note_on_c, 9, 42, 0
4, 25800, Note_on_c, 9, 35, 0
4, 25800, Note_on_c, 9, 51, 0
4, 25800, Note_on_c, 9, 51, 105
4, 25800, Note_on_c, 9, 42, 95
4, 25800, Note_on_c, 9, 40, 125
4, 25860, Note_on_c, 9, 42, 0
4, 25860, Note_on_c, 9, 42, 55
4, 25920, Note_on_c, 9, 42, 0
4, 25920, Note_on_c, 9, 40, 0
4, 25920, Note_on_c, 9, 51, 0
4, 25920, Note_on_c, 9, 51, 105
4, 25920, Note_on_c, 9, 42, 95
4, 25920, Note_on_c, 9, 35, 125
4, 25980, Note_on_c, 9, 42, 0
4, 25980, Note_on_c, 9, 42, 55
4, 26040, Note_on_c, 9, 42, 0
4, 26040, Note_on_c, 9, 35, 0
4, 26040, Note_on_c, 9, 51, 0
4, 26040, Note_on_c, 9, 51, 105
4, 26040, Note_on_c, 9, 42, 95
4, 26040, Note_on_c, 9, 40, 125
4, 26100, Note_on_c, 9, 42, 0
4, 26100, Note_on_c, 9, 42, 55
4, 26130, Note_on_c, 9, 35, 125
4, 26160, Note_on_c, 9, 35, 0
4, 26160, Note_on_c, 9, 51, 0
4, 26160, Note_on_c, 9, 40, 0
4, 26160, Note_on_c, 9, 42, 0
4, 26160, Note_on_c, 9, 51, 105
4, 26160, Note_on_c, 9, 35, 125
4, 26160, Note_on_c, 9, 42, 95
4, 26220, Note_on_c, 9, 42, 0
4, 26220, Note_on_c, 9, 42, 55
4, 26280, Note_on_c, 9, 42, 0
4, 26280, Note_on_c, 9, 35, 0
4, 26280, Note_on_c, 9, 51, 0
4, 26280, Note_on_c, 9, 51, 105
4, 26280, Note_on_c, 9, 42, 95
4, 26280, Note_on_c, 9, 40, 125
4, 26340, Note_on_c, 9, 42, 0
4, 26340, Note_on_c, 9, 42, 55
4, 26400, Note_on_c, 9, 42, 0
4, 26400, Note_on_c, 9, 40, 0
4, 26400, Note_on_c, 9, 51, 0
4, 26400, Note_on_c, 9, 51, 105
4, 26400, Note_on_c, 9, 42, 95
4, 26400, Note_on_c, 9, 35, 125
4, 26460, Note_on_c, 9, 42, 0
4, 26460, Note_on_c, 9, 42, 55
4, 26520, Note_on_c, 9, 42, 0
4, 26520, Note_on_c, 9, 35, 0
4, 26520, Note_on_c, 9, 51, 0
4, 26520, Note_on_c, 9, 51, 105
4, 26520, Note_on_c, 9, 42, 95
4, 26520, Note_on_c, 9, 40, 125
4, 26580, Note_on_c, 9, 42, 0
4, 26580, Note_on_c, 9, 42, 55
4, 26610, Note_on_c, 9, 35, 125
4, 26640, Note_on_c, 9, 35, 0
4, 26640, Note_on_c, 9, 51, 0
4, 26640, Note_on_c, 9, 40, 0
4, 26640, Note_on_c, 9, 42, 0
4, 26640, Note_on_c, 9, 51, 105
4, 26640, Note_on_c, 9, 35, 125
4, 26640, Note_on_c, 9, 42, 95
4, 26700, Note_on_c, 9, 42, 0
4, 26700, Note_on_c, 9, 42, 55
4, 26760, Note_on_c, 9, 42, 0
4, 26760, Note_on_c, 9, 35, 0
4, 26760, Note_on_c, 9, 51, 0
4, 26760, Note_on_c, 9, 51, 105
4, 26760, Note_on_c, 9, 42, 95
4, 26760, Note_on_c, 9, 40, 125
4, 26820, Note_on_c, 9, 42, 0
4, 26820, Note_on_c, 9, 42, 55
4, 26880, Note_on_c, 9, 42, 0
4, 26880, Note_on_c, 9, 40, 0
4, 26880, Note_on_c, 9, 51, 0
4, 26880, Note_on_c, 9, 51, 105
4, 26880, Note_on_c, 9, 42, 95
4, 26880, Note_on_c, 9, 35, 125
4, 26940, Note_on_c, 9, 42, 0
4, 26940, Note_on_c, 9, 42, 55
4, 27000, Note_on_c, 9, 42, 0
4, 27000, Note_on_c, 9, 35, 0
4, 27000, Note_on_c, 9, 51, 0
4, 27000, Note_on_c, 9, 51, 105
4, 27000, Note_on_c, 9, 42, 95
4, 27000, Note_on_c, 9, 40, 125
4, 27060, Note_on_c, 9, 42, 0
4, 27060, Note_on_c, 9, 42, 55
4, 27090, Note_on_c, 9, 35, 125
4, 27120, Note_on_c, 9, 35, 0
4, 27120, Note_on_c, 9, 51, 0
4, 27120, Note_on_c, 9, 40, 0
4, 27120, Note_on_c, 9, 42, 0
4, 27120, Note_on_c, 9, 51, 105
4, 27120, Note_on_c, 9, 35, 125
4, 27120, Note_on_c, 9, 42, 95
4, 27180, Note_on_c, 9, 42, 0
4, 27180, Note_on_c, 9, 42, 55
4, 27240, Note_on_c, 9, 42, 0
4, 27240, Note_on_c, 9, 35, 0
4, 27240, Note_on_c, 9, 51, 0
4, 27240, Note_on_c, 9, 51, 105
4, 27240, Note_on_c, 9, 42, 95
4, 27300, Note_on_c, 9, 42, 0
4, 27300, Note_on_c, 9, 42, 55
4, 27330, Note_on_c, 9, 35, 125
4, 27360, Note_on_c, 9, 35, 0
4, 27360, Note_on_c, 9, 42, 0
4, 27360, Note_on_c, 9, 51, 0
4, 27360, Note_on_c, 9, 40, 125
4, 27360, Note_on_c, 9, 42, 95
4, 27390, Note_on_c, 9, 40, 0
4, 27390, Note_on_c, 9, 35, 125
4, 27420, Note_on_c, 9, 35, 0
4, 27420, Note_on_c, 9, 42, 0
4, 27480, Note_on_c, 9, 42, 95
4, 27480, Note_on_c, 9, 40, 125
4, 27540, Note_on_c, 9, 42, 0
4, 27540, Note_on_c, 9, 35, 125
4, 27570, Note_on_c, 9, 35, 0
4, 27600, Note_on_c, 9, 40, 0
4, 27600, Note_on_c, 9, 35, 125
4, 27600, Note_on_c, 9, 42, 95
4, 27660, Note_on_c, 9, 42, 0
4, 27720, Note_on_c, 9, 35, 0
4, 27720, Note_on_c, 9, 42, 95
4, 27720, Note_on_c, 9, 40, 125
4, 27780, Note_on_c, 9, 42, 0
4, 27840, Note_on_c, 9, 40, 0
4, 27840, Note_on_c, 9, 42, 95
4, 27840, Note_on_c, 9, 35, 125
4, 27900, Note_on_c, 9, 42, 0
4, 27960, Note_on_c, 9, 35, 0
4, 27960, Note_on_c, 9, 42, 95
4, 27960, Note_on_c, 9, 40, 125
4, 28020, Note_on_c, 9, 42, 0
4, 28050, Note_on_c, 9, 35, 125
4, 28080, Note_on_c, 9, 35, 0
4, 28080, Note_on_c, 9, 40, 0
4, 28080, Note_on_c, 9, 35, 125
4, 28080, Note_on_c, 9, 42, 95
4, 28140, Note_on_c, 9, 42, 0
4, 28200, Note_on_c, 9, 35, 0
4, 28200, Note_on_c, 9, 42, 95
4, 28200, Note_on_c, 9, 40, 125
4, 28260, Note_on_c, 9, 42, 0
4, 28320, Note_on_c, 9, 40, 0
4, 28320, Note_on_c, 9, 42, 95
4, 28320, Note_on_c, 9, 35, 125
4, 28380, Note_on_c, 9, 42, 0
4, 28440, Note_on_c, 9, 35, 0
4, 28440, Note_on_c, 9, 42, 95
4, 28440, Note_on_c, 9, 40, 125
4, 28500, Note_on_c, 9, 42, 0
4, 28530, Note_on_c, 9, 35, 125
4, 28560, Note_on_c, 9, 35, 0
4, 28560, Note_on_c, 9, 40, 0
4, 28560, Note_on_c, 9, 35, 125
4, 28560, Note_on_c, 9, 42, 95
4, 28620, Note_on_c, 9, 42, 0
4, 28680, Note_on_c, 9, 35, 0
4, 28680, Note_on_c, 9, 42, 95
4, 28680, Note_on_c, 9, 40, 125
4, 28740, Note_on_c, 9, 42, 0
4, 28800, Note_on_c, 9, 40, 0
4, 28800, Note_on_c, 9, 42, 95
4, 28800, Note_on_c, 9, 35, 125
4, 28860, Note_on_c, 9, 42, 0
4, 28920, Note_on_c, 9, 35, 0
4, 28920, Note_on_c, 9, 42, 95
4, 28920, Note_on_c, 9, 40, 125
4, 28980, Note_on_c, 9, 42, 0
4, 29010, Note_on_c, 9, 35, 125
4, 29040, Note_on_c, 9, 35, 0
4, 29040, Note_on_c, 9, 40, 0
4, 29040, Note_on_c, 9, 35, 125
4, 29040, Note_on_c, 9, 42, 95
4, 29100, Note_on_c, 9, 42, 0
4, 29100, Note_on_c, 9, 40, 125
4, 29130, Note_on_c, 9, 40, 0
4, 29160, Note_on_c, 9, 35, 0
4, 29160, Note_on_c, 9, 42, 95
4, 29160, Note_on_c, 9, 40, 125
4, 29190, Note_on_c, 9, 40, 125
4, 29220, Note_on_c, 9, 40, 0
4, 29220, Note_on_c, 9, 42, 0
4, 29250, Note_on_c, 9, 35, 125
4, 29280, Note_on_c, 9, 35, 0
4, 29280, Note_on_c, 9, 40, 0
4, 29280, Note_on_c, 9, 55, 115
4, 29280, Note_on_c, 9, 42, 95
4, 29280, Note_on_c, 9, 35, 125
4, 29310, Note_on_c, 9, 55, 0
4, 29340, Note_on_c, 9, 42, 0
4, 29400, Note_on_c, 9, 35, 0
4, 29400, Note_on_c, 9, 42, 95
4, 29400, Note_on_c, 9, 40, 125
4, 29460, Note_on_c, 9, 42, 0
4, 29490, Note_on_c, 9, 35, 125
4, 29520, Note_on_c, 9, 35, 0
4, 29520, Note_on_c, 9, 40, 0
4, 29520, Note_on_c, 9, 35, 125
4, 29520, Note_on_c, 9, 42, 95
4, 29580, Note_on_c, 9, 42, 0
4, 29640, Note_on_c, 9, 35, 0
4, 29640, Note_on_c, 9, 42, 95
4, 29640, Note_on_c, 9, 40, 125
4, 29700, Note_on_c, 9, 42, 0
4, 29760, Note_on_c, 9, 40, 0
4, 29760, Note_on_c, 9, 42, 95
4, 29760, Note_on_c, 9, 35, 125
4, 29820, Note_on_c, 9, 42, 0
4, 29880, Note_on_c, 9, 35, 0
4, 29880, Note_on_c, 9, 42, 95
4, 29880, Note_on_c, 9, 40, 125
4, 29940, Note_on_c, 9, 42, 0
4, 29970, Note_on_c, 9, 35, 125
4, 30000, Note_on_c, 9, 35, 0
4, 30000, Note_on_c, 9, 40, 0
4, 30000, Note_on_c, 9, 35, 125
4, 30000, Note_on_c, 9, 42, 95
4, 30060, Note_on_c, 9, 42, 0
4, 30120, Note_on_c, 9, 35, 0
4, 30120, Note_on_c, 9, 42, 95
4, 30120, Note_on_c, 9, 40, 125
4, 30180, Note_on_c, 9, 42, 0
4, 30240, Note_on_c, 9, 40, 0
4, 30240, Note_on_c, 9, 42, 95
4, 30240, Note_on_c, 9, 35, 125
4, 30300, Note_on_c, 9, 42, 0
4, 30360, Note_on_c, 9, 35, 0
4, 30360, Note_on_c, 9, 42, 95
4, 30360, Note_on_c, 9, 40, 125
4, 30420, Note_on_c, 9, 42, 0
4, 30450, Note_on_c, 9, 35, 125
4, 30480, Note_on_c, 9, 35, 0
4, 30480, Note_on_c, 9, 40, 0
4, 30480, Note_on_c, 9, 35, 125
4, 30480, Note_on_c, 9, 42, 95
4, 30540, Note_on_c, 9, 42, 0
4, 30600, Note_on_c, 9, 35, 0
4, 30600, Note_on_c, 9, 42, 95
4, 30600, Note_on_c, 9, 40, 125
4, 30660, Note_on_c, 9, 42, 0
4, 30720, Note_on_c, 9, 40, 0
4, 30720, Note_on_c, 9, 42, 95
4, 30720, Note_on_c, 9, 35, 125
4, 30780, Note_on_c, 9, 42, 0
4, 30840, Note_on_c, 9, 35, 0
4, 30840, Note_on_c, 9, 42, 95
4, 30840, Note_on_c, 9, 40, 125
4, 30900, Note_on_c, 9, 42, 0
4, 30930, Note_on_c, 9, 35, 125
4, 30960, Note_on_c, 9, 35, 0
4, 30960, Note_on_c, 9, 40, 0
4, 30960, Note_on_c, 9, 35, 125
4, 30960, Note_on_c, 9, 42, 95
4, 31020, Note_on_c, 9, 42, 0
4, 31080, Note_on_c, 9, 35, 0
4, 31080, Note_on_c, 9, 42, 95
4, 31080, Note_on_c, 9, 40, 125
4, 31110, Note_on_c, 9, 40, 115
4, 31140, Note_on_c, 9, 40, 0
4, 31140, Note_on_c, 9, 42, 0
4, 31170, Note_on_c, 9, 40, 115
4, 31200, Note_on_c, 9, 40, 0
4, 31200, Note_on_c, 9, 40, 0
4, 31200, Note_on_c, 9, 55, 115
4, 31200, Note_on_c, 9, 42, 95
4, 31200, Note_on_c, 9, 35, 125
4, 31260, Note_on_c, 9, 42, 0
4, 31260, Note_on_c, 9, 55, 0
4, 31320, Note_on_c, 9, 35, 0
4, 31320, Note_on_c, 9, 51, 105
4, 31320, Note_on_c, 9, 42, 95
4, 31320, Note_on_c, 9, 40, 125
4, 31380, Note_on_c, 9, 42, 0
4, 31380, Note_on_c, 9, 51, 0
4, 31410, Note_on_c, 9, 35, 125
4, 31440, Note_on_c, 9, 35, 0
4, 31440, Note_on_c, 9, 40, 0
4, 31440, Note_on_c, 9, 51, 105
4, 31440, Note_on_c, 9, 35, 125
4, 31440, Note_on_c, 9, 42, 95
4, 31500, Note_on_c, 9, 42, 0
4, 31500, Note_on_c, 9, 51, 0
4, 31560, Note_on_c, 9, 35, 0
4, 31560, Note_on_c, 9, 51, 105
4, 31560, Note_on_c, 9, 42, 95
4, 31560, Note_on_c, 9, 40, 125
4, 31620, Note_on_c, 9, 42, 0
4, 31620, Note_on_c, 9, 51, 0
4, 31680, Note_on_c, 9, 40, 0
4, 31680, Note_on_c, 9, 51, 105
4, 31680, Note_on_c, 9, 42, 95
4, 31680, Note_on_c, 9, 35, 125
4, 31740, Note_on_c, 9, 42, 0
4, 31740, Note_on_c, 9, 51, 0
4, 31800, Note_on_c, 9, 35, 0
4, 31800, Note_on_c, 9, 51, 105
4, 31800, Note_on_c, 9, 42, 95
4, 31800, Note_on_c, 9, 40, 125
4, 31860, Note_on_c, 9, 42, 0
4, 31860, Note_on_c, 9, 51, 0
4, 31890, Note_on_c, 9, 35, 125
4, 31920, Note_on_c, 9, 35, 0
4, 31920, Note_on_c, 9, 40, 0
4, 31920, Note_on_c, 9, 51, 105
4, 31920, Note_on_c, 9, 35, 125
4, 31920, Note_on_c, 9, 42, 95
4, 31980, Note_on_c, 9, 42, 0
4, 31980, Note_on_c, 9, 51, 0
4, 32040, Note_on_c, 9, 35, 0
4, 32040, Note_on_c, 9, 51, 105
4, 32040, Note_on_c, 9, 42, 95
4, 32040, Note_on_c, 9, 40, 125
4, 32100, Note_on_c, 9, 42, 0
4, 32100, Note_on_c, 9, 51, 0
4, 32160, Note_on_c, 9, 40, 0
4, 32160, Note_on_c, 9, 51, 105
4, 32160, Note_on_c, 9, 42, 95
4, 32160, Note_on_c, 9, 35, 125
4, 32220, Note_on_c, 9, 42, 0
4, 32220, Note_on_c, 9, 51, 0
4, 32280, Note_on_c, 9, 35, 0
4, 32280, Note_on_c, 9, 51, 105
4, 32280, Note_on_c, 9, 42, 95
4, 32280, Note_on_c, 9, 40, 125
4, 32340, Note_on_c, 9, 42, 0
4, 32340, Note_on_c, 9, 51, 0
4, 32370, Note_on_c, 9, 35, 125
4, 32400, Note_on_c, 9, 35, 0
4, 32400, Note_on_c, 9, 40, 0
4, 32400, Note_on_c, 9, 51, 105
4, 32400, Note_on_c, 9, 35, 125
4, 32400, Note_on_c, 9, 42, 95
4, 32460, Note_on_c, 9, 42, 0
4, 32460, Note_on_c, 9, 51, 0
4, 32520, Note_on_c, 9, 35, 0
4, 32520, Note_on_c, 9, 51, 105
4, 32520, Note_on_c, 9, 42, 95
4, 32520, Note_on_c, 9, 40, 125
4, 32580, Note_on_c, 9, 42, 0
4, 32580, Note_on_c, 9, 51, 0
4, 32640, Note_on_c, 9, 40, 0
4, 32640, Note_on_c, 9, 51, 105
4, 32640, Note_on_c, 9, 42, 95
4, 32640, Note_on_c, 9, 35, 125
4, 32700, Note_on_c, 9, 42, 0
4, 32700, Note_on_c, 9, 51, 0
4, 32760, Note_on_c, 9, 35, 0
4, 32760, Note_on_c, 9, 51, 105
4, 32760, Note_on_c, 9, 42, 95
4, 32760, Note_on_c, 9, 40, 125
4, 32820, Note_on_c, 9, 42, 0
4, 32820, Note_on_c, 9, 51, 0
4, 32850, Note_on_c, 9, 35, 125
4, 32880, Note_on_c, 9, 35, 0
4, 32880, Note_on_c, 9, 40, 0
4, 32880, Note_on_c, 9, 51, 105
4, 32880, Note_on_c, 9, 35, 125
4, 32880, Note_on_c, 9, 42, 95
4, 32940, Note_on_c, 9, 42, 0
4, 32940, Note_on_c, 9, 51, 0
4, 32940, Note_on_c, 9, 40, 125
4, 32970, Note_on_c, 9, 40, 0
4, 33000, Note_on_c, 9, 35, 0
4, 33000, Note_on_c, 9, 40, 125
4, 33000, Note_on_c, 9, 51, 105
4, 33000, Note_on_c, 9, 42, 95
4, 33030, Note_on_c, 9, 40, 0
4, 33030, Note_on_c, 9, 40, 125
4, 33060, Note_on_c, 9, 40, 0
4, 33060, Note_on_c, 9, 42, 0
4, 33060, Note_on_c, 9, 51, 0
4, 33060, Note_on_c, 9, 40, 125
4, 33090, Note_on_c, 9, 40, 0
4, 33090, Note_on_c, 9, 46, 105
4, 33090, Note_on_c, 9, 35, 125
4, 33120, Note_on_c, 9, 35, 0
4, 33120, Note_on_c, 9, 46, 0
4, 33120, Note_on_c, 9, 42, 95
4, 33120, Note_on_c, 9, 51, 95
4, 33180, Note_on_c, 9, 42, 0
4, 33180, Note_on_c, 9, 42, 55
4, 33240, Note_on_c, 9, 42, 0
4, 33240, Note_on_c, 9, 51, 0
4, 33240, Note_on_c, 9, 55, 95
4, 33240, Note_on_c, 9, 42, 95
4, 33240, Note_on_c, 9, 40, 125
4, 33300, Note_on_c, 9, 42, 0
4, 33300, Note_on_c, 9, 35, 125
4, 33300, Note_on_c, 9, 42, 55
4, 33330, Note_on_c, 9, 35, 0
4, 33360, Note_on_c, 9, 55, 0
4, 33360, Note_on_c, 9, 40, 0
4, 33360, Note_on_c, 9, 42, 0
4, 33360, Note_on_c, 9, 35, 125
4, 33360, Note_on_c, 9, 42, 95
4, 33360, Note_on_c, 9, 51, 95
4, 33420, Note_on_c, 9, 42, 0
4, 33420, Note_on_c, 9, 42, 55
4, 33480, Note_on_c, 9, 42, 0
4, 33480, Note_on_c, 9, 51, 0
4, 33480, Note_on_c, 9, 35, 0
4, 33480, Note_on_c, 9, 42, 95
4, 33480, Note_on_c, 9, 40, 125
4, 33480, Note_on_c, 9, 51, 95
4, 33540, Note_on_c, 9, 42, 0
4, 33540, Note_on_c, 9, 42, 55
4, 33600, Note_on_c, 9, 42, 0
4, 33600, Note_on_c, 9, 51, 0
4, 33600, Note_on_c, 9, 40, 0
4, 33600, Note_on_c, 9, 42, 95
4, 33600, Note_on_c, 9, 35, 125
4, 33600, Note_on_c, 9, 51, 95
4, 33660, Note_on_c, 9, 42, 0
4, 33660, Note_on_c, 9, 42, 55
4, 33720, Note_on_c, 9, 42, 0
4, 33720, Note_on_c, 9, 51, 0
4, 33720, Note_on_c, 9, 35, 0
4, 33720, Note_on_c, 9, 42, 95
4, 33720, Note_on_c, 9, 40, 125
4, 33720, Note_on_c, 9, 51, 95
4, 33780, Note_on_c, 9, 42, 0
4, 33780, Note_on_c, 9, 35, 125
4, 33780, Note_on_c, 9, 42, 55
4, 33810, Note_on_c, 9, 35, 0
4, 33840, Note_on_c, 9, 40, 0
4, 33840, Note_on_c, 9, 51, 0
4, 33840, Note_on_c, 9, 42, 0
4, 33840, Note_on_c, 9, 35, 125
4, 33840, Note_on_c, 9, 42, 95
4, 33840, Note_on_c, 9, 51, 95
4, 33900, Note_on_c, 9, 42, 0
4, 33900, Note_on_c, 9, 42, 55
4, 33960, Note_on_c, 9, 42, 0
4, 33960, Note_on_c, 9, 51, 0
4, 33960, Note_on_c, 9, 35, 0
4, 33960, Note_on_c, 9, 42, 95
4, 33960, Note_on_c, 9, 40, 125
4, 33960, Note_on_c, 9, 51, 95
4, 34020, Note_on_c, 9, 42, 0
4, 34020, Note_on_c, 9, 42, 55
4, 34080, Note_on_c, 9, 42, 0
4, 34080, Note_on_c, 9, 51, 0
4, 34080, Note_on_c, 9, 40, 0
4, 34080, Note_on_c, 9, 42, 95
4, 34080, Note_on_c, 9, 35, 125
4, 34080, Note_on_c, 9, 51, 95
4, 34140, Note_on_c, 9, 42, 0
4, 34140, Note_on_c, 9, 42, 55
4, 34200, Note_on_c, 9, 42, 0
4, 34200, Note_on_c, 9, 51, 0
4, 34200, Note_on_c, 9, 35, 0
4, 34200, Note_on_c, 9, 42, 95
4, 34200, Note_on_c, 9, 40, 125
4, 34200, Note_on_c, 9, 51, 95
4, 34260, Note_on_c, 9, 42, 0
4, 34260, Note_on_c, 9, 35, 125
4, 34260, Note_on_c, 9, 42, 55
4, 34290, Note_on_c, 9, 35, 0
4, 34320, Note_on_c, 9, 40, 0
4, 34320, Note_on_c, 9, 51, 0
4, 34320, Note_on_c, 9, 42, 0
4, 34320, Note_on_c, 9, 35, 125
4, 34320, Note_on_c, 9, 42, 95
4, 34320, Note_on_c, 9, 51, 95
4, 34380, Note_on_c, 9, 42, 0
4, 34380, Note_on_c, 9, 42, 55
4, 34440, Note_on_c, 9, 42, 0
4, 34440, Note_on_c, 9, 51, 0
4, 34440, Note_on_c, 9, 35, 0
4, 34440, Note_on_c, 9, 42, 95
4, 34440, Note_on_c, 9, 40, 125
4, 34440, Note_on_c, 9, 51, 95
4, 34500, Note_on_c, 9, 42, 0
4, 34500, Note_on_c, 9, 42, 55
4, 34560, Note_on_c, 9, 42, 0
4, 34560, Note_on_c, 9, 51, 0
4, 34560, Note_on_c, 9, 40, 0
4, 34560, Note_on_c, 9, 42, 95
4, 34560, Note_on_c, 9, 35, 125
4, 34560, Note_on_c, 9, 51, 95
4, 34620, Note_on_c, 9, 42, 0
4, 34620, Note_on_c, 9, 42, 55
4, 34680, Note_on_c, 9, 42, 0
4, 34680, Note_on_c, 9, 51, 0
4, 34680, Note_on_c, 9, 35, 0
4, 34680, Note_on_c, 9, 42, 95
4, 34680, Note_on_c, 9, 40, 125
4, 34680, Note_on_c, 9, 51, 95
4, 34740, Note_on_c, 9, 42, 0
4, 34740, Note_on_c, 9, 35, 125
4, 34740, Note_on_c, 9, 42, 55
4, 34770, Note_on_c, 9, 35, 0
4, 34800, Note_on_c, 9, 40, 0
4, 34800, Note_on_c, 9, 51, 0
4, 34800, Note_on_c, 9, 42, 0
4, 34800, Note_on_c, 9, 35, 125
4, 34800, Note_on_c, 9, 42, 95
4, 34800, Note_on_c, 9, 51, 95
4, 34860, Note_on_c, 9, 42, 0
4, 34860, Note_on_c, 9, 42, 55
4, 34920, Note_on_c, 9, 42, 0
4, 34920, Note_on_c, 9, 51, 0
4, 34920, Note_on_c, 9, 35, 0
4, 34920, Note_on_c, 9, 42, 95
4, 34920, Note_on_c, 9, 40, 125
4, 34920, Note_on_c, 9, 51, 95
4, 34980, Note_on_c, 9, 42, 0
4, 34980, Note_on_c, 9, 42, 55
4, 35010, Note_on_c, 9, 46, 95
4, 35010, Note_on_c, 9, 35, 125
4, 35040, Note_on_c, 9, 35, 0
4, 35040, Note_on_c, 9, 42, 0
4, 35040, Note_on_c, 9, 40, 0
4, 35040, Note_on_c, 9, 51, 0
4, 35040, Note_on_c, 9, 46, 0
4, 35040, Note_on_c, 9, 42, 95
4, 35040, Note_on_c, 9, 51, 95
4, 35070, Note_on_c, 9, 42, 0
4, 35100, Note_on_c, 9, 42, 55
4, 35160, Note_on_c, 9, 42, 0
4, 35160, Note_on_c, 9, 51, 0
4, 35160, Note_on_c, 9, 42, 95
4, 35160, Note_on_c, 9, 40, 125
4, 35160, Note_on_c, 9, 51, 95
4, 35220, Note_on_c, 9, 42, 0
4, 35220, Note_on_c, 9, 35, 125
4, 35220, Note_on_c, 9, 42, 55
4, 35250, Note_on_c, 9, 35, 0
4, 35280, Note_on_c, 9, 40, 0
4, 35280, Note_on_c, 9, 51, 0
4, 35280, Note_on_c, 9, 42, 0
4, 35280, Note_on_c, 9, 35, 125
4, 35280, Note_on_c, 9, 42, 95
4, 35280, Note_on_c, 9, 51, 95
4, 35340, Note_on_c, 9, 42, 0
4, 35340, Note_on_c, 9, 42, 55
4, 35400, Note_on_c, 9, 42, 0
4, 35400, Note_on_c, 9, 51, 0
4, 35400, Note_on_c, 9, 35, 0
4, 35400, Note_on_c, 9, 42, 95
4, 35400, Note_on_c, 9, 40, 125
4, 35400, Note_on_c, 9, 51, 95
4, 35460, Note_on_c, 9, 42, 0
4, 35460, Note_on_c, 9, 42, 55
4, 35490, Note_on_c, 9, 35, 105
4, 35520, Note_on_c, 9, 35, 0
4, 35520, Note_on_c, 9, 40, 0
4, 35520, Note_on_c, 9, 51, 0
4, 35520, Note_on_c, 9, 42, 0
4, 35520, Note_on_c, 9, 42, 95
4, 35520, Note_on_c, 9, 51, 95
4, 35580, Note_on_c, 9, 42, 0
4, 35580, Note_on_c, 9, 42, 55
4, 35640, Note_on_c, 9, 42, 0
4, 35640, Note_on_c, 9, 51, 0
4, 35640, Note_on_c, 9, 42, 95
4, 35640, Note_on_c, 9, 40, 125
4, 35640, Note_on_c, 9, 51, 95
4, 35700, Note_on_c, 9, 42, 0
4, 35700, Note_on_c, 9, 35, 125
4, 35700, Note_on_c, 9, 42, 55
4, 35730, Note_on_c, 9, 35, 0
4, 35760, Note_on_c, 9, 40, 0
4, 35760, Note_on_c, 9, 51, 0
4, 35760, Note_on_c, 9, 42, 0
4, 35760, Note_on_c, 9, 35, 125
4, 35760, Note_on_c, 9, 42, 95
4, 35760, Note_on_c, 9, 51, 95
4, 35820, Note_on_c, 9, 42, 0
4, 35820, Note_on_c, 9, 42, 55
4, 35880, Note_on_c, 9, 42, 0
4, 35880, Note_on_c, 9, 51, 0
4, 35880, Note_on_c, 9, 35, 0
4, 35880, Note_on_c, 9, 42, 95
4, 35880, Note_on_c, 9, 40, 125
4, 35880, Note_on_c, 9, 51, 95
4, 35940, Note_on_c, 9, 42, 0
4, 35940, Note_on_c, 9, 42, 55
4, 35970, Note_on_c, 9, 35, 125
4, 36000, Note_on_c, 9, 35, 0
4, 36000, Note_on_c, 9, 40, 0
4, 36000, Note_on_c, 9, 51, 0
4, 36000, Note_on_c, 9, 42, 0
4, 36000, Note_on_c, 9, 42, 95
4, 36000, Note_on_c, 9, 51, 95
4, 36060, Note_on_c, 9, 42, 0
4, 36060, Note_on_c, 9, 42, 55
4, 36120, Note_on_c, 9, 42, 0
4, 36120, Note_on_c, 9, 51, 0
4, 36120, Note_on_c, 9, 42, 95
4, 36120, Note_on_c, 9, 40, 125
4, 36120, Note_on_c, 9, 51, 95
4, 36180, Note_on_c, 9, 42, 0
4, 36180, Note_on_c, 9, 35, 125
4, 36180, Note_on_c, 9, 42, 55
4, 36210, Note_on_c, 9, 35, 0
4, 36240, Note_on_c, 9, 40, 0
4, 36240, Note_on_c, 9, 51, 0
4, 36240, Note_on_c, 9, 42, 0
4, 36240, Note_on_c, 9, 35, 125
4, 36240, Note_on_c, 9, 42, 95
4, 36240, Note_on_c, 9, 51, 95
4, 36300, Note_on_c, 9, 42, 0
4, 36300, Note_on_c, 9, 42, 55
4, 36360, Note_on_c, 9, 42, 0
4, 36360, Note_on_c, 9, 51, 0
4, 36360, Note_on_c, 9, 35, 0
4, 36360, Note_on_c, 9, 42, 95
4, 36360, Note_on_c, 9, 40, 125
4, 36360, Note_on_c, 9, 51, 95
4, 36420, Note_on_c, 9, 42, 0
4, 36420, Note_on_c, 9, 42, 55
4, 36480, Note_on_c, 9, 42, 0
4, 36480, Note_on_c, 9, 51, 0
4, 36480, Note_on_c, 9, 40, 0
4, 36480, Note_on_c, 9, 42, 95
4, 36480, Note_on_c, 9, 35, 125
4, 36480, Note_on_c, 9, 51, 95
4, 36540, Note_on_c, 9, 42, 0
4, 36540, Note_on_c, 9, 42, 55
4, 36600, Note_on_c, 9, 42, 0
4, 36600, Note_on_c, 9, 51, 0
4, 36600, Note_on_c, 9, 35, 0
4, 36600, Note_on_c, 9, 42, 95
4, 36600, Note_on_c, 9, 40, 125
4, 36600, Note_on_c, 9, 51, 95
4, 36660, Note_on_c, 9, 42, 0
4, 36660, Note_on_c, 9, 35, 125
4, 36660, Note_on_c, 9, 42, 55
4, 36690, Note_on_c, 9, 35, 0
4, 36720, Note_on_c, 9, 40, 0
4, 36720, Note_on_c, 9, 51, 0
4, 36720, Note_on_c, 9, 42, 0
4, 36720, Note_on_c, 9, 35, 125
4, 36720, Note_on_c, 9, 42, 95
4, 36720, Note_on_c, 9, 51, 95
4, 36780, Note_on_c, 9, 42, 0
4, 36780, Note_on_c, 9, 42, 55
4, 36840, Note_on_c, 9, 42, 0
4, 36840, Note_on_c, 9, 51, 0
4, 36840, Note_on_c, 9, 35, 0
4, 36840, Note_on_c, 9, 42, 95
4, 36840, Note_on_c, 9, 40, 125
4, 36840, Note_on_c, 9, 51, 95
4, 36900, Note_on_c, 9, 42, 0
4, 36900, Note_on_c, 9, 42, 55
4, 36930, Note_on_c, 9, 55, 95
4, 36930, Note_on_c, 9, 35, 125
4, 36960, Note_on_c, 9, 35, 0
4, 36960, Note_on_c, 9, 42, 0
4, 36960, Note_on_c, 9, 40, 0
4, 36960, Note_on_c, 9, 51, 0
4, 36960, Note_on_c, 9, 55, 0
4, 36960, Note_on_c, 9, 49, 125
4, 36960, Note_on_c, 9, 42, 95
4, 36960, Note_on_c, 9, 35, 125
4, 36990, Note_on_c, 9, 49, 0
4, 37020, Note_on_c, 9, 42, 0
4, 37020, Note_on_c, 9, 42, 55
4, 37080, Note_on_c, 9, 42, 0
4, 37080, Note_on_c, 9, 35, 0
4, 37080, Note_on_c, 9, 51, 105
4, 37080, Note_on_c, 9, 42, 95
4, 37080, Note_on_c, 9, 40, 125
4, 37140, Note_on_c, 9, 42, 0
4, 37140, Note_on_c, 9, 42, 55
4, 37170, Note_on_c, 9, 35, 125
4, 37200, Note_on_c, 9, 35, 0
4, 37200, Note_on_c, 9, 51, 0
4, 37200, Note_on_c, 9, 40, 0
4, 37200, Note_on_c, 9, 42, 0
4, 37200, Note_on_c, 9, 51, 105
4, 37200, Note_on_c, 9, 35, 125
4, 37200, Note_on_c, 9, 42, 95
4, 37260, Note_on_c, 9, 42, 0
4, 37260, Note_on_c, 9, 42, 55
4, 37320, Note_on_c, 9, 42, 0
4, 37320, Note_on_c, 9, 35, 0
4, 37320, Note_on_c, 9, 51, 0
4, 37320, Note_on_c, 9, 51, 105
4, 37320, Note_on_c, 9, 42, 95
4, 37320, Note_on_c, 9, 40, 125
4, 37380, Note_on_c, 9, 42, 0
4, 37380, Note_on_c, 9, 42, 55
4, 37440, Note_on_c, 9, 42, 0
4, 37440, Note_on_c, 9, 40, 0
4, 37440, Note_on_c, 9, 51, 0
4, 37440, Note_on_c, 9, 51, 105
4, 37440, Note_on_c, 9, 42, 95
4, 37440, Note_on_c, 9, 35, 125
4, 37500, Note_on_c, 9, 42, 0
4, 37500, Note_on_c, 9, 42, 55
4, 37560, Note_on_c, 9, 42, 0
4, 37560, Note_on_c, 9, 35, 0
4, 37560, Note_on_c, 9, 51, 0
4, 37560, Note_on_c, 9, 51, 105
4, 37560, Note_on_c, 9, 42, 95
4, 37560, Note_on_c, 9, 40, 125
4, 37620, Note_on_c, 9, 42, 0
4, 37620, Note_on_c, 9, 42, 55
4, 37650, Note_on_c, 9, 35, 125
4, 37680, Note_on_c, 9, 35, 0
4, 37680, Note_on_c, 9, 51, 0
4, 37680, Note_on_c, 9, 40, 0
4, 37680, Note_on_c, 9, 42, 0
4, 37680, Note_on_c, 9, 51, 105
4, 37680, Note_on_c, 9, 35, 125
4, 37680, Note_on_c, 9, 42, 95
4, 37740, Note_on_c, 9, 42, 0
4, 37740, Note_on_c, 9, 42, 55
4, 37800, Note_on_c, 9, 42, 0
4, 37800, Note_on_c, 9, 35, 0
4, 37800, Note_on_c, 9, 51, 0
4, 37800, Note_on_c, 9, 51, 105
4, 37800, Note_on_c, 9, 42, 95
4, 37800, Note_on_c, 9, 40, 125
4, 37860, Note_on_c, 9, 42, 0
4, 37860, Note_on_c, 9, 42, 55
4, 37920, Note_on_c, 9, 42, 0
4, 37920, Note_on_c, 9, 40, 0
4, 37920, Note_on_c, 9, 51, 0
4, 37920, Note_on_c, 9, 51, 105
4, 37920, Note_on_c, 9, 42, 95
4, 37920, Note_on_c, 9, 35, 125
4, 37980, Note_on_c, 9, 42, 0
4, 37980, Note_on_c, 9, 42, 55
4, 38040, Note_on_c, 9, 42, 0
4, 38040, Note_on_c, 9, 35, 0
4, 38040, Note_on_c, 9, 51, 0
4, 38040, Note_on_c, 9, 51, 105
4, 38040, Note_on_c, 9, 42, 95
4, 38040, Note_on_c, 9, 40, 125
4, 38100, Note_on_c, 9, 42, 0
4, 38100, Note_on_c, 9, 42, 55
4, 38130, Note_on_c, 9, 35, 125
4, 38160, Note_on_c, 9, 35, 0
4, 38160, Note_on_c, 9, 51, 0
4, 38160, Note_on_c, 9, 40, 0
4, 38160, Note_on_c, 9, 42, 0
4, 38160, Note_on_c, 9, 51, 105
4, 38160, Note_on_c, 9, 35, 125
4, 38160, Note_on_c, 9, 42, 95
4, 38220, Note_on_c, 9, 42, 0
4, 38220, Note_on_c, 9, 42, 55
4, 38280, Note_on_c, 9, 42, 0
4, 38280, Note_on_c, 9, 35, 0
4, 38280, Note_on_c, 9, 51, 0
4, 38280, Note_on_c, 9, 51, 105
4, 38280, Note_on_c, 9, 42, 95
4, 38280, Note_on_c, 9, 40, 125
4, 38340, Note_on_c, 9, 42, 0
4, 38340, Note_on_c, 9, 42, 55
4, 38400, Note_on_c, 9, 42, 0
4, 38400, Note_on_c, 9, 40, 0
4, 38400, Note_on_c, 9, 51, 0
4, 38400, Note_on_c, 9, 51, 105
4, 38400, Note_on_c, 9, 42, 95
4, 38400, Note_on_c, 9, 35, 125
4, 38460, Note_on_c, 9, 42, 0
4, 38460, Note_on_c, 9, 42, 55
4, 38520, Note_on_c, 9, 42, 0
4, 38520, Note_on_c, 9, 35, 0
4, 38520, Note_on_c, 9, 51, 0
4, 38520, Note_on_c, 9, 51, 105
4, 38520, Note_on_c, 9, 42, 95
4, 38520, Note_on_c, 9, 40, 125
4, 38580, Note_on_c, 9, 42, 0
4, 38580, Note_on_c, 9, 42, 55
4, 38610, Note_on_c, 9, 35, 125
4, 38640, Note_on_c, 9, 35, 0
4, 38640, Note_on_c, 9, 51, 0
4, 38640, Note_on_c, 9, 40, 0
4, 38640, Note_on_c, 9, 42, 0
4, 38640, Note_on_c, 9, 51, 105
4, 38640, Note_on_c, 9, 35, 125
4, 38640, Note_on_c, 9, 42, 95
4, 38700, Note_on_c, 9, 42, 0
4, 38700, Note_on_c, 9, 42, 55
4, 38760, Note_on_c, 9, 42, 0
4, 38760, Note_on_c, 9, 35, 0
4, 38760, Note_on_c, 9, 51, 0
4, 38760, Note_on_c, 9, 46, 95
4, 38760, Note_on_c, 9, 40, 125
4, 38820, Note_on_c, 9, 46, 0
4, 38880, Note_on_c, 9, 40, 0
4, 38880, Note_on_c, 9, 49, 105
4, 38880, Note_on_c, 9, 42, 95
4, 38880, Note_on_c, 9, 35, 125
4, 38940, Note_on_c, 9, 42, 0
4, 38940, Note_on_c, 9, 42, 55
4, 39000, Note_on_c, 9, 42, 0
4, 39000, Note_on_c, 9, 35, 0
4, 39000, Note_on_c, 9, 49, 0
4, 39000, Note_on_c, 9, 51, 105
4, 39000, Note_on_c, 9, 42, 95
4, 39000, Note_on_c, 9, 40, 125
4, 39060, Note_on_c, 9, 42, 0
4, 39060, Note_on_c, 9, 42, 55
4, 39090, Note_on_c, 9, 35, 125
4, 39120, Note_on_c, 9, 35, 0
4, 39120, Note_on_c, 9, 51, 0
4, 39120, Note_on_c, 9, 40, 0
4, 39120, Note_on_c, 9, 42, 0
4, 39120, Note_on_c, 9, 51, 105
4, 39120, Note_on_c, 9, 35, 125
4, 39120, Note_on_c, 9, 42, 95
4, 39180, Note_on_c, 9, 42, 0
4, 39180, Note_on_c, 9, 42, 55
4, 39240, Note_on_c, 9, 42, 0
4, 39240, Note_on_c, 9, 35, 0
4, 39240, Note_on_c, 9, 51, 0
4, 39240, Note_on_c, 9, 51, 105
4, 39240, Note_on_c, 9, 42, 95
4, 39240, Note_on_c, 9, 40, 125
4, 39300, Note_on_c, 9, 42, 0
4, 39300, Note_on_c, 9, 42, 55
4, 39360, Note_on_c, 9, 42, 0
4, 39360, Note_on_c, 9, 40, 0
4, 39360, Note_on_c, 9, 51, 0
4, 39360, Note_on_c, 9, 51, 105
4, 39360, Note_on_c, 9, 42, 95
4, 39360, Note_on_c, 9, 35, 125
4, 39420, Note_on_c, 9, 42, 0
4, 39420, Note_on_c, 9, 42, 55
4, 39480, Note_on_c, 9, 42, 0
4, 39480, Note_on_c, 9, 35, 0
4, 39480, Note_on_c, 9, 51, 0
4, 39480, Note_on_c, 9, 51, 105
4, 39480, Note_on_c, 9, 42, 95
4, 39480, Note_on_c, 9, 40, 125
4, 39540, Note_on_c, 9, 42, 0
4, 39540, Note_on_c, 9, 42, 55
4, 39570, Note_on_c, 9, 35, 125
4, 39600, Note_on_c, 9, 35, 0
4, 39600, Note_on_c, 9, 51, 0
4, 39600, Note_on_c, 9, 40, 0
4, 39600, Note_on_c, 9, 42, 0
4, 39600, Note_on_c, 9, 51, 105
4, 39600, Note_on_c, 9, 35, 125
4, 39600, Note_on_c, 9, 42, 95
4, 39660, Note_on_c, 9, 42, 0
4, 39660, Note_on_c, 9, 42, 55
4, 39720, Note_on_c, 9, 42, 0
4, 39720, Note_on_c, 9, 35, 0
4, 39720, Note_on_c, 9, 51, 0
4, 39720, Note_on_c, 9, 51, 105
4, 39720, Note_on_c, 9, 42, 95
4, 39720, Note_on_c, 9, 40, 125
4, 39780, Note_on_c, 9, 42, 0
4, 39780, Note_on_c, 9, 42, 55
4, 39840, Note_on_c, 9, 42, 0
4, 39840, Note_on_c, 9, 40, 0
4, 39840, Note_on_c, 9, 51, 0
4, 39840, Note_on_c, 9, 51, 105
4, 39840, Note_on_c, 9, 42, 95
4, 39840, Note_on_c, 9, 35, 125
4, 39900, Note_on_c, 9, 42, 0
4, 39900, Note_on_c, 9, 42, 55
4, 39960, Note_on_c, 9, 42, 0
4, 39960, Note_on_c, 9, 35, 0
4, 39960, Note_on_c, 9, 51, 0
4, 39960, Note_on_c, 9, 51, 105
4, 39960, Note_on_c, 9, 42, 95
4, 39960, Note_on_c, 9, 40, 125
4, 40020, Note_on_c, 9, 42, 0
4, 40020, Note_on_c, 9, 42, 55
4, 40050, Note_on_c, 9, 35, 125
4, 40080, Note_on_c, 9, 35, 0
4, 40080, Note_on_c, 9, 51, 0
4, 40080, Note_on_c, 9, 40, 0
4, 40080, Note_on_c, 9, 42, 0
4, 40080, Note_on_c, 9, 51, 105
4, 40080, Note_on_c, 9, 35, 125
4, 40080, Note_on_c, 9, 42, 95
4, 40140, Note_on_c, 9, 42, 0
4, 40140, Note_on_c, 9, 42, 55
4, 40200, Note_on_c, 9, 42, 0
4, 40200, Note_on_c, 9, 35, 0
4, 40200, Note_on_c, 9, 51, 0
4, 40200, Note_on_c, 9, 51, 105
4, 40200, Note_on_c, 9, 42, 95
4, 40200, Note_on_c, 9, 40, 125
4, 40260, Note_on_c, 9, 42, 0
4, 40260, Note_on_c, 9, 42, 55
4, 40320, Note_on_c, 9, 42, 0
4, 40320, Note_on_c, 9, 40, 0
4, 40320, Note_on_c, 9, 51, 0
4, 40320, Note_on_c, 9, 51, 105
4, 40320, Note_on_c, 9, 42, 95
4, 40320, Note_on_c, 9, 35, 125
4, 40380, Note_on_c, 9, 42, 0
4, 40380, Note_on_c, 9, 42, 55
4, 40440, Note_on_c, 9, 42, 0
4, 40440, Note_on_c, 9, 35, 0
4, 40440, Note_on_c, 9, 51, 0
4, 40440, Note_on_c, 9, 51, 105
4, 40440, Note_on_c, 9, 42, 95
4, 40440, Note_on_c, 9, 40, 125
4, 40500, Note_on_c, 9, 42, 0
4, 40500, Note_on_c, 9, 42, 55
4, 40530, Note_on_c, 9, 35, 125
4, 40560, Note_on_c, 9, 35, 0
4, 40560, Note_on_c, 9, 51, 0
4, 40560, Note_on_c, 9, 40, 0
4, 40560, Note_on_c, 9, 42, 0
4, 40560, Note_on_c, 9, 51, 105
4, 40560, Note_on_c, 9, 35, 125
4, 40560, Note_on_c, 9, 42, 95
4, 40620, Note_on_c, 9, 42, 0
4, 40620, Note_on_c, 9, 42, 55
4, 40680, Note_on_c, 9, 42, 0
4, 40680, Note_on_c, 9, 35, 0
4, 40680, Note_on_c, 9, 51, 0
4, 40680, Note_on_c, 9, 51, 105
4, 40680, Note_on_c, 9, 42, 95
4, 40680, Note_on_c, 9, 40, 125
4, 40740, Note_on_c, 9, 42, 0
4, 40740, Note_on_c, 9, 42, 55
4, 40770, Note_on_c, 9, 40, 75
4, 40785, Note_on_c, 9, 40, 0
4, 40785, Note_on_c, 9, 40, 85
4, 40800, Note_on_c, 9, 40, 0
4, 40800, Note_on_c, 9, 40, 0
4, 40800, Note_on_c, 9, 42, 0
4, 40800, Note_on_c, 9, 51, 0
4, 40800, Note_on_c, 9, 40, 127
4, 40800, Note_on_c, 9, 46, 105
4, 40800, Note_on_c, 9, 35, 125
4, 40830, Note_on_c, 9, 35, 0
4, 40830, Note_on_c, 9, 42, 105
4, 40860, Note_on_c, 9, 42, 0
4, 40920, Note_on_c, 9, 46, 0
4, 40920, Note_on_c, 9, 40, 0
4, 41730, Note_on_c, 9, 35, 125
4, 41730, Note_on_c, 9, 40, 125
4, 41730, Note_on_c, 9, 46, 105
4, 41760, Note_on_c, 9, 46, 0
4, 41760, Note_on_c, 9, 40, 0
4, 41760, Note_on_c, 9, 35, 0
4, 41760, Note_on_c, 9, 42, 105
4, 41790, Note_on_c, 9, 42, 0
4, 42420, Note_on_c, 9, 50, 115
4, 42435, Note_on_c, 9, 50, 0
4, 42435, Note_on_c, 9, 47, 115
4, 42450, Note_on_c, 9, 47, 0
4, 42450, Note_on_c, 9, 45, 115
4, 42465, Note_on_c, 9, 45, 0
4, 42465, Note_on_c, 9, 43, 115
4, 42480, Note_on_c, 9, 43, 0
4, 42480, Note_on_c, 9, 35, 115
4, 42495, Note_on_c, 9, 35, 0
4, 42600, Note_on_c, 9, 40, 125
4, 42615, Note_on_c, 9, 40, 0
4, 42690, Note_on_c, 9, 46, 105
4, 42690, Note_on_c, 9, 40, 125
4, 42690, Note_on_c, 9, 35, 125
4, 42720, Note_on_c, 9, 35, 0
4, 42720, Note_on_c, 9, 40, 0
4, 42720, Note_on_c, 9, 46, 0
4, 42720, Note_on_c, 9, 42, 105
4, 42750, Note_on_c, 9, 42, 0
4, 43275, Note_on_c, 9, 50, 115
4, 43290, Note_on_c, 9, 50, 0
4, 43290, Note_on_c, 9, 47, 115
4, 43305, Note_on_c, 9, 47, 0
4, 43305, Note_on_c, 9, 45, 115
4, 43320, Note_on_c, 9, 45, 0
4, 43320, Note_on_c, 9, 55, 115
4, 43320, Note_on_c, 9, 35, 115
4, 43360, Note_on_c, 9, 35, 0
4, 43360, Note_on_c, 9, 55, 0
4, 43530, Note_on_c, 9, 35, 125
4, 43560, Note_on_c, 9, 35, 0
4, 43560, Note_on_c, 9, 35, 125
4, 43590, Note_on_c, 9, 35, 0
4, 43650, Note_on_c, 9, 46, 105
4, 43650, Note_on_c, 9, 40, 125
4, 43650, Note_on_c, 9, 35, 125
4, 43680, Note_on_c, 9, 35, 0
4, 43680, Note_on_c, 9, 40, 0
4, 43680, Note_on_c, 9, 46, 0
4, 43680, Note_on_c, 9, 42, 105
4, 43710, Note_on_c, 9, 42, 0
4, 44160, Note_on_c, 9, 49, 105
4, 44160, Note_on_c, 9, 35, 125
4, 44190, Note_on_c, 9, 35, 0
4, 44190, Note_on_c, 9, 49, 0
4, 44220, Note_on_c, 9, 50, 105
4, 44250, Note_on_c, 9, 50, 0
4, 44250, Note_on_c, 9, 48, 105
4, 44280, Note_on_c, 9, 48, 0
4, 44280, Note_on_c, 9, 35, 125
4, 44280, Note_on_c, 9, 55, 105
4, 44310, Note_on_c, 9, 55, 0
4, 44310, Note_on_c, 9, 35, 0
4, 44340, Note_on_c, 9, 48, 105
4, 44370, Note_on_c, 9, 48, 0
4, 44370, Note_on_c, 9, 47, 105
4, 44400, Note_on_c, 9, 47, 0
4, 44400, Note_on_c, 9, 46, 105
4, 44400, Note_on_c, 9, 35, 125
4, 44430, Note_on_c, 9, 35, 0
4, 44430, Note_on_c, 9, 46, 0
4, 44460, Note_on_c, 9, 47, 105
4, 44490, Note_on_c, 9, 47, 0
4, 44490, Note_on_c, 9, 45, 105
4, 44520, Note_on_c, 9, 45, 0
4, 44520, Note_on_c, 9, 43, 105
4, 44550, Note_on_c, 9, 43, 0
4, 44550, Note_on_c, 9, 41, 105
4, 44580, Note_on_c, 9, 41, 0
4, 44580, Note_on_c, 9, 35, 105
4, 44610, Note_on_c, 9, 35, 0
4, 44610, Note_on_c, 9, 40, 125
4, 44610, Note_on_c, 9, 46, 105
4, 44640, Note_on_c, 9, 46, 0
4, 44640, Note_on_c, 9, 40, 0
4, 44640, Note_on_c, 9, 42, 95
4, 44700, Note_on_c, 9, 42, 0
4, 44760, Note_on_c, 9, 49, 115
4, 44760, Note_on_c, 9, 40, 125
4, 44760, Note_on_c, 9, 51, 95
4, 44820, Note_on_c, 9, 49, 0
4, 44820, Note_on_c, 9, 35, 125
4, 44820, Note_on_c, 9, 42, 55
4, 44850, Note_on_c, 9, 35, 0
4, 44880, Note_on_c, 9, 40, 0
4, 44880, Note_on_c, 9, 51, 0
4, 44880, Note_on_c, 9, 42, 0
4, 44880, Note_on_c, 9, 35, 125
4, 44880, Note_on_c, 9, 42, 95
4, 44880, Note_on_c, 9, 51, 95
4, 44940, Note_on_c, 9, 42, 0
4, 44940, Note_on_c, 9, 42, 55
4, 45000, Note_on_c, 9, 42, 0
4, 45000, Note_on_c, 9, 51, 0
4, 45000, Note_on_c, 9, 35, 0
4, 45000, Note_on_c, 9, 42, 95
4, 45000, Note_on_c, 9, 40, 125
4, 45000, Note_on_c, 9, 51, 95
4, 45060, Note_on_c, 9, 42, 0
4, 45060, Note_on_c, 9, 42, 55
4, 45120, Note_on_c, 9, 42, 0
4, 45120, Note_on_c, 9, 51, 0
4, 45120, Note_on_c, 9, 40, 0
4, 45120, Note_on_c, 9, 42, 95
4, 45120, Note_on_c, 9, 35, 125
4, 45120, Note_on_c, 9, 51, 95
4, 45180, Note_on_c, 9, 42, 0
4, 45180, Note_on_c, 9, 42, 55
4, 45240, Note_on_c, 9, 42, 0
4, 45240, Note_on_c, 9, 51, 0
4, 45240, Note_on_c, 9, 35, 0
4, 45240, Note_on_c, 9, 42, 95
4, 45240, Note_on_c, 9, 40, 125
4, 45240, Note_on_c, 9, 51, 95
4, 45300, Note_on_c, 9, 42, 0
4, 45300, Note_on_c, 9, 35, 125
4, 45300, Note_on_c, 9, 42, 55
4, 45330, Note_on_c, 9, 35, 0
4, 45360, Note_on_c, 9, 40, 0
4, 45360, Note_on_c, 9, 51, 0
4, 45360, Note_on_c, 9, 42, 0
4, 45360, Note_on_c, 9, 35, 125
4, 45360, Note_on_c, 9, 42, 95
4, 45360, Note_on_c, 9, 51, 95
4, 45420, Note_on_c, 9, 42, 0
4, 45420, Note_on_c, 9, 42, 55
4, 45480, Note_on_c, 9, 42, 0
4, 45480, Note_on_c, 9, 51, 0
4, 45480, Note_on_c, 9, 35, 0
4, 45480, Note_on_c, 9, 42, 95
4, 45480, Note_on_c, 9, 40, 125
4, 45480, Note_on_c, 9, 51, 95
4, 45540, Note_on_c, 9, 42, 0
4, 45540, Note_on_c, 9, 42, 55
4, 45600, Note_on_c, 9, 42, 0
4, 45600, Note_on_c, 9, 51, 0
4, 45600, Note_on_c, 9, 40, 0
4, 45600, Note_on_c, 9, 42, 95
4, 45600, Note_on_c, 9, 35, 125
4, 45600, Note_on_c, 9, 51, 95
4, 45660, Note_on_c, 9, 42, 0
4, 45660, Note_on_c, 9, 42, 55
4, 45720, Note_on_c, 9, 42, 0
4, 45720, Note_on_c, 9, 51, 0
4, 45720, Note_on_c, 9, 35, 0
4, 45720, Note_on_c, 9, 42, 95
4, 45720, Note_on_c, 9, 40, 125
4, 45720, Note_on_c, 9, 51, 95
4, 45780, Note_on_c, 9, 42, 0
4, 45780, Note_on_c, 9, 35, 125
4, 45780, Note_on_c, 9, 42, 55
4, 45810, Note_on_c, 9, 35, 0
4, 45840, Note_on_c, 9, 40, 0
4, 45840, Note_on_c, 9, 51, 0
4, 45840, Note_on_c, 9, 42, 0
4, 45840, Note_on_c, 9, 35, 125
4, 45840, Note_on_c, 9, 42, 95
4, 45840, Note_on_c, 9, 51, 95
4, 45900, Note_on_c, 9, 42, 0
4, 45900, Note_on_c, 9, 42, 55
4, 45960, Note_on_c, 9, 42, 0
4, 45960, Note_on_c, 9, 51, 0
4, 45960, Note_on_c, 9, 35, 0
4, 45960, Note_on_c, 9, 42, 95
4, 45960, Note_on_c, 9, 40, 125
4, 45960, Note_on_c, 9, 51, 95
4, 46020, Note_on_c, 9, 42, 0
4, 46020, Note_on_c, 9, 42, 55
4, 46080, Note_on_c, 9, 42, 0
4, 46080, Note_on_c, 9, 51, 0
4, 46080, Note_on_c, 9, 40, 0
4, 46080, Note_on_c, 9, 42, 95
4, 46080, Note_on_c, 9, 35, 125
4, 46080, Note_on_c, 9, 51, 95
4, 46140, Note_on_c, 9, 42, 0
4, 46140, Note_on_c, 9, 42, 55
4, 46200, Note_on_c, 9, 42, 0
4, 46200, Note_on_c, 9, 51, 0
4, 46200, Note_on_c, 9, 35, 0
4, 46200, Note_on_c, 9, 42, 95
4, 46200, Note_on_c, 9, 40, 125
4, 46200, Note_on_c, 9, 51, 95
4, 46260, Note_on_c, 9, 42, 0
4, 46260, Note_on_c, 9, 35, 125
4, 46260, Note_on_c, 9, 42, 55
4, 46290, Note_on_c, 9, 35, 0
4, 46320, Note_on_c, 9, 40, 0
4, 46320, Note_on_c, 9, 51, 0
4, 46320, Note_on_c, 9, 42, 0
4, 46320, Note_on_c, 9, 35, 125
4, 46320, Note_on_c, 9, 42, 95
4, 46320, Note_on_c, 9, 51, 95
4, 46380, Note_on_c, 9, 42, 0
4, 46380, Note_on_c, 9, 42, 55
4, 46440, Note_on_c, 9, 42, 0
4, 46440, Note_on_c, 9, 51, 0
4, 46440, Note_on_c, 9, 35, 0
4, 46440, Note_on_c, 9, 42, 95
4, 46440, Note_on_c, 9, 40, 125
4, 46440, Note_on_c, 9, 51, 95
4, 46500, Note_on_c, 9, 42, 0
4, 46500, Note_on_c, 9, 42, 55
4, 46530, Note_on_c, 9, 46, 95
4, 46530, Note_on_c, 9, 35, 125
4, 46560, Note_on_c, 9, 35, 0
4, 46560, Note_on_c, 9, 42, 0
4, 46560, Note_on_c, 9, 40, 0
4, 46560, Note_on_c, 9, 51, 0
4, 46560, Note_on_c, 9, 46, 0
4, 46560, Note_on_c, 9, 42, 95
4, 46560, Note_on_c, 9, 51, 95
4, 46590, Note_on_c, 9, 42, 0
4, 46620, Note_on_c, 9, 42, 55
4, 46680, Note_on_c, 9, 42, 0
4, 46680, Note_on_c, 9, 51, 0
4, 46680, Note_on_c, 9, 42, 95
4, 46680, Note_on_c, 9, 40, 125
4, 46680, Note_on_c, 9, 51, 95
4, 46740, Note_on_c, 9, 42, 0
4, 46740, Note_on_c, 9, 35, 125
4, 46740, Note_on_c, 9, 42, 55
4, 46770, Note_on_c, 9, 35, 0
4, 46800, Note_on_c, 9, 40, 0
4, 46800, Note_on_c, 9, 51, 0
4, 46800, Note_on_c, 9, 42, 0
4, 46800, Note_on_c, 9, 35, 125
4, 46800, Note_on_c, 9, 42, 95
4, 46800, Note_on_c, 9, 51, 95
4, 46860, Note_on_c, 9, 42, 0
4, 46860, Note_on_c, 9, 42, 55
4, 46920, Note_on_c, 9, 42, 0
4, 46920, Note_on_c, 9, 51, 0
4, 46920, Note_on_c, 9, 35, 0
4, 46920, Note_on_c, 9, 42, 95
4, 46920, Note_on_c, 9, 40, 125
4, 46920, Note_on_c, 9, 51, 95
4, 46980, Note_on_c, 9, 42, 0
4, 46980, Note_on_c, 9, 42, 55
4, 47040, Note_on_c, 9, 42, 0
4, 47040, Note_on_c, 9, 51, 0
4, 47040, Note_on_c, 9, 40, 0
4, 47040, Note_on_c, 9, 42, 95
4, 47040, Note_on_c, 9, 35, 125
4, 47040, Note_on_c, 9, 51, 95
4, 47100, Note_on_c, 9, 42, 0
4, 47100, Note_on_c, 9, 42, 55
4, 47160, Note_on_c, 9, 42, 0
4, 47160, Note_on_c, 9, 51, 0
4, 47160, Note_on_c, 9, 35, 0
4, 47160, Note_on_c, 9, 42, 95
4, 47160, Note_on_c, 9, 40, 125
4, 47160, Note_on_c, 9, 51, 95
4, 47220, Note_on_c, 9, 42, 0
4, 47220, Note_on_c, 9, 35, 125
4, 47220, Note_on_c, 9, 42, 55
4, 47250, Note_on_c, 9, 35, 0
4, 47280, Note_on_c, 9, 40, 0
4, 47280, Note_on_c, 9, 51, 0
4, 47280, Note_on_c, 9, 42, 0
4, 47280, Note_on_c, 9, 35, 125
4, 47280, Note_on_c, 9, 42, 95
4, 47280, Note_on_c, 9, 51, 95
4, 47340, Note_on_c, 9, 42, 0
4, 47340, Note_on_c, 9, 42, 55
4, 47400, Note_on_c, 9, 42, 0
4, 47400, Note_on_c, 9, 51, 0
4, 47400, Note_on_c, 9, 35, 0
4, 47400, Note_on_c, 9, 42, 95
4, 47400, Note_on_c, 9, 40, 125
4, 47400, Note_on_c, 9, 51, 95
4, 47460, Note_on_c, 9, 42, 0
4, 47460, Note_on_c, 9, 42, 55
4, 47520, Note_on_c, 9, 42, 0
4, 47520, Note_on_c, 9, 51, 0
4, 47520, Note_on_c, 9, 40, 0
4, 47520, Note_on_c, 9, 42, 95
4, 47520, Note_on_c, 9, 35, 125
4, 47520, Note_on_c, 9, 51, 95
4, 47580, Note_on_c, 9, 42, 0
4, 47580, Note_on_c, 9, 42, 55
4, 47640, Note_on_c, 9, 42, 0
4, 47640, Note_on_c, 9, 51, 0
4, 47640, Note_on_c, 9, 35, 0
4, 47640, Note_on_c, 9, 42, 95
4, 47640, Note_on_c, 9, 40, 125
4, 47640, Note_on_c, 9, 51, 95
4, 47700, Note_on_c, 9, 42, 0
4, 47700, Note_on_c, 9, 35, 125
4, 47700, Note_on_c, 9, 42, 55
4, 47730, Note_on_c, 9, 35, 0
4, 47760, Note_on_c, 9, 40, 0
4, 47760, Note_on_c, 9, 51, 0
4, 47760, Note_on_c, 9, 42, 0
4, 47760, Note_on_c, 9, 35, 125
4, 47760, Note_on_c, 9, 42, 95
4, 47760, Note_on_c, 9, 51, 95
4, 47820, Note_on_c, 9, 42, 0
4, 47820, Note_on_c, 9, 42, 55
4, 47880, Note_on_c, 9, 42, 0
4, 47880, Note_on_c, 9, 51, 0
4, 47880, Note_on_c, 9, 35, 0
4, 47880, Note_on_c, 9, 42, 95
4, 47880, Note_on_c, 9, 40, 125
4, 47880, Note_on_c, 9, 51, 95
4, 47940, Note_on_c, 9, 42, 0
4, 47940, Note_on_c, 9, 42, 55
4, 48000, Note_on_c, 9, 42, 0
4, 48000, Note_on_c, 9, 51, 0
4, 48000, Note_on_c, 9, 40, 0
4, 48000, Note_on_c, 9, 42, 95
4, 48000, Note_on_c, 9, 35, 125
4, 48000, Note_on_c, 9, 51, 95
4, 48060, Note_on_c, 9, 42, 0
4, 48060, Note_on_c, 9, 42, 55
4, 48120, Note_on_c, 9, 42, 0
4, 48120, Note_on_c, 9, 51, 0
4, 48120, Note_on_c, 9, 35, 0
4, 48120, Note_on_c, 9, 42, 95
4, 48120, Note_on_c, 9, 40, 125
4, 48120, Note_on_c, 9, 51, 95
4, 48180, Note_on_c, 9, 42, 0
4, 48180, Note_on_c, 9, 35, 125
4, 48180, Note_on_c, 9, 42, 55
4, 48210, Note_on_c, 9, 35, 0
4, 48240, Note_on_c, 9, 40, 0
4, 48240, Note_on_c, 9, 51, 0
4, 48240, Note_on_c, 9, 42, 0
4, 48240, Note_on_c, 9, 35, 125
4, 48240, Note_on_c, 9, 42, 95
4, 48240, Note_on_c, 9, 51, 95
4, 48300, Note_on_c, 9, 42, 0
4, 48300, Note_on_c, 9, 42, 55
4, 48360, Note_on_c, 9, 42, 0
4, 48360, Note_on_c, 9, 51, 0
4, 48360, Note_on_c, 9, 35, 0
4, 48360, Note_on_c, 9, 42, 95
4, 48360, Note_on_c, 9, 40, 125
4, 48360, Note_on_c, 9, 51, 95
4, 48420, Note_on_c, 9, 42, 0
4, 48420, Note_on_c, 9, 42, 55
4, 48450, Note_on_c, 9, 49, 95
4, 48450, Note_on_c, 9, 35, 125
4, 48480, Note_on_c, 9, 35, 0
4, 48480, Note_on_c, 9, 42, 0
4, 48480, Note_on_c, 9, 40, 0
4, 48480, Note_on_c, 9, 51, 0
4, 48480, Note_on_c, 9, 49, 0
4, 48480, Note_on_c, 9, 42, 95
4, 48480, Note_on_c, 9, 35, 125
4, 48480, Note_on_c, 9, 51, 105
4, 48540, Note_on_c, 9, 42, 0
4, 48540, Note_on_c, 9, 42, 55
4, 48600, Note_on_c, 9, 42, 0
4, 48600, Note_on_c, 9, 51, 0
4, 48600, Note_on_c, 9, 35, 0
4, 48600, Note_on_c, 9, 42, 95
4, 48600, Note_on_c, 9, 40, 125
4, 48600, Note_on_c, 9, 51, 105
4, 48660, Note_on_c, 9, 42, 0
4, 48660, Note_on_c, 9, 35, 125
4, 48660, Note_on_c, 9, 42, 55
4, 48690, Note_on_c, 9, 35, 0
4, 48720, Note_on_c, 9, 40, 0
4, 48720, Note_on_c, 9, 51, 0
4, 48720, Note_on_c, 9, 42, 0
4, 48720, Note_on_c, 9, 35, 125
4, 48720, Note_on_c, 9, 42, 95
4, 48720, Note_on_c, 9, 51, 105
4, 48780, Note_on_c, 9, 42, 0
4, 48780, Note_on_c, 9, 42, 55
4, 48840, Note_on_c, 9, 42, 0
4, 48840, Note_on_c, 9, 51, 0
4, 48840, Note_on_c, 9, 35, 0
4, 48840, Note_on_c, 9, 42, 95
4, 48840, Note_on_c, 9, 40, 125
4, 48840, Note_on_c, 9, 51, 105
4, 48900, Note_on_c, 9, 42, 0
4, 48900, Note_on_c, 9, 42, 55
4, 48960, Note_on_c, 9, 42, 0
4, 48960, Note_on_c, 9, 51, 0
4, 48960, Note_on_c, 9, 40, 0
4, 48960, Note_on_c, 9, 42, 95
4, 48960, Note_on_c, 9, 35, 125
4, 48960, Note_on_c, 9, 51, 105
4, 49020, Note_on_c, 9, 42, 0
4, 49020, Note_on_c, 9, 42, 55
4, 49080, Note_on_c, 9, 42, 0
4, 49080, Note_on_c, 9, 51, 0
4, 49080, Note_on_c, 9, 35, 0
4, 49080, Note_on_c, 9, 42, 95
4, 49080, Note_on_c, 9, 40, 125
4, 49080, Note_on_c, 9, 51, 105
4, 49140, Note_on_c, 9, 42, 0
4, 49140, Note_on_c, 9, 35, 125
4, 49140, Note_on_c, 9, 42, 55
4, 49170, Note_on_c, 9, 35, 0
4, 49200, Note_on_c, 9, 40, 0
4, 49200, Note_on_c, 9, 51, 0
4, 49200, Note_on_c, 9, 42, 0
4, 49200, Note_on_c, 9, 35, 125
4, 49200, Note_on_c, 9, 42, 95
4, 49200, Note_on_c, 9, 51, 105
4, 49260, Note_on_c, 9, 42, 0
4, 49260, Note_on_c, 9, 42, 55
4, 49320, Note_on_c, 9, 42, 0
4, 49320, Note_on_c, 9, 51, 0
4, 49320, Note_on_c, 9, 35, 0
4, 49320, Note_on_c, 9, 42, 95
4, 49320, Note_on_c, 9, 40, 125
4, 49320, Note_on_c, 9, 51, 105
4, 49380, Note_on_c, 9, 42, 0
4, 49380, Note_on_c, 9, 42, 55
4, 49440, Note_on_c, 9, 42, 0
4, 49440, Note_on_c, 9, 51, 0
4, 49440, Note_on_c, 9, 40, 0
4, 49440, Note_on_c, 9, 42, 95
4, 49440, Note_on_c, 9, 35, 125
4, 49440, Note_on_c, 9, 51, 105
4, 49500, Note_on_c, 9, 42, 0
4, 49500, Note_on_c, 9, 42, 55
4, 49560, Note_on_c, 9, 42, 0
4, 49560, Note_on_c, 9, 51, 0
4, 49560, Note_on_c, 9, 35, 0
4, 49560, Note_on_c, 9, 42, 95
4, 49560, Note_on_c, 9, 40, 125
4, 49560, Note_on_c, 9, 51, 105
4, 49620, Note_on_c, 9, 42, 0
4, 49620, Note_on_c, 9, 35, 125
4, 49620, Note_on_c, 9, 42, 55
4, 49650, Note_on_c, 9, 35, 0
4, 49680, Note_on_c, 9, 40, 0
4, 49680, Note_on_c, 9, 51, 0
4, 49680, Note_on_c, 9, 42, 0
4, 49680, Note_on_c, 9, 35, 125
4, 49680, Note_on_c, 9, 42, 95
4, 49680, Note_on_c, 9, 51, 105
4, 49740, Note_on_c, 9, 42, 0
4, 49740, Note_on_c, 9, 42, 55
4, 49800, Note_on_c, 9, 42, 0
4, 49800, Note_on_c, 9, 51, 0
4, 49800, Note_on_c, 9, 35, 0
4, 49800, Note_on_c, 9, 42, 95
4, 49800, Note_on_c, 9, 40, 125
4, 49800, Note_on_c, 9, 51, 105
4, 49860, Note_on_c, 9, 42, 0
4, 49860, Note_on_c, 9, 42, 55
4, 49920, Note_on_c, 9, 42, 0
4, 49920, Note_on_c, 9, 51, 0
4, 49920, Note_on_c, 9, 40, 0
4, 49920, Note_on_c, 9, 42, 95
4, 49920, Note_on_c, 9, 35, 125
4, 49920, Note_on_c, 9, 51, 105
4, 49980, Note_on_c, 9, 42, 0
4, 49980, Note_on_c, 9, 42, 55
4, 50040, Note_on_c, 9, 42, 0
4, 50040, Note_on_c, 9, 51, 0
4, 50040, Note_on_c, 9, 35, 0
4, 50040, Note_on_c, 9, 42, 95
4, 50040, Note_on_c, 9, 40, 125
4, 50040, Note_on_c, 9, 51, 105
4, 50100, Note_on_c, 9, 42, 0
4, 50100, Note_on_c, 9, 35, 125
4, 50100, Note_on_c, 9, 42, 55
4, 50130, Note_on_c, 9, 35, 0
4, 50160, Note_on_c, 9, 40, 0
4, 50160, Note_on_c, 9, 51, 0
4, 50160, Note_on_c, 9, 42, 0
4, 50160, Note_on_c, 9, 35, 125
4, 50160, Note_on_c, 9, 42, 95
4, 50160, Note_on_c, 9, 51, 105
4, 50220, Note_on_c, 9, 42, 0
4, 50220, Note_on_c, 9, 42, 55
4, 50280, Note_on_c, 9, 42, 0
4, 50280, Note_on_c, 9, 51, 0
4, 50280, Note_on_c, 9, 35, 0
4, 50280, Note_on_c, 9, 42, 95
4, 50280, Note_on_c, 9, 40, 125
4, 50280, Note_on_c, 9, 51, 105
4, 50340, Note_on_c, 9, 42, 0
4, 50340, Note_on_c, 9, 42, 55
4, 50370, Note_on_c, 9, 46, 95
4, 50370, Note_on_c, 9, 35, 125
4, 50400, Note_on_c, 9, 35, 0
4, 50400, Note_on_c, 9, 42, 0
4, 50400, Note_on_c, 9, 40, 0
4, 50400, Note_on_c, 9, 51, 0
4, 50400, Note_on_c, 9, 46, 0
4, 50400, Note_on_c, 9, 42, 95
4, 50400, Note_on_c, 9, 51, 105
4, 50430, Note_on_c, 9, 42, 0
4, 50460, Note_on_c, 9, 42, 55
4, 50520, Note_on_c, 9, 42, 0
4, 50520, Note_on_c, 9, 51, 0
4, 50520, Note_on_c, 9, 42, 95
4, 50520, Note_on_c, 9, 40, 125
4, 50520, Note_on_c, 9, 51, 105
4, 50580, Note_on_c, 9, 42, 0
4, 50580, Note_on_c, 9, 35, 125
4, 50580, Note_on_c, 9, 42, 55
4, 50610, Note_on_c, 9, 35, 0
4, 50640, Note_on_c, 9, 40, 0
4, 50640, Note_on_c, 9, 51, 0
4, 50640, Note_on_c, 9, 42, 0
4, 50640, Note_on_c, 9, 35, 125
4, 50640, Note_on_c, 9, 42, 95
4, 50640, Note_on_c, 9, 51, 105
4, 50700, Note_on_c, 9, 42, 0
4, 50700, Note_on_c, 9, 42, 55
4, 50760, Note_on_c, 9, 42, 0
4, 50760, Note_on_c, 9, 51, 0
4, 50760, Note_on_c, 9, 35, 0
4, 50760, Note_on_c, 9, 42, 95
4, 50760, Note_on_c, 9, 40, 125
4, 50760, Note_on_c, 9, 51, 105
4, 50820, Note_on_c, 9, 42, 0
4, 50820, Note_on_c, 9, 42, 55
4, 50880, Note_on_c, 9, 42, 0
4, 50880, Note_on_c, 9, 51, 0
4, 50880, Note_on_c, 9, 40, 0
4, 50880, Note_on_c, 9, 42, 95
4, 50880, Note_on_c, 9, 35, 125
4, 50880, Note_on_c, 9, 51, 105
4, 50940, Note_on_c, 9, 42, 0
4, 50940, Note_on_c, 9, 42, 55
4, 51000, Note_on_c, 9, 42, 0
4, 51000, Note_on_c, 9, 51, 0
4, 51000, Note_on_c, 9, 35, 0
4, 51000, Note_on_c, 9, 42, 95
4, 51000, Note_on_c, 9, 40, 125
4, 51000, Note_on_c, 9, 51, 105
4, 51060, Note_on_c, 9, 42, 0
4, 51060, Note_on_c, 9, 35, 125
4, 51060, Note_on_c, 9, 42, 55
4, 51090, Note_on_c, 9, 35, 0
4, 51120, Note_on_c, 9, 40, 0
4, 51120, Note_on_c, 9, 51, 0
4, 51120, Note_on_c, 9, 42, 0
4, 51120, Note_on_c, 9, 35, 125
4, 51120, Note_on_c, 9, 42, 95
4, 51120, Note_on_c, 9, 51, 105
4, 51180, Note_on_c, 9, 42, 0
4, 51180, Note_on_c, 9, 42, 55
4, 51240, Note_on_c, 9, 42, 0
4, 51240, Note_on_c, 9, 51, 0
4, 51240, Note_on_c, 9, 35, 0
4, 51240, Note_on_c, 9, 42, 95
4, 51240, Note_on_c, 9, 40, 125
4, 51240, Note_on_c, 9, 51, 105
4, 51300, Note_on_c, 9, 42, 0
4, 51300, Note_on_c, 9, 42, 55
4, 51360, Note_on_c, 9, 42, 0
4, 51360, Note_on_c, 9, 51, 0
4, 51360, Note_on_c, 9, 40, 0
4, 51360, Note_on_c, 9, 42, 95
4, 51360, Note_on_c, 9, 35, 125
4, 51360, Note_on_c, 9, 51, 105
4, 51420, Note_on_c, 9, 42, 0
4, 51420, Note_on_c, 9, 42, 55
4, 51480, Note_on_c, 9, 42, 0
4, 51480, Note_on_c, 9, 51, 0
4, 51480, Note_on_c, 9, 35, 0
4, 51480, Note_on_c, 9, 42, 95
4, 51480, Note_on_c, 9, 40, 125
4, 51480, Note_on_c, 9, 51, 105
4, 51540, Note_on_c, 9, 42, 0
4, 51540, Note_on_c, 9, 35, 125
4, 51540, Note_on_c, 9, 42, 55
4, 51570, Note_on_c, 9, 35, 0
4, 51600, Note_on_c, 9, 40, 0
4, 51600, Note_on_c, 9, 51, 0
4, 51600, Note_on_c, 9, 42, 0
4, 51600, Note_on_c, 9, 35, 125
4, 51600, Note_on_c, 9, 42, 95
4, 51600, Note_on_c, 9, 51, 105
4, 51660, Note_on_c, 9, 42, 0
4, 51660, Note_on_c, 9, 42, 55
4, 51720, Note_on_c, 9, 42, 0
4, 51720, Note_on_c, 9, 51, 0
4, 51720, Note_on_c, 9, 35, 0
4, 51720, Note_on_c, 9, 42, 95
4, 51720, Note_on_c, 9, 40, 125
4, 51720, Note_on_c, 9, 51, 105
4, 51780, Note_on_c, 9, 42, 0
4, 51780, Note_on_c, 9, 42, 55
4, 51840, Note_on_c, 9, 42, 0
4, 51840, Note_on_c, 9, 51, 0
4, 51840, Note_on_c, 9, 40, 0
4, 51840, Note_on_c, 9, 40, 125
4, 51840, Note_on_c, 9, 42, 95
4, 51840, Note_on_c, 9, 35, 125
4, 51840, Note_on_c, 9, 51, 105
4, 51900, Note_on_c, 9, 42, 0
4, 51900, Note_on_c, 9, 42, 55
4, 51930, Note_on_c, 9, 35, 125
4, 51960, Note_on_c, 9, 35, 0
4, 51960, Note_on_c, 9, 40, 0
4, 51960, Note_on_c, 9, 51, 0
4, 51960, Note_on_c, 9, 35, 0
4, 51960, Note_on_c, 9, 42, 0
4, 51960, Note_on_c, 9, 42, 95
4, 51960, Note_on_c, 9, 40, 125
4, 51960, Note_on_c, 9, 51, 105
4, 52020, Note_on_c, 9, 42, 0
4, 52020, Note_on_c, 9, 35, 125
4, 52020, Note_on_c, 9, 42, 55
4, 52050, Note_on_c, 9, 35, 0
4, 52080, Note_on_c, 9, 40, 0
4, 52080, Note_on_c, 9, 51, 0
4, 52080, Note_on_c, 9, 42, 0
4, 52080, Note_on_c, 9, 40, 125
4, 52080, Note_on_c, 9, 42, 95
4, 52080, Note_on_c, 9, 51, 105
4, 52110, Note_on_c, 9, 40, 0
4, 52140, Note_on_c, 9, 42, 0
4, 52140, Note_on_c, 9, 40, 125
4, 52140, Note_on_c, 9, 42, 55
4, 52170, Note_on_c, 9, 40, 0
4, 52200, Note_on_c, 9, 42, 0
4, 52200, Note_on_c, 9, 51, 0
4, 52200, Note_on_c, 9, 42, 95
4, 52200, Note_on_c, 9, 40, 125
4, 52200, Note_on_c, 9, 51, 105
4, 52230, Note_on_c, 9, 40, 125
4, 52260, Note_on_c, 9, 40, 0
4, 52260, Note_on_c, 9, 42, 0
4, 52260, Note_on_c, 9, 42, 55
4, 52290, Note_on_c, 9, 56, 95
4, 52290, Note_on_c, 9, 35, 125
4, 52320, Note_on_c, 9, 35, 0
4, 52320, Note_on_c, 9, 42, 0
4, 52320, Note_on_c, 9, 40, 0
4, 52320, Note_on_c, 9, 51, 0
4, 52320, Note_on_c, 9, 56, 0
4, 52320, Note_on_c, 9, 49, 105
4, 52320, Note_on_c, 9, 42, 95
4, 52320, Note_on_c, 9, 35, 125
4, 52380, Note_on_c, 9, 42, 0
4, 52380, Note_on_c, 9, 42, 55
4, 52440, Note_on_c, 9, 42, 0
4, 52440, Note_on_c, 9, 35, 0
4, 52440, Note_on_c, 9, 49, 0
4, 52440, Note_on_c, 9, 42, 95
4, 52440, Note_on_c, 9, 40, 125
4, 52440, Note_on_c, 9, 51, 105
4, 52500, Note_on_c, 9, 42, 0
4, 52500, Note_on_c, 9, 35, 125
4, 52500, Note_on_c, 9, 42, 55
4, 52530, Note_on_c, 9, 35, 0
4, 52560, Note_on_c, 9, 40, 0
4, 52560, Note_on_c, 9, 51, 0
4, 52560, Note_on_c, 9, 42, 0
4, 52560, Note_on_c, 9, 35, 125
4, 52560, Note_on_c, 9, 42, 95
4, 52560, Note_on_c, 9, 51, 105
4, 52620, Note_on_c, 9, 42, 0
4, 52620, Note_on_c, 9, 42, 55
4, 52680, Note_on_c, 9, 42, 0
4, 52680, Note_on_c, 9, 51, 0
4, 52680, Note_on_c, 9, 35, 0
4, 52680, Note_on_c, 9, 42, 95
4, 52680, Note_on_c, 9, 40, 125
4, 52680, Note_on_c, 9, 51, 105
4, 52740, Note_on_c, 9, 42, 0
4, 52740, Note_on_c, 9, 42, 55
4, 52800, Note_on_c, 9, 42, 0
4, 52800, Note_on_c, 9, 51, 0
4, 52800, Note_on_c, 9, 40, 0
4, 52800, Note_on_c, 9, 42, 95
4, 52800, Note_on_c, 9, 35, 125
4, 52800, Note_on_c, 9, 51, 105
4, 52860, Note_on_c, 9, 42, 0
4, 52860, Note_on_c, 9, 42, 55
4, 52920, Note_on_c, 9, 42, 0
4, 52920, Note_on_c, 9, 51, 0
4, 52920, Note_on_c, 9, 35, 0
4, 52920, Note_on_c, 9, 42, 95
4, 52920, Note_on_c, 9, 40, 125
4, 52920, Note_on_c, 9, 51, 105
4, 52980, Note_on_c, 9, 42, 0
4, 52980, Note_on_c, 9, 35, 125
4, 52980, Note_on_c, 9, 42, 55
4, 53010, Note_on_c, 9, 35, 0
4, 53040, Note_on_c, 9, 40, 0
4, 53040, Note_on_c, 9, 51, 0
4, 53040, Note_on_c, 9, 42, 0
4, 53040, Note_on_c, 9, 35, 125
4, 53040, Note_on_c, 9, 42, 95
4, 53040, Note_on_c, 9, 51, 105
4, 53100, Note_on_c, 9, 42, 0
4, 53100, Note_on_c, 9, 42, 55
4, 53160, Note_on_c, 9, 42, 0
4, 53160, Note_on_c, 9, 51, 0
4, 53160, Note_on_c, 9, 35, 0
4, 53160, Note_on_c, 9, 42, 95
4, 53160, Note_on_c, 9, 40, 125
4, 53160, Note_on_c, 9, 51, 105
4, 53220, Note_on_c, 9, 42, 0
4, 53220, Note_on_c, 9, 42, 55
4, 53280, Note_on_c, 9, 42, 0
4, 53280, Note_on_c, 9, 51, 0
4, 53280, Note_on_c, 9, 40, 0
4, 53280, Note_on_c, 9, 42, 95
4, 53280, Note_on_c, 9, 35, 125
4, 53280, Note_on_c, 9, 51, 105
4, 53340, Note_on_c, 9, 42, 0
4, 53340, Note_on_c, 9, 42, 55
4, 53370, Note_on_c, 9, 40, 125
4, 53400, Note_on_c, 9, 40, 0
4, 53400, Note_on_c, 9, 35, 0
4, 53400, Note_on_c, 9, 51, 0
4, 53400, Note_on_c, 9, 42, 0
4, 53400, Note_on_c, 9, 42, 95
4, 53400, Note_on_c, 9, 51, 105
4, 53460, Note_on_c, 9, 42, 0
4, 53460, Note_on_c, 9, 35, 125
4, 53460, Note_on_c, 9, 42, 55
4, 53490, Note_on_c, 9, 35, 0
4, 53520, Note_on_c, 9, 42, 0
4, 53520, Note_on_c, 9, 51, 0
4, 53520, Note_on_c, 9, 35, 125
4, 53520, Note_on_c, 9, 42, 95
4, 53520, Note_on_c, 9, 51, 105
4, 53580, Note_on_c, 9, 42, 0
4, 53580, Note_on_c, 9, 42, 55
4, 53640, Note_on_c, 9, 42, 0
4, 53640, Note_on_c, 9, 51, 0
4, 53640, Note_on_c, 9, 35, 0
4, 53640, Note_on_c, 9, 42, 95
4, 53640, Note_on_c, 9, 40, 125
4, 53640, Note_on_c, 9, 51, 105
4, 53700, Note_on_c, 9, 42, 0
4, 53700, Note_on_c, 9, 42, 55
4, 53760, Note_on_c, 9, 42, 0
4, 53760, Note_on_c, 9, 51, 0
4, 53760, Note_on_c, 9, 40, 0
4, 53760, Note_on_c, 9, 40, 125
4, 53760, Note_on_c, 9, 42, 95
4, 53760, Note_on_c, 9, 51, 105
4, 53790, Note_on_c, 9, 40, 0
4, 53820, Note_on_c, 9, 42, 0
4, 53820, Note_on_c, 9, 35, 125
4, 53820, Note_on_c, 9, 42, 55
4, 53850, Note_on_c, 9, 35, 0
4, 53880, Note_on_c, 9, 42, 0
4, 53880, Note_on_c, 9, 51, 0
4, 53880, Note_on_c, 9, 42, 95
4, 53880, Note_on_c, 9, 40, 125
4, 53880, Note_on_c, 9, 51, 105
4, 53940, Note_on_c, 9, 42, 0
4, 53940, Note_on_c, 9, 35, 125
4, 53940, Note_on_c, 9, 42, 55
4, 53970, Note_on_c, 9, 35, 0
4, 54000, Note_on_c, 9, 40, 0
4, 54000, Note_on_c, 9, 51, 0
4, 54000, Note_on_c, 9, 42, 0
4, 54000, Note_on_c, 9, 40, 125
4, 54000, Note_on_c, 9, 42, 95
4, 54000, Note_on_c, 9, 51, 105
4, 54060, Note_on_c, 9, 42, 0
4, 54060, Note_on_c, 9, 35, 125
4, 54060, Note_on_c, 9, 42, 55
4, 54090, Note_on_c, 9, 35, 0
4, 54120, Note_on_c, 9, 40, 0
4, 54120, Note_on_c, 9, 51, 0
4, 54120, Note_on_c, 9, 42, 0
4, 54120, Note_on_c, 9, 42, 95
4, 54120, Note_on_c, 9, 40, 125
4, 54120, Note_on_c, 9, 51, 105
4, 54150, Note_on_c, 9, 40, 125
4, 54180, Note_on_c, 9, 40, 0
4, 54180, Note_on_c, 9, 42, 0
4, 54180, Note_on_c, 9, 42, 55
4, 54210, Note_on_c, 9, 46, 95
4, 54210, Note_on_c, 9, 35, 125
4, 54240, Note_on_c, 9, 35, 0
4, 54240, Note_on_c, 9, 42, 0
4, 54240, Note_on_c, 9, 40, 0
4, 54240, Note_on_c, 9, 51, 0
4, 54240, Note_on_c, 9, 46, 0
4, 54240, Note_on_c, 9, 42, 95
4, 54270, Note_on_c, 9, 42, 0
4, 54300, Note_on_c, 9, 42, 55
4, 54360, Note_on_c, 9, 42, 0
4, 54360, Note_on_c, 9, 49, 105
4, 54360, Note_on_c, 9, 42, 95
4, 54360, Note_on_c, 9, 40, 125
4, 54420, Note_on_c, 9, 42, 0
4, 54420, Note_on_c, 9, 35, 125
4, 54420, Note_on_c, 9, 42, 55
4, 54450, Note_on_c, 9, 35, 0
4, 54480, Note_on_c, 9, 49, 0
4, 54480, Note_on_c, 9, 40, 0
4, 54480, Note_on_c, 9, 42, 0
4, 54480, Note_on_c, 9, 35, 125
4, 54480, Note_on_c, 9, 42, 95
4, 54480, Note_on_c, 9, 51, 105
4, 54540, Note_on_c, 9, 42, 0
4, 54540, Note_on_c, 9, 42, 55
4, 54600, Note_on_c, 9, 42, 0
4, 54600, Note_on_c, 9, 51, 0
4, 54600, Note_on_c, 9, 35, 0
4, 54600, Note_on_c, 9, 42, 95
4, 54600, Note_on_c, 9, 40, 125
4, 54600, Note_on_c, 9, 51, 105
4, 54660, Note_on_c, 9, 42, 0
4, 54660, Note_on_c, 9, 42, 55
4, 54720, Note_on_c, 9, 42, 0
4, 54720, Note_on_c, 9, 51, 0
4, 54720, Note_on_c, 9, 40, 0
4, 54720, Note_on_c, 9, 42, 95
4, 54720, Note_on_c, 9, 35, 125
4, 54720, Note_on_c, 9, 51, 105
4, 54780, Note_on_c, 9, 42, 0
4, 54780, Note_on_c, 9, 42, 55
4, 54840, Note_on_c, 9, 42, 0
4, 54840, Note_on_c, 9, 51, 0
4, 54840, Note_on_c, 9, 35, 0
4, 54840, Note_on_c, 9, 42, 95
4, 54840, Note_on_c, 9, 40, 125
4, 54840, Note_on_c, 9, 51, 105
4, 54900, Note_on_c, 9, 42, 0
4, 54900, Note_on_c, 9, 35, 125
4, 54900, Note_on_c, 9, 42, 55
4, 54930, Note_on_c, 9, 35, 0
4, 54960, Note_on_c, 9, 40, 0
4, 54960, Note_on_c, 9, 51, 0
4, 54960, Note_on_c, 9, 42, 0
4, 54960, Note_on_c, 9, 35, 125
4, 54960, Note_on_c, 9, 42, 95
4, 54960, Note_on_c, 9, 51, 105
4, 55020, Note_on_c, 9, 42, 0
4, 55020, Note_on_c, 9, 42, 55
4, 55080, Note_on_c, 9, 42, 0
4, 55080, Note_on_c, 9, 51, 0
4, 55080, Note_on_c, 9, 35, 0
4, 55080, Note_on_c, 9, 42, 95
4, 55080, Note_on_c, 9, 40, 125
4, 55080, Note_on_c, 9, 51, 105
4, 55140, Note_on_c, 9, 42, 0
4, 55140, Note_on_c, 9, 42, 55
4, 55200, Note_on_c, 9, 42, 0
4, 55200, Note_on_c, 9, 51, 0
4, 55200, Note_on_c, 9, 40, 0
4, 55200, Note_on_c, 9, 42, 95
4, 55200, Note_on_c, 9, 35, 125
4, 55200, Note_on_c, 9, 51, 105
4, 55260, Note_on_c, 9, 42, 0
4, 55260, Note_on_c, 9, 42, 55
4, 55320, Note_on_c, 9, 42, 0
4, 55320, Note_on_c, 9, 51, 0
4, 55320, Note_on_c, 9, 35, 0
4, 55320, Note_on_c, 9, 42, 95
4, 55320, Note_on_c, 9, 40, 125
4, 55320, Note_on_c, 9, 51, 105
4, 55380, Note_on_c, 9, 42, 0
4, 55380, Note_on_c, 9, 35, 125
4, 55380, Note_on_c, 9, 42, 55
4, 55410, Note_on_c, 9, 35, 0
4, 55440, Note_on_c, 9, 40, 0
4, 55440, Note_on_c, 9, 51, 0
4, 55440, Note_on_c, 9, 42, 0
4, 55440, Note_on_c, 9, 35, 125
4, 55440, Note_on_c, 9, 42, 95
4, 55440, Note_on_c, 9, 51, 105
4, 55500, Note_on_c, 9, 42, 0
4, 55500, Note_on_c, 9, 42, 55
4, 55560, Note_on_c, 9, 42, 0
4, 55560, Note_on_c, 9, 51, 0
4, 55560, Note_on_c, 9, 35, 0
4, 55560, Note_on_c, 9, 42, 95
4, 55560, Note_on_c, 9, 40, 125
4, 55560, Note_on_c, 9, 51, 105
4, 55620, Note_on_c, 9, 42, 0
4, 55620, Note_on_c, 9, 42, 55
4, 55680, Note_on_c, 9, 42, 0
4, 55680, Note_on_c, 9, 51, 0
4, 55680, Note_on_c, 9, 40, 0
4, 55680, Note_on_c, 9, 40, 125
4, 55680, Note_on_c, 9, 42, 95
4, 55680, Note_on_c, 9, 35, 125
4, 55680, Note_on_c, 9, 51, 105
4, 55740, Note_on_c, 9, 42, 0
4, 55740, Note_on_c, 9, 42, 55
4, 55770, Note_on_c, 9, 35, 125
4, 55800, Note_on_c, 9, 35, 0
4, 55800, Note_on_c, 9, 40, 0
4, 55800, Note_on_c, 9, 51, 0
4, 55800, Note_on_c, 9, 35, 0
4, 55800, Note_on_c, 9, 42, 0
4, 55800, Note_on_c, 9, 42, 95
4, 55800, Note_on_c, 9, 40, 125
4, 55800, Note_on_c, 9, 51, 105
4, 55860, Note_on_c, 9, 42, 0
4, 55860, Note_on_c, 9, 35, 125
4, 55860, Note_on_c, 9, 42, 55
4, 55890, Note_on_c, 9, 35, 0
4, 55890, Note_on_c, 9, 40, 55
4, 55905, Note_on_c, 9, 40, 0
4, 55905, Note_on_c, 9, 40, 95
4, 55920, Note_on_c, 9, 40, 0
4, 55920, Note_on_c, 9, 40, 0
4, 55920, Note_on_c, 9, 51, 0
4, 55920, Note_on_c, 9, 42, 0
4, 55920, Note_on_c, 9, 40, 125
4, 55920, Note_on_c, 9, 42, 95
4, 55950, Note_on_c, 9, 40, 0
4, 55950, Note_on_c, 9, 40, 125
4, 55980, Note_on_c, 9, 40, 0
4, 55980, Note_on_c, 9, 42, 0
4, 55980, Note_on_c, 9, 50, 105
4, 56010, Note_on_c, 9, 50, 0
4, 56010, Note_on_c, 9, 48, 105
4, 56040, Note_on_c, 9, 48, 0
4, 56040, Note_on_c, 9, 45, 105
4, 56070, Note_on_c, 9, 45, 0
4, 56070, Note_on_c, 9, 43, 105
4, 56100, Note_on_c, 9, 43, 0
4, 56100, Note_on_c, 9, 41, 105
4, 56130, Note_on_c, 9, 41, 0
4, 56130, Note_on_c, 9, 49, 105
4, 56130, Note_on_c, 9, 40, 125
4, 56130, Note_on_c, 9, 35, 125
4, 56160, Note_on_c, 9, 35, 0
4, 56160, Note_on_c, 9, 40, 0
4, 56160, Note_on_c, 9, 49, 0
4, 56160, Note_on_c, 9, 42, 85
4, 56190, Note_on_c, 9, 42, 0
4, 56190, End_track
5, 0, Start_track
5, 0, MIDI_port, 0
5, 0, Title_t, "sequenced by Devian Zikri"
5, 0, Program_c, 0, 33
5, 0, Control_c, 0, 7, 100
5, 0, Control_c, 0, 10, 64
5, 3330, Control_c, 0, 121, 0
5, 3330, Control_c, 0, 91, 40
5, 3330, Control_c, 0, 93, 0
5, 3330, Note_on_c, 0, 33, 115
5, 3840, Note_on_c, 0, 33, 0
5, 3840, Note_on_c, 0, 35, 115
5, 4320, Note_on_c, 0, 35, 0
5, 4320, Note_on_c, 0, 35, 105
5, 4340, Note_on_c, 0, 35, 0
5, 4350, Note_on_c, 0, 35, 105
5, 4370, Note_on_c, 0, 35, 0
5, 4380, Note_on_c, 0, 37, 105
5, 4410, Note_on_c, 0, 37, 0
5, 4410, Note_on_c, 0, 35, 105
5, 4430, Note_on_c, 0, 35, 0
5, 4440, Note_on_c, 0, 40, 115
5, 4470, Note_on_c, 0, 40, 0
5, 4500, Note_on_c, 0, 42, 115
5, 4530, Note_on_c, 0, 42, 0
5, 4560, Note_on_c, 0, 44, 115
5, 4650, Note_on_c, 0, 44, 0
5, 4650, Note_on_c, 0, 42, 115
5, 4680, Note_on_c, 0, 42, 0
5, 4740, Note_on_c, 0, 30, 115
5, 4770, Note_on_c, 0, 30, 0
5, 4770, Note_on_c, 0, 30, 115
5, 4800, Note_on_c, 0, 30, 0
5, 4830, Note_on_c, 0, 30, 115
5, 4860, Note_on_c, 0, 30, 0
5, 4920, Note_on_c, 0, 30, 115
5, 4980, Note_on_c, 0, 30, 0
5, 5160, Note_on_c, 0, 39, 115
5, 5280, Note_on_c, 0, 39, 0
5, 5280, Note_on_c, 0, 37, 115
5, 5340, Note_on_c, 0, 37, 0
5, 5370, Note_on_c, 0, 30, 115
5, 5400, Note_on_c, 0, 30, 0
5, 5400, Note_on_c, 0, 35, 115
5, 5430, Note_on_c, 0, 35, 0
5, 5460, Note_on_c, 0, 37, 115
5, 5490, Note_on_c, 0, 37, 0
5, 5520, Note_on_c, 0, 42, 115
5, 5610, Note_on_c, 0, 42, 0
5, 5610, Note_on_c, 0, 40, 115
5, 5640, Note_on_c, 0, 40, 0
5, 5820, Note_on_c, 0, 35, 115
5, 5850, Note_on_c, 0, 35, 0
5, 5880, Note_on_c, 0, 35, 115
5, 5910, Note_on_c, 0, 35, 0
5, 5910, Note_on_c, 0, 37, 115
5, 5940, Note_on_c, 0, 37, 0
5, 6240, Note_on_c, 0, 35, 115
5, 6270, Note_on_c, 0, 35, 0
5, 6270, Note_on_c, 0, 35, 115
5, 6300, Note_on_c, 0, 35, 0
5, 6300, Note_on_c, 0, 37, 115
5, 6330, Note_on_c, 0, 37, 0
5, 6330, Note_on_c, 0, 35, 115
5, 6360, Note_on_c, 0, 35, 0
5, 6360, Note_on_c, 0, 40, 115
5, 6390, Note_on_c, 0, 40, 0
5, 6420, Note_on_c, 0, 42, 115
5, 6450, Note_on_c, 0, 42, 0
5, 6480, Note_on_c, 0, 44, 115
5, 6570, Note_on_c, 0, 44, 0
5, 6570, Note_on_c, 0, 42, 115
5, 6600, Note_on_c, 0, 42, 0
5, 6660, Note_on_c, 0, 30, 115
5, 6690, Note_on_c, 0, 30, 0
5, 6690, Note_on_c, 0, 30, 115
5, 6720, Note_on_c, 0, 30, 0
5, 6750, Note_on_c, 0, 30, 115
5, 6780, Note_on_c, 0, 30, 0
5, 6840, Note_on_c, 0, 30, 115
5, 6900, Note_on_c, 0, 30, 0
5, 7080, Note_on_c, 0, 39, 115
5, 7200, Note_on_c, 0, 39, 0
5, 7200, Note_on_c, 0, 37, 115
5, 7260, Note_on_c, 0, 37, 0
5, 7290, Note_on_c, 0, 30, 115
5, 7320, Note_on_c, 0, 30, 0
5, 7320, Note_on_c, 0, 35, 115
5, 7350, Note_on_c, 0, 35, 0
5, 7380, Note_on_c, 0, 37, 115
5, 7410, Note_on_c, 0, 37, 0
5, 7440, Note_on_c, 0, 42, 115
5, 7530, Note_on_c, 0, 42, 0
5, 7530, Note_on_c, 0, 40, 115
5, 7560, Note_on_c, 0, 40, 0
5, 7740, Note_on_c, 0, 35, 115
5, 7770, Note_on_c, 0, 35, 0
5, 7800, Note_on_c, 0, 35, 115
5, 7830, Note_on_c, 0, 35, 0
5, 7830, Note_on_c, 0, 37, 115
5, 7860, Note_on_c, 0, 37, 0
5, 8160, Note_on_c, 0, 30, 115
5, 8280, Note_on_c, 0, 30, 0
5, 8370, Note_on_c, 0, 30, 115
5, 8400, Note_on_c, 0, 30, 0
5, 8400, Note_on_c, 0, 30, 115
5, 8520, Note_on_c, 0, 30, 0
5, 8640, Note_on_c, 0, 32, 115
5, 8760, Note_on_c, 0, 32, 0
5, 8850, Note_on_c, 0, 32, 115
5, 8880, Note_on_c, 0, 32, 0
5, 8880, Note_on_c, 0, 32, 115
5, 9000, Note_on_c, 0, 32, 0
5, 9120, Note_on_c, 0, 33, 115
5, 9240, Note_on_c, 0, 33, 0
5, 9330, Note_on_c, 0, 33, 115
5, 9360, Note_on_c, 0, 33, 0
5, 9360, Note_on_c, 0, 33, 115
5, 9480, Note_on_c, 0, 33, 0
5, 9600, Note_on_c, 0, 35, 115
5, 9720, Note_on_c, 0, 35, 0
5, 9810, Note_on_c, 0, 35, 115
5, 9840, Note_on_c, 0, 35, 0
5, 9840, Note_on_c, 0, 36, 115
5, 9960, Note_on_c, 0, 36, 0
5, 10200, Note_on_c, 0, 37, 115
5, 10230, Note_on_c, 0, 37, 0
5, 10260, Note_on_c, 0, 37, 115
5, 10290, Note_on_c, 0, 37, 0
5, 10320, Note_on_c, 0, 32, 115
5, 10440, Note_on_c, 0, 32, 0
5, 10440, Note_on_c, 0, 35, 115
5, 10530, Note_on_c, 0, 35, 0
5, 10530, Note_on_c, 0, 37, 115
5, 10560, Note_on_c, 0, 37, 0
5, 10680, Note_on_c, 0, 37, 115
5, 10710, Note_on_c, 0, 37, 0
5, 10740, Note_on_c, 0, 37, 115
5, 10770, Note_on_c, 0, 37, 0
5, 10800, Note_on_c, 0, 35, 115
5, 10920, Note_on_c, 0, 35, 0
5, 10920, Note_on_c, 0, 40, 115
5, 11010, Note_on_c, 0, 40, 0
5, 11010, Note_on_c, 0, 33, 115
5, 11040, Note_on_c, 0, 33, 0
5, 11160, Note_on_c, 0, 33, 115
5, 11190, Note_on_c, 0, 33, 0
5, 11220, Note_on_c, 0, 33, 115
5, 11250, Note_on_c, 0, 33, 0
5, 11280, Note_on_c, 0, 32, 115
5, 11400, Note_on_c, 0, 32, 0
5, 11400, Note_on_c, 0, 37, 115
5, 11520, Note_on_c, 0, 37, 0
5, 11520, Note_on_c, 0, 30, 115
5, 11640, Note_on_c, 0, 30, 0
5, 11640, Note_on_c, 0, 32, 115
5, 11670, Note_on_c, 0, 32, 0
5, 11700, Note_on_c, 0, 33, 115
5, 11730, Note_on_c, 0, 33, 0
5, 11760, Note_on_c, 0, 35, 115
5, 11880, Note_on_c, 0, 35, 0
5, 11880, Note_on_c, 0, 36, 115
5, 11970, Note_on_c, 0, 36, 0
5, 11970, Note_on_c, 0, 37, 115
5, 12000, Note_on_c, 0, 37, 0
5, 12120, Note_on_c, 0, 37, 115
5, 12150, Note_on_c, 0, 37, 0
5, 12180, Note_on_c, 0, 37, 115
5, 12210, Note_on_c, 0, 37, 0
5, 12240, Note_on_c, 0, 32, 115
5, 12360, Note_on_c, 0, 32, 0
5, 12360, Note_on_c, 0, 35, 115
5, 12450, Note_on_c, 0, 35, 0
5, 12450, Note_on_c, 0, 37, 115
5, 12480, Note_on_c, 0, 37, 0
5, 12600, Note_on_c, 0, 37, 115
5, 12630, Note_on_c, 0, 37, 0
5, 12660, Note_on_c, 0, 37, 115
5, 12690, Note_on_c, 0, 37, 0
5, 12720, Note_on_c, 0, 35, 115
5, 12840, Note_on_c, 0, 35, 0
5, 12840, Note_on_c, 0, 40, 115
5, 12930, Note_on_c, 0, 40, 0
5, 12930, Note_on_c, 0, 33, 115
5, 12960, Note_on_c, 0, 33, 0
5, 13080, Note_on_c, 0, 33, 115
5, 13110, Note_on_c, 0, 33, 0
5, 13140, Note_on_c, 0, 33, 115
5, 13170, Note_on_c, 0, 33, 0
5, 13200, Note_on_c, 0, 32, 115
5, 13320, Note_on_c, 0, 32, 0
5, 13320, Note_on_c, 0, 37, 115
5, 13440, Note_on_c, 0, 37, 0
5, 13440, Note_on_c, 0, 30, 115
5, 13560, Note_on_c, 0, 30, 0
5, 13560, Note_on_c, 0, 32, 115
5, 13590, Note_on_c, 0, 32, 0
5, 13620, Note_on_c, 0, 33, 115
5, 13650, Note_on_c, 0, 33, 0
5, 13680, Note_on_c, 0, 35, 115
5, 13800, Note_on_c, 0, 35, 0
5, 13800, Note_on_c, 0, 36, 115
5, 13890, Note_on_c, 0, 36, 0
5, 13890, Note_on_c, 0, 30, 115
5, 13920, Note_on_c, 0, 30, 0
5, 13920, Note_on_c, 0, 35, 105
5, 13940, Note_on_c, 0, 35, 0
5, 13950, Note_on_c, 0, 35, 105
5, 13970, Note_on_c, 0, 35, 0
5, 13980, Note_on_c, 0, 37, 105
5, 14010, Note_on_c, 0, 37, 0
5, 14010, Note_on_c, 0, 35, 105
5, 14030, Note_on_c, 0, 35, 0
5, 14040, Note_on_c, 0, 40, 115
5, 14070, Note_on_c, 0, 40, 0
5, 14100, Note_on_c, 0, 42, 115
5, 14130, Note_on_c, 0, 42, 0
5, 14160, Note_on_c, 0, 44, 115
5, 14250, Note_on_c, 0, 44, 0
5, 14250, Note_on_c, 0, 42, 115
5, 14280, Note_on_c, 0, 42, 0
5, 14340, Note_on_c, 0, 30, 115
5, 14370, Note_on_c, 0, 30, 0
5, 14370, Note_on_c, 0, 30, 115
5, 14400, Note_on_c, 0, 30, 0
5, 14430, Note_on_c, 0, 30, 115
5, 14460, Note_on_c, 0, 30, 0
5, 14520, Note_on_c, 0, 30, 115
5, 14580, Note_on_c, 0, 30, 0
5, 14760, Note_on_c, 0, 39, 115
5, 14880, Note_on_c, 0, 39, 0
5, 14880, Note_on_c, 0, 37, 115
5, 14940, Note_on_c, 0, 37, 0
5, 14970, Note_on_c, 0, 30, 115
5, 15000, Note_on_c, 0, 30, 0
5, 15000, Note_on_c, 0, 35, 115
5, 15030, Note_on_c, 0, 35, 0
5, 15060, Note_on_c, 0, 37, 115
5, 15090, Note_on_c, 0, 37, 0
5, 15120, Note_on_c, 0, 42, 115
5, 15210, Note_on_c, 0, 42, 0
5, 15210, Note_on_c, 0, 40, 115
5, 15240, Note_on_c, 0, 40, 0
5, 15420, Note_on_c, 0, 35, 115
5, 15450, Note_on_c, 0, 35, 0
5, 15480, Note_on_c, 0, 35, 115
5, 15510, Note_on_c, 0, 35, 0
5, 15510, Note_on_c, 0, 37, 115
5, 15540, Note_on_c, 0, 37, 0
5, 15840, Note_on_c, 0, 35, 115
5, 15870, Note_on_c, 0, 35, 0
5, 15870, Note_on_c, 0, 35, 115
5, 15900, Note_on_c, 0, 35, 0
5, 15900, Note_on_c, 0, 37, 115
5, 15930, Note_on_c, 0, 37, 0
5, 15930, Note_on_c, 0, 35, 115
5, 15960, Note_on_c, 0, 35, 0
5, 15960, Note_on_c, 0, 40, 115
5, 15990, Note_on_c, 0, 40, 0
5, 16020, Note_on_c, 0, 42, 115
5, 16050, Note_on_c, 0, 42, 0
5, 16080, Note_on_c, 0, 44, 115
5, 16170, Note_on_c, 0, 44, 0
5, 16170, Note_on_c, 0, 42, 115
5, 16200, Note_on_c, 0, 42, 0
5, 16260, Note_on_c, 0, 30, 115
5, 16290, Note_on_c, 0, 30, 0
5, 16290, Note_on_c, 0, 30, 115
5, 16320, Note_on_c, 0, 30, 0
5, 16350, Note_on_c, 0, 30, 115
5, 16380, Note_on_c, 0, 30, 0
5, 16440, Note_on_c, 0, 30, 115
5, 16500, Note_on_c, 0, 30, 0
5, 16680, Note_on_c, 0, 39, 115
5, 16800, Note_on_c, 0, 39, 0
5, 16800, Note_on_c, 0, 37, 115
5, 16860, Note_on_c, 0, 37, 0
5, 16890, Note_on_c, 0, 30, 115
5, 16920, Note_on_c, 0, 30, 0
5, 16920, Note_on_c, 0, 35, 115
5, 16950, Note_on_c, 0, 35, 0
5, 16980, Note_on_c, 0, 37, 115
5, 17010, Note_on_c, 0, 37, 0
5, 17040, Note_on_c, 0, 42, 115
5, 17130, Note_on_c, 0, 42, 0
5, 17130, Note_on_c, 0, 40, 115
5, 17160, Note_on_c, 0, 40, 0
5, 17340, Note_on_c, 0, 35, 115
5, 17370, Note_on_c, 0, 35, 0
5, 17400, Note_on_c, 0, 35, 115
5, 17430, Note_on_c, 0, 35, 0
5, 17430, Note_on_c, 0, 37, 115
5, 17460, Note_on_c, 0, 37, 0
5, 17760, Note_on_c, 0, 30, 115
5, 17880, Note_on_c, 0, 30, 0
5, 17970, Note_on_c, 0, 30, 115
5, 18000, Note_on_c, 0, 30, 0
5, 18000, Note_on_c, 0, 30, 115
5, 18120, Note_on_c, 0, 30, 0
5, 18240, Note_on_c, 0, 32, 115
5, 18360, Note_on_c, 0, 32, 0
5, 18450, Note_on_c, 0, 32, 115
5, 18480, Note_on_c, 0, 32, 0
5, 18480, Note_on_c, 0, 32, 115
5, 18600, Note_on_c, 0, 32, 0
5, 18720, Note_on_c, 0, 33, 115
5, 18840, Note_on_c, 0, 33, 0
5, 18930, Note_on_c, 0, 33, 115
5, 18960, Note_on_c, 0, 33, 0
5, 18960, Note_on_c, 0, 33, 115
5, 19080, Note_on_c, 0, 33, 0
5, 19200, Note_on_c, 0, 35, 115
5, 19320, Note_on_c, 0, 35, 0
5, 19410, Note_on_c, 0, 35, 115
5, 19440, Note_on_c, 0, 35, 0
5, 19440, Note_on_c, 0, 36, 115
5, 19560, Note_on_c, 0, 36, 0
5, 19800, Note_on_c, 0, 37, 115
5, 19830, Note_on_c, 0, 37, 0
5, 19860, Note_on_c, 0, 37, 115
5, 19890, Note_on_c, 0, 37, 0
5, 19920, Note_on_c, 0, 32, 115
5, 20040, Note_on_c, 0, 32, 0
5, 20040, Note_on_c, 0, 35, 115
5, 20130, Note_on_c, 0, 35, 0
5, 20130, Note_on_c, 0, 37, 115
5, 20160, Note_on_c, 0, 37, 0
5, 20280, Note_on_c, 0, 37, 115
5, 20310, Note_on_c, 0, 37, 0
5, 20340, Note_on_c, 0, 37, 115
5, 20370, Note_on_c, 0, 37, 0
5, 20400, Note_on_c, 0, 35, 115
5, 20520, Note_on_c, 0, 35, 0
5, 20520, Note_on_c, 0, 40, 115
5, 20610, Note_on_c, 0, 40, 0
5, 20610, Note_on_c, 0, 33, 115
5, 20640, Note_on_c, 0, 33, 0
5, 20760, Note_on_c, 0, 33, 115
5, 20790, Note_on_c, 0, 33, 0
5, 20820, Note_on_c, 0, 33, 115
5, 20850, Note_on_c, 0, 33, 0
5, 20880, Note_on_c, 0, 32, 115
5, 21000, Note_on_c, 0, 32, 0
5, 21000, Note_on_c, 0, 37, 115
5, 21120, Note_on_c, 0, 37, 0
5, 21120, Note_on_c, 0, 30, 115
5, 21240, Note_on_c, 0, 30, 0
5, 21240, Note_on_c, 0, 32, 115
5, 21270, Note_on_c, 0, 32, 0
5, 21300, Note_on_c, 0, 33, 115
5, 21330, Note_on_c, 0, 33, 0
5, 21360, Note_on_c, 0, 35, 115
5, 21480, Note_on_c, 0, 35, 0
5, 21480, Note_on_c, 0, 36, 115
5, 21570, Note_on_c, 0, 36, 0
5, 21570, Note_on_c, 0, 37, 115
5, 21600, Note_on_c, 0, 37, 0
5, 21720, Note_on_c, 0, 37, 115
5, 21750, Note_on_c, 0, 37, 0
5, 21780, Note_on_c, 0, 37, 115
5, 21810, Note_on_c, 0, 37, 0
5, 21840, Note_on_c, 0, 32, 115
5, 21960, Note_on_c, 0, 32, 0
5, 21960, Note_on_c, 0, 35, 115
5, 22050, Note_on_c, 0, 35, 0
5, 22050, Note_on_c, 0, 37, 115
5, 22080, Note_on_c, 0, 37, 0
5, 22200, Note_on_c, 0, 37, 115
5, 22230, Note_on_c, 0, 37, 0
5, 22260, Note_on_c, 0, 37, 115
5, 22290, Note_on_c, 0, 37, 0
5, 22320, Note_on_c, 0, 35, 115
5, 22440, Note_on_c, 0, 35, 0
5, 22440, Note_on_c, 0, 40, 115
5, 22530, Note_on_c, 0, 40, 0
5, 22530, Note_on_c, 0, 33, 115
5, 22560, Note_on_c, 0, 33, 0
5, 22680, Note_on_c, 0, 33, 115
5, 22710, Note_on_c, 0, 33, 0
5, 22740, Note_on_c, 0, 33, 115
5, 22770, Note_on_c, 0, 33, 0
5, 22800, Note_on_c, 0, 32, 115
5, 22920, Note_on_c, 0, 32, 0
5, 22920, Note_on_c, 0, 37, 115
5, 23040, Note_on_c, 0, 37, 0
5, 23040, Note_on_c, 0, 30, 115
5, 23160, Note_on_c, 0, 30, 0
5, 23160, Note_on_c, 0, 32, 115
5, 23190, Note_on_c, 0, 32, 0
5, 23220, Note_on_c, 0, 33, 115
5, 23250, Note_on_c, 0, 33, 0
5, 23280, Note_on_c, 0, 35, 115
5, 23400, Note_on_c, 0, 35, 0
5, 23400, Note_on_c, 0, 36, 115
5, 23520, Note_on_c, 0, 36, 0
5, 23520, Note_on_c, 0, 29, 115
5, 23700, Note_on_c, 0, 29, 0
5, 23730, Note_on_c, 0, 29, 115
5, 23760, Note_on_c, 0, 29, 0
5, 23760, Note_on_c, 0, 29, 115
5, 23940, Note_on_c, 0, 29, 0
5, 24000, Note_on_c, 0, 34, 115
5, 24180, Note_on_c, 0, 34, 0
5, 24210, Note_on_c, 0, 34, 115
5, 24240, Note_on_c, 0, 34, 0
5, 24240, Note_on_c, 0, 34, 115
5, 24420, Note_on_c, 0, 34, 0
5, 24480, Note_on_c, 0, 33, 115
5, 24660, Note_on_c, 0, 33, 0
5, 24690, Note_on_c, 0, 33, 115
5, 24720, Note_on_c, 0, 33, 0
5, 24720, Note_on_c, 0, 33, 115
5, 24840, Note_on_c, 0, 33, 0
5, 24840, Note_on_c, 0, 32, 115
5, 24960, Note_on_c, 0, 32, 0
5, 24960, Note_on_c, 0, 30, 115
5, 25140, Note_on_c, 0, 30, 0
5, 25170, Note_on_c, 0, 30, 115
5, 25200, Note_on_c, 0, 30, 0
5, 25200, Note_on_c, 0, 35, 115
5, 25380, Note_on_c, 0, 35, 0
5, 25440, Note_on_c, 0, 41, 115
5, 25800, Note_on_c, 0, 41, 0
5, 25800, Note_on_c, 0, 41, 115
5, 25920, Note_on_c, 0, 41, 0
5, 25920, Note_on_c, 0, 34, 115
5, 26280, Note_on_c, 0, 34, 0
5, 26280, Note_on_c, 0, 34, 115
5, 26400, Note_on_c, 0, 34, 0
5, 26400, Note_on_c, 0, 33, 115
5, 26760, Note_on_c, 0, 33, 0
5, 26760, Note_on_c, 0, 32, 115
5, 26880, Note_on_c, 0, 32, 0
5, 26880, Note_on_c, 0, 30, 115
5, 27120, Note_on_c, 0, 30, 0
5, 27120, Note_on_c, 0, 35, 115
5, 27360, Note_on_c, 0, 35, 0
5, 27360, Note_on_c, 0, 35, 105
5, 27380, Note_on_c, 0, 35, 0
5, 27390, Note_on_c, 0, 35, 105
5, 27410, Note_on_c, 0, 35, 0
5, 27420, Note_on_c, 0, 37, 105
5, 27450, Note_on_c, 0, 37, 0
5, 27450, Note_on_c, 0, 35, 105
5, 27470, Note_on_c, 0, 35, 0
5, 27480, Note_on_c, 0, 40, 115
5, 27510, Note_on_c, 0, 40, 0
5, 27540, Note_on_c, 0, 42, 115
5, 27570, Note_on_c, 0, 42, 0
5, 27600, Note_on_c, 0, 44, 115
5, 27690, Note_on_c, 0, 44, 0
5, 27690, Note_on_c, 0, 42, 115
5, 27720, Note_on_c, 0, 42, 0
5, 27780, Note_on_c, 0, 30, 115
5, 27810, Note_on_c, 0, 30, 0
5, 27810, Note_on_c, 0, 30, 115
5, 27840, Note_on_c, 0, 30, 0
5, 27870, Note_on_c, 0, 30, 115
5, 27900, Note_on_c, 0, 30, 0
5, 27960, Note_on_c, 0, 30, 115
5, 28020, Note_on_c, 0, 30, 0
5, 28200, Note_on_c, 0, 39, 115
5, 28320, Note_on_c, 0, 39, 0
5, 28320, Note_on_c, 0, 37, 115
5, 28380, Note_on_c, 0, 37, 0
5, 28410, Note_on_c, 0, 30, 115
5, 28440, Note_on_c, 0, 30, 0
5, 28440, Note_on_c, 0, 35, 115
5, 28470, Note_on_c, 0, 35, 0
5, 28500, Note_on_c, 0, 37, 115
5, 28530, Note_on_c, 0, 37, 0
5, 28560, Note_on_c, 0, 42, 115
5, 28650, Note_on_c, 0, 42, 0
5, 28650, Note_on_c, 0, 40, 115
5, 28680, Note_on_c, 0, 40, 0
5, 28860, Note_on_c, 0, 35, 115
5, 28890, Note_on_c, 0, 35, 0
5, 28920, Note_on_c, 0, 35, 115
5, 28950, Note_on_c, 0, 35, 0
5, 28950, Note_on_c, 0, 37, 115
5, 28980, Note_on_c, 0, 37, 0
5, 29280, Note_on_c, 0, 35, 115
5, 29310, Note_on_c, 0, 35, 0
5, 29310, Note_on_c, 0, 35, 115
5, 29340, Note_on_c, 0, 35, 0
5, 29340, Note_on_c, 0, 37, 115
5, 29370, Note_on_c, 0, 37, 0
5, 29370, Note_on_c, 0, 35, 115
5, 29400, Note_on_c, 0, 35, 0
5, 29400, Note_on_c, 0, 40, 115
5, 29430, Note_on_c, 0, 40, 0
5, 29460, Note_on_c, 0, 42, 115
5, 29490, Note_on_c, 0, 42, 0
5, 29520, Note_on_c, 0, 44, 115
5, 29610, Note_on_c, 0, 44, 0
5, 29610, Note_on_c, 0, 42, 115
5, 29640, Note_on_c, 0, 42, 0
5, 29700, Note_on_c, 0, 30, 115
5, 29730, Note_on_c, 0, 30, 0
5, 29730, Note_on_c, 0, 30, 115
5, 29760, Note_on_c, 0, 30, 0
5, 29790, Note_on_c, 0, 30, 115
5, 29820, Note_on_c, 0, 30, 0
5, 29880, Note_on_c, 0, 30, 115
5, 29940, Note_on_c, 0, 30, 0
5, 30120, Note_on_c, 0, 39, 115
5, 30240, Note_on_c, 0, 39, 0
5, 30240, Note_on_c, 0, 37, 115
5, 30300, Note_on_c, 0, 37, 0
5, 30330, Note_on_c, 0, 30, 115
5, 30360, Note_on_c, 0, 30, 0
5, 30360, Note_on_c, 0, 35, 115
5, 30390, Note_on_c, 0, 35, 0
5, 30420, Note_on_c, 0, 37, 115
5, 30450, Note_on_c, 0, 37, 0
5, 30480, Note_on_c, 0, 42, 115
5, 30570, Note_on_c, 0, 42, 0
5, 30570, Note_on_c, 0, 40, 115
5, 30600, Note_on_c, 0, 40, 0
5, 30780, Note_on_c, 0, 35, 115
5, 30810, Note_on_c, 0, 35, 0
5, 30840, Note_on_c, 0, 35, 115
5, 30870, Note_on_c, 0, 35, 0
5, 30870, Note_on_c, 0, 37, 115
5, 30900, Note_on_c, 0, 37, 0
5, 31200, Note_on_c, 0, 30, 115
5, 31320, Note_on_c, 0, 30, 0
5, 31410, Note_on_c, 0, 30, 115
5, 31440, Note_on_c, 0, 30, 0
5, 31440, Note_on_c, 0, 30, 115
5, 31560, Note_on_c, 0, 30, 0
5, 31680, Note_on_c, 0, 32, 115
5, 31800, Note_on_c, 0, 32, 0
5, 31890, Note_on_c, 0, 32, 115
5, 31920, Note_on_c, 0, 32, 0
5, 31920, Note_on_c, 0, 32, 115
5, 32040, Note_on_c, 0, 32, 0
5, 32160, Note_on_c, 0, 33, 115
5, 32280, Note_on_c, 0, 33, 0
5, 32370, Note_on_c, 0, 33, 115
5, 32400, Note_on_c, 0, 33, 0
5, 32400, Note_on_c, 0, 33, 115
5, 32520, Note_on_c, 0, 33, 0
5, 32640, Note_on_c, 0, 35, 115
5, 32760, Note_on_c, 0, 35, 0
5, 32850, Note_on_c, 0, 35, 115
5, 32880, Note_on_c, 0, 35, 0
5, 32880, Note_on_c, 0, 36, 115
5, 33000, Note_on_c, 0, 36, 0
5, 33240, Note_on_c, 0, 37, 115
5, 33270, Note_on_c, 0, 37, 0
5, 33300, Note_on_c, 0, 37, 115
5, 33330, Note_on_c, 0, 37, 0
5, 33360, Note_on_c, 0, 32, 115
5, 33480, Note_on_c, 0, 32, 0
5, 33480, Note_on_c, 0, 35, 115
5, 33570, Note_on_c, 0, 35, 0
5, 33570, Note_on_c, 0, 37, 115
5, 33600, Note_on_c, 0, 37, 0
5, 33720, Note_on_c, 0, 37, 115
5, 33750, Note_on_c, 0, 37, 0
5, 33780, Note_on_c, 0, 37, 115
5, 33810, Note_on_c, 0, 37, 0
5, 33840, Note_on_c, 0, 35, 115
5, 33960, Note_on_c, 0, 35, 0
5, 33960, Note_on_c, 0, 40, 115
5, 34050, Note_on_c, 0, 40, 0
5, 34050, Note_on_c, 0, 33, 115
5, 34080, Note_on_c, 0, 33, 0
5, 34200, Note_on_c, 0, 33, 115
5, 34230, Note_on_c, 0, 33, 0
5, 34260, Note_on_c, 0, 33, 115
5, 34290, Note_on_c, 0, 33, 0
5, 34320, Note_on_c, 0, 32, 115
5, 34440, Note_on_c, 0, 32, 0
5, 34440, Note_on_c, 0, 37, 115
5, 34560, Note_on_c, 0, 37, 0
5, 34560, Note_on_c, 0, 30, 115
5, 34680, Note_on_c, 0, 30, 0
5, 34680, Note_on_c, 0, 32, 115
5, 34710, Note_on_c, 0, 32, 0
5, 34740, Note_on_c, 0, 33, 115
5, 34770, Note_on_c, 0, 33, 0
5, 34800, Note_on_c, 0, 35, 115
5, 34920, Note_on_c, 0, 35, 0
5, 34920, Note_on_c, 0, 36, 115
5, 35010, Note_on_c, 0, 36, 0
5, 35010, Note_on_c, 0, 37, 115
5, 35040, Note_on_c, 0, 37, 0
5, 35160, Note_on_c, 0, 37, 115
5, 35190, Note_on_c, 0, 37, 0
5, 35220, Note_on_c, 0, 37, 115
5, 35250, Note_on_c, 0, 37, 0
5, 35280, Note_on_c, 0, 32, 115
5, 35400, Note_on_c, 0, 32, 0
5, 35400, Note_on_c, 0, 35, 115
5, 35490, Note_on_c, 0, 35, 0
5, 35490, Note_on_c, 0, 37, 115
5, 35520, Note_on_c, 0, 37, 0
5, 35640, Note_on_c, 0, 37, 115
5, 35670, Note_on_c, 0, 37, 0
5, 35700, Note_on_c, 0, 37, 115
5, 35730, Note_on_c, 0, 37, 0
5, 35760, Note_on_c, 0, 35, 115
5, 35880, Note_on_c, 0, 35, 0
5, 35880, Note_on_c, 0, 40, 115
5, 35970, Note_on_c, 0, 40, 0
5, 35970, Note_on_c, 0, 33, 115
5, 36000, Note_on_c, 0, 33, 0
5, 36120, Note_on_c, 0, 33, 115
5, 36150, Note_on_c, 0, 33, 0
5, 36180, Note_on_c, 0, 33, 115
5, 36210, Note_on_c, 0, 33, 0
5, 36240, Note_on_c, 0, 32, 115
5, 36360, Note_on_c, 0, 32, 0
5, 36360, Note_on_c, 0, 37, 115
5, 36480, Note_on_c, 0, 37, 0
5, 36480, Note_on_c, 0, 30, 115
5, 36600, Note_on_c, 0, 30, 0
5, 36600, Note_on_c, 0, 32, 115
5, 36630, Note_on_c, 0, 32, 0
5, 36660, Note_on_c, 0, 33, 115
5, 36690, Note_on_c, 0, 33, 0
5, 36720, Note_on_c, 0, 35, 115
5, 36840, Note_on_c, 0, 35, 0
5, 36840, Note_on_c, 0, 36, 115
5, 36960, Note_on_c, 0, 36, 0
5, 36960, Note_on_c, 0, 29, 115
5, 37140, Note_on_c, 0, 29, 0
5, 37170, Note_on_c, 0, 29, 115
5, 37200, Note_on_c, 0, 29, 0
5, 37200, Note_on_c, 0, 29, 115
5, 37380, Note_on_c, 0, 29, 0
5, 37440, Note_on_c, 0, 34, 115
5, 37620, Note_on_c, 0, 34, 0
5, 37650, Note_on_c, 0, 34, 115
5, 37680, Note_on_c, 0, 34, 0
5, 37680, Note_on_c, 0, 34, 115
5, 37860, Note_on_c, 0, 34, 0
5, 37920, Note_on_c, 0, 33, 115
5, 38100, Note_on_c, 0, 33, 0
5, 38130, Note_on_c, 0, 33, 115
5, 38160, Note_on_c, 0, 33, 0
5, 38160, Note_on_c, 0, 33, 115
5, 38280, Note_on_c, 0, 33, 0
5, 38280, Note_on_c, 0, 32, 115
5, 38400, Note_on_c, 0, 32, 0
5, 38400, Note_on_c, 0, 30, 115
5, 38580, Note_on_c, 0, 30, 0
5, 38610, Note_on_c, 0, 30, 115
5, 38640, Note_on_c, 0, 30, 0
5, 38640, Note_on_c, 0, 35, 115
5, 38820, Note_on_c, 0, 35, 0
5, 38880, Note_on_c, 0, 41, 115
5, 39240, Note_on_c, 0, 41, 0
5, 39240, Note_on_c, 0, 41, 115
5, 39360, Note_on_c, 0, 41, 0
5, 39360, Note_on_c, 0, 34, 115
5, 39720, Note_on_c, 0, 34, 0
5, 39720, Note_on_c, 0, 34, 115
5, 39840, Note_on_c, 0, 34, 0
5, 39840, Note_on_c, 0, 33, 115
5, 40200, Note_on_c, 0, 33, 0
5, 40200, Note_on_c, 0, 32, 115
5, 40320, Note_on_c, 0, 32, 0
5, 40320, Note_on_c, 0, 30, 115
5, 40560, Note_on_c, 0, 30, 0
5, 40560, Note_on_c, 0, 35, 115
5, 40800, Note_on_c, 0, 35, 0
5, 40800, Note_on_c, 0, 37, 115
5, 40860, Note_on_c, 0, 37, 0
5, 41730, Note_on_c, 0, 33, 115
5, 41790, Note_on_c, 0, 33, 0
5, 42690, Note_on_c, 0, 37, 115
5, 42750, Note_on_c, 0, 37, 0
5, 43650, Note_on_c, 0, 33, 115
5, 43710, Note_on_c, 0, 33, 0
5, 44160, Note_on_c, 0, 30, 115
5, 44280, Note_on_c, 0, 30, 0
5, 44280, Note_on_c, 0, 32, 115
5, 44310, Note_on_c, 0, 32, 0
5, 44340, Note_on_c, 0, 33, 115
5, 44370, Note_on_c, 0, 33, 0
5, 44400, Note_on_c, 0, 35, 115
5, 44520, Note_on_c, 0, 35, 0
5, 44520, Note_on_c, 0, 36, 115
5, 44610, Note_on_c, 0, 36, 0
5, 44610, Note_on_c, 0, 37, 115
5, 44640, Note_on_c, 0, 37, 0
5, 44760, Note_on_c, 0, 37, 115
5, 44790, Note_on_c, 0, 37, 0
5, 44820, Note_on_c, 0, 37, 115
5, 44850, Note_on_c, 0, 37, 0
5, 44880, Note_on_c, 0, 32, 115
5, 45000, Note_on_c, 0, 32, 0
5, 45000, Note_on_c, 0, 35, 115
5, 45090, Note_on_c, 0, 35, 0
5, 45090, Note_on_c, 0, 37, 115
5, 45120, Note_on_c, 0, 37, 0
5, 45240, Note_on_c, 0, 37, 115
5, 45270, Note_on_c, 0, 37, 0
5, 45300, Note_on_c, 0, 37, 115
5, 45330, Note_on_c, 0, 37, 0
5, 45360, Note_on_c, 0, 35, 115
5, 45480, Note_on_c, 0, 35, 0
5, 45480, Note_on_c, 0, 40, 115
5, 45570, Note_on_c, 0, 40, 0
5, 45570, Note_on_c, 0, 33, 115
5, 45600, Note_on_c, 0, 33, 0
5, 45720, Note_on_c, 0, 33, 115
5, 45750, Note_on_c, 0, 33, 0
5, 45780, Note_on_c, 0, 33, 115
5, 45810, Note_on_c, 0, 33, 0
5, 45840, Note_on_c, 0, 32, 115
5, 45960, Note_on_c, 0, 32, 0
5, 45960, Note_on_c, 0, 37, 115
5, 46080, Note_on_c, 0, 37, 0
5, 46080, Note_on_c, 0, 30, 115
5, 46200, Note_on_c, 0, 30, 0
5, 46200, Note_on_c, 0, 32, 115
5, 46230, Note_on_c, 0, 32, 0
5, 46260, Note_on_c, 0, 33, 115
5, 46290, Note_on_c, 0, 33, 0
5, 46320, Note_on_c, 0, 35, 115
5, 46440, Note_on_c, 0, 35, 0
5, 46440, Note_on_c, 0, 36, 115
5, 46530, Note_on_c, 0, 36, 0
5, 46530, Note_on_c, 0, 37, 115
5, 46560, Note_on_c, 0, 37, 0
5, 46680, Note_on_c, 0, 37, 115
5, 46710, Note_on_c, 0, 37, 0
5, 46740, Note_on_c, 0, 37, 115
5, 46770, Note_on_c, 0, 37, 0
5, 46800, Note_on_c, 0, 32, 115
5, 46920, Note_on_c, 0, 32, 0
5, 46920, Note_on_c, 0, 35, 115
5, 47010, Note_on_c, 0, 35, 0
5, 47010, Note_on_c, 0, 37, 115
5, 47040, Note_on_c, 0, 37, 0
5, 47160, Note_on_c, 0, 37, 115
5, 47190, Note_on_c, 0, 37, 0
5, 47220, Note_on_c, 0, 37, 115
5, 47250, Note_on_c, 0, 37, 0
5, 47280, Note_on_c, 0, 35, 115
5, 47400, Note_on_c, 0, 35, 0
5, 47400, Note_on_c, 0, 40, 115
5, 47490, Note_on_c, 0, 40, 0
5, 47490, Note_on_c, 0, 33, 115
5, 47520, Note_on_c, 0, 33, 0
5, 47640, Note_on_c, 0, 33, 115
5, 47670, Note_on_c, 0, 33, 0
5, 47700, Note_on_c, 0, 33, 115
5, 47730, Note_on_c, 0, 33, 0
5, 47760, Note_on_c, 0, 32, 115
5, 47880, Note_on_c, 0, 32, 0
5, 47880, Note_on_c, 0, 37, 115
5, 48000, Note_on_c, 0, 37, 0
5, 48000, Note_on_c, 0, 30, 115
5, 48120, Note_on_c, 0, 30, 0
5, 48120, Note_on_c, 0, 32, 115
5, 48150, Note_on_c, 0, 32, 0
5, 48180, Note_on_c, 0, 33, 115
5, 48210, Note_on_c, 0, 33, 0
5, 48240, Note_on_c, 0, 35, 115
5, 48360, Note_on_c, 0, 35, 0
5, 48360, Note_on_c, 0, 36, 115
5, 48450, Note_on_c, 0, 36, 0
5, 48450, Note_on_c, 0, 37, 115
5, 48480, Note_on_c, 0, 37, 0
5, 48600, Note_on_c, 0, 37, 115
5, 48630, Note_on_c, 0, 37, 0
5, 48660, Note_on_c, 0, 37, 115
5, 48690, Note_on_c, 0, 37, 0
5, 48720, Note_on_c, 0, 32, 115
5, 48840, Note_on_c, 0, 32, 0
5, 48840, Note_on_c, 0, 35, 115
5, 48930, Note_on_c, 0, 35, 0
5, 48930, Note_on_c, 0, 37, 115
5, 48960, Note_on_c, 0, 37, 0
5, 49080, Note_on_c, 0, 37, 115
5, 49110, Note_on_c, 0, 37, 0
5, 49140, Note_on_c, 0, 37, 115
5, 49170, Note_on_c, 0, 37, 0
5, 49200, Note_on_c, 0, 35, 115
5, 49320, Note_on_c, 0, 35, 0
5, 49320, Note_on_c, 0, 40, 115
5, 49410, Note_on_c, 0, 40, 0
5, 49410, Note_on_c, 0, 33, 115
5, 49440, Note_on_c, 0, 33, 0
5, 49560, Note_on_c, 0, 33, 115
5, 49590, Note_on_c, 0, 33, 0
5, 49620, Note_on_c, 0, 33, 115
5, 49650, Note_on_c, 0, 33, 0
5, 49680, Note_on_c, 0, 32, 115
5, 49800, Note_on_c, 0, 32, 0
5, 49800, Note_on_c, 0, 37, 115
5, 49920, Note_on_c, 0, 37, 0
5, 49920, Note_on_c, 0, 30, 115
5, 50040, Note_on_c, 0, 30, 0
5, 50040, Note_on_c, 0, 32, 115
5, 50070, Note_on_c, 0, 32, 0
5, 50100, Note_on_c, 0, 33, 115
5, 50130, Note_on_c, 0, 33, 0
5, 50160, Note_on_c, 0, 35, 115
5, 50280, Note_on_c, 0, 35, 0
5, 50280, Note_on_c, 0, 36, 115
5, 50370, Note_on_c, 0, 36, 0
5, 50370, Note_on_c, 0, 37, 115
5, 50400, Note_on_c, 0, 37, 0
5, 50520, Note_on_c, 0, 37, 115
5, 50550, Note_on_c, 0, 37, 0
5, 50580, Note_on_c, 0, 37, 115
5, 50610, Note_on_c, 0, 37, 0
5, 50640, Note_on_c, 0, 32, 115
5, 50760, Note_on_c, 0, 32, 0
5, 50760, Note_on_c, 0, 35, 115
5, 50850, Note_on_c, 0, 35, 0
5, 50850, Note_on_c, 0, 37, 115
5, 50880, Note_on_c, 0, 37, 0
5, 51000, Note_on_c, 0, 37, 115
5, 51030, Note_on_c, 0, 37, 0
5, 51060, Note_on_c, 0, 37, 115
5, 51090, Note_on_c, 0, 37, 0
5, 51120, Note_on_c, 0, 35, 115
5, 51240, Note_on_c, 0, 35, 0
5, 51240, Note_on_c, 0, 40, 115
5, 51330, Note_on_c, 0, 40, 0
5, 51330, Note_on_c, 0, 33, 115
5, 51360, Note_on_c, 0, 33, 0
5, 51480, Note_on_c, 0, 33, 115
5, 51510, Note_on_c, 0, 33, 0
5, 51540, Note_on_c, 0, 33, 115
5, 51570, Note_on_c, 0, 33, 0
5, 51600, Note_on_c, 0, 32, 115
5, 51720, Note_on_c, 0, 32, 0
5, 51720, Note_on_c, 0, 37, 115
5, 51840, Note_on_c, 0, 37, 0
5, 51840, Note_on_c, 0, 30, 115
5, 51960, Note_on_c, 0, 30, 0
5, 51960, Note_on_c, 0, 32, 115
5, 51990, Note_on_c, 0, 32, 0
5, 52020, Note_on_c, 0, 33, 115
5, 52050, Note_on_c, 0, 33, 0
5, 52080, Note_on_c, 0, 35, 115
5, 52200, Note_on_c, 0, 35, 0
5, 52200, Note_on_c, 0, 35, 115
5, 52290, Note_on_c, 0, 35, 0
5, 52290, Note_on_c, 0, 37, 115
5, 52320, Note_on_c, 0, 37, 0
5, 52440, Note_on_c, 0, 37, 115
5, 52470, Note_on_c, 0, 37, 0
5, 52500, Note_on_c, 0, 37, 115
5, 52530, Note_on_c, 0, 37, 0
5, 52560, Note_on_c, 0, 32, 115
5, 52680, Note_on_c, 0, 32, 0
5, 52680, Note_on_c, 0, 35, 115
5, 52770, Note_on_c, 0, 35, 0
5, 52770, Note_on_c, 0, 37, 115
5, 52800, Note_on_c, 0, 37, 0
5, 52920, Note_on_c, 0, 37, 115
5, 52950, Note_on_c, 0, 37, 0
5, 52980, Note_on_c, 0, 37, 115
5, 53010, Note_on_c, 0, 37, 0
5, 53040, Note_on_c, 0, 35, 115
5, 53160, Note_on_c, 0, 35, 0
5, 53160, Note_on_c, 0, 40, 115
5, 53250, Note_on_c, 0, 40, 0
5, 53250, Note_on_c, 0, 33, 115
5, 53280, Note_on_c, 0, 33, 0
5, 53400, Note_on_c, 0, 33, 115
5, 53430, Note_on_c, 0, 33, 0
5, 53460, Note_on_c, 0, 33, 115
5, 53490, Note_on_c, 0, 33, 0
5, 53520, Note_on_c, 0, 32, 115
5, 53640, Note_on_c, 0, 32, 0
5, 53640, Note_on_c, 0, 37, 115
5, 53760, Note_on_c, 0, 37, 0
5, 53760, Note_on_c, 0, 30, 115
5, 53880, Note_on_c, 0, 30, 0
5, 53880, Note_on_c, 0, 32, 115
5, 53910, Note_on_c, 0, 32, 0
5, 53940, Note_on_c, 0, 33, 115
5, 53970, Note_on_c, 0, 33, 0
5, 54000, Note_on_c, 0, 35, 115
5, 54120, Note_on_c, 0, 35, 0
5, 54120, Note_on_c, 0, 36, 115
5, 54210, Note_on_c, 0, 36, 0
5, 54210, Note_on_c, 0, 37, 115
5, 54240, Note_on_c, 0, 37, 0
5, 54360, Note_on_c, 0, 37, 115
5, 54390, Note_on_c, 0, 37, 0
5, 54420, Note_on_c, 0, 37, 115
5, 54450, Note_on_c, 0, 37, 0
5, 54480, Note_on_c, 0, 32, 115
5, 54600, Note_on_c, 0, 32, 0
5, 54600, Note_on_c, 0, 35, 115
5, 54690, Note_on_c, 0, 35, 0
5, 54690, Note_on_c, 0, 37, 115
5, 54720, Note_on_c, 0, 37, 0
5, 54840, Note_on_c, 0, 37, 115
5, 54870, Note_on_c, 0, 37, 0
5, 54900, Note_on_c, 0, 37, 115
5, 54930, Note_on_c, 0, 37, 0
5, 54960, Note_on_c, 0, 35, 115
5, 55080, Note_on_c, 0, 35, 0
5, 55080, Note_on_c, 0, 40, 115
5, 55170, Note_on_c, 0, 40, 0
5, 55170, Note_on_c, 0, 33, 115
5, 55200, Note_on_c, 0, 33, 0
5, 55320, Note_on_c, 0, 33, 115
5, 55350, Note_on_c, 0, 33, 0
5, 55380, Note_on_c, 0, 33, 115
5, 55410, Note_on_c, 0, 33, 0
5, 55440, Note_on_c, 0, 32, 115
5, 55560, Note_on_c, 0, 32, 0
5, 55560, Note_on_c, 0, 37, 115
5, 55680, Note_on_c, 0, 37, 0
5, 55680, Note_on_c, 0, 30, 115
5, 55800, Note_on_c, 0, 30, 0
5, 55800, Note_on_c, 0, 32, 115
5, 55830, Note_on_c, 0, 32, 0
5, 55860, Note_on_c, 0, 33, 115
5, 55890, Note_on_c, 0, 33, 0
5, 55920, Note_on_c, 0, 35, 115
5, 56040, Note_on_c, 0, 35, 0
5, 56040, Note_on_c, 0, 39, 115
5, 56130, Note_on_c, 0, 39, 0
5, 56130, Note_on_c, 0, 40, 115
5, 56160, Note_on_c, 0, 40, 0
5, 56160, End_track
6, 0, Start_track
6, 0, MIDI_port, 0
6, 0, Title_t, "devian@ix.netcom.com"
6, 0, Program_c, 2, 27
6, 0, Control_c, 2, 7, 80
6, 0, Control_c, 2, 10, 45
6, 480, Control_c, 2, 121, 0
6, 480, Control_c, 2, 1, 10
6, 480, Control_c, 2, 91, 70
6, 480, Control_c, 2, 93, 40
6, 3330, Note_on_c, 2, 59, 100
6, 3330, Note_on_c, 2, 64, 100
6, 3330, Note_on_c, 2, 68, 100
6, 3840, Note_on_c, 2, 68, 0
6, 3840, Note_on_c, 2, 64, 0
6, 3840, Note_on_c, 2, 59, 0
6, 3840, Note_on_c, 2, 64, 100
6, 3840, Note_on_c, 2, 61, 100
6, 3840, Note_on_c, 2, 71, 100
6, 4320, Note_on_c, 2, 71, 0
6, 4320, Note_on_c, 2, 61, 0
6, 4320, Note_on_c, 2, 64, 0
6, 6235, Note_on_c, 2, 59, 100
6, 6240, Note_on_c, 2, 64, 100
6, 6245, Note_on_c, 2, 68, 100
6, 7195, Note_on_c, 2, 59, 0
6, 7200, Note_on_c, 2, 64, 0
6, 7205, Note_on_c, 2, 68, 0
6, 7558, Pitch_bend_c, 2, 8448
6, 7560, Note_on_c, 2, 59, 100
6, 7560, Note_on_c, 2, 64, 100
6, 7563, Pitch_bend_c, 2, 8320
6, 7566, Pitch_bend_c, 2, 8448
6, 7570, Pitch_bend_c, 2, 8576
6, 7573, Pitch_bend_c, 2, 8704
6, 7575, Pitch_bend_c, 2, 8832
6, 7576, Pitch_bend_c, 2, 9088
6, 7578, Pitch_bend_c, 2, 9216
6, 7580, Pitch_bend_c, 2, 9472
6, 7583, Pitch_bend_c, 2, 9856
6, 7585, Pitch_bend_c, 2, 10112
6, 7586, Pitch_bend_c, 2, 10240
6, 7588, Pitch_bend_c, 2, 10752
6, 7590, Pitch_bend_c, 2, 11392
6, 7591, Pitch_bend_c, 2, 11520
6, 7593, Pitch_bend_c, 2, 12032
6, 7595, Pitch_bend_c, 2, 12288
6, 7596, Pitch_bend_c, 2, 13056
6, 7598, Pitch_bend_c, 2, 13440
6, 7600, Pitch_bend_c, 2, 13696
6, 7601, Pitch_bend_c, 2, 14208
6, 7605, Pitch_bend_c, 2, 14848
6, 7606, Pitch_bend_c, 2, 15360
6, 7608, Pitch_bend_c, 2, 15872
6, 7610, Pitch_bend_c, 2, 16383
6, 7680, Note_on_c, 2, 64, 0
6, 7680, Note_on_c, 2, 59, 0
6, 7680, Note_on_c, 2, 59, 100
6, 7680, Note_on_c, 2, 63, 100
6, 7680, Pitch_bend_c, 2, 8192
6, 8155, Note_on_c, 2, 59, 100
6, 8160, Note_on_c, 2, 63, 0
6, 8160, Note_on_c, 2, 59, 0
6, 8160, Note_on_c, 2, 64, 100
6, 8165, Note_on_c, 2, 68, 100
6, 8630, Note_on_c, 2, 56, 100
6, 8635, Note_on_c, 2, 59, 0
6, 8635, Note_on_c, 2, 61, 100
6, 8640, Note_on_c, 2, 64, 0
6, 8640, Note_on_c, 2, 64, 100
6, 8645, Note_on_c, 2, 68, 0
6, 8645, Note_on_c, 2, 68, 100
6, 9110, Note_on_c, 2, 56, 0
6, 9115, Note_on_c, 2, 61, 0
6, 9120, Note_on_c, 2, 64, 0
6, 9120, Note_on_c, 2, 64, 100
6, 9120, Note_on_c, 2, 59, 100
6, 9120, Note_on_c, 2, 68, 100
6, 9125, Note_on_c, 2, 68, 0
6, 9600, Note_on_c, 2, 64, 0
6, 9600, Note_on_c, 2, 59, 0
6, 9600, Note_on_c, 2, 68, 0
6, 9600, Note_on_c, 2, 68, 100
6, 9600, Note_on_c, 2, 64, 100
6, 9600, Note_on_c, 2, 71, 100
6, 9840, Note_on_c, 2, 71, 0
6, 9840, Note_on_c, 2, 64, 0
6, 9840, Note_on_c, 2, 68, 0
6, 10050, Control_c, 2, 7, 80
6, 10050, Control_c, 2, 91, 40
6, 10050, Program_c, 2, 28
6, 10050, Note_on_c, 2, 66, 100
6, 10070, Note_on_c, 2, 66, 0
6, 10110, Note_on_c, 2, 64, 100
6, 10130, Note_on_c, 2, 64, 0
6, 10140, Note_on_c, 2, 61, 100
6, 10160, Note_on_c, 2, 61, 0
6, 10170, Note_on_c, 2, 59, 100
6, 10190, Note_on_c, 2, 59, 0
6, 10200, Note_on_c, 2, 64, 100
6, 10220, Note_on_c, 2, 64, 0
6, 10230, Note_on_c, 2, 64, 100
6, 10250, Note_on_c, 2, 64, 0
6, 10380, Note_on_c, 2, 59, 100
6, 10400, Note_on_c, 2, 59, 0
6, 10410, Note_on_c, 2, 59, 100
6, 10430, Note_on_c, 2, 59, 0
6, 10470, Note_on_c, 2, 59, 100
6, 10490, Note_on_c, 2, 59, 0
6, 10530, Note_on_c, 2, 68, 100
6, 10550, Note_on_c, 2, 68, 0
6, 10590, Note_on_c, 2, 64, 100
6, 10610, Note_on_c, 2, 64, 0
6, 10620, Note_on_c, 2, 61, 100
6, 10640, Note_on_c, 2, 61, 0
6, 10650, Note_on_c, 2, 59, 100
6, 10670, Note_on_c, 2, 59, 0
6, 10680, Note_on_c, 2, 64, 100
6, 10700, Note_on_c, 2, 64, 0
6, 10710, Note_on_c, 2, 64, 100
6, 10730, Note_on_c, 2, 64, 0
6, 10860, Note_on_c, 2, 59, 100
6, 10880, Note_on_c, 2, 59, 0
6, 10890, Note_on_c, 2, 59, 100
6, 10910, Note_on_c, 2, 59, 0
6, 10950, Note_on_c, 2, 59, 100
6, 10970, Note_on_c, 2, 59, 0
6, 11010, Note_on_c, 2, 68, 100
6, 11030, Note_on_c, 2, 68, 0
6, 11070, Note_on_c, 2, 64, 100
6, 11090, Note_on_c, 2, 64, 0
6, 11100, Note_on_c, 2, 61, 100
6, 11120, Note_on_c, 2, 61, 0
6, 11130, Note_on_c, 2, 59, 100
6, 11150, Note_on_c, 2, 59, 0
6, 11160, Note_on_c, 2, 64, 100
6, 11180, Note_on_c, 2, 64, 0
6, 11190, Note_on_c, 2, 64, 100
6, 11210, Note_on_c, 2, 64, 0
6, 11340, Note_on_c, 2, 59, 100
6, 11360, Note_on_c, 2, 59, 0
6, 11370, Note_on_c, 2, 59, 100
6, 11390, Note_on_c, 2, 59, 0
6, 11430, Note_on_c, 2, 59, 100
6, 11450, Note_on_c, 2, 59, 0
6, 11520, Note_on_c, 2, 69, 100
6, 11640, Note_on_c, 2, 69, 0
6, 11640, Note_on_c, 2, 64, 100
6, 11640, Note_on_c, 2, 68, 100
6, 11670, Note_on_c, 2, 68, 0
6, 11670, Note_on_c, 2, 64, 0
6, 11700, Note_on_c, 2, 61, 100
6, 11700, Note_on_c, 2, 66, 100
6, 11730, Note_on_c, 2, 66, 0
6, 11730, Note_on_c, 2, 61, 0
6, 11760, Note_on_c, 2, 59, 100
6, 11760, Note_on_c, 2, 64, 100
6, 11790, Note_on_c, 2, 64, 0
6, 11790, Note_on_c, 2, 59, 0
6, 11880, Note_on_c, 2, 60, 100
6, 11880, Note_on_c, 2, 63, 100
6, 11970, Note_on_c, 2, 63, 0
6, 11970, Note_on_c, 2, 60, 0
6, 11970, Note_on_c, 2, 68, 100
6, 12000, Note_on_c, 2, 68, 0
6, 12030, Note_on_c, 2, 64, 100
6, 12050, Note_on_c, 2, 64, 0
6, 12060, Note_on_c, 2, 61, 100
6, 12080, Note_on_c, 2, 61, 0
6, 12090, Note_on_c, 2, 59, 100
6, 12110, Note_on_c, 2, 59, 0
6, 12120, Note_on_c, 2, 64, 100
6, 12140, Note_on_c, 2, 64, 0
6, 12150, Note_on_c, 2, 64, 100
6, 12170, Note_on_c, 2, 64, 0
6, 12300, Note_on_c, 2, 59, 100
6, 12320, Note_on_c, 2, 59, 0
6, 12330, Note_on_c, 2, 59, 100
6, 12350, Note_on_c, 2, 59, 0
6, 12390, Note_on_c, 2, 59, 100
6, 12410, Note_on_c, 2, 59, 0
6, 12450, Note_on_c, 2, 68, 100
6, 12470, Note_on_c, 2, 68, 0
6, 12510, Note_on_c, 2, 64, 100
6, 12530, Note_on_c, 2, 64, 0
6, 12540, Note_on_c, 2, 61, 100
6, 12560, Note_on_c, 2, 61, 0
6, 12570, Note_on_c, 2, 59, 100
6, 12590, Note_on_c, 2, 59, 0
6, 12600, Note_on_c, 2, 64, 100
6, 12620, Note_on_c, 2, 64, 0
6, 12630, Note_on_c, 2, 64, 100
6, 12650, Note_on_c, 2, 64, 0
6, 12780, Note_on_c, 2, 59, 100
6, 12800, Note_on_c, 2, 59, 0
6, 12810, Note_on_c, 2, 59, 100
6, 12830, Note_on_c, 2, 59, 0
6, 12870, Note_on_c, 2, 59, 100
6, 12890, Note_on_c, 2, 59, 0
6, 12930, Note_on_c, 2, 68, 100
6, 12950, Note_on_c, 2, 68, 0
6, 12990, Note_on_c, 2, 64, 100
6, 13010, Note_on_c, 2, 64, 0
6, 13020, Note_on_c, 2, 61, 100
6, 13040, Note_on_c, 2, 61, 0
6, 13050, Note_on_c, 2, 59, 100
6, 13070, Note_on_c, 2, 59, 0
6, 13080, Note_on_c, 2, 64, 100
6, 13100, Note_on_c, 2, 64, 0
6, 13110, Note_on_c, 2, 64, 100
6, 13130, Note_on_c, 2, 64, 0
6, 13260, Note_on_c, 2, 59, 100
6, 13280, Note_on_c, 2, 59, 0
6, 13290, Note_on_c, 2, 59, 100
6, 13310, Note_on_c, 2, 59, 0
6, 13350, Note_on_c, 2, 59, 100
6, 13370, Note_on_c, 2, 59, 0
6, 13440, Note_on_c, 2, 69, 100
6, 13560, Note_on_c, 2, 69, 0
6, 13560, Note_on_c, 2, 64, 100
6, 13560, Note_on_c, 2, 68, 100
6, 13590, Note_on_c, 2, 68, 0
6, 13590, Note_on_c, 2, 64, 0
6, 13620, Note_on_c, 2, 61, 100
6, 13620, Note_on_c, 2, 66, 100
6, 13650, Note_on_c, 2, 66, 0
6, 13650, Note_on_c, 2, 61, 0
6, 13680, Note_on_c, 2, 59, 100
6, 13680, Note_on_c, 2, 64, 100
6, 13710, Note_on_c, 2, 64, 0
6, 13710, Note_on_c, 2, 59, 0
6, 13800, Note_on_c, 2, 60, 100
6, 13800, Note_on_c, 2, 63, 100
6, 13890, Note_on_c, 2, 63, 0
6, 13890, Note_on_c, 2, 60, 0
6, 13890, Note_on_c, 2, 68, 100
6, 13920, Note_on_c, 2, 68, 0
6, 13920, Program_c, 2, 27
6, 14880, Note_on_c, 2, 63, 100
6, 14880, Note_on_c, 2, 59, 100
6, 14880, Note_on_c, 2, 54, 100
6, 15356, Pitch_bend_c, 2, 8448
6, 15360, Note_on_c, 2, 54, 0
6, 15360, Note_on_c, 2, 59, 0
6, 15360, Note_on_c, 2, 63, 0
6, 15360, Note_on_c, 2, 64, 100
6, 15360, Note_on_c, 2, 61, 100
6, 15360, Pitch_bend_c, 2, 8320
6, 15368, Pitch_bend_c, 2, 8448
6, 15370, Pitch_bend_c, 2, 8704
6, 15371, Pitch_bend_c, 2, 8832
6, 15373, Pitch_bend_c, 2, 9088
6, 15375, Pitch_bend_c, 2, 9344
6, 15376, Pitch_bend_c, 2, 9472
6, 15380, Pitch_bend_c, 2, 9728
6, 15383, Pitch_bend_c, 2, 9856
6, 15385, Pitch_bend_c, 2, 9984
6, 15388, Pitch_bend_c, 2, 10112
6, 15391, Pitch_bend_c, 2, 10368
6, 15393, Pitch_bend_c, 2, 10624
6, 15395, Pitch_bend_c, 2, 10752
6, 15396, Pitch_bend_c, 2, 11008
6, 15398, Pitch_bend_c, 2, 11136
6, 15400, Pitch_bend_c, 2, 11264
6, 15401, Pitch_bend_c, 2, 11392
6, 15403, Pitch_bend_c, 2, 11648
6, 15406, Pitch_bend_c, 2, 11904
6, 15410, Pitch_bend_c, 2, 12288
6, 15411, Pitch_bend_c, 2, 12416
6, 15413, Pitch_bend_c, 2, 12672
6, 15415, Pitch_bend_c, 2, 12928
6, 15418, Pitch_bend_c, 2, 13312
6, 15421, Pitch_bend_c, 2, 13696
6, 15425, Pitch_bend_c, 2, 13952
6, 15426, Pitch_bend_c, 2, 14080
6, 15428, Pitch_bend_c, 2, 14208
6, 15430, Pitch_bend_c, 2, 14336
6, 15431, Pitch_bend_c, 2, 14464
6, 15433, Pitch_bend_c, 2, 14720
6, 15435, Pitch_bend_c, 2, 14976
6, 15436, Pitch_bend_c, 2, 15232
6, 15440, Pitch_bend_c, 2, 15488
6, 15441, Pitch_bend_c, 2, 15744
6, 15443, Pitch_bend_c, 2, 15872
6, 15445, Pitch_bend_c, 2, 16128
6, 15448, Pitch_bend_c, 2, 16383
6, 15596, Pitch_bend_c, 2, 8192
6, 15600, Note_on_c, 2, 61, 0
6, 15600, Note_on_c, 2, 64, 0
6, 15600, Note_on_c, 2, 59, 100
6, 15600, Note_on_c, 2, 63, 100
6, 15840, Note_on_c, 2, 63, 0
6, 15840, Note_on_c, 2, 59, 0
6, 15840, Note_on_c, 2, 54, 100
6, 15840, Note_on_c, 2, 59, 100
6, 15840, Note_on_c, 2, 64, 100
6, 16320, Note_on_c, 2, 64, 0
6, 16320, Note_on_c, 2, 59, 0
6, 16320, Note_on_c, 2, 54, 0
6, 17160, Note_on_c, 2, 71, 100
6, 17160, Note_on_c, 2, 75, 100
6, 17250, Note_on_c, 2, 75, 0
6, 17250, Note_on_c, 2, 71, 0
6, 17250, Note_on_c, 2, 71, 100
6, 17250, Note_on_c, 2, 75, 100
6, 17280, Note_on_c, 2, 75, 0
6, 17280, Note_on_c, 2, 71, 0
6, 17400, Note_on_c, 2, 68, 100
6, 17400, Note_on_c, 2, 73, 100
6, 17400, Note_on_c, 2, 64, 100
6, 17490, Note_on_c, 2, 64, 0
6, 17490, Note_on_c, 2, 73, 0
6, 17490, Note_on_c, 2, 68, 0
6, 17490, Note_on_c, 2, 73, 100
6, 17490, Note_on_c, 2, 64, 100
6, 17490, Note_on_c, 2, 68, 100
6, 17520, Note_on_c, 2, 68, 0
6, 17520, Note_on_c, 2, 64, 0
6, 17520, Note_on_c, 2, 73, 0
6, 17760, Note_on_c, 2, 64, 100
6, 17760, Note_on_c, 2, 68, 100
6, 17760, Note_on_c, 2, 59, 100
6, 18240, Note_on_c, 2, 59, 0
6, 18240, Note_on_c, 2, 68, 0
6, 18240, Note_on_c, 2, 64, 0
6, 18240, Note_on_c, 2, 56, 100
6, 18240, Note_on_c, 2, 68, 100
6, 18240, Note_on_c, 2, 64, 100
6, 18480, Note_on_c, 2, 66, 100
6, 18600, Note_on_c, 2, 66, 0
6, 18600, Note_on_c, 2, 64, 100
6, 18720, Note_on_c, 2, 64, 0
6, 18720, Note_on_c, 2, 64, 0
6, 18720, Note_on_c, 2, 68, 0
6, 18720, Note_on_c, 2, 56, 0
6, 18720, Note_on_c, 2, 64, 100
6, 18720, Note_on_c, 2, 59, 100
6, 18720, Note_on_c, 2, 68, 100
6, 19200, Note_on_c, 2, 68, 0
6, 19200, Note_on_c, 2, 59, 0
6, 19200, Note_on_c, 2, 64, 0
6, 19200, Note_on_c, 2, 68, 100
6, 19200, Note_on_c, 2, 64, 100
6, 19200, Note_on_c, 2, 71, 100
6, 19440, Note_on_c, 2, 71, 0
6, 19440, Note_on_c, 2, 64, 0
6, 19440, Note_on_c, 2, 68, 0
6, 19650, Control_c, 2, 7, 80
6, 19650, Control_c, 2, 91, 40
6, 19650, Program_c, 2, 28
6, 19650, Note_on_c, 2, 66, 100
6, 19670, Note_on_c, 2, 66, 0
6, 19710, Note_on_c, 2, 64, 100
6, 19730, Note_on_c, 2, 64, 0
6, 19740, Note_on_c, 2, 61, 100
6, 19760, Note_on_c, 2, 61, 0
6, 19770, Note_on_c, 2, 59, 100
6, 19790, Note_on_c, 2, 59, 0
6, 19800, Note_on_c, 2, 64, 100
6, 19820, Note_on_c, 2, 64, 0
6, 19830, Note_on_c, 2, 64, 100
6, 19850, Note_on_c, 2, 64, 0
6, 19980, Note_on_c, 2, 59, 100
6, 20000, Note_on_c, 2, 59, 0
6, 20010, Note_on_c, 2, 59, 100
6, 20030, Note_on_c, 2, 59, 0
6, 20070, Note_on_c, 2, 59, 100
6, 20090, Note_on_c, 2, 59, 0
6, 20130, Note_on_c, 2, 68, 100
6, 20150, Note_on_c, 2, 68, 0
6, 20190, Note_on_c, 2, 64, 100
6, 20210, Note_on_c, 2, 64, 0
6, 20220, Note_on_c, 2, 61, 100
6, 20240, Note_on_c, 2, 61, 0
6, 20250, Note_on_c, 2, 59, 100
6, 20270, Note_on_c, 2, 59, 0
6, 20280, Note_on_c, 2, 64, 100
6, 20300, Note_on_c, 2, 64, 0
6, 20310, Note_on_c, 2, 64, 100
6, 20330, Note_on_c, 2, 64, 0
6, 20460, Note_on_c, 2, 59, 100
6, 20480, Note_on_c, 2, 59, 0
6, 20490, Note_on_c, 2, 59, 100
6, 20510, Note_on_c, 2, 59, 0
6, 20550, Note_on_c, 2, 59, 100
6, 20570, Note_on_c, 2, 59, 0
6, 20610, Note_on_c, 2, 68, 100
6, 20630, Note_on_c, 2, 68, 0
6, 20670, Note_on_c, 2, 64, 100
6, 20690, Note_on_c, 2, 64, 0
6, 20700, Note_on_c, 2, 61, 100
6, 20720, Note_on_c, 2, 61, 0
6, 20730, Note_on_c, 2, 59, 100
6, 20750, Note_on_c, 2, 59, 0
6, 20760, Note_on_c, 2, 64, 100
6, 20780, Note_on_c, 2, 64, 0
6, 20790, Note_on_c, 2, 64, 100
6, 20810, Note_on_c, 2, 64, 0
6, 20940, Note_on_c, 2, 59, 100
6, 20960, Note_on_c, 2, 59, 0
6, 20970, Note_on_c, 2, 59, 100
6, 20990, Note_on_c, 2, 59, 0
6, 21030, Note_on_c, 2, 59, 100
6, 21050, Note_on_c, 2, 59, 0
6, 21120, Note_on_c, 2, 69, 100
6, 21240, Note_on_c, 2, 69, 0
6, 21240, Note_on_c, 2, 64, 100
6, 21240, Note_on_c, 2, 68, 100
6, 21270, Note_on_c, 2, 68, 0
6, 21270, Note_on_c, 2, 64, 0
6, 21300, Note_on_c, 2, 61, 100
6, 21300, Note_on_c, 2, 66, 100
6, 21330, Note_on_c, 2, 66, 0
6, 21330, Note_on_c, 2, 61, 0
6, 21360, Note_on_c, 2, 59, 100
6, 21360, Note_on_c, 2, 64, 100
6, 21390, Note_on_c, 2, 64, 0
6, 21390, Note_on_c, 2, 59, 0
6, 21480, Note_on_c, 2, 60, 100
6, 21480, Note_on_c, 2, 63, 100
6, 21570, Note_on_c, 2, 63, 0
6, 21570, Note_on_c, 2, 60, 0
6, 21570, Note_on_c, 2, 68, 100
6, 21600, Note_on_c, 2, 68, 0
6, 21630, Note_on_c, 2, 64, 100
6, 21650, Note_on_c, 2, 64, 0
6, 21660, Note_on_c, 2, 61, 100
6, 21680, Note_on_c, 2, 61, 0
6, 21690, Note_on_c, 2, 59, 100
6, 21710, Note_on_c, 2, 59, 0
6, 21720, Note_on_c, 2, 64, 100
6, 21740, Note_on_c, 2, 64, 0
6, 21750, Note_on_c, 2, 64, 100
6, 21770, Note_on_c, 2, 64, 0
6, 21900, Note_on_c, 2, 59, 100
6, 21920, Note_on_c, 2, 59, 0
6, 21930, Note_on_c, 2, 59, 100
6, 21950, Note_on_c, 2, 59, 0
6, 21990, Note_on_c, 2, 59, 100
6, 22010, Note_on_c, 2, 59, 0
6, 22050, Note_on_c, 2, 68, 100
6, 22070, Note_on_c, 2, 68, 0
6, 22110, Note_on_c, 2, 64, 100
6, 22130, Note_on_c, 2, 64, 0
6, 22140, Note_on_c, 2, 61, 100
6, 22160, Note_on_c, 2, 61, 0
6, 22170, Note_on_c, 2, 59, 100
6, 22190, Note_on_c, 2, 59, 0
6, 22200, Note_on_c, 2, 64, 100
6, 22220, Note_on_c, 2, 64, 0
6, 22230, Note_on_c, 2, 64, 100
6, 22250, Note_on_c, 2, 64, 0
6, 22380, Note_on_c, 2, 59, 100
6, 22400, Note_on_c, 2, 59, 0
6, 22410, Note_on_c, 2, 59, 100
6, 22430, Note_on_c, 2, 59, 0
6, 22470, Note_on_c, 2, 59, 100
6, 22490, Note_on_c, 2, 59, 0
6, 22530, Note_on_c, 2, 68, 100
6, 22550, Note_on_c, 2, 68, 0
6, 22590, Note_on_c, 2, 64, 100
6, 22610, Note_on_c, 2, 64, 0
6, 22620, Note_on_c, 2, 61, 100
6, 22640, Note_on_c, 2, 61, 0
6, 22650, Note_on_c, 2, 59, 100
6, 22670, Note_on_c, 2, 59, 0
6, 22680, Note_on_c, 2, 64, 100
6, 22700, Note_on_c, 2, 64, 0
6, 22710, Note_on_c, 2, 64, 100
6, 22730, Note_on_c, 2, 64, 0
6, 22860, Note_on_c, 2, 59, 100
6, 22880, Note_on_c, 2, 59, 0
6, 22890, Note_on_c, 2, 59, 100
6, 22910, Note_on_c, 2, 59, 0
6, 22950, Note_on_c, 2, 59, 100
6, 22970, Note_on_c, 2, 59, 0
6, 23040, Note_on_c, 2, 69, 100
6, 23160, Note_on_c, 2, 69, 0
6, 23160, Note_on_c, 2, 64, 100
6, 23160, Note_on_c, 2, 68, 100
6, 23190, Note_on_c, 2, 68, 0
6, 23190, Note_on_c, 2, 64, 0
6, 23220, Note_on_c, 2, 61, 100
6, 23220, Note_on_c, 2, 66, 100
6, 23250, Note_on_c, 2, 66, 0
6, 23250, Note_on_c, 2, 61, 0
6, 23280, Note_on_c, 2, 59, 100
6, 23280, Note_on_c, 2, 64, 100
6, 23310, Note_on_c, 2, 64, 0
6, 23310, Note_on_c, 2, 59, 0
6, 23400, Note_on_c, 2, 60, 100
6, 23400, Note_on_c, 2, 63, 100
6, 23490, Note_on_c, 2, 63, 0
6, 23490, Note_on_c, 2, 60, 0
6, 24000, Note_on_c, 2, 58, 100
6, 24000, Note_on_c, 2, 56, 100
6, 24000, Program_c, 2, 27
6, 24000, Note_on_c, 2, 61, 100
6, 24480, Note_on_c, 2, 61, 0
6, 24480, Note_on_c, 2, 56, 0
6, 24480, Note_on_c, 2, 58, 0
6, 24480, Note_on_c, 2, 69, 100
6, 24480, Note_on_c, 2, 73, 100
6, 24600, Note_on_c, 2, 73, 0
6, 24600, Note_on_c, 2, 69, 0
6, 24600, Note_on_c, 2, 59, 100
6, 24600, Note_on_c, 2, 64, 100
6, 24600, Note_on_c, 2, 68, 100
6, 24840, Note_on_c, 2, 68, 0
6, 24840, Note_on_c, 2, 64, 0
6, 24840, Note_on_c, 2, 59, 0
6, 24840, Note_on_c, 2, 61, 100
6, 24840, Note_on_c, 2, 66, 100
6, 24960, Note_on_c, 2, 66, 0
6, 24960, Note_on_c, 2, 61, 0
6, 24960, Note_on_c, 2, 56, 100
6, 24960, Note_on_c, 2, 59, 100
6, 24960, Note_on_c, 2, 64, 100
6, 25200, Note_on_c, 2, 64, 0
6, 25200, Note_on_c, 2, 59, 0
6, 25200, Note_on_c, 2, 56, 0
6, 25920, Note_on_c, 2, 65, 100
6, 25920, Note_on_c, 2, 61, 100
6, 25920, Note_on_c, 2, 70, 100
6, 26400, Note_on_c, 2, 70, 0
6, 26400, Note_on_c, 2, 61, 0
6, 26400, Note_on_c, 2, 65, 0
6, 26400, Note_on_c, 2, 71, 100
6, 26400, Note_on_c, 2, 76, 100
6, 26520, Note_on_c, 2, 76, 0
6, 26520, Note_on_c, 2, 71, 0
6, 26520, Note_on_c, 2, 68, 100
6, 26520, Note_on_c, 2, 73, 100
6, 26880, Note_on_c, 2, 73, 0
6, 26880, Note_on_c, 2, 68, 0
6, 27360, Program_c, 2, 27
6, 28320, Note_on_c, 2, 63, 100
6, 28320, Note_on_c, 2, 59, 100
6, 28320, Note_on_c, 2, 54, 100
6, 28796, Pitch_bend_c, 2, 8448
6, 28800, Note_on_c, 2, 54, 0
6, 28800, Note_on_c, 2, 59, 0
6, 28800, Note_on_c, 2, 63, 0
6, 28800, Note_on_c, 2, 64, 100
6, 28800, Note_on_c, 2, 61, 100
6, 28800, Pitch_bend_c, 2, 8320
6, 28808, Pitch_bend_c, 2, 8448
6, 28810, Pitch_bend_c, 2, 8704
6, 28811, Pitch_bend_c, 2, 8832
6, 28813, Pitch_bend_c, 2, 9088
6, 28815, Pitch_bend_c, 2, 9344
6, 28816, Pitch_bend_c, 2, 9472
6, 28820, Pitch_bend_c, 2, 9728
6, 28823, Pitch_bend_c, 2, 9856
6, 28825, Pitch_bend_c, 2, 9984
6, 28828, Pitch_bend_c, 2, 10112
6, 28831, Pitch_bend_c, 2, 10368
6, 28833, Pitch_bend_c, 2, 10624
6, 28835, Pitch_bend_c, 2, 10752
6, 28836, Pitch_bend_c, 2, 11008
6, 28838, Pitch_bend_c, 2, 11136
6, 28840, Pitch_bend_c, 2, 11264
6, 28841, Pitch_bend_c, 2, 11392
6, 28843, Pitch_bend_c, 2, 11648
6, 28846, Pitch_bend_c, 2, 11904
6, 28850, Pitch_bend_c, 2, 12288
6, 28851, Pitch_bend_c, 2, 12416
6, 28853, Pitch_bend_c, 2, 12672
6, 28855, Pitch_bend_c, 2, 12928
6, 28858, Pitch_bend_c, 2, 13312
6, 28861, Pitch_bend_c, 2, 13696
6, 28865, Pitch_bend_c, 2, 13952
6, 28866, Pitch_bend_c, 2, 14080
6, 28868, Pitch_bend_c, 2, 14208
6, 28870, Pitch_bend_c, 2, 14336
6, 28871, Pitch_bend_c, 2, 14464
6, 28873, Pitch_bend_c, 2, 14720
6, 28875, Pitch_bend_c, 2, 14976
6, 28876, Pitch_bend_c, 2, 15232
6, 28880, Pitch_bend_c, 2, 15488
6, 28881, Pitch_bend_c, 2, 15744
6, 28883, Pitch_bend_c, 2, 15872
6, 28885, Pitch_bend_c, 2, 16128
6, 28888, Pitch_bend_c, 2, 16383
6, 29036, Pitch_bend_c, 2, 8192
6, 29040, Note_on_c, 2, 61, 0
6, 29040, Note_on_c, 2, 64, 0
6, 29040, Note_on_c, 2, 59, 100
6, 29040, Note_on_c, 2, 63, 100
6, 29280, Note_on_c, 2, 63, 0
6, 29280, Note_on_c, 2, 59, 0
6, 29280, Note_on_c, 2, 54, 100
6, 29280, Note_on_c, 2, 59, 100
6, 29280, Note_on_c, 2, 64, 100
6, 29760, Note_on_c, 2, 64, 0
6, 29760, Note_on_c, 2, 59, 0
6, 29760, Note_on_c, 2, 54, 0
6, 30600, Note_on_c, 2, 71, 100
6, 30600, Note_on_c, 2, 75, 100
6, 30690, Note_on_c, 2, 75, 0
6, 30690, Note_on_c, 2, 71, 0
6, 30690, Note_on_c, 2, 71, 100
6, 30690, Note_on_c, 2, 75, 100
6, 30720, Note_on_c, 2, 75, 0
6, 30720, Note_on_c, 2, 71, 0
6, 30840, Note_on_c, 2, 68, 100
6, 30840, Note_on_c, 2, 73, 100
6, 30840, Note_on_c, 2, 64, 100
6, 30930, Note_on_c, 2, 64, 0
6, 30930, Note_on_c, 2, 73, 0
6, 30930, Note_on_c, 2, 68, 0
6, 30930, Note_on_c, 2, 73, 100
6, 30930, Note_on_c, 2, 64, 100
6, 30930, Note_on_c, 2, 68, 100
6, 30960, Note_on_c, 2, 68, 0
6, 30960, Note_on_c, 2, 64, 0
6, 30960, Note_on_c, 2, 73, 0
6, 31200, Note_on_c, 2, 64, 100
6, 31200, Note_on_c, 2, 68, 100
6, 31200, Note_on_c, 2, 59, 100
6, 31680, Note_on_c, 2, 59, 0
6, 31680, Note_on_c, 2, 68, 0
6, 31680, Note_on_c, 2, 64, 0
6, 31680, Note_on_c, 2, 56, 100
6, 31680, Note_on_c, 2, 68, 100
6, 31680, Note_on_c, 2, 64, 100
6, 31920, Note_on_c, 2, 66, 100
6, 32040, Note_on_c, 2, 66, 0
6, 32040, Note_on_c, 2, 64, 100
6, 32160, Note_on_c, 2, 64, 0
6, 32160, Note_on_c, 2, 64, 0
6, 32160, Note_on_c, 2, 68, 0
6, 32160, Note_on_c, 2, 56, 0
6, 32160, Note_on_c, 2, 64, 100
6, 32160, Note_on_c, 2, 59, 100
6, 32160, Note_on_c, 2, 68, 100
6, 32640, Note_on_c, 2, 68, 0
6, 32640, Note_on_c, 2, 59, 0
6, 32640, Note_on_c, 2, 64, 0
6, 32640, Note_on_c, 2, 68, 100
6, 32640, Note_on_c, 2, 64, 100
6, 32640, Note_on_c, 2, 71, 100
6, 32880, Note_on_c, 2, 71, 0
6, 32880, Note_on_c, 2, 64, 0
6, 32880, Note_on_c, 2, 68, 0
6, 33090, Control_c, 2, 7, 80
6, 33090, Control_c, 2, 91, 40
6, 33090, Program_c, 2, 28
6, 33090, Note_on_c, 2, 66, 100
6, 33110, Note_on_c, 2, 66, 0
6, 33150, Note_on_c, 2, 64, 100
6, 33170, Note_on_c, 2, 64, 0
6, 33180, Note_on_c, 2, 61, 100
6, 33200, Note_on_c, 2, 61, 0
6, 33210, Note_on_c, 2, 59, 100
6, 33230, Note_on_c, 2, 59, 0
6, 33240, Note_on_c, 2, 64, 100
6, 33260, Note_on_c, 2, 64, 0
6, 33270, Note_on_c, 2, 64, 100
6, 33290, Note_on_c, 2, 64, 0
6, 33420, Note_on_c, 2, 59, 100
6, 33440, Note_on_c, 2, 59, 0
6, 33450, Note_on_c, 2, 59, 100
6, 33470, Note_on_c, 2, 59, 0
6, 33510, Note_on_c, 2, 59, 100
6, 33530, Note_on_c, 2, 59, 0
6, 33570, Note_on_c, 2, 68, 100
6, 33590, Note_on_c, 2, 68, 0
6, 33630, Note_on_c, 2, 64, 100
6, 33650, Note_on_c, 2, 64, 0
6, 33660, Note_on_c, 2, 61, 100
6, 33680, Note_on_c, 2, 61, 0
6, 33690, Note_on_c, 2, 59, 100
6, 33710, Note_on_c, 2, 59, 0
6, 33720, Note_on_c, 2, 64, 100
6, 33740, Note_on_c, 2, 64, 0
6, 33750, Note_on_c, 2, 64, 100
6, 33770, Note_on_c, 2, 64, 0
6, 33900, Note_on_c, 2, 59, 100
6, 33920, Note_on_c, 2, 59, 0
6, 33930, Note_on_c, 2, 59, 100
6, 33950, Note_on_c, 2, 59, 0
6, 33990, Note_on_c, 2, 59, 100
6, 34010, Note_on_c, 2, 59, 0
6, 34050, Note_on_c, 2, 68, 100
6, 34070, Note_on_c, 2, 68, 0
6, 34110, Note_on_c, 2, 64, 100
6, 34130, Note_on_c, 2, 64, 0
6, 34140, Note_on_c, 2, 61, 100
6, 34160, Note_on_c, 2, 61, 0
6, 34170, Note_on_c, 2, 59, 100
6, 34190, Note_on_c, 2, 59, 0
6, 34200, Note_on_c, 2, 64, 100
6, 34220, Note_on_c, 2, 64, 0
6, 34230, Note_on_c, 2, 64, 100
6, 34250, Note_on_c, 2, 64, 0
6, 34380, Note_on_c, 2, 59, 100
6, 34400, Note_on_c, 2, 59, 0
6, 34410, Note_on_c, 2, 59, 100
6, 34430, Note_on_c, 2, 59, 0
6, 34470, Note_on_c, 2, 59, 100
6, 34490, Note_on_c, 2, 59, 0
6, 34560, Note_on_c, 2, 69, 100
6, 34680, Note_on_c, 2, 69, 0
6, 34680, Note_on_c, 2, 64, 100
6, 34680, Note_on_c, 2, 68, 100
6, 34710, Note_on_c, 2, 68, 0
6, 34710, Note_on_c, 2, 64, 0
6, 34740, Note_on_c, 2, 61, 100
6, 34740, Note_on_c, 2, 66, 100
6, 34770, Note_on_c, 2, 66, 0
6, 34770, Note_on_c, 2, 61, 0
6, 34800, Note_on_c, 2, 59, 100
6, 34800, Note_on_c, 2, 64, 100
6, 34830, Note_on_c, 2, 64, 0
6, 34830, Note_on_c, 2, 59, 0
6, 34920, Note_on_c, 2, 60, 100
6, 34920, Note_on_c, 2, 63, 100
6, 35010, Note_on_c, 2, 63, 0
6, 35010, Note_on_c, 2, 60, 0
6, 35010, Note_on_c, 2, 68, 100
6, 35040, Note_on_c, 2, 68, 0
6, 35070, Note_on_c, 2, 64, 100
6, 35090, Note_on_c, 2, 64, 0
6, 35100, Note_on_c, 2, 61, 100
6, 35120, Note_on_c, 2, 61, 0
6, 35130, Note_on_c, 2, 59, 100
6, 35150, Note_on_c, 2, 59, 0
6, 35160, Note_on_c, 2, 64, 100
6, 35180, Note_on_c, 2, 64, 0
6, 35190, Note_on_c, 2, 64, 100
6, 35210, Note_on_c, 2, 64, 0
6, 35340, Note_on_c, 2, 59, 100
6, 35360, Note_on_c, 2, 59, 0
6, 35370, Note_on_c, 2, 59, 100
6, 35390, Note_on_c, 2, 59, 0
6, 35430, Note_on_c, 2, 59, 100
6, 35450, Note_on_c, 2, 59, 0
6, 35490, Note_on_c, 2, 68, 100
6, 35510, Note_on_c, 2, 68, 0
6, 35550, Note_on_c, 2, 64, 100
6, 35570, Note_on_c, 2, 64, 0
6, 35580, Note_on_c, 2, 61, 100
6, 35600, Note_on_c, 2, 61, 0
6, 35610, Note_on_c, 2, 59, 100
6, 35630, Note_on_c, 2, 59, 0
6, 35640, Note_on_c, 2, 64, 100
6, 35660, Note_on_c, 2, 64, 0
6, 35670, Note_on_c, 2, 64, 100
6, 35690, Note_on_c, 2, 64, 0
6, 35820, Note_on_c, 2, 59, 100
6, 35840, Note_on_c, 2, 59, 0
6, 35850, Note_on_c, 2, 59, 100
6, 35870, Note_on_c, 2, 59, 0
6, 35910, Note_on_c, 2, 59, 100
6, 35930, Note_on_c, 2, 59, 0
6, 35970, Note_on_c, 2, 68, 100
6, 35990, Note_on_c, 2, 68, 0
6, 36030, Note_on_c, 2, 64, 100
6, 36050, Note_on_c, 2, 64, 0
6, 36060, Note_on_c, 2, 61, 100
6, 36080, Note_on_c, 2, 61, 0
6, 36090, Note_on_c, 2, 59, 100
6, 36110, Note_on_c, 2, 59, 0
6, 36120, Note_on_c, 2, 64, 100
6, 36140, Note_on_c, 2, 64, 0
6, 36150, Note_on_c, 2, 64, 100
6, 36170, Note_on_c, 2, 64, 0
6, 36300, Note_on_c, 2, 59, 100
6, 36320, Note_on_c, 2, 59, 0
6, 36330, Note_on_c, 2, 59, 100
6, 36350, Note_on_c, 2, 59, 0
6, 36390, Note_on_c, 2, 59, 100
6, 36410, Note_on_c, 2, 59, 0
6, 36480, Note_on_c, 2, 69, 100
6, 36600, Note_on_c, 2, 69, 0
6, 36600, Note_on_c, 2, 64, 100
6, 36600, Note_on_c, 2, 68, 100
6, 36630, Note_on_c, 2, 68, 0
6, 36630, Note_on_c, 2, 64, 0
6, 36660, Note_on_c, 2, 61, 100
6, 36660, Note_on_c, 2, 66, 100
6, 36690, Note_on_c, 2, 66, 0
6, 36690, Note_on_c, 2, 61, 0
6, 36720, Note_on_c, 2, 59, 100
6, 36720, Note_on_c, 2, 64, 100
6, 36750, Note_on_c, 2, 64, 0
6, 36750, Note_on_c, 2, 59, 0
6, 36840, Note_on_c, 2, 60, 100
6, 36840, Note_on_c, 2, 63, 100
6, 36930, Note_on_c, 2, 63, 0
6, 36930, Note_on_c, 2, 60, 0
6, 37440, Note_on_c, 2, 58, 100
6, 37440, Note_on_c, 2, 56, 100
6, 37440, Program_c, 2, 27
6, 37440, Note_on_c, 2, 61, 100
6, 37920, Note_on_c, 2, 61, 0
6, 37920, Note_on_c, 2, 56, 0
6, 37920, Note_on_c, 2, 58, 0
6, 37920, Note_on_c, 2, 69, 100
6, 37920, Note_on_c, 2, 73, 100
6, 38040, Note_on_c, 2, 73, 0
6, 38040, Note_on_c, 2, 69, 0
6, 38040, Note_on_c, 2, 59, 100
6, 38040, Note_on_c, 2, 64, 100
6, 38040, Note_on_c, 2, 68, 100
6, 38280, Note_on_c, 2, 68, 0
6, 38280, Note_on_c, 2, 64, 0
6, 38280, Note_on_c, 2, 59, 0
6, 38280, Note_on_c, 2, 61, 100
6, 38280, Note_on_c, 2, 66, 100
6, 38400, Note_on_c, 2, 66, 0
6, 38400, Note_on_c, 2, 61, 0
6, 38400, Note_on_c, 2, 56, 100
6, 38400, Note_on_c, 2, 59, 100
6, 38400, Note_on_c, 2, 64, 100
6, 38640, Note_on_c, 2, 64, 0
6, 38640, Note_on_c, 2, 59, 0
6, 38640, Note_on_c, 2, 56, 0
6, 39360, Note_on_c, 2, 65, 100
6, 39360, Note_on_c, 2, 61, 100
6, 39360, Note_on_c, 2, 70, 100
6, 39840, Note_on_c, 2, 70, 0
6, 39840, Note_on_c, 2, 61, 0
6, 39840, Note_on_c, 2, 65, 0
6, 39840, Note_on_c, 2, 71, 100
6, 39840, Note_on_c, 2, 76, 100
6, 39960, Note_on_c, 2, 76, 0
6, 39960, Note_on_c, 2, 71, 0
6, 39960, Note_on_c, 2, 68, 100
6, 39960, Note_on_c, 2, 73, 100
6, 40320, Note_on_c, 2, 73, 0
6, 40320, Note_on_c, 2, 68, 0
6, 41730, Note_on_c, 2, 71, 105
6, 41730, Note_on_c, 2, 68, 105
6, 41730, Note_on_c, 2, 76, 105
6, 41790, Note_on_c, 2, 76, 0
6, 41790, Note_on_c, 2, 68, 0
6, 41790, Note_on_c, 2, 71, 0
6, 42690, Note_on_c, 2, 73, 105
6, 42690, Note_on_c, 2, 80, 105
6, 42750, Note_on_c, 2, 80, 0
6, 42750, Note_on_c, 2, 73, 0
6, 43650, Note_on_c, 2, 76, 105
6, 43650, Note_on_c, 2, 83, 105
6, 43710, Note_on_c, 2, 83, 0
6, 43710, Note_on_c, 2, 76, 0
6, 44420, Control_c, 2, 0, 0
6, 44420, Control_c, 2, 32, 0
6, 44420, Program_c, 2, 28
6, 44670, Note_on_c, 2, 64, 100
6, 44690, Note_on_c, 2, 64, 0
6, 44700, Note_on_c, 2, 61, 100
6, 44720, Note_on_c, 2, 61, 0
6, 44730, Note_on_c, 2, 59, 100
6, 44750, Note_on_c, 2, 59, 0
6, 44760, Note_on_c, 2, 64, 100
6, 44780, Note_on_c, 2, 64, 0
6, 44790, Note_on_c, 2, 64, 100
6, 44810, Note_on_c, 2, 64, 0
6, 44940, Note_on_c, 2, 59, 100
6, 44960, Note_on_c, 2, 59, 0
6, 44970, Note_on_c, 2, 59, 100
6, 44990, Note_on_c, 2, 59, 0
6, 45030, Note_on_c, 2, 59, 100
6, 45050, Note_on_c, 2, 59, 0
6, 45090, Note_on_c, 2, 68, 100
6, 45110, Note_on_c, 2, 68, 0
6, 45150, Note_on_c, 2, 64, 100
6, 45170, Note_on_c, 2, 64, 0
6, 45180, Note_on_c, 2, 61, 100
6, 45200, Note_on_c, 2, 61, 0
6, 45210, Note_on_c, 2, 59, 100
6, 45230, Note_on_c, 2, 59, 0
6, 45240, Note_on_c, 2, 64, 100
6, 45260, Note_on_c, 2, 64, 0
6, 45270, Note_on_c, 2, 64, 100
6, 45290, Note_on_c, 2, 64, 0
6, 45420, Note_on_c, 2, 59, 100
6, 45440, Note_on_c, 2, 59, 0
6, 45450, Note_on_c, 2, 59, 100
6, 45470, Note_on_c, 2, 59, 0
6, 45510, Note_on_c, 2, 59, 100
6, 45530, Note_on_c, 2, 59, 0
6, 45570, Note_on_c, 2, 68, 100
6, 45590, Note_on_c, 2, 68, 0
6, 45630, Note_on_c, 2, 64, 100
6, 45650, Note_on_c, 2, 64, 0
6, 45660, Note_on_c, 2, 61, 100
6, 45680, Note_on_c, 2, 61, 0
6, 45690, Note_on_c, 2, 59, 100
6, 45710, Note_on_c, 2, 59, 0
6, 45720, Note_on_c, 2, 64, 100
6, 45740, Note_on_c, 2, 64, 0
6, 45750, Note_on_c, 2, 64, 100
6, 45770, Note_on_c, 2, 64, 0
6, 45900, Note_on_c, 2, 59, 100
6, 45920, Note_on_c, 2, 59, 0
6, 45930, Note_on_c, 2, 59, 100
6, 45950, Note_on_c, 2, 59, 0
6, 45990, Note_on_c, 2, 59, 100
6, 46010, Note_on_c, 2, 59, 0
6, 46080, Note_on_c, 2, 69, 100
6, 46200, Note_on_c, 2, 69, 0
6, 46200, Note_on_c, 2, 64, 100
6, 46200, Note_on_c, 2, 68, 100
6, 46230, Note_on_c, 2, 68, 0
6, 46230, Note_on_c, 2, 64, 0
6, 46260, Note_on_c, 2, 61, 100
6, 46260, Note_on_c, 2, 66, 100
6, 46290, Note_on_c, 2, 66, 0
6, 46290, Note_on_c, 2, 61, 0
6, 46320, Note_on_c, 2, 59, 100
6, 46320, Note_on_c, 2, 64, 100
6, 46350, Note_on_c, 2, 64, 0
6, 46350, Note_on_c, 2, 59, 0
6, 46440, Note_on_c, 2, 60, 100
6, 46440, Note_on_c, 2, 63, 100
6, 46530, Note_on_c, 2, 63, 0
6, 46530, Note_on_c, 2, 60, 0
6, 46530, Note_on_c, 2, 68, 100
6, 46560, Note_on_c, 2, 68, 0
6, 46590, Note_on_c, 2, 64, 100
6, 46610, Note_on_c, 2, 64, 0
6, 46620, Note_on_c, 2, 61, 100
6, 46640, Note_on_c, 2, 61, 0
6, 46650, Note_on_c, 2, 59, 100
6, 46670, Note_on_c, 2, 59, 0
6, 46680, Note_on_c, 2, 64, 100
6, 46700, Note_on_c, 2, 64, 0
6, 46710, Note_on_c, 2, 64, 100
6, 46730, Note_on_c, 2, 64, 0
6, 46860, Note_on_c, 2, 59, 100
6, 46880, Note_on_c, 2, 59, 0
6, 46890, Note_on_c, 2, 59, 100
6, 46910, Note_on_c, 2, 59, 0
6, 46950, Note_on_c, 2, 59, 100
6, 46970, Note_on_c, 2, 59, 0
6, 47010, Note_on_c, 2, 68, 100
6, 47030, Note_on_c, 2, 68, 0
6, 47070, Note_on_c, 2, 64, 100
6, 47090, Note_on_c, 2, 64, 0
6, 47100, Note_on_c, 2, 61, 100
6, 47120, Note_on_c, 2, 61, 0
6, 47130, Note_on_c, 2, 59, 100
6, 47150, Note_on_c, 2, 59, 0
6, 47160, Note_on_c, 2, 64, 100
6, 47180, Note_on_c, 2, 64, 0
6, 47190, Note_on_c, 2, 64, 100
6, 47210, Note_on_c, 2, 64, 0
6, 47340, Note_on_c, 2, 59, 100
6, 47360, Note_on_c, 2, 59, 0
6, 47370, Note_on_c, 2, 59, 100
6, 47390, Note_on_c, 2, 59, 0
6, 47430, Note_on_c, 2, 59, 100
6, 47450, Note_on_c, 2, 59, 0
6, 47490, Note_on_c, 2, 68, 100
6, 47510, Note_on_c, 2, 68, 0
6, 47550, Note_on_c, 2, 64, 100
6, 47570, Note_on_c, 2, 64, 0
6, 47580, Note_on_c, 2, 61, 100
6, 47600, Note_on_c, 2, 61, 0
6, 47610, Note_on_c, 2, 59, 100
6, 47630, Note_on_c, 2, 59, 0
6, 47640, Note_on_c, 2, 64, 100
6, 47660, Note_on_c, 2, 64, 0
6, 47670, Note_on_c, 2, 64, 100
6, 47690, Note_on_c, 2, 64, 0
6, 47820, Note_on_c, 2, 59, 100
6, 47840, Note_on_c, 2, 59, 0
6, 47850, Note_on_c, 2, 59, 100
6, 47870, Note_on_c, 2, 59, 0
6, 47910, Note_on_c, 2, 59, 100
6, 47930, Note_on_c, 2, 59, 0
6, 48000, Note_on_c, 2, 69, 100
6, 48120, Note_on_c, 2, 69, 0
6, 48120, Note_on_c, 2, 64, 100
6, 48120, Note_on_c, 2, 68, 100
6, 48150, Note_on_c, 2, 68, 0
6, 48150, Note_on_c, 2, 64, 0
6, 48180, Note_on_c, 2, 61, 100
6, 48180, Note_on_c, 2, 66, 100
6, 48210, Note_on_c, 2, 66, 0
6, 48210, Note_on_c, 2, 61, 0
6, 48240, Note_on_c, 2, 59, 100
6, 48240, Note_on_c, 2, 64, 100
6, 48270, Note_on_c, 2, 64, 0
6, 48270, Note_on_c, 2, 59, 0
6, 48360, Note_on_c, 2, 60, 100
6, 48360, Note_on_c, 2, 63, 100
6, 48450, Note_on_c, 2, 63, 0
6, 48450, Note_on_c, 2, 60, 0
6, 48450, Note_on_c, 2, 68, 100
6, 48480, Note_on_c, 2, 68, 0
6, 48480, End_track
7, 0, Start_track
7, 0, MIDI_port, 0
7, 0, Title_t, "http://www.geocities.com/~devian/midfile.htm"
7, 0, Program_c, 4, 66
7, 0, Control_c, 4, 7, 100
7, 0, Control_c, 4, 10, 45
7, 27840, Control_c, 4, 121, 0
7, 27840, Control_c, 4, 1, 10
7, 27840, Control_c, 4, 91, 64
7, 27840, Control_c, 4, 93, 20
7, 27840, Note_on_c, 4, 66, 105
7, 27870, Note_on_c, 4, 66, 0
7, 27870, Note_on_c, 4, 66, 105
7, 27900, Note_on_c, 4, 66, 0
7, 27900, Note_on_c, 4, 64, 105
7, 27930, Note_on_c, 4, 64, 0
7, 27930, Note_on_c, 4, 66, 105
7, 27960, Note_on_c, 4, 66, 0
7, 27990, Note_on_c, 4, 64, 105
7, 28020, Note_on_c, 4, 64, 0
7, 28050, Note_on_c, 4, 66, 105
7, 28140, Note_on_c, 4, 66, 0
7, 28140, Note_on_c, 4, 68, 105
7, 28170, Note_on_c, 4, 68, 0
7, 28560, Note_on_c, 4, 68, 105
7, 28590, Note_on_c, 4, 68, 0
7, 28620, Note_on_c, 4, 66, 105
7, 28650, Note_on_c, 4, 66, 0
7, 28680, Note_on_c, 4, 64, 105
7, 28740, Note_on_c, 4, 64, 0
7, 28740, Note_on_c, 4, 61, 105
7, 28770, Note_on_c, 4, 61, 0
7, 28800, Note_on_c, 4, 64, 105
7, 28890, Note_on_c, 4, 64, 0
7, 28890, Note_on_c, 4, 61, 105
7, 28920, Note_on_c, 4, 61, 0
7, 29340, Note_on_c, 4, 59, 105
7, 29370, Note_on_c, 4, 59, 0
7, 29400, Note_on_c, 4, 61, 105
7, 29430, Note_on_c, 4, 61, 0
7, 29460, Note_on_c, 4, 64, 105
7, 29490, Note_on_c, 4, 64, 0
7, 29520, Note_on_c, 4, 66, 105
7, 29610, Note_on_c, 4, 66, 0
7, 29610, Note_on_c, 4, 68, 105
7, 29640, Note_on_c, 4, 68, 0
7, 29700, Note_on_c, 4, 59, 105
7, 29790, Note_on_c, 4, 59, 0
7, 29820, Note_on_c, 4, 61, 105
7, 29850, Note_on_c, 4, 61, 0
7, 29880, Note_on_c, 4, 64, 105
7, 29910, Note_on_c, 4, 64, 0
7, 29940, Note_on_c, 4, 66, 105
7, 29970, Note_on_c, 4, 66, 0
7, 30000, Note_on_c, 4, 68, 105
7, 30090, Note_on_c, 4, 68, 0
7, 30090, Note_on_c, 4, 71, 105
7, 30120, Note_on_c, 4, 71, 0
7, 30180, Note_on_c, 4, 71, 105
7, 30186, Pitch_bend_c, 4, 8192
7, 30190, Pitch_bend_c, 4, 8320
7, 30191, Pitch_bend_c, 4, 8448
7, 30195, Pitch_bend_c, 4, 8704
7, 30196, Pitch_bend_c, 4, 9216
7, 30198, Pitch_bend_c, 4, 9600
7, 30200, Pitch_bend_c, 4, 9984
7, 30201, Pitch_bend_c, 4, 10496
7, 30203, Pitch_bend_c, 4, 11264
7, 30205, Pitch_bend_c, 4, 11776
7, 30206, Pitch_bend_c, 4, 12160
7, 30208, Pitch_bend_c, 4, 12544
7, 30211, Pitch_bend_c, 4, 13056
7, 30213, Pitch_bend_c, 4, 13696
7, 30215, Pitch_bend_c, 4, 13952
7, 30216, Pitch_bend_c, 4, 14208
7, 30218, Pitch_bend_c, 4, 14720
7, 30220, Pitch_bend_c, 4, 15104
7, 30221, Pitch_bend_c, 4, 15872
7, 30223, Pitch_bend_c, 4, 16383
7, 30238, Pitch_bend_c, 4, 16128
7, 30240, Pitch_bend_c, 4, 16256
7, 30418, Pitch_bend_c, 4, 8064
7, 30420, Note_on_c, 4, 71, 0
7, 30420, Note_on_c, 4, 71, 105
7, 30420, Pitch_bend_c, 4, 8192
7, 30450, Note_on_c, 4, 71, 0
7, 30480, Note_on_c, 4, 71, 105
7, 30510, Note_on_c, 4, 71, 0
7, 30510, Note_on_c, 4, 73, 105
7, 30540, Note_on_c, 4, 73, 0
7, 30720, Note_on_c, 4, 68, 105
7, 30750, Note_on_c, 4, 68, 0
7, 30750, Note_on_c, 4, 66, 105
7, 30780, Note_on_c, 4, 66, 0
7, 30780, Note_on_c, 4, 64, 105
7, 30810, Note_on_c, 4, 64, 0
7, 30840, Note_on_c, 4, 68, 105
7, 30870, Note_on_c, 4, 68, 0
7, 30900, Note_on_c, 4, 64, 105
7, 30930, Note_on_c, 4, 64, 0
7, 30930, Note_on_c, 4, 61, 105
7, 31080, Note_on_c, 4, 61, 0
7, 31260, Note_on_c, 4, 61, 105
7, 31290, Note_on_c, 4, 61, 0
7, 31320, Note_on_c, 4, 64, 105
7, 31350, Note_on_c, 4, 64, 0
7, 31410, Note_on_c, 4, 64, 105
7, 31500, Note_on_c, 4, 64, 0
7, 31500, Note_on_c, 4, 61, 105
7, 31530, Note_on_c, 4, 61, 0
7, 31620, Note_on_c, 4, 64, 105
7, 31650, Note_on_c, 4, 64, 0
7, 31680, Note_on_c, 4, 66, 105
7, 31710, Note_on_c, 4, 66, 0
7, 31770, Note_on_c, 4, 66, 105
7, 31860, Note_on_c, 4, 66, 0
7, 31860, Note_on_c, 4, 64, 105
7, 31890, Note_on_c, 4, 64, 0
7, 32100, Note_on_c, 4, 64, 105
7, 32130, Note_on_c, 4, 64, 0
7, 32156, Pitch_bend_c, 4, 8192
7, 32160, Note_on_c, 4, 66, 105
7, 32160, Pitch_bend_c, 4, 8320
7, 32163, Pitch_bend_c, 4, 8448
7, 32165, Pitch_bend_c, 4, 8576
7, 32166, Pitch_bend_c, 4, 8960
7, 32168, Pitch_bend_c, 4, 9216
7, 32170, Pitch_bend_c, 4, 9600
7, 32171, Pitch_bend_c, 4, 9728
7, 32176, Pitch_bend_c, 4, 9856
7, 32178, Pitch_bend_c, 4, 10112
7, 32180, Pitch_bend_c, 4, 10368
7, 32181, Pitch_bend_c, 4, 10496
7, 32186, Pitch_bend_c, 4, 10624
7, 32188, Pitch_bend_c, 4, 11008
7, 32191, Pitch_bend_c, 4, 11264
7, 32193, Pitch_bend_c, 4, 11392
7, 32195, Pitch_bend_c, 4, 11776
7, 32196, Pitch_bend_c, 4, 12032
7, 32198, Pitch_bend_c, 4, 12160
7, 32200, Pitch_bend_c, 4, 12416
7, 32201, Pitch_bend_c, 4, 13184
7, 32203, Pitch_bend_c, 4, 13440
7, 32205, Pitch_bend_c, 4, 13696
7, 32206, Pitch_bend_c, 4, 14080
7, 32208, Pitch_bend_c, 4, 14464
7, 32210, Pitch_bend_c, 4, 14720
7, 32211, Pitch_bend_c, 4, 14976
7, 32213, Pitch_bend_c, 4, 15104
7, 32215, Pitch_bend_c, 4, 15744
7, 32216, Pitch_bend_c, 4, 16000
7, 32220, Pitch_bend_c, 4, 16383
7, 32340, Note_on_c, 4, 66, 0
7, 32340, Note_on_c, 4, 69, 105
7, 32340, Pitch_bend_c, 4, 8192
7, 32370, Note_on_c, 4, 69, 0
7, 32370, Note_on_c, 4, 71, 105
7, 32400, Note_on_c, 4, 71, 0
7, 32400, Note_on_c, 4, 68, 105
7, 32490, Note_on_c, 4, 68, 0
7, 32490, Note_on_c, 4, 66, 105
7, 32580, Note_on_c, 4, 66, 0
7, 32580, Note_on_c, 4, 64, 105
7, 32640, Note_on_c, 4, 64, 0
7, 32640, Note_on_c, 4, 71, 105
7, 32640, Pitch_bend_c, 4, 8192
7, 32641, Pitch_bend_c, 4, 8320
7, 32645, Pitch_bend_c, 4, 8320
7, 32646, Pitch_bend_c, 4, 8576
7, 32648, Pitch_bend_c, 4, 8704
7, 32650, Pitch_bend_c, 4, 8960
7, 32651, Pitch_bend_c, 4, 9344
7, 32655, Pitch_bend_c, 4, 9728
7, 32656, Pitch_bend_c, 4, 9984
7, 32658, Pitch_bend_c, 4, 10112
7, 32660, Pitch_bend_c, 4, 10240
7, 32661, Pitch_bend_c, 4, 10496
7, 32663, Pitch_bend_c, 4, 10624
7, 32665, Pitch_bend_c, 4, 11008
7, 32666, Pitch_bend_c, 4, 11136
7, 32668, Pitch_bend_c, 4, 11776
7, 32670, Pitch_bend_c, 4, 12160
7, 32671, Pitch_bend_c, 4, 12416
7, 32673, Pitch_bend_c, 4, 12928
7, 32675, Pitch_bend_c, 4, 13952
7, 32676, Pitch_bend_c, 4, 14336
7, 32678, Pitch_bend_c, 4, 14592
7, 32680, Pitch_bend_c, 4, 14976
7, 32681, Pitch_bend_c, 4, 15744
7, 32683, Pitch_bend_c, 4, 16383
7, 32688, Pitch_bend_c, 4, 16383
7, 32690, Pitch_bend_c, 4, 15104
7, 32691, Pitch_bend_c, 4, 15616
7, 32693, Pitch_bend_c, 4, 16383
7, 32758, Pitch_bend_c, 4, 8192
7, 32760, Note_on_c, 4, 71, 0
7, 32760, Note_on_c, 4, 71, 105
7, 33120, Note_on_c, 4, 71, 0
7, 33120, End_track
0, 0, End_of_file
