0, 0, Header, 1, 6, 480
1, 0, Start_track
1, 0, Title_t, "05-lte_1998-freedom_of_speech"
1, 0, Time_signature, 4, 2, 24, 8
1, 0, Tempo, 810810
1, 44160, Time_signature, 2, 2, 24, 8
1, 45120, Time_signature, 4, 2, 24, 8
1, 91200, Time_signature, 2, 2, 24, 8
1, 92160, Time_signature, 4, 2, 24, 8
1, 96000, Tempo, 705882
1, 103680, Tempo, 705882
1, 234240, Time_signature, 11, 3, 24, 8
1, 244800, Time_signature, 4, 2, 24, 8
1, 254400, Time_signature, 11, 3, 24, 8
1, 264960, Time_signature, 4, 2, 24, 8
1, 272640, Time_signature, 10, 3, 24, 8
1, 282240, Time_signature, 4, 2, 24, 8
1, 289920, Time_signature, 10, 3, 24, 8
1, 299520, Time_signature, 4, 2, 24, 8
1, 353280, Time_signature, 2, 2, 24, 8
1, 353280, Tempo, 810810
1, 354240, Time_signature, 4, 2, 24, 8
1, 361920, Tempo, 1090909
1, 361920, End_track
2, 0, Start_track
2, 0, Title_t, "Piano: Jordan Rudess"
2, 0, Text_t, "@TFreedom of Speech"
2, 0, Text_t, "@TLiquid Tension Experiment - 1998"
2, 0, Text_t, "@TSequence : GuitarPro File Tab by ?"
2, 0, Text_t, "@TGM Format by Th. Leroy / 2007"
2, 0, Text_t, "@Thttp://www.rppmf.com/dream_theater.htm"
2, 0, Control_c, 0, 121, 0
2, 0, Control_c, 0, 123, 0
2, 0, Control_c, 0, 100, 0
2, 0, Control_c, 0, 38, 0
2, 0, Control_c, 0, 101, 0
2, 0, Control_c, 0, 6, 12
2, 0, Pitch_bend_c, 0, 8192
2, 0, Program_c, 0, 0
2, 0, Control_c, 0, 7, 123
2, 0, Control_c, 0, 10, 82
2, 0, Note_on_c, 0, 38, 95
2, 0, Note_on_c, 0, 50, 95
2, 0, Note_on_c, 0, 54, 95
2, 360, Note_on_c, 0, 55, 95
2, 720, Note_on_c, 0, 62, 95
2, 1918, Note_off_c, 0, 38, 80
2, 1918, Note_off_c, 0, 50, 80
2, 1918, Note_off_c, 0, 54, 80
2, 1920, Note_on_c, 0, 42, 95
2, 1920, Note_on_c, 0, 54, 95
2, 2278, Note_off_c, 0, 55, 80
2, 2280, Note_on_c, 0, 55, 95
2, 2638, Note_off_c, 0, 62, 80
2, 2640, Note_on_c, 0, 64, 95
2, 3838, Note_off_c, 0, 42, 80
2, 3838, Note_off_c, 0, 54, 80
2, 3840, Note_on_c, 0, 43, 95
2, 3840, Note_on_c, 0, 54, 95
2, 4198, Note_off_c, 0, 55, 80
2, 4200, Note_on_c, 0, 55, 95
2, 4558, Note_off_c, 0, 64, 80
2, 4560, Note_on_c, 0, 66, 95
2, 4918, Note_off_c, 0, 66, 80
2, 4920, Note_on_c, 0, 69, 95
2, 5038, Note_off_c, 0, 69, 80
2, 5040, Note_on_c, 0, 64, 95
2, 5758, Note_off_c, 0, 43, 80
2, 5758, Note_off_c, 0, 54, 80
2, 5758, Note_off_c, 0, 55, 80
2, 5760, Note_on_c, 0, 40, 95
2, 5760, Note_on_c, 0, 52, 95
2, 5760, Note_on_c, 0, 55, 95
2, 6118, Note_off_c, 0, 64, 80
2, 6120, Note_on_c, 0, 66, 95
2, 6480, Note_on_c, 0, 61, 95
2, 6958, Note_off_c, 0, 61, 80
2, 6960, Note_on_c, 0, 62, 95
2, 7678, Note_off_c, 0, 40, 80
2, 7678, Note_off_c, 0, 52, 80
2, 7678, Note_off_c, 0, 55, 80
2, 7680, Note_on_c, 0, 38, 95
2, 7680, Note_on_c, 0, 50, 95
2, 7680, Note_on_c, 0, 54, 95
2, 8038, Note_off_c, 0, 66, 80
2, 8040, Note_on_c, 0, 55, 95
2, 8398, Note_off_c, 0, 62, 80
2, 8400, Note_on_c, 0, 62, 95
2, 9598, Note_off_c, 0, 38, 80
2, 9598, Note_off_c, 0, 50, 80
2, 9598, Note_off_c, 0, 54, 80
2, 9600, Note_on_c, 0, 42, 95
2, 9600, Note_on_c, 0, 54, 95
2, 9958, Note_off_c, 0, 55, 80
2, 9960, Note_on_c, 0, 55, 95
2, 10318, Note_off_c, 0, 62, 80
2, 10320, Note_on_c, 0, 64, 95
2, 11518, Note_off_c, 0, 42, 80
2, 11518, Note_off_c, 0, 54, 80
2, 11520, Note_on_c, 0, 40, 95
2, 11520, Note_on_c, 0, 54, 95
2, 11878, Note_off_c, 0, 55, 80
2, 11880, Note_on_c, 0, 55, 95
2, 12238, Note_off_c, 0, 64, 80
2, 12240, Note_on_c, 0, 66, 95
2, 12720, Note_on_c, 0, 62, 95
2, 13078, Note_off_c, 0, 62, 80
2, 13080, Note_on_c, 0, 59, 95
2, 13438, Note_off_c, 0, 40, 80
2, 13438, Note_off_c, 0, 54, 80
2, 13438, Note_off_c, 0, 55, 80
2, 13438, Note_off_c, 0, 59, 80
2, 13440, Note_on_c, 0, 43, 95
2, 13440, Note_on_c, 0, 50, 95
2, 13440, Note_on_c, 0, 57, 95
2, 13440, Note_on_c, 0, 62, 95
2, 13918, Note_off_c, 0, 50, 80
2, 13920, Note_on_c, 0, 50, 95
2, 14158, Note_off_c, 0, 66, 80
2, 14158, Note_off_c, 0, 43, 80
2, 14160, Note_on_c, 0, 43, 95
2, 14398, Note_off_c, 0, 57, 80
2, 14398, Note_off_c, 0, 62, 80
2, 14398, Note_off_c, 0, 50, 80
2, 14400, Note_on_c, 0, 45, 95
2, 14400, Note_on_c, 0, 52, 95
2, 14400, Note_on_c, 0, 57, 95
2, 14400, Note_on_c, 0, 62, 95
2, 14880, Note_on_c, 0, 64, 95
2, 15118, Note_off_c, 0, 52, 80
2, 15120, Note_on_c, 0, 52, 95
2, 15358, Note_off_c, 0, 45, 80
2, 15358, Note_off_c, 0, 64, 80
2, 15358, Note_off_c, 0, 52, 80
2, 15360, Note_on_c, 0, 38, 95
2, 15360, Note_on_c, 0, 50, 95
2, 15360, Note_on_c, 0, 54, 95
2, 15360, Note_on_c, 0, 66, 95
2, 15718, Note_off_c, 0, 57, 80
2, 15718, Note_off_c, 0, 66, 80
2, 15720, Note_on_c, 0, 55, 95
2, 15720, Note_on_c, 0, 64, 95
2, 16078, Note_off_c, 0, 43, 80
2, 16078, Note_off_c, 0, 55, 80
2, 16078, Note_off_c, 0, 64, 80
2, 16080, Note_on_c, 0, 62, 95
2, 16080, Note_on_c, 0, 74, 95
2, 16318, Note_off_c, 0, 62, 80
2, 17278, Note_off_c, 0, 38, 80
2, 17278, Note_off_c, 0, 50, 80
2, 17278, Note_off_c, 0, 54, 80
2, 17278, Note_off_c, 0, 74, 80
2, 17280, Note_on_c, 0, 42, 95
2, 17280, Note_on_c, 0, 54, 95
2, 17280, Note_on_c, 0, 66, 95
2, 17638, Note_off_c, 0, 62, 80
2, 17638, Note_off_c, 0, 66, 80
2, 17640, Note_on_c, 0, 55, 95
2, 17640, Note_on_c, 0, 67, 95
2, 17998, Note_off_c, 0, 55, 80
2, 17998, Note_off_c, 0, 67, 80
2, 18000, Note_on_c, 0, 64, 95
2, 18000, Note_on_c, 0, 76, 95
2, 19198, Note_off_c, 0, 42, 80
2, 19198, Note_off_c, 0, 54, 80
2, 19198, Note_off_c, 0, 76, 80
2, 19200, Note_on_c, 0, 43, 95
2, 19200, Note_on_c, 0, 54, 95
2, 19200, Note_on_c, 0, 66, 95
2, 19558, Note_off_c, 0, 64, 80
2, 19558, Note_off_c, 0, 66, 80
2, 19560, Note_on_c, 0, 55, 95
2, 19560, Note_on_c, 0, 67, 95
2, 19918, Note_off_c, 0, 55, 80
2, 19918, Note_off_c, 0, 67, 80
2, 19920, Note_on_c, 0, 66, 95
2, 19920, Note_on_c, 0, 78, 95
2, 20398, Note_off_c, 0, 66, 80
2, 20398, Note_off_c, 0, 78, 80
2, 20400, Note_on_c, 0, 62, 95
2, 20400, Note_on_c, 0, 74, 95
2, 21118, Note_off_c, 0, 43, 80
2, 21118, Note_off_c, 0, 54, 80
2, 21118, Note_off_c, 0, 62, 80
2, 21118, Note_off_c, 0, 74, 80
2, 21120, Note_on_c, 0, 40, 95
2, 21120, Note_on_c, 0, 52, 95
2, 21120, Note_on_c, 0, 55, 95
2, 21120, Note_on_c, 0, 67, 95
2, 21478, Note_off_c, 0, 55, 80
2, 21478, Note_off_c, 0, 67, 80
2, 21480, Note_on_c, 0, 66, 95
2, 21480, Note_on_c, 0, 78, 95
2, 21838, Note_off_c, 0, 66, 80
2, 21838, Note_off_c, 0, 78, 80
2, 21840, Note_on_c, 0, 61, 95
2, 21840, Note_on_c, 0, 73, 95
2, 22318, Note_off_c, 0, 61, 80
2, 22318, Note_off_c, 0, 73, 80
2, 22320, Note_on_c, 0, 62, 95
2, 22320, Note_on_c, 0, 74, 95
2, 23038, Note_off_c, 0, 40, 80
2, 23038, Note_off_c, 0, 52, 80
2, 23038, Note_off_c, 0, 74, 80
2, 23040, Note_on_c, 0, 38, 95
2, 23040, Note_on_c, 0, 50, 95
2, 23040, Note_on_c, 0, 54, 95
2, 23040, Note_on_c, 0, 66, 95
2, 23398, Note_off_c, 0, 62, 80
2, 23398, Note_off_c, 0, 66, 80
2, 23400, Note_on_c, 0, 55, 95
2, 23400, Note_on_c, 0, 64, 95
2, 23758, Note_off_c, 0, 55, 80
2, 23758, Note_off_c, 0, 64, 80
2, 23760, Note_on_c, 0, 62, 95
2, 23760, Note_on_c, 0, 74, 95
2, 24958, Note_off_c, 0, 38, 80
2, 24958, Note_off_c, 0, 50, 80
2, 24958, Note_off_c, 0, 54, 80
2, 24958, Note_off_c, 0, 74, 80
2, 24960, Note_on_c, 0, 42, 95
2, 24960, Note_on_c, 0, 54, 95
2, 24960, Note_on_c, 0, 66, 95
2, 25318, Note_off_c, 0, 62, 80
2, 25318, Note_off_c, 0, 66, 80
2, 25320, Note_on_c, 0, 55, 95
2, 25320, Note_on_c, 0, 67, 95
2, 25678, Note_off_c, 0, 55, 80
2, 25678, Note_off_c, 0, 67, 80
2, 25680, Note_on_c, 0, 64, 95
2, 25680, Note_on_c, 0, 76, 95
2, 26878, Note_off_c, 0, 42, 80
2, 26878, Note_off_c, 0, 54, 80
2, 26878, Note_off_c, 0, 76, 80
2, 26880, Note_on_c, 0, 40, 95
2, 26880, Note_on_c, 0, 54, 95
2, 26880, Note_on_c, 0, 66, 95
2, 27238, Note_off_c, 0, 64, 80
2, 27238, Note_off_c, 0, 66, 80
2, 27240, Note_on_c, 0, 55, 95
2, 27240, Note_on_c, 0, 67, 95
2, 27598, Note_off_c, 0, 55, 80
2, 27598, Note_off_c, 0, 67, 80
2, 27600, Note_on_c, 0, 66, 95
2, 27600, Note_on_c, 0, 78, 95
2, 28078, Note_off_c, 0, 66, 80
2, 28078, Note_off_c, 0, 78, 80
2, 28080, Note_on_c, 0, 62, 95
2, 28080, Note_on_c, 0, 74, 95
2, 28558, Note_off_c, 0, 62, 80
2, 28558, Note_off_c, 0, 74, 80
2, 28560, Note_on_c, 0, 59, 95
2, 28560, Note_on_c, 0, 71, 95
2, 28798, Note_off_c, 0, 40, 80
2, 28798, Note_off_c, 0, 54, 80
2, 28798, Note_off_c, 0, 59, 80
2, 28798, Note_off_c, 0, 71, 80
2, 28800, Note_on_c, 0, 43, 95
2, 28800, Note_on_c, 0, 57, 95
2, 28800, Note_on_c, 0, 62, 95
2, 28800, Note_on_c, 0, 69, 95
2, 28800, Note_on_c, 0, 74, 95
2, 29040, Note_on_c, 0, 55, 95
2, 29278, Note_off_c, 0, 62, 80
2, 29280, Note_on_c, 0, 62, 95
2, 29518, Note_off_c, 0, 57, 80
2, 29520, Note_on_c, 0, 57, 95
2, 29758, Note_off_c, 0, 69, 80
2, 29758, Note_off_c, 0, 74, 80
2, 29758, Note_off_c, 0, 55, 80
2, 29758, Note_off_c, 0, 57, 80
2, 29760, Note_on_c, 0, 45, 95
2, 29760, Note_on_c, 0, 57, 95
2, 29760, Note_on_c, 0, 64, 95
2, 29760, Note_on_c, 0, 69, 95
2, 30238, Note_off_c, 0, 62, 80
2, 30238, Note_off_c, 0, 69, 80
2, 30240, Note_on_c, 0, 64, 95
2, 30240, Note_on_c, 0, 76, 95
2, 30718, Note_off_c, 0, 43, 80
2, 30718, Note_off_c, 0, 45, 80
2, 30718, Note_off_c, 0, 64, 80
2, 30720, Note_on_c, 0, 35, 95
2, 30720, Note_on_c, 0, 47, 95
2, 30720, Note_on_c, 0, 61, 95
2, 30958, Note_off_c, 0, 57, 80
2, 30960, Note_on_c, 0, 54, 95
2, 31078, Note_off_c, 0, 64, 80
2, 31080, Note_on_c, 0, 59, 95
2, 32638, Note_off_c, 0, 76, 80
2, 32638, Note_off_c, 0, 35, 80
2, 32638, Note_off_c, 0, 47, 80
2, 32638, Note_off_c, 0, 61, 80
2, 32638, Note_off_c, 0, 59, 80
2, 32640, Note_on_c, 0, 43, 95
2, 32640, Note_on_c, 0, 55, 95
2, 32640, Note_on_c, 0, 61, 95
2, 32878, Note_off_c, 0, 54, 80
2, 32880, Note_on_c, 0, 54, 95
2, 32998, Note_off_c, 0, 61, 80
2, 33000, Note_on_c, 0, 59, 95
2, 34558, Note_off_c, 0, 43, 80
2, 34558, Note_off_c, 0, 55, 80
2, 34558, Note_off_c, 0, 54, 80
2, 34560, Note_on_c, 0, 49, 95
2, 34560, Note_on_c, 0, 55, 95
2, 34560, Note_on_c, 0, 61, 95
2, 34798, Note_off_c, 0, 55, 80
2, 34800, Note_on_c, 0, 55, 95
2, 34918, Note_off_c, 0, 59, 80
2, 34920, Note_on_c, 0, 59, 95
2, 35280, Note_on_c, 0, 64, 95
2, 35998, Note_off_c, 0, 59, 80
2, 36000, Note_on_c, 0, 59, 95
2, 36118, Note_off_c, 0, 55, 80
2, 36120, Note_on_c, 0, 52, 95
2, 36238, Note_off_c, 0, 52, 80
2, 36240, Note_on_c, 0, 54, 95
2, 36358, Note_off_c, 0, 59, 80
2, 36360, Note_on_c, 0, 59, 95
2, 36478, Note_off_c, 0, 49, 80
2, 36478, Note_off_c, 0, 61, 80
2, 36478, Note_off_c, 0, 54, 80
2, 36478, Note_off_c, 0, 59, 80
2, 36480, Note_on_c, 0, 40, 95
2, 36480, Note_on_c, 0, 52, 95
2, 36480, Note_on_c, 0, 55, 95
2, 36480, Note_on_c, 0, 59, 95
2, 36838, Note_off_c, 0, 52, 80
2, 36840, Note_on_c, 0, 52, 95
2, 36958, Note_off_c, 0, 55, 80
2, 36960, Note_on_c, 0, 55, 95
2, 37078, Note_off_c, 0, 59, 80
2, 37080, Note_on_c, 0, 59, 95
2, 37198, Note_off_c, 0, 64, 80
2, 37198, Note_off_c, 0, 59, 80
2, 37200, Note_on_c, 0, 61, 95
2, 37320, Note_on_c, 0, 64, 95
2, 37438, Note_off_c, 0, 40, 80
2, 37438, Note_off_c, 0, 52, 80
2, 37438, Note_off_c, 0, 55, 80
2, 37438, Note_off_c, 0, 61, 80
2, 37440, Note_on_c, 0, 42, 95
2, 37440, Note_on_c, 0, 54, 95
2, 37440, Note_on_c, 0, 59, 95
2, 37440, Note_on_c, 0, 61, 95
2, 37918, Note_off_c, 0, 59, 80
2, 37920, Note_on_c, 0, 58, 95
2, 38158, Note_off_c, 0, 54, 80
2, 38160, Note_on_c, 0, 54, 95
2, 38398, Note_off_c, 0, 61, 80
2, 38400, Note_on_c, 0, 35, 95
2, 38400, Note_on_c, 0, 47, 95
2, 38400, Note_on_c, 0, 61, 95
2, 38638, Note_off_c, 0, 54, 80
2, 38640, Note_on_c, 0, 54, 95
2, 38758, Note_off_c, 0, 58, 80
2, 38760, Note_on_c, 0, 59, 95
2, 39118, Note_off_c, 0, 64, 80
2, 39120, Note_on_c, 0, 66, 95
2, 39598, Note_off_c, 0, 54, 80
2, 39598, Note_off_c, 0, 42, 80
2, 39600, Note_on_c, 0, 54, 95
2, 39838, Note_off_c, 0, 59, 80
2, 39840, Note_on_c, 0, 59, 95
2, 40078, Note_off_c, 0, 61, 80
2, 40080, Note_on_c, 0, 61, 95
2, 40318, Note_off_c, 0, 35, 80
2, 40318, Note_off_c, 0, 47, 80
2, 40318, Note_off_c, 0, 54, 80
2, 40318, Note_off_c, 0, 59, 80
2, 40318, Note_off_c, 0, 61, 80
2, 40320, Note_on_c, 0, 43, 95
2, 40320, Note_on_c, 0, 50, 95
2, 40320, Note_on_c, 0, 55, 95
2, 40320, Note_on_c, 0, 59, 95
2, 40320, Note_on_c, 0, 62, 95
2, 41278, Note_off_c, 0, 66, 80
2, 41278, Note_off_c, 0, 59, 80
2, 41280, Note_on_c, 0, 73, 95
2, 41280, Note_on_c, 0, 85, 95
2, 41518, Note_off_c, 0, 73, 80
2, 41518, Note_off_c, 0, 85, 80
2, 41520, Note_on_c, 0, 71, 95
2, 41520, Note_on_c, 0, 83, 95
2, 41758, Note_off_c, 0, 71, 80
2, 41758, Note_off_c, 0, 83, 80
2, 41760, Note_on_c, 0, 66, 95
2, 41760, Note_on_c, 0, 78, 95
2, 41998, Note_off_c, 0, 55, 80
2, 42000, Note_on_c, 0, 62, 95
2, 42238, Note_off_c, 0, 43, 80
2, 42238, Note_off_c, 0, 50, 80
2, 42238, Note_off_c, 0, 62, 80
2, 42238, Note_off_c, 0, 66, 80
2, 42238, Note_off_c, 0, 78, 80
2, 42238, Note_off_c, 0, 62, 80
2, 42240, Note_on_c, 0, 40, 95
2, 42240, Note_on_c, 0, 52, 95
2, 42240, Note_on_c, 0, 59, 95
2, 42240, Note_on_c, 0, 64, 95
2, 42240, Note_on_c, 0, 67, 95
2, 42718, Note_off_c, 0, 64, 80
2, 42720, Note_on_c, 0, 64, 95
2, 42958, Note_off_c, 0, 59, 80
2, 42960, Note_on_c, 0, 59, 95
2, 43078, Note_off_c, 0, 64, 80
2, 43080, Note_on_c, 0, 64, 95
2, 43198, Note_off_c, 0, 67, 80
2, 43200, Note_on_c, 0, 71, 95
2, 43678, Note_off_c, 0, 71, 80
2, 43680, Note_on_c, 0, 66, 95
2, 43918, Note_off_c, 0, 59, 80
2, 43920, Note_on_c, 0, 59, 95
2, 44038, Note_off_c, 0, 52, 80
2, 44040, Note_on_c, 0, 52, 95
2, 44158, Note_off_c, 0, 40, 80
2, 44158, Note_off_c, 0, 64, 80
2, 44158, Note_off_c, 0, 66, 80
2, 44158, Note_off_c, 0, 59, 80
2, 44158, Note_off_c, 0, 52, 80
2, 44160, Note_on_c, 0, 50, 95
2, 44160, Note_on_c, 0, 55, 95
2, 44160, Note_on_c, 0, 59, 95
2, 44160, Note_on_c, 0, 62, 95
2, 44160, Note_on_c, 0, 67, 95
2, 44638, Note_off_c, 0, 55, 80
2, 44640, Note_on_c, 0, 55, 95
2, 44758, Note_off_c, 0, 59, 80
2, 44760, Note_on_c, 0, 59, 95
2, 44878, Note_off_c, 0, 62, 80
2, 44880, Note_on_c, 0, 62, 95
2, 44998, Note_off_c, 0, 67, 80
2, 45000, Note_on_c, 0, 67, 95
2, 45118, Note_off_c, 0, 50, 80
2, 45118, Note_off_c, 0, 55, 80
2, 45118, Note_off_c, 0, 59, 80
2, 45118, Note_off_c, 0, 62, 80
2, 45120, Note_on_c, 0, 48, 95
2, 45120, Note_on_c, 0, 55, 95
2, 45120, Note_on_c, 0, 60, 95
2, 45120, Note_on_c, 0, 62, 95
2, 47038, Note_off_c, 0, 67, 80
2, 47038, Note_off_c, 0, 48, 80
2, 47038, Note_off_c, 0, 55, 80
2, 47038, Note_off_c, 0, 60, 80
2, 47038, Note_off_c, 0, 62, 80
2, 47040, Note_on_c, 0, 38, 95
2, 47040, Note_on_c, 0, 50, 95
2, 47040, Note_on_c, 0, 54, 95
2, 47040, Note_on_c, 0, 66, 95
2, 47400, Note_on_c, 0, 62, 95
2, 48958, Note_off_c, 0, 38, 80
2, 48958, Note_off_c, 0, 50, 80
2, 48958, Note_off_c, 0, 54, 80
2, 48958, Note_off_c, 0, 66, 80
2, 48958, Note_off_c, 0, 62, 80
2, 48960, Note_on_c, 0, 42, 95
2, 48960, Note_on_c, 0, 54, 95
2, 48960, Note_on_c, 0, 61, 95
2, 48960, Note_on_c, 0, 66, 95
2, 49320, Note_on_c, 0, 55, 95
2, 49678, Note_off_c, 0, 66, 80
2, 49680, Note_on_c, 0, 64, 95
2, 50878, Note_off_c, 0, 42, 80
2, 50878, Note_off_c, 0, 54, 80
2, 50878, Note_off_c, 0, 61, 80
2, 50878, Note_off_c, 0, 64, 80
2, 50880, Note_on_c, 0, 42, 95
2, 50880, Note_on_c, 0, 54, 95
2, 50880, Note_on_c, 0, 62, 95
2, 50880, Note_on_c, 0, 66, 95
2, 51238, Note_off_c, 0, 55, 80
2, 51238, Note_off_c, 0, 66, 80
2, 51240, Note_on_c, 0, 55, 95
2, 51240, Note_on_c, 0, 67, 95
2, 52078, Note_off_c, 0, 62, 80
2, 52078, Note_off_c, 0, 55, 80
2, 52080, Note_on_c, 0, 55, 95
2, 52080, Note_on_c, 0, 62, 95
2, 52318, Note_off_c, 0, 67, 80
2, 52318, Note_off_c, 0, 55, 80
2, 52320, Note_on_c, 0, 62, 95
2, 52320, Note_on_c, 0, 74, 95
2, 52558, Note_off_c, 0, 62, 80
2, 52560, Note_on_c, 0, 66, 95
2, 52798, Note_off_c, 0, 42, 80
2, 52798, Note_off_c, 0, 54, 80
2, 52798, Note_off_c, 0, 62, 80
2, 52800, Note_on_c, 0, 40, 95
2, 52800, Note_on_c, 0, 52, 95
2, 52800, Note_on_c, 0, 55, 95
2, 53158, Note_off_c, 0, 74, 80
2, 53158, Note_off_c, 0, 52, 80
2, 53160, Note_on_c, 0, 54, 95
2, 53160, Note_on_c, 0, 66, 95
2, 53518, Note_off_c, 0, 66, 80
2, 53520, Note_on_c, 0, 49, 95
2, 53520, Note_on_c, 0, 61, 95
2, 53878, Note_off_c, 0, 54, 80
2, 53878, Note_off_c, 0, 61, 80
2, 53880, Note_on_c, 0, 50, 95
2, 53880, Note_on_c, 0, 62, 95
2, 54238, Note_off_c, 0, 66, 80
2, 54238, Note_off_c, 0, 50, 80
2, 54240, Note_on_c, 0, 52, 95
2, 54240, Note_on_c, 0, 64, 95
2, 54478, Note_off_c, 0, 52, 80
2, 54478, Note_off_c, 0, 64, 80
2, 54480, Note_on_c, 0, 54, 95
2, 54480, Note_on_c, 0, 66, 95
2, 54718, Note_off_c, 0, 40, 80
2, 54718, Note_off_c, 0, 55, 80
2, 54718, Note_off_c, 0, 49, 80
2, 54718, Note_off_c, 0, 62, 80
2, 54718, Note_off_c, 0, 54, 80
2, 54720, Note_on_c, 0, 38, 95
2, 54720, Note_on_c, 0, 50, 95
2, 54720, Note_on_c, 0, 54, 95
2, 54720, Note_on_c, 0, 62, 95
2, 55920, Note_on_c, 0, 57, 95
2, 56158, Note_off_c, 0, 62, 80
2, 56160, Note_on_c, 0, 62, 95
2, 56278, Note_off_c, 0, 66, 80
2, 56280, Note_on_c, 0, 64, 95
2, 56398, Note_off_c, 0, 64, 80
2, 56400, Note_on_c, 0, 66, 95
2, 56638, Note_off_c, 0, 38, 80
2, 56638, Note_off_c, 0, 50, 80
2, 56638, Note_off_c, 0, 54, 80
2, 56638, Note_off_c, 0, 62, 80
2, 56640, Note_on_c, 0, 42, 95
2, 56640, Note_on_c, 0, 54, 95
2, 56640, Note_on_c, 0, 61, 95
2, 56998, Note_off_c, 0, 57, 80
2, 57000, Note_on_c, 0, 55, 95
2, 57358, Note_off_c, 0, 61, 80
2, 57360, Note_on_c, 0, 61, 95
2, 57838, Note_off_c, 0, 54, 80
2, 57840, Note_on_c, 0, 54, 95
2, 58318, Note_off_c, 0, 66, 80
2, 58318, Note_off_c, 0, 55, 80
2, 58320, Note_on_c, 0, 55, 95
2, 58320, Note_on_c, 0, 64, 95
2, 58438, Note_off_c, 0, 55, 80
2, 58438, Note_off_c, 0, 64, 80
2, 58440, Note_on_c, 0, 57, 95
2, 58440, Note_on_c, 0, 66, 95
2, 58558, Note_off_c, 0, 42, 80
2, 58558, Note_off_c, 0, 54, 80
2, 58558, Note_off_c, 0, 57, 80
2, 58560, Note_on_c, 0, 40, 95
2, 58560, Note_on_c, 0, 52, 95
2, 58560, Note_on_c, 0, 55, 95
2, 58918, Note_off_c, 0, 61, 80
2, 58920, Note_on_c, 0, 59, 95
2, 59278, Note_off_c, 0, 66, 80
2, 59278, Note_off_c, 0, 59, 80
2, 59280, Note_on_c, 0, 64, 95
2, 59280, Note_on_c, 0, 67, 95
2, 59758, Note_off_c, 0, 64, 80
2, 59760, Note_on_c, 0, 59, 95
2, 59878, Note_off_c, 0, 55, 80
2, 59880, Note_on_c, 0, 55, 95
2, 59998, Note_off_c, 0, 52, 80
2, 60000, Note_on_c, 0, 52, 95
2, 60118, Note_off_c, 0, 52, 80
2, 60120, Note_on_c, 0, 55, 95
2, 60238, Note_off_c, 0, 59, 80
2, 60238, Note_off_c, 0, 55, 80
2, 60240, Note_on_c, 0, 59, 95
2, 60240, Note_on_c, 0, 62, 95
2, 60358, Note_off_c, 0, 55, 80
2, 60360, Note_on_c, 0, 55, 95
2, 60478, Note_off_c, 0, 40, 80
2, 60478, Note_off_c, 0, 59, 80
2, 60478, Note_off_c, 0, 62, 80
2, 60478, Note_off_c, 0, 55, 80
2, 60480, Note_on_c, 0, 43, 95
2, 60480, Note_on_c, 0, 50, 95
2, 60480, Note_on_c, 0, 57, 95
2, 60480, Note_on_c, 0, 62, 95
2, 60718, Note_off_c, 0, 57, 80
2, 60720, Note_on_c, 0, 57, 95
2, 60838, Note_off_c, 0, 62, 80
2, 60840, Note_on_c, 0, 59, 95
2, 60958, Note_off_c, 0, 67, 80
2, 60960, Note_on_c, 0, 66, 95
2, 61078, Note_off_c, 0, 59, 80
2, 61080, Note_on_c, 0, 62, 95
2, 61198, Note_off_c, 0, 50, 80
2, 61198, Note_off_c, 0, 66, 80
2, 61200, Note_on_c, 0, 52, 95
2, 61200, Note_on_c, 0, 64, 95
2, 61438, Note_off_c, 0, 57, 80
2, 61438, Note_off_c, 0, 52, 80
2, 61438, Note_off_c, 0, 64, 80
2, 61440, Note_on_c, 0, 45, 95
2, 61440, Note_on_c, 0, 52, 95
2, 61440, Note_on_c, 0, 57, 95
2, 61440, Note_on_c, 0, 64, 95
2, 62398, Note_off_c, 0, 43, 80
2, 62398, Note_off_c, 0, 62, 80
2, 62398, Note_off_c, 0, 45, 80
2, 62398, Note_off_c, 0, 52, 80
2, 62400, Note_on_c, 0, 38, 95
2, 62400, Note_on_c, 0, 50, 95
2, 62400, Note_on_c, 0, 54, 95
2, 62400, Note_on_c, 0, 62, 95
2, 62758, Note_off_c, 0, 57, 80
2, 62760, Note_on_c, 0, 57, 95
2, 63118, Note_off_c, 0, 38, 80
2, 63118, Note_off_c, 0, 50, 80
2, 63118, Note_off_c, 0, 54, 80
2, 63118, Note_off_c, 0, 62, 80
2, 63120, Note_on_c, 0, 38, 95
2, 63120, Note_on_c, 0, 50, 95
2, 63120, Note_on_c, 0, 54, 95
2, 63120, Note_on_c, 0, 62, 95
2, 63598, Note_off_c, 0, 64, 80
2, 63718, Note_off_c, 0, 57, 80
2, 63720, Note_on_c, 0, 57, 95
2, 63838, Note_off_c, 0, 62, 80
2, 63840, Note_on_c, 0, 62, 95
2, 63958, Note_off_c, 0, 57, 80
2, 63960, Note_on_c, 0, 57, 95
2, 64078, Note_off_c, 0, 62, 80
2, 64080, Note_on_c, 0, 62, 95
2, 64200, Note_on_c, 0, 64, 95
2, 64318, Note_off_c, 0, 54, 80
2, 64318, Note_off_c, 0, 57, 80
2, 64318, Note_off_c, 0, 62, 80
2, 64318, Note_off_c, 0, 64, 80
2, 64320, Note_on_c, 0, 42, 95
2, 64320, Note_on_c, 0, 54, 95
2, 64320, Note_on_c, 0, 57, 95
2, 64320, Note_on_c, 0, 61, 95
2, 64320, Note_on_c, 0, 66, 95
2, 65038, Note_off_c, 0, 38, 80
2, 65038, Note_off_c, 0, 50, 80
2, 65038, Note_off_c, 0, 54, 80
2, 65038, Note_off_c, 0, 57, 80
2, 65040, Note_on_c, 0, 54, 95
2, 65040, Note_on_c, 0, 57, 95
2, 65518, Note_off_c, 0, 57, 80
2, 65520, Note_on_c, 0, 57, 95
2, 65758, Note_off_c, 0, 61, 80
2, 65760, Note_on_c, 0, 61, 95
2, 65998, Note_off_c, 0, 66, 80
2, 66000, Note_on_c, 0, 66, 95
2, 66238, Note_off_c, 0, 42, 80
2, 66238, Note_off_c, 0, 54, 80
2, 66238, Note_off_c, 0, 57, 80
2, 66238, Note_off_c, 0, 61, 80
2, 66240, Note_on_c, 0, 43, 95
2, 66240, Note_on_c, 0, 50, 95
2, 66240, Note_on_c, 0, 55, 95
2, 66240, Note_on_c, 0, 62, 95
2, 67318, Note_off_c, 0, 62, 80
2, 67320, Note_on_c, 0, 69, 95
2, 67438, Note_off_c, 0, 66, 80
2, 67440, Note_on_c, 0, 74, 95
2, 67558, Note_off_c, 0, 69, 80
2, 67560, Note_on_c, 0, 69, 95
2, 67678, Note_off_c, 0, 55, 80
2, 67680, Note_on_c, 0, 62, 95
2, 68158, Note_off_c, 0, 43, 80
2, 68158, Note_off_c, 0, 50, 80
2, 68158, Note_off_c, 0, 74, 80
2, 68158, Note_off_c, 0, 69, 80
2, 68158, Note_off_c, 0, 62, 80
2, 68160, Note_on_c, 0, 40, 95
2, 68160, Note_on_c, 0, 52, 95
2, 68160, Note_on_c, 0, 59, 95
2, 68160, Note_on_c, 0, 62, 95
2, 68160, Note_on_c, 0, 66, 95
2, 68518, Note_off_c, 0, 62, 80
2, 68520, Note_on_c, 0, 62, 95
2, 69598, Note_off_c, 0, 59, 80
2, 69598, Note_off_c, 0, 66, 80
2, 69600, Note_on_c, 0, 59, 95
2, 69600, Note_on_c, 0, 66, 95
2, 69718, Note_off_c, 0, 62, 80
2, 69720, Note_on_c, 0, 62, 95
2, 69838, Note_off_c, 0, 66, 80
2, 69840, Note_on_c, 0, 66, 95
2, 69958, Note_off_c, 0, 66, 80
2, 69960, Note_on_c, 0, 67, 95
2, 70078, Note_off_c, 0, 40, 80
2, 70078, Note_off_c, 0, 52, 80
2, 70078, Note_off_c, 0, 62, 80
2, 70078, Note_off_c, 0, 67, 80
2, 70080, Note_on_c, 0, 38, 95
2, 70080, Note_on_c, 0, 50, 95
2, 70080, Note_on_c, 0, 54, 95
2, 70080, Note_on_c, 0, 62, 95
2, 70080, Note_on_c, 0, 66, 95
2, 70438, Note_off_c, 0, 59, 80
2, 70440, Note_on_c, 0, 57, 95
2, 70798, Note_off_c, 0, 54, 80
2, 70798, Note_off_c, 0, 62, 80
2, 70798, Note_off_c, 0, 66, 80
2, 70798, Note_off_c, 0, 57, 80
2, 70800, Note_on_c, 0, 50, 95
2, 70800, Note_on_c, 0, 57, 95
2, 70800, Note_on_c, 0, 62, 95
2, 70800, Note_on_c, 0, 64, 95
2, 70918, Note_off_c, 0, 50, 80
2, 70918, Note_off_c, 0, 57, 80
2, 70918, Note_off_c, 0, 62, 80
2, 70918, Note_off_c, 0, 64, 80
2, 70920, Note_on_c, 0, 50, 95
2, 70920, Note_on_c, 0, 57, 95
2, 70920, Note_on_c, 0, 62, 95
2, 70920, Note_on_c, 0, 64, 95
2, 71158, Note_off_c, 0, 57, 80
2, 71160, Note_on_c, 0, 57, 95
2, 71278, Note_off_c, 0, 62, 80
2, 71280, Note_on_c, 0, 62, 95
2, 71758, Note_off_c, 0, 57, 80
2, 71758, Note_off_c, 0, 62, 80
2, 71760, Note_on_c, 0, 57, 95
2, 71760, Note_on_c, 0, 62, 95
2, 71878, Note_off_c, 0, 64, 80
2, 71880, Note_on_c, 0, 64, 95
2, 71998, Note_off_c, 0, 38, 80
2, 71998, Note_off_c, 0, 50, 80
2, 71998, Note_off_c, 0, 50, 80
2, 71998, Note_off_c, 0, 62, 80
2, 71998, Note_off_c, 0, 64, 80
2, 72000, Note_on_c, 0, 42, 95
2, 72000, Note_on_c, 0, 54, 95
2, 72000, Note_on_c, 0, 61, 95
2, 72000, Note_on_c, 0, 66, 95
2, 72238, Note_off_c, 0, 61, 80
2, 72240, Note_on_c, 0, 66, 95
2, 72358, Note_off_c, 0, 57, 80
2, 72360, Note_on_c, 0, 61, 95
2, 72478, Note_off_c, 0, 66, 80
2, 72478, Note_off_c, 0, 66, 80
2, 72480, Note_on_c, 0, 66, 95
2, 72480, Note_on_c, 0, 73, 95
2, 72598, Note_off_c, 0, 61, 80
2, 72600, Note_on_c, 0, 61, 95
2, 72718, Note_off_c, 0, 54, 80
2, 72720, Note_on_c, 0, 57, 95
2, 73198, Note_off_c, 0, 57, 80
2, 73200, Note_on_c, 0, 54, 95
2, 73318, Note_off_c, 0, 61, 80
2, 73320, Note_on_c, 0, 57, 95
2, 73438, Note_off_c, 0, 66, 80
2, 73438, Note_off_c, 0, 73, 80
2, 73440, Note_on_c, 0, 61, 95
2, 73440, Note_on_c, 0, 66, 95
2, 73558, Note_off_c, 0, 57, 80
2, 73560, Note_on_c, 0, 57, 95
2, 73678, Note_off_c, 0, 66, 80
2, 73680, Note_on_c, 0, 64, 95
2, 73918, Note_off_c, 0, 42, 80
2, 73918, Note_off_c, 0, 54, 80
2, 73918, Note_off_c, 0, 61, 80
2, 73918, Note_off_c, 0, 57, 80
2, 73920, Note_on_c, 0, 40, 95
2, 73920, Note_on_c, 0, 47, 95
2, 73920, Note_on_c, 0, 52, 95
2, 73920, Note_on_c, 0, 55, 95
2, 73920, Note_on_c, 0, 62, 95
2, 74638, Note_off_c, 0, 64, 80
2, 74638, Note_off_c, 0, 40, 80
2, 74638, Note_off_c, 0, 55, 80
2, 74638, Note_off_c, 0, 62, 80
2, 74640, Note_on_c, 0, 40, 95
2, 74640, Note_on_c, 0, 55, 95
2, 74640, Note_on_c, 0, 62, 95
2, 74640, Note_on_c, 0, 67, 95
2, 74998, Note_off_c, 0, 55, 80
2, 75000, Note_on_c, 0, 62, 95
2, 75118, Note_off_c, 0, 62, 80
2, 75120, Note_on_c, 0, 67, 95
2, 75238, Note_off_c, 0, 62, 80
2, 75240, Note_on_c, 0, 62, 95
2, 75358, Note_off_c, 0, 67, 80
2, 75358, Note_off_c, 0, 67, 80
2, 75360, Note_on_c, 0, 67, 95
2, 75360, Note_on_c, 0, 74, 95
2, 75598, Note_off_c, 0, 62, 80
2, 75600, Note_on_c, 0, 62, 95
2, 75718, Note_off_c, 0, 52, 80
2, 75720, Note_on_c, 0, 57, 95
2, 75838, Note_off_c, 0, 47, 80
2, 75838, Note_off_c, 0, 40, 80
2, 75838, Note_off_c, 0, 67, 80
2, 75838, Note_off_c, 0, 62, 80
2, 75838, Note_off_c, 0, 57, 80
2, 75840, Note_on_c, 0, 43, 95
2, 75840, Note_on_c, 0, 50, 95
2, 75840, Note_on_c, 0, 57, 95
2, 75840, Note_on_c, 0, 62, 95
2, 76798, Note_off_c, 0, 74, 80
2, 76798, Note_off_c, 0, 50, 80
2, 76798, Note_off_c, 0, 57, 80
2, 76800, Note_on_c, 0, 45, 95
2, 76800, Note_on_c, 0, 52, 95
2, 76800, Note_on_c, 0, 57, 95
2, 76800, Note_on_c, 0, 64, 95
2, 77278, Note_off_c, 0, 45, 80
2, 77278, Note_off_c, 0, 52, 80
2, 77278, Note_off_c, 0, 57, 80
2, 77278, Note_off_c, 0, 64, 80
2, 77280, Note_on_c, 0, 45, 95
2, 77280, Note_on_c, 0, 52, 95
2, 77280, Note_on_c, 0, 57, 95
2, 77280, Note_on_c, 0, 64, 95
2, 77758, Note_off_c, 0, 43, 80
2, 77758, Note_off_c, 0, 62, 80
2, 77758, Note_off_c, 0, 45, 80
2, 77758, Note_off_c, 0, 52, 80
2, 77758, Note_off_c, 0, 57, 80
2, 77758, Note_off_c, 0, 64, 80
2, 77760, Note_on_c, 0, 35, 95
2, 77760, Note_on_c, 0, 47, 95
2, 77760, Note_on_c, 0, 54, 95
2, 77760, Note_on_c, 0, 59, 95
2, 77760, Note_on_c, 0, 66, 95
2, 78120, Note_on_c, 0, 61, 95
2, 78478, Note_off_c, 0, 54, 80
2, 78478, Note_off_c, 0, 66, 80
2, 78480, Note_on_c, 0, 54, 95
2, 78480, Note_on_c, 0, 66, 95
2, 79678, Note_off_c, 0, 35, 80
2, 79678, Note_off_c, 0, 47, 80
2, 79678, Note_off_c, 0, 59, 80
2, 79678, Note_off_c, 0, 61, 80
2, 79678, Note_off_c, 0, 54, 80
2, 79678, Note_off_c, 0, 66, 80
2, 79680, Note_on_c, 0, 42, 95
2, 79680, Note_on_c, 0, 55, 95
2, 79680, Note_on_c, 0, 59, 95
2, 79680, Note_on_c, 0, 61, 95
2, 79680, Note_on_c, 0, 66, 95
2, 79918, Note_off_c, 0, 59, 80
2, 79918, Note_off_c, 0, 66, 80
2, 79920, Note_on_c, 0, 59, 95
2, 79920, Note_on_c, 0, 71, 95
2, 80158, Note_off_c, 0, 59, 80
2, 80158, Note_off_c, 0, 71, 80
2, 80160, Note_on_c, 0, 61, 95
2, 80160, Note_on_c, 0, 73, 95
2, 80398, Note_off_c, 0, 61, 80
2, 80398, Note_off_c, 0, 61, 80
2, 80398, Note_off_c, 0, 73, 80
2, 80400, Note_on_c, 0, 66, 95
2, 80400, Note_on_c, 0, 71, 95
2, 80400, Note_on_c, 0, 78, 95
2, 81238, Note_off_c, 0, 66, 80
2, 81240, Note_on_c, 0, 59, 95
2, 81358, Note_off_c, 0, 78, 80
2, 81360, Note_on_c, 0, 66, 95
2, 81478, Note_off_c, 0, 59, 80
2, 81480, Note_on_c, 0, 59, 95
2, 81598, Note_off_c, 0, 42, 80
2, 81598, Note_off_c, 0, 55, 80
2, 81598, Note_off_c, 0, 66, 80
2, 81598, Note_off_c, 0, 59, 80
2, 81600, Note_on_c, 0, 49, 95
2, 81600, Note_on_c, 0, 55, 95
2, 81600, Note_on_c, 0, 61, 95
2, 81600, Note_on_c, 0, 64, 95
2, 81958, Note_off_c, 0, 71, 80
2, 81960, Note_on_c, 0, 59, 95
2, 82318, Note_off_c, 0, 49, 80
2, 82318, Note_off_c, 0, 55, 80
2, 82318, Note_off_c, 0, 61, 80
2, 82318, Note_off_c, 0, 64, 80
2, 82318, Note_off_c, 0, 59, 80
2, 82320, Note_on_c, 0, 49, 95
2, 82320, Note_on_c, 0, 55, 95
2, 82320, Note_on_c, 0, 59, 95
2, 82320, Note_on_c, 0, 61, 95
2, 82320, Note_on_c, 0, 64, 95
2, 83038, Note_off_c, 0, 49, 80
2, 83040, Note_on_c, 0, 49, 95
2, 83158, Note_off_c, 0, 55, 80
2, 83160, Note_on_c, 0, 55, 95
2, 83278, Note_off_c, 0, 59, 80
2, 83280, Note_on_c, 0, 59, 95
2, 83518, Note_off_c, 0, 61, 80
2, 83518, Note_off_c, 0, 64, 80
2, 83518, Note_off_c, 0, 55, 80
2, 83518, Note_off_c, 0, 59, 80
2, 83520, Note_on_c, 0, 40, 95
2, 83520, Note_on_c, 0, 52, 95
2, 83520, Note_on_c, 0, 55, 95
2, 83520, Note_on_c, 0, 59, 95
2, 83520, Note_on_c, 0, 64, 95
2, 83878, Note_off_c, 0, 52, 80
2, 83878, Note_off_c, 0, 64, 80
2, 83880, Note_on_c, 0, 54, 95
2, 83880, Note_on_c, 0, 66, 95
2, 84238, Note_off_c, 0, 54, 80
2, 84238, Note_off_c, 0, 66, 80
2, 84240, Note_on_c, 0, 55, 95
2, 84240, Note_on_c, 0, 67, 95
2, 84478, Note_off_c, 0, 40, 80
2, 84478, Note_off_c, 0, 55, 80
2, 84478, Note_off_c, 0, 59, 80
2, 84478, Note_off_c, 0, 55, 80
2, 84478, Note_off_c, 0, 67, 80
2, 84480, Note_on_c, 0, 42, 95
2, 84480, Note_on_c, 0, 54, 95
2, 84480, Note_on_c, 0, 59, 95
2, 84480, Note_on_c, 0, 61, 95
2, 84480, Note_on_c, 0, 66, 95
2, 84958, Note_off_c, 0, 49, 80
2, 84958, Note_off_c, 0, 42, 80
2, 84958, Note_off_c, 0, 54, 80
2, 84958, Note_off_c, 0, 59, 80
2, 84958, Note_off_c, 0, 61, 80
2, 84958, Note_off_c, 0, 66, 80
2, 84960, Note_on_c, 0, 42, 95
2, 84960, Note_on_c, 0, 54, 95
2, 84960, Note_on_c, 0, 58, 95
2, 84960, Note_on_c, 0, 61, 95
2, 84960, Note_on_c, 0, 66, 95
2, 85438, Note_off_c, 0, 54, 80
2, 85438, Note_off_c, 0, 58, 80
2, 85438, Note_off_c, 0, 61, 80
2, 85440, Note_on_c, 0, 35, 95
2, 85440, Note_on_c, 0, 47, 95
2, 85440, Note_on_c, 0, 54, 95
2, 85440, Note_on_c, 0, 59, 95
2, 85440, Note_on_c, 0, 62, 95
2, 85798, Note_off_c, 0, 35, 80
2, 85798, Note_off_c, 0, 47, 80
2, 85800, Note_on_c, 0, 35, 95
2, 85800, Note_on_c, 0, 47, 95
2, 86038, Note_off_c, 0, 59, 80
2, 86040, Note_on_c, 0, 66, 95
2, 86158, Note_off_c, 0, 66, 80
2, 86158, Note_off_c, 0, 66, 80
2, 86160, Note_on_c, 0, 73, 95
2, 86160, Note_on_c, 0, 85, 95
2, 86638, Note_off_c, 0, 73, 80
2, 86638, Note_off_c, 0, 85, 80
2, 86640, Note_on_c, 0, 71, 95
2, 86640, Note_on_c, 0, 83, 95
2, 86878, Note_off_c, 0, 42, 80
2, 86878, Note_off_c, 0, 71, 80
2, 86878, Note_off_c, 0, 83, 80
2, 86880, Note_on_c, 0, 66, 95
2, 86880, Note_on_c, 0, 78, 95
2, 87118, Note_off_c, 0, 66, 80
2, 87118, Note_off_c, 0, 78, 80
2, 87120, Note_on_c, 0, 62, 95
2, 87120, Note_on_c, 0, 74, 95
2, 87358, Note_off_c, 0, 54, 80
2, 87358, Note_off_c, 0, 62, 80
2, 87358, Note_off_c, 0, 35, 80
2, 87358, Note_off_c, 0, 62, 80
2, 87358, Note_off_c, 0, 74, 80
2, 87360, Note_on_c, 0, 43, 95
2, 87360, Note_on_c, 0, 62, 95
2, 87360, Note_on_c, 0, 67, 95
2, 87360, Note_on_c, 0, 73, 95
2, 87718, Note_off_c, 0, 47, 80
2, 87718, Note_off_c, 0, 43, 80
2, 87718, Note_off_c, 0, 62, 80
2, 87718, Note_off_c, 0, 67, 80
2, 87718, Note_off_c, 0, 73, 80
2, 87720, Note_on_c, 0, 43, 95
2, 87720, Note_on_c, 0, 62, 95
2, 87720, Note_on_c, 0, 67, 95
2, 87720, Note_on_c, 0, 74, 95
2, 88078, Note_off_c, 0, 62, 80
2, 88080, Note_on_c, 0, 57, 95
2, 88080, Note_on_c, 0, 62, 95
2, 88798, Note_off_c, 0, 57, 80
2, 88800, Note_on_c, 0, 55, 95
2, 88918, Note_off_c, 0, 55, 80
2, 88920, Note_on_c, 0, 57, 95
2, 89038, Note_off_c, 0, 62, 80
2, 89040, Note_on_c, 0, 62, 95
2, 89158, Note_off_c, 0, 67, 80
2, 89160, Note_on_c, 0, 64, 95
2, 89218, Note_off_c, 0, 64, 80
2, 89220, Note_on_c, 0, 66, 76
2, 89278, Note_off_c, 0, 74, 80
2, 89278, Note_off_c, 0, 57, 80
2, 89278, Note_off_c, 0, 62, 80
2, 89278, Note_off_c, 0, 66, 80
2, 89280, Note_on_c, 0, 40, 95
2, 89280, Note_on_c, 0, 52, 95
2, 89280, Note_on_c, 0, 59, 95
2, 89280, Note_on_c, 0, 62, 95
2, 89280, Note_on_c, 0, 66, 95
2, 89518, Note_off_c, 0, 62, 80
2, 89520, Note_on_c, 0, 62, 95
2, 89638, Note_off_c, 0, 43, 80
2, 89638, Note_off_c, 0, 59, 80
2, 89638, Note_off_c, 0, 66, 80
2, 89640, Note_on_c, 0, 55, 95
2, 89640, Note_on_c, 0, 67, 95
2, 89878, Note_off_c, 0, 62, 80
2, 89880, Note_on_c, 0, 62, 95
2, 89998, Note_off_c, 0, 40, 80
2, 89998, Note_off_c, 0, 52, 80
2, 89998, Note_off_c, 0, 55, 80
2, 89998, Note_off_c, 0, 67, 80
2, 89998, Note_off_c, 0, 62, 80
2, 90000, Note_on_c, 0, 40, 95
2, 90000, Note_on_c, 0, 52, 95
2, 90000, Note_on_c, 0, 59, 95
2, 90000, Note_on_c, 0, 62, 95
2, 90000, Note_on_c, 0, 67, 95
2, 91198, Note_off_c, 0, 52, 80
2, 91198, Note_off_c, 0, 59, 80
2, 91198, Note_off_c, 0, 62, 80
2, 91198, Note_off_c, 0, 67, 80
2, 91200, Note_on_c, 0, 38, 95
2, 91200, Note_on_c, 0, 50, 95
2, 91200, Note_on_c, 0, 55, 95
2, 91200, Note_on_c, 0, 62, 95
2, 91200, Note_on_c, 0, 67, 95
2, 91438, Note_off_c, 0, 55, 80
2, 91440, Note_on_c, 0, 59, 95
2, 91558, Note_off_c, 0, 62, 80
2, 91560, Note_on_c, 0, 62, 95
2, 91678, Note_off_c, 0, 67, 80
2, 91680, Note_on_c, 0, 67, 95
2, 91798, Note_off_c, 0, 62, 80
2, 91800, Note_on_c, 0, 62, 95
2, 91918, Note_off_c, 0, 40, 80
2, 91918, Note_off_c, 0, 59, 80
2, 91920, Note_on_c, 0, 55, 95
2, 92158, Note_off_c, 0, 38, 80
2, 92158, Note_off_c, 0, 50, 80
2, 92158, Note_off_c, 0, 62, 80
2, 92158, Note_off_c, 0, 55, 80
2, 92160, Note_on_c, 0, 48, 95
2, 92160, Note_on_c, 0, 55, 95
2, 92160, Note_on_c, 0, 60, 95
2, 92160, Note_on_c, 0, 62, 95
2, 93118, Note_off_c, 0, 67, 80
2, 93178, Note_off_c, 0, 55, 80
2, 93180, Note_on_c, 0, 62, 95
2, 93238, Note_off_c, 0, 60, 80
2, 93240, Note_on_c, 0, 67, 95
2, 93298, Note_off_c, 0, 62, 80
2, 93300, Note_on_c, 0, 74, 95
2, 93360, Note_on_c, 0, 79, 95
2, 94078, Note_off_c, 0, 48, 80
2, 95998, Note_off_c, 0, 62, 80
2, 95998, Note_off_c, 0, 67, 80
2, 95998, Note_off_c, 0, 74, 80
2, 95998, Note_off_c, 0, 79, 80
2, 96000, Note_on_c, 0, 42, 95
2, 96240, Note_on_c, 0, 61, 95
2, 96360, Note_on_c, 0, 54, 95
2, 96480, Note_on_c, 0, 64, 95
2, 96598, Note_off_c, 0, 54, 80
2, 96600, Note_on_c, 0, 54, 95
2, 96720, Note_on_c, 0, 59, 95
2, 96838, Note_off_c, 0, 61, 80
2, 96840, Note_on_c, 0, 61, 95
2, 96958, Note_off_c, 0, 54, 80
2, 96960, Note_on_c, 0, 54, 95
2, 97078, Note_off_c, 0, 64, 80
2, 97080, Note_on_c, 0, 64, 95
2, 97198, Note_off_c, 0, 54, 80
2, 97200, Note_on_c, 0, 54, 95
2, 97438, Note_off_c, 0, 59, 80
2, 97440, Note_on_c, 0, 59, 95
2, 97678, Note_off_c, 0, 54, 80
2, 97680, Note_on_c, 0, 54, 95
2, 97800, Note_on_c, 0, 49, 95
2, 97918, Note_off_c, 0, 42, 80
2, 97920, Note_on_c, 0, 42, 95
2, 98038, Note_off_c, 0, 54, 80
2, 98040, Note_on_c, 0, 54, 95
2, 98158, Note_off_c, 0, 61, 80
2, 98160, Note_on_c, 0, 61, 95
2, 98278, Note_off_c, 0, 54, 80
2, 98280, Note_on_c, 0, 54, 95
2, 98398, Note_off_c, 0, 64, 80
2, 98400, Note_on_c, 0, 64, 95
2, 98518, Note_off_c, 0, 54, 80
2, 98520, Note_on_c, 0, 54, 95
2, 98638, Note_off_c, 0, 59, 80
2, 98640, Note_on_c, 0, 59, 95
2, 98758, Note_off_c, 0, 61, 80
2, 98760, Note_on_c, 0, 61, 95
2, 98878, Note_off_c, 0, 54, 80
2, 98880, Note_on_c, 0, 54, 95
2, 98998, Note_off_c, 0, 64, 80
2, 99000, Note_on_c, 0, 66, 95
2, 99238, Note_off_c, 0, 54, 80
2, 99240, Note_on_c, 0, 54, 95
2, 99358, Note_off_c, 0, 59, 80
2, 99360, Note_on_c, 0, 59, 95
2, 99478, Note_off_c, 0, 49, 80
2, 99480, Note_on_c, 0, 49, 95
2, 99598, Note_off_c, 0, 61, 80
2, 99600, Note_on_c, 0, 61, 95
2, 99718, Note_off_c, 0, 54, 80
2, 99720, Note_on_c, 0, 54, 95
2, 99838, Note_off_c, 0, 42, 80
2, 99838, Note_off_c, 0, 49, 80
2, 99840, Note_on_c, 0, 49, 95
2, 99958, Note_off_c, 0, 54, 80
2, 99960, Note_on_c, 0, 54, 95
2, 100078, Note_off_c, 0, 59, 80
2, 100078, Note_off_c, 0, 61, 80
2, 100080, Note_on_c, 0, 59, 95
2, 100080, Note_on_c, 0, 61, 95
2, 100198, Note_off_c, 0, 54, 80
2, 100200, Note_on_c, 0, 54, 95
2, 100318, Note_off_c, 0, 66, 80
2, 100320, Note_on_c, 0, 64, 95
2, 100438, Note_off_c, 0, 54, 80
2, 100440, Note_on_c, 0, 54, 95
2, 100558, Note_off_c, 0, 59, 80
2, 100560, Note_on_c, 0, 59, 95
2, 100678, Note_off_c, 0, 61, 80
2, 100680, Note_on_c, 0, 61, 95
2, 100798, Note_off_c, 0, 54, 80
2, 100800, Note_on_c, 0, 54, 95
2, 100918, Note_off_c, 0, 64, 80
2, 100920, Note_on_c, 0, 64, 95
2, 101158, Note_off_c, 0, 54, 80
2, 101160, Note_on_c, 0, 54, 95
2, 101278, Note_off_c, 0, 59, 80
2, 101280, Note_on_c, 0, 59, 95
2, 101398, Note_off_c, 0, 54, 80
2, 101400, Note_on_c, 0, 54, 95
2, 101518, Note_off_c, 0, 61, 80
2, 101520, Note_on_c, 0, 61, 95
2, 101638, Note_off_c, 0, 54, 80
2, 101640, Note_on_c, 0, 54, 95
2, 101758, Note_off_c, 0, 49, 80
2, 101760, Note_on_c, 0, 42, 95
2, 101878, Note_off_c, 0, 54, 80
2, 101880, Note_on_c, 0, 54, 95
2, 101998, Note_off_c, 0, 61, 80
2, 102000, Note_on_c, 0, 61, 95
2, 102118, Note_off_c, 0, 54, 80
2, 102120, Note_on_c, 0, 54, 95
2, 102238, Note_off_c, 0, 64, 80
2, 102240, Note_on_c, 0, 64, 95
2, 102358, Note_off_c, 0, 54, 80
2, 102360, Note_on_c, 0, 54, 95
2, 102478, Note_off_c, 0, 59, 80
2, 102480, Note_on_c, 0, 59, 95
2, 102598, Note_off_c, 0, 61, 80
2, 102600, Note_on_c, 0, 61, 95
2, 102718, Note_off_c, 0, 54, 80
2, 102720, Note_on_c, 0, 54, 95
2, 102838, Note_off_c, 0, 64, 80
2, 102840, Note_on_c, 0, 66, 95
2, 102958, Note_off_c, 0, 54, 80
2, 102960, Note_on_c, 0, 54, 95
2, 103078, Note_off_c, 0, 59, 80
2, 103080, Note_on_c, 0, 59, 95
2, 103198, Note_off_c, 0, 61, 80
2, 103200, Note_on_c, 0, 61, 95
2, 103438, Note_off_c, 0, 54, 80
2, 103440, Note_on_c, 0, 54, 95
2, 103560, Note_on_c, 0, 49, 95
2, 103678, Note_off_c, 0, 42, 80
2, 103680, Note_on_c, 0, 42, 95
2, 103798, Note_off_c, 0, 54, 80
2, 103800, Note_on_c, 0, 54, 95
2, 103918, Note_off_c, 0, 61, 80
2, 103920, Note_on_c, 0, 61, 95
2, 104038, Note_off_c, 0, 54, 80
2, 104040, Note_on_c, 0, 54, 95
2, 104158, Note_off_c, 0, 66, 80
2, 104160, Note_on_c, 0, 64, 95
2, 104278, Note_off_c, 0, 54, 80
2, 104280, Note_on_c, 0, 54, 95
2, 104398, Note_off_c, 0, 59, 80
2, 104400, Note_on_c, 0, 59, 95
2, 104518, Note_off_c, 0, 61, 80
2, 104520, Note_on_c, 0, 61, 95
2, 104638, Note_off_c, 0, 54, 80
2, 104640, Note_on_c, 0, 54, 95
2, 104758, Note_off_c, 0, 64, 80
2, 104760, Note_on_c, 0, 64, 95
2, 104998, Note_off_c, 0, 54, 80
2, 105000, Note_on_c, 0, 54, 95
2, 105118, Note_off_c, 0, 59, 80
2, 105120, Note_on_c, 0, 59, 95
2, 105358, Note_off_c, 0, 54, 80
2, 105360, Note_on_c, 0, 54, 95
2, 105478, Note_off_c, 0, 49, 80
2, 105480, Note_on_c, 0, 49, 95
2, 105598, Note_off_c, 0, 42, 80
2, 105600, Note_on_c, 0, 42, 95
2, 105718, Note_off_c, 0, 54, 80
2, 105720, Note_on_c, 0, 54, 95
2, 105838, Note_off_c, 0, 61, 80
2, 105840, Note_on_c, 0, 61, 95
2, 105958, Note_off_c, 0, 54, 80
2, 105960, Note_on_c, 0, 54, 95
2, 106078, Note_off_c, 0, 64, 80
2, 106080, Note_on_c, 0, 66, 95
2, 106198, Note_off_c, 0, 54, 80
2, 106200, Note_on_c, 0, 54, 95
2, 106318, Note_off_c, 0, 59, 80
2, 106320, Note_on_c, 0, 59, 95
2, 106438, Note_off_c, 0, 61, 80
2, 106440, Note_on_c, 0, 61, 95
2, 106558, Note_off_c, 0, 54, 80
2, 106560, Note_on_c, 0, 54, 95
2, 106678, Note_off_c, 0, 59, 80
2, 106680, Note_on_c, 0, 59, 95
2, 106798, Note_off_c, 0, 66, 80
2, 106800, Note_on_c, 0, 64, 95
2, 106918, Note_off_c, 0, 54, 80
2, 106920, Note_on_c, 0, 52, 95
2, 107038, Note_off_c, 0, 52, 80
2, 107040, Note_on_c, 0, 54, 95
2, 107158, Note_off_c, 0, 61, 80
2, 107160, Note_on_c, 0, 59, 95
2, 107278, Note_off_c, 0, 54, 80
2, 107280, Note_on_c, 0, 54, 95
2, 107398, Note_off_c, 0, 49, 80
2, 107398, Note_off_c, 0, 54, 80
2, 107400, Note_on_c, 0, 52, 95
2, 107518, Note_off_c, 0, 42, 80
2, 107520, Note_on_c, 0, 49, 95
2, 107638, Note_off_c, 0, 52, 80
2, 107640, Note_on_c, 0, 54, 95
2, 107758, Note_off_c, 0, 59, 80
2, 107760, Note_on_c, 0, 61, 95
2, 107878, Note_off_c, 0, 54, 80
2, 107880, Note_on_c, 0, 54, 95
2, 107998, Note_off_c, 0, 64, 80
2, 108000, Note_on_c, 0, 64, 95
2, 108118, Note_off_c, 0, 54, 80
2, 108120, Note_on_c, 0, 54, 95
2, 108238, Note_off_c, 0, 59, 80
2, 108240, Note_on_c, 0, 59, 95
2, 108358, Note_off_c, 0, 61, 80
2, 108360, Note_on_c, 0, 61, 95
2, 108478, Note_off_c, 0, 54, 80
2, 108480, Note_on_c, 0, 52, 95
2, 108598, Note_off_c, 0, 52, 80
2, 108600, Note_on_c, 0, 54, 95
2, 108718, Note_off_c, 0, 64, 80
2, 108720, Note_on_c, 0, 66, 95
2, 108838, Note_off_c, 0, 54, 80
2, 108840, Note_on_c, 0, 52, 95
2, 108958, Note_off_c, 0, 52, 80
2, 108960, Note_on_c, 0, 54, 95
2, 109078, Note_off_c, 0, 59, 80
2, 109080, Note_on_c, 0, 59, 95
2, 109198, Note_off_c, 0, 61, 80
2, 109200, Note_on_c, 0, 61, 95
2, 109318, Note_off_c, 0, 54, 80
2, 109320, Note_on_c, 0, 54, 95
2, 109438, Note_off_c, 0, 49, 80
2, 109440, Note_on_c, 0, 42, 95
2, 109558, Note_off_c, 0, 54, 80
2, 109560, Note_on_c, 0, 54, 95
2, 109678, Note_off_c, 0, 61, 80
2, 109680, Note_on_c, 0, 61, 95
2, 109798, Note_off_c, 0, 54, 80
2, 109800, Note_on_c, 0, 54, 95
2, 109918, Note_off_c, 0, 66, 80
2, 109920, Note_on_c, 0, 64, 95
2, 110038, Note_off_c, 0, 54, 80
2, 110040, Note_on_c, 0, 54, 95
2, 110158, Note_off_c, 0, 59, 80
2, 110160, Note_on_c, 0, 59, 95
2, 110278, Note_off_c, 0, 64, 80
2, 110280, Note_on_c, 0, 66, 95
2, 110518, Note_off_c, 0, 54, 80
2, 110520, Note_on_c, 0, 54, 95
2, 110638, Note_off_c, 0, 61, 80
2, 110640, Note_on_c, 0, 59, 95
2, 110758, Note_off_c, 0, 59, 80
2, 110760, Note_on_c, 0, 55, 95
2, 110878, Note_off_c, 0, 54, 80
2, 110880, Note_on_c, 0, 54, 95
2, 110998, Note_off_c, 0, 55, 80
2, 111000, Note_on_c, 0, 59, 95
2, 111118, Note_off_c, 0, 59, 80
2, 111120, Note_on_c, 0, 61, 95
2, 111238, Note_off_c, 0, 59, 80
2, 111240, Note_on_c, 0, 59, 95
2, 111358, Note_off_c, 0, 42, 80
2, 111358, Note_off_c, 0, 54, 80
2, 111360, Note_on_c, 0, 42, 95
2, 111360, Note_on_c, 0, 54, 95
2, 111598, Note_off_c, 0, 59, 80
2, 111600, Note_on_c, 0, 59, 95
2, 111838, Note_off_c, 0, 66, 80
2, 111840, Note_on_c, 0, 64, 95
2, 112078, Note_off_c, 0, 59, 80
2, 112080, Note_on_c, 0, 59, 95
2, 112198, Note_off_c, 0, 61, 80
2, 112200, Note_on_c, 0, 61, 95
2, 112318, Note_off_c, 0, 54, 80
2, 112320, Note_on_c, 0, 54, 95
2, 112558, Note_off_c, 0, 64, 80
2, 112558, Note_off_c, 0, 61, 80
2, 112560, Note_on_c, 0, 59, 95
2, 112560, Note_on_c, 0, 64, 95
2, 112798, Note_off_c, 0, 54, 80
2, 112800, Note_on_c, 0, 52, 95
2, 113038, Note_off_c, 0, 59, 80
2, 113040, Note_on_c, 0, 59, 95
2, 113160, Note_on_c, 0, 49, 95
2, 113278, Note_off_c, 0, 42, 80
2, 113280, Note_on_c, 0, 42, 95
2, 113518, Note_off_c, 0, 52, 80
2, 113520, Note_on_c, 0, 52, 95
2, 113638, Note_off_c, 0, 42, 80
2, 113640, Note_on_c, 0, 42, 95
2, 113758, Note_off_c, 0, 64, 80
2, 113760, Note_on_c, 0, 64, 95
2, 113998, Note_off_c, 0, 59, 80
2, 114000, Note_on_c, 0, 59, 95
2, 114118, Note_off_c, 0, 59, 80
2, 114120, Note_on_c, 0, 61, 95
2, 114238, Note_off_c, 0, 52, 80
2, 114240, Note_on_c, 0, 54, 95
2, 114478, Note_off_c, 0, 64, 80
2, 114480, Note_on_c, 0, 66, 95
2, 114718, Note_off_c, 0, 54, 80
2, 114720, Note_on_c, 0, 55, 95
2, 114838, Note_off_c, 0, 59, 80
2, 114840, Note_on_c, 0, 59, 95
2, 114958, Note_off_c, 0, 61, 80
2, 114960, Note_on_c, 0, 61, 95
2, 115078, Note_off_c, 0, 49, 80
2, 115078, Note_off_c, 0, 66, 80
2, 115080, Note_on_c, 0, 64, 95
2, 115198, Note_off_c, 0, 42, 80
2, 115200, Note_on_c, 0, 42, 95
2, 115438, Note_off_c, 0, 61, 80
2, 115440, Note_on_c, 0, 61, 95
2, 115558, Note_off_c, 0, 55, 80
2, 115560, Note_on_c, 0, 54, 95
2, 115678, Note_off_c, 0, 64, 80
2, 115678, Note_off_c, 0, 61, 80
2, 115680, Note_on_c, 0, 59, 95
2, 115680, Note_on_c, 0, 64, 95
2, 115798, Note_off_c, 0, 54, 80
2, 115800, Note_on_c, 0, 54, 95
2, 115918, Note_off_c, 0, 59, 80
2, 115920, Note_on_c, 0, 59, 95
2, 116038, Note_off_c, 0, 59, 80
2, 116040, Note_on_c, 0, 61, 95
2, 116278, Note_off_c, 0, 54, 80
2, 116280, Note_on_c, 0, 54, 95
2, 116398, Note_off_c, 0, 64, 80
2, 116398, Note_off_c, 0, 61, 80
2, 116400, Note_on_c, 0, 59, 95
2, 116400, Note_on_c, 0, 64, 95
2, 116518, Note_off_c, 0, 54, 80
2, 116520, Note_on_c, 0, 54, 95
2, 116638, Note_off_c, 0, 54, 80
2, 116640, Note_on_c, 0, 52, 95
2, 116758, Note_off_c, 0, 52, 80
2, 116760, Note_on_c, 0, 54, 95
2, 116878, Note_off_c, 0, 59, 80
2, 116880, Note_on_c, 0, 59, 95
2, 116998, Note_off_c, 0, 54, 80
2, 117000, Note_on_c, 0, 54, 95
2, 117118, Note_off_c, 0, 42, 80
2, 117118, Note_off_c, 0, 54, 80
2, 117120, Note_on_c, 0, 52, 95
2, 117358, Note_off_c, 0, 59, 80
2, 117360, Note_on_c, 0, 61, 95
2, 117478, Note_off_c, 0, 52, 80
2, 117480, Note_on_c, 0, 54, 95
2, 117598, Note_off_c, 0, 64, 80
2, 117600, Note_on_c, 0, 64, 95
2, 117718, Note_off_c, 0, 54, 80
2, 117720, Note_on_c, 0, 54, 95
2, 117838, Note_off_c, 0, 59, 80
2, 117840, Note_on_c, 0, 59, 95
2, 117958, Note_off_c, 0, 61, 80
2, 117960, Note_on_c, 0, 61, 95
2, 118078, Note_off_c, 0, 59, 80
2, 118080, Note_on_c, 0, 55, 95
2, 118198, Note_off_c, 0, 61, 80
2, 118200, Note_on_c, 0, 59, 95
2, 118258, Note_off_c, 0, 59, 80
2, 118260, Note_on_c, 0, 61, 76
2, 118318, Note_off_c, 0, 55, 80
2, 118320, Note_on_c, 0, 59, 95
2, 118438, Note_off_c, 0, 61, 80
2, 118440, Note_on_c, 0, 61, 95
2, 118558, Note_off_c, 0, 64, 80
2, 118560, Note_on_c, 0, 66, 95
2, 118678, Note_off_c, 0, 61, 80
2, 118680, Note_on_c, 0, 61, 95
2, 118798, Note_off_c, 0, 59, 80
2, 118800, Note_on_c, 0, 59, 95
2, 118918, Note_off_c, 0, 54, 80
2, 118920, Note_on_c, 0, 52, 95
2, 119040, Note_on_c, 0, 42, 95
2, 119158, Note_off_c, 0, 52, 80
2, 119160, Note_on_c, 0, 54, 95
2, 119278, Note_off_c, 0, 61, 80
2, 119280, Note_on_c, 0, 61, 95
2, 119398, Note_off_c, 0, 54, 80
2, 119400, Note_on_c, 0, 54, 95
2, 119518, Note_off_c, 0, 66, 80
2, 119520, Note_on_c, 0, 64, 95
2, 119638, Note_off_c, 0, 59, 80
2, 119640, Note_on_c, 0, 59, 95
2, 119758, Note_off_c, 0, 61, 80
2, 119760, Note_on_c, 0, 61, 95
2, 119878, Note_off_c, 0, 54, 80
2, 119880, Note_on_c, 0, 54, 95
2, 120238, Note_off_c, 0, 42, 80
2, 120240, Note_on_c, 0, 42, 95
2, 120358, Note_off_c, 0, 54, 80
2, 120360, Note_on_c, 0, 52, 95
2, 120478, Note_off_c, 0, 52, 80
2, 120480, Note_on_c, 0, 54, 95
2, 120598, Note_off_c, 0, 59, 80
2, 120600, Note_on_c, 0, 59, 95
2, 120718, Note_off_c, 0, 61, 80
2, 120720, Note_on_c, 0, 61, 95
2, 120838, Note_off_c, 0, 64, 80
2, 120840, Note_on_c, 0, 66, 95
2, 120958, Note_off_c, 0, 66, 80
2, 120960, Note_on_c, 0, 67, 95
2, 121078, Note_off_c, 0, 61, 80
2, 121080, Note_on_c, 0, 61, 95
2, 121198, Note_off_c, 0, 67, 80
2, 121200, Note_on_c, 0, 64, 95
2, 121318, Note_off_c, 0, 64, 80
2, 121320, Note_on_c, 0, 66, 95
2, 121558, Note_off_c, 0, 59, 80
2, 121560, Note_on_c, 0, 59, 95
2, 121678, Note_off_c, 0, 54, 80
2, 121680, Note_on_c, 0, 54, 95
2, 122878, Note_off_c, 0, 42, 80
2, 122878, Note_off_c, 0, 66, 80
2, 122880, Note_on_c, 0, 42, 95
2, 122880, Note_on_c, 0, 66, 95
2, 123238, Note_off_c, 0, 61, 80
2, 123238, Note_off_c, 0, 66, 80
2, 123240, Note_on_c, 0, 67, 95
2, 123360, Note_on_c, 0, 59, 95
2, 123478, Note_off_c, 0, 59, 80
2, 123478, Note_off_c, 0, 67, 80
2, 123480, Note_on_c, 0, 64, 95
2, 123598, Note_off_c, 0, 54, 80
2, 123598, Note_off_c, 0, 64, 80
2, 123600, Note_on_c, 0, 71, 95
2, 123838, Note_off_c, 0, 59, 80
2, 123840, Note_on_c, 0, 59, 95
2, 123958, Note_off_c, 0, 59, 80
2, 123960, Note_on_c, 0, 61, 95
2, 124080, Note_on_c, 0, 54, 95
2, 124200, Note_on_c, 0, 59, 95
2, 124318, Note_off_c, 0, 71, 80
2, 124320, Note_on_c, 0, 66, 95
2, 124438, Note_off_c, 0, 59, 80
2, 124440, Note_on_c, 0, 59, 95
2, 124558, Note_off_c, 0, 61, 80
2, 124560, Note_on_c, 0, 61, 95
2, 124678, Note_off_c, 0, 54, 80
2, 124678, Note_off_c, 0, 66, 80
2, 124680, Note_on_c, 0, 54, 95
2, 124680, Note_on_c, 0, 66, 95
2, 124798, Note_off_c, 0, 42, 80
2, 124918, Note_off_c, 0, 66, 80
2, 124920, Note_on_c, 0, 64, 95
2, 125158, Note_off_c, 0, 64, 80
2, 125160, Note_on_c, 0, 67, 95
2, 125278, Note_off_c, 0, 67, 80
2, 125280, Note_on_c, 0, 66, 95
2, 126358, Note_off_c, 0, 59, 80
2, 126358, Note_off_c, 0, 54, 80
2, 126358, Note_off_c, 0, 66, 80
2, 126360, Note_on_c, 0, 54, 95
2, 126478, Note_off_c, 0, 61, 80
2, 126480, Note_on_c, 0, 59, 95
2, 126600, Note_on_c, 0, 61, 95
2, 126720, Note_on_c, 0, 42, 95
2, 126958, Note_off_c, 0, 54, 80
2, 126960, Note_on_c, 0, 54, 95
2, 127080, Note_on_c, 0, 66, 95
2, 127198, Note_off_c, 0, 66, 80
2, 127200, Note_on_c, 0, 64, 95
2, 127438, Note_off_c, 0, 61, 80
2, 127440, Note_on_c, 0, 61, 95
2, 127558, Note_off_c, 0, 64, 80
2, 127560, Note_on_c, 0, 67, 95
2, 127798, Note_off_c, 0, 59, 80
2, 127800, Note_on_c, 0, 59, 95
2, 127918, Note_off_c, 0, 67, 80
2, 127920, Note_on_c, 0, 66, 95
2, 128158, Note_off_c, 0, 66, 80
2, 128160, Note_on_c, 0, 64, 95
2, 128278, Note_off_c, 0, 59, 80
2, 128280, Note_on_c, 0, 61, 95
2, 128398, Note_off_c, 0, 64, 80
2, 128400, Note_on_c, 0, 71, 95
2, 128518, Note_off_c, 0, 71, 80
2, 128520, Note_on_c, 0, 70, 95
2, 128638, Note_off_c, 0, 42, 80
2, 128758, Note_off_c, 0, 61, 80
2, 128760, Note_on_c, 0, 61, 95
2, 128878, Note_off_c, 0, 54, 80
2, 128878, Note_off_c, 0, 70, 80
2, 128880, Note_on_c, 0, 64, 95
2, 129118, Note_off_c, 0, 61, 80
2, 129120, Note_on_c, 0, 61, 95
2, 129238, Note_off_c, 0, 61, 80
2, 129240, Note_on_c, 0, 59, 95
2, 129358, Note_off_c, 0, 64, 80
2, 129360, Note_on_c, 0, 66, 95
2, 129478, Note_off_c, 0, 66, 80
2, 129480, Note_on_c, 0, 64, 95
2, 129718, Note_off_c, 0, 61, 80
2, 129720, Note_on_c, 0, 59, 95
2, 129838, Note_off_c, 0, 59, 80
2, 129840, Note_on_c, 0, 67, 95
2, 129958, Note_off_c, 0, 67, 80
2, 129960, Note_on_c, 0, 66, 95
2, 130078, Note_off_c, 0, 59, 80
2, 130080, Note_on_c, 0, 61, 95
2, 130318, Note_off_c, 0, 64, 80
2, 130320, Note_on_c, 0, 71, 95
2, 130438, Note_off_c, 0, 71, 80
2, 130440, Note_on_c, 0, 73, 95
2, 130560, Note_on_c, 0, 42, 95
2, 130678, Note_off_c, 0, 66, 80
2, 130680, Note_on_c, 0, 61, 95
2, 130798, Note_off_c, 0, 73, 80
2, 130800, Note_on_c, 0, 66, 95
2, 130918, Note_off_c, 0, 66, 80
2, 130920, Note_on_c, 0, 71, 95
2, 131038, Note_off_c, 0, 71, 80
2, 131040, Note_on_c, 0, 70, 95
2, 131158, Note_off_c, 0, 61, 80
2, 131160, Note_on_c, 0, 59, 95
2, 131278, Note_off_c, 0, 59, 80
2, 131280, Note_on_c, 0, 66, 95
2, 131398, Note_off_c, 0, 70, 80
2, 131400, Note_on_c, 0, 64, 95
2, 131518, Note_off_c, 0, 64, 80
2, 131520, Note_on_c, 0, 73, 95
2, 131638, Note_off_c, 0, 66, 80
2, 131640, Note_on_c, 0, 67, 95
2, 131758, Note_off_c, 0, 67, 80
2, 131760, Note_on_c, 0, 66, 95
2, 131878, Note_off_c, 0, 66, 80
2, 131880, Note_on_c, 0, 59, 95
2, 131998, Note_off_c, 0, 61, 80
2, 131998, Note_off_c, 0, 59, 80
2, 132000, Note_on_c, 0, 61, 95
2, 132118, Note_off_c, 0, 73, 80
2, 132120, Note_on_c, 0, 64, 95
2, 132240, Note_on_c, 0, 59, 95
2, 132358, Note_off_c, 0, 61, 80
2, 132360, Note_on_c, 0, 61, 95
2, 132478, Note_off_c, 0, 42, 80
2, 132480, Note_on_c, 0, 42, 95
2, 132598, Note_off_c, 0, 59, 80
2, 132600, Note_on_c, 0, 59, 95
2, 132838, Note_off_c, 0, 61, 80
2, 132840, Note_on_c, 0, 61, 95
2, 132958, Note_off_c, 0, 59, 80
2, 132960, Note_on_c, 0, 59, 95
2, 133080, Note_on_c, 0, 54, 95
2, 133198, Note_off_c, 0, 64, 80
2, 133200, Note_on_c, 0, 64, 95
2, 133318, Note_off_c, 0, 61, 80
2, 133320, Note_on_c, 0, 61, 95
2, 133438, Note_off_c, 0, 59, 80
2, 133440, Note_on_c, 0, 59, 95
2, 133558, Note_off_c, 0, 54, 80
2, 133560, Note_on_c, 0, 54, 95
2, 134398, Note_off_c, 0, 42, 80
2, 134398, Note_off_c, 0, 61, 80
2, 134398, Note_off_c, 0, 54, 80
2, 134400, Note_on_c, 0, 42, 95
2, 134400, Note_on_c, 0, 54, 95
2, 134400, Note_on_c, 0, 61, 95
2, 134638, Note_off_c, 0, 59, 80
2, 134640, Note_on_c, 0, 59, 95
2, 134758, Note_off_c, 0, 54, 80
2, 134760, Note_on_c, 0, 54, 95
2, 134878, Note_off_c, 0, 64, 80
2, 134880, Note_on_c, 0, 64, 95
2, 135118, Note_off_c, 0, 59, 80
2, 135120, Note_on_c, 0, 59, 95
2, 135238, Note_off_c, 0, 61, 80
2, 135240, Note_on_c, 0, 61, 95
2, 135358, Note_off_c, 0, 54, 80
2, 135360, Note_on_c, 0, 54, 95
2, 135478, Note_off_c, 0, 59, 80
2, 135480, Note_on_c, 0, 59, 95
2, 135598, Note_off_c, 0, 64, 80
2, 135600, Note_on_c, 0, 66, 95
2, 135718, Note_off_c, 0, 54, 80
2, 135720, Note_on_c, 0, 54, 95
2, 135838, Note_off_c, 0, 61, 80
2, 135840, Note_on_c, 0, 61, 95
2, 135958, Note_off_c, 0, 66, 80
2, 135960, Note_on_c, 0, 64, 95
2, 136078, Note_off_c, 0, 64, 80
2, 136080, Note_on_c, 0, 67, 95
2, 136198, Note_off_c, 0, 67, 80
2, 136200, Note_on_c, 0, 66, 95
2, 136318, Note_off_c, 0, 42, 80
2, 136318, Note_off_c, 0, 61, 80
2, 136320, Note_on_c, 0, 61, 95
2, 136558, Note_off_c, 0, 59, 80
2, 136560, Note_on_c, 0, 59, 95
2, 136678, Note_off_c, 0, 66, 80
2, 136680, Note_on_c, 0, 64, 95
2, 136798, Note_off_c, 0, 61, 80
2, 136800, Note_on_c, 0, 61, 95
2, 136918, Note_off_c, 0, 54, 80
2, 136920, Note_on_c, 0, 54, 95
2, 137038, Note_off_c, 0, 61, 80
2, 137040, Note_on_c, 0, 59, 95
2, 137158, Note_off_c, 0, 54, 80
2, 137160, Note_on_c, 0, 54, 95
2, 137278, Note_off_c, 0, 64, 80
2, 137280, Note_on_c, 0, 64, 95
2, 137398, Note_off_c, 0, 64, 80
2, 137400, Note_on_c, 0, 71, 95
2, 137518, Note_off_c, 0, 71, 80
2, 137520, Note_on_c, 0, 70, 95
2, 137638, Note_off_c, 0, 59, 80
2, 137640, Note_on_c, 0, 59, 95
2, 137758, Note_off_c, 0, 70, 80
2, 137760, Note_on_c, 0, 66, 95
2, 137878, Note_off_c, 0, 66, 80
2, 137880, Note_on_c, 0, 64, 95
2, 137998, Note_off_c, 0, 59, 80
2, 138000, Note_on_c, 0, 55, 95
2, 138118, Note_off_c, 0, 54, 80
2, 138120, Note_on_c, 0, 54, 95
2, 138240, Note_on_c, 0, 42, 95
2, 138480, Note_on_c, 0, 49, 95
2, 138718, Note_off_c, 0, 54, 80
2, 138720, Note_on_c, 0, 54, 95
2, 138838, Note_off_c, 0, 55, 80
2, 138840, Note_on_c, 0, 59, 95
2, 138958, Note_off_c, 0, 59, 80
2, 138960, Note_on_c, 0, 61, 95
2, 139078, Note_off_c, 0, 64, 80
2, 139080, Note_on_c, 0, 64, 95
2, 139198, Note_off_c, 0, 64, 80
2, 139200, Note_on_c, 0, 73, 95
2, 139318, Note_off_c, 0, 73, 80
2, 139320, Note_on_c, 0, 64, 95
2, 139438, Note_off_c, 0, 64, 80
2, 139440, Note_on_c, 0, 71, 95
2, 139798, Note_off_c, 0, 71, 80
2, 139800, Note_on_c, 0, 73, 95
2, 139918, Note_off_c, 0, 59, 80
2, 139920, Note_on_c, 0, 61, 95
2, 140038, Note_off_c, 0, 73, 80
2, 140040, Note_on_c, 0, 64, 95
2, 140158, Note_off_c, 0, 42, 80
2, 140158, Note_off_c, 0, 61, 80
2, 140158, Note_off_c, 0, 61, 80
2, 140158, Note_off_c, 0, 64, 80
2, 140160, Note_on_c, 0, 54, 95
2, 140160, Note_on_c, 0, 71, 95
2, 140160, Note_on_c, 0, 73, 95
2, 140160, Note_on_c, 0, 76, 95
2, 140398, Note_off_c, 0, 49, 80
2, 140398, Note_off_c, 0, 54, 80
2, 140400, Note_on_c, 0, 64, 95
2, 140518, Note_off_c, 0, 54, 80
2, 140518, Note_off_c, 0, 71, 80
2, 140518, Note_off_c, 0, 73, 80
2, 140518, Note_off_c, 0, 64, 80
2, 140520, Note_on_c, 0, 54, 95
2, 140520, Note_on_c, 0, 64, 95
2, 140520, Note_on_c, 0, 71, 95
2, 140520, Note_on_c, 0, 73, 95
2, 140758, Note_off_c, 0, 64, 80
2, 140760, Note_on_c, 0, 64, 95
2, 140878, Note_off_c, 0, 73, 80
2, 140878, Note_off_c, 0, 64, 80
2, 140880, Note_on_c, 0, 64, 95
2, 140880, Note_on_c, 0, 71, 95
2, 141118, Note_off_c, 0, 64, 80
2, 141120, Note_on_c, 0, 64, 95
2, 141238, Note_off_c, 0, 71, 80
2, 141238, Note_off_c, 0, 64, 80
2, 141240, Note_on_c, 0, 61, 95
2, 141240, Note_on_c, 0, 73, 95
2, 141478, Note_off_c, 0, 61, 80
2, 141480, Note_on_c, 0, 64, 95
2, 141598, Note_off_c, 0, 73, 80
2, 141600, Note_on_c, 0, 71, 95
2, 141718, Note_off_c, 0, 71, 80
2, 141720, Note_on_c, 0, 73, 95
2, 141838, Note_off_c, 0, 64, 80
2, 141840, Note_on_c, 0, 64, 95
2, 141958, Note_off_c, 0, 71, 80
2, 141960, Note_on_c, 0, 66, 95
2, 142078, Note_off_c, 0, 76, 80
2, 142078, Note_off_c, 0, 54, 80
2, 142078, Note_off_c, 0, 73, 80
2, 142080, Note_on_c, 0, 42, 95
2, 142080, Note_on_c, 0, 49, 95
2, 142080, Note_on_c, 0, 61, 95
2, 142080, Note_on_c, 0, 66, 95
2, 142438, Note_off_c, 0, 64, 80
2, 142438, Note_off_c, 0, 42, 80
2, 142438, Note_off_c, 0, 61, 80
2, 142440, Note_on_c, 0, 42, 95
2, 142440, Note_on_c, 0, 54, 95
2, 142440, Note_on_c, 0, 61, 95
2, 142678, Note_off_c, 0, 49, 80
2, 142680, Note_on_c, 0, 49, 95
2, 142798, Note_off_c, 0, 66, 80
2, 142798, Note_off_c, 0, 66, 80
2, 142798, Note_off_c, 0, 42, 80
2, 142800, Note_on_c, 0, 42, 95
2, 142800, Note_on_c, 0, 59, 95
2, 142800, Note_on_c, 0, 66, 95
2, 143038, Note_off_c, 0, 54, 80
2, 143040, Note_on_c, 0, 54, 95
2, 143158, Note_off_c, 0, 66, 80
2, 143160, Note_on_c, 0, 64, 95
2, 143278, Note_off_c, 0, 61, 80
2, 143280, Note_on_c, 0, 61, 95
2, 143398, Note_off_c, 0, 54, 80
2, 143400, Note_on_c, 0, 54, 95
2, 143518, Note_off_c, 0, 59, 80
2, 143518, Note_off_c, 0, 64, 80
2, 143520, Note_on_c, 0, 59, 95
2, 143520, Note_on_c, 0, 66, 95
2, 143638, Note_off_c, 0, 49, 80
2, 143640, Note_on_c, 0, 49, 95
2, 143758, Note_off_c, 0, 54, 80
2, 143760, Note_on_c, 0, 52, 95
2, 143878, Note_off_c, 0, 49, 80
2, 143880, Note_on_c, 0, 49, 95
2, 143998, Note_off_c, 0, 61, 80
2, 143998, Note_off_c, 0, 52, 80
2, 144000, Note_on_c, 0, 54, 95
2, 144000, Note_on_c, 0, 61, 95
2, 144238, Note_off_c, 0, 49, 80
2, 144240, Note_on_c, 0, 49, 95
2, 144358, Note_off_c, 0, 54, 80
2, 144360, Note_on_c, 0, 54, 95
2, 144598, Note_off_c, 0, 59, 80
2, 144600, Note_on_c, 0, 59, 95
2, 144718, Note_off_c, 0, 42, 80
2, 144718, Note_off_c, 0, 61, 80
2, 144718, Note_off_c, 0, 59, 80
2, 144720, Note_on_c, 0, 55, 95
2, 144720, Note_on_c, 0, 61, 95
2, 145078, Note_off_c, 0, 54, 80
2, 145078, Note_off_c, 0, 55, 80
2, 145080, Note_on_c, 0, 54, 95
2, 145200, Note_on_c, 0, 59, 95
2, 145318, Note_off_c, 0, 54, 80
2, 145320, Note_on_c, 0, 54, 95
2, 145438, Note_off_c, 0, 66, 80
2, 145438, Note_off_c, 0, 59, 80
2, 145440, Note_on_c, 0, 59, 95
2, 145558, Note_off_c, 0, 61, 80
2, 145560, Note_on_c, 0, 61, 95
2, 145560, Note_on_c, 0, 66, 95
2, 145678, Note_off_c, 0, 59, 80
2, 145680, Note_on_c, 0, 59, 95
2, 145918, Note_off_c, 0, 61, 80
2, 145918, Note_off_c, 0, 66, 80
2, 145920, Note_on_c, 0, 42, 95
2, 145920, Note_on_c, 0, 64, 95
2, 145920, Note_on_c, 0, 71, 95
2, 146038, Note_off_c, 0, 59, 80
2, 146040, Note_on_c, 0, 61, 95
2, 146158, Note_off_c, 0, 49, 80
2, 146158, Note_off_c, 0, 54, 80
2, 146160, Note_on_c, 0, 54, 95
2, 146278, Note_off_c, 0, 64, 80
2, 146280, Note_on_c, 0, 66, 95
2, 146518, Note_off_c, 0, 61, 80
2, 146520, Note_on_c, 0, 59, 95
2, 146638, Note_off_c, 0, 66, 80
2, 146640, Note_on_c, 0, 64, 95
2, 146758, Note_off_c, 0, 71, 80
2, 146760, Note_on_c, 0, 71, 95
2, 146878, Note_off_c, 0, 64, 80
2, 146880, Note_on_c, 0, 66, 95
2, 146998, Note_off_c, 0, 59, 80
2, 147000, Note_on_c, 0, 59, 95
2, 147118, Note_off_c, 0, 66, 80
2, 147120, Note_on_c, 0, 64, 95
2, 147238, Note_off_c, 0, 71, 80
2, 147240, Note_on_c, 0, 71, 95
2, 147358, Note_off_c, 0, 64, 80
2, 147360, Note_on_c, 0, 66, 95
2, 147478, Note_off_c, 0, 54, 80
2, 147480, Note_on_c, 0, 54, 95
2, 147598, Note_off_c, 0, 59, 80
2, 147600, Note_on_c, 0, 61, 95
2, 147718, Note_off_c, 0, 71, 80
2, 147718, Note_off_c, 0, 66, 80
2, 147720, Note_on_c, 0, 66, 95
2, 147720, Note_on_c, 0, 73, 95
2, 147838, Note_off_c, 0, 54, 80
2, 147838, Note_off_c, 0, 42, 80
2, 147840, Note_on_c, 0, 42, 95
2, 147840, Note_on_c, 0, 54, 95
2, 148078, Note_off_c, 0, 66, 80
2, 148080, Note_on_c, 0, 61, 95
2, 148198, Note_off_c, 0, 73, 80
2, 148200, Note_on_c, 0, 66, 95
2, 148318, Note_off_c, 0, 54, 80
2, 148320, Note_on_c, 0, 54, 95
2, 148438, Note_off_c, 0, 61, 80
2, 148440, Note_on_c, 0, 61, 95
2, 148558, Note_off_c, 0, 66, 80
2, 148560, Note_on_c, 0, 66, 95
2, 148678, Note_off_c, 0, 66, 80
2, 148680, Note_on_c, 0, 73, 95
2, 149758, Note_off_c, 0, 42, 80
2, 149758, Note_off_c, 0, 61, 80
2, 149758, Note_off_c, 0, 61, 80
2, 149758, Note_off_c, 0, 73, 80
2, 149760, Note_on_c, 0, 42, 95
2, 149760, Note_on_c, 0, 71, 95
2, 149760, Note_on_c, 0, 73, 95
2, 149760, Note_on_c, 0, 76, 95
2, 149998, Note_off_c, 0, 54, 80
2, 150000, Note_on_c, 0, 64, 95
2, 150118, Note_off_c, 0, 71, 80
2, 150118, Note_off_c, 0, 73, 80
2, 150118, Note_off_c, 0, 64, 80
2, 150120, Note_on_c, 0, 64, 95
2, 150120, Note_on_c, 0, 71, 95
2, 150120, Note_on_c, 0, 73, 95
2, 150358, Note_off_c, 0, 42, 80
2, 150360, Note_on_c, 0, 54, 95
2, 150478, Note_off_c, 0, 76, 80
2, 150478, Note_off_c, 0, 71, 80
2, 150478, Note_off_c, 0, 73, 80
2, 150478, Note_off_c, 0, 54, 80
2, 150480, Note_on_c, 0, 54, 95
2, 150480, Note_on_c, 0, 71, 95
2, 150480, Note_on_c, 0, 73, 95
2, 150480, Note_on_c, 0, 76, 95
2, 150718, Note_off_c, 0, 64, 80
2, 150720, Note_on_c, 0, 64, 95
2, 150838, Note_off_c, 0, 73, 80
2, 150838, Note_off_c, 0, 64, 80
2, 150840, Note_on_c, 0, 64, 95
2, 150840, Note_on_c, 0, 73, 95
2, 150960, Note_on_c, 0, 61, 95
2, 151078, Note_off_c, 0, 64, 80
2, 151080, Note_on_c, 0, 64, 95
2, 151198, Note_off_c, 0, 76, 80
2, 151198, Note_off_c, 0, 64, 80
2, 151200, Note_on_c, 0, 64, 95
2, 151200, Note_on_c, 0, 76, 95
2, 151318, Note_off_c, 0, 64, 80
2, 151318, Note_off_c, 0, 76, 80
2, 151320, Note_on_c, 0, 66, 95
2, 151320, Note_on_c, 0, 78, 95
2, 151438, Note_off_c, 0, 66, 80
2, 151438, Note_off_c, 0, 78, 80
2, 151440, Note_on_c, 0, 67, 95
2, 151440, Note_on_c, 0, 79, 95
2, 151558, Note_off_c, 0, 67, 80
2, 151558, Note_off_c, 0, 79, 80
2, 151560, Note_on_c, 0, 66, 95
2, 151560, Note_on_c, 0, 78, 95
2, 151678, Note_off_c, 0, 54, 80
2, 151678, Note_off_c, 0, 73, 80
2, 151678, Note_off_c, 0, 66, 80
2, 151680, Note_on_c, 0, 42, 95
2, 151680, Note_on_c, 0, 54, 95
2, 151680, Note_on_c, 0, 61, 95
2, 151918, Note_off_c, 0, 42, 80
2, 151920, Note_on_c, 0, 42, 95
2, 152038, Note_off_c, 0, 61, 80
2, 152038, Note_off_c, 0, 78, 80
2, 152040, Note_on_c, 0, 66, 95
2, 152040, Note_on_c, 0, 73, 95
2, 152278, Note_off_c, 0, 61, 80
2, 152280, Note_on_c, 0, 54, 95
2, 152398, Note_off_c, 0, 71, 80
2, 152398, Note_off_c, 0, 66, 80
2, 152400, Note_on_c, 0, 64, 95
2, 152400, Note_on_c, 0, 71, 95
2, 152518, Note_off_c, 0, 73, 80
2, 152520, Note_on_c, 0, 76, 95
2, 152638, Note_off_c, 0, 54, 80
2, 152640, Note_on_c, 0, 54, 95
2, 152758, Note_off_c, 0, 54, 80
2, 152760, Note_on_c, 0, 59, 95
2, 152878, Note_off_c, 0, 59, 80
2, 152880, Note_on_c, 0, 61, 95
2, 152998, Note_off_c, 0, 61, 80
2, 153000, Note_on_c, 0, 59, 95
2, 153118, Note_off_c, 0, 71, 80
2, 153118, Note_off_c, 0, 76, 80
2, 153120, Note_on_c, 0, 66, 95
2, 153120, Note_on_c, 0, 71, 95
2, 153238, Note_off_c, 0, 71, 80
2, 153240, Note_on_c, 0, 73, 95
2, 153358, Note_off_c, 0, 73, 80
2, 153360, Note_on_c, 0, 74, 95
2, 153478, Note_off_c, 0, 66, 80
2, 153480, Note_on_c, 0, 59, 95
2, 153598, Note_off_c, 0, 42, 80
2, 153598, Note_off_c, 0, 59, 80
2, 153598, Note_off_c, 0, 74, 80
2, 153598, Note_off_c, 0, 59, 80
2, 153600, Note_on_c, 0, 42, 95
2, 153600, Note_on_c, 0, 54, 95
2, 153600, Note_on_c, 0, 61, 95
2, 153600, Note_on_c, 0, 64, 95
2, 153958, Note_off_c, 0, 64, 80
2, 153960, Note_on_c, 0, 66, 95
2, 154078, Note_off_c, 0, 61, 80
2, 154080, Note_on_c, 0, 61, 95
2, 154198, Note_off_c, 0, 66, 80
2, 154200, Note_on_c, 0, 64, 95
2, 154318, Note_off_c, 0, 64, 80
2, 154318, Note_off_c, 0, 64, 80
2, 154320, Note_on_c, 0, 73, 95
2, 154438, Note_off_c, 0, 61, 80
2, 154438, Note_off_c, 0, 73, 80
2, 154440, Note_on_c, 0, 66, 95
2, 154440, Note_on_c, 0, 74, 95
2, 154678, Note_off_c, 0, 54, 80
2, 154680, Note_on_c, 0, 64, 95
2, 154798, Note_off_c, 0, 74, 80
2, 154798, Note_off_c, 0, 64, 80
2, 154800, Note_on_c, 0, 64, 95
2, 154800, Note_on_c, 0, 74, 95
2, 154918, Note_off_c, 0, 66, 80
2, 154920, Note_on_c, 0, 71, 95
2, 155038, Note_off_c, 0, 54, 80
2, 155038, Note_off_c, 0, 74, 80
2, 155040, Note_on_c, 0, 61, 95
2, 155040, Note_on_c, 0, 73, 95
2, 155158, Note_off_c, 0, 64, 80
2, 155160, Note_on_c, 0, 64, 95
2, 155278, Note_off_c, 0, 71, 80
2, 155278, Note_off_c, 0, 73, 80
2, 155280, Note_on_c, 0, 71, 95
2, 155280, Note_on_c, 0, 74, 95
2, 155518, Note_off_c, 0, 42, 80
2, 155518, Note_off_c, 0, 61, 80
2, 155518, Note_off_c, 0, 74, 80
2, 155520, Note_on_c, 0, 42, 95
2, 155520, Note_on_c, 0, 54, 95
2, 155520, Note_on_c, 0, 66, 95
2, 155758, Note_off_c, 0, 66, 80
2, 155760, Note_on_c, 0, 64, 95
2, 155878, Note_off_c, 0, 71, 80
2, 155878, Note_off_c, 0, 54, 80
2, 155880, Note_on_c, 0, 54, 95
2, 155880, Note_on_c, 0, 66, 95
2, 156118, Note_off_c, 0, 64, 80
2, 156120, Note_on_c, 0, 64, 95
2, 156238, Note_off_c, 0, 54, 80
2, 156238, Note_off_c, 0, 66, 80
2, 156240, Note_on_c, 0, 54, 95
2, 156240, Note_on_c, 0, 66, 95
2, 156358, Note_off_c, 0, 64, 80
2, 156360, Note_on_c, 0, 73, 95
2, 156478, Note_off_c, 0, 66, 80
2, 156478, Note_off_c, 0, 73, 80
2, 156480, Note_on_c, 0, 66, 95
2, 156480, Note_on_c, 0, 71, 95
2, 156598, Note_off_c, 0, 71, 80
2, 156600, Note_on_c, 0, 70, 95
2, 156718, Note_off_c, 0, 64, 80
2, 156718, Note_off_c, 0, 66, 80
2, 156720, Note_on_c, 0, 61, 95
2, 156720, Note_on_c, 0, 64, 95
2, 156838, Note_off_c, 0, 54, 80
2, 156840, Note_on_c, 0, 54, 95
2, 156958, Note_off_c, 0, 70, 80
2, 156958, Note_off_c, 0, 64, 80
2, 156960, Note_on_c, 0, 66, 95
2, 156960, Note_on_c, 0, 70, 95
2, 157078, Note_off_c, 0, 61, 80
2, 157078, Note_off_c, 0, 66, 80
2, 157080, Note_on_c, 0, 61, 95
2, 157080, Note_on_c, 0, 66, 95
2, 157198, Note_off_c, 0, 66, 80
2, 157200, Note_on_c, 0, 64, 95
2, 157318, Note_off_c, 0, 61, 80
2, 157320, Note_on_c, 0, 61, 95
2, 157438, Note_off_c, 0, 42, 80
2, 157438, Note_off_c, 0, 54, 80
2, 157438, Note_off_c, 0, 70, 80
2, 157438, Note_off_c, 0, 64, 80
2, 157440, Note_on_c, 0, 42, 95
2, 157440, Note_on_c, 0, 54, 95
2, 157440, Note_on_c, 0, 61, 95
2, 157440, Note_on_c, 0, 66, 95
2, 157798, Note_off_c, 0, 61, 80
2, 157798, Note_off_c, 0, 66, 80
2, 157800, Note_on_c, 0, 55, 95
2, 157800, Note_on_c, 0, 67, 95
2, 158158, Note_off_c, 0, 55, 80
2, 158158, Note_off_c, 0, 67, 80
2, 158160, Note_on_c, 0, 58, 95
2, 158160, Note_on_c, 0, 70, 95
2, 158518, Note_off_c, 0, 61, 80
2, 158518, Note_off_c, 0, 58, 80
2, 158518, Note_off_c, 0, 70, 80
2, 158520, Note_on_c, 0, 59, 95
2, 158520, Note_on_c, 0, 64, 95
2, 158520, Note_on_c, 0, 71, 95
2, 158878, Note_off_c, 0, 59, 80
2, 158878, Note_off_c, 0, 71, 80
2, 158880, Note_on_c, 0, 61, 95
2, 158880, Note_on_c, 0, 73, 95
2, 159118, Note_off_c, 0, 64, 80
2, 159120, Note_on_c, 0, 66, 95
2, 159358, Note_off_c, 0, 42, 80
2, 159358, Note_off_c, 0, 54, 80
2, 159360, Note_on_c, 0, 42, 95
2, 159360, Note_on_c, 0, 54, 95
2, 159478, Note_off_c, 0, 61, 80
2, 159478, Note_off_c, 0, 73, 80
2, 159480, Note_on_c, 0, 61, 95
2, 159480, Note_on_c, 0, 73, 95
2, 159838, Note_off_c, 0, 61, 80
2, 159838, Note_off_c, 0, 73, 80
2, 159840, Note_on_c, 0, 62, 95
2, 159840, Note_on_c, 0, 74, 95
2, 160198, Note_off_c, 0, 62, 80
2, 160198, Note_off_c, 0, 74, 80
2, 160200, Note_on_c, 0, 64, 95
2, 160200, Note_on_c, 0, 76, 95
2, 160558, Note_off_c, 0, 64, 80
2, 160558, Note_off_c, 0, 76, 80
2, 160560, Note_on_c, 0, 66, 95
2, 160560, Note_on_c, 0, 78, 95
2, 160918, Note_off_c, 0, 66, 80
2, 160918, Note_off_c, 0, 78, 80
2, 160920, Note_on_c, 0, 66, 95
2, 160920, Note_on_c, 0, 78, 95
2, 161278, Note_off_c, 0, 42, 80
2, 161278, Note_off_c, 0, 54, 80
2, 161278, Note_off_c, 0, 66, 80
2, 161278, Note_off_c, 0, 66, 80
2, 161278, Note_off_c, 0, 78, 80
2, 161280, Note_on_c, 0, 42, 95
2, 161280, Note_on_c, 0, 54, 95
2, 161280, Note_on_c, 0, 61, 95
2, 161280, Note_on_c, 0, 73, 95
2, 161638, Note_off_c, 0, 61, 80
2, 161638, Note_off_c, 0, 73, 80
2, 161640, Note_on_c, 0, 62, 95
2, 161640, Note_on_c, 0, 74, 95
2, 161998, Note_off_c, 0, 62, 80
2, 161998, Note_off_c, 0, 74, 80
2, 162000, Note_on_c, 0, 64, 95
2, 162000, Note_on_c, 0, 76, 95
2, 162358, Note_off_c, 0, 64, 80
2, 162358, Note_off_c, 0, 76, 80
2, 162360, Note_on_c, 0, 66, 95
2, 162360, Note_on_c, 0, 78, 95
2, 162718, Note_off_c, 0, 66, 80
2, 162718, Note_off_c, 0, 78, 80
2, 162720, Note_on_c, 0, 67, 95
2, 162720, Note_on_c, 0, 79, 95
2, 163078, Note_off_c, 0, 67, 80
2, 163078, Note_off_c, 0, 79, 80
2, 163080, Note_on_c, 0, 70, 95
2, 163080, Note_on_c, 0, 82, 95
2, 163198, Note_off_c, 0, 42, 80
2, 163198, Note_off_c, 0, 54, 80
2, 163198, Note_off_c, 0, 70, 80
2, 163198, Note_off_c, 0, 82, 80
2, 163200, Note_on_c, 0, 42, 95
2, 163200, Note_on_c, 0, 54, 95
2, 163440, Note_on_c, 0, 71, 95
2, 163440, Note_on_c, 0, 83, 95
2, 163798, Note_off_c, 0, 71, 80
2, 163798, Note_off_c, 0, 83, 80
2, 163800, Note_on_c, 0, 73, 95
2, 163800, Note_on_c, 0, 85, 95
2, 164158, Note_off_c, 0, 73, 80
2, 164158, Note_off_c, 0, 85, 80
2, 164160, Note_on_c, 0, 76, 95
2, 164160, Note_on_c, 0, 83, 95
2, 164160, Note_on_c, 0, 88, 95
2, 164398, Note_off_c, 0, 76, 80
2, 164398, Note_off_c, 0, 83, 80
2, 164398, Note_off_c, 0, 88, 80
2, 164400, Note_on_c, 0, 73, 95
2, 164400, Note_on_c, 0, 85, 95
2, 164518, Note_off_c, 0, 73, 80
2, 164518, Note_off_c, 0, 85, 80
2, 164520, Note_on_c, 0, 76, 95
2, 164520, Note_on_c, 0, 83, 95
2, 164520, Note_on_c, 0, 88, 95
2, 164758, Note_off_c, 0, 76, 80
2, 164758, Note_off_c, 0, 83, 80
2, 164758, Note_off_c, 0, 88, 80
2, 164760, Note_on_c, 0, 73, 95
2, 164760, Note_on_c, 0, 85, 95
2, 165118, Note_off_c, 0, 42, 80
2, 165118, Note_off_c, 0, 54, 80
2, 165118, Note_off_c, 0, 73, 80
2, 165118, Note_off_c, 0, 85, 80
2, 165120, Note_on_c, 0, 42, 95
2, 165120, Note_on_c, 0, 54, 95
2, 165120, Note_on_c, 0, 78, 95
2, 165120, Note_on_c, 0, 85, 95
2, 165120, Note_on_c, 0, 90, 95
2, 165358, Note_off_c, 0, 85, 80
2, 165360, Note_on_c, 0, 85, 95
2, 165478, Note_off_c, 0, 90, 80
2, 165480, Note_on_c, 0, 88, 95
2, 165718, Note_off_c, 0, 88, 80
2, 165720, Note_on_c, 0, 90, 95
2, 165958, Note_off_c, 0, 78, 80
2, 165958, Note_off_c, 0, 90, 80
2, 165960, Note_on_c, 0, 76, 95
2, 165960, Note_on_c, 0, 88, 95
2, 166198, Note_off_c, 0, 88, 80
2, 166200, Note_on_c, 0, 88, 95
2, 166318, Note_off_c, 0, 85, 80
2, 166320, Note_on_c, 0, 83, 95
2, 166558, Note_off_c, 0, 76, 80
2, 166560, Note_on_c, 0, 76, 95
2, 166678, Note_off_c, 0, 88, 80
2, 166680, Note_on_c, 0, 88, 95
2, 166798, Note_off_c, 0, 83, 80
2, 166800, Note_on_c, 0, 83, 95
2, 167038, Note_off_c, 0, 42, 80
2, 167038, Note_off_c, 0, 54, 80
2, 167038, Note_off_c, 0, 76, 80
2, 167038, Note_off_c, 0, 88, 80
2, 167038, Note_off_c, 0, 83, 80
2, 167040, Note_on_c, 0, 42, 95
2, 167040, Note_on_c, 0, 54, 95
2, 167040, Note_on_c, 0, 78, 95
2, 167040, Note_on_c, 0, 85, 95
2, 167040, Note_on_c, 0, 90, 95
2, 167398, Note_off_c, 0, 78, 80
2, 167398, Note_off_c, 0, 90, 80
2, 167400, Note_on_c, 0, 76, 95
2, 167400, Note_on_c, 0, 88, 95
2, 167638, Note_off_c, 0, 76, 80
2, 167638, Note_off_c, 0, 88, 80
2, 167640, Note_on_c, 0, 78, 95
2, 167640, Note_on_c, 0, 90, 95
2, 167878, Note_off_c, 0, 78, 80
2, 167878, Note_off_c, 0, 90, 80
2, 167880, Note_on_c, 0, 79, 95
2, 167880, Note_on_c, 0, 91, 95
2, 168118, Note_off_c, 0, 91, 80
2, 168120, Note_on_c, 0, 88, 95
2, 168238, Note_off_c, 0, 85, 80
2, 168240, Note_on_c, 0, 83, 95
2, 168358, Note_off_c, 0, 79, 80
2, 168360, Note_on_c, 0, 76, 95
2, 168478, Note_off_c, 0, 88, 80
2, 168480, Note_on_c, 0, 91, 95
2, 168538, Note_off_c, 0, 91, 80
2, 168540, Note_on_c, 0, 88, 76
2, 168598, Note_off_c, 0, 88, 80
2, 168600, Note_on_c, 0, 91, 95
2, 168718, Note_off_c, 0, 91, 80
2, 168720, Note_on_c, 0, 88, 95
2, 168838, Note_off_c, 0, 83, 80
2, 168840, Note_on_c, 0, 85, 95
2, 168958, Note_off_c, 0, 42, 80
2, 168958, Note_off_c, 0, 54, 80
2, 168958, Note_off_c, 0, 76, 80
2, 168958, Note_off_c, 0, 88, 80
2, 168960, Note_on_c, 0, 42, 95
2, 168960, Note_on_c, 0, 54, 95
2, 168960, Note_on_c, 0, 66, 95
2, 168960, Note_on_c, 0, 78, 95
2, 169318, Note_off_c, 0, 66, 80
2, 169318, Note_off_c, 0, 78, 80
2, 169320, Note_on_c, 0, 67, 95
2, 169320, Note_on_c, 0, 79, 95
2, 169678, Note_off_c, 0, 67, 80
2, 169678, Note_off_c, 0, 79, 80
2, 169680, Note_on_c, 0, 70, 95
2, 169680, Note_on_c, 0, 82, 95
2, 170038, Note_off_c, 0, 70, 80
2, 170038, Note_off_c, 0, 82, 80
2, 170040, Note_on_c, 0, 71, 95
2, 170040, Note_on_c, 0, 83, 95
2, 170398, Note_off_c, 0, 71, 80
2, 170398, Note_off_c, 0, 83, 80
2, 170400, Note_on_c, 0, 70, 95
2, 170400, Note_on_c, 0, 82, 95
2, 170518, Note_off_c, 0, 70, 80
2, 170518, Note_off_c, 0, 82, 80
2, 170520, Note_on_c, 0, 71, 95
2, 170520, Note_on_c, 0, 83, 95
2, 170638, Note_off_c, 0, 71, 80
2, 170638, Note_off_c, 0, 83, 80
2, 170640, Note_on_c, 0, 73, 95
2, 170640, Note_on_c, 0, 85, 95
2, 170878, Note_off_c, 0, 85, 80
2, 170878, Note_off_c, 0, 42, 80
2, 170878, Note_off_c, 0, 54, 80
2, 170878, Note_off_c, 0, 73, 80
2, 170878, Note_off_c, 0, 85, 80
2, 170880, Note_on_c, 0, 42, 95
2, 170880, Note_on_c, 0, 54, 95
2, 171000, Note_on_c, 0, 74, 95
2, 171000, Note_on_c, 0, 86, 95
2, 171358, Note_off_c, 0, 74, 80
2, 171358, Note_off_c, 0, 86, 80
2, 171360, Note_on_c, 0, 76, 95
2, 171360, Note_on_c, 0, 88, 95
2, 171718, Note_off_c, 0, 76, 80
2, 171718, Note_off_c, 0, 88, 80
2, 171720, Note_on_c, 0, 78, 95
2, 171720, Note_on_c, 0, 90, 95
2, 172078, Note_off_c, 0, 78, 80
2, 172078, Note_off_c, 0, 90, 80
2, 172080, Note_on_c, 0, 78, 95
2, 172080, Note_on_c, 0, 90, 95
2, 172438, Note_off_c, 0, 78, 80
2, 172438, Note_off_c, 0, 90, 80
2, 172440, Note_on_c, 0, 78, 95
2, 172440, Note_on_c, 0, 90, 95
2, 172798, Note_off_c, 0, 42, 80
2, 172798, Note_off_c, 0, 54, 80
2, 172798, Note_off_c, 0, 78, 80
2, 172798, Note_off_c, 0, 90, 80
2, 172800, Note_on_c, 0, 47, 95
2, 172800, Note_on_c, 0, 59, 95
2, 172800, Note_on_c, 0, 62, 95
2, 172800, Note_on_c, 0, 71, 95
2, 173158, Note_off_c, 0, 71, 80
2, 173160, Note_on_c, 0, 66, 95
2, 173160, Note_on_c, 0, 74, 95
2, 173398, Note_off_c, 0, 62, 80
2, 173400, Note_on_c, 0, 62, 95
2, 173518, Note_off_c, 0, 74, 80
2, 173518, Note_off_c, 0, 62, 80
2, 173520, Note_on_c, 0, 62, 95
2, 173520, Note_on_c, 0, 71, 95
2, 173638, Note_off_c, 0, 62, 80
2, 173640, Note_on_c, 0, 61, 95
2, 173758, Note_off_c, 0, 61, 80
2, 173760, Note_on_c, 0, 61, 95
2, 173878, Note_off_c, 0, 59, 80
2, 173878, Note_off_c, 0, 71, 80
2, 173880, Note_on_c, 0, 59, 95
2, 173880, Note_on_c, 0, 73, 95
2, 173998, Note_off_c, 0, 59, 80
2, 174000, Note_on_c, 0, 59, 95
2, 174118, Note_off_c, 0, 61, 80
2, 174120, Note_on_c, 0, 62, 95
2, 174238, Note_off_c, 0, 66, 80
2, 174238, Note_off_c, 0, 73, 80
2, 174240, Note_on_c, 0, 66, 95
2, 174240, Note_on_c, 0, 74, 95
2, 174358, Note_off_c, 0, 62, 80
2, 174358, Note_off_c, 0, 74, 80
2, 174360, Note_on_c, 0, 61, 95
2, 174360, Note_on_c, 0, 73, 95
2, 174478, Note_off_c, 0, 61, 80
2, 174478, Note_off_c, 0, 73, 80
2, 174480, Note_on_c, 0, 62, 95
2, 174480, Note_on_c, 0, 71, 95
2, 174598, Note_off_c, 0, 66, 80
2, 174600, Note_on_c, 0, 66, 95
2, 174718, Note_off_c, 0, 47, 80
2, 174718, Note_off_c, 0, 59, 80
2, 174718, Note_off_c, 0, 62, 80
2, 174718, Note_off_c, 0, 71, 80
2, 174720, Note_on_c, 0, 47, 95
2, 174720, Note_on_c, 0, 59, 95
2, 174720, Note_on_c, 0, 62, 95
2, 174720, Note_on_c, 0, 74, 95
2, 174958, Note_off_c, 0, 62, 80
2, 174958, Note_off_c, 0, 74, 80
2, 174960, Note_on_c, 0, 61, 95
2, 174960, Note_on_c, 0, 73, 95
2, 175078, Note_off_c, 0, 61, 80
2, 175078, Note_off_c, 0, 73, 80
2, 175080, Note_on_c, 0, 61, 95
2, 175080, Note_on_c, 0, 73, 95
2, 175198, Note_off_c, 0, 66, 80
2, 175200, Note_on_c, 0, 66, 95
2, 175318, Note_off_c, 0, 61, 80
2, 175318, Note_off_c, 0, 73, 80
2, 175320, Note_on_c, 0, 59, 95
2, 175320, Note_on_c, 0, 71, 95
2, 175438, Note_off_c, 0, 59, 80
2, 175438, Note_off_c, 0, 71, 80
2, 175440, Note_on_c, 0, 59, 95
2, 175440, Note_on_c, 0, 71, 95
2, 175798, Note_off_c, 0, 59, 80
2, 175798, Note_off_c, 0, 71, 80
2, 175800, Note_on_c, 0, 57, 95
2, 175800, Note_on_c, 0, 69, 95
2, 175918, Note_off_c, 0, 57, 80
2, 175918, Note_off_c, 0, 69, 80
2, 175920, Note_on_c, 0, 57, 95
2, 175920, Note_on_c, 0, 69, 95
2, 176158, Note_off_c, 0, 66, 80
2, 176160, Note_on_c, 0, 66, 95
2, 176278, Note_off_c, 0, 66, 80
2, 176280, Note_on_c, 0, 64, 95
2, 176398, Note_off_c, 0, 64, 80
2, 176400, Note_on_c, 0, 66, 95
2, 176518, Note_off_c, 0, 57, 80
2, 176520, Note_on_c, 0, 61, 95
2, 176638, Note_off_c, 0, 47, 80
2, 176638, Note_off_c, 0, 59, 80
2, 176640, Note_on_c, 0, 47, 95
2, 176640, Note_on_c, 0, 59, 95
2, 176998, Note_off_c, 0, 69, 80
2, 176998, Note_off_c, 0, 61, 80
2, 177000, Note_on_c, 0, 59, 95
2, 177000, Note_on_c, 0, 71, 95
2, 177238, Note_off_c, 0, 66, 80
2, 177238, Note_off_c, 0, 59, 80
2, 177238, Note_off_c, 0, 71, 80
2, 177240, Note_on_c, 0, 61, 95
2, 177240, Note_on_c, 0, 64, 95
2, 177240, Note_on_c, 0, 73, 95
2, 177478, Note_off_c, 0, 61, 80
2, 177478, Note_off_c, 0, 64, 80
2, 177478, Note_off_c, 0, 73, 80
2, 177480, Note_on_c, 0, 61, 95
2, 177480, Note_on_c, 0, 64, 95
2, 177480, Note_on_c, 0, 73, 95
2, 177718, Note_off_c, 0, 61, 80
2, 177718, Note_off_c, 0, 64, 80
2, 177718, Note_off_c, 0, 73, 80
2, 177720, Note_on_c, 0, 62, 95
2, 177720, Note_on_c, 0, 66, 95
2, 177720, Note_on_c, 0, 74, 95
2, 177958, Note_off_c, 0, 62, 80
2, 177960, Note_on_c, 0, 61, 95
2, 178018, Note_off_c, 0, 61, 80
2, 178020, Note_on_c, 0, 62, 76
2, 178078, Note_off_c, 0, 66, 80
2, 178078, Note_off_c, 0, 74, 80
2, 178078, Note_off_c, 0, 62, 80
2, 178080, Note_on_c, 0, 66, 95
2, 178080, Note_on_c, 0, 71, 95
2, 178198, Note_off_c, 0, 66, 80
2, 178200, Note_on_c, 0, 66, 95
2, 178318, Note_off_c, 0, 71, 80
2, 178318, Note_off_c, 0, 66, 80
2, 178320, Note_on_c, 0, 66, 95
2, 178320, Note_on_c, 0, 74, 95
2, 178438, Note_off_c, 0, 74, 80
2, 178440, Note_on_c, 0, 83, 95
2, 178498, Note_off_c, 0, 83, 80
2, 178500, Note_on_c, 0, 86, 76
2, 178558, Note_off_c, 0, 47, 80
2, 178558, Note_off_c, 0, 59, 80
2, 178558, Note_off_c, 0, 86, 80
2, 178560, Note_on_c, 0, 47, 95
2, 178560, Note_on_c, 0, 59, 95
2, 178560, Note_on_c, 0, 78, 95
2, 178560, Note_on_c, 0, 90, 95
2, 178798, Note_off_c, 0, 90, 80
2, 178800, Note_on_c, 0, 86, 95
2, 178918, Note_off_c, 0, 66, 80
2, 178918, Note_off_c, 0, 59, 80
2, 178918, Note_off_c, 0, 86, 80
2, 178920, Note_on_c, 0, 76, 95
2, 178920, Note_on_c, 0, 85, 95
2, 178920, Note_on_c, 0, 88, 95
2, 179278, Note_off_c, 0, 76, 80
2, 179278, Note_off_c, 0, 85, 80
2, 179278, Note_off_c, 0, 88, 80
2, 179280, Note_on_c, 0, 74, 95
2, 179280, Note_on_c, 0, 83, 95
2, 179280, Note_on_c, 0, 86, 95
2, 179638, Note_off_c, 0, 78, 80
2, 179638, Note_off_c, 0, 86, 80
2, 179640, Note_on_c, 0, 62, 95
2, 179640, Note_on_c, 0, 74, 95
2, 179640, Note_on_c, 0, 83, 95
2, 179758, Note_off_c, 0, 62, 80
2, 179760, Note_on_c, 0, 54, 95
2, 179878, Note_off_c, 0, 74, 80
2, 179880, Note_on_c, 0, 59, 95
2, 179998, Note_off_c, 0, 74, 80
2, 180000, Note_on_c, 0, 64, 95
2, 180058, Note_off_c, 0, 83, 80
2, 180060, Note_on_c, 0, 66, 95
2, 180118, Note_off_c, 0, 83, 80
2, 180120, Note_on_c, 0, 71, 95
2, 180178, Note_off_c, 0, 66, 80
2, 180180, Note_on_c, 0, 66, 95
2, 180238, Note_off_c, 0, 64, 80
2, 180240, Note_on_c, 0, 64, 95
2, 180358, Note_off_c, 0, 64, 80
2, 180360, Note_on_c, 0, 62, 95
2, 180478, Note_off_c, 0, 47, 80
2, 181918, Note_off_c, 0, 54, 80
2, 181918, Note_off_c, 0, 59, 80
2, 182398, Note_off_c, 0, 71, 80
2, 182398, Note_off_c, 0, 66, 80
2, 182398, Note_off_c, 0, 62, 80
2, 218880, Note_on_c, 0, 35, 95
2, 218880, Note_on_c, 0, 47, 95
2, 218880, Note_on_c, 0, 54, 95
2, 218880, Note_on_c, 0, 61, 95
2, 218880, Note_on_c, 0, 73, 95
2, 219238, Note_off_c, 0, 73, 80
2, 219240, Note_on_c, 0, 59, 95
2, 219240, Note_on_c, 0, 71, 95
2, 219598, Note_off_c, 0, 47, 80
2, 219598, Note_off_c, 0, 59, 80
2, 219598, Note_off_c, 0, 71, 80
2, 219600, Note_on_c, 0, 47, 95
2, 219600, Note_on_c, 0, 59, 95
2, 219600, Note_on_c, 0, 66, 95
2, 219600, Note_on_c, 0, 73, 95
2, 219958, Note_off_c, 0, 61, 80
2, 219958, Note_off_c, 0, 73, 80
2, 219960, Note_on_c, 0, 62, 95
2, 219960, Note_on_c, 0, 74, 95
2, 220318, Note_off_c, 0, 59, 80
2, 220320, Note_on_c, 0, 59, 95
2, 220438, Note_off_c, 0, 54, 80
2, 220440, Note_on_c, 0, 54, 95
2, 220558, Note_off_c, 0, 74, 80
2, 220560, Note_on_c, 0, 71, 95
2, 220678, Note_off_c, 0, 54, 80
2, 220680, Note_on_c, 0, 54, 95
2, 220798, Note_off_c, 0, 35, 80
2, 220798, Note_off_c, 0, 62, 80
2, 220798, Note_off_c, 0, 59, 80
2, 220798, Note_off_c, 0, 71, 80
2, 220798, Note_off_c, 0, 54, 80
2, 220800, Note_on_c, 0, 43, 95
2, 220800, Note_on_c, 0, 55, 95
2, 220800, Note_on_c, 0, 59, 95
2, 220800, Note_on_c, 0, 61, 95
2, 220800, Note_on_c, 0, 73, 95
2, 221038, Note_off_c, 0, 47, 80
2, 221040, Note_on_c, 0, 50, 95
2, 221158, Note_off_c, 0, 55, 80
2, 221158, Note_off_c, 0, 61, 80
2, 221158, Note_off_c, 0, 73, 80
2, 221160, Note_on_c, 0, 55, 95
2, 221160, Note_on_c, 0, 62, 95
2, 221160, Note_on_c, 0, 71, 95
2, 221278, Note_off_c, 0, 59, 80
2, 221280, Note_on_c, 0, 59, 95
2, 221398, Note_off_c, 0, 59, 80
2, 221400, Note_on_c, 0, 57, 95
2, 221518, Note_off_c, 0, 66, 80
2, 221518, Note_off_c, 0, 55, 80
2, 221518, Note_off_c, 0, 71, 80
2, 221518, Note_off_c, 0, 57, 80
2, 221520, Note_on_c, 0, 55, 95
2, 221520, Note_on_c, 0, 61, 95
2, 221520, Note_on_c, 0, 71, 95
2, 221520, Note_on_c, 0, 73, 95
2, 221758, Note_off_c, 0, 62, 80
2, 221758, Note_off_c, 0, 55, 80
2, 221760, Note_on_c, 0, 55, 95
2, 221760, Note_on_c, 0, 67, 95
2, 221878, Note_off_c, 0, 61, 80
2, 221878, Note_off_c, 0, 73, 80
2, 221878, Note_off_c, 0, 67, 80
2, 221880, Note_on_c, 0, 62, 95
2, 221880, Note_on_c, 0, 67, 95
2, 221880, Note_on_c, 0, 74, 95
2, 221998, Note_off_c, 0, 55, 80
2, 222000, Note_on_c, 0, 55, 95
2, 222238, Note_off_c, 0, 71, 80
2, 222238, Note_off_c, 0, 67, 80
2, 222238, Note_off_c, 0, 74, 80
2, 222240, Note_on_c, 0, 64, 95
2, 222240, Note_on_c, 0, 71, 95
2, 222240, Note_on_c, 0, 76, 95
2, 222478, Note_off_c, 0, 64, 80
2, 222478, Note_off_c, 0, 71, 80
2, 222478, Note_off_c, 0, 76, 80
2, 222480, Note_on_c, 0, 67, 95
2, 222480, Note_on_c, 0, 71, 95
2, 222480, Note_on_c, 0, 78, 95
2, 222718, Note_off_c, 0, 43, 80
2, 222718, Note_off_c, 0, 62, 80
2, 222718, Note_off_c, 0, 55, 80
2, 222718, Note_off_c, 0, 67, 80
2, 222718, Note_off_c, 0, 78, 80
2, 222720, Note_on_c, 0, 49, 95
2, 222720, Note_on_c, 0, 59, 95
2, 222720, Note_on_c, 0, 61, 95
2, 222720, Note_on_c, 0, 67, 95
2, 222720, Note_on_c, 0, 79, 95
2, 223078, Note_off_c, 0, 50, 80
2, 223080, Note_on_c, 0, 55, 95
2, 223198, Note_off_c, 0, 61, 80
2, 223200, Note_on_c, 0, 64, 95
2, 223258, Note_off_c, 0, 67, 80
2, 223260, Note_on_c, 0, 67, 95
2, 223318, Note_off_c, 0, 71, 80
2, 223320, Note_on_c, 0, 71, 95
2, 223378, Note_off_c, 0, 79, 80
2, 223380, Note_on_c, 0, 76, 95
2, 223438, Note_off_c, 0, 67, 80
2, 223440, Note_on_c, 0, 79, 95
2, 223498, Note_off_c, 0, 71, 80
2, 223500, Note_on_c, 0, 83, 95
2, 223558, Note_off_c, 0, 76, 80
2, 223560, Note_on_c, 0, 88, 95
2, 223618, Note_off_c, 0, 88, 80
2, 223620, Note_on_c, 0, 91, 76
2, 223678, Note_off_c, 0, 59, 80
2, 223678, Note_off_c, 0, 55, 80
2, 223678, Note_off_c, 0, 64, 80
2, 223678, Note_off_c, 0, 79, 80
2, 223678, Note_off_c, 0, 91, 80
2, 223680, Note_on_c, 0, 49, 95
2, 223680, Note_on_c, 0, 55, 95
2, 223680, Note_on_c, 0, 59, 95
2, 223680, Note_on_c, 0, 64, 95
2, 223680, Note_on_c, 0, 88, 76
2, 224038, Note_off_c, 0, 55, 80
2, 224038, Note_off_c, 0, 59, 80
2, 224040, Note_on_c, 0, 55, 95
2, 224040, Note_on_c, 0, 61, 95
2, 224158, Note_off_c, 0, 64, 80
2, 224158, Note_off_c, 0, 88, 80
2, 224160, Note_on_c, 0, 64, 95
2, 224160, Note_on_c, 0, 76, 95
2, 224278, Note_off_c, 0, 83, 80
2, 224278, Note_off_c, 0, 64, 80
2, 224280, Note_on_c, 0, 64, 95
2, 224280, Note_on_c, 0, 67, 95
2, 224398, Note_off_c, 0, 64, 80
2, 224398, Note_off_c, 0, 67, 80
2, 224400, Note_on_c, 0, 64, 95
2, 224400, Note_on_c, 0, 71, 95
2, 224518, Note_off_c, 0, 71, 80
2, 224520, Note_on_c, 0, 67, 95
2, 224638, Note_off_c, 0, 49, 80
2, 224638, Note_off_c, 0, 49, 80
2, 224638, Note_off_c, 0, 61, 80
2, 224638, Note_off_c, 0, 64, 80
2, 224638, Note_off_c, 0, 67, 80
2, 224640, Note_on_c, 0, 40, 95
2, 224640, Note_on_c, 0, 52, 95
2, 224640, Note_on_c, 0, 55, 95
2, 224640, Note_on_c, 0, 62, 95
2, 224878, Note_off_c, 0, 52, 80
2, 224880, Note_on_c, 0, 55, 95
2, 224998, Note_off_c, 0, 55, 80
2, 224998, Note_off_c, 0, 62, 80
2, 225000, Note_on_c, 0, 59, 95
2, 225000, Note_on_c, 0, 61, 95
2, 225118, Note_off_c, 0, 55, 80
2, 225120, Note_on_c, 0, 55, 95
2, 225238, Note_off_c, 0, 59, 80
2, 225240, Note_on_c, 0, 59, 95
2, 225358, Note_off_c, 0, 61, 80
2, 225360, Note_on_c, 0, 62, 95
2, 225478, Note_off_c, 0, 55, 80
2, 225480, Note_on_c, 0, 52, 95
2, 225598, Note_off_c, 0, 40, 80
2, 225598, Note_off_c, 0, 59, 80
2, 225598, Note_off_c, 0, 62, 80
2, 225598, Note_off_c, 0, 52, 80
2, 225600, Note_on_c, 0, 42, 95
2, 225600, Note_on_c, 0, 54, 95
2, 225600, Note_on_c, 0, 59, 95
2, 225600, Note_on_c, 0, 62, 95
2, 226078, Note_off_c, 0, 76, 80
2, 226078, Note_off_c, 0, 55, 80
2, 226078, Note_off_c, 0, 42, 80
2, 226078, Note_off_c, 0, 54, 80
2, 226078, Note_off_c, 0, 59, 80
2, 226078, Note_off_c, 0, 62, 80
2, 226080, Note_on_c, 0, 42, 95
2, 226080, Note_on_c, 0, 54, 95
2, 226080, Note_on_c, 0, 58, 95
2, 226080, Note_on_c, 0, 61, 95
2, 226558, Note_off_c, 0, 42, 80
2, 226558, Note_off_c, 0, 58, 80
2, 226560, Note_on_c, 0, 35, 95
2, 226560, Note_on_c, 0, 47, 95
2, 226560, Note_on_c, 0, 54, 95
2, 226560, Note_on_c, 0, 61, 95
2, 226560, Note_on_c, 0, 73, 95
2, 226798, Note_off_c, 0, 61, 80
2, 226800, Note_on_c, 0, 66, 95
2, 226918, Note_off_c, 0, 54, 80
2, 226918, Note_off_c, 0, 73, 80
2, 226920, Note_on_c, 0, 59, 95
2, 226920, Note_on_c, 0, 71, 95
2, 227158, Note_off_c, 0, 66, 80
2, 227160, Note_on_c, 0, 66, 95
2, 227278, Note_off_c, 0, 61, 80
2, 227278, Note_off_c, 0, 59, 80
2, 227278, Note_off_c, 0, 71, 80
2, 227278, Note_off_c, 0, 66, 80
2, 227280, Note_on_c, 0, 59, 95
2, 227280, Note_on_c, 0, 62, 95
2, 227280, Note_on_c, 0, 66, 95
2, 227280, Note_on_c, 0, 74, 95
2, 227758, Note_off_c, 0, 59, 80
2, 227758, Note_off_c, 0, 62, 80
2, 227758, Note_off_c, 0, 74, 80
2, 227760, Note_on_c, 0, 66, 95
2, 227760, Note_on_c, 0, 73, 95
2, 227760, Note_on_c, 0, 85, 95
2, 227998, Note_off_c, 0, 73, 80
2, 227998, Note_off_c, 0, 85, 80
2, 228000, Note_on_c, 0, 71, 95
2, 228000, Note_on_c, 0, 83, 95
2, 228238, Note_off_c, 0, 71, 80
2, 228238, Note_off_c, 0, 83, 80
2, 228240, Note_on_c, 0, 66, 95
2, 228240, Note_on_c, 0, 78, 95
2, 228478, Note_off_c, 0, 35, 80
2, 228478, Note_off_c, 0, 47, 80
2, 228478, Note_off_c, 0, 54, 80
2, 228478, Note_off_c, 0, 66, 80
2, 228478, Note_off_c, 0, 66, 80
2, 228478, Note_off_c, 0, 78, 80
2, 228480, Note_on_c, 0, 43, 95
2, 228480, Note_on_c, 0, 55, 95
2, 228480, Note_on_c, 0, 59, 95
2, 228480, Note_on_c, 0, 61, 95
2, 228480, Note_on_c, 0, 73, 95
2, 228838, Note_off_c, 0, 55, 80
2, 228838, Note_off_c, 0, 61, 80
2, 228838, Note_off_c, 0, 73, 80
2, 228840, Note_on_c, 0, 55, 95
2, 228840, Note_on_c, 0, 62, 95
2, 228840, Note_on_c, 0, 71, 95
2, 228958, Note_off_c, 0, 59, 80
2, 228960, Note_on_c, 0, 59, 95
2, 229078, Note_off_c, 0, 59, 80
2, 229080, Note_on_c, 0, 50, 95
2, 229198, Note_off_c, 0, 66, 80
2, 229198, Note_off_c, 0, 62, 80
2, 229198, Note_off_c, 0, 71, 80
2, 229198, Note_off_c, 0, 50, 80
2, 229200, Note_on_c, 0, 57, 95
2, 229200, Note_on_c, 0, 62, 95
2, 229200, Note_on_c, 0, 64, 95
2, 229558, Note_off_c, 0, 55, 80
2, 229560, Note_on_c, 0, 62, 95
2, 229678, Note_off_c, 0, 62, 80
2, 229678, Note_off_c, 0, 64, 80
2, 229680, Note_on_c, 0, 73, 95
2, 229680, Note_on_c, 0, 85, 95
2, 229798, Note_off_c, 0, 57, 80
2, 229800, Note_on_c, 0, 67, 95
2, 229918, Note_off_c, 0, 73, 80
2, 229918, Note_off_c, 0, 85, 80
2, 229920, Note_on_c, 0, 71, 95
2, 229920, Note_on_c, 0, 83, 95
2, 230040, Note_on_c, 0, 55, 95
2, 230158, Note_off_c, 0, 71, 80
2, 230158, Note_off_c, 0, 83, 80
2, 230160, Note_on_c, 0, 67, 95
2, 230160, Note_on_c, 0, 79, 95
2, 230278, Note_off_c, 0, 55, 80
2, 230280, Note_on_c, 0, 55, 95
2, 230398, Note_off_c, 0, 43, 80
2, 230398, Note_off_c, 0, 67, 80
2, 230398, Note_off_c, 0, 67, 80
2, 230398, Note_off_c, 0, 79, 80
2, 230398, Note_off_c, 0, 55, 80
2, 230400, Note_on_c, 0, 40, 95
2, 230400, Note_on_c, 0, 52, 95
2, 230400, Note_on_c, 0, 55, 95
2, 230400, Note_on_c, 0, 59, 95
2, 230400, Note_on_c, 0, 64, 95
2, 230758, Note_off_c, 0, 55, 80
2, 230760, Note_on_c, 0, 55, 95
2, 230818, Note_off_c, 0, 59, 80
2, 230818, Note_off_c, 0, 55, 80
2, 230820, Note_on_c, 0, 59, 95
2, 230878, Note_off_c, 0, 64, 80
2, 230878, Note_off_c, 0, 59, 80
2, 230880, Note_on_c, 0, 64, 95
2, 230938, Note_off_c, 0, 64, 80
2, 230940, Note_on_c, 0, 67, 95
2, 230998, Note_off_c, 0, 67, 80
2, 231000, Note_on_c, 0, 71, 95
2, 231058, Note_off_c, 0, 71, 80
2, 231060, Note_on_c, 0, 76, 95
2, 231118, Note_off_c, 0, 76, 80
2, 231120, Note_on_c, 0, 79, 95
2, 231178, Note_off_c, 0, 79, 80
2, 231180, Note_on_c, 0, 83, 95
2, 231238, Note_off_c, 0, 83, 80
2, 231240, Note_on_c, 0, 88, 95
2, 231298, Note_off_c, 0, 88, 80
2, 231300, Note_on_c, 0, 91, 95
2, 231358, Note_off_c, 0, 91, 80
2, 231360, Note_on_c, 0, 55, 95
2, 231360, Note_on_c, 0, 59, 95
2, 231360, Note_on_c, 0, 66, 95
2, 231718, Note_off_c, 0, 62, 80
2, 231718, Note_off_c, 0, 55, 80
2, 231718, Note_off_c, 0, 59, 80
2, 231718, Note_off_c, 0, 66, 80
2, 231720, Note_on_c, 0, 67, 95
2, 231720, Note_on_c, 0, 76, 95
2, 231838, Note_off_c, 0, 67, 80
2, 231838, Note_off_c, 0, 76, 80
2, 231840, Note_on_c, 0, 67, 95
2, 231840, Note_on_c, 0, 76, 95
2, 231958, Note_off_c, 0, 67, 80
2, 231958, Note_off_c, 0, 76, 80
2, 231960, Note_on_c, 0, 64, 95
2, 231960, Note_on_c, 0, 71, 95
2, 232078, Note_off_c, 0, 64, 80
2, 232078, Note_off_c, 0, 71, 80
2, 232080, Note_on_c, 0, 64, 95
2, 232080, Note_on_c, 0, 71, 95
2, 232198, Note_off_c, 0, 64, 80
2, 232198, Note_off_c, 0, 71, 80
2, 232200, Note_on_c, 0, 59, 95
2, 232200, Note_on_c, 0, 67, 95
2, 232318, Note_off_c, 0, 40, 80
2, 232318, Note_off_c, 0, 52, 80
2, 232318, Note_off_c, 0, 59, 80
2, 232318, Note_off_c, 0, 67, 80
2, 232320, Note_on_c, 0, 38, 95
2, 232320, Note_on_c, 0, 50, 95
2, 232320, Note_on_c, 0, 55, 95
2, 232320, Note_on_c, 0, 62, 95
2, 232320, Note_on_c, 0, 67, 95
2, 232678, Note_off_c, 0, 55, 80
2, 232678, Note_off_c, 0, 62, 80
2, 232680, Note_on_c, 0, 55, 95
2, 232680, Note_on_c, 0, 59, 95
2, 232680, Note_on_c, 0, 62, 95
2, 232918, Note_off_c, 0, 67, 80
2, 232920, Note_on_c, 0, 64, 95
2, 233038, Note_off_c, 0, 64, 80
2, 233040, Note_on_c, 0, 66, 95
2, 233158, Note_off_c, 0, 62, 80
2, 233158, Note_off_c, 0, 66, 80
2, 233160, Note_on_c, 0, 62, 95
2, 233278, Note_off_c, 0, 38, 80
2, 233278, Note_off_c, 0, 50, 80
2, 233278, Note_off_c, 0, 55, 80
2, 233278, Note_off_c, 0, 59, 80
2, 233278, Note_off_c, 0, 62, 80
2, 233280, Note_on_c, 0, 36, 95
2, 233280, Note_on_c, 0, 48, 95
2, 233280, Note_on_c, 0, 55, 95
2, 233280, Note_on_c, 0, 60, 95
2, 233280, Note_on_c, 0, 67, 95
2, 233518, Note_off_c, 0, 67, 80
2, 233520, Note_on_c, 0, 86, 95
2, 233548, Note_off_c, 0, 86, 80
2, 233550, Note_on_c, 0, 84, 76
2, 233578, Note_off_c, 0, 84, 80
2, 233580, Note_on_c, 0, 83, 76
2, 233608, Note_off_c, 0, 83, 80
2, 233610, Note_on_c, 0, 81, 95
2, 233638, Note_off_c, 0, 81, 80
2, 233640, Note_on_c, 0, 79, 76
2, 233668, Note_off_c, 0, 79, 80
2, 233670, Note_on_c, 0, 77, 76
2, 233698, Note_off_c, 0, 77, 80
2, 233700, Note_on_c, 0, 76, 95
2, 233728, Note_off_c, 0, 76, 80
2, 233730, Note_on_c, 0, 74, 76
2, 233758, Note_off_c, 0, 74, 80
2, 233760, Note_on_c, 0, 72, 76
2, 233788, Note_off_c, 0, 60, 80
2, 233788, Note_off_c, 0, 72, 80
2, 233790, Note_on_c, 0, 71, 95
2, 233818, Note_off_c, 0, 71, 80
2, 233820, Note_on_c, 0, 69, 76
2, 233848, Note_off_c, 0, 69, 80
2, 233850, Note_on_c, 0, 67, 76
2, 233878, Note_off_c, 0, 67, 80
2, 233880, Note_on_c, 0, 65, 95
2, 233908, Note_off_c, 0, 65, 80
2, 233910, Note_on_c, 0, 64, 76
2, 233938, Note_off_c, 0, 64, 80
2, 233940, Note_on_c, 0, 62, 76
2, 233968, Note_off_c, 0, 55, 80
2, 233968, Note_off_c, 0, 62, 80
2, 233970, Note_on_c, 0, 60, 95
2, 233998, Note_off_c, 0, 60, 80
2, 234000, Note_on_c, 0, 59, 76
2, 234028, Note_off_c, 0, 59, 80
2, 234030, Note_on_c, 0, 57, 76
2, 234058, Note_off_c, 0, 48, 80
2, 234058, Note_off_c, 0, 57, 80
2, 234060, Note_on_c, 0, 55, 95
2, 234088, Note_off_c, 0, 55, 80
2, 234090, Note_on_c, 0, 53, 76
2, 234118, Note_off_c, 0, 53, 80
2, 234120, Note_on_c, 0, 52, 76
2, 234148, Note_off_c, 0, 52, 80
2, 234150, Note_on_c, 0, 50, 95
2, 234178, Note_off_c, 0, 50, 80
2, 234180, Note_on_c, 0, 48, 76
2, 234208, Note_off_c, 0, 48, 80
2, 234210, Note_on_c, 0, 47, 76
2, 234238, Note_off_c, 0, 36, 80
2, 234238, Note_off_c, 0, 47, 80
2, 234240, Note_on_c, 0, 35, 95
2, 234478, Note_off_c, 0, 35, 80
2, 234480, Note_on_c, 0, 38, 95
2, 234598, Note_off_c, 0, 38, 80
2, 234840, Note_on_c, 0, 35, 95
2, 234958, Note_off_c, 0, 35, 80
2, 235080, Note_on_c, 0, 40, 95
2, 235438, Note_off_c, 0, 40, 80
2, 235440, Note_on_c, 0, 35, 95
2, 235558, Note_off_c, 0, 35, 80
2, 235680, Note_on_c, 0, 41, 95
2, 235798, Note_off_c, 0, 41, 80
2, 236040, Note_on_c, 0, 38, 95
2, 236158, Note_off_c, 0, 38, 80
2, 236280, Note_on_c, 0, 40, 95
2, 236518, Note_off_c, 0, 40, 80
2, 236520, Note_on_c, 0, 38, 95
2, 236638, Note_off_c, 0, 38, 80
2, 236640, Note_on_c, 0, 33, 95
2, 236758, Note_off_c, 0, 33, 80
2, 236760, Note_on_c, 0, 34, 76
2, 236878, Note_off_c, 0, 34, 80
2, 236880, Note_on_c, 0, 35, 95
2, 237118, Note_off_c, 0, 35, 80
2, 237120, Note_on_c, 0, 38, 95
2, 237238, Note_off_c, 0, 38, 80
2, 237480, Note_on_c, 0, 35, 95
2, 237598, Note_off_c, 0, 35, 80
2, 237720, Note_on_c, 0, 40, 95
2, 238078, Note_off_c, 0, 40, 80
2, 238080, Note_on_c, 0, 35, 95
2, 238198, Note_off_c, 0, 35, 80
2, 238320, Note_on_c, 0, 41, 95
2, 238438, Note_off_c, 0, 41, 80
2, 238680, Note_on_c, 0, 38, 95
2, 238798, Note_off_c, 0, 38, 80
2, 238920, Note_on_c, 0, 40, 95
2, 239158, Note_off_c, 0, 40, 80
2, 239160, Note_on_c, 0, 38, 95
2, 239278, Note_off_c, 0, 38, 80
2, 239280, Note_on_c, 0, 33, 95
2, 239398, Note_off_c, 0, 33, 80
2, 239400, Note_on_c, 0, 34, 76
2, 239518, Note_off_c, 0, 34, 80
2, 239520, Note_on_c, 0, 35, 95
2, 239758, Note_off_c, 0, 35, 80
2, 239760, Note_on_c, 0, 38, 95
2, 239878, Note_off_c, 0, 38, 80
2, 240120, Note_on_c, 0, 35, 95
2, 240238, Note_off_c, 0, 35, 80
2, 240360, Note_on_c, 0, 40, 95
2, 240718, Note_off_c, 0, 40, 80
2, 240720, Note_on_c, 0, 35, 95
2, 240838, Note_off_c, 0, 35, 80
2, 240960, Note_on_c, 0, 41, 95
2, 241078, Note_off_c, 0, 41, 80
2, 241320, Note_on_c, 0, 38, 95
2, 241438, Note_off_c, 0, 38, 80
2, 241560, Note_on_c, 0, 40, 95
2, 241798, Note_off_c, 0, 40, 80
2, 241800, Note_on_c, 0, 38, 95
2, 241918, Note_off_c, 0, 38, 80
2, 241920, Note_on_c, 0, 33, 95
2, 242038, Note_off_c, 0, 33, 80
2, 242040, Note_on_c, 0, 34, 76
2, 242158, Note_off_c, 0, 34, 80
2, 242160, Note_on_c, 0, 35, 95
2, 242398, Note_off_c, 0, 35, 80
2, 242400, Note_on_c, 0, 38, 95
2, 242518, Note_off_c, 0, 38, 80
2, 242760, Note_on_c, 0, 35, 95
2, 242878, Note_off_c, 0, 35, 80
2, 243000, Note_on_c, 0, 40, 95
2, 243358, Note_off_c, 0, 40, 80
2, 243360, Note_on_c, 0, 35, 95
2, 243478, Note_off_c, 0, 35, 80
2, 243600, Note_on_c, 0, 41, 95
2, 243718, Note_off_c, 0, 41, 80
2, 243960, Note_on_c, 0, 38, 95
2, 244078, Note_off_c, 0, 38, 80
2, 244200, Note_on_c, 0, 40, 95
2, 244438, Note_off_c, 0, 40, 80
2, 244440, Note_on_c, 0, 38, 95
2, 244558, Note_off_c, 0, 38, 80
2, 244560, Note_on_c, 0, 33, 95
2, 244678, Note_off_c, 0, 33, 80
2, 244680, Note_on_c, 0, 34, 76
2, 244798, Note_off_c, 0, 34, 80
2, 246720, Note_on_c, 0, 42, 95
2, 247078, Note_off_c, 0, 42, 80
2, 247080, Note_on_c, 0, 42, 95
2, 247198, Note_off_c, 0, 42, 80
2, 247200, Note_on_c, 0, 47, 95
2, 247318, Note_off_c, 0, 47, 80
2, 247320, Note_on_c, 0, 49, 95
2, 247438, Note_off_c, 0, 49, 80
2, 247440, Note_on_c, 0, 52, 95
2, 247558, Note_off_c, 0, 52, 80
2, 247560, Note_on_c, 0, 54, 95
2, 247798, Note_off_c, 0, 54, 80
2, 247800, Note_on_c, 0, 49, 95
2, 247918, Note_off_c, 0, 49, 80
2, 247920, Note_on_c, 0, 42, 95
2, 248038, Note_off_c, 0, 42, 80
2, 248040, Note_on_c, 0, 40, 95
2, 248638, Note_off_c, 0, 40, 80
2, 248640, Note_on_c, 0, 42, 95
2, 248998, Note_off_c, 0, 42, 80
2, 249000, Note_on_c, 0, 42, 95
2, 249118, Note_off_c, 0, 42, 80
2, 249120, Note_on_c, 0, 47, 95
2, 249238, Note_off_c, 0, 47, 80
2, 249240, Note_on_c, 0, 49, 95
2, 249358, Note_off_c, 0, 49, 80
2, 249360, Note_on_c, 0, 52, 95
2, 249478, Note_off_c, 0, 52, 80
2, 249480, Note_on_c, 0, 54, 95
2, 249718, Note_off_c, 0, 54, 80
2, 249720, Note_on_c, 0, 47, 95
2, 249838, Note_off_c, 0, 47, 80
2, 249840, Note_on_c, 0, 45, 95
2, 249840, Note_on_c, 0, 59, 95
2, 249840, Note_on_c, 0, 64, 95
2, 249840, Note_on_c, 0, 69, 95
2, 250558, Note_off_c, 0, 45, 80
2, 250558, Note_off_c, 0, 59, 80
2, 250558, Note_off_c, 0, 64, 80
2, 250558, Note_off_c, 0, 69, 80
2, 250560, Note_on_c, 0, 42, 95
2, 250918, Note_off_c, 0, 42, 80
2, 250920, Note_on_c, 0, 42, 95
2, 251038, Note_off_c, 0, 42, 80
2, 251040, Note_on_c, 0, 47, 95
2, 251158, Note_off_c, 0, 47, 80
2, 251160, Note_on_c, 0, 49, 95
2, 251278, Note_off_c, 0, 49, 80
2, 251280, Note_on_c, 0, 52, 95
2, 251398, Note_off_c, 0, 52, 80
2, 251400, Note_on_c, 0, 54, 95
2, 251638, Note_off_c, 0, 54, 80
2, 251640, Note_on_c, 0, 49, 95
2, 251758, Note_off_c, 0, 49, 80
2, 251760, Note_on_c, 0, 42, 95
2, 251878, Note_off_c, 0, 42, 80
2, 251880, Note_on_c, 0, 40, 95
2, 252478, Note_off_c, 0, 40, 80
2, 252480, Note_on_c, 0, 42, 95
2, 252838, Note_off_c, 0, 42, 80
2, 252840, Note_on_c, 0, 42, 95
2, 252958, Note_off_c, 0, 42, 80
2, 252960, Note_on_c, 0, 47, 95
2, 253078, Note_off_c, 0, 47, 80
2, 253080, Note_on_c, 0, 49, 95
2, 253198, Note_off_c, 0, 49, 80
2, 253200, Note_on_c, 0, 52, 95
2, 253318, Note_off_c, 0, 52, 80
2, 253320, Note_on_c, 0, 54, 95
2, 253558, Note_off_c, 0, 54, 80
2, 253560, Note_on_c, 0, 47, 95
2, 253678, Note_off_c, 0, 47, 80
2, 253680, Note_on_c, 0, 45, 95
2, 253680, Note_on_c, 0, 59, 95
2, 253680, Note_on_c, 0, 64, 95
2, 253680, Note_on_c, 0, 69, 95
2, 254398, Note_off_c, 0, 45, 80
2, 254398, Note_off_c, 0, 59, 80
2, 254398, Note_off_c, 0, 64, 80
2, 254398, Note_off_c, 0, 69, 80
2, 307200, Note_on_c, 0, 38, 95
2, 307200, Note_on_c, 0, 50, 95
2, 307200, Note_on_c, 0, 57, 95
2, 307200, Note_on_c, 0, 62, 95
2, 307918, Note_off_c, 0, 57, 80
2, 307920, Note_on_c, 0, 57, 95
2, 308038, Note_off_c, 0, 62, 80
2, 308040, Note_on_c, 0, 62, 95
2, 308398, Note_off_c, 0, 62, 80
2, 308400, Note_on_c, 0, 62, 95
2, 308518, Note_off_c, 0, 57, 80
2, 308520, Note_on_c, 0, 57, 95
2, 308638, Note_off_c, 0, 62, 80
2, 308640, Note_on_c, 0, 62, 95
2, 308760, Note_on_c, 0, 64, 95
2, 308878, Note_off_c, 0, 64, 80
2, 308880, Note_on_c, 0, 66, 95
2, 309118, Note_off_c, 0, 38, 80
2, 309118, Note_off_c, 0, 50, 80
2, 309118, Note_off_c, 0, 62, 80
2, 309120, Note_on_c, 0, 42, 95
2, 309120, Note_on_c, 0, 54, 95
2, 309120, Note_on_c, 0, 61, 95
2, 309478, Note_off_c, 0, 61, 80
2, 309480, Note_on_c, 0, 61, 95
2, 309838, Note_off_c, 0, 57, 80
2, 309838, Note_off_c, 0, 66, 80
2, 309840, Note_on_c, 0, 73, 95
2, 309840, Note_on_c, 0, 85, 95
2, 310318, Note_off_c, 0, 73, 80
2, 310318, Note_off_c, 0, 85, 80
2, 310320, Note_on_c, 0, 66, 95
2, 310320, Note_on_c, 0, 78, 95
2, 310678, Note_off_c, 0, 54, 80
2, 310678, Note_off_c, 0, 61, 80
2, 310680, Note_on_c, 0, 61, 95
2, 310680, Note_on_c, 0, 73, 95
2, 311038, Note_off_c, 0, 42, 80
2, 311038, Note_off_c, 0, 66, 80
2, 311038, Note_off_c, 0, 61, 80
2, 311038, Note_off_c, 0, 73, 80
2, 311040, Note_on_c, 0, 43, 95
2, 311040, Note_on_c, 0, 50, 95
2, 311040, Note_on_c, 0, 55, 95
2, 311040, Note_on_c, 0, 59, 95
2, 311398, Note_off_c, 0, 55, 80
2, 311398, Note_off_c, 0, 59, 80
2, 311400, Note_on_c, 0, 57, 95
2, 311400, Note_on_c, 0, 62, 95
2, 311638, Note_off_c, 0, 57, 80
2, 311640, Note_on_c, 0, 55, 95
2, 311758, Note_off_c, 0, 50, 80
2, 311758, Note_off_c, 0, 62, 80
2, 311760, Note_on_c, 0, 62, 95
2, 311760, Note_on_c, 0, 69, 95
2, 312118, Note_off_c, 0, 62, 80
2, 312120, Note_on_c, 0, 62, 95
2, 312238, Note_off_c, 0, 78, 80
2, 312238, Note_off_c, 0, 69, 80
2, 312240, Note_on_c, 0, 69, 95
2, 312358, Note_off_c, 0, 62, 80
2, 312360, Note_on_c, 0, 62, 95
2, 312478, Note_off_c, 0, 55, 80
2, 312480, Note_on_c, 0, 67, 95
2, 312600, Note_on_c, 0, 74, 95
2, 312718, Note_off_c, 0, 69, 80
2, 312720, Note_on_c, 0, 69, 95
2, 312838, Note_off_c, 0, 67, 80
2, 312840, Note_on_c, 0, 67, 95
2, 312958, Note_off_c, 0, 43, 80
2, 312958, Note_off_c, 0, 62, 80
2, 312958, Note_off_c, 0, 74, 80
2, 312958, Note_off_c, 0, 69, 80
2, 312960, Note_on_c, 0, 40, 95
2, 312960, Note_on_c, 0, 52, 95
2, 312960, Note_on_c, 0, 59, 95
2, 312960, Note_on_c, 0, 66, 95
2, 313318, Note_off_c, 0, 59, 80
2, 313318, Note_off_c, 0, 66, 80
2, 313320, Note_on_c, 0, 59, 95
2, 313320, Note_on_c, 0, 64, 95
2, 313678, Note_off_c, 0, 67, 80
2, 313678, Note_off_c, 0, 59, 80
2, 313678, Note_off_c, 0, 64, 80
2, 313680, Note_on_c, 0, 64, 95
2, 313680, Note_on_c, 0, 71, 95
2, 313680, Note_on_c, 0, 76, 95
2, 314158, Note_off_c, 0, 76, 80
2, 314160, Note_on_c, 0, 71, 95
2, 314278, Note_off_c, 0, 71, 80
2, 314280, Note_on_c, 0, 73, 95
2, 314638, Note_off_c, 0, 71, 80
2, 314640, Note_on_c, 0, 69, 95
2, 314878, Note_off_c, 0, 40, 80
2, 314878, Note_off_c, 0, 52, 80
2, 314878, Note_off_c, 0, 64, 80
2, 314878, Note_off_c, 0, 69, 80
2, 314880, Note_on_c, 0, 38, 95
2, 314880, Note_on_c, 0, 50, 95
2, 314880, Note_on_c, 0, 57, 95
2, 314880, Note_on_c, 0, 62, 95
2, 315238, Note_off_c, 0, 62, 80
2, 315240, Note_on_c, 0, 62, 95
2, 315478, Note_off_c, 0, 62, 80
2, 315480, Note_on_c, 0, 59, 95
2, 315598, Note_off_c, 0, 73, 80
2, 315598, Note_off_c, 0, 57, 80
2, 315598, Note_off_c, 0, 59, 80
2, 315600, Note_on_c, 0, 69, 95
2, 315600, Note_on_c, 0, 74, 95
2, 315600, Note_on_c, 0, 81, 95
2, 315958, Note_off_c, 0, 74, 80
2, 315960, Note_on_c, 0, 69, 95
2, 316078, Note_off_c, 0, 81, 80
2, 316080, Note_on_c, 0, 74, 95
2, 316198, Note_off_c, 0, 69, 80
2, 316200, Note_on_c, 0, 69, 95
2, 316318, Note_off_c, 0, 69, 80
2, 316320, Note_on_c, 0, 62, 95
2, 316558, Note_off_c, 0, 62, 80
2, 316560, Note_on_c, 0, 62, 95
2, 316678, Note_off_c, 0, 69, 80
2, 316680, Note_on_c, 0, 64, 95
2, 316798, Note_off_c, 0, 38, 80
2, 316798, Note_off_c, 0, 50, 80
2, 316798, Note_off_c, 0, 74, 80
2, 316798, Note_off_c, 0, 64, 80
2, 316800, Note_on_c, 0, 42, 95
2, 316800, Note_on_c, 0, 54, 95
2, 316800, Note_on_c, 0, 61, 95
2, 316800, Note_on_c, 0, 66, 95
2, 317158, Note_off_c, 0, 42, 80
2, 317160, Note_on_c, 0, 42, 95
2, 317518, Note_off_c, 0, 61, 80
2, 317520, Note_on_c, 0, 49, 95
2, 317520, Note_on_c, 0, 61, 95
2, 317998, Note_off_c, 0, 54, 80
2, 317998, Note_off_c, 0, 61, 80
2, 318000, Note_on_c, 0, 50, 95
2, 318000, Note_on_c, 0, 62, 95
2, 318358, Note_off_c, 0, 66, 80
2, 318358, Note_off_c, 0, 50, 80
2, 318360, Note_on_c, 0, 52, 95
2, 318360, Note_on_c, 0, 64, 95
2, 318718, Note_off_c, 0, 62, 80
2, 318718, Note_off_c, 0, 42, 80
2, 318718, Note_off_c, 0, 62, 80
2, 318718, Note_off_c, 0, 52, 80
2, 318718, Note_off_c, 0, 64, 80
2, 318720, Note_on_c, 0, 40, 95
2, 318720, Note_on_c, 0, 55, 95
2, 318720, Note_on_c, 0, 62, 95
2, 318720, Note_on_c, 0, 64, 95
2, 319078, Note_off_c, 0, 64, 80
2, 319080, Note_on_c, 0, 59, 95
2, 319080, Note_on_c, 0, 67, 95
2, 319198, Note_off_c, 0, 62, 80
2, 319200, Note_on_c, 0, 62, 95
2, 319318, Note_off_c, 0, 55, 80
2, 319320, Note_on_c, 0, 55, 95
2, 319438, Note_off_c, 0, 49, 80
2, 319438, Note_off_c, 0, 59, 80
2, 319438, Note_off_c, 0, 67, 80
2, 319438, Note_off_c, 0, 62, 80
2, 319440, Note_on_c, 0, 62, 95
2, 319440, Note_on_c, 0, 66, 95
2, 319440, Note_on_c, 0, 74, 95
2, 319798, Note_off_c, 0, 55, 80
2, 319800, Note_on_c, 0, 59, 95
2, 319918, Note_off_c, 0, 66, 80
2, 319918, Note_off_c, 0, 74, 80
2, 319920, Note_on_c, 0, 67, 95
2, 319920, Note_on_c, 0, 74, 95
2, 320038, Note_off_c, 0, 59, 80
2, 320040, Note_on_c, 0, 59, 95
2, 320278, Note_off_c, 0, 67, 80
2, 320278, Note_off_c, 0, 74, 80
2, 320280, Note_on_c, 0, 69, 95
2, 320280, Note_on_c, 0, 74, 95
2, 320398, Note_off_c, 0, 62, 80
2, 320400, Note_on_c, 0, 62, 95
2, 320518, Note_off_c, 0, 59, 80
2, 320520, Note_on_c, 0, 55, 95
2, 320638, Note_off_c, 0, 40, 80
2, 320638, Note_off_c, 0, 69, 80
2, 320638, Note_off_c, 0, 74, 80
2, 320638, Note_off_c, 0, 62, 80
2, 320640, Note_on_c, 0, 43, 95
2, 320640, Note_on_c, 0, 57, 95
2, 320640, Note_on_c, 0, 62, 95
2, 320640, Note_on_c, 0, 67, 95
2, 320998, Note_off_c, 0, 57, 80
2, 321000, Note_on_c, 0, 57, 95
2, 321118, Note_off_c, 0, 62, 80
2, 321120, Note_on_c, 0, 62, 95
2, 321238, Note_off_c, 0, 57, 80
2, 321240, Note_on_c, 0, 59, 95
2, 321358, Note_off_c, 0, 67, 80
2, 321360, Note_on_c, 0, 67, 95
2, 321598, Note_off_c, 0, 55, 80
2, 321598, Note_off_c, 0, 62, 80
2, 321598, Note_off_c, 0, 59, 80
2, 321598, Note_off_c, 0, 67, 80
2, 321600, Note_on_c, 0, 45, 95
2, 321600, Note_on_c, 0, 52, 95
2, 321600, Note_on_c, 0, 57, 95
2, 321600, Note_on_c, 0, 62, 95
2, 321600, Note_on_c, 0, 64, 95
2, 322078, Note_off_c, 0, 45, 80
2, 322078, Note_off_c, 0, 52, 80
2, 322078, Note_off_c, 0, 57, 80
2, 322078, Note_off_c, 0, 62, 80
2, 322078, Note_off_c, 0, 64, 80
2, 322080, Note_on_c, 0, 45, 95
2, 322080, Note_on_c, 0, 52, 95
2, 322080, Note_on_c, 0, 57, 95
2, 322080, Note_on_c, 0, 61, 95
2, 322080, Note_on_c, 0, 64, 95
2, 322558, Note_off_c, 0, 43, 80
2, 322558, Note_off_c, 0, 45, 80
2, 322558, Note_off_c, 0, 52, 80
2, 322558, Note_off_c, 0, 64, 80
2, 322560, Note_on_c, 0, 38, 95
2, 322560, Note_on_c, 0, 50, 95
2, 322560, Note_on_c, 0, 54, 95
2, 322560, Note_on_c, 0, 66, 95
2, 322918, Note_off_c, 0, 57, 80
2, 322918, Note_off_c, 0, 38, 80
2, 322918, Note_off_c, 0, 50, 80
2, 322918, Note_off_c, 0, 54, 80
2, 322918, Note_off_c, 0, 66, 80
2, 322920, Note_on_c, 0, 55, 95
2, 322920, Note_on_c, 0, 67, 95
2, 323278, Note_off_c, 0, 55, 80
2, 323278, Note_off_c, 0, 67, 80
2, 323280, Note_on_c, 0, 62, 95
2, 323280, Note_on_c, 0, 74, 95
2, 323998, Note_off_c, 0, 61, 80
2, 323998, Note_off_c, 0, 62, 80
2, 323998, Note_off_c, 0, 74, 80
2, 324000, Note_on_c, 0, 55, 95
2, 324000, Note_on_c, 0, 67, 95
2, 324478, Note_off_c, 0, 55, 80
2, 324478, Note_off_c, 0, 67, 80
2, 324480, Note_on_c, 0, 42, 95
2, 324480, Note_on_c, 0, 54, 95
2, 324480, Note_on_c, 0, 66, 95
2, 324838, Note_off_c, 0, 42, 80
2, 324838, Note_off_c, 0, 54, 80
2, 324838, Note_off_c, 0, 66, 80
2, 324840, Note_on_c, 0, 55, 95
2, 324840, Note_on_c, 0, 67, 95
2, 325198, Note_off_c, 0, 55, 80
2, 325198, Note_off_c, 0, 67, 80
2, 325200, Note_on_c, 0, 64, 95
2, 325200, Note_on_c, 0, 76, 95
2, 325918, Note_off_c, 0, 64, 80
2, 325918, Note_off_c, 0, 76, 80
2, 325920, Note_on_c, 0, 69, 95
2, 325920, Note_on_c, 0, 71, 95
2, 326158, Note_off_c, 0, 69, 80
2, 326158, Note_off_c, 0, 71, 80
2, 326160, Note_on_c, 0, 64, 95
2, 326160, Note_on_c, 0, 76, 95
2, 326398, Note_off_c, 0, 64, 80
2, 326398, Note_off_c, 0, 76, 80
2, 326400, Note_on_c, 0, 43, 95
2, 326400, Note_on_c, 0, 54, 95
2, 326400, Note_on_c, 0, 66, 95
2, 326758, Note_off_c, 0, 43, 80
2, 326758, Note_off_c, 0, 54, 80
2, 326758, Note_off_c, 0, 66, 80
2, 326760, Note_on_c, 0, 55, 95
2, 326760, Note_on_c, 0, 67, 95
2, 327118, Note_off_c, 0, 55, 80
2, 327118, Note_off_c, 0, 67, 80
2, 327120, Note_on_c, 0, 66, 95
2, 327120, Note_on_c, 0, 78, 95
2, 327478, Note_off_c, 0, 66, 80
2, 327478, Note_off_c, 0, 78, 80
2, 327480, Note_on_c, 0, 62, 95
2, 327480, Note_on_c, 0, 74, 95
2, 327838, Note_off_c, 0, 62, 80
2, 327838, Note_off_c, 0, 74, 80
2, 327840, Note_on_c, 0, 59, 95
2, 327840, Note_on_c, 0, 71, 95
2, 328078, Note_off_c, 0, 59, 80
2, 328078, Note_off_c, 0, 71, 80
2, 328080, Note_on_c, 0, 54, 95
2, 328080, Note_on_c, 0, 66, 95
2, 328318, Note_off_c, 0, 54, 80
2, 328318, Note_off_c, 0, 66, 80
2, 328320, Note_on_c, 0, 40, 95
2, 328320, Note_on_c, 0, 52, 95
2, 328320, Note_on_c, 0, 55, 95
2, 328320, Note_on_c, 0, 66, 95
2, 328678, Note_off_c, 0, 40, 80
2, 328678, Note_off_c, 0, 52, 80
2, 328678, Note_off_c, 0, 55, 80
2, 328678, Note_off_c, 0, 66, 80
2, 328680, Note_on_c, 0, 55, 95
2, 328680, Note_on_c, 0, 67, 95
2, 329038, Note_off_c, 0, 55, 80
2, 329038, Note_off_c, 0, 67, 80
2, 329040, Note_on_c, 0, 50, 95
2, 329040, Note_on_c, 0, 62, 95
2, 330238, Note_off_c, 0, 50, 80
2, 330238, Note_off_c, 0, 62, 80
2, 330240, Note_on_c, 0, 38, 95
2, 330240, Note_on_c, 0, 50, 95
2, 330240, Note_on_c, 0, 54, 95
2, 330240, Note_on_c, 0, 66, 95
2, 330598, Note_off_c, 0, 38, 80
2, 330598, Note_off_c, 0, 50, 80
2, 330598, Note_off_c, 0, 54, 80
2, 330598, Note_off_c, 0, 66, 80
2, 330600, Note_on_c, 0, 55, 95
2, 330600, Note_on_c, 0, 67, 95
2, 330958, Note_off_c, 0, 55, 80
2, 330958, Note_off_c, 0, 67, 80
2, 330960, Note_on_c, 0, 57, 95
2, 330960, Note_on_c, 0, 69, 95
2, 331678, Note_off_c, 0, 57, 80
2, 331678, Note_off_c, 0, 69, 80
2, 331680, Note_on_c, 0, 62, 95
2, 331680, Note_on_c, 0, 74, 95
2, 332158, Note_off_c, 0, 62, 80
2, 332158, Note_off_c, 0, 74, 80
2, 332160, Note_on_c, 0, 42, 95
2, 332160, Note_on_c, 0, 54, 95
2, 332160, Note_on_c, 0, 66, 95
2, 332518, Note_off_c, 0, 42, 80
2, 332518, Note_off_c, 0, 54, 80
2, 332518, Note_off_c, 0, 66, 80
2, 332520, Note_on_c, 0, 55, 95
2, 332520, Note_on_c, 0, 67, 95
2, 332878, Note_off_c, 0, 55, 80
2, 332878, Note_off_c, 0, 67, 80
2, 332880, Note_on_c, 0, 57, 95
2, 332880, Note_on_c, 0, 69, 95
2, 334078, Note_off_c, 0, 57, 80
2, 334078, Note_off_c, 0, 69, 80
2, 334080, Note_on_c, 0, 40, 95
2, 334080, Note_on_c, 0, 54, 95
2, 334080, Note_on_c, 0, 66, 95
2, 334438, Note_off_c, 0, 40, 80
2, 334438, Note_off_c, 0, 54, 80
2, 334438, Note_off_c, 0, 66, 80
2, 334440, Note_on_c, 0, 55, 95
2, 334440, Note_on_c, 0, 67, 95
2, 334798, Note_off_c, 0, 55, 80
2, 334798, Note_off_c, 0, 67, 80
2, 334800, Note_on_c, 0, 50, 95
2, 334800, Note_on_c, 0, 62, 95
2, 335278, Note_off_c, 0, 50, 80
2, 335278, Note_off_c, 0, 62, 80
2, 335280, Note_on_c, 0, 55, 95
2, 335280, Note_on_c, 0, 67, 95
2, 335518, Note_off_c, 0, 55, 80
2, 335518, Note_off_c, 0, 67, 80
2, 335520, Note_on_c, 0, 52, 95
2, 335520, Note_on_c, 0, 64, 95
2, 335758, Note_off_c, 0, 52, 80
2, 335758, Note_off_c, 0, 64, 80
2, 335760, Note_on_c, 0, 55, 95
2, 335760, Note_on_c, 0, 67, 95
2, 335998, Note_off_c, 0, 55, 80
2, 335998, Note_off_c, 0, 67, 80
2, 336000, Note_on_c, 0, 43, 95
2, 336000, Note_on_c, 0, 57, 95
2, 336000, Note_on_c, 0, 62, 95
2, 336000, Note_on_c, 0, 67, 95
2, 336358, Note_off_c, 0, 43, 80
2, 336358, Note_off_c, 0, 57, 80
2, 336358, Note_off_c, 0, 62, 80
2, 336358, Note_off_c, 0, 67, 80
2, 336360, Note_on_c, 0, 59, 95
2, 336478, Note_off_c, 0, 59, 80
2, 336480, Note_on_c, 0, 55, 95
2, 336598, Note_off_c, 0, 55, 80
2, 336600, Note_on_c, 0, 57, 95
2, 336600, Note_on_c, 0, 61, 95
2, 336600, Note_on_c, 0, 67, 95
2, 336958, Note_off_c, 0, 57, 80
2, 336958, Note_off_c, 0, 61, 80
2, 336958, Note_off_c, 0, 67, 80
2, 336960, Note_on_c, 0, 45, 95
2, 336960, Note_on_c, 0, 52, 95
2, 336960, Note_on_c, 0, 57, 95
2, 336960, Note_on_c, 0, 62, 95
2, 336960, Note_on_c, 0, 64, 95
2, 337438, Note_off_c, 0, 45, 80
2, 337438, Note_off_c, 0, 52, 80
2, 337438, Note_off_c, 0, 57, 80
2, 337438, Note_off_c, 0, 62, 80
2, 337438, Note_off_c, 0, 64, 80
2, 337440, Note_on_c, 0, 45, 95
2, 337440, Note_on_c, 0, 52, 95
2, 337440, Note_on_c, 0, 57, 95
2, 337440, Note_on_c, 0, 61, 95
2, 337440, Note_on_c, 0, 64, 95
2, 337918, Note_off_c, 0, 45, 80
2, 337918, Note_off_c, 0, 52, 80
2, 337918, Note_off_c, 0, 64, 80
2, 337920, Note_on_c, 0, 38, 95
2, 337920, Note_on_c, 0, 50, 95
2, 337920, Note_on_c, 0, 54, 95
2, 337920, Note_on_c, 0, 66, 95
2, 338278, Note_off_c, 0, 57, 80
2, 338278, Note_off_c, 0, 38, 80
2, 338278, Note_off_c, 0, 50, 80
2, 338278, Note_off_c, 0, 54, 80
2, 338278, Note_off_c, 0, 66, 80
2, 338280, Note_on_c, 0, 55, 95
2, 338280, Note_on_c, 0, 67, 95
2, 338638, Note_off_c, 0, 55, 80
2, 338638, Note_off_c, 0, 67, 80
2, 338640, Note_on_c, 0, 57, 95
2, 338640, Note_on_c, 0, 69, 95
2, 339358, Note_off_c, 0, 61, 80
2, 339358, Note_off_c, 0, 57, 80
2, 339358, Note_off_c, 0, 69, 80
2, 339360, Note_on_c, 0, 62, 95
2, 339360, Note_on_c, 0, 74, 95
2, 339838, Note_off_c, 0, 62, 80
2, 339838, Note_off_c, 0, 74, 80
2, 339840, Note_on_c, 0, 42, 95
2, 339840, Note_on_c, 0, 54, 95
2, 339840, Note_on_c, 0, 66, 95
2, 340198, Note_off_c, 0, 42, 80
2, 340198, Note_off_c, 0, 54, 80
2, 340198, Note_off_c, 0, 66, 80
2, 340200, Note_on_c, 0, 55, 95
2, 340200, Note_on_c, 0, 67, 95
2, 340558, Note_off_c, 0, 55, 80
2, 340558, Note_off_c, 0, 67, 80
2, 340560, Note_on_c, 0, 64, 95
2, 340560, Note_on_c, 0, 76, 95
2, 341758, Note_off_c, 0, 64, 80
2, 341758, Note_off_c, 0, 76, 80
2, 341760, Note_on_c, 0, 43, 95
2, 341760, Note_on_c, 0, 54, 95
2, 341760, Note_on_c, 0, 66, 95
2, 342118, Note_off_c, 0, 43, 80
2, 342118, Note_off_c, 0, 54, 80
2, 342118, Note_off_c, 0, 66, 80
2, 342120, Note_on_c, 0, 55, 95
2, 342120, Note_on_c, 0, 67, 95
2, 342478, Note_off_c, 0, 55, 80
2, 342478, Note_off_c, 0, 67, 80
2, 342480, Note_on_c, 0, 66, 95
2, 342480, Note_on_c, 0, 78, 95
2, 343678, Note_off_c, 0, 66, 80
2, 343678, Note_off_c, 0, 78, 80
2, 343680, Note_on_c, 0, 40, 95
2, 343680, Note_on_c, 0, 54, 95
2, 343680, Note_on_c, 0, 66, 95
2, 344038, Note_off_c, 0, 40, 80
2, 344038, Note_off_c, 0, 54, 80
2, 344038, Note_off_c, 0, 66, 80
2, 344040, Note_on_c, 0, 55, 95
2, 344040, Note_on_c, 0, 67, 95
2, 344398, Note_off_c, 0, 55, 80
2, 344398, Note_off_c, 0, 67, 80
2, 344400, Note_on_c, 0, 67, 95
2, 344400, Note_on_c, 0, 79, 95
2, 345118, Note_off_c, 0, 67, 80
2, 345118, Note_off_c, 0, 79, 80
2, 345120, Note_on_c, 0, 66, 95
2, 345120, Note_on_c, 0, 78, 95
2, 345598, Note_off_c, 0, 66, 80
2, 345598, Note_off_c, 0, 78, 80
2, 345600, Note_on_c, 0, 42, 95
2, 345600, Note_on_c, 0, 54, 95
2, 345600, Note_on_c, 0, 66, 95
2, 345958, Note_off_c, 0, 42, 80
2, 345958, Note_off_c, 0, 54, 80
2, 345958, Note_off_c, 0, 66, 80
2, 345960, Note_on_c, 0, 55, 95
2, 345960, Note_on_c, 0, 67, 95
2, 346318, Note_off_c, 0, 55, 80
2, 346318, Note_off_c, 0, 67, 80
2, 346320, Note_on_c, 0, 62, 95
2, 346320, Note_on_c, 0, 74, 95
2, 347518, Note_off_c, 0, 62, 80
2, 347518, Note_off_c, 0, 74, 80
2, 347520, Note_on_c, 0, 42, 95
2, 347520, Note_on_c, 0, 54, 95
2, 347520, Note_on_c, 0, 66, 95
2, 347878, Note_off_c, 0, 42, 80
2, 347878, Note_off_c, 0, 54, 80
2, 347878, Note_off_c, 0, 66, 80
2, 347880, Note_on_c, 0, 55, 95
2, 347880, Note_on_c, 0, 67, 95
2, 348238, Note_off_c, 0, 55, 80
2, 348238, Note_off_c, 0, 67, 80
2, 348240, Note_on_c, 0, 64, 95
2, 348240, Note_on_c, 0, 76, 95
2, 349438, Note_off_c, 0, 64, 80
2, 349438, Note_off_c, 0, 76, 80
2, 349440, Note_on_c, 0, 43, 95
2, 349440, Note_on_c, 0, 54, 95
2, 349440, Note_on_c, 0, 66, 95
2, 349798, Note_off_c, 0, 43, 80
2, 349798, Note_off_c, 0, 54, 80
2, 349798, Note_off_c, 0, 66, 80
2, 349800, Note_on_c, 0, 55, 95
2, 349800, Note_on_c, 0, 67, 95
2, 350158, Note_off_c, 0, 55, 80
2, 350158, Note_off_c, 0, 67, 80
2, 350160, Note_on_c, 0, 66, 95
2, 350160, Note_on_c, 0, 78, 95
2, 351358, Note_off_c, 0, 66, 80
2, 351358, Note_off_c, 0, 78, 80
2, 351360, Note_on_c, 0, 43, 95
2, 351360, Note_on_c, 0, 57, 95
2, 351360, Note_on_c, 0, 62, 95
2, 351360, Note_on_c, 0, 67, 95
2, 351838, Note_off_c, 0, 43, 80
2, 351838, Note_off_c, 0, 57, 80
2, 351838, Note_off_c, 0, 62, 80
2, 351838, Note_off_c, 0, 67, 80
2, 351840, Note_on_c, 0, 43, 95
2, 351840, Note_on_c, 0, 54, 95
2, 351840, Note_on_c, 0, 62, 95
2, 351840, Note_on_c, 0, 66, 95
2, 352318, Note_off_c, 0, 43, 80
2, 352318, Note_off_c, 0, 54, 80
2, 352318, Note_off_c, 0, 62, 80
2, 352318, Note_off_c, 0, 66, 80
2, 352320, Note_on_c, 0, 45, 95
2, 352320, Note_on_c, 0, 52, 95
2, 352320, Note_on_c, 0, 57, 95
2, 352320, Note_on_c, 0, 64, 95
2, 352798, Note_off_c, 0, 45, 80
2, 352798, Note_off_c, 0, 52, 80
2, 352798, Note_off_c, 0, 57, 80
2, 352798, Note_off_c, 0, 64, 80
2, 352800, Note_on_c, 0, 45, 95
2, 352800, Note_on_c, 0, 50, 95
2, 352800, Note_on_c, 0, 57, 95
2, 352800, Note_on_c, 0, 62, 95
2, 353278, Note_off_c, 0, 45, 80
2, 353278, Note_off_c, 0, 50, 80
2, 353278, Note_off_c, 0, 57, 80
2, 353278, Note_off_c, 0, 62, 80
2, 353280, Note_on_c, 0, 36, 95
2, 353280, Note_on_c, 0, 50, 95
2, 353280, Note_on_c, 0, 54, 95
2, 353280, Note_on_c, 0, 57, 95
2, 353280, Note_on_c, 0, 62, 95
2, 354238, Note_off_c, 0, 36, 80
2, 354238, Note_off_c, 0, 50, 80
2, 354238, Note_off_c, 0, 54, 80
2, 354238, Note_off_c, 0, 57, 80
2, 354238, Note_off_c, 0, 62, 80
2, 354240, Note_on_c, 0, 42, 95
2, 354240, Note_on_c, 0, 54, 95
2, 354240, Note_on_c, 0, 66, 95
2, 354598, Note_off_c, 0, 42, 80
2, 354598, Note_off_c, 0, 54, 80
2, 354598, Note_off_c, 0, 66, 80
2, 354600, Note_on_c, 0, 55, 95
2, 354600, Note_on_c, 0, 67, 95
2, 354958, Note_off_c, 0, 55, 80
2, 354958, Note_off_c, 0, 67, 80
2, 354960, Note_on_c, 0, 62, 95
2, 354960, Note_on_c, 0, 74, 95
2, 356158, Note_off_c, 0, 62, 80
2, 356158, Note_off_c, 0, 74, 80
2, 356160, Note_on_c, 0, 42, 95
2, 356160, Note_on_c, 0, 54, 95
2, 356160, Note_on_c, 0, 66, 95
2, 356518, Note_off_c, 0, 42, 80
2, 356518, Note_off_c, 0, 54, 80
2, 356518, Note_off_c, 0, 66, 80
2, 356520, Note_on_c, 0, 55, 95
2, 356520, Note_on_c, 0, 67, 95
2, 356878, Note_off_c, 0, 55, 80
2, 356878, Note_off_c, 0, 67, 80
2, 356880, Note_on_c, 0, 64, 95
2, 356880, Note_on_c, 0, 76, 95
2, 358078, Note_off_c, 0, 64, 80
2, 358078, Note_off_c, 0, 76, 80
2, 358080, Note_on_c, 0, 43, 95
2, 358080, Note_on_c, 0, 54, 95
2, 358080, Note_on_c, 0, 66, 95
2, 358438, Note_off_c, 0, 43, 80
2, 358438, Note_off_c, 0, 54, 80
2, 358438, Note_off_c, 0, 66, 80
2, 358440, Note_on_c, 0, 55, 95
2, 358440, Note_on_c, 0, 67, 95
2, 358798, Note_off_c, 0, 55, 80
2, 358798, Note_off_c, 0, 67, 80
2, 358800, Note_on_c, 0, 66, 95
2, 358800, Note_on_c, 0, 78, 95
2, 359158, Note_off_c, 0, 66, 80
2, 359158, Note_off_c, 0, 78, 80
2, 359160, Note_on_c, 0, 69, 95
2, 359160, Note_on_c, 0, 81, 95
2, 359278, Note_off_c, 0, 69, 80
2, 359278, Note_off_c, 0, 81, 80
2, 359280, Note_on_c, 0, 64, 95
2, 359280, Note_on_c, 0, 76, 95
2, 359998, Note_off_c, 0, 64, 80
2, 359998, Note_off_c, 0, 76, 80
2, 360000, Note_on_c, 0, 40, 95
2, 360000, Note_on_c, 0, 52, 95
2, 360000, Note_on_c, 0, 55, 95
2, 360000, Note_on_c, 0, 67, 95
2, 360478, Note_off_c, 0, 40, 80
2, 360478, Note_off_c, 0, 52, 80
2, 360478, Note_off_c, 0, 55, 80
2, 360478, Note_off_c, 0, 67, 80
2, 360480, Note_on_c, 0, 66, 95
2, 360480, Note_on_c, 0, 78, 95
2, 360958, Note_off_c, 0, 66, 80
2, 360958, Note_off_c, 0, 78, 80
2, 360960, Note_on_c, 0, 61, 95
2, 360960, Note_on_c, 0, 73, 95
2, 361438, Note_off_c, 0, 61, 80
2, 361438, Note_off_c, 0, 73, 80
2, 361440, Note_on_c, 0, 62, 95
2, 361440, Note_on_c, 0, 74, 95
2, 361918, Note_off_c, 0, 62, 80
2, 361918, Note_off_c, 0, 74, 80
2, 361920, Note_on_c, 0, 38, 95
2, 361980, Note_on_c, 0, 45, 95
2, 362040, Note_on_c, 0, 50, 95
2, 362100, Note_on_c, 0, 57, 95
2, 362160, Note_on_c, 0, 62, 95
2, 362878, Note_off_c, 0, 57, 80
2, 362880, Note_on_c, 0, 57, 95
2, 362938, Note_off_c, 0, 62, 80
2, 362940, Note_on_c, 0, 62, 95
2, 363000, Note_on_c, 0, 69, 95
2, 363060, Note_on_c, 0, 74, 95
2, 363838, Note_off_c, 0, 38, 80
2, 364318, Note_off_c, 0, 45, 80
2, 364318, Note_off_c, 0, 50, 80
2, 364318, Note_off_c, 0, 57, 80
2, 364318, Note_off_c, 0, 62, 80
2, 364318, Note_off_c, 0, 69, 80
2, 364318, Note_off_c, 0, 74, 80
2, 364318, End_track
3, 0, Start_track
3, 0, Title_t, "Stick: Tony Levin"
3, 120, Control_c, 1, 121, 0
3, 120, Control_c, 1, 123, 0
3, 120, Control_c, 1, 100, 0
3, 120, Control_c, 1, 38, 0
3, 120, Control_c, 1, 101, 0
3, 120, Control_c, 1, 6, 12
3, 120, Pitch_bend_c, 1, 8192
3, 240, Program_c, 1, 35
3, 240, Control_c, 1, 7, 18
3, 240, Control_c, 1, 10, 64
3, 16320, Note_on_c, 1, 57, 95
3, 16440, Control_c, 1, 7, 37
3, 16560, Control_c, 1, 7, 55
3, 16680, Control_c, 1, 7, 73
3, 16800, Control_c, 1, 7, 91
3, 16920, Control_c, 1, 7, 110
3, 17040, Control_c, 1, 7, 127
3, 17136, Pitch_bend_c, 1, 7552
3, 17208, Pitch_bend_c, 1, 6784
3, 17278, Note_off_c, 1, 57, 80
3, 17280, Pitch_bend_c, 1, 8192
3, 17280, Note_on_c, 1, 54, 76
3, 18958, Note_off_c, 1, 54, 80
3, 18960, Note_on_c, 1, 54, 95
3, 19152, Pitch_bend_c, 1, 7552
3, 19168, Pitch_bend_c, 1, 6784
3, 19184, Pitch_bend_c, 1, 6144
3, 19198, Note_off_c, 1, 54, 80
3, 19200, Pitch_bend_c, 1, 8192
3, 19200, Control_c, 1, 7, 18
3, 19200, Note_on_c, 1, 50, 76
3, 19320, Control_c, 1, 7, 37
3, 19440, Control_c, 1, 7, 55
3, 19560, Control_c, 1, 7, 73
3, 19680, Control_c, 1, 7, 91
3, 19800, Control_c, 1, 7, 110
3, 19920, Control_c, 1, 7, 127
3, 20398, Note_off_c, 1, 50, 80
3, 20400, Note_on_c, 1, 50, 95
3, 20508, Pitch_bend_c, 1, 8832
3, 20518, Note_off_c, 1, 50, 80
3, 20520, Pitch_bend_c, 1, 8192
3, 20520, Note_on_c, 1, 52, 76
3, 20878, Note_off_c, 1, 52, 80
3, 20880, Note_on_c, 1, 52, 95
3, 21060, Pitch_bend_c, 1, 7552
3, 21075, Pitch_bend_c, 1, 6784
3, 21090, Pitch_bend_c, 1, 6144
3, 21105, Pitch_bend_c, 1, 5504
3, 21118, Note_off_c, 1, 52, 80
3, 21120, Pitch_bend_c, 1, 8192
3, 21120, Note_on_c, 1, 47, 76
3, 22318, Note_off_c, 1, 47, 80
3, 22320, Note_on_c, 1, 45, 95
3, 22428, Pitch_bend_c, 1, 8832
3, 22438, Note_off_c, 1, 45, 80
3, 22440, Pitch_bend_c, 1, 8192
3, 22440, Note_on_c, 1, 47, 76
3, 23038, Note_off_c, 1, 47, 80
3, 23040, Note_on_c, 1, 26, 95
3, 24238, Note_off_c, 1, 26, 80
3, 24240, Control_c, 1, 7, 26
3, 24240, Note_on_c, 1, 57, 95
3, 24360, Control_c, 1, 7, 51
3, 24480, Control_c, 1, 7, 77
3, 24600, Control_c, 1, 7, 102
3, 24720, Control_c, 1, 7, 127
3, 24958, Note_off_c, 1, 57, 80
3, 24960, Note_on_c, 1, 30, 95
3, 26878, Note_off_c, 1, 30, 80
3, 26880, Note_on_c, 1, 28, 95
3, 28798, Note_off_c, 1, 28, 80
3, 28800, Note_on_c, 1, 31, 95
3, 29758, Note_off_c, 1, 31, 80
3, 29760, Note_on_c, 1, 33, 95
3, 30718, Note_off_c, 1, 33, 80
3, 30720, Note_on_c, 1, 35, 95
3, 32638, Note_off_c, 1, 35, 80
3, 32640, Note_on_c, 1, 31, 95
3, 34078, Note_off_c, 1, 31, 80
3, 34080, Note_on_c, 1, 31, 95
3, 34318, Note_off_c, 1, 31, 80
3, 34320, Note_on_c, 1, 28, 95
3, 34524, Pitch_bend_c, 1, 7552
3, 34542, Pitch_bend_c, 1, 6784
3, 34558, Note_off_c, 1, 28, 80
3, 34560, Pitch_bend_c, 1, 8192
3, 34560, Note_on_c, 1, 25, 76
3, 36478, Note_off_c, 1, 25, 80
3, 36480, Note_on_c, 1, 28, 95
3, 37438, Note_off_c, 1, 28, 80
3, 37440, Note_on_c, 1, 30, 95
3, 38158, Note_off_c, 1, 30, 80
3, 38160, Note_on_c, 1, 30, 95
3, 38278, Note_off_c, 1, 30, 80
3, 38280, Note_on_c, 1, 31, 76
3, 38398, Note_off_c, 1, 31, 80
3, 38400, Note_on_c, 1, 35, 95
3, 39958, Note_off_c, 1, 35, 80
3, 39960, Note_on_c, 1, 35, 95
3, 40062, Pitch_bend_c, 1, 8832
3, 40071, Pitch_bend_c, 1, 9600
3, 40078, Note_off_c, 1, 35, 80
3, 40080, Pitch_bend_c, 1, 8192
3, 40080, Note_on_c, 1, 38, 76
3, 40272, Pitch_bend_c, 1, 8832
3, 40318, Note_off_c, 1, 38, 80
3, 40320, Pitch_bend_c, 1, 8192
3, 40320, Note_on_c, 1, 31, 95
3, 42238, Note_off_c, 1, 31, 80
3, 42240, Note_on_c, 1, 38, 76
3, 42348, Pitch_bend_c, 1, 8832
3, 42358, Note_off_c, 1, 38, 80
3, 42360, Pitch_bend_c, 1, 8192
3, 42360, Note_on_c, 1, 40, 76
3, 42958, Note_off_c, 1, 40, 80
3, 42960, Note_on_c, 1, 40, 95
3, 44158, Note_off_c, 1, 40, 80
3, 44160, Note_on_c, 1, 38, 95
3, 44878, Note_off_c, 1, 38, 80
3, 44880, Note_on_c, 1, 38, 95
3, 45096, Pitch_bend_c, 1, 7552
3, 45118, Note_off_c, 1, 38, 80
3, 45120, Pitch_bend_c, 1, 8192
3, 45120, Note_on_c, 1, 36, 76
3, 47038, Note_off_c, 1, 36, 80
3, 47040, Note_on_c, 1, 26, 95
3, 47518, Note_off_c, 1, 26, 80
3, 47760, Note_on_c, 1, 26, 95
3, 47878, Note_off_c, 1, 26, 80
3, 47880, Note_on_c, 1, 26, 95
3, 47998, Note_off_c, 1, 26, 80
3, 48960, Note_on_c, 1, 30, 95
3, 49678, Note_off_c, 1, 30, 80
3, 49680, Note_on_c, 1, 30, 95
3, 50278, Note_off_c, 1, 30, 80
3, 50280, Note_on_c, 1, 30, 95
3, 50398, Note_off_c, 1, 30, 80
3, 50400, Note_on_c, 1, 30, 95
3, 50638, Note_off_c, 1, 30, 80
3, 50880, Note_on_c, 1, 31, 95
3, 51598, Note_off_c, 1, 31, 80
3, 51600, Note_on_c, 1, 31, 95
3, 51718, Note_off_c, 1, 31, 80
3, 51720, Note_on_c, 1, 31, 95
3, 52558, Note_off_c, 1, 31, 80
3, 52560, Note_on_c, 1, 30, 95
3, 52798, Note_off_c, 1, 30, 80
3, 52800, Note_on_c, 1, 28, 95
3, 53998, Note_off_c, 1, 28, 80
3, 54000, Note_on_c, 1, 38, 95
3, 54108, Pitch_bend_c, 1, 8832
3, 54118, Note_off_c, 1, 38, 80
3, 54120, Pitch_bend_c, 1, 8192
3, 54120, Note_on_c, 1, 40, 76
3, 54718, Note_off_c, 1, 40, 80
3, 54720, Note_on_c, 1, 26, 95
3, 55198, Note_off_c, 1, 26, 80
3, 55320, Note_on_c, 1, 23, 95
3, 55338, Note_off_c, 1, 23, 80
3, 55440, Note_on_c, 1, 26, 95
3, 56638, Note_off_c, 1, 26, 80
3, 56640, Note_on_c, 1, 30, 95
3, 57358, Note_off_c, 1, 30, 80
3, 57360, Note_on_c, 1, 30, 95
3, 58318, Note_off_c, 1, 30, 80
3, 58320, Note_on_c, 1, 30, 95
3, 58558, Note_off_c, 1, 30, 80
3, 58560, Note_on_c, 1, 28, 95
3, 59278, Note_off_c, 1, 28, 80
3, 59280, Note_on_c, 1, 38, 95
3, 59388, Pitch_bend_c, 1, 8832
3, 59398, Note_off_c, 1, 38, 80
3, 59400, Pitch_bend_c, 1, 8192
3, 59400, Note_on_c, 1, 40, 76
3, 60478, Note_off_c, 1, 40, 80
3, 60480, Note_on_c, 1, 31, 95
3, 60718, Note_off_c, 1, 31, 80
3, 60720, Note_on_c, 1, 38, 95
3, 60838, Note_off_c, 1, 38, 80
3, 60840, Note_on_c, 1, 43, 95
3, 60958, Note_off_c, 1, 43, 80
3, 60960, Note_on_c, 1, 45, 95
3, 61078, Note_off_c, 1, 45, 80
3, 61080, Note_on_c, 1, 38, 95
3, 61198, Note_off_c, 1, 38, 80
3, 61200, Note_on_c, 1, 43, 95
3, 61438, Note_off_c, 1, 43, 80
3, 61440, Note_on_c, 1, 45, 95
3, 61558, Note_off_c, 1, 45, 80
3, 61560, Note_on_c, 1, 40, 95
3, 61678, Note_off_c, 1, 40, 80
3, 61680, Note_on_c, 1, 33, 95
3, 62158, Note_off_c, 1, 33, 80
3, 62160, Note_on_c, 1, 33, 95
3, 62398, Note_off_c, 1, 33, 80
3, 62400, Note_on_c, 1, 26, 95
3, 62878, Note_off_c, 1, 26, 80
3, 63120, Note_on_c, 1, 26, 95
3, 63238, Note_off_c, 1, 26, 80
3, 63240, Note_on_c, 1, 26, 95
3, 63358, Note_off_c, 1, 26, 80
3, 63960, Note_on_c, 1, 26, 95
3, 64078, Note_off_c, 1, 26, 80
3, 64080, Note_on_c, 1, 26, 95
3, 64198, Note_off_c, 1, 26, 80
3, 64200, Note_on_c, 1, 26, 95
3, 64318, Note_off_c, 1, 26, 80
3, 64320, Note_on_c, 1, 30, 95
3, 65038, Note_off_c, 1, 30, 80
3, 65040, Note_on_c, 1, 30, 95
3, 65998, Note_off_c, 1, 30, 80
3, 66000, Note_on_c, 1, 30, 95
3, 66118, Note_off_c, 1, 30, 80
3, 66120, Note_on_c, 1, 28, 95
3, 66238, Note_off_c, 1, 28, 80
3, 66240, Note_on_c, 1, 31, 95
3, 66958, Note_off_c, 1, 31, 80
3, 66960, Note_on_c, 1, 31, 95
3, 67078, Note_off_c, 1, 31, 80
3, 67080, Note_on_c, 1, 31, 95
3, 67918, Note_off_c, 1, 31, 80
3, 67920, Note_on_c, 1, 33, 95
3, 68022, Pitch_bend_c, 1, 7552
3, 68031, Pitch_bend_c, 1, 6784
3, 68038, Note_off_c, 1, 33, 80
3, 68040, Pitch_bend_c, 1, 8192
3, 68040, Note_on_c, 1, 30, 76
3, 68158, Note_off_c, 1, 30, 80
3, 68160, Note_on_c, 1, 28, 95
3, 68878, Note_off_c, 1, 28, 80
3, 68880, Note_on_c, 1, 28, 95
3, 69358, Note_off_c, 1, 28, 80
3, 69360, Note_on_c, 1, 30, 95
3, 69598, Note_off_c, 1, 30, 80
3, 69600, Note_on_c, 1, 31, 95
3, 69718, Note_off_c, 1, 31, 80
3, 69720, Note_on_c, 1, 28, 76
3, 69838, Note_off_c, 1, 28, 80
3, 69840, Note_on_c, 1, 33, 95
3, 69958, Note_off_c, 1, 33, 80
3, 69960, Note_on_c, 1, 33, 95
3, 70078, Note_off_c, 1, 33, 80
3, 70080, Note_on_c, 1, 38, 95
3, 70198, Note_off_c, 1, 38, 80
3, 70200, Note_on_c, 1, 33, 95
3, 70318, Note_off_c, 1, 33, 80
3, 70320, Note_on_c, 1, 26, 95
3, 70798, Note_off_c, 1, 26, 80
3, 70800, Note_on_c, 1, 26, 95
3, 71518, Note_off_c, 1, 26, 80
3, 71520, Note_on_c, 1, 26, 95
3, 71758, Note_off_c, 1, 26, 80
3, 71760, Note_on_c, 1, 38, 95
3, 71820, Pitch_bend_c, 1, 7552
3, 71827, Pitch_bend_c, 1, 6784
3, 71833, Pitch_bend_c, 1, 6144
3, 71840, Pitch_bend_c, 1, 5504
3, 71847, Pitch_bend_c, 1, 4736
3, 71853, Pitch_bend_c, 1, 4096
3, 71860, Pitch_bend_c, 1, 3456
3, 71867, Pitch_bend_c, 1, 2688
3, 71873, Pitch_bend_c, 1, 2048
3, 71878, Note_off_c, 1, 38, 80
3, 71880, Pitch_bend_c, 1, 8192
3, 71880, Note_on_c, 1, 28, 76
3, 71998, Note_off_c, 1, 28, 80
3, 72000, Note_on_c, 1, 30, 95
3, 72478, Note_off_c, 1, 30, 80
3, 72720, Note_on_c, 1, 30, 95
3, 73918, Note_off_c, 1, 30, 80
3, 73920, Note_on_c, 1, 28, 95
3, 74638, Note_off_c, 1, 28, 80
3, 74640, Note_on_c, 1, 28, 95
3, 75838, Note_off_c, 1, 28, 80
3, 75840, Note_on_c, 1, 31, 95
3, 76438, Note_off_c, 1, 31, 80
3, 76440, Note_on_c, 1, 38, 95
3, 76558, Note_off_c, 1, 38, 80
3, 76560, Note_on_c, 1, 43, 95
3, 76798, Note_off_c, 1, 43, 80
3, 76800, Note_on_c, 1, 45, 95
3, 77218, Note_off_c, 1, 45, 80
3, 77220, Pitch_bend_c, 1, 3456
3, 77220, Note_on_c, 1, 45, 95
3, 77229, Pitch_bend_c, 1, 4096
3, 77237, Pitch_bend_c, 1, 4736
3, 77246, Pitch_bend_c, 1, 5504
3, 77254, Pitch_bend_c, 1, 6144
3, 77263, Pitch_bend_c, 1, 6784
3, 77271, Pitch_bend_c, 1, 7552
3, 77280, Pitch_bend_c, 1, 8192
3, 77592, Pitch_bend_c, 1, 7552
3, 77620, Pitch_bend_c, 1, 6784
3, 77648, Pitch_bend_c, 1, 6144
3, 77676, Pitch_bend_c, 1, 5504
3, 77704, Pitch_bend_c, 1, 4736
3, 77732, Pitch_bend_c, 1, 4096
3, 77758, Note_off_c, 1, 45, 80
3, 77760, Pitch_bend_c, 1, 8192
3, 77760, Note_on_c, 1, 35, 95
3, 78478, Note_off_c, 1, 35, 80
3, 78480, Note_on_c, 1, 35, 95
3, 79198, Note_off_c, 1, 35, 80
3, 79200, Note_on_c, 1, 35, 95
3, 79318, Note_off_c, 1, 35, 80
3, 79320, Note_on_c, 1, 37, 95
3, 79438, Note_off_c, 1, 37, 80
3, 79440, Note_on_c, 1, 38, 95
3, 79558, Note_off_c, 1, 38, 80
3, 79560, Note_on_c, 1, 28, 95
3, 79678, Note_off_c, 1, 28, 80
3, 79680, Note_on_c, 1, 31, 95
3, 80398, Note_off_c, 1, 31, 80
3, 80400, Note_on_c, 1, 31, 95
3, 81118, Note_off_c, 1, 31, 80
3, 81120, Note_on_c, 1, 35, 95
3, 81222, Pitch_bend_c, 1, 8832
3, 81231, Pitch_bend_c, 1, 9600
3, 81238, Note_off_c, 1, 35, 80
3, 81240, Pitch_bend_c, 1, 8192
3, 81240, Note_on_c, 1, 38, 76
3, 81358, Note_off_c, 1, 38, 80
3, 81600, Note_on_c, 1, 37, 95
3, 82318, Note_off_c, 1, 37, 80
3, 82320, Note_on_c, 1, 37, 95
3, 83278, Note_off_c, 1, 37, 80
3, 83280, Note_on_c, 1, 37, 95
3, 83398, Note_off_c, 1, 37, 80
3, 83400, Note_on_c, 1, 38, 95
3, 83518, Note_off_c, 1, 38, 80
3, 83520, Note_on_c, 1, 28, 95
3, 84238, Note_off_c, 1, 28, 80
3, 84240, Note_on_c, 1, 40, 95
3, 84358, Note_off_c, 1, 40, 80
3, 84360, Note_on_c, 1, 40, 95
3, 84478, Note_off_c, 1, 40, 80
3, 84480, Note_on_c, 1, 42, 95
3, 84718, Note_off_c, 1, 42, 80
3, 84720, Note_on_c, 1, 42, 95
3, 84958, Note_off_c, 1, 42, 80
3, 84960, Note_on_c, 1, 42, 95
3, 85272, Pitch_bend_c, 1, 7552
3, 85300, Pitch_bend_c, 1, 6784
3, 85328, Pitch_bend_c, 1, 6144
3, 85356, Pitch_bend_c, 1, 5504
3, 85384, Pitch_bend_c, 1, 4736
3, 85412, Pitch_bend_c, 1, 4096
3, 85438, Note_off_c, 1, 42, 80
3, 85440, Pitch_bend_c, 1, 8192
3, 85440, Note_on_c, 1, 35, 76
3, 86158, Note_off_c, 1, 35, 80
3, 86160, Note_on_c, 1, 35, 95
3, 86878, Note_off_c, 1, 35, 80
3, 86880, Note_on_c, 1, 37, 95
3, 86998, Note_off_c, 1, 37, 80
3, 87000, Note_on_c, 1, 38, 95
3, 87118, Note_off_c, 1, 38, 80
3, 87120, Note_on_c, 1, 37, 95
3, 87238, Note_off_c, 1, 37, 80
3, 87240, Note_on_c, 1, 35, 95
3, 87358, Note_off_c, 1, 35, 80
3, 87360, Note_on_c, 1, 31, 95
3, 88020, Pitch_bend_c, 1, 4736
3, 88020, Note_on_c, 1, 43, 76
3, 88032, Pitch_bend_c, 1, 5504
3, 88044, Pitch_bend_c, 1, 6144
3, 88056, Pitch_bend_c, 1, 6784
3, 88068, Pitch_bend_c, 1, 7552
3, 88078, Note_off_c, 1, 31, 80
3, 88080, Pitch_bend_c, 1, 8192
3, 89278, Note_off_c, 1, 43, 80
3, 89280, Note_on_c, 1, 28, 95
3, 89998, Note_off_c, 1, 28, 80
3, 90000, Note_on_c, 1, 28, 95
3, 90598, Note_off_c, 1, 28, 80
3, 90600, Note_on_c, 1, 28, 95
3, 90718, Note_off_c, 1, 28, 80
3, 90720, Note_on_c, 1, 31, 95
3, 90958, Note_off_c, 1, 31, 80
3, 90960, Note_on_c, 1, 28, 95
3, 91198, Note_off_c, 1, 28, 80
3, 91200, Note_on_c, 1, 26, 95
3, 92158, Note_off_c, 1, 26, 80
3, 92160, Note_on_c, 1, 24, 95
3, 95998, Note_off_c, 1, 24, 80
3, 126720, Note_on_c, 1, 30, 95
3, 127678, Note_off_c, 1, 30, 80
3, 127680, Note_on_c, 1, 30, 95
3, 127992, Pitch_bend_c, 1, 7552
3, 128020, Pitch_bend_c, 1, 6784
3, 128048, Pitch_bend_c, 1, 6144
3, 128076, Pitch_bend_c, 1, 5504
3, 128104, Pitch_bend_c, 1, 4736
3, 128132, Pitch_bend_c, 1, 4096
3, 128158, Note_off_c, 1, 30, 80
3, 128160, Pitch_bend_c, 1, 8192
3, 129600, Note_on_c, 1, 23, 76
3, 129838, Note_off_c, 1, 23, 80
3, 129840, Note_on_c, 1, 25, 95
3, 130078, Note_off_c, 1, 25, 80
3, 130080, Note_on_c, 1, 28, 95
3, 130318, Note_off_c, 1, 28, 80
3, 130320, Note_on_c, 1, 33, 95
3, 130558, Note_off_c, 1, 33, 80
3, 130560, Note_on_c, 1, 30, 95
3, 131518, Note_off_c, 1, 30, 80
3, 131520, Note_on_c, 1, 30, 95
3, 131904, Pitch_bend_c, 1, 8832
3, 131998, Note_off_c, 1, 30, 80
3, 132000, Pitch_bend_c, 1, 8192
3, 133560, Note_on_c, 1, 30, 76
3, 133678, Note_off_c, 1, 30, 80
3, 133680, Note_on_c, 1, 28, 95
3, 133798, Note_off_c, 1, 28, 80
3, 133800, Note_on_c, 1, 30, 95
3, 134158, Note_off_c, 1, 30, 80
3, 134160, Note_on_c, 1, 33, 95
3, 134278, Note_off_c, 1, 33, 80
3, 134280, Note_on_c, 1, 35, 76
3, 134398, Note_off_c, 1, 35, 80
3, 134400, Note_on_c, 1, 30, 95
3, 137038, Note_off_c, 1, 30, 80
3, 137160, Note_on_c, 1, 30, 95
3, 137278, Note_off_c, 1, 30, 80
3, 137280, Note_on_c, 1, 28, 95
3, 137398, Note_off_c, 1, 28, 80
3, 137400, Note_on_c, 1, 30, 76
3, 137518, Note_off_c, 1, 30, 80
3, 137520, Note_on_c, 1, 30, 95
3, 137552, Pitch_bend_c, 1, 8320
3, 137568, Pitch_bend_c, 1, 8448
3, 137584, Pitch_bend_c, 1, 8704
3, 137600, Pitch_bend_c, 1, 8832
3, 137728, Pitch_bend_c, 1, 8576
3, 137744, Pitch_bend_c, 1, 8448
3, 137760, Pitch_bend_c, 1, 8320
3, 137776, Pitch_bend_c, 1, 8192
3, 137878, Note_off_c, 1, 30, 80
3, 137880, Note_on_c, 1, 28, 95
3, 137998, Note_off_c, 1, 28, 80
3, 138000, Note_on_c, 1, 28, 95
3, 138118, Note_off_c, 1, 28, 80
3, 138120, Note_on_c, 1, 30, 95
3, 138238, Note_off_c, 1, 30, 80
3, 138240, Note_on_c, 1, 30, 95
3, 139198, Note_off_c, 1, 30, 80
3, 139200, Note_on_c, 1, 30, 95
3, 139560, Pitch_bend_c, 1, 7552
3, 139590, Pitch_bend_c, 1, 6784
3, 139620, Pitch_bend_c, 1, 6144
3, 139650, Pitch_bend_c, 1, 5504
3, 139678, Note_off_c, 1, 30, 80
3, 139680, Pitch_bend_c, 1, 8192
3, 140400, Note_on_c, 1, 25, 76
3, 140518, Note_off_c, 1, 25, 80
3, 140520, Note_on_c, 1, 28, 95
3, 140638, Note_off_c, 1, 28, 80
3, 140640, Note_on_c, 1, 30, 95
3, 140758, Note_off_c, 1, 30, 80
3, 140760, Note_on_c, 1, 37, 95
3, 141118, Note_off_c, 1, 37, 80
3, 141240, Note_on_c, 1, 25, 95
3, 141358, Note_off_c, 1, 25, 80
3, 141480, Note_on_c, 1, 25, 95
3, 141598, Note_off_c, 1, 25, 80
3, 141600, Note_on_c, 1, 28, 95
3, 141718, Note_off_c, 1, 28, 80
3, 141720, Note_on_c, 1, 25, 95
3, 141838, Note_off_c, 1, 25, 80
3, 141840, Note_on_c, 1, 28, 95
3, 141958, Note_off_c, 1, 28, 80
3, 141960, Note_on_c, 1, 29, 95
3, 142078, Note_off_c, 1, 29, 80
3, 142080, Note_on_c, 1, 30, 95
3, 142918, Note_off_c, 1, 30, 80
3, 142920, Note_on_c, 1, 25, 95
3, 143038, Note_off_c, 1, 25, 80
3, 143040, Note_on_c, 1, 28, 95
3, 143158, Note_off_c, 1, 28, 80
3, 143160, Note_on_c, 1, 29, 95
3, 143278, Note_off_c, 1, 29, 80
3, 143280, Note_on_c, 1, 30, 95
3, 143998, Note_off_c, 1, 30, 80
3, 144120, Note_on_c, 1, 25, 95
3, 144238, Note_off_c, 1, 25, 80
3, 144240, Note_on_c, 1, 28, 95
3, 144358, Note_off_c, 1, 28, 80
3, 144360, Note_on_c, 1, 30, 95
3, 144478, Note_off_c, 1, 30, 80
3, 144480, Note_on_c, 1, 31, 95
3, 144718, Note_off_c, 1, 31, 80
3, 144720, Note_on_c, 1, 31, 95
3, 144838, Note_off_c, 1, 31, 80
3, 144840, Note_on_c, 1, 25, 95
3, 144958, Note_off_c, 1, 25, 80
3, 144960, Note_on_c, 1, 31, 95
3, 145078, Note_off_c, 1, 31, 80
3, 145080, Note_on_c, 1, 33, 76
3, 145438, Note_off_c, 1, 33, 80
3, 145440, Note_on_c, 1, 31, 95
3, 145558, Note_off_c, 1, 31, 80
3, 145560, Note_on_c, 1, 33, 95
3, 145678, Note_off_c, 1, 33, 80
3, 145680, Note_on_c, 1, 31, 95
3, 145798, Note_off_c, 1, 31, 80
3, 145800, Note_on_c, 1, 33, 95
3, 145918, Note_off_c, 1, 33, 80
3, 145920, Note_on_c, 1, 30, 95
3, 146638, Note_off_c, 1, 30, 80
3, 146640, Note_on_c, 1, 30, 95
3, 146758, Note_off_c, 1, 30, 80
3, 146760, Note_on_c, 1, 25, 95
3, 146878, Note_off_c, 1, 25, 80
3, 146880, Note_on_c, 1, 28, 95
3, 146998, Note_off_c, 1, 28, 80
3, 147000, Note_on_c, 1, 30, 76
3, 147118, Note_off_c, 1, 30, 80
3, 147120, Note_on_c, 1, 30, 95
3, 147838, Note_off_c, 1, 30, 80
3, 147960, Note_on_c, 1, 28, 95
3, 148078, Note_off_c, 1, 28, 80
3, 148080, Note_on_c, 1, 30, 95
3, 148198, Note_off_c, 1, 30, 80
3, 148200, Note_on_c, 1, 31, 95
3, 148678, Note_off_c, 1, 31, 80
3, 148680, Note_on_c, 1, 28, 95
3, 148798, Note_off_c, 1, 28, 80
3, 148800, Note_on_c, 1, 30, 95
3, 148918, Note_off_c, 1, 30, 80
3, 148920, Note_on_c, 1, 31, 95
3, 149038, Note_off_c, 1, 31, 80
3, 149040, Note_on_c, 1, 33, 95
3, 149072, Pitch_bend_c, 1, 8320
3, 149104, Pitch_bend_c, 1, 8448
3, 149120, Pitch_bend_c, 1, 8576
3, 149136, Pitch_bend_c, 1, 8704
3, 149152, Pitch_bend_c, 1, 8832
3, 149312, Pitch_bend_c, 1, 8704
3, 149328, Pitch_bend_c, 1, 8576
3, 149344, Pitch_bend_c, 1, 8320
3, 149376, Pitch_bend_c, 1, 8192
3, 149518, Note_off_c, 1, 33, 80
3, 149520, Note_on_c, 1, 30, 95
3, 149758, Note_off_c, 1, 30, 80
3, 149760, Note_on_c, 1, 30, 95
3, 150478, Note_off_c, 1, 30, 80
3, 150480, Note_on_c, 1, 25, 95
3, 150598, Note_off_c, 1, 25, 80
3, 150600, Note_on_c, 1, 28, 95
3, 150718, Note_off_c, 1, 28, 80
3, 150720, Note_on_c, 1, 30, 95
3, 150838, Note_off_c, 1, 30, 80
3, 150840, Note_on_c, 1, 28, 95
3, 150958, Note_off_c, 1, 28, 80
3, 150960, Note_on_c, 1, 30, 95
3, 151318, Note_off_c, 1, 30, 80
3, 151440, Note_on_c, 1, 25, 95
3, 151558, Note_off_c, 1, 25, 80
3, 151560, Note_on_c, 1, 28, 95
3, 151678, Note_off_c, 1, 28, 80
3, 151680, Note_on_c, 1, 30, 95
3, 151798, Note_off_c, 1, 30, 80
3, 151800, Note_on_c, 1, 28, 95
3, 151918, Note_off_c, 1, 28, 80
3, 151920, Note_on_c, 1, 30, 95
3, 152518, Note_off_c, 1, 30, 80
3, 152520, Note_on_c, 1, 23, 95
3, 152638, Note_off_c, 1, 23, 80
3, 152640, Note_on_c, 1, 25, 95
3, 152758, Note_off_c, 1, 25, 80
3, 152760, Note_on_c, 1, 26, 95
3, 152878, Note_off_c, 1, 26, 80
3, 152880, Note_on_c, 1, 23, 95
3, 152998, Note_off_c, 1, 23, 80
3, 153000, Note_on_c, 1, 28, 95
3, 153118, Note_off_c, 1, 28, 80
3, 153120, Note_on_c, 1, 25, 95
3, 153238, Note_off_c, 1, 25, 80
3, 153240, Note_on_c, 1, 29, 95
3, 153358, Note_off_c, 1, 29, 80
3, 153360, Note_on_c, 1, 25, 95
3, 153478, Note_off_c, 1, 25, 80
3, 153480, Note_on_c, 1, 28, 95
3, 153538, Note_off_c, 1, 28, 80
3, 153540, Note_on_c, 1, 29, 76
3, 153598, Note_off_c, 1, 29, 80
3, 153600, Note_on_c, 1, 30, 95
3, 154318, Note_off_c, 1, 30, 80
3, 154320, Note_on_c, 1, 25, 95
3, 154438, Note_off_c, 1, 25, 80
3, 154440, Note_on_c, 1, 28, 95
3, 154558, Note_off_c, 1, 28, 80
3, 154560, Note_on_c, 1, 30, 95
3, 154678, Note_off_c, 1, 30, 80
3, 154680, Note_on_c, 1, 28, 95
3, 154798, Note_off_c, 1, 28, 80
3, 154800, Note_on_c, 1, 30, 95
3, 155518, Note_off_c, 1, 30, 80
3, 155520, Note_on_c, 1, 37, 95
3, 155638, Note_off_c, 1, 37, 80
3, 155640, Note_on_c, 1, 30, 95
3, 155758, Note_off_c, 1, 30, 80
3, 155760, Note_on_c, 1, 38, 95
3, 155878, Note_off_c, 1, 38, 80
3, 155880, Note_on_c, 1, 31, 95
3, 155998, Note_off_c, 1, 31, 80
3, 156000, Note_on_c, 1, 40, 95
3, 156118, Note_off_c, 1, 40, 80
3, 156120, Note_on_c, 1, 30, 95
3, 156238, Note_off_c, 1, 30, 80
3, 156240, Note_on_c, 1, 41, 95
3, 156358, Note_off_c, 1, 41, 80
3, 156360, Note_on_c, 1, 30, 95
3, 156478, Note_off_c, 1, 30, 80
3, 156600, Note_on_c, 1, 30, 95
3, 156718, Note_off_c, 1, 30, 80
3, 156720, Note_on_c, 1, 40, 95
3, 156838, Note_off_c, 1, 40, 80
3, 156840, Note_on_c, 1, 30, 95
3, 156958, Note_off_c, 1, 30, 80
3, 156960, Note_on_c, 1, 41, 95
3, 157078, Note_off_c, 1, 41, 80
3, 157080, Note_on_c, 1, 30, 95
3, 157198, Note_off_c, 1, 30, 80
3, 157200, Note_on_c, 1, 42, 95
3, 157318, Note_off_c, 1, 42, 80
3, 157320, Note_on_c, 1, 30, 95
3, 157438, Note_off_c, 1, 30, 80
3, 157440, Note_on_c, 1, 37, 95
3, 157558, Note_off_c, 1, 37, 80
3, 157560, Note_on_c, 1, 30, 95
3, 157678, Note_off_c, 1, 30, 80
3, 157680, Note_on_c, 1, 38, 95
3, 157798, Note_off_c, 1, 38, 80
3, 157800, Note_on_c, 1, 30, 95
3, 157918, Note_off_c, 1, 30, 80
3, 157920, Note_on_c, 1, 40, 95
3, 158038, Note_off_c, 1, 40, 80
3, 158040, Note_on_c, 1, 30, 95
3, 158158, Note_off_c, 1, 30, 80
3, 158160, Note_on_c, 1, 41, 95
3, 158278, Note_off_c, 1, 41, 80
3, 158280, Note_on_c, 1, 42, 95
3, 158398, Note_off_c, 1, 42, 80
3, 158520, Note_on_c, 1, 30, 95
3, 158638, Note_off_c, 1, 30, 80
3, 158640, Note_on_c, 1, 40, 95
3, 158758, Note_off_c, 1, 40, 80
3, 158760, Note_on_c, 1, 30, 95
3, 158878, Note_off_c, 1, 30, 80
3, 158880, Note_on_c, 1, 42, 95
3, 158998, Note_off_c, 1, 42, 80
3, 159000, Note_on_c, 1, 30, 95
3, 159118, Note_off_c, 1, 30, 80
3, 159120, Note_on_c, 1, 33, 95
3, 159324, Pitch_bend_c, 1, 7552
3, 159342, Pitch_bend_c, 1, 6784
3, 159358, Note_off_c, 1, 33, 80
3, 159360, Pitch_bend_c, 1, 8192
3, 159360, Note_on_c, 1, 30, 76
3, 159478, Note_off_c, 1, 30, 80
3, 159480, Note_on_c, 1, 30, 95
3, 159718, Note_off_c, 1, 30, 80
3, 159720, Note_on_c, 1, 30, 95
3, 159838, Note_off_c, 1, 30, 80
3, 159840, Note_on_c, 1, 40, 95
3, 159958, Note_off_c, 1, 40, 80
3, 159960, Note_on_c, 1, 30, 95
3, 160078, Note_off_c, 1, 30, 80
3, 160080, Note_on_c, 1, 42, 95
3, 160198, Note_off_c, 1, 42, 80
3, 160200, Note_on_c, 1, 30, 95
3, 160318, Note_off_c, 1, 30, 80
3, 160440, Note_on_c, 1, 30, 95
3, 160558, Note_off_c, 1, 30, 80
3, 160560, Note_on_c, 1, 40, 95
3, 160678, Note_off_c, 1, 40, 80
3, 160680, Note_on_c, 1, 30, 95
3, 160798, Note_off_c, 1, 30, 80
3, 160800, Note_on_c, 1, 42, 95
3, 160918, Note_off_c, 1, 42, 80
3, 160920, Note_on_c, 1, 30, 95
3, 161038, Note_off_c, 1, 30, 80
3, 161040, Note_on_c, 1, 33, 95
3, 161158, Note_off_c, 1, 33, 80
3, 161160, Note_on_c, 1, 34, 95
3, 161278, Note_off_c, 1, 34, 80
3, 161280, Note_on_c, 1, 30, 95
3, 161518, Note_off_c, 1, 30, 80
3, 161520, Note_on_c, 1, 30, 95
3, 161638, Note_off_c, 1, 30, 80
3, 161640, Note_on_c, 1, 30, 95
3, 161758, Note_off_c, 1, 30, 80
3, 161760, Note_on_c, 1, 40, 95
3, 161878, Note_off_c, 1, 40, 80
3, 161880, Note_on_c, 1, 30, 95
3, 161998, Note_off_c, 1, 30, 80
3, 162000, Note_on_c, 1, 42, 95
3, 162118, Note_off_c, 1, 42, 80
3, 162120, Note_on_c, 1, 30, 95
3, 162238, Note_off_c, 1, 30, 80
3, 162360, Note_on_c, 1, 30, 95
3, 162478, Note_off_c, 1, 30, 80
3, 162480, Note_on_c, 1, 33, 95
3, 162598, Note_off_c, 1, 33, 80
3, 162600, Note_on_c, 1, 30, 95
3, 162718, Note_off_c, 1, 30, 80
3, 162720, Note_on_c, 1, 42, 95
3, 162838, Note_off_c, 1, 42, 80
3, 162840, Note_on_c, 1, 30, 95
3, 162958, Note_off_c, 1, 30, 80
3, 162960, Note_on_c, 1, 33, 95
3, 163078, Note_off_c, 1, 33, 80
3, 163080, Note_on_c, 1, 34, 95
3, 163198, Note_off_c, 1, 34, 80
3, 163200, Note_on_c, 1, 30, 95
3, 163318, Note_off_c, 1, 30, 80
3, 163320, Note_on_c, 1, 42, 95
3, 163438, Note_off_c, 1, 42, 80
3, 163440, Note_on_c, 1, 30, 95
3, 163558, Note_off_c, 1, 30, 80
3, 163560, Note_on_c, 1, 31, 95
3, 163678, Note_off_c, 1, 31, 80
3, 163680, Note_on_c, 1, 40, 95
3, 163798, Note_off_c, 1, 40, 80
3, 163800, Note_on_c, 1, 30, 95
3, 163918, Note_off_c, 1, 30, 80
3, 163920, Note_on_c, 1, 41, 95
3, 164038, Note_off_c, 1, 41, 80
3, 164040, Note_on_c, 1, 30, 95
3, 164158, Note_off_c, 1, 30, 80
3, 164280, Note_on_c, 1, 30, 95
3, 164398, Note_off_c, 1, 30, 80
3, 164400, Note_on_c, 1, 39, 95
3, 164518, Note_off_c, 1, 39, 80
3, 164520, Note_on_c, 1, 30, 95
3, 164638, Note_off_c, 1, 30, 80
3, 164640, Note_on_c, 1, 40, 95
3, 164758, Note_off_c, 1, 40, 80
3, 164760, Note_on_c, 1, 30, 95
3, 164878, Note_off_c, 1, 30, 80
3, 164880, Note_on_c, 1, 41, 95
3, 164998, Note_off_c, 1, 41, 80
3, 165000, Note_on_c, 1, 42, 95
3, 165118, Note_off_c, 1, 42, 80
3, 165120, Note_on_c, 1, 30, 95
3, 165358, Note_off_c, 1, 30, 80
3, 165360, Note_on_c, 1, 30, 95
3, 165478, Note_off_c, 1, 30, 80
3, 165480, Note_on_c, 1, 30, 95
3, 165598, Note_off_c, 1, 30, 80
3, 165600, Note_on_c, 1, 40, 95
3, 165718, Note_off_c, 1, 40, 80
3, 165720, Note_on_c, 1, 30, 95
3, 165838, Note_off_c, 1, 30, 80
3, 165840, Note_on_c, 1, 42, 95
3, 165958, Note_off_c, 1, 42, 80
3, 165960, Note_on_c, 1, 30, 95
3, 166078, Note_off_c, 1, 30, 80
3, 166200, Note_on_c, 1, 30, 95
3, 166318, Note_off_c, 1, 30, 80
3, 166320, Note_on_c, 1, 33, 95
3, 166438, Note_off_c, 1, 33, 80
3, 166440, Note_on_c, 1, 30, 95
3, 166558, Note_off_c, 1, 30, 80
3, 166560, Note_on_c, 1, 42, 95
3, 166678, Note_off_c, 1, 42, 80
3, 166680, Note_on_c, 1, 30, 95
3, 166798, Note_off_c, 1, 30, 80
3, 166800, Note_on_c, 1, 33, 95
3, 166918, Note_off_c, 1, 33, 80
3, 166920, Note_on_c, 1, 34, 95
3, 167038, Note_off_c, 1, 34, 80
3, 167040, Note_on_c, 1, 30, 95
3, 167278, Note_off_c, 1, 30, 80
3, 167280, Note_on_c, 1, 30, 95
3, 167398, Note_off_c, 1, 30, 80
3, 167400, Note_on_c, 1, 30, 95
3, 167518, Note_off_c, 1, 30, 80
3, 167520, Note_on_c, 1, 40, 95
3, 167638, Note_off_c, 1, 40, 80
3, 167640, Note_on_c, 1, 30, 95
3, 167758, Note_off_c, 1, 30, 80
3, 167760, Note_on_c, 1, 42, 95
3, 167878, Note_off_c, 1, 42, 80
3, 167880, Note_on_c, 1, 30, 95
3, 167998, Note_off_c, 1, 30, 80
3, 168120, Note_on_c, 1, 30, 95
3, 168238, Note_off_c, 1, 30, 80
3, 168240, Note_on_c, 1, 33, 95
3, 168358, Note_off_c, 1, 33, 80
3, 168360, Note_on_c, 1, 30, 95
3, 168478, Note_off_c, 1, 30, 80
3, 168480, Note_on_c, 1, 35, 95
3, 168598, Note_off_c, 1, 35, 80
3, 168600, Note_on_c, 1, 30, 95
3, 168718, Note_off_c, 1, 30, 80
3, 168720, Note_on_c, 1, 40, 95
3, 168838, Note_off_c, 1, 40, 80
3, 168840, Note_on_c, 1, 42, 95
3, 168958, Note_off_c, 1, 42, 80
3, 168960, Note_on_c, 1, 30, 95
3, 169198, Note_off_c, 1, 30, 80
3, 169200, Note_on_c, 1, 30, 95
3, 169318, Note_off_c, 1, 30, 80
3, 169320, Note_on_c, 1, 30, 95
3, 169438, Note_off_c, 1, 30, 80
3, 169440, Note_on_c, 1, 40, 95
3, 169558, Note_off_c, 1, 40, 80
3, 169560, Note_on_c, 1, 30, 95
3, 169678, Note_off_c, 1, 30, 80
3, 169680, Note_on_c, 1, 42, 95
3, 169798, Note_off_c, 1, 42, 80
3, 169800, Note_on_c, 1, 30, 95
3, 169918, Note_off_c, 1, 30, 80
3, 170040, Note_on_c, 1, 30, 95
3, 170158, Note_off_c, 1, 30, 80
3, 170160, Note_on_c, 1, 33, 95
3, 170278, Note_off_c, 1, 33, 80
3, 170280, Note_on_c, 1, 30, 95
3, 170398, Note_off_c, 1, 30, 80
3, 170400, Note_on_c, 1, 42, 95
3, 170518, Note_off_c, 1, 42, 80
3, 170520, Note_on_c, 1, 30, 95
3, 170638, Note_off_c, 1, 30, 80
3, 170640, Note_on_c, 1, 33, 95
3, 170758, Note_off_c, 1, 33, 80
3, 170760, Note_on_c, 1, 34, 95
3, 170878, Note_off_c, 1, 34, 80
3, 170880, Note_on_c, 1, 30, 95
3, 171118, Note_off_c, 1, 30, 80
3, 171120, Note_on_c, 1, 30, 95
3, 171238, Note_off_c, 1, 30, 80
3, 171240, Note_on_c, 1, 30, 95
3, 171358, Note_off_c, 1, 30, 80
3, 171360, Note_on_c, 1, 40, 95
3, 171478, Note_off_c, 1, 40, 80
3, 171480, Note_on_c, 1, 30, 95
3, 171598, Note_off_c, 1, 30, 80
3, 171600, Note_on_c, 1, 42, 95
3, 172078, Note_off_c, 1, 42, 80
3, 172080, Note_on_c, 1, 30, 95
3, 172318, Note_off_c, 1, 30, 80
3, 172320, Note_on_c, 1, 30, 95
3, 172798, Note_off_c, 1, 30, 80
3, 172800, Note_on_c, 1, 35, 95
3, 173518, Note_off_c, 1, 35, 80
3, 173520, Note_on_c, 1, 35, 95
3, 174358, Note_off_c, 1, 35, 80
3, 174360, Note_on_c, 1, 33, 95
3, 174378, Note_off_c, 1, 33, 80
3, 174480, Note_on_c, 1, 35, 95
3, 174718, Note_off_c, 1, 35, 80
3, 174720, Note_on_c, 1, 35, 95
3, 175438, Note_off_c, 1, 35, 80
3, 175440, Note_on_c, 1, 35, 95
3, 176158, Note_off_c, 1, 35, 80
3, 176160, Note_on_c, 1, 37, 95
3, 176278, Note_off_c, 1, 37, 80
3, 176280, Note_on_c, 1, 38, 76
3, 176398, Note_off_c, 1, 38, 80
3, 176400, Note_on_c, 1, 33, 95
3, 176518, Note_off_c, 1, 33, 80
3, 176520, Note_on_c, 1, 35, 76
3, 176638, Note_off_c, 1, 35, 80
3, 176640, Note_on_c, 1, 35, 95
3, 177358, Note_off_c, 1, 35, 80
3, 177360, Note_on_c, 1, 35, 95
3, 177838, Note_off_c, 1, 35, 80
3, 177840, Note_on_c, 1, 61, 95
3, 178224, Pitch_bend_c, 1, 8832
3, 178318, Note_off_c, 1, 61, 80
3, 178320, Pitch_bend_c, 1, 8192
3, 178320, Note_on_c, 1, 50, 95
3, 178512, Pitch_bend_c, 1, 8832
3, 178558, Note_off_c, 1, 50, 80
3, 178560, Pitch_bend_c, 1, 8192
3, 178560, Note_on_c, 1, 61, 76
3, 178848, Pitch_bend_c, 1, 7552
3, 178872, Pitch_bend_c, 1, 6784
3, 178896, Pitch_bend_c, 1, 6144
3, 178918, Note_off_c, 1, 61, 80
3, 178920, Pitch_bend_c, 1, 8192
3, 178920, Note_on_c, 1, 57, 76
3, 179038, Note_off_c, 1, 57, 80
3, 179040, Note_on_c, 1, 57, 95
3, 179112, Pitch_bend_c, 1, 7552
3, 179125, Pitch_bend_c, 1, 6784
3, 179138, Pitch_bend_c, 1, 6144
3, 179151, Pitch_bend_c, 1, 5504
3, 179164, Pitch_bend_c, 1, 4736
3, 179177, Pitch_bend_c, 1, 4096
3, 179190, Pitch_bend_c, 1, 3456
3, 179202, Pitch_bend_c, 1, 2688
3, 179215, Pitch_bend_c, 1, 2048
3, 179228, Pitch_bend_c, 1, 1408
3, 179241, Pitch_bend_c, 1, 640
3, 179254, Pitch_bend_c, 1, 0
3, 179278, Note_off_c, 1, 57, 80
3, 179280, Pitch_bend_c, 1, 8192
3, 179280, Note_on_c, 1, 50, 76
3, 179998, Note_off_c, 1, 50, 80
3, 180000, Note_on_c, 1, 50, 95
3, 180096, Pitch_bend_c, 1, 7552
3, 180109, Pitch_bend_c, 1, 6784
3, 180122, Pitch_bend_c, 1, 6144
3, 180135, Pitch_bend_c, 1, 5504
3, 180148, Pitch_bend_c, 1, 4736
3, 180161, Pitch_bend_c, 1, 4096
3, 180175, Pitch_bend_c, 1, 3456
3, 180188, Pitch_bend_c, 1, 2688
3, 180201, Pitch_bend_c, 1, 2048
3, 180214, Pitch_bend_c, 1, 1408
3, 180227, Pitch_bend_c, 1, 640
3, 180238, Note_off_c, 1, 50, 80
3, 180240, Pitch_bend_c, 1, 8192
3, 180240, Note_on_c, 1, 38, 76
3, 180478, Note_off_c, 1, 38, 80
3, 180480, Note_on_c, 1, 30, 95
3, 180598, Note_off_c, 1, 30, 80
3, 180600, Note_on_c, 1, 30, 95
3, 180718, Note_off_c, 1, 30, 80
3, 180720, Note_on_c, 1, 30, 95
3, 180838, Note_off_c, 1, 30, 80
3, 181080, Note_on_c, 1, 30, 95
3, 181198, Note_off_c, 1, 30, 80
3, 181320, Note_on_c, 1, 30, 95
3, 181438, Note_off_c, 1, 30, 80
3, 181440, Note_on_c, 1, 30, 95
3, 181558, Note_off_c, 1, 30, 80
3, 181560, Note_on_c, 1, 30, 95
3, 181678, Note_off_c, 1, 30, 80
3, 181680, Note_on_c, 1, 30, 95
3, 181798, Note_off_c, 1, 30, 80
3, 181800, Note_on_c, 1, 28, 95
3, 181918, Note_off_c, 1, 28, 80
3, 181920, Note_on_c, 1, 28, 95
3, 182158, Note_off_c, 1, 28, 80
3, 182160, Note_on_c, 1, 31, 95
3, 182278, Note_off_c, 1, 31, 80
3, 182280, Note_on_c, 1, 28, 95
3, 182398, Note_off_c, 1, 28, 80
3, 182400, Note_on_c, 1, 30, 95
3, 182518, Note_off_c, 1, 30, 80
3, 182520, Note_on_c, 1, 30, 95
3, 182638, Note_off_c, 1, 30, 80
3, 182640, Note_on_c, 1, 30, 95
3, 182758, Note_off_c, 1, 30, 80
3, 183000, Note_on_c, 1, 30, 95
3, 183118, Note_off_c, 1, 30, 80
3, 183240, Note_on_c, 1, 30, 95
3, 183358, Note_off_c, 1, 30, 80
3, 183360, Note_on_c, 1, 30, 95
3, 183478, Note_off_c, 1, 30, 80
3, 183480, Note_on_c, 1, 30, 95
3, 183598, Note_off_c, 1, 30, 80
3, 183600, Note_on_c, 1, 30, 95
3, 183718, Note_off_c, 1, 30, 80
3, 183720, Note_on_c, 1, 28, 95
3, 183838, Note_off_c, 1, 28, 80
3, 183840, Note_on_c, 1, 28, 95
3, 184318, Note_off_c, 1, 28, 80
3, 184320, Note_on_c, 1, 30, 95
3, 184438, Note_off_c, 1, 30, 80
3, 184440, Note_on_c, 1, 30, 95
3, 184558, Note_off_c, 1, 30, 80
3, 184560, Note_on_c, 1, 30, 95
3, 184678, Note_off_c, 1, 30, 80
3, 184920, Note_on_c, 1, 30, 95
3, 185038, Note_off_c, 1, 30, 80
3, 185160, Note_on_c, 1, 30, 95
3, 185278, Note_off_c, 1, 30, 80
3, 185280, Note_on_c, 1, 30, 95
3, 185398, Note_off_c, 1, 30, 80
3, 185400, Note_on_c, 1, 30, 95
3, 185518, Note_off_c, 1, 30, 80
3, 185520, Note_on_c, 1, 30, 95
3, 185638, Note_off_c, 1, 30, 80
3, 185640, Note_on_c, 1, 28, 95
3, 185758, Note_off_c, 1, 28, 80
3, 185760, Note_on_c, 1, 28, 95
3, 185998, Note_off_c, 1, 28, 80
3, 186000, Note_on_c, 1, 31, 95
3, 186118, Note_off_c, 1, 31, 80
3, 186120, Note_on_c, 1, 28, 95
3, 186238, Note_off_c, 1, 28, 80
3, 186240, Note_on_c, 1, 30, 95
3, 186358, Note_off_c, 1, 30, 80
3, 186360, Note_on_c, 1, 30, 95
3, 186478, Note_off_c, 1, 30, 80
3, 186480, Note_on_c, 1, 30, 95
3, 186598, Note_off_c, 1, 30, 80
3, 186840, Note_on_c, 1, 30, 95
3, 186958, Note_off_c, 1, 30, 80
3, 187080, Note_on_c, 1, 30, 95
3, 187198, Note_off_c, 1, 30, 80
3, 187200, Note_on_c, 1, 30, 95
3, 187318, Note_off_c, 1, 30, 80
3, 187320, Note_on_c, 1, 30, 95
3, 187438, Note_off_c, 1, 30, 80
3, 187440, Note_on_c, 1, 30, 95
3, 187558, Note_off_c, 1, 30, 80
3, 188160, Note_on_c, 1, 35, 95
3, 188278, Note_off_c, 1, 35, 80
3, 188280, Note_on_c, 1, 35, 95
3, 188398, Note_off_c, 1, 35, 80
3, 188400, Note_on_c, 1, 35, 95
3, 188518, Note_off_c, 1, 35, 80
3, 188760, Note_on_c, 1, 35, 95
3, 188878, Note_off_c, 1, 35, 80
3, 189000, Note_on_c, 1, 35, 95
3, 189118, Note_off_c, 1, 35, 80
3, 189120, Note_on_c, 1, 35, 95
3, 189238, Note_off_c, 1, 35, 80
3, 189240, Note_on_c, 1, 35, 95
3, 189358, Note_off_c, 1, 35, 80
3, 189360, Note_on_c, 1, 35, 95
3, 189478, Note_off_c, 1, 35, 80
3, 189480, Note_on_c, 1, 33, 95
3, 189598, Note_off_c, 1, 33, 80
3, 189600, Note_on_c, 1, 33, 95
3, 189838, Note_off_c, 1, 33, 80
3, 189840, Note_on_c, 1, 36, 95
3, 189958, Note_off_c, 1, 36, 80
3, 189960, Note_on_c, 1, 33, 95
3, 190078, Note_off_c, 1, 33, 80
3, 190080, Note_on_c, 1, 35, 95
3, 190198, Note_off_c, 1, 35, 80
3, 190200, Note_on_c, 1, 35, 95
3, 190318, Note_off_c, 1, 35, 80
3, 190320, Note_on_c, 1, 35, 95
3, 190438, Note_off_c, 1, 35, 80
3, 190680, Note_on_c, 1, 35, 95
3, 190798, Note_off_c, 1, 35, 80
3, 190920, Note_on_c, 1, 35, 95
3, 191038, Note_off_c, 1, 35, 80
3, 191040, Note_on_c, 1, 35, 95
3, 191158, Note_off_c, 1, 35, 80
3, 191160, Note_on_c, 1, 35, 95
3, 191278, Note_off_c, 1, 35, 80
3, 191280, Note_on_c, 1, 35, 95
3, 191398, Note_off_c, 1, 35, 80
3, 191400, Note_on_c, 1, 33, 95
3, 191518, Note_off_c, 1, 33, 80
3, 191520, Note_on_c, 1, 33, 95
3, 191998, Note_off_c, 1, 33, 80
3, 192000, Note_on_c, 1, 35, 95
3, 192118, Note_off_c, 1, 35, 80
3, 192120, Note_on_c, 1, 35, 95
3, 192238, Note_off_c, 1, 35, 80
3, 192240, Note_on_c, 1, 35, 95
3, 192358, Note_off_c, 1, 35, 80
3, 192600, Note_on_c, 1, 35, 95
3, 192718, Note_off_c, 1, 35, 80
3, 192840, Note_on_c, 1, 35, 95
3, 192958, Note_off_c, 1, 35, 80
3, 192960, Note_on_c, 1, 35, 95
3, 193078, Note_off_c, 1, 35, 80
3, 193080, Note_on_c, 1, 35, 95
3, 193198, Note_off_c, 1, 35, 80
3, 193200, Note_on_c, 1, 35, 95
3, 193318, Note_off_c, 1, 35, 80
3, 193320, Note_on_c, 1, 33, 95
3, 193438, Note_off_c, 1, 33, 80
3, 193440, Note_on_c, 1, 33, 95
3, 193678, Note_off_c, 1, 33, 80
3, 193680, Note_on_c, 1, 36, 95
3, 193798, Note_off_c, 1, 36, 80
3, 193800, Note_on_c, 1, 33, 95
3, 193918, Note_off_c, 1, 33, 80
3, 193920, Note_on_c, 1, 35, 95
3, 194038, Note_off_c, 1, 35, 80
3, 194040, Note_on_c, 1, 35, 95
3, 194158, Note_off_c, 1, 35, 80
3, 194160, Note_on_c, 1, 35, 95
3, 194278, Note_off_c, 1, 35, 80
3, 194520, Note_on_c, 1, 35, 95
3, 194638, Note_off_c, 1, 35, 80
3, 194760, Note_on_c, 1, 35, 95
3, 194878, Note_off_c, 1, 35, 80
3, 194880, Note_on_c, 1, 35, 95
3, 194998, Note_off_c, 1, 35, 80
3, 195000, Note_on_c, 1, 35, 95
3, 195118, Note_off_c, 1, 35, 80
3, 195120, Note_on_c, 1, 35, 95
3, 195238, Note_off_c, 1, 35, 80
3, 195840, Note_on_c, 1, 30, 95
3, 195958, Note_off_c, 1, 30, 80
3, 195960, Note_on_c, 1, 30, 95
3, 196078, Note_off_c, 1, 30, 80
3, 196080, Note_on_c, 1, 30, 95
3, 196198, Note_off_c, 1, 30, 80
3, 196440, Note_on_c, 1, 30, 95
3, 196558, Note_off_c, 1, 30, 80
3, 196680, Note_on_c, 1, 30, 95
3, 196798, Note_off_c, 1, 30, 80
3, 196800, Note_on_c, 1, 30, 95
3, 196918, Note_off_c, 1, 30, 80
3, 196920, Note_on_c, 1, 30, 95
3, 197038, Note_off_c, 1, 30, 80
3, 197040, Note_on_c, 1, 30, 95
3, 197158, Note_off_c, 1, 30, 80
3, 197160, Note_on_c, 1, 28, 95
3, 197278, Note_off_c, 1, 28, 80
3, 197280, Note_on_c, 1, 28, 95
3, 197518, Note_off_c, 1, 28, 80
3, 197520, Note_on_c, 1, 31, 95
3, 197638, Note_off_c, 1, 31, 80
3, 197640, Note_on_c, 1, 28, 95
3, 197758, Note_off_c, 1, 28, 80
3, 197760, Note_on_c, 1, 30, 95
3, 197878, Note_off_c, 1, 30, 80
3, 197880, Note_on_c, 1, 30, 95
3, 197998, Note_off_c, 1, 30, 80
3, 198000, Note_on_c, 1, 30, 95
3, 198118, Note_off_c, 1, 30, 80
3, 198360, Note_on_c, 1, 30, 95
3, 198478, Note_off_c, 1, 30, 80
3, 198600, Note_on_c, 1, 30, 95
3, 198718, Note_off_c, 1, 30, 80
3, 198720, Note_on_c, 1, 30, 95
3, 198838, Note_off_c, 1, 30, 80
3, 198840, Note_on_c, 1, 30, 95
3, 198958, Note_off_c, 1, 30, 80
3, 198960, Note_on_c, 1, 30, 95
3, 199078, Note_off_c, 1, 30, 80
3, 199080, Note_on_c, 1, 28, 95
3, 199198, Note_off_c, 1, 28, 80
3, 199200, Note_on_c, 1, 28, 95
3, 199678, Note_off_c, 1, 28, 80
3, 199680, Note_on_c, 1, 30, 95
3, 199798, Note_off_c, 1, 30, 80
3, 199800, Note_on_c, 1, 30, 95
3, 199918, Note_off_c, 1, 30, 80
3, 199920, Note_on_c, 1, 30, 95
3, 200038, Note_off_c, 1, 30, 80
3, 200280, Note_on_c, 1, 30, 95
3, 200398, Note_off_c, 1, 30, 80
3, 200520, Note_on_c, 1, 30, 95
3, 200638, Note_off_c, 1, 30, 80
3, 200640, Note_on_c, 1, 30, 95
3, 200758, Note_off_c, 1, 30, 80
3, 200760, Note_on_c, 1, 30, 95
3, 200878, Note_off_c, 1, 30, 80
3, 200880, Note_on_c, 1, 30, 95
3, 200998, Note_off_c, 1, 30, 80
3, 201000, Note_on_c, 1, 28, 95
3, 201118, Note_off_c, 1, 28, 80
3, 201120, Note_on_c, 1, 28, 95
3, 201358, Note_off_c, 1, 28, 80
3, 201360, Note_on_c, 1, 31, 95
3, 201478, Note_off_c, 1, 31, 80
3, 201480, Note_on_c, 1, 28, 95
3, 201598, Note_off_c, 1, 28, 80
3, 201600, Note_on_c, 1, 30, 95
3, 201718, Note_off_c, 1, 30, 80
3, 201720, Note_on_c, 1, 30, 95
3, 201838, Note_off_c, 1, 30, 80
3, 201840, Note_on_c, 1, 30, 95
3, 201958, Note_off_c, 1, 30, 80
3, 202200, Note_on_c, 1, 30, 95
3, 202318, Note_off_c, 1, 30, 80
3, 202440, Note_on_c, 1, 30, 95
3, 202558, Note_off_c, 1, 30, 80
3, 202560, Note_on_c, 1, 30, 95
3, 202678, Note_off_c, 1, 30, 80
3, 202680, Note_on_c, 1, 30, 95
3, 202798, Note_off_c, 1, 30, 80
3, 202800, Note_on_c, 1, 30, 95
3, 202918, Note_off_c, 1, 30, 80
3, 203520, Note_on_c, 1, 35, 95
3, 203638, Note_off_c, 1, 35, 80
3, 203640, Note_on_c, 1, 35, 95
3, 203758, Note_off_c, 1, 35, 80
3, 203760, Note_on_c, 1, 35, 95
3, 203878, Note_off_c, 1, 35, 80
3, 204120, Note_on_c, 1, 35, 95
3, 204238, Note_off_c, 1, 35, 80
3, 204360, Note_on_c, 1, 35, 95
3, 204478, Note_off_c, 1, 35, 80
3, 204480, Note_on_c, 1, 35, 95
3, 204598, Note_off_c, 1, 35, 80
3, 204600, Note_on_c, 1, 35, 95
3, 204718, Note_off_c, 1, 35, 80
3, 204720, Note_on_c, 1, 35, 95
3, 204838, Note_off_c, 1, 35, 80
3, 204840, Note_on_c, 1, 33, 95
3, 204958, Note_off_c, 1, 33, 80
3, 204960, Note_on_c, 1, 33, 95
3, 205198, Note_off_c, 1, 33, 80
3, 205200, Note_on_c, 1, 36, 95
3, 205318, Note_off_c, 1, 36, 80
3, 205320, Note_on_c, 1, 33, 95
3, 205438, Note_off_c, 1, 33, 80
3, 205440, Note_on_c, 1, 35, 95
3, 205558, Note_off_c, 1, 35, 80
3, 205560, Note_on_c, 1, 35, 95
3, 205678, Note_off_c, 1, 35, 80
3, 205680, Note_on_c, 1, 35, 95
3, 205798, Note_off_c, 1, 35, 80
3, 206040, Note_on_c, 1, 35, 95
3, 206158, Note_off_c, 1, 35, 80
3, 206280, Note_on_c, 1, 35, 95
3, 206398, Note_off_c, 1, 35, 80
3, 206400, Note_on_c, 1, 35, 95
3, 206518, Note_off_c, 1, 35, 80
3, 206520, Note_on_c, 1, 35, 95
3, 206638, Note_off_c, 1, 35, 80
3, 206640, Note_on_c, 1, 35, 95
3, 206758, Note_off_c, 1, 35, 80
3, 206760, Note_on_c, 1, 33, 95
3, 206796, Pitch_bend_c, 1, 8832
3, 206802, Pitch_bend_c, 1, 9600
3, 206809, Pitch_bend_c, 1, 10240
3, 206815, Pitch_bend_c, 1, 10880
3, 206822, Pitch_bend_c, 1, 11648
3, 206828, Pitch_bend_c, 1, 12288
3, 206835, Pitch_bend_c, 1, 12928
3, 206841, Pitch_bend_c, 1, 13696
3, 206848, Pitch_bend_c, 1, 14336
3, 206854, Pitch_bend_c, 1, 14976
3, 206861, Pitch_bend_c, 1, 15744
3, 206867, Pitch_bend_c, 1, 16256
3, 206878, Note_off_c, 1, 33, 80
3, 206880, Pitch_bend_c, 1, 8192
3, 206880, Note_on_c, 1, 47, 76
3, 207072, Pitch_bend_c, 1, 7552
3, 207098, Pitch_bend_c, 1, 6784
3, 207124, Pitch_bend_c, 1, 6144
3, 207151, Pitch_bend_c, 1, 5504
3, 207177, Pitch_bend_c, 1, 4736
3, 207203, Pitch_bend_c, 1, 4096
3, 207229, Pitch_bend_c, 1, 3456
3, 207255, Pitch_bend_c, 1, 2688
3, 207281, Pitch_bend_c, 1, 2048
3, 207308, Pitch_bend_c, 1, 1408
3, 207334, Pitch_bend_c, 1, 640
3, 207358, Note_off_c, 1, 47, 80
3, 207360, Pitch_bend_c, 1, 8192
3, 207360, Note_on_c, 1, 35, 76
3, 207478, Note_off_c, 1, 35, 80
3, 207480, Note_on_c, 1, 35, 95
3, 207598, Note_off_c, 1, 35, 80
3, 207600, Note_on_c, 1, 35, 95
3, 207718, Note_off_c, 1, 35, 80
3, 207960, Note_on_c, 1, 35, 95
3, 208078, Note_off_c, 1, 35, 80
3, 208200, Note_on_c, 1, 35, 95
3, 208318, Note_off_c, 1, 35, 80
3, 208320, Note_on_c, 1, 35, 95
3, 208438, Note_off_c, 1, 35, 80
3, 208440, Note_on_c, 1, 35, 95
3, 208558, Note_off_c, 1, 35, 80
3, 208560, Note_on_c, 1, 35, 95
3, 208678, Note_off_c, 1, 35, 80
3, 208680, Note_on_c, 1, 33, 95
3, 208798, Note_off_c, 1, 33, 80
3, 208800, Note_on_c, 1, 33, 95
3, 209038, Note_off_c, 1, 33, 80
3, 209040, Note_on_c, 1, 36, 95
3, 209158, Note_off_c, 1, 36, 80
3, 209160, Note_on_c, 1, 33, 95
3, 209278, Note_off_c, 1, 33, 80
3, 209280, Note_on_c, 1, 35, 95
3, 209398, Note_off_c, 1, 35, 80
3, 209400, Note_on_c, 1, 35, 95
3, 209518, Note_off_c, 1, 35, 80
3, 209520, Note_on_c, 1, 35, 95
3, 209638, Note_off_c, 1, 35, 80
3, 209880, Note_on_c, 1, 35, 95
3, 209998, Note_off_c, 1, 35, 80
3, 210120, Note_on_c, 1, 35, 95
3, 210238, Note_off_c, 1, 35, 80
3, 210240, Note_on_c, 1, 35, 95
3, 210358, Note_off_c, 1, 35, 80
3, 210360, Note_on_c, 1, 35, 95
3, 210478, Note_off_c, 1, 35, 80
3, 210480, Note_on_c, 1, 35, 95
3, 210598, Note_off_c, 1, 35, 80
3, 211200, Note_on_c, 1, 30, 95
3, 211318, Note_off_c, 1, 30, 80
3, 211320, Note_on_c, 1, 30, 95
3, 211438, Note_off_c, 1, 30, 80
3, 211440, Note_on_c, 1, 30, 95
3, 211558, Note_off_c, 1, 30, 80
3, 211800, Note_on_c, 1, 30, 95
3, 211918, Note_off_c, 1, 30, 80
3, 212040, Note_on_c, 1, 30, 95
3, 212158, Note_off_c, 1, 30, 80
3, 212160, Note_on_c, 1, 30, 95
3, 212278, Note_off_c, 1, 30, 80
3, 212280, Note_on_c, 1, 30, 95
3, 212398, Note_off_c, 1, 30, 80
3, 212400, Note_on_c, 1, 30, 95
3, 212518, Note_off_c, 1, 30, 80
3, 212520, Note_on_c, 1, 28, 95
3, 212638, Note_off_c, 1, 28, 80
3, 212640, Note_on_c, 1, 28, 95
3, 212878, Note_off_c, 1, 28, 80
3, 212880, Note_on_c, 1, 31, 95
3, 212998, Note_off_c, 1, 31, 80
3, 213000, Note_on_c, 1, 28, 95
3, 213118, Note_off_c, 1, 28, 80
3, 213120, Note_on_c, 1, 30, 95
3, 213238, Note_off_c, 1, 30, 80
3, 213240, Note_on_c, 1, 30, 95
3, 213358, Note_off_c, 1, 30, 80
3, 213360, Note_on_c, 1, 30, 95
3, 213478, Note_off_c, 1, 30, 80
3, 213720, Note_on_c, 1, 30, 95
3, 213838, Note_off_c, 1, 30, 80
3, 213960, Note_on_c, 1, 30, 95
3, 214078, Note_off_c, 1, 30, 80
3, 214080, Note_on_c, 1, 30, 95
3, 214198, Note_off_c, 1, 30, 80
3, 214200, Note_on_c, 1, 30, 95
3, 214318, Note_off_c, 1, 30, 80
3, 214320, Note_on_c, 1, 30, 95
3, 214438, Note_off_c, 1, 30, 80
3, 214440, Note_on_c, 1, 28, 95
3, 214558, Note_off_c, 1, 28, 80
3, 214560, Note_on_c, 1, 28, 95
3, 215038, Note_off_c, 1, 28, 80
3, 215040, Note_on_c, 1, 30, 95
3, 215158, Note_off_c, 1, 30, 80
3, 215160, Note_on_c, 1, 30, 95
3, 215278, Note_off_c, 1, 30, 80
3, 215280, Note_on_c, 1, 30, 95
3, 215398, Note_off_c, 1, 30, 80
3, 215640, Note_on_c, 1, 30, 95
3, 215758, Note_off_c, 1, 30, 80
3, 215880, Note_on_c, 1, 30, 95
3, 215998, Note_off_c, 1, 30, 80
3, 216000, Note_on_c, 1, 30, 95
3, 216118, Note_off_c, 1, 30, 80
3, 216120, Note_on_c, 1, 30, 95
3, 216238, Note_off_c, 1, 30, 80
3, 216240, Note_on_c, 1, 30, 95
3, 216358, Note_off_c, 1, 30, 80
3, 216360, Note_on_c, 1, 28, 95
3, 216478, Note_off_c, 1, 28, 80
3, 216480, Note_on_c, 1, 28, 95
3, 216718, Note_off_c, 1, 28, 80
3, 216720, Note_on_c, 1, 31, 95
3, 216838, Note_off_c, 1, 31, 80
3, 216840, Note_on_c, 1, 28, 95
3, 216958, Note_off_c, 1, 28, 80
3, 216960, Note_on_c, 1, 30, 95
3, 217078, Note_off_c, 1, 30, 80
3, 217080, Note_on_c, 1, 30, 95
3, 217198, Note_off_c, 1, 30, 80
3, 217200, Note_on_c, 1, 30, 95
3, 217318, Note_off_c, 1, 30, 80
3, 217560, Note_on_c, 1, 30, 95
3, 217678, Note_off_c, 1, 30, 80
3, 217800, Note_on_c, 1, 30, 95
3, 217918, Note_off_c, 1, 30, 80
3, 217920, Note_on_c, 1, 30, 95
3, 218038, Note_off_c, 1, 30, 80
3, 218040, Note_on_c, 1, 30, 95
3, 218158, Note_off_c, 1, 30, 80
3, 218160, Note_on_c, 1, 30, 95
3, 218278, Note_off_c, 1, 30, 80
3, 218280, Note_on_c, 1, 30, 95
3, 218398, Note_off_c, 1, 30, 80
3, 218400, Note_on_c, 1, 30, 95
3, 218878, Note_off_c, 1, 30, 80
3, 218880, Note_on_c, 1, 35, 95
3, 219598, Note_off_c, 1, 35, 80
3, 219600, Note_on_c, 1, 35, 95
3, 220318, Note_off_c, 1, 35, 80
3, 220320, Note_on_c, 1, 35, 95
3, 220704, Pitch_bend_c, 1, 7552
3, 220736, Pitch_bend_c, 1, 6784
3, 220768, Pitch_bend_c, 1, 6144
3, 220798, Note_off_c, 1, 35, 80
3, 220800, Pitch_bend_c, 1, 8192
3, 220800, Note_on_c, 1, 31, 76
3, 221278, Note_off_c, 1, 31, 80
3, 221520, Note_on_c, 1, 31, 95
3, 222478, Note_off_c, 1, 31, 80
3, 222480, Note_on_c, 1, 31, 95
3, 222598, Note_off_c, 1, 31, 80
3, 222600, Note_on_c, 1, 35, 95
3, 222718, Note_off_c, 1, 35, 80
3, 222720, Note_on_c, 1, 37, 95
3, 223438, Note_off_c, 1, 37, 80
3, 223440, Note_on_c, 1, 37, 95
3, 224518, Note_off_c, 1, 37, 80
3, 224520, Note_on_c, 1, 38, 95
3, 224638, Note_off_c, 1, 38, 80
3, 224640, Note_on_c, 1, 40, 95
3, 224998, Note_off_c, 1, 40, 80
3, 225000, Note_on_c, 1, 40, 95
3, 225358, Note_off_c, 1, 40, 80
3, 225360, Note_on_c, 1, 40, 95
3, 225598, Note_off_c, 1, 40, 80
3, 225600, Note_on_c, 1, 40, 95
3, 225708, Pitch_bend_c, 1, 8832
3, 225718, Note_off_c, 1, 40, 80
3, 225720, Pitch_bend_c, 1, 8192
3, 225720, Note_on_c, 1, 42, 76
3, 226078, Note_off_c, 1, 42, 80
3, 226080, Note_on_c, 1, 42, 95
3, 226392, Pitch_bend_c, 1, 7552
3, 226420, Pitch_bend_c, 1, 6784
3, 226448, Pitch_bend_c, 1, 6144
3, 226476, Pitch_bend_c, 1, 5504
3, 226504, Pitch_bend_c, 1, 4736
3, 226532, Pitch_bend_c, 1, 4096
3, 226558, Note_off_c, 1, 42, 80
3, 226560, Pitch_bend_c, 1, 8192
3, 226560, Note_on_c, 1, 35, 76
3, 227278, Note_off_c, 1, 35, 80
3, 227280, Note_on_c, 1, 35, 95
3, 227518, Note_off_c, 1, 35, 80
3, 227520, Note_on_c, 1, 37, 95
3, 227758, Note_off_c, 1, 37, 80
3, 227760, Note_on_c, 1, 38, 95
3, 227998, Note_off_c, 1, 38, 80
3, 228000, Note_on_c, 1, 37, 95
3, 228238, Note_off_c, 1, 37, 80
3, 228240, Note_on_c, 1, 35, 95
3, 228418, Note_off_c, 1, 35, 80
3, 228480, Note_on_c, 1, 31, 95
3, 229198, Note_off_c, 1, 31, 80
3, 229200, Note_on_c, 1, 31, 95
3, 230158, Note_off_c, 1, 31, 80
3, 230160, Note_on_c, 1, 31, 95
3, 230278, Note_off_c, 1, 31, 80
3, 230280, Note_on_c, 1, 30, 76
3, 230398, Note_off_c, 1, 30, 80
3, 230400, Note_on_c, 1, 28, 95
3, 231118, Note_off_c, 1, 28, 80
3, 231120, Note_on_c, 1, 28, 95
3, 232260, Pitch_bend_c, 1, 4736
3, 232260, Note_on_c, 1, 38, 95
3, 232272, Pitch_bend_c, 1, 5504
3, 232284, Pitch_bend_c, 1, 6144
3, 232296, Pitch_bend_c, 1, 6784
3, 232308, Pitch_bend_c, 1, 7552
3, 232318, Note_off_c, 1, 28, 80
3, 232320, Pitch_bend_c, 1, 8192
3, 233278, Note_off_c, 1, 38, 80
3, 233280, Note_on_c, 1, 36, 95
3, 234238, Note_off_c, 1, 36, 80
3, 239160, Note_on_c, 1, 38, 95
3, 239278, Note_off_c, 1, 38, 80
3, 239280, Note_on_c, 1, 33, 95
3, 239398, Note_off_c, 1, 33, 80
3, 239400, Note_on_c, 1, 34, 76
3, 239518, Note_off_c, 1, 34, 80
3, 239520, Note_on_c, 1, 35, 95
3, 239758, Note_off_c, 1, 35, 80
3, 239760, Note_on_c, 1, 38, 95
3, 239878, Note_off_c, 1, 38, 80
3, 240120, Note_on_c, 1, 35, 95
3, 240238, Note_off_c, 1, 35, 80
3, 240360, Note_on_c, 1, 38, 95
3, 240718, Note_off_c, 1, 38, 80
3, 240720, Note_on_c, 1, 35, 95
3, 240838, Note_off_c, 1, 35, 80
3, 240960, Note_on_c, 1, 41, 95
3, 241078, Note_off_c, 1, 41, 80
3, 241320, Note_on_c, 1, 38, 95
3, 241438, Note_off_c, 1, 38, 80
3, 241560, Note_on_c, 1, 40, 95
3, 241798, Note_off_c, 1, 40, 80
3, 241800, Note_on_c, 1, 38, 95
3, 241918, Note_off_c, 1, 38, 80
3, 241920, Note_on_c, 1, 33, 95
3, 242038, Note_off_c, 1, 33, 80
3, 242040, Note_on_c, 1, 34, 76
3, 242158, Note_off_c, 1, 34, 80
3, 242160, Note_on_c, 1, 35, 95
3, 242398, Note_off_c, 1, 35, 80
3, 242400, Note_on_c, 1, 38, 95
3, 242518, Note_off_c, 1, 38, 80
3, 242760, Note_on_c, 1, 35, 95
3, 242878, Note_off_c, 1, 35, 80
3, 243000, Note_on_c, 1, 38, 95
3, 243358, Note_off_c, 1, 38, 80
3, 243360, Note_on_c, 1, 35, 95
3, 243478, Note_off_c, 1, 35, 80
3, 243600, Note_on_c, 1, 41, 95
3, 243718, Note_off_c, 1, 41, 80
3, 243960, Note_on_c, 1, 38, 95
3, 244078, Note_off_c, 1, 38, 80
3, 244200, Note_on_c, 1, 40, 95
3, 244438, Note_off_c, 1, 40, 80
3, 244440, Note_on_c, 1, 38, 95
3, 244558, Note_off_c, 1, 38, 80
3, 244560, Note_on_c, 1, 33, 95
3, 244678, Note_off_c, 1, 33, 80
3, 244680, Note_on_c, 1, 34, 76
3, 244798, Note_off_c, 1, 34, 80
3, 246720, Note_on_c, 1, 30, 95
3, 247078, Note_off_c, 1, 30, 80
3, 247080, Note_on_c, 1, 30, 95
3, 247198, Note_off_c, 1, 30, 80
3, 247200, Note_on_c, 1, 35, 95
3, 247318, Note_off_c, 1, 35, 80
3, 247320, Note_on_c, 1, 37, 76
3, 247438, Note_off_c, 1, 37, 80
3, 247440, Note_on_c, 1, 40, 95
3, 247558, Note_off_c, 1, 40, 80
3, 247560, Note_on_c, 1, 42, 95
3, 247798, Note_off_c, 1, 42, 80
3, 247800, Note_on_c, 1, 37, 95
3, 247918, Note_off_c, 1, 37, 80
3, 247920, Note_on_c, 1, 30, 95
3, 248038, Note_off_c, 1, 30, 80
3, 248040, Note_on_c, 1, 28, 95
3, 248398, Note_off_c, 1, 28, 80
3, 248400, Note_on_c, 1, 28, 95
3, 248518, Note_off_c, 1, 28, 80
3, 248520, Note_on_c, 1, 28, 95
3, 248638, Note_off_c, 1, 28, 80
3, 248640, Note_on_c, 1, 30, 95
3, 248998, Note_off_c, 1, 30, 80
3, 249000, Note_on_c, 1, 30, 95
3, 249118, Note_off_c, 1, 30, 80
3, 249120, Note_on_c, 1, 35, 95
3, 249238, Note_off_c, 1, 35, 80
3, 249240, Note_on_c, 1, 37, 76
3, 249358, Note_off_c, 1, 37, 80
3, 249360, Note_on_c, 1, 40, 95
3, 249478, Note_off_c, 1, 40, 80
3, 249480, Note_on_c, 1, 42, 95
3, 249718, Note_off_c, 1, 42, 80
3, 249720, Note_on_c, 1, 35, 95
3, 249838, Note_off_c, 1, 35, 80
3, 249840, Note_on_c, 1, 33, 95
3, 250558, Note_off_c, 1, 33, 80
3, 250560, Note_on_c, 1, 30, 95
3, 250918, Note_off_c, 1, 30, 80
3, 250920, Note_on_c, 1, 30, 95
3, 251038, Note_off_c, 1, 30, 80
3, 251040, Note_on_c, 1, 35, 95
3, 251158, Note_off_c, 1, 35, 80
3, 251160, Note_on_c, 1, 37, 76
3, 251278, Note_off_c, 1, 37, 80
3, 251280, Note_on_c, 1, 40, 95
3, 251398, Note_off_c, 1, 40, 80
3, 251400, Note_on_c, 1, 42, 95
3, 251638, Note_off_c, 1, 42, 80
3, 251640, Note_on_c, 1, 37, 95
3, 251758, Note_off_c, 1, 37, 80
3, 251760, Note_on_c, 1, 30, 95
3, 251878, Note_off_c, 1, 30, 80
3, 251880, Note_on_c, 1, 28, 95
3, 252238, Note_off_c, 1, 28, 80
3, 252240, Note_on_c, 1, 28, 95
3, 252358, Note_off_c, 1, 28, 80
3, 252360, Note_on_c, 1, 28, 95
3, 252478, Note_off_c, 1, 28, 80
3, 252480, Note_on_c, 1, 30, 95
3, 252838, Note_off_c, 1, 30, 80
3, 252840, Note_on_c, 1, 30, 95
3, 252958, Note_off_c, 1, 30, 80
3, 252960, Note_on_c, 1, 35, 95
3, 253078, Note_off_c, 1, 35, 80
3, 253080, Note_on_c, 1, 37, 76
3, 253198, Note_off_c, 1, 37, 80
3, 253200, Note_on_c, 1, 40, 95
3, 253318, Note_off_c, 1, 40, 80
3, 253320, Note_on_c, 1, 42, 95
3, 253558, Note_off_c, 1, 42, 80
3, 253560, Note_on_c, 1, 35, 95
3, 253678, Note_off_c, 1, 35, 80
3, 253680, Note_on_c, 1, 33, 95
3, 253872, Pitch_bend_c, 1, 8832
3, 253898, Pitch_bend_c, 1, 9600
3, 253924, Pitch_bend_c, 1, 10240
3, 253951, Pitch_bend_c, 1, 10880
3, 253977, Pitch_bend_c, 1, 11648
3, 254003, Pitch_bend_c, 1, 12288
3, 254029, Pitch_bend_c, 1, 12928
3, 254055, Pitch_bend_c, 1, 13696
3, 254081, Pitch_bend_c, 1, 14336
3, 254108, Pitch_bend_c, 1, 14976
3, 254134, Pitch_bend_c, 1, 15744
3, 254158, Note_off_c, 1, 33, 80
3, 254160, Pitch_bend_c, 1, 8192
3, 254160, Note_on_c, 1, 45, 76
3, 254280, Pitch_bend_c, 1, 7552
3, 254293, Pitch_bend_c, 1, 6784
3, 254307, Pitch_bend_c, 1, 6144
3, 254320, Pitch_bend_c, 1, 5504
3, 254333, Pitch_bend_c, 1, 4736
3, 254347, Pitch_bend_c, 1, 4096
3, 254360, Pitch_bend_c, 1, 3456
3, 254373, Pitch_bend_c, 1, 2688
3, 254387, Pitch_bend_c, 1, 2048
3, 254398, Note_off_c, 1, 45, 80
3, 254400, Pitch_bend_c, 1, 8192
3, 254400, Note_on_c, 1, 35, 76
3, 254638, Note_off_c, 1, 35, 80
3, 254640, Note_on_c, 1, 40, 95
3, 254758, Note_off_c, 1, 40, 80
3, 255000, Note_on_c, 1, 35, 95
3, 255118, Note_off_c, 1, 35, 80
3, 255240, Note_on_c, 1, 40, 95
3, 255598, Note_off_c, 1, 40, 80
3, 255600, Note_on_c, 1, 35, 95
3, 255718, Note_off_c, 1, 35, 80
3, 255840, Note_on_c, 1, 41, 95
3, 255958, Note_off_c, 1, 41, 80
3, 256200, Note_on_c, 1, 38, 95
3, 256318, Note_off_c, 1, 38, 80
3, 256440, Note_on_c, 1, 40, 95
3, 256678, Note_off_c, 1, 40, 80
3, 256680, Note_on_c, 1, 38, 95
3, 256798, Note_off_c, 1, 38, 80
3, 256800, Note_on_c, 1, 33, 95
3, 256918, Note_off_c, 1, 33, 80
3, 256920, Note_on_c, 1, 34, 76
3, 257038, Note_off_c, 1, 34, 80
3, 257040, Note_on_c, 1, 35, 95
3, 257278, Note_off_c, 1, 35, 80
3, 257280, Note_on_c, 1, 40, 95
3, 257398, Note_off_c, 1, 40, 80
3, 257640, Note_on_c, 1, 35, 95
3, 257758, Note_off_c, 1, 35, 80
3, 257880, Note_on_c, 1, 40, 95
3, 258238, Note_off_c, 1, 40, 80
3, 258240, Note_on_c, 1, 35, 95
3, 258358, Note_off_c, 1, 35, 80
3, 258480, Note_on_c, 1, 41, 95
3, 258598, Note_off_c, 1, 41, 80
3, 258840, Note_on_c, 1, 38, 95
3, 258958, Note_off_c, 1, 38, 80
3, 259080, Note_on_c, 1, 40, 95
3, 259318, Note_off_c, 1, 40, 80
3, 259320, Note_on_c, 1, 38, 95
3, 259438, Note_off_c, 1, 38, 80
3, 259440, Note_on_c, 1, 33, 95
3, 259558, Note_off_c, 1, 33, 80
3, 259560, Note_on_c, 1, 34, 76
3, 259678, Note_off_c, 1, 34, 80
3, 259680, Note_on_c, 1, 35, 95
3, 259918, Note_off_c, 1, 35, 80
3, 259920, Note_on_c, 1, 40, 95
3, 260038, Note_off_c, 1, 40, 80
3, 260280, Note_on_c, 1, 35, 95
3, 260398, Note_off_c, 1, 35, 80
3, 260520, Note_on_c, 1, 40, 95
3, 260878, Note_off_c, 1, 40, 80
3, 260880, Note_on_c, 1, 35, 95
3, 260998, Note_off_c, 1, 35, 80
3, 261120, Note_on_c, 1, 41, 95
3, 261238, Note_off_c, 1, 41, 80
3, 261480, Note_on_c, 1, 38, 95
3, 261598, Note_off_c, 1, 38, 80
3, 261720, Note_on_c, 1, 40, 95
3, 261958, Note_off_c, 1, 40, 80
3, 261960, Note_on_c, 1, 38, 95
3, 262078, Note_off_c, 1, 38, 80
3, 262080, Note_on_c, 1, 33, 95
3, 262198, Note_off_c, 1, 33, 80
3, 262200, Note_on_c, 1, 34, 76
3, 262318, Note_off_c, 1, 34, 80
3, 262320, Note_on_c, 1, 35, 95
3, 262558, Note_off_c, 1, 35, 80
3, 262560, Note_on_c, 1, 40, 95
3, 262678, Note_off_c, 1, 40, 80
3, 262920, Note_on_c, 1, 35, 95
3, 263038, Note_off_c, 1, 35, 80
3, 263160, Note_on_c, 1, 40, 95
3, 263518, Note_off_c, 1, 40, 80
3, 263520, Note_on_c, 1, 35, 95
3, 263638, Note_off_c, 1, 35, 80
3, 263760, Note_on_c, 1, 41, 95
3, 263878, Note_off_c, 1, 41, 80
3, 264120, Note_on_c, 1, 38, 95
3, 264238, Note_off_c, 1, 38, 80
3, 264360, Note_on_c, 1, 40, 95
3, 264598, Note_off_c, 1, 40, 80
3, 264600, Note_on_c, 1, 38, 95
3, 264718, Note_off_c, 1, 38, 80
3, 264720, Note_on_c, 1, 33, 95
3, 264838, Note_off_c, 1, 33, 80
3, 264840, Note_on_c, 1, 34, 76
3, 264958, Note_off_c, 1, 34, 80
3, 264960, Note_on_c, 1, 30, 95
3, 265318, Note_off_c, 1, 30, 80
3, 265320, Note_on_c, 1, 30, 95
3, 265438, Note_off_c, 1, 30, 80
3, 265440, Note_on_c, 1, 35, 95
3, 265558, Note_off_c, 1, 35, 80
3, 265560, Note_on_c, 1, 37, 76
3, 265678, Note_off_c, 1, 37, 80
3, 265680, Note_on_c, 1, 40, 95
3, 265798, Note_off_c, 1, 40, 80
3, 265800, Note_on_c, 1, 42, 95
3, 266038, Note_off_c, 1, 42, 80
3, 266040, Note_on_c, 1, 37, 95
3, 266158, Note_off_c, 1, 37, 80
3, 266160, Note_on_c, 1, 30, 95
3, 266278, Note_off_c, 1, 30, 80
3, 266280, Note_on_c, 1, 28, 95
3, 266638, Note_off_c, 1, 28, 80
3, 266640, Note_on_c, 1, 28, 95
3, 266758, Note_off_c, 1, 28, 80
3, 266760, Note_on_c, 1, 28, 95
3, 266878, Note_off_c, 1, 28, 80
3, 266880, Note_on_c, 1, 30, 95
3, 267238, Note_off_c, 1, 30, 80
3, 267240, Note_on_c, 1, 30, 95
3, 267358, Note_off_c, 1, 30, 80
3, 267360, Note_on_c, 1, 35, 95
3, 267478, Note_off_c, 1, 35, 80
3, 267480, Note_on_c, 1, 37, 76
3, 267598, Note_off_c, 1, 37, 80
3, 267600, Note_on_c, 1, 40, 95
3, 267718, Note_off_c, 1, 40, 80
3, 267720, Note_on_c, 1, 42, 95
3, 267900, Pitch_bend_c, 1, 5504
3, 267900, Note_on_c, 1, 47, 76
3, 267915, Pitch_bend_c, 1, 6144
3, 267930, Pitch_bend_c, 1, 6784
3, 267945, Pitch_bend_c, 1, 7552
3, 267958, Note_off_c, 1, 42, 80
3, 267960, Pitch_bend_c, 1, 8192
3, 268078, Note_off_c, 1, 47, 80
3, 268080, Note_on_c, 1, 45, 95
3, 268216, Pitch_bend_c, 1, 8320
3, 268228, Pitch_bend_c, 1, 8448
3, 268256, Pitch_bend_c, 1, 8320
3, 268268, Pitch_bend_c, 1, 8192
3, 268280, Pitch_bend_c, 1, 8064
3, 268292, Pitch_bend_c, 1, 7936
3, 268320, Pitch_bend_c, 1, 8064
3, 268332, Pitch_bend_c, 1, 8192
3, 268344, Pitch_bend_c, 1, 8320
3, 268396, Pitch_bend_c, 1, 8192
3, 268408, Pitch_bend_c, 1, 8064
3, 268460, Pitch_bend_c, 1, 8192
3, 268472, Pitch_bend_c, 1, 8320
3, 268492, Pitch_bend_c, 1, 8448
3, 268504, Pitch_bend_c, 1, 8320
3, 268524, Pitch_bend_c, 1, 8192
3, 268536, Pitch_bend_c, 1, 8064
3, 268556, Pitch_bend_c, 1, 7936
3, 268568, Pitch_bend_c, 1, 8064
3, 268588, Pitch_bend_c, 1, 8192
3, 268600, Pitch_bend_c, 1, 8320
3, 268612, Pitch_bend_c, 1, 8448
3, 268640, Pitch_bend_c, 1, 8320
3, 268652, Pitch_bend_c, 1, 8192
3, 268664, Pitch_bend_c, 1, 8064
3, 268676, Pitch_bend_c, 1, 7936
3, 268704, Pitch_bend_c, 1, 8064
3, 268716, Pitch_bend_c, 1, 8192
3, 268738, Note_off_c, 1, 45, 80
3, 268800, Note_on_c, 1, 30, 95
3, 269158, Note_off_c, 1, 30, 80
3, 269160, Note_on_c, 1, 30, 95
3, 269278, Note_off_c, 1, 30, 80
3, 269280, Note_on_c, 1, 35, 95
3, 269398, Note_off_c, 1, 35, 80
3, 269400, Note_on_c, 1, 37, 76
3, 269518, Note_off_c, 1, 37, 80
3, 269520, Note_on_c, 1, 40, 95
3, 269638, Note_off_c, 1, 40, 80
3, 269640, Note_on_c, 1, 42, 95
3, 269878, Note_off_c, 1, 42, 80
3, 269880, Note_on_c, 1, 37, 95
3, 269998, Note_off_c, 1, 37, 80
3, 270000, Note_on_c, 1, 30, 95
3, 270118, Note_off_c, 1, 30, 80
3, 270120, Note_on_c, 1, 28, 95
3, 270478, Note_off_c, 1, 28, 80
3, 270480, Note_on_c, 1, 28, 95
3, 270598, Note_off_c, 1, 28, 80
3, 270600, Note_on_c, 1, 28, 95
3, 270718, Note_off_c, 1, 28, 80
3, 270720, Note_on_c, 1, 30, 95
3, 271078, Note_off_c, 1, 30, 80
3, 271080, Note_on_c, 1, 30, 95
3, 271198, Note_off_c, 1, 30, 80
3, 271200, Note_on_c, 1, 35, 95
3, 271318, Note_off_c, 1, 35, 80
3, 271320, Note_on_c, 1, 37, 76
3, 271438, Note_off_c, 1, 37, 80
3, 271440, Note_on_c, 1, 40, 95
3, 271558, Note_off_c, 1, 40, 80
3, 271560, Note_on_c, 1, 42, 95
3, 271740, Pitch_bend_c, 1, 5504
3, 271740, Note_on_c, 1, 47, 95
3, 271755, Pitch_bend_c, 1, 6144
3, 271770, Pitch_bend_c, 1, 6784
3, 271785, Pitch_bend_c, 1, 7552
3, 271798, Note_off_c, 1, 42, 80
3, 271800, Pitch_bend_c, 1, 8192
3, 271918, Note_off_c, 1, 47, 80
3, 271920, Note_on_c, 1, 45, 95
3, 272056, Pitch_bend_c, 1, 8320
3, 272068, Pitch_bend_c, 1, 8448
3, 272096, Pitch_bend_c, 1, 8320
3, 272108, Pitch_bend_c, 1, 8192
3, 272120, Pitch_bend_c, 1, 8064
3, 272132, Pitch_bend_c, 1, 7936
3, 272160, Pitch_bend_c, 1, 8064
3, 272172, Pitch_bend_c, 1, 8192
3, 272184, Pitch_bend_c, 1, 8320
3, 272200, Pitch_bend_c, 1, 8448
3, 272220, Pitch_bend_c, 1, 8320
3, 272236, Pitch_bend_c, 1, 8192
3, 272248, Pitch_bend_c, 1, 8064
3, 272264, Pitch_bend_c, 1, 7936
3, 272284, Pitch_bend_c, 1, 8064
3, 272300, Pitch_bend_c, 1, 8192
3, 272312, Pitch_bend_c, 1, 8320
3, 272320, Pitch_bend_c, 1, 8448
3, 272356, Pitch_bend_c, 1, 8320
3, 272364, Pitch_bend_c, 1, 8192
3, 272376, Pitch_bend_c, 1, 8064
3, 272384, Pitch_bend_c, 1, 7936
3, 272420, Pitch_bend_c, 1, 8064
3, 272428, Pitch_bend_c, 1, 8192
3, 272440, Pitch_bend_c, 1, 8320
3, 272448, Pitch_bend_c, 1, 8448
3, 272484, Pitch_bend_c, 1, 8320
3, 272492, Pitch_bend_c, 1, 8192
3, 272504, Pitch_bend_c, 1, 8064
3, 272512, Pitch_bend_c, 1, 7936
3, 272548, Pitch_bend_c, 1, 8064
3, 272556, Pitch_bend_c, 1, 8192
3, 272568, Pitch_bend_c, 1, 8320
3, 272584, Pitch_bend_c, 1, 8448
3, 272604, Pitch_bend_c, 1, 8320
3, 272620, Pitch_bend_c, 1, 8192
3, 272632, Pitch_bend_c, 1, 8064
3, 272638, Note_off_c, 1, 45, 80
3, 272640, Pitch_bend_c, 1, 8192
3, 272640, Note_on_c, 1, 28, 95
3, 272878, Note_off_c, 1, 28, 80
3, 272880, Note_on_c, 1, 31, 95
3, 272998, Note_off_c, 1, 31, 80
3, 273240, Note_on_c, 1, 28, 95
3, 273358, Note_off_c, 1, 28, 80
3, 273480, Note_on_c, 1, 33, 95
3, 273838, Note_off_c, 1, 33, 80
3, 273840, Note_on_c, 1, 28, 95
3, 273958, Note_off_c, 1, 28, 80
3, 274080, Note_on_c, 1, 34, 95
3, 274198, Note_off_c, 1, 34, 80
3, 274440, Note_on_c, 1, 31, 95
3, 274558, Note_off_c, 1, 31, 80
3, 274680, Note_on_c, 1, 33, 95
3, 274918, Note_off_c, 1, 33, 80
3, 274920, Note_on_c, 1, 31, 95
3, 275038, Note_off_c, 1, 31, 80
3, 275040, Note_on_c, 1, 28, 95
3, 275278, Note_off_c, 1, 28, 80
3, 275280, Note_on_c, 1, 31, 95
3, 275398, Note_off_c, 1, 31, 80
3, 275640, Note_on_c, 1, 28, 95
3, 275758, Note_off_c, 1, 28, 80
3, 275880, Note_on_c, 1, 33, 95
3, 276238, Note_off_c, 1, 33, 80
3, 276240, Note_on_c, 1, 28, 95
3, 276358, Note_off_c, 1, 28, 80
3, 276480, Note_on_c, 1, 34, 95
3, 276598, Note_off_c, 1, 34, 80
3, 276840, Note_on_c, 1, 31, 95
3, 276958, Note_off_c, 1, 31, 80
3, 277080, Note_on_c, 1, 33, 95
3, 277318, Note_off_c, 1, 33, 80
3, 277320, Note_on_c, 1, 31, 95
3, 277438, Note_off_c, 1, 31, 80
3, 277440, Note_on_c, 1, 28, 95
3, 277678, Note_off_c, 1, 28, 80
3, 277680, Note_on_c, 1, 31, 95
3, 277798, Note_off_c, 1, 31, 80
3, 278040, Note_on_c, 1, 28, 95
3, 278158, Note_off_c, 1, 28, 80
3, 278280, Note_on_c, 1, 33, 95
3, 278638, Note_off_c, 1, 33, 80
3, 278640, Note_on_c, 1, 28, 95
3, 278758, Note_off_c, 1, 28, 80
3, 278880, Note_on_c, 1, 34, 95
3, 278998, Note_off_c, 1, 34, 80
3, 279240, Note_on_c, 1, 31, 95
3, 279358, Note_off_c, 1, 31, 80
3, 279480, Note_on_c, 1, 33, 95
3, 279718, Note_off_c, 1, 33, 80
3, 279720, Note_on_c, 1, 31, 95
3, 279838, Note_off_c, 1, 31, 80
3, 279840, Note_on_c, 1, 28, 95
3, 280078, Note_off_c, 1, 28, 80
3, 280080, Note_on_c, 1, 31, 95
3, 280198, Note_off_c, 1, 31, 80
3, 280440, Note_on_c, 1, 28, 95
3, 280558, Note_off_c, 1, 28, 80
3, 280680, Note_on_c, 1, 33, 95
3, 281038, Note_off_c, 1, 33, 80
3, 281040, Note_on_c, 1, 28, 95
3, 281158, Note_off_c, 1, 28, 80
3, 281280, Note_on_c, 1, 34, 95
3, 281398, Note_off_c, 1, 34, 80
3, 281640, Note_on_c, 1, 31, 95
3, 281758, Note_off_c, 1, 31, 80
3, 281880, Note_on_c, 1, 33, 95
3, 282118, Note_off_c, 1, 33, 80
3, 282120, Note_on_c, 1, 31, 95
3, 282238, Note_off_c, 1, 31, 80
3, 282240, Note_on_c, 1, 30, 95
3, 282598, Note_off_c, 1, 30, 80
3, 282600, Note_on_c, 1, 30, 95
3, 282718, Note_off_c, 1, 30, 80
3, 282720, Note_on_c, 1, 35, 95
3, 282838, Note_off_c, 1, 35, 80
3, 282840, Note_on_c, 1, 37, 76
3, 282958, Note_off_c, 1, 37, 80
3, 282960, Note_on_c, 1, 40, 95
3, 283078, Note_off_c, 1, 40, 80
3, 283080, Note_on_c, 1, 42, 95
3, 283318, Note_off_c, 1, 42, 80
3, 283320, Note_on_c, 1, 37, 95
3, 283438, Note_off_c, 1, 37, 80
3, 283440, Note_on_c, 1, 30, 95
3, 283558, Note_off_c, 1, 30, 80
3, 283560, Note_on_c, 1, 28, 95
3, 283918, Note_off_c, 1, 28, 80
3, 283920, Note_on_c, 1, 28, 95
3, 284038, Note_off_c, 1, 28, 80
3, 284040, Note_on_c, 1, 28, 95
3, 284158, Note_off_c, 1, 28, 80
3, 284160, Note_on_c, 1, 30, 95
3, 284518, Note_off_c, 1, 30, 80
3, 284520, Note_on_c, 1, 30, 95
3, 284638, Note_off_c, 1, 30, 80
3, 284640, Note_on_c, 1, 35, 95
3, 284758, Note_off_c, 1, 35, 80
3, 284760, Note_on_c, 1, 37, 76
3, 284878, Note_off_c, 1, 37, 80
3, 284880, Note_on_c, 1, 40, 95
3, 284998, Note_off_c, 1, 40, 80
3, 285000, Note_on_c, 1, 42, 95
3, 285180, Pitch_bend_c, 1, 5504
3, 285180, Note_on_c, 1, 47, 95
3, 285195, Pitch_bend_c, 1, 6144
3, 285210, Pitch_bend_c, 1, 6784
3, 285225, Pitch_bend_c, 1, 7552
3, 285238, Note_off_c, 1, 42, 80
3, 285240, Pitch_bend_c, 1, 8192
3, 285358, Note_off_c, 1, 47, 80
3, 285360, Note_on_c, 1, 45, 95
3, 285384, Pitch_bend_c, 1, 8064
3, 285404, Pitch_bend_c, 1, 8192
3, 285448, Pitch_bend_c, 1, 8320
3, 285468, Pitch_bend_c, 1, 8192
3, 285496, Pitch_bend_c, 1, 8320
3, 285504, Pitch_bend_c, 1, 8448
3, 285540, Pitch_bend_c, 1, 8320
3, 285548, Pitch_bend_c, 1, 8192
3, 285560, Pitch_bend_c, 1, 8064
3, 285568, Pitch_bend_c, 1, 7936
3, 285604, Pitch_bend_c, 1, 8064
3, 285612, Pitch_bend_c, 1, 8192
3, 285624, Pitch_bend_c, 1, 8320
3, 285632, Pitch_bend_c, 1, 8448
3, 285668, Pitch_bend_c, 1, 8320
3, 285676, Pitch_bend_c, 1, 8192
3, 285688, Pitch_bend_c, 1, 8064
3, 285696, Pitch_bend_c, 1, 7936
3, 285732, Pitch_bend_c, 1, 8064
3, 285740, Pitch_bend_c, 1, 8192
3, 285752, Pitch_bend_c, 1, 8320
3, 285764, Pitch_bend_c, 1, 8448
3, 285792, Pitch_bend_c, 1, 8320
3, 285804, Pitch_bend_c, 1, 8192
3, 285816, Pitch_bend_c, 1, 8064
3, 285828, Pitch_bend_c, 1, 7936
3, 285856, Pitch_bend_c, 1, 8064
3, 285868, Pitch_bend_c, 1, 8192
3, 285880, Pitch_bend_c, 1, 8320
3, 285892, Pitch_bend_c, 1, 8448
3, 285920, Pitch_bend_c, 1, 8320
3, 285932, Pitch_bend_c, 1, 8192
3, 285944, Pitch_bend_c, 1, 8064
3, 285956, Pitch_bend_c, 1, 7936
3, 285984, Pitch_bend_c, 1, 8064
3, 285996, Pitch_bend_c, 1, 8192
3, 286018, Note_off_c, 1, 45, 80
3, 286080, Note_on_c, 1, 30, 95
3, 286438, Note_off_c, 1, 30, 80
3, 286440, Note_on_c, 1, 30, 95
3, 286558, Note_off_c, 1, 30, 80
3, 286560, Note_on_c, 1, 35, 95
3, 286678, Note_off_c, 1, 35, 80
3, 286680, Note_on_c, 1, 37, 76
3, 286798, Note_off_c, 1, 37, 80
3, 286800, Note_on_c, 1, 40, 95
3, 286918, Note_off_c, 1, 40, 80
3, 286920, Note_on_c, 1, 42, 95
3, 287158, Note_off_c, 1, 42, 80
3, 287160, Note_on_c, 1, 37, 95
3, 287278, Note_off_c, 1, 37, 80
3, 287280, Note_on_c, 1, 30, 95
3, 287398, Note_off_c, 1, 30, 80
3, 287400, Note_on_c, 1, 28, 95
3, 287758, Note_off_c, 1, 28, 80
3, 287760, Note_on_c, 1, 28, 95
3, 287878, Note_off_c, 1, 28, 80
3, 287880, Note_on_c, 1, 28, 95
3, 287998, Note_off_c, 1, 28, 80
3, 288000, Note_on_c, 1, 30, 95
3, 288358, Note_off_c, 1, 30, 80
3, 288360, Note_on_c, 1, 30, 95
3, 288478, Note_off_c, 1, 30, 80
3, 288480, Note_on_c, 1, 35, 95
3, 288598, Note_off_c, 1, 35, 80
3, 288600, Note_on_c, 1, 37, 76
3, 288718, Note_off_c, 1, 37, 80
3, 288720, Note_on_c, 1, 40, 95
3, 288838, Note_off_c, 1, 40, 80
3, 288840, Note_on_c, 1, 42, 95
3, 289020, Pitch_bend_c, 1, 5504
3, 289020, Note_on_c, 1, 47, 95
3, 289035, Pitch_bend_c, 1, 6144
3, 289050, Pitch_bend_c, 1, 6784
3, 289065, Pitch_bend_c, 1, 7552
3, 289078, Note_off_c, 1, 42, 80
3, 289080, Pitch_bend_c, 1, 8192
3, 289198, Note_off_c, 1, 47, 80
3, 289200, Note_on_c, 1, 45, 95
3, 289336, Pitch_bend_c, 1, 8320
3, 289348, Pitch_bend_c, 1, 8448
3, 289376, Pitch_bend_c, 1, 8320
3, 289388, Pitch_bend_c, 1, 8192
3, 289400, Pitch_bend_c, 1, 8064
3, 289412, Pitch_bend_c, 1, 7936
3, 289440, Pitch_bend_c, 1, 8064
3, 289452, Pitch_bend_c, 1, 8192
3, 289464, Pitch_bend_c, 1, 8320
3, 289480, Pitch_bend_c, 1, 8448
3, 289500, Pitch_bend_c, 1, 8320
3, 289516, Pitch_bend_c, 1, 8192
3, 289528, Pitch_bend_c, 1, 8064
3, 289544, Pitch_bend_c, 1, 7936
3, 289564, Pitch_bend_c, 1, 8064
3, 289580, Pitch_bend_c, 1, 8192
3, 289592, Pitch_bend_c, 1, 8320
3, 289604, Pitch_bend_c, 1, 8448
3, 289632, Pitch_bend_c, 1, 8320
3, 289644, Pitch_bend_c, 1, 8192
3, 289656, Pitch_bend_c, 1, 8064
3, 289668, Pitch_bend_c, 1, 7936
3, 289696, Pitch_bend_c, 1, 8064
3, 289708, Pitch_bend_c, 1, 8192
3, 289720, Pitch_bend_c, 1, 8320
3, 289728, Pitch_bend_c, 1, 8448
3, 289764, Pitch_bend_c, 1, 8320
3, 289772, Pitch_bend_c, 1, 8192
3, 289784, Pitch_bend_c, 1, 8064
3, 289792, Pitch_bend_c, 1, 7936
3, 289828, Pitch_bend_c, 1, 8064
3, 289836, Pitch_bend_c, 1, 8192
3, 289852, Pitch_bend_c, 1, 8320
3, 289896, Pitch_bend_c, 1, 8192
3, 289916, Pitch_bend_c, 1, 8064
3, 289918, Note_off_c, 1, 45, 80
3, 289920, Pitch_bend_c, 1, 8192
3, 289920, Note_on_c, 1, 28, 95
3, 290158, Note_off_c, 1, 28, 80
3, 290160, Note_on_c, 1, 31, 95
3, 290278, Note_off_c, 1, 31, 80
3, 290520, Note_on_c, 1, 28, 95
3, 290638, Note_off_c, 1, 28, 80
3, 290760, Note_on_c, 1, 33, 95
3, 291118, Note_off_c, 1, 33, 80
3, 291120, Note_on_c, 1, 28, 95
3, 291238, Note_off_c, 1, 28, 80
3, 291360, Note_on_c, 1, 34, 95
3, 291478, Note_off_c, 1, 34, 80
3, 291720, Note_on_c, 1, 31, 95
3, 291838, Note_off_c, 1, 31, 80
3, 291960, Note_on_c, 1, 33, 95
3, 292198, Note_off_c, 1, 33, 80
3, 292200, Note_on_c, 1, 31, 95
3, 292318, Note_off_c, 1, 31, 80
3, 292320, Note_on_c, 1, 28, 95
3, 292558, Note_off_c, 1, 28, 80
3, 292560, Note_on_c, 1, 31, 95
3, 292678, Note_off_c, 1, 31, 80
3, 292920, Note_on_c, 1, 28, 95
3, 293038, Note_off_c, 1, 28, 80
3, 293160, Note_on_c, 1, 33, 95
3, 293518, Note_off_c, 1, 33, 80
3, 293520, Note_on_c, 1, 28, 95
3, 293638, Note_off_c, 1, 28, 80
3, 293760, Note_on_c, 1, 34, 95
3, 293878, Note_off_c, 1, 34, 80
3, 294120, Note_on_c, 1, 31, 95
3, 294238, Note_off_c, 1, 31, 80
3, 294360, Note_on_c, 1, 33, 95
3, 294598, Note_off_c, 1, 33, 80
3, 294600, Note_on_c, 1, 31, 95
3, 294718, Note_off_c, 1, 31, 80
3, 294720, Note_on_c, 1, 28, 95
3, 294958, Note_off_c, 1, 28, 80
3, 294960, Note_on_c, 1, 31, 95
3, 295078, Note_off_c, 1, 31, 80
3, 295320, Note_on_c, 1, 28, 95
3, 295438, Note_off_c, 1, 28, 80
3, 295560, Note_on_c, 1, 33, 95
3, 295918, Note_off_c, 1, 33, 80
3, 295920, Note_on_c, 1, 28, 95
3, 296038, Note_off_c, 1, 28, 80
3, 296160, Note_on_c, 1, 34, 95
3, 296278, Note_off_c, 1, 34, 80
3, 296520, Note_on_c, 1, 31, 95
3, 296638, Note_off_c, 1, 31, 80
3, 296760, Note_on_c, 1, 33, 95
3, 296998, Note_off_c, 1, 33, 80
3, 297000, Note_on_c, 1, 31, 95
3, 297118, Note_off_c, 1, 31, 80
3, 297120, Note_on_c, 1, 28, 95
3, 297358, Note_off_c, 1, 28, 80
3, 297360, Note_on_c, 1, 31, 95
3, 297478, Note_off_c, 1, 31, 80
3, 297720, Note_on_c, 1, 28, 95
3, 297838, Note_off_c, 1, 28, 80
3, 297960, Note_on_c, 1, 33, 95
3, 298318, Note_off_c, 1, 33, 80
3, 298320, Note_on_c, 1, 28, 95
3, 298438, Note_off_c, 1, 28, 80
3, 298560, Note_on_c, 1, 34, 95
3, 298678, Note_off_c, 1, 34, 80
3, 298920, Note_on_c, 1, 31, 95
3, 299038, Note_off_c, 1, 31, 80
3, 299160, Note_on_c, 1, 33, 95
3, 299398, Note_off_c, 1, 33, 80
3, 299400, Note_on_c, 1, 31, 95
3, 299518, Note_off_c, 1, 31, 80
3, 299520, Note_on_c, 1, 30, 95
3, 299878, Note_off_c, 1, 30, 80
3, 299880, Note_on_c, 1, 30, 95
3, 299998, Note_off_c, 1, 30, 80
3, 300000, Note_on_c, 1, 35, 95
3, 300118, Note_off_c, 1, 35, 80
3, 300120, Note_on_c, 1, 37, 76
3, 300238, Note_off_c, 1, 37, 80
3, 300240, Note_on_c, 1, 40, 95
3, 300358, Note_off_c, 1, 40, 80
3, 300360, Note_on_c, 1, 42, 95
3, 300598, Note_off_c, 1, 42, 80
3, 300600, Note_on_c, 1, 37, 95
3, 300718, Note_off_c, 1, 37, 80
3, 300720, Note_on_c, 1, 30, 95
3, 300838, Note_off_c, 1, 30, 80
3, 300840, Note_on_c, 1, 28, 95
3, 301198, Note_off_c, 1, 28, 80
3, 301200, Note_on_c, 1, 28, 95
3, 301318, Note_off_c, 1, 28, 80
3, 301320, Note_on_c, 1, 28, 95
3, 301438, Note_off_c, 1, 28, 80
3, 301440, Note_on_c, 1, 30, 95
3, 301798, Note_off_c, 1, 30, 80
3, 301800, Note_on_c, 1, 30, 95
3, 301918, Note_off_c, 1, 30, 80
3, 301920, Note_on_c, 1, 35, 95
3, 302038, Note_off_c, 1, 35, 80
3, 302040, Note_on_c, 1, 37, 76
3, 302158, Note_off_c, 1, 37, 80
3, 302160, Note_on_c, 1, 40, 95
3, 302278, Note_off_c, 1, 40, 80
3, 302280, Note_on_c, 1, 42, 95
3, 302460, Pitch_bend_c, 1, 5504
3, 302460, Note_on_c, 1, 47, 95
3, 302475, Pitch_bend_c, 1, 6144
3, 302490, Pitch_bend_c, 1, 6784
3, 302505, Pitch_bend_c, 1, 7552
3, 302518, Note_off_c, 1, 42, 80
3, 302520, Pitch_bend_c, 1, 8192
3, 302638, Note_off_c, 1, 47, 80
3, 302640, Note_on_c, 1, 45, 95
3, 302776, Pitch_bend_c, 1, 8320
3, 302792, Pitch_bend_c, 1, 8448
3, 302812, Pitch_bend_c, 1, 8320
3, 302828, Pitch_bend_c, 1, 8192
3, 302840, Pitch_bend_c, 1, 8064
3, 302856, Pitch_bend_c, 1, 7936
3, 302876, Pitch_bend_c, 1, 8064
3, 302892, Pitch_bend_c, 1, 8192
3, 302904, Pitch_bend_c, 1, 8320
3, 302916, Pitch_bend_c, 1, 8448
3, 302944, Pitch_bend_c, 1, 8320
3, 302956, Pitch_bend_c, 1, 8192
3, 302968, Pitch_bend_c, 1, 8064
3, 302980, Pitch_bend_c, 1, 7936
3, 303008, Pitch_bend_c, 1, 8064
3, 303020, Pitch_bend_c, 1, 8192
3, 303032, Pitch_bend_c, 1, 8320
3, 303084, Pitch_bend_c, 1, 8192
3, 303096, Pitch_bend_c, 1, 8064
3, 303148, Pitch_bend_c, 1, 8192
3, 303160, Pitch_bend_c, 1, 8320
3, 303212, Pitch_bend_c, 1, 8192
3, 303224, Pitch_bend_c, 1, 8064
3, 303276, Pitch_bend_c, 1, 8192
3, 303296, Pitch_bend_c, 1, 8320
3, 303298, Note_off_c, 1, 45, 80
3, 303300, Pitch_bend_c, 1, 8192
3, 303360, Note_on_c, 1, 30, 95
3, 303718, Note_off_c, 1, 30, 80
3, 303720, Note_on_c, 1, 30, 95
3, 303838, Note_off_c, 1, 30, 80
3, 303840, Note_on_c, 1, 35, 95
3, 303958, Note_off_c, 1, 35, 80
3, 303960, Note_on_c, 1, 37, 76
3, 304078, Note_off_c, 1, 37, 80
3, 304080, Note_on_c, 1, 40, 95
3, 304198, Note_off_c, 1, 40, 80
3, 304200, Note_on_c, 1, 42, 95
3, 304438, Note_off_c, 1, 42, 80
3, 304440, Note_on_c, 1, 37, 95
3, 304558, Note_off_c, 1, 37, 80
3, 304560, Note_on_c, 1, 30, 95
3, 304678, Note_off_c, 1, 30, 80
3, 304680, Note_on_c, 1, 28, 95
3, 305038, Note_off_c, 1, 28, 80
3, 305040, Note_on_c, 1, 28, 95
3, 305158, Note_off_c, 1, 28, 80
3, 305160, Note_on_c, 1, 28, 95
3, 305278, Note_off_c, 1, 28, 80
3, 305280, Note_on_c, 1, 30, 95
3, 305638, Note_off_c, 1, 30, 80
3, 305640, Note_on_c, 1, 30, 95
3, 305758, Note_off_c, 1, 30, 80
3, 305760, Note_on_c, 1, 35, 95
3, 305878, Note_off_c, 1, 35, 80
3, 305880, Note_on_c, 1, 37, 76
3, 305998, Note_off_c, 1, 37, 80
3, 306000, Note_on_c, 1, 40, 95
3, 306118, Note_off_c, 1, 40, 80
3, 306120, Note_on_c, 1, 42, 95
3, 306300, Pitch_bend_c, 1, 5504
3, 306300, Note_on_c, 1, 47, 95
3, 306315, Pitch_bend_c, 1, 6144
3, 306330, Pitch_bend_c, 1, 6784
3, 306345, Pitch_bend_c, 1, 7552
3, 306358, Note_off_c, 1, 42, 80
3, 306360, Pitch_bend_c, 1, 8192
3, 306478, Note_off_c, 1, 47, 80
3, 306480, Note_on_c, 1, 45, 95
3, 306616, Pitch_bend_c, 1, 8320
3, 306628, Pitch_bend_c, 1, 8448
3, 306656, Pitch_bend_c, 1, 8320
3, 306668, Pitch_bend_c, 1, 8192
3, 306680, Pitch_bend_c, 1, 8064
3, 306692, Pitch_bend_c, 1, 7936
3, 306720, Pitch_bend_c, 1, 8064
3, 306732, Pitch_bend_c, 1, 8192
3, 306744, Pitch_bend_c, 1, 8320
3, 306752, Pitch_bend_c, 1, 8448
3, 306788, Pitch_bend_c, 1, 8320
3, 306796, Pitch_bend_c, 1, 8192
3, 306808, Pitch_bend_c, 1, 8064
3, 306816, Pitch_bend_c, 1, 7936
3, 306852, Pitch_bend_c, 1, 8064
3, 306860, Pitch_bend_c, 1, 8192
3, 306872, Pitch_bend_c, 1, 8320
3, 306924, Pitch_bend_c, 1, 8192
3, 306936, Pitch_bend_c, 1, 8064
3, 306988, Pitch_bend_c, 1, 8192
3, 307000, Pitch_bend_c, 1, 8320
3, 307052, Pitch_bend_c, 1, 8192
3, 307064, Pitch_bend_c, 1, 8064
3, 307116, Pitch_bend_c, 1, 8192
3, 307128, Pitch_bend_c, 1, 8320
3, 307180, Pitch_bend_c, 1, 8192
3, 307192, Pitch_bend_c, 1, 8064
3, 307198, Note_off_c, 1, 45, 80
3, 307200, Pitch_bend_c, 1, 8192
3, 307200, Note_on_c, 1, 26, 95
3, 307918, Note_off_c, 1, 26, 80
3, 307920, Note_on_c, 1, 26, 95
3, 308878, Note_off_c, 1, 26, 80
3, 308880, Note_on_c, 1, 26, 95
3, 308998, Note_off_c, 1, 26, 80
3, 309000, Note_on_c, 1, 28, 95
3, 309118, Note_off_c, 1, 28, 80
3, 309120, Note_on_c, 1, 30, 95
3, 309838, Note_off_c, 1, 30, 80
3, 309840, Note_on_c, 1, 30, 95
3, 310798, Note_off_c, 1, 30, 80
3, 310800, Note_on_c, 1, 30, 95
3, 310918, Note_off_c, 1, 30, 80
3, 310920, Note_on_c, 1, 28, 95
3, 311038, Note_off_c, 1, 28, 80
3, 311040, Note_on_c, 1, 31, 95
3, 311758, Note_off_c, 1, 31, 80
3, 311760, Note_on_c, 1, 31, 95
3, 312478, Note_off_c, 1, 31, 80
3, 312480, Note_on_c, 1, 31, 95
3, 312598, Note_off_c, 1, 31, 80
3, 312600, Note_on_c, 1, 33, 95
3, 312718, Note_off_c, 1, 33, 80
3, 312720, Note_on_c, 1, 31, 95
3, 312838, Note_off_c, 1, 31, 80
3, 312840, Note_on_c, 1, 30, 95
3, 312958, Note_off_c, 1, 30, 80
3, 312960, Note_on_c, 1, 28, 95
3, 313318, Note_off_c, 1, 28, 80
3, 313320, Note_on_c, 1, 40, 95
3, 313438, Note_off_c, 1, 40, 80
3, 313440, Note_on_c, 1, 28, 95
3, 313678, Note_off_c, 1, 28, 80
3, 313680, Note_on_c, 1, 28, 95
3, 313798, Note_off_c, 1, 28, 80
3, 313800, Note_on_c, 1, 28, 95
3, 313918, Note_off_c, 1, 28, 80
3, 313920, Note_on_c, 1, 28, 95
3, 314038, Note_off_c, 1, 28, 80
3, 314040, Note_on_c, 1, 52, 95
3, 314148, Pitch_bend_c, 1, 7552
3, 314167, Pitch_bend_c, 1, 6784
3, 314187, Pitch_bend_c, 1, 6144
3, 314206, Pitch_bend_c, 1, 5504
3, 314226, Pitch_bend_c, 1, 4736
3, 314245, Pitch_bend_c, 1, 4096
3, 314264, Pitch_bend_c, 1, 3456
3, 314284, Pitch_bend_c, 1, 2688
3, 314303, Pitch_bend_c, 1, 2048
3, 314322, Pitch_bend_c, 1, 1408
3, 314342, Pitch_bend_c, 1, 640
3, 314361, Pitch_bend_c, 1, 0
3, 314398, Note_off_c, 1, 52, 80
3, 314400, Pitch_bend_c, 1, 8192
3, 314400, Note_on_c, 1, 40, 95
3, 314712, Pitch_bend_c, 1, 7552
3, 314740, Pitch_bend_c, 1, 6784
3, 314768, Pitch_bend_c, 1, 6144
3, 314796, Pitch_bend_c, 1, 5504
3, 314824, Pitch_bend_c, 1, 4736
3, 314852, Pitch_bend_c, 1, 4096
3, 314878, Note_off_c, 1, 40, 80
3, 314880, Pitch_bend_c, 1, 8192
3, 314880, Note_on_c, 1, 26, 95
3, 315238, Note_off_c, 1, 26, 80
3, 315240, Note_on_c, 1, 33, 76
3, 315358, Note_off_c, 1, 33, 80
3, 315360, Note_on_c, 1, 40, 95
3, 315478, Note_off_c, 1, 40, 80
3, 315480, Note_on_c, 1, 33, 95
3, 315598, Note_off_c, 1, 33, 80
3, 315600, Note_on_c, 1, 38, 95
3, 316318, Note_off_c, 1, 38, 80
3, 316320, Note_on_c, 1, 38, 95
3, 316558, Note_off_c, 1, 38, 80
3, 316560, Note_on_c, 1, 40, 95
3, 316798, Note_off_c, 1, 40, 80
3, 316800, Note_on_c, 1, 31, 95
3, 317518, Note_off_c, 1, 31, 80
3, 317520, Note_on_c, 1, 30, 95
3, 318358, Note_off_c, 1, 30, 80
3, 318360, Note_on_c, 1, 28, 95
3, 318478, Note_off_c, 1, 28, 80
3, 318480, Note_on_c, 1, 30, 95
3, 318718, Note_off_c, 1, 30, 80
3, 318720, Note_on_c, 1, 28, 95
3, 319438, Note_off_c, 1, 28, 80
3, 319440, Note_on_c, 1, 28, 95
3, 320158, Note_off_c, 1, 28, 80
3, 320160, Note_on_c, 1, 28, 95
3, 320398, Note_off_c, 1, 28, 80
3, 320400, Note_on_c, 1, 28, 95
3, 320638, Note_off_c, 1, 28, 80
3, 320640, Note_on_c, 1, 31, 95
3, 321118, Note_off_c, 1, 31, 80
3, 321120, Note_on_c, 1, 31, 95
3, 321598, Note_off_c, 1, 31, 80
3, 321600, Note_on_c, 1, 33, 95
3, 322078, Note_off_c, 1, 33, 80
3, 322080, Note_on_c, 1, 33, 95
3, 322558, Note_off_c, 1, 33, 80
3, 322560, Note_on_c, 1, 26, 95
3, 323278, Note_off_c, 1, 26, 80
3, 323280, Note_on_c, 1, 26, 95
3, 323758, Note_off_c, 1, 26, 80
3, 323760, Note_on_c, 1, 38, 95
3, 323938, Note_off_c, 1, 38, 80
3, 324000, Note_on_c, 1, 26, 95
3, 324238, Note_off_c, 1, 26, 80
3, 324240, Note_on_c, 1, 28, 95
3, 324478, Note_off_c, 1, 28, 80
3, 324480, Note_on_c, 1, 30, 95
3, 325198, Note_off_c, 1, 30, 80
3, 325200, Note_on_c, 1, 30, 95
3, 325918, Note_off_c, 1, 30, 80
3, 325920, Note_on_c, 1, 30, 95
3, 326398, Note_off_c, 1, 30, 80
3, 326400, Note_on_c, 1, 31, 95
3, 327118, Note_off_c, 1, 31, 80
3, 327120, Note_on_c, 1, 31, 95
3, 328318, Note_off_c, 1, 31, 80
3, 328320, Note_on_c, 1, 28, 95
3, 328980, Pitch_bend_c, 1, 3456
3, 328980, Note_on_c, 1, 40, 95
3, 328989, Pitch_bend_c, 1, 4096
3, 328997, Pitch_bend_c, 1, 4736
3, 329006, Pitch_bend_c, 1, 5504
3, 329014, Pitch_bend_c, 1, 6144
3, 329023, Pitch_bend_c, 1, 6784
3, 329031, Pitch_bend_c, 1, 7552
3, 329038, Note_off_c, 1, 28, 80
3, 329040, Pitch_bend_c, 1, 8192
3, 329998, Note_off_c, 1, 40, 80
3, 330000, Note_on_c, 1, 40, 95
3, 330192, Pitch_bend_c, 1, 8832
3, 330238, Note_off_c, 1, 40, 80
3, 330240, Pitch_bend_c, 1, 8192
3, 330240, Note_on_c, 1, 26, 95
3, 330598, Note_off_c, 1, 26, 80
3, 330600, Note_on_c, 1, 33, 95
3, 330718, Note_off_c, 1, 33, 80
3, 330720, Note_on_c, 1, 28, 95
3, 330738, Note_off_c, 1, 28, 80
3, 330840, Note_on_c, 1, 26, 95
3, 330958, Note_off_c, 1, 26, 80
3, 330960, Note_on_c, 1, 26, 95
3, 331678, Note_off_c, 1, 26, 80
3, 331680, Note_on_c, 1, 26, 95
3, 331918, Note_off_c, 1, 26, 80
3, 331920, Note_on_c, 1, 28, 95
3, 332158, Note_off_c, 1, 28, 80
3, 332160, Note_on_c, 1, 30, 95
3, 332878, Note_off_c, 1, 30, 80
3, 332880, Note_on_c, 1, 30, 95
3, 333598, Note_off_c, 1, 30, 80
3, 333600, Note_on_c, 1, 30, 95
3, 334078, Note_off_c, 1, 30, 80
3, 334080, Note_on_c, 1, 28, 95
3, 334678, Note_off_c, 1, 28, 80
3, 334680, Note_on_c, 1, 28, 95
3, 334798, Note_off_c, 1, 28, 80
3, 334800, Note_on_c, 1, 40, 76
3, 335158, Note_off_c, 1, 40, 80
3, 335160, Note_on_c, 1, 28, 95
3, 335278, Note_off_c, 1, 28, 80
3, 335280, Note_on_c, 1, 40, 95
3, 335758, Note_off_c, 1, 40, 80
3, 335760, Note_on_c, 1, 28, 95
3, 335998, Note_off_c, 1, 28, 80
3, 336000, Note_on_c, 1, 31, 95
3, 336238, Note_off_c, 1, 31, 80
3, 336240, Note_on_c, 1, 31, 95
3, 336358, Note_off_c, 1, 31, 80
3, 336360, Note_on_c, 1, 31, 95
3, 336478, Note_off_c, 1, 31, 80
3, 336480, Note_on_c, 1, 31, 95
3, 336598, Note_off_c, 1, 31, 80
3, 336600, Note_on_c, 1, 28, 95
3, 336618, Note_off_c, 1, 28, 80
3, 336720, Note_on_c, 1, 31, 95
3, 336838, Note_off_c, 1, 31, 80
3, 336840, Note_on_c, 1, 31, 95
3, 336958, Note_off_c, 1, 31, 80
3, 336960, Note_on_c, 1, 33, 95
3, 337198, Note_off_c, 1, 33, 80
3, 337200, Note_on_c, 1, 33, 95
3, 337438, Note_off_c, 1, 33, 80
3, 337440, Note_on_c, 1, 33, 95
3, 337558, Note_off_c, 1, 33, 80
3, 337560, Note_on_c, 1, 33, 95
3, 337678, Note_off_c, 1, 33, 80
3, 337680, Note_on_c, 1, 33, 95
3, 337798, Note_off_c, 1, 33, 80
3, 337800, Note_on_c, 1, 33, 95
3, 337918, Note_off_c, 1, 33, 80
3, 337920, Note_on_c, 1, 26, 95
3, 338278, Note_off_c, 1, 26, 80
3, 338280, Note_on_c, 1, 26, 95
3, 338398, Note_off_c, 1, 26, 80
3, 338400, Note_on_c, 1, 26, 95
3, 338518, Note_off_c, 1, 26, 80
3, 338520, Note_on_c, 1, 26, 95
3, 338638, Note_off_c, 1, 26, 80
3, 338640, Note_on_c, 1, 26, 95
3, 339118, Note_off_c, 1, 26, 80
3, 339120, Note_on_c, 1, 26, 95
3, 339358, Note_off_c, 1, 26, 80
3, 339360, Note_on_c, 1, 26, 95
3, 339838, Note_off_c, 1, 26, 80
3, 339840, Note_on_c, 1, 30, 95
3, 340198, Note_off_c, 1, 30, 80
3, 340200, Note_on_c, 1, 30, 95
3, 340318, Note_off_c, 1, 30, 80
3, 340320, Note_on_c, 1, 30, 95
3, 340438, Note_off_c, 1, 30, 80
3, 340440, Note_on_c, 1, 30, 95
3, 340558, Note_off_c, 1, 30, 80
3, 340560, Note_on_c, 1, 30, 95
3, 341038, Note_off_c, 1, 30, 80
3, 341040, Note_on_c, 1, 30, 95
3, 341278, Note_off_c, 1, 30, 80
3, 341280, Note_on_c, 1, 30, 95
3, 341758, Note_off_c, 1, 30, 80
3, 341760, Note_on_c, 1, 31, 95
3, 342118, Note_off_c, 1, 31, 80
3, 342120, Note_on_c, 1, 31, 95
3, 342238, Note_off_c, 1, 31, 80
3, 342240, Note_on_c, 1, 31, 95
3, 342358, Note_off_c, 1, 31, 80
3, 342360, Note_on_c, 1, 31, 95
3, 342478, Note_off_c, 1, 31, 80
3, 342480, Note_on_c, 1, 31, 95
3, 342958, Note_off_c, 1, 31, 80
3, 342960, Note_on_c, 1, 31, 95
3, 343198, Note_off_c, 1, 31, 80
3, 343200, Note_on_c, 1, 31, 95
3, 343678, Note_off_c, 1, 31, 80
3, 343680, Note_on_c, 1, 28, 95
3, 344038, Note_off_c, 1, 28, 80
3, 344040, Note_on_c, 1, 28, 95
3, 344158, Note_off_c, 1, 28, 80
3, 344160, Note_on_c, 1, 28, 95
3, 344398, Note_off_c, 1, 28, 80
3, 344400, Note_on_c, 1, 40, 95
3, 344518, Note_off_c, 1, 40, 80
3, 344520, Note_on_c, 1, 42, 95
3, 344638, Note_off_c, 1, 42, 80
3, 344640, Note_on_c, 1, 40, 95
3, 344758, Note_off_c, 1, 40, 80
3, 344760, Note_on_c, 1, 38, 95
3, 344878, Note_off_c, 1, 38, 80
3, 344880, Note_on_c, 1, 35, 95
3, 344998, Note_off_c, 1, 35, 80
3, 345000, Note_on_c, 1, 33, 95
3, 345118, Note_off_c, 1, 33, 80
3, 345120, Note_on_c, 1, 28, 95
3, 345358, Note_off_c, 1, 28, 80
3, 345360, Note_on_c, 1, 28, 95
3, 345598, Note_off_c, 1, 28, 80
3, 345600, Note_on_c, 1, 26, 95
3, 345958, Note_off_c, 1, 26, 80
3, 345960, Note_on_c, 1, 26, 95
3, 346078, Note_off_c, 1, 26, 80
3, 346080, Note_on_c, 1, 26, 95
3, 346198, Note_off_c, 1, 26, 80
3, 346200, Note_on_c, 1, 26, 95
3, 346318, Note_off_c, 1, 26, 80
3, 346320, Note_on_c, 1, 26, 95
3, 346798, Note_off_c, 1, 26, 80
3, 346800, Note_on_c, 1, 26, 95
3, 347038, Note_off_c, 1, 26, 80
3, 347040, Note_on_c, 1, 26, 95
3, 347518, Note_off_c, 1, 26, 80
3, 347520, Note_on_c, 1, 30, 95
3, 347878, Note_off_c, 1, 30, 80
3, 347880, Note_on_c, 1, 30, 95
3, 347998, Note_off_c, 1, 30, 80
3, 348000, Note_on_c, 1, 30, 95
3, 348118, Note_off_c, 1, 30, 80
3, 348120, Note_on_c, 1, 30, 95
3, 348238, Note_off_c, 1, 30, 80
3, 348240, Note_on_c, 1, 30, 95
3, 348718, Note_off_c, 1, 30, 80
3, 348720, Note_on_c, 1, 30, 95
3, 348958, Note_off_c, 1, 30, 80
3, 348960, Note_on_c, 1, 30, 95
3, 349198, Note_off_c, 1, 30, 80
3, 349200, Note_on_c, 1, 30, 95
3, 349318, Note_off_c, 1, 30, 80
3, 349320, Note_on_c, 1, 30, 95
3, 349438, Note_off_c, 1, 30, 80
3, 349440, Note_on_c, 1, 28, 95
3, 349798, Note_off_c, 1, 28, 80
3, 349800, Note_on_c, 1, 28, 95
3, 349918, Note_off_c, 1, 28, 80
3, 349920, Note_on_c, 1, 28, 95
3, 350038, Note_off_c, 1, 28, 80
3, 350040, Note_on_c, 1, 28, 95
3, 350158, Note_off_c, 1, 28, 80
3, 350160, Note_on_c, 1, 38, 95
3, 350268, Pitch_bend_c, 1, 8832
3, 350278, Note_off_c, 1, 38, 80
3, 350280, Pitch_bend_c, 1, 8192
3, 350280, Note_on_c, 1, 40, 76
3, 350638, Note_off_c, 1, 40, 80
3, 350640, Note_on_c, 1, 40, 95
3, 350758, Note_off_c, 1, 40, 80
3, 350760, Note_on_c, 1, 40, 95
3, 350878, Note_off_c, 1, 40, 80
3, 350880, Note_on_c, 1, 40, 95
3, 351118, Note_off_c, 1, 40, 80
3, 351120, Note_on_c, 1, 40, 95
3, 351358, Note_off_c, 1, 40, 80
3, 351360, Note_on_c, 1, 43, 76
3, 351838, Note_off_c, 1, 43, 80
3, 351840, Note_on_c, 1, 43, 95
3, 352078, Note_off_c, 1, 43, 80
3, 352080, Note_on_c, 1, 43, 95
3, 352318, Note_off_c, 1, 43, 80
3, 352320, Note_on_c, 1, 45, 95
3, 352798, Note_off_c, 1, 45, 80
3, 352800, Note_on_c, 1, 45, 95
3, 353112, Pitch_bend_c, 1, 7552
3, 353140, Pitch_bend_c, 1, 6784
3, 353168, Pitch_bend_c, 1, 6144
3, 353196, Pitch_bend_c, 1, 5504
3, 353224, Pitch_bend_c, 1, 4736
3, 353252, Pitch_bend_c, 1, 4096
3, 353278, Note_off_c, 1, 45, 80
3, 353280, Pitch_bend_c, 1, 8192
3, 353280, Note_on_c, 1, 26, 95
3, 356158, Note_off_c, 1, 26, 80
3, 356158, End_track
4, 0, Start_track
4, 0, Title_t, "Rhytm: John Petrucci"
4, 240, Control_c, 2, 121, 0
4, 240, Control_c, 2, 123, 0
4, 240, Control_c, 2, 100, 0
4, 240, Control_c, 2, 38, 0
4, 240, Control_c, 2, 101, 0
4, 240, Control_c, 2, 6, 12
4, 240, Pitch_bend_c, 2, 8192
4, 360, Program_c, 2, 26
4, 360, Control_c, 2, 7, 104
4, 360, Control_c, 2, 10, 35
4, 30720, Note_on_c, 2, 47, 95
4, 30960, Note_on_c, 2, 54, 95
4, 31080, Note_on_c, 2, 59, 95
4, 31440, Note_on_c, 2, 64, 95
4, 31920, Note_on_c, 2, 62, 95
4, 32638, Note_off_c, 2, 47, 80
4, 32640, Note_on_c, 2, 43, 95
4, 32878, Note_off_c, 2, 54, 80
4, 32880, Note_on_c, 2, 54, 95
4, 32998, Note_off_c, 2, 59, 80
4, 33000, Note_on_c, 2, 59, 95
4, 33358, Note_off_c, 2, 64, 80
4, 33360, Note_on_c, 2, 64, 95
4, 33838, Note_off_c, 2, 62, 80
4, 33840, Note_on_c, 2, 62, 95
4, 34558, Note_off_c, 2, 43, 80
4, 34558, Note_off_c, 2, 59, 80
4, 34558, Note_off_c, 2, 62, 80
4, 34560, Note_on_c, 2, 59, 95
4, 34560, Note_on_c, 2, 64, 95
4, 34668, Pitch_bend_c, 2, 8832
4, 34678, Note_off_c, 2, 59, 80
4, 34678, Note_off_c, 2, 64, 80
4, 34680, Pitch_bend_c, 2, 8192
4, 34680, Note_on_c, 2, 61, 76
4, 34680, Note_on_c, 2, 66, 76
4, 34896, Pitch_bend_c, 2, 7552
4, 34918, Note_off_c, 2, 54, 80
4, 34918, Note_off_c, 2, 61, 80
4, 34918, Note_off_c, 2, 66, 80
4, 34920, Pitch_bend_c, 2, 8192
4, 34920, Note_on_c, 2, 59, 76
4, 34920, Note_on_c, 2, 64, 76
4, 35278, Note_off_c, 2, 64, 80
4, 35280, Note_on_c, 2, 49, 95
4, 36478, Note_off_c, 2, 59, 80
4, 36478, Note_off_c, 2, 64, 80
4, 36480, Note_on_c, 2, 55, 95
4, 36520, Note_on_c, 2, 61, 95
4, 36560, Note_on_c, 2, 66, 95
4, 37198, Note_off_c, 2, 66, 80
4, 37198, Note_off_c, 2, 49, 80
4, 37198, Note_off_c, 2, 55, 80
4, 37198, Note_off_c, 2, 61, 80
4, 37200, Note_on_c, 2, 52, 95
4, 37318, Note_off_c, 2, 52, 80
4, 37320, Note_on_c, 2, 54, 95
4, 37440, Note_on_c, 2, 59, 95
4, 37678, Note_off_c, 2, 54, 80
4, 37680, Note_on_c, 2, 54, 95
4, 37798, Note_off_c, 2, 59, 80
4, 37800, Note_on_c, 2, 59, 95
4, 37920, Note_on_c, 2, 58, 95
4, 38158, Note_off_c, 2, 54, 80
4, 38160, Note_on_c, 2, 54, 95
4, 38400, Note_on_c, 2, 47, 95
4, 38638, Note_off_c, 2, 54, 80
4, 38640, Note_on_c, 2, 54, 95
4, 38758, Note_off_c, 2, 58, 80
4, 38760, Note_on_c, 2, 59, 95
4, 39120, Note_on_c, 2, 64, 95
4, 39598, Note_off_c, 2, 59, 80
4, 39600, Note_on_c, 2, 62, 95
4, 40318, Note_off_c, 2, 47, 80
4, 40320, Note_on_c, 2, 43, 95
4, 40558, Note_off_c, 2, 54, 80
4, 40560, Note_on_c, 2, 54, 95
4, 40678, Note_off_c, 2, 59, 80
4, 40680, Note_on_c, 2, 59, 95
4, 41038, Note_off_c, 2, 64, 80
4, 41040, Note_on_c, 2, 64, 95
4, 41518, Note_off_c, 2, 62, 80
4, 41520, Note_on_c, 2, 62, 95
4, 42238, Note_off_c, 2, 43, 80
4, 42238, Note_off_c, 2, 64, 80
4, 42240, Note_on_c, 2, 64, 95
4, 42358, Note_off_c, 2, 62, 80
4, 42360, Note_on_c, 2, 59, 95
4, 42478, Note_off_c, 2, 54, 80
4, 42478, Note_off_c, 2, 59, 80
4, 42480, Note_on_c, 2, 55, 95
4, 42600, Note_on_c, 2, 54, 95
4, 42720, Note_on_c, 2, 47, 95
4, 42960, Note_on_c, 2, 40, 95
4, 44158, Note_off_c, 2, 64, 80
4, 44158, Note_off_c, 2, 59, 80
4, 44158, Note_off_c, 2, 55, 80
4, 44158, Note_off_c, 2, 54, 80
4, 44160, Note_on_c, 2, 50, 95
4, 44200, Note_on_c, 2, 55, 95
4, 44240, Note_on_c, 2, 62, 95
4, 44638, Note_off_c, 2, 47, 80
4, 44640, Note_on_c, 2, 67, 95
4, 45118, Note_off_c, 2, 40, 80
4, 45118, Note_off_c, 2, 50, 80
4, 45118, Note_off_c, 2, 55, 80
4, 45118, Note_off_c, 2, 62, 80
4, 45120, Note_on_c, 2, 48, 95
4, 45160, Note_on_c, 2, 50, 95
4, 45178, Note_off_c, 2, 50, 80
4, 45200, Note_on_c, 2, 55, 95
4, 45240, Note_on_c, 2, 62, 95
4, 47038, Note_off_c, 2, 67, 80
4, 47038, Note_off_c, 2, 48, 80
4, 47038, Note_off_c, 2, 62, 80
4, 47038, Note_off_c, 2, 55, 80
4, 47040, Note_on_c, 2, 50, 95
4, 47040, Note_on_c, 2, 54, 95
4, 47400, Note_on_c, 2, 55, 95
4, 47760, Note_on_c, 2, 62, 95
4, 48958, Note_off_c, 2, 50, 80
4, 48958, Note_off_c, 2, 54, 80
4, 48960, Note_on_c, 2, 42, 95
4, 48960, Note_on_c, 2, 54, 95
4, 49318, Note_off_c, 2, 55, 80
4, 49320, Note_on_c, 2, 55, 95
4, 49678, Note_off_c, 2, 62, 80
4, 49680, Note_on_c, 2, 64, 95
4, 50878, Note_off_c, 2, 42, 80
4, 50878, Note_off_c, 2, 54, 80
4, 50880, Note_on_c, 2, 43, 95
4, 50880, Note_on_c, 2, 54, 95
4, 51238, Note_off_c, 2, 55, 80
4, 51240, Note_on_c, 2, 55, 95
4, 51598, Note_off_c, 2, 64, 80
4, 51600, Note_on_c, 2, 66, 95
4, 52798, Note_off_c, 2, 43, 80
4, 52798, Note_off_c, 2, 54, 80
4, 52800, Note_on_c, 2, 40, 95
4, 52800, Note_on_c, 2, 50, 95
4, 53158, Note_off_c, 2, 55, 80
4, 53158, Note_off_c, 2, 66, 80
4, 53160, Note_on_c, 2, 66, 95
4, 53520, Note_on_c, 2, 61, 95
4, 53998, Note_off_c, 2, 61, 80
4, 54000, Note_on_c, 2, 62, 95
4, 54718, Note_off_c, 2, 40, 80
4, 54718, Note_off_c, 2, 50, 80
4, 54720, Note_on_c, 2, 50, 95
4, 54720, Note_on_c, 2, 54, 95
4, 55078, Note_off_c, 2, 66, 80
4, 55080, Note_on_c, 2, 55, 95
4, 55438, Note_off_c, 2, 62, 80
4, 55440, Note_on_c, 2, 62, 95
4, 56638, Note_off_c, 2, 50, 80
4, 56638, Note_off_c, 2, 54, 80
4, 56640, Note_on_c, 2, 42, 95
4, 56640, Note_on_c, 2, 54, 95
4, 56998, Note_off_c, 2, 55, 80
4, 57000, Note_on_c, 2, 55, 95
4, 57358, Note_off_c, 2, 62, 80
4, 57360, Note_on_c, 2, 64, 95
4, 58558, Note_off_c, 2, 42, 80
4, 58558, Note_off_c, 2, 54, 80
4, 58560, Note_on_c, 2, 43, 95
4, 58560, Note_on_c, 2, 54, 95
4, 58918, Note_off_c, 2, 55, 80
4, 58920, Note_on_c, 2, 55, 95
4, 59278, Note_off_c, 2, 64, 80
4, 59280, Note_on_c, 2, 66, 95
4, 60478, Note_off_c, 2, 43, 80
4, 60478, Note_off_c, 2, 54, 80
4, 60478, Note_off_c, 2, 55, 80
4, 60480, Note_on_c, 2, 43, 95
4, 60520, Note_on_c, 2, 45, 95
4, 60538, Note_off_c, 2, 45, 80
4, 60560, Note_on_c, 2, 50, 95
4, 60600, Note_on_c, 2, 57, 95
4, 60640, Note_on_c, 2, 62, 95
4, 61438, Note_off_c, 2, 66, 80
4, 61438, Note_off_c, 2, 43, 80
4, 61438, Note_off_c, 2, 57, 80
4, 61438, Note_off_c, 2, 62, 80
4, 61438, Note_off_c, 2, 50, 80
4, 61440, Note_on_c, 2, 45, 95
4, 61480, Note_on_c, 2, 52, 95
4, 61520, Note_on_c, 2, 57, 95
4, 62398, Note_off_c, 2, 45, 80
4, 62398, Note_off_c, 2, 52, 80
4, 62398, Note_off_c, 2, 57, 80
4, 62400, Program_c, 2, 30
4, 62400, Note_on_c, 2, 45, 95
4, 62400, Note_on_c, 2, 50, 95
4, 62400, Note_on_c, 2, 57, 95
4, 62400, Note_on_c, 2, 62, 95
4, 64318, Note_off_c, 2, 45, 80
4, 64318, Note_off_c, 2, 50, 80
4, 64318, Note_off_c, 2, 57, 80
4, 64318, Note_off_c, 2, 62, 80
4, 64320, Note_on_c, 2, 42, 95
4, 65038, Note_off_c, 2, 42, 80
4, 65040, Note_on_c, 2, 42, 95
4, 66238, Note_off_c, 2, 42, 80
4, 66240, Note_on_c, 2, 43, 95
4, 66240, Note_on_c, 2, 50, 95
4, 66240, Note_on_c, 2, 55, 95
4, 66958, Note_off_c, 2, 43, 80
4, 66958, Note_off_c, 2, 50, 80
4, 66958, Note_off_c, 2, 55, 80
4, 66960, Note_on_c, 2, 50, 95
4, 66960, Note_on_c, 2, 55, 95
4, 66960, Note_on_c, 2, 62, 95
4, 66960, Note_on_c, 2, 67, 95
4, 67198, Note_off_c, 2, 50, 80
4, 68158, Note_off_c, 2, 55, 80
4, 68158, Note_off_c, 2, 62, 80
4, 68158, Note_off_c, 2, 67, 80
4, 68160, Note_on_c, 2, 40, 95
4, 68160, Note_on_c, 2, 47, 95
4, 68160, Note_on_c, 2, 52, 95
4, 68878, Note_off_c, 2, 47, 80
4, 68878, Note_off_c, 2, 52, 80
4, 68880, Note_on_c, 2, 47, 95
4, 68880, Note_on_c, 2, 52, 95
4, 68880, Note_on_c, 2, 59, 95
4, 68880, Note_on_c, 2, 64, 95
4, 70078, Note_off_c, 2, 40, 80
4, 70078, Note_off_c, 2, 47, 80
4, 70078, Note_off_c, 2, 52, 80
4, 70078, Note_off_c, 2, 59, 80
4, 70078, Note_off_c, 2, 64, 80
4, 70080, Note_on_c, 2, 45, 95
4, 70080, Note_on_c, 2, 50, 95
4, 70798, Note_off_c, 2, 50, 80
4, 70800, Note_on_c, 2, 50, 95
4, 70800, Note_on_c, 2, 57, 95
4, 70800, Note_on_c, 2, 62, 95
4, 71998, Note_off_c, 2, 45, 80
4, 71998, Note_off_c, 2, 50, 80
4, 71998, Note_off_c, 2, 57, 80
4, 71998, Note_off_c, 2, 62, 80
4, 72000, Note_on_c, 2, 42, 95
4, 72718, Note_off_c, 2, 42, 80
4, 72720, Note_on_c, 2, 42, 95
4, 73918, Note_off_c, 2, 42, 80
4, 73920, Note_on_c, 2, 40, 95
4, 74638, Note_off_c, 2, 40, 80
4, 74640, Note_on_c, 2, 40, 95
4, 75838, Note_off_c, 2, 40, 80
4, 75840, Note_on_c, 2, 43, 95
4, 76798, Note_off_c, 2, 43, 80
4, 76800, Note_on_c, 2, 45, 95
4, 77758, Note_off_c, 2, 45, 80
4, 77760, Note_on_c, 2, 47, 95
4, 77760, Note_on_c, 2, 54, 95
4, 77760, Note_on_c, 2, 59, 95
4, 79678, Note_off_c, 2, 47, 80
4, 79678, Note_off_c, 2, 54, 80
4, 79678, Note_off_c, 2, 59, 80
4, 79680, Note_on_c, 2, 43, 95
4, 79680, Note_on_c, 2, 50, 95
4, 79680, Note_on_c, 2, 55, 95
4, 80398, Note_off_c, 2, 43, 80
4, 80398, Note_off_c, 2, 50, 80
4, 80398, Note_off_c, 2, 55, 80
4, 80400, Note_on_c, 2, 43, 95
4, 80400, Note_on_c, 2, 50, 95
4, 80400, Note_on_c, 2, 55, 95
4, 81598, Note_off_c, 2, 43, 80
4, 81598, Note_off_c, 2, 50, 80
4, 81598, Note_off_c, 2, 55, 80
4, 81600, Note_on_c, 2, 49, 95
4, 82318, Note_off_c, 2, 49, 80
4, 82320, Note_on_c, 2, 49, 95
4, 83518, Note_off_c, 2, 49, 80
4, 83520, Note_on_c, 2, 40, 95
4, 84478, Note_off_c, 2, 40, 80
4, 84480, Note_on_c, 2, 42, 95
4, 85438, Note_off_c, 2, 42, 80
4, 85440, Note_on_c, 2, 47, 95
4, 85440, Note_on_c, 2, 54, 95
4, 85440, Note_on_c, 2, 59, 95
4, 86158, Note_off_c, 2, 47, 80
4, 86158, Note_off_c, 2, 54, 80
4, 86158, Note_off_c, 2, 59, 80
4, 86160, Note_on_c, 2, 47, 95
4, 86160, Note_on_c, 2, 54, 95
4, 86160, Note_on_c, 2, 59, 95
4, 87358, Note_off_c, 2, 47, 80
4, 87358, Note_off_c, 2, 54, 80
4, 87358, Note_off_c, 2, 59, 80
4, 87360, Note_on_c, 2, 43, 95
4, 87360, Note_on_c, 2, 50, 95
4, 87360, Note_on_c, 2, 55, 95
4, 88078, Note_off_c, 2, 43, 80
4, 88078, Note_off_c, 2, 50, 80
4, 88078, Note_off_c, 2, 55, 80
4, 88080, Note_on_c, 2, 43, 95
4, 88080, Note_on_c, 2, 50, 95
4, 88080, Note_on_c, 2, 55, 95
4, 89278, Note_off_c, 2, 43, 80
4, 89278, Note_off_c, 2, 50, 80
4, 89278, Note_off_c, 2, 55, 80
4, 89280, Note_on_c, 2, 40, 95
4, 89280, Note_on_c, 2, 47, 95
4, 89280, Note_on_c, 2, 52, 95
4, 89998, Note_off_c, 2, 40, 80
4, 89998, Note_off_c, 2, 47, 80
4, 89998, Note_off_c, 2, 52, 80
4, 90000, Note_on_c, 2, 40, 95
4, 90000, Note_on_c, 2, 47, 95
4, 90000, Note_on_c, 2, 52, 95
4, 91198, Note_off_c, 2, 40, 80
4, 91198, Note_off_c, 2, 47, 80
4, 91198, Note_off_c, 2, 52, 80
4, 91200, Note_on_c, 2, 50, 95
4, 91200, Note_on_c, 2, 55, 95
4, 91200, Note_on_c, 2, 62, 95
4, 92158, Note_off_c, 2, 50, 80
4, 92158, Note_off_c, 2, 55, 80
4, 92158, Note_off_c, 2, 62, 80
4, 92160, Note_on_c, 2, 48, 95
4, 92160, Note_on_c, 2, 55, 95
4, 92160, Note_on_c, 2, 60, 95
4, 94080, Control_c, 2, 7, 96
4, 94200, Control_c, 2, 7, 88
4, 94320, Control_c, 2, 7, 80
4, 94440, Control_c, 2, 7, 72
4, 94560, Control_c, 2, 7, 64
4, 94680, Control_c, 2, 7, 56
4, 94800, Control_c, 2, 7, 48
4, 94920, Control_c, 2, 7, 40
4, 95040, Control_c, 2, 7, 32
4, 95160, Control_c, 2, 7, 24
4, 95280, Control_c, 2, 7, 16
4, 95400, Control_c, 2, 7, 8
4, 95520, Control_c, 2, 7, 0
4, 95998, Note_off_c, 2, 48, 80
4, 95998, Note_off_c, 2, 55, 80
4, 95998, Note_off_c, 2, 60, 80
4, 96000, Control_c, 2, 7, 96
4, 103680, Program_c, 2, 26
4, 103680, Note_on_c, 2, 59, 95
4, 105118, Note_off_c, 2, 59, 80
4, 105120, Note_on_c, 2, 58, 95
4, 106558, Note_off_c, 2, 58, 80
4, 106560, Note_on_c, 2, 61, 95
4, 108478, Note_off_c, 2, 61, 80
4, 108720, Note_on_c, 2, 54, 95
4, 109438, Note_off_c, 2, 54, 80
4, 109440, Note_on_c, 2, 55, 95
4, 110878, Note_off_c, 2, 55, 80
4, 110880, Note_on_c, 2, 52, 95
4, 111358, Note_off_c, 2, 52, 80
4, 111360, Note_on_c, 2, 52, 95
4, 111468, Pitch_bend_c, 2, 8832
4, 111478, Note_off_c, 2, 52, 80
4, 111480, Pitch_bend_c, 2, 8192
4, 111480, Note_on_c, 2, 54, 76
4, 113038, Note_off_c, 2, 54, 80
4, 113040, Note_on_c, 2, 64, 95
4, 115198, Note_off_c, 2, 64, 80
4, 115200, Note_on_c, 2, 59, 95
4, 118078, Note_off_c, 2, 59, 80
4, 118080, Note_on_c, 2, 55, 95
4, 119038, Note_off_c, 2, 55, 80
4, 119040, Note_on_c, 2, 55, 95
4, 119758, Note_off_c, 2, 55, 80
4, 119760, Note_on_c, 2, 54, 95
4, 121678, Note_off_c, 2, 54, 80
4, 121680, Note_on_c, 2, 58, 95
4, 122038, Note_off_c, 2, 58, 80
4, 122040, Note_on_c, 2, 59, 95
4, 123598, Note_off_c, 2, 59, 80
4, 123600, Note_on_c, 2, 54, 95
4, 126238, Note_off_c, 2, 54, 80
4, 126240, Note_on_c, 2, 47, 95
4, 126358, Note_off_c, 2, 47, 80
4, 126360, Note_on_c, 2, 49, 76
4, 126478, Note_off_c, 2, 49, 80
4, 126480, Note_on_c, 2, 52, 95
4, 126598, Note_off_c, 2, 52, 80
4, 126600, Note_on_c, 2, 54, 76
4, 126718, Note_off_c, 2, 54, 80
4, 126720, Note_on_c, 2, 42, 95
4, 127080, Note_on_c, 2, 49, 95
4, 127440, Note_on_c, 2, 54, 95
4, 128158, Note_off_c, 2, 54, 80
4, 128160, Note_on_c, 2, 52, 95
4, 128638, Note_off_c, 2, 42, 80
4, 129358, Note_off_c, 2, 49, 80
4, 129360, Note_on_c, 2, 49, 95
4, 129598, Note_off_c, 2, 52, 80
4, 129600, Note_on_c, 2, 54, 95
4, 129960, Note_on_c, 2, 55, 95
4, 130560, Note_on_c, 2, 42, 95
4, 130918, Note_off_c, 2, 49, 80
4, 130920, Note_on_c, 2, 49, 95
4, 131278, Note_off_c, 2, 54, 80
4, 131280, Note_on_c, 2, 54, 95
4, 131998, Note_off_c, 2, 55, 80
4, 131998, Note_off_c, 2, 54, 80
4, 132000, Note_on_c, 2, 52, 95
4, 132478, Note_off_c, 2, 42, 80
4, 132480, Note_on_c, 2, 42, 95
4, 132838, Note_off_c, 2, 49, 80
4, 132840, Note_on_c, 2, 49, 95
4, 133198, Note_off_c, 2, 52, 80
4, 133200, Note_on_c, 2, 54, 95
4, 133440, Note_on_c, 2, 58, 95
4, 133800, Note_on_c, 2, 59, 95
4, 134398, Note_off_c, 2, 42, 80
4, 134400, Note_on_c, 2, 42, 95
4, 134758, Note_off_c, 2, 49, 80
4, 134760, Note_on_c, 2, 49, 95
4, 135118, Note_off_c, 2, 54, 80
4, 135120, Note_on_c, 2, 54, 95
4, 135838, Note_off_c, 2, 58, 80
4, 135838, Note_off_c, 2, 59, 80
4, 135838, Note_off_c, 2, 54, 80
4, 135840, Note_on_c, 2, 52, 95
4, 136318, Note_off_c, 2, 42, 80
4, 137038, Note_off_c, 2, 49, 80
4, 137040, Note_on_c, 2, 49, 95
4, 137278, Note_off_c, 2, 52, 80
4, 137280, Note_on_c, 2, 54, 95
4, 137640, Note_on_c, 2, 55, 95
4, 138240, Note_on_c, 2, 42, 95
4, 138598, Note_off_c, 2, 49, 80
4, 138600, Note_on_c, 2, 49, 95
4, 138958, Note_off_c, 2, 54, 80
4, 138960, Note_on_c, 2, 54, 95
4, 139678, Note_off_c, 2, 55, 80
4, 139678, Note_off_c, 2, 54, 80
4, 139680, Note_on_c, 2, 52, 95
4, 140158, Note_off_c, 2, 42, 80
4, 140518, Note_off_c, 2, 49, 80
4, 140520, Note_on_c, 2, 42, 95
4, 140880, Note_on_c, 2, 49, 95
4, 141118, Note_off_c, 2, 52, 80
4, 141120, Note_on_c, 2, 54, 95
4, 141480, Note_on_c, 2, 58, 95
4, 141840, Note_on_c, 2, 59, 95
4, 142438, Note_off_c, 2, 42, 80
4, 142438, Note_off_c, 2, 59, 80
4, 142440, Note_on_c, 2, 42, 95
4, 142798, Note_off_c, 2, 49, 80
4, 142800, Note_on_c, 2, 49, 95
4, 143038, Note_off_c, 2, 54, 80
4, 143040, Note_on_c, 2, 54, 95
4, 143518, Note_off_c, 2, 58, 80
4, 143518, Note_off_c, 2, 54, 80
4, 143520, Note_on_c, 2, 52, 95
4, 143598, Note_off_c, 2, 52, 80
4, 143600, Note_on_c, 2, 54, 76
4, 143678, Note_off_c, 2, 54, 80
4, 143680, Note_on_c, 2, 52, 76
4, 143758, Note_off_c, 2, 49, 80
4, 143758, Note_off_c, 2, 52, 80
4, 143760, Note_on_c, 2, 47, 95
4, 143838, Note_off_c, 2, 47, 80
4, 143840, Note_on_c, 2, 49, 76
4, 143918, Note_off_c, 2, 49, 80
4, 143920, Note_on_c, 2, 47, 76
4, 143998, Note_off_c, 2, 47, 80
4, 144000, Note_on_c, 2, 47, 95
4, 144358, Note_off_c, 2, 42, 80
4, 144360, Note_on_c, 2, 42, 95
4, 144718, Note_off_c, 2, 47, 80
4, 144720, Note_on_c, 2, 49, 95
4, 144960, Note_on_c, 2, 54, 95
4, 145440, Note_on_c, 2, 55, 95
4, 145918, Note_off_c, 2, 54, 80
4, 145920, Note_on_c, 2, 54, 95
4, 146278, Note_off_c, 2, 42, 80
4, 146278, Note_off_c, 2, 49, 80
4, 146280, Note_on_c, 2, 49, 95
4, 146640, Note_on_c, 2, 42, 95
4, 146818, Note_off_c, 2, 54, 80
4, 146820, Note_on_c, 2, 52, 95
4, 146877, Note_off_c, 2, 52, 80
4, 146880, Note_on_c, 2, 54, 76
4, 147358, Note_off_c, 2, 55, 80
4, 147358, Note_off_c, 2, 54, 80
4, 147360, Note_on_c, 2, 52, 95
4, 148198, Note_off_c, 2, 49, 80
4, 148198, Note_off_c, 2, 42, 80
4, 148200, Note_on_c, 2, 42, 95
4, 148560, Note_on_c, 2, 49, 95
4, 148798, Note_off_c, 2, 52, 80
4, 148800, Note_on_c, 2, 54, 95
4, 149160, Note_on_c, 2, 58, 95
4, 149520, Note_on_c, 2, 59, 95
4, 149758, Note_off_c, 2, 59, 80
4, 149760, Note_on_c, 2, 61, 95
4, 150118, Note_off_c, 2, 42, 80
4, 150118, Note_off_c, 2, 54, 80
4, 150118, Note_off_c, 2, 61, 80
4, 150120, Note_on_c, 2, 54, 95
4, 150478, Note_off_c, 2, 49, 80
4, 150478, Note_off_c, 2, 54, 80
4, 150480, Note_on_c, 2, 49, 95
4, 150598, Note_off_c, 2, 49, 80
4, 150600, Note_on_c, 2, 52, 95
4, 150718, Note_off_c, 2, 52, 80
4, 150720, Note_on_c, 2, 54, 95
4, 151198, Note_off_c, 2, 58, 80
4, 151198, Note_off_c, 2, 54, 80
4, 151200, Note_on_c, 2, 55, 95
4, 151438, Note_off_c, 2, 55, 80
4, 151440, Note_on_c, 2, 52, 95
4, 151678, Note_off_c, 2, 52, 80
4, 151680, Note_on_c, 2, 54, 95
4, 152040, Note_on_c, 2, 49, 95
4, 152400, Note_on_c, 2, 42, 95
4, 152640, Note_on_c, 2, 55, 95
4, 153598, Note_off_c, 2, 54, 80
4, 153600, Note_on_c, 2, 54, 95
4, 153958, Note_off_c, 2, 49, 80
4, 153960, Note_on_c, 2, 49, 95
4, 154318, Note_off_c, 2, 42, 80
4, 154320, Note_on_c, 2, 42, 95
4, 154558, Note_off_c, 2, 55, 80
4, 154558, Note_off_c, 2, 54, 80
4, 154560, Note_on_c, 2, 54, 95
4, 155038, Note_off_c, 2, 54, 80
4, 155040, Note_on_c, 2, 54, 95
4, 155278, Note_off_c, 2, 54, 80
4, 155280, Note_on_c, 2, 52, 95
4, 155518, Note_off_c, 2, 49, 80
4, 155520, Note_on_c, 2, 49, 95
4, 156238, Note_off_c, 2, 42, 80
4, 156238, Note_off_c, 2, 52, 80
4, 156240, Note_on_c, 2, 54, 95
4, 156480, Note_on_c, 2, 58, 95
4, 156840, Note_on_c, 2, 59, 95
4, 157438, Note_off_c, 2, 49, 80
4, 157440, Program_c, 2, 30
4, 157440, Note_on_c, 2, 42, 95
4, 157798, Note_off_c, 2, 54, 80
4, 157798, Note_off_c, 2, 58, 80
4, 157800, Note_on_c, 2, 54, 95
4, 157800, Note_on_c, 2, 58, 95
4, 157918, Note_off_c, 2, 42, 80
4, 158158, Note_off_c, 2, 54, 80
4, 158158, Note_off_c, 2, 58, 80
4, 158160, Note_on_c, 2, 42, 95
4, 158518, Note_off_c, 2, 59, 80
4, 158518, Note_off_c, 2, 42, 80
4, 158520, Note_on_c, 2, 59, 95
4, 159358, Note_off_c, 2, 59, 80
4, 159360, Note_on_c, 2, 42, 95
4, 159720, Note_on_c, 2, 54, 95
4, 159720, Note_on_c, 2, 58, 95
4, 159838, Note_off_c, 2, 42, 80
4, 160078, Note_off_c, 2, 54, 80
4, 160078, Note_off_c, 2, 58, 80
4, 160080, Note_on_c, 2, 42, 95
4, 160558, Note_off_c, 2, 42, 80
4, 160560, Note_on_c, 2, 59, 95
4, 160918, Note_off_c, 2, 59, 80
4, 160920, Note_on_c, 2, 59, 95
4, 160920, Note_on_c, 2, 64, 95
4, 161278, Note_off_c, 2, 59, 80
4, 161278, Note_off_c, 2, 64, 80
4, 161280, Note_on_c, 2, 42, 95
4, 161638, Note_off_c, 2, 42, 80
4, 161640, Note_on_c, 2, 49, 95
4, 161998, Note_off_c, 2, 49, 80
4, 162000, Note_on_c, 2, 54, 95
4, 162358, Note_off_c, 2, 54, 80
4, 162360, Note_on_c, 2, 49, 95
4, 162478, Note_off_c, 2, 49, 80
4, 162480, Note_on_c, 2, 42, 95
4, 162718, Note_off_c, 2, 42, 80
4, 162720, Note_on_c, 2, 54, 95
4, 162720, Note_on_c, 2, 58, 95
4, 163198, Note_off_c, 2, 54, 80
4, 163198, Note_off_c, 2, 58, 80
4, 163200, Note_on_c, 2, 42, 95
4, 163440, Note_on_c, 2, 49, 95
4, 163560, Note_on_c, 2, 54, 95
4, 163680, Note_on_c, 2, 58, 95
4, 163920, Note_on_c, 2, 59, 95
4, 164518, Note_off_c, 2, 58, 80
4, 164518, Note_off_c, 2, 59, 80
4, 164520, Note_on_c, 2, 58, 95
4, 164520, Note_on_c, 2, 59, 95
4, 164520, Note_on_c, 2, 64, 95
4, 165118, Note_off_c, 2, 42, 80
4, 165118, Note_off_c, 2, 58, 80
4, 165118, Note_off_c, 2, 59, 80
4, 165118, Note_off_c, 2, 64, 80
4, 165120, Note_on_c, 2, 42, 95
4, 165478, Note_off_c, 2, 49, 80
4, 165478, Note_off_c, 2, 54, 80
4, 165480, Note_on_c, 2, 54, 95
4, 165480, Note_on_c, 2, 58, 95
4, 165838, Note_off_c, 2, 42, 80
4, 165838, Note_off_c, 2, 54, 80
4, 165838, Note_off_c, 2, 58, 80
4, 165840, Note_on_c, 2, 49, 95
4, 165958, Note_off_c, 2, 49, 80
4, 165960, Note_on_c, 2, 42, 95
4, 166558, Note_off_c, 2, 42, 80
4, 166560, Note_on_c, 2, 49, 95
4, 166678, Note_off_c, 2, 49, 80
4, 166680, Note_on_c, 2, 54, 95
4, 166798, Note_off_c, 2, 54, 80
4, 166800, Note_on_c, 2, 58, 95
4, 167038, Note_off_c, 2, 58, 80
4, 167040, Note_on_c, 2, 42, 95
4, 167280, Note_on_c, 2, 49, 95
4, 167398, Note_off_c, 2, 42, 80
4, 167398, Note_off_c, 2, 49, 80
4, 167400, Note_on_c, 2, 54, 95
4, 167638, Note_off_c, 2, 54, 80
4, 167640, Note_on_c, 2, 42, 95
4, 167758, Note_off_c, 2, 42, 80
4, 167760, Note_on_c, 2, 54, 95
4, 167760, Note_on_c, 2, 58, 95
4, 168118, Note_off_c, 2, 54, 80
4, 168118, Note_off_c, 2, 58, 80
4, 168120, Note_on_c, 2, 59, 95
4, 168238, Note_off_c, 2, 59, 80
4, 168240, Note_on_c, 2, 55, 95
4, 168718, Note_off_c, 2, 55, 80
4, 168720, Note_on_c, 2, 54, 95
4, 168958, Note_off_c, 2, 54, 80
4, 168960, Note_on_c, 2, 42, 95
4, 169200, Note_on_c, 2, 49, 95
4, 169318, Note_off_c, 2, 42, 80
4, 169318, Note_off_c, 2, 49, 80
4, 169320, Note_on_c, 2, 54, 95
4, 169438, Note_off_c, 2, 54, 80
4, 169440, Note_on_c, 2, 58, 95
4, 169798, Note_off_c, 2, 58, 80
4, 169800, Note_on_c, 2, 54, 95
4, 169918, Note_off_c, 2, 54, 80
4, 169920, Note_on_c, 2, 58, 95
4, 170038, Note_off_c, 2, 58, 80
4, 170040, Note_on_c, 2, 59, 95
4, 170278, Note_off_c, 2, 59, 80
4, 170280, Note_on_c, 2, 59, 95
4, 170280, Note_on_c, 2, 64, 95
4, 172798, Note_off_c, 2, 59, 80
4, 172798, Note_off_c, 2, 64, 80
4, 172800, Note_on_c, 2, 47, 95
4, 172800, Note_on_c, 2, 54, 95
4, 172800, Note_on_c, 2, 59, 95
4, 173518, Note_off_c, 2, 54, 80
4, 173518, Note_off_c, 2, 59, 80
4, 173520, Note_on_c, 2, 54, 95
4, 173520, Note_on_c, 2, 59, 95
4, 173520, Note_on_c, 2, 64, 95
4, 174718, Note_off_c, 2, 47, 80
4, 174718, Note_off_c, 2, 54, 80
4, 174718, Note_off_c, 2, 59, 80
4, 174718, Note_off_c, 2, 64, 80
4, 174720, Note_on_c, 2, 47, 95
4, 174720, Note_on_c, 2, 54, 95
4, 174720, Note_on_c, 2, 59, 95
4, 175438, Note_off_c, 2, 54, 80
4, 175438, Note_off_c, 2, 59, 80
4, 175440, Note_on_c, 2, 54, 95
4, 175440, Note_on_c, 2, 59, 95
4, 175440, Note_on_c, 2, 64, 95
4, 176638, Note_off_c, 2, 47, 80
4, 176638, Note_off_c, 2, 54, 80
4, 176638, Note_off_c, 2, 59, 80
4, 176638, Note_off_c, 2, 64, 80
4, 176640, Note_on_c, 2, 47, 95
4, 176640, Note_on_c, 2, 54, 95
4, 176640, Note_on_c, 2, 59, 95
4, 177358, Note_off_c, 2, 54, 80
4, 177358, Note_off_c, 2, 59, 80
4, 177360, Note_on_c, 2, 54, 95
4, 177360, Note_on_c, 2, 59, 95
4, 177360, Note_on_c, 2, 64, 95
4, 180478, Note_off_c, 2, 47, 80
4, 180478, Note_off_c, 2, 54, 80
4, 180478, Note_off_c, 2, 59, 80
4, 180478, Note_off_c, 2, 64, 80
4, 180480, Note_on_c, 2, 42, 95
4, 180480, Note_on_c, 2, 49, 95
4, 180598, Note_off_c, 2, 42, 80
4, 180598, Note_off_c, 2, 49, 80
4, 180600, Note_on_c, 2, 42, 95
4, 180600, Note_on_c, 2, 49, 95
4, 180718, Note_off_c, 2, 42, 80
4, 180718, Note_off_c, 2, 49, 80
4, 180720, Note_on_c, 2, 42, 95
4, 180720, Note_on_c, 2, 49, 95
4, 180838, Note_off_c, 2, 42, 80
4, 180838, Note_off_c, 2, 49, 80
4, 181080, Note_on_c, 2, 42, 95
4, 181080, Note_on_c, 2, 49, 95
4, 181198, Note_off_c, 2, 42, 80
4, 181198, Note_off_c, 2, 49, 80
4, 181320, Note_on_c, 2, 42, 95
4, 181320, Note_on_c, 2, 49, 95
4, 181438, Note_off_c, 2, 42, 80
4, 181438, Note_off_c, 2, 49, 80
4, 181440, Note_on_c, 2, 42, 95
4, 181440, Note_on_c, 2, 49, 95
4, 181558, Note_off_c, 2, 42, 80
4, 181558, Note_off_c, 2, 49, 80
4, 181560, Note_on_c, 2, 42, 95
4, 181560, Note_on_c, 2, 49, 95
4, 181678, Note_off_c, 2, 42, 80
4, 181678, Note_off_c, 2, 49, 80
4, 181680, Note_on_c, 2, 42, 95
4, 181680, Note_on_c, 2, 49, 95
4, 181798, Note_off_c, 2, 42, 80
4, 181798, Note_off_c, 2, 49, 80
4, 181800, Note_on_c, 2, 40, 95
4, 181918, Note_off_c, 2, 40, 80
4, 181920, Note_on_c, 2, 40, 95
4, 181920, Note_on_c, 2, 47, 95
4, 182158, Note_off_c, 2, 40, 80
4, 182158, Note_off_c, 2, 47, 80
4, 182160, Note_on_c, 2, 43, 95
4, 182160, Note_on_c, 2, 50, 95
4, 182278, Note_off_c, 2, 43, 80
4, 182278, Note_off_c, 2, 50, 80
4, 182280, Note_on_c, 2, 40, 95
4, 182398, Note_off_c, 2, 40, 80
4, 182400, Note_on_c, 2, 42, 95
4, 182400, Note_on_c, 2, 49, 95
4, 182518, Note_off_c, 2, 42, 80
4, 182518, Note_off_c, 2, 49, 80
4, 182520, Note_on_c, 2, 42, 95
4, 182520, Note_on_c, 2, 49, 95
4, 182638, Note_off_c, 2, 42, 80
4, 182638, Note_off_c, 2, 49, 80
4, 182640, Note_on_c, 2, 42, 95
4, 182640, Note_on_c, 2, 49, 95
4, 182758, Note_off_c, 2, 42, 80
4, 182758, Note_off_c, 2, 49, 80
4, 183000, Note_on_c, 2, 42, 95
4, 183000, Note_on_c, 2, 49, 95
4, 183118, Note_off_c, 2, 42, 80
4, 183118, Note_off_c, 2, 49, 80
4, 183240, Note_on_c, 2, 42, 95
4, 183240, Note_on_c, 2, 49, 95
4, 183358, Note_off_c, 2, 42, 80
4, 183358, Note_off_c, 2, 49, 80
4, 183360, Note_on_c, 2, 42, 95
4, 183360, Note_on_c, 2, 49, 95
4, 183478, Note_off_c, 2, 42, 80
4, 183478, Note_off_c, 2, 49, 80
4, 183480, Note_on_c, 2, 42, 95
4, 183480, Note_on_c, 2, 49, 95
4, 183598, Note_off_c, 2, 42, 80
4, 183598, Note_off_c, 2, 49, 80
4, 183600, Note_on_c, 2, 42, 95
4, 183600, Note_on_c, 2, 49, 95
4, 183718, Note_off_c, 2, 42, 80
4, 183718, Note_off_c, 2, 49, 80
4, 183720, Note_on_c, 2, 40, 95
4, 183838, Note_off_c, 2, 40, 80
4, 183840, Note_on_c, 2, 40, 95
4, 183840, Note_on_c, 2, 47, 95
4, 184318, Note_off_c, 2, 40, 80
4, 184318, Note_off_c, 2, 47, 80
4, 184320, Note_on_c, 2, 42, 95
4, 184320, Note_on_c, 2, 49, 95
4, 184438, Note_off_c, 2, 42, 80
4, 184438, Note_off_c, 2, 49, 80
4, 184440, Note_on_c, 2, 42, 95
4, 184440, Note_on_c, 2, 49, 95
4, 184558, Note_off_c, 2, 42, 80
4, 184558, Note_off_c, 2, 49, 80
4, 184560, Note_on_c, 2, 42, 95
4, 184560, Note_on_c, 2, 49, 95
4, 184678, Note_off_c, 2, 42, 80
4, 184678, Note_off_c, 2, 49, 80
4, 184920, Note_on_c, 2, 42, 95
4, 184920, Note_on_c, 2, 49, 95
4, 185038, Note_off_c, 2, 42, 80
4, 185038, Note_off_c, 2, 49, 80
4, 185160, Note_on_c, 2, 42, 95
4, 185160, Note_on_c, 2, 49, 95
4, 185278, Note_off_c, 2, 42, 80
4, 185278, Note_off_c, 2, 49, 80
4, 185280, Note_on_c, 2, 42, 95
4, 185280, Note_on_c, 2, 49, 95
4, 185398, Note_off_c, 2, 42, 80
4, 185398, Note_off_c, 2, 49, 80
4, 185400, Note_on_c, 2, 42, 95
4, 185400, Note_on_c, 2, 49, 95
4, 185518, Note_off_c, 2, 42, 80
4, 185518, Note_off_c, 2, 49, 80
4, 185520, Note_on_c, 2, 42, 95
4, 185520, Note_on_c, 2, 49, 95
4, 185638, Note_off_c, 2, 42, 80
4, 185638, Note_off_c, 2, 49, 80
4, 185640, Note_on_c, 2, 40, 95
4, 185758, Note_off_c, 2, 40, 80
4, 185760, Note_on_c, 2, 40, 95
4, 185760, Note_on_c, 2, 47, 95
4, 185998, Note_off_c, 2, 40, 80
4, 185998, Note_off_c, 2, 47, 80
4, 186000, Note_on_c, 2, 43, 95
4, 186000, Note_on_c, 2, 50, 95
4, 186118, Note_off_c, 2, 43, 80
4, 186118, Note_off_c, 2, 50, 80
4, 186120, Note_on_c, 2, 40, 95
4, 186238, Note_off_c, 2, 40, 80
4, 186240, Note_on_c, 2, 42, 95
4, 186240, Note_on_c, 2, 49, 95
4, 186358, Note_off_c, 2, 42, 80
4, 186358, Note_off_c, 2, 49, 80
4, 186360, Note_on_c, 2, 42, 95
4, 186360, Note_on_c, 2, 49, 95
4, 186478, Note_off_c, 2, 42, 80
4, 186478, Note_off_c, 2, 49, 80
4, 186480, Note_on_c, 2, 42, 95
4, 186480, Note_on_c, 2, 49, 95
4, 186598, Note_off_c, 2, 42, 80
4, 186598, Note_off_c, 2, 49, 80
4, 186840, Note_on_c, 2, 42, 95
4, 186840, Note_on_c, 2, 49, 95
4, 186958, Note_off_c, 2, 42, 80
4, 186958, Note_off_c, 2, 49, 80
4, 187080, Note_on_c, 2, 42, 95
4, 187080, Note_on_c, 2, 49, 95
4, 187198, Note_off_c, 2, 42, 80
4, 187198, Note_off_c, 2, 49, 80
4, 187200, Note_on_c, 2, 42, 95
4, 187200, Note_on_c, 2, 49, 95
4, 187318, Note_off_c, 2, 42, 80
4, 187318, Note_off_c, 2, 49, 80
4, 187320, Note_on_c, 2, 42, 95
4, 187320, Note_on_c, 2, 49, 95
4, 187438, Note_off_c, 2, 42, 80
4, 187438, Note_off_c, 2, 49, 80
4, 187440, Note_on_c, 2, 42, 95
4, 187440, Note_on_c, 2, 49, 95
4, 187558, Note_off_c, 2, 42, 80
4, 187558, Note_off_c, 2, 49, 80
4, 188160, Note_on_c, 2, 47, 95
4, 188160, Note_on_c, 2, 54, 95
4, 188278, Note_off_c, 2, 47, 80
4, 188278, Note_off_c, 2, 54, 80
4, 188280, Note_on_c, 2, 47, 95
4, 188280, Note_on_c, 2, 54, 95
4, 188398, Note_off_c, 2, 47, 80
4, 188398, Note_off_c, 2, 54, 80
4, 188400, Note_on_c, 2, 47, 95
4, 188400, Note_on_c, 2, 54, 95
4, 188518, Note_off_c, 2, 47, 80
4, 188518, Note_off_c, 2, 54, 80
4, 188760, Note_on_c, 2, 47, 95
4, 188760, Note_on_c, 2, 54, 95
4, 188878, Note_off_c, 2, 47, 80
4, 188878, Note_off_c, 2, 54, 80
4, 189000, Note_on_c, 2, 47, 95
4, 189000, Note_on_c, 2, 54, 95
4, 189118, Note_off_c, 2, 47, 80
4, 189118, Note_off_c, 2, 54, 80
4, 189120, Note_on_c, 2, 47, 95
4, 189120, Note_on_c, 2, 54, 95
4, 189238, Note_off_c, 2, 47, 80
4, 189238, Note_off_c, 2, 54, 80
4, 189240, Note_on_c, 2, 47, 95
4, 189240, Note_on_c, 2, 54, 95
4, 189358, Note_off_c, 2, 47, 80
4, 189358, Note_off_c, 2, 54, 80
4, 189360, Note_on_c, 2, 47, 95
4, 189360, Note_on_c, 2, 54, 95
4, 189478, Note_off_c, 2, 47, 80
4, 189478, Note_off_c, 2, 54, 80
4, 189480, Note_on_c, 2, 45, 95
4, 189598, Note_off_c, 2, 45, 80
4, 189600, Note_on_c, 2, 45, 95
4, 189600, Note_on_c, 2, 52, 95
4, 189838, Note_off_c, 2, 45, 80
4, 189838, Note_off_c, 2, 52, 80
4, 189840, Note_on_c, 2, 48, 95
4, 189840, Note_on_c, 2, 55, 95
4, 189958, Note_off_c, 2, 48, 80
4, 189958, Note_off_c, 2, 55, 80
4, 189960, Note_on_c, 2, 45, 95
4, 190078, Note_off_c, 2, 45, 80
4, 190080, Note_on_c, 2, 47, 95
4, 190080, Note_on_c, 2, 54, 95
4, 190198, Note_off_c, 2, 47, 80
4, 190198, Note_off_c, 2, 54, 80
4, 190200, Note_on_c, 2, 47, 95
4, 190200, Note_on_c, 2, 54, 95
4, 190318, Note_off_c, 2, 47, 80
4, 190318, Note_off_c, 2, 54, 80
4, 190320, Note_on_c, 2, 47, 95
4, 190320, Note_on_c, 2, 54, 95
4, 190438, Note_off_c, 2, 47, 80
4, 190438, Note_off_c, 2, 54, 80
4, 190680, Note_on_c, 2, 47, 95
4, 190680, Note_on_c, 2, 54, 95
4, 190798, Note_off_c, 2, 47, 80
4, 190798, Note_off_c, 2, 54, 80
4, 190920, Note_on_c, 2, 47, 95
4, 190920, Note_on_c, 2, 54, 95
4, 191038, Note_off_c, 2, 47, 80
4, 191038, Note_off_c, 2, 54, 80
4, 191040, Note_on_c, 2, 47, 95
4, 191040, Note_on_c, 2, 54, 95
4, 191158, Note_off_c, 2, 47, 80
4, 191158, Note_off_c, 2, 54, 80
4, 191160, Note_on_c, 2, 47, 95
4, 191160, Note_on_c, 2, 54, 95
4, 191278, Note_off_c, 2, 47, 80
4, 191278, Note_off_c, 2, 54, 80
4, 191280, Note_on_c, 2, 47, 95
4, 191280, Note_on_c, 2, 54, 95
4, 191398, Note_off_c, 2, 47, 80
4, 191398, Note_off_c, 2, 54, 80
4, 191400, Note_on_c, 2, 45, 95
4, 191518, Note_off_c, 2, 45, 80
4, 191520, Note_on_c, 2, 45, 95
4, 191520, Note_on_c, 2, 52, 95
4, 191998, Note_off_c, 2, 45, 80
4, 191998, Note_off_c, 2, 52, 80
4, 192000, Note_on_c, 2, 47, 95
4, 192000, Note_on_c, 2, 54, 95
4, 192118, Note_off_c, 2, 47, 80
4, 192118, Note_off_c, 2, 54, 80
4, 192120, Note_on_c, 2, 47, 95
4, 192120, Note_on_c, 2, 54, 95
4, 192238, Note_off_c, 2, 47, 80
4, 192238, Note_off_c, 2, 54, 80
4, 192240, Note_on_c, 2, 47, 95
4, 192240, Note_on_c, 2, 54, 95
4, 192358, Note_off_c, 2, 47, 80
4, 192358, Note_off_c, 2, 54, 80
4, 192600, Note_on_c, 2, 47, 95
4, 192600, Note_on_c, 2, 54, 95
4, 192718, Note_off_c, 2, 47, 80
4, 192718, Note_off_c, 2, 54, 80
4, 192840, Note_on_c, 2, 47, 95
4, 192840, Note_on_c, 2, 54, 95
4, 192958, Note_off_c, 2, 47, 80
4, 192958, Note_off_c, 2, 54, 80
4, 192960, Note_on_c, 2, 47, 95
4, 192960, Note_on_c, 2, 54, 95
4, 193078, Note_off_c, 2, 47, 80
4, 193078, Note_off_c, 2, 54, 80
4, 193080, Note_on_c, 2, 47, 95
4, 193080, Note_on_c, 2, 54, 95
4, 193198, Note_off_c, 2, 47, 80
4, 193198, Note_off_c, 2, 54, 80
4, 193200, Note_on_c, 2, 47, 95
4, 193200, Note_on_c, 2, 54, 95
4, 193318, Note_off_c, 2, 47, 80
4, 193318, Note_off_c, 2, 54, 80
4, 193320, Note_on_c, 2, 45, 95
4, 193438, Note_off_c, 2, 45, 80
4, 193440, Note_on_c, 2, 45, 95
4, 193440, Note_on_c, 2, 52, 95
4, 193678, Note_off_c, 2, 45, 80
4, 193678, Note_off_c, 2, 52, 80
4, 193680, Note_on_c, 2, 48, 95
4, 193680, Note_on_c, 2, 55, 95
4, 193798, Note_off_c, 2, 48, 80
4, 193798, Note_off_c, 2, 55, 80
4, 193800, Note_on_c, 2, 45, 95
4, 193918, Note_off_c, 2, 45, 80
4, 193920, Note_on_c, 2, 47, 95
4, 193920, Note_on_c, 2, 54, 95
4, 194038, Note_off_c, 2, 47, 80
4, 194038, Note_off_c, 2, 54, 80
4, 194040, Note_on_c, 2, 47, 95
4, 194040, Note_on_c, 2, 54, 95
4, 194158, Note_off_c, 2, 47, 80
4, 194158, Note_off_c, 2, 54, 80
4, 194160, Note_on_c, 2, 47, 95
4, 194160, Note_on_c, 2, 54, 95
4, 194278, Note_off_c, 2, 47, 80
4, 194278, Note_off_c, 2, 54, 80
4, 194520, Note_on_c, 2, 47, 95
4, 194520, Note_on_c, 2, 54, 95
4, 194638, Note_off_c, 2, 47, 80
4, 194638, Note_off_c, 2, 54, 80
4, 194760, Note_on_c, 2, 47, 95
4, 194760, Note_on_c, 2, 54, 95
4, 194878, Note_off_c, 2, 47, 80
4, 194878, Note_off_c, 2, 54, 80
4, 194880, Note_on_c, 2, 47, 95
4, 194880, Note_on_c, 2, 54, 95
4, 194998, Note_off_c, 2, 47, 80
4, 194998, Note_off_c, 2, 54, 80
4, 195000, Note_on_c, 2, 47, 95
4, 195000, Note_on_c, 2, 54, 95
4, 195118, Note_off_c, 2, 47, 80
4, 195118, Note_off_c, 2, 54, 80
4, 195120, Note_on_c, 2, 47, 95
4, 195120, Note_on_c, 2, 54, 95
4, 195238, Note_off_c, 2, 47, 80
4, 195238, Note_off_c, 2, 54, 80
4, 195840, Note_on_c, 2, 42, 95
4, 195840, Note_on_c, 2, 49, 95
4, 195958, Note_off_c, 2, 42, 80
4, 195958, Note_off_c, 2, 49, 80
4, 195960, Note_on_c, 2, 42, 95
4, 195960, Note_on_c, 2, 49, 95
4, 196078, Note_off_c, 2, 42, 80
4, 196078, Note_off_c, 2, 49, 80
4, 196080, Note_on_c, 2, 42, 95
4, 196080, Note_on_c, 2, 49, 95
4, 196198, Note_off_c, 2, 42, 80
4, 196198, Note_off_c, 2, 49, 80
4, 196440, Note_on_c, 2, 42, 95
4, 196440, Note_on_c, 2, 49, 95
4, 196558, Note_off_c, 2, 42, 80
4, 196558, Note_off_c, 2, 49, 80
4, 196680, Note_on_c, 2, 42, 95
4, 196680, Note_on_c, 2, 49, 95
4, 196798, Note_off_c, 2, 42, 80
4, 196798, Note_off_c, 2, 49, 80
4, 196800, Note_on_c, 2, 42, 95
4, 196800, Note_on_c, 2, 49, 95
4, 196918, Note_off_c, 2, 42, 80
4, 196918, Note_off_c, 2, 49, 80
4, 196920, Note_on_c, 2, 42, 95
4, 196920, Note_on_c, 2, 49, 95
4, 197038, Note_off_c, 2, 42, 80
4, 197038, Note_off_c, 2, 49, 80
4, 197040, Note_on_c, 2, 42, 95
4, 197040, Note_on_c, 2, 49, 95
4, 197158, Note_off_c, 2, 42, 80
4, 197158, Note_off_c, 2, 49, 80
4, 197160, Note_on_c, 2, 40, 95
4, 197278, Note_off_c, 2, 40, 80
4, 197280, Note_on_c, 2, 40, 95
4, 197280, Note_on_c, 2, 47, 95
4, 197518, Note_off_c, 2, 40, 80
4, 197518, Note_off_c, 2, 47, 80
4, 197520, Note_on_c, 2, 43, 95
4, 197520, Note_on_c, 2, 50, 95
4, 197638, Note_off_c, 2, 43, 80
4, 197638, Note_off_c, 2, 50, 80
4, 197640, Note_on_c, 2, 40, 95
4, 197758, Note_off_c, 2, 40, 80
4, 197760, Note_on_c, 2, 42, 95
4, 197760, Note_on_c, 2, 49, 95
4, 197878, Note_off_c, 2, 42, 80
4, 197878, Note_off_c, 2, 49, 80
4, 197880, Note_on_c, 2, 42, 95
4, 197880, Note_on_c, 2, 49, 95
4, 197998, Note_off_c, 2, 42, 80
4, 197998, Note_off_c, 2, 49, 80
4, 198000, Note_on_c, 2, 42, 95
4, 198000, Note_on_c, 2, 49, 95
4, 198118, Note_off_c, 2, 42, 80
4, 198118, Note_off_c, 2, 49, 80
4, 198360, Note_on_c, 2, 42, 95
4, 198360, Note_on_c, 2, 49, 95
4, 198478, Note_off_c, 2, 42, 80
4, 198478, Note_off_c, 2, 49, 80
4, 198600, Note_on_c, 2, 42, 95
4, 198600, Note_on_c, 2, 49, 95
4, 198718, Note_off_c, 2, 42, 80
4, 198718, Note_off_c, 2, 49, 80
4, 198720, Note_on_c, 2, 42, 95
4, 198720, Note_on_c, 2, 49, 95
4, 198838, Note_off_c, 2, 42, 80
4, 198838, Note_off_c, 2, 49, 80
4, 198840, Note_on_c, 2, 42, 95
4, 198840, Note_on_c, 2, 49, 95
4, 198958, Note_off_c, 2, 42, 80
4, 198958, Note_off_c, 2, 49, 80
4, 198960, Note_on_c, 2, 42, 95
4, 198960, Note_on_c, 2, 49, 95
4, 199078, Note_off_c, 2, 42, 80
4, 199078, Note_off_c, 2, 49, 80
4, 199080, Note_on_c, 2, 40, 95
4, 199198, Note_off_c, 2, 40, 80
4, 199200, Note_on_c, 2, 40, 95
4, 199200, Note_on_c, 2, 47, 95
4, 199678, Note_off_c, 2, 40, 80
4, 199678, Note_off_c, 2, 47, 80
4, 199680, Note_on_c, 2, 42, 95
4, 199680, Note_on_c, 2, 49, 95
4, 199798, Note_off_c, 2, 42, 80
4, 199798, Note_off_c, 2, 49, 80
4, 199800, Note_on_c, 2, 42, 95
4, 199800, Note_on_c, 2, 49, 95
4, 199918, Note_off_c, 2, 42, 80
4, 199918, Note_off_c, 2, 49, 80
4, 199920, Note_on_c, 2, 42, 95
4, 199920, Note_on_c, 2, 49, 95
4, 200038, Note_off_c, 2, 42, 80
4, 200038, Note_off_c, 2, 49, 80
4, 200280, Note_on_c, 2, 42, 95
4, 200280, Note_on_c, 2, 49, 95
4, 200398, Note_off_c, 2, 42, 80
4, 200398, Note_off_c, 2, 49, 80
4, 200520, Note_on_c, 2, 42, 95
4, 200520, Note_on_c, 2, 49, 95
4, 200638, Note_off_c, 2, 42, 80
4, 200638, Note_off_c, 2, 49, 80
4, 200640, Note_on_c, 2, 42, 95
4, 200640, Note_on_c, 2, 49, 95
4, 200758, Note_off_c, 2, 42, 80
4, 200758, Note_off_c, 2, 49, 80
4, 200760, Note_on_c, 2, 42, 95
4, 200760, Note_on_c, 2, 49, 95
4, 200878, Note_off_c, 2, 42, 80
4, 200878, Note_off_c, 2, 49, 80
4, 200880, Note_on_c, 2, 42, 95
4, 200880, Note_on_c, 2, 49, 95
4, 200998, Note_off_c, 2, 42, 80
4, 200998, Note_off_c, 2, 49, 80
4, 201000, Note_on_c, 2, 40, 95
4, 201118, Note_off_c, 2, 40, 80
4, 201120, Note_on_c, 2, 40, 95
4, 201120, Note_on_c, 2, 47, 95
4, 201358, Note_off_c, 2, 40, 80
4, 201358, Note_off_c, 2, 47, 80
4, 201360, Note_on_c, 2, 43, 95
4, 201360, Note_on_c, 2, 50, 95
4, 201478, Note_off_c, 2, 43, 80
4, 201478, Note_off_c, 2, 50, 80
4, 201480, Note_on_c, 2, 40, 95
4, 201598, Note_off_c, 2, 40, 80
4, 201600, Note_on_c, 2, 42, 95
4, 201600, Note_on_c, 2, 49, 95
4, 201718, Note_off_c, 2, 42, 80
4, 201718, Note_off_c, 2, 49, 80
4, 201720, Note_on_c, 2, 42, 95
4, 201720, Note_on_c, 2, 49, 95
4, 201838, Note_off_c, 2, 42, 80
4, 201838, Note_off_c, 2, 49, 80
4, 201840, Note_on_c, 2, 42, 95
4, 201840, Note_on_c, 2, 49, 95
4, 201958, Note_off_c, 2, 42, 80
4, 201958, Note_off_c, 2, 49, 80
4, 202200, Note_on_c, 2, 42, 95
4, 202200, Note_on_c, 2, 49, 95
4, 202318, Note_off_c, 2, 42, 80
4, 202318, Note_off_c, 2, 49, 80
4, 202440, Note_on_c, 2, 42, 95
4, 202440, Note_on_c, 2, 49, 95
4, 202558, Note_off_c, 2, 42, 80
4, 202558, Note_off_c, 2, 49, 80
4, 202560, Note_on_c, 2, 42, 95
4, 202560, Note_on_c, 2, 49, 95
4, 202678, Note_off_c, 2, 42, 80
4, 202678, Note_off_c, 2, 49, 80
4, 202680, Note_on_c, 2, 42, 95
4, 202680, Note_on_c, 2, 49, 95
4, 202798, Note_off_c, 2, 42, 80
4, 202798, Note_off_c, 2, 49, 80
4, 202800, Note_on_c, 2, 42, 95
4, 202800, Note_on_c, 2, 49, 95
4, 202918, Note_off_c, 2, 42, 80
4, 202918, Note_off_c, 2, 49, 80
4, 203520, Note_on_c, 2, 47, 95
4, 203520, Note_on_c, 2, 54, 95
4, 203638, Note_off_c, 2, 47, 80
4, 203638, Note_off_c, 2, 54, 80
4, 203640, Note_on_c, 2, 47, 95
4, 203640, Note_on_c, 2, 54, 95
4, 203758, Note_off_c, 2, 47, 80
4, 203758, Note_off_c, 2, 54, 80
4, 203760, Note_on_c, 2, 47, 95
4, 203760, Note_on_c, 2, 54, 95
4, 203878, Note_off_c, 2, 47, 80
4, 203878, Note_off_c, 2, 54, 80
4, 204120, Note_on_c, 2, 47, 95
4, 204120, Note_on_c, 2, 54, 95
4, 204238, Note_off_c, 2, 47, 80
4, 204238, Note_off_c, 2, 54, 80
4, 204360, Note_on_c, 2, 47, 95
4, 204360, Note_on_c, 2, 54, 95
4, 204478, Note_off_c, 2, 47, 80
4, 204478, Note_off_c, 2, 54, 80
4, 204480, Note_on_c, 2, 47, 95
4, 204480, Note_on_c, 2, 54, 95
4, 204598, Note_off_c, 2, 47, 80
4, 204598, Note_off_c, 2, 54, 80
4, 204600, Note_on_c, 2, 47, 95
4, 204600, Note_on_c, 2, 54, 95
4, 204718, Note_off_c, 2, 47, 80
4, 204718, Note_off_c, 2, 54, 80
4, 204720, Note_on_c, 2, 47, 95
4, 204720, Note_on_c, 2, 54, 95
4, 204838, Note_off_c, 2, 47, 80
4, 204838, Note_off_c, 2, 54, 80
4, 204840, Note_on_c, 2, 45, 95
4, 204958, Note_off_c, 2, 45, 80
4, 204960, Note_on_c, 2, 45, 95
4, 204960, Note_on_c, 2, 52, 95
4, 205198, Note_off_c, 2, 45, 80
4, 205198, Note_off_c, 2, 52, 80
4, 205200, Note_on_c, 2, 48, 95
4, 205200, Note_on_c, 2, 55, 95
4, 205318, Note_off_c, 2, 48, 80
4, 205318, Note_off_c, 2, 55, 80
4, 205320, Note_on_c, 2, 45, 95
4, 205438, Note_off_c, 2, 45, 80
4, 205440, Note_on_c, 2, 47, 95
4, 205440, Note_on_c, 2, 54, 95
4, 205558, Note_off_c, 2, 47, 80
4, 205558, Note_off_c, 2, 54, 80
4, 205560, Note_on_c, 2, 47, 95
4, 205560, Note_on_c, 2, 54, 95
4, 205678, Note_off_c, 2, 47, 80
4, 205678, Note_off_c, 2, 54, 80
4, 205680, Note_on_c, 2, 47, 95
4, 205680, Note_on_c, 2, 54, 95
4, 205798, Note_off_c, 2, 47, 80
4, 205798, Note_off_c, 2, 54, 80
4, 206040, Note_on_c, 2, 47, 95
4, 206040, Note_on_c, 2, 54, 95
4, 206158, Note_off_c, 2, 47, 80
4, 206158, Note_off_c, 2, 54, 80
4, 206280, Note_on_c, 2, 47, 95
4, 206280, Note_on_c, 2, 54, 95
4, 206398, Note_off_c, 2, 47, 80
4, 206398, Note_off_c, 2, 54, 80
4, 206400, Note_on_c, 2, 47, 95
4, 206400, Note_on_c, 2, 54, 95
4, 206518, Note_off_c, 2, 47, 80
4, 206518, Note_off_c, 2, 54, 80
4, 206520, Note_on_c, 2, 47, 95
4, 206520, Note_on_c, 2, 54, 95
4, 206638, Note_off_c, 2, 47, 80
4, 206638, Note_off_c, 2, 54, 80
4, 206640, Note_on_c, 2, 47, 95
4, 206640, Note_on_c, 2, 54, 95
4, 206758, Note_off_c, 2, 47, 80
4, 206758, Note_off_c, 2, 54, 80
4, 206760, Note_on_c, 2, 45, 95
4, 206878, Note_off_c, 2, 45, 80
4, 206880, Note_on_c, 2, 45, 95
4, 206880, Note_on_c, 2, 52, 95
4, 207358, Note_off_c, 2, 45, 80
4, 207358, Note_off_c, 2, 52, 80
4, 207360, Note_on_c, 2, 47, 95
4, 207360, Note_on_c, 2, 54, 95
4, 207478, Note_off_c, 2, 47, 80
4, 207478, Note_off_c, 2, 54, 80
4, 207480, Note_on_c, 2, 47, 95
4, 207480, Note_on_c, 2, 54, 95
4, 207598, Note_off_c, 2, 47, 80
4, 207598, Note_off_c, 2, 54, 80
4, 207600, Note_on_c, 2, 47, 95
4, 207600, Note_on_c, 2, 54, 95
4, 207718, Note_off_c, 2, 47, 80
4, 207718, Note_off_c, 2, 54, 80
4, 207960, Note_on_c, 2, 47, 95
4, 207960, Note_on_c, 2, 54, 95
4, 208078, Note_off_c, 2, 47, 80
4, 208078, Note_off_c, 2, 54, 80
4, 208200, Note_on_c, 2, 47, 95
4, 208200, Note_on_c, 2, 54, 95
4, 208318, Note_off_c, 2, 47, 80
4, 208318, Note_off_c, 2, 54, 80
4, 208320, Note_on_c, 2, 47, 95
4, 208320, Note_on_c, 2, 54, 95
4, 208438, Note_off_c, 2, 47, 80
4, 208438, Note_off_c, 2, 54, 80
4, 208440, Note_on_c, 2, 47, 95
4, 208440, Note_on_c, 2, 54, 95
4, 208558, Note_off_c, 2, 47, 80
4, 208558, Note_off_c, 2, 54, 80
4, 208560, Note_on_c, 2, 47, 95
4, 208560, Note_on_c, 2, 54, 95
4, 208678, Note_off_c, 2, 47, 80
4, 208678, Note_off_c, 2, 54, 80
4, 208680, Note_on_c, 2, 45, 95
4, 208798, Note_off_c, 2, 45, 80
4, 208800, Note_on_c, 2, 45, 95
4, 208800, Note_on_c, 2, 52, 95
4, 209038, Note_off_c, 2, 45, 80
4, 209038, Note_off_c, 2, 52, 80
4, 209040, Note_on_c, 2, 48, 95
4, 209040, Note_on_c, 2, 55, 95
4, 209158, Note_off_c, 2, 48, 80
4, 209158, Note_off_c, 2, 55, 80
4, 209160, Note_on_c, 2, 45, 95
4, 209278, Note_off_c, 2, 45, 80
4, 209280, Note_on_c, 2, 47, 95
4, 209280, Note_on_c, 2, 54, 95
4, 209398, Note_off_c, 2, 47, 80
4, 209398, Note_off_c, 2, 54, 80
4, 209400, Note_on_c, 2, 47, 95
4, 209400, Note_on_c, 2, 54, 95
4, 209518, Note_off_c, 2, 47, 80
4, 209518, Note_off_c, 2, 54, 80
4, 209520, Note_on_c, 2, 47, 95
4, 209520, Note_on_c, 2, 54, 95
4, 209638, Note_off_c, 2, 47, 80
4, 209638, Note_off_c, 2, 54, 80
4, 209880, Note_on_c, 2, 47, 95
4, 209880, Note_on_c, 2, 54, 95
4, 209998, Note_off_c, 2, 47, 80
4, 209998, Note_off_c, 2, 54, 80
4, 210120, Note_on_c, 2, 47, 95
4, 210120, Note_on_c, 2, 54, 95
4, 210238, Note_off_c, 2, 47, 80
4, 210238, Note_off_c, 2, 54, 80
4, 210240, Note_on_c, 2, 47, 95
4, 210240, Note_on_c, 2, 54, 95
4, 210358, Note_off_c, 2, 47, 80
4, 210358, Note_off_c, 2, 54, 80
4, 210360, Note_on_c, 2, 47, 95
4, 210360, Note_on_c, 2, 54, 95
4, 210478, Note_off_c, 2, 47, 80
4, 210478, Note_off_c, 2, 54, 80
4, 210480, Note_on_c, 2, 47, 95
4, 210480, Note_on_c, 2, 54, 95
4, 210598, Note_off_c, 2, 47, 80
4, 210598, Note_off_c, 2, 54, 80
4, 211200, Note_on_c, 2, 42, 95
4, 211200, Note_on_c, 2, 49, 95
4, 211318, Note_off_c, 2, 42, 80
4, 211318, Note_off_c, 2, 49, 80
4, 211320, Note_on_c, 2, 42, 95
4, 211320, Note_on_c, 2, 49, 95
4, 211438, Note_off_c, 2, 42, 80
4, 211438, Note_off_c, 2, 49, 80
4, 211440, Note_on_c, 2, 42, 95
4, 211440, Note_on_c, 2, 49, 95
4, 211558, Note_off_c, 2, 42, 80
4, 211558, Note_off_c, 2, 49, 80
4, 211800, Note_on_c, 2, 42, 95
4, 211800, Note_on_c, 2, 49, 95
4, 211918, Note_off_c, 2, 42, 80
4, 211918, Note_off_c, 2, 49, 80
4, 212040, Note_on_c, 2, 42, 95
4, 212040, Note_on_c, 2, 49, 95
4, 212158, Note_off_c, 2, 42, 80
4, 212158, Note_off_c, 2, 49, 80
4, 212160, Note_on_c, 2, 42, 95
4, 212160, Note_on_c, 2, 49, 95
4, 212278, Note_off_c, 2, 42, 80
4, 212278, Note_off_c, 2, 49, 80
4, 212280, Note_on_c, 2, 42, 95
4, 212280, Note_on_c, 2, 49, 95
4, 212398, Note_off_c, 2, 42, 80
4, 212398, Note_off_c, 2, 49, 80
4, 212400, Note_on_c, 2, 42, 95
4, 212400, Note_on_c, 2, 49, 95
4, 212518, Note_off_c, 2, 42, 80
4, 212518, Note_off_c, 2, 49, 80
4, 212520, Note_on_c, 2, 40, 95
4, 212638, Note_off_c, 2, 40, 80
4, 212640, Note_on_c, 2, 40, 95
4, 212640, Note_on_c, 2, 47, 95
4, 212878, Note_off_c, 2, 40, 80
4, 212878, Note_off_c, 2, 47, 80
4, 212880, Note_on_c, 2, 43, 95
4, 212880, Note_on_c, 2, 50, 95
4, 212998, Note_off_c, 2, 43, 80
4, 212998, Note_off_c, 2, 50, 80
4, 213000, Note_on_c, 2, 40, 95
4, 213118, Note_off_c, 2, 40, 80
4, 213120, Note_on_c, 2, 42, 95
4, 213120, Note_on_c, 2, 49, 95
4, 213238, Note_off_c, 2, 42, 80
4, 213238, Note_off_c, 2, 49, 80
4, 213240, Note_on_c, 2, 42, 95
4, 213240, Note_on_c, 2, 49, 95
4, 213358, Note_off_c, 2, 42, 80
4, 213358, Note_off_c, 2, 49, 80
4, 213360, Note_on_c, 2, 42, 95
4, 213360, Note_on_c, 2, 49, 95
4, 213478, Note_off_c, 2, 42, 80
4, 213478, Note_off_c, 2, 49, 80
4, 213720, Note_on_c, 2, 42, 95
4, 213720, Note_on_c, 2, 49, 95
4, 213838, Note_off_c, 2, 42, 80
4, 213838, Note_off_c, 2, 49, 80
4, 213960, Note_on_c, 2, 42, 95
4, 213960, Note_on_c, 2, 49, 95
4, 214078, Note_off_c, 2, 42, 80
4, 214078, Note_off_c, 2, 49, 80
4, 214080, Note_on_c, 2, 42, 95
4, 214080, Note_on_c, 2, 49, 95
4, 214198, Note_off_c, 2, 42, 80
4, 214198, Note_off_c, 2, 49, 80
4, 214200, Note_on_c, 2, 42, 95
4, 214200, Note_on_c, 2, 49, 95
4, 214318, Note_off_c, 2, 42, 80
4, 214318, Note_off_c, 2, 49, 80
4, 214320, Note_on_c, 2, 42, 95
4, 214320, Note_on_c, 2, 49, 95
4, 214438, Note_off_c, 2, 42, 80
4, 214438, Note_off_c, 2, 49, 80
4, 214440, Note_on_c, 2, 40, 95
4, 214558, Note_off_c, 2, 40, 80
4, 214560, Note_on_c, 2, 40, 95
4, 214560, Note_on_c, 2, 47, 95
4, 215038, Note_off_c, 2, 40, 80
4, 215038, Note_off_c, 2, 47, 80
4, 215040, Note_on_c, 2, 42, 95
4, 215040, Note_on_c, 2, 49, 95
4, 215158, Note_off_c, 2, 42, 80
4, 215158, Note_off_c, 2, 49, 80
4, 215160, Note_on_c, 2, 42, 95
4, 215160, Note_on_c, 2, 49, 95
4, 215278, Note_off_c, 2, 42, 80
4, 215278, Note_off_c, 2, 49, 80
4, 215280, Note_on_c, 2, 42, 95
4, 215280, Note_on_c, 2, 49, 95
4, 215398, Note_off_c, 2, 42, 80
4, 215398, Note_off_c, 2, 49, 80
4, 215640, Note_on_c, 2, 42, 95
4, 215640, Note_on_c, 2, 49, 95
4, 215758, Note_off_c, 2, 42, 80
4, 215758, Note_off_c, 2, 49, 80
4, 215880, Note_on_c, 2, 42, 95
4, 215880, Note_on_c, 2, 49, 95
4, 215998, Note_off_c, 2, 42, 80
4, 215998, Note_off_c, 2, 49, 80
4, 216000, Note_on_c, 2, 42, 95
4, 216000, Note_on_c, 2, 49, 95
4, 216118, Note_off_c, 2, 42, 80
4, 216118, Note_off_c, 2, 49, 80
4, 216120, Note_on_c, 2, 42, 95
4, 216120, Note_on_c, 2, 49, 95
4, 216238, Note_off_c, 2, 42, 80
4, 216238, Note_off_c, 2, 49, 80
4, 216240, Note_on_c, 2, 42, 95
4, 216240, Note_on_c, 2, 49, 95
4, 216358, Note_off_c, 2, 42, 80
4, 216358, Note_off_c, 2, 49, 80
4, 216360, Note_on_c, 2, 40, 95
4, 216478, Note_off_c, 2, 40, 80
4, 216480, Note_on_c, 2, 40, 95
4, 216480, Note_on_c, 2, 47, 95
4, 216718, Note_off_c, 2, 40, 80
4, 216718, Note_off_c, 2, 47, 80
4, 216720, Note_on_c, 2, 43, 95
4, 216720, Note_on_c, 2, 50, 95
4, 216838, Note_off_c, 2, 43, 80
4, 216838, Note_off_c, 2, 50, 80
4, 216840, Note_on_c, 2, 40, 95
4, 216958, Note_off_c, 2, 40, 80
4, 216960, Note_on_c, 2, 42, 95
4, 216960, Note_on_c, 2, 49, 95
4, 217078, Note_off_c, 2, 42, 80
4, 217078, Note_off_c, 2, 49, 80
4, 217080, Note_on_c, 2, 42, 95
4, 217080, Note_on_c, 2, 49, 95
4, 217198, Note_off_c, 2, 42, 80
4, 217198, Note_off_c, 2, 49, 80
4, 217200, Note_on_c, 2, 42, 95
4, 217200, Note_on_c, 2, 49, 95
4, 217318, Note_off_c, 2, 42, 80
4, 217318, Note_off_c, 2, 49, 80
4, 217560, Note_on_c, 2, 42, 95
4, 217560, Note_on_c, 2, 49, 95
4, 217678, Note_off_c, 2, 42, 80
4, 217678, Note_off_c, 2, 49, 80
4, 217800, Note_on_c, 2, 42, 95
4, 217800, Note_on_c, 2, 49, 95
4, 217918, Note_off_c, 2, 42, 80
4, 217918, Note_off_c, 2, 49, 80
4, 217920, Note_on_c, 2, 42, 95
4, 217920, Note_on_c, 2, 49, 95
4, 218038, Note_off_c, 2, 42, 80
4, 218038, Note_off_c, 2, 49, 80
4, 218040, Note_on_c, 2, 42, 95
4, 218040, Note_on_c, 2, 49, 95
4, 218158, Note_off_c, 2, 42, 80
4, 218158, Note_off_c, 2, 49, 80
4, 218160, Note_on_c, 2, 42, 95
4, 218160, Note_on_c, 2, 49, 95
4, 218278, Note_off_c, 2, 42, 80
4, 218278, Note_off_c, 2, 49, 80
4, 218880, Program_c, 2, 25
4, 218880, Note_on_c, 2, 47, 95
4, 218890, Note_on_c, 2, 54, 95
4, 218900, Note_on_c, 2, 59, 95
4, 218910, Note_on_c, 2, 62, 95
4, 218920, Note_on_c, 2, 66, 95
4, 219238, Note_off_c, 2, 59, 80
4, 219238, Note_off_c, 2, 47, 80
4, 219238, Note_off_c, 2, 54, 80
4, 219238, Note_off_c, 2, 62, 80
4, 219238, Note_off_c, 2, 66, 80
4, 219240, Note_on_c, 2, 47, 95
4, 219250, Note_on_c, 2, 54, 95
4, 219260, Note_on_c, 2, 59, 95
4, 219270, Note_on_c, 2, 62, 95
4, 219280, Note_on_c, 2, 66, 95
4, 219358, Note_off_c, 2, 59, 80
4, 219358, Note_off_c, 2, 47, 80
4, 219358, Note_off_c, 2, 54, 80
4, 219358, Note_off_c, 2, 62, 80
4, 219358, Note_off_c, 2, 66, 80
4, 219360, Note_on_c, 2, 66, 95
4, 219370, Note_on_c, 2, 62, 95
4, 219380, Note_on_c, 2, 59, 95
4, 219390, Note_on_c, 2, 54, 95
4, 219400, Note_on_c, 2, 47, 95
4, 219598, Note_off_c, 2, 59, 80
4, 219598, Note_off_c, 2, 66, 80
4, 219598, Note_off_c, 2, 62, 80
4, 219598, Note_off_c, 2, 54, 80
4, 219598, Note_off_c, 2, 47, 80
4, 219600, Note_on_c, 2, 47, 95
4, 219610, Note_on_c, 2, 54, 95
4, 219620, Note_on_c, 2, 59, 95
4, 219630, Note_on_c, 2, 62, 95
4, 219640, Note_on_c, 2, 66, 95
4, 219958, Note_off_c, 2, 59, 80
4, 219958, Note_off_c, 2, 47, 80
4, 219958, Note_off_c, 2, 54, 80
4, 219958, Note_off_c, 2, 62, 80
4, 219958, Note_off_c, 2, 66, 80
4, 219960, Note_on_c, 2, 47, 95
4, 219970, Note_on_c, 2, 54, 95
4, 219980, Note_on_c, 2, 59, 95
4, 219990, Note_on_c, 2, 62, 95
4, 220000, Note_on_c, 2, 66, 95
4, 220078, Note_off_c, 2, 59, 80
4, 220078, Note_off_c, 2, 47, 80
4, 220078, Note_off_c, 2, 54, 80
4, 220078, Note_off_c, 2, 62, 80
4, 220078, Note_off_c, 2, 66, 80
4, 220080, Note_on_c, 2, 66, 95
4, 220090, Note_on_c, 2, 62, 95
4, 220100, Note_on_c, 2, 59, 95
4, 220110, Note_on_c, 2, 54, 95
4, 220120, Note_on_c, 2, 47, 95
4, 220318, Note_off_c, 2, 59, 80
4, 220318, Note_off_c, 2, 66, 80
4, 220318, Note_off_c, 2, 62, 80
4, 220318, Note_off_c, 2, 54, 80
4, 220318, Note_off_c, 2, 47, 80
4, 220320, Note_on_c, 2, 47, 95
4, 220330, Note_on_c, 2, 54, 95
4, 220340, Note_on_c, 2, 59, 95
4, 220350, Note_on_c, 2, 62, 95
4, 220360, Note_on_c, 2, 66, 95
4, 220558, Note_off_c, 2, 59, 80
4, 220558, Note_off_c, 2, 47, 80
4, 220558, Note_off_c, 2, 54, 80
4, 220558, Note_off_c, 2, 62, 80
4, 220558, Note_off_c, 2, 66, 80
4, 220560, Note_on_c, 2, 47, 95
4, 220570, Note_on_c, 2, 54, 95
4, 220580, Note_on_c, 2, 59, 95
4, 220590, Note_on_c, 2, 62, 95
4, 220600, Note_on_c, 2, 66, 95
4, 220678, Note_off_c, 2, 59, 80
4, 220678, Note_off_c, 2, 47, 80
4, 220678, Note_off_c, 2, 54, 80
4, 220678, Note_off_c, 2, 62, 80
4, 220678, Note_off_c, 2, 66, 80
4, 220680, Note_on_c, 2, 66, 95
4, 220690, Note_on_c, 2, 62, 95
4, 220700, Note_on_c, 2, 59, 95
4, 220710, Note_on_c, 2, 54, 95
4, 220720, Note_on_c, 2, 47, 95
4, 220798, Note_off_c, 2, 59, 80
4, 220798, Note_off_c, 2, 66, 80
4, 220798, Note_off_c, 2, 62, 80
4, 220798, Note_off_c, 2, 54, 80
4, 220798, Note_off_c, 2, 47, 80
4, 220800, Note_on_c, 2, 43, 95
4, 220810, Note_on_c, 2, 50, 95
4, 220820, Note_on_c, 2, 55, 95
4, 220830, Note_on_c, 2, 62, 95
4, 220840, Note_on_c, 2, 67, 95
4, 221158, Note_off_c, 2, 55, 80
4, 221158, Note_off_c, 2, 43, 80
4, 221158, Note_off_c, 2, 50, 80
4, 221158, Note_off_c, 2, 62, 80
4, 221158, Note_off_c, 2, 67, 80
4, 221160, Note_on_c, 2, 43, 95
4, 221170, Note_on_c, 2, 50, 95
4, 221180, Note_on_c, 2, 55, 95
4, 221190, Note_on_c, 2, 62, 95
4, 221200, Note_on_c, 2, 67, 95
4, 221278, Note_off_c, 2, 55, 80
4, 221278, Note_off_c, 2, 43, 80
4, 221278, Note_off_c, 2, 50, 80
4, 221278, Note_off_c, 2, 62, 80
4, 221278, Note_off_c, 2, 67, 80
4, 221280, Note_on_c, 2, 67, 95
4, 221290, Note_on_c, 2, 62, 95
4, 221300, Note_on_c, 2, 55, 95
4, 221310, Note_on_c, 2, 50, 95
4, 221320, Note_on_c, 2, 43, 95
4, 221518, Note_off_c, 2, 55, 80
4, 221518, Note_off_c, 2, 67, 80
4, 221518, Note_off_c, 2, 62, 80
4, 221518, Note_off_c, 2, 50, 80
4, 221518, Note_off_c, 2, 43, 80
4, 221520, Note_on_c, 2, 43, 95
4, 221530, Note_on_c, 2, 50, 95
4, 221540, Note_on_c, 2, 55, 95
4, 221550, Note_on_c, 2, 62, 95
4, 221560, Note_on_c, 2, 67, 95
4, 221878, Note_off_c, 2, 55, 80
4, 221878, Note_off_c, 2, 43, 80
4, 221878, Note_off_c, 2, 50, 80
4, 221878, Note_off_c, 2, 62, 80
4, 221878, Note_off_c, 2, 67, 80
4, 221880, Note_on_c, 2, 43, 95
4, 221890, Note_on_c, 2, 50, 95
4, 221900, Note_on_c, 2, 55, 95
4, 221910, Note_on_c, 2, 62, 95
4, 221920, Note_on_c, 2, 67, 95
4, 221998, Note_off_c, 2, 55, 80
4, 221998, Note_off_c, 2, 43, 80
4, 221998, Note_off_c, 2, 50, 80
4, 221998, Note_off_c, 2, 62, 80
4, 221998, Note_off_c, 2, 67, 80
4, 222000, Note_on_c, 2, 67, 95
4, 222010, Note_on_c, 2, 62, 95
4, 222020, Note_on_c, 2, 55, 95
4, 222030, Note_on_c, 2, 50, 95
4, 222040, Note_on_c, 2, 43, 95
4, 222238, Note_off_c, 2, 55, 80
4, 222238, Note_off_c, 2, 67, 80
4, 222238, Note_off_c, 2, 62, 80
4, 222238, Note_off_c, 2, 50, 80
4, 222238, Note_off_c, 2, 43, 80
4, 222240, Note_on_c, 2, 43, 95
4, 222250, Note_on_c, 2, 50, 95
4, 222260, Note_on_c, 2, 55, 95
4, 222270, Note_on_c, 2, 62, 95
4, 222280, Note_on_c, 2, 67, 95
4, 222478, Note_off_c, 2, 55, 80
4, 222478, Note_off_c, 2, 43, 80
4, 222478, Note_off_c, 2, 50, 80
4, 222478, Note_off_c, 2, 62, 80
4, 222478, Note_off_c, 2, 67, 80
4, 222480, Note_on_c, 2, 43, 95
4, 222490, Note_on_c, 2, 50, 95
4, 222500, Note_on_c, 2, 55, 95
4, 222510, Note_on_c, 2, 62, 95
4, 222520, Note_on_c, 2, 67, 95
4, 222598, Note_off_c, 2, 55, 80
4, 222598, Note_off_c, 2, 43, 80
4, 222598, Note_off_c, 2, 50, 80
4, 222598, Note_off_c, 2, 62, 80
4, 222598, Note_off_c, 2, 67, 80
4, 222600, Note_on_c, 2, 67, 95
4, 222610, Note_on_c, 2, 62, 95
4, 222620, Note_on_c, 2, 55, 95
4, 222630, Note_on_c, 2, 50, 95
4, 222640, Note_on_c, 2, 43, 95
4, 222718, Note_off_c, 2, 55, 80
4, 222718, Note_off_c, 2, 67, 80
4, 222718, Note_off_c, 2, 62, 80
4, 222718, Note_off_c, 2, 50, 80
4, 222718, Note_off_c, 2, 43, 80
4, 222720, Note_on_c, 2, 49, 95
4, 222730, Note_on_c, 2, 55, 95
4, 222740, Note_on_c, 2, 61, 95
4, 222750, Note_on_c, 2, 59, 95
4, 222760, Note_on_c, 2, 64, 95
4, 223078, Note_off_c, 2, 61, 80
4, 223078, Note_off_c, 2, 49, 80
4, 223078, Note_off_c, 2, 55, 80
4, 223078, Note_off_c, 2, 59, 80
4, 223078, Note_off_c, 2, 64, 80
4, 223080, Note_on_c, 2, 49, 95
4, 223090, Note_on_c, 2, 55, 95
4, 223100, Note_on_c, 2, 61, 95
4, 223110, Note_on_c, 2, 59, 95
4, 223120, Note_on_c, 2, 64, 95
4, 223198, Note_off_c, 2, 61, 80
4, 223198, Note_off_c, 2, 49, 80
4, 223198, Note_off_c, 2, 55, 80
4, 223198, Note_off_c, 2, 59, 80
4, 223198, Note_off_c, 2, 64, 80
4, 223200, Note_on_c, 2, 64, 95
4, 223210, Note_on_c, 2, 59, 95
4, 223220, Note_on_c, 2, 61, 95
4, 223230, Note_on_c, 2, 55, 95
4, 223240, Note_on_c, 2, 49, 95
4, 223438, Note_off_c, 2, 61, 80
4, 223438, Note_off_c, 2, 64, 80
4, 223438, Note_off_c, 2, 59, 80
4, 223438, Note_off_c, 2, 55, 80
4, 223438, Note_off_c, 2, 49, 80
4, 223440, Note_on_c, 2, 49, 95
4, 223450, Note_on_c, 2, 55, 95
4, 223460, Note_on_c, 2, 61, 95
4, 223470, Note_on_c, 2, 59, 95
4, 223480, Note_on_c, 2, 64, 95
4, 223798, Note_off_c, 2, 61, 80
4, 223798, Note_off_c, 2, 49, 80
4, 223798, Note_off_c, 2, 55, 80
4, 223798, Note_off_c, 2, 59, 80
4, 223798, Note_off_c, 2, 64, 80
4, 223800, Note_on_c, 2, 49, 95
4, 223810, Note_on_c, 2, 55, 95
4, 223820, Note_on_c, 2, 61, 95
4, 223830, Note_on_c, 2, 59, 95
4, 223840, Note_on_c, 2, 64, 95
4, 223918, Note_off_c, 2, 61, 80
4, 223918, Note_off_c, 2, 49, 80
4, 223918, Note_off_c, 2, 55, 80
4, 223918, Note_off_c, 2, 59, 80
4, 223918, Note_off_c, 2, 64, 80
4, 223920, Note_on_c, 2, 64, 95
4, 223930, Note_on_c, 2, 59, 95
4, 223940, Note_on_c, 2, 61, 95
4, 223950, Note_on_c, 2, 55, 95
4, 223960, Note_on_c, 2, 49, 95
4, 224158, Note_off_c, 2, 61, 80
4, 224158, Note_off_c, 2, 64, 80
4, 224158, Note_off_c, 2, 59, 80
4, 224158, Note_off_c, 2, 55, 80
4, 224158, Note_off_c, 2, 49, 80
4, 224160, Note_on_c, 2, 49, 95
4, 224170, Note_on_c, 2, 55, 95
4, 224180, Note_on_c, 2, 61, 95
4, 224190, Note_on_c, 2, 59, 95
4, 224200, Note_on_c, 2, 64, 95
4, 224398, Note_off_c, 2, 61, 80
4, 224398, Note_off_c, 2, 49, 80
4, 224398, Note_off_c, 2, 55, 80
4, 224398, Note_off_c, 2, 59, 80
4, 224398, Note_off_c, 2, 64, 80
4, 224400, Note_on_c, 2, 49, 95
4, 224410, Note_on_c, 2, 55, 95
4, 224420, Note_on_c, 2, 61, 95
4, 224430, Note_on_c, 2, 59, 95
4, 224440, Note_on_c, 2, 64, 95
4, 224518, Note_off_c, 2, 61, 80
4, 224518, Note_off_c, 2, 49, 80
4, 224518, Note_off_c, 2, 55, 80
4, 224518, Note_off_c, 2, 59, 80
4, 224518, Note_off_c, 2, 64, 80
4, 224520, Note_on_c, 2, 64, 95
4, 224530, Note_on_c, 2, 59, 95
4, 224540, Note_on_c, 2, 61, 95
4, 224550, Note_on_c, 2, 55, 95
4, 224560, Note_on_c, 2, 49, 95
4, 224638, Note_off_c, 2, 61, 80
4, 224638, Note_off_c, 2, 64, 80
4, 224638, Note_off_c, 2, 59, 80
4, 224638, Note_off_c, 2, 55, 80
4, 224638, Note_off_c, 2, 49, 80
4, 224640, Note_on_c, 2, 40, 95
4, 224650, Note_on_c, 2, 47, 95
4, 224660, Note_on_c, 2, 52, 95
4, 224670, Note_on_c, 2, 55, 95
4, 224680, Note_on_c, 2, 59, 95
4, 224690, Note_on_c, 2, 64, 95
4, 224998, Note_off_c, 2, 52, 80
4, 224998, Note_off_c, 2, 64, 80
4, 224998, Note_off_c, 2, 40, 80
4, 224998, Note_off_c, 2, 47, 80
4, 224998, Note_off_c, 2, 55, 80
4, 224998, Note_off_c, 2, 59, 80
4, 225000, Note_on_c, 2, 40, 95
4, 225010, Note_on_c, 2, 47, 95
4, 225020, Note_on_c, 2, 52, 95
4, 225030, Note_on_c, 2, 55, 95
4, 225040, Note_on_c, 2, 59, 95
4, 225050, Note_on_c, 2, 64, 95
4, 225118, Note_off_c, 2, 52, 80
4, 225118, Note_off_c, 2, 64, 80
4, 225118, Note_off_c, 2, 40, 80
4, 225118, Note_off_c, 2, 47, 80
4, 225118, Note_off_c, 2, 55, 80
4, 225118, Note_off_c, 2, 59, 80
4, 225120, Note_on_c, 2, 64, 95
4, 225130, Note_on_c, 2, 59, 95
4, 225140, Note_on_c, 2, 55, 95
4, 225150, Note_on_c, 2, 52, 95
4, 225160, Note_on_c, 2, 47, 95
4, 225170, Note_on_c, 2, 40, 95
4, 225358, Note_off_c, 2, 55, 80
4, 225358, Note_off_c, 2, 40, 80
4, 225358, Note_off_c, 2, 64, 80
4, 225358, Note_off_c, 2, 59, 80
4, 225358, Note_off_c, 2, 52, 80
4, 225358, Note_off_c, 2, 47, 80
4, 225360, Note_on_c, 2, 40, 95
4, 225370, Note_on_c, 2, 47, 95
4, 225380, Note_on_c, 2, 52, 95
4, 225390, Note_on_c, 2, 55, 95
4, 225400, Note_on_c, 2, 59, 95
4, 225410, Note_on_c, 2, 64, 95
4, 225478, Note_off_c, 2, 52, 80
4, 225478, Note_off_c, 2, 64, 80
4, 225478, Note_off_c, 2, 40, 80
4, 225478, Note_off_c, 2, 47, 80
4, 225478, Note_off_c, 2, 55, 80
4, 225478, Note_off_c, 2, 59, 80
4, 225480, Note_on_c, 2, 64, 95
4, 225490, Note_on_c, 2, 59, 95
4, 225500, Note_on_c, 2, 55, 95
4, 225510, Note_on_c, 2, 52, 95
4, 225520, Note_on_c, 2, 47, 95
4, 225530, Note_on_c, 2, 40, 95
4, 225598, Note_off_c, 2, 55, 80
4, 225598, Note_off_c, 2, 40, 80
4, 225598, Note_off_c, 2, 64, 80
4, 225598, Note_off_c, 2, 59, 80
4, 225598, Note_off_c, 2, 52, 80
4, 225598, Note_off_c, 2, 47, 80
4, 225600, Note_on_c, 2, 42, 95
4, 225610, Note_on_c, 2, 49, 95
4, 225620, Note_on_c, 2, 54, 95
4, 225630, Note_on_c, 2, 58, 95
4, 225640, Note_on_c, 2, 61, 95
4, 225958, Note_off_c, 2, 54, 80
4, 225958, Note_off_c, 2, 42, 80
4, 225958, Note_off_c, 2, 49, 80
4, 225958, Note_off_c, 2, 58, 80
4, 225958, Note_off_c, 2, 61, 80
4, 225960, Note_on_c, 2, 42, 95
4, 225970, Note_on_c, 2, 49, 95
4, 225980, Note_on_c, 2, 54, 95
4, 225990, Note_on_c, 2, 58, 95
4, 226000, Note_on_c, 2, 61, 95
4, 226078, Note_off_c, 2, 54, 80
4, 226078, Note_off_c, 2, 42, 80
4, 226078, Note_off_c, 2, 49, 80
4, 226078, Note_off_c, 2, 58, 80
4, 226078, Note_off_c, 2, 61, 80
4, 226080, Note_on_c, 2, 61, 95
4, 226090, Note_on_c, 2, 58, 95
4, 226100, Note_on_c, 2, 54, 95
4, 226110, Note_on_c, 2, 49, 95
4, 226120, Note_on_c, 2, 42, 95
4, 226318, Note_off_c, 2, 54, 80
4, 226318, Note_off_c, 2, 61, 80
4, 226318, Note_off_c, 2, 58, 80
4, 226318, Note_off_c, 2, 49, 80
4, 226318, Note_off_c, 2, 42, 80
4, 226320, Note_on_c, 2, 42, 95
4, 226330, Note_on_c, 2, 49, 95
4, 226340, Note_on_c, 2, 54, 95
4, 226350, Note_on_c, 2, 58, 95
4, 226360, Note_on_c, 2, 61, 95
4, 226438, Note_off_c, 2, 54, 80
4, 226438, Note_off_c, 2, 42, 80
4, 226438, Note_off_c, 2, 49, 80
4, 226438, Note_off_c, 2, 58, 80
4, 226438, Note_off_c, 2, 61, 80
4, 226440, Note_on_c, 2, 61, 95
4, 226450, Note_on_c, 2, 58, 95
4, 226460, Note_on_c, 2, 54, 95
4, 226470, Note_on_c, 2, 49, 95
4, 226480, Note_on_c, 2, 42, 95
4, 226558, Note_off_c, 2, 54, 80
4, 226558, Note_off_c, 2, 61, 80
4, 226558, Note_off_c, 2, 58, 80
4, 226558, Note_off_c, 2, 49, 80
4, 226558, Note_off_c, 2, 42, 80
4, 226560, Note_on_c, 2, 47, 95
4, 226570, Note_on_c, 2, 54, 95
4, 226580, Note_on_c, 2, 59, 95
4, 226590, Note_on_c, 2, 62, 95
4, 226600, Note_on_c, 2, 66, 95
4, 226918, Note_off_c, 2, 59, 80
4, 226918, Note_off_c, 2, 47, 80
4, 226918, Note_off_c, 2, 54, 80
4, 226918, Note_off_c, 2, 62, 80
4, 226918, Note_off_c, 2, 66, 80
4, 226920, Note_on_c, 2, 47, 95
4, 226930, Note_on_c, 2, 54, 95
4, 226940, Note_on_c, 2, 59, 95
4, 226950, Note_on_c, 2, 62, 95
4, 226960, Note_on_c, 2, 66, 95
4, 227038, Note_off_c, 2, 59, 80
4, 227038, Note_off_c, 2, 47, 80
4, 227038, Note_off_c, 2, 54, 80
4, 227038, Note_off_c, 2, 62, 80
4, 227038, Note_off_c, 2, 66, 80
4, 227040, Note_on_c, 2, 66, 95
4, 227050, Note_on_c, 2, 62, 95
4, 227060, Note_on_c, 2, 59, 95
4, 227070, Note_on_c, 2, 54, 95
4, 227080, Note_on_c, 2, 47, 95
4, 227278, Note_off_c, 2, 59, 80
4, 227278, Note_off_c, 2, 66, 80
4, 227278, Note_off_c, 2, 62, 80
4, 227278, Note_off_c, 2, 54, 80
4, 227278, Note_off_c, 2, 47, 80
4, 227280, Note_on_c, 2, 47, 95
4, 227290, Note_on_c, 2, 54, 95
4, 227300, Note_on_c, 2, 59, 95
4, 227310, Note_on_c, 2, 62, 95
4, 227320, Note_on_c, 2, 66, 95
4, 227638, Note_off_c, 2, 59, 80
4, 227638, Note_off_c, 2, 47, 80
4, 227638, Note_off_c, 2, 54, 80
4, 227638, Note_off_c, 2, 62, 80
4, 227638, Note_off_c, 2, 66, 80
4, 227640, Note_on_c, 2, 47, 95
4, 227650, Note_on_c, 2, 54, 95
4, 227660, Note_on_c, 2, 59, 95
4, 227670, Note_on_c, 2, 62, 95
4, 227680, Note_on_c, 2, 66, 95
4, 227758, Note_off_c, 2, 59, 80
4, 227758, Note_off_c, 2, 47, 80
4, 227758, Note_off_c, 2, 54, 80
4, 227758, Note_off_c, 2, 62, 80
4, 227758, Note_off_c, 2, 66, 80
4, 227760, Note_on_c, 2, 66, 95
4, 227770, Note_on_c, 2, 62, 95
4, 227780, Note_on_c, 2, 59, 95
4, 227790, Note_on_c, 2, 54, 95
4, 227800, Note_on_c, 2, 47, 95
4, 227998, Note_off_c, 2, 59, 80
4, 227998, Note_off_c, 2, 66, 80
4, 227998, Note_off_c, 2, 62, 80
4, 227998, Note_off_c, 2, 54, 80
4, 227998, Note_off_c, 2, 47, 80
4, 228000, Note_on_c, 2, 47, 95
4, 228010, Note_on_c, 2, 54, 95
4, 228020, Note_on_c, 2, 59, 95
4, 228030, Note_on_c, 2, 62, 95
4, 228040, Note_on_c, 2, 66, 95
4, 228238, Note_off_c, 2, 59, 80
4, 228238, Note_off_c, 2, 47, 80
4, 228238, Note_off_c, 2, 54, 80
4, 228238, Note_off_c, 2, 62, 80
4, 228238, Note_off_c, 2, 66, 80
4, 228240, Note_on_c, 2, 47, 95
4, 228250, Note_on_c, 2, 54, 95
4, 228260, Note_on_c, 2, 59, 95
4, 228270, Note_on_c, 2, 62, 95
4, 228280, Note_on_c, 2, 66, 95
4, 228358, Note_off_c, 2, 59, 80
4, 228358, Note_off_c, 2, 47, 80
4, 228358, Note_off_c, 2, 54, 80
4, 228358, Note_off_c, 2, 62, 80
4, 228358, Note_off_c, 2, 66, 80
4, 228360, Note_on_c, 2, 66, 95
4, 228370, Note_on_c, 2, 62, 95
4, 228380, Note_on_c, 2, 59, 95
4, 228390, Note_on_c, 2, 54, 95
4, 228400, Note_on_c, 2, 47, 95
4, 228478, Note_off_c, 2, 59, 80
4, 228478, Note_off_c, 2, 66, 80
4, 228478, Note_off_c, 2, 62, 80
4, 228478, Note_off_c, 2, 54, 80
4, 228478, Note_off_c, 2, 47, 80
4, 228480, Note_on_c, 2, 43, 95
4, 228490, Note_on_c, 2, 50, 95
4, 228500, Note_on_c, 2, 55, 95
4, 228510, Note_on_c, 2, 62, 95
4, 228520, Note_on_c, 2, 67, 95
4, 228838, Note_off_c, 2, 55, 80
4, 228838, Note_off_c, 2, 43, 80
4, 228838, Note_off_c, 2, 50, 80
4, 228838, Note_off_c, 2, 62, 80
4, 228838, Note_off_c, 2, 67, 80
4, 228840, Note_on_c, 2, 43, 95
4, 228850, Note_on_c, 2, 50, 95
4, 228860, Note_on_c, 2, 55, 95
4, 228870, Note_on_c, 2, 62, 95
4, 228880, Note_on_c, 2, 67, 95
4, 228958, Note_off_c, 2, 55, 80
4, 228958, Note_off_c, 2, 43, 80
4, 228958, Note_off_c, 2, 50, 80
4, 228958, Note_off_c, 2, 62, 80
4, 228958, Note_off_c, 2, 67, 80
4, 228960, Note_on_c, 2, 67, 95
4, 228970, Note_on_c, 2, 62, 95
4, 228980, Note_on_c, 2, 55, 95
4, 228990, Note_on_c, 2, 50, 95
4, 229000, Note_on_c, 2, 43, 95
4, 229198, Note_off_c, 2, 55, 80
4, 229198, Note_off_c, 2, 67, 80
4, 229198, Note_off_c, 2, 62, 80
4, 229198, Note_off_c, 2, 50, 80
4, 229198, Note_off_c, 2, 43, 80
4, 229200, Note_on_c, 2, 43, 95
4, 229210, Note_on_c, 2, 50, 95
4, 229220, Note_on_c, 2, 55, 95
4, 229230, Note_on_c, 2, 62, 95
4, 229240, Note_on_c, 2, 67, 95
4, 229558, Note_off_c, 2, 55, 80
4, 229558, Note_off_c, 2, 43, 80
4, 229558, Note_off_c, 2, 50, 80
4, 229558, Note_off_c, 2, 62, 80
4, 229558, Note_off_c, 2, 67, 80
4, 229560, Note_on_c, 2, 43, 95
4, 229570, Note_on_c, 2, 50, 95
4, 229580, Note_on_c, 2, 55, 95
4, 229590, Note_on_c, 2, 62, 95
4, 229600, Note_on_c, 2, 67, 95
4, 229678, Note_off_c, 2, 55, 80
4, 229678, Note_off_c, 2, 43, 80
4, 229678, Note_off_c, 2, 50, 80
4, 229678, Note_off_c, 2, 62, 80
4, 229678, Note_off_c, 2, 67, 80
4, 229680, Note_on_c, 2, 67, 95
4, 229690, Note_on_c, 2, 62, 95
4, 229700, Note_on_c, 2, 55, 95
4, 229710, Note_on_c, 2, 50, 95
4, 229720, Note_on_c, 2, 43, 95
4, 229918, Note_off_c, 2, 55, 80
4, 229918, Note_off_c, 2, 67, 80
4, 229918, Note_off_c, 2, 62, 80
4, 229918, Note_off_c, 2, 50, 80
4, 229918, Note_off_c, 2, 43, 80
4, 229920, Note_on_c, 2, 43, 95
4, 229930, Note_on_c, 2, 50, 95
4, 229940, Note_on_c, 2, 55, 95
4, 229950, Note_on_c, 2, 62, 95
4, 229960, Note_on_c, 2, 67, 95
4, 230158, Note_off_c, 2, 55, 80
4, 230158, Note_off_c, 2, 43, 80
4, 230158, Note_off_c, 2, 50, 80
4, 230158, Note_off_c, 2, 62, 80
4, 230158, Note_off_c, 2, 67, 80
4, 230160, Note_on_c, 2, 43, 95
4, 230170, Note_on_c, 2, 50, 95
4, 230180, Note_on_c, 2, 55, 95
4, 230190, Note_on_c, 2, 62, 95
4, 230200, Note_on_c, 2, 67, 95
4, 230278, Note_off_c, 2, 55, 80
4, 230278, Note_off_c, 2, 43, 80
4, 230278, Note_off_c, 2, 50, 80
4, 230278, Note_off_c, 2, 62, 80
4, 230278, Note_off_c, 2, 67, 80
4, 230280, Note_on_c, 2, 67, 95
4, 230290, Note_on_c, 2, 62, 95
4, 230300, Note_on_c, 2, 55, 95
4, 230310, Note_on_c, 2, 50, 95
4, 230320, Note_on_c, 2, 43, 95
4, 230398, Note_off_c, 2, 55, 80
4, 230398, Note_off_c, 2, 67, 80
4, 230398, Note_off_c, 2, 62, 80
4, 230398, Note_off_c, 2, 50, 80
4, 230398, Note_off_c, 2, 43, 80
4, 230400, Note_on_c, 2, 40, 95
4, 230410, Note_on_c, 2, 47, 95
4, 230420, Note_on_c, 2, 52, 95
4, 230430, Note_on_c, 2, 55, 95
4, 230440, Note_on_c, 2, 59, 95
4, 230450, Note_on_c, 2, 64, 95
4, 230758, Note_off_c, 2, 52, 80
4, 230758, Note_off_c, 2, 64, 80
4, 230758, Note_off_c, 2, 40, 80
4, 230758, Note_off_c, 2, 47, 80
4, 230758, Note_off_c, 2, 55, 80
4, 230758, Note_off_c, 2, 59, 80
4, 230760, Note_on_c, 2, 40, 95
4, 230770, Note_on_c, 2, 47, 95
4, 230780, Note_on_c, 2, 52, 95
4, 230790, Note_on_c, 2, 55, 95
4, 230800, Note_on_c, 2, 59, 95
4, 230810, Note_on_c, 2, 64, 95
4, 230878, Note_off_c, 2, 52, 80
4, 230878, Note_off_c, 2, 64, 80
4, 230878, Note_off_c, 2, 40, 80
4, 230878, Note_off_c, 2, 47, 80
4, 230878, Note_off_c, 2, 55, 80
4, 230878, Note_off_c, 2, 59, 80
4, 230880, Note_on_c, 2, 64, 95
4, 230890, Note_on_c, 2, 59, 95
4, 230900, Note_on_c, 2, 55, 95
4, 230910, Note_on_c, 2, 52, 95
4, 230920, Note_on_c, 2, 47, 95
4, 230930, Note_on_c, 2, 40, 95
4, 231118, Note_off_c, 2, 55, 80
4, 231118, Note_off_c, 2, 40, 80
4, 231118, Note_off_c, 2, 64, 80
4, 231118, Note_off_c, 2, 59, 80
4, 231118, Note_off_c, 2, 52, 80
4, 231118, Note_off_c, 2, 47, 80
4, 231120, Note_on_c, 2, 40, 95
4, 231130, Note_on_c, 2, 47, 95
4, 231140, Note_on_c, 2, 52, 95
4, 231150, Note_on_c, 2, 55, 95
4, 231160, Note_on_c, 2, 59, 95
4, 231170, Note_on_c, 2, 64, 95
4, 231478, Note_off_c, 2, 52, 80
4, 231478, Note_off_c, 2, 64, 80
4, 231478, Note_off_c, 2, 40, 80
4, 231478, Note_off_c, 2, 47, 80
4, 231478, Note_off_c, 2, 55, 80
4, 231478, Note_off_c, 2, 59, 80
4, 231480, Note_on_c, 2, 40, 95
4, 231490, Note_on_c, 2, 47, 95
4, 231500, Note_on_c, 2, 52, 95
4, 231510, Note_on_c, 2, 55, 95
4, 231520, Note_on_c, 2, 59, 95
4, 231530, Note_on_c, 2, 64, 95
4, 231598, Note_off_c, 2, 52, 80
4, 231598, Note_off_c, 2, 64, 80
4, 231598, Note_off_c, 2, 40, 80
4, 231598, Note_off_c, 2, 47, 80
4, 231598, Note_off_c, 2, 55, 80
4, 231598, Note_off_c, 2, 59, 80
4, 231600, Note_on_c, 2, 64, 95
4, 231610, Note_on_c, 2, 59, 95
4, 231620, Note_on_c, 2, 55, 95
4, 231630, Note_on_c, 2, 52, 95
4, 231640, Note_on_c, 2, 47, 95
4, 231650, Note_on_c, 2, 40, 95
4, 231838, Note_off_c, 2, 55, 80
4, 231838, Note_off_c, 2, 40, 80
4, 231838, Note_off_c, 2, 64, 80
4, 231838, Note_off_c, 2, 59, 80
4, 231838, Note_off_c, 2, 52, 80
4, 231838, Note_off_c, 2, 47, 80
4, 231840, Note_on_c, 2, 40, 95
4, 231850, Note_on_c, 2, 47, 95
4, 231860, Note_on_c, 2, 52, 95
4, 231870, Note_on_c, 2, 55, 95
4, 231880, Note_on_c, 2, 59, 95
4, 231890, Note_on_c, 2, 64, 95
4, 231958, Note_off_c, 2, 52, 80
4, 231958, Note_off_c, 2, 64, 80
4, 231958, Note_off_c, 2, 40, 80
4, 231958, Note_off_c, 2, 47, 80
4, 231958, Note_off_c, 2, 55, 80
4, 231958, Note_off_c, 2, 59, 80
4, 231960, Note_on_c, 2, 64, 95
4, 231970, Note_on_c, 2, 59, 95
4, 231980, Note_on_c, 2, 55, 95
4, 231990, Note_on_c, 2, 52, 95
4, 232000, Note_on_c, 2, 47, 95
4, 232010, Note_on_c, 2, 40, 95
4, 232078, Note_off_c, 2, 55, 80
4, 232078, Note_off_c, 2, 40, 80
4, 232078, Note_off_c, 2, 64, 80
4, 232078, Note_off_c, 2, 59, 80
4, 232078, Note_off_c, 2, 52, 80
4, 232078, Note_off_c, 2, 47, 80
4, 232080, Note_on_c, 2, 40, 95
4, 232090, Note_on_c, 2, 47, 95
4, 232100, Note_on_c, 2, 52, 95
4, 232110, Note_on_c, 2, 55, 95
4, 232120, Note_on_c, 2, 59, 95
4, 232130, Note_on_c, 2, 64, 95
4, 232318, Note_off_c, 2, 52, 80
4, 232318, Note_off_c, 2, 64, 80
4, 232318, Note_off_c, 2, 40, 80
4, 232318, Note_off_c, 2, 47, 80
4, 232318, Note_off_c, 2, 55, 80
4, 232318, Note_off_c, 2, 59, 80
4, 232320, Note_on_c, 2, 50, 95
4, 232330, Note_on_c, 2, 55, 95
4, 232340, Note_on_c, 2, 62, 95
4, 232350, Note_on_c, 2, 67, 95
4, 232678, Note_off_c, 2, 62, 80
4, 232678, Note_off_c, 2, 50, 80
4, 232678, Note_off_c, 2, 55, 80
4, 232678, Note_off_c, 2, 67, 80
4, 232680, Note_on_c, 2, 50, 95
4, 232690, Note_on_c, 2, 55, 95
4, 232700, Note_on_c, 2, 62, 95
4, 232710, Note_on_c, 2, 67, 95
4, 232798, Note_off_c, 2, 62, 80
4, 232798, Note_off_c, 2, 50, 80
4, 232798, Note_off_c, 2, 55, 80
4, 232798, Note_off_c, 2, 67, 80
4, 232800, Note_on_c, 2, 67, 95
4, 232810, Note_on_c, 2, 62, 95
4, 232820, Note_on_c, 2, 55, 95
4, 232830, Note_on_c, 2, 50, 95
4, 233038, Note_off_c, 2, 55, 80
4, 233038, Note_off_c, 2, 67, 80
4, 233038, Note_off_c, 2, 62, 80
4, 233038, Note_off_c, 2, 50, 80
4, 233040, Note_on_c, 2, 50, 95
4, 233050, Note_on_c, 2, 55, 95
4, 233060, Note_on_c, 2, 62, 95
4, 233070, Note_on_c, 2, 67, 95
4, 233158, Note_off_c, 2, 62, 80
4, 233158, Note_off_c, 2, 50, 80
4, 233158, Note_off_c, 2, 55, 80
4, 233158, Note_off_c, 2, 67, 80
4, 233160, Note_on_c, 2, 67, 95
4, 233170, Note_on_c, 2, 62, 95
4, 233180, Note_on_c, 2, 55, 95
4, 233190, Note_on_c, 2, 50, 95
4, 233278, Note_off_c, 2, 55, 80
4, 233278, Note_off_c, 2, 67, 80
4, 233278, Note_off_c, 2, 62, 80
4, 233278, Note_off_c, 2, 50, 80
4, 233280, Note_on_c, 2, 48, 95
4, 233290, Note_on_c, 2, 52, 95
4, 233300, Note_on_c, 2, 55, 95
4, 233310, Note_on_c, 2, 60, 95
4, 233320, Note_on_c, 2, 64, 95
4, 234238, Note_off_c, 2, 55, 80
4, 234238, Note_off_c, 2, 48, 80
4, 234238, Note_off_c, 2, 52, 80
4, 234238, Note_off_c, 2, 60, 80
4, 234238, Note_off_c, 2, 64, 80
4, 234240, Program_c, 2, 30
4, 234240, Note_on_c, 2, 47, 95
4, 234478, Note_off_c, 2, 47, 80
4, 234480, Note_on_c, 2, 50, 95
4, 234598, Note_off_c, 2, 50, 80
4, 234840, Note_on_c, 2, 47, 95
4, 234958, Note_off_c, 2, 47, 80
4, 235080, Note_on_c, 2, 52, 95
4, 235438, Note_off_c, 2, 52, 80
4, 235440, Note_on_c, 2, 47, 95
4, 235558, Note_off_c, 2, 47, 80
4, 235680, Note_on_c, 2, 53, 95
4, 235798, Note_off_c, 2, 53, 80
4, 236040, Note_on_c, 2, 50, 95
4, 236158, Note_off_c, 2, 50, 80
4, 236280, Note_on_c, 2, 52, 95
4, 236518, Note_off_c, 2, 52, 80
4, 236520, Note_on_c, 2, 50, 95
4, 236638, Note_off_c, 2, 50, 80
4, 236640, Note_on_c, 2, 45, 95
4, 236758, Note_off_c, 2, 45, 80
4, 236760, Note_on_c, 2, 46, 76
4, 236878, Note_off_c, 2, 46, 80
4, 236880, Note_on_c, 2, 47, 95
4, 237118, Note_off_c, 2, 47, 80
4, 237120, Note_on_c, 2, 50, 95
4, 237238, Note_off_c, 2, 50, 80
4, 237480, Note_on_c, 2, 47, 95
4, 237598, Note_off_c, 2, 47, 80
4, 237720, Note_on_c, 2, 52, 95
4, 238078, Note_off_c, 2, 52, 80
4, 238080, Note_on_c, 2, 47, 95
4, 238198, Note_off_c, 2, 47, 80
4, 238320, Note_on_c, 2, 53, 95
4, 238438, Note_off_c, 2, 53, 80
4, 238680, Note_on_c, 2, 50, 95
4, 238798, Note_off_c, 2, 50, 80
4, 238920, Note_on_c, 2, 52, 95
4, 239158, Note_off_c, 2, 52, 80
4, 239160, Note_on_c, 2, 50, 95
4, 239278, Note_off_c, 2, 50, 80
4, 239280, Note_on_c, 2, 45, 95
4, 239398, Note_off_c, 2, 45, 80
4, 239400, Note_on_c, 2, 46, 76
4, 239518, Note_off_c, 2, 46, 80
4, 239520, Note_on_c, 2, 47, 95
4, 239758, Note_off_c, 2, 47, 80
4, 239760, Note_on_c, 2, 50, 95
4, 239878, Note_off_c, 2, 50, 80
4, 240120, Note_on_c, 2, 47, 95
4, 240238, Note_off_c, 2, 47, 80
4, 240360, Note_on_c, 2, 52, 95
4, 240718, Note_off_c, 2, 52, 80
4, 240720, Note_on_c, 2, 47, 95
4, 240838, Note_off_c, 2, 47, 80
4, 240960, Note_on_c, 2, 53, 95
4, 241078, Note_off_c, 2, 53, 80
4, 241320, Note_on_c, 2, 50, 95
4, 241438, Note_off_c, 2, 50, 80
4, 241560, Note_on_c, 2, 52, 95
4, 241798, Note_off_c, 2, 52, 80
4, 241800, Note_on_c, 2, 50, 95
4, 241918, Note_off_c, 2, 50, 80
4, 241920, Note_on_c, 2, 45, 95
4, 242038, Note_off_c, 2, 45, 80
4, 242040, Note_on_c, 2, 46, 76
4, 242158, Note_off_c, 2, 46, 80
4, 242160, Note_on_c, 2, 47, 95
4, 242398, Note_off_c, 2, 47, 80
4, 242400, Note_on_c, 2, 50, 95
4, 242518, Note_off_c, 2, 50, 80
4, 242760, Note_on_c, 2, 47, 95
4, 242878, Note_off_c, 2, 47, 80
4, 243000, Note_on_c, 2, 52, 95
4, 243358, Note_off_c, 2, 52, 80
4, 243360, Note_on_c, 2, 47, 95
4, 243478, Note_off_c, 2, 47, 80
4, 243600, Note_on_c, 2, 53, 95
4, 243718, Note_off_c, 2, 53, 80
4, 243960, Note_on_c, 2, 50, 95
4, 244078, Note_off_c, 2, 50, 80
4, 244200, Note_on_c, 2, 52, 95
4, 244438, Note_off_c, 2, 52, 80
4, 244440, Note_on_c, 2, 50, 95
4, 244558, Note_off_c, 2, 50, 80
4, 244560, Note_on_c, 2, 45, 95
4, 244678, Note_off_c, 2, 45, 80
4, 244680, Note_on_c, 2, 46, 76
4, 244798, Note_off_c, 2, 46, 80
4, 246720, Note_on_c, 2, 42, 95
4, 247078, Note_off_c, 2, 42, 80
4, 247080, Note_on_c, 2, 42, 95
4, 247198, Note_off_c, 2, 42, 80
4, 247200, Note_on_c, 2, 47, 95
4, 247318, Note_off_c, 2, 47, 80
4, 247320, Note_on_c, 2, 49, 76
4, 247438, Note_off_c, 2, 49, 80
4, 247440, Note_on_c, 2, 52, 95
4, 247558, Note_off_c, 2, 52, 80
4, 247560, Note_on_c, 2, 54, 95
4, 247798, Note_off_c, 2, 54, 80
4, 247800, Note_on_c, 2, 49, 95
4, 247918, Note_off_c, 2, 49, 80
4, 247920, Note_on_c, 2, 42, 95
4, 248038, Note_off_c, 2, 42, 80
4, 248040, Note_on_c, 2, 40, 95
4, 248638, Note_off_c, 2, 40, 80
4, 248640, Note_on_c, 2, 42, 95
4, 248998, Note_off_c, 2, 42, 80
4, 249000, Note_on_c, 2, 42, 95
4, 249118, Note_off_c, 2, 42, 80
4, 249120, Note_on_c, 2, 47, 95
4, 249238, Note_off_c, 2, 47, 80
4, 249240, Note_on_c, 2, 49, 76
4, 249358, Note_off_c, 2, 49, 80
4, 249360, Note_on_c, 2, 52, 95
4, 249478, Note_off_c, 2, 52, 80
4, 249480, Note_on_c, 2, 54, 95
4, 249718, Note_off_c, 2, 54, 80
4, 249720, Note_on_c, 2, 47, 95
4, 249838, Note_off_c, 2, 47, 80
4, 249840, Note_on_c, 2, 45, 95
4, 250558, Note_off_c, 2, 45, 80
4, 250560, Note_on_c, 2, 42, 95
4, 250918, Note_off_c, 2, 42, 80
4, 250920, Note_on_c, 2, 42, 95
4, 251038, Note_off_c, 2, 42, 80
4, 251040, Note_on_c, 2, 47, 95
4, 251158, Note_off_c, 2, 47, 80
4, 251160, Note_on_c, 2, 49, 76
4, 251278, Note_off_c, 2, 49, 80
4, 251280, Note_on_c, 2, 52, 95
4, 251398, Note_off_c, 2, 52, 80
4, 251400, Note_on_c, 2, 54, 95
4, 251638, Note_off_c, 2, 54, 80
4, 251640, Note_on_c, 2, 49, 95
4, 251758, Note_off_c, 2, 49, 80
4, 251760, Note_on_c, 2, 42, 95
4, 251878, Note_off_c, 2, 42, 80
4, 251880, Note_on_c, 2, 40, 95
4, 252478, Note_off_c, 2, 40, 80
4, 252480, Note_on_c, 2, 42, 95
4, 252838, Note_off_c, 2, 42, 80
4, 252840, Note_on_c, 2, 42, 95
4, 252958, Note_off_c, 2, 42, 80
4, 252960, Note_on_c, 2, 47, 95
4, 253078, Note_off_c, 2, 47, 80
4, 253080, Note_on_c, 2, 49, 76
4, 253198, Note_off_c, 2, 49, 80
4, 253200, Note_on_c, 2, 52, 95
4, 253318, Note_off_c, 2, 52, 80
4, 253320, Note_on_c, 2, 54, 95
4, 253558, Note_off_c, 2, 54, 80
4, 253560, Note_on_c, 2, 47, 95
4, 253678, Note_off_c, 2, 47, 80
4, 253680, Note_on_c, 2, 45, 95
4, 254398, Note_off_c, 2, 45, 80
4, 254400, Note_on_c, 2, 59, 95
4, 254638, Note_off_c, 2, 59, 80
4, 254640, Note_on_c, 2, 62, 95
4, 254878, Note_off_c, 2, 62, 80
4, 255000, Note_on_c, 2, 59, 95
4, 255118, Note_off_c, 2, 59, 80
4, 255240, Note_on_c, 2, 64, 95
4, 255478, Note_off_c, 2, 64, 80
4, 255480, Note_on_c, 2, 62, 95
4, 255598, Note_off_c, 2, 62, 80
4, 255600, Note_on_c, 2, 59, 95
4, 255838, Note_off_c, 2, 59, 80
4, 255840, Note_on_c, 2, 65, 95
4, 256078, Note_off_c, 2, 65, 80
4, 256200, Note_on_c, 2, 62, 95
4, 256318, Note_off_c, 2, 62, 80
4, 256440, Note_on_c, 2, 59, 95
4, 256440, Note_on_c, 2, 64, 95
4, 256456, Pitch_bend_c, 2, 8320
4, 256472, Pitch_bend_c, 2, 8448
4, 256488, Pitch_bend_c, 2, 8704
4, 256504, Pitch_bend_c, 2, 8832
4, 256584, Pitch_bend_c, 2, 8576
4, 256600, Pitch_bend_c, 2, 8320
4, 256616, Pitch_bend_c, 2, 8192
4, 256678, Note_off_c, 2, 59, 80
4, 256678, Note_off_c, 2, 64, 80
4, 256680, Note_on_c, 2, 62, 95
4, 256738, Note_off_c, 2, 62, 80
4, 256740, Note_on_c, 2, 59, 95
4, 256798, Note_off_c, 2, 59, 80
4, 256800, Note_on_c, 2, 57, 95
4, 256918, Note_off_c, 2, 57, 80
4, 256920, Note_on_c, 2, 58, 76
4, 257038, Note_off_c, 2, 58, 80
4, 257040, Note_on_c, 2, 59, 95
4, 257278, Note_off_c, 2, 59, 80
4, 257280, Note_on_c, 2, 62, 95
4, 257518, Note_off_c, 2, 62, 80
4, 257640, Note_on_c, 2, 59, 95
4, 257758, Note_off_c, 2, 59, 80
4, 257880, Note_on_c, 2, 64, 95
4, 258118, Note_off_c, 2, 64, 80
4, 258120, Note_on_c, 2, 62, 95
4, 258238, Note_off_c, 2, 62, 80
4, 258240, Note_on_c, 2, 59, 95
4, 258478, Note_off_c, 2, 59, 80
4, 258480, Note_on_c, 2, 65, 95
4, 258718, Note_off_c, 2, 65, 80
4, 258840, Note_on_c, 2, 62, 95
4, 258958, Note_off_c, 2, 62, 80
4, 259080, Note_on_c, 2, 59, 95
4, 259080, Note_on_c, 2, 64, 95
4, 259096, Pitch_bend_c, 2, 8320
4, 259112, Pitch_bend_c, 2, 8448
4, 259128, Pitch_bend_c, 2, 8704
4, 259144, Pitch_bend_c, 2, 8832
4, 259224, Pitch_bend_c, 2, 8576
4, 259240, Pitch_bend_c, 2, 8320
4, 259256, Pitch_bend_c, 2, 8192
4, 259318, Note_off_c, 2, 59, 80
4, 259318, Note_off_c, 2, 64, 80
4, 259320, Note_on_c, 2, 62, 95
4, 259378, Note_off_c, 2, 62, 80
4, 259380, Note_on_c, 2, 59, 95
4, 259438, Note_off_c, 2, 59, 80
4, 259440, Note_on_c, 2, 57, 95
4, 259558, Note_off_c, 2, 57, 80
4, 259560, Note_on_c, 2, 58, 76
4, 259678, Note_off_c, 2, 58, 80
4, 259680, Note_on_c, 2, 59, 95
4, 259918, Note_off_c, 2, 59, 80
4, 259920, Note_on_c, 2, 62, 95
4, 260158, Note_off_c, 2, 62, 80
4, 260280, Note_on_c, 2, 59, 95
4, 260398, Note_off_c, 2, 59, 80
4, 260520, Note_on_c, 2, 64, 95
4, 260758, Note_off_c, 2, 64, 80
4, 260760, Note_on_c, 2, 62, 95
4, 260878, Note_off_c, 2, 62, 80
4, 260880, Note_on_c, 2, 59, 95
4, 261118, Note_off_c, 2, 59, 80
4, 261120, Note_on_c, 2, 65, 95
4, 261358, Note_off_c, 2, 65, 80
4, 261480, Note_on_c, 2, 62, 95
4, 261598, Note_off_c, 2, 62, 80
4, 261720, Note_on_c, 2, 59, 95
4, 261720, Note_on_c, 2, 64, 95
4, 261736, Pitch_bend_c, 2, 8320
4, 261752, Pitch_bend_c, 2, 8448
4, 261768, Pitch_bend_c, 2, 8704
4, 261784, Pitch_bend_c, 2, 8832
4, 261864, Pitch_bend_c, 2, 8576
4, 261880, Pitch_bend_c, 2, 8320
4, 261896, Pitch_bend_c, 2, 8192
4, 261958, Note_off_c, 2, 59, 80
4, 261958, Note_off_c, 2, 64, 80
4, 261960, Note_on_c, 2, 62, 95
4, 262018, Note_off_c, 2, 62, 80
4, 262020, Note_on_c, 2, 59, 95
4, 262078, Note_off_c, 2, 59, 80
4, 262080, Note_on_c, 2, 57, 95
4, 262198, Note_off_c, 2, 57, 80
4, 262200, Note_on_c, 2, 58, 76
4, 262318, Note_off_c, 2, 58, 80
4, 262320, Note_on_c, 2, 59, 95
4, 262558, Note_off_c, 2, 59, 80
4, 262560, Note_on_c, 2, 62, 95
4, 262798, Note_off_c, 2, 62, 80
4, 262920, Note_on_c, 2, 59, 95
4, 263038, Note_off_c, 2, 59, 80
4, 263160, Note_on_c, 2, 64, 95
4, 263398, Note_off_c, 2, 64, 80
4, 263400, Note_on_c, 2, 62, 95
4, 263518, Note_off_c, 2, 62, 80
4, 263520, Note_on_c, 2, 59, 95
4, 263758, Note_off_c, 2, 59, 80
4, 263760, Note_on_c, 2, 65, 95
4, 263998, Note_off_c, 2, 65, 80
4, 264120, Note_on_c, 2, 74, 95
4, 264238, Note_off_c, 2, 74, 80
4, 264360, Note_on_c, 2, 76, 95
4, 264376, Pitch_bend_c, 2, 8320
4, 264392, Pitch_bend_c, 2, 8704
4, 264408, Pitch_bend_c, 2, 8832
4, 264472, Pitch_bend_c, 2, 8448
4, 264488, Pitch_bend_c, 2, 8192
4, 264538, Note_off_c, 2, 76, 80
4, 264540, Note_on_c, 2, 74, 95
4, 264598, Note_off_c, 2, 74, 80
4, 264600, Note_on_c, 2, 71, 95
4, 264718, Note_off_c, 2, 71, 80
4, 264720, Note_on_c, 2, 69, 95
4, 264838, Note_off_c, 2, 69, 80
4, 264840, Note_on_c, 2, 70, 76
4, 264958, Note_off_c, 2, 70, 80
4, 264960, Note_on_c, 2, 66, 95
4, 265318, Note_off_c, 2, 66, 80
4, 265320, Note_on_c, 2, 54, 95
4, 265438, Note_off_c, 2, 54, 80
4, 265440, Note_on_c, 2, 59, 95
4, 265558, Note_off_c, 2, 59, 80
4, 265560, Note_on_c, 2, 61, 76
4, 265678, Note_off_c, 2, 61, 80
4, 265680, Note_on_c, 2, 64, 95
4, 265798, Note_off_c, 2, 64, 80
4, 265800, Note_on_c, 2, 66, 95
4, 265918, Note_off_c, 2, 66, 80
4, 265920, Note_on_c, 2, 61, 95
4, 266038, Note_off_c, 2, 61, 80
4, 266040, Note_on_c, 2, 71, 95
4, 266056, Pitch_bend_c, 2, 8320
4, 266072, Pitch_bend_c, 2, 8704
4, 266088, Pitch_bend_c, 2, 9344
4, 266104, Pitch_bend_c, 2, 9600
4, 266158, Note_off_c, 2, 71, 80
4, 266160, Pitch_bend_c, 2, 8192
4, 266160, Note_on_c, 2, 66, 95
4, 266278, Note_off_c, 2, 66, 80
4, 266280, Note_on_c, 2, 64, 95
4, 266878, Note_off_c, 2, 64, 80
4, 266880, Note_on_c, 2, 54, 95
4, 267238, Note_off_c, 2, 54, 80
4, 267240, Note_on_c, 2, 54, 95
4, 267358, Note_off_c, 2, 54, 80
4, 267360, Note_on_c, 2, 59, 95
4, 267478, Note_off_c, 2, 59, 80
4, 267480, Note_on_c, 2, 61, 76
4, 267598, Note_off_c, 2, 61, 80
4, 267600, Note_on_c, 2, 64, 95
4, 267718, Note_off_c, 2, 64, 80
4, 267720, Note_on_c, 2, 66, 95
4, 267838, Note_off_c, 2, 66, 80
4, 267840, Note_on_c, 2, 64, 95
4, 267958, Note_off_c, 2, 64, 80
4, 267960, Note_on_c, 2, 71, 95
4, 267976, Pitch_bend_c, 2, 8320
4, 267992, Pitch_bend_c, 2, 8704
4, 268008, Pitch_bend_c, 2, 9344
4, 268024, Pitch_bend_c, 2, 9600
4, 268078, Note_off_c, 2, 71, 80
4, 268080, Pitch_bend_c, 2, 8192
4, 268080, Note_on_c, 2, 69, 95
4, 268216, Pitch_bend_c, 2, 8320
4, 268228, Pitch_bend_c, 2, 8448
4, 268256, Pitch_bend_c, 2, 8320
4, 268268, Pitch_bend_c, 2, 8192
4, 268280, Pitch_bend_c, 2, 8064
4, 268292, Pitch_bend_c, 2, 7936
4, 268320, Pitch_bend_c, 2, 8064
4, 268332, Pitch_bend_c, 2, 8192
4, 268344, Pitch_bend_c, 2, 8320
4, 268396, Pitch_bend_c, 2, 8192
4, 268408, Pitch_bend_c, 2, 8064
4, 268460, Pitch_bend_c, 2, 8192
4, 268472, Pitch_bend_c, 2, 8320
4, 268484, Pitch_bend_c, 2, 8448
4, 268512, Pitch_bend_c, 2, 8320
4, 268524, Pitch_bend_c, 2, 8192
4, 268536, Pitch_bend_c, 2, 8064
4, 268548, Pitch_bend_c, 2, 7936
4, 268576, Pitch_bend_c, 2, 8064
4, 268588, Pitch_bend_c, 2, 8192
4, 268600, Pitch_bend_c, 2, 8320
4, 268620, Pitch_bend_c, 2, 8448
4, 268632, Pitch_bend_c, 2, 8320
4, 268652, Pitch_bend_c, 2, 8192
4, 268664, Pitch_bend_c, 2, 8064
4, 268684, Pitch_bend_c, 2, 7936
4, 268696, Pitch_bend_c, 2, 8064
4, 268716, Pitch_bend_c, 2, 8192
4, 268732, Pitch_bend_c, 2, 8320
4, 268776, Pitch_bend_c, 2, 8192
4, 268796, Pitch_bend_c, 2, 8064
4, 268798, Note_off_c, 2, 69, 80
4, 268800, Pitch_bend_c, 2, 8192
4, 268800, Note_on_c, 2, 54, 95
4, 269158, Note_off_c, 2, 54, 80
4, 269160, Note_on_c, 2, 54, 95
4, 269278, Note_off_c, 2, 54, 80
4, 269280, Note_on_c, 2, 59, 95
4, 269398, Note_off_c, 2, 59, 80
4, 269400, Note_on_c, 2, 61, 76
4, 269518, Note_off_c, 2, 61, 80
4, 269520, Note_on_c, 2, 64, 95
4, 269638, Note_off_c, 2, 64, 80
4, 269640, Note_on_c, 2, 66, 95
4, 269758, Note_off_c, 2, 66, 80
4, 269760, Note_on_c, 2, 61, 95
4, 269878, Note_off_c, 2, 61, 80
4, 269880, Note_on_c, 2, 71, 95
4, 269896, Pitch_bend_c, 2, 8320
4, 269912, Pitch_bend_c, 2, 8704
4, 269928, Pitch_bend_c, 2, 9344
4, 269944, Pitch_bend_c, 2, 9600
4, 269998, Note_off_c, 2, 71, 80
4, 270000, Pitch_bend_c, 2, 8192
4, 270000, Note_on_c, 2, 66, 95
4, 270118, Note_off_c, 2, 66, 80
4, 270120, Note_on_c, 2, 64, 95
4, 270238, Note_off_c, 2, 64, 80
4, 270240, Note_on_c, 2, 76, 95
4, 270376, Pitch_bend_c, 2, 8320
4, 270384, Pitch_bend_c, 2, 8448
4, 270420, Pitch_bend_c, 2, 8320
4, 270428, Pitch_bend_c, 2, 8192
4, 270440, Pitch_bend_c, 2, 8064
4, 270448, Pitch_bend_c, 2, 7936
4, 270484, Pitch_bend_c, 2, 8064
4, 270492, Pitch_bend_c, 2, 8192
4, 270504, Pitch_bend_c, 2, 8320
4, 270524, Pitch_bend_c, 2, 8448
4, 270536, Pitch_bend_c, 2, 8320
4, 270556, Pitch_bend_c, 2, 8192
4, 270568, Pitch_bend_c, 2, 8064
4, 270588, Pitch_bend_c, 2, 7936
4, 270600, Pitch_bend_c, 2, 8064
4, 270620, Pitch_bend_c, 2, 8192
4, 270632, Pitch_bend_c, 2, 8320
4, 270684, Pitch_bend_c, 2, 8192
4, 270696, Pitch_bend_c, 2, 8064
4, 270718, Note_off_c, 2, 76, 80
4, 270720, Pitch_bend_c, 2, 8192
4, 270720, Note_on_c, 2, 54, 95
4, 271078, Note_off_c, 2, 54, 80
4, 271080, Note_on_c, 2, 54, 95
4, 271198, Note_off_c, 2, 54, 80
4, 271200, Note_on_c, 2, 59, 95
4, 271318, Note_off_c, 2, 59, 80
4, 271320, Note_on_c, 2, 61, 76
4, 271438, Note_off_c, 2, 61, 80
4, 271440, Note_on_c, 2, 64, 95
4, 271558, Note_off_c, 2, 64, 80
4, 271560, Note_on_c, 2, 66, 95
4, 271678, Note_off_c, 2, 66, 80
4, 271680, Note_on_c, 2, 61, 95
4, 271798, Note_off_c, 2, 61, 80
4, 271800, Note_on_c, 2, 59, 95
4, 271918, Note_off_c, 2, 59, 80
4, 271920, Note_on_c, 2, 71, 95
4, 272038, Note_off_c, 2, 71, 80
4, 272040, Note_on_c, 2, 64, 95
4, 272158, Note_off_c, 2, 64, 80
4, 272160, Note_on_c, 2, 76, 95
4, 272208, Pitch_bend_c, 2, 8320
4, 272256, Pitch_bend_c, 2, 8448
4, 272272, Pitch_bend_c, 2, 8576
4, 272288, Pitch_bend_c, 2, 8704
4, 272304, Pitch_bend_c, 2, 8832
4, 272320, Pitch_bend_c, 2, 8960
4, 272336, Pitch_bend_c, 2, 9088
4, 272352, Pitch_bend_c, 2, 9344
4, 272384, Pitch_bend_c, 2, 9472
4, 272400, Pitch_bend_c, 2, 9600
4, 272638, Note_off_c, 2, 76, 80
4, 272640, Pitch_bend_c, 2, 8192
4, 272640, Note_on_c, 2, 40, 95
4, 272878, Note_off_c, 2, 40, 80
4, 272880, Note_on_c, 2, 43, 95
4, 272998, Note_off_c, 2, 43, 80
4, 273240, Note_on_c, 2, 40, 95
4, 273358, Note_off_c, 2, 40, 80
4, 273480, Note_on_c, 2, 45, 95
4, 273838, Note_off_c, 2, 45, 80
4, 273840, Note_on_c, 2, 40, 95
4, 273958, Note_off_c, 2, 40, 80
4, 274080, Note_on_c, 2, 46, 95
4, 274198, Note_off_c, 2, 46, 80
4, 274440, Note_on_c, 2, 43, 95
4, 274558, Note_off_c, 2, 43, 80
4, 274680, Note_on_c, 2, 45, 95
4, 274918, Note_off_c, 2, 45, 80
4, 274920, Note_on_c, 2, 43, 95
4, 275038, Note_off_c, 2, 43, 80
4, 275040, Note_on_c, 2, 40, 95
4, 275278, Note_off_c, 2, 40, 80
4, 275280, Note_on_c, 2, 43, 95
4, 275398, Note_off_c, 2, 43, 80
4, 275640, Note_on_c, 2, 40, 95
4, 275758, Note_off_c, 2, 40, 80
4, 275880, Note_on_c, 2, 45, 95
4, 276238, Note_off_c, 2, 45, 80
4, 276240, Note_on_c, 2, 40, 95
4, 276358, Note_off_c, 2, 40, 80
4, 276480, Note_on_c, 2, 46, 95
4, 276598, Note_off_c, 2, 46, 80
4, 276840, Note_on_c, 2, 43, 95
4, 276958, Note_off_c, 2, 43, 80
4, 277080, Note_on_c, 2, 45, 95
4, 277318, Note_off_c, 2, 45, 80
4, 277320, Note_on_c, 2, 43, 95
4, 277438, Note_off_c, 2, 43, 80
4, 277440, Note_on_c, 2, 40, 95
4, 277678, Note_off_c, 2, 40, 80
4, 277680, Note_on_c, 2, 43, 95
4, 277798, Note_off_c, 2, 43, 80
4, 278040, Note_on_c, 2, 40, 95
4, 278158, Note_off_c, 2, 40, 80
4, 278280, Note_on_c, 2, 45, 95
4, 278638, Note_off_c, 2, 45, 80
4, 278640, Note_on_c, 2, 40, 95
4, 278758, Note_off_c, 2, 40, 80
4, 278880, Note_on_c, 2, 46, 95
4, 278998, Note_off_c, 2, 46, 80
4, 279240, Note_on_c, 2, 43, 95
4, 279358, Note_off_c, 2, 43, 80
4, 279480, Note_on_c, 2, 45, 95
4, 279718, Note_off_c, 2, 45, 80
4, 279720, Note_on_c, 2, 43, 95
4, 279838, Note_off_c, 2, 43, 80
4, 279840, Note_on_c, 2, 40, 95
4, 280078, Note_off_c, 2, 40, 80
4, 280080, Note_on_c, 2, 43, 95
4, 280198, Note_off_c, 2, 43, 80
4, 280440, Note_on_c, 2, 40, 95
4, 280558, Note_off_c, 2, 40, 80
4, 280680, Note_on_c, 2, 45, 95
4, 281038, Note_off_c, 2, 45, 80
4, 281040, Note_on_c, 2, 40, 95
4, 281158, Note_off_c, 2, 40, 80
4, 281280, Note_on_c, 2, 46, 95
4, 281398, Note_off_c, 2, 46, 80
4, 281640, Note_on_c, 2, 43, 95
4, 281758, Note_off_c, 2, 43, 80
4, 281880, Note_on_c, 2, 45, 95
4, 282118, Note_off_c, 2, 45, 80
4, 282120, Note_on_c, 2, 43, 95
4, 282238, Note_off_c, 2, 43, 80
4, 282240, Note_on_c, 2, 42, 95
4, 282598, Note_off_c, 2, 42, 80
4, 282600, Note_on_c, 2, 42, 95
4, 282718, Note_off_c, 2, 42, 80
4, 282720, Note_on_c, 2, 47, 95
4, 282838, Note_off_c, 2, 47, 80
4, 282840, Note_on_c, 2, 49, 76
4, 282958, Note_off_c, 2, 49, 80
4, 282960, Note_on_c, 2, 52, 95
4, 283078, Note_off_c, 2, 52, 80
4, 283080, Note_on_c, 2, 54, 95
4, 283318, Note_off_c, 2, 54, 80
4, 283320, Note_on_c, 2, 49, 95
4, 283438, Note_off_c, 2, 49, 80
4, 283440, Note_on_c, 2, 42, 95
4, 283558, Note_off_c, 2, 42, 80
4, 283560, Note_on_c, 2, 40, 95
4, 284158, Note_off_c, 2, 40, 80
4, 284160, Note_on_c, 2, 42, 95
4, 284518, Note_off_c, 2, 42, 80
4, 284520, Note_on_c, 2, 42, 95
4, 284638, Note_off_c, 2, 42, 80
4, 284640, Note_on_c, 2, 47, 95
4, 284758, Note_off_c, 2, 47, 80
4, 284760, Note_on_c, 2, 49, 76
4, 284878, Note_off_c, 2, 49, 80
4, 284880, Note_on_c, 2, 52, 95
4, 284998, Note_off_c, 2, 52, 80
4, 285000, Note_on_c, 2, 54, 95
4, 285238, Note_off_c, 2, 54, 80
4, 285240, Note_on_c, 2, 47, 95
4, 285358, Note_off_c, 2, 47, 80
4, 285360, Note_on_c, 2, 45, 95
4, 286078, Note_off_c, 2, 45, 80
4, 286080, Note_on_c, 2, 42, 95
4, 286438, Note_off_c, 2, 42, 80
4, 286440, Note_on_c, 2, 42, 95
4, 286558, Note_off_c, 2, 42, 80
4, 286560, Note_on_c, 2, 47, 95
4, 286678, Note_off_c, 2, 47, 80
4, 286680, Note_on_c, 2, 49, 76
4, 286798, Note_off_c, 2, 49, 80
4, 286800, Note_on_c, 2, 52, 95
4, 286918, Note_off_c, 2, 52, 80
4, 286920, Note_on_c, 2, 54, 95
4, 287158, Note_off_c, 2, 54, 80
4, 287160, Note_on_c, 2, 49, 95
4, 287278, Note_off_c, 2, 49, 80
4, 287280, Note_on_c, 2, 42, 95
4, 287398, Note_off_c, 2, 42, 80
4, 287400, Note_on_c, 2, 40, 95
4, 287998, Note_off_c, 2, 40, 80
4, 288000, Note_on_c, 2, 42, 95
4, 288358, Note_off_c, 2, 42, 80
4, 288360, Note_on_c, 2, 42, 95
4, 288478, Note_off_c, 2, 42, 80
4, 288480, Note_on_c, 2, 47, 95
4, 288598, Note_off_c, 2, 47, 80
4, 288600, Note_on_c, 2, 49, 76
4, 288718, Note_off_c, 2, 49, 80
4, 288720, Note_on_c, 2, 52, 95
4, 288838, Note_off_c, 2, 52, 80
4, 288840, Note_on_c, 2, 54, 95
4, 289078, Note_off_c, 2, 54, 80
4, 289080, Note_on_c, 2, 47, 95
4, 289198, Note_off_c, 2, 47, 80
4, 289200, Note_on_c, 2, 45, 95
4, 289918, Note_off_c, 2, 45, 80
4, 289920, Note_on_c, 2, 40, 95
4, 290158, Note_off_c, 2, 40, 80
4, 290160, Note_on_c, 2, 43, 95
4, 290278, Note_off_c, 2, 43, 80
4, 290520, Note_on_c, 2, 40, 95
4, 290638, Note_off_c, 2, 40, 80
4, 290760, Note_on_c, 2, 45, 95
4, 291118, Note_off_c, 2, 45, 80
4, 291120, Note_on_c, 2, 40, 95
4, 291238, Note_off_c, 2, 40, 80
4, 291360, Note_on_c, 2, 46, 95
4, 291478, Note_off_c, 2, 46, 80
4, 291720, Note_on_c, 2, 43, 95
4, 291838, Note_off_c, 2, 43, 80
4, 291960, Note_on_c, 2, 45, 95
4, 292198, Note_off_c, 2, 45, 80
4, 292200, Note_on_c, 2, 43, 95
4, 292318, Note_off_c, 2, 43, 80
4, 292320, Note_on_c, 2, 40, 95
4, 292558, Note_off_c, 2, 40, 80
4, 292560, Note_on_c, 2, 43, 95
4, 292678, Note_off_c, 2, 43, 80
4, 292920, Note_on_c, 2, 40, 95
4, 293038, Note_off_c, 2, 40, 80
4, 293160, Note_on_c, 2, 45, 95
4, 293518, Note_off_c, 2, 45, 80
4, 293520, Note_on_c, 2, 40, 95
4, 293638, Note_off_c, 2, 40, 80
4, 293760, Note_on_c, 2, 46, 95
4, 293878, Note_off_c, 2, 46, 80
4, 294120, Note_on_c, 2, 43, 95
4, 294238, Note_off_c, 2, 43, 80
4, 294360, Note_on_c, 2, 45, 95
4, 294598, Note_off_c, 2, 45, 80
4, 294600, Note_on_c, 2, 43, 95
4, 294718, Note_off_c, 2, 43, 80
4, 294720, Note_on_c, 2, 40, 95
4, 294958, Note_off_c, 2, 40, 80
4, 294960, Note_on_c, 2, 43, 95
4, 295078, Note_off_c, 2, 43, 80
4, 295320, Note_on_c, 2, 40, 95
4, 295438, Note_off_c, 2, 40, 80
4, 295560, Note_on_c, 2, 45, 95
4, 295918, Note_off_c, 2, 45, 80
4, 295920, Note_on_c, 2, 40, 95
4, 296038, Note_off_c, 2, 40, 80
4, 296160, Note_on_c, 2, 46, 95
4, 296278, Note_off_c, 2, 46, 80
4, 296520, Note_on_c, 2, 43, 95
4, 296638, Note_off_c, 2, 43, 80
4, 296760, Note_on_c, 2, 45, 95
4, 296998, Note_off_c, 2, 45, 80
4, 297000, Note_on_c, 2, 43, 95
4, 297118, Note_off_c, 2, 43, 80
4, 297120, Note_on_c, 2, 40, 95
4, 297358, Note_off_c, 2, 40, 80
4, 297360, Note_on_c, 2, 43, 95
4, 297478, Note_off_c, 2, 43, 80
4, 297720, Note_on_c, 2, 40, 95
4, 297838, Note_off_c, 2, 40, 80
4, 297960, Note_on_c, 2, 45, 95
4, 298318, Note_off_c, 2, 45, 80
4, 298320, Note_on_c, 2, 40, 95
4, 298438, Note_off_c, 2, 40, 80
4, 298560, Note_on_c, 2, 46, 95
4, 298678, Note_off_c, 2, 46, 80
4, 298920, Note_on_c, 2, 43, 95
4, 299038, Note_off_c, 2, 43, 80
4, 299160, Note_on_c, 2, 45, 95
4, 299398, Note_off_c, 2, 45, 80
4, 299400, Note_on_c, 2, 43, 95
4, 299518, Note_off_c, 2, 43, 80
4, 299520, Note_on_c, 2, 42, 95
4, 299878, Note_off_c, 2, 42, 80
4, 299880, Note_on_c, 2, 42, 95
4, 299998, Note_off_c, 2, 42, 80
4, 300000, Note_on_c, 2, 47, 95
4, 300118, Note_off_c, 2, 47, 80
4, 300120, Note_on_c, 2, 49, 76
4, 300238, Note_off_c, 2, 49, 80
4, 300240, Note_on_c, 2, 52, 95
4, 300358, Note_off_c, 2, 52, 80
4, 300360, Note_on_c, 2, 54, 95
4, 300598, Note_off_c, 2, 54, 80
4, 300600, Note_on_c, 2, 49, 95
4, 300718, Note_off_c, 2, 49, 80
4, 300720, Note_on_c, 2, 42, 95
4, 300838, Note_off_c, 2, 42, 80
4, 300840, Note_on_c, 2, 40, 95
4, 301438, Note_off_c, 2, 40, 80
4, 301440, Note_on_c, 2, 42, 95
4, 301798, Note_off_c, 2, 42, 80
4, 301800, Note_on_c, 2, 42, 95
4, 301918, Note_off_c, 2, 42, 80
4, 301920, Note_on_c, 2, 47, 95
4, 302038, Note_off_c, 2, 47, 80
4, 302040, Note_on_c, 2, 49, 76
4, 302158, Note_off_c, 2, 49, 80
4, 302160, Note_on_c, 2, 52, 95
4, 302278, Note_off_c, 2, 52, 80
4, 302280, Note_on_c, 2, 54, 95
4, 302518, Note_off_c, 2, 54, 80
4, 302520, Note_on_c, 2, 47, 95
4, 302638, Note_off_c, 2, 47, 80
4, 302640, Note_on_c, 2, 45, 95
4, 303358, Note_off_c, 2, 45, 80
4, 303360, Note_on_c, 2, 42, 95
4, 303718, Note_off_c, 2, 42, 80
4, 303720, Note_on_c, 2, 42, 95
4, 303838, Note_off_c, 2, 42, 80
4, 303840, Note_on_c, 2, 47, 95
4, 303958, Note_off_c, 2, 47, 80
4, 303960, Note_on_c, 2, 49, 76
4, 304078, Note_off_c, 2, 49, 80
4, 304080, Note_on_c, 2, 52, 95
4, 304198, Note_off_c, 2, 52, 80
4, 304200, Note_on_c, 2, 54, 95
4, 304438, Note_off_c, 2, 54, 80
4, 304440, Note_on_c, 2, 49, 95
4, 304558, Note_off_c, 2, 49, 80
4, 304560, Note_on_c, 2, 42, 95
4, 304678, Note_off_c, 2, 42, 80
4, 304680, Note_on_c, 2, 40, 95
4, 305278, Note_off_c, 2, 40, 80
4, 305280, Note_on_c, 2, 42, 95
4, 305638, Note_off_c, 2, 42, 80
4, 305640, Note_on_c, 2, 42, 95
4, 305758, Note_off_c, 2, 42, 80
4, 305760, Note_on_c, 2, 47, 95
4, 305878, Note_off_c, 2, 47, 80
4, 305880, Note_on_c, 2, 49, 76
4, 305998, Note_off_c, 2, 49, 80
4, 306000, Note_on_c, 2, 52, 95
4, 306118, Note_off_c, 2, 52, 80
4, 306120, Note_on_c, 2, 54, 95
4, 306358, Note_off_c, 2, 54, 80
4, 306360, Note_on_c, 2, 47, 95
4, 306478, Note_off_c, 2, 47, 80
4, 306480, Note_on_c, 2, 45, 95
4, 307198, Note_off_c, 2, 45, 80
4, 307200, Program_c, 2, 25
4, 307200, Note_on_c, 2, 50, 95
4, 307210, Note_on_c, 2, 57, 95
4, 307220, Note_on_c, 2, 62, 95
4, 307230, Note_on_c, 2, 66, 95
4, 307558, Note_off_c, 2, 50, 80
4, 307558, Note_off_c, 2, 57, 80
4, 307558, Note_off_c, 2, 66, 80
4, 307558, Note_off_c, 2, 62, 80
4, 307560, Note_on_c, 2, 50, 95
4, 307570, Note_on_c, 2, 57, 95
4, 307580, Note_on_c, 2, 62, 95
4, 307590, Note_on_c, 2, 66, 95
4, 307678, Note_off_c, 2, 50, 80
4, 307678, Note_off_c, 2, 57, 80
4, 307678, Note_off_c, 2, 66, 80
4, 307678, Note_off_c, 2, 62, 80
4, 307680, Note_on_c, 2, 66, 95
4, 307690, Note_on_c, 2, 62, 95
4, 307700, Note_on_c, 2, 57, 95
4, 307710, Note_on_c, 2, 50, 95
4, 307918, Note_off_c, 2, 66, 80
4, 307918, Note_off_c, 2, 62, 80
4, 307918, Note_off_c, 2, 50, 80
4, 307918, Note_off_c, 2, 57, 80
4, 307920, Note_on_c, 2, 50, 95
4, 307930, Note_on_c, 2, 57, 95
4, 307940, Note_on_c, 2, 62, 95
4, 307950, Note_on_c, 2, 66, 95
4, 308278, Note_off_c, 2, 50, 80
4, 308278, Note_off_c, 2, 57, 80
4, 308278, Note_off_c, 2, 66, 80
4, 308278, Note_off_c, 2, 62, 80
4, 308280, Note_on_c, 2, 50, 95
4, 308290, Note_on_c, 2, 57, 95
4, 308300, Note_on_c, 2, 62, 95
4, 308310, Note_on_c, 2, 66, 95
4, 308398, Note_off_c, 2, 50, 80
4, 308398, Note_off_c, 2, 57, 80
4, 308398, Note_off_c, 2, 66, 80
4, 308398, Note_off_c, 2, 62, 80
4, 308400, Note_on_c, 2, 66, 95
4, 308410, Note_on_c, 2, 62, 95
4, 308420, Note_on_c, 2, 57, 95
4, 308430, Note_on_c, 2, 50, 95
4, 308638, Note_off_c, 2, 66, 80
4, 308638, Note_off_c, 2, 62, 80
4, 308638, Note_off_c, 2, 50, 80
4, 308638, Note_off_c, 2, 57, 80
4, 308640, Note_on_c, 2, 50, 95
4, 308650, Note_on_c, 2, 57, 95
4, 308660, Note_on_c, 2, 62, 95
4, 308670, Note_on_c, 2, 66, 95
4, 308878, Note_off_c, 2, 50, 80
4, 308878, Note_off_c, 2, 57, 80
4, 308878, Note_off_c, 2, 66, 80
4, 308878, Note_off_c, 2, 62, 80
4, 308880, Note_on_c, 2, 50, 95
4, 308890, Note_on_c, 2, 57, 95
4, 308900, Note_on_c, 2, 62, 95
4, 308910, Note_on_c, 2, 66, 95
4, 308998, Note_off_c, 2, 50, 80
4, 308998, Note_off_c, 2, 57, 80
4, 308998, Note_off_c, 2, 66, 80
4, 308998, Note_off_c, 2, 62, 80
4, 309000, Note_on_c, 2, 66, 95
4, 309010, Note_on_c, 2, 62, 95
4, 309020, Note_on_c, 2, 57, 95
4, 309030, Note_on_c, 2, 50, 95
4, 309118, Note_off_c, 2, 66, 80
4, 309118, Note_off_c, 2, 62, 80
4, 309118, Note_off_c, 2, 50, 80
4, 309118, Note_off_c, 2, 57, 80
4, 309120, Note_on_c, 2, 42, 95
4, 309130, Note_on_c, 2, 49, 95
4, 309140, Note_on_c, 2, 54, 95
4, 309150, Note_on_c, 2, 57, 95
4, 309160, Note_on_c, 2, 61, 95
4, 309170, Note_on_c, 2, 66, 95
4, 309478, Note_off_c, 2, 42, 80
4, 309478, Note_off_c, 2, 49, 80
4, 309478, Note_off_c, 2, 57, 80
4, 309478, Note_off_c, 2, 61, 80
4, 309478, Note_off_c, 2, 54, 80
4, 309478, Note_off_c, 2, 66, 80
4, 309480, Note_on_c, 2, 42, 95
4, 309490, Note_on_c, 2, 49, 95
4, 309500, Note_on_c, 2, 54, 95
4, 309510, Note_on_c, 2, 57, 95
4, 309520, Note_on_c, 2, 61, 95
4, 309530, Note_on_c, 2, 66, 95
4, 309598, Note_off_c, 2, 42, 80
4, 309598, Note_off_c, 2, 49, 80
4, 309598, Note_off_c, 2, 57, 80
4, 309598, Note_off_c, 2, 61, 80
4, 309598, Note_off_c, 2, 54, 80
4, 309598, Note_off_c, 2, 66, 80
4, 309600, Note_on_c, 2, 66, 95
4, 309610, Note_on_c, 2, 61, 95
4, 309620, Note_on_c, 2, 57, 95
4, 309630, Note_on_c, 2, 54, 95
4, 309640, Note_on_c, 2, 49, 95
4, 309650, Note_on_c, 2, 42, 95
4, 309838, Note_off_c, 2, 66, 80
4, 309838, Note_off_c, 2, 61, 80
4, 309838, Note_off_c, 2, 54, 80
4, 309838, Note_off_c, 2, 49, 80
4, 309838, Note_off_c, 2, 57, 80
4, 309838, Note_off_c, 2, 42, 80
4, 309840, Note_on_c, 2, 42, 95
4, 309850, Note_on_c, 2, 49, 95
4, 309860, Note_on_c, 2, 54, 95
4, 309870, Note_on_c, 2, 57, 95
4, 309880, Note_on_c, 2, 61, 95
4, 309890, Note_on_c, 2, 66, 95
4, 310198, Note_off_c, 2, 42, 80
4, 310198, Note_off_c, 2, 49, 80
4, 310198, Note_off_c, 2, 57, 80
4, 310198, Note_off_c, 2, 61, 80
4, 310198, Note_off_c, 2, 54, 80
4, 310198, Note_off_c, 2, 66, 80
4, 310200, Note_on_c, 2, 42, 95
4, 310210, Note_on_c, 2, 49, 95
4, 310220, Note_on_c, 2, 54, 95
4, 310230, Note_on_c, 2, 57, 95
4, 310240, Note_on_c, 2, 61, 95
4, 310250, Note_on_c, 2, 66, 95
4, 310318, Note_off_c, 2, 42, 80
4, 310318, Note_off_c, 2, 49, 80
4, 310318, Note_off_c, 2, 57, 80
4, 310318, Note_off_c, 2, 61, 80
4, 310318, Note_off_c, 2, 54, 80
4, 310318, Note_off_c, 2, 66, 80
4, 310320, Note_on_c, 2, 66, 95
4, 310330, Note_on_c, 2, 61, 95
4, 310340, Note_on_c, 2, 57, 95
4, 310350, Note_on_c, 2, 54, 95
4, 310360, Note_on_c, 2, 49, 95
4, 310370, Note_on_c, 2, 42, 95
4, 310558, Note_off_c, 2, 66, 80
4, 310558, Note_off_c, 2, 61, 80
4, 310558, Note_off_c, 2, 54, 80
4, 310558, Note_off_c, 2, 49, 80
4, 310558, Note_off_c, 2, 57, 80
4, 310558, Note_off_c, 2, 42, 80
4, 310560, Note_on_c, 2, 42, 95
4, 310570, Note_on_c, 2, 49, 95
4, 310580, Note_on_c, 2, 54, 95
4, 310590, Note_on_c, 2, 57, 95
4, 310600, Note_on_c, 2, 61, 95
4, 310610, Note_on_c, 2, 66, 95
4, 310798, Note_off_c, 2, 42, 80
4, 310798, Note_off_c, 2, 49, 80
4, 310798, Note_off_c, 2, 57, 80
4, 310798, Note_off_c, 2, 61, 80
4, 310798, Note_off_c, 2, 54, 80
4, 310798, Note_off_c, 2, 66, 80
4, 310800, Note_on_c, 2, 42, 95
4, 310810, Note_on_c, 2, 49, 95
4, 310820, Note_on_c, 2, 54, 95
4, 310830, Note_on_c, 2, 57, 95
4, 310840, Note_on_c, 2, 61, 95
4, 310850, Note_on_c, 2, 66, 95
4, 310918, Note_off_c, 2, 42, 80
4, 310918, Note_off_c, 2, 49, 80
4, 310918, Note_off_c, 2, 57, 80
4, 310918, Note_off_c, 2, 61, 80
4, 310918, Note_off_c, 2, 54, 80
4, 310918, Note_off_c, 2, 66, 80
4, 310920, Note_on_c, 2, 66, 95
4, 310930, Note_on_c, 2, 61, 95
4, 310940, Note_on_c, 2, 57, 95
4, 310950, Note_on_c, 2, 54, 95
4, 310960, Note_on_c, 2, 49, 95
4, 310970, Note_on_c, 2, 42, 95
4, 311038, Note_off_c, 2, 66, 80
4, 311038, Note_off_c, 2, 61, 80
4, 311038, Note_off_c, 2, 54, 80
4, 311038, Note_off_c, 2, 49, 80
4, 311038, Note_off_c, 2, 57, 80
4, 311038, Note_off_c, 2, 42, 80
4, 311040, Note_on_c, 2, 43, 95
4, 311050, Note_on_c, 2, 50, 95
4, 311060, Note_on_c, 2, 55, 95
4, 311070, Note_on_c, 2, 62, 95
4, 311080, Note_on_c, 2, 67, 95
4, 311398, Note_off_c, 2, 43, 80
4, 311398, Note_off_c, 2, 50, 80
4, 311398, Note_off_c, 2, 62, 80
4, 311398, Note_off_c, 2, 67, 80
4, 311398, Note_off_c, 2, 55, 80
4, 311400, Note_on_c, 2, 43, 95
4, 311410, Note_on_c, 2, 50, 95
4, 311420, Note_on_c, 2, 55, 95
4, 311430, Note_on_c, 2, 62, 95
4, 311440, Note_on_c, 2, 67, 95
4, 311518, Note_off_c, 2, 43, 80
4, 311518, Note_off_c, 2, 50, 80
4, 311518, Note_off_c, 2, 62, 80
4, 311518, Note_off_c, 2, 67, 80
4, 311518, Note_off_c, 2, 55, 80
4, 311520, Note_on_c, 2, 67, 95
4, 311530, Note_on_c, 2, 62, 95
4, 311540, Note_on_c, 2, 55, 95
4, 311550, Note_on_c, 2, 50, 95
4, 311560, Note_on_c, 2, 43, 95
4, 311758, Note_off_c, 2, 67, 80
4, 311758, Note_off_c, 2, 62, 80
4, 311758, Note_off_c, 2, 50, 80
4, 311758, Note_off_c, 2, 43, 80
4, 311758, Note_off_c, 2, 55, 80
4, 311760, Note_on_c, 2, 43, 95
4, 311770, Note_on_c, 2, 50, 95
4, 311780, Note_on_c, 2, 55, 95
4, 311790, Note_on_c, 2, 62, 95
4, 311800, Note_on_c, 2, 67, 95
4, 312118, Note_off_c, 2, 43, 80
4, 312118, Note_off_c, 2, 50, 80
4, 312118, Note_off_c, 2, 62, 80
4, 312118, Note_off_c, 2, 67, 80
4, 312118, Note_off_c, 2, 55, 80
4, 312120, Note_on_c, 2, 43, 95
4, 312130, Note_on_c, 2, 50, 95
4, 312140, Note_on_c, 2, 55, 95
4, 312150, Note_on_c, 2, 62, 95
4, 312160, Note_on_c, 2, 67, 95
4, 312238, Note_off_c, 2, 43, 80
4, 312238, Note_off_c, 2, 50, 80
4, 312238, Note_off_c, 2, 62, 80
4, 312238, Note_off_c, 2, 67, 80
4, 312238, Note_off_c, 2, 55, 80
4, 312240, Note_on_c, 2, 67, 95
4, 312250, Note_on_c, 2, 62, 95
4, 312260, Note_on_c, 2, 55, 95
4, 312270, Note_on_c, 2, 50, 95
4, 312280, Note_on_c, 2, 43, 95
4, 312478, Note_off_c, 2, 67, 80
4, 312478, Note_off_c, 2, 62, 80
4, 312478, Note_off_c, 2, 50, 80
4, 312478, Note_off_c, 2, 43, 80
4, 312478, Note_off_c, 2, 55, 80
4, 312480, Note_on_c, 2, 43, 95
4, 312490, Note_on_c, 2, 50, 95
4, 312500, Note_on_c, 2, 55, 95
4, 312510, Note_on_c, 2, 62, 95
4, 312520, Note_on_c, 2, 67, 95
4, 312718, Note_off_c, 2, 43, 80
4, 312718, Note_off_c, 2, 50, 80
4, 312718, Note_off_c, 2, 62, 80
4, 312718, Note_off_c, 2, 67, 80
4, 312718, Note_off_c, 2, 55, 80
4, 312720, Note_on_c, 2, 43, 95
4, 312730, Note_on_c, 2, 50, 95
4, 312740, Note_on_c, 2, 55, 95
4, 312750, Note_on_c, 2, 62, 95
4, 312760, Note_on_c, 2, 67, 95
4, 312838, Note_off_c, 2, 43, 80
4, 312838, Note_off_c, 2, 50, 80
4, 312838, Note_off_c, 2, 62, 80
4, 312838, Note_off_c, 2, 67, 80
4, 312838, Note_off_c, 2, 55, 80
4, 312840, Note_on_c, 2, 67, 95
4, 312850, Note_on_c, 2, 62, 95
4, 312860, Note_on_c, 2, 55, 95
4, 312870, Note_on_c, 2, 50, 95
4, 312880, Note_on_c, 2, 43, 95
4, 312958, Note_off_c, 2, 67, 80
4, 312958, Note_off_c, 2, 62, 80
4, 312958, Note_off_c, 2, 50, 80
4, 312958, Note_off_c, 2, 43, 80
4, 312958, Note_off_c, 2, 55, 80
4, 312960, Note_on_c, 2, 40, 95
4, 312970, Note_on_c, 2, 47, 95
4, 312980, Note_on_c, 2, 52, 95
4, 312990, Note_on_c, 2, 55, 95
4, 313000, Note_on_c, 2, 59, 95
4, 313010, Note_on_c, 2, 64, 95
4, 313318, Note_off_c, 2, 40, 80
4, 313318, Note_off_c, 2, 47, 80
4, 313318, Note_off_c, 2, 55, 80
4, 313318, Note_off_c, 2, 59, 80
4, 313318, Note_off_c, 2, 52, 80
4, 313318, Note_off_c, 2, 64, 80
4, 313320, Note_on_c, 2, 40, 95
4, 313330, Note_on_c, 2, 47, 95
4, 313340, Note_on_c, 2, 52, 95
4, 313350, Note_on_c, 2, 55, 95
4, 313360, Note_on_c, 2, 59, 95
4, 313370, Note_on_c, 2, 64, 95
4, 313438, Note_off_c, 2, 40, 80
4, 313438, Note_off_c, 2, 47, 80
4, 313438, Note_off_c, 2, 55, 80
4, 313438, Note_off_c, 2, 59, 80
4, 313438, Note_off_c, 2, 52, 80
4, 313438, Note_off_c, 2, 64, 80
4, 313440, Note_on_c, 2, 64, 95
4, 313450, Note_on_c, 2, 59, 95
4, 313460, Note_on_c, 2, 55, 95
4, 313470, Note_on_c, 2, 52, 95
4, 313480, Note_on_c, 2, 47, 95
4, 313490, Note_on_c, 2, 40, 95
4, 313678, Note_off_c, 2, 64, 80
4, 313678, Note_off_c, 2, 59, 80
4, 313678, Note_off_c, 2, 52, 80
4, 313678, Note_off_c, 2, 47, 80
4, 313678, Note_off_c, 2, 55, 80
4, 313678, Note_off_c, 2, 40, 80
4, 313680, Note_on_c, 2, 40, 95
4, 313690, Note_on_c, 2, 47, 95
4, 313700, Note_on_c, 2, 52, 95
4, 313710, Note_on_c, 2, 55, 95
4, 313720, Note_on_c, 2, 59, 95
4, 313730, Note_on_c, 2, 64, 95
4, 314038, Note_off_c, 2, 40, 80
4, 314038, Note_off_c, 2, 47, 80
4, 314038, Note_off_c, 2, 55, 80
4, 314038, Note_off_c, 2, 59, 80
4, 314038, Note_off_c, 2, 52, 80
4, 314038, Note_off_c, 2, 64, 80
4, 314040, Note_on_c, 2, 40, 95
4, 314050, Note_on_c, 2, 47, 95
4, 314060, Note_on_c, 2, 52, 95
4, 314070, Note_on_c, 2, 55, 95
4, 314080, Note_on_c, 2, 59, 95
4, 314090, Note_on_c, 2, 64, 95
4, 314158, Note_off_c, 2, 40, 80
4, 314158, Note_off_c, 2, 47, 80
4, 314158, Note_off_c, 2, 55, 80
4, 314158, Note_off_c, 2, 59, 80
4, 314158, Note_off_c, 2, 52, 80
4, 314158, Note_off_c, 2, 64, 80
4, 314160, Note_on_c, 2, 64, 95
4, 314170, Note_on_c, 2, 59, 95
4, 314180, Note_on_c, 2, 55, 95
4, 314190, Note_on_c, 2, 52, 95
4, 314200, Note_on_c, 2, 47, 95
4, 314210, Note_on_c, 2, 40, 95
4, 314398, Note_off_c, 2, 64, 80
4, 314398, Note_off_c, 2, 59, 80
4, 314398, Note_off_c, 2, 52, 80
4, 314398, Note_off_c, 2, 47, 80
4, 314398, Note_off_c, 2, 55, 80
4, 314398, Note_off_c, 2, 40, 80
4, 314400, Note_on_c, 2, 40, 95
4, 314410, Note_on_c, 2, 47, 95
4, 314420, Note_on_c, 2, 52, 95
4, 314430, Note_on_c, 2, 55, 95
4, 314440, Note_on_c, 2, 59, 95
4, 314450, Note_on_c, 2, 64, 95
4, 314518, Note_off_c, 2, 40, 80
4, 314518, Note_off_c, 2, 47, 80
4, 314518, Note_off_c, 2, 55, 80
4, 314518, Note_off_c, 2, 59, 80
4, 314518, Note_off_c, 2, 52, 80
4, 314518, Note_off_c, 2, 64, 80
4, 314520, Note_on_c, 2, 64, 95
4, 314530, Note_on_c, 2, 59, 95
4, 314540, Note_on_c, 2, 55, 95
4, 314550, Note_on_c, 2, 52, 95
4, 314560, Note_on_c, 2, 47, 95
4, 314570, Note_on_c, 2, 40, 95
4, 314638, Note_off_c, 2, 64, 80
4, 314638, Note_off_c, 2, 59, 80
4, 314638, Note_off_c, 2, 52, 80
4, 314638, Note_off_c, 2, 47, 80
4, 314638, Note_off_c, 2, 55, 80
4, 314638, Note_off_c, 2, 40, 80
4, 314640, Note_on_c, 2, 40, 95
4, 314650, Note_on_c, 2, 47, 95
4, 314660, Note_on_c, 2, 52, 95
4, 314670, Note_on_c, 2, 55, 95
4, 314680, Note_on_c, 2, 59, 95
4, 314690, Note_on_c, 2, 64, 95
4, 314878, Note_off_c, 2, 40, 80
4, 314878, Note_off_c, 2, 47, 80
4, 314878, Note_off_c, 2, 55, 80
4, 314878, Note_off_c, 2, 59, 80
4, 314878, Note_off_c, 2, 52, 80
4, 314878, Note_off_c, 2, 64, 80
4, 314880, Note_on_c, 2, 50, 95
4, 314890, Note_on_c, 2, 57, 95
4, 314900, Note_on_c, 2, 62, 95
4, 314910, Note_on_c, 2, 66, 95
4, 315238, Note_off_c, 2, 50, 80
4, 315238, Note_off_c, 2, 57, 80
4, 315238, Note_off_c, 2, 66, 80
4, 315238, Note_off_c, 2, 62, 80
4, 315240, Note_on_c, 2, 50, 95
4, 315250, Note_on_c, 2, 57, 95
4, 315260, Note_on_c, 2, 62, 95
4, 315270, Note_on_c, 2, 66, 95
4, 315358, Note_off_c, 2, 50, 80
4, 315358, Note_off_c, 2, 57, 80
4, 315358, Note_off_c, 2, 66, 80
4, 315358, Note_off_c, 2, 62, 80
4, 315360, Note_on_c, 2, 66, 95
4, 315370, Note_on_c, 2, 62, 95
4, 315380, Note_on_c, 2, 57, 95
4, 315390, Note_on_c, 2, 50, 95
4, 315598, Note_off_c, 2, 66, 80
4, 315598, Note_off_c, 2, 62, 80
4, 315598, Note_off_c, 2, 50, 80
4, 315598, Note_off_c, 2, 57, 80
4, 315600, Note_on_c, 2, 50, 95
4, 315610, Note_on_c, 2, 57, 95
4, 315620, Note_on_c, 2, 62, 95
4, 315630, Note_on_c, 2, 66, 95
4, 315958, Note_off_c, 2, 50, 80
4, 315958, Note_off_c, 2, 57, 80
4, 315958, Note_off_c, 2, 66, 80
4, 315958, Note_off_c, 2, 62, 80
4, 315960, Note_on_c, 2, 50, 95
4, 315970, Note_on_c, 2, 57, 95
4, 315980, Note_on_c, 2, 62, 95
4, 315990, Note_on_c, 2, 66, 95
4, 316078, Note_off_c, 2, 50, 80
4, 316078, Note_off_c, 2, 57, 80
4, 316078, Note_off_c, 2, 66, 80
4, 316078, Note_off_c, 2, 62, 80
4, 316080, Note_on_c, 2, 66, 95
4, 316090, Note_on_c, 2, 62, 95
4, 316100, Note_on_c, 2, 57, 95
4, 316110, Note_on_c, 2, 50, 95
4, 316318, Note_off_c, 2, 66, 80
4, 316318, Note_off_c, 2, 62, 80
4, 316318, Note_off_c, 2, 50, 80
4, 316318, Note_off_c, 2, 57, 80
4, 316320, Note_on_c, 2, 50, 95
4, 316330, Note_on_c, 2, 57, 95
4, 316340, Note_on_c, 2, 62, 95
4, 316350, Note_on_c, 2, 66, 95
4, 316558, Note_off_c, 2, 50, 80
4, 316558, Note_off_c, 2, 57, 80
4, 316558, Note_off_c, 2, 66, 80
4, 316558, Note_off_c, 2, 62, 80
4, 316560, Note_on_c, 2, 50, 95
4, 316570, Note_on_c, 2, 57, 95
4, 316580, Note_on_c, 2, 62, 95
4, 316590, Note_on_c, 2, 66, 95
4, 316678, Note_off_c, 2, 50, 80
4, 316678, Note_off_c, 2, 57, 80
4, 316678, Note_off_c, 2, 66, 80
4, 316678, Note_off_c, 2, 62, 80
4, 316680, Note_on_c, 2, 66, 95
4, 316690, Note_on_c, 2, 62, 95
4, 316700, Note_on_c, 2, 57, 95
4, 316710, Note_on_c, 2, 50, 95
4, 316798, Note_off_c, 2, 66, 80
4, 316798, Note_off_c, 2, 62, 80
4, 316798, Note_off_c, 2, 50, 80
4, 316798, Note_off_c, 2, 57, 80
4, 316800, Note_on_c, 2, 42, 95
4, 316810, Note_on_c, 2, 49, 95
4, 316820, Note_on_c, 2, 54, 95
4, 316830, Note_on_c, 2, 57, 95
4, 316840, Note_on_c, 2, 61, 95
4, 316850, Note_on_c, 2, 66, 95
4, 317158, Note_off_c, 2, 42, 80
4, 317158, Note_off_c, 2, 49, 80
4, 317158, Note_off_c, 2, 57, 80
4, 317158, Note_off_c, 2, 61, 80
4, 317158, Note_off_c, 2, 54, 80
4, 317158, Note_off_c, 2, 66, 80
4, 317160, Note_on_c, 2, 42, 95
4, 317170, Note_on_c, 2, 49, 95
4, 317180, Note_on_c, 2, 54, 95
4, 317190, Note_on_c, 2, 57, 95
4, 317200, Note_on_c, 2, 61, 95
4, 317210, Note_on_c, 2, 66, 95
4, 317278, Note_off_c, 2, 42, 80
4, 317278, Note_off_c, 2, 49, 80
4, 317278, Note_off_c, 2, 57, 80
4, 317278, Note_off_c, 2, 61, 80
4, 317278, Note_off_c, 2, 54, 80
4, 317278, Note_off_c, 2, 66, 80
4, 317280, Note_on_c, 2, 66, 95
4, 317290, Note_on_c, 2, 61, 95
4, 317300, Note_on_c, 2, 57, 95
4, 317310, Note_on_c, 2, 54, 95
4, 317320, Note_on_c, 2, 49, 95
4, 317330, Note_on_c, 2, 42, 95
4, 317518, Note_off_c, 2, 66, 80
4, 317518, Note_off_c, 2, 61, 80
4, 317518, Note_off_c, 2, 54, 80
4, 317518, Note_off_c, 2, 49, 80
4, 317518, Note_off_c, 2, 57, 80
4, 317518, Note_off_c, 2, 42, 80
4, 317520, Note_on_c, 2, 42, 95
4, 317530, Note_on_c, 2, 49, 95
4, 317540, Note_on_c, 2, 54, 95
4, 317550, Note_on_c, 2, 57, 95
4, 317560, Note_on_c, 2, 61, 95
4, 317570, Note_on_c, 2, 66, 95
4, 317878, Note_off_c, 2, 42, 80
4, 317878, Note_off_c, 2, 49, 80
4, 317878, Note_off_c, 2, 57, 80
4, 317878, Note_off_c, 2, 61, 80
4, 317878, Note_off_c, 2, 54, 80
4, 317878, Note_off_c, 2, 66, 80
4, 317880, Note_on_c, 2, 42, 95
4, 317890, Note_on_c, 2, 49, 95
4, 317900, Note_on_c, 2, 54, 95
4, 317910, Note_on_c, 2, 57, 95
4, 317920, Note_on_c, 2, 61, 95
4, 317930, Note_on_c, 2, 66, 95
4, 317998, Note_off_c, 2, 42, 80
4, 317998, Note_off_c, 2, 49, 80
4, 317998, Note_off_c, 2, 57, 80
4, 317998, Note_off_c, 2, 61, 80
4, 317998, Note_off_c, 2, 54, 80
4, 317998, Note_off_c, 2, 66, 80
4, 318000, Note_on_c, 2, 66, 95
4, 318010, Note_on_c, 2, 61, 95
4, 318020, Note_on_c, 2, 57, 95
4, 318030, Note_on_c, 2, 54, 95
4, 318040, Note_on_c, 2, 49, 95
4, 318050, Note_on_c, 2, 42, 95
4, 318238, Note_off_c, 2, 66, 80
4, 318238, Note_off_c, 2, 61, 80
4, 318238, Note_off_c, 2, 54, 80
4, 318238, Note_off_c, 2, 49, 80
4, 318238, Note_off_c, 2, 57, 80
4, 318238, Note_off_c, 2, 42, 80
4, 318240, Note_on_c, 2, 42, 95
4, 318250, Note_on_c, 2, 49, 95
4, 318260, Note_on_c, 2, 54, 95
4, 318270, Note_on_c, 2, 57, 95
4, 318280, Note_on_c, 2, 61, 95
4, 318290, Note_on_c, 2, 66, 95
4, 318478, Note_off_c, 2, 42, 80
4, 318478, Note_off_c, 2, 49, 80
4, 318478, Note_off_c, 2, 57, 80
4, 318478, Note_off_c, 2, 61, 80
4, 318478, Note_off_c, 2, 54, 80
4, 318478, Note_off_c, 2, 66, 80
4, 318480, Note_on_c, 2, 42, 95
4, 318490, Note_on_c, 2, 49, 95
4, 318500, Note_on_c, 2, 54, 95
4, 318510, Note_on_c, 2, 57, 95
4, 318520, Note_on_c, 2, 61, 95
4, 318530, Note_on_c, 2, 66, 95
4, 318598, Note_off_c, 2, 42, 80
4, 318598, Note_off_c, 2, 49, 80
4, 318598, Note_off_c, 2, 57, 80
4, 318598, Note_off_c, 2, 61, 80
4, 318598, Note_off_c, 2, 54, 80
4, 318598, Note_off_c, 2, 66, 80
4, 318600, Note_on_c, 2, 66, 95
4, 318610, Note_on_c, 2, 61, 95
4, 318620, Note_on_c, 2, 57, 95
4, 318630, Note_on_c, 2, 54, 95
4, 318640, Note_on_c, 2, 49, 95
4, 318650, Note_on_c, 2, 42, 95
4, 318718, Note_off_c, 2, 66, 80
4, 318718, Note_off_c, 2, 61, 80
4, 318718, Note_off_c, 2, 54, 80
4, 318718, Note_off_c, 2, 49, 80
4, 318718, Note_off_c, 2, 57, 80
4, 318718, Note_off_c, 2, 42, 80
4, 318720, Note_on_c, 2, 40, 95
4, 318730, Note_on_c, 2, 47, 95
4, 318740, Note_on_c, 2, 52, 95
4, 318750, Note_on_c, 2, 55, 95
4, 318760, Note_on_c, 2, 59, 95
4, 318770, Note_on_c, 2, 64, 95
4, 319078, Note_off_c, 2, 40, 80
4, 319078, Note_off_c, 2, 47, 80
4, 319078, Note_off_c, 2, 55, 80
4, 319078, Note_off_c, 2, 59, 80
4, 319078, Note_off_c, 2, 52, 80
4, 319078, Note_off_c, 2, 64, 80
4, 319080, Note_on_c, 2, 40, 95
4, 319090, Note_on_c, 2, 47, 95
4, 319100, Note_on_c, 2, 52, 95
4, 319110, Note_on_c, 2, 55, 95
4, 319120, Note_on_c, 2, 59, 95
4, 319130, Note_on_c, 2, 64, 95
4, 319198, Note_off_c, 2, 40, 80
4, 319198, Note_off_c, 2, 47, 80
4, 319198, Note_off_c, 2, 55, 80
4, 319198, Note_off_c, 2, 59, 80
4, 319198, Note_off_c, 2, 52, 80
4, 319198, Note_off_c, 2, 64, 80
4, 319200, Note_on_c, 2, 64, 95
4, 319210, Note_on_c, 2, 59, 95
4, 319220, Note_on_c, 2, 55, 95
4, 319230, Note_on_c, 2, 52, 95
4, 319240, Note_on_c, 2, 47, 95
4, 319250, Note_on_c, 2, 40, 95
4, 319438, Note_off_c, 2, 64, 80
4, 319438, Note_off_c, 2, 59, 80
4, 319438, Note_off_c, 2, 52, 80
4, 319438, Note_off_c, 2, 47, 80
4, 319438, Note_off_c, 2, 55, 80
4, 319438, Note_off_c, 2, 40, 80
4, 319440, Note_on_c, 2, 40, 95
4, 319450, Note_on_c, 2, 47, 95
4, 319460, Note_on_c, 2, 52, 95
4, 319470, Note_on_c, 2, 55, 95
4, 319480, Note_on_c, 2, 59, 95
4, 319490, Note_on_c, 2, 64, 95
4, 319798, Note_off_c, 2, 40, 80
4, 319798, Note_off_c, 2, 47, 80
4, 319798, Note_off_c, 2, 55, 80
4, 319798, Note_off_c, 2, 59, 80
4, 319798, Note_off_c, 2, 52, 80
4, 319798, Note_off_c, 2, 64, 80
4, 319800, Note_on_c, 2, 40, 95
4, 319810, Note_on_c, 2, 47, 95
4, 319820, Note_on_c, 2, 52, 95
4, 319830, Note_on_c, 2, 55, 95
4, 319840, Note_on_c, 2, 59, 95
4, 319850, Note_on_c, 2, 64, 95
4, 319918, Note_off_c, 2, 40, 80
4, 319918, Note_off_c, 2, 47, 80
4, 319918, Note_off_c, 2, 55, 80
4, 319918, Note_off_c, 2, 59, 80
4, 319918, Note_off_c, 2, 52, 80
4, 319918, Note_off_c, 2, 64, 80
4, 319920, Note_on_c, 2, 64, 95
4, 319930, Note_on_c, 2, 59, 95
4, 319940, Note_on_c, 2, 55, 95
4, 319950, Note_on_c, 2, 52, 95
4, 319960, Note_on_c, 2, 47, 95
4, 319970, Note_on_c, 2, 40, 95
4, 320158, Note_off_c, 2, 64, 80
4, 320158, Note_off_c, 2, 59, 80
4, 320158, Note_off_c, 2, 52, 80
4, 320158, Note_off_c, 2, 47, 80
4, 320158, Note_off_c, 2, 55, 80
4, 320158, Note_off_c, 2, 40, 80
4, 320160, Note_on_c, 2, 40, 95
4, 320170, Note_on_c, 2, 47, 95
4, 320180, Note_on_c, 2, 52, 95
4, 320190, Note_on_c, 2, 55, 95
4, 320200, Note_on_c, 2, 59, 95
4, 320210, Note_on_c, 2, 64, 95
4, 320278, Note_off_c, 2, 40, 80
4, 320278, Note_off_c, 2, 47, 80
4, 320278, Note_off_c, 2, 55, 80
4, 320278, Note_off_c, 2, 59, 80
4, 320278, Note_off_c, 2, 52, 80
4, 320278, Note_off_c, 2, 64, 80
4, 320280, Note_on_c, 2, 64, 95
4, 320290, Note_on_c, 2, 59, 95
4, 320300, Note_on_c, 2, 55, 95
4, 320310, Note_on_c, 2, 52, 95
4, 320320, Note_on_c, 2, 47, 95
4, 320330, Note_on_c, 2, 40, 95
4, 320398, Note_off_c, 2, 64, 80
4, 320398, Note_off_c, 2, 59, 80
4, 320398, Note_off_c, 2, 52, 80
4, 320398, Note_off_c, 2, 47, 80
4, 320398, Note_off_c, 2, 55, 80
4, 320398, Note_off_c, 2, 40, 80
4, 320400, Note_on_c, 2, 40, 95
4, 320410, Note_on_c, 2, 47, 95
4, 320420, Note_on_c, 2, 52, 95
4, 320430, Note_on_c, 2, 55, 95
4, 320440, Note_on_c, 2, 59, 95
4, 320450, Note_on_c, 2, 64, 95
4, 320638, Note_off_c, 2, 40, 80
4, 320638, Note_off_c, 2, 47, 80
4, 320638, Note_off_c, 2, 55, 80
4, 320638, Note_off_c, 2, 59, 80
4, 320638, Note_off_c, 2, 52, 80
4, 320638, Note_off_c, 2, 64, 80
4, 320640, Note_on_c, 2, 43, 95
4, 320650, Note_on_c, 2, 50, 95
4, 320660, Note_on_c, 2, 57, 95
4, 320670, Note_on_c, 2, 62, 95
4, 320680, Note_on_c, 2, 67, 95
4, 320998, Note_off_c, 2, 43, 80
4, 320998, Note_off_c, 2, 50, 80
4, 320998, Note_off_c, 2, 62, 80
4, 320998, Note_off_c, 2, 67, 80
4, 320998, Note_off_c, 2, 57, 80
4, 321000, Note_on_c, 2, 43, 95
4, 321010, Note_on_c, 2, 50, 95
4, 321020, Note_on_c, 2, 57, 95
4, 321030, Note_on_c, 2, 62, 95
4, 321040, Note_on_c, 2, 67, 95
4, 321118, Note_off_c, 2, 43, 80
4, 321118, Note_off_c, 2, 50, 80
4, 321118, Note_off_c, 2, 62, 80
4, 321118, Note_off_c, 2, 67, 80
4, 321118, Note_off_c, 2, 57, 80
4, 321120, Note_on_c, 2, 67, 95
4, 321130, Note_on_c, 2, 62, 95
4, 321140, Note_on_c, 2, 57, 95
4, 321150, Note_on_c, 2, 50, 95
4, 321160, Note_on_c, 2, 43, 95
4, 321358, Note_off_c, 2, 67, 80
4, 321358, Note_off_c, 2, 62, 80
4, 321358, Note_off_c, 2, 50, 80
4, 321358, Note_off_c, 2, 43, 80
4, 321358, Note_off_c, 2, 57, 80
4, 321360, Note_on_c, 2, 43, 95
4, 321370, Note_on_c, 2, 50, 95
4, 321380, Note_on_c, 2, 57, 95
4, 321390, Note_on_c, 2, 62, 95
4, 321400, Note_on_c, 2, 67, 95
4, 321478, Note_off_c, 2, 43, 80
4, 321478, Note_off_c, 2, 50, 80
4, 321478, Note_off_c, 2, 62, 80
4, 321478, Note_off_c, 2, 67, 80
4, 321478, Note_off_c, 2, 57, 80
4, 321480, Note_on_c, 2, 67, 95
4, 321490, Note_on_c, 2, 62, 95
4, 321500, Note_on_c, 2, 57, 95
4, 321510, Note_on_c, 2, 50, 95
4, 321520, Note_on_c, 2, 43, 95
4, 321598, Note_off_c, 2, 67, 80
4, 321598, Note_off_c, 2, 62, 80
4, 321598, Note_off_c, 2, 50, 80
4, 321598, Note_off_c, 2, 43, 80
4, 321598, Note_off_c, 2, 57, 80
4, 321600, Note_on_c, 2, 45, 95
4, 321610, Note_on_c, 2, 52, 95
4, 321620, Note_on_c, 2, 57, 95
4, 321630, Note_on_c, 2, 62, 95
4, 321640, Note_on_c, 2, 64, 95
4, 321958, Note_off_c, 2, 45, 80
4, 321958, Note_off_c, 2, 52, 80
4, 321958, Note_off_c, 2, 62, 80
4, 321958, Note_off_c, 2, 64, 80
4, 321958, Note_off_c, 2, 57, 80
4, 321960, Note_on_c, 2, 45, 95
4, 321970, Note_on_c, 2, 52, 95
4, 321980, Note_on_c, 2, 57, 95
4, 321990, Note_on_c, 2, 62, 95
4, 322000, Note_on_c, 2, 64, 95
4, 322078, Note_off_c, 2, 45, 80
4, 322078, Note_off_c, 2, 52, 80
4, 322078, Note_off_c, 2, 62, 80
4, 322078, Note_off_c, 2, 64, 80
4, 322078, Note_off_c, 2, 57, 80
4, 322080, Note_on_c, 2, 64, 95
4, 322090, Note_on_c, 2, 62, 95
4, 322100, Note_on_c, 2, 57, 95
4, 322110, Note_on_c, 2, 52, 95
4, 322120, Note_on_c, 2, 45, 95
4, 322318, Note_off_c, 2, 64, 80
4, 322318, Note_off_c, 2, 62, 80
4, 322318, Note_off_c, 2, 52, 80
4, 322318, Note_off_c, 2, 45, 80
4, 322318, Note_off_c, 2, 57, 80
4, 322320, Note_on_c, 2, 45, 95
4, 322330, Note_on_c, 2, 52, 95
4, 322340, Note_on_c, 2, 57, 95
4, 322350, Note_on_c, 2, 62, 95
4, 322360, Note_on_c, 2, 64, 95
4, 322438, Note_off_c, 2, 45, 80
4, 322438, Note_off_c, 2, 52, 80
4, 322438, Note_off_c, 2, 62, 80
4, 322438, Note_off_c, 2, 64, 80
4, 322438, Note_off_c, 2, 57, 80
4, 322440, Note_on_c, 2, 64, 95
4, 322450, Note_on_c, 2, 62, 95
4, 322460, Note_on_c, 2, 57, 95
4, 322470, Note_on_c, 2, 52, 95
4, 322480, Note_on_c, 2, 45, 95
4, 322558, Note_off_c, 2, 64, 80
4, 322558, Note_off_c, 2, 62, 80
4, 322558, Note_off_c, 2, 52, 80
4, 322558, Note_off_c, 2, 45, 80
4, 322558, Note_off_c, 2, 57, 80
4, 322560, Note_on_c, 2, 50, 95
4, 322570, Note_on_c, 2, 57, 95
4, 322580, Note_on_c, 2, 62, 95
4, 322590, Note_on_c, 2, 66, 95
4, 322918, Note_off_c, 2, 50, 80
4, 322918, Note_off_c, 2, 57, 80
4, 322918, Note_off_c, 2, 66, 80
4, 322918, Note_off_c, 2, 62, 80
4, 322920, Note_on_c, 2, 50, 95
4, 322930, Note_on_c, 2, 57, 95
4, 322940, Note_on_c, 2, 62, 95
4, 322950, Note_on_c, 2, 66, 95
4, 323038, Note_off_c, 2, 50, 80
4, 323038, Note_off_c, 2, 57, 80
4, 323038, Note_off_c, 2, 66, 80
4, 323038, Note_off_c, 2, 62, 80
4, 323040, Note_on_c, 2, 66, 95
4, 323050, Note_on_c, 2, 62, 95
4, 323060, Note_on_c, 2, 57, 95
4, 323070, Note_on_c, 2, 50, 95
4, 323278, Note_off_c, 2, 66, 80
4, 323278, Note_off_c, 2, 62, 80
4, 323278, Note_off_c, 2, 50, 80
4, 323278, Note_off_c, 2, 57, 80
4, 323280, Note_on_c, 2, 50, 95
4, 323290, Note_on_c, 2, 57, 95
4, 323300, Note_on_c, 2, 62, 95
4, 323310, Note_on_c, 2, 66, 95
4, 323638, Note_off_c, 2, 50, 80
4, 323638, Note_off_c, 2, 57, 80
4, 323638, Note_off_c, 2, 66, 80
4, 323638, Note_off_c, 2, 62, 80
4, 323640, Note_on_c, 2, 50, 95
4, 323650, Note_on_c, 2, 57, 95
4, 323660, Note_on_c, 2, 62, 95
4, 323670, Note_on_c, 2, 66, 95
4, 323758, Note_off_c, 2, 50, 80
4, 323758, Note_off_c, 2, 57, 80
4, 323758, Note_off_c, 2, 66, 80
4, 323758, Note_off_c, 2, 62, 80
4, 323760, Note_on_c, 2, 66, 95
4, 323770, Note_on_c, 2, 62, 95
4, 323780, Note_on_c, 2, 57, 95
4, 323790, Note_on_c, 2, 50, 95
4, 323998, Note_off_c, 2, 66, 80
4, 323998, Note_off_c, 2, 62, 80
4, 323998, Note_off_c, 2, 50, 80
4, 323998, Note_off_c, 2, 57, 80
4, 324000, Note_on_c, 2, 50, 95
4, 324010, Note_on_c, 2, 57, 95
4, 324020, Note_on_c, 2, 62, 95
4, 324030, Note_on_c, 2, 66, 95
4, 324238, Note_off_c, 2, 50, 80
4, 324238, Note_off_c, 2, 57, 80
4, 324238, Note_off_c, 2, 66, 80
4, 324238, Note_off_c, 2, 62, 80
4, 324240, Note_on_c, 2, 50, 95
4, 324250, Note_on_c, 2, 57, 95
4, 324260, Note_on_c, 2, 62, 95
4, 324270, Note_on_c, 2, 66, 95
4, 324358, Note_off_c, 2, 50, 80
4, 324358, Note_off_c, 2, 57, 80
4, 324358, Note_off_c, 2, 66, 80
4, 324358, Note_off_c, 2, 62, 80
4, 324360, Note_on_c, 2, 66, 95
4, 324370, Note_on_c, 2, 62, 95
4, 324380, Note_on_c, 2, 57, 95
4, 324390, Note_on_c, 2, 50, 95
4, 324478, Note_off_c, 2, 66, 80
4, 324478, Note_off_c, 2, 62, 80
4, 324478, Note_off_c, 2, 50, 80
4, 324478, Note_off_c, 2, 57, 80
4, 324480, Note_on_c, 2, 42, 95
4, 324490, Note_on_c, 2, 49, 95
4, 324500, Note_on_c, 2, 54, 95
4, 324510, Note_on_c, 2, 57, 95
4, 324520, Note_on_c, 2, 61, 95
4, 324530, Note_on_c, 2, 66, 95
4, 324838, Note_off_c, 2, 42, 80
4, 324838, Note_off_c, 2, 49, 80
4, 324838, Note_off_c, 2, 57, 80
4, 324838, Note_off_c, 2, 61, 80
4, 324838, Note_off_c, 2, 54, 80
4, 324838, Note_off_c, 2, 66, 80
4, 324840, Note_on_c, 2, 42, 95
4, 324850, Note_on_c, 2, 49, 95
4, 324860, Note_on_c, 2, 54, 95
4, 324870, Note_on_c, 2, 57, 95
4, 324880, Note_on_c, 2, 61, 95
4, 324890, Note_on_c, 2, 66, 95
4, 324958, Note_off_c, 2, 42, 80
4, 324958, Note_off_c, 2, 49, 80
4, 324958, Note_off_c, 2, 57, 80
4, 324958, Note_off_c, 2, 61, 80
4, 324958, Note_off_c, 2, 54, 80
4, 324958, Note_off_c, 2, 66, 80
4, 324960, Note_on_c, 2, 66, 95
4, 324970, Note_on_c, 2, 61, 95
4, 324980, Note_on_c, 2, 57, 95
4, 324990, Note_on_c, 2, 54, 95
4, 325000, Note_on_c, 2, 49, 95
4, 325010, Note_on_c, 2, 42, 95
4, 325198, Note_off_c, 2, 66, 80
4, 325198, Note_off_c, 2, 61, 80
4, 325198, Note_off_c, 2, 54, 80
4, 325198, Note_off_c, 2, 49, 80
4, 325198, Note_off_c, 2, 57, 80
4, 325198, Note_off_c, 2, 42, 80
4, 325200, Note_on_c, 2, 42, 95
4, 325210, Note_on_c, 2, 49, 95
4, 325220, Note_on_c, 2, 54, 95
4, 325230, Note_on_c, 2, 57, 95
4, 325240, Note_on_c, 2, 61, 95
4, 325250, Note_on_c, 2, 66, 95
4, 325558, Note_off_c, 2, 42, 80
4, 325558, Note_off_c, 2, 49, 80
4, 325558, Note_off_c, 2, 57, 80
4, 325558, Note_off_c, 2, 61, 80
4, 325558, Note_off_c, 2, 54, 80
4, 325558, Note_off_c, 2, 66, 80
4, 325560, Note_on_c, 2, 42, 95
4, 325570, Note_on_c, 2, 49, 95
4, 325580, Note_on_c, 2, 54, 95
4, 325590, Note_on_c, 2, 57, 95
4, 325600, Note_on_c, 2, 61, 95
4, 325610, Note_on_c, 2, 66, 95
4, 325678, Note_off_c, 2, 42, 80
4, 325678, Note_off_c, 2, 49, 80
4, 325678, Note_off_c, 2, 57, 80
4, 325678, Note_off_c, 2, 61, 80
4, 325678, Note_off_c, 2, 54, 80
4, 325678, Note_off_c, 2, 66, 80
4, 325680, Note_on_c, 2, 66, 95
4, 325690, Note_on_c, 2, 61, 95
4, 325700, Note_on_c, 2, 57, 95
4, 325710, Note_on_c, 2, 54, 95
4, 325720, Note_on_c, 2, 49, 95
4, 325730, Note_on_c, 2, 42, 95
4, 325918, Note_off_c, 2, 66, 80
4, 325918, Note_off_c, 2, 61, 80
4, 325918, Note_off_c, 2, 54, 80
4, 325918, Note_off_c, 2, 49, 80
4, 325918, Note_off_c, 2, 57, 80
4, 325918, Note_off_c, 2, 42, 80
4, 325920, Note_on_c, 2, 42, 95
4, 325930, Note_on_c, 2, 49, 95
4, 325940, Note_on_c, 2, 54, 95
4, 325950, Note_on_c, 2, 57, 95
4, 325960, Note_on_c, 2, 61, 95
4, 325970, Note_on_c, 2, 66, 95
4, 326158, Note_off_c, 2, 42, 80
4, 326158, Note_off_c, 2, 49, 80
4, 326158, Note_off_c, 2, 57, 80
4, 326158, Note_off_c, 2, 61, 80
4, 326158, Note_off_c, 2, 54, 80
4, 326158, Note_off_c, 2, 66, 80
4, 326160, Note_on_c, 2, 42, 95
4, 326170, Note_on_c, 2, 49, 95
4, 326180, Note_on_c, 2, 54, 95
4, 326190, Note_on_c, 2, 57, 95
4, 326200, Note_on_c, 2, 61, 95
4, 326210, Note_on_c, 2, 66, 95
4, 326278, Note_off_c, 2, 42, 80
4, 326278, Note_off_c, 2, 49, 80
4, 326278, Note_off_c, 2, 57, 80
4, 326278, Note_off_c, 2, 61, 80
4, 326278, Note_off_c, 2, 54, 80
4, 326278, Note_off_c, 2, 66, 80
4, 326280, Note_on_c, 2, 66, 95
4, 326290, Note_on_c, 2, 61, 95
4, 326300, Note_on_c, 2, 57, 95
4, 326310, Note_on_c, 2, 54, 95
4, 326320, Note_on_c, 2, 49, 95
4, 326330, Note_on_c, 2, 42, 95
4, 326398, Note_off_c, 2, 66, 80
4, 326398, Note_off_c, 2, 61, 80
4, 326398, Note_off_c, 2, 54, 80
4, 326398, Note_off_c, 2, 49, 80
4, 326398, Note_off_c, 2, 57, 80
4, 326398, Note_off_c, 2, 42, 80
4, 326400, Note_on_c, 2, 43, 95
4, 326410, Note_on_c, 2, 50, 95
4, 326420, Note_on_c, 2, 55, 95
4, 326430, Note_on_c, 2, 62, 95
4, 326440, Note_on_c, 2, 67, 95
4, 326758, Note_off_c, 2, 43, 80
4, 326758, Note_off_c, 2, 50, 80
4, 326758, Note_off_c, 2, 62, 80
4, 326758, Note_off_c, 2, 67, 80
4, 326758, Note_off_c, 2, 55, 80
4, 326760, Note_on_c, 2, 43, 95
4, 326770, Note_on_c, 2, 50, 95
4, 326780, Note_on_c, 2, 55, 95
4, 326790, Note_on_c, 2, 62, 95
4, 326800, Note_on_c, 2, 67, 95
4, 326878, Note_off_c, 2, 43, 80
4, 326878, Note_off_c, 2, 50, 80
4, 326878, Note_off_c, 2, 62, 80
4, 326878, Note_off_c, 2, 67, 80
4, 326878, Note_off_c, 2, 55, 80
4, 326880, Note_on_c, 2, 67, 95
4, 326890, Note_on_c, 2, 62, 95
4, 326900, Note_on_c, 2, 55, 95
4, 326910, Note_on_c, 2, 50, 95
4, 326920, Note_on_c, 2, 43, 95
4, 327118, Note_off_c, 2, 67, 80
4, 327118, Note_off_c, 2, 62, 80
4, 327118, Note_off_c, 2, 50, 80
4, 327118, Note_off_c, 2, 43, 80
4, 327118, Note_off_c, 2, 55, 80
4, 327120, Note_on_c, 2, 43, 95
4, 327130, Note_on_c, 2, 50, 95
4, 327140, Note_on_c, 2, 55, 95
4, 327150, Note_on_c, 2, 62, 95
4, 327160, Note_on_c, 2, 67, 95
4, 327478, Note_off_c, 2, 43, 80
4, 327478, Note_off_c, 2, 50, 80
4, 327478, Note_off_c, 2, 62, 80
4, 327478, Note_off_c, 2, 67, 80
4, 327478, Note_off_c, 2, 55, 80
4, 327480, Note_on_c, 2, 43, 95
4, 327490, Note_on_c, 2, 50, 95
4, 327500, Note_on_c, 2, 55, 95
4, 327510, Note_on_c, 2, 62, 95
4, 327520, Note_on_c, 2, 67, 95
4, 327598, Note_off_c, 2, 43, 80
4, 327598, Note_off_c, 2, 50, 80
4, 327598, Note_off_c, 2, 62, 80
4, 327598, Note_off_c, 2, 67, 80
4, 327598, Note_off_c, 2, 55, 80
4, 327600, Note_on_c, 2, 67, 95
4, 327610, Note_on_c, 2, 62, 95
4, 327620, Note_on_c, 2, 55, 95
4, 327630, Note_on_c, 2, 50, 95
4, 327640, Note_on_c, 2, 43, 95
4, 327838, Note_off_c, 2, 67, 80
4, 327838, Note_off_c, 2, 62, 80
4, 327838, Note_off_c, 2, 50, 80
4, 327838, Note_off_c, 2, 43, 80
4, 327838, Note_off_c, 2, 55, 80
4, 327840, Note_on_c, 2, 43, 95
4, 327850, Note_on_c, 2, 50, 95
4, 327860, Note_on_c, 2, 55, 95
4, 327870, Note_on_c, 2, 62, 95
4, 327880, Note_on_c, 2, 67, 95
4, 328078, Note_off_c, 2, 43, 80
4, 328078, Note_off_c, 2, 50, 80
4, 328078, Note_off_c, 2, 62, 80
4, 328078, Note_off_c, 2, 67, 80
4, 328078, Note_off_c, 2, 55, 80
4, 328080, Note_on_c, 2, 43, 95
4, 328090, Note_on_c, 2, 50, 95
4, 328100, Note_on_c, 2, 55, 95
4, 328110, Note_on_c, 2, 62, 95
4, 328120, Note_on_c, 2, 67, 95
4, 328198, Note_off_c, 2, 43, 80
4, 328198, Note_off_c, 2, 50, 80
4, 328198, Note_off_c, 2, 62, 80
4, 328198, Note_off_c, 2, 67, 80
4, 328198, Note_off_c, 2, 55, 80
4, 328200, Note_on_c, 2, 67, 95
4, 328210, Note_on_c, 2, 62, 95
4, 328220, Note_on_c, 2, 55, 95
4, 328230, Note_on_c, 2, 50, 95
4, 328240, Note_on_c, 2, 43, 95
4, 328318, Note_off_c, 2, 67, 80
4, 328318, Note_off_c, 2, 62, 80
4, 328318, Note_off_c, 2, 50, 80
4, 328318, Note_off_c, 2, 43, 80
4, 328318, Note_off_c, 2, 55, 80
4, 328320, Note_on_c, 2, 40, 95
4, 328330, Note_on_c, 2, 47, 95
4, 328340, Note_on_c, 2, 52, 95
4, 328350, Note_on_c, 2, 55, 95
4, 328360, Note_on_c, 2, 59, 95
4, 328370, Note_on_c, 2, 64, 95
4, 328678, Note_off_c, 2, 40, 80
4, 328678, Note_off_c, 2, 47, 80
4, 328678, Note_off_c, 2, 55, 80
4, 328678, Note_off_c, 2, 59, 80
4, 328678, Note_off_c, 2, 52, 80
4, 328678, Note_off_c, 2, 64, 80
4, 328680, Note_on_c, 2, 40, 95
4, 328690, Note_on_c, 2, 47, 95
4, 328700, Note_on_c, 2, 52, 95
4, 328710, Note_on_c, 2, 55, 95
4, 328720, Note_on_c, 2, 59, 95
4, 328730, Note_on_c, 2, 64, 95
4, 328798, Note_off_c, 2, 40, 80
4, 328798, Note_off_c, 2, 47, 80
4, 328798, Note_off_c, 2, 55, 80
4, 328798, Note_off_c, 2, 59, 80
4, 328798, Note_off_c, 2, 52, 80
4, 328798, Note_off_c, 2, 64, 80
4, 328800, Note_on_c, 2, 64, 95
4, 328810, Note_on_c, 2, 59, 95
4, 328820, Note_on_c, 2, 55, 95
4, 328830, Note_on_c, 2, 52, 95
4, 328840, Note_on_c, 2, 47, 95
4, 328850, Note_on_c, 2, 40, 95
4, 329038, Note_off_c, 2, 64, 80
4, 329038, Note_off_c, 2, 59, 80
4, 329038, Note_off_c, 2, 52, 80
4, 329038, Note_off_c, 2, 47, 80
4, 329038, Note_off_c, 2, 55, 80
4, 329038, Note_off_c, 2, 40, 80
4, 329040, Note_on_c, 2, 40, 95
4, 329050, Note_on_c, 2, 47, 95
4, 329060, Note_on_c, 2, 52, 95
4, 329070, Note_on_c, 2, 55, 95
4, 329080, Note_on_c, 2, 59, 95
4, 329090, Note_on_c, 2, 64, 95
4, 329398, Note_off_c, 2, 40, 80
4, 329398, Note_off_c, 2, 47, 80
4, 329398, Note_off_c, 2, 55, 80
4, 329398, Note_off_c, 2, 59, 80
4, 329398, Note_off_c, 2, 52, 80
4, 329398, Note_off_c, 2, 64, 80
4, 329400, Note_on_c, 2, 40, 95
4, 329410, Note_on_c, 2, 47, 95
4, 329420, Note_on_c, 2, 52, 95
4, 329430, Note_on_c, 2, 55, 95
4, 329440, Note_on_c, 2, 59, 95
4, 329450, Note_on_c, 2, 64, 95
4, 329518, Note_off_c, 2, 40, 80
4, 329518, Note_off_c, 2, 47, 80
4, 329518, Note_off_c, 2, 55, 80
4, 329518, Note_off_c, 2, 59, 80
4, 329518, Note_off_c, 2, 52, 80
4, 329518, Note_off_c, 2, 64, 80
4, 329520, Note_on_c, 2, 64, 95
4, 329530, Note_on_c, 2, 59, 95
4, 329540, Note_on_c, 2, 55, 95
4, 329550, Note_on_c, 2, 52, 95
4, 329560, Note_on_c, 2, 47, 95
4, 329570, Note_on_c, 2, 40, 95
4, 329758, Note_off_c, 2, 64, 80
4, 329758, Note_off_c, 2, 59, 80
4, 329758, Note_off_c, 2, 52, 80
4, 329758, Note_off_c, 2, 47, 80
4, 329758, Note_off_c, 2, 55, 80
4, 329758, Note_off_c, 2, 40, 80
4, 329760, Note_on_c, 2, 40, 95
4, 329770, Note_on_c, 2, 47, 95
4, 329780, Note_on_c, 2, 52, 95
4, 329790, Note_on_c, 2, 55, 95
4, 329800, Note_on_c, 2, 59, 95
4, 329810, Note_on_c, 2, 64, 95
4, 329878, Note_off_c, 2, 40, 80
4, 329878, Note_off_c, 2, 47, 80
4, 329878, Note_off_c, 2, 55, 80
4, 329878, Note_off_c, 2, 59, 80
4, 329878, Note_off_c, 2, 52, 80
4, 329878, Note_off_c, 2, 64, 80
4, 329880, Note_on_c, 2, 64, 95
4, 329890, Note_on_c, 2, 59, 95
4, 329900, Note_on_c, 2, 55, 95
4, 329910, Note_on_c, 2, 52, 95
4, 329920, Note_on_c, 2, 47, 95
4, 329930, Note_on_c, 2, 40, 95
4, 329998, Note_off_c, 2, 64, 80
4, 329998, Note_off_c, 2, 59, 80
4, 329998, Note_off_c, 2, 52, 80
4, 329998, Note_off_c, 2, 47, 80
4, 329998, Note_off_c, 2, 55, 80
4, 329998, Note_off_c, 2, 40, 80
4, 330000, Note_on_c, 2, 40, 95
4, 330010, Note_on_c, 2, 47, 95
4, 330020, Note_on_c, 2, 52, 95
4, 330030, Note_on_c, 2, 55, 95
4, 330040, Note_on_c, 2, 59, 95
4, 330050, Note_on_c, 2, 64, 95
4, 330238, Note_off_c, 2, 40, 80
4, 330238, Note_off_c, 2, 47, 80
4, 330238, Note_off_c, 2, 55, 80
4, 330238, Note_off_c, 2, 59, 80
4, 330238, Note_off_c, 2, 52, 80
4, 330238, Note_off_c, 2, 64, 80
4, 330240, Note_on_c, 2, 50, 95
4, 330250, Note_on_c, 2, 57, 95
4, 330260, Note_on_c, 2, 62, 95
4, 330270, Note_on_c, 2, 66, 95
4, 330598, Note_off_c, 2, 50, 80
4, 330598, Note_off_c, 2, 57, 80
4, 330598, Note_off_c, 2, 66, 80
4, 330598, Note_off_c, 2, 62, 80
4, 330600, Note_on_c, 2, 50, 95
4, 330610, Note_on_c, 2, 57, 95
4, 330620, Note_on_c, 2, 62, 95
4, 330630, Note_on_c, 2, 66, 95
4, 330718, Note_off_c, 2, 50, 80
4, 330718, Note_off_c, 2, 57, 80
4, 330718, Note_off_c, 2, 66, 80
4, 330718, Note_off_c, 2, 62, 80
4, 330720, Note_on_c, 2, 66, 95
4, 330730, Note_on_c, 2, 62, 95
4, 330740, Note_on_c, 2, 57, 95
4, 330750, Note_on_c, 2, 50, 95
4, 330958, Note_off_c, 2, 66, 80
4, 330958, Note_off_c, 2, 62, 80
4, 330958, Note_off_c, 2, 50, 80
4, 330958, Note_off_c, 2, 57, 80
4, 330960, Note_on_c, 2, 50, 95
4, 330970, Note_on_c, 2, 57, 95
4, 330980, Note_on_c, 2, 62, 95
4, 330990, Note_on_c, 2, 66, 95
4, 331318, Note_off_c, 2, 50, 80
4, 331318, Note_off_c, 2, 57, 80
4, 331318, Note_off_c, 2, 66, 80
4, 331318, Note_off_c, 2, 62, 80
4, 331320, Note_on_c, 2, 50, 95
4, 331330, Note_on_c, 2, 57, 95
4, 331340, Note_on_c, 2, 62, 95
4, 331350, Note_on_c, 2, 66, 95
4, 331438, Note_off_c, 2, 50, 80
4, 331438, Note_off_c, 2, 57, 80
4, 331438, Note_off_c, 2, 66, 80
4, 331438, Note_off_c, 2, 62, 80
4, 331440, Note_on_c, 2, 66, 95
4, 331450, Note_on_c, 2, 62, 95
4, 331460, Note_on_c, 2, 57, 95
4, 331470, Note_on_c, 2, 50, 95
4, 331678, Note_off_c, 2, 66, 80
4, 331678, Note_off_c, 2, 62, 80
4, 331678, Note_off_c, 2, 50, 80
4, 331678, Note_off_c, 2, 57, 80
4, 331680, Note_on_c, 2, 50, 95
4, 331690, Note_on_c, 2, 57, 95
4, 331700, Note_on_c, 2, 62, 95
4, 331710, Note_on_c, 2, 66, 95
4, 331918, Note_off_c, 2, 50, 80
4, 331918, Note_off_c, 2, 57, 80
4, 331918, Note_off_c, 2, 66, 80
4, 331918, Note_off_c, 2, 62, 80
4, 331920, Note_on_c, 2, 50, 95
4, 331930, Note_on_c, 2, 57, 95
4, 331940, Note_on_c, 2, 62, 95
4, 331950, Note_on_c, 2, 66, 95
4, 332038, Note_off_c, 2, 50, 80
4, 332038, Note_off_c, 2, 57, 80
4, 332038, Note_off_c, 2, 66, 80
4, 332038, Note_off_c, 2, 62, 80
4, 332040, Note_on_c, 2, 66, 95
4, 332050, Note_on_c, 2, 62, 95
4, 332060, Note_on_c, 2, 57, 95
4, 332070, Note_on_c, 2, 50, 95
4, 332158, Note_off_c, 2, 66, 80
4, 332158, Note_off_c, 2, 62, 80
4, 332158, Note_off_c, 2, 50, 80
4, 332158, Note_off_c, 2, 57, 80
4, 332160, Note_on_c, 2, 42, 95
4, 332170, Note_on_c, 2, 49, 95
4, 332180, Note_on_c, 2, 54, 95
4, 332190, Note_on_c, 2, 57, 95
4, 332200, Note_on_c, 2, 61, 95
4, 332210, Note_on_c, 2, 66, 95
4, 332518, Note_off_c, 2, 42, 80
4, 332518, Note_off_c, 2, 49, 80
4, 332518, Note_off_c, 2, 57, 80
4, 332518, Note_off_c, 2, 61, 80
4, 332518, Note_off_c, 2, 54, 80
4, 332518, Note_off_c, 2, 66, 80
4, 332520, Note_on_c, 2, 42, 95
4, 332530, Note_on_c, 2, 49, 95
4, 332540, Note_on_c, 2, 54, 95
4, 332550, Note_on_c, 2, 57, 95
4, 332560, Note_on_c, 2, 61, 95
4, 332570, Note_on_c, 2, 66, 95
4, 332638, Note_off_c, 2, 42, 80
4, 332638, Note_off_c, 2, 49, 80
4, 332638, Note_off_c, 2, 57, 80
4, 332638, Note_off_c, 2, 61, 80
4, 332638, Note_off_c, 2, 54, 80
4, 332638, Note_off_c, 2, 66, 80
4, 332640, Note_on_c, 2, 66, 95
4, 332650, Note_on_c, 2, 61, 95
4, 332660, Note_on_c, 2, 57, 95
4, 332670, Note_on_c, 2, 54, 95
4, 332680, Note_on_c, 2, 49, 95
4, 332690, Note_on_c, 2, 42, 95
4, 332878, Note_off_c, 2, 66, 80
4, 332878, Note_off_c, 2, 61, 80
4, 332878, Note_off_c, 2, 54, 80
4, 332878, Note_off_c, 2, 49, 80
4, 332878, Note_off_c, 2, 57, 80
4, 332878, Note_off_c, 2, 42, 80
4, 332880, Note_on_c, 2, 42, 95
4, 332890, Note_on_c, 2, 49, 95
4, 332900, Note_on_c, 2, 54, 95
4, 332910, Note_on_c, 2, 57, 95
4, 332920, Note_on_c, 2, 61, 95
4, 332930, Note_on_c, 2, 66, 95
4, 333238, Note_off_c, 2, 42, 80
4, 333238, Note_off_c, 2, 49, 80
4, 333238, Note_off_c, 2, 57, 80
4, 333238, Note_off_c, 2, 61, 80
4, 333238, Note_off_c, 2, 54, 80
4, 333238, Note_off_c, 2, 66, 80
4, 333240, Note_on_c, 2, 42, 95
4, 333250, Note_on_c, 2, 49, 95
4, 333260, Note_on_c, 2, 54, 95
4, 333270, Note_on_c, 2, 57, 95
4, 333280, Note_on_c, 2, 61, 95
4, 333290, Note_on_c, 2, 66, 95
4, 333358, Note_off_c, 2, 42, 80
4, 333358, Note_off_c, 2, 49, 80
4, 333358, Note_off_c, 2, 57, 80
4, 333358, Note_off_c, 2, 61, 80
4, 333358, Note_off_c, 2, 54, 80
4, 333358, Note_off_c, 2, 66, 80
4, 333360, Note_on_c, 2, 66, 95
4, 333370, Note_on_c, 2, 61, 95
4, 333380, Note_on_c, 2, 57, 95
4, 333390, Note_on_c, 2, 54, 95
4, 333400, Note_on_c, 2, 49, 95
4, 333410, Note_on_c, 2, 42, 95
4, 333598, Note_off_c, 2, 66, 80
4, 333598, Note_off_c, 2, 61, 80
4, 333598, Note_off_c, 2, 54, 80
4, 333598, Note_off_c, 2, 49, 80
4, 333598, Note_off_c, 2, 57, 80
4, 333598, Note_off_c, 2, 42, 80
4, 333600, Note_on_c, 2, 42, 95
4, 333610, Note_on_c, 2, 49, 95
4, 333620, Note_on_c, 2, 54, 95
4, 333630, Note_on_c, 2, 57, 95
4, 333640, Note_on_c, 2, 61, 95
4, 333650, Note_on_c, 2, 66, 95
4, 333838, Note_off_c, 2, 42, 80
4, 333838, Note_off_c, 2, 49, 80
4, 333838, Note_off_c, 2, 57, 80
4, 333838, Note_off_c, 2, 61, 80
4, 333838, Note_off_c, 2, 54, 80
4, 333838, Note_off_c, 2, 66, 80
4, 333840, Note_on_c, 2, 42, 95
4, 333850, Note_on_c, 2, 49, 95
4, 333860, Note_on_c, 2, 54, 95
4, 333870, Note_on_c, 2, 57, 95
4, 333880, Note_on_c, 2, 61, 95
4, 333890, Note_on_c, 2, 66, 95
4, 333958, Note_off_c, 2, 42, 80
4, 333958, Note_off_c, 2, 49, 80
4, 333958, Note_off_c, 2, 57, 80
4, 333958, Note_off_c, 2, 61, 80
4, 333958, Note_off_c, 2, 54, 80
4, 333958, Note_off_c, 2, 66, 80
4, 333960, Note_on_c, 2, 66, 95
4, 333970, Note_on_c, 2, 61, 95
4, 333980, Note_on_c, 2, 57, 95
4, 333990, Note_on_c, 2, 54, 95
4, 334000, Note_on_c, 2, 49, 95
4, 334010, Note_on_c, 2, 42, 95
4, 334078, Note_off_c, 2, 66, 80
4, 334078, Note_off_c, 2, 61, 80
4, 334078, Note_off_c, 2, 54, 80
4, 334078, Note_off_c, 2, 49, 80
4, 334078, Note_off_c, 2, 57, 80
4, 334078, Note_off_c, 2, 42, 80
4, 334080, Note_on_c, 2, 40, 95
4, 334090, Note_on_c, 2, 47, 95
4, 334100, Note_on_c, 2, 52, 95
4, 334110, Note_on_c, 2, 55, 95
4, 334120, Note_on_c, 2, 59, 95
4, 334130, Note_on_c, 2, 64, 95
4, 334438, Note_off_c, 2, 40, 80
4, 334438, Note_off_c, 2, 47, 80
4, 334438, Note_off_c, 2, 55, 80
4, 334438, Note_off_c, 2, 59, 80
4, 334438, Note_off_c, 2, 52, 80
4, 334438, Note_off_c, 2, 64, 80
4, 334440, Note_on_c, 2, 40, 95
4, 334450, Note_on_c, 2, 47, 95
4, 334460, Note_on_c, 2, 52, 95
4, 334470, Note_on_c, 2, 55, 95
4, 334480, Note_on_c, 2, 59, 95
4, 334490, Note_on_c, 2, 64, 95
4, 334558, Note_off_c, 2, 40, 80
4, 334558, Note_off_c, 2, 47, 80
4, 334558, Note_off_c, 2, 55, 80
4, 334558, Note_off_c, 2, 59, 80
4, 334558, Note_off_c, 2, 52, 80
4, 334558, Note_off_c, 2, 64, 80
4, 334560, Note_on_c, 2, 64, 95
4, 334570, Note_on_c, 2, 59, 95
4, 334580, Note_on_c, 2, 55, 95
4, 334590, Note_on_c, 2, 52, 95
4, 334600, Note_on_c, 2, 47, 95
4, 334610, Note_on_c, 2, 40, 95
4, 334798, Note_off_c, 2, 64, 80
4, 334798, Note_off_c, 2, 59, 80
4, 334798, Note_off_c, 2, 52, 80
4, 334798, Note_off_c, 2, 47, 80
4, 334798, Note_off_c, 2, 55, 80
4, 334798, Note_off_c, 2, 40, 80
4, 334800, Note_on_c, 2, 40, 95
4, 334810, Note_on_c, 2, 47, 95
4, 334820, Note_on_c, 2, 52, 95
4, 334830, Note_on_c, 2, 55, 95
4, 334840, Note_on_c, 2, 59, 95
4, 334850, Note_on_c, 2, 64, 95
4, 335158, Note_off_c, 2, 40, 80
4, 335158, Note_off_c, 2, 47, 80
4, 335158, Note_off_c, 2, 55, 80
4, 335158, Note_off_c, 2, 59, 80
4, 335158, Note_off_c, 2, 52, 80
4, 335158, Note_off_c, 2, 64, 80
4, 335160, Note_on_c, 2, 40, 95
4, 335170, Note_on_c, 2, 47, 95
4, 335180, Note_on_c, 2, 52, 95
4, 335190, Note_on_c, 2, 55, 95
4, 335200, Note_on_c, 2, 59, 95
4, 335210, Note_on_c, 2, 64, 95
4, 335278, Note_off_c, 2, 40, 80
4, 335278, Note_off_c, 2, 47, 80
4, 335278, Note_off_c, 2, 55, 80
4, 335278, Note_off_c, 2, 59, 80
4, 335278, Note_off_c, 2, 52, 80
4, 335278, Note_off_c, 2, 64, 80
4, 335280, Note_on_c, 2, 64, 95
4, 335290, Note_on_c, 2, 59, 95
4, 335300, Note_on_c, 2, 55, 95
4, 335310, Note_on_c, 2, 52, 95
4, 335320, Note_on_c, 2, 47, 95
4, 335330, Note_on_c, 2, 40, 95
4, 335518, Note_off_c, 2, 64, 80
4, 335518, Note_off_c, 2, 59, 80
4, 335518, Note_off_c, 2, 52, 80
4, 335518, Note_off_c, 2, 47, 80
4, 335518, Note_off_c, 2, 55, 80
4, 335518, Note_off_c, 2, 40, 80
4, 335520, Note_on_c, 2, 40, 95
4, 335530, Note_on_c, 2, 47, 95
4, 335540, Note_on_c, 2, 52, 95
4, 335550, Note_on_c, 2, 55, 95
4, 335560, Note_on_c, 2, 59, 95
4, 335570, Note_on_c, 2, 64, 95
4, 335638, Note_off_c, 2, 40, 80
4, 335638, Note_off_c, 2, 47, 80
4, 335638, Note_off_c, 2, 55, 80
4, 335638, Note_off_c, 2, 59, 80
4, 335638, Note_off_c, 2, 52, 80
4, 335638, Note_off_c, 2, 64, 80
4, 335640, Note_on_c, 2, 64, 95
4, 335650, Note_on_c, 2, 59, 95
4, 335660, Note_on_c, 2, 55, 95
4, 335670, Note_on_c, 2, 52, 95
4, 335680, Note_on_c, 2, 47, 95
4, 335690, Note_on_c, 2, 40, 95
4, 335758, Note_off_c, 2, 64, 80
4, 335758, Note_off_c, 2, 59, 80
4, 335758, Note_off_c, 2, 52, 80
4, 335758, Note_off_c, 2, 47, 80
4, 335758, Note_off_c, 2, 55, 80
4, 335758, Note_off_c, 2, 40, 80
4, 335760, Note_on_c, 2, 40, 95
4, 335770, Note_on_c, 2, 47, 95
4, 335780, Note_on_c, 2, 52, 95
4, 335790, Note_on_c, 2, 55, 95
4, 335800, Note_on_c, 2, 59, 95
4, 335810, Note_on_c, 2, 64, 95
4, 335998, Note_off_c, 2, 40, 80
4, 335998, Note_off_c, 2, 47, 80
4, 335998, Note_off_c, 2, 55, 80
4, 335998, Note_off_c, 2, 59, 80
4, 335998, Note_off_c, 2, 52, 80
4, 335998, Note_off_c, 2, 64, 80
4, 336000, Note_on_c, 2, 43, 95
4, 336010, Note_on_c, 2, 50, 95
4, 336020, Note_on_c, 2, 57, 95
4, 336030, Note_on_c, 2, 62, 95
4, 336040, Note_on_c, 2, 67, 95
4, 336358, Note_off_c, 2, 43, 80
4, 336358, Note_off_c, 2, 50, 80
4, 336358, Note_off_c, 2, 62, 80
4, 336358, Note_off_c, 2, 67, 80
4, 336358, Note_off_c, 2, 57, 80
4, 336360, Note_on_c, 2, 43, 95
4, 336370, Note_on_c, 2, 50, 95
4, 336380, Note_on_c, 2, 57, 95
4, 336390, Note_on_c, 2, 62, 95
4, 336400, Note_on_c, 2, 67, 95
4, 336478, Note_off_c, 2, 43, 80
4, 336478, Note_off_c, 2, 50, 80
4, 336478, Note_off_c, 2, 62, 80
4, 336478, Note_off_c, 2, 67, 80
4, 336478, Note_off_c, 2, 57, 80
4, 336480, Note_on_c, 2, 67, 95
4, 336490, Note_on_c, 2, 62, 95
4, 336500, Note_on_c, 2, 57, 95
4, 336510, Note_on_c, 2, 50, 95
4, 336520, Note_on_c, 2, 43, 95
4, 336718, Note_off_c, 2, 67, 80
4, 336718, Note_off_c, 2, 62, 80
4, 336718, Note_off_c, 2, 50, 80
4, 336718, Note_off_c, 2, 43, 80
4, 336718, Note_off_c, 2, 57, 80
4, 336720, Note_on_c, 2, 43, 95
4, 336730, Note_on_c, 2, 50, 95
4, 336740, Note_on_c, 2, 57, 95
4, 336750, Note_on_c, 2, 62, 95
4, 336760, Note_on_c, 2, 67, 95
4, 336838, Note_off_c, 2, 43, 80
4, 336838, Note_off_c, 2, 50, 80
4, 336838, Note_off_c, 2, 62, 80
4, 336838, Note_off_c, 2, 67, 80
4, 336838, Note_off_c, 2, 57, 80
4, 336840, Note_on_c, 2, 67, 95
4, 336850, Note_on_c, 2, 62, 95
4, 336860, Note_on_c, 2, 57, 95
4, 336870, Note_on_c, 2, 50, 95
4, 336880, Note_on_c, 2, 43, 95
4, 336958, Note_off_c, 2, 67, 80
4, 336958, Note_off_c, 2, 62, 80
4, 336958, Note_off_c, 2, 50, 80
4, 336958, Note_off_c, 2, 43, 80
4, 336958, Note_off_c, 2, 57, 80
4, 336960, Note_on_c, 2, 45, 95
4, 336970, Note_on_c, 2, 52, 95
4, 336980, Note_on_c, 2, 57, 95
4, 336990, Note_on_c, 2, 62, 95
4, 337000, Note_on_c, 2, 64, 95
4, 337318, Note_off_c, 2, 45, 80
4, 337318, Note_off_c, 2, 52, 80
4, 337318, Note_off_c, 2, 62, 80
4, 337318, Note_off_c, 2, 64, 80
4, 337318, Note_off_c, 2, 57, 80
4, 337320, Note_on_c, 2, 45, 95
4, 337330, Note_on_c, 2, 52, 95
4, 337340, Note_on_c, 2, 57, 95
4, 337350, Note_on_c, 2, 62, 95
4, 337360, Note_on_c, 2, 64, 95
4, 337438, Note_off_c, 2, 45, 80
4, 337438, Note_off_c, 2, 52, 80
4, 337438, Note_off_c, 2, 62, 80
4, 337438, Note_off_c, 2, 64, 80
4, 337438, Note_off_c, 2, 57, 80
4, 337440, Note_on_c, 2, 64, 95
4, 337450, Note_on_c, 2, 61, 95
4, 337460, Note_on_c, 2, 57, 95
4, 337470, Note_on_c, 2, 52, 95
4, 337480, Note_on_c, 2, 45, 95
4, 337678, Note_off_c, 2, 64, 80
4, 337678, Note_off_c, 2, 61, 80
4, 337678, Note_off_c, 2, 52, 80
4, 337678, Note_off_c, 2, 45, 80
4, 337678, Note_off_c, 2, 57, 80
4, 337680, Note_on_c, 2, 45, 95
4, 337690, Note_on_c, 2, 52, 95
4, 337700, Note_on_c, 2, 57, 95
4, 337710, Note_on_c, 2, 61, 95
4, 337720, Note_on_c, 2, 64, 95
4, 337798, Note_off_c, 2, 45, 80
4, 337798, Note_off_c, 2, 52, 80
4, 337798, Note_off_c, 2, 61, 80
4, 337798, Note_off_c, 2, 64, 80
4, 337798, Note_off_c, 2, 57, 80
4, 337800, Note_on_c, 2, 64, 95
4, 337810, Note_on_c, 2, 61, 95
4, 337820, Note_on_c, 2, 57, 95
4, 337830, Note_on_c, 2, 52, 95
4, 337840, Note_on_c, 2, 45, 95
4, 337918, Note_off_c, 2, 64, 80
4, 337918, Note_off_c, 2, 61, 80
4, 337918, Note_off_c, 2, 52, 80
4, 337918, Note_off_c, 2, 45, 80
4, 337918, Note_off_c, 2, 57, 80
4, 337920, Note_on_c, 2, 50, 95
4, 337930, Note_on_c, 2, 57, 95
4, 337940, Note_on_c, 2, 62, 95
4, 337950, Note_on_c, 2, 66, 95
4, 338278, Note_off_c, 2, 50, 80
4, 338278, Note_off_c, 2, 57, 80
4, 338278, Note_off_c, 2, 66, 80
4, 338278, Note_off_c, 2, 62, 80
4, 338280, Note_on_c, 2, 50, 95
4, 338290, Note_on_c, 2, 57, 95
4, 338300, Note_on_c, 2, 62, 95
4, 338310, Note_on_c, 2, 66, 95
4, 338398, Note_off_c, 2, 50, 80
4, 338398, Note_off_c, 2, 57, 80
4, 338398, Note_off_c, 2, 66, 80
4, 338398, Note_off_c, 2, 62, 80
4, 338400, Note_on_c, 2, 66, 95
4, 338410, Note_on_c, 2, 62, 95
4, 338420, Note_on_c, 2, 57, 95
4, 338430, Note_on_c, 2, 50, 95
4, 338638, Note_off_c, 2, 66, 80
4, 338638, Note_off_c, 2, 62, 80
4, 338638, Note_off_c, 2, 50, 80
4, 338638, Note_off_c, 2, 57, 80
4, 338640, Note_on_c, 2, 50, 95
4, 338650, Note_on_c, 2, 57, 95
4, 338660, Note_on_c, 2, 62, 95
4, 338670, Note_on_c, 2, 66, 95
4, 338998, Note_off_c, 2, 50, 80
4, 338998, Note_off_c, 2, 57, 80
4, 338998, Note_off_c, 2, 66, 80
4, 338998, Note_off_c, 2, 62, 80
4, 339000, Note_on_c, 2, 50, 95
4, 339010, Note_on_c, 2, 57, 95
4, 339020, Note_on_c, 2, 62, 95
4, 339030, Note_on_c, 2, 66, 95
4, 339118, Note_off_c, 2, 50, 80
4, 339118, Note_off_c, 2, 57, 80
4, 339118, Note_off_c, 2, 66, 80
4, 339118, Note_off_c, 2, 62, 80
4, 339120, Note_on_c, 2, 66, 95
4, 339130, Note_on_c, 2, 62, 95
4, 339140, Note_on_c, 2, 57, 95
4, 339150, Note_on_c, 2, 50, 95
4, 339358, Note_off_c, 2, 66, 80
4, 339358, Note_off_c, 2, 62, 80
4, 339358, Note_off_c, 2, 50, 80
4, 339358, Note_off_c, 2, 57, 80
4, 339360, Note_on_c, 2, 50, 95
4, 339370, Note_on_c, 2, 57, 95
4, 339380, Note_on_c, 2, 62, 95
4, 339390, Note_on_c, 2, 66, 95
4, 339598, Note_off_c, 2, 50, 80
4, 339598, Note_off_c, 2, 57, 80
4, 339598, Note_off_c, 2, 66, 80
4, 339598, Note_off_c, 2, 62, 80
4, 339600, Note_on_c, 2, 50, 95
4, 339610, Note_on_c, 2, 57, 95
4, 339620, Note_on_c, 2, 62, 95
4, 339630, Note_on_c, 2, 66, 95
4, 339718, Note_off_c, 2, 50, 80
4, 339718, Note_off_c, 2, 57, 80
4, 339718, Note_off_c, 2, 66, 80
4, 339718, Note_off_c, 2, 62, 80
4, 339720, Note_on_c, 2, 66, 95
4, 339730, Note_on_c, 2, 62, 95
4, 339740, Note_on_c, 2, 57, 95
4, 339750, Note_on_c, 2, 50, 95
4, 339838, Note_off_c, 2, 66, 80
4, 339838, Note_off_c, 2, 62, 80
4, 339838, Note_off_c, 2, 50, 80
4, 339838, Note_off_c, 2, 57, 80
4, 339840, Note_on_c, 2, 42, 95
4, 339850, Note_on_c, 2, 49, 95
4, 339860, Note_on_c, 2, 54, 95
4, 339870, Note_on_c, 2, 57, 95
4, 339880, Note_on_c, 2, 61, 95
4, 339890, Note_on_c, 2, 66, 95
4, 340198, Note_off_c, 2, 42, 80
4, 340198, Note_off_c, 2, 49, 80
4, 340198, Note_off_c, 2, 57, 80
4, 340198, Note_off_c, 2, 61, 80
4, 340198, Note_off_c, 2, 54, 80
4, 340198, Note_off_c, 2, 66, 80
4, 340200, Note_on_c, 2, 42, 95
4, 340210, Note_on_c, 2, 49, 95
4, 340220, Note_on_c, 2, 54, 95
4, 340230, Note_on_c, 2, 57, 95
4, 340240, Note_on_c, 2, 61, 95
4, 340250, Note_on_c, 2, 66, 95
4, 340318, Note_off_c, 2, 42, 80
4, 340318, Note_off_c, 2, 49, 80
4, 340318, Note_off_c, 2, 57, 80
4, 340318, Note_off_c, 2, 61, 80
4, 340318, Note_off_c, 2, 54, 80
4, 340318, Note_off_c, 2, 66, 80
4, 340320, Note_on_c, 2, 66, 95
4, 340330, Note_on_c, 2, 61, 95
4, 340340, Note_on_c, 2, 57, 95
4, 340350, Note_on_c, 2, 54, 95
4, 340360, Note_on_c, 2, 49, 95
4, 340370, Note_on_c, 2, 42, 95
4, 340558, Note_off_c, 2, 66, 80
4, 340558, Note_off_c, 2, 61, 80
4, 340558, Note_off_c, 2, 54, 80
4, 340558, Note_off_c, 2, 49, 80
4, 340558, Note_off_c, 2, 57, 80
4, 340558, Note_off_c, 2, 42, 80
4, 340560, Note_on_c, 2, 42, 95
4, 340570, Note_on_c, 2, 49, 95
4, 340580, Note_on_c, 2, 54, 95
4, 340590, Note_on_c, 2, 57, 95
4, 340600, Note_on_c, 2, 61, 95
4, 340610, Note_on_c, 2, 66, 95
4, 340918, Note_off_c, 2, 42, 80
4, 340918, Note_off_c, 2, 49, 80
4, 340918, Note_off_c, 2, 57, 80
4, 340918, Note_off_c, 2, 61, 80
4, 340918, Note_off_c, 2, 54, 80
4, 340918, Note_off_c, 2, 66, 80
4, 340920, Note_on_c, 2, 42, 95
4, 340930, Note_on_c, 2, 49, 95
4, 340940, Note_on_c, 2, 54, 95
4, 340950, Note_on_c, 2, 57, 95
4, 340960, Note_on_c, 2, 61, 95
4, 340970, Note_on_c, 2, 66, 95
4, 341038, Note_off_c, 2, 42, 80
4, 341038, Note_off_c, 2, 49, 80
4, 341038, Note_off_c, 2, 57, 80
4, 341038, Note_off_c, 2, 61, 80
4, 341038, Note_off_c, 2, 54, 80
4, 341038, Note_off_c, 2, 66, 80
4, 341040, Note_on_c, 2, 66, 95
4, 341050, Note_on_c, 2, 61, 95
4, 341060, Note_on_c, 2, 57, 95
4, 341070, Note_on_c, 2, 54, 95
4, 341080, Note_on_c, 2, 49, 95
4, 341090, Note_on_c, 2, 42, 95
4, 341278, Note_off_c, 2, 66, 80
4, 341278, Note_off_c, 2, 61, 80
4, 341278, Note_off_c, 2, 54, 80
4, 341278, Note_off_c, 2, 49, 80
4, 341278, Note_off_c, 2, 57, 80
4, 341278, Note_off_c, 2, 42, 80
4, 341280, Note_on_c, 2, 42, 95
4, 341290, Note_on_c, 2, 49, 95
4, 341300, Note_on_c, 2, 54, 95
4, 341310, Note_on_c, 2, 57, 95
4, 341320, Note_on_c, 2, 61, 95
4, 341330, Note_on_c, 2, 66, 95
4, 341518, Note_off_c, 2, 42, 80
4, 341518, Note_off_c, 2, 49, 80
4, 341518, Note_off_c, 2, 57, 80
4, 341518, Note_off_c, 2, 61, 80
4, 341518, Note_off_c, 2, 54, 80
4, 341518, Note_off_c, 2, 66, 80
4, 341520, Note_on_c, 2, 42, 95
4, 341530, Note_on_c, 2, 49, 95
4, 341540, Note_on_c, 2, 54, 95
4, 341550, Note_on_c, 2, 57, 95
4, 341560, Note_on_c, 2, 61, 95
4, 341570, Note_on_c, 2, 66, 95
4, 341638, Note_off_c, 2, 42, 80
4, 341638, Note_off_c, 2, 49, 80
4, 341638, Note_off_c, 2, 57, 80
4, 341638, Note_off_c, 2, 61, 80
4, 341638, Note_off_c, 2, 54, 80
4, 341638, Note_off_c, 2, 66, 80
4, 341640, Note_on_c, 2, 66, 95
4, 341650, Note_on_c, 2, 61, 95
4, 341660, Note_on_c, 2, 57, 95
4, 341670, Note_on_c, 2, 54, 95
4, 341680, Note_on_c, 2, 49, 95
4, 341690, Note_on_c, 2, 42, 95
4, 341758, Note_off_c, 2, 66, 80
4, 341758, Note_off_c, 2, 61, 80
4, 341758, Note_off_c, 2, 54, 80
4, 341758, Note_off_c, 2, 49, 80
4, 341758, Note_off_c, 2, 57, 80
4, 341758, Note_off_c, 2, 42, 80
4, 341760, Note_on_c, 2, 43, 95
4, 341770, Note_on_c, 2, 50, 95
4, 341780, Note_on_c, 2, 55, 95
4, 341790, Note_on_c, 2, 62, 95
4, 341800, Note_on_c, 2, 67, 95
4, 342118, Note_off_c, 2, 43, 80
4, 342118, Note_off_c, 2, 50, 80
4, 342118, Note_off_c, 2, 62, 80
4, 342118, Note_off_c, 2, 67, 80
4, 342118, Note_off_c, 2, 55, 80
4, 342120, Note_on_c, 2, 43, 95
4, 342130, Note_on_c, 2, 50, 95
4, 342140, Note_on_c, 2, 55, 95
4, 342150, Note_on_c, 2, 62, 95
4, 342160, Note_on_c, 2, 67, 95
4, 342238, Note_off_c, 2, 43, 80
4, 342238, Note_off_c, 2, 50, 80
4, 342238, Note_off_c, 2, 62, 80
4, 342238, Note_off_c, 2, 67, 80
4, 342238, Note_off_c, 2, 55, 80
4, 342240, Note_on_c, 2, 67, 95
4, 342250, Note_on_c, 2, 62, 95
4, 342260, Note_on_c, 2, 55, 95
4, 342270, Note_on_c, 2, 50, 95
4, 342280, Note_on_c, 2, 43, 95
4, 342478, Note_off_c, 2, 67, 80
4, 342478, Note_off_c, 2, 62, 80
4, 342478, Note_off_c, 2, 50, 80
4, 342478, Note_off_c, 2, 43, 80
4, 342478, Note_off_c, 2, 55, 80
4, 342480, Note_on_c, 2, 43, 95
4, 342490, Note_on_c, 2, 50, 95
4, 342500, Note_on_c, 2, 55, 95
4, 342510, Note_on_c, 2, 62, 95
4, 342520, Note_on_c, 2, 67, 95
4, 342838, Note_off_c, 2, 43, 80
4, 342838, Note_off_c, 2, 50, 80
4, 342838, Note_off_c, 2, 62, 80
4, 342838, Note_off_c, 2, 67, 80
4, 342838, Note_off_c, 2, 55, 80
4, 342840, Note_on_c, 2, 43, 95
4, 342850, Note_on_c, 2, 50, 95
4, 342860, Note_on_c, 2, 55, 95
4, 342870, Note_on_c, 2, 62, 95
4, 342880, Note_on_c, 2, 67, 95
4, 342958, Note_off_c, 2, 43, 80
4, 342958, Note_off_c, 2, 50, 80
4, 342958, Note_off_c, 2, 62, 80
4, 342958, Note_off_c, 2, 67, 80
4, 342958, Note_off_c, 2, 55, 80
4, 342960, Note_on_c, 2, 67, 95
4, 342970, Note_on_c, 2, 62, 95
4, 342980, Note_on_c, 2, 55, 95
4, 342990, Note_on_c, 2, 50, 95
4, 343000, Note_on_c, 2, 43, 95
4, 343198, Note_off_c, 2, 67, 80
4, 343198, Note_off_c, 2, 62, 80
4, 343198, Note_off_c, 2, 50, 80
4, 343198, Note_off_c, 2, 43, 80
4, 343198, Note_off_c, 2, 55, 80
4, 343200, Note_on_c, 2, 43, 95
4, 343210, Note_on_c, 2, 50, 95
4, 343220, Note_on_c, 2, 55, 95
4, 343230, Note_on_c, 2, 62, 95
4, 343240, Note_on_c, 2, 67, 95
4, 343438, Note_off_c, 2, 43, 80
4, 343438, Note_off_c, 2, 50, 80
4, 343438, Note_off_c, 2, 62, 80
4, 343438, Note_off_c, 2, 67, 80
4, 343438, Note_off_c, 2, 55, 80
4, 343440, Note_on_c, 2, 43, 95
4, 343450, Note_on_c, 2, 50, 95
4, 343460, Note_on_c, 2, 55, 95
4, 343470, Note_on_c, 2, 62, 95
4, 343480, Note_on_c, 2, 67, 95
4, 343558, Note_off_c, 2, 43, 80
4, 343558, Note_off_c, 2, 50, 80
4, 343558, Note_off_c, 2, 62, 80
4, 343558, Note_off_c, 2, 67, 80
4, 343558, Note_off_c, 2, 55, 80
4, 343560, Note_on_c, 2, 67, 95
4, 343570, Note_on_c, 2, 62, 95
4, 343580, Note_on_c, 2, 55, 95
4, 343590, Note_on_c, 2, 50, 95
4, 343600, Note_on_c, 2, 43, 95
4, 343678, Note_off_c, 2, 67, 80
4, 343678, Note_off_c, 2, 62, 80
4, 343678, Note_off_c, 2, 50, 80
4, 343678, Note_off_c, 2, 43, 80
4, 343678, Note_off_c, 2, 55, 80
4, 343680, Note_on_c, 2, 40, 95
4, 343690, Note_on_c, 2, 47, 95
4, 343700, Note_on_c, 2, 52, 95
4, 343710, Note_on_c, 2, 55, 95
4, 343720, Note_on_c, 2, 59, 95
4, 343730, Note_on_c, 2, 64, 95
4, 344038, Note_off_c, 2, 40, 80
4, 344038, Note_off_c, 2, 47, 80
4, 344038, Note_off_c, 2, 55, 80
4, 344038, Note_off_c, 2, 59, 80
4, 344038, Note_off_c, 2, 52, 80
4, 344038, Note_off_c, 2, 64, 80
4, 344040, Note_on_c, 2, 40, 95
4, 344050, Note_on_c, 2, 47, 95
4, 344060, Note_on_c, 2, 52, 95
4, 344070, Note_on_c, 2, 55, 95
4, 344080, Note_on_c, 2, 59, 95
4, 344090, Note_on_c, 2, 64, 95
4, 344158, Note_off_c, 2, 40, 80
4, 344158, Note_off_c, 2, 47, 80
4, 344158, Note_off_c, 2, 55, 80
4, 344158, Note_off_c, 2, 59, 80
4, 344158, Note_off_c, 2, 52, 80
4, 344158, Note_off_c, 2, 64, 80
4, 344160, Note_on_c, 2, 64, 95
4, 344170, Note_on_c, 2, 59, 95
4, 344180, Note_on_c, 2, 55, 95
4, 344190, Note_on_c, 2, 52, 95
4, 344200, Note_on_c, 2, 47, 95
4, 344210, Note_on_c, 2, 40, 95
4, 344398, Note_off_c, 2, 64, 80
4, 344398, Note_off_c, 2, 59, 80
4, 344398, Note_off_c, 2, 52, 80
4, 344398, Note_off_c, 2, 47, 80
4, 344398, Note_off_c, 2, 55, 80
4, 344398, Note_off_c, 2, 40, 80
4, 344400, Note_on_c, 2, 40, 95
4, 344410, Note_on_c, 2, 47, 95
4, 344420, Note_on_c, 2, 52, 95
4, 344430, Note_on_c, 2, 55, 95
4, 344440, Note_on_c, 2, 59, 95
4, 344450, Note_on_c, 2, 64, 95
4, 344758, Note_off_c, 2, 40, 80
4, 344758, Note_off_c, 2, 47, 80
4, 344758, Note_off_c, 2, 55, 80
4, 344758, Note_off_c, 2, 59, 80
4, 344758, Note_off_c, 2, 52, 80
4, 344758, Note_off_c, 2, 64, 80
4, 344760, Note_on_c, 2, 40, 95
4, 344770, Note_on_c, 2, 47, 95
4, 344780, Note_on_c, 2, 52, 95
4, 344790, Note_on_c, 2, 55, 95
4, 344800, Note_on_c, 2, 59, 95
4, 344810, Note_on_c, 2, 64, 95
4, 344878, Note_off_c, 2, 40, 80
4, 344878, Note_off_c, 2, 47, 80
4, 344878, Note_off_c, 2, 55, 80
4, 344878, Note_off_c, 2, 59, 80
4, 344878, Note_off_c, 2, 52, 80
4, 344878, Note_off_c, 2, 64, 80
4, 344880, Note_on_c, 2, 64, 95
4, 344890, Note_on_c, 2, 59, 95
4, 344900, Note_on_c, 2, 55, 95
4, 344910, Note_on_c, 2, 52, 95
4, 344920, Note_on_c, 2, 47, 95
4, 344930, Note_on_c, 2, 40, 95
4, 345118, Note_off_c, 2, 64, 80
4, 345118, Note_off_c, 2, 59, 80
4, 345118, Note_off_c, 2, 52, 80
4, 345118, Note_off_c, 2, 47, 80
4, 345118, Note_off_c, 2, 55, 80
4, 345118, Note_off_c, 2, 40, 80
4, 345120, Note_on_c, 2, 40, 95
4, 345130, Note_on_c, 2, 47, 95
4, 345140, Note_on_c, 2, 52, 95
4, 345150, Note_on_c, 2, 55, 95
4, 345160, Note_on_c, 2, 59, 95
4, 345170, Note_on_c, 2, 64, 95
4, 345238, Note_off_c, 2, 40, 80
4, 345238, Note_off_c, 2, 47, 80
4, 345238, Note_off_c, 2, 55, 80
4, 345238, Note_off_c, 2, 59, 80
4, 345238, Note_off_c, 2, 52, 80
4, 345238, Note_off_c, 2, 64, 80
4, 345240, Note_on_c, 2, 64, 95
4, 345250, Note_on_c, 2, 59, 95
4, 345260, Note_on_c, 2, 55, 95
4, 345270, Note_on_c, 2, 52, 95
4, 345280, Note_on_c, 2, 47, 95
4, 345290, Note_on_c, 2, 40, 95
4, 345358, Note_off_c, 2, 64, 80
4, 345358, Note_off_c, 2, 59, 80
4, 345358, Note_off_c, 2, 52, 80
4, 345358, Note_off_c, 2, 47, 80
4, 345358, Note_off_c, 2, 55, 80
4, 345358, Note_off_c, 2, 40, 80
4, 345360, Note_on_c, 2, 40, 95
4, 345370, Note_on_c, 2, 47, 95
4, 345380, Note_on_c, 2, 52, 95
4, 345390, Note_on_c, 2, 55, 95
4, 345400, Note_on_c, 2, 59, 95
4, 345410, Note_on_c, 2, 64, 95
4, 345598, Note_off_c, 2, 40, 80
4, 345598, Note_off_c, 2, 47, 80
4, 345598, Note_off_c, 2, 55, 80
4, 345598, Note_off_c, 2, 59, 80
4, 345598, Note_off_c, 2, 52, 80
4, 345598, Note_off_c, 2, 64, 80
4, 345600, Note_on_c, 2, 50, 95
4, 345610, Note_on_c, 2, 57, 95
4, 345620, Note_on_c, 2, 62, 95
4, 345630, Note_on_c, 2, 66, 95
4, 345958, Note_off_c, 2, 50, 80
4, 345958, Note_off_c, 2, 57, 80
4, 345958, Note_off_c, 2, 66, 80
4, 345958, Note_off_c, 2, 62, 80
4, 345960, Note_on_c, 2, 50, 95
4, 345970, Note_on_c, 2, 57, 95
4, 345980, Note_on_c, 2, 62, 95
4, 345990, Note_on_c, 2, 66, 95
4, 346078, Note_off_c, 2, 50, 80
4, 346078, Note_off_c, 2, 57, 80
4, 346078, Note_off_c, 2, 66, 80
4, 346078, Note_off_c, 2, 62, 80
4, 346080, Note_on_c, 2, 66, 95
4, 346090, Note_on_c, 2, 62, 95
4, 346100, Note_on_c, 2, 57, 95
4, 346110, Note_on_c, 2, 50, 95
4, 346318, Note_off_c, 2, 66, 80
4, 346318, Note_off_c, 2, 62, 80
4, 346318, Note_off_c, 2, 50, 80
4, 346318, Note_off_c, 2, 57, 80
4, 346320, Note_on_c, 2, 50, 95
4, 346330, Note_on_c, 2, 57, 95
4, 346340, Note_on_c, 2, 62, 95
4, 346350, Note_on_c, 2, 66, 95
4, 346678, Note_off_c, 2, 50, 80
4, 346678, Note_off_c, 2, 57, 80
4, 346678, Note_off_c, 2, 66, 80
4, 346678, Note_off_c, 2, 62, 80
4, 346680, Note_on_c, 2, 50, 95
4, 346690, Note_on_c, 2, 57, 95
4, 346700, Note_on_c, 2, 62, 95
4, 346710, Note_on_c, 2, 66, 95
4, 346798, Note_off_c, 2, 50, 80
4, 346798, Note_off_c, 2, 57, 80
4, 346798, Note_off_c, 2, 66, 80
4, 346798, Note_off_c, 2, 62, 80
4, 346800, Note_on_c, 2, 66, 95
4, 346810, Note_on_c, 2, 62, 95
4, 346820, Note_on_c, 2, 57, 95
4, 346830, Note_on_c, 2, 50, 95
4, 347038, Note_off_c, 2, 66, 80
4, 347038, Note_off_c, 2, 62, 80
4, 347038, Note_off_c, 2, 50, 80
4, 347038, Note_off_c, 2, 57, 80
4, 347040, Note_on_c, 2, 50, 95
4, 347050, Note_on_c, 2, 57, 95
4, 347060, Note_on_c, 2, 62, 95
4, 347070, Note_on_c, 2, 66, 95
4, 347278, Note_off_c, 2, 50, 80
4, 347278, Note_off_c, 2, 57, 80
4, 347278, Note_off_c, 2, 66, 80
4, 347278, Note_off_c, 2, 62, 80
4, 347280, Note_on_c, 2, 50, 95
4, 347290, Note_on_c, 2, 57, 95
4, 347300, Note_on_c, 2, 62, 95
4, 347310, Note_on_c, 2, 66, 95
4, 347398, Note_off_c, 2, 50, 80
4, 347398, Note_off_c, 2, 57, 80
4, 347398, Note_off_c, 2, 66, 80
4, 347398, Note_off_c, 2, 62, 80
4, 347400, Note_on_c, 2, 66, 95
4, 347410, Note_on_c, 2, 62, 95
4, 347420, Note_on_c, 2, 57, 95
4, 347430, Note_on_c, 2, 50, 95
4, 347518, Note_off_c, 2, 66, 80
4, 347518, Note_off_c, 2, 62, 80
4, 347518, Note_off_c, 2, 50, 80
4, 347518, Note_off_c, 2, 57, 80
4, 347520, Note_on_c, 2, 42, 95
4, 347530, Note_on_c, 2, 49, 95
4, 347540, Note_on_c, 2, 54, 95
4, 347550, Note_on_c, 2, 57, 95
4, 347560, Note_on_c, 2, 61, 95
4, 347570, Note_on_c, 2, 66, 95
4, 347878, Note_off_c, 2, 42, 80
4, 347878, Note_off_c, 2, 49, 80
4, 347878, Note_off_c, 2, 57, 80
4, 347878, Note_off_c, 2, 61, 80
4, 347878, Note_off_c, 2, 54, 80
4, 347878, Note_off_c, 2, 66, 80
4, 347880, Note_on_c, 2, 42, 95
4, 347890, Note_on_c, 2, 49, 95
4, 347900, Note_on_c, 2, 54, 95
4, 347910, Note_on_c, 2, 57, 95
4, 347920, Note_on_c, 2, 61, 95
4, 347930, Note_on_c, 2, 66, 95
4, 347998, Note_off_c, 2, 42, 80
4, 347998, Note_off_c, 2, 49, 80
4, 347998, Note_off_c, 2, 57, 80
4, 347998, Note_off_c, 2, 61, 80
4, 347998, Note_off_c, 2, 54, 80
4, 347998, Note_off_c, 2, 66, 80
4, 348000, Note_on_c, 2, 66, 95
4, 348010, Note_on_c, 2, 61, 95
4, 348020, Note_on_c, 2, 57, 95
4, 348030, Note_on_c, 2, 54, 95
4, 348040, Note_on_c, 2, 49, 95
4, 348050, Note_on_c, 2, 42, 95
4, 348238, Note_off_c, 2, 66, 80
4, 348238, Note_off_c, 2, 61, 80
4, 348238, Note_off_c, 2, 54, 80
4, 348238, Note_off_c, 2, 49, 80
4, 348238, Note_off_c, 2, 57, 80
4, 348238, Note_off_c, 2, 42, 80
4, 348240, Note_on_c, 2, 42, 95
4, 348250, Note_on_c, 2, 49, 95
4, 348260, Note_on_c, 2, 54, 95
4, 348270, Note_on_c, 2, 57, 95
4, 348280, Note_on_c, 2, 61, 95
4, 348290, Note_on_c, 2, 66, 95
4, 348598, Note_off_c, 2, 42, 80
4, 348598, Note_off_c, 2, 49, 80
4, 348598, Note_off_c, 2, 57, 80
4, 348598, Note_off_c, 2, 61, 80
4, 348598, Note_off_c, 2, 54, 80
4, 348598, Note_off_c, 2, 66, 80
4, 348600, Note_on_c, 2, 42, 95
4, 348610, Note_on_c, 2, 49, 95
4, 348620, Note_on_c, 2, 54, 95
4, 348630, Note_on_c, 2, 57, 95
4, 348640, Note_on_c, 2, 61, 95
4, 348650, Note_on_c, 2, 66, 95
4, 348718, Note_off_c, 2, 42, 80
4, 348718, Note_off_c, 2, 49, 80
4, 348718, Note_off_c, 2, 57, 80
4, 348718, Note_off_c, 2, 61, 80
4, 348718, Note_off_c, 2, 54, 80
4, 348718, Note_off_c, 2, 66, 80
4, 348720, Note_on_c, 2, 66, 95
4, 348730, Note_on_c, 2, 61, 95
4, 348740, Note_on_c, 2, 57, 95
4, 348750, Note_on_c, 2, 54, 95
4, 348760, Note_on_c, 2, 49, 95
4, 348770, Note_on_c, 2, 42, 95
4, 348958, Note_off_c, 2, 66, 80
4, 348958, Note_off_c, 2, 61, 80
4, 348958, Note_off_c, 2, 54, 80
4, 348958, Note_off_c, 2, 49, 80
4, 348958, Note_off_c, 2, 57, 80
4, 348958, Note_off_c, 2, 42, 80
4, 348960, Note_on_c, 2, 42, 95
4, 348970, Note_on_c, 2, 49, 95
4, 348980, Note_on_c, 2, 54, 95
4, 348990, Note_on_c, 2, 57, 95
4, 349000, Note_on_c, 2, 61, 95
4, 349010, Note_on_c, 2, 66, 95
4, 349198, Note_off_c, 2, 42, 80
4, 349198, Note_off_c, 2, 49, 80
4, 349198, Note_off_c, 2, 57, 80
4, 349198, Note_off_c, 2, 61, 80
4, 349198, Note_off_c, 2, 54, 80
4, 349198, Note_off_c, 2, 66, 80
4, 349200, Note_on_c, 2, 42, 95
4, 349210, Note_on_c, 2, 49, 95
4, 349220, Note_on_c, 2, 54, 95
4, 349230, Note_on_c, 2, 57, 95
4, 349240, Note_on_c, 2, 61, 95
4, 349250, Note_on_c, 2, 66, 95
4, 349318, Note_off_c, 2, 42, 80
4, 349318, Note_off_c, 2, 49, 80
4, 349318, Note_off_c, 2, 57, 80
4, 349318, Note_off_c, 2, 61, 80
4, 349318, Note_off_c, 2, 54, 80
4, 349318, Note_off_c, 2, 66, 80
4, 349320, Note_on_c, 2, 66, 95
4, 349330, Note_on_c, 2, 61, 95
4, 349340, Note_on_c, 2, 57, 95
4, 349350, Note_on_c, 2, 54, 95
4, 349360, Note_on_c, 2, 49, 95
4, 349370, Note_on_c, 2, 42, 95
4, 349438, Note_off_c, 2, 66, 80
4, 349438, Note_off_c, 2, 61, 80
4, 349438, Note_off_c, 2, 54, 80
4, 349438, Note_off_c, 2, 49, 80
4, 349438, Note_off_c, 2, 57, 80
4, 349438, Note_off_c, 2, 42, 80
4, 349440, Note_on_c, 2, 40, 95
4, 349450, Note_on_c, 2, 47, 95
4, 349460, Note_on_c, 2, 52, 95
4, 349470, Note_on_c, 2, 55, 95
4, 349480, Note_on_c, 2, 59, 95
4, 349490, Note_on_c, 2, 64, 95
4, 349798, Note_off_c, 2, 40, 80
4, 349798, Note_off_c, 2, 47, 80
4, 349798, Note_off_c, 2, 55, 80
4, 349798, Note_off_c, 2, 59, 80
4, 349798, Note_off_c, 2, 52, 80
4, 349798, Note_off_c, 2, 64, 80
4, 349800, Note_on_c, 2, 40, 95
4, 349810, Note_on_c, 2, 47, 95
4, 349820, Note_on_c, 2, 52, 95
4, 349830, Note_on_c, 2, 55, 95
4, 349840, Note_on_c, 2, 59, 95
4, 349850, Note_on_c, 2, 64, 95
4, 349918, Note_off_c, 2, 40, 80
4, 349918, Note_off_c, 2, 47, 80
4, 349918, Note_off_c, 2, 55, 80
4, 349918, Note_off_c, 2, 59, 80
4, 349918, Note_off_c, 2, 52, 80
4, 349918, Note_off_c, 2, 64, 80
4, 349920, Note_on_c, 2, 64, 95
4, 349930, Note_on_c, 2, 59, 95
4, 349940, Note_on_c, 2, 55, 95
4, 349950, Note_on_c, 2, 52, 95
4, 349960, Note_on_c, 2, 47, 95
4, 349970, Note_on_c, 2, 40, 95
4, 350158, Note_off_c, 2, 64, 80
4, 350158, Note_off_c, 2, 59, 80
4, 350158, Note_off_c, 2, 52, 80
4, 350158, Note_off_c, 2, 47, 80
4, 350158, Note_off_c, 2, 55, 80
4, 350158, Note_off_c, 2, 40, 80
4, 350160, Note_on_c, 2, 40, 95
4, 350170, Note_on_c, 2, 47, 95
4, 350180, Note_on_c, 2, 52, 95
4, 350190, Note_on_c, 2, 55, 95
4, 350200, Note_on_c, 2, 59, 95
4, 350210, Note_on_c, 2, 64, 95
4, 350518, Note_off_c, 2, 40, 80
4, 350518, Note_off_c, 2, 47, 80
4, 350518, Note_off_c, 2, 55, 80
4, 350518, Note_off_c, 2, 59, 80
4, 350518, Note_off_c, 2, 52, 80
4, 350518, Note_off_c, 2, 64, 80
4, 350520, Note_on_c, 2, 40, 95
4, 350530, Note_on_c, 2, 47, 95
4, 350540, Note_on_c, 2, 52, 95
4, 350550, Note_on_c, 2, 55, 95
4, 350560, Note_on_c, 2, 59, 95
4, 350570, Note_on_c, 2, 64, 95
4, 350638, Note_off_c, 2, 40, 80
4, 350638, Note_off_c, 2, 47, 80
4, 350638, Note_off_c, 2, 55, 80
4, 350638, Note_off_c, 2, 59, 80
4, 350638, Note_off_c, 2, 52, 80
4, 350638, Note_off_c, 2, 64, 80
4, 350640, Note_on_c, 2, 64, 95
4, 350650, Note_on_c, 2, 59, 95
4, 350660, Note_on_c, 2, 55, 95
4, 350670, Note_on_c, 2, 52, 95
4, 350680, Note_on_c, 2, 47, 95
4, 350690, Note_on_c, 2, 40, 95
4, 350878, Note_off_c, 2, 64, 80
4, 350878, Note_off_c, 2, 59, 80
4, 350878, Note_off_c, 2, 52, 80
4, 350878, Note_off_c, 2, 47, 80
4, 350878, Note_off_c, 2, 55, 80
4, 350878, Note_off_c, 2, 40, 80
4, 350880, Note_on_c, 2, 40, 95
4, 350890, Note_on_c, 2, 47, 95
4, 350900, Note_on_c, 2, 52, 95
4, 350910, Note_on_c, 2, 55, 95
4, 350920, Note_on_c, 2, 59, 95
4, 350930, Note_on_c, 2, 64, 95
4, 350998, Note_off_c, 2, 40, 80
4, 350998, Note_off_c, 2, 47, 80
4, 350998, Note_off_c, 2, 55, 80
4, 350998, Note_off_c, 2, 59, 80
4, 350998, Note_off_c, 2, 52, 80
4, 350998, Note_off_c, 2, 64, 80
4, 351000, Note_on_c, 2, 64, 95
4, 351010, Note_on_c, 2, 59, 95
4, 351020, Note_on_c, 2, 55, 95
4, 351030, Note_on_c, 2, 52, 95
4, 351040, Note_on_c, 2, 47, 95
4, 351050, Note_on_c, 2, 40, 95
4, 351118, Note_off_c, 2, 64, 80
4, 351118, Note_off_c, 2, 59, 80
4, 351118, Note_off_c, 2, 52, 80
4, 351118, Note_off_c, 2, 47, 80
4, 351118, Note_off_c, 2, 55, 80
4, 351118, Note_off_c, 2, 40, 80
4, 351120, Note_on_c, 2, 40, 95
4, 351130, Note_on_c, 2, 47, 95
4, 351140, Note_on_c, 2, 52, 95
4, 351150, Note_on_c, 2, 55, 95
4, 351160, Note_on_c, 2, 59, 95
4, 351170, Note_on_c, 2, 64, 95
4, 351358, Note_off_c, 2, 40, 80
4, 351358, Note_off_c, 2, 47, 80
4, 351358, Note_off_c, 2, 55, 80
4, 351358, Note_off_c, 2, 59, 80
4, 351358, Note_off_c, 2, 52, 80
4, 351358, Note_off_c, 2, 64, 80
4, 351360, Note_on_c, 2, 43, 95
4, 351380, Note_on_c, 2, 50, 95
4, 351400, Note_on_c, 2, 57, 95
4, 351420, Note_on_c, 2, 62, 95
4, 351440, Note_on_c, 2, 67, 95
4, 351838, Note_off_c, 2, 43, 80
4, 351838, Note_off_c, 2, 57, 80
4, 351838, Note_off_c, 2, 62, 80
4, 351838, Note_off_c, 2, 50, 80
4, 351838, Note_off_c, 2, 67, 80
4, 351840, Note_on_c, 2, 50, 95
4, 351860, Note_on_c, 2, 57, 95
4, 351880, Note_on_c, 2, 62, 95
4, 351900, Note_on_c, 2, 66, 95
4, 352318, Note_off_c, 2, 50, 80
4, 352318, Note_off_c, 2, 62, 80
4, 352318, Note_off_c, 2, 66, 80
4, 352318, Note_off_c, 2, 57, 80
4, 352320, Note_on_c, 2, 45, 95
4, 352340, Note_on_c, 2, 52, 95
4, 352360, Note_on_c, 2, 57, 95
4, 352380, Note_on_c, 2, 61, 95
4, 352400, Note_on_c, 2, 64, 95
4, 352798, Note_off_c, 2, 45, 80
4, 352798, Note_off_c, 2, 57, 80
4, 352798, Note_off_c, 2, 61, 80
4, 352798, Note_off_c, 2, 52, 80
4, 352798, Note_off_c, 2, 64, 80
4, 352800, Note_on_c, 2, 45, 95
4, 352820, Note_on_c, 2, 52, 95
4, 352840, Note_on_c, 2, 57, 95
4, 352860, Note_on_c, 2, 62, 95
4, 352880, Note_on_c, 2, 64, 95
4, 354240, Control_c, 2, 7, 93
4, 354360, Control_c, 2, 7, 90
4, 354480, Control_c, 2, 7, 87
4, 354600, Control_c, 2, 7, 84
4, 354720, Control_c, 2, 7, 81
4, 354840, Control_c, 2, 7, 79
4, 354960, Control_c, 2, 7, 76
4, 355080, Control_c, 2, 7, 73
4, 355200, Control_c, 2, 7, 70
4, 355320, Control_c, 2, 7, 67
4, 355440, Control_c, 2, 7, 64
4, 355560, Control_c, 2, 7, 61
4, 355680, Control_c, 2, 7, 58
4, 355800, Control_c, 2, 7, 55
4, 355920, Control_c, 2, 7, 52
4, 356040, Control_c, 2, 7, 49
4, 356160, Control_c, 2, 7, 47
4, 356280, Control_c, 2, 7, 44
4, 356400, Control_c, 2, 7, 41
4, 356520, Control_c, 2, 7, 38
4, 356640, Control_c, 2, 7, 35
4, 356760, Control_c, 2, 7, 32
4, 356880, Control_c, 2, 7, 29
4, 357000, Control_c, 2, 7, 26
4, 357120, Control_c, 2, 7, 23
4, 357240, Control_c, 2, 7, 20
4, 357360, Control_c, 2, 7, 17
4, 357480, Control_c, 2, 7, 15
4, 357600, Control_c, 2, 7, 12
4, 357720, Control_c, 2, 7, 9
4, 357840, Control_c, 2, 7, 6
4, 357960, Control_c, 2, 7, 3
4, 358078, Note_off_c, 2, 45, 80
4, 358078, Note_off_c, 2, 57, 80
4, 358078, Note_off_c, 2, 62, 80
4, 358078, Note_off_c, 2, 52, 80
4, 358078, Note_off_c, 2, 64, 80
4, 358078, End_track
5, 0, Start_track
5, 0, Title_t, "Lead: John Petrucci"
5, 360, Control_c, 3, 121, 0
5, 360, Control_c, 3, 123, 0
5, 360, Control_c, 3, 100, 0
5, 360, Control_c, 3, 38, 0
5, 360, Control_c, 3, 101, 0
5, 360, Control_c, 3, 6, 12
5, 360, Pitch_bend_c, 3, 8192
5, 480, Program_c, 3, 30
5, 480, Control_c, 3, 7, 112
5, 480, Control_c, 3, 10, 74
5, 46980, Pitch_bend_c, 3, 5504
5, 46980, Note_on_c, 3, 54, 95
5, 46995, Pitch_bend_c, 3, 6144
5, 47010, Pitch_bend_c, 3, 6784
5, 47025, Pitch_bend_c, 3, 7552
5, 47040, Pitch_bend_c, 3, 8192
5, 47398, Note_off_c, 3, 54, 80
5, 47400, Note_on_c, 3, 55, 95
5, 47700, Pitch_bend_c, 3, 3456
5, 47700, Note_on_c, 3, 62, 95
5, 47709, Pitch_bend_c, 3, 4096
5, 47717, Pitch_bend_c, 3, 4736
5, 47726, Pitch_bend_c, 3, 5504
5, 47734, Pitch_bend_c, 3, 6144
5, 47743, Pitch_bend_c, 3, 6784
5, 47751, Pitch_bend_c, 3, 7552
5, 47758, Note_off_c, 3, 55, 80
5, 47760, Pitch_bend_c, 3, 8192
5, 48478, Note_off_c, 3, 62, 80
5, 48480, Note_on_c, 3, 62, 95
5, 48636, Pitch_bend_c, 3, 7552
5, 48650, Pitch_bend_c, 3, 6784
5, 48664, Pitch_bend_c, 3, 6144
5, 48678, Pitch_bend_c, 3, 5504
5, 48692, Pitch_bend_c, 3, 4736
5, 48706, Pitch_bend_c, 3, 4096
5, 48718, Note_off_c, 3, 62, 80
5, 48720, Pitch_bend_c, 3, 8192
5, 48720, Note_on_c, 3, 55, 50
5, 48738, Note_off_c, 3, 55, 80
5, 49560, Note_on_c, 3, 57, 95
5, 49618, Note_off_c, 3, 57, 80
5, 49620, Pitch_bend_c, 3, 2048
5, 49620, Note_on_c, 3, 64, 76
5, 49627, Pitch_bend_c, 3, 2688
5, 49633, Pitch_bend_c, 3, 3456
5, 49640, Pitch_bend_c, 3, 4096
5, 49647, Pitch_bend_c, 3, 4736
5, 49653, Pitch_bend_c, 3, 5504
5, 49660, Pitch_bend_c, 3, 6144
5, 49667, Pitch_bend_c, 3, 6784
5, 49673, Pitch_bend_c, 3, 7552
5, 49680, Pitch_bend_c, 3, 8192
5, 50398, Note_off_c, 3, 64, 80
5, 50400, Note_on_c, 3, 62, 95
5, 50556, Pitch_bend_c, 3, 7552
5, 50570, Pitch_bend_c, 3, 6784
5, 50584, Pitch_bend_c, 3, 6144
5, 50598, Pitch_bend_c, 3, 5504
5, 50612, Pitch_bend_c, 3, 4736
5, 50626, Pitch_bend_c, 3, 4096
5, 50638, Note_off_c, 3, 62, 80
5, 50640, Pitch_bend_c, 3, 8192
5, 50640, Note_on_c, 3, 55, 50
5, 50658, Note_off_c, 3, 55, 80
5, 50820, Pitch_bend_c, 3, 5504
5, 50820, Note_on_c, 3, 54, 95
5, 50835, Pitch_bend_c, 3, 6144
5, 50850, Pitch_bend_c, 3, 6784
5, 50865, Pitch_bend_c, 3, 7552
5, 50880, Pitch_bend_c, 3, 8192
5, 51238, Note_off_c, 3, 54, 80
5, 51240, Note_on_c, 3, 55, 95
5, 51540, Pitch_bend_c, 3, 640
5, 51540, Note_on_c, 3, 66, 76
5, 51545, Pitch_bend_c, 3, 1408
5, 51551, Pitch_bend_c, 3, 2048
5, 51556, Pitch_bend_c, 3, 2688
5, 51562, Pitch_bend_c, 3, 3456
5, 51567, Pitch_bend_c, 3, 4096
5, 51573, Pitch_bend_c, 3, 4736
5, 51578, Pitch_bend_c, 3, 5504
5, 51584, Pitch_bend_c, 3, 6144
5, 51589, Pitch_bend_c, 3, 6784
5, 51595, Pitch_bend_c, 3, 7552
5, 51598, Note_off_c, 3, 55, 80
5, 51600, Pitch_bend_c, 3, 8192
5, 52318, Note_off_c, 3, 66, 80
5, 52320, Note_on_c, 3, 66, 95
5, 52428, Pitch_bend_c, 3, 7552
5, 52441, Pitch_bend_c, 3, 6784
5, 52454, Pitch_bend_c, 3, 6144
5, 52468, Pitch_bend_c, 3, 5504
5, 52481, Pitch_bend_c, 3, 4736
5, 52494, Pitch_bend_c, 3, 4096
5, 52507, Pitch_bend_c, 3, 3456
5, 52520, Pitch_bend_c, 3, 2688
5, 52534, Pitch_bend_c, 3, 2048
5, 52547, Pitch_bend_c, 3, 1408
5, 52558, Note_off_c, 3, 66, 80
5, 52560, Pitch_bend_c, 3, 640
5, 52560, Pitch_bend_c, 3, 8192
5, 52560, Note_on_c, 3, 55, 95
5, 52578, Note_off_c, 3, 55, 80
5, 53520, Note_on_c, 3, 76, 95
5, 53552, Pitch_bend_c, 3, 8320
5, 53568, Pitch_bend_c, 3, 8448
5, 53584, Pitch_bend_c, 3, 8704
5, 53600, Pitch_bend_c, 3, 8960
5, 53616, Pitch_bend_c, 3, 9344
5, 53632, Pitch_bend_c, 3, 9472
5, 53648, Pitch_bend_c, 3, 9600
5, 53776, Pitch_bend_c, 3, 9344
5, 53792, Pitch_bend_c, 3, 9088
5, 53808, Pitch_bend_c, 3, 8832
5, 53824, Pitch_bend_c, 3, 8576
5, 53840, Pitch_bend_c, 3, 8320
5, 53872, Pitch_bend_c, 3, 8192
5, 53998, Note_off_c, 3, 76, 80
5, 54000, Note_on_c, 3, 76, 95
5, 54016, Pitch_bend_c, 3, 8320
5, 54032, Pitch_bend_c, 3, 9088
5, 54048, Pitch_bend_c, 3, 9600
5, 54096, Pitch_bend_c, 3, 9344
5, 54112, Pitch_bend_c, 3, 8704
5, 54128, Pitch_bend_c, 3, 8192
5, 54178, Note_off_c, 3, 76, 80
5, 54240, Note_on_c, 3, 74, 95
5, 54658, Note_off_c, 3, 74, 80
5, 54660, Pitch_bend_c, 3, 5504
5, 54660, Note_on_c, 3, 54, 95
5, 54675, Pitch_bend_c, 3, 6144
5, 54690, Pitch_bend_c, 3, 6784
5, 54705, Pitch_bend_c, 3, 7552
5, 54720, Pitch_bend_c, 3, 8192
5, 55078, Note_off_c, 3, 54, 80
5, 55080, Note_on_c, 3, 55, 95
5, 55318, Note_off_c, 3, 55, 80
5, 55320, Note_on_c, 3, 55, 95
5, 55380, Pitch_bend_c, 3, 3456
5, 55380, Note_on_c, 3, 62, 76
5, 55389, Pitch_bend_c, 3, 4096
5, 55397, Pitch_bend_c, 3, 4736
5, 55406, Pitch_bend_c, 3, 5504
5, 55414, Pitch_bend_c, 3, 6144
5, 55423, Pitch_bend_c, 3, 6784
5, 55431, Pitch_bend_c, 3, 7552
5, 55438, Note_off_c, 3, 55, 80
5, 55440, Pitch_bend_c, 3, 8192
5, 56098, Note_off_c, 3, 62, 80
5, 56100, Pitch_bend_c, 3, 640
5, 56100, Note_on_c, 3, 66, 95
5, 56105, Pitch_bend_c, 3, 1408
5, 56111, Pitch_bend_c, 3, 2048
5, 56116, Pitch_bend_c, 3, 2688
5, 56122, Pitch_bend_c, 3, 3456
5, 56127, Pitch_bend_c, 3, 4096
5, 56133, Pitch_bend_c, 3, 4736
5, 56138, Pitch_bend_c, 3, 5504
5, 56144, Pitch_bend_c, 3, 6144
5, 56149, Pitch_bend_c, 3, 6784
5, 56155, Pitch_bend_c, 3, 7552
5, 56160, Pitch_bend_c, 3, 8192
5, 57118, Note_off_c, 3, 66, 80
5, 57120, Note_on_c, 3, 66, 95
5, 57228, Pitch_bend_c, 3, 7552
5, 57241, Pitch_bend_c, 3, 6784
5, 57254, Pitch_bend_c, 3, 6144
5, 57268, Pitch_bend_c, 3, 5504
5, 57281, Pitch_bend_c, 3, 4736
5, 57294, Pitch_bend_c, 3, 4096
5, 57307, Pitch_bend_c, 3, 3456
5, 57320, Pitch_bend_c, 3, 2688
5, 57334, Pitch_bend_c, 3, 2048
5, 57347, Pitch_bend_c, 3, 1408
5, 57358, Note_off_c, 3, 66, 80
5, 57360, Pitch_bend_c, 3, 640
5, 57360, Pitch_bend_c, 3, 8192
5, 57360, Note_on_c, 3, 55, 50
5, 57378, Note_off_c, 3, 55, 80
5, 57840, Note_on_c, 3, 69, 76
5, 57872, Pitch_bend_c, 3, 8320
5, 57888, Pitch_bend_c, 3, 8448
5, 57904, Pitch_bend_c, 3, 8704
5, 57920, Pitch_bend_c, 3, 8960
5, 57936, Pitch_bend_c, 3, 9344
5, 57952, Pitch_bend_c, 3, 9472
5, 57968, Pitch_bend_c, 3, 9600
5, 58096, Pitch_bend_c, 3, 9344
5, 58112, Pitch_bend_c, 3, 9088
5, 58128, Pitch_bend_c, 3, 8832
5, 58144, Pitch_bend_c, 3, 8576
5, 58160, Pitch_bend_c, 3, 8320
5, 58192, Pitch_bend_c, 3, 8192
5, 58318, Note_off_c, 3, 69, 80
5, 58320, Note_on_c, 3, 67, 95
5, 58438, Note_off_c, 3, 67, 80
5, 58440, Note_on_c, 3, 66, 76
5, 58558, Note_off_c, 3, 66, 80
5, 58560, Note_on_c, 3, 66, 95
5, 58918, Note_off_c, 3, 66, 80
5, 58920, Note_on_c, 3, 67, 95
5, 59220, Pitch_bend_c, 3, 0
5, 59220, Note_on_c, 3, 76, 95
5, 59241, Pitch_bend_c, 3, 640
5, 59245, Pitch_bend_c, 3, 1408
5, 59248, Pitch_bend_c, 3, 2048
5, 59252, Pitch_bend_c, 3, 2688
5, 59255, Pitch_bend_c, 3, 3456
5, 59259, Pitch_bend_c, 3, 4096
5, 59262, Pitch_bend_c, 3, 4736
5, 59266, Pitch_bend_c, 3, 5504
5, 59269, Pitch_bend_c, 3, 6144
5, 59273, Pitch_bend_c, 3, 6784
5, 59276, Pitch_bend_c, 3, 7552
5, 59278, Note_off_c, 3, 67, 80
5, 59280, Pitch_bend_c, 3, 8192
5, 59998, Note_off_c, 3, 76, 80
5, 60000, Note_on_c, 3, 74, 95
5, 60478, Note_off_c, 3, 74, 80
5, 60480, Note_on_c, 3, 71, 95
5, 60598, Note_off_c, 3, 71, 80
5, 60600, Note_on_c, 3, 69, 95
5, 60690, Pitch_bend_c, 3, 7552
5, 60698, Pitch_bend_c, 3, 6784
5, 60705, Pitch_bend_c, 3, 6144
5, 60712, Pitch_bend_c, 3, 5504
5, 60718, Note_off_c, 3, 69, 80
5, 60720, Pitch_bend_c, 3, 8192
5, 60720, Note_on_c, 3, 64, 76
5, 60838, Note_off_c, 3, 64, 80
5, 60840, Note_on_c, 3, 62, 95
5, 60936, Pitch_bend_c, 3, 8832
5, 60944, Pitch_bend_c, 3, 9600
5, 60952, Pitch_bend_c, 3, 10240
5, 60958, Note_off_c, 3, 62, 80
5, 60960, Pitch_bend_c, 3, 8192
5, 60960, Note_on_c, 3, 66, 76
5, 61198, Note_off_c, 3, 66, 80
5, 61200, Note_on_c, 3, 62, 95
5, 61258, Note_off_c, 3, 62, 80
5, 61260, Note_on_c, 3, 64, 76
5, 61318, Note_off_c, 3, 64, 80
5, 61320, Note_on_c, 3, 64, 95
5, 61336, Pitch_bend_c, 3, 8320
5, 61352, Pitch_bend_c, 3, 8704
5, 61368, Pitch_bend_c, 3, 9344
5, 61384, Pitch_bend_c, 3, 9600
5, 61448, Pitch_bend_c, 3, 9344
5, 61464, Pitch_bend_c, 3, 8832
5, 61480, Pitch_bend_c, 3, 8320
5, 61496, Pitch_bend_c, 3, 8192
5, 61558, Note_off_c, 3, 64, 80
5, 61560, Note_on_c, 3, 62, 95
5, 61618, Note_off_c, 3, 62, 80
5, 61620, Note_on_c, 3, 59, 95
5, 61678, Note_off_c, 3, 59, 80
5, 61680, Note_on_c, 3, 57, 95
5, 62038, Note_off_c, 3, 57, 80
5, 62040, Note_on_c, 3, 64, 95
5, 62085, Pitch_bend_c, 3, 8832
5, 62089, Pitch_bend_c, 3, 9600
5, 62092, Pitch_bend_c, 3, 10240
5, 62096, Pitch_bend_c, 3, 10880
5, 62098, Note_off_c, 3, 64, 80
5, 62100, Pitch_bend_c, 3, 8192
5, 62100, Note_on_c, 3, 69, 76
5, 62158, Note_off_c, 3, 69, 80
5, 62160, Note_on_c, 3, 74, 95
5, 62278, Note_off_c, 3, 74, 80
5, 62280, Note_on_c, 3, 69, 95
5, 62398, Note_off_c, 3, 69, 80
5, 62400, Note_on_c, 3, 76, 95
5, 62432, Pitch_bend_c, 3, 8320
5, 62448, Pitch_bend_c, 3, 8448
5, 62464, Pitch_bend_c, 3, 8704
5, 62480, Pitch_bend_c, 3, 8960
5, 62496, Pitch_bend_c, 3, 9344
5, 62512, Pitch_bend_c, 3, 9472
5, 62528, Pitch_bend_c, 3, 9600
5, 62638, Note_off_c, 3, 76, 80
5, 62640, Pitch_bend_c, 3, 8192
5, 62640, Note_on_c, 3, 76, 95
5, 62720, Pitch_bend_c, 3, 8320
5, 62816, Pitch_bend_c, 3, 8448
5, 62848, Pitch_bend_c, 3, 8576
5, 62896, Pitch_bend_c, 3, 8704
5, 62928, Pitch_bend_c, 3, 8832
5, 62944, Pitch_bend_c, 3, 8960
5, 62976, Pitch_bend_c, 3, 9088
5, 63008, Pitch_bend_c, 3, 9216
5, 63024, Pitch_bend_c, 3, 9344
5, 63072, Pitch_bend_c, 3, 9472
5, 63120, Pitch_bend_c, 3, 9600
5, 63598, Note_off_c, 3, 76, 80
5, 63600, Pitch_bend_c, 3, 8192
5, 63600, Note_on_c, 3, 50, 50
5, 63838, Note_off_c, 3, 50, 80
5, 63840, Note_on_c, 3, 74, 95
5, 63872, Pitch_bend_c, 3, 8320
5, 63904, Pitch_bend_c, 3, 8576
5, 63920, Pitch_bend_c, 3, 8704
5, 63936, Pitch_bend_c, 3, 8960
5, 63952, Pitch_bend_c, 3, 9344
5, 63968, Pitch_bend_c, 3, 9472
5, 63984, Pitch_bend_c, 3, 9600
5, 64128, Pitch_bend_c, 3, 9472
5, 64144, Pitch_bend_c, 3, 9344
5, 64160, Pitch_bend_c, 3, 9088
5, 64176, Pitch_bend_c, 3, 8832
5, 64192, Pitch_bend_c, 3, 8576
5, 64208, Pitch_bend_c, 3, 8448
5, 64224, Pitch_bend_c, 3, 8320
5, 64240, Pitch_bend_c, 3, 8192
5, 64398, Note_off_c, 3, 74, 80
5, 64400, Note_on_c, 3, 71, 95
5, 64438, Note_off_c, 3, 71, 80
5, 64440, Note_on_c, 3, 69, 76
5, 64478, Note_off_c, 3, 69, 80
5, 64480, Note_on_c, 3, 65, 95
5, 64512, Pitch_bend_c, 3, 7552
5, 64518, Note_off_c, 3, 65, 80
5, 64520, Pitch_bend_c, 3, 8192
5, 64520, Note_on_c, 3, 64, 76
5, 64558, Note_off_c, 3, 64, 80
5, 64560, Note_on_c, 3, 62, 95
5, 64618, Note_off_c, 3, 62, 80
5, 64620, Note_on_c, 3, 59, 95
5, 64678, Note_off_c, 3, 59, 80
5, 64680, Note_on_c, 3, 62, 95
5, 64718, Note_off_c, 3, 62, 80
5, 64720, Note_on_c, 3, 64, 76
5, 64758, Note_off_c, 3, 64, 80
5, 64760, Note_on_c, 3, 59, 95
5, 64798, Note_off_c, 3, 59, 80
5, 64800, Note_on_c, 3, 62, 95
5, 65278, Note_off_c, 3, 62, 80
5, 65280, Note_on_c, 3, 66, 95
5, 65331, Pitch_bend_c, 3, 8832
5, 65336, Pitch_bend_c, 3, 9600
5, 65338, Note_off_c, 3, 66, 80
5, 65340, Pitch_bend_c, 3, 8192
5, 65340, Note_on_c, 3, 69, 76
5, 65398, Note_off_c, 3, 69, 80
5, 65400, Note_on_c, 3, 71, 95
5, 65438, Note_off_c, 3, 71, 80
5, 65440, Note_on_c, 3, 74, 95
5, 65478, Note_off_c, 3, 74, 80
5, 65480, Note_on_c, 3, 78, 95
5, 65518, Note_off_c, 3, 78, 80
5, 65520, Note_on_c, 3, 81, 95
5, 65998, Note_off_c, 3, 81, 80
5, 66000, Note_on_c, 3, 79, 95
5, 66118, Note_off_c, 3, 79, 80
5, 66120, Note_on_c, 3, 78, 76
5, 66238, Note_off_c, 3, 78, 80
5, 66240, Note_on_c, 3, 78, 95
5, 66358, Note_off_c, 3, 78, 80
5, 66360, Note_on_c, 3, 79, 95
5, 66478, Note_off_c, 3, 79, 80
5, 66480, Note_on_c, 3, 80, 95
5, 66598, Note_off_c, 3, 80, 80
5, 66600, Note_on_c, 3, 81, 95
5, 66702, Pitch_bend_c, 3, 7552
5, 66711, Pitch_bend_c, 3, 6784
5, 66718, Note_off_c, 3, 81, 80
5, 66720, Pitch_bend_c, 3, 8192
5, 66720, Note_on_c, 3, 78, 76
5, 66838, Note_off_c, 3, 78, 80
5, 66840, Note_on_c, 3, 74, 95
5, 66958, Note_off_c, 3, 74, 80
5, 66960, Note_on_c, 3, 69, 95
5, 67078, Note_off_c, 3, 69, 80
5, 67080, Note_on_c, 3, 76, 95
5, 67112, Pitch_bend_c, 3, 8064
5, 67128, Pitch_bend_c, 3, 7936
5, 67160, Pitch_bend_c, 3, 7808
5, 67176, Pitch_bend_c, 3, 7680
5, 67192, Pitch_bend_c, 3, 7552
5, 67208, Pitch_bend_c, 3, 7424
5, 67224, Pitch_bend_c, 3, 7296
5, 67240, Pitch_bend_c, 3, 7168
5, 67256, Pitch_bend_c, 3, 7040
5, 67304, Pitch_bend_c, 3, 6912
5, 67384, Pitch_bend_c, 3, 6784
5, 67400, Pitch_bend_c, 3, 6912
5, 67480, Pitch_bend_c, 3, 7040
5, 67512, Pitch_bend_c, 3, 7168
5, 67528, Pitch_bend_c, 3, 7296
5, 67560, Pitch_bend_c, 3, 7424
5, 67576, Pitch_bend_c, 3, 7680
5, 67608, Pitch_bend_c, 3, 7808
5, 67624, Pitch_bend_c, 3, 7936
5, 67640, Pitch_bend_c, 3, 8064
5, 67656, Pitch_bend_c, 3, 8192
5, 67678, Note_off_c, 3, 76, 80
5, 67680, Note_on_c, 3, 74, 95
5, 67798, Note_off_c, 3, 74, 80
5, 67800, Note_on_c, 3, 73, 95
5, 67918, Note_off_c, 3, 73, 80
5, 67920, Note_on_c, 3, 71, 95
5, 68028, Pitch_bend_c, 3, 7552
5, 68038, Note_off_c, 3, 71, 80
5, 68040, Pitch_bend_c, 3, 8192
5, 68040, Note_on_c, 3, 69, 95
5, 68158, Note_off_c, 3, 69, 80
5, 68160, Note_on_c, 3, 69, 76
5, 68398, Note_off_c, 3, 69, 80
5, 68400, Note_on_c, 3, 74, 95
5, 68478, Pitch_bend_c, 3, 7552
5, 68485, Pitch_bend_c, 3, 6784
5, 68492, Pitch_bend_c, 3, 6144
5, 68499, Pitch_bend_c, 3, 5504
5, 68506, Pitch_bend_c, 3, 4736
5, 68513, Pitch_bend_c, 3, 4096
5, 68518, Note_off_c, 3, 74, 80
5, 68520, Pitch_bend_c, 3, 8192
5, 68520, Note_on_c, 3, 67, 76
5, 68878, Note_off_c, 3, 67, 80
5, 68880, Note_on_c, 3, 74, 95
5, 68952, Pitch_bend_c, 3, 7552
5, 68959, Pitch_bend_c, 3, 6784
5, 68966, Pitch_bend_c, 3, 6144
5, 68973, Pitch_bend_c, 3, 5504
5, 68979, Pitch_bend_c, 3, 4736
5, 68986, Pitch_bend_c, 3, 4096
5, 68993, Pitch_bend_c, 3, 3456
5, 68998, Note_off_c, 3, 74, 80
5, 69000, Pitch_bend_c, 3, 8192
5, 69000, Note_on_c, 3, 66, 76
5, 69358, Note_off_c, 3, 66, 80
5, 69360, Note_on_c, 3, 74, 95
5, 69420, Pitch_bend_c, 3, 7552
5, 69427, Pitch_bend_c, 3, 6784
5, 69433, Pitch_bend_c, 3, 6144
5, 69440, Pitch_bend_c, 3, 5504
5, 69447, Pitch_bend_c, 3, 4736
5, 69453, Pitch_bend_c, 3, 4096
5, 69460, Pitch_bend_c, 3, 3456
5, 69467, Pitch_bend_c, 3, 2688
5, 69473, Pitch_bend_c, 3, 2048
5, 69478, Note_off_c, 3, 74, 80
5, 69480, Pitch_bend_c, 3, 8192
5, 69480, Note_on_c, 3, 64, 76
5, 69838, Note_off_c, 3, 64, 80
5, 69840, Note_on_c, 3, 66, 95
5, 69958, Note_off_c, 3, 66, 80
5, 69960, Note_on_c, 3, 62, 95
5, 70018, Note_off_c, 3, 62, 80
5, 70080, Note_on_c, 3, 69, 95
5, 70318, Note_off_c, 3, 69, 80
5, 70320, Note_on_c, 3, 74, 95
5, 70398, Pitch_bend_c, 3, 7552
5, 70405, Pitch_bend_c, 3, 6784
5, 70412, Pitch_bend_c, 3, 6144
5, 70419, Pitch_bend_c, 3, 5504
5, 70426, Pitch_bend_c, 3, 4736
5, 70433, Pitch_bend_c, 3, 4096
5, 70438, Note_off_c, 3, 74, 80
5, 70440, Pitch_bend_c, 3, 8192
5, 70440, Note_on_c, 3, 67, 76
5, 70798, Note_off_c, 3, 67, 80
5, 70800, Note_on_c, 3, 74, 95
5, 70872, Pitch_bend_c, 3, 7552
5, 70879, Pitch_bend_c, 3, 6784
5, 70886, Pitch_bend_c, 3, 6144
5, 70893, Pitch_bend_c, 3, 5504
5, 70899, Pitch_bend_c, 3, 4736
5, 70906, Pitch_bend_c, 3, 4096
5, 70913, Pitch_bend_c, 3, 3456
5, 70918, Note_off_c, 3, 74, 80
5, 70920, Pitch_bend_c, 3, 8192
5, 70920, Note_on_c, 3, 66, 76
5, 71278, Note_off_c, 3, 66, 80
5, 71280, Note_on_c, 3, 74, 95
5, 71340, Pitch_bend_c, 3, 7552
5, 71347, Pitch_bend_c, 3, 6784
5, 71353, Pitch_bend_c, 3, 6144
5, 71360, Pitch_bend_c, 3, 5504
5, 71367, Pitch_bend_c, 3, 4736
5, 71373, Pitch_bend_c, 3, 4096
5, 71380, Pitch_bend_c, 3, 3456
5, 71387, Pitch_bend_c, 3, 2688
5, 71393, Pitch_bend_c, 3, 2048
5, 71398, Note_off_c, 3, 74, 80
5, 71400, Pitch_bend_c, 3, 8192
5, 71400, Note_on_c, 3, 64, 76
5, 71758, Note_off_c, 3, 64, 80
5, 71760, Note_on_c, 3, 66, 95
5, 71820, Pitch_bend_c, 3, 3456
5, 71820, Note_on_c, 3, 62, 95
5, 71829, Pitch_bend_c, 3, 4096
5, 71837, Pitch_bend_c, 3, 4736
5, 71846, Pitch_bend_c, 3, 5504
5, 71854, Pitch_bend_c, 3, 6144
5, 71863, Pitch_bend_c, 3, 6784
5, 71871, Pitch_bend_c, 3, 7552
5, 71878, Note_off_c, 3, 66, 80
5, 71880, Pitch_bend_c, 3, 8192
5, 72358, Note_off_c, 3, 62, 80
5, 72360, Note_on_c, 3, 59, 95
5, 72418, Note_off_c, 3, 59, 80
5, 72420, Note_on_c, 3, 57, 95
5, 72478, Note_off_c, 3, 57, 80
5, 72480, Note_on_c, 3, 64, 95
5, 72496, Pitch_bend_c, 3, 8704
5, 72512, Pitch_bend_c, 3, 9600
5, 72544, Pitch_bend_c, 3, 9344
5, 72560, Pitch_bend_c, 3, 8320
5, 72576, Pitch_bend_c, 3, 8192
5, 72598, Note_off_c, 3, 64, 80
5, 72600, Note_on_c, 3, 62, 95
5, 72658, Note_off_c, 3, 62, 80
5, 72660, Note_on_c, 3, 59, 95
5, 72718, Note_off_c, 3, 59, 80
5, 72720, Note_on_c, 3, 57, 95
5, 72778, Note_off_c, 3, 57, 80
5, 72780, Note_on_c, 3, 52, 95
5, 72796, Pitch_bend_c, 3, 8320
5, 72812, Pitch_bend_c, 3, 8704
5, 72828, Pitch_bend_c, 3, 9344
5, 72844, Pitch_bend_c, 3, 9600
5, 72908, Pitch_bend_c, 3, 9344
5, 72924, Pitch_bend_c, 3, 8832
5, 72940, Pitch_bend_c, 3, 8320
5, 72956, Pitch_bend_c, 3, 8192
5, 73018, Note_off_c, 3, 52, 80
5, 73020, Note_on_c, 3, 50, 95
5, 73078, Note_off_c, 3, 50, 80
5, 73080, Note_on_c, 3, 47, 95
5, 73138, Note_off_c, 3, 47, 80
5, 73140, Note_on_c, 3, 45, 95
5, 73198, Note_off_c, 3, 45, 80
5, 73200, Note_on_c, 3, 64, 95
5, 73264, Pitch_bend_c, 3, 8320
5, 73328, Pitch_bend_c, 3, 8448
5, 73360, Pitch_bend_c, 3, 8576
5, 73392, Pitch_bend_c, 3, 8704
5, 73424, Pitch_bend_c, 3, 8960
5, 73456, Pitch_bend_c, 3, 9088
5, 73472, Pitch_bend_c, 3, 9216
5, 73488, Pitch_bend_c, 3, 9344
5, 73520, Pitch_bend_c, 3, 9472
5, 73568, Pitch_bend_c, 3, 9600
5, 73918, Note_off_c, 3, 64, 80
5, 73920, Pitch_bend_c, 3, 8192
5, 74040, Note_on_c, 3, 69, 95
5, 74088, Pitch_bend_c, 3, 8320
5, 74152, Pitch_bend_c, 3, 8448
5, 74168, Pitch_bend_c, 3, 8576
5, 74200, Pitch_bend_c, 3, 8704
5, 74216, Pitch_bend_c, 3, 8832
5, 74232, Pitch_bend_c, 3, 8960
5, 74248, Pitch_bend_c, 3, 9088
5, 74280, Pitch_bend_c, 3, 9344
5, 74312, Pitch_bend_c, 3, 9472
5, 74344, Pitch_bend_c, 3, 9600
5, 74638, Note_off_c, 3, 69, 80
5, 74640, Pitch_bend_c, 3, 8192
5, 74640, Note_on_c, 3, 69, 95
5, 74758, Note_off_c, 3, 69, 80
5, 74760, Note_on_c, 3, 74, 95
5, 74856, Pitch_bend_c, 3, 7552
5, 74878, Note_off_c, 3, 74, 80
5, 74880, Pitch_bend_c, 3, 8192
5, 74880, Note_on_c, 3, 73, 76
5, 75238, Note_off_c, 3, 73, 80
5, 75240, Note_on_c, 3, 69, 95
5, 75358, Note_off_c, 3, 69, 80
5, 75360, Note_on_c, 3, 64, 95
5, 75468, Pitch_bend_c, 3, 7552
5, 75478, Note_off_c, 3, 64, 80
5, 75480, Pitch_bend_c, 3, 8192
5, 75480, Note_on_c, 3, 62, 76
5, 75598, Note_off_c, 3, 62, 80
5, 75600, Note_on_c, 3, 61, 95
5, 75718, Note_off_c, 3, 61, 80
5, 75720, Note_on_c, 3, 62, 95
5, 75958, Note_off_c, 3, 62, 80
5, 75960, Note_on_c, 3, 55, 95
5, 75998, Note_off_c, 3, 55, 80
5, 76000, Note_on_c, 3, 62, 95
5, 76038, Note_off_c, 3, 62, 80
5, 76040, Note_on_c, 3, 64, 95
5, 76078, Note_off_c, 3, 64, 80
5, 76080, Note_on_c, 3, 71, 95
5, 76131, Pitch_bend_c, 3, 8832
5, 76136, Pitch_bend_c, 3, 9600
5, 76138, Note_off_c, 3, 71, 80
5, 76140, Pitch_bend_c, 3, 8192
5, 76140, Note_on_c, 3, 74, 76
5, 76198, Note_off_c, 3, 74, 80
5, 76200, Note_on_c, 3, 76, 95
5, 76258, Note_off_c, 3, 76, 80
5, 76260, Note_on_c, 3, 73, 95
5, 76318, Note_off_c, 3, 73, 80
5, 76320, Note_on_c, 3, 66, 95
5, 76378, Note_off_c, 3, 66, 80
5, 76380, Note_on_c, 3, 64, 95
5, 76438, Note_off_c, 3, 64, 80
5, 76440, Note_on_c, 3, 66, 95
5, 76498, Note_off_c, 3, 66, 80
5, 76500, Note_on_c, 3, 67, 95
5, 76558, Note_off_c, 3, 67, 80
5, 76560, Note_on_c, 3, 74, 95
5, 76608, Pitch_bend_c, 3, 8832
5, 76612, Pitch_bend_c, 3, 9600
5, 76616, Pitch_bend_c, 3, 10240
5, 76618, Note_off_c, 3, 74, 80
5, 76620, Pitch_bend_c, 3, 8192
5, 76620, Note_on_c, 3, 78, 76
5, 76678, Note_off_c, 3, 78, 80
5, 76680, Note_on_c, 3, 79, 95
5, 76738, Note_off_c, 3, 79, 80
5, 76740, Note_on_c, 3, 76, 95
5, 76798, Note_off_c, 3, 76, 80
5, 76800, Note_on_c, 3, 69, 95
5, 76858, Note_off_c, 3, 69, 80
5, 76860, Note_on_c, 3, 68, 95
5, 76918, Note_off_c, 3, 68, 80
5, 76920, Note_on_c, 3, 69, 95
5, 76978, Note_off_c, 3, 69, 80
5, 76980, Note_on_c, 3, 71, 95
5, 77038, Note_off_c, 3, 71, 80
5, 77040, Note_on_c, 3, 78, 95
5, 77091, Pitch_bend_c, 3, 8832
5, 77096, Pitch_bend_c, 3, 9600
5, 77098, Note_off_c, 3, 78, 80
5, 77100, Pitch_bend_c, 3, 8192
5, 77100, Note_on_c, 3, 81, 76
5, 77158, Note_off_c, 3, 81, 80
5, 77160, Note_on_c, 3, 83, 95
5, 77218, Note_off_c, 3, 83, 80
5, 77220, Note_on_c, 3, 79, 95
5, 77278, Note_off_c, 3, 79, 80
5, 77280, Note_on_c, 3, 73, 95
5, 77338, Note_off_c, 3, 73, 80
5, 77340, Note_on_c, 3, 71, 95
5, 77398, Note_off_c, 3, 71, 80
5, 77400, Note_on_c, 3, 73, 95
5, 77458, Note_off_c, 3, 73, 80
5, 77460, Note_on_c, 3, 74, 95
5, 77518, Note_off_c, 3, 74, 80
5, 77520, Note_on_c, 3, 81, 95
5, 77578, Note_off_c, 3, 81, 80
5, 77580, Note_on_c, 3, 85, 95
5, 77638, Note_off_c, 3, 85, 80
5, 77640, Note_on_c, 3, 83, 95
5, 77698, Note_off_c, 3, 83, 80
5, 77700, Note_on_c, 3, 81, 95
5, 77758, Note_off_c, 3, 81, 80
5, 77760, Note_on_c, 3, 81, 95
5, 77792, Pitch_bend_c, 3, 8320
5, 77808, Pitch_bend_c, 3, 8448
5, 77824, Pitch_bend_c, 3, 8704
5, 77840, Pitch_bend_c, 3, 8960
5, 77856, Pitch_bend_c, 3, 9344
5, 77872, Pitch_bend_c, 3, 9472
5, 77888, Pitch_bend_c, 3, 9600
5, 77998, Note_off_c, 3, 81, 80
5, 78000, Pitch_bend_c, 3, 8192
5, 78000, Note_on_c, 3, 81, 95
5, 78136, Pitch_bend_c, 3, 8320
5, 78156, Pitch_bend_c, 3, 8448
5, 78168, Pitch_bend_c, 3, 8320
5, 78188, Pitch_bend_c, 3, 8192
5, 78200, Pitch_bend_c, 3, 8064
5, 78220, Pitch_bend_c, 3, 7936
5, 78232, Pitch_bend_c, 3, 8064
5, 78252, Pitch_bend_c, 3, 8192
5, 78264, Pitch_bend_c, 3, 8320
5, 78316, Pitch_bend_c, 3, 8192
5, 78328, Pitch_bend_c, 3, 8064
5, 78358, Note_off_c, 3, 81, 80
5, 78360, Pitch_bend_c, 3, 8192
5, 78360, Note_on_c, 3, 50, 95
5, 78360, Note_on_c, 3, 55, 95
5, 78360, Note_on_c, 3, 59, 95
5, 78360, Note_on_c, 3, 64, 95
5, 78378, Note_off_c, 3, 50, 80
5, 78378, Note_off_c, 3, 55, 80
5, 78378, Note_off_c, 3, 59, 80
5, 78378, Note_off_c, 3, 64, 80
5, 78480, Note_on_c, 3, 81, 95
5, 78496, Pitch_bend_c, 3, 8320
5, 78528, Pitch_bend_c, 3, 8704
5, 78544, Pitch_bend_c, 3, 9088
5, 78560, Pitch_bend_c, 3, 9344
5, 78576, Pitch_bend_c, 3, 9600
5, 78672, Pitch_bend_c, 3, 9344
5, 78688, Pitch_bend_c, 3, 8960
5, 78704, Pitch_bend_c, 3, 8704
5, 78720, Pitch_bend_c, 3, 8320
5, 78736, Pitch_bend_c, 3, 8192
5, 78838, Note_off_c, 3, 81, 80
5, 78840, Note_on_c, 3, 78, 95
5, 78898, Note_off_c, 3, 78, 80
5, 78900, Note_on_c, 3, 77, 76
5, 78958, Note_off_c, 3, 77, 80
5, 78960, Note_on_c, 3, 78, 95
5, 79006, Note_off_c, 3, 78, 80
5, 79008, Note_on_c, 3, 81, 76
5, 79054, Note_off_c, 3, 81, 80
5, 79056, Note_on_c, 3, 78, 76
5, 79102, Note_off_c, 3, 78, 80
5, 79104, Note_on_c, 3, 77, 95
5, 79150, Note_off_c, 3, 77, 80
5, 79152, Note_on_c, 3, 81, 76
5, 79198, Note_off_c, 3, 81, 80
5, 79200, Note_on_c, 3, 77, 76
5, 79238, Note_off_c, 3, 77, 80
5, 79240, Note_on_c, 3, 81, 76
5, 79278, Note_off_c, 3, 81, 80
5, 79280, Note_on_c, 3, 77, 76
5, 79318, Note_off_c, 3, 77, 80
5, 79320, Note_on_c, 3, 78, 95
5, 79358, Note_off_c, 3, 78, 80
5, 79360, Note_on_c, 3, 81, 76
5, 79398, Note_off_c, 3, 81, 80
5, 79400, Note_on_c, 3, 78, 76
5, 79438, Note_off_c, 3, 78, 80
5, 79440, Note_on_c, 3, 77, 95
5, 79478, Note_off_c, 3, 77, 80
5, 79480, Note_on_c, 3, 81, 76
5, 79518, Note_off_c, 3, 81, 80
5, 79520, Note_on_c, 3, 77, 76
5, 79558, Note_off_c, 3, 77, 80
5, 79560, Note_on_c, 3, 78, 95
5, 79598, Note_off_c, 3, 78, 80
5, 79600, Note_on_c, 3, 77, 76
5, 79634, Pitch_bend_c, 3, 7552
5, 79637, Pitch_bend_c, 3, 6784
5, 79638, Note_off_c, 3, 77, 80
5, 79640, Pitch_bend_c, 3, 8192
5, 79640, Note_on_c, 3, 74, 76
5, 79678, Note_off_c, 3, 74, 80
5, 79680, Note_on_c, 3, 76, 95
5, 79696, Pitch_bend_c, 3, 8320
5, 79712, Pitch_bend_c, 3, 8704
5, 79728, Pitch_bend_c, 3, 9344
5, 79744, Pitch_bend_c, 3, 9600
5, 79798, Note_off_c, 3, 76, 80
5, 79800, Pitch_bend_c, 3, 8192
5, 79800, Note_on_c, 3, 76, 95
5, 79858, Note_off_c, 3, 76, 80
5, 79860, Note_on_c, 3, 76, 95
5, 79918, Note_off_c, 3, 76, 80
5, 79920, Note_on_c, 3, 76, 95
5, 79978, Note_off_c, 3, 76, 80
5, 79980, Note_on_c, 3, 76, 95
5, 80038, Note_off_c, 3, 76, 80
5, 80040, Note_on_c, 3, 76, 95
5, 80098, Note_off_c, 3, 76, 80
5, 80100, Note_on_c, 3, 76, 95
5, 80158, Note_off_c, 3, 76, 80
5, 80160, Note_on_c, 3, 78, 95
5, 80278, Note_off_c, 3, 78, 80
5, 80280, Note_on_c, 3, 81, 95
5, 80398, Note_off_c, 3, 81, 80
5, 80400, Note_on_c, 3, 76, 95
5, 80458, Note_off_c, 3, 76, 80
5, 80460, Note_on_c, 3, 78, 95
5, 80518, Note_off_c, 3, 78, 80
5, 80520, Note_on_c, 3, 74, 95
5, 80578, Note_off_c, 3, 74, 80
5, 80580, Note_on_c, 3, 76, 95
5, 80638, Note_off_c, 3, 76, 80
5, 80640, Note_on_c, 3, 71, 95
5, 80698, Note_off_c, 3, 71, 80
5, 80700, Note_on_c, 3, 74, 95
5, 80716, Pitch_bend_c, 3, 8320
5, 80732, Pitch_bend_c, 3, 8704
5, 80748, Pitch_bend_c, 3, 9344
5, 80764, Pitch_bend_c, 3, 9600
5, 80828, Pitch_bend_c, 3, 9344
5, 80844, Pitch_bend_c, 3, 8832
5, 80860, Pitch_bend_c, 3, 8320
5, 80876, Pitch_bend_c, 3, 8192
5, 80938, Note_off_c, 3, 74, 80
5, 80940, Note_on_c, 3, 74, 95
5, 80956, Pitch_bend_c, 3, 8320
5, 80972, Pitch_bend_c, 3, 9088
5, 80988, Pitch_bend_c, 3, 9600
5, 81036, Pitch_bend_c, 3, 9344
5, 81052, Pitch_bend_c, 3, 8704
5, 81068, Pitch_bend_c, 3, 8192
5, 81118, Note_off_c, 3, 74, 80
5, 81120, Note_on_c, 3, 47, 95
5, 81228, Pitch_bend_c, 3, 7552
5, 81238, Note_off_c, 3, 47, 80
5, 81240, Pitch_bend_c, 3, 8192
5, 81240, Note_on_c, 3, 62, 95
5, 81276, Pitch_bend_c, 3, 8832
5, 81282, Pitch_bend_c, 3, 9600
5, 81289, Pitch_bend_c, 3, 10240
5, 81295, Pitch_bend_c, 3, 10880
5, 81302, Pitch_bend_c, 3, 11648
5, 81308, Pitch_bend_c, 3, 12288
5, 81315, Pitch_bend_c, 3, 12928
5, 81321, Pitch_bend_c, 3, 13696
5, 81328, Pitch_bend_c, 3, 14336
5, 81334, Pitch_bend_c, 3, 14976
5, 81341, Pitch_bend_c, 3, 15744
5, 81347, Pitch_bend_c, 3, 16256
5, 81358, Note_off_c, 3, 62, 80
5, 81360, Pitch_bend_c, 3, 8192
5, 81360, Note_on_c, 3, 76, 76
5, 81478, Note_off_c, 3, 76, 80
5, 81480, Note_on_c, 3, 71, 95
5, 81598, Note_off_c, 3, 71, 80
5, 81600, Note_on_c, 3, 78, 95
5, 81696, Pitch_bend_c, 3, 8320
5, 81776, Pitch_bend_c, 3, 8448
5, 81792, Pitch_bend_c, 3, 8576
5, 81840, Pitch_bend_c, 3, 8704
5, 81872, Pitch_bend_c, 3, 8832
5, 82258, Note_off_c, 3, 78, 80
5, 82260, Pitch_bend_c, 3, 8192
5, 82260, Note_on_c, 3, 76, 95
5, 82318, Note_off_c, 3, 76, 80
5, 82320, Note_on_c, 3, 79, 95
5, 82384, Pitch_bend_c, 3, 8320
5, 82448, Pitch_bend_c, 3, 8448
5, 82480, Pitch_bend_c, 3, 8576
5, 82512, Pitch_bend_c, 3, 8704
5, 82544, Pitch_bend_c, 3, 8960
5, 82576, Pitch_bend_c, 3, 9088
5, 82592, Pitch_bend_c, 3, 9216
5, 82608, Pitch_bend_c, 3, 9344
5, 82640, Pitch_bend_c, 3, 9472
5, 82704, Pitch_bend_c, 3, 9600
5, 82720, Pitch_bend_c, 3, 9728
5, 82756, Pitch_bend_c, 3, 9600
5, 82768, Pitch_bend_c, 3, 9472
5, 82784, Pitch_bend_c, 3, 9344
5, 82812, Pitch_bend_c, 3, 9472
5, 82832, Pitch_bend_c, 3, 9600
5, 82848, Pitch_bend_c, 3, 9728
5, 82880, Pitch_bend_c, 3, 9600
5, 82896, Pitch_bend_c, 3, 9472
5, 82912, Pitch_bend_c, 3, 9344
5, 82944, Pitch_bend_c, 3, 9472
5, 82960, Pitch_bend_c, 3, 9600
5, 82972, Pitch_bend_c, 3, 9728
5, 83008, Pitch_bend_c, 3, 9600
5, 83028, Pitch_bend_c, 3, 9472
5, 83038, Note_off_c, 3, 79, 80
5, 83040, Pitch_bend_c, 3, 9344
5, 83040, Pitch_bend_c, 3, 8192
5, 83040, Note_on_c, 3, 78, 95
5, 83088, Pitch_bend_c, 3, 8320
5, 83136, Pitch_bend_c, 3, 8448
5, 83152, Pitch_bend_c, 3, 8576
5, 83168, Pitch_bend_c, 3, 8704
5, 83200, Pitch_bend_c, 3, 8832
5, 83440, Pitch_bend_c, 3, 8704
5, 83456, Pitch_bend_c, 3, 8576
5, 83488, Pitch_bend_c, 3, 8448
5, 83504, Pitch_bend_c, 3, 8320
5, 83552, Pitch_bend_c, 3, 8192
5, 83758, Note_off_c, 3, 78, 80
5, 83760, Note_on_c, 3, 76, 95
5, 83878, Note_off_c, 3, 76, 80
5, 83880, Note_on_c, 3, 74, 95
5, 83998, Note_off_c, 3, 74, 80
5, 84000, Note_on_c, 3, 73, 95
5, 84024, Pitch_bend_c, 3, 8064
5, 84044, Pitch_bend_c, 3, 8192
5, 84088, Pitch_bend_c, 3, 8320
5, 84108, Pitch_bend_c, 3, 8192
5, 84136, Pitch_bend_c, 3, 8320
5, 84148, Pitch_bend_c, 3, 8448
5, 84176, Pitch_bend_c, 3, 8320
5, 84188, Pitch_bend_c, 3, 8192
5, 84200, Pitch_bend_c, 3, 8064
5, 84212, Pitch_bend_c, 3, 7936
5, 84240, Pitch_bend_c, 3, 8064
5, 84252, Pitch_bend_c, 3, 8192
5, 84264, Pitch_bend_c, 3, 8320
5, 84280, Pitch_bend_c, 3, 8448
5, 84300, Pitch_bend_c, 3, 8320
5, 84316, Pitch_bend_c, 3, 8192
5, 84328, Pitch_bend_c, 3, 8064
5, 84344, Pitch_bend_c, 3, 7936
5, 84358, Note_off_c, 3, 73, 80
5, 84360, Pitch_bend_c, 3, 8192
5, 84360, Note_on_c, 3, 74, 95
5, 84478, Note_off_c, 3, 74, 80
5, 84480, Note_on_c, 3, 71, 95
5, 84616, Pitch_bend_c, 3, 8320
5, 84624, Pitch_bend_c, 3, 8448
5, 84660, Pitch_bend_c, 3, 8320
5, 84668, Pitch_bend_c, 3, 8192
5, 84680, Pitch_bend_c, 3, 8064
5, 84688, Pitch_bend_c, 3, 7936
5, 84724, Pitch_bend_c, 3, 8064
5, 84732, Pitch_bend_c, 3, 8192
5, 84744, Pitch_bend_c, 3, 8320
5, 84752, Pitch_bend_c, 3, 8448
5, 84788, Pitch_bend_c, 3, 8320
5, 84796, Pitch_bend_c, 3, 8192
5, 84808, Pitch_bend_c, 3, 8064
5, 84816, Pitch_bend_c, 3, 7936
5, 84838, Note_off_c, 3, 71, 80
5, 84840, Pitch_bend_c, 3, 8192
5, 84840, Note_on_c, 3, 73, 95
5, 84958, Note_off_c, 3, 73, 80
5, 84960, Note_on_c, 3, 70, 95
5, 85096, Pitch_bend_c, 3, 8320
5, 85112, Pitch_bend_c, 3, 8448
5, 85132, Pitch_bend_c, 3, 8320
5, 85148, Pitch_bend_c, 3, 8192
5, 85160, Pitch_bend_c, 3, 8064
5, 85176, Pitch_bend_c, 3, 7936
5, 85176, Pitch_bend_c, 3, 7552
5, 85180, Pitch_bend_c, 3, 7936
5, 85196, Pitch_bend_c, 3, 8064
5, 85197, Pitch_bend_c, 3, 6784
5, 85200, Pitch_bend_c, 3, 8064
5, 85212, Pitch_bend_c, 3, 8192
5, 85217, Pitch_bend_c, 3, 6144
5, 85220, Pitch_bend_c, 3, 8192
5, 85224, Pitch_bend_c, 3, 8320
5, 85236, Pitch_bend_c, 3, 8448
5, 85238, Pitch_bend_c, 3, 5504
5, 85240, Pitch_bend_c, 3, 8448
5, 85258, Pitch_bend_c, 3, 4736
5, 85260, Pitch_bend_c, 3, 8448
5, 85264, Pitch_bend_c, 3, 8320
5, 85276, Pitch_bend_c, 3, 8192
5, 85279, Pitch_bend_c, 3, 4096
5, 85280, Pitch_bend_c, 3, 8192
5, 85288, Pitch_bend_c, 3, 8064
5, 85299, Pitch_bend_c, 3, 3456
5, 85300, Pitch_bend_c, 3, 7936
5, 85318, Note_off_c, 3, 70, 80
5, 85320, Pitch_bend_c, 3, 8192
5, 85320, Pitch_bend_c, 3, 2688
5, 85320, Pitch_bend_c, 3, 8192
5, 85320, Note_on_c, 3, 62, 76
5, 85386, Pitch_bend_c, 3, 8832
5, 85393, Pitch_bend_c, 3, 9600
5, 85400, Pitch_bend_c, 3, 10240
5, 85406, Pitch_bend_c, 3, 10880
5, 85413, Pitch_bend_c, 3, 11648
5, 85420, Pitch_bend_c, 3, 12288
5, 85426, Pitch_bend_c, 3, 12928
5, 85433, Pitch_bend_c, 3, 13696
5, 85438, Note_off_c, 3, 62, 80
5, 85440, Pitch_bend_c, 3, 8192
5, 85440, Note_on_c, 3, 71, 76
5, 85558, Note_off_c, 3, 71, 80
5, 85560, Note_on_c, 3, 66, 95
5, 85678, Note_off_c, 3, 66, 80
5, 85680, Note_on_c, 3, 73, 95
5, 85798, Note_off_c, 3, 73, 80
5, 85800, Note_on_c, 3, 73, 95
5, 85848, Pitch_bend_c, 3, 8320
5, 85880, Pitch_bend_c, 3, 8448
5, 85896, Pitch_bend_c, 3, 8576
5, 85912, Pitch_bend_c, 3, 8704
5, 85928, Pitch_bend_c, 3, 8832
5, 86136, Pitch_bend_c, 3, 8704
5, 86152, Pitch_bend_c, 3, 8576
5, 86168, Pitch_bend_c, 3, 8448
5, 86184, Pitch_bend_c, 3, 8320
5, 86216, Pitch_bend_c, 3, 8192
5, 86398, Note_off_c, 3, 73, 80
5, 86400, Note_on_c, 3, 71, 95
5, 86536, Pitch_bend_c, 3, 8320
5, 86552, Pitch_bend_c, 3, 8448
5, 86572, Pitch_bend_c, 3, 8320
5, 86588, Pitch_bend_c, 3, 8192
5, 86600, Pitch_bend_c, 3, 8064
5, 86616, Pitch_bend_c, 3, 7936
5, 86636, Pitch_bend_c, 3, 8064
5, 86652, Pitch_bend_c, 3, 8192
5, 86664, Pitch_bend_c, 3, 8320
5, 86672, Pitch_bend_c, 3, 8448
5, 86708, Pitch_bend_c, 3, 8320
5, 86716, Pitch_bend_c, 3, 8192
5, 86728, Pitch_bend_c, 3, 8064
5, 86736, Pitch_bend_c, 3, 7936
5, 86772, Pitch_bend_c, 3, 8064
5, 86780, Pitch_bend_c, 3, 8192
5, 86792, Pitch_bend_c, 3, 8320
5, 86844, Pitch_bend_c, 3, 8192
5, 86856, Pitch_bend_c, 3, 8064
5, 86878, Note_off_c, 3, 71, 80
5, 86880, Pitch_bend_c, 3, 8192
5, 86880, Note_on_c, 3, 66, 95
5, 87288, Pitch_bend_c, 3, 8832
5, 87324, Pitch_bend_c, 3, 9600
5, 87358, Note_off_c, 3, 66, 80
5, 87360, Pitch_bend_c, 3, 8192
5, 87360, Note_on_c, 3, 69, 76
5, 87496, Pitch_bend_c, 3, 8320
5, 87516, Pitch_bend_c, 3, 8448
5, 87528, Pitch_bend_c, 3, 8320
5, 87548, Pitch_bend_c, 3, 8192
5, 87560, Pitch_bend_c, 3, 8064
5, 87580, Pitch_bend_c, 3, 7936
5, 87592, Pitch_bend_c, 3, 8064
5, 87612, Pitch_bend_c, 3, 8192
5, 87624, Pitch_bend_c, 3, 8320
5, 87632, Pitch_bend_c, 3, 8448
5, 87668, Pitch_bend_c, 3, 8320
5, 87676, Pitch_bend_c, 3, 8192
5, 87688, Pitch_bend_c, 3, 8064
5, 87696, Pitch_bend_c, 3, 7936
5, 87732, Pitch_bend_c, 3, 8064
5, 87740, Pitch_bend_c, 3, 8192
5, 87752, Pitch_bend_c, 3, 8320
5, 87760, Pitch_bend_c, 3, 8448
5, 87796, Pitch_bend_c, 3, 8320
5, 87804, Pitch_bend_c, 3, 8192
5, 87816, Pitch_bend_c, 3, 8064
5, 87824, Pitch_bend_c, 3, 7936
5, 87860, Pitch_bend_c, 3, 8064
5, 87868, Pitch_bend_c, 3, 8192
5, 87880, Pitch_bend_c, 3, 8320
5, 87900, Pitch_bend_c, 3, 8448
5, 87912, Pitch_bend_c, 3, 8320
5, 87932, Pitch_bend_c, 3, 8192
5, 87944, Pitch_bend_c, 3, 8064
5, 87964, Pitch_bend_c, 3, 7936
5, 87976, Pitch_bend_c, 3, 8064
5, 87996, Pitch_bend_c, 3, 8192
5, 88008, Pitch_bend_c, 3, 8320
5, 88028, Pitch_bend_c, 3, 8448
5, 88040, Pitch_bend_c, 3, 8320
5, 88060, Pitch_bend_c, 3, 8192
5, 88072, Pitch_bend_c, 3, 8064
5, 88078, Note_off_c, 3, 69, 80
5, 88080, Pitch_bend_c, 3, 8192
5, 88080, Note_on_c, 3, 67, 95
5, 88198, Note_off_c, 3, 67, 80
5, 88200, Note_on_c, 3, 66, 76
5, 88318, Note_off_c, 3, 66, 80
5, 88320, Note_on_c, 3, 67, 95
5, 88352, Pitch_bend_c, 3, 8320
5, 88368, Pitch_bend_c, 3, 8448
5, 88384, Pitch_bend_c, 3, 8704
5, 88400, Pitch_bend_c, 3, 8960
5, 88416, Pitch_bend_c, 3, 9344
5, 88432, Pitch_bend_c, 3, 9472
5, 88448, Pitch_bend_c, 3, 9600
5, 88460, Pitch_bend_c, 3, 9728
5, 88492, Pitch_bend_c, 3, 9600
5, 88512, Pitch_bend_c, 3, 9472
5, 88528, Pitch_bend_c, 3, 9344
5, 88560, Pitch_bend_c, 3, 9472
5, 88572, Pitch_bend_c, 3, 9600
5, 88576, Pitch_bend_c, 3, 9344
5, 88592, Pitch_bend_c, 3, 9088
5, 88608, Pitch_bend_c, 3, 8832
5, 88624, Pitch_bend_c, 3, 8576
5, 88640, Pitch_bend_c, 3, 8320
5, 88672, Pitch_bend_c, 3, 8192
5, 88688, Pitch_bend_c, 3, 8064
5, 88696, Pitch_bend_c, 3, 8192
5, 88716, Pitch_bend_c, 3, 8320
5, 88760, Pitch_bend_c, 3, 8192
5, 88772, Pitch_bend_c, 3, 8064
5, 88798, Note_off_c, 3, 67, 80
5, 88800, Pitch_bend_c, 3, 8192
5, 88800, Note_on_c, 3, 71, 95
5, 88908, Pitch_bend_c, 3, 8832
5, 88918, Note_off_c, 3, 71, 80
5, 88920, Pitch_bend_c, 3, 8192
5, 88920, Note_on_c, 3, 73, 76
5, 89038, Note_off_c, 3, 73, 80
5, 89040, Note_on_c, 3, 74, 95
5, 89158, Note_off_c, 3, 74, 80
5, 89160, Note_on_c, 3, 76, 95
5, 89278, Note_off_c, 3, 76, 80
5, 89280, Note_on_c, 3, 78, 95
5, 89398, Note_off_c, 3, 78, 80
5, 89400, Note_on_c, 3, 79, 95
5, 89518, Note_off_c, 3, 79, 80
5, 89520, Note_on_c, 3, 81, 95
5, 89552, Pitch_bend_c, 3, 8320
5, 89568, Pitch_bend_c, 3, 8448
5, 89584, Pitch_bend_c, 3, 8704
5, 89600, Pitch_bend_c, 3, 8960
5, 89616, Pitch_bend_c, 3, 9344
5, 89632, Pitch_bend_c, 3, 9472
5, 89648, Pitch_bend_c, 3, 9600
5, 89776, Pitch_bend_c, 3, 9344
5, 89792, Pitch_bend_c, 3, 9088
5, 89808, Pitch_bend_c, 3, 8832
5, 89824, Pitch_bend_c, 3, 8576
5, 89840, Pitch_bend_c, 3, 8320
5, 89872, Pitch_bend_c, 3, 8192
5, 89998, Note_off_c, 3, 81, 80
5, 90000, Note_on_c, 3, 83, 95
5, 90058, Note_off_c, 3, 83, 80
5, 90060, Note_on_c, 3, 74, 95
5, 90108, Pitch_bend_c, 3, 7552
5, 90118, Note_off_c, 3, 74, 80
5, 90120, Pitch_bend_c, 3, 8192
5, 90120, Note_on_c, 3, 73, 76
5, 90178, Note_off_c, 3, 73, 80
5, 90180, Note_on_c, 3, 81, 95
5, 90238, Note_off_c, 3, 81, 80
5, 90240, Note_on_c, 3, 73, 95
5, 90294, Pitch_bend_c, 3, 7552
5, 90298, Note_off_c, 3, 73, 80
5, 90300, Pitch_bend_c, 3, 8192
5, 90300, Note_on_c, 3, 71, 76
5, 90358, Note_off_c, 3, 71, 80
5, 90360, Note_on_c, 3, 79, 95
5, 90418, Note_off_c, 3, 79, 80
5, 90420, Note_on_c, 3, 71, 95
5, 90474, Pitch_bend_c, 3, 7552
5, 90478, Note_off_c, 3, 71, 80
5, 90480, Pitch_bend_c, 3, 8192
5, 90480, Note_on_c, 3, 69, 76
5, 90538, Note_off_c, 3, 69, 80
5, 90540, Note_on_c, 3, 78, 95
5, 90598, Note_off_c, 3, 78, 80
5, 90600, Note_on_c, 3, 69, 95
5, 90654, Pitch_bend_c, 3, 7552
5, 90658, Note_off_c, 3, 69, 80
5, 90660, Pitch_bend_c, 3, 8192
5, 90660, Note_on_c, 3, 67, 76
5, 90718, Note_off_c, 3, 67, 80
5, 90720, Note_on_c, 3, 76, 95
5, 90778, Note_off_c, 3, 76, 80
5, 90780, Note_on_c, 3, 67, 95
5, 90828, Pitch_bend_c, 3, 7552
5, 90838, Note_off_c, 3, 67, 80
5, 90840, Pitch_bend_c, 3, 8192
5, 90840, Note_on_c, 3, 66, 76
5, 90898, Note_off_c, 3, 66, 80
5, 90900, Note_on_c, 3, 74, 95
5, 90958, Note_off_c, 3, 74, 80
5, 90960, Note_on_c, 3, 71, 95
5, 91018, Note_off_c, 3, 71, 80
5, 91020, Note_on_c, 3, 69, 95
5, 91048, Note_off_c, 3, 69, 80
5, 91050, Note_on_c, 3, 66, 76
5, 91078, Note_off_c, 3, 66, 80
5, 91080, Note_on_c, 3, 64, 95
5, 91118, Note_off_c, 3, 64, 80
5, 91120, Note_on_c, 3, 66, 76
5, 91158, Note_off_c, 3, 66, 80
5, 91160, Note_on_c, 3, 64, 76
5, 91198, Note_off_c, 3, 64, 80
5, 91200, Note_on_c, 3, 62, 95
5, 91258, Note_off_c, 3, 62, 80
5, 91260, Note_on_c, 3, 59, 95
5, 91318, Note_off_c, 3, 59, 80
5, 91320, Note_on_c, 3, 57, 95
5, 91378, Note_off_c, 3, 57, 80
5, 91380, Note_on_c, 3, 62, 95
5, 91918, Note_off_c, 3, 62, 80
5, 91920, Note_on_c, 3, 60, 95
5, 92038, Note_off_c, 3, 60, 80
5, 92040, Note_on_c, 3, 59, 76
5, 92158, Note_off_c, 3, 59, 80
5, 92160, Note_on_c, 3, 60, 95
5, 94080, Control_c, 3, 7, 103
5, 94200, Control_c, 3, 7, 95
5, 94320, Control_c, 3, 7, 86
5, 94440, Control_c, 3, 7, 78
5, 94560, Control_c, 3, 7, 69
5, 94680, Control_c, 3, 7, 60
5, 94800, Control_c, 3, 7, 52
5, 94920, Control_c, 3, 7, 43
5, 95040, Control_c, 3, 7, 34
5, 95160, Control_c, 3, 7, 26
5, 95280, Control_c, 3, 7, 17
5, 95400, Control_c, 3, 7, 9
5, 95520, Control_c, 3, 7, 0
5, 95998, Note_off_c, 3, 60, 80
5, 115200, Control_c, 3, 7, 64
5, 116880, Note_on_c, 3, 57, 76
5, 116918, Note_off_c, 3, 57, 80
5, 116920, Note_on_c, 3, 54, 76
5, 116958, Note_off_c, 3, 54, 80
5, 116960, Note_on_c, 3, 55, 76
5, 116998, Note_off_c, 3, 55, 80
5, 117000, Note_on_c, 3, 54, 76
5, 117038, Note_off_c, 3, 54, 80
5, 117040, Note_on_c, 3, 57, 76
5, 117078, Note_off_c, 3, 57, 80
5, 117080, Note_on_c, 3, 54, 76
5, 117118, Note_off_c, 3, 54, 80
5, 117120, Note_on_c, 3, 55, 95
5, 117158, Note_off_c, 3, 55, 80
5, 117160, Note_on_c, 3, 54, 76
5, 117198, Note_off_c, 3, 54, 80
5, 117200, Note_on_c, 3, 57, 76
5, 117238, Note_off_c, 3, 57, 80
5, 117240, Note_on_c, 3, 54, 76
5, 117278, Note_off_c, 3, 54, 80
5, 117280, Note_on_c, 3, 55, 76
5, 117318, Note_off_c, 3, 55, 80
5, 117320, Note_on_c, 3, 54, 76
5, 117358, Note_off_c, 3, 54, 80
5, 117360, Note_on_c, 3, 57, 76
5, 117398, Note_off_c, 3, 57, 80
5, 117400, Note_on_c, 3, 54, 76
5, 117438, Note_off_c, 3, 54, 80
5, 117440, Note_on_c, 3, 55, 76
5, 117478, Note_off_c, 3, 55, 80
5, 117480, Note_on_c, 3, 54, 76
5, 117518, Note_off_c, 3, 54, 80
5, 117520, Note_on_c, 3, 57, 76
5, 117558, Note_off_c, 3, 57, 80
5, 117560, Note_on_c, 3, 54, 76
5, 117598, Note_off_c, 3, 54, 80
5, 117600, Note_on_c, 3, 55, 76
5, 117638, Note_off_c, 3, 55, 80
5, 117640, Note_on_c, 3, 54, 76
5, 117678, Note_off_c, 3, 54, 80
5, 117680, Note_on_c, 3, 57, 76
5, 117718, Note_off_c, 3, 57, 80
5, 117720, Note_on_c, 3, 54, 76
5, 117758, Note_off_c, 3, 54, 80
5, 117760, Note_on_c, 3, 55, 76
5, 117798, Note_off_c, 3, 55, 80
5, 117800, Note_on_c, 3, 54, 76
5, 117838, Note_off_c, 3, 54, 80
5, 117840, Note_on_c, 3, 57, 76
5, 117878, Note_off_c, 3, 57, 80
5, 117880, Note_on_c, 3, 54, 76
5, 117918, Note_off_c, 3, 54, 80
5, 117920, Note_on_c, 3, 55, 76
5, 117958, Note_off_c, 3, 55, 80
5, 117960, Note_on_c, 3, 54, 76
5, 117998, Note_off_c, 3, 54, 80
5, 118000, Note_on_c, 3, 57, 76
5, 118038, Note_off_c, 3, 57, 80
5, 118040, Note_on_c, 3, 54, 76
5, 118078, Note_off_c, 3, 54, 80
5, 118080, Note_on_c, 3, 55, 76
5, 118118, Note_off_c, 3, 55, 80
5, 118120, Note_on_c, 3, 54, 76
5, 118158, Note_off_c, 3, 54, 80
5, 118160, Note_on_c, 3, 57, 76
5, 118198, Note_off_c, 3, 57, 80
5, 118200, Note_on_c, 3, 54, 76
5, 118238, Note_off_c, 3, 54, 80
5, 118240, Note_on_c, 3, 55, 76
5, 118278, Note_off_c, 3, 55, 80
5, 118280, Note_on_c, 3, 54, 76
5, 118318, Note_off_c, 3, 54, 80
5, 118320, Note_on_c, 3, 57, 76
5, 118358, Note_off_c, 3, 57, 80
5, 118360, Note_on_c, 3, 54, 76
5, 118398, Note_off_c, 3, 54, 80
5, 118400, Note_on_c, 3, 55, 76
5, 118438, Note_off_c, 3, 55, 80
5, 118440, Note_on_c, 3, 54, 76
5, 118478, Note_off_c, 3, 54, 80
5, 118480, Note_on_c, 3, 57, 76
5, 118518, Note_off_c, 3, 57, 80
5, 118520, Note_on_c, 3, 54, 76
5, 118558, Note_off_c, 3, 54, 80
5, 118560, Note_on_c, 3, 55, 76
5, 118598, Note_off_c, 3, 55, 80
5, 118600, Note_on_c, 3, 54, 76
5, 118638, Note_off_c, 3, 54, 80
5, 118640, Note_on_c, 3, 57, 76
5, 118678, Note_off_c, 3, 57, 80
5, 118680, Note_on_c, 3, 54, 76
5, 118718, Note_off_c, 3, 54, 80
5, 118720, Note_on_c, 3, 55, 76
5, 118758, Note_off_c, 3, 55, 80
5, 118760, Note_on_c, 3, 54, 76
5, 118798, Note_off_c, 3, 54, 80
5, 118800, Note_on_c, 3, 52, 95
5, 118878, Note_off_c, 3, 52, 80
5, 118960, Note_on_c, 3, 52, 95
5, 119038, Note_off_c, 3, 52, 80
5, 119040, Note_on_c, 3, 57, 76
5, 119078, Note_off_c, 3, 57, 80
5, 119080, Note_on_c, 3, 52, 76
5, 119118, Note_off_c, 3, 52, 80
5, 119120, Note_on_c, 3, 55, 76
5, 119158, Note_off_c, 3, 55, 80
5, 119160, Note_on_c, 3, 52, 76
5, 119198, Note_off_c, 3, 52, 80
5, 119200, Note_on_c, 3, 57, 76
5, 119238, Note_off_c, 3, 57, 80
5, 119240, Note_on_c, 3, 52, 76
5, 119278, Note_off_c, 3, 52, 80
5, 119280, Note_on_c, 3, 55, 76
5, 119318, Note_off_c, 3, 55, 80
5, 119320, Note_on_c, 3, 52, 76
5, 119358, Note_off_c, 3, 52, 80
5, 119360, Note_on_c, 3, 57, 76
5, 119398, Note_off_c, 3, 57, 80
5, 119400, Note_on_c, 3, 54, 76
5, 119438, Note_off_c, 3, 54, 80
5, 119440, Note_on_c, 3, 55, 76
5, 119478, Note_off_c, 3, 55, 80
5, 119480, Note_on_c, 3, 54, 76
5, 119518, Note_off_c, 3, 54, 80
5, 119520, Note_on_c, 3, 57, 76
5, 119558, Note_off_c, 3, 57, 80
5, 119560, Note_on_c, 3, 54, 76
5, 119598, Note_off_c, 3, 54, 80
5, 119600, Note_on_c, 3, 55, 76
5, 119638, Note_off_c, 3, 55, 80
5, 119640, Note_on_c, 3, 54, 76
5, 119678, Note_off_c, 3, 54, 80
5, 119680, Note_on_c, 3, 57, 76
5, 119718, Note_off_c, 3, 57, 80
5, 119720, Note_on_c, 3, 52, 76
5, 119758, Note_off_c, 3, 52, 80
5, 119760, Note_on_c, 3, 55, 76
5, 119798, Note_off_c, 3, 55, 80
5, 119800, Note_on_c, 3, 52, 76
5, 119838, Note_off_c, 3, 52, 80
5, 119840, Note_on_c, 3, 57, 76
5, 119878, Note_off_c, 3, 57, 80
5, 119880, Note_on_c, 3, 52, 76
5, 119918, Note_off_c, 3, 52, 80
5, 119920, Note_on_c, 3, 55, 76
5, 119958, Note_off_c, 3, 55, 80
5, 119960, Note_on_c, 3, 52, 76
5, 119998, Note_off_c, 3, 52, 80
5, 120000, Note_on_c, 3, 57, 76
5, 120038, Note_off_c, 3, 57, 80
5, 120040, Note_on_c, 3, 54, 76
5, 120078, Note_off_c, 3, 54, 80
5, 120080, Note_on_c, 3, 55, 76
5, 120118, Note_off_c, 3, 55, 80
5, 120120, Note_on_c, 3, 54, 76
5, 120158, Note_off_c, 3, 54, 80
5, 120160, Note_on_c, 3, 57, 76
5, 120198, Note_off_c, 3, 57, 80
5, 120200, Note_on_c, 3, 52, 76
5, 120238, Note_off_c, 3, 52, 80
5, 120240, Note_on_c, 3, 55, 76
5, 120278, Note_off_c, 3, 55, 80
5, 120280, Note_on_c, 3, 52, 76
5, 120318, Note_off_c, 3, 52, 80
5, 120320, Note_on_c, 3, 57, 76
5, 120358, Note_off_c, 3, 57, 80
5, 120360, Note_on_c, 3, 52, 76
5, 120398, Note_off_c, 3, 52, 80
5, 120400, Note_on_c, 3, 55, 76
5, 120438, Note_off_c, 3, 55, 80
5, 120440, Note_on_c, 3, 52, 76
5, 120478, Note_off_c, 3, 52, 80
5, 120480, Note_on_c, 3, 57, 76
5, 120518, Note_off_c, 3, 57, 80
5, 120520, Note_on_c, 3, 54, 76
5, 120558, Note_off_c, 3, 54, 80
5, 120560, Note_on_c, 3, 57, 76
5, 120598, Note_off_c, 3, 57, 80
5, 120600, Note_on_c, 3, 54, 76
5, 120638, Note_off_c, 3, 54, 80
5, 120640, Note_on_c, 3, 57, 76
5, 120678, Note_off_c, 3, 57, 80
5, 120680, Note_on_c, 3, 54, 76
5, 120718, Note_off_c, 3, 54, 80
5, 120720, Note_on_c, 3, 55, 76
5, 120758, Note_off_c, 3, 55, 80
5, 120760, Note_on_c, 3, 54, 76
5, 120798, Note_off_c, 3, 54, 80
5, 120800, Note_on_c, 3, 57, 76
5, 120838, Note_off_c, 3, 57, 80
5, 120840, Note_on_c, 3, 52, 76
5, 120878, Note_off_c, 3, 52, 80
5, 120880, Note_on_c, 3, 55, 76
5, 120918, Note_off_c, 3, 55, 80
5, 120920, Note_on_c, 3, 52, 76
5, 120958, Note_off_c, 3, 52, 80
5, 120960, Control_c, 3, 7, 112
5, 120960, Note_on_c, 3, 61, 95
5, 121318, Note_off_c, 3, 61, 80
5, 121800, Note_on_c, 3, 55, 95
5, 121858, Note_off_c, 3, 55, 80
5, 121860, Note_on_c, 3, 54, 76
5, 121918, Note_off_c, 3, 54, 80
5, 121920, Note_on_c, 3, 55, 76
5, 121978, Note_off_c, 3, 55, 80
5, 121980, Note_on_c, 3, 54, 76
5, 122758, Note_off_c, 3, 54, 80
5, 122760, Note_on_c, 3, 57, 95
5, 122818, Note_off_c, 3, 57, 80
5, 122820, Note_on_c, 3, 55, 76
5, 122878, Note_off_c, 3, 55, 80
5, 122880, Note_on_c, 3, 54, 76
5, 124798, Note_off_c, 3, 54, 80
5, 211260, Pitch_bend_c, 3, 10240
5, 211260, Note_on_c, 3, 70, 95
5, 211280, Pitch_bend_c, 3, 9600
5, 211300, Pitch_bend_c, 3, 8832
5, 211320, Pitch_bend_c, 3, 8192
5, 211438, Note_off_c, 3, 70, 80
5, 211440, Note_on_c, 3, 70, 95
5, 211536, Pitch_bend_c, 3, 8832
5, 211558, Note_off_c, 3, 70, 80
5, 211560, Pitch_bend_c, 3, 8192
5, 211560, Note_on_c, 3, 71, 76
5, 211650, Pitch_bend_c, 3, 8832
5, 211658, Pitch_bend_c, 3, 9600
5, 211665, Pitch_bend_c, 3, 10240
5, 211672, Pitch_bend_c, 3, 10880
5, 211678, Note_off_c, 3, 71, 80
5, 211680, Pitch_bend_c, 3, 8192
5, 211680, Note_on_c, 3, 76, 76
5, 212038, Note_off_c, 3, 76, 80
5, 212040, Note_on_c, 3, 71, 95
5, 212158, Note_off_c, 3, 71, 80
5, 212160, Note_on_c, 3, 71, 95
5, 212198, Note_off_c, 3, 71, 80
5, 212200, Note_on_c, 3, 73, 76
5, 212238, Note_off_c, 3, 73, 80
5, 212240, Note_on_c, 3, 71, 76
5, 212278, Note_off_c, 3, 71, 80
5, 212280, Note_on_c, 3, 70, 76
5, 212398, Note_off_c, 3, 70, 80
5, 212400, Note_on_c, 3, 70, 95
5, 212438, Note_off_c, 3, 70, 80
5, 212440, Note_on_c, 3, 71, 76
5, 212478, Note_off_c, 3, 71, 80
5, 212480, Note_on_c, 3, 70, 76
5, 212514, Pitch_bend_c, 3, 7552
5, 212517, Pitch_bend_c, 3, 6784
5, 212518, Note_off_c, 3, 70, 80
5, 212520, Pitch_bend_c, 3, 8192
5, 212520, Note_on_c, 3, 67, 76
5, 212638, Note_off_c, 3, 67, 80
5, 212640, Note_on_c, 3, 67, 95
5, 212698, Note_off_c, 3, 67, 80
5, 212700, Note_on_c, 3, 70, 76
5, 212758, Note_off_c, 3, 70, 80
5, 212760, Note_on_c, 3, 67, 76
5, 212818, Note_off_c, 3, 67, 80
5, 212820, Note_on_c, 3, 66, 76
5, 212878, Note_off_c, 3, 66, 80
5, 212880, Note_on_c, 3, 67, 95
5, 212998, Note_off_c, 3, 67, 80
5, 213000, Note_on_c, 3, 66, 95
5, 213016, Pitch_bend_c, 3, 8320
5, 213032, Pitch_bend_c, 3, 8448
5, 213048, Pitch_bend_c, 3, 8704
5, 213064, Pitch_bend_c, 3, 8832
5, 213144, Pitch_bend_c, 3, 8576
5, 213160, Pitch_bend_c, 3, 8320
5, 213176, Pitch_bend_c, 3, 8192
5, 213238, Note_off_c, 3, 66, 80
5, 213240, Note_on_c, 3, 79, 95
5, 213358, Note_off_c, 3, 79, 80
5, 213360, Note_on_c, 3, 78, 95
5, 213392, Pitch_bend_c, 3, 8320
5, 213408, Pitch_bend_c, 3, 8448
5, 213424, Pitch_bend_c, 3, 8704
5, 213440, Pitch_bend_c, 3, 8832
5, 213568, Pitch_bend_c, 3, 8576
5, 213584, Pitch_bend_c, 3, 8448
5, 213600, Pitch_bend_c, 3, 8320
5, 213616, Pitch_bend_c, 3, 8192
5, 213718, Note_off_c, 3, 78, 80
5, 213720, Note_on_c, 3, 74, 95
5, 213778, Note_off_c, 3, 74, 80
5, 213780, Note_on_c, 3, 77, 95
5, 213838, Note_off_c, 3, 77, 80
5, 213840, Note_on_c, 3, 78, 95
5, 213898, Note_off_c, 3, 78, 80
5, 213900, Note_on_c, 3, 79, 95
5, 213958, Note_off_c, 3, 79, 80
5, 213960, Note_on_c, 3, 78, 95
5, 214018, Note_off_c, 3, 78, 80
5, 214020, Note_on_c, 3, 77, 95
5, 214078, Note_off_c, 3, 77, 80
5, 214080, Note_on_c, 3, 74, 95
5, 214138, Note_off_c, 3, 74, 80
5, 214140, Note_on_c, 3, 73, 76
5, 214168, Note_off_c, 3, 73, 80
5, 214170, Note_on_c, 3, 71, 76
5, 214198, Note_off_c, 3, 71, 80
5, 214200, Note_on_c, 3, 67, 95
5, 214258, Note_off_c, 3, 67, 80
5, 214260, Note_on_c, 3, 65, 76
5, 214288, Note_off_c, 3, 65, 80
5, 214290, Note_on_c, 3, 66, 76
5, 214318, Note_off_c, 3, 66, 80
5, 214320, Note_on_c, 3, 67, 95
5, 214438, Note_off_c, 3, 67, 80
5, 214440, Note_on_c, 3, 66, 95
5, 214468, Note_off_c, 3, 66, 80
5, 214470, Note_on_c, 3, 64, 95
5, 214558, Note_off_c, 3, 64, 80
5, 214560, Note_on_c, 3, 74, 95
5, 214592, Pitch_bend_c, 3, 8320
5, 214608, Pitch_bend_c, 3, 8448
5, 214624, Pitch_bend_c, 3, 8704
5, 214640, Pitch_bend_c, 3, 8960
5, 214656, Pitch_bend_c, 3, 9344
5, 214672, Pitch_bend_c, 3, 9472
5, 214688, Pitch_bend_c, 3, 9600
5, 214816, Pitch_bend_c, 3, 9344
5, 214832, Pitch_bend_c, 3, 9088
5, 214848, Pitch_bend_c, 3, 8832
5, 214864, Pitch_bend_c, 3, 8576
5, 214880, Pitch_bend_c, 3, 8320
5, 214912, Pitch_bend_c, 3, 8192
5, 215038, Note_off_c, 3, 74, 80
5, 215040, Note_on_c, 3, 80, 95
5, 215098, Note_off_c, 3, 80, 80
5, 215100, Note_on_c, 3, 80, 95
5, 215151, Pitch_bend_c, 3, 7552
5, 215156, Pitch_bend_c, 3, 6784
5, 215158, Note_off_c, 3, 80, 80
5, 215160, Pitch_bend_c, 3, 8192
5, 215160, Note_on_c, 3, 77, 76
5, 215278, Note_off_c, 3, 77, 80
5, 215280, Note_on_c, 3, 77, 95
5, 215398, Note_off_c, 3, 77, 80
5, 215400, Note_on_c, 3, 78, 76
5, 215518, Note_off_c, 3, 78, 80
5, 215520, Note_on_c, 3, 78, 95
5, 215548, Note_off_c, 3, 78, 80
5, 215550, Note_on_c, 3, 79, 76
5, 215578, Note_off_c, 3, 79, 80
5, 215580, Note_on_c, 3, 81, 76
5, 215608, Note_off_c, 3, 81, 80
5, 215610, Note_on_c, 3, 82, 95
5, 215638, Note_off_c, 3, 82, 80
5, 215640, Note_on_c, 3, 81, 76
5, 215686, Note_off_c, 3, 81, 80
5, 215688, Note_on_c, 3, 82, 95
5, 215734, Note_off_c, 3, 82, 80
5, 215736, Note_on_c, 3, 81, 76
5, 215782, Note_off_c, 3, 81, 80
5, 215784, Note_on_c, 3, 79, 76
5, 215830, Note_off_c, 3, 79, 80
5, 215832, Note_on_c, 3, 78, 76
5, 215878, Note_off_c, 3, 78, 80
5, 215880, Note_on_c, 3, 76, 76
5, 216118, Note_off_c, 3, 76, 80
5, 216120, Note_on_c, 3, 77, 95
5, 216238, Note_off_c, 3, 77, 80
5, 216240, Note_on_c, 3, 77, 95
5, 216358, Note_off_c, 3, 77, 80
5, 216360, Note_on_c, 3, 78, 76
5, 216478, Note_off_c, 3, 78, 80
5, 216480, Note_on_c, 3, 78, 95
5, 216508, Note_off_c, 3, 78, 80
5, 216510, Note_on_c, 3, 79, 76
5, 216538, Note_off_c, 3, 79, 80
5, 216540, Note_on_c, 3, 81, 76
5, 216568, Note_off_c, 3, 81, 80
5, 216570, Note_on_c, 3, 82, 95
5, 216598, Note_off_c, 3, 82, 80
5, 216600, Note_on_c, 3, 81, 76
5, 216646, Note_off_c, 3, 81, 80
5, 216648, Note_on_c, 3, 82, 95
5, 216694, Note_off_c, 3, 82, 80
5, 216696, Note_on_c, 3, 81, 76
5, 216742, Note_off_c, 3, 81, 80
5, 216744, Note_on_c, 3, 79, 76
5, 216790, Note_off_c, 3, 79, 80
5, 216792, Note_on_c, 3, 78, 76
5, 216823, Pitch_bend_c, 3, 8832
5, 216826, Pitch_bend_c, 3, 9600
5, 216829, Pitch_bend_c, 3, 10240
5, 216832, Pitch_bend_c, 3, 10880
5, 216834, Pitch_bend_c, 3, 11648
5, 216837, Pitch_bend_c, 3, 12288
5, 216838, Note_off_c, 3, 78, 80
5, 216840, Pitch_bend_c, 3, 12928
5, 216840, Pitch_bend_c, 3, 8192
5, 216840, Note_on_c, 3, 85, 76
5, 217078, Note_off_c, 3, 85, 80
5, 217080, Note_on_c, 3, 78, 95
5, 217108, Note_off_c, 3, 78, 80
5, 217110, Note_on_c, 3, 79, 76
5, 217138, Note_off_c, 3, 79, 80
5, 217140, Note_on_c, 3, 81, 76
5, 217168, Note_off_c, 3, 81, 80
5, 217170, Note_on_c, 3, 82, 95
5, 217198, Note_off_c, 3, 82, 80
5, 217200, Note_on_c, 3, 81, 76
5, 217246, Note_off_c, 3, 81, 80
5, 217248, Note_on_c, 3, 82, 95
5, 217294, Note_off_c, 3, 82, 80
5, 217296, Note_on_c, 3, 81, 76
5, 217342, Note_off_c, 3, 81, 80
5, 217344, Note_on_c, 3, 79, 76
5, 217390, Note_off_c, 3, 79, 80
5, 217392, Note_on_c, 3, 78, 76
5, 217438, Note_off_c, 3, 78, 80
5, 217440, Note_on_c, 3, 82, 95
5, 217468, Note_off_c, 3, 82, 80
5, 217470, Note_on_c, 3, 81, 76
5, 217498, Note_off_c, 3, 81, 80
5, 217500, Note_on_c, 3, 82, 95
5, 217528, Note_off_c, 3, 82, 80
5, 217530, Note_on_c, 3, 81, 76
5, 217558, Note_off_c, 3, 81, 80
5, 217560, Note_on_c, 3, 79, 76
5, 217598, Note_off_c, 3, 79, 80
5, 217600, Note_on_c, 3, 78, 76
5, 217638, Note_off_c, 3, 78, 80
5, 217640, Note_on_c, 3, 76, 76
5, 217674, Pitch_bend_c, 3, 8832
5, 217677, Pitch_bend_c, 3, 9600
5, 217678, Note_off_c, 3, 76, 80
5, 217680, Pitch_bend_c, 3, 8192
5, 217680, Note_on_c, 3, 79, 76
5, 217708, Note_off_c, 3, 79, 80
5, 217710, Note_on_c, 3, 82, 95
5, 217738, Note_off_c, 3, 82, 80
5, 217740, Note_on_c, 3, 79, 76
5, 217768, Note_off_c, 3, 79, 80
5, 217770, Note_on_c, 3, 82, 95
5, 217798, Note_off_c, 3, 82, 80
5, 217800, Note_on_c, 3, 79, 76
5, 217838, Note_off_c, 3, 79, 80
5, 217840, Note_on_c, 3, 78, 76
5, 217878, Note_off_c, 3, 78, 80
5, 217880, Note_on_c, 3, 76, 76
5, 217912, Pitch_bend_c, 3, 7552
5, 217918, Note_off_c, 3, 76, 80
5, 217920, Pitch_bend_c, 3, 8192
5, 217920, Note_on_c, 3, 75, 76
5, 217948, Note_off_c, 3, 75, 80
5, 217950, Note_on_c, 3, 76, 76
5, 217978, Note_off_c, 3, 76, 80
5, 217980, Note_on_c, 3, 78, 76
5, 218008, Note_off_c, 3, 78, 80
5, 218010, Note_on_c, 3, 82, 95
5, 218038, Note_off_c, 3, 82, 80
5, 218040, Note_on_c, 3, 78, 76
5, 218078, Note_off_c, 3, 78, 80
5, 218080, Note_on_c, 3, 76, 76
5, 218118, Note_off_c, 3, 76, 80
5, 218120, Note_on_c, 3, 74, 76
5, 218158, Note_off_c, 3, 74, 80
5, 218160, Note_on_c, 3, 76, 76
5, 218198, Note_off_c, 3, 76, 80
5, 218200, Note_on_c, 3, 82, 95
5, 218238, Note_off_c, 3, 82, 80
5, 218240, Note_on_c, 3, 76, 76
5, 218278, Note_off_c, 3, 76, 80
5, 218280, Note_on_c, 3, 82, 95
5, 218318, Note_off_c, 3, 82, 80
5, 218320, Note_on_c, 3, 76, 76
5, 218358, Note_off_c, 3, 76, 80
5, 218360, Note_on_c, 3, 74, 76
5, 218398, Note_off_c, 3, 74, 80
5, 218400, Note_on_c, 3, 82, 95
5, 218438, Note_off_c, 3, 82, 80
5, 218440, Note_on_c, 3, 74, 76
5, 218478, Note_off_c, 3, 74, 80
5, 218480, Note_on_c, 3, 82, 95
5, 218518, Note_off_c, 3, 82, 80
5, 218520, Note_on_c, 3, 74, 76
5, 218558, Note_off_c, 3, 74, 80
5, 218560, Note_on_c, 3, 73, 76
5, 218598, Note_off_c, 3, 73, 80
5, 218600, Note_on_c, 3, 71, 76
5, 218638, Note_off_c, 3, 71, 80
5, 218640, Note_on_c, 3, 82, 95
5, 218668, Note_off_c, 3, 82, 80
5, 218670, Note_on_c, 3, 71, 76
5, 218698, Note_off_c, 3, 71, 80
5, 218700, Note_on_c, 3, 73, 76
5, 218728, Note_off_c, 3, 73, 80
5, 218730, Note_on_c, 3, 82, 95
5, 218758, Note_off_c, 3, 82, 80
5, 218760, Note_on_c, 3, 71, 76
5, 218788, Note_off_c, 3, 71, 80
5, 218790, Note_on_c, 3, 73, 76
5, 218818, Note_off_c, 3, 73, 80
5, 218820, Note_on_c, 3, 71, 76
5, 218848, Note_off_c, 3, 71, 80
5, 218850, Note_on_c, 3, 70, 76
5, 218878, Note_off_c, 3, 70, 80
5, 218880, Control_c, 3, 7, 103
5, 218880, Note_on_c, 3, 71, 95
5, 219000, Control_c, 3, 7, 95
5, 219120, Control_c, 3, 7, 86
5, 219240, Control_c, 3, 7, 78
5, 219360, Control_c, 3, 7, 69
5, 219480, Control_c, 3, 7, 60
5, 219600, Control_c, 3, 7, 52
5, 219720, Control_c, 3, 7, 43
5, 219840, Control_c, 3, 7, 34
5, 219960, Control_c, 3, 7, 26
5, 220080, Control_c, 3, 7, 17
5, 220200, Control_c, 3, 7, 9
5, 220320, Control_c, 3, 7, 0
5, 220798, Note_off_c, 3, 71, 80
5, 289920, Note_on_c, 3, 71, 95
5, 290000, Pitch_bend_c, 3, 8320
5, 290080, Pitch_bend_c, 3, 8448
5, 290112, Pitch_bend_c, 3, 8576
5, 290144, Pitch_bend_c, 3, 8704
5, 290176, Pitch_bend_c, 3, 8832
5, 290192, Pitch_bend_c, 3, 8960
5, 290224, Pitch_bend_c, 3, 9088
5, 290240, Pitch_bend_c, 3, 9216
5, 290256, Pitch_bend_c, 3, 9344
5, 290304, Pitch_bend_c, 3, 9472
5, 290336, Pitch_bend_c, 3, 9600
5, 290758, Note_off_c, 3, 71, 80
5, 290760, Pitch_bend_c, 3, 8192
5, 290760, Note_on_c, 3, 74, 95
5, 290808, Pitch_bend_c, 3, 8320
5, 290872, Pitch_bend_c, 3, 8448
5, 290888, Pitch_bend_c, 3, 8576
5, 290920, Pitch_bend_c, 3, 8704
5, 290936, Pitch_bend_c, 3, 8832
5, 290952, Pitch_bend_c, 3, 8960
5, 290968, Pitch_bend_c, 3, 9088
5, 291000, Pitch_bend_c, 3, 9344
5, 291032, Pitch_bend_c, 3, 9472
5, 291064, Pitch_bend_c, 3, 9600
5, 291358, Note_off_c, 3, 74, 80
5, 291360, Pitch_bend_c, 3, 8192
5, 291360, Note_on_c, 3, 76, 95
5, 291478, Note_off_c, 3, 76, 80
5, 291480, Note_on_c, 3, 74, 95
5, 291528, Pitch_bend_c, 3, 8320
5, 291576, Pitch_bend_c, 3, 8448
5, 291592, Pitch_bend_c, 3, 8576
5, 291608, Pitch_bend_c, 3, 8704
5, 291624, Pitch_bend_c, 3, 8832
5, 291640, Pitch_bend_c, 3, 8960
5, 291656, Pitch_bend_c, 3, 9088
5, 291672, Pitch_bend_c, 3, 9344
5, 291704, Pitch_bend_c, 3, 9472
5, 291720, Pitch_bend_c, 3, 9600
5, 291958, Note_off_c, 3, 74, 80
5, 291960, Pitch_bend_c, 3, 8192
5, 291960, Note_on_c, 3, 74, 95
5, 291976, Pitch_bend_c, 3, 8320
5, 291992, Pitch_bend_c, 3, 8704
5, 292008, Pitch_bend_c, 3, 9344
5, 292024, Pitch_bend_c, 3, 9600
5, 292078, Note_off_c, 3, 74, 80
5, 292080, Pitch_bend_c, 3, 8192
5, 292080, Note_on_c, 3, 76, 95
5, 292198, Note_off_c, 3, 76, 80
5, 292200, Note_on_c, 3, 71, 95
5, 292318, Note_off_c, 3, 71, 80
5, 292320, Note_on_c, 3, 79, 95
5, 292352, Pitch_bend_c, 3, 8320
5, 292384, Pitch_bend_c, 3, 8448
5, 292400, Pitch_bend_c, 3, 8576
5, 292416, Pitch_bend_c, 3, 8704
5, 292432, Pitch_bend_c, 3, 8960
5, 292448, Pitch_bend_c, 3, 9088
5, 292464, Pitch_bend_c, 3, 9344
5, 292480, Pitch_bend_c, 3, 9472
5, 292512, Pitch_bend_c, 3, 9600
5, 292678, Note_off_c, 3, 79, 80
5, 292680, Pitch_bend_c, 3, 8192
5, 292680, Note_on_c, 3, 79, 95
5, 292696, Pitch_bend_c, 3, 8320
5, 292712, Pitch_bend_c, 3, 8704
5, 292728, Pitch_bend_c, 3, 9344
5, 292744, Pitch_bend_c, 3, 9600
5, 292808, Pitch_bend_c, 3, 9344
5, 292824, Pitch_bend_c, 3, 8832
5, 292840, Pitch_bend_c, 3, 8320
5, 292856, Pitch_bend_c, 3, 8192
5, 292918, Note_off_c, 3, 79, 80
5, 292920, Note_on_c, 3, 76, 95
5, 293038, Note_off_c, 3, 76, 80
5, 293040, Note_on_c, 3, 71, 95
5, 293158, Note_off_c, 3, 71, 80
5, 293160, Note_on_c, 3, 74, 95
5, 293278, Note_off_c, 3, 74, 80
5, 293280, Note_on_c, 3, 69, 95
5, 293296, Pitch_bend_c, 3, 8320
5, 293312, Pitch_bend_c, 3, 8704
5, 293328, Pitch_bend_c, 3, 9344
5, 293344, Pitch_bend_c, 3, 9600
5, 293398, Note_off_c, 3, 69, 80
5, 293400, Pitch_bend_c, 3, 8192
5, 293400, Note_on_c, 3, 71, 95
5, 293518, Note_off_c, 3, 71, 80
5, 293520, Note_on_c, 3, 67, 95
5, 293638, Note_off_c, 3, 67, 80
5, 293640, Note_on_c, 3, 69, 95
5, 293758, Note_off_c, 3, 69, 80
5, 293760, Note_on_c, 3, 67, 95
5, 293776, Pitch_bend_c, 3, 8320
5, 293792, Pitch_bend_c, 3, 8448
5, 293808, Pitch_bend_c, 3, 8832
5, 293824, Pitch_bend_c, 3, 9344
5, 293840, Pitch_bend_c, 3, 9600
5, 293918, Note_off_c, 3, 67, 80
5, 293920, Pitch_bend_c, 3, 8192
5, 293920, Note_on_c, 3, 71, 95
5, 293998, Note_off_c, 3, 71, 80
5, 294000, Note_on_c, 3, 67, 95
5, 294118, Note_off_c, 3, 67, 80
5, 294120, Note_on_c, 3, 69, 95
5, 294238, Note_off_c, 3, 69, 80
5, 294240, Note_on_c, 3, 69, 95
5, 294330, Pitch_bend_c, 3, 7552
5, 294338, Pitch_bend_c, 3, 6784
5, 294345, Pitch_bend_c, 3, 6144
5, 294352, Pitch_bend_c, 3, 5504
5, 294358, Note_off_c, 3, 69, 80
5, 294360, Pitch_bend_c, 3, 8192
5, 294360, Note_on_c, 3, 64, 76
5, 294438, Pitch_bend_c, 3, 8832
5, 294445, Pitch_bend_c, 3, 9600
5, 294452, Pitch_bend_c, 3, 10240
5, 294459, Pitch_bend_c, 3, 10880
5, 294466, Pitch_bend_c, 3, 11648
5, 294473, Pitch_bend_c, 3, 12288
5, 294478, Note_off_c, 3, 64, 80
5, 294480, Pitch_bend_c, 3, 8192
5, 294480, Note_on_c, 3, 71, 76
5, 294598, Note_off_c, 3, 71, 80
5, 294600, Note_on_c, 3, 76, 95
5, 294718, Note_off_c, 3, 76, 80
5, 294720, Note_on_c, 3, 81, 95
5, 294778, Note_off_c, 3, 81, 80
5, 294780, Note_on_c, 3, 83, 95
5, 294838, Note_off_c, 3, 83, 80
5, 294840, Note_on_c, 3, 81, 95
5, 294898, Note_off_c, 3, 81, 80
5, 294900, Note_on_c, 3, 79, 95
5, 294958, Note_off_c, 3, 79, 80
5, 294960, Note_on_c, 3, 76, 95
5, 295018, Note_off_c, 3, 76, 80
5, 295020, Note_on_c, 3, 74, 95
5, 295078, Note_off_c, 3, 74, 80
5, 295080, Note_on_c, 3, 81, 95
5, 295138, Note_off_c, 3, 81, 80
5, 295140, Note_on_c, 3, 83, 95
5, 295198, Note_off_c, 3, 83, 80
5, 295200, Note_on_c, 3, 81, 95
5, 295258, Note_off_c, 3, 81, 80
5, 295260, Note_on_c, 3, 79, 95
5, 295318, Note_off_c, 3, 79, 80
5, 295320, Note_on_c, 3, 76, 95
5, 295365, Pitch_bend_c, 3, 7552
5, 295369, Pitch_bend_c, 3, 6784
5, 295372, Pitch_bend_c, 3, 6144
5, 295376, Pitch_bend_c, 3, 5504
5, 295378, Note_off_c, 3, 76, 80
5, 295380, Pitch_bend_c, 3, 8192
5, 295380, Note_on_c, 3, 71, 76
5, 295438, Note_off_c, 3, 71, 80
5, 295440, Note_on_c, 3, 79, 95
5, 295498, Note_off_c, 3, 79, 80
5, 295500, Note_on_c, 3, 80, 95
5, 295558, Note_off_c, 3, 80, 80
5, 295560, Note_on_c, 3, 79, 95
5, 295618, Note_off_c, 3, 79, 80
5, 295620, Note_on_c, 3, 76, 95
5, 295678, Note_off_c, 3, 76, 80
5, 295680, Note_on_c, 3, 74, 95
5, 295738, Note_off_c, 3, 74, 80
5, 295740, Note_on_c, 3, 71, 95
5, 295798, Note_off_c, 3, 71, 80
5, 295800, Note_on_c, 3, 81, 95
5, 295858, Note_off_c, 3, 81, 80
5, 295860, Note_on_c, 3, 83, 95
5, 295918, Note_off_c, 3, 83, 80
5, 295920, Note_on_c, 3, 81, 95
5, 295978, Note_off_c, 3, 81, 80
5, 295980, Note_on_c, 3, 79, 95
5, 296038, Note_off_c, 3, 79, 80
5, 296040, Note_on_c, 3, 76, 95
5, 296085, Pitch_bend_c, 3, 7552
5, 296089, Pitch_bend_c, 3, 6784
5, 296092, Pitch_bend_c, 3, 6144
5, 296096, Pitch_bend_c, 3, 5504
5, 296098, Note_off_c, 3, 76, 80
5, 296100, Pitch_bend_c, 3, 8192
5, 296100, Note_on_c, 3, 71, 76
5, 296158, Note_off_c, 3, 71, 80
5, 296160, Note_on_c, 3, 79, 95
5, 296206, Note_off_c, 3, 79, 80
5, 296208, Note_on_c, 3, 80, 95
5, 296254, Note_off_c, 3, 80, 80
5, 296256, Note_on_c, 3, 79, 95
5, 296302, Note_off_c, 3, 79, 80
5, 296304, Note_on_c, 3, 76, 95
5, 296340, Pitch_bend_c, 3, 8832
5, 296343, Pitch_bend_c, 3, 9600
5, 296346, Pitch_bend_c, 3, 10240
5, 296349, Pitch_bend_c, 3, 10880
5, 296350, Note_off_c, 3, 76, 80
5, 296352, Pitch_bend_c, 3, 8192
5, 296352, Note_on_c, 3, 81, 76
5, 296398, Note_off_c, 3, 81, 80
5, 296400, Note_on_c, 3, 83, 95
5, 296458, Note_off_c, 3, 83, 80
5, 296460, Note_on_c, 3, 81, 95
5, 296518, Note_off_c, 3, 81, 80
5, 296520, Note_on_c, 3, 79, 95
5, 296568, Pitch_bend_c, 3, 7552
5, 296578, Note_off_c, 3, 79, 80
5, 296580, Pitch_bend_c, 3, 8192
5, 296580, Note_on_c, 3, 78, 76
5, 296638, Note_off_c, 3, 78, 80
5, 296640, Note_on_c, 3, 79, 95
5, 296698, Note_off_c, 3, 79, 80
5, 296700, Note_on_c, 3, 81, 95
5, 296758, Note_off_c, 3, 81, 80
5, 296760, Note_on_c, 3, 79, 95
5, 296818, Note_off_c, 3, 79, 80
5, 296820, Note_on_c, 3, 76, 95
5, 296878, Note_off_c, 3, 76, 80
5, 296880, Note_on_c, 3, 74, 95
5, 296931, Pitch_bend_c, 3, 7552
5, 296936, Pitch_bend_c, 3, 6784
5, 296938, Note_off_c, 3, 74, 80
5, 296940, Pitch_bend_c, 3, 8192
5, 296940, Note_on_c, 3, 71, 76
5, 296998, Note_off_c, 3, 71, 80
5, 297000, Note_on_c, 3, 74, 95
5, 297058, Note_off_c, 3, 74, 80
5, 297060, Note_on_c, 3, 76, 95
5, 297118, Note_off_c, 3, 76, 80
5, 297120, Note_on_c, 3, 74, 95
5, 297178, Note_off_c, 3, 74, 80
5, 297180, Note_on_c, 3, 71, 95
5, 297238, Note_off_c, 3, 71, 80
5, 297240, Note_on_c, 3, 69, 95
5, 297298, Note_off_c, 3, 69, 80
5, 297300, Note_on_c, 3, 67, 95
5, 297358, Note_off_c, 3, 67, 80
5, 297360, Note_on_c, 3, 69, 95
5, 297418, Note_off_c, 3, 69, 80
5, 297420, Note_on_c, 3, 71, 95
5, 297478, Note_off_c, 3, 71, 80
5, 297480, Note_on_c, 3, 69, 95
5, 297538, Note_off_c, 3, 69, 80
5, 297540, Note_on_c, 3, 67, 95
5, 297598, Note_off_c, 3, 67, 80
5, 297600, Note_on_c, 3, 64, 95
5, 297658, Note_off_c, 3, 64, 80
5, 297660, Note_on_c, 3, 62, 95
5, 297718, Note_off_c, 3, 62, 80
5, 297720, Note_on_c, 3, 69, 95
5, 297778, Note_off_c, 3, 69, 80
5, 297780, Note_on_c, 3, 67, 95
5, 297838, Note_off_c, 3, 67, 80
5, 297840, Note_on_c, 3, 64, 95
5, 297898, Note_off_c, 3, 64, 80
5, 297900, Note_on_c, 3, 62, 95
5, 297958, Note_off_c, 3, 62, 80
5, 297960, Note_on_c, 3, 69, 95
5, 298018, Note_off_c, 3, 69, 80
5, 298020, Note_on_c, 3, 70, 95
5, 298078, Note_off_c, 3, 70, 80
5, 298080, Note_on_c, 3, 69, 95
5, 298138, Note_off_c, 3, 69, 80
5, 298140, Note_on_c, 3, 67, 95
5, 298198, Note_off_c, 3, 67, 80
5, 298200, Note_on_c, 3, 64, 95
5, 298258, Note_off_c, 3, 64, 80
5, 298260, Note_on_c, 3, 62, 95
5, 298318, Note_off_c, 3, 62, 80
5, 298320, Note_on_c, 3, 69, 95
5, 298378, Note_off_c, 3, 69, 80
5, 298380, Note_on_c, 3, 67, 95
5, 298438, Note_off_c, 3, 67, 80
5, 298440, Note_on_c, 3, 64, 95
5, 298498, Note_off_c, 3, 64, 80
5, 298500, Note_on_c, 3, 62, 95
5, 298558, Note_off_c, 3, 62, 80
5, 298560, Note_on_c, 3, 69, 95
5, 298618, Note_off_c, 3, 69, 80
5, 298620, Note_on_c, 3, 70, 95
5, 298678, Note_off_c, 3, 70, 80
5, 298680, Note_on_c, 3, 69, 95
5, 298738, Note_off_c, 3, 69, 80
5, 298740, Note_on_c, 3, 67, 95
5, 298798, Note_off_c, 3, 67, 80
5, 298800, Note_on_c, 3, 64, 95
5, 298858, Note_off_c, 3, 64, 80
5, 298860, Note_on_c, 3, 62, 95
5, 298918, Note_off_c, 3, 62, 80
5, 298920, Note_on_c, 3, 69, 95
5, 298978, Note_off_c, 3, 69, 80
5, 298980, Note_on_c, 3, 67, 95
5, 299038, Note_off_c, 3, 67, 80
5, 299040, Note_on_c, 3, 64, 95
5, 299098, Note_off_c, 3, 64, 80
5, 299100, Note_on_c, 3, 62, 95
5, 299158, Note_off_c, 3, 62, 80
5, 299160, Note_on_c, 3, 67, 95
5, 299218, Note_off_c, 3, 67, 80
5, 299220, Note_on_c, 3, 64, 95
5, 299278, Note_off_c, 3, 64, 80
5, 299280, Note_on_c, 3, 62, 95
5, 299338, Note_off_c, 3, 62, 80
5, 299340, Note_on_c, 3, 59, 95
5, 299398, Note_off_c, 3, 59, 80
5, 299400, Note_on_c, 3, 62, 95
5, 299458, Note_off_c, 3, 62, 80
5, 299460, Note_on_c, 3, 64, 95
5, 299518, Note_off_c, 3, 64, 80
5, 299520, Note_on_c, 3, 61, 95
5, 299536, Pitch_bend_c, 3, 7936
5, 299552, Pitch_bend_c, 3, 7552
5, 299568, Pitch_bend_c, 3, 7040
5, 299584, Pitch_bend_c, 3, 6272
5, 299600, Pitch_bend_c, 3, 5632
5, 299616, Pitch_bend_c, 3, 4992
5, 299632, Pitch_bend_c, 3, 4352
5, 299648, Pitch_bend_c, 3, 3712
5, 299664, Pitch_bend_c, 3, 3328
5, 299680, Pitch_bend_c, 3, 2944
5, 299696, Pitch_bend_c, 3, 2688
5, 299712, Pitch_bend_c, 3, 2432
5, 299728, Pitch_bend_c, 3, 2304
5, 299744, Pitch_bend_c, 3, 2176
5, 299760, Pitch_bend_c, 3, 2048
5, 299776, Pitch_bend_c, 3, 2176
5, 299792, Pitch_bend_c, 3, 2304
5, 299808, Pitch_bend_c, 3, 2432
5, 299824, Pitch_bend_c, 3, 2688
5, 299840, Pitch_bend_c, 3, 2944
5, 299856, Pitch_bend_c, 3, 3328
5, 299872, Pitch_bend_c, 3, 3712
5, 299888, Pitch_bend_c, 3, 4352
5, 299904, Pitch_bend_c, 3, 4992
5, 299920, Pitch_bend_c, 3, 5632
5, 299936, Pitch_bend_c, 3, 6272
5, 299952, Pitch_bend_c, 3, 7040
5, 299968, Pitch_bend_c, 3, 7552
5, 299984, Pitch_bend_c, 3, 7936
5, 299998, Note_off_c, 3, 61, 80
5, 300000, Pitch_bend_c, 3, 8192
5, 300000, Note_on_c, 3, 61, 95
5, 300118, Note_off_c, 3, 61, 80
5, 300120, Note_on_c, 3, 64, 95
5, 300238, Note_off_c, 3, 64, 80
5, 300240, Note_on_c, 3, 66, 95
5, 300358, Note_off_c, 3, 66, 80
5, 300360, Note_on_c, 3, 69, 95
5, 300718, Note_off_c, 3, 69, 80
5, 300720, Note_on_c, 3, 71, 95
5, 300838, Note_off_c, 3, 71, 80
5, 300840, Note_on_c, 3, 69, 95
5, 300958, Note_off_c, 3, 69, 80
5, 300960, Note_on_c, 3, 71, 95
5, 300976, Pitch_bend_c, 3, 8320
5, 300992, Pitch_bend_c, 3, 8448
5, 301008, Pitch_bend_c, 3, 8576
5, 301024, Pitch_bend_c, 3, 8704
5, 301040, Pitch_bend_c, 3, 9088
5, 301056, Pitch_bend_c, 3, 9472
5, 301072, Pitch_bend_c, 3, 9856
5, 301088, Pitch_bend_c, 3, 10624
5, 301104, Pitch_bend_c, 3, 10880
5, 301120, Pitch_bend_c, 3, 11264
5, 301136, Pitch_bend_c, 3, 11648
5, 301328, Pitch_bend_c, 3, 11520
5, 301344, Pitch_bend_c, 3, 11264
5, 301360, Pitch_bend_c, 3, 10880
5, 301376, Pitch_bend_c, 3, 10240
5, 301392, Pitch_bend_c, 3, 9856
5, 301408, Pitch_bend_c, 3, 9472
5, 301424, Pitch_bend_c, 3, 8832
5, 301440, Pitch_bend_c, 3, 8704
5, 301456, Pitch_bend_c, 3, 8576
5, 301472, Pitch_bend_c, 3, 8320
5, 301504, Pitch_bend_c, 3, 8192
5, 301678, Note_off_c, 3, 71, 80
5, 301680, Note_on_c, 3, 71, 95
5, 301798, Note_off_c, 3, 71, 80
5, 301800, Note_on_c, 3, 69, 95
5, 301918, Note_off_c, 3, 69, 80
5, 301920, Note_on_c, 3, 71, 95
5, 302038, Note_off_c, 3, 71, 80
5, 302040, Note_on_c, 3, 69, 95
5, 302056, Pitch_bend_c, 3, 8320
5, 302072, Pitch_bend_c, 3, 8704
5, 302088, Pitch_bend_c, 3, 9344
5, 302104, Pitch_bend_c, 3, 9600
5, 302158, Note_off_c, 3, 69, 80
5, 302160, Pitch_bend_c, 3, 8192
5, 302160, Note_on_c, 3, 66, 95
5, 302278, Note_off_c, 3, 66, 80
5, 302280, Note_on_c, 3, 64, 95
5, 302398, Note_off_c, 3, 64, 80
5, 302400, Note_on_c, 3, 71, 95
5, 302416, Pitch_bend_c, 3, 8320
5, 302432, Pitch_bend_c, 3, 8704
5, 302448, Pitch_bend_c, 3, 9344
5, 302464, Pitch_bend_c, 3, 9600
5, 302518, Note_off_c, 3, 71, 80
5, 302520, Pitch_bend_c, 3, 8192
5, 302520, Note_on_c, 3, 69, 95
5, 302878, Note_off_c, 3, 69, 80
5, 302880, Note_on_c, 3, 69, 95
5, 302998, Note_off_c, 3, 69, 80
5, 303000, Note_on_c, 3, 69, 95
5, 303118, Note_off_c, 3, 69, 80
5, 303120, Note_on_c, 3, 71, 95
5, 303238, Note_off_c, 3, 71, 80
5, 303240, Note_on_c, 3, 73, 95
5, 303358, Note_off_c, 3, 73, 80
5, 303360, Note_on_c, 3, 75, 95
5, 303376, Pitch_bend_c, 3, 8320
5, 303392, Pitch_bend_c, 3, 8448
5, 303408, Pitch_bend_c, 3, 8704
5, 303424, Pitch_bend_c, 3, 8832
5, 303504, Pitch_bend_c, 3, 8576
5, 303520, Pitch_bend_c, 3, 8320
5, 303536, Pitch_bend_c, 3, 8192
5, 303598, Note_off_c, 3, 75, 80
5, 303600, Note_on_c, 3, 73, 95
5, 303658, Note_off_c, 3, 73, 80
5, 303660, Note_on_c, 3, 71, 95
5, 303718, Note_off_c, 3, 71, 80
5, 303720, Note_on_c, 3, 69, 95
5, 303778, Note_off_c, 3, 69, 80
5, 303780, Note_on_c, 3, 76, 95
5, 303898, Note_off_c, 3, 76, 80
5, 303900, Note_on_c, 3, 73, 95
5, 303958, Note_off_c, 3, 73, 80
5, 303960, Note_on_c, 3, 71, 95
5, 304018, Note_off_c, 3, 71, 80
5, 304020, Note_on_c, 3, 69, 95
5, 304078, Note_off_c, 3, 69, 80
5, 304080, Note_on_c, 3, 76, 95
5, 304198, Note_off_c, 3, 76, 80
5, 304200, Note_on_c, 3, 75, 95
5, 304258, Note_off_c, 3, 75, 80
5, 304260, Note_on_c, 3, 73, 95
5, 304318, Note_off_c, 3, 73, 80
5, 304320, Note_on_c, 3, 71, 95
5, 304378, Note_off_c, 3, 71, 80
5, 304380, Note_on_c, 3, 69, 95
5, 304438, Note_off_c, 3, 69, 80
5, 304440, Note_on_c, 3, 76, 95
5, 304618, Note_off_c, 3, 76, 80
5, 304620, Note_on_c, 3, 73, 95
5, 304678, Note_off_c, 3, 73, 80
5, 304680, Note_on_c, 3, 71, 95
5, 304738, Note_off_c, 3, 71, 80
5, 304740, Note_on_c, 3, 69, 95
5, 304798, Note_off_c, 3, 69, 80
5, 304800, Note_on_c, 3, 75, 95
5, 304858, Note_off_c, 3, 75, 80
5, 304860, Note_on_c, 3, 73, 95
5, 304918, Note_off_c, 3, 73, 80
5, 304920, Note_on_c, 3, 71, 95
5, 304978, Note_off_c, 3, 71, 80
5, 304980, Note_on_c, 3, 69, 95
5, 305038, Note_off_c, 3, 69, 80
5, 305040, Note_on_c, 3, 76, 95
5, 305098, Note_off_c, 3, 76, 80
5, 305100, Note_on_c, 3, 73, 95
5, 305158, Note_off_c, 3, 73, 80
5, 305160, Note_on_c, 3, 71, 95
5, 305218, Note_off_c, 3, 71, 80
5, 305220, Note_on_c, 3, 69, 95
5, 305278, Note_off_c, 3, 69, 80
5, 305280, Note_on_c, 3, 73, 95
5, 305398, Note_off_c, 3, 73, 80
5, 305400, Note_on_c, 3, 78, 95
5, 305518, Note_off_c, 3, 78, 80
5, 305520, Note_on_c, 3, 73, 95
5, 305638, Note_off_c, 3, 73, 80
5, 305640, Note_on_c, 3, 80, 95
5, 305758, Note_off_c, 3, 80, 80
5, 305760, Note_on_c, 3, 73, 95
5, 305878, Note_off_c, 3, 73, 80
5, 305880, Note_on_c, 3, 81, 95
5, 305988, Pitch_bend_c, 3, 8832
5, 305998, Note_off_c, 3, 81, 80
5, 306000, Pitch_bend_c, 3, 8192
5, 306000, Note_on_c, 3, 73, 95
5, 306118, Note_off_c, 3, 73, 80
5, 306120, Note_on_c, 3, 83, 76
5, 306238, Note_off_c, 3, 83, 80
5, 306240, Note_on_c, 3, 73, 95
5, 306358, Note_off_c, 3, 73, 80
5, 306360, Note_on_c, 3, 83, 95
5, 306376, Pitch_bend_c, 3, 8320
5, 306392, Pitch_bend_c, 3, 8704
5, 306408, Pitch_bend_c, 3, 9344
5, 306424, Pitch_bend_c, 3, 9600
5, 306478, Note_off_c, 3, 83, 80
5, 306480, Pitch_bend_c, 3, 8192
5, 306480, Note_on_c, 3, 81, 95
5, 306718, Note_off_c, 3, 81, 80
5, 306720, Note_on_c, 3, 78, 95
5, 307198, Note_off_c, 3, 78, 80
5, 322500, Pitch_bend_c, 3, 640
5, 322500, Note_on_c, 3, 66, 95
5, 322505, Pitch_bend_c, 3, 1408
5, 322511, Pitch_bend_c, 3, 2048
5, 322516, Pitch_bend_c, 3, 2688
5, 322522, Pitch_bend_c, 3, 3456
5, 322527, Pitch_bend_c, 3, 4096
5, 322533, Pitch_bend_c, 3, 4736
5, 322538, Pitch_bend_c, 3, 5504
5, 322544, Pitch_bend_c, 3, 6144
5, 322549, Pitch_bend_c, 3, 6784
5, 322555, Pitch_bend_c, 3, 7552
5, 322560, Pitch_bend_c, 3, 8192
5, 322918, Note_off_c, 3, 66, 80
5, 322920, Note_on_c, 3, 67, 95
5, 323218, Note_off_c, 3, 67, 80
5, 323220, Pitch_bend_c, 3, 0
5, 323220, Note_on_c, 3, 74, 95
5, 323236, Pitch_bend_c, 3, 640
5, 323240, Pitch_bend_c, 3, 1408
5, 323244, Pitch_bend_c, 3, 2048
5, 323248, Pitch_bend_c, 3, 2688
5, 323252, Pitch_bend_c, 3, 3456
5, 323256, Pitch_bend_c, 3, 4096
5, 323260, Pitch_bend_c, 3, 4736
5, 323264, Pitch_bend_c, 3, 5504
5, 323268, Pitch_bend_c, 3, 6144
5, 323272, Pitch_bend_c, 3, 6784
5, 323276, Pitch_bend_c, 3, 7552
5, 323280, Pitch_bend_c, 3, 8192
5, 324420, Pitch_bend_c, 3, 640
5, 324420, Note_on_c, 3, 66, 95
5, 324425, Pitch_bend_c, 3, 1408
5, 324431, Pitch_bend_c, 3, 2048
5, 324436, Pitch_bend_c, 3, 2688
5, 324442, Pitch_bend_c, 3, 3456
5, 324447, Pitch_bend_c, 3, 4096
5, 324453, Pitch_bend_c, 3, 4736
5, 324458, Pitch_bend_c, 3, 5504
5, 324464, Pitch_bend_c, 3, 6144
5, 324469, Pitch_bend_c, 3, 6784
5, 324475, Pitch_bend_c, 3, 7552
5, 324478, Note_off_c, 3, 74, 80
5, 324480, Pitch_bend_c, 3, 8192
5, 324838, Note_off_c, 3, 66, 80
5, 324840, Note_on_c, 3, 67, 95
5, 325138, Note_off_c, 3, 67, 80
5, 325200, Note_on_c, 3, 74, 95
5, 325264, Pitch_bend_c, 3, 8320
5, 325328, Pitch_bend_c, 3, 8448
5, 325360, Pitch_bend_c, 3, 8576
5, 325392, Pitch_bend_c, 3, 8704
5, 325424, Pitch_bend_c, 3, 8960
5, 325456, Pitch_bend_c, 3, 9088
5, 325472, Pitch_bend_c, 3, 9216
5, 325488, Pitch_bend_c, 3, 9344
5, 325520, Pitch_bend_c, 3, 9472
5, 325568, Pitch_bend_c, 3, 9600
5, 325918, Note_off_c, 3, 74, 80
5, 325920, Pitch_bend_c, 3, 8192
5, 325920, Note_on_c, 3, 74, 95
5, 326056, Pitch_bend_c, 3, 8320
5, 326072, Pitch_bend_c, 3, 8448
5, 326092, Pitch_bend_c, 3, 8320
5, 326108, Pitch_bend_c, 3, 8192
5, 326120, Pitch_bend_c, 3, 8064
5, 326136, Pitch_bend_c, 3, 7936
5, 326156, Pitch_bend_c, 3, 8064
5, 326172, Pitch_bend_c, 3, 8192
5, 326184, Pitch_bend_c, 3, 8320
5, 326192, Pitch_bend_c, 3, 8448
5, 326228, Pitch_bend_c, 3, 8320
5, 326236, Pitch_bend_c, 3, 8192
5, 326248, Pitch_bend_c, 3, 8064
5, 326256, Pitch_bend_c, 3, 7936
5, 326292, Pitch_bend_c, 3, 8064
5, 326300, Pitch_bend_c, 3, 8192
5, 326312, Pitch_bend_c, 3, 8320
5, 326320, Pitch_bend_c, 3, 8448
5, 326340, Pitch_bend_c, 3, 640
5, 326340, Note_on_c, 3, 66, 95
5, 326344, Pitch_bend_c, 3, 8448
5, 326345, Pitch_bend_c, 3, 1408
5, 326348, Pitch_bend_c, 3, 8448
5, 326351, Pitch_bend_c, 3, 2048
5, 326352, Pitch_bend_c, 3, 8448
5, 326356, Pitch_bend_c, 3, 8320
5, 326356, Pitch_bend_c, 3, 2688
5, 326360, Pitch_bend_c, 3, 8320
5, 326362, Pitch_bend_c, 3, 3456
5, 326364, Pitch_bend_c, 3, 8192
5, 326367, Pitch_bend_c, 3, 4096
5, 326368, Pitch_bend_c, 3, 8192
5, 326373, Pitch_bend_c, 3, 4736
5, 326376, Pitch_bend_c, 3, 8064
5, 326378, Pitch_bend_c, 3, 5504
5, 326380, Pitch_bend_c, 3, 8064
5, 326384, Pitch_bend_c, 3, 6144
5, 326384, Pitch_bend_c, 3, 7936
5, 326389, Pitch_bend_c, 3, 6784
5, 326392, Pitch_bend_c, 3, 7936
5, 326395, Pitch_bend_c, 3, 7552
5, 326396, Pitch_bend_c, 3, 7936
5, 326398, Note_off_c, 3, 74, 80
5, 326400, Pitch_bend_c, 3, 8192
5, 326758, Note_off_c, 3, 66, 80
5, 326760, Note_on_c, 3, 67, 95
5, 327118, Note_off_c, 3, 67, 80
5, 327120, Note_on_c, 3, 78, 95
5, 327538, Note_off_c, 3, 78, 80
5, 327600, Note_on_c, 3, 74, 95
5, 327958, Note_off_c, 3, 74, 80
5, 327960, Note_on_c, 3, 71, 95
5, 328318, Note_off_c, 3, 71, 80
5, 328320, Note_on_c, 3, 69, 95
5, 329220, Pitch_bend_c, 3, 0
5, 329220, Note_on_c, 3, 81, 95
5, 329241, Pitch_bend_c, 3, 640
5, 329245, Pitch_bend_c, 3, 1408
5, 329248, Pitch_bend_c, 3, 2048
5, 329252, Pitch_bend_c, 3, 2688
5, 329255, Pitch_bend_c, 3, 3456
5, 329259, Pitch_bend_c, 3, 4096
5, 329262, Pitch_bend_c, 3, 4736
5, 329266, Pitch_bend_c, 3, 5504
5, 329269, Pitch_bend_c, 3, 6144
5, 329273, Pitch_bend_c, 3, 6784
5, 329276, Pitch_bend_c, 3, 7552
5, 329278, Note_off_c, 3, 69, 80
5, 329280, Pitch_bend_c, 3, 8192
5, 329398, Note_off_c, 3, 81, 80
5, 329400, Note_on_c, 3, 74, 95
5, 329518, Note_off_c, 3, 74, 80
5, 329520, Note_on_c, 3, 69, 95
5, 329638, Note_off_c, 3, 69, 80
5, 329640, Note_on_c, 3, 76, 95
5, 329758, Note_off_c, 3, 76, 80
5, 329760, Note_on_c, 3, 74, 95
5, 329878, Note_off_c, 3, 74, 80
5, 329880, Note_on_c, 3, 69, 95
5, 329998, Note_off_c, 3, 69, 80
5, 330000, Note_on_c, 3, 67, 95
5, 330058, Note_off_c, 3, 67, 80
5, 330120, Note_on_c, 3, 74, 95
5, 330178, Note_off_c, 3, 74, 80
5, 330180, Pitch_bend_c, 3, 640
5, 330180, Note_on_c, 3, 66, 95
5, 330185, Pitch_bend_c, 3, 1408
5, 330191, Pitch_bend_c, 3, 2048
5, 330196, Pitch_bend_c, 3, 2688
5, 330202, Pitch_bend_c, 3, 3456
5, 330207, Pitch_bend_c, 3, 4096
5, 330213, Pitch_bend_c, 3, 4736
5, 330218, Pitch_bend_c, 3, 5504
5, 330224, Pitch_bend_c, 3, 6144
5, 330229, Pitch_bend_c, 3, 6784
5, 330235, Pitch_bend_c, 3, 7552
5, 330240, Pitch_bend_c, 3, 8192
5, 330598, Note_off_c, 3, 66, 80
5, 330600, Note_on_c, 3, 67, 95
5, 330900, Pitch_bend_c, 3, 0
5, 330900, Note_on_c, 3, 74, 95
5, 330916, Pitch_bend_c, 3, 640
5, 330920, Pitch_bend_c, 3, 1408
5, 330924, Pitch_bend_c, 3, 2048
5, 330928, Pitch_bend_c, 3, 2688
5, 330932, Pitch_bend_c, 3, 3456
5, 330936, Pitch_bend_c, 3, 4096
5, 330940, Pitch_bend_c, 3, 4736
5, 330944, Pitch_bend_c, 3, 5504
5, 330948, Pitch_bend_c, 3, 6144
5, 330952, Pitch_bend_c, 3, 6784
5, 330956, Pitch_bend_c, 3, 7552
5, 330958, Note_off_c, 3, 67, 80
5, 330960, Pitch_bend_c, 3, 8192
5, 331678, Note_off_c, 3, 74, 80
5, 331680, Note_on_c, 3, 67, 95
5, 331918, Note_off_c, 3, 67, 80
5, 331920, Note_on_c, 3, 66, 95
5, 332518, Note_off_c, 3, 66, 80
5, 332520, Note_on_c, 3, 67, 95
5, 332818, Note_off_c, 3, 67, 80
5, 332880, Note_on_c, 3, 74, 95
5, 332912, Pitch_bend_c, 3, 8320
5, 332960, Pitch_bend_c, 3, 8576
5, 332976, Pitch_bend_c, 3, 8704
5, 332992, Pitch_bend_c, 3, 8832
5, 333008, Pitch_bend_c, 3, 9088
5, 333024, Pitch_bend_c, 3, 9344
5, 333056, Pitch_bend_c, 3, 9600
5, 333248, Pitch_bend_c, 3, 9472
5, 333264, Pitch_bend_c, 3, 9344
5, 333296, Pitch_bend_c, 3, 8960
5, 333312, Pitch_bend_c, 3, 8832
5, 333328, Pitch_bend_c, 3, 8704
5, 333344, Pitch_bend_c, 3, 8448
5, 333360, Pitch_bend_c, 3, 8320
5, 333392, Pitch_bend_c, 3, 8192
5, 333598, Note_off_c, 3, 74, 80
5, 333600, Note_on_c, 3, 74, 95
5, 334020, Pitch_bend_c, 3, 640
5, 334020, Note_on_c, 3, 66, 95
5, 334025, Pitch_bend_c, 3, 1408
5, 334031, Pitch_bend_c, 3, 2048
5, 334036, Pitch_bend_c, 3, 2688
5, 334042, Pitch_bend_c, 3, 3456
5, 334047, Pitch_bend_c, 3, 4096
5, 334053, Pitch_bend_c, 3, 4736
5, 334058, Pitch_bend_c, 3, 5504
5, 334064, Pitch_bend_c, 3, 6144
5, 334069, Pitch_bend_c, 3, 6784
5, 334075, Pitch_bend_c, 3, 7552
5, 334080, Pitch_bend_c, 3, 8192
5, 334438, Note_off_c, 3, 66, 80
5, 334440, Note_on_c, 3, 67, 95
5, 334798, Note_off_c, 3, 67, 80
5, 334800, Note_on_c, 3, 81, 95
5, 334848, Pitch_bend_c, 3, 8320
5, 334896, Pitch_bend_c, 3, 8448
5, 334912, Pitch_bend_c, 3, 8576
5, 334928, Pitch_bend_c, 3, 8704
5, 334944, Pitch_bend_c, 3, 8832
5, 334960, Pitch_bend_c, 3, 8960
5, 334976, Pitch_bend_c, 3, 9088
5, 334992, Pitch_bend_c, 3, 9344
5, 335024, Pitch_bend_c, 3, 9472
5, 335040, Pitch_bend_c, 3, 9600
5, 335278, Note_off_c, 3, 81, 80
5, 335280, Pitch_bend_c, 3, 8192
5, 335280, Note_on_c, 3, 81, 95
5, 335758, Note_off_c, 3, 74, 80
5, 335758, Note_off_c, 3, 81, 80
5, 335760, Note_on_c, 3, 79, 95
5, 335878, Note_off_c, 3, 79, 80
5, 335880, Note_on_c, 3, 78, 76
5, 335998, Note_off_c, 3, 78, 80
5, 336000, Note_on_c, 3, 79, 95
5, 336358, Note_off_c, 3, 79, 80
5, 336360, Note_on_c, 3, 81, 95
5, 336478, Note_off_c, 3, 81, 80
5, 336480, Note_on_c, 3, 78, 95
5, 336718, Note_off_c, 3, 78, 80
5, 336720, Note_on_c, 3, 74, 95
5, 336838, Note_off_c, 3, 74, 80
5, 336840, Note_on_c, 3, 69, 95
5, 336958, Note_off_c, 3, 69, 80
5, 336960, Note_on_c, 3, 76, 95
5, 337078, Note_off_c, 3, 76, 80
5, 337080, Note_on_c, 3, 74, 95
5, 337112, Pitch_bend_c, 3, 8320
5, 337144, Pitch_bend_c, 3, 8448
5, 337160, Pitch_bend_c, 3, 8576
5, 337176, Pitch_bend_c, 3, 8704
5, 337192, Pitch_bend_c, 3, 8960
5, 337208, Pitch_bend_c, 3, 9088
5, 337224, Pitch_bend_c, 3, 9344
5, 337240, Pitch_bend_c, 3, 9472
5, 337272, Pitch_bend_c, 3, 9600
5, 337438, Note_off_c, 3, 74, 80
5, 337440, Pitch_bend_c, 3, 8192
5, 337440, Note_on_c, 3, 74, 95
5, 337558, Note_off_c, 3, 74, 80
5, 337560, Note_on_c, 3, 69, 95
5, 337678, Note_off_c, 3, 69, 80
5, 337680, Note_on_c, 3, 67, 95
5, 337738, Note_off_c, 3, 67, 80
5, 337800, Note_on_c, 3, 74, 95
5, 337858, Note_off_c, 3, 74, 80
5, 337860, Pitch_bend_c, 3, 640
5, 337860, Note_on_c, 3, 66, 95
5, 337865, Pitch_bend_c, 3, 1408
5, 337871, Pitch_bend_c, 3, 2048
5, 337876, Pitch_bend_c, 3, 2688
5, 337882, Pitch_bend_c, 3, 3456
5, 337887, Pitch_bend_c, 3, 4096
5, 337893, Pitch_bend_c, 3, 4736
5, 337898, Pitch_bend_c, 3, 5504
5, 337904, Pitch_bend_c, 3, 6144
5, 337909, Pitch_bend_c, 3, 6784
5, 337915, Pitch_bend_c, 3, 7552
5, 337920, Pitch_bend_c, 3, 8192
5, 338278, Note_off_c, 3, 66, 80
5, 338280, Note_on_c, 3, 67, 95
5, 338578, Note_off_c, 3, 67, 80
5, 338580, Pitch_bend_c, 3, 0
5, 338580, Note_on_c, 3, 74, 95
5, 338596, Pitch_bend_c, 3, 640
5, 338600, Pitch_bend_c, 3, 1408
5, 338604, Pitch_bend_c, 3, 2048
5, 338608, Pitch_bend_c, 3, 2688
5, 338612, Pitch_bend_c, 3, 3456
5, 338616, Pitch_bend_c, 3, 4096
5, 338620, Pitch_bend_c, 3, 4736
5, 338624, Pitch_bend_c, 3, 5504
5, 338628, Pitch_bend_c, 3, 6144
5, 338632, Pitch_bend_c, 3, 6784
5, 338636, Pitch_bend_c, 3, 7552
5, 338640, Pitch_bend_c, 3, 8192
5, 339778, Note_off_c, 3, 74, 80
5, 339780, Pitch_bend_c, 3, 640
5, 339780, Note_on_c, 3, 66, 95
5, 339785, Pitch_bend_c, 3, 1408
5, 339791, Pitch_bend_c, 3, 2048
5, 339796, Pitch_bend_c, 3, 2688
5, 339802, Pitch_bend_c, 3, 3456
5, 339807, Pitch_bend_c, 3, 4096
5, 339813, Pitch_bend_c, 3, 4736
5, 339818, Pitch_bend_c, 3, 5504
5, 339824, Pitch_bend_c, 3, 6144
5, 339829, Pitch_bend_c, 3, 6784
5, 339835, Pitch_bend_c, 3, 7552
5, 339840, Pitch_bend_c, 3, 8192
5, 340198, Note_off_c, 3, 66, 80
5, 340200, Note_on_c, 3, 67, 95
5, 340498, Note_off_c, 3, 67, 80
5, 340500, Pitch_bend_c, 3, 0
5, 340500, Note_on_c, 3, 76, 95
5, 340521, Pitch_bend_c, 3, 640
5, 340525, Pitch_bend_c, 3, 1408
5, 340528, Pitch_bend_c, 3, 2048
5, 340532, Pitch_bend_c, 3, 2688
5, 340535, Pitch_bend_c, 3, 3456
5, 340539, Pitch_bend_c, 3, 4096
5, 340542, Pitch_bend_c, 3, 4736
5, 340546, Pitch_bend_c, 3, 5504
5, 340549, Pitch_bend_c, 3, 6144
5, 340553, Pitch_bend_c, 3, 6784
5, 340556, Pitch_bend_c, 3, 7552
5, 340560, Pitch_bend_c, 3, 8192
5, 341698, Note_off_c, 3, 76, 80
5, 341700, Pitch_bend_c, 3, 640
5, 341700, Note_on_c, 3, 66, 95
5, 341705, Pitch_bend_c, 3, 1408
5, 341711, Pitch_bend_c, 3, 2048
5, 341716, Pitch_bend_c, 3, 2688
5, 341722, Pitch_bend_c, 3, 3456
5, 341727, Pitch_bend_c, 3, 4096
5, 341733, Pitch_bend_c, 3, 4736
5, 341738, Pitch_bend_c, 3, 5504
5, 341744, Pitch_bend_c, 3, 6144
5, 341749, Pitch_bend_c, 3, 6784
5, 341755, Pitch_bend_c, 3, 7552
5, 341760, Pitch_bend_c, 3, 8192
5, 342118, Note_off_c, 3, 66, 80
5, 342120, Note_on_c, 3, 67, 95
5, 342418, Note_off_c, 3, 67, 80
5, 342480, Note_on_c, 3, 78, 95
5, 343620, Pitch_bend_c, 3, 640
5, 343620, Note_on_c, 3, 66, 95
5, 343625, Pitch_bend_c, 3, 1408
5, 343631, Pitch_bend_c, 3, 2048
5, 343636, Pitch_bend_c, 3, 2688
5, 343642, Pitch_bend_c, 3, 3456
5, 343647, Pitch_bend_c, 3, 4096
5, 343653, Pitch_bend_c, 3, 4736
5, 343658, Pitch_bend_c, 3, 5504
5, 343664, Pitch_bend_c, 3, 6144
5, 343669, Pitch_bend_c, 3, 6784
5, 343675, Pitch_bend_c, 3, 7552
5, 343678, Note_off_c, 3, 78, 80
5, 343680, Pitch_bend_c, 3, 8192
5, 344038, Note_off_c, 3, 66, 80
5, 344040, Note_on_c, 3, 67, 95
5, 344338, Note_off_c, 3, 67, 80
5, 344400, Note_on_c, 3, 79, 95
5, 345118, Note_off_c, 3, 79, 80
5, 345120, Note_on_c, 3, 78, 95
5, 345540, Pitch_bend_c, 3, 640
5, 345540, Note_on_c, 3, 66, 95
5, 345545, Pitch_bend_c, 3, 1408
5, 345551, Pitch_bend_c, 3, 2048
5, 345556, Pitch_bend_c, 3, 2688
5, 345562, Pitch_bend_c, 3, 3456
5, 345567, Pitch_bend_c, 3, 4096
5, 345573, Pitch_bend_c, 3, 4736
5, 345578, Pitch_bend_c, 3, 5504
5, 345584, Pitch_bend_c, 3, 6144
5, 345589, Pitch_bend_c, 3, 6784
5, 345595, Pitch_bend_c, 3, 7552
5, 345598, Note_off_c, 3, 78, 80
5, 345600, Pitch_bend_c, 3, 8192
5, 345958, Note_off_c, 3, 66, 80
5, 345960, Note_on_c, 3, 67, 95
5, 346258, Note_off_c, 3, 67, 80
5, 346260, Pitch_bend_c, 3, 0
5, 346260, Note_on_c, 3, 74, 95
5, 346276, Pitch_bend_c, 3, 640
5, 346280, Pitch_bend_c, 3, 1408
5, 346284, Pitch_bend_c, 3, 2048
5, 346288, Pitch_bend_c, 3, 2688
5, 346292, Pitch_bend_c, 3, 3456
5, 346296, Pitch_bend_c, 3, 4096
5, 346300, Pitch_bend_c, 3, 4736
5, 346304, Pitch_bend_c, 3, 5504
5, 346308, Pitch_bend_c, 3, 6144
5, 346312, Pitch_bend_c, 3, 6784
5, 346316, Pitch_bend_c, 3, 7552
5, 346320, Pitch_bend_c, 3, 8192
5, 347458, Note_off_c, 3, 74, 80
5, 347460, Pitch_bend_c, 3, 640
5, 347460, Note_on_c, 3, 66, 95
5, 347465, Pitch_bend_c, 3, 1408
5, 347471, Pitch_bend_c, 3, 2048
5, 347476, Pitch_bend_c, 3, 2688
5, 347482, Pitch_bend_c, 3, 3456
5, 347487, Pitch_bend_c, 3, 4096
5, 347493, Pitch_bend_c, 3, 4736
5, 347498, Pitch_bend_c, 3, 5504
5, 347504, Pitch_bend_c, 3, 6144
5, 347509, Pitch_bend_c, 3, 6784
5, 347515, Pitch_bend_c, 3, 7552
5, 347520, Pitch_bend_c, 3, 8192
5, 347878, Note_off_c, 3, 66, 80
5, 347880, Note_on_c, 3, 67, 95
5, 348178, Note_off_c, 3, 67, 80
5, 348180, Pitch_bend_c, 3, 0
5, 348180, Note_on_c, 3, 76, 95
5, 348201, Pitch_bend_c, 3, 640
5, 348205, Pitch_bend_c, 3, 1408
5, 348208, Pitch_bend_c, 3, 2048
5, 348212, Pitch_bend_c, 3, 2688
5, 348215, Pitch_bend_c, 3, 3456
5, 348219, Pitch_bend_c, 3, 4096
5, 348222, Pitch_bend_c, 3, 4736
5, 348226, Pitch_bend_c, 3, 5504
5, 348229, Pitch_bend_c, 3, 6144
5, 348233, Pitch_bend_c, 3, 6784
5, 348236, Pitch_bend_c, 3, 7552
5, 348240, Pitch_bend_c, 3, 8192
5, 349380, Pitch_bend_c, 3, 640
5, 349380, Note_on_c, 3, 66, 95
5, 349385, Pitch_bend_c, 3, 1408
5, 349391, Pitch_bend_c, 3, 2048
5, 349396, Pitch_bend_c, 3, 2688
5, 349402, Pitch_bend_c, 3, 3456
5, 349407, Pitch_bend_c, 3, 4096
5, 349413, Pitch_bend_c, 3, 4736
5, 349418, Pitch_bend_c, 3, 5504
5, 349424, Pitch_bend_c, 3, 6144
5, 349429, Pitch_bend_c, 3, 6784
5, 349435, Pitch_bend_c, 3, 7552
5, 349438, Note_off_c, 3, 76, 80
5, 349440, Pitch_bend_c, 3, 8192
5, 349798, Note_off_c, 3, 66, 80
5, 349800, Note_on_c, 3, 67, 95
5, 350158, Note_off_c, 3, 67, 80
5, 350160, Note_on_c, 3, 78, 95
5, 351358, Note_off_c, 3, 78, 80
5, 351360, Note_on_c, 3, 79, 95
5, 351838, Note_off_c, 3, 79, 80
5, 351840, Note_on_c, 3, 78, 95
5, 352318, Note_off_c, 3, 78, 80
5, 352320, Note_on_c, 3, 76, 95
5, 352798, Note_off_c, 3, 76, 80
5, 352800, Note_on_c, 3, 74, 95
5, 353038, Note_off_c, 3, 74, 80
5, 353040, Note_on_c, 3, 74, 95
5, 358078, Note_off_c, 3, 74, 80
5, 358078, End_track
6, 0, Start_track
6, 0, Title_t, "Keyboard: Jordan Rudess"
6, 480, Control_c, 4, 121, 0
6, 480, Control_c, 4, 123, 0
6, 480, Control_c, 4, 100, 0
6, 480, Control_c, 4, 38, 0
6, 480, Control_c, 4, 101, 0
6, 480, Control_c, 4, 6, 12
6, 480, Pitch_bend_c, 4, 8192
6, 600, Program_c, 4, 81
6, 600, Control_c, 4, 7, 80
6, 600, Control_c, 4, 10, 52
6, 126720, Note_on_c, 4, 54, 95
6, 126720, Note_on_c, 4, 66, 95
6, 129358, Note_off_c, 4, 54, 80
6, 129358, Note_off_c, 4, 66, 80
6, 129360, Note_on_c, 4, 52, 95
6, 129360, Note_on_c, 4, 64, 95
6, 130558, Note_off_c, 4, 52, 80
6, 130558, Note_off_c, 4, 64, 80
6, 130560, Note_on_c, 4, 49, 95
6, 130560, Note_on_c, 4, 61, 95
6, 134398, Note_off_c, 4, 49, 80
6, 134398, Note_off_c, 4, 61, 80
6, 134400, Note_on_c, 4, 54, 95
6, 134400, Note_on_c, 4, 66, 95
6, 137038, Note_off_c, 4, 54, 80
6, 137038, Note_off_c, 4, 66, 80
6, 137040, Note_on_c, 4, 52, 95
6, 137040, Note_on_c, 4, 64, 95
6, 138238, Note_off_c, 4, 52, 80
6, 138238, Note_off_c, 4, 64, 80
6, 138240, Note_on_c, 4, 49, 95
6, 138240, Note_on_c, 4, 61, 95
6, 142078, Note_off_c, 4, 49, 80
6, 142078, Note_off_c, 4, 61, 80
6, 142080, Note_on_c, 4, 54, 95
6, 142080, Note_on_c, 4, 66, 95
6, 143998, Note_off_c, 4, 54, 80
6, 143998, Note_off_c, 4, 66, 80
6, 144000, Note_on_c, 4, 55, 95
6, 144000, Note_on_c, 4, 67, 95
6, 145438, Note_off_c, 4, 55, 80
6, 145438, Note_off_c, 4, 67, 80
6, 145440, Note_on_c, 4, 59, 95
6, 145440, Note_on_c, 4, 71, 95
6, 145918, Note_off_c, 4, 59, 80
6, 145918, Note_off_c, 4, 71, 80
6, 145920, Note_on_c, 4, 61, 95
6, 145920, Note_on_c, 4, 73, 95
6, 149758, Note_off_c, 4, 61, 80
6, 149758, Note_off_c, 4, 73, 80
6, 149760, Note_on_c, 4, 54, 95
6, 149760, Note_on_c, 4, 66, 95
6, 151678, Note_off_c, 4, 54, 80
6, 151678, Note_off_c, 4, 66, 80
6, 151680, Note_on_c, 4, 55, 95
6, 151680, Note_on_c, 4, 67, 95
6, 153118, Note_off_c, 4, 55, 80
6, 153118, Note_off_c, 4, 67, 80
6, 153120, Note_on_c, 4, 59, 95
6, 153120, Note_on_c, 4, 71, 95
6, 153598, Note_off_c, 4, 59, 80
6, 153598, Note_off_c, 4, 71, 80
6, 153600, Note_on_c, 4, 61, 95
6, 153600, Note_on_c, 4, 73, 95
6, 157438, Note_off_c, 4, 61, 80
6, 157438, Note_off_c, 4, 73, 80
6, 157440, Note_on_c, 4, 49, 95
6, 157440, Note_on_c, 4, 61, 95
6, 159358, Note_off_c, 4, 49, 80
6, 159358, Note_off_c, 4, 61, 80
6, 159360, Note_on_c, 4, 54, 95
6, 159360, Note_on_c, 4, 66, 95
6, 161998, Note_off_c, 4, 54, 80
6, 161998, Note_off_c, 4, 66, 80
6, 162000, Note_on_c, 4, 55, 95
6, 162000, Note_on_c, 4, 67, 95
6, 162718, Note_off_c, 4, 55, 80
6, 162718, Note_off_c, 4, 67, 80
6, 162720, Note_on_c, 4, 58, 95
6, 162720, Note_on_c, 4, 70, 95
6, 163198, Note_off_c, 4, 58, 80
6, 163198, Note_off_c, 4, 70, 80
6, 163200, Note_on_c, 4, 59, 95
6, 163200, Note_on_c, 4, 71, 95
6, 165118, Note_off_c, 4, 59, 80
6, 165118, Note_off_c, 4, 71, 80
6, 165120, Note_on_c, 4, 66, 95
6, 165120, Note_on_c, 4, 78, 95
6, 166078, Note_off_c, 4, 66, 80
6, 166078, Note_off_c, 4, 78, 80
6, 166080, Note_on_c, 4, 64, 95
6, 166080, Note_on_c, 4, 76, 95
6, 167038, Note_off_c, 4, 64, 80
6, 167038, Note_off_c, 4, 76, 80
6, 167040, Note_on_c, 4, 66, 95
6, 167040, Note_on_c, 4, 78, 95
6, 167998, Note_off_c, 4, 66, 80
6, 167998, Note_off_c, 4, 78, 80
6, 168000, Note_on_c, 4, 67, 95
6, 168000, Note_on_c, 4, 79, 95
6, 168958, Note_off_c, 4, 67, 80
6, 168958, Note_off_c, 4, 79, 80
6, 168960, Note_on_c, 4, 70, 95
6, 168960, Note_on_c, 4, 82, 95
6, 169918, Note_off_c, 4, 70, 80
6, 169918, Note_off_c, 4, 82, 80
6, 169920, Note_on_c, 4, 71, 95
6, 169920, Note_on_c, 4, 83, 95
6, 170878, Note_off_c, 4, 71, 80
6, 170878, Note_off_c, 4, 83, 80
6, 170880, Note_on_c, 4, 73, 95
6, 170880, Note_on_c, 4, 85, 95
6, 172798, Note_off_c, 4, 73, 80
6, 172798, Note_off_c, 4, 85, 80
6, 172800, Note_on_c, 4, 59, 95
6, 172800, Note_on_c, 4, 71, 95
6, 176638, Note_off_c, 4, 59, 80
6, 176638, Note_off_c, 4, 71, 80
6, 176640, Note_on_c, 4, 66, 95
6, 176640, Note_on_c, 4, 78, 95
6, 180478, Note_off_c, 4, 66, 80
6, 180478, Note_off_c, 4, 78, 80
6, 195840, Control_c, 4, 7, 96
6, 195840, Note_on_c, 4, 54, 95
6, 195958, Note_off_c, 4, 54, 80
6, 195960, Note_on_c, 4, 59, 95
6, 196078, Note_off_c, 4, 59, 80
6, 196080, Note_on_c, 4, 61, 95
6, 196198, Note_off_c, 4, 61, 80
6, 196200, Note_on_c, 4, 64, 95
6, 196318, Note_off_c, 4, 64, 80
6, 196320, Note_on_c, 4, 59, 95
6, 196336, Pitch_bend_c, 4, 8320
6, 196352, Pitch_bend_c, 4, 8704
6, 196368, Pitch_bend_c, 4, 9344
6, 196384, Pitch_bend_c, 4, 9600
6, 196448, Pitch_bend_c, 4, 9344
6, 196464, Pitch_bend_c, 4, 8832
6, 196480, Pitch_bend_c, 4, 8320
6, 196496, Pitch_bend_c, 4, 8192
6, 196558, Note_off_c, 4, 59, 80
6, 196560, Note_on_c, 4, 61, 95
6, 196678, Note_off_c, 4, 61, 80
6, 196680, Note_on_c, 4, 58, 95
6, 196712, Pitch_bend_c, 4, 8320
6, 196728, Pitch_bend_c, 4, 8448
6, 196744, Pitch_bend_c, 4, 8704
6, 196760, Pitch_bend_c, 4, 8832
6, 196888, Pitch_bend_c, 4, 8576
6, 196904, Pitch_bend_c, 4, 8448
6, 196920, Pitch_bend_c, 4, 8320
6, 196936, Pitch_bend_c, 4, 8192
6, 197038, Note_off_c, 4, 58, 80
6, 197040, Note_on_c, 4, 54, 95
6, 197158, Note_off_c, 4, 54, 80
6, 197160, Note_on_c, 4, 52, 95
6, 197278, Note_off_c, 4, 52, 80
6, 197280, Note_on_c, 4, 57, 95
6, 197398, Note_off_c, 4, 57, 80
6, 197400, Note_on_c, 4, 54, 95
6, 197638, Note_off_c, 4, 54, 80
6, 197640, Note_on_c, 4, 54, 95
6, 197758, Note_off_c, 4, 54, 80
6, 197760, Note_on_c, 4, 52, 95
6, 197818, Note_off_c, 4, 52, 80
6, 197820, Note_on_c, 4, 57, 76
6, 197878, Note_off_c, 4, 57, 80
6, 197880, Note_on_c, 4, 54, 76
6, 197938, Note_off_c, 4, 54, 80
6, 197940, Note_on_c, 4, 59, 95
6, 197998, Note_off_c, 4, 59, 80
6, 198000, Note_on_c, 4, 57, 76
6, 198058, Note_off_c, 4, 57, 80
6, 198060, Note_on_c, 4, 61, 76
6, 198118, Note_off_c, 4, 61, 80
6, 198120, Note_on_c, 4, 59, 76
6, 198178, Note_off_c, 4, 59, 80
6, 198180, Note_on_c, 4, 64, 95
6, 198238, Note_off_c, 4, 64, 80
6, 198240, Note_on_c, 4, 61, 76
6, 198298, Note_off_c, 4, 61, 80
6, 198300, Note_on_c, 4, 66, 76
6, 198358, Note_off_c, 4, 66, 80
6, 198360, Note_on_c, 4, 64, 76
6, 198418, Note_off_c, 4, 64, 80
6, 198420, Note_on_c, 4, 69, 95
6, 198478, Note_off_c, 4, 69, 80
6, 198480, Note_on_c, 4, 66, 76
6, 198538, Note_off_c, 4, 66, 80
6, 198540, Note_on_c, 4, 71, 76
6, 198598, Note_off_c, 4, 71, 80
6, 198600, Note_on_c, 4, 69, 76
6, 198658, Note_off_c, 4, 69, 80
6, 198660, Note_on_c, 4, 73, 95
6, 198718, Note_off_c, 4, 73, 80
6, 198720, Note_on_c, 4, 76, 76
6, 198958, Note_off_c, 4, 76, 80
6, 198960, Note_on_c, 4, 73, 95
6, 199078, Note_off_c, 4, 73, 80
6, 199080, Note_on_c, 4, 76, 95
6, 199112, Pitch_bend_c, 4, 8320
6, 199144, Pitch_bend_c, 4, 8576
6, 199160, Pitch_bend_c, 4, 8704
6, 199176, Pitch_bend_c, 4, 8960
6, 199192, Pitch_bend_c, 4, 9088
6, 199208, Pitch_bend_c, 4, 9344
6, 199224, Pitch_bend_c, 4, 9472
6, 199240, Pitch_bend_c, 4, 9600
6, 199384, Pitch_bend_c, 4, 9472
6, 199400, Pitch_bend_c, 4, 9344
6, 199416, Pitch_bend_c, 4, 9216
6, 199432, Pitch_bend_c, 4, 8960
6, 199448, Pitch_bend_c, 4, 8704
6, 199464, Pitch_bend_c, 4, 8576
6, 199480, Pitch_bend_c, 4, 8320
6, 199512, Pitch_bend_c, 4, 8192
6, 199678, Note_off_c, 4, 76, 80
6, 199680, Note_on_c, 4, 82, 95
6, 199696, Pitch_bend_c, 4, 8320
6, 199712, Pitch_bend_c, 4, 8448
6, 199728, Pitch_bend_c, 4, 8704
6, 199744, Pitch_bend_c, 4, 8832
6, 199824, Pitch_bend_c, 4, 8576
6, 199840, Pitch_bend_c, 4, 8320
6, 199856, Pitch_bend_c, 4, 8192
6, 199918, Note_off_c, 4, 82, 80
6, 199920, Note_on_c, 4, 82, 95
6, 199952, Pitch_bend_c, 4, 8320
6, 199968, Pitch_bend_c, 4, 8448
6, 199984, Pitch_bend_c, 4, 8704
6, 200000, Pitch_bend_c, 4, 8832
6, 200128, Pitch_bend_c, 4, 8576
6, 200144, Pitch_bend_c, 4, 8448
6, 200160, Pitch_bend_c, 4, 8320
6, 200176, Pitch_bend_c, 4, 8192
6, 200278, Note_off_c, 4, 82, 80
6, 200280, Note_on_c, 4, 78, 95
6, 200398, Note_off_c, 4, 78, 80
6, 200400, Note_on_c, 4, 76, 95
6, 200518, Note_off_c, 4, 76, 80
6, 200520, Note_on_c, 4, 79, 95
6, 200638, Note_off_c, 4, 79, 80
6, 200640, Note_on_c, 4, 78, 95
6, 200878, Note_off_c, 4, 78, 80
6, 200880, Note_on_c, 4, 79, 95
6, 200938, Note_off_c, 4, 79, 80
6, 200940, Note_on_c, 4, 78, 76
6, 200998, Note_off_c, 4, 78, 80
6, 201000, Note_on_c, 4, 76, 76
6, 201058, Note_off_c, 4, 76, 80
6, 201060, Note_on_c, 4, 73, 95
6, 201118, Note_off_c, 4, 73, 80
6, 201120, Note_on_c, 4, 71, 76
6, 201178, Note_off_c, 4, 71, 80
6, 201180, Note_on_c, 4, 76, 95
6, 201238, Note_off_c, 4, 76, 80
6, 201240, Note_on_c, 4, 73, 76
6, 201298, Note_off_c, 4, 73, 80
6, 201300, Note_on_c, 4, 71, 76
6, 201358, Note_off_c, 4, 71, 80
6, 201360, Note_on_c, 4, 67, 95
6, 201418, Note_off_c, 4, 67, 80
6, 201420, Note_on_c, 4, 70, 76
6, 201478, Note_off_c, 4, 70, 80
6, 201480, Note_on_c, 4, 71, 76
6, 201538, Note_off_c, 4, 71, 80
6, 201540, Note_on_c, 4, 73, 76
6, 201598, Note_off_c, 4, 73, 80
6, 201600, Note_on_c, 4, 70, 95
6, 201958, Note_off_c, 4, 70, 80
6, 201960, Note_on_c, 4, 67, 95
6, 202198, Note_off_c, 4, 67, 80
6, 202200, Note_on_c, 4, 64, 95
6, 202278, Note_off_c, 4, 64, 80
6, 202280, Note_on_c, 4, 67, 76
6, 202358, Note_off_c, 4, 67, 80
6, 202360, Note_on_c, 4, 64, 76
6, 202438, Note_off_c, 4, 64, 80
6, 202440, Note_on_c, 4, 67, 95
6, 202498, Note_off_c, 4, 67, 80
6, 202500, Note_on_c, 4, 66, 76
6, 202558, Note_off_c, 4, 66, 80
6, 202560, Note_on_c, 4, 64, 76
6, 202618, Note_off_c, 4, 64, 80
6, 202620, Note_on_c, 4, 61, 95
6, 202678, Note_off_c, 4, 61, 80
6, 202680, Note_on_c, 4, 59, 76
6, 202738, Note_off_c, 4, 59, 80
6, 202740, Note_on_c, 4, 64, 76
6, 202798, Note_off_c, 4, 64, 80
6, 202800, Note_on_c, 4, 61, 76
6, 202858, Note_off_c, 4, 61, 80
6, 202860, Note_on_c, 4, 59, 76
6, 202918, Note_off_c, 4, 59, 80
6, 202920, Note_on_c, 4, 58, 76
6, 202978, Note_off_c, 4, 58, 80
6, 202980, Note_on_c, 4, 54, 95
6, 203218, Note_off_c, 4, 54, 80
6, 203220, Note_on_c, 4, 52, 95
6, 203338, Note_off_c, 4, 52, 80
6, 203340, Note_on_c, 4, 54, 95
6, 203458, Note_off_c, 4, 54, 80
6, 203460, Note_on_c, 4, 55, 95
6, 203518, Note_off_c, 4, 55, 80
6, 203520, Note_on_c, 4, 51, 95
6, 203552, Pitch_bend_c, 4, 8320
6, 203568, Pitch_bend_c, 4, 8448
6, 203584, Pitch_bend_c, 4, 8704
6, 203600, Pitch_bend_c, 4, 8832
6, 203728, Pitch_bend_c, 4, 8576
6, 203744, Pitch_bend_c, 4, 8448
6, 203760, Pitch_bend_c, 4, 8320
6, 203776, Pitch_bend_c, 4, 8192
6, 203878, Note_off_c, 4, 51, 80
6, 203880, Note_on_c, 4, 48, 95
6, 203998, Note_off_c, 4, 48, 80
6, 204000, Note_on_c, 4, 47, 95
6, 204238, Note_off_c, 4, 47, 80
6, 204240, Note_on_c, 4, 57, 95
6, 204256, Pitch_bend_c, 4, 8320
6, 204288, Pitch_bend_c, 4, 8704
6, 204304, Pitch_bend_c, 4, 9088
6, 204320, Pitch_bend_c, 4, 9344
6, 204336, Pitch_bend_c, 4, 9600
6, 204432, Pitch_bend_c, 4, 9344
6, 204448, Pitch_bend_c, 4, 8960
6, 204464, Pitch_bend_c, 4, 8704
6, 204480, Pitch_bend_c, 4, 8320
6, 204496, Pitch_bend_c, 4, 8192
6, 204598, Note_off_c, 4, 57, 80
6, 204600, Note_on_c, 4, 54, 95
6, 204718, Note_off_c, 4, 54, 80
6, 204720, Note_on_c, 4, 52, 95
6, 204736, Pitch_bend_c, 4, 8320
6, 204752, Pitch_bend_c, 4, 8704
6, 204768, Pitch_bend_c, 4, 9344
6, 204784, Pitch_bend_c, 4, 9600
6, 204848, Pitch_bend_c, 4, 9344
6, 204864, Pitch_bend_c, 4, 8832
6, 204880, Pitch_bend_c, 4, 8320
6, 204896, Pitch_bend_c, 4, 8192
6, 204958, Note_off_c, 4, 52, 80
6, 204960, Note_on_c, 4, 52, 95
6, 205078, Note_off_c, 4, 52, 80
6, 205080, Note_on_c, 4, 51, 95
6, 205198, Note_off_c, 4, 51, 80
6, 205200, Note_on_c, 4, 48, 95
6, 205318, Note_off_c, 4, 48, 80
6, 205320, Note_on_c, 4, 51, 95
6, 205378, Note_off_c, 4, 51, 80
6, 205380, Note_on_c, 4, 52, 76
6, 205438, Note_off_c, 4, 52, 80
6, 205440, Note_on_c, 4, 54, 95
6, 205498, Note_off_c, 4, 54, 80
6, 205500, Note_on_c, 4, 57, 76
6, 205558, Note_off_c, 4, 57, 80
6, 205560, Note_on_c, 4, 52, 95
6, 205618, Note_off_c, 4, 52, 80
6, 205620, Note_on_c, 4, 54, 76
6, 205678, Note_off_c, 4, 54, 80
6, 205680, Note_on_c, 4, 57, 95
6, 205738, Note_off_c, 4, 57, 80
6, 205740, Note_on_c, 4, 59, 76
6, 205798, Note_off_c, 4, 59, 80
6, 205800, Note_on_c, 4, 63, 95
6, 205858, Note_off_c, 4, 63, 80
6, 205860, Note_on_c, 4, 64, 76
6, 205918, Note_off_c, 4, 64, 80
6, 205920, Note_on_c, 4, 66, 76
6, 205978, Note_off_c, 4, 66, 80
6, 205980, Note_on_c, 4, 69, 95
6, 206038, Note_off_c, 4, 69, 80
6, 206040, Note_on_c, 4, 71, 76
6, 206098, Note_off_c, 4, 71, 80
6, 206100, Note_on_c, 4, 75, 95
6, 206158, Note_off_c, 4, 75, 80
6, 206160, Note_on_c, 4, 76, 76
6, 206218, Note_off_c, 4, 76, 80
6, 206220, Note_on_c, 4, 78, 76
6, 206278, Note_off_c, 4, 78, 80
6, 206280, Note_on_c, 4, 81, 95
6, 206338, Note_off_c, 4, 81, 80
6, 206340, Note_on_c, 4, 83, 76
6, 206398, Note_off_c, 4, 83, 80
6, 206400, Note_on_c, 4, 81, 76
6, 206638, Note_off_c, 4, 81, 80
6, 206640, Note_on_c, 4, 78, 95
6, 206758, Note_off_c, 4, 78, 80
6, 206760, Note_on_c, 4, 83, 95
6, 206792, Pitch_bend_c, 4, 8320
6, 206808, Pitch_bend_c, 4, 8448
6, 206824, Pitch_bend_c, 4, 8704
6, 206840, Pitch_bend_c, 4, 8960
6, 206856, Pitch_bend_c, 4, 9344
6, 206872, Pitch_bend_c, 4, 9472
6, 206888, Pitch_bend_c, 4, 9600
6, 207016, Pitch_bend_c, 4, 9344
6, 207032, Pitch_bend_c, 4, 9088
6, 207048, Pitch_bend_c, 4, 8832
6, 207064, Pitch_bend_c, 4, 8576
6, 207080, Pitch_bend_c, 4, 8320
6, 207112, Pitch_bend_c, 4, 8192
6, 207238, Note_off_c, 4, 83, 80
6, 207240, Note_on_c, 4, 81, 95
6, 207298, Note_off_c, 4, 81, 80
6, 207300, Note_on_c, 4, 78, 76
6, 207358, Note_off_c, 4, 78, 80
6, 207360, Note_on_c, 4, 85, 95
6, 207392, Pitch_bend_c, 4, 8320
6, 207408, Pitch_bend_c, 4, 8448
6, 207424, Pitch_bend_c, 4, 8704
6, 207440, Pitch_bend_c, 4, 8960
6, 207456, Pitch_bend_c, 4, 9344
6, 207472, Pitch_bend_c, 4, 9472
6, 207488, Pitch_bend_c, 4, 9600
6, 207598, Note_off_c, 4, 85, 80
6, 207600, Pitch_bend_c, 4, 8192
6, 207600, Note_on_c, 4, 85, 95
6, 207616, Pitch_bend_c, 4, 8320
6, 207632, Pitch_bend_c, 4, 8960
6, 207648, Pitch_bend_c, 4, 9856
6, 207664, Pitch_bend_c, 4, 10240
6, 207728, Pitch_bend_c, 4, 9984
6, 207744, Pitch_bend_c, 4, 9216
6, 207760, Pitch_bend_c, 4, 8448
6, 207776, Pitch_bend_c, 4, 8192
6, 207838, Note_off_c, 4, 85, 80
6, 207840, Note_on_c, 4, 83, 95
6, 207898, Note_off_c, 4, 83, 80
6, 207900, Note_on_c, 4, 81, 76
6, 207958, Note_off_c, 4, 81, 80
6, 207960, Note_on_c, 4, 78, 95
6, 208018, Note_off_c, 4, 78, 80
6, 208020, Note_on_c, 4, 76, 76
6, 208078, Note_off_c, 4, 76, 80
6, 208080, Note_on_c, 4, 75, 76
6, 208138, Note_off_c, 4, 75, 80
6, 208140, Note_on_c, 4, 78, 95
6, 208198, Note_off_c, 4, 78, 80
6, 208200, Note_on_c, 4, 76, 76
6, 208258, Note_off_c, 4, 76, 80
6, 208260, Note_on_c, 4, 75, 76
6, 208318, Note_off_c, 4, 75, 80
6, 208320, Note_on_c, 4, 72, 95
6, 208378, Note_off_c, 4, 72, 80
6, 208380, Note_on_c, 4, 69, 76
6, 208438, Note_off_c, 4, 69, 80
6, 208440, Note_on_c, 4, 66, 76
6, 208498, Note_off_c, 4, 66, 80
6, 208500, Note_on_c, 4, 71, 95
6, 208558, Note_off_c, 4, 71, 80
6, 208560, Note_on_c, 4, 69, 76
6, 208798, Note_off_c, 4, 69, 80
6, 208800, Note_on_c, 4, 64, 95
6, 208858, Note_off_c, 4, 64, 80
6, 208860, Note_on_c, 4, 69, 76
6, 208918, Note_off_c, 4, 69, 80
6, 208920, Note_on_c, 4, 66, 76
6, 208978, Note_off_c, 4, 66, 80
6, 208980, Note_on_c, 4, 64, 76
6, 209038, Note_off_c, 4, 64, 80
6, 209040, Note_on_c, 4, 63, 95
6, 209098, Note_off_c, 4, 63, 80
6, 209100, Note_on_c, 4, 59, 76
6, 209158, Note_off_c, 4, 59, 80
6, 209160, Note_on_c, 4, 71, 95
6, 209218, Note_off_c, 4, 71, 80
6, 209220, Note_on_c, 4, 59, 76
6, 209278, Note_off_c, 4, 59, 80
6, 209280, Note_on_c, 4, 71, 95
6, 209338, Note_off_c, 4, 71, 80
6, 209340, Note_on_c, 4, 59, 76
6, 209398, Note_off_c, 4, 59, 80
6, 209400, Note_on_c, 4, 72, 95
6, 209458, Note_off_c, 4, 72, 80
6, 209460, Note_on_c, 4, 60, 76
6, 209518, Note_off_c, 4, 60, 80
6, 209520, Note_on_c, 4, 72, 95
6, 209578, Note_off_c, 4, 72, 80
6, 209580, Note_on_c, 4, 60, 76
6, 209638, Note_off_c, 4, 60, 80
6, 209640, Note_on_c, 4, 75, 95
6, 209698, Note_off_c, 4, 75, 80
6, 209700, Note_on_c, 4, 63, 76
6, 209758, Note_off_c, 4, 63, 80
6, 209760, Note_on_c, 4, 75, 95
6, 209818, Note_off_c, 4, 75, 80
6, 209820, Note_on_c, 4, 63, 76
6, 209878, Note_off_c, 4, 63, 80
6, 209880, Note_on_c, 4, 76, 95
6, 209938, Note_off_c, 4, 76, 80
6, 209940, Note_on_c, 4, 64, 76
6, 209998, Note_off_c, 4, 64, 80
6, 210000, Note_on_c, 4, 76, 95
6, 210058, Note_off_c, 4, 76, 80
6, 210060, Note_on_c, 4, 64, 76
6, 210118, Note_off_c, 4, 64, 80
6, 210120, Note_on_c, 4, 78, 95
6, 210178, Note_off_c, 4, 78, 80
6, 210180, Note_on_c, 4, 66, 76
6, 210238, Note_off_c, 4, 66, 80
6, 210240, Note_on_c, 4, 78, 95
6, 210298, Note_off_c, 4, 78, 80
6, 210300, Note_on_c, 4, 66, 76
6, 210358, Note_off_c, 4, 66, 80
6, 210360, Note_on_c, 4, 81, 95
6, 210418, Note_off_c, 4, 81, 80
6, 210420, Note_on_c, 4, 69, 76
6, 210478, Note_off_c, 4, 69, 80
6, 210480, Note_on_c, 4, 81, 95
6, 210538, Note_off_c, 4, 81, 80
6, 210540, Note_on_c, 4, 69, 76
6, 210598, Note_off_c, 4, 69, 80
6, 210600, Note_on_c, 4, 83, 95
6, 210658, Note_off_c, 4, 83, 80
6, 210660, Note_on_c, 4, 71, 76
6, 210718, Note_off_c, 4, 71, 80
6, 210720, Note_on_c, 4, 83, 95
6, 210778, Note_off_c, 4, 83, 80
6, 210780, Note_on_c, 4, 71, 76
6, 210838, Note_off_c, 4, 71, 80
6, 210840, Note_on_c, 4, 84, 95
6, 210898, Note_off_c, 4, 84, 80
6, 210900, Note_on_c, 4, 72, 76
6, 210958, Note_off_c, 4, 72, 80
6, 210960, Note_on_c, 4, 87, 95
6, 211018, Note_off_c, 4, 87, 80
6, 211020, Note_on_c, 4, 75, 76
6, 211078, Note_off_c, 4, 75, 80
6, 211080, Note_on_c, 4, 88, 95
6, 211138, Note_off_c, 4, 88, 80
6, 211140, Note_on_c, 4, 76, 76
6, 211198, Note_off_c, 4, 76, 80
6, 211200, Control_c, 4, 7, 89
6, 211200, Note_on_c, 4, 88, 95
6, 211320, Control_c, 4, 7, 81
6, 211360, Pitch_bend_c, 4, 8320
6, 211440, Control_c, 4, 7, 74
6, 211552, Pitch_bend_c, 4, 8448
6, 211560, Control_c, 4, 7, 66
6, 211616, Pitch_bend_c, 4, 8576
6, 211680, Control_c, 4, 7, 59
6, 211696, Pitch_bend_c, 4, 8704
6, 211760, Pitch_bend_c, 4, 8832
6, 211800, Control_c, 4, 7, 52
6, 211808, Pitch_bend_c, 4, 8960
6, 211872, Pitch_bend_c, 4, 9088
6, 211920, Control_c, 4, 7, 44
6, 211936, Pitch_bend_c, 4, 9216
6, 211952, Pitch_bend_c, 4, 9344
6, 212040, Control_c, 4, 7, 37
6, 212064, Pitch_bend_c, 4, 9472
6, 212144, Pitch_bend_c, 4, 9600
6, 212160, Control_c, 4, 7, 30
6, 212280, Control_c, 4, 7, 22
6, 212400, Control_c, 4, 7, 15
6, 212520, Control_c, 4, 7, 7
6, 212640, Control_c, 4, 7, 0
6, 213118, Note_off_c, 4, 88, 80
6, 254400, Control_c, 4, 7, 96
6, 254400, Pitch_bend_c, 4, 8192
6, 254400, Note_on_c, 4, 69, 95
6, 254416, Pitch_bend_c, 4, 8320
6, 254432, Pitch_bend_c, 4, 8704
6, 254448, Pitch_bend_c, 4, 9344
6, 254464, Pitch_bend_c, 4, 9600
6, 254528, Pitch_bend_c, 4, 9344
6, 254544, Pitch_bend_c, 4, 8832
6, 254560, Pitch_bend_c, 4, 8320
6, 254576, Pitch_bend_c, 4, 8192
6, 254638, Note_off_c, 4, 69, 80
6, 254640, Note_on_c, 4, 66, 95
6, 254758, Note_off_c, 4, 66, 80
6, 254760, Note_on_c, 4, 69, 95
6, 254878, Note_off_c, 4, 69, 80
6, 254880, Note_on_c, 4, 66, 95
6, 255118, Note_off_c, 4, 66, 80
6, 255120, Note_on_c, 4, 62, 95
6, 255238, Note_off_c, 4, 62, 80
6, 255240, Note_on_c, 4, 64, 95
6, 255478, Note_off_c, 4, 64, 80
6, 255480, Note_on_c, 4, 62, 95
6, 255598, Note_off_c, 4, 62, 80
6, 255600, Note_on_c, 4, 64, 95
6, 255718, Note_off_c, 4, 64, 80
6, 255720, Note_on_c, 4, 62, 95
6, 255838, Note_off_c, 4, 62, 80
6, 255840, Note_on_c, 4, 64, 95
6, 255856, Pitch_bend_c, 4, 8320
6, 255872, Pitch_bend_c, 4, 8704
6, 255888, Pitch_bend_c, 4, 9344
6, 255904, Pitch_bend_c, 4, 9600
6, 255958, Note_off_c, 4, 64, 80
6, 255960, Pitch_bend_c, 4, 8192
6, 255960, Note_on_c, 4, 69, 95
6, 256078, Note_off_c, 4, 69, 80
6, 256080, Note_on_c, 4, 64, 95
6, 256096, Pitch_bend_c, 4, 8320
6, 256112, Pitch_bend_c, 4, 8704
6, 256128, Pitch_bend_c, 4, 9344
6, 256144, Pitch_bend_c, 4, 9600
6, 256198, Note_off_c, 4, 64, 80
6, 256200, Pitch_bend_c, 4, 8192
6, 256200, Note_on_c, 4, 69, 95
6, 256318, Note_off_c, 4, 69, 80
6, 256320, Note_on_c, 4, 64, 95
6, 256336, Pitch_bend_c, 4, 8320
6, 256352, Pitch_bend_c, 4, 8704
6, 256368, Pitch_bend_c, 4, 9344
6, 256384, Pitch_bend_c, 4, 9600
6, 256448, Pitch_bend_c, 4, 9344
6, 256464, Pitch_bend_c, 4, 8832
6, 256480, Pitch_bend_c, 4, 8320
6, 256496, Pitch_bend_c, 4, 8192
6, 256558, Note_off_c, 4, 64, 80
6, 256560, Note_on_c, 4, 62, 95
6, 256678, Note_off_c, 4, 62, 80
6, 256680, Note_on_c, 4, 59, 95
6, 256798, Note_off_c, 4, 59, 80
6, 256800, Note_on_c, 4, 59, 95
6, 256918, Note_off_c, 4, 59, 80
6, 256920, Note_on_c, 4, 62, 95
6, 256978, Note_off_c, 4, 62, 80
6, 256980, Note_on_c, 4, 59, 76
6, 257038, Note_off_c, 4, 59, 80
6, 257040, Note_on_c, 4, 64, 95
6, 257098, Note_off_c, 4, 64, 80
6, 257100, Note_on_c, 4, 62, 76
6, 257158, Note_off_c, 4, 62, 80
6, 257160, Note_on_c, 4, 59, 95
6, 257218, Note_off_c, 4, 59, 80
6, 257220, Note_on_c, 4, 57, 76
6, 257278, Note_off_c, 4, 57, 80
6, 257280, Note_on_c, 4, 59, 95
6, 257338, Note_off_c, 4, 59, 80
6, 257340, Note_on_c, 4, 54, 76
6, 257398, Note_off_c, 4, 54, 80
6, 257400, Note_on_c, 4, 59, 95
6, 257458, Note_off_c, 4, 59, 80
6, 257460, Note_on_c, 4, 57, 76
6, 257518, Note_off_c, 4, 57, 80
6, 257520, Note_on_c, 4, 54, 76
6, 257578, Note_off_c, 4, 54, 80
6, 257580, Note_on_c, 4, 57, 95
6, 257638, Note_off_c, 4, 57, 80
6, 257640, Note_on_c, 4, 54, 76
6, 257698, Note_off_c, 4, 54, 80
6, 257700, Note_on_c, 4, 54, 95
6, 257758, Note_off_c, 4, 54, 80
6, 257760, Note_on_c, 4, 52, 76
6, 257818, Note_off_c, 4, 52, 80
6, 257820, Note_on_c, 4, 50, 76
6, 257878, Note_off_c, 4, 50, 80
6, 257880, Note_on_c, 4, 47, 95
6, 257938, Note_off_c, 4, 47, 80
6, 257940, Note_on_c, 4, 45, 76
6, 257998, Note_off_c, 4, 45, 80
6, 258000, Note_on_c, 4, 50, 95
6, 258238, Note_off_c, 4, 50, 80
6, 258240, Note_on_c, 4, 47, 95
6, 258298, Note_off_c, 4, 47, 80
6, 258300, Note_on_c, 4, 50, 76
6, 258358, Note_off_c, 4, 50, 80
6, 258360, Note_on_c, 4, 54, 95
6, 258418, Note_off_c, 4, 54, 80
6, 258420, Note_on_c, 4, 47, 95
6, 258478, Note_off_c, 4, 47, 80
6, 258480, Note_on_c, 4, 50, 76
6, 258538, Note_off_c, 4, 50, 80
6, 258540, Note_on_c, 4, 54, 95
6, 258598, Note_off_c, 4, 54, 80
6, 258600, Note_on_c, 4, 57, 76
6, 258658, Note_off_c, 4, 57, 80
6, 258660, Note_on_c, 4, 62, 95
6, 258718, Note_off_c, 4, 62, 80
6, 258720, Note_on_c, 4, 66, 76
6, 258778, Note_off_c, 4, 66, 80
6, 258780, Note_on_c, 4, 59, 95
6, 258838, Note_off_c, 4, 59, 80
6, 258840, Note_on_c, 4, 62, 76
6, 258898, Note_off_c, 4, 62, 80
6, 258900, Note_on_c, 4, 64, 95
6, 258958, Note_off_c, 4, 64, 80
6, 258960, Note_on_c, 4, 65, 76
6, 259018, Note_off_c, 4, 65, 80
6, 259020, Note_on_c, 4, 69, 95
6, 259078, Note_off_c, 4, 69, 80
6, 259080, Note_on_c, 4, 71, 76
6, 259138, Note_off_c, 4, 71, 80
6, 259140, Note_on_c, 4, 65, 95
6, 259198, Note_off_c, 4, 65, 80
6, 259200, Note_on_c, 4, 69, 95
6, 259258, Note_off_c, 4, 69, 80
6, 259260, Note_on_c, 4, 71, 76
6, 259318, Note_off_c, 4, 71, 80
6, 259320, Note_on_c, 4, 74, 95
6, 259378, Note_off_c, 4, 74, 80
6, 259380, Note_on_c, 4, 76, 76
6, 259438, Note_off_c, 4, 76, 80
6, 259440, Note_on_c, 4, 77, 76
6, 259498, Note_off_c, 4, 77, 80
6, 259500, Note_on_c, 4, 81, 95
6, 259558, Note_off_c, 4, 81, 80
6, 259560, Note_on_c, 4, 83, 76
6, 259618, Note_off_c, 4, 83, 80
6, 259620, Note_on_c, 4, 86, 76
6, 259678, Note_off_c, 4, 86, 80
6, 259680, Note_on_c, 4, 83, 95
6, 259918, Note_off_c, 4, 83, 80
6, 259920, Note_on_c, 4, 81, 95
6, 259978, Note_off_c, 4, 81, 80
6, 259980, Note_on_c, 4, 86, 76
6, 260038, Note_off_c, 4, 86, 80
6, 260040, Note_on_c, 4, 83, 76
6, 260098, Note_off_c, 4, 83, 80
6, 260100, Note_on_c, 4, 81, 76
6, 260158, Note_off_c, 4, 81, 80
6, 260160, Note_on_c, 4, 78, 95
6, 260218, Note_off_c, 4, 78, 80
6, 260220, Note_on_c, 4, 76, 76
6, 260278, Note_off_c, 4, 76, 80
6, 260280, Note_on_c, 4, 81, 95
6, 260338, Note_off_c, 4, 81, 80
6, 260340, Note_on_c, 4, 78, 76
6, 260398, Note_off_c, 4, 78, 80
6, 260400, Note_on_c, 4, 76, 76
6, 260458, Note_off_c, 4, 76, 80
6, 260460, Note_on_c, 4, 74, 76
6, 260518, Note_off_c, 4, 74, 80
6, 260520, Note_on_c, 4, 76, 95
6, 260758, Note_off_c, 4, 76, 80
6, 260760, Note_on_c, 4, 76, 95
6, 260798, Note_off_c, 4, 76, 80
6, 260800, Note_on_c, 4, 74, 76
6, 260838, Note_off_c, 4, 74, 80
6, 260840, Note_on_c, 4, 71, 76
6, 260878, Note_off_c, 4, 71, 80
6, 260880, Note_on_c, 4, 76, 76
6, 261118, Note_off_c, 4, 76, 80
6, 261120, Note_on_c, 4, 76, 95
6, 261158, Note_off_c, 4, 76, 80
6, 261160, Note_on_c, 4, 74, 76
6, 261198, Note_off_c, 4, 74, 80
6, 261200, Note_on_c, 4, 71, 76
6, 261238, Note_off_c, 4, 71, 80
6, 261240, Note_on_c, 4, 76, 76
6, 261478, Note_off_c, 4, 76, 80
6, 261480, Note_on_c, 4, 74, 95
6, 261538, Note_off_c, 4, 74, 80
6, 261540, Note_on_c, 4, 71, 76
6, 261598, Note_off_c, 4, 71, 80
6, 261600, Note_on_c, 4, 76, 95
6, 261658, Note_off_c, 4, 76, 80
6, 261660, Note_on_c, 4, 74, 76
6, 261718, Note_off_c, 4, 74, 80
6, 261720, Note_on_c, 4, 71, 76
6, 261778, Note_off_c, 4, 71, 80
6, 261780, Note_on_c, 4, 69, 76
6, 261838, Note_off_c, 4, 69, 80
6, 261840, Note_on_c, 4, 74, 95
6, 261898, Note_off_c, 4, 74, 80
6, 261900, Note_on_c, 4, 69, 76
6, 261958, Note_off_c, 4, 69, 80
6, 261960, Note_on_c, 4, 74, 95
6, 262018, Note_off_c, 4, 74, 80
6, 262020, Note_on_c, 4, 69, 76
6, 262078, Note_off_c, 4, 69, 80
6, 262080, Note_on_c, 4, 66, 95
6, 262138, Note_off_c, 4, 66, 80
6, 262140, Note_on_c, 4, 64, 76
6, 262198, Note_off_c, 4, 64, 80
6, 262200, Note_on_c, 4, 69, 95
6, 262258, Note_off_c, 4, 69, 80
6, 262260, Note_on_c, 4, 66, 76
6, 262318, Note_off_c, 4, 66, 80
6, 262320, Note_on_c, 4, 69, 95
6, 262558, Note_off_c, 4, 69, 80
6, 262560, Note_on_c, 4, 66, 95
6, 262618, Note_off_c, 4, 66, 80
6, 262620, Note_on_c, 4, 71, 76
6, 262678, Note_off_c, 4, 71, 80
6, 262680, Note_on_c, 4, 69, 76
6, 262738, Note_off_c, 4, 69, 80
6, 262740, Note_on_c, 4, 66, 95
6, 262798, Note_off_c, 4, 66, 80
6, 262800, Note_on_c, 4, 64, 76
6, 262858, Note_off_c, 4, 64, 80
6, 262860, Note_on_c, 4, 62, 76
6, 262918, Note_off_c, 4, 62, 80
6, 262920, Note_on_c, 4, 66, 95
6, 262978, Note_off_c, 4, 66, 80
6, 262980, Note_on_c, 4, 64, 76
6, 263038, Note_off_c, 4, 64, 80
6, 263040, Note_on_c, 4, 62, 76
6, 263098, Note_off_c, 4, 62, 80
6, 263100, Note_on_c, 4, 59, 95
6, 263158, Note_off_c, 4, 59, 80
6, 263160, Note_on_c, 4, 62, 95
6, 263256, Pitch_bend_c, 4, 8832
6, 263264, Pitch_bend_c, 4, 9600
6, 263272, Pitch_bend_c, 4, 10240
6, 263278, Note_off_c, 4, 62, 80
6, 263280, Pitch_bend_c, 4, 8192
6, 263280, Note_on_c, 4, 66, 76
6, 263370, Pitch_bend_c, 4, 8832
6, 263378, Pitch_bend_c, 4, 9600
6, 263385, Pitch_bend_c, 4, 10240
6, 263392, Pitch_bend_c, 4, 10880
6, 263398, Note_off_c, 4, 66, 80
6, 263400, Pitch_bend_c, 4, 8192
6, 263400, Note_on_c, 4, 71, 76
6, 263616, Pitch_bend_c, 4, 7552
6, 263638, Note_off_c, 4, 71, 80
6, 263640, Pitch_bend_c, 4, 8192
6, 263640, Note_on_c, 4, 69, 76
6, 263736, Pitch_bend_c, 4, 7552
6, 263744, Pitch_bend_c, 4, 6784
6, 263752, Pitch_bend_c, 4, 6144
6, 263758, Note_off_c, 4, 69, 80
6, 263760, Pitch_bend_c, 4, 8192
6, 263760, Note_on_c, 4, 65, 76
6, 263998, Note_off_c, 4, 65, 80
6, 264000, Note_on_c, 4, 59, 95
6, 264118, Note_off_c, 4, 59, 80
6, 264120, Note_on_c, 4, 62, 95
6, 264178, Note_off_c, 4, 62, 80
6, 264180, Note_on_c, 4, 64, 76
6, 264238, Note_off_c, 4, 64, 80
6, 264240, Note_on_c, 4, 69, 95
6, 264268, Note_off_c, 4, 69, 80
6, 264270, Note_on_c, 4, 71, 76
6, 264298, Note_off_c, 4, 71, 80
6, 264300, Note_on_c, 4, 74, 95
6, 264328, Note_off_c, 4, 74, 80
6, 264330, Note_on_c, 4, 76, 76
6, 264358, Note_off_c, 4, 76, 80
6, 264360, Note_on_c, 4, 77, 76
6, 264418, Note_off_c, 4, 77, 80
6, 264420, Note_on_c, 4, 83, 95
6, 264478, Note_off_c, 4, 83, 80
6, 264480, Note_on_c, 4, 86, 76
6, 264538, Note_off_c, 4, 86, 80
6, 264540, Note_on_c, 4, 88, 76
6, 264598, Note_off_c, 4, 88, 80
6, 264600, Note_on_c, 4, 83, 95
6, 264616, Pitch_bend_c, 4, 8448
6, 264632, Pitch_bend_c, 4, 8832
6, 264680, Pitch_bend_c, 4, 8320
6, 264696, Pitch_bend_c, 4, 8192
6, 264718, Note_off_c, 4, 83, 80
6, 264720, Note_on_c, 4, 81, 95
6, 264778, Note_off_c, 4, 81, 80
6, 264780, Note_on_c, 4, 76, 95
6, 264838, Note_off_c, 4, 76, 80
6, 264840, Note_on_c, 4, 73, 76
6, 264898, Note_off_c, 4, 73, 80
6, 264900, Note_on_c, 4, 71, 76
6, 264958, Note_off_c, 4, 71, 80
6, 264960, Note_on_c, 4, 78, 95
6, 265318, Note_off_c, 4, 78, 80
6, 265320, Note_on_c, 4, 76, 95
6, 265378, Note_off_c, 4, 76, 80
6, 265380, Note_on_c, 4, 73, 95
6, 265438, Note_off_c, 4, 73, 80
6, 265440, Note_on_c, 4, 71, 95
6, 265498, Note_off_c, 4, 71, 80
6, 265500, Note_on_c, 4, 69, 95
6, 265558, Note_off_c, 4, 69, 80
6, 265560, Note_on_c, 4, 66, 95
6, 265618, Note_off_c, 4, 66, 80
6, 265620, Note_on_c, 4, 71, 95
6, 265678, Note_off_c, 4, 71, 80
6, 265680, Note_on_c, 4, 69, 95
6, 265738, Note_off_c, 4, 69, 80
6, 265740, Note_on_c, 4, 66, 95
6, 265798, Note_off_c, 4, 66, 80
6, 265800, Note_on_c, 4, 64, 95
6, 265858, Note_off_c, 4, 64, 80
6, 265860, Note_on_c, 4, 61, 95
6, 265918, Note_off_c, 4, 61, 80
6, 265920, Note_on_c, 4, 64, 95
6, 265978, Note_off_c, 4, 64, 80
6, 265980, Note_on_c, 4, 59, 95
6, 266038, Note_off_c, 4, 59, 80
6, 266040, Note_on_c, 4, 59, 95
6, 266056, Pitch_bend_c, 4, 8320
6, 266072, Pitch_bend_c, 4, 8704
6, 266088, Pitch_bend_c, 4, 9344
6, 266104, Pitch_bend_c, 4, 9600
6, 266168, Pitch_bend_c, 4, 9344
6, 266184, Pitch_bend_c, 4, 8832
6, 266200, Pitch_bend_c, 4, 8320
6, 266216, Pitch_bend_c, 4, 8192
6, 266278, Note_off_c, 4, 59, 80
6, 266280, Note_on_c, 4, 59, 95
6, 266296, Pitch_bend_c, 4, 8320
6, 266328, Pitch_bend_c, 4, 8704
6, 266344, Pitch_bend_c, 4, 9088
6, 266360, Pitch_bend_c, 4, 9344
6, 266376, Pitch_bend_c, 4, 9600
6, 266472, Pitch_bend_c, 4, 9344
6, 266488, Pitch_bend_c, 4, 8960
6, 266504, Pitch_bend_c, 4, 8704
6, 266520, Pitch_bend_c, 4, 8320
6, 266536, Pitch_bend_c, 4, 8192
6, 266638, Note_off_c, 4, 59, 80
6, 266640, Note_on_c, 4, 57, 95
6, 266758, Note_off_c, 4, 57, 80
6, 266760, Note_on_c, 4, 59, 95
6, 266878, Note_off_c, 4, 59, 80
6, 266880, Note_on_c, 4, 54, 95
6, 267238, Note_off_c, 4, 54, 80
6, 267240, Note_on_c, 4, 52, 95
6, 267298, Note_off_c, 4, 52, 80
6, 267300, Note_on_c, 4, 57, 95
6, 267358, Note_off_c, 4, 57, 80
6, 267360, Note_on_c, 4, 54, 95
6, 267418, Note_off_c, 4, 54, 80
6, 267420, Note_on_c, 4, 59, 95
6, 267478, Note_off_c, 4, 59, 80
6, 267480, Note_on_c, 4, 57, 95
6, 267538, Note_off_c, 4, 57, 80
6, 267540, Note_on_c, 4, 61, 95
6, 267598, Note_off_c, 4, 61, 80
6, 267600, Note_on_c, 4, 59, 95
6, 267658, Note_off_c, 4, 59, 80
6, 267660, Note_on_c, 4, 64, 95
6, 267718, Note_off_c, 4, 64, 80
6, 267720, Note_on_c, 4, 61, 95
6, 267778, Note_off_c, 4, 61, 80
6, 267780, Note_on_c, 4, 66, 95
6, 267838, Note_off_c, 4, 66, 80
6, 267840, Note_on_c, 4, 64, 95
6, 268078, Note_off_c, 4, 64, 80
6, 268080, Note_on_c, 4, 64, 95
6, 268138, Note_off_c, 4, 64, 80
6, 268140, Note_on_c, 4, 61, 95
6, 268198, Note_off_c, 4, 61, 80
6, 268200, Note_on_c, 4, 59, 95
6, 268216, Pitch_bend_c, 4, 8064
6, 268232, Pitch_bend_c, 4, 7936
6, 268248, Pitch_bend_c, 4, 7680
6, 268264, Pitch_bend_c, 4, 7552
6, 268280, Pitch_bend_c, 4, 7168
6, 268296, Pitch_bend_c, 4, 6784
6, 268312, Pitch_bend_c, 4, 6528
6, 268328, Pitch_bend_c, 4, 6272
6, 268344, Pitch_bend_c, 4, 6016
6, 268360, Pitch_bend_c, 4, 5760
6, 268376, Pitch_bend_c, 4, 5504
6, 268392, Pitch_bend_c, 4, 5376
6, 268408, Pitch_bend_c, 4, 5120
6, 268440, Pitch_bend_c, 4, 4992
6, 268456, Pitch_bend_c, 4, 4864
6, 268504, Pitch_bend_c, 4, 4736
6, 268520, Pitch_bend_c, 4, 4864
6, 268552, Pitch_bend_c, 4, 4992
6, 268584, Pitch_bend_c, 4, 5120
6, 268600, Pitch_bend_c, 4, 5248
6, 268616, Pitch_bend_c, 4, 5504
6, 268632, Pitch_bend_c, 4, 5632
6, 268648, Pitch_bend_c, 4, 5888
6, 268664, Pitch_bend_c, 4, 6016
6, 268680, Pitch_bend_c, 4, 6400
6, 268696, Pitch_bend_c, 4, 6784
6, 268712, Pitch_bend_c, 4, 6912
6, 268728, Pitch_bend_c, 4, 7296
6, 268744, Pitch_bend_c, 4, 7552
6, 268760, Pitch_bend_c, 4, 7808
6, 268776, Pitch_bend_c, 4, 8064
6, 268792, Pitch_bend_c, 4, 8192
6, 268798, Note_off_c, 4, 59, 80
6, 268800, Note_on_c, 4, 52, 95
6, 268816, Pitch_bend_c, 4, 8064
6, 268832, Pitch_bend_c, 4, 7936
6, 268848, Pitch_bend_c, 4, 7680
6, 268864, Pitch_bend_c, 4, 7424
6, 268880, Pitch_bend_c, 4, 7168
6, 268896, Pitch_bend_c, 4, 6912
6, 268912, Pitch_bend_c, 4, 6528
6, 268928, Pitch_bend_c, 4, 6144
6, 268944, Pitch_bend_c, 4, 5760
6, 268960, Pitch_bend_c, 4, 5376
6, 268976, Pitch_bend_c, 4, 4992
6, 268992, Pitch_bend_c, 4, 4608
6, 269008, Pitch_bend_c, 4, 4224
6, 269024, Pitch_bend_c, 4, 3840
6, 269040, Pitch_bend_c, 4, 3584
6, 269056, Pitch_bend_c, 4, 3200
6, 269072, Pitch_bend_c, 4, 2944
6, 269088, Pitch_bend_c, 4, 2688
6, 269104, Pitch_bend_c, 4, 2560
6, 269120, Pitch_bend_c, 4, 2304
6, 269136, Pitch_bend_c, 4, 2176
6, 269152, Pitch_bend_c, 4, 2048
6, 269168, Pitch_bend_c, 4, 1920
6, 269184, Pitch_bend_c, 4, 1792
6, 269200, Pitch_bend_c, 4, 1664
6, 269232, Pitch_bend_c, 4, 1536
6, 269280, Pitch_bend_c, 4, 1408
6, 269296, Pitch_bend_c, 4, 1536
6, 269344, Pitch_bend_c, 4, 1664
6, 269376, Pitch_bend_c, 4, 1792
6, 269392, Pitch_bend_c, 4, 1920
6, 269408, Pitch_bend_c, 4, 2048
6, 269424, Pitch_bend_c, 4, 2176
6, 269440, Pitch_bend_c, 4, 2304
6, 269456, Pitch_bend_c, 4, 2560
6, 269472, Pitch_bend_c, 4, 2688
6, 269488, Pitch_bend_c, 4, 2944
6, 269504, Pitch_bend_c, 4, 3200
6, 269520, Pitch_bend_c, 4, 3584
6, 269536, Pitch_bend_c, 4, 3840
6, 269552, Pitch_bend_c, 4, 4224
6, 269568, Pitch_bend_c, 4, 4608
6, 269584, Pitch_bend_c, 4, 4992
6, 269600, Pitch_bend_c, 4, 5376
6, 269616, Pitch_bend_c, 4, 5760
6, 269632, Pitch_bend_c, 4, 6144
6, 269648, Pitch_bend_c, 4, 6528
6, 269664, Pitch_bend_c, 4, 6912
6, 269680, Pitch_bend_c, 4, 7168
6, 269696, Pitch_bend_c, 4, 7424
6, 269712, Pitch_bend_c, 4, 7680
6, 269728, Pitch_bend_c, 4, 7936
6, 269744, Pitch_bend_c, 4, 8064
6, 269758, Note_off_c, 4, 52, 80
6, 269760, Pitch_bend_c, 4, 8192
6, 269760, Note_on_c, 4, 47, 95
6, 269798, Note_off_c, 4, 47, 80
6, 269800, Note_on_c, 4, 49, 76
6, 269838, Note_off_c, 4, 49, 80
6, 269840, Note_on_c, 4, 51, 76
6, 269878, Note_off_c, 4, 51, 80
6, 269880, Note_on_c, 4, 52, 95
6, 269918, Note_off_c, 4, 52, 80
6, 269920, Note_on_c, 4, 54, 76
6, 269958, Note_off_c, 4, 54, 80
6, 269960, Note_on_c, 4, 56, 76
6, 269998, Note_off_c, 4, 56, 80
6, 270000, Note_on_c, 4, 57, 95
6, 270038, Note_off_c, 4, 57, 80
6, 270040, Note_on_c, 4, 59, 76
6, 270078, Note_off_c, 4, 59, 80
6, 270080, Note_on_c, 4, 61, 76
6, 270118, Note_off_c, 4, 61, 80
6, 270120, Note_on_c, 4, 63, 95
6, 270158, Note_off_c, 4, 63, 80
6, 270160, Note_on_c, 4, 64, 76
6, 270198, Note_off_c, 4, 64, 80
6, 270200, Note_on_c, 4, 66, 76
6, 270238, Note_off_c, 4, 66, 80
6, 270240, Note_on_c, 4, 68, 95
6, 270278, Note_off_c, 4, 68, 80
6, 270280, Note_on_c, 4, 69, 76
6, 270318, Note_off_c, 4, 69, 80
6, 270320, Note_on_c, 4, 71, 76
6, 270358, Note_off_c, 4, 71, 80
6, 270360, Note_on_c, 4, 73, 95
6, 270398, Note_off_c, 4, 73, 80
6, 270400, Note_on_c, 4, 75, 76
6, 270438, Note_off_c, 4, 75, 80
6, 270440, Note_on_c, 4, 76, 76
6, 270478, Note_off_c, 4, 76, 80
6, 270480, Note_on_c, 4, 78, 95
6, 270518, Note_off_c, 4, 78, 80
6, 270520, Note_on_c, 4, 80, 76
6, 270558, Note_off_c, 4, 80, 80
6, 270560, Note_on_c, 4, 81, 76
6, 270598, Note_off_c, 4, 81, 80
6, 270600, Note_on_c, 4, 83, 95
6, 270638, Note_off_c, 4, 83, 80
6, 270640, Note_on_c, 4, 85, 76
6, 270678, Note_off_c, 4, 85, 80
6, 270680, Note_on_c, 4, 87, 76
6, 270718, Note_off_c, 4, 87, 80
6, 270720, Note_on_c, 4, 88, 95
6, 270958, Note_off_c, 4, 88, 80
6, 270960, Note_on_c, 4, 85, 95
6, 271078, Note_off_c, 4, 85, 80
6, 271080, Note_on_c, 4, 88, 95
6, 271318, Note_off_c, 4, 88, 80
6, 271320, Note_on_c, 4, 85, 95
6, 271438, Note_off_c, 4, 85, 80
6, 271440, Note_on_c, 4, 88, 95
6, 271472, Pitch_bend_c, 4, 8320
6, 271488, Pitch_bend_c, 4, 8448
6, 271504, Pitch_bend_c, 4, 8704
6, 271520, Pitch_bend_c, 4, 8960
6, 271536, Pitch_bend_c, 4, 9344
6, 271552, Pitch_bend_c, 4, 9472
6, 271568, Pitch_bend_c, 4, 9600
6, 271678, Note_off_c, 4, 88, 80
6, 271680, Pitch_bend_c, 4, 8192
6, 271680, Note_on_c, 4, 88, 95
6, 271728, Pitch_bend_c, 4, 8320
6, 271776, Pitch_bend_c, 4, 8448
6, 271792, Pitch_bend_c, 4, 8576
6, 271808, Pitch_bend_c, 4, 8704
6, 271824, Pitch_bend_c, 4, 8832
6, 271840, Pitch_bend_c, 4, 8960
6, 271856, Pitch_bend_c, 4, 9088
6, 271872, Pitch_bend_c, 4, 9344
6, 271904, Pitch_bend_c, 4, 9472
6, 271920, Pitch_bend_c, 4, 9600
6, 272176, Pitch_bend_c, 4, 9472
6, 272192, Pitch_bend_c, 4, 9344
6, 272224, Pitch_bend_c, 4, 9088
6, 272240, Pitch_bend_c, 4, 8960
6, 272256, Pitch_bend_c, 4, 8832
6, 272272, Pitch_bend_c, 4, 8704
6, 272288, Pitch_bend_c, 4, 8576
6, 272304, Pitch_bend_c, 4, 8448
6, 272320, Pitch_bend_c, 4, 8320
6, 272368, Pitch_bend_c, 4, 8192
6, 272638, Note_off_c, 4, 88, 80
6, 272640, Control_c, 4, 7, 89
6, 272640, Note_on_c, 4, 88, 95
6, 272760, Control_c, 4, 7, 81
6, 272880, Control_c, 4, 7, 74
6, 273000, Control_c, 4, 7, 66
6, 273120, Control_c, 4, 7, 59
6, 273240, Control_c, 4, 7, 52
6, 273360, Control_c, 4, 7, 44
6, 273480, Control_c, 4, 7, 37
6, 273600, Control_c, 4, 7, 30
6, 273720, Control_c, 4, 7, 22
6, 273840, Control_c, 4, 7, 15
6, 273960, Control_c, 4, 7, 7
6, 274080, Control_c, 4, 7, 0
6, 274558, Note_off_c, 4, 88, 80
6, 274558, End_track
0, 0, End_of_file
