0, 0, Header, 1, 131, 384
1, 0, Start_track
1, 0, Time_signature, 4, 2, 96, 8
1, 0, Sequencer_specific, 3, 0, 0, 65
1, 0, Sequencer_specific, 5, 0, 0, 119, 14, 0
1, 0, Tempo, 806451
1, 0, End_track
2, 0, Start_track
2, 0, End_track
3, 0, Start_track
3, 0, End_track
4, 0, Start_track
4, 0, Control_c, 0, 0, 0
4, 0, Program_c, 0, 26
4, 0, Control_c, 0, 7, 100
4, 12, Note_on_c, 0, 56, 72
4, 244, Note_off_c, 0, 56, 0
4, 284, Note_on_c, 0, 59, 72
4, 364, Note_off_c, 0, 59, 0
4, 388, Note_on_c, 0, 58, 82
4, 464, Note_off_c, 0, 58, 0
4, 564, Note_on_c, 0, 57, 75
4, 632, Note_off_c, 0, 57, 0
4, 760, Note_on_c, 0, 56, 83
4, 980, Note_off_c, 0, 56, 0
4, 1548, Note_on_c, 0, 56, 72
4, 1780, Note_off_c, 0, 56, 0
4, 1820, Note_on_c, 0, 59, 72
4, 1900, Note_off_c, 0, 59, 0
4, 1924, Note_on_c, 0, 58, 82
4, 2000, Note_off_c, 0, 58, 0
4, 2100, Note_on_c, 0, 57, 75
4, 2168, Note_off_c, 0, 57, 0
4, 2296, Note_on_c, 0, 56, 83
4, 2516, Note_off_c, 0, 56, 0
4, 3084, Note_on_c, 0, 56, 72
4, 3316, Note_off_c, 0, 56, 0
4, 3356, Note_on_c, 0, 59, 72
4, 3436, Note_off_c, 0, 59, 0
4, 3460, Note_on_c, 0, 58, 82
4, 3536, Note_off_c, 0, 58, 0
4, 3636, Note_on_c, 0, 57, 75
4, 3704, Note_off_c, 0, 57, 0
4, 3832, Note_on_c, 0, 56, 83
4, 4052, Note_off_c, 0, 56, 0
4, 4620, Note_on_c, 0, 56, 72
4, 4852, Note_off_c, 0, 56, 0
4, 4892, Note_on_c, 0, 59, 72
4, 4972, Note_off_c, 0, 59, 0
4, 4996, Note_on_c, 0, 58, 82
4, 5072, Note_off_c, 0, 58, 0
4, 5172, Note_on_c, 0, 57, 75
4, 5240, Note_off_c, 0, 57, 0
4, 5368, Note_on_c, 0, 56, 83
4, 5588, Note_off_c, 0, 56, 0
4, 6156, Note_on_c, 0, 56, 72
4, 6388, Note_off_c, 0, 56, 0
4, 6428, Note_on_c, 0, 59, 72
4, 6508, Note_off_c, 0, 59, 0
4, 6532, Note_on_c, 0, 58, 82
4, 6608, Note_off_c, 0, 58, 0
4, 6708, Note_on_c, 0, 57, 75
4, 6776, Note_off_c, 0, 57, 0
4, 6904, Note_on_c, 0, 56, 83
4, 7124, Note_off_c, 0, 56, 0
4, 7692, Note_on_c, 0, 56, 72
4, 7924, Note_off_c, 0, 56, 0
4, 7964, Note_on_c, 0, 59, 72
4, 8044, Note_off_c, 0, 59, 0
4, 8068, Note_on_c, 0, 58, 82
4, 8144, Note_off_c, 0, 58, 0
4, 8244, Note_on_c, 0, 57, 75
4, 8312, Note_off_c, 0, 57, 0
4, 8440, Note_on_c, 0, 56, 83
4, 8660, Note_off_c, 0, 56, 0
4, 9228, Note_on_c, 0, 56, 72
4, 9460, Note_off_c, 0, 56, 0
4, 9500, Note_on_c, 0, 59, 72
4, 9580, Note_off_c, 0, 59, 0
4, 9604, Note_on_c, 0, 58, 82
4, 9680, Note_off_c, 0, 58, 0
4, 9780, Note_on_c, 0, 57, 75
4, 9848, Note_off_c, 0, 57, 0
4, 9976, Note_on_c, 0, 56, 83
4, 10196, Note_off_c, 0, 56, 0
4, 10764, Note_on_c, 0, 56, 72
4, 10996, Note_off_c, 0, 56, 0
4, 11036, Note_on_c, 0, 59, 72
4, 11116, Note_off_c, 0, 59, 0
4, 11140, Note_on_c, 0, 58, 82
4, 11216, Note_off_c, 0, 58, 0
4, 11316, Note_on_c, 0, 57, 75
4, 11384, Note_off_c, 0, 57, 0
4, 12300, Note_on_c, 0, 56, 72
4, 12532, Note_off_c, 0, 56, 0
4, 12572, Note_on_c, 0, 59, 72
4, 12652, Note_off_c, 0, 59, 0
4, 12676, Note_on_c, 0, 58, 82
4, 12752, Note_off_c, 0, 58, 0
4, 12852, Note_on_c, 0, 57, 75
4, 12920, Note_off_c, 0, 57, 0
4, 13048, Note_on_c, 0, 56, 83
4, 13268, Note_off_c, 0, 56, 0
4, 13836, Note_on_c, 0, 56, 72
4, 14068, Note_off_c, 0, 56, 0
4, 14108, Note_on_c, 0, 59, 72
4, 14188, Note_off_c, 0, 59, 0
4, 14212, Note_on_c, 0, 58, 82
4, 14288, Note_off_c, 0, 58, 0
4, 14388, Note_on_c, 0, 57, 75
4, 14456, Note_off_c, 0, 57, 0
4, 14584, Note_on_c, 0, 56, 83
4, 14804, Note_off_c, 0, 56, 0
4, 15372, Note_on_c, 0, 56, 72
4, 15604, Note_off_c, 0, 56, 0
4, 15644, Note_on_c, 0, 59, 72
4, 15724, Note_off_c, 0, 59, 0
4, 15748, Note_on_c, 0, 58, 82
4, 15824, Note_off_c, 0, 58, 0
4, 15924, Note_on_c, 0, 57, 75
4, 15992, Note_off_c, 0, 57, 0
4, 16120, Note_on_c, 0, 56, 83
4, 16340, Note_off_c, 0, 56, 0
4, 16908, Note_on_c, 0, 56, 72
4, 17140, Note_off_c, 0, 56, 0
4, 17180, Note_on_c, 0, 59, 72
4, 17260, Note_off_c, 0, 59, 0
4, 17284, Note_on_c, 0, 58, 82
4, 17360, Note_off_c, 0, 58, 0
4, 17460, Note_on_c, 0, 57, 75
4, 17528, Note_off_c, 0, 57, 0
4, 17656, Note_on_c, 0, 56, 83
4, 17876, Note_off_c, 0, 56, 0
4, 18444, Note_on_c, 0, 56, 72
4, 18676, Note_off_c, 0, 56, 0
4, 18716, Note_on_c, 0, 59, 72
4, 18796, Note_off_c, 0, 59, 0
4, 18820, Note_on_c, 0, 58, 82
4, 18896, Note_off_c, 0, 58, 0
4, 18996, Note_on_c, 0, 57, 75
4, 19064, Note_off_c, 0, 57, 0
4, 19192, Note_on_c, 0, 56, 83
4, 19412, Note_off_c, 0, 56, 0
4, 19980, Note_on_c, 0, 56, 72
4, 20212, Note_off_c, 0, 56, 0
4, 20252, Note_on_c, 0, 59, 72
4, 20332, Note_off_c, 0, 59, 0
4, 20356, Note_on_c, 0, 58, 82
4, 20432, Note_off_c, 0, 58, 0
4, 20532, Note_on_c, 0, 57, 75
4, 20600, Note_off_c, 0, 57, 0
4, 20728, Note_on_c, 0, 56, 83
4, 20948, Note_off_c, 0, 56, 0
4, 21516, Note_on_c, 0, 56, 72
4, 21748, Note_off_c, 0, 56, 0
4, 21788, Note_on_c, 0, 59, 72
4, 21868, Note_off_c, 0, 59, 0
4, 21892, Note_on_c, 0, 58, 82
4, 21968, Note_off_c, 0, 58, 0
4, 22068, Note_on_c, 0, 57, 75
4, 22136, Note_off_c, 0, 57, 0
4, 22264, Note_on_c, 0, 56, 83
4, 22484, Note_off_c, 0, 56, 0
4, 23052, Note_on_c, 0, 56, 72
4, 23284, Note_off_c, 0, 56, 0
4, 23324, Note_on_c, 0, 59, 72
4, 23404, Note_off_c, 0, 59, 0
4, 23428, Note_on_c, 0, 58, 82
4, 23504, Note_off_c, 0, 58, 0
4, 23604, Note_on_c, 0, 57, 75
4, 23672, Note_off_c, 0, 57, 0
4, 24588, Note_on_c, 0, 56, 72
4, 24820, Note_off_c, 0, 56, 0
4, 24860, Note_on_c, 0, 59, 72
4, 24940, Note_off_c, 0, 59, 0
4, 24964, Note_on_c, 0, 58, 82
4, 25040, Note_off_c, 0, 58, 0
4, 25140, Note_on_c, 0, 57, 75
4, 25208, Note_off_c, 0, 57, 0
4, 25336, Note_on_c, 0, 56, 83
4, 25556, Note_off_c, 0, 56, 0
4, 26124, Note_on_c, 0, 56, 72
4, 26356, Note_off_c, 0, 56, 0
4, 26396, Note_on_c, 0, 59, 72
4, 26476, Note_off_c, 0, 59, 0
4, 26500, Note_on_c, 0, 58, 82
4, 26576, Note_off_c, 0, 58, 0
4, 26676, Note_on_c, 0, 57, 75
4, 26744, Note_off_c, 0, 57, 0
4, 26872, Note_on_c, 0, 56, 83
4, 27092, Note_off_c, 0, 56, 0
4, 27660, Note_on_c, 0, 56, 72
4, 27892, Note_off_c, 0, 56, 0
4, 27932, Note_on_c, 0, 59, 72
4, 28012, Note_off_c, 0, 59, 0
4, 28036, Note_on_c, 0, 58, 82
4, 28112, Note_off_c, 0, 58, 0
4, 28212, Note_on_c, 0, 57, 75
4, 28280, Note_off_c, 0, 57, 0
4, 28408, Note_on_c, 0, 56, 83
4, 28628, Note_off_c, 0, 56, 0
4, 29196, Note_on_c, 0, 56, 72
4, 29428, Note_off_c, 0, 56, 0
4, 29468, Note_on_c, 0, 59, 72
4, 29548, Note_off_c, 0, 59, 0
4, 29572, Note_on_c, 0, 58, 82
4, 29648, Note_off_c, 0, 58, 0
4, 29748, Note_on_c, 0, 57, 75
4, 29816, Note_off_c, 0, 57, 0
4, 29944, Note_on_c, 0, 56, 83
4, 30164, Note_off_c, 0, 56, 0
4, 30732, Note_on_c, 0, 56, 72
4, 30964, Note_off_c, 0, 56, 0
4, 31004, Note_on_c, 0, 59, 72
4, 31084, Note_off_c, 0, 59, 0
4, 31108, Note_on_c, 0, 58, 82
4, 31184, Note_off_c, 0, 58, 0
4, 31284, Note_on_c, 0, 57, 75
4, 31352, Note_off_c, 0, 57, 0
4, 31480, Note_on_c, 0, 56, 83
4, 31700, Note_off_c, 0, 56, 0
4, 32268, Note_on_c, 0, 56, 72
4, 32500, Note_off_c, 0, 56, 0
4, 32540, Note_on_c, 0, 59, 72
4, 32620, Note_off_c, 0, 59, 0
4, 32644, Note_on_c, 0, 58, 82
4, 32720, Note_off_c, 0, 58, 0
4, 32820, Note_on_c, 0, 57, 75
4, 32888, Note_off_c, 0, 57, 0
4, 33016, Note_on_c, 0, 56, 83
4, 33236, Note_off_c, 0, 56, 0
4, 33804, Note_on_c, 0, 56, 72
4, 34036, Note_off_c, 0, 56, 0
4, 34076, Note_on_c, 0, 59, 72
4, 34156, Note_off_c, 0, 59, 0
4, 34180, Note_on_c, 0, 58, 82
4, 34256, Note_off_c, 0, 58, 0
4, 34356, Note_on_c, 0, 57, 75
4, 34424, Note_off_c, 0, 57, 0
4, 34552, Note_on_c, 0, 56, 83
4, 34772, Note_off_c, 0, 56, 0
4, 35340, Note_on_c, 0, 56, 72
4, 35572, Note_off_c, 0, 56, 0
4, 35612, Note_on_c, 0, 59, 72
4, 35692, Note_off_c, 0, 59, 0
4, 35716, Note_on_c, 0, 58, 82
4, 35792, Note_off_c, 0, 58, 0
4, 35892, Note_on_c, 0, 57, 75
4, 35960, Note_off_c, 0, 57, 0
4, 35960, End_track
5, 0, Start_track
5, 0, Control_c, 1, 0, 0
5, 0, Program_c, 1, 0
5, 0, Control_c, 1, 7, 100
5, 288, Note_on_c, 1, 95, 74
5, 300, Note_on_c, 1, 83, 75
5, 348, Note_off_c, 1, 95, 0
5, 348, Note_off_c, 1, 83, 0
5, 392, Note_on_c, 1, 94, 81
5, 392, Note_on_c, 1, 82, 93
5, 440, Note_off_c, 1, 94, 0
5, 444, Note_off_c, 1, 82, 0
5, 568, Note_on_c, 1, 81, 78
5, 580, Note_on_c, 1, 93, 80
5, 612, Note_off_c, 1, 81, 0
5, 628, Note_off_c, 1, 93, 0
5, 756, Note_on_c, 1, 92, 84
5, 768, Note_on_c, 1, 80, 100
5, 984, Note_off_c, 1, 92, 0
5, 1024, Note_off_c, 1, 80, 100
5, 1824, Note_on_c, 1, 95, 74
5, 1836, Note_on_c, 1, 83, 75
5, 1884, Note_off_c, 1, 95, 0
5, 1884, Note_off_c, 1, 83, 0
5, 1928, Note_on_c, 1, 94, 81
5, 1928, Note_on_c, 1, 82, 93
5, 1976, Note_off_c, 1, 94, 0
5, 1980, Note_off_c, 1, 82, 0
5, 2104, Note_on_c, 1, 81, 78
5, 2116, Note_on_c, 1, 93, 80
5, 2148, Note_off_c, 1, 81, 0
5, 2164, Note_off_c, 1, 93, 0
5, 2292, Note_on_c, 1, 92, 84
5, 2304, Note_on_c, 1, 80, 100
5, 2520, Note_off_c, 1, 92, 0
5, 2560, Note_off_c, 1, 80, 100
5, 3360, Note_on_c, 1, 95, 74
5, 3372, Note_on_c, 1, 83, 75
5, 3420, Note_off_c, 1, 95, 0
5, 3420, Note_off_c, 1, 83, 0
5, 3464, Note_on_c, 1, 94, 81
5, 3464, Note_on_c, 1, 82, 93
5, 3512, Note_off_c, 1, 94, 0
5, 3516, Note_off_c, 1, 82, 0
5, 3640, Note_on_c, 1, 81, 78
5, 3652, Note_on_c, 1, 93, 80
5, 3684, Note_off_c, 1, 81, 0
5, 3700, Note_off_c, 1, 93, 0
5, 3828, Note_on_c, 1, 92, 84
5, 3840, Note_on_c, 1, 80, 100
5, 4056, Note_off_c, 1, 92, 0
5, 4096, Note_off_c, 1, 80, 100
5, 4896, Note_on_c, 1, 95, 74
5, 4908, Note_on_c, 1, 83, 75
5, 4956, Note_off_c, 1, 95, 0
5, 4956, Note_off_c, 1, 83, 0
5, 5000, Note_on_c, 1, 94, 81
5, 5000, Note_on_c, 1, 82, 93
5, 5048, Note_off_c, 1, 94, 0
5, 5052, Note_off_c, 1, 82, 0
5, 5176, Note_on_c, 1, 81, 78
5, 5188, Note_on_c, 1, 93, 80
5, 5220, Note_off_c, 1, 81, 0
5, 5236, Note_off_c, 1, 93, 0
5, 5364, Note_on_c, 1, 92, 84
5, 5376, Note_on_c, 1, 80, 100
5, 5592, Note_off_c, 1, 92, 0
5, 5632, Note_off_c, 1, 80, 100
5, 6432, Note_on_c, 1, 95, 74
5, 6444, Note_on_c, 1, 83, 75
5, 6492, Note_off_c, 1, 95, 0
5, 6492, Note_off_c, 1, 83, 0
5, 6536, Note_on_c, 1, 94, 81
5, 6536, Note_on_c, 1, 82, 93
5, 6584, Note_off_c, 1, 94, 0
5, 6588, Note_off_c, 1, 82, 0
5, 6712, Note_on_c, 1, 81, 78
5, 6724, Note_on_c, 1, 93, 80
5, 6756, Note_off_c, 1, 81, 0
5, 6772, Note_off_c, 1, 93, 0
5, 6900, Note_on_c, 1, 92, 84
5, 6912, Note_on_c, 1, 80, 100
5, 7128, Note_off_c, 1, 92, 0
5, 7168, Note_off_c, 1, 80, 100
5, 7968, Note_on_c, 1, 95, 74
5, 7980, Note_on_c, 1, 83, 75
5, 8028, Note_off_c, 1, 95, 0
5, 8028, Note_off_c, 1, 83, 0
5, 8072, Note_on_c, 1, 94, 81
5, 8072, Note_on_c, 1, 82, 93
5, 8120, Note_off_c, 1, 94, 0
5, 8124, Note_off_c, 1, 82, 0
5, 8248, Note_on_c, 1, 81, 78
5, 8260, Note_on_c, 1, 93, 80
5, 8292, Note_off_c, 1, 81, 0
5, 8308, Note_off_c, 1, 93, 0
5, 8436, Note_on_c, 1, 92, 84
5, 8448, Note_on_c, 1, 80, 100
5, 8664, Note_off_c, 1, 92, 0
5, 8704, Note_off_c, 1, 80, 100
5, 9504, Note_on_c, 1, 95, 74
5, 9516, Note_on_c, 1, 83, 75
5, 9564, Note_off_c, 1, 95, 0
5, 9564, Note_off_c, 1, 83, 0
5, 9608, Note_on_c, 1, 94, 81
5, 9608, Note_on_c, 1, 82, 93
5, 9656, Note_off_c, 1, 94, 0
5, 9660, Note_off_c, 1, 82, 0
5, 9784, Note_on_c, 1, 81, 78
5, 9796, Note_on_c, 1, 93, 80
5, 9828, Note_off_c, 1, 81, 0
5, 9844, Note_off_c, 1, 93, 0
5, 9972, Note_on_c, 1, 92, 84
5, 9984, Note_on_c, 1, 80, 100
5, 10200, Note_off_c, 1, 92, 0
5, 10240, Note_off_c, 1, 80, 100
5, 11040, Note_on_c, 1, 95, 74
5, 11052, Note_on_c, 1, 83, 75
5, 11100, Note_off_c, 1, 95, 0
5, 11100, Note_off_c, 1, 83, 0
5, 11144, Note_on_c, 1, 94, 81
5, 11144, Note_on_c, 1, 82, 93
5, 11192, Note_off_c, 1, 94, 0
5, 11196, Note_off_c, 1, 82, 0
5, 11320, Note_on_c, 1, 81, 78
5, 11332, Note_on_c, 1, 93, 80
5, 11364, Note_off_c, 1, 81, 0
5, 11380, Note_off_c, 1, 93, 0
5, 11520, Note_on_c, 1, 39, 100
5, 12196, Note_on_c, 1, 80, 76
5, 12236, Note_on_c, 1, 87, 77
5, 12276, Note_off_c, 1, 80, 0
5, 12288, Note_off_c, 1, 39, 100
5, 12288, Note_on_c, 1, 92, 100
5, 12308, Note_off_c, 1, 87, 0
5, 12352, Note_off_c, 1, 92, 100
5, 12576, Note_on_c, 1, 95, 74
5, 12588, Note_on_c, 1, 83, 75
5, 12636, Note_off_c, 1, 95, 0
5, 12636, Note_off_c, 1, 83, 0
5, 12680, Note_on_c, 1, 94, 81
5, 12680, Note_on_c, 1, 82, 93
5, 12728, Note_off_c, 1, 94, 0
5, 12732, Note_off_c, 1, 82, 0
5, 12856, Note_on_c, 1, 81, 78
5, 12868, Note_on_c, 1, 93, 80
5, 12900, Note_off_c, 1, 81, 0
5, 12916, Note_off_c, 1, 93, 0
5, 13044, Note_on_c, 1, 92, 84
5, 13056, Note_on_c, 1, 80, 100
5, 13272, Note_off_c, 1, 92, 0
5, 13312, Note_off_c, 1, 80, 100
5, 14112, Note_on_c, 1, 95, 74
5, 14124, Note_on_c, 1, 83, 75
5, 14172, Note_off_c, 1, 95, 0
5, 14172, Note_off_c, 1, 83, 0
5, 14216, Note_on_c, 1, 94, 81
5, 14216, Note_on_c, 1, 82, 93
5, 14264, Note_off_c, 1, 94, 0
5, 14268, Note_off_c, 1, 82, 0
5, 14392, Note_on_c, 1, 81, 78
5, 14404, Note_on_c, 1, 93, 80
5, 14436, Note_off_c, 1, 81, 0
5, 14452, Note_off_c, 1, 93, 0
5, 14580, Note_on_c, 1, 92, 84
5, 14592, Note_on_c, 1, 80, 100
5, 14808, Note_off_c, 1, 92, 0
5, 14848, Note_off_c, 1, 80, 100
5, 15648, Note_on_c, 1, 95, 74
5, 15660, Note_on_c, 1, 83, 75
5, 15708, Note_off_c, 1, 95, 0
5, 15708, Note_off_c, 1, 83, 0
5, 15752, Note_on_c, 1, 94, 81
5, 15752, Note_on_c, 1, 82, 93
5, 15800, Note_off_c, 1, 94, 0
5, 15804, Note_off_c, 1, 82, 0
5, 15928, Note_on_c, 1, 81, 78
5, 15940, Note_on_c, 1, 93, 80
5, 15972, Note_off_c, 1, 81, 0
5, 15988, Note_off_c, 1, 93, 0
5, 16116, Note_on_c, 1, 92, 84
5, 16128, Note_on_c, 1, 80, 100
5, 16344, Note_off_c, 1, 92, 0
5, 16384, Note_off_c, 1, 80, 100
5, 17184, Note_on_c, 1, 95, 74
5, 17196, Note_on_c, 1, 83, 75
5, 17244, Note_off_c, 1, 95, 0
5, 17244, Note_off_c, 1, 83, 0
5, 17288, Note_on_c, 1, 94, 81
5, 17288, Note_on_c, 1, 82, 93
5, 17336, Note_off_c, 1, 94, 0
5, 17340, Note_off_c, 1, 82, 0
5, 17464, Note_on_c, 1, 81, 78
5, 17476, Note_on_c, 1, 93, 80
5, 17508, Note_off_c, 1, 81, 0
5, 17524, Note_off_c, 1, 93, 0
5, 17652, Note_on_c, 1, 92, 84
5, 17664, Note_on_c, 1, 80, 100
5, 17880, Note_off_c, 1, 92, 0
5, 17920, Note_off_c, 1, 80, 100
5, 18720, Note_on_c, 1, 95, 74
5, 18732, Note_on_c, 1, 83, 75
5, 18780, Note_off_c, 1, 95, 0
5, 18780, Note_off_c, 1, 83, 0
5, 18824, Note_on_c, 1, 94, 81
5, 18824, Note_on_c, 1, 82, 93
5, 18872, Note_off_c, 1, 94, 0
5, 18876, Note_off_c, 1, 82, 0
5, 19000, Note_on_c, 1, 81, 78
5, 19012, Note_on_c, 1, 93, 80
5, 19044, Note_off_c, 1, 81, 0
5, 19060, Note_off_c, 1, 93, 0
5, 19188, Note_on_c, 1, 92, 84
5, 19200, Note_on_c, 1, 80, 100
5, 19416, Note_off_c, 1, 92, 0
5, 19456, Note_off_c, 1, 80, 100
5, 20256, Note_on_c, 1, 95, 74
5, 20268, Note_on_c, 1, 83, 75
5, 20316, Note_off_c, 1, 95, 0
5, 20316, Note_off_c, 1, 83, 0
5, 20360, Note_on_c, 1, 94, 81
5, 20360, Note_on_c, 1, 82, 93
5, 20408, Note_off_c, 1, 94, 0
5, 20412, Note_off_c, 1, 82, 0
5, 20536, Note_on_c, 1, 81, 78
5, 20548, Note_on_c, 1, 93, 80
5, 20580, Note_off_c, 1, 81, 0
5, 20596, Note_off_c, 1, 93, 0
5, 20724, Note_on_c, 1, 92, 84
5, 20736, Note_on_c, 1, 80, 100
5, 20952, Note_off_c, 1, 92, 0
5, 20992, Note_off_c, 1, 80, 100
5, 21792, Note_on_c, 1, 95, 74
5, 21804, Note_on_c, 1, 83, 75
5, 21852, Note_off_c, 1, 95, 0
5, 21852, Note_off_c, 1, 83, 0
5, 21896, Note_on_c, 1, 94, 81
5, 21896, Note_on_c, 1, 82, 93
5, 21944, Note_off_c, 1, 94, 0
5, 21948, Note_off_c, 1, 82, 0
5, 22072, Note_on_c, 1, 81, 78
5, 22084, Note_on_c, 1, 93, 80
5, 22116, Note_off_c, 1, 81, 0
5, 22132, Note_off_c, 1, 93, 0
5, 22260, Note_on_c, 1, 92, 84
5, 22272, Note_on_c, 1, 80, 100
5, 22488, Note_off_c, 1, 92, 0
5, 22528, Note_off_c, 1, 80, 100
5, 23328, Note_on_c, 1, 95, 74
5, 23340, Note_on_c, 1, 83, 75
5, 23388, Note_off_c, 1, 95, 0
5, 23388, Note_off_c, 1, 83, 0
5, 23432, Note_on_c, 1, 94, 81
5, 23432, Note_on_c, 1, 82, 93
5, 23480, Note_off_c, 1, 94, 0
5, 23484, Note_off_c, 1, 82, 0
5, 23608, Note_on_c, 1, 81, 78
5, 23620, Note_on_c, 1, 93, 80
5, 23652, Note_off_c, 1, 81, 0
5, 23668, Note_off_c, 1, 93, 0
5, 23808, Note_on_c, 1, 39, 100
5, 24484, Note_on_c, 1, 80, 76
5, 24524, Note_on_c, 1, 87, 77
5, 24564, Note_off_c, 1, 80, 0
5, 24576, Note_off_c, 1, 39, 100
5, 24576, Note_on_c, 1, 92, 100
5, 24596, Note_off_c, 1, 87, 0
5, 24640, Note_off_c, 1, 92, 100
5, 24864, Note_on_c, 1, 95, 74
5, 24876, Note_on_c, 1, 83, 75
5, 24924, Note_off_c, 1, 95, 0
5, 24924, Note_off_c, 1, 83, 0
5, 24968, Note_on_c, 1, 94, 81
5, 24968, Note_on_c, 1, 82, 93
5, 25016, Note_off_c, 1, 94, 0
5, 25020, Note_off_c, 1, 82, 0
5, 25144, Note_on_c, 1, 81, 78
5, 25156, Note_on_c, 1, 93, 80
5, 25188, Note_off_c, 1, 81, 0
5, 25204, Note_off_c, 1, 93, 0
5, 25332, Note_on_c, 1, 92, 84
5, 25344, Note_on_c, 1, 80, 100
5, 25560, Note_off_c, 1, 92, 0
5, 25600, Note_off_c, 1, 80, 100
5, 26400, Note_on_c, 1, 95, 74
5, 26412, Note_on_c, 1, 83, 75
5, 26460, Note_off_c, 1, 95, 0
5, 26460, Note_off_c, 1, 83, 0
5, 26504, Note_on_c, 1, 94, 81
5, 26504, Note_on_c, 1, 82, 93
5, 26552, Note_off_c, 1, 94, 0
5, 26556, Note_off_c, 1, 82, 0
5, 26680, Note_on_c, 1, 81, 78
5, 26692, Note_on_c, 1, 93, 80
5, 26724, Note_off_c, 1, 81, 0
5, 26740, Note_off_c, 1, 93, 0
5, 26868, Note_on_c, 1, 92, 84
5, 26880, Note_on_c, 1, 80, 100
5, 27096, Note_off_c, 1, 92, 0
5, 27136, Note_off_c, 1, 80, 100
5, 27936, Note_on_c, 1, 95, 74
5, 27948, Note_on_c, 1, 83, 75
5, 27996, Note_off_c, 1, 95, 0
5, 27996, Note_off_c, 1, 83, 0
5, 28040, Note_on_c, 1, 94, 81
5, 28040, Note_on_c, 1, 82, 93
5, 28088, Note_off_c, 1, 94, 0
5, 28092, Note_off_c, 1, 82, 0
5, 28216, Note_on_c, 1, 81, 78
5, 28228, Note_on_c, 1, 93, 80
5, 28260, Note_off_c, 1, 81, 0
5, 28276, Note_off_c, 1, 93, 0
5, 28404, Note_on_c, 1, 92, 84
5, 28416, Note_on_c, 1, 80, 100
5, 28632, Note_off_c, 1, 92, 0
5, 28672, Note_off_c, 1, 80, 100
5, 29472, Note_on_c, 1, 95, 74
5, 29484, Note_on_c, 1, 83, 75
5, 29532, Note_off_c, 1, 95, 0
5, 29532, Note_off_c, 1, 83, 0
5, 29576, Note_on_c, 1, 94, 81
5, 29576, Note_on_c, 1, 82, 93
5, 29624, Note_off_c, 1, 94, 0
5, 29628, Note_off_c, 1, 82, 0
5, 29752, Note_on_c, 1, 81, 78
5, 29764, Note_on_c, 1, 93, 80
5, 29796, Note_off_c, 1, 81, 0
5, 29812, Note_off_c, 1, 93, 0
5, 29940, Note_on_c, 1, 92, 84
5, 29952, Note_on_c, 1, 80, 100
5, 30168, Note_off_c, 1, 92, 0
5, 30208, Note_off_c, 1, 80, 100
5, 31008, Note_on_c, 1, 95, 74
5, 31020, Note_on_c, 1, 83, 75
5, 31068, Note_off_c, 1, 95, 0
5, 31068, Note_off_c, 1, 83, 0
5, 31112, Note_on_c, 1, 94, 81
5, 31112, Note_on_c, 1, 82, 93
5, 31160, Note_off_c, 1, 94, 0
5, 31164, Note_off_c, 1, 82, 0
5, 31288, Note_on_c, 1, 81, 78
5, 31300, Note_on_c, 1, 93, 80
5, 31332, Note_off_c, 1, 81, 0
5, 31348, Note_off_c, 1, 93, 0
5, 31476, Note_on_c, 1, 92, 84
5, 31488, Note_on_c, 1, 80, 100
5, 31704, Note_off_c, 1, 92, 0
5, 31744, Note_off_c, 1, 80, 100
5, 32544, Note_on_c, 1, 95, 74
5, 32556, Note_on_c, 1, 83, 75
5, 32604, Note_off_c, 1, 95, 0
5, 32604, Note_off_c, 1, 83, 0
5, 32648, Note_on_c, 1, 94, 81
5, 32648, Note_on_c, 1, 82, 93
5, 32696, Note_off_c, 1, 94, 0
5, 32700, Note_off_c, 1, 82, 0
5, 32824, Note_on_c, 1, 81, 78
5, 32836, Note_on_c, 1, 93, 80
5, 32868, Note_off_c, 1, 81, 0
5, 32884, Note_off_c, 1, 93, 0
5, 33012, Note_on_c, 1, 92, 84
5, 33024, Note_on_c, 1, 80, 100
5, 33240, Note_off_c, 1, 92, 0
5, 33280, Note_off_c, 1, 80, 100
5, 34080, Note_on_c, 1, 95, 74
5, 34092, Note_on_c, 1, 83, 75
5, 34140, Note_off_c, 1, 95, 0
5, 34140, Note_off_c, 1, 83, 0
5, 34184, Note_on_c, 1, 94, 81
5, 34184, Note_on_c, 1, 82, 93
5, 34232, Note_off_c, 1, 94, 0
5, 34236, Note_off_c, 1, 82, 0
5, 34360, Note_on_c, 1, 81, 78
5, 34372, Note_on_c, 1, 93, 80
5, 34404, Note_off_c, 1, 81, 0
5, 34420, Note_off_c, 1, 93, 0
5, 34548, Note_on_c, 1, 92, 84
5, 34560, Note_on_c, 1, 80, 100
5, 34776, Note_off_c, 1, 92, 0
5, 34816, Note_off_c, 1, 80, 100
5, 35616, Note_on_c, 1, 95, 74
5, 35628, Note_on_c, 1, 83, 75
5, 35676, Note_off_c, 1, 95, 0
5, 35676, Note_off_c, 1, 83, 0
5, 35720, Note_on_c, 1, 94, 81
5, 35720, Note_on_c, 1, 82, 93
5, 35768, Note_off_c, 1, 94, 0
5, 35772, Note_off_c, 1, 82, 0
5, 35896, Note_on_c, 1, 81, 78
5, 35908, Note_on_c, 1, 93, 80
5, 35940, Note_off_c, 1, 81, 0
5, 35956, Note_off_c, 1, 93, 0
5, 36096, Note_on_c, 1, 39, 100
5, 36772, Note_on_c, 1, 80, 76
5, 36812, Note_on_c, 1, 87, 77
5, 36852, Note_off_c, 1, 80, 0
5, 36864, Note_off_c, 1, 39, 100
5, 36864, Note_on_c, 1, 92, 100
5, 36884, Note_off_c, 1, 87, 0
5, 36928, Note_off_c, 1, 92, 100
5, 36928, End_track
6, 0, Start_track
6, 0, Control_c, 2, 0, 0
6, 0, Program_c, 2, 25
6, 0, Control_c, 2, 7, 100
6, 0, Control_c, 2, 10, 59
6, 1036, Note_on_c, 2, 71, 72
6, 1096, Note_off_c, 2, 71, 0
6, 1144, Note_on_c, 2, 70, 78
6, 1192, Note_off_c, 2, 70, 0
6, 1336, Note_on_c, 2, 69, 82
6, 1380, Note_off_c, 2, 69, 0
6, 1528, Note_on_c, 2, 68, 83
6, 1820, Note_off_c, 2, 68, 0
6, 4108, Note_on_c, 2, 71, 72
6, 4168, Note_off_c, 2, 71, 0
6, 4216, Note_on_c, 2, 70, 78
6, 4264, Note_off_c, 2, 70, 0
6, 4408, Note_on_c, 2, 69, 82
6, 4452, Note_off_c, 2, 69, 0
6, 4600, Note_on_c, 2, 68, 83
6, 4892, Note_off_c, 2, 68, 0
6, 7180, Note_on_c, 2, 71, 72
6, 7240, Note_off_c, 2, 71, 0
6, 7288, Note_on_c, 2, 70, 78
6, 7336, Note_off_c, 2, 70, 0
6, 7480, Note_on_c, 2, 69, 82
6, 7524, Note_off_c, 2, 69, 0
6, 7672, Note_on_c, 2, 68, 83
6, 7964, Note_off_c, 2, 68, 0
6, 10252, Note_on_c, 2, 71, 72
6, 10312, Note_off_c, 2, 71, 0
6, 10360, Note_on_c, 2, 70, 78
6, 10408, Note_off_c, 2, 70, 0
6, 10552, Note_on_c, 2, 69, 82
6, 10596, Note_off_c, 2, 69, 0
6, 10744, Note_on_c, 2, 68, 83
6, 11036, Note_off_c, 2, 68, 0
6, 11712, Note_on_c, 2, 75, 86
6, 11752, Note_off_c, 2, 75, 0
6, 11808, Note_on_c, 2, 76, 75
6, 11848, Note_off_c, 2, 76, 0
6, 11900, Note_on_c, 2, 78, 96
6, 11940, Pitch_bend_c, 2, 8448
6, 11944, Pitch_bend_c, 2, 8960
6, 11948, Pitch_bend_c, 2, 9344
6, 11952, Pitch_bend_c, 2, 9728
6, 11952, Pitch_bend_c, 2, 10176
6, 11956, Pitch_bend_c, 2, 10496
6, 11960, Pitch_bend_c, 2, 10688
6, 11964, Pitch_bend_c, 2, 10880
6, 11964, Pitch_bend_c, 2, 8576
6, 11968, Pitch_bend_c, 2, 10944
6, 11968, Pitch_bend_c, 2, 8960
6, 11972, Pitch_bend_c, 2, 10880
6, 11972, Pitch_bend_c, 2, 9280
6, 11976, Pitch_bend_c, 2, 10624
6, 11976, Pitch_bend_c, 2, 9408
6, 11976, Pitch_bend_c, 2, 9600
6, 11980, Pitch_bend_c, 2, 10304
6, 11980, Pitch_bend_c, 2, 9664
6, 11984, Pitch_bend_c, 2, 9920
6, 11984, Pitch_bend_c, 2, 9344
6, 11988, Pitch_bend_c, 2, 8512
6, 11992, Pitch_bend_c, 2, 8192
6, 11992, Pitch_bend_c, 2, 9600
6, 11996, Pitch_bend_c, 2, 9472
6, 12012, Pitch_bend_c, 2, 9600
6, 12016, Pitch_bend_c, 2, 9664
6, 12016, Pitch_bend_c, 2, 9792
6, 12020, Pitch_bend_c, 2, 9984
6, 12024, Pitch_bend_c, 2, 10240
6, 12024, Pitch_bend_c, 2, 10368
6, 12028, Pitch_bend_c, 2, 8256
6, 12028, Pitch_bend_c, 2, 8512
6, 12028, Pitch_bend_c, 2, 10624
6, 12032, Pitch_bend_c, 2, 8704
6, 12032, Pitch_bend_c, 2, 10816
6, 12036, Pitch_bend_c, 2, 8768
6, 12036, Pitch_bend_c, 2, 10944
6, 12040, Pitch_bend_c, 2, 8832
6, 12040, Pitch_bend_c, 2, 11136
6, 12040, Pitch_bend_c, 2, 11200
6, 12044, Pitch_bend_c, 2, 11264
6, 12048, Pitch_bend_c, 2, 8768
6, 12048, Pitch_bend_c, 2, 8704
6, 12052, Pitch_bend_c, 2, 8512
6, 12052, Pitch_bend_c, 2, 11200
6, 12056, Pitch_bend_c, 2, 8384
6, 12056, Pitch_bend_c, 2, 11008
6, 12056, Pitch_bend_c, 2, 10688
6, 12060, Pitch_bend_c, 2, 8192
6, 12060, Pitch_bend_c, 2, 10240
6, 12064, Pitch_bend_c, 2, 9408
6, 12068, Pitch_bend_c, 2, 8256
6, 12068, Pitch_bend_c, 2, 8192
6, 12072, Pitch_bend_c, 2, 8064
6, 12076, Pitch_bend_c, 2, 7808
6, 12076, Pitch_bend_c, 2, 7104
6, 12076, Pitch_bend_c, 2, 7360
6, 12080, Pitch_bend_c, 2, 6912
6, 12080, Pitch_bend_c, 2, 7232
6, 12080, Pitch_bend_c, 2, 7232
6, 12080, Pitch_bend_c, 2, 7616
6, 12084, Pitch_bend_c, 2, 7936
6, 12084, Pitch_bend_c, 2, 8192
6, 12088, Pitch_bend_c, 2, 8192
6, 12096, Note_off_c, 2, 78, 0
6, 12096, Note_on_c, 2, 76, 105
6, 12248, Note_off_c, 2, 76, 0
6, 13324, Note_on_c, 2, 71, 72
6, 13384, Note_off_c, 2, 71, 0
6, 13432, Note_on_c, 2, 70, 78
6, 13480, Note_off_c, 2, 70, 0
6, 13624, Note_on_c, 2, 69, 82
6, 13668, Note_off_c, 2, 69, 0
6, 13816, Note_on_c, 2, 68, 83
6, 14108, Note_off_c, 2, 68, 0
6, 16396, Note_on_c, 2, 71, 72
6, 16456, Note_off_c, 2, 71, 0
6, 16504, Note_on_c, 2, 70, 78
6, 16552, Note_off_c, 2, 70, 0
6, 16696, Note_on_c, 2, 69, 82
6, 16740, Note_off_c, 2, 69, 0
6, 16888, Note_on_c, 2, 68, 83
6, 17180, Note_off_c, 2, 68, 0
6, 19468, Note_on_c, 2, 71, 72
6, 19528, Note_off_c, 2, 71, 0
6, 19576, Note_on_c, 2, 70, 78
6, 19624, Note_off_c, 2, 70, 0
6, 19768, Note_on_c, 2, 69, 82
6, 19812, Note_off_c, 2, 69, 0
6, 19960, Note_on_c, 2, 68, 83
6, 20252, Note_off_c, 2, 68, 0
6, 22540, Note_on_c, 2, 71, 72
6, 22600, Note_off_c, 2, 71, 0
6, 22648, Note_on_c, 2, 70, 78
6, 22696, Note_off_c, 2, 70, 0
6, 22840, Note_on_c, 2, 69, 82
6, 22884, Note_off_c, 2, 69, 0
6, 23032, Note_on_c, 2, 68, 83
6, 23324, Note_off_c, 2, 68, 0
6, 24000, Note_on_c, 2, 75, 86
6, 24040, Note_off_c, 2, 75, 0
6, 24096, Note_on_c, 2, 76, 75
6, 24136, Note_off_c, 2, 76, 0
6, 24188, Note_on_c, 2, 78, 96
6, 24228, Pitch_bend_c, 2, 8448
6, 24232, Pitch_bend_c, 2, 8960
6, 24236, Pitch_bend_c, 2, 9344
6, 24240, Pitch_bend_c, 2, 9728
6, 24240, Pitch_bend_c, 2, 10176
6, 24244, Pitch_bend_c, 2, 10496
6, 24248, Pitch_bend_c, 2, 10688
6, 24252, Pitch_bend_c, 2, 10880
6, 24252, Pitch_bend_c, 2, 8576
6, 24256, Pitch_bend_c, 2, 10944
6, 24256, Pitch_bend_c, 2, 8960
6, 24260, Pitch_bend_c, 2, 10880
6, 24260, Pitch_bend_c, 2, 9280
6, 24264, Pitch_bend_c, 2, 10624
6, 24264, Pitch_bend_c, 2, 9408
6, 24264, Pitch_bend_c, 2, 9600
6, 24268, Pitch_bend_c, 2, 10304
6, 24268, Pitch_bend_c, 2, 9664
6, 24272, Pitch_bend_c, 2, 9920
6, 24272, Pitch_bend_c, 2, 9344
6, 24276, Pitch_bend_c, 2, 8512
6, 24280, Pitch_bend_c, 2, 8192
6, 24280, Pitch_bend_c, 2, 9600
6, 24284, Pitch_bend_c, 2, 9472
6, 24300, Pitch_bend_c, 2, 9600
6, 24304, Pitch_bend_c, 2, 9664
6, 24304, Pitch_bend_c, 2, 9792
6, 24308, Pitch_bend_c, 2, 9984
6, 24312, Pitch_bend_c, 2, 10240
6, 24312, Pitch_bend_c, 2, 10368
6, 24316, Pitch_bend_c, 2, 8256
6, 24316, Pitch_bend_c, 2, 8512
6, 24316, Pitch_bend_c, 2, 10624
6, 24320, Pitch_bend_c, 2, 8704
6, 24320, Pitch_bend_c, 2, 10816
6, 24324, Pitch_bend_c, 2, 8768
6, 24324, Pitch_bend_c, 2, 10944
6, 24328, Pitch_bend_c, 2, 8832
6, 24328, Pitch_bend_c, 2, 11136
6, 24328, Pitch_bend_c, 2, 11200
6, 24332, Pitch_bend_c, 2, 11264
6, 24336, Pitch_bend_c, 2, 8768
6, 24336, Pitch_bend_c, 2, 8704
6, 24340, Pitch_bend_c, 2, 8512
6, 24340, Pitch_bend_c, 2, 11200
6, 24344, Pitch_bend_c, 2, 8384
6, 24344, Pitch_bend_c, 2, 11008
6, 24344, Pitch_bend_c, 2, 10688
6, 24348, Pitch_bend_c, 2, 8192
6, 24348, Pitch_bend_c, 2, 10240
6, 24352, Pitch_bend_c, 2, 9408
6, 24356, Pitch_bend_c, 2, 8256
6, 24356, Pitch_bend_c, 2, 8192
6, 24360, Pitch_bend_c, 2, 8064
6, 24364, Pitch_bend_c, 2, 7808
6, 24364, Pitch_bend_c, 2, 7104
6, 24364, Pitch_bend_c, 2, 7360
6, 24368, Pitch_bend_c, 2, 6912
6, 24368, Pitch_bend_c, 2, 7232
6, 24368, Pitch_bend_c, 2, 7232
6, 24368, Pitch_bend_c, 2, 7616
6, 24372, Pitch_bend_c, 2, 7936
6, 24372, Pitch_bend_c, 2, 8192
6, 24376, Pitch_bend_c, 2, 8192
6, 24384, Note_off_c, 2, 78, 0
6, 24384, Note_on_c, 2, 76, 105
6, 24536, Note_off_c, 2, 76, 0
6, 25612, Note_on_c, 2, 71, 72
6, 25672, Note_off_c, 2, 71, 0
6, 25720, Note_on_c, 2, 70, 78
6, 25768, Note_off_c, 2, 70, 0
6, 25912, Note_on_c, 2, 69, 82
6, 25956, Note_off_c, 2, 69, 0
6, 26104, Note_on_c, 2, 68, 83
6, 26396, Note_off_c, 2, 68, 0
6, 28684, Note_on_c, 2, 71, 72
6, 28744, Note_off_c, 2, 71, 0
6, 28792, Note_on_c, 2, 70, 78
6, 28840, Note_off_c, 2, 70, 0
6, 28984, Note_on_c, 2, 69, 82
6, 29028, Note_off_c, 2, 69, 0
6, 29176, Note_on_c, 2, 68, 83
6, 29468, Note_off_c, 2, 68, 0
6, 31756, Note_on_c, 2, 71, 72
6, 31816, Note_off_c, 2, 71, 0
6, 31864, Note_on_c, 2, 70, 78
6, 31912, Note_off_c, 2, 70, 0
6, 32056, Note_on_c, 2, 69, 82
6, 32100, Note_off_c, 2, 69, 0
6, 32248, Note_on_c, 2, 68, 83
6, 32540, Note_off_c, 2, 68, 0
6, 34828, Note_on_c, 2, 71, 72
6, 34888, Note_off_c, 2, 71, 0
6, 34936, Note_on_c, 2, 70, 78
6, 34984, Note_off_c, 2, 70, 0
6, 35128, Note_on_c, 2, 69, 82
6, 35172, Note_off_c, 2, 69, 0
6, 35320, Note_on_c, 2, 68, 83
6, 35612, Note_off_c, 2, 68, 0
6, 36288, Note_on_c, 2, 75, 86
6, 36328, Note_off_c, 2, 75, 0
6, 36384, Note_on_c, 2, 76, 75
6, 36424, Note_off_c, 2, 76, 0
6, 36476, Note_on_c, 2, 78, 96
6, 36516, Pitch_bend_c, 2, 8448
6, 36520, Pitch_bend_c, 2, 8960
6, 36524, Pitch_bend_c, 2, 9344
6, 36528, Pitch_bend_c, 2, 9728
6, 36528, Pitch_bend_c, 2, 10176
6, 36532, Pitch_bend_c, 2, 10496
6, 36536, Pitch_bend_c, 2, 10688
6, 36540, Pitch_bend_c, 2, 10880
6, 36540, Pitch_bend_c, 2, 8576
6, 36544, Pitch_bend_c, 2, 10944
6, 36544, Pitch_bend_c, 2, 8960
6, 36548, Pitch_bend_c, 2, 10880
6, 36548, Pitch_bend_c, 2, 9280
6, 36552, Pitch_bend_c, 2, 10624
6, 36552, Pitch_bend_c, 2, 9408
6, 36552, Pitch_bend_c, 2, 9600
6, 36556, Pitch_bend_c, 2, 10304
6, 36556, Pitch_bend_c, 2, 9664
6, 36560, Pitch_bend_c, 2, 9920
6, 36560, Pitch_bend_c, 2, 9344
6, 36564, Pitch_bend_c, 2, 8512
6, 36568, Pitch_bend_c, 2, 8192
6, 36568, Pitch_bend_c, 2, 9600
6, 36572, Pitch_bend_c, 2, 9472
6, 36588, Pitch_bend_c, 2, 9600
6, 36592, Pitch_bend_c, 2, 9664
6, 36592, Pitch_bend_c, 2, 9792
6, 36596, Pitch_bend_c, 2, 9984
6, 36600, Pitch_bend_c, 2, 10240
6, 36600, Pitch_bend_c, 2, 10368
6, 36604, Pitch_bend_c, 2, 8256
6, 36604, Pitch_bend_c, 2, 8512
6, 36604, Pitch_bend_c, 2, 10624
6, 36608, Pitch_bend_c, 2, 8704
6, 36608, Pitch_bend_c, 2, 10816
6, 36612, Pitch_bend_c, 2, 8768
6, 36612, Pitch_bend_c, 2, 10944
6, 36616, Pitch_bend_c, 2, 8832
6, 36616, Pitch_bend_c, 2, 11136
6, 36616, Pitch_bend_c, 2, 11200
6, 36620, Pitch_bend_c, 2, 11264
6, 36624, Pitch_bend_c, 2, 8768
6, 36624, Pitch_bend_c, 2, 8704
6, 36628, Pitch_bend_c, 2, 8512
6, 36628, Pitch_bend_c, 2, 11200
6, 36632, Pitch_bend_c, 2, 8384
6, 36632, Pitch_bend_c, 2, 11008
6, 36632, Pitch_bend_c, 2, 10688
6, 36636, Pitch_bend_c, 2, 8192
6, 36636, Pitch_bend_c, 2, 10240
6, 36640, Pitch_bend_c, 2, 9408
6, 36644, Pitch_bend_c, 2, 8256
6, 36644, Pitch_bend_c, 2, 8192
6, 36648, Pitch_bend_c, 2, 8064
6, 36652, Pitch_bend_c, 2, 7808
6, 36652, Pitch_bend_c, 2, 7104
6, 36652, Pitch_bend_c, 2, 7360
6, 36656, Pitch_bend_c, 2, 6912
6, 36656, Pitch_bend_c, 2, 7232
6, 36656, Pitch_bend_c, 2, 7232
6, 36656, Pitch_bend_c, 2, 7616
6, 36660, Pitch_bend_c, 2, 7936
6, 36660, Pitch_bend_c, 2, 8192
6, 36664, Pitch_bend_c, 2, 8192
6, 36672, Note_off_c, 2, 78, 0
6, 36672, Note_on_c, 2, 76, 105
6, 36824, Note_off_c, 2, 76, 0
6, 36824, End_track
7, 0, Start_track
7, 0, Control_c, 3, 0, 0
7, 0, Program_c, 3, 72
7, 0, Control_c, 3, 7, 100
7, 2392, Note_on_c, 3, 87, 71
7, 2440, Note_off_c, 3, 87, 0
7, 2496, Note_on_c, 3, 92, 73
7, 2524, Note_off_c, 3, 92, 0
7, 2588, Note_on_c, 3, 94, 75
7, 2620, Note_off_c, 3, 94, 0
7, 2696, Note_on_c, 3, 94, 69
7, 2740, Pitch_bend_c, 3, 8256
7, 2740, Pitch_bend_c, 3, 8448
7, 2744, Pitch_bend_c, 3, 8576
7, 2748, Pitch_bend_c, 3, 8768
7, 2752, Pitch_bend_c, 3, 8960
7, 2752, Pitch_bend_c, 3, 9088
7, 2756, Pitch_bend_c, 3, 9280
7, 2760, Pitch_bend_c, 3, 9344
7, 2764, Pitch_bend_c, 3, 9472
7, 2764, Pitch_bend_c, 3, 9600
7, 2768, Pitch_bend_c, 3, 9664
7, 2768, Pitch_bend_c, 3, 9728
7, 2772, Pitch_bend_c, 3, 9792
7, 2776, Pitch_bend_c, 3, 9920
7, 2780, Pitch_bend_c, 3, 9984
7, 2780, Pitch_bend_c, 3, 10048
7, 2784, Pitch_bend_c, 3, 10176
7, 2788, Pitch_bend_c, 3, 10240
7, 2792, Pitch_bend_c, 3, 10304
7, 2792, Pitch_bend_c, 3, 10368
7, 2796, Pitch_bend_c, 3, 10496
7, 2804, Pitch_bend_c, 3, 10560
7, 2816, Pitch_bend_c, 3, 10624
7, 2824, Pitch_bend_c, 3, 10688
7, 2872, Pitch_bend_c, 3, 10624
7, 2876, Pitch_bend_c, 3, 10496
7, 2880, Pitch_bend_c, 3, 9984
7, 2880, Pitch_bend_c, 3, 9152
7, 2884, Pitch_bend_c, 3, 8192
7, 2928, Note_off_c, 3, 94, 0
7, 2948, Note_on_c, 3, 92, 72
7, 3028, Note_off_c, 3, 92, 0
7, 5452, Note_on_c, 3, 75, 82
7, 5504, Note_off_c, 3, 75, 0
7, 5552, Note_on_c, 3, 80, 65
7, 5580, Note_off_c, 3, 80, 0
7, 5640, Note_on_c, 3, 82, 85
7, 5676, Note_off_c, 3, 82, 0
7, 5748, Note_on_c, 3, 82, 77
7, 5812, Pitch_bend_c, 3, 8384
7, 5812, Pitch_bend_c, 3, 8576
7, 5816, Pitch_bend_c, 3, 8768
7, 5820, Pitch_bend_c, 3, 8960
7, 5820, Pitch_bend_c, 3, 9088
7, 5824, Pitch_bend_c, 3, 9280
7, 5828, Pitch_bend_c, 3, 9408
7, 5828, Pitch_bend_c, 3, 9600
7, 5832, Pitch_bend_c, 3, 9728
7, 5836, Pitch_bend_c, 3, 9920
7, 5840, Pitch_bend_c, 3, 9984
7, 5840, Pitch_bend_c, 3, 10176
7, 5844, Pitch_bend_c, 3, 10240
7, 5848, Pitch_bend_c, 3, 10304
7, 5852, Pitch_bend_c, 3, 10368
7, 5856, Pitch_bend_c, 3, 10496
7, 5856, Pitch_bend_c, 3, 10560
7, 5860, Pitch_bend_c, 3, 10624
7, 5864, Pitch_bend_c, 3, 10688
7, 5864, Pitch_bend_c, 3, 10816
7, 5868, Pitch_bend_c, 3, 10880
7, 5868, Pitch_bend_c, 3, 10944
7, 5876, Pitch_bend_c, 3, 11008
7, 5884, Pitch_bend_c, 3, 11136
7, 5912, Pitch_bend_c, 3, 11200
7, 5928, Pitch_bend_c, 3, 11136
7, 5928, Pitch_bend_c, 3, 11008
7, 5932, Pitch_bend_c, 3, 10944
7, 5936, Pitch_bend_c, 3, 10816
7, 5940, Pitch_bend_c, 3, 10560
7, 5940, Pitch_bend_c, 3, 10304
7, 5944, Pitch_bend_c, 3, 9984
7, 5948, Pitch_bend_c, 3, 9472
7, 5952, Pitch_bend_c, 3, 8960
7, 5952, Pitch_bend_c, 3, 8192
7, 6024, Note_off_c, 3, 82, 0
7, 6028, Note_on_c, 3, 80, 88
7, 6092, Note_off_c, 3, 80, 0
7, 8536, Note_on_c, 3, 87, 71
7, 8584, Note_off_c, 3, 87, 0
7, 8640, Note_on_c, 3, 92, 73
7, 8668, Note_off_c, 3, 92, 0
7, 8732, Note_on_c, 3, 94, 75
7, 8764, Note_off_c, 3, 94, 0
7, 8840, Note_on_c, 3, 94, 69
7, 8884, Pitch_bend_c, 3, 8256
7, 8884, Pitch_bend_c, 3, 8448
7, 8888, Pitch_bend_c, 3, 8576
7, 8892, Pitch_bend_c, 3, 8768
7, 8896, Pitch_bend_c, 3, 8960
7, 8896, Pitch_bend_c, 3, 9088
7, 8900, Pitch_bend_c, 3, 9280
7, 8904, Pitch_bend_c, 3, 9344
7, 8908, Pitch_bend_c, 3, 9472
7, 8908, Pitch_bend_c, 3, 9600
7, 8912, Pitch_bend_c, 3, 9664
7, 8912, Pitch_bend_c, 3, 9728
7, 8916, Pitch_bend_c, 3, 9792
7, 8920, Pitch_bend_c, 3, 9920
7, 8924, Pitch_bend_c, 3, 9984
7, 8924, Pitch_bend_c, 3, 10048
7, 8928, Pitch_bend_c, 3, 10176
7, 8932, Pitch_bend_c, 3, 10240
7, 8936, Pitch_bend_c, 3, 10304
7, 8936, Pitch_bend_c, 3, 10368
7, 8940, Pitch_bend_c, 3, 10496
7, 8948, Pitch_bend_c, 3, 10560
7, 8960, Pitch_bend_c, 3, 10624
7, 8968, Pitch_bend_c, 3, 10688
7, 9016, Pitch_bend_c, 3, 10624
7, 9020, Pitch_bend_c, 3, 10496
7, 9024, Pitch_bend_c, 3, 9984
7, 9024, Pitch_bend_c, 3, 9152
7, 9028, Pitch_bend_c, 3, 8192
7, 9072, Note_off_c, 3, 94, 0
7, 9092, Note_on_c, 3, 92, 72
7, 9172, Note_off_c, 3, 92, 0
7, 11596, Note_on_c, 3, 75, 82
7, 11648, Note_off_c, 3, 75, 0
7, 11696, Note_on_c, 3, 80, 65
7, 11724, Note_off_c, 3, 80, 0
7, 11784, Note_on_c, 3, 82, 85
7, 11820, Note_off_c, 3, 82, 0
7, 11892, Note_on_c, 3, 82, 77
7, 11956, Pitch_bend_c, 3, 8384
7, 11956, Pitch_bend_c, 3, 8576
7, 11960, Pitch_bend_c, 3, 8768
7, 11964, Pitch_bend_c, 3, 8960
7, 11964, Pitch_bend_c, 3, 9088
7, 11968, Pitch_bend_c, 3, 9280
7, 11972, Pitch_bend_c, 3, 9408
7, 11972, Pitch_bend_c, 3, 9600
7, 11976, Pitch_bend_c, 3, 9728
7, 11980, Pitch_bend_c, 3, 9920
7, 11984, Pitch_bend_c, 3, 9984
7, 11984, Pitch_bend_c, 3, 10176
7, 11988, Pitch_bend_c, 3, 10240
7, 11992, Pitch_bend_c, 3, 10304
7, 11996, Pitch_bend_c, 3, 10368
7, 12000, Pitch_bend_c, 3, 10496
7, 12000, Pitch_bend_c, 3, 10560
7, 12004, Pitch_bend_c, 3, 10624
7, 12008, Pitch_bend_c, 3, 10688
7, 12008, Pitch_bend_c, 3, 10816
7, 12012, Pitch_bend_c, 3, 10880
7, 12012, Pitch_bend_c, 3, 10944
7, 12020, Pitch_bend_c, 3, 11008
7, 12028, Pitch_bend_c, 3, 11136
7, 12056, Pitch_bend_c, 3, 11200
7, 12072, Pitch_bend_c, 3, 11136
7, 12072, Pitch_bend_c, 3, 11008
7, 12076, Pitch_bend_c, 3, 10944
7, 12080, Pitch_bend_c, 3, 10816
7, 12084, Pitch_bend_c, 3, 10560
7, 12084, Pitch_bend_c, 3, 10304
7, 12088, Pitch_bend_c, 3, 9984
7, 12092, Pitch_bend_c, 3, 9472
7, 12096, Pitch_bend_c, 3, 8960
7, 12096, Pitch_bend_c, 3, 8192
7, 12168, Note_off_c, 3, 82, 0
7, 12172, Note_on_c, 3, 80, 88
7, 12236, Note_off_c, 3, 80, 0
7, 14680, Note_on_c, 3, 87, 71
7, 14728, Note_off_c, 3, 87, 0
7, 14784, Note_on_c, 3, 92, 73
7, 14812, Note_off_c, 3, 92, 0
7, 14876, Note_on_c, 3, 94, 75
7, 14908, Note_off_c, 3, 94, 0
7, 14984, Note_on_c, 3, 94, 69
7, 15028, Pitch_bend_c, 3, 8256
7, 15028, Pitch_bend_c, 3, 8448
7, 15032, Pitch_bend_c, 3, 8576
7, 15036, Pitch_bend_c, 3, 8768
7, 15040, Pitch_bend_c, 3, 8960
7, 15040, Pitch_bend_c, 3, 9088
7, 15044, Pitch_bend_c, 3, 9280
7, 15048, Pitch_bend_c, 3, 9344
7, 15052, Pitch_bend_c, 3, 9472
7, 15052, Pitch_bend_c, 3, 9600
7, 15056, Pitch_bend_c, 3, 9664
7, 15056, Pitch_bend_c, 3, 9728
7, 15060, Pitch_bend_c, 3, 9792
7, 15064, Pitch_bend_c, 3, 9920
7, 15068, Pitch_bend_c, 3, 9984
7, 15068, Pitch_bend_c, 3, 10048
7, 15072, Pitch_bend_c, 3, 10176
7, 15076, Pitch_bend_c, 3, 10240
7, 15080, Pitch_bend_c, 3, 10304
7, 15080, Pitch_bend_c, 3, 10368
7, 15084, Pitch_bend_c, 3, 10496
7, 15092, Pitch_bend_c, 3, 10560
7, 15104, Pitch_bend_c, 3, 10624
7, 15112, Pitch_bend_c, 3, 10688
7, 15160, Pitch_bend_c, 3, 10624
7, 15164, Pitch_bend_c, 3, 10496
7, 15168, Pitch_bend_c, 3, 9984
7, 15168, Pitch_bend_c, 3, 9152
7, 15172, Pitch_bend_c, 3, 8192
7, 15216, Note_off_c, 3, 94, 0
7, 15236, Note_on_c, 3, 92, 72
7, 15316, Note_off_c, 3, 92, 0
7, 17740, Note_on_c, 3, 75, 82
7, 17792, Note_off_c, 3, 75, 0
7, 17840, Note_on_c, 3, 80, 65
7, 17868, Note_off_c, 3, 80, 0
7, 17928, Note_on_c, 3, 82, 85
7, 17964, Note_off_c, 3, 82, 0
7, 18036, Note_on_c, 3, 82, 77
7, 18100, Pitch_bend_c, 3, 8384
7, 18100, Pitch_bend_c, 3, 8576
7, 18104, Pitch_bend_c, 3, 8768
7, 18108, Pitch_bend_c, 3, 8960
7, 18108, Pitch_bend_c, 3, 9088
7, 18112, Pitch_bend_c, 3, 9280
7, 18116, Pitch_bend_c, 3, 9408
7, 18116, Pitch_bend_c, 3, 9600
7, 18120, Pitch_bend_c, 3, 9728
7, 18124, Pitch_bend_c, 3, 9920
7, 18128, Pitch_bend_c, 3, 9984
7, 18128, Pitch_bend_c, 3, 10176
7, 18132, Pitch_bend_c, 3, 10240
7, 18136, Pitch_bend_c, 3, 10304
7, 18140, Pitch_bend_c, 3, 10368
7, 18144, Pitch_bend_c, 3, 10496
7, 18144, Pitch_bend_c, 3, 10560
7, 18148, Pitch_bend_c, 3, 10624
7, 18152, Pitch_bend_c, 3, 10688
7, 18152, Pitch_bend_c, 3, 10816
7, 18156, Pitch_bend_c, 3, 10880
7, 18156, Pitch_bend_c, 3, 10944
7, 18164, Pitch_bend_c, 3, 11008
7, 18172, Pitch_bend_c, 3, 11136
7, 18200, Pitch_bend_c, 3, 11200
7, 18216, Pitch_bend_c, 3, 11136
7, 18216, Pitch_bend_c, 3, 11008
7, 18220, Pitch_bend_c, 3, 10944
7, 18224, Pitch_bend_c, 3, 10816
7, 18228, Pitch_bend_c, 3, 10560
7, 18228, Pitch_bend_c, 3, 10304
7, 18232, Pitch_bend_c, 3, 9984
7, 18236, Pitch_bend_c, 3, 9472
7, 18240, Pitch_bend_c, 3, 8960
7, 18240, Pitch_bend_c, 3, 8192
7, 18312, Note_off_c, 3, 82, 0
7, 18316, Note_on_c, 3, 80, 88
7, 18380, Note_off_c, 3, 80, 0
7, 20824, Note_on_c, 3, 87, 71
7, 20872, Note_off_c, 3, 87, 0
7, 20928, Note_on_c, 3, 92, 73
7, 20956, Note_off_c, 3, 92, 0
7, 21020, Note_on_c, 3, 94, 75
7, 21052, Note_off_c, 3, 94, 0
7, 21128, Note_on_c, 3, 94, 69
7, 21172, Pitch_bend_c, 3, 8256
7, 21172, Pitch_bend_c, 3, 8448
7, 21176, Pitch_bend_c, 3, 8576
7, 21180, Pitch_bend_c, 3, 8768
7, 21184, Pitch_bend_c, 3, 8960
7, 21184, Pitch_bend_c, 3, 9088
7, 21188, Pitch_bend_c, 3, 9280
7, 21192, Pitch_bend_c, 3, 9344
7, 21196, Pitch_bend_c, 3, 9472
7, 21196, Pitch_bend_c, 3, 9600
7, 21200, Pitch_bend_c, 3, 9664
7, 21200, Pitch_bend_c, 3, 9728
7, 21204, Pitch_bend_c, 3, 9792
7, 21208, Pitch_bend_c, 3, 9920
7, 21212, Pitch_bend_c, 3, 9984
7, 21212, Pitch_bend_c, 3, 10048
7, 21216, Pitch_bend_c, 3, 10176
7, 21220, Pitch_bend_c, 3, 10240
7, 21224, Pitch_bend_c, 3, 10304
7, 21224, Pitch_bend_c, 3, 10368
7, 21228, Pitch_bend_c, 3, 10496
7, 21236, Pitch_bend_c, 3, 10560
7, 21248, Pitch_bend_c, 3, 10624
7, 21256, Pitch_bend_c, 3, 10688
7, 21304, Pitch_bend_c, 3, 10624
7, 21308, Pitch_bend_c, 3, 10496
7, 21312, Pitch_bend_c, 3, 9984
7, 21312, Pitch_bend_c, 3, 9152
7, 21316, Pitch_bend_c, 3, 8192
7, 21360, Note_off_c, 3, 94, 0
7, 21380, Note_on_c, 3, 92, 72
7, 21460, Note_off_c, 3, 92, 0
7, 23884, Note_on_c, 3, 75, 82
7, 23936, Note_off_c, 3, 75, 0
7, 23984, Note_on_c, 3, 80, 65
7, 24012, Note_off_c, 3, 80, 0
7, 24072, Note_on_c, 3, 82, 85
7, 24108, Note_off_c, 3, 82, 0
7, 24180, Note_on_c, 3, 82, 77
7, 24244, Pitch_bend_c, 3, 8384
7, 24244, Pitch_bend_c, 3, 8576
7, 24248, Pitch_bend_c, 3, 8768
7, 24252, Pitch_bend_c, 3, 8960
7, 24252, Pitch_bend_c, 3, 9088
7, 24256, Pitch_bend_c, 3, 9280
7, 24260, Pitch_bend_c, 3, 9408
7, 24260, Pitch_bend_c, 3, 9600
7, 24264, Pitch_bend_c, 3, 9728
7, 24268, Pitch_bend_c, 3, 9920
7, 24272, Pitch_bend_c, 3, 9984
7, 24272, Pitch_bend_c, 3, 10176
7, 24276, Pitch_bend_c, 3, 10240
7, 24280, Pitch_bend_c, 3, 10304
7, 24284, Pitch_bend_c, 3, 10368
7, 24288, Pitch_bend_c, 3, 10496
7, 24288, Pitch_bend_c, 3, 10560
7, 24292, Pitch_bend_c, 3, 10624
7, 24296, Pitch_bend_c, 3, 10688
7, 24296, Pitch_bend_c, 3, 10816
7, 24300, Pitch_bend_c, 3, 10880
7, 24300, Pitch_bend_c, 3, 10944
7, 24308, Pitch_bend_c, 3, 11008
7, 24316, Pitch_bend_c, 3, 11136
7, 24344, Pitch_bend_c, 3, 11200
7, 24360, Pitch_bend_c, 3, 11136
7, 24360, Pitch_bend_c, 3, 11008
7, 24364, Pitch_bend_c, 3, 10944
7, 24368, Pitch_bend_c, 3, 10816
7, 24372, Pitch_bend_c, 3, 10560
7, 24372, Pitch_bend_c, 3, 10304
7, 24376, Pitch_bend_c, 3, 9984
7, 24380, Pitch_bend_c, 3, 9472
7, 24384, Pitch_bend_c, 3, 8960
7, 24384, Pitch_bend_c, 3, 8192
7, 24456, Note_off_c, 3, 82, 0
7, 24460, Note_on_c, 3, 80, 88
7, 24524, Note_off_c, 3, 80, 0
7, 26968, Note_on_c, 3, 87, 71
7, 27016, Note_off_c, 3, 87, 0
7, 27072, Note_on_c, 3, 92, 73
7, 27100, Note_off_c, 3, 92, 0
7, 27164, Note_on_c, 3, 94, 75
7, 27196, Note_off_c, 3, 94, 0
7, 27272, Note_on_c, 3, 94, 69
7, 27316, Pitch_bend_c, 3, 8256
7, 27316, Pitch_bend_c, 3, 8448
7, 27320, Pitch_bend_c, 3, 8576
7, 27324, Pitch_bend_c, 3, 8768
7, 27328, Pitch_bend_c, 3, 8960
7, 27328, Pitch_bend_c, 3, 9088
7, 27332, Pitch_bend_c, 3, 9280
7, 27336, Pitch_bend_c, 3, 9344
7, 27340, Pitch_bend_c, 3, 9472
7, 27340, Pitch_bend_c, 3, 9600
7, 27344, Pitch_bend_c, 3, 9664
7, 27344, Pitch_bend_c, 3, 9728
7, 27348, Pitch_bend_c, 3, 9792
7, 27352, Pitch_bend_c, 3, 9920
7, 27356, Pitch_bend_c, 3, 9984
7, 27356, Pitch_bend_c, 3, 10048
7, 27360, Pitch_bend_c, 3, 10176
7, 27364, Pitch_bend_c, 3, 10240
7, 27368, Pitch_bend_c, 3, 10304
7, 27368, Pitch_bend_c, 3, 10368
7, 27372, Pitch_bend_c, 3, 10496
7, 27380, Pitch_bend_c, 3, 10560
7, 27392, Pitch_bend_c, 3, 10624
7, 27400, Pitch_bend_c, 3, 10688
7, 27448, Pitch_bend_c, 3, 10624
7, 27452, Pitch_bend_c, 3, 10496
7, 27456, Pitch_bend_c, 3, 9984
7, 27456, Pitch_bend_c, 3, 9152
7, 27460, Pitch_bend_c, 3, 8192
7, 27504, Note_off_c, 3, 94, 0
7, 27524, Note_on_c, 3, 92, 72
7, 27604, Note_off_c, 3, 92, 0
7, 30028, Note_on_c, 3, 75, 82
7, 30080, Note_off_c, 3, 75, 0
7, 30128, Note_on_c, 3, 80, 65
7, 30156, Note_off_c, 3, 80, 0
7, 30216, Note_on_c, 3, 82, 85
7, 30252, Note_off_c, 3, 82, 0
7, 30324, Note_on_c, 3, 82, 77
7, 30388, Pitch_bend_c, 3, 8384
7, 30388, Pitch_bend_c, 3, 8576
7, 30392, Pitch_bend_c, 3, 8768
7, 30396, Pitch_bend_c, 3, 8960
7, 30396, Pitch_bend_c, 3, 9088
7, 30400, Pitch_bend_c, 3, 9280
7, 30404, Pitch_bend_c, 3, 9408
7, 30404, Pitch_bend_c, 3, 9600
7, 30408, Pitch_bend_c, 3, 9728
7, 30412, Pitch_bend_c, 3, 9920
7, 30416, Pitch_bend_c, 3, 9984
7, 30416, Pitch_bend_c, 3, 10176
7, 30420, Pitch_bend_c, 3, 10240
7, 30424, Pitch_bend_c, 3, 10304
7, 30428, Pitch_bend_c, 3, 10368
7, 30432, Pitch_bend_c, 3, 10496
7, 30432, Pitch_bend_c, 3, 10560
7, 30436, Pitch_bend_c, 3, 10624
7, 30440, Pitch_bend_c, 3, 10688
7, 30440, Pitch_bend_c, 3, 10816
7, 30444, Pitch_bend_c, 3, 10880
7, 30444, Pitch_bend_c, 3, 10944
7, 30452, Pitch_bend_c, 3, 11008
7, 30460, Pitch_bend_c, 3, 11136
7, 30488, Pitch_bend_c, 3, 11200
7, 30504, Pitch_bend_c, 3, 11136
7, 30504, Pitch_bend_c, 3, 11008
7, 30508, Pitch_bend_c, 3, 10944
7, 30512, Pitch_bend_c, 3, 10816
7, 30516, Pitch_bend_c, 3, 10560
7, 30516, Pitch_bend_c, 3, 10304
7, 30520, Pitch_bend_c, 3, 9984
7, 30524, Pitch_bend_c, 3, 9472
7, 30528, Pitch_bend_c, 3, 8960
7, 30528, Pitch_bend_c, 3, 8192
7, 30600, Note_off_c, 3, 82, 0
7, 30604, Note_on_c, 3, 80, 88
7, 30668, Note_off_c, 3, 80, 0
7, 33112, Note_on_c, 3, 87, 71
7, 33160, Note_off_c, 3, 87, 0
7, 33216, Note_on_c, 3, 92, 73
7, 33244, Note_off_c, 3, 92, 0
7, 33308, Note_on_c, 3, 94, 75
7, 33340, Note_off_c, 3, 94, 0
7, 33416, Note_on_c, 3, 94, 69
7, 33460, Pitch_bend_c, 3, 8256
7, 33460, Pitch_bend_c, 3, 8448
7, 33464, Pitch_bend_c, 3, 8576
7, 33468, Pitch_bend_c, 3, 8768
7, 33472, Pitch_bend_c, 3, 8960
7, 33472, Pitch_bend_c, 3, 9088
7, 33476, Pitch_bend_c, 3, 9280
7, 33480, Pitch_bend_c, 3, 9344
7, 33484, Pitch_bend_c, 3, 9472
7, 33484, Pitch_bend_c, 3, 9600
7, 33488, Pitch_bend_c, 3, 9664
7, 33488, Pitch_bend_c, 3, 9728
7, 33492, Pitch_bend_c, 3, 9792
7, 33496, Pitch_bend_c, 3, 9920
7, 33500, Pitch_bend_c, 3, 9984
7, 33500, Pitch_bend_c, 3, 10048
7, 33504, Pitch_bend_c, 3, 10176
7, 33508, Pitch_bend_c, 3, 10240
7, 33512, Pitch_bend_c, 3, 10304
7, 33512, Pitch_bend_c, 3, 10368
7, 33516, Pitch_bend_c, 3, 10496
7, 33524, Pitch_bend_c, 3, 10560
7, 33536, Pitch_bend_c, 3, 10624
7, 33544, Pitch_bend_c, 3, 10688
7, 33592, Pitch_bend_c, 3, 10624
7, 33596, Pitch_bend_c, 3, 10496
7, 33600, Pitch_bend_c, 3, 9984
7, 33600, Pitch_bend_c, 3, 9152
7, 33604, Pitch_bend_c, 3, 8192
7, 33648, Note_off_c, 3, 94, 0
7, 33668, Note_on_c, 3, 92, 72
7, 33748, Note_off_c, 3, 92, 0
7, 36172, Note_on_c, 3, 75, 82
7, 36224, Note_off_c, 3, 75, 0
7, 36272, Note_on_c, 3, 80, 65
7, 36300, Note_off_c, 3, 80, 0
7, 36360, Note_on_c, 3, 82, 85
7, 36396, Note_off_c, 3, 82, 0
7, 36468, Note_on_c, 3, 82, 77
7, 36532, Pitch_bend_c, 3, 8384
7, 36532, Pitch_bend_c, 3, 8576
7, 36536, Pitch_bend_c, 3, 8768
7, 36540, Pitch_bend_c, 3, 8960
7, 36540, Pitch_bend_c, 3, 9088
7, 36544, Pitch_bend_c, 3, 9280
7, 36548, Pitch_bend_c, 3, 9408
7, 36548, Pitch_bend_c, 3, 9600
7, 36552, Pitch_bend_c, 3, 9728
7, 36556, Pitch_bend_c, 3, 9920
7, 36560, Pitch_bend_c, 3, 9984
7, 36560, Pitch_bend_c, 3, 10176
7, 36564, Pitch_bend_c, 3, 10240
7, 36568, Pitch_bend_c, 3, 10304
7, 36572, Pitch_bend_c, 3, 10368
7, 36576, Pitch_bend_c, 3, 10496
7, 36576, Pitch_bend_c, 3, 10560
7, 36580, Pitch_bend_c, 3, 10624
7, 36584, Pitch_bend_c, 3, 10688
7, 36584, Pitch_bend_c, 3, 10816
7, 36588, Pitch_bend_c, 3, 10880
7, 36588, Pitch_bend_c, 3, 10944
7, 36596, Pitch_bend_c, 3, 11008
7, 36604, Pitch_bend_c, 3, 11136
7, 36632, Pitch_bend_c, 3, 11200
7, 36648, Pitch_bend_c, 3, 11136
7, 36648, Pitch_bend_c, 3, 11008
7, 36652, Pitch_bend_c, 3, 10944
7, 36656, Pitch_bend_c, 3, 10816
7, 36660, Pitch_bend_c, 3, 10560
7, 36660, Pitch_bend_c, 3, 10304
7, 36664, Pitch_bend_c, 3, 9984
7, 36668, Pitch_bend_c, 3, 9472
7, 36672, Pitch_bend_c, 3, 8960
7, 36672, Pitch_bend_c, 3, 8192
7, 36744, Note_off_c, 3, 82, 0
7, 36748, Note_on_c, 3, 80, 88
7, 36812, Note_off_c, 3, 80, 0
7, 36812, End_track
8, 0, Start_track
8, 0, Control_c, 4, 0, 0
8, 0, Program_c, 4, 47
8, 0, Control_c, 4, 7, 100
8, 0, Note_on_c, 4, 44, 82
8, 280, Note_off_c, 4, 44, 0
8, 6144, Note_on_c, 4, 44, 82
8, 6424, Note_off_c, 4, 44, 0
8, 12288, Note_on_c, 4, 44, 82
8, 12568, Note_off_c, 4, 44, 0
8, 18432, Note_on_c, 4, 44, 82
8, 18712, Note_off_c, 4, 44, 0
8, 24576, Note_on_c, 4, 44, 82
8, 24856, Note_off_c, 4, 44, 0
8, 30720, Note_on_c, 4, 44, 82
8, 31000, Note_off_c, 4, 44, 0
8, 31000, End_track
9, 0, Start_track
9, 0, Control_c, 5, 0, 0
9, 0, Program_c, 5, 35
9, 0, Control_c, 5, 7, 100
9, 0, Note_on_c, 5, 44, 74
9, 236, Note_off_c, 5, 44, 0
9, 1536, Note_on_c, 5, 44, 74
9, 1784, Note_off_c, 5, 44, 0
9, 3072, Note_on_c, 5, 44, 79
9, 3280, Note_off_c, 5, 44, 0
9, 4608, Note_on_c, 5, 44, 74
9, 4872, Note_off_c, 5, 44, 0
9, 6144, Note_on_c, 5, 44, 74
9, 6380, Note_off_c, 5, 44, 0
9, 7680, Note_on_c, 5, 44, 74
9, 7928, Note_off_c, 5, 44, 0
9, 9216, Note_on_c, 5, 44, 79
9, 9424, Note_off_c, 5, 44, 0
9, 10752, Note_on_c, 5, 44, 74
9, 11016, Note_off_c, 5, 44, 0
9, 12288, Note_on_c, 5, 44, 74
9, 12524, Note_off_c, 5, 44, 0
9, 13824, Note_on_c, 5, 44, 74
9, 14072, Note_off_c, 5, 44, 0
9, 15360, Note_on_c, 5, 44, 79
9, 15568, Note_off_c, 5, 44, 0
9, 16896, Note_on_c, 5, 44, 74
9, 17160, Note_off_c, 5, 44, 0
9, 18432, Note_on_c, 5, 44, 74
9, 18668, Note_off_c, 5, 44, 0
9, 19968, Note_on_c, 5, 44, 74
9, 20216, Note_off_c, 5, 44, 0
9, 21504, Note_on_c, 5, 44, 79
9, 21712, Note_off_c, 5, 44, 0
9, 23040, Note_on_c, 5, 44, 74
9, 23304, Note_off_c, 5, 44, 0
9, 24576, Note_on_c, 5, 44, 74
9, 24812, Note_off_c, 5, 44, 0
9, 26112, Note_on_c, 5, 44, 74
9, 26360, Note_off_c, 5, 44, 0
9, 27648, Note_on_c, 5, 44, 79
9, 27856, Note_off_c, 5, 44, 0
9, 29184, Note_on_c, 5, 44, 74
9, 29448, Note_off_c, 5, 44, 0
9, 30720, Note_on_c, 5, 44, 74
9, 30956, Note_off_c, 5, 44, 0
9, 32256, Note_on_c, 5, 44, 74
9, 32504, Note_off_c, 5, 44, 0
9, 33792, Note_on_c, 5, 44, 79
9, 34000, Note_off_c, 5, 44, 0
9, 35328, Note_on_c, 5, 44, 74
9, 35592, Note_off_c, 5, 44, 0
9, 35592, End_track
10, 0, Start_track
10, 0, Control_c, 9, 0, 0
10, 0, Program_c, 9, 0
10, 0, Control_c, 9, 7, 100
10, 0, Note_on_c, 9, 36, 100
10, 0, Note_on_c, 9, 42, 100
10, 64, Note_off_c, 9, 42, 100
10, 96, Note_on_c, 9, 69, 100
10, 96, Note_on_c, 9, 60, 100
10, 96, Note_on_c, 9, 42, 100
10, 128, Note_off_c, 9, 36, 100
10, 160, Note_off_c, 9, 69, 100
10, 160, Note_off_c, 9, 60, 100
10, 160, Note_off_c, 9, 42, 100
10, 192, Note_on_c, 9, 42, 100
10, 256, Note_off_c, 9, 42, 100
10, 288, Note_on_c, 9, 69, 100
10, 288, Note_on_c, 9, 60, 100
10, 288, Note_on_c, 9, 36, 100
10, 288, Note_on_c, 9, 42, 100
10, 352, Note_off_c, 9, 69, 100
10, 352, Note_off_c, 9, 60, 100
10, 352, Note_off_c, 9, 42, 100
10, 384, Note_on_c, 9, 69, 100
10, 384, Note_on_c, 9, 60, 100
10, 384, Note_on_c, 9, 42, 100
10, 416, Note_off_c, 9, 36, 100
10, 448, Note_off_c, 9, 69, 100
10, 448, Note_off_c, 9, 60, 100
10, 448, Note_off_c, 9, 42, 100
10, 480, Note_on_c, 9, 42, 100
10, 544, Note_off_c, 9, 42, 100
10, 576, Note_on_c, 9, 69, 100
10, 576, Note_on_c, 9, 63, 100
10, 576, Note_on_c, 9, 36, 100
10, 576, Note_on_c, 9, 42, 100
10, 640, Note_off_c, 9, 69, 100
10, 640, Note_off_c, 9, 42, 100
10, 672, Note_on_c, 9, 69, 100
10, 704, Note_off_c, 9, 63, 100
10, 704, Note_off_c, 9, 36, 100
10, 736, Note_off_c, 9, 69, 100
10, 768, Note_on_c, 9, 36, 100
10, 864, Note_on_c, 9, 42, 100
10, 896, Note_off_c, 9, 36, 100
10, 928, Note_off_c, 9, 42, 100
10, 960, Note_on_c, 9, 42, 100
10, 1024, Note_off_c, 9, 42, 100
10, 1056, Note_on_c, 9, 36, 100
10, 1056, Note_on_c, 9, 42, 100
10, 1056, Note_on_c, 9, 60, 100
10, 1100, Note_on_c, 9, 60, 100
10, 1120, Note_off_c, 9, 42, 100
10, 1120, Note_off_c, 9, 60, 100
10, 1140, Note_on_c, 9, 60, 100
10, 1152, Note_on_c, 9, 42, 100
10, 1152, Note_on_c, 9, 69, 100
10, 1164, Note_off_c, 9, 60, 100
10, 1184, Note_off_c, 9, 36, 100
10, 1204, Note_off_c, 9, 60, 100
10, 1216, Note_off_c, 9, 42, 100
10, 1216, Note_off_c, 9, 69, 100
10, 1248, Note_on_c, 9, 42, 100
10, 1248, Note_on_c, 9, 69, 100
10, 1248, Note_on_c, 9, 60, 100
10, 1312, Note_off_c, 9, 42, 100
10, 1312, Note_off_c, 9, 69, 100
10, 1312, Note_off_c, 9, 60, 100
10, 1344, Note_on_c, 9, 42, 100
10, 1344, Note_on_c, 9, 69, 100
10, 1344, Note_on_c, 9, 62, 100
10, 1408, Note_off_c, 9, 42, 100
10, 1408, Note_off_c, 9, 69, 100
10, 1408, Note_off_c, 9, 62, 100
10, 1440, Note_on_c, 9, 63, 100
10, 1504, Note_off_c, 9, 63, 100
10, 1536, Note_on_c, 9, 36, 100
10, 1536, Note_on_c, 9, 42, 100
10, 1600, Note_off_c, 9, 42, 100
10, 1632, Note_on_c, 9, 42, 100
10, 1632, Note_on_c, 9, 69, 100
10, 1632, Note_on_c, 9, 60, 100
10, 1664, Note_off_c, 9, 36, 100
10, 1696, Note_off_c, 9, 42, 100
10, 1696, Note_off_c, 9, 69, 100
10, 1696, Note_off_c, 9, 60, 100
10, 1728, Note_on_c, 9, 42, 100
10, 1792, Note_off_c, 9, 42, 100
10, 1824, Note_on_c, 9, 36, 100
10, 1824, Note_on_c, 9, 42, 100
10, 1824, Note_on_c, 9, 69, 100
10, 1824, Note_on_c, 9, 60, 100
10, 1888, Note_off_c, 9, 42, 100
10, 1888, Note_off_c, 9, 69, 100
10, 1888, Note_off_c, 9, 60, 100
10, 1920, Note_on_c, 9, 69, 100
10, 1920, Note_on_c, 9, 60, 100
10, 1920, Note_on_c, 9, 42, 100
10, 1952, Note_off_c, 9, 36, 100
10, 1984, Note_off_c, 9, 69, 100
10, 1984, Note_off_c, 9, 60, 100
10, 1984, Note_off_c, 9, 42, 100
10, 2016, Note_on_c, 9, 42, 100
10, 2080, Note_off_c, 9, 42, 100
10, 2112, Note_on_c, 9, 69, 100
10, 2112, Note_on_c, 9, 63, 100
10, 2112, Note_on_c, 9, 36, 100
10, 2112, Note_on_c, 9, 42, 100
10, 2176, Note_off_c, 9, 69, 100
10, 2176, Note_off_c, 9, 42, 100
10, 2208, Note_on_c, 9, 69, 100
10, 2240, Note_off_c, 9, 63, 100
10, 2240, Note_off_c, 9, 36, 100
10, 2272, Note_off_c, 9, 69, 100
10, 2304, Note_on_c, 9, 36, 100
10, 2304, Note_on_c, 9, 42, 100
10, 2368, Note_off_c, 9, 42, 100
10, 2400, Note_on_c, 9, 42, 100
10, 2432, Note_off_c, 9, 36, 100
10, 2464, Note_off_c, 9, 42, 100
10, 2496, Note_on_c, 9, 42, 100
10, 2560, Note_off_c, 9, 42, 100
10, 2592, Note_on_c, 9, 60, 100
10, 2592, Note_on_c, 9, 36, 100
10, 2592, Note_on_c, 9, 42, 100
10, 2636, Note_on_c, 9, 60, 100
10, 2656, Note_off_c, 9, 60, 100
10, 2656, Note_off_c, 9, 42, 100
10, 2676, Note_on_c, 9, 60, 100
10, 2688, Note_on_c, 9, 69, 100
10, 2688, Note_on_c, 9, 42, 100
10, 2700, Note_off_c, 9, 60, 100
10, 2720, Note_off_c, 9, 36, 100
10, 2740, Note_off_c, 9, 60, 100
10, 2752, Note_off_c, 9, 69, 100
10, 2752, Note_off_c, 9, 42, 100
10, 2784, Note_on_c, 9, 69, 100
10, 2784, Note_on_c, 9, 60, 100
10, 2784, Note_on_c, 9, 42, 100
10, 2848, Note_off_c, 9, 69, 100
10, 2848, Note_off_c, 9, 60, 100
10, 2848, Note_off_c, 9, 42, 100
10, 2880, Note_on_c, 9, 69, 100
10, 2880, Note_on_c, 9, 62, 100
10, 2880, Note_on_c, 9, 42, 100
10, 2944, Note_off_c, 9, 69, 100
10, 2944, Note_off_c, 9, 62, 100
10, 2944, Note_off_c, 9, 42, 100
10, 2976, Note_on_c, 9, 63, 100
10, 3040, Note_off_c, 9, 63, 100
10, 3072, Note_on_c, 9, 36, 100
10, 3072, Note_on_c, 9, 42, 100
10, 3136, Note_off_c, 9, 42, 100
10, 3168, Note_on_c, 9, 69, 100
10, 3168, Note_on_c, 9, 60, 100
10, 3168, Note_on_c, 9, 42, 100
10, 3200, Note_off_c, 9, 36, 100
10, 3232, Note_off_c, 9, 69, 100
10, 3232, Note_off_c, 9, 60, 100
10, 3232, Note_off_c, 9, 42, 100
10, 3264, Note_on_c, 9, 42, 100
10, 3328, Note_off_c, 9, 42, 100
10, 3360, Note_on_c, 9, 69, 100
10, 3360, Note_on_c, 9, 60, 100
10, 3360, Note_on_c, 9, 36, 100
10, 3360, Note_on_c, 9, 42, 100
10, 3424, Note_off_c, 9, 69, 100
10, 3424, Note_off_c, 9, 60, 100
10, 3424, Note_off_c, 9, 42, 100
10, 3456, Note_on_c, 9, 69, 100
10, 3456, Note_on_c, 9, 60, 100
10, 3456, Note_on_c, 9, 42, 100
10, 3488, Note_off_c, 9, 36, 100
10, 3520, Note_off_c, 9, 69, 100
10, 3520, Note_off_c, 9, 60, 100
10, 3520, Note_off_c, 9, 42, 100
10, 3552, Note_on_c, 9, 42, 100
10, 3616, Note_off_c, 9, 42, 100
10, 3648, Note_on_c, 9, 69, 100
10, 3648, Note_on_c, 9, 63, 100
10, 3648, Note_on_c, 9, 36, 100
10, 3648, Note_on_c, 9, 42, 100
10, 3712, Note_off_c, 9, 69, 100
10, 3712, Note_off_c, 9, 42, 100
10, 3744, Note_on_c, 9, 69, 100
10, 3776, Note_off_c, 9, 63, 100
10, 3776, Note_off_c, 9, 36, 100
10, 3808, Note_off_c, 9, 69, 100
10, 3840, Note_on_c, 9, 36, 100
10, 3840, Note_on_c, 9, 42, 100
10, 3904, Note_off_c, 9, 42, 100
10, 3936, Note_on_c, 9, 42, 100
10, 3968, Note_off_c, 9, 36, 100
10, 4000, Note_off_c, 9, 42, 100
10, 4032, Note_on_c, 9, 42, 100
10, 4096, Note_off_c, 9, 42, 100
10, 4128, Note_on_c, 9, 60, 100
10, 4128, Note_on_c, 9, 36, 100
10, 4128, Note_on_c, 9, 42, 100
10, 4172, Note_on_c, 9, 60, 100
10, 4192, Note_off_c, 9, 60, 100
10, 4192, Note_off_c, 9, 42, 100
10, 4212, Note_on_c, 9, 60, 100
10, 4224, Note_on_c, 9, 69, 100
10, 4224, Note_on_c, 9, 42, 100
10, 4236, Note_off_c, 9, 60, 100
10, 4256, Note_off_c, 9, 36, 100
10, 4276, Note_off_c, 9, 60, 100
10, 4288, Note_off_c, 9, 69, 100
10, 4288, Note_off_c, 9, 42, 100
10, 4320, Note_on_c, 9, 69, 100
10, 4320, Note_on_c, 9, 60, 100
10, 4320, Note_on_c, 9, 42, 100
10, 4384, Note_off_c, 9, 69, 100
10, 4384, Note_off_c, 9, 60, 100
10, 4384, Note_off_c, 9, 42, 100
10, 4416, Note_on_c, 9, 69, 100
10, 4416, Note_on_c, 9, 62, 100
10, 4416, Note_on_c, 9, 42, 100
10, 4480, Note_off_c, 9, 69, 100
10, 4480, Note_off_c, 9, 62, 100
10, 4480, Note_off_c, 9, 42, 100
10, 4512, Note_on_c, 9, 63, 100
10, 4576, Note_off_c, 9, 63, 100
10, 4608, Note_on_c, 9, 36, 100
10, 4608, Note_on_c, 9, 42, 100
10, 4672, Note_off_c, 9, 42, 100
10, 4704, Note_on_c, 9, 69, 100
10, 4704, Note_on_c, 9, 60, 100
10, 4704, Note_on_c, 9, 42, 100
10, 4736, Note_off_c, 9, 36, 100
10, 4768, Note_off_c, 9, 69, 100
10, 4768, Note_off_c, 9, 60, 100
10, 4768, Note_off_c, 9, 42, 100
10, 4800, Note_on_c, 9, 42, 100
10, 4864, Note_off_c, 9, 42, 100
10, 4896, Note_on_c, 9, 69, 100
10, 4896, Note_on_c, 9, 60, 100
10, 4896, Note_on_c, 9, 36, 100
10, 4896, Note_on_c, 9, 42, 100
10, 4960, Note_off_c, 9, 69, 100
10, 4960, Note_off_c, 9, 60, 100
10, 4960, Note_off_c, 9, 42, 100
10, 4992, Note_on_c, 9, 69, 100
10, 4992, Note_on_c, 9, 60, 100
10, 4992, Note_on_c, 9, 42, 100
10, 5024, Note_off_c, 9, 36, 100
10, 5056, Note_off_c, 9, 69, 100
10, 5056, Note_off_c, 9, 60, 100
10, 5056, Note_off_c, 9, 42, 100
10, 5088, Note_on_c, 9, 42, 100
10, 5152, Note_off_c, 9, 42, 100
10, 5184, Note_on_c, 9, 69, 100
10, 5184, Note_on_c, 9, 63, 100
10, 5184, Note_on_c, 9, 36, 100
10, 5184, Note_on_c, 9, 42, 100
10, 5248, Note_off_c, 9, 69, 100
10, 5248, Note_off_c, 9, 42, 100
10, 5280, Note_on_c, 9, 69, 100
10, 5312, Note_off_c, 9, 63, 100
10, 5312, Note_off_c, 9, 36, 100
10, 5344, Note_off_c, 9, 69, 100
10, 5376, Note_on_c, 9, 36, 100
10, 5376, Note_on_c, 9, 42, 100
10, 5440, Note_off_c, 9, 42, 100
10, 5472, Note_on_c, 9, 42, 100
10, 5504, Note_off_c, 9, 36, 100
10, 5536, Note_off_c, 9, 42, 100
10, 5568, Note_on_c, 9, 42, 100
10, 5632, Note_off_c, 9, 42, 100
10, 5664, Note_on_c, 9, 60, 100
10, 5664, Note_on_c, 9, 36, 100
10, 5664, Note_on_c, 9, 42, 100
10, 5708, Note_on_c, 9, 60, 100
10, 5728, Note_off_c, 9, 60, 100
10, 5728, Note_off_c, 9, 42, 100
10, 5748, Note_on_c, 9, 60, 100
10, 5760, Note_on_c, 9, 69, 100
10, 5760, Note_on_c, 9, 42, 100
10, 5772, Note_off_c, 9, 60, 100
10, 5792, Note_off_c, 9, 36, 100
10, 5812, Note_off_c, 9, 60, 100
10, 5824, Note_off_c, 9, 69, 100
10, 5824, Note_off_c, 9, 42, 100
10, 5856, Note_on_c, 9, 69, 100
10, 5856, Note_on_c, 9, 60, 100
10, 5856, Note_on_c, 9, 42, 100
10, 5920, Note_off_c, 9, 69, 100
10, 5920, Note_off_c, 9, 60, 100
10, 5920, Note_off_c, 9, 42, 100
10, 5952, Note_on_c, 9, 69, 100
10, 5952, Note_on_c, 9, 62, 100
10, 5952, Note_on_c, 9, 42, 100
10, 6016, Note_off_c, 9, 69, 100
10, 6016, Note_off_c, 9, 62, 100
10, 6016, Note_off_c, 9, 42, 100
10, 6048, Note_on_c, 9, 63, 100
10, 6112, Note_off_c, 9, 63, 100
10, 6144, Note_on_c, 9, 36, 100
10, 6144, Note_on_c, 9, 42, 100
10, 6208, Note_off_c, 9, 42, 100
10, 6240, Note_on_c, 9, 69, 100
10, 6240, Note_on_c, 9, 60, 100
10, 6240, Note_on_c, 9, 42, 100
10, 6272, Note_off_c, 9, 36, 100
10, 6304, Note_off_c, 9, 69, 100
10, 6304, Note_off_c, 9, 60, 100
10, 6304, Note_off_c, 9, 42, 100
10, 6336, Note_on_c, 9, 42, 100
10, 6400, Note_off_c, 9, 42, 100
10, 6432, Note_on_c, 9, 69, 100
10, 6432, Note_on_c, 9, 60, 100
10, 6432, Note_on_c, 9, 36, 100
10, 6432, Note_on_c, 9, 42, 100
10, 6496, Note_off_c, 9, 69, 100
10, 6496, Note_off_c, 9, 60, 100
10, 6496, Note_off_c, 9, 42, 100
10, 6528, Note_on_c, 9, 69, 100
10, 6528, Note_on_c, 9, 60, 100
10, 6528, Note_on_c, 9, 42, 100
10, 6560, Note_off_c, 9, 36, 100
10, 6592, Note_off_c, 9, 69, 100
10, 6592, Note_off_c, 9, 60, 100
10, 6592, Note_off_c, 9, 42, 100
10, 6624, Note_on_c, 9, 42, 100
10, 6688, Note_off_c, 9, 42, 100
10, 6720, Note_on_c, 9, 69, 100
10, 6720, Note_on_c, 9, 63, 100
10, 6720, Note_on_c, 9, 36, 100
10, 6720, Note_on_c, 9, 42, 100
10, 6784, Note_off_c, 9, 69, 100
10, 6784, Note_off_c, 9, 42, 100
10, 6816, Note_on_c, 9, 69, 100
10, 6848, Note_off_c, 9, 63, 100
10, 6848, Note_off_c, 9, 36, 100
10, 6880, Note_off_c, 9, 69, 100
10, 6912, Note_on_c, 9, 36, 100
10, 6912, Note_on_c, 9, 42, 100
10, 6976, Note_off_c, 9, 42, 100
10, 7008, Note_on_c, 9, 42, 100
10, 7040, Note_off_c, 9, 36, 100
10, 7072, Note_off_c, 9, 42, 100
10, 7104, Note_on_c, 9, 42, 100
10, 7168, Note_off_c, 9, 42, 100
10, 7200, Note_on_c, 9, 60, 100
10, 7200, Note_on_c, 9, 36, 100
10, 7200, Note_on_c, 9, 42, 100
10, 7244, Note_on_c, 9, 60, 100
10, 7264, Note_off_c, 9, 60, 100
10, 7264, Note_off_c, 9, 42, 100
10, 7284, Note_on_c, 9, 60, 100
10, 7296, Note_on_c, 9, 69, 100
10, 7296, Note_on_c, 9, 42, 100
10, 7308, Note_off_c, 9, 60, 100
10, 7328, Note_off_c, 9, 36, 100
10, 7348, Note_off_c, 9, 60, 100
10, 7360, Note_off_c, 9, 69, 100
10, 7360, Note_off_c, 9, 42, 100
10, 7392, Note_on_c, 9, 69, 100
10, 7392, Note_on_c, 9, 60, 100
10, 7392, Note_on_c, 9, 42, 100
10, 7456, Note_off_c, 9, 69, 100
10, 7456, Note_off_c, 9, 60, 100
10, 7456, Note_off_c, 9, 42, 100
10, 7488, Note_on_c, 9, 69, 100
10, 7488, Note_on_c, 9, 62, 100
10, 7488, Note_on_c, 9, 42, 100
10, 7552, Note_off_c, 9, 69, 100
10, 7552, Note_off_c, 9, 62, 100
10, 7552, Note_off_c, 9, 42, 100
10, 7584, Note_on_c, 9, 63, 100
10, 7648, Note_off_c, 9, 63, 100
10, 7680, Note_on_c, 9, 36, 100
10, 7680, Note_on_c, 9, 42, 100
10, 7744, Note_off_c, 9, 42, 100
10, 7776, Note_on_c, 9, 69, 100
10, 7776, Note_on_c, 9, 60, 100
10, 7776, Note_on_c, 9, 42, 100
10, 7808, Note_off_c, 9, 36, 100
10, 7840, Note_off_c, 9, 69, 100
10, 7840, Note_off_c, 9, 60, 100
10, 7840, Note_off_c, 9, 42, 100
10, 7872, Note_on_c, 9, 42, 100
10, 7936, Note_off_c, 9, 42, 100
10, 7968, Note_on_c, 9, 69, 100
10, 7968, Note_on_c, 9, 60, 100
10, 7968, Note_on_c, 9, 36, 100
10, 7968, Note_on_c, 9, 42, 100
10, 8032, Note_off_c, 9, 69, 100
10, 8032, Note_off_c, 9, 60, 100
10, 8032, Note_off_c, 9, 42, 100
10, 8064, Note_on_c, 9, 69, 100
10, 8064, Note_on_c, 9, 60, 100
10, 8064, Note_on_c, 9, 42, 100
10, 8096, Note_off_c, 9, 36, 100
10, 8128, Note_off_c, 9, 69, 100
10, 8128, Note_off_c, 9, 60, 100
10, 8128, Note_off_c, 9, 42, 100
10, 8160, Note_on_c, 9, 42, 100
10, 8224, Note_off_c, 9, 42, 100
10, 8256, Note_on_c, 9, 69, 100
10, 8256, Note_on_c, 9, 63, 100
10, 8256, Note_on_c, 9, 36, 100
10, 8256, Note_on_c, 9, 42, 100
10, 8320, Note_off_c, 9, 69, 100
10, 8320, Note_off_c, 9, 42, 100
10, 8352, Note_on_c, 9, 69, 100
10, 8384, Note_off_c, 9, 63, 100
10, 8384, Note_off_c, 9, 36, 100
10, 8416, Note_off_c, 9, 69, 100
10, 8448, Note_on_c, 9, 36, 100
10, 8448, Note_on_c, 9, 42, 100
10, 8512, Note_off_c, 9, 42, 100
10, 8544, Note_on_c, 9, 42, 100
10, 8576, Note_off_c, 9, 36, 100
10, 8608, Note_off_c, 9, 42, 100
10, 8640, Note_on_c, 9, 42, 100
10, 8704, Note_off_c, 9, 42, 100
10, 8736, Note_on_c, 9, 60, 100
10, 8736, Note_on_c, 9, 36, 100
10, 8736, Note_on_c, 9, 42, 100
10, 8780, Note_on_c, 9, 60, 100
10, 8800, Note_off_c, 9, 60, 100
10, 8800, Note_off_c, 9, 42, 100
10, 8820, Note_on_c, 9, 60, 100
10, 8832, Note_on_c, 9, 69, 100
10, 8832, Note_on_c, 9, 42, 100
10, 8844, Note_off_c, 9, 60, 100
10, 8864, Note_off_c, 9, 36, 100
10, 8884, Note_off_c, 9, 60, 100
10, 8896, Note_off_c, 9, 69, 100
10, 8896, Note_off_c, 9, 42, 100
10, 8928, Note_on_c, 9, 69, 100
10, 8928, Note_on_c, 9, 60, 100
10, 8928, Note_on_c, 9, 42, 100
10, 8992, Note_off_c, 9, 69, 100
10, 8992, Note_off_c, 9, 60, 100
10, 8992, Note_off_c, 9, 42, 100
10, 9024, Note_on_c, 9, 69, 100
10, 9024, Note_on_c, 9, 62, 100
10, 9024, Note_on_c, 9, 42, 100
10, 9088, Note_off_c, 9, 69, 100
10, 9088, Note_off_c, 9, 62, 100
10, 9088, Note_off_c, 9, 42, 100
10, 9120, Note_on_c, 9, 63, 100
10, 9184, Note_off_c, 9, 63, 100
10, 9216, Note_on_c, 9, 36, 100
10, 9216, Note_on_c, 9, 42, 100
10, 9280, Note_off_c, 9, 42, 100
10, 9312, Note_on_c, 9, 69, 100
10, 9312, Note_on_c, 9, 60, 100
10, 9312, Note_on_c, 9, 42, 100
10, 9344, Note_off_c, 9, 36, 100
10, 9376, Note_off_c, 9, 69, 100
10, 9376, Note_off_c, 9, 60, 100
10, 9376, Note_off_c, 9, 42, 100
10, 9408, Note_on_c, 9, 42, 100
10, 9472, Note_off_c, 9, 42, 100
10, 9504, Note_on_c, 9, 69, 100
10, 9504, Note_on_c, 9, 60, 100
10, 9504, Note_on_c, 9, 36, 100
10, 9504, Note_on_c, 9, 42, 100
10, 9568, Note_off_c, 9, 69, 100
10, 9568, Note_off_c, 9, 60, 100
10, 9568, Note_off_c, 9, 42, 100
10, 9600, Note_on_c, 9, 69, 100
10, 9600, Note_on_c, 9, 60, 100
10, 9600, Note_on_c, 9, 42, 100
10, 9632, Note_off_c, 9, 36, 100
10, 9664, Note_off_c, 9, 69, 100
10, 9664, Note_off_c, 9, 60, 100
10, 9664, Note_off_c, 9, 42, 100
10, 9696, Note_on_c, 9, 42, 100
10, 9760, Note_off_c, 9, 42, 100
10, 9792, Note_on_c, 9, 69, 100
10, 9792, Note_on_c, 9, 63, 100
10, 9792, Note_on_c, 9, 36, 100
10, 9792, Note_on_c, 9, 42, 100
10, 9856, Note_off_c, 9, 69, 100
10, 9856, Note_off_c, 9, 42, 100
10, 9888, Note_on_c, 9, 69, 100
10, 9920, Note_off_c, 9, 63, 100
10, 9920, Note_off_c, 9, 36, 100
10, 9952, Note_off_c, 9, 69, 100
10, 9984, Note_on_c, 9, 36, 100
10, 9984, Note_on_c, 9, 42, 100
10, 10048, Note_off_c, 9, 42, 100
10, 10080, Note_on_c, 9, 42, 100
10, 10112, Note_off_c, 9, 36, 100
10, 10144, Note_off_c, 9, 42, 100
10, 10176, Note_on_c, 9, 42, 100
10, 10240, Note_off_c, 9, 42, 100
10, 10272, Note_on_c, 9, 60, 100
10, 10272, Note_on_c, 9, 36, 100
10, 10272, Note_on_c, 9, 42, 100
10, 10316, Note_on_c, 9, 60, 100
10, 10336, Note_off_c, 9, 60, 100
10, 10336, Note_off_c, 9, 42, 100
10, 10356, Note_on_c, 9, 60, 100
10, 10368, Note_on_c, 9, 69, 100
10, 10368, Note_on_c, 9, 42, 100
10, 10380, Note_off_c, 9, 60, 100
10, 10400, Note_off_c, 9, 36, 100
10, 10420, Note_off_c, 9, 60, 100
10, 10432, Note_off_c, 9, 69, 100
10, 10432, Note_off_c, 9, 42, 100
10, 10464, Note_on_c, 9, 69, 100
10, 10464, Note_on_c, 9, 60, 100
10, 10464, Note_on_c, 9, 42, 100
10, 10528, Note_off_c, 9, 69, 100
10, 10528, Note_off_c, 9, 60, 100
10, 10528, Note_off_c, 9, 42, 100
10, 10560, Note_on_c, 9, 69, 100
10, 10560, Note_on_c, 9, 62, 100
10, 10560, Note_on_c, 9, 42, 100
10, 10624, Note_off_c, 9, 69, 100
10, 10624, Note_off_c, 9, 62, 100
10, 10624, Note_off_c, 9, 42, 100
10, 10656, Note_on_c, 9, 63, 100
10, 10720, Note_off_c, 9, 63, 100
10, 10752, Note_on_c, 9, 36, 100
10, 10752, Note_on_c, 9, 42, 100
10, 10816, Note_off_c, 9, 42, 100
10, 10848, Note_on_c, 9, 69, 100
10, 10848, Note_on_c, 9, 60, 100
10, 10848, Note_on_c, 9, 42, 100
10, 10880, Note_off_c, 9, 36, 100
10, 10912, Note_off_c, 9, 69, 100
10, 10912, Note_off_c, 9, 60, 100
10, 10912, Note_off_c, 9, 42, 100
10, 10944, Note_on_c, 9, 42, 100
10, 11008, Note_off_c, 9, 42, 100
10, 11040, Note_on_c, 9, 69, 100
10, 11040, Note_on_c, 9, 60, 100
10, 11040, Note_on_c, 9, 36, 100
10, 11040, Note_on_c, 9, 42, 100
10, 11104, Note_off_c, 9, 69, 100
10, 11104, Note_off_c, 9, 60, 100
10, 11104, Note_off_c, 9, 42, 100
10, 11136, Note_on_c, 9, 69, 100
10, 11136, Note_on_c, 9, 60, 100
10, 11136, Note_on_c, 9, 42, 100
10, 11168, Note_off_c, 9, 36, 100
10, 11200, Note_off_c, 9, 69, 100
10, 11200, Note_off_c, 9, 60, 100
10, 11200, Note_off_c, 9, 42, 100
10, 11232, Note_on_c, 9, 42, 100
10, 11296, Note_off_c, 9, 42, 100
10, 11328, Note_on_c, 9, 69, 100
10, 11328, Note_on_c, 9, 63, 100
10, 11328, Note_on_c, 9, 36, 100
10, 11328, Note_on_c, 9, 42, 100
10, 11392, Note_off_c, 9, 69, 100
10, 11392, Note_off_c, 9, 42, 100
10, 11424, Note_on_c, 9, 69, 100
10, 11456, Note_off_c, 9, 63, 100
10, 11456, Note_off_c, 9, 36, 100
10, 11488, Note_off_c, 9, 69, 100
10, 11520, Note_on_c, 9, 36, 100
10, 11520, Note_on_c, 9, 42, 100
10, 11584, Note_off_c, 9, 42, 100
10, 11616, Note_on_c, 9, 42, 100
10, 11648, Note_off_c, 9, 36, 100
10, 11680, Note_off_c, 9, 42, 100
10, 11712, Note_on_c, 9, 42, 100
10, 11776, Note_off_c, 9, 42, 100
10, 11808, Note_on_c, 9, 60, 100
10, 11808, Note_on_c, 9, 36, 100
10, 11808, Note_on_c, 9, 42, 100
10, 11852, Note_on_c, 9, 60, 100
10, 11872, Note_off_c, 9, 60, 100
10, 11872, Note_off_c, 9, 42, 100
10, 11892, Note_on_c, 9, 60, 100
10, 11904, Note_on_c, 9, 69, 100
10, 11904, Note_on_c, 9, 42, 100
10, 11916, Note_off_c, 9, 60, 100
10, 11936, Note_off_c, 9, 36, 100
10, 11956, Note_off_c, 9, 60, 100
10, 11968, Note_off_c, 9, 69, 100
10, 11968, Note_off_c, 9, 42, 100
10, 12000, Note_on_c, 9, 69, 100
10, 12000, Note_on_c, 9, 60, 100
10, 12000, Note_on_c, 9, 42, 100
10, 12064, Note_off_c, 9, 69, 100
10, 12064, Note_off_c, 9, 60, 100
10, 12064, Note_off_c, 9, 42, 100
10, 12096, Note_on_c, 9, 69, 100
10, 12096, Note_on_c, 9, 62, 100
10, 12096, Note_on_c, 9, 42, 100
10, 12160, Note_off_c, 9, 69, 100
10, 12160, Note_off_c, 9, 62, 100
10, 12160, Note_off_c, 9, 42, 100
10, 12192, Note_on_c, 9, 63, 100
10, 12256, Note_off_c, 9, 63, 100
10, 12288, Note_on_c, 9, 36, 100
10, 12288, Note_on_c, 9, 42, 100
10, 12352, Note_off_c, 9, 42, 100
10, 12384, Note_on_c, 9, 69, 100
10, 12384, Note_on_c, 9, 60, 100
10, 12384, Note_on_c, 9, 42, 100
10, 12416, Note_off_c, 9, 36, 100
10, 12448, Note_off_c, 9, 69, 100
10, 12448, Note_off_c, 9, 60, 100
10, 12448, Note_off_c, 9, 42, 100
10, 12480, Note_on_c, 9, 42, 100
10, 12544, Note_off_c, 9, 42, 100
10, 12576, Note_on_c, 9, 69, 100
10, 12576, Note_on_c, 9, 60, 100
10, 12576, Note_on_c, 9, 36, 100
10, 12576, Note_on_c, 9, 42, 100
10, 12640, Note_off_c, 9, 69, 100
10, 12640, Note_off_c, 9, 60, 100
10, 12640, Note_off_c, 9, 42, 100
10, 12672, Note_on_c, 9, 69, 100
10, 12672, Note_on_c, 9, 60, 100
10, 12672, Note_on_c, 9, 42, 100
10, 12704, Note_off_c, 9, 36, 100
10, 12736, Note_off_c, 9, 69, 100
10, 12736, Note_off_c, 9, 60, 100
10, 12736, Note_off_c, 9, 42, 100
10, 12768, Note_on_c, 9, 42, 100
10, 12832, Note_off_c, 9, 42, 100
10, 12864, Note_on_c, 9, 69, 100
10, 12864, Note_on_c, 9, 63, 100
10, 12864, Note_on_c, 9, 36, 100
10, 12864, Note_on_c, 9, 42, 100
10, 12928, Note_off_c, 9, 69, 100
10, 12928, Note_off_c, 9, 42, 100
10, 12960, Note_on_c, 9, 69, 100
10, 12992, Note_off_c, 9, 63, 100
10, 12992, Note_off_c, 9, 36, 100
10, 13024, Note_off_c, 9, 69, 100
10, 13056, Note_on_c, 9, 36, 100
10, 13152, Note_on_c, 9, 42, 100
10, 13184, Note_off_c, 9, 36, 100
10, 13216, Note_off_c, 9, 42, 100
10, 13248, Note_on_c, 9, 42, 100
10, 13312, Note_off_c, 9, 42, 100
10, 13344, Note_on_c, 9, 36, 100
10, 13344, Note_on_c, 9, 42, 100
10, 13344, Note_on_c, 9, 60, 100
10, 13388, Note_on_c, 9, 60, 100
10, 13408, Note_off_c, 9, 42, 100
10, 13408, Note_off_c, 9, 60, 100
10, 13428, Note_on_c, 9, 60, 100
10, 13440, Note_on_c, 9, 42, 100
10, 13440, Note_on_c, 9, 69, 100
10, 13452, Note_off_c, 9, 60, 100
10, 13472, Note_off_c, 9, 36, 100
10, 13492, Note_off_c, 9, 60, 100
10, 13504, Note_off_c, 9, 42, 100
10, 13504, Note_off_c, 9, 69, 100
10, 13536, Note_on_c, 9, 42, 100
10, 13536, Note_on_c, 9, 69, 100
10, 13536, Note_on_c, 9, 60, 100
10, 13600, Note_off_c, 9, 42, 100
10, 13600, Note_off_c, 9, 69, 100
10, 13600, Note_off_c, 9, 60, 100
10, 13632, Note_on_c, 9, 42, 100
10, 13632, Note_on_c, 9, 69, 100
10, 13632, Note_on_c, 9, 62, 100
10, 13696, Note_off_c, 9, 42, 100
10, 13696, Note_off_c, 9, 69, 100
10, 13696, Note_off_c, 9, 62, 100
10, 13728, Note_on_c, 9, 63, 100
10, 13792, Note_off_c, 9, 63, 100
10, 13824, Note_on_c, 9, 36, 100
10, 13824, Note_on_c, 9, 42, 100
10, 13888, Note_off_c, 9, 42, 100
10, 13920, Note_on_c, 9, 42, 100
10, 13920, Note_on_c, 9, 69, 100
10, 13920, Note_on_c, 9, 60, 100
10, 13952, Note_off_c, 9, 36, 100
10, 13984, Note_off_c, 9, 42, 100
10, 13984, Note_off_c, 9, 69, 100
10, 13984, Note_off_c, 9, 60, 100
10, 14016, Note_on_c, 9, 42, 100
10, 14080, Note_off_c, 9, 42, 100
10, 14112, Note_on_c, 9, 36, 100
10, 14112, Note_on_c, 9, 42, 100
10, 14112, Note_on_c, 9, 69, 100
10, 14112, Note_on_c, 9, 60, 100
10, 14176, Note_off_c, 9, 42, 100
10, 14176, Note_off_c, 9, 69, 100
10, 14176, Note_off_c, 9, 60, 100
10, 14208, Note_on_c, 9, 69, 100
10, 14208, Note_on_c, 9, 60, 100
10, 14208, Note_on_c, 9, 42, 100
10, 14240, Note_off_c, 9, 36, 100
10, 14272, Note_off_c, 9, 69, 100
10, 14272, Note_off_c, 9, 60, 100
10, 14272, Note_off_c, 9, 42, 100
10, 14304, Note_on_c, 9, 42, 100
10, 14368, Note_off_c, 9, 42, 100
10, 14400, Note_on_c, 9, 69, 100
10, 14400, Note_on_c, 9, 63, 100
10, 14400, Note_on_c, 9, 36, 100
10, 14400, Note_on_c, 9, 42, 100
10, 14464, Note_off_c, 9, 69, 100
10, 14464, Note_off_c, 9, 42, 100
10, 14496, Note_on_c, 9, 69, 100
10, 14528, Note_off_c, 9, 63, 100
10, 14528, Note_off_c, 9, 36, 100
10, 14560, Note_off_c, 9, 69, 100
10, 14592, Note_on_c, 9, 36, 100
10, 14592, Note_on_c, 9, 42, 100
10, 14656, Note_off_c, 9, 42, 100
10, 14688, Note_on_c, 9, 42, 100
10, 14720, Note_off_c, 9, 36, 100
10, 14752, Note_off_c, 9, 42, 100
10, 14784, Note_on_c, 9, 42, 100
10, 14848, Note_off_c, 9, 42, 100
10, 14880, Note_on_c, 9, 60, 100
10, 14880, Note_on_c, 9, 36, 100
10, 14880, Note_on_c, 9, 42, 100
10, 14924, Note_on_c, 9, 60, 100
10, 14944, Note_off_c, 9, 60, 100
10, 14944, Note_off_c, 9, 42, 100
10, 14964, Note_on_c, 9, 60, 100
10, 14976, Note_on_c, 9, 69, 100
10, 14976, Note_on_c, 9, 42, 100
10, 14988, Note_off_c, 9, 60, 100
10, 15008, Note_off_c, 9, 36, 100
10, 15028, Note_off_c, 9, 60, 100
10, 15040, Note_off_c, 9, 69, 100
10, 15040, Note_off_c, 9, 42, 100
10, 15072, Note_on_c, 9, 69, 100
10, 15072, Note_on_c, 9, 60, 100
10, 15072, Note_on_c, 9, 42, 100
10, 15136, Note_off_c, 9, 69, 100
10, 15136, Note_off_c, 9, 60, 100
10, 15136, Note_off_c, 9, 42, 100
10, 15168, Note_on_c, 9, 69, 100
10, 15168, Note_on_c, 9, 62, 100
10, 15168, Note_on_c, 9, 42, 100
10, 15232, Note_off_c, 9, 69, 100
10, 15232, Note_off_c, 9, 62, 100
10, 15232, Note_off_c, 9, 42, 100
10, 15264, Note_on_c, 9, 63, 100
10, 15328, Note_off_c, 9, 63, 100
10, 15360, Note_on_c, 9, 36, 100
10, 15360, Note_on_c, 9, 42, 100
10, 15424, Note_off_c, 9, 42, 100
10, 15456, Note_on_c, 9, 69, 100
10, 15456, Note_on_c, 9, 60, 100
10, 15456, Note_on_c, 9, 42, 100
10, 15488, Note_off_c, 9, 36, 100
10, 15520, Note_off_c, 9, 69, 100
10, 15520, Note_off_c, 9, 60, 100
10, 15520, Note_off_c, 9, 42, 100
10, 15552, Note_on_c, 9, 42, 100
10, 15616, Note_off_c, 9, 42, 100
10, 15648, Note_on_c, 9, 69, 100
10, 15648, Note_on_c, 9, 60, 100
10, 15648, Note_on_c, 9, 36, 100
10, 15648, Note_on_c, 9, 42, 100
10, 15712, Note_off_c, 9, 69, 100
10, 15712, Note_off_c, 9, 60, 100
10, 15712, Note_off_c, 9, 42, 100
10, 15744, Note_on_c, 9, 69, 100
10, 15744, Note_on_c, 9, 60, 100
10, 15744, Note_on_c, 9, 42, 100
10, 15776, Note_off_c, 9, 36, 100
10, 15808, Note_off_c, 9, 69, 100
10, 15808, Note_off_c, 9, 60, 100
10, 15808, Note_off_c, 9, 42, 100
10, 15840, Note_on_c, 9, 42, 100
10, 15904, Note_off_c, 9, 42, 100
10, 15936, Note_on_c, 9, 69, 100
10, 15936, Note_on_c, 9, 63, 100
10, 15936, Note_on_c, 9, 36, 100
10, 15936, Note_on_c, 9, 42, 100
10, 16000, Note_off_c, 9, 69, 100
10, 16000, Note_off_c, 9, 42, 100
10, 16032, Note_on_c, 9, 69, 100
10, 16064, Note_off_c, 9, 63, 100
10, 16064, Note_off_c, 9, 36, 100
10, 16096, Note_off_c, 9, 69, 100
10, 16128, Note_on_c, 9, 36, 100
10, 16128, Note_on_c, 9, 42, 100
10, 16192, Note_off_c, 9, 42, 100
10, 16224, Note_on_c, 9, 42, 100
10, 16256, Note_off_c, 9, 36, 100
10, 16288, Note_off_c, 9, 42, 100
10, 16320, Note_on_c, 9, 42, 100
10, 16384, Note_off_c, 9, 42, 100
10, 16416, Note_on_c, 9, 60, 100
10, 16416, Note_on_c, 9, 36, 100
10, 16416, Note_on_c, 9, 42, 100
10, 16460, Note_on_c, 9, 60, 100
10, 16480, Note_off_c, 9, 60, 100
10, 16480, Note_off_c, 9, 42, 100
10, 16500, Note_on_c, 9, 60, 100
10, 16512, Note_on_c, 9, 69, 100
10, 16512, Note_on_c, 9, 42, 100
10, 16524, Note_off_c, 9, 60, 100
10, 16544, Note_off_c, 9, 36, 100
10, 16564, Note_off_c, 9, 60, 100
10, 16576, Note_off_c, 9, 69, 100
10, 16576, Note_off_c, 9, 42, 100
10, 16608, Note_on_c, 9, 69, 100
10, 16608, Note_on_c, 9, 60, 100
10, 16608, Note_on_c, 9, 42, 100
10, 16672, Note_off_c, 9, 69, 100
10, 16672, Note_off_c, 9, 60, 100
10, 16672, Note_off_c, 9, 42, 100
10, 16704, Note_on_c, 9, 69, 100
10, 16704, Note_on_c, 9, 62, 100
10, 16704, Note_on_c, 9, 42, 100
10, 16768, Note_off_c, 9, 69, 100
10, 16768, Note_off_c, 9, 62, 100
10, 16768, Note_off_c, 9, 42, 100
10, 16800, Note_on_c, 9, 63, 100
10, 16864, Note_off_c, 9, 63, 100
10, 16896, Note_on_c, 9, 36, 100
10, 16896, Note_on_c, 9, 42, 100
10, 16960, Note_off_c, 9, 42, 100
10, 16992, Note_on_c, 9, 69, 100
10, 16992, Note_on_c, 9, 60, 100
10, 16992, Note_on_c, 9, 42, 100
10, 17024, Note_off_c, 9, 36, 100
10, 17056, Note_off_c, 9, 69, 100
10, 17056, Note_off_c, 9, 60, 100
10, 17056, Note_off_c, 9, 42, 100
10, 17088, Note_on_c, 9, 42, 100
10, 17152, Note_off_c, 9, 42, 100
10, 17184, Note_on_c, 9, 69, 100
10, 17184, Note_on_c, 9, 60, 100
10, 17184, Note_on_c, 9, 36, 100
10, 17184, Note_on_c, 9, 42, 100
10, 17248, Note_off_c, 9, 69, 100
10, 17248, Note_off_c, 9, 60, 100
10, 17248, Note_off_c, 9, 42, 100
10, 17280, Note_on_c, 9, 69, 100
10, 17280, Note_on_c, 9, 60, 100
10, 17280, Note_on_c, 9, 42, 100
10, 17312, Note_off_c, 9, 36, 100
10, 17344, Note_off_c, 9, 69, 100
10, 17344, Note_off_c, 9, 60, 100
10, 17344, Note_off_c, 9, 42, 100
10, 17376, Note_on_c, 9, 42, 100
10, 17440, Note_off_c, 9, 42, 100
10, 17472, Note_on_c, 9, 69, 100
10, 17472, Note_on_c, 9, 63, 100
10, 17472, Note_on_c, 9, 36, 100
10, 17472, Note_on_c, 9, 42, 100
10, 17536, Note_off_c, 9, 69, 100
10, 17536, Note_off_c, 9, 42, 100
10, 17568, Note_on_c, 9, 69, 100
10, 17600, Note_off_c, 9, 63, 100
10, 17600, Note_off_c, 9, 36, 100
10, 17632, Note_off_c, 9, 69, 100
10, 17664, Note_on_c, 9, 36, 100
10, 17664, Note_on_c, 9, 42, 100
10, 17728, Note_off_c, 9, 42, 100
10, 17760, Note_on_c, 9, 42, 100
10, 17792, Note_off_c, 9, 36, 100
10, 17824, Note_off_c, 9, 42, 100
10, 17856, Note_on_c, 9, 42, 100
10, 17920, Note_off_c, 9, 42, 100
10, 17952, Note_on_c, 9, 60, 100
10, 17952, Note_on_c, 9, 36, 100
10, 17952, Note_on_c, 9, 42, 100
10, 17996, Note_on_c, 9, 60, 100
10, 18016, Note_off_c, 9, 60, 100
10, 18016, Note_off_c, 9, 42, 100
10, 18036, Note_on_c, 9, 60, 100
10, 18048, Note_on_c, 9, 69, 100
10, 18048, Note_on_c, 9, 42, 100
10, 18060, Note_off_c, 9, 60, 100
10, 18080, Note_off_c, 9, 36, 100
10, 18100, Note_off_c, 9, 60, 100
10, 18112, Note_off_c, 9, 69, 100
10, 18112, Note_off_c, 9, 42, 100
10, 18144, Note_on_c, 9, 69, 100
10, 18144, Note_on_c, 9, 60, 100
10, 18144, Note_on_c, 9, 42, 100
10, 18208, Note_off_c, 9, 69, 100
10, 18208, Note_off_c, 9, 60, 100
10, 18208, Note_off_c, 9, 42, 100
10, 18240, Note_on_c, 9, 69, 100
10, 18240, Note_on_c, 9, 62, 100
10, 18240, Note_on_c, 9, 42, 100
10, 18304, Note_off_c, 9, 69, 100
10, 18304, Note_off_c, 9, 62, 100
10, 18304, Note_off_c, 9, 42, 100
10, 18336, Note_on_c, 9, 63, 100
10, 18400, Note_off_c, 9, 63, 100
10, 18432, Note_on_c, 9, 36, 100
10, 18432, Note_on_c, 9, 42, 100
10, 18496, Note_off_c, 9, 42, 100
10, 18528, Note_on_c, 9, 69, 100
10, 18528, Note_on_c, 9, 60, 100
10, 18528, Note_on_c, 9, 42, 100
10, 18560, Note_off_c, 9, 36, 100
10, 18592, Note_off_c, 9, 69, 100
10, 18592, Note_off_c, 9, 60, 100
10, 18592, Note_off_c, 9, 42, 100
10, 18624, Note_on_c, 9, 42, 100
10, 18688, Note_off_c, 9, 42, 100
10, 18720, Note_on_c, 9, 69, 100
10, 18720, Note_on_c, 9, 60, 100
10, 18720, Note_on_c, 9, 36, 100
10, 18720, Note_on_c, 9, 42, 100
10, 18784, Note_off_c, 9, 69, 100
10, 18784, Note_off_c, 9, 60, 100
10, 18784, Note_off_c, 9, 42, 100
10, 18816, Note_on_c, 9, 69, 100
10, 18816, Note_on_c, 9, 60, 100
10, 18816, Note_on_c, 9, 42, 100
10, 18848, Note_off_c, 9, 36, 100
10, 18880, Note_off_c, 9, 69, 100
10, 18880, Note_off_c, 9, 60, 100
10, 18880, Note_off_c, 9, 42, 100
10, 18912, Note_on_c, 9, 42, 100
10, 18976, Note_off_c, 9, 42, 100
10, 19008, Note_on_c, 9, 69, 100
10, 19008, Note_on_c, 9, 63, 100
10, 19008, Note_on_c, 9, 36, 100
10, 19008, Note_on_c, 9, 42, 100
10, 19072, Note_off_c, 9, 69, 100
10, 19072, Note_off_c, 9, 42, 100
10, 19104, Note_on_c, 9, 69, 100
10, 19136, Note_off_c, 9, 63, 100
10, 19136, Note_off_c, 9, 36, 100
10, 19168, Note_off_c, 9, 69, 100
10, 19200, Note_on_c, 9, 36, 100
10, 19200, Note_on_c, 9, 42, 100
10, 19264, Note_off_c, 9, 42, 100
10, 19296, Note_on_c, 9, 42, 100
10, 19328, Note_off_c, 9, 36, 100
10, 19360, Note_off_c, 9, 42, 100
10, 19392, Note_on_c, 9, 42, 100
10, 19456, Note_off_c, 9, 42, 100
10, 19488, Note_on_c, 9, 60, 100
10, 19488, Note_on_c, 9, 36, 100
10, 19488, Note_on_c, 9, 42, 100
10, 19532, Note_on_c, 9, 60, 100
10, 19552, Note_off_c, 9, 60, 100
10, 19552, Note_off_c, 9, 42, 100
10, 19572, Note_on_c, 9, 60, 100
10, 19584, Note_on_c, 9, 69, 100
10, 19584, Note_on_c, 9, 42, 100
10, 19596, Note_off_c, 9, 60, 100
10, 19616, Note_off_c, 9, 36, 100
10, 19636, Note_off_c, 9, 60, 100
10, 19648, Note_off_c, 9, 69, 100
10, 19648, Note_off_c, 9, 42, 100
10, 19680, Note_on_c, 9, 69, 100
10, 19680, Note_on_c, 9, 60, 100
10, 19680, Note_on_c, 9, 42, 100
10, 19744, Note_off_c, 9, 69, 100
10, 19744, Note_off_c, 9, 60, 100
10, 19744, Note_off_c, 9, 42, 100
10, 19776, Note_on_c, 9, 69, 100
10, 19776, Note_on_c, 9, 62, 100
10, 19776, Note_on_c, 9, 42, 100
10, 19840, Note_off_c, 9, 69, 100
10, 19840, Note_off_c, 9, 62, 100
10, 19840, Note_off_c, 9, 42, 100
10, 19872, Note_on_c, 9, 63, 100
10, 19936, Note_off_c, 9, 63, 100
10, 19968, Note_on_c, 9, 36, 100
10, 19968, Note_on_c, 9, 42, 100
10, 20032, Note_off_c, 9, 42, 100
10, 20064, Note_on_c, 9, 69, 100
10, 20064, Note_on_c, 9, 60, 100
10, 20064, Note_on_c, 9, 42, 100
10, 20096, Note_off_c, 9, 36, 100
10, 20128, Note_off_c, 9, 69, 100
10, 20128, Note_off_c, 9, 60, 100
10, 20128, Note_off_c, 9, 42, 100
10, 20160, Note_on_c, 9, 42, 100
10, 20224, Note_off_c, 9, 42, 100
10, 20256, Note_on_c, 9, 69, 100
10, 20256, Note_on_c, 9, 60, 100
10, 20256, Note_on_c, 9, 36, 100
10, 20256, Note_on_c, 9, 42, 100
10, 20320, Note_off_c, 9, 69, 100
10, 20320, Note_off_c, 9, 60, 100
10, 20320, Note_off_c, 9, 42, 100
10, 20352, Note_on_c, 9, 69, 100
10, 20352, Note_on_c, 9, 60, 100
10, 20352, Note_on_c, 9, 42, 100
10, 20384, Note_off_c, 9, 36, 100
10, 20416, Note_off_c, 9, 69, 100
10, 20416, Note_off_c, 9, 60, 100
10, 20416, Note_off_c, 9, 42, 100
10, 20448, Note_on_c, 9, 42, 100
10, 20512, Note_off_c, 9, 42, 100
10, 20544, Note_on_c, 9, 69, 100
10, 20544, Note_on_c, 9, 63, 100
10, 20544, Note_on_c, 9, 36, 100
10, 20544, Note_on_c, 9, 42, 100
10, 20608, Note_off_c, 9, 69, 100
10, 20608, Note_off_c, 9, 42, 100
10, 20640, Note_on_c, 9, 69, 100
10, 20672, Note_off_c, 9, 63, 100
10, 20672, Note_off_c, 9, 36, 100
10, 20704, Note_off_c, 9, 69, 100
10, 20736, Note_on_c, 9, 36, 100
10, 20736, Note_on_c, 9, 42, 100
10, 20800, Note_off_c, 9, 42, 100
10, 20832, Note_on_c, 9, 42, 100
10, 20864, Note_off_c, 9, 36, 100
10, 20896, Note_off_c, 9, 42, 100
10, 20928, Note_on_c, 9, 42, 100
10, 20992, Note_off_c, 9, 42, 100
10, 21024, Note_on_c, 9, 60, 100
10, 21024, Note_on_c, 9, 36, 100
10, 21024, Note_on_c, 9, 42, 100
10, 21068, Note_on_c, 9, 60, 100
10, 21088, Note_off_c, 9, 60, 100
10, 21088, Note_off_c, 9, 42, 100
10, 21108, Note_on_c, 9, 60, 100
10, 21120, Note_on_c, 9, 69, 100
10, 21120, Note_on_c, 9, 42, 100
10, 21132, Note_off_c, 9, 60, 100
10, 21152, Note_off_c, 9, 36, 100
10, 21172, Note_off_c, 9, 60, 100
10, 21184, Note_off_c, 9, 69, 100
10, 21184, Note_off_c, 9, 42, 100
10, 21216, Note_on_c, 9, 69, 100
10, 21216, Note_on_c, 9, 60, 100
10, 21216, Note_on_c, 9, 42, 100
10, 21280, Note_off_c, 9, 69, 100
10, 21280, Note_off_c, 9, 60, 100
10, 21280, Note_off_c, 9, 42, 100
10, 21312, Note_on_c, 9, 69, 100
10, 21312, Note_on_c, 9, 62, 100
10, 21312, Note_on_c, 9, 42, 100
10, 21376, Note_off_c, 9, 69, 100
10, 21376, Note_off_c, 9, 62, 100
10, 21376, Note_off_c, 9, 42, 100
10, 21408, Note_on_c, 9, 63, 100
10, 21472, Note_off_c, 9, 63, 100
10, 21504, Note_on_c, 9, 36, 100
10, 21504, Note_on_c, 9, 42, 100
10, 21568, Note_off_c, 9, 42, 100
10, 21600, Note_on_c, 9, 69, 100
10, 21600, Note_on_c, 9, 60, 100
10, 21600, Note_on_c, 9, 42, 100
10, 21632, Note_off_c, 9, 36, 100
10, 21664, Note_off_c, 9, 69, 100
10, 21664, Note_off_c, 9, 60, 100
10, 21664, Note_off_c, 9, 42, 100
10, 21696, Note_on_c, 9, 42, 100
10, 21760, Note_off_c, 9, 42, 100
10, 21792, Note_on_c, 9, 69, 100
10, 21792, Note_on_c, 9, 60, 100
10, 21792, Note_on_c, 9, 36, 100
10, 21792, Note_on_c, 9, 42, 100
10, 21856, Note_off_c, 9, 69, 100
10, 21856, Note_off_c, 9, 60, 100
10, 21856, Note_off_c, 9, 42, 100
10, 21888, Note_on_c, 9, 69, 100
10, 21888, Note_on_c, 9, 60, 100
10, 21888, Note_on_c, 9, 42, 100
10, 21920, Note_off_c, 9, 36, 100
10, 21952, Note_off_c, 9, 69, 100
10, 21952, Note_off_c, 9, 60, 100
10, 21952, Note_off_c, 9, 42, 100
10, 21984, Note_on_c, 9, 42, 100
10, 22048, Note_off_c, 9, 42, 100
10, 22080, Note_on_c, 9, 69, 100
10, 22080, Note_on_c, 9, 63, 100
10, 22080, Note_on_c, 9, 36, 100
10, 22080, Note_on_c, 9, 42, 100
10, 22144, Note_off_c, 9, 69, 100
10, 22144, Note_off_c, 9, 42, 100
10, 22176, Note_on_c, 9, 69, 100
10, 22208, Note_off_c, 9, 63, 100
10, 22208, Note_off_c, 9, 36, 100
10, 22240, Note_off_c, 9, 69, 100
10, 22272, Note_on_c, 9, 36, 100
10, 22272, Note_on_c, 9, 42, 100
10, 22336, Note_off_c, 9, 42, 100
10, 22368, Note_on_c, 9, 42, 100
10, 22400, Note_off_c, 9, 36, 100
10, 22432, Note_off_c, 9, 42, 100
10, 22464, Note_on_c, 9, 42, 100
10, 22528, Note_off_c, 9, 42, 100
10, 22560, Note_on_c, 9, 60, 100
10, 22560, Note_on_c, 9, 36, 100
10, 22560, Note_on_c, 9, 42, 100
10, 22604, Note_on_c, 9, 60, 100
10, 22624, Note_off_c, 9, 60, 100
10, 22624, Note_off_c, 9, 42, 100
10, 22644, Note_on_c, 9, 60, 100
10, 22656, Note_on_c, 9, 69, 100
10, 22656, Note_on_c, 9, 42, 100
10, 22668, Note_off_c, 9, 60, 100
10, 22688, Note_off_c, 9, 36, 100
10, 22708, Note_off_c, 9, 60, 100
10, 22720, Note_off_c, 9, 69, 100
10, 22720, Note_off_c, 9, 42, 100
10, 22752, Note_on_c, 9, 69, 100
10, 22752, Note_on_c, 9, 60, 100
10, 22752, Note_on_c, 9, 42, 100
10, 22816, Note_off_c, 9, 69, 100
10, 22816, Note_off_c, 9, 60, 100
10, 22816, Note_off_c, 9, 42, 100
10, 22848, Note_on_c, 9, 69, 100
10, 22848, Note_on_c, 9, 62, 100
10, 22848, Note_on_c, 9, 42, 100
10, 22912, Note_off_c, 9, 69, 100
10, 22912, Note_off_c, 9, 62, 100
10, 22912, Note_off_c, 9, 42, 100
10, 22944, Note_on_c, 9, 63, 100
10, 23008, Note_off_c, 9, 63, 100
10, 23040, Note_on_c, 9, 36, 100
10, 23040, Note_on_c, 9, 42, 100
10, 23104, Note_off_c, 9, 42, 100
10, 23136, Note_on_c, 9, 69, 100
10, 23136, Note_on_c, 9, 60, 100
10, 23136, Note_on_c, 9, 42, 100
10, 23168, Note_off_c, 9, 36, 100
10, 23200, Note_off_c, 9, 69, 100
10, 23200, Note_off_c, 9, 60, 100
10, 23200, Note_off_c, 9, 42, 100
10, 23232, Note_on_c, 9, 42, 100
10, 23296, Note_off_c, 9, 42, 100
10, 23328, Note_on_c, 9, 69, 100
10, 23328, Note_on_c, 9, 60, 100
10, 23328, Note_on_c, 9, 36, 100
10, 23328, Note_on_c, 9, 42, 100
10, 23392, Note_off_c, 9, 69, 100
10, 23392, Note_off_c, 9, 60, 100
10, 23392, Note_off_c, 9, 42, 100
10, 23424, Note_on_c, 9, 69, 100
10, 23424, Note_on_c, 9, 60, 100
10, 23424, Note_on_c, 9, 42, 100
10, 23456, Note_off_c, 9, 36, 100
10, 23488, Note_off_c, 9, 69, 100
10, 23488, Note_off_c, 9, 60, 100
10, 23488, Note_off_c, 9, 42, 100
10, 23520, Note_on_c, 9, 42, 100
10, 23584, Note_off_c, 9, 42, 100
10, 23616, Note_on_c, 9, 69, 100
10, 23616, Note_on_c, 9, 63, 100
10, 23616, Note_on_c, 9, 36, 100
10, 23616, Note_on_c, 9, 42, 100
10, 23680, Note_off_c, 9, 69, 100
10, 23680, Note_off_c, 9, 42, 100
10, 23712, Note_on_c, 9, 69, 100
10, 23744, Note_off_c, 9, 63, 100
10, 23744, Note_off_c, 9, 36, 100
10, 23776, Note_off_c, 9, 69, 100
10, 23808, Note_on_c, 9, 36, 100
10, 23808, Note_on_c, 9, 42, 100
10, 23872, Note_off_c, 9, 42, 100
10, 23904, Note_on_c, 9, 42, 100
10, 23936, Note_off_c, 9, 36, 100
10, 23968, Note_off_c, 9, 42, 100
10, 24000, Note_on_c, 9, 42, 100
10, 24064, Note_off_c, 9, 42, 100
10, 24096, Note_on_c, 9, 60, 100
10, 24096, Note_on_c, 9, 36, 100
10, 24096, Note_on_c, 9, 42, 100
10, 24140, Note_on_c, 9, 60, 100
10, 24160, Note_off_c, 9, 60, 100
10, 24160, Note_off_c, 9, 42, 100
10, 24180, Note_on_c, 9, 60, 100
10, 24192, Note_on_c, 9, 69, 100
10, 24192, Note_on_c, 9, 42, 100
10, 24204, Note_off_c, 9, 60, 100
10, 24224, Note_off_c, 9, 36, 100
10, 24244, Note_off_c, 9, 60, 100
10, 24256, Note_off_c, 9, 69, 100
10, 24256, Note_off_c, 9, 42, 100
10, 24288, Note_on_c, 9, 69, 100
10, 24288, Note_on_c, 9, 60, 100
10, 24288, Note_on_c, 9, 42, 100
10, 24352, Note_off_c, 9, 69, 100
10, 24352, Note_off_c, 9, 60, 100
10, 24352, Note_off_c, 9, 42, 100
10, 24384, Note_on_c, 9, 69, 100
10, 24384, Note_on_c, 9, 62, 100
10, 24384, Note_on_c, 9, 42, 100
10, 24448, Note_off_c, 9, 69, 100
10, 24448, Note_off_c, 9, 62, 100
10, 24448, Note_off_c, 9, 42, 100
10, 24480, Note_on_c, 9, 63, 100
10, 24544, Note_off_c, 9, 63, 100
10, 24576, Note_on_c, 9, 36, 100
10, 24576, Note_on_c, 9, 42, 100
10, 24640, Note_off_c, 9, 42, 100
10, 24672, Note_on_c, 9, 69, 100
10, 24672, Note_on_c, 9, 60, 100
10, 24672, Note_on_c, 9, 42, 100
10, 24704, Note_off_c, 9, 36, 100
10, 24736, Note_off_c, 9, 69, 100
10, 24736, Note_off_c, 9, 60, 100
10, 24736, Note_off_c, 9, 42, 100
10, 24768, Note_on_c, 9, 42, 100
10, 24832, Note_off_c, 9, 42, 100
10, 24864, Note_on_c, 9, 69, 100
10, 24864, Note_on_c, 9, 60, 100
10, 24864, Note_on_c, 9, 36, 100
10, 24864, Note_on_c, 9, 42, 100
10, 24928, Note_off_c, 9, 69, 100
10, 24928, Note_off_c, 9, 60, 100
10, 24928, Note_off_c, 9, 42, 100
10, 24960, Note_on_c, 9, 69, 100
10, 24960, Note_on_c, 9, 60, 100
10, 24960, Note_on_c, 9, 42, 100
10, 24992, Note_off_c, 9, 36, 100
10, 25024, Note_off_c, 9, 69, 100
10, 25024, Note_off_c, 9, 60, 100
10, 25024, Note_off_c, 9, 42, 100
10, 25056, Note_on_c, 9, 42, 100
10, 25120, Note_off_c, 9, 42, 100
10, 25152, Note_on_c, 9, 69, 100
10, 25152, Note_on_c, 9, 63, 100
10, 25152, Note_on_c, 9, 36, 100
10, 25152, Note_on_c, 9, 42, 100
10, 25216, Note_off_c, 9, 69, 100
10, 25216, Note_off_c, 9, 42, 100
10, 25248, Note_on_c, 9, 69, 100
10, 25280, Note_off_c, 9, 63, 100
10, 25280, Note_off_c, 9, 36, 100
10, 25312, Note_off_c, 9, 69, 100
10, 25344, Note_on_c, 9, 36, 100
10, 25440, Note_on_c, 9, 42, 100
10, 25472, Note_off_c, 9, 36, 100
10, 25504, Note_off_c, 9, 42, 100
10, 25536, Note_on_c, 9, 42, 100
10, 25600, Note_off_c, 9, 42, 100
10, 25632, Note_on_c, 9, 36, 100
10, 25632, Note_on_c, 9, 42, 100
10, 25632, Note_on_c, 9, 60, 100
10, 25676, Note_on_c, 9, 60, 100
10, 25696, Note_off_c, 9, 42, 100
10, 25696, Note_off_c, 9, 60, 100
10, 25716, Note_on_c, 9, 60, 100
10, 25728, Note_on_c, 9, 42, 100
10, 25728, Note_on_c, 9, 69, 100
10, 25740, Note_off_c, 9, 60, 100
10, 25760, Note_off_c, 9, 36, 100
10, 25780, Note_off_c, 9, 60, 100
10, 25792, Note_off_c, 9, 42, 100
10, 25792, Note_off_c, 9, 69, 100
10, 25824, Note_on_c, 9, 42, 100
10, 25824, Note_on_c, 9, 69, 100
10, 25824, Note_on_c, 9, 60, 100
10, 25888, Note_off_c, 9, 42, 100
10, 25888, Note_off_c, 9, 69, 100
10, 25888, Note_off_c, 9, 60, 100
10, 25920, Note_on_c, 9, 42, 100
10, 25920, Note_on_c, 9, 69, 100
10, 25920, Note_on_c, 9, 62, 100
10, 25984, Note_off_c, 9, 42, 100
10, 25984, Note_off_c, 9, 69, 100
10, 25984, Note_off_c, 9, 62, 100
10, 26016, Note_on_c, 9, 63, 100
10, 26080, Note_off_c, 9, 63, 100
10, 26112, Note_on_c, 9, 36, 100
10, 26112, Note_on_c, 9, 42, 100
10, 26176, Note_off_c, 9, 42, 100
10, 26208, Note_on_c, 9, 42, 100
10, 26208, Note_on_c, 9, 69, 100
10, 26208, Note_on_c, 9, 60, 100
10, 26240, Note_off_c, 9, 36, 100
10, 26272, Note_off_c, 9, 42, 100
10, 26272, Note_off_c, 9, 69, 100
10, 26272, Note_off_c, 9, 60, 100
10, 26304, Note_on_c, 9, 42, 100
10, 26368, Note_off_c, 9, 42, 100
10, 26400, Note_on_c, 9, 36, 100
10, 26400, Note_on_c, 9, 42, 100
10, 26400, Note_on_c, 9, 69, 100
10, 26400, Note_on_c, 9, 60, 100
10, 26464, Note_off_c, 9, 42, 100
10, 26464, Note_off_c, 9, 69, 100
10, 26464, Note_off_c, 9, 60, 100
10, 26496, Note_on_c, 9, 69, 100
10, 26496, Note_on_c, 9, 60, 100
10, 26496, Note_on_c, 9, 42, 100
10, 26528, Note_off_c, 9, 36, 100
10, 26560, Note_off_c, 9, 69, 100
10, 26560, Note_off_c, 9, 60, 100
10, 26560, Note_off_c, 9, 42, 100
10, 26592, Note_on_c, 9, 42, 100
10, 26656, Note_off_c, 9, 42, 100
10, 26688, Note_on_c, 9, 69, 100
10, 26688, Note_on_c, 9, 63, 100
10, 26688, Note_on_c, 9, 36, 100
10, 26688, Note_on_c, 9, 42, 100
10, 26752, Note_off_c, 9, 69, 100
10, 26752, Note_off_c, 9, 42, 100
10, 26784, Note_on_c, 9, 69, 100
10, 26816, Note_off_c, 9, 63, 100
10, 26816, Note_off_c, 9, 36, 100
10, 26848, Note_off_c, 9, 69, 100
10, 26880, Note_on_c, 9, 36, 100
10, 26880, Note_on_c, 9, 42, 100
10, 26944, Note_off_c, 9, 42, 100
10, 26976, Note_on_c, 9, 42, 100
10, 27008, Note_off_c, 9, 36, 100
10, 27040, Note_off_c, 9, 42, 100
10, 27072, Note_on_c, 9, 42, 100
10, 27136, Note_off_c, 9, 42, 100
10, 27168, Note_on_c, 9, 60, 100
10, 27168, Note_on_c, 9, 36, 100
10, 27168, Note_on_c, 9, 42, 100
10, 27212, Note_on_c, 9, 60, 100
10, 27232, Note_off_c, 9, 60, 100
10, 27232, Note_off_c, 9, 42, 100
10, 27252, Note_on_c, 9, 60, 100
10, 27264, Note_on_c, 9, 69, 100
10, 27264, Note_on_c, 9, 42, 100
10, 27276, Note_off_c, 9, 60, 100
10, 27296, Note_off_c, 9, 36, 100
10, 27316, Note_off_c, 9, 60, 100
10, 27328, Note_off_c, 9, 69, 100
10, 27328, Note_off_c, 9, 42, 100
10, 27360, Note_on_c, 9, 69, 100
10, 27360, Note_on_c, 9, 60, 100
10, 27360, Note_on_c, 9, 42, 100
10, 27424, Note_off_c, 9, 69, 100
10, 27424, Note_off_c, 9, 60, 100
10, 27424, Note_off_c, 9, 42, 100
10, 27456, Note_on_c, 9, 69, 100
10, 27456, Note_on_c, 9, 62, 100
10, 27456, Note_on_c, 9, 42, 100
10, 27520, Note_off_c, 9, 69, 100
10, 27520, Note_off_c, 9, 62, 100
10, 27520, Note_off_c, 9, 42, 100
10, 27552, Note_on_c, 9, 63, 100
10, 27616, Note_off_c, 9, 63, 100
10, 27648, Note_on_c, 9, 36, 100
10, 27648, Note_on_c, 9, 42, 100
10, 27712, Note_off_c, 9, 42, 100
10, 27744, Note_on_c, 9, 69, 100
10, 27744, Note_on_c, 9, 60, 100
10, 27744, Note_on_c, 9, 42, 100
10, 27776, Note_off_c, 9, 36, 100
10, 27808, Note_off_c, 9, 69, 100
10, 27808, Note_off_c, 9, 60, 100
10, 27808, Note_off_c, 9, 42, 100
10, 27840, Note_on_c, 9, 42, 100
10, 27904, Note_off_c, 9, 42, 100
10, 27936, Note_on_c, 9, 69, 100
10, 27936, Note_on_c, 9, 60, 100
10, 27936, Note_on_c, 9, 36, 100
10, 27936, Note_on_c, 9, 42, 100
10, 28000, Note_off_c, 9, 69, 100
10, 28000, Note_off_c, 9, 60, 100
10, 28000, Note_off_c, 9, 42, 100
10, 28032, Note_on_c, 9, 69, 100
10, 28032, Note_on_c, 9, 60, 100
10, 28032, Note_on_c, 9, 42, 100
10, 28064, Note_off_c, 9, 36, 100
10, 28096, Note_off_c, 9, 69, 100
10, 28096, Note_off_c, 9, 60, 100
10, 28096, Note_off_c, 9, 42, 100
10, 28128, Note_on_c, 9, 42, 100
10, 28192, Note_off_c, 9, 42, 100
10, 28224, Note_on_c, 9, 69, 100
10, 28224, Note_on_c, 9, 63, 100
10, 28224, Note_on_c, 9, 36, 100
10, 28224, Note_on_c, 9, 42, 100
10, 28288, Note_off_c, 9, 69, 100
10, 28288, Note_off_c, 9, 42, 100
10, 28320, Note_on_c, 9, 69, 100
10, 28352, Note_off_c, 9, 63, 100
10, 28352, Note_off_c, 9, 36, 100
10, 28384, Note_off_c, 9, 69, 100
10, 28416, Note_on_c, 9, 36, 100
10, 28416, Note_on_c, 9, 42, 100
10, 28480, Note_off_c, 9, 42, 100
10, 28512, Note_on_c, 9, 42, 100
10, 28544, Note_off_c, 9, 36, 100
10, 28576, Note_off_c, 9, 42, 100
10, 28608, Note_on_c, 9, 42, 100
10, 28672, Note_off_c, 9, 42, 100
10, 28704, Note_on_c, 9, 60, 100
10, 28704, Note_on_c, 9, 36, 100
10, 28704, Note_on_c, 9, 42, 100
10, 28748, Note_on_c, 9, 60, 100
10, 28768, Note_off_c, 9, 60, 100
10, 28768, Note_off_c, 9, 42, 100
10, 28788, Note_on_c, 9, 60, 100
10, 28800, Note_on_c, 9, 69, 100
10, 28800, Note_on_c, 9, 42, 100
10, 28812, Note_off_c, 9, 60, 100
10, 28832, Note_off_c, 9, 36, 100
10, 28852, Note_off_c, 9, 60, 100
10, 28864, Note_off_c, 9, 69, 100
10, 28864, Note_off_c, 9, 42, 100
10, 28896, Note_on_c, 9, 69, 100
10, 28896, Note_on_c, 9, 60, 100
10, 28896, Note_on_c, 9, 42, 100
10, 28960, Note_off_c, 9, 69, 100
10, 28960, Note_off_c, 9, 60, 100
10, 28960, Note_off_c, 9, 42, 100
10, 28992, Note_on_c, 9, 69, 100
10, 28992, Note_on_c, 9, 62, 100
10, 28992, Note_on_c, 9, 42, 100
10, 29056, Note_off_c, 9, 69, 100
10, 29056, Note_off_c, 9, 62, 100
10, 29056, Note_off_c, 9, 42, 100
10, 29088, Note_on_c, 9, 63, 100
10, 29152, Note_off_c, 9, 63, 100
10, 29184, Note_on_c, 9, 36, 100
10, 29184, Note_on_c, 9, 42, 100
10, 29248, Note_off_c, 9, 42, 100
10, 29280, Note_on_c, 9, 69, 100
10, 29280, Note_on_c, 9, 60, 100
10, 29280, Note_on_c, 9, 42, 100
10, 29312, Note_off_c, 9, 36, 100
10, 29344, Note_off_c, 9, 69, 100
10, 29344, Note_off_c, 9, 60, 100
10, 29344, Note_off_c, 9, 42, 100
10, 29376, Note_on_c, 9, 42, 100
10, 29440, Note_off_c, 9, 42, 100
10, 29472, Note_on_c, 9, 69, 100
10, 29472, Note_on_c, 9, 60, 100
10, 29472, Note_on_c, 9, 36, 100
10, 29472, Note_on_c, 9, 42, 100
10, 29536, Note_off_c, 9, 69, 100
10, 29536, Note_off_c, 9, 60, 100
10, 29536, Note_off_c, 9, 42, 100
10, 29568, Note_on_c, 9, 69, 100
10, 29568, Note_on_c, 9, 60, 100
10, 29568, Note_on_c, 9, 42, 100
10, 29600, Note_off_c, 9, 36, 100
10, 29632, Note_off_c, 9, 69, 100
10, 29632, Note_off_c, 9, 60, 100
10, 29632, Note_off_c, 9, 42, 100
10, 29664, Note_on_c, 9, 42, 100
10, 29728, Note_off_c, 9, 42, 100
10, 29760, Note_on_c, 9, 69, 100
10, 29760, Note_on_c, 9, 63, 100
10, 29760, Note_on_c, 9, 36, 100
10, 29760, Note_on_c, 9, 42, 100
10, 29824, Note_off_c, 9, 69, 100
10, 29824, Note_off_c, 9, 42, 100
10, 29856, Note_on_c, 9, 69, 100
10, 29888, Note_off_c, 9, 63, 100
10, 29888, Note_off_c, 9, 36, 100
10, 29920, Note_off_c, 9, 69, 100
10, 29952, Note_on_c, 9, 36, 100
10, 29952, Note_on_c, 9, 42, 100
10, 30016, Note_off_c, 9, 42, 100
10, 30048, Note_on_c, 9, 42, 100
10, 30080, Note_off_c, 9, 36, 100
10, 30112, Note_off_c, 9, 42, 100
10, 30144, Note_on_c, 9, 42, 100
10, 30208, Note_off_c, 9, 42, 100
10, 30240, Note_on_c, 9, 60, 100
10, 30240, Note_on_c, 9, 36, 100
10, 30240, Note_on_c, 9, 42, 100
10, 30284, Note_on_c, 9, 60, 100
10, 30304, Note_off_c, 9, 60, 100
10, 30304, Note_off_c, 9, 42, 100
10, 30324, Note_on_c, 9, 60, 100
10, 30336, Note_on_c, 9, 69, 100
10, 30336, Note_on_c, 9, 42, 100
10, 30348, Note_off_c, 9, 60, 100
10, 30368, Note_off_c, 9, 36, 100
10, 30388, Note_off_c, 9, 60, 100
10, 30400, Note_off_c, 9, 69, 100
10, 30400, Note_off_c, 9, 42, 100
10, 30432, Note_on_c, 9, 69, 100
10, 30432, Note_on_c, 9, 60, 100
10, 30432, Note_on_c, 9, 42, 100
10, 30496, Note_off_c, 9, 69, 100
10, 30496, Note_off_c, 9, 60, 100
10, 30496, Note_off_c, 9, 42, 100
10, 30528, Note_on_c, 9, 69, 100
10, 30528, Note_on_c, 9, 62, 100
10, 30528, Note_on_c, 9, 42, 100
10, 30592, Note_off_c, 9, 69, 100
10, 30592, Note_off_c, 9, 62, 100
10, 30592, Note_off_c, 9, 42, 100
10, 30624, Note_on_c, 9, 63, 100
10, 30688, Note_off_c, 9, 63, 100
10, 30720, Note_on_c, 9, 36, 100
10, 30720, Note_on_c, 9, 42, 100
10, 30784, Note_off_c, 9, 42, 100
10, 30816, Note_on_c, 9, 69, 100
10, 30816, Note_on_c, 9, 60, 100
10, 30816, Note_on_c, 9, 42, 100
10, 30848, Note_off_c, 9, 36, 100
10, 30880, Note_off_c, 9, 69, 100
10, 30880, Note_off_c, 9, 60, 100
10, 30880, Note_off_c, 9, 42, 100
10, 30912, Note_on_c, 9, 42, 100
10, 30976, Note_off_c, 9, 42, 100
10, 31008, Note_on_c, 9, 69, 100
10, 31008, Note_on_c, 9, 60, 100
10, 31008, Note_on_c, 9, 36, 100
10, 31008, Note_on_c, 9, 42, 100
10, 31072, Note_off_c, 9, 69, 100
10, 31072, Note_off_c, 9, 60, 100
10, 31072, Note_off_c, 9, 42, 100
10, 31104, Note_on_c, 9, 69, 100
10, 31104, Note_on_c, 9, 60, 100
10, 31104, Note_on_c, 9, 42, 100
10, 31136, Note_off_c, 9, 36, 100
10, 31168, Note_off_c, 9, 69, 100
10, 31168, Note_off_c, 9, 60, 100
10, 31168, Note_off_c, 9, 42, 100
10, 31200, Note_on_c, 9, 42, 100
10, 31264, Note_off_c, 9, 42, 100
10, 31296, Note_on_c, 9, 69, 100
10, 31296, Note_on_c, 9, 63, 100
10, 31296, Note_on_c, 9, 36, 100
10, 31296, Note_on_c, 9, 42, 100
10, 31360, Note_off_c, 9, 69, 100
10, 31360, Note_off_c, 9, 42, 100
10, 31392, Note_on_c, 9, 69, 100
10, 31424, Note_off_c, 9, 63, 100
10, 31424, Note_off_c, 9, 36, 100
10, 31456, Note_off_c, 9, 69, 100
10, 31488, Note_on_c, 9, 36, 100
10, 31488, Note_on_c, 9, 42, 100
10, 31552, Note_off_c, 9, 42, 100
10, 31584, Note_on_c, 9, 42, 100
10, 31616, Note_off_c, 9, 36, 100
10, 31648, Note_off_c, 9, 42, 100
10, 31680, Note_on_c, 9, 42, 100
10, 31744, Note_off_c, 9, 42, 100
10, 31776, Note_on_c, 9, 60, 100
10, 31776, Note_on_c, 9, 36, 100
10, 31776, Note_on_c, 9, 42, 100
10, 31820, Note_on_c, 9, 60, 100
10, 31840, Note_off_c, 9, 60, 100
10, 31840, Note_off_c, 9, 42, 100
10, 31860, Note_on_c, 9, 60, 100
10, 31872, Note_on_c, 9, 69, 100
10, 31872, Note_on_c, 9, 42, 100
10, 31884, Note_off_c, 9, 60, 100
10, 31904, Note_off_c, 9, 36, 100
10, 31924, Note_off_c, 9, 60, 100
10, 31936, Note_off_c, 9, 69, 100
10, 31936, Note_off_c, 9, 42, 100
10, 31968, Note_on_c, 9, 69, 100
10, 31968, Note_on_c, 9, 60, 100
10, 31968, Note_on_c, 9, 42, 100
10, 32032, Note_off_c, 9, 69, 100
10, 32032, Note_off_c, 9, 60, 100
10, 32032, Note_off_c, 9, 42, 100
10, 32064, Note_on_c, 9, 69, 100
10, 32064, Note_on_c, 9, 62, 100
10, 32064, Note_on_c, 9, 42, 100
10, 32128, Note_off_c, 9, 69, 100
10, 32128, Note_off_c, 9, 62, 100
10, 32128, Note_off_c, 9, 42, 100
10, 32160, Note_on_c, 9, 63, 100
10, 32224, Note_off_c, 9, 63, 100
10, 32256, Note_on_c, 9, 36, 100
10, 32256, Note_on_c, 9, 42, 100
10, 32320, Note_off_c, 9, 42, 100
10, 32352, Note_on_c, 9, 69, 100
10, 32352, Note_on_c, 9, 60, 100
10, 32352, Note_on_c, 9, 42, 100
10, 32384, Note_off_c, 9, 36, 100
10, 32416, Note_off_c, 9, 69, 100
10, 32416, Note_off_c, 9, 60, 100
10, 32416, Note_off_c, 9, 42, 100
10, 32448, Note_on_c, 9, 42, 100
10, 32512, Note_off_c, 9, 42, 100
10, 32544, Note_on_c, 9, 69, 100
10, 32544, Note_on_c, 9, 60, 100
10, 32544, Note_on_c, 9, 36, 100
10, 32544, Note_on_c, 9, 42, 100
10, 32608, Note_off_c, 9, 69, 100
10, 32608, Note_off_c, 9, 60, 100
10, 32608, Note_off_c, 9, 42, 100
10, 32640, Note_on_c, 9, 69, 100
10, 32640, Note_on_c, 9, 60, 100
10, 32640, Note_on_c, 9, 42, 100
10, 32672, Note_off_c, 9, 36, 100
10, 32704, Note_off_c, 9, 69, 100
10, 32704, Note_off_c, 9, 60, 100
10, 32704, Note_off_c, 9, 42, 100
10, 32736, Note_on_c, 9, 42, 100
10, 32800, Note_off_c, 9, 42, 100
10, 32832, Note_on_c, 9, 69, 100
10, 32832, Note_on_c, 9, 63, 100
10, 32832, Note_on_c, 9, 36, 100
10, 32832, Note_on_c, 9, 42, 100
10, 32896, Note_off_c, 9, 69, 100
10, 32896, Note_off_c, 9, 42, 100
10, 32928, Note_on_c, 9, 69, 100
10, 32960, Note_off_c, 9, 63, 100
10, 32960, Note_off_c, 9, 36, 100
10, 32992, Note_off_c, 9, 69, 100
10, 33024, Note_on_c, 9, 36, 100
10, 33024, Note_on_c, 9, 42, 100
10, 33088, Note_off_c, 9, 42, 100
10, 33120, Note_on_c, 9, 42, 100
10, 33152, Note_off_c, 9, 36, 100
10, 33184, Note_off_c, 9, 42, 100
10, 33216, Note_on_c, 9, 42, 100
10, 33280, Note_off_c, 9, 42, 100
10, 33312, Note_on_c, 9, 60, 100
10, 33312, Note_on_c, 9, 36, 100
10, 33312, Note_on_c, 9, 42, 100
10, 33356, Note_on_c, 9, 60, 100
10, 33376, Note_off_c, 9, 60, 100
10, 33376, Note_off_c, 9, 42, 100
10, 33396, Note_on_c, 9, 60, 100
10, 33408, Note_on_c, 9, 69, 100
10, 33408, Note_on_c, 9, 42, 100
10, 33420, Note_off_c, 9, 60, 100
10, 33440, Note_off_c, 9, 36, 100
10, 33460, Note_off_c, 9, 60, 100
10, 33472, Note_off_c, 9, 69, 100
10, 33472, Note_off_c, 9, 42, 100
10, 33504, Note_on_c, 9, 69, 100
10, 33504, Note_on_c, 9, 60, 100
10, 33504, Note_on_c, 9, 42, 100
10, 33568, Note_off_c, 9, 69, 100
10, 33568, Note_off_c, 9, 60, 100
10, 33568, Note_off_c, 9, 42, 100
10, 33600, Note_on_c, 9, 69, 100
10, 33600, Note_on_c, 9, 62, 100
10, 33600, Note_on_c, 9, 42, 100
10, 33664, Note_off_c, 9, 69, 100
10, 33664, Note_off_c, 9, 62, 100
10, 33664, Note_off_c, 9, 42, 100
10, 33696, Note_on_c, 9, 63, 100
10, 33760, Note_off_c, 9, 63, 100
10, 33792, Note_on_c, 9, 36, 100
10, 33792, Note_on_c, 9, 42, 100
10, 33856, Note_off_c, 9, 42, 100
10, 33888, Note_on_c, 9, 69, 100
10, 33888, Note_on_c, 9, 60, 100
10, 33888, Note_on_c, 9, 42, 100
10, 33920, Note_off_c, 9, 36, 100
10, 33952, Note_off_c, 9, 69, 100
10, 33952, Note_off_c, 9, 60, 100
10, 33952, Note_off_c, 9, 42, 100
10, 33984, Note_on_c, 9, 42, 100
10, 34048, Note_off_c, 9, 42, 100
10, 34080, Note_on_c, 9, 69, 100
10, 34080, Note_on_c, 9, 60, 100
10, 34080, Note_on_c, 9, 36, 100
10, 34080, Note_on_c, 9, 42, 100
10, 34144, Note_off_c, 9, 69, 100
10, 34144, Note_off_c, 9, 60, 100
10, 34144, Note_off_c, 9, 42, 100
10, 34176, Note_on_c, 9, 69, 100
10, 34176, Note_on_c, 9, 60, 100
10, 34176, Note_on_c, 9, 42, 100
10, 34208, Note_off_c, 9, 36, 100
10, 34240, Note_off_c, 9, 69, 100
10, 34240, Note_off_c, 9, 60, 100
10, 34240, Note_off_c, 9, 42, 100
10, 34272, Note_on_c, 9, 42, 100
10, 34336, Note_off_c, 9, 42, 100
10, 34368, Note_on_c, 9, 69, 100
10, 34368, Note_on_c, 9, 63, 100
10, 34368, Note_on_c, 9, 36, 100
10, 34368, Note_on_c, 9, 42, 100
10, 34432, Note_off_c, 9, 69, 100
10, 34432, Note_off_c, 9, 42, 100
10, 34464, Note_on_c, 9, 69, 100
10, 34496, Note_off_c, 9, 63, 100
10, 34496, Note_off_c, 9, 36, 100
10, 34528, Note_off_c, 9, 69, 100
10, 34560, Note_on_c, 9, 36, 100
10, 34560, Note_on_c, 9, 42, 100
10, 34624, Note_off_c, 9, 42, 100
10, 34656, Note_on_c, 9, 42, 100
10, 34688, Note_off_c, 9, 36, 100
10, 34720, Note_off_c, 9, 42, 100
10, 34752, Note_on_c, 9, 42, 100
10, 34816, Note_off_c, 9, 42, 100
10, 34848, Note_on_c, 9, 60, 100
10, 34848, Note_on_c, 9, 36, 100
10, 34848, Note_on_c, 9, 42, 100
10, 34892, Note_on_c, 9, 60, 100
10, 34912, Note_off_c, 9, 60, 100
10, 34912, Note_off_c, 9, 42, 100
10, 34932, Note_on_c, 9, 60, 100
10, 34944, Note_on_c, 9, 69, 100
10, 34944, Note_on_c, 9, 42, 100
10, 34956, Note_off_c, 9, 60, 100
10, 34976, Note_off_c, 9, 36, 100
10, 34996, Note_off_c, 9, 60, 100
10, 35008, Note_off_c, 9, 69, 100
10, 35008, Note_off_c, 9, 42, 100
10, 35040, Note_on_c, 9, 69, 100
10, 35040, Note_on_c, 9, 60, 100
10, 35040, Note_on_c, 9, 42, 100
10, 35104, Note_off_c, 9, 69, 100
10, 35104, Note_off_c, 9, 60, 100
10, 35104, Note_off_c, 9, 42, 100
10, 35136, Note_on_c, 9, 69, 100
10, 35136, Note_on_c, 9, 62, 100
10, 35136, Note_on_c, 9, 42, 100
10, 35200, Note_off_c, 9, 69, 100
10, 35200, Note_off_c, 9, 62, 100
10, 35200, Note_off_c, 9, 42, 100
10, 35232, Note_on_c, 9, 63, 100
10, 35296, Note_off_c, 9, 63, 100
10, 35328, Note_on_c, 9, 36, 100
10, 35328, Note_on_c, 9, 42, 100
10, 35392, Note_off_c, 9, 42, 100
10, 35424, Note_on_c, 9, 69, 100
10, 35424, Note_on_c, 9, 60, 100
10, 35424, Note_on_c, 9, 42, 100
10, 35456, Note_off_c, 9, 36, 100
10, 35488, Note_off_c, 9, 69, 100
10, 35488, Note_off_c, 9, 60, 100
10, 35488, Note_off_c, 9, 42, 100
10, 35520, Note_on_c, 9, 42, 100
10, 35584, Note_off_c, 9, 42, 100
10, 35616, Note_on_c, 9, 69, 100
10, 35616, Note_on_c, 9, 60, 100
10, 35616, Note_on_c, 9, 36, 100
10, 35616, Note_on_c, 9, 42, 100
10, 35680, Note_off_c, 9, 69, 100
10, 35680, Note_off_c, 9, 60, 100
10, 35680, Note_off_c, 9, 42, 100
10, 35712, Note_on_c, 9, 69, 100
10, 35712, Note_on_c, 9, 60, 100
10, 35712, Note_on_c, 9, 42, 100
10, 35744, Note_off_c, 9, 36, 100
10, 35776, Note_off_c, 9, 69, 100
10, 35776, Note_off_c, 9, 60, 100
10, 35776, Note_off_c, 9, 42, 100
10, 35808, Note_on_c, 9, 42, 100
10, 35872, Note_off_c, 9, 42, 100
10, 35904, Note_on_c, 9, 69, 100
10, 35904, Note_on_c, 9, 63, 100
10, 35904, Note_on_c, 9, 36, 100
10, 35904, Note_on_c, 9, 42, 100
10, 35968, Note_off_c, 9, 69, 100
10, 35968, Note_off_c, 9, 42, 100
10, 36000, Note_on_c, 9, 69, 100
10, 36032, Note_off_c, 9, 63, 100
10, 36032, Note_off_c, 9, 36, 100
10, 36064, Note_off_c, 9, 69, 100
10, 36096, Note_on_c, 9, 36, 100
10, 36096, Note_on_c, 9, 42, 100
10, 36160, Note_off_c, 9, 42, 100
10, 36192, Note_on_c, 9, 42, 100
10, 36224, Note_off_c, 9, 36, 100
10, 36256, Note_off_c, 9, 42, 100
10, 36288, Note_on_c, 9, 42, 100
10, 36352, Note_off_c, 9, 42, 100
10, 36384, Note_on_c, 9, 60, 100
10, 36384, Note_on_c, 9, 36, 100
10, 36384, Note_on_c, 9, 42, 100
10, 36428, Note_on_c, 9, 60, 100
10, 36448, Note_off_c, 9, 60, 100
10, 36448, Note_off_c, 9, 42, 100
10, 36468, Note_on_c, 9, 60, 100
10, 36480, Note_on_c, 9, 69, 100
10, 36480, Note_on_c, 9, 42, 100
10, 36492, Note_off_c, 9, 60, 100
10, 36512, Note_off_c, 9, 36, 100
10, 36532, Note_off_c, 9, 60, 100
10, 36544, Note_off_c, 9, 69, 100
10, 36544, Note_off_c, 9, 42, 100
10, 36576, Note_on_c, 9, 69, 100
10, 36576, Note_on_c, 9, 60, 100
10, 36576, Note_on_c, 9, 42, 100
10, 36640, Note_off_c, 9, 69, 100
10, 36640, Note_off_c, 9, 60, 100
10, 36640, Note_off_c, 9, 42, 100
10, 36672, Note_on_c, 9, 69, 100
10, 36672, Note_on_c, 9, 62, 100
10, 36672, Note_on_c, 9, 42, 100
10, 36736, Note_off_c, 9, 69, 100
10, 36736, Note_off_c, 9, 62, 100
10, 36736, Note_off_c, 9, 42, 100
10, 36768, Note_on_c, 9, 63, 100
10, 36832, Note_off_c, 9, 63, 100
10, 36832, End_track
11, 0, Start_track
11, 0, Control_c, 7, 0, 0
11, 0, Program_c, 7, 46
11, 0, Control_c, 7, 7, 100
11, 11520, Note_on_c, 7, 39, 80
11, 11612, Note_on_c, 7, 44, 71
11, 11676, Note_off_c, 7, 39, 0
11, 11712, Note_on_c, 7, 51, 69
11, 11740, Note_off_c, 7, 44, 0
11, 11808, Note_on_c, 7, 56, 75
11, 11844, Note_off_c, 7, 51, 0
11, 11904, Note_off_c, 7, 56, 0
11, 11904, Note_on_c, 7, 63, 80
11, 12000, Note_on_c, 7, 68, 71
11, 12060, Note_off_c, 7, 63, 0
11, 12096, Note_on_c, 7, 75, 69
11, 12128, Note_off_c, 7, 68, 0
11, 12192, Note_on_c, 7, 80, 75
11, 12228, Note_off_c, 7, 75, 0
11, 12288, Note_off_c, 7, 80, 0
11, 23808, Note_on_c, 7, 39, 80
11, 23900, Note_on_c, 7, 44, 71
11, 23964, Note_off_c, 7, 39, 0
11, 24000, Note_on_c, 7, 51, 69
11, 24028, Note_off_c, 7, 44, 0
11, 24096, Note_on_c, 7, 56, 75
11, 24132, Note_off_c, 7, 51, 0
11, 24192, Note_off_c, 7, 56, 0
11, 24192, Note_on_c, 7, 63, 80
11, 24288, Note_on_c, 7, 68, 71
11, 24348, Note_off_c, 7, 63, 0
11, 24384, Note_on_c, 7, 75, 69
11, 24416, Note_off_c, 7, 68, 0
11, 24480, Note_on_c, 7, 80, 75
11, 24516, Note_off_c, 7, 75, 0
11, 24576, Note_off_c, 7, 80, 0
11, 36096, Note_on_c, 7, 39, 80
11, 36188, Note_on_c, 7, 44, 71
11, 36252, Note_off_c, 7, 39, 0
11, 36288, Note_on_c, 7, 51, 69
11, 36316, Note_off_c, 7, 44, 0
11, 36384, Note_on_c, 7, 56, 75
11, 36420, Note_off_c, 7, 51, 0
11, 36480, Note_off_c, 7, 56, 0
11, 36480, Note_on_c, 7, 63, 80
11, 36576, Note_on_c, 7, 68, 71
11, 36636, Note_off_c, 7, 63, 0
11, 36672, Note_on_c, 7, 75, 69
11, 36704, Note_off_c, 7, 68, 0
11, 36768, Note_on_c, 7, 80, 75
11, 36804, Note_off_c, 7, 75, 0
11, 36864, Note_off_c, 7, 80, 0
11, 36864, End_track
12, 0, Start_track
12, 0, Control_c, 8, 0, 0
12, 0, Program_c, 8, 52
12, 0, Control_c, 8, 7, 100
12, 0, End_track
13, 0, Start_track
13, 0, Control_c, 9, 0, 0
13, 0, Program_c, 9, 0
13, 0, Control_c, 9, 7, 100
13, 0, End_track
14, 0, Start_track
14, 0, Control_c, 10, 7, 100
14, 0, End_track
15, 0, Start_track
15, 0, Control_c, 11, 7, 100
15, 0, End_track
16, 0, Start_track
16, 0, Control_c, 12, 7, 100
16, 0, End_track
17, 0, Start_track
17, 0, Control_c, 13, 7, 100
17, 0, End_track
18, 0, Start_track
18, 0, Control_c, 14, 7, 100
18, 0, End_track
19, 0, Start_track
19, 0, Control_c, 15, 7, 100
19, 0, End_track
20, 0, Start_track
20, 0, End_track
21, 0, Start_track
21, 0, End_track
22, 0, Start_track
22, 0, End_track
23, 0, Start_track
23, 0, End_track
24, 0, Start_track
24, 0, End_track
25, 0, Start_track
25, 0, End_track
26, 0, Start_track
26, 0, End_track
27, 0, Start_track
27, 0, End_track
28, 0, Start_track
28, 0, End_track
29, 0, Start_track
29, 0, End_track
30, 0, Start_track
30, 0, End_track
31, 0, Start_track
31, 0, End_track
32, 0, Start_track
32, 0, End_track
33, 0, Start_track
33, 0, End_track
34, 0, Start_track
34, 0, End_track
35, 0, Start_track
35, 0, End_track
36, 0, Start_track
36, 0, End_track
37, 0, Start_track
37, 0, End_track
38, 0, Start_track
38, 0, End_track
39, 0, Start_track
39, 0, End_track
40, 0, Start_track
40, 0, End_track
41, 0, Start_track
41, 0, End_track
42, 0, Start_track
42, 0, End_track
43, 0, Start_track
43, 0, End_track
44, 0, Start_track
44, 0, End_track
45, 0, Start_track
45, 0, End_track
46, 0, Start_track
46, 0, End_track
47, 0, Start_track
47, 0, End_track
48, 0, Start_track
48, 0, End_track
49, 0, Start_track
49, 0, End_track
50, 0, Start_track
50, 0, End_track
51, 0, Start_track
51, 0, End_track
52, 0, Start_track
52, 0, End_track
53, 0, Start_track
53, 0, End_track
54, 0, Start_track
54, 0, End_track
55, 0, Start_track
55, 0, End_track
56, 0, Start_track
56, 0, End_track
57, 0, Start_track
57, 0, End_track
58, 0, Start_track
58, 0, End_track
59, 0, Start_track
59, 0, End_track
60, 0, Start_track
60, 0, End_track
61, 0, Start_track
61, 0, End_track
62, 0, Start_track
62, 0, End_track
63, 0, Start_track
63, 0, End_track
64, 0, Start_track
64, 0, End_track
65, 0, Start_track
65, 0, End_track
66, 0, Start_track
66, 0, End_track
67, 0, Start_track
67, 0, End_track
68, 0, Start_track
68, 0, End_track
69, 0, Start_track
69, 0, End_track
70, 0, Start_track
70, 0, End_track
71, 0, Start_track
71, 0, End_track
72, 0, Start_track
72, 0, End_track
73, 0, Start_track
73, 0, End_track
74, 0, Start_track
74, 0, End_track
75, 0, Start_track
75, 0, End_track
76, 0, Start_track
76, 0, End_track
77, 0, Start_track
77, 0, End_track
78, 0, Start_track
78, 0, End_track
79, 0, Start_track
79, 0, End_track
80, 0, Start_track
80, 0, End_track
81, 0, Start_track
81, 0, End_track
82, 0, Start_track
82, 0, End_track
83, 0, Start_track
83, 0, End_track
84, 0, Start_track
84, 0, End_track
85, 0, Start_track
85, 0, End_track
86, 0, Start_track
86, 0, End_track
87, 0, Start_track
87, 0, End_track
88, 0, Start_track
88, 0, End_track
89, 0, Start_track
89, 0, End_track
90, 0, Start_track
90, 0, End_track
91, 0, Start_track
91, 0, End_track
92, 0, Start_track
92, 0, End_track
93, 0, Start_track
93, 0, End_track
94, 0, Start_track
94, 0, End_track
95, 0, Start_track
95, 0, End_track
96, 0, Start_track
96, 0, End_track
97, 0, Start_track
97, 0, End_track
98, 0, Start_track
98, 0, End_track
99, 0, Start_track
99, 0, End_track
100, 0, Start_track
100, 0, End_track
101, 0, Start_track
101, 0, End_track
102, 0, Start_track
102, 0, End_track
103, 0, Start_track
103, 0, End_track
104, 0, Start_track
104, 0, End_track
105, 0, Start_track
105, 0, End_track
106, 0, Start_track
106, 0, End_track
107, 0, Start_track
107, 0, End_track
108, 0, Start_track
108, 0, End_track
109, 0, Start_track
109, 0, End_track
110, 0, Start_track
110, 0, End_track
111, 0, Start_track
111, 0, End_track
112, 0, Start_track
112, 0, End_track
113, 0, Start_track
113, 0, End_track
114, 0, Start_track
114, 0, End_track
115, 0, Start_track
115, 0, End_track
116, 0, Start_track
116, 0, End_track
117, 0, Start_track
117, 0, End_track
118, 0, Start_track
118, 0, End_track
119, 0, Start_track
119, 0, End_track
120, 0, Start_track
120, 0, End_track
121, 0, Start_track
121, 0, End_track
122, 0, Start_track
122, 0, End_track
123, 0, Start_track
123, 0, End_track
124, 0, Start_track
124, 0, End_track
125, 0, Start_track
125, 0, End_track
126, 0, Start_track
126, 0, End_track
127, 0, Start_track
127, 0, End_track
128, 0, Start_track
128, 0, End_track
129, 0, Start_track
129, 0, End_track
130, 0, Start_track
130, 0, End_track
131, 0, Start_track
131, 0, End_track
0, 0, End_of_file
