0, 0, Header, 1, 10, 480
1, 0, Start_track
1, 0, System_exclusive, 10, 65, 16, 66, 18, 64, 0, 127, 0, 65, 247
1, 0, Text_t, "EL. PIAN\015\012*\010 Check\015\012*\010 Check\015\012*\010 Check\015\012*\010 Check\015\012*\010 Check\015\012*\010 Check\015\012*\010 Check\015\012*\010 Check"
1, 0, Tempo, 550458
1, 0, Time_signature, 4, 2, 24, 8
1, 0, Key_signature, 0, "major"
1, 0, End_track
2, 0, Start_track
2, 0, Title_t, "tk1"
2, 0, MIDI_port, 0
2, 0, Channel_prefix, 0
2, 0, Control_c, 0, 10, 64
2, 480, Control_c, 0, 0, 0
2, 485, Control_c, 0, 32, 0
2, 490, Program_c, 0, 5
2, 495, Control_c, 0, 7, 110
2, 495, Control_c, 0, 10, 74
2, 495, Control_c, 0, 11, 127
2, 500, Control_c, 0, 91, 50
2, 500, Control_c, 0, 93, 70
2, 19200, Note_on_c, 0, 28, 95
2, 19200, Note_on_c, 0, 40, 95
2, 19485, Note_off_c, 0, 28, 64
2, 19495, Note_off_c, 0, 40, 64
2, 20160, Note_on_c, 0, 35, 91
2, 20160, Note_on_c, 0, 47, 89
2, 20425, Note_off_c, 0, 35, 64
2, 20445, Note_off_c, 0, 47, 64
2, 20640, Note_on_c, 0, 36, 87
2, 20640, Note_on_c, 0, 48, 87
2, 20955, Note_off_c, 0, 36, 64
2, 20975, Note_off_c, 0, 48, 64
2, 21120, Note_on_c, 0, 38, 93
2, 21120, Note_on_c, 0, 50, 89
2, 21435, Note_off_c, 0, 50, 64
2, 21440, Note_off_c, 0, 38, 64
2, 22080, Note_on_c, 0, 33, 95
2, 22080, Note_on_c, 0, 45, 89
2, 22380, Note_off_c, 0, 33, 64
2, 22415, Note_off_c, 0, 45, 64
2, 22560, Note_on_c, 0, 35, 89
2, 22560, Note_on_c, 0, 47, 89
2, 22825, Note_off_c, 0, 47, 64
2, 22895, Note_off_c, 0, 35, 64
2, 23040, Note_on_c, 0, 28, 97
2, 23040, Note_on_c, 0, 40, 89
2, 23355, Note_off_c, 0, 28, 64
2, 23385, Note_off_c, 0, 40, 64
2, 24000, Note_on_c, 0, 35, 93
2, 24000, Note_on_c, 0, 47, 87
2, 24295, Note_off_c, 0, 35, 64
2, 24330, Note_off_c, 0, 47, 64
2, 24480, Note_on_c, 0, 36, 85
2, 24480, Note_on_c, 0, 48, 89
2, 24780, Note_off_c, 0, 36, 64
2, 24795, Note_off_c, 0, 48, 64
2, 24960, Note_on_c, 0, 38, 93
2, 24960, Note_on_c, 0, 50, 89
2, 25255, Note_off_c, 0, 38, 64
2, 25270, Note_off_c, 0, 50, 64
2, 26880, Note_on_c, 0, 50, 88
2, 26880, Note_on_c, 0, 55, 96
2, 26880, Note_on_c, 0, 59, 96
2, 27150, Note_off_c, 0, 50, 64
2, 27160, Note_off_c, 0, 55, 64
2, 27170, Note_off_c, 0, 59, 64
2, 27840, Note_on_c, 0, 54, 102
2, 27840, Note_on_c, 0, 57, 96
2, 27840, Note_on_c, 0, 62, 94
2, 28015, Note_off_c, 0, 54, 64
2, 28030, Note_off_c, 0, 62, 64
2, 28060, Note_off_c, 0, 57, 64
2, 28200, Note_on_c, 0, 54, 96
2, 28200, Note_on_c, 0, 57, 90
2, 28200, Note_on_c, 0, 62, 84
2, 28370, Note_off_c, 0, 62, 64
2, 28400, Note_off_c, 0, 54, 64
2, 28430, Note_off_c, 0, 57, 64
2, 28560, Note_on_c, 0, 52, 86
2, 28560, Note_on_c, 0, 55, 92
2, 28560, Note_on_c, 0, 60, 84
2, 28780, Note_off_c, 0, 52, 64
2, 28790, Note_off_c, 0, 55, 64
2, 28805, Note_off_c, 0, 60, 64
2, 29760, Note_on_c, 0, 52, 77
2, 29760, Note_on_c, 0, 55, 90
2, 29760, Note_on_c, 0, 60, 84
2, 29940, Note_off_c, 0, 60, 64
2, 29955, Note_off_c, 0, 55, 64
2, 29965, Note_off_c, 0, 52, 64
2, 30240, Note_on_c, 0, 54, 96
2, 30240, Note_on_c, 0, 57, 96
2, 30240, Note_on_c, 0, 62, 92
2, 30480, Note_off_c, 0, 54, 64
2, 30485, Note_off_c, 0, 62, 64
2, 30515, Note_off_c, 0, 57, 64
2, 30720, Note_on_c, 0, 50, 72
2, 30720, Note_on_c, 0, 55, 92
2, 30720, Note_on_c, 0, 59, 83
2, 30995, Note_off_c, 0, 50, 64
2, 31020, Note_off_c, 0, 55, 64
2, 31020, Note_off_c, 0, 59, 64
2, 31680, Note_on_c, 0, 54, 100
2, 31680, Note_on_c, 0, 57, 96
2, 31680, Note_on_c, 0, 62, 92
2, 31840, Note_off_c, 0, 54, 64
2, 31855, Note_off_c, 0, 57, 64
2, 31855, Note_off_c, 0, 62, 64
2, 32040, Note_on_c, 0, 54, 92
2, 32040, Note_on_c, 0, 57, 83
2, 32040, Note_on_c, 0, 62, 83
2, 32210, Note_off_c, 0, 62, 64
2, 32235, Note_off_c, 0, 54, 64
2, 32245, Note_off_c, 0, 57, 64
2, 32400, Note_on_c, 0, 50, 94
2, 32400, Note_on_c, 0, 52, 84
2, 32400, Note_on_c, 0, 55, 92
2, 32400, Note_on_c, 0, 60, 88
2, 32605, Note_off_c, 0, 55, 64
2, 32610, Note_off_c, 0, 52, 64
2, 32610, Note_off_c, 0, 50, 64
2, 32625, Note_off_c, 0, 60, 64
2, 33600, Note_on_c, 0, 50, 86
2, 33600, Note_on_c, 0, 52, 81
2, 33600, Note_on_c, 0, 55, 90
2, 33600, Note_on_c, 0, 60, 86
2, 33770, Note_off_c, 0, 52, 64
2, 33775, Note_off_c, 0, 55, 64
2, 33785, Note_off_c, 0, 60, 64
2, 33790, Note_off_c, 0, 50, 64
2, 34080, Note_on_c, 0, 50, 84
2, 34080, Note_on_c, 0, 52, 88
2, 34080, Note_on_c, 0, 55, 96
2, 34080, Note_on_c, 0, 60, 88
2, 34225, Note_off_c, 0, 50, 64
2, 34270, Note_off_c, 0, 52, 64
2, 34280, Note_off_c, 0, 60, 64
2, 34295, Note_off_c, 0, 55, 64
2, 34560, Note_on_c, 0, 50, 84
2, 34560, Note_on_c, 0, 55, 90
2, 34560, Note_on_c, 0, 59, 80
2, 34780, Note_off_c, 0, 50, 64
2, 34790, Note_off_c, 0, 55, 64
2, 34795, Note_off_c, 0, 59, 64
2, 35520, Note_on_c, 0, 54, 94
2, 35520, Note_on_c, 0, 57, 84
2, 35520, Note_on_c, 0, 62, 86
2, 35695, Note_off_c, 0, 62, 64
2, 35700, Note_off_c, 0, 57, 64
2, 35700, Note_off_c, 0, 54, 64
2, 35880, Note_on_c, 0, 54, 92
2, 35880, Note_on_c, 0, 57, 88
2, 35880, Note_on_c, 0, 62, 84
2, 36035, Note_off_c, 0, 62, 64
2, 36060, Note_off_c, 0, 54, 64
2, 36075, Note_off_c, 0, 57, 64
2, 36240, Note_on_c, 0, 52, 83
2, 36240, Note_on_c, 0, 55, 92
2, 36240, Note_on_c, 0, 60, 86
2, 36415, Note_off_c, 0, 55, 64
2, 36420, Note_off_c, 0, 52, 64
2, 36425, Note_off_c, 0, 60, 64
2, 37440, Note_on_c, 0, 52, 84
2, 37440, Note_on_c, 0, 55, 94
2, 37440, Note_on_c, 0, 60, 84
2, 37610, Note_off_c, 0, 52, 64
2, 37620, Note_off_c, 0, 55, 64
2, 37620, Note_off_c, 0, 60, 64
2, 37920, Note_on_c, 0, 54, 100
2, 37920, Note_on_c, 0, 57, 90
2, 37920, Note_on_c, 0, 62, 90
2, 38120, Note_off_c, 0, 62, 64
2, 38120, Note_off_c, 0, 54, 64
2, 38140, Note_off_c, 0, 57, 64
2, 38400, Note_on_c, 0, 50, 84
2, 38400, Note_on_c, 0, 55, 92
2, 38400, Note_on_c, 0, 59, 78
2, 38640, Note_off_c, 0, 55, 64
2, 38640, Note_off_c, 0, 50, 64
2, 38650, Note_off_c, 0, 59, 64
2, 39360, Note_on_c, 0, 54, 96
2, 39360, Note_on_c, 0, 57, 86
2, 39360, Note_on_c, 0, 62, 88
2, 39505, Note_off_c, 0, 57, 64
2, 39510, Note_off_c, 0, 54, 64
2, 39530, Note_off_c, 0, 62, 64
2, 39720, Note_on_c, 0, 54, 92
2, 39720, Note_on_c, 0, 57, 86
2, 39720, Note_on_c, 0, 62, 84
2, 39865, Note_off_c, 0, 62, 64
2, 39880, Note_off_c, 0, 54, 64
2, 39905, Note_off_c, 0, 57, 64
2, 40080, Note_on_c, 0, 52, 86
2, 40080, Note_on_c, 0, 55, 94
2, 40080, Note_on_c, 0, 60, 86
2, 40260, Note_off_c, 0, 55, 64
2, 40275, Note_off_c, 0, 52, 64
2, 40280, Note_off_c, 0, 60, 64
2, 41280, Note_on_c, 0, 50, 84
2, 41280, Note_on_c, 0, 52, 81
2, 41280, Note_on_c, 0, 55, 88
2, 41280, Note_on_c, 0, 60, 84
2, 41410, Note_off_c, 0, 52, 64
2, 41420, Note_off_c, 0, 50, 64
2, 41425, Note_off_c, 0, 55, 64
2, 41440, Note_off_c, 0, 60, 64
2, 41760, Note_on_c, 0, 50, 86
2, 41760, Note_on_c, 0, 52, 86
2, 41760, Note_on_c, 0, 55, 92
2, 41760, Note_on_c, 0, 60, 92
2, 41940, Note_off_c, 0, 55, 64
2, 41945, Note_off_c, 0, 52, 64
2, 41950, Note_off_c, 0, 60, 64
2, 41955, Note_off_c, 0, 50, 64
2, 42240, Note_on_c, 0, 50, 88
2, 42240, Note_on_c, 0, 55, 96
2, 42240, Note_on_c, 0, 59, 96
2, 42510, Note_off_c, 0, 50, 64
2, 42520, Note_off_c, 0, 55, 64
2, 42530, Note_off_c, 0, 59, 64
2, 43200, Note_on_c, 0, 54, 102
2, 43200, Note_on_c, 0, 57, 96
2, 43200, Note_on_c, 0, 62, 94
2, 43375, Note_off_c, 0, 54, 64
2, 43390, Note_off_c, 0, 62, 64
2, 43420, Note_off_c, 0, 57, 64
2, 43560, Note_on_c, 0, 54, 96
2, 43560, Note_on_c, 0, 57, 90
2, 43560, Note_on_c, 0, 62, 84
2, 43730, Note_off_c, 0, 62, 64
2, 43760, Note_off_c, 0, 54, 64
2, 43790, Note_off_c, 0, 57, 64
2, 43920, Note_on_c, 0, 52, 86
2, 43920, Note_on_c, 0, 55, 92
2, 43920, Note_on_c, 0, 60, 84
2, 44140, Note_off_c, 0, 52, 64
2, 44150, Note_off_c, 0, 55, 64
2, 44165, Note_off_c, 0, 60, 64
2, 45120, Note_on_c, 0, 52, 77
2, 45120, Note_on_c, 0, 55, 90
2, 45120, Note_on_c, 0, 60, 84
2, 45300, Note_off_c, 0, 60, 64
2, 45315, Note_off_c, 0, 55, 64
2, 45325, Note_off_c, 0, 52, 64
2, 45600, Note_on_c, 0, 54, 96
2, 45600, Note_on_c, 0, 57, 96
2, 45600, Note_on_c, 0, 62, 92
2, 45840, Note_off_c, 0, 54, 64
2, 45845, Note_off_c, 0, 62, 64
2, 45875, Note_off_c, 0, 57, 64
2, 46080, Note_on_c, 0, 50, 72
2, 46080, Note_on_c, 0, 55, 92
2, 46080, Note_on_c, 0, 59, 83
2, 46355, Note_off_c, 0, 50, 64
2, 46380, Note_off_c, 0, 55, 64
2, 46380, Note_off_c, 0, 59, 64
2, 47040, Note_on_c, 0, 54, 100
2, 47040, Note_on_c, 0, 57, 96
2, 47040, Note_on_c, 0, 62, 92
2, 47200, Note_off_c, 0, 54, 64
2, 47215, Note_off_c, 0, 57, 64
2, 47215, Note_off_c, 0, 62, 64
2, 47400, Note_on_c, 0, 54, 92
2, 47400, Note_on_c, 0, 57, 83
2, 47400, Note_on_c, 0, 62, 83
2, 47570, Note_off_c, 0, 62, 64
2, 47595, Note_off_c, 0, 54, 64
2, 47605, Note_off_c, 0, 57, 64
2, 47760, Note_on_c, 0, 50, 94
2, 47760, Note_on_c, 0, 52, 84
2, 47760, Note_on_c, 0, 55, 92
2, 47760, Note_on_c, 0, 60, 88
2, 47965, Note_off_c, 0, 55, 64
2, 47970, Note_off_c, 0, 52, 64
2, 47970, Note_off_c, 0, 50, 64
2, 47985, Note_off_c, 0, 60, 64
2, 48960, Note_on_c, 0, 50, 86
2, 48960, Note_on_c, 0, 52, 81
2, 48960, Note_on_c, 0, 55, 90
2, 48960, Note_on_c, 0, 60, 86
2, 49130, Note_off_c, 0, 52, 64
2, 49135, Note_off_c, 0, 55, 64
2, 49145, Note_off_c, 0, 60, 64
2, 49150, Note_off_c, 0, 50, 64
2, 49440, Note_on_c, 0, 50, 84
2, 49440, Note_on_c, 0, 52, 88
2, 49440, Note_on_c, 0, 55, 96
2, 49440, Note_on_c, 0, 60, 88
2, 49585, Note_off_c, 0, 50, 64
2, 49630, Note_off_c, 0, 52, 64
2, 49640, Note_off_c, 0, 60, 64
2, 49655, Note_off_c, 0, 55, 64
2, 49920, Note_on_c, 0, 50, 84
2, 49920, Note_on_c, 0, 55, 90
2, 49920, Note_on_c, 0, 59, 80
2, 50140, Note_off_c, 0, 50, 64
2, 50150, Note_off_c, 0, 55, 64
2, 50155, Note_off_c, 0, 59, 64
2, 50880, Note_on_c, 0, 54, 94
2, 50880, Note_on_c, 0, 57, 84
2, 50880, Note_on_c, 0, 62, 86
2, 51055, Note_off_c, 0, 62, 64
2, 51060, Note_off_c, 0, 57, 64
2, 51060, Note_off_c, 0, 54, 64
2, 51240, Note_on_c, 0, 54, 92
2, 51240, Note_on_c, 0, 57, 88
2, 51240, Note_on_c, 0, 62, 84
2, 51395, Note_off_c, 0, 62, 64
2, 51420, Note_off_c, 0, 54, 64
2, 51435, Note_off_c, 0, 57, 64
2, 51600, Note_on_c, 0, 52, 83
2, 51600, Note_on_c, 0, 55, 92
2, 51600, Note_on_c, 0, 60, 86
2, 51775, Note_off_c, 0, 55, 64
2, 51780, Note_off_c, 0, 52, 64
2, 51785, Note_off_c, 0, 60, 64
2, 52800, Note_on_c, 0, 52, 84
2, 52800, Note_on_c, 0, 55, 94
2, 52800, Note_on_c, 0, 60, 84
2, 52970, Note_off_c, 0, 52, 64
2, 52980, Note_off_c, 0, 55, 64
2, 52980, Note_off_c, 0, 60, 64
2, 53280, Note_on_c, 0, 54, 100
2, 53280, Note_on_c, 0, 57, 90
2, 53280, Note_on_c, 0, 62, 90
2, 53480, Note_off_c, 0, 62, 64
2, 53480, Note_off_c, 0, 54, 64
2, 53500, Note_off_c, 0, 57, 64
2, 53760, Note_on_c, 0, 50, 84
2, 53760, Note_on_c, 0, 55, 92
2, 53760, Note_on_c, 0, 59, 78
2, 54000, Note_off_c, 0, 55, 64
2, 54000, Note_off_c, 0, 50, 64
2, 54010, Note_off_c, 0, 59, 64
2, 54720, Note_on_c, 0, 54, 96
2, 54720, Note_on_c, 0, 57, 86
2, 54720, Note_on_c, 0, 62, 88
2, 54865, Note_off_c, 0, 57, 64
2, 54870, Note_off_c, 0, 54, 64
2, 54890, Note_off_c, 0, 62, 64
2, 55080, Note_on_c, 0, 54, 92
2, 55080, Note_on_c, 0, 57, 86
2, 55080, Note_on_c, 0, 62, 84
2, 55225, Note_off_c, 0, 62, 64
2, 55240, Note_off_c, 0, 54, 64
2, 55265, Note_off_c, 0, 57, 64
2, 55440, Note_on_c, 0, 52, 86
2, 55440, Note_on_c, 0, 55, 94
2, 55440, Note_on_c, 0, 60, 86
2, 55620, Note_off_c, 0, 55, 64
2, 55635, Note_off_c, 0, 52, 64
2, 55640, Note_off_c, 0, 60, 64
2, 56640, Note_on_c, 0, 50, 84
2, 56640, Note_on_c, 0, 52, 81
2, 56640, Note_on_c, 0, 55, 88
2, 56640, Note_on_c, 0, 60, 84
2, 56770, Note_off_c, 0, 52, 64
2, 56780, Note_off_c, 0, 50, 64
2, 56785, Note_off_c, 0, 55, 64
2, 56800, Note_off_c, 0, 60, 64
2, 57120, Note_on_c, 0, 50, 86
2, 57120, Note_on_c, 0, 52, 86
2, 57120, Note_on_c, 0, 55, 92
2, 57120, Note_on_c, 0, 60, 92
2, 57300, Note_off_c, 0, 55, 64
2, 57305, Note_off_c, 0, 52, 64
2, 57310, Note_off_c, 0, 60, 64
2, 57315, Note_off_c, 0, 50, 64
2, 57600, Note_on_c, 0, 50, 88
2, 57600, Note_on_c, 0, 55, 96
2, 57600, Note_on_c, 0, 59, 96
2, 57870, Note_off_c, 0, 50, 64
2, 57880, Note_off_c, 0, 55, 64
2, 57890, Note_off_c, 0, 59, 64
2, 58560, Note_on_c, 0, 54, 102
2, 58560, Note_on_c, 0, 57, 96
2, 58560, Note_on_c, 0, 62, 94
2, 58735, Note_off_c, 0, 54, 64
2, 58750, Note_off_c, 0, 62, 64
2, 58780, Note_off_c, 0, 57, 64
2, 58920, Note_on_c, 0, 54, 96
2, 58920, Note_on_c, 0, 57, 90
2, 58920, Note_on_c, 0, 62, 84
2, 59090, Note_off_c, 0, 62, 64
2, 59120, Note_off_c, 0, 54, 64
2, 59150, Note_off_c, 0, 57, 64
2, 59280, Note_on_c, 0, 52, 86
2, 59280, Note_on_c, 0, 55, 92
2, 59280, Note_on_c, 0, 60, 84
2, 59500, Note_off_c, 0, 52, 64
2, 59510, Note_off_c, 0, 55, 64
2, 59525, Note_off_c, 0, 60, 64
2, 60480, Note_on_c, 0, 52, 77
2, 60480, Note_on_c, 0, 55, 90
2, 60480, Note_on_c, 0, 60, 84
2, 60660, Note_off_c, 0, 60, 64
2, 60675, Note_off_c, 0, 55, 64
2, 60685, Note_off_c, 0, 52, 64
2, 60960, Note_on_c, 0, 54, 96
2, 60960, Note_on_c, 0, 57, 96
2, 60960, Note_on_c, 0, 62, 92
2, 61200, Note_off_c, 0, 54, 64
2, 61205, Note_off_c, 0, 62, 64
2, 61235, Note_off_c, 0, 57, 64
2, 61440, Note_on_c, 0, 50, 72
2, 61440, Note_on_c, 0, 55, 92
2, 61440, Note_on_c, 0, 59, 83
2, 61715, Note_off_c, 0, 50, 64
2, 61740, Note_off_c, 0, 55, 64
2, 61740, Note_off_c, 0, 59, 64
2, 62400, Note_on_c, 0, 54, 100
2, 62400, Note_on_c, 0, 57, 96
2, 62400, Note_on_c, 0, 62, 92
2, 62560, Note_off_c, 0, 54, 64
2, 62575, Note_off_c, 0, 57, 64
2, 62575, Note_off_c, 0, 62, 64
2, 62760, Note_on_c, 0, 54, 92
2, 62760, Note_on_c, 0, 57, 83
2, 62760, Note_on_c, 0, 62, 83
2, 62930, Note_off_c, 0, 62, 64
2, 62955, Note_off_c, 0, 54, 64
2, 62965, Note_off_c, 0, 57, 64
2, 63120, Note_on_c, 0, 50, 94
2, 63120, Note_on_c, 0, 52, 84
2, 63120, Note_on_c, 0, 55, 92
2, 63120, Note_on_c, 0, 60, 88
2, 63325, Note_off_c, 0, 55, 64
2, 63330, Note_off_c, 0, 52, 64
2, 63330, Note_off_c, 0, 50, 64
2, 63345, Note_off_c, 0, 60, 64
2, 64320, Note_on_c, 0, 50, 86
2, 64320, Note_on_c, 0, 52, 81
2, 64320, Note_on_c, 0, 55, 90
2, 64320, Note_on_c, 0, 60, 86
2, 64490, Note_off_c, 0, 52, 64
2, 64495, Note_off_c, 0, 55, 64
2, 64505, Note_off_c, 0, 60, 64
2, 64510, Note_off_c, 0, 50, 64
2, 64800, Note_on_c, 0, 50, 84
2, 64800, Note_on_c, 0, 52, 88
2, 64800, Note_on_c, 0, 55, 96
2, 64800, Note_on_c, 0, 60, 88
2, 64945, Note_off_c, 0, 50, 64
2, 64990, Note_off_c, 0, 52, 64
2, 65000, Note_off_c, 0, 60, 64
2, 65015, Note_off_c, 0, 55, 64
2, 65280, Note_on_c, 0, 50, 84
2, 65280, Note_on_c, 0, 55, 90
2, 65280, Note_on_c, 0, 59, 80
2, 65500, Note_off_c, 0, 50, 64
2, 65510, Note_off_c, 0, 55, 64
2, 65515, Note_off_c, 0, 59, 64
2, 66240, Note_on_c, 0, 54, 94
2, 66240, Note_on_c, 0, 57, 84
2, 66240, Note_on_c, 0, 62, 86
2, 66415, Note_off_c, 0, 62, 64
2, 66420, Note_off_c, 0, 57, 64
2, 66420, Note_off_c, 0, 54, 64
2, 66600, Note_on_c, 0, 54, 92
2, 66600, Note_on_c, 0, 57, 88
2, 66600, Note_on_c, 0, 62, 84
2, 66755, Note_off_c, 0, 62, 64
2, 66780, Note_off_c, 0, 54, 64
2, 66795, Note_off_c, 0, 57, 64
2, 66960, Note_on_c, 0, 52, 83
2, 66960, Note_on_c, 0, 55, 92
2, 66960, Note_on_c, 0, 60, 86
2, 67135, Note_off_c, 0, 55, 64
2, 67140, Note_off_c, 0, 52, 64
2, 67145, Note_off_c, 0, 60, 64
2, 68160, Note_on_c, 0, 52, 84
2, 68160, Note_on_c, 0, 55, 94
2, 68160, Note_on_c, 0, 60, 84
2, 68330, Note_off_c, 0, 52, 64
2, 68340, Note_off_c, 0, 55, 64
2, 68340, Note_off_c, 0, 60, 64
2, 68640, Note_on_c, 0, 54, 100
2, 68640, Note_on_c, 0, 57, 90
2, 68640, Note_on_c, 0, 62, 90
2, 68840, Note_off_c, 0, 62, 64
2, 68840, Note_off_c, 0, 54, 64
2, 68860, Note_off_c, 0, 57, 64
2, 69120, Note_on_c, 0, 50, 84
2, 69120, Note_on_c, 0, 55, 92
2, 69120, Note_on_c, 0, 59, 78
2, 69360, Note_off_c, 0, 55, 64
2, 69360, Note_off_c, 0, 50, 64
2, 69370, Note_off_c, 0, 59, 64
2, 70080, Note_on_c, 0, 54, 96
2, 70080, Note_on_c, 0, 57, 86
2, 70080, Note_on_c, 0, 62, 88
2, 70225, Note_off_c, 0, 57, 64
2, 70230, Note_off_c, 0, 54, 64
2, 70250, Note_off_c, 0, 62, 64
2, 70440, Note_on_c, 0, 54, 92
2, 70440, Note_on_c, 0, 57, 86
2, 70440, Note_on_c, 0, 62, 84
2, 70585, Note_off_c, 0, 62, 64
2, 70600, Note_off_c, 0, 54, 64
2, 70625, Note_off_c, 0, 57, 64
2, 70800, Note_on_c, 0, 52, 86
2, 70800, Note_on_c, 0, 55, 94
2, 70800, Note_on_c, 0, 60, 86
2, 70980, Note_off_c, 0, 55, 64
2, 70995, Note_off_c, 0, 52, 64
2, 71000, Note_off_c, 0, 60, 64
2, 72000, Note_on_c, 0, 50, 84
2, 72000, Note_on_c, 0, 52, 81
2, 72000, Note_on_c, 0, 55, 88
2, 72000, Note_on_c, 0, 60, 84
2, 72130, Note_off_c, 0, 52, 64
2, 72140, Note_off_c, 0, 50, 64
2, 72145, Note_off_c, 0, 55, 64
2, 72160, Note_off_c, 0, 60, 64
2, 72480, Note_on_c, 0, 50, 86
2, 72480, Note_on_c, 0, 52, 86
2, 72480, Note_on_c, 0, 55, 92
2, 72480, Note_on_c, 0, 60, 92
2, 72660, Note_off_c, 0, 55, 64
2, 72665, Note_off_c, 0, 52, 64
2, 72670, Note_off_c, 0, 60, 64
2, 72675, Note_off_c, 0, 50, 64
2, 72960, Note_on_c, 0, 50, 88
2, 72960, Note_on_c, 0, 55, 96
2, 72960, Note_on_c, 0, 59, 96
2, 73230, Note_off_c, 0, 50, 64
2, 73240, Note_off_c, 0, 55, 64
2, 73250, Note_off_c, 0, 59, 64
2, 73920, Note_on_c, 0, 47, 86
2, 73920, Note_on_c, 0, 54, 102
2, 73920, Note_on_c, 0, 57, 96
2, 73920, Note_on_c, 0, 62, 94
2, 74095, Note_off_c, 0, 54, 64
2, 74110, Note_off_c, 0, 47, 64
2, 74110, Note_off_c, 0, 62, 64
2, 74140, Note_off_c, 0, 57, 64
2, 74280, Note_on_c, 0, 47, 83
2, 74280, Note_on_c, 0, 54, 96
2, 74280, Note_on_c, 0, 57, 90
2, 74280, Note_on_c, 0, 62, 84
2, 74440, Note_off_c, 0, 47, 64
2, 74450, Note_off_c, 0, 62, 64
2, 74480, Note_off_c, 0, 54, 64
2, 74510, Note_off_c, 0, 57, 64
2, 74640, Note_on_c, 0, 52, 86
2, 74640, Note_on_c, 0, 55, 92
2, 74640, Note_on_c, 0, 60, 84
2, 74860, Note_off_c, 0, 52, 64
2, 74870, Note_off_c, 0, 55, 64
2, 74885, Note_off_c, 0, 60, 64
2, 75840, Note_on_c, 0, 52, 77
2, 75840, Note_on_c, 0, 55, 90
2, 75840, Note_on_c, 0, 60, 84
2, 76020, Note_off_c, 0, 60, 64
2, 76035, Note_off_c, 0, 55, 64
2, 76045, Note_off_c, 0, 52, 64
2, 76320, Note_on_c, 0, 47, 83
2, 76320, Note_on_c, 0, 54, 96
2, 76320, Note_on_c, 0, 57, 96
2, 76320, Note_on_c, 0, 62, 92
2, 76525, Note_off_c, 0, 47, 64
2, 76560, Note_off_c, 0, 54, 64
2, 76565, Note_off_c, 0, 62, 64
2, 76595, Note_off_c, 0, 57, 64
2, 76800, Note_on_c, 0, 50, 72
2, 76800, Note_on_c, 0, 55, 92
2, 76800, Note_on_c, 0, 59, 83
2, 77075, Note_off_c, 0, 50, 64
2, 77100, Note_off_c, 0, 55, 64
2, 77100, Note_off_c, 0, 59, 64
2, 77760, Note_on_c, 0, 47, 78
2, 77760, Note_on_c, 0, 54, 100
2, 77760, Note_on_c, 0, 57, 96
2, 77760, Note_on_c, 0, 62, 92
2, 77920, Note_off_c, 0, 54, 64
2, 77930, Note_off_c, 0, 47, 64
2, 77935, Note_off_c, 0, 57, 64
2, 77935, Note_off_c, 0, 62, 64
2, 78120, Note_on_c, 0, 47, 78
2, 78120, Note_on_c, 0, 54, 92
2, 78120, Note_on_c, 0, 57, 83
2, 78120, Note_on_c, 0, 62, 83
2, 78290, Note_off_c, 0, 62, 64
2, 78295, Note_off_c, 0, 47, 64
2, 78315, Note_off_c, 0, 54, 64
2, 78325, Note_off_c, 0, 57, 64
2, 78480, Note_on_c, 0, 50, 94
2, 78480, Note_on_c, 0, 52, 84
2, 78480, Note_on_c, 0, 55, 92
2, 78480, Note_on_c, 0, 60, 88
2, 78685, Note_off_c, 0, 55, 64
2, 78690, Note_off_c, 0, 52, 64
2, 78690, Note_off_c, 0, 50, 64
2, 78705, Note_off_c, 0, 60, 64
2, 79680, Note_on_c, 0, 50, 86
2, 79680, Note_on_c, 0, 52, 81
2, 79680, Note_on_c, 0, 55, 90
2, 79680, Note_on_c, 0, 60, 86
2, 79850, Note_off_c, 0, 52, 64
2, 79855, Note_off_c, 0, 55, 64
2, 79865, Note_off_c, 0, 60, 64
2, 79870, Note_off_c, 0, 50, 64
2, 80160, Note_on_c, 0, 50, 84
2, 80160, Note_on_c, 0, 52, 88
2, 80160, Note_on_c, 0, 55, 96
2, 80160, Note_on_c, 0, 60, 88
2, 80305, Note_off_c, 0, 50, 64
2, 80350, Note_off_c, 0, 52, 64
2, 80360, Note_off_c, 0, 60, 64
2, 80375, Note_off_c, 0, 55, 64
2, 80640, Note_on_c, 0, 50, 84
2, 80640, Note_on_c, 0, 55, 90
2, 80640, Note_on_c, 0, 59, 80
2, 80860, Note_off_c, 0, 50, 64
2, 80870, Note_off_c, 0, 55, 64
2, 80875, Note_off_c, 0, 59, 64
2, 81600, Note_on_c, 0, 47, 86
2, 81600, Note_on_c, 0, 54, 94
2, 81600, Note_on_c, 0, 57, 84
2, 81600, Note_on_c, 0, 62, 86
2, 81755, Note_off_c, 0, 47, 64
2, 81775, Note_off_c, 0, 62, 64
2, 81780, Note_off_c, 0, 54, 64
2, 81780, Note_off_c, 0, 57, 64
2, 81960, Note_on_c, 0, 47, 80
2, 81960, Note_on_c, 0, 54, 92
2, 81960, Note_on_c, 0, 57, 88
2, 81960, Note_on_c, 0, 62, 84
2, 82090, Note_off_c, 0, 47, 64
2, 82115, Note_off_c, 0, 62, 64
2, 82140, Note_off_c, 0, 54, 64
2, 82155, Note_off_c, 0, 57, 64
2, 82320, Note_on_c, 0, 52, 83
2, 82320, Note_on_c, 0, 55, 92
2, 82320, Note_on_c, 0, 60, 86
2, 82495, Note_off_c, 0, 55, 64
2, 82500, Note_off_c, 0, 52, 64
2, 82505, Note_off_c, 0, 60, 64
2, 83520, Note_on_c, 0, 52, 84
2, 83520, Note_on_c, 0, 55, 94
2, 83520, Note_on_c, 0, 60, 84
2, 83690, Note_off_c, 0, 52, 64
2, 83700, Note_off_c, 0, 55, 64
2, 83700, Note_off_c, 0, 60, 64
2, 84000, Note_on_c, 0, 47, 81
2, 84000, Note_on_c, 0, 54, 100
2, 84000, Note_on_c, 0, 57, 90
2, 84000, Note_on_c, 0, 62, 90
2, 84170, Note_off_c, 0, 47, 64
2, 84200, Note_off_c, 0, 54, 64
2, 84200, Note_off_c, 0, 62, 64
2, 84220, Note_off_c, 0, 57, 64
2, 84480, Note_on_c, 0, 50, 84
2, 84480, Note_on_c, 0, 55, 92
2, 84480, Note_on_c, 0, 59, 78
2, 84720, Note_off_c, 0, 55, 64
2, 84720, Note_off_c, 0, 50, 64
2, 84730, Note_off_c, 0, 59, 64
2, 85440, Note_on_c, 0, 47, 86
2, 85440, Note_on_c, 0, 54, 96
2, 85440, Note_on_c, 0, 57, 86
2, 85440, Note_on_c, 0, 62, 88
2, 85585, Note_off_c, 0, 57, 64
2, 85590, Note_off_c, 0, 54, 64
2, 85595, Note_off_c, 0, 47, 64
2, 85610, Note_off_c, 0, 62, 64
2, 85800, Note_on_c, 0, 47, 77
2, 85800, Note_on_c, 0, 54, 92
2, 85800, Note_on_c, 0, 57, 86
2, 85800, Note_on_c, 0, 62, 84
2, 85945, Note_off_c, 0, 62, 64
2, 85955, Note_off_c, 0, 47, 64
2, 85960, Note_off_c, 0, 54, 64
2, 85985, Note_off_c, 0, 57, 64
2, 86160, Note_on_c, 0, 52, 86
2, 86160, Note_on_c, 0, 55, 94
2, 86160, Note_on_c, 0, 60, 86
2, 86340, Note_off_c, 0, 55, 64
2, 86355, Note_off_c, 0, 52, 64
2, 86360, Note_off_c, 0, 60, 64
2, 87360, Note_on_c, 0, 50, 84
2, 87360, Note_on_c, 0, 52, 81
2, 87360, Note_on_c, 0, 55, 88
2, 87360, Note_on_c, 0, 60, 84
2, 87490, Note_off_c, 0, 52, 64
2, 87500, Note_off_c, 0, 50, 64
2, 87505, Note_off_c, 0, 55, 64
2, 87520, Note_off_c, 0, 60, 64
2, 87840, Note_on_c, 0, 50, 86
2, 87840, Note_on_c, 0, 52, 86
2, 87840, Note_on_c, 0, 55, 92
2, 87840, Note_on_c, 0, 60, 92
2, 88020, Note_off_c, 0, 55, 64
2, 88025, Note_off_c, 0, 52, 64
2, 88030, Note_off_c, 0, 60, 64
2, 88035, Note_off_c, 0, 50, 64
2, 88320, Note_on_c, 0, 50, 88
2, 88320, Note_on_c, 0, 55, 96
2, 88320, Note_on_c, 0, 59, 96
2, 88590, Note_off_c, 0, 50, 64
2, 88600, Note_off_c, 0, 55, 64
2, 88610, Note_off_c, 0, 59, 64
2, 89280, Note_on_c, 0, 47, 86
2, 89280, Note_on_c, 0, 54, 102
2, 89280, Note_on_c, 0, 57, 96
2, 89280, Note_on_c, 0, 62, 94
2, 89455, Note_off_c, 0, 54, 64
2, 89470, Note_off_c, 0, 47, 64
2, 89470, Note_off_c, 0, 62, 64
2, 89500, Note_off_c, 0, 57, 64
2, 89640, Note_on_c, 0, 47, 83
2, 89640, Note_on_c, 0, 54, 96
2, 89640, Note_on_c, 0, 57, 90
2, 89640, Note_on_c, 0, 62, 84
2, 89800, Note_off_c, 0, 47, 64
2, 89810, Note_off_c, 0, 62, 64
2, 89840, Note_off_c, 0, 54, 64
2, 89870, Note_off_c, 0, 57, 64
2, 90000, Note_on_c, 0, 52, 86
2, 90000, Note_on_c, 0, 55, 92
2, 90000, Note_on_c, 0, 60, 84
2, 90220, Note_off_c, 0, 52, 64
2, 90230, Note_off_c, 0, 55, 64
2, 90245, Note_off_c, 0, 60, 64
2, 91200, Note_on_c, 0, 52, 77
2, 91200, Note_on_c, 0, 55, 90
2, 91200, Note_on_c, 0, 60, 84
2, 91380, Note_off_c, 0, 60, 64
2, 91395, Note_off_c, 0, 55, 64
2, 91405, Note_off_c, 0, 52, 64
2, 91680, Note_on_c, 0, 47, 83
2, 91680, Note_on_c, 0, 54, 96
2, 91680, Note_on_c, 0, 57, 96
2, 91680, Note_on_c, 0, 62, 92
2, 91885, Note_off_c, 0, 47, 64
2, 91920, Note_off_c, 0, 54, 64
2, 91925, Note_off_c, 0, 62, 64
2, 91955, Note_off_c, 0, 57, 64
2, 92160, Note_on_c, 0, 50, 72
2, 92160, Note_on_c, 0, 55, 92
2, 92160, Note_on_c, 0, 59, 83
2, 92435, Note_off_c, 0, 50, 64
2, 92460, Note_off_c, 0, 55, 64
2, 92460, Note_off_c, 0, 59, 64
2, 93120, Note_on_c, 0, 47, 78
2, 93120, Note_on_c, 0, 54, 100
2, 93120, Note_on_c, 0, 57, 96
2, 93120, Note_on_c, 0, 62, 92
2, 93280, Note_off_c, 0, 54, 64
2, 93290, Note_off_c, 0, 47, 64
2, 93295, Note_off_c, 0, 57, 64
2, 93295, Note_off_c, 0, 62, 64
2, 93480, Note_on_c, 0, 47, 78
2, 93480, Note_on_c, 0, 54, 92
2, 93480, Note_on_c, 0, 57, 83
2, 93480, Note_on_c, 0, 62, 83
2, 93650, Note_off_c, 0, 62, 64
2, 93655, Note_off_c, 0, 47, 64
2, 93675, Note_off_c, 0, 54, 64
2, 93685, Note_off_c, 0, 57, 64
2, 93840, Note_on_c, 0, 50, 94
2, 93840, Note_on_c, 0, 52, 84
2, 93840, Note_on_c, 0, 55, 92
2, 93840, Note_on_c, 0, 60, 88
2, 94045, Note_off_c, 0, 55, 64
2, 94050, Note_off_c, 0, 52, 64
2, 94050, Note_off_c, 0, 50, 64
2, 94065, Note_off_c, 0, 60, 64
2, 95040, Note_on_c, 0, 50, 86
2, 95040, Note_on_c, 0, 52, 81
2, 95040, Note_on_c, 0, 55, 90
2, 95040, Note_on_c, 0, 60, 86
2, 95210, Note_off_c, 0, 52, 64
2, 95215, Note_off_c, 0, 55, 64
2, 95225, Note_off_c, 0, 60, 64
2, 95230, Note_off_c, 0, 50, 64
2, 95520, Note_on_c, 0, 50, 84
2, 95520, Note_on_c, 0, 52, 88
2, 95520, Note_on_c, 0, 55, 96
2, 95520, Note_on_c, 0, 60, 88
2, 95665, Note_off_c, 0, 50, 64
2, 95710, Note_off_c, 0, 52, 64
2, 95720, Note_off_c, 0, 60, 64
2, 95735, Note_off_c, 0, 55, 64
2, 96000, Note_on_c, 0, 50, 84
2, 96000, Note_on_c, 0, 55, 90
2, 96000, Note_on_c, 0, 59, 80
2, 96220, Note_off_c, 0, 50, 64
2, 96230, Note_off_c, 0, 55, 64
2, 96235, Note_off_c, 0, 59, 64
2, 96960, Note_on_c, 0, 47, 86
2, 96960, Note_on_c, 0, 54, 94
2, 96960, Note_on_c, 0, 57, 84
2, 96960, Note_on_c, 0, 62, 86
2, 97115, Note_off_c, 0, 47, 64
2, 97135, Note_off_c, 0, 62, 64
2, 97140, Note_off_c, 0, 54, 64
2, 97140, Note_off_c, 0, 57, 64
2, 97320, Note_on_c, 0, 47, 80
2, 97320, Note_on_c, 0, 54, 92
2, 97320, Note_on_c, 0, 57, 88
2, 97320, Note_on_c, 0, 62, 84
2, 97450, Note_off_c, 0, 47, 64
2, 97475, Note_off_c, 0, 62, 64
2, 97500, Note_off_c, 0, 54, 64
2, 97515, Note_off_c, 0, 57, 64
2, 97680, Note_on_c, 0, 52, 83
2, 97680, Note_on_c, 0, 55, 92
2, 97680, Note_on_c, 0, 60, 86
2, 97855, Note_off_c, 0, 55, 64
2, 97860, Note_off_c, 0, 52, 64
2, 97865, Note_off_c, 0, 60, 64
2, 98880, Note_on_c, 0, 52, 84
2, 98880, Note_on_c, 0, 55, 94
2, 98880, Note_on_c, 0, 60, 84
2, 99050, Note_off_c, 0, 52, 64
2, 99060, Note_off_c, 0, 55, 64
2, 99060, Note_off_c, 0, 60, 64
2, 99360, Note_on_c, 0, 47, 81
2, 99360, Note_on_c, 0, 54, 100
2, 99360, Note_on_c, 0, 57, 90
2, 99360, Note_on_c, 0, 62, 90
2, 99530, Note_off_c, 0, 47, 64
2, 99560, Note_off_c, 0, 54, 64
2, 99560, Note_off_c, 0, 62, 64
2, 99580, Note_off_c, 0, 57, 64
2, 99840, Note_on_c, 0, 50, 84
2, 99840, Note_on_c, 0, 55, 92
2, 99840, Note_on_c, 0, 59, 78
2, 100080, Note_off_c, 0, 55, 64
2, 100080, Note_off_c, 0, 50, 64
2, 100090, Note_off_c, 0, 59, 64
2, 100800, Note_on_c, 0, 47, 86
2, 100800, Note_on_c, 0, 54, 96
2, 100800, Note_on_c, 0, 57, 86
2, 100800, Note_on_c, 0, 62, 88
2, 100945, Note_off_c, 0, 57, 64
2, 100950, Note_off_c, 0, 54, 64
2, 100955, Note_off_c, 0, 47, 64
2, 100970, Note_off_c, 0, 62, 64
2, 101160, Note_on_c, 0, 47, 77
2, 101160, Note_on_c, 0, 54, 92
2, 101160, Note_on_c, 0, 57, 86
2, 101160, Note_on_c, 0, 62, 84
2, 101305, Note_off_c, 0, 62, 64
2, 101315, Note_off_c, 0, 47, 64
2, 101320, Note_off_c, 0, 54, 64
2, 101345, Note_off_c, 0, 57, 64
2, 101520, Note_on_c, 0, 52, 86
2, 101520, Note_on_c, 0, 55, 94
2, 101520, Note_on_c, 0, 60, 86
2, 101700, Note_off_c, 0, 55, 64
2, 101715, Note_off_c, 0, 52, 64
2, 101720, Note_off_c, 0, 60, 64
2, 102720, Note_on_c, 0, 50, 84
2, 102720, Note_on_c, 0, 52, 81
2, 102720, Note_on_c, 0, 55, 88
2, 102720, Note_on_c, 0, 60, 84
2, 102850, Note_off_c, 0, 52, 64
2, 102860, Note_off_c, 0, 50, 64
2, 102865, Note_off_c, 0, 55, 64
2, 102880, Note_off_c, 0, 60, 64
2, 103200, Note_on_c, 0, 50, 86
2, 103200, Note_on_c, 0, 52, 86
2, 103200, Note_on_c, 0, 55, 92
2, 103200, Note_on_c, 0, 60, 92
2, 103380, Note_off_c, 0, 55, 64
2, 103385, Note_off_c, 0, 52, 64
2, 103390, Note_off_c, 0, 60, 64
2, 103395, Note_off_c, 0, 50, 64
2, 103680, Note_on_c, 0, 50, 88
2, 103680, Note_on_c, 0, 55, 96
2, 103680, Note_on_c, 0, 59, 96
2, 103950, Note_off_c, 0, 50, 64
2, 103960, Note_off_c, 0, 55, 64
2, 103970, Note_off_c, 0, 59, 64
2, 104640, Note_on_c, 0, 47, 86
2, 104640, Note_on_c, 0, 54, 102
2, 104640, Note_on_c, 0, 57, 96
2, 104640, Note_on_c, 0, 62, 94
2, 104815, Note_off_c, 0, 54, 64
2, 104830, Note_off_c, 0, 47, 64
2, 104830, Note_off_c, 0, 62, 64
2, 104860, Note_off_c, 0, 57, 64
2, 105000, Note_on_c, 0, 47, 83
2, 105000, Note_on_c, 0, 54, 96
2, 105000, Note_on_c, 0, 57, 90
2, 105000, Note_on_c, 0, 62, 84
2, 105160, Note_off_c, 0, 47, 64
2, 105170, Note_off_c, 0, 62, 64
2, 105200, Note_off_c, 0, 54, 64
2, 105230, Note_off_c, 0, 57, 64
2, 105360, Note_on_c, 0, 52, 86
2, 105360, Note_on_c, 0, 55, 92
2, 105360, Note_on_c, 0, 60, 84
2, 105580, Note_off_c, 0, 52, 64
2, 105590, Note_off_c, 0, 55, 64
2, 105605, Note_off_c, 0, 60, 64
2, 106560, Note_on_c, 0, 52, 77
2, 106560, Note_on_c, 0, 55, 90
2, 106560, Note_on_c, 0, 60, 84
2, 106740, Note_off_c, 0, 60, 64
2, 106755, Note_off_c, 0, 55, 64
2, 106765, Note_off_c, 0, 52, 64
2, 107040, Note_on_c, 0, 47, 83
2, 107040, Note_on_c, 0, 54, 96
2, 107040, Note_on_c, 0, 57, 96
2, 107040, Note_on_c, 0, 62, 92
2, 107245, Note_off_c, 0, 47, 64
2, 107280, Note_off_c, 0, 54, 64
2, 107285, Note_off_c, 0, 62, 64
2, 107315, Note_off_c, 0, 57, 64
2, 107520, Note_on_c, 0, 50, 72
2, 107520, Note_on_c, 0, 55, 92
2, 107520, Note_on_c, 0, 59, 83
2, 107795, Note_off_c, 0, 50, 64
2, 107820, Note_off_c, 0, 55, 64
2, 107820, Note_off_c, 0, 59, 64
2, 108480, Note_on_c, 0, 47, 78
2, 108480, Note_on_c, 0, 54, 100
2, 108480, Note_on_c, 0, 57, 96
2, 108480, Note_on_c, 0, 62, 92
2, 108640, Note_off_c, 0, 54, 64
2, 108650, Note_off_c, 0, 47, 64
2, 108655, Note_off_c, 0, 57, 64
2, 108655, Note_off_c, 0, 62, 64
2, 108840, Note_on_c, 0, 47, 78
2, 108840, Note_on_c, 0, 54, 92
2, 108840, Note_on_c, 0, 57, 83
2, 108840, Note_on_c, 0, 62, 83
2, 109010, Note_off_c, 0, 62, 64
2, 109015, Note_off_c, 0, 47, 64
2, 109035, Note_off_c, 0, 54, 64
2, 109045, Note_off_c, 0, 57, 64
2, 109200, Note_on_c, 0, 50, 94
2, 109200, Note_on_c, 0, 52, 84
2, 109200, Note_on_c, 0, 55, 92
2, 109200, Note_on_c, 0, 60, 88
2, 109405, Note_off_c, 0, 55, 64
2, 109410, Note_off_c, 0, 52, 64
2, 109410, Note_off_c, 0, 50, 64
2, 109425, Note_off_c, 0, 60, 64
2, 110400, Note_on_c, 0, 50, 86
2, 110400, Note_on_c, 0, 52, 81
2, 110400, Note_on_c, 0, 55, 90
2, 110400, Note_on_c, 0, 60, 86
2, 110570, Note_off_c, 0, 52, 64
2, 110575, Note_off_c, 0, 55, 64
2, 110585, Note_off_c, 0, 60, 64
2, 110590, Note_off_c, 0, 50, 64
2, 110880, Note_on_c, 0, 50, 84
2, 110880, Note_on_c, 0, 52, 88
2, 110880, Note_on_c, 0, 55, 96
2, 110880, Note_on_c, 0, 60, 88
2, 111025, Note_off_c, 0, 50, 64
2, 111070, Note_off_c, 0, 52, 64
2, 111080, Note_off_c, 0, 60, 64
2, 111095, Note_off_c, 0, 55, 64
2, 111360, Note_on_c, 0, 50, 88
2, 111360, Note_on_c, 0, 55, 96
2, 111360, Note_on_c, 0, 59, 96
2, 111630, Note_off_c, 0, 50, 64
2, 111640, Note_off_c, 0, 55, 64
2, 111650, Note_off_c, 0, 59, 64
2, 112320, Note_on_c, 0, 47, 86
2, 112320, Note_on_c, 0, 54, 102
2, 112320, Note_on_c, 0, 57, 96
2, 112320, Note_on_c, 0, 62, 94
2, 112495, Note_off_c, 0, 54, 64
2, 112510, Note_off_c, 0, 47, 64
2, 112510, Note_off_c, 0, 62, 64
2, 112540, Note_off_c, 0, 57, 64
2, 112680, Note_on_c, 0, 47, 83
2, 112680, Note_on_c, 0, 54, 96
2, 112680, Note_on_c, 0, 57, 90
2, 112680, Note_on_c, 0, 62, 84
2, 112840, Note_off_c, 0, 47, 64
2, 112850, Note_off_c, 0, 62, 64
2, 112880, Note_off_c, 0, 54, 64
2, 112910, Note_off_c, 0, 57, 64
2, 113040, Note_on_c, 0, 52, 86
2, 113040, Note_on_c, 0, 55, 92
2, 113040, Note_on_c, 0, 60, 84
2, 113260, Note_off_c, 0, 52, 64
2, 113270, Note_off_c, 0, 55, 64
2, 113285, Note_off_c, 0, 60, 64
2, 114240, Note_on_c, 0, 52, 77
2, 114240, Note_on_c, 0, 55, 90
2, 114240, Note_on_c, 0, 60, 84
2, 114420, Note_off_c, 0, 60, 64
2, 114435, Note_off_c, 0, 55, 64
2, 114445, Note_off_c, 0, 52, 64
2, 114720, Note_on_c, 0, 47, 83
2, 114720, Note_on_c, 0, 54, 96
2, 114720, Note_on_c, 0, 57, 96
2, 114720, Note_on_c, 0, 62, 92
2, 114925, Note_off_c, 0, 47, 64
2, 114960, Note_off_c, 0, 54, 64
2, 114965, Note_off_c, 0, 62, 64
2, 114995, Note_off_c, 0, 57, 64
2, 115200, Note_on_c, 0, 50, 72
2, 115200, Note_on_c, 0, 55, 92
2, 115200, Note_on_c, 0, 59, 83
2, 115475, Note_off_c, 0, 50, 64
2, 115500, Note_off_c, 0, 55, 64
2, 115500, Note_off_c, 0, 59, 64
2, 116160, Note_on_c, 0, 47, 78
2, 116160, Note_on_c, 0, 54, 100
2, 116160, Note_on_c, 0, 57, 96
2, 116160, Note_on_c, 0, 62, 92
2, 116320, Note_off_c, 0, 54, 64
2, 116330, Note_off_c, 0, 47, 64
2, 116335, Note_off_c, 0, 57, 64
2, 116335, Note_off_c, 0, 62, 64
2, 116520, Note_on_c, 0, 47, 78
2, 116520, Note_on_c, 0, 54, 92
2, 116520, Note_on_c, 0, 57, 83
2, 116520, Note_on_c, 0, 62, 83
2, 116690, Note_off_c, 0, 62, 64
2, 116695, Note_off_c, 0, 47, 64
2, 116715, Note_off_c, 0, 54, 64
2, 116725, Note_off_c, 0, 57, 64
2, 116880, Note_on_c, 0, 50, 94
2, 116880, Note_on_c, 0, 52, 84
2, 116880, Note_on_c, 0, 55, 92
2, 116880, Note_on_c, 0, 60, 88
2, 117085, Note_off_c, 0, 55, 64
2, 117090, Note_off_c, 0, 52, 64
2, 117090, Note_off_c, 0, 50, 64
2, 117105, Note_off_c, 0, 60, 64
2, 118080, Note_on_c, 0, 50, 86
2, 118080, Note_on_c, 0, 52, 81
2, 118080, Note_on_c, 0, 55, 90
2, 118080, Note_on_c, 0, 60, 86
2, 118250, Note_off_c, 0, 52, 64
2, 118255, Note_off_c, 0, 55, 64
2, 118265, Note_off_c, 0, 60, 64
2, 118270, Note_off_c, 0, 50, 64
2, 118560, Note_on_c, 0, 50, 84
2, 118560, Note_on_c, 0, 52, 88
2, 118560, Note_on_c, 0, 55, 96
2, 118560, Note_on_c, 0, 60, 88
2, 118705, Note_off_c, 0, 50, 64
2, 118750, Note_off_c, 0, 52, 64
2, 118760, Note_off_c, 0, 60, 64
2, 118775, Note_off_c, 0, 55, 64
2, 120000, Note_on_c, 0, 35, 91
2, 120000, Note_on_c, 0, 47, 89
2, 120265, Note_off_c, 0, 35, 64
2, 120285, Note_off_c, 0, 47, 64
2, 120480, Note_on_c, 0, 36, 87
2, 120480, Note_on_c, 0, 48, 87
2, 120795, Note_off_c, 0, 36, 64
2, 120815, Note_off_c, 0, 48, 64
2, 120960, Note_on_c, 0, 38, 93
2, 120960, Note_on_c, 0, 50, 89
2, 121275, Note_off_c, 0, 50, 64
2, 121280, Note_off_c, 0, 38, 64
2, 121920, Note_on_c, 0, 33, 95
2, 121920, Note_on_c, 0, 45, 89
2, 122220, Note_off_c, 0, 33, 64
2, 122255, Note_off_c, 0, 45, 64
2, 122400, Note_on_c, 0, 35, 89
2, 122400, Note_on_c, 0, 47, 89
2, 122665, Note_off_c, 0, 47, 64
2, 122735, Note_off_c, 0, 35, 64
2, 122880, Note_on_c, 0, 28, 97
2, 122880, Note_on_c, 0, 40, 89
2, 123195, Note_off_c, 0, 28, 64
2, 123225, Note_off_c, 0, 40, 64
2, 123840, Note_on_c, 0, 35, 93
2, 123840, Note_on_c, 0, 47, 87
2, 124135, Note_off_c, 0, 35, 64
2, 124170, Note_off_c, 0, 47, 64
2, 124320, Note_on_c, 0, 36, 85
2, 124320, Note_on_c, 0, 48, 89
2, 124620, Note_off_c, 0, 36, 64
2, 124635, Note_off_c, 0, 48, 64
2, 124800, Note_on_c, 0, 38, 93
2, 124800, Note_on_c, 0, 50, 89
2, 125095, Note_off_c, 0, 38, 64
2, 125110, Note_off_c, 0, 50, 64
2, 126720, Note_on_c, 0, 28, 95
2, 126720, Note_on_c, 0, 40, 95
2, 127005, Note_off_c, 0, 28, 64
2, 127015, Note_off_c, 0, 40, 64
2, 127680, Note_on_c, 0, 35, 91
2, 127680, Note_on_c, 0, 47, 89
2, 127945, Note_off_c, 0, 35, 64
2, 127965, Note_off_c, 0, 47, 64
2, 128160, Note_on_c, 0, 36, 87
2, 128160, Note_on_c, 0, 48, 87
2, 128475, Note_off_c, 0, 36, 64
2, 128495, Note_off_c, 0, 48, 64
2, 128640, Note_on_c, 0, 38, 93
2, 128640, Note_on_c, 0, 50, 89
2, 128955, Note_off_c, 0, 50, 64
2, 128960, Note_off_c, 0, 38, 64
2, 129600, Note_on_c, 0, 33, 95
2, 129600, Note_on_c, 0, 45, 89
2, 129900, Note_off_c, 0, 33, 64
2, 129935, Note_off_c, 0, 45, 64
2, 130080, Note_on_c, 0, 35, 89
2, 130080, Note_on_c, 0, 47, 89
2, 130345, Note_off_c, 0, 47, 64
2, 130415, Note_off_c, 0, 35, 64
2, 130560, Note_on_c, 0, 28, 97
2, 130560, Note_on_c, 0, 40, 89
2, 130875, Note_off_c, 0, 28, 64
2, 130905, Note_off_c, 0, 40, 64
2, 131520, Note_on_c, 0, 35, 93
2, 131520, Note_on_c, 0, 47, 87
2, 131815, Note_off_c, 0, 35, 64
2, 131850, Note_off_c, 0, 47, 64
2, 132000, Note_on_c, 0, 36, 85
2, 132000, Note_on_c, 0, 48, 89
2, 132300, Note_off_c, 0, 36, 64
2, 132315, Note_off_c, 0, 48, 64
2, 132480, Note_on_c, 0, 38, 93
2, 132480, Note_on_c, 0, 50, 89
2, 132775, Note_off_c, 0, 38, 64
2, 132790, Note_off_c, 0, 50, 64
2, 134400, Note_on_c, 0, 50, 88
2, 134400, Note_on_c, 0, 55, 96
2, 134400, Note_on_c, 0, 59, 96
2, 134670, Note_off_c, 0, 50, 64
2, 134680, Note_off_c, 0, 55, 64
2, 134690, Note_off_c, 0, 59, 64
2, 135360, Note_on_c, 0, 47, 86
2, 135360, Note_on_c, 0, 54, 102
2, 135360, Note_on_c, 0, 57, 96
2, 135360, Note_on_c, 0, 62, 94
2, 135535, Note_off_c, 0, 54, 64
2, 135550, Note_off_c, 0, 47, 64
2, 135550, Note_off_c, 0, 62, 64
2, 135580, Note_off_c, 0, 57, 64
2, 135720, Note_on_c, 0, 47, 83
2, 135720, Note_on_c, 0, 54, 96
2, 135720, Note_on_c, 0, 57, 90
2, 135720, Note_on_c, 0, 62, 84
2, 135880, Note_off_c, 0, 47, 64
2, 135890, Note_off_c, 0, 62, 64
2, 135920, Note_off_c, 0, 54, 64
2, 135950, Note_off_c, 0, 57, 64
2, 136080, Note_on_c, 0, 52, 86
2, 136080, Note_on_c, 0, 55, 92
2, 136080, Note_on_c, 0, 60, 84
2, 136300, Note_off_c, 0, 52, 64
2, 136310, Note_off_c, 0, 55, 64
2, 136325, Note_off_c, 0, 60, 64
2, 137280, Note_on_c, 0, 52, 77
2, 137280, Note_on_c, 0, 55, 90
2, 137280, Note_on_c, 0, 60, 84
2, 137460, Note_off_c, 0, 60, 64
2, 137475, Note_off_c, 0, 55, 64
2, 137485, Note_off_c, 0, 52, 64
2, 137760, Note_on_c, 0, 47, 83
2, 137760, Note_on_c, 0, 54, 96
2, 137760, Note_on_c, 0, 57, 96
2, 137760, Note_on_c, 0, 62, 92
2, 137965, Note_off_c, 0, 47, 64
2, 138000, Note_off_c, 0, 54, 64
2, 138005, Note_off_c, 0, 62, 64
2, 138035, Note_off_c, 0, 57, 64
2, 138240, Note_on_c, 0, 50, 72
2, 138240, Note_on_c, 0, 55, 92
2, 138240, Note_on_c, 0, 59, 83
2, 138515, Note_off_c, 0, 50, 64
2, 138540, Note_off_c, 0, 55, 64
2, 138540, Note_off_c, 0, 59, 64
2, 139200, Note_on_c, 0, 47, 78
2, 139200, Note_on_c, 0, 54, 100
2, 139200, Note_on_c, 0, 57, 96
2, 139200, Note_on_c, 0, 62, 92
2, 139360, Note_off_c, 0, 54, 64
2, 139370, Note_off_c, 0, 47, 64
2, 139375, Note_off_c, 0, 57, 64
2, 139375, Note_off_c, 0, 62, 64
2, 139560, Note_on_c, 0, 47, 78
2, 139560, Note_on_c, 0, 54, 92
2, 139560, Note_on_c, 0, 57, 83
2, 139560, Note_on_c, 0, 62, 83
2, 139730, Note_off_c, 0, 62, 64
2, 139735, Note_off_c, 0, 47, 64
2, 139755, Note_off_c, 0, 54, 64
2, 139765, Note_off_c, 0, 57, 64
2, 139920, Note_on_c, 0, 50, 94
2, 139920, Note_on_c, 0, 52, 84
2, 139920, Note_on_c, 0, 55, 92
2, 139920, Note_on_c, 0, 60, 88
2, 140125, Note_off_c, 0, 55, 64
2, 140130, Note_off_c, 0, 52, 64
2, 140130, Note_off_c, 0, 50, 64
2, 140145, Note_off_c, 0, 60, 64
2, 141120, Note_on_c, 0, 50, 86
2, 141120, Note_on_c, 0, 52, 81
2, 141120, Note_on_c, 0, 55, 90
2, 141120, Note_on_c, 0, 60, 86
2, 141290, Note_off_c, 0, 52, 64
2, 141295, Note_off_c, 0, 55, 64
2, 141305, Note_off_c, 0, 60, 64
2, 141310, Note_off_c, 0, 50, 64
2, 141600, Note_on_c, 0, 50, 84
2, 141600, Note_on_c, 0, 52, 88
2, 141600, Note_on_c, 0, 55, 96
2, 141600, Note_on_c, 0, 60, 88
2, 141745, Note_off_c, 0, 50, 64
2, 141790, Note_off_c, 0, 52, 64
2, 141800, Note_off_c, 0, 60, 64
2, 141815, Note_off_c, 0, 55, 64
2, 142080, Note_on_c, 0, 50, 84
2, 142080, Note_on_c, 0, 55, 90
2, 142080, Note_on_c, 0, 59, 80
2, 142300, Note_off_c, 0, 50, 64
2, 142310, Note_off_c, 0, 55, 64
2, 142315, Note_off_c, 0, 59, 64
2, 143040, Note_on_c, 0, 47, 86
2, 143040, Note_on_c, 0, 54, 94
2, 143040, Note_on_c, 0, 57, 84
2, 143040, Note_on_c, 0, 62, 86
2, 143195, Note_off_c, 0, 47, 64
2, 143215, Note_off_c, 0, 62, 64
2, 143220, Note_off_c, 0, 54, 64
2, 143220, Note_off_c, 0, 57, 64
2, 143400, Note_on_c, 0, 47, 80
2, 143400, Note_on_c, 0, 54, 92
2, 143400, Note_on_c, 0, 57, 88
2, 143400, Note_on_c, 0, 62, 84
2, 143530, Note_off_c, 0, 47, 64
2, 143555, Note_off_c, 0, 62, 64
2, 143580, Note_off_c, 0, 54, 64
2, 143595, Note_off_c, 0, 57, 64
2, 143760, Note_on_c, 0, 52, 83
2, 143760, Note_on_c, 0, 55, 92
2, 143760, Note_on_c, 0, 60, 86
2, 143935, Note_off_c, 0, 55, 64
2, 143940, Note_off_c, 0, 52, 64
2, 143945, Note_off_c, 0, 60, 64
2, 144960, Note_on_c, 0, 52, 84
2, 144960, Note_on_c, 0, 55, 94
2, 144960, Note_on_c, 0, 60, 84
2, 145130, Note_off_c, 0, 52, 64
2, 145140, Note_off_c, 0, 55, 64
2, 145140, Note_off_c, 0, 60, 64
2, 145440, Note_on_c, 0, 47, 81
2, 145440, Note_on_c, 0, 54, 100
2, 145440, Note_on_c, 0, 57, 90
2, 145440, Note_on_c, 0, 62, 90
2, 145610, Note_off_c, 0, 47, 64
2, 145640, Note_off_c, 0, 54, 64
2, 145640, Note_off_c, 0, 62, 64
2, 145660, Note_off_c, 0, 57, 64
2, 145920, Note_on_c, 0, 50, 84
2, 145920, Note_on_c, 0, 55, 92
2, 145920, Note_on_c, 0, 59, 78
2, 146160, Note_off_c, 0, 55, 64
2, 146160, Note_off_c, 0, 50, 64
2, 146170, Note_off_c, 0, 59, 64
2, 146880, Note_on_c, 0, 47, 86
2, 146880, Note_on_c, 0, 54, 96
2, 146880, Note_on_c, 0, 57, 86
2, 146880, Note_on_c, 0, 62, 88
2, 147025, Note_off_c, 0, 57, 64
2, 147030, Note_off_c, 0, 54, 64
2, 147035, Note_off_c, 0, 47, 64
2, 147050, Note_off_c, 0, 62, 64
2, 147240, Note_on_c, 0, 47, 77
2, 147240, Note_on_c, 0, 54, 92
2, 147240, Note_on_c, 0, 57, 86
2, 147240, Note_on_c, 0, 62, 84
2, 147385, Note_off_c, 0, 62, 64
2, 147395, Note_off_c, 0, 47, 64
2, 147400, Note_off_c, 0, 54, 64
2, 147425, Note_off_c, 0, 57, 64
2, 147600, Note_on_c, 0, 52, 86
2, 147600, Note_on_c, 0, 55, 94
2, 147600, Note_on_c, 0, 60, 86
2, 147780, Note_off_c, 0, 55, 64
2, 147795, Note_off_c, 0, 52, 64
2, 147800, Note_off_c, 0, 60, 64
2, 148800, Note_on_c, 0, 50, 84
2, 148800, Note_on_c, 0, 52, 81
2, 148800, Note_on_c, 0, 55, 88
2, 148800, Note_on_c, 0, 60, 84
2, 148930, Note_off_c, 0, 52, 64
2, 148940, Note_off_c, 0, 50, 64
2, 148945, Note_off_c, 0, 55, 64
2, 148960, Note_off_c, 0, 60, 64
2, 149280, Note_on_c, 0, 50, 86
2, 149280, Note_on_c, 0, 52, 86
2, 149280, Note_on_c, 0, 55, 92
2, 149280, Note_on_c, 0, 60, 92
2, 149460, Note_off_c, 0, 55, 64
2, 149465, Note_off_c, 0, 52, 64
2, 149470, Note_off_c, 0, 60, 64
2, 149475, Note_off_c, 0, 50, 64
2, 149760, Note_on_c, 0, 50, 88
2, 149760, Note_on_c, 0, 55, 96
2, 149760, Note_on_c, 0, 59, 96
2, 150030, Note_off_c, 0, 50, 64
2, 150040, Note_off_c, 0, 55, 64
2, 150050, Note_off_c, 0, 59, 64
2, 150720, Note_on_c, 0, 47, 86
2, 150720, Note_on_c, 0, 54, 102
2, 150720, Note_on_c, 0, 57, 96
2, 150720, Note_on_c, 0, 62, 94
2, 150895, Note_off_c, 0, 54, 64
2, 150910, Note_off_c, 0, 47, 64
2, 150910, Note_off_c, 0, 62, 64
2, 150940, Note_off_c, 0, 57, 64
2, 151080, Note_on_c, 0, 47, 83
2, 151080, Note_on_c, 0, 54, 96
2, 151080, Note_on_c, 0, 57, 90
2, 151080, Note_on_c, 0, 62, 84
2, 151240, Note_off_c, 0, 47, 64
2, 151250, Note_off_c, 0, 62, 64
2, 151280, Note_off_c, 0, 54, 64
2, 151310, Note_off_c, 0, 57, 64
2, 151440, Note_on_c, 0, 52, 86
2, 151440, Note_on_c, 0, 55, 92
2, 151440, Note_on_c, 0, 60, 84
2, 151660, Note_off_c, 0, 52, 64
2, 151670, Note_off_c, 0, 55, 64
2, 151685, Note_off_c, 0, 60, 64
2, 152640, Note_on_c, 0, 52, 77
2, 152640, Note_on_c, 0, 55, 90
2, 152640, Note_on_c, 0, 60, 84
2, 152820, Note_off_c, 0, 60, 64
2, 152835, Note_off_c, 0, 55, 64
2, 152845, Note_off_c, 0, 52, 64
2, 153120, Note_on_c, 0, 47, 83
2, 153120, Note_on_c, 0, 54, 96
2, 153120, Note_on_c, 0, 57, 96
2, 153120, Note_on_c, 0, 62, 92
2, 153325, Note_off_c, 0, 47, 64
2, 153360, Note_off_c, 0, 54, 64
2, 153365, Note_off_c, 0, 62, 64
2, 153395, Note_off_c, 0, 57, 64
2, 153600, Note_on_c, 0, 50, 72
2, 153600, Note_on_c, 0, 55, 92
2, 153600, Note_on_c, 0, 59, 83
2, 153875, Note_off_c, 0, 50, 64
2, 153900, Note_off_c, 0, 55, 64
2, 153900, Note_off_c, 0, 59, 64
2, 154560, Note_on_c, 0, 47, 78
2, 154560, Note_on_c, 0, 54, 100
2, 154560, Note_on_c, 0, 57, 96
2, 154560, Note_on_c, 0, 62, 92
2, 154720, Note_off_c, 0, 54, 64
2, 154730, Note_off_c, 0, 47, 64
2, 154735, Note_off_c, 0, 57, 64
2, 154735, Note_off_c, 0, 62, 64
2, 154920, Note_on_c, 0, 47, 78
2, 154920, Note_on_c, 0, 54, 92
2, 154920, Note_on_c, 0, 57, 83
2, 154920, Note_on_c, 0, 62, 83
2, 155090, Note_off_c, 0, 62, 64
2, 155095, Note_off_c, 0, 47, 64
2, 155115, Note_off_c, 0, 54, 64
2, 155125, Note_off_c, 0, 57, 64
2, 155280, Note_on_c, 0, 50, 94
2, 155280, Note_on_c, 0, 52, 84
2, 155280, Note_on_c, 0, 55, 92
2, 155280, Note_on_c, 0, 60, 88
2, 155485, Note_off_c, 0, 55, 64
2, 155490, Note_off_c, 0, 52, 64
2, 155490, Note_off_c, 0, 50, 64
2, 155505, Note_off_c, 0, 60, 64
2, 156480, Note_on_c, 0, 50, 86
2, 156480, Note_on_c, 0, 52, 81
2, 156480, Note_on_c, 0, 55, 90
2, 156480, Note_on_c, 0, 60, 86
2, 156650, Note_off_c, 0, 52, 64
2, 156655, Note_off_c, 0, 55, 64
2, 156665, Note_off_c, 0, 60, 64
2, 156670, Note_off_c, 0, 50, 64
2, 156960, Note_on_c, 0, 50, 84
2, 156960, Note_on_c, 0, 52, 88
2, 156960, Note_on_c, 0, 55, 96
2, 156960, Note_on_c, 0, 60, 88
2, 157105, Note_off_c, 0, 50, 64
2, 157150, Note_off_c, 0, 52, 64
2, 157160, Note_off_c, 0, 60, 64
2, 157175, Note_off_c, 0, 55, 64
2, 157440, Note_on_c, 0, 50, 84
2, 157440, Note_on_c, 0, 55, 90
2, 157440, Note_on_c, 0, 59, 80
2, 157660, Note_off_c, 0, 50, 64
2, 157670, Note_off_c, 0, 55, 64
2, 157675, Note_off_c, 0, 59, 64
2, 158400, Note_on_c, 0, 47, 86
2, 158400, Note_on_c, 0, 54, 94
2, 158400, Note_on_c, 0, 57, 84
2, 158400, Note_on_c, 0, 62, 86
2, 158555, Note_off_c, 0, 47, 64
2, 158575, Note_off_c, 0, 62, 64
2, 158580, Note_off_c, 0, 54, 64
2, 158580, Note_off_c, 0, 57, 64
2, 158760, Note_on_c, 0, 47, 80
2, 158760, Note_on_c, 0, 54, 92
2, 158760, Note_on_c, 0, 57, 88
2, 158760, Note_on_c, 0, 62, 84
2, 158890, Note_off_c, 0, 47, 64
2, 158915, Note_off_c, 0, 62, 64
2, 158940, Note_off_c, 0, 54, 64
2, 158955, Note_off_c, 0, 57, 64
2, 159120, Note_on_c, 0, 52, 83
2, 159120, Note_on_c, 0, 55, 92
2, 159120, Note_on_c, 0, 60, 86
2, 159295, Note_off_c, 0, 55, 64
2, 159300, Note_off_c, 0, 52, 64
2, 159305, Note_off_c, 0, 60, 64
2, 160320, Note_on_c, 0, 52, 84
2, 160320, Note_on_c, 0, 55, 94
2, 160320, Note_on_c, 0, 60, 84
2, 160490, Note_off_c, 0, 52, 64
2, 160500, Note_off_c, 0, 55, 64
2, 160500, Note_off_c, 0, 60, 64
2, 160800, Note_on_c, 0, 47, 81
2, 160800, Note_on_c, 0, 54, 100
2, 160800, Note_on_c, 0, 57, 90
2, 160800, Note_on_c, 0, 62, 90
2, 160970, Note_off_c, 0, 47, 64
2, 161000, Note_off_c, 0, 54, 64
2, 161000, Note_off_c, 0, 62, 64
2, 161020, Note_off_c, 0, 57, 64
2, 161280, Note_on_c, 0, 50, 84
2, 161280, Note_on_c, 0, 55, 92
2, 161280, Note_on_c, 0, 59, 78
2, 161520, Note_off_c, 0, 55, 64
2, 161520, Note_off_c, 0, 50, 64
2, 161530, Note_off_c, 0, 59, 64
2, 162240, Note_on_c, 0, 47, 86
2, 162240, Note_on_c, 0, 54, 96
2, 162240, Note_on_c, 0, 57, 86
2, 162240, Note_on_c, 0, 62, 88
2, 162385, Note_off_c, 0, 57, 64
2, 162390, Note_off_c, 0, 54, 64
2, 162395, Note_off_c, 0, 47, 64
2, 162410, Note_off_c, 0, 62, 64
2, 162600, Note_on_c, 0, 47, 77
2, 162600, Note_on_c, 0, 54, 92
2, 162600, Note_on_c, 0, 57, 86
2, 162600, Note_on_c, 0, 62, 84
2, 162745, Note_off_c, 0, 62, 64
2, 162755, Note_off_c, 0, 47, 64
2, 162760, Note_off_c, 0, 54, 64
2, 162785, Note_off_c, 0, 57, 64
2, 162960, Note_on_c, 0, 52, 86
2, 162960, Note_on_c, 0, 55, 94
2, 162960, Note_on_c, 0, 60, 86
2, 163140, Note_off_c, 0, 55, 64
2, 163155, Note_off_c, 0, 52, 64
2, 163160, Note_off_c, 0, 60, 64
2, 164160, Note_on_c, 0, 50, 84
2, 164160, Note_on_c, 0, 52, 81
2, 164160, Note_on_c, 0, 55, 88
2, 164160, Note_on_c, 0, 60, 84
2, 164290, Note_off_c, 0, 52, 64
2, 164300, Note_off_c, 0, 50, 64
2, 164305, Note_off_c, 0, 55, 64
2, 164320, Note_off_c, 0, 60, 64
2, 164640, Note_on_c, 0, 50, 86
2, 164640, Note_on_c, 0, 52, 86
2, 164640, Note_on_c, 0, 55, 92
2, 164640, Note_on_c, 0, 60, 92
2, 164820, Note_off_c, 0, 55, 64
2, 164825, Note_off_c, 0, 52, 64
2, 164830, Note_off_c, 0, 60, 64
2, 164835, Note_off_c, 0, 50, 64
2, 165120, Note_on_c, 0, 50, 88
2, 165120, Note_on_c, 0, 55, 96
2, 165120, Note_on_c, 0, 59, 96
2, 165390, Note_off_c, 0, 50, 64
2, 165400, Note_off_c, 0, 55, 64
2, 165410, Note_off_c, 0, 59, 64
2, 166080, Note_on_c, 0, 47, 86
2, 166080, Note_on_c, 0, 54, 102
2, 166080, Note_on_c, 0, 57, 96
2, 166080, Note_on_c, 0, 62, 94
2, 166255, Note_off_c, 0, 54, 64
2, 166270, Note_off_c, 0, 47, 64
2, 166270, Note_off_c, 0, 62, 64
2, 166300, Note_off_c, 0, 57, 64
2, 166440, Note_on_c, 0, 47, 83
2, 166440, Note_on_c, 0, 54, 96
2, 166440, Note_on_c, 0, 57, 90
2, 166440, Note_on_c, 0, 62, 84
2, 166600, Note_off_c, 0, 47, 64
2, 166610, Note_off_c, 0, 62, 64
2, 166640, Note_off_c, 0, 54, 64
2, 166670, Note_off_c, 0, 57, 64
2, 166800, Note_on_c, 0, 52, 86
2, 166800, Note_on_c, 0, 55, 92
2, 166800, Note_on_c, 0, 60, 84
2, 167020, Note_off_c, 0, 52, 64
2, 167030, Note_off_c, 0, 55, 64
2, 167045, Note_off_c, 0, 60, 64
2, 168000, Note_on_c, 0, 52, 77
2, 168000, Note_on_c, 0, 55, 90
2, 168000, Note_on_c, 0, 60, 84
2, 168180, Note_off_c, 0, 60, 64
2, 168195, Note_off_c, 0, 55, 64
2, 168205, Note_off_c, 0, 52, 64
2, 168480, Note_on_c, 0, 47, 83
2, 168480, Note_on_c, 0, 54, 96
2, 168480, Note_on_c, 0, 57, 96
2, 168480, Note_on_c, 0, 62, 92
2, 168685, Note_off_c, 0, 47, 64
2, 168720, Note_off_c, 0, 54, 64
2, 168725, Note_off_c, 0, 62, 64
2, 168755, Note_off_c, 0, 57, 64
2, 168960, Note_on_c, 0, 50, 72
2, 168960, Note_on_c, 0, 55, 92
2, 168960, Note_on_c, 0, 59, 83
2, 169235, Note_off_c, 0, 50, 64
2, 169260, Note_off_c, 0, 55, 64
2, 169260, Note_off_c, 0, 59, 64
2, 169920, Note_on_c, 0, 47, 78
2, 169920, Note_on_c, 0, 54, 100
2, 169920, Note_on_c, 0, 57, 96
2, 169920, Note_on_c, 0, 62, 92
2, 170080, Note_off_c, 0, 54, 64
2, 170090, Note_off_c, 0, 47, 64
2, 170095, Note_off_c, 0, 57, 64
2, 170095, Note_off_c, 0, 62, 64
2, 170280, Note_on_c, 0, 47, 78
2, 170280, Note_on_c, 0, 54, 92
2, 170280, Note_on_c, 0, 57, 83
2, 170280, Note_on_c, 0, 62, 83
2, 170450, Note_off_c, 0, 62, 64
2, 170455, Note_off_c, 0, 47, 64
2, 170475, Note_off_c, 0, 54, 64
2, 170485, Note_off_c, 0, 57, 64
2, 170640, Note_on_c, 0, 50, 94
2, 170640, Note_on_c, 0, 52, 84
2, 170640, Note_on_c, 0, 55, 92
2, 170640, Note_on_c, 0, 60, 88
2, 170845, Note_off_c, 0, 55, 64
2, 170850, Note_off_c, 0, 52, 64
2, 170850, Note_off_c, 0, 50, 64
2, 170865, Note_off_c, 0, 60, 64
2, 171840, Note_on_c, 0, 50, 86
2, 171840, Note_on_c, 0, 52, 81
2, 171840, Note_on_c, 0, 55, 90
2, 171840, Note_on_c, 0, 60, 86
2, 172010, Note_off_c, 0, 52, 64
2, 172015, Note_off_c, 0, 55, 64
2, 172025, Note_off_c, 0, 60, 64
2, 172030, Note_off_c, 0, 50, 64
2, 172320, Note_on_c, 0, 50, 84
2, 172320, Note_on_c, 0, 52, 88
2, 172320, Note_on_c, 0, 55, 96
2, 172320, Note_on_c, 0, 60, 88
2, 172465, Note_off_c, 0, 50, 64
2, 172510, Note_off_c, 0, 52, 64
2, 172520, Note_off_c, 0, 60, 64
2, 172535, Note_off_c, 0, 55, 64
2, 172800, Note_on_c, 0, 50, 84
2, 172800, Note_on_c, 0, 55, 90
2, 172800, Note_on_c, 0, 59, 80
2, 173020, Note_off_c, 0, 50, 64
2, 173030, Note_off_c, 0, 55, 64
2, 173035, Note_off_c, 0, 59, 64
2, 173760, Note_on_c, 0, 47, 86
2, 173760, Note_on_c, 0, 54, 94
2, 173760, Note_on_c, 0, 57, 84
2, 173760, Note_on_c, 0, 62, 86
2, 173915, Note_off_c, 0, 47, 64
2, 173935, Note_off_c, 0, 62, 64
2, 173940, Note_off_c, 0, 54, 64
2, 173940, Note_off_c, 0, 57, 64
2, 174120, Note_on_c, 0, 47, 80
2, 174120, Note_on_c, 0, 54, 92
2, 174120, Note_on_c, 0, 57, 88
2, 174120, Note_on_c, 0, 62, 84
2, 174250, Note_off_c, 0, 47, 64
2, 174275, Note_off_c, 0, 62, 64
2, 174300, Note_off_c, 0, 54, 64
2, 174315, Note_off_c, 0, 57, 64
2, 174480, Note_on_c, 0, 52, 83
2, 174480, Note_on_c, 0, 55, 92
2, 174480, Note_on_c, 0, 60, 86
2, 174655, Note_off_c, 0, 55, 64
2, 174660, Note_off_c, 0, 52, 64
2, 174665, Note_off_c, 0, 60, 64
2, 175680, Note_on_c, 0, 52, 84
2, 175680, Note_on_c, 0, 55, 94
2, 175680, Note_on_c, 0, 60, 84
2, 175850, Note_off_c, 0, 52, 64
2, 175860, Note_off_c, 0, 55, 64
2, 175860, Note_off_c, 0, 60, 64
2, 176160, Note_on_c, 0, 47, 81
2, 176160, Note_on_c, 0, 54, 100
2, 176160, Note_on_c, 0, 57, 90
2, 176160, Note_on_c, 0, 62, 90
2, 176330, Note_off_c, 0, 47, 64
2, 176360, Note_off_c, 0, 54, 64
2, 176360, Note_off_c, 0, 62, 64
2, 176380, Note_off_c, 0, 57, 64
2, 176640, Note_on_c, 0, 50, 84
2, 176640, Note_on_c, 0, 55, 92
2, 176640, Note_on_c, 0, 59, 78
2, 176880, Note_off_c, 0, 55, 64
2, 176880, Note_off_c, 0, 50, 64
2, 176890, Note_off_c, 0, 59, 64
2, 177600, Note_on_c, 0, 47, 86
2, 177600, Note_on_c, 0, 54, 96
2, 177600, Note_on_c, 0, 57, 86
2, 177600, Note_on_c, 0, 62, 88
2, 177745, Note_off_c, 0, 57, 64
2, 177750, Note_off_c, 0, 54, 64
2, 177755, Note_off_c, 0, 47, 64
2, 177770, Note_off_c, 0, 62, 64
2, 177960, Note_on_c, 0, 47, 77
2, 177960, Note_on_c, 0, 54, 92
2, 177960, Note_on_c, 0, 57, 86
2, 177960, Note_on_c, 0, 62, 84
2, 178105, Note_off_c, 0, 62, 64
2, 178115, Note_off_c, 0, 47, 64
2, 178120, Note_off_c, 0, 54, 64
2, 178145, Note_off_c, 0, 57, 64
2, 178320, Note_on_c, 0, 52, 86
2, 178320, Note_on_c, 0, 55, 94
2, 178320, Note_on_c, 0, 60, 86
2, 178500, Note_off_c, 0, 55, 64
2, 178515, Note_off_c, 0, 52, 64
2, 178520, Note_off_c, 0, 60, 64
2, 179520, Note_on_c, 0, 50, 84
2, 179520, Note_on_c, 0, 52, 81
2, 179520, Note_on_c, 0, 55, 88
2, 179520, Note_on_c, 0, 60, 84
2, 179650, Note_off_c, 0, 52, 64
2, 179660, Note_off_c, 0, 50, 64
2, 179665, Note_off_c, 0, 55, 64
2, 179680, Note_off_c, 0, 60, 64
2, 180000, Note_on_c, 0, 50, 86
2, 180000, Note_on_c, 0, 52, 86
2, 180000, Note_on_c, 0, 55, 92
2, 180000, Note_on_c, 0, 60, 92
2, 180180, Note_off_c, 0, 55, 64
2, 180185, Note_off_c, 0, 52, 64
2, 180190, Note_off_c, 0, 60, 64
2, 180195, Note_off_c, 0, 50, 64
2, 180480, Note_on_c, 0, 50, 88
2, 180480, Note_on_c, 0, 55, 96
2, 180480, Note_on_c, 0, 59, 96
2, 180750, Note_off_c, 0, 50, 64
2, 180760, Note_off_c, 0, 55, 64
2, 180770, Note_off_c, 0, 59, 64
2, 181440, Note_on_c, 0, 47, 86
2, 181440, Note_on_c, 0, 54, 102
2, 181440, Note_on_c, 0, 57, 96
2, 181440, Note_on_c, 0, 62, 94
2, 181615, Note_off_c, 0, 54, 64
2, 181630, Note_off_c, 0, 47, 64
2, 181630, Note_off_c, 0, 62, 64
2, 181660, Note_off_c, 0, 57, 64
2, 181800, Note_on_c, 0, 47, 83
2, 181800, Note_on_c, 0, 54, 96
2, 181800, Note_on_c, 0, 57, 90
2, 181800, Note_on_c, 0, 62, 84
2, 181960, Note_off_c, 0, 47, 64
2, 181970, Note_off_c, 0, 62, 64
2, 182000, Note_off_c, 0, 54, 64
2, 182030, Note_off_c, 0, 57, 64
2, 182160, Note_on_c, 0, 52, 86
2, 182160, Note_on_c, 0, 55, 92
2, 182160, Note_on_c, 0, 60, 84
2, 182380, Note_off_c, 0, 52, 64
2, 182390, Note_off_c, 0, 55, 64
2, 182405, Note_off_c, 0, 60, 64
2, 183360, Note_on_c, 0, 52, 77
2, 183360, Note_on_c, 0, 55, 90
2, 183360, Note_on_c, 0, 60, 84
2, 183540, Note_off_c, 0, 60, 64
2, 183555, Note_off_c, 0, 55, 64
2, 183565, Note_off_c, 0, 52, 64
2, 183840, Note_on_c, 0, 47, 83
2, 183840, Note_on_c, 0, 54, 96
2, 183840, Note_on_c, 0, 57, 96
2, 183840, Note_on_c, 0, 62, 92
2, 184045, Note_off_c, 0, 47, 64
2, 184080, Note_off_c, 0, 54, 64
2, 184085, Note_off_c, 0, 62, 64
2, 184115, Note_off_c, 0, 57, 64
2, 184320, Note_on_c, 0, 50, 72
2, 184320, Note_on_c, 0, 55, 92
2, 184320, Note_on_c, 0, 59, 83
2, 184595, Note_off_c, 0, 50, 64
2, 184620, Note_off_c, 0, 55, 64
2, 184620, Note_off_c, 0, 59, 64
2, 185280, Note_on_c, 0, 47, 78
2, 185280, Note_on_c, 0, 54, 100
2, 185280, Note_on_c, 0, 57, 96
2, 185280, Note_on_c, 0, 62, 92
2, 185440, Note_off_c, 0, 54, 64
2, 185450, Note_off_c, 0, 47, 64
2, 185455, Note_off_c, 0, 57, 64
2, 185455, Note_off_c, 0, 62, 64
2, 185640, Note_on_c, 0, 47, 78
2, 185640, Note_on_c, 0, 54, 92
2, 185640, Note_on_c, 0, 57, 83
2, 185640, Note_on_c, 0, 62, 83
2, 185810, Note_off_c, 0, 62, 64
2, 185815, Note_off_c, 0, 47, 64
2, 185835, Note_off_c, 0, 54, 64
2, 185845, Note_off_c, 0, 57, 64
2, 186000, Note_on_c, 0, 50, 94
2, 186000, Note_on_c, 0, 52, 84
2, 186000, Note_on_c, 0, 55, 92
2, 186000, Note_on_c, 0, 60, 88
2, 186205, Note_off_c, 0, 55, 64
2, 186210, Note_off_c, 0, 52, 64
2, 186210, Note_off_c, 0, 50, 64
2, 186225, Note_off_c, 0, 60, 64
2, 187200, Note_on_c, 0, 50, 86
2, 187200, Note_on_c, 0, 52, 81
2, 187200, Note_on_c, 0, 55, 90
2, 187200, Note_on_c, 0, 60, 86
2, 187370, Note_off_c, 0, 52, 64
2, 187375, Note_off_c, 0, 55, 64
2, 187385, Note_off_c, 0, 60, 64
2, 187390, Note_off_c, 0, 50, 64
2, 187680, Note_on_c, 0, 50, 84
2, 187680, Note_on_c, 0, 52, 88
2, 187680, Note_on_c, 0, 55, 96
2, 187680, Note_on_c, 0, 60, 88
2, 187825, Note_off_c, 0, 50, 64
2, 187870, Note_off_c, 0, 52, 64
2, 187880, Note_off_c, 0, 60, 64
2, 187895, Note_off_c, 0, 55, 64
2, 188160, Note_on_c, 0, 50, 84
2, 188160, Note_on_c, 0, 55, 90
2, 188160, Note_on_c, 0, 59, 80
2, 188380, Note_off_c, 0, 50, 64
2, 188390, Note_off_c, 0, 55, 64
2, 188395, Note_off_c, 0, 59, 64
2, 189120, Note_on_c, 0, 54, 94
2, 189120, Note_on_c, 0, 57, 84
2, 189120, Note_on_c, 0, 62, 86
2, 189295, Note_off_c, 0, 62, 64
2, 189300, Note_off_c, 0, 57, 64
2, 189300, Note_off_c, 0, 54, 64
2, 189480, Note_on_c, 0, 54, 92
2, 189480, Note_on_c, 0, 57, 88
2, 189480, Note_on_c, 0, 62, 84
2, 189635, Note_off_c, 0, 62, 64
2, 189660, Note_off_c, 0, 54, 64
2, 189675, Note_off_c, 0, 57, 64
2, 189840, Note_on_c, 0, 52, 83
2, 189840, Note_on_c, 0, 55, 92
2, 189840, Note_on_c, 0, 60, 86
2, 190015, Note_off_c, 0, 55, 64
2, 190020, Note_off_c, 0, 52, 64
2, 190025, Note_off_c, 0, 60, 64
2, 191040, Note_on_c, 0, 52, 84
2, 191040, Note_on_c, 0, 55, 94
2, 191040, Note_on_c, 0, 60, 84
2, 191210, Note_off_c, 0, 52, 64
2, 191220, Note_off_c, 0, 55, 64
2, 191220, Note_off_c, 0, 60, 64
2, 191520, Note_on_c, 0, 54, 100
2, 191520, Note_on_c, 0, 57, 90
2, 191520, Note_on_c, 0, 62, 90
2, 191720, Note_off_c, 0, 62, 64
2, 191720, Note_off_c, 0, 54, 64
2, 191740, Note_off_c, 0, 57, 64
2, 192000, Note_on_c, 0, 50, 84
2, 192000, Note_on_c, 0, 55, 92
2, 192000, Note_on_c, 0, 59, 78
2, 192240, Note_off_c, 0, 55, 64
2, 192240, Note_off_c, 0, 50, 64
2, 192250, Note_off_c, 0, 59, 64
2, 192960, Note_on_c, 0, 54, 96
2, 192960, Note_on_c, 0, 57, 86
2, 192960, Note_on_c, 0, 62, 88
2, 193105, Note_off_c, 0, 57, 64
2, 193110, Note_off_c, 0, 54, 64
2, 193130, Note_off_c, 0, 62, 64
2, 193320, Note_on_c, 0, 54, 92
2, 193320, Note_on_c, 0, 57, 86
2, 193320, Note_on_c, 0, 62, 84
2, 193465, Note_off_c, 0, 62, 64
2, 193480, Note_off_c, 0, 54, 64
2, 193505, Note_off_c, 0, 57, 64
2, 193680, Note_on_c, 0, 52, 86
2, 193680, Note_on_c, 0, 55, 94
2, 193680, Note_on_c, 0, 60, 86
2, 193860, Note_off_c, 0, 55, 64
2, 193875, Note_off_c, 0, 52, 64
2, 193880, Note_off_c, 0, 60, 64
2, 194880, Note_on_c, 0, 50, 84
2, 194880, Note_on_c, 0, 52, 81
2, 194880, Note_on_c, 0, 55, 88
2, 194880, Note_on_c, 0, 60, 84
2, 195010, Note_off_c, 0, 52, 64
2, 195020, Note_off_c, 0, 50, 64
2, 195025, Note_off_c, 0, 55, 64
2, 195040, Note_off_c, 0, 60, 64
2, 195360, Note_on_c, 0, 50, 86
2, 195360, Note_on_c, 0, 52, 86
2, 195360, Note_on_c, 0, 55, 92
2, 195360, Note_on_c, 0, 60, 92
2, 195540, Note_off_c, 0, 55, 64
2, 195545, Note_off_c, 0, 52, 64
2, 195550, Note_off_c, 0, 60, 64
2, 195555, Note_off_c, 0, 50, 64
2, 195840, Note_on_c, 0, 28, 95
2, 195840, Note_on_c, 0, 40, 95
2, 196125, Note_off_c, 0, 28, 64
2, 196135, Note_off_c, 0, 40, 64
2, 196800, Note_on_c, 0, 35, 91
2, 196800, Note_on_c, 0, 47, 89
2, 197065, Note_off_c, 0, 35, 64
2, 197085, Note_off_c, 0, 47, 64
2, 197280, Note_on_c, 0, 36, 87
2, 197280, Note_on_c, 0, 48, 87
2, 197595, Note_off_c, 0, 36, 64
2, 197615, Note_off_c, 0, 48, 64
2, 197760, Note_on_c, 0, 38, 93
2, 197760, Note_on_c, 0, 50, 89
2, 198075, Note_off_c, 0, 50, 64
2, 198080, Note_off_c, 0, 38, 64
2, 198720, Note_on_c, 0, 33, 95
2, 198720, Note_on_c, 0, 45, 89
2, 199020, Note_off_c, 0, 33, 64
2, 199055, Note_off_c, 0, 45, 64
2, 199200, Note_on_c, 0, 35, 89
2, 199200, Note_on_c, 0, 47, 89
2, 199465, Note_off_c, 0, 47, 64
2, 199535, Note_off_c, 0, 35, 64
2, 199680, Note_on_c, 0, 28, 97
2, 199680, Note_on_c, 0, 40, 89
2, 199995, Note_off_c, 0, 28, 64
2, 200025, Note_off_c, 0, 40, 64
2, 200640, Note_on_c, 0, 35, 93
2, 200640, Note_on_c, 0, 47, 87
2, 200935, Note_off_c, 0, 35, 64
2, 200970, Note_off_c, 0, 47, 64
2, 201120, Note_on_c, 0, 36, 85
2, 201120, Note_on_c, 0, 48, 89
2, 201420, Note_off_c, 0, 36, 64
2, 201435, Note_off_c, 0, 48, 64
2, 201600, Note_on_c, 0, 38, 93
2, 201600, Note_on_c, 0, 50, 89
2, 201895, Note_off_c, 0, 38, 64
2, 201910, Note_off_c, 0, 50, 64
2, 203520, Note_on_c, 0, 28, 95
2, 203520, Note_on_c, 0, 40, 95
2, 203805, Note_off_c, 0, 28, 64
2, 203815, Note_off_c, 0, 40, 64
2, 204480, Note_on_c, 0, 35, 91
2, 204480, Note_on_c, 0, 47, 89
2, 204745, Note_off_c, 0, 35, 64
2, 204765, Note_off_c, 0, 47, 64
2, 204960, Note_on_c, 0, 36, 87
2, 204960, Note_on_c, 0, 48, 87
2, 205275, Note_off_c, 0, 36, 64
2, 205295, Note_off_c, 0, 48, 64
2, 205440, Note_on_c, 0, 38, 93
2, 205440, Note_on_c, 0, 50, 89
2, 205755, Note_off_c, 0, 50, 64
2, 205760, Note_off_c, 0, 38, 64
2, 206400, Note_on_c, 0, 33, 95
2, 206400, Note_on_c, 0, 45, 89
2, 206700, Note_off_c, 0, 33, 64
2, 206735, Note_off_c, 0, 45, 64
2, 206880, Note_on_c, 0, 35, 89
2, 206880, Note_on_c, 0, 47, 89
2, 207145, Note_off_c, 0, 47, 64
2, 207215, Note_off_c, 0, 35, 64
2, 207360, Note_on_c, 0, 28, 97
2, 207360, Note_on_c, 0, 40, 89
2, 207675, Note_off_c, 0, 28, 64
2, 207705, Note_off_c, 0, 40, 64
2, 208320, Note_on_c, 0, 35, 93
2, 208320, Note_on_c, 0, 47, 87
2, 208615, Note_off_c, 0, 35, 64
2, 208650, Note_off_c, 0, 47, 64
2, 208800, Note_on_c, 0, 36, 85
2, 208800, Note_on_c, 0, 48, 89
2, 209100, Note_off_c, 0, 36, 64
2, 209115, Note_off_c, 0, 48, 64
2, 209280, Note_on_c, 0, 38, 93
2, 209280, Note_on_c, 0, 50, 89
2, 209575, Note_off_c, 0, 38, 64
2, 209590, Note_off_c, 0, 50, 64
2, 211200, Note_on_c, 0, 50, 88
2, 211200, Note_on_c, 0, 55, 96
2, 211200, Note_on_c, 0, 59, 96
2, 211470, Note_off_c, 0, 50, 64
2, 211480, Note_off_c, 0, 55, 64
2, 211490, Note_off_c, 0, 59, 64
2, 212160, Note_on_c, 0, 47, 86
2, 212160, Note_on_c, 0, 54, 102
2, 212160, Note_on_c, 0, 57, 96
2, 212160, Note_on_c, 0, 62, 94
2, 212335, Note_off_c, 0, 54, 64
2, 212350, Note_off_c, 0, 47, 64
2, 212350, Note_off_c, 0, 62, 64
2, 212380, Note_off_c, 0, 57, 64
2, 212520, Note_on_c, 0, 47, 83
2, 212520, Note_on_c, 0, 54, 96
2, 212520, Note_on_c, 0, 57, 90
2, 212520, Note_on_c, 0, 62, 84
2, 212680, Note_off_c, 0, 47, 64
2, 212690, Note_off_c, 0, 62, 64
2, 212720, Note_off_c, 0, 54, 64
2, 212750, Note_off_c, 0, 57, 64
2, 212880, Note_on_c, 0, 52, 86
2, 212880, Note_on_c, 0, 55, 92
2, 212880, Note_on_c, 0, 60, 84
2, 213100, Note_off_c, 0, 52, 64
2, 213110, Note_off_c, 0, 55, 64
2, 213125, Note_off_c, 0, 60, 64
2, 214080, Note_on_c, 0, 52, 77
2, 214080, Note_on_c, 0, 55, 90
2, 214080, Note_on_c, 0, 60, 84
2, 214260, Note_off_c, 0, 60, 64
2, 214275, Note_off_c, 0, 55, 64
2, 214285, Note_off_c, 0, 52, 64
2, 214560, Note_on_c, 0, 47, 83
2, 214560, Note_on_c, 0, 54, 96
2, 214560, Note_on_c, 0, 57, 96
2, 214560, Note_on_c, 0, 62, 92
2, 214765, Note_off_c, 0, 47, 64
2, 214800, Note_off_c, 0, 54, 64
2, 214805, Note_off_c, 0, 62, 64
2, 214835, Note_off_c, 0, 57, 64
2, 215040, Note_on_c, 0, 50, 72
2, 215040, Note_on_c, 0, 55, 92
2, 215040, Note_on_c, 0, 59, 83
2, 215315, Note_off_c, 0, 50, 64
2, 215340, Note_off_c, 0, 55, 64
2, 215340, Note_off_c, 0, 59, 64
2, 216000, Note_on_c, 0, 47, 78
2, 216000, Note_on_c, 0, 54, 100
2, 216000, Note_on_c, 0, 57, 96
2, 216000, Note_on_c, 0, 62, 92
2, 216160, Note_off_c, 0, 54, 64
2, 216170, Note_off_c, 0, 47, 64
2, 216175, Note_off_c, 0, 57, 64
2, 216175, Note_off_c, 0, 62, 64
2, 216360, Note_on_c, 0, 47, 78
2, 216360, Note_on_c, 0, 54, 92
2, 216360, Note_on_c, 0, 57, 83
2, 216360, Note_on_c, 0, 62, 83
2, 216530, Note_off_c, 0, 62, 64
2, 216535, Note_off_c, 0, 47, 64
2, 216555, Note_off_c, 0, 54, 64
2, 216565, Note_off_c, 0, 57, 64
2, 216720, Note_on_c, 0, 50, 94
2, 216720, Note_on_c, 0, 52, 84
2, 216720, Note_on_c, 0, 55, 92
2, 216720, Note_on_c, 0, 60, 88
2, 216925, Note_off_c, 0, 55, 64
2, 216930, Note_off_c, 0, 52, 64
2, 216930, Note_off_c, 0, 50, 64
2, 216945, Note_off_c, 0, 60, 64
2, 217920, Note_on_c, 0, 50, 86
2, 217920, Note_on_c, 0, 52, 81
2, 217920, Note_on_c, 0, 55, 90
2, 217920, Note_on_c, 0, 60, 86
2, 218090, Note_off_c, 0, 52, 64
2, 218095, Note_off_c, 0, 55, 64
2, 218105, Note_off_c, 0, 60, 64
2, 218110, Note_off_c, 0, 50, 64
2, 218400, Note_on_c, 0, 50, 84
2, 218400, Note_on_c, 0, 52, 88
2, 218400, Note_on_c, 0, 55, 96
2, 218400, Note_on_c, 0, 60, 88
2, 218545, Note_off_c, 0, 50, 64
2, 218590, Note_off_c, 0, 52, 64
2, 218600, Note_off_c, 0, 60, 64
2, 218615, Note_off_c, 0, 55, 64
2, 218880, Note_on_c, 0, 50, 84
2, 218880, Note_on_c, 0, 55, 90
2, 218880, Note_on_c, 0, 59, 80
2, 219100, Note_off_c, 0, 50, 64
2, 219110, Note_off_c, 0, 55, 64
2, 219115, Note_off_c, 0, 59, 64
2, 219840, Note_on_c, 0, 47, 86
2, 219840, Note_on_c, 0, 54, 94
2, 219840, Note_on_c, 0, 57, 84
2, 219840, Note_on_c, 0, 62, 86
2, 219995, Note_off_c, 0, 47, 64
2, 220015, Note_off_c, 0, 62, 64
2, 220020, Note_off_c, 0, 54, 64
2, 220020, Note_off_c, 0, 57, 64
2, 220200, Note_on_c, 0, 47, 80
2, 220200, Note_on_c, 0, 54, 92
2, 220200, Note_on_c, 0, 57, 88
2, 220200, Note_on_c, 0, 62, 84
2, 220330, Note_off_c, 0, 47, 64
2, 220355, Note_off_c, 0, 62, 64
2, 220380, Note_off_c, 0, 54, 64
2, 220395, Note_off_c, 0, 57, 64
2, 220560, Note_on_c, 0, 52, 83
2, 220560, Note_on_c, 0, 55, 92
2, 220560, Note_on_c, 0, 60, 86
2, 220735, Note_off_c, 0, 55, 64
2, 220740, Note_off_c, 0, 52, 64
2, 220745, Note_off_c, 0, 60, 64
2, 221760, Note_on_c, 0, 52, 84
2, 221760, Note_on_c, 0, 55, 94
2, 221760, Note_on_c, 0, 60, 84
2, 221930, Note_off_c, 0, 52, 64
2, 221940, Note_off_c, 0, 55, 64
2, 221940, Note_off_c, 0, 60, 64
2, 222240, Note_on_c, 0, 47, 81
2, 222240, Note_on_c, 0, 54, 100
2, 222240, Note_on_c, 0, 57, 90
2, 222240, Note_on_c, 0, 62, 90
2, 222410, Note_off_c, 0, 47, 64
2, 222440, Note_off_c, 0, 54, 64
2, 222440, Note_off_c, 0, 62, 64
2, 222460, Note_off_c, 0, 57, 64
2, 222720, Note_on_c, 0, 50, 84
2, 222720, Note_on_c, 0, 55, 92
2, 222720, Note_on_c, 0, 59, 78
2, 222960, Note_off_c, 0, 55, 64
2, 222960, Note_off_c, 0, 50, 64
2, 222970, Note_off_c, 0, 59, 64
2, 223680, Note_on_c, 0, 47, 86
2, 223680, Note_on_c, 0, 54, 96
2, 223680, Note_on_c, 0, 57, 86
2, 223680, Note_on_c, 0, 62, 88
2, 223825, Note_off_c, 0, 57, 64
2, 223830, Note_off_c, 0, 54, 64
2, 223835, Note_off_c, 0, 47, 64
2, 223850, Note_off_c, 0, 62, 64
2, 224040, Note_on_c, 0, 47, 77
2, 224040, Note_on_c, 0, 54, 92
2, 224040, Note_on_c, 0, 57, 86
2, 224040, Note_on_c, 0, 62, 84
2, 224185, Note_off_c, 0, 62, 64
2, 224195, Note_off_c, 0, 47, 64
2, 224200, Note_off_c, 0, 54, 64
2, 224225, Note_off_c, 0, 57, 64
2, 224400, Note_on_c, 0, 52, 86
2, 224400, Note_on_c, 0, 55, 94
2, 224400, Note_on_c, 0, 60, 86
2, 224580, Note_off_c, 0, 55, 64
2, 224595, Note_off_c, 0, 52, 64
2, 224600, Note_off_c, 0, 60, 64
2, 225600, Note_on_c, 0, 50, 84
2, 225600, Note_on_c, 0, 52, 81
2, 225600, Note_on_c, 0, 55, 88
2, 225600, Note_on_c, 0, 60, 84
2, 225730, Note_off_c, 0, 52, 64
2, 225740, Note_off_c, 0, 50, 64
2, 225745, Note_off_c, 0, 55, 64
2, 225760, Note_off_c, 0, 60, 64
2, 226080, Note_on_c, 0, 50, 86
2, 226080, Note_on_c, 0, 52, 86
2, 226080, Note_on_c, 0, 55, 92
2, 226080, Note_on_c, 0, 60, 92
2, 226260, Note_off_c, 0, 55, 64
2, 226265, Note_off_c, 0, 52, 64
2, 226270, Note_off_c, 0, 60, 64
2, 226275, Note_off_c, 0, 50, 64
2, 226560, Note_on_c, 0, 50, 88
2, 226560, Note_on_c, 0, 55, 96
2, 226560, Note_on_c, 0, 59, 96
2, 226830, Note_off_c, 0, 50, 64
2, 226840, Note_off_c, 0, 55, 64
2, 226850, Note_off_c, 0, 59, 64
2, 227520, Note_on_c, 0, 47, 86
2, 227520, Note_on_c, 0, 54, 102
2, 227520, Note_on_c, 0, 57, 96
2, 227520, Note_on_c, 0, 62, 94
2, 227695, Note_off_c, 0, 54, 64
2, 227710, Note_off_c, 0, 47, 64
2, 227710, Note_off_c, 0, 62, 64
2, 227740, Note_off_c, 0, 57, 64
2, 227880, Note_on_c, 0, 47, 83
2, 227880, Note_on_c, 0, 54, 96
2, 227880, Note_on_c, 0, 57, 90
2, 227880, Note_on_c, 0, 62, 84
2, 228040, Note_off_c, 0, 47, 64
2, 228050, Note_off_c, 0, 62, 64
2, 228080, Note_off_c, 0, 54, 64
2, 228110, Note_off_c, 0, 57, 64
2, 228240, Note_on_c, 0, 52, 86
2, 228240, Note_on_c, 0, 55, 92
2, 228240, Note_on_c, 0, 60, 84
2, 228460, Note_off_c, 0, 52, 64
2, 228470, Note_off_c, 0, 55, 64
2, 228485, Note_off_c, 0, 60, 64
2, 229440, Note_on_c, 0, 52, 77
2, 229440, Note_on_c, 0, 55, 90
2, 229440, Note_on_c, 0, 60, 84
2, 229620, Note_off_c, 0, 60, 64
2, 229635, Note_off_c, 0, 55, 64
2, 229645, Note_off_c, 0, 52, 64
2, 229920, Note_on_c, 0, 47, 83
2, 229920, Note_on_c, 0, 54, 96
2, 229920, Note_on_c, 0, 57, 96
2, 229920, Note_on_c, 0, 62, 92
2, 230125, Note_off_c, 0, 47, 64
2, 230160, Note_off_c, 0, 54, 64
2, 230165, Note_off_c, 0, 62, 64
2, 230195, Note_off_c, 0, 57, 64
2, 230400, Note_on_c, 0, 50, 72
2, 230400, Note_on_c, 0, 55, 92
2, 230400, Note_on_c, 0, 59, 83
2, 230675, Note_off_c, 0, 50, 64
2, 230700, Note_off_c, 0, 55, 64
2, 230700, Note_off_c, 0, 59, 64
2, 231360, Note_on_c, 0, 47, 78
2, 231360, Note_on_c, 0, 54, 100
2, 231360, Note_on_c, 0, 57, 96
2, 231360, Note_on_c, 0, 62, 92
2, 231520, Note_off_c, 0, 54, 64
2, 231530, Note_off_c, 0, 47, 64
2, 231535, Note_off_c, 0, 57, 64
2, 231535, Note_off_c, 0, 62, 64
2, 231720, Note_on_c, 0, 47, 78
2, 231720, Note_on_c, 0, 54, 92
2, 231720, Note_on_c, 0, 57, 83
2, 231720, Note_on_c, 0, 62, 83
2, 231890, Note_off_c, 0, 62, 64
2, 231895, Note_off_c, 0, 47, 64
2, 231915, Note_off_c, 0, 54, 64
2, 231925, Note_off_c, 0, 57, 64
2, 232080, Note_on_c, 0, 50, 94
2, 232080, Note_on_c, 0, 52, 84
2, 232080, Note_on_c, 0, 55, 92
2, 232080, Note_on_c, 0, 60, 88
2, 232285, Note_off_c, 0, 55, 64
2, 232290, Note_off_c, 0, 52, 64
2, 232290, Note_off_c, 0, 50, 64
2, 232305, Note_off_c, 0, 60, 64
2, 233280, Note_on_c, 0, 50, 86
2, 233280, Note_on_c, 0, 52, 81
2, 233280, Note_on_c, 0, 55, 90
2, 233280, Note_on_c, 0, 60, 86
2, 233450, Note_off_c, 0, 52, 64
2, 233455, Note_off_c, 0, 55, 64
2, 233465, Note_off_c, 0, 60, 64
2, 233470, Note_off_c, 0, 50, 64
2, 233760, Note_on_c, 0, 50, 84
2, 233760, Note_on_c, 0, 52, 88
2, 233760, Note_on_c, 0, 55, 96
2, 233760, Note_on_c, 0, 60, 88
2, 233905, Note_off_c, 0, 50, 64
2, 233950, Note_off_c, 0, 52, 64
2, 233960, Note_off_c, 0, 60, 64
2, 233975, Note_off_c, 0, 55, 64
2, 234240, Note_on_c, 0, 50, 84
2, 234240, Note_on_c, 0, 55, 90
2, 234240, Note_on_c, 0, 59, 80
2, 234460, Note_off_c, 0, 50, 64
2, 234470, Note_off_c, 0, 55, 64
2, 234475, Note_off_c, 0, 59, 64
2, 235200, Note_on_c, 0, 47, 86
2, 235200, Note_on_c, 0, 54, 94
2, 235200, Note_on_c, 0, 57, 84
2, 235200, Note_on_c, 0, 62, 86
2, 235355, Note_off_c, 0, 47, 64
2, 235375, Note_off_c, 0, 62, 64
2, 235380, Note_off_c, 0, 54, 64
2, 235380, Note_off_c, 0, 57, 64
2, 235560, Note_on_c, 0, 47, 80
2, 235560, Note_on_c, 0, 54, 92
2, 235560, Note_on_c, 0, 57, 88
2, 235560, Note_on_c, 0, 62, 84
2, 235690, Note_off_c, 0, 47, 64
2, 235715, Note_off_c, 0, 62, 64
2, 235740, Note_off_c, 0, 54, 64
2, 235755, Note_off_c, 0, 57, 64
2, 235920, Note_on_c, 0, 52, 83
2, 235920, Note_on_c, 0, 55, 92
2, 235920, Note_on_c, 0, 60, 86
2, 236095, Note_off_c, 0, 55, 64
2, 236100, Note_off_c, 0, 52, 64
2, 236105, Note_off_c, 0, 60, 64
2, 237120, Note_on_c, 0, 52, 84
2, 237120, Note_on_c, 0, 55, 94
2, 237120, Note_on_c, 0, 60, 84
2, 237290, Note_off_c, 0, 52, 64
2, 237300, Note_off_c, 0, 55, 64
2, 237300, Note_off_c, 0, 60, 64
2, 237600, Note_on_c, 0, 47, 81
2, 237600, Note_on_c, 0, 54, 100
2, 237600, Note_on_c, 0, 57, 90
2, 237600, Note_on_c, 0, 62, 90
2, 237770, Note_off_c, 0, 47, 64
2, 237800, Note_off_c, 0, 54, 64
2, 237800, Note_off_c, 0, 62, 64
2, 237820, Note_off_c, 0, 57, 64
2, 238080, Note_on_c, 0, 50, 84
2, 238080, Note_on_c, 0, 55, 92
2, 238080, Note_on_c, 0, 59, 78
2, 238320, Note_off_c, 0, 55, 64
2, 238320, Note_off_c, 0, 50, 64
2, 238330, Note_off_c, 0, 59, 64
2, 239040, Note_on_c, 0, 47, 86
2, 239040, Note_on_c, 0, 54, 96
2, 239040, Note_on_c, 0, 57, 86
2, 239040, Note_on_c, 0, 62, 88
2, 239185, Note_off_c, 0, 57, 64
2, 239190, Note_off_c, 0, 54, 64
2, 239195, Note_off_c, 0, 47, 64
2, 239210, Note_off_c, 0, 62, 64
2, 239400, Note_on_c, 0, 47, 77
2, 239400, Note_on_c, 0, 54, 92
2, 239400, Note_on_c, 0, 57, 86
2, 239400, Note_on_c, 0, 62, 84
2, 239545, Note_off_c, 0, 62, 64
2, 239555, Note_off_c, 0, 47, 64
2, 239560, Note_off_c, 0, 54, 64
2, 239585, Note_off_c, 0, 57, 64
2, 239760, Note_on_c, 0, 52, 86
2, 239760, Note_on_c, 0, 55, 94
2, 239760, Note_on_c, 0, 60, 86
2, 239940, Note_off_c, 0, 55, 64
2, 239955, Note_off_c, 0, 52, 64
2, 239960, Note_off_c, 0, 60, 64
2, 240960, Note_on_c, 0, 50, 84
2, 240960, Note_on_c, 0, 52, 81
2, 240960, Note_on_c, 0, 55, 88
2, 240960, Note_on_c, 0, 60, 84
2, 241090, Note_off_c, 0, 52, 64
2, 241100, Note_off_c, 0, 50, 64
2, 241105, Note_off_c, 0, 55, 64
2, 241120, Note_off_c, 0, 60, 64
2, 241440, Note_on_c, 0, 50, 86
2, 241440, Note_on_c, 0, 52, 86
2, 241440, Note_on_c, 0, 55, 92
2, 241440, Note_on_c, 0, 60, 92
2, 241620, Note_off_c, 0, 55, 64
2, 241625, Note_off_c, 0, 52, 64
2, 241630, Note_off_c, 0, 60, 64
2, 241635, Note_off_c, 0, 50, 64
2, 241800, Note_on_c, 0, 52, 100
2, 241800, Note_on_c, 0, 57, 108
2, 241800, Note_on_c, 0, 59, 108
2, 241800, Note_on_c, 0, 62, 108
2, 241800, Note_on_c, 0, 64, 102
2, 242055, Note_off_c, 0, 59, 64
2, 242070, Note_off_c, 0, 57, 64
2, 242070, Note_off_c, 0, 52, 64
2, 242070, Note_off_c, 0, 64, 64
2, 242080, Note_off_c, 0, 62, 64
2, 242080, End_track
3, 0, Start_track
3, 0, Title_t, "tk2"
3, 0, MIDI_port, 0
3, 0, Channel_prefix, 1
3, 0, Control_c, 1, 10, 64
3, 505, Control_c, 1, 0, 0
3, 510, Control_c, 1, 32, 0
3, 515, Program_c, 1, 33
3, 520, Control_c, 1, 7, 110
3, 520, Control_c, 1, 10, 64
3, 520, Control_c, 1, 11, 127
3, 525, Control_c, 1, 91, 30
3, 525, Control_c, 1, 93, 80
3, 19200, Note_on_c, 1, 28, 92
3, 19455, Note_off_c, 1, 28, 64
3, 20160, Note_on_c, 1, 35, 92
3, 20420, Note_off_c, 1, 35, 64
3, 20640, Note_on_c, 1, 36, 92
3, 20905, Note_off_c, 1, 36, 64
3, 21120, Note_on_c, 1, 38, 92
3, 21380, Note_off_c, 1, 38, 64
3, 22080, Note_on_c, 1, 33, 92
3, 22360, Note_off_c, 1, 33, 64
3, 22560, Note_on_c, 1, 35, 92
3, 22835, Note_off_c, 1, 35, 64
3, 23040, Note_on_c, 1, 28, 92
3, 23355, Note_off_c, 1, 28, 64
3, 24000, Note_on_c, 1, 35, 92
3, 24255, Note_off_c, 1, 35, 64
3, 24480, Note_on_c, 1, 36, 92
3, 24740, Note_off_c, 1, 36, 64
3, 24960, Note_on_c, 1, 38, 92
3, 25235, Note_off_c, 1, 38, 64
3, 26880, Note_on_c, 1, 28, 92
3, 27155, Note_off_c, 1, 28, 64
3, 27840, Note_on_c, 1, 35, 92
3, 28075, Note_off_c, 1, 35, 64
3, 28200, Note_on_c, 1, 35, 92
3, 28420, Note_off_c, 1, 35, 64
3, 28560, Note_on_c, 1, 33, 92
3, 28850, Note_off_c, 1, 33, 64
3, 29760, Note_on_c, 1, 33, 92
3, 30205, Note_off_c, 1, 33, 64
3, 30240, Note_on_c, 1, 35, 92
3, 30690, Note_off_c, 1, 35, 64
3, 30720, Note_on_c, 1, 28, 92
3, 31000, Note_off_c, 1, 28, 64
3, 31680, Note_on_c, 1, 35, 92
3, 31920, Note_off_c, 1, 35, 64
3, 32040, Note_on_c, 1, 35, 92
3, 32300, Note_off_c, 1, 35, 64
3, 32400, Note_on_c, 1, 38, 92
3, 32685, Note_off_c, 1, 38, 64
3, 33600, Note_on_c, 1, 38, 92
3, 33895, Note_off_c, 1, 38, 64
3, 34080, Note_on_c, 1, 38, 92
3, 34350, Note_off_c, 1, 38, 64
3, 34560, Note_on_c, 1, 28, 92
3, 34870, Note_off_c, 1, 28, 64
3, 35520, Note_on_c, 1, 35, 92
3, 35765, Note_off_c, 1, 35, 64
3, 35880, Note_on_c, 1, 35, 92
3, 36130, Note_off_c, 1, 35, 64
3, 36240, Note_on_c, 1, 33, 92
3, 36530, Note_off_c, 1, 33, 64
3, 37440, Note_on_c, 1, 33, 92
3, 37710, Note_off_c, 1, 33, 64
3, 37920, Note_on_c, 1, 35, 92
3, 38170, Note_off_c, 1, 35, 64
3, 38400, Note_on_c, 1, 28, 92
3, 38730, Note_off_c, 1, 28, 64
3, 39360, Note_on_c, 1, 35, 92
3, 39590, Note_off_c, 1, 35, 64
3, 39720, Note_on_c, 1, 35, 92
3, 39940, Note_off_c, 1, 35, 64
3, 40080, Note_on_c, 1, 38, 92
3, 40350, Note_off_c, 1, 38, 64
3, 41280, Note_on_c, 1, 38, 92
3, 41545, Note_off_c, 1, 38, 64
3, 41760, Note_on_c, 1, 38, 92
3, 42050, Note_off_c, 1, 38, 64
3, 42240, Note_on_c, 1, 28, 92
3, 42515, Note_off_c, 1, 28, 64
3, 43200, Note_on_c, 1, 35, 92
3, 43435, Note_off_c, 1, 35, 64
3, 43560, Note_on_c, 1, 35, 92
3, 43780, Note_off_c, 1, 35, 64
3, 43920, Note_on_c, 1, 33, 92
3, 44210, Note_off_c, 1, 33, 64
3, 45120, Note_on_c, 1, 33, 92
3, 45565, Note_off_c, 1, 33, 64
3, 45600, Note_on_c, 1, 35, 92
3, 46050, Note_off_c, 1, 35, 64
3, 46080, Note_on_c, 1, 28, 92
3, 46360, Note_off_c, 1, 28, 64
3, 47040, Note_on_c, 1, 35, 92
3, 47280, Note_off_c, 1, 35, 64
3, 47400, Note_on_c, 1, 35, 92
3, 47660, Note_off_c, 1, 35, 64
3, 47760, Note_on_c, 1, 38, 92
3, 48045, Note_off_c, 1, 38, 64
3, 48960, Note_on_c, 1, 38, 92
3, 49255, Note_off_c, 1, 38, 64
3, 49440, Note_on_c, 1, 38, 92
3, 49710, Note_off_c, 1, 38, 64
3, 49920, Note_on_c, 1, 28, 92
3, 50230, Note_off_c, 1, 28, 64
3, 50880, Note_on_c, 1, 35, 92
3, 51125, Note_off_c, 1, 35, 64
3, 51240, Note_on_c, 1, 35, 92
3, 51490, Note_off_c, 1, 35, 64
3, 51600, Note_on_c, 1, 33, 92
3, 51890, Note_off_c, 1, 33, 64
3, 52800, Note_on_c, 1, 33, 92
3, 53070, Note_off_c, 1, 33, 64
3, 53280, Note_on_c, 1, 35, 92
3, 53530, Note_off_c, 1, 35, 64
3, 53760, Note_on_c, 1, 28, 92
3, 54090, Note_off_c, 1, 28, 64
3, 54720, Note_on_c, 1, 35, 92
3, 54950, Note_off_c, 1, 35, 64
3, 55080, Note_on_c, 1, 35, 92
3, 55300, Note_off_c, 1, 35, 64
3, 55440, Note_on_c, 1, 38, 92
3, 55710, Note_off_c, 1, 38, 64
3, 56640, Note_on_c, 1, 38, 92
3, 56905, Note_off_c, 1, 38, 64
3, 57120, Note_on_c, 1, 38, 92
3, 57410, Note_off_c, 1, 38, 64
3, 57600, Note_on_c, 1, 28, 92
3, 57875, Note_off_c, 1, 28, 64
3, 58560, Note_on_c, 1, 35, 92
3, 58795, Note_off_c, 1, 35, 64
3, 58920, Note_on_c, 1, 35, 92
3, 59140, Note_off_c, 1, 35, 64
3, 59280, Note_on_c, 1, 33, 92
3, 59570, Note_off_c, 1, 33, 64
3, 60480, Note_on_c, 1, 33, 92
3, 60925, Note_off_c, 1, 33, 64
3, 60960, Note_on_c, 1, 35, 92
3, 61410, Note_off_c, 1, 35, 64
3, 61440, Note_on_c, 1, 28, 92
3, 61720, Note_off_c, 1, 28, 64
3, 62400, Note_on_c, 1, 35, 92
3, 62640, Note_off_c, 1, 35, 64
3, 62760, Note_on_c, 1, 35, 92
3, 63020, Note_off_c, 1, 35, 64
3, 63120, Note_on_c, 1, 38, 92
3, 63405, Note_off_c, 1, 38, 64
3, 64320, Note_on_c, 1, 38, 92
3, 64615, Note_off_c, 1, 38, 64
3, 64800, Note_on_c, 1, 38, 92
3, 65070, Note_off_c, 1, 38, 64
3, 65280, Note_on_c, 1, 28, 92
3, 65590, Note_off_c, 1, 28, 64
3, 66240, Note_on_c, 1, 35, 92
3, 66485, Note_off_c, 1, 35, 64
3, 66600, Note_on_c, 1, 35, 92
3, 66850, Note_off_c, 1, 35, 64
3, 66960, Note_on_c, 1, 33, 92
3, 67250, Note_off_c, 1, 33, 64
3, 68160, Note_on_c, 1, 33, 92
3, 68430, Note_off_c, 1, 33, 64
3, 68640, Note_on_c, 1, 35, 92
3, 68890, Note_off_c, 1, 35, 64
3, 69120, Note_on_c, 1, 28, 92
3, 69450, Note_off_c, 1, 28, 64
3, 70080, Note_on_c, 1, 35, 92
3, 70310, Note_off_c, 1, 35, 64
3, 70440, Note_on_c, 1, 35, 92
3, 70660, Note_off_c, 1, 35, 64
3, 70800, Note_on_c, 1, 38, 92
3, 71070, Note_off_c, 1, 38, 64
3, 72000, Note_on_c, 1, 38, 92
3, 72265, Note_off_c, 1, 38, 64
3, 72480, Note_on_c, 1, 38, 92
3, 72770, Note_off_c, 1, 38, 64
3, 72960, Note_on_c, 1, 28, 92
3, 73235, Note_off_c, 1, 28, 64
3, 73920, Note_on_c, 1, 35, 92
3, 74155, Note_off_c, 1, 35, 64
3, 74280, Note_on_c, 1, 35, 92
3, 74500, Note_off_c, 1, 35, 64
3, 74640, Note_on_c, 1, 33, 92
3, 74930, Note_off_c, 1, 33, 64
3, 75840, Note_on_c, 1, 33, 92
3, 76285, Note_off_c, 1, 33, 64
3, 76320, Note_on_c, 1, 35, 92
3, 76770, Note_off_c, 1, 35, 64
3, 76800, Note_on_c, 1, 28, 92
3, 77080, Note_off_c, 1, 28, 64
3, 77760, Note_on_c, 1, 35, 92
3, 78000, Note_off_c, 1, 35, 64
3, 78120, Note_on_c, 1, 35, 92
3, 78380, Note_off_c, 1, 35, 64
3, 78480, Note_on_c, 1, 38, 92
3, 78765, Note_off_c, 1, 38, 64
3, 79680, Note_on_c, 1, 38, 92
3, 79975, Note_off_c, 1, 38, 64
3, 80160, Note_on_c, 1, 38, 92
3, 80430, Note_off_c, 1, 38, 64
3, 80640, Note_on_c, 1, 28, 92
3, 80950, Note_off_c, 1, 28, 64
3, 81600, Note_on_c, 1, 35, 92
3, 81845, Note_off_c, 1, 35, 64
3, 81960, Note_on_c, 1, 35, 92
3, 82210, Note_off_c, 1, 35, 64
3, 82320, Note_on_c, 1, 33, 92
3, 82610, Note_off_c, 1, 33, 64
3, 83520, Note_on_c, 1, 33, 92
3, 83790, Note_off_c, 1, 33, 64
3, 84000, Note_on_c, 1, 35, 92
3, 84250, Note_off_c, 1, 35, 64
3, 84480, Note_on_c, 1, 28, 92
3, 84810, Note_off_c, 1, 28, 64
3, 85440, Note_on_c, 1, 35, 92
3, 85670, Note_off_c, 1, 35, 64
3, 85800, Note_on_c, 1, 35, 92
3, 86020, Note_off_c, 1, 35, 64
3, 86160, Note_on_c, 1, 38, 92
3, 86430, Note_off_c, 1, 38, 64
3, 87360, Note_on_c, 1, 38, 92
3, 87625, Note_off_c, 1, 38, 64
3, 87840, Note_on_c, 1, 38, 92
3, 88130, Note_off_c, 1, 38, 64
3, 88320, Note_on_c, 1, 28, 92
3, 88595, Note_off_c, 1, 28, 64
3, 89280, Note_on_c, 1, 35, 92
3, 89515, Note_off_c, 1, 35, 64
3, 89640, Note_on_c, 1, 35, 92
3, 89860, Note_off_c, 1, 35, 64
3, 90000, Note_on_c, 1, 33, 92
3, 90290, Note_off_c, 1, 33, 64
3, 91200, Note_on_c, 1, 33, 92
3, 91645, Note_off_c, 1, 33, 64
3, 91680, Note_on_c, 1, 35, 92
3, 92130, Note_off_c, 1, 35, 64
3, 92160, Note_on_c, 1, 28, 92
3, 92440, Note_off_c, 1, 28, 64
3, 93120, Note_on_c, 1, 35, 92
3, 93360, Note_off_c, 1, 35, 64
3, 93480, Note_on_c, 1, 35, 92
3, 93740, Note_off_c, 1, 35, 64
3, 93840, Note_on_c, 1, 38, 92
3, 94125, Note_off_c, 1, 38, 64
3, 95040, Note_on_c, 1, 38, 92
3, 95335, Note_off_c, 1, 38, 64
3, 95520, Note_on_c, 1, 38, 92
3, 95790, Note_off_c, 1, 38, 64
3, 96000, Note_on_c, 1, 28, 92
3, 96310, Note_off_c, 1, 28, 64
3, 96960, Note_on_c, 1, 35, 92
3, 97205, Note_off_c, 1, 35, 64
3, 97320, Note_on_c, 1, 35, 92
3, 97570, Note_off_c, 1, 35, 64
3, 97680, Note_on_c, 1, 33, 92
3, 97970, Note_off_c, 1, 33, 64
3, 98880, Note_on_c, 1, 33, 92
3, 99150, Note_off_c, 1, 33, 64
3, 99360, Note_on_c, 1, 35, 92
3, 99610, Note_off_c, 1, 35, 64
3, 99840, Note_on_c, 1, 28, 92
3, 100170, Note_off_c, 1, 28, 64
3, 100800, Note_on_c, 1, 35, 92
3, 101030, Note_off_c, 1, 35, 64
3, 101160, Note_on_c, 1, 35, 92
3, 101380, Note_off_c, 1, 35, 64
3, 101520, Note_on_c, 1, 38, 92
3, 101790, Note_off_c, 1, 38, 64
3, 102720, Note_on_c, 1, 38, 92
3, 102985, Note_off_c, 1, 38, 64
3, 103200, Note_on_c, 1, 38, 92
3, 103490, Note_off_c, 1, 38, 64
3, 103680, Note_on_c, 1, 28, 92
3, 103955, Note_off_c, 1, 28, 64
3, 104640, Note_on_c, 1, 35, 92
3, 104875, Note_off_c, 1, 35, 64
3, 105000, Note_on_c, 1, 35, 92
3, 105220, Note_off_c, 1, 35, 64
3, 105360, Note_on_c, 1, 33, 92
3, 105650, Note_off_c, 1, 33, 64
3, 106560, Note_on_c, 1, 33, 92
3, 107005, Note_off_c, 1, 33, 64
3, 107040, Note_on_c, 1, 35, 92
3, 107490, Note_off_c, 1, 35, 64
3, 107520, Note_on_c, 1, 28, 92
3, 107800, Note_off_c, 1, 28, 64
3, 108480, Note_on_c, 1, 35, 92
3, 108720, Note_off_c, 1, 35, 64
3, 108840, Note_on_c, 1, 35, 92
3, 109100, Note_off_c, 1, 35, 64
3, 109200, Note_on_c, 1, 38, 92
3, 109485, Note_off_c, 1, 38, 64
3, 110400, Note_on_c, 1, 38, 92
3, 110695, Note_off_c, 1, 38, 64
3, 110880, Note_on_c, 1, 38, 92
3, 111150, Note_off_c, 1, 38, 64
3, 111360, Note_on_c, 1, 28, 92
3, 111635, Note_off_c, 1, 28, 64
3, 112320, Note_on_c, 1, 35, 92
3, 112555, Note_off_c, 1, 35, 64
3, 112680, Note_on_c, 1, 35, 92
3, 112900, Note_off_c, 1, 35, 64
3, 113040, Note_on_c, 1, 33, 92
3, 113330, Note_off_c, 1, 33, 64
3, 114240, Note_on_c, 1, 33, 92
3, 114685, Note_off_c, 1, 33, 64
3, 114720, Note_on_c, 1, 35, 92
3, 115170, Note_off_c, 1, 35, 64
3, 115200, Note_on_c, 1, 28, 92
3, 115480, Note_off_c, 1, 28, 64
3, 116160, Note_on_c, 1, 35, 92
3, 116400, Note_off_c, 1, 35, 64
3, 116520, Note_on_c, 1, 35, 92
3, 116780, Note_off_c, 1, 35, 64
3, 116880, Note_on_c, 1, 38, 92
3, 117165, Note_off_c, 1, 38, 64
3, 118080, Note_on_c, 1, 38, 92
3, 118375, Note_off_c, 1, 38, 64
3, 118560, Note_on_c, 1, 38, 92
3, 118830, Note_off_c, 1, 38, 64
3, 119040, Note_on_c, 1, 28, 92
3, 119295, Note_off_c, 1, 28, 64
3, 120000, Note_on_c, 1, 35, 92
3, 120260, Note_off_c, 1, 35, 64
3, 120480, Note_on_c, 1, 36, 92
3, 120745, Note_off_c, 1, 36, 64
3, 120960, Note_on_c, 1, 38, 92
3, 121220, Note_off_c, 1, 38, 64
3, 121920, Note_on_c, 1, 33, 92
3, 122200, Note_off_c, 1, 33, 64
3, 122400, Note_on_c, 1, 35, 92
3, 122675, Note_off_c, 1, 35, 64
3, 122880, Note_on_c, 1, 28, 92
3, 123195, Note_off_c, 1, 28, 64
3, 123840, Note_on_c, 1, 35, 92
3, 124095, Note_off_c, 1, 35, 64
3, 124320, Note_on_c, 1, 36, 92
3, 124580, Note_off_c, 1, 36, 64
3, 124800, Note_on_c, 1, 38, 92
3, 125075, Note_off_c, 1, 38, 64
3, 126720, Note_on_c, 1, 28, 92
3, 126975, Note_off_c, 1, 28, 64
3, 127680, Note_on_c, 1, 35, 92
3, 127940, Note_off_c, 1, 35, 64
3, 128160, Note_on_c, 1, 36, 92
3, 128425, Note_off_c, 1, 36, 64
3, 128640, Note_on_c, 1, 38, 92
3, 128900, Note_off_c, 1, 38, 64
3, 129600, Note_on_c, 1, 33, 92
3, 129880, Note_off_c, 1, 33, 64
3, 130080, Note_on_c, 1, 35, 92
3, 130355, Note_off_c, 1, 35, 64
3, 130560, Note_on_c, 1, 28, 92
3, 130875, Note_off_c, 1, 28, 64
3, 131520, Note_on_c, 1, 35, 92
3, 131775, Note_off_c, 1, 35, 64
3, 132000, Note_on_c, 1, 36, 92
3, 132260, Note_off_c, 1, 36, 64
3, 132480, Note_on_c, 1, 38, 92
3, 132755, Note_off_c, 1, 38, 64
3, 134400, Note_on_c, 1, 28, 92
3, 134675, Note_off_c, 1, 28, 64
3, 135360, Note_on_c, 1, 35, 92
3, 135595, Note_off_c, 1, 35, 64
3, 135720, Note_on_c, 1, 35, 92
3, 135940, Note_off_c, 1, 35, 64
3, 136080, Note_on_c, 1, 33, 92
3, 136370, Note_off_c, 1, 33, 64
3, 137280, Note_on_c, 1, 33, 92
3, 137725, Note_off_c, 1, 33, 64
3, 137760, Note_on_c, 1, 35, 92
3, 138210, Note_off_c, 1, 35, 64
3, 138240, Note_on_c, 1, 28, 92
3, 138520, Note_off_c, 1, 28, 64
3, 139200, Note_on_c, 1, 35, 92
3, 139440, Note_off_c, 1, 35, 64
3, 139560, Note_on_c, 1, 35, 92
3, 139820, Note_off_c, 1, 35, 64
3, 139920, Note_on_c, 1, 38, 92
3, 140205, Note_off_c, 1, 38, 64
3, 141120, Note_on_c, 1, 38, 92
3, 141415, Note_off_c, 1, 38, 64
3, 141600, Note_on_c, 1, 38, 92
3, 141870, Note_off_c, 1, 38, 64
3, 142080, Note_on_c, 1, 28, 92
3, 142390, Note_off_c, 1, 28, 64
3, 143040, Note_on_c, 1, 35, 92
3, 143285, Note_off_c, 1, 35, 64
3, 143400, Note_on_c, 1, 35, 92
3, 143650, Note_off_c, 1, 35, 64
3, 143760, Note_on_c, 1, 33, 92
3, 144050, Note_off_c, 1, 33, 64
3, 144960, Note_on_c, 1, 33, 92
3, 145230, Note_off_c, 1, 33, 64
3, 145440, Note_on_c, 1, 35, 92
3, 145690, Note_off_c, 1, 35, 64
3, 145920, Note_on_c, 1, 28, 92
3, 146250, Note_off_c, 1, 28, 64
3, 146880, Note_on_c, 1, 35, 92
3, 147110, Note_off_c, 1, 35, 64
3, 147240, Note_on_c, 1, 35, 92
3, 147460, Note_off_c, 1, 35, 64
3, 147600, Note_on_c, 1, 38, 92
3, 147870, Note_off_c, 1, 38, 64
3, 148800, Note_on_c, 1, 38, 92
3, 149065, Note_off_c, 1, 38, 64
3, 149280, Note_on_c, 1, 38, 92
3, 149570, Note_off_c, 1, 38, 64
3, 149760, Note_on_c, 1, 28, 92
3, 150035, Note_off_c, 1, 28, 64
3, 150720, Note_on_c, 1, 35, 92
3, 150955, Note_off_c, 1, 35, 64
3, 151080, Note_on_c, 1, 35, 92
3, 151300, Note_off_c, 1, 35, 64
3, 151440, Note_on_c, 1, 33, 92
3, 151730, Note_off_c, 1, 33, 64
3, 152640, Note_on_c, 1, 33, 92
3, 153085, Note_off_c, 1, 33, 64
3, 153120, Note_on_c, 1, 35, 92
3, 153570, Note_off_c, 1, 35, 64
3, 153600, Note_on_c, 1, 28, 92
3, 153880, Note_off_c, 1, 28, 64
3, 154560, Note_on_c, 1, 35, 92
3, 154800, Note_off_c, 1, 35, 64
3, 154920, Note_on_c, 1, 35, 92
3, 155180, Note_off_c, 1, 35, 64
3, 155280, Note_on_c, 1, 38, 92
3, 155565, Note_off_c, 1, 38, 64
3, 156480, Note_on_c, 1, 38, 92
3, 156775, Note_off_c, 1, 38, 64
3, 156960, Note_on_c, 1, 38, 92
3, 157230, Note_off_c, 1, 38, 64
3, 157440, Note_on_c, 1, 28, 92
3, 157750, Note_off_c, 1, 28, 64
3, 158400, Note_on_c, 1, 35, 92
3, 158645, Note_off_c, 1, 35, 64
3, 158760, Note_on_c, 1, 35, 92
3, 159010, Note_off_c, 1, 35, 64
3, 159120, Note_on_c, 1, 33, 92
3, 159410, Note_off_c, 1, 33, 64
3, 160320, Note_on_c, 1, 33, 92
3, 160590, Note_off_c, 1, 33, 64
3, 160800, Note_on_c, 1, 35, 92
3, 161050, Note_off_c, 1, 35, 64
3, 161280, Note_on_c, 1, 28, 92
3, 161610, Note_off_c, 1, 28, 64
3, 162240, Note_on_c, 1, 35, 92
3, 162470, Note_off_c, 1, 35, 64
3, 162600, Note_on_c, 1, 35, 92
3, 162820, Note_off_c, 1, 35, 64
3, 162960, Note_on_c, 1, 38, 92
3, 163230, Note_off_c, 1, 38, 64
3, 164160, Note_on_c, 1, 38, 92
3, 164425, Note_off_c, 1, 38, 64
3, 164640, Note_on_c, 1, 38, 92
3, 164930, Note_off_c, 1, 38, 64
3, 165120, Note_on_c, 1, 28, 92
3, 165395, Note_off_c, 1, 28, 64
3, 166080, Note_on_c, 1, 35, 92
3, 166315, Note_off_c, 1, 35, 64
3, 166440, Note_on_c, 1, 35, 92
3, 166660, Note_off_c, 1, 35, 64
3, 166800, Note_on_c, 1, 33, 92
3, 167090, Note_off_c, 1, 33, 64
3, 168000, Note_on_c, 1, 33, 92
3, 168445, Note_off_c, 1, 33, 64
3, 168480, Note_on_c, 1, 35, 92
3, 168930, Note_off_c, 1, 35, 64
3, 168960, Note_on_c, 1, 28, 92
3, 169240, Note_off_c, 1, 28, 64
3, 169920, Note_on_c, 1, 35, 92
3, 170160, Note_off_c, 1, 35, 64
3, 170280, Note_on_c, 1, 35, 92
3, 170540, Note_off_c, 1, 35, 64
3, 170640, Note_on_c, 1, 38, 92
3, 170925, Note_off_c, 1, 38, 64
3, 171840, Note_on_c, 1, 38, 92
3, 172135, Note_off_c, 1, 38, 64
3, 172320, Note_on_c, 1, 38, 92
3, 172590, Note_off_c, 1, 38, 64
3, 172800, Note_on_c, 1, 28, 92
3, 173110, Note_off_c, 1, 28, 64
3, 173760, Note_on_c, 1, 35, 92
3, 174005, Note_off_c, 1, 35, 64
3, 174120, Note_on_c, 1, 35, 92
3, 174370, Note_off_c, 1, 35, 64
3, 174480, Note_on_c, 1, 33, 92
3, 174770, Note_off_c, 1, 33, 64
3, 175680, Note_on_c, 1, 33, 92
3, 175950, Note_off_c, 1, 33, 64
3, 176160, Note_on_c, 1, 35, 92
3, 176410, Note_off_c, 1, 35, 64
3, 176640, Note_on_c, 1, 28, 92
3, 176970, Note_off_c, 1, 28, 64
3, 177600, Note_on_c, 1, 35, 92
3, 177830, Note_off_c, 1, 35, 64
3, 177960, Note_on_c, 1, 35, 92
3, 178180, Note_off_c, 1, 35, 64
3, 178320, Note_on_c, 1, 38, 92
3, 178590, Note_off_c, 1, 38, 64
3, 179520, Note_on_c, 1, 38, 92
3, 179785, Note_off_c, 1, 38, 64
3, 180000, Note_on_c, 1, 38, 92
3, 180290, Note_off_c, 1, 38, 64
3, 180480, Note_on_c, 1, 28, 92
3, 180755, Note_off_c, 1, 28, 64
3, 181440, Note_on_c, 1, 35, 92
3, 181675, Note_off_c, 1, 35, 64
3, 181800, Note_on_c, 1, 35, 92
3, 182020, Note_off_c, 1, 35, 64
3, 182160, Note_on_c, 1, 33, 92
3, 182450, Note_off_c, 1, 33, 64
3, 183360, Note_on_c, 1, 33, 92
3, 183805, Note_off_c, 1, 33, 64
3, 183840, Note_on_c, 1, 35, 92
3, 184290, Note_off_c, 1, 35, 64
3, 184320, Note_on_c, 1, 28, 92
3, 184600, Note_off_c, 1, 28, 64
3, 185280, Note_on_c, 1, 35, 92
3, 185520, Note_off_c, 1, 35, 64
3, 185640, Note_on_c, 1, 35, 92
3, 185900, Note_off_c, 1, 35, 64
3, 186000, Note_on_c, 1, 38, 92
3, 186285, Note_off_c, 1, 38, 64
3, 187200, Note_on_c, 1, 38, 92
3, 187495, Note_off_c, 1, 38, 64
3, 187680, Note_on_c, 1, 38, 92
3, 187950, Note_off_c, 1, 38, 64
3, 188160, Note_on_c, 1, 28, 92
3, 188470, Note_off_c, 1, 28, 64
3, 189120, Note_on_c, 1, 35, 92
3, 189365, Note_off_c, 1, 35, 64
3, 189480, Note_on_c, 1, 35, 92
3, 189730, Note_off_c, 1, 35, 64
3, 189840, Note_on_c, 1, 33, 92
3, 190130, Note_off_c, 1, 33, 64
3, 191040, Note_on_c, 1, 33, 92
3, 191310, Note_off_c, 1, 33, 64
3, 191520, Note_on_c, 1, 35, 92
3, 191770, Note_off_c, 1, 35, 64
3, 192000, Note_on_c, 1, 28, 92
3, 192330, Note_off_c, 1, 28, 64
3, 192960, Note_on_c, 1, 35, 92
3, 193190, Note_off_c, 1, 35, 64
3, 193320, Note_on_c, 1, 35, 92
3, 193540, Note_off_c, 1, 35, 64
3, 193680, Note_on_c, 1, 38, 92
3, 193950, Note_off_c, 1, 38, 64
3, 194880, Note_on_c, 1, 38, 92
3, 195145, Note_off_c, 1, 38, 64
3, 195360, Note_on_c, 1, 38, 92
3, 195650, Note_off_c, 1, 38, 64
3, 195840, Note_on_c, 1, 28, 92
3, 196095, Note_off_c, 1, 28, 64
3, 196800, Note_on_c, 1, 35, 92
3, 197060, Note_off_c, 1, 35, 64
3, 197280, Note_on_c, 1, 36, 92
3, 197545, Note_off_c, 1, 36, 64
3, 197760, Note_on_c, 1, 38, 92
3, 198020, Note_off_c, 1, 38, 64
3, 198720, Note_on_c, 1, 33, 92
3, 199000, Note_off_c, 1, 33, 64
3, 199200, Note_on_c, 1, 35, 92
3, 199475, Note_off_c, 1, 35, 64
3, 199680, Note_on_c, 1, 28, 92
3, 199995, Note_off_c, 1, 28, 64
3, 200640, Note_on_c, 1, 35, 92
3, 200895, Note_off_c, 1, 35, 64
3, 201120, Note_on_c, 1, 36, 92
3, 201380, Note_off_c, 1, 36, 64
3, 201600, Note_on_c, 1, 38, 92
3, 201875, Note_off_c, 1, 38, 64
3, 203520, Note_on_c, 1, 28, 92
3, 203775, Note_off_c, 1, 28, 64
3, 204480, Note_on_c, 1, 35, 92
3, 204740, Note_off_c, 1, 35, 64
3, 204960, Note_on_c, 1, 36, 92
3, 205225, Note_off_c, 1, 36, 64
3, 205440, Note_on_c, 1, 38, 92
3, 205700, Note_off_c, 1, 38, 64
3, 206400, Note_on_c, 1, 33, 92
3, 206680, Note_off_c, 1, 33, 64
3, 206880, Note_on_c, 1, 35, 92
3, 207155, Note_off_c, 1, 35, 64
3, 207360, Note_on_c, 1, 28, 92
3, 207675, Note_off_c, 1, 28, 64
3, 208320, Note_on_c, 1, 35, 92
3, 208575, Note_off_c, 1, 35, 64
3, 208800, Note_on_c, 1, 36, 92
3, 209060, Note_off_c, 1, 36, 64
3, 209280, Note_on_c, 1, 38, 92
3, 209555, Note_off_c, 1, 38, 64
3, 211200, Note_on_c, 1, 28, 92
3, 211475, Note_off_c, 1, 28, 64
3, 212160, Note_on_c, 1, 35, 92
3, 212395, Note_off_c, 1, 35, 64
3, 212520, Note_on_c, 1, 35, 92
3, 212740, Note_off_c, 1, 35, 64
3, 212880, Note_on_c, 1, 33, 92
3, 213170, Note_off_c, 1, 33, 64
3, 214080, Note_on_c, 1, 33, 92
3, 214525, Note_off_c, 1, 33, 64
3, 214560, Note_on_c, 1, 35, 92
3, 215010, Note_off_c, 1, 35, 64
3, 215040, Note_on_c, 1, 28, 92
3, 215320, Note_off_c, 1, 28, 64
3, 216000, Note_on_c, 1, 35, 92
3, 216240, Note_off_c, 1, 35, 64
3, 216360, Note_on_c, 1, 35, 92
3, 216620, Note_off_c, 1, 35, 64
3, 216720, Note_on_c, 1, 38, 92
3, 217005, Note_off_c, 1, 38, 64
3, 217920, Note_on_c, 1, 38, 92
3, 218215, Note_off_c, 1, 38, 64
3, 218400, Note_on_c, 1, 38, 92
3, 218670, Note_off_c, 1, 38, 64
3, 218880, Note_on_c, 1, 28, 92
3, 219190, Note_off_c, 1, 28, 64
3, 219840, Note_on_c, 1, 35, 92
3, 220085, Note_off_c, 1, 35, 64
3, 220200, Note_on_c, 1, 35, 92
3, 220450, Note_off_c, 1, 35, 64
3, 220560, Note_on_c, 1, 33, 92
3, 220850, Note_off_c, 1, 33, 64
3, 221760, Note_on_c, 1, 33, 92
3, 222030, Note_off_c, 1, 33, 64
3, 222240, Note_on_c, 1, 35, 92
3, 222490, Note_off_c, 1, 35, 64
3, 222720, Note_on_c, 1, 28, 92
3, 223050, Note_off_c, 1, 28, 64
3, 223680, Note_on_c, 1, 35, 92
3, 223910, Note_off_c, 1, 35, 64
3, 224040, Note_on_c, 1, 35, 92
3, 224260, Note_off_c, 1, 35, 64
3, 224400, Note_on_c, 1, 38, 92
3, 224670, Note_off_c, 1, 38, 64
3, 225600, Note_on_c, 1, 38, 92
3, 225865, Note_off_c, 1, 38, 64
3, 226080, Note_on_c, 1, 38, 92
3, 226370, Note_off_c, 1, 38, 64
3, 226560, Note_on_c, 1, 28, 92
3, 226835, Note_off_c, 1, 28, 64
3, 227520, Note_on_c, 1, 35, 92
3, 227755, Note_off_c, 1, 35, 64
3, 227880, Note_on_c, 1, 35, 92
3, 228100, Note_off_c, 1, 35, 64
3, 228240, Note_on_c, 1, 33, 92
3, 228530, Note_off_c, 1, 33, 64
3, 229440, Note_on_c, 1, 33, 92
3, 229885, Note_off_c, 1, 33, 64
3, 229920, Note_on_c, 1, 35, 92
3, 230370, Note_off_c, 1, 35, 64
3, 230400, Note_on_c, 1, 28, 92
3, 230680, Note_off_c, 1, 28, 64
3, 231360, Note_on_c, 1, 35, 92
3, 231600, Note_off_c, 1, 35, 64
3, 231720, Note_on_c, 1, 35, 92
3, 231980, Note_off_c, 1, 35, 64
3, 232080, Note_on_c, 1, 38, 92
3, 232365, Note_off_c, 1, 38, 64
3, 233280, Note_on_c, 1, 38, 92
3, 233575, Note_off_c, 1, 38, 64
3, 233760, Note_on_c, 1, 38, 92
3, 234030, Note_off_c, 1, 38, 64
3, 234240, Note_on_c, 1, 28, 92
3, 234550, Note_off_c, 1, 28, 64
3, 235200, Note_on_c, 1, 35, 92
3, 235445, Note_off_c, 1, 35, 64
3, 235560, Note_on_c, 1, 35, 92
3, 235810, Note_off_c, 1, 35, 64
3, 235920, Note_on_c, 1, 33, 92
3, 236210, Note_off_c, 1, 33, 64
3, 237120, Note_on_c, 1, 33, 92
3, 237390, Note_off_c, 1, 33, 64
3, 237600, Note_on_c, 1, 35, 92
3, 237850, Note_off_c, 1, 35, 64
3, 238080, Note_on_c, 1, 28, 92
3, 238410, Note_off_c, 1, 28, 64
3, 239040, Note_on_c, 1, 35, 92
3, 239270, Note_off_c, 1, 35, 64
3, 239400, Note_on_c, 1, 35, 92
3, 239620, Note_off_c, 1, 35, 64
3, 239760, Note_on_c, 1, 38, 92
3, 240030, Note_off_c, 1, 38, 64
3, 240960, Note_on_c, 1, 38, 92
3, 241225, Note_off_c, 1, 38, 64
3, 241440, Note_on_c, 1, 38, 92
3, 241730, Note_off_c, 1, 38, 64
3, 241800, Note_on_c, 1, 40, 92
3, 242070, Note_off_c, 1, 40, 64
3, 242400, Note_on_c, 1, 28, 92
3, 242730, Note_off_c, 1, 28, 64
3, 242730, End_track
4, 0, Start_track
4, 0, Title_t, "tk3"
4, 0, MIDI_port, 0
4, 0, Channel_prefix, 2
4, 0, Control_c, 2, 10, 64
4, 530, Control_c, 2, 0, 0
4, 535, Control_c, 2, 32, 0
4, 540, Program_c, 2, 27
4, 545, Control_c, 2, 7, 110
4, 545, Control_c, 2, 10, 54
4, 545, Control_c, 2, 11, 127
4, 550, Control_c, 2, 91, 70
4, 550, Control_c, 2, 93, 50
4, 7915, Note_on_c, 2, 67, 80
4, 7920, Note_on_c, 2, 62, 80
4, 7920, Note_on_c, 2, 64, 56
4, 7920, Note_on_c, 2, 71, 73
4, 7920, Note_on_c, 2, 76, 80
4, 8030, Note_off_c, 2, 67, 64
4, 8035, Note_off_c, 2, 62, 64
4, 8035, Note_off_c, 2, 64, 64
4, 8035, Note_off_c, 2, 71, 64
4, 8035, Note_off_c, 2, 76, 64
4, 8040, Note_on_c, 2, 62, 80
4, 8040, Note_on_c, 2, 67, 64
4, 8040, Note_on_c, 2, 71, 66
4, 8040, Note_on_c, 2, 76, 65
4, 8045, Note_on_c, 2, 64, 50
4, 8150, Note_off_c, 2, 76, 64
4, 8150, Note_off_c, 2, 71, 64
4, 8150, Note_off_c, 2, 67, 64
4, 8150, Note_off_c, 2, 62, 64
4, 8155, Note_off_c, 2, 64, 64
4, 8160, Note_on_c, 2, 62, 72
4, 8160, Note_on_c, 2, 64, 50
4, 8160, Note_on_c, 2, 67, 69
4, 8160, Note_on_c, 2, 71, 67
4, 8160, Note_on_c, 2, 76, 50
4, 8265, Note_off_c, 2, 76, 64
4, 8265, Note_off_c, 2, 71, 64
4, 8265, Note_off_c, 2, 67, 64
4, 8265, Note_off_c, 2, 64, 64
4, 8265, Note_off_c, 2, 62, 64
4, 8270, Note_on_c, 2, 76, 45
4, 8275, Note_on_c, 2, 62, 80
4, 8275, Note_on_c, 2, 64, 50
4, 8275, Note_on_c, 2, 67, 78
4, 8275, Note_on_c, 2, 71, 70
4, 8350, Note_off_c, 2, 67, 64
4, 8350, Note_off_c, 2, 62, 64
4, 8350, Note_off_c, 2, 76, 64
4, 8355, Note_off_c, 2, 64, 64
4, 8355, Note_off_c, 2, 71, 64
4, 9840, Note_on_c, 2, 57, 80
4, 9840, Note_on_c, 2, 64, 53
4, 9840, Note_on_c, 2, 67, 77
4, 9840, Note_on_c, 2, 72, 75
4, 9950, Note_off_c, 2, 72, 64
4, 9950, Note_off_c, 2, 67, 64
4, 9950, Note_off_c, 2, 57, 64
4, 9955, Note_off_c, 2, 64, 64
4, 9960, Note_on_c, 2, 57, 70
4, 9960, Note_on_c, 2, 64, 39
4, 9960, Note_on_c, 2, 67, 77
4, 9960, Note_on_c, 2, 72, 50
4, 10060, Note_off_c, 2, 72, 64
4, 10065, Note_off_c, 2, 57, 64
4, 10070, Note_off_c, 2, 64, 64
4, 10070, Note_off_c, 2, 67, 64
4, 10075, Note_on_c, 2, 57, 70
4, 10075, Note_on_c, 2, 64, 41
4, 10075, Note_on_c, 2, 67, 80
4, 10075, Note_on_c, 2, 72, 41
4, 10180, Note_off_c, 2, 72, 64
4, 10190, Note_off_c, 2, 67, 64
4, 10190, Note_off_c, 2, 64, 64
4, 10190, Note_off_c, 2, 57, 64
4, 10195, Note_on_c, 2, 57, 80
4, 10195, Note_on_c, 2, 64, 55
4, 10195, Note_on_c, 2, 67, 80
4, 10195, Note_on_c, 2, 72, 47
4, 10280, Note_off_c, 2, 72, 64
4, 10280, Note_off_c, 2, 67, 64
4, 10280, Note_off_c, 2, 64, 64
4, 10280, Note_off_c, 2, 57, 64
4, 11755, Note_on_c, 2, 67, 80
4, 11760, Note_on_c, 2, 62, 80
4, 11760, Note_on_c, 2, 64, 56
4, 11760, Note_on_c, 2, 71, 73
4, 11760, Note_on_c, 2, 76, 80
4, 11870, Note_off_c, 2, 67, 64
4, 11875, Note_off_c, 2, 62, 64
4, 11875, Note_off_c, 2, 64, 64
4, 11875, Note_off_c, 2, 71, 64
4, 11875, Note_off_c, 2, 76, 64
4, 11880, Note_on_c, 2, 62, 80
4, 11880, Note_on_c, 2, 67, 64
4, 11880, Note_on_c, 2, 71, 66
4, 11880, Note_on_c, 2, 76, 65
4, 11885, Note_on_c, 2, 64, 50
4, 11990, Note_off_c, 2, 76, 64
4, 11990, Note_off_c, 2, 71, 64
4, 11990, Note_off_c, 2, 67, 64
4, 11990, Note_off_c, 2, 62, 64
4, 11995, Note_off_c, 2, 64, 64
4, 12000, Note_on_c, 2, 62, 72
4, 12000, Note_on_c, 2, 64, 50
4, 12000, Note_on_c, 2, 67, 69
4, 12000, Note_on_c, 2, 71, 67
4, 12000, Note_on_c, 2, 76, 50
4, 12105, Note_off_c, 2, 76, 64
4, 12105, Note_off_c, 2, 71, 64
4, 12105, Note_off_c, 2, 67, 64
4, 12105, Note_off_c, 2, 64, 64
4, 12105, Note_off_c, 2, 62, 64
4, 12110, Note_on_c, 2, 76, 45
4, 12115, Note_on_c, 2, 62, 80
4, 12115, Note_on_c, 2, 64, 50
4, 12115, Note_on_c, 2, 67, 78
4, 12115, Note_on_c, 2, 71, 70
4, 12190, Note_off_c, 2, 67, 64
4, 12190, Note_off_c, 2, 62, 64
4, 12190, Note_off_c, 2, 76, 64
4, 12195, Note_off_c, 2, 64, 64
4, 12195, Note_off_c, 2, 71, 64
4, 13680, Note_on_c, 2, 57, 80
4, 13680, Note_on_c, 2, 64, 53
4, 13680, Note_on_c, 2, 67, 77
4, 13680, Note_on_c, 2, 72, 75
4, 13790, Note_off_c, 2, 72, 64
4, 13790, Note_off_c, 2, 67, 64
4, 13790, Note_off_c, 2, 57, 64
4, 13795, Note_off_c, 2, 64, 64
4, 13800, Note_on_c, 2, 57, 70
4, 13800, Note_on_c, 2, 64, 39
4, 13800, Note_on_c, 2, 67, 77
4, 13800, Note_on_c, 2, 72, 50
4, 13900, Note_off_c, 2, 72, 64
4, 13905, Note_off_c, 2, 57, 64
4, 13910, Note_off_c, 2, 64, 64
4, 13910, Note_off_c, 2, 67, 64
4, 13915, Note_on_c, 2, 57, 70
4, 13915, Note_on_c, 2, 64, 41
4, 13915, Note_on_c, 2, 67, 80
4, 13915, Note_on_c, 2, 72, 41
4, 14020, Note_off_c, 2, 72, 64
4, 14030, Note_off_c, 2, 67, 64
4, 14030, Note_off_c, 2, 64, 64
4, 14030, Note_off_c, 2, 57, 64
4, 14035, Note_on_c, 2, 57, 80
4, 14035, Note_on_c, 2, 64, 55
4, 14035, Note_on_c, 2, 67, 80
4, 14035, Note_on_c, 2, 72, 47
4, 14120, Note_off_c, 2, 72, 64
4, 14120, Note_off_c, 2, 67, 64
4, 14120, Note_off_c, 2, 64, 64
4, 14120, Note_off_c, 2, 57, 64
4, 15595, Note_on_c, 2, 67, 80
4, 15600, Note_on_c, 2, 62, 80
4, 15600, Note_on_c, 2, 64, 56
4, 15600, Note_on_c, 2, 71, 73
4, 15600, Note_on_c, 2, 76, 80
4, 15710, Note_off_c, 2, 67, 64
4, 15715, Note_off_c, 2, 62, 64
4, 15715, Note_off_c, 2, 64, 64
4, 15715, Note_off_c, 2, 71, 64
4, 15715, Note_off_c, 2, 76, 64
4, 15720, Note_on_c, 2, 62, 80
4, 15720, Note_on_c, 2, 67, 64
4, 15720, Note_on_c, 2, 71, 66
4, 15720, Note_on_c, 2, 76, 65
4, 15725, Note_on_c, 2, 64, 50
4, 15830, Note_off_c, 2, 76, 64
4, 15830, Note_off_c, 2, 71, 64
4, 15830, Note_off_c, 2, 67, 64
4, 15830, Note_off_c, 2, 62, 64
4, 15835, Note_off_c, 2, 64, 64
4, 15840, Note_on_c, 2, 62, 72
4, 15840, Note_on_c, 2, 64, 50
4, 15840, Note_on_c, 2, 67, 69
4, 15840, Note_on_c, 2, 71, 67
4, 15840, Note_on_c, 2, 76, 50
4, 15945, Note_off_c, 2, 76, 64
4, 15945, Note_off_c, 2, 71, 64
4, 15945, Note_off_c, 2, 67, 64
4, 15945, Note_off_c, 2, 64, 64
4, 15945, Note_off_c, 2, 62, 64
4, 15950, Note_on_c, 2, 76, 45
4, 15955, Note_on_c, 2, 62, 80
4, 15955, Note_on_c, 2, 64, 50
4, 15955, Note_on_c, 2, 67, 78
4, 15955, Note_on_c, 2, 71, 70
4, 16030, Note_off_c, 2, 67, 64
4, 16030, Note_off_c, 2, 62, 64
4, 16030, Note_off_c, 2, 76, 64
4, 16035, Note_off_c, 2, 64, 64
4, 16035, Note_off_c, 2, 71, 64
4, 17520, Note_on_c, 2, 57, 80
4, 17520, Note_on_c, 2, 64, 53
4, 17520, Note_on_c, 2, 67, 77
4, 17520, Note_on_c, 2, 72, 75
4, 17630, Note_off_c, 2, 72, 64
4, 17630, Note_off_c, 2, 67, 64
4, 17630, Note_off_c, 2, 57, 64
4, 17635, Note_off_c, 2, 64, 64
4, 17640, Note_on_c, 2, 57, 70
4, 17640, Note_on_c, 2, 64, 39
4, 17640, Note_on_c, 2, 67, 77
4, 17640, Note_on_c, 2, 72, 50
4, 17740, Note_off_c, 2, 72, 64
4, 17745, Note_off_c, 2, 57, 64
4, 17750, Note_off_c, 2, 64, 64
4, 17750, Note_off_c, 2, 67, 64
4, 17755, Note_on_c, 2, 57, 70
4, 17755, Note_on_c, 2, 64, 41
4, 17755, Note_on_c, 2, 67, 80
4, 17755, Note_on_c, 2, 72, 41
4, 17860, Note_off_c, 2, 72, 64
4, 17870, Note_off_c, 2, 67, 64
4, 17870, Note_off_c, 2, 64, 64
4, 17870, Note_off_c, 2, 57, 64
4, 17875, Note_on_c, 2, 57, 80
4, 17875, Note_on_c, 2, 64, 55
4, 17875, Note_on_c, 2, 67, 80
4, 17875, Note_on_c, 2, 72, 47
4, 17960, Note_off_c, 2, 72, 64
4, 17960, Note_off_c, 2, 67, 64
4, 17960, Note_off_c, 2, 64, 64
4, 17960, Note_off_c, 2, 57, 64
4, 19435, Note_on_c, 2, 67, 80
4, 19440, Note_on_c, 2, 62, 80
4, 19440, Note_on_c, 2, 64, 56
4, 19440, Note_on_c, 2, 71, 73
4, 19440, Note_on_c, 2, 76, 80
4, 19550, Note_off_c, 2, 67, 64
4, 19555, Note_off_c, 2, 62, 64
4, 19555, Note_off_c, 2, 64, 64
4, 19555, Note_off_c, 2, 71, 64
4, 19555, Note_off_c, 2, 76, 64
4, 19560, Note_on_c, 2, 62, 80
4, 19560, Note_on_c, 2, 67, 64
4, 19560, Note_on_c, 2, 71, 66
4, 19560, Note_on_c, 2, 76, 65
4, 19565, Note_on_c, 2, 64, 50
4, 19670, Note_off_c, 2, 76, 64
4, 19670, Note_off_c, 2, 71, 64
4, 19670, Note_off_c, 2, 67, 64
4, 19670, Note_off_c, 2, 62, 64
4, 19675, Note_off_c, 2, 64, 64
4, 19680, Note_on_c, 2, 62, 72
4, 19680, Note_on_c, 2, 64, 50
4, 19680, Note_on_c, 2, 67, 69
4, 19680, Note_on_c, 2, 71, 67
4, 19680, Note_on_c, 2, 76, 50
4, 19785, Note_off_c, 2, 76, 64
4, 19785, Note_off_c, 2, 71, 64
4, 19785, Note_off_c, 2, 67, 64
4, 19785, Note_off_c, 2, 64, 64
4, 19785, Note_off_c, 2, 62, 64
4, 19790, Note_on_c, 2, 76, 45
4, 19795, Note_on_c, 2, 62, 80
4, 19795, Note_on_c, 2, 64, 50
4, 19795, Note_on_c, 2, 67, 78
4, 19795, Note_on_c, 2, 71, 70
4, 19870, Note_off_c, 2, 67, 64
4, 19870, Note_off_c, 2, 62, 64
4, 19870, Note_off_c, 2, 76, 64
4, 19875, Note_off_c, 2, 64, 64
4, 19875, Note_off_c, 2, 71, 64
4, 21360, Note_on_c, 2, 57, 80
4, 21360, Note_on_c, 2, 64, 53
4, 21360, Note_on_c, 2, 67, 77
4, 21360, Note_on_c, 2, 72, 75
4, 21470, Note_off_c, 2, 72, 64
4, 21470, Note_off_c, 2, 67, 64
4, 21470, Note_off_c, 2, 57, 64
4, 21475, Note_off_c, 2, 64, 64
4, 21480, Note_on_c, 2, 57, 70
4, 21480, Note_on_c, 2, 64, 39
4, 21480, Note_on_c, 2, 67, 77
4, 21480, Note_on_c, 2, 72, 50
4, 21580, Note_off_c, 2, 72, 64
4, 21585, Note_off_c, 2, 57, 64
4, 21590, Note_off_c, 2, 64, 64
4, 21590, Note_off_c, 2, 67, 64
4, 21595, Note_on_c, 2, 57, 70
4, 21595, Note_on_c, 2, 64, 41
4, 21595, Note_on_c, 2, 67, 80
4, 21595, Note_on_c, 2, 72, 41
4, 21700, Note_off_c, 2, 72, 64
4, 21710, Note_off_c, 2, 67, 64
4, 21710, Note_off_c, 2, 64, 64
4, 21710, Note_off_c, 2, 57, 64
4, 21715, Note_on_c, 2, 57, 80
4, 21715, Note_on_c, 2, 64, 55
4, 21715, Note_on_c, 2, 67, 80
4, 21715, Note_on_c, 2, 72, 47
4, 21800, Note_off_c, 2, 72, 64
4, 21800, Note_off_c, 2, 67, 64
4, 21800, Note_off_c, 2, 64, 64
4, 21800, Note_off_c, 2, 57, 64
4, 23275, Note_on_c, 2, 67, 80
4, 23280, Note_on_c, 2, 62, 80
4, 23280, Note_on_c, 2, 64, 56
4, 23280, Note_on_c, 2, 71, 73
4, 23280, Note_on_c, 2, 76, 80
4, 23390, Note_off_c, 2, 67, 64
4, 23395, Note_off_c, 2, 62, 64
4, 23395, Note_off_c, 2, 64, 64
4, 23395, Note_off_c, 2, 71, 64
4, 23395, Note_off_c, 2, 76, 64
4, 23400, Note_on_c, 2, 62, 80
4, 23400, Note_on_c, 2, 67, 64
4, 23400, Note_on_c, 2, 71, 66
4, 23400, Note_on_c, 2, 76, 65
4, 23405, Note_on_c, 2, 64, 50
4, 23510, Note_off_c, 2, 76, 64
4, 23510, Note_off_c, 2, 71, 64
4, 23510, Note_off_c, 2, 67, 64
4, 23510, Note_off_c, 2, 62, 64
4, 23515, Note_off_c, 2, 64, 64
4, 23520, Note_on_c, 2, 62, 72
4, 23520, Note_on_c, 2, 64, 50
4, 23520, Note_on_c, 2, 67, 69
4, 23520, Note_on_c, 2, 71, 67
4, 23520, Note_on_c, 2, 76, 50
4, 23625, Note_off_c, 2, 76, 64
4, 23625, Note_off_c, 2, 71, 64
4, 23625, Note_off_c, 2, 67, 64
4, 23625, Note_off_c, 2, 64, 64
4, 23625, Note_off_c, 2, 62, 64
4, 23630, Note_on_c, 2, 76, 45
4, 23635, Note_on_c, 2, 62, 80
4, 23635, Note_on_c, 2, 64, 50
4, 23635, Note_on_c, 2, 67, 78
4, 23635, Note_on_c, 2, 71, 70
4, 23710, Note_off_c, 2, 67, 64
4, 23710, Note_off_c, 2, 62, 64
4, 23710, Note_off_c, 2, 76, 64
4, 23715, Note_off_c, 2, 64, 64
4, 23715, Note_off_c, 2, 71, 64
4, 25200, Note_on_c, 2, 57, 80
4, 25200, Note_on_c, 2, 64, 53
4, 25200, Note_on_c, 2, 67, 77
4, 25200, Note_on_c, 2, 72, 75
4, 25310, Note_off_c, 2, 72, 64
4, 25310, Note_off_c, 2, 67, 64
4, 25310, Note_off_c, 2, 57, 64
4, 25315, Note_off_c, 2, 64, 64
4, 25320, Note_on_c, 2, 57, 70
4, 25320, Note_on_c, 2, 64, 39
4, 25320, Note_on_c, 2, 67, 77
4, 25320, Note_on_c, 2, 72, 50
4, 25420, Note_off_c, 2, 72, 64
4, 25425, Note_off_c, 2, 57, 64
4, 25430, Note_off_c, 2, 64, 64
4, 25430, Note_off_c, 2, 67, 64
4, 25435, Note_on_c, 2, 57, 70
4, 25435, Note_on_c, 2, 64, 41
4, 25435, Note_on_c, 2, 67, 80
4, 25435, Note_on_c, 2, 72, 41
4, 25540, Note_off_c, 2, 72, 64
4, 25550, Note_off_c, 2, 67, 64
4, 25550, Note_off_c, 2, 64, 64
4, 25550, Note_off_c, 2, 57, 64
4, 25555, Note_on_c, 2, 57, 80
4, 25555, Note_on_c, 2, 64, 55
4, 25555, Note_on_c, 2, 67, 80
4, 25555, Note_on_c, 2, 72, 47
4, 25640, Note_off_c, 2, 72, 64
4, 25640, Note_off_c, 2, 67, 64
4, 25640, Note_off_c, 2, 64, 64
4, 25640, Note_off_c, 2, 57, 64
4, 26165, Note_on_c, 2, 57, 80
4, 26165, Note_on_c, 2, 64, 53
4, 26165, Note_on_c, 2, 67, 77
4, 26165, Note_on_c, 2, 72, 75
4, 26275, Note_off_c, 2, 72, 64
4, 26275, Note_off_c, 2, 67, 64
4, 26275, Note_off_c, 2, 57, 64
4, 26280, Note_off_c, 2, 64, 64
4, 26285, Note_on_c, 2, 57, 70
4, 26285, Note_on_c, 2, 64, 39
4, 26285, Note_on_c, 2, 67, 77
4, 26285, Note_on_c, 2, 72, 50
4, 26385, Note_off_c, 2, 72, 64
4, 26390, Note_off_c, 2, 57, 64
4, 26395, Note_off_c, 2, 64, 64
4, 26395, Note_off_c, 2, 67, 64
4, 26400, Note_on_c, 2, 57, 70
4, 26400, Note_on_c, 2, 64, 41
4, 26400, Note_on_c, 2, 67, 80
4, 26400, Note_on_c, 2, 72, 41
4, 26505, Note_off_c, 2, 72, 64
4, 26515, Note_off_c, 2, 67, 64
4, 26515, Note_off_c, 2, 64, 64
4, 26515, Note_off_c, 2, 57, 64
4, 26520, Note_on_c, 2, 57, 80
4, 26520, Note_on_c, 2, 64, 55
4, 26520, Note_on_c, 2, 67, 80
4, 26520, Note_on_c, 2, 72, 47
4, 26605, Note_off_c, 2, 72, 64
4, 26605, Note_off_c, 2, 67, 64
4, 26605, Note_off_c, 2, 64, 64
4, 26605, Note_off_c, 2, 57, 64
4, 27125, Note_on_c, 2, 62, 80
4, 27125, Note_on_c, 2, 67, 80
4, 27125, Note_on_c, 2, 71, 80
4, 27240, Note_off_c, 2, 71, 64
4, 27240, Note_off_c, 2, 67, 64
4, 27240, Note_off_c, 2, 62, 64
4, 27245, Note_on_c, 2, 62, 49
4, 27245, Note_on_c, 2, 67, 78
4, 27245, Note_on_c, 2, 71, 70
4, 27355, Note_off_c, 2, 71, 64
4, 27355, Note_off_c, 2, 67, 64
4, 27355, Note_off_c, 2, 62, 64
4, 27360, Note_on_c, 2, 62, 47
4, 27365, Note_on_c, 2, 67, 80
4, 27365, Note_on_c, 2, 71, 72
4, 27480, Note_off_c, 2, 71, 64
4, 27480, Note_off_c, 2, 67, 64
4, 27480, Note_off_c, 2, 62, 64
4, 27485, Note_on_c, 2, 62, 56
4, 27485, Note_on_c, 2, 67, 75
4, 27485, Note_on_c, 2, 71, 72
4, 27600, Note_off_c, 2, 71, 64
4, 27600, Note_off_c, 2, 67, 64
4, 27600, Note_off_c, 2, 62, 64
4, 27605, Note_on_c, 2, 62, 64
4, 27605, Note_on_c, 2, 67, 75
4, 27605, Note_on_c, 2, 71, 70
4, 27675, Note_off_c, 2, 62, 64
4, 27680, Note_off_c, 2, 71, 64
4, 27685, Note_off_c, 2, 67, 64
4, 27845, Note_on_c, 2, 66, 80
4, 27845, Note_on_c, 2, 69, 80
4, 27845, Note_on_c, 2, 74, 80
4, 27930, Note_off_c, 2, 69, 64
4, 27935, Note_off_c, 2, 66, 64
4, 27965, Note_off_c, 2, 74, 64
4, 28195, Note_on_c, 2, 66, 80
4, 28195, Note_on_c, 2, 69, 80
4, 28195, Note_on_c, 2, 74, 80
4, 28305, Note_off_c, 2, 66, 64
4, 28310, Note_off_c, 2, 69, 64
4, 28315, Note_off_c, 2, 74, 64
4, 28555, Note_on_c, 2, 64, 80
4, 28555, Note_on_c, 2, 67, 80
4, 28555, Note_on_c, 2, 72, 80
4, 28680, Note_off_c, 2, 64, 64
4, 28685, Note_off_c, 2, 67, 64
4, 28690, Note_off_c, 2, 72, 64
4, 29035, Note_on_c, 2, 64, 75
4, 29035, Note_on_c, 2, 67, 80
4, 29035, Note_on_c, 2, 72, 80
4, 29150, Note_off_c, 2, 72, 64
4, 29150, Note_off_c, 2, 67, 64
4, 29150, Note_off_c, 2, 64, 64
4, 29155, Note_on_c, 2, 64, 64
4, 29155, Note_on_c, 2, 67, 80
4, 29155, Note_on_c, 2, 72, 69
4, 29275, Note_off_c, 2, 72, 64
4, 29275, Note_off_c, 2, 67, 64
4, 29275, Note_off_c, 2, 64, 64
4, 29280, Note_on_c, 2, 64, 52
4, 29280, Note_on_c, 2, 67, 75
4, 29280, Note_on_c, 2, 72, 65
4, 29395, Note_off_c, 2, 72, 64
4, 29395, Note_off_c, 2, 67, 64
4, 29395, Note_off_c, 2, 64, 64
4, 29400, Note_on_c, 2, 64, 59
4, 29400, Note_on_c, 2, 67, 80
4, 29400, Note_on_c, 2, 72, 72
4, 29515, Note_off_c, 2, 72, 64
4, 29515, Note_off_c, 2, 67, 64
4, 29515, Note_off_c, 2, 64, 64
4, 29520, Note_on_c, 2, 64, 66
4, 29520, Note_on_c, 2, 67, 80
4, 29520, Note_on_c, 2, 72, 72
4, 29640, Note_off_c, 2, 72, 64
4, 29640, Note_off_c, 2, 67, 64
4, 29640, Note_off_c, 2, 64, 64
4, 29770, Note_on_c, 2, 64, 80
4, 29770, Note_on_c, 2, 67, 80
4, 29770, Note_on_c, 2, 72, 80
4, 29875, Note_off_c, 2, 64, 64
4, 29885, Note_off_c, 2, 67, 64
4, 29900, Note_off_c, 2, 72, 64
4, 30230, Note_on_c, 2, 66, 80
4, 30230, Note_on_c, 2, 69, 80
4, 30230, Note_on_c, 2, 74, 80
4, 30375, Note_off_c, 2, 74, 64
4, 30390, Note_off_c, 2, 66, 64
4, 30395, Note_off_c, 2, 69, 64
4, 30970, Note_on_c, 2, 62, 78
4, 30970, Note_on_c, 2, 67, 80
4, 30970, Note_on_c, 2, 71, 80
4, 31085, Note_off_c, 2, 71, 64
4, 31085, Note_off_c, 2, 67, 64
4, 31085, Note_off_c, 2, 62, 64
4, 31090, Note_on_c, 2, 62, 50
4, 31090, Note_on_c, 2, 67, 78
4, 31090, Note_on_c, 2, 71, 66
4, 31200, Note_off_c, 2, 71, 64
4, 31200, Note_off_c, 2, 67, 64
4, 31200, Note_off_c, 2, 62, 64
4, 31205, Note_on_c, 2, 62, 52
4, 31205, Note_on_c, 2, 67, 72
4, 31205, Note_on_c, 2, 71, 65
4, 31315, Note_off_c, 2, 71, 64
4, 31315, Note_off_c, 2, 67, 64
4, 31315, Note_off_c, 2, 62, 64
4, 31320, Note_on_c, 2, 62, 42
4, 31320, Note_on_c, 2, 67, 70
4, 31320, Note_on_c, 2, 71, 65
4, 31321, Note_off_c, 2, 62, 64
4, 31435, Note_off_c, 2, 67, 64
4, 31435, Note_off_c, 2, 71, 64
4, 31440, Note_on_c, 2, 62, 56
4, 31440, Note_on_c, 2, 67, 72
4, 31440, Note_on_c, 2, 71, 64
4, 31560, Note_off_c, 2, 71, 64
4, 31560, Note_off_c, 2, 67, 64
4, 31560, Note_off_c, 2, 62, 64
4, 31680, Note_on_c, 2, 66, 80
4, 31680, Note_on_c, 2, 69, 80
4, 31680, Note_on_c, 2, 74, 80
4, 31770, Note_off_c, 2, 69, 64
4, 31770, Note_off_c, 2, 66, 64
4, 31795, Note_off_c, 2, 74, 64
4, 32040, Note_on_c, 2, 66, 80
4, 32040, Note_on_c, 2, 69, 80
4, 32040, Note_on_c, 2, 74, 80
4, 32140, Note_off_c, 2, 69, 64
4, 32140, Note_off_c, 2, 66, 64
4, 32155, Note_off_c, 2, 74, 64
4, 32400, Note_on_c, 2, 64, 80
4, 32400, Note_on_c, 2, 67, 80
4, 32400, Note_on_c, 2, 72, 80
4, 32530, Note_off_c, 2, 67, 64
4, 32530, Note_off_c, 2, 64, 64
4, 32535, Note_off_c, 2, 72, 64
4, 32875, Note_on_c, 2, 64, 80
4, 32875, Note_on_c, 2, 67, 80
4, 32875, Note_on_c, 2, 72, 80
4, 32990, Note_off_c, 2, 72, 64
4, 32990, Note_off_c, 2, 67, 64
4, 32990, Note_off_c, 2, 64, 64
4, 32995, Note_on_c, 2, 64, 59
4, 32995, Note_on_c, 2, 67, 80
4, 32995, Note_on_c, 2, 72, 65
4, 33110, Note_off_c, 2, 72, 64
4, 33110, Note_off_c, 2, 67, 64
4, 33110, Note_off_c, 2, 64, 64
4, 33115, Note_on_c, 2, 64, 52
4, 33115, Note_on_c, 2, 67, 75
4, 33115, Note_on_c, 2, 72, 70
4, 33230, Note_off_c, 2, 72, 64
4, 33230, Note_off_c, 2, 67, 64
4, 33230, Note_off_c, 2, 64, 64
4, 33235, Note_on_c, 2, 72, 55
4, 33240, Note_on_c, 2, 64, 42
4, 33240, Note_on_c, 2, 67, 75
4, 33355, Note_off_c, 2, 67, 64
4, 33355, Note_off_c, 2, 64, 64
4, 33355, Note_off_c, 2, 72, 64
4, 33360, Note_on_c, 2, 64, 66
4, 33360, Note_on_c, 2, 67, 80
4, 33360, Note_on_c, 2, 72, 75
4, 33361, Note_off_c, 2, 72, 64
4, 33480, Note_off_c, 2, 67, 64
4, 33480, Note_off_c, 2, 64, 64
4, 33605, Note_on_c, 2, 64, 80
4, 33605, Note_on_c, 2, 67, 80
4, 33605, Note_on_c, 2, 72, 80
4, 33720, Note_off_c, 2, 64, 64
4, 33725, Note_off_c, 2, 67, 64
4, 33735, Note_off_c, 2, 72, 64
4, 34085, Note_on_c, 2, 64, 80
4, 34085, Note_on_c, 2, 67, 80
4, 34085, Note_on_c, 2, 72, 80
4, 34200, Note_off_c, 2, 67, 64
4, 34200, Note_off_c, 2, 64, 64
4, 34210, Note_off_c, 2, 72, 64
4, 34805, Note_on_c, 2, 62, 80
4, 34805, Note_on_c, 2, 67, 80
4, 34805, Note_on_c, 2, 71, 80
4, 34920, Note_off_c, 2, 71, 64
4, 34920, Note_off_c, 2, 67, 64
4, 34920, Note_off_c, 2, 62, 64
4, 34925, Note_on_c, 2, 62, 49
4, 34925, Note_on_c, 2, 67, 78
4, 34925, Note_on_c, 2, 71, 70
4, 35035, Note_off_c, 2, 71, 64
4, 35035, Note_off_c, 2, 67, 64
4, 35035, Note_off_c, 2, 62, 64
4, 35040, Note_on_c, 2, 62, 47
4, 35045, Note_on_c, 2, 67, 80
4, 35045, Note_on_c, 2, 71, 72
4, 35160, Note_off_c, 2, 71, 64
4, 35160, Note_off_c, 2, 67, 64
4, 35160, Note_off_c, 2, 62, 64
4, 35165, Note_on_c, 2, 62, 56
4, 35165, Note_on_c, 2, 67, 75
4, 35165, Note_on_c, 2, 71, 72
4, 35280, Note_off_c, 2, 71, 64
4, 35280, Note_off_c, 2, 67, 64
4, 35280, Note_off_c, 2, 62, 64
4, 35285, Note_on_c, 2, 62, 64
4, 35285, Note_on_c, 2, 67, 75
4, 35285, Note_on_c, 2, 71, 70
4, 35355, Note_off_c, 2, 62, 64
4, 35360, Note_off_c, 2, 71, 64
4, 35365, Note_off_c, 2, 67, 64
4, 35525, Note_on_c, 2, 66, 80
4, 35525, Note_on_c, 2, 69, 80
4, 35525, Note_on_c, 2, 74, 80
4, 35610, Note_off_c, 2, 69, 64
4, 35615, Note_off_c, 2, 66, 64
4, 35645, Note_off_c, 2, 74, 64
4, 35875, Note_on_c, 2, 66, 80
4, 35875, Note_on_c, 2, 69, 80
4, 35875, Note_on_c, 2, 74, 80
4, 35985, Note_off_c, 2, 66, 64
4, 35990, Note_off_c, 2, 69, 64
4, 35995, Note_off_c, 2, 74, 64
4, 36235, Note_on_c, 2, 64, 80
4, 36235, Note_on_c, 2, 67, 80
4, 36235, Note_on_c, 2, 72, 80
4, 36360, Note_off_c, 2, 64, 64
4, 36365, Note_off_c, 2, 67, 64
4, 36370, Note_off_c, 2, 72, 64
4, 36715, Note_on_c, 2, 64, 75
4, 36715, Note_on_c, 2, 67, 80
4, 36715, Note_on_c, 2, 72, 80
4, 36830, Note_off_c, 2, 72, 64
4, 36830, Note_off_c, 2, 67, 64
4, 36830, Note_off_c, 2, 64, 64
4, 36835, Note_on_c, 2, 64, 64
4, 36835, Note_on_c, 2, 67, 80
4, 36835, Note_on_c, 2, 72, 69
4, 36955, Note_off_c, 2, 72, 64
4, 36955, Note_off_c, 2, 67, 64
4, 36955, Note_off_c, 2, 64, 64
4, 36960, Note_on_c, 2, 64, 52
4, 36960, Note_on_c, 2, 67, 75
4, 36960, Note_on_c, 2, 72, 65
4, 37075, Note_off_c, 2, 72, 64
4, 37075, Note_off_c, 2, 67, 64
4, 37075, Note_off_c, 2, 64, 64
4, 37080, Note_on_c, 2, 64, 59
4, 37080, Note_on_c, 2, 67, 80
4, 37080, Note_on_c, 2, 72, 72
4, 37195, Note_off_c, 2, 72, 64
4, 37195, Note_off_c, 2, 67, 64
4, 37195, Note_off_c, 2, 64, 64
4, 37200, Note_on_c, 2, 64, 66
4, 37200, Note_on_c, 2, 67, 80
4, 37200, Note_on_c, 2, 72, 72
4, 37320, Note_off_c, 2, 72, 64
4, 37320, Note_off_c, 2, 67, 64
4, 37320, Note_off_c, 2, 64, 64
4, 37450, Note_on_c, 2, 64, 80
4, 37450, Note_on_c, 2, 67, 80
4, 37450, Note_on_c, 2, 72, 80
4, 37555, Note_off_c, 2, 64, 64
4, 37565, Note_off_c, 2, 67, 64
4, 37580, Note_off_c, 2, 72, 64
4, 37910, Note_on_c, 2, 66, 80
4, 37910, Note_on_c, 2, 69, 80
4, 37910, Note_on_c, 2, 74, 80
4, 38055, Note_off_c, 2, 74, 64
4, 38070, Note_off_c, 2, 66, 64
4, 38075, Note_off_c, 2, 69, 64
4, 38650, Note_on_c, 2, 62, 78
4, 38650, Note_on_c, 2, 67, 80
4, 38650, Note_on_c, 2, 71, 80
4, 38765, Note_off_c, 2, 71, 64
4, 38765, Note_off_c, 2, 67, 64
4, 38765, Note_off_c, 2, 62, 64
4, 38770, Note_on_c, 2, 62, 50
4, 38770, Note_on_c, 2, 67, 78
4, 38770, Note_on_c, 2, 71, 66
4, 38880, Note_off_c, 2, 71, 64
4, 38880, Note_off_c, 2, 67, 64
4, 38880, Note_off_c, 2, 62, 64
4, 38885, Note_on_c, 2, 62, 52
4, 38885, Note_on_c, 2, 67, 72
4, 38885, Note_on_c, 2, 71, 65
4, 38995, Note_off_c, 2, 71, 64
4, 38995, Note_off_c, 2, 67, 64
4, 38995, Note_off_c, 2, 62, 64
4, 39000, Note_on_c, 2, 62, 42
4, 39000, Note_on_c, 2, 67, 70
4, 39000, Note_on_c, 2, 71, 65
4, 39001, Note_off_c, 2, 62, 64
4, 39115, Note_off_c, 2, 67, 64
4, 39115, Note_off_c, 2, 71, 64
4, 39120, Note_on_c, 2, 62, 56
4, 39120, Note_on_c, 2, 67, 72
4, 39120, Note_on_c, 2, 71, 64
4, 39240, Note_off_c, 2, 71, 64
4, 39240, Note_off_c, 2, 67, 64
4, 39240, Note_off_c, 2, 62, 64
4, 39360, Note_on_c, 2, 66, 80
4, 39360, Note_on_c, 2, 69, 80
4, 39360, Note_on_c, 2, 74, 80
4, 39450, Note_off_c, 2, 69, 64
4, 39450, Note_off_c, 2, 66, 64
4, 39475, Note_off_c, 2, 74, 64
4, 39720, Note_on_c, 2, 66, 80
4, 39720, Note_on_c, 2, 69, 80
4, 39720, Note_on_c, 2, 74, 80
4, 39820, Note_off_c, 2, 69, 64
4, 39820, Note_off_c, 2, 66, 64
4, 39835, Note_off_c, 2, 74, 64
4, 40080, Note_on_c, 2, 64, 80
4, 40080, Note_on_c, 2, 67, 80
4, 40080, Note_on_c, 2, 72, 80
4, 40210, Note_off_c, 2, 67, 64
4, 40210, Note_off_c, 2, 64, 64
4, 40215, Note_off_c, 2, 72, 64
4, 40555, Note_on_c, 2, 64, 80
4, 40555, Note_on_c, 2, 67, 80
4, 40555, Note_on_c, 2, 72, 80
4, 40670, Note_off_c, 2, 72, 64
4, 40670, Note_off_c, 2, 67, 64
4, 40670, Note_off_c, 2, 64, 64
4, 40675, Note_on_c, 2, 64, 59
4, 40675, Note_on_c, 2, 67, 80
4, 40675, Note_on_c, 2, 72, 65
4, 40790, Note_off_c, 2, 72, 64
4, 40790, Note_off_c, 2, 67, 64
4, 40790, Note_off_c, 2, 64, 64
4, 40795, Note_on_c, 2, 64, 52
4, 40795, Note_on_c, 2, 67, 75
4, 40795, Note_on_c, 2, 72, 70
4, 40910, Note_off_c, 2, 72, 64
4, 40910, Note_off_c, 2, 67, 64
4, 40910, Note_off_c, 2, 64, 64
4, 40915, Note_on_c, 2, 72, 55
4, 40920, Note_on_c, 2, 64, 42
4, 40920, Note_on_c, 2, 67, 75
4, 41035, Note_off_c, 2, 67, 64
4, 41035, Note_off_c, 2, 64, 64
4, 41035, Note_off_c, 2, 72, 64
4, 41040, Note_on_c, 2, 64, 66
4, 41040, Note_on_c, 2, 67, 80
4, 41040, Note_on_c, 2, 72, 75
4, 41041, Note_off_c, 2, 72, 64
4, 41160, Note_off_c, 2, 67, 64
4, 41160, Note_off_c, 2, 64, 64
4, 41285, Note_on_c, 2, 64, 80
4, 41285, Note_on_c, 2, 67, 80
4, 41285, Note_on_c, 2, 72, 80
4, 41400, Note_off_c, 2, 64, 64
4, 41405, Note_off_c, 2, 67, 64
4, 41415, Note_off_c, 2, 72, 64
4, 41765, Note_on_c, 2, 64, 80
4, 41765, Note_on_c, 2, 67, 80
4, 41765, Note_on_c, 2, 72, 80
4, 41880, Note_off_c, 2, 67, 64
4, 41880, Note_off_c, 2, 64, 64
4, 41890, Note_off_c, 2, 72, 64
4, 42485, Note_on_c, 2, 62, 80
4, 42485, Note_on_c, 2, 67, 80
4, 42485, Note_on_c, 2, 71, 80
4, 42600, Note_off_c, 2, 71, 64
4, 42600, Note_off_c, 2, 67, 64
4, 42600, Note_off_c, 2, 62, 64
4, 42605, Note_on_c, 2, 62, 49
4, 42605, Note_on_c, 2, 67, 78
4, 42605, Note_on_c, 2, 71, 70
4, 42715, Note_off_c, 2, 71, 64
4, 42715, Note_off_c, 2, 67, 64
4, 42715, Note_off_c, 2, 62, 64
4, 42720, Note_on_c, 2, 62, 47
4, 42725, Note_on_c, 2, 67, 80
4, 42725, Note_on_c, 2, 71, 72
4, 42840, Note_off_c, 2, 71, 64
4, 42840, Note_off_c, 2, 67, 64
4, 42840, Note_off_c, 2, 62, 64
4, 42845, Note_on_c, 2, 62, 56
4, 42845, Note_on_c, 2, 67, 75
4, 42845, Note_on_c, 2, 71, 72
4, 42960, Note_off_c, 2, 71, 64
4, 42960, Note_off_c, 2, 67, 64
4, 42960, Note_off_c, 2, 62, 64
4, 42965, Note_on_c, 2, 62, 64
4, 42965, Note_on_c, 2, 67, 75
4, 42965, Note_on_c, 2, 71, 70
4, 43035, Note_off_c, 2, 62, 64
4, 43040, Note_off_c, 2, 71, 64
4, 43045, Note_off_c, 2, 67, 64
4, 43205, Note_on_c, 2, 66, 80
4, 43205, Note_on_c, 2, 69, 80
4, 43205, Note_on_c, 2, 74, 80
4, 43290, Note_off_c, 2, 69, 64
4, 43295, Note_off_c, 2, 66, 64
4, 43325, Note_off_c, 2, 74, 64
4, 43555, Note_on_c, 2, 66, 80
4, 43555, Note_on_c, 2, 69, 80
4, 43555, Note_on_c, 2, 74, 80
4, 43665, Note_off_c, 2, 66, 64
4, 43670, Note_off_c, 2, 69, 64
4, 43675, Note_off_c, 2, 74, 64
4, 43915, Note_on_c, 2, 64, 80
4, 43915, Note_on_c, 2, 67, 80
4, 43915, Note_on_c, 2, 72, 80
4, 44040, Note_off_c, 2, 64, 64
4, 44045, Note_off_c, 2, 67, 64
4, 44050, Note_off_c, 2, 72, 64
4, 44395, Note_on_c, 2, 64, 75
4, 44395, Note_on_c, 2, 67, 80
4, 44395, Note_on_c, 2, 72, 80
4, 44510, Note_off_c, 2, 72, 64
4, 44510, Note_off_c, 2, 67, 64
4, 44510, Note_off_c, 2, 64, 64
4, 44515, Note_on_c, 2, 64, 64
4, 44515, Note_on_c, 2, 67, 80
4, 44515, Note_on_c, 2, 72, 69
4, 44635, Note_off_c, 2, 72, 64
4, 44635, Note_off_c, 2, 67, 64
4, 44635, Note_off_c, 2, 64, 64
4, 44640, Note_on_c, 2, 64, 52
4, 44640, Note_on_c, 2, 67, 75
4, 44640, Note_on_c, 2, 72, 65
4, 44755, Note_off_c, 2, 72, 64
4, 44755, Note_off_c, 2, 67, 64
4, 44755, Note_off_c, 2, 64, 64
4, 44760, Note_on_c, 2, 64, 59
4, 44760, Note_on_c, 2, 67, 80
4, 44760, Note_on_c, 2, 72, 72
4, 44875, Note_off_c, 2, 72, 64
4, 44875, Note_off_c, 2, 67, 64
4, 44875, Note_off_c, 2, 64, 64
4, 44880, Note_on_c, 2, 64, 66
4, 44880, Note_on_c, 2, 67, 80
4, 44880, Note_on_c, 2, 72, 72
4, 45000, Note_off_c, 2, 72, 64
4, 45000, Note_off_c, 2, 67, 64
4, 45000, Note_off_c, 2, 64, 64
4, 45130, Note_on_c, 2, 64, 80
4, 45130, Note_on_c, 2, 67, 80
4, 45130, Note_on_c, 2, 72, 80
4, 45235, Note_off_c, 2, 64, 64
4, 45245, Note_off_c, 2, 67, 64
4, 45260, Note_off_c, 2, 72, 64
4, 45590, Note_on_c, 2, 66, 80
4, 45590, Note_on_c, 2, 69, 80
4, 45590, Note_on_c, 2, 74, 80
4, 45735, Note_off_c, 2, 74, 64
4, 45750, Note_off_c, 2, 66, 64
4, 45755, Note_off_c, 2, 69, 64
4, 46330, Note_on_c, 2, 62, 78
4, 46330, Note_on_c, 2, 67, 80
4, 46330, Note_on_c, 2, 71, 80
4, 46445, Note_off_c, 2, 71, 64
4, 46445, Note_off_c, 2, 67, 64
4, 46445, Note_off_c, 2, 62, 64
4, 46450, Note_on_c, 2, 62, 50
4, 46450, Note_on_c, 2, 67, 78
4, 46450, Note_on_c, 2, 71, 66
4, 46560, Note_off_c, 2, 71, 64
4, 46560, Note_off_c, 2, 67, 64
4, 46560, Note_off_c, 2, 62, 64
4, 46565, Note_on_c, 2, 62, 52
4, 46565, Note_on_c, 2, 67, 72
4, 46565, Note_on_c, 2, 71, 65
4, 46675, Note_off_c, 2, 71, 64
4, 46675, Note_off_c, 2, 67, 64
4, 46675, Note_off_c, 2, 62, 64
4, 46680, Note_on_c, 2, 62, 42
4, 46680, Note_on_c, 2, 67, 70
4, 46680, Note_on_c, 2, 71, 65
4, 46681, Note_off_c, 2, 62, 64
4, 46795, Note_off_c, 2, 67, 64
4, 46795, Note_off_c, 2, 71, 64
4, 46800, Note_on_c, 2, 62, 56
4, 46800, Note_on_c, 2, 67, 72
4, 46800, Note_on_c, 2, 71, 64
4, 46920, Note_off_c, 2, 71, 64
4, 46920, Note_off_c, 2, 67, 64
4, 46920, Note_off_c, 2, 62, 64
4, 47040, Note_on_c, 2, 66, 80
4, 47040, Note_on_c, 2, 69, 80
4, 47040, Note_on_c, 2, 74, 80
4, 47130, Note_off_c, 2, 69, 64
4, 47130, Note_off_c, 2, 66, 64
4, 47155, Note_off_c, 2, 74, 64
4, 47400, Note_on_c, 2, 66, 80
4, 47400, Note_on_c, 2, 69, 80
4, 47400, Note_on_c, 2, 74, 80
4, 47500, Note_off_c, 2, 69, 64
4, 47500, Note_off_c, 2, 66, 64
4, 47515, Note_off_c, 2, 74, 64
4, 47760, Note_on_c, 2, 64, 80
4, 47760, Note_on_c, 2, 67, 80
4, 47760, Note_on_c, 2, 72, 80
4, 47890, Note_off_c, 2, 67, 64
4, 47890, Note_off_c, 2, 64, 64
4, 47895, Note_off_c, 2, 72, 64
4, 48235, Note_on_c, 2, 64, 80
4, 48235, Note_on_c, 2, 67, 80
4, 48235, Note_on_c, 2, 72, 80
4, 48350, Note_off_c, 2, 72, 64
4, 48350, Note_off_c, 2, 67, 64
4, 48350, Note_off_c, 2, 64, 64
4, 48355, Note_on_c, 2, 64, 59
4, 48355, Note_on_c, 2, 67, 80
4, 48355, Note_on_c, 2, 72, 65
4, 48470, Note_off_c, 2, 72, 64
4, 48470, Note_off_c, 2, 67, 64
4, 48470, Note_off_c, 2, 64, 64
4, 48475, Note_on_c, 2, 64, 52
4, 48475, Note_on_c, 2, 67, 75
4, 48475, Note_on_c, 2, 72, 70
4, 48590, Note_off_c, 2, 72, 64
4, 48590, Note_off_c, 2, 67, 64
4, 48590, Note_off_c, 2, 64, 64
4, 48595, Note_on_c, 2, 72, 55
4, 48600, Note_on_c, 2, 64, 42
4, 48600, Note_on_c, 2, 67, 75
4, 48715, Note_off_c, 2, 67, 64
4, 48715, Note_off_c, 2, 64, 64
4, 48715, Note_off_c, 2, 72, 64
4, 48720, Note_on_c, 2, 64, 66
4, 48720, Note_on_c, 2, 67, 80
4, 48720, Note_on_c, 2, 72, 75
4, 48721, Note_off_c, 2, 72, 64
4, 48840, Note_off_c, 2, 67, 64
4, 48840, Note_off_c, 2, 64, 64
4, 48965, Note_on_c, 2, 64, 80
4, 48965, Note_on_c, 2, 67, 80
4, 48965, Note_on_c, 2, 72, 80
4, 49080, Note_off_c, 2, 64, 64
4, 49085, Note_off_c, 2, 67, 64
4, 49095, Note_off_c, 2, 72, 64
4, 49445, Note_on_c, 2, 64, 80
4, 49445, Note_on_c, 2, 67, 80
4, 49445, Note_on_c, 2, 72, 80
4, 49560, Note_off_c, 2, 67, 64
4, 49560, Note_off_c, 2, 64, 64
4, 49570, Note_off_c, 2, 72, 64
4, 50165, Note_on_c, 2, 62, 80
4, 50165, Note_on_c, 2, 67, 80
4, 50165, Note_on_c, 2, 71, 80
4, 50280, Note_off_c, 2, 71, 64
4, 50280, Note_off_c, 2, 67, 64
4, 50280, Note_off_c, 2, 62, 64
4, 50285, Note_on_c, 2, 62, 49
4, 50285, Note_on_c, 2, 67, 78
4, 50285, Note_on_c, 2, 71, 70
4, 50395, Note_off_c, 2, 71, 64
4, 50395, Note_off_c, 2, 67, 64
4, 50395, Note_off_c, 2, 62, 64
4, 50400, Note_on_c, 2, 62, 47
4, 50405, Note_on_c, 2, 67, 80
4, 50405, Note_on_c, 2, 71, 72
4, 50520, Note_off_c, 2, 71, 64
4, 50520, Note_off_c, 2, 67, 64
4, 50520, Note_off_c, 2, 62, 64
4, 50525, Note_on_c, 2, 62, 56
4, 50525, Note_on_c, 2, 67, 75
4, 50525, Note_on_c, 2, 71, 72
4, 50640, Note_off_c, 2, 71, 64
4, 50640, Note_off_c, 2, 67, 64
4, 50640, Note_off_c, 2, 62, 64
4, 50645, Note_on_c, 2, 62, 64
4, 50645, Note_on_c, 2, 67, 75
4, 50645, Note_on_c, 2, 71, 70
4, 50715, Note_off_c, 2, 62, 64
4, 50720, Note_off_c, 2, 71, 64
4, 50725, Note_off_c, 2, 67, 64
4, 50885, Note_on_c, 2, 66, 80
4, 50885, Note_on_c, 2, 69, 80
4, 50885, Note_on_c, 2, 74, 80
4, 50970, Note_off_c, 2, 69, 64
4, 50975, Note_off_c, 2, 66, 64
4, 51005, Note_off_c, 2, 74, 64
4, 51235, Note_on_c, 2, 66, 80
4, 51235, Note_on_c, 2, 69, 80
4, 51235, Note_on_c, 2, 74, 80
4, 51345, Note_off_c, 2, 66, 64
4, 51350, Note_off_c, 2, 69, 64
4, 51355, Note_off_c, 2, 74, 64
4, 51595, Note_on_c, 2, 64, 80
4, 51595, Note_on_c, 2, 67, 80
4, 51595, Note_on_c, 2, 72, 80
4, 51720, Note_off_c, 2, 64, 64
4, 51725, Note_off_c, 2, 67, 64
4, 51730, Note_off_c, 2, 72, 64
4, 52075, Note_on_c, 2, 64, 75
4, 52075, Note_on_c, 2, 67, 80
4, 52075, Note_on_c, 2, 72, 80
4, 52190, Note_off_c, 2, 72, 64
4, 52190, Note_off_c, 2, 67, 64
4, 52190, Note_off_c, 2, 64, 64
4, 52195, Note_on_c, 2, 64, 64
4, 52195, Note_on_c, 2, 67, 80
4, 52195, Note_on_c, 2, 72, 69
4, 52315, Note_off_c, 2, 72, 64
4, 52315, Note_off_c, 2, 67, 64
4, 52315, Note_off_c, 2, 64, 64
4, 52320, Note_on_c, 2, 64, 52
4, 52320, Note_on_c, 2, 67, 75
4, 52320, Note_on_c, 2, 72, 65
4, 52435, Note_off_c, 2, 72, 64
4, 52435, Note_off_c, 2, 67, 64
4, 52435, Note_off_c, 2, 64, 64
4, 52440, Note_on_c, 2, 64, 59
4, 52440, Note_on_c, 2, 67, 80
4, 52440, Note_on_c, 2, 72, 72
4, 52555, Note_off_c, 2, 72, 64
4, 52555, Note_off_c, 2, 67, 64
4, 52555, Note_off_c, 2, 64, 64
4, 52560, Note_on_c, 2, 64, 66
4, 52560, Note_on_c, 2, 67, 80
4, 52560, Note_on_c, 2, 72, 72
4, 52680, Note_off_c, 2, 72, 64
4, 52680, Note_off_c, 2, 67, 64
4, 52680, Note_off_c, 2, 64, 64
4, 52810, Note_on_c, 2, 64, 80
4, 52810, Note_on_c, 2, 67, 80
4, 52810, Note_on_c, 2, 72, 80
4, 52915, Note_off_c, 2, 64, 64
4, 52925, Note_off_c, 2, 67, 64
4, 52940, Note_off_c, 2, 72, 64
4, 53270, Note_on_c, 2, 66, 80
4, 53270, Note_on_c, 2, 69, 80
4, 53270, Note_on_c, 2, 74, 80
4, 53415, Note_off_c, 2, 74, 64
4, 53430, Note_off_c, 2, 66, 64
4, 53435, Note_off_c, 2, 69, 64
4, 54010, Note_on_c, 2, 62, 78
4, 54010, Note_on_c, 2, 67, 80
4, 54010, Note_on_c, 2, 71, 80
4, 54125, Note_off_c, 2, 71, 64
4, 54125, Note_off_c, 2, 67, 64
4, 54125, Note_off_c, 2, 62, 64
4, 54130, Note_on_c, 2, 62, 50
4, 54130, Note_on_c, 2, 67, 78
4, 54130, Note_on_c, 2, 71, 66
4, 54240, Note_off_c, 2, 71, 64
4, 54240, Note_off_c, 2, 67, 64
4, 54240, Note_off_c, 2, 62, 64
4, 54245, Note_on_c, 2, 62, 52
4, 54245, Note_on_c, 2, 67, 72
4, 54245, Note_on_c, 2, 71, 65
4, 54355, Note_off_c, 2, 71, 64
4, 54355, Note_off_c, 2, 67, 64
4, 54355, Note_off_c, 2, 62, 64
4, 54360, Note_on_c, 2, 62, 42
4, 54360, Note_on_c, 2, 67, 70
4, 54360, Note_on_c, 2, 71, 65
4, 54361, Note_off_c, 2, 62, 64
4, 54475, Note_off_c, 2, 67, 64
4, 54475, Note_off_c, 2, 71, 64
4, 54480, Note_on_c, 2, 62, 56
4, 54480, Note_on_c, 2, 67, 72
4, 54480, Note_on_c, 2, 71, 64
4, 54600, Note_off_c, 2, 71, 64
4, 54600, Note_off_c, 2, 67, 64
4, 54600, Note_off_c, 2, 62, 64
4, 54720, Note_on_c, 2, 66, 80
4, 54720, Note_on_c, 2, 69, 80
4, 54720, Note_on_c, 2, 74, 80
4, 54810, Note_off_c, 2, 69, 64
4, 54810, Note_off_c, 2, 66, 64
4, 54835, Note_off_c, 2, 74, 64
4, 55080, Note_on_c, 2, 66, 80
4, 55080, Note_on_c, 2, 69, 80
4, 55080, Note_on_c, 2, 74, 80
4, 55180, Note_off_c, 2, 69, 64
4, 55180, Note_off_c, 2, 66, 64
4, 55195, Note_off_c, 2, 74, 64
4, 55440, Note_on_c, 2, 64, 80
4, 55440, Note_on_c, 2, 67, 80
4, 55440, Note_on_c, 2, 72, 80
4, 55570, Note_off_c, 2, 67, 64
4, 55570, Note_off_c, 2, 64, 64
4, 55575, Note_off_c, 2, 72, 64
4, 55915, Note_on_c, 2, 64, 80
4, 55915, Note_on_c, 2, 67, 80
4, 55915, Note_on_c, 2, 72, 80
4, 56030, Note_off_c, 2, 72, 64
4, 56030, Note_off_c, 2, 67, 64
4, 56030, Note_off_c, 2, 64, 64
4, 56035, Note_on_c, 2, 64, 59
4, 56035, Note_on_c, 2, 67, 80
4, 56035, Note_on_c, 2, 72, 65
4, 56150, Note_off_c, 2, 72, 64
4, 56150, Note_off_c, 2, 67, 64
4, 56150, Note_off_c, 2, 64, 64
4, 56155, Note_on_c, 2, 64, 52
4, 56155, Note_on_c, 2, 67, 75
4, 56155, Note_on_c, 2, 72, 70
4, 56270, Note_off_c, 2, 72, 64
4, 56270, Note_off_c, 2, 67, 64
4, 56270, Note_off_c, 2, 64, 64
4, 56275, Note_on_c, 2, 72, 55
4, 56280, Note_on_c, 2, 64, 42
4, 56280, Note_on_c, 2, 67, 75
4, 56395, Note_off_c, 2, 67, 64
4, 56395, Note_off_c, 2, 64, 64
4, 56395, Note_off_c, 2, 72, 64
4, 56400, Note_on_c, 2, 64, 66
4, 56400, Note_on_c, 2, 67, 80
4, 56400, Note_on_c, 2, 72, 75
4, 56401, Note_off_c, 2, 72, 64
4, 56520, Note_off_c, 2, 67, 64
4, 56520, Note_off_c, 2, 64, 64
4, 56645, Note_on_c, 2, 64, 80
4, 56645, Note_on_c, 2, 67, 80
4, 56645, Note_on_c, 2, 72, 80
4, 56760, Note_off_c, 2, 64, 64
4, 56765, Note_off_c, 2, 67, 64
4, 56775, Note_off_c, 2, 72, 64
4, 57125, Note_on_c, 2, 64, 80
4, 57125, Note_on_c, 2, 67, 80
4, 57125, Note_on_c, 2, 72, 80
4, 57240, Note_off_c, 2, 67, 64
4, 57240, Note_off_c, 2, 64, 64
4, 57250, Note_off_c, 2, 72, 64
4, 57845, Note_on_c, 2, 62, 80
4, 57845, Note_on_c, 2, 67, 80
4, 57845, Note_on_c, 2, 71, 80
4, 57960, Note_off_c, 2, 71, 64
4, 57960, Note_off_c, 2, 67, 64
4, 57960, Note_off_c, 2, 62, 64
4, 57965, Note_on_c, 2, 62, 49
4, 57965, Note_on_c, 2, 67, 78
4, 57965, Note_on_c, 2, 71, 70
4, 58075, Note_off_c, 2, 71, 64
4, 58075, Note_off_c, 2, 67, 64
4, 58075, Note_off_c, 2, 62, 64
4, 58080, Note_on_c, 2, 62, 47
4, 58085, Note_on_c, 2, 67, 80
4, 58085, Note_on_c, 2, 71, 72
4, 58200, Note_off_c, 2, 71, 64
4, 58200, Note_off_c, 2, 67, 64
4, 58200, Note_off_c, 2, 62, 64
4, 58205, Note_on_c, 2, 62, 56
4, 58205, Note_on_c, 2, 67, 75
4, 58205, Note_on_c, 2, 71, 72
4, 58320, Note_off_c, 2, 71, 64
4, 58320, Note_off_c, 2, 67, 64
4, 58320, Note_off_c, 2, 62, 64
4, 58325, Note_on_c, 2, 62, 64
4, 58325, Note_on_c, 2, 67, 75
4, 58325, Note_on_c, 2, 71, 70
4, 58395, Note_off_c, 2, 62, 64
4, 58400, Note_off_c, 2, 71, 64
4, 58405, Note_off_c, 2, 67, 64
4, 58565, Note_on_c, 2, 66, 80
4, 58565, Note_on_c, 2, 69, 80
4, 58565, Note_on_c, 2, 74, 80
4, 58650, Note_off_c, 2, 69, 64
4, 58655, Note_off_c, 2, 66, 64
4, 58685, Note_off_c, 2, 74, 64
4, 58915, Note_on_c, 2, 66, 80
4, 58915, Note_on_c, 2, 69, 80
4, 58915, Note_on_c, 2, 74, 80
4, 59025, Note_off_c, 2, 66, 64
4, 59030, Note_off_c, 2, 69, 64
4, 59035, Note_off_c, 2, 74, 64
4, 59275, Note_on_c, 2, 64, 75
4, 59275, Note_on_c, 2, 67, 80
4, 59275, Note_on_c, 2, 72, 80
4, 59280, Note_on_c, 2, 74, 80
4, 59390, Note_off_c, 2, 72, 64
4, 59390, Note_off_c, 2, 67, 64
4, 59390, Note_off_c, 2, 64, 64
4, 59395, Note_off_c, 2, 74, 64
4, 59400, Note_on_c, 2, 64, 70
4, 59400, Note_on_c, 2, 67, 80
4, 59400, Note_on_c, 2, 72, 78
4, 59400, Note_on_c, 2, 74, 65
4, 59480, Note_off_c, 2, 67, 64
4, 59480, Note_off_c, 2, 64, 64
4, 59485, Note_off_c, 2, 72, 64
4, 59490, Note_off_c, 2, 74, 64
4, 59750, Note_on_c, 2, 64, 80
4, 59750, Note_on_c, 2, 67, 80
4, 59750, Note_on_c, 2, 72, 80
4, 59865, Note_off_c, 2, 72, 64
4, 59865, Note_off_c, 2, 67, 64
4, 59865, Note_off_c, 2, 64, 64
4, 59870, Note_on_c, 2, 67, 78
4, 59870, Note_on_c, 2, 72, 78
4, 59875, Note_on_c, 2, 64, 47
4, 59920, Note_off_c, 2, 64, 64
4, 59925, Note_off_c, 2, 67, 64
4, 59945, Note_off_c, 2, 72, 64
4, 60230, Note_on_c, 2, 64, 65
4, 60230, Note_on_c, 2, 67, 80
4, 60230, Note_on_c, 2, 72, 72
4, 60340, Note_off_c, 2, 72, 64
4, 60340, Note_off_c, 2, 67, 64
4, 60340, Note_off_c, 2, 64, 64
4, 60345, Note_on_c, 2, 64, 45
4, 60345, Note_on_c, 2, 67, 65
4, 60345, Note_on_c, 2, 72, 64
4, 60346, Note_off_c, 2, 72, 64
4, 60346, Note_off_c, 2, 67, 64
4, 60346, Note_off_c, 2, 64, 64
4, 60715, Note_on_c, 2, 64, 70
4, 60715, Note_on_c, 2, 67, 80
4, 60715, Note_on_c, 2, 72, 69
4, 60830, Note_off_c, 2, 72, 64
4, 60830, Note_off_c, 2, 67, 64
4, 60830, Note_off_c, 2, 64, 64
4, 60835, Note_on_c, 2, 64, 64
4, 60835, Note_on_c, 2, 67, 80
4, 60835, Note_on_c, 2, 72, 66
4, 60836, Note_off_c, 2, 72, 64
4, 60836, Note_off_c, 2, 64, 64
4, 60900, Note_off_c, 2, 67, 64
4, 61200, Note_on_c, 2, 66, 80
4, 61200, Note_on_c, 2, 69, 80
4, 61200, Note_on_c, 2, 74, 80
4, 61315, Note_off_c, 2, 74, 64
4, 61315, Note_off_c, 2, 69, 64
4, 61315, Note_off_c, 2, 66, 64
4, 61320, Note_on_c, 2, 66, 80
4, 61320, Note_on_c, 2, 69, 80
4, 61320, Note_on_c, 2, 74, 72
4, 61390, Note_off_c, 2, 66, 64
4, 61395, Note_off_c, 2, 69, 64
4, 61405, Note_off_c, 2, 74, 64
4, 61685, Note_on_c, 2, 62, 75
4, 61685, Note_on_c, 2, 67, 80
4, 61685, Note_on_c, 2, 71, 80
4, 61800, Note_off_c, 2, 71, 64
4, 61800, Note_off_c, 2, 67, 64
4, 61800, Note_off_c, 2, 62, 64
4, 61810, Note_on_c, 2, 62, 57
4, 61810, Note_on_c, 2, 67, 75
4, 61810, Note_on_c, 2, 71, 70
4, 61925, Note_off_c, 2, 71, 64
4, 61925, Note_off_c, 2, 67, 64
4, 61925, Note_off_c, 2, 62, 64
4, 61935, Note_on_c, 2, 62, 39
4, 61935, Note_on_c, 2, 67, 75
4, 61935, Note_on_c, 2, 71, 64
4, 62050, Note_off_c, 2, 71, 64
4, 62050, Note_off_c, 2, 67, 64
4, 62050, Note_off_c, 2, 62, 64
4, 62055, Note_on_c, 2, 62, 35
4, 62055, Note_on_c, 2, 67, 66
4, 62055, Note_on_c, 2, 71, 57
4, 62056, Note_off_c, 2, 71, 64
4, 62170, Note_off_c, 2, 67, 64
4, 62170, Note_off_c, 2, 62, 64
4, 62175, Note_on_c, 2, 62, 42
4, 62175, Note_on_c, 2, 67, 66
4, 62175, Note_on_c, 2, 71, 59
4, 62285, Note_off_c, 2, 71, 64
4, 62285, Note_off_c, 2, 67, 64
4, 62285, Note_off_c, 2, 62, 64
4, 62290, Note_on_c, 2, 62, 53
4, 62290, Note_on_c, 2, 67, 78
4, 62290, Note_on_c, 2, 71, 66
4, 62291, Note_off_c, 2, 71, 64
4, 62291, Note_off_c, 2, 67, 64
4, 62291, Note_off_c, 2, 62, 64
4, 62635, Note_on_c, 2, 66, 80
4, 62635, Note_on_c, 2, 69, 80
4, 62635, Note_on_c, 2, 74, 80
4, 62750, Note_off_c, 2, 74, 64
4, 62750, Note_off_c, 2, 69, 64
4, 62750, Note_off_c, 2, 66, 64
4, 62760, Note_on_c, 2, 66, 78
4, 62760, Note_on_c, 2, 69, 70
4, 62760, Note_on_c, 2, 74, 69
4, 62830, Note_off_c, 2, 69, 64
4, 62835, Note_off_c, 2, 66, 64
4, 62860, Note_off_c, 2, 74, 64
4, 63120, Note_on_c, 2, 69, 78
4, 63125, Note_on_c, 2, 66, 78
4, 63125, Note_on_c, 2, 74, 75
4, 63235, Note_off_c, 2, 74, 64
4, 63235, Note_off_c, 2, 69, 64
4, 63240, Note_off_c, 2, 66, 64
4, 63240, Note_on_c, 2, 74, 62
4, 63241, Note_off_c, 2, 74, 64
4, 63245, Note_on_c, 2, 66, 80
4, 63245, Note_on_c, 2, 69, 78
4, 63330, Note_off_c, 2, 66, 64
4, 63335, Note_off_c, 2, 69, 64
4, 63600, Note_on_c, 2, 64, 69
4, 63600, Note_on_c, 2, 67, 80
4, 63600, Note_on_c, 2, 72, 80
4, 63715, Note_off_c, 2, 72, 64
4, 63715, Note_off_c, 2, 67, 64
4, 63715, Note_off_c, 2, 64, 64
4, 63720, Note_on_c, 2, 64, 53
4, 63720, Note_on_c, 2, 72, 57
4, 63725, Note_on_c, 2, 67, 80
4, 63805, Note_off_c, 2, 67, 64
4, 63805, Note_off_c, 2, 64, 64
4, 63820, Note_off_c, 2, 72, 64
4, 64085, Note_on_c, 2, 64, 70
4, 64085, Note_on_c, 2, 67, 80
4, 64085, Note_on_c, 2, 72, 75
4, 64200, Note_off_c, 2, 72, 64
4, 64200, Note_off_c, 2, 67, 64
4, 64200, Note_off_c, 2, 64, 64
4, 64210, Note_on_c, 2, 64, 57
4, 64210, Note_on_c, 2, 67, 80
4, 64210, Note_on_c, 2, 72, 66
4, 64290, Note_off_c, 2, 67, 64
4, 64290, Note_off_c, 2, 64, 64
4, 64310, Note_off_c, 2, 72, 64
4, 64560, Note_on_c, 2, 64, 72
4, 64560, Note_on_c, 2, 67, 80
4, 64560, Note_on_c, 2, 72, 75
4, 64675, Note_off_c, 2, 72, 64
4, 64675, Note_off_c, 2, 67, 64
4, 64675, Note_off_c, 2, 64, 64
4, 64680, Note_on_c, 2, 64, 50
4, 64680, Note_on_c, 2, 67, 78
4, 64680, Note_on_c, 2, 72, 62
4, 64745, Note_off_c, 2, 64, 64
4, 64765, Note_off_c, 2, 67, 64
4, 64770, Note_off_c, 2, 72, 64
4, 65045, Note_on_c, 2, 64, 72
4, 65045, Note_on_c, 2, 67, 80
4, 65045, Note_on_c, 2, 72, 75
4, 65160, Note_off_c, 2, 72, 64
4, 65160, Note_off_c, 2, 67, 64
4, 65160, Note_off_c, 2, 64, 64
4, 65165, Note_on_c, 2, 64, 50
4, 65165, Note_on_c, 2, 67, 78
4, 65165, Note_on_c, 2, 72, 62
4, 65230, Note_off_c, 2, 64, 64
4, 65250, Note_off_c, 2, 67, 64
4, 65255, Note_off_c, 2, 72, 64
4, 65525, Note_on_c, 2, 62, 80
4, 65525, Note_on_c, 2, 67, 80
4, 65525, Note_on_c, 2, 71, 80
4, 65640, Note_off_c, 2, 71, 64
4, 65640, Note_off_c, 2, 67, 64
4, 65640, Note_off_c, 2, 62, 64
4, 65645, Note_on_c, 2, 62, 49
4, 65645, Note_on_c, 2, 67, 78
4, 65645, Note_on_c, 2, 71, 70
4, 65755, Note_off_c, 2, 71, 64
4, 65755, Note_off_c, 2, 67, 64
4, 65755, Note_off_c, 2, 62, 64
4, 65760, Note_on_c, 2, 62, 47
4, 65765, Note_on_c, 2, 67, 80
4, 65765, Note_on_c, 2, 71, 72
4, 65880, Note_off_c, 2, 71, 64
4, 65880, Note_off_c, 2, 67, 64
4, 65880, Note_off_c, 2, 62, 64
4, 65885, Note_on_c, 2, 62, 56
4, 65885, Note_on_c, 2, 67, 75
4, 65885, Note_on_c, 2, 71, 72
4, 66000, Note_off_c, 2, 71, 64
4, 66000, Note_off_c, 2, 67, 64
4, 66000, Note_off_c, 2, 62, 64
4, 66005, Note_on_c, 2, 62, 64
4, 66005, Note_on_c, 2, 67, 75
4, 66005, Note_on_c, 2, 71, 70
4, 66075, Note_off_c, 2, 62, 64
4, 66080, Note_off_c, 2, 71, 64
4, 66085, Note_off_c, 2, 67, 64
4, 66245, Note_on_c, 2, 66, 80
4, 66245, Note_on_c, 2, 69, 80
4, 66245, Note_on_c, 2, 74, 80
4, 66330, Note_off_c, 2, 69, 64
4, 66335, Note_off_c, 2, 66, 64
4, 66365, Note_off_c, 2, 74, 64
4, 66595, Note_on_c, 2, 66, 80
4, 66595, Note_on_c, 2, 69, 80
4, 66595, Note_on_c, 2, 74, 80
4, 66705, Note_off_c, 2, 66, 64
4, 66710, Note_off_c, 2, 69, 64
4, 66715, Note_off_c, 2, 74, 64
4, 66955, Note_on_c, 2, 64, 75
4, 66955, Note_on_c, 2, 67, 80
4, 66955, Note_on_c, 2, 72, 80
4, 66960, Note_on_c, 2, 74, 80
4, 67070, Note_off_c, 2, 72, 64
4, 67070, Note_off_c, 2, 67, 64
4, 67070, Note_off_c, 2, 64, 64
4, 67075, Note_off_c, 2, 74, 64
4, 67080, Note_on_c, 2, 64, 70
4, 67080, Note_on_c, 2, 67, 80
4, 67080, Note_on_c, 2, 72, 78
4, 67080, Note_on_c, 2, 74, 65
4, 67160, Note_off_c, 2, 67, 64
4, 67160, Note_off_c, 2, 64, 64
4, 67165, Note_off_c, 2, 72, 64
4, 67170, Note_off_c, 2, 74, 64
4, 67430, Note_on_c, 2, 64, 80
4, 67430, Note_on_c, 2, 67, 80
4, 67430, Note_on_c, 2, 72, 80
4, 67545, Note_off_c, 2, 72, 64
4, 67545, Note_off_c, 2, 67, 64
4, 67545, Note_off_c, 2, 64, 64
4, 67550, Note_on_c, 2, 67, 78
4, 67550, Note_on_c, 2, 72, 78
4, 67555, Note_on_c, 2, 64, 47
4, 67600, Note_off_c, 2, 64, 64
4, 67605, Note_off_c, 2, 67, 64
4, 67625, Note_off_c, 2, 72, 64
4, 67910, Note_on_c, 2, 64, 65
4, 67910, Note_on_c, 2, 67, 80
4, 67910, Note_on_c, 2, 72, 72
4, 68020, Note_off_c, 2, 72, 64
4, 68020, Note_off_c, 2, 67, 64
4, 68020, Note_off_c, 2, 64, 64
4, 68025, Note_on_c, 2, 64, 45
4, 68025, Note_on_c, 2, 67, 65
4, 68025, Note_on_c, 2, 72, 64
4, 68026, Note_off_c, 2, 72, 64
4, 68026, Note_off_c, 2, 67, 64
4, 68026, Note_off_c, 2, 64, 64
4, 68395, Note_on_c, 2, 64, 70
4, 68395, Note_on_c, 2, 67, 80
4, 68395, Note_on_c, 2, 72, 69
4, 68510, Note_off_c, 2, 72, 64
4, 68510, Note_off_c, 2, 67, 64
4, 68510, Note_off_c, 2, 64, 64
4, 68515, Note_on_c, 2, 64, 64
4, 68515, Note_on_c, 2, 67, 80
4, 68515, Note_on_c, 2, 72, 66
4, 68516, Note_off_c, 2, 72, 64
4, 68516, Note_off_c, 2, 64, 64
4, 68580, Note_off_c, 2, 67, 64
4, 68880, Note_on_c, 2, 66, 80
4, 68880, Note_on_c, 2, 69, 80
4, 68880, Note_on_c, 2, 74, 80
4, 68995, Note_off_c, 2, 74, 64
4, 68995, Note_off_c, 2, 69, 64
4, 68995, Note_off_c, 2, 66, 64
4, 69000, Note_on_c, 2, 66, 80
4, 69000, Note_on_c, 2, 69, 80
4, 69000, Note_on_c, 2, 74, 72
4, 69070, Note_off_c, 2, 66, 64
4, 69075, Note_off_c, 2, 69, 64
4, 69085, Note_off_c, 2, 74, 64
4, 69365, Note_on_c, 2, 62, 75
4, 69365, Note_on_c, 2, 67, 80
4, 69365, Note_on_c, 2, 71, 80
4, 69480, Note_off_c, 2, 71, 64
4, 69480, Note_off_c, 2, 67, 64
4, 69480, Note_off_c, 2, 62, 64
4, 69490, Note_on_c, 2, 62, 57
4, 69490, Note_on_c, 2, 67, 75
4, 69490, Note_on_c, 2, 71, 70
4, 69605, Note_off_c, 2, 71, 64
4, 69605, Note_off_c, 2, 67, 64
4, 69605, Note_off_c, 2, 62, 64
4, 69615, Note_on_c, 2, 62, 39
4, 69615, Note_on_c, 2, 67, 75
4, 69615, Note_on_c, 2, 71, 64
4, 69730, Note_off_c, 2, 71, 64
4, 69730, Note_off_c, 2, 67, 64
4, 69730, Note_off_c, 2, 62, 64
4, 69735, Note_on_c, 2, 62, 35
4, 69735, Note_on_c, 2, 67, 66
4, 69735, Note_on_c, 2, 71, 57
4, 69736, Note_off_c, 2, 71, 64
4, 69850, Note_off_c, 2, 67, 64
4, 69850, Note_off_c, 2, 62, 64
4, 69855, Note_on_c, 2, 62, 42
4, 69855, Note_on_c, 2, 67, 66
4, 69855, Note_on_c, 2, 71, 59
4, 69965, Note_off_c, 2, 71, 64
4, 69965, Note_off_c, 2, 67, 64
4, 69965, Note_off_c, 2, 62, 64
4, 69970, Note_on_c, 2, 62, 53
4, 69970, Note_on_c, 2, 67, 78
4, 69970, Note_on_c, 2, 71, 66
4, 69971, Note_off_c, 2, 71, 64
4, 69971, Note_off_c, 2, 67, 64
4, 69971, Note_off_c, 2, 62, 64
4, 70315, Note_on_c, 2, 66, 80
4, 70315, Note_on_c, 2, 69, 80
4, 70315, Note_on_c, 2, 74, 80
4, 70430, Note_off_c, 2, 74, 64
4, 70430, Note_off_c, 2, 69, 64
4, 70430, Note_off_c, 2, 66, 64
4, 70440, Note_on_c, 2, 66, 78
4, 70440, Note_on_c, 2, 69, 70
4, 70440, Note_on_c, 2, 74, 69
4, 70510, Note_off_c, 2, 69, 64
4, 70515, Note_off_c, 2, 66, 64
4, 70540, Note_off_c, 2, 74, 64
4, 70800, Note_on_c, 2, 69, 78
4, 70805, Note_on_c, 2, 66, 78
4, 70805, Note_on_c, 2, 74, 75
4, 70915, Note_off_c, 2, 74, 64
4, 70915, Note_off_c, 2, 69, 64
4, 70920, Note_off_c, 2, 66, 64
4, 70920, Note_on_c, 2, 74, 62
4, 70921, Note_off_c, 2, 74, 64
4, 70925, Note_on_c, 2, 66, 80
4, 70925, Note_on_c, 2, 69, 78
4, 71010, Note_off_c, 2, 66, 64
4, 71015, Note_off_c, 2, 69, 64
4, 71280, Note_on_c, 2, 64, 69
4, 71280, Note_on_c, 2, 67, 80
4, 71280, Note_on_c, 2, 72, 80
4, 71395, Note_off_c, 2, 72, 64
4, 71395, Note_off_c, 2, 67, 64
4, 71395, Note_off_c, 2, 64, 64
4, 71400, Note_on_c, 2, 64, 53
4, 71400, Note_on_c, 2, 72, 57
4, 71405, Note_on_c, 2, 67, 80
4, 71485, Note_off_c, 2, 67, 64
4, 71485, Note_off_c, 2, 64, 64
4, 71500, Note_off_c, 2, 72, 64
4, 71765, Note_on_c, 2, 64, 70
4, 71765, Note_on_c, 2, 67, 80
4, 71765, Note_on_c, 2, 72, 75
4, 71880, Note_off_c, 2, 72, 64
4, 71880, Note_off_c, 2, 67, 64
4, 71880, Note_off_c, 2, 64, 64
4, 71890, Note_on_c, 2, 64, 57
4, 71890, Note_on_c, 2, 67, 80
4, 71890, Note_on_c, 2, 72, 66
4, 71970, Note_off_c, 2, 67, 64
4, 71970, Note_off_c, 2, 64, 64
4, 71990, Note_off_c, 2, 72, 64
4, 72240, Note_on_c, 2, 64, 72
4, 72240, Note_on_c, 2, 67, 80
4, 72240, Note_on_c, 2, 72, 75
4, 72355, Note_off_c, 2, 72, 64
4, 72355, Note_off_c, 2, 67, 64
4, 72355, Note_off_c, 2, 64, 64
4, 72360, Note_on_c, 2, 64, 50
4, 72360, Note_on_c, 2, 67, 78
4, 72360, Note_on_c, 2, 72, 62
4, 72425, Note_off_c, 2, 64, 64
4, 72445, Note_off_c, 2, 67, 64
4, 72450, Note_off_c, 2, 72, 64
4, 72725, Note_on_c, 2, 64, 72
4, 72725, Note_on_c, 2, 67, 80
4, 72725, Note_on_c, 2, 72, 75
4, 72840, Note_off_c, 2, 72, 64
4, 72840, Note_off_c, 2, 67, 64
4, 72840, Note_off_c, 2, 64, 64
4, 72845, Note_on_c, 2, 64, 50
4, 72845, Note_on_c, 2, 67, 78
4, 72845, Note_on_c, 2, 72, 62
4, 72910, Note_off_c, 2, 64, 64
4, 72930, Note_off_c, 2, 67, 64
4, 72935, Note_off_c, 2, 72, 64
4, 73205, Note_on_c, 2, 62, 80
4, 73205, Note_on_c, 2, 67, 80
4, 73205, Note_on_c, 2, 71, 80
4, 73320, Note_off_c, 2, 71, 64
4, 73320, Note_off_c, 2, 67, 64
4, 73320, Note_off_c, 2, 62, 64
4, 73325, Note_on_c, 2, 62, 49
4, 73325, Note_on_c, 2, 67, 78
4, 73325, Note_on_c, 2, 71, 70
4, 73435, Note_off_c, 2, 71, 64
4, 73435, Note_off_c, 2, 67, 64
4, 73435, Note_off_c, 2, 62, 64
4, 73440, Note_on_c, 2, 62, 47
4, 73445, Note_on_c, 2, 67, 80
4, 73445, Note_on_c, 2, 71, 72
4, 73560, Note_off_c, 2, 71, 64
4, 73560, Note_off_c, 2, 67, 64
4, 73560, Note_off_c, 2, 62, 64
4, 73565, Note_on_c, 2, 62, 56
4, 73565, Note_on_c, 2, 67, 75
4, 73565, Note_on_c, 2, 71, 72
4, 73680, Note_off_c, 2, 71, 64
4, 73680, Note_off_c, 2, 67, 64
4, 73680, Note_off_c, 2, 62, 64
4, 73685, Note_on_c, 2, 62, 64
4, 73685, Note_on_c, 2, 67, 75
4, 73685, Note_on_c, 2, 71, 70
4, 73755, Note_off_c, 2, 62, 64
4, 73760, Note_off_c, 2, 71, 64
4, 73765, Note_off_c, 2, 67, 64
4, 73925, Note_on_c, 2, 66, 80
4, 73925, Note_on_c, 2, 69, 80
4, 73925, Note_on_c, 2, 74, 80
4, 74010, Note_off_c, 2, 69, 64
4, 74015, Note_off_c, 2, 66, 64
4, 74045, Note_off_c, 2, 74, 64
4, 74275, Note_on_c, 2, 66, 80
4, 74275, Note_on_c, 2, 69, 80
4, 74275, Note_on_c, 2, 74, 80
4, 74385, Note_off_c, 2, 66, 64
4, 74390, Note_off_c, 2, 69, 64
4, 74395, Note_off_c, 2, 74, 64
4, 74635, Note_on_c, 2, 64, 80
4, 74635, Note_on_c, 2, 67, 80
4, 74635, Note_on_c, 2, 72, 80
4, 74760, Note_off_c, 2, 64, 64
4, 74765, Note_off_c, 2, 67, 64
4, 74770, Note_off_c, 2, 72, 64
4, 75115, Note_on_c, 2, 64, 75
4, 75115, Note_on_c, 2, 67, 80
4, 75115, Note_on_c, 2, 72, 80
4, 75230, Note_off_c, 2, 72, 64
4, 75230, Note_off_c, 2, 67, 64
4, 75230, Note_off_c, 2, 64, 64
4, 75235, Note_on_c, 2, 64, 64
4, 75235, Note_on_c, 2, 67, 80
4, 75235, Note_on_c, 2, 72, 69
4, 75355, Note_off_c, 2, 72, 64
4, 75355, Note_off_c, 2, 67, 64
4, 75355, Note_off_c, 2, 64, 64
4, 75360, Note_on_c, 2, 64, 52
4, 75360, Note_on_c, 2, 67, 75
4, 75360, Note_on_c, 2, 72, 65
4, 75475, Note_off_c, 2, 72, 64
4, 75475, Note_off_c, 2, 67, 64
4, 75475, Note_off_c, 2, 64, 64
4, 75480, Note_on_c, 2, 64, 59
4, 75480, Note_on_c, 2, 67, 80
4, 75480, Note_on_c, 2, 72, 72
4, 75595, Note_off_c, 2, 72, 64
4, 75595, Note_off_c, 2, 67, 64
4, 75595, Note_off_c, 2, 64, 64
4, 75600, Note_on_c, 2, 64, 66
4, 75600, Note_on_c, 2, 67, 80
4, 75600, Note_on_c, 2, 72, 72
4, 75720, Note_off_c, 2, 72, 64
4, 75720, Note_off_c, 2, 67, 64
4, 75720, Note_off_c, 2, 64, 64
4, 75850, Note_on_c, 2, 64, 80
4, 75850, Note_on_c, 2, 67, 80
4, 75850, Note_on_c, 2, 72, 80
4, 75955, Note_off_c, 2, 64, 64
4, 75965, Note_off_c, 2, 67, 64
4, 75980, Note_off_c, 2, 72, 64
4, 76310, Note_on_c, 2, 66, 80
4, 76310, Note_on_c, 2, 69, 80
4, 76310, Note_on_c, 2, 74, 80
4, 76455, Note_off_c, 2, 74, 64
4, 76470, Note_off_c, 2, 66, 64
4, 76475, Note_off_c, 2, 69, 64
4, 77050, Note_on_c, 2, 62, 78
4, 77050, Note_on_c, 2, 67, 80
4, 77050, Note_on_c, 2, 71, 80
4, 77165, Note_off_c, 2, 71, 64
4, 77165, Note_off_c, 2, 67, 64
4, 77165, Note_off_c, 2, 62, 64
4, 77170, Note_on_c, 2, 62, 50
4, 77170, Note_on_c, 2, 67, 78
4, 77170, Note_on_c, 2, 71, 66
4, 77280, Note_off_c, 2, 71, 64
4, 77280, Note_off_c, 2, 67, 64
4, 77280, Note_off_c, 2, 62, 64
4, 77285, Note_on_c, 2, 62, 52
4, 77285, Note_on_c, 2, 67, 72
4, 77285, Note_on_c, 2, 71, 65
4, 77395, Note_off_c, 2, 71, 64
4, 77395, Note_off_c, 2, 67, 64
4, 77395, Note_off_c, 2, 62, 64
4, 77400, Note_on_c, 2, 62, 42
4, 77400, Note_on_c, 2, 67, 70
4, 77400, Note_on_c, 2, 71, 65
4, 77401, Note_off_c, 2, 62, 64
4, 77515, Note_off_c, 2, 67, 64
4, 77515, Note_off_c, 2, 71, 64
4, 77520, Note_on_c, 2, 62, 56
4, 77520, Note_on_c, 2, 67, 72
4, 77520, Note_on_c, 2, 71, 64
4, 77640, Note_off_c, 2, 71, 64
4, 77640, Note_off_c, 2, 67, 64
4, 77640, Note_off_c, 2, 62, 64
4, 77760, Note_on_c, 2, 66, 80
4, 77760, Note_on_c, 2, 69, 80
4, 77760, Note_on_c, 2, 74, 80
4, 77850, Note_off_c, 2, 69, 64
4, 77850, Note_off_c, 2, 66, 64
4, 77875, Note_off_c, 2, 74, 64
4, 78120, Note_on_c, 2, 66, 80
4, 78120, Note_on_c, 2, 69, 80
4, 78120, Note_on_c, 2, 74, 80
4, 78220, Note_off_c, 2, 69, 64
4, 78220, Note_off_c, 2, 66, 64
4, 78235, Note_off_c, 2, 74, 64
4, 78480, Note_on_c, 2, 64, 80
4, 78480, Note_on_c, 2, 67, 80
4, 78480, Note_on_c, 2, 72, 80
4, 78610, Note_off_c, 2, 67, 64
4, 78610, Note_off_c, 2, 64, 64
4, 78615, Note_off_c, 2, 72, 64
4, 78955, Note_on_c, 2, 64, 80
4, 78955, Note_on_c, 2, 67, 80
4, 78955, Note_on_c, 2, 72, 80
4, 79070, Note_off_c, 2, 72, 64
4, 79070, Note_off_c, 2, 67, 64
4, 79070, Note_off_c, 2, 64, 64
4, 79075, Note_on_c, 2, 64, 59
4, 79075, Note_on_c, 2, 67, 80
4, 79075, Note_on_c, 2, 72, 65
4, 79190, Note_off_c, 2, 72, 64
4, 79190, Note_off_c, 2, 67, 64
4, 79190, Note_off_c, 2, 64, 64
4, 79195, Note_on_c, 2, 64, 52
4, 79195, Note_on_c, 2, 67, 75
4, 79195, Note_on_c, 2, 72, 70
4, 79310, Note_off_c, 2, 72, 64
4, 79310, Note_off_c, 2, 67, 64
4, 79310, Note_off_c, 2, 64, 64
4, 79315, Note_on_c, 2, 72, 55
4, 79320, Note_on_c, 2, 64, 42
4, 79320, Note_on_c, 2, 67, 75
4, 79435, Note_off_c, 2, 67, 64
4, 79435, Note_off_c, 2, 64, 64
4, 79435, Note_off_c, 2, 72, 64
4, 79440, Note_on_c, 2, 64, 66
4, 79440, Note_on_c, 2, 67, 80
4, 79440, Note_on_c, 2, 72, 75
4, 79441, Note_off_c, 2, 72, 64
4, 79560, Note_off_c, 2, 67, 64
4, 79560, Note_off_c, 2, 64, 64
4, 79685, Note_on_c, 2, 64, 80
4, 79685, Note_on_c, 2, 67, 80
4, 79685, Note_on_c, 2, 72, 80
4, 79800, Note_off_c, 2, 64, 64
4, 79805, Note_off_c, 2, 67, 64
4, 79815, Note_off_c, 2, 72, 64
4, 80165, Note_on_c, 2, 64, 80
4, 80165, Note_on_c, 2, 67, 80
4, 80165, Note_on_c, 2, 72, 80
4, 80280, Note_off_c, 2, 67, 64
4, 80280, Note_off_c, 2, 64, 64
4, 80290, Note_off_c, 2, 72, 64
4, 80885, Note_on_c, 2, 62, 80
4, 80885, Note_on_c, 2, 67, 80
4, 80885, Note_on_c, 2, 71, 80
4, 81000, Note_off_c, 2, 71, 64
4, 81000, Note_off_c, 2, 67, 64
4, 81000, Note_off_c, 2, 62, 64
4, 81005, Note_on_c, 2, 62, 49
4, 81005, Note_on_c, 2, 67, 78
4, 81005, Note_on_c, 2, 71, 70
4, 81115, Note_off_c, 2, 71, 64
4, 81115, Note_off_c, 2, 67, 64
4, 81115, Note_off_c, 2, 62, 64
4, 81120, Note_on_c, 2, 62, 47
4, 81125, Note_on_c, 2, 67, 80
4, 81125, Note_on_c, 2, 71, 72
4, 81240, Note_off_c, 2, 71, 64
4, 81240, Note_off_c, 2, 67, 64
4, 81240, Note_off_c, 2, 62, 64
4, 81245, Note_on_c, 2, 62, 56
4, 81245, Note_on_c, 2, 67, 75
4, 81245, Note_on_c, 2, 71, 72
4, 81360, Note_off_c, 2, 71, 64
4, 81360, Note_off_c, 2, 67, 64
4, 81360, Note_off_c, 2, 62, 64
4, 81365, Note_on_c, 2, 62, 64
4, 81365, Note_on_c, 2, 67, 75
4, 81365, Note_on_c, 2, 71, 70
4, 81435, Note_off_c, 2, 62, 64
4, 81440, Note_off_c, 2, 71, 64
4, 81445, Note_off_c, 2, 67, 64
4, 81605, Note_on_c, 2, 66, 80
4, 81605, Note_on_c, 2, 69, 80
4, 81605, Note_on_c, 2, 74, 80
4, 81690, Note_off_c, 2, 69, 64
4, 81695, Note_off_c, 2, 66, 64
4, 81725, Note_off_c, 2, 74, 64
4, 81955, Note_on_c, 2, 66, 80
4, 81955, Note_on_c, 2, 69, 80
4, 81955, Note_on_c, 2, 74, 80
4, 82065, Note_off_c, 2, 66, 64
4, 82070, Note_off_c, 2, 69, 64
4, 82075, Note_off_c, 2, 74, 64
4, 82315, Note_on_c, 2, 64, 80
4, 82315, Note_on_c, 2, 67, 80
4, 82315, Note_on_c, 2, 72, 80
4, 82440, Note_off_c, 2, 64, 64
4, 82445, Note_off_c, 2, 67, 64
4, 82450, Note_off_c, 2, 72, 64
4, 82795, Note_on_c, 2, 64, 75
4, 82795, Note_on_c, 2, 67, 80
4, 82795, Note_on_c, 2, 72, 80
4, 82910, Note_off_c, 2, 72, 64
4, 82910, Note_off_c, 2, 67, 64
4, 82910, Note_off_c, 2, 64, 64
4, 82915, Note_on_c, 2, 64, 64
4, 82915, Note_on_c, 2, 67, 80
4, 82915, Note_on_c, 2, 72, 69
4, 83035, Note_off_c, 2, 72, 64
4, 83035, Note_off_c, 2, 67, 64
4, 83035, Note_off_c, 2, 64, 64
4, 83040, Note_on_c, 2, 64, 52
4, 83040, Note_on_c, 2, 67, 75
4, 83040, Note_on_c, 2, 72, 65
4, 83155, Note_off_c, 2, 72, 64
4, 83155, Note_off_c, 2, 67, 64
4, 83155, Note_off_c, 2, 64, 64
4, 83160, Note_on_c, 2, 64, 59
4, 83160, Note_on_c, 2, 67, 80
4, 83160, Note_on_c, 2, 72, 72
4, 83275, Note_off_c, 2, 72, 64
4, 83275, Note_off_c, 2, 67, 64
4, 83275, Note_off_c, 2, 64, 64
4, 83280, Note_on_c, 2, 64, 66
4, 83280, Note_on_c, 2, 67, 80
4, 83280, Note_on_c, 2, 72, 72
4, 83400, Note_off_c, 2, 72, 64
4, 83400, Note_off_c, 2, 67, 64
4, 83400, Note_off_c, 2, 64, 64
4, 83530, Note_on_c, 2, 64, 80
4, 83530, Note_on_c, 2, 67, 80
4, 83530, Note_on_c, 2, 72, 80
4, 83635, Note_off_c, 2, 64, 64
4, 83645, Note_off_c, 2, 67, 64
4, 83660, Note_off_c, 2, 72, 64
4, 83990, Note_on_c, 2, 66, 80
4, 83990, Note_on_c, 2, 69, 80
4, 83990, Note_on_c, 2, 74, 80
4, 84135, Note_off_c, 2, 74, 64
4, 84150, Note_off_c, 2, 66, 64
4, 84155, Note_off_c, 2, 69, 64
4, 84730, Note_on_c, 2, 62, 78
4, 84730, Note_on_c, 2, 67, 80
4, 84730, Note_on_c, 2, 71, 80
4, 84845, Note_off_c, 2, 71, 64
4, 84845, Note_off_c, 2, 67, 64
4, 84845, Note_off_c, 2, 62, 64
4, 84850, Note_on_c, 2, 62, 50
4, 84850, Note_on_c, 2, 67, 78
4, 84850, Note_on_c, 2, 71, 66
4, 84960, Note_off_c, 2, 71, 64
4, 84960, Note_off_c, 2, 67, 64
4, 84960, Note_off_c, 2, 62, 64
4, 84965, Note_on_c, 2, 62, 52
4, 84965, Note_on_c, 2, 67, 72
4, 84965, Note_on_c, 2, 71, 65
4, 85075, Note_off_c, 2, 71, 64
4, 85075, Note_off_c, 2, 67, 64
4, 85075, Note_off_c, 2, 62, 64
4, 85080, Note_on_c, 2, 62, 42
4, 85080, Note_on_c, 2, 67, 70
4, 85080, Note_on_c, 2, 71, 65
4, 85081, Note_off_c, 2, 62, 64
4, 85195, Note_off_c, 2, 67, 64
4, 85195, Note_off_c, 2, 71, 64
4, 85200, Note_on_c, 2, 62, 56
4, 85200, Note_on_c, 2, 67, 72
4, 85200, Note_on_c, 2, 71, 64
4, 85320, Note_off_c, 2, 71, 64
4, 85320, Note_off_c, 2, 67, 64
4, 85320, Note_off_c, 2, 62, 64
4, 85440, Note_on_c, 2, 66, 80
4, 85440, Note_on_c, 2, 69, 80
4, 85440, Note_on_c, 2, 74, 80
4, 85530, Note_off_c, 2, 69, 64
4, 85530, Note_off_c, 2, 66, 64
4, 85555, Note_off_c, 2, 74, 64
4, 85800, Note_on_c, 2, 66, 80
4, 85800, Note_on_c, 2, 69, 80
4, 85800, Note_on_c, 2, 74, 80
4, 85900, Note_off_c, 2, 69, 64
4, 85900, Note_off_c, 2, 66, 64
4, 85915, Note_off_c, 2, 74, 64
4, 86160, Note_on_c, 2, 64, 80
4, 86160, Note_on_c, 2, 67, 80
4, 86160, Note_on_c, 2, 72, 80
4, 86290, Note_off_c, 2, 67, 64
4, 86290, Note_off_c, 2, 64, 64
4, 86295, Note_off_c, 2, 72, 64
4, 86635, Note_on_c, 2, 64, 80
4, 86635, Note_on_c, 2, 67, 80
4, 86635, Note_on_c, 2, 72, 80
4, 86750, Note_off_c, 2, 72, 64
4, 86750, Note_off_c, 2, 67, 64
4, 86750, Note_off_c, 2, 64, 64
4, 86755, Note_on_c, 2, 64, 59
4, 86755, Note_on_c, 2, 67, 80
4, 86755, Note_on_c, 2, 72, 65
4, 86870, Note_off_c, 2, 72, 64
4, 86870, Note_off_c, 2, 67, 64
4, 86870, Note_off_c, 2, 64, 64
4, 86875, Note_on_c, 2, 64, 52
4, 86875, Note_on_c, 2, 67, 75
4, 86875, Note_on_c, 2, 72, 70
4, 86990, Note_off_c, 2, 72, 64
4, 86990, Note_off_c, 2, 67, 64
4, 86990, Note_off_c, 2, 64, 64
4, 86995, Note_on_c, 2, 72, 55
4, 87000, Note_on_c, 2, 64, 42
4, 87000, Note_on_c, 2, 67, 75
4, 87115, Note_off_c, 2, 67, 64
4, 87115, Note_off_c, 2, 64, 64
4, 87115, Note_off_c, 2, 72, 64
4, 87120, Note_on_c, 2, 64, 66
4, 87120, Note_on_c, 2, 67, 80
4, 87120, Note_on_c, 2, 72, 75
4, 87121, Note_off_c, 2, 72, 64
4, 87240, Note_off_c, 2, 67, 64
4, 87240, Note_off_c, 2, 64, 64
4, 87365, Note_on_c, 2, 64, 80
4, 87365, Note_on_c, 2, 67, 80
4, 87365, Note_on_c, 2, 72, 80
4, 87480, Note_off_c, 2, 64, 64
4, 87485, Note_off_c, 2, 67, 64
4, 87495, Note_off_c, 2, 72, 64
4, 87845, Note_on_c, 2, 64, 80
4, 87845, Note_on_c, 2, 67, 80
4, 87845, Note_on_c, 2, 72, 80
4, 87960, Note_off_c, 2, 67, 64
4, 87960, Note_off_c, 2, 64, 64
4, 87970, Note_off_c, 2, 72, 64
4, 88565, Note_on_c, 2, 62, 80
4, 88565, Note_on_c, 2, 67, 80
4, 88565, Note_on_c, 2, 71, 80
4, 88680, Note_off_c, 2, 71, 64
4, 88680, Note_off_c, 2, 67, 64
4, 88680, Note_off_c, 2, 62, 64
4, 88685, Note_on_c, 2, 62, 49
4, 88685, Note_on_c, 2, 67, 78
4, 88685, Note_on_c, 2, 71, 70
4, 88795, Note_off_c, 2, 71, 64
4, 88795, Note_off_c, 2, 67, 64
4, 88795, Note_off_c, 2, 62, 64
4, 88800, Note_on_c, 2, 62, 47
4, 88805, Note_on_c, 2, 67, 80
4, 88805, Note_on_c, 2, 71, 72
4, 88920, Note_off_c, 2, 71, 64
4, 88920, Note_off_c, 2, 67, 64
4, 88920, Note_off_c, 2, 62, 64
4, 88925, Note_on_c, 2, 62, 56
4, 88925, Note_on_c, 2, 67, 75
4, 88925, Note_on_c, 2, 71, 72
4, 89040, Note_off_c, 2, 71, 64
4, 89040, Note_off_c, 2, 67, 64
4, 89040, Note_off_c, 2, 62, 64
4, 89045, Note_on_c, 2, 62, 64
4, 89045, Note_on_c, 2, 67, 75
4, 89045, Note_on_c, 2, 71, 70
4, 89115, Note_off_c, 2, 62, 64
4, 89120, Note_off_c, 2, 71, 64
4, 89125, Note_off_c, 2, 67, 64
4, 89285, Note_on_c, 2, 66, 80
4, 89285, Note_on_c, 2, 69, 80
4, 89285, Note_on_c, 2, 74, 80
4, 89370, Note_off_c, 2, 69, 64
4, 89375, Note_off_c, 2, 66, 64
4, 89405, Note_off_c, 2, 74, 64
4, 89635, Note_on_c, 2, 66, 80
4, 89635, Note_on_c, 2, 69, 80
4, 89635, Note_on_c, 2, 74, 80
4, 89745, Note_off_c, 2, 66, 64
4, 89750, Note_off_c, 2, 69, 64
4, 89755, Note_off_c, 2, 74, 64
4, 89995, Note_on_c, 2, 64, 80
4, 89995, Note_on_c, 2, 67, 80
4, 89995, Note_on_c, 2, 72, 80
4, 90120, Note_off_c, 2, 64, 64
4, 90125, Note_off_c, 2, 67, 64
4, 90130, Note_off_c, 2, 72, 64
4, 90475, Note_on_c, 2, 64, 75
4, 90475, Note_on_c, 2, 67, 80
4, 90475, Note_on_c, 2, 72, 80
4, 90590, Note_off_c, 2, 72, 64
4, 90590, Note_off_c, 2, 67, 64
4, 90590, Note_off_c, 2, 64, 64
4, 90595, Note_on_c, 2, 64, 64
4, 90595, Note_on_c, 2, 67, 80
4, 90595, Note_on_c, 2, 72, 69
4, 90715, Note_off_c, 2, 72, 64
4, 90715, Note_off_c, 2, 67, 64
4, 90715, Note_off_c, 2, 64, 64
4, 90720, Note_on_c, 2, 64, 52
4, 90720, Note_on_c, 2, 67, 75
4, 90720, Note_on_c, 2, 72, 65
4, 90835, Note_off_c, 2, 72, 64
4, 90835, Note_off_c, 2, 67, 64
4, 90835, Note_off_c, 2, 64, 64
4, 90840, Note_on_c, 2, 64, 59
4, 90840, Note_on_c, 2, 67, 80
4, 90840, Note_on_c, 2, 72, 72
4, 90955, Note_off_c, 2, 72, 64
4, 90955, Note_off_c, 2, 67, 64
4, 90955, Note_off_c, 2, 64, 64
4, 90960, Note_on_c, 2, 64, 66
4, 90960, Note_on_c, 2, 67, 80
4, 90960, Note_on_c, 2, 72, 72
4, 91080, Note_off_c, 2, 72, 64
4, 91080, Note_off_c, 2, 67, 64
4, 91080, Note_off_c, 2, 64, 64
4, 91210, Note_on_c, 2, 64, 80
4, 91210, Note_on_c, 2, 67, 80
4, 91210, Note_on_c, 2, 72, 80
4, 91315, Note_off_c, 2, 64, 64
4, 91325, Note_off_c, 2, 67, 64
4, 91340, Note_off_c, 2, 72, 64
4, 91670, Note_on_c, 2, 66, 80
4, 91670, Note_on_c, 2, 69, 80
4, 91670, Note_on_c, 2, 74, 80
4, 91815, Note_off_c, 2, 74, 64
4, 91830, Note_off_c, 2, 66, 64
4, 91835, Note_off_c, 2, 69, 64
4, 92410, Note_on_c, 2, 62, 78
4, 92410, Note_on_c, 2, 67, 80
4, 92410, Note_on_c, 2, 71, 80
4, 92525, Note_off_c, 2, 71, 64
4, 92525, Note_off_c, 2, 67, 64
4, 92525, Note_off_c, 2, 62, 64
4, 92530, Note_on_c, 2, 62, 50
4, 92530, Note_on_c, 2, 67, 78
4, 92530, Note_on_c, 2, 71, 66
4, 92640, Note_off_c, 2, 71, 64
4, 92640, Note_off_c, 2, 67, 64
4, 92640, Note_off_c, 2, 62, 64
4, 92645, Note_on_c, 2, 62, 52
4, 92645, Note_on_c, 2, 67, 72
4, 92645, Note_on_c, 2, 71, 65
4, 92755, Note_off_c, 2, 71, 64
4, 92755, Note_off_c, 2, 67, 64
4, 92755, Note_off_c, 2, 62, 64
4, 92760, Note_on_c, 2, 62, 42
4, 92760, Note_on_c, 2, 67, 70
4, 92760, Note_on_c, 2, 71, 65
4, 92761, Note_off_c, 2, 62, 64
4, 92875, Note_off_c, 2, 67, 64
4, 92875, Note_off_c, 2, 71, 64
4, 92880, Note_on_c, 2, 62, 56
4, 92880, Note_on_c, 2, 67, 72
4, 92880, Note_on_c, 2, 71, 64
4, 93000, Note_off_c, 2, 71, 64
4, 93000, Note_off_c, 2, 67, 64
4, 93000, Note_off_c, 2, 62, 64
4, 93120, Note_on_c, 2, 66, 80
4, 93120, Note_on_c, 2, 69, 80
4, 93120, Note_on_c, 2, 74, 80
4, 93210, Note_off_c, 2, 69, 64
4, 93210, Note_off_c, 2, 66, 64
4, 93235, Note_off_c, 2, 74, 64
4, 93480, Note_on_c, 2, 66, 80
4, 93480, Note_on_c, 2, 69, 80
4, 93480, Note_on_c, 2, 74, 80
4, 93580, Note_off_c, 2, 69, 64
4, 93580, Note_off_c, 2, 66, 64
4, 93595, Note_off_c, 2, 74, 64
4, 93840, Note_on_c, 2, 64, 80
4, 93840, Note_on_c, 2, 67, 80
4, 93840, Note_on_c, 2, 72, 80
4, 93970, Note_off_c, 2, 67, 64
4, 93970, Note_off_c, 2, 64, 64
4, 93975, Note_off_c, 2, 72, 64
4, 94315, Note_on_c, 2, 64, 80
4, 94315, Note_on_c, 2, 67, 80
4, 94315, Note_on_c, 2, 72, 80
4, 94430, Note_off_c, 2, 72, 64
4, 94430, Note_off_c, 2, 67, 64
4, 94430, Note_off_c, 2, 64, 64
4, 94435, Note_on_c, 2, 64, 59
4, 94435, Note_on_c, 2, 67, 80
4, 94435, Note_on_c, 2, 72, 65
4, 94550, Note_off_c, 2, 72, 64
4, 94550, Note_off_c, 2, 67, 64
4, 94550, Note_off_c, 2, 64, 64
4, 94555, Note_on_c, 2, 64, 52
4, 94555, Note_on_c, 2, 67, 75
4, 94555, Note_on_c, 2, 72, 70
4, 94670, Note_off_c, 2, 72, 64
4, 94670, Note_off_c, 2, 67, 64
4, 94670, Note_off_c, 2, 64, 64
4, 94675, Note_on_c, 2, 72, 55
4, 94680, Note_on_c, 2, 64, 42
4, 94680, Note_on_c, 2, 67, 75
4, 94795, Note_off_c, 2, 67, 64
4, 94795, Note_off_c, 2, 64, 64
4, 94795, Note_off_c, 2, 72, 64
4, 94800, Note_on_c, 2, 64, 66
4, 94800, Note_on_c, 2, 67, 80
4, 94800, Note_on_c, 2, 72, 75
4, 94801, Note_off_c, 2, 72, 64
4, 94920, Note_off_c, 2, 67, 64
4, 94920, Note_off_c, 2, 64, 64
4, 95045, Note_on_c, 2, 64, 80
4, 95045, Note_on_c, 2, 67, 80
4, 95045, Note_on_c, 2, 72, 80
4, 95160, Note_off_c, 2, 64, 64
4, 95165, Note_off_c, 2, 67, 64
4, 95175, Note_off_c, 2, 72, 64
4, 95525, Note_on_c, 2, 64, 80
4, 95525, Note_on_c, 2, 67, 80
4, 95525, Note_on_c, 2, 72, 80
4, 95640, Note_off_c, 2, 67, 64
4, 95640, Note_off_c, 2, 64, 64
4, 95650, Note_off_c, 2, 72, 64
4, 96245, Note_on_c, 2, 62, 80
4, 96245, Note_on_c, 2, 67, 80
4, 96245, Note_on_c, 2, 71, 80
4, 96360, Note_off_c, 2, 71, 64
4, 96360, Note_off_c, 2, 67, 64
4, 96360, Note_off_c, 2, 62, 64
4, 96365, Note_on_c, 2, 62, 49
4, 96365, Note_on_c, 2, 67, 78
4, 96365, Note_on_c, 2, 71, 70
4, 96475, Note_off_c, 2, 71, 64
4, 96475, Note_off_c, 2, 67, 64
4, 96475, Note_off_c, 2, 62, 64
4, 96480, Note_on_c, 2, 62, 47
4, 96485, Note_on_c, 2, 67, 80
4, 96485, Note_on_c, 2, 71, 72
4, 96600, Note_off_c, 2, 71, 64
4, 96600, Note_off_c, 2, 67, 64
4, 96600, Note_off_c, 2, 62, 64
4, 96605, Note_on_c, 2, 62, 56
4, 96605, Note_on_c, 2, 67, 75
4, 96605, Note_on_c, 2, 71, 72
4, 96720, Note_off_c, 2, 71, 64
4, 96720, Note_off_c, 2, 67, 64
4, 96720, Note_off_c, 2, 62, 64
4, 96725, Note_on_c, 2, 62, 64
4, 96725, Note_on_c, 2, 67, 75
4, 96725, Note_on_c, 2, 71, 70
4, 96795, Note_off_c, 2, 62, 64
4, 96800, Note_off_c, 2, 71, 64
4, 96805, Note_off_c, 2, 67, 64
4, 96965, Note_on_c, 2, 66, 80
4, 96965, Note_on_c, 2, 69, 80
4, 96965, Note_on_c, 2, 74, 80
4, 97050, Note_off_c, 2, 69, 64
4, 97055, Note_off_c, 2, 66, 64
4, 97085, Note_off_c, 2, 74, 64
4, 97315, Note_on_c, 2, 66, 80
4, 97315, Note_on_c, 2, 69, 80
4, 97315, Note_on_c, 2, 74, 80
4, 97425, Note_off_c, 2, 66, 64
4, 97430, Note_off_c, 2, 69, 64
4, 97435, Note_off_c, 2, 74, 64
4, 97675, Note_on_c, 2, 64, 80
4, 97675, Note_on_c, 2, 67, 80
4, 97675, Note_on_c, 2, 72, 80
4, 97800, Note_off_c, 2, 64, 64
4, 97805, Note_off_c, 2, 67, 64
4, 97810, Note_off_c, 2, 72, 64
4, 98155, Note_on_c, 2, 64, 75
4, 98155, Note_on_c, 2, 67, 80
4, 98155, Note_on_c, 2, 72, 80
4, 98270, Note_off_c, 2, 72, 64
4, 98270, Note_off_c, 2, 67, 64
4, 98270, Note_off_c, 2, 64, 64
4, 98275, Note_on_c, 2, 64, 64
4, 98275, Note_on_c, 2, 67, 80
4, 98275, Note_on_c, 2, 72, 69
4, 98395, Note_off_c, 2, 72, 64
4, 98395, Note_off_c, 2, 67, 64
4, 98395, Note_off_c, 2, 64, 64
4, 98400, Note_on_c, 2, 64, 52
4, 98400, Note_on_c, 2, 67, 75
4, 98400, Note_on_c, 2, 72, 65
4, 98515, Note_off_c, 2, 72, 64
4, 98515, Note_off_c, 2, 67, 64
4, 98515, Note_off_c, 2, 64, 64
4, 98520, Note_on_c, 2, 64, 59
4, 98520, Note_on_c, 2, 67, 80
4, 98520, Note_on_c, 2, 72, 72
4, 98635, Note_off_c, 2, 72, 64
4, 98635, Note_off_c, 2, 67, 64
4, 98635, Note_off_c, 2, 64, 64
4, 98640, Note_on_c, 2, 64, 66
4, 98640, Note_on_c, 2, 67, 80
4, 98640, Note_on_c, 2, 72, 72
4, 98760, Note_off_c, 2, 72, 64
4, 98760, Note_off_c, 2, 67, 64
4, 98760, Note_off_c, 2, 64, 64
4, 98890, Note_on_c, 2, 64, 80
4, 98890, Note_on_c, 2, 67, 80
4, 98890, Note_on_c, 2, 72, 80
4, 98995, Note_off_c, 2, 64, 64
4, 99005, Note_off_c, 2, 67, 64
4, 99020, Note_off_c, 2, 72, 64
4, 99350, Note_on_c, 2, 66, 80
4, 99350, Note_on_c, 2, 69, 80
4, 99350, Note_on_c, 2, 74, 80
4, 99495, Note_off_c, 2, 74, 64
4, 99510, Note_off_c, 2, 66, 64
4, 99515, Note_off_c, 2, 69, 64
4, 100090, Note_on_c, 2, 62, 78
4, 100090, Note_on_c, 2, 67, 80
4, 100090, Note_on_c, 2, 71, 80
4, 100205, Note_off_c, 2, 71, 64
4, 100205, Note_off_c, 2, 67, 64
4, 100205, Note_off_c, 2, 62, 64
4, 100210, Note_on_c, 2, 62, 50
4, 100210, Note_on_c, 2, 67, 78
4, 100210, Note_on_c, 2, 71, 66
4, 100320, Note_off_c, 2, 71, 64
4, 100320, Note_off_c, 2, 67, 64
4, 100320, Note_off_c, 2, 62, 64
4, 100325, Note_on_c, 2, 62, 52
4, 100325, Note_on_c, 2, 67, 72
4, 100325, Note_on_c, 2, 71, 65
4, 100435, Note_off_c, 2, 71, 64
4, 100435, Note_off_c, 2, 67, 64
4, 100435, Note_off_c, 2, 62, 64
4, 100440, Note_on_c, 2, 62, 42
4, 100440, Note_on_c, 2, 67, 70
4, 100440, Note_on_c, 2, 71, 65
4, 100441, Note_off_c, 2, 62, 64
4, 100555, Note_off_c, 2, 67, 64
4, 100555, Note_off_c, 2, 71, 64
4, 100560, Note_on_c, 2, 62, 56
4, 100560, Note_on_c, 2, 67, 72
4, 100560, Note_on_c, 2, 71, 64
4, 100680, Note_off_c, 2, 71, 64
4, 100680, Note_off_c, 2, 67, 64
4, 100680, Note_off_c, 2, 62, 64
4, 100800, Note_on_c, 2, 66, 80
4, 100800, Note_on_c, 2, 69, 80
4, 100800, Note_on_c, 2, 74, 80
4, 100890, Note_off_c, 2, 69, 64
4, 100890, Note_off_c, 2, 66, 64
4, 100915, Note_off_c, 2, 74, 64
4, 101160, Note_on_c, 2, 66, 80
4, 101160, Note_on_c, 2, 69, 80
4, 101160, Note_on_c, 2, 74, 80
4, 101260, Note_off_c, 2, 69, 64
4, 101260, Note_off_c, 2, 66, 64
4, 101275, Note_off_c, 2, 74, 64
4, 101520, Note_on_c, 2, 64, 80
4, 101520, Note_on_c, 2, 67, 80
4, 101520, Note_on_c, 2, 72, 80
4, 101650, Note_off_c, 2, 67, 64
4, 101650, Note_off_c, 2, 64, 64
4, 101655, Note_off_c, 2, 72, 64
4, 101995, Note_on_c, 2, 64, 80
4, 101995, Note_on_c, 2, 67, 80
4, 101995, Note_on_c, 2, 72, 80
4, 102110, Note_off_c, 2, 72, 64
4, 102110, Note_off_c, 2, 67, 64
4, 102110, Note_off_c, 2, 64, 64
4, 102115, Note_on_c, 2, 64, 59
4, 102115, Note_on_c, 2, 67, 80
4, 102115, Note_on_c, 2, 72, 65
4, 102230, Note_off_c, 2, 72, 64
4, 102230, Note_off_c, 2, 67, 64
4, 102230, Note_off_c, 2, 64, 64
4, 102235, Note_on_c, 2, 64, 52
4, 102235, Note_on_c, 2, 67, 75
4, 102235, Note_on_c, 2, 72, 70
4, 102350, Note_off_c, 2, 72, 64
4, 102350, Note_off_c, 2, 67, 64
4, 102350, Note_off_c, 2, 64, 64
4, 102355, Note_on_c, 2, 72, 55
4, 102360, Note_on_c, 2, 64, 42
4, 102360, Note_on_c, 2, 67, 75
4, 102475, Note_off_c, 2, 67, 64
4, 102475, Note_off_c, 2, 64, 64
4, 102475, Note_off_c, 2, 72, 64
4, 102480, Note_on_c, 2, 64, 66
4, 102480, Note_on_c, 2, 67, 80
4, 102480, Note_on_c, 2, 72, 75
4, 102481, Note_off_c, 2, 72, 64
4, 102600, Note_off_c, 2, 67, 64
4, 102600, Note_off_c, 2, 64, 64
4, 102725, Note_on_c, 2, 64, 80
4, 102725, Note_on_c, 2, 67, 80
4, 102725, Note_on_c, 2, 72, 80
4, 102840, Note_off_c, 2, 64, 64
4, 102845, Note_off_c, 2, 67, 64
4, 102855, Note_off_c, 2, 72, 64
4, 103205, Note_on_c, 2, 64, 80
4, 103205, Note_on_c, 2, 67, 80
4, 103205, Note_on_c, 2, 72, 80
4, 103320, Note_off_c, 2, 67, 64
4, 103320, Note_off_c, 2, 64, 64
4, 103330, Note_off_c, 2, 72, 64
4, 103925, Note_on_c, 2, 62, 80
4, 103925, Note_on_c, 2, 67, 80
4, 103925, Note_on_c, 2, 71, 80
4, 104040, Note_off_c, 2, 71, 64
4, 104040, Note_off_c, 2, 67, 64
4, 104040, Note_off_c, 2, 62, 64
4, 104045, Note_on_c, 2, 62, 49
4, 104045, Note_on_c, 2, 67, 78
4, 104045, Note_on_c, 2, 71, 70
4, 104155, Note_off_c, 2, 71, 64
4, 104155, Note_off_c, 2, 67, 64
4, 104155, Note_off_c, 2, 62, 64
4, 104160, Note_on_c, 2, 62, 47
4, 104165, Note_on_c, 2, 67, 80
4, 104165, Note_on_c, 2, 71, 72
4, 104280, Note_off_c, 2, 71, 64
4, 104280, Note_off_c, 2, 67, 64
4, 104280, Note_off_c, 2, 62, 64
4, 104285, Note_on_c, 2, 62, 56
4, 104285, Note_on_c, 2, 67, 75
4, 104285, Note_on_c, 2, 71, 72
4, 104400, Note_off_c, 2, 71, 64
4, 104400, Note_off_c, 2, 67, 64
4, 104400, Note_off_c, 2, 62, 64
4, 104405, Note_on_c, 2, 62, 64
4, 104405, Note_on_c, 2, 67, 75
4, 104405, Note_on_c, 2, 71, 70
4, 104475, Note_off_c, 2, 62, 64
4, 104480, Note_off_c, 2, 71, 64
4, 104485, Note_off_c, 2, 67, 64
4, 104645, Note_on_c, 2, 66, 80
4, 104645, Note_on_c, 2, 69, 80
4, 104645, Note_on_c, 2, 74, 80
4, 104730, Note_off_c, 2, 69, 64
4, 104735, Note_off_c, 2, 66, 64
4, 104765, Note_off_c, 2, 74, 64
4, 104995, Note_on_c, 2, 66, 80
4, 104995, Note_on_c, 2, 69, 80
4, 104995, Note_on_c, 2, 74, 80
4, 105105, Note_off_c, 2, 66, 64
4, 105110, Note_off_c, 2, 69, 64
4, 105115, Note_off_c, 2, 74, 64
4, 105355, Note_on_c, 2, 64, 80
4, 105355, Note_on_c, 2, 67, 80
4, 105355, Note_on_c, 2, 72, 80
4, 105480, Note_off_c, 2, 64, 64
4, 105485, Note_off_c, 2, 67, 64
4, 105490, Note_off_c, 2, 72, 64
4, 105835, Note_on_c, 2, 64, 75
4, 105835, Note_on_c, 2, 67, 80
4, 105835, Note_on_c, 2, 72, 80
4, 105950, Note_off_c, 2, 72, 64
4, 105950, Note_off_c, 2, 67, 64
4, 105950, Note_off_c, 2, 64, 64
4, 105955, Note_on_c, 2, 64, 64
4, 105955, Note_on_c, 2, 67, 80
4, 105955, Note_on_c, 2, 72, 69
4, 106075, Note_off_c, 2, 72, 64
4, 106075, Note_off_c, 2, 67, 64
4, 106075, Note_off_c, 2, 64, 64
4, 106080, Note_on_c, 2, 64, 52
4, 106080, Note_on_c, 2, 67, 75
4, 106080, Note_on_c, 2, 72, 65
4, 106195, Note_off_c, 2, 72, 64
4, 106195, Note_off_c, 2, 67, 64
4, 106195, Note_off_c, 2, 64, 64
4, 106200, Note_on_c, 2, 64, 59
4, 106200, Note_on_c, 2, 67, 80
4, 106200, Note_on_c, 2, 72, 72
4, 106315, Note_off_c, 2, 72, 64
4, 106315, Note_off_c, 2, 67, 64
4, 106315, Note_off_c, 2, 64, 64
4, 106320, Note_on_c, 2, 64, 66
4, 106320, Note_on_c, 2, 67, 80
4, 106320, Note_on_c, 2, 72, 72
4, 106440, Note_off_c, 2, 72, 64
4, 106440, Note_off_c, 2, 67, 64
4, 106440, Note_off_c, 2, 64, 64
4, 106570, Note_on_c, 2, 64, 80
4, 106570, Note_on_c, 2, 67, 80
4, 106570, Note_on_c, 2, 72, 80
4, 106675, Note_off_c, 2, 64, 64
4, 106685, Note_off_c, 2, 67, 64
4, 106700, Note_off_c, 2, 72, 64
4, 107030, Note_on_c, 2, 66, 80
4, 107030, Note_on_c, 2, 69, 80
4, 107030, Note_on_c, 2, 74, 80
4, 107175, Note_off_c, 2, 74, 64
4, 107190, Note_off_c, 2, 66, 64
4, 107195, Note_off_c, 2, 69, 64
4, 107770, Note_on_c, 2, 62, 78
4, 107770, Note_on_c, 2, 67, 80
4, 107770, Note_on_c, 2, 71, 80
4, 107885, Note_off_c, 2, 71, 64
4, 107885, Note_off_c, 2, 67, 64
4, 107885, Note_off_c, 2, 62, 64
4, 107890, Note_on_c, 2, 62, 50
4, 107890, Note_on_c, 2, 67, 78
4, 107890, Note_on_c, 2, 71, 66
4, 108000, Note_off_c, 2, 71, 64
4, 108000, Note_off_c, 2, 67, 64
4, 108000, Note_off_c, 2, 62, 64
4, 108005, Note_on_c, 2, 62, 52
4, 108005, Note_on_c, 2, 67, 72
4, 108005, Note_on_c, 2, 71, 65
4, 108115, Note_off_c, 2, 71, 64
4, 108115, Note_off_c, 2, 67, 64
4, 108115, Note_off_c, 2, 62, 64
4, 108120, Note_on_c, 2, 62, 42
4, 108120, Note_on_c, 2, 67, 70
4, 108120, Note_on_c, 2, 71, 65
4, 108121, Note_off_c, 2, 62, 64
4, 108235, Note_off_c, 2, 67, 64
4, 108235, Note_off_c, 2, 71, 64
4, 108240, Note_on_c, 2, 62, 56
4, 108240, Note_on_c, 2, 67, 72
4, 108240, Note_on_c, 2, 71, 64
4, 108360, Note_off_c, 2, 71, 64
4, 108360, Note_off_c, 2, 67, 64
4, 108360, Note_off_c, 2, 62, 64
4, 108480, Note_on_c, 2, 66, 80
4, 108480, Note_on_c, 2, 69, 80
4, 108480, Note_on_c, 2, 74, 80
4, 108570, Note_off_c, 2, 69, 64
4, 108570, Note_off_c, 2, 66, 64
4, 108595, Note_off_c, 2, 74, 64
4, 108840, Note_on_c, 2, 66, 80
4, 108840, Note_on_c, 2, 69, 80
4, 108840, Note_on_c, 2, 74, 80
4, 108940, Note_off_c, 2, 69, 64
4, 108940, Note_off_c, 2, 66, 64
4, 108955, Note_off_c, 2, 74, 64
4, 109200, Note_on_c, 2, 64, 80
4, 109200, Note_on_c, 2, 67, 80
4, 109200, Note_on_c, 2, 72, 80
4, 109330, Note_off_c, 2, 67, 64
4, 109330, Note_off_c, 2, 64, 64
4, 109335, Note_off_c, 2, 72, 64
4, 109675, Note_on_c, 2, 64, 80
4, 109675, Note_on_c, 2, 67, 80
4, 109675, Note_on_c, 2, 72, 80
4, 109790, Note_off_c, 2, 72, 64
4, 109790, Note_off_c, 2, 67, 64
4, 109790, Note_off_c, 2, 64, 64
4, 109795, Note_on_c, 2, 64, 59
4, 109795, Note_on_c, 2, 67, 80
4, 109795, Note_on_c, 2, 72, 65
4, 109910, Note_off_c, 2, 72, 64
4, 109910, Note_off_c, 2, 67, 64
4, 109910, Note_off_c, 2, 64, 64
4, 109915, Note_on_c, 2, 64, 52
4, 109915, Note_on_c, 2, 67, 75
4, 109915, Note_on_c, 2, 72, 70
4, 110030, Note_off_c, 2, 72, 64
4, 110030, Note_off_c, 2, 67, 64
4, 110030, Note_off_c, 2, 64, 64
4, 110035, Note_on_c, 2, 72, 55
4, 110040, Note_on_c, 2, 64, 42
4, 110040, Note_on_c, 2, 67, 75
4, 110155, Note_off_c, 2, 67, 64
4, 110155, Note_off_c, 2, 64, 64
4, 110155, Note_off_c, 2, 72, 64
4, 110160, Note_on_c, 2, 64, 66
4, 110160, Note_on_c, 2, 67, 80
4, 110160, Note_on_c, 2, 72, 75
4, 110161, Note_off_c, 2, 72, 64
4, 110280, Note_off_c, 2, 67, 64
4, 110280, Note_off_c, 2, 64, 64
4, 110405, Note_on_c, 2, 64, 80
4, 110405, Note_on_c, 2, 67, 80
4, 110405, Note_on_c, 2, 72, 80
4, 110520, Note_off_c, 2, 64, 64
4, 110525, Note_off_c, 2, 67, 64
4, 110535, Note_off_c, 2, 72, 64
4, 110885, Note_on_c, 2, 64, 80
4, 110885, Note_on_c, 2, 67, 80
4, 110885, Note_on_c, 2, 72, 80
4, 111000, Note_off_c, 2, 67, 64
4, 111000, Note_off_c, 2, 64, 64
4, 111010, Note_off_c, 2, 72, 64
4, 111605, Note_on_c, 2, 62, 80
4, 111605, Note_on_c, 2, 67, 80
4, 111605, Note_on_c, 2, 71, 80
4, 111720, Note_off_c, 2, 71, 64
4, 111720, Note_off_c, 2, 67, 64
4, 111720, Note_off_c, 2, 62, 64
4, 111725, Note_on_c, 2, 62, 49
4, 111725, Note_on_c, 2, 67, 78
4, 111725, Note_on_c, 2, 71, 70
4, 111835, Note_off_c, 2, 71, 64
4, 111835, Note_off_c, 2, 67, 64
4, 111835, Note_off_c, 2, 62, 64
4, 111840, Note_on_c, 2, 62, 47
4, 111845, Note_on_c, 2, 67, 80
4, 111845, Note_on_c, 2, 71, 72
4, 111960, Note_off_c, 2, 71, 64
4, 111960, Note_off_c, 2, 67, 64
4, 111960, Note_off_c, 2, 62, 64
4, 111965, Note_on_c, 2, 62, 56
4, 111965, Note_on_c, 2, 67, 75
4, 111965, Note_on_c, 2, 71, 72
4, 112080, Note_off_c, 2, 71, 64
4, 112080, Note_off_c, 2, 67, 64
4, 112080, Note_off_c, 2, 62, 64
4, 112085, Note_on_c, 2, 62, 64
4, 112085, Note_on_c, 2, 67, 75
4, 112085, Note_on_c, 2, 71, 70
4, 112155, Note_off_c, 2, 62, 64
4, 112160, Note_off_c, 2, 71, 64
4, 112165, Note_off_c, 2, 67, 64
4, 112325, Note_on_c, 2, 66, 80
4, 112325, Note_on_c, 2, 69, 80
4, 112325, Note_on_c, 2, 74, 80
4, 112410, Note_off_c, 2, 69, 64
4, 112415, Note_off_c, 2, 66, 64
4, 112445, Note_off_c, 2, 74, 64
4, 112675, Note_on_c, 2, 66, 80
4, 112675, Note_on_c, 2, 69, 80
4, 112675, Note_on_c, 2, 74, 80
4, 112785, Note_off_c, 2, 66, 64
4, 112790, Note_off_c, 2, 69, 64
4, 112795, Note_off_c, 2, 74, 64
4, 113035, Note_on_c, 2, 64, 80
4, 113035, Note_on_c, 2, 67, 80
4, 113035, Note_on_c, 2, 72, 80
4, 113160, Note_off_c, 2, 64, 64
4, 113165, Note_off_c, 2, 67, 64
4, 113170, Note_off_c, 2, 72, 64
4, 113515, Note_on_c, 2, 64, 75
4, 113515, Note_on_c, 2, 67, 80
4, 113515, Note_on_c, 2, 72, 80
4, 113630, Note_off_c, 2, 72, 64
4, 113630, Note_off_c, 2, 67, 64
4, 113630, Note_off_c, 2, 64, 64
4, 113635, Note_on_c, 2, 64, 64
4, 113635, Note_on_c, 2, 67, 80
4, 113635, Note_on_c, 2, 72, 69
4, 113755, Note_off_c, 2, 72, 64
4, 113755, Note_off_c, 2, 67, 64
4, 113755, Note_off_c, 2, 64, 64
4, 113760, Note_on_c, 2, 64, 52
4, 113760, Note_on_c, 2, 67, 75
4, 113760, Note_on_c, 2, 72, 65
4, 113875, Note_off_c, 2, 72, 64
4, 113875, Note_off_c, 2, 67, 64
4, 113875, Note_off_c, 2, 64, 64
4, 113880, Note_on_c, 2, 64, 59
4, 113880, Note_on_c, 2, 67, 80
4, 113880, Note_on_c, 2, 72, 72
4, 113995, Note_off_c, 2, 72, 64
4, 113995, Note_off_c, 2, 67, 64
4, 113995, Note_off_c, 2, 64, 64
4, 114000, Note_on_c, 2, 64, 66
4, 114000, Note_on_c, 2, 67, 80
4, 114000, Note_on_c, 2, 72, 72
4, 114120, Note_off_c, 2, 72, 64
4, 114120, Note_off_c, 2, 67, 64
4, 114120, Note_off_c, 2, 64, 64
4, 114250, Note_on_c, 2, 64, 80
4, 114250, Note_on_c, 2, 67, 80
4, 114250, Note_on_c, 2, 72, 80
4, 114355, Note_off_c, 2, 64, 64
4, 114365, Note_off_c, 2, 67, 64
4, 114380, Note_off_c, 2, 72, 64
4, 114710, Note_on_c, 2, 66, 80
4, 114710, Note_on_c, 2, 69, 80
4, 114710, Note_on_c, 2, 74, 80
4, 114855, Note_off_c, 2, 74, 64
4, 114870, Note_off_c, 2, 66, 64
4, 114875, Note_off_c, 2, 69, 64
4, 115450, Note_on_c, 2, 62, 78
4, 115450, Note_on_c, 2, 67, 80
4, 115450, Note_on_c, 2, 71, 80
4, 115565, Note_off_c, 2, 71, 64
4, 115565, Note_off_c, 2, 67, 64
4, 115565, Note_off_c, 2, 62, 64
4, 115570, Note_on_c, 2, 62, 50
4, 115570, Note_on_c, 2, 67, 78
4, 115570, Note_on_c, 2, 71, 66
4, 115680, Note_off_c, 2, 71, 64
4, 115680, Note_off_c, 2, 67, 64
4, 115680, Note_off_c, 2, 62, 64
4, 115685, Note_on_c, 2, 62, 52
4, 115685, Note_on_c, 2, 67, 72
4, 115685, Note_on_c, 2, 71, 65
4, 115795, Note_off_c, 2, 71, 64
4, 115795, Note_off_c, 2, 67, 64
4, 115795, Note_off_c, 2, 62, 64
4, 115800, Note_on_c, 2, 62, 42
4, 115800, Note_on_c, 2, 67, 70
4, 115800, Note_on_c, 2, 71, 65
4, 115801, Note_off_c, 2, 62, 64
4, 115915, Note_off_c, 2, 67, 64
4, 115915, Note_off_c, 2, 71, 64
4, 115920, Note_on_c, 2, 62, 56
4, 115920, Note_on_c, 2, 67, 72
4, 115920, Note_on_c, 2, 71, 64
4, 116040, Note_off_c, 2, 71, 64
4, 116040, Note_off_c, 2, 67, 64
4, 116040, Note_off_c, 2, 62, 64
4, 116160, Note_on_c, 2, 66, 80
4, 116160, Note_on_c, 2, 69, 80
4, 116160, Note_on_c, 2, 74, 80
4, 116250, Note_off_c, 2, 69, 64
4, 116250, Note_off_c, 2, 66, 64
4, 116275, Note_off_c, 2, 74, 64
4, 116520, Note_on_c, 2, 66, 80
4, 116520, Note_on_c, 2, 69, 80
4, 116520, Note_on_c, 2, 74, 80
4, 116620, Note_off_c, 2, 69, 64
4, 116620, Note_off_c, 2, 66, 64
4, 116635, Note_off_c, 2, 74, 64
4, 116880, Note_on_c, 2, 64, 80
4, 116880, Note_on_c, 2, 67, 80
4, 116880, Note_on_c, 2, 72, 80
4, 117010, Note_off_c, 2, 67, 64
4, 117010, Note_off_c, 2, 64, 64
4, 117015, Note_off_c, 2, 72, 64
4, 117355, Note_on_c, 2, 64, 80
4, 117355, Note_on_c, 2, 67, 80
4, 117355, Note_on_c, 2, 72, 80
4, 117470, Note_off_c, 2, 72, 64
4, 117470, Note_off_c, 2, 67, 64
4, 117470, Note_off_c, 2, 64, 64
4, 117475, Note_on_c, 2, 64, 59
4, 117475, Note_on_c, 2, 67, 80
4, 117475, Note_on_c, 2, 72, 65
4, 117590, Note_off_c, 2, 72, 64
4, 117590, Note_off_c, 2, 67, 64
4, 117590, Note_off_c, 2, 64, 64
4, 117595, Note_on_c, 2, 64, 52
4, 117595, Note_on_c, 2, 67, 75
4, 117595, Note_on_c, 2, 72, 70
4, 117710, Note_off_c, 2, 72, 64
4, 117710, Note_off_c, 2, 67, 64
4, 117710, Note_off_c, 2, 64, 64
4, 117715, Note_on_c, 2, 72, 55
4, 117720, Note_on_c, 2, 64, 42
4, 117720, Note_on_c, 2, 67, 75
4, 117835, Note_off_c, 2, 67, 64
4, 117835, Note_off_c, 2, 64, 64
4, 117835, Note_off_c, 2, 72, 64
4, 117840, Note_on_c, 2, 64, 66
4, 117840, Note_on_c, 2, 67, 80
4, 117840, Note_on_c, 2, 72, 75
4, 117841, Note_off_c, 2, 72, 64
4, 117960, Note_off_c, 2, 67, 64
4, 117960, Note_off_c, 2, 64, 64
4, 118085, Note_on_c, 2, 64, 80
4, 118085, Note_on_c, 2, 67, 80
4, 118085, Note_on_c, 2, 72, 80
4, 118200, Note_off_c, 2, 64, 64
4, 118205, Note_off_c, 2, 67, 64
4, 118215, Note_off_c, 2, 72, 64
4, 118565, Note_on_c, 2, 64, 80
4, 118565, Note_on_c, 2, 67, 80
4, 118565, Note_on_c, 2, 72, 80
4, 118680, Note_off_c, 2, 67, 64
4, 118680, Note_off_c, 2, 64, 64
4, 118690, Note_off_c, 2, 72, 64
4, 119275, Note_on_c, 2, 67, 70
4, 119280, Note_on_c, 2, 62, 78
4, 119280, Note_on_c, 2, 64, 42
4, 119280, Note_on_c, 2, 71, 59
4, 119280, Note_on_c, 2, 76, 66
4, 119390, Note_off_c, 2, 67, 64
4, 119395, Note_off_c, 2, 62, 64
4, 119395, Note_off_c, 2, 64, 64
4, 119395, Note_off_c, 2, 71, 64
4, 119395, Note_off_c, 2, 76, 64
4, 119400, Note_on_c, 2, 62, 78
4, 119400, Note_on_c, 2, 67, 49
4, 119400, Note_on_c, 2, 71, 52
4, 119400, Note_on_c, 2, 76, 50
4, 119405, Note_on_c, 2, 64, 36
4, 119510, Note_off_c, 2, 76, 64
4, 119510, Note_off_c, 2, 71, 64
4, 119510, Note_off_c, 2, 67, 64
4, 119510, Note_off_c, 2, 62, 64
4, 119515, Note_off_c, 2, 64, 64
4, 119520, Note_on_c, 2, 62, 57
4, 119520, Note_on_c, 2, 64, 36
4, 119520, Note_on_c, 2, 67, 55
4, 119520, Note_on_c, 2, 71, 53
4, 119520, Note_on_c, 2, 76, 36
4, 119625, Note_off_c, 2, 76, 64
4, 119625, Note_off_c, 2, 71, 64
4, 119625, Note_off_c, 2, 67, 64
4, 119625, Note_off_c, 2, 64, 64
4, 119625, Note_off_c, 2, 62, 64
4, 119630, Note_on_c, 2, 76, 30
4, 119635, Note_on_c, 2, 62, 66
4, 119635, Note_on_c, 2, 64, 36
4, 119635, Note_on_c, 2, 67, 65
4, 119635, Note_on_c, 2, 71, 56
4, 119710, Note_off_c, 2, 67, 64
4, 119710, Note_off_c, 2, 62, 64
4, 119710, Note_off_c, 2, 76, 64
4, 119715, Note_off_c, 2, 64, 64
4, 119715, Note_off_c, 2, 71, 64
4, 121200, Note_on_c, 2, 57, 72
4, 121200, Note_on_c, 2, 64, 39
4, 121200, Note_on_c, 2, 67, 64
4, 121200, Note_on_c, 2, 72, 62
4, 121310, Note_off_c, 2, 72, 64
4, 121310, Note_off_c, 2, 67, 64
4, 121310, Note_off_c, 2, 57, 64
4, 121315, Note_off_c, 2, 64, 64
4, 121320, Note_on_c, 2, 57, 56
4, 121320, Note_on_c, 2, 64, 25
4, 121320, Note_on_c, 2, 67, 64
4, 121320, Note_on_c, 2, 72, 36
4, 121420, Note_off_c, 2, 72, 64
4, 121425, Note_off_c, 2, 57, 64
4, 121430, Note_off_c, 2, 64, 64
4, 121430, Note_off_c, 2, 67, 64
4, 121435, Note_on_c, 2, 57, 56
4, 121435, Note_on_c, 2, 64, 27
4, 121435, Note_on_c, 2, 67, 72
4, 121435, Note_on_c, 2, 72, 27
4, 121540, Note_off_c, 2, 72, 64
4, 121550, Note_off_c, 2, 67, 64
4, 121550, Note_off_c, 2, 64, 64
4, 121550, Note_off_c, 2, 57, 64
4, 121555, Note_on_c, 2, 57, 66
4, 121555, Note_on_c, 2, 64, 41
4, 121555, Note_on_c, 2, 67, 75
4, 121555, Note_on_c, 2, 72, 33
4, 121640, Note_off_c, 2, 72, 64
4, 121640, Note_off_c, 2, 67, 64
4, 121640, Note_off_c, 2, 64, 64
4, 121640, Note_off_c, 2, 57, 64
4, 123115, Note_on_c, 2, 67, 70
4, 123120, Note_on_c, 2, 62, 78
4, 123120, Note_on_c, 2, 64, 42
4, 123120, Note_on_c, 2, 71, 59
4, 123120, Note_on_c, 2, 76, 66
4, 123230, Note_off_c, 2, 67, 64
4, 123235, Note_off_c, 2, 62, 64
4, 123235, Note_off_c, 2, 64, 64
4, 123235, Note_off_c, 2, 71, 64
4, 123235, Note_off_c, 2, 76, 64
4, 123240, Note_on_c, 2, 62, 78
4, 123240, Note_on_c, 2, 67, 49
4, 123240, Note_on_c, 2, 71, 52
4, 123240, Note_on_c, 2, 76, 50
4, 123245, Note_on_c, 2, 64, 36
4, 123350, Note_off_c, 2, 76, 64
4, 123350, Note_off_c, 2, 71, 64
4, 123350, Note_off_c, 2, 67, 64
4, 123350, Note_off_c, 2, 62, 64
4, 123355, Note_off_c, 2, 64, 64
4, 123360, Note_on_c, 2, 62, 57
4, 123360, Note_on_c, 2, 64, 36
4, 123360, Note_on_c, 2, 67, 55
4, 123360, Note_on_c, 2, 71, 53
4, 123360, Note_on_c, 2, 76, 36
4, 123465, Note_off_c, 2, 76, 64
4, 123465, Note_off_c, 2, 71, 64
4, 123465, Note_off_c, 2, 67, 64
4, 123465, Note_off_c, 2, 64, 64
4, 123465, Note_off_c, 2, 62, 64
4, 123470, Note_on_c, 2, 76, 30
4, 123475, Note_on_c, 2, 62, 66
4, 123475, Note_on_c, 2, 64, 36
4, 123475, Note_on_c, 2, 67, 65
4, 123475, Note_on_c, 2, 71, 56
4, 123550, Note_off_c, 2, 67, 64
4, 123550, Note_off_c, 2, 62, 64
4, 123550, Note_off_c, 2, 76, 64
4, 123555, Note_off_c, 2, 64, 64
4, 123555, Note_off_c, 2, 71, 64
4, 125040, Note_on_c, 2, 57, 72
4, 125040, Note_on_c, 2, 64, 39
4, 125040, Note_on_c, 2, 67, 64
4, 125040, Note_on_c, 2, 72, 62
4, 125150, Note_off_c, 2, 72, 64
4, 125150, Note_off_c, 2, 67, 64
4, 125150, Note_off_c, 2, 57, 64
4, 125155, Note_off_c, 2, 64, 64
4, 125160, Note_on_c, 2, 57, 56
4, 125160, Note_on_c, 2, 64, 25
4, 125160, Note_on_c, 2, 67, 64
4, 125160, Note_on_c, 2, 72, 36
4, 125260, Note_off_c, 2, 72, 64
4, 125265, Note_off_c, 2, 57, 64
4, 125270, Note_off_c, 2, 64, 64
4, 125270, Note_off_c, 2, 67, 64
4, 125275, Note_on_c, 2, 57, 56
4, 125275, Note_on_c, 2, 64, 27
4, 125275, Note_on_c, 2, 67, 72
4, 125275, Note_on_c, 2, 72, 27
4, 125380, Note_off_c, 2, 72, 64
4, 125390, Note_off_c, 2, 67, 64
4, 125390, Note_off_c, 2, 64, 64
4, 125390, Note_off_c, 2, 57, 64
4, 125395, Note_on_c, 2, 57, 66
4, 125395, Note_on_c, 2, 64, 41
4, 125395, Note_on_c, 2, 67, 75
4, 125395, Note_on_c, 2, 72, 33
4, 125480, Note_off_c, 2, 72, 64
4, 125480, Note_off_c, 2, 67, 64
4, 125480, Note_off_c, 2, 64, 64
4, 125480, Note_off_c, 2, 57, 64
4, 126005, Note_on_c, 2, 57, 72
4, 126005, Note_on_c, 2, 64, 39
4, 126005, Note_on_c, 2, 67, 64
4, 126005, Note_on_c, 2, 72, 62
4, 126115, Note_off_c, 2, 72, 64
4, 126115, Note_off_c, 2, 67, 64
4, 126115, Note_off_c, 2, 57, 64
4, 126120, Note_off_c, 2, 64, 64
4, 126125, Note_on_c, 2, 57, 56
4, 126125, Note_on_c, 2, 64, 25
4, 126125, Note_on_c, 2, 67, 64
4, 126125, Note_on_c, 2, 72, 36
4, 126225, Note_off_c, 2, 72, 64
4, 126230, Note_off_c, 2, 57, 64
4, 126235, Note_off_c, 2, 64, 64
4, 126235, Note_off_c, 2, 67, 64
4, 126240, Note_on_c, 2, 57, 56
4, 126240, Note_on_c, 2, 64, 27
4, 126240, Note_on_c, 2, 67, 72
4, 126240, Note_on_c, 2, 72, 27
4, 126345, Note_off_c, 2, 72, 64
4, 126355, Note_off_c, 2, 67, 64
4, 126355, Note_off_c, 2, 64, 64
4, 126355, Note_off_c, 2, 57, 64
4, 126360, Note_on_c, 2, 57, 66
4, 126360, Note_on_c, 2, 64, 41
4, 126360, Note_on_c, 2, 67, 75
4, 126360, Note_on_c, 2, 72, 33
4, 126445, Note_off_c, 2, 72, 64
4, 126445, Note_off_c, 2, 67, 64
4, 126445, Note_off_c, 2, 64, 64
4, 126445, Note_off_c, 2, 57, 64
4, 126955, Note_on_c, 2, 67, 70
4, 126960, Note_on_c, 2, 62, 78
4, 126960, Note_on_c, 2, 64, 42
4, 126960, Note_on_c, 2, 71, 59
4, 126960, Note_on_c, 2, 76, 66
4, 127070, Note_off_c, 2, 67, 64
4, 127075, Note_off_c, 2, 62, 64
4, 127075, Note_off_c, 2, 64, 64
4, 127075, Note_off_c, 2, 71, 64
4, 127075, Note_off_c, 2, 76, 64
4, 127080, Note_on_c, 2, 62, 78
4, 127080, Note_on_c, 2, 67, 49
4, 127080, Note_on_c, 2, 71, 52
4, 127080, Note_on_c, 2, 76, 50
4, 127085, Note_on_c, 2, 64, 36
4, 127190, Note_off_c, 2, 76, 64
4, 127190, Note_off_c, 2, 71, 64
4, 127190, Note_off_c, 2, 67, 64
4, 127190, Note_off_c, 2, 62, 64
4, 127195, Note_off_c, 2, 64, 64
4, 127200, Note_on_c, 2, 62, 57
4, 127200, Note_on_c, 2, 64, 36
4, 127200, Note_on_c, 2, 67, 55
4, 127200, Note_on_c, 2, 71, 53
4, 127200, Note_on_c, 2, 76, 36
4, 127305, Note_off_c, 2, 76, 64
4, 127305, Note_off_c, 2, 71, 64
4, 127305, Note_off_c, 2, 67, 64
4, 127305, Note_off_c, 2, 64, 64
4, 127305, Note_off_c, 2, 62, 64
4, 127310, Note_on_c, 2, 76, 30
4, 127315, Note_on_c, 2, 62, 66
4, 127315, Note_on_c, 2, 64, 36
4, 127315, Note_on_c, 2, 67, 65
4, 127315, Note_on_c, 2, 71, 56
4, 127390, Note_off_c, 2, 67, 64
4, 127390, Note_off_c, 2, 62, 64
4, 127390, Note_off_c, 2, 76, 64
4, 127395, Note_off_c, 2, 64, 64
4, 127395, Note_off_c, 2, 71, 64
4, 128880, Note_on_c, 2, 57, 72
4, 128880, Note_on_c, 2, 64, 39
4, 128880, Note_on_c, 2, 67, 64
4, 128880, Note_on_c, 2, 72, 62
4, 128990, Note_off_c, 2, 72, 64
4, 128990, Note_off_c, 2, 67, 64
4, 128990, Note_off_c, 2, 57, 64
4, 128995, Note_off_c, 2, 64, 64
4, 129000, Note_on_c, 2, 57, 56
4, 129000, Note_on_c, 2, 64, 25
4, 129000, Note_on_c, 2, 67, 64
4, 129000, Note_on_c, 2, 72, 36
4, 129100, Note_off_c, 2, 72, 64
4, 129105, Note_off_c, 2, 57, 64
4, 129110, Note_off_c, 2, 64, 64
4, 129110, Note_off_c, 2, 67, 64
4, 129115, Note_on_c, 2, 57, 56
4, 129115, Note_on_c, 2, 64, 27
4, 129115, Note_on_c, 2, 67, 72
4, 129115, Note_on_c, 2, 72, 27
4, 129220, Note_off_c, 2, 72, 64
4, 129230, Note_off_c, 2, 67, 64
4, 129230, Note_off_c, 2, 64, 64
4, 129230, Note_off_c, 2, 57, 64
4, 129235, Note_on_c, 2, 57, 66
4, 129235, Note_on_c, 2, 64, 41
4, 129235, Note_on_c, 2, 67, 75
4, 129235, Note_on_c, 2, 72, 33
4, 129320, Note_off_c, 2, 72, 64
4, 129320, Note_off_c, 2, 67, 64
4, 129320, Note_off_c, 2, 64, 64
4, 129320, Note_off_c, 2, 57, 64
4, 130795, Note_on_c, 2, 67, 70
4, 130800, Note_on_c, 2, 62, 78
4, 130800, Note_on_c, 2, 64, 42
4, 130800, Note_on_c, 2, 71, 59
4, 130800, Note_on_c, 2, 76, 66
4, 130910, Note_off_c, 2, 67, 64
4, 130915, Note_off_c, 2, 62, 64
4, 130915, Note_off_c, 2, 64, 64
4, 130915, Note_off_c, 2, 71, 64
4, 130915, Note_off_c, 2, 76, 64
4, 130920, Note_on_c, 2, 62, 78
4, 130920, Note_on_c, 2, 67, 49
4, 130920, Note_on_c, 2, 71, 52
4, 130920, Note_on_c, 2, 76, 50
4, 130925, Note_on_c, 2, 64, 36
4, 131030, Note_off_c, 2, 76, 64
4, 131030, Note_off_c, 2, 71, 64
4, 131030, Note_off_c, 2, 67, 64
4, 131030, Note_off_c, 2, 62, 64
4, 131035, Note_off_c, 2, 64, 64
4, 131040, Note_on_c, 2, 62, 57
4, 131040, Note_on_c, 2, 64, 36
4, 131040, Note_on_c, 2, 67, 55
4, 131040, Note_on_c, 2, 71, 53
4, 131040, Note_on_c, 2, 76, 36
4, 131145, Note_off_c, 2, 76, 64
4, 131145, Note_off_c, 2, 71, 64
4, 131145, Note_off_c, 2, 67, 64
4, 131145, Note_off_c, 2, 64, 64
4, 131145, Note_off_c, 2, 62, 64
4, 131150, Note_on_c, 2, 76, 30
4, 131155, Note_on_c, 2, 62, 66
4, 131155, Note_on_c, 2, 64, 36
4, 131155, Note_on_c, 2, 67, 65
4, 131155, Note_on_c, 2, 71, 56
4, 131230, Note_off_c, 2, 67, 64
4, 131230, Note_off_c, 2, 62, 64
4, 131230, Note_off_c, 2, 76, 64
4, 131235, Note_off_c, 2, 64, 64
4, 131235, Note_off_c, 2, 71, 64
4, 132720, Note_on_c, 2, 57, 72
4, 132720, Note_on_c, 2, 64, 39
4, 132720, Note_on_c, 2, 67, 64
4, 132720, Note_on_c, 2, 72, 62
4, 132830, Note_off_c, 2, 72, 64
4, 132830, Note_off_c, 2, 67, 64
4, 132830, Note_off_c, 2, 57, 64
4, 132835, Note_off_c, 2, 64, 64
4, 132840, Note_on_c, 2, 57, 56
4, 132840, Note_on_c, 2, 64, 25
4, 132840, Note_on_c, 2, 67, 64
4, 132840, Note_on_c, 2, 72, 36
4, 132940, Note_off_c, 2, 72, 64
4, 132945, Note_off_c, 2, 57, 64
4, 132950, Note_off_c, 2, 64, 64
4, 132950, Note_off_c, 2, 67, 64
4, 132955, Note_on_c, 2, 57, 56
4, 132955, Note_on_c, 2, 64, 27
4, 132955, Note_on_c, 2, 67, 72
4, 132955, Note_on_c, 2, 72, 27
4, 133060, Note_off_c, 2, 72, 64
4, 133070, Note_off_c, 2, 67, 64
4, 133070, Note_off_c, 2, 64, 64
4, 133070, Note_off_c, 2, 57, 64
4, 133075, Note_on_c, 2, 57, 66
4, 133075, Note_on_c, 2, 64, 41
4, 133075, Note_on_c, 2, 67, 75
4, 133075, Note_on_c, 2, 72, 33
4, 133160, Note_off_c, 2, 72, 64
4, 133160, Note_off_c, 2, 67, 64
4, 133160, Note_off_c, 2, 64, 64
4, 133160, Note_off_c, 2, 57, 64
4, 133685, Note_on_c, 2, 57, 72
4, 133685, Note_on_c, 2, 64, 39
4, 133685, Note_on_c, 2, 67, 64
4, 133685, Note_on_c, 2, 72, 62
4, 133795, Note_off_c, 2, 72, 64
4, 133795, Note_off_c, 2, 67, 64
4, 133795, Note_off_c, 2, 57, 64
4, 133800, Note_off_c, 2, 64, 64
4, 133805, Note_on_c, 2, 57, 56
4, 133805, Note_on_c, 2, 64, 25
4, 133805, Note_on_c, 2, 67, 64
4, 133805, Note_on_c, 2, 72, 36
4, 133905, Note_off_c, 2, 72, 64
4, 133910, Note_off_c, 2, 57, 64
4, 133915, Note_off_c, 2, 64, 64
4, 133915, Note_off_c, 2, 67, 64
4, 133920, Note_on_c, 2, 57, 56
4, 133920, Note_on_c, 2, 64, 27
4, 133920, Note_on_c, 2, 67, 72
4, 133920, Note_on_c, 2, 72, 27
4, 134025, Note_off_c, 2, 72, 64
4, 134035, Note_off_c, 2, 67, 64
4, 134035, Note_off_c, 2, 64, 64
4, 134035, Note_off_c, 2, 57, 64
4, 134040, Note_on_c, 2, 57, 66
4, 134040, Note_on_c, 2, 64, 41
4, 134040, Note_on_c, 2, 67, 75
4, 134040, Note_on_c, 2, 72, 33
4, 134125, Note_off_c, 2, 72, 64
4, 134125, Note_off_c, 2, 67, 64
4, 134125, Note_off_c, 2, 64, 64
4, 134125, Note_off_c, 2, 57, 64
4, 134645, Note_on_c, 2, 62, 80
4, 134645, Note_on_c, 2, 67, 80
4, 134645, Note_on_c, 2, 71, 80
4, 134760, Note_off_c, 2, 71, 64
4, 134760, Note_off_c, 2, 67, 64
4, 134760, Note_off_c, 2, 62, 64
4, 134765, Note_on_c, 2, 62, 49
4, 134765, Note_on_c, 2, 67, 78
4, 134765, Note_on_c, 2, 71, 70
4, 134875, Note_off_c, 2, 71, 64
4, 134875, Note_off_c, 2, 67, 64
4, 134875, Note_off_c, 2, 62, 64
4, 134880, Note_on_c, 2, 62, 47
4, 134885, Note_on_c, 2, 67, 80
4, 134885, Note_on_c, 2, 71, 72
4, 135000, Note_off_c, 2, 71, 64
4, 135000, Note_off_c, 2, 67, 64
4, 135000, Note_off_c, 2, 62, 64
4, 135005, Note_on_c, 2, 62, 56
4, 135005, Note_on_c, 2, 67, 75
4, 135005, Note_on_c, 2, 71, 72
4, 135120, Note_off_c, 2, 71, 64
4, 135120, Note_off_c, 2, 67, 64
4, 135120, Note_off_c, 2, 62, 64
4, 135125, Note_on_c, 2, 62, 64
4, 135125, Note_on_c, 2, 67, 75
4, 135125, Note_on_c, 2, 71, 70
4, 135195, Note_off_c, 2, 62, 64
4, 135200, Note_off_c, 2, 71, 64
4, 135205, Note_off_c, 2, 67, 64
4, 135365, Note_on_c, 2, 66, 80
4, 135365, Note_on_c, 2, 69, 80
4, 135365, Note_on_c, 2, 74, 80
4, 135450, Note_off_c, 2, 69, 64
4, 135455, Note_off_c, 2, 66, 64
4, 135485, Note_off_c, 2, 74, 64
4, 135715, Note_on_c, 2, 66, 80
4, 135715, Note_on_c, 2, 69, 80
4, 135715, Note_on_c, 2, 74, 80
4, 135825, Note_off_c, 2, 66, 64
4, 135830, Note_off_c, 2, 69, 64
4, 135835, Note_off_c, 2, 74, 64
4, 136075, Note_on_c, 2, 64, 80
4, 136075, Note_on_c, 2, 67, 80
4, 136075, Note_on_c, 2, 72, 80
4, 136200, Note_off_c, 2, 64, 64
4, 136205, Note_off_c, 2, 67, 64
4, 136210, Note_off_c, 2, 72, 64
4, 136555, Note_on_c, 2, 64, 75
4, 136555, Note_on_c, 2, 67, 80
4, 136555, Note_on_c, 2, 72, 80
4, 136670, Note_off_c, 2, 72, 64
4, 136670, Note_off_c, 2, 67, 64
4, 136670, Note_off_c, 2, 64, 64
4, 136675, Note_on_c, 2, 64, 64
4, 136675, Note_on_c, 2, 67, 80
4, 136675, Note_on_c, 2, 72, 69
4, 136795, Note_off_c, 2, 72, 64
4, 136795, Note_off_c, 2, 67, 64
4, 136795, Note_off_c, 2, 64, 64
4, 136800, Note_on_c, 2, 64, 52
4, 136800, Note_on_c, 2, 67, 75
4, 136800, Note_on_c, 2, 72, 65
4, 136915, Note_off_c, 2, 72, 64
4, 136915, Note_off_c, 2, 67, 64
4, 136915, Note_off_c, 2, 64, 64
4, 136920, Note_on_c, 2, 64, 59
4, 136920, Note_on_c, 2, 67, 80
4, 136920, Note_on_c, 2, 72, 72
4, 137035, Note_off_c, 2, 72, 64
4, 137035, Note_off_c, 2, 67, 64
4, 137035, Note_off_c, 2, 64, 64
4, 137040, Note_on_c, 2, 64, 66
4, 137040, Note_on_c, 2, 67, 80
4, 137040, Note_on_c, 2, 72, 72
4, 137160, Note_off_c, 2, 72, 64
4, 137160, Note_off_c, 2, 67, 64
4, 137160, Note_off_c, 2, 64, 64
4, 137290, Note_on_c, 2, 64, 80
4, 137290, Note_on_c, 2, 67, 80
4, 137290, Note_on_c, 2, 72, 80
4, 137395, Note_off_c, 2, 64, 64
4, 137405, Note_off_c, 2, 67, 64
4, 137420, Note_off_c, 2, 72, 64
4, 137750, Note_on_c, 2, 66, 80
4, 137750, Note_on_c, 2, 69, 80
4, 137750, Note_on_c, 2, 74, 80
4, 137895, Note_off_c, 2, 74, 64
4, 137910, Note_off_c, 2, 66, 64
4, 137915, Note_off_c, 2, 69, 64
4, 138490, Note_on_c, 2, 62, 78
4, 138490, Note_on_c, 2, 67, 80
4, 138490, Note_on_c, 2, 71, 80
4, 138605, Note_off_c, 2, 71, 64
4, 138605, Note_off_c, 2, 67, 64
4, 138605, Note_off_c, 2, 62, 64
4, 138610, Note_on_c, 2, 62, 50
4, 138610, Note_on_c, 2, 67, 78
4, 138610, Note_on_c, 2, 71, 66
4, 138720, Note_off_c, 2, 71, 64
4, 138720, Note_off_c, 2, 67, 64
4, 138720, Note_off_c, 2, 62, 64
4, 138725, Note_on_c, 2, 62, 52
4, 138725, Note_on_c, 2, 67, 72
4, 138725, Note_on_c, 2, 71, 65
4, 138835, Note_off_c, 2, 71, 64
4, 138835, Note_off_c, 2, 67, 64
4, 138835, Note_off_c, 2, 62, 64
4, 138840, Note_on_c, 2, 62, 42
4, 138840, Note_on_c, 2, 67, 70
4, 138840, Note_on_c, 2, 71, 65
4, 138841, Note_off_c, 2, 62, 64
4, 138955, Note_off_c, 2, 67, 64
4, 138955, Note_off_c, 2, 71, 64
4, 138960, Note_on_c, 2, 62, 56
4, 138960, Note_on_c, 2, 67, 72
4, 138960, Note_on_c, 2, 71, 64
4, 139080, Note_off_c, 2, 71, 64
4, 139080, Note_off_c, 2, 67, 64
4, 139080, Note_off_c, 2, 62, 64
4, 139200, Note_on_c, 2, 66, 80
4, 139200, Note_on_c, 2, 69, 80
4, 139200, Note_on_c, 2, 74, 80
4, 139290, Note_off_c, 2, 69, 64
4, 139290, Note_off_c, 2, 66, 64
4, 139315, Note_off_c, 2, 74, 64
4, 139560, Note_on_c, 2, 66, 80
4, 139560, Note_on_c, 2, 69, 80
4, 139560, Note_on_c, 2, 74, 80
4, 139660, Note_off_c, 2, 69, 64
4, 139660, Note_off_c, 2, 66, 64
4, 139675, Note_off_c, 2, 74, 64
4, 139920, Note_on_c, 2, 64, 80
4, 139920, Note_on_c, 2, 67, 80
4, 139920, Note_on_c, 2, 72, 80
4, 140050, Note_off_c, 2, 67, 64
4, 140050, Note_off_c, 2, 64, 64
4, 140055, Note_off_c, 2, 72, 64
4, 140395, Note_on_c, 2, 64, 80
4, 140395, Note_on_c, 2, 67, 80
4, 140395, Note_on_c, 2, 72, 80
4, 140510, Note_off_c, 2, 72, 64
4, 140510, Note_off_c, 2, 67, 64
4, 140510, Note_off_c, 2, 64, 64
4, 140515, Note_on_c, 2, 64, 59
4, 140515, Note_on_c, 2, 67, 80
4, 140515, Note_on_c, 2, 72, 65
4, 140630, Note_off_c, 2, 72, 64
4, 140630, Note_off_c, 2, 67, 64
4, 140630, Note_off_c, 2, 64, 64
4, 140635, Note_on_c, 2, 64, 52
4, 140635, Note_on_c, 2, 67, 75
4, 140635, Note_on_c, 2, 72, 70
4, 140750, Note_off_c, 2, 72, 64
4, 140750, Note_off_c, 2, 67, 64
4, 140750, Note_off_c, 2, 64, 64
4, 140755, Note_on_c, 2, 72, 55
4, 140760, Note_on_c, 2, 64, 42
4, 140760, Note_on_c, 2, 67, 75
4, 140875, Note_off_c, 2, 67, 64
4, 140875, Note_off_c, 2, 64, 64
4, 140875, Note_off_c, 2, 72, 64
4, 140880, Note_on_c, 2, 64, 66
4, 140880, Note_on_c, 2, 67, 80
4, 140880, Note_on_c, 2, 72, 75
4, 140881, Note_off_c, 2, 72, 64
4, 141000, Note_off_c, 2, 67, 64
4, 141000, Note_off_c, 2, 64, 64
4, 141125, Note_on_c, 2, 64, 80
4, 141125, Note_on_c, 2, 67, 80
4, 141125, Note_on_c, 2, 72, 80
4, 141240, Note_off_c, 2, 64, 64
4, 141245, Note_off_c, 2, 67, 64
4, 141255, Note_off_c, 2, 72, 64
4, 141605, Note_on_c, 2, 64, 80
4, 141605, Note_on_c, 2, 67, 80
4, 141605, Note_on_c, 2, 72, 80
4, 141720, Note_off_c, 2, 67, 64
4, 141720, Note_off_c, 2, 64, 64
4, 141730, Note_off_c, 2, 72, 64
4, 142325, Note_on_c, 2, 62, 80
4, 142325, Note_on_c, 2, 67, 80
4, 142325, Note_on_c, 2, 71, 80
4, 142440, Note_off_c, 2, 71, 64
4, 142440, Note_off_c, 2, 67, 64
4, 142440, Note_off_c, 2, 62, 64
4, 142445, Note_on_c, 2, 62, 49
4, 142445, Note_on_c, 2, 67, 78
4, 142445, Note_on_c, 2, 71, 70
4, 142555, Note_off_c, 2, 71, 64
4, 142555, Note_off_c, 2, 67, 64
4, 142555, Note_off_c, 2, 62, 64
4, 142560, Note_on_c, 2, 62, 47
4, 142565, Note_on_c, 2, 67, 80
4, 142565, Note_on_c, 2, 71, 72
4, 142680, Note_off_c, 2, 71, 64
4, 142680, Note_off_c, 2, 67, 64
4, 142680, Note_off_c, 2, 62, 64
4, 142685, Note_on_c, 2, 62, 56
4, 142685, Note_on_c, 2, 67, 75
4, 142685, Note_on_c, 2, 71, 72
4, 142800, Note_off_c, 2, 71, 64
4, 142800, Note_off_c, 2, 67, 64
4, 142800, Note_off_c, 2, 62, 64
4, 142805, Note_on_c, 2, 62, 64
4, 142805, Note_on_c, 2, 67, 75
4, 142805, Note_on_c, 2, 71, 70
4, 142875, Note_off_c, 2, 62, 64
4, 142880, Note_off_c, 2, 71, 64
4, 142885, Note_off_c, 2, 67, 64
4, 143045, Note_on_c, 2, 66, 80
4, 143045, Note_on_c, 2, 69, 80
4, 143045, Note_on_c, 2, 74, 80
4, 143130, Note_off_c, 2, 69, 64
4, 143135, Note_off_c, 2, 66, 64
4, 143165, Note_off_c, 2, 74, 64
4, 143395, Note_on_c, 2, 66, 80
4, 143395, Note_on_c, 2, 69, 80
4, 143395, Note_on_c, 2, 74, 80
4, 143505, Note_off_c, 2, 66, 64
4, 143510, Note_off_c, 2, 69, 64
4, 143515, Note_off_c, 2, 74, 64
4, 143755, Note_on_c, 2, 64, 80
4, 143755, Note_on_c, 2, 67, 80
4, 143755, Note_on_c, 2, 72, 80
4, 143880, Note_off_c, 2, 64, 64
4, 143885, Note_off_c, 2, 67, 64
4, 143890, Note_off_c, 2, 72, 64
4, 144235, Note_on_c, 2, 64, 75
4, 144235, Note_on_c, 2, 67, 80
4, 144235, Note_on_c, 2, 72, 80
4, 144350, Note_off_c, 2, 72, 64
4, 144350, Note_off_c, 2, 67, 64
4, 144350, Note_off_c, 2, 64, 64
4, 144355, Note_on_c, 2, 64, 64
4, 144355, Note_on_c, 2, 67, 80
4, 144355, Note_on_c, 2, 72, 69
4, 144475, Note_off_c, 2, 72, 64
4, 144475, Note_off_c, 2, 67, 64
4, 144475, Note_off_c, 2, 64, 64
4, 144480, Note_on_c, 2, 64, 52
4, 144480, Note_on_c, 2, 67, 75
4, 144480, Note_on_c, 2, 72, 65
4, 144595, Note_off_c, 2, 72, 64
4, 144595, Note_off_c, 2, 67, 64
4, 144595, Note_off_c, 2, 64, 64
4, 144600, Note_on_c, 2, 64, 59
4, 144600, Note_on_c, 2, 67, 80
4, 144600, Note_on_c, 2, 72, 72
4, 144715, Note_off_c, 2, 72, 64
4, 144715, Note_off_c, 2, 67, 64
4, 144715, Note_off_c, 2, 64, 64
4, 144720, Note_on_c, 2, 64, 66
4, 144720, Note_on_c, 2, 67, 80
4, 144720, Note_on_c, 2, 72, 72
4, 144840, Note_off_c, 2, 72, 64
4, 144840, Note_off_c, 2, 67, 64
4, 144840, Note_off_c, 2, 64, 64
4, 144970, Note_on_c, 2, 64, 80
4, 144970, Note_on_c, 2, 67, 80
4, 144970, Note_on_c, 2, 72, 80
4, 145075, Note_off_c, 2, 64, 64
4, 145085, Note_off_c, 2, 67, 64
4, 145100, Note_off_c, 2, 72, 64
4, 145430, Note_on_c, 2, 66, 80
4, 145430, Note_on_c, 2, 69, 80
4, 145430, Note_on_c, 2, 74, 80
4, 145575, Note_off_c, 2, 74, 64
4, 145590, Note_off_c, 2, 66, 64
4, 145595, Note_off_c, 2, 69, 64
4, 146170, Note_on_c, 2, 62, 78
4, 146170, Note_on_c, 2, 67, 80
4, 146170, Note_on_c, 2, 71, 80
4, 146285, Note_off_c, 2, 71, 64
4, 146285, Note_off_c, 2, 67, 64
4, 146285, Note_off_c, 2, 62, 64
4, 146290, Note_on_c, 2, 62, 50
4, 146290, Note_on_c, 2, 67, 78
4, 146290, Note_on_c, 2, 71, 66
4, 146400, Note_off_c, 2, 71, 64
4, 146400, Note_off_c, 2, 67, 64
4, 146400, Note_off_c, 2, 62, 64
4, 146405, Note_on_c, 2, 62, 52
4, 146405, Note_on_c, 2, 67, 72
4, 146405, Note_on_c, 2, 71, 65
4, 146515, Note_off_c, 2, 71, 64
4, 146515, Note_off_c, 2, 67, 64
4, 146515, Note_off_c, 2, 62, 64
4, 146520, Note_on_c, 2, 62, 42
4, 146520, Note_on_c, 2, 67, 70
4, 146520, Note_on_c, 2, 71, 65
4, 146521, Note_off_c, 2, 62, 64
4, 146635, Note_off_c, 2, 67, 64
4, 146635, Note_off_c, 2, 71, 64
4, 146640, Note_on_c, 2, 62, 56
4, 146640, Note_on_c, 2, 67, 72
4, 146640, Note_on_c, 2, 71, 64
4, 146760, Note_off_c, 2, 71, 64
4, 146760, Note_off_c, 2, 67, 64
4, 146760, Note_off_c, 2, 62, 64
4, 146880, Note_on_c, 2, 66, 80
4, 146880, Note_on_c, 2, 69, 80
4, 146880, Note_on_c, 2, 74, 80
4, 146970, Note_off_c, 2, 69, 64
4, 146970, Note_off_c, 2, 66, 64
4, 146995, Note_off_c, 2, 74, 64
4, 147240, Note_on_c, 2, 66, 80
4, 147240, Note_on_c, 2, 69, 80
4, 147240, Note_on_c, 2, 74, 80
4, 147340, Note_off_c, 2, 69, 64
4, 147340, Note_off_c, 2, 66, 64
4, 147355, Note_off_c, 2, 74, 64
4, 147600, Note_on_c, 2, 64, 80
4, 147600, Note_on_c, 2, 67, 80
4, 147600, Note_on_c, 2, 72, 80
4, 147730, Note_off_c, 2, 67, 64
4, 147730, Note_off_c, 2, 64, 64
4, 147735, Note_off_c, 2, 72, 64
4, 148075, Note_on_c, 2, 64, 80
4, 148075, Note_on_c, 2, 67, 80
4, 148075, Note_on_c, 2, 72, 80
4, 148190, Note_off_c, 2, 72, 64
4, 148190, Note_off_c, 2, 67, 64
4, 148190, Note_off_c, 2, 64, 64
4, 148195, Note_on_c, 2, 64, 59
4, 148195, Note_on_c, 2, 67, 80
4, 148195, Note_on_c, 2, 72, 65
4, 148310, Note_off_c, 2, 72, 64
4, 148310, Note_off_c, 2, 67, 64
4, 148310, Note_off_c, 2, 64, 64
4, 148315, Note_on_c, 2, 64, 52
4, 148315, Note_on_c, 2, 67, 75
4, 148315, Note_on_c, 2, 72, 70
4, 148430, Note_off_c, 2, 72, 64
4, 148430, Note_off_c, 2, 67, 64
4, 148430, Note_off_c, 2, 64, 64
4, 148435, Note_on_c, 2, 72, 55
4, 148440, Note_on_c, 2, 64, 42
4, 148440, Note_on_c, 2, 67, 75
4, 148555, Note_off_c, 2, 67, 64
4, 148555, Note_off_c, 2, 64, 64
4, 148555, Note_off_c, 2, 72, 64
4, 148560, Note_on_c, 2, 64, 66
4, 148560, Note_on_c, 2, 67, 80
4, 148560, Note_on_c, 2, 72, 75
4, 148561, Note_off_c, 2, 72, 64
4, 148680, Note_off_c, 2, 67, 64
4, 148680, Note_off_c, 2, 64, 64
4, 148805, Note_on_c, 2, 64, 80
4, 148805, Note_on_c, 2, 67, 80
4, 148805, Note_on_c, 2, 72, 80
4, 148920, Note_off_c, 2, 64, 64
4, 148925, Note_off_c, 2, 67, 64
4, 148935, Note_off_c, 2, 72, 64
4, 149285, Note_on_c, 2, 64, 80
4, 149285, Note_on_c, 2, 67, 80
4, 149285, Note_on_c, 2, 72, 80
4, 149400, Note_off_c, 2, 67, 64
4, 149400, Note_off_c, 2, 64, 64
4, 149410, Note_off_c, 2, 72, 64
4, 150005, Note_on_c, 2, 62, 80
4, 150005, Note_on_c, 2, 67, 80
4, 150005, Note_on_c, 2, 71, 80
4, 150120, Note_off_c, 2, 71, 64
4, 150120, Note_off_c, 2, 67, 64
4, 150120, Note_off_c, 2, 62, 64
4, 150125, Note_on_c, 2, 62, 49
4, 150125, Note_on_c, 2, 67, 78
4, 150125, Note_on_c, 2, 71, 70
4, 150235, Note_off_c, 2, 71, 64
4, 150235, Note_off_c, 2, 67, 64
4, 150235, Note_off_c, 2, 62, 64
4, 150240, Note_on_c, 2, 62, 47
4, 150245, Note_on_c, 2, 67, 80
4, 150245, Note_on_c, 2, 71, 72
4, 150360, Note_off_c, 2, 71, 64
4, 150360, Note_off_c, 2, 67, 64
4, 150360, Note_off_c, 2, 62, 64
4, 150365, Note_on_c, 2, 62, 56
4, 150365, Note_on_c, 2, 67, 75
4, 150365, Note_on_c, 2, 71, 72
4, 150480, Note_off_c, 2, 71, 64
4, 150480, Note_off_c, 2, 67, 64
4, 150480, Note_off_c, 2, 62, 64
4, 150485, Note_on_c, 2, 62, 64
4, 150485, Note_on_c, 2, 67, 75
4, 150485, Note_on_c, 2, 71, 70
4, 150555, Note_off_c, 2, 62, 64
4, 150560, Note_off_c, 2, 71, 64
4, 150565, Note_off_c, 2, 67, 64
4, 150725, Note_on_c, 2, 66, 80
4, 150725, Note_on_c, 2, 69, 80
4, 150725, Note_on_c, 2, 74, 80
4, 150810, Note_off_c, 2, 69, 64
4, 150815, Note_off_c, 2, 66, 64
4, 150845, Note_off_c, 2, 74, 64
4, 151075, Note_on_c, 2, 66, 80
4, 151075, Note_on_c, 2, 69, 80
4, 151075, Note_on_c, 2, 74, 80
4, 151185, Note_off_c, 2, 66, 64
4, 151190, Note_off_c, 2, 69, 64
4, 151195, Note_off_c, 2, 74, 64
4, 151435, Note_on_c, 2, 64, 80
4, 151435, Note_on_c, 2, 67, 80
4, 151435, Note_on_c, 2, 72, 80
4, 151560, Note_off_c, 2, 64, 64
4, 151565, Note_off_c, 2, 67, 64
4, 151570, Note_off_c, 2, 72, 64
4, 151915, Note_on_c, 2, 64, 75
4, 151915, Note_on_c, 2, 67, 80
4, 151915, Note_on_c, 2, 72, 80
4, 152030, Note_off_c, 2, 72, 64
4, 152030, Note_off_c, 2, 67, 64
4, 152030, Note_off_c, 2, 64, 64
4, 152035, Note_on_c, 2, 64, 64
4, 152035, Note_on_c, 2, 67, 80
4, 152035, Note_on_c, 2, 72, 69
4, 152155, Note_off_c, 2, 72, 64
4, 152155, Note_off_c, 2, 67, 64
4, 152155, Note_off_c, 2, 64, 64
4, 152160, Note_on_c, 2, 64, 52
4, 152160, Note_on_c, 2, 67, 75
4, 152160, Note_on_c, 2, 72, 65
4, 152275, Note_off_c, 2, 72, 64
4, 152275, Note_off_c, 2, 67, 64
4, 152275, Note_off_c, 2, 64, 64
4, 152280, Note_on_c, 2, 64, 59
4, 152280, Note_on_c, 2, 67, 80
4, 152280, Note_on_c, 2, 72, 72
4, 152395, Note_off_c, 2, 72, 64
4, 152395, Note_off_c, 2, 67, 64
4, 152395, Note_off_c, 2, 64, 64
4, 152400, Note_on_c, 2, 64, 66
4, 152400, Note_on_c, 2, 67, 80
4, 152400, Note_on_c, 2, 72, 72
4, 152520, Note_off_c, 2, 72, 64
4, 152520, Note_off_c, 2, 67, 64
4, 152520, Note_off_c, 2, 64, 64
4, 152650, Note_on_c, 2, 64, 80
4, 152650, Note_on_c, 2, 67, 80
4, 152650, Note_on_c, 2, 72, 80
4, 152755, Note_off_c, 2, 64, 64
4, 152765, Note_off_c, 2, 67, 64
4, 152780, Note_off_c, 2, 72, 64
4, 153110, Note_on_c, 2, 66, 80
4, 153110, Note_on_c, 2, 69, 80
4, 153110, Note_on_c, 2, 74, 80
4, 153255, Note_off_c, 2, 74, 64
4, 153270, Note_off_c, 2, 66, 64
4, 153275, Note_off_c, 2, 69, 64
4, 153850, Note_on_c, 2, 62, 78
4, 153850, Note_on_c, 2, 67, 80
4, 153850, Note_on_c, 2, 71, 80
4, 153965, Note_off_c, 2, 71, 64
4, 153965, Note_off_c, 2, 67, 64
4, 153965, Note_off_c, 2, 62, 64
4, 153970, Note_on_c, 2, 62, 50
4, 153970, Note_on_c, 2, 67, 78
4, 153970, Note_on_c, 2, 71, 66
4, 154080, Note_off_c, 2, 71, 64
4, 154080, Note_off_c, 2, 67, 64
4, 154080, Note_off_c, 2, 62, 64
4, 154085, Note_on_c, 2, 62, 52
4, 154085, Note_on_c, 2, 67, 72
4, 154085, Note_on_c, 2, 71, 65
4, 154195, Note_off_c, 2, 71, 64
4, 154195, Note_off_c, 2, 67, 64
4, 154195, Note_off_c, 2, 62, 64
4, 154200, Note_on_c, 2, 62, 42
4, 154200, Note_on_c, 2, 67, 70
4, 154200, Note_on_c, 2, 71, 65
4, 154201, Note_off_c, 2, 62, 64
4, 154315, Note_off_c, 2, 67, 64
4, 154315, Note_off_c, 2, 71, 64
4, 154320, Note_on_c, 2, 62, 56
4, 154320, Note_on_c, 2, 67, 72
4, 154320, Note_on_c, 2, 71, 64
4, 154440, Note_off_c, 2, 71, 64
4, 154440, Note_off_c, 2, 67, 64
4, 154440, Note_off_c, 2, 62, 64
4, 154560, Note_on_c, 2, 66, 80
4, 154560, Note_on_c, 2, 69, 80
4, 154560, Note_on_c, 2, 74, 80
4, 154650, Note_off_c, 2, 69, 64
4, 154650, Note_off_c, 2, 66, 64
4, 154675, Note_off_c, 2, 74, 64
4, 154920, Note_on_c, 2, 66, 80
4, 154920, Note_on_c, 2, 69, 80
4, 154920, Note_on_c, 2, 74, 80
4, 155020, Note_off_c, 2, 69, 64
4, 155020, Note_off_c, 2, 66, 64
4, 155035, Note_off_c, 2, 74, 64
4, 155280, Note_on_c, 2, 64, 80
4, 155280, Note_on_c, 2, 67, 80
4, 155280, Note_on_c, 2, 72, 80
4, 155410, Note_off_c, 2, 67, 64
4, 155410, Note_off_c, 2, 64, 64
4, 155415, Note_off_c, 2, 72, 64
4, 155755, Note_on_c, 2, 64, 80
4, 155755, Note_on_c, 2, 67, 80
4, 155755, Note_on_c, 2, 72, 80
4, 155870, Note_off_c, 2, 72, 64
4, 155870, Note_off_c, 2, 67, 64
4, 155870, Note_off_c, 2, 64, 64
4, 155875, Note_on_c, 2, 64, 59
4, 155875, Note_on_c, 2, 67, 80
4, 155875, Note_on_c, 2, 72, 65
4, 155990, Note_off_c, 2, 72, 64
4, 155990, Note_off_c, 2, 67, 64
4, 155990, Note_off_c, 2, 64, 64
4, 155995, Note_on_c, 2, 64, 52
4, 155995, Note_on_c, 2, 67, 75
4, 155995, Note_on_c, 2, 72, 70
4, 156110, Note_off_c, 2, 72, 64
4, 156110, Note_off_c, 2, 67, 64
4, 156110, Note_off_c, 2, 64, 64
4, 156115, Note_on_c, 2, 72, 55
4, 156120, Note_on_c, 2, 64, 42
4, 156120, Note_on_c, 2, 67, 75
4, 156235, Note_off_c, 2, 67, 64
4, 156235, Note_off_c, 2, 64, 64
4, 156235, Note_off_c, 2, 72, 64
4, 156240, Note_on_c, 2, 64, 66
4, 156240, Note_on_c, 2, 67, 80
4, 156240, Note_on_c, 2, 72, 75
4, 156241, Note_off_c, 2, 72, 64
4, 156360, Note_off_c, 2, 67, 64
4, 156360, Note_off_c, 2, 64, 64
4, 156485, Note_on_c, 2, 64, 80
4, 156485, Note_on_c, 2, 67, 80
4, 156485, Note_on_c, 2, 72, 80
4, 156600, Note_off_c, 2, 64, 64
4, 156605, Note_off_c, 2, 67, 64
4, 156615, Note_off_c, 2, 72, 64
4, 156965, Note_on_c, 2, 64, 80
4, 156965, Note_on_c, 2, 67, 80
4, 156965, Note_on_c, 2, 72, 80
4, 157080, Note_off_c, 2, 67, 64
4, 157080, Note_off_c, 2, 64, 64
4, 157090, Note_off_c, 2, 72, 64
4, 157685, Note_on_c, 2, 62, 80
4, 157685, Note_on_c, 2, 67, 80
4, 157685, Note_on_c, 2, 71, 80
4, 157800, Note_off_c, 2, 71, 64
4, 157800, Note_off_c, 2, 67, 64
4, 157800, Note_off_c, 2, 62, 64
4, 157805, Note_on_c, 2, 62, 49
4, 157805, Note_on_c, 2, 67, 78
4, 157805, Note_on_c, 2, 71, 70
4, 157915, Note_off_c, 2, 71, 64
4, 157915, Note_off_c, 2, 67, 64
4, 157915, Note_off_c, 2, 62, 64
4, 157920, Note_on_c, 2, 62, 47
4, 157925, Note_on_c, 2, 67, 80
4, 157925, Note_on_c, 2, 71, 72
4, 158040, Note_off_c, 2, 71, 64
4, 158040, Note_off_c, 2, 67, 64
4, 158040, Note_off_c, 2, 62, 64
4, 158045, Note_on_c, 2, 62, 56
4, 158045, Note_on_c, 2, 67, 75
4, 158045, Note_on_c, 2, 71, 72
4, 158160, Note_off_c, 2, 71, 64
4, 158160, Note_off_c, 2, 67, 64
4, 158160, Note_off_c, 2, 62, 64
4, 158165, Note_on_c, 2, 62, 64
4, 158165, Note_on_c, 2, 67, 75
4, 158165, Note_on_c, 2, 71, 70
4, 158235, Note_off_c, 2, 62, 64
4, 158240, Note_off_c, 2, 71, 64
4, 158245, Note_off_c, 2, 67, 64
4, 158405, Note_on_c, 2, 66, 80
4, 158405, Note_on_c, 2, 69, 80
4, 158405, Note_on_c, 2, 74, 80
4, 158490, Note_off_c, 2, 69, 64
4, 158495, Note_off_c, 2, 66, 64
4, 158525, Note_off_c, 2, 74, 64
4, 158755, Note_on_c, 2, 66, 80
4, 158755, Note_on_c, 2, 69, 80
4, 158755, Note_on_c, 2, 74, 80
4, 158865, Note_off_c, 2, 66, 64
4, 158870, Note_off_c, 2, 69, 64
4, 158875, Note_off_c, 2, 74, 64
4, 159115, Note_on_c, 2, 64, 80
4, 159115, Note_on_c, 2, 67, 80
4, 159115, Note_on_c, 2, 72, 80
4, 159240, Note_off_c, 2, 64, 64
4, 159245, Note_off_c, 2, 67, 64
4, 159250, Note_off_c, 2, 72, 64
4, 159595, Note_on_c, 2, 64, 75
4, 159595, Note_on_c, 2, 67, 80
4, 159595, Note_on_c, 2, 72, 80
4, 159710, Note_off_c, 2, 72, 64
4, 159710, Note_off_c, 2, 67, 64
4, 159710, Note_off_c, 2, 64, 64
4, 159715, Note_on_c, 2, 64, 64
4, 159715, Note_on_c, 2, 67, 80
4, 159715, Note_on_c, 2, 72, 69
4, 159835, Note_off_c, 2, 72, 64
4, 159835, Note_off_c, 2, 67, 64
4, 159835, Note_off_c, 2, 64, 64
4, 159840, Note_on_c, 2, 64, 52
4, 159840, Note_on_c, 2, 67, 75
4, 159840, Note_on_c, 2, 72, 65
4, 159955, Note_off_c, 2, 72, 64
4, 159955, Note_off_c, 2, 67, 64
4, 159955, Note_off_c, 2, 64, 64
4, 159960, Note_on_c, 2, 64, 59
4, 159960, Note_on_c, 2, 67, 80
4, 159960, Note_on_c, 2, 72, 72
4, 160075, Note_off_c, 2, 72, 64
4, 160075, Note_off_c, 2, 67, 64
4, 160075, Note_off_c, 2, 64, 64
4, 160080, Note_on_c, 2, 64, 66
4, 160080, Note_on_c, 2, 67, 80
4, 160080, Note_on_c, 2, 72, 72
4, 160200, Note_off_c, 2, 72, 64
4, 160200, Note_off_c, 2, 67, 64
4, 160200, Note_off_c, 2, 64, 64
4, 160330, Note_on_c, 2, 64, 80
4, 160330, Note_on_c, 2, 67, 80
4, 160330, Note_on_c, 2, 72, 80
4, 160435, Note_off_c, 2, 64, 64
4, 160445, Note_off_c, 2, 67, 64
4, 160460, Note_off_c, 2, 72, 64
4, 160790, Note_on_c, 2, 66, 80
4, 160790, Note_on_c, 2, 69, 80
4, 160790, Note_on_c, 2, 74, 80
4, 160935, Note_off_c, 2, 74, 64
4, 160950, Note_off_c, 2, 66, 64
4, 160955, Note_off_c, 2, 69, 64
4, 161530, Note_on_c, 2, 62, 78
4, 161530, Note_on_c, 2, 67, 80
4, 161530, Note_on_c, 2, 71, 80
4, 161645, Note_off_c, 2, 71, 64
4, 161645, Note_off_c, 2, 67, 64
4, 161645, Note_off_c, 2, 62, 64
4, 161650, Note_on_c, 2, 62, 50
4, 161650, Note_on_c, 2, 67, 78
4, 161650, Note_on_c, 2, 71, 66
4, 161760, Note_off_c, 2, 71, 64
4, 161760, Note_off_c, 2, 67, 64
4, 161760, Note_off_c, 2, 62, 64
4, 161765, Note_on_c, 2, 62, 52
4, 161765, Note_on_c, 2, 67, 72
4, 161765, Note_on_c, 2, 71, 65
4, 161875, Note_off_c, 2, 71, 64
4, 161875, Note_off_c, 2, 67, 64
4, 161875, Note_off_c, 2, 62, 64
4, 161880, Note_on_c, 2, 62, 42
4, 161880, Note_on_c, 2, 67, 70
4, 161880, Note_on_c, 2, 71, 65
4, 161881, Note_off_c, 2, 62, 64
4, 161995, Note_off_c, 2, 67, 64
4, 161995, Note_off_c, 2, 71, 64
4, 162000, Note_on_c, 2, 62, 56
4, 162000, Note_on_c, 2, 67, 72
4, 162000, Note_on_c, 2, 71, 64
4, 162120, Note_off_c, 2, 71, 64
4, 162120, Note_off_c, 2, 67, 64
4, 162120, Note_off_c, 2, 62, 64
4, 162240, Note_on_c, 2, 66, 80
4, 162240, Note_on_c, 2, 69, 80
4, 162240, Note_on_c, 2, 74, 80
4, 162330, Note_off_c, 2, 69, 64
4, 162330, Note_off_c, 2, 66, 64
4, 162355, Note_off_c, 2, 74, 64
4, 162600, Note_on_c, 2, 66, 80
4, 162600, Note_on_c, 2, 69, 80
4, 162600, Note_on_c, 2, 74, 80
4, 162700, Note_off_c, 2, 69, 64
4, 162700, Note_off_c, 2, 66, 64
4, 162715, Note_off_c, 2, 74, 64
4, 162960, Note_on_c, 2, 64, 80
4, 162960, Note_on_c, 2, 67, 80
4, 162960, Note_on_c, 2, 72, 80
4, 163090, Note_off_c, 2, 67, 64
4, 163090, Note_off_c, 2, 64, 64
4, 163095, Note_off_c, 2, 72, 64
4, 163435, Note_on_c, 2, 64, 80
4, 163435, Note_on_c, 2, 67, 80
4, 163435, Note_on_c, 2, 72, 80
4, 163550, Note_off_c, 2, 72, 64
4, 163550, Note_off_c, 2, 67, 64
4, 163550, Note_off_c, 2, 64, 64
4, 163555, Note_on_c, 2, 64, 59
4, 163555, Note_on_c, 2, 67, 80
4, 163555, Note_on_c, 2, 72, 65
4, 163670, Note_off_c, 2, 72, 64
4, 163670, Note_off_c, 2, 67, 64
4, 163670, Note_off_c, 2, 64, 64
4, 163675, Note_on_c, 2, 64, 52
4, 163675, Note_on_c, 2, 67, 75
4, 163675, Note_on_c, 2, 72, 70
4, 163790, Note_off_c, 2, 72, 64
4, 163790, Note_off_c, 2, 67, 64
4, 163790, Note_off_c, 2, 64, 64
4, 163795, Note_on_c, 2, 72, 55
4, 163800, Note_on_c, 2, 64, 42
4, 163800, Note_on_c, 2, 67, 75
4, 163915, Note_off_c, 2, 67, 64
4, 163915, Note_off_c, 2, 64, 64
4, 163915, Note_off_c, 2, 72, 64
4, 163920, Note_on_c, 2, 64, 66
4, 163920, Note_on_c, 2, 67, 80
4, 163920, Note_on_c, 2, 72, 75
4, 163921, Note_off_c, 2, 72, 64
4, 164040, Note_off_c, 2, 67, 64
4, 164040, Note_off_c, 2, 64, 64
4, 164165, Note_on_c, 2, 64, 80
4, 164165, Note_on_c, 2, 67, 80
4, 164165, Note_on_c, 2, 72, 80
4, 164280, Note_off_c, 2, 64, 64
4, 164285, Note_off_c, 2, 67, 64
4, 164295, Note_off_c, 2, 72, 64
4, 164645, Note_on_c, 2, 64, 80
4, 164645, Note_on_c, 2, 67, 80
4, 164645, Note_on_c, 2, 72, 80
4, 164760, Note_off_c, 2, 67, 64
4, 164760, Note_off_c, 2, 64, 64
4, 164770, Note_off_c, 2, 72, 64
4, 165365, Note_on_c, 2, 62, 80
4, 165365, Note_on_c, 2, 67, 80
4, 165365, Note_on_c, 2, 71, 80
4, 165480, Note_off_c, 2, 71, 64
4, 165480, Note_off_c, 2, 67, 64
4, 165480, Note_off_c, 2, 62, 64
4, 165485, Note_on_c, 2, 62, 49
4, 165485, Note_on_c, 2, 67, 78
4, 165485, Note_on_c, 2, 71, 70
4, 165595, Note_off_c, 2, 71, 64
4, 165595, Note_off_c, 2, 67, 64
4, 165595, Note_off_c, 2, 62, 64
4, 165600, Note_on_c, 2, 62, 47
4, 165605, Note_on_c, 2, 67, 80
4, 165605, Note_on_c, 2, 71, 72
4, 165720, Note_off_c, 2, 71, 64
4, 165720, Note_off_c, 2, 67, 64
4, 165720, Note_off_c, 2, 62, 64
4, 165725, Note_on_c, 2, 62, 56
4, 165725, Note_on_c, 2, 67, 75
4, 165725, Note_on_c, 2, 71, 72
4, 165840, Note_off_c, 2, 71, 64
4, 165840, Note_off_c, 2, 67, 64
4, 165840, Note_off_c, 2, 62, 64
4, 165845, Note_on_c, 2, 62, 64
4, 165845, Note_on_c, 2, 67, 75
4, 165845, Note_on_c, 2, 71, 70
4, 165915, Note_off_c, 2, 62, 64
4, 165920, Note_off_c, 2, 71, 64
4, 165925, Note_off_c, 2, 67, 64
4, 166085, Note_on_c, 2, 66, 80
4, 166085, Note_on_c, 2, 69, 80
4, 166085, Note_on_c, 2, 74, 80
4, 166170, Note_off_c, 2, 69, 64
4, 166175, Note_off_c, 2, 66, 64
4, 166205, Note_off_c, 2, 74, 64
4, 166435, Note_on_c, 2, 66, 80
4, 166435, Note_on_c, 2, 69, 80
4, 166435, Note_on_c, 2, 74, 80
4, 166545, Note_off_c, 2, 66, 64
4, 166550, Note_off_c, 2, 69, 64
4, 166555, Note_off_c, 2, 74, 64
4, 166795, Note_on_c, 2, 64, 80
4, 166795, Note_on_c, 2, 67, 80
4, 166795, Note_on_c, 2, 72, 80
4, 166920, Note_off_c, 2, 64, 64
4, 166925, Note_off_c, 2, 67, 64
4, 166930, Note_off_c, 2, 72, 64
4, 167275, Note_on_c, 2, 64, 75
4, 167275, Note_on_c, 2, 67, 80
4, 167275, Note_on_c, 2, 72, 80
4, 167390, Note_off_c, 2, 72, 64
4, 167390, Note_off_c, 2, 67, 64
4, 167390, Note_off_c, 2, 64, 64
4, 167395, Note_on_c, 2, 64, 64
4, 167395, Note_on_c, 2, 67, 80
4, 167395, Note_on_c, 2, 72, 69
4, 167515, Note_off_c, 2, 72, 64
4, 167515, Note_off_c, 2, 67, 64
4, 167515, Note_off_c, 2, 64, 64
4, 167520, Note_on_c, 2, 64, 52
4, 167520, Note_on_c, 2, 67, 75
4, 167520, Note_on_c, 2, 72, 65
4, 167635, Note_off_c, 2, 72, 64
4, 167635, Note_off_c, 2, 67, 64
4, 167635, Note_off_c, 2, 64, 64
4, 167640, Note_on_c, 2, 64, 59
4, 167640, Note_on_c, 2, 67, 80
4, 167640, Note_on_c, 2, 72, 72
4, 167755, Note_off_c, 2, 72, 64
4, 167755, Note_off_c, 2, 67, 64
4, 167755, Note_off_c, 2, 64, 64
4, 167760, Note_on_c, 2, 64, 66
4, 167760, Note_on_c, 2, 67, 80
4, 167760, Note_on_c, 2, 72, 72
4, 167880, Note_off_c, 2, 72, 64
4, 167880, Note_off_c, 2, 67, 64
4, 167880, Note_off_c, 2, 64, 64
4, 168010, Note_on_c, 2, 64, 80
4, 168010, Note_on_c, 2, 67, 80
4, 168010, Note_on_c, 2, 72, 80
4, 168115, Note_off_c, 2, 64, 64
4, 168125, Note_off_c, 2, 67, 64
4, 168140, Note_off_c, 2, 72, 64
4, 168470, Note_on_c, 2, 66, 80
4, 168470, Note_on_c, 2, 69, 80
4, 168470, Note_on_c, 2, 74, 80
4, 168615, Note_off_c, 2, 74, 64
4, 168630, Note_off_c, 2, 66, 64
4, 168635, Note_off_c, 2, 69, 64
4, 169210, Note_on_c, 2, 62, 78
4, 169210, Note_on_c, 2, 67, 80
4, 169210, Note_on_c, 2, 71, 80
4, 169325, Note_off_c, 2, 71, 64
4, 169325, Note_off_c, 2, 67, 64
4, 169325, Note_off_c, 2, 62, 64
4, 169330, Note_on_c, 2, 62, 50
4, 169330, Note_on_c, 2, 67, 78
4, 169330, Note_on_c, 2, 71, 66
4, 169440, Note_off_c, 2, 71, 64
4, 169440, Note_off_c, 2, 67, 64
4, 169440, Note_off_c, 2, 62, 64
4, 169445, Note_on_c, 2, 62, 52
4, 169445, Note_on_c, 2, 67, 72
4, 169445, Note_on_c, 2, 71, 65
4, 169555, Note_off_c, 2, 71, 64
4, 169555, Note_off_c, 2, 67, 64
4, 169555, Note_off_c, 2, 62, 64
4, 169560, Note_on_c, 2, 62, 42
4, 169560, Note_on_c, 2, 67, 70
4, 169560, Note_on_c, 2, 71, 65
4, 169561, Note_off_c, 2, 62, 64
4, 169675, Note_off_c, 2, 67, 64
4, 169675, Note_off_c, 2, 71, 64
4, 169680, Note_on_c, 2, 62, 56
4, 169680, Note_on_c, 2, 67, 72
4, 169680, Note_on_c, 2, 71, 64
4, 169800, Note_off_c, 2, 71, 64
4, 169800, Note_off_c, 2, 67, 64
4, 169800, Note_off_c, 2, 62, 64
4, 169920, Note_on_c, 2, 66, 80
4, 169920, Note_on_c, 2, 69, 80
4, 169920, Note_on_c, 2, 74, 80
4, 170010, Note_off_c, 2, 69, 64
4, 170010, Note_off_c, 2, 66, 64
4, 170035, Note_off_c, 2, 74, 64
4, 170280, Note_on_c, 2, 66, 80
4, 170280, Note_on_c, 2, 69, 80
4, 170280, Note_on_c, 2, 74, 80
4, 170380, Note_off_c, 2, 69, 64
4, 170380, Note_off_c, 2, 66, 64
4, 170395, Note_off_c, 2, 74, 64
4, 170640, Note_on_c, 2, 64, 80
4, 170640, Note_on_c, 2, 67, 80
4, 170640, Note_on_c, 2, 72, 80
4, 170770, Note_off_c, 2, 67, 64
4, 170770, Note_off_c, 2, 64, 64
4, 170775, Note_off_c, 2, 72, 64
4, 171115, Note_on_c, 2, 64, 80
4, 171115, Note_on_c, 2, 67, 80
4, 171115, Note_on_c, 2, 72, 80
4, 171230, Note_off_c, 2, 72, 64
4, 171230, Note_off_c, 2, 67, 64
4, 171230, Note_off_c, 2, 64, 64
4, 171235, Note_on_c, 2, 64, 59
4, 171235, Note_on_c, 2, 67, 80
4, 171235, Note_on_c, 2, 72, 65
4, 171350, Note_off_c, 2, 72, 64
4, 171350, Note_off_c, 2, 67, 64
4, 171350, Note_off_c, 2, 64, 64
4, 171355, Note_on_c, 2, 64, 52
4, 171355, Note_on_c, 2, 67, 75
4, 171355, Note_on_c, 2, 72, 70
4, 171470, Note_off_c, 2, 72, 64
4, 171470, Note_off_c, 2, 67, 64
4, 171470, Note_off_c, 2, 64, 64
4, 171475, Note_on_c, 2, 72, 55
4, 171480, Note_on_c, 2, 64, 42
4, 171480, Note_on_c, 2, 67, 75
4, 171595, Note_off_c, 2, 67, 64
4, 171595, Note_off_c, 2, 64, 64
4, 171595, Note_off_c, 2, 72, 64
4, 171600, Note_on_c, 2, 64, 66
4, 171600, Note_on_c, 2, 67, 80
4, 171600, Note_on_c, 2, 72, 75
4, 171601, Note_off_c, 2, 72, 64
4, 171720, Note_off_c, 2, 67, 64
4, 171720, Note_off_c, 2, 64, 64
4, 171845, Note_on_c, 2, 64, 80
4, 171845, Note_on_c, 2, 67, 80
4, 171845, Note_on_c, 2, 72, 80
4, 171960, Note_off_c, 2, 64, 64
4, 171965, Note_off_c, 2, 67, 64
4, 171975, Note_off_c, 2, 72, 64
4, 172325, Note_on_c, 2, 64, 80
4, 172325, Note_on_c, 2, 67, 80
4, 172325, Note_on_c, 2, 72, 80
4, 172440, Note_off_c, 2, 67, 64
4, 172440, Note_off_c, 2, 64, 64
4, 172450, Note_off_c, 2, 72, 64
4, 173045, Note_on_c, 2, 62, 80
4, 173045, Note_on_c, 2, 67, 80
4, 173045, Note_on_c, 2, 71, 80
4, 173160, Note_off_c, 2, 71, 64
4, 173160, Note_off_c, 2, 67, 64
4, 173160, Note_off_c, 2, 62, 64
4, 173165, Note_on_c, 2, 62, 49
4, 173165, Note_on_c, 2, 67, 78
4, 173165, Note_on_c, 2, 71, 70
4, 173275, Note_off_c, 2, 71, 64
4, 173275, Note_off_c, 2, 67, 64
4, 173275, Note_off_c, 2, 62, 64
4, 173280, Note_on_c, 2, 62, 47
4, 173285, Note_on_c, 2, 67, 80
4, 173285, Note_on_c, 2, 71, 72
4, 173400, Note_off_c, 2, 71, 64
4, 173400, Note_off_c, 2, 67, 64
4, 173400, Note_off_c, 2, 62, 64
4, 173405, Note_on_c, 2, 62, 56
4, 173405, Note_on_c, 2, 67, 75
4, 173405, Note_on_c, 2, 71, 72
4, 173520, Note_off_c, 2, 71, 64
4, 173520, Note_off_c, 2, 67, 64
4, 173520, Note_off_c, 2, 62, 64
4, 173525, Note_on_c, 2, 62, 64
4, 173525, Note_on_c, 2, 67, 75
4, 173525, Note_on_c, 2, 71, 70
4, 173595, Note_off_c, 2, 62, 64
4, 173600, Note_off_c, 2, 71, 64
4, 173605, Note_off_c, 2, 67, 64
4, 173765, Note_on_c, 2, 66, 80
4, 173765, Note_on_c, 2, 69, 80
4, 173765, Note_on_c, 2, 74, 80
4, 173850, Note_off_c, 2, 69, 64
4, 173855, Note_off_c, 2, 66, 64
4, 173885, Note_off_c, 2, 74, 64
4, 174115, Note_on_c, 2, 66, 80
4, 174115, Note_on_c, 2, 69, 80
4, 174115, Note_on_c, 2, 74, 80
4, 174225, Note_off_c, 2, 66, 64
4, 174230, Note_off_c, 2, 69, 64
4, 174235, Note_off_c, 2, 74, 64
4, 174475, Note_on_c, 2, 64, 80
4, 174475, Note_on_c, 2, 67, 80
4, 174475, Note_on_c, 2, 72, 80
4, 174600, Note_off_c, 2, 64, 64
4, 174605, Note_off_c, 2, 67, 64
4, 174610, Note_off_c, 2, 72, 64
4, 174955, Note_on_c, 2, 64, 75
4, 174955, Note_on_c, 2, 67, 80
4, 174955, Note_on_c, 2, 72, 80
4, 175070, Note_off_c, 2, 72, 64
4, 175070, Note_off_c, 2, 67, 64
4, 175070, Note_off_c, 2, 64, 64
4, 175075, Note_on_c, 2, 64, 64
4, 175075, Note_on_c, 2, 67, 80
4, 175075, Note_on_c, 2, 72, 69
4, 175195, Note_off_c, 2, 72, 64
4, 175195, Note_off_c, 2, 67, 64
4, 175195, Note_off_c, 2, 64, 64
4, 175200, Note_on_c, 2, 64, 52
4, 175200, Note_on_c, 2, 67, 75
4, 175200, Note_on_c, 2, 72, 65
4, 175315, Note_off_c, 2, 72, 64
4, 175315, Note_off_c, 2, 67, 64
4, 175315, Note_off_c, 2, 64, 64
4, 175320, Note_on_c, 2, 64, 59
4, 175320, Note_on_c, 2, 67, 80
4, 175320, Note_on_c, 2, 72, 72
4, 175435, Note_off_c, 2, 72, 64
4, 175435, Note_off_c, 2, 67, 64
4, 175435, Note_off_c, 2, 64, 64
4, 175440, Note_on_c, 2, 64, 66
4, 175440, Note_on_c, 2, 67, 80
4, 175440, Note_on_c, 2, 72, 72
4, 175560, Note_off_c, 2, 72, 64
4, 175560, Note_off_c, 2, 67, 64
4, 175560, Note_off_c, 2, 64, 64
4, 175690, Note_on_c, 2, 64, 80
4, 175690, Note_on_c, 2, 67, 80
4, 175690, Note_on_c, 2, 72, 80
4, 175795, Note_off_c, 2, 64, 64
4, 175805, Note_off_c, 2, 67, 64
4, 175820, Note_off_c, 2, 72, 64
4, 176150, Note_on_c, 2, 66, 80
4, 176150, Note_on_c, 2, 69, 80
4, 176150, Note_on_c, 2, 74, 80
4, 176295, Note_off_c, 2, 74, 64
4, 176310, Note_off_c, 2, 66, 64
4, 176315, Note_off_c, 2, 69, 64
4, 176890, Note_on_c, 2, 62, 78
4, 176890, Note_on_c, 2, 67, 80
4, 176890, Note_on_c, 2, 71, 80
4, 177005, Note_off_c, 2, 71, 64
4, 177005, Note_off_c, 2, 67, 64
4, 177005, Note_off_c, 2, 62, 64
4, 177010, Note_on_c, 2, 62, 50
4, 177010, Note_on_c, 2, 67, 78
4, 177010, Note_on_c, 2, 71, 66
4, 177120, Note_off_c, 2, 71, 64
4, 177120, Note_off_c, 2, 67, 64
4, 177120, Note_off_c, 2, 62, 64
4, 177125, Note_on_c, 2, 62, 52
4, 177125, Note_on_c, 2, 67, 72
4, 177125, Note_on_c, 2, 71, 65
4, 177235, Note_off_c, 2, 71, 64
4, 177235, Note_off_c, 2, 67, 64
4, 177235, Note_off_c, 2, 62, 64
4, 177240, Note_on_c, 2, 62, 42
4, 177240, Note_on_c, 2, 67, 70
4, 177240, Note_on_c, 2, 71, 65
4, 177241, Note_off_c, 2, 62, 64
4, 177355, Note_off_c, 2, 67, 64
4, 177355, Note_off_c, 2, 71, 64
4, 177360, Note_on_c, 2, 62, 56
4, 177360, Note_on_c, 2, 67, 72
4, 177360, Note_on_c, 2, 71, 64
4, 177480, Note_off_c, 2, 71, 64
4, 177480, Note_off_c, 2, 67, 64
4, 177480, Note_off_c, 2, 62, 64
4, 177600, Note_on_c, 2, 66, 80
4, 177600, Note_on_c, 2, 69, 80
4, 177600, Note_on_c, 2, 74, 80
4, 177690, Note_off_c, 2, 69, 64
4, 177690, Note_off_c, 2, 66, 64
4, 177715, Note_off_c, 2, 74, 64
4, 177960, Note_on_c, 2, 66, 80
4, 177960, Note_on_c, 2, 69, 80
4, 177960, Note_on_c, 2, 74, 80
4, 178060, Note_off_c, 2, 69, 64
4, 178060, Note_off_c, 2, 66, 64
4, 178075, Note_off_c, 2, 74, 64
4, 178320, Note_on_c, 2, 64, 80
4, 178320, Note_on_c, 2, 67, 80
4, 178320, Note_on_c, 2, 72, 80
4, 178450, Note_off_c, 2, 67, 64
4, 178450, Note_off_c, 2, 64, 64
4, 178455, Note_off_c, 2, 72, 64
4, 178795, Note_on_c, 2, 64, 80
4, 178795, Note_on_c, 2, 67, 80
4, 178795, Note_on_c, 2, 72, 80
4, 178910, Note_off_c, 2, 72, 64
4, 178910, Note_off_c, 2, 67, 64
4, 178910, Note_off_c, 2, 64, 64
4, 178915, Note_on_c, 2, 64, 59
4, 178915, Note_on_c, 2, 67, 80
4, 178915, Note_on_c, 2, 72, 65
4, 179030, Note_off_c, 2, 72, 64
4, 179030, Note_off_c, 2, 67, 64
4, 179030, Note_off_c, 2, 64, 64
4, 179035, Note_on_c, 2, 64, 52
4, 179035, Note_on_c, 2, 67, 75
4, 179035, Note_on_c, 2, 72, 70
4, 179150, Note_off_c, 2, 72, 64
4, 179150, Note_off_c, 2, 67, 64
4, 179150, Note_off_c, 2, 64, 64
4, 179155, Note_on_c, 2, 72, 55
4, 179160, Note_on_c, 2, 64, 42
4, 179160, Note_on_c, 2, 67, 75
4, 179275, Note_off_c, 2, 67, 64
4, 179275, Note_off_c, 2, 64, 64
4, 179275, Note_off_c, 2, 72, 64
4, 179280, Note_on_c, 2, 64, 66
4, 179280, Note_on_c, 2, 67, 80
4, 179280, Note_on_c, 2, 72, 75
4, 179281, Note_off_c, 2, 72, 64
4, 179400, Note_off_c, 2, 67, 64
4, 179400, Note_off_c, 2, 64, 64
4, 179525, Note_on_c, 2, 64, 80
4, 179525, Note_on_c, 2, 67, 80
4, 179525, Note_on_c, 2, 72, 80
4, 179640, Note_off_c, 2, 64, 64
4, 179645, Note_off_c, 2, 67, 64
4, 179655, Note_off_c, 2, 72, 64
4, 180005, Note_on_c, 2, 64, 80
4, 180005, Note_on_c, 2, 67, 80
4, 180005, Note_on_c, 2, 72, 80
4, 180120, Note_off_c, 2, 67, 64
4, 180120, Note_off_c, 2, 64, 64
4, 180130, Note_off_c, 2, 72, 64
4, 180725, Note_on_c, 2, 62, 80
4, 180725, Note_on_c, 2, 67, 80
4, 180725, Note_on_c, 2, 71, 80
4, 180840, Note_off_c, 2, 71, 64
4, 180840, Note_off_c, 2, 67, 64
4, 180840, Note_off_c, 2, 62, 64
4, 180845, Note_on_c, 2, 62, 49
4, 180845, Note_on_c, 2, 67, 78
4, 180845, Note_on_c, 2, 71, 70
4, 180955, Note_off_c, 2, 71, 64
4, 180955, Note_off_c, 2, 67, 64
4, 180955, Note_off_c, 2, 62, 64
4, 180960, Note_on_c, 2, 62, 47
4, 180965, Note_on_c, 2, 67, 80
4, 180965, Note_on_c, 2, 71, 72
4, 181080, Note_off_c, 2, 71, 64
4, 181080, Note_off_c, 2, 67, 64
4, 181080, Note_off_c, 2, 62, 64
4, 181085, Note_on_c, 2, 62, 56
4, 181085, Note_on_c, 2, 67, 75
4, 181085, Note_on_c, 2, 71, 72
4, 181200, Note_off_c, 2, 71, 64
4, 181200, Note_off_c, 2, 67, 64
4, 181200, Note_off_c, 2, 62, 64
4, 181205, Note_on_c, 2, 62, 64
4, 181205, Note_on_c, 2, 67, 75
4, 181205, Note_on_c, 2, 71, 70
4, 181275, Note_off_c, 2, 62, 64
4, 181280, Note_off_c, 2, 71, 64
4, 181285, Note_off_c, 2, 67, 64
4, 181445, Note_on_c, 2, 66, 80
4, 181445, Note_on_c, 2, 69, 80
4, 181445, Note_on_c, 2, 74, 80
4, 181530, Note_off_c, 2, 69, 64
4, 181535, Note_off_c, 2, 66, 64
4, 181565, Note_off_c, 2, 74, 64
4, 181795, Note_on_c, 2, 66, 80
4, 181795, Note_on_c, 2, 69, 80
4, 181795, Note_on_c, 2, 74, 80
4, 181905, Note_off_c, 2, 66, 64
4, 181910, Note_off_c, 2, 69, 64
4, 181915, Note_off_c, 2, 74, 64
4, 182155, Note_on_c, 2, 64, 80
4, 182155, Note_on_c, 2, 67, 80
4, 182155, Note_on_c, 2, 72, 80
4, 182280, Note_off_c, 2, 64, 64
4, 182285, Note_off_c, 2, 67, 64
4, 182290, Note_off_c, 2, 72, 64
4, 182635, Note_on_c, 2, 64, 75
4, 182635, Note_on_c, 2, 67, 80
4, 182635, Note_on_c, 2, 72, 80
4, 182750, Note_off_c, 2, 72, 64
4, 182750, Note_off_c, 2, 67, 64
4, 182750, Note_off_c, 2, 64, 64
4, 182755, Note_on_c, 2, 64, 64
4, 182755, Note_on_c, 2, 67, 80
4, 182755, Note_on_c, 2, 72, 69
4, 182875, Note_off_c, 2, 72, 64
4, 182875, Note_off_c, 2, 67, 64
4, 182875, Note_off_c, 2, 64, 64
4, 182880, Note_on_c, 2, 64, 52
4, 182880, Note_on_c, 2, 67, 75
4, 182880, Note_on_c, 2, 72, 65
4, 182995, Note_off_c, 2, 72, 64
4, 182995, Note_off_c, 2, 67, 64
4, 182995, Note_off_c, 2, 64, 64
4, 183000, Note_on_c, 2, 64, 59
4, 183000, Note_on_c, 2, 67, 80
4, 183000, Note_on_c, 2, 72, 72
4, 183115, Note_off_c, 2, 72, 64
4, 183115, Note_off_c, 2, 67, 64
4, 183115, Note_off_c, 2, 64, 64
4, 183120, Note_on_c, 2, 64, 66
4, 183120, Note_on_c, 2, 67, 80
4, 183120, Note_on_c, 2, 72, 72
4, 183240, Note_off_c, 2, 72, 64
4, 183240, Note_off_c, 2, 67, 64
4, 183240, Note_off_c, 2, 64, 64
4, 183370, Note_on_c, 2, 64, 80
4, 183370, Note_on_c, 2, 67, 80
4, 183370, Note_on_c, 2, 72, 80
4, 183475, Note_off_c, 2, 64, 64
4, 183485, Note_off_c, 2, 67, 64
4, 183500, Note_off_c, 2, 72, 64
4, 183830, Note_on_c, 2, 66, 80
4, 183830, Note_on_c, 2, 69, 80
4, 183830, Note_on_c, 2, 74, 80
4, 183975, Note_off_c, 2, 74, 64
4, 183990, Note_off_c, 2, 66, 64
4, 183995, Note_off_c, 2, 69, 64
4, 184570, Note_on_c, 2, 62, 78
4, 184570, Note_on_c, 2, 67, 80
4, 184570, Note_on_c, 2, 71, 80
4, 184685, Note_off_c, 2, 71, 64
4, 184685, Note_off_c, 2, 67, 64
4, 184685, Note_off_c, 2, 62, 64
4, 184690, Note_on_c, 2, 62, 50
4, 184690, Note_on_c, 2, 67, 78
4, 184690, Note_on_c, 2, 71, 66
4, 184800, Note_off_c, 2, 71, 64
4, 184800, Note_off_c, 2, 67, 64
4, 184800, Note_off_c, 2, 62, 64
4, 184805, Note_on_c, 2, 62, 52
4, 184805, Note_on_c, 2, 67, 72
4, 184805, Note_on_c, 2, 71, 65
4, 184915, Note_off_c, 2, 71, 64
4, 184915, Note_off_c, 2, 67, 64
4, 184915, Note_off_c, 2, 62, 64
4, 184920, Note_on_c, 2, 62, 42
4, 184920, Note_on_c, 2, 67, 70
4, 184920, Note_on_c, 2, 71, 65
4, 184921, Note_off_c, 2, 62, 64
4, 185035, Note_off_c, 2, 67, 64
4, 185035, Note_off_c, 2, 71, 64
4, 185040, Note_on_c, 2, 62, 56
4, 185040, Note_on_c, 2, 67, 72
4, 185040, Note_on_c, 2, 71, 64
4, 185160, Note_off_c, 2, 71, 64
4, 185160, Note_off_c, 2, 67, 64
4, 185160, Note_off_c, 2, 62, 64
4, 185280, Note_on_c, 2, 66, 80
4, 185280, Note_on_c, 2, 69, 80
4, 185280, Note_on_c, 2, 74, 80
4, 185370, Note_off_c, 2, 69, 64
4, 185370, Note_off_c, 2, 66, 64
4, 185395, Note_off_c, 2, 74, 64
4, 185640, Note_on_c, 2, 66, 80
4, 185640, Note_on_c, 2, 69, 80
4, 185640, Note_on_c, 2, 74, 80
4, 185740, Note_off_c, 2, 69, 64
4, 185740, Note_off_c, 2, 66, 64
4, 185755, Note_off_c, 2, 74, 64
4, 186000, Note_on_c, 2, 64, 80
4, 186000, Note_on_c, 2, 67, 80
4, 186000, Note_on_c, 2, 72, 80
4, 186130, Note_off_c, 2, 67, 64
4, 186130, Note_off_c, 2, 64, 64
4, 186135, Note_off_c, 2, 72, 64
4, 186475, Note_on_c, 2, 64, 80
4, 186475, Note_on_c, 2, 67, 80
4, 186475, Note_on_c, 2, 72, 80
4, 186590, Note_off_c, 2, 72, 64
4, 186590, Note_off_c, 2, 67, 64
4, 186590, Note_off_c, 2, 64, 64
4, 186595, Note_on_c, 2, 64, 59
4, 186595, Note_on_c, 2, 67, 80
4, 186595, Note_on_c, 2, 72, 65
4, 186710, Note_off_c, 2, 72, 64
4, 186710, Note_off_c, 2, 67, 64
4, 186710, Note_off_c, 2, 64, 64
4, 186715, Note_on_c, 2, 64, 52
4, 186715, Note_on_c, 2, 67, 75
4, 186715, Note_on_c, 2, 72, 70
4, 186830, Note_off_c, 2, 72, 64
4, 186830, Note_off_c, 2, 67, 64
4, 186830, Note_off_c, 2, 64, 64
4, 186835, Note_on_c, 2, 72, 55
4, 186840, Note_on_c, 2, 64, 42
4, 186840, Note_on_c, 2, 67, 75
4, 186955, Note_off_c, 2, 67, 64
4, 186955, Note_off_c, 2, 64, 64
4, 186955, Note_off_c, 2, 72, 64
4, 186960, Note_on_c, 2, 64, 66
4, 186960, Note_on_c, 2, 67, 80
4, 186960, Note_on_c, 2, 72, 75
4, 186961, Note_off_c, 2, 72, 64
4, 187080, Note_off_c, 2, 67, 64
4, 187080, Note_off_c, 2, 64, 64
4, 187205, Note_on_c, 2, 64, 80
4, 187205, Note_on_c, 2, 67, 80
4, 187205, Note_on_c, 2, 72, 80
4, 187320, Note_off_c, 2, 64, 64
4, 187325, Note_off_c, 2, 67, 64
4, 187335, Note_off_c, 2, 72, 64
4, 187685, Note_on_c, 2, 64, 80
4, 187685, Note_on_c, 2, 67, 80
4, 187685, Note_on_c, 2, 72, 80
4, 187800, Note_off_c, 2, 67, 64
4, 187800, Note_off_c, 2, 64, 64
4, 187810, Note_off_c, 2, 72, 64
4, 188405, Note_on_c, 2, 62, 80
4, 188405, Note_on_c, 2, 67, 80
4, 188405, Note_on_c, 2, 71, 80
4, 188520, Note_off_c, 2, 71, 64
4, 188520, Note_off_c, 2, 67, 64
4, 188520, Note_off_c, 2, 62, 64
4, 188525, Note_on_c, 2, 62, 49
4, 188525, Note_on_c, 2, 67, 78
4, 188525, Note_on_c, 2, 71, 70
4, 188635, Note_off_c, 2, 71, 64
4, 188635, Note_off_c, 2, 67, 64
4, 188635, Note_off_c, 2, 62, 64
4, 188640, Note_on_c, 2, 62, 47
4, 188645, Note_on_c, 2, 67, 80
4, 188645, Note_on_c, 2, 71, 72
4, 188760, Note_off_c, 2, 71, 64
4, 188760, Note_off_c, 2, 67, 64
4, 188760, Note_off_c, 2, 62, 64
4, 188765, Note_on_c, 2, 62, 56
4, 188765, Note_on_c, 2, 67, 75
4, 188765, Note_on_c, 2, 71, 72
4, 188880, Note_off_c, 2, 71, 64
4, 188880, Note_off_c, 2, 67, 64
4, 188880, Note_off_c, 2, 62, 64
4, 188885, Note_on_c, 2, 62, 64
4, 188885, Note_on_c, 2, 67, 75
4, 188885, Note_on_c, 2, 71, 70
4, 188955, Note_off_c, 2, 62, 64
4, 188960, Note_off_c, 2, 71, 64
4, 188965, Note_off_c, 2, 67, 64
4, 189125, Note_on_c, 2, 66, 80
4, 189125, Note_on_c, 2, 69, 80
4, 189125, Note_on_c, 2, 74, 80
4, 189210, Note_off_c, 2, 69, 64
4, 189215, Note_off_c, 2, 66, 64
4, 189245, Note_off_c, 2, 74, 64
4, 189475, Note_on_c, 2, 66, 80
4, 189475, Note_on_c, 2, 69, 80
4, 189475, Note_on_c, 2, 74, 80
4, 189585, Note_off_c, 2, 66, 64
4, 189590, Note_off_c, 2, 69, 64
4, 189595, Note_off_c, 2, 74, 64
4, 189835, Note_on_c, 2, 64, 80
4, 189835, Note_on_c, 2, 67, 80
4, 189835, Note_on_c, 2, 72, 80
4, 189960, Note_off_c, 2, 64, 64
4, 189965, Note_off_c, 2, 67, 64
4, 189970, Note_off_c, 2, 72, 64
4, 190315, Note_on_c, 2, 64, 75
4, 190315, Note_on_c, 2, 67, 80
4, 190315, Note_on_c, 2, 72, 80
4, 190430, Note_off_c, 2, 72, 64
4, 190430, Note_off_c, 2, 67, 64
4, 190430, Note_off_c, 2, 64, 64
4, 190435, Note_on_c, 2, 64, 64
4, 190435, Note_on_c, 2, 67, 80
4, 190435, Note_on_c, 2, 72, 69
4, 190555, Note_off_c, 2, 72, 64
4, 190555, Note_off_c, 2, 67, 64
4, 190555, Note_off_c, 2, 64, 64
4, 190560, Note_on_c, 2, 64, 52
4, 190560, Note_on_c, 2, 67, 75
4, 190560, Note_on_c, 2, 72, 65
4, 190675, Note_off_c, 2, 72, 64
4, 190675, Note_off_c, 2, 67, 64
4, 190675, Note_off_c, 2, 64, 64
4, 190680, Note_on_c, 2, 64, 59
4, 190680, Note_on_c, 2, 67, 80
4, 190680, Note_on_c, 2, 72, 72
4, 190795, Note_off_c, 2, 72, 64
4, 190795, Note_off_c, 2, 67, 64
4, 190795, Note_off_c, 2, 64, 64
4, 190800, Note_on_c, 2, 64, 66
4, 190800, Note_on_c, 2, 67, 80
4, 190800, Note_on_c, 2, 72, 72
4, 190920, Note_off_c, 2, 72, 64
4, 190920, Note_off_c, 2, 67, 64
4, 190920, Note_off_c, 2, 64, 64
4, 191050, Note_on_c, 2, 64, 80
4, 191050, Note_on_c, 2, 67, 80
4, 191050, Note_on_c, 2, 72, 80
4, 191155, Note_off_c, 2, 64, 64
4, 191165, Note_off_c, 2, 67, 64
4, 191180, Note_off_c, 2, 72, 64
4, 191510, Note_on_c, 2, 66, 80
4, 191510, Note_on_c, 2, 69, 80
4, 191510, Note_on_c, 2, 74, 80
4, 191655, Note_off_c, 2, 74, 64
4, 191670, Note_off_c, 2, 66, 64
4, 191675, Note_off_c, 2, 69, 64
4, 192250, Note_on_c, 2, 62, 78
4, 192250, Note_on_c, 2, 67, 80
4, 192250, Note_on_c, 2, 71, 80
4, 192365, Note_off_c, 2, 71, 64
4, 192365, Note_off_c, 2, 67, 64
4, 192365, Note_off_c, 2, 62, 64
4, 192370, Note_on_c, 2, 62, 50
4, 192370, Note_on_c, 2, 67, 78
4, 192370, Note_on_c, 2, 71, 66
4, 192480, Note_off_c, 2, 71, 64
4, 192480, Note_off_c, 2, 67, 64
4, 192480, Note_off_c, 2, 62, 64
4, 192485, Note_on_c, 2, 62, 52
4, 192485, Note_on_c, 2, 67, 72
4, 192485, Note_on_c, 2, 71, 65
4, 192595, Note_off_c, 2, 71, 64
4, 192595, Note_off_c, 2, 67, 64
4, 192595, Note_off_c, 2, 62, 64
4, 192600, Note_on_c, 2, 62, 42
4, 192600, Note_on_c, 2, 67, 70
4, 192600, Note_on_c, 2, 71, 65
4, 192601, Note_off_c, 2, 62, 64
4, 192715, Note_off_c, 2, 67, 64
4, 192715, Note_off_c, 2, 71, 64
4, 192720, Note_on_c, 2, 62, 56
4, 192720, Note_on_c, 2, 67, 72
4, 192720, Note_on_c, 2, 71, 64
4, 192840, Note_off_c, 2, 71, 64
4, 192840, Note_off_c, 2, 67, 64
4, 192840, Note_off_c, 2, 62, 64
4, 192960, Note_on_c, 2, 66, 80
4, 192960, Note_on_c, 2, 69, 80
4, 192960, Note_on_c, 2, 74, 80
4, 193050, Note_off_c, 2, 69, 64
4, 193050, Note_off_c, 2, 66, 64
4, 193075, Note_off_c, 2, 74, 64
4, 193320, Note_on_c, 2, 66, 80
4, 193320, Note_on_c, 2, 69, 80
4, 193320, Note_on_c, 2, 74, 80
4, 193420, Note_off_c, 2, 69, 64
4, 193420, Note_off_c, 2, 66, 64
4, 193435, Note_off_c, 2, 74, 64
4, 193680, Note_on_c, 2, 64, 80
4, 193680, Note_on_c, 2, 67, 80
4, 193680, Note_on_c, 2, 72, 80
4, 193810, Note_off_c, 2, 67, 64
4, 193810, Note_off_c, 2, 64, 64
4, 193815, Note_off_c, 2, 72, 64
4, 194155, Note_on_c, 2, 64, 80
4, 194155, Note_on_c, 2, 67, 80
4, 194155, Note_on_c, 2, 72, 80
4, 194270, Note_off_c, 2, 72, 64
4, 194270, Note_off_c, 2, 67, 64
4, 194270, Note_off_c, 2, 64, 64
4, 194275, Note_on_c, 2, 64, 59
4, 194275, Note_on_c, 2, 67, 80
4, 194275, Note_on_c, 2, 72, 65
4, 194390, Note_off_c, 2, 72, 64
4, 194390, Note_off_c, 2, 67, 64
4, 194390, Note_off_c, 2, 64, 64
4, 194395, Note_on_c, 2, 64, 52
4, 194395, Note_on_c, 2, 67, 75
4, 194395, Note_on_c, 2, 72, 70
4, 194510, Note_off_c, 2, 72, 64
4, 194510, Note_off_c, 2, 67, 64
4, 194510, Note_off_c, 2, 64, 64
4, 194515, Note_on_c, 2, 72, 55
4, 194520, Note_on_c, 2, 64, 42
4, 194520, Note_on_c, 2, 67, 75
4, 194635, Note_off_c, 2, 67, 64
4, 194635, Note_off_c, 2, 64, 64
4, 194635, Note_off_c, 2, 72, 64
4, 194640, Note_on_c, 2, 64, 66
4, 194640, Note_on_c, 2, 67, 80
4, 194640, Note_on_c, 2, 72, 75
4, 194641, Note_off_c, 2, 72, 64
4, 194760, Note_off_c, 2, 67, 64
4, 194760, Note_off_c, 2, 64, 64
4, 194885, Note_on_c, 2, 64, 80
4, 194885, Note_on_c, 2, 67, 80
4, 194885, Note_on_c, 2, 72, 80
4, 195000, Note_off_c, 2, 64, 64
4, 195005, Note_off_c, 2, 67, 64
4, 195015, Note_off_c, 2, 72, 64
4, 195365, Note_on_c, 2, 64, 80
4, 195365, Note_on_c, 2, 67, 80
4, 195365, Note_on_c, 2, 72, 80
4, 195480, Note_off_c, 2, 67, 64
4, 195480, Note_off_c, 2, 64, 64
4, 195490, Note_off_c, 2, 72, 64
4, 196075, Note_on_c, 2, 67, 70
4, 196080, Note_on_c, 2, 62, 78
4, 196080, Note_on_c, 2, 64, 42
4, 196080, Note_on_c, 2, 71, 59
4, 196080, Note_on_c, 2, 76, 66
4, 196190, Note_off_c, 2, 67, 64
4, 196195, Note_off_c, 2, 62, 64
4, 196195, Note_off_c, 2, 64, 64
4, 196195, Note_off_c, 2, 71, 64
4, 196195, Note_off_c, 2, 76, 64
4, 196200, Note_on_c, 2, 62, 78
4, 196200, Note_on_c, 2, 67, 49
4, 196200, Note_on_c, 2, 71, 52
4, 196200, Note_on_c, 2, 76, 50
4, 196205, Note_on_c, 2, 64, 36
4, 196310, Note_off_c, 2, 76, 64
4, 196310, Note_off_c, 2, 71, 64
4, 196310, Note_off_c, 2, 67, 64
4, 196310, Note_off_c, 2, 62, 64
4, 196315, Note_off_c, 2, 64, 64
4, 196320, Note_on_c, 2, 62, 57
4, 196320, Note_on_c, 2, 64, 36
4, 196320, Note_on_c, 2, 67, 55
4, 196320, Note_on_c, 2, 71, 53
4, 196320, Note_on_c, 2, 76, 36
4, 196425, Note_off_c, 2, 76, 64
4, 196425, Note_off_c, 2, 71, 64
4, 196425, Note_off_c, 2, 67, 64
4, 196425, Note_off_c, 2, 64, 64
4, 196425, Note_off_c, 2, 62, 64
4, 196430, Note_on_c, 2, 76, 30
4, 196435, Note_on_c, 2, 62, 66
4, 196435, Note_on_c, 2, 64, 36
4, 196435, Note_on_c, 2, 67, 65
4, 196435, Note_on_c, 2, 71, 56
4, 196510, Note_off_c, 2, 67, 64
4, 196510, Note_off_c, 2, 62, 64
4, 196510, Note_off_c, 2, 76, 64
4, 196515, Note_off_c, 2, 64, 64
4, 196515, Note_off_c, 2, 71, 64
4, 198000, Note_on_c, 2, 57, 72
4, 198000, Note_on_c, 2, 64, 39
4, 198000, Note_on_c, 2, 67, 64
4, 198000, Note_on_c, 2, 72, 62
4, 198110, Note_off_c, 2, 72, 64
4, 198110, Note_off_c, 2, 67, 64
4, 198110, Note_off_c, 2, 57, 64
4, 198115, Note_off_c, 2, 64, 64
4, 198120, Note_on_c, 2, 57, 56
4, 198120, Note_on_c, 2, 64, 25
4, 198120, Note_on_c, 2, 67, 64
4, 198120, Note_on_c, 2, 72, 36
4, 198220, Note_off_c, 2, 72, 64
4, 198225, Note_off_c, 2, 57, 64
4, 198230, Note_off_c, 2, 64, 64
4, 198230, Note_off_c, 2, 67, 64
4, 198235, Note_on_c, 2, 57, 56
4, 198235, Note_on_c, 2, 64, 27
4, 198235, Note_on_c, 2, 67, 72
4, 198235, Note_on_c, 2, 72, 27
4, 198340, Note_off_c, 2, 72, 64
4, 198350, Note_off_c, 2, 67, 64
4, 198350, Note_off_c, 2, 64, 64
4, 198350, Note_off_c, 2, 57, 64
4, 198355, Note_on_c, 2, 57, 66
4, 198355, Note_on_c, 2, 64, 41
4, 198355, Note_on_c, 2, 67, 75
4, 198355, Note_on_c, 2, 72, 33
4, 198440, Note_off_c, 2, 72, 64
4, 198440, Note_off_c, 2, 67, 64
4, 198440, Note_off_c, 2, 64, 64
4, 198440, Note_off_c, 2, 57, 64
4, 199915, Note_on_c, 2, 67, 70
4, 199920, Note_on_c, 2, 62, 78
4, 199920, Note_on_c, 2, 64, 42
4, 199920, Note_on_c, 2, 71, 59
4, 199920, Note_on_c, 2, 76, 66
4, 200030, Note_off_c, 2, 67, 64
4, 200035, Note_off_c, 2, 62, 64
4, 200035, Note_off_c, 2, 64, 64
4, 200035, Note_off_c, 2, 71, 64
4, 200035, Note_off_c, 2, 76, 64
4, 200040, Note_on_c, 2, 62, 78
4, 200040, Note_on_c, 2, 67, 49
4, 200040, Note_on_c, 2, 71, 52
4, 200040, Note_on_c, 2, 76, 50
4, 200045, Note_on_c, 2, 64, 36
4, 200150, Note_off_c, 2, 76, 64
4, 200150, Note_off_c, 2, 71, 64
4, 200150, Note_off_c, 2, 67, 64
4, 200150, Note_off_c, 2, 62, 64
4, 200155, Note_off_c, 2, 64, 64
4, 200160, Note_on_c, 2, 62, 57
4, 200160, Note_on_c, 2, 64, 36
4, 200160, Note_on_c, 2, 67, 55
4, 200160, Note_on_c, 2, 71, 53
4, 200160, Note_on_c, 2, 76, 36
4, 200265, Note_off_c, 2, 76, 64
4, 200265, Note_off_c, 2, 71, 64
4, 200265, Note_off_c, 2, 67, 64
4, 200265, Note_off_c, 2, 64, 64
4, 200265, Note_off_c, 2, 62, 64
4, 200270, Note_on_c, 2, 76, 30
4, 200275, Note_on_c, 2, 62, 66
4, 200275, Note_on_c, 2, 64, 36
4, 200275, Note_on_c, 2, 67, 65
4, 200275, Note_on_c, 2, 71, 56
4, 200350, Note_off_c, 2, 67, 64
4, 200350, Note_off_c, 2, 62, 64
4, 200350, Note_off_c, 2, 76, 64
4, 200355, Note_off_c, 2, 64, 64
4, 200355, Note_off_c, 2, 71, 64
4, 201840, Note_on_c, 2, 57, 72
4, 201840, Note_on_c, 2, 64, 39
4, 201840, Note_on_c, 2, 67, 64
4, 201840, Note_on_c, 2, 72, 62
4, 201950, Note_off_c, 2, 72, 64
4, 201950, Note_off_c, 2, 67, 64
4, 201950, Note_off_c, 2, 57, 64
4, 201955, Note_off_c, 2, 64, 64
4, 201960, Note_on_c, 2, 57, 56
4, 201960, Note_on_c, 2, 64, 25
4, 201960, Note_on_c, 2, 67, 64
4, 201960, Note_on_c, 2, 72, 36
4, 202060, Note_off_c, 2, 72, 64
4, 202065, Note_off_c, 2, 57, 64
4, 202070, Note_off_c, 2, 64, 64
4, 202070, Note_off_c, 2, 67, 64
4, 202075, Note_on_c, 2, 57, 56
4, 202075, Note_on_c, 2, 64, 27
4, 202075, Note_on_c, 2, 67, 72
4, 202075, Note_on_c, 2, 72, 27
4, 202180, Note_off_c, 2, 72, 64
4, 202190, Note_off_c, 2, 67, 64
4, 202190, Note_off_c, 2, 64, 64
4, 202190, Note_off_c, 2, 57, 64
4, 202195, Note_on_c, 2, 57, 66
4, 202195, Note_on_c, 2, 64, 41
4, 202195, Note_on_c, 2, 67, 75
4, 202195, Note_on_c, 2, 72, 33
4, 202280, Note_off_c, 2, 72, 64
4, 202280, Note_off_c, 2, 67, 64
4, 202280, Note_off_c, 2, 64, 64
4, 202280, Note_off_c, 2, 57, 64
4, 202805, Note_on_c, 2, 57, 72
4, 202805, Note_on_c, 2, 64, 39
4, 202805, Note_on_c, 2, 67, 64
4, 202805, Note_on_c, 2, 72, 62
4, 202915, Note_off_c, 2, 72, 64
4, 202915, Note_off_c, 2, 67, 64
4, 202915, Note_off_c, 2, 57, 64
4, 202920, Note_off_c, 2, 64, 64
4, 202925, Note_on_c, 2, 57, 56
4, 202925, Note_on_c, 2, 64, 25
4, 202925, Note_on_c, 2, 67, 64
4, 202925, Note_on_c, 2, 72, 36
4, 203025, Note_off_c, 2, 72, 64
4, 203030, Note_off_c, 2, 57, 64
4, 203035, Note_off_c, 2, 64, 64
4, 203035, Note_off_c, 2, 67, 64
4, 203040, Note_on_c, 2, 57, 56
4, 203040, Note_on_c, 2, 64, 27
4, 203040, Note_on_c, 2, 67, 72
4, 203040, Note_on_c, 2, 72, 27
4, 203145, Note_off_c, 2, 72, 64
4, 203155, Note_off_c, 2, 67, 64
4, 203155, Note_off_c, 2, 64, 64
4, 203155, Note_off_c, 2, 57, 64
4, 203160, Note_on_c, 2, 57, 66
4, 203160, Note_on_c, 2, 64, 41
4, 203160, Note_on_c, 2, 67, 75
4, 203160, Note_on_c, 2, 72, 33
4, 203245, Note_off_c, 2, 72, 64
4, 203245, Note_off_c, 2, 67, 64
4, 203245, Note_off_c, 2, 64, 64
4, 203245, Note_off_c, 2, 57, 64
4, 203755, Note_on_c, 2, 67, 70
4, 203760, Note_on_c, 2, 62, 78
4, 203760, Note_on_c, 2, 64, 42
4, 203760, Note_on_c, 2, 71, 59
4, 203760, Note_on_c, 2, 76, 66
4, 203870, Note_off_c, 2, 67, 64
4, 203875, Note_off_c, 2, 62, 64
4, 203875, Note_off_c, 2, 64, 64
4, 203875, Note_off_c, 2, 71, 64
4, 203875, Note_off_c, 2, 76, 64
4, 203880, Note_on_c, 2, 62, 78
4, 203880, Note_on_c, 2, 67, 49
4, 203880, Note_on_c, 2, 71, 52
4, 203880, Note_on_c, 2, 76, 50
4, 203885, Note_on_c, 2, 64, 36
4, 203990, Note_off_c, 2, 76, 64
4, 203990, Note_off_c, 2, 71, 64
4, 203990, Note_off_c, 2, 67, 64
4, 203990, Note_off_c, 2, 62, 64
4, 203995, Note_off_c, 2, 64, 64
4, 204000, Note_on_c, 2, 62, 57
4, 204000, Note_on_c, 2, 64, 36
4, 204000, Note_on_c, 2, 67, 55
4, 204000, Note_on_c, 2, 71, 53
4, 204000, Note_on_c, 2, 76, 36
4, 204105, Note_off_c, 2, 76, 64
4, 204105, Note_off_c, 2, 71, 64
4, 204105, Note_off_c, 2, 67, 64
4, 204105, Note_off_c, 2, 64, 64
4, 204105, Note_off_c, 2, 62, 64
4, 204110, Note_on_c, 2, 76, 30
4, 204115, Note_on_c, 2, 62, 66
4, 204115, Note_on_c, 2, 64, 36
4, 204115, Note_on_c, 2, 67, 65
4, 204115, Note_on_c, 2, 71, 56
4, 204190, Note_off_c, 2, 67, 64
4, 204190, Note_off_c, 2, 62, 64
4, 204190, Note_off_c, 2, 76, 64
4, 204195, Note_off_c, 2, 64, 64
4, 204195, Note_off_c, 2, 71, 64
4, 205680, Note_on_c, 2, 57, 72
4, 205680, Note_on_c, 2, 64, 39
4, 205680, Note_on_c, 2, 67, 64
4, 205680, Note_on_c, 2, 72, 62
4, 205790, Note_off_c, 2, 72, 64
4, 205790, Note_off_c, 2, 67, 64
4, 205790, Note_off_c, 2, 57, 64
4, 205795, Note_off_c, 2, 64, 64
4, 205800, Note_on_c, 2, 57, 56
4, 205800, Note_on_c, 2, 64, 25
4, 205800, Note_on_c, 2, 67, 64
4, 205800, Note_on_c, 2, 72, 36
4, 205900, Note_off_c, 2, 72, 64
4, 205905, Note_off_c, 2, 57, 64
4, 205910, Note_off_c, 2, 64, 64
4, 205910, Note_off_c, 2, 67, 64
4, 205915, Note_on_c, 2, 57, 56
4, 205915, Note_on_c, 2, 64, 27
4, 205915, Note_on_c, 2, 67, 72
4, 205915, Note_on_c, 2, 72, 27
4, 206020, Note_off_c, 2, 72, 64
4, 206030, Note_off_c, 2, 67, 64
4, 206030, Note_off_c, 2, 64, 64
4, 206030, Note_off_c, 2, 57, 64
4, 206035, Note_on_c, 2, 57, 66
4, 206035, Note_on_c, 2, 64, 41
4, 206035, Note_on_c, 2, 67, 75
4, 206035, Note_on_c, 2, 72, 33
4, 206120, Note_off_c, 2, 72, 64
4, 206120, Note_off_c, 2, 67, 64
4, 206120, Note_off_c, 2, 64, 64
4, 206120, Note_off_c, 2, 57, 64
4, 207595, Note_on_c, 2, 67, 70
4, 207600, Note_on_c, 2, 62, 78
4, 207600, Note_on_c, 2, 64, 42
4, 207600, Note_on_c, 2, 71, 59
4, 207600, Note_on_c, 2, 76, 66
4, 207710, Note_off_c, 2, 67, 64
4, 207715, Note_off_c, 2, 62, 64
4, 207715, Note_off_c, 2, 64, 64
4, 207715, Note_off_c, 2, 71, 64
4, 207715, Note_off_c, 2, 76, 64
4, 207720, Note_on_c, 2, 62, 78
4, 207720, Note_on_c, 2, 67, 49
4, 207720, Note_on_c, 2, 71, 52
4, 207720, Note_on_c, 2, 76, 50
4, 207725, Note_on_c, 2, 64, 36
4, 207830, Note_off_c, 2, 76, 64
4, 207830, Note_off_c, 2, 71, 64
4, 207830, Note_off_c, 2, 67, 64
4, 207830, Note_off_c, 2, 62, 64
4, 207835, Note_off_c, 2, 64, 64
4, 207840, Note_on_c, 2, 62, 57
4, 207840, Note_on_c, 2, 64, 36
4, 207840, Note_on_c, 2, 67, 55
4, 207840, Note_on_c, 2, 71, 53
4, 207840, Note_on_c, 2, 76, 36
4, 207945, Note_off_c, 2, 76, 64
4, 207945, Note_off_c, 2, 71, 64
4, 207945, Note_off_c, 2, 67, 64
4, 207945, Note_off_c, 2, 64, 64
4, 207945, Note_off_c, 2, 62, 64
4, 207950, Note_on_c, 2, 76, 30
4, 207955, Note_on_c, 2, 62, 66
4, 207955, Note_on_c, 2, 64, 36
4, 207955, Note_on_c, 2, 67, 65
4, 207955, Note_on_c, 2, 71, 56
4, 208030, Note_off_c, 2, 67, 64
4, 208030, Note_off_c, 2, 62, 64
4, 208030, Note_off_c, 2, 76, 64
4, 208035, Note_off_c, 2, 64, 64
4, 208035, Note_off_c, 2, 71, 64
4, 209520, Note_on_c, 2, 57, 72
4, 209520, Note_on_c, 2, 64, 39
4, 209520, Note_on_c, 2, 67, 64
4, 209520, Note_on_c, 2, 72, 62
4, 209630, Note_off_c, 2, 72, 64
4, 209630, Note_off_c, 2, 67, 64
4, 209630, Note_off_c, 2, 57, 64
4, 209635, Note_off_c, 2, 64, 64
4, 209640, Note_on_c, 2, 57, 56
4, 209640, Note_on_c, 2, 64, 25
4, 209640, Note_on_c, 2, 67, 64
4, 209640, Note_on_c, 2, 72, 36
4, 209740, Note_off_c, 2, 72, 64
4, 209745, Note_off_c, 2, 57, 64
4, 209750, Note_off_c, 2, 64, 64
4, 209750, Note_off_c, 2, 67, 64
4, 209755, Note_on_c, 2, 57, 56
4, 209755, Note_on_c, 2, 64, 27
4, 209755, Note_on_c, 2, 67, 72
4, 209755, Note_on_c, 2, 72, 27
4, 209860, Note_off_c, 2, 72, 64
4, 209870, Note_off_c, 2, 67, 64
4, 209870, Note_off_c, 2, 64, 64
4, 209870, Note_off_c, 2, 57, 64
4, 209875, Note_on_c, 2, 57, 66
4, 209875, Note_on_c, 2, 64, 41
4, 209875, Note_on_c, 2, 67, 75
4, 209875, Note_on_c, 2, 72, 33
4, 209960, Note_off_c, 2, 72, 64
4, 209960, Note_off_c, 2, 67, 64
4, 209960, Note_off_c, 2, 64, 64
4, 209960, Note_off_c, 2, 57, 64
4, 210485, Note_on_c, 2, 57, 72
4, 210485, Note_on_c, 2, 64, 39
4, 210485, Note_on_c, 2, 67, 64
4, 210485, Note_on_c, 2, 72, 62
4, 210595, Note_off_c, 2, 72, 64
4, 210595, Note_off_c, 2, 67, 64
4, 210595, Note_off_c, 2, 57, 64
4, 210600, Note_off_c, 2, 64, 64
4, 210605, Note_on_c, 2, 57, 56
4, 210605, Note_on_c, 2, 64, 25
4, 210605, Note_on_c, 2, 67, 64
4, 210605, Note_on_c, 2, 72, 36
4, 210705, Note_off_c, 2, 72, 64
4, 210710, Note_off_c, 2, 57, 64
4, 210715, Note_off_c, 2, 64, 64
4, 210715, Note_off_c, 2, 67, 64
4, 210720, Note_on_c, 2, 57, 56
4, 210720, Note_on_c, 2, 64, 27
4, 210720, Note_on_c, 2, 67, 72
4, 210720, Note_on_c, 2, 72, 27
4, 210825, Note_off_c, 2, 72, 64
4, 210835, Note_off_c, 2, 67, 64
4, 210835, Note_off_c, 2, 64, 64
4, 210835, Note_off_c, 2, 57, 64
4, 210840, Note_on_c, 2, 57, 66
4, 210840, Note_on_c, 2, 64, 41
4, 210840, Note_on_c, 2, 67, 75
4, 210840, Note_on_c, 2, 72, 33
4, 210925, Note_off_c, 2, 72, 64
4, 210925, Note_off_c, 2, 67, 64
4, 210925, Note_off_c, 2, 64, 64
4, 210925, Note_off_c, 2, 57, 64
4, 211445, Note_on_c, 2, 62, 80
4, 211445, Note_on_c, 2, 67, 80
4, 211445, Note_on_c, 2, 71, 80
4, 211560, Note_off_c, 2, 71, 64
4, 211560, Note_off_c, 2, 67, 64
4, 211560, Note_off_c, 2, 62, 64
4, 211565, Note_on_c, 2, 62, 49
4, 211565, Note_on_c, 2, 67, 78
4, 211565, Note_on_c, 2, 71, 70
4, 211675, Note_off_c, 2, 71, 64
4, 211675, Note_off_c, 2, 67, 64
4, 211675, Note_off_c, 2, 62, 64
4, 211680, Note_on_c, 2, 62, 47
4, 211685, Note_on_c, 2, 67, 80
4, 211685, Note_on_c, 2, 71, 72
4, 211800, Note_off_c, 2, 71, 64
4, 211800, Note_off_c, 2, 67, 64
4, 211800, Note_off_c, 2, 62, 64
4, 211805, Note_on_c, 2, 62, 56
4, 211805, Note_on_c, 2, 67, 75
4, 211805, Note_on_c, 2, 71, 72
4, 211920, Note_off_c, 2, 71, 64
4, 211920, Note_off_c, 2, 67, 64
4, 211920, Note_off_c, 2, 62, 64
4, 211925, Note_on_c, 2, 62, 64
4, 211925, Note_on_c, 2, 67, 75
4, 211925, Note_on_c, 2, 71, 70
4, 211995, Note_off_c, 2, 62, 64
4, 212000, Note_off_c, 2, 71, 64
4, 212005, Note_off_c, 2, 67, 64
4, 212165, Note_on_c, 2, 66, 80
4, 212165, Note_on_c, 2, 69, 80
4, 212165, Note_on_c, 2, 74, 80
4, 212250, Note_off_c, 2, 69, 64
4, 212255, Note_off_c, 2, 66, 64
4, 212285, Note_off_c, 2, 74, 64
4, 212515, Note_on_c, 2, 66, 80
4, 212515, Note_on_c, 2, 69, 80
4, 212515, Note_on_c, 2, 74, 80
4, 212625, Note_off_c, 2, 66, 64
4, 212630, Note_off_c, 2, 69, 64
4, 212635, Note_off_c, 2, 74, 64
4, 212875, Note_on_c, 2, 64, 80
4, 212875, Note_on_c, 2, 67, 80
4, 212875, Note_on_c, 2, 72, 80
4, 213000, Note_off_c, 2, 64, 64
4, 213005, Note_off_c, 2, 67, 64
4, 213010, Note_off_c, 2, 72, 64
4, 213355, Note_on_c, 2, 64, 75
4, 213355, Note_on_c, 2, 67, 80
4, 213355, Note_on_c, 2, 72, 80
4, 213470, Note_off_c, 2, 72, 64
4, 213470, Note_off_c, 2, 67, 64
4, 213470, Note_off_c, 2, 64, 64
4, 213475, Note_on_c, 2, 64, 64
4, 213475, Note_on_c, 2, 67, 80
4, 213475, Note_on_c, 2, 72, 69
4, 213595, Note_off_c, 2, 72, 64
4, 213595, Note_off_c, 2, 67, 64
4, 213595, Note_off_c, 2, 64, 64
4, 213600, Note_on_c, 2, 64, 52
4, 213600, Note_on_c, 2, 67, 75
4, 213600, Note_on_c, 2, 72, 65
4, 213715, Note_off_c, 2, 72, 64
4, 213715, Note_off_c, 2, 67, 64
4, 213715, Note_off_c, 2, 64, 64
4, 213720, Note_on_c, 2, 64, 59
4, 213720, Note_on_c, 2, 67, 80
4, 213720, Note_on_c, 2, 72, 72
4, 213835, Note_off_c, 2, 72, 64
4, 213835, Note_off_c, 2, 67, 64
4, 213835, Note_off_c, 2, 64, 64
4, 213840, Note_on_c, 2, 64, 66
4, 213840, Note_on_c, 2, 67, 80
4, 213840, Note_on_c, 2, 72, 72
4, 213960, Note_off_c, 2, 72, 64
4, 213960, Note_off_c, 2, 67, 64
4, 213960, Note_off_c, 2, 64, 64
4, 214090, Note_on_c, 2, 64, 80
4, 214090, Note_on_c, 2, 67, 80
4, 214090, Note_on_c, 2, 72, 80
4, 214195, Note_off_c, 2, 64, 64
4, 214205, Note_off_c, 2, 67, 64
4, 214220, Note_off_c, 2, 72, 64
4, 214550, Note_on_c, 2, 66, 80
4, 214550, Note_on_c, 2, 69, 80
4, 214550, Note_on_c, 2, 74, 80
4, 214695, Note_off_c, 2, 74, 64
4, 214710, Note_off_c, 2, 66, 64
4, 214715, Note_off_c, 2, 69, 64
4, 215290, Note_on_c, 2, 62, 78
4, 215290, Note_on_c, 2, 67, 80
4, 215290, Note_on_c, 2, 71, 80
4, 215405, Note_off_c, 2, 71, 64
4, 215405, Note_off_c, 2, 67, 64
4, 215405, Note_off_c, 2, 62, 64
4, 215410, Note_on_c, 2, 62, 50
4, 215410, Note_on_c, 2, 67, 78
4, 215410, Note_on_c, 2, 71, 66
4, 215520, Note_off_c, 2, 71, 64
4, 215520, Note_off_c, 2, 67, 64
4, 215520, Note_off_c, 2, 62, 64
4, 215525, Note_on_c, 2, 62, 52
4, 215525, Note_on_c, 2, 67, 72
4, 215525, Note_on_c, 2, 71, 65
4, 215635, Note_off_c, 2, 71, 64
4, 215635, Note_off_c, 2, 67, 64
4, 215635, Note_off_c, 2, 62, 64
4, 215640, Note_on_c, 2, 62, 42
4, 215640, Note_on_c, 2, 67, 70
4, 215640, Note_on_c, 2, 71, 65
4, 215641, Note_off_c, 2, 62, 64
4, 215755, Note_off_c, 2, 67, 64
4, 215755, Note_off_c, 2, 71, 64
4, 215760, Note_on_c, 2, 62, 56
4, 215760, Note_on_c, 2, 67, 72
4, 215760, Note_on_c, 2, 71, 64
4, 215880, Note_off_c, 2, 71, 64
4, 215880, Note_off_c, 2, 67, 64
4, 215880, Note_off_c, 2, 62, 64
4, 216000, Note_on_c, 2, 66, 80
4, 216000, Note_on_c, 2, 69, 80
4, 216000, Note_on_c, 2, 74, 80
4, 216090, Note_off_c, 2, 69, 64
4, 216090, Note_off_c, 2, 66, 64
4, 216115, Note_off_c, 2, 74, 64
4, 216360, Note_on_c, 2, 66, 80
4, 216360, Note_on_c, 2, 69, 80
4, 216360, Note_on_c, 2, 74, 80
4, 216460, Note_off_c, 2, 69, 64
4, 216460, Note_off_c, 2, 66, 64
4, 216475, Note_off_c, 2, 74, 64
4, 216720, Note_on_c, 2, 64, 80
4, 216720, Note_on_c, 2, 67, 80
4, 216720, Note_on_c, 2, 72, 80
4, 216850, Note_off_c, 2, 67, 64
4, 216850, Note_off_c, 2, 64, 64
4, 216855, Note_off_c, 2, 72, 64
4, 217195, Note_on_c, 2, 64, 80
4, 217195, Note_on_c, 2, 67, 80
4, 217195, Note_on_c, 2, 72, 80
4, 217310, Note_off_c, 2, 72, 64
4, 217310, Note_off_c, 2, 67, 64
4, 217310, Note_off_c, 2, 64, 64
4, 217315, Note_on_c, 2, 64, 59
4, 217315, Note_on_c, 2, 67, 80
4, 217315, Note_on_c, 2, 72, 65
4, 217430, Note_off_c, 2, 72, 64
4, 217430, Note_off_c, 2, 67, 64
4, 217430, Note_off_c, 2, 64, 64
4, 217435, Note_on_c, 2, 64, 52
4, 217435, Note_on_c, 2, 67, 75
4, 217435, Note_on_c, 2, 72, 70
4, 217550, Note_off_c, 2, 72, 64
4, 217550, Note_off_c, 2, 67, 64
4, 217550, Note_off_c, 2, 64, 64
4, 217555, Note_on_c, 2, 72, 55
4, 217560, Note_on_c, 2, 64, 42
4, 217560, Note_on_c, 2, 67, 75
4, 217675, Note_off_c, 2, 67, 64
4, 217675, Note_off_c, 2, 64, 64
4, 217675, Note_off_c, 2, 72, 64
4, 217680, Note_on_c, 2, 64, 66
4, 217680, Note_on_c, 2, 67, 80
4, 217680, Note_on_c, 2, 72, 75
4, 217681, Note_off_c, 2, 72, 64
4, 217800, Note_off_c, 2, 67, 64
4, 217800, Note_off_c, 2, 64, 64
4, 217925, Note_on_c, 2, 64, 80
4, 217925, Note_on_c, 2, 67, 80
4, 217925, Note_on_c, 2, 72, 80
4, 218040, Note_off_c, 2, 64, 64
4, 218045, Note_off_c, 2, 67, 64
4, 218055, Note_off_c, 2, 72, 64
4, 218405, Note_on_c, 2, 64, 80
4, 218405, Note_on_c, 2, 67, 80
4, 218405, Note_on_c, 2, 72, 80
4, 218520, Note_off_c, 2, 67, 64
4, 218520, Note_off_c, 2, 64, 64
4, 218530, Note_off_c, 2, 72, 64
4, 219125, Note_on_c, 2, 62, 80
4, 219125, Note_on_c, 2, 67, 80
4, 219125, Note_on_c, 2, 71, 80
4, 219240, Note_off_c, 2, 71, 64
4, 219240, Note_off_c, 2, 67, 64
4, 219240, Note_off_c, 2, 62, 64
4, 219245, Note_on_c, 2, 62, 49
4, 219245, Note_on_c, 2, 67, 78
4, 219245, Note_on_c, 2, 71, 70
4, 219355, Note_off_c, 2, 71, 64
4, 219355, Note_off_c, 2, 67, 64
4, 219355, Note_off_c, 2, 62, 64
4, 219360, Note_on_c, 2, 62, 47
4, 219365, Note_on_c, 2, 67, 80
4, 219365, Note_on_c, 2, 71, 72
4, 219480, Note_off_c, 2, 71, 64
4, 219480, Note_off_c, 2, 67, 64
4, 219480, Note_off_c, 2, 62, 64
4, 219485, Note_on_c, 2, 62, 56
4, 219485, Note_on_c, 2, 67, 75
4, 219485, Note_on_c, 2, 71, 72
4, 219600, Note_off_c, 2, 71, 64
4, 219600, Note_off_c, 2, 67, 64
4, 219600, Note_off_c, 2, 62, 64
4, 219605, Note_on_c, 2, 62, 64
4, 219605, Note_on_c, 2, 67, 75
4, 219605, Note_on_c, 2, 71, 70
4, 219675, Note_off_c, 2, 62, 64
4, 219680, Note_off_c, 2, 71, 64
4, 219685, Note_off_c, 2, 67, 64
4, 219845, Note_on_c, 2, 66, 80
4, 219845, Note_on_c, 2, 69, 80
4, 219845, Note_on_c, 2, 74, 80
4, 219930, Note_off_c, 2, 69, 64
4, 219935, Note_off_c, 2, 66, 64
4, 219965, Note_off_c, 2, 74, 64
4, 220195, Note_on_c, 2, 66, 80
4, 220195, Note_on_c, 2, 69, 80
4, 220195, Note_on_c, 2, 74, 80
4, 220305, Note_off_c, 2, 66, 64
4, 220310, Note_off_c, 2, 69, 64
4, 220315, Note_off_c, 2, 74, 64
4, 220555, Note_on_c, 2, 64, 80
4, 220555, Note_on_c, 2, 67, 80
4, 220555, Note_on_c, 2, 72, 80
4, 220680, Note_off_c, 2, 64, 64
4, 220685, Note_off_c, 2, 67, 64
4, 220690, Note_off_c, 2, 72, 64
4, 221035, Note_on_c, 2, 64, 75
4, 221035, Note_on_c, 2, 67, 80
4, 221035, Note_on_c, 2, 72, 80
4, 221150, Note_off_c, 2, 72, 64
4, 221150, Note_off_c, 2, 67, 64
4, 221150, Note_off_c, 2, 64, 64
4, 221155, Note_on_c, 2, 64, 64
4, 221155, Note_on_c, 2, 67, 80
4, 221155, Note_on_c, 2, 72, 69
4, 221275, Note_off_c, 2, 72, 64
4, 221275, Note_off_c, 2, 67, 64
4, 221275, Note_off_c, 2, 64, 64
4, 221280, Note_on_c, 2, 64, 52
4, 221280, Note_on_c, 2, 67, 75
4, 221280, Note_on_c, 2, 72, 65
4, 221395, Note_off_c, 2, 72, 64
4, 221395, Note_off_c, 2, 67, 64
4, 221395, Note_off_c, 2, 64, 64
4, 221400, Note_on_c, 2, 64, 59
4, 221400, Note_on_c, 2, 67, 80
4, 221400, Note_on_c, 2, 72, 72
4, 221515, Note_off_c, 2, 72, 64
4, 221515, Note_off_c, 2, 67, 64
4, 221515, Note_off_c, 2, 64, 64
4, 221520, Note_on_c, 2, 64, 66
4, 221520, Note_on_c, 2, 67, 80
4, 221520, Note_on_c, 2, 72, 72
4, 221640, Note_off_c, 2, 72, 64
4, 221640, Note_off_c, 2, 67, 64
4, 221640, Note_off_c, 2, 64, 64
4, 221770, Note_on_c, 2, 64, 80
4, 221770, Note_on_c, 2, 67, 80
4, 221770, Note_on_c, 2, 72, 80
4, 221875, Note_off_c, 2, 64, 64
4, 221885, Note_off_c, 2, 67, 64
4, 221900, Note_off_c, 2, 72, 64
4, 222230, Note_on_c, 2, 66, 80
4, 222230, Note_on_c, 2, 69, 80
4, 222230, Note_on_c, 2, 74, 80
4, 222375, Note_off_c, 2, 74, 64
4, 222390, Note_off_c, 2, 66, 64
4, 222395, Note_off_c, 2, 69, 64
4, 222970, Note_on_c, 2, 62, 78
4, 222970, Note_on_c, 2, 67, 80
4, 222970, Note_on_c, 2, 71, 80
4, 223085, Note_off_c, 2, 71, 64
4, 223085, Note_off_c, 2, 67, 64
4, 223085, Note_off_c, 2, 62, 64
4, 223090, Note_on_c, 2, 62, 50
4, 223090, Note_on_c, 2, 67, 78
4, 223090, Note_on_c, 2, 71, 66
4, 223200, Note_off_c, 2, 71, 64
4, 223200, Note_off_c, 2, 67, 64
4, 223200, Note_off_c, 2, 62, 64
4, 223205, Note_on_c, 2, 62, 52
4, 223205, Note_on_c, 2, 67, 72
4, 223205, Note_on_c, 2, 71, 65
4, 223315, Note_off_c, 2, 71, 64
4, 223315, Note_off_c, 2, 67, 64
4, 223315, Note_off_c, 2, 62, 64
4, 223320, Note_on_c, 2, 62, 42
4, 223320, Note_on_c, 2, 67, 70
4, 223320, Note_on_c, 2, 71, 65
4, 223321, Note_off_c, 2, 62, 64
4, 223435, Note_off_c, 2, 67, 64
4, 223435, Note_off_c, 2, 71, 64
4, 223440, Note_on_c, 2, 62, 56
4, 223440, Note_on_c, 2, 67, 72
4, 223440, Note_on_c, 2, 71, 64
4, 223560, Note_off_c, 2, 71, 64
4, 223560, Note_off_c, 2, 67, 64
4, 223560, Note_off_c, 2, 62, 64
4, 223680, Note_on_c, 2, 66, 80
4, 223680, Note_on_c, 2, 69, 80
4, 223680, Note_on_c, 2, 74, 80
4, 223770, Note_off_c, 2, 69, 64
4, 223770, Note_off_c, 2, 66, 64
4, 223795, Note_off_c, 2, 74, 64
4, 224040, Note_on_c, 2, 66, 80
4, 224040, Note_on_c, 2, 69, 80
4, 224040, Note_on_c, 2, 74, 80
4, 224140, Note_off_c, 2, 69, 64
4, 224140, Note_off_c, 2, 66, 64
4, 224155, Note_off_c, 2, 74, 64
4, 224400, Note_on_c, 2, 64, 80
4, 224400, Note_on_c, 2, 67, 80
4, 224400, Note_on_c, 2, 72, 80
4, 224530, Note_off_c, 2, 67, 64
4, 224530, Note_off_c, 2, 64, 64
4, 224535, Note_off_c, 2, 72, 64
4, 224875, Note_on_c, 2, 64, 80
4, 224875, Note_on_c, 2, 67, 80
4, 224875, Note_on_c, 2, 72, 80
4, 224990, Note_off_c, 2, 72, 64
4, 224990, Note_off_c, 2, 67, 64
4, 224990, Note_off_c, 2, 64, 64
4, 224995, Note_on_c, 2, 64, 59
4, 224995, Note_on_c, 2, 67, 80
4, 224995, Note_on_c, 2, 72, 65
4, 225110, Note_off_c, 2, 72, 64
4, 225110, Note_off_c, 2, 67, 64
4, 225110, Note_off_c, 2, 64, 64
4, 225115, Note_on_c, 2, 64, 52
4, 225115, Note_on_c, 2, 67, 75
4, 225115, Note_on_c, 2, 72, 70
4, 225230, Note_off_c, 2, 72, 64
4, 225230, Note_off_c, 2, 67, 64
4, 225230, Note_off_c, 2, 64, 64
4, 225235, Note_on_c, 2, 72, 55
4, 225240, Note_on_c, 2, 64, 42
4, 225240, Note_on_c, 2, 67, 75
4, 225355, Note_off_c, 2, 67, 64
4, 225355, Note_off_c, 2, 64, 64
4, 225355, Note_off_c, 2, 72, 64
4, 225360, Note_on_c, 2, 64, 66
4, 225360, Note_on_c, 2, 67, 80
4, 225360, Note_on_c, 2, 72, 75
4, 225361, Note_off_c, 2, 72, 64
4, 225480, Note_off_c, 2, 67, 64
4, 225480, Note_off_c, 2, 64, 64
4, 225605, Note_on_c, 2, 64, 80
4, 225605, Note_on_c, 2, 67, 80
4, 225605, Note_on_c, 2, 72, 80
4, 225720, Note_off_c, 2, 64, 64
4, 225725, Note_off_c, 2, 67, 64
4, 225735, Note_off_c, 2, 72, 64
4, 226085, Note_on_c, 2, 64, 80
4, 226085, Note_on_c, 2, 67, 80
4, 226085, Note_on_c, 2, 72, 80
4, 226200, Note_off_c, 2, 67, 64
4, 226200, Note_off_c, 2, 64, 64
4, 226210, Note_off_c, 2, 72, 64
4, 226805, Note_on_c, 2, 62, 80
4, 226805, Note_on_c, 2, 67, 80
4, 226805, Note_on_c, 2, 71, 80
4, 226920, Note_off_c, 2, 71, 64
4, 226920, Note_off_c, 2, 67, 64
4, 226920, Note_off_c, 2, 62, 64
4, 226925, Note_on_c, 2, 62, 49
4, 226925, Note_on_c, 2, 67, 78
4, 226925, Note_on_c, 2, 71, 70
4, 227035, Note_off_c, 2, 71, 64
4, 227035, Note_off_c, 2, 67, 64
4, 227035, Note_off_c, 2, 62, 64
4, 227040, Note_on_c, 2, 62, 47
4, 227045, Note_on_c, 2, 67, 80
4, 227045, Note_on_c, 2, 71, 72
4, 227160, Note_off_c, 2, 71, 64
4, 227160, Note_off_c, 2, 67, 64
4, 227160, Note_off_c, 2, 62, 64
4, 227165, Note_on_c, 2, 62, 56
4, 227165, Note_on_c, 2, 67, 75
4, 227165, Note_on_c, 2, 71, 72
4, 227280, Note_off_c, 2, 71, 64
4, 227280, Note_off_c, 2, 67, 64
4, 227280, Note_off_c, 2, 62, 64
4, 227285, Note_on_c, 2, 62, 64
4, 227285, Note_on_c, 2, 67, 75
4, 227285, Note_on_c, 2, 71, 70
4, 227355, Note_off_c, 2, 62, 64
4, 227360, Note_off_c, 2, 71, 64
4, 227365, Note_off_c, 2, 67, 64
4, 227525, Note_on_c, 2, 66, 80
4, 227525, Note_on_c, 2, 69, 80
4, 227525, Note_on_c, 2, 74, 80
4, 227610, Note_off_c, 2, 69, 64
4, 227615, Note_off_c, 2, 66, 64
4, 227645, Note_off_c, 2, 74, 64
4, 227875, Note_on_c, 2, 66, 80
4, 227875, Note_on_c, 2, 69, 80
4, 227875, Note_on_c, 2, 74, 80
4, 227985, Note_off_c, 2, 66, 64
4, 227990, Note_off_c, 2, 69, 64
4, 227995, Note_off_c, 2, 74, 64
4, 228235, Note_on_c, 2, 64, 80
4, 228235, Note_on_c, 2, 67, 80
4, 228235, Note_on_c, 2, 72, 80
4, 228360, Note_off_c, 2, 64, 64
4, 228365, Note_off_c, 2, 67, 64
4, 228370, Note_off_c, 2, 72, 64
4, 228715, Note_on_c, 2, 64, 75
4, 228715, Note_on_c, 2, 67, 80
4, 228715, Note_on_c, 2, 72, 80
4, 228830, Note_off_c, 2, 72, 64
4, 228830, Note_off_c, 2, 67, 64
4, 228830, Note_off_c, 2, 64, 64
4, 228835, Note_on_c, 2, 64, 64
4, 228835, Note_on_c, 2, 67, 80
4, 228835, Note_on_c, 2, 72, 69
4, 228955, Note_off_c, 2, 72, 64
4, 228955, Note_off_c, 2, 67, 64
4, 228955, Note_off_c, 2, 64, 64
4, 228960, Note_on_c, 2, 64, 52
4, 228960, Note_on_c, 2, 67, 75
4, 228960, Note_on_c, 2, 72, 65
4, 229075, Note_off_c, 2, 72, 64
4, 229075, Note_off_c, 2, 67, 64
4, 229075, Note_off_c, 2, 64, 64
4, 229080, Note_on_c, 2, 64, 59
4, 229080, Note_on_c, 2, 67, 80
4, 229080, Note_on_c, 2, 72, 72
4, 229195, Note_off_c, 2, 72, 64
4, 229195, Note_off_c, 2, 67, 64
4, 229195, Note_off_c, 2, 64, 64
4, 229200, Note_on_c, 2, 64, 66
4, 229200, Note_on_c, 2, 67, 80
4, 229200, Note_on_c, 2, 72, 72
4, 229320, Note_off_c, 2, 72, 64
4, 229320, Note_off_c, 2, 67, 64
4, 229320, Note_off_c, 2, 64, 64
4, 229450, Note_on_c, 2, 64, 80
4, 229450, Note_on_c, 2, 67, 80
4, 229450, Note_on_c, 2, 72, 80
4, 229555, Note_off_c, 2, 64, 64
4, 229565, Note_off_c, 2, 67, 64
4, 229580, Note_off_c, 2, 72, 64
4, 229910, Note_on_c, 2, 66, 80
4, 229910, Note_on_c, 2, 69, 80
4, 229910, Note_on_c, 2, 74, 80
4, 230055, Note_off_c, 2, 74, 64
4, 230070, Note_off_c, 2, 66, 64
4, 230075, Note_off_c, 2, 69, 64
4, 230650, Note_on_c, 2, 62, 78
4, 230650, Note_on_c, 2, 67, 80
4, 230650, Note_on_c, 2, 71, 80
4, 230765, Note_off_c, 2, 71, 64
4, 230765, Note_off_c, 2, 67, 64
4, 230765, Note_off_c, 2, 62, 64
4, 230770, Note_on_c, 2, 62, 50
4, 230770, Note_on_c, 2, 67, 78
4, 230770, Note_on_c, 2, 71, 66
4, 230880, Note_off_c, 2, 71, 64
4, 230880, Note_off_c, 2, 67, 64
4, 230880, Note_off_c, 2, 62, 64
4, 230885, Note_on_c, 2, 62, 52
4, 230885, Note_on_c, 2, 67, 72
4, 230885, Note_on_c, 2, 71, 65
4, 230995, Note_off_c, 2, 71, 64
4, 230995, Note_off_c, 2, 67, 64
4, 230995, Note_off_c, 2, 62, 64
4, 231000, Note_on_c, 2, 62, 42
4, 231000, Note_on_c, 2, 67, 70
4, 231000, Note_on_c, 2, 71, 65
4, 231001, Note_off_c, 2, 62, 64
4, 231115, Note_off_c, 2, 67, 64
4, 231115, Note_off_c, 2, 71, 64
4, 231120, Note_on_c, 2, 62, 56
4, 231120, Note_on_c, 2, 67, 72
4, 231120, Note_on_c, 2, 71, 64
4, 231240, Note_off_c, 2, 71, 64
4, 231240, Note_off_c, 2, 67, 64
4, 231240, Note_off_c, 2, 62, 64
4, 231360, Note_on_c, 2, 66, 80
4, 231360, Note_on_c, 2, 69, 80
4, 231360, Note_on_c, 2, 74, 80
4, 231450, Note_off_c, 2, 69, 64
4, 231450, Note_off_c, 2, 66, 64
4, 231475, Note_off_c, 2, 74, 64
4, 231720, Note_on_c, 2, 66, 80
4, 231720, Note_on_c, 2, 69, 80
4, 231720, Note_on_c, 2, 74, 80
4, 231820, Note_off_c, 2, 69, 64
4, 231820, Note_off_c, 2, 66, 64
4, 231835, Note_off_c, 2, 74, 64
4, 232080, Note_on_c, 2, 64, 80
4, 232080, Note_on_c, 2, 67, 80
4, 232080, Note_on_c, 2, 72, 80
4, 232210, Note_off_c, 2, 67, 64
4, 232210, Note_off_c, 2, 64, 64
4, 232215, Note_off_c, 2, 72, 64
4, 232555, Note_on_c, 2, 64, 80
4, 232555, Note_on_c, 2, 67, 80
4, 232555, Note_on_c, 2, 72, 80
4, 232670, Note_off_c, 2, 72, 64
4, 232670, Note_off_c, 2, 67, 64
4, 232670, Note_off_c, 2, 64, 64
4, 232675, Note_on_c, 2, 64, 59
4, 232675, Note_on_c, 2, 67, 80
4, 232675, Note_on_c, 2, 72, 65
4, 232790, Note_off_c, 2, 72, 64
4, 232790, Note_off_c, 2, 67, 64
4, 232790, Note_off_c, 2, 64, 64
4, 232795, Note_on_c, 2, 64, 52
4, 232795, Note_on_c, 2, 67, 75
4, 232795, Note_on_c, 2, 72, 70
4, 232910, Note_off_c, 2, 72, 64
4, 232910, Note_off_c, 2, 67, 64
4, 232910, Note_off_c, 2, 64, 64
4, 232915, Note_on_c, 2, 72, 55
4, 232920, Note_on_c, 2, 64, 42
4, 232920, Note_on_c, 2, 67, 75
4, 233035, Note_off_c, 2, 67, 64
4, 233035, Note_off_c, 2, 64, 64
4, 233035, Note_off_c, 2, 72, 64
4, 233040, Note_on_c, 2, 64, 66
4, 233040, Note_on_c, 2, 67, 80
4, 233040, Note_on_c, 2, 72, 75
4, 233041, Note_off_c, 2, 72, 64
4, 233160, Note_off_c, 2, 67, 64
4, 233160, Note_off_c, 2, 64, 64
4, 233285, Note_on_c, 2, 64, 80
4, 233285, Note_on_c, 2, 67, 80
4, 233285, Note_on_c, 2, 72, 80
4, 233400, Note_off_c, 2, 64, 64
4, 233405, Note_off_c, 2, 67, 64
4, 233415, Note_off_c, 2, 72, 64
4, 233765, Note_on_c, 2, 64, 80
4, 233765, Note_on_c, 2, 67, 80
4, 233765, Note_on_c, 2, 72, 80
4, 233880, Note_off_c, 2, 67, 64
4, 233880, Note_off_c, 2, 64, 64
4, 233890, Note_off_c, 2, 72, 64
4, 234485, Note_on_c, 2, 62, 80
4, 234485, Note_on_c, 2, 67, 80
4, 234485, Note_on_c, 2, 71, 80
4, 234600, Note_off_c, 2, 71, 64
4, 234600, Note_off_c, 2, 67, 64
4, 234600, Note_off_c, 2, 62, 64
4, 234605, Note_on_c, 2, 62, 49
4, 234605, Note_on_c, 2, 67, 78
4, 234605, Note_on_c, 2, 71, 70
4, 234715, Note_off_c, 2, 71, 64
4, 234715, Note_off_c, 2, 67, 64
4, 234715, Note_off_c, 2, 62, 64
4, 234720, Note_on_c, 2, 62, 47
4, 234725, Note_on_c, 2, 67, 80
4, 234725, Note_on_c, 2, 71, 72
4, 234840, Note_off_c, 2, 71, 64
4, 234840, Note_off_c, 2, 67, 64
4, 234840, Note_off_c, 2, 62, 64
4, 234845, Note_on_c, 2, 62, 56
4, 234845, Note_on_c, 2, 67, 75
4, 234845, Note_on_c, 2, 71, 72
4, 234960, Note_off_c, 2, 71, 64
4, 234960, Note_off_c, 2, 67, 64
4, 234960, Note_off_c, 2, 62, 64
4, 234965, Note_on_c, 2, 62, 64
4, 234965, Note_on_c, 2, 67, 75
4, 234965, Note_on_c, 2, 71, 70
4, 235035, Note_off_c, 2, 62, 64
4, 235040, Note_off_c, 2, 71, 64
4, 235045, Note_off_c, 2, 67, 64
4, 235205, Note_on_c, 2, 66, 80
4, 235205, Note_on_c, 2, 69, 80
4, 235205, Note_on_c, 2, 74, 80
4, 235290, Note_off_c, 2, 69, 64
4, 235295, Note_off_c, 2, 66, 64
4, 235325, Note_off_c, 2, 74, 64
4, 235555, Note_on_c, 2, 66, 80
4, 235555, Note_on_c, 2, 69, 80
4, 235555, Note_on_c, 2, 74, 80
4, 235665, Note_off_c, 2, 66, 64
4, 235670, Note_off_c, 2, 69, 64
4, 235675, Note_off_c, 2, 74, 64
4, 235915, Note_on_c, 2, 64, 80
4, 235915, Note_on_c, 2, 67, 80
4, 235915, Note_on_c, 2, 72, 80
4, 236040, Note_off_c, 2, 64, 64
4, 236045, Note_off_c, 2, 67, 64
4, 236050, Note_off_c, 2, 72, 64
4, 236395, Note_on_c, 2, 64, 75
4, 236395, Note_on_c, 2, 67, 80
4, 236395, Note_on_c, 2, 72, 80
4, 236510, Note_off_c, 2, 72, 64
4, 236510, Note_off_c, 2, 67, 64
4, 236510, Note_off_c, 2, 64, 64
4, 236515, Note_on_c, 2, 64, 64
4, 236515, Note_on_c, 2, 67, 80
4, 236515, Note_on_c, 2, 72, 69
4, 236635, Note_off_c, 2, 72, 64
4, 236635, Note_off_c, 2, 67, 64
4, 236635, Note_off_c, 2, 64, 64
4, 236640, Note_on_c, 2, 64, 52
4, 236640, Note_on_c, 2, 67, 75
4, 236640, Note_on_c, 2, 72, 65
4, 236755, Note_off_c, 2, 72, 64
4, 236755, Note_off_c, 2, 67, 64
4, 236755, Note_off_c, 2, 64, 64
4, 236760, Note_on_c, 2, 64, 59
4, 236760, Note_on_c, 2, 67, 80
4, 236760, Note_on_c, 2, 72, 72
4, 236875, Note_off_c, 2, 72, 64
4, 236875, Note_off_c, 2, 67, 64
4, 236875, Note_off_c, 2, 64, 64
4, 236880, Note_on_c, 2, 64, 66
4, 236880, Note_on_c, 2, 67, 80
4, 236880, Note_on_c, 2, 72, 72
4, 237000, Note_off_c, 2, 72, 64
4, 237000, Note_off_c, 2, 67, 64
4, 237000, Note_off_c, 2, 64, 64
4, 237130, Note_on_c, 2, 64, 80
4, 237130, Note_on_c, 2, 67, 80
4, 237130, Note_on_c, 2, 72, 80
4, 237235, Note_off_c, 2, 64, 64
4, 237245, Note_off_c, 2, 67, 64
4, 237260, Note_off_c, 2, 72, 64
4, 237590, Note_on_c, 2, 66, 80
4, 237590, Note_on_c, 2, 69, 80
4, 237590, Note_on_c, 2, 74, 80
4, 237735, Note_off_c, 2, 74, 64
4, 237750, Note_off_c, 2, 66, 64
4, 237755, Note_off_c, 2, 69, 64
4, 238330, Note_on_c, 2, 62, 78
4, 238330, Note_on_c, 2, 67, 80
4, 238330, Note_on_c, 2, 71, 80
4, 238445, Note_off_c, 2, 71, 64
4, 238445, Note_off_c, 2, 67, 64
4, 238445, Note_off_c, 2, 62, 64
4, 238450, Note_on_c, 2, 62, 50
4, 238450, Note_on_c, 2, 67, 78
4, 238450, Note_on_c, 2, 71, 66
4, 238560, Note_off_c, 2, 71, 64
4, 238560, Note_off_c, 2, 67, 64
4, 238560, Note_off_c, 2, 62, 64
4, 238565, Note_on_c, 2, 62, 52
4, 238565, Note_on_c, 2, 67, 72
4, 238565, Note_on_c, 2, 71, 65
4, 238675, Note_off_c, 2, 71, 64
4, 238675, Note_off_c, 2, 67, 64
4, 238675, Note_off_c, 2, 62, 64
4, 238680, Note_on_c, 2, 62, 42
4, 238680, Note_on_c, 2, 67, 70
4, 238680, Note_on_c, 2, 71, 65
4, 238681, Note_off_c, 2, 62, 64
4, 238795, Note_off_c, 2, 67, 64
4, 238795, Note_off_c, 2, 71, 64
4, 238800, Note_on_c, 2, 62, 56
4, 238800, Note_on_c, 2, 67, 72
4, 238800, Note_on_c, 2, 71, 64
4, 238920, Note_off_c, 2, 71, 64
4, 238920, Note_off_c, 2, 67, 64
4, 238920, Note_off_c, 2, 62, 64
4, 239040, Note_on_c, 2, 66, 80
4, 239040, Note_on_c, 2, 69, 80
4, 239040, Note_on_c, 2, 74, 80
4, 239130, Note_off_c, 2, 69, 64
4, 239130, Note_off_c, 2, 66, 64
4, 239155, Note_off_c, 2, 74, 64
4, 239400, Note_on_c, 2, 66, 80
4, 239400, Note_on_c, 2, 69, 80
4, 239400, Note_on_c, 2, 74, 80
4, 239500, Note_off_c, 2, 69, 64
4, 239500, Note_off_c, 2, 66, 64
4, 239515, Note_off_c, 2, 74, 64
4, 239760, Note_on_c, 2, 64, 80
4, 239760, Note_on_c, 2, 67, 80
4, 239760, Note_on_c, 2, 72, 80
4, 239890, Note_off_c, 2, 67, 64
4, 239890, Note_off_c, 2, 64, 64
4, 239895, Note_off_c, 2, 72, 64
4, 240235, Note_on_c, 2, 64, 80
4, 240235, Note_on_c, 2, 67, 80
4, 240235, Note_on_c, 2, 72, 80
4, 240350, Note_off_c, 2, 72, 64
4, 240350, Note_off_c, 2, 67, 64
4, 240350, Note_off_c, 2, 64, 64
4, 240355, Note_on_c, 2, 64, 59
4, 240355, Note_on_c, 2, 67, 80
4, 240355, Note_on_c, 2, 72, 65
4, 240470, Note_off_c, 2, 72, 64
4, 240470, Note_off_c, 2, 67, 64
4, 240470, Note_off_c, 2, 64, 64
4, 240475, Note_on_c, 2, 64, 52
4, 240475, Note_on_c, 2, 67, 75
4, 240475, Note_on_c, 2, 72, 70
4, 240590, Note_off_c, 2, 72, 64
4, 240590, Note_off_c, 2, 67, 64
4, 240590, Note_off_c, 2, 64, 64
4, 240595, Note_on_c, 2, 72, 55
4, 240600, Note_on_c, 2, 64, 42
4, 240600, Note_on_c, 2, 67, 75
4, 240715, Note_off_c, 2, 67, 64
4, 240715, Note_off_c, 2, 64, 64
4, 240715, Note_off_c, 2, 72, 64
4, 240720, Note_on_c, 2, 64, 66
4, 240720, Note_on_c, 2, 67, 80
4, 240720, Note_on_c, 2, 72, 75
4, 240721, Note_off_c, 2, 72, 64
4, 240840, Note_off_c, 2, 67, 64
4, 240840, Note_off_c, 2, 64, 64
4, 240965, Note_on_c, 2, 64, 80
4, 240965, Note_on_c, 2, 67, 80
4, 240965, Note_on_c, 2, 72, 80
4, 241080, Note_off_c, 2, 64, 64
4, 241085, Note_off_c, 2, 67, 64
4, 241095, Note_off_c, 2, 72, 64
4, 241445, Note_on_c, 2, 64, 80
4, 241445, Note_on_c, 2, 67, 80
4, 241445, Note_on_c, 2, 72, 80
4, 241560, Note_off_c, 2, 67, 64
4, 241560, Note_off_c, 2, 64, 64
4, 241570, Note_off_c, 2, 72, 64
4, 241805, Note_on_c, 2, 62, 80
4, 241805, Note_on_c, 2, 64, 80
4, 241805, Note_on_c, 2, 67, 80
4, 241805, Note_on_c, 2, 69, 80
4, 241955, Note_off_c, 2, 64, 64
4, 241960, Note_off_c, 2, 62, 64
4, 241965, Note_off_c, 2, 67, 64
4, 241980, Note_off_c, 2, 69, 64
4, 241980, End_track
5, 0, Start_track
5, 0, Title_t, "tk4"
5, 0, MIDI_port, 0
5, 0, Channel_prefix, 3
5, 0, Control_c, 3, 10, 64
5, 555, Control_c, 3, 0, 0
5, 560, Control_c, 3, 32, 0
5, 565, Program_c, 3, 53
5, 570, Control_c, 3, 7, 110
5, 570, Control_c, 3, 10, 64
5, 570, Control_c, 3, 11, 127
5, 575, Control_c, 3, 91, 70
5, 575, Control_c, 3, 93, 0
5, 26880, Note_on_c, 3, 71, 120
5, 26975, Note_off_c, 3, 71, 64
5, 27120, Note_on_c, 3, 71, 120
5, 27240, Note_off_c, 3, 71, 64
5, 27360, Note_on_c, 3, 69, 120
5, 27470, Note_off_c, 3, 69, 64
5, 27600, Note_on_c, 3, 71, 120
5, 28115, Note_off_c, 3, 71, 64
5, 28800, Note_on_c, 3, 71, 120
5, 28910, Note_off_c, 3, 71, 64
5, 29040, Note_on_c, 3, 71, 120
5, 29150, Note_off_c, 3, 71, 64
5, 29280, Note_on_c, 3, 72, 120
5, 29420, Note_off_c, 3, 72, 64
5, 29520, Note_on_c, 3, 71, 120
5, 29860, Note_off_c, 3, 71, 64
5, 30720, Note_on_c, 3, 71, 120
5, 30830, Note_off_c, 3, 71, 64
5, 30960, Note_on_c, 3, 71, 120
5, 31080, Note_off_c, 3, 71, 64
5, 31200, Note_on_c, 3, 69, 120
5, 31320, Note_off_c, 3, 69, 64
5, 31440, Note_on_c, 3, 71, 120
5, 31775, Note_off_c, 3, 71, 64
5, 32640, Note_on_c, 3, 71, 120
5, 32740, Note_off_c, 3, 71, 64
5, 32880, Note_on_c, 3, 71, 120
5, 32990, Note_off_c, 3, 71, 64
5, 33120, Note_on_c, 3, 72, 120
5, 33275, Note_off_c, 3, 72, 64
5, 33360, Note_on_c, 3, 71, 120
5, 33630, Note_off_c, 3, 71, 64
5, 33840, Note_on_c, 3, 71, 120
5, 33950, Note_off_c, 3, 71, 64
5, 33960, Note_on_c, 3, 69, 120
5, 34180, Note_off_c, 3, 69, 64
5, 34200, Note_on_c, 3, 67, 120
5, 34415, Note_off_c, 3, 67, 64
5, 34560, Note_on_c, 3, 71, 120
5, 34650, Note_off_c, 3, 71, 64
5, 34800, Note_on_c, 3, 71, 120
5, 34925, Note_off_c, 3, 71, 64
5, 35040, Note_on_c, 3, 69, 120
5, 35155, Note_off_c, 3, 69, 64
5, 35280, Note_on_c, 3, 71, 120
5, 35585, Note_off_c, 3, 71, 64
5, 36480, Note_on_c, 3, 71, 120
5, 36585, Note_off_c, 3, 71, 64
5, 36720, Note_on_c, 3, 71, 120
5, 36830, Note_off_c, 3, 71, 64
5, 36960, Note_on_c, 3, 72, 120
5, 37110, Note_off_c, 3, 72, 64
5, 37200, Note_on_c, 3, 71, 120
5, 37550, Note_off_c, 3, 71, 64
5, 38400, Note_on_c, 3, 71, 120
5, 38515, Note_off_c, 3, 71, 64
5, 38640, Note_on_c, 3, 71, 120
5, 38765, Note_off_c, 3, 71, 64
5, 38880, Note_on_c, 3, 69, 120
5, 39015, Note_off_c, 3, 69, 64
5, 39120, Note_on_c, 3, 71, 120
5, 39590, Note_off_c, 3, 71, 64
5, 40320, Note_on_c, 3, 71, 120
5, 40430, Note_off_c, 3, 71, 64
5, 40560, Note_on_c, 3, 71, 120
5, 40715, Note_off_c, 3, 71, 64
5, 40800, Note_on_c, 3, 72, 120
5, 40970, Note_off_c, 3, 72, 64
5, 41040, Note_on_c, 3, 71, 120
5, 41340, Note_off_c, 3, 71, 64
5, 42120, Note_on_c, 3, 64, 120
5, 42210, Note_off_c, 3, 64, 64
5, 42240, Note_on_c, 3, 71, 120
5, 42325, Note_off_c, 3, 71, 64
5, 42360, Note_on_c, 3, 71, 120
5, 42435, Note_off_c, 3, 71, 64
5, 42480, Note_on_c, 3, 71, 120
5, 42555, Note_off_c, 3, 71, 64
5, 42600, Note_on_c, 3, 71, 120
5, 42675, Note_off_c, 3, 71, 64
5, 42720, Note_on_c, 3, 71, 120
5, 42770, Note_off_c, 3, 71, 64
5, 42840, Note_on_c, 3, 71, 120
5, 42910, Note_off_c, 3, 71, 64
5, 42960, Note_on_c, 3, 71, 120
5, 43030, Note_off_c, 3, 71, 64
5, 43080, Note_on_c, 3, 71, 120
5, 43170, Note_off_c, 3, 71, 64
5, 43200, Note_on_c, 3, 69, 120
5, 43280, Note_off_c, 3, 69, 64
5, 43320, Note_on_c, 3, 69, 120
5, 43395, Note_off_c, 3, 69, 64
5, 43440, Note_on_c, 3, 69, 120
5, 43525, Note_off_c, 3, 69, 64
5, 43560, Note_on_c, 3, 69, 120
5, 43640, Note_off_c, 3, 69, 64
5, 43680, Note_on_c, 3, 69, 120
5, 43880, Note_off_c, 3, 69, 64
5, 43920, Note_on_c, 3, 71, 120
5, 44040, Note_on_c, 3, 67, 120
5, 44050, Note_off_c, 3, 71, 64
5, 44760, Note_off_c, 3, 67, 64
5, 44880, Note_on_c, 3, 64, 120
5, 45005, Note_off_c, 3, 64, 64
5, 45120, Note_on_c, 3, 67, 120
5, 45245, Note_off_c, 3, 67, 64
5, 45360, Note_on_c, 3, 64, 120
5, 45480, Note_off_c, 3, 64, 64
5, 45600, Note_on_c, 3, 69, 120
5, 45765, Note_off_c, 3, 69, 64
5, 45840, Note_on_c, 3, 71, 120
5, 45905, Note_off_c, 3, 71, 64
5, 45960, Note_on_c, 3, 71, 120
5, 46600, Note_off_c, 3, 71, 64
5, 46800, Note_on_c, 3, 64, 120
5, 46860, Note_off_c, 3, 64, 64
5, 46920, Note_on_c, 3, 64, 120
5, 47010, Note_off_c, 3, 64, 64
5, 47040, Note_on_c, 3, 67, 120
5, 47135, Note_off_c, 3, 67, 64
5, 47280, Note_on_c, 3, 64, 120
5, 47370, Note_off_c, 3, 64, 64
5, 47520, Note_on_c, 3, 64, 120
5, 47620, Note_off_c, 3, 64, 64
5, 47760, Note_on_c, 3, 62, 120
5, 47825, Note_off_c, 3, 62, 64
5, 47880, Note_on_c, 3, 64, 120
5, 48300, Note_off_c, 3, 64, 64
5, 48480, Note_on_c, 3, 64, 120
5, 48585, Note_off_c, 3, 64, 64
5, 48720, Note_on_c, 3, 62, 120
5, 49445, Note_off_c, 3, 62, 64
5, 49800, Note_on_c, 3, 64, 120
5, 49885, Note_off_c, 3, 64, 64
5, 49920, Note_on_c, 3, 71, 120
5, 50010, Note_off_c, 3, 71, 64
5, 50040, Note_on_c, 3, 71, 120
5, 50105, Note_off_c, 3, 71, 64
5, 50160, Note_on_c, 3, 71, 120
5, 50235, Note_off_c, 3, 71, 64
5, 50280, Note_on_c, 3, 71, 120
5, 50350, Note_off_c, 3, 71, 64
5, 50400, Note_on_c, 3, 71, 120
5, 50475, Note_off_c, 3, 71, 64
5, 50520, Note_on_c, 3, 71, 120
5, 50570, Note_off_c, 3, 71, 64
5, 50640, Note_on_c, 3, 71, 120
5, 50715, Note_off_c, 3, 71, 64
5, 50760, Note_on_c, 3, 71, 120
5, 50845, Note_off_c, 3, 71, 64
5, 50880, Note_on_c, 3, 69, 120
5, 50960, Note_off_c, 3, 69, 64
5, 51000, Note_on_c, 3, 69, 120
5, 51080, Note_off_c, 3, 69, 64
5, 51120, Note_on_c, 3, 69, 120
5, 51210, Note_off_c, 3, 69, 64
5, 51240, Note_on_c, 3, 69, 120
5, 51325, Note_off_c, 3, 69, 64
5, 51360, Note_on_c, 3, 69, 120
5, 51535, Note_off_c, 3, 69, 64
5, 51600, Note_on_c, 3, 71, 120
5, 51705, Note_off_c, 3, 71, 64
5, 51720, Note_on_c, 3, 67, 120
5, 52475, Note_off_c, 3, 67, 64
5, 52560, Note_on_c, 3, 64, 120
5, 52685, Note_off_c, 3, 64, 64
5, 52800, Note_on_c, 3, 67, 120
5, 52915, Note_off_c, 3, 67, 64
5, 53040, Note_on_c, 3, 64, 120
5, 53170, Note_off_c, 3, 64, 64
5, 53280, Note_on_c, 3, 69, 120
5, 53460, Note_off_c, 3, 69, 64
5, 53520, Note_on_c, 3, 71, 120
5, 53585, Note_off_c, 3, 71, 64
5, 53640, Note_on_c, 3, 71, 120
5, 54320, Note_off_c, 3, 71, 64
5, 54480, Note_on_c, 3, 64, 120
5, 54530, Note_off_c, 3, 64, 64
5, 54600, Note_on_c, 3, 64, 120
5, 54680, Note_off_c, 3, 64, 64
5, 54720, Note_on_c, 3, 67, 120
5, 54825, Note_off_c, 3, 67, 64
5, 54960, Note_on_c, 3, 64, 120
5, 55040, Note_off_c, 3, 64, 64
5, 55200, Note_on_c, 3, 64, 120
5, 55285, Note_off_c, 3, 64, 64
5, 55440, Note_on_c, 3, 62, 120
5, 55515, Note_off_c, 3, 62, 64
5, 55560, Note_on_c, 3, 64, 120
5, 55675, Note_off_c, 3, 64, 64
5, 55680, Note_on_c, 3, 71, 120
5, 55780, Note_off_c, 3, 71, 64
5, 55920, Note_on_c, 3, 71, 120
5, 56015, Note_off_c, 3, 71, 64
5, 56160, Note_on_c, 3, 71, 120
5, 56250, Note_off_c, 3, 71, 64
5, 56400, Note_on_c, 3, 71, 120
5, 56495, Note_off_c, 3, 71, 64
5, 56640, Note_on_c, 3, 69, 120
5, 57120, Note_off_c, 3, 69, 64
5, 57600, Note_on_c, 3, 71, 120
5, 57690, Note_off_c, 3, 71, 64
5, 57840, Note_on_c, 3, 71, 120
5, 57935, Note_off_c, 3, 71, 64
5, 58080, Note_on_c, 3, 69, 120
5, 58175, Note_off_c, 3, 69, 64
5, 58320, Note_on_c, 3, 71, 120
5, 58525, Note_off_c, 3, 71, 64
5, 58800, Note_on_c, 3, 64, 120
5, 58895, Note_off_c, 3, 64, 64
5, 58920, Note_on_c, 3, 67, 120
5, 59085, Note_off_c, 3, 67, 64
5, 59160, Note_on_c, 3, 64, 120
5, 59435, Note_off_c, 3, 64, 64
5, 59520, Note_on_c, 3, 71, 120
5, 59595, Note_off_c, 3, 71, 64
5, 59760, Note_on_c, 3, 71, 120
5, 59845, Note_off_c, 3, 71, 64
5, 60000, Note_on_c, 3, 72, 120
5, 60115, Note_off_c, 3, 72, 64
5, 60240, Note_on_c, 3, 71, 120
5, 60360, Note_on_c, 3, 64, 120
5, 60440, Note_off_c, 3, 64, 64
5, 60450, Note_off_c, 3, 71, 64
5, 60480, Note_on_c, 3, 71, 120
5, 60585, Note_off_c, 3, 71, 64
5, 60720, Note_on_c, 3, 71, 120
5, 60820, Note_off_c, 3, 71, 64
5, 60840, Note_on_c, 3, 69, 120
5, 60990, Note_off_c, 3, 69, 64
5, 61080, Note_on_c, 3, 67, 120
5, 61310, Note_off_c, 3, 67, 64
5, 61440, Note_on_c, 3, 71, 120
5, 61520, Note_off_c, 3, 71, 64
5, 61680, Note_on_c, 3, 71, 120
5, 61770, Note_off_c, 3, 71, 64
5, 61920, Note_on_c, 3, 69, 120
5, 62020, Note_off_c, 3, 69, 64
5, 62160, Note_on_c, 3, 71, 120
5, 62255, Note_off_c, 3, 71, 64
5, 62280, Note_on_c, 3, 71, 120
5, 62355, Note_off_c, 3, 71, 64
5, 62400, Note_on_c, 3, 74, 120
5, 62515, Note_off_c, 3, 74, 64
5, 62640, Note_on_c, 3, 74, 120
5, 62740, Note_off_c, 3, 74, 64
5, 62760, Note_on_c, 3, 71, 120
5, 62915, Note_off_c, 3, 71, 64
5, 63000, Note_on_c, 3, 71, 120
5, 63230, Note_off_c, 3, 71, 64
5, 63360, Note_on_c, 3, 71, 120
5, 63440, Note_off_c, 3, 71, 64
5, 63600, Note_on_c, 3, 71, 120
5, 63690, Note_off_c, 3, 71, 64
5, 63840, Note_on_c, 3, 72, 120
5, 63945, Note_off_c, 3, 72, 64
5, 64080, Note_on_c, 3, 71, 120
5, 64080, Note_on_c, 3, 76, 120
5, 64210, Note_off_c, 3, 76, 64
5, 64320, Note_on_c, 3, 74, 120
5, 64360, Note_off_c, 3, 71, 64
5, 64685, Note_off_c, 3, 74, 64
5, 64800, Note_on_c, 3, 71, 120
5, 65055, Note_off_c, 3, 71, 64
5, 65280, Note_on_c, 3, 71, 120
5, 65355, Note_off_c, 3, 71, 64
5, 65520, Note_on_c, 3, 71, 120
5, 65605, Note_off_c, 3, 71, 64
5, 65760, Note_on_c, 3, 69, 120
5, 65845, Note_off_c, 3, 69, 64
5, 66000, Note_on_c, 3, 71, 120
5, 66355, Note_off_c, 3, 71, 64
5, 66480, Note_on_c, 3, 71, 120
5, 66600, Note_on_c, 3, 69, 120
5, 66610, Note_off_c, 3, 71, 64
5, 66795, Note_off_c, 3, 69, 64
5, 66840, Note_on_c, 3, 67, 120
5, 67180, Note_off_c, 3, 67, 64
5, 67200, Note_on_c, 3, 71, 120
5, 67285, Note_off_c, 3, 71, 64
5, 67440, Note_on_c, 3, 71, 120
5, 67525, Note_off_c, 3, 71, 64
5, 67680, Note_on_c, 3, 72, 120
5, 67800, Note_off_c, 3, 72, 64
5, 67920, Note_on_c, 3, 71, 120
5, 68125, Note_off_c, 3, 71, 64
5, 68160, Note_on_c, 3, 67, 120
5, 68365, Note_off_c, 3, 67, 64
5, 68400, Note_on_c, 3, 64, 120
5, 68500, Note_off_c, 3, 64, 64
5, 68520, Note_on_c, 3, 67, 120
5, 68740, Note_off_c, 3, 67, 64
5, 68760, Note_on_c, 3, 71, 120
5, 69095, Note_off_c, 3, 71, 64
5, 69120, Note_on_c, 3, 71, 120
5, 69210, Note_off_c, 3, 71, 64
5, 69360, Note_on_c, 3, 71, 120
5, 69455, Note_off_c, 3, 71, 64
5, 69600, Note_on_c, 3, 69, 120
5, 69715, Note_off_c, 3, 69, 64
5, 69840, Note_on_c, 3, 71, 120
5, 70005, Note_off_c, 3, 71, 64
5, 70320, Note_on_c, 3, 71, 120
5, 70435, Note_off_c, 3, 71, 64
5, 70440, Note_on_c, 3, 69, 120
5, 70635, Note_off_c, 3, 69, 64
5, 70680, Note_on_c, 3, 67, 120
5, 70995, Note_off_c, 3, 67, 64
5, 71040, Note_on_c, 3, 71, 120
5, 71140, Note_off_c, 3, 71, 64
5, 71280, Note_on_c, 3, 71, 120
5, 71370, Note_off_c, 3, 71, 64
5, 71520, Note_on_c, 3, 72, 120
5, 71645, Note_off_c, 3, 72, 64
5, 71760, Note_on_c, 3, 71, 120
5, 72385, Note_off_c, 3, 71, 64
5, 72480, Note_on_c, 3, 74, 120
5, 72615, Note_off_c, 3, 74, 64
5, 72720, Note_on_c, 3, 76, 120
5, 72805, Note_off_c, 3, 76, 64
5, 72840, Note_on_c, 3, 79, 120
5, 73025, Note_off_c, 3, 79, 64
5, 73080, Note_on_c, 3, 74, 120
5, 73170, Note_off_c, 3, 74, 64
5, 73200, Note_on_c, 3, 76, 120
5, 74595, Note_off_c, 3, 76, 64
5, 75960, Note_on_c, 3, 74, 120
5, 76055, Note_off_c, 3, 74, 64
5, 76080, Note_on_c, 3, 76, 120
5, 76135, Note_off_c, 3, 76, 64
5, 76200, Note_on_c, 3, 76, 120
5, 76265, Note_off_c, 3, 76, 64
5, 76320, Note_on_c, 3, 76, 120
5, 76385, Note_off_c, 3, 76, 64
5, 76440, Note_on_c, 3, 76, 120
5, 76525, Note_off_c, 3, 76, 64
5, 76560, Note_on_c, 3, 74, 120
5, 76645, Note_off_c, 3, 74, 64
5, 76680, Note_on_c, 3, 76, 120
5, 77250, Note_off_c, 3, 76, 64
5, 79920, Note_on_c, 3, 74, 120
5, 80040, Note_off_c, 3, 74, 64
5, 80040, Note_on_c, 3, 76, 120
5, 80270, Note_off_c, 3, 76, 64
5, 80280, Note_on_c, 3, 74, 120
5, 80400, Note_on_c, 3, 76, 120
5, 80435, Note_off_c, 3, 74, 64
5, 80590, Note_off_c, 3, 76, 64
5, 80640, Note_on_c, 3, 81, 120
5, 80880, Note_on_c, 3, 79, 120
5, 80940, Note_off_c, 3, 81, 64
5, 81000, Note_on_c, 3, 74, 120
5, 81005, Note_off_c, 3, 79, 64
5, 82620, Note_off_c, 3, 74, 64
5, 83640, Note_on_c, 3, 74, 120
5, 83730, Note_off_c, 3, 74, 64
5, 83760, Note_on_c, 3, 76, 120
5, 83815, Note_off_c, 3, 76, 64
5, 83880, Note_on_c, 3, 76, 120
5, 83945, Note_off_c, 3, 76, 64
5, 84000, Note_on_c, 3, 76, 120
5, 84070, Note_off_c, 3, 76, 64
5, 84120, Note_on_c, 3, 76, 120
5, 84210, Note_off_c, 3, 76, 64
5, 84240, Note_on_c, 3, 74, 120
5, 84350, Note_off_c, 3, 74, 64
5, 84360, Note_on_c, 3, 76, 120
5, 85225, Note_off_c, 3, 76, 64
5, 85920, Note_on_c, 3, 69, 120
5, 86140, Note_off_c, 3, 69, 64
5, 86160, Note_on_c, 3, 67, 120
5, 86280, Note_on_c, 3, 69, 120
5, 86320, Note_off_c, 3, 67, 64
5, 86560, Note_off_c, 3, 69, 64
5, 86640, Note_on_c, 3, 64, 120
5, 87610, Note_off_c, 3, 64, 64
5, 88200, Note_on_c, 3, 64, 120
5, 88290, Note_off_c, 3, 64, 64
5, 88320, Note_on_c, 3, 71, 120
5, 88405, Note_off_c, 3, 71, 64
5, 88440, Note_on_c, 3, 71, 120
5, 88505, Note_off_c, 3, 71, 64
5, 88560, Note_on_c, 3, 71, 120
5, 88640, Note_off_c, 3, 71, 64
5, 88680, Note_on_c, 3, 71, 120
5, 88755, Note_off_c, 3, 71, 64
5, 88800, Note_on_c, 3, 71, 120
5, 88885, Note_off_c, 3, 71, 64
5, 88920, Note_on_c, 3, 71, 120
5, 88995, Note_off_c, 3, 71, 64
5, 89040, Note_on_c, 3, 71, 120
5, 89130, Note_off_c, 3, 71, 64
5, 89160, Note_on_c, 3, 71, 120
5, 89235, Note_off_c, 3, 71, 64
5, 89280, Note_on_c, 3, 69, 120
5, 89365, Note_off_c, 3, 69, 64
5, 89400, Note_on_c, 3, 69, 120
5, 89485, Note_off_c, 3, 69, 64
5, 89520, Note_on_c, 3, 69, 120
5, 89590, Note_off_c, 3, 69, 64
5, 89760, Note_on_c, 3, 69, 120
5, 90000, Note_on_c, 3, 71, 120
5, 90025, Note_off_c, 3, 69, 64
5, 90115, Note_off_c, 3, 71, 64
5, 90120, Note_on_c, 3, 67, 120
5, 90925, Note_off_c, 3, 67, 64
5, 90960, Note_on_c, 3, 64, 120
5, 91095, Note_off_c, 3, 64, 64
5, 91200, Note_on_c, 3, 67, 120
5, 91355, Note_off_c, 3, 67, 64
5, 91440, Note_on_c, 3, 64, 120
5, 91590, Note_off_c, 3, 64, 64
5, 91680, Note_on_c, 3, 69, 120
5, 91870, Note_off_c, 3, 69, 64
5, 91920, Note_on_c, 3, 71, 120
5, 91995, Note_off_c, 3, 71, 64
5, 92040, Note_on_c, 3, 71, 120
5, 92675, Note_off_c, 3, 71, 64
5, 92880, Note_on_c, 3, 64, 120
5, 92930, Note_off_c, 3, 64, 64
5, 93000, Note_on_c, 3, 64, 120
5, 93080, Note_off_c, 3, 64, 64
5, 93120, Note_on_c, 3, 67, 120
5, 93240, Note_off_c, 3, 67, 64
5, 93360, Note_on_c, 3, 64, 120
5, 93450, Note_off_c, 3, 64, 64
5, 93600, Note_on_c, 3, 64, 120
5, 93700, Note_off_c, 3, 64, 64
5, 93840, Note_on_c, 3, 62, 120
5, 93920, Note_off_c, 3, 62, 64
5, 93960, Note_on_c, 3, 64, 120
5, 94360, Note_off_c, 3, 64, 64
5, 94560, Note_on_c, 3, 64, 120
5, 94665, Note_off_c, 3, 64, 64
5, 94800, Note_on_c, 3, 62, 120
5, 95280, Note_off_c, 3, 62, 64
5, 95880, Note_on_c, 3, 64, 120
5, 95975, Note_off_c, 3, 64, 64
5, 96000, Note_on_c, 3, 71, 120
5, 96090, Note_off_c, 3, 71, 64
5, 96120, Note_on_c, 3, 71, 120
5, 96195, Note_off_c, 3, 71, 64
5, 96240, Note_on_c, 3, 71, 120
5, 96320, Note_off_c, 3, 71, 64
5, 96360, Note_on_c, 3, 71, 120
5, 96435, Note_off_c, 3, 71, 64
5, 96480, Note_on_c, 3, 71, 120
5, 96555, Note_off_c, 3, 71, 64
5, 96600, Note_on_c, 3, 71, 120
5, 96660, Note_off_c, 3, 71, 64
5, 96720, Note_on_c, 3, 71, 120
5, 96780, Note_off_c, 3, 71, 64
5, 96840, Note_on_c, 3, 71, 120
5, 96930, Note_off_c, 3, 71, 64
5, 96960, Note_on_c, 3, 69, 120
5, 97045, Note_off_c, 3, 69, 64
5, 97080, Note_on_c, 3, 69, 120
5, 97145, Note_off_c, 3, 69, 64
5, 97200, Note_on_c, 3, 69, 120
5, 97280, Note_off_c, 3, 69, 64
5, 97440, Note_on_c, 3, 69, 120
5, 97680, Note_on_c, 3, 71, 120
5, 97690, Note_off_c, 3, 69, 64
5, 97800, Note_off_c, 3, 71, 64
5, 97800, Note_on_c, 3, 67, 120
5, 98565, Note_off_c, 3, 67, 64
5, 98640, Note_on_c, 3, 64, 120
5, 98745, Note_off_c, 3, 64, 64
5, 98880, Note_on_c, 3, 67, 120
5, 99000, Note_off_c, 3, 67, 64
5, 99120, Note_on_c, 3, 64, 120
5, 99250, Note_off_c, 3, 64, 64
5, 99360, Note_on_c, 3, 69, 120
5, 99505, Note_off_c, 3, 69, 64
5, 99600, Note_on_c, 3, 71, 120
5, 99670, Note_off_c, 3, 71, 64
5, 99720, Note_on_c, 3, 71, 120
5, 100410, Note_off_c, 3, 71, 64
5, 100560, Note_on_c, 3, 64, 120
5, 100605, Note_off_c, 3, 64, 64
5, 100680, Note_on_c, 3, 64, 120
5, 100760, Note_off_c, 3, 64, 64
5, 100800, Note_on_c, 3, 67, 120
5, 100910, Note_off_c, 3, 67, 64
5, 101040, Note_on_c, 3, 64, 120
5, 101130, Note_off_c, 3, 64, 64
5, 101280, Note_on_c, 3, 64, 120
5, 101385, Note_off_c, 3, 64, 64
5, 101520, Note_on_c, 3, 62, 120
5, 101615, Note_off_c, 3, 62, 64
5, 101640, Note_on_c, 3, 64, 120
5, 101865, Note_off_c, 3, 64, 64
5, 102000, Note_on_c, 3, 71, 120
5, 102110, Note_off_c, 3, 71, 64
5, 102240, Note_on_c, 3, 71, 120
5, 102345, Note_off_c, 3, 71, 64
5, 102480, Note_on_c, 3, 71, 120
5, 102595, Note_off_c, 3, 71, 64
5, 102720, Note_on_c, 3, 69, 120
5, 103365, Note_off_c, 3, 69, 64
5, 103680, Note_on_c, 3, 71, 120
5, 103755, Note_off_c, 3, 71, 64
5, 103920, Note_on_c, 3, 71, 120
5, 104010, Note_off_c, 3, 71, 64
5, 104160, Note_on_c, 3, 69, 120
5, 104255, Note_off_c, 3, 69, 64
5, 104400, Note_on_c, 3, 71, 120
5, 104745, Note_off_c, 3, 71, 64
5, 105600, Note_on_c, 3, 71, 120
5, 105685, Note_off_c, 3, 71, 64
5, 105840, Note_on_c, 3, 71, 120
5, 105940, Note_off_c, 3, 71, 64
5, 106080, Note_on_c, 3, 72, 120
5, 106205, Note_off_c, 3, 72, 64
5, 106320, Note_on_c, 3, 71, 120
5, 106630, Note_off_c, 3, 71, 64
5, 107520, Note_on_c, 3, 71, 120
5, 107605, Note_off_c, 3, 71, 64
5, 107760, Note_on_c, 3, 71, 120
5, 107865, Note_off_c, 3, 71, 64
5, 108000, Note_on_c, 3, 69, 120
5, 108130, Note_off_c, 3, 69, 64
5, 108240, Note_on_c, 3, 71, 120
5, 108470, Note_off_c, 3, 71, 64
5, 109440, Note_on_c, 3, 71, 120
5, 109535, Note_off_c, 3, 71, 64
5, 109680, Note_on_c, 3, 71, 120
5, 109780, Note_off_c, 3, 71, 64
5, 109920, Note_on_c, 3, 72, 120
5, 110055, Note_off_c, 3, 72, 64
5, 110160, Note_on_c, 3, 71, 120
5, 110370, Note_off_c, 3, 71, 64
5, 110640, Note_on_c, 3, 71, 120
5, 110740, Note_off_c, 3, 71, 64
5, 110760, Note_on_c, 3, 69, 120
5, 110925, Note_off_c, 3, 69, 64
5, 111000, Note_on_c, 3, 67, 120
5, 111235, Note_off_c, 3, 67, 64
5, 111360, Note_on_c, 3, 71, 120
5, 111440, Note_off_c, 3, 71, 64
5, 111600, Note_on_c, 3, 71, 120
5, 111700, Note_off_c, 3, 71, 64
5, 111840, Note_on_c, 3, 69, 120
5, 111940, Note_off_c, 3, 69, 64
5, 112080, Note_on_c, 3, 71, 120
5, 112375, Note_off_c, 3, 71, 64
5, 113280, Note_on_c, 3, 71, 120
5, 113365, Note_off_c, 3, 71, 64
5, 113520, Note_on_c, 3, 71, 120
5, 113620, Note_off_c, 3, 71, 64
5, 113760, Note_on_c, 3, 72, 120
5, 113880, Note_off_c, 3, 72, 64
5, 114000, Note_on_c, 3, 71, 120
5, 114215, Note_off_c, 3, 71, 64
5, 115200, Note_on_c, 3, 71, 120
5, 115285, Note_off_c, 3, 71, 64
5, 115440, Note_on_c, 3, 71, 120
5, 115540, Note_off_c, 3, 71, 64
5, 115680, Note_on_c, 3, 69, 120
5, 115790, Note_off_c, 3, 69, 64
5, 115920, Note_on_c, 3, 71, 120
5, 116090, Note_off_c, 3, 71, 64
5, 117120, Note_on_c, 3, 71, 120
5, 117205, Note_off_c, 3, 71, 64
5, 117360, Note_on_c, 3, 71, 120
5, 117455, Note_off_c, 3, 71, 64
5, 117600, Note_on_c, 3, 72, 120
5, 117730, Note_off_c, 3, 72, 64
5, 117840, Note_on_c, 3, 71, 120
5, 117925, Note_off_c, 3, 71, 64
5, 118080, Note_on_c, 3, 71, 120
5, 118295, Note_off_c, 3, 71, 64
5, 118320, Note_on_c, 3, 69, 120
5, 118415, Note_off_c, 3, 69, 64
5, 118440, Note_on_c, 3, 71, 120
5, 118560, Note_on_c, 3, 69, 120
5, 118575, Note_off_c, 3, 71, 64
5, 118650, Note_off_c, 3, 69, 64
5, 118680, Note_on_c, 3, 67, 120
5, 118790, Note_off_c, 3, 67, 64
5, 118800, Note_on_c, 3, 66, 120
5, 118890, Note_off_c, 3, 66, 64
5, 118920, Note_on_c, 3, 62, 120
5, 119035, Note_off_c, 3, 62, 64
5, 119040, Note_on_c, 3, 64, 120
5, 119500, Note_off_c, 3, 64, 64
5, 134400, Note_on_c, 3, 71, 120
5, 134495, Note_off_c, 3, 71, 64
5, 134640, Note_on_c, 3, 71, 120
5, 134740, Note_off_c, 3, 71, 64
5, 134880, Note_on_c, 3, 69, 120
5, 134985, Note_off_c, 3, 69, 64
5, 135120, Note_on_c, 3, 71, 120
5, 135555, Note_off_c, 3, 71, 64
5, 135600, Note_on_c, 3, 71, 120
5, 135700, Note_off_c, 3, 71, 64
5, 135720, Note_on_c, 3, 69, 120
5, 135885, Note_off_c, 3, 69, 64
5, 135960, Note_on_c, 3, 67, 120
5, 136235, Note_off_c, 3, 67, 64
5, 136320, Note_on_c, 3, 71, 120
5, 136420, Note_off_c, 3, 71, 64
5, 136560, Note_on_c, 3, 71, 120
5, 136690, Note_off_c, 3, 71, 64
5, 136800, Note_on_c, 3, 72, 120
5, 136960, Note_off_c, 3, 72, 64
5, 137040, Note_on_c, 3, 67, 120
5, 137040, Note_on_c, 3, 71, 120
5, 137155, Note_off_c, 3, 67, 64
5, 137160, Note_on_c, 3, 64, 120
5, 137280, Note_on_c, 3, 67, 120
5, 137285, Note_off_c, 3, 64, 64
5, 137330, Note_off_c, 3, 71, 64
5, 137515, Note_off_c, 3, 67, 64
5, 137520, Note_on_c, 3, 64, 120
5, 137640, Note_off_c, 3, 64, 64
5, 137640, Note_on_c, 3, 67, 120
5, 137880, Note_off_c, 3, 67, 64
5, 137880, Note_on_c, 3, 71, 120
5, 138100, Note_off_c, 3, 71, 64
5, 138240, Note_on_c, 3, 71, 120
5, 138340, Note_off_c, 3, 71, 64
5, 138480, Note_on_c, 3, 71, 120
5, 138595, Note_off_c, 3, 71, 64
5, 138720, Note_on_c, 3, 69, 120
5, 138835, Note_off_c, 3, 69, 64
5, 138960, Note_on_c, 3, 71, 120
5, 139075, Note_off_c, 3, 71, 64
5, 139080, Note_on_c, 3, 71, 120
5, 139135, Note_off_c, 3, 71, 64
5, 139200, Note_on_c, 3, 74, 120
5, 139320, Note_off_c, 3, 74, 64
5, 139440, Note_on_c, 3, 74, 120
5, 139550, Note_off_c, 3, 74, 64
5, 139560, Note_on_c, 3, 71, 120
5, 139760, Note_off_c, 3, 71, 64
5, 139800, Note_on_c, 3, 71, 120
5, 139985, Note_off_c, 3, 71, 64
5, 140160, Note_on_c, 3, 71, 120
5, 140255, Note_off_c, 3, 71, 64
5, 140400, Note_on_c, 3, 71, 120
5, 140495, Note_off_c, 3, 71, 64
5, 140640, Note_on_c, 3, 72, 120
5, 140780, Note_off_c, 3, 72, 64
5, 140880, Note_on_c, 3, 71, 120
5, 140880, Note_on_c, 3, 76, 120
5, 141015, Note_off_c, 3, 76, 64
5, 141120, Note_on_c, 3, 74, 120
5, 141140, Note_off_c, 3, 71, 64
5, 141540, Note_off_c, 3, 74, 64
5, 141600, Note_on_c, 3, 71, 120
5, 141830, Note_off_c, 3, 71, 64
5, 142080, Note_on_c, 3, 71, 120
5, 142190, Note_off_c, 3, 71, 64
5, 142320, Note_on_c, 3, 71, 120
5, 142465, Note_off_c, 3, 71, 64
5, 142560, Note_on_c, 3, 69, 120
5, 142700, Note_off_c, 3, 69, 64
5, 142800, Note_on_c, 3, 71, 120
5, 143070, Note_off_c, 3, 71, 64
5, 143280, Note_on_c, 3, 71, 120
5, 143390, Note_off_c, 3, 71, 64
5, 143400, Note_on_c, 3, 69, 120
5, 143615, Note_off_c, 3, 69, 64
5, 143640, Note_on_c, 3, 67, 120
5, 143945, Note_off_c, 3, 67, 64
5, 144000, Note_on_c, 3, 71, 120
5, 144105, Note_off_c, 3, 71, 64
5, 144240, Note_on_c, 3, 71, 120
5, 144350, Note_off_c, 3, 71, 64
5, 144480, Note_on_c, 3, 72, 120
5, 144620, Note_off_c, 3, 72, 64
5, 144720, Note_on_c, 3, 67, 120
5, 144720, Note_on_c, 3, 71, 120
5, 144810, Note_off_c, 3, 67, 64
5, 144840, Note_on_c, 3, 64, 120
5, 144955, Note_off_c, 3, 64, 64
5, 144960, Note_on_c, 3, 67, 120
5, 144970, Note_off_c, 3, 71, 64
5, 145185, Note_off_c, 3, 67, 64
5, 145200, Note_on_c, 3, 64, 120
5, 145320, Note_off_c, 3, 64, 64
5, 145320, Note_on_c, 3, 67, 120
5, 145560, Note_on_c, 3, 71, 120
5, 145570, Note_off_c, 3, 67, 64
5, 145830, Note_off_c, 3, 71, 64
5, 145920, Note_on_c, 3, 71, 120
5, 146020, Note_off_c, 3, 71, 64
5, 146160, Note_on_c, 3, 71, 120
5, 146270, Note_off_c, 3, 71, 64
5, 146400, Note_on_c, 3, 69, 120
5, 146520, Note_off_c, 3, 69, 64
5, 146640, Note_on_c, 3, 71, 120
5, 146895, Note_off_c, 3, 71, 64
5, 147120, Note_on_c, 3, 71, 120
5, 147240, Note_on_c, 3, 69, 120
5, 147275, Note_off_c, 3, 71, 64
5, 147440, Note_off_c, 3, 69, 64
5, 147480, Note_on_c, 3, 67, 120
5, 147745, Note_off_c, 3, 67, 64
5, 147840, Note_on_c, 3, 71, 120
5, 147950, Note_off_c, 3, 71, 64
5, 148080, Note_on_c, 3, 71, 120
5, 148190, Note_off_c, 3, 71, 64
5, 148320, Note_on_c, 3, 72, 120
5, 148450, Note_off_c, 3, 72, 64
5, 148560, Note_on_c, 3, 71, 120
5, 148840, Note_off_c, 3, 71, 64
5, 149640, Note_on_c, 3, 64, 120
5, 149725, Note_off_c, 3, 64, 64
5, 149760, Note_on_c, 3, 71, 120
5, 149850, Note_off_c, 3, 71, 64
5, 149880, Note_on_c, 3, 71, 120
5, 149950, Note_off_c, 3, 71, 64
5, 150000, Note_on_c, 3, 71, 120
5, 150075, Note_off_c, 3, 71, 64
5, 150120, Note_on_c, 3, 71, 120
5, 150195, Note_off_c, 3, 71, 64
5, 150240, Note_on_c, 3, 71, 120
5, 150315, Note_off_c, 3, 71, 64
5, 150360, Note_on_c, 3, 71, 120
5, 150435, Note_off_c, 3, 71, 64
5, 150480, Note_on_c, 3, 71, 120
5, 150550, Note_off_c, 3, 71, 64
5, 150600, Note_on_c, 3, 71, 120
5, 150690, Note_off_c, 3, 71, 64
5, 150720, Note_on_c, 3, 69, 120
5, 150805, Note_off_c, 3, 69, 64
5, 150840, Note_on_c, 3, 69, 120
5, 150915, Note_off_c, 3, 69, 64
5, 150960, Note_on_c, 3, 69, 120
5, 151045, Note_off_c, 3, 69, 64
5, 151200, Note_on_c, 3, 69, 120
5, 151440, Note_on_c, 3, 71, 120
5, 151450, Note_off_c, 3, 69, 64
5, 151555, Note_off_c, 3, 71, 64
5, 151560, Note_on_c, 3, 67, 120
5, 152285, Note_off_c, 3, 67, 64
5, 152400, Note_on_c, 3, 64, 120
5, 152515, Note_off_c, 3, 64, 64
5, 152640, Note_on_c, 3, 67, 120
5, 152750, Note_off_c, 3, 67, 64
5, 152880, Note_on_c, 3, 64, 120
5, 153010, Note_off_c, 3, 64, 64
5, 153120, Note_on_c, 3, 69, 120
5, 153300, Note_off_c, 3, 69, 64
5, 153360, Note_on_c, 3, 71, 120
5, 153435, Note_off_c, 3, 71, 64
5, 153480, Note_on_c, 3, 71, 120
5, 154135, Note_off_c, 3, 71, 64
5, 154320, Note_on_c, 3, 64, 120
5, 154385, Note_off_c, 3, 64, 64
5, 154440, Note_on_c, 3, 64, 120
5, 154530, Note_off_c, 3, 64, 64
5, 154560, Note_on_c, 3, 67, 120
5, 154690, Note_off_c, 3, 67, 64
5, 154800, Note_on_c, 3, 64, 120
5, 154880, Note_off_c, 3, 64, 64
5, 155040, Note_on_c, 3, 64, 120
5, 155135, Note_off_c, 3, 64, 64
5, 155280, Note_on_c, 3, 62, 120
5, 155350, Note_off_c, 3, 62, 64
5, 155400, Note_on_c, 3, 64, 120
5, 155745, Note_off_c, 3, 64, 64
5, 156000, Note_on_c, 3, 76, 120
5, 156165, Note_off_c, 3, 76, 64
5, 156240, Note_on_c, 3, 71, 120
5, 156340, Note_off_c, 3, 71, 64
5, 156360, Note_on_c, 3, 74, 120
5, 156545, Note_off_c, 3, 74, 64
5, 156720, Note_on_c, 3, 76, 120
5, 157195, Note_off_c, 3, 76, 64
5, 157320, Note_on_c, 3, 64, 120
5, 157410, Note_off_c, 3, 64, 64
5, 157440, Note_on_c, 3, 71, 120
5, 157510, Note_off_c, 3, 71, 64
5, 157560, Note_on_c, 3, 71, 120
5, 157630, Note_off_c, 3, 71, 64
5, 157680, Note_on_c, 3, 71, 120
5, 157745, Note_off_c, 3, 71, 64
5, 157800, Note_on_c, 3, 71, 120
5, 157875, Note_off_c, 3, 71, 64
5, 157920, Note_on_c, 3, 71, 120
5, 157990, Note_off_c, 3, 71, 64
5, 158040, Note_on_c, 3, 71, 120
5, 158105, Note_off_c, 3, 71, 64
5, 158160, Note_on_c, 3, 71, 120
5, 158230, Note_off_c, 3, 71, 64
5, 158280, Note_on_c, 3, 71, 120
5, 158355, Note_off_c, 3, 71, 64
5, 158400, Note_on_c, 3, 69, 120
5, 158470, Note_off_c, 3, 69, 64
5, 158520, Note_on_c, 3, 69, 120
5, 158595, Note_off_c, 3, 69, 64
5, 158640, Note_on_c, 3, 69, 120
5, 158710, Note_off_c, 3, 69, 64
5, 158760, Note_on_c, 3, 69, 120
5, 158830, Note_off_c, 3, 69, 64
5, 158880, Note_on_c, 3, 69, 120
5, 159080, Note_off_c, 3, 69, 64
5, 159120, Note_on_c, 3, 71, 120
5, 159225, Note_off_c, 3, 71, 64
5, 159240, Note_on_c, 3, 67, 120
5, 159885, Note_off_c, 3, 67, 64
5, 160080, Note_on_c, 3, 64, 120
5, 160190, Note_off_c, 3, 64, 64
5, 160320, Note_on_c, 3, 67, 120
5, 160425, Note_off_c, 3, 67, 64
5, 160560, Note_on_c, 3, 64, 120
5, 160680, Note_off_c, 3, 64, 64
5, 160800, Note_on_c, 3, 69, 120
5, 160920, Note_off_c, 3, 69, 64
5, 161040, Note_on_c, 3, 71, 120
5, 161100, Note_off_c, 3, 71, 64
5, 161160, Note_on_c, 3, 71, 120
5, 161815, Note_off_c, 3, 71, 64
5, 162000, Note_on_c, 3, 64, 120
5, 162060, Note_off_c, 3, 64, 64
5, 162120, Note_on_c, 3, 64, 120
5, 162215, Note_off_c, 3, 64, 64
5, 162240, Note_on_c, 3, 67, 120
5, 162370, Note_off_c, 3, 67, 64
5, 162480, Note_on_c, 3, 64, 120
5, 162575, Note_off_c, 3, 64, 64
5, 162720, Note_on_c, 3, 64, 120
5, 162825, Note_off_c, 3, 64, 64
5, 162960, Note_on_c, 3, 62, 120
5, 163035, Note_off_c, 3, 62, 64
5, 163080, Note_on_c, 3, 64, 120
5, 163460, Note_off_c, 3, 64, 64
5, 163680, Note_on_c, 3, 69, 120
5, 163790, Note_off_c, 3, 69, 64
5, 163920, Note_on_c, 3, 67, 120
5, 163980, Note_off_c, 3, 67, 64
5, 164040, Note_on_c, 3, 69, 120
5, 164215, Note_off_c, 3, 69, 64
5, 164400, Note_on_c, 3, 64, 120
5, 164715, Note_off_c, 3, 64, 64
5, 164880, Note_on_c, 3, 76, 120
5, 164965, Note_off_c, 3, 76, 64
5, 165120, Note_on_c, 3, 74, 120
5, 165435, Note_off_c, 3, 74, 64
5, 165480, Note_on_c, 3, 76, 120
5, 165705, Note_off_c, 3, 76, 64
5, 166440, Note_on_c, 3, 71, 120
5, 166515, Note_off_c, 3, 71, 64
5, 166560, Note_on_c, 3, 71, 120
5, 166670, Note_off_c, 3, 71, 64
5, 166800, Note_on_c, 3, 76, 120
5, 166880, Note_off_c, 3, 76, 64
5, 167040, Note_on_c, 3, 76, 120
5, 167290, Note_off_c, 3, 76, 64
5, 167400, Note_on_c, 3, 74, 120
5, 167620, Note_off_c, 3, 74, 64
5, 167760, Note_on_c, 3, 74, 120
5, 168120, Note_off_c, 3, 74, 64
5, 168720, Note_on_c, 3, 76, 120
5, 168800, Note_off_c, 3, 76, 64
5, 168960, Note_on_c, 3, 74, 120
5, 169255, Note_off_c, 3, 74, 64
5, 169320, Note_on_c, 3, 76, 120
5, 169755, Note_off_c, 3, 76, 64
5, 170280, Note_on_c, 3, 74, 120
5, 170335, Note_off_c, 3, 74, 64
5, 170400, Note_on_c, 3, 74, 120
5, 170500, Note_off_c, 3, 74, 64
5, 170640, Note_on_c, 3, 76, 120
5, 170735, Note_off_c, 3, 76, 64
5, 170880, Note_on_c, 3, 79, 120
5, 171170, Note_off_c, 3, 79, 64
5, 171360, Note_on_c, 3, 78, 120
5, 171650, Note_off_c, 3, 78, 64
5, 171840, Note_on_c, 3, 76, 120
5, 172245, Note_off_c, 3, 76, 64
5, 172560, Note_on_c, 3, 76, 120
5, 172660, Note_off_c, 3, 76, 64
5, 172800, Note_on_c, 3, 74, 120
5, 173085, Note_off_c, 3, 74, 64
5, 173160, Note_on_c, 3, 76, 120
5, 173755, Note_off_c, 3, 76, 64
5, 174120, Note_on_c, 3, 71, 120
5, 174205, Note_off_c, 3, 71, 64
5, 174240, Note_on_c, 3, 74, 120
5, 174315, Note_off_c, 3, 74, 64
5, 174480, Note_on_c, 3, 76, 120
5, 174550, Note_off_c, 3, 76, 64
5, 174720, Note_on_c, 3, 79, 120
5, 175000, Note_off_c, 3, 79, 64
5, 175200, Note_on_c, 3, 78, 120
5, 175465, Note_off_c, 3, 78, 64
5, 175680, Note_on_c, 3, 76, 120
5, 176090, Note_off_c, 3, 76, 64
5, 176400, Note_on_c, 3, 76, 120
5, 176495, Note_off_c, 3, 76, 64
5, 176640, Note_on_c, 3, 74, 120
5, 176905, Note_off_c, 3, 74, 64
5, 177000, Note_on_c, 3, 76, 120
5, 177595, Note_off_c, 3, 76, 64
5, 177960, Note_on_c, 3, 71, 120
5, 178020, Note_off_c, 3, 71, 64
5, 178080, Note_on_c, 3, 71, 120
5, 178180, Note_off_c, 3, 71, 64
5, 178320, Note_on_c, 3, 74, 120
5, 178420, Note_off_c, 3, 74, 64
5, 178560, Note_on_c, 3, 74, 120
5, 178705, Note_off_c, 3, 74, 64
5, 178800, Note_on_c, 3, 72, 120
5, 178855, Note_off_c, 3, 72, 64
5, 178920, Note_on_c, 3, 72, 120
5, 179060, Note_off_c, 3, 72, 64
5, 179160, Note_on_c, 3, 71, 120
5, 179290, Note_off_c, 3, 71, 64
5, 179520, Note_on_c, 3, 69, 120
5, 180110, Note_off_c, 3, 69, 64
5, 180480, Note_on_c, 3, 71, 120
5, 180555, Note_off_c, 3, 71, 64
5, 180720, Note_on_c, 3, 71, 120
5, 180810, Note_off_c, 3, 71, 64
5, 180960, Note_on_c, 3, 69, 120
5, 181055, Note_off_c, 3, 69, 64
5, 181200, Note_on_c, 3, 71, 120
5, 181680, Note_on_c, 3, 64, 120
5, 181685, Note_off_c, 3, 71, 64
5, 181800, Note_off_c, 3, 64, 64
5, 181800, Note_on_c, 3, 67, 120
5, 182040, Note_off_c, 3, 67, 64
5, 182040, Note_on_c, 3, 64, 120
5, 182300, Note_off_c, 3, 64, 64
5, 182400, Note_on_c, 3, 71, 120
5, 182485, Note_off_c, 3, 71, 64
5, 182640, Note_on_c, 3, 71, 120
5, 182740, Note_off_c, 3, 71, 64
5, 182880, Note_on_c, 3, 72, 120
5, 183000, Note_off_c, 3, 72, 64
5, 183120, Note_on_c, 3, 67, 120
5, 183120, Note_on_c, 3, 71, 120
5, 183220, Note_off_c, 3, 67, 64
5, 183240, Note_on_c, 3, 64, 120
5, 183360, Note_on_c, 3, 67, 120
5, 183370, Note_off_c, 3, 71, 64
5, 183375, Note_off_c, 3, 64, 64
5, 183600, Note_off_c, 3, 67, 64
5, 183600, Note_on_c, 3, 64, 120
5, 183720, Note_off_c, 3, 64, 64
5, 183720, Note_on_c, 3, 67, 120
5, 183955, Note_off_c, 3, 67, 64
5, 183960, Note_on_c, 3, 71, 120
5, 184185, Note_off_c, 3, 71, 64
5, 184320, Note_on_c, 3, 71, 120
5, 184400, Note_off_c, 3, 71, 64
5, 184560, Note_on_c, 3, 71, 120
5, 184650, Note_off_c, 3, 71, 64
5, 184800, Note_on_c, 3, 69, 120
5, 184910, Note_off_c, 3, 69, 64
5, 185040, Note_on_c, 3, 71, 120
5, 185130, Note_off_c, 3, 71, 64
5, 185160, Note_on_c, 3, 71, 120
5, 185245, Note_off_c, 3, 71, 64
5, 185280, Note_on_c, 3, 74, 120
5, 185390, Note_off_c, 3, 74, 64
5, 185520, Note_on_c, 3, 74, 120
5, 185605, Note_off_c, 3, 74, 64
5, 185640, Note_on_c, 3, 71, 120
5, 185785, Note_off_c, 3, 71, 64
5, 185880, Note_on_c, 3, 71, 120
5, 186130, Note_off_c, 3, 71, 64
5, 186240, Note_on_c, 3, 71, 120
5, 186330, Note_off_c, 3, 71, 64
5, 186480, Note_on_c, 3, 71, 120
5, 186580, Note_off_c, 3, 71, 64
5, 186720, Note_on_c, 3, 72, 120
5, 186860, Note_off_c, 3, 72, 64
5, 186960, Note_on_c, 3, 71, 120
5, 186960, Note_on_c, 3, 76, 120
5, 187080, Note_off_c, 3, 76, 64
5, 187200, Note_on_c, 3, 74, 120
5, 187250, Note_off_c, 3, 71, 64
5, 187540, Note_off_c, 3, 74, 64
5, 187680, Note_on_c, 3, 71, 120
5, 187925, Note_off_c, 3, 71, 64
5, 188160, Note_on_c, 3, 71, 120
5, 188260, Note_off_c, 3, 71, 64
5, 188400, Note_on_c, 3, 71, 120
5, 188515, Note_off_c, 3, 71, 64
5, 188640, Note_on_c, 3, 69, 120
5, 188765, Note_off_c, 3, 69, 64
5, 188880, Note_on_c, 3, 71, 120
5, 189300, Note_off_c, 3, 71, 64
5, 189360, Note_on_c, 3, 71, 120
5, 189480, Note_off_c, 3, 71, 64
5, 189480, Note_on_c, 3, 69, 120
5, 189715, Note_off_c, 3, 69, 64
5, 189720, Note_on_c, 3, 67, 120
5, 189995, Note_off_c, 3, 67, 64
5, 190080, Note_on_c, 3, 71, 120
5, 190170, Note_off_c, 3, 71, 64
5, 190320, Note_on_c, 3, 71, 120
5, 190415, Note_off_c, 3, 71, 64
5, 190560, Note_on_c, 3, 72, 120
5, 190695, Note_off_c, 3, 72, 64
5, 190800, Note_on_c, 3, 71, 120
5, 191040, Note_on_c, 3, 67, 120
5, 191060, Note_off_c, 3, 71, 64
5, 191265, Note_off_c, 3, 67, 64
5, 191280, Note_on_c, 3, 64, 120
5, 191400, Note_on_c, 3, 67, 120
5, 191405, Note_off_c, 3, 64, 64
5, 191635, Note_off_c, 3, 67, 64
5, 191640, Note_on_c, 3, 71, 120
5, 191870, Note_off_c, 3, 71, 64
5, 192000, Note_on_c, 3, 71, 120
5, 192085, Note_off_c, 3, 71, 64
5, 192240, Note_on_c, 3, 71, 120
5, 192340, Note_off_c, 3, 71, 64
5, 192480, Note_on_c, 3, 69, 120
5, 192590, Note_off_c, 3, 69, 64
5, 192720, Note_on_c, 3, 71, 120
5, 192965, Note_off_c, 3, 71, 64
5, 193200, Note_on_c, 3, 71, 120
5, 193305, Note_off_c, 3, 71, 64
5, 193320, Note_on_c, 3, 69, 120
5, 193550, Note_off_c, 3, 69, 64
5, 193560, Note_on_c, 3, 67, 120
5, 193825, Note_off_c, 3, 67, 64
5, 193920, Note_on_c, 3, 71, 120
5, 194050, Note_off_c, 3, 71, 64
5, 194160, Note_on_c, 3, 71, 120
5, 194250, Note_off_c, 3, 71, 64
5, 194400, Note_on_c, 3, 72, 120
5, 194525, Note_off_c, 3, 72, 64
5, 194640, Note_on_c, 3, 71, 120
5, 194815, Note_off_c, 3, 71, 64
5, 194880, Note_on_c, 3, 71, 120
5, 195085, Note_off_c, 3, 71, 64
5, 195120, Note_on_c, 3, 69, 120
5, 195240, Note_on_c, 3, 71, 120
5, 195260, Note_off_c, 3, 69, 64
5, 195360, Note_on_c, 3, 69, 120
5, 195375, Note_off_c, 3, 71, 64
5, 195470, Note_off_c, 3, 69, 64
5, 195480, Note_on_c, 3, 67, 120
5, 195585, Note_off_c, 3, 67, 64
5, 195600, Note_on_c, 3, 66, 120
5, 195685, Note_off_c, 3, 66, 64
5, 195720, Note_on_c, 3, 62, 120
5, 195825, Note_off_c, 3, 62, 64
5, 195840, Note_on_c, 3, 64, 120
5, 196165, Note_off_c, 3, 64, 64
5, 211200, Note_on_c, 3, 71, 120
5, 211280, Note_off_c, 3, 71, 64
5, 211440, Note_on_c, 3, 71, 120
5, 211530, Note_off_c, 3, 71, 64
5, 211680, Note_on_c, 3, 69, 120
5, 211780, Note_off_c, 3, 69, 64
5, 211920, Note_on_c, 3, 71, 120
5, 212140, Note_off_c, 3, 71, 64
5, 212400, Note_on_c, 3, 64, 120
5, 212500, Note_off_c, 3, 64, 64
5, 212520, Note_on_c, 3, 67, 120
5, 212750, Note_off_c, 3, 67, 64
5, 212760, Note_on_c, 3, 64, 120
5, 212985, Note_off_c, 3, 64, 64
5, 213120, Note_on_c, 3, 71, 120
5, 213200, Note_off_c, 3, 71, 64
5, 213360, Note_on_c, 3, 71, 120
5, 213450, Note_off_c, 3, 71, 64
5, 213600, Note_on_c, 3, 72, 120
5, 213725, Note_off_c, 3, 72, 64
5, 213840, Note_on_c, 3, 67, 120
5, 213840, Note_on_c, 3, 71, 120
5, 213940, Note_off_c, 3, 67, 64
5, 213960, Note_on_c, 3, 64, 120
5, 214020, Note_off_c, 3, 71, 64
5, 214055, Note_off_c, 3, 64, 64
5, 214080, Note_on_c, 3, 71, 120
5, 214195, Note_off_c, 3, 71, 64
5, 214320, Note_on_c, 3, 71, 120
5, 214425, Note_off_c, 3, 71, 64
5, 214440, Note_on_c, 3, 69, 120
5, 214605, Note_off_c, 3, 69, 64
5, 214680, Note_on_c, 3, 67, 120
5, 214895, Note_off_c, 3, 67, 64
5, 215040, Note_on_c, 3, 71, 120
5, 215110, Note_off_c, 3, 71, 64
5, 215280, Note_on_c, 3, 71, 120
5, 215365, Note_off_c, 3, 71, 64
5, 215520, Note_on_c, 3, 69, 120
5, 215625, Note_off_c, 3, 69, 64
5, 215760, Note_on_c, 3, 71, 120
5, 215850, Note_off_c, 3, 71, 64
5, 215880, Note_on_c, 3, 71, 120
5, 215960, Note_off_c, 3, 71, 64
5, 216000, Note_on_c, 3, 74, 120
5, 216110, Note_off_c, 3, 74, 64
5, 216240, Note_on_c, 3, 74, 120
5, 216330, Note_off_c, 3, 74, 64
5, 216360, Note_on_c, 3, 71, 120
5, 216525, Note_off_c, 3, 71, 64
5, 216600, Note_on_c, 3, 71, 120
5, 216850, Note_off_c, 3, 71, 64
5, 216960, Note_on_c, 3, 71, 120
5, 217050, Note_off_c, 3, 71, 64
5, 217200, Note_on_c, 3, 71, 120
5, 217295, Note_off_c, 3, 71, 64
5, 217440, Note_on_c, 3, 72, 120
5, 217560, Note_off_c, 3, 72, 64
5, 217680, Note_on_c, 3, 71, 120
5, 217680, Note_on_c, 3, 76, 120
5, 217795, Note_off_c, 3, 76, 64
5, 217865, Note_off_c, 3, 71, 64
5, 217920, Note_on_c, 3, 74, 120
5, 218325, Note_off_c, 3, 74, 64
5, 218400, Note_on_c, 3, 71, 120
5, 218620, Note_off_c, 3, 71, 64
5, 218880, Note_on_c, 3, 71, 120
5, 218960, Note_off_c, 3, 71, 64
5, 219120, Note_on_c, 3, 71, 120
5, 219220, Note_off_c, 3, 71, 64
5, 219360, Note_on_c, 3, 69, 120
5, 219475, Note_off_c, 3, 69, 64
5, 219600, Note_on_c, 3, 71, 120
5, 219775, Note_off_c, 3, 71, 64
5, 220080, Note_on_c, 3, 71, 120
5, 220170, Note_off_c, 3, 71, 64
5, 220200, Note_on_c, 3, 69, 120
5, 220390, Note_off_c, 3, 69, 64
5, 220440, Note_on_c, 3, 67, 120
5, 220740, Note_off_c, 3, 67, 64
5, 220800, Note_on_c, 3, 71, 120
5, 220890, Note_off_c, 3, 71, 64
5, 221040, Note_on_c, 3, 71, 120
5, 221140, Note_off_c, 3, 71, 64
5, 221280, Note_on_c, 3, 72, 120
5, 221405, Note_off_c, 3, 72, 64
5, 221520, Note_on_c, 3, 71, 120
5, 221680, Note_off_c, 3, 71, 64
5, 221760, Note_on_c, 3, 67, 120
5, 221970, Note_off_c, 3, 67, 64
5, 222000, Note_on_c, 3, 64, 120
5, 222120, Note_on_c, 3, 67, 120
5, 222125, Note_off_c, 3, 64, 64
5, 222390, Note_off_c, 3, 67, 64
5, 222480, Note_on_c, 3, 71, 120
5, 222685, Note_off_c, 3, 71, 64
5, 222720, Note_on_c, 3, 71, 120
5, 222810, Note_off_c, 3, 71, 64
5, 222960, Note_on_c, 3, 71, 120
5, 223055, Note_off_c, 3, 71, 64
5, 223200, Note_on_c, 3, 69, 120
5, 223305, Note_off_c, 3, 69, 64
5, 223440, Note_on_c, 3, 71, 120
5, 223470, Note_off_c, 3, 71, 64
5, 223560, Note_on_c, 3, 71, 120
5, 223665, Note_off_c, 3, 71, 64
5, 223680, Note_on_c, 3, 74, 120
5, 223825, Note_off_c, 3, 74, 64
5, 223920, Note_on_c, 3, 74, 120
5, 224030, Note_off_c, 3, 74, 64
5, 224040, Note_on_c, 3, 71, 120
5, 224220, Note_off_c, 3, 71, 64
5, 224280, Note_on_c, 3, 71, 120
5, 224595, Note_off_c, 3, 71, 64
5, 224640, Note_on_c, 3, 71, 120
5, 224725, Note_off_c, 3, 71, 64
5, 224880, Note_on_c, 3, 71, 120
5, 224970, Note_off_c, 3, 71, 64
5, 225120, Note_on_c, 3, 72, 120
5, 225225, Note_off_c, 3, 72, 64
5, 225360, Note_on_c, 3, 71, 120
5, 225360, Note_on_c, 3, 76, 120
5, 225480, Note_off_c, 3, 76, 64
5, 225540, Note_off_c, 3, 71, 64
5, 225600, Note_on_c, 3, 74, 120
5, 225990, Note_off_c, 3, 74, 64
5, 226080, Note_on_c, 3, 71, 120
5, 226305, Note_off_c, 3, 71, 64
5, 226560, Note_on_c, 3, 71, 120
5, 226655, Note_off_c, 3, 71, 64
5, 226800, Note_on_c, 3, 71, 120
5, 226900, Note_off_c, 3, 71, 64
5, 227040, Note_on_c, 3, 69, 120
5, 227145, Note_off_c, 3, 69, 64
5, 227280, Note_on_c, 3, 71, 120
5, 227280, Note_on_c, 3, 79, 120
5, 227375, Note_off_c, 3, 79, 64
5, 227440, Note_off_c, 3, 71, 64
5, 227520, Note_on_c, 3, 78, 120
5, 227995, Note_off_c, 3, 78, 64
5, 228000, Note_on_c, 3, 74, 120
5, 228445, Note_off_c, 3, 74, 64
5, 228480, Note_on_c, 3, 71, 120
5, 228480, Note_on_c, 3, 76, 120
5, 228575, Note_off_c, 3, 71, 64
5, 228720, Note_on_c, 3, 64, 120
5, 228720, Note_on_c, 3, 71, 120
5, 228835, Note_off_c, 3, 71, 64
5, 228955, Note_off_c, 3, 64, 64
5, 228960, Note_on_c, 3, 67, 120
5, 228960, Note_on_c, 3, 72, 120
5, 228980, Note_off_c, 3, 76, 64
5, 229070, Note_off_c, 3, 72, 64
5, 229200, Note_on_c, 3, 69, 120
5, 229200, Note_on_c, 3, 71, 120
5, 229220, Note_off_c, 3, 67, 64
5, 229365, Note_off_c, 3, 71, 64
5, 229440, Note_on_c, 3, 71, 120
5, 229480, Note_off_c, 3, 69, 64
5, 229920, Note_on_c, 3, 74, 120
5, 229930, Note_off_c, 3, 71, 64
5, 230280, Note_on_c, 3, 76, 120
5, 230335, Note_off_c, 3, 74, 64
5, 230400, Note_on_c, 3, 71, 120
5, 230485, Note_off_c, 3, 76, 64
5, 230500, Note_off_c, 3, 71, 64
5, 230640, Note_on_c, 3, 71, 120
5, 230740, Note_off_c, 3, 71, 64
5, 230880, Note_on_c, 3, 69, 120
5, 230980, Note_off_c, 3, 69, 64
5, 231120, Note_on_c, 3, 71, 120
5, 231120, Note_on_c, 3, 79, 120
5, 231215, Note_off_c, 3, 79, 64
5, 231305, Note_off_c, 3, 71, 64
5, 231360, Note_on_c, 3, 78, 120
5, 231825, Note_off_c, 3, 78, 64
5, 231840, Note_on_c, 3, 74, 120
5, 232290, Note_off_c, 3, 74, 64
5, 232320, Note_on_c, 3, 71, 120
5, 232320, Note_on_c, 3, 76, 120
5, 232415, Note_off_c, 3, 71, 64
5, 232560, Note_on_c, 3, 64, 120
5, 232560, Note_on_c, 3, 71, 120
5, 232660, Note_off_c, 3, 71, 64
5, 232795, Note_off_c, 3, 64, 64
5, 232800, Note_on_c, 3, 72, 120
5, 233040, Note_on_c, 3, 71, 120
5, 233060, Note_off_c, 3, 72, 64
5, 233090, Note_off_c, 3, 76, 64
5, 233280, Note_off_c, 3, 71, 64
5, 233280, Note_on_c, 3, 69, 120
5, 233745, Note_off_c, 3, 69, 64
5, 233760, Note_on_c, 3, 67, 120
5, 234090, Note_off_c, 3, 67, 64
5, 234240, Note_on_c, 3, 71, 120
5, 234325, Note_off_c, 3, 71, 64
5, 234480, Note_on_c, 3, 71, 120
5, 234580, Note_off_c, 3, 71, 64
5, 234720, Note_on_c, 3, 69, 120
5, 234820, Note_off_c, 3, 69, 64
5, 234960, Note_on_c, 3, 71, 120
5, 235115, Note_off_c, 3, 71, 64
5, 235440, Note_on_c, 3, 71, 120
5, 235560, Note_off_c, 3, 71, 64
5, 235560, Note_on_c, 3, 69, 120
5, 235765, Note_off_c, 3, 69, 64
5, 235800, Note_on_c, 3, 67, 120
5, 236040, Note_off_c, 3, 67, 64
5, 236160, Note_on_c, 3, 71, 120
5, 236260, Note_off_c, 3, 71, 64
5, 236400, Note_on_c, 3, 71, 120
5, 236500, Note_off_c, 3, 71, 64
5, 236640, Note_on_c, 3, 72, 120
5, 236755, Note_off_c, 3, 72, 64
5, 236880, Note_on_c, 3, 67, 120
5, 236880, Note_on_c, 3, 71, 120
5, 236980, Note_off_c, 3, 67, 64
5, 237000, Note_on_c, 3, 64, 120
5, 237035, Note_off_c, 3, 71, 64
5, 237120, Note_on_c, 3, 67, 120
5, 237130, Note_off_c, 3, 64, 64
5, 237350, Note_off_c, 3, 67, 64
5, 237360, Note_on_c, 3, 64, 120
5, 237480, Note_off_c, 3, 64, 64
5, 237480, Note_on_c, 3, 67, 120
5, 237705, Note_off_c, 3, 67, 64
5, 237720, Note_on_c, 3, 71, 120
5, 237970, Note_off_c, 3, 71, 64
5, 238080, Note_on_c, 3, 71, 120
5, 238170, Note_off_c, 3, 71, 64
5, 238320, Note_on_c, 3, 71, 120
5, 238420, Note_off_c, 3, 71, 64
5, 238560, Note_on_c, 3, 69, 120
5, 238660, Note_off_c, 3, 69, 64
5, 238800, Note_on_c, 3, 71, 120
5, 238900, Note_off_c, 3, 71, 64
5, 238920, Note_on_c, 3, 71, 120
5, 239005, Note_off_c, 3, 71, 64
5, 239040, Note_on_c, 3, 74, 120
5, 239150, Note_off_c, 3, 74, 64
5, 239280, Note_on_c, 3, 74, 120
5, 239380, Note_off_c, 3, 74, 64
5, 239400, Note_on_c, 3, 71, 120
5, 239550, Note_off_c, 3, 71, 64
5, 239640, Note_on_c, 3, 71, 120
5, 239860, Note_off_c, 3, 71, 64
5, 240000, Note_on_c, 3, 71, 120
5, 240085, Note_off_c, 3, 71, 64
5, 240240, Note_on_c, 3, 71, 120
5, 240325, Note_off_c, 3, 71, 64
5, 240480, Note_on_c, 3, 72, 120
5, 240595, Note_off_c, 3, 72, 64
5, 240720, Note_on_c, 3, 71, 120
5, 240720, Note_on_c, 3, 76, 120
5, 240840, Note_off_c, 3, 76, 64
5, 240860, Note_off_c, 3, 71, 64
5, 240960, Note_on_c, 3, 74, 120
5, 241310, Note_off_c, 3, 74, 64
5, 241440, Note_on_c, 3, 71, 120
5, 241765, Note_off_c, 3, 71, 64
5, 241765, End_track
6, 0, Start_track
6, 0, Title_t, "tk5"
6, 0, MIDI_port, 0
6, 0, Channel_prefix, 4
6, 0, Control_c, 4, 10, 64
6, 580, Control_c, 4, 0, 0
6, 585, Control_c, 4, 32, 0
6, 590, Program_c, 4, 61
6, 595, Control_c, 4, 7, 110
6, 595, Control_c, 4, 10, 64
6, 595, Control_c, 4, 11, 127
6, 600, Control_c, 4, 91, 80
6, 600, Control_c, 4, 93, 60
6, 18480, Note_on_c, 4, 74, 94
6, 18480, Note_on_c, 4, 76, 94
6, 18480, Note_on_c, 4, 79, 92
6, 18565, Note_off_c, 4, 79, 64
6, 18565, Note_off_c, 4, 76, 64
6, 18565, Note_off_c, 4, 74, 64
6, 18600, Note_on_c, 4, 74, 72
6, 18600, Note_on_c, 4, 76, 84
6, 18600, Note_on_c, 4, 79, 84
6, 18685, Note_off_c, 4, 79, 64
6, 18685, Note_off_c, 4, 76, 64
6, 18685, Note_off_c, 4, 74, 64
6, 18720, Note_on_c, 4, 74, 62
6, 18720, Note_on_c, 4, 76, 74
6, 18720, Note_on_c, 4, 79, 79
6, 18805, Note_off_c, 4, 79, 64
6, 18805, Note_off_c, 4, 76, 64
6, 18805, Note_off_c, 4, 74, 64
6, 18840, Note_on_c, 4, 74, 84
6, 18840, Note_on_c, 4, 76, 94
6, 18840, Note_on_c, 4, 79, 92
6, 18925, Note_off_c, 4, 79, 64
6, 18925, Note_off_c, 4, 76, 64
6, 18925, Note_off_c, 4, 74, 64
6, 25920, Note_on_c, 4, 62, 99
6, 25920, Note_on_c, 4, 74, 100
6, 25920, Note_on_c, 4, 86, 100
6, 26060, Note_off_c, 4, 62, 64
6, 26085, Note_off_c, 4, 74, 64
6, 26090, Note_off_c, 4, 86, 64
6, 26400, Note_on_c, 4, 62, 105
6, 26400, Note_on_c, 4, 74, 100
6, 26400, Note_on_c, 4, 86, 99
6, 26550, Note_off_c, 4, 62, 64
6, 26565, Note_off_c, 4, 74, 64
6, 26570, Note_off_c, 4, 86, 64
6, 33600, Note_on_c, 4, 62, 97
6, 33600, Note_on_c, 4, 74, 94
6, 33600, Note_on_c, 4, 86, 94
6, 33745, Note_off_c, 4, 62, 64
6, 33750, Note_off_c, 4, 74, 64
6, 33770, Note_off_c, 4, 86, 64
6, 34080, Note_on_c, 4, 62, 100
6, 34080, Note_on_c, 4, 74, 97
6, 34080, Note_on_c, 4, 86, 94
6, 34245, Note_off_c, 4, 74, 64
6, 34245, Note_off_c, 4, 62, 64
6, 34255, Note_off_c, 4, 86, 64
6, 64320, Note_on_c, 4, 62, 97
6, 64320, Note_on_c, 4, 74, 94
6, 64320, Note_on_c, 4, 86, 94
6, 64465, Note_off_c, 4, 62, 64
6, 64470, Note_off_c, 4, 74, 64
6, 64490, Note_off_c, 4, 86, 64
6, 64800, Note_on_c, 4, 62, 100
6, 64800, Note_on_c, 4, 74, 97
6, 64800, Note_on_c, 4, 86, 94
6, 64965, Note_off_c, 4, 74, 64
6, 64965, Note_off_c, 4, 62, 64
6, 64975, Note_off_c, 4, 86, 64
6, 110400, Note_on_c, 4, 62, 97
6, 110400, Note_on_c, 4, 74, 94
6, 110400, Note_on_c, 4, 86, 94
6, 110545, Note_off_c, 4, 62, 64
6, 110550, Note_off_c, 4, 74, 64
6, 110570, Note_off_c, 4, 86, 64
6, 110880, Note_on_c, 4, 62, 100
6, 110880, Note_on_c, 4, 74, 97
6, 110880, Note_on_c, 4, 86, 94
6, 111045, Note_off_c, 4, 74, 64
6, 111045, Note_off_c, 4, 62, 64
6, 111055, Note_off_c, 4, 86, 64
6, 125040, Note_on_c, 4, 74, 94
6, 125040, Note_on_c, 4, 76, 94
6, 125040, Note_on_c, 4, 79, 92
6, 125125, Note_off_c, 4, 79, 64
6, 125125, Note_off_c, 4, 76, 64
6, 125125, Note_off_c, 4, 74, 64
6, 125160, Note_on_c, 4, 74, 72
6, 125160, Note_on_c, 4, 76, 84
6, 125160, Note_on_c, 4, 79, 84
6, 125245, Note_off_c, 4, 79, 64
6, 125245, Note_off_c, 4, 76, 64
6, 125245, Note_off_c, 4, 74, 64
6, 125280, Note_on_c, 4, 74, 62
6, 125280, Note_on_c, 4, 76, 74
6, 125280, Note_on_c, 4, 79, 79
6, 125365, Note_off_c, 4, 79, 64
6, 125365, Note_off_c, 4, 76, 64
6, 125365, Note_off_c, 4, 74, 64
6, 125400, Note_on_c, 4, 74, 84
6, 125400, Note_on_c, 4, 76, 94
6, 125400, Note_on_c, 4, 79, 92
6, 125485, Note_off_c, 4, 79, 64
6, 125485, Note_off_c, 4, 76, 64
6, 125485, Note_off_c, 4, 74, 64
6, 133440, Note_on_c, 4, 62, 97
6, 133440, Note_on_c, 4, 74, 99
6, 133440, Note_on_c, 4, 86, 99
6, 133615, Note_off_c, 4, 62, 64
6, 133630, Note_off_c, 4, 74, 64
6, 133630, Note_off_c, 4, 86, 64
6, 133920, Note_on_c, 4, 62, 100
6, 133920, Note_on_c, 4, 74, 90
6, 133920, Note_on_c, 4, 86, 99
6, 134100, Note_off_c, 4, 62, 64
6, 134120, Note_off_c, 4, 74, 64
6, 134120, Note_off_c, 4, 86, 64
6, 141120, Note_on_c, 4, 62, 100
6, 141120, Note_on_c, 4, 74, 99
6, 141120, Note_on_c, 4, 86, 100
6, 141255, Note_off_c, 4, 62, 64
6, 141280, Note_off_c, 4, 74, 64
6, 141285, Note_off_c, 4, 86, 64
6, 141600, Note_on_c, 4, 62, 105
6, 141600, Note_on_c, 4, 74, 100
6, 141600, Note_on_c, 4, 86, 99
6, 141770, Note_off_c, 4, 62, 64
6, 141780, Note_off_c, 4, 74, 64
6, 141790, Note_off_c, 4, 86, 64
6, 187195, Note_on_c, 4, 62, 100
6, 187195, Note_on_c, 4, 74, 99
6, 187195, Note_on_c, 4, 86, 99
6, 187345, Note_off_c, 4, 62, 64
6, 187360, Note_off_c, 4, 86, 64
6, 187365, Note_off_c, 4, 74, 64
6, 187675, Note_on_c, 4, 62, 105
6, 187675, Note_on_c, 4, 74, 100
6, 187675, Note_on_c, 4, 86, 100
6, 187830, Note_off_c, 4, 62, 64
6, 187840, Note_off_c, 4, 74, 64
6, 187840, Note_off_c, 4, 86, 64
6, 201840, Note_on_c, 4, 74, 92
6, 201840, Note_on_c, 4, 76, 92
6, 201840, Note_on_c, 4, 79, 90
6, 201900, Note_off_c, 4, 79, 64
6, 201900, Note_off_c, 4, 76, 64
6, 201900, Note_off_c, 4, 74, 64
6, 201960, Note_on_c, 4, 74, 70
6, 201960, Note_on_c, 4, 76, 82
6, 201960, Note_on_c, 4, 79, 82
6, 202020, Note_off_c, 4, 79, 64
6, 202020, Note_off_c, 4, 76, 64
6, 202020, Note_off_c, 4, 74, 64
6, 202080, Note_on_c, 4, 74, 60
6, 202080, Note_on_c, 4, 76, 72
6, 202080, Note_on_c, 4, 79, 77
6, 202140, Note_off_c, 4, 79, 64
6, 202140, Note_off_c, 4, 76, 64
6, 202140, Note_off_c, 4, 74, 64
6, 202200, Note_on_c, 4, 74, 82
6, 202200, Note_on_c, 4, 76, 92
6, 202200, Note_on_c, 4, 79, 90
6, 202260, Note_off_c, 4, 79, 64
6, 202260, Note_off_c, 4, 76, 64
6, 202260, Note_off_c, 4, 74, 64
6, 210240, Note_on_c, 4, 62, 97
6, 210240, Note_on_c, 4, 74, 99
6, 210240, Note_on_c, 4, 86, 99
6, 210415, Note_off_c, 4, 62, 64
6, 210430, Note_off_c, 4, 74, 64
6, 210430, Note_off_c, 4, 86, 64
6, 210720, Note_on_c, 4, 62, 100
6, 210720, Note_on_c, 4, 74, 90
6, 210720, Note_on_c, 4, 86, 99
6, 210900, Note_off_c, 4, 62, 64
6, 210920, Note_off_c, 4, 74, 64
6, 210920, Note_off_c, 4, 86, 64
6, 217915, Note_on_c, 4, 86, 103
6, 217920, Note_on_c, 4, 62, 105
6, 217920, Note_on_c, 4, 74, 103
6, 218070, Note_off_c, 4, 62, 64
6, 218090, Note_off_c, 4, 74, 64
6, 218105, Note_off_c, 4, 86, 64
6, 218395, Note_on_c, 4, 74, 100
6, 218395, Note_on_c, 4, 86, 103
6, 218400, Note_on_c, 4, 62, 105
6, 218595, Note_off_c, 4, 62, 64
6, 218610, Note_off_c, 4, 74, 64
6, 218620, Note_off_c, 4, 86, 64
6, 233275, Note_on_c, 4, 86, 103
6, 233280, Note_on_c, 4, 62, 105
6, 233280, Note_on_c, 4, 74, 103
6, 233430, Note_off_c, 4, 62, 64
6, 233450, Note_off_c, 4, 74, 64
6, 233465, Note_off_c, 4, 86, 64
6, 233755, Note_on_c, 4, 74, 100
6, 233755, Note_on_c, 4, 86, 103
6, 233760, Note_on_c, 4, 62, 105
6, 233955, Note_off_c, 4, 62, 64
6, 233970, Note_off_c, 4, 74, 64
6, 233980, Note_off_c, 4, 86, 64
6, 240960, Note_on_c, 4, 62, 99
6, 240960, Note_on_c, 4, 74, 92
6, 240960, Note_on_c, 4, 86, 94
6, 241105, Note_off_c, 4, 74, 64
6, 241110, Note_off_c, 4, 62, 64
6, 241140, Note_off_c, 4, 86, 64
6, 241440, Note_on_c, 4, 62, 99
6, 241440, Note_on_c, 4, 74, 94
6, 241440, Note_on_c, 4, 86, 97
6, 241595, Note_off_c, 4, 62, 64
6, 241615, Note_off_c, 4, 74, 64
6, 241640, Note_off_c, 4, 86, 64
6, 241800, Note_on_c, 4, 64, 99
6, 241800, Note_on_c, 4, 76, 97
6, 241800, Note_on_c, 4, 88, 97
6, 241995, Note_off_c, 4, 64, 64
6, 242000, Note_off_c, 4, 76, 64
6, 242005, Note_off_c, 4, 88, 64
6, 242005, End_track
7, 0, Start_track
7, 0, Title_t, "tk6"
7, 0, MIDI_port, 0
7, 0, Channel_prefix, 5
7, 0, Control_c, 5, 10, 64
7, 605, Control_c, 5, 0, 0
7, 610, Control_c, 5, 32, 0
7, 615, Program_c, 5, 65
7, 620, Control_c, 5, 7, 110
7, 620, Control_c, 5, 10, 54
7, 620, Control_c, 5, 11, 127
7, 625, Control_c, 5, 91, 90
7, 625, Control_c, 5, 93, 20
7, 18475, Note_on_c, 5, 64, 61
7, 18475, Note_on_c, 5, 69, 63
7, 18475, Note_on_c, 5, 72, 67
7, 18525, Note_off_c, 5, 69, 64
7, 18530, Note_off_c, 5, 64, 64
7, 18530, Note_off_c, 5, 72, 64
7, 18585, Note_on_c, 5, 64, 25
7, 18590, Note_on_c, 5, 69, 47
7, 18590, Note_on_c, 5, 72, 49
7, 18640, Note_off_c, 5, 64, 64
7, 18645, Note_off_c, 5, 69, 64
7, 18645, Note_off_c, 5, 72, 64
7, 18705, Note_on_c, 5, 64, 24
7, 18705, Note_on_c, 5, 69, 45
7, 18705, Note_on_c, 5, 72, 41
7, 18760, Note_off_c, 5, 69, 64
7, 18760, Note_off_c, 5, 64, 64
7, 18765, Note_off_c, 5, 72, 64
7, 18825, Note_on_c, 5, 64, 40
7, 18825, Note_on_c, 5, 69, 53
7, 18825, Note_on_c, 5, 72, 55
7, 18890, Note_off_c, 5, 64, 64
7, 18895, Note_off_c, 5, 69, 64
7, 18905, Note_off_c, 5, 72, 64
7, 25900, Note_on_c, 5, 50, 65
7, 25900, Note_on_c, 5, 62, 63
7, 25900, Note_on_c, 5, 74, 65
7, 26050, Note_off_c, 5, 50, 64
7, 26065, Note_off_c, 5, 62, 64
7, 26075, Note_off_c, 5, 74, 64
7, 26370, Note_on_c, 5, 62, 65
7, 26370, Note_on_c, 5, 74, 63
7, 26375, Note_on_c, 5, 50, 67
7, 26555, Note_off_c, 5, 62, 64
7, 26560, Note_off_c, 5, 50, 64
7, 26565, Note_off_c, 5, 74, 64
7, 33580, Note_on_c, 5, 50, 65
7, 33580, Note_on_c, 5, 62, 63
7, 33580, Note_on_c, 5, 74, 65
7, 33730, Note_off_c, 5, 50, 64
7, 33745, Note_off_c, 5, 62, 64
7, 33755, Note_off_c, 5, 74, 64
7, 34050, Note_on_c, 5, 62, 65
7, 34050, Note_on_c, 5, 74, 63
7, 34055, Note_on_c, 5, 50, 67
7, 34235, Note_off_c, 5, 62, 64
7, 34240, Note_off_c, 5, 50, 64
7, 34245, Note_off_c, 5, 74, 64
7, 41270, Pitch_bend_c, 5, 628
7, 41280, Note_on_c, 5, 71, 98
7, 41290, Pitch_bend_c, 5, 250
7, 41325, Pitch_bend_c, 5, 4282
7, 41360, Pitch_bend_c, 5, 8192
7, 41460, Note_off_c, 5, 71, 64
7, 41500, Pitch_bend_c, 5, 1762
7, 41510, Note_on_c, 5, 71, 101
7, 41535, Pitch_bend_c, 5, 2392
7, 41570, Pitch_bend_c, 5, 8192
7, 41715, Note_off_c, 5, 71, 64
7, 41735, Note_on_c, 5, 69, 98
7, 41810, Note_off_c, 5, 69, 64
7, 41865, Note_on_c, 5, 67, 96
7, 41920, Note_off_c, 5, 67, 64
7, 41975, Note_on_c, 5, 64, 94
7, 42030, Note_off_c, 5, 64, 64
7, 42100, Note_on_c, 5, 62, 104
7, 42190, Note_off_c, 5, 62, 64
7, 64300, Note_on_c, 5, 50, 65
7, 64300, Note_on_c, 5, 62, 63
7, 64300, Note_on_c, 5, 74, 65
7, 64450, Note_off_c, 5, 50, 64
7, 64465, Note_off_c, 5, 62, 64
7, 64475, Note_off_c, 5, 74, 64
7, 64770, Note_on_c, 5, 62, 65
7, 64770, Note_on_c, 5, 74, 63
7, 64775, Note_on_c, 5, 50, 67
7, 64955, Note_off_c, 5, 62, 64
7, 64960, Note_off_c, 5, 50, 64
7, 64965, Note_off_c, 5, 74, 64
7, 110380, Note_on_c, 5, 50, 65
7, 110380, Note_on_c, 5, 62, 63
7, 110380, Note_on_c, 5, 74, 65
7, 110530, Note_off_c, 5, 50, 64
7, 110545, Note_off_c, 5, 62, 64
7, 110555, Note_off_c, 5, 74, 64
7, 110850, Note_on_c, 5, 62, 65
7, 110850, Note_on_c, 5, 74, 63
7, 110855, Note_on_c, 5, 50, 67
7, 111035, Note_off_c, 5, 62, 64
7, 111040, Note_off_c, 5, 50, 64
7, 111045, Note_off_c, 5, 74, 64
7, 118070, Pitch_bend_c, 5, 628
7, 118080, Note_on_c, 5, 71, 98
7, 118090, Pitch_bend_c, 5, 250
7, 118125, Pitch_bend_c, 5, 4282
7, 118160, Pitch_bend_c, 5, 8192
7, 118260, Note_off_c, 5, 71, 64
7, 118300, Pitch_bend_c, 5, 1762
7, 118310, Note_on_c, 5, 71, 101
7, 118335, Pitch_bend_c, 5, 2392
7, 118370, Pitch_bend_c, 5, 8192
7, 118515, Note_off_c, 5, 71, 64
7, 118535, Note_on_c, 5, 69, 98
7, 118610, Note_off_c, 5, 69, 64
7, 118665, Note_on_c, 5, 67, 96
7, 118720, Note_off_c, 5, 67, 64
7, 118775, Note_on_c, 5, 64, 94
7, 118830, Note_off_c, 5, 64, 64
7, 118900, Note_on_c, 5, 62, 104
7, 118965, Note_off_c, 5, 62, 64
7, 125035, Note_on_c, 5, 64, 61
7, 125035, Note_on_c, 5, 69, 63
7, 125035, Note_on_c, 5, 72, 67
7, 125085, Note_off_c, 5, 69, 64
7, 125090, Note_off_c, 5, 64, 64
7, 125090, Note_off_c, 5, 72, 64
7, 125145, Note_on_c, 5, 64, 25
7, 125150, Note_on_c, 5, 69, 47
7, 125150, Note_on_c, 5, 72, 49
7, 125200, Note_off_c, 5, 64, 64
7, 125205, Note_off_c, 5, 69, 64
7, 125205, Note_off_c, 5, 72, 64
7, 125265, Note_on_c, 5, 64, 24
7, 125265, Note_on_c, 5, 69, 45
7, 125265, Note_on_c, 5, 72, 41
7, 125320, Note_off_c, 5, 69, 64
7, 125320, Note_off_c, 5, 64, 64
7, 125325, Note_off_c, 5, 72, 64
7, 125385, Note_on_c, 5, 64, 40
7, 125385, Note_on_c, 5, 69, 53
7, 125385, Note_on_c, 5, 72, 55
7, 125450, Note_off_c, 5, 64, 64
7, 125455, Note_off_c, 5, 69, 64
7, 125465, Note_off_c, 5, 72, 64
7, 133420, Note_on_c, 5, 50, 65
7, 133420, Note_on_c, 5, 62, 63
7, 133420, Note_on_c, 5, 74, 65
7, 133570, Note_off_c, 5, 50, 64
7, 133585, Note_off_c, 5, 62, 64
7, 133595, Note_off_c, 5, 74, 64
7, 133890, Note_on_c, 5, 62, 65
7, 133890, Note_on_c, 5, 74, 63
7, 133895, Note_on_c, 5, 50, 67
7, 134075, Note_off_c, 5, 62, 64
7, 134080, Note_off_c, 5, 50, 64
7, 134085, Note_off_c, 5, 74, 64
7, 141100, Note_on_c, 5, 50, 65
7, 141100, Note_on_c, 5, 62, 63
7, 141100, Note_on_c, 5, 74, 65
7, 141250, Note_off_c, 5, 50, 64
7, 141265, Note_off_c, 5, 62, 64
7, 141275, Note_off_c, 5, 74, 64
7, 141570, Note_on_c, 5, 62, 65
7, 141570, Note_on_c, 5, 74, 63
7, 141575, Note_on_c, 5, 50, 67
7, 141755, Note_off_c, 5, 62, 64
7, 141760, Note_off_c, 5, 50, 64
7, 141765, Note_off_c, 5, 74, 64
7, 148790, Pitch_bend_c, 5, 628
7, 148800, Note_on_c, 5, 71, 98
7, 148810, Pitch_bend_c, 5, 250
7, 148845, Pitch_bend_c, 5, 4282
7, 148880, Pitch_bend_c, 5, 8192
7, 148980, Note_off_c, 5, 71, 64
7, 149020, Pitch_bend_c, 5, 1762
7, 149030, Note_on_c, 5, 71, 101
7, 149055, Pitch_bend_c, 5, 2392
7, 149090, Pitch_bend_c, 5, 8192
7, 149235, Note_off_c, 5, 71, 64
7, 149255, Note_on_c, 5, 69, 98
7, 149330, Note_off_c, 5, 69, 64
7, 149385, Note_on_c, 5, 67, 96
7, 149440, Note_off_c, 5, 67, 64
7, 149495, Note_on_c, 5, 64, 94
7, 149550, Note_off_c, 5, 64, 64
7, 149620, Note_on_c, 5, 62, 104
7, 149685, Note_off_c, 5, 62, 64
7, 187180, Note_on_c, 5, 50, 65
7, 187180, Note_on_c, 5, 62, 63
7, 187180, Note_on_c, 5, 74, 65
7, 187330, Note_off_c, 5, 50, 64
7, 187345, Note_off_c, 5, 62, 64
7, 187355, Note_off_c, 5, 74, 64
7, 187650, Note_on_c, 5, 62, 65
7, 187650, Note_on_c, 5, 74, 63
7, 187655, Note_on_c, 5, 50, 67
7, 187835, Note_off_c, 5, 62, 64
7, 187840, Note_off_c, 5, 50, 64
7, 187845, Note_off_c, 5, 74, 64
7, 194870, Pitch_bend_c, 5, 628
7, 194880, Note_on_c, 5, 71, 98
7, 194890, Pitch_bend_c, 5, 250
7, 194925, Pitch_bend_c, 5, 4282
7, 194960, Pitch_bend_c, 5, 8192
7, 195060, Note_off_c, 5, 71, 64
7, 195100, Pitch_bend_c, 5, 1762
7, 195110, Note_on_c, 5, 71, 101
7, 195135, Pitch_bend_c, 5, 2392
7, 195170, Pitch_bend_c, 5, 8192
7, 195315, Note_off_c, 5, 71, 64
7, 195335, Note_on_c, 5, 69, 98
7, 195410, Note_off_c, 5, 69, 64
7, 195465, Note_on_c, 5, 67, 96
7, 195520, Note_off_c, 5, 67, 64
7, 195575, Note_on_c, 5, 64, 94
7, 195630, Note_off_c, 5, 64, 64
7, 195700, Note_on_c, 5, 62, 104
7, 195765, Note_off_c, 5, 62, 64
7, 201835, Note_on_c, 5, 64, 61
7, 201835, Note_on_c, 5, 69, 63
7, 201835, Note_on_c, 5, 72, 67
7, 201885, Note_off_c, 5, 69, 64
7, 201890, Note_off_c, 5, 64, 64
7, 201890, Note_off_c, 5, 72, 64
7, 201945, Note_on_c, 5, 64, 25
7, 201950, Note_on_c, 5, 69, 47
7, 201950, Note_on_c, 5, 72, 49
7, 202000, Note_off_c, 5, 64, 64
7, 202005, Note_off_c, 5, 69, 64
7, 202005, Note_off_c, 5, 72, 64
7, 202065, Note_on_c, 5, 64, 24
7, 202065, Note_on_c, 5, 69, 45
7, 202065, Note_on_c, 5, 72, 41
7, 202120, Note_off_c, 5, 69, 64
7, 202120, Note_off_c, 5, 64, 64
7, 202125, Note_off_c, 5, 72, 64
7, 202185, Note_on_c, 5, 64, 40
7, 202185, Note_on_c, 5, 69, 53
7, 202185, Note_on_c, 5, 72, 55
7, 202250, Note_off_c, 5, 64, 64
7, 202255, Note_off_c, 5, 69, 64
7, 202265, Note_off_c, 5, 72, 64
7, 210220, Note_on_c, 5, 50, 65
7, 210220, Note_on_c, 5, 62, 63
7, 210220, Note_on_c, 5, 74, 65
7, 210370, Note_off_c, 5, 50, 64
7, 210385, Note_off_c, 5, 62, 64
7, 210395, Note_off_c, 5, 74, 64
7, 210690, Note_on_c, 5, 62, 65
7, 210690, Note_on_c, 5, 74, 63
7, 210695, Note_on_c, 5, 50, 67
7, 210875, Note_off_c, 5, 62, 64
7, 210880, Note_off_c, 5, 50, 64
7, 210885, Note_off_c, 5, 74, 64
7, 217900, Note_on_c, 5, 50, 65
7, 217900, Note_on_c, 5, 62, 63
7, 217900, Note_on_c, 5, 74, 65
7, 218050, Note_off_c, 5, 50, 64
7, 218065, Note_off_c, 5, 62, 64
7, 218075, Note_off_c, 5, 74, 64
7, 218370, Note_on_c, 5, 62, 65
7, 218370, Note_on_c, 5, 74, 63
7, 218375, Note_on_c, 5, 50, 67
7, 218555, Note_off_c, 5, 62, 64
7, 218560, Note_off_c, 5, 50, 64
7, 218565, Note_off_c, 5, 74, 64
7, 225590, Pitch_bend_c, 5, 628
7, 225600, Note_on_c, 5, 71, 98
7, 225610, Pitch_bend_c, 5, 250
7, 225645, Pitch_bend_c, 5, 4282
7, 225680, Pitch_bend_c, 5, 8192
7, 225780, Note_off_c, 5, 71, 64
7, 225820, Pitch_bend_c, 5, 1762
7, 225830, Note_on_c, 5, 71, 101
7, 225855, Pitch_bend_c, 5, 2392
7, 225890, Pitch_bend_c, 5, 8192
7, 226035, Note_off_c, 5, 71, 64
7, 226055, Note_on_c, 5, 69, 98
7, 226130, Note_off_c, 5, 69, 64
7, 226185, Note_on_c, 5, 67, 96
7, 226240, Note_off_c, 5, 67, 64
7, 226295, Note_on_c, 5, 64, 94
7, 226350, Note_off_c, 5, 64, 64
7, 226420, Note_on_c, 5, 62, 104
7, 226485, Note_off_c, 5, 62, 64
7, 233260, Note_on_c, 5, 50, 65
7, 233260, Note_on_c, 5, 62, 63
7, 233260, Note_on_c, 5, 74, 65
7, 233410, Note_off_c, 5, 50, 64
7, 233425, Note_off_c, 5, 62, 64
7, 233435, Note_off_c, 5, 74, 64
7, 233730, Note_on_c, 5, 62, 65
7, 233730, Note_on_c, 5, 74, 63
7, 233735, Note_on_c, 5, 50, 67
7, 233915, Note_off_c, 5, 62, 64
7, 233920, Note_off_c, 5, 50, 64
7, 233925, Note_off_c, 5, 74, 64
7, 240945, Note_on_c, 5, 62, 63
7, 240950, Note_on_c, 5, 50, 67
7, 240950, Note_on_c, 5, 74, 67
7, 241145, Note_off_c, 5, 62, 64
7, 241155, Note_off_c, 5, 50, 64
7, 241170, Note_off_c, 5, 74, 64
7, 241435, Note_on_c, 5, 50, 69
7, 241435, Note_on_c, 5, 62, 61
7, 241435, Note_on_c, 5, 74, 63
7, 241620, Note_off_c, 5, 50, 64
7, 241630, Note_off_c, 5, 62, 64
7, 241665, Note_off_c, 5, 74, 64
7, 241795, Note_on_c, 5, 52, 65
7, 241795, Note_on_c, 5, 64, 61
7, 241795, Note_on_c, 5, 76, 61
7, 242005, Note_off_c, 5, 64, 64
7, 242005, Note_off_c, 5, 52, 64
7, 242015, Note_off_c, 5, 76, 64
7, 242015, End_track
8, 0, Start_track
8, 0, Title_t, "tk7"
8, 0, MIDI_port, 0
8, 0, Channel_prefix, 6
8, 0, Control_c, 6, 10, 64
8, 630, Control_c, 6, 0, 0
8, 635, Control_c, 6, 32, 0
8, 640, Program_c, 6, 62
8, 645, Control_c, 6, 7, 110
8, 645, Control_c, 6, 10, 59
8, 645, Control_c, 6, 11, 127
8, 650, Control_c, 6, 91, 70
8, 650, Control_c, 6, 93, 60
8, 19190, Note_on_c, 6, 40, 70
8, 19450, Note_off_c, 6, 40, 64
8, 20150, Note_on_c, 6, 47, 70
8, 20400, Note_off_c, 6, 47, 64
8, 20630, Note_on_c, 6, 48, 70
8, 20920, Note_off_c, 6, 48, 64
8, 21110, Note_on_c, 6, 50, 70
8, 21370, Note_off_c, 6, 50, 64
8, 22070, Note_on_c, 6, 45, 70
8, 22345, Note_off_c, 6, 45, 64
8, 22550, Note_on_c, 6, 47, 70
8, 22855, Note_off_c, 6, 47, 64
8, 23030, Note_on_c, 6, 40, 70
8, 23300, Note_off_c, 6, 40, 64
8, 23990, Note_on_c, 6, 47, 70
8, 24225, Note_off_c, 6, 47, 64
8, 24470, Note_on_c, 6, 48, 70
8, 24745, Note_off_c, 6, 48, 64
8, 24950, Note_on_c, 6, 50, 70
8, 25215, Note_off_c, 6, 50, 64
8, 26870, Note_on_c, 6, 52, 70
8, 27075, Note_off_c, 6, 52, 64
8, 27110, Note_on_c, 6, 62, 70
8, 27110, Note_on_c, 6, 67, 70
8, 27110, Note_on_c, 6, 71, 70
8, 27145, Note_off_c, 6, 67, 64
8, 27155, Note_off_c, 6, 71, 64
8, 27160, Note_off_c, 6, 62, 64
8, 27230, Note_on_c, 6, 62, 70
8, 27230, Note_on_c, 6, 67, 70
8, 27230, Note_on_c, 6, 71, 70
8, 27295, Note_off_c, 6, 67, 64
8, 27295, Note_off_c, 6, 62, 64
8, 27300, Note_off_c, 6, 71, 64
8, 27590, Note_on_c, 6, 62, 70
8, 27590, Note_on_c, 6, 67, 70
8, 27590, Note_on_c, 6, 71, 70
8, 27650, Note_off_c, 6, 67, 64
8, 27650, Note_off_c, 6, 62, 64
8, 27660, Note_off_c, 6, 71, 64
8, 27830, Note_on_c, 6, 62, 70
8, 27830, Note_on_c, 6, 66, 70
8, 27830, Note_on_c, 6, 69, 70
8, 28100, Note_off_c, 6, 62, 64
8, 28115, Note_off_c, 6, 66, 64
8, 28120, Note_off_c, 6, 69, 64
8, 28190, Note_on_c, 6, 62, 70
8, 28190, Note_on_c, 6, 66, 70
8, 28190, Note_on_c, 6, 69, 70
8, 28430, Note_off_c, 6, 69, 64
8, 28445, Note_off_c, 6, 62, 64
8, 28490, Note_off_c, 6, 66, 64
8, 28550, Note_on_c, 6, 60, 70
8, 28550, Note_on_c, 6, 64, 70
8, 28550, Note_on_c, 6, 67, 70
8, 28850, Note_off_c, 6, 60, 64
8, 28890, Note_off_c, 6, 67, 64
8, 28900, Note_off_c, 6, 64, 64
8, 29030, Note_on_c, 6, 60, 70
8, 29030, Note_on_c, 6, 64, 70
8, 29030, Note_on_c, 6, 67, 70
8, 29070, Note_off_c, 6, 64, 64
8, 29075, Note_off_c, 6, 60, 64
8, 29080, Note_off_c, 6, 67, 64
8, 29150, Note_on_c, 6, 60, 70
8, 29150, Note_on_c, 6, 64, 70
8, 29150, Note_on_c, 6, 67, 70
8, 29230, Note_off_c, 6, 60, 64
8, 29235, Note_off_c, 6, 64, 64
8, 29235, Note_off_c, 6, 67, 64
8, 29750, Note_on_c, 6, 60, 70
8, 29750, Note_on_c, 6, 64, 70
8, 29750, Note_on_c, 6, 67, 70
8, 29885, Note_off_c, 6, 60, 64
8, 29900, Note_off_c, 6, 67, 64
8, 29915, Note_off_c, 6, 64, 64
8, 30230, Note_on_c, 6, 57, 70
8, 30230, Note_on_c, 6, 62, 70
8, 30230, Note_on_c, 6, 66, 70
8, 30575, Note_off_c, 6, 57, 64
8, 30605, Note_off_c, 6, 66, 64
8, 30630, Note_off_c, 6, 62, 64
8, 30710, Note_on_c, 6, 52, 70
8, 30950, Note_on_c, 6, 62, 70
8, 30950, Note_on_c, 6, 67, 70
8, 30950, Note_on_c, 6, 71, 70
8, 30965, Note_off_c, 6, 52, 64
8, 30980, Note_off_c, 6, 67, 64
8, 30990, Note_off_c, 6, 71, 64
8, 31000, Note_off_c, 6, 62, 64
8, 31070, Note_on_c, 6, 62, 70
8, 31070, Note_on_c, 6, 67, 70
8, 31070, Note_on_c, 6, 71, 70
8, 31115, Note_off_c, 6, 62, 64
8, 31130, Note_off_c, 6, 67, 64
8, 31140, Note_off_c, 6, 71, 64
8, 31430, Note_on_c, 6, 62, 70
8, 31430, Note_on_c, 6, 67, 70
8, 31430, Note_on_c, 6, 71, 70
8, 31480, Note_off_c, 6, 67, 64
8, 31480, Note_off_c, 6, 62, 64
8, 31485, Note_off_c, 6, 71, 64
8, 31670, Note_on_c, 6, 62, 70
8, 31670, Note_on_c, 6, 66, 70
8, 31670, Note_on_c, 6, 69, 70
8, 31915, Note_off_c, 6, 62, 64
8, 31935, Note_off_c, 6, 69, 64
8, 31940, Note_off_c, 6, 66, 64
8, 32030, Note_on_c, 6, 62, 70
8, 32030, Note_on_c, 6, 66, 70
8, 32030, Note_on_c, 6, 69, 70
8, 32265, Note_off_c, 6, 69, 64
8, 32280, Note_off_c, 6, 62, 64
8, 32335, Note_off_c, 6, 66, 64
8, 32390, Note_on_c, 6, 60, 70
8, 32390, Note_on_c, 6, 64, 70
8, 32390, Note_on_c, 6, 67, 70
8, 32725, Note_off_c, 6, 60, 64
8, 32750, Note_off_c, 6, 67, 64
8, 32770, Note_off_c, 6, 64, 64
8, 32870, Note_on_c, 6, 60, 70
8, 32870, Note_on_c, 6, 64, 70
8, 32870, Note_on_c, 6, 67, 70
8, 32910, Note_off_c, 6, 64, 64
8, 32920, Note_off_c, 6, 67, 64
8, 32925, Note_off_c, 6, 60, 64
8, 32990, Note_on_c, 6, 60, 70
8, 32990, Note_on_c, 6, 64, 70
8, 32990, Note_on_c, 6, 67, 70
8, 33060, Note_off_c, 6, 60, 64
8, 33065, Note_off_c, 6, 67, 64
8, 33075, Note_off_c, 6, 64, 64
8, 33590, Note_on_c, 6, 60, 70
8, 33590, Note_on_c, 6, 64, 70
8, 33590, Note_on_c, 6, 67, 70
8, 33825, Note_off_c, 6, 60, 64
8, 33870, Note_off_c, 6, 67, 64
8, 33875, Note_off_c, 6, 64, 64
8, 34070, Note_on_c, 6, 60, 70
8, 34070, Note_on_c, 6, 64, 70
8, 34070, Note_on_c, 6, 67, 70
8, 34280, Note_off_c, 6, 60, 64
8, 34315, Note_off_c, 6, 67, 64
8, 34325, Note_off_c, 6, 64, 64
8, 34550, Note_on_c, 6, 52, 70
8, 34775, Note_off_c, 6, 52, 64
8, 34790, Note_on_c, 6, 62, 70
8, 34790, Note_on_c, 6, 67, 70
8, 34790, Note_on_c, 6, 71, 70
8, 34835, Note_off_c, 6, 67, 64
8, 34845, Note_off_c, 6, 62, 64
8, 34845, Note_off_c, 6, 71, 64
8, 34910, Note_on_c, 6, 62, 70
8, 34910, Note_on_c, 6, 67, 70
8, 34910, Note_on_c, 6, 71, 70
8, 34965, Note_off_c, 6, 62, 64
8, 34975, Note_off_c, 6, 67, 64
8, 34980, Note_off_c, 6, 71, 64
8, 35270, Note_on_c, 6, 62, 70
8, 35270, Note_on_c, 6, 67, 70
8, 35270, Note_on_c, 6, 71, 70
8, 35325, Note_off_c, 6, 62, 64
8, 35330, Note_off_c, 6, 67, 64
8, 35340, Note_off_c, 6, 71, 64
8, 35510, Note_on_c, 6, 62, 70
8, 35510, Note_on_c, 6, 66, 70
8, 35510, Note_on_c, 6, 69, 70
8, 35770, Note_off_c, 6, 62, 64
8, 35785, Note_off_c, 6, 69, 64
8, 35795, Note_off_c, 6, 66, 64
8, 35870, Note_on_c, 6, 62, 70
8, 35870, Note_on_c, 6, 66, 70
8, 35870, Note_on_c, 6, 69, 70
8, 36110, Note_off_c, 6, 69, 64
8, 36125, Note_off_c, 6, 62, 64
8, 36165, Note_off_c, 6, 66, 64
8, 36230, Note_on_c, 6, 60, 70
8, 36230, Note_on_c, 6, 64, 70
8, 36230, Note_on_c, 6, 67, 70
8, 36550, Note_off_c, 6, 60, 64
8, 36600, Note_off_c, 6, 67, 64
8, 36610, Note_off_c, 6, 64, 64
8, 36710, Note_on_c, 6, 60, 70
8, 36710, Note_on_c, 6, 64, 70
8, 36710, Note_on_c, 6, 67, 70
8, 36745, Note_off_c, 6, 64, 64
8, 36755, Note_off_c, 6, 67, 64
8, 36760, Note_off_c, 6, 60, 64
8, 36830, Note_on_c, 6, 60, 70
8, 36830, Note_on_c, 6, 64, 70
8, 36830, Note_on_c, 6, 67, 70
8, 36895, Note_off_c, 6, 60, 64
8, 36910, Note_off_c, 6, 64, 64
8, 36910, Note_off_c, 6, 67, 64
8, 37430, Note_on_c, 6, 60, 70
8, 37430, Note_on_c, 6, 64, 70
8, 37430, Note_on_c, 6, 67, 70
8, 37570, Note_off_c, 6, 60, 64
8, 37590, Note_off_c, 6, 67, 64
8, 37595, Note_off_c, 6, 64, 64
8, 37910, Note_on_c, 6, 57, 70
8, 37910, Note_on_c, 6, 62, 70
8, 37910, Note_on_c, 6, 66, 70
8, 38085, Note_off_c, 6, 57, 64
8, 38110, Note_off_c, 6, 62, 64
8, 38120, Note_off_c, 6, 66, 64
8, 38390, Note_on_c, 6, 52, 70
8, 38600, Note_off_c, 6, 52, 64
8, 38630, Note_on_c, 6, 62, 70
8, 38630, Note_on_c, 6, 67, 70
8, 38630, Note_on_c, 6, 71, 70
8, 38680, Note_off_c, 6, 67, 64
8, 38690, Note_off_c, 6, 71, 64
8, 38695, Note_off_c, 6, 62, 64
8, 38750, Note_on_c, 6, 62, 70
8, 38750, Note_on_c, 6, 67, 70
8, 38750, Note_on_c, 6, 71, 70
8, 38825, Note_off_c, 6, 71, 64
8, 38825, Note_off_c, 6, 62, 64
8, 38830, Note_off_c, 6, 67, 64
8, 39110, Note_on_c, 6, 62, 70
8, 39110, Note_on_c, 6, 67, 70
8, 39110, Note_on_c, 6, 71, 70
8, 39170, Note_off_c, 6, 67, 64
8, 39170, Note_off_c, 6, 62, 64
8, 39175, Note_off_c, 6, 71, 64
8, 39350, Note_on_c, 6, 62, 70
8, 39350, Note_on_c, 6, 66, 70
8, 39350, Note_on_c, 6, 69, 70
8, 39580, Note_off_c, 6, 62, 64
8, 39605, Note_off_c, 6, 69, 64
8, 39615, Note_off_c, 6, 66, 64
8, 39710, Note_on_c, 6, 62, 70
8, 39710, Note_on_c, 6, 66, 70
8, 39710, Note_on_c, 6, 69, 70
8, 39975, Note_off_c, 6, 62, 64
8, 39980, Note_off_c, 6, 69, 64
8, 40015, Note_off_c, 6, 66, 64
8, 40070, Note_on_c, 6, 60, 70
8, 40070, Note_on_c, 6, 64, 70
8, 40070, Note_on_c, 6, 67, 70
8, 40365, Note_off_c, 6, 60, 64
8, 40425, Note_off_c, 6, 67, 64
8, 40445, Note_off_c, 6, 64, 64
8, 40550, Note_on_c, 6, 60, 70
8, 40550, Note_on_c, 6, 64, 70
8, 40550, Note_on_c, 6, 67, 70
8, 40595, Note_off_c, 6, 67, 64
8, 40600, Note_off_c, 6, 64, 64
8, 40600, Note_off_c, 6, 60, 64
8, 40670, Note_on_c, 6, 60, 70
8, 40670, Note_on_c, 6, 64, 70
8, 40670, Note_on_c, 6, 67, 70
8, 40750, Note_off_c, 6, 60, 64
8, 40755, Note_off_c, 6, 64, 64
8, 40765, Note_off_c, 6, 67, 64
8, 41270, Note_on_c, 6, 60, 70
8, 41270, Note_on_c, 6, 64, 70
8, 41270, Note_on_c, 6, 67, 70
8, 41515, Note_off_c, 6, 60, 64
8, 41550, Note_off_c, 6, 64, 64
8, 41555, Note_off_c, 6, 67, 64
8, 41750, Note_on_c, 6, 60, 70
8, 41750, Note_on_c, 6, 64, 70
8, 41750, Note_on_c, 6, 67, 70
8, 41975, Note_off_c, 6, 64, 64
8, 41975, Note_off_c, 6, 60, 64
8, 41980, Note_off_c, 6, 67, 64
8, 42230, Note_on_c, 6, 52, 70
8, 42435, Note_off_c, 6, 52, 64
8, 42470, Note_on_c, 6, 62, 70
8, 42470, Note_on_c, 6, 67, 70
8, 42470, Note_on_c, 6, 71, 70
8, 42505, Note_off_c, 6, 67, 64
8, 42515, Note_off_c, 6, 71, 64
8, 42520, Note_off_c, 6, 62, 64
8, 42590, Note_on_c, 6, 62, 70
8, 42590, Note_on_c, 6, 67, 70
8, 42590, Note_on_c, 6, 71, 70
8, 42655, Note_off_c, 6, 67, 64
8, 42655, Note_off_c, 6, 62, 64
8, 42660, Note_off_c, 6, 71, 64
8, 42950, Note_on_c, 6, 62, 70
8, 42950, Note_on_c, 6, 67, 70
8, 42950, Note_on_c, 6, 71, 70
8, 43010, Note_off_c, 6, 67, 64
8, 43010, Note_off_c, 6, 62, 64
8, 43020, Note_off_c, 6, 71, 64
8, 43190, Note_on_c, 6, 62, 70
8, 43190, Note_on_c, 6, 66, 70
8, 43190, Note_on_c, 6, 69, 70
8, 43460, Note_off_c, 6, 62, 64
8, 43475, Note_off_c, 6, 66, 64
8, 43480, Note_off_c, 6, 69, 64
8, 43550, Note_on_c, 6, 62, 70
8, 43550, Note_on_c, 6, 66, 70
8, 43550, Note_on_c, 6, 69, 70
8, 43790, Note_off_c, 6, 69, 64
8, 43805, Note_off_c, 6, 62, 64
8, 43850, Note_off_c, 6, 66, 64
8, 43910, Note_on_c, 6, 60, 70
8, 43910, Note_on_c, 6, 64, 70
8, 43910, Note_on_c, 6, 67, 70
8, 44210, Note_off_c, 6, 60, 64
8, 44250, Note_off_c, 6, 67, 64
8, 44260, Note_off_c, 6, 64, 64
8, 44390, Note_on_c, 6, 60, 70
8, 44390, Note_on_c, 6, 64, 70
8, 44390, Note_on_c, 6, 67, 70
8, 44430, Note_off_c, 6, 64, 64
8, 44435, Note_off_c, 6, 60, 64
8, 44440, Note_off_c, 6, 67, 64
8, 44510, Note_on_c, 6, 60, 70
8, 44510, Note_on_c, 6, 64, 70
8, 44510, Note_on_c, 6, 67, 70
8, 44590, Note_off_c, 6, 60, 64
8, 44595, Note_off_c, 6, 64, 64
8, 44595, Note_off_c, 6, 67, 64
8, 45110, Note_on_c, 6, 60, 70
8, 45110, Note_on_c, 6, 64, 70
8, 45110, Note_on_c, 6, 67, 70
8, 45245, Note_off_c, 6, 60, 64
8, 45260, Note_off_c, 6, 67, 64
8, 45275, Note_off_c, 6, 64, 64
8, 45590, Note_on_c, 6, 57, 70
8, 45590, Note_on_c, 6, 62, 70
8, 45590, Note_on_c, 6, 66, 70
8, 45935, Note_off_c, 6, 57, 64
8, 45965, Note_off_c, 6, 66, 64
8, 45990, Note_off_c, 6, 62, 64
8, 46070, Note_on_c, 6, 52, 70
8, 46310, Note_on_c, 6, 62, 70
8, 46310, Note_on_c, 6, 67, 70
8, 46310, Note_on_c, 6, 71, 70
8, 46325, Note_off_c, 6, 52, 64
8, 46340, Note_off_c, 6, 67, 64
8, 46350, Note_off_c, 6, 71, 64
8, 46360, Note_off_c, 6, 62, 64
8, 46430, Note_on_c, 6, 62, 70
8, 46430, Note_on_c, 6, 67, 70
8, 46430, Note_on_c, 6, 71, 70
8, 46475, Note_off_c, 6, 62, 64
8, 46490, Note_off_c, 6, 67, 64
8, 46500, Note_off_c, 6, 71, 64
8, 46790, Note_on_c, 6, 62, 70
8, 46790, Note_on_c, 6, 67, 70
8, 46790, Note_on_c, 6, 71, 70
8, 46840, Note_off_c, 6, 67, 64
8, 46840, Note_off_c, 6, 62, 64
8, 46845, Note_off_c, 6, 71, 64
8, 47030, Note_on_c, 6, 62, 70
8, 47030, Note_on_c, 6, 66, 70
8, 47030, Note_on_c, 6, 69, 70
8, 47275, Note_off_c, 6, 62, 64
8, 47295, Note_off_c, 6, 69, 64
8, 47300, Note_off_c, 6, 66, 64
8, 47390, Note_on_c, 6, 62, 70
8, 47390, Note_on_c, 6, 66, 70
8, 47390, Note_on_c, 6, 69, 70
8, 47625, Note_off_c, 6, 69, 64
8, 47640, Note_off_c, 6, 62, 64
8, 47695, Note_off_c, 6, 66, 64
8, 47750, Note_on_c, 6, 60, 70
8, 47750, Note_on_c, 6, 64, 70
8, 47750, Note_on_c, 6, 67, 70
8, 48085, Note_off_c, 6, 60, 64
8, 48110, Note_off_c, 6, 67, 64
8, 48130, Note_off_c, 6, 64, 64
8, 48230, Note_on_c, 6, 60, 70
8, 48230, Note_on_c, 6, 64, 70
8, 48230, Note_on_c, 6, 67, 70
8, 48270, Note_off_c, 6, 64, 64
8, 48280, Note_off_c, 6, 67, 64
8, 48285, Note_off_c, 6, 60, 64
8, 48350, Note_on_c, 6, 60, 70
8, 48350, Note_on_c, 6, 64, 70
8, 48350, Note_on_c, 6, 67, 70
8, 48420, Note_off_c, 6, 60, 64
8, 48425, Note_off_c, 6, 67, 64
8, 48435, Note_off_c, 6, 64, 64
8, 48950, Note_on_c, 6, 60, 70
8, 48950, Note_on_c, 6, 64, 70
8, 48950, Note_on_c, 6, 67, 70
8, 48950, Note_on_c, 6, 76, 90
8, 48950, Note_on_c, 6, 79, 90
8, 49100, Pitch_bend_c, 6, 8517
8, 49120, Note_off_c, 6, 79, 64
8, 49130, Pitch_bend_c, 6, 16383
8, 49140, Note_off_c, 6, 76, 64
8, 49185, Note_off_c, 6, 60, 64
8, 49230, Note_off_c, 6, 67, 64
8, 49235, Note_off_c, 6, 64, 64
8, 49235, Pitch_bend_c, 6, 15082
8, 49270, Pitch_bend_c, 6, 9622
8, 49290, Pitch_bend_c, 6, 8192
8, 49430, Note_on_c, 6, 60, 70
8, 49430, Note_on_c, 6, 64, 90
8, 49430, Note_on_c, 6, 67, 90
8, 49530, Pitch_bend_c, 6, 11182
8, 49550, Pitch_bend_c, 6, 15082
8, 49575, Pitch_bend_c, 6, 16317
8, 49600, Pitch_bend_c, 6, 16383
8, 49640, Note_off_c, 6, 60, 64
8, 49645, Note_off_c, 6, 64, 64
8, 49650, Note_off_c, 6, 67, 64
8, 49695, Pitch_bend_c, 6, 14757
8, 49715, Pitch_bend_c, 6, 12417
8, 49750, Pitch_bend_c, 6, 8192
8, 49910, Note_on_c, 6, 52, 70
8, 50135, Note_off_c, 6, 52, 64
8, 50150, Note_on_c, 6, 62, 70
8, 50150, Note_on_c, 6, 67, 70
8, 50150, Note_on_c, 6, 71, 70
8, 50195, Note_off_c, 6, 67, 64
8, 50205, Note_off_c, 6, 62, 64
8, 50205, Note_off_c, 6, 71, 64
8, 50270, Note_on_c, 6, 62, 70
8, 50270, Note_on_c, 6, 67, 70
8, 50270, Note_on_c, 6, 71, 70
8, 50325, Note_off_c, 6, 62, 64
8, 50335, Note_off_c, 6, 67, 64
8, 50340, Note_off_c, 6, 71, 64
8, 50630, Note_on_c, 6, 62, 70
8, 50630, Note_on_c, 6, 67, 70
8, 50630, Note_on_c, 6, 71, 70
8, 50685, Note_off_c, 6, 62, 64
8, 50690, Note_off_c, 6, 67, 64
8, 50700, Note_off_c, 6, 71, 64
8, 50870, Note_on_c, 6, 62, 70
8, 50870, Note_on_c, 6, 66, 70
8, 50870, Note_on_c, 6, 69, 70
8, 51130, Note_off_c, 6, 62, 64
8, 51145, Note_off_c, 6, 69, 64
8, 51155, Note_off_c, 6, 66, 64
8, 51230, Note_on_c, 6, 62, 70
8, 51230, Note_on_c, 6, 66, 70
8, 51230, Note_on_c, 6, 69, 70
8, 51470, Note_off_c, 6, 69, 64
8, 51485, Note_off_c, 6, 62, 64
8, 51525, Note_off_c, 6, 66, 64
8, 51590, Note_on_c, 6, 60, 70
8, 51590, Note_on_c, 6, 64, 70
8, 51590, Note_on_c, 6, 67, 70
8, 51910, Note_off_c, 6, 60, 64
8, 51960, Note_off_c, 6, 67, 64
8, 51970, Note_off_c, 6, 64, 64
8, 52070, Note_on_c, 6, 60, 70
8, 52070, Note_on_c, 6, 64, 70
8, 52070, Note_on_c, 6, 67, 70
8, 52105, Note_off_c, 6, 64, 64
8, 52115, Note_off_c, 6, 67, 64
8, 52120, Note_off_c, 6, 60, 64
8, 52190, Note_on_c, 6, 60, 70
8, 52190, Note_on_c, 6, 64, 70
8, 52190, Note_on_c, 6, 67, 70
8, 52255, Note_off_c, 6, 60, 64
8, 52270, Note_off_c, 6, 64, 64
8, 52270, Note_off_c, 6, 67, 64
8, 52790, Note_on_c, 6, 60, 70
8, 52790, Note_on_c, 6, 64, 70
8, 52790, Note_on_c, 6, 67, 70
8, 52930, Note_off_c, 6, 60, 64
8, 52950, Note_off_c, 6, 67, 64
8, 52955, Note_off_c, 6, 64, 64
8, 53270, Note_on_c, 6, 57, 70
8, 53270, Note_on_c, 6, 62, 70
8, 53270, Note_on_c, 6, 66, 70
8, 53445, Note_off_c, 6, 57, 64
8, 53470, Note_off_c, 6, 62, 64
8, 53480, Note_off_c, 6, 66, 64
8, 53750, Note_on_c, 6, 52, 70
8, 53960, Note_off_c, 6, 52, 64
8, 53990, Note_on_c, 6, 62, 70
8, 53990, Note_on_c, 6, 67, 70
8, 53990, Note_on_c, 6, 71, 70
8, 54040, Note_off_c, 6, 67, 64
8, 54050, Note_off_c, 6, 71, 64
8, 54055, Note_off_c, 6, 62, 64
8, 54110, Note_on_c, 6, 62, 70
8, 54110, Note_on_c, 6, 67, 70
8, 54110, Note_on_c, 6, 71, 70
8, 54185, Note_off_c, 6, 71, 64
8, 54185, Note_off_c, 6, 62, 64
8, 54190, Note_off_c, 6, 67, 64
8, 54470, Note_on_c, 6, 62, 70
8, 54470, Note_on_c, 6, 67, 70
8, 54470, Note_on_c, 6, 71, 70
8, 54530, Note_off_c, 6, 67, 64
8, 54530, Note_off_c, 6, 62, 64
8, 54535, Note_off_c, 6, 71, 64
8, 54710, Note_on_c, 6, 62, 70
8, 54710, Note_on_c, 6, 66, 70
8, 54710, Note_on_c, 6, 69, 70
8, 54940, Note_off_c, 6, 62, 64
8, 54965, Note_off_c, 6, 69, 64
8, 54975, Note_off_c, 6, 66, 64
8, 55070, Note_on_c, 6, 62, 70
8, 55070, Note_on_c, 6, 66, 70
8, 55070, Note_on_c, 6, 69, 70
8, 55335, Note_off_c, 6, 62, 64
8, 55340, Note_off_c, 6, 69, 64
8, 55375, Note_off_c, 6, 66, 64
8, 55430, Note_on_c, 6, 60, 70
8, 55430, Note_on_c, 6, 64, 70
8, 55430, Note_on_c, 6, 67, 70
8, 55725, Note_off_c, 6, 60, 64
8, 55785, Note_off_c, 6, 67, 64
8, 55805, Note_off_c, 6, 64, 64
8, 55910, Note_on_c, 6, 60, 70
8, 55910, Note_on_c, 6, 64, 70
8, 55910, Note_on_c, 6, 67, 70
8, 55955, Note_off_c, 6, 67, 64
8, 55960, Note_off_c, 6, 64, 64
8, 55960, Note_off_c, 6, 60, 64
8, 56030, Note_on_c, 6, 60, 70
8, 56030, Note_on_c, 6, 64, 70
8, 56030, Note_on_c, 6, 67, 70
8, 56110, Note_off_c, 6, 60, 64
8, 56115, Note_off_c, 6, 64, 64
8, 56125, Note_off_c, 6, 67, 64
8, 56630, Note_on_c, 6, 60, 70
8, 56630, Note_on_c, 6, 64, 70
8, 56630, Note_on_c, 6, 67, 70
8, 56795, Note_off_c, 6, 60, 64
8, 56810, Note_off_c, 6, 64, 64
8, 56825, Note_off_c, 6, 67, 64
8, 57110, Note_on_c, 6, 60, 70
8, 57110, Note_on_c, 6, 64, 70
8, 57110, Note_on_c, 6, 67, 70
8, 57300, Note_off_c, 6, 64, 64
8, 57305, Note_off_c, 6, 60, 64
8, 57315, Note_off_c, 6, 67, 64
8, 57590, Note_on_c, 6, 52, 70
8, 57795, Note_off_c, 6, 52, 64
8, 57830, Note_on_c, 6, 62, 70
8, 57830, Note_on_c, 6, 67, 70
8, 57830, Note_on_c, 6, 71, 70
8, 57865, Note_off_c, 6, 67, 64
8, 57875, Note_off_c, 6, 71, 64
8, 57880, Note_off_c, 6, 62, 64
8, 57950, Note_on_c, 6, 62, 70
8, 57950, Note_on_c, 6, 67, 70
8, 57950, Note_on_c, 6, 71, 70
8, 58015, Note_off_c, 6, 67, 64
8, 58015, Note_off_c, 6, 62, 64
8, 58020, Note_off_c, 6, 71, 64
8, 58310, Note_on_c, 6, 62, 70
8, 58310, Note_on_c, 6, 67, 70
8, 58310, Note_on_c, 6, 71, 70
8, 58370, Note_off_c, 6, 67, 64
8, 58370, Note_off_c, 6, 62, 64
8, 58380, Note_off_c, 6, 71, 64
8, 58550, Note_on_c, 6, 62, 70
8, 58550, Note_on_c, 6, 66, 70
8, 58550, Note_on_c, 6, 69, 70
8, 58820, Note_off_c, 6, 62, 64
8, 58835, Note_off_c, 6, 66, 64
8, 58840, Note_off_c, 6, 69, 64
8, 58910, Note_on_c, 6, 62, 70
8, 58910, Note_on_c, 6, 66, 70
8, 58910, Note_on_c, 6, 69, 70
8, 59150, Note_off_c, 6, 69, 64
8, 59165, Note_off_c, 6, 62, 64
8, 59210, Note_off_c, 6, 66, 64
8, 59270, Note_on_c, 6, 60, 70
8, 59270, Note_on_c, 6, 64, 70
8, 59270, Note_on_c, 6, 67, 70
8, 59570, Note_off_c, 6, 60, 64
8, 59610, Note_off_c, 6, 67, 64
8, 59620, Note_off_c, 6, 64, 64
8, 59750, Note_on_c, 6, 60, 70
8, 59750, Note_on_c, 6, 64, 70
8, 59750, Note_on_c, 6, 67, 70
8, 59790, Note_off_c, 6, 64, 64
8, 59795, Note_off_c, 6, 60, 64
8, 59800, Note_off_c, 6, 67, 64
8, 59870, Note_on_c, 6, 60, 70
8, 59870, Note_on_c, 6, 64, 70
8, 59870, Note_on_c, 6, 67, 70
8, 59950, Note_off_c, 6, 60, 64
8, 59955, Note_off_c, 6, 64, 64
8, 59955, Note_off_c, 6, 67, 64
8, 60470, Note_on_c, 6, 60, 70
8, 60470, Note_on_c, 6, 64, 70
8, 60470, Note_on_c, 6, 67, 70
8, 60605, Note_off_c, 6, 60, 64
8, 60620, Note_off_c, 6, 67, 64
8, 60635, Note_off_c, 6, 64, 64
8, 60950, Note_on_c, 6, 57, 70
8, 60950, Note_on_c, 6, 62, 70
8, 60950, Note_on_c, 6, 66, 70
8, 61295, Note_off_c, 6, 57, 64
8, 61325, Note_off_c, 6, 66, 64
8, 61350, Note_off_c, 6, 62, 64
8, 61430, Note_on_c, 6, 52, 70
8, 61670, Note_on_c, 6, 62, 70
8, 61670, Note_on_c, 6, 67, 70
8, 61670, Note_on_c, 6, 71, 70
8, 61685, Note_off_c, 6, 52, 64
8, 61700, Note_off_c, 6, 67, 64
8, 61710, Note_off_c, 6, 71, 64
8, 61720, Note_off_c, 6, 62, 64
8, 61790, Note_on_c, 6, 62, 70
8, 61790, Note_on_c, 6, 67, 70
8, 61790, Note_on_c, 6, 71, 70
8, 61835, Note_off_c, 6, 62, 64
8, 61850, Note_off_c, 6, 67, 64
8, 61860, Note_off_c, 6, 71, 64
8, 62150, Note_on_c, 6, 62, 70
8, 62150, Note_on_c, 6, 67, 70
8, 62150, Note_on_c, 6, 71, 70
8, 62200, Note_off_c, 6, 67, 64
8, 62200, Note_off_c, 6, 62, 64
8, 62205, Note_off_c, 6, 71, 64
8, 62390, Note_on_c, 6, 62, 70
8, 62390, Note_on_c, 6, 66, 70
8, 62390, Note_on_c, 6, 69, 70
8, 62635, Note_off_c, 6, 62, 64
8, 62655, Note_off_c, 6, 69, 64
8, 62660, Note_off_c, 6, 66, 64
8, 62750, Note_on_c, 6, 62, 70
8, 62750, Note_on_c, 6, 66, 70
8, 62750, Note_on_c, 6, 69, 70
8, 62985, Note_off_c, 6, 69, 64
8, 63000, Note_off_c, 6, 62, 64
8, 63055, Note_off_c, 6, 66, 64
8, 63110, Note_on_c, 6, 60, 70
8, 63110, Note_on_c, 6, 64, 70
8, 63110, Note_on_c, 6, 67, 70
8, 63445, Note_off_c, 6, 60, 64
8, 63470, Note_off_c, 6, 67, 64
8, 63490, Note_off_c, 6, 64, 64
8, 63590, Note_on_c, 6, 60, 70
8, 63590, Note_on_c, 6, 64, 70
8, 63590, Note_on_c, 6, 67, 70
8, 63630, Note_off_c, 6, 64, 64
8, 63640, Note_off_c, 6, 67, 64
8, 63645, Note_off_c, 6, 60, 64
8, 63710, Note_on_c, 6, 60, 70
8, 63710, Note_on_c, 6, 64, 70
8, 63710, Note_on_c, 6, 67, 70
8, 63780, Note_off_c, 6, 60, 64
8, 63785, Note_off_c, 6, 67, 64
8, 63795, Note_off_c, 6, 64, 64
8, 64310, Note_on_c, 6, 60, 70
8, 64310, Note_on_c, 6, 64, 70
8, 64310, Note_on_c, 6, 67, 70
8, 64545, Note_off_c, 6, 60, 64
8, 64590, Note_off_c, 6, 67, 64
8, 64595, Note_off_c, 6, 64, 64
8, 64790, Note_on_c, 6, 60, 70
8, 64790, Note_on_c, 6, 64, 70
8, 64790, Note_on_c, 6, 67, 70
8, 65000, Note_off_c, 6, 60, 64
8, 65035, Note_off_c, 6, 67, 64
8, 65045, Note_off_c, 6, 64, 64
8, 65270, Note_on_c, 6, 52, 70
8, 65495, Note_off_c, 6, 52, 64
8, 65510, Note_on_c, 6, 62, 70
8, 65510, Note_on_c, 6, 67, 70
8, 65510, Note_on_c, 6, 71, 70
8, 65555, Note_off_c, 6, 67, 64
8, 65565, Note_off_c, 6, 62, 64
8, 65565, Note_off_c, 6, 71, 64
8, 65630, Note_on_c, 6, 62, 70
8, 65630, Note_on_c, 6, 67, 70
8, 65630, Note_on_c, 6, 71, 70
8, 65685, Note_off_c, 6, 62, 64
8, 65695, Note_off_c, 6, 67, 64
8, 65700, Note_off_c, 6, 71, 64
8, 65990, Note_on_c, 6, 62, 70
8, 65990, Note_on_c, 6, 67, 70
8, 65990, Note_on_c, 6, 71, 70
8, 66045, Note_off_c, 6, 62, 64
8, 66050, Note_off_c, 6, 67, 64
8, 66060, Note_off_c, 6, 71, 64
8, 66230, Note_on_c, 6, 62, 70
8, 66230, Note_on_c, 6, 66, 70
8, 66230, Note_on_c, 6, 69, 70
8, 66490, Note_off_c, 6, 62, 64
8, 66505, Note_off_c, 6, 69, 64
8, 66515, Note_off_c, 6, 66, 64
8, 66590, Note_on_c, 6, 62, 70
8, 66590, Note_on_c, 6, 66, 70
8, 66590, Note_on_c, 6, 69, 70
8, 66830, Note_off_c, 6, 69, 64
8, 66845, Note_off_c, 6, 62, 64
8, 66885, Note_off_c, 6, 66, 64
8, 66950, Note_on_c, 6, 60, 70
8, 66950, Note_on_c, 6, 64, 70
8, 66950, Note_on_c, 6, 67, 70
8, 67270, Note_off_c, 6, 60, 64
8, 67320, Note_off_c, 6, 67, 64
8, 67330, Note_off_c, 6, 64, 64
8, 67430, Note_on_c, 6, 60, 70
8, 67430, Note_on_c, 6, 64, 70
8, 67430, Note_on_c, 6, 67, 70
8, 67465, Note_off_c, 6, 64, 64
8, 67475, Note_off_c, 6, 67, 64
8, 67480, Note_off_c, 6, 60, 64
8, 67550, Note_on_c, 6, 60, 70
8, 67550, Note_on_c, 6, 64, 70
8, 67550, Note_on_c, 6, 67, 70
8, 67615, Note_off_c, 6, 60, 64
8, 67630, Note_off_c, 6, 64, 64
8, 67630, Note_off_c, 6, 67, 64
8, 68150, Note_on_c, 6, 60, 70
8, 68150, Note_on_c, 6, 64, 70
8, 68150, Note_on_c, 6, 67, 70
8, 68290, Note_off_c, 6, 60, 64
8, 68310, Note_off_c, 6, 67, 64
8, 68315, Note_off_c, 6, 64, 64
8, 68630, Note_on_c, 6, 57, 70
8, 68630, Note_on_c, 6, 62, 70
8, 68630, Note_on_c, 6, 66, 70
8, 68805, Note_off_c, 6, 57, 64
8, 68830, Note_off_c, 6, 62, 64
8, 68840, Note_off_c, 6, 66, 64
8, 69110, Note_on_c, 6, 52, 70
8, 69320, Note_off_c, 6, 52, 64
8, 69350, Note_on_c, 6, 62, 70
8, 69350, Note_on_c, 6, 67, 70
8, 69350, Note_on_c, 6, 71, 70
8, 69400, Note_off_c, 6, 67, 64
8, 69410, Note_off_c, 6, 71, 64
8, 69415, Note_off_c, 6, 62, 64
8, 69470, Note_on_c, 6, 62, 70
8, 69470, Note_on_c, 6, 67, 70
8, 69470, Note_on_c, 6, 71, 70
8, 69545, Note_off_c, 6, 71, 64
8, 69545, Note_off_c, 6, 62, 64
8, 69550, Note_off_c, 6, 67, 64
8, 69830, Note_on_c, 6, 62, 70
8, 69830, Note_on_c, 6, 67, 70
8, 69830, Note_on_c, 6, 71, 70
8, 69890, Note_off_c, 6, 67, 64
8, 69890, Note_off_c, 6, 62, 64
8, 69895, Note_off_c, 6, 71, 64
8, 70070, Note_on_c, 6, 62, 70
8, 70070, Note_on_c, 6, 66, 70
8, 70070, Note_on_c, 6, 69, 70
8, 70300, Note_off_c, 6, 62, 64
8, 70325, Note_off_c, 6, 69, 64
8, 70335, Note_off_c, 6, 66, 64
8, 70430, Note_on_c, 6, 62, 70
8, 70430, Note_on_c, 6, 66, 70
8, 70430, Note_on_c, 6, 69, 70
8, 70695, Note_off_c, 6, 62, 64
8, 70700, Note_off_c, 6, 69, 64
8, 70735, Note_off_c, 6, 66, 64
8, 70790, Note_on_c, 6, 60, 70
8, 70790, Note_on_c, 6, 64, 70
8, 70790, Note_on_c, 6, 67, 70
8, 71085, Note_off_c, 6, 60, 64
8, 71145, Note_off_c, 6, 67, 64
8, 71165, Note_off_c, 6, 64, 64
8, 71270, Note_on_c, 6, 60, 70
8, 71270, Note_on_c, 6, 64, 70
8, 71270, Note_on_c, 6, 67, 70
8, 71315, Note_off_c, 6, 67, 64
8, 71320, Note_off_c, 6, 64, 64
8, 71320, Note_off_c, 6, 60, 64
8, 71390, Note_on_c, 6, 60, 70
8, 71390, Note_on_c, 6, 64, 70
8, 71390, Note_on_c, 6, 67, 70
8, 71470, Note_off_c, 6, 60, 64
8, 71475, Note_off_c, 6, 64, 64
8, 71485, Note_off_c, 6, 67, 64
8, 71990, Note_on_c, 6, 60, 70
8, 71990, Note_on_c, 6, 64, 70
8, 71990, Note_on_c, 6, 67, 70
8, 71990, Note_on_c, 6, 76, 90
8, 71990, Note_on_c, 6, 79, 90
8, 72140, Pitch_bend_c, 6, 16317
8, 72155, Note_off_c, 6, 60, 64
8, 72165, Pitch_bend_c, 6, 16383
8, 72170, Note_off_c, 6, 64, 64
8, 72185, Note_off_c, 6, 67, 64
8, 72185, Note_off_c, 6, 79, 64
8, 72195, Note_off_c, 6, 76, 64
8, 72225, Pitch_bend_c, 6, 15732
8, 72260, Pitch_bend_c, 6, 10727
8, 72280, Pitch_bend_c, 6, 7810
8, 72300, Pitch_bend_c, 6, 8192
8, 72470, Note_on_c, 6, 60, 70
8, 72470, Note_on_c, 6, 64, 90
8, 72470, Note_on_c, 6, 67, 90
8, 72610, Pitch_bend_c, 6, 16317
8, 72630, Note_off_c, 6, 64, 64
8, 72635, Pitch_bend_c, 6, 16383
8, 72655, Note_off_c, 6, 67, 64
8, 72665, Note_off_c, 6, 60, 64
8, 72750, Pitch_bend_c, 6, 15602
8, 72785, Pitch_bend_c, 6, 8192
8, 72950, Note_on_c, 6, 52, 70
8, 73155, Note_off_c, 6, 52, 64
8, 73190, Note_on_c, 6, 62, 70
8, 73190, Note_on_c, 6, 67, 70
8, 73190, Note_on_c, 6, 71, 70
8, 73225, Note_off_c, 6, 67, 64
8, 73235, Note_off_c, 6, 71, 64
8, 73240, Note_off_c, 6, 62, 64
8, 73310, Note_on_c, 6, 62, 70
8, 73310, Note_on_c, 6, 67, 70
8, 73310, Note_on_c, 6, 71, 70
8, 73375, Note_off_c, 6, 67, 64
8, 73375, Note_off_c, 6, 62, 64
8, 73380, Note_off_c, 6, 71, 64
8, 73670, Note_on_c, 6, 62, 70
8, 73670, Note_on_c, 6, 67, 70
8, 73670, Note_on_c, 6, 71, 70
8, 73730, Note_off_c, 6, 67, 64
8, 73730, Note_off_c, 6, 62, 64
8, 73740, Note_off_c, 6, 71, 64
8, 73910, Note_on_c, 6, 62, 70
8, 73910, Note_on_c, 6, 66, 70
8, 73910, Note_on_c, 6, 69, 70
8, 74180, Note_off_c, 6, 62, 64
8, 74195, Note_off_c, 6, 66, 64
8, 74200, Note_off_c, 6, 69, 64
8, 74270, Note_on_c, 6, 62, 70
8, 74270, Note_on_c, 6, 66, 70
8, 74270, Note_on_c, 6, 69, 70
8, 74510, Note_off_c, 6, 69, 64
8, 74525, Note_off_c, 6, 62, 64
8, 74570, Note_off_c, 6, 66, 64
8, 74630, Note_on_c, 6, 60, 70
8, 74630, Note_on_c, 6, 64, 70
8, 74630, Note_on_c, 6, 67, 70
8, 74930, Note_off_c, 6, 60, 64
8, 74970, Note_off_c, 6, 67, 64
8, 74980, Note_off_c, 6, 64, 64
8, 75110, Note_on_c, 6, 60, 70
8, 75110, Note_on_c, 6, 64, 70
8, 75110, Note_on_c, 6, 67, 70
8, 75150, Note_off_c, 6, 64, 64
8, 75155, Note_off_c, 6, 60, 64
8, 75160, Note_off_c, 6, 67, 64
8, 75230, Note_on_c, 6, 60, 70
8, 75230, Note_on_c, 6, 64, 70
8, 75230, Note_on_c, 6, 67, 70
8, 75310, Note_off_c, 6, 60, 64
8, 75315, Note_off_c, 6, 64, 64
8, 75315, Note_off_c, 6, 67, 64
8, 75830, Note_on_c, 6, 60, 70
8, 75830, Note_on_c, 6, 64, 70
8, 75830, Note_on_c, 6, 67, 70
8, 75965, Note_off_c, 6, 60, 64
8, 75980, Note_off_c, 6, 67, 64
8, 75995, Note_off_c, 6, 64, 64
8, 76310, Note_on_c, 6, 57, 70
8, 76310, Note_on_c, 6, 62, 70
8, 76310, Note_on_c, 6, 66, 70
8, 76655, Note_off_c, 6, 57, 64
8, 76685, Note_off_c, 6, 66, 64
8, 76710, Note_off_c, 6, 62, 64
8, 76790, Note_on_c, 6, 52, 70
8, 77030, Note_on_c, 6, 62, 70
8, 77030, Note_on_c, 6, 67, 70
8, 77030, Note_on_c, 6, 71, 70
8, 77045, Note_off_c, 6, 52, 64
8, 77060, Note_off_c, 6, 67, 64
8, 77070, Note_off_c, 6, 71, 64
8, 77080, Note_off_c, 6, 62, 64
8, 77150, Note_on_c, 6, 62, 70
8, 77150, Note_on_c, 6, 67, 70
8, 77150, Note_on_c, 6, 71, 70
8, 77195, Note_off_c, 6, 62, 64
8, 77210, Note_off_c, 6, 67, 64
8, 77220, Note_off_c, 6, 71, 64
8, 77510, Note_on_c, 6, 62, 70
8, 77510, Note_on_c, 6, 67, 70
8, 77510, Note_on_c, 6, 71, 70
8, 77560, Note_off_c, 6, 67, 64
8, 77560, Note_off_c, 6, 62, 64
8, 77565, Note_off_c, 6, 71, 64
8, 77750, Note_on_c, 6, 62, 70
8, 77750, Note_on_c, 6, 66, 70
8, 77750, Note_on_c, 6, 69, 70
8, 77995, Note_off_c, 6, 62, 64
8, 78015, Note_off_c, 6, 69, 64
8, 78020, Note_off_c, 6, 66, 64
8, 78110, Note_on_c, 6, 62, 70
8, 78110, Note_on_c, 6, 66, 70
8, 78110, Note_on_c, 6, 69, 70
8, 78345, Note_off_c, 6, 69, 64
8, 78360, Note_off_c, 6, 62, 64
8, 78415, Note_off_c, 6, 66, 64
8, 78470, Note_on_c, 6, 60, 70
8, 78470, Note_on_c, 6, 64, 70
8, 78470, Note_on_c, 6, 67, 70
8, 78805, Note_off_c, 6, 60, 64
8, 78830, Note_off_c, 6, 67, 64
8, 78850, Note_off_c, 6, 64, 64
8, 78950, Note_on_c, 6, 60, 70
8, 78950, Note_on_c, 6, 64, 70
8, 78950, Note_on_c, 6, 67, 70
8, 78990, Note_off_c, 6, 64, 64
8, 79000, Note_off_c, 6, 67, 64
8, 79005, Note_off_c, 6, 60, 64
8, 79070, Note_on_c, 6, 60, 70
8, 79070, Note_on_c, 6, 64, 70
8, 79070, Note_on_c, 6, 67, 70
8, 79140, Note_off_c, 6, 60, 64
8, 79145, Note_off_c, 6, 67, 64
8, 79155, Note_off_c, 6, 64, 64
8, 79670, Note_on_c, 6, 60, 70
8, 79670, Note_on_c, 6, 64, 70
8, 79670, Note_on_c, 6, 67, 70
8, 79905, Note_off_c, 6, 60, 64
8, 79950, Note_off_c, 6, 67, 64
8, 79955, Note_off_c, 6, 64, 64
8, 80150, Note_on_c, 6, 60, 70
8, 80150, Note_on_c, 6, 64, 70
8, 80150, Note_on_c, 6, 67, 70
8, 80360, Note_off_c, 6, 60, 64
8, 80395, Note_off_c, 6, 67, 64
8, 80405, Note_off_c, 6, 64, 64
8, 80630, Note_on_c, 6, 52, 70
8, 80855, Note_off_c, 6, 52, 64
8, 80870, Note_on_c, 6, 62, 70
8, 80870, Note_on_c, 6, 67, 70
8, 80870, Note_on_c, 6, 71, 70
8, 80915, Note_off_c, 6, 67, 64
8, 80925, Note_off_c, 6, 62, 64
8, 80925, Note_off_c, 6, 71, 64
8, 80990, Note_on_c, 6, 62, 70
8, 80990, Note_on_c, 6, 67, 70
8, 80990, Note_on_c, 6, 71, 70
8, 81045, Note_off_c, 6, 62, 64
8, 81055, Note_off_c, 6, 67, 64
8, 81060, Note_off_c, 6, 71, 64
8, 81350, Note_on_c, 6, 62, 70
8, 81350, Note_on_c, 6, 67, 70
8, 81350, Note_on_c, 6, 71, 70
8, 81405, Note_off_c, 6, 62, 64
8, 81410, Note_off_c, 6, 67, 64
8, 81420, Note_off_c, 6, 71, 64
8, 81590, Note_on_c, 6, 62, 70
8, 81590, Note_on_c, 6, 66, 70
8, 81590, Note_on_c, 6, 69, 70
8, 81850, Note_off_c, 6, 62, 64
8, 81865, Note_off_c, 6, 69, 64
8, 81875, Note_off_c, 6, 66, 64
8, 81950, Note_on_c, 6, 62, 70
8, 81950, Note_on_c, 6, 66, 70
8, 81950, Note_on_c, 6, 69, 70
8, 82190, Note_off_c, 6, 69, 64
8, 82205, Note_off_c, 6, 62, 64
8, 82245, Note_off_c, 6, 66, 64
8, 82310, Note_on_c, 6, 60, 70
8, 82310, Note_on_c, 6, 64, 70
8, 82310, Note_on_c, 6, 67, 70
8, 82630, Note_off_c, 6, 60, 64
8, 82680, Note_off_c, 6, 67, 64
8, 82690, Note_off_c, 6, 64, 64
8, 82790, Note_on_c, 6, 60, 70
8, 82790, Note_on_c, 6, 64, 70
8, 82790, Note_on_c, 6, 67, 70
8, 82825, Note_off_c, 6, 64, 64
8, 82835, Note_off_c, 6, 67, 64
8, 82840, Note_off_c, 6, 60, 64
8, 82910, Note_on_c, 6, 60, 70
8, 82910, Note_on_c, 6, 64, 70
8, 82910, Note_on_c, 6, 67, 70
8, 82975, Note_off_c, 6, 60, 64
8, 82990, Note_off_c, 6, 64, 64
8, 82990, Note_off_c, 6, 67, 64
8, 83510, Note_on_c, 6, 60, 70
8, 83510, Note_on_c, 6, 64, 70
8, 83510, Note_on_c, 6, 67, 70
8, 83650, Note_off_c, 6, 60, 64
8, 83670, Note_off_c, 6, 67, 64
8, 83675, Note_off_c, 6, 64, 64
8, 83990, Note_on_c, 6, 57, 70
8, 83990, Note_on_c, 6, 62, 70
8, 83990, Note_on_c, 6, 66, 70
8, 84165, Note_off_c, 6, 57, 64
8, 84190, Note_off_c, 6, 62, 64
8, 84200, Note_off_c, 6, 66, 64
8, 84470, Note_on_c, 6, 52, 70
8, 84680, Note_off_c, 6, 52, 64
8, 84710, Note_on_c, 6, 62, 70
8, 84710, Note_on_c, 6, 67, 70
8, 84710, Note_on_c, 6, 71, 70
8, 84760, Note_off_c, 6, 67, 64
8, 84770, Note_off_c, 6, 71, 64
8, 84775, Note_off_c, 6, 62, 64
8, 84830, Note_on_c, 6, 62, 70
8, 84830, Note_on_c, 6, 67, 70
8, 84830, Note_on_c, 6, 71, 70
8, 84905, Note_off_c, 6, 71, 64
8, 84905, Note_off_c, 6, 62, 64
8, 84910, Note_off_c, 6, 67, 64
8, 85190, Note_on_c, 6, 62, 70
8, 85190, Note_on_c, 6, 67, 70
8, 85190, Note_on_c, 6, 71, 70
8, 85250, Note_off_c, 6, 67, 64
8, 85250, Note_off_c, 6, 62, 64
8, 85255, Note_off_c, 6, 71, 64
8, 85430, Note_on_c, 6, 62, 70
8, 85430, Note_on_c, 6, 66, 70
8, 85430, Note_on_c, 6, 69, 70
8, 85660, Note_off_c, 6, 62, 64
8, 85685, Note_off_c, 6, 69, 64
8, 85695, Note_off_c, 6, 66, 64
8, 85790, Note_on_c, 6, 62, 70
8, 85790, Note_on_c, 6, 66, 70
8, 85790, Note_on_c, 6, 69, 70
8, 86055, Note_off_c, 6, 62, 64
8, 86060, Note_off_c, 6, 69, 64
8, 86095, Note_off_c, 6, 66, 64
8, 86150, Note_on_c, 6, 60, 70
8, 86150, Note_on_c, 6, 64, 70
8, 86150, Note_on_c, 6, 67, 70
8, 86445, Note_off_c, 6, 60, 64
8, 86505, Note_off_c, 6, 67, 64
8, 86525, Note_off_c, 6, 64, 64
8, 86630, Note_on_c, 6, 60, 70
8, 86630, Note_on_c, 6, 64, 70
8, 86630, Note_on_c, 6, 67, 70
8, 86675, Note_off_c, 6, 67, 64
8, 86680, Note_off_c, 6, 64, 64
8, 86680, Note_off_c, 6, 60, 64
8, 86750, Note_on_c, 6, 60, 70
8, 86750, Note_on_c, 6, 64, 70
8, 86750, Note_on_c, 6, 67, 70
8, 86830, Note_off_c, 6, 60, 64
8, 86835, Note_off_c, 6, 64, 64
8, 86845, Note_off_c, 6, 67, 64
8, 87350, Note_on_c, 6, 60, 70
8, 87350, Note_on_c, 6, 64, 70
8, 87350, Note_on_c, 6, 67, 70
8, 87350, Note_on_c, 6, 76, 90
8, 87350, Note_on_c, 6, 79, 90
8, 87450, Pitch_bend_c, 6, 9232
8, 87475, Pitch_bend_c, 6, 14237
8, 87500, Pitch_bend_c, 6, 16383
8, 87515, Note_off_c, 6, 60, 64
8, 87530, Note_off_c, 6, 64, 64
8, 87545, Note_off_c, 6, 67, 64
8, 87555, Note_off_c, 6, 79, 64
8, 87570, Note_off_c, 6, 76, 64
8, 87590, Pitch_bend_c, 6, 15732
8, 87625, Pitch_bend_c, 6, 8907
8, 87645, Pitch_bend_c, 6, 8192
8, 87830, Note_on_c, 6, 60, 70
8, 87830, Note_on_c, 6, 64, 90
8, 87830, Note_on_c, 6, 67, 90
8, 87990, Note_off_c, 6, 64, 64
8, 88005, Note_off_c, 6, 67, 64
8, 88005, Pitch_bend_c, 6, 16317
8, 88025, Note_off_c, 6, 60, 64
8, 88035, Pitch_bend_c, 6, 16383
8, 88100, Pitch_bend_c, 6, 16057
8, 88135, Pitch_bend_c, 6, 13067
8, 88170, Pitch_bend_c, 6, 8192
8, 88310, Note_on_c, 6, 52, 70
8, 88515, Note_off_c, 6, 52, 64
8, 88550, Note_on_c, 6, 62, 70
8, 88550, Note_on_c, 6, 67, 70
8, 88550, Note_on_c, 6, 71, 70
8, 88585, Note_off_c, 6, 67, 64
8, 88595, Note_off_c, 6, 71, 64
8, 88600, Note_off_c, 6, 62, 64
8, 88670, Note_on_c, 6, 62, 70
8, 88670, Note_on_c, 6, 67, 70
8, 88670, Note_on_c, 6, 71, 70
8, 88735, Note_off_c, 6, 67, 64
8, 88735, Note_off_c, 6, 62, 64
8, 88740, Note_off_c, 6, 71, 64
8, 89030, Note_on_c, 6, 62, 70
8, 89030, Note_on_c, 6, 67, 70
8, 89030, Note_on_c, 6, 71, 70
8, 89090, Note_off_c, 6, 67, 64
8, 89090, Note_off_c, 6, 62, 64
8, 89100, Note_off_c, 6, 71, 64
8, 89270, Note_on_c, 6, 62, 70
8, 89270, Note_on_c, 6, 66, 70
8, 89270, Note_on_c, 6, 69, 70
8, 89540, Note_off_c, 6, 62, 64
8, 89555, Note_off_c, 6, 66, 64
8, 89560, Note_off_c, 6, 69, 64
8, 89630, Note_on_c, 6, 62, 70
8, 89630, Note_on_c, 6, 66, 70
8, 89630, Note_on_c, 6, 69, 70
8, 89870, Note_off_c, 6, 69, 64
8, 89885, Note_off_c, 6, 62, 64
8, 89930, Note_off_c, 6, 66, 64
8, 89990, Note_on_c, 6, 60, 70
8, 89990, Note_on_c, 6, 64, 70
8, 89990, Note_on_c, 6, 67, 70
8, 90290, Note_off_c, 6, 60, 64
8, 90330, Note_off_c, 6, 67, 64
8, 90340, Note_off_c, 6, 64, 64
8, 90470, Note_on_c, 6, 60, 70
8, 90470, Note_on_c, 6, 64, 70
8, 90470, Note_on_c, 6, 67, 70
8, 90510, Note_off_c, 6, 64, 64
8, 90515, Note_off_c, 6, 60, 64
8, 90520, Note_off_c, 6, 67, 64
8, 90590, Note_on_c, 6, 60, 70
8, 90590, Note_on_c, 6, 64, 70
8, 90590, Note_on_c, 6, 67, 70
8, 90670, Note_off_c, 6, 60, 64
8, 90675, Note_off_c, 6, 64, 64
8, 90675, Note_off_c, 6, 67, 64
8, 91190, Note_on_c, 6, 60, 70
8, 91190, Note_on_c, 6, 64, 70
8, 91190, Note_on_c, 6, 67, 70
8, 91325, Note_off_c, 6, 60, 64
8, 91340, Note_off_c, 6, 67, 64
8, 91355, Note_off_c, 6, 64, 64
8, 91670, Note_on_c, 6, 57, 70
8, 91670, Note_on_c, 6, 62, 70
8, 91670, Note_on_c, 6, 66, 70
8, 92015, Note_off_c, 6, 57, 64
8, 92045, Note_off_c, 6, 66, 64
8, 92070, Note_off_c, 6, 62, 64
8, 92150, Note_on_c, 6, 52, 70
8, 92390, Note_on_c, 6, 62, 70
8, 92390, Note_on_c, 6, 67, 70
8, 92390, Note_on_c, 6, 71, 70
8, 92405, Note_off_c, 6, 52, 64
8, 92420, Note_off_c, 6, 67, 64
8, 92430, Note_off_c, 6, 71, 64
8, 92440, Note_off_c, 6, 62, 64
8, 92510, Note_on_c, 6, 62, 70
8, 92510, Note_on_c, 6, 67, 70
8, 92510, Note_on_c, 6, 71, 70
8, 92555, Note_off_c, 6, 62, 64
8, 92570, Note_off_c, 6, 67, 64
8, 92580, Note_off_c, 6, 71, 64
8, 92870, Note_on_c, 6, 62, 70
8, 92870, Note_on_c, 6, 67, 70
8, 92870, Note_on_c, 6, 71, 70
8, 92920, Note_off_c, 6, 67, 64
8, 92920, Note_off_c, 6, 62, 64
8, 92925, Note_off_c, 6, 71, 64
8, 93110, Note_on_c, 6, 62, 70
8, 93110, Note_on_c, 6, 66, 70
8, 93110, Note_on_c, 6, 69, 70
8, 93355, Note_off_c, 6, 62, 64
8, 93375, Note_off_c, 6, 69, 64
8, 93380, Note_off_c, 6, 66, 64
8, 93470, Note_on_c, 6, 62, 70
8, 93470, Note_on_c, 6, 66, 70
8, 93470, Note_on_c, 6, 69, 70
8, 93705, Note_off_c, 6, 69, 64
8, 93720, Note_off_c, 6, 62, 64
8, 93775, Note_off_c, 6, 66, 64
8, 93830, Note_on_c, 6, 60, 70
8, 93830, Note_on_c, 6, 64, 70
8, 93830, Note_on_c, 6, 67, 70
8, 94165, Note_off_c, 6, 60, 64
8, 94190, Note_off_c, 6, 67, 64
8, 94210, Note_off_c, 6, 64, 64
8, 94310, Note_on_c, 6, 60, 70
8, 94310, Note_on_c, 6, 64, 70
8, 94310, Note_on_c, 6, 67, 70
8, 94350, Note_off_c, 6, 64, 64
8, 94360, Note_off_c, 6, 67, 64
8, 94365, Note_off_c, 6, 60, 64
8, 94430, Note_on_c, 6, 60, 70
8, 94430, Note_on_c, 6, 64, 70
8, 94430, Note_on_c, 6, 67, 70
8, 94500, Note_off_c, 6, 60, 64
8, 94505, Note_off_c, 6, 67, 64
8, 94515, Note_off_c, 6, 64, 64
8, 95030, Note_on_c, 6, 60, 70
8, 95030, Note_on_c, 6, 64, 70
8, 95030, Note_on_c, 6, 67, 70
8, 95030, Note_on_c, 6, 76, 90
8, 95030, Note_on_c, 6, 79, 90
8, 95135, Pitch_bend_c, 6, 9492
8, 95160, Pitch_bend_c, 6, 13262
8, 95185, Pitch_bend_c, 6, 16383
8, 95255, Note_off_c, 6, 76, 64
8, 95260, Note_off_c, 6, 79, 64
8, 95265, Note_off_c, 6, 60, 64
8, 95285, Pitch_bend_c, 6, 15992
8, 95310, Note_off_c, 6, 67, 64
8, 95315, Note_off_c, 6, 64, 64
8, 95320, Pitch_bend_c, 6, 11832
8, 95355, Pitch_bend_c, 6, 8192
8, 95510, Note_on_c, 6, 60, 70
8, 95510, Note_on_c, 6, 64, 70
8, 95510, Note_on_c, 6, 67, 70
8, 95510, Note_on_c, 6, 76, 90
8, 95510, Note_on_c, 6, 79, 83
8, 95630, Pitch_bend_c, 6, 9752
8, 95655, Pitch_bend_c, 6, 16317
8, 95680, Pitch_bend_c, 6, 16383
8, 95720, Note_off_c, 6, 60, 64
8, 95740, Note_off_c, 6, 76, 64
8, 95745, Note_off_c, 6, 79, 64
8, 95755, Note_off_c, 6, 67, 64
8, 95765, Note_off_c, 6, 64, 64
8, 95780, Pitch_bend_c, 6, 16317
8, 95800, Pitch_bend_c, 6, 16057
8, 95835, Pitch_bend_c, 6, 10857
8, 95870, Pitch_bend_c, 6, 8192
8, 95990, Note_on_c, 6, 52, 70
8, 96215, Note_off_c, 6, 52, 64
8, 96230, Note_on_c, 6, 62, 70
8, 96230, Note_on_c, 6, 67, 70
8, 96230, Note_on_c, 6, 71, 70
8, 96275, Note_off_c, 6, 67, 64
8, 96285, Note_off_c, 6, 62, 64
8, 96285, Note_off_c, 6, 71, 64
8, 96350, Note_on_c, 6, 62, 70
8, 96350, Note_on_c, 6, 67, 70
8, 96350, Note_on_c, 6, 71, 70
8, 96405, Note_off_c, 6, 62, 64
8, 96415, Note_off_c, 6, 67, 64
8, 96420, Note_off_c, 6, 71, 64
8, 96710, Note_on_c, 6, 62, 70
8, 96710, Note_on_c, 6, 67, 70
8, 96710, Note_on_c, 6, 71, 70
8, 96765, Note_off_c, 6, 62, 64
8, 96770, Note_off_c, 6, 67, 64
8, 96780, Note_off_c, 6, 71, 64
8, 96950, Note_on_c, 6, 62, 70
8, 96950, Note_on_c, 6, 66, 70
8, 96950, Note_on_c, 6, 69, 70
8, 97210, Note_off_c, 6, 62, 64
8, 97225, Note_off_c, 6, 69, 64
8, 97235, Note_off_c, 6, 66, 64
8, 97310, Note_on_c, 6, 62, 70
8, 97310, Note_on_c, 6, 66, 70
8, 97310, Note_on_c, 6, 69, 70
8, 97550, Note_off_c, 6, 69, 64
8, 97565, Note_off_c, 6, 62, 64
8, 97605, Note_off_c, 6, 66, 64
8, 97670, Note_on_c, 6, 60, 70
8, 97670, Note_on_c, 6, 64, 70
8, 97670, Note_on_c, 6, 67, 70
8, 97990, Note_off_c, 6, 60, 64
8, 98040, Note_off_c, 6, 67, 64
8, 98050, Note_off_c, 6, 64, 64
8, 98150, Note_on_c, 6, 60, 70
8, 98150, Note_on_c, 6, 64, 70
8, 98150, Note_on_c, 6, 67, 70
8, 98185, Note_off_c, 6, 64, 64
8, 98195, Note_off_c, 6, 67, 64
8, 98200, Note_off_c, 6, 60, 64
8, 98270, Note_on_c, 6, 60, 70
8, 98270, Note_on_c, 6, 64, 70
8, 98270, Note_on_c, 6, 67, 70
8, 98335, Note_off_c, 6, 60, 64
8, 98350, Note_off_c, 6, 64, 64
8, 98350, Note_off_c, 6, 67, 64
8, 98870, Note_on_c, 6, 60, 70
8, 98870, Note_on_c, 6, 64, 70
8, 98870, Note_on_c, 6, 67, 70
8, 99010, Note_off_c, 6, 60, 64
8, 99030, Note_off_c, 6, 67, 64
8, 99035, Note_off_c, 6, 64, 64
8, 99350, Note_on_c, 6, 57, 70
8, 99350, Note_on_c, 6, 62, 70
8, 99350, Note_on_c, 6, 66, 70
8, 99525, Note_off_c, 6, 57, 64
8, 99550, Note_off_c, 6, 62, 64
8, 99560, Note_off_c, 6, 66, 64
8, 99830, Note_on_c, 6, 52, 70
8, 100040, Note_off_c, 6, 52, 64
8, 100070, Note_on_c, 6, 62, 70
8, 100070, Note_on_c, 6, 67, 70
8, 100070, Note_on_c, 6, 71, 70
8, 100120, Note_off_c, 6, 67, 64
8, 100130, Note_off_c, 6, 71, 64
8, 100135, Note_off_c, 6, 62, 64
8, 100190, Note_on_c, 6, 62, 70
8, 100190, Note_on_c, 6, 67, 70
8, 100190, Note_on_c, 6, 71, 70
8, 100265, Note_off_c, 6, 71, 64
8, 100265, Note_off_c, 6, 62, 64
8, 100270, Note_off_c, 6, 67, 64
8, 100550, Note_on_c, 6, 62, 70
8, 100550, Note_on_c, 6, 67, 70
8, 100550, Note_on_c, 6, 71, 70
8, 100610, Note_off_c, 6, 67, 64
8, 100610, Note_off_c, 6, 62, 64
8, 100615, Note_off_c, 6, 71, 64
8, 100790, Note_on_c, 6, 62, 70
8, 100790, Note_on_c, 6, 66, 70
8, 100790, Note_on_c, 6, 69, 70
8, 101020, Note_off_c, 6, 62, 64
8, 101045, Note_off_c, 6, 69, 64
8, 101055, Note_off_c, 6, 66, 64
8, 101150, Note_on_c, 6, 62, 70
8, 101150, Note_on_c, 6, 66, 70
8, 101150, Note_on_c, 6, 69, 70
8, 101415, Note_off_c, 6, 62, 64
8, 101420, Note_off_c, 6, 69, 64
8, 101455, Note_off_c, 6, 66, 64
8, 101510, Note_on_c, 6, 60, 70
8, 101510, Note_on_c, 6, 64, 70
8, 101510, Note_on_c, 6, 67, 70
8, 101805, Note_off_c, 6, 60, 64
8, 101865, Note_off_c, 6, 67, 64
8, 101885, Note_off_c, 6, 64, 64
8, 101990, Note_on_c, 6, 60, 70
8, 101990, Note_on_c, 6, 64, 70
8, 101990, Note_on_c, 6, 67, 70
8, 102035, Note_off_c, 6, 67, 64
8, 102040, Note_off_c, 6, 64, 64
8, 102040, Note_off_c, 6, 60, 64
8, 102110, Note_on_c, 6, 60, 70
8, 102110, Note_on_c, 6, 64, 70
8, 102110, Note_on_c, 6, 67, 70
8, 102190, Note_off_c, 6, 60, 64
8, 102195, Note_off_c, 6, 64, 64
8, 102205, Note_off_c, 6, 67, 64
8, 102710, Note_on_c, 6, 60, 70
8, 102710, Note_on_c, 6, 64, 70
8, 102710, Note_on_c, 6, 67, 70
8, 102875, Note_off_c, 6, 60, 64
8, 102890, Note_off_c, 6, 64, 64
8, 102905, Note_off_c, 6, 67, 64
8, 103190, Note_on_c, 6, 60, 70
8, 103190, Note_on_c, 6, 64, 70
8, 103190, Note_on_c, 6, 67, 70
8, 103380, Note_off_c, 6, 64, 64
8, 103385, Note_off_c, 6, 60, 64
8, 103395, Note_off_c, 6, 67, 64
8, 103670, Note_on_c, 6, 52, 70
8, 103875, Note_off_c, 6, 52, 64
8, 103910, Note_on_c, 6, 62, 70
8, 103910, Note_on_c, 6, 67, 70
8, 103910, Note_on_c, 6, 71, 70
8, 103945, Note_off_c, 6, 67, 64
8, 103955, Note_off_c, 6, 71, 64
8, 103960, Note_off_c, 6, 62, 64
8, 104030, Note_on_c, 6, 62, 70
8, 104030, Note_on_c, 6, 67, 70
8, 104030, Note_on_c, 6, 71, 70
8, 104095, Note_off_c, 6, 67, 64
8, 104095, Note_off_c, 6, 62, 64
8, 104100, Note_off_c, 6, 71, 64
8, 104390, Note_on_c, 6, 62, 70
8, 104390, Note_on_c, 6, 67, 70
8, 104390, Note_on_c, 6, 71, 70
8, 104450, Note_off_c, 6, 67, 64
8, 104450, Note_off_c, 6, 62, 64
8, 104460, Note_off_c, 6, 71, 64
8, 104630, Note_on_c, 6, 62, 70
8, 104630, Note_on_c, 6, 66, 70
8, 104630, Note_on_c, 6, 69, 70
8, 104900, Note_off_c, 6, 62, 64
8, 104915, Note_off_c, 6, 66, 64
8, 104920, Note_off_c, 6, 69, 64
8, 104990, Note_on_c, 6, 62, 70
8, 104990, Note_on_c, 6, 66, 70
8, 104990, Note_on_c, 6, 69, 70
8, 105230, Note_off_c, 6, 69, 64
8, 105245, Note_off_c, 6, 62, 64
8, 105290, Note_off_c, 6, 66, 64
8, 105350, Note_on_c, 6, 60, 70
8, 105350, Note_on_c, 6, 64, 70
8, 105350, Note_on_c, 6, 67, 70
8, 105650, Note_off_c, 6, 60, 64
8, 105690, Note_off_c, 6, 67, 64
8, 105700, Note_off_c, 6, 64, 64
8, 105830, Note_on_c, 6, 60, 70
8, 105830, Note_on_c, 6, 64, 70
8, 105830, Note_on_c, 6, 67, 70
8, 105870, Note_off_c, 6, 64, 64
8, 105875, Note_off_c, 6, 60, 64
8, 105880, Note_off_c, 6, 67, 64
8, 105950, Note_on_c, 6, 60, 70
8, 105950, Note_on_c, 6, 64, 70
8, 105950, Note_on_c, 6, 67, 70
8, 106030, Note_off_c, 6, 60, 64
8, 106035, Note_off_c, 6, 64, 64
8, 106035, Note_off_c, 6, 67, 64
8, 106550, Note_on_c, 6, 60, 70
8, 106550, Note_on_c, 6, 64, 70
8, 106550, Note_on_c, 6, 67, 70
8, 106685, Note_off_c, 6, 60, 64
8, 106700, Note_off_c, 6, 67, 64
8, 106715, Note_off_c, 6, 64, 64
8, 107030, Note_on_c, 6, 57, 70
8, 107030, Note_on_c, 6, 62, 70
8, 107030, Note_on_c, 6, 66, 70
8, 107375, Note_off_c, 6, 57, 64
8, 107405, Note_off_c, 6, 66, 64
8, 107430, Note_off_c, 6, 62, 64
8, 107510, Note_on_c, 6, 52, 70
8, 107750, Note_on_c, 6, 62, 70
8, 107750, Note_on_c, 6, 67, 70
8, 107750, Note_on_c, 6, 71, 70
8, 107765, Note_off_c, 6, 52, 64
8, 107780, Note_off_c, 6, 67, 64
8, 107790, Note_off_c, 6, 71, 64
8, 107800, Note_off_c, 6, 62, 64
8, 107870, Note_on_c, 6, 62, 70
8, 107870, Note_on_c, 6, 67, 70
8, 107870, Note_on_c, 6, 71, 70
8, 107915, Note_off_c, 6, 62, 64
8, 107930, Note_off_c, 6, 67, 64
8, 107940, Note_off_c, 6, 71, 64
8, 108230, Note_on_c, 6, 62, 70
8, 108230, Note_on_c, 6, 67, 70
8, 108230, Note_on_c, 6, 71, 70
8, 108280, Note_off_c, 6, 67, 64
8, 108280, Note_off_c, 6, 62, 64
8, 108285, Note_off_c, 6, 71, 64
8, 108470, Note_on_c, 6, 62, 70
8, 108470, Note_on_c, 6, 66, 70
8, 108470, Note_on_c, 6, 69, 70
8, 108715, Note_off_c, 6, 62, 64
8, 108735, Note_off_c, 6, 69, 64
8, 108740, Note_off_c, 6, 66, 64
8, 108830, Note_on_c, 6, 62, 70
8, 108830, Note_on_c, 6, 66, 70
8, 108830, Note_on_c, 6, 69, 70
8, 109065, Note_off_c, 6, 69, 64
8, 109080, Note_off_c, 6, 62, 64
8, 109135, Note_off_c, 6, 66, 64
8, 109190, Note_on_c, 6, 60, 70
8, 109190, Note_on_c, 6, 64, 70
8, 109190, Note_on_c, 6, 67, 70
8, 109525, Note_off_c, 6, 60, 64
8, 109550, Note_off_c, 6, 67, 64
8, 109570, Note_off_c, 6, 64, 64
8, 109670, Note_on_c, 6, 60, 70
8, 109670, Note_on_c, 6, 64, 70
8, 109670, Note_on_c, 6, 67, 70
8, 109710, Note_off_c, 6, 64, 64
8, 109720, Note_off_c, 6, 67, 64
8, 109725, Note_off_c, 6, 60, 64
8, 109790, Note_on_c, 6, 60, 70
8, 109790, Note_on_c, 6, 64, 70
8, 109790, Note_on_c, 6, 67, 70
8, 109860, Note_off_c, 6, 60, 64
8, 109865, Note_off_c, 6, 67, 64
8, 109875, Note_off_c, 6, 64, 64
8, 110390, Note_on_c, 6, 60, 70
8, 110390, Note_on_c, 6, 64, 70
8, 110390, Note_on_c, 6, 67, 70
8, 110625, Note_off_c, 6, 60, 64
8, 110670, Note_off_c, 6, 67, 64
8, 110675, Note_off_c, 6, 64, 64
8, 110870, Note_on_c, 6, 60, 70
8, 110870, Note_on_c, 6, 64, 70
8, 110870, Note_on_c, 6, 67, 70
8, 111080, Note_off_c, 6, 60, 64
8, 111115, Note_off_c, 6, 67, 64
8, 111125, Note_off_c, 6, 64, 64
8, 111350, Note_on_c, 6, 52, 70
8, 111555, Note_off_c, 6, 52, 64
8, 111590, Note_on_c, 6, 62, 70
8, 111590, Note_on_c, 6, 67, 70
8, 111590, Note_on_c, 6, 71, 70
8, 111625, Note_off_c, 6, 67, 64
8, 111635, Note_off_c, 6, 71, 64
8, 111640, Note_off_c, 6, 62, 64
8, 111710, Note_on_c, 6, 62, 70
8, 111710, Note_on_c, 6, 67, 70
8, 111710, Note_on_c, 6, 71, 70
8, 111775, Note_off_c, 6, 67, 64
8, 111775, Note_off_c, 6, 62, 64
8, 111780, Note_off_c, 6, 71, 64
8, 112070, Note_on_c, 6, 62, 70
8, 112070, Note_on_c, 6, 67, 70
8, 112070, Note_on_c, 6, 71, 70
8, 112130, Note_off_c, 6, 67, 64
8, 112130, Note_off_c, 6, 62, 64
8, 112140, Note_off_c, 6, 71, 64
8, 112310, Note_on_c, 6, 62, 70
8, 112310, Note_on_c, 6, 66, 70
8, 112310, Note_on_c, 6, 69, 70
8, 112580, Note_off_c, 6, 62, 64
8, 112595, Note_off_c, 6, 66, 64
8, 112600, Note_off_c, 6, 69, 64
8, 112670, Note_on_c, 6, 62, 70
8, 112670, Note_on_c, 6, 66, 70
8, 112670, Note_on_c, 6, 69, 70
8, 112910, Note_off_c, 6, 69, 64
8, 112925, Note_off_c, 6, 62, 64
8, 112970, Note_off_c, 6, 66, 64
8, 113030, Note_on_c, 6, 60, 70
8, 113030, Note_on_c, 6, 64, 70
8, 113030, Note_on_c, 6, 67, 70
8, 113330, Note_off_c, 6, 60, 64
8, 113370, Note_off_c, 6, 67, 64
8, 113380, Note_off_c, 6, 64, 64
8, 113510, Note_on_c, 6, 60, 70
8, 113510, Note_on_c, 6, 64, 70
8, 113510, Note_on_c, 6, 67, 70
8, 113550, Note_off_c, 6, 64, 64
8, 113555, Note_off_c, 6, 60, 64
8, 113560, Note_off_c, 6, 67, 64
8, 113630, Note_on_c, 6, 60, 70
8, 113630, Note_on_c, 6, 64, 70
8, 113630, Note_on_c, 6, 67, 70
8, 113710, Note_off_c, 6, 60, 64
8, 113715, Note_off_c, 6, 64, 64
8, 113715, Note_off_c, 6, 67, 64
8, 114230, Note_on_c, 6, 60, 70
8, 114230, Note_on_c, 6, 64, 70
8, 114230, Note_on_c, 6, 67, 70
8, 114365, Note_off_c, 6, 60, 64
8, 114380, Note_off_c, 6, 67, 64
8, 114395, Note_off_c, 6, 64, 64
8, 114710, Note_on_c, 6, 57, 70
8, 114710, Note_on_c, 6, 62, 70
8, 114710, Note_on_c, 6, 66, 70
8, 115055, Note_off_c, 6, 57, 64
8, 115085, Note_off_c, 6, 66, 64
8, 115110, Note_off_c, 6, 62, 64
8, 115190, Note_on_c, 6, 52, 70
8, 115430, Note_on_c, 6, 62, 70
8, 115430, Note_on_c, 6, 67, 70
8, 115430, Note_on_c, 6, 71, 70
8, 115445, Note_off_c, 6, 52, 64
8, 115460, Note_off_c, 6, 67, 64
8, 115470, Note_off_c, 6, 71, 64
8, 115480, Note_off_c, 6, 62, 64
8, 115550, Note_on_c, 6, 62, 70
8, 115550, Note_on_c, 6, 67, 70
8, 115550, Note_on_c, 6, 71, 70
8, 115595, Note_off_c, 6, 62, 64
8, 115610, Note_off_c, 6, 67, 64
8, 115620, Note_off_c, 6, 71, 64
8, 115910, Note_on_c, 6, 62, 70
8, 115910, Note_on_c, 6, 67, 70
8, 115910, Note_on_c, 6, 71, 70
8, 115960, Note_off_c, 6, 67, 64
8, 115960, Note_off_c, 6, 62, 64
8, 115965, Note_off_c, 6, 71, 64
8, 116150, Note_on_c, 6, 62, 70
8, 116150, Note_on_c, 6, 66, 70
8, 116150, Note_on_c, 6, 69, 70
8, 116395, Note_off_c, 6, 62, 64
8, 116415, Note_off_c, 6, 69, 64
8, 116420, Note_off_c, 6, 66, 64
8, 116510, Note_on_c, 6, 62, 70
8, 116510, Note_on_c, 6, 66, 70
8, 116510, Note_on_c, 6, 69, 70
8, 116745, Note_off_c, 6, 69, 64
8, 116760, Note_off_c, 6, 62, 64
8, 116815, Note_off_c, 6, 66, 64
8, 116870, Note_on_c, 6, 60, 70
8, 116870, Note_on_c, 6, 64, 70
8, 116870, Note_on_c, 6, 67, 70
8, 117205, Note_off_c, 6, 60, 64
8, 117230, Note_off_c, 6, 67, 64
8, 117250, Note_off_c, 6, 64, 64
8, 117350, Note_on_c, 6, 60, 70
8, 117350, Note_on_c, 6, 64, 70
8, 117350, Note_on_c, 6, 67, 70
8, 117390, Note_off_c, 6, 64, 64
8, 117400, Note_off_c, 6, 67, 64
8, 117405, Note_off_c, 6, 60, 64
8, 117470, Note_on_c, 6, 60, 70
8, 117470, Note_on_c, 6, 64, 70
8, 117470, Note_on_c, 6, 67, 70
8, 117540, Note_off_c, 6, 60, 64
8, 117545, Note_off_c, 6, 67, 64
8, 117555, Note_off_c, 6, 64, 64
8, 118070, Note_on_c, 6, 60, 70
8, 118070, Note_on_c, 6, 64, 70
8, 118070, Note_on_c, 6, 67, 70
8, 118305, Note_off_c, 6, 60, 64
8, 118350, Note_off_c, 6, 67, 64
8, 118355, Note_off_c, 6, 64, 64
8, 118550, Note_on_c, 6, 60, 70
8, 118550, Note_on_c, 6, 64, 70
8, 118550, Note_on_c, 6, 67, 70
8, 118760, Note_off_c, 6, 60, 64
8, 118795, Note_off_c, 6, 67, 64
8, 118805, Note_off_c, 6, 64, 64
8, 119030, Note_on_c, 6, 40, 70
8, 119290, Note_off_c, 6, 40, 64
8, 119990, Note_on_c, 6, 47, 70
8, 120240, Note_off_c, 6, 47, 64
8, 120470, Note_on_c, 6, 48, 70
8, 120760, Note_off_c, 6, 48, 64
8, 120950, Note_on_c, 6, 50, 70
8, 121210, Note_off_c, 6, 50, 64
8, 121910, Note_on_c, 6, 45, 70
8, 122185, Note_off_c, 6, 45, 64
8, 122390, Note_on_c, 6, 47, 70
8, 122695, Note_off_c, 6, 47, 64
8, 122870, Note_on_c, 6, 40, 70
8, 123140, Note_off_c, 6, 40, 64
8, 123830, Note_on_c, 6, 47, 70
8, 124065, Note_off_c, 6, 47, 64
8, 124310, Note_on_c, 6, 48, 70
8, 124585, Note_off_c, 6, 48, 64
8, 124790, Note_on_c, 6, 50, 70
8, 125055, Note_off_c, 6, 50, 64
8, 125750, Note_on_c, 6, 76, 90
8, 125750, Note_on_c, 6, 79, 90
8, 125890, Pitch_bend_c, 6, 15732
8, 125910, Pitch_bend_c, 6, 16383
8, 125955, Note_off_c, 6, 79, 64
8, 125960, Note_off_c, 6, 76, 64
8, 126015, Pitch_bend_c, 6, 15602
8, 126050, Pitch_bend_c, 6, 10207
8, 126070, Pitch_bend_c, 6, 8192
8, 126230, Note_on_c, 6, 76, 90
8, 126230, Note_on_c, 6, 79, 90
8, 126370, Pitch_bend_c, 6, 14497
8, 126390, Pitch_bend_c, 6, 16383
8, 126435, Note_off_c, 6, 79, 64
8, 126445, Note_off_c, 6, 76, 64
8, 126510, Pitch_bend_c, 6, 15017
8, 126530, Pitch_bend_c, 6, 12417
8, 126565, Pitch_bend_c, 6, 8192
8, 126710, Note_on_c, 6, 40, 70
8, 126970, Note_off_c, 6, 40, 64
8, 127670, Note_on_c, 6, 47, 70
8, 127920, Note_off_c, 6, 47, 64
8, 128150, Note_on_c, 6, 48, 70
8, 128440, Note_off_c, 6, 48, 64
8, 128630, Note_on_c, 6, 50, 70
8, 128890, Note_off_c, 6, 50, 64
8, 129590, Note_on_c, 6, 45, 70
8, 129865, Note_off_c, 6, 45, 64
8, 130070, Note_on_c, 6, 47, 70
8, 130375, Note_off_c, 6, 47, 64
8, 130550, Note_on_c, 6, 40, 70
8, 130820, Note_off_c, 6, 40, 64
8, 131510, Note_on_c, 6, 47, 70
8, 131745, Note_off_c, 6, 47, 64
8, 131990, Note_on_c, 6, 48, 70
8, 132265, Note_off_c, 6, 48, 64
8, 132470, Note_on_c, 6, 50, 70
8, 132735, Note_off_c, 6, 50, 64
8, 134390, Note_on_c, 6, 52, 70
8, 134595, Note_off_c, 6, 52, 64
8, 134630, Note_on_c, 6, 62, 70
8, 134630, Note_on_c, 6, 67, 70
8, 134630, Note_on_c, 6, 71, 70
8, 134665, Note_off_c, 6, 67, 64
8, 134675, Note_off_c, 6, 71, 64
8, 134680, Note_off_c, 6, 62, 64
8, 134750, Note_on_c, 6, 62, 70
8, 134750, Note_on_c, 6, 67, 70
8, 134750, Note_on_c, 6, 71, 70
8, 134815, Note_off_c, 6, 67, 64
8, 134815, Note_off_c, 6, 62, 64
8, 134820, Note_off_c, 6, 71, 64
8, 135110, Note_on_c, 6, 62, 70
8, 135110, Note_on_c, 6, 67, 70
8, 135110, Note_on_c, 6, 71, 70
8, 135170, Note_off_c, 6, 67, 64
8, 135170, Note_off_c, 6, 62, 64
8, 135180, Note_off_c, 6, 71, 64
8, 135350, Note_on_c, 6, 62, 70
8, 135350, Note_on_c, 6, 66, 70
8, 135350, Note_on_c, 6, 69, 70
8, 135620, Note_off_c, 6, 62, 64
8, 135635, Note_off_c, 6, 66, 64
8, 135640, Note_off_c, 6, 69, 64
8, 135710, Note_on_c, 6, 62, 70
8, 135710, Note_on_c, 6, 66, 70
8, 135710, Note_on_c, 6, 69, 70
8, 135950, Note_off_c, 6, 69, 64
8, 135965, Note_off_c, 6, 62, 64
8, 136010, Note_off_c, 6, 66, 64
8, 136070, Note_on_c, 6, 60, 70
8, 136070, Note_on_c, 6, 64, 70
8, 136070, Note_on_c, 6, 67, 70
8, 136370, Note_off_c, 6, 60, 64
8, 136410, Note_off_c, 6, 67, 64
8, 136420, Note_off_c, 6, 64, 64
8, 136550, Note_on_c, 6, 60, 70
8, 136550, Note_on_c, 6, 64, 70
8, 136550, Note_on_c, 6, 67, 70
8, 136590, Note_off_c, 6, 64, 64
8, 136595, Note_off_c, 6, 60, 64
8, 136600, Note_off_c, 6, 67, 64
8, 136670, Note_on_c, 6, 60, 70
8, 136670, Note_on_c, 6, 64, 70
8, 136670, Note_on_c, 6, 67, 70
8, 136750, Note_off_c, 6, 60, 64
8, 136755, Note_off_c, 6, 64, 64
8, 136755, Note_off_c, 6, 67, 64
8, 137270, Note_on_c, 6, 60, 70
8, 137270, Note_on_c, 6, 64, 70
8, 137270, Note_on_c, 6, 67, 70
8, 137405, Note_off_c, 6, 60, 64
8, 137420, Note_off_c, 6, 67, 64
8, 137435, Note_off_c, 6, 64, 64
8, 137750, Note_on_c, 6, 57, 70
8, 137750, Note_on_c, 6, 62, 70
8, 137750, Note_on_c, 6, 66, 70
8, 138095, Note_off_c, 6, 57, 64
8, 138125, Note_off_c, 6, 66, 64
8, 138150, Note_off_c, 6, 62, 64
8, 138230, Note_on_c, 6, 52, 70
8, 138470, Note_on_c, 6, 62, 70
8, 138470, Note_on_c, 6, 67, 70
8, 138470, Note_on_c, 6, 71, 70
8, 138485, Note_off_c, 6, 52, 64
8, 138500, Note_off_c, 6, 67, 64
8, 138510, Note_off_c, 6, 71, 64
8, 138520, Note_off_c, 6, 62, 64
8, 138590, Note_on_c, 6, 62, 70
8, 138590, Note_on_c, 6, 67, 70
8, 138590, Note_on_c, 6, 71, 70
8, 138635, Note_off_c, 6, 62, 64
8, 138650, Note_off_c, 6, 67, 64
8, 138660, Note_off_c, 6, 71, 64
8, 138950, Note_on_c, 6, 62, 70
8, 138950, Note_on_c, 6, 67, 70
8, 138950, Note_on_c, 6, 71, 70
8, 139000, Note_off_c, 6, 67, 64
8, 139000, Note_off_c, 6, 62, 64
8, 139005, Note_off_c, 6, 71, 64
8, 139190, Note_on_c, 6, 62, 70
8, 139190, Note_on_c, 6, 66, 70
8, 139190, Note_on_c, 6, 69, 70
8, 139435, Note_off_c, 6, 62, 64
8, 139455, Note_off_c, 6, 69, 64
8, 139460, Note_off_c, 6, 66, 64
8, 139550, Note_on_c, 6, 62, 70
8, 139550, Note_on_c, 6, 66, 70
8, 139550, Note_on_c, 6, 69, 70
8, 139785, Note_off_c, 6, 69, 64
8, 139800, Note_off_c, 6, 62, 64
8, 139855, Note_off_c, 6, 66, 64
8, 139910, Note_on_c, 6, 60, 70
8, 139910, Note_on_c, 6, 64, 70
8, 139910, Note_on_c, 6, 67, 70
8, 140245, Note_off_c, 6, 60, 64
8, 140270, Note_off_c, 6, 67, 64
8, 140290, Note_off_c, 6, 64, 64
8, 140390, Note_on_c, 6, 60, 70
8, 140390, Note_on_c, 6, 64, 70
8, 140390, Note_on_c, 6, 67, 70
8, 140430, Note_off_c, 6, 64, 64
8, 140440, Note_off_c, 6, 67, 64
8, 140445, Note_off_c, 6, 60, 64
8, 140510, Note_on_c, 6, 60, 70
8, 140510, Note_on_c, 6, 64, 70
8, 140510, Note_on_c, 6, 67, 70
8, 140580, Note_off_c, 6, 60, 64
8, 140585, Note_off_c, 6, 67, 64
8, 140595, Note_off_c, 6, 64, 64
8, 141110, Note_on_c, 6, 60, 70
8, 141110, Note_on_c, 6, 64, 70
8, 141110, Note_on_c, 6, 67, 70
8, 141345, Note_off_c, 6, 60, 64
8, 141390, Note_off_c, 6, 67, 64
8, 141395, Note_off_c, 6, 64, 64
8, 141590, Note_on_c, 6, 60, 70
8, 141590, Note_on_c, 6, 64, 70
8, 141590, Note_on_c, 6, 67, 70
8, 141800, Note_off_c, 6, 60, 64
8, 141835, Note_off_c, 6, 67, 64
8, 141845, Note_off_c, 6, 64, 64
8, 142070, Note_on_c, 6, 52, 70
8, 142295, Note_off_c, 6, 52, 64
8, 142310, Note_on_c, 6, 62, 70
8, 142310, Note_on_c, 6, 67, 70
8, 142310, Note_on_c, 6, 71, 70
8, 142355, Note_off_c, 6, 67, 64
8, 142365, Note_off_c, 6, 62, 64
8, 142365, Note_off_c, 6, 71, 64
8, 142430, Note_on_c, 6, 62, 70
8, 142430, Note_on_c, 6, 67, 70
8, 142430, Note_on_c, 6, 71, 70
8, 142485, Note_off_c, 6, 62, 64
8, 142495, Note_off_c, 6, 67, 64
8, 142500, Note_off_c, 6, 71, 64
8, 142790, Note_on_c, 6, 62, 70
8, 142790, Note_on_c, 6, 67, 70
8, 142790, Note_on_c, 6, 71, 70
8, 142845, Note_off_c, 6, 62, 64
8, 142850, Note_off_c, 6, 67, 64
8, 142860, Note_off_c, 6, 71, 64
8, 143030, Note_on_c, 6, 62, 70
8, 143030, Note_on_c, 6, 66, 70
8, 143030, Note_on_c, 6, 69, 70
8, 143290, Note_off_c, 6, 62, 64
8, 143305, Note_off_c, 6, 69, 64
8, 143315, Note_off_c, 6, 66, 64
8, 143390, Note_on_c, 6, 62, 70
8, 143390, Note_on_c, 6, 66, 70
8, 143390, Note_on_c, 6, 69, 70
8, 143630, Note_off_c, 6, 69, 64
8, 143645, Note_off_c, 6, 62, 64
8, 143685, Note_off_c, 6, 66, 64
8, 143750, Note_on_c, 6, 60, 70
8, 143750, Note_on_c, 6, 64, 70
8, 143750, Note_on_c, 6, 67, 70
8, 144070, Note_off_c, 6, 60, 64
8, 144120, Note_off_c, 6, 67, 64
8, 144130, Note_off_c, 6, 64, 64
8, 144230, Note_on_c, 6, 60, 70
8, 144230, Note_on_c, 6, 64, 70
8, 144230, Note_on_c, 6, 67, 70
8, 144265, Note_off_c, 6, 64, 64
8, 144275, Note_off_c, 6, 67, 64
8, 144280, Note_off_c, 6, 60, 64
8, 144350, Note_on_c, 6, 60, 70
8, 144350, Note_on_c, 6, 64, 70
8, 144350, Note_on_c, 6, 67, 70
8, 144415, Note_off_c, 6, 60, 64
8, 144430, Note_off_c, 6, 64, 64
8, 144430, Note_off_c, 6, 67, 64
8, 144950, Note_on_c, 6, 60, 70
8, 144950, Note_on_c, 6, 64, 70
8, 144950, Note_on_c, 6, 67, 70
8, 145090, Note_off_c, 6, 60, 64
8, 145110, Note_off_c, 6, 67, 64
8, 145115, Note_off_c, 6, 64, 64
8, 145430, Note_on_c, 6, 57, 70
8, 145430, Note_on_c, 6, 62, 70
8, 145430, Note_on_c, 6, 66, 70
8, 145605, Note_off_c, 6, 57, 64
8, 145630, Note_off_c, 6, 62, 64
8, 145640, Note_off_c, 6, 66, 64
8, 145910, Note_on_c, 6, 52, 70
8, 146120, Note_off_c, 6, 52, 64
8, 146150, Note_on_c, 6, 62, 70
8, 146150, Note_on_c, 6, 67, 70
8, 146150, Note_on_c, 6, 71, 70
8, 146200, Note_off_c, 6, 67, 64
8, 146210, Note_off_c, 6, 71, 64
8, 146215, Note_off_c, 6, 62, 64
8, 146270, Note_on_c, 6, 62, 70
8, 146270, Note_on_c, 6, 67, 70
8, 146270, Note_on_c, 6, 71, 70
8, 146345, Note_off_c, 6, 71, 64
8, 146345, Note_off_c, 6, 62, 64
8, 146350, Note_off_c, 6, 67, 64
8, 146630, Note_on_c, 6, 62, 70
8, 146630, Note_on_c, 6, 67, 70
8, 146630, Note_on_c, 6, 71, 70
8, 146690, Note_off_c, 6, 67, 64
8, 146690, Note_off_c, 6, 62, 64
8, 146695, Note_off_c, 6, 71, 64
8, 146870, Note_on_c, 6, 62, 70
8, 146870, Note_on_c, 6, 66, 70
8, 146870, Note_on_c, 6, 69, 70
8, 147100, Note_off_c, 6, 62, 64
8, 147125, Note_off_c, 6, 69, 64
8, 147135, Note_off_c, 6, 66, 64
8, 147230, Note_on_c, 6, 62, 70
8, 147230, Note_on_c, 6, 66, 70
8, 147230, Note_on_c, 6, 69, 70
8, 147495, Note_off_c, 6, 62, 64
8, 147500, Note_off_c, 6, 69, 64
8, 147535, Note_off_c, 6, 66, 64
8, 147590, Note_on_c, 6, 60, 70
8, 147590, Note_on_c, 6, 64, 70
8, 147590, Note_on_c, 6, 67, 70
8, 147885, Note_off_c, 6, 60, 64
8, 147945, Note_off_c, 6, 67, 64
8, 147965, Note_off_c, 6, 64, 64
8, 148070, Note_on_c, 6, 60, 70
8, 148070, Note_on_c, 6, 64, 70
8, 148070, Note_on_c, 6, 67, 70
8, 148115, Note_off_c, 6, 67, 64
8, 148120, Note_off_c, 6, 64, 64
8, 148120, Note_off_c, 6, 60, 64
8, 148190, Note_on_c, 6, 60, 70
8, 148190, Note_on_c, 6, 64, 70
8, 148190, Note_on_c, 6, 67, 70
8, 148270, Note_off_c, 6, 60, 64
8, 148275, Note_off_c, 6, 64, 64
8, 148285, Note_off_c, 6, 67, 64
8, 148790, Note_on_c, 6, 60, 70
8, 148790, Note_on_c, 6, 64, 70
8, 148790, Note_on_c, 6, 67, 70
8, 148955, Note_off_c, 6, 60, 64
8, 148970, Note_off_c, 6, 64, 64
8, 148985, Note_off_c, 6, 67, 64
8, 149270, Note_on_c, 6, 60, 70
8, 149270, Note_on_c, 6, 64, 70
8, 149270, Note_on_c, 6, 67, 70
8, 149460, Note_off_c, 6, 64, 64
8, 149465, Note_off_c, 6, 60, 64
8, 149475, Note_off_c, 6, 67, 64
8, 149750, Note_on_c, 6, 52, 70
8, 149955, Note_off_c, 6, 52, 64
8, 149990, Note_on_c, 6, 62, 70
8, 149990, Note_on_c, 6, 67, 70
8, 149990, Note_on_c, 6, 71, 70
8, 150025, Note_off_c, 6, 67, 64
8, 150035, Note_off_c, 6, 71, 64
8, 150040, Note_off_c, 6, 62, 64
8, 150110, Note_on_c, 6, 62, 70
8, 150110, Note_on_c, 6, 67, 70
8, 150110, Note_on_c, 6, 71, 70
8, 150175, Note_off_c, 6, 67, 64
8, 150175, Note_off_c, 6, 62, 64
8, 150180, Note_off_c, 6, 71, 64
8, 150470, Note_on_c, 6, 62, 70
8, 150470, Note_on_c, 6, 67, 70
8, 150470, Note_on_c, 6, 71, 70
8, 150530, Note_off_c, 6, 67, 64
8, 150530, Note_off_c, 6, 62, 64
8, 150540, Note_off_c, 6, 71, 64
8, 150710, Note_on_c, 6, 62, 70
8, 150710, Note_on_c, 6, 66, 70
8, 150710, Note_on_c, 6, 69, 70
8, 150980, Note_off_c, 6, 62, 64
8, 150995, Note_off_c, 6, 66, 64
8, 151000, Note_off_c, 6, 69, 64
8, 151070, Note_on_c, 6, 62, 70
8, 151070, Note_on_c, 6, 66, 70
8, 151070, Note_on_c, 6, 69, 70
8, 151310, Note_off_c, 6, 69, 64
8, 151325, Note_off_c, 6, 62, 64
8, 151370, Note_off_c, 6, 66, 64
8, 151430, Note_on_c, 6, 60, 70
8, 151430, Note_on_c, 6, 64, 70
8, 151430, Note_on_c, 6, 67, 70
8, 151730, Note_off_c, 6, 60, 64
8, 151770, Note_off_c, 6, 67, 64
8, 151780, Note_off_c, 6, 64, 64
8, 151910, Note_on_c, 6, 60, 70
8, 151910, Note_on_c, 6, 64, 70
8, 151910, Note_on_c, 6, 67, 70
8, 151950, Note_off_c, 6, 64, 64
8, 151955, Note_off_c, 6, 60, 64
8, 151960, Note_off_c, 6, 67, 64
8, 152030, Note_on_c, 6, 60, 70
8, 152030, Note_on_c, 6, 64, 70
8, 152030, Note_on_c, 6, 67, 70
8, 152110, Note_off_c, 6, 60, 64
8, 152115, Note_off_c, 6, 64, 64
8, 152115, Note_off_c, 6, 67, 64
8, 152630, Note_on_c, 6, 60, 70
8, 152630, Note_on_c, 6, 64, 70
8, 152630, Note_on_c, 6, 67, 70
8, 152765, Note_off_c, 6, 60, 64
8, 152780, Note_off_c, 6, 67, 64
8, 152795, Note_off_c, 6, 64, 64
8, 153110, Note_on_c, 6, 57, 70
8, 153110, Note_on_c, 6, 62, 70
8, 153110, Note_on_c, 6, 66, 70
8, 153455, Note_off_c, 6, 57, 64
8, 153485, Note_off_c, 6, 66, 64
8, 153510, Note_off_c, 6, 62, 64
8, 153590, Note_on_c, 6, 52, 70
8, 153830, Note_on_c, 6, 62, 70
8, 153830, Note_on_c, 6, 67, 70
8, 153830, Note_on_c, 6, 71, 70
8, 153845, Note_off_c, 6, 52, 64
8, 153860, Note_off_c, 6, 67, 64
8, 153870, Note_off_c, 6, 71, 64
8, 153880, Note_off_c, 6, 62, 64
8, 153950, Note_on_c, 6, 62, 70
8, 153950, Note_on_c, 6, 67, 70
8, 153950, Note_on_c, 6, 71, 70
8, 153995, Note_off_c, 6, 62, 64
8, 154010, Note_off_c, 6, 67, 64
8, 154020, Note_off_c, 6, 71, 64
8, 154310, Note_on_c, 6, 62, 70
8, 154310, Note_on_c, 6, 67, 70
8, 154310, Note_on_c, 6, 71, 70
8, 154360, Note_off_c, 6, 67, 64
8, 154360, Note_off_c, 6, 62, 64
8, 154365, Note_off_c, 6, 71, 64
8, 154550, Note_on_c, 6, 62, 70
8, 154550, Note_on_c, 6, 66, 70
8, 154550, Note_on_c, 6, 69, 70
8, 154795, Note_off_c, 6, 62, 64
8, 154815, Note_off_c, 6, 69, 64
8, 154820, Note_off_c, 6, 66, 64
8, 154910, Note_on_c, 6, 62, 70
8, 154910, Note_on_c, 6, 66, 70
8, 154910, Note_on_c, 6, 69, 70
8, 155145, Note_off_c, 6, 69, 64
8, 155160, Note_off_c, 6, 62, 64
8, 155215, Note_off_c, 6, 66, 64
8, 155270, Note_on_c, 6, 60, 70
8, 155270, Note_on_c, 6, 64, 70
8, 155270, Note_on_c, 6, 67, 70
8, 155605, Note_off_c, 6, 60, 64
8, 155630, Note_off_c, 6, 67, 64
8, 155650, Note_off_c, 6, 64, 64
8, 155750, Note_on_c, 6, 60, 70
8, 155750, Note_on_c, 6, 64, 70
8, 155750, Note_on_c, 6, 67, 70
8, 155790, Note_off_c, 6, 64, 64
8, 155800, Note_off_c, 6, 67, 64
8, 155805, Note_off_c, 6, 60, 64
8, 155870, Note_on_c, 6, 60, 70
8, 155870, Note_on_c, 6, 64, 70
8, 155870, Note_on_c, 6, 67, 70
8, 155940, Note_off_c, 6, 60, 64
8, 155945, Note_off_c, 6, 67, 64
8, 155955, Note_off_c, 6, 64, 64
8, 156470, Note_on_c, 6, 60, 70
8, 156470, Note_on_c, 6, 64, 70
8, 156470, Note_on_c, 6, 67, 70
8, 156470, Note_on_c, 6, 76, 90
8, 156470, Note_on_c, 6, 79, 90
8, 156620, Pitch_bend_c, 6, 8517
8, 156640, Note_off_c, 6, 79, 64
8, 156650, Pitch_bend_c, 6, 16383
8, 156660, Note_off_c, 6, 76, 64
8, 156705, Note_off_c, 6, 60, 64
8, 156750, Note_off_c, 6, 67, 64
8, 156755, Note_off_c, 6, 64, 64
8, 156755, Pitch_bend_c, 6, 15082
8, 156790, Pitch_bend_c, 6, 9622
8, 156810, Pitch_bend_c, 6, 8192
8, 156950, Note_on_c, 6, 60, 70
8, 156950, Note_on_c, 6, 64, 90
8, 156950, Note_on_c, 6, 67, 90
8, 157050, Pitch_bend_c, 6, 11182
8, 157070, Pitch_bend_c, 6, 15082
8, 157095, Pitch_bend_c, 6, 16317
8, 157120, Pitch_bend_c, 6, 16383
8, 157160, Note_off_c, 6, 60, 64
8, 157165, Note_off_c, 6, 64, 64
8, 157170, Note_off_c, 6, 67, 64
8, 157215, Pitch_bend_c, 6, 14757
8, 157235, Pitch_bend_c, 6, 12417
8, 157270, Pitch_bend_c, 6, 8192
8, 157430, Note_on_c, 6, 52, 70
8, 157655, Note_off_c, 6, 52, 64
8, 157670, Note_on_c, 6, 62, 70
8, 157670, Note_on_c, 6, 67, 70
8, 157670, Note_on_c, 6, 71, 70
8, 157715, Note_off_c, 6, 67, 64
8, 157725, Note_off_c, 6, 62, 64
8, 157725, Note_off_c, 6, 71, 64
8, 157790, Note_on_c, 6, 62, 70
8, 157790, Note_on_c, 6, 67, 70
8, 157790, Note_on_c, 6, 71, 70
8, 157845, Note_off_c, 6, 62, 64
8, 157855, Note_off_c, 6, 67, 64
8, 157860, Note_off_c, 6, 71, 64
8, 158150, Note_on_c, 6, 62, 70
8, 158150, Note_on_c, 6, 67, 70
8, 158150, Note_on_c, 6, 71, 70
8, 158205, Note_off_c, 6, 62, 64
8, 158210, Note_off_c, 6, 67, 64
8, 158220, Note_off_c, 6, 71, 64
8, 158390, Note_on_c, 6, 62, 70
8, 158390, Note_on_c, 6, 66, 70
8, 158390, Note_on_c, 6, 69, 70
8, 158650, Note_off_c, 6, 62, 64
8, 158665, Note_off_c, 6, 69, 64
8, 158675, Note_off_c, 6, 66, 64
8, 158750, Note_on_c, 6, 62, 70
8, 158750, Note_on_c, 6, 66, 70
8, 158750, Note_on_c, 6, 69, 70
8, 158990, Note_off_c, 6, 69, 64
8, 159005, Note_off_c, 6, 62, 64
8, 159045, Note_off_c, 6, 66, 64
8, 159110, Note_on_c, 6, 60, 70
8, 159110, Note_on_c, 6, 64, 70
8, 159110, Note_on_c, 6, 67, 70
8, 159430, Note_off_c, 6, 60, 64
8, 159480, Note_off_c, 6, 67, 64
8, 159490, Note_off_c, 6, 64, 64
8, 159590, Note_on_c, 6, 60, 70
8, 159590, Note_on_c, 6, 64, 70
8, 159590, Note_on_c, 6, 67, 70
8, 159625, Note_off_c, 6, 64, 64
8, 159635, Note_off_c, 6, 67, 64
8, 159640, Note_off_c, 6, 60, 64
8, 159710, Note_on_c, 6, 60, 70
8, 159710, Note_on_c, 6, 64, 70
8, 159710, Note_on_c, 6, 67, 70
8, 159775, Note_off_c, 6, 60, 64
8, 159790, Note_off_c, 6, 64, 64
8, 159790, Note_off_c, 6, 67, 64
8, 160310, Note_on_c, 6, 60, 70
8, 160310, Note_on_c, 6, 64, 70
8, 160310, Note_on_c, 6, 67, 70
8, 160450, Note_off_c, 6, 60, 64
8, 160470, Note_off_c, 6, 67, 64
8, 160475, Note_off_c, 6, 64, 64
8, 160790, Note_on_c, 6, 57, 70
8, 160790, Note_on_c, 6, 62, 70
8, 160790, Note_on_c, 6, 66, 70
8, 160965, Note_off_c, 6, 57, 64
8, 160990, Note_off_c, 6, 62, 64
8, 161000, Note_off_c, 6, 66, 64
8, 161270, Note_on_c, 6, 52, 70
8, 161480, Note_off_c, 6, 52, 64
8, 161510, Note_on_c, 6, 62, 70
8, 161510, Note_on_c, 6, 67, 70
8, 161510, Note_on_c, 6, 71, 70
8, 161560, Note_off_c, 6, 67, 64
8, 161570, Note_off_c, 6, 71, 64
8, 161575, Note_off_c, 6, 62, 64
8, 161630, Note_on_c, 6, 62, 70
8, 161630, Note_on_c, 6, 67, 70
8, 161630, Note_on_c, 6, 71, 70
8, 161705, Note_off_c, 6, 71, 64
8, 161705, Note_off_c, 6, 62, 64
8, 161710, Note_off_c, 6, 67, 64
8, 161990, Note_on_c, 6, 62, 70
8, 161990, Note_on_c, 6, 67, 70
8, 161990, Note_on_c, 6, 71, 70
8, 162050, Note_off_c, 6, 67, 64
8, 162050, Note_off_c, 6, 62, 64
8, 162055, Note_off_c, 6, 71, 64
8, 162230, Note_on_c, 6, 62, 70
8, 162230, Note_on_c, 6, 66, 70
8, 162230, Note_on_c, 6, 69, 70
8, 162460, Note_off_c, 6, 62, 64
8, 162485, Note_off_c, 6, 69, 64
8, 162495, Note_off_c, 6, 66, 64
8, 162590, Note_on_c, 6, 62, 70
8, 162590, Note_on_c, 6, 66, 70
8, 162590, Note_on_c, 6, 69, 70
8, 162855, Note_off_c, 6, 62, 64
8, 162860, Note_off_c, 6, 69, 64
8, 162895, Note_off_c, 6, 66, 64
8, 162950, Note_on_c, 6, 60, 70
8, 162950, Note_on_c, 6, 64, 70
8, 162950, Note_on_c, 6, 67, 70
8, 163245, Note_off_c, 6, 60, 64
8, 163305, Note_off_c, 6, 67, 64
8, 163325, Note_off_c, 6, 64, 64
8, 163430, Note_on_c, 6, 60, 70
8, 163430, Note_on_c, 6, 64, 70
8, 163430, Note_on_c, 6, 67, 70
8, 163475, Note_off_c, 6, 67, 64
8, 163480, Note_off_c, 6, 64, 64
8, 163480, Note_off_c, 6, 60, 64
8, 163550, Note_on_c, 6, 60, 70
8, 163550, Note_on_c, 6, 64, 70
8, 163550, Note_on_c, 6, 67, 70
8, 163630, Note_off_c, 6, 60, 64
8, 163635, Note_off_c, 6, 64, 64
8, 163645, Note_off_c, 6, 67, 64
8, 164150, Note_on_c, 6, 60, 70
8, 164150, Note_on_c, 6, 64, 70
8, 164150, Note_on_c, 6, 67, 70
8, 164150, Note_on_c, 6, 76, 90
8, 164150, Note_on_c, 6, 79, 90
8, 164305, Pitch_bend_c, 6, 8257
8, 164315, Note_off_c, 6, 60, 64
8, 164330, Note_off_c, 6, 64, 64
8, 164330, Pitch_bend_c, 6, 16383
8, 164335, Note_off_c, 6, 79, 64
8, 164345, Note_off_c, 6, 67, 64
8, 164345, Note_off_c, 6, 76, 64
8, 164445, Pitch_bend_c, 6, 15862
8, 164480, Pitch_bend_c, 6, 10857
8, 164500, Pitch_bend_c, 6, 8192
8, 164630, Note_on_c, 6, 60, 70
8, 164630, Note_on_c, 6, 64, 90
8, 164630, Note_on_c, 6, 67, 90
8, 164740, Pitch_bend_c, 6, 8647
8, 164765, Pitch_bend_c, 6, 14042
8, 164790, Pitch_bend_c, 6, 16383
8, 164820, Note_off_c, 6, 64, 64
8, 164825, Note_off_c, 6, 60, 64
8, 164835, Note_off_c, 6, 67, 64
8, 164910, Pitch_bend_c, 6, 16317
8, 164945, Pitch_bend_c, 6, 15082
8, 164965, Pitch_bend_c, 6, 12287
8, 164985, Pitch_bend_c, 6, 8192
8, 165110, Note_on_c, 6, 52, 70
8, 165315, Note_off_c, 6, 52, 64
8, 165350, Note_on_c, 6, 62, 70
8, 165350, Note_on_c, 6, 67, 70
8, 165350, Note_on_c, 6, 71, 70
8, 165385, Note_off_c, 6, 67, 64
8, 165395, Note_off_c, 6, 71, 64
8, 165400, Note_off_c, 6, 62, 64
8, 165470, Note_on_c, 6, 62, 70
8, 165470, Note_on_c, 6, 67, 70
8, 165470, Note_on_c, 6, 71, 70
8, 165535, Note_off_c, 6, 67, 64
8, 165535, Note_off_c, 6, 62, 64
8, 165540, Note_off_c, 6, 71, 64
8, 165830, Note_on_c, 6, 62, 70
8, 165830, Note_on_c, 6, 67, 70
8, 165830, Note_on_c, 6, 71, 70
8, 165890, Note_off_c, 6, 67, 64
8, 165890, Note_off_c, 6, 62, 64
8, 165900, Note_off_c, 6, 71, 64
8, 166070, Note_on_c, 6, 62, 70
8, 166070, Note_on_c, 6, 66, 70
8, 166070, Note_on_c, 6, 69, 70
8, 166340, Note_off_c, 6, 62, 64
8, 166355, Note_off_c, 6, 66, 64
8, 166360, Note_off_c, 6, 69, 64
8, 166430, Note_on_c, 6, 62, 70
8, 166430, Note_on_c, 6, 66, 70
8, 166430, Note_on_c, 6, 69, 70
8, 166670, Note_off_c, 6, 69, 64
8, 166685, Note_off_c, 6, 62, 64
8, 166730, Note_off_c, 6, 66, 64
8, 166790, Note_on_c, 6, 60, 70
8, 166790, Note_on_c, 6, 64, 70
8, 166790, Note_on_c, 6, 67, 70
8, 167090, Note_off_c, 6, 60, 64
8, 167130, Note_off_c, 6, 67, 64
8, 167140, Note_off_c, 6, 64, 64
8, 167270, Note_on_c, 6, 60, 70
8, 167270, Note_on_c, 6, 64, 70
8, 167270, Note_on_c, 6, 67, 70
8, 167310, Note_off_c, 6, 64, 64
8, 167315, Note_off_c, 6, 60, 64
8, 167320, Note_off_c, 6, 67, 64
8, 167390, Note_on_c, 6, 60, 70
8, 167390, Note_on_c, 6, 64, 70
8, 167390, Note_on_c, 6, 67, 70
8, 167470, Note_off_c, 6, 60, 64
8, 167475, Note_off_c, 6, 64, 64
8, 167475, Note_off_c, 6, 67, 64
8, 167990, Note_on_c, 6, 60, 70
8, 167990, Note_on_c, 6, 64, 70
8, 167990, Note_on_c, 6, 67, 70
8, 168125, Note_off_c, 6, 60, 64
8, 168140, Note_off_c, 6, 67, 64
8, 168155, Note_off_c, 6, 64, 64
8, 168470, Note_on_c, 6, 57, 70
8, 168470, Note_on_c, 6, 62, 70
8, 168470, Note_on_c, 6, 66, 70
8, 168815, Note_off_c, 6, 57, 64
8, 168845, Note_off_c, 6, 66, 64
8, 168870, Note_off_c, 6, 62, 64
8, 168950, Note_on_c, 6, 52, 70
8, 169190, Note_on_c, 6, 62, 70
8, 169190, Note_on_c, 6, 67, 70
8, 169190, Note_on_c, 6, 71, 70
8, 169205, Note_off_c, 6, 52, 64
8, 169220, Note_off_c, 6, 67, 64
8, 169230, Note_off_c, 6, 71, 64
8, 169240, Note_off_c, 6, 62, 64
8, 169310, Note_on_c, 6, 62, 70
8, 169310, Note_on_c, 6, 67, 70
8, 169310, Note_on_c, 6, 71, 70
8, 169355, Note_off_c, 6, 62, 64
8, 169370, Note_off_c, 6, 67, 64
8, 169380, Note_off_c, 6, 71, 64
8, 169670, Note_on_c, 6, 62, 70
8, 169670, Note_on_c, 6, 67, 70
8, 169670, Note_on_c, 6, 71, 70
8, 169720, Note_off_c, 6, 67, 64
8, 169720, Note_off_c, 6, 62, 64
8, 169725, Note_off_c, 6, 71, 64
8, 169910, Note_on_c, 6, 62, 70
8, 169910, Note_on_c, 6, 66, 70
8, 169910, Note_on_c, 6, 69, 70
8, 170155, Note_off_c, 6, 62, 64
8, 170175, Note_off_c, 6, 69, 64
8, 170180, Note_off_c, 6, 66, 64
8, 170270, Note_on_c, 6, 62, 70
8, 170270, Note_on_c, 6, 66, 70
8, 170270, Note_on_c, 6, 69, 70
8, 170505, Note_off_c, 6, 69, 64
8, 170520, Note_off_c, 6, 62, 64
8, 170575, Note_off_c, 6, 66, 64
8, 170630, Note_on_c, 6, 60, 70
8, 170630, Note_on_c, 6, 64, 70
8, 170630, Note_on_c, 6, 67, 70
8, 170965, Note_off_c, 6, 60, 64
8, 170990, Note_off_c, 6, 67, 64
8, 171010, Note_off_c, 6, 64, 64
8, 171110, Note_on_c, 6, 60, 70
8, 171110, Note_on_c, 6, 64, 70
8, 171110, Note_on_c, 6, 67, 70
8, 171150, Note_off_c, 6, 64, 64
8, 171160, Note_off_c, 6, 67, 64
8, 171165, Note_off_c, 6, 60, 64
8, 171230, Note_on_c, 6, 60, 70
8, 171230, Note_on_c, 6, 64, 70
8, 171230, Note_on_c, 6, 67, 70
8, 171300, Note_off_c, 6, 60, 64
8, 171305, Note_off_c, 6, 67, 64
8, 171315, Note_off_c, 6, 64, 64
8, 171830, Note_on_c, 6, 60, 70
8, 171830, Note_on_c, 6, 64, 70
8, 171830, Note_on_c, 6, 67, 70
8, 171830, Note_on_c, 6, 76, 90
8, 171830, Note_on_c, 6, 79, 90
8, 171980, Pitch_bend_c, 6, 8517
8, 172000, Note_off_c, 6, 79, 64
8, 172010, Pitch_bend_c, 6, 16383
8, 172020, Note_off_c, 6, 76, 64
8, 172065, Note_off_c, 6, 60, 64
8, 172110, Note_off_c, 6, 67, 64
8, 172115, Note_off_c, 6, 64, 64
8, 172115, Pitch_bend_c, 6, 15082
8, 172150, Pitch_bend_c, 6, 9622
8, 172170, Pitch_bend_c, 6, 8192
8, 172310, Note_on_c, 6, 60, 70
8, 172310, Note_on_c, 6, 64, 90
8, 172310, Note_on_c, 6, 67, 90
8, 172410, Pitch_bend_c, 6, 11182
8, 172430, Pitch_bend_c, 6, 15082
8, 172455, Pitch_bend_c, 6, 16317
8, 172480, Pitch_bend_c, 6, 16383
8, 172520, Note_off_c, 6, 60, 64
8, 172525, Note_off_c, 6, 64, 64
8, 172530, Note_off_c, 6, 67, 64
8, 172575, Pitch_bend_c, 6, 14757
8, 172595, Pitch_bend_c, 6, 12417
8, 172630, Pitch_bend_c, 6, 8192
8, 172790, Note_on_c, 6, 52, 70
8, 173015, Note_off_c, 6, 52, 64
8, 173030, Note_on_c, 6, 62, 70
8, 173030, Note_on_c, 6, 67, 70
8, 173030, Note_on_c, 6, 71, 70
8, 173075, Note_off_c, 6, 67, 64
8, 173085, Note_off_c, 6, 62, 64
8, 173085, Note_off_c, 6, 71, 64
8, 173150, Note_on_c, 6, 62, 70
8, 173150, Note_on_c, 6, 67, 70
8, 173150, Note_on_c, 6, 71, 70
8, 173205, Note_off_c, 6, 62, 64
8, 173215, Note_off_c, 6, 67, 64
8, 173220, Note_off_c, 6, 71, 64
8, 173510, Note_on_c, 6, 62, 70
8, 173510, Note_on_c, 6, 67, 70
8, 173510, Note_on_c, 6, 71, 70
8, 173565, Note_off_c, 6, 62, 64
8, 173570, Note_off_c, 6, 67, 64
8, 173580, Note_off_c, 6, 71, 64
8, 173750, Note_on_c, 6, 62, 70
8, 173750, Note_on_c, 6, 66, 70
8, 173750, Note_on_c, 6, 69, 70
8, 174010, Note_off_c, 6, 62, 64
8, 174025, Note_off_c, 6, 69, 64
8, 174035, Note_off_c, 6, 66, 64
8, 174110, Note_on_c, 6, 62, 70
8, 174110, Note_on_c, 6, 66, 70
8, 174110, Note_on_c, 6, 69, 70
8, 174350, Note_off_c, 6, 69, 64
8, 174365, Note_off_c, 6, 62, 64
8, 174405, Note_off_c, 6, 66, 64
8, 174470, Note_on_c, 6, 60, 70
8, 174470, Note_on_c, 6, 64, 70
8, 174470, Note_on_c, 6, 67, 70
8, 174790, Note_off_c, 6, 60, 64
8, 174840, Note_off_c, 6, 67, 64
8, 174850, Note_off_c, 6, 64, 64
8, 174950, Note_on_c, 6, 60, 70
8, 174950, Note_on_c, 6, 64, 70
8, 174950, Note_on_c, 6, 67, 70
8, 174985, Note_off_c, 6, 64, 64
8, 174995, Note_off_c, 6, 67, 64
8, 175000, Note_off_c, 6, 60, 64
8, 175070, Note_on_c, 6, 60, 70
8, 175070, Note_on_c, 6, 64, 70
8, 175070, Note_on_c, 6, 67, 70
8, 175135, Note_off_c, 6, 60, 64
8, 175150, Note_off_c, 6, 64, 64
8, 175150, Note_off_c, 6, 67, 64
8, 175670, Note_on_c, 6, 60, 70
8, 175670, Note_on_c, 6, 64, 70
8, 175670, Note_on_c, 6, 67, 70
8, 175810, Note_off_c, 6, 60, 64
8, 175830, Note_off_c, 6, 67, 64
8, 175835, Note_off_c, 6, 64, 64
8, 176150, Note_on_c, 6, 57, 70
8, 176150, Note_on_c, 6, 62, 70
8, 176150, Note_on_c, 6, 66, 70
8, 176325, Note_off_c, 6, 57, 64
8, 176350, Note_off_c, 6, 62, 64
8, 176360, Note_off_c, 6, 66, 64
8, 176630, Note_on_c, 6, 52, 70
8, 176840, Note_off_c, 6, 52, 64
8, 176870, Note_on_c, 6, 62, 70
8, 176870, Note_on_c, 6, 67, 70
8, 176870, Note_on_c, 6, 71, 70
8, 176920, Note_off_c, 6, 67, 64
8, 176930, Note_off_c, 6, 71, 64
8, 176935, Note_off_c, 6, 62, 64
8, 176990, Note_on_c, 6, 62, 70
8, 176990, Note_on_c, 6, 67, 70
8, 176990, Note_on_c, 6, 71, 70
8, 177065, Note_off_c, 6, 71, 64
8, 177065, Note_off_c, 6, 62, 64
8, 177070, Note_off_c, 6, 67, 64
8, 177350, Note_on_c, 6, 62, 70
8, 177350, Note_on_c, 6, 67, 70
8, 177350, Note_on_c, 6, 71, 70
8, 177410, Note_off_c, 6, 67, 64
8, 177410, Note_off_c, 6, 62, 64
8, 177415, Note_off_c, 6, 71, 64
8, 177590, Note_on_c, 6, 62, 70
8, 177590, Note_on_c, 6, 66, 70
8, 177590, Note_on_c, 6, 69, 70
8, 177820, Note_off_c, 6, 62, 64
8, 177845, Note_off_c, 6, 69, 64
8, 177855, Note_off_c, 6, 66, 64
8, 177950, Note_on_c, 6, 62, 70
8, 177950, Note_on_c, 6, 66, 70
8, 177950, Note_on_c, 6, 69, 70
8, 178215, Note_off_c, 6, 62, 64
8, 178220, Note_off_c, 6, 69, 64
8, 178255, Note_off_c, 6, 66, 64
8, 178310, Note_on_c, 6, 60, 70
8, 178310, Note_on_c, 6, 64, 70
8, 178310, Note_on_c, 6, 67, 70
8, 178605, Note_off_c, 6, 60, 64
8, 178665, Note_off_c, 6, 67, 64
8, 178685, Note_off_c, 6, 64, 64
8, 178790, Note_on_c, 6, 60, 70
8, 178790, Note_on_c, 6, 64, 70
8, 178790, Note_on_c, 6, 67, 70
8, 178835, Note_off_c, 6, 67, 64
8, 178840, Note_off_c, 6, 64, 64
8, 178840, Note_off_c, 6, 60, 64
8, 178910, Note_on_c, 6, 60, 70
8, 178910, Note_on_c, 6, 64, 70
8, 178910, Note_on_c, 6, 67, 70
8, 178990, Note_off_c, 6, 60, 64
8, 178995, Note_off_c, 6, 64, 64
8, 179005, Note_off_c, 6, 67, 64
8, 179510, Note_on_c, 6, 60, 70
8, 179510, Note_on_c, 6, 64, 70
8, 179510, Note_on_c, 6, 67, 70
8, 179675, Note_off_c, 6, 60, 64
8, 179690, Note_off_c, 6, 64, 64
8, 179705, Note_off_c, 6, 67, 64
8, 179990, Note_on_c, 6, 60, 70
8, 179990, Note_on_c, 6, 64, 70
8, 179990, Note_on_c, 6, 67, 70
8, 180180, Note_off_c, 6, 64, 64
8, 180185, Note_off_c, 6, 60, 64
8, 180195, Note_off_c, 6, 67, 64
8, 180470, Note_on_c, 6, 52, 70
8, 180675, Note_off_c, 6, 52, 64
8, 180710, Note_on_c, 6, 62, 70
8, 180710, Note_on_c, 6, 67, 70
8, 180710, Note_on_c, 6, 71, 70
8, 180745, Note_off_c, 6, 67, 64
8, 180755, Note_off_c, 6, 71, 64
8, 180760, Note_off_c, 6, 62, 64
8, 180830, Note_on_c, 6, 62, 70
8, 180830, Note_on_c, 6, 67, 70
8, 180830, Note_on_c, 6, 71, 70
8, 180895, Note_off_c, 6, 67, 64
8, 180895, Note_off_c, 6, 62, 64
8, 180900, Note_off_c, 6, 71, 64
8, 181190, Note_on_c, 6, 62, 70
8, 181190, Note_on_c, 6, 67, 70
8, 181190, Note_on_c, 6, 71, 70
8, 181250, Note_off_c, 6, 67, 64
8, 181250, Note_off_c, 6, 62, 64
8, 181260, Note_off_c, 6, 71, 64
8, 181430, Note_on_c, 6, 62, 70
8, 181430, Note_on_c, 6, 66, 70
8, 181430, Note_on_c, 6, 69, 70
8, 181700, Note_off_c, 6, 62, 64
8, 181715, Note_off_c, 6, 66, 64
8, 181720, Note_off_c, 6, 69, 64
8, 181790, Note_on_c, 6, 62, 70
8, 181790, Note_on_c, 6, 66, 70
8, 181790, Note_on_c, 6, 69, 70
8, 182030, Note_off_c, 6, 69, 64
8, 182045, Note_off_c, 6, 62, 64
8, 182090, Note_off_c, 6, 66, 64
8, 182150, Note_on_c, 6, 60, 70
8, 182150, Note_on_c, 6, 64, 70
8, 182150, Note_on_c, 6, 67, 70
8, 182450, Note_off_c, 6, 60, 64
8, 182490, Note_off_c, 6, 67, 64
8, 182500, Note_off_c, 6, 64, 64
8, 182630, Note_on_c, 6, 60, 70
8, 182630, Note_on_c, 6, 64, 70
8, 182630, Note_on_c, 6, 67, 70
8, 182670, Note_off_c, 6, 64, 64
8, 182675, Note_off_c, 6, 60, 64
8, 182680, Note_off_c, 6, 67, 64
8, 182750, Note_on_c, 6, 60, 70
8, 182750, Note_on_c, 6, 64, 70
8, 182750, Note_on_c, 6, 67, 70
8, 182830, Note_off_c, 6, 60, 64
8, 182835, Note_off_c, 6, 64, 64
8, 182835, Note_off_c, 6, 67, 64
8, 183350, Note_on_c, 6, 60, 70
8, 183350, Note_on_c, 6, 64, 70
8, 183350, Note_on_c, 6, 67, 70
8, 183485, Note_off_c, 6, 60, 64
8, 183500, Note_off_c, 6, 67, 64
8, 183515, Note_off_c, 6, 64, 64
8, 183830, Note_on_c, 6, 57, 70
8, 183830, Note_on_c, 6, 62, 70
8, 183830, Note_on_c, 6, 66, 70
8, 184175, Note_off_c, 6, 57, 64
8, 184205, Note_off_c, 6, 66, 64
8, 184230, Note_off_c, 6, 62, 64
8, 184310, Note_on_c, 6, 52, 70
8, 184550, Note_on_c, 6, 62, 70
8, 184550, Note_on_c, 6, 67, 70
8, 184550, Note_on_c, 6, 71, 70
8, 184565, Note_off_c, 6, 52, 64
8, 184580, Note_off_c, 6, 67, 64
8, 184590, Note_off_c, 6, 71, 64
8, 184600, Note_off_c, 6, 62, 64
8, 184670, Note_on_c, 6, 62, 70
8, 184670, Note_on_c, 6, 67, 70
8, 184670, Note_on_c, 6, 71, 70
8, 184715, Note_off_c, 6, 62, 64
8, 184730, Note_off_c, 6, 67, 64
8, 184740, Note_off_c, 6, 71, 64
8, 185030, Note_on_c, 6, 62, 70
8, 185030, Note_on_c, 6, 67, 70
8, 185030, Note_on_c, 6, 71, 70
8, 185080, Note_off_c, 6, 67, 64
8, 185080, Note_off_c, 6, 62, 64
8, 185085, Note_off_c, 6, 71, 64
8, 185270, Note_on_c, 6, 62, 70
8, 185270, Note_on_c, 6, 66, 70
8, 185270, Note_on_c, 6, 69, 70
8, 185515, Note_off_c, 6, 62, 64
8, 185535, Note_off_c, 6, 69, 64
8, 185540, Note_off_c, 6, 66, 64
8, 185630, Note_on_c, 6, 62, 70
8, 185630, Note_on_c, 6, 66, 70
8, 185630, Note_on_c, 6, 69, 70
8, 185865, Note_off_c, 6, 69, 64
8, 185880, Note_off_c, 6, 62, 64
8, 185935, Note_off_c, 6, 66, 64
8, 185990, Note_on_c, 6, 60, 70
8, 185990, Note_on_c, 6, 64, 70
8, 185990, Note_on_c, 6, 67, 70
8, 186325, Note_off_c, 6, 60, 64
8, 186350, Note_off_c, 6, 67, 64
8, 186370, Note_off_c, 6, 64, 64
8, 186470, Note_on_c, 6, 60, 70
8, 186470, Note_on_c, 6, 64, 70
8, 186470, Note_on_c, 6, 67, 70
8, 186510, Note_off_c, 6, 64, 64
8, 186520, Note_off_c, 6, 67, 64
8, 186525, Note_off_c, 6, 60, 64
8, 186590, Note_on_c, 6, 60, 70
8, 186590, Note_on_c, 6, 64, 70
8, 186590, Note_on_c, 6, 67, 70
8, 186660, Note_off_c, 6, 60, 64
8, 186665, Note_off_c, 6, 67, 64
8, 186675, Note_off_c, 6, 64, 64
8, 187190, Note_on_c, 6, 60, 70
8, 187190, Note_on_c, 6, 64, 70
8, 187190, Note_on_c, 6, 67, 70
8, 187425, Note_off_c, 6, 60, 64
8, 187470, Note_off_c, 6, 67, 64
8, 187475, Note_off_c, 6, 64, 64
8, 187670, Note_on_c, 6, 60, 70
8, 187670, Note_on_c, 6, 64, 70
8, 187670, Note_on_c, 6, 67, 70
8, 187880, Note_off_c, 6, 60, 64
8, 187915, Note_off_c, 6, 67, 64
8, 187925, Note_off_c, 6, 64, 64
8, 188150, Note_on_c, 6, 52, 70
8, 188375, Note_off_c, 6, 52, 64
8, 188390, Note_on_c, 6, 62, 70
8, 188390, Note_on_c, 6, 67, 70
8, 188390, Note_on_c, 6, 71, 70
8, 188435, Note_off_c, 6, 67, 64
8, 188445, Note_off_c, 6, 62, 64
8, 188445, Note_off_c, 6, 71, 64
8, 188510, Note_on_c, 6, 62, 70
8, 188510, Note_on_c, 6, 67, 70
8, 188510, Note_on_c, 6, 71, 70
8, 188565, Note_off_c, 6, 62, 64
8, 188575, Note_off_c, 6, 67, 64
8, 188580, Note_off_c, 6, 71, 64
8, 188870, Note_on_c, 6, 62, 70
8, 188870, Note_on_c, 6, 67, 70
8, 188870, Note_on_c, 6, 71, 70
8, 188925, Note_off_c, 6, 62, 64
8, 188930, Note_off_c, 6, 67, 64
8, 188940, Note_off_c, 6, 71, 64
8, 189110, Note_on_c, 6, 62, 70
8, 189110, Note_on_c, 6, 66, 70
8, 189110, Note_on_c, 6, 69, 70
8, 189370, Note_off_c, 6, 62, 64
8, 189385, Note_off_c, 6, 69, 64
8, 189395, Note_off_c, 6, 66, 64
8, 189470, Note_on_c, 6, 62, 70
8, 189470, Note_on_c, 6, 66, 70
8, 189470, Note_on_c, 6, 69, 70
8, 189710, Note_off_c, 6, 69, 64
8, 189725, Note_off_c, 6, 62, 64
8, 189765, Note_off_c, 6, 66, 64
8, 189830, Note_on_c, 6, 60, 70
8, 189830, Note_on_c, 6, 64, 70
8, 189830, Note_on_c, 6, 67, 70
8, 190150, Note_off_c, 6, 60, 64
8, 190200, Note_off_c, 6, 67, 64
8, 190210, Note_off_c, 6, 64, 64
8, 190310, Note_on_c, 6, 60, 70
8, 190310, Note_on_c, 6, 64, 70
8, 190310, Note_on_c, 6, 67, 70
8, 190345, Note_off_c, 6, 64, 64
8, 190355, Note_off_c, 6, 67, 64
8, 190360, Note_off_c, 6, 60, 64
8, 190430, Note_on_c, 6, 60, 70
8, 190430, Note_on_c, 6, 64, 70
8, 190430, Note_on_c, 6, 67, 70
8, 190495, Note_off_c, 6, 60, 64
8, 190510, Note_off_c, 6, 64, 64
8, 190510, Note_off_c, 6, 67, 64
8, 191030, Note_on_c, 6, 60, 70
8, 191030, Note_on_c, 6, 64, 70
8, 191030, Note_on_c, 6, 67, 70
8, 191170, Note_off_c, 6, 60, 64
8, 191190, Note_off_c, 6, 67, 64
8, 191195, Note_off_c, 6, 64, 64
8, 191510, Note_on_c, 6, 57, 70
8, 191510, Note_on_c, 6, 62, 70
8, 191510, Note_on_c, 6, 66, 70
8, 191685, Note_off_c, 6, 57, 64
8, 191710, Note_off_c, 6, 62, 64
8, 191720, Note_off_c, 6, 66, 64
8, 191990, Note_on_c, 6, 52, 70
8, 192200, Note_off_c, 6, 52, 64
8, 192230, Note_on_c, 6, 62, 70
8, 192230, Note_on_c, 6, 67, 70
8, 192230, Note_on_c, 6, 71, 70
8, 192280, Note_off_c, 6, 67, 64
8, 192290, Note_off_c, 6, 71, 64
8, 192295, Note_off_c, 6, 62, 64
8, 192350, Note_on_c, 6, 62, 70
8, 192350, Note_on_c, 6, 67, 70
8, 192350, Note_on_c, 6, 71, 70
8, 192425, Note_off_c, 6, 71, 64
8, 192425, Note_off_c, 6, 62, 64
8, 192430, Note_off_c, 6, 67, 64
8, 192710, Note_on_c, 6, 62, 70
8, 192710, Note_on_c, 6, 67, 70
8, 192710, Note_on_c, 6, 71, 70
8, 192770, Note_off_c, 6, 67, 64
8, 192770, Note_off_c, 6, 62, 64
8, 192775, Note_off_c, 6, 71, 64
8, 192950, Note_on_c, 6, 62, 70
8, 192950, Note_on_c, 6, 66, 70
8, 192950, Note_on_c, 6, 69, 70
8, 193180, Note_off_c, 6, 62, 64
8, 193205, Note_off_c, 6, 69, 64
8, 193215, Note_off_c, 6, 66, 64
8, 193310, Note_on_c, 6, 62, 70
8, 193310, Note_on_c, 6, 66, 70
8, 193310, Note_on_c, 6, 69, 70
8, 193575, Note_off_c, 6, 62, 64
8, 193580, Note_off_c, 6, 69, 64
8, 193615, Note_off_c, 6, 66, 64
8, 193670, Note_on_c, 6, 60, 70
8, 193670, Note_on_c, 6, 64, 70
8, 193670, Note_on_c, 6, 67, 70
8, 193965, Note_off_c, 6, 60, 64
8, 194025, Note_off_c, 6, 67, 64
8, 194045, Note_off_c, 6, 64, 64
8, 194150, Note_on_c, 6, 60, 70
8, 194150, Note_on_c, 6, 64, 70
8, 194150, Note_on_c, 6, 67, 70
8, 194195, Note_off_c, 6, 67, 64
8, 194200, Note_off_c, 6, 64, 64
8, 194200, Note_off_c, 6, 60, 64
8, 194270, Note_on_c, 6, 60, 70
8, 194270, Note_on_c, 6, 64, 70
8, 194270, Note_on_c, 6, 67, 70
8, 194350, Note_off_c, 6, 60, 64
8, 194355, Note_off_c, 6, 64, 64
8, 194365, Note_off_c, 6, 67, 64
8, 194870, Note_on_c, 6, 60, 70
8, 194870, Note_on_c, 6, 64, 70
8, 194870, Note_on_c, 6, 67, 70
8, 195035, Note_off_c, 6, 60, 64
8, 195050, Note_off_c, 6, 64, 64
8, 195065, Note_off_c, 6, 67, 64
8, 195350, Note_on_c, 6, 60, 70
8, 195350, Note_on_c, 6, 64, 70
8, 195350, Note_on_c, 6, 67, 70
8, 195540, Note_off_c, 6, 64, 64
8, 195545, Note_off_c, 6, 60, 64
8, 195555, Note_off_c, 6, 67, 64
8, 195830, Note_on_c, 6, 40, 70
8, 196090, Note_off_c, 6, 40, 64
8, 196790, Note_on_c, 6, 47, 70
8, 197040, Note_off_c, 6, 47, 64
8, 197270, Note_on_c, 6, 48, 70
8, 197560, Note_off_c, 6, 48, 64
8, 197750, Note_on_c, 6, 50, 70
8, 198010, Note_off_c, 6, 50, 64
8, 198710, Note_on_c, 6, 45, 70
8, 198985, Note_off_c, 6, 45, 64
8, 199190, Note_on_c, 6, 47, 70
8, 199495, Note_off_c, 6, 47, 64
8, 199670, Note_on_c, 6, 40, 70
8, 199940, Note_off_c, 6, 40, 64
8, 200630, Note_on_c, 6, 47, 70
8, 200865, Note_off_c, 6, 47, 64
8, 201110, Note_on_c, 6, 48, 70
8, 201385, Note_off_c, 6, 48, 64
8, 201590, Note_on_c, 6, 50, 70
8, 201855, Note_off_c, 6, 50, 64
8, 202550, Note_on_c, 6, 76, 90
8, 202550, Note_on_c, 6, 79, 90
8, 202690, Pitch_bend_c, 6, 15732
8, 202710, Pitch_bend_c, 6, 16383
8, 202755, Note_off_c, 6, 79, 64
8, 202760, Note_off_c, 6, 76, 64
8, 202815, Pitch_bend_c, 6, 15602
8, 202850, Pitch_bend_c, 6, 10207
8, 202870, Pitch_bend_c, 6, 8192
8, 203030, Note_on_c, 6, 76, 90
8, 203030, Note_on_c, 6, 79, 90
8, 203170, Pitch_bend_c, 6, 14497
8, 203190, Pitch_bend_c, 6, 16383
8, 203235, Note_off_c, 6, 79, 64
8, 203245, Note_off_c, 6, 76, 64
8, 203310, Pitch_bend_c, 6, 15017
8, 203330, Pitch_bend_c, 6, 12417
8, 203365, Pitch_bend_c, 6, 8192
8, 203510, Note_on_c, 6, 40, 70
8, 203770, Note_off_c, 6, 40, 64
8, 204470, Note_on_c, 6, 47, 70
8, 204720, Note_off_c, 6, 47, 64
8, 204950, Note_on_c, 6, 48, 70
8, 205240, Note_off_c, 6, 48, 64
8, 205430, Note_on_c, 6, 50, 70
8, 205690, Note_off_c, 6, 50, 64
8, 206390, Note_on_c, 6, 45, 70
8, 206665, Note_off_c, 6, 45, 64
8, 206870, Note_on_c, 6, 47, 70
8, 207175, Note_off_c, 6, 47, 64
8, 207350, Note_on_c, 6, 40, 70
8, 207620, Note_off_c, 6, 40, 64
8, 208310, Note_on_c, 6, 47, 70
8, 208545, Note_off_c, 6, 47, 64
8, 208790, Note_on_c, 6, 48, 70
8, 209065, Note_off_c, 6, 48, 64
8, 209270, Note_on_c, 6, 50, 70
8, 209535, Note_off_c, 6, 50, 64
8, 211190, Note_on_c, 6, 52, 70
8, 211395, Note_off_c, 6, 52, 64
8, 211430, Note_on_c, 6, 62, 70
8, 211430, Note_on_c, 6, 67, 70
8, 211430, Note_on_c, 6, 71, 70
8, 211465, Note_off_c, 6, 67, 64
8, 211475, Note_off_c, 6, 71, 64
8, 211480, Note_off_c, 6, 62, 64
8, 211550, Note_on_c, 6, 62, 70
8, 211550, Note_on_c, 6, 67, 70
8, 211550, Note_on_c, 6, 71, 70
8, 211615, Note_off_c, 6, 67, 64
8, 211615, Note_off_c, 6, 62, 64
8, 211620, Note_off_c, 6, 71, 64
8, 211910, Note_on_c, 6, 62, 70
8, 211910, Note_on_c, 6, 67, 70
8, 211910, Note_on_c, 6, 71, 70
8, 211970, Note_off_c, 6, 67, 64
8, 211970, Note_off_c, 6, 62, 64
8, 211980, Note_off_c, 6, 71, 64
8, 212150, Note_on_c, 6, 62, 70
8, 212150, Note_on_c, 6, 66, 70
8, 212150, Note_on_c, 6, 69, 70
8, 212420, Note_off_c, 6, 62, 64
8, 212435, Note_off_c, 6, 66, 64
8, 212440, Note_off_c, 6, 69, 64
8, 212510, Note_on_c, 6, 62, 70
8, 212510, Note_on_c, 6, 66, 70
8, 212510, Note_on_c, 6, 69, 70
8, 212750, Note_off_c, 6, 69, 64
8, 212765, Note_off_c, 6, 62, 64
8, 212810, Note_off_c, 6, 66, 64
8, 212870, Note_on_c, 6, 60, 70
8, 212870, Note_on_c, 6, 64, 70
8, 212870, Note_on_c, 6, 67, 70
8, 213170, Note_off_c, 6, 60, 64
8, 213210, Note_off_c, 6, 67, 64
8, 213220, Note_off_c, 6, 64, 64
8, 213350, Note_on_c, 6, 60, 70
8, 213350, Note_on_c, 6, 64, 70
8, 213350, Note_on_c, 6, 67, 70
8, 213390, Note_off_c, 6, 64, 64
8, 213395, Note_off_c, 6, 60, 64
8, 213400, Note_off_c, 6, 67, 64
8, 213470, Note_on_c, 6, 60, 70
8, 213470, Note_on_c, 6, 64, 70
8, 213470, Note_on_c, 6, 67, 70
8, 213550, Note_off_c, 6, 60, 64
8, 213555, Note_off_c, 6, 64, 64
8, 213555, Note_off_c, 6, 67, 64
8, 214070, Note_on_c, 6, 60, 70
8, 214070, Note_on_c, 6, 64, 70
8, 214070, Note_on_c, 6, 67, 70
8, 214205, Note_off_c, 6, 60, 64
8, 214220, Note_off_c, 6, 67, 64
8, 214235, Note_off_c, 6, 64, 64
8, 214550, Note_on_c, 6, 57, 70
8, 214550, Note_on_c, 6, 62, 70
8, 214550, Note_on_c, 6, 66, 70
8, 214895, Note_off_c, 6, 57, 64
8, 214925, Note_off_c, 6, 66, 64
8, 214950, Note_off_c, 6, 62, 64
8, 215030, Note_on_c, 6, 52, 70
8, 215270, Note_on_c, 6, 62, 70
8, 215270, Note_on_c, 6, 67, 70
8, 215270, Note_on_c, 6, 71, 70
8, 215285, Note_off_c, 6, 52, 64
8, 215300, Note_off_c, 6, 67, 64
8, 215310, Note_off_c, 6, 71, 64
8, 215320, Note_off_c, 6, 62, 64
8, 215390, Note_on_c, 6, 62, 70
8, 215390, Note_on_c, 6, 67, 70
8, 215390, Note_on_c, 6, 71, 70
8, 215435, Note_off_c, 6, 62, 64
8, 215450, Note_off_c, 6, 67, 64
8, 215460, Note_off_c, 6, 71, 64
8, 215750, Note_on_c, 6, 62, 70
8, 215750, Note_on_c, 6, 67, 70
8, 215750, Note_on_c, 6, 71, 70
8, 215800, Note_off_c, 6, 67, 64
8, 215800, Note_off_c, 6, 62, 64
8, 215805, Note_off_c, 6, 71, 64
8, 215990, Note_on_c, 6, 62, 70
8, 215990, Note_on_c, 6, 66, 70
8, 215990, Note_on_c, 6, 69, 70
8, 216235, Note_off_c, 6, 62, 64
8, 216255, Note_off_c, 6, 69, 64
8, 216260, Note_off_c, 6, 66, 64
8, 216350, Note_on_c, 6, 62, 70
8, 216350, Note_on_c, 6, 66, 70
8, 216350, Note_on_c, 6, 69, 70
8, 216585, Note_off_c, 6, 69, 64
8, 216600, Note_off_c, 6, 62, 64
8, 216655, Note_off_c, 6, 66, 64
8, 216710, Note_on_c, 6, 60, 70
8, 216710, Note_on_c, 6, 64, 70
8, 216710, Note_on_c, 6, 67, 70
8, 217045, Note_off_c, 6, 60, 64
8, 217070, Note_off_c, 6, 67, 64
8, 217090, Note_off_c, 6, 64, 64
8, 217190, Note_on_c, 6, 60, 70
8, 217190, Note_on_c, 6, 64, 70
8, 217190, Note_on_c, 6, 67, 70
8, 217230, Note_off_c, 6, 64, 64
8, 217240, Note_off_c, 6, 67, 64
8, 217245, Note_off_c, 6, 60, 64
8, 217310, Note_on_c, 6, 60, 70
8, 217310, Note_on_c, 6, 64, 70
8, 217310, Note_on_c, 6, 67, 70
8, 217380, Note_off_c, 6, 60, 64
8, 217385, Note_off_c, 6, 67, 64
8, 217395, Note_off_c, 6, 64, 64
8, 217910, Note_on_c, 6, 60, 70
8, 217910, Note_on_c, 6, 64, 70
8, 217910, Note_on_c, 6, 67, 70
8, 218145, Note_off_c, 6, 60, 64
8, 218190, Note_off_c, 6, 67, 64
8, 218195, Note_off_c, 6, 64, 64
8, 218390, Note_on_c, 6, 60, 70
8, 218390, Note_on_c, 6, 64, 70
8, 218390, Note_on_c, 6, 67, 70
8, 218600, Note_off_c, 6, 60, 64
8, 218635, Note_off_c, 6, 67, 64
8, 218645, Note_off_c, 6, 64, 64
8, 218870, Note_on_c, 6, 52, 70
8, 219095, Note_off_c, 6, 52, 64
8, 219110, Note_on_c, 6, 62, 70
8, 219110, Note_on_c, 6, 67, 70
8, 219110, Note_on_c, 6, 71, 70
8, 219155, Note_off_c, 6, 67, 64
8, 219165, Note_off_c, 6, 62, 64
8, 219165, Note_off_c, 6, 71, 64
8, 219230, Note_on_c, 6, 62, 70
8, 219230, Note_on_c, 6, 67, 70
8, 219230, Note_on_c, 6, 71, 70
8, 219285, Note_off_c, 6, 62, 64
8, 219295, Note_off_c, 6, 67, 64
8, 219300, Note_off_c, 6, 71, 64
8, 219590, Note_on_c, 6, 62, 70
8, 219590, Note_on_c, 6, 67, 70
8, 219590, Note_on_c, 6, 71, 70
8, 219645, Note_off_c, 6, 62, 64
8, 219650, Note_off_c, 6, 67, 64
8, 219660, Note_off_c, 6, 71, 64
8, 219830, Note_on_c, 6, 62, 70
8, 219830, Note_on_c, 6, 66, 70
8, 219830, Note_on_c, 6, 69, 70
8, 220090, Note_off_c, 6, 62, 64
8, 220105, Note_off_c, 6, 69, 64
8, 220115, Note_off_c, 6, 66, 64
8, 220190, Note_on_c, 6, 62, 70
8, 220190, Note_on_c, 6, 66, 70
8, 220190, Note_on_c, 6, 69, 70
8, 220430, Note_off_c, 6, 69, 64
8, 220445, Note_off_c, 6, 62, 64
8, 220485, Note_off_c, 6, 66, 64
8, 220550, Note_on_c, 6, 60, 70
8, 220550, Note_on_c, 6, 64, 70
8, 220550, Note_on_c, 6, 67, 70
8, 220870, Note_off_c, 6, 60, 64
8, 220920, Note_off_c, 6, 67, 64
8, 220930, Note_off_c, 6, 64, 64
8, 221030, Note_on_c, 6, 60, 70
8, 221030, Note_on_c, 6, 64, 70
8, 221030, Note_on_c, 6, 67, 70
8, 221065, Note_off_c, 6, 64, 64
8, 221075, Note_off_c, 6, 67, 64
8, 221080, Note_off_c, 6, 60, 64
8, 221150, Note_on_c, 6, 60, 70
8, 221150, Note_on_c, 6, 64, 70
8, 221150, Note_on_c, 6, 67, 70
8, 221215, Note_off_c, 6, 60, 64
8, 221230, Note_off_c, 6, 64, 64
8, 221230, Note_off_c, 6, 67, 64
8, 221750, Note_on_c, 6, 60, 70
8, 221750, Note_on_c, 6, 64, 70
8, 221750, Note_on_c, 6, 67, 70
8, 221890, Note_off_c, 6, 60, 64
8, 221910, Note_off_c, 6, 67, 64
8, 221915, Note_off_c, 6, 64, 64
8, 222230, Note_on_c, 6, 57, 70
8, 222230, Note_on_c, 6, 62, 70
8, 222230, Note_on_c, 6, 66, 70
8, 222405, Note_off_c, 6, 57, 64
8, 222430, Note_off_c, 6, 62, 64
8, 222440, Note_off_c, 6, 66, 64
8, 222710, Note_on_c, 6, 52, 70
8, 222920, Note_off_c, 6, 52, 64
8, 222950, Note_on_c, 6, 62, 70
8, 222950, Note_on_c, 6, 67, 70
8, 222950, Note_on_c, 6, 71, 70
8, 223000, Note_off_c, 6, 67, 64
8, 223010, Note_off_c, 6, 71, 64
8, 223015, Note_off_c, 6, 62, 64
8, 223070, Note_on_c, 6, 62, 70
8, 223070, Note_on_c, 6, 67, 70
8, 223070, Note_on_c, 6, 71, 70
8, 223145, Note_off_c, 6, 71, 64
8, 223145, Note_off_c, 6, 62, 64
8, 223150, Note_off_c, 6, 67, 64
8, 223430, Note_on_c, 6, 62, 70
8, 223430, Note_on_c, 6, 67, 70
8, 223430, Note_on_c, 6, 71, 70
8, 223490, Note_off_c, 6, 67, 64
8, 223490, Note_off_c, 6, 62, 64
8, 223495, Note_off_c, 6, 71, 64
8, 223670, Note_on_c, 6, 62, 70
8, 223670, Note_on_c, 6, 66, 70
8, 223670, Note_on_c, 6, 69, 70
8, 223900, Note_off_c, 6, 62, 64
8, 223925, Note_off_c, 6, 69, 64
8, 223935, Note_off_c, 6, 66, 64
8, 224030, Note_on_c, 6, 62, 70
8, 224030, Note_on_c, 6, 66, 70
8, 224030, Note_on_c, 6, 69, 70
8, 224295, Note_off_c, 6, 62, 64
8, 224300, Note_off_c, 6, 69, 64
8, 224335, Note_off_c, 6, 66, 64
8, 224390, Note_on_c, 6, 60, 70
8, 224390, Note_on_c, 6, 64, 70
8, 224390, Note_on_c, 6, 67, 70
8, 224685, Note_off_c, 6, 60, 64
8, 224745, Note_off_c, 6, 67, 64
8, 224765, Note_off_c, 6, 64, 64
8, 224870, Note_on_c, 6, 60, 70
8, 224870, Note_on_c, 6, 64, 70
8, 224870, Note_on_c, 6, 67, 70
8, 224915, Note_off_c, 6, 67, 64
8, 224920, Note_off_c, 6, 64, 64
8, 224920, Note_off_c, 6, 60, 64
8, 224990, Note_on_c, 6, 60, 70
8, 224990, Note_on_c, 6, 64, 70
8, 224990, Note_on_c, 6, 67, 70
8, 225070, Note_off_c, 6, 60, 64
8, 225075, Note_off_c, 6, 64, 64
8, 225085, Note_off_c, 6, 67, 64
8, 225590, Note_on_c, 6, 60, 70
8, 225590, Note_on_c, 6, 64, 70
8, 225590, Note_on_c, 6, 67, 70
8, 225755, Note_off_c, 6, 60, 64
8, 225770, Note_off_c, 6, 64, 64
8, 225785, Note_off_c, 6, 67, 64
8, 226070, Note_on_c, 6, 60, 70
8, 226070, Note_on_c, 6, 64, 70
8, 226070, Note_on_c, 6, 67, 70
8, 226260, Note_off_c, 6, 64, 64
8, 226265, Note_off_c, 6, 60, 64
8, 226275, Note_off_c, 6, 67, 64
8, 226550, Note_on_c, 6, 52, 70
8, 226755, Note_off_c, 6, 52, 64
8, 226790, Note_on_c, 6, 62, 70
8, 226790, Note_on_c, 6, 67, 70
8, 226790, Note_on_c, 6, 71, 70
8, 226825, Note_off_c, 6, 67, 64
8, 226835, Note_off_c, 6, 71, 64
8, 226840, Note_off_c, 6, 62, 64
8, 226910, Note_on_c, 6, 62, 70
8, 226910, Note_on_c, 6, 67, 70
8, 226910, Note_on_c, 6, 71, 70
8, 226975, Note_off_c, 6, 67, 64
8, 226975, Note_off_c, 6, 62, 64
8, 226980, Note_off_c, 6, 71, 64
8, 227270, Note_on_c, 6, 62, 70
8, 227270, Note_on_c, 6, 67, 70
8, 227270, Note_on_c, 6, 71, 70
8, 227330, Note_off_c, 6, 67, 64
8, 227330, Note_off_c, 6, 62, 64
8, 227340, Note_off_c, 6, 71, 64
8, 227510, Note_on_c, 6, 62, 70
8, 227510, Note_on_c, 6, 66, 70
8, 227510, Note_on_c, 6, 69, 70
8, 227780, Note_off_c, 6, 62, 64
8, 227795, Note_off_c, 6, 66, 64
8, 227800, Note_off_c, 6, 69, 64
8, 227870, Note_on_c, 6, 62, 70
8, 227870, Note_on_c, 6, 66, 70
8, 227870, Note_on_c, 6, 69, 70
8, 228110, Note_off_c, 6, 69, 64
8, 228125, Note_off_c, 6, 62, 64
8, 228170, Note_off_c, 6, 66, 64
8, 228230, Note_on_c, 6, 60, 70
8, 228230, Note_on_c, 6, 64, 70
8, 228230, Note_on_c, 6, 67, 70
8, 228530, Note_off_c, 6, 60, 64
8, 228570, Note_off_c, 6, 67, 64
8, 228580, Note_off_c, 6, 64, 64
8, 228710, Note_on_c, 6, 60, 70
8, 228710, Note_on_c, 6, 64, 70
8, 228710, Note_on_c, 6, 67, 70
8, 228750, Note_off_c, 6, 64, 64
8, 228755, Note_off_c, 6, 60, 64
8, 228760, Note_off_c, 6, 67, 64
8, 228830, Note_on_c, 6, 60, 70
8, 228830, Note_on_c, 6, 64, 70
8, 228830, Note_on_c, 6, 67, 70
8, 228910, Note_off_c, 6, 60, 64
8, 228915, Note_off_c, 6, 64, 64
8, 228915, Note_off_c, 6, 67, 64
8, 229430, Note_on_c, 6, 60, 70
8, 229430, Note_on_c, 6, 64, 70
8, 229430, Note_on_c, 6, 67, 70
8, 229565, Note_off_c, 6, 60, 64
8, 229580, Note_off_c, 6, 67, 64
8, 229595, Note_off_c, 6, 64, 64
8, 229910, Note_on_c, 6, 57, 70
8, 229910, Note_on_c, 6, 62, 70
8, 229910, Note_on_c, 6, 66, 70
8, 230255, Note_off_c, 6, 57, 64
8, 230285, Note_off_c, 6, 66, 64
8, 230310, Note_off_c, 6, 62, 64
8, 230390, Note_on_c, 6, 52, 70
8, 230630, Note_on_c, 6, 62, 70
8, 230630, Note_on_c, 6, 67, 70
8, 230630, Note_on_c, 6, 71, 70
8, 230645, Note_off_c, 6, 52, 64
8, 230660, Note_off_c, 6, 67, 64
8, 230670, Note_off_c, 6, 71, 64
8, 230680, Note_off_c, 6, 62, 64
8, 230750, Note_on_c, 6, 62, 70
8, 230750, Note_on_c, 6, 67, 70
8, 230750, Note_on_c, 6, 71, 70
8, 230795, Note_off_c, 6, 62, 64
8, 230810, Note_off_c, 6, 67, 64
8, 230820, Note_off_c, 6, 71, 64
8, 231110, Note_on_c, 6, 62, 70
8, 231110, Note_on_c, 6, 67, 70
8, 231110, Note_on_c, 6, 71, 70
8, 231160, Note_off_c, 6, 67, 64
8, 231160, Note_off_c, 6, 62, 64
8, 231165, Note_off_c, 6, 71, 64
8, 231350, Note_on_c, 6, 62, 70
8, 231350, Note_on_c, 6, 66, 70
8, 231350, Note_on_c, 6, 69, 70
8, 231595, Note_off_c, 6, 62, 64
8, 231615, Note_off_c, 6, 69, 64
8, 231620, Note_off_c, 6, 66, 64
8, 231710, Note_on_c, 6, 62, 70
8, 231710, Note_on_c, 6, 66, 70
8, 231710, Note_on_c, 6, 69, 70
8, 231945, Note_off_c, 6, 69, 64
8, 231960, Note_off_c, 6, 62, 64
8, 232015, Note_off_c, 6, 66, 64
8, 232070, Note_on_c, 6, 60, 70
8, 232070, Note_on_c, 6, 64, 70
8, 232070, Note_on_c, 6, 67, 70
8, 232405, Note_off_c, 6, 60, 64
8, 232430, Note_off_c, 6, 67, 64
8, 232450, Note_off_c, 6, 64, 64
8, 232550, Note_on_c, 6, 60, 70
8, 232550, Note_on_c, 6, 64, 70
8, 232550, Note_on_c, 6, 67, 70
8, 232590, Note_off_c, 6, 64, 64
8, 232600, Note_off_c, 6, 67, 64
8, 232605, Note_off_c, 6, 60, 64
8, 232670, Note_on_c, 6, 60, 70
8, 232670, Note_on_c, 6, 64, 70
8, 232670, Note_on_c, 6, 67, 70
8, 232740, Note_off_c, 6, 60, 64
8, 232745, Note_off_c, 6, 67, 64
8, 232755, Note_off_c, 6, 64, 64
8, 233270, Note_on_c, 6, 60, 70
8, 233270, Note_on_c, 6, 64, 70
8, 233270, Note_on_c, 6, 67, 70
8, 233505, Note_off_c, 6, 60, 64
8, 233550, Note_off_c, 6, 67, 64
8, 233555, Note_off_c, 6, 64, 64
8, 233750, Note_on_c, 6, 60, 70
8, 233750, Note_on_c, 6, 64, 70
8, 233750, Note_on_c, 6, 67, 70
8, 233960, Note_off_c, 6, 60, 64
8, 233995, Note_off_c, 6, 67, 64
8, 234005, Note_off_c, 6, 64, 64
8, 234230, Note_on_c, 6, 52, 70
8, 234455, Note_off_c, 6, 52, 64
8, 234470, Note_on_c, 6, 62, 70
8, 234470, Note_on_c, 6, 67, 70
8, 234470, Note_on_c, 6, 71, 70
8, 234515, Note_off_c, 6, 67, 64
8, 234525, Note_off_c, 6, 62, 64
8, 234525, Note_off_c, 6, 71, 64
8, 234590, Note_on_c, 6, 62, 70
8, 234590, Note_on_c, 6, 67, 70
8, 234590, Note_on_c, 6, 71, 70
8, 234645, Note_off_c, 6, 62, 64
8, 234655, Note_off_c, 6, 67, 64
8, 234660, Note_off_c, 6, 71, 64
8, 234950, Note_on_c, 6, 62, 70
8, 234950, Note_on_c, 6, 67, 70
8, 234950, Note_on_c, 6, 71, 70
8, 235005, Note_off_c, 6, 62, 64
8, 235010, Note_off_c, 6, 67, 64
8, 235020, Note_off_c, 6, 71, 64
8, 235190, Note_on_c, 6, 62, 70
8, 235190, Note_on_c, 6, 66, 70
8, 235190, Note_on_c, 6, 69, 70
8, 235450, Note_off_c, 6, 62, 64
8, 235465, Note_off_c, 6, 69, 64
8, 235475, Note_off_c, 6, 66, 64
8, 235550, Note_on_c, 6, 62, 70
8, 235550, Note_on_c, 6, 66, 70
8, 235550, Note_on_c, 6, 69, 70
8, 235790, Note_off_c, 6, 69, 64
8, 235805, Note_off_c, 6, 62, 64
8, 235845, Note_off_c, 6, 66, 64
8, 235910, Note_on_c, 6, 60, 70
8, 235910, Note_on_c, 6, 64, 70
8, 235910, Note_on_c, 6, 67, 70
8, 236230, Note_off_c, 6, 60, 64
8, 236280, Note_off_c, 6, 67, 64
8, 236290, Note_off_c, 6, 64, 64
8, 236390, Note_on_c, 6, 60, 70
8, 236390, Note_on_c, 6, 64, 70
8, 236390, Note_on_c, 6, 67, 70
8, 236425, Note_off_c, 6, 64, 64
8, 236435, Note_off_c, 6, 67, 64
8, 236440, Note_off_c, 6, 60, 64
8, 236510, Note_on_c, 6, 60, 70
8, 236510, Note_on_c, 6, 64, 70
8, 236510, Note_on_c, 6, 67, 70
8, 236575, Note_off_c, 6, 60, 64
8, 236590, Note_off_c, 6, 64, 64
8, 236590, Note_off_c, 6, 67, 64
8, 237110, Note_on_c, 6, 60, 70
8, 237110, Note_on_c, 6, 64, 70
8, 237110, Note_on_c, 6, 67, 70
8, 237250, Note_off_c, 6, 60, 64
8, 237270, Note_off_c, 6, 67, 64
8, 237275, Note_off_c, 6, 64, 64
8, 237590, Note_on_c, 6, 57, 70
8, 237590, Note_on_c, 6, 62, 70
8, 237590, Note_on_c, 6, 66, 70
8, 237765, Note_off_c, 6, 57, 64
8, 237790, Note_off_c, 6, 62, 64
8, 237800, Note_off_c, 6, 66, 64
8, 238070, Note_on_c, 6, 52, 70
8, 238280, Note_off_c, 6, 52, 64
8, 238310, Note_on_c, 6, 62, 70
8, 238310, Note_on_c, 6, 67, 70
8, 238310, Note_on_c, 6, 71, 70
8, 238360, Note_off_c, 6, 67, 64
8, 238370, Note_off_c, 6, 71, 64
8, 238375, Note_off_c, 6, 62, 64
8, 238430, Note_on_c, 6, 62, 70
8, 238430, Note_on_c, 6, 67, 70
8, 238430, Note_on_c, 6, 71, 70
8, 238505, Note_off_c, 6, 71, 64
8, 238505, Note_off_c, 6, 62, 64
8, 238510, Note_off_c, 6, 67, 64
8, 238790, Note_on_c, 6, 62, 70
8, 238790, Note_on_c, 6, 67, 70
8, 238790, Note_on_c, 6, 71, 70
8, 238850, Note_off_c, 6, 67, 64
8, 238850, Note_off_c, 6, 62, 64
8, 238855, Note_off_c, 6, 71, 64
8, 239030, Note_on_c, 6, 62, 70
8, 239030, Note_on_c, 6, 66, 70
8, 239030, Note_on_c, 6, 69, 70
8, 239260, Note_off_c, 6, 62, 64
8, 239285, Note_off_c, 6, 69, 64
8, 239295, Note_off_c, 6, 66, 64
8, 239390, Note_on_c, 6, 62, 70
8, 239390, Note_on_c, 6, 66, 70
8, 239390, Note_on_c, 6, 69, 70
8, 239655, Note_off_c, 6, 62, 64
8, 239660, Note_off_c, 6, 69, 64
8, 239695, Note_off_c, 6, 66, 64
8, 239750, Note_on_c, 6, 60, 70
8, 239750, Note_on_c, 6, 64, 70
8, 239750, Note_on_c, 6, 67, 70
8, 240045, Note_off_c, 6, 60, 64
8, 240105, Note_off_c, 6, 67, 64
8, 240125, Note_off_c, 6, 64, 64
8, 240230, Note_on_c, 6, 60, 70
8, 240230, Note_on_c, 6, 64, 70
8, 240230, Note_on_c, 6, 67, 70
8, 240275, Note_off_c, 6, 67, 64
8, 240280, Note_off_c, 6, 64, 64
8, 240280, Note_off_c, 6, 60, 64
8, 240350, Note_on_c, 6, 60, 70
8, 240350, Note_on_c, 6, 64, 70
8, 240350, Note_on_c, 6, 67, 70
8, 240430, Note_off_c, 6, 60, 64
8, 240435, Note_off_c, 6, 64, 64
8, 240445, Note_off_c, 6, 67, 64
8, 240950, Note_on_c, 6, 60, 70
8, 240950, Note_on_c, 6, 64, 70
8, 240950, Note_on_c, 6, 67, 70
8, 241115, Note_off_c, 6, 60, 64
8, 241130, Note_off_c, 6, 64, 64
8, 241145, Note_off_c, 6, 67, 64
8, 241430, Note_on_c, 6, 60, 70
8, 241430, Note_on_c, 6, 64, 70
8, 241430, Note_on_c, 6, 67, 70
8, 241620, Note_off_c, 6, 64, 64
8, 241625, Note_off_c, 6, 60, 64
8, 241635, Note_off_c, 6, 67, 64
8, 241790, Note_on_c, 6, 59, 70
8, 241790, Note_on_c, 6, 64, 70
8, 241790, Note_on_c, 6, 69, 70
8, 241965, Note_off_c, 6, 59, 64
8, 241970, Note_off_c, 6, 64, 64
8, 241985, Note_off_c, 6, 69, 64
8, 241985, End_track
9, 0, Start_track
9, 0, Title_t, "tk8"
9, 0, MIDI_port, 0
9, 0, Channel_prefix, 7
9, 0, Control_c, 7, 10, 64
9, 655, Control_c, 7, 0, 0
9, 660, Control_c, 7, 32, 0
9, 665, Program_c, 7, 28
9, 670, Control_c, 7, 7, 110
9, 670, Control_c, 7, 10, 81
9, 670, Control_c, 7, 11, 127
9, 675, Control_c, 7, 91, 50
9, 675, Control_c, 7, 93, 60
9, 4075, Note_on_c, 7, 52, 91
9, 4145, Note_off_c, 7, 52, 64
9, 4430, Note_on_c, 7, 50, 92
9, 4485, Note_off_c, 7, 50, 64
9, 4695, Note_on_c, 7, 47, 55
9, 4735, Note_off_c, 7, 47, 64
9, 4780, Note_on_c, 7, 50, 95
9, 4850, Note_off_c, 7, 50, 64
9, 5040, Note_on_c, 7, 50, 85
9, 5110, Note_off_c, 7, 50, 64
9, 5265, Note_on_c, 7, 50, 91
9, 5360, Note_off_c, 7, 50, 64
9, 5375, Note_on_c, 7, 52, 87
9, 5460, Note_off_c, 7, 52, 64
9, 5995, Note_on_c, 7, 52, 92
9, 6070, Note_off_c, 7, 52, 64
9, 6350, Note_on_c, 7, 50, 78
9, 6405, Note_off_c, 7, 50, 64
9, 6605, Note_on_c, 7, 47, 54
9, 6645, Note_off_c, 7, 47, 64
9, 6700, Note_on_c, 7, 50, 91
9, 6760, Note_off_c, 7, 50, 64
9, 6945, Note_on_c, 7, 50, 80
9, 7015, Note_off_c, 7, 50, 64
9, 7195, Note_on_c, 7, 52, 89
9, 7365, Pitch_bend_c, 7, 7810
9, 7400, Pitch_bend_c, 7, 7306
9, 7420, Pitch_bend_c, 7, 6676
9, 7455, Pitch_bend_c, 7, 4282
9, 7490, Pitch_bend_c, 7, 2140
9, 7510, Pitch_bend_c, 7, 1132
9, 7545, Pitch_bend_c, 7, 0
9, 7555, Note_off_c, 7, 52, 64
9, 7600, Pitch_bend_c, 7, 1384
9, 7635, Pitch_bend_c, 7, 8192
9, 7915, Note_on_c, 7, 52, 91
9, 7985, Note_off_c, 7, 52, 64
9, 8270, Note_on_c, 7, 50, 92
9, 8325, Note_off_c, 7, 50, 64
9, 8535, Note_on_c, 7, 47, 55
9, 8575, Note_off_c, 7, 47, 64
9, 8620, Note_on_c, 7, 50, 95
9, 8690, Note_off_c, 7, 50, 64
9, 8880, Note_on_c, 7, 50, 85
9, 8950, Note_off_c, 7, 50, 64
9, 9105, Note_on_c, 7, 50, 91
9, 9200, Note_off_c, 7, 50, 64
9, 9215, Note_on_c, 7, 52, 87
9, 9300, Note_off_c, 7, 52, 64
9, 9835, Note_on_c, 7, 52, 92
9, 9910, Note_off_c, 7, 52, 64
9, 10190, Note_on_c, 7, 50, 78
9, 10245, Note_off_c, 7, 50, 64
9, 10445, Note_on_c, 7, 47, 54
9, 10485, Note_off_c, 7, 47, 64
9, 10540, Note_on_c, 7, 50, 91
9, 10600, Note_off_c, 7, 50, 64
9, 10785, Note_on_c, 7, 50, 80
9, 10855, Note_off_c, 7, 50, 64
9, 11035, Note_on_c, 7, 52, 89
9, 11205, Pitch_bend_c, 7, 7810
9, 11240, Pitch_bend_c, 7, 7306
9, 11260, Pitch_bend_c, 7, 6676
9, 11295, Pitch_bend_c, 7, 4282
9, 11330, Pitch_bend_c, 7, 2140
9, 11350, Pitch_bend_c, 7, 1132
9, 11385, Pitch_bend_c, 7, 0
9, 11395, Note_off_c, 7, 52, 64
9, 11440, Pitch_bend_c, 7, 1384
9, 11475, Pitch_bend_c, 7, 8192
9, 11755, Note_on_c, 7, 52, 91
9, 11825, Note_off_c, 7, 52, 64
9, 12110, Note_on_c, 7, 50, 92
9, 12165, Note_off_c, 7, 50, 64
9, 12375, Note_on_c, 7, 47, 55
9, 12415, Note_off_c, 7, 47, 64
9, 12460, Note_on_c, 7, 50, 95
9, 12530, Note_off_c, 7, 50, 64
9, 12720, Note_on_c, 7, 50, 85
9, 12790, Note_off_c, 7, 50, 64
9, 12945, Note_on_c, 7, 50, 91
9, 13040, Note_off_c, 7, 50, 64
9, 13055, Note_on_c, 7, 52, 87
9, 13140, Note_off_c, 7, 52, 64
9, 13675, Note_on_c, 7, 52, 92
9, 13750, Note_off_c, 7, 52, 64
9, 14030, Note_on_c, 7, 50, 78
9, 14085, Note_off_c, 7, 50, 64
9, 14285, Note_on_c, 7, 47, 54
9, 14325, Note_off_c, 7, 47, 64
9, 14380, Note_on_c, 7, 50, 91
9, 14440, Note_off_c, 7, 50, 64
9, 14625, Note_on_c, 7, 50, 80
9, 14695, Note_off_c, 7, 50, 64
9, 14875, Note_on_c, 7, 52, 89
9, 15045, Pitch_bend_c, 7, 7810
9, 15080, Pitch_bend_c, 7, 7306
9, 15100, Pitch_bend_c, 7, 6676
9, 15135, Pitch_bend_c, 7, 4282
9, 15170, Pitch_bend_c, 7, 2140
9, 15190, Pitch_bend_c, 7, 1132
9, 15225, Pitch_bend_c, 7, 0
9, 15235, Note_off_c, 7, 52, 64
9, 15280, Pitch_bend_c, 7, 1384
9, 15315, Pitch_bend_c, 7, 8192
9, 15595, Note_on_c, 7, 52, 91
9, 15665, Note_off_c, 7, 52, 64
9, 15950, Note_on_c, 7, 50, 92
9, 16005, Note_off_c, 7, 50, 64
9, 16215, Note_on_c, 7, 47, 55
9, 16255, Note_off_c, 7, 47, 64
9, 16300, Note_on_c, 7, 50, 95
9, 16370, Note_off_c, 7, 50, 64
9, 16560, Note_on_c, 7, 50, 85
9, 16630, Note_off_c, 7, 50, 64
9, 16785, Note_on_c, 7, 50, 91
9, 16880, Note_off_c, 7, 50, 64
9, 16895, Note_on_c, 7, 52, 87
9, 16980, Note_off_c, 7, 52, 64
9, 17515, Note_on_c, 7, 52, 92
9, 17590, Note_off_c, 7, 52, 64
9, 17870, Note_on_c, 7, 50, 78
9, 17925, Note_off_c, 7, 50, 64
9, 18125, Note_on_c, 7, 47, 54
9, 18165, Note_off_c, 7, 47, 64
9, 18220, Note_on_c, 7, 50, 91
9, 18280, Note_off_c, 7, 50, 64
9, 18465, Note_on_c, 7, 50, 80
9, 18535, Note_off_c, 7, 50, 64
9, 18715, Note_on_c, 7, 52, 89
9, 18885, Pitch_bend_c, 7, 7810
9, 18920, Pitch_bend_c, 7, 7306
9, 18940, Pitch_bend_c, 7, 6676
9, 18975, Pitch_bend_c, 7, 4282
9, 19010, Pitch_bend_c, 7, 2140
9, 19030, Pitch_bend_c, 7, 1132
9, 19065, Pitch_bend_c, 7, 0
9, 19075, Note_off_c, 7, 52, 64
9, 19120, Pitch_bend_c, 7, 1384
9, 19155, Pitch_bend_c, 7, 8192
9, 19435, Note_on_c, 7, 52, 91
9, 19505, Note_off_c, 7, 52, 64
9, 19790, Note_on_c, 7, 50, 92
9, 19845, Note_off_c, 7, 50, 64
9, 20055, Note_on_c, 7, 47, 55
9, 20095, Note_off_c, 7, 47, 64
9, 20140, Note_on_c, 7, 50, 95
9, 20210, Note_off_c, 7, 50, 64
9, 20400, Note_on_c, 7, 50, 85
9, 20470, Note_off_c, 7, 50, 64
9, 20625, Note_on_c, 7, 50, 91
9, 20720, Note_off_c, 7, 50, 64
9, 20735, Note_on_c, 7, 52, 87
9, 20820, Note_off_c, 7, 52, 64
9, 21355, Note_on_c, 7, 52, 92
9, 21430, Note_off_c, 7, 52, 64
9, 21710, Note_on_c, 7, 50, 78
9, 21765, Note_off_c, 7, 50, 64
9, 21965, Note_on_c, 7, 47, 54
9, 22005, Note_off_c, 7, 47, 64
9, 22060, Note_on_c, 7, 50, 91
9, 22120, Note_off_c, 7, 50, 64
9, 22305, Note_on_c, 7, 50, 80
9, 22375, Note_off_c, 7, 50, 64
9, 22555, Note_on_c, 7, 52, 89
9, 22725, Pitch_bend_c, 7, 7810
9, 22760, Pitch_bend_c, 7, 7306
9, 22780, Pitch_bend_c, 7, 6676
9, 22815, Pitch_bend_c, 7, 4282
9, 22850, Pitch_bend_c, 7, 2140
9, 22870, Pitch_bend_c, 7, 1132
9, 22905, Pitch_bend_c, 7, 0
9, 22915, Note_off_c, 7, 52, 64
9, 22960, Pitch_bend_c, 7, 1384
9, 22995, Pitch_bend_c, 7, 8192
9, 23275, Note_on_c, 7, 52, 91
9, 23345, Note_off_c, 7, 52, 64
9, 23630, Note_on_c, 7, 50, 92
9, 23685, Note_off_c, 7, 50, 64
9, 23895, Note_on_c, 7, 47, 55
9, 23935, Note_off_c, 7, 47, 64
9, 23980, Note_on_c, 7, 50, 95
9, 24050, Note_off_c, 7, 50, 64
9, 24240, Note_on_c, 7, 50, 85
9, 24310, Note_off_c, 7, 50, 64
9, 24465, Note_on_c, 7, 50, 91
9, 24560, Note_off_c, 7, 50, 64
9, 24575, Note_on_c, 7, 52, 87
9, 24660, Note_off_c, 7, 52, 64
9, 25195, Note_on_c, 7, 52, 92
9, 25270, Note_off_c, 7, 52, 64
9, 25550, Note_on_c, 7, 50, 78
9, 25605, Note_off_c, 7, 50, 64
9, 25805, Note_on_c, 7, 47, 54
9, 25845, Note_off_c, 7, 47, 64
9, 25900, Note_on_c, 7, 50, 91
9, 25960, Note_off_c, 7, 50, 64
9, 26145, Note_on_c, 7, 50, 80
9, 26215, Note_off_c, 7, 50, 64
9, 26395, Note_on_c, 7, 52, 89
9, 26565, Pitch_bend_c, 7, 7810
9, 26600, Pitch_bend_c, 7, 7306
9, 26620, Pitch_bend_c, 7, 6676
9, 26655, Pitch_bend_c, 7, 4282
9, 26690, Pitch_bend_c, 7, 2140
9, 26710, Pitch_bend_c, 7, 1132
9, 26745, Pitch_bend_c, 7, 0
9, 26755, Note_off_c, 7, 52, 64
9, 26800, Pitch_bend_c, 7, 1384
9, 26835, Pitch_bend_c, 7, 8192
9, 27115, Note_on_c, 7, 52, 91
9, 27185, Note_off_c, 7, 52, 64
9, 27470, Note_on_c, 7, 50, 92
9, 27525, Note_off_c, 7, 50, 64
9, 27735, Note_on_c, 7, 47, 55
9, 27775, Note_off_c, 7, 47, 64
9, 27820, Note_on_c, 7, 50, 95
9, 27890, Note_off_c, 7, 50, 64
9, 28080, Note_on_c, 7, 50, 85
9, 28150, Note_off_c, 7, 50, 64
9, 28305, Note_on_c, 7, 50, 91
9, 28400, Note_off_c, 7, 50, 64
9, 28415, Note_on_c, 7, 52, 87
9, 28500, Note_off_c, 7, 52, 64
9, 29035, Note_on_c, 7, 52, 92
9, 29110, Note_off_c, 7, 52, 64
9, 29390, Note_on_c, 7, 50, 78
9, 29445, Note_off_c, 7, 50, 64
9, 29645, Note_on_c, 7, 47, 54
9, 29685, Note_off_c, 7, 47, 64
9, 29740, Note_on_c, 7, 50, 91
9, 29800, Note_off_c, 7, 50, 64
9, 29985, Note_on_c, 7, 50, 80
9, 30055, Note_off_c, 7, 50, 64
9, 30235, Note_on_c, 7, 52, 89
9, 30405, Pitch_bend_c, 7, 7810
9, 30440, Pitch_bend_c, 7, 7306
9, 30460, Pitch_bend_c, 7, 6676
9, 30495, Pitch_bend_c, 7, 4282
9, 30530, Pitch_bend_c, 7, 2140
9, 30550, Pitch_bend_c, 7, 1132
9, 30585, Pitch_bend_c, 7, 0
9, 30595, Note_off_c, 7, 52, 64
9, 30640, Pitch_bend_c, 7, 1384
9, 30675, Pitch_bend_c, 7, 8192
9, 30955, Note_on_c, 7, 52, 91
9, 31025, Note_off_c, 7, 52, 64
9, 31310, Note_on_c, 7, 50, 92
9, 31365, Note_off_c, 7, 50, 64
9, 31575, Note_on_c, 7, 47, 55
9, 31615, Note_off_c, 7, 47, 64
9, 31660, Note_on_c, 7, 50, 95
9, 31730, Note_off_c, 7, 50, 64
9, 31920, Note_on_c, 7, 50, 85
9, 31990, Note_off_c, 7, 50, 64
9, 32145, Note_on_c, 7, 50, 91
9, 32240, Note_off_c, 7, 50, 64
9, 32255, Note_on_c, 7, 52, 87
9, 32340, Note_off_c, 7, 52, 64
9, 32875, Note_on_c, 7, 52, 92
9, 32950, Note_off_c, 7, 52, 64
9, 33230, Note_on_c, 7, 50, 78
9, 33285, Note_off_c, 7, 50, 64
9, 33485, Note_on_c, 7, 47, 54
9, 33525, Note_off_c, 7, 47, 64
9, 33580, Note_on_c, 7, 50, 91
9, 33640, Note_off_c, 7, 50, 64
9, 33825, Note_on_c, 7, 50, 80
9, 33895, Note_off_c, 7, 50, 64
9, 34075, Note_on_c, 7, 52, 89
9, 34245, Pitch_bend_c, 7, 7810
9, 34280, Pitch_bend_c, 7, 7306
9, 34300, Pitch_bend_c, 7, 6676
9, 34335, Pitch_bend_c, 7, 4282
9, 34370, Pitch_bend_c, 7, 2140
9, 34390, Pitch_bend_c, 7, 1132
9, 34425, Pitch_bend_c, 7, 0
9, 34435, Note_off_c, 7, 52, 64
9, 34480, Pitch_bend_c, 7, 1384
9, 34515, Pitch_bend_c, 7, 8192
9, 34795, Note_on_c, 7, 52, 91
9, 34865, Note_off_c, 7, 52, 64
9, 35150, Note_on_c, 7, 50, 92
9, 35205, Note_off_c, 7, 50, 64
9, 35415, Note_on_c, 7, 47, 55
9, 35455, Note_off_c, 7, 47, 64
9, 35500, Note_on_c, 7, 50, 95
9, 35570, Note_off_c, 7, 50, 64
9, 35760, Note_on_c, 7, 50, 85
9, 35830, Note_off_c, 7, 50, 64
9, 35985, Note_on_c, 7, 50, 91
9, 36080, Note_off_c, 7, 50, 64
9, 36095, Note_on_c, 7, 52, 87
9, 36180, Note_off_c, 7, 52, 64
9, 36715, Note_on_c, 7, 52, 92
9, 36790, Note_off_c, 7, 52, 64
9, 37070, Note_on_c, 7, 50, 78
9, 37125, Note_off_c, 7, 50, 64
9, 37325, Note_on_c, 7, 47, 54
9, 37365, Note_off_c, 7, 47, 64
9, 37420, Note_on_c, 7, 50, 91
9, 37480, Note_off_c, 7, 50, 64
9, 37665, Note_on_c, 7, 50, 80
9, 37735, Note_off_c, 7, 50, 64
9, 37915, Note_on_c, 7, 52, 89
9, 38085, Pitch_bend_c, 7, 7810
9, 38120, Pitch_bend_c, 7, 7306
9, 38140, Pitch_bend_c, 7, 6676
9, 38175, Pitch_bend_c, 7, 4282
9, 38210, Pitch_bend_c, 7, 2140
9, 38230, Pitch_bend_c, 7, 1132
9, 38265, Pitch_bend_c, 7, 0
9, 38275, Note_off_c, 7, 52, 64
9, 38320, Pitch_bend_c, 7, 1384
9, 38355, Pitch_bend_c, 7, 8192
9, 38635, Note_on_c, 7, 52, 91
9, 38705, Note_off_c, 7, 52, 64
9, 38990, Note_on_c, 7, 50, 92
9, 39045, Note_off_c, 7, 50, 64
9, 39255, Note_on_c, 7, 47, 55
9, 39295, Note_off_c, 7, 47, 64
9, 39340, Note_on_c, 7, 50, 95
9, 39410, Note_off_c, 7, 50, 64
9, 39600, Note_on_c, 7, 50, 85
9, 39670, Note_off_c, 7, 50, 64
9, 39825, Note_on_c, 7, 50, 91
9, 39920, Note_off_c, 7, 50, 64
9, 39935, Note_on_c, 7, 52, 87
9, 40020, Note_off_c, 7, 52, 64
9, 40555, Note_on_c, 7, 52, 92
9, 40630, Note_off_c, 7, 52, 64
9, 40910, Note_on_c, 7, 50, 78
9, 40965, Note_off_c, 7, 50, 64
9, 41165, Note_on_c, 7, 47, 54
9, 41205, Note_off_c, 7, 47, 64
9, 41260, Note_on_c, 7, 50, 91
9, 41320, Note_off_c, 7, 50, 64
9, 41505, Note_on_c, 7, 50, 80
9, 41575, Note_off_c, 7, 50, 64
9, 41755, Note_on_c, 7, 52, 89
9, 41925, Pitch_bend_c, 7, 7810
9, 41960, Pitch_bend_c, 7, 7306
9, 41980, Pitch_bend_c, 7, 6676
9, 42015, Pitch_bend_c, 7, 4282
9, 42050, Pitch_bend_c, 7, 2140
9, 42070, Pitch_bend_c, 7, 1132
9, 42105, Pitch_bend_c, 7, 0
9, 42115, Note_off_c, 7, 52, 64
9, 42160, Pitch_bend_c, 7, 1384
9, 42195, Pitch_bend_c, 7, 8192
9, 42475, Note_on_c, 7, 52, 91
9, 42545, Note_off_c, 7, 52, 64
9, 42830, Note_on_c, 7, 50, 92
9, 42885, Note_off_c, 7, 50, 64
9, 43095, Note_on_c, 7, 47, 55
9, 43135, Note_off_c, 7, 47, 64
9, 43180, Note_on_c, 7, 50, 95
9, 43250, Note_off_c, 7, 50, 64
9, 43440, Note_on_c, 7, 50, 85
9, 43510, Note_off_c, 7, 50, 64
9, 43665, Note_on_c, 7, 50, 91
9, 43760, Note_off_c, 7, 50, 64
9, 43775, Note_on_c, 7, 52, 87
9, 43860, Note_off_c, 7, 52, 64
9, 44395, Note_on_c, 7, 52, 92
9, 44470, Note_off_c, 7, 52, 64
9, 44750, Note_on_c, 7, 50, 78
9, 44805, Note_off_c, 7, 50, 64
9, 45005, Note_on_c, 7, 47, 54
9, 45045, Note_off_c, 7, 47, 64
9, 45100, Note_on_c, 7, 50, 91
9, 45160, Note_off_c, 7, 50, 64
9, 45345, Note_on_c, 7, 50, 80
9, 45415, Note_off_c, 7, 50, 64
9, 45595, Note_on_c, 7, 52, 89
9, 45765, Pitch_bend_c, 7, 7810
9, 45800, Pitch_bend_c, 7, 7306
9, 45820, Pitch_bend_c, 7, 6676
9, 45855, Pitch_bend_c, 7, 4282
9, 45890, Pitch_bend_c, 7, 2140
9, 45910, Pitch_bend_c, 7, 1132
9, 45945, Pitch_bend_c, 7, 0
9, 45955, Note_off_c, 7, 52, 64
9, 46000, Pitch_bend_c, 7, 1384
9, 46035, Pitch_bend_c, 7, 8192
9, 46315, Note_on_c, 7, 52, 91
9, 46385, Note_off_c, 7, 52, 64
9, 46670, Note_on_c, 7, 50, 92
9, 46725, Note_off_c, 7, 50, 64
9, 46935, Note_on_c, 7, 47, 55
9, 46975, Note_off_c, 7, 47, 64
9, 47020, Note_on_c, 7, 50, 95
9, 47090, Note_off_c, 7, 50, 64
9, 47280, Note_on_c, 7, 50, 85
9, 47350, Note_off_c, 7, 50, 64
9, 47505, Note_on_c, 7, 50, 91
9, 47600, Note_off_c, 7, 50, 64
9, 47615, Note_on_c, 7, 52, 87
9, 47700, Note_off_c, 7, 52, 64
9, 48235, Note_on_c, 7, 52, 92
9, 48310, Note_off_c, 7, 52, 64
9, 48590, Note_on_c, 7, 50, 78
9, 48645, Note_off_c, 7, 50, 64
9, 48845, Note_on_c, 7, 47, 54
9, 48885, Note_off_c, 7, 47, 64
9, 48940, Note_on_c, 7, 50, 91
9, 49000, Note_off_c, 7, 50, 64
9, 49185, Note_on_c, 7, 50, 80
9, 49255, Note_off_c, 7, 50, 64
9, 49435, Note_on_c, 7, 52, 89
9, 49605, Pitch_bend_c, 7, 7810
9, 49640, Pitch_bend_c, 7, 7306
9, 49660, Pitch_bend_c, 7, 6676
9, 49695, Pitch_bend_c, 7, 4282
9, 49730, Pitch_bend_c, 7, 2140
9, 49750, Pitch_bend_c, 7, 1132
9, 49785, Pitch_bend_c, 7, 0
9, 49795, Note_off_c, 7, 52, 64
9, 49840, Pitch_bend_c, 7, 1384
9, 49875, Pitch_bend_c, 7, 8192
9, 50155, Note_on_c, 7, 52, 91
9, 50225, Note_off_c, 7, 52, 64
9, 50510, Note_on_c, 7, 50, 92
9, 50565, Note_off_c, 7, 50, 64
9, 50775, Note_on_c, 7, 47, 55
9, 50815, Note_off_c, 7, 47, 64
9, 50860, Note_on_c, 7, 50, 95
9, 50930, Note_off_c, 7, 50, 64
9, 51120, Note_on_c, 7, 50, 85
9, 51190, Note_off_c, 7, 50, 64
9, 51345, Note_on_c, 7, 50, 91
9, 51440, Note_off_c, 7, 50, 64
9, 51455, Note_on_c, 7, 52, 87
9, 51540, Note_off_c, 7, 52, 64
9, 52075, Note_on_c, 7, 52, 92
9, 52150, Note_off_c, 7, 52, 64
9, 52430, Note_on_c, 7, 50, 78
9, 52485, Note_off_c, 7, 50, 64
9, 52685, Note_on_c, 7, 47, 54
9, 52725, Note_off_c, 7, 47, 64
9, 52780, Note_on_c, 7, 50, 91
9, 52840, Note_off_c, 7, 50, 64
9, 53025, Note_on_c, 7, 50, 80
9, 53095, Note_off_c, 7, 50, 64
9, 53275, Note_on_c, 7, 52, 89
9, 53445, Pitch_bend_c, 7, 7810
9, 53480, Pitch_bend_c, 7, 7306
9, 53500, Pitch_bend_c, 7, 6676
9, 53535, Pitch_bend_c, 7, 4282
9, 53570, Pitch_bend_c, 7, 2140
9, 53590, Pitch_bend_c, 7, 1132
9, 53625, Pitch_bend_c, 7, 0
9, 53635, Note_off_c, 7, 52, 64
9, 53680, Pitch_bend_c, 7, 1384
9, 53715, Pitch_bend_c, 7, 8192
9, 53995, Note_on_c, 7, 52, 91
9, 54065, Note_off_c, 7, 52, 64
9, 54350, Note_on_c, 7, 50, 92
9, 54405, Note_off_c, 7, 50, 64
9, 54615, Note_on_c, 7, 47, 55
9, 54655, Note_off_c, 7, 47, 64
9, 54700, Note_on_c, 7, 50, 95
9, 54770, Note_off_c, 7, 50, 64
9, 54960, Note_on_c, 7, 50, 85
9, 55030, Note_off_c, 7, 50, 64
9, 55185, Note_on_c, 7, 50, 91
9, 55280, Note_off_c, 7, 50, 64
9, 55295, Note_on_c, 7, 52, 87
9, 55380, Note_off_c, 7, 52, 64
9, 55915, Note_on_c, 7, 52, 92
9, 55990, Note_off_c, 7, 52, 64
9, 56270, Note_on_c, 7, 50, 78
9, 56325, Note_off_c, 7, 50, 64
9, 56525, Note_on_c, 7, 47, 54
9, 56565, Note_off_c, 7, 47, 64
9, 56620, Note_on_c, 7, 50, 91
9, 56680, Note_off_c, 7, 50, 64
9, 56865, Note_on_c, 7, 50, 80
9, 56935, Note_off_c, 7, 50, 64
9, 57115, Note_on_c, 7, 52, 89
9, 57285, Pitch_bend_c, 7, 7810
9, 57320, Pitch_bend_c, 7, 7306
9, 57340, Pitch_bend_c, 7, 6676
9, 57375, Pitch_bend_c, 7, 4282
9, 57410, Pitch_bend_c, 7, 2140
9, 57430, Pitch_bend_c, 7, 1132
9, 57465, Pitch_bend_c, 7, 0
9, 57475, Note_off_c, 7, 52, 64
9, 57520, Pitch_bend_c, 7, 1384
9, 57555, Pitch_bend_c, 7, 8192
9, 57835, Note_on_c, 7, 52, 91
9, 57905, Note_off_c, 7, 52, 64
9, 58190, Note_on_c, 7, 50, 92
9, 58245, Note_off_c, 7, 50, 64
9, 58455, Note_on_c, 7, 47, 55
9, 58495, Note_off_c, 7, 47, 64
9, 58540, Note_on_c, 7, 50, 95
9, 58610, Note_off_c, 7, 50, 64
9, 58800, Note_on_c, 7, 50, 85
9, 58870, Note_off_c, 7, 50, 64
9, 59025, Note_on_c, 7, 50, 91
9, 59120, Note_off_c, 7, 50, 64
9, 59135, Note_on_c, 7, 52, 87
9, 59220, Note_off_c, 7, 52, 64
9, 59755, Note_on_c, 7, 52, 92
9, 59830, Note_off_c, 7, 52, 64
9, 60110, Note_on_c, 7, 50, 78
9, 60165, Note_off_c, 7, 50, 64
9, 60365, Note_on_c, 7, 47, 54
9, 60405, Note_off_c, 7, 47, 64
9, 60460, Note_on_c, 7, 50, 91
9, 60520, Note_off_c, 7, 50, 64
9, 60705, Note_on_c, 7, 50, 80
9, 60775, Note_off_c, 7, 50, 64
9, 60955, Note_on_c, 7, 52, 89
9, 61125, Pitch_bend_c, 7, 7810
9, 61160, Pitch_bend_c, 7, 7306
9, 61180, Pitch_bend_c, 7, 6676
9, 61215, Pitch_bend_c, 7, 4282
9, 61250, Pitch_bend_c, 7, 2140
9, 61270, Pitch_bend_c, 7, 1132
9, 61305, Pitch_bend_c, 7, 0
9, 61315, Note_off_c, 7, 52, 64
9, 61360, Pitch_bend_c, 7, 1384
9, 61395, Pitch_bend_c, 7, 8192
9, 61675, Note_on_c, 7, 52, 91
9, 61745, Note_off_c, 7, 52, 64
9, 62030, Note_on_c, 7, 50, 92
9, 62085, Note_off_c, 7, 50, 64
9, 62295, Note_on_c, 7, 47, 55
9, 62335, Note_off_c, 7, 47, 64
9, 62380, Note_on_c, 7, 50, 95
9, 62450, Note_off_c, 7, 50, 64
9, 62640, Note_on_c, 7, 50, 85
9, 62710, Note_off_c, 7, 50, 64
9, 62865, Note_on_c, 7, 50, 91
9, 62960, Note_off_c, 7, 50, 64
9, 62975, Note_on_c, 7, 52, 87
9, 63060, Note_off_c, 7, 52, 64
9, 63595, Note_on_c, 7, 52, 92
9, 63670, Note_off_c, 7, 52, 64
9, 63950, Note_on_c, 7, 50, 78
9, 64005, Note_off_c, 7, 50, 64
9, 64205, Note_on_c, 7, 47, 54
9, 64245, Note_off_c, 7, 47, 64
9, 64300, Note_on_c, 7, 50, 91
9, 64360, Note_off_c, 7, 50, 64
9, 64545, Note_on_c, 7, 50, 80
9, 64615, Note_off_c, 7, 50, 64
9, 64795, Note_on_c, 7, 52, 89
9, 64965, Pitch_bend_c, 7, 7810
9, 65000, Pitch_bend_c, 7, 7306
9, 65020, Pitch_bend_c, 7, 6676
9, 65055, Pitch_bend_c, 7, 4282
9, 65090, Pitch_bend_c, 7, 2140
9, 65110, Pitch_bend_c, 7, 1132
9, 65145, Pitch_bend_c, 7, 0
9, 65155, Note_off_c, 7, 52, 64
9, 65200, Pitch_bend_c, 7, 1384
9, 65235, Pitch_bend_c, 7, 8192
9, 65515, Note_on_c, 7, 52, 91
9, 65585, Note_off_c, 7, 52, 64
9, 65870, Note_on_c, 7, 50, 92
9, 65925, Note_off_c, 7, 50, 64
9, 66135, Note_on_c, 7, 47, 55
9, 66175, Note_off_c, 7, 47, 64
9, 66220, Note_on_c, 7, 50, 95
9, 66290, Note_off_c, 7, 50, 64
9, 66480, Note_on_c, 7, 50, 85
9, 66550, Note_off_c, 7, 50, 64
9, 66705, Note_on_c, 7, 50, 91
9, 66800, Note_off_c, 7, 50, 64
9, 66815, Note_on_c, 7, 52, 87
9, 66900, Note_off_c, 7, 52, 64
9, 67435, Note_on_c, 7, 52, 92
9, 67510, Note_off_c, 7, 52, 64
9, 67790, Note_on_c, 7, 50, 78
9, 67845, Note_off_c, 7, 50, 64
9, 68045, Note_on_c, 7, 47, 54
9, 68085, Note_off_c, 7, 47, 64
9, 68140, Note_on_c, 7, 50, 91
9, 68200, Note_off_c, 7, 50, 64
9, 68385, Note_on_c, 7, 50, 80
9, 68455, Note_off_c, 7, 50, 64
9, 68635, Note_on_c, 7, 52, 89
9, 68805, Pitch_bend_c, 7, 7810
9, 68840, Pitch_bend_c, 7, 7306
9, 68860, Pitch_bend_c, 7, 6676
9, 68895, Pitch_bend_c, 7, 4282
9, 68930, Pitch_bend_c, 7, 2140
9, 68950, Pitch_bend_c, 7, 1132
9, 68985, Pitch_bend_c, 7, 0
9, 68995, Note_off_c, 7, 52, 64
9, 69040, Pitch_bend_c, 7, 1384
9, 69075, Pitch_bend_c, 7, 8192
9, 69355, Note_on_c, 7, 52, 91
9, 69425, Note_off_c, 7, 52, 64
9, 69710, Note_on_c, 7, 50, 92
9, 69765, Note_off_c, 7, 50, 64
9, 69975, Note_on_c, 7, 47, 55
9, 70015, Note_off_c, 7, 47, 64
9, 70060, Note_on_c, 7, 50, 95
9, 70130, Note_off_c, 7, 50, 64
9, 70320, Note_on_c, 7, 50, 85
9, 70390, Note_off_c, 7, 50, 64
9, 70545, Note_on_c, 7, 50, 91
9, 70640, Note_off_c, 7, 50, 64
9, 70655, Note_on_c, 7, 52, 87
9, 70740, Note_off_c, 7, 52, 64
9, 71275, Note_on_c, 7, 52, 92
9, 71350, Note_off_c, 7, 52, 64
9, 71630, Note_on_c, 7, 50, 78
9, 71685, Note_off_c, 7, 50, 64
9, 71885, Note_on_c, 7, 47, 54
9, 71925, Note_off_c, 7, 47, 64
9, 71980, Note_on_c, 7, 50, 91
9, 72040, Note_off_c, 7, 50, 64
9, 72225, Note_on_c, 7, 50, 80
9, 72295, Note_off_c, 7, 50, 64
9, 72475, Note_on_c, 7, 52, 89
9, 72645, Pitch_bend_c, 7, 7810
9, 72680, Pitch_bend_c, 7, 7306
9, 72700, Pitch_bend_c, 7, 6676
9, 72735, Pitch_bend_c, 7, 4282
9, 72770, Pitch_bend_c, 7, 2140
9, 72790, Pitch_bend_c, 7, 1132
9, 72825, Pitch_bend_c, 7, 0
9, 72835, Note_off_c, 7, 52, 64
9, 72880, Pitch_bend_c, 7, 1384
9, 72915, Pitch_bend_c, 7, 8192
9, 73195, Note_on_c, 7, 52, 91
9, 73265, Note_off_c, 7, 52, 64
9, 73550, Note_on_c, 7, 50, 92
9, 73605, Note_off_c, 7, 50, 64
9, 73815, Note_on_c, 7, 47, 55
9, 73855, Note_off_c, 7, 47, 64
9, 73900, Note_on_c, 7, 50, 95
9, 73970, Note_off_c, 7, 50, 64
9, 74160, Note_on_c, 7, 50, 85
9, 74230, Note_off_c, 7, 50, 64
9, 74385, Note_on_c, 7, 50, 91
9, 74480, Note_off_c, 7, 50, 64
9, 74495, Note_on_c, 7, 52, 87
9, 74580, Note_off_c, 7, 52, 64
9, 75115, Note_on_c, 7, 52, 92
9, 75190, Note_off_c, 7, 52, 64
9, 75470, Note_on_c, 7, 50, 78
9, 75525, Note_off_c, 7, 50, 64
9, 75725, Note_on_c, 7, 47, 54
9, 75765, Note_off_c, 7, 47, 64
9, 75820, Note_on_c, 7, 50, 91
9, 75880, Note_off_c, 7, 50, 64
9, 76065, Note_on_c, 7, 50, 80
9, 76135, Note_off_c, 7, 50, 64
9, 76315, Note_on_c, 7, 52, 89
9, 76485, Pitch_bend_c, 7, 7810
9, 76520, Pitch_bend_c, 7, 7306
9, 76540, Pitch_bend_c, 7, 6676
9, 76575, Pitch_bend_c, 7, 4282
9, 76610, Pitch_bend_c, 7, 2140
9, 76630, Pitch_bend_c, 7, 1132
9, 76665, Pitch_bend_c, 7, 0
9, 76675, Note_off_c, 7, 52, 64
9, 76720, Pitch_bend_c, 7, 1384
9, 76755, Pitch_bend_c, 7, 8192
9, 77035, Note_on_c, 7, 52, 91
9, 77105, Note_off_c, 7, 52, 64
9, 77390, Note_on_c, 7, 50, 92
9, 77445, Note_off_c, 7, 50, 64
9, 77655, Note_on_c, 7, 47, 55
9, 77695, Note_off_c, 7, 47, 64
9, 77740, Note_on_c, 7, 50, 95
9, 77810, Note_off_c, 7, 50, 64
9, 78000, Note_on_c, 7, 50, 85
9, 78070, Note_off_c, 7, 50, 64
9, 78225, Note_on_c, 7, 50, 91
9, 78320, Note_off_c, 7, 50, 64
9, 78335, Note_on_c, 7, 52, 87
9, 78420, Note_off_c, 7, 52, 64
9, 78955, Note_on_c, 7, 52, 92
9, 79030, Note_off_c, 7, 52, 64
9, 79310, Note_on_c, 7, 50, 78
9, 79365, Note_off_c, 7, 50, 64
9, 79565, Note_on_c, 7, 47, 54
9, 79605, Note_off_c, 7, 47, 64
9, 79660, Note_on_c, 7, 50, 91
9, 79720, Note_off_c, 7, 50, 64
9, 79905, Note_on_c, 7, 50, 80
9, 79975, Note_off_c, 7, 50, 64
9, 80155, Note_on_c, 7, 52, 89
9, 80325, Pitch_bend_c, 7, 7810
9, 80360, Pitch_bend_c, 7, 7306
9, 80380, Pitch_bend_c, 7, 6676
9, 80415, Pitch_bend_c, 7, 4282
9, 80450, Pitch_bend_c, 7, 2140
9, 80470, Pitch_bend_c, 7, 1132
9, 80505, Pitch_bend_c, 7, 0
9, 80515, Note_off_c, 7, 52, 64
9, 80560, Pitch_bend_c, 7, 1384
9, 80595, Pitch_bend_c, 7, 8192
9, 80875, Note_on_c, 7, 52, 91
9, 80945, Note_off_c, 7, 52, 64
9, 81230, Note_on_c, 7, 50, 92
9, 81285, Note_off_c, 7, 50, 64
9, 81495, Note_on_c, 7, 47, 55
9, 81535, Note_off_c, 7, 47, 64
9, 81580, Note_on_c, 7, 50, 95
9, 81650, Note_off_c, 7, 50, 64
9, 81840, Note_on_c, 7, 50, 85
9, 81910, Note_off_c, 7, 50, 64
9, 82065, Note_on_c, 7, 50, 91
9, 82160, Note_off_c, 7, 50, 64
9, 82175, Note_on_c, 7, 52, 87
9, 82260, Note_off_c, 7, 52, 64
9, 82795, Note_on_c, 7, 52, 92
9, 82870, Note_off_c, 7, 52, 64
9, 83150, Note_on_c, 7, 50, 78
9, 83205, Note_off_c, 7, 50, 64
9, 83405, Note_on_c, 7, 47, 54
9, 83445, Note_off_c, 7, 47, 64
9, 83500, Note_on_c, 7, 50, 91
9, 83560, Note_off_c, 7, 50, 64
9, 83745, Note_on_c, 7, 50, 80
9, 83815, Note_off_c, 7, 50, 64
9, 83995, Note_on_c, 7, 52, 89
9, 84165, Pitch_bend_c, 7, 7810
9, 84200, Pitch_bend_c, 7, 7306
9, 84220, Pitch_bend_c, 7, 6676
9, 84255, Pitch_bend_c, 7, 4282
9, 84290, Pitch_bend_c, 7, 2140
9, 84310, Pitch_bend_c, 7, 1132
9, 84345, Pitch_bend_c, 7, 0
9, 84355, Note_off_c, 7, 52, 64
9, 84400, Pitch_bend_c, 7, 1384
9, 84435, Pitch_bend_c, 7, 8192
9, 84715, Note_on_c, 7, 52, 91
9, 84785, Note_off_c, 7, 52, 64
9, 85070, Note_on_c, 7, 50, 92
9, 85125, Note_off_c, 7, 50, 64
9, 85335, Note_on_c, 7, 47, 55
9, 85375, Note_off_c, 7, 47, 64
9, 85420, Note_on_c, 7, 50, 95
9, 85490, Note_off_c, 7, 50, 64
9, 85680, Note_on_c, 7, 50, 85
9, 85750, Note_off_c, 7, 50, 64
9, 85905, Note_on_c, 7, 50, 91
9, 86000, Note_off_c, 7, 50, 64
9, 86015, Note_on_c, 7, 52, 87
9, 86100, Note_off_c, 7, 52, 64
9, 86635, Note_on_c, 7, 52, 92
9, 86710, Note_off_c, 7, 52, 64
9, 86990, Note_on_c, 7, 50, 78
9, 87045, Note_off_c, 7, 50, 64
9, 87245, Note_on_c, 7, 47, 54
9, 87285, Note_off_c, 7, 47, 64
9, 87340, Note_on_c, 7, 50, 91
9, 87400, Note_off_c, 7, 50, 64
9, 87585, Note_on_c, 7, 50, 80
9, 87655, Note_off_c, 7, 50, 64
9, 87835, Note_on_c, 7, 52, 89
9, 88005, Pitch_bend_c, 7, 7810
9, 88040, Pitch_bend_c, 7, 7306
9, 88060, Pitch_bend_c, 7, 6676
9, 88095, Pitch_bend_c, 7, 4282
9, 88130, Pitch_bend_c, 7, 2140
9, 88150, Pitch_bend_c, 7, 1132
9, 88185, Pitch_bend_c, 7, 0
9, 88195, Note_off_c, 7, 52, 64
9, 88240, Pitch_bend_c, 7, 1384
9, 88275, Pitch_bend_c, 7, 8192
9, 88555, Note_on_c, 7, 52, 91
9, 88625, Note_off_c, 7, 52, 64
9, 88910, Note_on_c, 7, 50, 92
9, 88965, Note_off_c, 7, 50, 64
9, 89175, Note_on_c, 7, 47, 55
9, 89215, Note_off_c, 7, 47, 64
9, 89260, Note_on_c, 7, 50, 95
9, 89330, Note_off_c, 7, 50, 64
9, 89520, Note_on_c, 7, 50, 85
9, 89590, Note_off_c, 7, 50, 64
9, 89745, Note_on_c, 7, 50, 91
9, 89840, Note_off_c, 7, 50, 64
9, 89855, Note_on_c, 7, 52, 87
9, 89940, Note_off_c, 7, 52, 64
9, 90475, Note_on_c, 7, 52, 92
9, 90550, Note_off_c, 7, 52, 64
9, 90830, Note_on_c, 7, 50, 78
9, 90885, Note_off_c, 7, 50, 64
9, 91085, Note_on_c, 7, 47, 54
9, 91125, Note_off_c, 7, 47, 64
9, 91180, Note_on_c, 7, 50, 91
9, 91240, Note_off_c, 7, 50, 64
9, 91425, Note_on_c, 7, 50, 80
9, 91495, Note_off_c, 7, 50, 64
9, 91675, Note_on_c, 7, 52, 89
9, 91845, Pitch_bend_c, 7, 7810
9, 91880, Pitch_bend_c, 7, 7306
9, 91900, Pitch_bend_c, 7, 6676
9, 91935, Pitch_bend_c, 7, 4282
9, 91970, Pitch_bend_c, 7, 2140
9, 91990, Pitch_bend_c, 7, 1132
9, 92025, Pitch_bend_c, 7, 0
9, 92035, Note_off_c, 7, 52, 64
9, 92080, Pitch_bend_c, 7, 1384
9, 92115, Pitch_bend_c, 7, 8192
9, 92395, Note_on_c, 7, 52, 91
9, 92465, Note_off_c, 7, 52, 64
9, 92750, Note_on_c, 7, 50, 92
9, 92805, Note_off_c, 7, 50, 64
9, 93015, Note_on_c, 7, 47, 55
9, 93055, Note_off_c, 7, 47, 64
9, 93100, Note_on_c, 7, 50, 95
9, 93170, Note_off_c, 7, 50, 64
9, 93360, Note_on_c, 7, 50, 85
9, 93430, Note_off_c, 7, 50, 64
9, 93585, Note_on_c, 7, 50, 91
9, 93680, Note_off_c, 7, 50, 64
9, 93695, Note_on_c, 7, 52, 87
9, 93780, Note_off_c, 7, 52, 64
9, 94315, Note_on_c, 7, 52, 92
9, 94390, Note_off_c, 7, 52, 64
9, 94670, Note_on_c, 7, 50, 78
9, 94725, Note_off_c, 7, 50, 64
9, 94925, Note_on_c, 7, 47, 54
9, 94965, Note_off_c, 7, 47, 64
9, 95020, Note_on_c, 7, 50, 91
9, 95080, Note_off_c, 7, 50, 64
9, 95265, Note_on_c, 7, 50, 80
9, 95335, Note_off_c, 7, 50, 64
9, 95515, Note_on_c, 7, 52, 89
9, 95685, Pitch_bend_c, 7, 7810
9, 95720, Pitch_bend_c, 7, 7306
9, 95740, Pitch_bend_c, 7, 6676
9, 95775, Pitch_bend_c, 7, 4282
9, 95810, Pitch_bend_c, 7, 2140
9, 95830, Pitch_bend_c, 7, 1132
9, 95865, Pitch_bend_c, 7, 0
9, 95875, Note_off_c, 7, 52, 64
9, 95920, Pitch_bend_c, 7, 1384
9, 95955, Pitch_bend_c, 7, 8192
9, 96235, Note_on_c, 7, 52, 91
9, 96305, Note_off_c, 7, 52, 64
9, 96590, Note_on_c, 7, 50, 92
9, 96645, Note_off_c, 7, 50, 64
9, 96855, Note_on_c, 7, 47, 55
9, 96895, Note_off_c, 7, 47, 64
9, 96940, Note_on_c, 7, 50, 95
9, 97010, Note_off_c, 7, 50, 64
9, 97200, Note_on_c, 7, 50, 85
9, 97270, Note_off_c, 7, 50, 64
9, 97425, Note_on_c, 7, 50, 91
9, 97520, Note_off_c, 7, 50, 64
9, 97535, Note_on_c, 7, 52, 87
9, 97620, Note_off_c, 7, 52, 64
9, 98155, Note_on_c, 7, 52, 92
9, 98230, Note_off_c, 7, 52, 64
9, 98510, Note_on_c, 7, 50, 78
9, 98565, Note_off_c, 7, 50, 64
9, 98765, Note_on_c, 7, 47, 54
9, 98805, Note_off_c, 7, 47, 64
9, 98860, Note_on_c, 7, 50, 91
9, 98920, Note_off_c, 7, 50, 64
9, 99105, Note_on_c, 7, 50, 80
9, 99175, Note_off_c, 7, 50, 64
9, 99355, Note_on_c, 7, 52, 89
9, 99525, Pitch_bend_c, 7, 7810
9, 99560, Pitch_bend_c, 7, 7306
9, 99580, Pitch_bend_c, 7, 6676
9, 99615, Pitch_bend_c, 7, 4282
9, 99650, Pitch_bend_c, 7, 2140
9, 99670, Pitch_bend_c, 7, 1132
9, 99705, Pitch_bend_c, 7, 0
9, 99715, Note_off_c, 7, 52, 64
9, 99760, Pitch_bend_c, 7, 1384
9, 99795, Pitch_bend_c, 7, 8192
9, 100075, Note_on_c, 7, 52, 91
9, 100145, Note_off_c, 7, 52, 64
9, 100430, Note_on_c, 7, 50, 92
9, 100485, Note_off_c, 7, 50, 64
9, 100695, Note_on_c, 7, 47, 55
9, 100735, Note_off_c, 7, 47, 64
9, 100780, Note_on_c, 7, 50, 95
9, 100850, Note_off_c, 7, 50, 64
9, 101040, Note_on_c, 7, 50, 85
9, 101110, Note_off_c, 7, 50, 64
9, 101265, Note_on_c, 7, 50, 91
9, 101360, Note_off_c, 7, 50, 64
9, 101375, Note_on_c, 7, 52, 87
9, 101460, Note_off_c, 7, 52, 64
9, 101995, Note_on_c, 7, 52, 92
9, 102070, Note_off_c, 7, 52, 64
9, 102350, Note_on_c, 7, 50, 78
9, 102405, Note_off_c, 7, 50, 64
9, 102605, Note_on_c, 7, 47, 54
9, 102645, Note_off_c, 7, 47, 64
9, 102700, Note_on_c, 7, 50, 91
9, 102760, Note_off_c, 7, 50, 64
9, 102945, Note_on_c, 7, 50, 80
9, 103015, Note_off_c, 7, 50, 64
9, 103195, Note_on_c, 7, 52, 89
9, 103365, Pitch_bend_c, 7, 7810
9, 103400, Pitch_bend_c, 7, 7306
9, 103420, Pitch_bend_c, 7, 6676
9, 103455, Pitch_bend_c, 7, 4282
9, 103490, Pitch_bend_c, 7, 2140
9, 103510, Pitch_bend_c, 7, 1132
9, 103545, Pitch_bend_c, 7, 0
9, 103555, Note_off_c, 7, 52, 64
9, 103600, Pitch_bend_c, 7, 1384
9, 103635, Pitch_bend_c, 7, 8192
9, 103915, Note_on_c, 7, 52, 91
9, 103985, Note_off_c, 7, 52, 64
9, 104270, Note_on_c, 7, 50, 92
9, 104325, Note_off_c, 7, 50, 64
9, 104535, Note_on_c, 7, 47, 55
9, 104575, Note_off_c, 7, 47, 64
9, 104620, Note_on_c, 7, 50, 95
9, 104690, Note_off_c, 7, 50, 64
9, 104880, Note_on_c, 7, 50, 85
9, 104950, Note_off_c, 7, 50, 64
9, 105105, Note_on_c, 7, 50, 91
9, 105200, Note_off_c, 7, 50, 64
9, 105215, Note_on_c, 7, 52, 87
9, 105300, Note_off_c, 7, 52, 64
9, 105835, Note_on_c, 7, 52, 92
9, 105910, Note_off_c, 7, 52, 64
9, 106190, Note_on_c, 7, 50, 78
9, 106245, Note_off_c, 7, 50, 64
9, 106445, Note_on_c, 7, 47, 54
9, 106485, Note_off_c, 7, 47, 64
9, 106540, Note_on_c, 7, 50, 91
9, 106600, Note_off_c, 7, 50, 64
9, 106785, Note_on_c, 7, 50, 80
9, 106855, Note_off_c, 7, 50, 64
9, 107035, Note_on_c, 7, 52, 89
9, 107205, Pitch_bend_c, 7, 7810
9, 107240, Pitch_bend_c, 7, 7306
9, 107260, Pitch_bend_c, 7, 6676
9, 107295, Pitch_bend_c, 7, 4282
9, 107330, Pitch_bend_c, 7, 2140
9, 107350, Pitch_bend_c, 7, 1132
9, 107385, Pitch_bend_c, 7, 0
9, 107395, Note_off_c, 7, 52, 64
9, 107440, Pitch_bend_c, 7, 1384
9, 107475, Pitch_bend_c, 7, 8192
9, 107755, Note_on_c, 7, 52, 91
9, 107825, Note_off_c, 7, 52, 64
9, 108110, Note_on_c, 7, 50, 92
9, 108165, Note_off_c, 7, 50, 64
9, 108375, Note_on_c, 7, 47, 55
9, 108415, Note_off_c, 7, 47, 64
9, 108460, Note_on_c, 7, 50, 95
9, 108530, Note_off_c, 7, 50, 64
9, 108720, Note_on_c, 7, 50, 85
9, 108790, Note_off_c, 7, 50, 64
9, 108945, Note_on_c, 7, 50, 91
9, 109040, Note_off_c, 7, 50, 64
9, 109055, Note_on_c, 7, 52, 87
9, 109140, Note_off_c, 7, 52, 64
9, 109675, Note_on_c, 7, 52, 92
9, 109750, Note_off_c, 7, 52, 64
9, 110030, Note_on_c, 7, 50, 78
9, 110085, Note_off_c, 7, 50, 64
9, 110285, Note_on_c, 7, 47, 54
9, 110325, Note_off_c, 7, 47, 64
9, 110380, Note_on_c, 7, 50, 91
9, 110440, Note_off_c, 7, 50, 64
9, 110625, Note_on_c, 7, 50, 80
9, 110695, Note_off_c, 7, 50, 64
9, 110875, Note_on_c, 7, 52, 89
9, 111045, Pitch_bend_c, 7, 7810
9, 111080, Pitch_bend_c, 7, 7306
9, 111100, Pitch_bend_c, 7, 6676
9, 111135, Pitch_bend_c, 7, 4282
9, 111170, Pitch_bend_c, 7, 2140
9, 111190, Pitch_bend_c, 7, 1132
9, 111225, Pitch_bend_c, 7, 0
9, 111235, Note_off_c, 7, 52, 64
9, 111280, Pitch_bend_c, 7, 1384
9, 111315, Pitch_bend_c, 7, 8192
9, 111595, Note_on_c, 7, 52, 91
9, 111665, Note_off_c, 7, 52, 64
9, 111950, Note_on_c, 7, 50, 92
9, 112005, Note_off_c, 7, 50, 64
9, 112215, Note_on_c, 7, 47, 55
9, 112255, Note_off_c, 7, 47, 64
9, 112300, Note_on_c, 7, 50, 95
9, 112370, Note_off_c, 7, 50, 64
9, 112560, Note_on_c, 7, 50, 85
9, 112630, Note_off_c, 7, 50, 64
9, 112785, Note_on_c, 7, 50, 91
9, 112880, Note_off_c, 7, 50, 64
9, 112895, Note_on_c, 7, 52, 87
9, 112980, Note_off_c, 7, 52, 64
9, 113515, Note_on_c, 7, 52, 92
9, 113590, Note_off_c, 7, 52, 64
9, 113870, Note_on_c, 7, 50, 78
9, 113925, Note_off_c, 7, 50, 64
9, 114125, Note_on_c, 7, 47, 54
9, 114165, Note_off_c, 7, 47, 64
9, 114220, Note_on_c, 7, 50, 91
9, 114280, Note_off_c, 7, 50, 64
9, 114465, Note_on_c, 7, 50, 80
9, 114535, Note_off_c, 7, 50, 64
9, 114715, Note_on_c, 7, 52, 89
9, 114885, Pitch_bend_c, 7, 7810
9, 114920, Pitch_bend_c, 7, 7306
9, 114940, Pitch_bend_c, 7, 6676
9, 114975, Pitch_bend_c, 7, 4282
9, 115010, Pitch_bend_c, 7, 2140
9, 115030, Pitch_bend_c, 7, 1132
9, 115065, Pitch_bend_c, 7, 0
9, 115075, Note_off_c, 7, 52, 64
9, 115120, Pitch_bend_c, 7, 1384
9, 115155, Pitch_bend_c, 7, 8192
9, 115435, Note_on_c, 7, 52, 91
9, 115505, Note_off_c, 7, 52, 64
9, 115790, Note_on_c, 7, 50, 92
9, 115845, Note_off_c, 7, 50, 64
9, 116055, Note_on_c, 7, 47, 55
9, 116095, Note_off_c, 7, 47, 64
9, 116140, Note_on_c, 7, 50, 95
9, 116210, Note_off_c, 7, 50, 64
9, 116400, Note_on_c, 7, 50, 85
9, 116470, Note_off_c, 7, 50, 64
9, 116625, Note_on_c, 7, 50, 91
9, 116720, Note_off_c, 7, 50, 64
9, 116735, Note_on_c, 7, 52, 87
9, 116820, Note_off_c, 7, 52, 64
9, 117355, Note_on_c, 7, 52, 92
9, 117430, Note_off_c, 7, 52, 64
9, 117710, Note_on_c, 7, 50, 78
9, 117765, Note_off_c, 7, 50, 64
9, 117965, Note_on_c, 7, 47, 54
9, 118005, Note_off_c, 7, 47, 64
9, 118060, Note_on_c, 7, 50, 91
9, 118120, Note_off_c, 7, 50, 64
9, 118305, Note_on_c, 7, 50, 80
9, 118375, Note_off_c, 7, 50, 64
9, 118555, Note_on_c, 7, 52, 89
9, 118725, Pitch_bend_c, 7, 7810
9, 118760, Pitch_bend_c, 7, 7306
9, 118780, Pitch_bend_c, 7, 6676
9, 118815, Pitch_bend_c, 7, 4282
9, 118850, Pitch_bend_c, 7, 2140
9, 118870, Pitch_bend_c, 7, 1132
9, 118905, Pitch_bend_c, 7, 0
9, 118915, Note_off_c, 7, 52, 64
9, 118960, Pitch_bend_c, 7, 1384
9, 118995, Pitch_bend_c, 7, 8192
9, 119275, Note_on_c, 7, 52, 91
9, 119345, Note_off_c, 7, 52, 64
9, 119630, Note_on_c, 7, 50, 92
9, 119685, Note_off_c, 7, 50, 64
9, 119895, Note_on_c, 7, 47, 55
9, 119935, Note_off_c, 7, 47, 64
9, 119980, Note_on_c, 7, 50, 95
9, 120050, Note_off_c, 7, 50, 64
9, 120240, Note_on_c, 7, 50, 85
9, 120310, Note_off_c, 7, 50, 64
9, 120465, Note_on_c, 7, 50, 91
9, 120560, Note_off_c, 7, 50, 64
9, 120575, Note_on_c, 7, 52, 87
9, 120660, Note_off_c, 7, 52, 64
9, 121195, Note_on_c, 7, 52, 92
9, 121270, Note_off_c, 7, 52, 64
9, 121550, Note_on_c, 7, 50, 78
9, 121605, Note_off_c, 7, 50, 64
9, 121805, Note_on_c, 7, 47, 54
9, 121845, Note_off_c, 7, 47, 64
9, 121900, Note_on_c, 7, 50, 91
9, 121960, Note_off_c, 7, 50, 64
9, 122145, Note_on_c, 7, 50, 80
9, 122215, Note_off_c, 7, 50, 64
9, 122395, Note_on_c, 7, 52, 89
9, 122565, Pitch_bend_c, 7, 7810
9, 122600, Pitch_bend_c, 7, 7306
9, 122620, Pitch_bend_c, 7, 6676
9, 122655, Pitch_bend_c, 7, 4282
9, 122690, Pitch_bend_c, 7, 2140
9, 122710, Pitch_bend_c, 7, 1132
9, 122745, Pitch_bend_c, 7, 0
9, 122755, Note_off_c, 7, 52, 64
9, 122800, Pitch_bend_c, 7, 1384
9, 122835, Pitch_bend_c, 7, 8192
9, 123115, Note_on_c, 7, 52, 91
9, 123185, Note_off_c, 7, 52, 64
9, 123470, Note_on_c, 7, 50, 92
9, 123525, Note_off_c, 7, 50, 64
9, 123735, Note_on_c, 7, 47, 55
9, 123775, Note_off_c, 7, 47, 64
9, 123820, Note_on_c, 7, 50, 95
9, 123890, Note_off_c, 7, 50, 64
9, 124080, Note_on_c, 7, 50, 85
9, 124150, Note_off_c, 7, 50, 64
9, 124305, Note_on_c, 7, 50, 91
9, 124400, Note_off_c, 7, 50, 64
9, 124415, Note_on_c, 7, 52, 87
9, 124500, Note_off_c, 7, 52, 64
9, 125035, Note_on_c, 7, 52, 92
9, 125110, Note_off_c, 7, 52, 64
9, 125390, Note_on_c, 7, 50, 78
9, 125445, Note_off_c, 7, 50, 64
9, 125645, Note_on_c, 7, 47, 54
9, 125685, Note_off_c, 7, 47, 64
9, 125740, Note_on_c, 7, 50, 91
9, 125800, Note_off_c, 7, 50, 64
9, 125985, Note_on_c, 7, 50, 80
9, 126055, Note_off_c, 7, 50, 64
9, 126235, Note_on_c, 7, 52, 89
9, 126405, Pitch_bend_c, 7, 7810
9, 126440, Pitch_bend_c, 7, 7306
9, 126460, Pitch_bend_c, 7, 6676
9, 126495, Pitch_bend_c, 7, 4282
9, 126530, Pitch_bend_c, 7, 2140
9, 126550, Pitch_bend_c, 7, 1132
9, 126585, Pitch_bend_c, 7, 0
9, 126595, Note_off_c, 7, 52, 64
9, 126640, Pitch_bend_c, 7, 1384
9, 126675, Pitch_bend_c, 7, 8192
9, 126955, Note_on_c, 7, 52, 91
9, 127025, Note_off_c, 7, 52, 64
9, 127310, Note_on_c, 7, 50, 92
9, 127365, Note_off_c, 7, 50, 64
9, 127575, Note_on_c, 7, 47, 55
9, 127615, Note_off_c, 7, 47, 64
9, 127660, Note_on_c, 7, 50, 95
9, 127730, Note_off_c, 7, 50, 64
9, 127920, Note_on_c, 7, 50, 85
9, 127990, Note_off_c, 7, 50, 64
9, 128145, Note_on_c, 7, 50, 91
9, 128240, Note_off_c, 7, 50, 64
9, 128255, Note_on_c, 7, 52, 87
9, 128340, Note_off_c, 7, 52, 64
9, 128875, Note_on_c, 7, 52, 92
9, 128950, Note_off_c, 7, 52, 64
9, 129230, Note_on_c, 7, 50, 78
9, 129285, Note_off_c, 7, 50, 64
9, 129485, Note_on_c, 7, 47, 54
9, 129525, Note_off_c, 7, 47, 64
9, 129580, Note_on_c, 7, 50, 91
9, 129640, Note_off_c, 7, 50, 64
9, 129825, Note_on_c, 7, 50, 80
9, 129895, Note_off_c, 7, 50, 64
9, 130075, Note_on_c, 7, 52, 89
9, 130245, Pitch_bend_c, 7, 7810
9, 130280, Pitch_bend_c, 7, 7306
9, 130300, Pitch_bend_c, 7, 6676
9, 130335, Pitch_bend_c, 7, 4282
9, 130370, Pitch_bend_c, 7, 2140
9, 130390, Pitch_bend_c, 7, 1132
9, 130425, Pitch_bend_c, 7, 0
9, 130435, Note_off_c, 7, 52, 64
9, 130480, Pitch_bend_c, 7, 1384
9, 130515, Pitch_bend_c, 7, 8192
9, 130795, Note_on_c, 7, 52, 91
9, 130865, Note_off_c, 7, 52, 64
9, 131150, Note_on_c, 7, 50, 92
9, 131205, Note_off_c, 7, 50, 64
9, 131415, Note_on_c, 7, 47, 55
9, 131455, Note_off_c, 7, 47, 64
9, 131500, Note_on_c, 7, 50, 95
9, 131570, Note_off_c, 7, 50, 64
9, 131760, Note_on_c, 7, 50, 85
9, 131830, Note_off_c, 7, 50, 64
9, 131985, Note_on_c, 7, 50, 91
9, 132080, Note_off_c, 7, 50, 64
9, 132095, Note_on_c, 7, 52, 87
9, 132180, Note_off_c, 7, 52, 64
9, 132715, Note_on_c, 7, 52, 92
9, 132790, Note_off_c, 7, 52, 64
9, 133070, Note_on_c, 7, 50, 78
9, 133125, Note_off_c, 7, 50, 64
9, 133325, Note_on_c, 7, 47, 54
9, 133365, Note_off_c, 7, 47, 64
9, 133420, Note_on_c, 7, 50, 91
9, 133480, Note_off_c, 7, 50, 64
9, 133665, Note_on_c, 7, 50, 80
9, 133735, Note_off_c, 7, 50, 64
9, 133915, Note_on_c, 7, 52, 89
9, 134085, Pitch_bend_c, 7, 7810
9, 134120, Pitch_bend_c, 7, 7306
9, 134140, Pitch_bend_c, 7, 6676
9, 134175, Pitch_bend_c, 7, 4282
9, 134210, Pitch_bend_c, 7, 2140
9, 134230, Pitch_bend_c, 7, 1132
9, 134265, Pitch_bend_c, 7, 0
9, 134275, Note_off_c, 7, 52, 64
9, 134320, Pitch_bend_c, 7, 1384
9, 134355, Pitch_bend_c, 7, 8192
9, 134635, Note_on_c, 7, 52, 91
9, 134705, Note_off_c, 7, 52, 64
9, 134990, Note_on_c, 7, 50, 92
9, 135045, Note_off_c, 7, 50, 64
9, 135255, Note_on_c, 7, 47, 55
9, 135295, Note_off_c, 7, 47, 64
9, 135340, Note_on_c, 7, 50, 95
9, 135410, Note_off_c, 7, 50, 64
9, 135600, Note_on_c, 7, 50, 85
9, 135670, Note_off_c, 7, 50, 64
9, 135825, Note_on_c, 7, 50, 91
9, 135920, Note_off_c, 7, 50, 64
9, 135935, Note_on_c, 7, 52, 87
9, 136020, Note_off_c, 7, 52, 64
9, 136555, Note_on_c, 7, 52, 92
9, 136630, Note_off_c, 7, 52, 64
9, 136910, Note_on_c, 7, 50, 78
9, 136965, Note_off_c, 7, 50, 64
9, 137165, Note_on_c, 7, 47, 54
9, 137205, Note_off_c, 7, 47, 64
9, 137260, Note_on_c, 7, 50, 91
9, 137320, Note_off_c, 7, 50, 64
9, 137505, Note_on_c, 7, 50, 80
9, 137575, Note_off_c, 7, 50, 64
9, 137755, Note_on_c, 7, 52, 89
9, 137925, Pitch_bend_c, 7, 7810
9, 137960, Pitch_bend_c, 7, 7306
9, 137980, Pitch_bend_c, 7, 6676
9, 138015, Pitch_bend_c, 7, 4282
9, 138050, Pitch_bend_c, 7, 2140
9, 138070, Pitch_bend_c, 7, 1132
9, 138105, Pitch_bend_c, 7, 0
9, 138115, Note_off_c, 7, 52, 64
9, 138160, Pitch_bend_c, 7, 1384
9, 138195, Pitch_bend_c, 7, 8192
9, 138475, Note_on_c, 7, 52, 91
9, 138545, Note_off_c, 7, 52, 64
9, 138830, Note_on_c, 7, 50, 92
9, 138885, Note_off_c, 7, 50, 64
9, 139095, Note_on_c, 7, 47, 55
9, 139135, Note_off_c, 7, 47, 64
9, 139180, Note_on_c, 7, 50, 95
9, 139250, Note_off_c, 7, 50, 64
9, 139440, Note_on_c, 7, 50, 85
9, 139510, Note_off_c, 7, 50, 64
9, 139665, Note_on_c, 7, 50, 91
9, 139760, Note_off_c, 7, 50, 64
9, 139775, Note_on_c, 7, 52, 87
9, 139860, Note_off_c, 7, 52, 64
9, 140395, Note_on_c, 7, 52, 92
9, 140470, Note_off_c, 7, 52, 64
9, 140750, Note_on_c, 7, 50, 78
9, 140805, Note_off_c, 7, 50, 64
9, 141005, Note_on_c, 7, 47, 54
9, 141045, Note_off_c, 7, 47, 64
9, 141100, Note_on_c, 7, 50, 91
9, 141160, Note_off_c, 7, 50, 64
9, 141345, Note_on_c, 7, 50, 80
9, 141415, Note_off_c, 7, 50, 64
9, 141595, Note_on_c, 7, 52, 89
9, 141765, Pitch_bend_c, 7, 7810
9, 141800, Pitch_bend_c, 7, 7306
9, 141820, Pitch_bend_c, 7, 6676
9, 141855, Pitch_bend_c, 7, 4282
9, 141890, Pitch_bend_c, 7, 2140
9, 141910, Pitch_bend_c, 7, 1132
9, 141945, Pitch_bend_c, 7, 0
9, 141955, Note_off_c, 7, 52, 64
9, 142000, Pitch_bend_c, 7, 1384
9, 142035, Pitch_bend_c, 7, 8192
9, 142315, Note_on_c, 7, 52, 91
9, 142385, Note_off_c, 7, 52, 64
9, 142670, Note_on_c, 7, 50, 92
9, 142725, Note_off_c, 7, 50, 64
9, 142935, Note_on_c, 7, 47, 55
9, 142975, Note_off_c, 7, 47, 64
9, 143020, Note_on_c, 7, 50, 95
9, 143090, Note_off_c, 7, 50, 64
9, 143280, Note_on_c, 7, 50, 85
9, 143350, Note_off_c, 7, 50, 64
9, 143505, Note_on_c, 7, 50, 91
9, 143600, Note_off_c, 7, 50, 64
9, 143615, Note_on_c, 7, 52, 87
9, 143700, Note_off_c, 7, 52, 64
9, 144235, Note_on_c, 7, 52, 92
9, 144310, Note_off_c, 7, 52, 64
9, 144590, Note_on_c, 7, 50, 78
9, 144645, Note_off_c, 7, 50, 64
9, 144845, Note_on_c, 7, 47, 54
9, 144885, Note_off_c, 7, 47, 64
9, 144940, Note_on_c, 7, 50, 91
9, 145000, Note_off_c, 7, 50, 64
9, 145185, Note_on_c, 7, 50, 80
9, 145255, Note_off_c, 7, 50, 64
9, 145435, Note_on_c, 7, 52, 89
9, 145605, Pitch_bend_c, 7, 7810
9, 145640, Pitch_bend_c, 7, 7306
9, 145660, Pitch_bend_c, 7, 6676
9, 145695, Pitch_bend_c, 7, 4282
9, 145730, Pitch_bend_c, 7, 2140
9, 145750, Pitch_bend_c, 7, 1132
9, 145785, Pitch_bend_c, 7, 0
9, 145795, Note_off_c, 7, 52, 64
9, 145840, Pitch_bend_c, 7, 1384
9, 145875, Pitch_bend_c, 7, 8192
9, 146155, Note_on_c, 7, 52, 91
9, 146225, Note_off_c, 7, 52, 64
9, 146510, Note_on_c, 7, 50, 92
9, 146565, Note_off_c, 7, 50, 64
9, 146775, Note_on_c, 7, 47, 55
9, 146815, Note_off_c, 7, 47, 64
9, 146860, Note_on_c, 7, 50, 95
9, 146930, Note_off_c, 7, 50, 64
9, 147120, Note_on_c, 7, 50, 85
9, 147190, Note_off_c, 7, 50, 64
9, 147345, Note_on_c, 7, 50, 91
9, 147440, Note_off_c, 7, 50, 64
9, 147455, Note_on_c, 7, 52, 87
9, 147540, Note_off_c, 7, 52, 64
9, 148075, Note_on_c, 7, 52, 92
9, 148150, Note_off_c, 7, 52, 64
9, 148430, Note_on_c, 7, 50, 78
9, 148485, Note_off_c, 7, 50, 64
9, 148685, Note_on_c, 7, 47, 54
9, 148725, Note_off_c, 7, 47, 64
9, 148780, Note_on_c, 7, 50, 91
9, 148840, Note_off_c, 7, 50, 64
9, 149025, Note_on_c, 7, 50, 80
9, 149095, Note_off_c, 7, 50, 64
9, 149275, Note_on_c, 7, 52, 89
9, 149445, Pitch_bend_c, 7, 7810
9, 149480, Pitch_bend_c, 7, 7306
9, 149500, Pitch_bend_c, 7, 6676
9, 149535, Pitch_bend_c, 7, 4282
9, 149570, Pitch_bend_c, 7, 2140
9, 149590, Pitch_bend_c, 7, 1132
9, 149625, Pitch_bend_c, 7, 0
9, 149635, Note_off_c, 7, 52, 64
9, 149680, Pitch_bend_c, 7, 1384
9, 149715, Pitch_bend_c, 7, 8192
9, 149995, Note_on_c, 7, 52, 91
9, 150065, Note_off_c, 7, 52, 64
9, 150350, Note_on_c, 7, 50, 92
9, 150405, Note_off_c, 7, 50, 64
9, 150615, Note_on_c, 7, 47, 55
9, 150655, Note_off_c, 7, 47, 64
9, 150700, Note_on_c, 7, 50, 95
9, 150770, Note_off_c, 7, 50, 64
9, 150960, Note_on_c, 7, 50, 85
9, 151030, Note_off_c, 7, 50, 64
9, 151185, Note_on_c, 7, 50, 91
9, 151280, Note_off_c, 7, 50, 64
9, 151295, Note_on_c, 7, 52, 87
9, 151380, Note_off_c, 7, 52, 64
9, 151915, Note_on_c, 7, 52, 92
9, 151990, Note_off_c, 7, 52, 64
9, 152270, Note_on_c, 7, 50, 78
9, 152325, Note_off_c, 7, 50, 64
9, 152525, Note_on_c, 7, 47, 54
9, 152565, Note_off_c, 7, 47, 64
9, 152620, Note_on_c, 7, 50, 91
9, 152680, Note_off_c, 7, 50, 64
9, 152865, Note_on_c, 7, 50, 80
9, 152935, Note_off_c, 7, 50, 64
9, 153115, Note_on_c, 7, 52, 89
9, 153285, Pitch_bend_c, 7, 7810
9, 153320, Pitch_bend_c, 7, 7306
9, 153340, Pitch_bend_c, 7, 6676
9, 153375, Pitch_bend_c, 7, 4282
9, 153410, Pitch_bend_c, 7, 2140
9, 153430, Pitch_bend_c, 7, 1132
9, 153465, Pitch_bend_c, 7, 0
9, 153475, Note_off_c, 7, 52, 64
9, 153520, Pitch_bend_c, 7, 1384
9, 153555, Pitch_bend_c, 7, 8192
9, 153835, Note_on_c, 7, 52, 91
9, 153905, Note_off_c, 7, 52, 64
9, 154190, Note_on_c, 7, 50, 92
9, 154245, Note_off_c, 7, 50, 64
9, 154455, Note_on_c, 7, 47, 55
9, 154495, Note_off_c, 7, 47, 64
9, 154540, Note_on_c, 7, 50, 95
9, 154610, Note_off_c, 7, 50, 64
9, 154800, Note_on_c, 7, 50, 85
9, 154870, Note_off_c, 7, 50, 64
9, 155025, Note_on_c, 7, 50, 91
9, 155120, Note_off_c, 7, 50, 64
9, 155135, Note_on_c, 7, 52, 87
9, 155220, Note_off_c, 7, 52, 64
9, 155755, Note_on_c, 7, 52, 92
9, 155830, Note_off_c, 7, 52, 64
9, 156110, Note_on_c, 7, 50, 78
9, 156165, Note_off_c, 7, 50, 64
9, 156365, Note_on_c, 7, 47, 54
9, 156405, Note_off_c, 7, 47, 64
9, 156460, Note_on_c, 7, 50, 91
9, 156520, Note_off_c, 7, 50, 64
9, 156705, Note_on_c, 7, 50, 80
9, 156775, Note_off_c, 7, 50, 64
9, 156955, Note_on_c, 7, 52, 89
9, 157125, Pitch_bend_c, 7, 7810
9, 157160, Pitch_bend_c, 7, 7306
9, 157180, Pitch_bend_c, 7, 6676
9, 157215, Pitch_bend_c, 7, 4282
9, 157250, Pitch_bend_c, 7, 2140
9, 157270, Pitch_bend_c, 7, 1132
9, 157305, Pitch_bend_c, 7, 0
9, 157315, Note_off_c, 7, 52, 64
9, 157360, Pitch_bend_c, 7, 1384
9, 157395, Pitch_bend_c, 7, 8192
9, 157675, Note_on_c, 7, 52, 91
9, 157745, Note_off_c, 7, 52, 64
9, 158030, Note_on_c, 7, 50, 92
9, 158085, Note_off_c, 7, 50, 64
9, 158295, Note_on_c, 7, 47, 55
9, 158335, Note_off_c, 7, 47, 64
9, 158380, Note_on_c, 7, 50, 95
9, 158450, Note_off_c, 7, 50, 64
9, 158640, Note_on_c, 7, 50, 85
9, 158710, Note_off_c, 7, 50, 64
9, 158865, Note_on_c, 7, 50, 91
9, 158960, Note_off_c, 7, 50, 64
9, 158975, Note_on_c, 7, 52, 87
9, 159060, Note_off_c, 7, 52, 64
9, 159595, Note_on_c, 7, 52, 92
9, 159670, Note_off_c, 7, 52, 64
9, 159950, Note_on_c, 7, 50, 78
9, 160005, Note_off_c, 7, 50, 64
9, 160205, Note_on_c, 7, 47, 54
9, 160245, Note_off_c, 7, 47, 64
9, 160300, Note_on_c, 7, 50, 91
9, 160360, Note_off_c, 7, 50, 64
9, 160545, Note_on_c, 7, 50, 80
9, 160615, Note_off_c, 7, 50, 64
9, 160795, Note_on_c, 7, 52, 89
9, 160965, Pitch_bend_c, 7, 7810
9, 161000, Pitch_bend_c, 7, 7306
9, 161020, Pitch_bend_c, 7, 6676
9, 161055, Pitch_bend_c, 7, 4282
9, 161090, Pitch_bend_c, 7, 2140
9, 161110, Pitch_bend_c, 7, 1132
9, 161145, Pitch_bend_c, 7, 0
9, 161155, Note_off_c, 7, 52, 64
9, 161200, Pitch_bend_c, 7, 1384
9, 161235, Pitch_bend_c, 7, 8192
9, 161515, Note_on_c, 7, 52, 91
9, 161585, Note_off_c, 7, 52, 64
9, 161870, Note_on_c, 7, 50, 92
9, 161925, Note_off_c, 7, 50, 64
9, 162135, Note_on_c, 7, 47, 55
9, 162175, Note_off_c, 7, 47, 64
9, 162220, Note_on_c, 7, 50, 95
9, 162290, Note_off_c, 7, 50, 64
9, 162480, Note_on_c, 7, 50, 85
9, 162550, Note_off_c, 7, 50, 64
9, 162705, Note_on_c, 7, 50, 91
9, 162800, Note_off_c, 7, 50, 64
9, 162815, Note_on_c, 7, 52, 87
9, 162900, Note_off_c, 7, 52, 64
9, 163435, Note_on_c, 7, 52, 92
9, 163510, Note_off_c, 7, 52, 64
9, 163790, Note_on_c, 7, 50, 78
9, 163845, Note_off_c, 7, 50, 64
9, 164045, Note_on_c, 7, 47, 54
9, 164085, Note_off_c, 7, 47, 64
9, 164140, Note_on_c, 7, 50, 91
9, 164200, Note_off_c, 7, 50, 64
9, 164385, Note_on_c, 7, 50, 80
9, 164455, Note_off_c, 7, 50, 64
9, 164635, Note_on_c, 7, 52, 89
9, 164805, Pitch_bend_c, 7, 7810
9, 164840, Pitch_bend_c, 7, 7306
9, 164860, Pitch_bend_c, 7, 6676
9, 164895, Pitch_bend_c, 7, 4282
9, 164930, Pitch_bend_c, 7, 2140
9, 164950, Pitch_bend_c, 7, 1132
9, 164985, Pitch_bend_c, 7, 0
9, 164995, Note_off_c, 7, 52, 64
9, 165040, Pitch_bend_c, 7, 1384
9, 165075, Pitch_bend_c, 7, 8192
9, 165355, Note_on_c, 7, 52, 91
9, 165425, Note_off_c, 7, 52, 64
9, 165710, Note_on_c, 7, 50, 92
9, 165765, Note_off_c, 7, 50, 64
9, 165975, Note_on_c, 7, 47, 55
9, 166015, Note_off_c, 7, 47, 64
9, 166060, Note_on_c, 7, 50, 95
9, 166130, Note_off_c, 7, 50, 64
9, 166320, Note_on_c, 7, 50, 85
9, 166390, Note_off_c, 7, 50, 64
9, 166545, Note_on_c, 7, 50, 91
9, 166640, Note_off_c, 7, 50, 64
9, 166655, Note_on_c, 7, 52, 87
9, 166740, Note_off_c, 7, 52, 64
9, 167275, Note_on_c, 7, 52, 92
9, 167350, Note_off_c, 7, 52, 64
9, 167630, Note_on_c, 7, 50, 78
9, 167685, Note_off_c, 7, 50, 64
9, 167885, Note_on_c, 7, 47, 54
9, 167925, Note_off_c, 7, 47, 64
9, 167980, Note_on_c, 7, 50, 91
9, 168040, Note_off_c, 7, 50, 64
9, 168225, Note_on_c, 7, 50, 80
9, 168295, Note_off_c, 7, 50, 64
9, 168475, Note_on_c, 7, 52, 89
9, 168645, Pitch_bend_c, 7, 7810
9, 168680, Pitch_bend_c, 7, 7306
9, 168700, Pitch_bend_c, 7, 6676
9, 168735, Pitch_bend_c, 7, 4282
9, 168770, Pitch_bend_c, 7, 2140
9, 168790, Pitch_bend_c, 7, 1132
9, 168825, Pitch_bend_c, 7, 0
9, 168835, Note_off_c, 7, 52, 64
9, 168880, Pitch_bend_c, 7, 1384
9, 168915, Pitch_bend_c, 7, 8192
9, 169195, Note_on_c, 7, 52, 91
9, 169265, Note_off_c, 7, 52, 64
9, 169550, Note_on_c, 7, 50, 92
9, 169605, Note_off_c, 7, 50, 64
9, 169815, Note_on_c, 7, 47, 55
9, 169855, Note_off_c, 7, 47, 64
9, 169900, Note_on_c, 7, 50, 95
9, 169970, Note_off_c, 7, 50, 64
9, 170160, Note_on_c, 7, 50, 85
9, 170230, Note_off_c, 7, 50, 64
9, 170385, Note_on_c, 7, 50, 91
9, 170480, Note_off_c, 7, 50, 64
9, 170495, Note_on_c, 7, 52, 87
9, 170580, Note_off_c, 7, 52, 64
9, 171115, Note_on_c, 7, 52, 92
9, 171190, Note_off_c, 7, 52, 64
9, 171470, Note_on_c, 7, 50, 78
9, 171525, Note_off_c, 7, 50, 64
9, 171725, Note_on_c, 7, 47, 54
9, 171765, Note_off_c, 7, 47, 64
9, 171820, Note_on_c, 7, 50, 91
9, 171880, Note_off_c, 7, 50, 64
9, 172065, Note_on_c, 7, 50, 80
9, 172135, Note_off_c, 7, 50, 64
9, 172315, Note_on_c, 7, 52, 89
9, 172485, Pitch_bend_c, 7, 7810
9, 172520, Pitch_bend_c, 7, 7306
9, 172540, Pitch_bend_c, 7, 6676
9, 172575, Pitch_bend_c, 7, 4282
9, 172610, Pitch_bend_c, 7, 2140
9, 172630, Pitch_bend_c, 7, 1132
9, 172665, Pitch_bend_c, 7, 0
9, 172675, Note_off_c, 7, 52, 64
9, 172720, Pitch_bend_c, 7, 1384
9, 172755, Pitch_bend_c, 7, 8192
9, 173035, Note_on_c, 7, 52, 91
9, 173105, Note_off_c, 7, 52, 64
9, 173390, Note_on_c, 7, 50, 92
9, 173445, Note_off_c, 7, 50, 64
9, 173655, Note_on_c, 7, 47, 55
9, 173695, Note_off_c, 7, 47, 64
9, 173740, Note_on_c, 7, 50, 95
9, 173810, Note_off_c, 7, 50, 64
9, 174000, Note_on_c, 7, 50, 85
9, 174070, Note_off_c, 7, 50, 64
9, 174225, Note_on_c, 7, 50, 91
9, 174320, Note_off_c, 7, 50, 64
9, 174335, Note_on_c, 7, 52, 87
9, 174420, Note_off_c, 7, 52, 64
9, 174955, Note_on_c, 7, 52, 92
9, 175030, Note_off_c, 7, 52, 64
9, 175310, Note_on_c, 7, 50, 78
9, 175365, Note_off_c, 7, 50, 64
9, 175565, Note_on_c, 7, 47, 54
9, 175605, Note_off_c, 7, 47, 64
9, 175660, Note_on_c, 7, 50, 91
9, 175720, Note_off_c, 7, 50, 64
9, 175905, Note_on_c, 7, 50, 80
9, 175975, Note_off_c, 7, 50, 64
9, 176155, Note_on_c, 7, 52, 89
9, 176325, Pitch_bend_c, 7, 7810
9, 176360, Pitch_bend_c, 7, 7306
9, 176380, Pitch_bend_c, 7, 6676
9, 176415, Pitch_bend_c, 7, 4282
9, 176450, Pitch_bend_c, 7, 2140
9, 176470, Pitch_bend_c, 7, 1132
9, 176505, Pitch_bend_c, 7, 0
9, 176515, Note_off_c, 7, 52, 64
9, 176560, Pitch_bend_c, 7, 1384
9, 176595, Pitch_bend_c, 7, 8192
9, 176875, Note_on_c, 7, 52, 91
9, 176945, Note_off_c, 7, 52, 64
9, 177230, Note_on_c, 7, 50, 92
9, 177285, Note_off_c, 7, 50, 64
9, 177495, Note_on_c, 7, 47, 55
9, 177535, Note_off_c, 7, 47, 64
9, 177580, Note_on_c, 7, 50, 95
9, 177650, Note_off_c, 7, 50, 64
9, 177840, Note_on_c, 7, 50, 85
9, 177910, Note_off_c, 7, 50, 64
9, 178065, Note_on_c, 7, 50, 91
9, 178160, Note_off_c, 7, 50, 64
9, 178175, Note_on_c, 7, 52, 87
9, 178260, Note_off_c, 7, 52, 64
9, 178795, Note_on_c, 7, 52, 92
9, 178870, Note_off_c, 7, 52, 64
9, 179150, Note_on_c, 7, 50, 78
9, 179205, Note_off_c, 7, 50, 64
9, 179405, Note_on_c, 7, 47, 54
9, 179445, Note_off_c, 7, 47, 64
9, 179500, Note_on_c, 7, 50, 91
9, 179560, Note_off_c, 7, 50, 64
9, 179745, Note_on_c, 7, 50, 80
9, 179815, Note_off_c, 7, 50, 64
9, 179995, Note_on_c, 7, 52, 89
9, 180165, Pitch_bend_c, 7, 7810
9, 180200, Pitch_bend_c, 7, 7306
9, 180220, Pitch_bend_c, 7, 6676
9, 180255, Pitch_bend_c, 7, 4282
9, 180290, Pitch_bend_c, 7, 2140
9, 180310, Pitch_bend_c, 7, 1132
9, 180345, Pitch_bend_c, 7, 0
9, 180355, Note_off_c, 7, 52, 64
9, 180400, Pitch_bend_c, 7, 1384
9, 180435, Pitch_bend_c, 7, 8192
9, 180715, Note_on_c, 7, 52, 91
9, 180785, Note_off_c, 7, 52, 64
9, 181070, Note_on_c, 7, 50, 92
9, 181125, Note_off_c, 7, 50, 64
9, 181335, Note_on_c, 7, 47, 55
9, 181375, Note_off_c, 7, 47, 64
9, 181420, Note_on_c, 7, 50, 95
9, 181490, Note_off_c, 7, 50, 64
9, 181680, Note_on_c, 7, 50, 85
9, 181750, Note_off_c, 7, 50, 64
9, 181905, Note_on_c, 7, 50, 91
9, 182000, Note_off_c, 7, 50, 64
9, 182015, Note_on_c, 7, 52, 87
9, 182100, Note_off_c, 7, 52, 64
9, 182635, Note_on_c, 7, 52, 92
9, 182710, Note_off_c, 7, 52, 64
9, 182990, Note_on_c, 7, 50, 78
9, 183045, Note_off_c, 7, 50, 64
9, 183245, Note_on_c, 7, 47, 54
9, 183285, Note_off_c, 7, 47, 64
9, 183340, Note_on_c, 7, 50, 91
9, 183400, Note_off_c, 7, 50, 64
9, 183585, Note_on_c, 7, 50, 80
9, 183655, Note_off_c, 7, 50, 64
9, 183835, Note_on_c, 7, 52, 89
9, 184005, Pitch_bend_c, 7, 7810
9, 184040, Pitch_bend_c, 7, 7306
9, 184060, Pitch_bend_c, 7, 6676
9, 184095, Pitch_bend_c, 7, 4282
9, 184130, Pitch_bend_c, 7, 2140
9, 184150, Pitch_bend_c, 7, 1132
9, 184185, Pitch_bend_c, 7, 0
9, 184195, Note_off_c, 7, 52, 64
9, 184240, Pitch_bend_c, 7, 1384
9, 184275, Pitch_bend_c, 7, 8192
9, 184555, Note_on_c, 7, 52, 91
9, 184625, Note_off_c, 7, 52, 64
9, 184910, Note_on_c, 7, 50, 92
9, 184965, Note_off_c, 7, 50, 64
9, 185175, Note_on_c, 7, 47, 55
9, 185215, Note_off_c, 7, 47, 64
9, 185260, Note_on_c, 7, 50, 95
9, 185330, Note_off_c, 7, 50, 64
9, 185520, Note_on_c, 7, 50, 85
9, 185590, Note_off_c, 7, 50, 64
9, 185745, Note_on_c, 7, 50, 91
9, 185840, Note_off_c, 7, 50, 64
9, 185855, Note_on_c, 7, 52, 87
9, 185940, Note_off_c, 7, 52, 64
9, 186475, Note_on_c, 7, 52, 92
9, 186550, Note_off_c, 7, 52, 64
9, 186830, Note_on_c, 7, 50, 78
9, 186885, Note_off_c, 7, 50, 64
9, 187085, Note_on_c, 7, 47, 54
9, 187125, Note_off_c, 7, 47, 64
9, 187180, Note_on_c, 7, 50, 91
9, 187240, Note_off_c, 7, 50, 64
9, 187425, Note_on_c, 7, 50, 80
9, 187495, Note_off_c, 7, 50, 64
9, 187675, Note_on_c, 7, 52, 89
9, 187845, Pitch_bend_c, 7, 7810
9, 187880, Pitch_bend_c, 7, 7306
9, 187900, Pitch_bend_c, 7, 6676
9, 187935, Pitch_bend_c, 7, 4282
9, 187970, Pitch_bend_c, 7, 2140
9, 187990, Pitch_bend_c, 7, 1132
9, 188025, Pitch_bend_c, 7, 0
9, 188035, Note_off_c, 7, 52, 64
9, 188080, Pitch_bend_c, 7, 1384
9, 188115, Pitch_bend_c, 7, 8192
9, 188395, Note_on_c, 7, 52, 91
9, 188465, Note_off_c, 7, 52, 64
9, 188750, Note_on_c, 7, 50, 92
9, 188805, Note_off_c, 7, 50, 64
9, 189015, Note_on_c, 7, 47, 55
9, 189055, Note_off_c, 7, 47, 64
9, 189100, Note_on_c, 7, 50, 95
9, 189170, Note_off_c, 7, 50, 64
9, 189360, Note_on_c, 7, 50, 85
9, 189430, Note_off_c, 7, 50, 64
9, 189585, Note_on_c, 7, 50, 91
9, 189680, Note_off_c, 7, 50, 64
9, 189695, Note_on_c, 7, 52, 87
9, 189780, Note_off_c, 7, 52, 64
9, 190315, Note_on_c, 7, 52, 92
9, 190390, Note_off_c, 7, 52, 64
9, 190670, Note_on_c, 7, 50, 78
9, 190725, Note_off_c, 7, 50, 64
9, 190925, Note_on_c, 7, 47, 54
9, 190965, Note_off_c, 7, 47, 64
9, 191020, Note_on_c, 7, 50, 91
9, 191080, Note_off_c, 7, 50, 64
9, 191265, Note_on_c, 7, 50, 80
9, 191335, Note_off_c, 7, 50, 64
9, 191515, Note_on_c, 7, 52, 89
9, 191685, Pitch_bend_c, 7, 7810
9, 191720, Pitch_bend_c, 7, 7306
9, 191740, Pitch_bend_c, 7, 6676
9, 191775, Pitch_bend_c, 7, 4282
9, 191810, Pitch_bend_c, 7, 2140
9, 191830, Pitch_bend_c, 7, 1132
9, 191865, Pitch_bend_c, 7, 0
9, 191875, Note_off_c, 7, 52, 64
9, 191920, Pitch_bend_c, 7, 1384
9, 191955, Pitch_bend_c, 7, 8192
9, 192235, Note_on_c, 7, 52, 91
9, 192305, Note_off_c, 7, 52, 64
9, 192590, Note_on_c, 7, 50, 92
9, 192645, Note_off_c, 7, 50, 64
9, 192855, Note_on_c, 7, 47, 55
9, 192895, Note_off_c, 7, 47, 64
9, 192940, Note_on_c, 7, 50, 95
9, 193010, Note_off_c, 7, 50, 64
9, 193200, Note_on_c, 7, 50, 85
9, 193270, Note_off_c, 7, 50, 64
9, 193425, Note_on_c, 7, 50, 91
9, 193520, Note_off_c, 7, 50, 64
9, 193535, Note_on_c, 7, 52, 87
9, 193620, Note_off_c, 7, 52, 64
9, 194155, Note_on_c, 7, 52, 92
9, 194230, Note_off_c, 7, 52, 64
9, 194510, Note_on_c, 7, 50, 78
9, 194565, Note_off_c, 7, 50, 64
9, 194765, Note_on_c, 7, 47, 54
9, 194805, Note_off_c, 7, 47, 64
9, 194860, Note_on_c, 7, 50, 91
9, 194920, Note_off_c, 7, 50, 64
9, 195105, Note_on_c, 7, 50, 80
9, 195175, Note_off_c, 7, 50, 64
9, 195355, Note_on_c, 7, 52, 89
9, 195525, Pitch_bend_c, 7, 7810
9, 195560, Pitch_bend_c, 7, 7306
9, 195580, Pitch_bend_c, 7, 6676
9, 195615, Pitch_bend_c, 7, 4282
9, 195650, Pitch_bend_c, 7, 2140
9, 195670, Pitch_bend_c, 7, 1132
9, 195705, Pitch_bend_c, 7, 0
9, 195715, Note_off_c, 7, 52, 64
9, 195760, Pitch_bend_c, 7, 1384
9, 195795, Pitch_bend_c, 7, 8192
9, 196075, Note_on_c, 7, 52, 91
9, 196145, Note_off_c, 7, 52, 64
9, 196430, Note_on_c, 7, 50, 92
9, 196485, Note_off_c, 7, 50, 64
9, 196695, Note_on_c, 7, 47, 55
9, 196735, Note_off_c, 7, 47, 64
9, 196780, Note_on_c, 7, 50, 95
9, 196850, Note_off_c, 7, 50, 64
9, 197040, Note_on_c, 7, 50, 85
9, 197110, Note_off_c, 7, 50, 64
9, 197265, Note_on_c, 7, 50, 91
9, 197360, Note_off_c, 7, 50, 64
9, 197375, Note_on_c, 7, 52, 87
9, 197460, Note_off_c, 7, 52, 64
9, 197995, Note_on_c, 7, 52, 92
9, 198070, Note_off_c, 7, 52, 64
9, 198350, Note_on_c, 7, 50, 78
9, 198405, Note_off_c, 7, 50, 64
9, 198605, Note_on_c, 7, 47, 54
9, 198645, Note_off_c, 7, 47, 64
9, 198700, Note_on_c, 7, 50, 91
9, 198760, Note_off_c, 7, 50, 64
9, 198945, Note_on_c, 7, 50, 80
9, 199015, Note_off_c, 7, 50, 64
9, 199195, Note_on_c, 7, 52, 89
9, 199365, Pitch_bend_c, 7, 7810
9, 199400, Pitch_bend_c, 7, 7306
9, 199420, Pitch_bend_c, 7, 6676
9, 199455, Pitch_bend_c, 7, 4282
9, 199490, Pitch_bend_c, 7, 2140
9, 199510, Pitch_bend_c, 7, 1132
9, 199545, Pitch_bend_c, 7, 0
9, 199555, Note_off_c, 7, 52, 64
9, 199600, Pitch_bend_c, 7, 1384
9, 199635, Pitch_bend_c, 7, 8192
9, 199915, Note_on_c, 7, 52, 91
9, 199985, Note_off_c, 7, 52, 64
9, 200270, Note_on_c, 7, 50, 92
9, 200325, Note_off_c, 7, 50, 64
9, 200535, Note_on_c, 7, 47, 55
9, 200575, Note_off_c, 7, 47, 64
9, 200620, Note_on_c, 7, 50, 95
9, 200690, Note_off_c, 7, 50, 64
9, 200880, Note_on_c, 7, 50, 85
9, 200950, Note_off_c, 7, 50, 64
9, 201105, Note_on_c, 7, 50, 91
9, 201200, Note_off_c, 7, 50, 64
9, 201215, Note_on_c, 7, 52, 87
9, 201300, Note_off_c, 7, 52, 64
9, 201835, Note_on_c, 7, 52, 92
9, 201910, Note_off_c, 7, 52, 64
9, 202190, Note_on_c, 7, 50, 78
9, 202245, Note_off_c, 7, 50, 64
9, 202445, Note_on_c, 7, 47, 54
9, 202485, Note_off_c, 7, 47, 64
9, 202540, Note_on_c, 7, 50, 91
9, 202600, Note_off_c, 7, 50, 64
9, 202785, Note_on_c, 7, 50, 80
9, 202855, Note_off_c, 7, 50, 64
9, 203035, Note_on_c, 7, 52, 89
9, 203205, Pitch_bend_c, 7, 7810
9, 203240, Pitch_bend_c, 7, 7306
9, 203260, Pitch_bend_c, 7, 6676
9, 203295, Pitch_bend_c, 7, 4282
9, 203330, Pitch_bend_c, 7, 2140
9, 203350, Pitch_bend_c, 7, 1132
9, 203385, Pitch_bend_c, 7, 0
9, 203395, Note_off_c, 7, 52, 64
9, 203440, Pitch_bend_c, 7, 1384
9, 203475, Pitch_bend_c, 7, 8192
9, 203755, Note_on_c, 7, 52, 91
9, 203825, Note_off_c, 7, 52, 64
9, 204110, Note_on_c, 7, 50, 92
9, 204165, Note_off_c, 7, 50, 64
9, 204375, Note_on_c, 7, 47, 55
9, 204415, Note_off_c, 7, 47, 64
9, 204460, Note_on_c, 7, 50, 95
9, 204530, Note_off_c, 7, 50, 64
9, 204720, Note_on_c, 7, 50, 85
9, 204790, Note_off_c, 7, 50, 64
9, 204945, Note_on_c, 7, 50, 91
9, 205040, Note_off_c, 7, 50, 64
9, 205055, Note_on_c, 7, 52, 87
9, 205140, Note_off_c, 7, 52, 64
9, 205675, Note_on_c, 7, 52, 92
9, 205750, Note_off_c, 7, 52, 64
9, 206030, Note_on_c, 7, 50, 78
9, 206085, Note_off_c, 7, 50, 64
9, 206285, Note_on_c, 7, 47, 54
9, 206325, Note_off_c, 7, 47, 64
9, 206380, Note_on_c, 7, 50, 91
9, 206440, Note_off_c, 7, 50, 64
9, 206625, Note_on_c, 7, 50, 80
9, 206695, Note_off_c, 7, 50, 64
9, 206875, Note_on_c, 7, 52, 89
9, 207045, Pitch_bend_c, 7, 7810
9, 207080, Pitch_bend_c, 7, 7306
9, 207100, Pitch_bend_c, 7, 6676
9, 207135, Pitch_bend_c, 7, 4282
9, 207170, Pitch_bend_c, 7, 2140
9, 207190, Pitch_bend_c, 7, 1132
9, 207225, Pitch_bend_c, 7, 0
9, 207235, Note_off_c, 7, 52, 64
9, 207280, Pitch_bend_c, 7, 1384
9, 207315, Pitch_bend_c, 7, 8192
9, 207595, Note_on_c, 7, 52, 91
9, 207665, Note_off_c, 7, 52, 64
9, 207950, Note_on_c, 7, 50, 92
9, 208005, Note_off_c, 7, 50, 64
9, 208215, Note_on_c, 7, 47, 55
9, 208255, Note_off_c, 7, 47, 64
9, 208300, Note_on_c, 7, 50, 95
9, 208370, Note_off_c, 7, 50, 64
9, 208560, Note_on_c, 7, 50, 85
9, 208630, Note_off_c, 7, 50, 64
9, 208785, Note_on_c, 7, 50, 91
9, 208880, Note_off_c, 7, 50, 64
9, 208895, Note_on_c, 7, 52, 87
9, 208980, Note_off_c, 7, 52, 64
9, 208980, End_track
10, 0, Start_track
10, 0, Title_t, "tk10"
10, 0, MIDI_port, 0
10, 0, Channel_prefix, 9
10, 0, Control_c, 9, 10, 64
10, 680, Control_c, 9, 0, 0
10, 685, Control_c, 9, 32, 0
10, 690, Program_c, 9, 0
10, 695, Control_c, 9, 7, 110
10, 695, Control_c, 9, 10, 64
10, 695, Control_c, 9, 11, 127
10, 700, Control_c, 9, 91, 70
10, 700, Control_c, 9, 93, 0
10, 3330, Note_on_c, 9, 38, 108
10, 3340, Note_off_c, 9, 38, 64
10, 3360, Note_on_c, 9, 38, 108
10, 3370, Note_off_c, 9, 38, 64
10, 3840, Note_on_c, 9, 35, 98
10, 3840, Note_on_c, 9, 49, 70
10, 3850, Note_off_c, 9, 49, 64
10, 3850, Note_off_c, 9, 35, 64
10, 4080, Note_on_c, 9, 42, 84
10, 4090, Note_off_c, 9, 42, 64
10, 4320, Note_on_c, 9, 38, 107
10, 4320, Note_on_c, 9, 39, 94
10, 4320, Note_on_c, 9, 42, 109
10, 4320, Note_on_c, 9, 54, 82
10, 4330, Note_off_c, 9, 54, 64
10, 4330, Note_off_c, 9, 42, 64
10, 4330, Note_off_c, 9, 39, 64
10, 4330, Note_off_c, 9, 38, 64
10, 4560, Note_on_c, 9, 42, 87
10, 4570, Note_off_c, 9, 42, 64
10, 4800, Note_on_c, 9, 35, 98
10, 4800, Note_on_c, 9, 42, 109
10, 4810, Note_off_c, 9, 42, 64
10, 4810, Note_off_c, 9, 35, 64
10, 5040, Note_on_c, 9, 42, 88
10, 5050, Note_off_c, 9, 42, 64
10, 5280, Note_on_c, 9, 38, 108
10, 5280, Note_on_c, 9, 39, 94
10, 5280, Note_on_c, 9, 42, 109
10, 5290, Note_off_c, 9, 42, 64
10, 5290, Note_off_c, 9, 39, 64
10, 5290, Note_off_c, 9, 38, 64
10, 5520, Note_on_c, 9, 42, 87
10, 5530, Note_off_c, 9, 42, 64
10, 5760, Note_on_c, 9, 35, 98
10, 5760, Note_on_c, 9, 42, 109
10, 5770, Note_off_c, 9, 42, 64
10, 5770, Note_off_c, 9, 35, 64
10, 6000, Note_on_c, 9, 42, 84
10, 6010, Note_off_c, 9, 42, 64
10, 6240, Note_on_c, 9, 38, 107
10, 6240, Note_on_c, 9, 39, 94
10, 6240, Note_on_c, 9, 42, 109
10, 6250, Note_off_c, 9, 42, 64
10, 6250, Note_off_c, 9, 39, 64
10, 6250, Note_off_c, 9, 38, 64
10, 6480, Note_on_c, 9, 42, 87
10, 6490, Note_off_c, 9, 42, 64
10, 6720, Note_on_c, 9, 35, 98
10, 6720, Note_on_c, 9, 42, 109
10, 6730, Note_off_c, 9, 42, 64
10, 6730, Note_off_c, 9, 35, 64
10, 6960, Note_on_c, 9, 42, 88
10, 6970, Note_off_c, 9, 42, 64
10, 7200, Note_on_c, 9, 35, 100
10, 7200, Note_on_c, 9, 38, 108
10, 7200, Note_on_c, 9, 39, 94
10, 7200, Note_on_c, 9, 42, 109
10, 7200, Note_on_c, 9, 54, 84
10, 7210, Note_off_c, 9, 54, 64
10, 7210, Note_off_c, 9, 42, 64
10, 7210, Note_off_c, 9, 39, 64
10, 7210, Note_off_c, 9, 38, 64
10, 7210, Note_off_c, 9, 35, 64
10, 7440, Note_on_c, 9, 42, 87
10, 7450, Note_off_c, 9, 42, 64
10, 7680, Note_on_c, 9, 35, 98
10, 7680, Note_on_c, 9, 42, 109
10, 7690, Note_off_c, 9, 42, 64
10, 7690, Note_off_c, 9, 35, 64
10, 7920, Note_on_c, 9, 42, 84
10, 7930, Note_off_c, 9, 42, 64
10, 8160, Note_on_c, 9, 38, 107
10, 8160, Note_on_c, 9, 39, 94
10, 8160, Note_on_c, 9, 42, 109
10, 8170, Note_off_c, 9, 42, 64
10, 8170, Note_off_c, 9, 39, 64
10, 8170, Note_off_c, 9, 38, 64
10, 8400, Note_on_c, 9, 42, 87
10, 8410, Note_off_c, 9, 42, 64
10, 8640, Note_on_c, 9, 35, 98
10, 8640, Note_on_c, 9, 42, 109
10, 8650, Note_off_c, 9, 42, 64
10, 8650, Note_off_c, 9, 35, 64
10, 8880, Note_on_c, 9, 42, 88
10, 8890, Note_off_c, 9, 42, 64
10, 9120, Note_on_c, 9, 38, 108
10, 9120, Note_on_c, 9, 39, 94
10, 9120, Note_on_c, 9, 42, 109
10, 9120, Note_on_c, 9, 54, 83
10, 9130, Note_off_c, 9, 54, 64
10, 9130, Note_off_c, 9, 42, 64
10, 9130, Note_off_c, 9, 39, 64
10, 9130, Note_off_c, 9, 38, 64
10, 9360, Note_on_c, 9, 42, 87
10, 9370, Note_off_c, 9, 42, 64
10, 9600, Note_on_c, 9, 35, 98
10, 9600, Note_on_c, 9, 42, 109
10, 9610, Note_off_c, 9, 42, 64
10, 9610, Note_off_c, 9, 35, 64
10, 9840, Note_on_c, 9, 42, 84
10, 9850, Note_off_c, 9, 42, 64
10, 10080, Note_on_c, 9, 38, 107
10, 10080, Note_on_c, 9, 39, 94
10, 10080, Note_on_c, 9, 42, 109
10, 10090, Note_off_c, 9, 42, 64
10, 10090, Note_off_c, 9, 39, 64
10, 10090, Note_off_c, 9, 38, 64
10, 10320, Note_on_c, 9, 42, 87
10, 10330, Note_off_c, 9, 42, 64
10, 10560, Note_on_c, 9, 35, 98
10, 10560, Note_on_c, 9, 42, 109
10, 10570, Note_off_c, 9, 42, 64
10, 10570, Note_off_c, 9, 35, 64
10, 10800, Note_on_c, 9, 42, 88
10, 10810, Note_off_c, 9, 42, 64
10, 11040, Note_on_c, 9, 35, 100
10, 11040, Note_on_c, 9, 38, 108
10, 11040, Note_on_c, 9, 39, 94
10, 11040, Note_on_c, 9, 42, 109
10, 11040, Note_on_c, 9, 54, 84
10, 11050, Note_off_c, 9, 54, 64
10, 11050, Note_off_c, 9, 42, 64
10, 11050, Note_off_c, 9, 39, 64
10, 11050, Note_off_c, 9, 38, 64
10, 11050, Note_off_c, 9, 35, 64
10, 11280, Note_on_c, 9, 38, 103
10, 11280, Note_on_c, 9, 42, 87
10, 11290, Note_off_c, 9, 42, 64
10, 11290, Note_off_c, 9, 38, 64
10, 11400, Note_on_c, 9, 38, 103
10, 11410, Note_off_c, 9, 38, 64
10, 11520, Note_on_c, 9, 35, 98
10, 11520, Note_on_c, 9, 49, 70
10, 11530, Note_off_c, 9, 49, 64
10, 11530, Note_off_c, 9, 35, 64
10, 11760, Note_on_c, 9, 42, 84
10, 11770, Note_off_c, 9, 42, 64
10, 12000, Note_on_c, 9, 38, 107
10, 12000, Note_on_c, 9, 39, 94
10, 12000, Note_on_c, 9, 42, 109
10, 12010, Note_off_c, 9, 42, 64
10, 12010, Note_off_c, 9, 39, 64
10, 12010, Note_off_c, 9, 38, 64
10, 12240, Note_on_c, 9, 42, 87
10, 12250, Note_off_c, 9, 42, 64
10, 12480, Note_on_c, 9, 35, 98
10, 12480, Note_on_c, 9, 42, 109
10, 12490, Note_off_c, 9, 42, 64
10, 12490, Note_off_c, 9, 35, 64
10, 12720, Note_on_c, 9, 42, 88
10, 12730, Note_off_c, 9, 42, 64
10, 12960, Note_on_c, 9, 38, 108
10, 12960, Note_on_c, 9, 39, 94
10, 12960, Note_on_c, 9, 42, 109
10, 12960, Note_on_c, 9, 54, 84
10, 12970, Note_off_c, 9, 54, 64
10, 12970, Note_off_c, 9, 42, 64
10, 12970, Note_off_c, 9, 39, 64
10, 12970, Note_off_c, 9, 38, 64
10, 13200, Note_on_c, 9, 42, 87
10, 13210, Note_off_c, 9, 42, 64
10, 13440, Note_on_c, 9, 35, 98
10, 13440, Note_on_c, 9, 42, 109
10, 13450, Note_off_c, 9, 42, 64
10, 13450, Note_off_c, 9, 35, 64
10, 13680, Note_on_c, 9, 42, 84
10, 13690, Note_off_c, 9, 42, 64
10, 13920, Note_on_c, 9, 38, 107
10, 13920, Note_on_c, 9, 39, 94
10, 13920, Note_on_c, 9, 42, 109
10, 13930, Note_off_c, 9, 42, 64
10, 13930, Note_off_c, 9, 39, 64
10, 13930, Note_off_c, 9, 38, 64
10, 14160, Note_on_c, 9, 42, 87
10, 14170, Note_off_c, 9, 42, 64
10, 14400, Note_on_c, 9, 35, 98
10, 14400, Note_on_c, 9, 42, 109
10, 14410, Note_off_c, 9, 42, 64
10, 14410, Note_off_c, 9, 35, 64
10, 14640, Note_on_c, 9, 42, 88
10, 14650, Note_off_c, 9, 42, 64
10, 14880, Note_on_c, 9, 35, 100
10, 14880, Note_on_c, 9, 38, 108
10, 14880, Note_on_c, 9, 39, 94
10, 14880, Note_on_c, 9, 42, 109
10, 14880, Note_on_c, 9, 54, 84
10, 14890, Note_off_c, 9, 54, 64
10, 14890, Note_off_c, 9, 42, 64
10, 14890, Note_off_c, 9, 39, 64
10, 14890, Note_off_c, 9, 38, 64
10, 14890, Note_off_c, 9, 35, 64
10, 15120, Note_on_c, 9, 42, 87
10, 15130, Note_off_c, 9, 42, 64
10, 15360, Note_on_c, 9, 35, 98
10, 15360, Note_on_c, 9, 42, 109
10, 15370, Note_off_c, 9, 42, 64
10, 15370, Note_off_c, 9, 35, 64
10, 15600, Note_on_c, 9, 42, 84
10, 15610, Note_off_c, 9, 42, 64
10, 15840, Note_on_c, 9, 38, 107
10, 15840, Note_on_c, 9, 39, 94
10, 15840, Note_on_c, 9, 42, 109
10, 15850, Note_off_c, 9, 42, 64
10, 15850, Note_off_c, 9, 39, 64
10, 15850, Note_off_c, 9, 38, 64
10, 16080, Note_on_c, 9, 42, 87
10, 16090, Note_off_c, 9, 42, 64
10, 16320, Note_on_c, 9, 35, 98
10, 16320, Note_on_c, 9, 42, 109
10, 16330, Note_off_c, 9, 42, 64
10, 16330, Note_off_c, 9, 35, 64
10, 16560, Note_on_c, 9, 42, 88
10, 16570, Note_off_c, 9, 42, 64
10, 16800, Note_on_c, 9, 38, 108
10, 16800, Note_on_c, 9, 39, 94
10, 16800, Note_on_c, 9, 42, 109
10, 16800, Note_on_c, 9, 54, 84
10, 16810, Note_off_c, 9, 54, 64
10, 16810, Note_off_c, 9, 42, 64
10, 16810, Note_off_c, 9, 39, 64
10, 16810, Note_off_c, 9, 38, 64
10, 17040, Note_on_c, 9, 42, 87
10, 17050, Note_off_c, 9, 42, 64
10, 17280, Note_on_c, 9, 35, 98
10, 17280, Note_on_c, 9, 42, 109
10, 17290, Note_off_c, 9, 42, 64
10, 17290, Note_off_c, 9, 35, 64
10, 17520, Note_on_c, 9, 42, 88
10, 17530, Note_off_c, 9, 42, 64
10, 17760, Note_on_c, 9, 38, 107
10, 17760, Note_on_c, 9, 39, 94
10, 17760, Note_on_c, 9, 42, 109
10, 17770, Note_off_c, 9, 42, 64
10, 17770, Note_off_c, 9, 39, 64
10, 17770, Note_off_c, 9, 38, 64
10, 18000, Note_on_c, 9, 46, 109
10, 18010, Note_off_c, 9, 46, 64
10, 18240, Note_on_c, 9, 35, 98
10, 18240, Note_on_c, 9, 42, 109
10, 18250, Note_off_c, 9, 42, 64
10, 18250, Note_off_c, 9, 35, 64
10, 18480, Note_on_c, 9, 42, 109
10, 18490, Note_off_c, 9, 42, 64
10, 18720, Note_on_c, 9, 35, 100
10, 18720, Note_on_c, 9, 38, 108
10, 18720, Note_on_c, 9, 39, 94
10, 18720, Note_on_c, 9, 42, 104
10, 18720, Note_on_c, 9, 54, 84
10, 18730, Note_off_c, 9, 54, 64
10, 18730, Note_off_c, 9, 42, 64
10, 18730, Note_off_c, 9, 39, 64
10, 18730, Note_off_c, 9, 38, 64
10, 18730, Note_off_c, 9, 35, 64
10, 18960, Note_on_c, 9, 38, 108
10, 18970, Note_off_c, 9, 38, 64
10, 19080, Note_on_c, 9, 38, 108
10, 19090, Note_off_c, 9, 38, 64
10, 19200, Note_on_c, 9, 35, 98
10, 19200, Note_on_c, 9, 49, 70
10, 19210, Note_off_c, 9, 49, 64
10, 19210, Note_off_c, 9, 35, 64
10, 19440, Note_on_c, 9, 42, 84
10, 19450, Note_off_c, 9, 42, 64
10, 19680, Note_on_c, 9, 38, 107
10, 19680, Note_on_c, 9, 39, 94
10, 19680, Note_on_c, 9, 42, 109
10, 19690, Note_off_c, 9, 42, 64
10, 19690, Note_off_c, 9, 39, 64
10, 19690, Note_off_c, 9, 38, 64
10, 19920, Note_on_c, 9, 42, 87
10, 19930, Note_off_c, 9, 42, 64
10, 20160, Note_on_c, 9, 35, 98
10, 20160, Note_on_c, 9, 42, 109
10, 20170, Note_off_c, 9, 42, 64
10, 20170, Note_off_c, 9, 35, 64
10, 20400, Note_on_c, 9, 42, 88
10, 20410, Note_off_c, 9, 42, 64
10, 20640, Note_on_c, 9, 38, 108
10, 20640, Note_on_c, 9, 39, 94
10, 20640, Note_on_c, 9, 42, 109
10, 20640, Note_on_c, 9, 54, 84
10, 20650, Note_off_c, 9, 54, 64
10, 20650, Note_off_c, 9, 42, 64
10, 20650, Note_off_c, 9, 39, 64
10, 20650, Note_off_c, 9, 38, 64
10, 20880, Note_on_c, 9, 42, 87
10, 20890, Note_off_c, 9, 42, 64
10, 21120, Note_on_c, 9, 35, 98
10, 21120, Note_on_c, 9, 42, 109
10, 21130, Note_off_c, 9, 42, 64
10, 21130, Note_off_c, 9, 35, 64
10, 21360, Note_on_c, 9, 42, 84
10, 21370, Note_off_c, 9, 42, 64
10, 21600, Note_on_c, 9, 38, 107
10, 21600, Note_on_c, 9, 39, 94
10, 21600, Note_on_c, 9, 42, 109
10, 21610, Note_off_c, 9, 42, 64
10, 21610, Note_off_c, 9, 39, 64
10, 21610, Note_off_c, 9, 38, 64
10, 21840, Note_on_c, 9, 42, 87
10, 21850, Note_off_c, 9, 42, 64
10, 22080, Note_on_c, 9, 35, 98
10, 22080, Note_on_c, 9, 42, 109
10, 22090, Note_off_c, 9, 42, 64
10, 22090, Note_off_c, 9, 35, 64
10, 22320, Note_on_c, 9, 42, 88
10, 22330, Note_off_c, 9, 42, 64
10, 22560, Note_on_c, 9, 35, 100
10, 22560, Note_on_c, 9, 38, 108
10, 22560, Note_on_c, 9, 39, 94
10, 22560, Note_on_c, 9, 42, 109
10, 22560, Note_on_c, 9, 54, 84
10, 22570, Note_off_c, 9, 54, 64
10, 22570, Note_off_c, 9, 42, 64
10, 22570, Note_off_c, 9, 39, 64
10, 22570, Note_off_c, 9, 38, 64
10, 22570, Note_off_c, 9, 35, 64
10, 22800, Note_on_c, 9, 42, 87
10, 22810, Note_off_c, 9, 42, 64
10, 23040, Note_on_c, 9, 35, 98
10, 23040, Note_on_c, 9, 42, 109
10, 23050, Note_off_c, 9, 42, 64
10, 23050, Note_off_c, 9, 35, 64
10, 23280, Note_on_c, 9, 42, 84
10, 23290, Note_off_c, 9, 42, 64
10, 23520, Note_on_c, 9, 38, 107
10, 23520, Note_on_c, 9, 39, 94
10, 23520, Note_on_c, 9, 42, 109
10, 23530, Note_off_c, 9, 42, 64
10, 23530, Note_off_c, 9, 39, 64
10, 23530, Note_off_c, 9, 38, 64
10, 23760, Note_on_c, 9, 42, 87
10, 23770, Note_off_c, 9, 42, 64
10, 24000, Note_on_c, 9, 35, 98
10, 24000, Note_on_c, 9, 42, 109
10, 24010, Note_off_c, 9, 42, 64
10, 24010, Note_off_c, 9, 35, 64
10, 24240, Note_on_c, 9, 42, 88
10, 24250, Note_off_c, 9, 42, 64
10, 24480, Note_on_c, 9, 38, 108
10, 24480, Note_on_c, 9, 39, 94
10, 24480, Note_on_c, 9, 42, 109
10, 24480, Note_on_c, 9, 54, 83
10, 24490, Note_off_c, 9, 54, 64
10, 24490, Note_off_c, 9, 42, 64
10, 24490, Note_off_c, 9, 39, 64
10, 24490, Note_off_c, 9, 38, 64
10, 24720, Note_on_c, 9, 42, 87
10, 24730, Note_off_c, 9, 42, 64
10, 24960, Note_on_c, 9, 35, 98
10, 24960, Note_on_c, 9, 42, 109
10, 24970, Note_off_c, 9, 42, 64
10, 24970, Note_off_c, 9, 35, 64
10, 25200, Note_on_c, 9, 42, 84
10, 25210, Note_off_c, 9, 42, 64
10, 25440, Note_on_c, 9, 38, 107
10, 25440, Note_on_c, 9, 39, 94
10, 25440, Note_on_c, 9, 42, 109
10, 25450, Note_off_c, 9, 42, 64
10, 25450, Note_off_c, 9, 39, 64
10, 25450, Note_off_c, 9, 38, 64
10, 25680, Note_on_c, 9, 42, 87
10, 25690, Note_off_c, 9, 42, 64
10, 25920, Note_on_c, 9, 35, 98
10, 25920, Note_on_c, 9, 42, 109
10, 25930, Note_off_c, 9, 42, 64
10, 25930, Note_off_c, 9, 35, 64
10, 26160, Note_on_c, 9, 42, 88
10, 26170, Note_off_c, 9, 42, 64
10, 26400, Note_on_c, 9, 35, 100
10, 26400, Note_on_c, 9, 38, 108
10, 26400, Note_on_c, 9, 39, 94
10, 26400, Note_on_c, 9, 42, 109
10, 26400, Note_on_c, 9, 54, 84
10, 26410, Note_off_c, 9, 54, 64
10, 26410, Note_off_c, 9, 42, 64
10, 26410, Note_off_c, 9, 39, 64
10, 26410, Note_off_c, 9, 38, 64
10, 26410, Note_off_c, 9, 35, 64
10, 26640, Note_on_c, 9, 38, 103
10, 26640, Note_on_c, 9, 42, 87
10, 26650, Note_off_c, 9, 42, 64
10, 26650, Note_off_c, 9, 38, 64
10, 26760, Note_on_c, 9, 38, 103
10, 26770, Note_off_c, 9, 38, 64
10, 26880, Note_on_c, 9, 35, 98
10, 26880, Note_on_c, 9, 49, 70
10, 26890, Note_off_c, 9, 49, 64
10, 26890, Note_off_c, 9, 35, 64
10, 27120, Note_on_c, 9, 42, 84
10, 27130, Note_off_c, 9, 42, 64
10, 27360, Note_on_c, 9, 38, 107
10, 27360, Note_on_c, 9, 39, 94
10, 27360, Note_on_c, 9, 42, 109
10, 27360, Note_on_c, 9, 54, 84
10, 27370, Note_off_c, 9, 54, 64
10, 27370, Note_off_c, 9, 42, 64
10, 27370, Note_off_c, 9, 39, 64
10, 27370, Note_off_c, 9, 38, 64
10, 27600, Note_on_c, 9, 42, 87
10, 27610, Note_off_c, 9, 42, 64
10, 27840, Note_on_c, 9, 35, 98
10, 27840, Note_on_c, 9, 42, 109
10, 27850, Note_off_c, 9, 42, 64
10, 27850, Note_off_c, 9, 35, 64
10, 28080, Note_on_c, 9, 42, 88
10, 28090, Note_off_c, 9, 42, 64
10, 28320, Note_on_c, 9, 38, 108
10, 28320, Note_on_c, 9, 39, 94
10, 28320, Note_on_c, 9, 42, 109
10, 28320, Note_on_c, 9, 54, 82
10, 28330, Note_off_c, 9, 54, 64
10, 28330, Note_off_c, 9, 42, 64
10, 28330, Note_off_c, 9, 39, 64
10, 28330, Note_off_c, 9, 38, 64
10, 28560, Note_on_c, 9, 42, 87
10, 28570, Note_off_c, 9, 42, 64
10, 28800, Note_on_c, 9, 35, 98
10, 28800, Note_on_c, 9, 42, 109
10, 28810, Note_off_c, 9, 42, 64
10, 28810, Note_off_c, 9, 35, 64
10, 29040, Note_on_c, 9, 42, 84
10, 29050, Note_off_c, 9, 42, 64
10, 29280, Note_on_c, 9, 38, 107
10, 29280, Note_on_c, 9, 39, 94
10, 29280, Note_on_c, 9, 42, 109
10, 29280, Note_on_c, 9, 54, 84
10, 29290, Note_off_c, 9, 54, 64
10, 29290, Note_off_c, 9, 42, 64
10, 29290, Note_off_c, 9, 39, 64
10, 29290, Note_off_c, 9, 38, 64
10, 29520, Note_on_c, 9, 42, 87
10, 29530, Note_off_c, 9, 42, 64
10, 29760, Note_on_c, 9, 35, 98
10, 29760, Note_on_c, 9, 42, 109
10, 29770, Note_off_c, 9, 42, 64
10, 29770, Note_off_c, 9, 35, 64
10, 30000, Note_on_c, 9, 42, 88
10, 30010, Note_off_c, 9, 42, 64
10, 30240, Note_on_c, 9, 35, 100
10, 30240, Note_on_c, 9, 38, 108
10, 30240, Note_on_c, 9, 39, 94
10, 30240, Note_on_c, 9, 42, 109
10, 30240, Note_on_c, 9, 54, 84
10, 30250, Note_off_c, 9, 54, 64
10, 30250, Note_off_c, 9, 42, 64
10, 30250, Note_off_c, 9, 39, 64
10, 30250, Note_off_c, 9, 38, 64
10, 30250, Note_off_c, 9, 35, 64
10, 30480, Note_on_c, 9, 42, 87
10, 30490, Note_off_c, 9, 42, 64
10, 30720, Note_on_c, 9, 35, 98
10, 30720, Note_on_c, 9, 42, 109
10, 30730, Note_off_c, 9, 42, 64
10, 30730, Note_off_c, 9, 35, 64
10, 30960, Note_on_c, 9, 42, 84
10, 30970, Note_off_c, 9, 42, 64
10, 31200, Note_on_c, 9, 38, 107
10, 31200, Note_on_c, 9, 39, 94
10, 31200, Note_on_c, 9, 42, 109
10, 31200, Note_on_c, 9, 54, 82
10, 31210, Note_off_c, 9, 54, 64
10, 31210, Note_off_c, 9, 42, 64
10, 31210, Note_off_c, 9, 39, 64
10, 31210, Note_off_c, 9, 38, 64
10, 31440, Note_on_c, 9, 42, 87
10, 31450, Note_off_c, 9, 42, 64
10, 31680, Note_on_c, 9, 35, 98
10, 31680, Note_on_c, 9, 42, 109
10, 31690, Note_off_c, 9, 42, 64
10, 31690, Note_off_c, 9, 35, 64
10, 31920, Note_on_c, 9, 42, 88
10, 31930, Note_off_c, 9, 42, 64
10, 32160, Note_on_c, 9, 38, 108
10, 32160, Note_on_c, 9, 39, 94
10, 32160, Note_on_c, 9, 42, 109
10, 32160, Note_on_c, 9, 54, 84
10, 32170, Note_off_c, 9, 54, 64
10, 32170, Note_off_c, 9, 42, 64
10, 32170, Note_off_c, 9, 39, 64
10, 32170, Note_off_c, 9, 38, 64
10, 32400, Note_on_c, 9, 42, 87
10, 32410, Note_off_c, 9, 42, 64
10, 32640, Note_on_c, 9, 35, 98
10, 32640, Note_on_c, 9, 42, 109
10, 32650, Note_off_c, 9, 42, 64
10, 32650, Note_off_c, 9, 35, 64
10, 32880, Note_on_c, 9, 42, 84
10, 32890, Note_off_c, 9, 42, 64
10, 33120, Note_on_c, 9, 38, 107
10, 33120, Note_on_c, 9, 39, 94
10, 33120, Note_on_c, 9, 42, 109
10, 33120, Note_on_c, 9, 54, 83
10, 33130, Note_off_c, 9, 54, 64
10, 33130, Note_off_c, 9, 42, 64
10, 33130, Note_off_c, 9, 39, 64
10, 33130, Note_off_c, 9, 38, 64
10, 33360, Note_on_c, 9, 46, 109
10, 33370, Note_off_c, 9, 46, 64
10, 33600, Note_on_c, 9, 35, 98
10, 33600, Note_on_c, 9, 42, 109
10, 33610, Note_off_c, 9, 42, 64
10, 33610, Note_off_c, 9, 35, 64
10, 33840, Note_on_c, 9, 42, 88
10, 33850, Note_off_c, 9, 42, 64
10, 34080, Note_on_c, 9, 35, 100
10, 34080, Note_on_c, 9, 38, 108
10, 34080, Note_on_c, 9, 39, 94
10, 34080, Note_on_c, 9, 42, 109
10, 34080, Note_on_c, 9, 54, 83
10, 34090, Note_off_c, 9, 54, 64
10, 34090, Note_off_c, 9, 42, 64
10, 34090, Note_off_c, 9, 39, 64
10, 34090, Note_off_c, 9, 38, 64
10, 34090, Note_off_c, 9, 35, 64
10, 34320, Note_on_c, 9, 42, 87
10, 34330, Note_off_c, 9, 42, 64
10, 34560, Note_on_c, 9, 35, 98
10, 34560, Note_on_c, 9, 49, 70
10, 34570, Note_off_c, 9, 49, 64
10, 34570, Note_off_c, 9, 35, 64
10, 34800, Note_on_c, 9, 42, 84
10, 34810, Note_off_c, 9, 42, 64
10, 35040, Note_on_c, 9, 38, 107
10, 35040, Note_on_c, 9, 39, 94
10, 35040, Note_on_c, 9, 42, 109
10, 35040, Note_on_c, 9, 54, 83
10, 35050, Note_off_c, 9, 54, 64
10, 35050, Note_off_c, 9, 42, 64
10, 35050, Note_off_c, 9, 39, 64
10, 35050, Note_off_c, 9, 38, 64
10, 35280, Note_on_c, 9, 42, 87
10, 35290, Note_off_c, 9, 42, 64
10, 35520, Note_on_c, 9, 35, 98
10, 35520, Note_on_c, 9, 42, 109
10, 35530, Note_off_c, 9, 42, 64
10, 35530, Note_off_c, 9, 35, 64
10, 35760, Note_on_c, 9, 42, 88
10, 35770, Note_off_c, 9, 42, 64
10, 36000, Note_on_c, 9, 38, 108
10, 36000, Note_on_c, 9, 39, 94
10, 36000, Note_on_c, 9, 42, 109
10, 36000, Note_on_c, 9, 54, 83
10, 36010, Note_off_c, 9, 54, 64
10, 36010, Note_off_c, 9, 42, 64
10, 36010, Note_off_c, 9, 39, 64
10, 36010, Note_off_c, 9, 38, 64
10, 36240, Note_on_c, 9, 42, 87
10, 36250, Note_off_c, 9, 42, 64
10, 36480, Note_on_c, 9, 35, 98
10, 36480, Note_on_c, 9, 42, 109
10, 36490, Note_off_c, 9, 42, 64
10, 36490, Note_off_c, 9, 35, 64
10, 36720, Note_on_c, 9, 42, 84
10, 36730, Note_off_c, 9, 42, 64
10, 36960, Note_on_c, 9, 38, 107
10, 36960, Note_on_c, 9, 39, 94
10, 36960, Note_on_c, 9, 42, 109
10, 36960, Note_on_c, 9, 54, 82
10, 36970, Note_off_c, 9, 54, 64
10, 36970, Note_off_c, 9, 42, 64
10, 36970, Note_off_c, 9, 39, 64
10, 36970, Note_off_c, 9, 38, 64
10, 37200, Note_on_c, 9, 42, 87
10, 37210, Note_off_c, 9, 42, 64
10, 37440, Note_on_c, 9, 35, 98
10, 37440, Note_on_c, 9, 42, 109
10, 37450, Note_off_c, 9, 42, 64
10, 37450, Note_off_c, 9, 35, 64
10, 37680, Note_on_c, 9, 42, 88
10, 37690, Note_off_c, 9, 42, 64
10, 37920, Note_on_c, 9, 35, 100
10, 37920, Note_on_c, 9, 38, 108
10, 37920, Note_on_c, 9, 39, 94
10, 37920, Note_on_c, 9, 42, 109
10, 37920, Note_on_c, 9, 54, 84
10, 37930, Note_off_c, 9, 54, 64
10, 37930, Note_off_c, 9, 42, 64
10, 37930, Note_off_c, 9, 39, 64
10, 37930, Note_off_c, 9, 38, 64
10, 37930, Note_off_c, 9, 35, 64
10, 38160, Note_on_c, 9, 42, 87
10, 38170, Note_off_c, 9, 42, 64
10, 38400, Note_on_c, 9, 35, 98
10, 38400, Note_on_c, 9, 42, 109
10, 38410, Note_off_c, 9, 42, 64
10, 38410, Note_off_c, 9, 35, 64
10, 38640, Note_on_c, 9, 42, 84
10, 38650, Note_off_c, 9, 42, 64
10, 38880, Note_on_c, 9, 38, 107
10, 38880, Note_on_c, 9, 39, 94
10, 38880, Note_on_c, 9, 42, 109
10, 38880, Note_on_c, 9, 54, 84
10, 38890, Note_off_c, 9, 54, 64
10, 38890, Note_off_c, 9, 42, 64
10, 38890, Note_off_c, 9, 39, 64
10, 38890, Note_off_c, 9, 38, 64
10, 39120, Note_on_c, 9, 42, 87
10, 39130, Note_off_c, 9, 42, 64
10, 39360, Note_on_c, 9, 35, 98
10, 39360, Note_on_c, 9, 42, 109
10, 39370, Note_off_c, 9, 42, 64
10, 39370, Note_off_c, 9, 35, 64
10, 39600, Note_on_c, 9, 42, 88
10, 39610, Note_off_c, 9, 42, 64
10, 39840, Note_on_c, 9, 38, 108
10, 39840, Note_on_c, 9, 39, 94
10, 39840, Note_on_c, 9, 42, 109
10, 39840, Note_on_c, 9, 54, 83
10, 39850, Note_off_c, 9, 54, 64
10, 39850, Note_off_c, 9, 42, 64
10, 39850, Note_off_c, 9, 39, 64
10, 39850, Note_off_c, 9, 38, 64
10, 40080, Note_on_c, 9, 42, 87
10, 40090, Note_off_c, 9, 42, 64
10, 40320, Note_on_c, 9, 35, 98
10, 40320, Note_on_c, 9, 42, 109
10, 40330, Note_off_c, 9, 42, 64
10, 40330, Note_off_c, 9, 35, 64
10, 40560, Note_on_c, 9, 42, 84
10, 40570, Note_off_c, 9, 42, 64
10, 40800, Note_on_c, 9, 38, 107
10, 40800, Note_on_c, 9, 39, 94
10, 40800, Note_on_c, 9, 42, 109
10, 40800, Note_on_c, 9, 54, 84
10, 40810, Note_off_c, 9, 54, 64
10, 40810, Note_off_c, 9, 42, 64
10, 40810, Note_off_c, 9, 39, 64
10, 40810, Note_off_c, 9, 38, 64
10, 41040, Note_on_c, 9, 42, 87
10, 41050, Note_off_c, 9, 42, 64
10, 41280, Note_on_c, 9, 35, 98
10, 41280, Note_on_c, 9, 42, 109
10, 41290, Note_off_c, 9, 42, 64
10, 41290, Note_off_c, 9, 35, 64
10, 41520, Note_on_c, 9, 42, 88
10, 41530, Note_off_c, 9, 42, 64
10, 41760, Note_on_c, 9, 35, 100
10, 41760, Note_on_c, 9, 38, 108
10, 41760, Note_on_c, 9, 39, 94
10, 41760, Note_on_c, 9, 42, 109
10, 41760, Note_on_c, 9, 54, 84
10, 41770, Note_off_c, 9, 54, 64
10, 41770, Note_off_c, 9, 42, 64
10, 41770, Note_off_c, 9, 39, 64
10, 41770, Note_off_c, 9, 38, 64
10, 41770, Note_off_c, 9, 35, 64
10, 42000, Note_on_c, 9, 42, 87
10, 42010, Note_off_c, 9, 42, 64
10, 42240, Note_on_c, 9, 35, 98
10, 42240, Note_on_c, 9, 49, 70
10, 42250, Note_off_c, 9, 49, 64
10, 42250, Note_off_c, 9, 35, 64
10, 42480, Note_on_c, 9, 42, 84
10, 42490, Note_off_c, 9, 42, 64
10, 42720, Note_on_c, 9, 38, 107
10, 42720, Note_on_c, 9, 39, 94
10, 42720, Note_on_c, 9, 42, 109
10, 42730, Note_off_c, 9, 42, 64
10, 42730, Note_off_c, 9, 39, 64
10, 42730, Note_off_c, 9, 38, 64
10, 42960, Note_on_c, 9, 42, 87
10, 42970, Note_off_c, 9, 42, 64
10, 43200, Note_on_c, 9, 35, 98
10, 43200, Note_on_c, 9, 42, 109
10, 43210, Note_off_c, 9, 42, 64
10, 43210, Note_off_c, 9, 35, 64
10, 43440, Note_on_c, 9, 42, 88
10, 43450, Note_off_c, 9, 42, 64
10, 43680, Note_on_c, 9, 38, 108
10, 43680, Note_on_c, 9, 39, 94
10, 43680, Note_on_c, 9, 42, 109
10, 43680, Note_on_c, 9, 54, 83
10, 43690, Note_off_c, 9, 54, 64
10, 43690, Note_off_c, 9, 42, 64
10, 43690, Note_off_c, 9, 39, 64
10, 43690, Note_off_c, 9, 38, 64
10, 43920, Note_on_c, 9, 42, 87
10, 43930, Note_off_c, 9, 42, 64
10, 44160, Note_on_c, 9, 35, 98
10, 44160, Note_on_c, 9, 42, 109
10, 44170, Note_off_c, 9, 42, 64
10, 44170, Note_off_c, 9, 35, 64
10, 44400, Note_on_c, 9, 42, 84
10, 44410, Note_off_c, 9, 42, 64
10, 44640, Note_on_c, 9, 38, 107
10, 44640, Note_on_c, 9, 39, 94
10, 44640, Note_on_c, 9, 42, 109
10, 44650, Note_off_c, 9, 42, 64
10, 44650, Note_off_c, 9, 39, 64
10, 44650, Note_off_c, 9, 38, 64
10, 44880, Note_on_c, 9, 42, 87
10, 44890, Note_off_c, 9, 42, 64
10, 45120, Note_on_c, 9, 35, 98
10, 45120, Note_on_c, 9, 42, 109
10, 45130, Note_off_c, 9, 42, 64
10, 45130, Note_off_c, 9, 35, 64
10, 45360, Note_on_c, 9, 42, 88
10, 45370, Note_off_c, 9, 42, 64
10, 45600, Note_on_c, 9, 35, 100
10, 45600, Note_on_c, 9, 38, 108
10, 45600, Note_on_c, 9, 39, 94
10, 45600, Note_on_c, 9, 42, 109
10, 45600, Note_on_c, 9, 54, 83
10, 45610, Note_off_c, 9, 54, 64
10, 45610, Note_off_c, 9, 42, 64
10, 45610, Note_off_c, 9, 39, 64
10, 45610, Note_off_c, 9, 38, 64
10, 45610, Note_off_c, 9, 35, 64
10, 45840, Note_on_c, 9, 42, 87
10, 45850, Note_off_c, 9, 42, 64
10, 46080, Note_on_c, 9, 35, 98
10, 46080, Note_on_c, 9, 42, 109
10, 46090, Note_off_c, 9, 42, 64
10, 46090, Note_off_c, 9, 35, 64
10, 46320, Note_on_c, 9, 42, 84
10, 46330, Note_off_c, 9, 42, 64
10, 46560, Note_on_c, 9, 38, 107
10, 46560, Note_on_c, 9, 39, 94
10, 46560, Note_on_c, 9, 42, 109
10, 46570, Note_off_c, 9, 42, 64
10, 46570, Note_off_c, 9, 39, 64
10, 46570, Note_off_c, 9, 38, 64
10, 46800, Note_on_c, 9, 42, 87
10, 46810, Note_off_c, 9, 42, 64
10, 47040, Note_on_c, 9, 35, 98
10, 47040, Note_on_c, 9, 42, 109
10, 47050, Note_off_c, 9, 42, 64
10, 47050, Note_off_c, 9, 35, 64
10, 47280, Note_on_c, 9, 42, 88
10, 47290, Note_off_c, 9, 42, 64
10, 47520, Note_on_c, 9, 38, 108
10, 47520, Note_on_c, 9, 39, 94
10, 47520, Note_on_c, 9, 42, 109
10, 47520, Note_on_c, 9, 54, 82
10, 47530, Note_off_c, 9, 54, 64
10, 47530, Note_off_c, 9, 42, 64
10, 47530, Note_off_c, 9, 39, 64
10, 47530, Note_off_c, 9, 38, 64
10, 47760, Note_on_c, 9, 42, 87
10, 47770, Note_off_c, 9, 42, 64
10, 48000, Note_on_c, 9, 35, 98
10, 48000, Note_on_c, 9, 42, 109
10, 48010, Note_off_c, 9, 42, 64
10, 48010, Note_off_c, 9, 35, 64
10, 48240, Note_on_c, 9, 42, 84
10, 48250, Note_off_c, 9, 42, 64
10, 48480, Note_on_c, 9, 38, 107
10, 48480, Note_on_c, 9, 39, 94
10, 48480, Note_on_c, 9, 42, 109
10, 48490, Note_off_c, 9, 42, 64
10, 48490, Note_off_c, 9, 39, 64
10, 48490, Note_off_c, 9, 38, 64
10, 48720, Note_on_c, 9, 42, 87
10, 48730, Note_off_c, 9, 42, 64
10, 48960, Note_on_c, 9, 35, 98
10, 48960, Note_on_c, 9, 42, 109
10, 48970, Note_off_c, 9, 42, 64
10, 48970, Note_off_c, 9, 35, 64
10, 49200, Note_on_c, 9, 42, 88
10, 49210, Note_off_c, 9, 42, 64
10, 49440, Note_on_c, 9, 35, 100
10, 49440, Note_on_c, 9, 38, 108
10, 49440, Note_on_c, 9, 39, 94
10, 49440, Note_on_c, 9, 42, 109
10, 49440, Note_on_c, 9, 54, 84
10, 49450, Note_off_c, 9, 54, 64
10, 49450, Note_off_c, 9, 42, 64
10, 49450, Note_off_c, 9, 39, 64
10, 49450, Note_off_c, 9, 38, 64
10, 49450, Note_off_c, 9, 35, 64
10, 49680, Note_on_c, 9, 42, 87
10, 49690, Note_off_c, 9, 42, 64
10, 49920, Note_on_c, 9, 35, 98
10, 49920, Note_on_c, 9, 42, 109
10, 49930, Note_off_c, 9, 42, 64
10, 49930, Note_off_c, 9, 35, 64
10, 50160, Note_on_c, 9, 42, 84
10, 50170, Note_off_c, 9, 42, 64
10, 50400, Note_on_c, 9, 38, 107
10, 50400, Note_on_c, 9, 39, 94
10, 50400, Note_on_c, 9, 42, 109
10, 50410, Note_off_c, 9, 42, 64
10, 50410, Note_off_c, 9, 39, 64
10, 50410, Note_off_c, 9, 38, 64
10, 50640, Note_on_c, 9, 42, 87
10, 50650, Note_off_c, 9, 42, 64
10, 50880, Note_on_c, 9, 35, 98
10, 50880, Note_on_c, 9, 42, 109
10, 50890, Note_off_c, 9, 42, 64
10, 50890, Note_off_c, 9, 35, 64
10, 51120, Note_on_c, 9, 42, 88
10, 51130, Note_off_c, 9, 42, 64
10, 51360, Note_on_c, 9, 38, 108
10, 51360, Note_on_c, 9, 39, 94
10, 51360, Note_on_c, 9, 42, 109
10, 51360, Note_on_c, 9, 54, 83
10, 51370, Note_off_c, 9, 54, 64
10, 51370, Note_off_c, 9, 42, 64
10, 51370, Note_off_c, 9, 39, 64
10, 51370, Note_off_c, 9, 38, 64
10, 51600, Note_on_c, 9, 42, 87
10, 51610, Note_off_c, 9, 42, 64
10, 51840, Note_on_c, 9, 35, 98
10, 51840, Note_on_c, 9, 42, 109
10, 51850, Note_off_c, 9, 42, 64
10, 51850, Note_off_c, 9, 35, 64
10, 52080, Note_on_c, 9, 42, 84
10, 52090, Note_off_c, 9, 42, 64
10, 52320, Note_on_c, 9, 38, 107
10, 52320, Note_on_c, 9, 39, 94
10, 52320, Note_on_c, 9, 42, 109
10, 52330, Note_off_c, 9, 42, 64
10, 52330, Note_off_c, 9, 39, 64
10, 52330, Note_off_c, 9, 38, 64
10, 52560, Note_on_c, 9, 42, 87
10, 52570, Note_off_c, 9, 42, 64
10, 52800, Note_on_c, 9, 35, 98
10, 52800, Note_on_c, 9, 42, 109
10, 52810, Note_off_c, 9, 42, 64
10, 52810, Note_off_c, 9, 35, 64
10, 53040, Note_on_c, 9, 42, 88
10, 53050, Note_off_c, 9, 42, 64
10, 53280, Note_on_c, 9, 35, 100
10, 53280, Note_on_c, 9, 38, 108
10, 53280, Note_on_c, 9, 39, 94
10, 53280, Note_on_c, 9, 42, 109
10, 53280, Note_on_c, 9, 54, 84
10, 53290, Note_off_c, 9, 54, 64
10, 53290, Note_off_c, 9, 42, 64
10, 53290, Note_off_c, 9, 39, 64
10, 53290, Note_off_c, 9, 38, 64
10, 53290, Note_off_c, 9, 35, 64
10, 53520, Note_on_c, 9, 42, 87
10, 53530, Note_off_c, 9, 42, 64
10, 53760, Note_on_c, 9, 35, 98
10, 53760, Note_on_c, 9, 42, 109
10, 53770, Note_off_c, 9, 42, 64
10, 53770, Note_off_c, 9, 35, 64
10, 54000, Note_on_c, 9, 42, 84
10, 54010, Note_off_c, 9, 42, 64
10, 54240, Note_on_c, 9, 38, 107
10, 54240, Note_on_c, 9, 39, 94
10, 54240, Note_on_c, 9, 42, 109
10, 54250, Note_off_c, 9, 42, 64
10, 54250, Note_off_c, 9, 39, 64
10, 54250, Note_off_c, 9, 38, 64
10, 54480, Note_on_c, 9, 42, 87
10, 54490, Note_off_c, 9, 42, 64
10, 54720, Note_on_c, 9, 35, 98
10, 54720, Note_on_c, 9, 42, 109
10, 54730, Note_off_c, 9, 42, 64
10, 54730, Note_off_c, 9, 35, 64
10, 54960, Note_on_c, 9, 42, 88
10, 54970, Note_off_c, 9, 42, 64
10, 55200, Note_on_c, 9, 38, 108
10, 55200, Note_on_c, 9, 39, 94
10, 55200, Note_on_c, 9, 42, 109
10, 55200, Note_on_c, 9, 54, 83
10, 55210, Note_off_c, 9, 54, 64
10, 55210, Note_off_c, 9, 42, 64
10, 55210, Note_off_c, 9, 39, 64
10, 55210, Note_off_c, 9, 38, 64
10, 55440, Note_on_c, 9, 42, 87
10, 55450, Note_off_c, 9, 42, 64
10, 55680, Note_on_c, 9, 35, 98
10, 55680, Note_on_c, 9, 42, 109
10, 55690, Note_off_c, 9, 42, 64
10, 55690, Note_off_c, 9, 35, 64
10, 55920, Note_on_c, 9, 42, 84
10, 55930, Note_off_c, 9, 42, 64
10, 56160, Note_on_c, 9, 38, 107
10, 56160, Note_on_c, 9, 39, 94
10, 56160, Note_on_c, 9, 42, 109
10, 56170, Note_off_c, 9, 42, 64
10, 56170, Note_off_c, 9, 39, 64
10, 56170, Note_off_c, 9, 38, 64
10, 56400, Note_on_c, 9, 42, 87
10, 56410, Note_off_c, 9, 42, 64
10, 56640, Note_on_c, 9, 35, 98
10, 56640, Note_on_c, 9, 42, 109
10, 56650, Note_off_c, 9, 42, 64
10, 56650, Note_off_c, 9, 35, 64
10, 56880, Note_on_c, 9, 42, 88
10, 56890, Note_off_c, 9, 42, 64
10, 57120, Note_on_c, 9, 35, 100
10, 57120, Note_on_c, 9, 38, 108
10, 57120, Note_on_c, 9, 39, 94
10, 57120, Note_on_c, 9, 42, 109
10, 57120, Note_on_c, 9, 54, 83
10, 57130, Note_off_c, 9, 54, 64
10, 57130, Note_off_c, 9, 42, 64
10, 57130, Note_off_c, 9, 39, 64
10, 57130, Note_off_c, 9, 38, 64
10, 57130, Note_off_c, 9, 35, 64
10, 57360, Note_on_c, 9, 38, 103
10, 57370, Note_off_c, 9, 38, 64
10, 57480, Note_on_c, 9, 38, 105
10, 57490, Note_off_c, 9, 38, 64
10, 57600, Note_on_c, 9, 35, 98
10, 57600, Note_on_c, 9, 49, 70
10, 57610, Note_off_c, 9, 49, 64
10, 57610, Note_off_c, 9, 35, 64
10, 57840, Note_on_c, 9, 42, 84
10, 57850, Note_off_c, 9, 42, 64
10, 58080, Note_on_c, 9, 38, 107
10, 58080, Note_on_c, 9, 39, 94
10, 58080, Note_on_c, 9, 42, 109
10, 58080, Note_on_c, 9, 54, 84
10, 58090, Note_off_c, 9, 54, 64
10, 58090, Note_off_c, 9, 42, 64
10, 58090, Note_off_c, 9, 39, 64
10, 58090, Note_off_c, 9, 38, 64
10, 58320, Note_on_c, 9, 42, 87
10, 58330, Note_off_c, 9, 42, 64
10, 58560, Note_on_c, 9, 35, 98
10, 58560, Note_on_c, 9, 42, 109
10, 58570, Note_off_c, 9, 42, 64
10, 58570, Note_off_c, 9, 35, 64
10, 58800, Note_on_c, 9, 42, 88
10, 58810, Note_off_c, 9, 42, 64
10, 59040, Note_on_c, 9, 38, 108
10, 59040, Note_on_c, 9, 39, 94
10, 59040, Note_on_c, 9, 42, 109
10, 59040, Note_on_c, 9, 54, 82
10, 59050, Note_off_c, 9, 54, 64
10, 59050, Note_off_c, 9, 42, 64
10, 59050, Note_off_c, 9, 39, 64
10, 59050, Note_off_c, 9, 38, 64
10, 59280, Note_on_c, 9, 42, 87
10, 59290, Note_off_c, 9, 42, 64
10, 59520, Note_on_c, 9, 35, 98
10, 59520, Note_on_c, 9, 42, 109
10, 59530, Note_off_c, 9, 42, 64
10, 59530, Note_off_c, 9, 35, 64
10, 59760, Note_on_c, 9, 42, 84
10, 59770, Note_off_c, 9, 42, 64
10, 60000, Note_on_c, 9, 38, 107
10, 60000, Note_on_c, 9, 39, 94
10, 60000, Note_on_c, 9, 42, 109
10, 60000, Note_on_c, 9, 54, 84
10, 60010, Note_off_c, 9, 54, 64
10, 60010, Note_off_c, 9, 42, 64
10, 60010, Note_off_c, 9, 39, 64
10, 60010, Note_off_c, 9, 38, 64
10, 60240, Note_on_c, 9, 42, 87
10, 60250, Note_off_c, 9, 42, 64
10, 60480, Note_on_c, 9, 35, 98
10, 60480, Note_on_c, 9, 42, 109
10, 60490, Note_off_c, 9, 42, 64
10, 60490, Note_off_c, 9, 35, 64
10, 60720, Note_on_c, 9, 42, 88
10, 60730, Note_off_c, 9, 42, 64
10, 60960, Note_on_c, 9, 35, 100
10, 60960, Note_on_c, 9, 38, 108
10, 60960, Note_on_c, 9, 39, 94
10, 60960, Note_on_c, 9, 42, 109
10, 60960, Note_on_c, 9, 54, 84
10, 60970, Note_off_c, 9, 54, 64
10, 60970, Note_off_c, 9, 42, 64
10, 60970, Note_off_c, 9, 39, 64
10, 60970, Note_off_c, 9, 38, 64
10, 60970, Note_off_c, 9, 35, 64
10, 61200, Note_on_c, 9, 42, 87
10, 61210, Note_off_c, 9, 42, 64
10, 61440, Note_on_c, 9, 35, 98
10, 61440, Note_on_c, 9, 42, 109
10, 61450, Note_off_c, 9, 42, 64
10, 61450, Note_off_c, 9, 35, 64
10, 61680, Note_on_c, 9, 42, 84
10, 61690, Note_off_c, 9, 42, 64
10, 61920, Note_on_c, 9, 38, 107
10, 61920, Note_on_c, 9, 39, 94
10, 61920, Note_on_c, 9, 42, 109
10, 61920, Note_on_c, 9, 54, 82
10, 61930, Note_off_c, 9, 54, 64
10, 61930, Note_off_c, 9, 42, 64
10, 61930, Note_off_c, 9, 39, 64
10, 61930, Note_off_c, 9, 38, 64
10, 62160, Note_on_c, 9, 42, 87
10, 62170, Note_off_c, 9, 42, 64
10, 62400, Note_on_c, 9, 35, 98
10, 62400, Note_on_c, 9, 42, 109
10, 62410, Note_off_c, 9, 42, 64
10, 62410, Note_off_c, 9, 35, 64
10, 62640, Note_on_c, 9, 42, 88
10, 62650, Note_off_c, 9, 42, 64
10, 62880, Note_on_c, 9, 38, 108
10, 62880, Note_on_c, 9, 39, 94
10, 62880, Note_on_c, 9, 42, 109
10, 62880, Note_on_c, 9, 54, 84
10, 62890, Note_off_c, 9, 54, 64
10, 62890, Note_off_c, 9, 42, 64
10, 62890, Note_off_c, 9, 39, 64
10, 62890, Note_off_c, 9, 38, 64
10, 63120, Note_on_c, 9, 42, 87
10, 63130, Note_off_c, 9, 42, 64
10, 63360, Note_on_c, 9, 35, 98
10, 63360, Note_on_c, 9, 42, 109
10, 63370, Note_off_c, 9, 42, 64
10, 63370, Note_off_c, 9, 35, 64
10, 63600, Note_on_c, 9, 42, 84
10, 63610, Note_off_c, 9, 42, 64
10, 63840, Note_on_c, 9, 38, 107
10, 63840, Note_on_c, 9, 39, 94
10, 63840, Note_on_c, 9, 42, 109
10, 63840, Note_on_c, 9, 54, 83
10, 63850, Note_off_c, 9, 54, 64
10, 63850, Note_off_c, 9, 42, 64
10, 63850, Note_off_c, 9, 39, 64
10, 63850, Note_off_c, 9, 38, 64
10, 64080, Note_on_c, 9, 42, 87
10, 64090, Note_off_c, 9, 42, 64
10, 64320, Note_on_c, 9, 35, 98
10, 64320, Note_on_c, 9, 42, 109
10, 64330, Note_off_c, 9, 42, 64
10, 64330, Note_off_c, 9, 35, 64
10, 64560, Note_on_c, 9, 42, 88
10, 64570, Note_off_c, 9, 42, 64
10, 64800, Note_on_c, 9, 35, 100
10, 64800, Note_on_c, 9, 38, 108
10, 64800, Note_on_c, 9, 39, 94
10, 64800, Note_on_c, 9, 42, 109
10, 64800, Note_on_c, 9, 54, 83
10, 64810, Note_off_c, 9, 54, 64
10, 64810, Note_off_c, 9, 42, 64
10, 64810, Note_off_c, 9, 39, 64
10, 64810, Note_off_c, 9, 38, 64
10, 64810, Note_off_c, 9, 35, 64
10, 65040, Note_on_c, 9, 42, 87
10, 65050, Note_off_c, 9, 42, 64
10, 65280, Note_on_c, 9, 35, 98
10, 65280, Note_on_c, 9, 42, 109
10, 65290, Note_off_c, 9, 42, 64
10, 65290, Note_off_c, 9, 35, 64
10, 65520, Note_on_c, 9, 42, 84
10, 65530, Note_off_c, 9, 42, 64
10, 65760, Note_on_c, 9, 38, 107
10, 65760, Note_on_c, 9, 39, 94
10, 65760, Note_on_c, 9, 42, 109
10, 65760, Note_on_c, 9, 54, 83
10, 65770, Note_off_c, 9, 54, 64
10, 65770, Note_off_c, 9, 42, 64
10, 65770, Note_off_c, 9, 39, 64
10, 65770, Note_off_c, 9, 38, 64
10, 66000, Note_on_c, 9, 42, 87
10, 66010, Note_off_c, 9, 42, 64
10, 66240, Note_on_c, 9, 35, 98
10, 66240, Note_on_c, 9, 42, 109
10, 66250, Note_off_c, 9, 42, 64
10, 66250, Note_off_c, 9, 35, 64
10, 66480, Note_on_c, 9, 42, 88
10, 66490, Note_off_c, 9, 42, 64
10, 66720, Note_on_c, 9, 38, 108
10, 66720, Note_on_c, 9, 39, 94
10, 66720, Note_on_c, 9, 42, 109
10, 66720, Note_on_c, 9, 54, 83
10, 66730, Note_off_c, 9, 54, 64
10, 66730, Note_off_c, 9, 42, 64
10, 66730, Note_off_c, 9, 39, 64
10, 66730, Note_off_c, 9, 38, 64
10, 66960, Note_on_c, 9, 42, 87
10, 66970, Note_off_c, 9, 42, 64
10, 67200, Note_on_c, 9, 35, 98
10, 67200, Note_on_c, 9, 42, 109
10, 67210, Note_off_c, 9, 42, 64
10, 67210, Note_off_c, 9, 35, 64
10, 67440, Note_on_c, 9, 42, 84
10, 67450, Note_off_c, 9, 42, 64
10, 67680, Note_on_c, 9, 38, 107
10, 67680, Note_on_c, 9, 39, 94
10, 67680, Note_on_c, 9, 42, 109
10, 67680, Note_on_c, 9, 54, 82
10, 67690, Note_off_c, 9, 54, 64
10, 67690, Note_off_c, 9, 42, 64
10, 67690, Note_off_c, 9, 39, 64
10, 67690, Note_off_c, 9, 38, 64
10, 67920, Note_on_c, 9, 42, 87
10, 67930, Note_off_c, 9, 42, 64
10, 68160, Note_on_c, 9, 35, 98
10, 68160, Note_on_c, 9, 42, 109
10, 68170, Note_off_c, 9, 42, 64
10, 68170, Note_off_c, 9, 35, 64
10, 68400, Note_on_c, 9, 42, 88
10, 68410, Note_off_c, 9, 42, 64
10, 68640, Note_on_c, 9, 35, 100
10, 68640, Note_on_c, 9, 38, 108
10, 68640, Note_on_c, 9, 39, 94
10, 68640, Note_on_c, 9, 42, 109
10, 68640, Note_on_c, 9, 54, 84
10, 68650, Note_off_c, 9, 54, 64
10, 68650, Note_off_c, 9, 42, 64
10, 68650, Note_off_c, 9, 39, 64
10, 68650, Note_off_c, 9, 38, 64
10, 68650, Note_off_c, 9, 35, 64
10, 68880, Note_on_c, 9, 42, 87
10, 68890, Note_off_c, 9, 42, 64
10, 69120, Note_on_c, 9, 35, 98
10, 69120, Note_on_c, 9, 42, 109
10, 69130, Note_off_c, 9, 42, 64
10, 69130, Note_off_c, 9, 35, 64
10, 69360, Note_on_c, 9, 42, 84
10, 69370, Note_off_c, 9, 42, 64
10, 69600, Note_on_c, 9, 38, 107
10, 69600, Note_on_c, 9, 39, 94
10, 69600, Note_on_c, 9, 42, 109
10, 69600, Note_on_c, 9, 54, 84
10, 69610, Note_off_c, 9, 54, 64
10, 69610, Note_off_c, 9, 42, 64
10, 69610, Note_off_c, 9, 39, 64
10, 69610, Note_off_c, 9, 38, 64
10, 69840, Note_on_c, 9, 42, 87
10, 69850, Note_off_c, 9, 42, 64
10, 70080, Note_on_c, 9, 35, 98
10, 70080, Note_on_c, 9, 42, 109
10, 70090, Note_off_c, 9, 42, 64
10, 70090, Note_off_c, 9, 35, 64
10, 70320, Note_on_c, 9, 42, 88
10, 70330, Note_off_c, 9, 42, 64
10, 70560, Note_on_c, 9, 38, 108
10, 70560, Note_on_c, 9, 39, 94
10, 70560, Note_on_c, 9, 42, 109
10, 70560, Note_on_c, 9, 54, 83
10, 70570, Note_off_c, 9, 54, 64
10, 70570, Note_off_c, 9, 42, 64
10, 70570, Note_off_c, 9, 39, 64
10, 70570, Note_off_c, 9, 38, 64
10, 70800, Note_on_c, 9, 42, 87
10, 70810, Note_off_c, 9, 42, 64
10, 71040, Note_on_c, 9, 35, 98
10, 71040, Note_on_c, 9, 42, 109
10, 71050, Note_off_c, 9, 42, 64
10, 71050, Note_off_c, 9, 35, 64
10, 71280, Note_on_c, 9, 42, 84
10, 71290, Note_off_c, 9, 42, 64
10, 71520, Note_on_c, 9, 38, 107
10, 71520, Note_on_c, 9, 39, 94
10, 71520, Note_on_c, 9, 42, 109
10, 71520, Note_on_c, 9, 54, 84
10, 71530, Note_off_c, 9, 54, 64
10, 71530, Note_off_c, 9, 42, 64
10, 71530, Note_off_c, 9, 39, 64
10, 71530, Note_off_c, 9, 38, 64
10, 71760, Note_on_c, 9, 42, 87
10, 71770, Note_off_c, 9, 42, 64
10, 72000, Note_on_c, 9, 35, 98
10, 72000, Note_on_c, 9, 42, 109
10, 72010, Note_off_c, 9, 42, 64
10, 72010, Note_off_c, 9, 35, 64
10, 72240, Note_on_c, 9, 42, 88
10, 72250, Note_off_c, 9, 42, 64
10, 72480, Note_on_c, 9, 35, 100
10, 72480, Note_on_c, 9, 38, 108
10, 72480, Note_on_c, 9, 39, 94
10, 72480, Note_on_c, 9, 42, 109
10, 72480, Note_on_c, 9, 54, 83
10, 72490, Note_off_c, 9, 54, 64
10, 72490, Note_off_c, 9, 42, 64
10, 72490, Note_off_c, 9, 39, 64
10, 72490, Note_off_c, 9, 38, 64
10, 72490, Note_off_c, 9, 35, 64
10, 72720, Note_on_c, 9, 46, 109
10, 72730, Note_off_c, 9, 46, 64
10, 72960, Note_on_c, 9, 35, 98
10, 72960, Note_on_c, 9, 49, 70
10, 72970, Note_off_c, 9, 49, 64
10, 72970, Note_off_c, 9, 35, 64
10, 73200, Note_on_c, 9, 42, 84
10, 73210, Note_off_c, 9, 42, 64
10, 73440, Note_on_c, 9, 38, 107
10, 73440, Note_on_c, 9, 39, 94
10, 73440, Note_on_c, 9, 42, 109
10, 73450, Note_off_c, 9, 42, 64
10, 73450, Note_off_c, 9, 39, 64
10, 73450, Note_off_c, 9, 38, 64
10, 73680, Note_on_c, 9, 42, 87
10, 73690, Note_off_c, 9, 42, 64
10, 73920, Note_on_c, 9, 35, 98
10, 73920, Note_on_c, 9, 42, 109
10, 73930, Note_off_c, 9, 42, 64
10, 73930, Note_off_c, 9, 35, 64
10, 74160, Note_on_c, 9, 42, 88
10, 74170, Note_off_c, 9, 42, 64
10, 74400, Note_on_c, 9, 38, 108
10, 74400, Note_on_c, 9, 39, 94
10, 74400, Note_on_c, 9, 42, 109
10, 74400, Note_on_c, 9, 54, 83
10, 74410, Note_off_c, 9, 54, 64
10, 74410, Note_off_c, 9, 42, 64
10, 74410, Note_off_c, 9, 39, 64
10, 74410, Note_off_c, 9, 38, 64
10, 74640, Note_on_c, 9, 42, 87
10, 74650, Note_off_c, 9, 42, 64
10, 74880, Note_on_c, 9, 35, 98
10, 74880, Note_on_c, 9, 42, 109
10, 74890, Note_off_c, 9, 42, 64
10, 74890, Note_off_c, 9, 35, 64
10, 75120, Note_on_c, 9, 42, 84
10, 75130, Note_off_c, 9, 42, 64
10, 75360, Note_on_c, 9, 38, 107
10, 75360, Note_on_c, 9, 39, 94
10, 75360, Note_on_c, 9, 42, 109
10, 75370, Note_off_c, 9, 42, 64
10, 75370, Note_off_c, 9, 39, 64
10, 75370, Note_off_c, 9, 38, 64
10, 75600, Note_on_c, 9, 42, 87
10, 75610, Note_off_c, 9, 42, 64
10, 75840, Note_on_c, 9, 35, 98
10, 75840, Note_on_c, 9, 42, 109
10, 75850, Note_off_c, 9, 42, 64
10, 75850, Note_off_c, 9, 35, 64
10, 76080, Note_on_c, 9, 42, 88
10, 76090, Note_off_c, 9, 42, 64
10, 76320, Note_on_c, 9, 35, 100
10, 76320, Note_on_c, 9, 38, 108
10, 76320, Note_on_c, 9, 39, 94
10, 76320, Note_on_c, 9, 42, 109
10, 76320, Note_on_c, 9, 54, 82
10, 76330, Note_off_c, 9, 54, 64
10, 76330, Note_off_c, 9, 42, 64
10, 76330, Note_off_c, 9, 39, 64
10, 76330, Note_off_c, 9, 38, 64
10, 76330, Note_off_c, 9, 35, 64
10, 76560, Note_on_c, 9, 42, 87
10, 76570, Note_off_c, 9, 42, 64
10, 76800, Note_on_c, 9, 35, 98
10, 76800, Note_on_c, 9, 42, 109
10, 76810, Note_off_c, 9, 42, 64
10, 76810, Note_off_c, 9, 35, 64
10, 77040, Note_on_c, 9, 42, 84
10, 77050, Note_off_c, 9, 42, 64
10, 77280, Note_on_c, 9, 38, 107
10, 77280, Note_on_c, 9, 39, 94
10, 77280, Note_on_c, 9, 42, 109
10, 77290, Note_off_c, 9, 42, 64
10, 77290, Note_off_c, 9, 39, 64
10, 77290, Note_off_c, 9, 38, 64
10, 77520, Note_on_c, 9, 42, 87
10, 77530, Note_off_c, 9, 42, 64
10, 77760, Note_on_c, 9, 35, 98
10, 77760, Note_on_c, 9, 42, 109
10, 77770, Note_off_c, 9, 42, 64
10, 77770, Note_off_c, 9, 35, 64
10, 78000, Note_on_c, 9, 42, 88
10, 78010, Note_off_c, 9, 42, 64
10, 78240, Note_on_c, 9, 38, 108
10, 78240, Note_on_c, 9, 39, 94
10, 78240, Note_on_c, 9, 42, 109
10, 78240, Note_on_c, 9, 54, 84
10, 78250, Note_off_c, 9, 54, 64
10, 78250, Note_off_c, 9, 42, 64
10, 78250, Note_off_c, 9, 39, 64
10, 78250, Note_off_c, 9, 38, 64
10, 78480, Note_on_c, 9, 42, 87
10, 78490, Note_off_c, 9, 42, 64
10, 78720, Note_on_c, 9, 35, 98
10, 78720, Note_on_c, 9, 42, 109
10, 78730, Note_off_c, 9, 42, 64
10, 78730, Note_off_c, 9, 35, 64
10, 78960, Note_on_c, 9, 42, 84
10, 78970, Note_off_c, 9, 42, 64
10, 79200, Note_on_c, 9, 38, 107
10, 79200, Note_on_c, 9, 39, 94
10, 79200, Note_on_c, 9, 42, 109
10, 79210, Note_off_c, 9, 42, 64
10, 79210, Note_off_c, 9, 39, 64
10, 79210, Note_off_c, 9, 38, 64
10, 79440, Note_on_c, 9, 42, 87
10, 79450, Note_off_c, 9, 42, 64
10, 79680, Note_on_c, 9, 35, 98
10, 79680, Note_on_c, 9, 42, 109
10, 79690, Note_off_c, 9, 42, 64
10, 79690, Note_off_c, 9, 35, 64
10, 79920, Note_on_c, 9, 42, 88
10, 79930, Note_off_c, 9, 42, 64
10, 80160, Note_on_c, 9, 35, 100
10, 80160, Note_on_c, 9, 38, 108
10, 80160, Note_on_c, 9, 39, 94
10, 80160, Note_on_c, 9, 42, 109
10, 80160, Note_on_c, 9, 54, 83
10, 80170, Note_off_c, 9, 54, 64
10, 80170, Note_off_c, 9, 42, 64
10, 80170, Note_off_c, 9, 39, 64
10, 80170, Note_off_c, 9, 38, 64
10, 80170, Note_off_c, 9, 35, 64
10, 80400, Note_on_c, 9, 42, 87
10, 80410, Note_off_c, 9, 42, 64
10, 80640, Note_on_c, 9, 35, 98
10, 80640, Note_on_c, 9, 42, 109
10, 80650, Note_off_c, 9, 42, 64
10, 80650, Note_off_c, 9, 35, 64
10, 80880, Note_on_c, 9, 42, 84
10, 80890, Note_off_c, 9, 42, 64
10, 81120, Note_on_c, 9, 38, 107
10, 81120, Note_on_c, 9, 39, 94
10, 81120, Note_on_c, 9, 42, 109
10, 81130, Note_off_c, 9, 42, 64
10, 81130, Note_off_c, 9, 39, 64
10, 81130, Note_off_c, 9, 38, 64
10, 81360, Note_on_c, 9, 42, 87
10, 81370, Note_off_c, 9, 42, 64
10, 81600, Note_on_c, 9, 35, 98
10, 81600, Note_on_c, 9, 42, 109
10, 81610, Note_off_c, 9, 42, 64
10, 81610, Note_off_c, 9, 35, 64
10, 81840, Note_on_c, 9, 42, 88
10, 81850, Note_off_c, 9, 42, 64
10, 82080, Note_on_c, 9, 38, 108
10, 82080, Note_on_c, 9, 39, 94
10, 82080, Note_on_c, 9, 42, 109
10, 82080, Note_on_c, 9, 54, 84
10, 82090, Note_off_c, 9, 54, 64
10, 82090, Note_off_c, 9, 42, 64
10, 82090, Note_off_c, 9, 39, 64
10, 82090, Note_off_c, 9, 38, 64
10, 82320, Note_on_c, 9, 42, 87
10, 82330, Note_off_c, 9, 42, 64
10, 82560, Note_on_c, 9, 35, 98
10, 82560, Note_on_c, 9, 42, 109
10, 82570, Note_off_c, 9, 42, 64
10, 82570, Note_off_c, 9, 35, 64
10, 82800, Note_on_c, 9, 42, 84
10, 82810, Note_off_c, 9, 42, 64
10, 83040, Note_on_c, 9, 38, 107
10, 83040, Note_on_c, 9, 39, 94
10, 83040, Note_on_c, 9, 42, 109
10, 83050, Note_off_c, 9, 42, 64
10, 83050, Note_off_c, 9, 39, 64
10, 83050, Note_off_c, 9, 38, 64
10, 83280, Note_on_c, 9, 42, 87
10, 83290, Note_off_c, 9, 42, 64
10, 83520, Note_on_c, 9, 35, 98
10, 83520, Note_on_c, 9, 42, 109
10, 83530, Note_off_c, 9, 42, 64
10, 83530, Note_off_c, 9, 35, 64
10, 83760, Note_on_c, 9, 42, 88
10, 83770, Note_off_c, 9, 42, 64
10, 84000, Note_on_c, 9, 35, 100
10, 84000, Note_on_c, 9, 38, 108
10, 84000, Note_on_c, 9, 39, 94
10, 84000, Note_on_c, 9, 42, 109
10, 84000, Note_on_c, 9, 54, 83
10, 84010, Note_off_c, 9, 54, 64
10, 84010, Note_off_c, 9, 42, 64
10, 84010, Note_off_c, 9, 39, 64
10, 84010, Note_off_c, 9, 38, 64
10, 84010, Note_off_c, 9, 35, 64
10, 84240, Note_on_c, 9, 42, 87
10, 84250, Note_off_c, 9, 42, 64
10, 84480, Note_on_c, 9, 35, 98
10, 84480, Note_on_c, 9, 42, 109
10, 84490, Note_off_c, 9, 42, 64
10, 84490, Note_off_c, 9, 35, 64
10, 84720, Note_on_c, 9, 42, 84
10, 84730, Note_off_c, 9, 42, 64
10, 84960, Note_on_c, 9, 38, 107
10, 84960, Note_on_c, 9, 39, 94
10, 84960, Note_on_c, 9, 42, 109
10, 84970, Note_off_c, 9, 42, 64
10, 84970, Note_off_c, 9, 39, 64
10, 84970, Note_off_c, 9, 38, 64
10, 85200, Note_on_c, 9, 42, 87
10, 85210, Note_off_c, 9, 42, 64
10, 85440, Note_on_c, 9, 35, 98
10, 85440, Note_on_c, 9, 42, 109
10, 85450, Note_off_c, 9, 42, 64
10, 85450, Note_off_c, 9, 35, 64
10, 85680, Note_on_c, 9, 42, 88
10, 85690, Note_off_c, 9, 42, 64
10, 85920, Note_on_c, 9, 38, 108
10, 85920, Note_on_c, 9, 39, 94
10, 85920, Note_on_c, 9, 42, 109
10, 85920, Note_on_c, 9, 54, 83
10, 85930, Note_off_c, 9, 54, 64
10, 85930, Note_off_c, 9, 42, 64
10, 85930, Note_off_c, 9, 39, 64
10, 85930, Note_off_c, 9, 38, 64
10, 86160, Note_on_c, 9, 42, 87
10, 86170, Note_off_c, 9, 42, 64
10, 86400, Note_on_c, 9, 35, 98
10, 86400, Note_on_c, 9, 42, 109
10, 86410, Note_off_c, 9, 42, 64
10, 86410, Note_off_c, 9, 35, 64
10, 86640, Note_on_c, 9, 42, 84
10, 86650, Note_off_c, 9, 42, 64
10, 86880, Note_on_c, 9, 38, 107
10, 86880, Note_on_c, 9, 39, 94
10, 86880, Note_on_c, 9, 42, 109
10, 86890, Note_off_c, 9, 42, 64
10, 86890, Note_off_c, 9, 39, 64
10, 86890, Note_off_c, 9, 38, 64
10, 87120, Note_on_c, 9, 42, 87
10, 87130, Note_off_c, 9, 42, 64
10, 87360, Note_on_c, 9, 35, 98
10, 87360, Note_on_c, 9, 42, 109
10, 87370, Note_off_c, 9, 42, 64
10, 87370, Note_off_c, 9, 35, 64
10, 87600, Note_on_c, 9, 42, 88
10, 87610, Note_off_c, 9, 42, 64
10, 87840, Note_on_c, 9, 35, 100
10, 87840, Note_on_c, 9, 38, 108
10, 87840, Note_on_c, 9, 39, 94
10, 87840, Note_on_c, 9, 42, 109
10, 87840, Note_on_c, 9, 54, 83
10, 87850, Note_off_c, 9, 54, 64
10, 87850, Note_off_c, 9, 42, 64
10, 87850, Note_off_c, 9, 39, 64
10, 87850, Note_off_c, 9, 38, 64
10, 87850, Note_off_c, 9, 35, 64
10, 88080, Note_on_c, 9, 38, 103
10, 88080, Note_on_c, 9, 42, 87
10, 88090, Note_off_c, 9, 42, 64
10, 88090, Note_off_c, 9, 38, 64
10, 88200, Note_on_c, 9, 38, 102
10, 88210, Note_off_c, 9, 38, 64
10, 88320, Note_on_c, 9, 35, 98
10, 88320, Note_on_c, 9, 49, 70
10, 88330, Note_off_c, 9, 49, 64
10, 88330, Note_off_c, 9, 35, 64
10, 88560, Note_on_c, 9, 42, 84
10, 88570, Note_off_c, 9, 42, 64
10, 88800, Note_on_c, 9, 38, 107
10, 88800, Note_on_c, 9, 39, 94
10, 88800, Note_on_c, 9, 42, 109
10, 88810, Note_off_c, 9, 42, 64
10, 88810, Note_off_c, 9, 39, 64
10, 88810, Note_off_c, 9, 38, 64
10, 89040, Note_on_c, 9, 42, 87
10, 89050, Note_off_c, 9, 42, 64
10, 89280, Note_on_c, 9, 35, 98
10, 89280, Note_on_c, 9, 42, 109
10, 89290, Note_off_c, 9, 42, 64
10, 89290, Note_off_c, 9, 35, 64
10, 89520, Note_on_c, 9, 42, 88
10, 89530, Note_off_c, 9, 42, 64
10, 89760, Note_on_c, 9, 38, 108
10, 89760, Note_on_c, 9, 39, 94
10, 89760, Note_on_c, 9, 42, 109
10, 89760, Note_on_c, 9, 54, 83
10, 89770, Note_off_c, 9, 54, 64
10, 89770, Note_off_c, 9, 42, 64
10, 89770, Note_off_c, 9, 39, 64
10, 89770, Note_off_c, 9, 38, 64
10, 90000, Note_on_c, 9, 42, 87
10, 90010, Note_off_c, 9, 42, 64
10, 90240, Note_on_c, 9, 35, 98
10, 90240, Note_on_c, 9, 42, 109
10, 90250, Note_off_c, 9, 42, 64
10, 90250, Note_off_c, 9, 35, 64
10, 90480, Note_on_c, 9, 42, 84
10, 90490, Note_off_c, 9, 42, 64
10, 90720, Note_on_c, 9, 38, 107
10, 90720, Note_on_c, 9, 39, 94
10, 90720, Note_on_c, 9, 42, 109
10, 90730, Note_off_c, 9, 42, 64
10, 90730, Note_off_c, 9, 39, 64
10, 90730, Note_off_c, 9, 38, 64
10, 90960, Note_on_c, 9, 42, 87
10, 90970, Note_off_c, 9, 42, 64
10, 91200, Note_on_c, 9, 35, 98
10, 91200, Note_on_c, 9, 42, 109
10, 91210, Note_off_c, 9, 42, 64
10, 91210, Note_off_c, 9, 35, 64
10, 91440, Note_on_c, 9, 42, 88
10, 91450, Note_off_c, 9, 42, 64
10, 91680, Note_on_c, 9, 35, 100
10, 91680, Note_on_c, 9, 38, 108
10, 91680, Note_on_c, 9, 39, 94
10, 91680, Note_on_c, 9, 42, 109
10, 91680, Note_on_c, 9, 54, 82
10, 91690, Note_off_c, 9, 54, 64
10, 91690, Note_off_c, 9, 42, 64
10, 91690, Note_off_c, 9, 39, 64
10, 91690, Note_off_c, 9, 38, 64
10, 91690, Note_off_c, 9, 35, 64
10, 91920, Note_on_c, 9, 42, 87
10, 91930, Note_off_c, 9, 42, 64
10, 92160, Note_on_c, 9, 35, 98
10, 92160, Note_on_c, 9, 42, 109
10, 92170, Note_off_c, 9, 42, 64
10, 92170, Note_off_c, 9, 35, 64
10, 92400, Note_on_c, 9, 42, 84
10, 92410, Note_off_c, 9, 42, 64
10, 92640, Note_on_c, 9, 38, 107
10, 92640, Note_on_c, 9, 39, 94
10, 92640, Note_on_c, 9, 42, 109
10, 92650, Note_off_c, 9, 42, 64
10, 92650, Note_off_c, 9, 39, 64
10, 92650, Note_off_c, 9, 38, 64
10, 92880, Note_on_c, 9, 42, 87
10, 92890, Note_off_c, 9, 42, 64
10, 93120, Note_on_c, 9, 35, 98
10, 93120, Note_on_c, 9, 42, 109
10, 93130, Note_off_c, 9, 42, 64
10, 93130, Note_off_c, 9, 35, 64
10, 93360, Note_on_c, 9, 42, 88
10, 93370, Note_off_c, 9, 42, 64
10, 93600, Note_on_c, 9, 38, 108
10, 93600, Note_on_c, 9, 39, 94
10, 93600, Note_on_c, 9, 42, 109
10, 93600, Note_on_c, 9, 54, 84
10, 93610, Note_off_c, 9, 54, 64
10, 93610, Note_off_c, 9, 42, 64
10, 93610, Note_off_c, 9, 39, 64
10, 93610, Note_off_c, 9, 38, 64
10, 93840, Note_on_c, 9, 42, 87
10, 93850, Note_off_c, 9, 42, 64
10, 94080, Note_on_c, 9, 35, 98
10, 94080, Note_on_c, 9, 42, 109
10, 94090, Note_off_c, 9, 42, 64
10, 94090, Note_off_c, 9, 35, 64
10, 94320, Note_on_c, 9, 42, 84
10, 94330, Note_off_c, 9, 42, 64
10, 94560, Note_on_c, 9, 38, 107
10, 94560, Note_on_c, 9, 39, 94
10, 94560, Note_on_c, 9, 42, 109
10, 94570, Note_off_c, 9, 42, 64
10, 94570, Note_off_c, 9, 39, 64
10, 94570, Note_off_c, 9, 38, 64
10, 94800, Note_on_c, 9, 42, 87
10, 94810, Note_off_c, 9, 42, 64
10, 95040, Note_on_c, 9, 35, 98
10, 95040, Note_on_c, 9, 42, 109
10, 95050, Note_off_c, 9, 42, 64
10, 95050, Note_off_c, 9, 35, 64
10, 95280, Note_on_c, 9, 42, 88
10, 95290, Note_off_c, 9, 42, 64
10, 95520, Note_on_c, 9, 35, 100
10, 95520, Note_on_c, 9, 38, 108
10, 95520, Note_on_c, 9, 39, 94
10, 95520, Note_on_c, 9, 42, 109
10, 95520, Note_on_c, 9, 54, 83
10, 95530, Note_off_c, 9, 54, 64
10, 95530, Note_off_c, 9, 42, 64
10, 95530, Note_off_c, 9, 39, 64
10, 95530, Note_off_c, 9, 38, 64
10, 95530, Note_off_c, 9, 35, 64
10, 95760, Note_on_c, 9, 42, 87
10, 95770, Note_off_c, 9, 42, 64
10, 96000, Note_on_c, 9, 35, 98
10, 96000, Note_on_c, 9, 42, 109
10, 96010, Note_off_c, 9, 42, 64
10, 96010, Note_off_c, 9, 35, 64
10, 96240, Note_on_c, 9, 42, 84
10, 96250, Note_off_c, 9, 42, 64
10, 96480, Note_on_c, 9, 38, 107
10, 96480, Note_on_c, 9, 39, 94
10, 96480, Note_on_c, 9, 42, 109
10, 96490, Note_off_c, 9, 42, 64
10, 96490, Note_off_c, 9, 39, 64
10, 96490, Note_off_c, 9, 38, 64
10, 96720, Note_on_c, 9, 42, 87
10, 96730, Note_off_c, 9, 42, 64
10, 96960, Note_on_c, 9, 35, 98
10, 96960, Note_on_c, 9, 42, 109
10, 96970, Note_off_c, 9, 42, 64
10, 96970, Note_off_c, 9, 35, 64
10, 97200, Note_on_c, 9, 42, 88
10, 97210, Note_off_c, 9, 42, 64
10, 97440, Note_on_c, 9, 38, 108
10, 97440, Note_on_c, 9, 39, 94
10, 97440, Note_on_c, 9, 42, 109
10, 97440, Note_on_c, 9, 54, 84
10, 97450, Note_off_c, 9, 54, 64
10, 97450, Note_off_c, 9, 42, 64
10, 97450, Note_off_c, 9, 39, 64
10, 97450, Note_off_c, 9, 38, 64
10, 97680, Note_on_c, 9, 42, 87
10, 97690, Note_off_c, 9, 42, 64
10, 97920, Note_on_c, 9, 35, 98
10, 97920, Note_on_c, 9, 42, 109
10, 97930, Note_off_c, 9, 42, 64
10, 97930, Note_off_c, 9, 35, 64
10, 98160, Note_on_c, 9, 42, 84
10, 98170, Note_off_c, 9, 42, 64
10, 98400, Note_on_c, 9, 38, 107
10, 98400, Note_on_c, 9, 39, 94
10, 98400, Note_on_c, 9, 42, 109
10, 98410, Note_off_c, 9, 42, 64
10, 98410, Note_off_c, 9, 39, 64
10, 98410, Note_off_c, 9, 38, 64
10, 98640, Note_on_c, 9, 42, 87
10, 98650, Note_off_c, 9, 42, 64
10, 98880, Note_on_c, 9, 35, 98
10, 98880, Note_on_c, 9, 42, 109
10, 98890, Note_off_c, 9, 42, 64
10, 98890, Note_off_c, 9, 35, 64
10, 99120, Note_on_c, 9, 42, 88
10, 99130, Note_off_c, 9, 42, 64
10, 99360, Note_on_c, 9, 35, 100
10, 99360, Note_on_c, 9, 38, 108
10, 99360, Note_on_c, 9, 39, 94
10, 99360, Note_on_c, 9, 42, 109
10, 99360, Note_on_c, 9, 54, 83
10, 99370, Note_off_c, 9, 54, 64
10, 99370, Note_off_c, 9, 42, 64
10, 99370, Note_off_c, 9, 39, 64
10, 99370, Note_off_c, 9, 38, 64
10, 99370, Note_off_c, 9, 35, 64
10, 99600, Note_on_c, 9, 42, 87
10, 99610, Note_off_c, 9, 42, 64
10, 99840, Note_on_c, 9, 35, 98
10, 99840, Note_on_c, 9, 42, 109
10, 99850, Note_off_c, 9, 42, 64
10, 99850, Note_off_c, 9, 35, 64
10, 100080, Note_on_c, 9, 42, 84
10, 100090, Note_off_c, 9, 42, 64
10, 100320, Note_on_c, 9, 38, 107
10, 100320, Note_on_c, 9, 39, 94
10, 100320, Note_on_c, 9, 42, 109
10, 100330, Note_off_c, 9, 42, 64
10, 100330, Note_off_c, 9, 39, 64
10, 100330, Note_off_c, 9, 38, 64
10, 100560, Note_on_c, 9, 42, 87
10, 100570, Note_off_c, 9, 42, 64
10, 100800, Note_on_c, 9, 35, 98
10, 100800, Note_on_c, 9, 42, 109
10, 100810, Note_off_c, 9, 42, 64
10, 100810, Note_off_c, 9, 35, 64
10, 101040, Note_on_c, 9, 42, 88
10, 101050, Note_off_c, 9, 42, 64
10, 101280, Note_on_c, 9, 38, 108
10, 101280, Note_on_c, 9, 39, 94
10, 101280, Note_on_c, 9, 42, 109
10, 101280, Note_on_c, 9, 54, 83
10, 101290, Note_off_c, 9, 54, 64
10, 101290, Note_off_c, 9, 42, 64
10, 101290, Note_off_c, 9, 39, 64
10, 101290, Note_off_c, 9, 38, 64
10, 101520, Note_on_c, 9, 42, 87
10, 101530, Note_off_c, 9, 42, 64
10, 101760, Note_on_c, 9, 35, 98
10, 101760, Note_on_c, 9, 42, 109
10, 101770, Note_off_c, 9, 42, 64
10, 101770, Note_off_c, 9, 35, 64
10, 102000, Note_on_c, 9, 42, 84
10, 102010, Note_off_c, 9, 42, 64
10, 102240, Note_on_c, 9, 38, 107
10, 102240, Note_on_c, 9, 39, 94
10, 102240, Note_on_c, 9, 42, 109
10, 102250, Note_off_c, 9, 42, 64
10, 102250, Note_off_c, 9, 39, 64
10, 102250, Note_off_c, 9, 38, 64
10, 102480, Note_on_c, 9, 42, 87
10, 102490, Note_off_c, 9, 42, 64
10, 102720, Note_on_c, 9, 35, 98
10, 102720, Note_on_c, 9, 42, 109
10, 102730, Note_off_c, 9, 42, 64
10, 102730, Note_off_c, 9, 35, 64
10, 102960, Note_on_c, 9, 42, 88
10, 102970, Note_off_c, 9, 42, 64
10, 103200, Note_on_c, 9, 35, 100
10, 103200, Note_on_c, 9, 38, 108
10, 103200, Note_on_c, 9, 39, 94
10, 103200, Note_on_c, 9, 42, 109
10, 103200, Note_on_c, 9, 54, 83
10, 103210, Note_off_c, 9, 54, 64
10, 103210, Note_off_c, 9, 42, 64
10, 103210, Note_off_c, 9, 39, 64
10, 103210, Note_off_c, 9, 38, 64
10, 103210, Note_off_c, 9, 35, 64
10, 103440, Note_on_c, 9, 42, 87
10, 103450, Note_off_c, 9, 42, 64
10, 103680, Note_on_c, 9, 35, 98
10, 103680, Note_on_c, 9, 49, 70
10, 103690, Note_off_c, 9, 49, 64
10, 103690, Note_off_c, 9, 35, 64
10, 103920, Note_on_c, 9, 42, 84
10, 103930, Note_off_c, 9, 42, 64
10, 104160, Note_on_c, 9, 38, 107
10, 104160, Note_on_c, 9, 39, 94
10, 104160, Note_on_c, 9, 42, 109
10, 104160, Note_on_c, 9, 54, 84
10, 104170, Note_off_c, 9, 54, 64
10, 104170, Note_off_c, 9, 42, 64
10, 104170, Note_off_c, 9, 39, 64
10, 104170, Note_off_c, 9, 38, 64
10, 104400, Note_on_c, 9, 42, 87
10, 104410, Note_off_c, 9, 42, 64
10, 104640, Note_on_c, 9, 35, 98
10, 104640, Note_on_c, 9, 42, 109
10, 104650, Note_off_c, 9, 42, 64
10, 104650, Note_off_c, 9, 35, 64
10, 104880, Note_on_c, 9, 42, 88
10, 104890, Note_off_c, 9, 42, 64
10, 105120, Note_on_c, 9, 38, 108
10, 105120, Note_on_c, 9, 39, 94
10, 105120, Note_on_c, 9, 42, 109
10, 105120, Note_on_c, 9, 54, 82
10, 105130, Note_off_c, 9, 54, 64
10, 105130, Note_off_c, 9, 42, 64
10, 105130, Note_off_c, 9, 39, 64
10, 105130, Note_off_c, 9, 38, 64
10, 105360, Note_on_c, 9, 42, 87
10, 105370, Note_off_c, 9, 42, 64
10, 105600, Note_on_c, 9, 35, 98
10, 105600, Note_on_c, 9, 42, 109
10, 105610, Note_off_c, 9, 42, 64
10, 105610, Note_off_c, 9, 35, 64
10, 105840, Note_on_c, 9, 42, 84
10, 105850, Note_off_c, 9, 42, 64
10, 106080, Note_on_c, 9, 38, 107
10, 106080, Note_on_c, 9, 39, 94
10, 106080, Note_on_c, 9, 42, 109
10, 106080, Note_on_c, 9, 54, 84
10, 106090, Note_off_c, 9, 54, 64
10, 106090, Note_off_c, 9, 42, 64
10, 106090, Note_off_c, 9, 39, 64
10, 106090, Note_off_c, 9, 38, 64
10, 106320, Note_on_c, 9, 42, 87
10, 106330, Note_off_c, 9, 42, 64
10, 106560, Note_on_c, 9, 35, 98
10, 106560, Note_on_c, 9, 42, 109
10, 106570, Note_off_c, 9, 42, 64
10, 106570, Note_off_c, 9, 35, 64
10, 106800, Note_on_c, 9, 42, 88
10, 106810, Note_off_c, 9, 42, 64
10, 107040, Note_on_c, 9, 35, 100
10, 107040, Note_on_c, 9, 38, 108
10, 107040, Note_on_c, 9, 39, 94
10, 107040, Note_on_c, 9, 42, 109
10, 107040, Note_on_c, 9, 54, 84
10, 107050, Note_off_c, 9, 54, 64
10, 107050, Note_off_c, 9, 42, 64
10, 107050, Note_off_c, 9, 39, 64
10, 107050, Note_off_c, 9, 38, 64
10, 107050, Note_off_c, 9, 35, 64
10, 107280, Note_on_c, 9, 42, 87
10, 107290, Note_off_c, 9, 42, 64
10, 107520, Note_on_c, 9, 35, 98
10, 107520, Note_on_c, 9, 42, 109
10, 107530, Note_off_c, 9, 42, 64
10, 107530, Note_off_c, 9, 35, 64
10, 107760, Note_on_c, 9, 42, 84
10, 107770, Note_off_c, 9, 42, 64
10, 108000, Note_on_c, 9, 38, 107
10, 108000, Note_on_c, 9, 39, 94
10, 108000, Note_on_c, 9, 42, 109
10, 108000, Note_on_c, 9, 54, 82
10, 108010, Note_off_c, 9, 54, 64
10, 108010, Note_off_c, 9, 42, 64
10, 108010, Note_off_c, 9, 39, 64
10, 108010, Note_off_c, 9, 38, 64
10, 108240, Note_on_c, 9, 42, 87
10, 108250, Note_off_c, 9, 42, 64
10, 108480, Note_on_c, 9, 35, 98
10, 108480, Note_on_c, 9, 42, 109
10, 108490, Note_off_c, 9, 42, 64
10, 108490, Note_off_c, 9, 35, 64
10, 108720, Note_on_c, 9, 42, 88
10, 108730, Note_off_c, 9, 42, 64
10, 108960, Note_on_c, 9, 38, 108
10, 108960, Note_on_c, 9, 39, 94
10, 108960, Note_on_c, 9, 42, 109
10, 108960, Note_on_c, 9, 54, 84
10, 108970, Note_off_c, 9, 54, 64
10, 108970, Note_off_c, 9, 42, 64
10, 108970, Note_off_c, 9, 39, 64
10, 108970, Note_off_c, 9, 38, 64
10, 109200, Note_on_c, 9, 42, 87
10, 109210, Note_off_c, 9, 42, 64
10, 109440, Note_on_c, 9, 35, 98
10, 109440, Note_on_c, 9, 42, 109
10, 109450, Note_off_c, 9, 42, 64
10, 109450, Note_off_c, 9, 35, 64
10, 109680, Note_on_c, 9, 42, 84
10, 109690, Note_off_c, 9, 42, 64
10, 109920, Note_on_c, 9, 38, 107
10, 109920, Note_on_c, 9, 39, 94
10, 109920, Note_on_c, 9, 42, 109
10, 109920, Note_on_c, 9, 54, 83
10, 109930, Note_off_c, 9, 54, 64
10, 109930, Note_off_c, 9, 42, 64
10, 109930, Note_off_c, 9, 39, 64
10, 109930, Note_off_c, 9, 38, 64
10, 110160, Note_on_c, 9, 42, 87
10, 110170, Note_off_c, 9, 42, 64
10, 110400, Note_on_c, 9, 35, 98
10, 110400, Note_on_c, 9, 42, 109
10, 110410, Note_off_c, 9, 42, 64
10, 110410, Note_off_c, 9, 35, 64
10, 110640, Note_on_c, 9, 42, 88
10, 110650, Note_off_c, 9, 42, 64
10, 110880, Note_on_c, 9, 35, 100
10, 110880, Note_on_c, 9, 38, 108
10, 110880, Note_on_c, 9, 39, 94
10, 110880, Note_on_c, 9, 42, 109
10, 110880, Note_on_c, 9, 54, 83
10, 110890, Note_off_c, 9, 54, 64
10, 110890, Note_off_c, 9, 42, 64
10, 110890, Note_off_c, 9, 39, 64
10, 110890, Note_off_c, 9, 38, 64
10, 110890, Note_off_c, 9, 35, 64
10, 111120, Note_on_c, 9, 42, 87
10, 111130, Note_off_c, 9, 42, 64
10, 111360, Note_on_c, 9, 35, 98
10, 111360, Note_on_c, 9, 42, 109
10, 111370, Note_off_c, 9, 42, 64
10, 111370, Note_off_c, 9, 35, 64
10, 111600, Note_on_c, 9, 42, 84
10, 111610, Note_off_c, 9, 42, 64
10, 111840, Note_on_c, 9, 38, 107
10, 111840, Note_on_c, 9, 39, 94
10, 111840, Note_on_c, 9, 42, 109
10, 111840, Note_on_c, 9, 54, 83
10, 111850, Note_off_c, 9, 54, 64
10, 111850, Note_off_c, 9, 42, 64
10, 111850, Note_off_c, 9, 39, 64
10, 111850, Note_off_c, 9, 38, 64
10, 112080, Note_on_c, 9, 42, 87
10, 112090, Note_off_c, 9, 42, 64
10, 112320, Note_on_c, 9, 35, 98
10, 112320, Note_on_c, 9, 42, 109
10, 112330, Note_off_c, 9, 42, 64
10, 112330, Note_off_c, 9, 35, 64
10, 112560, Note_on_c, 9, 42, 88
10, 112570, Note_off_c, 9, 42, 64
10, 112800, Note_on_c, 9, 38, 108
10, 112800, Note_on_c, 9, 39, 94
10, 112800, Note_on_c, 9, 42, 109
10, 112800, Note_on_c, 9, 54, 83
10, 112810, Note_off_c, 9, 54, 64
10, 112810, Note_off_c, 9, 42, 64
10, 112810, Note_off_c, 9, 39, 64
10, 112810, Note_off_c, 9, 38, 64
10, 113040, Note_on_c, 9, 42, 87
10, 113050, Note_off_c, 9, 42, 64
10, 113280, Note_on_c, 9, 35, 98
10, 113280, Note_on_c, 9, 42, 109
10, 113290, Note_off_c, 9, 42, 64
10, 113290, Note_off_c, 9, 35, 64
10, 113520, Note_on_c, 9, 42, 84
10, 113530, Note_off_c, 9, 42, 64
10, 113760, Note_on_c, 9, 38, 107
10, 113760, Note_on_c, 9, 39, 94
10, 113760, Note_on_c, 9, 42, 109
10, 113760, Note_on_c, 9, 54, 82
10, 113770, Note_off_c, 9, 54, 64
10, 113770, Note_off_c, 9, 42, 64
10, 113770, Note_off_c, 9, 39, 64
10, 113770, Note_off_c, 9, 38, 64
10, 114000, Note_on_c, 9, 42, 87
10, 114010, Note_off_c, 9, 42, 64
10, 114240, Note_on_c, 9, 35, 98
10, 114240, Note_on_c, 9, 42, 109
10, 114250, Note_off_c, 9, 42, 64
10, 114250, Note_off_c, 9, 35, 64
10, 114480, Note_on_c, 9, 42, 88
10, 114490, Note_off_c, 9, 42, 64
10, 114720, Note_on_c, 9, 35, 100
10, 114720, Note_on_c, 9, 38, 108
10, 114720, Note_on_c, 9, 39, 94
10, 114720, Note_on_c, 9, 42, 109
10, 114720, Note_on_c, 9, 54, 84
10, 114730, Note_off_c, 9, 54, 64
10, 114730, Note_off_c, 9, 42, 64
10, 114730, Note_off_c, 9, 39, 64
10, 114730, Note_off_c, 9, 38, 64
10, 114730, Note_off_c, 9, 35, 64
10, 114960, Note_on_c, 9, 42, 87
10, 114970, Note_off_c, 9, 42, 64
10, 115200, Note_on_c, 9, 35, 98
10, 115200, Note_on_c, 9, 42, 109
10, 115210, Note_off_c, 9, 42, 64
10, 115210, Note_off_c, 9, 35, 64
10, 115440, Note_on_c, 9, 42, 84
10, 115450, Note_off_c, 9, 42, 64
10, 115680, Note_on_c, 9, 38, 107
10, 115680, Note_on_c, 9, 39, 94
10, 115680, Note_on_c, 9, 42, 109
10, 115680, Note_on_c, 9, 54, 84
10, 115690, Note_off_c, 9, 54, 64
10, 115690, Note_off_c, 9, 42, 64
10, 115690, Note_off_c, 9, 39, 64
10, 115690, Note_off_c, 9, 38, 64
10, 115920, Note_on_c, 9, 42, 87
10, 115930, Note_off_c, 9, 42, 64
10, 116160, Note_on_c, 9, 35, 98
10, 116160, Note_on_c, 9, 42, 109
10, 116170, Note_off_c, 9, 42, 64
10, 116170, Note_off_c, 9, 35, 64
10, 116400, Note_on_c, 9, 42, 88
10, 116410, Note_off_c, 9, 42, 64
10, 116640, Note_on_c, 9, 38, 108
10, 116640, Note_on_c, 9, 39, 94
10, 116640, Note_on_c, 9, 42, 109
10, 116640, Note_on_c, 9, 54, 83
10, 116650, Note_off_c, 9, 54, 64
10, 116650, Note_off_c, 9, 42, 64
10, 116650, Note_off_c, 9, 39, 64
10, 116650, Note_off_c, 9, 38, 64
10, 116880, Note_on_c, 9, 42, 87
10, 116890, Note_off_c, 9, 42, 64
10, 117120, Note_on_c, 9, 35, 98
10, 117120, Note_on_c, 9, 42, 109
10, 117130, Note_off_c, 9, 42, 64
10, 117130, Note_off_c, 9, 35, 64
10, 117360, Note_on_c, 9, 42, 84
10, 117370, Note_off_c, 9, 42, 64
10, 117600, Note_on_c, 9, 38, 107
10, 117600, Note_on_c, 9, 39, 94
10, 117600, Note_on_c, 9, 42, 109
10, 117600, Note_on_c, 9, 54, 84
10, 117610, Note_off_c, 9, 54, 64
10, 117610, Note_off_c, 9, 42, 64
10, 117610, Note_off_c, 9, 39, 64
10, 117610, Note_off_c, 9, 38, 64
10, 117840, Note_on_c, 9, 42, 87
10, 117850, Note_off_c, 9, 42, 64
10, 118080, Note_on_c, 9, 35, 98
10, 118080, Note_on_c, 9, 42, 109
10, 118090, Note_off_c, 9, 42, 64
10, 118090, Note_off_c, 9, 35, 64
10, 118320, Note_on_c, 9, 42, 88
10, 118330, Note_off_c, 9, 42, 64
10, 118560, Note_on_c, 9, 35, 100
10, 118560, Note_on_c, 9, 38, 108
10, 118560, Note_on_c, 9, 39, 94
10, 118560, Note_on_c, 9, 42, 109
10, 118560, Note_on_c, 9, 54, 83
10, 118570, Note_off_c, 9, 54, 64
10, 118570, Note_off_c, 9, 42, 64
10, 118570, Note_off_c, 9, 39, 64
10, 118570, Note_off_c, 9, 38, 64
10, 118570, Note_off_c, 9, 35, 64
10, 118800, Note_on_c, 9, 38, 103
10, 118800, Note_on_c, 9, 46, 109
10, 118810, Note_off_c, 9, 46, 64
10, 118810, Note_off_c, 9, 38, 64
10, 118920, Note_on_c, 9, 38, 105
10, 118930, Note_off_c, 9, 38, 64
10, 119040, Note_on_c, 9, 35, 98
10, 119040, Note_on_c, 9, 49, 70
10, 119050, Note_off_c, 9, 49, 64
10, 119050, Note_off_c, 9, 35, 64
10, 119280, Note_on_c, 9, 42, 84
10, 119290, Note_off_c, 9, 42, 64
10, 119520, Note_on_c, 9, 38, 107
10, 119520, Note_on_c, 9, 39, 94
10, 119520, Note_on_c, 9, 42, 109
10, 119520, Note_on_c, 9, 54, 84
10, 119530, Note_off_c, 9, 54, 64
10, 119530, Note_off_c, 9, 42, 64
10, 119530, Note_off_c, 9, 39, 64
10, 119530, Note_off_c, 9, 38, 64
10, 119760, Note_on_c, 9, 42, 87
10, 119770, Note_off_c, 9, 42, 64
10, 120000, Note_on_c, 9, 35, 98
10, 120000, Note_on_c, 9, 42, 109
10, 120010, Note_off_c, 9, 42, 64
10, 120010, Note_off_c, 9, 35, 64
10, 120240, Note_on_c, 9, 42, 88
10, 120250, Note_off_c, 9, 42, 64
10, 120480, Note_on_c, 9, 38, 108
10, 120480, Note_on_c, 9, 39, 94
10, 120480, Note_on_c, 9, 42, 109
10, 120480, Note_on_c, 9, 54, 82
10, 120490, Note_off_c, 9, 54, 64
10, 120490, Note_off_c, 9, 42, 64
10, 120490, Note_off_c, 9, 39, 64
10, 120490, Note_off_c, 9, 38, 64
10, 120720, Note_on_c, 9, 42, 87
10, 120730, Note_off_c, 9, 42, 64
10, 120960, Note_on_c, 9, 35, 98
10, 120960, Note_on_c, 9, 42, 109
10, 120970, Note_off_c, 9, 42, 64
10, 120970, Note_off_c, 9, 35, 64
10, 121200, Note_on_c, 9, 42, 84
10, 121210, Note_off_c, 9, 42, 64
10, 121440, Note_on_c, 9, 38, 107
10, 121440, Note_on_c, 9, 39, 94
10, 121440, Note_on_c, 9, 42, 109
10, 121440, Note_on_c, 9, 54, 84
10, 121450, Note_off_c, 9, 54, 64
10, 121450, Note_off_c, 9, 42, 64
10, 121450, Note_off_c, 9, 39, 64
10, 121450, Note_off_c, 9, 38, 64
10, 121680, Note_on_c, 9, 42, 87
10, 121690, Note_off_c, 9, 42, 64
10, 121920, Note_on_c, 9, 35, 98
10, 121920, Note_on_c, 9, 42, 109
10, 121930, Note_off_c, 9, 42, 64
10, 121930, Note_off_c, 9, 35, 64
10, 122160, Note_on_c, 9, 42, 88
10, 122170, Note_off_c, 9, 42, 64
10, 122400, Note_on_c, 9, 35, 100
10, 122400, Note_on_c, 9, 38, 108
10, 122400, Note_on_c, 9, 39, 94
10, 122400, Note_on_c, 9, 42, 109
10, 122400, Note_on_c, 9, 54, 84
10, 122410, Note_off_c, 9, 54, 64
10, 122410, Note_off_c, 9, 42, 64
10, 122410, Note_off_c, 9, 39, 64
10, 122410, Note_off_c, 9, 38, 64
10, 122410, Note_off_c, 9, 35, 64
10, 122640, Note_on_c, 9, 42, 87
10, 122650, Note_off_c, 9, 42, 64
10, 122880, Note_on_c, 9, 35, 98
10, 122880, Note_on_c, 9, 42, 109
10, 122890, Note_off_c, 9, 42, 64
10, 122890, Note_off_c, 9, 35, 64
10, 123120, Note_on_c, 9, 42, 84
10, 123130, Note_off_c, 9, 42, 64
10, 123360, Note_on_c, 9, 38, 107
10, 123360, Note_on_c, 9, 39, 94
10, 123360, Note_on_c, 9, 42, 109
10, 123360, Note_on_c, 9, 54, 82
10, 123370, Note_off_c, 9, 54, 64
10, 123370, Note_off_c, 9, 42, 64
10, 123370, Note_off_c, 9, 39, 64
10, 123370, Note_off_c, 9, 38, 64
10, 123600, Note_on_c, 9, 42, 87
10, 123610, Note_off_c, 9, 42, 64
10, 123840, Note_on_c, 9, 35, 98
10, 123840, Note_on_c, 9, 42, 109
10, 123850, Note_off_c, 9, 42, 64
10, 123850, Note_off_c, 9, 35, 64
10, 124080, Note_on_c, 9, 42, 88
10, 124090, Note_off_c, 9, 42, 64
10, 124320, Note_on_c, 9, 38, 108
10, 124320, Note_on_c, 9, 39, 94
10, 124320, Note_on_c, 9, 42, 109
10, 124320, Note_on_c, 9, 54, 84
10, 124330, Note_off_c, 9, 54, 64
10, 124330, Note_off_c, 9, 42, 64
10, 124330, Note_off_c, 9, 39, 64
10, 124330, Note_off_c, 9, 38, 64
10, 124560, Note_on_c, 9, 42, 87
10, 124570, Note_off_c, 9, 42, 64
10, 124800, Note_on_c, 9, 35, 98
10, 124800, Note_on_c, 9, 42, 109
10, 124810, Note_off_c, 9, 42, 64
10, 124810, Note_off_c, 9, 35, 64
10, 125040, Note_on_c, 9, 42, 84
10, 125050, Note_off_c, 9, 42, 64
10, 125280, Note_on_c, 9, 38, 107
10, 125280, Note_on_c, 9, 39, 94
10, 125280, Note_on_c, 9, 42, 109
10, 125280, Note_on_c, 9, 54, 83
10, 125290, Note_off_c, 9, 54, 64
10, 125290, Note_off_c, 9, 42, 64
10, 125290, Note_off_c, 9, 39, 64
10, 125290, Note_off_c, 9, 38, 64
10, 125520, Note_on_c, 9, 42, 87
10, 125530, Note_off_c, 9, 42, 64
10, 125760, Note_on_c, 9, 35, 98
10, 125760, Note_on_c, 9, 42, 109
10, 125770, Note_off_c, 9, 42, 64
10, 125770, Note_off_c, 9, 35, 64
10, 126000, Note_on_c, 9, 42, 88
10, 126010, Note_off_c, 9, 42, 64
10, 126240, Note_on_c, 9, 35, 100
10, 126240, Note_on_c, 9, 38, 108
10, 126240, Note_on_c, 9, 39, 94
10, 126240, Note_on_c, 9, 42, 109
10, 126240, Note_on_c, 9, 54, 83
10, 126250, Note_off_c, 9, 54, 64
10, 126250, Note_off_c, 9, 42, 64
10, 126250, Note_off_c, 9, 39, 64
10, 126250, Note_off_c, 9, 38, 64
10, 126250, Note_off_c, 9, 35, 64
10, 126480, Note_on_c, 9, 38, 108
10, 126480, Note_on_c, 9, 42, 87
10, 126490, Note_off_c, 9, 42, 64
10, 126490, Note_off_c, 9, 38, 64
10, 126600, Note_on_c, 9, 38, 105
10, 126610, Note_off_c, 9, 38, 64
10, 126720, Note_on_c, 9, 35, 98
10, 126720, Note_on_c, 9, 49, 70
10, 126730, Note_off_c, 9, 49, 64
10, 126730, Note_off_c, 9, 35, 64
10, 126960, Note_on_c, 9, 42, 84
10, 126970, Note_off_c, 9, 42, 64
10, 127200, Note_on_c, 9, 38, 107
10, 127200, Note_on_c, 9, 39, 94
10, 127200, Note_on_c, 9, 42, 109
10, 127200, Note_on_c, 9, 54, 83
10, 127210, Note_off_c, 9, 54, 64
10, 127210, Note_off_c, 9, 42, 64
10, 127210, Note_off_c, 9, 39, 64
10, 127210, Note_off_c, 9, 38, 64
10, 127440, Note_on_c, 9, 42, 87
10, 127450, Note_off_c, 9, 42, 64
10, 127680, Note_on_c, 9, 35, 98
10, 127680, Note_on_c, 9, 42, 109
10, 127690, Note_off_c, 9, 42, 64
10, 127690, Note_off_c, 9, 35, 64
10, 127920, Note_on_c, 9, 42, 88
10, 127930, Note_off_c, 9, 42, 64
10, 128160, Note_on_c, 9, 38, 108
10, 128160, Note_on_c, 9, 39, 94
10, 128160, Note_on_c, 9, 42, 109
10, 128160, Note_on_c, 9, 54, 83
10, 128170, Note_off_c, 9, 54, 64
10, 128170, Note_off_c, 9, 42, 64
10, 128170, Note_off_c, 9, 39, 64
10, 128170, Note_off_c, 9, 38, 64
10, 128400, Note_on_c, 9, 42, 87
10, 128410, Note_off_c, 9, 42, 64
10, 128640, Note_on_c, 9, 35, 98
10, 128640, Note_on_c, 9, 42, 109
10, 128650, Note_off_c, 9, 42, 64
10, 128650, Note_off_c, 9, 35, 64
10, 128880, Note_on_c, 9, 42, 84
10, 128890, Note_off_c, 9, 42, 64
10, 129120, Note_on_c, 9, 38, 107
10, 129120, Note_on_c, 9, 39, 94
10, 129120, Note_on_c, 9, 42, 109
10, 129120, Note_on_c, 9, 54, 82
10, 129130, Note_off_c, 9, 54, 64
10, 129130, Note_off_c, 9, 42, 64
10, 129130, Note_off_c, 9, 39, 64
10, 129130, Note_off_c, 9, 38, 64
10, 129360, Note_on_c, 9, 42, 87
10, 129370, Note_off_c, 9, 42, 64
10, 129600, Note_on_c, 9, 35, 98
10, 129600, Note_on_c, 9, 42, 109
10, 129610, Note_off_c, 9, 42, 64
10, 129610, Note_off_c, 9, 35, 64
10, 129840, Note_on_c, 9, 42, 88
10, 129850, Note_off_c, 9, 42, 64
10, 130080, Note_on_c, 9, 35, 100
10, 130080, Note_on_c, 9, 38, 108
10, 130080, Note_on_c, 9, 39, 94
10, 130080, Note_on_c, 9, 42, 109
10, 130080, Note_on_c, 9, 54, 84
10, 130090, Note_off_c, 9, 54, 64
10, 130090, Note_off_c, 9, 42, 64
10, 130090, Note_off_c, 9, 39, 64
10, 130090, Note_off_c, 9, 38, 64
10, 130090, Note_off_c, 9, 35, 64
10, 130320, Note_on_c, 9, 42, 87
10, 130330, Note_off_c, 9, 42, 64
10, 130560, Note_on_c, 9, 35, 98
10, 130560, Note_on_c, 9, 42, 109
10, 130570, Note_off_c, 9, 42, 64
10, 130570, Note_off_c, 9, 35, 64
10, 130800, Note_on_c, 9, 42, 84
10, 130810, Note_off_c, 9, 42, 64
10, 131040, Note_on_c, 9, 38, 107
10, 131040, Note_on_c, 9, 39, 94
10, 131040, Note_on_c, 9, 42, 109
10, 131040, Note_on_c, 9, 54, 84
10, 131050, Note_off_c, 9, 54, 64
10, 131050, Note_off_c, 9, 42, 64
10, 131050, Note_off_c, 9, 39, 64
10, 131050, Note_off_c, 9, 38, 64
10, 131280, Note_on_c, 9, 42, 87
10, 131290, Note_off_c, 9, 42, 64
10, 131520, Note_on_c, 9, 35, 98
10, 131520, Note_on_c, 9, 42, 109
10, 131530, Note_off_c, 9, 42, 64
10, 131530, Note_off_c, 9, 35, 64
10, 131760, Note_on_c, 9, 42, 88
10, 131770, Note_off_c, 9, 42, 64
10, 132000, Note_on_c, 9, 38, 108
10, 132000, Note_on_c, 9, 39, 94
10, 132000, Note_on_c, 9, 42, 109
10, 132000, Note_on_c, 9, 54, 83
10, 132010, Note_off_c, 9, 54, 64
10, 132010, Note_off_c, 9, 42, 64
10, 132010, Note_off_c, 9, 39, 64
10, 132010, Note_off_c, 9, 38, 64
10, 132240, Note_on_c, 9, 42, 87
10, 132250, Note_off_c, 9, 42, 64
10, 132480, Note_on_c, 9, 35, 98
10, 132480, Note_on_c, 9, 42, 109
10, 132490, Note_off_c, 9, 42, 64
10, 132490, Note_off_c, 9, 35, 64
10, 132720, Note_on_c, 9, 42, 84
10, 132730, Note_off_c, 9, 42, 64
10, 132960, Note_on_c, 9, 38, 107
10, 132960, Note_on_c, 9, 39, 94
10, 132960, Note_on_c, 9, 42, 109
10, 132960, Note_on_c, 9, 54, 84
10, 132970, Note_off_c, 9, 54, 64
10, 132970, Note_off_c, 9, 42, 64
10, 132970, Note_off_c, 9, 39, 64
10, 132970, Note_off_c, 9, 38, 64
10, 133200, Note_on_c, 9, 42, 87
10, 133210, Note_off_c, 9, 42, 64
10, 133440, Note_on_c, 9, 35, 98
10, 133440, Note_on_c, 9, 42, 109
10, 133450, Note_off_c, 9, 42, 64
10, 133450, Note_off_c, 9, 35, 64
10, 133680, Note_on_c, 9, 42, 88
10, 133690, Note_off_c, 9, 42, 64
10, 133920, Note_on_c, 9, 35, 100
10, 133920, Note_on_c, 9, 38, 108
10, 133920, Note_on_c, 9, 39, 94
10, 133920, Note_on_c, 9, 42, 109
10, 133920, Note_on_c, 9, 54, 83
10, 133930, Note_off_c, 9, 54, 64
10, 133930, Note_off_c, 9, 42, 64
10, 133930, Note_off_c, 9, 39, 64
10, 133930, Note_off_c, 9, 38, 64
10, 133930, Note_off_c, 9, 35, 64
10, 134160, Note_on_c, 9, 38, 103
10, 134160, Note_on_c, 9, 42, 94
10, 134170, Note_off_c, 9, 42, 64
10, 134170, Note_off_c, 9, 38, 64
10, 134280, Note_on_c, 9, 38, 105
10, 134290, Note_off_c, 9, 38, 64
10, 134400, Note_on_c, 9, 35, 98
10, 134400, Note_on_c, 9, 49, 70
10, 134410, Note_off_c, 9, 49, 64
10, 134410, Note_off_c, 9, 35, 64
10, 134640, Note_on_c, 9, 42, 84
10, 134650, Note_off_c, 9, 42, 64
10, 134880, Note_on_c, 9, 38, 107
10, 134880, Note_on_c, 9, 39, 94
10, 134880, Note_on_c, 9, 42, 109
10, 134880, Note_on_c, 9, 54, 84
10, 134890, Note_off_c, 9, 54, 64
10, 134890, Note_off_c, 9, 42, 64
10, 134890, Note_off_c, 9, 39, 64
10, 134890, Note_off_c, 9, 38, 64
10, 135120, Note_on_c, 9, 42, 87
10, 135130, Note_off_c, 9, 42, 64
10, 135360, Note_on_c, 9, 35, 98
10, 135360, Note_on_c, 9, 42, 109
10, 135370, Note_off_c, 9, 42, 64
10, 135370, Note_off_c, 9, 35, 64
10, 135600, Note_on_c, 9, 42, 88
10, 135610, Note_off_c, 9, 42, 64
10, 135840, Note_on_c, 9, 38, 108
10, 135840, Note_on_c, 9, 39, 94
10, 135840, Note_on_c, 9, 42, 109
10, 135840, Note_on_c, 9, 54, 82
10, 135850, Note_off_c, 9, 54, 64
10, 135850, Note_off_c, 9, 42, 64
10, 135850, Note_off_c, 9, 39, 64
10, 135850, Note_off_c, 9, 38, 64
10, 136080, Note_on_c, 9, 42, 87
10, 136090, Note_off_c, 9, 42, 64
10, 136320, Note_on_c, 9, 35, 98
10, 136320, Note_on_c, 9, 42, 109
10, 136330, Note_off_c, 9, 42, 64
10, 136330, Note_off_c, 9, 35, 64
10, 136560, Note_on_c, 9, 42, 84
10, 136570, Note_off_c, 9, 42, 64
10, 136800, Note_on_c, 9, 38, 107
10, 136800, Note_on_c, 9, 39, 94
10, 136800, Note_on_c, 9, 42, 109
10, 136800, Note_on_c, 9, 54, 84
10, 136810, Note_off_c, 9, 54, 64
10, 136810, Note_off_c, 9, 42, 64
10, 136810, Note_off_c, 9, 39, 64
10, 136810, Note_off_c, 9, 38, 64
10, 137040, Note_on_c, 9, 46, 109
10, 137050, Note_off_c, 9, 46, 64
10, 137280, Note_on_c, 9, 35, 98
10, 137280, Note_on_c, 9, 42, 109
10, 137290, Note_off_c, 9, 42, 64
10, 137290, Note_off_c, 9, 35, 64
10, 137520, Note_on_c, 9, 46, 109
10, 137530, Note_off_c, 9, 46, 64
10, 137760, Note_on_c, 9, 35, 100
10, 137760, Note_on_c, 9, 38, 108
10, 137760, Note_on_c, 9, 39, 94
10, 137760, Note_on_c, 9, 42, 109
10, 137760, Note_on_c, 9, 54, 84
10, 137770, Note_off_c, 9, 54, 64
10, 137770, Note_off_c, 9, 42, 64
10, 137770, Note_off_c, 9, 39, 64
10, 137770, Note_off_c, 9, 38, 64
10, 137770, Note_off_c, 9, 35, 64
10, 138000, Note_on_c, 9, 46, 109
10, 138010, Note_off_c, 9, 46, 64
10, 138240, Note_on_c, 9, 35, 98
10, 138240, Note_on_c, 9, 42, 109
10, 138250, Note_off_c, 9, 42, 64
10, 138250, Note_off_c, 9, 35, 64
10, 138480, Note_on_c, 9, 42, 84
10, 138490, Note_off_c, 9, 42, 64
10, 138720, Note_on_c, 9, 38, 107
10, 138720, Note_on_c, 9, 39, 94
10, 138720, Note_on_c, 9, 42, 109
10, 138720, Note_on_c, 9, 54, 82
10, 138730, Note_off_c, 9, 54, 64
10, 138730, Note_off_c, 9, 42, 64
10, 138730, Note_off_c, 9, 39, 64
10, 138730, Note_off_c, 9, 38, 64
10, 138960, Note_on_c, 9, 42, 87
10, 138970, Note_off_c, 9, 42, 64
10, 139200, Note_on_c, 9, 35, 98
10, 139200, Note_on_c, 9, 42, 109
10, 139210, Note_off_c, 9, 42, 64
10, 139210, Note_off_c, 9, 35, 64
10, 139440, Note_on_c, 9, 42, 88
10, 139450, Note_off_c, 9, 42, 64
10, 139680, Note_on_c, 9, 38, 108
10, 139680, Note_on_c, 9, 39, 94
10, 139680, Note_on_c, 9, 42, 109
10, 139680, Note_on_c, 9, 54, 84
10, 139690, Note_off_c, 9, 54, 64
10, 139690, Note_off_c, 9, 42, 64
10, 139690, Note_off_c, 9, 39, 64
10, 139690, Note_off_c, 9, 38, 64
10, 139920, Note_on_c, 9, 42, 87
10, 139930, Note_off_c, 9, 42, 64
10, 140160, Note_on_c, 9, 35, 98
10, 140160, Note_on_c, 9, 42, 109
10, 140170, Note_off_c, 9, 42, 64
10, 140170, Note_off_c, 9, 35, 64
10, 140400, Note_on_c, 9, 42, 84
10, 140410, Note_off_c, 9, 42, 64
10, 140640, Note_on_c, 9, 38, 107
10, 140640, Note_on_c, 9, 39, 94
10, 140640, Note_on_c, 9, 42, 109
10, 140640, Note_on_c, 9, 54, 83
10, 140650, Note_off_c, 9, 54, 64
10, 140650, Note_off_c, 9, 42, 64
10, 140650, Note_off_c, 9, 39, 64
10, 140650, Note_off_c, 9, 38, 64
10, 140880, Note_on_c, 9, 42, 87
10, 140890, Note_off_c, 9, 42, 64
10, 141120, Note_on_c, 9, 35, 98
10, 141120, Note_on_c, 9, 42, 109
10, 141130, Note_off_c, 9, 42, 64
10, 141130, Note_off_c, 9, 35, 64
10, 141360, Note_on_c, 9, 42, 88
10, 141370, Note_off_c, 9, 42, 64
10, 141600, Note_on_c, 9, 35, 100
10, 141600, Note_on_c, 9, 38, 108
10, 141600, Note_on_c, 9, 39, 94
10, 141600, Note_on_c, 9, 42, 109
10, 141600, Note_on_c, 9, 54, 83
10, 141610, Note_off_c, 9, 54, 64
10, 141610, Note_off_c, 9, 42, 64
10, 141610, Note_off_c, 9, 39, 64
10, 141610, Note_off_c, 9, 38, 64
10, 141610, Note_off_c, 9, 35, 64
10, 141840, Note_on_c, 9, 42, 87
10, 141850, Note_off_c, 9, 42, 64
10, 142080, Note_on_c, 9, 35, 98
10, 142080, Note_on_c, 9, 42, 109
10, 142090, Note_off_c, 9, 42, 64
10, 142090, Note_off_c, 9, 35, 64
10, 142320, Note_on_c, 9, 42, 84
10, 142330, Note_off_c, 9, 42, 64
10, 142560, Note_on_c, 9, 38, 107
10, 142560, Note_on_c, 9, 39, 94
10, 142560, Note_on_c, 9, 42, 109
10, 142560, Note_on_c, 9, 54, 83
10, 142570, Note_off_c, 9, 54, 64
10, 142570, Note_off_c, 9, 42, 64
10, 142570, Note_off_c, 9, 39, 64
10, 142570, Note_off_c, 9, 38, 64
10, 142800, Note_on_c, 9, 42, 87
10, 142810, Note_off_c, 9, 42, 64
10, 143040, Note_on_c, 9, 35, 98
10, 143040, Note_on_c, 9, 42, 109
10, 143050, Note_off_c, 9, 42, 64
10, 143050, Note_off_c, 9, 35, 64
10, 143280, Note_on_c, 9, 42, 88
10, 143290, Note_off_c, 9, 42, 64
10, 143520, Note_on_c, 9, 38, 108
10, 143520, Note_on_c, 9, 39, 94
10, 143520, Note_on_c, 9, 42, 109
10, 143520, Note_on_c, 9, 54, 83
10, 143530, Note_off_c, 9, 54, 64
10, 143530, Note_off_c, 9, 42, 64
10, 143530, Note_off_c, 9, 39, 64
10, 143530, Note_off_c, 9, 38, 64
10, 143760, Note_on_c, 9, 42, 87
10, 143770, Note_off_c, 9, 42, 64
10, 144000, Note_on_c, 9, 35, 98
10, 144000, Note_on_c, 9, 42, 109
10, 144010, Note_off_c, 9, 42, 64
10, 144010, Note_off_c, 9, 35, 64
10, 144240, Note_on_c, 9, 42, 84
10, 144250, Note_off_c, 9, 42, 64
10, 144480, Note_on_c, 9, 38, 107
10, 144480, Note_on_c, 9, 39, 94
10, 144480, Note_on_c, 9, 42, 109
10, 144480, Note_on_c, 9, 54, 82
10, 144490, Note_off_c, 9, 54, 64
10, 144490, Note_off_c, 9, 42, 64
10, 144490, Note_off_c, 9, 39, 64
10, 144490, Note_off_c, 9, 38, 64
10, 144720, Note_on_c, 9, 42, 87
10, 144730, Note_off_c, 9, 42, 64
10, 144960, Note_on_c, 9, 35, 98
10, 144960, Note_on_c, 9, 42, 109
10, 144970, Note_off_c, 9, 42, 64
10, 144970, Note_off_c, 9, 35, 64
10, 145200, Note_on_c, 9, 42, 88
10, 145210, Note_off_c, 9, 42, 64
10, 145440, Note_on_c, 9, 35, 100
10, 145440, Note_on_c, 9, 38, 108
10, 145440, Note_on_c, 9, 39, 94
10, 145440, Note_on_c, 9, 42, 109
10, 145440, Note_on_c, 9, 54, 84
10, 145450, Note_off_c, 9, 54, 64
10, 145450, Note_off_c, 9, 42, 64
10, 145450, Note_off_c, 9, 39, 64
10, 145450, Note_off_c, 9, 38, 64
10, 145450, Note_off_c, 9, 35, 64
10, 145680, Note_on_c, 9, 42, 87
10, 145690, Note_off_c, 9, 42, 64
10, 145920, Note_on_c, 9, 35, 98
10, 145920, Note_on_c, 9, 42, 109
10, 145930, Note_off_c, 9, 42, 64
10, 145930, Note_off_c, 9, 35, 64
10, 146160, Note_on_c, 9, 42, 84
10, 146170, Note_off_c, 9, 42, 64
10, 146400, Note_on_c, 9, 38, 107
10, 146400, Note_on_c, 9, 39, 94
10, 146400, Note_on_c, 9, 42, 109
10, 146400, Note_on_c, 9, 54, 84
10, 146410, Note_off_c, 9, 54, 64
10, 146410, Note_off_c, 9, 42, 64
10, 146410, Note_off_c, 9, 39, 64
10, 146410, Note_off_c, 9, 38, 64
10, 146640, Note_on_c, 9, 42, 87
10, 146650, Note_off_c, 9, 42, 64
10, 146880, Note_on_c, 9, 35, 98
10, 146880, Note_on_c, 9, 42, 109
10, 146890, Note_off_c, 9, 42, 64
10, 146890, Note_off_c, 9, 35, 64
10, 147120, Note_on_c, 9, 42, 88
10, 147130, Note_off_c, 9, 42, 64
10, 147360, Note_on_c, 9, 38, 108
10, 147360, Note_on_c, 9, 39, 94
10, 147360, Note_on_c, 9, 42, 109
10, 147360, Note_on_c, 9, 54, 83
10, 147370, Note_off_c, 9, 54, 64
10, 147370, Note_off_c, 9, 42, 64
10, 147370, Note_off_c, 9, 39, 64
10, 147370, Note_off_c, 9, 38, 64
10, 147600, Note_on_c, 9, 42, 87
10, 147610, Note_off_c, 9, 42, 64
10, 147840, Note_on_c, 9, 35, 98
10, 147840, Note_on_c, 9, 42, 109
10, 147850, Note_off_c, 9, 42, 64
10, 147850, Note_off_c, 9, 35, 64
10, 148080, Note_on_c, 9, 42, 84
10, 148090, Note_off_c, 9, 42, 64
10, 148320, Note_on_c, 9, 38, 107
10, 148320, Note_on_c, 9, 39, 94
10, 148320, Note_on_c, 9, 42, 109
10, 148320, Note_on_c, 9, 54, 84
10, 148330, Note_off_c, 9, 54, 64
10, 148330, Note_off_c, 9, 42, 64
10, 148330, Note_off_c, 9, 39, 64
10, 148330, Note_off_c, 9, 38, 64
10, 148560, Note_on_c, 9, 46, 109
10, 148570, Note_off_c, 9, 46, 64
10, 148800, Note_on_c, 9, 35, 98
10, 148800, Note_on_c, 9, 42, 109
10, 148810, Note_off_c, 9, 42, 64
10, 148810, Note_off_c, 9, 35, 64
10, 149040, Note_on_c, 9, 42, 88
10, 149050, Note_off_c, 9, 42, 64
10, 149280, Note_on_c, 9, 35, 100
10, 149280, Note_on_c, 9, 38, 108
10, 149280, Note_on_c, 9, 39, 94
10, 149280, Note_on_c, 9, 42, 109
10, 149280, Note_on_c, 9, 54, 83
10, 149290, Note_off_c, 9, 54, 64
10, 149290, Note_off_c, 9, 42, 64
10, 149290, Note_off_c, 9, 39, 64
10, 149290, Note_off_c, 9, 38, 64
10, 149290, Note_off_c, 9, 35, 64
10, 149520, Note_on_c, 9, 42, 87
10, 149530, Note_off_c, 9, 42, 64
10, 149760, Note_on_c, 9, 35, 98
10, 149760, Note_on_c, 9, 49, 70
10, 149770, Note_off_c, 9, 49, 64
10, 149770, Note_off_c, 9, 35, 64
10, 150000, Note_on_c, 9, 42, 84
10, 150010, Note_off_c, 9, 42, 64
10, 150240, Note_on_c, 9, 38, 107
10, 150240, Note_on_c, 9, 39, 94
10, 150240, Note_on_c, 9, 42, 109
10, 150250, Note_off_c, 9, 42, 64
10, 150250, Note_off_c, 9, 39, 64
10, 150250, Note_off_c, 9, 38, 64
10, 150480, Note_on_c, 9, 42, 87
10, 150490, Note_off_c, 9, 42, 64
10, 150720, Note_on_c, 9, 35, 98
10, 150720, Note_on_c, 9, 42, 109
10, 150730, Note_off_c, 9, 42, 64
10, 150730, Note_off_c, 9, 35, 64
10, 150960, Note_on_c, 9, 42, 88
10, 150970, Note_off_c, 9, 42, 64
10, 151200, Note_on_c, 9, 38, 108
10, 151200, Note_on_c, 9, 39, 94
10, 151200, Note_on_c, 9, 42, 109
10, 151200, Note_on_c, 9, 54, 83
10, 151210, Note_off_c, 9, 54, 64
10, 151210, Note_off_c, 9, 42, 64
10, 151210, Note_off_c, 9, 39, 64
10, 151210, Note_off_c, 9, 38, 64
10, 151440, Note_on_c, 9, 42, 87
10, 151450, Note_off_c, 9, 42, 64
10, 151680, Note_on_c, 9, 35, 98
10, 151680, Note_on_c, 9, 42, 109
10, 151690, Note_off_c, 9, 42, 64
10, 151690, Note_off_c, 9, 35, 64
10, 151920, Note_on_c, 9, 42, 84
10, 151930, Note_off_c, 9, 42, 64
10, 152160, Note_on_c, 9, 38, 107
10, 152160, Note_on_c, 9, 39, 94
10, 152160, Note_on_c, 9, 42, 109
10, 152170, Note_off_c, 9, 42, 64
10, 152170, Note_off_c, 9, 39, 64
10, 152170, Note_off_c, 9, 38, 64
10, 152400, Note_on_c, 9, 42, 87
10, 152410, Note_off_c, 9, 42, 64
10, 152640, Note_on_c, 9, 35, 98
10, 152640, Note_on_c, 9, 42, 109
10, 152650, Note_off_c, 9, 42, 64
10, 152650, Note_off_c, 9, 35, 64
10, 152880, Note_on_c, 9, 42, 88
10, 152890, Note_off_c, 9, 42, 64
10, 153120, Note_on_c, 9, 35, 100
10, 153120, Note_on_c, 9, 38, 108
10, 153120, Note_on_c, 9, 39, 94
10, 153120, Note_on_c, 9, 42, 109
10, 153120, Note_on_c, 9, 54, 82
10, 153130, Note_off_c, 9, 54, 64
10, 153130, Note_off_c, 9, 42, 64
10, 153130, Note_off_c, 9, 39, 64
10, 153130, Note_off_c, 9, 38, 64
10, 153130, Note_off_c, 9, 35, 64
10, 153360, Note_on_c, 9, 42, 87
10, 153370, Note_off_c, 9, 42, 64
10, 153600, Note_on_c, 9, 35, 98
10, 153600, Note_on_c, 9, 42, 109
10, 153610, Note_off_c, 9, 42, 64
10, 153610, Note_off_c, 9, 35, 64
10, 153840, Note_on_c, 9, 42, 84
10, 153850, Note_off_c, 9, 42, 64
10, 154080, Note_on_c, 9, 38, 107
10, 154080, Note_on_c, 9, 39, 94
10, 154080, Note_on_c, 9, 42, 109
10, 154090, Note_off_c, 9, 42, 64
10, 154090, Note_off_c, 9, 39, 64
10, 154090, Note_off_c, 9, 38, 64
10, 154320, Note_on_c, 9, 42, 87
10, 154330, Note_off_c, 9, 42, 64
10, 154560, Note_on_c, 9, 35, 98
10, 154560, Note_on_c, 9, 42, 109
10, 154570, Note_off_c, 9, 42, 64
10, 154570, Note_off_c, 9, 35, 64
10, 154800, Note_on_c, 9, 42, 88
10, 154810, Note_off_c, 9, 42, 64
10, 155040, Note_on_c, 9, 38, 108
10, 155040, Note_on_c, 9, 39, 94
10, 155040, Note_on_c, 9, 42, 109
10, 155040, Note_on_c, 9, 54, 84
10, 155050, Note_off_c, 9, 54, 64
10, 155050, Note_off_c, 9, 42, 64
10, 155050, Note_off_c, 9, 39, 64
10, 155050, Note_off_c, 9, 38, 64
10, 155280, Note_on_c, 9, 42, 87
10, 155290, Note_off_c, 9, 42, 64
10, 155520, Note_on_c, 9, 35, 98
10, 155520, Note_on_c, 9, 42, 109
10, 155530, Note_off_c, 9, 42, 64
10, 155530, Note_off_c, 9, 35, 64
10, 155760, Note_on_c, 9, 42, 84
10, 155770, Note_off_c, 9, 42, 64
10, 156000, Note_on_c, 9, 38, 107
10, 156000, Note_on_c, 9, 39, 94
10, 156000, Note_on_c, 9, 42, 109
10, 156010, Note_off_c, 9, 42, 64
10, 156010, Note_off_c, 9, 39, 64
10, 156010, Note_off_c, 9, 38, 64
10, 156240, Note_on_c, 9, 42, 87
10, 156250, Note_off_c, 9, 42, 64
10, 156480, Note_on_c, 9, 35, 98
10, 156480, Note_on_c, 9, 42, 109
10, 156490, Note_off_c, 9, 42, 64
10, 156490, Note_off_c, 9, 35, 64
10, 156720, Note_on_c, 9, 42, 88
10, 156730, Note_off_c, 9, 42, 64
10, 156960, Note_on_c, 9, 35, 100
10, 156960, Note_on_c, 9, 38, 108
10, 156960, Note_on_c, 9, 39, 94
10, 156960, Note_on_c, 9, 42, 109
10, 156960, Note_on_c, 9, 54, 83
10, 156970, Note_off_c, 9, 54, 64
10, 156970, Note_off_c, 9, 42, 64
10, 156970, Note_off_c, 9, 39, 64
10, 156970, Note_off_c, 9, 38, 64
10, 156970, Note_off_c, 9, 35, 64
10, 157200, Note_on_c, 9, 42, 87
10, 157210, Note_off_c, 9, 42, 64
10, 157440, Note_on_c, 9, 35, 98
10, 157440, Note_on_c, 9, 49, 70
10, 157450, Note_off_c, 9, 49, 64
10, 157450, Note_off_c, 9, 35, 64
10, 157680, Note_on_c, 9, 42, 84
10, 157690, Note_off_c, 9, 42, 64
10, 157920, Note_on_c, 9, 38, 107
10, 157920, Note_on_c, 9, 39, 94
10, 157920, Note_on_c, 9, 42, 109
10, 157930, Note_off_c, 9, 42, 64
10, 157930, Note_off_c, 9, 39, 64
10, 157930, Note_off_c, 9, 38, 64
10, 158160, Note_on_c, 9, 42, 87
10, 158170, Note_off_c, 9, 42, 64
10, 158400, Note_on_c, 9, 35, 98
10, 158400, Note_on_c, 9, 42, 109
10, 158410, Note_off_c, 9, 42, 64
10, 158410, Note_off_c, 9, 35, 64
10, 158640, Note_on_c, 9, 42, 88
10, 158650, Note_off_c, 9, 42, 64
10, 158880, Note_on_c, 9, 38, 108
10, 158880, Note_on_c, 9, 39, 94
10, 158880, Note_on_c, 9, 42, 109
10, 158880, Note_on_c, 9, 54, 84
10, 158890, Note_off_c, 9, 54, 64
10, 158890, Note_off_c, 9, 42, 64
10, 158890, Note_off_c, 9, 39, 64
10, 158890, Note_off_c, 9, 38, 64
10, 159120, Note_on_c, 9, 42, 87
10, 159130, Note_off_c, 9, 42, 64
10, 159360, Note_on_c, 9, 35, 98
10, 159360, Note_on_c, 9, 42, 109
10, 159370, Note_off_c, 9, 42, 64
10, 159370, Note_off_c, 9, 35, 64
10, 159600, Note_on_c, 9, 42, 84
10, 159610, Note_off_c, 9, 42, 64
10, 159840, Note_on_c, 9, 38, 107
10, 159840, Note_on_c, 9, 39, 94
10, 159840, Note_on_c, 9, 42, 109
10, 159850, Note_off_c, 9, 42, 64
10, 159850, Note_off_c, 9, 39, 64
10, 159850, Note_off_c, 9, 38, 64
10, 160080, Note_on_c, 9, 42, 87
10, 160090, Note_off_c, 9, 42, 64
10, 160320, Note_on_c, 9, 35, 98
10, 160320, Note_on_c, 9, 42, 109
10, 160330, Note_off_c, 9, 42, 64
10, 160330, Note_off_c, 9, 35, 64
10, 160560, Note_on_c, 9, 42, 88
10, 160570, Note_off_c, 9, 42, 64
10, 160800, Note_on_c, 9, 35, 100
10, 160800, Note_on_c, 9, 38, 108
10, 160800, Note_on_c, 9, 39, 94
10, 160800, Note_on_c, 9, 42, 109
10, 160800, Note_on_c, 9, 54, 83
10, 160810, Note_off_c, 9, 54, 64
10, 160810, Note_off_c, 9, 42, 64
10, 160810, Note_off_c, 9, 39, 64
10, 160810, Note_off_c, 9, 38, 64
10, 160810, Note_off_c, 9, 35, 64
10, 161040, Note_on_c, 9, 42, 87
10, 161050, Note_off_c, 9, 42, 64
10, 161280, Note_on_c, 9, 35, 98
10, 161280, Note_on_c, 9, 42, 109
10, 161290, Note_off_c, 9, 42, 64
10, 161290, Note_off_c, 9, 35, 64
10, 161520, Note_on_c, 9, 42, 84
10, 161530, Note_off_c, 9, 42, 64
10, 161760, Note_on_c, 9, 38, 107
10, 161760, Note_on_c, 9, 39, 94
10, 161760, Note_on_c, 9, 42, 109
10, 161770, Note_off_c, 9, 42, 64
10, 161770, Note_off_c, 9, 39, 64
10, 161770, Note_off_c, 9, 38, 64
10, 162000, Note_on_c, 9, 42, 87
10, 162010, Note_off_c, 9, 42, 64
10, 162240, Note_on_c, 9, 35, 98
10, 162240, Note_on_c, 9, 42, 109
10, 162250, Note_off_c, 9, 42, 64
10, 162250, Note_off_c, 9, 35, 64
10, 162480, Note_on_c, 9, 42, 88
10, 162490, Note_off_c, 9, 42, 64
10, 162720, Note_on_c, 9, 38, 108
10, 162720, Note_on_c, 9, 39, 94
10, 162720, Note_on_c, 9, 42, 109
10, 162720, Note_on_c, 9, 54, 83
10, 162730, Note_off_c, 9, 54, 64
10, 162730, Note_off_c, 9, 42, 64
10, 162730, Note_off_c, 9, 39, 64
10, 162730, Note_off_c, 9, 38, 64
10, 162960, Note_on_c, 9, 42, 87
10, 162970, Note_off_c, 9, 42, 64
10, 163200, Note_on_c, 9, 35, 98
10, 163200, Note_on_c, 9, 42, 109
10, 163210, Note_off_c, 9, 42, 64
10, 163210, Note_off_c, 9, 35, 64
10, 163440, Note_on_c, 9, 42, 84
10, 163450, Note_off_c, 9, 42, 64
10, 163680, Note_on_c, 9, 38, 107
10, 163680, Note_on_c, 9, 39, 94
10, 163680, Note_on_c, 9, 42, 109
10, 163690, Note_off_c, 9, 42, 64
10, 163690, Note_off_c, 9, 39, 64
10, 163690, Note_off_c, 9, 38, 64
10, 163920, Note_on_c, 9, 42, 87
10, 163930, Note_off_c, 9, 42, 64
10, 164160, Note_on_c, 9, 35, 98
10, 164160, Note_on_c, 9, 42, 109
10, 164170, Note_off_c, 9, 42, 64
10, 164170, Note_off_c, 9, 35, 64
10, 164400, Note_on_c, 9, 42, 88
10, 164410, Note_off_c, 9, 42, 64
10, 164640, Note_on_c, 9, 35, 100
10, 164640, Note_on_c, 9, 38, 108
10, 164640, Note_on_c, 9, 39, 94
10, 164640, Note_on_c, 9, 42, 109
10, 164640, Note_on_c, 9, 54, 83
10, 164650, Note_off_c, 9, 54, 64
10, 164650, Note_off_c, 9, 42, 64
10, 164650, Note_off_c, 9, 39, 64
10, 164650, Note_off_c, 9, 38, 64
10, 164650, Note_off_c, 9, 35, 64
10, 164880, Note_on_c, 9, 42, 87
10, 164890, Note_off_c, 9, 42, 64
10, 165120, Note_on_c, 9, 35, 98
10, 165120, Note_on_c, 9, 51, 121
10, 165130, Note_off_c, 9, 51, 64
10, 165130, Note_off_c, 9, 35, 64
10, 165360, Note_on_c, 9, 42, 84
10, 165370, Note_off_c, 9, 42, 64
10, 165600, Note_on_c, 9, 38, 107
10, 165600, Note_on_c, 9, 39, 94
10, 165600, Note_on_c, 9, 42, 109
10, 165610, Note_off_c, 9, 42, 64
10, 165610, Note_off_c, 9, 39, 64
10, 165610, Note_off_c, 9, 38, 64
10, 165840, Note_on_c, 9, 42, 87
10, 165850, Note_off_c, 9, 42, 64
10, 166080, Note_on_c, 9, 35, 98
10, 166080, Note_on_c, 9, 42, 109
10, 166090, Note_off_c, 9, 42, 64
10, 166090, Note_off_c, 9, 35, 64
10, 166320, Note_on_c, 9, 42, 88
10, 166330, Note_off_c, 9, 42, 64
10, 166560, Note_on_c, 9, 38, 108
10, 166560, Note_on_c, 9, 39, 94
10, 166560, Note_on_c, 9, 42, 109
10, 166560, Note_on_c, 9, 54, 83
10, 166570, Note_off_c, 9, 54, 64
10, 166570, Note_off_c, 9, 42, 64
10, 166570, Note_off_c, 9, 39, 64
10, 166570, Note_off_c, 9, 38, 64
10, 166800, Note_on_c, 9, 42, 87
10, 166810, Note_off_c, 9, 42, 64
10, 167040, Note_on_c, 9, 35, 98
10, 167040, Note_on_c, 9, 42, 109
10, 167050, Note_off_c, 9, 42, 64
10, 167050, Note_off_c, 9, 35, 64
10, 167280, Note_on_c, 9, 42, 84
10, 167290, Note_off_c, 9, 42, 64
10, 167520, Note_on_c, 9, 38, 107
10, 167520, Note_on_c, 9, 39, 94
10, 167520, Note_on_c, 9, 42, 109
10, 167530, Note_off_c, 9, 42, 64
10, 167530, Note_off_c, 9, 39, 64
10, 167530, Note_off_c, 9, 38, 64
10, 167760, Note_on_c, 9, 42, 87
10, 167770, Note_off_c, 9, 42, 64
10, 168000, Note_on_c, 9, 35, 98
10, 168000, Note_on_c, 9, 42, 109
10, 168010, Note_off_c, 9, 42, 64
10, 168010, Note_off_c, 9, 35, 64
10, 168240, Note_on_c, 9, 42, 88
10, 168250, Note_off_c, 9, 42, 64
10, 168480, Note_on_c, 9, 35, 100
10, 168480, Note_on_c, 9, 38, 108
10, 168480, Note_on_c, 9, 39, 94
10, 168480, Note_on_c, 9, 42, 109
10, 168480, Note_on_c, 9, 54, 82
10, 168490, Note_off_c, 9, 54, 64
10, 168490, Note_off_c, 9, 42, 64
10, 168490, Note_off_c, 9, 39, 64
10, 168490, Note_off_c, 9, 38, 64
10, 168490, Note_off_c, 9, 35, 64
10, 168720, Note_on_c, 9, 42, 87
10, 168730, Note_off_c, 9, 42, 64
10, 168960, Note_on_c, 9, 35, 98
10, 168960, Note_on_c, 9, 42, 109
10, 168970, Note_off_c, 9, 42, 64
10, 168970, Note_off_c, 9, 35, 64
10, 169200, Note_on_c, 9, 42, 84
10, 169210, Note_off_c, 9, 42, 64
10, 169440, Note_on_c, 9, 38, 107
10, 169440, Note_on_c, 9, 39, 94
10, 169440, Note_on_c, 9, 42, 109
10, 169450, Note_off_c, 9, 42, 64
10, 169450, Note_off_c, 9, 39, 64
10, 169450, Note_off_c, 9, 38, 64
10, 169680, Note_on_c, 9, 42, 87
10, 169690, Note_off_c, 9, 42, 64
10, 169920, Note_on_c, 9, 35, 98
10, 169920, Note_on_c, 9, 42, 109
10, 169930, Note_off_c, 9, 42, 64
10, 169930, Note_off_c, 9, 35, 64
10, 170160, Note_on_c, 9, 42, 88
10, 170170, Note_off_c, 9, 42, 64
10, 170400, Note_on_c, 9, 38, 108
10, 170400, Note_on_c, 9, 39, 94
10, 170400, Note_on_c, 9, 42, 109
10, 170400, Note_on_c, 9, 54, 84
10, 170410, Note_off_c, 9, 54, 64
10, 170410, Note_off_c, 9, 42, 64
10, 170410, Note_off_c, 9, 39, 64
10, 170410, Note_off_c, 9, 38, 64
10, 170640, Note_on_c, 9, 42, 87
10, 170650, Note_off_c, 9, 42, 64
10, 170880, Note_on_c, 9, 35, 98
10, 170880, Note_on_c, 9, 42, 109
10, 170890, Note_off_c, 9, 42, 64
10, 170890, Note_off_c, 9, 35, 64
10, 171120, Note_on_c, 9, 42, 84
10, 171130, Note_off_c, 9, 42, 64
10, 171360, Note_on_c, 9, 38, 107
10, 171360, Note_on_c, 9, 39, 94
10, 171360, Note_on_c, 9, 42, 109
10, 171370, Note_off_c, 9, 42, 64
10, 171370, Note_off_c, 9, 39, 64
10, 171370, Note_off_c, 9, 38, 64
10, 171600, Note_on_c, 9, 42, 87
10, 171610, Note_off_c, 9, 42, 64
10, 171840, Note_on_c, 9, 35, 98
10, 171840, Note_on_c, 9, 42, 109
10, 171850, Note_off_c, 9, 42, 64
10, 171850, Note_off_c, 9, 35, 64
10, 172080, Note_on_c, 9, 42, 88
10, 172090, Note_off_c, 9, 42, 64
10, 172320, Note_on_c, 9, 35, 100
10, 172320, Note_on_c, 9, 38, 108
10, 172320, Note_on_c, 9, 39, 94
10, 172320, Note_on_c, 9, 42, 109
10, 172320, Note_on_c, 9, 54, 83
10, 172330, Note_off_c, 9, 54, 64
10, 172330, Note_off_c, 9, 42, 64
10, 172330, Note_off_c, 9, 39, 64
10, 172330, Note_off_c, 9, 38, 64
10, 172330, Note_off_c, 9, 35, 64
10, 172560, Note_on_c, 9, 42, 87
10, 172570, Note_off_c, 9, 42, 64
10, 172680, Note_on_c, 9, 38, 103
10, 172690, Note_off_c, 9, 38, 64
10, 172800, Note_on_c, 9, 35, 98
10, 172800, Note_on_c, 9, 49, 70
10, 172810, Note_off_c, 9, 49, 64
10, 172810, Note_off_c, 9, 35, 64
10, 173040, Note_on_c, 9, 42, 84
10, 173050, Note_off_c, 9, 42, 64
10, 173280, Note_on_c, 9, 38, 107
10, 173280, Note_on_c, 9, 39, 94
10, 173280, Note_on_c, 9, 42, 109
10, 173290, Note_off_c, 9, 42, 64
10, 173290, Note_off_c, 9, 39, 64
10, 173290, Note_off_c, 9, 38, 64
10, 173520, Note_on_c, 9, 42, 87
10, 173530, Note_off_c, 9, 42, 64
10, 173760, Note_on_c, 9, 35, 98
10, 173760, Note_on_c, 9, 42, 109
10, 173770, Note_off_c, 9, 42, 64
10, 173770, Note_off_c, 9, 35, 64
10, 174000, Note_on_c, 9, 42, 88
10, 174010, Note_off_c, 9, 42, 64
10, 174240, Note_on_c, 9, 38, 108
10, 174240, Note_on_c, 9, 39, 94
10, 174240, Note_on_c, 9, 42, 109
10, 174240, Note_on_c, 9, 54, 84
10, 174250, Note_off_c, 9, 54, 64
10, 174250, Note_off_c, 9, 42, 64
10, 174250, Note_off_c, 9, 39, 64
10, 174250, Note_off_c, 9, 38, 64
10, 174480, Note_on_c, 9, 42, 87
10, 174490, Note_off_c, 9, 42, 64
10, 174720, Note_on_c, 9, 35, 98
10, 174720, Note_on_c, 9, 42, 109
10, 174730, Note_off_c, 9, 42, 64
10, 174730, Note_off_c, 9, 35, 64
10, 174960, Note_on_c, 9, 42, 84
10, 174970, Note_off_c, 9, 42, 64
10, 175200, Note_on_c, 9, 38, 107
10, 175200, Note_on_c, 9, 39, 94
10, 175200, Note_on_c, 9, 42, 109
10, 175210, Note_off_c, 9, 42, 64
10, 175210, Note_off_c, 9, 39, 64
10, 175210, Note_off_c, 9, 38, 64
10, 175440, Note_on_c, 9, 42, 87
10, 175450, Note_off_c, 9, 42, 64
10, 175680, Note_on_c, 9, 35, 98
10, 175680, Note_on_c, 9, 46, 109
10, 175690, Note_off_c, 9, 46, 64
10, 175690, Note_off_c, 9, 35, 64
10, 175920, Note_on_c, 9, 42, 106
10, 175930, Note_off_c, 9, 42, 64
10, 176160, Note_on_c, 9, 35, 100
10, 176160, Note_on_c, 9, 38, 108
10, 176160, Note_on_c, 9, 39, 94
10, 176160, Note_on_c, 9, 46, 109
10, 176160, Note_on_c, 9, 54, 83
10, 176170, Note_off_c, 9, 54, 64
10, 176170, Note_off_c, 9, 46, 64
10, 176170, Note_off_c, 9, 39, 64
10, 176170, Note_off_c, 9, 38, 64
10, 176170, Note_off_c, 9, 35, 64
10, 176400, Note_on_c, 9, 42, 109
10, 176410, Note_off_c, 9, 42, 64
10, 176640, Note_on_c, 9, 35, 98
10, 176640, Note_on_c, 9, 49, 70
10, 176650, Note_off_c, 9, 49, 64
10, 176650, Note_off_c, 9, 35, 64
10, 176880, Note_on_c, 9, 42, 84
10, 176890, Note_off_c, 9, 42, 64
10, 177120, Note_on_c, 9, 38, 107
10, 177120, Note_on_c, 9, 39, 94
10, 177120, Note_on_c, 9, 42, 109
10, 177130, Note_off_c, 9, 42, 64
10, 177130, Note_off_c, 9, 39, 64
10, 177130, Note_off_c, 9, 38, 64
10, 177360, Note_on_c, 9, 42, 87
10, 177370, Note_off_c, 9, 42, 64
10, 177600, Note_on_c, 9, 35, 98
10, 177600, Note_on_c, 9, 42, 109
10, 177610, Note_off_c, 9, 42, 64
10, 177610, Note_off_c, 9, 35, 64
10, 177840, Note_on_c, 9, 42, 88
10, 177850, Note_off_c, 9, 42, 64
10, 178080, Note_on_c, 9, 38, 108
10, 178080, Note_on_c, 9, 39, 94
10, 178080, Note_on_c, 9, 42, 109
10, 178080, Note_on_c, 9, 54, 83
10, 178090, Note_off_c, 9, 54, 64
10, 178090, Note_off_c, 9, 42, 64
10, 178090, Note_off_c, 9, 39, 64
10, 178090, Note_off_c, 9, 38, 64
10, 178320, Note_on_c, 9, 42, 87
10, 178330, Note_off_c, 9, 42, 64
10, 178560, Note_on_c, 9, 35, 98
10, 178560, Note_on_c, 9, 42, 109
10, 178570, Note_off_c, 9, 42, 64
10, 178570, Note_off_c, 9, 35, 64
10, 178800, Note_on_c, 9, 42, 84
10, 178810, Note_off_c, 9, 42, 64
10, 179040, Note_on_c, 9, 38, 107
10, 179040, Note_on_c, 9, 39, 94
10, 179040, Note_on_c, 9, 42, 109
10, 179050, Note_off_c, 9, 42, 64
10, 179050, Note_off_c, 9, 39, 64
10, 179050, Note_off_c, 9, 38, 64
10, 179280, Note_on_c, 9, 42, 87
10, 179290, Note_off_c, 9, 42, 64
10, 179520, Note_on_c, 9, 35, 98
10, 179520, Note_on_c, 9, 42, 109
10, 179530, Note_off_c, 9, 42, 64
10, 179530, Note_off_c, 9, 35, 64
10, 179760, Note_on_c, 9, 42, 88
10, 179770, Note_off_c, 9, 42, 64
10, 180000, Note_on_c, 9, 35, 100
10, 180000, Note_on_c, 9, 38, 108
10, 180000, Note_on_c, 9, 39, 94
10, 180000, Note_on_c, 9, 42, 109
10, 180000, Note_on_c, 9, 54, 83
10, 180010, Note_off_c, 9, 54, 64
10, 180010, Note_off_c, 9, 42, 64
10, 180010, Note_off_c, 9, 39, 64
10, 180010, Note_off_c, 9, 38, 64
10, 180010, Note_off_c, 9, 35, 64
10, 180240, Note_on_c, 9, 42, 87
10, 180250, Note_off_c, 9, 42, 64
10, 180480, Note_on_c, 9, 35, 98
10, 180480, Note_on_c, 9, 49, 70
10, 180490, Note_off_c, 9, 49, 64
10, 180490, Note_off_c, 9, 35, 64
10, 180720, Note_on_c, 9, 42, 84
10, 180730, Note_off_c, 9, 42, 64
10, 180960, Note_on_c, 9, 38, 107
10, 180960, Note_on_c, 9, 39, 94
10, 180960, Note_on_c, 9, 42, 109
10, 180960, Note_on_c, 9, 54, 84
10, 180970, Note_off_c, 9, 54, 64
10, 180970, Note_off_c, 9, 42, 64
10, 180970, Note_off_c, 9, 39, 64
10, 180970, Note_off_c, 9, 38, 64
10, 181200, Note_on_c, 9, 42, 87
10, 181210, Note_off_c, 9, 42, 64
10, 181440, Note_on_c, 9, 35, 98
10, 181440, Note_on_c, 9, 42, 109
10, 181450, Note_off_c, 9, 42, 64
10, 181450, Note_off_c, 9, 35, 64
10, 181680, Note_on_c, 9, 42, 88
10, 181690, Note_off_c, 9, 42, 64
10, 181920, Note_on_c, 9, 38, 108
10, 181920, Note_on_c, 9, 39, 94
10, 181920, Note_on_c, 9, 42, 109
10, 181920, Note_on_c, 9, 54, 82
10, 181930, Note_off_c, 9, 54, 64
10, 181930, Note_off_c, 9, 42, 64
10, 181930, Note_off_c, 9, 39, 64
10, 181930, Note_off_c, 9, 38, 64
10, 182160, Note_on_c, 9, 42, 87
10, 182170, Note_off_c, 9, 42, 64
10, 182400, Note_on_c, 9, 35, 98
10, 182400, Note_on_c, 9, 42, 109
10, 182410, Note_off_c, 9, 42, 64
10, 182410, Note_off_c, 9, 35, 64
10, 182640, Note_on_c, 9, 42, 84
10, 182650, Note_off_c, 9, 42, 64
10, 182880, Note_on_c, 9, 38, 107
10, 182880, Note_on_c, 9, 39, 94
10, 182880, Note_on_c, 9, 42, 109
10, 182880, Note_on_c, 9, 54, 84
10, 182890, Note_off_c, 9, 54, 64
10, 182890, Note_off_c, 9, 42, 64
10, 182890, Note_off_c, 9, 39, 64
10, 182890, Note_off_c, 9, 38, 64
10, 183120, Note_on_c, 9, 42, 87
10, 183130, Note_off_c, 9, 42, 64
10, 183360, Note_on_c, 9, 35, 98
10, 183360, Note_on_c, 9, 42, 109
10, 183370, Note_off_c, 9, 42, 64
10, 183370, Note_off_c, 9, 35, 64
10, 183600, Note_on_c, 9, 42, 88
10, 183610, Note_off_c, 9, 42, 64
10, 183840, Note_on_c, 9, 35, 100
10, 183840, Note_on_c, 9, 38, 108
10, 183840, Note_on_c, 9, 39, 94
10, 183840, Note_on_c, 9, 42, 109
10, 183840, Note_on_c, 9, 54, 84
10, 183850, Note_off_c, 9, 54, 64
10, 183850, Note_off_c, 9, 42, 64
10, 183850, Note_off_c, 9, 39, 64
10, 183850, Note_off_c, 9, 38, 64
10, 183850, Note_off_c, 9, 35, 64
10, 184080, Note_on_c, 9, 42, 87
10, 184090, Note_off_c, 9, 42, 64
10, 184320, Note_on_c, 9, 35, 98
10, 184320, Note_on_c, 9, 42, 109
10, 184330, Note_off_c, 9, 42, 64
10, 184330, Note_off_c, 9, 35, 64
10, 184560, Note_on_c, 9, 42, 84
10, 184570, Note_off_c, 9, 42, 64
10, 184800, Note_on_c, 9, 38, 107
10, 184800, Note_on_c, 9, 39, 94
10, 184800, Note_on_c, 9, 42, 109
10, 184800, Note_on_c, 9, 54, 82
10, 184810, Note_off_c, 9, 54, 64
10, 184810, Note_off_c, 9, 42, 64
10, 184810, Note_off_c, 9, 39, 64
10, 184810, Note_off_c, 9, 38, 64
10, 185040, Note_on_c, 9, 42, 87
10, 185050, Note_off_c, 9, 42, 64
10, 185280, Note_on_c, 9, 35, 98
10, 185280, Note_on_c, 9, 42, 109
10, 185290, Note_off_c, 9, 42, 64
10, 185290, Note_off_c, 9, 35, 64
10, 185520, Note_on_c, 9, 42, 88
10, 185530, Note_off_c, 9, 42, 64
10, 185760, Note_on_c, 9, 38, 108
10, 185760, Note_on_c, 9, 39, 94
10, 185760, Note_on_c, 9, 42, 109
10, 185760, Note_on_c, 9, 54, 84
10, 185770, Note_off_c, 9, 54, 64
10, 185770, Note_off_c, 9, 42, 64
10, 185770, Note_off_c, 9, 39, 64
10, 185770, Note_off_c, 9, 38, 64
10, 186000, Note_on_c, 9, 42, 87
10, 186010, Note_off_c, 9, 42, 64
10, 186240, Note_on_c, 9, 35, 98
10, 186240, Note_on_c, 9, 42, 109
10, 186250, Note_off_c, 9, 42, 64
10, 186250, Note_off_c, 9, 35, 64
10, 186480, Note_on_c, 9, 42, 84
10, 186490, Note_off_c, 9, 42, 64
10, 186720, Note_on_c, 9, 38, 107
10, 186720, Note_on_c, 9, 39, 94
10, 186720, Note_on_c, 9, 42, 109
10, 186720, Note_on_c, 9, 54, 83
10, 186730, Note_off_c, 9, 54, 64
10, 186730, Note_off_c, 9, 42, 64
10, 186730, Note_off_c, 9, 39, 64
10, 186730, Note_off_c, 9, 38, 64
10, 186960, Note_on_c, 9, 42, 87
10, 186970, Note_off_c, 9, 42, 64
10, 187200, Note_on_c, 9, 35, 98
10, 187200, Note_on_c, 9, 42, 109
10, 187210, Note_off_c, 9, 42, 64
10, 187210, Note_off_c, 9, 35, 64
10, 187440, Note_on_c, 9, 42, 88
10, 187450, Note_off_c, 9, 42, 64
10, 187680, Note_on_c, 9, 35, 100
10, 187680, Note_on_c, 9, 38, 108
10, 187680, Note_on_c, 9, 39, 94
10, 187680, Note_on_c, 9, 42, 109
10, 187680, Note_on_c, 9, 54, 83
10, 187690, Note_off_c, 9, 54, 64
10, 187690, Note_off_c, 9, 42, 64
10, 187690, Note_off_c, 9, 39, 64
10, 187690, Note_off_c, 9, 38, 64
10, 187690, Note_off_c, 9, 35, 64
10, 187920, Note_on_c, 9, 38, 102
10, 187920, Note_on_c, 9, 42, 87
10, 187930, Note_off_c, 9, 42, 64
10, 187930, Note_off_c, 9, 38, 64
10, 188040, Note_on_c, 9, 38, 102
10, 188050, Note_off_c, 9, 38, 64
10, 188160, Note_on_c, 9, 35, 98
10, 188160, Note_on_c, 9, 49, 82
10, 188170, Note_off_c, 9, 49, 64
10, 188170, Note_off_c, 9, 35, 64
10, 188400, Note_on_c, 9, 42, 84
10, 188410, Note_off_c, 9, 42, 64
10, 188640, Note_on_c, 9, 38, 107
10, 188640, Note_on_c, 9, 39, 94
10, 188640, Note_on_c, 9, 42, 109
10, 188640, Note_on_c, 9, 54, 83
10, 188650, Note_off_c, 9, 54, 64
10, 188650, Note_off_c, 9, 42, 64
10, 188650, Note_off_c, 9, 39, 64
10, 188650, Note_off_c, 9, 38, 64
10, 188880, Note_on_c, 9, 42, 87
10, 188890, Note_off_c, 9, 42, 64
10, 189120, Note_on_c, 9, 35, 98
10, 189120, Note_on_c, 9, 42, 109
10, 189130, Note_off_c, 9, 42, 64
10, 189130, Note_off_c, 9, 35, 64
10, 189360, Note_on_c, 9, 42, 88
10, 189370, Note_off_c, 9, 42, 64
10, 189600, Note_on_c, 9, 38, 108
10, 189600, Note_on_c, 9, 39, 94
10, 189600, Note_on_c, 9, 42, 109
10, 189600, Note_on_c, 9, 54, 83
10, 189610, Note_off_c, 9, 54, 64
10, 189610, Note_off_c, 9, 42, 64
10, 189610, Note_off_c, 9, 39, 64
10, 189610, Note_off_c, 9, 38, 64
10, 189840, Note_on_c, 9, 42, 87
10, 189850, Note_off_c, 9, 42, 64
10, 190080, Note_on_c, 9, 35, 98
10, 190080, Note_on_c, 9, 42, 109
10, 190090, Note_off_c, 9, 42, 64
10, 190090, Note_off_c, 9, 35, 64
10, 190320, Note_on_c, 9, 42, 84
10, 190330, Note_off_c, 9, 42, 64
10, 190560, Note_on_c, 9, 38, 107
10, 190560, Note_on_c, 9, 39, 94
10, 190560, Note_on_c, 9, 42, 109
10, 190560, Note_on_c, 9, 54, 82
10, 190570, Note_off_c, 9, 54, 64
10, 190570, Note_off_c, 9, 42, 64
10, 190570, Note_off_c, 9, 39, 64
10, 190570, Note_off_c, 9, 38, 64
10, 190800, Note_on_c, 9, 42, 87
10, 190810, Note_off_c, 9, 42, 64
10, 191040, Note_on_c, 9, 35, 98
10, 191040, Note_on_c, 9, 42, 109
10, 191050, Note_off_c, 9, 42, 64
10, 191050, Note_off_c, 9, 35, 64
10, 191280, Note_on_c, 9, 42, 88
10, 191290, Note_off_c, 9, 42, 64
10, 191520, Note_on_c, 9, 35, 100
10, 191520, Note_on_c, 9, 38, 108
10, 191520, Note_on_c, 9, 39, 94
10, 191520, Note_on_c, 9, 42, 109
10, 191520, Note_on_c, 9, 54, 84
10, 191530, Note_off_c, 9, 54, 64
10, 191530, Note_off_c, 9, 42, 64
10, 191530, Note_off_c, 9, 39, 64
10, 191530, Note_off_c, 9, 38, 64
10, 191530, Note_off_c, 9, 35, 64
10, 191760, Note_on_c, 9, 42, 87
10, 191770, Note_off_c, 9, 42, 64
10, 192000, Note_on_c, 9, 35, 98
10, 192000, Note_on_c, 9, 42, 109
10, 192010, Note_off_c, 9, 42, 64
10, 192010, Note_off_c, 9, 35, 64
10, 192240, Note_on_c, 9, 42, 84
10, 192250, Note_off_c, 9, 42, 64
10, 192480, Note_on_c, 9, 38, 107
10, 192480, Note_on_c, 9, 39, 94
10, 192480, Note_on_c, 9, 42, 109
10, 192480, Note_on_c, 9, 54, 84
10, 192490, Note_off_c, 9, 54, 64
10, 192490, Note_off_c, 9, 42, 64
10, 192490, Note_off_c, 9, 39, 64
10, 192490, Note_off_c, 9, 38, 64
10, 192720, Note_on_c, 9, 42, 87
10, 192730, Note_off_c, 9, 42, 64
10, 192960, Note_on_c, 9, 35, 98
10, 192960, Note_on_c, 9, 42, 109
10, 192970, Note_off_c, 9, 42, 64
10, 192970, Note_off_c, 9, 35, 64
10, 193200, Note_on_c, 9, 42, 88
10, 193210, Note_off_c, 9, 42, 64
10, 193440, Note_on_c, 9, 38, 108
10, 193440, Note_on_c, 9, 39, 94
10, 193440, Note_on_c, 9, 42, 109
10, 193440, Note_on_c, 9, 54, 83
10, 193450, Note_off_c, 9, 54, 64
10, 193450, Note_off_c, 9, 42, 64
10, 193450, Note_off_c, 9, 39, 64
10, 193450, Note_off_c, 9, 38, 64
10, 193680, Note_on_c, 9, 42, 87
10, 193690, Note_off_c, 9, 42, 64
10, 193920, Note_on_c, 9, 35, 98
10, 193920, Note_on_c, 9, 42, 109
10, 193930, Note_off_c, 9, 42, 64
10, 193930, Note_off_c, 9, 35, 64
10, 194160, Note_on_c, 9, 42, 84
10, 194170, Note_off_c, 9, 42, 64
10, 194400, Note_on_c, 9, 38, 107
10, 194400, Note_on_c, 9, 39, 94
10, 194400, Note_on_c, 9, 42, 109
10, 194400, Note_on_c, 9, 54, 84
10, 194410, Note_off_c, 9, 54, 64
10, 194410, Note_off_c, 9, 42, 64
10, 194410, Note_off_c, 9, 39, 64
10, 194410, Note_off_c, 9, 38, 64
10, 194640, Note_on_c, 9, 42, 87
10, 194650, Note_off_c, 9, 42, 64
10, 194880, Note_on_c, 9, 35, 98
10, 194880, Note_on_c, 9, 46, 109
10, 194890, Note_off_c, 9, 46, 64
10, 194890, Note_off_c, 9, 35, 64
10, 195120, Note_on_c, 9, 42, 109
10, 195130, Note_off_c, 9, 42, 64
10, 195360, Note_on_c, 9, 35, 100
10, 195360, Note_on_c, 9, 38, 108
10, 195360, Note_on_c, 9, 39, 94
10, 195360, Note_on_c, 9, 46, 109
10, 195360, Note_on_c, 9, 54, 83
10, 195370, Note_off_c, 9, 54, 64
10, 195370, Note_off_c, 9, 46, 64
10, 195370, Note_off_c, 9, 39, 64
10, 195370, Note_off_c, 9, 38, 64
10, 195370, Note_off_c, 9, 35, 64
10, 195600, Note_on_c, 9, 42, 109
10, 195610, Note_off_c, 9, 42, 64
10, 195840, Note_on_c, 9, 35, 98
10, 195840, Note_on_c, 9, 49, 70
10, 195850, Note_off_c, 9, 49, 64
10, 195850, Note_off_c, 9, 35, 64
10, 196080, Note_on_c, 9, 42, 84
10, 196090, Note_off_c, 9, 42, 64
10, 196320, Note_on_c, 9, 38, 107
10, 196320, Note_on_c, 9, 39, 94
10, 196320, Note_on_c, 9, 42, 109
10, 196320, Note_on_c, 9, 54, 84
10, 196330, Note_off_c, 9, 54, 64
10, 196330, Note_off_c, 9, 42, 64
10, 196330, Note_off_c, 9, 39, 64
10, 196330, Note_off_c, 9, 38, 64
10, 196560, Note_on_c, 9, 42, 87
10, 196570, Note_off_c, 9, 42, 64
10, 196800, Note_on_c, 9, 35, 98
10, 196800, Note_on_c, 9, 42, 109
10, 196810, Note_off_c, 9, 42, 64
10, 196810, Note_off_c, 9, 35, 64
10, 197040, Note_on_c, 9, 42, 88
10, 197050, Note_off_c, 9, 42, 64
10, 197280, Note_on_c, 9, 38, 108
10, 197280, Note_on_c, 9, 39, 94
10, 197280, Note_on_c, 9, 42, 109
10, 197280, Note_on_c, 9, 54, 82
10, 197290, Note_off_c, 9, 54, 64
10, 197290, Note_off_c, 9, 42, 64
10, 197290, Note_off_c, 9, 39, 64
10, 197290, Note_off_c, 9, 38, 64
10, 197520, Note_on_c, 9, 42, 87
10, 197530, Note_off_c, 9, 42, 64
10, 197760, Note_on_c, 9, 35, 98
10, 197760, Note_on_c, 9, 42, 109
10, 197770, Note_off_c, 9, 42, 64
10, 197770, Note_off_c, 9, 35, 64
10, 198000, Note_on_c, 9, 42, 84
10, 198010, Note_off_c, 9, 42, 64
10, 198240, Note_on_c, 9, 38, 107
10, 198240, Note_on_c, 9, 39, 94
10, 198240, Note_on_c, 9, 42, 109
10, 198240, Note_on_c, 9, 54, 84
10, 198250, Note_off_c, 9, 54, 64
10, 198250, Note_off_c, 9, 42, 64
10, 198250, Note_off_c, 9, 39, 64
10, 198250, Note_off_c, 9, 38, 64
10, 198480, Note_on_c, 9, 42, 87
10, 198490, Note_off_c, 9, 42, 64
10, 198720, Note_on_c, 9, 35, 98
10, 198720, Note_on_c, 9, 42, 109
10, 198730, Note_off_c, 9, 42, 64
10, 198730, Note_off_c, 9, 35, 64
10, 198960, Note_on_c, 9, 42, 88
10, 198970, Note_off_c, 9, 42, 64
10, 199200, Note_on_c, 9, 35, 100
10, 199200, Note_on_c, 9, 38, 108
10, 199200, Note_on_c, 9, 39, 94
10, 199200, Note_on_c, 9, 42, 109
10, 199200, Note_on_c, 9, 54, 84
10, 199210, Note_off_c, 9, 54, 64
10, 199210, Note_off_c, 9, 42, 64
10, 199210, Note_off_c, 9, 39, 64
10, 199210, Note_off_c, 9, 38, 64
10, 199210, Note_off_c, 9, 35, 64
10, 199440, Note_on_c, 9, 46, 109
10, 199450, Note_off_c, 9, 46, 64
10, 199680, Note_on_c, 9, 35, 98
10, 199680, Note_on_c, 9, 42, 109
10, 199690, Note_off_c, 9, 42, 64
10, 199690, Note_off_c, 9, 35, 64
10, 199920, Note_on_c, 9, 42, 84
10, 199930, Note_off_c, 9, 42, 64
10, 200160, Note_on_c, 9, 38, 107
10, 200160, Note_on_c, 9, 39, 94
10, 200160, Note_on_c, 9, 42, 109
10, 200160, Note_on_c, 9, 54, 82
10, 200170, Note_off_c, 9, 54, 64
10, 200170, Note_off_c, 9, 42, 64
10, 200170, Note_off_c, 9, 39, 64
10, 200170, Note_off_c, 9, 38, 64
10, 200400, Note_on_c, 9, 42, 87
10, 200410, Note_off_c, 9, 42, 64
10, 200640, Note_on_c, 9, 35, 98
10, 200640, Note_on_c, 9, 42, 109
10, 200650, Note_off_c, 9, 42, 64
10, 200650, Note_off_c, 9, 35, 64
10, 200880, Note_on_c, 9, 42, 88
10, 200890, Note_off_c, 9, 42, 64
10, 201120, Note_on_c, 9, 38, 108
10, 201120, Note_on_c, 9, 39, 94
10, 201120, Note_on_c, 9, 42, 109
10, 201120, Note_on_c, 9, 54, 84
10, 201130, Note_off_c, 9, 54, 64
10, 201130, Note_off_c, 9, 42, 64
10, 201130, Note_off_c, 9, 39, 64
10, 201130, Note_off_c, 9, 38, 64
10, 201360, Note_on_c, 9, 42, 87
10, 201370, Note_off_c, 9, 42, 64
10, 201600, Note_on_c, 9, 35, 98
10, 201600, Note_on_c, 9, 42, 109
10, 201610, Note_off_c, 9, 42, 64
10, 201610, Note_off_c, 9, 35, 64
10, 201840, Note_on_c, 9, 42, 84
10, 201850, Note_off_c, 9, 42, 64
10, 202080, Note_on_c, 9, 38, 107
10, 202080, Note_on_c, 9, 39, 94
10, 202080, Note_on_c, 9, 42, 109
10, 202080, Note_on_c, 9, 54, 83
10, 202090, Note_off_c, 9, 54, 64
10, 202090, Note_off_c, 9, 42, 64
10, 202090, Note_off_c, 9, 39, 64
10, 202090, Note_off_c, 9, 38, 64
10, 202320, Note_on_c, 9, 42, 87
10, 202330, Note_off_c, 9, 42, 64
10, 202560, Note_on_c, 9, 35, 98
10, 202560, Note_on_c, 9, 42, 109
10, 202570, Note_off_c, 9, 42, 64
10, 202570, Note_off_c, 9, 35, 64
10, 202800, Note_on_c, 9, 42, 88
10, 202810, Note_off_c, 9, 42, 64
10, 203040, Note_on_c, 9, 35, 100
10, 203040, Note_on_c, 9, 38, 108
10, 203040, Note_on_c, 9, 39, 94
10, 203040, Note_on_c, 9, 42, 109
10, 203040, Note_on_c, 9, 54, 83
10, 203050, Note_off_c, 9, 54, 64
10, 203050, Note_off_c, 9, 42, 64
10, 203050, Note_off_c, 9, 39, 64
10, 203050, Note_off_c, 9, 38, 64
10, 203050, Note_off_c, 9, 35, 64
10, 203280, Note_on_c, 9, 42, 87
10, 203290, Note_off_c, 9, 42, 64
10, 203520, Note_on_c, 9, 35, 98
10, 203520, Note_on_c, 9, 49, 70
10, 203530, Note_off_c, 9, 49, 64
10, 203530, Note_off_c, 9, 35, 64
10, 203760, Note_on_c, 9, 42, 84
10, 203770, Note_off_c, 9, 42, 64
10, 204000, Note_on_c, 9, 38, 107
10, 204000, Note_on_c, 9, 39, 94
10, 204000, Note_on_c, 9, 42, 109
10, 204000, Note_on_c, 9, 54, 83
10, 204010, Note_off_c, 9, 54, 64
10, 204010, Note_off_c, 9, 42, 64
10, 204010, Note_off_c, 9, 39, 64
10, 204010, Note_off_c, 9, 38, 64
10, 204240, Note_on_c, 9, 42, 87
10, 204250, Note_off_c, 9, 42, 64
10, 204480, Note_on_c, 9, 35, 98
10, 204480, Note_on_c, 9, 42, 109
10, 204490, Note_off_c, 9, 42, 64
10, 204490, Note_off_c, 9, 35, 64
10, 204720, Note_on_c, 9, 42, 88
10, 204730, Note_off_c, 9, 42, 64
10, 204960, Note_on_c, 9, 38, 108
10, 204960, Note_on_c, 9, 39, 94
10, 204960, Note_on_c, 9, 42, 109
10, 204960, Note_on_c, 9, 54, 83
10, 204970, Note_off_c, 9, 54, 64
10, 204970, Note_off_c, 9, 42, 64
10, 204970, Note_off_c, 9, 39, 64
10, 204970, Note_off_c, 9, 38, 64
10, 205200, Note_on_c, 9, 42, 87
10, 205210, Note_off_c, 9, 42, 64
10, 205440, Note_on_c, 9, 35, 98
10, 205440, Note_on_c, 9, 42, 109
10, 205450, Note_off_c, 9, 42, 64
10, 205450, Note_off_c, 9, 35, 64
10, 205680, Note_on_c, 9, 42, 84
10, 205690, Note_off_c, 9, 42, 64
10, 205920, Note_on_c, 9, 38, 107
10, 205920, Note_on_c, 9, 39, 94
10, 205920, Note_on_c, 9, 42, 109
10, 205920, Note_on_c, 9, 54, 82
10, 205930, Note_off_c, 9, 54, 64
10, 205930, Note_off_c, 9, 42, 64
10, 205930, Note_off_c, 9, 39, 64
10, 205930, Note_off_c, 9, 38, 64
10, 206160, Note_on_c, 9, 42, 87
10, 206170, Note_off_c, 9, 42, 64
10, 206400, Note_on_c, 9, 35, 98
10, 206400, Note_on_c, 9, 42, 109
10, 206410, Note_off_c, 9, 42, 64
10, 206410, Note_off_c, 9, 35, 64
10, 206640, Note_on_c, 9, 42, 88
10, 206650, Note_off_c, 9, 42, 64
10, 206880, Note_on_c, 9, 35, 100
10, 206880, Note_on_c, 9, 38, 108
10, 206880, Note_on_c, 9, 39, 94
10, 206880, Note_on_c, 9, 42, 109
10, 206880, Note_on_c, 9, 54, 84
10, 206890, Note_off_c, 9, 54, 64
10, 206890, Note_off_c, 9, 42, 64
10, 206890, Note_off_c, 9, 39, 64
10, 206890, Note_off_c, 9, 38, 64
10, 206890, Note_off_c, 9, 35, 64
10, 207120, Note_on_c, 9, 42, 87
10, 207130, Note_off_c, 9, 42, 64
10, 207360, Note_on_c, 9, 35, 98
10, 207360, Note_on_c, 9, 42, 109
10, 207370, Note_off_c, 9, 42, 64
10, 207370, Note_off_c, 9, 35, 64
10, 207600, Note_on_c, 9, 42, 84
10, 207610, Note_off_c, 9, 42, 64
10, 207840, Note_on_c, 9, 38, 107
10, 207840, Note_on_c, 9, 39, 94
10, 207840, Note_on_c, 9, 42, 109
10, 207840, Note_on_c, 9, 54, 84
10, 207850, Note_off_c, 9, 54, 64
10, 207850, Note_off_c, 9, 42, 64
10, 207850, Note_off_c, 9, 39, 64
10, 207850, Note_off_c, 9, 38, 64
10, 208080, Note_on_c, 9, 42, 87
10, 208090, Note_off_c, 9, 42, 64
10, 208320, Note_on_c, 9, 35, 98
10, 208320, Note_on_c, 9, 42, 109
10, 208330, Note_off_c, 9, 42, 64
10, 208330, Note_off_c, 9, 35, 64
10, 208560, Note_on_c, 9, 42, 88
10, 208570, Note_off_c, 9, 42, 64
10, 208800, Note_on_c, 9, 38, 108
10, 208800, Note_on_c, 9, 39, 94
10, 208800, Note_on_c, 9, 42, 109
10, 208800, Note_on_c, 9, 54, 83
10, 208810, Note_off_c, 9, 54, 64
10, 208810, Note_off_c, 9, 42, 64
10, 208810, Note_off_c, 9, 39, 64
10, 208810, Note_off_c, 9, 38, 64
10, 209040, Note_on_c, 9, 42, 87
10, 209050, Note_off_c, 9, 42, 64
10, 209280, Note_on_c, 9, 35, 98
10, 209280, Note_on_c, 9, 42, 109
10, 209290, Note_off_c, 9, 42, 64
10, 209290, Note_off_c, 9, 35, 64
10, 209520, Note_on_c, 9, 42, 84
10, 209530, Note_off_c, 9, 42, 64
10, 209760, Note_on_c, 9, 38, 107
10, 209760, Note_on_c, 9, 39, 94
10, 209760, Note_on_c, 9, 42, 109
10, 209760, Note_on_c, 9, 54, 84
10, 209770, Note_off_c, 9, 54, 64
10, 209770, Note_off_c, 9, 42, 64
10, 209770, Note_off_c, 9, 39, 64
10, 209770, Note_off_c, 9, 38, 64
10, 210000, Note_on_c, 9, 42, 87
10, 210010, Note_off_c, 9, 42, 64
10, 210240, Note_on_c, 9, 35, 98
10, 210240, Note_on_c, 9, 42, 109
10, 210250, Note_off_c, 9, 42, 64
10, 210250, Note_off_c, 9, 35, 64
10, 210480, Note_on_c, 9, 42, 88
10, 210490, Note_off_c, 9, 42, 64
10, 210720, Note_on_c, 9, 38, 108
10, 210720, Note_on_c, 9, 39, 94
10, 210720, Note_on_c, 9, 46, 109
10, 210720, Note_on_c, 9, 54, 83
10, 210730, Note_off_c, 9, 54, 64
10, 210730, Note_off_c, 9, 46, 64
10, 210730, Note_off_c, 9, 39, 64
10, 210730, Note_off_c, 9, 38, 64
10, 211200, Note_on_c, 9, 35, 98
10, 211200, Note_on_c, 9, 49, 70
10, 211210, Note_off_c, 9, 49, 64
10, 211210, Note_off_c, 9, 35, 64
10, 211440, Note_on_c, 9, 42, 84
10, 211450, Note_off_c, 9, 42, 64
10, 211680, Note_on_c, 9, 38, 107
10, 211680, Note_on_c, 9, 39, 94
10, 211680, Note_on_c, 9, 42, 109
10, 211680, Note_on_c, 9, 54, 84
10, 211690, Note_off_c, 9, 54, 64
10, 211690, Note_off_c, 9, 42, 64
10, 211690, Note_off_c, 9, 39, 64
10, 211690, Note_off_c, 9, 38, 64
10, 211920, Note_on_c, 9, 42, 87
10, 211930, Note_off_c, 9, 42, 64
10, 212160, Note_on_c, 9, 35, 98
10, 212160, Note_on_c, 9, 42, 109
10, 212170, Note_off_c, 9, 42, 64
10, 212170, Note_off_c, 9, 35, 64
10, 212400, Note_on_c, 9, 42, 88
10, 212410, Note_off_c, 9, 42, 64
10, 212640, Note_on_c, 9, 35, 100
10, 212640, Note_on_c, 9, 38, 108
10, 212640, Note_on_c, 9, 39, 94
10, 212640, Note_on_c, 9, 42, 109
10, 212640, Note_on_c, 9, 54, 82
10, 212650, Note_off_c, 9, 54, 64
10, 212650, Note_off_c, 9, 42, 64
10, 212650, Note_off_c, 9, 39, 64
10, 212650, Note_off_c, 9, 38, 64
10, 212650, Note_off_c, 9, 35, 64
10, 212880, Note_on_c, 9, 42, 87
10, 212890, Note_off_c, 9, 42, 64
10, 213120, Note_on_c, 9, 35, 98
10, 213120, Note_on_c, 9, 42, 109
10, 213130, Note_off_c, 9, 42, 64
10, 213130, Note_off_c, 9, 35, 64
10, 213360, Note_on_c, 9, 42, 84
10, 213370, Note_off_c, 9, 42, 64
10, 213600, Note_on_c, 9, 38, 107
10, 213600, Note_on_c, 9, 39, 94
10, 213600, Note_on_c, 9, 42, 109
10, 213600, Note_on_c, 9, 54, 84
10, 213610, Note_off_c, 9, 54, 64
10, 213610, Note_off_c, 9, 42, 64
10, 213610, Note_off_c, 9, 39, 64
10, 213610, Note_off_c, 9, 38, 64
10, 213840, Note_on_c, 9, 42, 87
10, 213850, Note_off_c, 9, 42, 64
10, 214080, Note_on_c, 9, 35, 98
10, 214080, Note_on_c, 9, 42, 109
10, 214090, Note_off_c, 9, 42, 64
10, 214090, Note_off_c, 9, 35, 64
10, 214320, Note_on_c, 9, 42, 88
10, 214330, Note_off_c, 9, 42, 64
10, 214560, Note_on_c, 9, 38, 108
10, 214560, Note_on_c, 9, 39, 94
10, 214560, Note_on_c, 9, 42, 109
10, 214560, Note_on_c, 9, 54, 84
10, 214570, Note_off_c, 9, 54, 64
10, 214570, Note_off_c, 9, 42, 64
10, 214570, Note_off_c, 9, 39, 64
10, 214570, Note_off_c, 9, 38, 64
10, 214800, Note_on_c, 9, 42, 87
10, 214810, Note_off_c, 9, 42, 64
10, 215040, Note_on_c, 9, 35, 98
10, 215040, Note_on_c, 9, 42, 109
10, 215050, Note_off_c, 9, 42, 64
10, 215050, Note_off_c, 9, 35, 64
10, 215280, Note_on_c, 9, 42, 84
10, 215290, Note_off_c, 9, 42, 64
10, 215520, Note_on_c, 9, 38, 107
10, 215520, Note_on_c, 9, 39, 94
10, 215520, Note_on_c, 9, 42, 109
10, 215520, Note_on_c, 9, 54, 82
10, 215530, Note_off_c, 9, 54, 64
10, 215530, Note_off_c, 9, 42, 64
10, 215530, Note_off_c, 9, 39, 64
10, 215530, Note_off_c, 9, 38, 64
10, 215760, Note_on_c, 9, 42, 87
10, 215770, Note_off_c, 9, 42, 64
10, 216000, Note_on_c, 9, 35, 98
10, 216000, Note_on_c, 9, 42, 109
10, 216010, Note_off_c, 9, 42, 64
10, 216010, Note_off_c, 9, 35, 64
10, 216240, Note_on_c, 9, 42, 88
10, 216250, Note_off_c, 9, 42, 64
10, 216480, Note_on_c, 9, 35, 100
10, 216480, Note_on_c, 9, 38, 108
10, 216480, Note_on_c, 9, 39, 94
10, 216480, Note_on_c, 9, 42, 109
10, 216480, Note_on_c, 9, 54, 84
10, 216490, Note_off_c, 9, 54, 64
10, 216490, Note_off_c, 9, 42, 64
10, 216490, Note_off_c, 9, 39, 64
10, 216490, Note_off_c, 9, 38, 64
10, 216490, Note_off_c, 9, 35, 64
10, 216720, Note_on_c, 9, 42, 87
10, 216730, Note_off_c, 9, 42, 64
10, 216960, Note_on_c, 9, 35, 98
10, 216960, Note_on_c, 9, 42, 109
10, 216970, Note_off_c, 9, 42, 64
10, 216970, Note_off_c, 9, 35, 64
10, 217200, Note_on_c, 9, 42, 84
10, 217210, Note_off_c, 9, 42, 64
10, 217440, Note_on_c, 9, 38, 107
10, 217440, Note_on_c, 9, 39, 94
10, 217440, Note_on_c, 9, 42, 109
10, 217440, Note_on_c, 9, 54, 83
10, 217450, Note_off_c, 9, 54, 64
10, 217450, Note_off_c, 9, 42, 64
10, 217450, Note_off_c, 9, 39, 64
10, 217450, Note_off_c, 9, 38, 64
10, 217680, Note_on_c, 9, 42, 87
10, 217690, Note_off_c, 9, 42, 64
10, 217920, Note_on_c, 9, 35, 98
10, 217920, Note_on_c, 9, 42, 109
10, 217930, Note_off_c, 9, 42, 64
10, 217930, Note_off_c, 9, 35, 64
10, 218160, Note_on_c, 9, 42, 88
10, 218170, Note_off_c, 9, 42, 64
10, 218400, Note_on_c, 9, 38, 108
10, 218400, Note_on_c, 9, 39, 94
10, 218400, Note_on_c, 9, 42, 109
10, 218400, Note_on_c, 9, 54, 83
10, 218410, Note_off_c, 9, 54, 64
10, 218410, Note_off_c, 9, 42, 64
10, 218410, Note_off_c, 9, 39, 64
10, 218410, Note_off_c, 9, 38, 64
10, 218640, Note_on_c, 9, 42, 87
10, 218650, Note_off_c, 9, 42, 64
10, 218880, Note_on_c, 9, 35, 98
10, 218880, Note_on_c, 9, 42, 109
10, 218890, Note_off_c, 9, 42, 64
10, 218890, Note_off_c, 9, 35, 64
10, 219120, Note_on_c, 9, 42, 84
10, 219130, Note_off_c, 9, 42, 64
10, 219360, Note_on_c, 9, 38, 107
10, 219360, Note_on_c, 9, 39, 94
10, 219360, Note_on_c, 9, 42, 109
10, 219360, Note_on_c, 9, 54, 83
10, 219370, Note_off_c, 9, 54, 64
10, 219370, Note_off_c, 9, 42, 64
10, 219370, Note_off_c, 9, 39, 64
10, 219370, Note_off_c, 9, 38, 64
10, 219600, Note_on_c, 9, 42, 87
10, 219610, Note_off_c, 9, 42, 64
10, 219840, Note_on_c, 9, 35, 98
10, 219840, Note_on_c, 9, 42, 109
10, 219850, Note_off_c, 9, 42, 64
10, 219850, Note_off_c, 9, 35, 64
10, 220080, Note_on_c, 9, 42, 88
10, 220090, Note_off_c, 9, 42, 64
10, 220320, Note_on_c, 9, 35, 100
10, 220320, Note_on_c, 9, 38, 108
10, 220320, Note_on_c, 9, 39, 94
10, 220320, Note_on_c, 9, 42, 109
10, 220320, Note_on_c, 9, 54, 83
10, 220330, Note_off_c, 9, 54, 64
10, 220330, Note_off_c, 9, 42, 64
10, 220330, Note_off_c, 9, 39, 64
10, 220330, Note_off_c, 9, 38, 64
10, 220330, Note_off_c, 9, 35, 64
10, 220560, Note_on_c, 9, 42, 87
10, 220570, Note_off_c, 9, 42, 64
10, 220800, Note_on_c, 9, 35, 98
10, 220800, Note_on_c, 9, 42, 109
10, 220810, Note_off_c, 9, 42, 64
10, 220810, Note_off_c, 9, 35, 64
10, 221040, Note_on_c, 9, 42, 84
10, 221050, Note_off_c, 9, 42, 64
10, 221280, Note_on_c, 9, 38, 107
10, 221280, Note_on_c, 9, 39, 94
10, 221280, Note_on_c, 9, 42, 109
10, 221280, Note_on_c, 9, 54, 82
10, 221290, Note_off_c, 9, 54, 64
10, 221290, Note_off_c, 9, 42, 64
10, 221290, Note_off_c, 9, 39, 64
10, 221290, Note_off_c, 9, 38, 64
10, 221520, Note_on_c, 9, 42, 87
10, 221530, Note_off_c, 9, 42, 64
10, 221760, Note_on_c, 9, 35, 98
10, 221760, Note_on_c, 9, 42, 109
10, 221770, Note_off_c, 9, 42, 64
10, 221770, Note_off_c, 9, 35, 64
10, 222000, Note_on_c, 9, 42, 88
10, 222010, Note_off_c, 9, 42, 64
10, 222240, Note_on_c, 9, 38, 108
10, 222240, Note_on_c, 9, 39, 94
10, 222240, Note_on_c, 9, 42, 109
10, 222240, Note_on_c, 9, 54, 84
10, 222250, Note_off_c, 9, 54, 64
10, 222250, Note_off_c, 9, 42, 64
10, 222250, Note_off_c, 9, 39, 64
10, 222250, Note_off_c, 9, 38, 64
10, 222480, Note_on_c, 9, 42, 87
10, 222490, Note_off_c, 9, 42, 64
10, 222720, Note_on_c, 9, 35, 98
10, 222720, Note_on_c, 9, 42, 109
10, 222730, Note_off_c, 9, 42, 64
10, 222730, Note_off_c, 9, 35, 64
10, 222960, Note_on_c, 9, 42, 84
10, 222970, Note_off_c, 9, 42, 64
10, 223200, Note_on_c, 9, 38, 107
10, 223200, Note_on_c, 9, 39, 94
10, 223200, Note_on_c, 9, 42, 109
10, 223200, Note_on_c, 9, 54, 84
10, 223210, Note_off_c, 9, 54, 64
10, 223210, Note_off_c, 9, 42, 64
10, 223210, Note_off_c, 9, 39, 64
10, 223210, Note_off_c, 9, 38, 64
10, 223440, Note_on_c, 9, 42, 87
10, 223450, Note_off_c, 9, 42, 64
10, 223680, Note_on_c, 9, 35, 98
10, 223680, Note_on_c, 9, 42, 109
10, 223690, Note_off_c, 9, 42, 64
10, 223690, Note_off_c, 9, 35, 64
10, 223920, Note_on_c, 9, 42, 88
10, 223930, Note_off_c, 9, 42, 64
10, 224160, Note_on_c, 9, 35, 100
10, 224160, Note_on_c, 9, 38, 108
10, 224160, Note_on_c, 9, 39, 94
10, 224160, Note_on_c, 9, 42, 109
10, 224160, Note_on_c, 9, 54, 83
10, 224170, Note_off_c, 9, 54, 64
10, 224170, Note_off_c, 9, 42, 64
10, 224170, Note_off_c, 9, 39, 64
10, 224170, Note_off_c, 9, 38, 64
10, 224170, Note_off_c, 9, 35, 64
10, 224400, Note_on_c, 9, 42, 87
10, 224410, Note_off_c, 9, 42, 64
10, 224640, Note_on_c, 9, 35, 98
10, 224640, Note_on_c, 9, 42, 109
10, 224650, Note_off_c, 9, 42, 64
10, 224650, Note_off_c, 9, 35, 64
10, 224880, Note_on_c, 9, 42, 84
10, 224890, Note_off_c, 9, 42, 64
10, 225120, Note_on_c, 9, 38, 107
10, 225120, Note_on_c, 9, 39, 94
10, 225120, Note_on_c, 9, 42, 109
10, 225120, Note_on_c, 9, 54, 84
10, 225130, Note_off_c, 9, 54, 64
10, 225130, Note_off_c, 9, 42, 64
10, 225130, Note_off_c, 9, 39, 64
10, 225130, Note_off_c, 9, 38, 64
10, 225360, Note_on_c, 9, 42, 87
10, 225370, Note_off_c, 9, 42, 64
10, 225600, Note_on_c, 9, 35, 98
10, 225600, Note_on_c, 9, 46, 109
10, 225610, Note_off_c, 9, 46, 64
10, 225610, Note_off_c, 9, 35, 64
10, 225840, Note_on_c, 9, 42, 109
10, 225850, Note_off_c, 9, 42, 64
10, 226080, Note_on_c, 9, 38, 108
10, 226080, Note_on_c, 9, 39, 94
10, 226080, Note_on_c, 9, 46, 109
10, 226080, Note_on_c, 9, 54, 83
10, 226090, Note_off_c, 9, 54, 64
10, 226090, Note_off_c, 9, 46, 64
10, 226090, Note_off_c, 9, 39, 64
10, 226090, Note_off_c, 9, 38, 64
10, 226320, Note_on_c, 9, 38, 103
10, 226320, Note_on_c, 9, 42, 109
10, 226330, Note_off_c, 9, 42, 64
10, 226330, Note_off_c, 9, 38, 64
10, 226440, Note_on_c, 9, 38, 105
10, 226450, Note_off_c, 9, 38, 64
10, 226560, Note_on_c, 9, 35, 98
10, 226560, Note_on_c, 9, 49, 70
10, 226570, Note_off_c, 9, 49, 64
10, 226570, Note_off_c, 9, 35, 64
10, 226800, Note_on_c, 9, 42, 84
10, 226810, Note_off_c, 9, 42, 64
10, 227040, Note_on_c, 9, 38, 107
10, 227040, Note_on_c, 9, 39, 94
10, 227040, Note_on_c, 9, 42, 109
10, 227040, Note_on_c, 9, 54, 84
10, 227050, Note_off_c, 9, 54, 64
10, 227050, Note_off_c, 9, 42, 64
10, 227050, Note_off_c, 9, 39, 64
10, 227050, Note_off_c, 9, 38, 64
10, 227280, Note_on_c, 9, 42, 87
10, 227290, Note_off_c, 9, 42, 64
10, 227520, Note_on_c, 9, 35, 98
10, 227520, Note_on_c, 9, 42, 109
10, 227530, Note_off_c, 9, 42, 64
10, 227530, Note_off_c, 9, 35, 64
10, 227760, Note_on_c, 9, 42, 88
10, 227770, Note_off_c, 9, 42, 64
10, 228000, Note_on_c, 9, 35, 100
10, 228000, Note_on_c, 9, 38, 108
10, 228000, Note_on_c, 9, 39, 94
10, 228000, Note_on_c, 9, 42, 109
10, 228000, Note_on_c, 9, 54, 82
10, 228010, Note_off_c, 9, 54, 64
10, 228010, Note_off_c, 9, 42, 64
10, 228010, Note_off_c, 9, 39, 64
10, 228010, Note_off_c, 9, 38, 64
10, 228010, Note_off_c, 9, 35, 64
10, 228240, Note_on_c, 9, 42, 87
10, 228250, Note_off_c, 9, 42, 64
10, 228480, Note_on_c, 9, 35, 98
10, 228480, Note_on_c, 9, 42, 109
10, 228490, Note_off_c, 9, 42, 64
10, 228490, Note_off_c, 9, 35, 64
10, 228720, Note_on_c, 9, 42, 84
10, 228730, Note_off_c, 9, 42, 64
10, 228960, Note_on_c, 9, 38, 107
10, 228960, Note_on_c, 9, 39, 94
10, 228960, Note_on_c, 9, 42, 109
10, 228960, Note_on_c, 9, 54, 84
10, 228970, Note_off_c, 9, 54, 64
10, 228970, Note_off_c, 9, 42, 64
10, 228970, Note_off_c, 9, 39, 64
10, 228970, Note_off_c, 9, 38, 64
10, 229200, Note_on_c, 9, 42, 87
10, 229210, Note_off_c, 9, 42, 64
10, 229440, Note_on_c, 9, 35, 98
10, 229440, Note_on_c, 9, 42, 109
10, 229450, Note_off_c, 9, 42, 64
10, 229450, Note_off_c, 9, 35, 64
10, 229680, Note_on_c, 9, 42, 88
10, 229690, Note_off_c, 9, 42, 64
10, 229920, Note_on_c, 9, 38, 108
10, 229920, Note_on_c, 9, 39, 94
10, 229920, Note_on_c, 9, 42, 109
10, 229920, Note_on_c, 9, 54, 84
10, 229930, Note_off_c, 9, 54, 64
10, 229930, Note_off_c, 9, 42, 64
10, 229930, Note_off_c, 9, 39, 64
10, 229930, Note_off_c, 9, 38, 64
10, 230160, Note_on_c, 9, 42, 87
10, 230170, Note_off_c, 9, 42, 64
10, 230400, Note_on_c, 9, 35, 98
10, 230400, Note_on_c, 9, 42, 109
10, 230410, Note_off_c, 9, 42, 64
10, 230410, Note_off_c, 9, 35, 64
10, 230640, Note_on_c, 9, 42, 84
10, 230650, Note_off_c, 9, 42, 64
10, 230880, Note_on_c, 9, 38, 107
10, 230880, Note_on_c, 9, 39, 94
10, 230880, Note_on_c, 9, 42, 109
10, 230880, Note_on_c, 9, 54, 82
10, 230890, Note_off_c, 9, 54, 64
10, 230890, Note_off_c, 9, 42, 64
10, 230890, Note_off_c, 9, 39, 64
10, 230890, Note_off_c, 9, 38, 64
10, 231120, Note_on_c, 9, 42, 87
10, 231130, Note_off_c, 9, 42, 64
10, 231360, Note_on_c, 9, 35, 98
10, 231360, Note_on_c, 9, 42, 109
10, 231370, Note_off_c, 9, 42, 64
10, 231370, Note_off_c, 9, 35, 64
10, 231600, Note_on_c, 9, 42, 88
10, 231610, Note_off_c, 9, 42, 64
10, 231840, Note_on_c, 9, 35, 100
10, 231840, Note_on_c, 9, 38, 108
10, 231840, Note_on_c, 9, 39, 94
10, 231840, Note_on_c, 9, 42, 109
10, 231840, Note_on_c, 9, 54, 84
10, 231850, Note_off_c, 9, 54, 64
10, 231850, Note_off_c, 9, 42, 64
10, 231850, Note_off_c, 9, 39, 64
10, 231850, Note_off_c, 9, 38, 64
10, 231850, Note_off_c, 9, 35, 64
10, 232080, Note_on_c, 9, 42, 87
10, 232090, Note_off_c, 9, 42, 64
10, 232320, Note_on_c, 9, 35, 98
10, 232320, Note_on_c, 9, 42, 109
10, 232330, Note_off_c, 9, 42, 64
10, 232330, Note_off_c, 9, 35, 64
10, 232560, Note_on_c, 9, 42, 84
10, 232570, Note_off_c, 9, 42, 64
10, 232800, Note_on_c, 9, 38, 107
10, 232800, Note_on_c, 9, 39, 94
10, 232800, Note_on_c, 9, 42, 109
10, 232800, Note_on_c, 9, 54, 83
10, 232810, Note_off_c, 9, 54, 64
10, 232810, Note_off_c, 9, 42, 64
10, 232810, Note_off_c, 9, 39, 64
10, 232810, Note_off_c, 9, 38, 64
10, 233040, Note_on_c, 9, 42, 87
10, 233050, Note_off_c, 9, 42, 64
10, 233280, Note_on_c, 9, 35, 98
10, 233280, Note_on_c, 9, 42, 109
10, 233290, Note_off_c, 9, 42, 64
10, 233290, Note_off_c, 9, 35, 64
10, 233520, Note_on_c, 9, 42, 88
10, 233530, Note_off_c, 9, 42, 64
10, 233760, Note_on_c, 9, 38, 108
10, 233760, Note_on_c, 9, 39, 94
10, 233760, Note_on_c, 9, 42, 109
10, 233760, Note_on_c, 9, 54, 83
10, 233770, Note_off_c, 9, 54, 64
10, 233770, Note_off_c, 9, 42, 64
10, 233770, Note_off_c, 9, 39, 64
10, 233770, Note_off_c, 9, 38, 64
10, 234000, Note_on_c, 9, 42, 87
10, 234010, Note_off_c, 9, 42, 64
10, 234240, Note_on_c, 9, 35, 98
10, 234240, Note_on_c, 9, 42, 109
10, 234250, Note_off_c, 9, 42, 64
10, 234250, Note_off_c, 9, 35, 64
10, 234480, Note_on_c, 9, 42, 84
10, 234490, Note_off_c, 9, 42, 64
10, 234720, Note_on_c, 9, 38, 107
10, 234720, Note_on_c, 9, 39, 94
10, 234720, Note_on_c, 9, 42, 109
10, 234720, Note_on_c, 9, 54, 83
10, 234730, Note_off_c, 9, 54, 64
10, 234730, Note_off_c, 9, 42, 64
10, 234730, Note_off_c, 9, 39, 64
10, 234730, Note_off_c, 9, 38, 64
10, 234960, Note_on_c, 9, 42, 87
10, 234970, Note_off_c, 9, 42, 64
10, 235200, Note_on_c, 9, 35, 98
10, 235200, Note_on_c, 9, 42, 109
10, 235210, Note_off_c, 9, 42, 64
10, 235210, Note_off_c, 9, 35, 64
10, 235440, Note_on_c, 9, 42, 88
10, 235450, Note_off_c, 9, 42, 64
10, 235680, Note_on_c, 9, 35, 100
10, 235680, Note_on_c, 9, 38, 108
10, 235680, Note_on_c, 9, 39, 94
10, 235680, Note_on_c, 9, 42, 109
10, 235680, Note_on_c, 9, 54, 83
10, 235690, Note_off_c, 9, 54, 64
10, 235690, Note_off_c, 9, 42, 64
10, 235690, Note_off_c, 9, 39, 64
10, 235690, Note_off_c, 9, 38, 64
10, 235690, Note_off_c, 9, 35, 64
10, 235920, Note_on_c, 9, 42, 87
10, 235930, Note_off_c, 9, 42, 64
10, 236160, Note_on_c, 9, 35, 98
10, 236160, Note_on_c, 9, 42, 109
10, 236170, Note_off_c, 9, 42, 64
10, 236170, Note_off_c, 9, 35, 64
10, 236400, Note_on_c, 9, 42, 84
10, 236410, Note_off_c, 9, 42, 64
10, 236640, Note_on_c, 9, 38, 107
10, 236640, Note_on_c, 9, 39, 94
10, 236640, Note_on_c, 9, 42, 109
10, 236640, Note_on_c, 9, 54, 82
10, 236650, Note_off_c, 9, 54, 64
10, 236650, Note_off_c, 9, 42, 64
10, 236650, Note_off_c, 9, 39, 64
10, 236650, Note_off_c, 9, 38, 64
10, 236880, Note_on_c, 9, 42, 87
10, 236890, Note_off_c, 9, 42, 64
10, 237120, Note_on_c, 9, 35, 98
10, 237120, Note_on_c, 9, 42, 109
10, 237130, Note_off_c, 9, 42, 64
10, 237130, Note_off_c, 9, 35, 64
10, 237360, Note_on_c, 9, 42, 88
10, 237370, Note_off_c, 9, 42, 64
10, 237600, Note_on_c, 9, 38, 108
10, 237600, Note_on_c, 9, 39, 94
10, 237600, Note_on_c, 9, 42, 109
10, 237600, Note_on_c, 9, 54, 84
10, 237610, Note_off_c, 9, 54, 64
10, 237610, Note_off_c, 9, 42, 64
10, 237610, Note_off_c, 9, 39, 64
10, 237610, Note_off_c, 9, 38, 64
10, 237840, Note_on_c, 9, 42, 87
10, 237850, Note_off_c, 9, 42, 64
10, 238080, Note_on_c, 9, 35, 98
10, 238080, Note_on_c, 9, 42, 109
10, 238090, Note_off_c, 9, 42, 64
10, 238090, Note_off_c, 9, 35, 64
10, 238320, Note_on_c, 9, 42, 84
10, 238330, Note_off_c, 9, 42, 64
10, 238560, Note_on_c, 9, 38, 107
10, 238560, Note_on_c, 9, 39, 94
10, 238560, Note_on_c, 9, 42, 109
10, 238560, Note_on_c, 9, 54, 84
10, 238570, Note_off_c, 9, 54, 64
10, 238570, Note_off_c, 9, 42, 64
10, 238570, Note_off_c, 9, 39, 64
10, 238570, Note_off_c, 9, 38, 64
10, 238800, Note_on_c, 9, 42, 87
10, 238810, Note_off_c, 9, 42, 64
10, 239040, Note_on_c, 9, 35, 98
10, 239040, Note_on_c, 9, 42, 109
10, 239050, Note_off_c, 9, 42, 64
10, 239050, Note_off_c, 9, 35, 64
10, 239280, Note_on_c, 9, 42, 88
10, 239290, Note_off_c, 9, 42, 64
10, 239520, Note_on_c, 9, 35, 100
10, 239520, Note_on_c, 9, 38, 108
10, 239520, Note_on_c, 9, 39, 94
10, 239520, Note_on_c, 9, 42, 109
10, 239520, Note_on_c, 9, 54, 83
10, 239530, Note_off_c, 9, 54, 64
10, 239530, Note_off_c, 9, 42, 64
10, 239530, Note_off_c, 9, 39, 64
10, 239530, Note_off_c, 9, 38, 64
10, 239530, Note_off_c, 9, 35, 64
10, 239760, Note_on_c, 9, 42, 87
10, 239770, Note_off_c, 9, 42, 64
10, 240000, Note_on_c, 9, 35, 98
10, 240000, Note_on_c, 9, 42, 109
10, 240010, Note_off_c, 9, 42, 64
10, 240010, Note_off_c, 9, 35, 64
10, 240240, Note_on_c, 9, 42, 84
10, 240250, Note_off_c, 9, 42, 64
10, 240480, Note_on_c, 9, 38, 107
10, 240480, Note_on_c, 9, 39, 94
10, 240480, Note_on_c, 9, 42, 109
10, 240480, Note_on_c, 9, 54, 84
10, 240490, Note_off_c, 9, 54, 64
10, 240490, Note_off_c, 9, 42, 64
10, 240490, Note_off_c, 9, 39, 64
10, 240490, Note_off_c, 9, 38, 64
10, 240720, Note_on_c, 9, 42, 87
10, 240730, Note_off_c, 9, 42, 64
10, 240960, Note_on_c, 9, 35, 98
10, 240960, Note_on_c, 9, 46, 109
10, 240970, Note_off_c, 9, 46, 64
10, 240970, Note_off_c, 9, 35, 64
10, 241200, Note_on_c, 9, 42, 109
10, 241210, Note_off_c, 9, 42, 64
10, 241440, Note_on_c, 9, 38, 108
10, 241440, Note_on_c, 9, 39, 94
10, 241440, Note_on_c, 9, 46, 109
10, 241440, Note_on_c, 9, 54, 83
10, 241450, Note_off_c, 9, 54, 64
10, 241450, Note_off_c, 9, 46, 64
10, 241450, Note_off_c, 9, 39, 64
10, 241450, Note_off_c, 9, 38, 64
10, 241680, Note_on_c, 9, 38, 103
10, 241680, Note_on_c, 9, 42, 109
10, 241690, Note_off_c, 9, 42, 64
10, 241690, Note_off_c, 9, 38, 64
10, 241800, Note_on_c, 9, 35, 98
10, 241800, Note_on_c, 9, 38, 105
10, 241800, Note_on_c, 9, 49, 70
10, 241810, Note_off_c, 9, 49, 64
10, 241810, Note_off_c, 9, 38, 64
10, 241810, Note_off_c, 9, 35, 64
10, 241810, End_track
0, 0, End_of_file
