0, 0, Header, 0, 1, 96
1, 0, Start_track
1, 0, Title_t, ""
1, 0, System_exclusive, 5, 126, 127, 9, 1, 247
1, 0, Time_signature, 4, 2, 24, 8
1, 0, Key_signature, 0, "major"
1, 0, Tempo, 472441
1, 98, Program_c, 0, 25
1, 99, Control_c, 0, 7, 60
1, 99, Control_c, 0, 10, 48
1, 99, Control_c, 0, 11, 127
1, 100, Control_c, 0, 91, 75
1, 100, Control_c, 0, 93, 55
1, 103, Program_c, 1, 33
1, 104, Control_c, 1, 7, 127
1, 104, Control_c, 1, 10, 64
1, 104, Control_c, 1, 11, 127
1, 105, Control_c, 1, 91, 35
1, 105, Control_c, 1, 93, 10
1, 108, Program_c, 2, 5
1, 109, Control_c, 2, 7, 127
1, 109, Control_c, 2, 10, 16
1, 109, Control_c, 2, 11, 127
1, 110, Control_c, 2, 91, 75
1, 110, Control_c, 2, 93, 65
1, 113, Program_c, 3, 5
1, 114, Control_c, 3, 7, 100
1, 114, Control_c, 3, 10, 64
1, 114, Control_c, 3, 11, 127
1, 115, Control_c, 3, 93, 65
1, 115, Control_c, 3, 91, 75
1, 118, Program_c, 4, 90
1, 119, Control_c, 4, 7, 127
1, 119, Control_c, 4, 10, 96
1, 119, Control_c, 4, 11, 127
1, 120, Control_c, 4, 93, 25
1, 120, Control_c, 4, 91, 95
1, 123, Program_c, 5, 66
1, 124, Control_c, 5, 7, 127
1, 124, Control_c, 5, 10, 64
1, 124, Control_c, 5, 11, 127
1, 125, Control_c, 5, 93, 10
1, 125, Control_c, 5, 91, 100
1, 128, Program_c, 6, 62
1, 129, Control_c, 6, 7, 127
1, 129, Control_c, 6, 10, 112
1, 129, Control_c, 6, 11, 127
1, 130, Control_c, 6, 91, 95
1, 130, Control_c, 6, 93, 25
1, 133, Program_c, 7, 65
1, 134, Control_c, 7, 7, 115
1, 134, Control_c, 7, 10, 127
1, 134, Control_c, 7, 11, 127
1, 135, Control_c, 7, 91, 100
1, 135, Control_c, 7, 93, 10
1, 138, Program_c, 8, 26
1, 139, Control_c, 8, 7, 127
1, 139, Control_c, 8, 10, 0
1, 139, Control_c, 8, 11, 127
1, 140, Control_c, 8, 93, 12
1, 140, Control_c, 8, 91, 88
1, 141, Control_c, 9, 0, 127
1, 142, Control_c, 9, 32, 0
1, 143, Program_c, 9, 0
1, 144, Control_c, 9, 7, 127
1, 144, Control_c, 9, 10, 64
1, 144, Control_c, 9, 11, 127
1, 145, Control_c, 9, 93, 0
1, 145, Control_c, 9, 91, 75
1, 148, Program_c, 10, 122
1, 149, Control_c, 10, 7, 100
1, 149, Control_c, 10, 10, 64
1, 149, Control_c, 10, 11, 127
1, 150, Control_c, 10, 93, 5
1, 150, Control_c, 10, 91, 100
1, 153, Program_c, 11, 112
1, 154, Control_c, 11, 7, 127
1, 154, Control_c, 11, 10, 64
1, 154, Control_c, 11, 11, 127
1, 155, Control_c, 11, 91, 100
1, 155, Control_c, 11, 93, 0
1, 158, Program_c, 12, 23
1, 159, Control_c, 12, 7, 110
1, 159, Control_c, 12, 10, 16
1, 159, Control_c, 12, 11, 127
1, 160, Control_c, 12, 91, 120
1, 160, Control_c, 12, 93, 5
1, 163, Program_c, 13, 20
1, 164, Control_c, 13, 7, 110
1, 164, Control_c, 13, 10, 112
1, 164, Control_c, 13, 11, 127
1, 165, Control_c, 13, 93, 0
1, 165, Control_c, 13, 91, 120
1, 168, Program_c, 14, 61
1, 169, Control_c, 14, 7, 127
1, 169, Control_c, 14, 10, 64
1, 169, Control_c, 14, 11, 127
1, 170, Control_c, 14, 93, 10
1, 170, Control_c, 14, 91, 75
1, 176, Pitch_bend_c, 0, 8192
1, 177, Pitch_bend_c, 1, 8192
1, 178, Pitch_bend_c, 2, 8192
1, 179, Pitch_bend_c, 3, 8192
1, 180, Pitch_bend_c, 4, 8192
1, 181, Pitch_bend_c, 5, 8192
1, 182, Pitch_bend_c, 6, 8192
1, 183, Pitch_bend_c, 7, 8192
1, 184, Pitch_bend_c, 8, 8192
1, 185, Pitch_bend_c, 9, 8192
1, 186, Pitch_bend_c, 10, 8192
1, 187, Pitch_bend_c, 11, 8192
1, 188, Pitch_bend_c, 12, 8192
1, 189, Pitch_bend_c, 13, 8192
1, 190, Pitch_bend_c, 14, 8192
1, 190, Control_c, 0, 101, 0
1, 191, Control_c, 0, 100, 0
1, 192, Control_c, 0, 6, 2
1, 193, Control_c, 0, 38, 0
1, 193, Control_c, 1, 101, 0
1, 194, Control_c, 1, 100, 0
1, 195, Control_c, 1, 6, 2
1, 196, Control_c, 1, 38, 0
1, 198, Control_c, 2, 101, 0
1, 199, Control_c, 2, 100, 0
1, 200, Control_c, 2, 6, 2
1, 201, Control_c, 2, 38, 0
1, 203, Control_c, 3, 101, 0
1, 204, Control_c, 3, 100, 0
1, 205, Control_c, 3, 6, 2
1, 206, Control_c, 3, 38, 0
1, 208, Control_c, 4, 101, 0
1, 209, Control_c, 4, 100, 0
1, 210, Control_c, 4, 6, 2
1, 211, Control_c, 4, 38, 0
1, 213, Control_c, 5, 101, 0
1, 214, Control_c, 5, 100, 0
1, 215, Control_c, 5, 6, 2
1, 216, Control_c, 5, 38, 0
1, 218, Control_c, 6, 101, 0
1, 219, Control_c, 6, 100, 0
1, 220, Control_c, 6, 6, 2
1, 221, Control_c, 6, 38, 0
1, 223, Control_c, 7, 101, 0
1, 224, Control_c, 7, 100, 0
1, 225, Control_c, 7, 6, 2
1, 226, Control_c, 7, 38, 0
1, 228, Control_c, 8, 101, 0
1, 229, Control_c, 8, 100, 0
1, 230, Control_c, 8, 6, 12
1, 231, Control_c, 8, 38, 0
1, 233, Control_c, 10, 101, 0
1, 234, Control_c, 10, 100, 0
1, 235, Control_c, 10, 6, 2
1, 236, Control_c, 10, 38, 0
1, 238, Control_c, 11, 101, 0
1, 239, Control_c, 11, 100, 0
1, 240, Control_c, 11, 6, 2
1, 241, Control_c, 11, 38, 0
1, 243, Control_c, 12, 101, 0
1, 244, Control_c, 12, 100, 0
1, 245, Control_c, 12, 6, 2
1, 246, Control_c, 12, 38, 0
1, 248, Control_c, 13, 101, 0
1, 249, Control_c, 13, 100, 0
1, 250, Control_c, 13, 6, 2
1, 251, Control_c, 13, 38, 0
1, 253, Control_c, 14, 101, 0
1, 254, Control_c, 14, 100, 0
1, 255, Control_c, 14, 6, 2
1, 256, Control_c, 14, 38, 0
1, 271, Control_c, 0, 64, 0
1, 272, Control_c, 1, 64, 0
1, 273, Control_c, 2, 64, 0
1, 274, Control_c, 3, 64, 0
1, 275, Control_c, 4, 64, 0
1, 276, Control_c, 5, 64, 0
1, 277, Control_c, 6, 64, 0
1, 278, Control_c, 7, 64, 0
1, 279, Control_c, 8, 64, 0
1, 280, Control_c, 9, 64, 0
1, 281, Control_c, 10, 64, 0
1, 282, Control_c, 11, 64, 0
1, 283, Control_c, 12, 64, 0
1, 284, Control_c, 13, 64, 0
1, 285, Control_c, 14, 64, 0
1, 384, Control_c, 6, 11, 121
1, 390, Control_c, 6, 11, 93
1, 396, Control_c, 6, 11, 60
1, 402, Control_c, 6, 11, 28
1, 408, Control_c, 6, 11, 1
1, 414, Control_c, 6, 11, 0
1, 1152, Pitch_bend_c, 12, 6144
1, 1152, Pitch_bend_c, 13, 5888
1, 1153, Pitch_bend_c, 12, 6528
1, 1153, Pitch_bend_c, 13, 5632
1, 1154, Pitch_bend_c, 12, 6912
1, 1154, Pitch_bend_c, 13, 5120
1, 1155, Pitch_bend_c, 12, 7168
1, 1155, Pitch_bend_c, 13, 4864
1, 1156, Pitch_bend_c, 12, 7424
1, 1156, Pitch_bend_c, 13, 4608
1, 1157, Pitch_bend_c, 12, 7680
1, 1157, Pitch_bend_c, 13, 4224
1, 1158, Pitch_bend_c, 12, 7936
1, 1158, Pitch_bend_c, 13, 3968
1, 1159, Pitch_bend_c, 13, 3712
1, 1160, Pitch_bend_c, 13, 3456
1, 1161, Pitch_bend_c, 13, 3200
1, 1162, Pitch_bend_c, 13, 2944
1, 1163, Pitch_bend_c, 13, 2688
1, 1164, Pitch_bend_c, 13, 2432
1, 1165, Pitch_bend_c, 13, 2048
1, 1166, Pitch_bend_c, 13, 1536
1, 1176, Pitch_bend_c, 13, 1920
1, 1177, Pitch_bend_c, 13, 2304
1, 1179, Pitch_bend_c, 13, 2816
1, 1180, Pitch_bend_c, 13, 3328
1, 1181, Pitch_bend_c, 13, 3584
1, 1182, Pitch_bend_c, 13, 4096
1, 1183, Pitch_bend_c, 13, 4352
1, 1184, Pitch_bend_c, 13, 4608
1, 1185, Pitch_bend_c, 13, 4992
1, 1186, Pitch_bend_c, 13, 5376
1, 1187, Pitch_bend_c, 13, 5760
1, 1188, Pitch_bend_c, 13, 6144
1, 1190, Pitch_bend_c, 13, 6656
1, 1191, Pitch_bend_c, 13, 7168
1, 1193, Pitch_bend_c, 13, 7936
1, 1196, Pitch_bend_c, 13, 8192
1, 1920, Note_on_c, 9, 44, 75
1, 1924, Note_on_c, 9, 44, 0
1, 2016, Note_on_c, 9, 44, 45
1, 2020, Note_on_c, 9, 44, 0
1, 2112, Note_on_c, 6, 62, 39
1, 2112, Note_on_c, 6, 67, 38
1, 2112, Note_on_c, 9, 44, 56
1, 2112, Note_on_c, 10, 96, 30
1, 2113, Note_on_c, 6, 79, 41
1, 2116, Note_on_c, 9, 44, 0
1, 2208, Note_on_c, 9, 44, 46
1, 2212, Note_on_c, 9, 44, 0
1, 2229, Control_c, 6, 11, 1
1, 2246, Control_c, 6, 11, 2
1, 2264, Control_c, 6, 11, 3
1, 2281, Control_c, 6, 11, 4
1, 2296, Control_c, 6, 11, 5
1, 2303, Control_c, 6, 11, 6
1, 2304, Note_on_c, 11, 89, 2
1, 2310, Control_c, 6, 11, 8
1, 2316, Control_c, 6, 11, 11
1, 2325, Control_c, 6, 11, 13
1, 2335, Control_c, 6, 11, 15
1, 2342, Control_c, 6, 11, 18
1, 2345, Note_on_c, 11, 89, 0
1, 2349, Note_on_c, 11, 88, 2
1, 2350, Control_c, 6, 11, 21
1, 2358, Control_c, 6, 11, 23
1, 2364, Control_c, 6, 11, 25
1, 2372, Control_c, 6, 11, 27
1, 2379, Control_c, 6, 11, 28
1, 2385, Control_c, 6, 11, 29
1, 2392, Control_c, 6, 11, 31
1, 2399, Control_c, 6, 11, 34
1, 2400, Note_on_c, 9, 44, 76
1, 2404, Note_on_c, 9, 44, 0
1, 2410, Control_c, 6, 11, 36
1, 2419, Control_c, 6, 11, 38
1, 2433, Control_c, 6, 11, 39
1, 2439, Control_c, 6, 11, 41
1, 2445, Control_c, 6, 11, 43
1, 2451, Control_c, 6, 11, 45
1, 2458, Control_c, 6, 11, 47
1, 2460, Note_on_c, 11, 88, 0
1, 2466, Control_c, 6, 11, 49
1, 2473, Note_on_c, 11, 89, 3
1, 2474, Control_c, 6, 11, 50
1, 2481, Control_c, 6, 11, 51
1, 2489, Control_c, 6, 11, 52
1, 2502, Control_c, 6, 11, 53
1, 2504, Note_on_c, 11, 88, 3
1, 2505, Note_on_c, 11, 89, 0
1, 2518, Control_c, 6, 11, 54
1, 2532, Control_c, 6, 11, 55
1, 2548, Note_on_c, 11, 88, 0
1, 2550, Control_c, 6, 11, 56
1, 2554, Note_on_c, 11, 89, 3
1, 2557, Control_c, 6, 11, 58
1, 2568, Control_c, 6, 11, 59
1, 2576, Control_c, 6, 11, 61
1, 2586, Control_c, 6, 11, 62
1, 2592, Control_c, 6, 11, 63
1, 2592, Note_on_c, 9, 44, 77
1, 2596, Note_on_c, 9, 44, 0
1, 2599, Control_c, 6, 11, 64
1, 2606, Control_c, 6, 11, 65
1, 2609, Note_on_c, 11, 89, 0
1, 2615, Control_c, 6, 11, 66
1, 2619, Note_on_c, 11, 88, 3
1, 2621, Control_c, 6, 11, 67
1, 2631, Control_c, 6, 11, 68
1, 2642, Control_c, 6, 11, 69
1, 2649, Control_c, 6, 11, 70
1, 2656, Note_on_c, 1, 29, 61
1, 2663, Control_c, 6, 11, 71
1, 2674, Control_c, 6, 11, 72
1, 2681, Control_c, 6, 11, 73
1, 2688, Note_on_c, 1, 29, 0
1, 2688, Note_on_c, 1, 31, 98
1, 2688, Note_on_c, 2, 53, 65
1, 2688, Note_on_c, 9, 35, 116
1, 2688, Note_on_c, 9, 42, 106
1, 2692, Note_on_c, 9, 42, 0
1, 2692, Note_on_c, 9, 35, 0
1, 2695, Note_on_c, 2, 53, 0
1, 2695, Note_on_c, 12, 89, 39
1, 2695, Pitch_bend_c, 12, 8192
1, 2720, Note_on_c, 12, 89, 0
1, 2720, Note_on_c, 9, 69, 66
1, 2724, Note_on_c, 9, 69, 0
1, 2729, Note_on_c, 1, 31, 0
1, 2745, Note_on_c, 13, 79, 28
1, 2751, Note_on_c, 2, 53, 76
1, 2751, Note_on_c, 3, 53, 66
1, 2751, Note_on_c, 5, 67, 37
1, 2752, Note_on_c, 2, 62, 68
1, 2752, Note_on_c, 2, 58, 70
1, 2752, Note_on_c, 2, 50, 71
1, 2752, Note_on_c, 9, 44, 116
1, 2752, Note_on_c, 9, 69, 66
1, 2753, Note_on_c, 1, 31, 96
1, 2756, Note_on_c, 9, 69, 0
1, 2756, Note_on_c, 9, 44, 0
1, 2758, Pitch_bend_c, 13, 8064
1, 2759, Note_on_c, 12, 89, 33
1, 2759, Pitch_bend_c, 13, 7680
1, 2760, Pitch_bend_c, 13, 7424
1, 2761, Pitch_bend_c, 13, 7040
1, 2762, Pitch_bend_c, 13, 6784
1, 2763, Pitch_bend_c, 13, 6272
1, 2764, Pitch_bend_c, 13, 5760
1, 2765, Pitch_bend_c, 13, 5376
1, 2766, Note_on_c, 5, 67, 0
1, 2766, Pitch_bend_c, 13, 4736
1, 2767, Pitch_bend_c, 13, 4352
1, 2768, Note_on_c, 1, 31, 0
1, 2768, Pitch_bend_c, 13, 4096
1, 2769, Pitch_bend_c, 13, 3584
1, 2770, Pitch_bend_c, 13, 3328
1, 2771, Pitch_bend_c, 13, 2816
1, 2772, Pitch_bend_c, 13, 2432
1, 2774, Pitch_bend_c, 13, 2048
1, 2775, Note_on_c, 13, 79, 0
1, 2775, Pitch_bend_c, 13, 1024
1, 2776, Pitch_bend_c, 5, 8064
1, 2777, Pitch_bend_c, 5, 7808
1, 2778, Pitch_bend_c, 5, 7296
1, 2779, Pitch_bend_c, 5, 7040
1, 2780, Pitch_bend_c, 5, 6528
1, 2781, Pitch_bend_c, 5, 6400
1, 2782, Pitch_bend_c, 5, 6016
1, 2783, Pitch_bend_c, 5, 5888
1, 2784, Pitch_bend_c, 5, 5376
1, 2784, Note_on_c, 9, 38, 117
1, 2784, Note_on_c, 9, 42, 97
1, 2785, Pitch_bend_c, 5, 5120
1, 2785, Note_on_c, 9, 59, 88
1, 2786, Pitch_bend_c, 5, 4864
1, 2787, Pitch_bend_c, 5, 4352
1, 2788, Note_on_c, 9, 42, 0
1, 2788, Note_on_c, 9, 38, 0
1, 2788, Note_on_c, 12, 89, 0
1, 2788, Pitch_bend_c, 5, 4224
1, 2788, Note_on_c, 5, 74, 65
1, 2788, Pitch_bend_c, 13, 1664
1, 2789, Note_on_c, 9, 59, 0
1, 2789, Pitch_bend_c, 5, 3968
1, 2790, Pitch_bend_c, 5, 3840
1, 2791, Pitch_bend_c, 5, 3584
1, 2792, Pitch_bend_c, 5, 3456
1, 2793, Pitch_bend_c, 5, 3328
1, 2794, Pitch_bend_c, 13, 2304
1, 2796, Pitch_bend_c, 5, 3456
1, 2797, Pitch_bend_c, 13, 2688
1, 2798, Pitch_bend_c, 5, 3712
1, 2798, Pitch_bend_c, 13, 3072
1, 2799, Note_on_c, 1, 31, 93
1, 2799, Pitch_bend_c, 5, 3968
1, 2799, Pitch_bend_c, 13, 3456
1, 2800, Pitch_bend_c, 5, 4224
1, 2801, Pitch_bend_c, 5, 4736
1, 2801, Pitch_bend_c, 13, 3712
1, 2802, Pitch_bend_c, 13, 4224
1, 2803, Pitch_bend_c, 5, 5120
1, 2803, Pitch_bend_c, 13, 4736
1, 2804, Pitch_bend_c, 5, 5760
1, 2804, Pitch_bend_c, 13, 4992
1, 2805, Pitch_bend_c, 5, 6016
1, 2805, Pitch_bend_c, 13, 5760
1, 2806, Pitch_bend_c, 5, 6400
1, 2807, Pitch_bend_c, 5, 6528
1, 2807, Pitch_bend_c, 13, 6400
1, 2808, Pitch_bend_c, 5, 6912
1, 2809, Pitch_bend_c, 5, 7040
1, 2809, Pitch_bend_c, 13, 6784
1, 2810, Pitch_bend_c, 5, 7296
1, 2810, Pitch_bend_c, 13, 7168
1, 2811, Pitch_bend_c, 5, 7424
1, 2811, Pitch_bend_c, 13, 7680
1, 2812, Pitch_bend_c, 5, 7680
1, 2813, Pitch_bend_c, 5, 7808
1, 2813, Pitch_bend_c, 13, 8192
1, 2814, Pitch_bend_c, 5, 8064
1, 2815, Pitch_bend_c, 5, 8192
1, 2823, Note_on_c, 13, 79, 29
1, 2826, Note_on_c, 1, 31, 0
1, 2835, Note_on_c, 12, 89, 33
1, 2842, Pitch_bend_c, 13, 7552
1, 2843, Pitch_bend_c, 13, 7168
1, 2845, Pitch_bend_c, 13, 6784
1, 2846, Pitch_bend_c, 13, 6528
1, 2847, Pitch_bend_c, 13, 6272
1, 2848, Note_on_c, 9, 44, 107
1, 2848, Note_on_c, 9, 69, 67
1, 2848, Pitch_bend_c, 13, 5760
1, 2849, Note_on_c, 1, 31, 90
1, 2849, Pitch_bend_c, 13, 5504
1, 2850, Pitch_bend_c, 13, 5120
1, 2851, Pitch_bend_c, 13, 4864
1, 2852, Note_on_c, 9, 69, 0
1, 2852, Note_on_c, 9, 44, 0
1, 2852, Pitch_bend_c, 13, 4224
1, 2853, Pitch_bend_c, 13, 3968
1, 2854, Note_on_c, 11, 88, 0
1, 2854, Pitch_bend_c, 13, 3328
1, 2855, Pitch_bend_c, 13, 2944
1, 2857, Pitch_bend_c, 13, 2304
1, 2860, Pitch_bend_c, 13, 1792
1, 2861, Note_on_c, 13, 79, 0
1, 2861, Note_on_c, 12, 89, 0
1, 2863, Pitch_bend_c, 12, 7296
1, 2864, Note_on_c, 1, 31, 0
1, 2872, Note_on_c, 2, 58, 0
1, 2875, Note_on_c, 2, 62, 0
1, 2876, Pitch_bend_c, 13, 2176
1, 2879, Pitch_bend_c, 13, 2688
1, 2880, Note_on_c, 2, 53, 0
1, 2880, Note_on_c, 2, 61, 65
1, 2880, Note_on_c, 9, 35, 117
1, 2880, Note_on_c, 9, 42, 107
1, 2880, Pitch_bend_c, 12, 7808
1, 2881, Note_on_c, 2, 50, 0
1, 2881, Note_on_c, 1, 31, 95
1, 2881, Note_on_c, 2, 49, 70
1, 2881, Note_on_c, 2, 57, 65
1, 2882, Note_on_c, 3, 53, 0
1, 2882, Note_on_c, 2, 52, 69
1, 2882, Note_on_c, 3, 52, 56
1, 2883, Note_on_c, 5, 74, 0
1, 2883, Note_on_c, 5, 73, 62
1, 2883, Pitch_bend_c, 13, 3072
1, 2884, Note_on_c, 9, 35, 0
1, 2884, Note_on_c, 9, 42, 0
1, 2884, Pitch_bend_c, 12, 8192
1, 2885, Pitch_bend_c, 13, 3456
1, 2887, Pitch_bend_c, 13, 3840
1, 2889, Pitch_bend_c, 13, 4096
1, 2890, Pitch_bend_c, 13, 4480
1, 2891, Pitch_bend_c, 13, 4736
1, 2892, Pitch_bend_c, 13, 5376
1, 2893, Pitch_bend_c, 13, 6016
1, 2894, Pitch_bend_c, 13, 6528
1, 2895, Pitch_bend_c, 13, 7168
1, 2897, Note_on_c, 2, 49, 0
1, 2897, Pitch_bend_c, 13, 8192
1, 2899, Note_on_c, 12, 89, 32
1, 2901, Note_on_c, 2, 61, 0
1, 2902, Note_on_c, 5, 73, 0
1, 2902, Note_on_c, 2, 57, 0
1, 2906, Note_on_c, 2, 52, 0
1, 2910, Note_on_c, 1, 31, 0
1, 2912, Note_on_c, 9, 69, 67
1, 2914, Pitch_bend_c, 12, 7552
1, 2916, Note_on_c, 9, 69, 0
1, 2919, Pitch_bend_c, 12, 6784
1, 2932, Note_on_c, 12, 89, 0
1, 2934, Pitch_bend_c, 12, 7552
1, 2940, Pitch_bend_c, 12, 8192
1, 2942, Note_on_c, 2, 49, 70
1, 2943, Note_on_c, 2, 57, 68
1, 2943, Note_on_c, 2, 61, 69
1, 2944, Note_on_c, 1, 31, 90
1, 2944, Note_on_c, 2, 52, 70
1, 2944, Note_on_c, 9, 44, 117
1, 2947, Note_on_c, 5, 73, 68
1, 2948, Note_on_c, 9, 44, 0
1, 2960, Note_on_c, 1, 31, 0
1, 2967, Note_on_c, 12, 89, 23
1, 2976, Note_on_c, 1, 31, 96
1, 2976, Note_on_c, 9, 42, 107
1, 2976, Note_on_c, 9, 38, 117
1, 2980, Note_on_c, 9, 38, 0
1, 2980, Note_on_c, 9, 42, 0
1, 3003, Note_on_c, 12, 89, 0
1, 3017, Note_on_c, 1, 31, 0
1, 3040, Note_on_c, 1, 31, 94
1, 3040, Note_on_c, 9, 69, 67
1, 3040, Note_on_c, 9, 44, 107
1, 3044, Note_on_c, 9, 44, 0
1, 3044, Note_on_c, 9, 69, 0
1, 3047, Note_on_c, 5, 73, 0
1, 3047, Note_on_c, 5, 67, 40
1, 3058, Note_on_c, 1, 31, 0
1, 3058, Note_on_c, 2, 57, 0
1, 3059, Note_on_c, 5, 67, 0
1, 3059, Note_on_c, 3, 52, 0
1, 3060, Note_on_c, 2, 61, 0
1, 3070, Note_on_c, 2, 52, 0
1, 3072, Note_on_c, 1, 31, 97
1, 3072, Note_on_c, 3, 53, 68
1, 3072, Note_on_c, 9, 42, 108
1, 3072, Note_on_c, 9, 35, 118
1, 3072, Note_on_c, 9, 59, 70
1, 3073, Note_on_c, 2, 57, 66
1, 3073, Note_on_c, 2, 53, 72
1, 3073, Note_on_c, 2, 48, 71
1, 3073, Note_on_c, 2, 60, 65
1, 3075, Note_on_c, 5, 72, 57
1, 3075, Note_on_c, 12, 89, 27
1, 3076, Note_on_c, 9, 59, 0
1, 3076, Note_on_c, 9, 35, 0
1, 3076, Note_on_c, 9, 42, 0
1, 3076, Note_on_c, 13, 86, 42
1, 3080, Note_on_c, 2, 49, 0
1, 3089, Pitch_bend_c, 13, 7040
1, 3096, Note_on_c, 12, 89, 0
1, 3096, Note_on_c, 2, 60, 0
1, 3096, Note_on_c, 2, 53, 0
1, 3097, Note_on_c, 2, 57, 0
1, 3098, Note_on_c, 2, 48, 0
1, 3099, Pitch_bend_c, 13, 6144
1, 3104, Note_on_c, 9, 69, 68
1, 3108, Note_on_c, 9, 69, 0
1, 3109, Pitch_bend_c, 13, 5504
1, 3113, Note_on_c, 1, 31, 0
1, 3120, Pitch_bend_c, 13, 5376
1, 3123, Pitch_bend_c, 13, 4480
1, 3134, Pitch_bend_c, 13, 3968
1, 3136, Note_on_c, 1, 31, 89
1, 3136, Note_on_c, 2, 60, 66
1, 3136, Note_on_c, 2, 57, 67
1, 3136, Note_on_c, 2, 53, 71
1, 3136, Note_on_c, 2, 48, 71
1, 3136, Note_on_c, 9, 44, 118
1, 3136, Note_on_c, 9, 69, 68
1, 3136, Note_on_c, 9, 59, 81
1, 3140, Note_on_c, 9, 59, 0
1, 3140, Note_on_c, 9, 69, 0
1, 3140, Note_on_c, 9, 44, 0
1, 3140, Note_on_c, 12, 89, 36
1, 3144, Pitch_bend_c, 13, 3456
1, 3147, Pitch_bend_c, 12, 7040
1, 3149, Note_on_c, 1, 31, 0
1, 3154, Note_on_c, 10, 96, 0
1, 3154, Pitch_bend_c, 12, 6016
1, 3155, Pitch_bend_c, 13, 2816
1, 3159, Pitch_bend_c, 12, 5376
1, 3163, Pitch_bend_c, 12, 4608
1, 3166, Note_on_c, 5, 72, 0
1, 3166, Pitch_bend_c, 13, 1920
1, 3168, Note_on_c, 1, 31, 98
1, 3168, Note_on_c, 9, 42, 98
1, 3168, Note_on_c, 9, 38, 118
1, 3171, Note_on_c, 5, 70, 68
1, 3172, Note_on_c, 9, 38, 0
1, 3172, Note_on_c, 9, 42, 0
1, 3172, Note_on_c, 12, 89, 0
1, 3174, Pitch_bend_c, 12, 5120
1, 3176, Pitch_bend_c, 13, 1792
1, 3177, Note_on_c, 13, 86, 0
1, 3177, Pitch_bend_c, 13, 1152
1, 3179, Pitch_bend_c, 12, 6144
1, 3183, Pitch_bend_c, 12, 6656
1, 3185, Pitch_bend_c, 12, 7040
1, 3186, Pitch_bend_c, 12, 7424
1, 3188, Pitch_bend_c, 12, 7936
1, 3188, Pitch_bend_c, 13, 1408
1, 3189, Pitch_bend_c, 12, 8192
1, 3197, Pitch_bend_c, 13, 1792
1, 3199, Pitch_bend_c, 13, 2304
1, 3201, Pitch_bend_c, 13, 2560
1, 3202, Pitch_bend_c, 13, 2944
1, 3203, Pitch_bend_c, 13, 3456
1, 3205, Pitch_bend_c, 13, 4224
1, 3208, Pitch_bend_c, 13, 5120
1, 3210, Note_on_c, 2, 53, 0
1, 3211, Note_on_c, 1, 31, 0
1, 3212, Note_on_c, 2, 60, 0
1, 3212, Pitch_bend_c, 13, 6016
1, 3213, Note_on_c, 12, 89, 33
1, 3214, Note_on_c, 2, 57, 0
1, 3217, Pitch_bend_c, 13, 6400
1, 3219, Pitch_bend_c, 13, 7168
1, 3222, Note_on_c, 3, 53, 0
1, 3225, Pitch_bend_c, 13, 7552
1, 3227, Pitch_bend_c, 13, 7936
1, 3228, Note_on_c, 2, 48, 0
1, 3229, Note_on_c, 5, 70, 0
1, 3229, Pitch_bend_c, 13, 8192
1, 3230, Note_on_c, 5, 67, 69
1, 3231, Note_on_c, 2, 55, 73
1, 3232, Note_on_c, 1, 31, 93
1, 3232, Note_on_c, 2, 50, 71
1, 3232, Note_on_c, 3, 50, 55
1, 3232, Note_on_c, 9, 69, 68
1, 3232, Note_on_c, 9, 44, 108
1, 3232, Note_on_c, 9, 59, 88
1, 3233, Note_on_c, 2, 59, 67
1, 3233, Pitch_bend_c, 12, 7808
1, 3236, Note_on_c, 9, 59, 0
1, 3236, Note_on_c, 9, 69, 0
1, 3236, Note_on_c, 9, 44, 0
1, 3236, Pitch_bend_c, 12, 7296
1, 3239, Pitch_bend_c, 12, 6784
1, 3240, Pitch_bend_c, 12, 6272
1, 3242, Pitch_bend_c, 12, 5760
1, 3244, Pitch_bend_c, 12, 5376
1, 3246, Pitch_bend_c, 12, 4864
1, 3248, Note_on_c, 1, 31, 0
1, 3248, Pitch_bend_c, 12, 4480
1, 3249, Pitch_bend_c, 12, 4096
1, 3250, Pitch_bend_c, 12, 2688
1, 3264, Note_on_c, 1, 31, 98
1, 3264, Note_on_c, 9, 42, 108
1, 3264, Note_on_c, 9, 35, 118
1, 3265, Pitch_bend_c, 12, 2944
1, 3267, Pitch_bend_c, 12, 3456
1, 3268, Note_on_c, 9, 35, 0
1, 3268, Note_on_c, 9, 42, 0
1, 3270, Pitch_bend_c, 12, 3968
1, 3272, Pitch_bend_c, 12, 4224
1, 3273, Pitch_bend_c, 12, 4480
1, 3274, Pitch_bend_c, 12, 4864
1, 3275, Pitch_bend_c, 12, 5120
1, 3276, Note_on_c, 12, 89, 0
1, 3276, Pitch_bend_c, 12, 5504
1, 3277, Pitch_bend_c, 12, 5888
1, 3278, Pitch_bend_c, 12, 6272
1, 3279, Pitch_bend_c, 12, 6656
1, 3281, Pitch_bend_c, 12, 7424
1, 3284, Pitch_bend_c, 12, 8192
1, 3296, Note_on_c, 9, 69, 68
1, 3300, Note_on_c, 9, 69, 0
1, 3304, Note_on_c, 12, 89, 40
1, 3305, Note_on_c, 1, 31, 0
1, 3326, Pitch_bend_c, 5, 8064
1, 3328, Note_on_c, 1, 31, 91
1, 3328, Pitch_bend_c, 5, 7808
1, 3328, Note_on_c, 9, 69, 68
1, 3328, Note_on_c, 9, 44, 118
1, 3328, Note_on_c, 9, 51, 88
1, 3329, Pitch_bend_c, 5, 7552
1, 3330, Pitch_bend_c, 5, 7424
1, 3331, Pitch_bend_c, 5, 7040
1, 3332, Note_on_c, 9, 51, 0
1, 3332, Note_on_c, 9, 44, 0
1, 3332, Note_on_c, 9, 69, 0
1, 3332, Pitch_bend_c, 5, 6784
1, 3333, Pitch_bend_c, 5, 6528
1, 3334, Pitch_bend_c, 5, 6272
1, 3335, Pitch_bend_c, 5, 6016
1, 3336, Pitch_bend_c, 5, 5632
1, 3336, Pitch_bend_c, 12, 7936
1, 3337, Pitch_bend_c, 5, 5120
1, 3338, Pitch_bend_c, 5, 4992
1, 3338, Pitch_bend_c, 12, 6144
1, 3339, Pitch_bend_c, 5, 4864
1, 3340, Pitch_bend_c, 5, 4480
1, 3341, Pitch_bend_c, 5, 4352
1, 3342, Note_on_c, 1, 31, 0
1, 3342, Pitch_bend_c, 5, 3968
1, 3343, Pitch_bend_c, 5, 3840
1, 3344, Pitch_bend_c, 5, 3712
1, 3345, Pitch_bend_c, 5, 3584
1, 3346, Note_on_c, 3, 50, 0
1, 3346, Pitch_bend_c, 5, 3328
1, 3347, Pitch_bend_c, 5, 3072
1, 3348, Pitch_bend_c, 12, 5376
1, 3349, Pitch_bend_c, 5, 2944
1, 3350, Pitch_bend_c, 5, 2816
1, 3351, Pitch_bend_c, 12, 5120
1, 3353, Pitch_bend_c, 12, 4480
1, 3356, Pitch_bend_c, 5, 2944
1, 3357, Pitch_bend_c, 12, 3456
1, 3358, Pitch_bend_c, 5, 3072
1, 3360, Note_on_c, 1, 31, 97
1, 3360, Note_on_c, 3, 53, 87
1, 3360, Pitch_bend_c, 5, 3200
1, 3360, Note_on_c, 9, 38, 118
1, 3360, Note_on_c, 9, 42, 108
1, 3361, Pitch_bend_c, 5, 3328
1, 3361, Note_on_c, 9, 59, 95
1, 3362, Pitch_bend_c, 5, 3456
1, 3363, Pitch_bend_c, 5, 3584
1, 3364, Note_on_c, 9, 42, 0
1, 3364, Note_on_c, 9, 38, 0
1, 3364, Pitch_bend_c, 5, 3840
1, 3365, Note_on_c, 9, 59, 0
1, 3365, Pitch_bend_c, 5, 4096
1, 3366, Pitch_bend_c, 5, 4224
1, 3367, Pitch_bend_c, 5, 4480
1, 3368, Pitch_bend_c, 5, 4608
1, 3369, Pitch_bend_c, 5, 4736
1, 3369, Pitch_bend_c, 12, 3456
1, 3370, Pitch_bend_c, 5, 5120
1, 3371, Pitch_bend_c, 5, 5376
1, 3372, Pitch_bend_c, 5, 5760
1, 3373, Pitch_bend_c, 5, 5888
1, 3374, Note_on_c, 12, 89, 0
1, 3374, Pitch_bend_c, 5, 6144
1, 3375, Pitch_bend_c, 5, 6400
1, 3376, Pitch_bend_c, 5, 6528
1, 3377, Pitch_bend_c, 5, 6912
1, 3378, Pitch_bend_c, 5, 7040
1, 3378, Pitch_bend_c, 12, 3968
1, 3379, Pitch_bend_c, 5, 7424
1, 3380, Pitch_bend_c, 5, 7552
1, 3380, Pitch_bend_c, 12, 4352
1, 3381, Pitch_bend_c, 5, 7936
1, 3382, Pitch_bend_c, 5, 8192
1, 3382, Pitch_bend_c, 12, 4992
1, 3384, Pitch_bend_c, 12, 5632
1, 3385, Pitch_bend_c, 12, 6144
1, 3386, Pitch_bend_c, 12, 6400
1, 3387, Pitch_bend_c, 12, 7040
1, 3389, Pitch_bend_c, 12, 7296
1, 3390, Pitch_bend_c, 12, 7680
1, 3391, Pitch_bend_c, 12, 8192
1, 3392, Note_on_c, 9, 69, 68
1, 3396, Note_on_c, 9, 69, 0
1, 3396, Note_on_c, 1, 31, 0
1, 3401, Note_on_c, 12, 89, 44
1, 3404, Note_on_c, 5, 67, 0
1, 3424, Note_on_c, 3, 53, 0
1, 3424, Note_on_c, 1, 31, 100
1, 3424, Note_on_c, 3, 55, 69
1, 3424, Note_on_c, 9, 44, 109
1, 3424, Note_on_c, 9, 69, 69
1, 3425, Note_on_c, 9, 59, 83
1, 3426, Note_on_c, 2, 50, 0
1, 3428, Note_on_c, 9, 69, 0
1, 3428, Note_on_c, 9, 44, 0
1, 3429, Note_on_c, 9, 59, 0
1, 3430, Note_on_c, 2, 55, 0
1, 3436, Pitch_bend_c, 12, 6272
1, 3441, Note_on_c, 2, 59, 0
1, 3443, Note_on_c, 1, 31, 0
1, 3446, Pitch_bend_c, 12, 5376
1, 3450, Pitch_bend_c, 12, 3712
1, 3456, Note_on_c, 1, 31, 100
1, 3456, Note_on_c, 2, 53, 68
1, 3456, Note_on_c, 9, 35, 119
1, 3456, Note_on_c, 9, 42, 109
1, 3460, Note_on_c, 9, 42, 0
1, 3460, Note_on_c, 9, 35, 0
1, 3460, Pitch_bend_c, 12, 2816
1, 3463, Note_on_c, 2, 53, 0
1, 3464, Note_on_c, 3, 55, 0
1, 3465, Pitch_bend_c, 12, 1536
1, 3481, Pitch_bend_c, 12, 2176
1, 3485, Pitch_bend_c, 12, 2816
1, 3487, Pitch_bend_c, 12, 3072
1, 3488, Note_on_c, 9, 69, 69
1, 3488, Pitch_bend_c, 12, 3584
1, 3489, Pitch_bend_c, 12, 3968
1, 3490, Note_on_c, 12, 89, 0
1, 3490, Pitch_bend_c, 12, 4224
1, 3491, Pitch_bend_c, 12, 4864
1, 3492, Note_on_c, 9, 69, 0
1, 3492, Pitch_bend_c, 12, 5504
1, 3493, Pitch_bend_c, 12, 5760
1, 3494, Pitch_bend_c, 12, 6016
1, 3495, Pitch_bend_c, 12, 6400
1, 3496, Pitch_bend_c, 12, 6656
1, 3497, Note_on_c, 1, 31, 0
1, 3497, Pitch_bend_c, 12, 7296
1, 3498, Pitch_bend_c, 12, 7680
1, 3500, Pitch_bend_c, 12, 8192
1, 3518, Note_on_c, 12, 89, 42
1, 3519, Note_on_c, 2, 53, 79
1, 3519, Note_on_c, 3, 53, 73
1, 3520, Note_on_c, 1, 31, 92
1, 3520, Note_on_c, 2, 58, 73
1, 3520, Note_on_c, 2, 50, 74
1, 3520, Note_on_c, 2, 62, 71
1, 3520, Note_on_c, 9, 44, 119
1, 3520, Note_on_c, 9, 69, 69
1, 3521, Note_on_c, 9, 59, 68
1, 3524, Note_on_c, 9, 69, 0
1, 3524, Note_on_c, 9, 44, 0
1, 3525, Note_on_c, 9, 59, 0
1, 3525, Note_on_c, 5, 67, 39
1, 3535, Note_on_c, 1, 31, 0
1, 3546, Note_on_c, 5, 67, 0
1, 3552, Note_on_c, 1, 31, 97
1, 3552, Note_on_c, 9, 38, 119
1, 3552, Note_on_c, 9, 42, 99
1, 3552, Pitch_bend_c, 12, 7040
1, 3553, Note_on_c, 13, 74, 45
1, 3554, Note_on_c, 5, 74, 69
1, 3556, Note_on_c, 9, 42, 0
1, 3556, Note_on_c, 9, 38, 0
1, 3562, Pitch_bend_c, 12, 6912
1, 3563, Pitch_bend_c, 12, 6400
1, 3566, Pitch_bend_c, 12, 5376
1, 3571, Pitch_bend_c, 12, 4864
1, 3573, Pitch_bend_c, 12, 4224
1, 3576, Pitch_bend_c, 12, 2304
1, 3586, Pitch_bend_c, 13, 7040
1, 3587, Pitch_bend_c, 12, 2432
1, 3596, Note_on_c, 1, 31, 0
1, 3596, Pitch_bend_c, 13, 6400
1, 3597, Pitch_bend_c, 12, 3456
1, 3598, Note_on_c, 12, 89, 0
1, 3602, Pitch_bend_c, 12, 3840
1, 3603, Pitch_bend_c, 12, 4224
1, 3605, Pitch_bend_c, 12, 4736
1, 3606, Pitch_bend_c, 13, 5504
1, 3607, Pitch_bend_c, 12, 5120
1, 3608, Pitch_bend_c, 12, 5376
1, 3609, Pitch_bend_c, 12, 6272
1, 3613, Pitch_bend_c, 12, 7040
1, 3616, Note_on_c, 1, 31, 96
1, 3616, Note_on_c, 9, 44, 109
1, 3616, Note_on_c, 9, 69, 69
1, 3616, Pitch_bend_c, 12, 7936
1, 3617, Pitch_bend_c, 13, 5376
1, 3618, Pitch_bend_c, 13, 4736
1, 3620, Note_on_c, 9, 69, 0
1, 3620, Note_on_c, 9, 44, 0
1, 3620, Note_on_c, 5, 74, 0
1, 3620, Note_on_c, 5, 67, 54
1, 3620, Pitch_bend_c, 12, 8192
1, 3623, Note_on_c, 12, 89, 41
1, 3623, Pitch_bend_c, 13, 4096
1, 3627, Pitch_bend_c, 13, 3200
1, 3630, Note_on_c, 1, 31, 0
1, 3632, Pitch_bend_c, 13, 1920
1, 3637, Note_on_c, 5, 67, 0
1, 3640, Note_on_c, 2, 58, 0
1, 3643, Note_on_c, 2, 62, 0
1, 3643, Pitch_bend_c, 13, 2048
1, 3645, Note_on_c, 13, 74, 0
1, 3648, Note_on_c, 2, 53, 0
1, 3648, Note_on_c, 1, 31, 98
1, 3648, Note_on_c, 2, 61, 67
1, 3648, Note_on_c, 9, 42, 109
1, 3648, Note_on_c, 9, 35, 119
1, 3649, Note_on_c, 2, 50, 0
1, 3649, Note_on_c, 3, 53, 0
1, 3649, Note_on_c, 12, 89, 0
1, 3649, Note_on_c, 2, 49, 72
1, 3649, Note_on_c, 2, 57, 67
1, 3649, Note_on_c, 3, 52, 56
1, 3649, Note_on_c, 5, 73, 59
1, 3650, Note_on_c, 2, 52, 71
1, 3651, Pitch_bend_c, 13, 2560
1, 3652, Note_on_c, 9, 42, 0
1, 3652, Note_on_c, 9, 35, 0
1, 3654, Pitch_bend_c, 13, 3072
1, 3657, Pitch_bend_c, 13, 3328
1, 3658, Pitch_bend_c, 13, 3712
1, 3660, Pitch_bend_c, 13, 4352
1, 3661, Pitch_bend_c, 13, 4608
1, 3662, Pitch_bend_c, 13, 4992
1, 3663, Pitch_bend_c, 13, 5632
1, 3664, Pitch_bend_c, 13, 6272
1, 3665, Note_on_c, 2, 49, 0
1, 3667, Pitch_bend_c, 13, 7296
1, 3669, Note_on_c, 2, 61, 0
1, 3670, Note_on_c, 2, 57, 0
1, 3672, Pitch_bend_c, 13, 7936
1, 3674, Note_on_c, 2, 52, 0
1, 3675, Pitch_bend_c, 13, 8192
1, 3678, Note_on_c, 5, 73, 0
1, 3680, Note_on_c, 9, 69, 69
1, 3684, Note_on_c, 9, 69, 0
1, 3688, Note_on_c, 12, 89, 29
1, 3691, Note_on_c, 1, 31, 0
1, 3710, Note_on_c, 2, 49, 72
1, 3711, Note_on_c, 2, 61, 71
1, 3711, Note_on_c, 2, 57, 70
1, 3712, Note_on_c, 2, 52, 72
1, 3712, Note_on_c, 9, 44, 119
1, 3713, Note_on_c, 1, 31, 92
1, 3714, Note_on_c, 12, 89, 0
1, 3716, Note_on_c, 9, 44, 0
1, 3716, Note_on_c, 5, 73, 76
1, 3725, Note_on_c, 1, 31, 0
1, 3744, Note_on_c, 9, 38, 119
1, 3744, Note_on_c, 9, 42, 109
1, 3745, Note_on_c, 1, 31, 95
1, 3748, Note_on_c, 9, 42, 0
1, 3748, Note_on_c, 9, 38, 0
1, 3757, Note_on_c, 12, 89, 26
1, 3787, Note_on_c, 1, 31, 0
1, 3789, Note_on_c, 12, 89, 0
1, 3793, Pitch_bend_c, 12, 7424
1, 3803, Note_on_c, 5, 73, 0
1, 3803, Pitch_bend_c, 12, 6656
1, 3808, Note_on_c, 1, 31, 91
1, 3808, Note_on_c, 9, 69, 70
1, 3808, Note_on_c, 9, 44, 110
1, 3812, Note_on_c, 9, 44, 0
1, 3812, Note_on_c, 9, 69, 0
1, 3813, Pitch_bend_c, 12, 5760
1, 3818, Note_on_c, 5, 67, 33
1, 3821, Note_on_c, 1, 31, 0
1, 3823, Pitch_bend_c, 12, 5376
1, 3824, Note_on_c, 12, 89, 29
1, 3825, Note_on_c, 5, 67, 0
1, 3826, Note_on_c, 2, 57, 0
1, 3828, Note_on_c, 3, 52, 0
1, 3828, Note_on_c, 2, 61, 0
1, 3838, Note_on_c, 2, 52, 0
1, 3840, Note_on_c, 1, 31, 103
1, 3840, Note_on_c, 3, 48, 57
1, 3840, Note_on_c, 9, 35, 120
1, 3840, Note_on_c, 9, 42, 110
1, 3841, Note_on_c, 2, 48, 73
1, 3841, Note_on_c, 2, 60, 67
1, 3841, Note_on_c, 2, 53, 74
1, 3841, Note_on_c, 2, 57, 68
1, 3843, Note_on_c, 9, 59, 55
1, 3844, Note_on_c, 9, 42, 0
1, 3844, Note_on_c, 9, 35, 0
1, 3845, Note_on_c, 5, 72, 68
1, 3847, Note_on_c, 9, 59, 0
1, 3848, Note_on_c, 2, 49, 0
1, 3849, Pitch_bend_c, 12, 4608
1, 3859, Pitch_bend_c, 12, 3712
1, 3864, Note_on_c, 2, 60, 0
1, 3864, Note_on_c, 2, 53, 0
1, 3865, Note_on_c, 2, 57, 0
1, 3866, Note_on_c, 2, 48, 0
1, 3867, Note_on_c, 12, 89, 0
1, 3872, Note_on_c, 9, 69, 70
1, 3876, Note_on_c, 9, 69, 0
1, 3879, Pitch_bend_c, 12, 3968
1, 3882, Note_on_c, 1, 31, 0
1, 3882, Pitch_bend_c, 12, 4480
1, 3885, Pitch_bend_c, 12, 4992
1, 3887, Pitch_bend_c, 12, 5632
1, 3888, Pitch_bend_c, 12, 6400
1, 3892, Pitch_bend_c, 12, 7680
1, 3898, Pitch_bend_c, 12, 8192
1, 3904, Note_on_c, 1, 31, 92
1, 3904, Note_on_c, 2, 53, 73
1, 3904, Note_on_c, 2, 48, 73
1, 3904, Note_on_c, 2, 57, 69
1, 3904, Note_on_c, 2, 60, 68
1, 3904, Note_on_c, 9, 44, 120
1, 3904, Note_on_c, 9, 69, 70
1, 3908, Note_on_c, 9, 69, 0
1, 3908, Note_on_c, 9, 44, 0
1, 3916, Note_on_c, 1, 31, 0
1, 3921, Pitch_bend_c, 5, 8064
1, 3921, Note_on_c, 12, 89, 32
1, 3922, Pitch_bend_c, 5, 7680
1, 3923, Pitch_bend_c, 5, 7424
1, 3924, Pitch_bend_c, 5, 7040
1, 3925, Note_on_c, 5, 72, 0
1, 3925, Pitch_bend_c, 5, 6784
1, 3926, Pitch_bend_c, 5, 6400
1, 3927, Pitch_bend_c, 5, 6144
1, 3928, Pitch_bend_c, 5, 5760
1, 3930, Pitch_bend_c, 5, 5120
1, 3931, Pitch_bend_c, 5, 4992
1, 3932, Pitch_bend_c, 5, 4736
1, 3933, Pitch_bend_c, 5, 4224
1, 3934, Pitch_bend_c, 5, 4096
1, 3935, Pitch_bend_c, 5, 3584
1, 3936, Note_on_c, 1, 31, 102
1, 3936, Pitch_bend_c, 5, 3200
1, 3936, Note_on_c, 9, 42, 100
1, 3936, Note_on_c, 9, 38, 120
1, 3937, Pitch_bend_c, 5, 2944
1, 3938, Pitch_bend_c, 5, 2816
1, 3939, Pitch_bend_c, 5, 2432
1, 3940, Note_on_c, 9, 38, 0
1, 3940, Note_on_c, 9, 42, 0
1, 3940, Pitch_bend_c, 5, 2304
1, 3941, Pitch_bend_c, 5, 2176
1, 3942, Note_on_c, 5, 70, 77
1, 3942, Pitch_bend_c, 5, 2048
1, 3943, Pitch_bend_c, 5, 1792
1, 3945, Pitch_bend_c, 5, 1664
1, 3949, Pitch_bend_c, 12, 7680
1, 3951, Pitch_bend_c, 5, 1792
1, 3951, Pitch_bend_c, 12, 6144
1, 3953, Pitch_bend_c, 5, 1920
1, 3954, Pitch_bend_c, 5, 2048
1, 3955, Pitch_bend_c, 5, 2176
1, 3956, Pitch_bend_c, 5, 2304
1, 3957, Note_on_c, 12, 89, 0
1, 3957, Pitch_bend_c, 5, 2432
1, 3958, Pitch_bend_c, 5, 2560
1, 3959, Pitch_bend_c, 5, 2816
1, 3959, Pitch_bend_c, 12, 5376
1, 3960, Pitch_bend_c, 5, 2944
1, 3961, Pitch_bend_c, 5, 3328
1, 3963, Pitch_bend_c, 5, 3584
1, 3963, Pitch_bend_c, 12, 4480
1, 3964, Pitch_bend_c, 5, 3712
1, 3965, Pitch_bend_c, 5, 4096
1, 3966, Pitch_bend_c, 5, 4480
1, 3967, Pitch_bend_c, 5, 4608
1, 3968, Pitch_bend_c, 5, 4992
1, 3968, Pitch_bend_c, 12, 3968
1, 3969, Pitch_bend_c, 5, 5376
1, 3970, Pitch_bend_c, 5, 5760
1, 3971, Pitch_bend_c, 5, 5888
1, 3972, Pitch_bend_c, 5, 6144
1, 3973, Pitch_bend_c, 5, 6400
1, 3974, Pitch_bend_c, 5, 6528
1, 3975, Pitch_bend_c, 5, 6912
1, 3976, Pitch_bend_c, 5, 7040
1, 3977, Pitch_bend_c, 5, 7168
1, 3978, Note_on_c, 2, 53, 0
1, 3978, Pitch_bend_c, 5, 7424
1, 3979, Pitch_bend_c, 5, 7552
1, 3979, Pitch_bend_c, 12, 4480
1, 3980, Note_on_c, 2, 60, 0
1, 3980, Pitch_bend_c, 5, 7808
1, 3981, Pitch_bend_c, 5, 7936
1, 3982, Note_on_c, 2, 57, 0
1, 3982, Pitch_bend_c, 5, 8192
1, 3982, Pitch_bend_c, 12, 4864
1, 3983, Note_on_c, 1, 31, 0
1, 3984, Pitch_bend_c, 12, 5120
1, 3985, Pitch_bend_c, 12, 5632
1, 3986, Pitch_bend_c, 12, 6144
1, 3987, Pitch_bend_c, 12, 6656
1, 3988, Pitch_bend_c, 12, 7168
1, 3989, Pitch_bend_c, 12, 7424
1, 3990, Pitch_bend_c, 12, 7936
1, 3991, Pitch_bend_c, 12, 8192
1, 3996, Note_on_c, 2, 48, 0
1, 3996, Note_on_c, 3, 48, 0
1, 3998, Note_on_c, 5, 70, 0
1, 3998, Note_on_c, 5, 67, 66
1, 3999, Note_on_c, 2, 55, 75
1, 4000, Note_on_c, 1, 31, 92
1, 4000, Note_on_c, 2, 50, 73
1, 4000, Note_on_c, 3, 50, 70
1, 4000, Note_on_c, 9, 44, 110
1, 4000, Note_on_c, 9, 69, 70
1, 4001, Note_on_c, 2, 59, 69
1, 4001, Note_on_c, 9, 51, 79
1, 4001, Note_on_c, 12, 89, 38
1, 4004, Note_on_c, 9, 69, 0
1, 4004, Note_on_c, 9, 44, 0
1, 4005, Note_on_c, 9, 51, 0
1, 4014, Note_on_c, 1, 31, 0
1, 4025, Pitch_bend_c, 12, 7936
1, 4027, Pitch_bend_c, 12, 7040
1, 4031, Pitch_bend_c, 12, 6144
1, 4032, Note_on_c, 1, 31, 102
1, 4032, Note_on_c, 9, 42, 110
1, 4032, Note_on_c, 9, 35, 120
1, 4033, Note_on_c, 9, 59, 84
1, 4036, Note_on_c, 9, 35, 0
1, 4036, Note_on_c, 9, 42, 0
1, 4036, Pitch_bend_c, 12, 5376
1, 4037, Note_on_c, 9, 59, 0
1, 4040, Pitch_bend_c, 12, 4864
1, 4043, Pitch_bend_c, 12, 4096
1, 4048, Pitch_bend_c, 12, 3328
1, 4054, Pitch_bend_c, 12, 2304
1, 4064, Note_on_c, 9, 69, 71
1, 4066, Note_on_c, 9, 51, 74
1, 4066, Pitch_bend_c, 12, 2560
1, 4067, Note_on_c, 12, 89, 0
1, 4068, Note_on_c, 9, 69, 0
1, 4070, Note_on_c, 9, 51, 0
1, 4076, Note_on_c, 1, 31, 0
1, 4077, Pitch_bend_c, 12, 3200
1, 4079, Pitch_bend_c, 12, 3584
1, 4081, Pitch_bend_c, 12, 4096
1, 4082, Pitch_bend_c, 12, 4352
1, 4083, Pitch_bend_c, 12, 4992
1, 4084, Pitch_bend_c, 12, 5632
1, 4085, Pitch_bend_c, 12, 6016
1, 4086, Pitch_bend_c, 12, 6528
1, 4087, Pitch_bend_c, 12, 6784
1, 4088, Pitch_bend_c, 12, 7040
1, 4089, Pitch_bend_c, 12, 7680
1, 4090, Pitch_bend_c, 12, 7936
1, 4092, Pitch_bend_c, 12, 8192
1, 4092, Note_on_c, 13, 70, 47
1, 4096, Note_on_c, 9, 69, 71
1, 4096, Note_on_c, 9, 44, 121
1, 4097, Note_on_c, 5, 67, 0
1, 4097, Note_on_c, 1, 31, 86
1, 4098, Note_on_c, 5, 65, 48
1, 4099, Note_on_c, 9, 59, 73
1, 4099, Note_on_c, 12, 89, 49
1, 4100, Note_on_c, 9, 44, 0
1, 4100, Note_on_c, 9, 69, 0
1, 4103, Note_on_c, 9, 59, 0
1, 4103, Pitch_bend_c, 13, 6912
1, 4106, Note_on_c, 1, 31, 0
1, 4114, Pitch_bend_c, 13, 6656
1, 4117, Pitch_bend_c, 13, 6272
1, 4119, Pitch_bend_c, 13, 5504
1, 4122, Note_on_c, 5, 65, 0
1, 4122, Note_on_c, 5, 67, 63
1, 4125, Pitch_bend_c, 13, 4992
1, 4127, Pitch_bend_c, 13, 4608
1, 4128, Note_on_c, 1, 31, 100
1, 4128, Note_on_c, 9, 38, 121
1, 4128, Note_on_c, 9, 42, 111
1, 4129, Note_on_c, 3, 50, 0
1, 4129, Note_on_c, 3, 53, 83
1, 4130, Pitch_bend_c, 13, 4224
1, 4132, Note_on_c, 9, 42, 0
1, 4132, Note_on_c, 9, 38, 0
1, 4133, Pitch_bend_c, 13, 3328
1, 4137, Pitch_bend_c, 12, 6784
1, 4143, Note_on_c, 13, 70, 0
1, 4143, Pitch_bend_c, 12, 5376
1, 4143, Pitch_bend_c, 13, 3328
1, 4150, Pitch_bend_c, 12, 4096
1, 4154, Pitch_bend_c, 13, 3840
1, 4158, Pitch_bend_c, 12, 2944
1, 4158, Pitch_bend_c, 13, 5120
1, 4160, Note_on_c, 9, 69, 71
1, 4164, Note_on_c, 9, 69, 0
1, 4164, Pitch_bend_c, 13, 5504
1, 4166, Pitch_bend_c, 13, 7424
1, 4169, Note_on_c, 1, 31, 0
1, 4169, Pitch_bend_c, 12, 2688
1, 4171, Pitch_bend_c, 12, 1664
1, 4176, Pitch_bend_c, 13, 7552
1, 4177, Pitch_bend_c, 13, 8192
1, 4181, Pitch_bend_c, 12, 1280
1, 4183, Note_on_c, 5, 67, 0
1, 4190, Note_on_c, 3, 53, 0
1, 4192, Note_on_c, 1, 31, 81
1, 4192, Note_on_c, 3, 55, 71
1, 4192, Note_on_c, 9, 44, 111
1, 4192, Note_on_c, 9, 69, 71
1, 4194, Note_on_c, 2, 50, 0
1, 4196, Note_on_c, 9, 69, 0
1, 4196, Note_on_c, 9, 44, 0
1, 4198, Note_on_c, 2, 55, 0
1, 4199, Pitch_bend_c, 12, 2048
1, 4200, Note_on_c, 1, 31, 0
1, 4209, Note_on_c, 2, 59, 0
1, 4209, Pitch_bend_c, 12, 2176
1, 4210, Pitch_bend_c, 12, 3328
1, 4220, Pitch_bend_c, 12, 3840
1, 4223, Note_on_c, 1, 31, 100
1, 4224, Note_on_c, 2, 53, 70
1, 4224, Note_on_c, 9, 59, 69
1, 4224, Note_on_c, 9, 42, 111
1, 4224, Note_on_c, 9, 35, 121
1, 4224, Note_on_c, 10, 96, 64
1, 4228, Note_on_c, 9, 35, 0
1, 4228, Note_on_c, 9, 42, 0
1, 4228, Note_on_c, 9, 59, 0
1, 4230, Pitch_bend_c, 12, 4224
1, 4231, Note_on_c, 2, 53, 0
1, 4231, Note_on_c, 3, 55, 0
1, 4251, Pitch_bend_c, 12, 4864
1, 4256, Note_on_c, 9, 69, 71
1, 4260, Note_on_c, 9, 69, 0
1, 4261, Pitch_bend_c, 12, 5120
1, 4264, Pitch_bend_c, 12, 5888
1, 4269, Pitch_bend_c, 12, 7424
1, 4278, Note_on_c, 1, 31, 0
1, 4278, Pitch_bend_c, 12, 8192
1, 4287, Note_on_c, 2, 53, 81
1, 4288, Note_on_c, 2, 50, 76
1, 4288, Note_on_c, 2, 62, 73
1, 4288, Note_on_c, 2, 58, 75
1, 4288, Note_on_c, 3, 53, 75
1, 4288, Note_on_c, 9, 69, 71
1, 4288, Note_on_c, 9, 44, 121
1, 4290, Note_on_c, 1, 31, 89
1, 4292, Note_on_c, 9, 44, 0
1, 4292, Note_on_c, 9, 69, 0
1, 4293, Note_on_c, 12, 89, 0
1, 4294, Note_on_c, 5, 67, 63
1, 4301, Note_on_c, 1, 31, 0
1, 4307, Note_on_c, 12, 89, 46
1, 4310, Note_on_c, 5, 67, 0
1, 4311, Pitch_bend_c, 12, 8064
1, 4312, Pitch_bend_c, 12, 7552
1, 4314, Pitch_bend_c, 12, 7168
1, 4315, Pitch_bend_c, 12, 6784
1, 4317, Pitch_bend_c, 12, 6144
1, 4319, Pitch_bend_c, 12, 5888
1, 4320, Note_on_c, 1, 31, 103
1, 4320, Note_on_c, 9, 42, 101
1, 4320, Note_on_c, 9, 59, 85
1, 4320, Note_on_c, 9, 38, 121
1, 4320, Pitch_bend_c, 12, 5376
1, 4321, Note_on_c, 5, 74, 81
1, 4321, Pitch_bend_c, 12, 5120
1, 4322, Pitch_bend_c, 12, 4736
1, 4324, Note_on_c, 9, 38, 0
1, 4324, Note_on_c, 9, 59, 0
1, 4324, Note_on_c, 9, 42, 0
1, 4324, Pitch_bend_c, 12, 4352
1, 4325, Pitch_bend_c, 12, 3328
1, 4341, Pitch_bend_c, 12, 3712
1, 4343, Note_on_c, 12, 89, 0
1, 4344, Pitch_bend_c, 12, 4224
1, 4348, Pitch_bend_c, 12, 5120
1, 4355, Pitch_bend_c, 12, 5376
1, 4356, Pitch_bend_c, 12, 5888
1, 4359, Pitch_bend_c, 12, 6272
1, 4362, Pitch_bend_c, 12, 6912
1, 4363, Note_on_c, 1, 31, 0
1, 4365, Pitch_bend_c, 12, 7424
1, 4369, Pitch_bend_c, 12, 7936
1, 4372, Pitch_bend_c, 12, 8192
1, 4384, Note_on_c, 1, 31, 94
1, 4384, Note_on_c, 9, 44, 111
1, 4384, Note_on_c, 9, 69, 71
1, 4388, Note_on_c, 9, 69, 0
1, 4388, Note_on_c, 9, 44, 0
1, 4391, Note_on_c, 13, 82, 27
1, 4394, Pitch_bend_c, 5, 8064
1, 4395, Pitch_bend_c, 5, 7808
1, 4396, Pitch_bend_c, 5, 7552
1, 4397, Pitch_bend_c, 5, 7424
1, 4398, Note_on_c, 1, 31, 0
1, 4398, Pitch_bend_c, 5, 7168
1, 4399, Pitch_bend_c, 5, 7040
1, 4400, Note_on_c, 5, 74, 0
1, 4400, Pitch_bend_c, 5, 6912
1, 4401, Pitch_bend_c, 5, 6528
1, 4402, Pitch_bend_c, 5, 6144
1, 4403, Pitch_bend_c, 5, 5888
1, 4404, Pitch_bend_c, 5, 5632
1, 4405, Pitch_bend_c, 5, 5376
1, 4406, Pitch_bend_c, 5, 5120
1, 4407, Pitch_bend_c, 5, 4992
1, 4408, Note_on_c, 2, 58, 0
1, 4408, Pitch_bend_c, 5, 4864
1, 4409, Pitch_bend_c, 5, 4736
1, 4410, Pitch_bend_c, 5, 4608
1, 4411, Note_on_c, 2, 62, 0
1, 4411, Pitch_bend_c, 5, 4352
1, 4411, Note_on_c, 12, 89, 28
1, 4412, Pitch_bend_c, 5, 4224
1, 4413, Note_on_c, 3, 53, 0
1, 4414, Pitch_bend_c, 5, 3968
1, 4414, Pitch_bend_c, 13, 8064
1, 4415, Note_on_c, 1, 31, 105
1, 4415, Pitch_bend_c, 5, 3840
1, 4416, Note_on_c, 2, 53, 0
1, 4416, Note_on_c, 2, 61, 70
1, 4416, Note_on_c, 3, 52, 57
1, 4416, Pitch_bend_c, 5, 3712
1, 4416, Note_on_c, 5, 73, 83
1, 4416, Note_on_c, 9, 35, 122
1, 4416, Note_on_c, 9, 42, 112
1, 4416, Pitch_bend_c, 13, 7680
1, 4417, Note_on_c, 2, 50, 0
1, 4417, Note_on_c, 2, 49, 75
1, 4417, Note_on_c, 2, 57, 70
1, 4417, Pitch_bend_c, 5, 3584
1, 4418, Note_on_c, 2, 52, 74
1, 4418, Pitch_bend_c, 13, 7296
1, 4420, Note_on_c, 9, 42, 0
1, 4420, Note_on_c, 9, 35, 0
1, 4420, Pitch_bend_c, 13, 6400
1, 4426, Pitch_bend_c, 5, 3712
1, 4427, Pitch_bend_c, 13, 5376
1, 4428, Pitch_bend_c, 5, 3840
1, 4429, Pitch_bend_c, 5, 3968
1, 4430, Pitch_bend_c, 5, 4224
1, 4431, Pitch_bend_c, 5, 4480
1, 4432, Pitch_bend_c, 5, 4736
1, 4432, Pitch_bend_c, 13, 4352
1, 4433, Note_on_c, 2, 49, 0
1, 4433, Pitch_bend_c, 5, 4992
1, 4434, Pitch_bend_c, 5, 5376
1, 4435, Pitch_bend_c, 5, 5760
1, 4436, Pitch_bend_c, 5, 6016
1, 4437, Note_on_c, 2, 61, 0
1, 4437, Pitch_bend_c, 5, 6400
1, 4438, Note_on_c, 2, 57, 0
1, 4438, Pitch_bend_c, 5, 6528
1, 4439, Pitch_bend_c, 5, 6784
1, 4440, Pitch_bend_c, 5, 7168
1, 4441, Pitch_bend_c, 5, 7296
1, 4442, Note_on_c, 2, 52, 0
1, 4442, Pitch_bend_c, 5, 7424
1, 4443, Note_on_c, 12, 89, 0
1, 4443, Pitch_bend_c, 5, 7808
1, 4444, Pitch_bend_c, 5, 7936
1, 4445, Pitch_bend_c, 5, 8192
1, 4445, Pitch_bend_c, 13, 4224
1, 4448, Note_on_c, 9, 69, 72
1, 4450, Note_on_c, 13, 82, 0
1, 4452, Note_on_c, 9, 69, 0
1, 4455, Note_on_c, 5, 73, 0
1, 4455, Pitch_bend_c, 13, 5120
1, 4464, Pitch_bend_c, 13, 5376
1, 4465, Note_on_c, 1, 31, 0
1, 4465, Pitch_bend_c, 13, 7296
1, 4475, Pitch_bend_c, 13, 7936
1, 4478, Note_on_c, 2, 49, 75
1, 4478, Pitch_bend_c, 13, 8192
1, 4479, Note_on_c, 2, 57, 73
1, 4479, Note_on_c, 2, 61, 74
1, 4479, Note_on_c, 12, 89, 38
1, 4480, Note_on_c, 2, 52, 75
1, 4480, Note_on_c, 5, 73, 72
1, 4480, Note_on_c, 9, 44, 122
1, 4481, Note_on_c, 1, 31, 89
1, 4484, Note_on_c, 9, 44, 0
1, 4491, Note_on_c, 1, 31, 0
1, 4500, Note_on_c, 12, 89, 0
1, 4511, Note_on_c, 1, 31, 101
1, 4512, Note_on_c, 9, 42, 112
1, 4512, Note_on_c, 9, 38, 122
1, 4516, Note_on_c, 9, 38, 0
1, 4516, Note_on_c, 9, 42, 0
1, 4531, Note_on_c, 12, 89, 44
1, 4555, Note_on_c, 12, 89, 0
1, 4559, Note_on_c, 1, 31, 0
1, 4562, Pitch_bend_c, 12, 7552
1, 4573, Pitch_bend_c, 12, 7680
1, 4576, Note_on_c, 9, 44, 112
1, 4576, Note_on_c, 9, 69, 72
1, 4577, Note_on_c, 1, 31, 97
1, 4579, Note_on_c, 5, 73, 0
1, 4580, Note_on_c, 9, 44, 0
1, 4580, Note_on_c, 9, 69, 0
1, 4584, Pitch_bend_c, 12, 8192
1, 4588, Note_on_c, 12, 89, 43
1, 4589, Note_on_c, 3, 52, 0
1, 4589, Note_on_c, 1, 31, 0
1, 4594, Note_on_c, 2, 57, 0
1, 4596, Note_on_c, 2, 61, 0
1, 4598, Note_on_c, 13, 82, 51
1, 4606, Note_on_c, 2, 52, 0
1, 4608, Note_on_c, 1, 31, 102
1, 4608, Note_on_c, 3, 48, 62
1, 4608, Note_on_c, 9, 35, 122
1, 4608, Note_on_c, 9, 42, 112
1, 4609, Note_on_c, 2, 48, 75
1, 4609, Note_on_c, 2, 53, 76
1, 4609, Note_on_c, 2, 60, 69
1, 4609, Note_on_c, 2, 57, 70
1, 4610, Note_on_c, 5, 72, 69
1, 4612, Note_on_c, 9, 42, 0
1, 4612, Note_on_c, 9, 35, 0
1, 4616, Note_on_c, 2, 49, 0
1, 4617, Pitch_bend_c, 12, 7296
1, 4624, Pitch_bend_c, 12, 6656
1, 4628, Pitch_bend_c, 12, 5632
1, 4632, Note_on_c, 2, 60, 0
1, 4632, Note_on_c, 2, 53, 0
1, 4633, Note_on_c, 2, 57, 0
1, 4633, Pitch_bend_c, 13, 7680
1, 4634, Note_on_c, 2, 48, 0
1, 4634, Pitch_bend_c, 12, 4864
1, 4636, Pitch_bend_c, 12, 4480
1, 4637, Pitch_bend_c, 13, 6912
1, 4638, Pitch_bend_c, 12, 3840
1, 4640, Note_on_c, 9, 69, 72
1, 4641, Pitch_bend_c, 12, 2688
1, 4642, Pitch_bend_c, 13, 6400
1, 4644, Note_on_c, 9, 69, 0
1, 4645, Pitch_bend_c, 13, 5888
1, 4648, Pitch_bend_c, 13, 5376
1, 4651, Note_on_c, 1, 31, 0
1, 4651, Pitch_bend_c, 12, 2816
1, 4651, Pitch_bend_c, 13, 5120
1, 4652, Note_on_c, 12, 89, 0
1, 4653, Pitch_bend_c, 12, 3712
1, 4653, Pitch_bend_c, 13, 4608
1, 4656, Pitch_bend_c, 13, 3200
1, 4657, Pitch_bend_c, 12, 4224
1, 4658, Pitch_bend_c, 12, 4480
1, 4659, Pitch_bend_c, 12, 4992
1, 4660, Pitch_bend_c, 12, 5504
1, 4661, Pitch_bend_c, 12, 6016
1, 4662, Pitch_bend_c, 12, 6528
1, 4663, Pitch_bend_c, 12, 7040
1, 4665, Pitch_bend_c, 12, 7680
1, 4666, Pitch_bend_c, 13, 3072
1, 4667, Pitch_bend_c, 12, 8192
1, 4667, Pitch_bend_c, 13, 2304
1, 4668, Note_on_c, 13, 82, 0
1, 4672, Note_on_c, 2, 53, 75
1, 4672, Note_on_c, 2, 57, 71
1, 4672, Note_on_c, 2, 48, 75
1, 4672, Note_on_c, 2, 60, 70
1, 4672, Note_on_c, 9, 69, 72
1, 4672, Note_on_c, 9, 44, 122
1, 4674, Note_on_c, 1, 31, 102
1, 4676, Note_on_c, 9, 44, 0
1, 4676, Note_on_c, 9, 69, 0
1, 4679, Pitch_bend_c, 13, 2560
1, 4682, Pitch_bend_c, 13, 2944
1, 4686, Pitch_bend_c, 13, 3712
1, 4690, Pitch_bend_c, 13, 5120
1, 4692, Note_on_c, 5, 72, 0
1, 4695, Note_on_c, 12, 89, 41
1, 4697, Pitch_bend_c, 13, 6528
1, 4703, Note_on_c, 1, 31, 0
1, 4703, Note_on_c, 1, 31, 94
1, 4704, Note_on_c, 9, 38, 122
1, 4704, Note_on_c, 9, 42, 102
1, 4705, Pitch_bend_c, 13, 7296
1, 4708, Note_on_c, 9, 42, 0
1, 4708, Note_on_c, 9, 38, 0
1, 4708, Note_on_c, 5, 70, 76
1, 4709, Pitch_bend_c, 13, 7680
1, 4712, Pitch_bend_c, 13, 7936
1, 4713, Pitch_bend_c, 13, 8192
1, 4721, Pitch_bend_c, 12, 7168
1, 4726, Pitch_bend_c, 12, 6528
1, 4729, Pitch_bend_c, 12, 5888
1, 4732, Pitch_bend_c, 12, 5376
1, 4734, Pitch_bend_c, 12, 4736
1, 4736, Pitch_bend_c, 12, 3584
1, 4746, Note_on_c, 2, 53, 0
1, 4748, Note_on_c, 1, 31, 0
1, 4748, Note_on_c, 2, 60, 0
1, 4750, Note_on_c, 12, 89, 0
1, 4750, Note_on_c, 2, 57, 0
1, 4751, Pitch_bend_c, 12, 4224
1, 4756, Pitch_bend_c, 12, 4608
1, 4757, Pitch_bend_c, 12, 4992
1, 4758, Pitch_bend_c, 12, 5632
1, 4760, Pitch_bend_c, 12, 7424
1, 4761, Note_on_c, 3, 48, 0
1, 4764, Note_on_c, 2, 48, 0
1, 4765, Note_on_c, 5, 70, 0
1, 4767, Note_on_c, 2, 55, 78
1, 4767, Note_on_c, 5, 67, 77
1, 4768, Note_on_c, 2, 50, 76
1, 4768, Note_on_c, 3, 50, 67
1, 4768, Note_on_c, 9, 69, 73
1, 4768, Note_on_c, 9, 44, 113
1, 4769, Note_on_c, 1, 31, 100
1, 4769, Note_on_c, 2, 59, 72
1, 4770, Note_on_c, 9, 51, 76
1, 4770, Pitch_bend_c, 12, 7552
1, 4771, Pitch_bend_c, 12, 8192
1, 4772, Note_on_c, 9, 44, 0
1, 4772, Note_on_c, 9, 69, 0
1, 4774, Note_on_c, 9, 51, 0
1, 4777, Note_on_c, 13, 82, 29
1, 4785, Note_on_c, 1, 31, 0
1, 4790, Note_on_c, 12, 89, 39
1, 4792, Pitch_bend_c, 13, 7808
1, 4794, Pitch_bend_c, 13, 6912
1, 4799, Pitch_bend_c, 13, 5888
1, 4800, Note_on_c, 1, 31, 101
1, 4800, Note_on_c, 9, 35, 123
1, 4800, Note_on_c, 9, 42, 113
1, 4802, Note_on_c, 9, 59, 93
1, 4804, Note_on_c, 9, 42, 0
1, 4804, Note_on_c, 9, 35, 0
1, 4804, Note_on_c, 13, 82, 0
1, 4804, Pitch_bend_c, 13, 5376
1, 4806, Note_on_c, 9, 59, 0
1, 4807, Pitch_bend_c, 13, 4608
1, 4818, Pitch_bend_c, 13, 5120
1, 4821, Pitch_bend_c, 12, 6912
1, 4823, Pitch_bend_c, 13, 7040
1, 4830, Pitch_bend_c, 12, 6400
1, 4832, Note_on_c, 9, 69, 73
1, 4833, Pitch_bend_c, 12, 5376
1, 4833, Pitch_bend_c, 13, 7808
1, 4836, Note_on_c, 9, 69, 0
1, 4836, Pitch_bend_c, 13, 8192
1, 4841, Note_on_c, 1, 31, 0
1, 4842, Pitch_bend_c, 12, 4992
1, 4845, Pitch_bend_c, 12, 4352
1, 4850, Pitch_bend_c, 12, 3968
1, 4853, Pitch_bend_c, 12, 3072
1, 4857, Note_on_c, 13, 82, 43
1, 4861, Note_on_c, 12, 89, 0
1, 4862, Note_on_c, 5, 67, 0
1, 4862, Note_on_c, 5, 70, 72
1, 4864, Note_on_c, 1, 31, 99
1, 4864, Note_on_c, 9, 44, 123
1, 4864, Note_on_c, 9, 69, 73
1, 4866, Pitch_bend_c, 12, 3456
1, 4868, Note_on_c, 9, 69, 0
1, 4868, Note_on_c, 9, 44, 0
1, 4870, Pitch_bend_c, 12, 4224
1, 4873, Pitch_bend_c, 12, 4480
1, 4874, Pitch_bend_c, 12, 4864
1, 4875, Pitch_bend_c, 12, 5120
1, 4875, Pitch_bend_c, 13, 6656
1, 4876, Pitch_bend_c, 12, 5760
1, 4877, Pitch_bend_c, 12, 6144
1, 4878, Pitch_bend_c, 12, 6400
1, 4879, Pitch_bend_c, 12, 6784
1, 4880, Note_on_c, 1, 31, 0
1, 4880, Pitch_bend_c, 12, 7168
1, 4882, Pitch_bend_c, 12, 7808
1, 4884, Pitch_bend_c, 13, 5632
1, 4885, Pitch_bend_c, 12, 8192
1, 4890, Pitch_bend_c, 13, 5376
1, 4891, Pitch_bend_c, 13, 4736
1, 4893, Note_on_c, 3, 50, 0
1, 4894, Note_on_c, 5, 70, 0
1, 4896, Note_on_c, 1, 31, 104
1, 4896, Note_on_c, 9, 38, 123
1, 4896, Note_on_c, 9, 42, 113
1, 4897, Note_on_c, 3, 53, 92
1, 4897, Note_on_c, 9, 59, 84
1, 4898, Note_on_c, 5, 67, 76
1, 4900, Note_on_c, 9, 42, 0
1, 4900, Note_on_c, 9, 38, 0
1, 4900, Note_on_c, 13, 82, 0
1, 4900, Note_on_c, 12, 89, 42
1, 4901, Note_on_c, 9, 59, 0
1, 4902, Pitch_bend_c, 13, 5120
1, 4906, Pitch_bend_c, 13, 6912
1, 4915, Pitch_bend_c, 13, 7936
1, 4919, Pitch_bend_c, 13, 8192
1, 4922, Note_on_c, 5, 67, 0
1, 4928, Note_on_c, 9, 69, 73
1, 4928, Pitch_bend_c, 12, 7680
1, 4932, Note_on_c, 9, 69, 0
1, 4932, Pitch_bend_c, 12, 7040
1, 4937, Pitch_bend_c, 12, 6144
1, 4941, Note_on_c, 13, 82, 37
1, 4943, Pitch_bend_c, 12, 5376
1, 4949, Pitch_bend_c, 12, 4864
1, 4952, Pitch_bend_c, 12, 4480
1, 4954, Note_on_c, 1, 31, 0
1, 4955, Pitch_bend_c, 12, 3840
1, 4955, Pitch_bend_c, 13, 7040
1, 4958, Note_on_c, 3, 53, 0
1, 4960, Note_on_c, 1, 29, 93
1, 4960, Note_on_c, 3, 55, 70
1, 4960, Note_on_c, 9, 69, 73
1, 4960, Note_on_c, 9, 44, 113
1, 4961, Note_on_c, 12, 89, 0
1, 4962, Note_on_c, 2, 50, 0
1, 4962, Pitch_bend_c, 13, 5376
1, 4964, Note_on_c, 9, 44, 0
1, 4964, Note_on_c, 9, 69, 0
1, 4966, Note_on_c, 2, 55, 0
1, 4966, Pitch_bend_c, 12, 4352
1, 4970, Pitch_bend_c, 13, 4864
1, 4971, Pitch_bend_c, 12, 4736
1, 4972, Pitch_bend_c, 12, 5120
1, 4973, Pitch_bend_c, 13, 3840
1, 4974, Pitch_bend_c, 12, 5632
1, 4975, Pitch_bend_c, 12, 6272
1, 4977, Note_on_c, 2, 59, 0
1, 4977, Pitch_bend_c, 12, 6784
1, 4979, Pitch_bend_c, 12, 7168
1, 4980, Pitch_bend_c, 12, 7552
1, 4981, Pitch_bend_c, 12, 7936
1, 4982, Pitch_bend_c, 12, 8192
1, 4986, Note_on_c, 13, 82, 0
1, 4988, Pitch_bend_c, 13, 4352
1, 4992, Note_on_c, 1, 29, 0
1, 4992, Note_on_c, 1, 31, 105
1, 4992, Note_on_c, 2, 53, 72
1, 4992, Note_on_c, 9, 42, 113
1, 4992, Note_on_c, 9, 35, 123
1, 4993, Note_on_c, 12, 89, 44
1, 4993, Pitch_bend_c, 13, 5120
1, 4996, Note_on_c, 9, 35, 0
1, 4996, Note_on_c, 9, 42, 0
1, 4998, Pitch_bend_c, 13, 5760
1, 4999, Note_on_c, 2, 53, 0
1, 5001, Note_on_c, 3, 55, 0
1, 5001, Pitch_bend_c, 13, 6400
1, 5003, Pitch_bend_c, 13, 7296
1, 5005, Pitch_bend_c, 13, 8192
1, 5021, Note_on_c, 13, 82, 41
1, 5023, Pitch_bend_c, 12, 7936
1, 5024, Note_on_c, 9, 69, 73
1, 5024, Pitch_bend_c, 12, 7552
1, 5025, Pitch_bend_c, 12, 7168
1, 5026, Note_on_c, 1, 31, 0
1, 5026, Pitch_bend_c, 12, 6912
1, 5027, Pitch_bend_c, 12, 6656
1, 5028, Note_on_c, 9, 69, 0
1, 5028, Pitch_bend_c, 12, 6272
1, 5030, Pitch_bend_c, 12, 5888
1, 5031, Pitch_bend_c, 12, 5632
1, 5032, Pitch_bend_c, 12, 5120
1, 5033, Pitch_bend_c, 12, 4608
1, 5035, Pitch_bend_c, 12, 3328
1, 5036, Pitch_bend_c, 13, 7168
1, 5041, Pitch_bend_c, 13, 6528
1, 5044, Pitch_bend_c, 13, 5888
1, 5045, Pitch_bend_c, 12, 2944
1, 5047, Pitch_bend_c, 13, 5504
1, 5048, Pitch_bend_c, 13, 4736
1, 5051, Pitch_bend_c, 13, 3456
1, 5055, Note_on_c, 2, 53, 84
1, 5056, Note_on_c, 1, 31, 99
1, 5056, Note_on_c, 2, 58, 78
1, 5056, Note_on_c, 2, 62, 76
1, 5056, Note_on_c, 2, 50, 79
1, 5056, Note_on_c, 3, 53, 68
1, 5056, Note_on_c, 9, 69, 74
1, 5056, Note_on_c, 9, 44, 124
1, 5057, Pitch_bend_c, 12, 3200
1, 5059, Note_on_c, 12, 89, 0
1, 5060, Note_on_c, 9, 44, 0
1, 5060, Note_on_c, 9, 69, 0
1, 5060, Pitch_bend_c, 12, 3968
1, 5061, Note_on_c, 5, 67, 74
1, 5064, Pitch_bend_c, 12, 4480
1, 5065, Pitch_bend_c, 12, 4992
1, 5066, Pitch_bend_c, 12, 5760
1, 5067, Note_on_c, 13, 82, 0
1, 5067, Pitch_bend_c, 12, 6400
1, 5067, Pitch_bend_c, 13, 3840
1, 5068, Pitch_bend_c, 12, 7040
1, 5069, Pitch_bend_c, 12, 7296
1, 5070, Note_on_c, 1, 31, 0
1, 5070, Pitch_bend_c, 12, 7936
1, 5071, Pitch_bend_c, 12, 8192
1, 5071, Pitch_bend_c, 13, 4352
1, 5073, Pitch_bend_c, 13, 4736
1, 5074, Pitch_bend_c, 13, 5120
1, 5076, Pitch_bend_c, 13, 5632
1, 5077, Pitch_bend_c, 5, 7808
1, 5077, Pitch_bend_c, 13, 6528
1, 5078, Pitch_bend_c, 5, 7552
1, 5079, Pitch_bend_c, 5, 7168
1, 5080, Pitch_bend_c, 5, 6784
1, 5081, Note_on_c, 5, 67, 0
1, 5081, Pitch_bend_c, 5, 6528
1, 5081, Pitch_bend_c, 13, 7680
1, 5082, Pitch_bend_c, 5, 6144
1, 5083, Pitch_bend_c, 5, 5888
1, 5084, Pitch_bend_c, 5, 5632
1, 5085, Pitch_bend_c, 5, 5120
1, 5086, Pitch_bend_c, 5, 4608
1, 5087, Note_on_c, 1, 31, 104
1, 5087, Pitch_bend_c, 5, 4480
1, 5087, Pitch_bend_c, 13, 8192
1, 5088, Pitch_bend_c, 5, 4224
1, 5088, Note_on_c, 9, 38, 124
1, 5088, Note_on_c, 9, 42, 104
1, 5089, Pitch_bend_c, 5, 3968
1, 5090, Pitch_bend_c, 5, 3712
1, 5090, Note_on_c, 9, 59, 58
1, 5091, Pitch_bend_c, 5, 3584
1, 5092, Note_on_c, 9, 42, 0
1, 5092, Note_on_c, 9, 38, 0
1, 5092, Pitch_bend_c, 5, 3328
1, 5093, Note_on_c, 5, 74, 89
1, 5094, Note_on_c, 9, 59, 0
1, 5094, Pitch_bend_c, 5, 3072
1, 5095, Pitch_bend_c, 5, 2816
1, 5096, Pitch_bend_c, 5, 2688
1, 5103, Pitch_bend_c, 5, 2816
1, 5104, Pitch_bend_c, 5, 2944
1, 5105, Pitch_bend_c, 5, 3072
1, 5106, Pitch_bend_c, 5, 3328
1, 5107, Pitch_bend_c, 5, 3584
1, 5107, Note_on_c, 13, 82, 38
1, 5108, Pitch_bend_c, 5, 3968
1, 5109, Pitch_bend_c, 5, 4224
1, 5110, Pitch_bend_c, 5, 4864
1, 5111, Pitch_bend_c, 5, 5120
1, 5112, Pitch_bend_c, 5, 5760
1, 5113, Pitch_bend_c, 5, 6016
1, 5114, Pitch_bend_c, 5, 6528
1, 5115, Pitch_bend_c, 5, 6656
1, 5116, Pitch_bend_c, 5, 7168
1, 5117, Pitch_bend_c, 5, 7424
1, 5118, Pitch_bend_c, 5, 7552
1, 5119, Pitch_bend_c, 5, 7936
1, 5119, Pitch_bend_c, 13, 7808
1, 5120, Pitch_bend_c, 5, 8192
1, 5121, Pitch_bend_c, 13, 6144
1, 5129, Pitch_bend_c, 13, 5504
1, 5132, Note_on_c, 1, 31, 0
1, 5132, Pitch_bend_c, 13, 4736
1, 5135, Pitch_bend_c, 13, 3840
1, 5140, Pitch_bend_c, 13, 3328
1, 5143, Note_on_c, 12, 89, 37
1, 5145, Note_on_c, 13, 82, 0
1, 5151, Pitch_bend_c, 13, 3712
1, 5152, Note_on_c, 1, 31, 97
1, 5152, Note_on_c, 9, 44, 114
1, 5152, Note_on_c, 9, 69, 74
1, 5155, Pitch_bend_c, 13, 4224
1, 5156, Note_on_c, 9, 69, 0
1, 5156, Note_on_c, 9, 44, 0
1, 5158, Pitch_bend_c, 13, 5120
1, 5163, Pitch_bend_c, 13, 5632
1, 5164, Note_on_c, 12, 89, 0
1, 5165, Pitch_bend_c, 13, 6400
1, 5167, Note_on_c, 1, 31, 0
1, 5170, Pitch_bend_c, 13, 7552
1, 5176, Note_on_c, 2, 58, 0
1, 5177, Pitch_bend_c, 13, 8192
1, 5179, Note_on_c, 2, 62, 0
1, 5183, Note_on_c, 9, 59, 87
1, 5184, Note_on_c, 2, 53, 0
1, 5184, Note_on_c, 1, 31, 103
1, 5184, Note_on_c, 2, 61, 72
1, 5184, Note_on_c, 9, 35, 124
1, 5184, Note_on_c, 9, 42, 114
1, 5184, Note_on_c, 13, 82, 33
1, 5185, Note_on_c, 3, 53, 0
1, 5185, Note_on_c, 2, 50, 0
1, 5185, Note_on_c, 5, 74, 0
1, 5185, Note_on_c, 2, 57, 72
1, 5185, Note_on_c, 2, 49, 77
1, 5185, Note_on_c, 3, 52, 61
1, 5185, Note_on_c, 5, 73, 87
1, 5186, Note_on_c, 2, 52, 76
1, 5187, Note_on_c, 9, 59, 0
1, 5188, Note_on_c, 9, 35, 0
1, 5188, Note_on_c, 9, 42, 0
1, 5193, Note_on_c, 12, 89, 36
1, 5200, Note_on_c, 5, 73, 0
1, 5201, Note_on_c, 2, 49, 0
1, 5205, Note_on_c, 2, 61, 0
1, 5205, Pitch_bend_c, 13, 7936
1, 5206, Note_on_c, 2, 57, 0
1, 5207, Pitch_bend_c, 12, 6528
1, 5207, Pitch_bend_c, 13, 6784
1, 5210, Note_on_c, 2, 52, 0
1, 5212, Pitch_bend_c, 13, 6144
1, 5215, Pitch_bend_c, 13, 5760
1, 5216, Note_on_c, 9, 69, 74
1, 5216, Pitch_bend_c, 13, 5376
1, 5217, Pitch_bend_c, 12, 6272
1, 5218, Note_on_c, 12, 89, 0
1, 5218, Pitch_bend_c, 13, 4864
1, 5219, Pitch_bend_c, 13, 4608
1, 5220, Note_on_c, 9, 69, 0
1, 5220, Note_on_c, 13, 82, 0
1, 5220, Pitch_bend_c, 13, 4352
1, 5221, Note_on_c, 10, 96, 0
1, 5221, Pitch_bend_c, 13, 3968
1, 5223, Note_on_c, 1, 31, 0
1, 5223, Pitch_bend_c, 13, 3456
1, 5224, Pitch_bend_c, 13, 2176
1, 5229, Pitch_bend_c, 12, 7552
1, 5237, Pitch_bend_c, 12, 8192
1, 5237, Pitch_bend_c, 13, 3200
1, 5243, Pitch_bend_c, 13, 3584
1, 5245, Pitch_bend_c, 13, 3968
1, 5246, Note_on_c, 2, 49, 77
1, 5246, Pitch_bend_c, 13, 4224
1, 5247, Note_on_c, 2, 61, 76
1, 5247, Note_on_c, 2, 57, 75
1, 5247, Pitch_bend_c, 13, 4480
1, 5248, Note_on_c, 1, 31, 101
1, 5248, Note_on_c, 2, 52, 77
1, 5248, Note_on_c, 9, 44, 124
1, 5248, Pitch_bend_c, 13, 4736
1, 5249, Note_on_c, 5, 73, 90
1, 5249, Pitch_bend_c, 13, 4992
1, 5250, Pitch_bend_c, 13, 5504
1, 5251, Note_on_c, 12, 89, 44
1, 5252, Note_on_c, 9, 44, 0
1, 5252, Pitch_bend_c, 13, 6400
1, 5255, Pitch_bend_c, 13, 7680
1, 5261, Pitch_bend_c, 13, 7936
1, 5261, Note_on_c, 13, 82, 36
1, 5263, Pitch_bend_c, 13, 8192
1, 5267, Note_on_c, 1, 31, 0
1, 5270, Pitch_bend_c, 12, 7808
1, 5273, Pitch_bend_c, 12, 7424
1, 5276, Pitch_bend_c, 12, 6016
1, 5280, Note_on_c, 1, 31, 105
1, 5280, Note_on_c, 9, 38, 124
1, 5280, Note_on_c, 9, 42, 114
1, 5283, Pitch_bend_c, 12, 5504
1, 5284, Note_on_c, 9, 42, 0
1, 5284, Note_on_c, 9, 38, 0
1, 5285, Pitch_bend_c, 12, 4864
1, 5287, Pitch_bend_c, 12, 4480
1, 5288, Note_on_c, 13, 82, 0
1, 5288, Pitch_bend_c, 12, 2688
1, 5290, Pitch_bend_c, 13, 7808
1, 5293, Pitch_bend_c, 13, 7040
1, 5297, Pitch_bend_c, 13, 6016
1, 5298, Note_on_c, 12, 89, 0
1, 5299, Pitch_bend_c, 12, 2816
1, 5302, Pitch_bend_c, 13, 5376
1, 5304, Pitch_bend_c, 13, 3968
1, 5309, Pitch_bend_c, 12, 3200
1, 5311, Pitch_bend_c, 12, 3584
1, 5312, Pitch_bend_c, 12, 4224
1, 5313, Pitch_bend_c, 12, 4480
1, 5314, Pitch_bend_c, 12, 5120
1, 5315, Pitch_bend_c, 12, 5632
1, 5315, Pitch_bend_c, 13, 4096
1, 5316, Pitch_bend_c, 12, 5888
1, 5317, Pitch_bend_c, 12, 6528
1, 5318, Pitch_bend_c, 12, 6784
1, 5319, Pitch_bend_c, 12, 7168
1, 5321, Note_on_c, 1, 31, 0
1, 5321, Pitch_bend_c, 12, 7680
1, 5323, Pitch_bend_c, 12, 8192
1, 5325, Pitch_bend_c, 13, 4480
1, 5327, Pitch_bend_c, 13, 5120
1, 5331, Pitch_bend_c, 13, 5760
1, 5332, Pitch_bend_c, 13, 6784
1, 5337, Pitch_bend_c, 13, 8192
1, 5340, Note_on_c, 5, 73, 0
1, 5341, Note_on_c, 3, 52, 0
1, 5343, Note_on_c, 12, 89, 45
1, 5344, Note_on_c, 9, 69, 74
1, 5344, Note_on_c, 9, 44, 114
1, 5346, Note_on_c, 1, 29, 101
1, 5348, Note_on_c, 9, 44, 0
1, 5348, Note_on_c, 9, 69, 0
1, 5349, Pitch_bend_c, 5, 7936
1, 5350, Pitch_bend_c, 5, 7808
1, 5351, Pitch_bend_c, 5, 7552
1, 5352, Pitch_bend_c, 5, 7296
1, 5353, Pitch_bend_c, 5, 7040
1, 5354, Pitch_bend_c, 5, 6784
1, 5356, Pitch_bend_c, 5, 6400
1, 5357, Pitch_bend_c, 5, 6272
1, 5358, Pitch_bend_c, 5, 5888
1, 5359, Pitch_bend_c, 5, 5504
1, 5360, Note_on_c, 1, 29, 0
1, 5360, Note_on_c, 1, 30, 97
1, 5360, Pitch_bend_c, 5, 5376
1, 5361, Pitch_bend_c, 5, 4992
1, 5362, Note_on_c, 2, 57, 0
1, 5362, Pitch_bend_c, 5, 4608
1, 5363, Pitch_bend_c, 5, 4352
1, 5364, Note_on_c, 2, 61, 0
1, 5364, Pitch_bend_c, 5, 3712
1, 5365, Pitch_bend_c, 5, 3584
1, 5366, Pitch_bend_c, 5, 3328
1, 5367, Pitch_bend_c, 5, 3072
1, 5368, Pitch_bend_c, 5, 2944
1, 5369, Pitch_bend_c, 5, 2816
1, 5370, Pitch_bend_c, 5, 2560
1, 5372, Pitch_bend_c, 5, 2432
1, 5374, Note_on_c, 2, 52, 0
1, 5376, Note_on_c, 1, 30, 0
1, 5376, Note_on_c, 1, 31, 111
1, 5376, Note_on_c, 2, 60, 78
1, 5376, Note_on_c, 2, 53, 77
1, 5376, Note_on_c, 2, 43, 83
1, 5376, Note_on_c, 2, 57, 77
1, 5376, Note_on_c, 3, 65, 84
1, 5376, Note_on_c, 3, 48, 65
1, 5376, Note_on_c, 6, 69, 95
1, 5376, Note_on_c, 6, 65, 94
1, 5376, Note_on_c, 9, 42, 115
1, 5376, Note_on_c, 9, 35, 125
1, 5376, Note_on_c, 14, 65, 94
1, 5376, Note_on_c, 14, 69, 83
1, 5377, Pitch_bend_c, 5, 2560
1, 5377, Pitch_bend_c, 12, 7424
1, 5378, Pitch_bend_c, 5, 2688
1, 5379, Pitch_bend_c, 5, 2944
1, 5380, Note_on_c, 9, 35, 0
1, 5380, Note_on_c, 9, 42, 0
1, 5380, Pitch_bend_c, 5, 3072
1, 5381, Note_on_c, 14, 69, 0
1, 5382, Pitch_bend_c, 5, 3200
1, 5384, Note_on_c, 2, 49, 0
1, 5384, Pitch_bend_c, 5, 3328
1, 5384, Pitch_bend_c, 12, 6912
1, 5385, Note_on_c, 5, 72, 92
1, 5386, Pitch_bend_c, 5, 3584
1, 5387, Note_on_c, 6, 69, 0
1, 5387, Pitch_bend_c, 5, 3840
1, 5388, Pitch_bend_c, 5, 4224
1, 5388, Pitch_bend_c, 12, 6400
1, 5389, Note_on_c, 3, 65, 0
1, 5389, Note_on_c, 14, 65, 0
1, 5389, Note_on_c, 6, 65, 0
1, 5389, Pitch_bend_c, 5, 4608
1, 5390, Pitch_bend_c, 5, 4736
1, 5391, Note_on_c, 2, 43, 0
1, 5391, Pitch_bend_c, 5, 5376
1, 5392, Note_on_c, 2, 60, 0
1, 5392, Pitch_bend_c, 12, 5376
1, 5393, Note_on_c, 2, 57, 0
1, 5394, Note_on_c, 2, 53, 0
1, 5394, Pitch_bend_c, 5, 5632
1, 5395, Pitch_bend_c, 5, 5760
1, 5396, Pitch_bend_c, 5, 6016
1, 5397, Pitch_bend_c, 5, 6400
1, 5398, Pitch_bend_c, 5, 6784
1, 5399, Pitch_bend_c, 5, 7040
1, 5400, Pitch_bend_c, 5, 7168
1, 5401, Pitch_bend_c, 5, 7552
1, 5402, Pitch_bend_c, 5, 7808
1, 5402, Pitch_bend_c, 12, 4736
1, 5403, Pitch_bend_c, 5, 7936
1, 5404, Note_on_c, 1, 31, 0
1, 5404, Pitch_bend_c, 5, 8064
1, 5405, Pitch_bend_c, 5, 8192
1, 5406, Pitch_bend_c, 12, 2944
1, 5408, Note_on_c, 9, 69, 75
1, 5412, Note_on_c, 9, 69, 0
1, 5416, Pitch_bend_c, 12, 2304
1, 5430, Pitch_bend_c, 12, 2688
1, 5434, Pitch_bend_c, 12, 3200
1, 5435, Note_on_c, 12, 89, 0
1, 5436, Pitch_bend_c, 12, 3712
1, 5438, Note_on_c, 2, 60, 80
1, 5438, Note_on_c, 2, 43, 89
1, 5438, Note_on_c, 3, 65, 87
1, 5438, Pitch_bend_c, 12, 3968
1, 5439, Note_on_c, 1, 31, 104
1, 5439, Note_on_c, 2, 53, 81
1, 5439, Note_on_c, 2, 57, 79
1, 5439, Note_on_c, 6, 65, 99
1, 5439, Note_on_c, 6, 69, 102
1, 5439, Pitch_bend_c, 12, 4224
1, 5439, Note_on_c, 14, 65, 112
1, 5440, Note_on_c, 9, 69, 75
1, 5440, Note_on_c, 9, 44, 125
1, 5440, Pitch_bend_c, 12, 4608
1, 5442, Note_on_c, 9, 51, 81
1, 5442, Pitch_bend_c, 12, 4864
1, 5443, Pitch_bend_c, 12, 5120
1, 5444, Note_on_c, 9, 44, 0
1, 5444, Note_on_c, 9, 69, 0
1, 5444, Pitch_bend_c, 12, 5632
1, 5446, Note_on_c, 9, 51, 0
1, 5446, Pitch_bend_c, 12, 6272
1, 5448, Pitch_bend_c, 12, 6656
1, 5449, Pitch_bend_c, 12, 7424
1, 5450, Pitch_bend_c, 12, 7808
1, 5451, Pitch_bend_c, 12, 8192
1, 5455, Note_on_c, 1, 31, 0
1, 5465, Note_on_c, 12, 89, 43
1, 5472, Note_on_c, 1, 31, 110
1, 5472, Note_on_c, 9, 38, 125
1, 5472, Note_on_c, 9, 42, 105
1, 5476, Note_on_c, 9, 42, 0
1, 5476, Note_on_c, 9, 38, 0
1, 5480, Note_on_c, 5, 72, 0
1, 5481, Note_on_c, 5, 70, 78
1, 5498, Note_on_c, 12, 89, 0
1, 5504, Pitch_bend_c, 12, 6912
1, 5507, Note_on_c, 5, 70, 0
1, 5514, Pitch_bend_c, 12, 6784
1, 5516, Pitch_bend_c, 12, 6400
1, 5518, Pitch_bend_c, 12, 5376
1, 5521, Note_on_c, 1, 31, 0
1, 5524, Pitch_bend_c, 12, 4864
1, 5527, Pitch_bend_c, 12, 4096
1, 5530, Note_on_c, 12, 89, 46
1, 5536, Note_on_c, 9, 69, 75
1, 5536, Note_on_c, 9, 44, 115
1, 5537, Note_on_c, 9, 51, 79
1, 5538, Note_on_c, 1, 29, 102
1, 5538, Note_on_c, 5, 67, 65
1, 5540, Note_on_c, 9, 44, 0
1, 5540, Note_on_c, 9, 69, 0
1, 5541, Note_on_c, 9, 51, 0
1, 5545, Pitch_bend_c, 12, 4608
1, 5548, Note_on_c, 2, 57, 0
1, 5549, Pitch_bend_c, 12, 5120
1, 5551, Pitch_bend_c, 12, 5632
1, 5552, Note_on_c, 1, 29, 0
1, 5552, Note_on_c, 6, 65, 0
1, 5552, Note_on_c, 1, 30, 97
1, 5553, Note_on_c, 14, 65, 0
1, 5553, Pitch_bend_c, 12, 5888
1, 5554, Note_on_c, 3, 65, 0
1, 5554, Note_on_c, 2, 60, 0
1, 5554, Pitch_bend_c, 12, 6272
1, 5555, Pitch_bend_c, 12, 7296
1, 5556, Note_on_c, 6, 69, 0
1, 5557, Note_on_c, 12, 89, 0
1, 5560, Note_on_c, 2, 53, 0
1, 5560, Pitch_bend_c, 12, 7680
1, 5562, Note_on_c, 2, 43, 0
1, 5562, Pitch_bend_c, 12, 8192
1, 5567, Note_on_c, 1, 30, 0
1, 5567, Note_on_c, 1, 31, 111
1, 5568, Note_on_c, 2, 60, 78
1, 5568, Note_on_c, 2, 57, 80
1, 5568, Note_on_c, 2, 65, 79
1, 5568, Note_on_c, 6, 69, 91
1, 5568, Note_on_c, 6, 65, 89
1, 5568, Note_on_c, 9, 35, 125
1, 5568, Note_on_c, 9, 42, 115
1, 5568, Note_on_c, 14, 65, 97
1, 5568, Note_on_c, 14, 69, 97
1, 5569, Note_on_c, 2, 43, 83
1, 5569, Note_on_c, 3, 65, 72
1, 5569, Note_on_c, 6, 72, 93
1, 5569, Note_on_c, 9, 59, 89
1, 5572, Note_on_c, 9, 42, 0
1, 5572, Note_on_c, 9, 35, 0
1, 5573, Note_on_c, 9, 59, 0
1, 5582, Note_on_c, 12, 89, 45
1, 5583, Note_on_c, 6, 65, 0
1, 5584, Note_on_c, 6, 72, 0
1, 5585, Note_on_c, 6, 69, 0
1, 5585, Note_on_c, 14, 69, 0
1, 5586, Note_on_c, 3, 65, 0
1, 5586, Note_on_c, 14, 65, 0
1, 5589, Note_on_c, 2, 57, 0
1, 5591, Note_on_c, 2, 43, 0
1, 5591, Note_on_c, 2, 60, 0
1, 5592, Note_on_c, 2, 65, 0
1, 5600, Note_on_c, 1, 31, 0
1, 5600, Note_on_c, 9, 69, 75
1, 5604, Note_on_c, 9, 69, 0
1, 5611, Pitch_bend_c, 12, 7296
1, 5621, Pitch_bend_c, 12, 6656
1, 5630, Note_on_c, 6, 69, 102
1, 5630, Note_on_c, 6, 72, 109
1, 5630, Note_on_c, 6, 65, 97
1, 5631, Note_on_c, 1, 31, 100
1, 5631, Note_on_c, 2, 43, 96
1, 5631, Note_on_c, 3, 65, 84
1, 5631, Note_on_c, 14, 69, 112
1, 5631, Note_on_c, 14, 65, 104
1, 5632, Note_on_c, 2, 60, 84
1, 5632, Note_on_c, 2, 65, 84
1, 5632, Note_on_c, 2, 57, 84
1, 5632, Note_on_c, 9, 44, 125
1, 5632, Note_on_c, 9, 69, 75
1, 5633, Note_on_c, 9, 59, 105
1, 5636, Note_on_c, 9, 69, 0
1, 5636, Note_on_c, 9, 44, 0
1, 5636, Pitch_bend_c, 12, 6016
1, 5637, Note_on_c, 9, 59, 0
1, 5643, Note_on_c, 1, 31, 0
1, 5647, Pitch_bend_c, 12, 5632
1, 5651, Pitch_bend_c, 12, 5376
1, 5652, Pitch_bend_c, 12, 4992
1, 5654, Pitch_bend_c, 12, 3200
1, 5663, Note_on_c, 1, 31, 111
1, 5664, Note_on_c, 9, 42, 115
1, 5664, Note_on_c, 9, 38, 125
1, 5664, Pitch_bend_c, 12, 2816
1, 5666, Pitch_bend_c, 12, 1664
1, 5668, Note_on_c, 9, 38, 0
1, 5668, Note_on_c, 9, 42, 0
1, 5676, Note_on_c, 5, 67, 0
1, 5676, Note_on_c, 12, 89, 0
1, 5682, Pitch_bend_c, 12, 1920
1, 5685, Pitch_bend_c, 12, 2432
1, 5687, Pitch_bend_c, 12, 2816
1, 5688, Pitch_bend_c, 12, 3328
1, 5689, Pitch_bend_c, 12, 3584
1, 5690, Pitch_bend_c, 12, 4224
1, 5691, Pitch_bend_c, 12, 4480
1, 5692, Pitch_bend_c, 12, 4864
1, 5693, Pitch_bend_c, 12, 5504
1, 5694, Pitch_bend_c, 12, 6144
1, 5695, Pitch_bend_c, 12, 6528
1, 5696, Note_on_c, 9, 69, 75
1, 5696, Note_on_c, 12, 89, 46
1, 5697, Pitch_bend_c, 12, 6784
1, 5698, Pitch_bend_c, 12, 7936
1, 5700, Note_on_c, 9, 69, 0
1, 5703, Pitch_bend_c, 12, 8192
1, 5706, Note_on_c, 1, 31, 0
1, 5714, Note_on_c, 2, 57, 0
1, 5723, Note_on_c, 6, 65, 0
1, 5724, Note_on_c, 12, 89, 0
1, 5726, Note_on_c, 2, 60, 0
1, 5727, Note_on_c, 1, 29, 102
1, 5728, Note_on_c, 9, 44, 115
1, 5728, Note_on_c, 9, 69, 75
1, 5729, Note_on_c, 9, 51, 87
1, 5730, Note_on_c, 2, 65, 0
1, 5732, Note_on_c, 9, 69, 0
1, 5732, Note_on_c, 9, 44, 0
1, 5733, Note_on_c, 9, 51, 0
1, 5734, Note_on_c, 6, 72, 0
1, 5735, Note_on_c, 6, 69, 0
1, 5736, Note_on_c, 14, 65, 0
1, 5738, Note_on_c, 3, 65, 0
1, 5741, Note_on_c, 14, 69, 0
1, 5744, Note_on_c, 1, 29, 0
1, 5744, Note_on_c, 1, 30, 97
1, 5746, Note_on_c, 12, 89, 46
1, 5749, Note_on_c, 2, 43, 0
1, 5759, Note_on_c, 6, 72, 95
1, 5760, Note_on_c, 1, 30, 0
1, 5760, Note_on_c, 1, 31, 111
1, 5760, Note_on_c, 2, 65, 86
1, 5760, Note_on_c, 2, 43, 88
1, 5760, Note_on_c, 2, 72, 87
1, 5760, Note_on_c, 2, 69, 88
1, 5760, Note_on_c, 6, 77, 84
1, 5760, Note_on_c, 6, 76, 82
1, 5760, Note_on_c, 6, 69, 89
1, 5760, Note_on_c, 9, 42, 115
1, 5760, Note_on_c, 9, 35, 125
1, 5760, Note_on_c, 14, 69, 87
1, 5760, Note_on_c, 14, 72, 94
1, 5761, Note_on_c, 3, 65, 75
1, 5761, Note_on_c, 9, 59, 104
1, 5764, Note_on_c, 9, 35, 0
1, 5764, Note_on_c, 9, 42, 0
1, 5765, Note_on_c, 9, 59, 0
1, 5765, Note_on_c, 6, 76, 0
1, 5768, Note_on_c, 6, 77, 0
1, 5772, Note_on_c, 6, 72, 0
1, 5773, Note_on_c, 2, 69, 0
1, 5773, Note_on_c, 6, 69, 0
1, 5774, Note_on_c, 2, 65, 0
1, 5775, Note_on_c, 2, 72, 0
1, 5780, Note_on_c, 3, 65, 0
1, 5781, Note_on_c, 14, 69, 0
1, 5782, Note_on_c, 14, 72, 0
1, 5784, Note_on_c, 2, 43, 0
1, 5788, Note_on_c, 1, 31, 0
1, 5792, Note_on_c, 9, 69, 75
1, 5796, Note_on_c, 9, 69, 0
1, 5811, Pitch_bend_c, 12, 7680
1, 5821, Note_on_c, 2, 69, 89
1, 5821, Note_on_c, 2, 72, 89
1, 5821, Note_on_c, 2, 65, 88
1, 5822, Note_on_c, 6, 72, 114
1, 5822, Note_on_c, 6, 69, 97
1, 5822, Note_on_c, 6, 77, 102
1, 5823, Note_on_c, 1, 31, 104
1, 5823, Note_on_c, 14, 69, 100
1, 5823, Note_on_c, 14, 72, 99
1, 5824, Note_on_c, 2, 43, 103
1, 5824, Note_on_c, 3, 65, 87
1, 5824, Note_on_c, 9, 44, 125
1, 5824, Note_on_c, 9, 69, 75
1, 5825, Note_on_c, 9, 59, 114
1, 5828, Note_on_c, 9, 69, 0
1, 5828, Note_on_c, 9, 44, 0
1, 5828, Pitch_bend_c, 12, 7168
1, 5829, Note_on_c, 9, 59, 0
1, 5838, Pitch_bend_c, 12, 6400
1, 5839, Note_on_c, 1, 31, 0
1, 5848, Pitch_bend_c, 12, 5632
1, 5856, Note_on_c, 1, 31, 110
1, 5856, Note_on_c, 9, 38, 125
1, 5856, Note_on_c, 9, 42, 105
1, 5857, Pitch_bend_c, 12, 5376
1, 5858, Pitch_bend_c, 12, 4992
1, 5860, Note_on_c, 9, 42, 0
1, 5860, Note_on_c, 9, 38, 0
1, 5861, Pitch_bend_c, 12, 3584
1, 5868, Pitch_bend_c, 12, 2944
1, 5875, Note_on_c, 12, 89, 0
1, 5883, Pitch_bend_c, 12, 3328
1, 5886, Pitch_bend_c, 12, 3840
1, 5888, Pitch_bend_c, 12, 4224
1, 5890, Pitch_bend_c, 12, 4736
1, 5891, Pitch_bend_c, 12, 5376
1, 5892, Pitch_bend_c, 12, 5760
1, 5894, Pitch_bend_c, 12, 6016
1, 5895, Pitch_bend_c, 12, 6400
1, 5896, Pitch_bend_c, 12, 6784
1, 5897, Note_on_c, 12, 89, 41
1, 5898, Pitch_bend_c, 12, 8192
1, 5905, Note_on_c, 1, 31, 0
1, 5920, Note_on_c, 12, 89, 0
1, 5920, Note_on_c, 9, 35, 75
1, 5920, Note_on_c, 9, 44, 115
1, 5920, Note_on_c, 9, 69, 75
1, 5921, Note_on_c, 9, 51, 92
1, 5922, Note_on_c, 1, 29, 102
1, 5924, Note_on_c, 9, 69, 0
1, 5924, Note_on_c, 9, 44, 0
1, 5924, Note_on_c, 9, 35, 0
1, 5925, Note_on_c, 9, 51, 0
1, 5928, Note_on_c, 3, 65, 0
1, 5929, Note_on_c, 14, 72, 0
1, 5930, Note_on_c, 14, 69, 0
1, 5934, Note_on_c, 6, 69, 0
1, 5936, Note_on_c, 1, 29, 0
1, 5936, Note_on_c, 1, 30, 97
1, 5938, Note_on_c, 6, 77, 0
1, 5941, Note_on_c, 6, 72, 0
1, 5949, Note_on_c, 2, 65, 0
1, 5949, Note_on_c, 2, 72, 0
1, 5949, Note_on_c, 2, 69, 0
1, 5951, Note_on_c, 1, 30, 0
1, 5951, Note_on_c, 1, 31, 111
1, 5952, Note_on_c, 2, 77, 98
1, 5952, Note_on_c, 2, 69, 96
1, 5952, Note_on_c, 2, 72, 98
1, 5952, Note_on_c, 6, 69, 92
1, 5952, Note_on_c, 6, 77, 88
1, 5952, Note_on_c, 6, 72, 97
1, 5952, Note_on_c, 9, 42, 115
1, 5952, Note_on_c, 14, 77, 88
1, 5952, Note_on_c, 14, 72, 87
1, 5952, Note_on_c, 14, 69, 85
1, 5953, Note_on_c, 3, 65, 75
1, 5953, Note_on_c, 9, 59, 102
1, 5956, Note_on_c, 9, 42, 0
1, 5957, Note_on_c, 9, 59, 0
1, 5958, Note_on_c, 12, 89, 37
1, 5966, Note_on_c, 6, 77, 0
1, 5967, Note_on_c, 6, 69, 0
1, 5967, Note_on_c, 2, 72, 0
1, 5967, Note_on_c, 2, 69, 0
1, 5968, Note_on_c, 14, 72, 0
1, 5969, Note_on_c, 6, 72, 0
1, 5970, Note_on_c, 2, 77, 0
1, 5971, Note_on_c, 14, 69, 0
1, 5972, Note_on_c, 14, 77, 0
1, 5976, Note_on_c, 3, 48, 0
1, 5977, Note_on_c, 3, 65, 0
1, 5982, Note_on_c, 12, 89, 0
1, 5984, Note_on_c, 1, 31, 0
1, 5984, Note_on_c, 9, 69, 75
1, 5988, Note_on_c, 9, 69, 0
1, 6001, Note_on_c, 2, 43, 0
1, 6014, Note_on_c, 2, 48, 103
1, 6014, Note_on_c, 2, 72, 101
1, 6014, Note_on_c, 2, 76, 101
1, 6014, Note_on_c, 2, 67, 96
1, 6014, Note_on_c, 6, 76, 105
1, 6014, Note_on_c, 14, 76, 97
1, 6015, Note_on_c, 1, 31, 100
1, 6015, Note_on_c, 3, 48, 69
1, 6015, Note_on_c, 3, 64, 79
1, 6015, Note_on_c, 6, 67, 109
1, 6015, Note_on_c, 6, 72, 105
1, 6015, Note_on_c, 14, 72, 99
1, 6015, Note_on_c, 14, 67, 97
1, 6016, Note_on_c, 9, 57, 120
1, 6016, Note_on_c, 9, 46, 127
1, 6016, Note_on_c, 9, 35, 125
1, 6020, Note_on_c, 9, 35, 0
1, 6020, Note_on_c, 9, 46, 0
1, 6020, Note_on_c, 9, 57, 0
1, 6027, Note_on_c, 1, 31, 0
1, 6033, Note_on_c, 12, 89, 20
1, 6047, Note_on_c, 1, 31, 111
1, 6048, Note_on_c, 9, 38, 85
1, 6048, Note_on_c, 9, 44, 105
1, 6049, Note_on_c, 12, 89, 0
1, 6052, Note_on_c, 9, 44, 0
1, 6052, Note_on_c, 9, 38, 0
1, 6069, Note_on_c, 14, 72, 0
1, 6073, Note_on_c, 14, 67, 0
1, 6073, Note_on_c, 14, 76, 0
1, 6090, Note_on_c, 1, 31, 0
1, 6111, Note_on_c, 1, 29, 102
1, 6112, Note_on_c, 9, 44, 125
1, 6112, Note_on_c, 9, 69, 75
1, 6112, Note_on_c, 14, 67, 97
1, 6112, Note_on_c, 14, 74, 100
1, 6112, Note_on_c, 14, 71, 104
1, 6116, Note_on_c, 9, 69, 0
1, 6116, Note_on_c, 9, 44, 0
1, 6119, Note_on_c, 2, 48, 0
1, 6128, Note_on_c, 3, 48, 0
1, 6128, Note_on_c, 1, 29, 0
1, 6128, Note_on_c, 1, 30, 97
1, 6132, Note_on_c, 3, 64, 0
1, 6133, Note_on_c, 2, 67, 0
1, 6133, Note_on_c, 2, 76, 0
1, 6135, Note_on_c, 2, 72, 0
1, 6135, Note_on_c, 6, 76, 0
1, 6137, Note_on_c, 6, 67, 0
1, 6138, Note_on_c, 6, 72, 0
1, 6140, Note_on_c, 0, 50, 127
1, 6142, Note_on_c, 0, 55, 127
1, 6144, Note_on_c, 1, 30, 0
1, 6144, Note_on_c, 1, 31, 107
1, 6144, Note_on_c, 2, 59, 74
1, 6144, Note_on_c, 2, 55, 74
1, 6144, Note_on_c, 2, 62, 74
1, 6144, Note_on_c, 4, 55, 50
1, 6144, Note_on_c, 4, 62, 52
1, 6144, Note_on_c, 4, 59, 52
1, 6144, Note_on_c, 6, 67, 87
1, 6144, Note_on_c, 6, 71, 84
1, 6144, Note_on_c, 9, 35, 125
1, 6144, Note_on_c, 9, 49, 75
1, 6144, Note_on_c, 9, 42, 115
1, 6145, Note_on_c, 0, 59, 127
1, 6145, Note_on_c, 6, 62, 75
1, 6148, Note_on_c, 9, 42, 0
1, 6148, Note_on_c, 9, 49, 0
1, 6148, Note_on_c, 9, 35, 0
1, 6148, Note_on_c, 0, 62, 127
1, 6150, Note_on_c, 0, 67, 127
1, 6176, Note_on_c, 9, 69, 75
1, 6180, Note_on_c, 9, 69, 0
1, 6184, Note_on_c, 1, 31, 0
1, 6202, Note_on_c, 0, 67, 0
1, 6208, Note_on_c, 1, 31, 102
1, 6208, Note_on_c, 9, 44, 125
1, 6208, Note_on_c, 9, 69, 75
1, 6210, Note_on_c, 0, 67, 127
1, 6212, Note_on_c, 9, 69, 0
1, 6212, Note_on_c, 9, 44, 0
1, 6212, Note_on_c, 0, 62, 0
1, 6212, Note_on_c, 0, 62, 121
1, 6226, Note_on_c, 1, 31, 0
1, 6240, Note_on_c, 1, 31, 105
1, 6240, Note_on_c, 9, 42, 105
1, 6240, Note_on_c, 9, 38, 125
1, 6242, Note_on_c, 0, 55, 0
1, 6244, Note_on_c, 9, 38, 0
1, 6244, Note_on_c, 9, 42, 0
1, 6244, Note_on_c, 0, 55, 127
1, 6276, Note_on_c, 1, 31, 0
1, 6296, Note_on_c, 0, 67, 0
1, 6297, Note_on_c, 0, 67, 127
1, 6298, Note_on_c, 0, 62, 0
1, 6300, Note_on_c, 0, 62, 127
1, 6302, Note_on_c, 0, 55, 0
1, 6303, Note_on_c, 14, 74, 0
1, 6303, Note_on_c, 0, 55, 127
1, 6304, Note_on_c, 1, 31, 92
1, 6304, Note_on_c, 9, 69, 75
1, 6304, Note_on_c, 9, 44, 115
1, 6305, Note_on_c, 14, 67, 0
1, 6308, Note_on_c, 9, 44, 0
1, 6308, Note_on_c, 9, 69, 0
1, 6308, Note_on_c, 14, 71, 0
1, 6322, Note_on_c, 1, 31, 0
1, 6324, Lyric_t, "Out "
1, 6336, Note_on_c, 1, 31, 108
1, 6336, Note_on_c, 9, 42, 115
1, 6336, Note_on_c, 9, 35, 125
1, 6340, Note_on_c, 9, 35, 0
1, 6340, Note_on_c, 9, 42, 0
1, 6359, Lyric_t, "on "
1, 6362, Note_on_c, 2, 55, 0
1, 6368, Note_on_c, 9, 69, 75
1, 6372, Note_on_c, 9, 69, 0
1, 6376, Note_on_c, 1, 31, 0
1, 6384, Lyric_t, "the "
1, 6399, Note_on_c, 1, 31, 102
1, 6400, Note_on_c, 2, 55, 70
1, 6400, Note_on_c, 9, 44, 125
1, 6404, Note_on_c, 9, 44, 0
1, 6406, Note_on_c, 2, 62, 0
1, 6408, Note_on_c, 2, 59, 0
1, 6415, Note_on_c, 1, 31, 0
1, 6422, Note_on_c, 2, 55, 0
1, 6425, Note_on_c, 0, 50, 0
1, 6425, Lyric_t, "street "
1, 6429, Note_on_c, 0, 55, 0
1, 6430, Note_on_c, 0, 50, 127
1, 6431, Note_on_c, 0, 55, 127
1, 6431, Note_on_c, 1, 31, 109
1, 6431, Note_on_c, 2, 59, 73
1, 6432, Note_on_c, 0, 59, 0
1, 6432, Note_on_c, 0, 62, 0
1, 6432, Note_on_c, 2, 62, 72
1, 6432, Note_on_c, 9, 38, 125
1, 6432, Note_on_c, 9, 42, 115
1, 6433, Note_on_c, 0, 59, 127
1, 6434, Note_on_c, 0, 67, 0
1, 6434, Note_on_c, 0, 62, 127
1, 6435, Note_on_c, 0, 67, 127
1, 6436, Note_on_c, 9, 42, 0
1, 6436, Note_on_c, 9, 38, 0
1, 6453, Note_on_c, 2, 62, 0
1, 6454, Note_on_c, 6, 62, 0
1, 6458, Note_on_c, 6, 71, 0
1, 6459, Note_on_c, 2, 59, 0
1, 6462, Note_on_c, 6, 67, 0
1, 6475, Note_on_c, 1, 31, 0
1, 6482, Note_on_c, 0, 55, 0
1, 6484, Note_on_c, 0, 50, 0
1, 6494, Note_on_c, 2, 55, 59
1, 6495, Note_on_c, 0, 59, 0
1, 6496, Note_on_c, 9, 46, 105
1, 6496, Note_on_c, 9, 69, 75
1, 6497, Note_on_c, 1, 31, 97
1, 6500, Note_on_c, 9, 69, 0
1, 6500, Note_on_c, 9, 46, 0
1, 6504, Note_on_c, 4, 62, 0
1, 6505, Lyric_t, "I "
1, 6506, Note_on_c, 4, 59, 0
1, 6513, Note_on_c, 1, 31, 0
1, 6523, Note_on_c, 0, 62, 0
1, 6527, Note_on_c, 2, 64, 73
1, 6527, Note_on_c, 2, 60, 71
1, 6528, Note_on_c, 0, 55, 127
1, 6528, Note_on_c, 9, 35, 125
1, 6528, Note_on_c, 9, 42, 115
1, 6529, Note_on_c, 0, 60, 127
1, 6529, Note_on_c, 1, 31, 101
1, 6529, Note_on_c, 4, 64, 55
1, 6529, Note_on_c, 4, 60, 49
1, 6530, Note_on_c, 0, 64, 127
1, 6531, Note_on_c, 0, 67, 0
1, 6531, Note_on_c, 0, 67, 124
1, 6532, Note_on_c, 9, 42, 0
1, 6532, Note_on_c, 9, 35, 0
1, 6535, Note_on_c, 0, 67, 0
1, 6543, Note_on_c, 0, 64, 0
1, 6543, Lyric_t, "was "
1, 6560, Note_on_c, 9, 69, 75
1, 6564, Note_on_c, 9, 69, 0
1, 6571, Note_on_c, 1, 31, 0
1, 6591, Note_on_c, 0, 64, 113
1, 6592, Note_on_c, 9, 44, 125
1, 6592, Note_on_c, 9, 69, 75
1, 6593, Note_on_c, 1, 31, 101
1, 6596, Note_on_c, 9, 69, 0
1, 6596, Note_on_c, 9, 44, 0
1, 6597, Lyric_t, "talkin\222 "
1, 6608, Note_on_c, 1, 31, 0
1, 6623, Note_on_c, 0, 55, 0
1, 6624, Note_on_c, 0, 60, 0
1, 6624, Note_on_c, 0, 55, 127
1, 6624, Note_on_c, 9, 42, 105
1, 6624, Note_on_c, 9, 38, 125
1, 6625, Note_on_c, 0, 64, 0
1, 6625, Note_on_c, 1, 31, 107
1, 6626, Note_on_c, 0, 64, 127
1, 6626, Note_on_c, 0, 60, 127
1, 6628, Note_on_c, 9, 38, 0
1, 6628, Note_on_c, 9, 42, 0
1, 6641, Note_on_c, 0, 64, 0
1, 6652, Note_on_c, 0, 60, 0
1, 6656, Note_on_c, 0, 55, 0
1, 6666, Note_on_c, 1, 31, 0
1, 6670, Lyric_t, "to "
1, 6676, Note_on_c, 2, 64, 0
1, 6679, Note_on_c, 2, 60, 0
1, 6683, Note_on_c, 0, 67, 127
1, 6686, Note_on_c, 0, 62, 127
1, 6688, Note_on_c, 0, 59, 127
1, 6688, Note_on_c, 1, 31, 103
1, 6688, Note_on_c, 9, 69, 75
1, 6688, Note_on_c, 9, 44, 115
1, 6690, Note_on_c, 0, 55, 127
1, 6691, Note_on_c, 0, 50, 127
1, 6692, Note_on_c, 9, 44, 0
1, 6692, Note_on_c, 9, 69, 0
1, 6695, Note_on_c, 4, 64, 0
1, 6697, Note_on_c, 4, 60, 0
1, 6707, Note_on_c, 1, 31, 0
1, 6711, Lyric_t, "a "
1, 6720, Note_on_c, 1, 31, 107
1, 6720, Note_on_c, 2, 62, 70
1, 6720, Note_on_c, 2, 59, 70
1, 6720, Note_on_c, 9, 35, 125
1, 6720, Note_on_c, 9, 42, 115
1, 6721, Note_on_c, 4, 62, 49
1, 6721, Note_on_c, 4, 59, 50
1, 6724, Note_on_c, 9, 42, 0
1, 6724, Note_on_c, 9, 35, 0
1, 6752, Note_on_c, 9, 69, 75
1, 6756, Note_on_c, 9, 69, 0
1, 6765, Note_on_c, 1, 31, 0
1, 6778, Note_on_c, 0, 67, 0
1, 6779, Note_on_c, 0, 67, 127
1, 6780, Note_on_c, 0, 62, 0
1, 6781, Note_on_c, 0, 62, 123
1, 6784, Note_on_c, 1, 31, 100
1, 6784, Note_on_c, 9, 44, 125
1, 6788, Note_on_c, 9, 44, 0
1, 6797, Lyric_t, "man "
1, 6797, Lyric_t, "\015"
1, 6798, Note_on_c, 1, 31, 0
1, 6816, Note_on_c, 0, 50, 0
1, 6816, Note_on_c, 0, 55, 0
1, 6816, Note_on_c, 1, 31, 101
1, 6816, Note_on_c, 9, 42, 115
1, 6816, Note_on_c, 9, 38, 125
1, 6817, Note_on_c, 0, 50, 127
1, 6818, Note_on_c, 0, 59, 0
1, 6818, Note_on_c, 0, 55, 127
1, 6819, Note_on_c, 0, 59, 127
1, 6820, Note_on_c, 9, 38, 0
1, 6820, Note_on_c, 9, 42, 0
1, 6820, Note_on_c, 0, 62, 0
1, 6821, Note_on_c, 0, 67, 0
1, 6821, Note_on_c, 0, 62, 127
1, 6822, Note_on_c, 0, 67, 127
1, 6831, Note_on_c, 0, 67, 0
1, 6832, Note_on_c, 0, 59, 0
1, 6833, Note_on_c, 0, 50, 0
1, 6833, Note_on_c, 0, 62, 0
1, 6835, Note_on_c, 1, 31, 0
1, 6836, Note_on_c, 0, 55, 0
1, 6839, Note_on_c, 2, 62, 0
1, 6842, Note_on_c, 2, 59, 0
1, 6849, Note_on_c, 2, 55, 0
1, 6869, Note_on_c, 4, 62, 0
1, 6873, Note_on_c, 4, 55, 0
1, 6876, Note_on_c, 0, 65, 127
1, 6877, Note_on_c, 0, 60, 127
1, 6879, Note_on_c, 2, 53, 73
1, 6879, Note_on_c, 2, 60, 71
1, 6879, Note_on_c, 2, 57, 74
1, 6880, Note_on_c, 0, 57, 127
1, 6880, Note_on_c, 1, 31, 96
1, 6880, Note_on_c, 9, 69, 75
1, 6880, Note_on_c, 9, 46, 105
1, 6881, Note_on_c, 0, 53, 127
1, 6883, Note_on_c, 4, 59, 0
1, 6884, Note_on_c, 9, 46, 0
1, 6884, Note_on_c, 9, 69, 0
1, 6898, Note_on_c, 1, 31, 0
1, 6898, Lyric_t, "He "
1, 6912, Note_on_c, 1, 29, 108
1, 6912, Note_on_c, 9, 42, 115
1, 6912, Note_on_c, 9, 35, 125
1, 6913, Note_on_c, 4, 60, 61
1, 6913, Note_on_c, 4, 57, 56
1, 6913, Note_on_c, 4, 65, 52
1, 6916, Note_on_c, 9, 35, 0
1, 6916, Note_on_c, 9, 42, 0
1, 6936, Lyric_t, "said "
1, 6944, Note_on_c, 2, 53, 0
1, 6944, Note_on_c, 9, 69, 75
1, 6945, Note_on_c, 2, 57, 0
1, 6947, Note_on_c, 2, 60, 0
1, 6948, Note_on_c, 9, 69, 0
1, 6955, Note_on_c, 1, 29, 0
1, 6970, Note_on_c, 0, 65, 0
1, 6971, Note_on_c, 0, 65, 127
1, 6972, Note_on_c, 0, 60, 0
1, 6973, Note_on_c, 0, 60, 123
1, 6976, Note_on_c, 1, 29, 101
1, 6976, Note_on_c, 2, 53, 71
1, 6976, Note_on_c, 2, 60, 71
1, 6976, Note_on_c, 2, 57, 72
1, 6976, Note_on_c, 9, 69, 75
1, 6976, Note_on_c, 9, 44, 125
1, 6980, Note_on_c, 9, 44, 0
1, 6980, Note_on_c, 9, 69, 0
1, 6991, Note_on_c, 1, 29, 0
1, 7000, Lyric_t, """there\222s "
1, 7006, Note_on_c, 0, 53, 0
1, 7007, Note_on_c, 0, 57, 0
1, 7007, Note_on_c, 0, 53, 127
1, 7008, Note_on_c, 1, 29, 102
1, 7008, Note_on_c, 9, 38, 125
1, 7008, Note_on_c, 9, 42, 105
1, 7009, Note_on_c, 0, 57, 127
1, 7010, Note_on_c, 0, 60, 0
1, 7010, Note_on_c, 0, 60, 127
1, 7012, Note_on_c, 9, 42, 0
1, 7012, Note_on_c, 9, 38, 0
1, 7034, Note_on_c, 0, 65, 0
1, 7038, Note_on_c, 0, 60, 0
1, 7042, Note_on_c, 0, 57, 0
1, 7046, Note_on_c, 1, 29, 0
1, 7054, Note_on_c, 0, 53, 0
1, 7066, Note_on_c, 2, 60, 0
1, 7066, Note_on_c, 0, 64, 127
1, 7067, Note_on_c, 2, 53, 0
1, 7068, Note_on_c, 0, 60, 127
1, 7069, Note_on_c, 2, 57, 0
1, 7071, Note_on_c, 0, 55, 127
1, 7072, Note_on_c, 0, 52, 127
1, 7072, Note_on_c, 1, 29, 96
1, 7072, Note_on_c, 9, 44, 115
1, 7072, Note_on_c, 9, 69, 75
1, 7076, Note_on_c, 9, 69, 0
1, 7076, Note_on_c, 4, 57, 0
1, 7076, Note_on_c, 9, 44, 0
1, 7076, Note_on_c, 4, 65, 0
1, 7083, Note_on_c, 4, 60, 0
1, 7090, Note_on_c, 1, 29, 0
1, 7095, Lyric_t, "so "
1, 7103, Note_on_c, 4, 60, 53
1, 7103, Note_on_c, 4, 64, 54
1, 7104, Note_on_c, 1, 28, 107
1, 7104, Note_on_c, 2, 55, 71
1, 7104, Note_on_c, 2, 64, 71
1, 7104, Note_on_c, 2, 60, 72
1, 7104, Note_on_c, 4, 55, 59
1, 7104, Note_on_c, 9, 35, 125
1, 7104, Note_on_c, 9, 42, 115
1, 7108, Note_on_c, 9, 42, 0
1, 7108, Note_on_c, 9, 35, 0
1, 7118, Note_on_c, 2, 60, 0
1, 7119, Note_on_c, 2, 55, 0
1, 7119, Note_on_c, 2, 64, 0
1, 7133, Lyric_t, "much "
1, 7136, Note_on_c, 9, 69, 75
1, 7140, Note_on_c, 9, 69, 0
1, 7140, Note_on_c, 1, 28, 0
1, 7163, Note_on_c, 0, 64, 0
1, 7163, Note_on_c, 0, 64, 127
1, 7166, Note_on_c, 2, 64, 73
1, 7166, Note_on_c, 2, 60, 73
1, 7166, Note_on_c, 2, 55, 71
1, 7167, Note_on_c, 1, 28, 103
1, 7168, Note_on_c, 9, 69, 75
1, 7168, Note_on_c, 9, 44, 125
1, 7172, Note_on_c, 9, 44, 0
1, 7172, Note_on_c, 9, 69, 0
1, 7178, Lyric_t, "of "
1, 7184, Note_on_c, 1, 28, 0
1, 7196, Note_on_c, 0, 52, 0
1, 7197, Note_on_c, 0, 52, 127
1, 7199, Note_on_c, 1, 28, 108
1, 7200, Note_on_c, 9, 38, 125
1, 7200, Note_on_c, 9, 42, 115
1, 7204, Note_on_c, 9, 42, 0
1, 7204, Note_on_c, 9, 38, 0
1, 7216, Lyric_t, "this "
1, 7222, Note_on_c, 0, 52, 0
1, 7225, Note_on_c, 0, 60, 0
1, 7232, Note_on_c, 9, 69, 75
1, 7234, Note_on_c, 2, 64, 0
1, 7236, Note_on_c, 9, 69, 0
1, 7239, Note_on_c, 2, 55, 0
1, 7240, Note_on_c, 1, 28, 0
1, 7242, Note_on_c, 2, 60, 0
1, 7247, Note_on_c, 0, 55, 0
1, 7247, Note_on_c, 0, 64, 0
1, 7256, Note_on_c, 0, 65, 127
1, 7257, Note_on_c, 4, 55, 0
1, 7259, Note_on_c, 0, 60, 127
1, 7260, Note_on_c, 0, 57, 127
1, 7261, Note_on_c, 0, 53, 127
1, 7262, Note_on_c, 4, 64, 0
1, 7264, Note_on_c, 9, 69, 75
1, 7264, Note_on_c, 9, 46, 105
1, 7265, Note_on_c, 1, 29, 98
1, 7266, Note_on_c, 2, 60, 73
1, 7266, Note_on_c, 2, 57, 74
1, 7266, Note_on_c, 2, 65, 72
1, 7266, Note_on_c, 4, 65, 47
1, 7266, Note_on_c, 4, 57, 46
1, 7268, Note_on_c, 9, 46, 0
1, 7268, Note_on_c, 9, 69, 0
1, 7273, Lyric_t, "life "
1, 7282, Note_on_c, 1, 29, 0
1, 7289, Note_on_c, 2, 65, 0
1, 7291, Note_on_c, 2, 60, 0
1, 7292, Note_on_c, 2, 57, 0
1, 7296, Note_on_c, 0, 65, 0
1, 7296, Note_on_c, 9, 42, 115
1, 7296, Note_on_c, 9, 35, 125
1, 7297, Note_on_c, 0, 60, 0
1, 7297, Note_on_c, 1, 29, 105
1, 7300, Note_on_c, 9, 35, 0
1, 7300, Note_on_c, 9, 42, 0
1, 7301, Note_on_c, 0, 57, 0
1, 7304, Note_on_c, 0, 53, 0
1, 7313, Note_on_c, 4, 65, 0
1, 7318, Note_on_c, 4, 57, 0
1, 7328, Note_on_c, 9, 69, 75
1, 7330, Lyric_t, "of "
1, 7331, Note_on_c, 1, 29, 0
1, 7332, Note_on_c, 9, 69, 0
1, 7336, Note_on_c, 4, 60, 0
1, 7353, Note_on_c, 0, 64, 127
1, 7355, Note_on_c, 0, 60, 127
1, 7357, Note_on_c, 0, 55, 127
1, 7359, Note_on_c, 2, 64, 73
1, 7359, Note_on_c, 2, 55, 74
1, 7359, Note_on_c, 2, 60, 73
1, 7360, Note_on_c, 0, 52, 127
1, 7360, Note_on_c, 1, 28, 103
1, 7360, Note_on_c, 4, 60, 49
1, 7360, Note_on_c, 4, 64, 51
1, 7360, Note_on_c, 9, 44, 125
1, 7360, Note_on_c, 9, 46, 115
1, 7360, Note_on_c, 9, 69, 75
1, 7361, Note_on_c, 4, 55, 51
1, 7364, Note_on_c, 9, 69, 0
1, 7364, Note_on_c, 9, 46, 0
1, 7364, Note_on_c, 9, 44, 0
1, 7371, Lyric_t, "mine "
1, 7371, Lyric_t, "\015"
1, 7376, Note_on_c, 1, 28, 0
1, 7386, Note_on_c, 2, 64, 0
1, 7389, Note_on_c, 0, 52, 0
1, 7389, Note_on_c, 0, 60, 0
1, 7392, Note_on_c, 2, 55, 0
1, 7392, Note_on_c, 2, 60, 0
1, 7392, Note_on_c, 9, 38, 125
1, 7392, Note_on_c, 9, 42, 105
1, 7394, Note_on_c, 0, 55, 0
1, 7396, Note_on_c, 9, 42, 0
1, 7396, Note_on_c, 0, 64, 0
1, 7396, Note_on_c, 9, 38, 0
1, 7409, Note_on_c, 4, 64, 0
1, 7410, Note_on_c, 4, 60, 0
1, 7412, Lyric_t, "that "
1, 7414, Note_on_c, 4, 55, 0
1, 7452, Note_on_c, 0, 67, 127
1, 7453, Note_on_c, 0, 62, 127
1, 7455, Note_on_c, 2, 62, 75
1, 7455, Note_on_c, 2, 59, 77
1, 7455, Note_on_c, 2, 55, 76
1, 7455, Note_on_c, 4, 55, 53
1, 7456, Note_on_c, 0, 55, 127
1, 7456, Note_on_c, 4, 62, 55
1, 7456, Note_on_c, 4, 59, 57
1, 7456, Note_on_c, 9, 44, 115
1, 7456, Note_on_c, 9, 69, 75
1, 7456, Note_on_c, 9, 46, 115
1, 7457, Note_on_c, 0, 59, 127
1, 7457, Note_on_c, 1, 31, 91
1, 7457, Lyric_t, "I "
1, 7460, Note_on_c, 9, 46, 0
1, 7460, Note_on_c, 9, 69, 0
1, 7460, Note_on_c, 9, 44, 0
1, 7488, Note_on_c, 9, 42, 115
1, 7488, Note_on_c, 9, 35, 125
1, 7490, Note_on_c, 0, 50, 121
1, 7492, Note_on_c, 9, 35, 0
1, 7492, Note_on_c, 9, 42, 0
1, 7502, Lyric_t, "don\222t "
1, 7510, Note_on_c, 1, 31, 0
1, 7514, Note_on_c, 2, 55, 0
1, 7520, Note_on_c, 9, 69, 75
1, 7522, Note_on_c, 0, 55, 0
1, 7523, Note_on_c, 0, 59, 0
1, 7524, Note_on_c, 9, 69, 0
1, 7540, Note_on_c, 0, 50, 0
1, 7546, Lyric_t, "understand"" "
1, 7546, Lyric_t, "\015"
1, 7552, Note_on_c, 1, 31, 103
1, 7552, Note_on_c, 9, 44, 125
1, 7553, Note_on_c, 2, 55, 61
1, 7556, Note_on_c, 9, 44, 0
1, 7558, Note_on_c, 2, 62, 0
1, 7560, Note_on_c, 4, 62, 0
1, 7561, Note_on_c, 4, 59, 0
1, 7563, Note_on_c, 4, 55, 0
1, 7563, Note_on_c, 2, 59, 0
1, 7568, Note_on_c, 1, 31, 0
1, 7573, Note_on_c, 0, 62, 0
1, 7581, Note_on_c, 0, 67, 0
1, 7581, Note_on_c, 0, 55, 127
1, 7583, Note_on_c, 0, 64, 127
1, 7584, Note_on_c, 0, 67, 127
1, 7584, Note_on_c, 2, 60, 75
1, 7584, Note_on_c, 2, 64, 77
1, 7584, Note_on_c, 4, 55, 47
1, 7584, Note_on_c, 4, 60, 54
1, 7584, Note_on_c, 4, 64, 46
1, 7584, Note_on_c, 6, 72, 101
1, 7584, Note_on_c, 6, 67, 103
1, 7584, Note_on_c, 9, 42, 115
1, 7584, Note_on_c, 9, 38, 125
1, 7585, Note_on_c, 0, 60, 127
1, 7585, Note_on_c, 1, 31, 105
1, 7588, Note_on_c, 9, 38, 0
1, 7588, Note_on_c, 9, 42, 0
1, 7606, Note_on_c, 2, 55, 0
1, 7608, Note_on_c, 4, 64, 0
1, 7609, Note_on_c, 2, 64, 0
1, 7610, Note_on_c, 2, 60, 0
1, 7610, Note_on_c, 4, 60, 0
1, 7611, Note_on_c, 4, 55, 0
1, 7615, Note_on_c, 0, 64, 0
1, 7619, Note_on_c, 0, 67, 0
1, 7621, Note_on_c, 0, 60, 0
1, 7622, Note_on_c, 6, 72, 0
1, 7627, Note_on_c, 0, 55, 0
1, 7628, Note_on_c, 6, 67, 0
1, 7629, Note_on_c, 1, 31, 0
1, 7645, Note_on_c, 6, 67, 99
1, 7646, Note_on_c, 6, 71, 103
1, 7647, Note_on_c, 0, 67, 127
1, 7647, Note_on_c, 2, 59, 77
1, 7648, Note_on_c, 0, 62, 127
1, 7648, Note_on_c, 2, 62, 77
1, 7648, Note_on_c, 2, 55, 76
1, 7648, Note_on_c, 4, 59, 57
1, 7648, Note_on_c, 4, 55, 54
1, 7648, Note_on_c, 4, 62, 55
1, 7648, Note_on_c, 9, 46, 105
1, 7648, Note_on_c, 9, 69, 75
1, 7649, Note_on_c, 1, 31, 97
1, 7651, Note_on_c, 0, 55, 127
1, 7652, Note_on_c, 9, 69, 0
1, 7652, Note_on_c, 9, 46, 0
1, 7653, Note_on_c, 0, 50, 127
1, 7654, Note_on_c, 0, 59, 127
1, 7670, Lyric_t, "You "
1, 7673, Note_on_c, 2, 59, 0
1, 7674, Note_on_c, 2, 55, 0
1, 7674, Note_on_c, 2, 62, 0
1, 7679, Note_on_c, 1, 31, 0
1, 7680, Note_on_c, 1, 31, 107
1, 7680, Note_on_c, 9, 42, 115
1, 7680, Note_on_c, 9, 35, 125
1, 7682, Note_on_c, 0, 67, 0
1, 7683, Note_on_c, 0, 62, 0
1, 7684, Note_on_c, 9, 35, 0
1, 7684, Note_on_c, 9, 42, 0
1, 7686, Note_on_c, 0, 55, 0
1, 7688, Note_on_c, 6, 71, 0
1, 7688, Note_on_c, 0, 50, 0
1, 7688, Note_on_c, 6, 67, 0
1, 7689, Note_on_c, 0, 59, 0
1, 7712, Note_on_c, 9, 69, 75
1, 7716, Note_on_c, 9, 69, 0
1, 7720, Note_on_c, 1, 31, 0
1, 7743, Note_on_c, 2, 59, 71
1, 7743, Note_on_c, 2, 55, 69
1, 7743, Note_on_c, 2, 62, 72
1, 7744, Note_on_c, 0, 67, 127
1, 7744, Note_on_c, 1, 31, 102
1, 7744, Note_on_c, 9, 44, 125
1, 7744, Note_on_c, 9, 69, 75
1, 7747, Note_on_c, 0, 62, 127
1, 7748, Note_on_c, 9, 69, 0
1, 7748, Note_on_c, 9, 44, 0
1, 7749, Note_on_c, 0, 59, 127
1, 7762, Note_on_c, 1, 31, 0
1, 7774, Note_on_c, 0, 50, 127
1, 7776, Note_on_c, 0, 55, 127
1, 7776, Note_on_c, 1, 31, 105
1, 7776, Note_on_c, 9, 38, 125
1, 7776, Note_on_c, 9, 42, 105
1, 7777, Note_on_c, 0, 59, 0
1, 7778, Note_on_c, 0, 59, 127
1, 7780, Note_on_c, 9, 42, 0
1, 7780, Note_on_c, 9, 38, 0
1, 7812, Note_on_c, 1, 31, 0
1, 7832, Note_on_c, 0, 67, 0
1, 7835, Note_on_c, 0, 62, 0
1, 7835, Note_on_c, 0, 67, 127
1, 7836, Note_on_c, 0, 62, 127
1, 7840, Note_on_c, 1, 31, 92
1, 7840, Note_on_c, 9, 44, 115
1, 7840, Note_on_c, 9, 69, 75
1, 7844, Note_on_c, 9, 69, 0
1, 7844, Note_on_c, 9, 44, 0
1, 7850, Note_on_c, 2, 59, 0
1, 7851, Note_on_c, 2, 62, 0
1, 7858, Note_on_c, 1, 31, 0
1, 7860, Note_on_c, 2, 55, 0
1, 7867, Lyric_t, "shouldn\222t "
1, 7871, Note_on_c, 2, 55, 62
1, 7871, Note_on_c, 2, 59, 72
1, 7872, Note_on_c, 1, 31, 108
1, 7872, Note_on_c, 2, 62, 73
1, 7872, Note_on_c, 9, 35, 125
1, 7872, Note_on_c, 9, 42, 115
1, 7876, Note_on_c, 9, 42, 0
1, 7876, Note_on_c, 9, 35, 0
1, 7904, Note_on_c, 9, 69, 75
1, 7908, Note_on_c, 9, 69, 0
1, 7912, Note_on_c, 1, 31, 0
1, 7934, Note_on_c, 0, 67, 0
1, 7935, Note_on_c, 0, 67, 127
1, 7935, Note_on_c, 1, 31, 102
1, 7936, Note_on_c, 9, 44, 125
1, 7937, Note_on_c, 0, 62, 0
1, 7937, Note_on_c, 0, 62, 127
1, 7939, Note_on_c, 0, 59, 0
1, 7939, Note_on_c, 0, 59, 127
1, 7940, Note_on_c, 9, 44, 0
1, 7951, Note_on_c, 1, 31, 0
1, 7964, Note_on_c, 0, 55, 0
1, 7965, Note_on_c, 0, 55, 127
1, 7967, Note_on_c, 1, 31, 109
1, 7968, Note_on_c, 0, 67, 0
1, 7968, Note_on_c, 9, 38, 125
1, 7968, Note_on_c, 9, 42, 115
1, 7969, Note_on_c, 0, 67, 127
1, 7972, Note_on_c, 9, 42, 0
1, 7972, Note_on_c, 9, 38, 0
1, 7998, Note_on_c, 2, 55, 0
1, 8011, Note_on_c, 1, 31, 0
1, 8013, Note_on_c, 0, 55, 0
1, 8015, Note_on_c, 0, 50, 0
1, 8022, Note_on_c, 0, 59, 0
1, 8022, Note_on_c, 0, 67, 0
1, 8025, Note_on_c, 0, 67, 127
1, 8027, Note_on_c, 0, 62, 0
1, 8027, Note_on_c, 0, 62, 121
1, 8032, Note_on_c, 9, 69, 75
1, 8032, Note_on_c, 9, 46, 105
1, 8033, Note_on_c, 1, 31, 97
1, 8033, Note_on_c, 2, 55, 70
1, 8036, Note_on_c, 9, 46, 0
1, 8036, Note_on_c, 9, 69, 0
1, 8037, Note_on_c, 4, 62, 0
1, 8038, Note_on_c, 2, 62, 0
1, 8040, Note_on_c, 2, 59, 0
1, 8041, Note_on_c, 4, 59, 0
1, 8041, Lyric_t, "worry "
1, 8049, Note_on_c, 1, 31, 0
1, 8059, Note_on_c, 0, 55, 127
1, 8061, Note_on_c, 0, 67, 0
1, 8061, Note_on_c, 0, 60, 127
1, 8062, Note_on_c, 0, 67, 127
1, 8063, Note_on_c, 4, 60, 54
1, 8064, Note_on_c, 2, 60, 75
1, 8064, Note_on_c, 4, 64, 58
1, 8064, Note_on_c, 9, 35, 125
1, 8064, Note_on_c, 9, 42, 115
1, 8065, Note_on_c, 1, 31, 101
1, 8065, Note_on_c, 2, 64, 74
1, 8066, Note_on_c, 0, 62, 0
1, 8067, Note_on_c, 0, 64, 119
1, 8068, Note_on_c, 9, 42, 0
1, 8068, Note_on_c, 9, 35, 0
1, 8082, Note_on_c, 2, 64, 0
1, 8084, Note_on_c, 2, 60, 0
1, 8085, Note_on_c, 2, 55, 0
1, 8087, Note_on_c, 0, 67, 0
1, 8096, Note_on_c, 9, 69, 75
1, 8100, Note_on_c, 9, 69, 0
1, 8102, Lyric_t, "yes "
1, 8107, Note_on_c, 1, 31, 0
1, 8128, Note_on_c, 2, 60, 72
1, 8128, Note_on_c, 2, 55, 72
1, 8128, Note_on_c, 2, 64, 74
1, 8128, Note_on_c, 9, 69, 75
1, 8128, Note_on_c, 9, 44, 125
1, 8129, Note_on_c, 1, 31, 101
1, 8132, Note_on_c, 9, 44, 0
1, 8132, Note_on_c, 9, 69, 0
1, 8144, Note_on_c, 1, 31, 0
1, 8153, Note_on_c, 0, 64, 0
1, 8156, Note_on_c, 0, 60, 0
1, 8158, Note_on_c, 0, 60, 127
1, 8160, Note_on_c, 0, 67, 122
1, 8160, Note_on_c, 9, 42, 105
1, 8160, Note_on_c, 9, 38, 125
1, 8161, Note_on_c, 1, 31, 107
1, 8162, Note_on_c, 0, 64, 127
1, 8164, Note_on_c, 9, 38, 0
1, 8164, Note_on_c, 9, 42, 0
1, 8165, Note_on_c, 0, 67, 0
1, 8166, Note_on_c, 0, 64, 0
1, 8185, Note_on_c, 0, 60, 0
1, 8191, Note_on_c, 0, 55, 0
1, 8192, Note_on_c, 2, 64, 0
1, 8193, Note_on_c, 2, 60, 0
1, 8201, Note_on_c, 2, 55, 0
1, 8202, Note_on_c, 1, 31, 0
1, 8222, Note_on_c, 0, 67, 127
1, 8224, Note_on_c, 0, 62, 127
1, 8224, Note_on_c, 1, 31, 103
1, 8224, Note_on_c, 2, 59, 74
1, 8224, Note_on_c, 2, 62, 73
1, 8224, Note_on_c, 2, 55, 73
1, 8224, Note_on_c, 9, 44, 115
1, 8224, Note_on_c, 9, 69, 75
1, 8226, Note_on_c, 0, 59, 127
1, 8228, Note_on_c, 9, 69, 0
1, 8228, Note_on_c, 9, 44, 0
1, 8228, Note_on_c, 0, 55, 127
1, 8230, Note_on_c, 4, 64, 0
1, 8231, Note_on_c, 0, 50, 115
1, 8233, Note_on_c, 4, 60, 0
1, 8235, Lyric_t, "that "
1, 8243, Note_on_c, 1, 31, 0
1, 8256, Note_on_c, 1, 31, 107
1, 8256, Note_on_c, 4, 59, 40
1, 8256, Note_on_c, 4, 62, 44
1, 8256, Note_on_c, 9, 35, 125
1, 8256, Note_on_c, 9, 42, 115
1, 8260, Note_on_c, 9, 42, 0
1, 8260, Note_on_c, 9, 35, 0
1, 8279, Lyric_t, "ain\222t "
1, 8285, Note_on_c, 2, 55, 0
1, 8288, Note_on_c, 9, 69, 75
1, 8292, Note_on_c, 9, 69, 0
1, 8301, Note_on_c, 1, 31, 0
1, 8320, Note_on_c, 0, 67, 0
1, 8320, Note_on_c, 1, 31, 100
1, 8320, Note_on_c, 9, 44, 125
1, 8322, Note_on_c, 2, 55, 67
1, 8324, Note_on_c, 9, 44, 0
1, 8324, Note_on_c, 0, 62, 0
1, 8324, Note_on_c, 0, 62, 127
1, 8324, Lyric_t, "no "
1, 8326, Note_on_c, 0, 67, 127
1, 8331, Note_on_c, 2, 62, 0
1, 8333, Note_on_c, 2, 59, 0
1, 8334, Note_on_c, 1, 31, 0
1, 8334, Note_on_c, 2, 55, 0
1, 8352, Note_on_c, 1, 31, 101
1, 8352, Note_on_c, 9, 42, 115
1, 8352, Note_on_c, 9, 38, 125
1, 8353, Note_on_c, 2, 62, 73
1, 8353, Note_on_c, 2, 55, 71
1, 8353, Note_on_c, 2, 59, 73
1, 8355, Note_on_c, 0, 55, 0
1, 8355, Note_on_c, 0, 55, 127
1, 8356, Note_on_c, 9, 38, 0
1, 8356, Note_on_c, 9, 42, 0
1, 8357, Note_on_c, 0, 59, 0
1, 8358, Note_on_c, 0, 62, 0
1, 8358, Note_on_c, 0, 59, 127
1, 8359, Note_on_c, 0, 62, 127
1, 8360, Note_on_c, 0, 67, 0
1, 8361, Note_on_c, 0, 67, 127
1, 8365, Note_on_c, 0, 67, 0
1, 8366, Note_on_c, 0, 50, 0
1, 8366, Note_on_c, 0, 59, 0
1, 8368, Note_on_c, 0, 62, 0
1, 8371, Note_on_c, 1, 31, 0
1, 8372, Note_on_c, 2, 55, 0
1, 8373, Note_on_c, 0, 55, 0
1, 8378, Lyric_t, "crime "
1, 8378, Lyric_t, "\015"
1, 8398, Note_on_c, 4, 55, 0
1, 8405, Note_on_c, 2, 62, 0
1, 8408, Note_on_c, 4, 62, 0
1, 8409, Note_on_c, 2, 59, 0
1, 8414, Note_on_c, 4, 59, 0
1, 8414, Note_on_c, 0, 65, 127
1, 8416, Note_on_c, 0, 60, 127
1, 8416, Note_on_c, 1, 31, 96
1, 8416, Note_on_c, 9, 69, 75
1, 8416, Note_on_c, 9, 46, 105
1, 8418, Note_on_c, 0, 57, 127
1, 8420, Note_on_c, 9, 46, 0
1, 8420, Note_on_c, 9, 69, 0
1, 8420, Note_on_c, 0, 53, 127
1, 8434, Note_on_c, 1, 31, 0
1, 8448, Note_on_c, 1, 29, 108
1, 8448, Note_on_c, 2, 57, 73
1, 8448, Note_on_c, 2, 60, 73
1, 8448, Note_on_c, 2, 65, 73
1, 8448, Note_on_c, 4, 57, 58
1, 8448, Note_on_c, 4, 60, 59
1, 8448, Note_on_c, 9, 35, 125
1, 8448, Note_on_c, 9, 42, 115
1, 8449, Note_on_c, 4, 65, 55
1, 8452, Note_on_c, 9, 42, 0
1, 8452, Note_on_c, 9, 35, 0
1, 8480, Note_on_c, 9, 69, 75
1, 8484, Note_on_c, 9, 69, 0
1, 8491, Note_on_c, 1, 29, 0
1, 8506, Note_on_c, 0, 65, 0
1, 8507, Note_on_c, 0, 65, 127
1, 8509, Note_on_c, 0, 60, 0
1, 8510, Note_on_c, 0, 60, 127
1, 8512, Note_on_c, 0, 57, 0
1, 8512, Note_on_c, 0, 57, 127
1, 8512, Note_on_c, 1, 29, 101
1, 8512, Note_on_c, 9, 44, 125
1, 8512, Note_on_c, 9, 69, 75
1, 8516, Note_on_c, 9, 69, 0
1, 8516, Note_on_c, 9, 44, 0
1, 8527, Note_on_c, 1, 29, 0
1, 8527, Note_on_c, 2, 65, 0
1, 8528, Note_on_c, 2, 57, 0
1, 8530, Note_on_c, 2, 60, 0
1, 8530, Lyric_t, "Cause "
1, 8538, Note_on_c, 0, 53, 0
1, 8539, Note_on_c, 0, 53, 127
1, 8541, Note_on_c, 0, 57, 0
1, 8542, Note_on_c, 0, 57, 127
1, 8543, Note_on_c, 0, 60, 0
1, 8543, Note_on_c, 2, 60, 72
1, 8543, Note_on_c, 2, 57, 71
1, 8543, Note_on_c, 2, 65, 76
1, 8544, Note_on_c, 0, 60, 127
1, 8544, Note_on_c, 1, 29, 102
1, 8544, Note_on_c, 9, 42, 105
1, 8544, Note_on_c, 9, 38, 125
1, 8548, Note_on_c, 9, 38, 0
1, 8548, Note_on_c, 9, 42, 0
1, 8568, Note_on_c, 0, 65, 0
1, 8571, Note_on_c, 0, 60, 0
1, 8573, Note_on_c, 0, 57, 0
1, 8575, Lyric_t, "if "
1, 8577, Note_on_c, 2, 57, 0
1, 8582, Note_on_c, 1, 29, 0
1, 8585, Note_on_c, 0, 53, 0
1, 8601, Note_on_c, 0, 64, 127
1, 8602, Note_on_c, 4, 65, 0
1, 8603, Note_on_c, 4, 57, 0
1, 8603, Note_on_c, 0, 60, 127
1, 8605, Note_on_c, 0, 55, 127
1, 8608, Note_on_c, 0, 52, 127
1, 8608, Note_on_c, 1, 29, 96
1, 8608, Note_on_c, 9, 44, 115
1, 8608, Note_on_c, 9, 69, 75
1, 8609, Note_on_c, 2, 65, 0
1, 8612, Note_on_c, 4, 60, 0
1, 8612, Note_on_c, 9, 69, 0
1, 8612, Note_on_c, 9, 44, 0
1, 8613, Lyric_t, "you "
1, 8619, Note_on_c, 2, 60, 0
1, 8626, Note_on_c, 1, 29, 0
1, 8639, Note_on_c, 4, 64, 53
1, 8639, Note_on_c, 4, 60, 51
1, 8639, Note_on_c, 4, 55, 54
1, 8640, Note_on_c, 1, 28, 107
1, 8640, Note_on_c, 2, 64, 71
1, 8640, Note_on_c, 2, 60, 70
1, 8640, Note_on_c, 9, 42, 115
1, 8640, Note_on_c, 9, 35, 125
1, 8641, Note_on_c, 2, 55, 65
1, 8644, Note_on_c, 9, 35, 0
1, 8644, Note_on_c, 9, 42, 0
1, 8651, Lyric_t, "get "
1, 8653, Note_on_c, 2, 55, 0
1, 8656, Note_on_c, 2, 60, 0
1, 8656, Note_on_c, 2, 64, 0
1, 8672, Note_on_c, 9, 69, 75
1, 8676, Note_on_c, 9, 69, 0
1, 8676, Note_on_c, 1, 28, 0
1, 8701, Note_on_c, 0, 64, 0
1, 8701, Note_on_c, 0, 64, 127
1, 8703, Note_on_c, 0, 60, 0
1, 8703, Note_on_c, 1, 28, 103
1, 8703, Note_on_c, 2, 64, 74
1, 8703, Note_on_c, 2, 55, 74
1, 8703, Note_on_c, 2, 60, 73
1, 8704, Note_on_c, 0, 60, 127
1, 8704, Note_on_c, 9, 44, 125
1, 8704, Note_on_c, 9, 69, 75
1, 8708, Note_on_c, 9, 69, 0
1, 8708, Note_on_c, 9, 44, 0
1, 8711, Lyric_t, "it "
1, 8720, Note_on_c, 1, 28, 0
1, 8732, Note_on_c, 0, 52, 0
1, 8732, Note_on_c, 0, 52, 127
1, 8735, Note_on_c, 1, 28, 108
1, 8736, Note_on_c, 0, 55, 0
1, 8736, Note_on_c, 0, 55, 127
1, 8736, Note_on_c, 9, 42, 115
1, 8736, Note_on_c, 9, 38, 125
1, 8737, Note_on_c, 0, 60, 0
1, 8738, Note_on_c, 0, 64, 0
1, 8738, Note_on_c, 0, 60, 127
1, 8739, Note_on_c, 0, 64, 127
1, 8740, Note_on_c, 9, 38, 0
1, 8740, Note_on_c, 9, 42, 0
1, 8746, Lyric_t, "wrong "
1, 8746, Lyric_t, "\015"
1, 8757, Note_on_c, 0, 52, 0
1, 8760, Note_on_c, 0, 60, 0
1, 8768, Note_on_c, 9, 69, 75
1, 8769, Note_on_c, 4, 55, 0
1, 8769, Note_on_c, 4, 64, 0
1, 8772, Note_on_c, 9, 69, 0
1, 8776, Note_on_c, 1, 28, 0
1, 8782, Note_on_c, 0, 55, 0
1, 8785, Note_on_c, 0, 64, 0
1, 8789, Note_on_c, 2, 64, 0
1, 8791, Note_on_c, 4, 60, 0
1, 8795, Note_on_c, 0, 65, 127
1, 8797, Note_on_c, 2, 55, 0
1, 8799, Note_on_c, 0, 57, 127
1, 8800, Note_on_c, 0, 60, 127
1, 8800, Note_on_c, 4, 57, 49
1, 8800, Note_on_c, 4, 65, 52
1, 8800, Note_on_c, 4, 60, 45
1, 8800, Note_on_c, 9, 46, 105
1, 8800, Note_on_c, 9, 69, 75
1, 8801, Note_on_c, 0, 53, 127
1, 8801, Note_on_c, 1, 29, 98
1, 8804, Note_on_c, 9, 69, 0
1, 8804, Note_on_c, 9, 46, 0
1, 8814, Note_on_c, 2, 60, 0
1, 8818, Note_on_c, 1, 29, 0
1, 8822, Lyric_t, "you\222ll "
1, 8831, Note_on_c, 0, 60, 0
1, 8831, Note_on_c, 0, 65, 0
1, 8832, Note_on_c, 2, 57, 72
1, 8832, Note_on_c, 2, 60, 72
1, 8832, Note_on_c, 2, 65, 72
1, 8832, Note_on_c, 9, 42, 115
1, 8832, Note_on_c, 9, 35, 125
1, 8833, Note_on_c, 1, 29, 105
1, 8835, Note_on_c, 0, 57, 0
1, 8836, Note_on_c, 9, 35, 0
1, 8836, Note_on_c, 9, 42, 0
1, 8840, Note_on_c, 0, 53, 0
1, 8841, Note_on_c, 4, 57, 0
1, 8845, Note_on_c, 4, 65, 0
1, 8855, Note_on_c, 4, 60, 0
1, 8856, Note_on_c, 2, 65, 0
1, 8857, Note_on_c, 2, 57, 0
1, 8857, Lyric_t, "get "
1, 8861, Note_on_c, 2, 60, 0
1, 8864, Note_on_c, 9, 69, 75
1, 8867, Note_on_c, 1, 29, 0
1, 8868, Note_on_c, 9, 69, 0
1, 8886, Lyric_t, "it "
1, 8889, Note_on_c, 0, 64, 127
1, 8891, Note_on_c, 0, 60, 127
1, 8894, Note_on_c, 0, 55, 127
1, 8895, Note_on_c, 0, 52, 127
1, 8895, Note_on_c, 2, 60, 71
1, 8895, Note_on_c, 2, 64, 74
1, 8896, Note_on_c, 1, 28, 103
1, 8896, Note_on_c, 2, 55, 72
1, 8896, Note_on_c, 4, 55, 51
1, 8896, Note_on_c, 4, 64, 54
1, 8896, Note_on_c, 4, 60, 48
1, 8896, Note_on_c, 9, 46, 115
1, 8896, Note_on_c, 9, 69, 75
1, 8896, Note_on_c, 9, 44, 125
1, 8900, Note_on_c, 9, 44, 0
1, 8900, Note_on_c, 9, 69, 0
1, 8900, Note_on_c, 9, 46, 0
1, 8912, Note_on_c, 1, 28, 0
1, 8919, Note_on_c, 0, 64, 0
1, 8921, Note_on_c, 0, 60, 0
1, 8921, Note_on_c, 0, 52, 0
1, 8928, Note_on_c, 9, 42, 105
1, 8928, Note_on_c, 9, 38, 125
1, 8930, Note_on_c, 0, 55, 0
1, 8930, Note_on_c, 0, 59, 118
1, 8931, Note_on_c, 2, 64, 0
1, 8932, Note_on_c, 2, 60, 0
1, 8932, Note_on_c, 9, 42, 0
1, 8932, Note_on_c, 9, 38, 0
1, 8932, Note_on_c, 0, 64, 115
1, 8933, Note_on_c, 2, 55, 0
1, 8934, Note_on_c, 0, 59, 0
1, 8935, Note_on_c, 0, 64, 0
1, 8945, Note_on_c, 4, 64, 0
1, 8947, Note_on_c, 4, 55, 0
1, 8947, Note_on_c, 4, 60, 0
1, 8953, Lyric_t, "right "
1, 8986, Note_on_c, 0, 67, 127
1, 8988, Note_on_c, 0, 62, 127
1, 8989, Note_on_c, 0, 59, 127
1, 8990, Note_on_c, 2, 55, 76
1, 8990, Note_on_c, 2, 62, 76
1, 8990, Note_on_c, 2, 59, 77
1, 8992, Note_on_c, 0, 55, 127
1, 8992, Note_on_c, 4, 59, 57
1, 8992, Note_on_c, 4, 55, 53
1, 8992, Note_on_c, 4, 62, 53
1, 8992, Note_on_c, 9, 46, 115
1, 8992, Note_on_c, 9, 69, 75
1, 8992, Note_on_c, 9, 44, 115
1, 8993, Note_on_c, 0, 50, 127
1, 8993, Note_on_c, 1, 31, 91
1, 8996, Note_on_c, 9, 44, 0
1, 8996, Note_on_c, 9, 69, 0
1, 8996, Note_on_c, 9, 46, 0
1, 9010, Lyric_t, "next "
1, 9024, Note_on_c, 9, 35, 125
1, 9024, Note_on_c, 9, 42, 115
1, 9028, Note_on_c, 9, 42, 0
1, 9028, Note_on_c, 9, 35, 0
1, 9046, Note_on_c, 1, 31, 0
1, 9056, Note_on_c, 9, 69, 75
1, 9060, Note_on_c, 9, 69, 0
1, 9064, Note_on_c, 2, 55, 0
1, 9066, Note_on_c, 0, 50, 0
1, 9067, Note_on_c, 0, 55, 0
1, 9083, Note_on_c, 0, 59, 0
1, 9088, Note_on_c, 1, 31, 103
1, 9088, Note_on_c, 9, 44, 125
1, 9092, Note_on_c, 9, 44, 0
1, 9093, Note_on_c, 4, 62, 0
1, 9094, Note_on_c, 4, 55, 0
1, 9096, Note_on_c, 4, 59, 0
1, 9104, Note_on_c, 1, 31, 0
1, 9104, Note_on_c, 2, 62, 0
1, 9106, Note_on_c, 2, 59, 0
1, 9108, Note_on_c, 0, 62, 0
1, 9114, Lyric_t, "time "
1, 9117, Note_on_c, 0, 67, 0
1, 9119, Note_on_c, 0, 55, 127
1, 9120, Note_on_c, 4, 55, 55
1, 9120, Note_on_c, 6, 72, 106
1, 9120, Note_on_c, 6, 67, 108
1, 9120, Note_on_c, 9, 38, 125
1, 9120, Note_on_c, 9, 42, 115
1, 9121, Note_on_c, 1, 31, 105
1, 9121, Note_on_c, 2, 64, 69
1, 9121, Note_on_c, 2, 55, 68
1, 9121, Note_on_c, 2, 60, 69
1, 9121, Note_on_c, 4, 64, 50
1, 9121, Note_on_c, 4, 62, 48
1, 9121, Note_on_c, 4, 60, 54
1, 9123, Note_on_c, 0, 64, 127
1, 9124, Note_on_c, 9, 42, 0
1, 9124, Note_on_c, 9, 38, 0
1, 9124, Note_on_c, 0, 60, 127
1, 9134, Note_on_c, 2, 64, 0
1, 9134, Note_on_c, 2, 60, 0
1, 9134, Note_on_c, 2, 55, 0
1, 9145, Note_on_c, 0, 64, 0
1, 9153, Note_on_c, 4, 62, 0
1, 9156, Note_on_c, 0, 60, 0
1, 9158, Note_on_c, 6, 72, 0
1, 9159, Note_on_c, 4, 64, 0
1, 9160, Note_on_c, 4, 55, 0
1, 9164, Note_on_c, 6, 67, 0
1, 9164, Note_on_c, 4, 60, 0
1, 9165, Note_on_c, 1, 31, 0
1, 9181, Note_on_c, 0, 67, 127
1, 9181, Note_on_c, 6, 67, 104
1, 9182, Note_on_c, 6, 71, 108
1, 9183, Note_on_c, 0, 62, 127
1, 9183, Note_on_c, 2, 59, 77
1, 9183, Note_on_c, 2, 62, 75
1, 9184, Note_on_c, 0, 55, 0
1, 9184, Note_on_c, 2, 55, 76
1, 9184, Note_on_c, 4, 55, 61
1, 9184, Note_on_c, 9, 69, 75
1, 9184, Note_on_c, 9, 46, 105
1, 9185, Note_on_c, 0, 59, 127
1, 9185, Note_on_c, 1, 31, 97
1, 9186, Note_on_c, 0, 55, 127
1, 9188, Note_on_c, 9, 46, 0
1, 9188, Note_on_c, 9, 69, 0
1, 9188, Note_on_c, 0, 50, 127
1, 9206, Note_on_c, 6, 67, 0
1, 9207, Note_on_c, 6, 71, 0
1, 9214, Note_on_c, 0, 59, 0
1, 9215, Note_on_c, 0, 62, 0
1, 9215, Note_on_c, 1, 31, 0
1, 9216, Note_on_c, 2, 55, 0
1, 9216, Note_on_c, 0, 67, 0
1, 9216, Note_on_c, 0, 50, 0
1, 9216, Note_on_c, 1, 31, 107
1, 9216, Note_on_c, 2, 53, 74
1, 9216, Note_on_c, 6, 62, 55
1, 9216, Note_on_c, 9, 42, 115
1, 9216, Note_on_c, 9, 35, 125
1, 9218, Note_on_c, 2, 62, 0
1, 9219, Note_on_c, 2, 59, 0
1, 9220, Note_on_c, 9, 42, 0
1, 9220, Note_on_c, 9, 35, 0
1, 9223, Note_on_c, 2, 53, 0
1, 9223, Note_on_c, 0, 55, 0
1, 9248, Note_on_c, 9, 69, 75
1, 9248, Lyric_t, "(next "
1, 9252, Note_on_c, 9, 69, 0
1, 9257, Note_on_c, 1, 31, 0
1, 9279, Note_on_c, 2, 53, 85
1, 9279, Note_on_c, 3, 53, 75
1, 9280, Note_on_c, 2, 62, 77
1, 9280, Note_on_c, 2, 58, 79
1, 9280, Note_on_c, 2, 50, 80
1, 9280, Note_on_c, 9, 44, 125
1, 9280, Note_on_c, 9, 69, 75
1, 9281, Note_on_c, 1, 31, 105
1, 9284, Note_on_c, 9, 69, 0
1, 9284, Note_on_c, 9, 44, 0
1, 9296, Note_on_c, 1, 31, 0
1, 9299, Lyric_t, "time). "
1, 9299, Lyric_t, "\015"
1, 9299, Lyric_t, "\012"
1, 9312, Note_on_c, 9, 38, 125
1, 9312, Note_on_c, 9, 42, 105
1, 9313, Note_on_c, 9, 59, 96
1, 9316, Note_on_c, 9, 42, 0
1, 9316, Note_on_c, 9, 38, 0
1, 9317, Note_on_c, 9, 59, 0
1, 9327, Note_on_c, 1, 31, 101
1, 9354, Note_on_c, 1, 31, 0
1, 9376, Note_on_c, 9, 44, 115
1, 9376, Note_on_c, 9, 69, 75
1, 9377, Note_on_c, 1, 31, 98
1, 9380, Note_on_c, 9, 69, 0
1, 9380, Note_on_c, 9, 44, 0
1, 9392, Note_on_c, 1, 31, 0
1, 9400, Note_on_c, 2, 58, 0
1, 9403, Note_on_c, 2, 62, 0
1, 9408, Note_on_c, 2, 53, 0
1, 9408, Note_on_c, 6, 62, 0
1, 9408, Note_on_c, 2, 61, 73
1, 9408, Note_on_c, 6, 61, 59
1, 9408, Note_on_c, 9, 35, 125
1, 9408, Note_on_c, 9, 42, 115
1, 9409, Note_on_c, 2, 50, 0
1, 9409, Note_on_c, 1, 31, 103
1, 9409, Note_on_c, 2, 49, 78
1, 9409, Note_on_c, 2, 57, 73
1, 9410, Note_on_c, 3, 53, 0
1, 9410, Note_on_c, 2, 52, 77
1, 9410, Note_on_c, 3, 52, 64
1, 9412, Note_on_c, 9, 42, 0
1, 9412, Note_on_c, 9, 35, 0
1, 9425, Note_on_c, 2, 49, 0
1, 9429, Note_on_c, 2, 61, 0
1, 9430, Note_on_c, 2, 57, 0
1, 9434, Note_on_c, 2, 52, 0
1, 9438, Note_on_c, 1, 31, 0
1, 9440, Note_on_c, 9, 69, 75
1, 9444, Note_on_c, 9, 69, 0
1, 9470, Note_on_c, 2, 49, 78
1, 9471, Note_on_c, 2, 57, 76
1, 9471, Note_on_c, 2, 61, 77
1, 9472, Note_on_c, 1, 31, 98
1, 9472, Note_on_c, 2, 52, 78
1, 9472, Note_on_c, 9, 69, 75
1, 9472, Note_on_c, 9, 44, 125
1, 9476, Note_on_c, 9, 44, 0
1, 9476, Note_on_c, 9, 69, 0
1, 9488, Note_on_c, 1, 31, 0
1, 9504, Note_on_c, 1, 31, 104
1, 9504, Note_on_c, 9, 38, 125
1, 9504, Note_on_c, 9, 42, 115
1, 9508, Note_on_c, 9, 42, 0
1, 9508, Note_on_c, 9, 38, 0
1, 9536, Note_on_c, 9, 69, 75
1, 9540, Note_on_c, 9, 69, 0
1, 9545, Note_on_c, 1, 31, 0
1, 9568, Note_on_c, 1, 31, 102
1, 9568, Note_on_c, 9, 69, 75
1, 9568, Note_on_c, 9, 44, 115
1, 9572, Note_on_c, 9, 44, 0
1, 9572, Note_on_c, 9, 69, 0
1, 9586, Note_on_c, 2, 57, 0
1, 9586, Note_on_c, 1, 31, 0
1, 9587, Note_on_c, 3, 52, 0
1, 9588, Note_on_c, 2, 61, 0
1, 9598, Note_on_c, 2, 52, 0
1, 9600, Note_on_c, 6, 61, 0
1, 9600, Note_on_c, 1, 31, 104
1, 9600, Note_on_c, 3, 53, 75
1, 9600, Note_on_c, 6, 60, 50
1, 9600, Note_on_c, 9, 35, 125
1, 9600, Note_on_c, 9, 42, 115
1, 9600, Note_on_c, 9, 59, 77
1, 9601, Note_on_c, 2, 57, 73
1, 9601, Note_on_c, 2, 60, 72
1, 9601, Note_on_c, 2, 53, 79
1, 9601, Note_on_c, 2, 48, 78
1, 9604, Note_on_c, 9, 59, 0
1, 9604, Note_on_c, 9, 42, 0
1, 9604, Note_on_c, 9, 35, 0
1, 9608, Note_on_c, 2, 49, 0
1, 9624, Note_on_c, 2, 53, 0
1, 9624, Note_on_c, 2, 60, 0
1, 9625, Note_on_c, 2, 57, 0
1, 9626, Note_on_c, 2, 48, 0
1, 9632, Note_on_c, 9, 69, 75
1, 9636, Note_on_c, 9, 69, 0
1, 9641, Note_on_c, 1, 31, 0
1, 9664, Note_on_c, 1, 31, 96
1, 9664, Note_on_c, 2, 48, 78
1, 9664, Note_on_c, 2, 57, 74
1, 9664, Note_on_c, 2, 60, 73
1, 9664, Note_on_c, 2, 53, 78
1, 9664, Note_on_c, 9, 44, 125
1, 9664, Note_on_c, 9, 59, 88
1, 9664, Note_on_c, 9, 69, 75
1, 9668, Note_on_c, 9, 69, 0
1, 9668, Note_on_c, 9, 59, 0
1, 9668, Note_on_c, 9, 44, 0
1, 9677, Note_on_c, 1, 31, 0
1, 9696, Note_on_c, 1, 31, 105
1, 9696, Note_on_c, 9, 42, 105
1, 9696, Note_on_c, 9, 38, 125
1, 9700, Note_on_c, 9, 38, 0
1, 9700, Note_on_c, 9, 42, 0
1, 9700, Note_on_c, 8, 65, 42
1, 9738, Note_on_c, 2, 53, 0
1, 9739, Note_on_c, 1, 31, 0
1, 9740, Note_on_c, 2, 60, 0
1, 9742, Note_on_c, 2, 57, 0
1, 9750, Note_on_c, 8, 65, 0
1, 9750, Note_on_c, 3, 53, 0
1, 9756, Note_on_c, 2, 48, 0
1, 9759, Note_on_c, 6, 60, 0
1, 9759, Note_on_c, 2, 55, 80
1, 9759, Note_on_c, 6, 59, 58
1, 9760, Note_on_c, 1, 31, 100
1, 9760, Note_on_c, 2, 50, 78
1, 9760, Note_on_c, 3, 50, 62
1, 9760, Note_on_c, 9, 59, 95
1, 9760, Note_on_c, 9, 44, 115
1, 9760, Note_on_c, 9, 69, 75
1, 9761, Note_on_c, 2, 59, 74
1, 9762, Note_on_c, 8, 67, 77
1, 9764, Note_on_c, 9, 69, 0
1, 9764, Note_on_c, 9, 59, 0
1, 9764, Note_on_c, 9, 44, 0
1, 9776, Note_on_c, 1, 31, 0
1, 9780, Pitch_bend_c, 8, 8277
1, 9786, Note_on_c, 8, 67, 0
1, 9786, Pitch_bend_c, 8, 8285
1, 9792, Note_on_c, 1, 31, 105
1, 9792, Note_on_c, 9, 42, 115
1, 9792, Note_on_c, 9, 35, 125
1, 9796, Note_on_c, 9, 35, 0
1, 9796, Note_on_c, 9, 42, 0
1, 9796, Pitch_bend_c, 8, 8234
1, 9796, Note_on_c, 8, 65, 91
1, 9814, Pitch_bend_c, 8, 8255
1, 9824, Note_on_c, 9, 69, 75
1, 9828, Note_on_c, 9, 69, 0
1, 9833, Note_on_c, 1, 31, 0
1, 9849, Note_on_c, 8, 65, 0
1, 9855, Pitch_bend_c, 8, 8250
1, 9856, Note_on_c, 1, 31, 98
1, 9856, Note_on_c, 8, 67, 83
1, 9856, Note_on_c, 9, 44, 125
1, 9856, Note_on_c, 9, 51, 95
1, 9860, Note_on_c, 9, 51, 0
1, 9860, Note_on_c, 9, 44, 0
1, 9870, Note_on_c, 1, 31, 0
1, 9874, Note_on_c, 3, 50, 0
1, 9885, Note_on_c, 8, 67, 0
1, 9885, Pitch_bend_c, 8, 8234
1, 9888, Note_on_c, 1, 31, 104
1, 9888, Note_on_c, 3, 53, 94
1, 9888, Note_on_c, 9, 38, 125
1, 9888, Note_on_c, 9, 42, 115
1, 9889, Note_on_c, 8, 65, 56
1, 9889, Note_on_c, 9, 59, 102
1, 9891, Pitch_bend_c, 8, 8192
1, 9892, Note_on_c, 9, 42, 0
1, 9892, Note_on_c, 9, 38, 0
1, 9893, Note_on_c, 9, 59, 0
1, 9924, Note_on_c, 1, 31, 0
1, 9943, Note_on_c, 8, 65, 0
1, 9951, Note_on_c, 8, 67, 75
1, 9952, Note_on_c, 3, 53, 0
1, 9952, Note_on_c, 1, 31, 106
1, 9952, Note_on_c, 3, 55, 75
1, 9952, Note_on_c, 9, 69, 75
1, 9952, Note_on_c, 9, 44, 115
1, 9953, Note_on_c, 9, 59, 89
1, 9954, Note_on_c, 2, 50, 0
1, 9956, Note_on_c, 9, 44, 0
1, 9956, Note_on_c, 9, 69, 0
1, 9957, Note_on_c, 9, 59, 0
1, 9958, Note_on_c, 2, 55, 0
1, 9969, Note_on_c, 2, 59, 0
1, 9971, Note_on_c, 1, 31, 0
1, 9978, Note_on_c, 6, 59, 0
1, 9978, Note_on_c, 8, 67, 0
1, 9984, Note_on_c, 1, 31, 106
1, 9984, Note_on_c, 2, 53, 74
1, 9984, Note_on_c, 6, 62, 62
1, 9984, Note_on_c, 8, 65, 88
1, 9984, Note_on_c, 9, 35, 125
1, 9984, Note_on_c, 9, 42, 115
1, 9988, Note_on_c, 9, 42, 0
1, 9988, Note_on_c, 9, 35, 0
1, 9990, Pitch_bend_c, 8, 8247
1, 9991, Note_on_c, 2, 53, 0
1, 9992, Note_on_c, 3, 55, 0
1, 10012, Pitch_bend_c, 8, 8194
1, 10016, Note_on_c, 9, 69, 75
1, 10020, Note_on_c, 9, 69, 0
1, 10020, Pitch_bend_c, 8, 8879
1, 10025, Note_on_c, 1, 31, 0
1, 10025, Pitch_bend_c, 8, 9577
1, 10046, Pitch_bend_c, 8, 9614
1, 10047, Note_on_c, 2, 53, 85
1, 10047, Note_on_c, 3, 53, 79
1, 10048, Note_on_c, 1, 31, 98
1, 10048, Note_on_c, 2, 50, 80
1, 10048, Note_on_c, 2, 58, 79
1, 10048, Note_on_c, 2, 62, 77
1, 10048, Note_on_c, 9, 69, 75
1, 10048, Note_on_c, 9, 44, 125
1, 10049, Note_on_c, 9, 59, 74
1, 10052, Note_on_c, 9, 44, 0
1, 10052, Note_on_c, 9, 69, 0
1, 10053, Note_on_c, 9, 59, 0
1, 10062, Pitch_bend_c, 8, 9595
1, 10063, Note_on_c, 1, 31, 0
1, 10071, Pitch_bend_c, 8, 9659
1, 10080, Note_on_c, 1, 31, 103
1, 10080, Note_on_c, 9, 42, 105
1, 10080, Note_on_c, 9, 38, 125
1, 10084, Note_on_c, 9, 38, 0
1, 10084, Note_on_c, 9, 42, 0
1, 10084, Pitch_bend_c, 8, 9614
1, 10090, Pitch_bend_c, 8, 9587
1, 10099, Pitch_bend_c, 8, 9667
1, 10113, Pitch_bend_c, 8, 9614
1, 10119, Pitch_bend_c, 8, 9587
1, 10124, Note_on_c, 1, 31, 0
1, 10129, Pitch_bend_c, 8, 9659
1, 10142, Pitch_bend_c, 8, 9595
1, 10144, Note_on_c, 1, 31, 102
1, 10144, Note_on_c, 9, 69, 75
1, 10144, Note_on_c, 9, 44, 115
1, 10148, Note_on_c, 9, 44, 0
1, 10148, Note_on_c, 9, 69, 0
1, 10156, Pitch_bend_c, 8, 9686
1, 10158, Note_on_c, 1, 31, 0
1, 10168, Note_on_c, 2, 58, 0
1, 10170, Pitch_bend_c, 8, 9587
1, 10171, Note_on_c, 2, 62, 0
1, 10176, Note_on_c, 2, 53, 0
1, 10176, Note_on_c, 6, 62, 0
1, 10176, Note_on_c, 1, 31, 104
1, 10176, Note_on_c, 2, 61, 73
1, 10176, Note_on_c, 6, 61, 63
1, 10176, Note_on_c, 9, 42, 115
1, 10176, Note_on_c, 9, 35, 125
1, 10177, Note_on_c, 3, 53, 0
1, 10177, Note_on_c, 2, 50, 0
1, 10177, Note_on_c, 2, 49, 78
1, 10177, Note_on_c, 2, 57, 73
1, 10177, Note_on_c, 3, 52, 62
1, 10178, Note_on_c, 2, 52, 77
1, 10180, Note_on_c, 9, 42, 0
1, 10180, Note_on_c, 9, 35, 0
1, 10182, Pitch_bend_c, 8, 9667
1, 10190, Pitch_bend_c, 8, 9694
1, 10193, Note_on_c, 2, 49, 0
1, 10197, Note_on_c, 2, 61, 0
1, 10197, Pitch_bend_c, 8, 9622
1, 10198, Note_on_c, 2, 57, 0
1, 10202, Note_on_c, 2, 52, 0
1, 10205, Pitch_bend_c, 8, 9595
1, 10208, Note_on_c, 9, 69, 75
1, 10212, Note_on_c, 9, 69, 0
1, 10212, Pitch_bend_c, 8, 9686
1, 10219, Note_on_c, 1, 31, 0
1, 10220, Pitch_bend_c, 8, 9686
1, 10228, Pitch_bend_c, 8, 9587
1, 10238, Note_on_c, 2, 49, 78
1, 10239, Note_on_c, 2, 61, 77
1, 10239, Note_on_c, 2, 57, 76
1, 10240, Note_on_c, 2, 52, 78
1, 10240, Note_on_c, 9, 44, 125
1, 10240, Note_on_c, 9, 69, 75
1, 10241, Note_on_c, 1, 31, 98
1, 10244, Note_on_c, 9, 69, 0
1, 10244, Note_on_c, 9, 44, 0
1, 10247, Pitch_bend_c, 8, 9641
1, 10253, Note_on_c, 1, 31, 0
1, 10261, Pitch_bend_c, 8, 9622
1, 10272, Note_on_c, 9, 42, 115
1, 10272, Note_on_c, 9, 38, 125
1, 10273, Note_on_c, 1, 31, 101
1, 10276, Note_on_c, 9, 38, 0
1, 10276, Note_on_c, 9, 42, 0
1, 10286, Pitch_bend_c, 8, 9659
1, 10298, Pitch_bend_c, 8, 9641
1, 10304, Note_on_c, 9, 69, 75
1, 10308, Note_on_c, 9, 69, 0
1, 10315, Note_on_c, 8, 65, 0
1, 10315, Note_on_c, 1, 31, 0
1, 10336, Note_on_c, 1, 31, 96
1, 10336, Note_on_c, 9, 44, 115
1, 10336, Note_on_c, 9, 69, 75
1, 10340, Note_on_c, 9, 69, 0
1, 10340, Note_on_c, 9, 44, 0
1, 10349, Note_on_c, 1, 31, 0
1, 10354, Note_on_c, 2, 57, 0
1, 10356, Note_on_c, 2, 61, 0
1, 10356, Note_on_c, 3, 52, 0
1, 10366, Note_on_c, 2, 52, 0
1, 10368, Note_on_c, 1, 31, 108
1, 10368, Note_on_c, 3, 48, 62
1, 10368, Note_on_c, 9, 35, 125
1, 10368, Note_on_c, 9, 42, 115
1, 10369, Note_on_c, 6, 61, 0
1, 10369, Note_on_c, 2, 48, 78
1, 10369, Note_on_c, 2, 57, 73
1, 10369, Note_on_c, 2, 60, 72
1, 10369, Note_on_c, 2, 53, 79
1, 10369, Note_on_c, 6, 60, 56
1, 10371, Note_on_c, 9, 59, 60
1, 10372, Note_on_c, 9, 42, 0
1, 10372, Note_on_c, 9, 35, 0
1, 10375, Note_on_c, 9, 59, 0
1, 10376, Note_on_c, 2, 49, 0
1, 10392, Note_on_c, 2, 60, 0
1, 10392, Note_on_c, 2, 53, 0
1, 10393, Note_on_c, 2, 57, 0
1, 10394, Note_on_c, 2, 48, 0
1, 10400, Note_on_c, 9, 69, 75
1, 10404, Note_on_c, 9, 69, 0
1, 10410, Note_on_c, 1, 31, 0
1, 10432, Note_on_c, 1, 31, 97
1, 10432, Note_on_c, 2, 48, 78
1, 10432, Note_on_c, 2, 60, 73
1, 10432, Note_on_c, 2, 57, 74
1, 10432, Note_on_c, 2, 53, 78
1, 10432, Note_on_c, 9, 44, 125
1, 10432, Note_on_c, 9, 69, 75
1, 10436, Note_on_c, 9, 69, 0
1, 10436, Note_on_c, 9, 44, 0
1, 10444, Note_on_c, 1, 31, 0
1, 10464, Note_on_c, 1, 31, 107
1, 10464, Note_on_c, 9, 42, 105
1, 10464, Note_on_c, 9, 38, 125
1, 10468, Note_on_c, 9, 38, 0
1, 10468, Note_on_c, 9, 42, 0
1, 10506, Note_on_c, 2, 53, 0
1, 10508, Note_on_c, 2, 60, 0
1, 10510, Note_on_c, 2, 57, 0
1, 10511, Note_on_c, 1, 31, 0
1, 10512, Note_on_c, 6, 60, 0
1, 10524, Note_on_c, 3, 48, 0
1, 10524, Note_on_c, 2, 48, 0
1, 10527, Note_on_c, 2, 55, 80
1, 10527, Note_on_c, 6, 59, 53
1, 10528, Note_on_c, 1, 31, 97
1, 10528, Note_on_c, 2, 50, 78
1, 10528, Note_on_c, 3, 50, 75
1, 10528, Note_on_c, 9, 69, 75
1, 10528, Note_on_c, 9, 44, 115
1, 10529, Note_on_c, 2, 59, 74
1, 10529, Note_on_c, 9, 51, 84
1, 10532, Note_on_c, 9, 44, 0
1, 10532, Note_on_c, 9, 69, 0
1, 10533, Note_on_c, 9, 51, 0
1, 10542, Note_on_c, 1, 31, 0
1, 10560, Note_on_c, 1, 31, 107
1, 10560, Pitch_bend_c, 8, 8192
1, 10560, Note_on_c, 9, 35, 125
1, 10560, Note_on_c, 9, 42, 115
1, 10561, Note_on_c, 9, 59, 89
1, 10564, Note_on_c, 9, 42, 0
1, 10564, Note_on_c, 9, 35, 0
1, 10564, Note_on_c, 8, 72, 97
1, 10565, Note_on_c, 9, 59, 0
1, 10572, Pitch_bend_c, 8, 8325
1, 10581, Pitch_bend_c, 8, 8415
1, 10590, Pitch_bend_c, 8, 8439
1, 10592, Note_on_c, 9, 69, 75
1, 10594, Note_on_c, 9, 51, 78
1, 10596, Note_on_c, 9, 69, 0
1, 10596, Pitch_bend_c, 8, 8525
1, 10598, Note_on_c, 9, 51, 0
1, 10604, Note_on_c, 1, 31, 0
1, 10604, Pitch_bend_c, 8, 8618
1, 10610, Pitch_bend_c, 8, 8767
1, 10616, Pitch_bend_c, 8, 8897
1, 10622, Pitch_bend_c, 8, 9036
1, 10624, Note_on_c, 9, 44, 125
1, 10625, Note_on_c, 1, 31, 90
1, 10627, Note_on_c, 9, 59, 77
1, 10628, Note_on_c, 9, 44, 0
1, 10628, Pitch_bend_c, 8, 9153
1, 10631, Note_on_c, 9, 59, 0
1, 10634, Note_on_c, 1, 31, 0
1, 10634, Pitch_bend_c, 8, 9191
1, 10643, Pitch_bend_c, 8, 9153
1, 10646, Pitch_bend_c, 8, 8192
1, 10648, Note_on_c, 8, 72, 0
1, 10654, Note_on_c, 8, 79, 93
1, 10656, Note_on_c, 1, 31, 104
1, 10656, Note_on_c, 9, 42, 115
1, 10656, Note_on_c, 9, 38, 125
1, 10657, Note_on_c, 3, 50, 0
1, 10657, Note_on_c, 3, 53, 87
1, 10660, Note_on_c, 9, 38, 0
1, 10660, Note_on_c, 9, 42, 0
1, 10681, Note_on_c, 8, 79, 0
1, 10697, Note_on_c, 1, 31, 0
1, 10711, Note_on_c, 8, 72, 90
1, 10718, Note_on_c, 3, 53, 0
1, 10720, Note_on_c, 1, 31, 85
1, 10720, Note_on_c, 3, 55, 75
1, 10720, Note_on_c, 9, 44, 115
1, 10720, Note_on_c, 9, 69, 75
1, 10722, Note_on_c, 2, 50, 0
1, 10724, Note_on_c, 9, 69, 0
1, 10724, Note_on_c, 9, 44, 0
1, 10726, Note_on_c, 2, 55, 0
1, 10727, Pitch_bend_c, 8, 8207
1, 10728, Note_on_c, 1, 31, 0
1, 10735, Pitch_bend_c, 8, 8842
1, 10737, Note_on_c, 2, 59, 0
1, 10741, Note_on_c, 6, 59, 0
1, 10742, Pitch_bend_c, 8, 9537
1, 10751, Note_on_c, 1, 31, 104
1, 10752, Note_on_c, 2, 53, 74
1, 10752, Note_on_c, 6, 62, 60
1, 10752, Note_on_c, 9, 42, 115
1, 10752, Note_on_c, 9, 59, 73
1, 10752, Note_on_c, 9, 35, 125
1, 10754, Pitch_bend_c, 8, 9558
1, 10756, Note_on_c, 9, 35, 0
1, 10756, Note_on_c, 9, 42, 0
1, 10756, Note_on_c, 9, 59, 0
1, 10759, Note_on_c, 2, 53, 0
1, 10759, Note_on_c, 3, 55, 0
1, 10775, Pitch_bend_c, 8, 9617
1, 10784, Note_on_c, 9, 69, 75
1, 10788, Note_on_c, 9, 69, 0
1, 10791, Pitch_bend_c, 8, 9563
1, 10806, Note_on_c, 1, 31, 0
1, 10809, Pitch_bend_c, 8, 9598
1, 10815, Note_on_c, 2, 53, 85
1, 10815, Pitch_bend_c, 8, 9625
1, 10816, Note_on_c, 2, 62, 77
1, 10816, Note_on_c, 2, 50, 80
1, 10816, Note_on_c, 2, 58, 79
1, 10816, Note_on_c, 3, 53, 79
1, 10816, Note_on_c, 9, 44, 125
1, 10816, Note_on_c, 9, 69, 75
1, 10818, Note_on_c, 1, 31, 93
1, 10820, Note_on_c, 9, 69, 0
1, 10820, Note_on_c, 9, 44, 0
1, 10825, Pitch_bend_c, 8, 9571
1, 10829, Note_on_c, 1, 31, 0
1, 10839, Pitch_bend_c, 8, 9651
1, 10848, Note_on_c, 1, 31, 107
1, 10848, Note_on_c, 9, 38, 125
1, 10848, Note_on_c, 9, 42, 105
1, 10848, Note_on_c, 9, 59, 89
1, 10852, Note_on_c, 9, 59, 0
1, 10852, Note_on_c, 9, 42, 0
1, 10852, Note_on_c, 9, 38, 0
1, 10854, Pitch_bend_c, 8, 9603
1, 10863, Pitch_bend_c, 8, 9585
1, 10869, Pitch_bend_c, 8, 9673
1, 10885, Pitch_bend_c, 8, 9611
1, 10891, Note_on_c, 1, 31, 0
1, 10893, Pitch_bend_c, 8, 9563
1, 10896, Note_on_c, 8, 72, 0
1, 10912, Note_on_c, 1, 31, 98
1, 10912, Note_on_c, 9, 44, 115
1, 10912, Note_on_c, 9, 69, 75
1, 10916, Note_on_c, 9, 69, 0
1, 10916, Note_on_c, 9, 44, 0
1, 10926, Note_on_c, 1, 31, 0
1, 10936, Note_on_c, 2, 58, 0
1, 10939, Note_on_c, 2, 62, 0
1, 10941, Note_on_c, 3, 53, 0
1, 10943, Note_on_c, 1, 31, 108
1, 10944, Note_on_c, 6, 62, 0
1, 10944, Note_on_c, 2, 53, 0
1, 10944, Note_on_c, 2, 61, 73
1, 10944, Note_on_c, 3, 52, 60
1, 10944, Note_on_c, 6, 61, 63
1, 10944, Note_on_c, 9, 35, 125
1, 10944, Note_on_c, 9, 42, 115
1, 10945, Note_on_c, 2, 50, 0
1, 10945, Note_on_c, 2, 57, 73
1, 10945, Note_on_c, 2, 49, 78
1, 10946, Note_on_c, 2, 52, 77
1, 10948, Note_on_c, 9, 42, 0
1, 10948, Note_on_c, 9, 35, 0
1, 10961, Note_on_c, 2, 49, 0
1, 10965, Note_on_c, 2, 61, 0
1, 10966, Note_on_c, 2, 57, 0
1, 10970, Note_on_c, 2, 52, 0
1, 10976, Note_on_c, 9, 69, 75
1, 10980, Note_on_c, 9, 69, 0
1, 10993, Note_on_c, 1, 31, 0
1, 11006, Note_on_c, 2, 49, 78
1, 11007, Note_on_c, 2, 57, 76
1, 11007, Note_on_c, 2, 61, 77
1, 11008, Note_on_c, 2, 52, 78
1, 11008, Note_on_c, 9, 44, 125
1, 11009, Note_on_c, 1, 31, 92
1, 11012, Note_on_c, 9, 44, 0
1, 11019, Note_on_c, 1, 31, 0
1, 11039, Note_on_c, 1, 31, 104
1, 11040, Note_on_c, 9, 38, 125
1, 11040, Note_on_c, 9, 42, 115
1, 11044, Note_on_c, 9, 42, 0
1, 11044, Note_on_c, 9, 38, 0
1, 11087, Note_on_c, 1, 31, 0
1, 11104, Note_on_c, 9, 69, 75
1, 11104, Note_on_c, 9, 44, 115
1, 11105, Note_on_c, 1, 31, 100
1, 11108, Note_on_c, 9, 44, 0
1, 11108, Note_on_c, 9, 69, 0
1, 11117, Note_on_c, 3, 52, 0
1, 11117, Note_on_c, 1, 31, 0
1, 11122, Note_on_c, 2, 57, 0
1, 11124, Note_on_c, 2, 61, 0
1, 11134, Note_on_c, 2, 52, 0
1, 11136, Note_on_c, 6, 61, 0
1, 11136, Note_on_c, 1, 31, 105
1, 11136, Note_on_c, 3, 48, 65
1, 11136, Note_on_c, 6, 60, 59
1, 11136, Note_on_c, 9, 42, 115
1, 11136, Note_on_c, 9, 35, 125
1, 11137, Note_on_c, 2, 57, 73
1, 11137, Note_on_c, 2, 60, 72
1, 11137, Note_on_c, 2, 53, 79
1, 11137, Note_on_c, 2, 48, 78
1, 11140, Note_on_c, 9, 35, 0
1, 11140, Note_on_c, 9, 42, 0
1, 11144, Note_on_c, 2, 49, 0
1, 11160, Note_on_c, 2, 53, 0
1, 11160, Note_on_c, 2, 60, 0
1, 11161, Note_on_c, 2, 57, 0
1, 11162, Note_on_c, 2, 48, 0
1, 11168, Note_on_c, 9, 69, 75
1, 11172, Note_on_c, 9, 69, 0
1, 11179, Note_on_c, 1, 31, 0
1, 11200, Note_on_c, 2, 57, 74
1, 11200, Note_on_c, 2, 48, 78
1, 11200, Note_on_c, 2, 53, 78
1, 11200, Note_on_c, 2, 60, 73
1, 11200, Note_on_c, 9, 69, 75
1, 11200, Note_on_c, 9, 44, 125
1, 11202, Note_on_c, 1, 31, 105
1, 11204, Note_on_c, 9, 44, 0
1, 11204, Note_on_c, 9, 69, 0
1, 11231, Note_on_c, 1, 31, 0
1, 11231, Note_on_c, 1, 31, 97
1, 11232, Note_on_c, 9, 38, 125
1, 11232, Note_on_c, 9, 42, 105
1, 11236, Note_on_c, 9, 42, 0
1, 11236, Note_on_c, 9, 38, 0
1, 11274, Note_on_c, 2, 53, 0
1, 11276, Note_on_c, 1, 31, 0
1, 11276, Note_on_c, 2, 60, 0
1, 11278, Note_on_c, 2, 57, 0
1, 11287, Pitch_bend_c, 8, 8192
1, 11289, Note_on_c, 3, 48, 0
1, 11291, Note_on_c, 8, 79, 93
1, 11292, Note_on_c, 2, 48, 0
1, 11293, Note_on_c, 6, 60, 0
1, 11295, Note_on_c, 2, 55, 80
1, 11295, Note_on_c, 6, 59, 59
1, 11296, Note_on_c, 2, 50, 78
1, 11296, Note_on_c, 3, 50, 69
1, 11296, Note_on_c, 9, 44, 115
1, 11296, Note_on_c, 9, 69, 75
1, 11297, Note_on_c, 1, 31, 102
1, 11297, Note_on_c, 2, 59, 74
1, 11298, Note_on_c, 9, 51, 78
1, 11300, Note_on_c, 9, 69, 0
1, 11300, Note_on_c, 9, 44, 0
1, 11302, Note_on_c, 9, 51, 0
1, 11313, Note_on_c, 1, 31, 0
1, 11318, Note_on_c, 8, 79, 0
1, 11326, Note_on_c, 8, 72, 85
1, 11328, Note_on_c, 1, 31, 103
1, 11328, Note_on_c, 9, 35, 125
1, 11328, Note_on_c, 9, 42, 115
1, 11330, Pitch_bend_c, 8, 8242
1, 11330, Note_on_c, 9, 59, 95
1, 11332, Note_on_c, 9, 42, 0
1, 11332, Note_on_c, 9, 35, 0
1, 11334, Note_on_c, 9, 59, 0
1, 11338, Pitch_bend_c, 8, 8490
1, 11342, Pitch_bend_c, 8, 8684
1, 11345, Pitch_bend_c, 8, 9031
1, 11354, Pitch_bend_c, 8, 9012
1, 11358, Pitch_bend_c, 8, 8874
1, 11360, Note_on_c, 9, 69, 75
1, 11361, Pitch_bend_c, 8, 8586
1, 11364, Note_on_c, 9, 69, 0
1, 11364, Pitch_bend_c, 8, 8309
1, 11369, Note_on_c, 1, 31, 0
1, 11371, Pitch_bend_c, 8, 8255
1, 11379, Pitch_bend_c, 8, 8231
1, 11392, Note_on_c, 1, 31, 101
1, 11392, Note_on_c, 9, 69, 75
1, 11392, Note_on_c, 9, 44, 125
1, 11396, Note_on_c, 9, 44, 0
1, 11396, Note_on_c, 9, 69, 0
1, 11398, Pitch_bend_c, 8, 8207
1, 11405, Pitch_bend_c, 8, 8207
1, 11407, Note_on_c, 8, 72, 0
1, 11408, Note_on_c, 1, 31, 0
1, 11416, Note_on_c, 8, 70, 66
1, 11421, Note_on_c, 3, 50, 0
1, 11424, Note_on_c, 1, 31, 106
1, 11424, Note_on_c, 9, 42, 115
1, 11424, Note_on_c, 9, 38, 125
1, 11425, Note_on_c, 3, 53, 94
1, 11425, Note_on_c, 9, 59, 86
1, 11428, Note_on_c, 9, 38, 0
1, 11428, Note_on_c, 9, 42, 0
1, 11429, Note_on_c, 9, 59, 0
1, 11447, Pitch_bend_c, 8, 8205
1, 11456, Note_on_c, 9, 69, 75
1, 11460, Note_on_c, 9, 69, 0
1, 11479, Note_on_c, 8, 70, 0
1, 11482, Note_on_c, 1, 31, 0
1, 11484, Note_on_c, 8, 67, 63
1, 11486, Note_on_c, 3, 53, 0
1, 11488, Note_on_c, 1, 29, 95
1, 11488, Note_on_c, 3, 55, 72
1, 11488, Note_on_c, 9, 44, 115
1, 11488, Note_on_c, 9, 69, 75
1, 11490, Note_on_c, 2, 50, 0
1, 11492, Note_on_c, 9, 69, 0
1, 11492, Note_on_c, 9, 44, 0
1, 11493, Pitch_bend_c, 8, 8269
1, 11494, Note_on_c, 2, 55, 0
1, 11505, Note_on_c, 2, 59, 0
1, 11510, Note_on_c, 6, 59, 0
1, 11514, Pitch_bend_c, 8, 8303
1, 11520, Note_on_c, 1, 29, 0
1, 11520, Note_on_c, 1, 31, 107
1, 11520, Note_on_c, 2, 53, 74
1, 11520, Note_on_c, 6, 62, 62
1, 11520, Note_on_c, 9, 35, 125
1, 11520, Note_on_c, 9, 42, 115
1, 11521, Note_on_c, 6, 67, 0
1, 11523, Note_on_c, 6, 62, 0
1, 11523, Pitch_bend_c, 8, 8277
1, 11524, Note_on_c, 9, 35, 0
1, 11524, Note_on_c, 6, 79, 0
1, 11524, Note_on_c, 9, 42, 0
1, 11527, Note_on_c, 2, 53, 0
1, 11529, Note_on_c, 3, 55, 0
1, 11529, Pitch_bend_c, 8, 8258
1, 11536, Pitch_bend_c, 8, 8303
1, 11542, Pitch_bend_c, 8, 8367
1, 11551, Pitch_bend_c, 8, 8258
1, 11552, Note_on_c, 9, 69, 75
1, 11554, Note_on_c, 1, 31, 0
1, 11556, Note_on_c, 9, 69, 0
1, 11572, Pitch_bend_c, 8, 8367
1, 11583, Note_on_c, 2, 53, 85
1, 11584, Note_on_c, 1, 31, 100
1, 11584, Note_on_c, 2, 62, 77
1, 11584, Note_on_c, 2, 50, 80
1, 11584, Note_on_c, 2, 58, 79
1, 11584, Note_on_c, 3, 53, 69
1, 11584, Note_on_c, 9, 44, 125
1, 11584, Note_on_c, 9, 69, 75
1, 11585, Pitch_bend_c, 8, 8295
1, 11588, Note_on_c, 9, 69, 0
1, 11588, Note_on_c, 9, 44, 0
1, 11591, Pitch_bend_c, 8, 8258
1, 11598, Note_on_c, 1, 31, 0
1, 11605, Pitch_bend_c, 8, 8349
1, 11615, Note_on_c, 1, 31, 105
1, 11616, Note_on_c, 9, 42, 105
1, 11616, Note_on_c, 9, 38, 125
1, 11618, Note_on_c, 9, 59, 59
1, 11619, Pitch_bend_c, 8, 8258
1, 11620, Note_on_c, 9, 38, 0
1, 11620, Note_on_c, 9, 42, 0
1, 11622, Note_on_c, 9, 59, 0
1, 11639, Pitch_bend_c, 8, 8349
1, 11651, Pitch_bend_c, 8, 8258
1, 11660, Note_on_c, 1, 31, 0
1, 11673, Pitch_bend_c, 8, 8349
1, 11680, Note_on_c, 1, 31, 98
1, 11680, Note_on_c, 9, 69, 75
1, 11680, Note_on_c, 9, 44, 115
1, 11684, Note_on_c, 9, 44, 0
1, 11684, Note_on_c, 9, 69, 0
1, 11686, Pitch_bend_c, 8, 8250
1, 11695, Note_on_c, 1, 31, 0
1, 11704, Note_on_c, 2, 58, 0
1, 11706, Pitch_bend_c, 8, 8338
1, 11707, Note_on_c, 2, 62, 0
1, 11711, Note_on_c, 9, 59, 88
1, 11712, Note_on_c, 2, 53, 0
1, 11712, Note_on_c, 6, 62, 0
1, 11712, Note_on_c, 1, 31, 104
1, 11712, Note_on_c, 2, 61, 73
1, 11712, Note_on_c, 6, 61, 62
1, 11712, Note_on_c, 9, 35, 125
1, 11712, Note_on_c, 9, 42, 115
1, 11713, Note_on_c, 3, 53, 0
1, 11713, Note_on_c, 2, 50, 0
1, 11713, Note_on_c, 2, 57, 73
1, 11713, Note_on_c, 2, 49, 78
1, 11713, Note_on_c, 3, 52, 62
1, 11714, Note_on_c, 2, 52, 77
1, 11715, Note_on_c, 9, 59, 0
1, 11716, Note_on_c, 9, 35, 0
1, 11716, Note_on_c, 9, 42, 0
1, 11722, Pitch_bend_c, 8, 8277
1, 11728, Pitch_bend_c, 8, 8258
1, 11729, Note_on_c, 2, 49, 0
1, 11733, Note_on_c, 2, 61, 0
1, 11734, Note_on_c, 2, 57, 0
1, 11738, Note_on_c, 2, 52, 0
1, 11744, Note_on_c, 9, 69, 75
1, 11748, Note_on_c, 9, 69, 0
1, 11751, Note_on_c, 1, 31, 0
1, 11774, Note_on_c, 2, 49, 78
1, 11775, Note_on_c, 2, 61, 77
1, 11775, Note_on_c, 2, 57, 76
1, 11776, Note_on_c, 1, 31, 102
1, 11776, Note_on_c, 2, 52, 78
1, 11776, Note_on_c, 9, 44, 125
1, 11779, Pitch_bend_c, 8, 8338
1, 11780, Note_on_c, 9, 44, 0
1, 11788, Pitch_bend_c, 8, 8330
1, 11795, Note_on_c, 1, 31, 0
1, 11796, Pitch_bend_c, 8, 8250
1, 11808, Note_on_c, 1, 31, 106
1, 11808, Note_on_c, 9, 38, 125
1, 11808, Note_on_c, 9, 42, 115
1, 11812, Note_on_c, 9, 42, 0
1, 11812, Note_on_c, 9, 38, 0
1, 11819, Pitch_bend_c, 8, 8269
1, 11849, Note_on_c, 1, 31, 0
1, 11869, Note_on_c, 3, 52, 0
1, 11872, Note_on_c, 9, 44, 115
1, 11872, Note_on_c, 9, 69, 75
1, 11874, Note_on_c, 1, 29, 102
1, 11876, Note_on_c, 9, 69, 0
1, 11876, Note_on_c, 9, 44, 0
1, 11885, Pitch_bend_c, 8, 8192
1, 11888, Note_on_c, 1, 29, 0
1, 11888, Note_on_c, 1, 30, 97
1, 11890, Note_on_c, 2, 57, 0
1, 11892, Note_on_c, 8, 67, 0
1, 11892, Note_on_c, 2, 61, 0
1, 11895, Note_on_c, 6, 61, 0
1, 11902, Note_on_c, 2, 52, 0
1, 11904, Note_on_c, 1, 30, 0
1, 11904, Note_on_c, 1, 31, 111
1, 11904, Note_on_c, 2, 43, 83
1, 11904, Note_on_c, 2, 60, 78
1, 11904, Note_on_c, 2, 57, 77
1, 11904, Note_on_c, 2, 53, 77
1, 11904, Note_on_c, 3, 48, 65
1, 11904, Note_on_c, 3, 65, 84
1, 11904, Note_on_c, 5, 43, 72
1, 11904, Note_on_c, 6, 65, 94
1, 11904, Note_on_c, 6, 69, 95
1, 11904, Note_on_c, 9, 42, 115
1, 11904, Note_on_c, 9, 35, 125
1, 11904, Note_on_c, 14, 69, 83
1, 11904, Note_on_c, 14, 65, 94
1, 11908, Note_on_c, 9, 35, 0
1, 11908, Note_on_c, 9, 42, 0
1, 11909, Note_on_c, 14, 69, 0
1, 11912, Note_on_c, 2, 49, 0
1, 11915, Note_on_c, 6, 69, 0
1, 11917, Note_on_c, 14, 65, 0
1, 11917, Note_on_c, 6, 65, 0
1, 11917, Note_on_c, 3, 65, 0
1, 11918, Note_on_c, 5, 43, 0
1, 11919, Note_on_c, 2, 43, 0
1, 11920, Note_on_c, 2, 60, 0
1, 11921, Note_on_c, 2, 57, 0
1, 11922, Note_on_c, 2, 53, 0
1, 11932, Note_on_c, 1, 31, 0
1, 11936, Note_on_c, 9, 69, 75
1, 11940, Note_on_c, 9, 69, 0
1, 11966, Note_on_c, 2, 60, 80
1, 11966, Note_on_c, 2, 43, 89
1, 11966, Note_on_c, 3, 65, 87
1, 11967, Note_on_c, 1, 31, 104
1, 11967, Note_on_c, 2, 53, 81
1, 11967, Note_on_c, 2, 57, 79
1, 11967, Note_on_c, 5, 43, 84
1, 11967, Note_on_c, 6, 69, 102
1, 11967, Note_on_c, 6, 65, 99
1, 11967, Note_on_c, 14, 65, 112
1, 11968, Note_on_c, 9, 69, 75
1, 11968, Note_on_c, 9, 44, 125
1, 11970, Note_on_c, 9, 51, 81
1, 11972, Note_on_c, 9, 44, 0
1, 11972, Note_on_c, 9, 69, 0
1, 11974, Note_on_c, 9, 51, 0
1, 11983, Note_on_c, 1, 31, 0
1, 12000, Note_on_c, 1, 31, 110
1, 12000, Note_on_c, 9, 42, 105
1, 12000, Note_on_c, 9, 38, 125
1, 12004, Note_on_c, 9, 38, 0
1, 12004, Note_on_c, 9, 42, 0
1, 12049, Note_on_c, 1, 31, 0
1, 12064, Note_on_c, 9, 69, 75
1, 12064, Note_on_c, 9, 44, 115
1, 12065, Note_on_c, 9, 51, 79
1, 12066, Note_on_c, 1, 29, 102
1, 12068, Note_on_c, 9, 44, 0
1, 12068, Note_on_c, 9, 69, 0
1, 12069, Note_on_c, 9, 51, 0
1, 12076, Note_on_c, 2, 57, 0
1, 12080, Note_on_c, 6, 65, 0
1, 12080, Note_on_c, 1, 29, 0
1, 12080, Note_on_c, 1, 30, 97
1, 12081, Note_on_c, 14, 65, 0
1, 12082, Note_on_c, 3, 65, 0
1, 12082, Note_on_c, 2, 60, 0
1, 12084, Note_on_c, 6, 69, 0
1, 12085, Note_on_c, 5, 43, 0
1, 12088, Note_on_c, 2, 53, 0
1, 12090, Note_on_c, 2, 43, 0
1, 12095, Note_on_c, 1, 30, 0
1, 12095, Note_on_c, 1, 31, 111
1, 12096, Note_on_c, 2, 65, 79
1, 12096, Note_on_c, 2, 57, 80
1, 12096, Note_on_c, 2, 60, 78
1, 12096, Note_on_c, 6, 65, 89
1, 12096, Note_on_c, 6, 69, 91
1, 12096, Note_on_c, 9, 35, 125
1, 12096, Note_on_c, 9, 42, 115
1, 12096, Note_on_c, 14, 69, 97
1, 12096, Note_on_c, 14, 65, 97
1, 12097, Note_on_c, 2, 43, 83
1, 12097, Note_on_c, 3, 65, 72
1, 12097, Note_on_c, 6, 72, 93
1, 12097, Note_on_c, 9, 59, 89
1, 12098, Note_on_c, 5, 43, 65
1, 12100, Note_on_c, 9, 42, 0
1, 12100, Note_on_c, 9, 35, 0
1, 12101, Note_on_c, 9, 59, 0
1, 12111, Note_on_c, 6, 65, 0
1, 12112, Note_on_c, 6, 72, 0
1, 12113, Note_on_c, 6, 69, 0
1, 12113, Note_on_c, 14, 69, 0
1, 12114, Note_on_c, 14, 65, 0
1, 12114, Note_on_c, 3, 65, 0
1, 12115, Note_on_c, 5, 43, 0
1, 12117, Note_on_c, 2, 57, 0
1, 12119, Note_on_c, 2, 43, 0
1, 12119, Note_on_c, 2, 60, 0
1, 12120, Note_on_c, 2, 65, 0
1, 12128, Note_on_c, 1, 31, 0
1, 12128, Note_on_c, 9, 69, 75
1, 12132, Note_on_c, 9, 69, 0
1, 12158, Note_on_c, 6, 65, 97
1, 12158, Note_on_c, 6, 72, 109
1, 12158, Note_on_c, 6, 69, 102
1, 12159, Note_on_c, 1, 31, 100
1, 12159, Note_on_c, 2, 43, 96
1, 12159, Note_on_c, 3, 65, 84
1, 12159, Note_on_c, 14, 69, 112
1, 12159, Note_on_c, 14, 65, 104
1, 12160, Note_on_c, 2, 65, 84
1, 12160, Note_on_c, 2, 60, 84
1, 12160, Note_on_c, 2, 57, 84
1, 12160, Note_on_c, 5, 43, 79
1, 12160, Note_on_c, 9, 69, 75
1, 12160, Note_on_c, 9, 44, 125
1, 12161, Note_on_c, 9, 59, 105
1, 12164, Note_on_c, 9, 44, 0
1, 12164, Note_on_c, 9, 69, 0
1, 12165, Note_on_c, 9, 59, 0
1, 12171, Note_on_c, 1, 31, 0
1, 12191, Note_on_c, 1, 31, 111
1, 12192, Note_on_c, 9, 38, 125
1, 12192, Note_on_c, 9, 42, 115
1, 12196, Note_on_c, 9, 42, 0
1, 12196, Note_on_c, 9, 38, 0
1, 12224, Note_on_c, 9, 69, 75
1, 12228, Note_on_c, 9, 69, 0
1, 12234, Note_on_c, 1, 31, 0
1, 12242, Note_on_c, 2, 57, 0
1, 12251, Note_on_c, 6, 65, 0
1, 12254, Note_on_c, 2, 60, 0
1, 12255, Note_on_c, 1, 29, 102
1, 12256, Note_on_c, 9, 44, 115
1, 12256, Note_on_c, 9, 69, 75
1, 12257, Note_on_c, 9, 51, 87
1, 12258, Note_on_c, 2, 65, 0
1, 12260, Note_on_c, 9, 69, 0
1, 12260, Note_on_c, 9, 44, 0
1, 12261, Note_on_c, 9, 51, 0
1, 12262, Note_on_c, 6, 72, 0
1, 12263, Note_on_c, 6, 69, 0
1, 12264, Note_on_c, 14, 65, 0
1, 12266, Note_on_c, 3, 65, 0
1, 12267, Note_on_c, 5, 43, 0
1, 12269, Note_on_c, 14, 69, 0
1, 12272, Note_on_c, 1, 29, 0
1, 12272, Note_on_c, 1, 30, 97
1, 12277, Note_on_c, 2, 43, 0
1, 12287, Note_on_c, 6, 72, 95
1, 12288, Note_on_c, 1, 30, 0
1, 12288, Note_on_c, 1, 31, 111
1, 12288, Note_on_c, 2, 43, 88
1, 12288, Note_on_c, 2, 65, 86
1, 12288, Note_on_c, 2, 69, 88
1, 12288, Note_on_c, 2, 72, 87
1, 12288, Note_on_c, 5, 43, 69
1, 12288, Note_on_c, 6, 76, 82
1, 12288, Note_on_c, 6, 69, 89
1, 12288, Note_on_c, 6, 77, 84
1, 12288, Note_on_c, 9, 42, 115
1, 12288, Note_on_c, 9, 35, 125
1, 12288, Note_on_c, 14, 72, 94
1, 12288, Note_on_c, 14, 69, 87
1, 12289, Note_on_c, 3, 65, 75
1, 12289, Note_on_c, 9, 59, 104
1, 12292, Note_on_c, 9, 35, 0
1, 12292, Note_on_c, 9, 42, 0
1, 12293, Note_on_c, 9, 59, 0
1, 12293, Note_on_c, 6, 76, 0
1, 12296, Note_on_c, 6, 77, 0
1, 12300, Note_on_c, 6, 72, 0
1, 12301, Note_on_c, 6, 69, 0
1, 12301, Note_on_c, 2, 69, 0
1, 12302, Note_on_c, 2, 65, 0
1, 12303, Note_on_c, 2, 72, 0
1, 12307, Note_on_c, 5, 43, 0
1, 12308, Note_on_c, 3, 65, 0
1, 12309, Note_on_c, 14, 69, 0
1, 12310, Note_on_c, 14, 72, 0
1, 12312, Note_on_c, 2, 43, 0
1, 12316, Note_on_c, 1, 31, 0
1, 12320, Note_on_c, 9, 69, 75
1, 12324, Note_on_c, 9, 69, 0
1, 12349, Note_on_c, 2, 65, 88
1, 12349, Note_on_c, 2, 72, 89
1, 12349, Note_on_c, 2, 69, 89
1, 12350, Note_on_c, 6, 72, 114
1, 12350, Note_on_c, 6, 77, 102
1, 12350, Note_on_c, 6, 69, 97
1, 12351, Note_on_c, 1, 31, 104
1, 12351, Note_on_c, 14, 69, 100
1, 12351, Note_on_c, 14, 72, 99
1, 12352, Note_on_c, 2, 43, 103
1, 12352, Note_on_c, 3, 65, 87
1, 12352, Note_on_c, 5, 43, 84
1, 12352, Note_on_c, 9, 69, 75
1, 12352, Note_on_c, 9, 44, 125
1, 12353, Note_on_c, 9, 59, 114
1, 12356, Note_on_c, 9, 44, 0
1, 12356, Note_on_c, 9, 69, 0
1, 12357, Note_on_c, 9, 59, 0
1, 12367, Note_on_c, 1, 31, 0
1, 12384, Note_on_c, 1, 31, 110
1, 12384, Note_on_c, 9, 38, 125
1, 12384, Note_on_c, 9, 42, 105
1, 12388, Note_on_c, 9, 42, 0
1, 12388, Note_on_c, 9, 38, 0
1, 12433, Note_on_c, 1, 31, 0
1, 12448, Note_on_c, 9, 44, 115
1, 12448, Note_on_c, 9, 35, 75
1, 12448, Note_on_c, 9, 69, 75
1, 12449, Note_on_c, 9, 51, 92
1, 12450, Note_on_c, 1, 29, 102
1, 12452, Note_on_c, 9, 69, 0
1, 12452, Note_on_c, 9, 35, 0
1, 12452, Note_on_c, 9, 44, 0
1, 12453, Note_on_c, 9, 51, 0
1, 12456, Note_on_c, 3, 65, 0
1, 12457, Note_on_c, 14, 72, 0
1, 12458, Note_on_c, 14, 69, 0
1, 12462, Note_on_c, 6, 69, 0
1, 12464, Note_on_c, 1, 29, 0
1, 12464, Note_on_c, 5, 43, 0
1, 12464, Note_on_c, 1, 30, 97
1, 12466, Note_on_c, 6, 77, 0
1, 12469, Note_on_c, 6, 72, 0
1, 12477, Note_on_c, 2, 69, 0
1, 12477, Note_on_c, 2, 65, 0
1, 12477, Note_on_c, 2, 72, 0
1, 12479, Note_on_c, 1, 30, 0
1, 12479, Note_on_c, 1, 31, 111
1, 12480, Note_on_c, 2, 69, 96
1, 12480, Note_on_c, 2, 77, 98
1, 12480, Note_on_c, 2, 72, 98
1, 12480, Note_on_c, 5, 43, 67
1, 12480, Note_on_c, 6, 69, 92
1, 12480, Note_on_c, 6, 72, 97
1, 12480, Note_on_c, 6, 77, 88
1, 12480, Note_on_c, 9, 42, 115
1, 12480, Note_on_c, 14, 69, 85
1, 12480, Note_on_c, 14, 77, 88
1, 12480, Note_on_c, 14, 72, 87
1, 12481, Note_on_c, 3, 65, 75
1, 12481, Note_on_c, 9, 59, 102
1, 12484, Note_on_c, 9, 42, 0
1, 12485, Note_on_c, 9, 59, 0
1, 12494, Note_on_c, 6, 77, 0
1, 12495, Note_on_c, 6, 69, 0
1, 12495, Note_on_c, 2, 72, 0
1, 12495, Note_on_c, 2, 69, 0
1, 12496, Note_on_c, 14, 72, 0
1, 12497, Note_on_c, 6, 72, 0
1, 12498, Note_on_c, 2, 77, 0
1, 12499, Note_on_c, 14, 69, 0
1, 12500, Note_on_c, 14, 77, 0
1, 12504, Note_on_c, 3, 48, 0
1, 12505, Note_on_c, 3, 65, 0
1, 12512, Note_on_c, 1, 31, 0
1, 12512, Note_on_c, 9, 69, 75
1, 12516, Note_on_c, 9, 69, 0
1, 12523, Note_on_c, 4, 55, 0
1, 12529, Note_on_c, 2, 43, 0
1, 12542, Note_on_c, 2, 72, 101
1, 12542, Note_on_c, 2, 67, 96
1, 12542, Note_on_c, 2, 48, 103
1, 12542, Note_on_c, 2, 76, 101
1, 12542, Note_on_c, 6, 76, 105
1, 12542, Note_on_c, 14, 76, 97
1, 12543, Note_on_c, 1, 31, 100
1, 12543, Note_on_c, 3, 64, 79
1, 12543, Note_on_c, 3, 48, 69
1, 12543, Note_on_c, 4, 55, 59
1, 12543, Note_on_c, 6, 72, 105
1, 12543, Note_on_c, 6, 67, 109
1, 12543, Note_on_c, 14, 67, 97
1, 12543, Note_on_c, 14, 72, 99
1, 12544, Note_on_c, 9, 57, 85
1, 12544, Note_on_c, 9, 35, 125
1, 12544, Note_on_c, 9, 46, 127
1, 12545, Note_on_c, 9, 59, 95
1, 12548, Note_on_c, 9, 46, 0
1, 12548, Note_on_c, 9, 35, 0
1, 12548, Note_on_c, 9, 57, 0
1, 12549, Note_on_c, 9, 59, 0
1, 12552, Note_on_c, 5, 43, 0
1, 12555, Note_on_c, 1, 31, 0
1, 12575, Note_on_c, 1, 31, 111
1, 12576, Note_on_c, 5, 43, 87
1, 12576, Note_on_c, 9, 38, 85
1, 12576, Note_on_c, 9, 44, 105
1, 12580, Note_on_c, 9, 44, 0
1, 12580, Note_on_c, 9, 38, 0
1, 12597, Note_on_c, 14, 72, 0
1, 12601, Note_on_c, 14, 76, 0
1, 12601, Note_on_c, 14, 67, 0
1, 12618, Note_on_c, 1, 31, 0
1, 12621, Note_on_c, 5, 43, 0
1, 12639, Note_on_c, 1, 29, 102
1, 12640, Note_on_c, 5, 43, 84
1, 12640, Note_on_c, 9, 44, 125
1, 12640, Note_on_c, 9, 69, 75
1, 12640, Note_on_c, 14, 67, 97
1, 12640, Note_on_c, 14, 74, 100
1, 12640, Note_on_c, 14, 71, 104
1, 12644, Note_on_c, 9, 69, 0
1, 12644, Note_on_c, 9, 44, 0
1, 12647, Note_on_c, 2, 48, 0
1, 12656, Note_on_c, 1, 29, 0
1, 12656, Note_on_c, 3, 48, 0
1, 12656, Note_on_c, 5, 43, 0
1, 12656, Note_on_c, 1, 30, 97
1, 12660, Note_on_c, 3, 64, 0
1, 12661, Note_on_c, 2, 76, 0
1, 12661, Note_on_c, 2, 67, 0
1, 12662, Note_on_c, 4, 55, 0
1, 12663, Note_on_c, 2, 72, 0
1, 12663, Note_on_c, 6, 76, 0
1, 12665, Note_on_c, 6, 67, 0
1, 12666, Note_on_c, 6, 72, 0
1, 12668, Note_on_c, 0, 50, 127
1, 12670, Note_on_c, 0, 55, 127
1, 12671, Note_on_c, 0, 59, 127
1, 12672, Note_on_c, 1, 30, 0
1, 12672, Note_on_c, 1, 31, 107
1, 12672, Note_on_c, 2, 55, 74
1, 12672, Note_on_c, 2, 62, 74
1, 12672, Note_on_c, 2, 59, 74
1, 12672, Note_on_c, 4, 59, 52
1, 12672, Note_on_c, 4, 62, 52
1, 12672, Note_on_c, 4, 55, 50
1, 12672, Note_on_c, 6, 67, 87
1, 12672, Note_on_c, 6, 71, 84
1, 12672, Note_on_c, 9, 35, 125
1, 12672, Note_on_c, 9, 49, 75
1, 12672, Note_on_c, 9, 42, 115
1, 12673, Note_on_c, 6, 62, 75
1, 12674, Note_on_c, 0, 62, 127
1, 12676, Note_on_c, 9, 42, 0
1, 12676, Note_on_c, 9, 49, 0
1, 12676, Note_on_c, 9, 35, 0
1, 12676, Note_on_c, 0, 67, 127
1, 12704, Note_on_c, 9, 69, 75
1, 12708, Note_on_c, 9, 69, 0
1, 12712, Note_on_c, 1, 31, 0
1, 12728, Note_on_c, 0, 67, 0
1, 12736, Note_on_c, 0, 67, 127
1, 12736, Note_on_c, 1, 31, 102
1, 12736, Note_on_c, 9, 69, 75
1, 12736, Note_on_c, 9, 44, 125
1, 12738, Note_on_c, 0, 62, 0
1, 12738, Note_on_c, 0, 62, 121
1, 12740, Note_on_c, 9, 44, 0
1, 12740, Note_on_c, 9, 69, 0
1, 12754, Note_on_c, 1, 31, 0
1, 12768, Note_on_c, 1, 31, 105
1, 12768, Note_on_c, 9, 42, 105
1, 12768, Note_on_c, 9, 38, 125
1, 12770, Note_on_c, 0, 55, 0
1, 12770, Note_on_c, 0, 55, 127
1, 12772, Note_on_c, 9, 38, 0
1, 12772, Note_on_c, 9, 42, 0
1, 12804, Note_on_c, 1, 31, 0
1, 12822, Note_on_c, 0, 67, 0
1, 12823, Note_on_c, 0, 67, 127
1, 12824, Note_on_c, 0, 62, 0
1, 12826, Note_on_c, 0, 62, 127
1, 12828, Note_on_c, 0, 55, 0
1, 12829, Note_on_c, 0, 55, 127
1, 12831, Note_on_c, 14, 74, 0
1, 12832, Note_on_c, 1, 31, 92
1, 12832, Note_on_c, 9, 44, 115
1, 12832, Note_on_c, 9, 69, 75
1, 12833, Note_on_c, 14, 67, 0
1, 12836, Note_on_c, 9, 69, 0
1, 12836, Note_on_c, 9, 44, 0
1, 12836, Note_on_c, 14, 71, 0
1, 12850, Note_on_c, 1, 31, 0
1, 12851, Lyric_t, "You "
1, 12864, Note_on_c, 1, 31, 108
1, 12864, Note_on_c, 9, 42, 115
1, 12864, Note_on_c, 9, 35, 125
1, 12868, Note_on_c, 9, 35, 0
1, 12868, Note_on_c, 9, 42, 0
1, 12890, Note_on_c, 2, 55, 0
1, 12890, Lyric_t, "need "
1, 12896, Note_on_c, 9, 69, 75
1, 12900, Note_on_c, 9, 69, 0
1, 12904, Note_on_c, 1, 31, 0
1, 12927, Note_on_c, 1, 31, 102
1, 12928, Note_on_c, 2, 55, 70
1, 12928, Note_on_c, 9, 44, 125
1, 12932, Note_on_c, 9, 44, 0
1, 12934, Note_on_c, 2, 62, 0
1, 12936, Note_on_c, 2, 59, 0
1, 12943, Note_on_c, 1, 31, 0
1, 12950, Note_on_c, 2, 55, 0
1, 12950, Lyric_t, "direction, "
1, 12953, Note_on_c, 0, 50, 0
1, 12955, Note_on_c, 0, 55, 0
1, 12956, Note_on_c, 0, 50, 127
1, 12957, Note_on_c, 0, 55, 127
1, 12958, Note_on_c, 0, 59, 0
1, 12958, Note_on_c, 0, 62, 0
1, 12959, Note_on_c, 0, 59, 127
1, 12959, Note_on_c, 1, 31, 109
1, 12959, Note_on_c, 2, 59, 73
1, 12960, Note_on_c, 0, 67, 0
1, 12960, Note_on_c, 0, 62, 127
1, 12960, Note_on_c, 2, 62, 72
1, 12960, Note_on_c, 9, 38, 125
1, 12960, Note_on_c, 9, 42, 115
1, 12961, Note_on_c, 0, 67, 127
1, 12964, Note_on_c, 9, 42, 0
1, 12964, Note_on_c, 9, 38, 0
1, 12981, Note_on_c, 2, 62, 0
1, 12982, Note_on_c, 6, 62, 0
1, 12986, Note_on_c, 6, 71, 0
1, 12987, Note_on_c, 2, 59, 0
1, 12990, Note_on_c, 6, 67, 0
1, 13003, Note_on_c, 1, 31, 0
1, 13008, Note_on_c, 0, 55, 0
1, 13010, Note_on_c, 0, 50, 0
1, 13020, Lyric_t, "yeah "
1, 13021, Note_on_c, 0, 59, 0
1, 13022, Note_on_c, 2, 55, 59
1, 13024, Note_on_c, 9, 69, 75
1, 13024, Note_on_c, 9, 46, 105
1, 13025, Note_on_c, 1, 31, 97
1, 13028, Note_on_c, 9, 46, 0
1, 13028, Note_on_c, 9, 69, 0
1, 13032, Note_on_c, 4, 62, 0
1, 13034, Note_on_c, 4, 59, 0
1, 13041, Note_on_c, 1, 31, 0
1, 13049, Note_on_c, 0, 62, 0
1, 13054, Note_on_c, 0, 55, 127
1, 13055, Note_on_c, 0, 60, 127
1, 13055, Note_on_c, 2, 64, 73
1, 13055, Note_on_c, 2, 60, 71
1, 13056, Note_on_c, 0, 64, 127
1, 13056, Note_on_c, 9, 42, 115
1, 13056, Note_on_c, 9, 35, 125
1, 13057, Note_on_c, 0, 67, 0
1, 13057, Note_on_c, 0, 67, 124
1, 13057, Note_on_c, 1, 31, 101
1, 13057, Note_on_c, 4, 64, 55
1, 13057, Note_on_c, 4, 60, 49
1, 13060, Note_on_c, 9, 35, 0
1, 13060, Note_on_c, 9, 42, 0
1, 13061, Note_on_c, 0, 67, 0
1, 13069, Note_on_c, 0, 64, 0
1, 13088, Note_on_c, 9, 69, 75
1, 13092, Note_on_c, 9, 69, 0
1, 13099, Note_on_c, 1, 31, 0
1, 13117, Note_on_c, 0, 64, 113
1, 13120, Note_on_c, 9, 69, 75
1, 13120, Note_on_c, 9, 44, 125
1, 13121, Note_on_c, 1, 31, 101
1, 13124, Note_on_c, 9, 44, 0
1, 13124, Note_on_c, 9, 69, 0
1, 13124, Lyric_t, "you "
1, 13136, Note_on_c, 1, 31, 0
1, 13149, Note_on_c, 0, 55, 0
1, 13150, Note_on_c, 0, 60, 0
1, 13150, Note_on_c, 0, 55, 127
1, 13151, Note_on_c, 0, 64, 0
1, 13152, Note_on_c, 0, 64, 127
1, 13152, Note_on_c, 0, 60, 127
1, 13152, Note_on_c, 9, 42, 105
1, 13152, Note_on_c, 9, 38, 125
1, 13153, Note_on_c, 1, 31, 107
1, 13156, Note_on_c, 9, 38, 0
1, 13156, Note_on_c, 9, 42, 0
1, 13167, Note_on_c, 0, 64, 0
1, 13178, Note_on_c, 0, 60, 0
1, 13182, Note_on_c, 0, 55, 0
1, 13182, Lyric_t, "need "
1, 13194, Note_on_c, 1, 31, 0
1, 13204, Note_on_c, 2, 64, 0
1, 13207, Note_on_c, 2, 60, 0
1, 13209, Note_on_c, 0, 67, 127
1, 13212, Note_on_c, 0, 62, 127
1, 13214, Note_on_c, 0, 59, 127
1, 13216, Note_on_c, 0, 55, 127
1, 13216, Note_on_c, 1, 31, 103
1, 13216, Note_on_c, 9, 44, 115
1, 13216, Note_on_c, 9, 69, 75
1, 13217, Note_on_c, 0, 50, 127
1, 13220, Note_on_c, 9, 69, 0
1, 13220, Note_on_c, 9, 44, 0
1, 13223, Note_on_c, 4, 64, 0
1, 13225, Note_on_c, 4, 60, 0
1, 13226, Lyric_t, "a "
1, 13235, Note_on_c, 1, 31, 0
1, 13248, Note_on_c, 1, 31, 107
1, 13248, Note_on_c, 2, 62, 70
1, 13248, Note_on_c, 2, 59, 70
1, 13248, Note_on_c, 9, 42, 115
1, 13248, Note_on_c, 9, 35, 125
1, 13249, Note_on_c, 4, 62, 49
1, 13249, Note_on_c, 4, 59, 50
1, 13252, Note_on_c, 9, 35, 0
1, 13252, Note_on_c, 9, 42, 0
1, 13280, Note_on_c, 9, 69, 75
1, 13284, Note_on_c, 9, 69, 0
1, 13289, Lyric_t, "name "
1, 13289, Lyric_t, "\015"
1, 13293, Note_on_c, 1, 31, 0
1, 13304, Note_on_c, 0, 67, 0
1, 13305, Note_on_c, 0, 67, 127
1, 13306, Note_on_c, 0, 62, 0
1, 13307, Note_on_c, 0, 62, 123
1, 13312, Note_on_c, 1, 31, 100
1, 13312, Note_on_c, 9, 44, 125
1, 13316, Note_on_c, 9, 44, 0
1, 13326, Note_on_c, 1, 31, 0
1, 13342, Note_on_c, 0, 50, 0
1, 13342, Note_on_c, 0, 55, 0
1, 13343, Note_on_c, 0, 50, 127
1, 13344, Note_on_c, 0, 59, 0
1, 13344, Note_on_c, 0, 55, 127
1, 13344, Note_on_c, 1, 31, 101
1, 13344, Note_on_c, 9, 38, 125
1, 13344, Note_on_c, 9, 42, 115
1, 13345, Note_on_c, 0, 59, 127
1, 13346, Note_on_c, 0, 62, 0
1, 13347, Note_on_c, 0, 67, 0
1, 13347, Note_on_c, 0, 62, 127
1, 13348, Note_on_c, 9, 42, 0
1, 13348, Note_on_c, 9, 38, 0
1, 13348, Note_on_c, 0, 67, 127
1, 13357, Note_on_c, 0, 67, 0
1, 13358, Note_on_c, 0, 59, 0
1, 13359, Note_on_c, 0, 50, 0
1, 13359, Note_on_c, 0, 62, 0
1, 13362, Note_on_c, 0, 55, 0
1, 13363, Note_on_c, 1, 31, 0
1, 13367, Note_on_c, 2, 62, 0
1, 13370, Note_on_c, 2, 59, 0
1, 13377, Note_on_c, 2, 55, 0
1, 13397, Note_on_c, 4, 62, 0
1, 13401, Note_on_c, 4, 55, 0
1, 13402, Note_on_c, 0, 65, 127
1, 13403, Note_on_c, 0, 60, 127
1, 13406, Note_on_c, 0, 57, 127
1, 13407, Note_on_c, 0, 53, 127
1, 13407, Note_on_c, 2, 57, 74
1, 13407, Note_on_c, 2, 53, 73
1, 13407, Note_on_c, 2, 60, 71
1, 13408, Note_on_c, 1, 31, 96
1, 13408, Note_on_c, 9, 46, 105
1, 13408, Note_on_c, 9, 69, 75
1, 13411, Note_on_c, 4, 59, 0
1, 13412, Note_on_c, 9, 69, 0
1, 13412, Note_on_c, 9, 46, 0
1, 13423, Lyric_t, "When "
1, 13426, Note_on_c, 1, 31, 0
1, 13440, Note_on_c, 1, 29, 108
1, 13440, Note_on_c, 9, 35, 125
1, 13440, Note_on_c, 9, 42, 115
1, 13441, Note_on_c, 4, 60, 61
1, 13441, Note_on_c, 4, 65, 52
1, 13441, Note_on_c, 4, 57, 56
1, 13444, Note_on_c, 9, 42, 0
1, 13444, Note_on_c, 9, 35, 0
1, 13472, Note_on_c, 2, 53, 0
1, 13472, Note_on_c, 9, 69, 75
1, 13473, Note_on_c, 2, 57, 0
1, 13475, Note_on_c, 2, 60, 0
1, 13476, Note_on_c, 9, 69, 0
1, 13483, Note_on_c, 1, 29, 0
1, 13496, Note_on_c, 0, 65, 0
1, 13497, Note_on_c, 0, 65, 127
1, 13498, Note_on_c, 0, 60, 0
1, 13499, Note_on_c, 0, 60, 123
1, 13504, Note_on_c, 1, 29, 101
1, 13504, Note_on_c, 2, 53, 71
1, 13504, Note_on_c, 2, 60, 71
1, 13504, Note_on_c, 2, 57, 72
1, 13504, Note_on_c, 9, 44, 125
1, 13504, Note_on_c, 9, 69, 75
1, 13508, Note_on_c, 9, 69, 0
1, 13508, Note_on_c, 9, 44, 0
1, 13508, Lyric_t, "you\222re "
1, 13519, Note_on_c, 1, 29, 0
1, 13532, Note_on_c, 0, 53, 0
1, 13533, Note_on_c, 0, 57, 0
1, 13533, Note_on_c, 0, 53, 127
1, 13535, Note_on_c, 0, 57, 127
1, 13536, Note_on_c, 0, 60, 0
1, 13536, Note_on_c, 0, 60, 127
1, 13536, Note_on_c, 1, 29, 102
1, 13536, Note_on_c, 9, 38, 125
1, 13536, Note_on_c, 9, 42, 105
1, 13540, Note_on_c, 9, 42, 0
1, 13540, Note_on_c, 9, 38, 0
1, 13553, Lyric_t, "standing "
1, 13560, Note_on_c, 0, 65, 0
1, 13564, Note_on_c, 0, 60, 0
1, 13568, Note_on_c, 0, 57, 0
1, 13574, Note_on_c, 1, 29, 0
1, 13580, Note_on_c, 0, 53, 0
1, 13592, Note_on_c, 0, 64, 127
1, 13594, Note_on_c, 2, 60, 0
1, 13594, Note_on_c, 0, 60, 127
1, 13595, Note_on_c, 2, 53, 0
1, 13597, Note_on_c, 2, 57, 0
1, 13597, Note_on_c, 0, 55, 127
1, 13598, Note_on_c, 0, 52, 127
1, 13600, Note_on_c, 1, 29, 96
1, 13600, Note_on_c, 9, 69, 75
1, 13600, Note_on_c, 9, 44, 115
1, 13604, Note_on_c, 9, 44, 0
1, 13604, Note_on_c, 9, 69, 0
1, 13604, Note_on_c, 4, 65, 0
1, 13604, Note_on_c, 4, 57, 0
1, 13611, Note_on_c, 4, 60, 0
1, 13618, Note_on_c, 1, 29, 0
1, 13620, Lyric_t, "in "
1, 13631, Note_on_c, 4, 60, 53
1, 13631, Note_on_c, 4, 64, 54
1, 13632, Note_on_c, 1, 28, 107
1, 13632, Note_on_c, 2, 60, 72
1, 13632, Note_on_c, 2, 55, 71
1, 13632, Note_on_c, 2, 64, 71
1, 13632, Note_on_c, 4, 55, 59
1, 13632, Note_on_c, 9, 35, 125
1, 13632, Note_on_c, 9, 42, 115
1, 13636, Note_on_c, 9, 42, 0
1, 13636, Note_on_c, 9, 35, 0
1, 13646, Note_on_c, 2, 60, 0
1, 13647, Note_on_c, 2, 64, 0
1, 13647, Note_on_c, 2, 55, 0
1, 13658, Lyric_t, "the "
1, 13664, Note_on_c, 9, 69, 75
1, 13668, Note_on_c, 9, 69, 0
1, 13668, Note_on_c, 1, 28, 0
1, 13689, Note_on_c, 0, 64, 0
1, 13689, Note_on_c, 0, 64, 127
1, 13694, Note_on_c, 2, 60, 73
1, 13694, Note_on_c, 2, 64, 73
1, 13694, Note_on_c, 2, 55, 71
1, 13695, Note_on_c, 1, 28, 103
1, 13696, Note_on_c, 9, 44, 125
1, 13696, Note_on_c, 9, 69, 75
1, 13700, Note_on_c, 9, 69, 0
1, 13700, Note_on_c, 9, 44, 0
1, 13702, Lyric_t, "crossroads "
1, 13702, Lyric_t, "\015"
1, 13712, Note_on_c, 1, 28, 0
1, 13722, Note_on_c, 0, 52, 0
1, 13723, Note_on_c, 0, 52, 127
1, 13727, Note_on_c, 1, 28, 108
1, 13728, Note_on_c, 9, 38, 125
1, 13728, Note_on_c, 9, 42, 115
1, 13732, Note_on_c, 9, 42, 0
1, 13732, Note_on_c, 9, 38, 0
1, 13748, Note_on_c, 0, 52, 0
1, 13751, Note_on_c, 0, 60, 0
1, 13760, Note_on_c, 9, 69, 75
1, 13762, Note_on_c, 2, 64, 0
1, 13764, Note_on_c, 9, 69, 0
1, 13767, Note_on_c, 2, 55, 0
1, 13768, Note_on_c, 1, 28, 0
1, 13770, Note_on_c, 2, 60, 0
1, 13772, Lyric_t, "every "
1, 13773, Note_on_c, 0, 55, 0
1, 13773, Note_on_c, 0, 64, 0
1, 13782, Note_on_c, 0, 65, 127
1, 13785, Note_on_c, 4, 55, 0
1, 13785, Note_on_c, 0, 60, 127
1, 13786, Note_on_c, 0, 57, 127
1, 13787, Note_on_c, 0, 53, 127
1, 13790, Note_on_c, 4, 64, 0
1, 13792, Note_on_c, 9, 46, 105
1, 13792, Note_on_c, 9, 69, 75
1, 13793, Note_on_c, 1, 29, 98
1, 13794, Note_on_c, 2, 65, 72
1, 13794, Note_on_c, 2, 57, 74
1, 13794, Note_on_c, 2, 60, 73
1, 13794, Note_on_c, 4, 65, 47
1, 13794, Note_on_c, 4, 57, 46
1, 13796, Note_on_c, 9, 69, 0
1, 13796, Note_on_c, 9, 46, 0
1, 13810, Note_on_c, 1, 29, 0
1, 13817, Note_on_c, 2, 65, 0
1, 13819, Note_on_c, 2, 60, 0
1, 13820, Note_on_c, 2, 57, 0
1, 13822, Note_on_c, 0, 65, 0
1, 13823, Note_on_c, 0, 60, 0
1, 13824, Note_on_c, 9, 35, 125
1, 13824, Note_on_c, 9, 42, 115
1, 13825, Note_on_c, 1, 29, 105
1, 13827, Note_on_c, 0, 57, 0
1, 13828, Note_on_c, 9, 42, 0
1, 13828, Note_on_c, 9, 35, 0
1, 13830, Note_on_c, 0, 53, 0
1, 13841, Note_on_c, 4, 65, 0
1, 13846, Note_on_c, 4, 57, 0
1, 13848, Lyric_t, "highway "
1, 13856, Note_on_c, 9, 69, 75
1, 13859, Note_on_c, 1, 29, 0
1, 13860, Note_on_c, 9, 69, 0
1, 13864, Note_on_c, 4, 60, 0
1, 13879, Note_on_c, 0, 64, 127
1, 13881, Note_on_c, 0, 60, 127
1, 13883, Note_on_c, 0, 55, 127
1, 13886, Note_on_c, 0, 52, 127
1, 13887, Note_on_c, 2, 60, 73
1, 13887, Note_on_c, 2, 64, 73
1, 13887, Note_on_c, 2, 55, 74
1, 13888, Note_on_c, 1, 28, 103
1, 13888, Note_on_c, 4, 60, 49
1, 13888, Note_on_c, 4, 64, 51
1, 13888, Note_on_c, 9, 69, 75
1, 13888, Note_on_c, 9, 46, 115
1, 13888, Note_on_c, 9, 44, 125
1, 13889, Note_on_c, 4, 55, 51
1, 13892, Note_on_c, 9, 44, 0
1, 13892, Note_on_c, 9, 46, 0
1, 13892, Note_on_c, 9, 69, 0
1, 13904, Note_on_c, 1, 28, 0
1, 13912, Lyric_t, "looks "
1, 13914, Note_on_c, 2, 64, 0
1, 13915, Note_on_c, 0, 60, 0
1, 13915, Note_on_c, 0, 52, 0
1, 13920, Note_on_c, 2, 60, 0
1, 13920, Note_on_c, 2, 55, 0
1, 13920, Note_on_c, 0, 55, 0
1, 13920, Note_on_c, 9, 42, 105
1, 13920, Note_on_c, 9, 38, 125
1, 13922, Note_on_c, 0, 64, 0
1, 13924, Note_on_c, 9, 42, 0
1, 13924, Note_on_c, 9, 38, 0
1, 13937, Note_on_c, 4, 64, 0
1, 13938, Note_on_c, 4, 60, 0
1, 13942, Note_on_c, 4, 55, 0
1, 13978, Note_on_c, 0, 67, 127
1, 13979, Note_on_c, 0, 62, 127
1, 13982, Note_on_c, 0, 55, 127
1, 13982, Lyric_t, "the "
1, 13983, Note_on_c, 0, 59, 127
1, 13983, Note_on_c, 2, 59, 77
1, 13983, Note_on_c, 2, 62, 75
1, 13983, Note_on_c, 2, 55, 76
1, 13983, Note_on_c, 4, 55, 53
1, 13984, Note_on_c, 4, 59, 57
1, 13984, Note_on_c, 4, 62, 55
1, 13984, Note_on_c, 9, 46, 115
1, 13984, Note_on_c, 9, 44, 115
1, 13984, Note_on_c, 9, 69, 75
1, 13985, Note_on_c, 1, 31, 91
1, 13988, Note_on_c, 9, 69, 0
1, 13988, Note_on_c, 9, 44, 0
1, 13988, Note_on_c, 9, 46, 0
1, 14016, Note_on_c, 0, 50, 121
1, 14016, Note_on_c, 9, 35, 125
1, 14016, Note_on_c, 9, 42, 115
1, 14020, Note_on_c, 9, 42, 0
1, 14020, Note_on_c, 9, 35, 0
1, 14033, Lyric_t, "same "
1, 14033, Lyric_t, "\015"
1, 14038, Note_on_c, 1, 31, 0
1, 14042, Note_on_c, 2, 55, 0
1, 14048, Note_on_c, 9, 69, 75
1, 14052, Note_on_c, 9, 69, 0
1, 14066, Note_on_c, 0, 50, 0
1, 14068, Note_on_c, 0, 55, 0
1, 14080, Note_on_c, 1, 31, 103
1, 14080, Note_on_c, 9, 44, 125
1, 14081, Note_on_c, 2, 55, 61
1, 14084, Note_on_c, 9, 44, 0
1, 14084, Note_on_c, 0, 59, 0
1, 14086, Note_on_c, 2, 62, 0
1, 14088, Note_on_c, 4, 62, 0
1, 14089, Note_on_c, 4, 59, 0
1, 14091, Note_on_c, 4, 55, 0
1, 14091, Note_on_c, 2, 59, 0
1, 14096, Note_on_c, 1, 31, 0
1, 14099, Note_on_c, 0, 62, 0
1, 14107, Note_on_c, 0, 67, 0
1, 14107, Note_on_c, 0, 55, 127
1, 14109, Note_on_c, 0, 64, 127
1, 14110, Note_on_c, 0, 67, 127
1, 14111, Note_on_c, 0, 60, 127
1, 14112, Note_on_c, 2, 64, 77
1, 14112, Note_on_c, 2, 60, 75
1, 14112, Note_on_c, 4, 55, 47
1, 14112, Note_on_c, 4, 60, 54
1, 14112, Note_on_c, 4, 64, 46
1, 14112, Note_on_c, 6, 67, 103
1, 14112, Note_on_c, 6, 72, 101
1, 14112, Note_on_c, 9, 42, 115
1, 14112, Note_on_c, 9, 38, 125
1, 14113, Note_on_c, 1, 31, 105
1, 14116, Note_on_c, 9, 38, 0
1, 14116, Note_on_c, 9, 42, 0
1, 14134, Note_on_c, 2, 55, 0
1, 14136, Note_on_c, 4, 64, 0
1, 14137, Note_on_c, 2, 64, 0
1, 14138, Note_on_c, 4, 60, 0
1, 14138, Note_on_c, 2, 60, 0
1, 14139, Note_on_c, 4, 55, 0
1, 14141, Note_on_c, 0, 64, 0
1, 14145, Note_on_c, 0, 67, 0
1, 14147, Note_on_c, 0, 60, 0
1, 14150, Note_on_c, 6, 72, 0
1, 14153, Note_on_c, 0, 55, 0
1, 14156, Note_on_c, 6, 67, 0
1, 14157, Note_on_c, 1, 31, 0
1, 14173, Note_on_c, 0, 67, 127
1, 14173, Note_on_c, 6, 67, 99
1, 14174, Note_on_c, 0, 62, 127
1, 14174, Note_on_c, 6, 71, 103
1, 14175, Note_on_c, 2, 59, 77
1, 14176, Note_on_c, 2, 62, 77
1, 14176, Note_on_c, 2, 55, 76
1, 14176, Note_on_c, 4, 55, 54
1, 14176, Note_on_c, 4, 62, 55
1, 14176, Note_on_c, 4, 59, 57
1, 14176, Note_on_c, 9, 46, 105
1, 14176, Note_on_c, 9, 69, 75
1, 14177, Note_on_c, 0, 55, 127
1, 14177, Note_on_c, 1, 31, 97
1, 14179, Note_on_c, 0, 50, 127
1, 14180, Note_on_c, 9, 69, 0
1, 14180, Note_on_c, 9, 46, 0
1, 14180, Note_on_c, 0, 59, 127
1, 14201, Note_on_c, 2, 59, 0
1, 14202, Note_on_c, 2, 55, 0
1, 14202, Note_on_c, 2, 62, 0
1, 14207, Note_on_c, 1, 31, 0
1, 14208, Note_on_c, 0, 67, 0
1, 14208, Note_on_c, 1, 31, 107
1, 14208, Note_on_c, 9, 35, 125
1, 14208, Note_on_c, 9, 42, 115
1, 14209, Note_on_c, 0, 62, 0
1, 14212, Note_on_c, 9, 35, 0
1, 14212, Note_on_c, 9, 42, 0
1, 14212, Note_on_c, 0, 55, 0
1, 14214, Note_on_c, 0, 50, 0
1, 14215, Note_on_c, 0, 59, 0
1, 14216, Note_on_c, 6, 67, 0
1, 14216, Note_on_c, 6, 71, 0
1, 14240, Note_on_c, 9, 69, 75
1, 14244, Note_on_c, 9, 69, 0
1, 14248, Note_on_c, 1, 31, 0
1, 14270, Note_on_c, 0, 67, 127
1, 14271, Note_on_c, 2, 55, 69
1, 14271, Note_on_c, 2, 62, 72
1, 14271, Note_on_c, 2, 59, 71
1, 14272, Note_on_c, 1, 31, 102
1, 14272, Note_on_c, 9, 44, 125
1, 14272, Note_on_c, 9, 69, 75
1, 14273, Note_on_c, 0, 62, 127
1, 14275, Note_on_c, 0, 59, 127
1, 14276, Note_on_c, 9, 69, 0
1, 14276, Note_on_c, 9, 44, 0
1, 14280, Lyric_t, "After "
1, 14290, Note_on_c, 1, 31, 0
1, 14300, Note_on_c, 0, 50, 127
1, 14302, Note_on_c, 0, 55, 127
1, 14303, Note_on_c, 0, 59, 0
1, 14304, Note_on_c, 0, 59, 127
1, 14304, Note_on_c, 1, 31, 105
1, 14304, Note_on_c, 9, 38, 125
1, 14304, Note_on_c, 9, 42, 105
1, 14308, Note_on_c, 9, 42, 0
1, 14308, Note_on_c, 9, 38, 0
1, 14340, Note_on_c, 1, 31, 0
1, 14358, Note_on_c, 0, 67, 0
1, 14361, Note_on_c, 0, 62, 0
1, 14361, Note_on_c, 0, 67, 127
1, 14362, Note_on_c, 0, 62, 127
1, 14368, Note_on_c, 1, 31, 92
1, 14368, Note_on_c, 9, 44, 115
1, 14368, Note_on_c, 9, 69, 75
1, 14372, Note_on_c, 9, 69, 0
1, 14372, Note_on_c, 9, 44, 0
1, 14378, Note_on_c, 2, 59, 0
1, 14379, Note_on_c, 2, 62, 0
1, 14379, Lyric_t, "a "
1, 14386, Note_on_c, 1, 31, 0
1, 14388, Note_on_c, 2, 55, 0
1, 14399, Note_on_c, 2, 59, 72
1, 14399, Note_on_c, 2, 55, 62
1, 14400, Note_on_c, 1, 31, 108
1, 14400, Note_on_c, 2, 62, 73
1, 14400, Note_on_c, 9, 42, 115
1, 14400, Note_on_c, 9, 35, 125
1, 14404, Note_on_c, 9, 35, 0
1, 14404, Note_on_c, 9, 42, 0
1, 14417, Lyric_t, "while "
1, 14432, Note_on_c, 9, 69, 75
1, 14436, Note_on_c, 9, 69, 0
1, 14440, Note_on_c, 1, 31, 0
1, 14460, Note_on_c, 0, 67, 0
1, 14461, Note_on_c, 0, 67, 127
1, 14463, Note_on_c, 0, 62, 0
1, 14463, Note_on_c, 0, 62, 127
1, 14463, Note_on_c, 1, 31, 102
1, 14464, Note_on_c, 9, 44, 125
1, 14465, Note_on_c, 0, 59, 0
1, 14465, Note_on_c, 0, 59, 127
1, 14468, Note_on_c, 9, 44, 0
1, 14474, Lyric_t, "you "
1, 14479, Note_on_c, 1, 31, 0
1, 14490, Note_on_c, 0, 55, 0
1, 14491, Note_on_c, 0, 55, 127
1, 14494, Note_on_c, 0, 67, 0
1, 14495, Note_on_c, 0, 67, 127
1, 14495, Note_on_c, 1, 31, 109
1, 14496, Note_on_c, 9, 42, 115
1, 14496, Note_on_c, 9, 38, 125
1, 14500, Note_on_c, 9, 38, 0
1, 14500, Note_on_c, 9, 42, 0
1, 14526, Note_on_c, 2, 55, 0
1, 14539, Note_on_c, 0, 55, 0
1, 14539, Note_on_c, 1, 31, 0
1, 14541, Note_on_c, 0, 50, 0
1, 14548, Note_on_c, 0, 59, 0
1, 14548, Note_on_c, 0, 67, 0
1, 14551, Note_on_c, 0, 67, 127
1, 14553, Note_on_c, 0, 62, 0
1, 14553, Note_on_c, 0, 62, 121
1, 14560, Note_on_c, 9, 46, 105
1, 14560, Note_on_c, 9, 69, 75
1, 14561, Note_on_c, 1, 31, 97
1, 14561, Note_on_c, 2, 55, 70
1, 14563, Lyric_t, "can "
1, 14564, Note_on_c, 9, 69, 0
1, 14564, Note_on_c, 9, 46, 0
1, 14565, Note_on_c, 4, 62, 0
1, 14566, Note_on_c, 2, 62, 0
1, 14568, Note_on_c, 2, 59, 0
1, 14569, Note_on_c, 4, 59, 0
1, 14577, Note_on_c, 1, 31, 0
1, 14585, Note_on_c, 0, 55, 127
1, 14587, Note_on_c, 0, 67, 0
1, 14587, Note_on_c, 0, 60, 127
1, 14588, Note_on_c, 0, 67, 127
1, 14591, Note_on_c, 4, 60, 54
1, 14592, Note_on_c, 0, 62, 0
1, 14592, Note_on_c, 2, 60, 75
1, 14592, Note_on_c, 4, 64, 58
1, 14592, Note_on_c, 9, 35, 125
1, 14592, Note_on_c, 9, 42, 115
1, 14593, Note_on_c, 0, 64, 119
1, 14593, Note_on_c, 1, 31, 101
1, 14593, Note_on_c, 2, 64, 74
1, 14596, Note_on_c, 9, 42, 0
1, 14596, Note_on_c, 9, 35, 0
1, 14607, Lyric_t, "recognize "
1, 14610, Note_on_c, 2, 64, 0
1, 14612, Note_on_c, 2, 60, 0
1, 14613, Note_on_c, 2, 55, 0
1, 14613, Note_on_c, 0, 67, 0
1, 14624, Note_on_c, 9, 69, 75
1, 14628, Note_on_c, 9, 69, 0
1, 14635, Note_on_c, 1, 31, 0
1, 14656, Note_on_c, 2, 55, 72
1, 14656, Note_on_c, 2, 64, 74
1, 14656, Note_on_c, 2, 60, 72
1, 14656, Note_on_c, 9, 69, 75
1, 14656, Note_on_c, 9, 44, 125
1, 14657, Note_on_c, 1, 31, 101
1, 14660, Note_on_c, 9, 44, 0
1, 14660, Note_on_c, 9, 69, 0
1, 14672, Note_on_c, 1, 31, 0
1, 14679, Note_on_c, 0, 64, 0
1, 14682, Note_on_c, 0, 60, 0
1, 14684, Note_on_c, 0, 60, 127
1, 14686, Note_on_c, 0, 67, 122
1, 14688, Note_on_c, 0, 64, 127
1, 14688, Note_on_c, 9, 38, 125
1, 14688, Note_on_c, 9, 42, 105
1, 14689, Note_on_c, 1, 31, 107
1, 14691, Note_on_c, 0, 67, 0
1, 14692, Note_on_c, 9, 38, 0
1, 14692, Note_on_c, 0, 64, 0
1, 14692, Note_on_c, 9, 42, 0
1, 14709, Lyric_t, "the "
1, 14711, Note_on_c, 0, 60, 0
1, 14717, Note_on_c, 0, 55, 0
1, 14720, Note_on_c, 2, 64, 0
1, 14721, Note_on_c, 2, 60, 0
1, 14729, Note_on_c, 2, 55, 0
1, 14730, Note_on_c, 1, 31, 0
1, 14748, Note_on_c, 0, 67, 127
1, 14750, Note_on_c, 0, 62, 127
1, 14752, Note_on_c, 0, 59, 127
1, 14752, Note_on_c, 1, 31, 103
1, 14752, Note_on_c, 2, 55, 73
1, 14752, Note_on_c, 2, 62, 73
1, 14752, Note_on_c, 2, 59, 74
1, 14752, Note_on_c, 9, 69, 75
1, 14752, Note_on_c, 9, 44, 115
1, 14754, Note_on_c, 0, 55, 127
1, 14756, Note_on_c, 9, 44, 0
1, 14756, Note_on_c, 9, 69, 0
1, 14757, Note_on_c, 0, 50, 115
1, 14758, Note_on_c, 4, 64, 0
1, 14761, Note_on_c, 4, 60, 0
1, 14771, Note_on_c, 1, 31, 0
1, 14784, Note_on_c, 1, 31, 107
1, 14784, Note_on_c, 4, 59, 40
1, 14784, Note_on_c, 4, 62, 44
1, 14784, Note_on_c, 9, 42, 115
1, 14784, Note_on_c, 9, 35, 125
1, 14788, Note_on_c, 9, 35, 0
1, 14788, Note_on_c, 9, 42, 0
1, 14791, Lyric_t, "signs "
1, 14791, Lyric_t, "\015"
1, 14813, Note_on_c, 2, 55, 0
1, 14816, Note_on_c, 9, 69, 75
1, 14820, Note_on_c, 9, 69, 0
1, 14829, Note_on_c, 1, 31, 0
1, 14846, Note_on_c, 0, 67, 0
1, 14848, Note_on_c, 1, 31, 100
1, 14848, Note_on_c, 9, 44, 125
1, 14850, Note_on_c, 0, 62, 0
1, 14850, Note_on_c, 0, 62, 127
1, 14850, Note_on_c, 2, 55, 67
1, 14852, Note_on_c, 9, 44, 0
1, 14852, Note_on_c, 0, 67, 127
1, 14859, Note_on_c, 2, 62, 0
1, 14861, Note_on_c, 2, 59, 0
1, 14862, Note_on_c, 1, 31, 0
1, 14862, Note_on_c, 2, 55, 0
1, 14880, Note_on_c, 1, 31, 101
1, 14880, Note_on_c, 9, 42, 115
1, 14880, Note_on_c, 9, 38, 125
1, 14880, Lyric_t, "So "
1, 14881, Note_on_c, 0, 55, 0
1, 14881, Note_on_c, 0, 55, 127
1, 14881, Note_on_c, 2, 55, 71
1, 14881, Note_on_c, 2, 59, 73
1, 14881, Note_on_c, 2, 62, 73
1, 14883, Note_on_c, 0, 59, 0
1, 14884, Note_on_c, 9, 38, 0
1, 14884, Note_on_c, 9, 42, 0
1, 14884, Note_on_c, 0, 62, 0
1, 14884, Note_on_c, 0, 59, 127
1, 14885, Note_on_c, 0, 62, 127
1, 14886, Note_on_c, 0, 67, 0
1, 14887, Note_on_c, 0, 67, 127
1, 14891, Note_on_c, 0, 67, 0
1, 14892, Note_on_c, 0, 50, 0
1, 14892, Note_on_c, 0, 59, 0
1, 14894, Note_on_c, 0, 62, 0
1, 14899, Note_on_c, 1, 31, 0
1, 14899, Note_on_c, 0, 55, 0
1, 14900, Note_on_c, 2, 55, 0
1, 14926, Note_on_c, 4, 55, 0
1, 14933, Note_on_c, 2, 62, 0
1, 14936, Note_on_c, 4, 62, 0
1, 14937, Note_on_c, 2, 59, 0
1, 14940, Note_on_c, 0, 65, 127
1, 14942, Note_on_c, 4, 59, 0
1, 14942, Note_on_c, 0, 60, 127
1, 14944, Note_on_c, 0, 57, 127
1, 14944, Note_on_c, 1, 31, 96
1, 14944, Note_on_c, 9, 69, 75
1, 14944, Note_on_c, 9, 46, 105
1, 14946, Note_on_c, 0, 53, 127
1, 14948, Note_on_c, 9, 46, 0
1, 14948, Note_on_c, 9, 69, 0
1, 14956, Lyric_t, "if "
1, 14962, Note_on_c, 1, 31, 0
1, 14976, Note_on_c, 1, 29, 108
1, 14976, Note_on_c, 2, 57, 73
1, 14976, Note_on_c, 2, 65, 73
1, 14976, Note_on_c, 2, 60, 73
1, 14976, Note_on_c, 4, 60, 59
1, 14976, Note_on_c, 4, 57, 58
1, 14976, Note_on_c, 9, 35, 125
1, 14976, Note_on_c, 9, 42, 115
1, 14977, Note_on_c, 4, 65, 55
1, 14980, Note_on_c, 9, 42, 0
1, 14980, Note_on_c, 9, 35, 0
1, 15001, Lyric_t, "you "
1, 15008, Note_on_c, 9, 69, 75
1, 15012, Note_on_c, 9, 69, 0
1, 15019, Note_on_c, 1, 29, 0
1, 15032, Note_on_c, 0, 65, 0
1, 15033, Note_on_c, 0, 65, 127
1, 15035, Note_on_c, 0, 60, 0
1, 15036, Note_on_c, 0, 60, 127
1, 15038, Note_on_c, 0, 57, 0
1, 15038, Note_on_c, 0, 57, 127
1, 15040, Note_on_c, 1, 29, 101
1, 15040, Note_on_c, 9, 44, 125
1, 15040, Note_on_c, 9, 69, 75
1, 15044, Note_on_c, 9, 69, 0
1, 15044, Note_on_c, 9, 44, 0
1, 15055, Note_on_c, 2, 65, 0
1, 15055, Note_on_c, 1, 29, 0
1, 15055, Lyric_t, "get "
1, 15056, Note_on_c, 2, 57, 0
1, 15058, Note_on_c, 2, 60, 0
1, 15064, Note_on_c, 0, 53, 0
1, 15065, Note_on_c, 0, 53, 127
1, 15067, Note_on_c, 0, 57, 0
1, 15068, Note_on_c, 0, 57, 127
1, 15069, Note_on_c, 0, 60, 0
1, 15070, Note_on_c, 0, 60, 127
1, 15071, Note_on_c, 2, 60, 72
1, 15071, Note_on_c, 2, 65, 76
1, 15071, Note_on_c, 2, 57, 71
1, 15072, Note_on_c, 1, 29, 102
1, 15072, Note_on_c, 9, 38, 125
1, 15072, Note_on_c, 9, 42, 105
1, 15076, Note_on_c, 9, 42, 0
1, 15076, Note_on_c, 9, 38, 0
1, 15094, Note_on_c, 0, 65, 0
1, 15097, Note_on_c, 0, 60, 0
1, 15099, Note_on_c, 0, 57, 0
1, 15105, Note_on_c, 2, 57, 0
1, 15110, Note_on_c, 1, 29, 0
1, 15111, Note_on_c, 0, 53, 0
1, 15127, Note_on_c, 0, 64, 127
1, 15129, Note_on_c, 0, 60, 127
1, 15130, Note_on_c, 4, 65, 0
1, 15131, Note_on_c, 4, 57, 0
1, 15131, Note_on_c, 0, 55, 127
1, 15134, Note_on_c, 0, 52, 127
1, 15136, Note_on_c, 1, 29, 96
1, 15136, Note_on_c, 9, 44, 115
1, 15136, Note_on_c, 9, 69, 75
1, 15137, Note_on_c, 2, 65, 0
1, 15140, Note_on_c, 9, 69, 0
1, 15140, Note_on_c, 9, 44, 0
1, 15140, Note_on_c, 4, 60, 0
1, 15144, Lyric_t, "it "
1, 15147, Note_on_c, 2, 60, 0
1, 15154, Note_on_c, 1, 29, 0
1, 15167, Note_on_c, 4, 64, 53
1, 15167, Note_on_c, 4, 60, 51
1, 15167, Note_on_c, 4, 55, 54
1, 15168, Note_on_c, 1, 28, 107
1, 15168, Note_on_c, 2, 60, 70
1, 15168, Note_on_c, 2, 64, 71
1, 15168, Note_on_c, 9, 35, 125
1, 15168, Note_on_c, 9, 42, 115
1, 15169, Note_on_c, 2, 55, 65
1, 15172, Note_on_c, 9, 42, 0
1, 15172, Note_on_c, 9, 35, 0
1, 15181, Note_on_c, 2, 55, 0
1, 15184, Note_on_c, 2, 64, 0
1, 15184, Note_on_c, 2, 60, 0
1, 15200, Note_on_c, 9, 69, 75
1, 15204, Note_on_c, 9, 69, 0
1, 15204, Note_on_c, 1, 28, 0
1, 15227, Note_on_c, 0, 64, 0
1, 15227, Note_on_c, 0, 64, 127
1, 15229, Note_on_c, 0, 60, 0
1, 15230, Note_on_c, 0, 60, 127
1, 15231, Note_on_c, 1, 28, 103
1, 15231, Note_on_c, 2, 60, 73
1, 15231, Note_on_c, 2, 55, 74
1, 15231, Note_on_c, 2, 64, 74
1, 15232, Note_on_c, 9, 69, 75
1, 15232, Note_on_c, 9, 44, 125
1, 15233, Lyric_t, "wrong "
1, 15233, Lyric_t, "\015"
1, 15236, Note_on_c, 9, 44, 0
1, 15236, Note_on_c, 9, 69, 0
1, 15248, Note_on_c, 1, 28, 0
1, 15258, Note_on_c, 0, 52, 0
1, 15258, Note_on_c, 0, 52, 127
1, 15262, Note_on_c, 0, 55, 0
1, 15262, Note_on_c, 0, 55, 127
1, 15263, Note_on_c, 0, 60, 0
1, 15263, Note_on_c, 1, 28, 108
1, 15264, Note_on_c, 0, 64, 0
1, 15264, Note_on_c, 0, 60, 127
1, 15264, Note_on_c, 9, 42, 115
1, 15264, Note_on_c, 9, 38, 125
1, 15265, Note_on_c, 0, 64, 127
1, 15268, Note_on_c, 9, 38, 0
1, 15268, Note_on_c, 9, 42, 0
1, 15283, Note_on_c, 0, 52, 0
1, 15286, Note_on_c, 0, 60, 0
1, 15296, Note_on_c, 9, 69, 75
1, 15297, Note_on_c, 4, 55, 0
1, 15297, Note_on_c, 4, 64, 0
1, 15300, Note_on_c, 9, 69, 0
1, 15304, Note_on_c, 1, 28, 0
1, 15308, Note_on_c, 0, 55, 0
1, 15311, Note_on_c, 0, 64, 0
1, 15317, Note_on_c, 2, 64, 0
1, 15319, Note_on_c, 4, 60, 0
1, 15321, Note_on_c, 0, 65, 127
1, 15325, Note_on_c, 2, 55, 0
1, 15325, Note_on_c, 0, 57, 127
1, 15326, Note_on_c, 0, 60, 127
1, 15327, Note_on_c, 0, 53, 127
1, 15328, Note_on_c, 4, 57, 49
1, 15328, Note_on_c, 4, 60, 45
1, 15328, Note_on_c, 4, 65, 52
1, 15328, Note_on_c, 9, 46, 105
1, 15328, Note_on_c, 9, 69, 75
1, 15328, Lyric_t, "you\222ll "
1, 15329, Note_on_c, 1, 29, 98
1, 15332, Note_on_c, 9, 69, 0
1, 15332, Note_on_c, 9, 46, 0
1, 15342, Note_on_c, 2, 60, 0
1, 15346, Note_on_c, 1, 29, 0
1, 15357, Note_on_c, 0, 65, 0
1, 15357, Note_on_c, 0, 60, 0
1, 15360, Note_on_c, 2, 65, 72
1, 15360, Note_on_c, 2, 60, 72
1, 15360, Note_on_c, 2, 57, 72
1, 15360, Note_on_c, 9, 42, 115
1, 15360, Note_on_c, 9, 35, 125
1, 15361, Note_on_c, 0, 57, 0
1, 15361, Note_on_c, 1, 29, 105
1, 15364, Note_on_c, 9, 35, 0
1, 15364, Note_on_c, 9, 42, 0
1, 15366, Note_on_c, 0, 53, 0
1, 15369, Note_on_c, 4, 57, 0
1, 15372, Lyric_t, "get "
1, 15373, Note_on_c, 4, 65, 0
1, 15383, Note_on_c, 4, 60, 0
1, 15384, Note_on_c, 2, 65, 0
1, 15385, Note_on_c, 2, 57, 0
1, 15389, Note_on_c, 2, 60, 0
1, 15392, Note_on_c, 9, 69, 75
1, 15395, Note_on_c, 1, 29, 0
1, 15396, Note_on_c, 9, 69, 0
1, 15413, Lyric_t, "it "
1, 15415, Note_on_c, 0, 64, 127
1, 15417, Note_on_c, 0, 60, 127
1, 15420, Note_on_c, 0, 55, 127
1, 15421, Note_on_c, 0, 52, 127
1, 15423, Note_on_c, 2, 60, 71
1, 15423, Note_on_c, 2, 64, 74
1, 15424, Note_on_c, 1, 28, 103
1, 15424, Note_on_c, 2, 55, 72
1, 15424, Note_on_c, 4, 64, 54
1, 15424, Note_on_c, 4, 55, 51
1, 15424, Note_on_c, 4, 60, 48
1, 15424, Note_on_c, 9, 69, 75
1, 15424, Note_on_c, 9, 46, 115
1, 15424, Note_on_c, 9, 44, 125
1, 15428, Note_on_c, 9, 44, 0
1, 15428, Note_on_c, 9, 46, 0
1, 15428, Note_on_c, 9, 69, 0
1, 15440, Note_on_c, 1, 28, 0
1, 15445, Note_on_c, 0, 64, 0
1, 15447, Note_on_c, 0, 52, 0
1, 15447, Note_on_c, 0, 60, 0
1, 15456, Note_on_c, 0, 55, 0
1, 15456, Note_on_c, 0, 59, 118
1, 15456, Note_on_c, 9, 42, 105
1, 15456, Note_on_c, 9, 38, 125
1, 15458, Note_on_c, 0, 64, 115
1, 15459, Note_on_c, 2, 64, 0
1, 15460, Note_on_c, 9, 38, 0
1, 15460, Note_on_c, 9, 42, 0
1, 15460, Note_on_c, 2, 60, 0
1, 15460, Note_on_c, 0, 59, 0
1, 15461, Note_on_c, 2, 55, 0
1, 15461, Note_on_c, 0, 64, 0
1, 15464, Lyric_t, "right "
1, 15473, Note_on_c, 4, 64, 0
1, 15475, Note_on_c, 4, 60, 0
1, 15475, Note_on_c, 4, 55, 0
1, 15512, Note_on_c, 0, 67, 127
1, 15514, Note_on_c, 0, 62, 127
1, 15515, Note_on_c, 0, 59, 127
1, 15518, Note_on_c, 0, 55, 127
1, 15518, Note_on_c, 2, 55, 76
1, 15518, Note_on_c, 2, 59, 77
1, 15518, Note_on_c, 2, 62, 76
1, 15519, Note_on_c, 0, 50, 127
1, 15520, Note_on_c, 4, 59, 57
1, 15520, Note_on_c, 4, 62, 53
1, 15520, Note_on_c, 4, 55, 53
1, 15520, Note_on_c, 9, 44, 115
1, 15520, Note_on_c, 9, 46, 115
1, 15520, Note_on_c, 9, 69, 75
1, 15521, Note_on_c, 1, 31, 91
1, 15524, Note_on_c, 9, 69, 0
1, 15524, Note_on_c, 9, 46, 0
1, 15524, Note_on_c, 9, 44, 0
1, 15534, Lyric_t, "next "
1, 15552, Note_on_c, 9, 35, 125
1, 15552, Note_on_c, 9, 42, 115
1, 15556, Note_on_c, 9, 42, 0
1, 15556, Note_on_c, 9, 35, 0
1, 15574, Note_on_c, 1, 31, 0
1, 15584, Note_on_c, 9, 69, 75
1, 15588, Note_on_c, 9, 69, 0
1, 15592, Note_on_c, 2, 55, 0
1, 15592, Note_on_c, 0, 50, 0
1, 15593, Note_on_c, 0, 55, 0
1, 15609, Note_on_c, 0, 59, 0
1, 15614, Lyric_t, "time "
1, 15616, Note_on_c, 1, 31, 103
1, 15616, Note_on_c, 9, 44, 125
1, 15620, Note_on_c, 9, 44, 0
1, 15621, Note_on_c, 4, 62, 0
1, 15622, Note_on_c, 4, 55, 0
1, 15624, Note_on_c, 4, 59, 0
1, 15632, Note_on_c, 1, 31, 0
1, 15632, Note_on_c, 2, 62, 0
1, 15634, Note_on_c, 2, 59, 0
1, 15634, Note_on_c, 0, 62, 0
1, 15643, Note_on_c, 0, 67, 0
1, 15645, Note_on_c, 0, 55, 127
1, 15648, Note_on_c, 4, 55, 55
1, 15648, Note_on_c, 6, 72, 106
1, 15648, Note_on_c, 6, 67, 108
1, 15648, Note_on_c, 9, 42, 115
1, 15648, Note_on_c, 9, 38, 125
1, 15649, Note_on_c, 0, 64, 127
1, 15649, Note_on_c, 1, 31, 105
1, 15649, Note_on_c, 2, 60, 69
1, 15649, Note_on_c, 2, 55, 68
1, 15649, Note_on_c, 2, 64, 69
1, 15649, Note_on_c, 4, 64, 50
1, 15649, Note_on_c, 4, 62, 48
1, 15649, Note_on_c, 4, 60, 54
1, 15650, Note_on_c, 0, 60, 127
1, 15652, Note_on_c, 9, 38, 0
1, 15652, Note_on_c, 9, 42, 0
1, 15662, Note_on_c, 2, 64, 0
1, 15662, Note_on_c, 2, 55, 0
1, 15662, Note_on_c, 2, 60, 0
1, 15671, Note_on_c, 0, 64, 0
1, 15681, Note_on_c, 4, 62, 0
1, 15682, Note_on_c, 0, 60, 0
1, 15686, Note_on_c, 6, 72, 0
1, 15687, Note_on_c, 4, 64, 0
1, 15688, Note_on_c, 4, 55, 0
1, 15692, Note_on_c, 6, 67, 0
1, 15692, Note_on_c, 4, 60, 0
1, 15693, Note_on_c, 1, 31, 0
1, 15707, Note_on_c, 0, 67, 127
1, 15709, Note_on_c, 0, 62, 127
1, 15709, Note_on_c, 6, 67, 104
1, 15710, Note_on_c, 0, 55, 0
1, 15710, Note_on_c, 6, 71, 108
1, 15711, Note_on_c, 0, 59, 127
1, 15711, Note_on_c, 2, 62, 75
1, 15711, Note_on_c, 2, 59, 77
1, 15712, Note_on_c, 0, 55, 127
1, 15712, Note_on_c, 2, 55, 76
1, 15712, Note_on_c, 4, 55, 61
1, 15712, Note_on_c, 9, 69, 75
1, 15712, Note_on_c, 9, 46, 105
1, 15713, Note_on_c, 1, 31, 97
1, 15714, Note_on_c, 0, 50, 127
1, 15716, Note_on_c, 9, 46, 0
1, 15716, Note_on_c, 9, 69, 0
1, 15734, Note_on_c, 6, 67, 0
1, 15735, Note_on_c, 6, 71, 0
1, 15740, Note_on_c, 0, 59, 0
1, 15741, Note_on_c, 0, 62, 0
1, 15742, Note_on_c, 0, 67, 0
1, 15742, Note_on_c, 0, 50, 0
1, 15743, Note_on_c, 1, 31, 0
1, 15744, Note_on_c, 2, 55, 0
1, 15744, Note_on_c, 1, 31, 107
1, 15744, Note_on_c, 2, 53, 74
1, 15744, Note_on_c, 6, 62, 55
1, 15744, Note_on_c, 9, 35, 125
1, 15744, Note_on_c, 9, 42, 115
1, 15744, Lyric_t, "(next "
1, 15746, Note_on_c, 2, 62, 0
1, 15747, Note_on_c, 2, 59, 0
1, 15748, Note_on_c, 9, 35, 0
1, 15748, Note_on_c, 9, 42, 0
1, 15749, Note_on_c, 0, 55, 0
1, 15751, Note_on_c, 2, 53, 0
1, 15776, Note_on_c, 9, 69, 75
1, 15780, Note_on_c, 9, 69, 0
1, 15785, Note_on_c, 1, 31, 0
1, 15804, Lyric_t, "time). "
1, 15804, Lyric_t, "\015"
1, 15804, Lyric_t, "\012"
1, 15807, Note_on_c, 2, 53, 85
1, 15807, Note_on_c, 3, 53, 75
1, 15808, Note_on_c, 2, 50, 80
1, 15808, Note_on_c, 2, 58, 79
1, 15808, Note_on_c, 2, 62, 77
1, 15808, Note_on_c, 9, 69, 75
1, 15808, Note_on_c, 9, 44, 125
1, 15809, Note_on_c, 1, 31, 105
1, 15812, Note_on_c, 9, 44, 0
1, 15812, Note_on_c, 9, 69, 0
1, 15824, Note_on_c, 1, 31, 0
1, 15840, Note_on_c, 9, 42, 105
1, 15840, Note_on_c, 9, 38, 125
1, 15841, Note_on_c, 9, 59, 96
1, 15844, Note_on_c, 9, 38, 0
1, 15844, Note_on_c, 9, 42, 0
1, 15845, Note_on_c, 9, 59, 0
1, 15855, Note_on_c, 1, 31, 101
1, 15882, Note_on_c, 1, 31, 0
1, 15904, Note_on_c, 9, 44, 115
1, 15904, Note_on_c, 9, 69, 75
1, 15905, Note_on_c, 1, 31, 98
1, 15908, Note_on_c, 9, 69, 0
1, 15908, Note_on_c, 9, 44, 0
1, 15920, Note_on_c, 1, 31, 0
1, 15928, Note_on_c, 2, 58, 0
1, 15931, Note_on_c, 2, 62, 0
1, 15936, Note_on_c, 6, 62, 0
1, 15936, Note_on_c, 2, 53, 0
1, 15936, Note_on_c, 2, 61, 73
1, 15936, Note_on_c, 6, 61, 59
1, 15936, Note_on_c, 9, 35, 125
1, 15936, Note_on_c, 9, 42, 115
1, 15937, Note_on_c, 2, 50, 0
1, 15937, Note_on_c, 1, 31, 103
1, 15937, Note_on_c, 2, 57, 73
1, 15937, Note_on_c, 2, 49, 78
1, 15938, Note_on_c, 3, 53, 0
1, 15938, Note_on_c, 2, 52, 77
1, 15938, Note_on_c, 3, 52, 64
1, 15940, Note_on_c, 9, 42, 0
1, 15940, Note_on_c, 9, 35, 0
1, 15953, Note_on_c, 2, 49, 0
1, 15957, Note_on_c, 2, 61, 0
1, 15958, Note_on_c, 2, 57, 0
1, 15962, Note_on_c, 2, 52, 0
1, 15966, Note_on_c, 1, 31, 0
1, 15968, Note_on_c, 9, 69, 75
1, 15972, Note_on_c, 9, 69, 0
1, 15998, Note_on_c, 2, 49, 78
1, 15999, Note_on_c, 2, 57, 76
1, 15999, Note_on_c, 2, 61, 77
1, 16000, Note_on_c, 1, 31, 98
1, 16000, Note_on_c, 2, 52, 78
1, 16000, Note_on_c, 9, 44, 125
1, 16000, Note_on_c, 9, 69, 75
1, 16004, Note_on_c, 9, 69, 0
1, 16004, Note_on_c, 9, 44, 0
1, 16016, Note_on_c, 1, 31, 0
1, 16032, Note_on_c, 1, 31, 104
1, 16032, Note_on_c, 9, 38, 125
1, 16032, Note_on_c, 9, 42, 115
1, 16036, Note_on_c, 9, 42, 0
1, 16036, Note_on_c, 9, 38, 0
1, 16064, Note_on_c, 9, 69, 75
1, 16068, Note_on_c, 9, 69, 0
1, 16073, Note_on_c, 1, 31, 0
1, 16096, Note_on_c, 1, 31, 102
1, 16096, Note_on_c, 9, 44, 115
1, 16096, Note_on_c, 9, 69, 75
1, 16100, Note_on_c, 9, 69, 0
1, 16100, Note_on_c, 9, 44, 0
1, 16114, Note_on_c, 2, 57, 0
1, 16114, Note_on_c, 1, 31, 0
1, 16115, Note_on_c, 3, 52, 0
1, 16116, Note_on_c, 2, 61, 0
1, 16126, Note_on_c, 2, 52, 0
1, 16128, Note_on_c, 6, 61, 0
1, 16128, Note_on_c, 1, 31, 104
1, 16128, Note_on_c, 3, 53, 75
1, 16128, Note_on_c, 6, 60, 50
1, 16128, Note_on_c, 8, 60, 105
1, 16128, Note_on_c, 9, 35, 125
1, 16128, Note_on_c, 9, 42, 115
1, 16128, Note_on_c, 9, 59, 77
1, 16129, Note_on_c, 2, 57, 73
1, 16129, Note_on_c, 2, 48, 78
1, 16129, Note_on_c, 2, 53, 79
1, 16129, Note_on_c, 2, 60, 72
1, 16132, Note_on_c, 9, 59, 0
1, 16132, Note_on_c, 9, 42, 0
1, 16132, Note_on_c, 9, 35, 0
1, 16135, Pitch_bend_c, 8, 8453
1, 16136, Note_on_c, 2, 49, 0
1, 16140, Pitch_bend_c, 8, 8879
1, 16143, Pitch_bend_c, 8, 9004
1, 16147, Pitch_bend_c, 8, 9268
1, 16152, Note_on_c, 2, 53, 0
1, 16152, Note_on_c, 2, 60, 0
1, 16153, Note_on_c, 2, 57, 0
1, 16154, Note_on_c, 8, 60, 0
1, 16154, Note_on_c, 2, 48, 0
1, 16160, Pitch_bend_c, 8, 8161
1, 16160, Note_on_c, 9, 69, 75
1, 16163, Note_on_c, 8, 62, 84
1, 16164, Note_on_c, 9, 69, 0
1, 16169, Note_on_c, 1, 31, 0
1, 16169, Pitch_bend_c, 8, 8226
1, 16186, Note_on_c, 8, 62, 0
1, 16192, Note_on_c, 1, 31, 96
1, 16192, Note_on_c, 2, 53, 78
1, 16192, Note_on_c, 2, 60, 73
1, 16192, Note_on_c, 2, 57, 74
1, 16192, Note_on_c, 2, 48, 78
1, 16192, Note_on_c, 9, 69, 75
1, 16192, Note_on_c, 9, 44, 125
1, 16192, Note_on_c, 9, 59, 88
1, 16193, Pitch_bend_c, 8, 8223
1, 16194, Note_on_c, 8, 67, 84
1, 16196, Note_on_c, 9, 59, 0
1, 16196, Note_on_c, 9, 44, 0
1, 16196, Note_on_c, 9, 69, 0
1, 16205, Note_on_c, 1, 31, 0
1, 16221, Note_on_c, 8, 67, 0
1, 16224, Note_on_c, 1, 31, 105
1, 16224, Note_on_c, 9, 42, 105
1, 16224, Note_on_c, 9, 38, 125
1, 16226, Pitch_bend_c, 8, 8319
1, 16227, Note_on_c, 8, 60, 83
1, 16228, Note_on_c, 9, 38, 0
1, 16228, Note_on_c, 9, 42, 0
1, 16233, Pitch_bend_c, 8, 8367
1, 16237, Pitch_bend_c, 8, 8666
1, 16241, Pitch_bend_c, 8, 8847
1, 16253, Pitch_bend_c, 8, 8754
1, 16256, Pitch_bend_c, 8, 8255
1, 16265, Pitch_bend_c, 8, 8213
1, 16266, Note_on_c, 2, 53, 0
1, 16267, Note_on_c, 1, 31, 0
1, 16268, Note_on_c, 2, 60, 0
1, 16270, Note_on_c, 2, 57, 0
1, 16278, Note_on_c, 3, 53, 0
1, 16284, Note_on_c, 2, 48, 0
1, 16285, Pitch_bend_c, 8, 8338
1, 16287, Note_on_c, 6, 60, 0
1, 16287, Note_on_c, 2, 55, 80
1, 16287, Note_on_c, 6, 59, 58
1, 16288, Note_on_c, 1, 31, 100
1, 16288, Note_on_c, 2, 50, 78
1, 16288, Note_on_c, 3, 50, 62
1, 16288, Note_on_c, 9, 44, 115
1, 16288, Note_on_c, 9, 69, 75
1, 16288, Note_on_c, 9, 59, 95
1, 16289, Note_on_c, 2, 59, 74
1, 16290, Pitch_bend_c, 8, 6924
1, 16292, Note_on_c, 9, 59, 0
1, 16292, Note_on_c, 9, 69, 0
1, 16292, Note_on_c, 9, 44, 0
1, 16304, Note_on_c, 1, 31, 0
1, 16305, Pitch_bend_c, 8, 6903
1, 16316, Pitch_bend_c, 8, 6871
1, 16320, Note_on_c, 1, 31, 105
1, 16320, Note_on_c, 9, 35, 125
1, 16320, Note_on_c, 9, 42, 115
1, 16324, Note_on_c, 9, 42, 0
1, 16324, Note_on_c, 9, 35, 0
1, 16327, Pitch_bend_c, 8, 6924
1, 16340, Pitch_bend_c, 8, 6831
1, 16349, Note_on_c, 8, 60, 0
1, 16352, Note_on_c, 9, 69, 75
1, 16356, Note_on_c, 9, 69, 0
1, 16361, Note_on_c, 1, 31, 0
1, 16384, Note_on_c, 1, 31, 98
1, 16384, Note_on_c, 9, 44, 125
1, 16384, Note_on_c, 9, 51, 95
1, 16388, Note_on_c, 9, 51, 0
1, 16388, Note_on_c, 9, 44, 0
1, 16398, Note_on_c, 1, 31, 0
1, 16402, Note_on_c, 3, 50, 0
1, 16416, Note_on_c, 1, 31, 104
1, 16416, Note_on_c, 3, 53, 94
1, 16416, Note_on_c, 9, 38, 125
1, 16416, Note_on_c, 9, 42, 115
1, 16417, Note_on_c, 9, 59, 102
1, 16420, Note_on_c, 9, 42, 0
1, 16420, Note_on_c, 9, 38, 0
1, 16421, Note_on_c, 9, 59, 0
1, 16452, Note_on_c, 1, 31, 0
1, 16480, Note_on_c, 3, 53, 0
1, 16480, Note_on_c, 1, 31, 106
1, 16480, Note_on_c, 3, 55, 75
1, 16480, Note_on_c, 9, 69, 75
1, 16480, Note_on_c, 9, 44, 115
1, 16481, Note_on_c, 9, 59, 89
1, 16482, Note_on_c, 2, 50, 0
1, 16484, Note_on_c, 9, 44, 0
1, 16484, Note_on_c, 9, 69, 0
1, 16485, Note_on_c, 9, 59, 0
1, 16486, Note_on_c, 2, 55, 0
1, 16497, Note_on_c, 2, 59, 0
1, 16499, Note_on_c, 1, 31, 0
1, 16506, Note_on_c, 6, 59, 0
1, 16512, Note_on_c, 1, 31, 106
1, 16512, Note_on_c, 2, 53, 74
1, 16512, Note_on_c, 6, 62, 62
1, 16512, Note_on_c, 9, 42, 115
1, 16512, Note_on_c, 9, 35, 125
1, 16516, Note_on_c, 9, 35, 0
1, 16516, Note_on_c, 9, 42, 0
1, 16519, Note_on_c, 2, 53, 0
1, 16520, Note_on_c, 3, 55, 0
1, 16544, Note_on_c, 9, 69, 75
1, 16548, Note_on_c, 9, 69, 0
1, 16553, Note_on_c, 1, 31, 0
1, 16575, Note_on_c, 2, 53, 85
1, 16575, Note_on_c, 3, 53, 79
1, 16576, Note_on_c, 1, 31, 98
1, 16576, Note_on_c, 2, 62, 77
1, 16576, Note_on_c, 2, 50, 80
1, 16576, Note_on_c, 2, 58, 79
1, 16576, Note_on_c, 9, 44, 125
1, 16576, Note_on_c, 9, 69, 75
1, 16577, Note_on_c, 9, 59, 74
1, 16580, Note_on_c, 9, 69, 0
1, 16580, Note_on_c, 9, 44, 0
1, 16581, Note_on_c, 9, 59, 0
1, 16591, Note_on_c, 1, 31, 0
1, 16608, Note_on_c, 1, 31, 103
1, 16608, Note_on_c, 9, 38, 125
1, 16608, Note_on_c, 9, 42, 105
1, 16612, Note_on_c, 9, 42, 0
1, 16612, Note_on_c, 9, 38, 0
1, 16652, Note_on_c, 1, 31, 0
1, 16672, Note_on_c, 1, 31, 102
1, 16672, Note_on_c, 9, 69, 75
1, 16672, Note_on_c, 9, 44, 115
1, 16676, Note_on_c, 9, 44, 0
1, 16676, Note_on_c, 9, 69, 0
1, 16686, Note_on_c, 1, 31, 0
1, 16696, Note_on_c, 2, 58, 0
1, 16699, Note_on_c, 2, 62, 0
1, 16704, Note_on_c, 2, 53, 0
1, 16704, Note_on_c, 6, 62, 0
1, 16704, Note_on_c, 1, 31, 104
1, 16704, Note_on_c, 2, 61, 73
1, 16704, Note_on_c, 6, 61, 63
1, 16704, Note_on_c, 9, 42, 115
1, 16704, Note_on_c, 9, 35, 125
1, 16705, Note_on_c, 2, 50, 0
1, 16705, Note_on_c, 3, 53, 0
1, 16705, Note_on_c, 2, 57, 73
1, 16705, Note_on_c, 2, 49, 78
1, 16705, Note_on_c, 3, 52, 62
1, 16706, Note_on_c, 2, 52, 77
1, 16708, Note_on_c, 9, 35, 0
1, 16708, Note_on_c, 9, 42, 0
1, 16721, Note_on_c, 2, 49, 0
1, 16725, Note_on_c, 2, 61, 0
1, 16726, Note_on_c, 2, 57, 0
1, 16730, Note_on_c, 2, 52, 0
1, 16736, Note_on_c, 9, 69, 75
1, 16740, Note_on_c, 9, 69, 0
1, 16747, Note_on_c, 1, 31, 0
1, 16766, Note_on_c, 2, 49, 78
1, 16767, Note_on_c, 2, 57, 76
1, 16767, Note_on_c, 2, 61, 77
1, 16768, Note_on_c, 2, 52, 78
1, 16768, Note_on_c, 9, 44, 125
1, 16768, Note_on_c, 9, 69, 75
1, 16769, Note_on_c, 1, 31, 98
1, 16772, Note_on_c, 9, 69, 0
1, 16772, Note_on_c, 9, 44, 0
1, 16781, Note_on_c, 1, 31, 0
1, 16800, Note_on_c, 9, 38, 125
1, 16800, Note_on_c, 9, 42, 115
1, 16801, Note_on_c, 1, 31, 101
1, 16804, Note_on_c, 9, 42, 0
1, 16804, Note_on_c, 9, 38, 0
1, 16832, Note_on_c, 9, 69, 75
1, 16836, Note_on_c, 9, 69, 0
1, 16843, Note_on_c, 1, 31, 0
1, 16864, Note_on_c, 1, 31, 96
1, 16864, Note_on_c, 9, 44, 115
1, 16864, Note_on_c, 9, 69, 75
1, 16868, Note_on_c, 9, 69, 0
1, 16868, Note_on_c, 9, 44, 0
1, 16877, Note_on_c, 1, 31, 0
1, 16882, Note_on_c, 2, 57, 0
1, 16884, Note_on_c, 3, 52, 0
1, 16884, Note_on_c, 2, 61, 0
1, 16893, Pitch_bend_c, 8, 8192
1, 16894, Note_on_c, 2, 52, 0
1, 16896, Note_on_c, 1, 31, 108
1, 16896, Note_on_c, 3, 48, 62
1, 16896, Note_on_c, 8, 67, 98
1, 16896, Note_on_c, 9, 35, 125
1, 16896, Note_on_c, 9, 42, 115
1, 16897, Note_on_c, 6, 61, 0
1, 16897, Note_on_c, 2, 57, 73
1, 16897, Note_on_c, 2, 48, 78
1, 16897, Note_on_c, 2, 53, 79
1, 16897, Note_on_c, 2, 60, 72
1, 16897, Note_on_c, 6, 60, 56
1, 16899, Note_on_c, 9, 59, 60
1, 16900, Note_on_c, 9, 42, 0
1, 16900, Note_on_c, 9, 35, 0
1, 16903, Note_on_c, 9, 59, 0
1, 16904, Note_on_c, 2, 49, 0
1, 16917, Pitch_bend_c, 8, 8285
1, 16919, Note_on_c, 8, 67, 0
1, 16920, Note_on_c, 2, 53, 0
1, 16920, Note_on_c, 2, 60, 0
1, 16921, Note_on_c, 2, 57, 0
1, 16922, Note_on_c, 2, 48, 0
1, 16928, Note_on_c, 9, 69, 75
1, 16932, Note_on_c, 9, 69, 0
1, 16938, Note_on_c, 1, 31, 0
1, 16960, Note_on_c, 1, 31, 97
1, 16960, Note_on_c, 2, 60, 73
1, 16960, Note_on_c, 2, 53, 78
1, 16960, Note_on_c, 2, 48, 78
1, 16960, Note_on_c, 2, 57, 74
1, 16960, Note_on_c, 9, 69, 75
1, 16960, Note_on_c, 9, 44, 125
1, 16964, Note_on_c, 9, 44, 0
1, 16964, Note_on_c, 9, 69, 0
1, 16972, Note_on_c, 1, 31, 0
1, 16989, Pitch_bend_c, 8, 8205
1, 16990, Note_on_c, 8, 70, 93
1, 16992, Note_on_c, 1, 31, 107
1, 16992, Note_on_c, 9, 38, 125
1, 16992, Note_on_c, 9, 42, 105
1, 16996, Note_on_c, 9, 42, 0
1, 16996, Note_on_c, 9, 38, 0
1, 17031, Note_on_c, 8, 70, 0
1, 17034, Note_on_c, 2, 53, 0
1, 17036, Note_on_c, 2, 60, 0
1, 17038, Note_on_c, 2, 57, 0
1, 17039, Note_on_c, 1, 31, 0
1, 17040, Note_on_c, 6, 60, 0
1, 17052, Note_on_c, 2, 48, 0
1, 17052, Note_on_c, 3, 48, 0
1, 17055, Note_on_c, 2, 55, 80
1, 17055, Note_on_c, 6, 59, 53
1, 17056, Note_on_c, 1, 31, 97
1, 17056, Note_on_c, 2, 50, 78
1, 17056, Note_on_c, 3, 50, 75
1, 17056, Note_on_c, 9, 69, 75
1, 17056, Note_on_c, 9, 44, 115
1, 17057, Note_on_c, 2, 59, 74
1, 17057, Note_on_c, 9, 51, 84
1, 17060, Note_on_c, 9, 44, 0
1, 17060, Note_on_c, 9, 69, 0
1, 17061, Note_on_c, 9, 51, 0
1, 17070, Note_on_c, 1, 31, 0
1, 17088, Note_on_c, 1, 31, 107
1, 17088, Note_on_c, 9, 42, 115
1, 17088, Note_on_c, 9, 35, 125
1, 17089, Note_on_c, 9, 59, 89
1, 17092, Note_on_c, 9, 35, 0
1, 17092, Note_on_c, 9, 42, 0
1, 17093, Note_on_c, 9, 59, 0
1, 17093, Note_on_c, 8, 74, 60
1, 17120, Note_on_c, 8, 74, 0
1, 17120, Note_on_c, 9, 69, 75
1, 17122, Note_on_c, 9, 51, 78
1, 17124, Note_on_c, 9, 69, 0
1, 17126, Note_on_c, 9, 51, 0
1, 17132, Note_on_c, 1, 31, 0
1, 17152, Note_on_c, 9, 44, 125
1, 17153, Note_on_c, 1, 31, 90
1, 17155, Note_on_c, 9, 59, 77
1, 17156, Note_on_c, 9, 44, 0
1, 17159, Note_on_c, 9, 59, 0
1, 17162, Note_on_c, 1, 31, 0
1, 17184, Note_on_c, 1, 31, 104
1, 17184, Note_on_c, 8, 77, 71
1, 17184, Note_on_c, 9, 38, 125
1, 17184, Note_on_c, 9, 42, 115
1, 17185, Note_on_c, 3, 50, 0
1, 17185, Note_on_c, 3, 53, 87
1, 17188, Note_on_c, 9, 42, 0
1, 17188, Note_on_c, 9, 38, 0
1, 17207, Note_on_c, 8, 77, 0
1, 17225, Note_on_c, 1, 31, 0
1, 17246, Note_on_c, 3, 53, 0
1, 17248, Note_on_c, 1, 31, 85
1, 17248, Note_on_c, 3, 55, 75
1, 17248, Note_on_c, 9, 69, 75
1, 17248, Note_on_c, 9, 44, 115
1, 17250, Note_on_c, 2, 50, 0
1, 17252, Note_on_c, 9, 44, 0
1, 17252, Note_on_c, 9, 69, 0
1, 17254, Note_on_c, 2, 55, 0
1, 17256, Note_on_c, 1, 31, 0
1, 17260, Note_on_c, 8, 79, 117
1, 17265, Note_on_c, 2, 59, 0
1, 17269, Note_on_c, 6, 59, 0
1, 17272, Pitch_bend_c, 8, 8099
1, 17279, Note_on_c, 1, 31, 104
1, 17280, Note_on_c, 2, 53, 74
1, 17280, Note_on_c, 6, 62, 60
1, 17280, Note_on_c, 9, 42, 115
1, 17280, Note_on_c, 9, 59, 73
1, 17280, Note_on_c, 9, 35, 125
1, 17284, Note_on_c, 9, 35, 0
1, 17284, Note_on_c, 9, 59, 0
1, 17284, Note_on_c, 9, 42, 0
1, 17287, Note_on_c, 3, 55, 0
1, 17287, Note_on_c, 2, 53, 0
1, 17292, Pitch_bend_c, 8, 8003
1, 17300, Pitch_bend_c, 8, 7684
1, 17303, Pitch_bend_c, 8, 7391
1, 17306, Pitch_bend_c, 8, 7233
1, 17312, Note_on_c, 9, 69, 75
1, 17313, Pitch_bend_c, 8, 7257
1, 17316, Note_on_c, 9, 69, 0
1, 17318, Pitch_bend_c, 8, 7481
1, 17324, Pitch_bend_c, 8, 7684
1, 17330, Pitch_bend_c, 8, 7804
1, 17334, Note_on_c, 1, 31, 0
1, 17336, Pitch_bend_c, 8, 7899
1, 17342, Pitch_bend_c, 8, 8083
1, 17343, Note_on_c, 2, 53, 85
1, 17344, Note_on_c, 2, 58, 79
1, 17344, Note_on_c, 2, 62, 77
1, 17344, Note_on_c, 2, 50, 80
1, 17344, Note_on_c, 3, 53, 79
1, 17344, Note_on_c, 9, 69, 75
1, 17344, Note_on_c, 9, 44, 125
1, 17346, Note_on_c, 1, 31, 93
1, 17348, Note_on_c, 9, 44, 0
1, 17348, Note_on_c, 9, 69, 0
1, 17350, Pitch_bend_c, 8, 8134
1, 17357, Note_on_c, 1, 31, 0
1, 17358, Pitch_bend_c, 8, 7873
1, 17366, Pitch_bend_c, 8, 7899
1, 17370, Pitch_bend_c, 8, 8107
1, 17373, Pitch_bend_c, 8, 8338
1, 17376, Note_on_c, 1, 31, 107
1, 17376, Note_on_c, 9, 59, 89
1, 17376, Note_on_c, 9, 38, 125
1, 17376, Note_on_c, 9, 42, 105
1, 17380, Note_on_c, 9, 42, 0
1, 17380, Note_on_c, 9, 59, 0
1, 17380, Note_on_c, 9, 38, 0
1, 17385, Pitch_bend_c, 8, 8311
1, 17388, Pitch_bend_c, 8, 8205
1, 17391, Pitch_bend_c, 8, 7969
1, 17400, Pitch_bend_c, 8, 8197
1, 17406, Pitch_bend_c, 8, 8239
1, 17415, Pitch_bend_c, 8, 8231
1, 17417, Pitch_bend_c, 8, 7934
1, 17419, Note_on_c, 1, 31, 0
1, 17424, Pitch_bend_c, 8, 7950
1, 17426, Pitch_bend_c, 8, 8205
1, 17437, Pitch_bend_c, 8, 8231
1, 17440, Note_on_c, 1, 31, 98
1, 17440, Note_on_c, 9, 44, 115
1, 17440, Note_on_c, 9, 69, 75
1, 17444, Note_on_c, 9, 69, 0
1, 17444, Note_on_c, 9, 44, 0
1, 17445, Pitch_bend_c, 8, 8197
1, 17449, Pitch_bend_c, 8, 7985
1, 17454, Note_on_c, 1, 31, 0
1, 17459, Pitch_bend_c, 8, 8239
1, 17464, Note_on_c, 2, 58, 0
1, 17467, Note_on_c, 2, 62, 0
1, 17468, Pitch_bend_c, 8, 8258
1, 17469, Note_on_c, 3, 53, 0
1, 17471, Note_on_c, 1, 31, 108
1, 17472, Note_on_c, 2, 53, 0
1, 17472, Note_on_c, 6, 62, 0
1, 17472, Note_on_c, 2, 61, 73
1, 17472, Note_on_c, 3, 52, 60
1, 17472, Note_on_c, 6, 61, 63
1, 17472, Note_on_c, 9, 42, 115
1, 17472, Note_on_c, 9, 35, 125
1, 17473, Note_on_c, 2, 50, 0
1, 17473, Note_on_c, 2, 57, 73
1, 17473, Note_on_c, 2, 49, 78
1, 17474, Note_on_c, 2, 52, 77
1, 17475, Pitch_bend_c, 8, 7548
1, 17476, Note_on_c, 9, 35, 0
1, 17476, Note_on_c, 9, 42, 0
1, 17486, Pitch_bend_c, 8, 7598
1, 17489, Note_on_c, 2, 49, 0
1, 17491, Pitch_bend_c, 8, 7796
1, 17493, Note_on_c, 2, 61, 0
1, 17494, Note_on_c, 2, 57, 0
1, 17495, Pitch_bend_c, 8, 8003
1, 17498, Note_on_c, 2, 52, 0
1, 17500, Pitch_bend_c, 8, 8213
1, 17504, Note_on_c, 9, 69, 75
1, 17508, Note_on_c, 9, 69, 0
1, 17513, Note_on_c, 8, 79, 0
1, 17521, Note_on_c, 1, 31, 0
1, 17534, Note_on_c, 2, 49, 78
1, 17535, Note_on_c, 2, 57, 76
1, 17535, Note_on_c, 2, 61, 77
1, 17536, Note_on_c, 2, 52, 78
1, 17536, Note_on_c, 9, 44, 125
1, 17537, Note_on_c, 1, 31, 92
1, 17540, Note_on_c, 9, 44, 0
1, 17547, Note_on_c, 1, 31, 0
1, 17567, Note_on_c, 1, 31, 104
1, 17568, Note_on_c, 9, 38, 125
1, 17568, Note_on_c, 9, 42, 115
1, 17572, Note_on_c, 9, 42, 0
1, 17572, Note_on_c, 9, 38, 0
1, 17615, Note_on_c, 1, 31, 0
1, 17632, Note_on_c, 9, 69, 75
1, 17632, Note_on_c, 9, 44, 115
1, 17633, Note_on_c, 1, 31, 100
1, 17636, Note_on_c, 9, 44, 0
1, 17636, Note_on_c, 9, 69, 0
1, 17645, Note_on_c, 3, 52, 0
1, 17645, Note_on_c, 1, 31, 0
1, 17650, Note_on_c, 2, 57, 0
1, 17652, Note_on_c, 2, 61, 0
1, 17662, Note_on_c, 2, 52, 0
1, 17664, Note_on_c, 6, 61, 0
1, 17664, Note_on_c, 1, 31, 105
1, 17664, Note_on_c, 3, 48, 65
1, 17664, Note_on_c, 6, 60, 59
1, 17664, Note_on_c, 9, 35, 125
1, 17664, Note_on_c, 9, 42, 115
1, 17665, Note_on_c, 2, 57, 73
1, 17665, Note_on_c, 2, 48, 78
1, 17665, Note_on_c, 2, 60, 72
1, 17665, Note_on_c, 2, 53, 79
1, 17668, Note_on_c, 9, 42, 0
1, 17668, Note_on_c, 9, 35, 0
1, 17669, Note_on_c, 8, 73, 93
1, 17670, Pitch_bend_c, 8, 8477
1, 17672, Note_on_c, 2, 49, 0
1, 17681, Pitch_bend_c, 8, 8413
1, 17688, Note_on_c, 2, 53, 0
1, 17688, Note_on_c, 2, 60, 0
1, 17689, Note_on_c, 2, 57, 0
1, 17689, Pitch_bend_c, 8, 8285
1, 17690, Note_on_c, 2, 48, 0
1, 17696, Pitch_bend_c, 8, 8153
1, 17696, Note_on_c, 9, 69, 75
1, 17700, Note_on_c, 9, 69, 0
1, 17704, Pitch_bend_c, 8, 7974
1, 17707, Note_on_c, 1, 31, 0
1, 17711, Pitch_bend_c, 8, 7833
1, 17718, Pitch_bend_c, 8, 7785
1, 17722, Pitch_bend_c, 8, 7585
1, 17728, Note_on_c, 2, 53, 78
1, 17728, Note_on_c, 2, 60, 73
1, 17728, Note_on_c, 2, 57, 74
1, 17728, Note_on_c, 2, 48, 78
1, 17728, Note_on_c, 9, 44, 125
1, 17728, Note_on_c, 9, 69, 75
1, 17729, Pitch_bend_c, 8, 7489
1, 17730, Note_on_c, 1, 31, 105
1, 17732, Note_on_c, 9, 69, 0
1, 17732, Note_on_c, 9, 44, 0
1, 17736, Pitch_bend_c, 8, 7460
1, 17748, Note_on_c, 8, 73, 0
1, 17748, Pitch_bend_c, 8, 7460
1, 17757, Pitch_bend_c, 8, 8192
1, 17759, Note_on_c, 1, 31, 0
1, 17759, Note_on_c, 1, 31, 97
1, 17760, Note_on_c, 8, 70, 77
1, 17760, Note_on_c, 9, 42, 105
1, 17760, Note_on_c, 9, 38, 125
1, 17764, Note_on_c, 9, 38, 0
1, 17764, Note_on_c, 9, 42, 0
1, 17802, Note_on_c, 2, 53, 0
1, 17802, Pitch_bend_c, 8, 9025
1, 17803, Note_on_c, 8, 70, 0
1, 17804, Note_on_c, 1, 31, 0
1, 17804, Note_on_c, 2, 60, 0
1, 17806, Note_on_c, 2, 57, 0
1, 17817, Note_on_c, 3, 48, 0
1, 17820, Note_on_c, 2, 48, 0
1, 17820, Pitch_bend_c, 8, 8218
1, 17821, Note_on_c, 6, 60, 0
1, 17822, Note_on_c, 8, 72, 110
1, 17823, Note_on_c, 2, 55, 80
1, 17823, Note_on_c, 6, 59, 59
1, 17824, Note_on_c, 2, 50, 78
1, 17824, Note_on_c, 3, 50, 69
1, 17824, Note_on_c, 9, 44, 115
1, 17824, Note_on_c, 9, 69, 75
1, 17825, Note_on_c, 1, 31, 102
1, 17825, Note_on_c, 2, 59, 74
1, 17826, Note_on_c, 9, 51, 78
1, 17828, Note_on_c, 9, 69, 0
1, 17828, Note_on_c, 9, 44, 0
1, 17830, Note_on_c, 9, 51, 0
1, 17841, Note_on_c, 1, 31, 0
1, 17856, Note_on_c, 1, 31, 103
1, 17856, Note_on_c, 9, 42, 115
1, 17856, Note_on_c, 9, 35, 125
1, 17857, Note_on_c, 8, 72, 0
1, 17858, Note_on_c, 8, 65, 95
1, 17858, Note_on_c, 9, 59, 95
1, 17860, Note_on_c, 9, 35, 0
1, 17860, Note_on_c, 9, 42, 0
1, 17862, Note_on_c, 9, 59, 0
1, 17888, Note_on_c, 9, 69, 75
1, 17892, Note_on_c, 9, 69, 0
1, 17897, Note_on_c, 1, 31, 0
1, 17913, Note_on_c, 8, 65, 0
1, 17920, Note_on_c, 1, 31, 101
1, 17920, Note_on_c, 8, 67, 90
1, 17920, Note_on_c, 9, 44, 125
1, 17920, Note_on_c, 9, 69, 75
1, 17924, Note_on_c, 9, 69, 0
1, 17924, Note_on_c, 9, 44, 0
1, 17936, Note_on_c, 1, 31, 0
1, 17949, Note_on_c, 3, 50, 0
1, 17952, Note_on_c, 1, 31, 106
1, 17952, Note_on_c, 9, 42, 115
1, 17952, Note_on_c, 9, 38, 125
1, 17953, Note_on_c, 3, 53, 94
1, 17953, Note_on_c, 9, 59, 86
1, 17956, Note_on_c, 9, 38, 0
1, 17956, Note_on_c, 9, 42, 0
1, 17957, Note_on_c, 9, 59, 0
1, 17984, Note_on_c, 9, 69, 75
1, 17988, Note_on_c, 9, 69, 0
1, 18010, Note_on_c, 1, 31, 0
1, 18014, Note_on_c, 3, 53, 0
1, 18016, Note_on_c, 1, 29, 95
1, 18016, Note_on_c, 3, 55, 72
1, 18016, Note_on_c, 9, 44, 115
1, 18016, Note_on_c, 9, 69, 75
1, 18018, Note_on_c, 2, 50, 0
1, 18020, Note_on_c, 9, 69, 0
1, 18020, Note_on_c, 9, 44, 0
1, 18022, Note_on_c, 2, 55, 0
1, 18033, Note_on_c, 2, 59, 0
1, 18036, Pitch_bend_c, 8, 8277
1, 18038, Note_on_c, 6, 59, 0
1, 18044, Pitch_bend_c, 8, 8250
1, 18048, Note_on_c, 1, 29, 0
1, 18048, Note_on_c, 1, 31, 107
1, 18048, Note_on_c, 2, 53, 74
1, 18048, Note_on_c, 6, 62, 62
1, 18048, Note_on_c, 9, 42, 115
1, 18048, Note_on_c, 9, 35, 125
1, 18051, Pitch_bend_c, 8, 8231
1, 18052, Note_on_c, 9, 35, 0
1, 18052, Note_on_c, 9, 42, 0
1, 18055, Note_on_c, 2, 53, 0
1, 18057, Note_on_c, 3, 55, 0
1, 18061, Pitch_bend_c, 8, 8213
1, 18067, Pitch_bend_c, 8, 8269
1, 18080, Note_on_c, 9, 69, 75
1, 18082, Note_on_c, 1, 31, 0
1, 18084, Note_on_c, 9, 69, 0
1, 18108, Pitch_bend_c, 8, 8239
1, 18111, Note_on_c, 2, 53, 85
1, 18112, Note_on_c, 1, 31, 100
1, 18112, Note_on_c, 2, 58, 79
1, 18112, Note_on_c, 2, 62, 77
1, 18112, Note_on_c, 2, 50, 80
1, 18112, Note_on_c, 3, 53, 69
1, 18112, Note_on_c, 9, 69, 75
1, 18112, Note_on_c, 9, 44, 125
1, 18116, Note_on_c, 9, 44, 0
1, 18116, Note_on_c, 9, 69, 0
1, 18126, Note_on_c, 1, 31, 0
1, 18129, Pitch_bend_c, 8, 8269
1, 18141, Pitch_bend_c, 8, 8223
1, 18143, Note_on_c, 1, 31, 105
1, 18144, Note_on_c, 9, 38, 125
1, 18144, Note_on_c, 9, 42, 105
1, 18146, Note_on_c, 9, 59, 59
1, 18148, Note_on_c, 9, 42, 0
1, 18148, Note_on_c, 9, 38, 0
1, 18150, Note_on_c, 9, 59, 0
1, 18155, Pitch_bend_c, 8, 8171
1, 18157, Note_on_c, 8, 67, 0
1, 18188, Note_on_c, 1, 31, 0
1, 18208, Note_on_c, 1, 31, 98
1, 18208, Note_on_c, 9, 69, 75
1, 18208, Note_on_c, 9, 44, 115
1, 18212, Note_on_c, 9, 44, 0
1, 18212, Note_on_c, 9, 69, 0
1, 18223, Note_on_c, 1, 31, 0
1, 18232, Note_on_c, 2, 58, 0
1, 18235, Note_on_c, 2, 62, 0
1, 18239, Note_on_c, 9, 59, 88
1, 18240, Note_on_c, 6, 62, 0
1, 18240, Note_on_c, 2, 53, 0
1, 18240, Note_on_c, 1, 31, 104
1, 18240, Note_on_c, 2, 61, 73
1, 18240, Note_on_c, 6, 61, 62
1, 18240, Note_on_c, 9, 42, 115
1, 18240, Note_on_c, 9, 35, 125
1, 18241, Note_on_c, 3, 53, 0
1, 18241, Note_on_c, 2, 50, 0
1, 18241, Note_on_c, 2, 49, 78
1, 18241, Note_on_c, 2, 57, 73
1, 18241, Note_on_c, 3, 52, 62
1, 18241, Note_on_c, 8, 70, 77
1, 18242, Note_on_c, 2, 52, 77
1, 18243, Note_on_c, 9, 59, 0
1, 18244, Note_on_c, 9, 35, 0
1, 18244, Note_on_c, 9, 42, 0
1, 18257, Note_on_c, 2, 49, 0
1, 18261, Note_on_c, 2, 61, 0
1, 18262, Note_on_c, 2, 57, 0
1, 18266, Note_on_c, 2, 52, 0
1, 18267, Pitch_bend_c, 8, 8215
1, 18272, Note_on_c, 9, 69, 75
1, 18273, Pitch_bend_c, 8, 8330
1, 18276, Note_on_c, 9, 69, 0
1, 18279, Note_on_c, 1, 31, 0
1, 18279, Pitch_bend_c, 8, 8439
1, 18285, Pitch_bend_c, 8, 8525
1, 18297, Pitch_bend_c, 8, 8503
1, 18300, Pitch_bend_c, 8, 8205
1, 18302, Note_on_c, 8, 70, 0
1, 18302, Note_on_c, 2, 49, 78
1, 18302, Note_on_c, 8, 67, 72
1, 18303, Note_on_c, 2, 61, 77
1, 18303, Note_on_c, 2, 57, 76
1, 18304, Note_on_c, 1, 31, 102
1, 18304, Note_on_c, 2, 52, 78
1, 18304, Note_on_c, 9, 44, 125
1, 18308, Note_on_c, 9, 44, 0
1, 18323, Note_on_c, 1, 31, 0
1, 18336, Note_on_c, 1, 31, 106
1, 18336, Note_on_c, 9, 38, 125
1, 18336, Note_on_c, 9, 42, 115
1, 18340, Note_on_c, 9, 42, 0
1, 18340, Note_on_c, 9, 38, 0
1, 18350, Pitch_bend_c, 8, 8223
1, 18363, Pitch_bend_c, 8, 8239
1, 18370, Pitch_bend_c, 8, 8197
1, 18377, Note_on_c, 1, 31, 0
1, 18388, Pitch_bend_c, 8, 8311
1, 18397, Note_on_c, 3, 52, 0
1, 18399, Pitch_bend_c, 8, 8197
1, 18400, Note_on_c, 1, 31, 101
1, 18400, Note_on_c, 9, 44, 115
1, 18400, Note_on_c, 9, 69, 75
1, 18404, Note_on_c, 9, 69, 0
1, 18404, Note_on_c, 9, 44, 0
1, 18418, Note_on_c, 2, 57, 0
1, 18419, Pitch_bend_c, 8, 8383
1, 18420, Note_on_c, 1, 31, 0
1, 18420, Note_on_c, 2, 61, 0
1, 18423, Note_on_c, 6, 61, 0
1, 18430, Note_on_c, 2, 52, 0
1, 18430, Pitch_bend_c, 8, 8357
1, 18431, Note_on_c, 1, 31, 90
1, 18432, Note_on_c, 2, 43, 83
1, 18432, Note_on_c, 2, 60, 78
1, 18432, Note_on_c, 2, 57, 77
1, 18432, Note_on_c, 2, 53, 77
1, 18432, Note_on_c, 3, 48, 65
1, 18432, Note_on_c, 3, 65, 84
1, 18432, Note_on_c, 5, 43, 72
1, 18432, Note_on_c, 6, 69, 95
1, 18432, Note_on_c, 6, 65, 94
1, 18432, Pitch_bend_c, 8, 8205
1, 18432, Note_on_c, 9, 35, 125
1, 18432, Note_on_c, 9, 42, 115
1, 18432, Note_on_c, 14, 65, 94
1, 18432, Note_on_c, 14, 69, 83
1, 18436, Note_on_c, 9, 42, 0
1, 18436, Note_on_c, 9, 35, 0
1, 18437, Note_on_c, 14, 69, 0
1, 18440, Note_on_c, 2, 49, 0
1, 18443, Note_on_c, 6, 69, 0
1, 18445, Note_on_c, 14, 65, 0
1, 18445, Note_on_c, 3, 65, 0
1, 18445, Note_on_c, 6, 65, 0
1, 18446, Note_on_c, 5, 43, 0
1, 18447, Note_on_c, 2, 43, 0
1, 18448, Note_on_c, 2, 60, 0
1, 18449, Note_on_c, 2, 57, 0
1, 18450, Note_on_c, 2, 53, 0
1, 18452, Pitch_bend_c, 8, 8205
1, 18457, Note_on_c, 8, 67, 0
1, 18464, Note_on_c, 9, 69, 75
1, 18468, Note_on_c, 9, 69, 0
1, 18469, Note_on_c, 1, 31, 0
1, 18494, Note_on_c, 2, 43, 87
1, 18494, Note_on_c, 2, 60, 78
1, 18494, Note_on_c, 3, 65, 87
1, 18495, Note_on_c, 2, 57, 77
1, 18495, Note_on_c, 2, 53, 79
1, 18495, Note_on_c, 5, 43, 84
1, 18495, Note_on_c, 6, 65, 99
1, 18495, Note_on_c, 6, 69, 102
1, 18495, Note_on_c, 14, 65, 112
1, 18496, Note_on_c, 1, 31, 102
1, 18496, Note_on_c, 9, 44, 125
1, 18496, Note_on_c, 9, 69, 75
1, 18498, Note_on_c, 9, 51, 81
1, 18500, Note_on_c, 9, 69, 0
1, 18500, Note_on_c, 9, 44, 0
1, 18502, Note_on_c, 9, 51, 0
1, 18511, Note_on_c, 1, 31, 0
1, 18528, Note_on_c, 1, 31, 107
1, 18528, Note_on_c, 9, 38, 125
1, 18528, Note_on_c, 9, 42, 105
1, 18532, Note_on_c, 9, 42, 0
1, 18532, Note_on_c, 9, 38, 0
1, 18568, Note_on_c, 1, 31, 0
1, 18591, Note_on_c, 1, 31, 103
1, 18592, Note_on_c, 9, 44, 115
1, 18592, Note_on_c, 9, 69, 75
1, 18593, Note_on_c, 9, 51, 79
1, 18596, Note_on_c, 9, 69, 0
1, 18596, Note_on_c, 9, 44, 0
1, 18597, Note_on_c, 9, 51, 0
1, 18604, Note_on_c, 2, 57, 0
1, 18608, Note_on_c, 6, 65, 0
1, 18609, Note_on_c, 14, 65, 0
1, 18609, Note_on_c, 1, 31, 0
1, 18610, Note_on_c, 2, 60, 0
1, 18610, Note_on_c, 3, 65, 0
1, 18612, Note_on_c, 6, 69, 0
1, 18613, Note_on_c, 5, 43, 0
1, 18616, Note_on_c, 2, 53, 0
1, 18618, Note_on_c, 2, 43, 0
1, 18624, Note_on_c, 1, 31, 106
1, 18624, Note_on_c, 2, 65, 74
1, 18624, Note_on_c, 2, 57, 75
1, 18624, Note_on_c, 2, 60, 73
1, 18624, Note_on_c, 6, 65, 89
1, 18624, Note_on_c, 6, 69, 91
1, 18624, Note_on_c, 9, 35, 125
1, 18624, Note_on_c, 9, 42, 115
1, 18624, Note_on_c, 14, 69, 97
1, 18624, Note_on_c, 14, 65, 97
1, 18625, Note_on_c, 2, 43, 78
1, 18625, Note_on_c, 3, 65, 72
1, 18625, Note_on_c, 6, 72, 93
1, 18625, Note_on_c, 9, 59, 89
1, 18626, Note_on_c, 5, 43, 65
1, 18628, Note_on_c, 9, 42, 0
1, 18628, Note_on_c, 9, 35, 0
1, 18629, Note_on_c, 9, 59, 0
1, 18639, Note_on_c, 6, 65, 0
1, 18640, Note_on_c, 6, 72, 0
1, 18641, Note_on_c, 6, 69, 0
1, 18641, Note_on_c, 14, 69, 0
1, 18642, Note_on_c, 14, 65, 0
1, 18642, Note_on_c, 3, 65, 0
1, 18643, Note_on_c, 5, 43, 0
1, 18645, Note_on_c, 2, 57, 0
1, 18647, Note_on_c, 2, 43, 0
1, 18647, Note_on_c, 2, 60, 0
1, 18648, Note_on_c, 2, 65, 0
1, 18656, Note_on_c, 9, 69, 75
1, 18659, Note_on_c, 1, 31, 0
1, 18660, Note_on_c, 9, 69, 0
1, 18686, Note_on_c, 6, 65, 97
1, 18686, Note_on_c, 6, 69, 102
1, 18686, Note_on_c, 6, 72, 109
1, 18687, Note_on_c, 2, 43, 89
1, 18687, Note_on_c, 3, 65, 84
1, 18687, Note_on_c, 14, 65, 104
1, 18687, Note_on_c, 14, 69, 112
1, 18688, Note_on_c, 1, 31, 95
1, 18688, Note_on_c, 2, 57, 77
1, 18688, Note_on_c, 2, 65, 77
1, 18688, Note_on_c, 2, 60, 77
1, 18688, Note_on_c, 5, 43, 79
1, 18688, Note_on_c, 9, 69, 75
1, 18688, Note_on_c, 9, 44, 125
1, 18689, Note_on_c, 9, 59, 105
1, 18692, Note_on_c, 9, 44, 0
1, 18692, Note_on_c, 9, 69, 0
1, 18693, Note_on_c, 9, 59, 0
1, 18702, Note_on_c, 1, 31, 0
1, 18720, Note_on_c, 1, 31, 100
1, 18720, Note_on_c, 9, 42, 115
1, 18720, Note_on_c, 9, 38, 125
1, 18724, Note_on_c, 9, 38, 0
1, 18724, Note_on_c, 9, 42, 0
1, 18752, Note_on_c, 9, 69, 75
1, 18756, Note_on_c, 9, 69, 0
1, 18759, Note_on_c, 1, 31, 0
1, 18770, Note_on_c, 2, 57, 0
1, 18779, Note_on_c, 6, 65, 0
1, 18782, Note_on_c, 2, 60, 0
1, 18783, Note_on_c, 1, 29, 91
1, 18784, Note_on_c, 9, 69, 75
1, 18784, Note_on_c, 9, 44, 115
1, 18785, Note_on_c, 9, 51, 87
1, 18786, Note_on_c, 2, 65, 0
1, 18788, Note_on_c, 9, 44, 0
1, 18788, Note_on_c, 9, 69, 0
1, 18789, Note_on_c, 9, 51, 0
1, 18790, Note_on_c, 6, 72, 0
1, 18791, Note_on_c, 6, 69, 0
1, 18792, Note_on_c, 14, 65, 0
1, 18794, Note_on_c, 3, 65, 0
1, 18795, Note_on_c, 5, 43, 0
1, 18797, Note_on_c, 14, 69, 0
1, 18800, Note_on_c, 1, 29, 0
1, 18800, Note_on_c, 1, 30, 97
1, 18805, Note_on_c, 2, 43, 0
1, 18815, Note_on_c, 6, 72, 95
1, 18816, Note_on_c, 1, 30, 0
1, 18816, Note_on_c, 1, 31, 111
1, 18816, Note_on_c, 2, 69, 78
1, 18816, Note_on_c, 2, 43, 78
1, 18816, Note_on_c, 2, 72, 77
1, 18816, Note_on_c, 2, 65, 76
1, 18816, Note_on_c, 5, 43, 69
1, 18816, Note_on_c, 6, 76, 82
1, 18816, Note_on_c, 6, 77, 84
1, 18816, Note_on_c, 6, 69, 89
1, 18816, Note_on_c, 9, 42, 115
1, 18816, Note_on_c, 9, 35, 125
1, 18816, Note_on_c, 14, 69, 87
1, 18816, Note_on_c, 14, 72, 94
1, 18817, Note_on_c, 3, 65, 75
1, 18817, Note_on_c, 9, 59, 104
1, 18820, Note_on_c, 9, 35, 0
1, 18820, Note_on_c, 9, 42, 0
1, 18821, Note_on_c, 9, 59, 0
1, 18821, Note_on_c, 6, 76, 0
1, 18824, Note_on_c, 6, 77, 0
1, 18828, Note_on_c, 6, 72, 0
1, 18829, Note_on_c, 2, 69, 0
1, 18829, Note_on_c, 6, 69, 0
1, 18830, Note_on_c, 2, 65, 0
1, 18831, Note_on_c, 2, 72, 0
1, 18835, Note_on_c, 5, 43, 0
1, 18836, Note_on_c, 3, 65, 0
1, 18837, Note_on_c, 14, 69, 0
1, 18838, Note_on_c, 14, 72, 0
1, 18840, Note_on_c, 2, 43, 0
1, 18844, Note_on_c, 1, 31, 0
1, 18848, Note_on_c, 9, 69, 75
1, 18852, Note_on_c, 9, 69, 0
1, 18877, Note_on_c, 2, 69, 77
1, 18877, Note_on_c, 2, 65, 76
1, 18877, Note_on_c, 2, 72, 77
1, 18878, Note_on_c, 6, 72, 114
1, 18878, Note_on_c, 6, 69, 97
1, 18878, Note_on_c, 6, 77, 102
1, 18879, Note_on_c, 1, 31, 104
1, 18879, Note_on_c, 14, 72, 99
1, 18879, Note_on_c, 14, 69, 100
1, 18880, Note_on_c, 2, 43, 91
1, 18880, Note_on_c, 3, 65, 87
1, 18880, Note_on_c, 5, 43, 84
1, 18880, Note_on_c, 9, 69, 75
1, 18880, Note_on_c, 9, 44, 125
1, 18881, Note_on_c, 9, 59, 114
1, 18884, Note_on_c, 9, 44, 0
1, 18884, Note_on_c, 9, 69, 0
1, 18885, Note_on_c, 9, 59, 0
1, 18895, Note_on_c, 1, 31, 0
1, 18912, Note_on_c, 1, 31, 110
1, 18912, Note_on_c, 9, 42, 105
1, 18912, Note_on_c, 9, 38, 125
1, 18916, Note_on_c, 9, 38, 0
1, 18916, Note_on_c, 9, 42, 0
1, 18961, Note_on_c, 1, 31, 0
1, 18961, Note_on_c, 1, 29, 102
1, 18976, Note_on_c, 9, 69, 75
1, 18976, Note_on_c, 9, 44, 115
1, 18976, Note_on_c, 9, 35, 75
1, 18977, Note_on_c, 9, 51, 92
1, 18980, Note_on_c, 9, 35, 0
1, 18980, Note_on_c, 9, 44, 0
1, 18980, Note_on_c, 9, 69, 0
1, 18981, Note_on_c, 9, 51, 0
1, 18984, Note_on_c, 3, 65, 0
1, 18985, Note_on_c, 14, 72, 0
1, 18986, Note_on_c, 14, 69, 0
1, 18990, Note_on_c, 6, 69, 0
1, 18992, Note_on_c, 5, 43, 0
1, 18992, Note_on_c, 1, 29, 0
1, 18992, Note_on_c, 1, 30, 97
1, 18994, Note_on_c, 6, 77, 0
1, 18997, Note_on_c, 6, 72, 0
1, 19005, Note_on_c, 2, 65, 0
1, 19005, Note_on_c, 2, 69, 0
1, 19005, Note_on_c, 2, 72, 0
1, 19007, Note_on_c, 1, 30, 0
1, 19007, Note_on_c, 1, 31, 111
1, 19008, Note_on_c, 2, 77, 83
1, 19008, Note_on_c, 2, 72, 83
1, 19008, Note_on_c, 2, 69, 81
1, 19008, Note_on_c, 5, 43, 67
1, 19008, Note_on_c, 6, 77, 88
1, 19008, Note_on_c, 6, 69, 92
1, 19008, Note_on_c, 6, 72, 97
1, 19008, Note_on_c, 9, 42, 115
1, 19008, Note_on_c, 14, 72, 87
1, 19008, Note_on_c, 14, 69, 85
1, 19008, Note_on_c, 14, 77, 88
1, 19009, Note_on_c, 3, 65, 75
1, 19009, Note_on_c, 9, 59, 102
1, 19012, Note_on_c, 9, 42, 0
1, 19013, Note_on_c, 9, 59, 0
1, 19022, Note_on_c, 6, 77, 0
1, 19023, Note_on_c, 6, 69, 0
1, 19023, Note_on_c, 2, 69, 0
1, 19023, Note_on_c, 2, 72, 0
1, 19024, Note_on_c, 14, 72, 0
1, 19025, Note_on_c, 6, 72, 0
1, 19026, Note_on_c, 2, 77, 0
1, 19027, Note_on_c, 14, 69, 0
1, 19028, Note_on_c, 14, 77, 0
1, 19032, Note_on_c, 3, 48, 0
1, 19033, Note_on_c, 3, 65, 0
1, 19040, Note_on_c, 1, 31, 0
1, 19040, Note_on_c, 9, 69, 75
1, 19044, Note_on_c, 9, 69, 0
1, 19051, Note_on_c, 4, 55, 0
1, 19057, Note_on_c, 2, 43, 0
1, 19070, Note_on_c, 2, 48, 86
1, 19070, Note_on_c, 2, 67, 79
1, 19070, Note_on_c, 2, 76, 84
1, 19070, Note_on_c, 2, 72, 84
1, 19070, Note_on_c, 6, 76, 105
1, 19070, Note_on_c, 14, 76, 97
1, 19071, Note_on_c, 1, 31, 100
1, 19071, Note_on_c, 3, 48, 69
1, 19071, Note_on_c, 3, 64, 79
1, 19071, Note_on_c, 4, 55, 59
1, 19071, Note_on_c, 6, 67, 109
1, 19071, Note_on_c, 6, 72, 105
1, 19071, Note_on_c, 14, 67, 97
1, 19071, Note_on_c, 14, 72, 99
1, 19072, Note_on_c, 9, 35, 125
1, 19072, Note_on_c, 9, 46, 127
1, 19072, Note_on_c, 9, 57, 85
1, 19073, Note_on_c, 9, 59, 95
1, 19076, Note_on_c, 9, 57, 0
1, 19076, Note_on_c, 9, 46, 0
1, 19076, Note_on_c, 9, 35, 0
1, 19077, Note_on_c, 9, 59, 0
1, 19080, Note_on_c, 5, 43, 0
1, 19083, Note_on_c, 1, 31, 0
1, 19103, Note_on_c, 1, 31, 111
1, 19104, Note_on_c, 5, 43, 87
1, 19104, Note_on_c, 9, 38, 85
1, 19104, Note_on_c, 9, 44, 105
1, 19108, Note_on_c, 9, 44, 0
1, 19108, Note_on_c, 9, 38, 0
1, 19125, Note_on_c, 14, 72, 0
1, 19129, Note_on_c, 14, 76, 0
1, 19129, Note_on_c, 14, 67, 0
1, 19146, Note_on_c, 1, 31, 0
1, 19149, Note_on_c, 5, 43, 0
1, 19167, Note_on_c, 1, 31, 108
1, 19168, Note_on_c, 5, 43, 84
1, 19168, Note_on_c, 9, 69, 75
1, 19168, Note_on_c, 9, 44, 125
1, 19168, Note_on_c, 14, 67, 97
1, 19168, Note_on_c, 14, 74, 100
1, 19168, Note_on_c, 14, 71, 104
1, 19172, Note_on_c, 9, 44, 0
1, 19172, Note_on_c, 9, 69, 0
1, 19175, Note_on_c, 2, 48, 0
1, 19184, Note_on_c, 3, 48, 0
1, 19184, Note_on_c, 5, 43, 0
1, 19188, Note_on_c, 3, 64, 0
1, 19189, Note_on_c, 2, 76, 0
1, 19189, Note_on_c, 2, 67, 0
1, 19190, Note_on_c, 4, 55, 0
1, 19191, Note_on_c, 2, 72, 0
1, 19191, Note_on_c, 6, 76, 0
1, 19193, Note_on_c, 6, 67, 0
1, 19194, Note_on_c, 6, 72, 0
1, 19198, Note_on_c, 1, 31, 0
1, 19198, Note_on_c, 0, 55, 127
1, 19198, Note_on_c, 0, 50, 127
1, 19199, Note_on_c, 0, 59, 127
1, 19200, Note_on_c, 1, 31, 107
1, 19200, Note_on_c, 2, 59, 74
1, 19200, Note_on_c, 2, 55, 74
1, 19200, Note_on_c, 2, 62, 74
1, 19200, Note_on_c, 4, 62, 52
1, 19200, Note_on_c, 4, 59, 52
1, 19200, Note_on_c, 4, 55, 50
1, 19200, Note_on_c, 6, 71, 84
1, 19200, Note_on_c, 6, 67, 87
1, 19200, Note_on_c, 9, 42, 115
1, 19200, Note_on_c, 9, 49, 75
1, 19200, Note_on_c, 9, 35, 125
1, 19201, Note_on_c, 6, 62, 75
1, 19202, Note_on_c, 0, 62, 127
1, 19204, Note_on_c, 9, 35, 0
1, 19204, Note_on_c, 9, 49, 0
1, 19204, Note_on_c, 9, 42, 0
1, 19204, Note_on_c, 0, 67, 127
1, 19232, Note_on_c, 9, 69, 75
1, 19236, Note_on_c, 9, 69, 0
1, 19240, Note_on_c, 1, 31, 0
1, 19256, Note_on_c, 0, 67, 0
1, 19264, Note_on_c, 0, 67, 127
1, 19264, Note_on_c, 1, 31, 102
1, 19264, Note_on_c, 9, 44, 125
1, 19264, Note_on_c, 9, 69, 75
1, 19266, Note_on_c, 0, 62, 0
1, 19266, Note_on_c, 0, 62, 121
1, 19268, Note_on_c, 9, 69, 0
1, 19268, Note_on_c, 9, 44, 0
1, 19282, Note_on_c, 1, 31, 0
1, 19296, Note_on_c, 1, 31, 105
1, 19296, Note_on_c, 9, 38, 125
1, 19296, Note_on_c, 9, 42, 105
1, 19298, Note_on_c, 0, 55, 0
1, 19298, Note_on_c, 0, 55, 127
1, 19300, Note_on_c, 9, 42, 0
1, 19300, Note_on_c, 9, 38, 0
1, 19303, Lyric_t, "Life "
1, 19332, Note_on_c, 1, 31, 0
1, 19350, Note_on_c, 0, 67, 0
1, 19351, Note_on_c, 0, 67, 127
1, 19352, Note_on_c, 0, 62, 0
1, 19354, Note_on_c, 0, 62, 127
1, 19356, Note_on_c, 0, 55, 0
1, 19357, Note_on_c, 0, 55, 127
1, 19359, Note_on_c, 14, 74, 0
1, 19360, Note_on_c, 1, 31, 92
1, 19360, Note_on_c, 9, 69, 75
1, 19360, Note_on_c, 9, 44, 115
1, 19361, Note_on_c, 14, 67, 0
1, 19364, Note_on_c, 9, 44, 0
1, 19364, Note_on_c, 9, 69, 0
1, 19364, Note_on_c, 14, 71, 0
1, 19378, Note_on_c, 1, 31, 0
1, 19382, Lyric_t, "is "
1, 19392, Note_on_c, 1, 31, 108
1, 19392, Note_on_c, 9, 35, 125
1, 19392, Note_on_c, 9, 42, 115
1, 19396, Note_on_c, 9, 42, 0
1, 19396, Note_on_c, 9, 35, 0
1, 19418, Note_on_c, 2, 55, 0
1, 19420, Lyric_t, "a "
1, 19424, Note_on_c, 9, 69, 75
1, 19428, Note_on_c, 9, 69, 0
1, 19432, Note_on_c, 1, 31, 0
1, 19455, Note_on_c, 1, 31, 102
1, 19456, Note_on_c, 2, 55, 70
1, 19456, Note_on_c, 9, 44, 125
1, 19460, Note_on_c, 9, 44, 0
1, 19462, Note_on_c, 2, 62, 0
1, 19464, Note_on_c, 2, 59, 0
1, 19471, Note_on_c, 1, 31, 0
1, 19477, Lyric_t, "liar "
1, 19478, Note_on_c, 2, 55, 0
1, 19483, Note_on_c, 0, 50, 0
1, 19483, Note_on_c, 0, 55, 0
1, 19484, Note_on_c, 0, 50, 127
1, 19485, Note_on_c, 0, 55, 127
1, 19486, Note_on_c, 0, 59, 0
1, 19486, Note_on_c, 0, 62, 0
1, 19487, Note_on_c, 0, 59, 127
1, 19487, Note_on_c, 1, 31, 109
1, 19487, Note_on_c, 2, 59, 73
1, 19488, Note_on_c, 0, 67, 0
1, 19488, Note_on_c, 0, 62, 127
1, 19488, Note_on_c, 2, 62, 72
1, 19488, Note_on_c, 9, 38, 125
1, 19488, Note_on_c, 9, 42, 115
1, 19489, Note_on_c, 0, 67, 127
1, 19492, Note_on_c, 9, 42, 0
1, 19492, Note_on_c, 9, 38, 0
1, 19509, Note_on_c, 2, 62, 0
1, 19510, Note_on_c, 6, 62, 0
1, 19514, Note_on_c, 6, 71, 0
1, 19515, Note_on_c, 2, 59, 0
1, 19518, Note_on_c, 6, 67, 0
1, 19531, Note_on_c, 1, 31, 0
1, 19536, Note_on_c, 0, 55, 0
1, 19538, Note_on_c, 0, 50, 0
1, 19541, Lyric_t, "yeah "
1, 19549, Note_on_c, 0, 59, 0
1, 19550, Note_on_c, 2, 55, 59
1, 19552, Note_on_c, 9, 69, 75
1, 19552, Note_on_c, 9, 46, 105
1, 19553, Note_on_c, 1, 31, 97
1, 19556, Note_on_c, 9, 46, 0
1, 19556, Note_on_c, 9, 69, 0
1, 19560, Note_on_c, 4, 62, 0
1, 19562, Note_on_c, 4, 59, 0
1, 19569, Note_on_c, 1, 31, 0
1, 19577, Note_on_c, 0, 62, 0
1, 19582, Note_on_c, 0, 55, 127
1, 19583, Note_on_c, 0, 60, 127
1, 19583, Note_on_c, 2, 60, 71
1, 19583, Note_on_c, 2, 64, 73
1, 19584, Note_on_c, 0, 64, 127
1, 19584, Note_on_c, 9, 42, 115
1, 19584, Note_on_c, 9, 35, 125
1, 19585, Note_on_c, 0, 67, 0
1, 19585, Note_on_c, 0, 67, 124
1, 19585, Note_on_c, 1, 31, 101
1, 19585, Note_on_c, 4, 60, 49
1, 19585, Note_on_c, 4, 64, 55
1, 19588, Note_on_c, 9, 35, 0
1, 19588, Note_on_c, 9, 42, 0
1, 19589, Note_on_c, 0, 67, 0
1, 19597, Note_on_c, 0, 64, 0
1, 19616, Note_on_c, 9, 69, 75
1, 19620, Note_on_c, 9, 69, 0
1, 19627, Note_on_c, 1, 31, 0
1, 19645, Note_on_c, 0, 64, 113
1, 19648, Note_on_c, 9, 69, 75
1, 19648, Note_on_c, 9, 44, 125
1, 19649, Note_on_c, 1, 31, 101
1, 19652, Note_on_c, 9, 44, 0
1, 19652, Note_on_c, 9, 69, 0
1, 19652, Lyric_t, "life "
1, 19664, Note_on_c, 1, 31, 0
1, 19677, Note_on_c, 0, 55, 0
1, 19678, Note_on_c, 0, 60, 0
1, 19678, Note_on_c, 0, 55, 127
1, 19679, Note_on_c, 0, 64, 0
1, 19680, Note_on_c, 0, 60, 127
1, 19680, Note_on_c, 0, 64, 127
1, 19680, Note_on_c, 9, 42, 105
1, 19680, Note_on_c, 9, 38, 125
1, 19681, Note_on_c, 1, 31, 107
1, 19684, Note_on_c, 9, 38, 0
1, 19684, Note_on_c, 9, 42, 0
1, 19695, Note_on_c, 0, 64, 0
1, 19706, Note_on_c, 0, 60, 0
1, 19710, Note_on_c, 0, 55, 0
1, 19716, Lyric_t, "is "
1, 19722, Note_on_c, 1, 31, 0
1, 19732, Note_on_c, 2, 64, 0
1, 19735, Note_on_c, 2, 60, 0
1, 19737, Note_on_c, 0, 67, 127
1, 19740, Note_on_c, 0, 62, 127
1, 19742, Note_on_c, 0, 59, 127
1, 19744, Note_on_c, 0, 55, 127
1, 19744, Note_on_c, 1, 31, 103
1, 19744, Note_on_c, 9, 44, 115
1, 19744, Note_on_c, 9, 69, 75
1, 19745, Note_on_c, 0, 50, 127
1, 19748, Note_on_c, 9, 69, 0
1, 19748, Note_on_c, 9, 44, 0
1, 19751, Note_on_c, 4, 64, 0
1, 19753, Note_on_c, 4, 60, 0
1, 19763, Note_on_c, 1, 31, 0
1, 19766, Lyric_t, "a "
1, 19776, Note_on_c, 1, 31, 107
1, 19776, Note_on_c, 2, 62, 70
1, 19776, Note_on_c, 2, 59, 70
1, 19776, Note_on_c, 9, 42, 115
1, 19776, Note_on_c, 9, 35, 125
1, 19777, Note_on_c, 4, 59, 50
1, 19777, Note_on_c, 4, 62, 49
1, 19780, Note_on_c, 9, 35, 0
1, 19780, Note_on_c, 9, 42, 0
1, 19808, Note_on_c, 9, 69, 75
1, 19812, Note_on_c, 9, 69, 0
1, 19821, Note_on_c, 1, 31, 0
1, 19832, Note_on_c, 0, 67, 0
1, 19833, Note_on_c, 0, 67, 127
1, 19834, Note_on_c, 0, 62, 0
1, 19835, Note_on_c, 0, 62, 123
1, 19840, Note_on_c, 1, 31, 100
1, 19840, Note_on_c, 9, 44, 125
1, 19844, Note_on_c, 9, 44, 0
1, 19849, Lyric_t, "cheat "
1, 19849, Lyric_t, "\015"
1, 19854, Note_on_c, 1, 31, 0
1, 19870, Note_on_c, 0, 50, 0
1, 19870, Note_on_c, 0, 55, 0
1, 19871, Note_on_c, 0, 50, 127
1, 19872, Note_on_c, 0, 59, 0
1, 19872, Note_on_c, 0, 55, 127
1, 19872, Note_on_c, 1, 31, 101
1, 19872, Note_on_c, 9, 42, 115
1, 19872, Note_on_c, 9, 38, 125
1, 19873, Note_on_c, 0, 59, 127
1, 19874, Note_on_c, 0, 62, 0
1, 19875, Note_on_c, 0, 67, 0
1, 19875, Note_on_c, 0, 62, 127
1, 19876, Note_on_c, 9, 38, 0
1, 19876, Note_on_c, 9, 42, 0
1, 19876, Note_on_c, 0, 67, 127
1, 19885, Note_on_c, 0, 67, 0
1, 19886, Note_on_c, 0, 59, 0
1, 19887, Note_on_c, 0, 50, 0
1, 19887, Note_on_c, 0, 62, 0
1, 19890, Note_on_c, 0, 55, 0
1, 19891, Note_on_c, 1, 31, 0
1, 19895, Note_on_c, 2, 62, 0
1, 19898, Note_on_c, 2, 59, 0
1, 19905, Note_on_c, 2, 55, 0
1, 19925, Note_on_c, 4, 62, 0
1, 19929, Note_on_c, 4, 55, 0
1, 19930, Note_on_c, 0, 65, 127
1, 19931, Note_on_c, 0, 60, 127
1, 19934, Note_on_c, 0, 57, 127
1, 19935, Note_on_c, 0, 53, 127
1, 19935, Note_on_c, 2, 57, 74
1, 19935, Note_on_c, 2, 60, 71
1, 19935, Note_on_c, 2, 53, 73
1, 19936, Note_on_c, 1, 31, 96
1, 19936, Note_on_c, 9, 46, 105
1, 19936, Note_on_c, 9, 69, 75
1, 19938, Lyric_t, "It\222ll "
1, 19939, Note_on_c, 4, 59, 0
1, 19940, Note_on_c, 9, 69, 0
1, 19940, Note_on_c, 9, 46, 0
1, 19954, Note_on_c, 1, 31, 0
1, 19968, Note_on_c, 1, 29, 108
1, 19968, Note_on_c, 9, 35, 125
1, 19968, Note_on_c, 9, 42, 115
1, 19969, Note_on_c, 4, 60, 61
1, 19969, Note_on_c, 4, 57, 56
1, 19969, Note_on_c, 4, 65, 52
1, 19972, Note_on_c, 9, 42, 0
1, 19972, Note_on_c, 9, 35, 0
1, 20000, Note_on_c, 2, 53, 0
1, 20000, Note_on_c, 9, 69, 75
1, 20001, Note_on_c, 2, 57, 0
1, 20003, Note_on_c, 2, 60, 0
1, 20004, Note_on_c, 9, 69, 0
1, 20011, Note_on_c, 1, 29, 0
1, 20014, Lyric_t, "lead "
1, 20024, Note_on_c, 0, 65, 0
1, 20025, Note_on_c, 0, 65, 127
1, 20026, Note_on_c, 0, 60, 0
1, 20027, Note_on_c, 0, 60, 123
1, 20032, Note_on_c, 1, 29, 101
1, 20032, Note_on_c, 2, 53, 71
1, 20032, Note_on_c, 2, 60, 71
1, 20032, Note_on_c, 2, 57, 72
1, 20032, Note_on_c, 9, 44, 125
1, 20032, Note_on_c, 9, 69, 75
1, 20036, Note_on_c, 9, 69, 0
1, 20036, Note_on_c, 9, 44, 0
1, 20047, Note_on_c, 1, 29, 0
1, 20052, Lyric_t, "you "
1, 20060, Note_on_c, 0, 53, 0
1, 20061, Note_on_c, 0, 57, 0
1, 20061, Note_on_c, 0, 53, 127
1, 20063, Note_on_c, 0, 57, 127
1, 20064, Note_on_c, 0, 60, 0
1, 20064, Note_on_c, 0, 60, 127
1, 20064, Note_on_c, 1, 29, 102
1, 20064, Note_on_c, 9, 38, 125
1, 20064, Note_on_c, 9, 42, 105
1, 20068, Note_on_c, 9, 42, 0
1, 20068, Note_on_c, 9, 38, 0
1, 20088, Note_on_c, 0, 65, 0
1, 20092, Note_on_c, 0, 60, 0
1, 20096, Note_on_c, 0, 57, 0
1, 20097, Lyric_t, "on "
1, 20102, Note_on_c, 1, 29, 0
1, 20108, Note_on_c, 0, 53, 0
1, 20120, Note_on_c, 0, 64, 127
1, 20122, Note_on_c, 2, 60, 0
1, 20122, Note_on_c, 0, 60, 127
1, 20123, Note_on_c, 2, 53, 0
1, 20125, Note_on_c, 2, 57, 0
1, 20125, Note_on_c, 0, 55, 127
1, 20126, Note_on_c, 0, 52, 127
1, 20128, Note_on_c, 1, 29, 96
1, 20128, Note_on_c, 9, 44, 115
1, 20128, Note_on_c, 9, 69, 75
1, 20132, Note_on_c, 9, 69, 0
1, 20132, Note_on_c, 9, 44, 0
1, 20132, Note_on_c, 4, 65, 0
1, 20132, Note_on_c, 4, 57, 0
1, 20138, Lyric_t, "and "
1, 20139, Note_on_c, 4, 60, 0
1, 20146, Note_on_c, 1, 29, 0
1, 20159, Note_on_c, 4, 60, 53
1, 20159, Note_on_c, 4, 64, 54
1, 20160, Note_on_c, 1, 28, 107
1, 20160, Note_on_c, 2, 64, 71
1, 20160, Note_on_c, 2, 55, 71
1, 20160, Note_on_c, 2, 60, 72
1, 20160, Note_on_c, 4, 55, 59
1, 20160, Note_on_c, 9, 42, 115
1, 20160, Note_on_c, 9, 35, 125
1, 20164, Note_on_c, 9, 35, 0
1, 20164, Note_on_c, 9, 42, 0
1, 20174, Note_on_c, 2, 60, 0
1, 20175, Note_on_c, 2, 55, 0
1, 20175, Note_on_c, 2, 64, 0
1, 20189, Lyric_t, "pull "
1, 20192, Note_on_c, 9, 69, 75
1, 20196, Note_on_c, 9, 69, 0
1, 20196, Note_on_c, 1, 28, 0
1, 20217, Note_on_c, 0, 64, 0
1, 20217, Note_on_c, 0, 64, 127
1, 20222, Note_on_c, 2, 64, 73
1, 20222, Note_on_c, 2, 55, 71
1, 20222, Note_on_c, 2, 60, 73
1, 20223, Note_on_c, 1, 28, 103
1, 20224, Note_on_c, 9, 44, 125
1, 20224, Note_on_c, 9, 69, 75
1, 20228, Note_on_c, 9, 69, 0
1, 20228, Note_on_c, 9, 44, 0
1, 20236, Lyric_t, "the "
1, 20240, Note_on_c, 1, 28, 0
1, 20250, Note_on_c, 0, 52, 0
1, 20251, Note_on_c, 0, 52, 127
1, 20255, Note_on_c, 1, 28, 108
1, 20256, Note_on_c, 9, 38, 125
1, 20256, Note_on_c, 9, 42, 115
1, 20260, Note_on_c, 9, 42, 0
1, 20260, Note_on_c, 9, 38, 0
1, 20276, Note_on_c, 0, 52, 0
1, 20279, Note_on_c, 0, 60, 0
1, 20281, Lyric_t, "ground "
1, 20281, Lyric_t, "\015"
1, 20288, Note_on_c, 9, 69, 75
1, 20290, Note_on_c, 2, 64, 0
1, 20292, Note_on_c, 9, 69, 0
1, 20295, Note_on_c, 2, 55, 0
1, 20296, Note_on_c, 1, 28, 0
1, 20298, Note_on_c, 2, 60, 0
1, 20301, Note_on_c, 0, 55, 0
1, 20301, Note_on_c, 0, 64, 0
1, 20310, Note_on_c, 0, 65, 127
1, 20313, Note_on_c, 4, 55, 0
1, 20313, Note_on_c, 0, 60, 127
1, 20314, Note_on_c, 0, 57, 127
1, 20315, Note_on_c, 0, 53, 127
1, 20318, Note_on_c, 4, 64, 0
1, 20320, Note_on_c, 9, 69, 75
1, 20320, Note_on_c, 9, 46, 105
1, 20321, Note_on_c, 1, 29, 98
1, 20322, Note_on_c, 2, 65, 72
1, 20322, Note_on_c, 2, 60, 73
1, 20322, Note_on_c, 2, 57, 74
1, 20322, Note_on_c, 4, 65, 47
1, 20322, Note_on_c, 4, 57, 46
1, 20324, Note_on_c, 9, 46, 0
1, 20324, Note_on_c, 9, 69, 0
1, 20332, Lyric_t, "from "
1, 20338, Note_on_c, 1, 29, 0
1, 20345, Note_on_c, 2, 65, 0
1, 20347, Note_on_c, 2, 60, 0
1, 20348, Note_on_c, 2, 57, 0
1, 20350, Note_on_c, 0, 65, 0
1, 20351, Note_on_c, 0, 60, 0
1, 20352, Note_on_c, 9, 35, 125
1, 20352, Note_on_c, 9, 42, 115
1, 20353, Note_on_c, 1, 29, 105
1, 20355, Note_on_c, 0, 57, 0
1, 20356, Note_on_c, 9, 42, 0
1, 20356, Note_on_c, 9, 35, 0
1, 20358, Note_on_c, 0, 53, 0
1, 20369, Note_on_c, 4, 65, 0
1, 20374, Note_on_c, 4, 57, 0
1, 20384, Note_on_c, 9, 69, 75
1, 20387, Note_on_c, 1, 29, 0
1, 20388, Note_on_c, 9, 69, 0
1, 20392, Note_on_c, 4, 60, 0
1, 20401, Lyric_t, "underneath "
1, 20407, Note_on_c, 0, 64, 127
1, 20409, Note_on_c, 0, 60, 127
1, 20411, Note_on_c, 0, 55, 127
1, 20414, Note_on_c, 0, 52, 127
1, 20415, Note_on_c, 2, 64, 73
1, 20415, Note_on_c, 2, 55, 74
1, 20415, Note_on_c, 2, 60, 73
1, 20416, Note_on_c, 1, 28, 103
1, 20416, Note_on_c, 4, 60, 49
1, 20416, Note_on_c, 4, 64, 51
1, 20416, Note_on_c, 9, 44, 125
1, 20416, Note_on_c, 9, 69, 75
1, 20416, Note_on_c, 9, 46, 115
1, 20417, Note_on_c, 4, 55, 51
1, 20420, Note_on_c, 9, 46, 0
1, 20420, Note_on_c, 9, 69, 0
1, 20420, Note_on_c, 9, 44, 0
1, 20432, Note_on_c, 1, 28, 0
1, 20442, Note_on_c, 2, 64, 0
1, 20443, Note_on_c, 0, 52, 0
1, 20443, Note_on_c, 0, 60, 0
1, 20448, Note_on_c, 2, 60, 0
1, 20448, Note_on_c, 2, 55, 0
1, 20448, Note_on_c, 0, 55, 0
1, 20448, Note_on_c, 9, 38, 125
1, 20448, Note_on_c, 9, 42, 105
1, 20450, Note_on_c, 0, 64, 0
1, 20452, Note_on_c, 9, 38, 0
1, 20452, Note_on_c, 9, 42, 0
1, 20465, Note_on_c, 4, 64, 0
1, 20466, Note_on_c, 4, 60, 0
1, 20470, Note_on_c, 4, 55, 0
1, 20506, Note_on_c, 0, 67, 127
1, 20507, Note_on_c, 0, 62, 127
1, 20510, Note_on_c, 0, 55, 127
1, 20511, Note_on_c, 0, 59, 127
1, 20511, Note_on_c, 2, 55, 76
1, 20511, Note_on_c, 2, 62, 75
1, 20511, Note_on_c, 2, 59, 77
1, 20511, Note_on_c, 4, 55, 53
1, 20512, Note_on_c, 4, 62, 55
1, 20512, Note_on_c, 4, 59, 57
1, 20512, Note_on_c, 9, 44, 115
1, 20512, Note_on_c, 9, 46, 115
1, 20512, Note_on_c, 9, 69, 75
1, 20513, Note_on_c, 1, 31, 91
1, 20513, Lyric_t, "your "
1, 20516, Note_on_c, 9, 69, 0
1, 20516, Note_on_c, 9, 46, 0
1, 20516, Note_on_c, 9, 44, 0
1, 20544, Note_on_c, 0, 50, 121
1, 20544, Note_on_c, 9, 42, 115
1, 20544, Note_on_c, 9, 35, 125
1, 20548, Note_on_c, 9, 35, 0
1, 20548, Note_on_c, 9, 42, 0
1, 20566, Note_on_c, 1, 31, 0
1, 20567, Lyric_t, "feet "
1, 20567, Lyric_t, "\015"
1, 20570, Note_on_c, 2, 55, 0
1, 20576, Note_on_c, 9, 69, 75
1, 20580, Note_on_c, 9, 69, 0
1, 20594, Note_on_c, 0, 50, 0
1, 20596, Note_on_c, 0, 55, 0
1, 20608, Note_on_c, 1, 31, 103
1, 20608, Note_on_c, 9, 44, 125
1, 20609, Note_on_c, 2, 55, 61
1, 20612, Note_on_c, 9, 44, 0
1, 20612, Note_on_c, 0, 59, 0
1, 20614, Note_on_c, 2, 62, 0
1, 20616, Note_on_c, 4, 62, 0
1, 20617, Note_on_c, 4, 59, 0
1, 20619, Note_on_c, 4, 55, 0
1, 20619, Note_on_c, 2, 59, 0
1, 20624, Note_on_c, 1, 31, 0
1, 20627, Note_on_c, 0, 62, 0
1, 20635, Note_on_c, 0, 67, 0
1, 20635, Note_on_c, 0, 55, 127
1, 20637, Note_on_c, 0, 64, 127
1, 20638, Note_on_c, 0, 67, 127
1, 20639, Note_on_c, 0, 60, 127
1, 20640, Note_on_c, 2, 64, 77
1, 20640, Note_on_c, 2, 60, 75
1, 20640, Note_on_c, 4, 64, 46
1, 20640, Note_on_c, 4, 55, 47
1, 20640, Note_on_c, 4, 60, 54
1, 20640, Note_on_c, 6, 67, 103
1, 20640, Note_on_c, 6, 72, 101
1, 20640, Note_on_c, 9, 38, 125
1, 20640, Note_on_c, 9, 42, 115
1, 20641, Note_on_c, 1, 31, 105
1, 20644, Note_on_c, 9, 42, 0
1, 20644, Note_on_c, 9, 38, 0
1, 20662, Note_on_c, 2, 55, 0
1, 20664, Note_on_c, 4, 64, 0
1, 20665, Note_on_c, 2, 64, 0
1, 20666, Note_on_c, 4, 60, 0
1, 20666, Note_on_c, 2, 60, 0
1, 20667, Note_on_c, 4, 55, 0
1, 20669, Note_on_c, 0, 64, 0
1, 20673, Note_on_c, 0, 67, 0
1, 20675, Note_on_c, 0, 60, 0
1, 20678, Note_on_c, 6, 72, 0
1, 20681, Note_on_c, 0, 55, 0
1, 20684, Note_on_c, 6, 67, 0
1, 20685, Note_on_c, 1, 31, 0
1, 20701, Note_on_c, 0, 67, 127
1, 20701, Note_on_c, 6, 67, 99
1, 20702, Note_on_c, 0, 62, 127
1, 20702, Note_on_c, 6, 71, 103
1, 20703, Note_on_c, 2, 59, 77
1, 20704, Note_on_c, 2, 55, 76
1, 20704, Note_on_c, 2, 62, 77
1, 20704, Note_on_c, 4, 55, 54
1, 20704, Note_on_c, 4, 62, 55
1, 20704, Note_on_c, 4, 59, 57
1, 20704, Note_on_c, 9, 69, 75
1, 20704, Note_on_c, 9, 46, 105
1, 20705, Note_on_c, 0, 55, 127
1, 20705, Note_on_c, 1, 31, 97
1, 20707, Note_on_c, 0, 50, 127
1, 20708, Note_on_c, 9, 46, 0
1, 20708, Note_on_c, 9, 69, 0
1, 20708, Note_on_c, 0, 59, 127
1, 20725, Lyric_t, "No "
1, 20729, Note_on_c, 2, 59, 0
1, 20730, Note_on_c, 2, 62, 0
1, 20730, Note_on_c, 2, 55, 0
1, 20735, Note_on_c, 1, 31, 0
1, 20736, Note_on_c, 0, 67, 0
1, 20736, Note_on_c, 1, 31, 107
1, 20736, Note_on_c, 9, 35, 125
1, 20736, Note_on_c, 9, 42, 115
1, 20737, Note_on_c, 0, 62, 0
1, 20740, Note_on_c, 9, 35, 0
1, 20740, Note_on_c, 9, 42, 0
1, 20740, Note_on_c, 0, 55, 0
1, 20742, Note_on_c, 0, 50, 0
1, 20743, Note_on_c, 0, 59, 0
1, 20744, Note_on_c, 6, 67, 0
1, 20744, Note_on_c, 6, 71, 0
1, 20768, Note_on_c, 9, 69, 75
1, 20772, Note_on_c, 9, 69, 0
1, 20776, Note_on_c, 1, 31, 0
1, 20798, Note_on_c, 0, 67, 127
1, 20799, Note_on_c, 2, 55, 69
1, 20799, Note_on_c, 2, 59, 71
1, 20799, Note_on_c, 2, 62, 72
1, 20800, Note_on_c, 1, 31, 102
1, 20800, Note_on_c, 9, 44, 125
1, 20800, Note_on_c, 9, 69, 75
1, 20801, Note_on_c, 0, 62, 127
1, 20803, Note_on_c, 0, 59, 127
1, 20804, Note_on_c, 9, 69, 0
1, 20804, Note_on_c, 9, 44, 0
1, 20814, Lyric_t, "use "
1, 20818, Note_on_c, 1, 31, 0
1, 20828, Note_on_c, 0, 50, 127
1, 20830, Note_on_c, 0, 55, 127
1, 20831, Note_on_c, 0, 59, 0
1, 20832, Note_on_c, 0, 59, 127
1, 20832, Note_on_c, 1, 31, 105
1, 20832, Note_on_c, 9, 42, 105
1, 20832, Note_on_c, 9, 38, 125
1, 20836, Note_on_c, 9, 38, 0
1, 20836, Note_on_c, 9, 42, 0
1, 20868, Note_on_c, 1, 31, 0
1, 20886, Note_on_c, 0, 67, 0
1, 20889, Note_on_c, 0, 62, 0
1, 20889, Note_on_c, 0, 67, 127
1, 20890, Note_on_c, 0, 62, 127
1, 20896, Note_on_c, 1, 31, 92
1, 20896, Note_on_c, 9, 69, 75
1, 20896, Note_on_c, 9, 44, 115
1, 20900, Note_on_c, 9, 44, 0
1, 20900, Note_on_c, 9, 69, 0
1, 20903, Lyric_t, "complainin\222, "
1, 20903, Lyric_t, "\015"
1, 20906, Note_on_c, 2, 59, 0
1, 20907, Note_on_c, 2, 62, 0
1, 20914, Note_on_c, 1, 31, 0
1, 20916, Note_on_c, 2, 55, 0
1, 20927, Note_on_c, 2, 55, 62
1, 20927, Note_on_c, 2, 59, 72
1, 20928, Note_on_c, 1, 31, 108
1, 20928, Note_on_c, 2, 62, 73
1, 20928, Note_on_c, 9, 35, 125
1, 20928, Note_on_c, 9, 42, 115
1, 20932, Note_on_c, 9, 42, 0
1, 20932, Note_on_c, 9, 35, 0
1, 20960, Note_on_c, 9, 69, 75
1, 20964, Note_on_c, 9, 69, 0
1, 20968, Note_on_c, 1, 31, 0
1, 20988, Note_on_c, 0, 67, 0
1, 20989, Note_on_c, 0, 67, 127
1, 20991, Note_on_c, 0, 62, 0
1, 20991, Note_on_c, 0, 62, 127
1, 20991, Note_on_c, 1, 31, 102
1, 20992, Note_on_c, 9, 44, 125
1, 20993, Note_on_c, 0, 59, 0
1, 20993, Note_on_c, 0, 59, 127
1, 20996, Note_on_c, 9, 44, 0
1, 21005, Lyric_t, "don\222t "
1, 21007, Note_on_c, 1, 31, 0
1, 21018, Note_on_c, 0, 55, 0
1, 21019, Note_on_c, 0, 55, 127
1, 21022, Note_on_c, 0, 67, 0
1, 21023, Note_on_c, 0, 67, 127
1, 21023, Note_on_c, 1, 31, 109
1, 21024, Note_on_c, 9, 38, 125
1, 21024, Note_on_c, 9, 42, 115
1, 21028, Note_on_c, 9, 42, 0
1, 21028, Note_on_c, 9, 38, 0
1, 21054, Note_on_c, 2, 55, 0
1, 21067, Note_on_c, 0, 55, 0
1, 21067, Note_on_c, 1, 31, 0
1, 21069, Note_on_c, 0, 50, 0
1, 21076, Note_on_c, 0, 59, 0
1, 21076, Note_on_c, 0, 67, 0
1, 21079, Note_on_c, 0, 67, 127
1, 21081, Note_on_c, 0, 62, 0
1, 21081, Note_on_c, 0, 62, 121
1, 21087, Lyric_t, "you "
1, 21088, Note_on_c, 9, 69, 75
1, 21088, Note_on_c, 9, 46, 105
1, 21089, Note_on_c, 1, 31, 97
1, 21089, Note_on_c, 2, 55, 70
1, 21092, Note_on_c, 9, 46, 0
1, 21092, Note_on_c, 9, 69, 0
1, 21093, Note_on_c, 4, 62, 0
1, 21094, Note_on_c, 2, 62, 0
1, 21096, Note_on_c, 2, 59, 0
1, 21097, Note_on_c, 4, 59, 0
1, 21105, Note_on_c, 1, 31, 0
1, 21113, Note_on_c, 0, 55, 127
1, 21115, Note_on_c, 0, 67, 0
1, 21115, Note_on_c, 0, 60, 127
1, 21116, Note_on_c, 0, 67, 127
1, 21119, Note_on_c, 4, 60, 54
1, 21120, Note_on_c, 0, 62, 0
1, 21120, Note_on_c, 2, 60, 75
1, 21120, Note_on_c, 4, 64, 58
1, 21120, Note_on_c, 9, 35, 125
1, 21120, Note_on_c, 9, 42, 115
1, 21121, Note_on_c, 0, 64, 119
1, 21121, Note_on_c, 1, 31, 101
1, 21121, Note_on_c, 2, 64, 74
1, 21124, Note_on_c, 9, 42, 0
1, 21124, Note_on_c, 9, 35, 0
1, 21138, Note_on_c, 2, 64, 0
1, 21140, Note_on_c, 2, 60, 0
1, 21141, Note_on_c, 2, 55, 0
1, 21141, Note_on_c, 0, 67, 0
1, 21152, Note_on_c, 9, 69, 75
1, 21156, Note_on_c, 9, 69, 0
1, 21163, Note_on_c, 1, 31, 0
1, 21183, Lyric_t, "worry, "
1, 21184, Note_on_c, 2, 60, 72
1, 21184, Note_on_c, 2, 64, 74
1, 21184, Note_on_c, 2, 55, 72
1, 21184, Note_on_c, 9, 44, 125
1, 21184, Note_on_c, 9, 69, 75
1, 21185, Note_on_c, 1, 31, 101
1, 21188, Note_on_c, 9, 69, 0
1, 21188, Note_on_c, 9, 44, 0
1, 21200, Note_on_c, 1, 31, 0
1, 21207, Note_on_c, 0, 64, 0
1, 21210, Note_on_c, 0, 60, 0
1, 21212, Note_on_c, 0, 60, 127
1, 21214, Note_on_c, 0, 67, 122
1, 21216, Note_on_c, 0, 64, 127
1, 21216, Note_on_c, 9, 38, 125
1, 21216, Note_on_c, 9, 42, 105
1, 21217, Note_on_c, 1, 31, 107
1, 21219, Note_on_c, 0, 67, 0
1, 21220, Note_on_c, 9, 38, 0
1, 21220, Note_on_c, 0, 64, 0
1, 21220, Note_on_c, 9, 42, 0
1, 21233, Lyric_t, "don\222t "
1, 21239, Note_on_c, 0, 60, 0
1, 21245, Note_on_c, 0, 55, 0
1, 21248, Note_on_c, 2, 64, 0
1, 21249, Note_on_c, 2, 60, 0
1, 21257, Note_on_c, 2, 55, 0
1, 21258, Note_on_c, 1, 31, 0
1, 21276, Note_on_c, 0, 67, 127
1, 21278, Note_on_c, 0, 62, 127
1, 21280, Note_on_c, 0, 59, 127
1, 21280, Note_on_c, 1, 31, 103
1, 21280, Note_on_c, 2, 59, 74
1, 21280, Note_on_c, 2, 62, 73
1, 21280, Note_on_c, 2, 55, 73
1, 21280, Note_on_c, 9, 69, 75
1, 21280, Note_on_c, 9, 44, 115
1, 21282, Note_on_c, 0, 55, 127
1, 21284, Note_on_c, 9, 44, 0
1, 21284, Note_on_c, 9, 69, 0
1, 21285, Note_on_c, 0, 50, 115
1, 21286, Note_on_c, 4, 64, 0
1, 21289, Note_on_c, 4, 60, 0
1, 21297, Lyric_t, "you "
1, 21299, Note_on_c, 1, 31, 0
1, 21312, Note_on_c, 1, 31, 107
1, 21312, Note_on_c, 4, 62, 44
1, 21312, Note_on_c, 4, 59, 40
1, 21312, Note_on_c, 9, 42, 115
1, 21312, Note_on_c, 9, 35, 125
1, 21316, Note_on_c, 9, 35, 0
1, 21316, Note_on_c, 9, 42, 0
1, 21341, Note_on_c, 2, 55, 0
1, 21344, Note_on_c, 9, 69, 75
1, 21348, Note_on_c, 9, 69, 0
1, 21354, Lyric_t, "whine "
1, 21354, Lyric_t, "\015"
1, 21357, Note_on_c, 1, 31, 0
1, 21374, Note_on_c, 0, 67, 0
1, 21376, Note_on_c, 1, 31, 100
1, 21376, Note_on_c, 9, 44, 125
1, 21378, Note_on_c, 0, 62, 0
1, 21378, Note_on_c, 0, 62, 127
1, 21378, Note_on_c, 2, 55, 67
1, 21380, Note_on_c, 9, 44, 0
1, 21380, Note_on_c, 0, 67, 127
1, 21387, Note_on_c, 2, 62, 0
1, 21389, Note_on_c, 2, 59, 0
1, 21390, Note_on_c, 1, 31, 0
1, 21390, Note_on_c, 2, 55, 0
1, 21408, Note_on_c, 1, 31, 101
1, 21408, Note_on_c, 9, 38, 125
1, 21408, Note_on_c, 9, 42, 115
1, 21409, Note_on_c, 0, 55, 0
1, 21409, Note_on_c, 0, 55, 127
1, 21409, Note_on_c, 2, 62, 73
1, 21409, Note_on_c, 2, 59, 73
1, 21409, Note_on_c, 2, 55, 71
1, 21411, Note_on_c, 0, 59, 0
1, 21412, Note_on_c, 9, 42, 0
1, 21412, Note_on_c, 9, 38, 0
1, 21412, Note_on_c, 0, 62, 0
1, 21412, Note_on_c, 0, 59, 127
1, 21413, Note_on_c, 0, 62, 127
1, 21414, Note_on_c, 0, 67, 0
1, 21415, Note_on_c, 0, 67, 127
1, 21419, Note_on_c, 0, 67, 0
1, 21420, Note_on_c, 0, 50, 0
1, 21420, Note_on_c, 0, 59, 0
1, 21422, Note_on_c, 0, 62, 0
1, 21427, Note_on_c, 1, 31, 0
1, 21427, Note_on_c, 0, 55, 0
1, 21428, Note_on_c, 2, 55, 0
1, 21454, Note_on_c, 4, 55, 0
1, 21461, Note_on_c, 2, 62, 0
1, 21464, Note_on_c, 4, 62, 0
1, 21465, Note_on_c, 2, 59, 0
1, 21468, Note_on_c, 0, 65, 127
1, 21470, Note_on_c, 4, 59, 0
1, 21470, Note_on_c, 0, 60, 127
1, 21472, Note_on_c, 0, 57, 127
1, 21472, Note_on_c, 1, 31, 96
1, 21472, Note_on_c, 9, 69, 75
1, 21472, Note_on_c, 9, 46, 105
1, 21472, Lyric_t, "Cause "
1, 21474, Note_on_c, 0, 53, 127
1, 21476, Note_on_c, 9, 46, 0
1, 21476, Note_on_c, 9, 69, 0
1, 21490, Note_on_c, 1, 31, 0
1, 21504, Note_on_c, 1, 29, 108
1, 21504, Note_on_c, 2, 57, 73
1, 21504, Note_on_c, 2, 65, 73
1, 21504, Note_on_c, 2, 60, 73
1, 21504, Note_on_c, 4, 57, 58
1, 21504, Note_on_c, 4, 60, 59
1, 21504, Note_on_c, 9, 35, 125
1, 21504, Note_on_c, 9, 42, 115
1, 21505, Note_on_c, 4, 65, 55
1, 21508, Note_on_c, 9, 42, 0
1, 21508, Note_on_c, 9, 35, 0
1, 21519, Lyric_t, "if "
1, 21536, Note_on_c, 9, 69, 75
1, 21540, Note_on_c, 9, 69, 0
1, 21547, Note_on_c, 1, 29, 0
1, 21560, Note_on_c, 0, 65, 0
1, 21561, Note_on_c, 0, 65, 127
1, 21563, Note_on_c, 0, 60, 0
1, 21564, Note_on_c, 0, 60, 127
1, 21566, Note_on_c, 0, 57, 0
1, 21566, Note_on_c, 0, 57, 127
1, 21568, Note_on_c, 1, 29, 101
1, 21568, Note_on_c, 9, 44, 125
1, 21568, Note_on_c, 9, 69, 75
1, 21572, Note_on_c, 9, 69, 0
1, 21572, Note_on_c, 9, 44, 0
1, 21573, Lyric_t, "you "
1, 21583, Note_on_c, 2, 65, 0
1, 21583, Note_on_c, 1, 29, 0
1, 21584, Note_on_c, 2, 57, 0
1, 21586, Note_on_c, 2, 60, 0
1, 21592, Note_on_c, 0, 53, 0
1, 21593, Note_on_c, 0, 53, 127
1, 21595, Note_on_c, 0, 57, 0
1, 21596, Note_on_c, 0, 57, 127
1, 21597, Note_on_c, 0, 60, 0
1, 21598, Note_on_c, 0, 60, 127
1, 21599, Note_on_c, 2, 60, 72
1, 21599, Note_on_c, 2, 65, 76
1, 21599, Note_on_c, 2, 57, 71
1, 21600, Note_on_c, 1, 29, 102
1, 21600, Note_on_c, 9, 38, 125
1, 21600, Note_on_c, 9, 42, 105
1, 21604, Note_on_c, 9, 42, 0
1, 21604, Note_on_c, 9, 38, 0
1, 21621, Lyric_t, "get "
1, 21622, Note_on_c, 0, 65, 0
1, 21625, Note_on_c, 0, 60, 0
1, 21627, Note_on_c, 0, 57, 0
1, 21633, Note_on_c, 2, 57, 0
1, 21638, Note_on_c, 1, 29, 0
1, 21639, Note_on_c, 0, 53, 0
1, 21655, Note_on_c, 0, 64, 127
1, 21657, Note_on_c, 0, 60, 127
1, 21658, Note_on_c, 4, 65, 0
1, 21659, Note_on_c, 4, 57, 0
1, 21659, Note_on_c, 0, 55, 127
1, 21662, Note_on_c, 0, 52, 127
1, 21664, Note_on_c, 1, 29, 96
1, 21664, Note_on_c, 9, 44, 115
1, 21664, Note_on_c, 9, 69, 75
1, 21665, Note_on_c, 2, 65, 0
1, 21668, Note_on_c, 9, 69, 0
1, 21668, Note_on_c, 9, 44, 0
1, 21668, Note_on_c, 4, 60, 0
1, 21668, Lyric_t, "it "
1, 21675, Note_on_c, 2, 60, 0
1, 21682, Note_on_c, 1, 29, 0
1, 21695, Note_on_c, 4, 55, 54
1, 21695, Note_on_c, 4, 60, 51
1, 21695, Note_on_c, 4, 64, 53
1, 21696, Note_on_c, 1, 28, 107
1, 21696, Note_on_c, 2, 60, 70
1, 21696, Note_on_c, 2, 64, 71
1, 21696, Note_on_c, 9, 35, 125
1, 21696, Note_on_c, 9, 42, 115
1, 21697, Note_on_c, 2, 55, 65
1, 21700, Note_on_c, 9, 42, 0
1, 21700, Note_on_c, 9, 35, 0
1, 21709, Note_on_c, 2, 55, 0
1, 21712, Note_on_c, 2, 64, 0
1, 21712, Note_on_c, 2, 60, 0
1, 21726, Lyric_t, "wrong "
1, 21726, Lyric_t, "\015"
1, 21728, Note_on_c, 9, 69, 75
1, 21732, Note_on_c, 9, 69, 0
1, 21732, Note_on_c, 1, 28, 0
1, 21755, Note_on_c, 0, 64, 0
1, 21755, Note_on_c, 0, 64, 127
1, 21757, Note_on_c, 0, 60, 0
1, 21758, Note_on_c, 0, 60, 127
1, 21759, Note_on_c, 1, 28, 103
1, 21759, Note_on_c, 2, 55, 74
1, 21759, Note_on_c, 2, 60, 73
1, 21759, Note_on_c, 2, 64, 74
1, 21760, Note_on_c, 9, 44, 125
1, 21760, Note_on_c, 9, 69, 75
1, 21764, Note_on_c, 9, 69, 0
1, 21764, Note_on_c, 9, 44, 0
1, 21776, Note_on_c, 1, 28, 0
1, 21786, Note_on_c, 0, 52, 0
1, 21786, Note_on_c, 0, 52, 127
1, 21790, Note_on_c, 0, 55, 0
1, 21790, Note_on_c, 0, 55, 127
1, 21791, Note_on_c, 0, 60, 0
1, 21791, Note_on_c, 1, 28, 108
1, 21792, Note_on_c, 0, 64, 0
1, 21792, Note_on_c, 0, 60, 127
1, 21792, Note_on_c, 9, 42, 115
1, 21792, Note_on_c, 9, 38, 125
1, 21793, Note_on_c, 0, 64, 127
1, 21796, Note_on_c, 9, 38, 0
1, 21796, Note_on_c, 9, 42, 0
1, 21811, Note_on_c, 0, 52, 0
1, 21811, Lyric_t, "you\222ll "
1, 21814, Note_on_c, 0, 60, 0
1, 21824, Note_on_c, 9, 69, 75
1, 21825, Note_on_c, 4, 64, 0
1, 21825, Note_on_c, 4, 55, 0
1, 21828, Note_on_c, 9, 69, 0
1, 21832, Note_on_c, 1, 28, 0
1, 21836, Note_on_c, 0, 55, 0
1, 21839, Note_on_c, 0, 64, 0
1, 21845, Note_on_c, 2, 64, 0
1, 21847, Note_on_c, 4, 60, 0
1, 21849, Note_on_c, 0, 65, 127
1, 21853, Note_on_c, 2, 55, 0
1, 21853, Note_on_c, 0, 57, 127
1, 21854, Note_on_c, 0, 60, 127
1, 21855, Note_on_c, 0, 53, 127
1, 21856, Note_on_c, 4, 65, 52
1, 21856, Note_on_c, 4, 60, 45
1, 21856, Note_on_c, 4, 57, 49
1, 21856, Note_on_c, 9, 69, 75
1, 21856, Note_on_c, 9, 46, 105
1, 21857, Note_on_c, 1, 29, 98
1, 21860, Note_on_c, 9, 46, 0
1, 21860, Note_on_c, 9, 69, 0
1, 21870, Note_on_c, 2, 60, 0
1, 21872, Lyric_t, "get "
1, 21874, Note_on_c, 1, 29, 0
1, 21885, Note_on_c, 0, 65, 0
1, 21885, Note_on_c, 0, 60, 0
1, 21888, Note_on_c, 2, 57, 72
1, 21888, Note_on_c, 2, 60, 72
1, 21888, Note_on_c, 2, 65, 72
1, 21888, Note_on_c, 9, 35, 125
1, 21888, Note_on_c, 9, 42, 115
1, 21889, Note_on_c, 0, 57, 0
1, 21889, Note_on_c, 1, 29, 105
1, 21892, Note_on_c, 9, 42, 0
1, 21892, Note_on_c, 9, 35, 0
1, 21894, Note_on_c, 0, 53, 0
1, 21897, Note_on_c, 4, 57, 0
1, 21901, Note_on_c, 4, 65, 0
1, 21910, Lyric_t, "it "
1, 21911, Note_on_c, 4, 60, 0
1, 21912, Note_on_c, 2, 65, 0
1, 21913, Note_on_c, 2, 57, 0
1, 21917, Note_on_c, 2, 60, 0
1, 21920, Note_on_c, 9, 69, 75
1, 21923, Note_on_c, 1, 29, 0
1, 21924, Note_on_c, 9, 69, 0
1, 21943, Note_on_c, 0, 64, 127
1, 21945, Note_on_c, 0, 60, 127
1, 21948, Note_on_c, 0, 55, 127
1, 21949, Note_on_c, 0, 52, 127
1, 21951, Note_on_c, 2, 60, 71
1, 21951, Note_on_c, 2, 64, 74
1, 21952, Note_on_c, 1, 28, 103
1, 21952, Note_on_c, 2, 55, 72
1, 21952, Note_on_c, 4, 64, 54
1, 21952, Note_on_c, 4, 55, 51
1, 21952, Note_on_c, 4, 60, 48
1, 21952, Note_on_c, 9, 44, 125
1, 21952, Note_on_c, 9, 69, 75
1, 21952, Note_on_c, 9, 46, 115
1, 21956, Note_on_c, 9, 46, 0
1, 21956, Note_on_c, 9, 69, 0
1, 21956, Note_on_c, 9, 44, 0
1, 21968, Note_on_c, 1, 28, 0
1, 21973, Note_on_c, 0, 64, 0
1, 21973, Lyric_t, "right "
1, 21975, Note_on_c, 0, 52, 0
1, 21975, Note_on_c, 0, 60, 0
1, 21984, Note_on_c, 0, 55, 0
1, 21984, Note_on_c, 0, 59, 118
1, 21984, Note_on_c, 9, 38, 125
1, 21984, Note_on_c, 9, 42, 105
1, 21986, Note_on_c, 0, 64, 115
1, 21987, Note_on_c, 2, 64, 0
1, 21988, Note_on_c, 9, 42, 0
1, 21988, Note_on_c, 9, 38, 0
1, 21988, Note_on_c, 2, 60, 0
1, 21988, Note_on_c, 0, 59, 0
1, 21989, Note_on_c, 2, 55, 0
1, 21989, Note_on_c, 0, 64, 0
1, 22001, Note_on_c, 4, 64, 0
1, 22003, Note_on_c, 4, 60, 0
1, 22003, Note_on_c, 4, 55, 0
1, 22040, Note_on_c, 0, 67, 127
1, 22042, Note_on_c, 0, 62, 127
1, 22043, Note_on_c, 0, 59, 127
1, 22046, Note_on_c, 0, 55, 127
1, 22046, Note_on_c, 2, 62, 76
1, 22046, Note_on_c, 2, 55, 76
1, 22046, Note_on_c, 2, 59, 77
1, 22047, Note_on_c, 0, 50, 127
1, 22048, Note_on_c, 4, 55, 53
1, 22048, Note_on_c, 4, 62, 53
1, 22048, Note_on_c, 4, 59, 57
1, 22048, Note_on_c, 9, 46, 115
1, 22048, Note_on_c, 9, 69, 75
1, 22048, Note_on_c, 9, 44, 115
1, 22049, Note_on_c, 1, 31, 91
1, 22052, Note_on_c, 9, 44, 0
1, 22052, Note_on_c, 9, 69, 0
1, 22052, Note_on_c, 9, 46, 0
1, 22052, Lyric_t, "next "
1, 22080, Note_on_c, 9, 42, 115
1, 22080, Note_on_c, 9, 35, 125
1, 22084, Note_on_c, 9, 35, 0
1, 22084, Note_on_c, 9, 42, 0
1, 22102, Note_on_c, 1, 31, 0
1, 22112, Note_on_c, 9, 69, 75
1, 22116, Note_on_c, 9, 69, 0
1, 22120, Note_on_c, 2, 55, 0
1, 22120, Note_on_c, 0, 50, 0
1, 22121, Note_on_c, 0, 55, 0
1, 22135, Lyric_t, "time "
1, 22137, Note_on_c, 0, 59, 0
1, 22144, Note_on_c, 1, 31, 103
1, 22144, Note_on_c, 9, 44, 125
1, 22148, Note_on_c, 9, 44, 0
1, 22149, Note_on_c, 4, 62, 0
1, 22150, Note_on_c, 4, 55, 0
1, 22152, Note_on_c, 4, 59, 0
1, 22160, Note_on_c, 1, 31, 0
1, 22160, Note_on_c, 2, 62, 0
1, 22162, Note_on_c, 2, 59, 0
1, 22162, Note_on_c, 0, 62, 0
1, 22171, Note_on_c, 0, 67, 0
1, 22173, Note_on_c, 0, 55, 127
1, 22176, Note_on_c, 4, 55, 55
1, 22176, Note_on_c, 6, 72, 106
1, 22176, Note_on_c, 6, 67, 108
1, 22176, Note_on_c, 9, 38, 125
1, 22176, Note_on_c, 9, 42, 115
1, 22177, Note_on_c, 0, 64, 127
1, 22177, Note_on_c, 1, 31, 105
1, 22177, Note_on_c, 2, 55, 68
1, 22177, Note_on_c, 2, 60, 69
1, 22177, Note_on_c, 2, 64, 69
1, 22177, Note_on_c, 4, 60, 54
1, 22177, Note_on_c, 4, 62, 48
1, 22177, Note_on_c, 4, 64, 50
1, 22178, Note_on_c, 0, 60, 127
1, 22180, Note_on_c, 9, 42, 0
1, 22180, Note_on_c, 9, 38, 0
1, 22190, Note_on_c, 2, 64, 0
1, 22190, Note_on_c, 2, 60, 0
1, 22190, Note_on_c, 2, 55, 0
1, 22199, Note_on_c, 0, 64, 0
1, 22209, Note_on_c, 4, 62, 0
1, 22210, Note_on_c, 0, 60, 0
1, 22214, Note_on_c, 6, 72, 0
1, 22215, Note_on_c, 4, 64, 0
1, 22216, Note_on_c, 4, 55, 0
1, 22220, Note_on_c, 6, 67, 0
1, 22220, Note_on_c, 4, 60, 0
1, 22221, Note_on_c, 1, 31, 0
1, 22235, Note_on_c, 0, 67, 127
1, 22237, Note_on_c, 0, 62, 127
1, 22237, Note_on_c, 6, 67, 104
1, 22238, Note_on_c, 0, 55, 0
1, 22238, Note_on_c, 6, 71, 108
1, 22239, Note_on_c, 0, 59, 127
1, 22239, Note_on_c, 2, 62, 75
1, 22239, Note_on_c, 2, 59, 77
1, 22240, Note_on_c, 0, 55, 127
1, 22240, Note_on_c, 2, 55, 76
1, 22240, Note_on_c, 4, 55, 61
1, 22240, Note_on_c, 9, 46, 105
1, 22240, Note_on_c, 9, 69, 75
1, 22241, Note_on_c, 1, 31, 97
1, 22242, Note_on_c, 0, 50, 127
1, 22244, Note_on_c, 9, 69, 0
1, 22244, Note_on_c, 9, 46, 0
1, 22262, Note_on_c, 6, 67, 0
1, 22263, Note_on_c, 6, 71, 0
1, 22268, Note_on_c, 0, 59, 0
1, 22269, Note_on_c, 0, 62, 0
1, 22270, Note_on_c, 0, 67, 0
1, 22270, Note_on_c, 0, 50, 0
1, 22270, Pitch_bend_c, 8, 8187
1, 22271, Note_on_c, 1, 31, 0
1, 22272, Note_on_c, 2, 55, 0
1, 22272, Note_on_c, 1, 31, 107
1, 22272, Note_on_c, 2, 53, 74
1, 22272, Note_on_c, 6, 62, 55
1, 22272, Note_on_c, 8, 55, 60
1, 22272, Note_on_c, 9, 35, 125
1, 22272, Note_on_c, 9, 42, 115
1, 22274, Note_on_c, 2, 62, 0
1, 22275, Note_on_c, 2, 59, 0
1, 22275, Lyric_t, "(next "
1, 22276, Note_on_c, 9, 35, 0
1, 22276, Note_on_c, 9, 42, 0
1, 22277, Note_on_c, 0, 55, 0
1, 22279, Note_on_c, 2, 53, 0
1, 22296, Note_on_c, 8, 55, 0
1, 22304, Note_on_c, 9, 69, 75
1, 22308, Note_on_c, 9, 69, 0
1, 22313, Note_on_c, 1, 31, 0
1, 22335, Note_on_c, 2, 53, 85
1, 22335, Note_on_c, 3, 53, 75
1, 22336, Note_on_c, 2, 50, 80
1, 22336, Note_on_c, 2, 62, 77
1, 22336, Note_on_c, 2, 58, 79
1, 22336, Note_on_c, 9, 44, 125
1, 22336, Note_on_c, 9, 69, 75
1, 22337, Note_on_c, 1, 31, 105
1, 22338, Lyric_t, "time). "
1, 22338, Lyric_t, "\015"
1, 22338, Lyric_t, "\012"
1, 22340, Note_on_c, 9, 69, 0
1, 22340, Note_on_c, 9, 44, 0
1, 22352, Note_on_c, 1, 31, 0
1, 22368, Note_on_c, 9, 42, 105
1, 22368, Note_on_c, 9, 38, 125
1, 22369, Note_on_c, 9, 59, 96
1, 22372, Note_on_c, 9, 38, 0
1, 22372, Note_on_c, 9, 42, 0
1, 22373, Note_on_c, 9, 59, 0
1, 22374, Note_on_c, 8, 60, 113
1, 22375, Pitch_bend_c, 8, 8266
1, 22382, Pitch_bend_c, 8, 8514
1, 22383, Note_on_c, 1, 31, 101
1, 22385, Pitch_bend_c, 8, 8754
1, 22389, Pitch_bend_c, 8, 8993
1, 22398, Note_on_c, 8, 60, 0
1, 22406, Pitch_bend_c, 8, 8192
1, 22408, Note_on_c, 8, 62, 71
1, 22410, Note_on_c, 1, 31, 0
1, 22423, Note_on_c, 8, 62, 0
1, 22429, Note_on_c, 8, 67, 92
1, 22432, Note_on_c, 9, 69, 75
1, 22432, Note_on_c, 9, 44, 115
1, 22433, Note_on_c, 1, 31, 98
1, 22436, Note_on_c, 9, 44, 0
1, 22436, Note_on_c, 9, 69, 0
1, 22448, Note_on_c, 1, 31, 0
1, 22456, Note_on_c, 2, 58, 0
1, 22459, Note_on_c, 8, 67, 0
1, 22459, Note_on_c, 2, 62, 0
1, 22464, Note_on_c, 6, 62, 0
1, 22464, Note_on_c, 2, 53, 0
1, 22464, Note_on_c, 2, 61, 73
1, 22464, Note_on_c, 6, 61, 59
1, 22464, Note_on_c, 9, 35, 125
1, 22464, Note_on_c, 9, 42, 115
1, 22465, Note_on_c, 2, 50, 0
1, 22465, Note_on_c, 1, 31, 103
1, 22465, Note_on_c, 2, 57, 73
1, 22465, Note_on_c, 2, 49, 78
1, 22466, Note_on_c, 3, 53, 0
1, 22466, Note_on_c, 2, 52, 77
1, 22466, Note_on_c, 3, 52, 64
1, 22466, Note_on_c, 8, 65, 77
1, 22468, Note_on_c, 9, 42, 0
1, 22468, Note_on_c, 9, 35, 0
1, 22481, Note_on_c, 2, 49, 0
1, 22485, Note_on_c, 2, 61, 0
1, 22486, Note_on_c, 2, 57, 0
1, 22488, Note_on_c, 8, 65, 0
1, 22490, Note_on_c, 2, 52, 0
1, 22494, Note_on_c, 1, 31, 0
1, 22496, Note_on_c, 9, 69, 75
1, 22500, Note_on_c, 9, 69, 0
1, 22526, Note_on_c, 2, 49, 78
1, 22527, Note_on_c, 2, 57, 76
1, 22527, Note_on_c, 2, 61, 77
1, 22527, Note_on_c, 8, 66, 64
1, 22528, Note_on_c, 1, 31, 98
1, 22528, Note_on_c, 2, 52, 78
1, 22528, Note_on_c, 9, 69, 75
1, 22528, Note_on_c, 9, 44, 125
1, 22532, Note_on_c, 9, 44, 0
1, 22532, Note_on_c, 9, 69, 0
1, 22533, Pitch_bend_c, 8, 8458
1, 22536, Pitch_bend_c, 8, 8692
1, 22541, Pitch_bend_c, 8, 8842
1, 22544, Note_on_c, 1, 31, 0
1, 22549, Pitch_bend_c, 8, 8879
1, 22560, Note_on_c, 1, 31, 104
1, 22560, Note_on_c, 9, 38, 125
1, 22560, Note_on_c, 9, 42, 115
1, 22564, Note_on_c, 9, 42, 0
1, 22564, Note_on_c, 9, 38, 0
1, 22570, Pitch_bend_c, 8, 8932
1, 22589, Note_on_c, 8, 66, 0
1, 22592, Note_on_c, 9, 69, 75
1, 22596, Note_on_c, 9, 69, 0
1, 22601, Note_on_c, 1, 31, 0
1, 22623, Pitch_bend_c, 8, 8192
1, 22624, Note_on_c, 1, 31, 102
1, 22624, Note_on_c, 9, 69, 75
1, 22624, Note_on_c, 9, 44, 115
1, 22625, Note_on_c, 8, 66, 97
1, 22628, Note_on_c, 9, 44, 0
1, 22628, Note_on_c, 9, 69, 0
1, 22642, Note_on_c, 2, 57, 0
1, 22642, Note_on_c, 1, 31, 0
1, 22643, Note_on_c, 3, 52, 0
1, 22644, Note_on_c, 2, 61, 0
1, 22645, Pitch_bend_c, 8, 8038
1, 22653, Pitch_bend_c, 8, 7947
1, 22654, Note_on_c, 2, 52, 0
1, 22656, Note_on_c, 6, 61, 0
1, 22656, Note_on_c, 1, 31, 104
1, 22656, Note_on_c, 3, 53, 75
1, 22656, Note_on_c, 6, 60, 50
1, 22656, Pitch_bend_c, 8, 7793
1, 22656, Note_on_c, 9, 59, 77
1, 22656, Note_on_c, 9, 35, 125
1, 22656, Note_on_c, 9, 42, 115
1, 22657, Note_on_c, 2, 57, 73
1, 22657, Note_on_c, 2, 60, 72
1, 22657, Note_on_c, 2, 53, 79
1, 22657, Note_on_c, 2, 48, 78
1, 22660, Note_on_c, 9, 42, 0
1, 22660, Note_on_c, 9, 35, 0
1, 22660, Note_on_c, 9, 59, 0
1, 22660, Pitch_bend_c, 8, 7614
1, 22664, Note_on_c, 2, 49, 0
1, 22667, Pitch_bend_c, 8, 7537
1, 22676, Pitch_bend_c, 8, 7505
1, 22680, Note_on_c, 2, 60, 0
1, 22680, Note_on_c, 2, 53, 0
1, 22681, Note_on_c, 2, 57, 0
1, 22682, Note_on_c, 2, 48, 0
1, 22688, Note_on_c, 8, 66, 0
1, 22688, Note_on_c, 9, 69, 75
1, 22692, Note_on_c, 9, 69, 0
1, 22697, Note_on_c, 1, 31, 0
1, 22697, Pitch_bend_c, 8, 8192
1, 22699, Note_on_c, 8, 62, 56
1, 22719, Note_on_c, 8, 62, 0
1, 22720, Note_on_c, 1, 31, 96
1, 22720, Note_on_c, 2, 53, 78
1, 22720, Note_on_c, 2, 60, 73
1, 22720, Note_on_c, 2, 48, 78
1, 22720, Note_on_c, 2, 57, 74
1, 22720, Note_on_c, 9, 44, 125
1, 22720, Note_on_c, 9, 69, 75
1, 22720, Note_on_c, 9, 59, 88
1, 22724, Note_on_c, 9, 59, 0
1, 22724, Note_on_c, 9, 69, 0
1, 22724, Note_on_c, 9, 44, 0
1, 22726, Note_on_c, 8, 60, 98
1, 22733, Note_on_c, 1, 31, 0
1, 22741, Pitch_bend_c, 8, 8847
1, 22751, Pitch_bend_c, 8, 8884
1, 22752, Note_on_c, 1, 31, 105
1, 22752, Note_on_c, 9, 42, 105
1, 22752, Note_on_c, 9, 38, 125
1, 22754, Pitch_bend_c, 8, 8223
1, 22756, Note_on_c, 9, 38, 0
1, 22756, Note_on_c, 9, 42, 0
1, 22764, Pitch_bend_c, 8, 8199
1, 22772, Pitch_bend_c, 8, 8179
1, 22792, Pitch_bend_c, 8, 6799
1, 22794, Note_on_c, 2, 53, 0
1, 22795, Note_on_c, 1, 31, 0
1, 22796, Note_on_c, 2, 60, 0
1, 22798, Note_on_c, 2, 57, 0
1, 22806, Note_on_c, 3, 53, 0
1, 22811, Pitch_bend_c, 8, 8192
1, 22812, Note_on_c, 8, 60, 0
1, 22812, Note_on_c, 2, 48, 0
1, 22814, Note_on_c, 8, 55, 44
1, 22815, Note_on_c, 6, 60, 0
1, 22815, Note_on_c, 2, 55, 80
1, 22815, Note_on_c, 6, 59, 58
1, 22816, Note_on_c, 1, 31, 100
1, 22816, Note_on_c, 2, 50, 78
1, 22816, Note_on_c, 3, 50, 62
1, 22816, Note_on_c, 9, 44, 115
1, 22816, Note_on_c, 9, 69, 75
1, 22816, Note_on_c, 9, 59, 95
1, 22817, Note_on_c, 2, 59, 74
1, 22820, Note_on_c, 9, 59, 0
1, 22820, Note_on_c, 9, 69, 0
1, 22820, Note_on_c, 9, 44, 0
1, 22832, Note_on_c, 1, 31, 0
1, 22848, Note_on_c, 1, 31, 105
1, 22848, Note_on_c, 9, 35, 125
1, 22848, Note_on_c, 9, 42, 115
1, 22849, Note_on_c, 8, 55, 0
1, 22852, Note_on_c, 9, 42, 0
1, 22852, Note_on_c, 9, 35, 0
1, 22854, Note_on_c, 8, 58, 95
1, 22880, Note_on_c, 9, 69, 75
1, 22884, Note_on_c, 9, 69, 0
1, 22889, Note_on_c, 1, 31, 0
1, 22905, Note_on_c, 8, 58, 0
1, 22909, Pitch_bend_c, 8, 8187
1, 22910, Note_on_c, 8, 55, 63
1, 22912, Note_on_c, 1, 31, 98
1, 22912, Note_on_c, 9, 44, 125
1, 22912, Note_on_c, 9, 51, 95
1, 22916, Note_on_c, 9, 51, 0
1, 22916, Note_on_c, 9, 44, 0
1, 22926, Note_on_c, 1, 31, 0
1, 22930, Note_on_c, 3, 50, 0
1, 22938, Pitch_bend_c, 8, 8258
1, 22944, Note_on_c, 1, 31, 104
1, 22944, Note_on_c, 3, 53, 94
1, 22944, Note_on_c, 9, 38, 125
1, 22944, Note_on_c, 9, 42, 115
1, 22945, Note_on_c, 9, 59, 102
1, 22948, Note_on_c, 9, 42, 0
1, 22948, Note_on_c, 9, 38, 0
1, 22949, Note_on_c, 9, 59, 0
1, 22952, Pitch_bend_c, 8, 8179
1, 22968, Pitch_bend_c, 8, 8213
1, 22973, Pitch_bend_c, 8, 8322
1, 22980, Note_on_c, 1, 31, 0
1, 22982, Pitch_bend_c, 8, 8295
1, 22987, Pitch_bend_c, 8, 8187
1, 22999, Pitch_bend_c, 8, 8213
1, 23003, Pitch_bend_c, 8, 8322
1, 23008, Note_on_c, 3, 53, 0
1, 23008, Note_on_c, 1, 31, 106
1, 23008, Note_on_c, 3, 55, 75
1, 23008, Note_on_c, 9, 69, 75
1, 23008, Note_on_c, 9, 44, 115
1, 23009, Note_on_c, 9, 59, 89
1, 23010, Note_on_c, 2, 50, 0
1, 23012, Note_on_c, 9, 44, 0
1, 23012, Note_on_c, 9, 69, 0
1, 23013, Note_on_c, 9, 59, 0
1, 23013, Pitch_bend_c, 8, 8277
1, 23014, Note_on_c, 2, 55, 0
1, 23018, Pitch_bend_c, 8, 8161
1, 23025, Note_on_c, 2, 59, 0
1, 23027, Note_on_c, 1, 31, 0
1, 23034, Note_on_c, 6, 59, 0
1, 23035, Note_on_c, 8, 55, 0
1, 23040, Note_on_c, 1, 31, 106
1, 23040, Note_on_c, 2, 53, 74
1, 23040, Note_on_c, 6, 62, 62
1, 23040, Note_on_c, 9, 35, 125
1, 23040, Note_on_c, 9, 42, 115
1, 23044, Note_on_c, 9, 42, 0
1, 23044, Note_on_c, 9, 35, 0
1, 23047, Note_on_c, 2, 53, 0
1, 23048, Note_on_c, 3, 55, 0
1, 23072, Note_on_c, 9, 69, 75
1, 23076, Note_on_c, 9, 69, 0
1, 23081, Note_on_c, 1, 31, 0
1, 23103, Note_on_c, 2, 53, 85
1, 23103, Note_on_c, 3, 53, 79
1, 23104, Note_on_c, 1, 31, 98
1, 23104, Note_on_c, 2, 62, 77
1, 23104, Note_on_c, 2, 58, 79
1, 23104, Note_on_c, 2, 50, 80
1, 23104, Note_on_c, 9, 69, 75
1, 23104, Note_on_c, 9, 44, 125
1, 23105, Note_on_c, 9, 59, 74
1, 23108, Note_on_c, 9, 44, 0
1, 23108, Note_on_c, 9, 69, 0
1, 23109, Note_on_c, 9, 59, 0
1, 23119, Note_on_c, 1, 31, 0
1, 23136, Note_on_c, 1, 31, 103
1, 23136, Note_on_c, 9, 38, 125
1, 23136, Note_on_c, 9, 42, 105
1, 23140, Note_on_c, 9, 42, 0
1, 23140, Note_on_c, 9, 38, 0
1, 23180, Note_on_c, 1, 31, 0
1, 23200, Note_on_c, 1, 31, 102
1, 23200, Note_on_c, 9, 69, 75
1, 23200, Note_on_c, 9, 44, 115
1, 23204, Note_on_c, 9, 44, 0
1, 23204, Note_on_c, 9, 69, 0
1, 23214, Note_on_c, 1, 31, 0
1, 23224, Note_on_c, 2, 58, 0
1, 23227, Note_on_c, 2, 62, 0
1, 23232, Note_on_c, 2, 53, 0
1, 23232, Note_on_c, 6, 62, 0
1, 23232, Note_on_c, 1, 31, 104
1, 23232, Note_on_c, 2, 61, 73
1, 23232, Note_on_c, 6, 61, 63
1, 23232, Note_on_c, 9, 35, 125
1, 23232, Note_on_c, 9, 42, 115
1, 23233, Note_on_c, 2, 50, 0
1, 23233, Note_on_c, 3, 53, 0
1, 23233, Note_on_c, 2, 57, 73
1, 23233, Note_on_c, 2, 49, 78
1, 23233, Note_on_c, 3, 52, 62
1, 23234, Note_on_c, 2, 52, 77
1, 23236, Note_on_c, 9, 42, 0
1, 23236, Note_on_c, 9, 35, 0
1, 23249, Note_on_c, 2, 49, 0
1, 23253, Note_on_c, 2, 61, 0
1, 23254, Note_on_c, 2, 57, 0
1, 23258, Note_on_c, 2, 52, 0
1, 23264, Note_on_c, 9, 69, 75
1, 23268, Note_on_c, 9, 69, 0
1, 23275, Note_on_c, 1, 31, 0
1, 23294, Note_on_c, 2, 49, 78
1, 23295, Note_on_c, 2, 57, 76
1, 23295, Note_on_c, 2, 61, 77
1, 23296, Note_on_c, 2, 52, 78
1, 23296, Note_on_c, 9, 69, 75
1, 23296, Note_on_c, 9, 44, 125
1, 23297, Note_on_c, 1, 31, 98
1, 23300, Note_on_c, 9, 44, 0
1, 23300, Note_on_c, 9, 69, 0
1, 23309, Note_on_c, 1, 31, 0
1, 23328, Note_on_c, 9, 38, 125
1, 23328, Note_on_c, 9, 42, 115
1, 23329, Note_on_c, 1, 31, 101
1, 23332, Note_on_c, 9, 42, 0
1, 23332, Note_on_c, 9, 38, 0
1, 23360, Note_on_c, 9, 69, 75
1, 23364, Note_on_c, 9, 69, 0
1, 23371, Note_on_c, 1, 31, 0
1, 23392, Note_on_c, 1, 31, 96
1, 23392, Note_on_c, 9, 44, 115
1, 23392, Note_on_c, 9, 69, 75
1, 23396, Note_on_c, 9, 69, 0
1, 23396, Note_on_c, 9, 44, 0
1, 23405, Note_on_c, 1, 31, 0
1, 23410, Note_on_c, 2, 57, 0
1, 23412, Note_on_c, 3, 52, 0
1, 23412, Note_on_c, 2, 61, 0
1, 23421, Note_on_c, 8, 61, 126
1, 23422, Note_on_c, 2, 52, 0
1, 23424, Note_on_c, 1, 31, 108
1, 23424, Note_on_c, 3, 48, 62
1, 23424, Note_on_c, 9, 42, 115
1, 23424, Note_on_c, 9, 35, 125
1, 23425, Note_on_c, 6, 61, 0
1, 23425, Note_on_c, 2, 53, 79
1, 23425, Note_on_c, 2, 57, 73
1, 23425, Note_on_c, 2, 60, 72
1, 23425, Note_on_c, 2, 48, 78
1, 23425, Note_on_c, 6, 60, 56
1, 23427, Note_on_c, 9, 59, 60
1, 23428, Note_on_c, 9, 35, 0
1, 23428, Note_on_c, 9, 42, 0
1, 23431, Note_on_c, 9, 59, 0
1, 23432, Note_on_c, 2, 49, 0
1, 23434, Pitch_bend_c, 8, 7633
1, 23448, Note_on_c, 2, 53, 0
1, 23448, Note_on_c, 2, 60, 0
1, 23449, Note_on_c, 2, 57, 0
1, 23449, Pitch_bend_c, 8, 7561
1, 23450, Note_on_c, 2, 48, 0
1, 23456, Note_on_c, 9, 69, 75
1, 23460, Note_on_c, 9, 69, 0
1, 23461, Pitch_bend_c, 8, 7537
1, 23466, Note_on_c, 1, 31, 0
1, 23471, Pitch_bend_c, 8, 7513
1, 23486, Pitch_bend_c, 8, 6139
1, 23488, Note_on_c, 1, 31, 97
1, 23488, Note_on_c, 2, 48, 78
1, 23488, Note_on_c, 2, 53, 78
1, 23488, Note_on_c, 2, 57, 74
1, 23488, Note_on_c, 2, 60, 73
1, 23488, Note_on_c, 9, 44, 125
1, 23488, Note_on_c, 9, 69, 75
1, 23492, Note_on_c, 9, 69, 0
1, 23492, Note_on_c, 9, 44, 0
1, 23500, Note_on_c, 1, 31, 0
1, 23507, Note_on_c, 8, 61, 0
1, 23517, Pitch_bend_c, 8, 8192
1, 23519, Note_on_c, 8, 61, 103
1, 23520, Note_on_c, 1, 31, 107
1, 23520, Note_on_c, 9, 42, 105
1, 23520, Note_on_c, 9, 38, 125
1, 23524, Note_on_c, 9, 38, 0
1, 23524, Note_on_c, 9, 42, 0
1, 23526, Pitch_bend_c, 8, 7556
1, 23550, Pitch_bend_c, 8, 7489
1, 23562, Note_on_c, 2, 53, 0
1, 23564, Note_on_c, 2, 60, 0
1, 23566, Note_on_c, 2, 57, 0
1, 23567, Note_on_c, 1, 31, 0
1, 23568, Note_on_c, 6, 60, 0
1, 23579, Pitch_bend_c, 8, 6160
1, 23580, Note_on_c, 3, 48, 0
1, 23580, Note_on_c, 2, 48, 0
1, 23583, Note_on_c, 2, 55, 80
1, 23583, Note_on_c, 6, 59, 53
1, 23584, Note_on_c, 1, 31, 97
1, 23584, Note_on_c, 2, 50, 78
1, 23584, Note_on_c, 3, 50, 75
1, 23584, Note_on_c, 9, 69, 75
1, 23584, Note_on_c, 9, 44, 115
1, 23585, Note_on_c, 2, 59, 74
1, 23585, Note_on_c, 9, 51, 84
1, 23588, Note_on_c, 9, 44, 0
1, 23588, Note_on_c, 9, 69, 0
1, 23589, Note_on_c, 9, 51, 0
1, 23597, Note_on_c, 8, 61, 0
1, 23598, Note_on_c, 1, 31, 0
1, 23610, Pitch_bend_c, 8, 8192
1, 23612, Note_on_c, 8, 61, 97
1, 23616, Note_on_c, 1, 31, 107
1, 23616, Note_on_c, 9, 42, 115
1, 23616, Note_on_c, 9, 35, 125
1, 23617, Note_on_c, 9, 59, 89
1, 23620, Note_on_c, 9, 35, 0
1, 23620, Note_on_c, 9, 42, 0
1, 23621, Note_on_c, 9, 59, 0
1, 23630, Pitch_bend_c, 8, 7473
1, 23648, Note_on_c, 9, 69, 75
1, 23650, Note_on_c, 9, 51, 78
1, 23652, Note_on_c, 9, 69, 0
1, 23654, Note_on_c, 9, 51, 0
1, 23660, Note_on_c, 1, 31, 0
1, 23679, Pitch_bend_c, 8, 6139
1, 23680, Note_on_c, 9, 44, 125
1, 23681, Note_on_c, 1, 31, 90
1, 23683, Note_on_c, 9, 59, 77
1, 23684, Note_on_c, 9, 44, 0
1, 23687, Note_on_c, 9, 59, 0
1, 23690, Note_on_c, 1, 31, 0
1, 23703, Note_on_c, 8, 61, 0
1, 23711, Pitch_bend_c, 8, 8205
1, 23712, Note_on_c, 1, 31, 104
1, 23712, Note_on_c, 9, 38, 125
1, 23712, Note_on_c, 9, 42, 115
1, 23713, Note_on_c, 3, 50, 0
1, 23713, Note_on_c, 3, 53, 87
1, 23713, Note_on_c, 8, 55, 60
1, 23714, Pitch_bend_c, 8, 8057
1, 23715, Pitch_bend_c, 8, 8057
1, 23716, Note_on_c, 9, 42, 0
1, 23716, Note_on_c, 9, 38, 0
1, 23719, Pitch_bend_c, 8, 8187
1, 23753, Note_on_c, 1, 31, 0
1, 23763, Note_on_c, 8, 55, 0
1, 23774, Note_on_c, 3, 53, 0
1, 23775, Pitch_bend_c, 7, 8064
1, 23776, Note_on_c, 1, 31, 85
1, 23776, Note_on_c, 3, 55, 75
1, 23776, Pitch_bend_c, 7, 7936
1, 23776, Note_on_c, 9, 44, 115
1, 23776, Note_on_c, 9, 69, 75
1, 23777, Pitch_bend_c, 7, 7552
1, 23778, Note_on_c, 2, 50, 0
1, 23778, Pitch_bend_c, 7, 7296
1, 23779, Pitch_bend_c, 7, 6784
1, 23780, Note_on_c, 9, 69, 0
1, 23780, Note_on_c, 9, 44, 0
1, 23780, Pitch_bend_c, 7, 6528
1, 23780, Note_on_c, 8, 58, 53
1, 23781, Pitch_bend_c, 7, 6144
1, 23782, Note_on_c, 2, 55, 0
1, 23782, Pitch_bend_c, 7, 5760
1, 23783, Pitch_bend_c, 7, 4992
1, 23784, Note_on_c, 1, 31, 0
1, 23784, Pitch_bend_c, 7, 4224
1, 23785, Pitch_bend_c, 7, 3968
1, 23786, Pitch_bend_c, 7, 3584
1, 23787, Pitch_bend_c, 7, 2944
1, 23788, Pitch_bend_c, 7, 2560
1, 23789, Pitch_bend_c, 7, 2048
1, 23790, Pitch_bend_c, 7, 1536
1, 23791, Pitch_bend_c, 7, 1152
1, 23792, Pitch_bend_c, 7, 768
1, 23793, Note_on_c, 2, 59, 0
1, 23794, Pitch_bend_c, 7, 256
1, 23795, Pitch_bend_c, 7, 0
1, 23797, Note_on_c, 6, 59, 0
1, 23807, Note_on_c, 8, 58, 0
1, 23807, Note_on_c, 1, 31, 104
1, 23808, Note_on_c, 2, 53, 74
1, 23808, Note_on_c, 6, 62, 60
1, 23808, Note_on_c, 9, 42, 115
1, 23808, Note_on_c, 9, 59, 73
1, 23808, Note_on_c, 9, 35, 125
1, 23812, Note_on_c, 9, 35, 0
1, 23812, Note_on_c, 9, 59, 0
1, 23812, Note_on_c, 9, 42, 0
1, 23815, Note_on_c, 3, 55, 0
1, 23815, Note_on_c, 2, 53, 0
1, 23840, Note_on_c, 9, 69, 75
1, 23844, Note_on_c, 9, 69, 0
1, 23862, Note_on_c, 1, 31, 0
1, 23871, Note_on_c, 2, 53, 85
1, 23872, Note_on_c, 2, 50, 80
1, 23872, Note_on_c, 2, 62, 77
1, 23872, Note_on_c, 2, 58, 79
1, 23872, Note_on_c, 3, 53, 79
1, 23872, Note_on_c, 9, 44, 125
1, 23872, Note_on_c, 9, 69, 75
1, 23874, Note_on_c, 1, 31, 93
1, 23876, Note_on_c, 9, 69, 0
1, 23876, Note_on_c, 9, 44, 0
1, 23885, Note_on_c, 1, 31, 0
1, 23904, Note_on_c, 1, 31, 107
1, 23904, Note_on_c, 9, 38, 125
1, 23904, Note_on_c, 9, 42, 105
1, 23904, Note_on_c, 9, 59, 89
1, 23908, Note_on_c, 9, 59, 0
1, 23908, Note_on_c, 9, 42, 0
1, 23908, Note_on_c, 9, 38, 0
1, 23947, Note_on_c, 1, 31, 0
1, 23968, Note_on_c, 1, 31, 98
1, 23968, Note_on_c, 9, 44, 115
1, 23968, Note_on_c, 9, 69, 75
1, 23971, Note_on_c, 8, 65, 107
1, 23972, Note_on_c, 9, 69, 0
1, 23972, Note_on_c, 9, 44, 0
1, 23981, Pitch_bend_c, 8, 9577
1, 23982, Note_on_c, 1, 31, 0
1, 23992, Note_on_c, 2, 58, 0
1, 23992, Pitch_bend_c, 8, 9542
1, 23995, Note_on_c, 2, 62, 0
1, 23997, Note_on_c, 3, 53, 0
1, 23999, Note_on_c, 1, 31, 108
1, 23999, Pitch_bend_c, 8, 9481
1, 24000, Note_on_c, 2, 53, 0
1, 24000, Note_on_c, 6, 62, 0
1, 24000, Note_on_c, 2, 61, 73
1, 24000, Note_on_c, 3, 52, 60
1, 24000, Note_on_c, 6, 61, 63
1, 24000, Note_on_c, 9, 42, 115
1, 24000, Note_on_c, 9, 35, 125
1, 24001, Note_on_c, 2, 50, 0
1, 24001, Note_on_c, 2, 57, 73
1, 24001, Note_on_c, 2, 49, 78
1, 24002, Note_on_c, 2, 52, 77
1, 24004, Note_on_c, 9, 35, 0
1, 24004, Note_on_c, 9, 42, 0
1, 24010, Pitch_bend_c, 8, 9550
1, 24017, Note_on_c, 2, 49, 0
1, 24021, Note_on_c, 2, 61, 0
1, 24021, Pitch_bend_c, 8, 9497
1, 24022, Note_on_c, 2, 57, 0
1, 24026, Note_on_c, 2, 52, 0
1, 24032, Note_on_c, 9, 69, 75
1, 24036, Note_on_c, 9, 69, 0
1, 24038, Pitch_bend_c, 8, 9622
1, 24049, Note_on_c, 1, 31, 0
1, 24049, Pitch_bend_c, 8, 9489
1, 24055, Pitch_bend_c, 8, 9462
1, 24062, Note_on_c, 2, 49, 78
1, 24063, Note_on_c, 2, 57, 76
1, 24063, Note_on_c, 2, 61, 77
1, 24064, Note_on_c, 2, 52, 78
1, 24064, Note_on_c, 9, 44, 125
1, 24065, Note_on_c, 1, 31, 92
1, 24065, Pitch_bend_c, 8, 9577
1, 24068, Note_on_c, 9, 44, 0
1, 24072, Pitch_bend_c, 8, 9686
1, 24075, Note_on_c, 1, 31, 0
1, 24080, Pitch_bend_c, 8, 9489
1, 24094, Pitch_bend_c, 8, 9524
1, 24095, Note_on_c, 1, 31, 104
1, 24096, Note_on_c, 9, 42, 115
1, 24096, Note_on_c, 9, 38, 125
1, 24097, Pitch_bend_c, 8, 9622
1, 24099, Pitch_bend_c, 8, 9739
1, 24100, Note_on_c, 9, 38, 0
1, 24100, Note_on_c, 9, 42, 0
1, 24106, Pitch_bend_c, 8, 9702
1, 24109, Pitch_bend_c, 8, 9508
1, 24115, Pitch_bend_c, 8, 9470
1, 24131, Pitch_bend_c, 8, 9497
1, 24143, Note_on_c, 1, 31, 0
1, 24143, Pitch_bend_c, 8, 9516
1, 24151, Pitch_bend_c, 8, 9516
1, 24153, Note_on_c, 8, 65, 0
1, 24160, Note_on_c, 9, 69, 75
1, 24160, Note_on_c, 9, 44, 115
1, 24161, Note_on_c, 1, 31, 100
1, 24164, Note_on_c, 9, 44, 0
1, 24164, Note_on_c, 9, 69, 0
1, 24173, Note_on_c, 3, 52, 0
1, 24173, Note_on_c, 1, 31, 0
1, 24178, Note_on_c, 2, 57, 0
1, 24180, Note_on_c, 2, 61, 0
1, 24188, Pitch_bend_c, 8, 8215
1, 24190, Note_on_c, 2, 52, 0
1, 24191, Note_on_c, 8, 70, 76
1, 24192, Note_on_c, 6, 61, 0
1, 24192, Note_on_c, 1, 31, 105
1, 24192, Note_on_c, 3, 48, 65
1, 24192, Note_on_c, 6, 60, 59
1, 24192, Note_on_c, 9, 35, 125
1, 24192, Note_on_c, 9, 42, 115
1, 24193, Note_on_c, 2, 57, 73
1, 24193, Note_on_c, 2, 48, 78
1, 24193, Note_on_c, 2, 60, 72
1, 24193, Note_on_c, 2, 53, 79
1, 24196, Note_on_c, 9, 42, 0
1, 24196, Note_on_c, 9, 35, 0
1, 24200, Note_on_c, 2, 49, 0
1, 24213, Note_on_c, 8, 70, 0
1, 24216, Note_on_c, 2, 60, 0
1, 24216, Note_on_c, 2, 53, 0
1, 24217, Note_on_c, 2, 57, 0
1, 24218, Note_on_c, 2, 48, 0
1, 24220, Note_on_c, 8, 67, 103
1, 24224, Note_on_c, 9, 69, 75
1, 24228, Note_on_c, 9, 69, 0
1, 24235, Note_on_c, 1, 31, 0
1, 24247, Pitch_bend_c, 8, 8213
1, 24256, Note_on_c, 2, 57, 74
1, 24256, Note_on_c, 2, 48, 78
1, 24256, Note_on_c, 2, 60, 73
1, 24256, Note_on_c, 2, 53, 78
1, 24256, Note_on_c, 9, 44, 125
1, 24256, Note_on_c, 9, 69, 75
1, 24258, Note_on_c, 1, 31, 105
1, 24260, Note_on_c, 9, 69, 0
1, 24260, Note_on_c, 9, 44, 0
1, 24262, Pitch_bend_c, 8, 8134
1, 24277, Pitch_bend_c, 8, 8213
1, 24282, Pitch_bend_c, 8, 8458
1, 24287, Note_on_c, 1, 31, 0
1, 24287, Note_on_c, 1, 31, 97
1, 24288, Note_on_c, 9, 42, 105
1, 24288, Note_on_c, 9, 38, 125
1, 24290, Pitch_bend_c, 8, 8421
1, 24292, Note_on_c, 9, 38, 0
1, 24292, Note_on_c, 9, 42, 0
1, 24293, Pitch_bend_c, 8, 8118
1, 24307, Pitch_bend_c, 8, 8145
1, 24310, Pitch_bend_c, 8, 8285
1, 24314, Pitch_bend_c, 8, 8485
1, 24324, Pitch_bend_c, 8, 8447
1, 24327, Pitch_bend_c, 8, 8192
1, 24330, Note_on_c, 2, 53, 0
1, 24332, Note_on_c, 2, 60, 0
1, 24332, Note_on_c, 1, 31, 0
1, 24334, Note_on_c, 8, 67, 0
1, 24334, Note_on_c, 2, 57, 0
1, 24345, Note_on_c, 3, 48, 0
1, 24346, Note_on_c, 8, 70, 79
1, 24348, Note_on_c, 2, 48, 0
1, 24349, Note_on_c, 6, 60, 0
1, 24351, Note_on_c, 2, 55, 80
1, 24351, Note_on_c, 6, 59, 59
1, 24352, Note_on_c, 2, 50, 78
1, 24352, Note_on_c, 3, 50, 69
1, 24352, Note_on_c, 9, 69, 75
1, 24352, Note_on_c, 9, 44, 115
1, 24353, Note_on_c, 1, 31, 102
1, 24353, Note_on_c, 2, 59, 74
1, 24354, Note_on_c, 9, 51, 78
1, 24356, Note_on_c, 9, 44, 0
1, 24356, Note_on_c, 9, 69, 0
1, 24358, Note_on_c, 9, 51, 0
1, 24369, Note_on_c, 1, 31, 0
1, 24371, Note_on_c, 8, 70, 0
1, 24384, Note_on_c, 1, 31, 103
1, 24384, Note_on_c, 9, 42, 115
1, 24384, Note_on_c, 9, 35, 125
1, 24386, Note_on_c, 9, 59, 95
1, 24388, Note_on_c, 9, 35, 0
1, 24388, Note_on_c, 9, 42, 0
1, 24390, Note_on_c, 9, 59, 0
1, 24416, Note_on_c, 9, 69, 75
1, 24420, Note_on_c, 9, 69, 0
1, 24425, Note_on_c, 1, 31, 0
1, 24438, Note_on_c, 8, 72, 114
1, 24444, Pitch_bend_c, 8, 8357
1, 24447, Pitch_bend_c, 8, 8556
1, 24448, Note_on_c, 1, 31, 101
1, 24448, Note_on_c, 9, 69, 75
1, 24448, Note_on_c, 9, 44, 125
1, 24449, Pitch_bend_c, 8, 9361
1, 24452, Note_on_c, 9, 44, 0
1, 24452, Note_on_c, 9, 69, 0
1, 24455, Pitch_bend_c, 8, 9638
1, 24460, Pitch_bend_c, 8, 9718
1, 24464, Note_on_c, 1, 31, 0
1, 24471, Pitch_bend_c, 8, 8740
1, 24477, Note_on_c, 3, 50, 0
1, 24477, Pitch_bend_c, 8, 8495
1, 24479, Pitch_bend_c, 8, 8343
1, 24480, Note_on_c, 1, 31, 106
1, 24480, Note_on_c, 9, 38, 125
1, 24480, Note_on_c, 9, 42, 115
1, 24481, Note_on_c, 3, 53, 94
1, 24481, Note_on_c, 9, 59, 86
1, 24484, Note_on_c, 9, 42, 0
1, 24484, Note_on_c, 9, 38, 0
1, 24485, Note_on_c, 9, 59, 0
1, 24486, Pitch_bend_c, 8, 8290
1, 24492, Pitch_bend_c, 8, 8266
1, 24512, Note_on_c, 9, 69, 75
1, 24514, Pitch_bend_c, 8, 8218
1, 24516, Note_on_c, 9, 69, 0
1, 24532, Pitch_bend_c, 8, 8242
1, 24534, Note_on_c, 8, 72, 0
1, 24538, Note_on_c, 1, 31, 0
1, 24539, Pitch_bend_c, 8, 8192
1, 24542, Note_on_c, 3, 53, 0
1, 24544, Note_on_c, 1, 29, 95
1, 24544, Note_on_c, 3, 55, 72
1, 24544, Note_on_c, 9, 44, 115
1, 24544, Note_on_c, 9, 69, 75
1, 24546, Note_on_c, 2, 50, 0
1, 24548, Note_on_c, 9, 69, 0
1, 24548, Note_on_c, 9, 44, 0
1, 24550, Note_on_c, 2, 55, 0
1, 24561, Note_on_c, 2, 59, 0
1, 24566, Note_on_c, 6, 59, 0
1, 24575, Note_on_c, 8, 67, 53
1, 24576, Note_on_c, 1, 29, 0
1, 24576, Note_on_c, 1, 31, 107
1, 24576, Note_on_c, 2, 53, 74
1, 24576, Note_on_c, 6, 62, 62
1, 24576, Note_on_c, 9, 42, 115
1, 24576, Note_on_c, 9, 35, 125
1, 24580, Note_on_c, 9, 35, 0
1, 24580, Note_on_c, 9, 42, 0
1, 24583, Note_on_c, 2, 53, 0
1, 24585, Note_on_c, 3, 55, 0
1, 24585, Pitch_bend_c, 8, 8187
1, 24592, Pitch_bend_c, 8, 8285
1, 24599, Pitch_bend_c, 8, 8134
1, 24608, Note_on_c, 9, 69, 75
1, 24610, Note_on_c, 1, 31, 0
1, 24612, Note_on_c, 9, 69, 0
1, 24616, Pitch_bend_c, 8, 8161
1, 24619, Pitch_bend_c, 8, 8357
1, 24622, Pitch_bend_c, 8, 8402
1, 24629, Pitch_bend_c, 8, 8269
1, 24631, Pitch_bend_c, 8, 8126
1, 24639, Note_on_c, 2, 53, 85
1, 24640, Note_on_c, 1, 31, 100
1, 24640, Note_on_c, 2, 58, 79
1, 24640, Note_on_c, 2, 50, 80
1, 24640, Note_on_c, 2, 62, 77
1, 24640, Note_on_c, 3, 53, 69
1, 24640, Note_on_c, 9, 44, 125
1, 24640, Note_on_c, 9, 69, 75
1, 24644, Note_on_c, 9, 69, 0
1, 24644, Note_on_c, 9, 44, 0
1, 24645, Pitch_bend_c, 8, 8311
1, 24653, Pitch_bend_c, 8, 8322
1, 24654, Note_on_c, 1, 31, 0
1, 24661, Pitch_bend_c, 8, 8126
1, 24671, Note_on_c, 1, 31, 105
1, 24672, Note_on_c, 9, 42, 105
1, 24672, Note_on_c, 9, 38, 125
1, 24674, Note_on_c, 9, 59, 59
1, 24676, Note_on_c, 9, 38, 0
1, 24676, Note_on_c, 9, 42, 0
1, 24677, Pitch_bend_c, 8, 8153
1, 24678, Note_on_c, 9, 59, 0
1, 24680, Pitch_bend_c, 8, 8338
1, 24686, Pitch_bend_c, 8, 8145
1, 24716, Note_on_c, 1, 31, 0
1, 24728, Pitch_bend_c, 8, 8192
1, 24729, Note_on_c, 8, 67, 0
1, 24736, Note_on_c, 1, 31, 98
1, 24736, Note_on_c, 9, 69, 75
1, 24736, Note_on_c, 9, 44, 115
1, 24740, Note_on_c, 9, 44, 0
1, 24740, Note_on_c, 9, 69, 0
1, 24751, Note_on_c, 1, 31, 0
1, 24760, Note_on_c, 2, 58, 0
1, 24763, Note_on_c, 2, 62, 0
1, 24767, Note_on_c, 9, 59, 88
1, 24768, Note_on_c, 2, 53, 0
1, 24768, Note_on_c, 6, 62, 0
1, 24768, Note_on_c, 1, 31, 104
1, 24768, Note_on_c, 2, 61, 73
1, 24768, Note_on_c, 6, 61, 62
1, 24768, Note_on_c, 9, 42, 115
1, 24768, Note_on_c, 9, 35, 125
1, 24769, Note_on_c, 2, 50, 0
1, 24769, Note_on_c, 3, 53, 0
1, 24769, Note_on_c, 2, 49, 78
1, 24769, Note_on_c, 2, 57, 73
1, 24769, Note_on_c, 3, 52, 62
1, 24770, Note_on_c, 2, 52, 77
1, 24771, Note_on_c, 9, 59, 0
1, 24772, Note_on_c, 9, 42, 0
1, 24772, Note_on_c, 9, 35, 0
1, 24785, Note_on_c, 2, 49, 0
1, 24789, Note_on_c, 2, 61, 0
1, 24790, Note_on_c, 2, 57, 0
1, 24794, Note_on_c, 2, 52, 0
1, 24800, Note_on_c, 9, 69, 75
1, 24804, Note_on_c, 9, 69, 0
1, 24807, Note_on_c, 1, 31, 0
1, 24830, Note_on_c, 2, 49, 78
1, 24831, Note_on_c, 2, 57, 76
1, 24831, Note_on_c, 2, 61, 77
1, 24832, Note_on_c, 1, 31, 102
1, 24832, Note_on_c, 2, 52, 78
1, 24832, Note_on_c, 9, 44, 125
1, 24834, Note_on_c, 8, 72, 116
1, 24836, Note_on_c, 9, 44, 0
1, 24841, Pitch_bend_c, 8, 8271
1, 24846, Pitch_bend_c, 8, 9063
1, 24851, Note_on_c, 1, 31, 0
1, 24857, Pitch_bend_c, 8, 8993
1, 24858, Pitch_bend_c, 8, 8261
1, 24864, Note_on_c, 1, 31, 106
1, 24864, Pitch_bend_c, 8, 8107
1, 24864, Note_on_c, 9, 42, 115
1, 24864, Note_on_c, 9, 38, 125
1, 24868, Note_on_c, 9, 38, 0
1, 24868, Note_on_c, 9, 42, 0
1, 24880, Pitch_bend_c, 8, 8083
1, 24891, Pitch_bend_c, 8, 8065
1, 24895, Pitch_bend_c, 8, 6842
1, 24905, Note_on_c, 1, 31, 0
1, 24918, Note_on_c, 8, 72, 0
1, 24924, Pitch_bend_c, 8, 8192
1, 24925, Note_on_c, 3, 52, 0
1, 24926, Note_on_c, 8, 67, 63
1, 24928, Note_on_c, 9, 44, 115
1, 24928, Note_on_c, 9, 69, 75
1, 24930, Note_on_c, 1, 29, 102
1, 24932, Note_on_c, 9, 69, 0
1, 24932, Note_on_c, 9, 44, 0
1, 24944, Note_on_c, 1, 29, 0
1, 24944, Note_on_c, 1, 30, 97
1, 24945, Note_on_c, 8, 67, 0
1, 24946, Note_on_c, 2, 57, 0
1, 24948, Note_on_c, 2, 61, 0
1, 24951, Note_on_c, 6, 61, 0
1, 24958, Note_on_c, 2, 52, 0
1, 24960, Note_on_c, 1, 30, 0
1, 24960, Note_on_c, 1, 31, 111
1, 24960, Note_on_c, 2, 53, 77
1, 24960, Note_on_c, 2, 60, 78
1, 24960, Note_on_c, 2, 57, 77
1, 24960, Note_on_c, 2, 43, 83
1, 24960, Note_on_c, 3, 48, 65
1, 24960, Note_on_c, 3, 65, 84
1, 24960, Note_on_c, 6, 65, 94
1, 24960, Note_on_c, 6, 69, 95
1, 24960, Note_on_c, 9, 42, 115
1, 24960, Note_on_c, 9, 35, 125
1, 24960, Note_on_c, 14, 65, 94
1, 24960, Note_on_c, 14, 69, 83
1, 24964, Note_on_c, 9, 35, 0
1, 24964, Note_on_c, 9, 42, 0
1, 24965, Note_on_c, 14, 69, 0
1, 24968, Note_on_c, 2, 49, 0
1, 24971, Note_on_c, 6, 69, 0
1, 24973, Note_on_c, 6, 65, 0
1, 24973, Note_on_c, 3, 65, 0
1, 24973, Note_on_c, 14, 65, 0
1, 24975, Note_on_c, 2, 43, 0
1, 24976, Note_on_c, 2, 60, 0
1, 24977, Note_on_c, 2, 57, 0
1, 24978, Note_on_c, 2, 53, 0
1, 24988, Note_on_c, 1, 31, 0
1, 24992, Note_on_c, 9, 69, 75
1, 24996, Note_on_c, 9, 69, 0
1, 25022, Note_on_c, 2, 60, 80
1, 25022, Note_on_c, 2, 43, 89
1, 25022, Note_on_c, 3, 65, 87
1, 25023, Note_on_c, 1, 31, 104
1, 25023, Note_on_c, 2, 53, 81
1, 25023, Note_on_c, 2, 57, 79
1, 25023, Note_on_c, 6, 69, 102
1, 25023, Note_on_c, 6, 65, 99
1, 25023, Note_on_c, 14, 65, 112
1, 25024, Note_on_c, 9, 44, 125
1, 25024, Note_on_c, 9, 69, 75
1, 25026, Note_on_c, 9, 51, 81
1, 25028, Note_on_c, 9, 69, 0
1, 25028, Note_on_c, 9, 44, 0
1, 25030, Note_on_c, 9, 51, 0
1, 25039, Note_on_c, 1, 31, 0
1, 25056, Note_on_c, 1, 31, 110
1, 25056, Note_on_c, 9, 42, 105
1, 25056, Note_on_c, 9, 38, 125
1, 25060, Note_on_c, 9, 38, 0
1, 25060, Note_on_c, 9, 42, 0
1, 25105, Note_on_c, 1, 31, 0
1, 25120, Note_on_c, 9, 69, 75
1, 25120, Note_on_c, 9, 44, 115
1, 25121, Note_on_c, 9, 51, 79
1, 25122, Note_on_c, 1, 29, 102
1, 25124, Note_on_c, 9, 44, 0
1, 25124, Note_on_c, 9, 69, 0
1, 25125, Note_on_c, 9, 51, 0
1, 25132, Note_on_c, 2, 57, 0
1, 25136, Note_on_c, 6, 65, 0
1, 25136, Note_on_c, 1, 29, 0
1, 25136, Note_on_c, 1, 30, 97
1, 25137, Note_on_c, 14, 65, 0
1, 25138, Note_on_c, 2, 60, 0
1, 25138, Note_on_c, 3, 65, 0
1, 25140, Note_on_c, 6, 69, 0
1, 25144, Note_on_c, 2, 53, 0
1, 25146, Note_on_c, 2, 43, 0
1, 25151, Note_on_c, 1, 30, 0
1, 25151, Note_on_c, 1, 31, 111
1, 25152, Note_on_c, 2, 57, 80
1, 25152, Note_on_c, 2, 65, 79
1, 25152, Note_on_c, 2, 60, 78
1, 25152, Note_on_c, 6, 69, 91
1, 25152, Note_on_c, 6, 65, 89
1, 25152, Note_on_c, 9, 35, 125
1, 25152, Note_on_c, 9, 42, 115
1, 25152, Note_on_c, 14, 69, 97
1, 25152, Note_on_c, 14, 65, 97
1, 25153, Note_on_c, 2, 43, 83
1, 25153, Note_on_c, 3, 65, 72
1, 25153, Note_on_c, 6, 72, 93
1, 25153, Note_on_c, 9, 59, 89
1, 25156, Note_on_c, 9, 42, 0
1, 25156, Note_on_c, 9, 35, 0
1, 25157, Note_on_c, 9, 59, 0
1, 25167, Note_on_c, 6, 65, 0
1, 25168, Note_on_c, 6, 72, 0
1, 25169, Note_on_c, 6, 69, 0
1, 25169, Note_on_c, 14, 69, 0
1, 25170, Note_on_c, 14, 65, 0
1, 25170, Note_on_c, 3, 65, 0
1, 25173, Note_on_c, 2, 57, 0
1, 25175, Note_on_c, 2, 60, 0
1, 25175, Note_on_c, 2, 43, 0
1, 25176, Note_on_c, 2, 65, 0
1, 25184, Note_on_c, 1, 31, 0
1, 25184, Note_on_c, 9, 69, 75
1, 25188, Note_on_c, 9, 69, 0
1, 25214, Note_on_c, 6, 72, 109
1, 25214, Note_on_c, 6, 69, 102
1, 25214, Note_on_c, 6, 65, 97
1, 25215, Note_on_c, 1, 31, 100
1, 25215, Note_on_c, 2, 43, 96
1, 25215, Note_on_c, 3, 65, 84
1, 25215, Note_on_c, 14, 69, 112
1, 25215, Note_on_c, 14, 65, 104
1, 25216, Note_on_c, 2, 65, 84
1, 25216, Note_on_c, 2, 60, 84
1, 25216, Note_on_c, 2, 57, 84
1, 25216, Note_on_c, 9, 44, 125
1, 25216, Note_on_c, 9, 69, 75
1, 25217, Note_on_c, 9, 59, 105
1, 25220, Note_on_c, 9, 69, 0
1, 25220, Note_on_c, 9, 44, 0
1, 25221, Note_on_c, 9, 59, 0
1, 25227, Note_on_c, 1, 31, 0
1, 25247, Note_on_c, 1, 31, 111
1, 25248, Note_on_c, 9, 42, 115
1, 25248, Note_on_c, 9, 38, 125
1, 25252, Note_on_c, 9, 38, 0
1, 25252, Note_on_c, 9, 42, 0
1, 25278, Pitch_bend_c, 5, 8064
1, 25279, Pitch_bend_c, 5, 7936
1, 25280, Pitch_bend_c, 5, 7552
1, 25280, Note_on_c, 9, 69, 75
1, 25281, Pitch_bend_c, 5, 7296
1, 25282, Pitch_bend_c, 5, 6784
1, 25283, Pitch_bend_c, 5, 6528
1, 25284, Note_on_c, 9, 69, 0
1, 25284, Pitch_bend_c, 5, 6144
1, 25285, Pitch_bend_c, 5, 5760
1, 25286, Pitch_bend_c, 5, 4992
1, 25287, Pitch_bend_c, 5, 4224
1, 25288, Pitch_bend_c, 5, 3968
1, 25289, Pitch_bend_c, 5, 3584
1, 25290, Note_on_c, 1, 31, 0
1, 25290, Pitch_bend_c, 5, 2944
1, 25291, Pitch_bend_c, 5, 2560
1, 25292, Pitch_bend_c, 5, 2048
1, 25293, Pitch_bend_c, 5, 1536
1, 25294, Pitch_bend_c, 5, 1152
1, 25295, Pitch_bend_c, 5, 768
1, 25297, Pitch_bend_c, 5, 256
1, 25298, Note_on_c, 2, 57, 0
1, 25298, Pitch_bend_c, 5, 0
1, 25307, Note_on_c, 6, 65, 0
1, 25310, Note_on_c, 2, 60, 0
1, 25311, Note_on_c, 1, 29, 102
1, 25312, Note_on_c, 5, 79, 127
1, 25312, Note_on_c, 9, 69, 75
1, 25312, Note_on_c, 9, 44, 115
1, 25313, Note_on_c, 9, 51, 87
1, 25314, Note_on_c, 2, 65, 0
1, 25316, Note_on_c, 9, 44, 0
1, 25316, Note_on_c, 9, 69, 0
1, 25317, Note_on_c, 9, 51, 0
1, 25318, Note_on_c, 6, 72, 0
1, 25319, Note_on_c, 6, 69, 0
1, 25320, Note_on_c, 14, 65, 0
1, 25322, Note_on_c, 3, 65, 0
1, 25325, Note_on_c, 14, 69, 0
1, 25328, Note_on_c, 1, 29, 0
1, 25328, Note_on_c, 1, 30, 97
1, 25333, Note_on_c, 2, 43, 0
1, 25336, Pitch_bend_c, 5, 384
1, 25337, Pitch_bend_c, 5, 512
1, 25338, Pitch_bend_c, 5, 768
1, 25339, Pitch_bend_c, 5, 1024
1, 25340, Pitch_bend_c, 5, 1152
1, 25341, Pitch_bend_c, 5, 1408
1, 25342, Pitch_bend_c, 5, 1536
1, 25343, Pitch_bend_c, 5, 1792
1, 25343, Note_on_c, 6, 72, 95
1, 25344, Note_on_c, 1, 30, 0
1, 25344, Note_on_c, 1, 31, 111
1, 25344, Note_on_c, 2, 65, 86
1, 25344, Note_on_c, 2, 72, 87
1, 25344, Note_on_c, 2, 69, 88
1, 25344, Note_on_c, 2, 43, 88
1, 25344, Pitch_bend_c, 5, 1920
1, 25344, Note_on_c, 6, 76, 82
1, 25344, Note_on_c, 6, 69, 89
1, 25344, Note_on_c, 6, 77, 84
1, 25344, Note_on_c, 9, 42, 115
1, 25344, Note_on_c, 9, 35, 125
1, 25344, Note_on_c, 14, 72, 94
1, 25344, Note_on_c, 14, 69, 87
1, 25345, Note_on_c, 3, 65, 75
1, 25345, Pitch_bend_c, 5, 2048
1, 25345, Note_on_c, 7, 79, 72
1, 25345, Note_on_c, 9, 59, 104
1, 25346, Pitch_bend_c, 5, 2304
1, 25347, Pitch_bend_c, 5, 2432
1, 25348, Note_on_c, 9, 35, 0
1, 25348, Note_on_c, 9, 42, 0
1, 25348, Pitch_bend_c, 5, 2560
1, 25349, Note_on_c, 9, 59, 0
1, 25349, Note_on_c, 6, 76, 0
1, 25349, Pitch_bend_c, 5, 2816
1, 25351, Pitch_bend_c, 5, 2944
1, 25352, Note_on_c, 6, 77, 0
1, 25353, Pitch_bend_c, 5, 3328
1, 25355, Pitch_bend_c, 5, 3712
1, 25356, Note_on_c, 6, 72, 0
1, 25356, Pitch_bend_c, 5, 3840
1, 25357, Note_on_c, 6, 69, 0
1, 25357, Note_on_c, 2, 69, 0
1, 25357, Pitch_bend_c, 5, 3968
1, 25358, Note_on_c, 2, 65, 0
1, 25358, Pitch_bend_c, 5, 4224
1, 25359, Note_on_c, 2, 72, 0
1, 25359, Pitch_bend_c, 5, 4736
1, 25360, Pitch_bend_c, 5, 4864
1, 25361, Pitch_bend_c, 5, 5504
1, 25362, Pitch_bend_c, 5, 5760
1, 25363, Pitch_bend_c, 5, 6144
1, 25364, Note_on_c, 3, 65, 0
1, 25364, Pitch_bend_c, 5, 6272
1, 25365, Note_on_c, 14, 69, 0
1, 25365, Pitch_bend_c, 5, 6656
1, 25366, Note_on_c, 14, 72, 0
1, 25366, Pitch_bend_c, 5, 6784
1, 25367, Pitch_bend_c, 5, 7040
1, 25368, Note_on_c, 2, 43, 0
1, 25368, Pitch_bend_c, 5, 7296
1, 25369, Pitch_bend_c, 5, 7552
1, 25369, Pitch_bend_c, 7, 384
1, 25370, Pitch_bend_c, 5, 7680
1, 25370, Pitch_bend_c, 7, 512
1, 25371, Pitch_bend_c, 5, 7808
1, 25371, Pitch_bend_c, 7, 768
1, 25372, Note_on_c, 1, 31, 0
1, 25372, Pitch_bend_c, 5, 8192
1, 25372, Pitch_bend_c, 7, 1024
1, 25373, Pitch_bend_c, 7, 1152
1, 25374, Pitch_bend_c, 7, 1408
1, 25375, Pitch_bend_c, 7, 1536
1, 25376, Pitch_bend_c, 7, 1792
1, 25376, Note_on_c, 9, 69, 75
1, 25377, Pitch_bend_c, 7, 1920
1, 25378, Pitch_bend_c, 7, 2048
1, 25379, Pitch_bend_c, 7, 2304
1, 25380, Note_on_c, 9, 69, 0
1, 25380, Pitch_bend_c, 7, 2432
1, 25381, Pitch_bend_c, 7, 2560
1, 25382, Pitch_bend_c, 7, 2816
1, 25384, Pitch_bend_c, 7, 2944
1, 25386, Pitch_bend_c, 7, 3328
1, 25388, Pitch_bend_c, 7, 3712
1, 25389, Pitch_bend_c, 7, 3840
1, 25390, Pitch_bend_c, 7, 3968
1, 25391, Pitch_bend_c, 7, 4224
1, 25392, Pitch_bend_c, 7, 4736
1, 25393, Pitch_bend_c, 7, 4864
1, 25394, Pitch_bend_c, 7, 5504
1, 25395, Pitch_bend_c, 7, 5760
1, 25396, Pitch_bend_c, 7, 6144
1, 25397, Pitch_bend_c, 7, 6272
1, 25398, Pitch_bend_c, 7, 6656
1, 25399, Pitch_bend_c, 7, 6784
1, 25400, Pitch_bend_c, 7, 7040
1, 25401, Pitch_bend_c, 7, 7296
1, 25402, Pitch_bend_c, 7, 7552
1, 25403, Pitch_bend_c, 7, 7680
1, 25404, Pitch_bend_c, 7, 7808
1, 25405, Note_on_c, 2, 65, 88
1, 25405, Note_on_c, 2, 69, 89
1, 25405, Note_on_c, 2, 72, 89
1, 25405, Pitch_bend_c, 7, 8192
1, 25406, Note_on_c, 6, 69, 97
1, 25406, Note_on_c, 6, 77, 102
1, 25406, Note_on_c, 6, 72, 114
1, 25407, Note_on_c, 1, 31, 104
1, 25407, Note_on_c, 14, 72, 99
1, 25407, Note_on_c, 14, 69, 100
1, 25408, Note_on_c, 2, 43, 103
1, 25408, Note_on_c, 3, 65, 87
1, 25408, Note_on_c, 9, 44, 125
1, 25408, Note_on_c, 9, 69, 75
1, 25409, Note_on_c, 9, 59, 114
1, 25412, Note_on_c, 9, 69, 0
1, 25412, Note_on_c, 9, 44, 0
1, 25413, Note_on_c, 9, 59, 0
1, 25423, Note_on_c, 1, 31, 0
1, 25428, Control_c, 5, 1, 11
1, 25434, Control_c, 5, 1, 21
1, 25440, Note_on_c, 1, 31, 110
1, 25440, Control_c, 5, 1, 31
1, 25440, Note_on_c, 9, 42, 105
1, 25440, Note_on_c, 9, 38, 125
1, 25444, Note_on_c, 9, 38, 0
1, 25444, Note_on_c, 9, 42, 0
1, 25446, Control_c, 5, 1, 43
1, 25452, Control_c, 5, 1, 55
1, 25458, Control_c, 5, 1, 66
1, 25461, Control_c, 7, 1, 11
1, 25464, Control_c, 5, 1, 75
1, 25467, Control_c, 7, 1, 21
1, 25470, Control_c, 5, 1, 81
1, 25473, Control_c, 7, 1, 31
1, 25477, Control_c, 5, 1, 86
1, 25479, Control_c, 7, 1, 43
1, 25484, Control_c, 5, 1, 90
1, 25485, Control_c, 7, 1, 55
1, 25489, Note_on_c, 1, 31, 0
1, 25491, Control_c, 7, 1, 66
1, 25492, Control_c, 5, 1, 92
1, 25497, Control_c, 7, 1, 75
1, 25503, Control_c, 7, 1, 81
1, 25504, Note_on_c, 9, 69, 75
1, 25504, Note_on_c, 9, 35, 75
1, 25504, Note_on_c, 9, 44, 115
1, 25505, Note_on_c, 9, 51, 92
1, 25506, Note_on_c, 1, 29, 102
1, 25508, Note_on_c, 9, 44, 0
1, 25508, Note_on_c, 9, 35, 0
1, 25508, Note_on_c, 9, 69, 0
1, 25509, Note_on_c, 9, 51, 0
1, 25510, Control_c, 7, 1, 86
1, 25512, Note_on_c, 3, 65, 0
1, 25512, Control_c, 5, 1, 88
1, 25513, Note_on_c, 14, 72, 0
1, 25514, Note_on_c, 14, 69, 0
1, 25517, Control_c, 7, 1, 90
1, 25518, Note_on_c, 6, 69, 0
1, 25518, Control_c, 5, 1, 82
1, 25520, Note_on_c, 1, 29, 0
1, 25520, Note_on_c, 1, 30, 97
1, 25522, Note_on_c, 6, 77, 0
1, 25524, Control_c, 5, 1, 76
1, 25525, Note_on_c, 6, 72, 0
1, 25525, Control_c, 7, 1, 92
1, 25530, Control_c, 5, 1, 66
1, 25533, Note_on_c, 2, 72, 0
1, 25533, Note_on_c, 2, 69, 0
1, 25533, Note_on_c, 2, 65, 0
1, 25535, Note_on_c, 1, 30, 0
1, 25535, Note_on_c, 1, 31, 111
1, 25536, Note_on_c, 2, 69, 96
1, 25536, Note_on_c, 2, 72, 98
1, 25536, Note_on_c, 2, 77, 98
1, 25536, Control_c, 5, 1, 58
1, 25536, Note_on_c, 6, 72, 97
1, 25536, Note_on_c, 6, 77, 88
1, 25536, Note_on_c, 6, 69, 92
1, 25536, Note_on_c, 9, 42, 115
1, 25536, Note_on_c, 14, 69, 85
1, 25536, Note_on_c, 14, 77, 88
1, 25536, Note_on_c, 14, 72, 87
1, 25537, Note_on_c, 3, 65, 75
1, 25537, Note_on_c, 9, 59, 102
1, 25540, Note_on_c, 9, 42, 0
1, 25541, Note_on_c, 9, 59, 0
1, 25542, Control_c, 5, 1, 44
1, 25545, Control_c, 7, 1, 88
1, 25548, Control_c, 5, 1, 31
1, 25550, Note_on_c, 6, 77, 0
1, 25551, Note_on_c, 2, 72, 0
1, 25551, Note_on_c, 2, 69, 0
1, 25551, Note_on_c, 6, 69, 0
1, 25551, Control_c, 7, 1, 82
1, 25552, Note_on_c, 14, 72, 0
1, 25553, Note_on_c, 6, 72, 0
1, 25554, Note_on_c, 2, 77, 0
1, 25554, Control_c, 5, 1, 18
1, 25555, Note_on_c, 14, 69, 0
1, 25556, Note_on_c, 14, 77, 0
1, 25557, Control_c, 7, 1, 76
1, 25560, Note_on_c, 3, 48, 0
1, 25560, Control_c, 5, 1, 2
1, 25561, Note_on_c, 3, 65, 0
1, 25563, Control_c, 7, 1, 66
1, 25566, Control_c, 5, 1, 0
1, 25568, Note_on_c, 1, 31, 0
1, 25568, Note_on_c, 9, 69, 75
1, 25569, Control_c, 7, 1, 58
1, 25572, Note_on_c, 9, 69, 0
1, 25575, Control_c, 7, 1, 44
1, 25579, Note_on_c, 4, 55, 0
1, 25581, Control_c, 7, 1, 31
1, 25585, Note_on_c, 2, 43, 0
1, 25587, Control_c, 7, 1, 18
1, 25593, Control_c, 7, 1, 2
1, 25598, Note_on_c, 2, 67, 96
1, 25598, Note_on_c, 2, 72, 101
1, 25598, Note_on_c, 2, 48, 103
1, 25598, Note_on_c, 2, 76, 101
1, 25598, Note_on_c, 6, 76, 105
1, 25598, Note_on_c, 14, 76, 97
1, 25599, Note_on_c, 1, 31, 100
1, 25599, Note_on_c, 3, 64, 79
1, 25599, Note_on_c, 3, 48, 69
1, 25599, Note_on_c, 4, 55, 59
1, 25599, Note_on_c, 6, 67, 109
1, 25599, Note_on_c, 6, 72, 105
1, 25599, Control_c, 7, 1, 0
1, 25599, Note_on_c, 14, 72, 99
1, 25599, Note_on_c, 14, 67, 97
1, 25600, Note_on_c, 9, 35, 125
1, 25600, Note_on_c, 9, 46, 127
1, 25600, Note_on_c, 9, 57, 85
1, 25601, Note_on_c, 9, 59, 95
1, 25604, Note_on_c, 9, 57, 0
1, 25604, Note_on_c, 9, 46, 0
1, 25604, Note_on_c, 9, 35, 0
1, 25605, Note_on_c, 9, 59, 0
1, 25611, Note_on_c, 1, 31, 0
1, 25631, Note_on_c, 1, 31, 111
1, 25632, Note_on_c, 9, 44, 105
1, 25632, Note_on_c, 9, 38, 85
1, 25636, Note_on_c, 9, 38, 0
1, 25636, Note_on_c, 9, 44, 0
1, 25636, Note_on_c, 5, 79, 0
1, 25636, Note_on_c, 5, 76, 127
1, 25653, Note_on_c, 14, 72, 0
1, 25657, Note_on_c, 14, 67, 0
1, 25657, Note_on_c, 14, 76, 0
1, 25669, Note_on_c, 7, 79, 0
1, 25669, Note_on_c, 7, 76, 97
1, 25674, Note_on_c, 1, 31, 0
1, 25690, Note_on_c, 5, 76, 0
1, 25695, Note_on_c, 1, 29, 102
1, 25695, Note_on_c, 5, 74, 112
1, 25696, Note_on_c, 9, 69, 75
1, 25696, Note_on_c, 9, 44, 125
1, 25696, Note_on_c, 14, 67, 97
1, 25696, Note_on_c, 14, 71, 104
1, 25696, Note_on_c, 14, 74, 100
1, 25700, Note_on_c, 9, 44, 0
1, 25700, Note_on_c, 9, 69, 0
1, 25703, Note_on_c, 2, 48, 0
1, 25712, Note_on_c, 3, 48, 0
1, 25712, Note_on_c, 1, 29, 0
1, 25712, Note_on_c, 1, 30, 97
1, 25716, Note_on_c, 3, 64, 0
1, 25717, Note_on_c, 2, 67, 0
1, 25717, Note_on_c, 2, 76, 0
1, 25718, Note_on_c, 4, 55, 0
1, 25719, Note_on_c, 6, 76, 0
1, 25719, Note_on_c, 2, 72, 0
1, 25721, Note_on_c, 6, 67, 0
1, 25722, Note_on_c, 6, 72, 0
1, 25723, Note_on_c, 7, 76, 0
1, 25726, Note_on_c, 0, 50, 117
1, 25726, Note_on_c, 0, 55, 127
1, 25727, Note_on_c, 0, 59, 127
1, 25728, Note_on_c, 1, 30, 0
1, 25728, Note_on_c, 0, 62, 107
1, 25728, Note_on_c, 1, 31, 121
1, 25728, Note_on_c, 2, 59, 79
1, 25728, Note_on_c, 2, 62, 77
1, 25728, Note_on_c, 2, 55, 76
1, 25728, Note_on_c, 3, 74, 82
1, 25728, Note_on_c, 3, 71, 83
1, 25728, Note_on_c, 3, 67, 81
1, 25728, Note_on_c, 7, 74, 82
1, 25728, Note_on_c, 9, 35, 125
1, 25728, Note_on_c, 9, 58, 54
1, 25728, Note_on_c, 9, 38, 125
1, 25732, Note_on_c, 9, 38, 0
1, 25732, Note_on_c, 9, 58, 0
1, 25732, Note_on_c, 9, 35, 0
1, 25735, Note_on_c, 3, 71, 0
1, 25737, Note_on_c, 3, 74, 0
1, 25738, Note_on_c, 3, 67, 0
1, 25739, Note_on_c, 2, 55, 0
1, 25740, Note_on_c, 2, 59, 0
1, 25741, Note_on_c, 2, 62, 0
1, 25747, Note_on_c, 0, 62, 0
1, 25747, Note_on_c, 0, 59, 0
1, 25750, Note_on_c, 0, 55, 0
1, 25750, Note_on_c, 0, 50, 0
1, 25757, Note_on_c, 1, 31, 0
1, 25788, Note_on_c, 0, 55, 127
1, 25789, Note_on_c, 0, 60, 127
1, 25790, Note_on_c, 0, 64, 126
1, 25790, Note_on_c, 2, 64, 84
1, 25790, Note_on_c, 2, 55, 79
1, 25790, Note_on_c, 2, 60, 82
1, 25790, Note_on_c, 3, 67, 88
1, 25791, Note_on_c, 3, 76, 94
1, 25791, Note_on_c, 3, 72, 99
1, 25792, Note_on_c, 9, 38, 125
1, 25792, Note_on_c, 9, 49, 105
1, 25793, Note_on_c, 1, 31, 111
1, 25793, Note_on_c, 9, 58, 53
1, 25796, Note_on_c, 9, 49, 0
1, 25796, Note_on_c, 9, 38, 0
1, 25797, Note_on_c, 9, 58, 0
1, 25811, Note_on_c, 1, 31, 0
1, 25820, Note_on_c, 5, 74, 0
1, 25820, Note_on_c, 5, 76, 127
1, 25823, Note_on_c, 0, 64, 0
1, 25825, Note_on_c, 1, 31, 115
1, 25853, Note_on_c, 1, 31, 0
1, 25853, Note_on_c, 7, 74, 0
1, 25853, Note_on_c, 7, 76, 97
1, 25881, Note_on_c, 5, 76, 0
1, 25881, Note_on_c, 5, 74, 90
1, 25885, Note_on_c, 0, 60, 0
1, 25887, Note_on_c, 14, 74, 0
1, 25888, Note_on_c, 1, 31, 103
1, 25889, Note_on_c, 14, 67, 0
1, 25890, Note_on_c, 0, 55, 0
1, 25892, Note_on_c, 14, 71, 0
1, 25897, Pitch_bend_c, 5, 8064
1, 25898, Pitch_bend_c, 5, 7552
1, 25899, Pitch_bend_c, 5, 7168
1, 25900, Pitch_bend_c, 5, 7040
1, 25901, Note_on_c, 3, 72, 0
1, 25901, Note_on_c, 3, 76, 0
1, 25901, Pitch_bend_c, 5, 6528
1, 25902, Note_on_c, 3, 67, 0
1, 25902, Pitch_bend_c, 5, 6272
1, 25903, Note_on_c, 1, 31, 0
1, 25903, Pitch_bend_c, 5, 5888
1, 25904, Pitch_bend_c, 5, 5504
1, 25905, Pitch_bend_c, 5, 4864
1, 25906, Note_on_c, 2, 64, 0
1, 25906, Pitch_bend_c, 5, 4608
1, 25907, Note_on_c, 2, 60, 0
1, 25907, Pitch_bend_c, 5, 4224
1, 25908, Pitch_bend_c, 5, 3712
1, 25909, Pitch_bend_c, 5, 3072
1, 25911, Pitch_bend_c, 5, 2432
1, 25912, Note_on_c, 5, 74, 0
1, 25912, Note_on_c, 2, 55, 0
1, 25912, Pitch_bend_c, 5, 2048
1, 25913, Pitch_bend_c, 5, 1408
1, 25914, Note_on_c, 7, 76, 0
1, 25914, Pitch_bend_c, 5, 1024
1, 25914, Note_on_c, 7, 74, 60
1, 25915, Pitch_bend_c, 5, 384
1, 25916, Pitch_bend_c, 5, 0
1, 25917, Note_on_c, 5, 79, 127
1, 25920, Note_on_c, 9, 49, 85
1, 25920, Note_on_c, 9, 35, 125
1, 25920, Note_on_c, 9, 38, 125
1, 25921, Note_on_c, 0, 55, 127
1, 25921, Note_on_c, 3, 74, 90
1, 25921, Note_on_c, 3, 71, 86
1, 25921, Note_on_c, 3, 67, 86
1, 25921, Note_on_c, 9, 58, 47
1, 25922, Note_on_c, 0, 59, 127
1, 25922, Note_on_c, 1, 31, 122
1, 25922, Note_on_c, 2, 62, 79
1, 25922, Note_on_c, 2, 59, 79
1, 25922, Note_on_c, 2, 55, 77
1, 25924, Note_on_c, 9, 38, 0
1, 25924, Note_on_c, 9, 35, 0
1, 25924, Note_on_c, 9, 49, 0
1, 25924, Note_on_c, 0, 67, 124
1, 25924, Note_on_c, 0, 62, 127
1, 25925, Note_on_c, 9, 58, 0
1, 25930, Pitch_bend_c, 7, 8064
1, 25931, Pitch_bend_c, 7, 7552
1, 25932, Pitch_bend_c, 7, 7168
1, 25933, Pitch_bend_c, 7, 7040
1, 25934, Pitch_bend_c, 7, 6528
1, 25935, Pitch_bend_c, 5, 256
1, 25935, Pitch_bend_c, 7, 6272
1, 25936, Pitch_bend_c, 5, 896
1, 25936, Pitch_bend_c, 7, 5888
1, 25937, Pitch_bend_c, 5, 2432
1, 25937, Pitch_bend_c, 7, 5504
1, 25938, Pitch_bend_c, 5, 3968
1, 25938, Pitch_bend_c, 7, 4864
1, 25939, Pitch_bend_c, 5, 4736
1, 25939, Pitch_bend_c, 7, 4608
1, 25940, Pitch_bend_c, 5, 6144
1, 25940, Pitch_bend_c, 7, 4224
1, 25941, Pitch_bend_c, 7, 3712
1, 25942, Pitch_bend_c, 5, 7040
1, 25942, Pitch_bend_c, 7, 3072
1, 25943, Pitch_bend_c, 5, 7424
1, 25944, Pitch_bend_c, 5, 8192
1, 25944, Pitch_bend_c, 7, 2432
1, 25945, Note_on_c, 7, 74, 0
1, 25945, Pitch_bend_c, 7, 2048
1, 25946, Pitch_bend_c, 7, 1408
1, 25947, Pitch_bend_c, 7, 1024
1, 25948, Pitch_bend_c, 7, 384
1, 25949, Pitch_bend_c, 7, 0
1, 25950, Note_on_c, 2, 62, 0
1, 25950, Note_on_c, 7, 79, 97
1, 25951, Note_on_c, 2, 55, 0
1, 25952, Note_on_c, 2, 59, 0
1, 25952, Note_on_c, 0, 62, 0
1, 25954, Note_on_c, 0, 67, 0
1, 25955, Note_on_c, 0, 55, 0
1, 25956, Note_on_c, 0, 59, 0
1, 25964, Note_on_c, 3, 67, 0
1, 25967, Note_on_c, 3, 71, 0
1, 25968, Note_on_c, 3, 74, 0
1, 25968, Pitch_bend_c, 7, 256
1, 25969, Pitch_bend_c, 7, 896
1, 25970, Pitch_bend_c, 7, 2432
1, 25971, Pitch_bend_c, 7, 3968
1, 25972, Note_on_c, 1, 31, 0
1, 25972, Pitch_bend_c, 7, 4736
1, 25973, Pitch_bend_c, 7, 6144
1, 25975, Pitch_bend_c, 7, 7040
1, 25976, Pitch_bend_c, 7, 7424
1, 25977, Pitch_bend_c, 7, 8192
1, 25985, Note_on_c, 9, 58, 52
1, 25989, Note_on_c, 9, 58, 0
1, 26016, Note_on_c, 5, 79, 0
1, 26016, Note_on_c, 5, 76, 127
1, 26049, Note_on_c, 7, 79, 0
1, 26049, Note_on_c, 7, 76, 97
1, 26074, Note_on_c, 5, 76, 0
1, 26077, Note_on_c, 5, 74, 79
1, 26080, Note_on_c, 9, 38, 85
1, 26084, Note_on_c, 9, 38, 0
1, 26103, Note_on_c, 5, 74, 0
1, 26107, Note_on_c, 7, 76, 0
1, 26108, Note_on_c, 5, 77, 112
1, 26110, Note_on_c, 7, 74, 49
1, 26112, Note_on_c, 9, 38, 105
1, 26112, Note_on_c, 9, 58, 47
1, 26116, Note_on_c, 9, 58, 0
1, 26116, Note_on_c, 9, 38, 0
1, 26136, Note_on_c, 7, 74, 0
1, 26141, Note_on_c, 7, 77, 82
1, 26172, Note_on_c, 5, 77, 0
1, 26172, Note_on_c, 5, 76, 99
1, 26175, Note_on_c, 2, 64, 77
1, 26175, Note_on_c, 2, 60, 72
1, 26175, Note_on_c, 2, 55, 77
1, 26176, Note_on_c, 1, 31, 126
1, 26176, Note_on_c, 3, 67, 88
1, 26176, Note_on_c, 3, 76, 92
1, 26176, Note_on_c, 3, 72, 92
1, 26176, Note_on_c, 9, 49, 105
1, 26176, Note_on_c, 9, 38, 125
1, 26176, Note_on_c, 9, 58, 51
1, 26178, Note_on_c, 0, 55, 127
1, 26179, Note_on_c, 0, 60, 127
1, 26180, Note_on_c, 9, 58, 0
1, 26180, Note_on_c, 9, 49, 0
1, 26180, Note_on_c, 9, 38, 0
1, 26180, Note_on_c, 0, 64, 127
1, 26205, Note_on_c, 7, 77, 0
1, 26205, Note_on_c, 7, 76, 69
1, 26208, Note_on_c, 5, 76, 0
1, 26208, Note_on_c, 5, 74, 97
1, 26236, Note_on_c, 5, 74, 0
1, 26236, Note_on_c, 5, 76, 119
1, 26241, Note_on_c, 7, 76, 0
1, 26241, Note_on_c, 7, 74, 67
1, 26256, Note_on_c, 0, 64, 0
1, 26268, Note_on_c, 0, 60, 0
1, 26269, Note_on_c, 7, 74, 0
1, 26269, Note_on_c, 7, 76, 89
1, 26270, Note_on_c, 5, 76, 0
1, 26270, Note_on_c, 5, 74, 125
1, 26273, Note_on_c, 0, 55, 0
1, 26278, Note_on_c, 3, 76, 0
1, 26279, Note_on_c, 3, 72, 0
1, 26280, Note_on_c, 2, 60, 0
1, 26280, Note_on_c, 3, 67, 0
1, 26281, Note_on_c, 2, 64, 0
1, 26285, Note_on_c, 2, 55, 0
1, 26288, Note_on_c, 1, 31, 0
1, 26302, Note_on_c, 0, 50, 108
1, 26303, Note_on_c, 7, 76, 0
1, 26303, Note_on_c, 0, 55, 127
1, 26303, Note_on_c, 7, 74, 95
1, 26304, Note_on_c, 1, 31, 121
1, 26304, Note_on_c, 2, 55, 76
1, 26304, Note_on_c, 2, 59, 77
1, 26304, Note_on_c, 2, 62, 77
1, 26304, Note_on_c, 3, 67, 84
1, 26304, Note_on_c, 3, 71, 88
1, 26304, Note_on_c, 9, 35, 125
1, 26304, Note_on_c, 9, 49, 85
1, 26304, Note_on_c, 9, 38, 127
1, 26305, Note_on_c, 3, 74, 88
1, 26305, Note_on_c, 9, 58, 45
1, 26306, Note_on_c, 0, 59, 127
1, 26306, Note_on_c, 0, 62, 127
1, 26308, Note_on_c, 9, 38, 0
1, 26308, Note_on_c, 9, 49, 0
1, 26308, Note_on_c, 9, 35, 0
1, 26308, Note_on_c, 0, 67, 127
1, 26308, Control_c, 5, 1, 17
1, 26309, Note_on_c, 9, 58, 0
1, 26314, Control_c, 5, 1, 44
1, 26320, Control_c, 5, 1, 69
1, 26326, Control_c, 5, 1, 84
1, 26332, Control_c, 5, 1, 91
1, 26340, Control_c, 5, 1, 81
1, 26341, Note_on_c, 0, 62, 0
1, 26341, Note_on_c, 0, 67, 0
1, 26341, Control_c, 7, 1, 17
1, 26342, Note_on_c, 0, 59, 0
1, 26342, Note_on_c, 0, 50, 0
1, 26343, Note_on_c, 0, 55, 0
1, 26345, Note_on_c, 2, 59, 0
1, 26346, Note_on_c, 2, 55, 0
1, 26346, Control_c, 5, 1, 58
1, 26347, Note_on_c, 2, 62, 0
1, 26347, Control_c, 7, 1, 44
1, 26351, Note_on_c, 3, 67, 0
1, 26351, Note_on_c, 3, 74, 0
1, 26352, Note_on_c, 3, 71, 0
1, 26352, Control_c, 5, 1, 29
1, 26353, Control_c, 7, 1, 69
1, 26357, Note_on_c, 1, 31, 0
1, 26358, Control_c, 5, 1, 3
1, 26359, Control_c, 7, 1, 84
1, 26364, Control_c, 5, 1, 0
1, 26365, Control_c, 7, 1, 91
1, 26369, Note_on_c, 9, 58, 52
1, 26373, Note_on_c, 9, 58, 0
1, 26373, Control_c, 7, 1, 81
1, 26377, Note_on_c, 5, 74, 0
1, 26378, Note_on_c, 5, 74, 109
1, 26379, Control_c, 7, 1, 58
1, 26385, Control_c, 7, 1, 29
1, 26391, Control_c, 7, 1, 3
1, 26397, Note_on_c, 5, 74, 0
1, 26397, Control_c, 7, 1, 0
1, 26400, Note_on_c, 9, 38, 115
1, 26404, Note_on_c, 9, 38, 0
1, 26404, Note_on_c, 9, 38, 115
1, 26408, Note_on_c, 9, 38, 0
1, 26409, Note_on_c, 5, 76, 125
1, 26410, Note_on_c, 7, 74, 0
1, 26411, Note_on_c, 7, 74, 79
1, 26430, Note_on_c, 7, 74, 0
1, 26442, Note_on_c, 7, 76, 95
1, 26455, Note_on_c, 5, 76, 0
1, 26468, Pitch_bend_c, 5, 7936
1, 26469, Pitch_bend_c, 5, 7680
1, 26470, Pitch_bend_c, 5, 7296
1, 26472, Pitch_bend_c, 5, 6784
1, 26473, Pitch_bend_c, 5, 6528
1, 26474, Pitch_bend_c, 5, 6144
1, 26475, Pitch_bend_c, 5, 5760
1, 26476, Note_on_c, 5, 77, 127
1, 26476, Pitch_bend_c, 5, 5504
1, 26477, Pitch_bend_c, 5, 4992
1, 26478, Pitch_bend_c, 5, 4736
1, 26479, Pitch_bend_c, 5, 4352
1, 26480, Pitch_bend_c, 5, 4224
1, 26481, Pitch_bend_c, 5, 4096
1, 26482, Pitch_bend_c, 5, 3840
1, 26483, Pitch_bend_c, 5, 3712
1, 26484, Pitch_bend_c, 5, 3584
1, 26485, Note_on_c, 0, 47, 117
1, 26485, Pitch_bend_c, 5, 3456
1, 26487, Note_on_c, 0, 53, 127
1, 26488, Note_on_c, 7, 76, 0
1, 26490, Pitch_bend_c, 5, 3584
1, 26491, Note_on_c, 0, 60, 127
1, 26492, Note_on_c, 0, 57, 127
1, 26492, Pitch_bend_c, 5, 3840
1, 26494, Note_on_c, 0, 65, 127
1, 26494, Pitch_bend_c, 5, 4224
1, 26495, Pitch_bend_c, 5, 4352
1, 26496, Note_on_c, 2, 60, 75
1, 26496, Note_on_c, 2, 57, 74
1, 26496, Note_on_c, 2, 65, 75
1, 26496, Note_on_c, 3, 77, 83
1, 26496, Note_on_c, 3, 69, 82
1, 26496, Note_on_c, 3, 72, 87
1, 26496, Pitch_bend_c, 5, 4608
1, 26496, Note_on_c, 9, 35, 125
1, 26496, Note_on_c, 9, 57, 115
1, 26497, Note_on_c, 1, 29, 127
1, 26497, Pitch_bend_c, 5, 4736
1, 26497, Note_on_c, 9, 58, 46
1, 26498, Pitch_bend_c, 5, 4864
1, 26499, Pitch_bend_c, 5, 4992
1, 26500, Note_on_c, 9, 57, 0
1, 26500, Note_on_c, 9, 35, 0
1, 26500, Pitch_bend_c, 5, 5376
1, 26501, Note_on_c, 9, 58, 0
1, 26501, Pitch_bend_c, 5, 5504
1, 26501, Pitch_bend_c, 7, 7936
1, 26502, Pitch_bend_c, 5, 5760
1, 26502, Pitch_bend_c, 7, 7680
1, 26503, Pitch_bend_c, 7, 7296
1, 26504, Pitch_bend_c, 5, 5888
1, 26505, Note_on_c, 0, 47, 0
1, 26505, Note_on_c, 0, 48, 108
1, 26505, Pitch_bend_c, 7, 6784
1, 26506, Pitch_bend_c, 5, 6144
1, 26506, Pitch_bend_c, 7, 6528
1, 26507, Pitch_bend_c, 5, 6272
1, 26507, Pitch_bend_c, 7, 6144
1, 26508, Pitch_bend_c, 5, 6400
1, 26508, Pitch_bend_c, 7, 5760
1, 26509, Pitch_bend_c, 5, 6528
1, 26509, Pitch_bend_c, 7, 5504
1, 26509, Note_on_c, 7, 77, 97
1, 26510, Pitch_bend_c, 5, 6656
1, 26510, Pitch_bend_c, 7, 4992
1, 26511, Pitch_bend_c, 5, 6784
1, 26511, Pitch_bend_c, 7, 4736
1, 26512, Pitch_bend_c, 5, 6912
1, 26512, Pitch_bend_c, 7, 4352
1, 26513, Pitch_bend_c, 5, 7040
1, 26513, Pitch_bend_c, 7, 4224
1, 26514, Pitch_bend_c, 7, 4096
1, 26515, Pitch_bend_c, 5, 7168
1, 26515, Pitch_bend_c, 7, 3840
1, 26516, Pitch_bend_c, 5, 7296
1, 26516, Pitch_bend_c, 7, 3712
1, 26517, Pitch_bend_c, 7, 3584
1, 26518, Pitch_bend_c, 5, 7552
1, 26518, Pitch_bend_c, 7, 3456
1, 26520, Pitch_bend_c, 5, 7936
1, 26521, Pitch_bend_c, 5, 8064
1, 26522, Pitch_bend_c, 5, 8192
1, 26523, Pitch_bend_c, 7, 3584
1, 26525, Pitch_bend_c, 7, 3840
1, 26527, Pitch_bend_c, 7, 4224
1, 26528, Pitch_bend_c, 7, 4352
1, 26529, Pitch_bend_c, 7, 4608
1, 26530, Pitch_bend_c, 7, 4736
1, 26531, Pitch_bend_c, 7, 4864
1, 26532, Pitch_bend_c, 7, 4992
1, 26533, Pitch_bend_c, 7, 5376
1, 26534, Pitch_bend_c, 7, 5504
1, 26535, Pitch_bend_c, 7, 5760
1, 26537, Pitch_bend_c, 7, 5888
1, 26539, Pitch_bend_c, 7, 6144
1, 26540, Pitch_bend_c, 7, 6272
1, 26541, Pitch_bend_c, 7, 6400
1, 26542, Pitch_bend_c, 7, 6528
1, 26543, Pitch_bend_c, 7, 6656
1, 26544, Pitch_bend_c, 7, 6784
1, 26545, Pitch_bend_c, 7, 6912
1, 26546, Pitch_bend_c, 7, 7040
1, 26548, Pitch_bend_c, 7, 7168
1, 26549, Pitch_bend_c, 7, 7296
1, 26551, Pitch_bend_c, 7, 7552
1, 26553, Pitch_bend_c, 7, 7936
1, 26554, Pitch_bend_c, 7, 8064
1, 26555, Pitch_bend_c, 7, 8192
1, 26561, Note_on_c, 9, 58, 51
1, 26565, Note_on_c, 9, 58, 0
1, 26591, Note_on_c, 5, 76, 125
1, 26592, Note_on_c, 9, 38, 125
1, 26595, Note_on_c, 5, 77, 0
1, 26596, Note_on_c, 9, 38, 0
1, 26624, Note_on_c, 7, 76, 95
1, 26625, Note_on_c, 0, 65, 0
1, 26625, Note_on_c, 0, 48, 0
1, 26628, Note_on_c, 7, 77, 0
1, 26628, Note_on_c, 5, 76, 0
1, 26634, Note_on_c, 0, 60, 0
1, 26642, Note_on_c, 0, 57, 0
1, 26646, Note_on_c, 2, 65, 0
1, 26655, Note_on_c, 3, 77, 0
1, 26655, Note_on_c, 2, 57, 0
1, 26655, Note_on_c, 5, 76, 94
1, 26657, Note_on_c, 0, 53, 0
1, 26657, Note_on_c, 9, 58, 45
1, 26658, Note_on_c, 3, 69, 0
1, 26661, Note_on_c, 7, 76, 0
1, 26661, Note_on_c, 9, 58, 0
1, 26663, Note_on_c, 3, 72, 0
1, 26663, Note_on_c, 2, 60, 0
1, 26669, Note_on_c, 1, 29, 0
1, 26676, Note_on_c, 0, 48, 117
1, 26680, Note_on_c, 0, 52, 127
1, 26682, Note_on_c, 0, 55, 127
1, 26685, Note_on_c, 5, 76, 0
1, 26685, Note_on_c, 0, 60, 127
1, 26685, Note_on_c, 5, 74, 112
1, 26688, Note_on_c, 0, 64, 127
1, 26688, Note_on_c, 1, 28, 126
1, 26688, Note_on_c, 3, 76, 82
1, 26688, Note_on_c, 7, 76, 64
1, 26688, Note_on_c, 9, 35, 125
1, 26688, Note_on_c, 9, 58, 44
1, 26688, Note_on_c, 9, 49, 105
1, 26689, Note_on_c, 2, 55, 76
1, 26689, Note_on_c, 2, 64, 74
1, 26689, Note_on_c, 2, 60, 74
1, 26689, Note_on_c, 3, 67, 82
1, 26689, Note_on_c, 3, 72, 82
1, 26692, Note_on_c, 9, 49, 0
1, 26692, Note_on_c, 9, 35, 0
1, 26692, Note_on_c, 9, 58, 0
1, 26718, Note_on_c, 7, 76, 0
1, 26718, Note_on_c, 7, 74, 82
1, 26724, Note_on_c, 5, 74, 0
1, 26745, Note_on_c, 5, 74, 94
1, 26751, Note_on_c, 9, 58, 49
1, 26755, Note_on_c, 9, 58, 0
1, 26757, Note_on_c, 7, 74, 0
1, 26767, Note_on_c, 5, 74, 0
1, 26778, Note_on_c, 7, 74, 64
1, 26779, Note_on_c, 5, 72, 127
1, 26781, Note_on_c, 0, 48, 0
1, 26783, Note_on_c, 0, 52, 0
1, 26784, Note_on_c, 0, 60, 0
1, 26784, Note_on_c, 9, 38, 125
1, 26787, Note_on_c, 0, 64, 0
1, 26788, Note_on_c, 9, 38, 0
1, 26791, Note_on_c, 2, 64, 0
1, 26793, Note_on_c, 0, 55, 0
1, 26795, Note_on_c, 2, 55, 0
1, 26800, Note_on_c, 7, 74, 0
1, 26806, Note_on_c, 3, 67, 0
1, 26811, Note_on_c, 3, 76, 0
1, 26812, Note_on_c, 2, 60, 0
1, 26812, Note_on_c, 7, 72, 97
1, 26815, Note_on_c, 3, 72, 0
1, 26821, Note_on_c, 1, 28, 0
1, 26828, Note_on_c, 5, 72, 0
1, 26841, Note_on_c, 0, 53, 101
1, 26841, Pitch_bend_c, 5, 8064
1, 26842, Pitch_bend_c, 5, 7680
1, 26843, Note_on_c, 0, 57, 127
1, 26843, Pitch_bend_c, 5, 7552
1, 26844, Note_on_c, 0, 60, 127
1, 26844, Pitch_bend_c, 5, 7424
1, 26845, Note_on_c, 0, 65, 127
1, 26845, Pitch_bend_c, 5, 7040
1, 26846, Pitch_bend_c, 5, 6912
1, 26847, Note_on_c, 2, 65, 74
1, 26847, Note_on_c, 2, 57, 74
1, 26847, Note_on_c, 2, 60, 75
1, 26847, Pitch_bend_c, 5, 6656
1, 26847, Note_on_c, 9, 58, 45
1, 26848, Note_on_c, 1, 29, 124
1, 26848, Note_on_c, 3, 69, 81
1, 26848, Note_on_c, 3, 72, 82
1, 26848, Note_on_c, 3, 77, 82
1, 26848, Pitch_bend_c, 5, 6528
1, 26848, Note_on_c, 9, 49, 105
1, 26848, Note_on_c, 9, 35, 125
1, 26848, Note_on_c, 9, 46, 127
1, 26849, Pitch_bend_c, 5, 6400
1, 26850, Pitch_bend_c, 5, 6144
1, 26851, Note_on_c, 9, 58, 0
1, 26851, Pitch_bend_c, 5, 6016
1, 26852, Note_on_c, 9, 46, 0
1, 26852, Note_on_c, 9, 35, 0
1, 26852, Note_on_c, 9, 49, 0
1, 26852, Pitch_bend_c, 5, 5888
1, 26853, Pitch_bend_c, 5, 5632
1, 26854, Pitch_bend_c, 5, 5504
1, 26855, Pitch_bend_c, 5, 5120
1, 26856, Pitch_bend_c, 5, 4992
1, 26857, Pitch_bend_c, 5, 4736
1, 26858, Pitch_bend_c, 5, 4608
1, 26859, Pitch_bend_c, 5, 4352
1, 26860, Pitch_bend_c, 5, 4224
1, 26861, Note_on_c, 7, 72, 0
1, 26861, Pitch_bend_c, 5, 3968
1, 26862, Pitch_bend_c, 5, 3840
1, 26863, Pitch_bend_c, 5, 3456
1, 26864, Pitch_bend_c, 5, 3200
1, 26865, Pitch_bend_c, 5, 2816
1, 26866, Pitch_bend_c, 5, 2688
1, 26867, Pitch_bend_c, 5, 2432
1, 26868, Pitch_bend_c, 5, 2048
1, 26869, Pitch_bend_c, 5, 1792
1, 26870, Note_on_c, 5, 71, 127
1, 26870, Pitch_bend_c, 5, 1536
1, 26871, Pitch_bend_c, 5, 1408
1, 26872, Pitch_bend_c, 5, 1024
1, 26873, Pitch_bend_c, 5, 768
1, 26874, Note_on_c, 0, 65, 0
1, 26874, Note_on_c, 0, 60, 0
1, 26874, Note_on_c, 0, 57, 0
1, 26874, Pitch_bend_c, 7, 8064
1, 26875, Pitch_bend_c, 7, 7680
1, 26876, Pitch_bend_c, 7, 7552
1, 26877, Note_on_c, 0, 53, 0
1, 26877, Note_on_c, 3, 77, 0
1, 26877, Pitch_bend_c, 7, 7424
1, 26878, Pitch_bend_c, 7, 7040
1, 26879, Pitch_bend_c, 5, 896
1, 26879, Pitch_bend_c, 7, 6912
1, 26879, Note_on_c, 9, 58, 48
1, 26880, Note_on_c, 3, 72, 0
1, 26880, Note_on_c, 2, 57, 0
1, 26880, Pitch_bend_c, 5, 1024
1, 26880, Pitch_bend_c, 7, 6656
1, 26881, Note_on_c, 3, 69, 0
1, 26881, Pitch_bend_c, 5, 1152
1, 26881, Pitch_bend_c, 7, 6528
1, 26882, Pitch_bend_c, 5, 1280
1, 26882, Pitch_bend_c, 7, 6400
1, 26883, Note_on_c, 9, 58, 0
1, 26883, Pitch_bend_c, 5, 1408
1, 26883, Pitch_bend_c, 7, 6144
1, 26884, Pitch_bend_c, 5, 1536
1, 26884, Pitch_bend_c, 7, 6016
1, 26885, Pitch_bend_c, 5, 1792
1, 26885, Pitch_bend_c, 7, 5888
1, 26886, Pitch_bend_c, 5, 1920
1, 26886, Pitch_bend_c, 7, 5632
1, 26887, Note_on_c, 2, 65, 0
1, 26887, Pitch_bend_c, 5, 2048
1, 26887, Pitch_bend_c, 7, 5504
1, 26888, Pitch_bend_c, 5, 2176
1, 26888, Pitch_bend_c, 7, 5120
1, 26889, Pitch_bend_c, 5, 2560
1, 26889, Pitch_bend_c, 7, 4992
1, 26890, Note_on_c, 1, 29, 0
1, 26890, Note_on_c, 2, 60, 0
1, 26890, Pitch_bend_c, 5, 2944
1, 26890, Pitch_bend_c, 7, 4736
1, 26891, Pitch_bend_c, 5, 3072
1, 26891, Pitch_bend_c, 7, 4608
1, 26892, Pitch_bend_c, 5, 3328
1, 26892, Pitch_bend_c, 7, 4352
1, 26893, Pitch_bend_c, 5, 3712
1, 26893, Pitch_bend_c, 7, 4224
1, 26894, Pitch_bend_c, 5, 3968
1, 26894, Pitch_bend_c, 7, 3968
1, 26895, Pitch_bend_c, 5, 4480
1, 26895, Pitch_bend_c, 7, 3840
1, 26896, Pitch_bend_c, 5, 4608
1, 26896, Pitch_bend_c, 7, 3456
1, 26897, Pitch_bend_c, 5, 4992
1, 26897, Pitch_bend_c, 7, 3200
1, 26898, Pitch_bend_c, 5, 5504
1, 26898, Pitch_bend_c, 7, 2816
1, 26899, Pitch_bend_c, 5, 5888
1, 26899, Pitch_bend_c, 7, 2688
1, 26900, Pitch_bend_c, 5, 6144
1, 26900, Pitch_bend_c, 7, 2432
1, 26901, Pitch_bend_c, 5, 6272
1, 26901, Pitch_bend_c, 7, 2048
1, 26902, Pitch_bend_c, 5, 6528
1, 26902, Pitch_bend_c, 7, 1792
1, 26903, Pitch_bend_c, 5, 6784
1, 26903, Pitch_bend_c, 7, 1536
1, 26903, Note_on_c, 7, 71, 97
1, 26904, Pitch_bend_c, 5, 7040
1, 26904, Pitch_bend_c, 7, 1408
1, 26905, Pitch_bend_c, 5, 7296
1, 26905, Pitch_bend_c, 7, 1024
1, 26906, Pitch_bend_c, 5, 7424
1, 26906, Pitch_bend_c, 7, 768
1, 26907, Pitch_bend_c, 5, 7552
1, 26908, Pitch_bend_c, 5, 7680
1, 26909, Pitch_bend_c, 5, 7808
1, 26911, Pitch_bend_c, 5, 8064
1, 26912, Pitch_bend_c, 5, 8192
1, 26912, Pitch_bend_c, 7, 896
1, 26912, Note_on_c, 9, 44, 75
1, 26913, Pitch_bend_c, 7, 1024
1, 26914, Pitch_bend_c, 7, 1152
1, 26915, Pitch_bend_c, 7, 1280
1, 26916, Note_on_c, 9, 44, 0
1, 26916, Pitch_bend_c, 7, 1408
1, 26917, Pitch_bend_c, 7, 1536
1, 26918, Pitch_bend_c, 7, 1792
1, 26919, Pitch_bend_c, 7, 1920
1, 26920, Pitch_bend_c, 7, 2048
1, 26921, Pitch_bend_c, 7, 2176
1, 26922, Pitch_bend_c, 7, 2560
1, 26923, Pitch_bend_c, 7, 2944
1, 26924, Pitch_bend_c, 7, 3072
1, 26925, Pitch_bend_c, 7, 3328
1, 26926, Pitch_bend_c, 7, 3712
1, 26927, Pitch_bend_c, 7, 3968
1, 26928, Pitch_bend_c, 7, 4480
1, 26929, Pitch_bend_c, 7, 4608
1, 26930, Pitch_bend_c, 7, 4992
1, 26931, Pitch_bend_c, 7, 5504
1, 26932, Note_on_c, 0, 48, 116
1, 26932, Pitch_bend_c, 7, 5888
1, 26933, Pitch_bend_c, 7, 6144
1, 26934, Note_on_c, 0, 52, 124
1, 26934, Pitch_bend_c, 7, 6272
1, 26935, Note_on_c, 0, 55, 127
1, 26935, Pitch_bend_c, 7, 6528
1, 26936, Note_on_c, 0, 60, 127
1, 26936, Pitch_bend_c, 7, 6784
1, 26937, Note_on_c, 5, 71, 0
1, 26937, Note_on_c, 5, 74, 112
1, 26937, Pitch_bend_c, 7, 7040
1, 26938, Note_on_c, 0, 64, 117
1, 26938, Pitch_bend_c, 7, 7296
1, 26939, Pitch_bend_c, 7, 7424
1, 26940, Pitch_bend_c, 7, 7552
1, 26941, Pitch_bend_c, 7, 7680
1, 26942, Note_on_c, 2, 60, 74
1, 26942, Pitch_bend_c, 7, 7808
1, 26943, Note_on_c, 2, 64, 76
1, 26943, Note_on_c, 2, 55, 73
1, 26943, Note_on_c, 3, 76, 79
1, 26943, Note_on_c, 9, 58, 53
1, 26944, Note_on_c, 3, 67, 80
1, 26944, Note_on_c, 3, 72, 81
1, 26944, Pitch_bend_c, 7, 8064
1, 26944, Note_on_c, 9, 35, 125
1, 26944, Note_on_c, 9, 46, 127
1, 26944, Note_on_c, 9, 49, 105
1, 26945, Note_on_c, 1, 28, 122
1, 26945, Pitch_bend_c, 7, 8192
1, 26947, Note_on_c, 9, 58, 0
1, 26948, Note_on_c, 9, 49, 0
1, 26948, Note_on_c, 9, 46, 0
1, 26948, Note_on_c, 9, 35, 0
1, 26965, Note_on_c, 0, 64, 0
1, 26966, Note_on_c, 0, 48, 0
1, 26966, Note_on_c, 0, 60, 0
1, 26967, Note_on_c, 0, 55, 0
1, 26967, Note_on_c, 0, 52, 0
1, 26970, Note_on_c, 7, 71, 0
1, 26970, Note_on_c, 7, 74, 82
1, 26971, Note_on_c, 5, 74, 0
1, 26971, Note_on_c, 5, 67, 112
1, 26972, Note_on_c, 2, 60, 0
1, 26973, Note_on_c, 2, 64, 0
1, 26976, Note_on_c, 2, 55, 0
1, 26976, Note_on_c, 3, 72, 0
1, 26979, Note_on_c, 3, 76, 0
1, 26982, Note_on_c, 3, 67, 0
1, 26988, Note_on_c, 5, 67, 0
1, 26997, Note_on_c, 1, 28, 0
1, 27004, Note_on_c, 7, 74, 0
1, 27004, Note_on_c, 7, 67, 82
1, 27008, Note_on_c, 9, 44, 75
1, 27012, Note_on_c, 9, 44, 0
1, 27021, Note_on_c, 7, 67, 0
1, 27026, Note_on_c, 5, 67, 125
1, 27031, Note_on_c, 0, 55, 125
1, 27033, Note_on_c, 0, 59, 127
1, 27035, Note_on_c, 0, 62, 127
1, 27035, Note_on_c, 0, 67, 120
1, 27039, Note_on_c, 2, 62, 76
1, 27039, Note_on_c, 2, 55, 76
1, 27039, Note_on_c, 2, 59, 74
1, 27039, Note_on_c, 9, 58, 53
1, 27040, Note_on_c, 3, 67, 82
1, 27040, Note_on_c, 3, 74, 82
1, 27040, Note_on_c, 3, 71, 83
1, 27040, Note_on_c, 9, 46, 127
1, 27040, Note_on_c, 9, 57, 105
1, 27040, Note_on_c, 9, 35, 125
1, 27041, Note_on_c, 1, 31, 124
1, 27043, Note_on_c, 9, 58, 0
1, 27044, Note_on_c, 9, 35, 0
1, 27044, Note_on_c, 9, 57, 0
1, 27044, Note_on_c, 9, 46, 0
1, 27059, Note_on_c, 7, 67, 95
1, 27065, Note_on_c, 0, 67, 0
1, 27066, Note_on_c, 0, 62, 0
1, 27066, Note_on_c, 0, 59, 0
1, 27067, Note_on_c, 3, 71, 0
1, 27067, Note_on_c, 0, 55, 0
1, 27068, Note_on_c, 3, 74, 0
1, 27072, Note_on_c, 3, 67, 0
1, 27081, Note_on_c, 2, 62, 0
1, 27085, Note_on_c, 2, 59, 0
1, 27085, Note_on_c, 2, 55, 0
1, 27087, Note_on_c, 5, 67, 0
1, 27104, Note_on_c, 9, 44, 75
1, 27108, Note_on_c, 9, 44, 0
1, 27114, Note_on_c, 1, 31, 0
1, 27120, Note_on_c, 7, 67, 0
1, 27126, Note_on_c, 0, 55, 127
1, 27131, Note_on_c, 0, 60, 127
1, 27134, Note_on_c, 2, 60, 79
1, 27135, Note_on_c, 2, 55, 78
1, 27135, Note_on_c, 2, 64, 78
1, 27135, Note_on_c, 3, 76, 86
1, 27135, Note_on_c, 3, 72, 88
1, 27135, Note_on_c, 3, 67, 86
1, 27135, Note_on_c, 9, 58, 45
1, 27136, Note_on_c, 9, 35, 125
1, 27136, Note_on_c, 9, 49, 115
1, 27137, Note_on_c, 1, 31, 122
1, 27139, Note_on_c, 9, 58, 0
1, 27140, Note_on_c, 9, 49, 0
1, 27140, Note_on_c, 9, 35, 0
1, 27165, Pitch_bend_c, 5, 7936
1, 27166, Pitch_bend_c, 5, 7808
1, 27167, Pitch_bend_c, 5, 7680
1, 27168, Pitch_bend_c, 5, 7552
1, 27168, Note_on_c, 9, 58, 49
1, 27169, Pitch_bend_c, 5, 7424
1, 27170, Pitch_bend_c, 5, 7168
1, 27171, Pitch_bend_c, 5, 7040
1, 27172, Note_on_c, 9, 58, 0
1, 27172, Pitch_bend_c, 5, 6784
1, 27173, Pitch_bend_c, 5, 6400
1, 27174, Pitch_bend_c, 5, 6272
1, 27175, Pitch_bend_c, 5, 6016
1, 27176, Pitch_bend_c, 5, 5888
1, 27177, Pitch_bend_c, 5, 5504
1, 27178, Pitch_bend_c, 5, 4864
1, 27179, Pitch_bend_c, 5, 4736
1, 27180, Pitch_bend_c, 5, 4480
1, 27181, Pitch_bend_c, 5, 3968
1, 27182, Pitch_bend_c, 5, 3712
1, 27183, Pitch_bend_c, 5, 3328
1, 27184, Pitch_bend_c, 5, 2816
1, 27186, Pitch_bend_c, 5, 2432
1, 27187, Pitch_bend_c, 5, 2176
1, 27188, Pitch_bend_c, 5, 1664
1, 27189, Pitch_bend_c, 5, 1152
1, 27190, Pitch_bend_c, 5, 896
1, 27191, Pitch_bend_c, 5, 384
1, 27192, Pitch_bend_c, 5, 256
1, 27193, Pitch_bend_c, 5, 0
1, 27198, Pitch_bend_c, 7, 7936
1, 27199, Pitch_bend_c, 7, 7808
1, 27200, Pitch_bend_c, 7, 7680
1, 27201, Pitch_bend_c, 7, 7552
1, 27202, Pitch_bend_c, 7, 7424
1, 27203, Pitch_bend_c, 7, 7168
1, 27204, Pitch_bend_c, 7, 7040
1, 27205, Pitch_bend_c, 7, 6784
1, 27206, Pitch_bend_c, 7, 6400
1, 27207, Pitch_bend_c, 7, 6272
1, 27208, Pitch_bend_c, 7, 6016
1, 27209, Pitch_bend_c, 7, 5888
1, 27210, Pitch_bend_c, 7, 5504
1, 27211, Pitch_bend_c, 7, 4864
1, 27212, Pitch_bend_c, 7, 4736
1, 27213, Note_on_c, 5, 79, 127
1, 27213, Pitch_bend_c, 7, 4480
1, 27214, Pitch_bend_c, 7, 3968
1, 27215, Pitch_bend_c, 7, 3712
1, 27216, Pitch_bend_c, 7, 3328
1, 27217, Pitch_bend_c, 7, 2816
1, 27219, Pitch_bend_c, 7, 2432
1, 27220, Pitch_bend_c, 7, 2176
1, 27221, Pitch_bend_c, 7, 1664
1, 27222, Pitch_bend_c, 7, 1152
1, 27223, Pitch_bend_c, 7, 896
1, 27224, Pitch_bend_c, 7, 384
1, 27225, Pitch_bend_c, 7, 256
1, 27226, Pitch_bend_c, 7, 0
1, 27232, Note_on_c, 9, 38, 85
1, 27236, Note_on_c, 9, 38, 0
1, 27236, Pitch_bend_c, 5, 128
1, 27237, Pitch_bend_c, 5, 384
1, 27238, Pitch_bend_c, 5, 768
1, 27239, Pitch_bend_c, 5, 896
1, 27240, Pitch_bend_c, 5, 1280
1, 27241, Pitch_bend_c, 5, 1664
1, 27242, Pitch_bend_c, 5, 1792
1, 27243, Pitch_bend_c, 5, 2176
1, 27244, Pitch_bend_c, 5, 2432
1, 27245, Pitch_bend_c, 5, 2560
1, 27246, Note_on_c, 3, 76, 0
1, 27246, Pitch_bend_c, 5, 2944
1, 27246, Note_on_c, 7, 79, 97
1, 27247, Pitch_bend_c, 5, 3200
1, 27248, Note_on_c, 3, 72, 0
1, 27248, Pitch_bend_c, 5, 3456
1, 27248, Note_on_c, 9, 38, 85
1, 27249, Pitch_bend_c, 5, 3712
1, 27250, Pitch_bend_c, 5, 3968
1, 27251, Pitch_bend_c, 5, 4096
1, 27252, Note_on_c, 9, 38, 0
1, 27252, Note_on_c, 3, 67, 0
1, 27252, Pitch_bend_c, 5, 4352
1, 27253, Note_on_c, 1, 31, 0
1, 27253, Pitch_bend_c, 5, 4480
1, 27254, Pitch_bend_c, 5, 4608
1, 27255, Pitch_bend_c, 5, 5120
1, 27256, Pitch_bend_c, 5, 5376
1, 27257, Pitch_bend_c, 5, 5760
1, 27258, Note_on_c, 2, 64, 0
1, 27258, Pitch_bend_c, 5, 6016
1, 27259, Pitch_bend_c, 5, 6400
1, 27260, Note_on_c, 2, 60, 0
1, 27260, Pitch_bend_c, 5, 6656
1, 27261, Note_on_c, 2, 55, 0
1, 27261, Pitch_bend_c, 5, 7040
1, 27262, Note_on_c, 0, 60, 0
1, 27262, Pitch_bend_c, 5, 7296
1, 27263, Pitch_bend_c, 5, 7680
1, 27264, Note_on_c, 1, 31, 121
1, 27264, Note_on_c, 2, 59, 79
1, 27264, Note_on_c, 2, 55, 76
1, 27264, Note_on_c, 2, 62, 77
1, 27264, Note_on_c, 3, 71, 83
1, 27264, Note_on_c, 3, 67, 81
1, 27264, Note_on_c, 3, 74, 82
1, 27264, Pitch_bend_c, 5, 7936
1, 27264, Note_on_c, 9, 35, 125
1, 27264, Note_on_c, 9, 58, 45
1, 27264, Note_on_c, 9, 38, 125
1, 27265, Pitch_bend_c, 5, 8192
1, 27266, Note_on_c, 0, 55, 0
1, 27268, Note_on_c, 9, 35, 0
1, 27268, Note_on_c, 9, 38, 0
1, 27268, Note_on_c, 9, 58, 0
1, 27269, Pitch_bend_c, 7, 128
1, 27270, Pitch_bend_c, 7, 384
1, 27271, Note_on_c, 3, 71, 0
1, 27271, Pitch_bend_c, 7, 768
1, 27272, Pitch_bend_c, 7, 896
1, 27273, Note_on_c, 3, 74, 0
1, 27273, Pitch_bend_c, 7, 1280
1, 27274, Note_on_c, 3, 67, 0
1, 27274, Pitch_bend_c, 7, 1664
1, 27275, Note_on_c, 2, 55, 0
1, 27275, Pitch_bend_c, 7, 1792
1, 27276, Note_on_c, 2, 59, 0
1, 27276, Pitch_bend_c, 7, 2176
1, 27277, Note_on_c, 2, 62, 0
1, 27277, Pitch_bend_c, 7, 2432
1, 27278, Pitch_bend_c, 7, 2560
1, 27279, Pitch_bend_c, 7, 2944
1, 27280, Pitch_bend_c, 7, 3200
1, 27281, Pitch_bend_c, 7, 3456
1, 27282, Pitch_bend_c, 7, 3712
1, 27283, Pitch_bend_c, 7, 3968
1, 27284, Pitch_bend_c, 7, 4096
1, 27285, Pitch_bend_c, 7, 4352
1, 27286, Pitch_bend_c, 7, 4480
1, 27287, Pitch_bend_c, 7, 4608
1, 27288, Pitch_bend_c, 7, 5120
1, 27289, Pitch_bend_c, 7, 5376
1, 27290, Pitch_bend_c, 7, 5760
1, 27291, Pitch_bend_c, 7, 6016
1, 27292, Pitch_bend_c, 7, 6400
1, 27293, Note_on_c, 1, 31, 0
1, 27293, Pitch_bend_c, 7, 6656
1, 27294, Pitch_bend_c, 7, 7040
1, 27295, Pitch_bend_c, 7, 7296
1, 27296, Pitch_bend_c, 7, 7680
1, 27297, Pitch_bend_c, 7, 7936
1, 27298, Pitch_bend_c, 7, 8192
1, 27326, Note_on_c, 2, 64, 84
1, 27326, Note_on_c, 2, 60, 82
1, 27326, Note_on_c, 2, 55, 79
1, 27326, Note_on_c, 3, 67, 88
1, 27327, Note_on_c, 0, 55, 127
1, 27327, Note_on_c, 3, 72, 99
1, 27327, Note_on_c, 3, 76, 94
1, 27328, Note_on_c, 0, 60, 127
1, 27328, Note_on_c, 9, 49, 105
1, 27328, Note_on_c, 9, 38, 125
1, 27328, Note_on_c, 9, 58, 45
1, 27329, Note_on_c, 1, 31, 111
1, 27330, Note_on_c, 0, 64, 127
1, 27332, Note_on_c, 9, 58, 0
1, 27332, Note_on_c, 9, 38, 0
1, 27332, Note_on_c, 9, 49, 0
1, 27359, Note_on_c, 5, 79, 0
1, 27359, Note_on_c, 5, 76, 119
1, 27392, Note_on_c, 7, 79, 0
1, 27392, Note_on_c, 7, 76, 89
1, 27409, Note_on_c, 1, 31, 0
1, 27412, Note_on_c, 5, 76, 0
1, 27414, Note_on_c, 0, 64, 0
1, 27418, Note_on_c, 5, 74, 112
1, 27424, Note_on_c, 0, 60, 0
1, 27424, Note_on_c, 9, 58, 47
1, 27426, Note_on_c, 0, 55, 0
1, 27428, Note_on_c, 9, 58, 0
1, 27437, Note_on_c, 3, 72, 0
1, 27437, Note_on_c, 3, 76, 0
1, 27438, Note_on_c, 3, 67, 0
1, 27442, Note_on_c, 2, 64, 0
1, 27443, Note_on_c, 2, 60, 0
1, 27445, Note_on_c, 7, 76, 0
1, 27448, Note_on_c, 2, 55, 0
1, 27451, Note_on_c, 7, 74, 82
1, 27453, Note_on_c, 0, 55, 127
1, 27455, Note_on_c, 0, 59, 127
1, 27456, Note_on_c, 0, 62, 127
1, 27456, Note_on_c, 1, 31, 122
1, 27456, Note_on_c, 9, 49, 85
1, 27456, Note_on_c, 9, 35, 125
1, 27456, Note_on_c, 9, 38, 125
1, 27457, Note_on_c, 0, 67, 125
1, 27457, Note_on_c, 3, 67, 86
1, 27457, Note_on_c, 3, 74, 90
1, 27457, Note_on_c, 3, 71, 86
1, 27458, Note_on_c, 2, 62, 79
1, 27458, Note_on_c, 2, 59, 79
1, 27458, Note_on_c, 2, 55, 77
1, 27458, Note_on_c, 9, 58, 46
1, 27460, Note_on_c, 9, 38, 0
1, 27460, Note_on_c, 9, 35, 0
1, 27460, Note_on_c, 9, 49, 0
1, 27462, Note_on_c, 9, 58, 0
1, 27486, Note_on_c, 0, 67, 0
1, 27486, Note_on_c, 2, 62, 0
1, 27486, Note_on_c, 0, 62, 0
1, 27487, Note_on_c, 2, 55, 0
1, 27487, Note_on_c, 0, 59, 0
1, 27488, Note_on_c, 2, 59, 0
1, 27489, Note_on_c, 0, 55, 0
1, 27500, Note_on_c, 3, 67, 0
1, 27503, Note_on_c, 3, 71, 0
1, 27504, Note_on_c, 3, 74, 0
1, 27506, Note_on_c, 1, 31, 0
1, 27521, Note_on_c, 9, 58, 52
1, 27525, Note_on_c, 9, 58, 0
1, 27539, Note_on_c, 5, 74, 0
1, 27543, Note_on_c, 5, 76, 127
1, 27572, Note_on_c, 7, 74, 0
1, 27576, Note_on_c, 7, 76, 97
1, 27605, Note_on_c, 5, 76, 0
1, 27605, Note_on_c, 5, 74, 85
1, 27616, Note_on_c, 9, 38, 85
1, 27616, Note_on_c, 9, 58, 44
1, 27618, Pitch_bend_c, 5, 7936
1, 27619, Pitch_bend_c, 5, 7552
1, 27620, Note_on_c, 9, 58, 0
1, 27620, Note_on_c, 9, 38, 0
1, 27620, Pitch_bend_c, 5, 7296
1, 27621, Pitch_bend_c, 5, 7040
1, 27622, Pitch_bend_c, 5, 6400
1, 27623, Pitch_bend_c, 5, 5888
1, 27624, Pitch_bend_c, 5, 4992
1, 27625, Pitch_bend_c, 5, 4608
1, 27626, Pitch_bend_c, 5, 4352
1, 27627, Pitch_bend_c, 5, 3712
1, 27628, Pitch_bend_c, 5, 3456
1, 27629, Note_on_c, 5, 74, 0
1, 27630, Pitch_bend_c, 5, 2944
1, 27631, Pitch_bend_c, 5, 2560
1, 27632, Pitch_bend_c, 5, 2048
1, 27633, Pitch_bend_c, 5, 1536
1, 27634, Pitch_bend_c, 5, 1152
1, 27635, Pitch_bend_c, 5, 896
1, 27636, Pitch_bend_c, 5, 512
1, 27637, Pitch_bend_c, 5, 256
1, 27638, Note_on_c, 7, 76, 0
1, 27638, Note_on_c, 7, 74, 55
1, 27639, Pitch_bend_c, 5, 128
1, 27640, Note_on_c, 5, 77, 127
1, 27641, Pitch_bend_c, 5, 0
1, 27643, Pitch_bend_c, 5, 128
1, 27645, Pitch_bend_c, 5, 256
1, 27646, Pitch_bend_c, 5, 384
1, 27647, Pitch_bend_c, 5, 768
1, 27648, Pitch_bend_c, 5, 1024
1, 27648, Note_on_c, 9, 38, 105
1, 27649, Pitch_bend_c, 5, 1280
1, 27650, Pitch_bend_c, 5, 1536
1, 27650, Note_on_c, 9, 58, 48
1, 27651, Pitch_bend_c, 5, 1920
1, 27651, Pitch_bend_c, 7, 7936
1, 27652, Note_on_c, 9, 38, 0
1, 27652, Pitch_bend_c, 5, 2688
1, 27652, Pitch_bend_c, 7, 7552
1, 27653, Pitch_bend_c, 5, 3072
1, 27653, Pitch_bend_c, 7, 7296
1, 27654, Note_on_c, 9, 58, 0
1, 27654, Pitch_bend_c, 5, 3840
1, 27654, Pitch_bend_c, 7, 7040
1, 27655, Pitch_bend_c, 5, 4736
1, 27655, Pitch_bend_c, 7, 6400
1, 27656, Pitch_bend_c, 5, 5760
1, 27656, Pitch_bend_c, 7, 5888
1, 27657, Pitch_bend_c, 5, 6400
1, 27657, Pitch_bend_c, 7, 4992
1, 27658, Pitch_bend_c, 5, 6784
1, 27658, Pitch_bend_c, 7, 4608
1, 27659, Pitch_bend_c, 5, 7424
1, 27659, Pitch_bend_c, 7, 4352
1, 27660, Pitch_bend_c, 5, 7680
1, 27660, Pitch_bend_c, 7, 3712
1, 27661, Pitch_bend_c, 5, 7936
1, 27661, Pitch_bend_c, 7, 3456
1, 27662, Note_on_c, 7, 74, 0
1, 27662, Pitch_bend_c, 5, 8192
1, 27663, Pitch_bend_c, 7, 2944
1, 27664, Pitch_bend_c, 7, 2560
1, 27665, Pitch_bend_c, 7, 2048
1, 27666, Pitch_bend_c, 7, 1536
1, 27667, Pitch_bend_c, 7, 1152
1, 27668, Pitch_bend_c, 7, 896
1, 27669, Pitch_bend_c, 7, 512
1, 27670, Pitch_bend_c, 7, 256
1, 27672, Pitch_bend_c, 7, 128
1, 27673, Note_on_c, 7, 77, 97
1, 27674, Pitch_bend_c, 7, 0
1, 27676, Pitch_bend_c, 7, 128
1, 27678, Pitch_bend_c, 7, 256
1, 27679, Pitch_bend_c, 7, 384
1, 27680, Pitch_bend_c, 7, 768
1, 27681, Pitch_bend_c, 7, 1024
1, 27682, Pitch_bend_c, 7, 1280
1, 27683, Pitch_bend_c, 7, 1536
1, 27684, Pitch_bend_c, 7, 1920
1, 27685, Pitch_bend_c, 7, 2688
1, 27686, Pitch_bend_c, 7, 3072
1, 27687, Pitch_bend_c, 7, 3840
1, 27688, Pitch_bend_c, 7, 4736
1, 27689, Pitch_bend_c, 7, 5760
1, 27690, Pitch_bend_c, 7, 6400
1, 27691, Pitch_bend_c, 7, 6784
1, 27692, Pitch_bend_c, 7, 7424
1, 27693, Pitch_bend_c, 7, 7680
1, 27694, Pitch_bend_c, 7, 7936
1, 27695, Pitch_bend_c, 7, 8192
1, 27707, Note_on_c, 5, 77, 0
1, 27707, Note_on_c, 5, 76, 125
1, 27708, Note_on_c, 0, 55, 127
1, 27711, Note_on_c, 0, 64, 127
1, 27711, Note_on_c, 2, 60, 72
1, 27711, Note_on_c, 2, 55, 77
1, 27711, Note_on_c, 2, 64, 77
1, 27712, Note_on_c, 0, 60, 127
1, 27712, Note_on_c, 1, 31, 126
1, 27712, Note_on_c, 3, 72, 92
1, 27712, Note_on_c, 3, 67, 88
1, 27712, Note_on_c, 3, 76, 92
1, 27712, Note_on_c, 9, 38, 125
1, 27712, Note_on_c, 9, 58, 53
1, 27712, Note_on_c, 9, 49, 105
1, 27716, Note_on_c, 9, 49, 0
1, 27716, Note_on_c, 9, 58, 0
1, 27716, Note_on_c, 9, 38, 0
1, 27740, Note_on_c, 7, 77, 0
1, 27740, Note_on_c, 5, 76, 0
1, 27740, Note_on_c, 5, 74, 99
1, 27740, Note_on_c, 7, 76, 95
1, 27771, Note_on_c, 5, 74, 0
1, 27771, Note_on_c, 5, 76, 112
1, 27773, Note_on_c, 7, 76, 0
1, 27773, Note_on_c, 7, 74, 69
1, 27790, Note_on_c, 0, 64, 0
1, 27803, Note_on_c, 0, 60, 0
1, 27804, Note_on_c, 7, 74, 0
1, 27804, Note_on_c, 7, 76, 82
1, 27807, Note_on_c, 0, 55, 0
1, 27808, Note_on_c, 5, 76, 0
1, 27808, Note_on_c, 5, 74, 119
1, 27809, Note_on_c, 9, 58, 44
1, 27813, Note_on_c, 9, 58, 0
1, 27814, Note_on_c, 3, 76, 0
1, 27815, Note_on_c, 3, 72, 0
1, 27816, Note_on_c, 3, 67, 0
1, 27816, Note_on_c, 2, 60, 0
1, 27817, Note_on_c, 2, 64, 0
1, 27821, Note_on_c, 2, 55, 0
1, 27824, Note_on_c, 1, 31, 0
1, 27835, Note_on_c, 0, 59, 127
1, 27837, Note_on_c, 0, 62, 127
1, 27838, Note_on_c, 0, 67, 126
1, 27840, Note_on_c, 1, 31, 121
1, 27840, Note_on_c, 2, 55, 76
1, 27840, Note_on_c, 2, 62, 77
1, 27840, Note_on_c, 2, 59, 77
1, 27840, Note_on_c, 3, 71, 88
1, 27840, Note_on_c, 3, 67, 84
1, 27840, Note_on_c, 9, 35, 125
1, 27840, Note_on_c, 9, 38, 127
1, 27840, Note_on_c, 9, 49, 85
1, 27841, Note_on_c, 7, 76, 0
1, 27841, Note_on_c, 3, 74, 88
1, 27841, Note_on_c, 7, 74, 89
1, 27842, Note_on_c, 9, 58, 41
1, 27844, Note_on_c, 9, 49, 0
1, 27844, Note_on_c, 9, 35, 0
1, 27844, Note_on_c, 9, 38, 0
1, 27846, Note_on_c, 9, 58, 0
1, 27867, Note_on_c, 0, 59, 0
1, 27868, Note_on_c, 0, 67, 0
1, 27868, Note_on_c, 0, 62, 0
1, 27875, Note_on_c, 5, 74, 0
1, 27881, Note_on_c, 2, 59, 0
1, 27882, Note_on_c, 2, 55, 0
1, 27883, Note_on_c, 2, 62, 0
1, 27887, Note_on_c, 3, 74, 0
1, 27887, Note_on_c, 3, 67, 0
1, 27888, Note_on_c, 3, 71, 0
1, 27893, Note_on_c, 1, 31, 0
1, 27897, Note_on_c, 5, 74, 94
1, 27905, Note_on_c, 9, 58, 54
1, 27908, Note_on_c, 7, 74, 0
1, 27909, Note_on_c, 9, 58, 0
1, 27919, Note_on_c, 5, 74, 0
1, 27928, Note_on_c, 5, 76, 125
1, 27930, Note_on_c, 7, 74, 64
1, 27936, Note_on_c, 9, 38, 115
1, 27940, Note_on_c, 9, 38, 0
1, 27940, Note_on_c, 9, 38, 115
1, 27944, Note_on_c, 9, 38, 0
1, 27952, Note_on_c, 7, 74, 0
1, 27961, Note_on_c, 7, 76, 95
1, 27967, Note_on_c, 5, 76, 0
1, 27971, Pitch_bend_c, 5, 7808
1, 27972, Pitch_bend_c, 5, 7296
1, 27973, Pitch_bend_c, 5, 6912
1, 27974, Pitch_bend_c, 5, 6272
1, 27975, Pitch_bend_c, 5, 5504
1, 27976, Pitch_bend_c, 5, 4992
1, 27977, Pitch_bend_c, 5, 4224
1, 27978, Pitch_bend_c, 5, 3840
1, 27979, Pitch_bend_c, 5, 3456
1, 27980, Pitch_bend_c, 5, 2816
1, 27981, Pitch_bend_c, 5, 2176
1, 27982, Pitch_bend_c, 5, 1920
1, 27983, Pitch_bend_c, 5, 1664
1, 27984, Pitch_bend_c, 5, 1408
1, 27985, Pitch_bend_c, 5, 1024
1, 27986, Pitch_bend_c, 5, 640
1, 27987, Pitch_bend_c, 5, 512
1, 27988, Pitch_bend_c, 5, 256
1, 27990, Pitch_bend_c, 5, 0
1, 27991, Note_on_c, 5, 77, 127
1, 27998, Pitch_bend_c, 5, 128
1, 28000, Note_on_c, 7, 76, 0
1, 28000, Pitch_bend_c, 5, 256
1, 28001, Note_on_c, 9, 58, 43
1, 28002, Pitch_bend_c, 5, 384
1, 28003, Pitch_bend_c, 5, 512
1, 28004, Pitch_bend_c, 5, 640
1, 28004, Pitch_bend_c, 7, 7808
1, 28005, Note_on_c, 9, 58, 0
1, 28005, Pitch_bend_c, 5, 768
1, 28005, Pitch_bend_c, 7, 7296
1, 28006, Pitch_bend_c, 5, 1024
1, 28006, Pitch_bend_c, 7, 6912
1, 28007, Pitch_bend_c, 5, 1152
1, 28007, Pitch_bend_c, 7, 6272
1, 28008, Pitch_bend_c, 5, 1536
1, 28008, Pitch_bend_c, 7, 5504
1, 28009, Pitch_bend_c, 5, 1792
1, 28009, Pitch_bend_c, 7, 4992
1, 28010, Pitch_bend_c, 5, 2304
1, 28010, Pitch_bend_c, 7, 4224
1, 28011, Pitch_bend_c, 5, 2560
1, 28011, Pitch_bend_c, 7, 3840
1, 28012, Pitch_bend_c, 5, 3200
1, 28012, Pitch_bend_c, 7, 3456
1, 28013, Pitch_bend_c, 5, 3456
1, 28013, Pitch_bend_c, 7, 2816
1, 28014, Pitch_bend_c, 5, 3968
1, 28014, Pitch_bend_c, 7, 2176
1, 28015, Pitch_bend_c, 7, 1920
1, 28016, Pitch_bend_c, 5, 4608
1, 28016, Pitch_bend_c, 7, 1664
1, 28017, Pitch_bend_c, 5, 4864
1, 28017, Pitch_bend_c, 7, 1408
1, 28018, Pitch_bend_c, 5, 5632
1, 28018, Pitch_bend_c, 7, 1024
1, 28019, Pitch_bend_c, 5, 5888
1, 28019, Pitch_bend_c, 7, 640
1, 28020, Pitch_bend_c, 5, 6272
1, 28020, Pitch_bend_c, 7, 512
1, 28021, Pitch_bend_c, 5, 6528
1, 28021, Pitch_bend_c, 7, 256
1, 28022, Pitch_bend_c, 5, 7040
1, 28023, Pitch_bend_c, 5, 7424
1, 28023, Pitch_bend_c, 7, 0
1, 28024, Pitch_bend_c, 5, 7552
1, 28024, Note_on_c, 7, 77, 97
1, 28025, Pitch_bend_c, 5, 7808
1, 28026, Pitch_bend_c, 5, 8192
1, 28028, Note_on_c, 0, 48, 125
1, 28031, Note_on_c, 0, 53, 127
1, 28031, Pitch_bend_c, 7, 128
1, 28032, Note_on_c, 2, 65, 75
1, 28032, Note_on_c, 2, 57, 74
1, 28032, Note_on_c, 2, 60, 75
1, 28032, Note_on_c, 3, 72, 87
1, 28032, Note_on_c, 3, 69, 82
1, 28032, Note_on_c, 3, 77, 83
1, 28032, Note_on_c, 9, 35, 125
1, 28032, Note_on_c, 9, 57, 115
1, 28033, Note_on_c, 1, 29, 127
1, 28033, Pitch_bend_c, 7, 256
1, 28034, Note_on_c, 9, 58, 45
1, 28035, Note_on_c, 0, 57, 127
1, 28035, Pitch_bend_c, 7, 384
1, 28036, Note_on_c, 9, 57, 0
1, 28036, Note_on_c, 9, 35, 0
1, 28036, Pitch_bend_c, 7, 512
1, 28037, Pitch_bend_c, 7, 640
1, 28038, Note_on_c, 9, 58, 0
1, 28038, Note_on_c, 0, 60, 126
1, 28038, Pitch_bend_c, 7, 768
1, 28039, Pitch_bend_c, 7, 1024
1, 28040, Pitch_bend_c, 7, 1152
1, 28041, Note_on_c, 0, 65, 127
1, 28041, Pitch_bend_c, 7, 1536
1, 28042, Pitch_bend_c, 7, 1792
1, 28043, Pitch_bend_c, 7, 2304
1, 28044, Pitch_bend_c, 7, 2560
1, 28045, Pitch_bend_c, 7, 3200
1, 28046, Pitch_bend_c, 7, 3456
1, 28047, Pitch_bend_c, 7, 3968
1, 28049, Pitch_bend_c, 7, 4608
1, 28050, Pitch_bend_c, 7, 4864
1, 28051, Pitch_bend_c, 7, 5632
1, 28052, Pitch_bend_c, 7, 5888
1, 28053, Pitch_bend_c, 7, 6272
1, 28054, Pitch_bend_c, 7, 6528
1, 28055, Pitch_bend_c, 7, 7040
1, 28056, Pitch_bend_c, 7, 7424
1, 28057, Pitch_bend_c, 7, 7552
1, 28058, Pitch_bend_c, 7, 7808
1, 28059, Pitch_bend_c, 7, 8192
1, 28097, Note_on_c, 9, 58, 51
1, 28101, Note_on_c, 9, 58, 0
1, 28122, Note_on_c, 5, 77, 0
1, 28122, Note_on_c, 5, 76, 125
1, 28128, Note_on_c, 9, 38, 125
1, 28132, Note_on_c, 9, 38, 0
1, 28155, Note_on_c, 7, 77, 0
1, 28155, Note_on_c, 7, 76, 95
1, 28167, Note_on_c, 0, 65, 0
1, 28171, Note_on_c, 0, 60, 0
1, 28176, Note_on_c, 0, 57, 0
1, 28182, Note_on_c, 0, 53, 0
1, 28182, Note_on_c, 2, 65, 0
1, 28188, Note_on_c, 0, 48, 0
1, 28191, Note_on_c, 3, 77, 0
1, 28191, Note_on_c, 2, 57, 0
1, 28191, Note_on_c, 9, 58, 42
1, 28194, Note_on_c, 3, 69, 0
1, 28195, Note_on_c, 9, 58, 0
1, 28199, Note_on_c, 2, 60, 0
1, 28199, Note_on_c, 3, 72, 0
1, 28205, Note_on_c, 1, 29, 0
1, 28210, Note_on_c, 0, 48, 111
1, 28213, Note_on_c, 5, 76, 0
1, 28213, Note_on_c, 5, 74, 125
1, 28215, Note_on_c, 0, 52, 126
1, 28220, Note_on_c, 0, 55, 127
1, 28223, Note_on_c, 0, 60, 119
1, 28224, Note_on_c, 1, 28, 126
1, 28224, Note_on_c, 3, 76, 82
1, 28224, Note_on_c, 9, 58, 45
1, 28224, Note_on_c, 9, 35, 125
1, 28224, Note_on_c, 9, 49, 105
1, 28225, Note_on_c, 2, 55, 76
1, 28225, Note_on_c, 2, 60, 74
1, 28225, Note_on_c, 2, 64, 74
1, 28225, Note_on_c, 3, 67, 82
1, 28225, Note_on_c, 3, 72, 82
1, 28227, Note_on_c, 0, 64, 125
1, 28228, Note_on_c, 9, 49, 0
1, 28228, Note_on_c, 9, 35, 0
1, 28228, Note_on_c, 9, 58, 0
1, 28246, Note_on_c, 7, 76, 0
1, 28246, Note_on_c, 7, 74, 95
1, 28273, Note_on_c, 5, 74, 0
1, 28288, Note_on_c, 9, 58, 51
1, 28292, Note_on_c, 9, 58, 0
1, 28306, Note_on_c, 7, 74, 0
1, 28312, Note_on_c, 5, 72, 119
1, 28317, Note_on_c, 0, 64, 0
1, 28318, Note_on_c, 0, 52, 0
1, 28319, Note_on_c, 0, 48, 0
1, 28319, Note_on_c, 0, 60, 0
1, 28320, Note_on_c, 9, 38, 125
1, 28324, Note_on_c, 9, 38, 0
1, 28327, Note_on_c, 2, 64, 0
1, 28331, Note_on_c, 2, 55, 0
1, 28342, Note_on_c, 3, 67, 0
1, 28345, Note_on_c, 7, 72, 89
1, 28347, Note_on_c, 3, 76, 0
1, 28348, Note_on_c, 2, 60, 0
1, 28351, Note_on_c, 3, 72, 0
1, 28353, Note_on_c, 0, 55, 0
1, 28357, Note_on_c, 1, 28, 0
1, 28376, Note_on_c, 0, 53, 88
1, 28379, Note_on_c, 5, 72, 0
1, 28379, Note_on_c, 0, 57, 127
1, 28381, Note_on_c, 0, 60, 127
1, 28382, Note_on_c, 0, 65, 127
1, 28383, Note_on_c, 2, 65, 74
1, 28383, Note_on_c, 2, 60, 75
1, 28383, Note_on_c, 2, 57, 74
1, 28383, Pitch_bend_c, 5, 7680
1, 28384, Note_on_c, 1, 29, 124
1, 28384, Note_on_c, 3, 69, 81
1, 28384, Note_on_c, 3, 77, 82
1, 28384, Note_on_c, 3, 72, 82
1, 28384, Pitch_bend_c, 5, 7552
1, 28384, Note_on_c, 9, 35, 125
1, 28384, Note_on_c, 9, 46, 127
1, 28384, Note_on_c, 9, 49, 105
1, 28384, Note_on_c, 9, 58, 45
1, 28385, Pitch_bend_c, 5, 7296
1, 28386, Pitch_bend_c, 5, 7040
1, 28387, Pitch_bend_c, 5, 6912
1, 28388, Note_on_c, 9, 58, 0
1, 28388, Note_on_c, 9, 49, 0
1, 28388, Note_on_c, 9, 46, 0
1, 28388, Note_on_c, 9, 35, 0
1, 28388, Pitch_bend_c, 5, 6528
1, 28389, Pitch_bend_c, 5, 6272
1, 28390, Pitch_bend_c, 5, 6016
1, 28391, Pitch_bend_c, 5, 5632
1, 28392, Pitch_bend_c, 5, 5120
1, 28393, Pitch_bend_c, 5, 4736
1, 28394, Pitch_bend_c, 5, 3840
1, 28395, Pitch_bend_c, 5, 2816
1, 28396, Pitch_bend_c, 5, 1920
1, 28397, Pitch_bend_c, 5, 1024
1, 28398, Pitch_bend_c, 5, 0
1, 28409, Note_on_c, 5, 71, 127
1, 28412, Note_on_c, 7, 72, 0
1, 28412, Note_on_c, 0, 60, 0
1, 28413, Note_on_c, 3, 77, 0
1, 28413, Note_on_c, 0, 65, 0
1, 28415, Note_on_c, 0, 57, 0
1, 28416, Note_on_c, 2, 57, 0
1, 28416, Note_on_c, 3, 72, 0
1, 28416, Pitch_bend_c, 7, 7680
1, 28417, Note_on_c, 3, 69, 0
1, 28417, Pitch_bend_c, 7, 7552
1, 28417, Note_on_c, 9, 58, 42
1, 28418, Pitch_bend_c, 5, 256
1, 28418, Pitch_bend_c, 7, 7296
1, 28419, Pitch_bend_c, 5, 640
1, 28419, Pitch_bend_c, 7, 7040
1, 28420, Pitch_bend_c, 7, 6912
1, 28421, Note_on_c, 9, 58, 0
1, 28421, Note_on_c, 0, 53, 0
1, 28421, Pitch_bend_c, 5, 1280
1, 28421, Pitch_bend_c, 7, 6528
1, 28422, Pitch_bend_c, 5, 1536
1, 28422, Pitch_bend_c, 7, 6272
1, 28423, Note_on_c, 2, 65, 0
1, 28423, Pitch_bend_c, 5, 2304
1, 28423, Pitch_bend_c, 7, 6016
1, 28424, Pitch_bend_c, 5, 2688
1, 28424, Pitch_bend_c, 7, 5632
1, 28425, Pitch_bend_c, 5, 3328
1, 28425, Pitch_bend_c, 7, 5120
1, 28426, Note_on_c, 2, 60, 0
1, 28426, Note_on_c, 1, 29, 0
1, 28426, Pitch_bend_c, 5, 3968
1, 28426, Pitch_bend_c, 7, 4736
1, 28427, Pitch_bend_c, 5, 4352
1, 28427, Pitch_bend_c, 7, 3840
1, 28428, Pitch_bend_c, 5, 4736
1, 28428, Pitch_bend_c, 7, 2816
1, 28429, Pitch_bend_c, 5, 5504
1, 28429, Pitch_bend_c, 7, 1920
1, 28430, Pitch_bend_c, 5, 5760
1, 28430, Pitch_bend_c, 7, 1024
1, 28431, Pitch_bend_c, 5, 6144
1, 28431, Pitch_bend_c, 7, 0
1, 28432, Pitch_bend_c, 5, 6400
1, 28433, Pitch_bend_c, 5, 6784
1, 28434, Pitch_bend_c, 5, 6912
1, 28435, Pitch_bend_c, 5, 7168
1, 28436, Pitch_bend_c, 5, 7424
1, 28437, Pitch_bend_c, 5, 7552
1, 28438, Pitch_bend_c, 5, 7808
1, 28439, Pitch_bend_c, 5, 7936
1, 28440, Pitch_bend_c, 5, 8192
1, 28442, Note_on_c, 7, 71, 97
1, 28448, Note_on_c, 9, 44, 75
1, 28451, Pitch_bend_c, 7, 256
1, 28452, Note_on_c, 9, 44, 0
1, 28452, Pitch_bend_c, 7, 640
1, 28454, Pitch_bend_c, 7, 1280
1, 28455, Pitch_bend_c, 7, 1536
1, 28456, Pitch_bend_c, 7, 2304
1, 28457, Pitch_bend_c, 7, 2688
1, 28458, Pitch_bend_c, 7, 3328
1, 28459, Pitch_bend_c, 7, 3968
1, 28460, Pitch_bend_c, 7, 4352
1, 28461, Pitch_bend_c, 7, 4736
1, 28462, Pitch_bend_c, 7, 5504
1, 28463, Pitch_bend_c, 7, 5760
1, 28464, Pitch_bend_c, 7, 6144
1, 28465, Pitch_bend_c, 7, 6400
1, 28466, Pitch_bend_c, 7, 6784
1, 28467, Pitch_bend_c, 7, 6912
1, 28468, Pitch_bend_c, 7, 7168
1, 28469, Pitch_bend_c, 7, 7424
1, 28470, Pitch_bend_c, 7, 7552
1, 28471, Note_on_c, 5, 71, 0
1, 28471, Pitch_bend_c, 7, 7808
1, 28472, Note_on_c, 0, 52, 127
1, 28472, Pitch_bend_c, 7, 7936
1, 28473, Note_on_c, 5, 74, 100
1, 28473, Pitch_bend_c, 7, 8192
1, 28475, Note_on_c, 0, 60, 127
1, 28475, Note_on_c, 0, 55, 127
1, 28479, Note_on_c, 9, 58, 51
1, 28480, Note_on_c, 2, 60, 74
1, 28480, Note_on_c, 2, 64, 76
1, 28480, Note_on_c, 2, 55, 73
1, 28480, Note_on_c, 3, 76, 79
1, 28480, Note_on_c, 3, 67, 80
1, 28480, Note_on_c, 3, 72, 81
1, 28480, Note_on_c, 9, 46, 127
1, 28480, Note_on_c, 9, 35, 125
1, 28480, Note_on_c, 9, 49, 105
1, 28481, Note_on_c, 1, 28, 122
1, 28483, Note_on_c, 9, 58, 0
1, 28484, Note_on_c, 9, 49, 0
1, 28484, Note_on_c, 9, 35, 0
1, 28484, Note_on_c, 9, 46, 0
1, 28504, Note_on_c, 7, 71, 0
1, 28504, Note_on_c, 0, 60, 0
1, 28506, Note_on_c, 0, 52, 0
1, 28506, Note_on_c, 5, 74, 0
1, 28506, Note_on_c, 5, 67, 109
1, 28506, Note_on_c, 7, 74, 70
1, 28510, Note_on_c, 2, 64, 0
1, 28510, Note_on_c, 2, 60, 0
1, 28512, Note_on_c, 3, 72, 0
1, 28513, Note_on_c, 2, 55, 0
1, 28513, Note_on_c, 0, 55, 0
1, 28516, Note_on_c, 3, 76, 0
1, 28518, Note_on_c, 3, 67, 0
1, 28524, Note_on_c, 5, 67, 0
1, 28533, Note_on_c, 1, 28, 0
1, 28539, Note_on_c, 7, 74, 0
1, 28539, Note_on_c, 7, 67, 79
1, 28544, Note_on_c, 9, 44, 75
1, 28548, Note_on_c, 9, 44, 0
1, 28557, Note_on_c, 7, 67, 0
1, 28561, Note_on_c, 5, 67, 119
1, 28566, Note_on_c, 0, 50, 86
1, 28569, Note_on_c, 0, 55, 127
1, 28571, Note_on_c, 0, 59, 127
1, 28572, Note_on_c, 0, 62, 127
1, 28573, Note_on_c, 0, 67, 121
1, 28574, Note_on_c, 9, 58, 52
1, 28576, Note_on_c, 2, 59, 74
1, 28576, Note_on_c, 2, 62, 76
1, 28576, Note_on_c, 2, 55, 76
1, 28576, Note_on_c, 3, 67, 82
1, 28576, Note_on_c, 3, 71, 83
1, 28576, Note_on_c, 3, 74, 82
1, 28576, Note_on_c, 9, 35, 125
1, 28576, Note_on_c, 9, 46, 127
1, 28576, Note_on_c, 9, 57, 105
1, 28577, Note_on_c, 1, 31, 124
1, 28578, Note_on_c, 9, 58, 0
1, 28580, Note_on_c, 9, 57, 0
1, 28580, Note_on_c, 9, 46, 0
1, 28580, Note_on_c, 9, 35, 0
1, 28594, Note_on_c, 7, 67, 89
1, 28603, Note_on_c, 3, 71, 0
1, 28603, Control_c, 5, 1, 18
1, 28604, Note_on_c, 3, 74, 0
1, 28608, Note_on_c, 3, 67, 0
1, 28609, Control_c, 5, 1, 34
1, 28615, Control_c, 5, 1, 50
1, 28618, Note_on_c, 2, 62, 0
1, 28621, Control_c, 5, 1, 61
1, 28622, Note_on_c, 2, 59, 0
1, 28622, Note_on_c, 2, 55, 0
1, 28627, Control_c, 5, 1, 65
1, 28636, Control_c, 7, 1, 18
1, 28638, Control_c, 5, 1, 56
1, 28640, Note_on_c, 9, 44, 75
1, 28642, Control_c, 7, 1, 34
1, 28644, Note_on_c, 9, 44, 0
1, 28644, Control_c, 5, 1, 44
1, 28648, Control_c, 7, 1, 50
1, 28650, Note_on_c, 1, 31, 0
1, 28650, Control_c, 5, 1, 23
1, 28654, Control_c, 7, 1, 61
1, 28656, Control_c, 5, 1, 0
1, 28657, Note_on_c, 0, 50, 0
1, 28660, Control_c, 7, 1, 65
1, 28661, Note_on_c, 0, 55, 0
1, 28664, Note_on_c, 0, 59, 0
1, 28671, Note_on_c, 0, 62, 0
1, 28671, Control_c, 7, 1, 56
1, 28671, Note_on_c, 9, 58, 42
1, 28672, Note_on_c, 9, 38, 85
1, 28673, Note_on_c, 1, 31, 122
1, 28675, Note_on_c, 9, 58, 0
1, 28676, Note_on_c, 9, 38, 0
1, 28676, Note_on_c, 0, 67, 0
1, 28677, Note_on_c, 5, 67, 0
1, 28677, Control_c, 7, 1, 44
1, 28683, Control_c, 7, 1, 23
1, 28689, Control_c, 7, 1, 0
1, 28702, Note_on_c, 0, 55, 115
1, 28704, Note_on_c, 0, 60, 127
1, 28704, Note_on_c, 2, 64, 77
1, 28704, Note_on_c, 2, 55, 77
1, 28704, Note_on_c, 2, 60, 77
1, 28704, Note_on_c, 3, 72, 85
1, 28704, Note_on_c, 3, 67, 83
1, 28704, Note_on_c, 3, 76, 84
1, 28704, Note_on_c, 9, 49, 115
1, 28704, Note_on_c, 9, 58, 49
1, 28704, Note_on_c, 9, 38, 125
1, 28704, Note_on_c, 9, 35, 125
1, 28706, Note_on_c, 0, 64, 121
1, 28708, Note_on_c, 9, 35, 0
1, 28708, Note_on_c, 9, 38, 0
1, 28708, Note_on_c, 9, 49, 0
1, 28708, Note_on_c, 9, 58, 0
1, 28710, Note_on_c, 7, 67, 0
1, 28721, Note_on_c, 3, 72, 0
1, 28727, Note_on_c, 3, 76, 0
1, 28730, Note_on_c, 3, 67, 0
1, 28736, Note_on_c, 0, 64, 0
1, 28737, Note_on_c, 2, 60, 0
1, 28742, Note_on_c, 0, 60, 0
1, 28745, Note_on_c, 0, 55, 0
1, 28746, Note_on_c, 2, 64, 0
1, 28746, Note_on_c, 2, 55, 0
1, 28764, Note_on_c, 0, 55, 127
1, 28766, Note_on_c, 0, 59, 127
1, 28767, Note_on_c, 0, 62, 127
1, 28767, Note_on_c, 2, 55, 74
1, 28767, Note_on_c, 2, 59, 75
1, 28767, Note_on_c, 2, 62, 73
1, 28768, Note_on_c, 3, 67, 82
1, 28768, Note_on_c, 3, 71, 82
1, 28768, Note_on_c, 3, 74, 82
1, 28768, Note_on_c, 9, 58, 53
1, 28768, Note_on_c, 9, 35, 125
1, 28768, Note_on_c, 9, 57, 115
1, 28768, Note_on_c, 9, 38, 125
1, 28769, Note_on_c, 0, 67, 120
1, 28772, Note_on_c, 9, 38, 0
1, 28772, Note_on_c, 9, 57, 0
1, 28772, Note_on_c, 9, 58, 0
1, 28772, Note_on_c, 9, 35, 0
1, 28789, Note_on_c, 1, 31, 0
1, 28800, Note_on_c, 3, 71, 0
1, 28800, Note_on_c, 3, 67, 0
1, 28800, Note_on_c, 3, 74, 0
1, 28800, Note_on_c, 1, 31, 107
1, 28800, Note_on_c, 2, 53, 74
1, 28800, Note_on_c, 4, 55, 65
1, 28800, Note_on_c, 6, 62, 55
1, 28801, Note_on_c, 0, 62, 0
1, 28802, Note_on_c, 0, 59, 0
1, 28802, Note_on_c, 0, 67, 0
1, 28803, Note_on_c, 0, 55, 0
1, 28803, Note_on_c, 2, 62, 0
1, 28804, Note_on_c, 2, 59, 0
1, 28807, Note_on_c, 2, 53, 0
1, 28807, Note_on_c, 2, 55, 0
1, 28832, Note_on_c, 9, 69, 75
1, 28836, Note_on_c, 9, 69, 0
1, 28841, Note_on_c, 1, 31, 0
1, 28863, Note_on_c, 2, 53, 85
1, 28863, Note_on_c, 3, 53, 75
1, 28864, Note_on_c, 2, 58, 79
1, 28864, Note_on_c, 2, 50, 80
1, 28864, Note_on_c, 2, 62, 77
1, 28864, Note_on_c, 9, 69, 75
1, 28864, Note_on_c, 9, 44, 125
1, 28865, Note_on_c, 1, 31, 105
1, 28868, Note_on_c, 9, 44, 0
1, 28868, Note_on_c, 9, 69, 0
1, 28880, Note_on_c, 1, 31, 0
1, 28896, Note_on_c, 9, 38, 125
1, 28896, Note_on_c, 9, 42, 105
1, 28897, Note_on_c, 9, 59, 96
1, 28900, Note_on_c, 9, 42, 0
1, 28900, Note_on_c, 9, 38, 0
1, 28901, Note_on_c, 9, 59, 0
1, 28911, Note_on_c, 1, 31, 101
1, 28938, Note_on_c, 1, 31, 0
1, 28949, Note_on_c, 5, 67, 75
1, 28959, Note_on_c, 5, 67, 0
1, 28960, Note_on_c, 9, 69, 75
1, 28960, Note_on_c, 9, 44, 115
1, 28961, Note_on_c, 1, 31, 98
1, 28964, Note_on_c, 9, 44, 0
1, 28964, Note_on_c, 9, 69, 0
1, 28976, Note_on_c, 1, 31, 0
1, 28976, Note_on_c, 5, 67, 54
1, 28982, Note_on_c, 7, 67, 45
1, 28984, Note_on_c, 2, 58, 0
1, 28986, Note_on_c, 5, 67, 0
1, 28987, Note_on_c, 2, 62, 0
1, 28992, Note_on_c, 2, 53, 0
1, 28992, Note_on_c, 7, 67, 0
1, 28992, Note_on_c, 6, 62, 0
1, 28992, Note_on_c, 2, 61, 73
1, 28992, Note_on_c, 6, 61, 59
1, 28992, Note_on_c, 9, 35, 125
1, 28992, Note_on_c, 9, 42, 115
1, 28993, Note_on_c, 2, 50, 0
1, 28993, Note_on_c, 1, 31, 103
1, 28993, Note_on_c, 2, 49, 78
1, 28993, Note_on_c, 2, 57, 73
1, 28994, Note_on_c, 3, 53, 0
1, 28994, Note_on_c, 2, 52, 77
1, 28994, Note_on_c, 3, 52, 64
1, 28996, Note_on_c, 9, 42, 0
1, 28996, Note_on_c, 9, 35, 0
1, 29002, Note_on_c, 5, 67, 65
1, 29009, Note_on_c, 2, 49, 0
1, 29009, Note_on_c, 7, 67, 24
1, 29013, Note_on_c, 2, 61, 0
1, 29014, Note_on_c, 2, 57, 0
1, 29018, Note_on_c, 2, 52, 0
1, 29019, Note_on_c, 7, 67, 0
1, 29022, Note_on_c, 1, 31, 0
1, 29024, Note_on_c, 9, 69, 75
1, 29028, Note_on_c, 9, 69, 0
1, 29032, Note_on_c, 5, 67, 0
1, 29035, Note_on_c, 7, 67, 35
1, 29052, Note_on_c, 5, 70, 84
1, 29054, Note_on_c, 2, 49, 78
1, 29055, Note_on_c, 2, 61, 77
1, 29055, Note_on_c, 2, 57, 76
1, 29056, Note_on_c, 1, 31, 98
1, 29056, Note_on_c, 2, 52, 78
1, 29056, Note_on_c, 9, 69, 75
1, 29056, Note_on_c, 9, 44, 125
1, 29060, Note_on_c, 9, 44, 0
1, 29060, Note_on_c, 9, 69, 0
1, 29065, Note_on_c, 7, 67, 0
1, 29072, Note_on_c, 1, 31, 0
1, 29085, Note_on_c, 7, 70, 54
1, 29087, Note_on_c, 5, 70, 0
1, 29088, Note_on_c, 1, 31, 104
1, 29088, Note_on_c, 9, 38, 125
1, 29088, Note_on_c, 9, 42, 115
1, 29092, Note_on_c, 9, 42, 0
1, 29092, Note_on_c, 9, 38, 0
1, 29116, Note_on_c, 5, 72, 100
1, 29120, Note_on_c, 7, 70, 0
1, 29120, Note_on_c, 9, 69, 75
1, 29124, Note_on_c, 9, 69, 0
1, 29129, Note_on_c, 1, 31, 0
1, 29149, Note_on_c, 7, 72, 70
1, 29150, Note_on_c, 5, 72, 0
1, 29152, Note_on_c, 1, 31, 102
1, 29152, Note_on_c, 9, 44, 115
1, 29152, Note_on_c, 9, 69, 75
1, 29156, Note_on_c, 9, 69, 0
1, 29156, Note_on_c, 9, 44, 0
1, 29170, Note_on_c, 2, 57, 0
1, 29170, Note_on_c, 1, 31, 0
1, 29171, Note_on_c, 3, 52, 0
1, 29172, Note_on_c, 2, 61, 0
1, 29175, Note_on_c, 5, 72, 94
1, 29182, Note_on_c, 2, 52, 0
1, 29183, Note_on_c, 7, 72, 0
1, 29184, Note_on_c, 6, 61, 0
1, 29184, Note_on_c, 1, 31, 104
1, 29184, Note_on_c, 3, 53, 75
1, 29184, Note_on_c, 6, 60, 50
1, 29184, Note_on_c, 9, 35, 125
1, 29184, Note_on_c, 9, 42, 115
1, 29184, Note_on_c, 9, 59, 77
1, 29185, Note_on_c, 2, 57, 73
1, 29185, Note_on_c, 2, 60, 72
1, 29185, Note_on_c, 2, 53, 79
1, 29185, Note_on_c, 2, 48, 78
1, 29188, Note_on_c, 9, 59, 0
1, 29188, Note_on_c, 9, 42, 0
1, 29188, Note_on_c, 9, 35, 0
1, 29192, Note_on_c, 2, 49, 0
1, 29208, Note_on_c, 2, 60, 0
1, 29208, Note_on_c, 2, 53, 0
1, 29208, Note_on_c, 7, 72, 64
1, 29209, Note_on_c, 2, 57, 0
1, 29210, Note_on_c, 2, 48, 0
1, 29216, Note_on_c, 9, 69, 75
1, 29218, Pitch_bend_c, 5, 8322
1, 29220, Note_on_c, 9, 69, 0
1, 29220, Pitch_bend_c, 5, 8452
1, 29221, Pitch_bend_c, 5, 8582
1, 29222, Pitch_bend_c, 5, 8712
1, 29223, Pitch_bend_c, 5, 8842
1, 29224, Pitch_bend_c, 5, 8972
1, 29225, Note_on_c, 1, 31, 0
1, 29225, Pitch_bend_c, 5, 9102
1, 29226, Pitch_bend_c, 5, 9232
1, 29228, Pitch_bend_c, 5, 9362
1, 29229, Pitch_bend_c, 5, 9492
1, 29231, Pitch_bend_c, 5, 9622
1, 29232, Pitch_bend_c, 5, 9752
1, 29233, Pitch_bend_c, 5, 9882
1, 29235, Pitch_bend_c, 5, 10012
1, 29236, Pitch_bend_c, 5, 10142
1, 29238, Pitch_bend_c, 5, 10272
1, 29239, Pitch_bend_c, 5, 10402
1, 29240, Pitch_bend_c, 5, 10532
1, 29242, Pitch_bend_c, 5, 10662
1, 29243, Pitch_bend_c, 5, 10792
1, 29244, Pitch_bend_c, 5, 10922
1, 29245, Pitch_bend_c, 5, 11052
1, 29246, Pitch_bend_c, 5, 11312
1, 29248, Note_on_c, 1, 31, 96
1, 29248, Note_on_c, 2, 60, 73
1, 29248, Note_on_c, 2, 57, 74
1, 29248, Note_on_c, 2, 53, 78
1, 29248, Note_on_c, 2, 48, 78
1, 29248, Pitch_bend_c, 5, 11572
1, 29248, Note_on_c, 9, 69, 75
1, 29248, Note_on_c, 9, 59, 88
1, 29248, Note_on_c, 9, 44, 125
1, 29249, Pitch_bend_c, 5, 11702
1, 29251, Pitch_bend_c, 7, 8322
1, 29252, Note_on_c, 9, 44, 0
1, 29252, Note_on_c, 9, 59, 0
1, 29252, Note_on_c, 9, 69, 0
1, 29252, Pitch_bend_c, 5, 11832
1, 29253, Pitch_bend_c, 5, 11962
1, 29253, Pitch_bend_c, 7, 8452
1, 29254, Pitch_bend_c, 5, 12092
1, 29254, Pitch_bend_c, 7, 8582
1, 29255, Pitch_bend_c, 5, 12222
1, 29255, Pitch_bend_c, 7, 8712
1, 29256, Pitch_bend_c, 5, 12352
1, 29256, Pitch_bend_c, 7, 8842
1, 29257, Pitch_bend_c, 5, 12482
1, 29257, Pitch_bend_c, 7, 8972
1, 29258, Pitch_bend_c, 5, 12612
1, 29258, Pitch_bend_c, 7, 9102
1, 29259, Pitch_bend_c, 5, 12742
1, 29259, Pitch_bend_c, 7, 9232
1, 29260, Pitch_bend_c, 5, 12872
1, 29261, Note_on_c, 1, 31, 0
1, 29261, Pitch_bend_c, 5, 13002
1, 29261, Pitch_bend_c, 7, 9362
1, 29262, Pitch_bend_c, 5, 13132
1, 29262, Pitch_bend_c, 7, 9492
1, 29263, Pitch_bend_c, 5, 13262
1, 29264, Pitch_bend_c, 5, 13522
1, 29264, Pitch_bend_c, 7, 9622
1, 29265, Pitch_bend_c, 5, 13652
1, 29265, Pitch_bend_c, 7, 9752
1, 29266, Pitch_bend_c, 5, 13912
1, 29266, Pitch_bend_c, 7, 9882
1, 29267, Pitch_bend_c, 5, 14042
1, 29268, Pitch_bend_c, 7, 10012
1, 29269, Pitch_bend_c, 5, 14562
1, 29269, Pitch_bend_c, 7, 10142
1, 29270, Pitch_bend_c, 5, 14822
1, 29271, Pitch_bend_c, 5, 15082
1, 29271, Pitch_bend_c, 7, 10272
1, 29272, Pitch_bend_c, 5, 15212
1, 29272, Pitch_bend_c, 7, 10402
1, 29273, Pitch_bend_c, 5, 15472
1, 29273, Pitch_bend_c, 7, 10532
1, 29274, Pitch_bend_c, 5, 15732
1, 29275, Pitch_bend_c, 5, 16122
1, 29275, Pitch_bend_c, 7, 10662
1, 29276, Pitch_bend_c, 5, 16382
1, 29276, Pitch_bend_c, 7, 10792
1, 29277, Pitch_bend_c, 7, 10922
1, 29278, Pitch_bend_c, 7, 11052
1, 29279, Pitch_bend_c, 7, 11312
1, 29280, Note_on_c, 1, 31, 105
1, 29280, Note_on_c, 9, 42, 105
1, 29280, Note_on_c, 9, 38, 125
1, 29281, Pitch_bend_c, 7, 11572
1, 29282, Pitch_bend_c, 7, 11702
1, 29284, Note_on_c, 9, 38, 0
1, 29284, Note_on_c, 9, 42, 0
1, 29285, Pitch_bend_c, 7, 11832
1, 29286, Pitch_bend_c, 7, 11962
1, 29287, Pitch_bend_c, 5, 16122
1, 29287, Pitch_bend_c, 7, 12092
1, 29288, Pitch_bend_c, 5, 15732
1, 29288, Pitch_bend_c, 7, 12222
1, 29289, Note_on_c, 5, 72, 0
1, 29289, Pitch_bend_c, 5, 15342
1, 29289, Pitch_bend_c, 7, 12352
1, 29290, Pitch_bend_c, 5, 14042
1, 29290, Pitch_bend_c, 7, 12482
1, 29291, Pitch_bend_c, 5, 13002
1, 29291, Pitch_bend_c, 7, 12612
1, 29292, Pitch_bend_c, 5, 12092
1, 29292, Pitch_bend_c, 7, 12742
1, 29293, Pitch_bend_c, 5, 11052
1, 29293, Pitch_bend_c, 7, 12872
1, 29294, Pitch_bend_c, 5, 10272
1, 29294, Pitch_bend_c, 7, 13002
1, 29295, Pitch_bend_c, 5, 9492
1, 29295, Pitch_bend_c, 7, 13132
1, 29296, Pitch_bend_c, 5, 8712
1, 29296, Pitch_bend_c, 7, 13262
1, 29297, Pitch_bend_c, 5, 8192
1, 29297, Pitch_bend_c, 7, 13522
1, 29298, Pitch_bend_c, 7, 13652
1, 29299, Pitch_bend_c, 7, 13912
1, 29300, Pitch_bend_c, 7, 14042
1, 29302, Pitch_bend_c, 7, 14562
1, 29303, Pitch_bend_c, 7, 14822
1, 29304, Pitch_bend_c, 7, 15082
1, 29305, Pitch_bend_c, 7, 15212
1, 29306, Pitch_bend_c, 7, 15472
1, 29307, Pitch_bend_c, 7, 15732
1, 29308, Pitch_bend_c, 7, 16122
1, 29309, Pitch_bend_c, 7, 16382
1, 29320, Pitch_bend_c, 7, 16122
1, 29321, Pitch_bend_c, 7, 15732
1, 29322, Note_on_c, 2, 53, 0
1, 29322, Note_on_c, 7, 72, 0
1, 29322, Pitch_bend_c, 7, 15342
1, 29323, Note_on_c, 1, 31, 0
1, 29323, Pitch_bend_c, 7, 14042
1, 29324, Note_on_c, 2, 60, 0
1, 29324, Pitch_bend_c, 7, 13002
1, 29325, Pitch_bend_c, 7, 12092
1, 29326, Note_on_c, 2, 57, 0
1, 29326, Pitch_bend_c, 7, 11052
1, 29327, Pitch_bend_c, 7, 10272
1, 29328, Pitch_bend_c, 7, 9492
1, 29329, Pitch_bend_c, 7, 8712
1, 29330, Pitch_bend_c, 7, 8192
1, 29334, Note_on_c, 3, 53, 0
1, 29340, Note_on_c, 2, 48, 0
1, 29343, Note_on_c, 6, 60, 0
1, 29343, Note_on_c, 2, 55, 80
1, 29343, Note_on_c, 6, 59, 58
1, 29344, Note_on_c, 1, 31, 100
1, 29344, Note_on_c, 2, 50, 78
1, 29344, Note_on_c, 3, 50, 62
1, 29344, Note_on_c, 9, 59, 95
1, 29344, Note_on_c, 9, 69, 75
1, 29344, Note_on_c, 9, 44, 115
1, 29345, Note_on_c, 2, 59, 74
1, 29348, Note_on_c, 9, 44, 0
1, 29348, Note_on_c, 9, 69, 0
1, 29348, Note_on_c, 9, 59, 0
1, 29360, Note_on_c, 1, 31, 0
1, 29376, Note_on_c, 1, 31, 105
1, 29376, Note_on_c, 9, 42, 115
1, 29376, Note_on_c, 9, 35, 125
1, 29380, Note_on_c, 9, 35, 0
1, 29380, Note_on_c, 9, 42, 0
1, 29408, Note_on_c, 9, 69, 75
1, 29412, Note_on_c, 9, 69, 0
1, 29417, Note_on_c, 1, 31, 0
1, 29440, Note_on_c, 1, 31, 98
1, 29440, Note_on_c, 9, 44, 125
1, 29440, Note_on_c, 9, 51, 95
1, 29440, Note_on_c, 9, 69, 75
1, 29444, Note_on_c, 9, 69, 0
1, 29444, Note_on_c, 9, 51, 0
1, 29444, Note_on_c, 9, 44, 0
1, 29454, Note_on_c, 1, 31, 0
1, 29458, Note_on_c, 3, 50, 0
1, 29472, Note_on_c, 1, 31, 104
1, 29472, Note_on_c, 3, 53, 94
1, 29472, Note_on_c, 9, 38, 125
1, 29472, Note_on_c, 9, 42, 115
1, 29473, Note_on_c, 9, 59, 102
1, 29476, Note_on_c, 9, 42, 0
1, 29476, Note_on_c, 9, 38, 0
1, 29477, Note_on_c, 9, 59, 0
1, 29504, Note_on_c, 9, 69, 75
1, 29508, Note_on_c, 9, 69, 0
1, 29508, Note_on_c, 1, 31, 0
1, 29536, Note_on_c, 3, 53, 0
1, 29536, Note_on_c, 1, 31, 106
1, 29536, Note_on_c, 3, 55, 75
1, 29536, Note_on_c, 9, 69, 75
1, 29536, Note_on_c, 9, 44, 115
1, 29537, Note_on_c, 9, 59, 89
1, 29538, Note_on_c, 2, 50, 0
1, 29540, Note_on_c, 9, 44, 0
1, 29540, Note_on_c, 9, 69, 0
1, 29541, Note_on_c, 9, 59, 0
1, 29542, Note_on_c, 2, 55, 0
1, 29553, Note_on_c, 2, 59, 0
1, 29555, Note_on_c, 1, 31, 0
1, 29562, Note_on_c, 6, 59, 0
1, 29567, Note_on_c, 6, 62, 62
1, 29568, Note_on_c, 1, 31, 106
1, 29568, Note_on_c, 2, 53, 74
1, 29568, Note_on_c, 9, 42, 115
1, 29568, Note_on_c, 9, 35, 125
1, 29572, Note_on_c, 9, 35, 0
1, 29572, Note_on_c, 9, 42, 0
1, 29575, Note_on_c, 2, 53, 0
1, 29576, Note_on_c, 3, 55, 0
1, 29600, Note_on_c, 9, 69, 75
1, 29604, Note_on_c, 9, 69, 0
1, 29609, Note_on_c, 1, 31, 0
1, 29631, Note_on_c, 2, 53, 85
1, 29631, Note_on_c, 3, 53, 79
1, 29632, Note_on_c, 1, 31, 98
1, 29632, Note_on_c, 2, 62, 77
1, 29632, Note_on_c, 2, 50, 80
1, 29632, Note_on_c, 2, 58, 79
1, 29632, Note_on_c, 9, 69, 75
1, 29632, Note_on_c, 9, 44, 125
1, 29633, Note_on_c, 9, 59, 74
1, 29636, Note_on_c, 9, 44, 0
1, 29636, Note_on_c, 9, 69, 0
1, 29637, Note_on_c, 9, 59, 0
1, 29647, Note_on_c, 1, 31, 0
1, 29664, Note_on_c, 1, 31, 103
1, 29664, Note_on_c, 9, 42, 105
1, 29664, Note_on_c, 9, 38, 125
1, 29668, Note_on_c, 9, 38, 0
1, 29668, Note_on_c, 9, 42, 0
1, 29688, Pitch_bend_c, 5, 8452
1, 29689, Pitch_bend_c, 5, 8842
1, 29690, Pitch_bend_c, 5, 9102
1, 29691, Pitch_bend_c, 5, 9492
1, 29692, Pitch_bend_c, 5, 10142
1, 29693, Pitch_bend_c, 5, 10402
1, 29694, Pitch_bend_c, 5, 10922
1, 29695, Pitch_bend_c, 5, 11442
1, 29696, Pitch_bend_c, 5, 11962
1, 29697, Pitch_bend_c, 5, 12482
1, 29698, Pitch_bend_c, 5, 13002
1, 29699, Pitch_bend_c, 5, 13392
1, 29700, Pitch_bend_c, 5, 13782
1, 29701, Pitch_bend_c, 5, 14042
1, 29702, Pitch_bend_c, 5, 14692
1, 29703, Pitch_bend_c, 5, 14952
1, 29704, Pitch_bend_c, 5, 15472
1, 29705, Pitch_bend_c, 5, 15602
1, 29706, Pitch_bend_c, 5, 15992
1, 29707, Pitch_bend_c, 5, 16122
1, 29708, Note_on_c, 1, 31, 0
1, 29708, Pitch_bend_c, 5, 16382
1, 29717, Note_on_c, 5, 65, 87
1, 29728, Note_on_c, 1, 31, 102
1, 29728, Note_on_c, 9, 69, 75
1, 29728, Note_on_c, 9, 44, 115
1, 29732, Note_on_c, 9, 44, 0
1, 29732, Note_on_c, 9, 69, 0
1, 29742, Note_on_c, 1, 31, 0
1, 29750, Pitch_bend_c, 5, 15862
1, 29751, Pitch_bend_c, 5, 15342
1, 29752, Note_on_c, 2, 58, 0
1, 29752, Pitch_bend_c, 5, 14692
1, 29753, Pitch_bend_c, 5, 14432
1, 29754, Pitch_bend_c, 5, 13392
1, 29755, Note_on_c, 2, 62, 0
1, 29755, Pitch_bend_c, 5, 13002
1, 29756, Pitch_bend_c, 5, 12092
1, 29757, Pitch_bend_c, 5, 11052
1, 29758, Pitch_bend_c, 5, 10662
1, 29759, Pitch_bend_c, 5, 9232
1, 29760, Note_on_c, 2, 53, 0
1, 29760, Note_on_c, 6, 62, 0
1, 29760, Note_on_c, 1, 31, 104
1, 29760, Note_on_c, 2, 61, 73
1, 29760, Pitch_bend_c, 5, 8452
1, 29760, Note_on_c, 6, 61, 63
1, 29760, Note_on_c, 9, 42, 115
1, 29760, Note_on_c, 9, 35, 125
1, 29761, Note_on_c, 3, 53, 0
1, 29761, Note_on_c, 2, 50, 0
1, 29761, Note_on_c, 2, 57, 73
1, 29761, Note_on_c, 2, 49, 78
1, 29761, Note_on_c, 3, 52, 62
1, 29761, Pitch_bend_c, 5, 8192
1, 29762, Note_on_c, 2, 52, 77
1, 29764, Note_on_c, 9, 42, 0
1, 29764, Note_on_c, 9, 35, 0
1, 29777, Note_on_c, 2, 49, 0
1, 29781, Note_on_c, 2, 61, 0
1, 29782, Note_on_c, 2, 57, 0
1, 29786, Note_on_c, 2, 52, 0
1, 29792, Note_on_c, 9, 69, 75
1, 29796, Note_on_c, 9, 69, 0
1, 29803, Note_on_c, 1, 31, 0
1, 29809, Note_on_c, 5, 65, 0
1, 29814, Note_on_c, 5, 62, 74
1, 29822, Note_on_c, 2, 49, 78
1, 29823, Note_on_c, 2, 57, 76
1, 29823, Note_on_c, 2, 61, 77
1, 29824, Note_on_c, 2, 52, 78
1, 29824, Note_on_c, 9, 44, 125
1, 29825, Note_on_c, 1, 31, 98
1, 29828, Note_on_c, 9, 44, 0
1, 29837, Note_on_c, 1, 31, 0
1, 29839, Note_on_c, 5, 62, 0
1, 29856, Note_on_c, 9, 42, 115
1, 29856, Note_on_c, 9, 38, 125
1, 29857, Note_on_c, 1, 31, 101
1, 29860, Note_on_c, 9, 38, 0
1, 29860, Note_on_c, 9, 42, 0
1, 29898, Note_on_c, 5, 60, 87
1, 29899, Note_on_c, 1, 31, 0
1, 29920, Note_on_c, 1, 31, 96
1, 29920, Note_on_c, 9, 44, 115
1, 29920, Note_on_c, 9, 69, 75
1, 29924, Note_on_c, 9, 69, 0
1, 29924, Note_on_c, 9, 44, 0
1, 29933, Note_on_c, 1, 31, 0
1, 29938, Note_on_c, 2, 57, 0
1, 29940, Note_on_c, 3, 52, 0
1, 29940, Note_on_c, 2, 61, 0
1, 29948, Pitch_bend_c, 5, 7808
1, 29949, Pitch_bend_c, 5, 7680
1, 29950, Note_on_c, 2, 52, 0
1, 29950, Pitch_bend_c, 5, 7424
1, 29952, Note_on_c, 1, 31, 108
1, 29952, Note_on_c, 3, 48, 62
1, 29952, Pitch_bend_c, 5, 7040
1, 29952, Note_on_c, 9, 35, 125
1, 29952, Note_on_c, 9, 42, 115
1, 29953, Note_on_c, 6, 61, 0
1, 29953, Note_on_c, 2, 57, 73
1, 29953, Note_on_c, 2, 60, 72
1, 29953, Note_on_c, 2, 48, 78
1, 29953, Note_on_c, 2, 53, 79
1, 29953, Pitch_bend_c, 5, 6912
1, 29953, Note_on_c, 6, 60, 56
1, 29954, Pitch_bend_c, 5, 6784
1, 29955, Pitch_bend_c, 5, 6656
1, 29955, Note_on_c, 9, 59, 60
1, 29956, Note_on_c, 9, 42, 0
1, 29956, Note_on_c, 9, 35, 0
1, 29956, Pitch_bend_c, 5, 6528
1, 29957, Pitch_bend_c, 5, 6400
1, 29958, Pitch_bend_c, 5, 6016
1, 29959, Note_on_c, 9, 59, 0
1, 29959, Pitch_bend_c, 5, 5632
1, 29960, Note_on_c, 2, 49, 0
1, 29960, Pitch_bend_c, 5, 4992
1, 29961, Pitch_bend_c, 5, 4736
1, 29962, Pitch_bend_c, 5, 4352
1, 29963, Pitch_bend_c, 5, 3968
1, 29964, Pitch_bend_c, 5, 3712
1, 29965, Pitch_bend_c, 5, 3456
1, 29966, Pitch_bend_c, 5, 3200
1, 29967, Pitch_bend_c, 5, 2816
1, 29968, Pitch_bend_c, 5, 2688
1, 29969, Pitch_bend_c, 5, 2176
1, 29970, Pitch_bend_c, 5, 1920
1, 29971, Pitch_bend_c, 5, 1664
1, 29972, Pitch_bend_c, 5, 1536
1, 29973, Pitch_bend_c, 5, 1152
1, 29974, Pitch_bend_c, 5, 1024
1, 29975, Pitch_bend_c, 5, 640
1, 29976, Note_on_c, 2, 60, 0
1, 29976, Note_on_c, 2, 53, 0
1, 29976, Pitch_bend_c, 5, 512
1, 29977, Note_on_c, 2, 57, 0
1, 29977, Pitch_bend_c, 5, 256
1, 29978, Note_on_c, 2, 48, 0
1, 29978, Pitch_bend_c, 5, 0
1, 29984, Note_on_c, 9, 69, 75
1, 29988, Note_on_c, 9, 69, 0
1, 29994, Note_on_c, 1, 31, 0
1, 29996, Note_on_c, 5, 60, 0
1, 30006, Pitch_bend_c, 5, 1408
1, 30007, Pitch_bend_c, 5, 2304
1, 30008, Pitch_bend_c, 5, 5760
1, 30009, Pitch_bend_c, 5, 8192
1, 30016, Note_on_c, 1, 31, 97
1, 30016, Note_on_c, 2, 53, 78
1, 30016, Note_on_c, 2, 60, 73
1, 30016, Note_on_c, 2, 48, 78
1, 30016, Note_on_c, 2, 57, 74
1, 30016, Note_on_c, 9, 69, 75
1, 30016, Note_on_c, 9, 44, 125
1, 30020, Note_on_c, 9, 44, 0
1, 30020, Note_on_c, 9, 69, 0
1, 30028, Note_on_c, 1, 31, 0
1, 30048, Note_on_c, 1, 31, 107
1, 30048, Note_on_c, 9, 38, 125
1, 30048, Note_on_c, 9, 42, 105
1, 30052, Note_on_c, 9, 42, 0
1, 30052, Note_on_c, 9, 38, 0
1, 30090, Note_on_c, 2, 53, 0
1, 30092, Note_on_c, 2, 60, 0
1, 30094, Note_on_c, 2, 57, 0
1, 30095, Note_on_c, 1, 31, 0
1, 30096, Note_on_c, 6, 60, 0
1, 30108, Note_on_c, 2, 48, 0
1, 30108, Note_on_c, 3, 48, 0
1, 30111, Note_on_c, 2, 55, 80
1, 30111, Note_on_c, 6, 59, 53
1, 30112, Note_on_c, 1, 31, 97
1, 30112, Note_on_c, 2, 50, 78
1, 30112, Note_on_c, 3, 50, 75
1, 30112, Note_on_c, 9, 44, 115
1, 30112, Note_on_c, 9, 69, 75
1, 30113, Note_on_c, 2, 59, 74
1, 30113, Note_on_c, 9, 51, 84
1, 30116, Note_on_c, 9, 69, 0
1, 30116, Note_on_c, 9, 44, 0
1, 30117, Note_on_c, 9, 51, 0
1, 30126, Note_on_c, 1, 31, 0
1, 30144, Note_on_c, 1, 31, 107
1, 30144, Note_on_c, 9, 42, 115
1, 30144, Note_on_c, 9, 35, 125
1, 30145, Note_on_c, 9, 59, 89
1, 30148, Note_on_c, 9, 35, 0
1, 30148, Note_on_c, 9, 42, 0
1, 30149, Note_on_c, 9, 59, 0
1, 30176, Note_on_c, 9, 69, 75
1, 30178, Note_on_c, 9, 51, 78
1, 30180, Note_on_c, 9, 69, 0
1, 30182, Note_on_c, 9, 51, 0
1, 30188, Note_on_c, 1, 31, 0
1, 30208, Note_on_c, 9, 69, 75
1, 30208, Note_on_c, 9, 44, 125
1, 30209, Note_on_c, 1, 31, 90
1, 30211, Note_on_c, 9, 59, 77
1, 30212, Note_on_c, 9, 44, 0
1, 30212, Note_on_c, 9, 69, 0
1, 30215, Note_on_c, 9, 59, 0
1, 30218, Note_on_c, 1, 31, 0
1, 30240, Note_on_c, 1, 31, 104
1, 30240, Note_on_c, 9, 42, 115
1, 30240, Note_on_c, 9, 38, 125
1, 30241, Note_on_c, 3, 50, 0
1, 30241, Note_on_c, 3, 53, 87
1, 30244, Note_on_c, 9, 38, 0
1, 30244, Note_on_c, 9, 42, 0
1, 30272, Note_on_c, 9, 69, 75
1, 30276, Note_on_c, 9, 69, 0
1, 30281, Note_on_c, 1, 31, 0
1, 30302, Note_on_c, 3, 53, 0
1, 30304, Note_on_c, 1, 31, 85
1, 30304, Note_on_c, 3, 55, 75
1, 30304, Note_on_c, 9, 44, 115
1, 30304, Note_on_c, 9, 69, 75
1, 30306, Note_on_c, 2, 50, 0
1, 30308, Note_on_c, 9, 69, 0
1, 30308, Note_on_c, 9, 44, 0
1, 30310, Note_on_c, 2, 55, 0
1, 30312, Note_on_c, 1, 31, 0
1, 30321, Note_on_c, 2, 59, 0
1, 30325, Note_on_c, 6, 59, 0
1, 30335, Note_on_c, 1, 31, 104
1, 30336, Note_on_c, 2, 53, 74
1, 30336, Note_on_c, 6, 62, 60
1, 30336, Note_on_c, 8, 67, 71
1, 30336, Note_on_c, 9, 35, 125
1, 30336, Note_on_c, 9, 59, 73
1, 30336, Note_on_c, 9, 42, 115
1, 30340, Note_on_c, 9, 42, 0
1, 30340, Note_on_c, 9, 59, 0
1, 30340, Note_on_c, 9, 35, 0
1, 30343, Note_on_c, 3, 55, 0
1, 30343, Note_on_c, 2, 53, 0
1, 30368, Note_on_c, 9, 69, 75
1, 30372, Note_on_c, 9, 69, 0
1, 30390, Note_on_c, 1, 31, 0
1, 30391, Note_on_c, 8, 67, 0
1, 30395, Note_on_c, 8, 67, 42
1, 30399, Note_on_c, 2, 53, 85
1, 30400, Note_on_c, 2, 50, 80
1, 30400, Note_on_c, 2, 62, 77
1, 30400, Note_on_c, 2, 58, 79
1, 30400, Note_on_c, 3, 53, 79
1, 30400, Note_on_c, 9, 44, 125
1, 30400, Note_on_c, 9, 69, 75
1, 30402, Note_on_c, 1, 31, 93
1, 30404, Note_on_c, 9, 69, 0
1, 30404, Note_on_c, 9, 44, 0
1, 30413, Note_on_c, 1, 31, 0
1, 30422, Note_on_c, 8, 67, 0
1, 30428, Note_on_c, 8, 70, 93
1, 30432, Note_on_c, 1, 31, 107
1, 30432, Note_on_c, 9, 42, 105
1, 30432, Note_on_c, 9, 38, 125
1, 30432, Note_on_c, 9, 59, 89
1, 30436, Note_on_c, 9, 59, 0
1, 30436, Note_on_c, 9, 42, 0
1, 30436, Note_on_c, 9, 38, 0
1, 30437, Pitch_bend_c, 8, 8194
1, 30468, Pitch_bend_c, 8, 8298
1, 30475, Note_on_c, 1, 31, 0
1, 30475, Pitch_bend_c, 8, 8397
1, 30479, Pitch_bend_c, 8, 8548
1, 30491, Pitch_bend_c, 8, 8223
1, 30494, Note_on_c, 8, 67, 71
1, 30495, Note_on_c, 8, 70, 0
1, 30496, Note_on_c, 1, 31, 98
1, 30496, Note_on_c, 9, 69, 75
1, 30496, Note_on_c, 9, 44, 115
1, 30500, Note_on_c, 9, 44, 0
1, 30500, Note_on_c, 9, 69, 0
1, 30510, Note_on_c, 1, 31, 0
1, 30520, Note_on_c, 2, 58, 0
1, 30523, Note_on_c, 2, 62, 0
1, 30525, Note_on_c, 3, 53, 0
1, 30527, Note_on_c, 1, 31, 108
1, 30528, Note_on_c, 2, 53, 0
1, 30528, Note_on_c, 6, 62, 0
1, 30528, Note_on_c, 2, 61, 73
1, 30528, Note_on_c, 3, 52, 60
1, 30528, Note_on_c, 6, 61, 63
1, 30528, Note_on_c, 9, 35, 125
1, 30528, Note_on_c, 9, 42, 115
1, 30529, Note_on_c, 2, 50, 0
1, 30529, Note_on_c, 2, 57, 73
1, 30529, Note_on_c, 2, 49, 78
1, 30530, Note_on_c, 2, 52, 77
1, 30532, Note_on_c, 9, 42, 0
1, 30532, Note_on_c, 9, 35, 0
1, 30545, Note_on_c, 2, 49, 0
1, 30549, Note_on_c, 2, 61, 0
1, 30550, Note_on_c, 2, 57, 0
1, 30554, Note_on_c, 2, 52, 0
1, 30560, Note_on_c, 9, 69, 75
1, 30564, Note_on_c, 9, 69, 0
1, 30564, Pitch_bend_c, 8, 8223
1, 30577, Note_on_c, 1, 31, 0
1, 30577, Pitch_bend_c, 8, 8311
1, 30583, Pitch_bend_c, 8, 8338
1, 30589, Pitch_bend_c, 8, 8205
1, 30590, Note_on_c, 2, 49, 78
1, 30591, Note_on_c, 2, 61, 77
1, 30591, Note_on_c, 2, 57, 76
1, 30592, Note_on_c, 2, 52, 78
1, 30592, Note_on_c, 9, 44, 125
1, 30593, Note_on_c, 1, 31, 92
1, 30596, Note_on_c, 9, 44, 0
1, 30603, Note_on_c, 1, 31, 0
1, 30606, Pitch_bend_c, 8, 8311
1, 30612, Pitch_bend_c, 8, 8357
1, 30620, Pitch_bend_c, 8, 8231
1, 30623, Note_on_c, 1, 31, 104
1, 30624, Note_on_c, 9, 42, 115
1, 30624, Note_on_c, 9, 38, 125
1, 30628, Note_on_c, 9, 38, 0
1, 30628, Note_on_c, 9, 42, 0
1, 30652, Pitch_bend_c, 8, 8250
1, 30671, Note_on_c, 1, 31, 0
1, 30687, Note_on_c, 8, 67, 0
1, 30688, Note_on_c, 9, 69, 75
1, 30688, Note_on_c, 9, 44, 115
1, 30689, Note_on_c, 1, 31, 100
1, 30692, Note_on_c, 9, 44, 0
1, 30692, Note_on_c, 9, 69, 0
1, 30701, Note_on_c, 3, 52, 0
1, 30701, Note_on_c, 1, 31, 0
1, 30705, Pitch_bend_c, 5, 7808
1, 30706, Note_on_c, 2, 57, 0
1, 30706, Pitch_bend_c, 5, 7552
1, 30707, Pitch_bend_c, 5, 7296
1, 30708, Note_on_c, 2, 61, 0
1, 30708, Pitch_bend_c, 5, 7168
1, 30709, Pitch_bend_c, 5, 6784
1, 30710, Pitch_bend_c, 5, 6528
1, 30711, Pitch_bend_c, 5, 6144
1, 30712, Pitch_bend_c, 5, 5760
1, 30713, Pitch_bend_c, 5, 5376
1, 30714, Pitch_bend_c, 5, 5120
1, 30715, Pitch_bend_c, 5, 4864
1, 30716, Pitch_bend_c, 5, 4352
1, 30717, Pitch_bend_c, 5, 3968
1, 30718, Note_on_c, 2, 52, 0
1, 30718, Pitch_bend_c, 5, 3840
1, 30719, Pitch_bend_c, 5, 3712
1, 30719, Note_on_c, 5, 62, 79
1, 30720, Note_on_c, 6, 61, 0
1, 30720, Note_on_c, 1, 31, 105
1, 30720, Note_on_c, 3, 48, 65
1, 30720, Pitch_bend_c, 5, 3200
1, 30720, Note_on_c, 6, 60, 59
1, 30720, Note_on_c, 9, 35, 125
1, 30720, Note_on_c, 9, 42, 115
1, 30721, Note_on_c, 2, 60, 72
1, 30721, Note_on_c, 2, 57, 73
1, 30721, Note_on_c, 2, 48, 78
1, 30721, Note_on_c, 2, 53, 79
1, 30721, Pitch_bend_c, 5, 3072
1, 30722, Pitch_bend_c, 5, 2944
1, 30723, Pitch_bend_c, 5, 2688
1, 30724, Note_on_c, 9, 42, 0
1, 30724, Note_on_c, 9, 35, 0
1, 30724, Pitch_bend_c, 5, 2560
1, 30725, Pitch_bend_c, 5, 2304
1, 30726, Pitch_bend_c, 5, 2176
1, 30727, Pitch_bend_c, 8, 8194
1, 30728, Note_on_c, 2, 49, 0
1, 30728, Note_on_c, 8, 72, 87
1, 30729, Pitch_bend_c, 8, 8179
1, 30730, Pitch_bend_c, 5, 2304
1, 30731, Pitch_bend_c, 5, 2432
1, 30732, Pitch_bend_c, 5, 2560
1, 30733, Pitch_bend_c, 5, 2688
1, 30734, Pitch_bend_c, 5, 2944
1, 30735, Pitch_bend_c, 5, 3072
1, 30736, Pitch_bend_c, 5, 3328
1, 30737, Pitch_bend_c, 5, 3712
1, 30737, Pitch_bend_c, 8, 8218
1, 30738, Pitch_bend_c, 5, 3968
1, 30739, Pitch_bend_c, 5, 4352
1, 30740, Pitch_bend_c, 5, 4480
1, 30740, Pitch_bend_c, 8, 8447
1, 30741, Pitch_bend_c, 5, 4864
1, 30742, Pitch_bend_c, 5, 5376
1, 30743, Pitch_bend_c, 5, 5760
1, 30743, Pitch_bend_c, 8, 8623
1, 30744, Note_on_c, 2, 60, 0
1, 30744, Note_on_c, 2, 53, 0
1, 30744, Pitch_bend_c, 5, 6144
1, 30745, Note_on_c, 2, 57, 0
1, 30745, Pitch_bend_c, 5, 6528
1, 30746, Note_on_c, 2, 48, 0
1, 30746, Pitch_bend_c, 5, 6656
1, 30747, Pitch_bend_c, 5, 7168
1, 30748, Pitch_bend_c, 5, 7296
1, 30749, Pitch_bend_c, 5, 7552
1, 30749, Pitch_bend_c, 8, 8599
1, 30750, Pitch_bend_c, 5, 7808
1, 30751, Pitch_bend_c, 5, 8192
1, 30751, Pitch_bend_c, 8, 8386
1, 30752, Note_on_c, 9, 69, 75
1, 30754, Pitch_bend_c, 8, 8089
1, 30756, Note_on_c, 9, 69, 0
1, 30763, Note_on_c, 5, 62, 0
1, 30763, Note_on_c, 1, 31, 0
1, 30772, Pitch_bend_c, 8, 8192
1, 30784, Note_on_c, 2, 48, 78
1, 30784, Note_on_c, 2, 60, 73
1, 30784, Note_on_c, 2, 57, 74
1, 30784, Note_on_c, 2, 53, 78
1, 30784, Note_on_c, 9, 44, 125
1, 30784, Note_on_c, 9, 69, 75
1, 30785, Note_on_c, 8, 72, 0
1, 30786, Note_on_c, 1, 31, 105
1, 30788, Note_on_c, 9, 69, 0
1, 30788, Note_on_c, 9, 44, 0
1, 30789, Note_on_c, 5, 58, 65
1, 30790, Note_on_c, 8, 70, 62
1, 30811, Note_on_c, 5, 58, 0
1, 30814, Pitch_bend_c, 8, 8935
1, 30815, Note_on_c, 1, 31, 0
1, 30815, Note_on_c, 1, 31, 97
1, 30816, Note_on_c, 9, 38, 125
1, 30816, Note_on_c, 9, 42, 105
1, 30819, Note_on_c, 8, 70, 0
1, 30820, Note_on_c, 9, 42, 0
1, 30820, Note_on_c, 9, 38, 0
1, 30822, Pitch_bend_c, 8, 8192
1, 30824, Note_on_c, 8, 72, 31
1, 30841, Pitch_bend_c, 8, 8131
1, 30843, Note_on_c, 8, 72, 0
1, 30858, Note_on_c, 2, 53, 0
1, 30860, Note_on_c, 1, 31, 0
1, 30860, Note_on_c, 2, 60, 0
1, 30862, Note_on_c, 2, 57, 0
1, 30873, Note_on_c, 3, 48, 0
1, 30876, Note_on_c, 2, 48, 0
1, 30877, Note_on_c, 6, 60, 0
1, 30879, Note_on_c, 2, 55, 80
1, 30879, Note_on_c, 6, 59, 59
1, 30880, Note_on_c, 2, 50, 78
1, 30880, Note_on_c, 3, 50, 69
1, 30880, Note_on_c, 9, 69, 75
1, 30880, Note_on_c, 9, 44, 115
1, 30881, Note_on_c, 1, 31, 102
1, 30881, Note_on_c, 2, 59, 74
1, 30882, Pitch_bend_c, 8, 8190
1, 30882, Note_on_c, 9, 51, 78
1, 30883, Note_on_c, 8, 72, 76
1, 30884, Note_on_c, 9, 44, 0
1, 30884, Note_on_c, 9, 69, 0
1, 30886, Note_on_c, 9, 51, 0
1, 30897, Note_on_c, 1, 31, 0
1, 30912, Note_on_c, 1, 31, 103
1, 30912, Pitch_bend_c, 8, 8155
1, 30912, Note_on_c, 9, 35, 125
1, 30912, Note_on_c, 9, 42, 115
1, 30914, Note_on_c, 9, 59, 95
1, 30916, Note_on_c, 9, 42, 0
1, 30916, Note_on_c, 9, 35, 0
1, 30917, Pitch_bend_c, 8, 8810
1, 30918, Note_on_c, 9, 59, 0
1, 30923, Pitch_bend_c, 8, 9460
1, 30934, Pitch_bend_c, 8, 9492
1, 30944, Note_on_c, 9, 69, 75
1, 30948, Note_on_c, 9, 69, 0
1, 30953, Note_on_c, 1, 31, 0
1, 30960, Note_on_c, 8, 72, 0
1, 30968, Pitch_bend_c, 8, 8192
1, 30971, Note_on_c, 8, 77, 75
1, 30976, Note_on_c, 1, 31, 101
1, 30976, Note_on_c, 9, 44, 125
1, 30976, Note_on_c, 9, 69, 75
1, 30977, Pitch_bend_c, 5, 8322
1, 30978, Pitch_bend_c, 5, 8712
1, 30979, Pitch_bend_c, 5, 9102
1, 30980, Note_on_c, 9, 69, 0
1, 30980, Note_on_c, 9, 44, 0
1, 30980, Pitch_bend_c, 5, 9232
1, 30981, Pitch_bend_c, 5, 9622
1, 30982, Pitch_bend_c, 5, 10012
1, 30983, Pitch_bend_c, 5, 10532
1, 30984, Pitch_bend_c, 5, 10792
1, 30985, Pitch_bend_c, 5, 11312
1, 30985, Pitch_bend_c, 8, 8402
1, 30986, Pitch_bend_c, 5, 11702
1, 30987, Pitch_bend_c, 5, 12222
1, 30988, Pitch_bend_c, 5, 12352
1, 30989, Pitch_bend_c, 5, 12612
1, 30990, Pitch_bend_c, 5, 12872
1, 30991, Pitch_bend_c, 5, 13262
1, 30992, Note_on_c, 1, 31, 0
1, 30992, Pitch_bend_c, 5, 13522
1, 30993, Pitch_bend_c, 5, 13652
1, 30994, Pitch_bend_c, 5, 13782
1, 30995, Pitch_bend_c, 5, 13912
1, 30996, Pitch_bend_c, 5, 14042
1, 30997, Pitch_bend_c, 5, 14302
1, 30998, Pitch_bend_c, 5, 14432
1, 30998, Pitch_bend_c, 8, 8378
1, 31000, Pitch_bend_c, 5, 14562
1, 31002, Pitch_bend_c, 8, 8271
1, 31004, Note_on_c, 5, 60, 75
1, 31005, Note_on_c, 3, 50, 0
1, 31008, Note_on_c, 1, 31, 106
1, 31008, Note_on_c, 9, 42, 115
1, 31008, Note_on_c, 9, 38, 125
1, 31009, Note_on_c, 3, 53, 94
1, 31009, Pitch_bend_c, 5, 14432
1, 31009, Note_on_c, 9, 59, 86
1, 31011, Pitch_bend_c, 5, 14302
1, 31012, Note_on_c, 9, 38, 0
1, 31012, Note_on_c, 9, 42, 0
1, 31012, Pitch_bend_c, 5, 14172
1, 31012, Pitch_bend_c, 8, 8295
1, 31013, Note_on_c, 9, 59, 0
1, 31013, Pitch_bend_c, 5, 14042
1, 31014, Pitch_bend_c, 5, 13782
1, 31015, Pitch_bend_c, 5, 13652
1, 31015, Pitch_bend_c, 8, 8402
1, 31016, Pitch_bend_c, 5, 13522
1, 31017, Pitch_bend_c, 5, 13392
1, 31018, Pitch_bend_c, 5, 13002
1, 31019, Pitch_bend_c, 5, 12872
1, 31020, Pitch_bend_c, 5, 12612
1, 31021, Pitch_bend_c, 5, 12352
1, 31022, Pitch_bend_c, 5, 12222
1, 31023, Pitch_bend_c, 5, 11702
1, 31024, Pitch_bend_c, 5, 11572
1, 31025, Pitch_bend_c, 5, 10792
1, 31025, Pitch_bend_c, 8, 8378
1, 31026, Pitch_bend_c, 5, 10662
1, 31027, Pitch_bend_c, 5, 10272
1, 31028, Pitch_bend_c, 5, 9882
1, 31028, Pitch_bend_c, 8, 8255
1, 31029, Pitch_bend_c, 5, 9622
1, 31030, Pitch_bend_c, 5, 9362
1, 31031, Pitch_bend_c, 5, 9232
1, 31032, Pitch_bend_c, 5, 8972
1, 31033, Pitch_bend_c, 5, 8712
1, 31034, Pitch_bend_c, 5, 8582
1, 31035, Pitch_bend_c, 5, 8192
1, 31039, Pitch_bend_c, 8, 8279
1, 31040, Note_on_c, 9, 69, 75
1, 31042, Pitch_bend_c, 8, 8426
1, 31044, Note_on_c, 9, 69, 0
1, 31045, Pitch_bend_c, 8, 8530
1, 31053, Pitch_bend_c, 8, 8378
1, 31056, Pitch_bend_c, 8, 8255
1, 31066, Note_on_c, 5, 60, 0
1, 31066, Note_on_c, 1, 31, 0
1, 31066, Note_on_c, 5, 58, 79
1, 31068, Pitch_bend_c, 8, 8279
1, 31070, Note_on_c, 3, 53, 0
1, 31072, Note_on_c, 1, 29, 95
1, 31072, Note_on_c, 3, 55, 72
1, 31072, Pitch_bend_c, 8, 8450
1, 31072, Note_on_c, 9, 69, 75
1, 31072, Note_on_c, 9, 44, 115
1, 31074, Note_on_c, 2, 50, 0
1, 31076, Note_on_c, 9, 44, 0
1, 31076, Note_on_c, 9, 69, 0
1, 31078, Note_on_c, 2, 55, 0
1, 31081, Pitch_bend_c, 8, 8418
1, 31085, Pitch_bend_c, 8, 8263
1, 31089, Note_on_c, 2, 59, 0
1, 31090, Note_on_c, 5, 58, 0
1, 31094, Note_on_c, 6, 59, 0
1, 31097, Pitch_bend_c, 8, 8319
1, 31098, Note_on_c, 5, 55, 64
1, 31103, Pitch_bend_c, 8, 8192
1, 31104, Note_on_c, 1, 29, 0
1, 31104, Note_on_c, 1, 31, 107
1, 31104, Note_on_c, 2, 53, 74
1, 31104, Note_on_c, 6, 62, 62
1, 31104, Note_on_c, 9, 35, 125
1, 31104, Note_on_c, 9, 42, 115
1, 31108, Note_on_c, 9, 42, 0
1, 31108, Note_on_c, 9, 35, 0
1, 31111, Note_on_c, 2, 53, 0
1, 31113, Note_on_c, 3, 55, 0
1, 31114, Note_on_c, 8, 77, 0
1, 31121, Note_on_c, 5, 55, 0
1, 31136, Note_on_c, 9, 69, 75
1, 31138, Note_on_c, 1, 31, 0
1, 31140, Note_on_c, 9, 69, 0
1, 31167, Note_on_c, 2, 53, 85
1, 31168, Note_on_c, 1, 31, 100
1, 31168, Note_on_c, 2, 50, 80
1, 31168, Note_on_c, 2, 58, 79
1, 31168, Note_on_c, 2, 62, 77
1, 31168, Note_on_c, 3, 53, 69
1, 31168, Note_on_c, 9, 44, 125
1, 31168, Note_on_c, 9, 69, 75
1, 31172, Note_on_c, 9, 69, 0
1, 31172, Note_on_c, 9, 44, 0
1, 31182, Note_on_c, 1, 31, 0
1, 31198, Note_on_c, 5, 58, 63
1, 31199, Note_on_c, 1, 31, 105
1, 31200, Note_on_c, 9, 42, 105
1, 31200, Note_on_c, 9, 38, 125
1, 31202, Note_on_c, 9, 59, 59
1, 31204, Note_on_c, 9, 38, 0
1, 31204, Note_on_c, 9, 42, 0
1, 31206, Note_on_c, 9, 59, 0
1, 31227, Note_on_c, 5, 58, 0
1, 31244, Note_on_c, 1, 31, 0
1, 31259, Note_on_c, 5, 55, 72
1, 31264, Note_on_c, 1, 31, 98
1, 31264, Note_on_c, 9, 44, 115
1, 31264, Note_on_c, 9, 69, 75
1, 31268, Note_on_c, 9, 69, 0
1, 31268, Note_on_c, 9, 44, 0
1, 31279, Note_on_c, 1, 31, 0
1, 31288, Note_on_c, 2, 58, 0
1, 31290, Note_on_c, 5, 55, 0
1, 31291, Note_on_c, 2, 62, 0
1, 31295, Note_on_c, 9, 59, 88
1, 31296, Note_on_c, 2, 53, 0
1, 31296, Note_on_c, 6, 62, 0
1, 31296, Note_on_c, 1, 31, 104
1, 31296, Note_on_c, 2, 61, 73
1, 31296, Note_on_c, 6, 61, 62
1, 31296, Note_on_c, 9, 42, 115
1, 31296, Note_on_c, 9, 35, 125
1, 31297, Note_on_c, 2, 50, 0
1, 31297, Note_on_c, 3, 53, 0
1, 31297, Note_on_c, 2, 49, 78
1, 31297, Note_on_c, 2, 57, 73
1, 31297, Note_on_c, 3, 52, 62
1, 31298, Note_on_c, 2, 52, 77
1, 31299, Note_on_c, 9, 59, 0
1, 31300, Note_on_c, 9, 42, 0
1, 31300, Note_on_c, 9, 35, 0
1, 31300, Note_on_c, 8, 73, 91
1, 31304, Pitch_bend_c, 8, 7609
1, 31313, Note_on_c, 2, 49, 0
1, 31316, Pitch_bend_c, 8, 7561
1, 31317, Note_on_c, 2, 61, 0
1, 31318, Note_on_c, 2, 57, 0
1, 31322, Note_on_c, 2, 52, 0
1, 31328, Note_on_c, 9, 69, 75
1, 31332, Note_on_c, 9, 69, 0
1, 31335, Note_on_c, 1, 31, 0
1, 31350, Pitch_bend_c, 8, 7489
1, 31358, Note_on_c, 2, 49, 78
1, 31359, Note_on_c, 2, 57, 76
1, 31359, Note_on_c, 2, 61, 77
1, 31360, Note_on_c, 1, 31, 102
1, 31360, Note_on_c, 2, 52, 78
1, 31360, Note_on_c, 9, 44, 125
1, 31364, Note_on_c, 9, 44, 0
1, 31365, Note_on_c, 8, 73, 0
1, 31379, Note_on_c, 1, 31, 0
1, 31392, Note_on_c, 1, 31, 106
1, 31392, Pitch_bend_c, 8, 8192
1, 31392, Note_on_c, 9, 42, 115
1, 31392, Note_on_c, 9, 38, 125
1, 31394, Note_on_c, 8, 72, 59
1, 31396, Note_on_c, 9, 38, 0
1, 31396, Note_on_c, 9, 42, 0
1, 31415, Pitch_bend_c, 8, 8155
1, 31433, Note_on_c, 1, 31, 0
1, 31443, Pitch_bend_c, 8, 7383
1, 31444, Note_on_c, 8, 72, 0
1, 31453, Note_on_c, 3, 52, 0
1, 31456, Note_on_c, 9, 44, 115
1, 31456, Note_on_c, 9, 69, 75
1, 31458, Note_on_c, 1, 29, 102
1, 31458, Pitch_bend_c, 8, 8185
1, 31460, Note_on_c, 9, 69, 0
1, 31460, Note_on_c, 9, 44, 0
1, 31460, Note_on_c, 8, 70, 90
1, 31472, Note_on_c, 1, 29, 0
1, 31472, Note_on_c, 1, 30, 97
1, 31474, Note_on_c, 2, 57, 0
1, 31476, Note_on_c, 2, 61, 0
1, 31479, Note_on_c, 6, 61, 0
1, 31486, Note_on_c, 8, 70, 0
1, 31486, Note_on_c, 2, 52, 0
1, 31488, Note_on_c, 1, 30, 0
1, 31488, Note_on_c, 1, 31, 111
1, 31488, Note_on_c, 2, 53, 77
1, 31488, Note_on_c, 2, 57, 77
1, 31488, Note_on_c, 2, 60, 78
1, 31488, Note_on_c, 2, 43, 83
1, 31488, Note_on_c, 3, 48, 65
1, 31488, Note_on_c, 3, 65, 84
1, 31488, Note_on_c, 6, 65, 94
1, 31488, Note_on_c, 6, 69, 95
1, 31488, Note_on_c, 9, 35, 125
1, 31488, Note_on_c, 9, 42, 115
1, 31488, Note_on_c, 14, 65, 94
1, 31488, Note_on_c, 14, 69, 83
1, 31492, Note_on_c, 9, 42, 0
1, 31492, Note_on_c, 9, 35, 0
1, 31493, Note_on_c, 14, 69, 0
1, 31496, Note_on_c, 2, 49, 0
1, 31499, Note_on_c, 6, 69, 0
1, 31501, Note_on_c, 6, 65, 0
1, 31501, Note_on_c, 3, 65, 0
1, 31501, Note_on_c, 14, 65, 0
1, 31503, Note_on_c, 2, 43, 0
1, 31504, Note_on_c, 2, 60, 0
1, 31505, Note_on_c, 2, 57, 0
1, 31506, Note_on_c, 2, 53, 0
1, 31516, Note_on_c, 1, 31, 0
1, 31520, Note_on_c, 9, 69, 75
1, 31524, Note_on_c, 9, 69, 0
1, 31550, Note_on_c, 2, 43, 87
1, 31550, Note_on_c, 2, 60, 78
1, 31550, Note_on_c, 3, 65, 87
1, 31551, Note_on_c, 1, 31, 104
1, 31551, Note_on_c, 2, 57, 77
1, 31551, Note_on_c, 2, 53, 79
1, 31551, Note_on_c, 6, 69, 102
1, 31551, Note_on_c, 6, 65, 99
1, 31551, Note_on_c, 14, 65, 112
1, 31552, Note_on_c, 9, 44, 125
1, 31552, Note_on_c, 9, 69, 75
1, 31554, Note_on_c, 9, 51, 81
1, 31556, Note_on_c, 9, 69, 0
1, 31556, Note_on_c, 9, 44, 0
1, 31558, Note_on_c, 9, 51, 0
1, 31567, Note_on_c, 1, 31, 0
1, 31584, Note_on_c, 1, 31, 110
1, 31584, Note_on_c, 9, 42, 105
1, 31584, Note_on_c, 9, 38, 125
1, 31588, Note_on_c, 9, 38, 0
1, 31588, Note_on_c, 9, 42, 0
1, 31633, Note_on_c, 1, 31, 0
1, 31648, Note_on_c, 9, 44, 115
1, 31648, Note_on_c, 9, 69, 75
1, 31649, Note_on_c, 9, 51, 79
1, 31650, Note_on_c, 1, 29, 102
1, 31652, Note_on_c, 9, 69, 0
1, 31652, Note_on_c, 9, 44, 0
1, 31653, Note_on_c, 9, 51, 0
1, 31660, Note_on_c, 2, 57, 0
1, 31664, Note_on_c, 6, 65, 0
1, 31664, Note_on_c, 1, 29, 0
1, 31664, Note_on_c, 1, 30, 97
1, 31665, Note_on_c, 14, 65, 0
1, 31666, Note_on_c, 3, 65, 0
1, 31666, Note_on_c, 2, 60, 0
1, 31668, Note_on_c, 6, 69, 0
1, 31672, Note_on_c, 2, 53, 0
1, 31674, Note_on_c, 2, 43, 0
1, 31679, Note_on_c, 1, 30, 0
1, 31679, Note_on_c, 1, 31, 111
1, 31680, Note_on_c, 2, 60, 73
1, 31680, Note_on_c, 2, 65, 74
1, 31680, Note_on_c, 2, 57, 75
1, 31680, Note_on_c, 6, 69, 91
1, 31680, Note_on_c, 6, 65, 89
1, 31680, Note_on_c, 9, 42, 115
1, 31680, Note_on_c, 9, 35, 125
1, 31680, Note_on_c, 14, 69, 97
1, 31680, Note_on_c, 14, 65, 97
1, 31681, Note_on_c, 2, 43, 78
1, 31681, Note_on_c, 3, 65, 72
1, 31681, Note_on_c, 6, 72, 93
1, 31681, Note_on_c, 9, 59, 89
1, 31684, Note_on_c, 9, 35, 0
1, 31684, Note_on_c, 9, 42, 0
1, 31685, Note_on_c, 9, 59, 0
1, 31695, Note_on_c, 6, 65, 0
1, 31696, Note_on_c, 6, 72, 0
1, 31697, Note_on_c, 6, 69, 0
1, 31697, Note_on_c, 14, 69, 0
1, 31698, Note_on_c, 14, 65, 0
1, 31698, Note_on_c, 3, 65, 0
1, 31701, Note_on_c, 2, 57, 0
1, 31703, Note_on_c, 2, 60, 0
1, 31703, Note_on_c, 2, 43, 0
1, 31704, Note_on_c, 2, 65, 0
1, 31712, Note_on_c, 1, 31, 0
1, 31712, Note_on_c, 9, 69, 75
1, 31716, Note_on_c, 9, 69, 0
1, 31742, Note_on_c, 6, 72, 109
1, 31742, Note_on_c, 6, 65, 97
1, 31742, Note_on_c, 6, 69, 102
1, 31743, Note_on_c, 1, 31, 100
1, 31743, Note_on_c, 2, 43, 89
1, 31743, Note_on_c, 3, 65, 84
1, 31743, Note_on_c, 14, 69, 112
1, 31743, Note_on_c, 14, 65, 104
1, 31744, Note_on_c, 2, 57, 77
1, 31744, Note_on_c, 2, 65, 77
1, 31744, Note_on_c, 2, 60, 77
1, 31744, Note_on_c, 9, 44, 125
1, 31744, Note_on_c, 9, 69, 75
1, 31745, Note_on_c, 9, 59, 105
1, 31748, Note_on_c, 9, 69, 0
1, 31748, Note_on_c, 9, 44, 0
1, 31749, Note_on_c, 9, 59, 0
1, 31755, Note_on_c, 1, 31, 0
1, 31775, Note_on_c, 1, 31, 111
1, 31776, Note_on_c, 9, 38, 125
1, 31776, Note_on_c, 9, 42, 115
1, 31780, Note_on_c, 9, 42, 0
1, 31780, Note_on_c, 9, 38, 0
1, 31808, Note_on_c, 9, 69, 75
1, 31812, Note_on_c, 9, 69, 0
1, 31818, Note_on_c, 1, 31, 0
1, 31826, Note_on_c, 2, 57, 0
1, 31835, Note_on_c, 6, 65, 0
1, 31838, Note_on_c, 2, 60, 0
1, 31839, Note_on_c, 1, 29, 102
1, 31840, Note_on_c, 9, 69, 75
1, 31840, Note_on_c, 9, 44, 115
1, 31841, Note_on_c, 9, 51, 87
1, 31842, Note_on_c, 2, 65, 0
1, 31844, Note_on_c, 9, 69, 0
1, 31844, Note_on_c, 9, 44, 0
1, 31845, Note_on_c, 9, 51, 0
1, 31846, Note_on_c, 6, 72, 0
1, 31847, Note_on_c, 6, 69, 0
1, 31848, Note_on_c, 14, 65, 0
1, 31850, Note_on_c, 3, 65, 0
1, 31853, Note_on_c, 14, 69, 0
1, 31856, Note_on_c, 1, 29, 0
1, 31856, Note_on_c, 1, 30, 97
1, 31861, Note_on_c, 2, 43, 0
1, 31871, Note_on_c, 6, 72, 95
1, 31872, Note_on_c, 1, 30, 0
1, 31872, Note_on_c, 1, 31, 111
1, 31872, Note_on_c, 2, 43, 78
1, 31872, Note_on_c, 2, 65, 76
1, 31872, Note_on_c, 2, 72, 77
1, 31872, Note_on_c, 2, 69, 78
1, 31872, Note_on_c, 6, 69, 89
1, 31872, Note_on_c, 6, 76, 82
1, 31872, Note_on_c, 6, 77, 84
1, 31872, Note_on_c, 9, 35, 125
1, 31872, Note_on_c, 9, 42, 115
1, 31872, Note_on_c, 14, 72, 94
1, 31872, Note_on_c, 14, 69, 87
1, 31873, Note_on_c, 3, 65, 75
1, 31873, Note_on_c, 9, 59, 104
1, 31876, Note_on_c, 9, 42, 0
1, 31876, Note_on_c, 9, 35, 0
1, 31877, Note_on_c, 9, 59, 0
1, 31877, Note_on_c, 6, 76, 0
1, 31880, Note_on_c, 6, 77, 0
1, 31884, Note_on_c, 6, 72, 0
1, 31885, Note_on_c, 2, 69, 0
1, 31885, Note_on_c, 6, 69, 0
1, 31886, Note_on_c, 2, 65, 0
1, 31887, Note_on_c, 2, 72, 0
1, 31892, Note_on_c, 3, 65, 0
1, 31893, Note_on_c, 14, 69, 0
1, 31894, Note_on_c, 14, 72, 0
1, 31896, Note_on_c, 2, 43, 0
1, 31900, Note_on_c, 1, 31, 0
1, 31904, Note_on_c, 9, 69, 75
1, 31908, Note_on_c, 9, 69, 0
1, 31933, Note_on_c, 2, 65, 76
1, 31933, Note_on_c, 2, 69, 77
1, 31933, Note_on_c, 2, 72, 77
1, 31934, Note_on_c, 6, 69, 97
1, 31934, Note_on_c, 6, 77, 102
1, 31934, Note_on_c, 6, 72, 114
1, 31935, Note_on_c, 1, 31, 104
1, 31935, Note_on_c, 14, 69, 100
1, 31935, Note_on_c, 14, 72, 99
1, 31936, Note_on_c, 2, 43, 91
1, 31936, Note_on_c, 3, 65, 87
1, 31936, Note_on_c, 9, 69, 75
1, 31936, Note_on_c, 9, 44, 125
1, 31937, Note_on_c, 9, 59, 114
1, 31940, Note_on_c, 9, 44, 0
1, 31940, Note_on_c, 9, 69, 0
1, 31941, Note_on_c, 9, 59, 0
1, 31951, Note_on_c, 1, 31, 0
1, 31968, Note_on_c, 1, 31, 110
1, 31968, Note_on_c, 9, 42, 105
1, 31968, Note_on_c, 9, 38, 125
1, 31972, Note_on_c, 9, 38, 0
1, 31972, Note_on_c, 9, 42, 0
1, 32017, Note_on_c, 1, 31, 0
1, 32032, Note_on_c, 9, 35, 75
1, 32032, Note_on_c, 9, 44, 115
1, 32032, Note_on_c, 9, 69, 75
1, 32033, Note_on_c, 9, 51, 92
1, 32034, Note_on_c, 1, 29, 102
1, 32036, Note_on_c, 9, 69, 0
1, 32036, Note_on_c, 9, 44, 0
1, 32036, Note_on_c, 9, 35, 0
1, 32037, Note_on_c, 9, 51, 0
1, 32040, Note_on_c, 3, 65, 0
1, 32041, Note_on_c, 14, 72, 0
1, 32042, Note_on_c, 14, 69, 0
1, 32046, Note_on_c, 6, 69, 0
1, 32048, Note_on_c, 1, 29, 0
1, 32048, Note_on_c, 1, 30, 97
1, 32050, Note_on_c, 6, 77, 0
1, 32053, Note_on_c, 6, 72, 0
1, 32061, Note_on_c, 2, 69, 0
1, 32061, Note_on_c, 2, 65, 0
1, 32061, Note_on_c, 2, 72, 0
1, 32063, Note_on_c, 1, 30, 0
1, 32063, Note_on_c, 1, 31, 111
1, 32064, Note_on_c, 2, 72, 83
1, 32064, Note_on_c, 2, 69, 81
1, 32064, Note_on_c, 2, 77, 83
1, 32064, Note_on_c, 6, 77, 88
1, 32064, Note_on_c, 6, 69, 92
1, 32064, Note_on_c, 6, 72, 97
1, 32064, Note_on_c, 9, 42, 115
1, 32064, Note_on_c, 14, 77, 88
1, 32064, Note_on_c, 14, 69, 85
1, 32064, Note_on_c, 14, 72, 87
1, 32065, Note_on_c, 3, 65, 75
1, 32065, Note_on_c, 9, 59, 102
1, 32068, Note_on_c, 9, 42, 0
1, 32069, Note_on_c, 9, 59, 0
1, 32078, Note_on_c, 6, 77, 0
1, 32079, Note_on_c, 2, 69, 0
1, 32079, Note_on_c, 6, 69, 0
1, 32079, Note_on_c, 2, 72, 0
1, 32080, Note_on_c, 14, 72, 0
1, 32081, Note_on_c, 6, 72, 0
1, 32082, Note_on_c, 2, 77, 0
1, 32083, Note_on_c, 14, 69, 0
1, 32084, Note_on_c, 14, 77, 0
1, 32088, Note_on_c, 3, 48, 0
1, 32089, Note_on_c, 3, 65, 0
1, 32096, Note_on_c, 1, 31, 0
1, 32096, Note_on_c, 9, 69, 75
1, 32100, Note_on_c, 9, 69, 0
1, 32111, Note_on_c, 4, 55, 0
1, 32113, Note_on_c, 2, 43, 0
1, 32122, Note_on_c, 4, 55, 57
1, 32126, Note_on_c, 2, 67, 79
1, 32126, Note_on_c, 2, 72, 84
1, 32126, Note_on_c, 2, 48, 86
1, 32126, Note_on_c, 2, 76, 84
1, 32126, Note_on_c, 6, 76, 105
1, 32126, Note_on_c, 14, 76, 97
1, 32127, Note_on_c, 1, 31, 100
1, 32127, Note_on_c, 3, 48, 69
1, 32127, Note_on_c, 3, 64, 79
1, 32127, Note_on_c, 6, 72, 105
1, 32127, Note_on_c, 6, 67, 109
1, 32127, Note_on_c, 14, 67, 97
1, 32127, Note_on_c, 14, 72, 99
1, 32128, Note_on_c, 9, 46, 127
1, 32128, Note_on_c, 9, 57, 85
1, 32128, Note_on_c, 9, 35, 125
1, 32129, Note_on_c, 9, 59, 95
1, 32132, Note_on_c, 9, 35, 0
1, 32132, Note_on_c, 9, 57, 0
1, 32132, Note_on_c, 9, 46, 0
1, 32133, Note_on_c, 9, 59, 0
1, 32139, Note_on_c, 1, 31, 0
1, 32159, Note_on_c, 1, 31, 111
1, 32160, Note_on_c, 9, 38, 85
1, 32160, Note_on_c, 9, 44, 105
1, 32164, Note_on_c, 9, 44, 0
1, 32164, Note_on_c, 9, 38, 0
1, 32181, Note_on_c, 14, 72, 0
1, 32185, Note_on_c, 14, 76, 0
1, 32185, Note_on_c, 14, 67, 0
1, 32202, Note_on_c, 1, 31, 0
1, 32223, Note_on_c, 1, 29, 102
1, 32224, Note_on_c, 9, 69, 75
1, 32224, Note_on_c, 9, 44, 125
1, 32224, Note_on_c, 14, 67, 97
1, 32224, Note_on_c, 14, 71, 104
1, 32224, Note_on_c, 14, 74, 100
1, 32228, Note_on_c, 9, 44, 0
1, 32228, Note_on_c, 9, 69, 0
1, 32231, Note_on_c, 2, 48, 0
1, 32240, Note_on_c, 1, 29, 0
1, 32240, Note_on_c, 3, 48, 0
1, 32240, Note_on_c, 1, 30, 97
1, 32242, Note_on_c, 4, 55, 0
1, 32244, Note_on_c, 3, 64, 0
1, 32245, Note_on_c, 2, 67, 0
1, 32245, Note_on_c, 2, 76, 0
1, 32247, Note_on_c, 6, 76, 0
1, 32247, Note_on_c, 2, 72, 0
1, 32249, Note_on_c, 6, 67, 0
1, 32250, Note_on_c, 6, 72, 0
1, 32252, Note_on_c, 0, 50, 127
1, 32254, Note_on_c, 0, 55, 127
1, 32256, Note_on_c, 1, 30, 0
1, 32256, Note_on_c, 1, 31, 107
1, 32256, Note_on_c, 2, 62, 74
1, 32256, Note_on_c, 2, 59, 74
1, 32256, Note_on_c, 2, 55, 74
1, 32256, Note_on_c, 4, 62, 52
1, 32256, Note_on_c, 4, 55, 50
1, 32256, Note_on_c, 4, 59, 52
1, 32256, Note_on_c, 6, 67, 87
1, 32256, Note_on_c, 6, 71, 84
1, 32256, Note_on_c, 9, 49, 75
1, 32256, Note_on_c, 9, 35, 125
1, 32256, Note_on_c, 9, 42, 115
1, 32257, Note_on_c, 0, 59, 127
1, 32257, Note_on_c, 6, 62, 75
1, 32260, Note_on_c, 9, 42, 0
1, 32260, Note_on_c, 9, 35, 0
1, 32260, Note_on_c, 9, 49, 0
1, 32260, Note_on_c, 0, 62, 127
1, 32262, Note_on_c, 0, 67, 127
1, 32288, Note_on_c, 9, 69, 75
1, 32292, Note_on_c, 9, 69, 0
1, 32296, Note_on_c, 1, 31, 0
1, 32314, Note_on_c, 0, 67, 0
1, 32320, Note_on_c, 1, 31, 102
1, 32320, Note_on_c, 9, 44, 125
1, 32320, Note_on_c, 9, 69, 75
1, 32322, Note_on_c, 0, 67, 127
1, 32324, Note_on_c, 9, 69, 0
1, 32324, Note_on_c, 9, 44, 0
1, 32324, Note_on_c, 0, 62, 0
1, 32324, Note_on_c, 0, 62, 121
1, 32338, Note_on_c, 1, 31, 0
1, 32352, Note_on_c, 1, 31, 105
1, 32352, Note_on_c, 9, 42, 105
1, 32352, Note_on_c, 9, 38, 125
1, 32353, Note_on_c, 9, 59, 96
1, 32354, Note_on_c, 0, 55, 0
1, 32356, Note_on_c, 9, 38, 0
1, 32356, Note_on_c, 9, 42, 0
1, 32356, Note_on_c, 0, 55, 127
1, 32357, Note_on_c, 9, 59, 0
1, 32387, Lyric_t, "You "
1, 32388, Note_on_c, 1, 31, 0
1, 32408, Note_on_c, 0, 67, 0
1, 32409, Note_on_c, 0, 67, 127
1, 32410, Note_on_c, 0, 62, 0
1, 32412, Note_on_c, 0, 62, 127
1, 32414, Note_on_c, 0, 55, 0
1, 32415, Note_on_c, 14, 74, 0
1, 32415, Note_on_c, 0, 55, 127
1, 32416, Note_on_c, 1, 31, 92
1, 32416, Note_on_c, 9, 69, 75
1, 32416, Note_on_c, 9, 44, 115
1, 32417, Note_on_c, 14, 67, 0
1, 32420, Note_on_c, 9, 44, 0
1, 32420, Note_on_c, 9, 69, 0
1, 32420, Note_on_c, 14, 71, 0
1, 32434, Note_on_c, 1, 31, 0
1, 32448, Note_on_c, 1, 31, 108
1, 32448, Note_on_c, 9, 35, 125
1, 32448, Note_on_c, 9, 42, 115
1, 32448, Lyric_t, "gotta "
1, 32452, Note_on_c, 9, 42, 0
1, 32452, Note_on_c, 9, 35, 0
1, 32474, Note_on_c, 2, 55, 0
1, 32480, Note_on_c, 9, 69, 75
1, 32484, Note_on_c, 9, 69, 0
1, 32488, Note_on_c, 1, 31, 0
1, 32495, Lyric_t, "grow, "
1, 32495, Lyric_t, "\015"
1, 32511, Note_on_c, 1, 31, 102
1, 32512, Note_on_c, 2, 55, 70
1, 32512, Note_on_c, 9, 44, 125
1, 32516, Note_on_c, 9, 44, 0
1, 32518, Note_on_c, 2, 62, 0
1, 32520, Note_on_c, 2, 59, 0
1, 32527, Note_on_c, 1, 31, 0
1, 32534, Note_on_c, 2, 55, 0
1, 32537, Note_on_c, 0, 50, 0
1, 32541, Note_on_c, 0, 55, 0
1, 32542, Note_on_c, 0, 50, 127
1, 32543, Note_on_c, 0, 55, 127
1, 32543, Note_on_c, 1, 31, 109
1, 32543, Note_on_c, 2, 59, 73
1, 32543, Lyric_t, "you "
1, 32544, Note_on_c, 0, 59, 0
1, 32544, Note_on_c, 0, 62, 0
1, 32544, Note_on_c, 2, 62, 72
1, 32544, Note_on_c, 9, 42, 115
1, 32544, Note_on_c, 9, 38, 125
1, 32545, Note_on_c, 0, 59, 127
1, 32546, Note_on_c, 0, 67, 0
1, 32546, Note_on_c, 0, 62, 127
1, 32547, Note_on_c, 0, 67, 127
1, 32548, Note_on_c, 9, 38, 0
1, 32548, Note_on_c, 9, 42, 0
1, 32565, Note_on_c, 2, 62, 0
1, 32566, Note_on_c, 6, 62, 0
1, 32570, Note_on_c, 6, 71, 0
1, 32571, Note_on_c, 2, 59, 0
1, 32574, Note_on_c, 6, 67, 0
1, 32581, Lyric_t, "gotta "
1, 32587, Note_on_c, 1, 31, 0
1, 32594, Note_on_c, 0, 55, 0
1, 32596, Note_on_c, 0, 50, 0
1, 32606, Note_on_c, 2, 55, 59
1, 32607, Note_on_c, 0, 59, 0
1, 32608, Note_on_c, 9, 69, 75
1, 32608, Note_on_c, 9, 46, 105
1, 32609, Note_on_c, 1, 31, 97
1, 32612, Note_on_c, 9, 46, 0
1, 32612, Note_on_c, 9, 69, 0
1, 32616, Note_on_c, 4, 62, 0
1, 32618, Note_on_c, 4, 59, 0
1, 32625, Note_on_c, 1, 31, 0
1, 32635, Note_on_c, 0, 62, 0
1, 32639, Note_on_c, 2, 64, 73
1, 32639, Note_on_c, 2, 60, 71
1, 32640, Note_on_c, 0, 55, 127
1, 32640, Note_on_c, 9, 42, 115
1, 32640, Note_on_c, 9, 59, 77
1, 32640, Note_on_c, 9, 35, 125
1, 32641, Note_on_c, 0, 60, 127
1, 32641, Note_on_c, 1, 31, 101
1, 32641, Note_on_c, 4, 64, 55
1, 32641, Note_on_c, 4, 60, 49
1, 32642, Note_on_c, 0, 64, 127
1, 32643, Note_on_c, 0, 67, 0
1, 32643, Note_on_c, 0, 67, 124
1, 32644, Note_on_c, 9, 35, 0
1, 32644, Note_on_c, 9, 59, 0
1, 32644, Note_on_c, 9, 42, 0
1, 32647, Note_on_c, 0, 67, 0
1, 32651, Lyric_t, "learn "
1, 32655, Note_on_c, 0, 64, 0
1, 32672, Note_on_c, 9, 69, 75
1, 32676, Note_on_c, 9, 69, 0
1, 32683, Note_on_c, 1, 31, 0
1, 32703, Note_on_c, 0, 64, 113
1, 32704, Note_on_c, 9, 69, 75
1, 32704, Note_on_c, 9, 59, 88
1, 32704, Note_on_c, 9, 44, 125
1, 32705, Note_on_c, 1, 31, 101
1, 32708, Note_on_c, 9, 44, 0
1, 32708, Note_on_c, 9, 69, 0
1, 32708, Note_on_c, 9, 59, 0
1, 32720, Note_on_c, 1, 31, 0
1, 32730, Lyric_t, "by "
1, 32735, Note_on_c, 0, 55, 0
1, 32736, Note_on_c, 0, 60, 0
1, 32736, Note_on_c, 0, 55, 127
1, 32736, Note_on_c, 9, 42, 105
1, 32736, Note_on_c, 9, 38, 125
1, 32737, Note_on_c, 0, 64, 0
1, 32737, Note_on_c, 1, 31, 107
1, 32738, Note_on_c, 0, 60, 127
1, 32738, Note_on_c, 0, 64, 127
1, 32740, Note_on_c, 9, 38, 0
1, 32740, Note_on_c, 9, 42, 0
1, 32753, Note_on_c, 0, 64, 0
1, 32764, Note_on_c, 0, 60, 0
1, 32768, Note_on_c, 0, 55, 0
1, 32778, Note_on_c, 1, 31, 0
1, 32788, Note_on_c, 2, 64, 0
1, 32791, Note_on_c, 2, 60, 0
1, 32795, Note_on_c, 0, 67, 127
1, 32797, Lyric_t, "your "
1, 32798, Note_on_c, 0, 62, 127
1, 32800, Note_on_c, 0, 59, 127
1, 32800, Note_on_c, 1, 31, 103
1, 32800, Note_on_c, 9, 44, 115
1, 32800, Note_on_c, 9, 69, 75
1, 32800, Note_on_c, 9, 59, 95
1, 32802, Note_on_c, 0, 55, 127
1, 32803, Note_on_c, 0, 50, 127
1, 32804, Note_on_c, 9, 59, 0
1, 32804, Note_on_c, 9, 69, 0
1, 32804, Note_on_c, 9, 44, 0
1, 32807, Note_on_c, 4, 64, 0
1, 32809, Note_on_c, 4, 60, 0
1, 32819, Note_on_c, 1, 31, 0
1, 32832, Note_on_c, 1, 31, 107
1, 32832, Note_on_c, 2, 59, 70
1, 32832, Note_on_c, 2, 62, 70
1, 32832, Note_on_c, 9, 35, 125
1, 32832, Note_on_c, 9, 42, 115
1, 32833, Note_on_c, 4, 62, 49
1, 32833, Note_on_c, 4, 59, 50
1, 32836, Note_on_c, 9, 42, 0
1, 32836, Note_on_c, 9, 35, 0
1, 32863, Lyric_t, "mistakes "
1, 32863, Lyric_t, "\015"
1, 32864, Note_on_c, 9, 69, 75
1, 32868, Note_on_c, 9, 69, 0
1, 32877, Note_on_c, 1, 31, 0
1, 32890, Note_on_c, 0, 67, 0
1, 32891, Note_on_c, 0, 67, 127
1, 32892, Note_on_c, 0, 62, 0
1, 32893, Note_on_c, 0, 62, 123
1, 32896, Note_on_c, 1, 31, 100
1, 32896, Note_on_c, 9, 44, 125
1, 32896, Note_on_c, 9, 51, 95
1, 32900, Note_on_c, 9, 51, 0
1, 32900, Note_on_c, 9, 44, 0
1, 32910, Note_on_c, 1, 31, 0
1, 32917, Lyric_t, "You "
1, 32928, Note_on_c, 0, 50, 0
1, 32928, Note_on_c, 0, 55, 0
1, 32928, Note_on_c, 1, 31, 101
1, 32928, Note_on_c, 9, 38, 125
1, 32928, Note_on_c, 9, 42, 115
1, 32929, Note_on_c, 0, 50, 127
1, 32929, Note_on_c, 9, 59, 102
1, 32930, Note_on_c, 0, 59, 0
1, 32930, Note_on_c, 0, 55, 127
1, 32931, Note_on_c, 0, 59, 127
1, 32932, Note_on_c, 9, 38, 0
1, 32932, Note_on_c, 0, 62, 0
1, 32932, Note_on_c, 9, 42, 0
1, 32933, Note_on_c, 0, 67, 0
1, 32933, Note_on_c, 9, 59, 0
1, 32933, Note_on_c, 0, 62, 127
1, 32934, Note_on_c, 0, 67, 127
1, 32943, Note_on_c, 0, 67, 0
1, 32944, Note_on_c, 0, 59, 0
1, 32945, Note_on_c, 0, 62, 0
1, 32945, Note_on_c, 0, 50, 0
1, 32947, Note_on_c, 1, 31, 0
1, 32948, Note_on_c, 0, 55, 0
1, 32951, Note_on_c, 2, 62, 0
1, 32954, Note_on_c, 2, 59, 0
1, 32961, Note_on_c, 2, 55, 0
1, 32981, Note_on_c, 4, 62, 0
1, 32985, Note_on_c, 4, 55, 0
1, 32988, Note_on_c, 0, 65, 127
1, 32989, Note_on_c, 0, 60, 127
1, 32991, Note_on_c, 2, 60, 71
1, 32991, Note_on_c, 2, 57, 74
1, 32991, Note_on_c, 2, 53, 73
1, 32992, Note_on_c, 0, 57, 127
1, 32992, Note_on_c, 1, 31, 96
1, 32992, Note_on_c, 9, 69, 75
1, 32992, Note_on_c, 9, 46, 105
1, 32993, Note_on_c, 0, 53, 127
1, 32993, Note_on_c, 9, 59, 89
1, 32995, Note_on_c, 4, 59, 0
1, 32996, Note_on_c, 9, 46, 0
1, 32996, Note_on_c, 9, 69, 0
1, 32997, Note_on_c, 9, 59, 0
1, 33010, Note_on_c, 1, 31, 0
1, 33016, Lyric_t, "gotta "
1, 33024, Note_on_c, 1, 29, 108
1, 33024, Note_on_c, 9, 35, 125
1, 33024, Note_on_c, 9, 42, 115
1, 33025, Note_on_c, 4, 65, 52
1, 33025, Note_on_c, 4, 57, 56
1, 33025, Note_on_c, 4, 60, 61
1, 33028, Note_on_c, 9, 42, 0
1, 33028, Note_on_c, 9, 35, 0
1, 33056, Note_on_c, 2, 53, 0
1, 33056, Note_on_c, 9, 69, 75
1, 33057, Note_on_c, 2, 57, 0
1, 33059, Note_on_c, 2, 60, 0
1, 33060, Note_on_c, 9, 69, 0
1, 33067, Note_on_c, 1, 29, 0
1, 33082, Note_on_c, 0, 65, 0
1, 33083, Note_on_c, 0, 65, 127
1, 33084, Note_on_c, 0, 60, 0
1, 33085, Note_on_c, 0, 60, 123
1, 33086, Lyric_t, "die "
1, 33088, Note_on_c, 1, 29, 101
1, 33088, Note_on_c, 2, 57, 72
1, 33088, Note_on_c, 2, 53, 71
1, 33088, Note_on_c, 2, 60, 71
1, 33088, Note_on_c, 9, 69, 75
1, 33088, Note_on_c, 9, 44, 125
1, 33089, Note_on_c, 9, 59, 74
1, 33092, Note_on_c, 9, 44, 0
1, 33092, Note_on_c, 9, 69, 0
1, 33093, Note_on_c, 9, 59, 0
1, 33103, Note_on_c, 1, 29, 0
1, 33118, Note_on_c, 0, 53, 0
1, 33119, Note_on_c, 0, 57, 0
1, 33119, Note_on_c, 0, 53, 127
1, 33120, Note_on_c, 1, 29, 102
1, 33120, Note_on_c, 9, 38, 125
1, 33120, Note_on_c, 9, 42, 105
1, 33121, Note_on_c, 0, 57, 127
1, 33122, Note_on_c, 0, 60, 0
1, 33122, Note_on_c, 0, 60, 127
1, 33124, Note_on_c, 9, 38, 0
1, 33124, Note_on_c, 9, 42, 0
1, 33146, Note_on_c, 0, 65, 0
1, 33149, Lyric_t, "a "
1, 33150, Note_on_c, 0, 60, 0
1, 33154, Note_on_c, 0, 57, 0
1, 33158, Note_on_c, 1, 29, 0
1, 33166, Note_on_c, 0, 53, 0
1, 33178, Note_on_c, 2, 60, 0
1, 33178, Note_on_c, 0, 64, 127
1, 33179, Note_on_c, 2, 53, 0
1, 33180, Note_on_c, 0, 60, 127
1, 33181, Note_on_c, 2, 57, 0
1, 33183, Note_on_c, 0, 55, 127
1, 33184, Note_on_c, 0, 52, 127
1, 33184, Note_on_c, 1, 29, 96
1, 33184, Note_on_c, 9, 44, 115
1, 33184, Note_on_c, 9, 69, 75
1, 33188, Note_on_c, 9, 69, 0
1, 33188, Note_on_c, 9, 44, 0
1, 33188, Note_on_c, 4, 65, 0
1, 33188, Note_on_c, 4, 57, 0
1, 33195, Note_on_c, 4, 60, 0
1, 33197, Lyric_t, "little "
1, 33202, Note_on_c, 1, 29, 0
1, 33215, Note_on_c, 4, 64, 54
1, 33215, Note_on_c, 4, 60, 53
1, 33216, Note_on_c, 1, 28, 107
1, 33216, Note_on_c, 2, 64, 71
1, 33216, Note_on_c, 2, 60, 72
1, 33216, Note_on_c, 2, 55, 71
1, 33216, Note_on_c, 4, 55, 59
1, 33216, Note_on_c, 9, 42, 115
1, 33216, Note_on_c, 9, 35, 125
1, 33220, Note_on_c, 9, 35, 0
1, 33220, Note_on_c, 9, 42, 0
1, 33230, Note_on_c, 2, 60, 0
1, 33231, Note_on_c, 2, 55, 0
1, 33231, Note_on_c, 2, 64, 0
1, 33248, Note_on_c, 9, 69, 75
1, 33252, Note_on_c, 9, 69, 0
1, 33252, Note_on_c, 1, 28, 0
1, 33263, Lyric_t, "everyday "
1, 33263, Lyric_t, "\015"
1, 33275, Note_on_c, 0, 64, 0
1, 33275, Note_on_c, 0, 64, 127
1, 33278, Note_on_c, 2, 64, 73
1, 33278, Note_on_c, 2, 60, 73
1, 33278, Note_on_c, 2, 55, 71
1, 33279, Note_on_c, 1, 28, 103
1, 33280, Note_on_c, 9, 69, 75
1, 33280, Note_on_c, 9, 44, 125
1, 33284, Note_on_c, 9, 44, 0
1, 33284, Note_on_c, 9, 69, 0
1, 33296, Note_on_c, 1, 28, 0
1, 33308, Note_on_c, 0, 52, 0
1, 33309, Note_on_c, 0, 52, 127
1, 33311, Note_on_c, 1, 28, 108
1, 33312, Note_on_c, 9, 38, 125
1, 33312, Note_on_c, 9, 42, 115
1, 33316, Note_on_c, 9, 42, 0
1, 33316, Note_on_c, 9, 38, 0
1, 33330, Lyric_t, "just "
1, 33334, Note_on_c, 0, 52, 0
1, 33337, Note_on_c, 0, 60, 0
1, 33344, Note_on_c, 9, 69, 75
1, 33346, Note_on_c, 2, 64, 0
1, 33348, Note_on_c, 9, 69, 0
1, 33351, Note_on_c, 2, 55, 0
1, 33352, Note_on_c, 1, 28, 0
1, 33354, Note_on_c, 2, 60, 0
1, 33359, Note_on_c, 0, 55, 0
1, 33359, Note_on_c, 0, 64, 0
1, 33368, Note_on_c, 0, 65, 127
1, 33369, Note_on_c, 4, 55, 0
1, 33371, Note_on_c, 0, 60, 127
1, 33372, Note_on_c, 0, 57, 127
1, 33373, Note_on_c, 0, 53, 127
1, 33374, Note_on_c, 4, 64, 0
1, 33376, Note_on_c, 9, 69, 75
1, 33376, Note_on_c, 9, 46, 105
1, 33377, Note_on_c, 1, 29, 98
1, 33378, Note_on_c, 2, 57, 74
1, 33378, Note_on_c, 2, 65, 72
1, 33378, Note_on_c, 2, 60, 73
1, 33378, Note_on_c, 4, 57, 46
1, 33378, Note_on_c, 4, 65, 47
1, 33380, Note_on_c, 9, 46, 0
1, 33380, Note_on_c, 9, 69, 0
1, 33394, Note_on_c, 1, 29, 0
1, 33394, Lyric_t, "to "
1, 33401, Note_on_c, 2, 65, 0
1, 33403, Note_on_c, 2, 60, 0
1, 33404, Note_on_c, 2, 57, 0
1, 33408, Note_on_c, 0, 65, 0
1, 33408, Note_on_c, 9, 35, 125
1, 33408, Note_on_c, 9, 42, 115
1, 33409, Note_on_c, 0, 60, 0
1, 33409, Note_on_c, 1, 29, 105
1, 33411, Note_on_c, 9, 59, 60
1, 33412, Note_on_c, 9, 42, 0
1, 33412, Note_on_c, 9, 35, 0
1, 33413, Note_on_c, 0, 57, 0
1, 33415, Note_on_c, 9, 59, 0
1, 33416, Note_on_c, 0, 53, 0
1, 33425, Note_on_c, 4, 65, 0
1, 33430, Note_on_c, 4, 57, 0
1, 33438, Lyric_t, "try "
1, 33440, Note_on_c, 9, 69, 75
1, 33443, Note_on_c, 1, 29, 0
1, 33444, Note_on_c, 9, 69, 0
1, 33448, Note_on_c, 4, 60, 0
1, 33465, Note_on_c, 0, 64, 127
1, 33467, Note_on_c, 0, 60, 127
1, 33469, Note_on_c, 0, 55, 127
1, 33471, Note_on_c, 2, 55, 74
1, 33471, Note_on_c, 2, 60, 73
1, 33471, Note_on_c, 2, 64, 73
1, 33472, Note_on_c, 0, 52, 127
1, 33472, Note_on_c, 1, 28, 103
1, 33472, Note_on_c, 4, 64, 51
1, 33472, Note_on_c, 4, 60, 49
1, 33472, Note_on_c, 9, 44, 125
1, 33472, Note_on_c, 9, 46, 115
1, 33472, Note_on_c, 9, 69, 75
1, 33473, Note_on_c, 4, 55, 51
1, 33476, Note_on_c, 9, 69, 0
1, 33476, Note_on_c, 9, 46, 0
1, 33476, Note_on_c, 9, 44, 0
1, 33486, Lyric_t, "to "
1, 33488, Note_on_c, 1, 28, 0
1, 33498, Note_on_c, 2, 64, 0
1, 33501, Note_on_c, 0, 52, 0
1, 33501, Note_on_c, 0, 60, 0
1, 33504, Note_on_c, 2, 60, 0
1, 33504, Note_on_c, 2, 55, 0
1, 33504, Note_on_c, 9, 38, 125
1, 33504, Note_on_c, 9, 42, 105
1, 33506, Note_on_c, 0, 55, 0
1, 33508, Note_on_c, 9, 38, 0
1, 33508, Note_on_c, 0, 64, 0
1, 33508, Note_on_c, 9, 42, 0
1, 33521, Note_on_c, 4, 64, 0
1, 33522, Note_on_c, 4, 60, 0
1, 33526, Note_on_c, 4, 55, 0
1, 33564, Note_on_c, 0, 67, 127
1, 33565, Note_on_c, 0, 62, 127
1, 33565, Lyric_t, "stay "
1, 33567, Note_on_c, 2, 55, 76
1, 33567, Note_on_c, 2, 62, 75
1, 33567, Note_on_c, 2, 59, 77
1, 33567, Note_on_c, 4, 55, 53
1, 33568, Note_on_c, 0, 55, 127
1, 33568, Note_on_c, 4, 62, 55
1, 33568, Note_on_c, 4, 59, 57
1, 33568, Note_on_c, 9, 46, 115
1, 33568, Note_on_c, 9, 44, 115
1, 33568, Note_on_c, 9, 69, 75
1, 33569, Note_on_c, 0, 59, 127
1, 33569, Note_on_c, 1, 31, 91
1, 33569, Note_on_c, 9, 51, 84
1, 33572, Note_on_c, 9, 69, 0
1, 33572, Note_on_c, 9, 46, 0
1, 33572, Note_on_c, 9, 44, 0
1, 33573, Note_on_c, 9, 51, 0
1, 33600, Note_on_c, 9, 42, 115
1, 33600, Note_on_c, 9, 35, 125
1, 33601, Note_on_c, 9, 59, 89
1, 33602, Note_on_c, 0, 50, 121
1, 33604, Note_on_c, 9, 35, 0
1, 33604, Note_on_c, 9, 42, 0
1, 33605, Note_on_c, 9, 59, 0
1, 33622, Note_on_c, 1, 31, 0
1, 33625, Lyric_t, "awake "
1, 33625, Lyric_t, "\015"
1, 33626, Note_on_c, 2, 55, 0
1, 33632, Note_on_c, 9, 69, 75
1, 33634, Note_on_c, 9, 51, 78
1, 33636, Note_on_c, 9, 69, 0
1, 33638, Note_on_c, 9, 51, 0
1, 33652, Note_on_c, 0, 50, 0
1, 33654, Note_on_c, 0, 55, 0
1, 33664, Note_on_c, 1, 31, 103
1, 33664, Note_on_c, 9, 44, 125
1, 33665, Note_on_c, 2, 55, 61
1, 33667, Note_on_c, 9, 59, 77
1, 33668, Note_on_c, 9, 44, 0
1, 33670, Note_on_c, 2, 62, 0
1, 33670, Note_on_c, 0, 59, 0
1, 33671, Note_on_c, 9, 59, 0
1, 33672, Note_on_c, 4, 62, 0
1, 33673, Note_on_c, 4, 59, 0
1, 33675, Note_on_c, 4, 55, 0
1, 33675, Note_on_c, 2, 59, 0
1, 33680, Note_on_c, 1, 31, 0
1, 33685, Note_on_c, 0, 62, 0
1, 33693, Note_on_c, 0, 67, 0
1, 33693, Note_on_c, 0, 55, 127
1, 33695, Note_on_c, 0, 64, 127
1, 33696, Note_on_c, 0, 67, 127
1, 33696, Note_on_c, 2, 64, 77
1, 33696, Note_on_c, 2, 60, 75
1, 33696, Note_on_c, 4, 60, 54
1, 33696, Note_on_c, 4, 55, 47
1, 33696, Note_on_c, 4, 64, 46
1, 33696, Note_on_c, 6, 67, 103
1, 33696, Note_on_c, 6, 72, 101
1, 33696, Note_on_c, 9, 38, 125
1, 33696, Note_on_c, 9, 42, 115
1, 33697, Note_on_c, 0, 60, 127
1, 33697, Note_on_c, 1, 31, 105
1, 33700, Note_on_c, 9, 42, 0
1, 33700, Note_on_c, 9, 38, 0
1, 33718, Note_on_c, 2, 55, 0
1, 33720, Note_on_c, 4, 64, 0
1, 33721, Note_on_c, 2, 64, 0
1, 33722, Note_on_c, 4, 60, 0
1, 33722, Note_on_c, 2, 60, 0
1, 33723, Note_on_c, 4, 55, 0
1, 33727, Note_on_c, 0, 64, 0
1, 33731, Note_on_c, 0, 67, 0
1, 33733, Note_on_c, 0, 60, 0
1, 33734, Note_on_c, 6, 72, 0
1, 33739, Note_on_c, 0, 55, 0
1, 33740, Note_on_c, 6, 67, 0
1, 33741, Note_on_c, 1, 31, 0
1, 33757, Note_on_c, 6, 67, 99
1, 33758, Note_on_c, 6, 71, 103
1, 33759, Note_on_c, 0, 67, 127
1, 33759, Note_on_c, 2, 59, 77
1, 33760, Note_on_c, 0, 62, 127
1, 33760, Note_on_c, 2, 55, 76
1, 33760, Note_on_c, 2, 62, 77
1, 33760, Note_on_c, 4, 55, 54
1, 33760, Note_on_c, 4, 59, 57
1, 33760, Note_on_c, 4, 62, 55
1, 33760, Note_on_c, 9, 46, 105
1, 33760, Note_on_c, 9, 69, 75
1, 33761, Note_on_c, 1, 31, 97
1, 33763, Note_on_c, 0, 55, 127
1, 33764, Note_on_c, 9, 69, 0
1, 33764, Note_on_c, 9, 46, 0
1, 33765, Note_on_c, 0, 50, 127
1, 33766, Note_on_c, 0, 59, 127
1, 33785, Note_on_c, 2, 59, 0
1, 33786, Note_on_c, 2, 62, 0
1, 33786, Note_on_c, 2, 55, 0
1, 33791, Note_on_c, 1, 31, 0
1, 33792, Note_on_c, 1, 31, 107
1, 33792, Note_on_c, 9, 35, 125
1, 33792, Note_on_c, 9, 59, 73
1, 33792, Note_on_c, 9, 42, 115
1, 33794, Note_on_c, 0, 67, 0
1, 33795, Note_on_c, 0, 62, 0
1, 33796, Note_on_c, 9, 42, 0
1, 33796, Note_on_c, 9, 35, 0
1, 33796, Note_on_c, 9, 59, 0
1, 33798, Note_on_c, 0, 55, 0
1, 33800, Note_on_c, 6, 67, 0
1, 33800, Note_on_c, 6, 71, 0
1, 33800, Note_on_c, 0, 50, 0
1, 33801, Note_on_c, 0, 59, 0
1, 33813, Lyric_t, "When "
1, 33824, Note_on_c, 9, 69, 75
1, 33828, Note_on_c, 9, 69, 0
1, 33832, Note_on_c, 1, 31, 0
1, 33855, Note_on_c, 2, 59, 71
1, 33855, Note_on_c, 2, 55, 69
1, 33855, Note_on_c, 2, 62, 72
1, 33856, Note_on_c, 0, 67, 127
1, 33856, Note_on_c, 1, 31, 102
1, 33856, Note_on_c, 9, 69, 75
1, 33856, Note_on_c, 9, 44, 125
1, 33859, Note_on_c, 0, 62, 127
1, 33860, Note_on_c, 9, 44, 0
1, 33860, Note_on_c, 9, 69, 0
1, 33861, Note_on_c, 0, 59, 127
1, 33874, Note_on_c, 1, 31, 0
1, 33886, Note_on_c, 0, 50, 127
1, 33888, Note_on_c, 0, 55, 127
1, 33888, Note_on_c, 1, 31, 105
1, 33888, Note_on_c, 9, 42, 105
1, 33888, Note_on_c, 9, 59, 89
1, 33888, Note_on_c, 9, 38, 125
1, 33889, Note_on_c, 0, 59, 0
1, 33889, Lyric_t, "you "
1, 33890, Note_on_c, 0, 59, 127
1, 33892, Note_on_c, 9, 42, 0
1, 33892, Note_on_c, 9, 38, 0
1, 33892, Note_on_c, 9, 59, 0
1, 33924, Note_on_c, 1, 31, 0
1, 33944, Note_on_c, 0, 67, 0
1, 33947, Note_on_c, 0, 62, 0
1, 33947, Note_on_c, 0, 67, 127
1, 33948, Note_on_c, 0, 62, 127
1, 33952, Note_on_c, 1, 31, 92
1, 33952, Note_on_c, 9, 44, 115
1, 33952, Note_on_c, 9, 69, 75
1, 33956, Note_on_c, 9, 69, 0
1, 33956, Note_on_c, 9, 44, 0
1, 33962, Note_on_c, 2, 59, 0
1, 33963, Note_on_c, 2, 62, 0
1, 33965, Lyric_t, "believe "
1, 33965, Lyric_t, "\015"
1, 33970, Note_on_c, 1, 31, 0
1, 33972, Note_on_c, 2, 55, 0
1, 33983, Note_on_c, 2, 59, 72
1, 33983, Note_on_c, 2, 55, 62
1, 33984, Note_on_c, 1, 31, 108
1, 33984, Note_on_c, 2, 62, 73
1, 33984, Note_on_c, 9, 35, 125
1, 33984, Note_on_c, 9, 42, 115
1, 33988, Note_on_c, 9, 42, 0
1, 33988, Note_on_c, 9, 35, 0
1, 34016, Note_on_c, 9, 69, 75
1, 34020, Note_on_c, 9, 69, 0
1, 34024, Note_on_c, 1, 31, 0
1, 34046, Note_on_c, 0, 67, 0
1, 34047, Note_on_c, 0, 67, 127
1, 34047, Note_on_c, 1, 31, 102
1, 34048, Note_on_c, 9, 44, 125
1, 34048, Lyric_t, "there\222s "
1, 34049, Note_on_c, 0, 62, 0
1, 34049, Note_on_c, 0, 62, 127
1, 34051, Note_on_c, 0, 59, 0
1, 34051, Note_on_c, 0, 59, 127
1, 34052, Note_on_c, 9, 44, 0
1, 34063, Note_on_c, 1, 31, 0
1, 34076, Note_on_c, 0, 55, 0
1, 34077, Note_on_c, 0, 55, 127
1, 34079, Note_on_c, 1, 31, 109
1, 34080, Note_on_c, 0, 67, 0
1, 34080, Note_on_c, 9, 42, 115
1, 34080, Note_on_c, 9, 38, 125
1, 34081, Note_on_c, 0, 67, 127
1, 34084, Note_on_c, 9, 38, 0
1, 34084, Note_on_c, 9, 42, 0
1, 34110, Note_on_c, 2, 55, 0
1, 34123, Note_on_c, 1, 31, 0
1, 34125, Note_on_c, 0, 55, 0
1, 34127, Note_on_c, 0, 50, 0
1, 34134, Note_on_c, 0, 59, 0
1, 34134, Note_on_c, 0, 67, 0
1, 34137, Note_on_c, 0, 67, 127
1, 34139, Note_on_c, 0, 62, 0
1, 34139, Note_on_c, 0, 62, 121
1, 34144, Note_on_c, 9, 46, 105
1, 34144, Note_on_c, 9, 69, 75
1, 34145, Note_on_c, 1, 31, 97
1, 34145, Note_on_c, 2, 55, 70
1, 34148, Note_on_c, 9, 69, 0
1, 34148, Note_on_c, 9, 46, 0
1, 34149, Note_on_c, 4, 62, 0
1, 34149, Lyric_t, "no "
1, 34150, Note_on_c, 2, 62, 0
1, 34152, Note_on_c, 2, 59, 0
1, 34153, Note_on_c, 4, 59, 0
1, 34161, Note_on_c, 1, 31, 0
1, 34171, Note_on_c, 0, 55, 127
1, 34173, Note_on_c, 0, 67, 0
1, 34173, Note_on_c, 0, 60, 127
1, 34174, Note_on_c, 0, 67, 127
1, 34175, Note_on_c, 4, 60, 54
1, 34176, Note_on_c, 2, 60, 75
1, 34176, Note_on_c, 4, 64, 58
1, 34176, Note_on_c, 9, 35, 125
1, 34176, Note_on_c, 9, 42, 115
1, 34177, Note_on_c, 1, 31, 101
1, 34177, Note_on_c, 2, 64, 74
1, 34178, Note_on_c, 0, 62, 0
1, 34179, Note_on_c, 0, 64, 119
1, 34180, Note_on_c, 9, 42, 0
1, 34180, Note_on_c, 9, 35, 0
1, 34194, Note_on_c, 2, 64, 0
1, 34196, Note_on_c, 2, 60, 0
1, 34197, Note_on_c, 2, 55, 0
1, 34199, Note_on_c, 0, 67, 0
1, 34206, Lyric_t, "mountain "
1, 34208, Note_on_c, 9, 69, 75
1, 34212, Note_on_c, 9, 69, 0
1, 34219, Note_on_c, 1, 31, 0
1, 34240, Note_on_c, 2, 60, 72
1, 34240, Note_on_c, 2, 55, 72
1, 34240, Note_on_c, 2, 64, 74
1, 34240, Note_on_c, 9, 44, 125
1, 34240, Note_on_c, 9, 69, 75
1, 34241, Note_on_c, 1, 31, 101
1, 34244, Note_on_c, 9, 69, 0
1, 34244, Note_on_c, 9, 44, 0
1, 34256, Note_on_c, 1, 31, 0
1, 34265, Note_on_c, 0, 64, 0
1, 34268, Note_on_c, 0, 60, 0
1, 34270, Note_on_c, 0, 60, 127
1, 34272, Note_on_c, 0, 67, 122
1, 34272, Note_on_c, 9, 42, 105
1, 34272, Note_on_c, 9, 38, 125
1, 34273, Note_on_c, 1, 31, 107
1, 34274, Note_on_c, 0, 64, 127
1, 34276, Note_on_c, 9, 38, 0
1, 34276, Note_on_c, 9, 42, 0
1, 34277, Note_on_c, 0, 67, 0
1, 34278, Note_on_c, 0, 64, 0
1, 34297, Note_on_c, 0, 60, 0
1, 34299, Lyric_t, "you "
1, 34303, Note_on_c, 0, 55, 0
1, 34304, Note_on_c, 2, 64, 0
1, 34305, Note_on_c, 2, 60, 0
1, 34313, Note_on_c, 2, 55, 0
1, 34314, Note_on_c, 1, 31, 0
1, 34334, Note_on_c, 0, 67, 127
1, 34336, Note_on_c, 0, 62, 127
1, 34336, Note_on_c, 1, 31, 103
1, 34336, Note_on_c, 2, 62, 73
1, 34336, Note_on_c, 2, 59, 74
1, 34336, Note_on_c, 2, 55, 73
1, 34336, Note_on_c, 9, 44, 115
1, 34336, Note_on_c, 9, 69, 75
1, 34338, Note_on_c, 0, 59, 127
1, 34338, Note_on_c, 9, 51, 78
1, 34340, Note_on_c, 9, 69, 0
1, 34340, Note_on_c, 9, 44, 0
1, 34340, Note_on_c, 0, 55, 127
1, 34342, Note_on_c, 4, 64, 0
1, 34342, Note_on_c, 9, 51, 0
1, 34343, Note_on_c, 0, 50, 115
1, 34345, Note_on_c, 4, 60, 0
1, 34355, Note_on_c, 1, 31, 0
1, 34359, Lyric_t, "can "
1, 34368, Note_on_c, 1, 31, 107
1, 34368, Note_on_c, 4, 59, 40
1, 34368, Note_on_c, 4, 62, 44
1, 34368, Note_on_c, 9, 35, 125
1, 34368, Note_on_c, 9, 42, 115
1, 34370, Note_on_c, 9, 59, 95
1, 34372, Note_on_c, 9, 42, 0
1, 34372, Note_on_c, 9, 35, 0
1, 34374, Note_on_c, 9, 59, 0
1, 34397, Note_on_c, 2, 55, 0
1, 34400, Note_on_c, 9, 69, 75
1, 34404, Note_on_c, 9, 69, 0
1, 34413, Note_on_c, 1, 31, 0
1, 34432, Note_on_c, 0, 67, 0
1, 34432, Note_on_c, 1, 31, 100
1, 34432, Note_on_c, 9, 44, 125
1, 34432, Lyric_t, "climb "
1, 34432, Lyric_t, "\015"
1, 34434, Note_on_c, 2, 55, 67
1, 34436, Note_on_c, 9, 44, 0
1, 34436, Note_on_c, 0, 62, 0
1, 34436, Note_on_c, 0, 62, 127
1, 34438, Note_on_c, 0, 67, 127
1, 34443, Note_on_c, 2, 62, 0
1, 34445, Note_on_c, 2, 59, 0
1, 34446, Note_on_c, 1, 31, 0
1, 34446, Note_on_c, 2, 55, 0
1, 34464, Note_on_c, 1, 31, 101
1, 34464, Note_on_c, 9, 42, 115
1, 34464, Note_on_c, 9, 38, 125
1, 34465, Note_on_c, 2, 62, 73
1, 34465, Note_on_c, 2, 55, 71
1, 34465, Note_on_c, 2, 59, 73
1, 34465, Note_on_c, 9, 59, 86
1, 34467, Note_on_c, 0, 55, 0
1, 34467, Note_on_c, 0, 55, 127
1, 34468, Note_on_c, 9, 38, 0
1, 34468, Note_on_c, 9, 42, 0
1, 34469, Note_on_c, 0, 59, 0
1, 34469, Note_on_c, 9, 59, 0
1, 34470, Note_on_c, 0, 62, 0
1, 34470, Note_on_c, 0, 59, 127
1, 34471, Note_on_c, 0, 62, 127
1, 34472, Note_on_c, 0, 67, 0
1, 34473, Note_on_c, 0, 67, 127
1, 34477, Note_on_c, 0, 67, 0
1, 34478, Note_on_c, 0, 59, 0
1, 34478, Note_on_c, 0, 50, 0
1, 34480, Note_on_c, 0, 62, 0
1, 34483, Note_on_c, 1, 31, 0
1, 34484, Note_on_c, 2, 55, 0
1, 34485, Note_on_c, 0, 55, 0
1, 34510, Note_on_c, 4, 55, 0
1, 34517, Note_on_c, 2, 62, 0
1, 34520, Note_on_c, 4, 62, 0
1, 34521, Note_on_c, 2, 59, 0
1, 34526, Note_on_c, 4, 59, 0
1, 34526, Note_on_c, 0, 65, 127
1, 34528, Note_on_c, 0, 60, 127
1, 34528, Note_on_c, 1, 31, 96
1, 34528, Note_on_c, 9, 69, 75
1, 34528, Note_on_c, 9, 46, 105
1, 34530, Note_on_c, 0, 57, 127
1, 34530, Lyric_t, "And "
1, 34532, Note_on_c, 9, 46, 0
1, 34532, Note_on_c, 9, 69, 0
1, 34532, Note_on_c, 0, 53, 127
1, 34546, Note_on_c, 1, 31, 0
1, 34560, Note_on_c, 1, 29, 108
1, 34560, Note_on_c, 2, 65, 73
1, 34560, Note_on_c, 2, 57, 73
1, 34560, Note_on_c, 2, 60, 73
1, 34560, Note_on_c, 4, 60, 59
1, 34560, Note_on_c, 4, 57, 58
1, 34560, Note_on_c, 9, 42, 115
1, 34560, Note_on_c, 9, 35, 125
1, 34561, Note_on_c, 4, 65, 55
1, 34564, Note_on_c, 9, 35, 0
1, 34564, Note_on_c, 9, 42, 0
1, 34592, Note_on_c, 9, 69, 75
1, 34596, Note_on_c, 9, 69, 0
1, 34603, Note_on_c, 1, 29, 0
1, 34618, Note_on_c, 0, 65, 0
1, 34619, Note_on_c, 0, 65, 127
1, 34621, Note_on_c, 0, 60, 0
1, 34622, Note_on_c, 0, 60, 127
1, 34624, Note_on_c, 0, 57, 0
1, 34624, Note_on_c, 0, 57, 127
1, 34624, Note_on_c, 1, 29, 101
1, 34624, Note_on_c, 9, 69, 75
1, 34624, Note_on_c, 9, 44, 125
1, 34628, Note_on_c, 9, 44, 0
1, 34628, Note_on_c, 9, 69, 0
1, 34638, Lyric_t, "if "
1, 34639, Note_on_c, 2, 65, 0
1, 34639, Note_on_c, 1, 29, 0
1, 34640, Note_on_c, 2, 57, 0
1, 34642, Note_on_c, 2, 60, 0
1, 34650, Note_on_c, 0, 53, 0
1, 34651, Note_on_c, 0, 53, 127
1, 34653, Note_on_c, 0, 57, 0
1, 34654, Note_on_c, 0, 57, 127
1, 34655, Note_on_c, 0, 60, 0
1, 34655, Note_on_c, 2, 65, 76
1, 34655, Note_on_c, 2, 60, 72
1, 34655, Note_on_c, 2, 57, 71
1, 34656, Note_on_c, 0, 60, 127
1, 34656, Note_on_c, 1, 29, 102
1, 34656, Note_on_c, 9, 38, 125
1, 34656, Note_on_c, 9, 42, 105
1, 34658, Note_on_c, 9, 59, 59
1, 34660, Note_on_c, 9, 42, 0
1, 34660, Note_on_c, 9, 38, 0
1, 34662, Note_on_c, 9, 59, 0
1, 34680, Note_on_c, 0, 65, 0
1, 34683, Note_on_c, 0, 60, 0
1, 34685, Note_on_c, 0, 57, 0
1, 34689, Note_on_c, 2, 57, 0
1, 34694, Note_on_c, 1, 29, 0
1, 34697, Note_on_c, 0, 53, 0
1, 34713, Note_on_c, 0, 64, 127
1, 34714, Note_on_c, 4, 65, 0
1, 34715, Note_on_c, 4, 57, 0
1, 34715, Note_on_c, 0, 60, 127
1, 34717, Note_on_c, 0, 55, 127
1, 34720, Note_on_c, 0, 52, 127
1, 34720, Note_on_c, 1, 29, 96
1, 34720, Note_on_c, 9, 69, 75
1, 34720, Note_on_c, 9, 44, 115
1, 34721, Note_on_c, 2, 65, 0
1, 34724, Note_on_c, 9, 44, 0
1, 34724, Note_on_c, 4, 60, 0
1, 34724, Note_on_c, 9, 69, 0
1, 34724, Lyric_t, "you "
1, 34731, Note_on_c, 2, 60, 0
1, 34738, Note_on_c, 1, 29, 0
1, 34751, Note_on_c, 4, 55, 54
1, 34751, Note_on_c, 4, 64, 53
1, 34751, Note_on_c, 4, 60, 51
1, 34751, Note_on_c, 9, 59, 88
1, 34752, Note_on_c, 1, 28, 107
1, 34752, Note_on_c, 2, 60, 70
1, 34752, Note_on_c, 2, 64, 71
1, 34752, Note_on_c, 9, 35, 125
1, 34752, Note_on_c, 9, 42, 115
1, 34753, Note_on_c, 2, 55, 65
1, 34755, Note_on_c, 9, 59, 0
1, 34756, Note_on_c, 9, 42, 0
1, 34756, Note_on_c, 9, 35, 0
1, 34762, Lyric_t, "get "
1, 34765, Note_on_c, 2, 55, 0
1, 34768, Note_on_c, 2, 64, 0
1, 34768, Note_on_c, 2, 60, 0
1, 34784, Note_on_c, 9, 69, 75
1, 34788, Note_on_c, 9, 69, 0
1, 34788, Note_on_c, 1, 28, 0
1, 34794, Lyric_t, "it "
1, 34813, Note_on_c, 0, 64, 0
1, 34813, Note_on_c, 0, 64, 127
1, 34815, Note_on_c, 0, 60, 0
1, 34815, Note_on_c, 1, 28, 103
1, 34815, Note_on_c, 2, 60, 73
1, 34815, Note_on_c, 2, 64, 74
1, 34815, Note_on_c, 2, 55, 74
1, 34816, Note_on_c, 0, 60, 127
1, 34816, Note_on_c, 9, 44, 125
1, 34816, Note_on_c, 9, 69, 75
1, 34820, Note_on_c, 9, 69, 0
1, 34820, Note_on_c, 9, 44, 0
1, 34832, Note_on_c, 1, 28, 0
1, 34844, Note_on_c, 0, 52, 0
1, 34844, Note_on_c, 0, 52, 127
1, 34844, Lyric_t, "wrong "
1, 34844, Lyric_t, "\015"
1, 34847, Note_on_c, 1, 28, 108
1, 34848, Note_on_c, 0, 55, 0
1, 34848, Note_on_c, 0, 55, 127
1, 34848, Note_on_c, 9, 38, 125
1, 34848, Note_on_c, 9, 42, 115
1, 34849, Note_on_c, 0, 60, 0
1, 34850, Note_on_c, 0, 64, 0
1, 34850, Note_on_c, 0, 60, 127
1, 34851, Note_on_c, 0, 64, 127
1, 34852, Note_on_c, 9, 42, 0
1, 34852, Note_on_c, 9, 38, 0
1, 34869, Note_on_c, 0, 52, 0
1, 34872, Note_on_c, 0, 60, 0
1, 34880, Note_on_c, 9, 69, 75
1, 34881, Note_on_c, 4, 64, 0
1, 34881, Note_on_c, 4, 55, 0
1, 34884, Note_on_c, 9, 69, 0
1, 34888, Note_on_c, 1, 28, 0
1, 34894, Note_on_c, 0, 55, 0
1, 34897, Note_on_c, 0, 64, 0
1, 34901, Note_on_c, 2, 64, 0
1, 34903, Note_on_c, 4, 60, 0
1, 34907, Note_on_c, 0, 65, 127
1, 34909, Note_on_c, 2, 55, 0
1, 34911, Note_on_c, 0, 57, 127
1, 34912, Note_on_c, 0, 60, 127
1, 34912, Note_on_c, 4, 57, 49
1, 34912, Note_on_c, 4, 60, 45
1, 34912, Note_on_c, 4, 65, 52
1, 34912, Note_on_c, 9, 69, 75
1, 34912, Note_on_c, 9, 46, 105
1, 34913, Note_on_c, 0, 53, 127
1, 34913, Note_on_c, 1, 29, 98
1, 34914, Lyric_t, "you\222ll "
1, 34916, Note_on_c, 9, 46, 0
1, 34916, Note_on_c, 9, 69, 0
1, 34926, Note_on_c, 2, 60, 0
1, 34930, Note_on_c, 1, 29, 0
1, 34943, Note_on_c, 0, 60, 0
1, 34943, Note_on_c, 0, 65, 0
1, 34944, Note_on_c, 2, 60, 72
1, 34944, Note_on_c, 2, 57, 72
1, 34944, Note_on_c, 2, 65, 72
1, 34944, Note_on_c, 9, 42, 115
1, 34944, Note_on_c, 9, 35, 125
1, 34945, Note_on_c, 1, 29, 105
1, 34947, Note_on_c, 0, 57, 0
1, 34948, Note_on_c, 9, 35, 0
1, 34948, Note_on_c, 9, 42, 0
1, 34952, Note_on_c, 0, 53, 0
1, 34953, Note_on_c, 4, 57, 0
1, 34956, Lyric_t, "get "
1, 34957, Note_on_c, 4, 65, 0
1, 34967, Note_on_c, 4, 60, 0
1, 34968, Note_on_c, 2, 65, 0
1, 34969, Note_on_c, 2, 57, 0
1, 34973, Note_on_c, 2, 60, 0
1, 34976, Note_on_c, 9, 69, 75
1, 34979, Note_on_c, 1, 29, 0
1, 34980, Note_on_c, 9, 69, 0
1, 34988, Lyric_t, "it "
1, 35001, Note_on_c, 0, 64, 127
1, 35003, Note_on_c, 0, 60, 127
1, 35006, Note_on_c, 0, 55, 127
1, 35007, Note_on_c, 0, 52, 127
1, 35007, Note_on_c, 2, 60, 71
1, 35007, Note_on_c, 2, 64, 74
1, 35008, Note_on_c, 1, 28, 103
1, 35008, Note_on_c, 2, 55, 72
1, 35008, Note_on_c, 4, 60, 48
1, 35008, Note_on_c, 4, 64, 54
1, 35008, Note_on_c, 4, 55, 51
1, 35008, Note_on_c, 9, 69, 75
1, 35008, Note_on_c, 9, 44, 125
1, 35008, Note_on_c, 9, 46, 115
1, 35010, Note_on_c, 9, 51, 81
1, 35012, Note_on_c, 9, 46, 0
1, 35012, Note_on_c, 9, 44, 0
1, 35012, Note_on_c, 9, 69, 0
1, 35014, Note_on_c, 9, 51, 0
1, 35024, Note_on_c, 1, 28, 0
1, 35031, Note_on_c, 0, 64, 0
1, 35033, Note_on_c, 0, 52, 0
1, 35033, Note_on_c, 0, 60, 0
1, 35035, Lyric_t, "right "
1, 35040, Note_on_c, 9, 42, 105
1, 35040, Note_on_c, 9, 38, 125
1, 35042, Note_on_c, 0, 55, 0
1, 35042, Note_on_c, 0, 59, 118
1, 35043, Note_on_c, 2, 64, 0
1, 35044, Note_on_c, 9, 38, 0
1, 35044, Note_on_c, 9, 42, 0
1, 35044, Note_on_c, 2, 60, 0
1, 35044, Note_on_c, 0, 64, 115
1, 35045, Note_on_c, 2, 55, 0
1, 35046, Note_on_c, 0, 59, 0
1, 35047, Note_on_c, 0, 64, 0
1, 35057, Note_on_c, 4, 64, 0
1, 35059, Note_on_c, 4, 60, 0
1, 35059, Note_on_c, 4, 55, 0
1, 35098, Note_on_c, 0, 67, 127
1, 35100, Note_on_c, 0, 62, 127
1, 35101, Note_on_c, 0, 59, 127
1, 35102, Note_on_c, 2, 62, 76
1, 35102, Note_on_c, 2, 59, 77
1, 35102, Note_on_c, 2, 55, 76
1, 35104, Note_on_c, 0, 55, 127
1, 35104, Note_on_c, 4, 55, 53
1, 35104, Note_on_c, 4, 59, 57
1, 35104, Note_on_c, 4, 62, 53
1, 35104, Note_on_c, 9, 44, 115
1, 35104, Note_on_c, 9, 46, 115
1, 35104, Note_on_c, 9, 69, 75
1, 35105, Note_on_c, 0, 50, 127
1, 35105, Note_on_c, 1, 31, 91
1, 35105, Note_on_c, 9, 51, 79
1, 35108, Note_on_c, 9, 69, 0
1, 35108, Note_on_c, 9, 46, 0
1, 35108, Note_on_c, 9, 44, 0
1, 35109, Note_on_c, 9, 51, 0
1, 35118, Lyric_t, "next "
1, 35136, Note_on_c, 9, 35, 125
1, 35136, Note_on_c, 9, 42, 115
1, 35137, Note_on_c, 9, 59, 89
1, 35140, Note_on_c, 9, 42, 0
1, 35140, Note_on_c, 9, 35, 0
1, 35141, Note_on_c, 9, 59, 0
1, 35158, Note_on_c, 1, 31, 0
1, 35168, Note_on_c, 9, 69, 75
1, 35172, Note_on_c, 9, 69, 0
1, 35176, Note_on_c, 2, 55, 0
1, 35178, Note_on_c, 0, 50, 0
1, 35179, Note_on_c, 0, 55, 0
1, 35195, Note_on_c, 0, 59, 0
1, 35200, Note_on_c, 1, 31, 103
1, 35200, Note_on_c, 9, 44, 125
1, 35201, Note_on_c, 9, 59, 105
1, 35204, Note_on_c, 9, 44, 0
1, 35205, Note_on_c, 9, 59, 0
1, 35205, Note_on_c, 4, 62, 0
1, 35206, Note_on_c, 4, 55, 0
1, 35208, Note_on_c, 4, 59, 0
1, 35210, Lyric_t, "time "
1, 35216, Note_on_c, 1, 31, 0
1, 35216, Note_on_c, 2, 62, 0
1, 35218, Note_on_c, 2, 59, 0
1, 35220, Note_on_c, 0, 62, 0
1, 35229, Note_on_c, 0, 67, 0
1, 35231, Note_on_c, 0, 55, 127
1, 35232, Note_on_c, 4, 55, 55
1, 35232, Note_on_c, 6, 72, 106
1, 35232, Note_on_c, 6, 67, 108
1, 35232, Note_on_c, 9, 38, 125
1, 35232, Note_on_c, 9, 42, 115
1, 35233, Note_on_c, 1, 31, 105
1, 35233, Note_on_c, 2, 64, 69
1, 35233, Note_on_c, 2, 60, 69
1, 35233, Note_on_c, 2, 55, 68
1, 35233, Note_on_c, 4, 62, 48
1, 35233, Note_on_c, 4, 64, 50
1, 35233, Note_on_c, 4, 60, 54
1, 35235, Note_on_c, 0, 64, 127
1, 35236, Note_on_c, 9, 42, 0
1, 35236, Note_on_c, 9, 38, 0
1, 35236, Note_on_c, 0, 60, 127
1, 35246, Note_on_c, 2, 55, 0
1, 35246, Note_on_c, 2, 64, 0
1, 35246, Note_on_c, 2, 60, 0
1, 35257, Note_on_c, 0, 64, 0
1, 35265, Note_on_c, 4, 62, 0
1, 35268, Note_on_c, 0, 60, 0
1, 35270, Note_on_c, 6, 72, 0
1, 35271, Note_on_c, 4, 64, 0
1, 35272, Note_on_c, 4, 55, 0
1, 35276, Note_on_c, 6, 67, 0
1, 35276, Note_on_c, 4, 60, 0
1, 35277, Note_on_c, 1, 31, 0
1, 35293, Note_on_c, 0, 67, 127
1, 35293, Note_on_c, 6, 67, 104
1, 35294, Note_on_c, 6, 71, 108
1, 35295, Note_on_c, 0, 62, 127
1, 35295, Note_on_c, 2, 62, 75
1, 35295, Note_on_c, 2, 59, 77
1, 35296, Note_on_c, 0, 55, 0
1, 35296, Note_on_c, 2, 55, 76
1, 35296, Note_on_c, 4, 55, 61
1, 35296, Note_on_c, 9, 46, 105
1, 35296, Note_on_c, 9, 69, 75
1, 35297, Note_on_c, 0, 59, 127
1, 35297, Note_on_c, 1, 31, 97
1, 35297, Note_on_c, 9, 51, 87
1, 35298, Note_on_c, 0, 55, 127
1, 35300, Note_on_c, 9, 69, 0
1, 35300, Note_on_c, 9, 46, 0
1, 35300, Note_on_c, 0, 50, 127
1, 35301, Note_on_c, 9, 51, 0
1, 35318, Note_on_c, 6, 67, 0
1, 35319, Note_on_c, 6, 71, 0
1, 35326, Note_on_c, 4, 55, 0
1, 35326, Note_on_c, 0, 59, 0
1, 35327, Note_on_c, 0, 62, 0
1, 35327, Note_on_c, 1, 31, 0
1, 35328, Note_on_c, 2, 55, 0
1, 35328, Note_on_c, 0, 67, 0
1, 35328, Note_on_c, 0, 50, 0
1, 35328, Note_on_c, 1, 31, 113
1, 35328, Note_on_c, 2, 53, 74
1, 35328, Note_on_c, 4, 55, 59
1, 35328, Note_on_c, 6, 62, 55
1, 35328, Note_on_c, 9, 42, 115
1, 35328, Note_on_c, 9, 35, 125
1, 35330, Note_on_c, 2, 62, 0
1, 35331, Note_on_c, 2, 59, 0
1, 35332, Note_on_c, 9, 42, 0
1, 35332, Note_on_c, 9, 35, 0
1, 35335, Note_on_c, 2, 53, 0
1, 35335, Note_on_c, 0, 55, 0
1, 35349, Lyric_t, "(next "
1, 35360, Note_on_c, 9, 69, 75
1, 35364, Note_on_c, 9, 69, 0
1, 35364, Note_on_c, 1, 31, 0
1, 35391, Note_on_c, 2, 53, 85
1, 35392, Note_on_c, 1, 31, 111
1, 35392, Note_on_c, 2, 62, 77
1, 35392, Note_on_c, 2, 58, 79
1, 35392, Note_on_c, 2, 50, 80
1, 35392, Note_on_c, 3, 53, 72
1, 35392, Note_on_c, 9, 44, 125
1, 35392, Note_on_c, 9, 69, 75
1, 35396, Note_on_c, 9, 69, 0
1, 35396, Note_on_c, 9, 44, 0
1, 35410, Lyric_t, "time). "
1, 35410, Lyric_t, "\015"
1, 35410, Lyric_t, "\012"
1, 35415, Note_on_c, 1, 31, 0
1, 35424, Note_on_c, 9, 42, 105
1, 35424, Note_on_c, 9, 38, 125
1, 35428, Note_on_c, 9, 38, 0
1, 35428, Note_on_c, 9, 42, 0
1, 35439, Note_on_c, 1, 31, 109
1, 35468, Note_on_c, 1, 31, 0
1, 35488, Note_on_c, 9, 44, 115
1, 35488, Note_on_c, 9, 69, 75
1, 35489, Note_on_c, 1, 31, 100
1, 35492, Note_on_c, 9, 69, 0
1, 35492, Note_on_c, 9, 44, 0
1, 35502, Note_on_c, 1, 31, 0
1, 35512, Note_on_c, 2, 58, 0
1, 35515, Note_on_c, 2, 62, 0
1, 35517, Note_on_c, 3, 53, 0
1, 35520, Note_on_c, 2, 53, 0
1, 35520, Note_on_c, 6, 62, 0
1, 35520, Note_on_c, 2, 61, 73
1, 35520, Note_on_c, 3, 52, 63
1, 35520, Note_on_c, 6, 61, 59
1, 35520, Note_on_c, 9, 42, 115
1, 35520, Note_on_c, 9, 35, 125
1, 35521, Note_on_c, 2, 50, 0
1, 35521, Note_on_c, 1, 31, 111
1, 35521, Note_on_c, 2, 57, 73
1, 35521, Note_on_c, 2, 49, 78
1, 35522, Note_on_c, 2, 52, 77
1, 35524, Note_on_c, 9, 42, 0
1, 35524, Note_on_c, 9, 35, 0
1, 35537, Note_on_c, 2, 49, 0
1, 35541, Note_on_c, 2, 61, 0
1, 35542, Note_on_c, 2, 57, 0
1, 35546, Note_on_c, 2, 52, 0
1, 35552, Note_on_c, 9, 69, 75
1, 35556, Note_on_c, 9, 69, 0
1, 35560, Note_on_c, 1, 31, 0
1, 35582, Note_on_c, 2, 49, 78
1, 35583, Note_on_c, 2, 57, 76
1, 35583, Note_on_c, 2, 61, 77
1, 35584, Note_on_c, 1, 31, 89
1, 35584, Note_on_c, 2, 52, 78
1, 35584, Note_on_c, 9, 44, 125
1, 35588, Note_on_c, 9, 44, 0
1, 35598, Note_on_c, 1, 31, 0
1, 35616, Note_on_c, 1, 31, 100
1, 35616, Note_on_c, 9, 38, 125
1, 35616, Note_on_c, 9, 42, 115
1, 35620, Note_on_c, 9, 42, 0
1, 35620, Note_on_c, 9, 38, 0
1, 35643, Note_on_c, 1, 31, 0
1, 35680, Note_on_c, 1, 31, 104
1, 35680, Note_on_c, 9, 69, 75
1, 35680, Note_on_c, 9, 44, 115
1, 35684, Note_on_c, 9, 44, 0
1, 35684, Note_on_c, 9, 69, 0
1, 35698, Note_on_c, 2, 57, 0
1, 35698, Note_on_c, 1, 31, 0
1, 35700, Note_on_c, 3, 52, 0
1, 35700, Note_on_c, 2, 61, 0
1, 35710, Note_on_c, 2, 52, 0
1, 35712, Note_on_c, 6, 61, 0
1, 35712, Note_on_c, 1, 31, 109
1, 35712, Note_on_c, 3, 53, 72
1, 35712, Note_on_c, 6, 60, 50
1, 35712, Note_on_c, 9, 35, 125
1, 35712, Note_on_c, 9, 42, 115
1, 35713, Note_on_c, 2, 60, 72
1, 35713, Note_on_c, 2, 53, 79
1, 35713, Note_on_c, 2, 48, 78
1, 35713, Note_on_c, 2, 57, 73
1, 35716, Note_on_c, 9, 42, 0
1, 35716, Note_on_c, 9, 35, 0
1, 35720, Note_on_c, 2, 49, 0
1, 35736, Note_on_c, 2, 53, 0
1, 35736, Note_on_c, 2, 60, 0
1, 35737, Note_on_c, 2, 57, 0
1, 35738, Note_on_c, 2, 48, 0
1, 35744, Note_on_c, 9, 69, 75
1, 35748, Note_on_c, 9, 69, 0
1, 35749, Note_on_c, 1, 31, 0
1, 35776, Note_on_c, 1, 31, 94
1, 35776, Note_on_c, 2, 57, 74
1, 35776, Note_on_c, 2, 48, 78
1, 35776, Note_on_c, 2, 60, 73
1, 35776, Note_on_c, 2, 53, 78
1, 35776, Note_on_c, 9, 69, 75
1, 35776, Note_on_c, 9, 44, 125
1, 35780, Note_on_c, 9, 44, 0
1, 35780, Note_on_c, 9, 69, 0
1, 35791, Note_on_c, 1, 31, 0
1, 35808, Note_on_c, 1, 31, 107
1, 35808, Note_on_c, 9, 38, 125
1, 35808, Note_on_c, 9, 42, 105
1, 35812, Note_on_c, 9, 42, 0
1, 35812, Note_on_c, 9, 38, 0
1, 35847, Note_on_c, 1, 31, 0
1, 35850, Note_on_c, 2, 53, 0
1, 35852, Note_on_c, 2, 60, 0
1, 35854, Note_on_c, 2, 57, 0
1, 35866, Note_on_c, 3, 53, 0
1, 35868, Note_on_c, 2, 48, 0
1, 35871, Note_on_c, 6, 60, 0
1, 35871, Note_on_c, 2, 55, 80
1, 35871, Note_on_c, 3, 50, 59
1, 35871, Note_on_c, 6, 59, 58
1, 35872, Note_on_c, 1, 31, 100
1, 35872, Note_on_c, 2, 50, 78
1, 35872, Note_on_c, 9, 69, 75
1, 35872, Note_on_c, 9, 44, 115
1, 35873, Note_on_c, 2, 59, 74
1, 35876, Note_on_c, 9, 44, 0
1, 35876, Note_on_c, 9, 69, 0
1, 35888, Note_on_c, 1, 31, 0
1, 35904, Note_on_c, 1, 31, 103
1, 35904, Note_on_c, 9, 35, 125
1, 35904, Note_on_c, 9, 42, 115
1, 35908, Note_on_c, 9, 42, 0
1, 35908, Note_on_c, 9, 35, 0
1, 35936, Note_on_c, 9, 69, 75
1, 35940, Note_on_c, 9, 69, 0
1, 35940, Note_on_c, 1, 31, 0
1, 35968, Note_on_c, 1, 31, 96
1, 35968, Note_on_c, 9, 44, 125
1, 35968, Note_on_c, 9, 69, 75
1, 35969, Note_on_c, 9, 51, 80
1, 35972, Note_on_c, 9, 69, 0
1, 35972, Note_on_c, 9, 44, 0
1, 35973, Note_on_c, 9, 51, 0
1, 35986, Note_on_c, 1, 31, 0
1, 35997, Note_on_c, 3, 50, 0
1, 36000, Note_on_c, 1, 31, 105
1, 36000, Note_on_c, 9, 38, 125
1, 36000, Note_on_c, 9, 42, 115
1, 36001, Note_on_c, 3, 53, 79
1, 36001, Note_on_c, 9, 59, 94
1, 36004, Note_on_c, 9, 42, 0
1, 36004, Note_on_c, 9, 38, 0
1, 36005, Note_on_c, 9, 59, 0
1, 36032, Note_on_c, 9, 69, 75
1, 36033, Note_on_c, 9, 51, 92
1, 36036, Note_on_c, 9, 69, 0
1, 36037, Note_on_c, 9, 51, 0
1, 36037, Note_on_c, 1, 31, 0
1, 36063, Note_on_c, 1, 31, 103
1, 36064, Note_on_c, 3, 53, 0
1, 36064, Note_on_c, 3, 55, 72
1, 36064, Note_on_c, 9, 69, 75
1, 36064, Note_on_c, 9, 44, 115
1, 36065, Note_on_c, 9, 59, 89
1, 36066, Note_on_c, 2, 50, 0
1, 36068, Note_on_c, 9, 44, 0
1, 36068, Note_on_c, 9, 69, 0
1, 36069, Note_on_c, 9, 59, 0
1, 36070, Note_on_c, 2, 55, 0
1, 36081, Note_on_c, 2, 59, 0
1, 36083, Note_on_c, 1, 31, 0
1, 36090, Note_on_c, 6, 59, 0
1, 36095, Note_on_c, 1, 31, 106
1, 36096, Note_on_c, 2, 53, 74
1, 36096, Note_on_c, 6, 62, 55
1, 36096, Note_on_c, 9, 35, 125
1, 36096, Note_on_c, 9, 42, 115
1, 36098, Note_on_c, 9, 51, 92
1, 36100, Note_on_c, 9, 42, 0
1, 36100, Note_on_c, 9, 35, 0
1, 36100, Note_on_c, 3, 55, 0
1, 36102, Note_on_c, 9, 51, 0
1, 36103, Note_on_c, 2, 53, 0
1, 36118, Lyric_t, "Next "
1, 36128, Note_on_c, 9, 69, 75
1, 36131, Note_on_c, 1, 31, 0
1, 36132, Note_on_c, 9, 69, 0
1, 36159, Note_on_c, 2, 53, 85
1, 36160, Note_on_c, 1, 31, 97
1, 36160, Note_on_c, 2, 50, 80
1, 36160, Note_on_c, 2, 58, 79
1, 36160, Note_on_c, 2, 62, 77
1, 36160, Note_on_c, 3, 53, 87
1, 36160, Note_on_c, 9, 69, 75
1, 36160, Note_on_c, 9, 44, 125
1, 36162, Note_on_c, 9, 51, 92
1, 36164, Note_on_c, 9, 44, 0
1, 36164, Note_on_c, 9, 69, 0
1, 36166, Note_on_c, 9, 51, 0
1, 36175, Lyric_t, "time, "
1, 36176, Note_on_c, 1, 31, 0
1, 36191, Note_on_c, 1, 31, 102
1, 36192, Note_on_c, 9, 38, 125
1, 36192, Note_on_c, 9, 42, 105
1, 36196, Note_on_c, 9, 42, 0
1, 36196, Note_on_c, 9, 38, 0
1, 36234, Note_on_c, 1, 31, 0
1, 36256, Note_on_c, 1, 31, 97
1, 36256, Note_on_c, 9, 69, 75
1, 36256, Note_on_c, 9, 44, 115
1, 36260, Note_on_c, 9, 44, 0
1, 36260, Note_on_c, 9, 69, 0
1, 36275, Note_on_c, 1, 31, 0
1, 36280, Note_on_c, 2, 58, 0
1, 36280, Lyric_t, "hmmmmm "
1, 36283, Note_on_c, 2, 62, 0
1, 36287, Note_on_c, 3, 53, 0
1, 36288, Note_on_c, 2, 53, 0
1, 36288, Note_on_c, 6, 62, 0
1, 36288, Note_on_c, 2, 61, 73
1, 36288, Note_on_c, 6, 61, 59
1, 36288, Note_on_c, 9, 35, 125
1, 36288, Note_on_c, 9, 42, 115
1, 36289, Note_on_c, 2, 50, 0
1, 36289, Note_on_c, 1, 31, 106
1, 36289, Note_on_c, 2, 49, 78
1, 36289, Note_on_c, 2, 57, 73
1, 36289, Note_on_c, 3, 52, 62
1, 36290, Note_on_c, 2, 52, 77
1, 36292, Note_on_c, 9, 35, 0
1, 36292, Note_on_c, 9, 42, 0
1, 36305, Note_on_c, 2, 49, 0
1, 36309, Note_on_c, 2, 61, 0
1, 36310, Note_on_c, 2, 57, 0
1, 36314, Note_on_c, 2, 52, 0
1, 36318, Note_on_c, 1, 31, 0
1, 36320, Note_on_c, 9, 69, 75
1, 36324, Note_on_c, 9, 69, 0
1, 36350, Note_on_c, 2, 49, 78
1, 36351, Note_on_c, 2, 61, 77
1, 36351, Note_on_c, 2, 57, 76
1, 36352, Note_on_c, 1, 31, 99
1, 36352, Note_on_c, 2, 52, 78
1, 36352, Note_on_c, 9, 44, 125
1, 36356, Note_on_c, 9, 44, 0
1, 36370, Note_on_c, 1, 31, 0
1, 36384, Note_on_c, 1, 31, 106
1, 36384, Note_on_c, 9, 42, 115
1, 36384, Note_on_c, 9, 38, 125
1, 36388, Note_on_c, 9, 38, 0
1, 36388, Note_on_c, 9, 42, 0
1, 36420, Note_on_c, 1, 31, 0
1, 36448, Note_on_c, 1, 31, 100
1, 36448, Note_on_c, 9, 69, 75
1, 36448, Note_on_c, 9, 44, 115
1, 36452, Note_on_c, 9, 44, 0
1, 36452, Note_on_c, 9, 69, 0
1, 36466, Note_on_c, 2, 57, 0
1, 36468, Note_on_c, 3, 52, 0
1, 36468, Note_on_c, 1, 31, 0
1, 36468, Note_on_c, 2, 61, 0
1, 36478, Note_on_c, 2, 52, 0
1, 36480, Note_on_c, 6, 61, 0
1, 36480, Note_on_c, 1, 31, 103
1, 36480, Note_on_c, 3, 53, 63
1, 36480, Note_on_c, 6, 60, 50
1, 36480, Note_on_c, 9, 35, 125
1, 36480, Note_on_c, 9, 42, 115
1, 36481, Note_on_c, 2, 48, 78
1, 36481, Note_on_c, 2, 53, 79
1, 36481, Note_on_c, 2, 60, 72
1, 36481, Note_on_c, 2, 57, 73
1, 36484, Note_on_c, 9, 42, 0
1, 36484, Note_on_c, 9, 35, 0
1, 36488, Note_on_c, 2, 49, 0
1, 36504, Note_on_c, 2, 60, 0
1, 36504, Note_on_c, 2, 53, 0
1, 36505, Note_on_c, 2, 57, 0
1, 36506, Note_on_c, 2, 48, 0
1, 36512, Note_on_c, 9, 69, 75
1, 36516, Note_on_c, 9, 69, 0
1, 36525, Note_on_c, 1, 31, 0
1, 36543, Note_on_c, 1, 31, 94
1, 36544, Note_on_c, 2, 53, 78
1, 36544, Note_on_c, 2, 48, 78
1, 36544, Note_on_c, 2, 60, 73
1, 36544, Note_on_c, 2, 57, 74
1, 36544, Note_on_c, 9, 44, 125
1, 36544, Note_on_c, 9, 69, 75
1, 36548, Note_on_c, 9, 69, 0
1, 36548, Note_on_c, 9, 44, 0
1, 36560, Note_on_c, 1, 31, 0
1, 36575, Note_on_c, 1, 31, 101
1, 36576, Note_on_c, 9, 42, 105
1, 36576, Note_on_c, 9, 38, 125
1, 36580, Note_on_c, 9, 38, 0
1, 36580, Note_on_c, 9, 42, 0
1, 36618, Note_on_c, 2, 53, 0
1, 36620, Note_on_c, 2, 60, 0
1, 36622, Note_on_c, 2, 57, 0
1, 36626, Note_on_c, 1, 31, 0
1, 36632, Note_on_c, 3, 53, 0
1, 36636, Note_on_c, 2, 48, 0
1, 36639, Note_on_c, 6, 60, 0
1, 36639, Note_on_c, 2, 55, 80
1, 36639, Note_on_c, 6, 59, 58
1, 36640, Note_on_c, 2, 50, 78
1, 36640, Note_on_c, 3, 50, 61
1, 36640, Note_on_c, 9, 44, 115
1, 36640, Note_on_c, 9, 69, 75
1, 36641, Note_on_c, 1, 31, 101
1, 36641, Note_on_c, 2, 59, 74
1, 36644, Note_on_c, 9, 69, 0
1, 36644, Note_on_c, 9, 44, 0
1, 36657, Note_on_c, 1, 31, 0
1, 36672, Note_on_c, 9, 42, 115
1, 36672, Note_on_c, 9, 35, 125
1, 36673, Note_on_c, 1, 31, 106
1, 36676, Note_on_c, 9, 35, 0
1, 36676, Note_on_c, 9, 42, 0
1, 36704, Note_on_c, 9, 69, 75
1, 36708, Note_on_c, 9, 69, 0
1, 36713, Note_on_c, 1, 31, 0
1, 36736, Note_on_c, 9, 59, 99
1, 36736, Note_on_c, 9, 69, 75
1, 36736, Note_on_c, 9, 44, 125
1, 36737, Note_on_c, 1, 31, 103
1, 36740, Note_on_c, 9, 44, 0
1, 36740, Note_on_c, 9, 69, 0
1, 36740, Note_on_c, 9, 59, 0
1, 36752, Note_on_c, 1, 31, 0
1, 36767, Note_on_c, 3, 50, 0
1, 36768, Note_on_c, 3, 53, 79
1, 36768, Note_on_c, 9, 38, 125
1, 36768, Note_on_c, 9, 42, 115
1, 36769, Note_on_c, 1, 31, 108
1, 36772, Note_on_c, 9, 42, 0
1, 36772, Note_on_c, 9, 38, 0
1, 36799, Note_on_c, 1, 31, 0
1, 36800, Note_on_c, 9, 69, 75
1, 36804, Note_on_c, 9, 69, 0
1, 36830, Note_on_c, 9, 51, 84
1, 36832, Note_on_c, 3, 53, 0
1, 36832, Note_on_c, 3, 55, 75
1, 36832, Note_on_c, 9, 69, 75
1, 36832, Note_on_c, 9, 44, 115
1, 36833, Note_on_c, 1, 31, 101
1, 36834, Note_on_c, 2, 50, 0
1, 36834, Note_on_c, 9, 51, 0
1, 36836, Note_on_c, 9, 44, 0
1, 36836, Note_on_c, 9, 69, 0
1, 36838, Note_on_c, 2, 55, 0
1, 36847, Note_on_c, 1, 31, 0
1, 36849, Note_on_c, 2, 59, 0
1, 36858, Note_on_c, 6, 59, 0
1, 36862, Note_on_c, 9, 59, 90
1, 36864, Note_on_c, 1, 31, 107
1, 36864, Note_on_c, 2, 53, 74
1, 36864, Note_on_c, 6, 62, 55
1, 36864, Note_on_c, 9, 35, 125
1, 36864, Note_on_c, 9, 42, 115
1, 36866, Note_on_c, 9, 59, 0
1, 36868, Note_on_c, 9, 42, 0
1, 36868, Note_on_c, 9, 35, 0
1, 36871, Note_on_c, 2, 53, 0
1, 36871, Note_on_c, 3, 55, 0
1, 36896, Note_on_c, 9, 69, 75
1, 36900, Note_on_c, 9, 69, 0
1, 36904, Note_on_c, 1, 31, 0
1, 36927, Note_on_c, 2, 53, 85
1, 36927, Note_on_c, 5, 67, 46
1, 36928, Note_on_c, 1, 31, 102
1, 36928, Note_on_c, 2, 58, 79
1, 36928, Note_on_c, 2, 62, 77
1, 36928, Note_on_c, 2, 50, 80
1, 36928, Note_on_c, 3, 53, 72
1, 36928, Note_on_c, 9, 44, 125
1, 36928, Note_on_c, 9, 69, 75
1, 36932, Note_on_c, 9, 69, 0
1, 36932, Note_on_c, 9, 44, 0
1, 36942, Note_on_c, 5, 67, 0
1, 36946, Note_on_c, 1, 31, 0
1, 36952, Pitch_bend_c, 5, 8064
1, 36953, Pitch_bend_c, 5, 7808
1, 36954, Pitch_bend_c, 5, 7296
1, 36955, Pitch_bend_c, 5, 7040
1, 36956, Pitch_bend_c, 5, 6528
1, 36957, Pitch_bend_c, 5, 6400
1, 36958, Pitch_bend_c, 5, 6016
1, 36959, Pitch_bend_c, 5, 5888
1, 36960, Note_on_c, 1, 31, 105
1, 36960, Pitch_bend_c, 5, 5376
1, 36960, Note_on_c, 9, 42, 105
1, 36960, Note_on_c, 9, 38, 125
1, 36961, Pitch_bend_c, 5, 5120
1, 36962, Pitch_bend_c, 5, 4864
1, 36963, Pitch_bend_c, 5, 4352
1, 36964, Note_on_c, 9, 38, 0
1, 36964, Note_on_c, 9, 42, 0
1, 36964, Pitch_bend_c, 5, 4224
1, 36964, Note_on_c, 5, 74, 72
1, 36965, Pitch_bend_c, 5, 3968
1, 36966, Pitch_bend_c, 5, 3840
1, 36967, Pitch_bend_c, 5, 3584
1, 36968, Pitch_bend_c, 5, 3456
1, 36969, Pitch_bend_c, 5, 3328
1, 36972, Pitch_bend_c, 5, 3456
1, 36974, Pitch_bend_c, 5, 3712
1, 36975, Pitch_bend_c, 5, 3968
1, 36976, Pitch_bend_c, 5, 4224
1, 36977, Pitch_bend_c, 5, 4736
1, 36979, Pitch_bend_c, 5, 5120
1, 36980, Pitch_bend_c, 5, 5760
1, 36981, Pitch_bend_c, 5, 6016
1, 36982, Pitch_bend_c, 5, 6400
1, 36983, Pitch_bend_c, 5, 6528
1, 36984, Pitch_bend_c, 5, 6912
1, 36985, Pitch_bend_c, 5, 7040
1, 36986, Pitch_bend_c, 5, 7296
1, 36987, Pitch_bend_c, 5, 7424
1, 36988, Pitch_bend_c, 5, 7680
1, 36989, Pitch_bend_c, 5, 7808
1, 36990, Pitch_bend_c, 5, 8064
1, 36991, Pitch_bend_c, 5, 8192
1, 36996, Note_on_c, 1, 31, 0
1, 37024, Note_on_c, 1, 31, 92
1, 37024, Note_on_c, 9, 69, 75
1, 37024, Note_on_c, 9, 44, 115
1, 37028, Note_on_c, 9, 44, 0
1, 37028, Note_on_c, 9, 69, 0
1, 37042, Note_on_c, 1, 31, 0
1, 37048, Note_on_c, 2, 58, 0
1, 37051, Note_on_c, 2, 62, 0
1, 37053, Note_on_c, 3, 53, 0
1, 37056, Note_on_c, 2, 53, 0
1, 37056, Note_on_c, 6, 62, 0
1, 37056, Note_on_c, 1, 31, 108
1, 37056, Note_on_c, 2, 61, 73
1, 37056, Note_on_c, 3, 52, 63
1, 37056, Note_on_c, 6, 61, 59
1, 37056, Note_on_c, 9, 42, 115
1, 37056, Note_on_c, 9, 35, 125
1, 37057, Note_on_c, 2, 50, 0
1, 37057, Note_on_c, 2, 57, 73
1, 37057, Note_on_c, 2, 49, 78
1, 37058, Note_on_c, 2, 52, 77
1, 37059, Note_on_c, 5, 74, 0
1, 37059, Note_on_c, 5, 73, 69
1, 37060, Note_on_c, 9, 42, 0
1, 37060, Note_on_c, 9, 35, 0
1, 37073, Note_on_c, 2, 49, 0
1, 37077, Note_on_c, 2, 61, 0
1, 37078, Note_on_c, 2, 57, 0
1, 37078, Note_on_c, 5, 73, 0
1, 37082, Note_on_c, 2, 52, 0
1, 37088, Note_on_c, 9, 69, 75
1, 37092, Note_on_c, 9, 69, 0
1, 37096, Note_on_c, 1, 31, 0
1, 37118, Note_on_c, 2, 49, 78
1, 37119, Note_on_c, 1, 31, 102
1, 37119, Note_on_c, 2, 61, 77
1, 37119, Note_on_c, 2, 57, 76
1, 37120, Note_on_c, 2, 52, 78
1, 37120, Note_on_c, 9, 44, 125
1, 37123, Note_on_c, 5, 73, 74
1, 37124, Note_on_c, 9, 44, 0
1, 37135, Note_on_c, 1, 31, 0
1, 37151, Note_on_c, 1, 31, 109
1, 37152, Note_on_c, 9, 42, 115
1, 37152, Note_on_c, 9, 38, 125
1, 37156, Note_on_c, 9, 38, 0
1, 37156, Note_on_c, 9, 42, 0
1, 37195, Note_on_c, 1, 31, 0
1, 37216, Note_on_c, 9, 44, 115
1, 37216, Note_on_c, 9, 69, 75
1, 37217, Note_on_c, 1, 31, 97
1, 37220, Note_on_c, 9, 69, 0
1, 37220, Note_on_c, 9, 44, 0
1, 37223, Note_on_c, 5, 73, 0
1, 37223, Note_on_c, 5, 67, 46
1, 37233, Note_on_c, 1, 31, 0
1, 37234, Note_on_c, 2, 57, 0
1, 37235, Note_on_c, 5, 67, 0
1, 37236, Note_on_c, 3, 52, 0
1, 37236, Note_on_c, 2, 61, 0
1, 37246, Note_on_c, 2, 52, 0
1, 37248, Note_on_c, 6, 61, 0
1, 37248, Note_on_c, 3, 53, 72
1, 37248, Note_on_c, 6, 60, 50
1, 37248, Note_on_c, 9, 42, 115
1, 37248, Note_on_c, 9, 35, 125
1, 37249, Note_on_c, 1, 31, 101
1, 37249, Note_on_c, 2, 48, 78
1, 37249, Note_on_c, 2, 57, 73
1, 37249, Note_on_c, 2, 53, 79
1, 37249, Note_on_c, 2, 60, 72
1, 37251, Note_on_c, 5, 72, 62
1, 37252, Note_on_c, 9, 35, 0
1, 37252, Note_on_c, 9, 42, 0
1, 37256, Note_on_c, 2, 49, 0
1, 37272, Note_on_c, 2, 53, 0
1, 37272, Note_on_c, 2, 60, 0
1, 37273, Note_on_c, 2, 57, 0
1, 37274, Note_on_c, 2, 48, 0
1, 37280, Note_on_c, 9, 69, 75
1, 37284, Note_on_c, 9, 69, 0
1, 37291, Note_on_c, 1, 31, 0
1, 37312, Note_on_c, 2, 60, 73
1, 37312, Note_on_c, 2, 48, 78
1, 37312, Note_on_c, 2, 57, 74
1, 37312, Note_on_c, 2, 53, 78
1, 37312, Note_on_c, 9, 69, 75
1, 37312, Note_on_c, 9, 44, 125
1, 37313, Note_on_c, 1, 31, 101
1, 37316, Note_on_c, 9, 44, 0
1, 37316, Note_on_c, 9, 69, 0
1, 37328, Note_on_c, 1, 31, 0
1, 37342, Note_on_c, 5, 72, 0
1, 37344, Note_on_c, 9, 38, 125
1, 37344, Note_on_c, 9, 42, 105
1, 37345, Note_on_c, 1, 31, 107
1, 37347, Note_on_c, 5, 70, 72
1, 37348, Note_on_c, 9, 42, 0
1, 37348, Note_on_c, 9, 38, 0
1, 37386, Note_on_c, 2, 53, 0
1, 37386, Note_on_c, 1, 31, 0
1, 37388, Note_on_c, 2, 60, 0
1, 37390, Note_on_c, 2, 57, 0
1, 37402, Note_on_c, 3, 53, 0
1, 37404, Note_on_c, 2, 48, 0
1, 37405, Note_on_c, 5, 70, 0
1, 37406, Note_on_c, 5, 67, 72
1, 37407, Note_on_c, 6, 60, 0
1, 37407, Note_on_c, 2, 55, 80
1, 37407, Note_on_c, 3, 50, 59
1, 37407, Note_on_c, 6, 59, 58
1, 37408, Note_on_c, 1, 31, 103
1, 37408, Note_on_c, 2, 50, 78
1, 37408, Note_on_c, 9, 44, 115
1, 37408, Note_on_c, 9, 69, 75
1, 37409, Note_on_c, 2, 59, 74
1, 37409, Note_on_c, 9, 51, 77
1, 37412, Note_on_c, 9, 69, 0
1, 37412, Note_on_c, 9, 44, 0
1, 37413, Note_on_c, 9, 51, 0
1, 37427, Note_on_c, 1, 31, 0
1, 37440, Note_on_c, 1, 31, 107
1, 37440, Note_on_c, 9, 35, 125
1, 37440, Note_on_c, 9, 42, 115
1, 37442, Note_on_c, 9, 59, 94
1, 37444, Note_on_c, 9, 42, 0
1, 37444, Note_on_c, 9, 35, 0
1, 37446, Note_on_c, 9, 59, 0
1, 37472, Note_on_c, 9, 69, 75
1, 37475, Note_on_c, 9, 51, 78
1, 37476, Note_on_c, 9, 69, 0
1, 37479, Note_on_c, 9, 51, 0
1, 37485, Note_on_c, 1, 31, 0
1, 37502, Pitch_bend_c, 5, 8064
1, 37504, Note_on_c, 1, 31, 100
1, 37504, Pitch_bend_c, 5, 7808
1, 37504, Note_on_c, 9, 69, 75
1, 37504, Note_on_c, 9, 44, 125
1, 37505, Pitch_bend_c, 5, 7552
1, 37506, Pitch_bend_c, 5, 7424
1, 37506, Note_on_c, 9, 59, 89
1, 37507, Pitch_bend_c, 5, 7040
1, 37508, Note_on_c, 9, 44, 0
1, 37508, Note_on_c, 9, 69, 0
1, 37508, Pitch_bend_c, 5, 6784
1, 37509, Pitch_bend_c, 5, 6528
1, 37510, Note_on_c, 9, 59, 0
1, 37510, Pitch_bend_c, 5, 6272
1, 37511, Pitch_bend_c, 5, 6016
1, 37512, Pitch_bend_c, 5, 5632
1, 37513, Pitch_bend_c, 5, 5120
1, 37514, Pitch_bend_c, 5, 4992
1, 37515, Pitch_bend_c, 5, 4864
1, 37516, Pitch_bend_c, 5, 4480
1, 37517, Pitch_bend_c, 5, 4352
1, 37518, Note_on_c, 1, 31, 0
1, 37518, Pitch_bend_c, 5, 3968
1, 37519, Pitch_bend_c, 5, 3840
1, 37520, Pitch_bend_c, 5, 3712
1, 37521, Pitch_bend_c, 5, 3584
1, 37522, Pitch_bend_c, 5, 3328
1, 37523, Pitch_bend_c, 5, 3072
1, 37525, Pitch_bend_c, 5, 2944
1, 37526, Pitch_bend_c, 5, 2816
1, 37532, Pitch_bend_c, 5, 2944
1, 37533, Note_on_c, 3, 50, 0
1, 37534, Pitch_bend_c, 5, 3072
1, 37536, Note_on_c, 1, 31, 101
1, 37536, Pitch_bend_c, 5, 3200
1, 37536, Note_on_c, 9, 38, 125
1, 37536, Note_on_c, 9, 42, 115
1, 37537, Note_on_c, 3, 53, 79
1, 37537, Pitch_bend_c, 5, 3328
1, 37538, Pitch_bend_c, 5, 3456
1, 37539, Pitch_bend_c, 5, 3584
1, 37540, Note_on_c, 9, 42, 0
1, 37540, Note_on_c, 9, 38, 0
1, 37540, Pitch_bend_c, 5, 3840
1, 37541, Pitch_bend_c, 5, 4096
1, 37542, Pitch_bend_c, 5, 4224
1, 37543, Pitch_bend_c, 5, 4480
1, 37544, Pitch_bend_c, 5, 4608
1, 37545, Pitch_bend_c, 5, 4736
1, 37546, Pitch_bend_c, 5, 5120
1, 37547, Pitch_bend_c, 5, 5376
1, 37548, Pitch_bend_c, 5, 5760
1, 37549, Pitch_bend_c, 5, 5888
1, 37550, Pitch_bend_c, 5, 6144
1, 37551, Pitch_bend_c, 5, 6400
1, 37552, Pitch_bend_c, 5, 6528
1, 37553, Pitch_bend_c, 5, 6912
1, 37554, Pitch_bend_c, 5, 7040
1, 37555, Note_on_c, 1, 31, 0
1, 37555, Pitch_bend_c, 5, 7424
1, 37556, Pitch_bend_c, 5, 7552
1, 37557, Pitch_bend_c, 5, 7936
1, 37558, Pitch_bend_c, 5, 8192
1, 37568, Note_on_c, 9, 69, 75
1, 37572, Note_on_c, 9, 69, 0
1, 37580, Note_on_c, 5, 67, 0
1, 37599, Note_on_c, 9, 59, 92
1, 37600, Note_on_c, 3, 53, 0
1, 37600, Note_on_c, 1, 31, 96
1, 37600, Note_on_c, 3, 55, 72
1, 37600, Note_on_c, 9, 44, 115
1, 37600, Note_on_c, 9, 69, 75
1, 37602, Note_on_c, 2, 50, 0
1, 37603, Note_on_c, 9, 59, 0
1, 37604, Note_on_c, 9, 69, 0
1, 37604, Note_on_c, 9, 44, 0
1, 37606, Note_on_c, 2, 55, 0
1, 37617, Note_on_c, 2, 59, 0
1, 37618, Note_on_c, 1, 31, 0
1, 37626, Note_on_c, 6, 59, 0
1, 37632, Note_on_c, 1, 31, 108
1, 37632, Note_on_c, 2, 53, 74
1, 37632, Note_on_c, 6, 62, 55
1, 37632, Note_on_c, 9, 42, 115
1, 37632, Note_on_c, 9, 35, 125
1, 37636, Note_on_c, 9, 35, 0
1, 37636, Note_on_c, 3, 55, 0
1, 37636, Note_on_c, 9, 42, 0
1, 37639, Note_on_c, 2, 53, 0
1, 37664, Note_on_c, 9, 69, 75
1, 37668, Note_on_c, 9, 69, 0
1, 37675, Note_on_c, 1, 31, 0
1, 37695, Note_on_c, 2, 53, 85
1, 37696, Note_on_c, 1, 31, 101
1, 37696, Note_on_c, 2, 58, 79
1, 37696, Note_on_c, 2, 50, 80
1, 37696, Note_on_c, 2, 62, 77
1, 37696, Note_on_c, 3, 53, 87
1, 37696, Note_on_c, 9, 44, 125
1, 37696, Note_on_c, 9, 69, 75
1, 37700, Note_on_c, 9, 69, 0
1, 37700, Note_on_c, 9, 44, 0
1, 37701, Note_on_c, 5, 67, 40
1, 37711, Note_on_c, 1, 31, 0
1, 37722, Note_on_c, 5, 67, 0
1, 37728, Note_on_c, 1, 31, 102
1, 37728, Note_on_c, 9, 38, 125
1, 37728, Note_on_c, 9, 42, 105
1, 37730, Note_on_c, 5, 74, 69
1, 37732, Note_on_c, 9, 42, 0
1, 37732, Note_on_c, 9, 38, 0
1, 37766, Note_on_c, 1, 31, 0
1, 37792, Note_on_c, 1, 31, 96
1, 37792, Note_on_c, 9, 44, 115
1, 37792, Note_on_c, 9, 69, 75
1, 37796, Note_on_c, 9, 69, 0
1, 37796, Note_on_c, 9, 44, 0
1, 37796, Note_on_c, 5, 74, 0
1, 37796, Note_on_c, 5, 67, 54
1, 37810, Note_on_c, 1, 31, 0
1, 37813, Note_on_c, 5, 67, 0
1, 37816, Note_on_c, 2, 58, 0
1, 37819, Note_on_c, 2, 62, 0
1, 37823, Note_on_c, 3, 53, 0
1, 37824, Note_on_c, 2, 53, 0
1, 37824, Note_on_c, 6, 62, 0
1, 37824, Note_on_c, 1, 31, 107
1, 37824, Note_on_c, 2, 61, 73
1, 37824, Note_on_c, 6, 61, 59
1, 37824, Note_on_c, 9, 42, 115
1, 37824, Note_on_c, 9, 35, 125
1, 37825, Note_on_c, 2, 50, 0
1, 37825, Note_on_c, 2, 49, 78
1, 37825, Note_on_c, 2, 57, 73
1, 37825, Note_on_c, 3, 52, 62
1, 37825, Note_on_c, 5, 73, 59
1, 37826, Note_on_c, 2, 52, 77
1, 37828, Note_on_c, 9, 42, 0
1, 37828, Note_on_c, 9, 35, 0
1, 37841, Note_on_c, 2, 49, 0
1, 37845, Note_on_c, 2, 61, 0
1, 37846, Note_on_c, 2, 57, 0
1, 37850, Note_on_c, 2, 52, 0
1, 37854, Note_on_c, 5, 73, 0
1, 37856, Note_on_c, 9, 69, 75
1, 37860, Note_on_c, 9, 69, 0
1, 37860, Note_on_c, 1, 31, 0
1, 37886, Note_on_c, 2, 49, 78
1, 37887, Note_on_c, 1, 31, 103
1, 37887, Note_on_c, 2, 57, 76
1, 37887, Note_on_c, 2, 61, 77
1, 37888, Note_on_c, 2, 52, 78
1, 37888, Note_on_c, 9, 44, 125
1, 37892, Note_on_c, 9, 44, 0
1, 37892, Note_on_c, 5, 73, 75
1, 37904, Note_on_c, 1, 31, 0
1, 37919, Note_on_c, 1, 31, 108
1, 37920, Note_on_c, 9, 38, 125
1, 37920, Note_on_c, 9, 42, 115
1, 37924, Note_on_c, 9, 42, 0
1, 37924, Note_on_c, 9, 38, 0
1, 37960, Note_on_c, 1, 31, 0
1, 37979, Note_on_c, 5, 73, 0
1, 37984, Note_on_c, 9, 69, 75
1, 37984, Note_on_c, 9, 44, 115
1, 37985, Note_on_c, 1, 31, 98
1, 37988, Note_on_c, 9, 44, 0
1, 37988, Note_on_c, 9, 69, 0
1, 37994, Note_on_c, 5, 67, 31
1, 38001, Note_on_c, 5, 67, 0
1, 38002, Note_on_c, 2, 57, 0
1, 38002, Note_on_c, 1, 31, 0
1, 38004, Note_on_c, 3, 52, 0
1, 38004, Note_on_c, 2, 61, 0
1, 38014, Note_on_c, 2, 52, 0
1, 38016, Note_on_c, 6, 61, 0
1, 38016, Note_on_c, 3, 53, 63
1, 38016, Note_on_c, 6, 60, 50
1, 38016, Note_on_c, 9, 42, 115
1, 38016, Note_on_c, 9, 35, 125
1, 38017, Note_on_c, 1, 31, 105
1, 38017, Note_on_c, 2, 57, 73
1, 38017, Note_on_c, 2, 60, 72
1, 38017, Note_on_c, 2, 53, 79
1, 38017, Note_on_c, 2, 48, 78
1, 38020, Note_on_c, 9, 35, 0
1, 38020, Note_on_c, 9, 42, 0
1, 38021, Note_on_c, 5, 72, 65
1, 38024, Note_on_c, 2, 49, 0
1, 38040, Note_on_c, 2, 60, 0
1, 38040, Note_on_c, 2, 53, 0
1, 38041, Note_on_c, 2, 57, 0
1, 38042, Note_on_c, 2, 48, 0
1, 38048, Note_on_c, 9, 69, 75
1, 38051, Note_on_c, 1, 31, 0
1, 38052, Note_on_c, 9, 69, 0
1, 38080, Note_on_c, 1, 31, 103
1, 38080, Note_on_c, 2, 53, 78
1, 38080, Note_on_c, 2, 57, 74
1, 38080, Note_on_c, 2, 60, 73
1, 38080, Note_on_c, 2, 48, 78
1, 38080, Note_on_c, 9, 69, 75
1, 38080, Note_on_c, 9, 44, 125
1, 38084, Note_on_c, 9, 44, 0
1, 38084, Note_on_c, 9, 69, 0
1, 38096, Note_on_c, 1, 31, 0
1, 38097, Pitch_bend_c, 5, 8064
1, 38098, Pitch_bend_c, 5, 7680
1, 38099, Pitch_bend_c, 5, 7424
1, 38100, Pitch_bend_c, 5, 7040
1, 38101, Note_on_c, 5, 72, 0
1, 38101, Pitch_bend_c, 5, 6784
1, 38102, Pitch_bend_c, 5, 6400
1, 38103, Pitch_bend_c, 5, 6144
1, 38104, Pitch_bend_c, 5, 5760
1, 38106, Pitch_bend_c, 5, 5120
1, 38107, Pitch_bend_c, 5, 4992
1, 38108, Pitch_bend_c, 5, 4736
1, 38109, Pitch_bend_c, 5, 4224
1, 38110, Pitch_bend_c, 5, 4096
1, 38111, Pitch_bend_c, 5, 3584
1, 38112, Note_on_c, 1, 31, 106
1, 38112, Pitch_bend_c, 5, 3200
1, 38112, Note_on_c, 9, 38, 125
1, 38112, Note_on_c, 9, 42, 105
1, 38113, Pitch_bend_c, 5, 2944
1, 38114, Pitch_bend_c, 5, 2816
1, 38115, Pitch_bend_c, 5, 2432
1, 38116, Note_on_c, 9, 42, 0
1, 38116, Note_on_c, 9, 38, 0
1, 38116, Pitch_bend_c, 5, 2304
1, 38117, Pitch_bend_c, 5, 2176
1, 38118, Pitch_bend_c, 5, 2048
1, 38118, Note_on_c, 5, 70, 74
1, 38119, Pitch_bend_c, 5, 1792
1, 38121, Pitch_bend_c, 5, 1664
1, 38127, Pitch_bend_c, 5, 1792
1, 38129, Pitch_bend_c, 5, 1920
1, 38130, Pitch_bend_c, 5, 2048
1, 38131, Pitch_bend_c, 5, 2176
1, 38132, Pitch_bend_c, 5, 2304
1, 38133, Pitch_bend_c, 5, 2432
1, 38134, Pitch_bend_c, 5, 2560
1, 38135, Pitch_bend_c, 5, 2816
1, 38136, Pitch_bend_c, 5, 2944
1, 38137, Pitch_bend_c, 5, 3328
1, 38139, Pitch_bend_c, 5, 3584
1, 38140, Pitch_bend_c, 5, 3712
1, 38141, Pitch_bend_c, 5, 4096
1, 38142, Pitch_bend_c, 5, 4480
1, 38143, Pitch_bend_c, 5, 4608
1, 38144, Pitch_bend_c, 5, 4992
1, 38145, Pitch_bend_c, 5, 5376
1, 38146, Pitch_bend_c, 5, 5760
1, 38147, Note_on_c, 1, 31, 0
1, 38147, Pitch_bend_c, 5, 5888
1, 38148, Pitch_bend_c, 5, 6144
1, 38149, Pitch_bend_c, 5, 6400
1, 38150, Pitch_bend_c, 5, 6528
1, 38151, Pitch_bend_c, 5, 6912
1, 38152, Pitch_bend_c, 5, 7040
1, 38153, Pitch_bend_c, 5, 7168
1, 38154, Note_on_c, 2, 53, 0
1, 38154, Pitch_bend_c, 5, 7424
1, 38155, Pitch_bend_c, 5, 7552
1, 38156, Note_on_c, 2, 60, 0
1, 38156, Pitch_bend_c, 5, 7808
1, 38157, Pitch_bend_c, 5, 7936
1, 38158, Note_on_c, 2, 57, 0
1, 38158, Pitch_bend_c, 5, 8192
1, 38168, Note_on_c, 3, 53, 0
1, 38172, Note_on_c, 2, 48, 0
1, 38174, Note_on_c, 5, 70, 0
1, 38174, Note_on_c, 5, 67, 62
1, 38175, Note_on_c, 6, 60, 0
1, 38175, Note_on_c, 2, 55, 80
1, 38175, Note_on_c, 6, 59, 58
1, 38176, Note_on_c, 2, 50, 78
1, 38176, Note_on_c, 3, 50, 61
1, 38176, Note_on_c, 9, 44, 115
1, 38176, Note_on_c, 9, 69, 75
1, 38177, Note_on_c, 1, 31, 91
1, 38177, Note_on_c, 2, 59, 74
1, 38177, Note_on_c, 9, 51, 89
1, 38180, Note_on_c, 9, 69, 0
1, 38180, Note_on_c, 9, 44, 0
1, 38181, Note_on_c, 9, 51, 0
1, 38208, Note_on_c, 9, 42, 115
1, 38208, Note_on_c, 9, 35, 125
1, 38212, Note_on_c, 9, 35, 0
1, 38212, Note_on_c, 9, 42, 0
1, 38230, Note_on_c, 1, 31, 0
1, 38240, Note_on_c, 9, 69, 75
1, 38244, Note_on_c, 9, 69, 0
1, 38271, Note_on_c, 9, 51, 94
1, 38272, Note_on_c, 1, 31, 103
1, 38272, Note_on_c, 9, 69, 75
1, 38272, Note_on_c, 9, 44, 125
1, 38273, Note_on_c, 5, 67, 0
1, 38274, Note_on_c, 5, 65, 43
1, 38275, Note_on_c, 9, 51, 0
1, 38276, Note_on_c, 9, 69, 0
1, 38276, Note_on_c, 9, 44, 0
1, 38288, Note_on_c, 1, 31, 0
1, 38298, Note_on_c, 5, 65, 0
1, 38298, Note_on_c, 5, 67, 58
1, 38303, Note_on_c, 3, 50, 0
1, 38304, Note_on_c, 3, 53, 79
1, 38304, Note_on_c, 9, 38, 125
1, 38304, Note_on_c, 9, 59, 94
1, 38304, Note_on_c, 9, 42, 115
1, 38305, Note_on_c, 1, 31, 105
1, 38308, Note_on_c, 9, 42, 0
1, 38308, Note_on_c, 9, 59, 0
1, 38308, Note_on_c, 9, 38, 0
1, 38336, Note_on_c, 9, 69, 75
1, 38337, Note_on_c, 9, 51, 95
1, 38340, Note_on_c, 9, 69, 0
1, 38341, Note_on_c, 9, 51, 0
1, 38349, Note_on_c, 1, 31, 0
1, 38359, Note_on_c, 5, 67, 0
1, 38368, Note_on_c, 3, 53, 0
1, 38368, Note_on_c, 3, 55, 75
1, 38368, Note_on_c, 9, 69, 75
1, 38368, Note_on_c, 9, 44, 115
1, 38369, Note_on_c, 1, 29, 97
1, 38369, Note_on_c, 9, 59, 90
1, 38370, Note_on_c, 2, 50, 0
1, 38372, Note_on_c, 9, 44, 0
1, 38372, Note_on_c, 9, 69, 0
1, 38373, Note_on_c, 9, 59, 0
1, 38374, Note_on_c, 2, 55, 0
1, 38385, Note_on_c, 2, 59, 0
1, 38394, Note_on_c, 6, 59, 0
1, 38399, Note_on_c, 1, 29, 0
1, 38400, Note_on_c, 1, 31, 104
1, 38400, Note_on_c, 2, 53, 74
1, 38400, Note_on_c, 6, 62, 55
1, 38400, Note_on_c, 9, 42, 115
1, 38400, Note_on_c, 9, 49, 99
1, 38400, Note_on_c, 9, 35, 125
1, 38404, Note_on_c, 9, 35, 0
1, 38404, Note_on_c, 9, 49, 0
1, 38404, Note_on_c, 9, 42, 0
1, 38407, Note_on_c, 3, 55, 0
1, 38407, Note_on_c, 2, 53, 0
1, 38432, Note_on_c, 9, 69, 84
1, 38436, Note_on_c, 9, 69, 0
1, 38441, Note_on_c, 1, 31, 0
1, 38463, Note_on_c, 2, 53, 85
1, 38463, Note_on_c, 3, 74, 53
1, 38464, Note_on_c, 1, 31, 96
1, 38464, Note_on_c, 2, 58, 79
1, 38464, Note_on_c, 2, 62, 77
1, 38464, Note_on_c, 2, 50, 80
1, 38464, Note_on_c, 9, 46, 125
1, 38464, Note_on_c, 9, 69, 84
1, 38464, Note_on_c, 9, 59, 88
1, 38466, Note_on_c, 9, 43, 64
1, 38468, Note_on_c, 9, 59, 0
1, 38468, Note_on_c, 9, 69, 0
1, 38468, Note_on_c, 9, 46, 0
1, 38470, Note_on_c, 9, 43, 0
1, 38477, Note_on_c, 3, 74, 0
1, 38477, Note_on_c, 1, 31, 0
1, 38480, Note_on_c, 9, 41, 66
1, 38484, Note_on_c, 9, 41, 0
1, 38496, Note_on_c, 1, 31, 105
1, 38496, Note_on_c, 9, 38, 125
1, 38496, Note_on_c, 9, 42, 105
1, 38500, Note_on_c, 9, 42, 0
1, 38500, Note_on_c, 9, 38, 0
1, 38539, Note_on_c, 1, 31, 0
1, 38560, Note_on_c, 1, 31, 100
1, 38560, Note_on_c, 3, 74, 58
1, 38560, Note_on_c, 9, 69, 84
1, 38560, Note_on_c, 9, 44, 115
1, 38560, Note_on_c, 9, 59, 95
1, 38564, Note_on_c, 9, 59, 0
1, 38564, Note_on_c, 9, 44, 0
1, 38564, Note_on_c, 9, 69, 0
1, 38574, Note_on_c, 3, 74, 0
1, 38576, Note_on_c, 1, 31, 0
1, 38584, Note_on_c, 2, 58, 0
1, 38587, Note_on_c, 2, 62, 0
1, 38590, Note_on_c, 3, 77, 75
1, 38592, Note_on_c, 6, 62, 0
1, 38592, Note_on_c, 2, 53, 0
1, 38592, Note_on_c, 1, 31, 105
1, 38592, Note_on_c, 2, 61, 73
1, 38592, Note_on_c, 3, 74, 60
1, 38592, Note_on_c, 6, 61, 59
1, 38592, Note_on_c, 9, 42, 115
1, 38592, Note_on_c, 9, 35, 125
1, 38593, Note_on_c, 2, 50, 0
1, 38593, Note_on_c, 2, 49, 78
1, 38593, Note_on_c, 2, 57, 73
1, 38594, Note_on_c, 2, 52, 77
1, 38596, Note_on_c, 9, 35, 0
1, 38596, Note_on_c, 9, 42, 0
1, 38609, Note_on_c, 2, 49, 0
1, 38613, Note_on_c, 2, 61, 0
1, 38614, Note_on_c, 2, 57, 0
1, 38618, Note_on_c, 2, 52, 0
1, 38624, Note_on_c, 9, 69, 85
1, 38628, Note_on_c, 9, 69, 0
1, 38633, Note_on_c, 1, 31, 0
1, 38645, Note_on_c, 3, 77, 0
1, 38652, Note_on_c, 3, 79, 79
1, 38654, Note_on_c, 2, 49, 78
1, 38655, Note_on_c, 2, 61, 77
1, 38655, Note_on_c, 2, 57, 76
1, 38656, Note_on_c, 1, 31, 98
1, 38656, Note_on_c, 2, 52, 78
1, 38656, Note_on_c, 9, 51, 95
1, 38656, Note_on_c, 9, 44, 125
1, 38660, Note_on_c, 9, 44, 0
1, 38660, Note_on_c, 9, 51, 0
1, 38661, Note_on_c, 3, 74, 0
1, 38664, Note_on_c, 5, 74, 60
1, 38670, Note_on_c, 1, 31, 0
1, 38676, Note_on_c, 5, 74, 0
1, 38677, Note_on_c, 3, 79, 0
1, 38688, Note_on_c, 1, 31, 104
1, 38688, Note_on_c, 9, 38, 125
1, 38688, Note_on_c, 9, 42, 115
1, 38689, Note_on_c, 5, 77, 62
1, 38689, Note_on_c, 9, 59, 102
1, 38692, Note_on_c, 9, 42, 0
1, 38692, Note_on_c, 9, 38, 0
1, 38693, Note_on_c, 9, 59, 0
1, 38712, Note_on_c, 5, 77, 0
1, 38724, Note_on_c, 1, 31, 0
1, 38748, Note_on_c, 3, 74, 57
1, 38749, Note_on_c, 5, 74, 58
1, 38752, Note_on_c, 1, 31, 106
1, 38752, Note_on_c, 9, 69, 85
1, 38752, Note_on_c, 9, 44, 115
1, 38753, Note_on_c, 9, 59, 89
1, 38756, Note_on_c, 9, 44, 0
1, 38756, Note_on_c, 9, 69, 0
1, 38757, Note_on_c, 9, 59, 0
1, 38763, Note_on_c, 5, 74, 0
1, 38768, Note_on_c, 3, 74, 0
1, 38770, Note_on_c, 2, 57, 0
1, 38771, Note_on_c, 1, 31, 0
1, 38772, Note_on_c, 2, 61, 0
1, 38777, Note_on_c, 5, 79, 62
1, 38782, Note_on_c, 2, 52, 0
1, 38782, Note_on_c, 3, 82, 67
1, 38784, Note_on_c, 6, 61, 0
1, 38784, Note_on_c, 1, 31, 106
1, 38784, Note_on_c, 6, 60, 50
1, 38784, Note_on_c, 9, 42, 115
1, 38784, Note_on_c, 9, 35, 125
1, 38785, Note_on_c, 2, 57, 73
1, 38785, Note_on_c, 2, 60, 72
1, 38785, Note_on_c, 2, 48, 78
1, 38785, Note_on_c, 2, 53, 79
1, 38788, Note_on_c, 9, 35, 0
1, 38788, Note_on_c, 9, 42, 0
1, 38792, Note_on_c, 2, 49, 0
1, 38795, Note_on_c, 3, 82, 0
1, 38797, Note_on_c, 5, 79, 0
1, 38808, Note_on_c, 2, 60, 0
1, 38808, Note_on_c, 2, 53, 0
1, 38809, Note_on_c, 2, 57, 0
1, 38810, Note_on_c, 2, 48, 0
1, 38816, Note_on_c, 9, 69, 85
1, 38820, Note_on_c, 9, 69, 0
1, 38825, Note_on_c, 1, 31, 0
1, 38845, Note_on_c, 5, 79, 58
1, 38846, Note_on_c, 3, 74, 69
1, 38848, Note_on_c, 1, 31, 98
1, 38848, Note_on_c, 2, 57, 74
1, 38848, Note_on_c, 2, 60, 73
1, 38848, Note_on_c, 2, 48, 78
1, 38848, Note_on_c, 2, 53, 78
1, 38848, Note_on_c, 3, 82, 94
1, 38848, Note_on_c, 9, 69, 85
1, 38848, Note_on_c, 9, 44, 125
1, 38849, Note_on_c, 9, 59, 74
1, 38850, Note_on_c, 9, 38, 66
1, 38852, Note_on_c, 9, 44, 0
1, 38852, Note_on_c, 9, 69, 0
1, 38853, Note_on_c, 9, 59, 0
1, 38854, Note_on_c, 9, 38, 0
1, 38859, Note_on_c, 5, 79, 0
1, 38863, Note_on_c, 1, 31, 0
1, 38865, Note_on_c, 3, 74, 0
1, 38866, Note_on_c, 3, 82, 0
1, 38880, Note_on_c, 1, 31, 103
1, 38880, Note_on_c, 9, 42, 105
1, 38880, Note_on_c, 9, 38, 125
1, 38884, Note_on_c, 9, 38, 0
1, 38884, Note_on_c, 9, 42, 0
1, 38922, Note_on_c, 2, 53, 0
1, 38924, Note_on_c, 2, 60, 0
1, 38924, Note_on_c, 1, 31, 0
1, 38926, Note_on_c, 2, 57, 0
1, 38940, Note_on_c, 2, 48, 0
1, 38941, Note_on_c, 3, 85, 87
1, 38942, Note_on_c, 5, 79, 67
1, 38943, Note_on_c, 6, 60, 0
1, 38943, Note_on_c, 2, 55, 80
1, 38943, Note_on_c, 6, 59, 58
1, 38944, Note_on_c, 1, 31, 102
1, 38944, Note_on_c, 2, 50, 78
1, 38944, Note_on_c, 9, 44, 115
1, 38944, Note_on_c, 9, 69, 85
1, 38944, Note_on_c, 9, 38, 66
1, 38945, Note_on_c, 2, 59, 74
1, 38948, Note_on_c, 9, 38, 0
1, 38948, Note_on_c, 9, 69, 0
1, 38948, Note_on_c, 9, 44, 0
1, 38956, Note_on_c, 3, 84, 72
1, 38957, Note_on_c, 3, 85, 0
1, 38958, Note_on_c, 1, 31, 0
1, 38976, Note_on_c, 1, 31, 104
1, 38976, Note_on_c, 9, 42, 115
1, 38976, Note_on_c, 9, 35, 125
1, 38980, Note_on_c, 9, 35, 0
1, 38980, Note_on_c, 9, 42, 0
1, 39004, Control_c, 5, 1, 14
1, 39008, Note_on_c, 9, 69, 86
1, 39010, Control_c, 5, 1, 25
1, 39012, Note_on_c, 9, 69, 0
1, 39016, Control_c, 5, 1, 41
1, 39019, Note_on_c, 1, 31, 0
1, 39022, Control_c, 5, 1, 56
1, 39028, Control_c, 5, 1, 70
1, 39034, Control_c, 5, 1, 79
1, 39038, Note_on_c, 3, 82, 94
1, 39040, Note_on_c, 3, 84, 0
1, 39040, Control_c, 5, 1, 84
1, 39040, Note_on_c, 9, 69, 86
1, 39040, Note_on_c, 9, 44, 125
1, 39041, Note_on_c, 1, 31, 98
1, 39044, Note_on_c, 9, 44, 0
1, 39044, Note_on_c, 9, 69, 0
1, 39053, Note_on_c, 1, 31, 0
1, 39053, Control_c, 5, 1, 78
1, 39059, Control_c, 5, 1, 68
1, 39065, Control_c, 5, 1, 51
1, 39070, Note_on_c, 3, 79, 63
1, 39071, Note_on_c, 3, 82, 0
1, 39071, Control_c, 5, 1, 37
1, 39072, Note_on_c, 3, 81, 60
1, 39072, Note_on_c, 9, 38, 125
1, 39072, Note_on_c, 9, 42, 115
1, 39073, Note_on_c, 1, 31, 101
1, 39076, Note_on_c, 9, 42, 0
1, 39076, Note_on_c, 9, 38, 0
1, 39077, Control_c, 5, 1, 18
1, 39082, Note_on_c, 3, 81, 0
1, 39083, Control_c, 5, 1, 2
1, 39089, Note_on_c, 3, 79, 0
1, 39089, Control_c, 5, 1, 0
1, 39104, Note_on_c, 9, 69, 86
1, 39108, Note_on_c, 9, 69, 0
1, 39115, Note_on_c, 1, 31, 0
1, 39130, Note_on_c, 5, 79, 0
1, 39133, Note_on_c, 3, 79, 69
1, 39134, Note_on_c, 3, 77, 72
1, 39136, Note_on_c, 1, 31, 96
1, 39136, Note_on_c, 9, 69, 86
1, 39136, Note_on_c, 9, 46, 127
1, 39138, Note_on_c, 2, 50, 0
1, 39140, Note_on_c, 9, 46, 0
1, 39140, Note_on_c, 9, 69, 0
1, 39142, Note_on_c, 2, 55, 0
1, 39149, Note_on_c, 1, 31, 0
1, 39153, Note_on_c, 2, 59, 0
1, 39155, Note_on_c, 3, 77, 0
1, 39162, Note_on_c, 6, 59, 0
1, 39168, Note_on_c, 1, 31, 108
1, 39168, Note_on_c, 2, 53, 74
1, 39168, Note_on_c, 6, 62, 55
1, 39168, Note_on_c, 9, 35, 125
1, 39168, Note_on_c, 9, 42, 115
1, 39171, Note_on_c, 9, 59, 60
1, 39172, Note_on_c, 9, 42, 0
1, 39172, Note_on_c, 9, 35, 0
1, 39175, Note_on_c, 9, 59, 0
1, 39175, Note_on_c, 2, 53, 0
1, 39200, Note_on_c, 9, 69, 86
1, 39204, Note_on_c, 9, 69, 0
1, 39210, Note_on_c, 1, 31, 0
1, 39222, Pitch_bend_c, 5, 8064
1, 39223, Pitch_bend_c, 5, 7808
1, 39224, Pitch_bend_c, 5, 7424
1, 39225, Pitch_bend_c, 5, 7168
1, 39226, Pitch_bend_c, 5, 6912
1, 39227, Note_on_c, 3, 79, 0
1, 39227, Pitch_bend_c, 5, 6784
1, 39228, Pitch_bend_c, 5, 6400
1, 39229, Pitch_bend_c, 5, 6272
1, 39230, Pitch_bend_c, 5, 5888
1, 39231, Note_on_c, 2, 53, 85
1, 39231, Pitch_bend_c, 5, 5632
1, 39232, Note_on_c, 1, 31, 97
1, 39232, Note_on_c, 2, 58, 79
1, 39232, Note_on_c, 2, 62, 77
1, 39232, Note_on_c, 2, 50, 80
1, 39232, Pitch_bend_c, 5, 5504
1, 39232, Note_on_c, 9, 44, 125
1, 39232, Note_on_c, 9, 69, 86
1, 39233, Pitch_bend_c, 5, 5120
1, 39234, Pitch_bend_c, 5, 4992
1, 39235, Pitch_bend_c, 5, 4736
1, 39236, Note_on_c, 9, 69, 0
1, 39236, Note_on_c, 9, 44, 0
1, 39236, Pitch_bend_c, 5, 4608
1, 39237, Pitch_bend_c, 5, 4352
1, 39238, Pitch_bend_c, 5, 3840
1, 39239, Pitch_bend_c, 5, 3328
1, 39240, Pitch_bend_c, 5, 2816
1, 39241, Pitch_bend_c, 5, 2432
1, 39242, Note_on_c, 3, 79, 45
1, 39242, Pitch_bend_c, 5, 2048
1, 39243, Pitch_bend_c, 5, 1920
1, 39244, Note_on_c, 1, 31, 0
1, 39244, Pitch_bend_c, 5, 1408
1, 39245, Pitch_bend_c, 5, 1280
1, 39246, Pitch_bend_c, 5, 896
1, 39247, Pitch_bend_c, 5, 768
1, 39248, Pitch_bend_c, 5, 640
1, 39249, Pitch_bend_c, 5, 384
1, 39251, Pitch_bend_c, 5, 0
1, 39261, Note_on_c, 3, 79, 0
1, 39263, Note_on_c, 5, 79, 87
1, 39264, Note_on_c, 1, 31, 107
1, 39264, Note_on_c, 9, 42, 105
1, 39264, Note_on_c, 9, 38, 125
1, 39268, Note_on_c, 9, 38, 0
1, 39268, Note_on_c, 9, 42, 0
1, 39270, Pitch_bend_c, 5, 256
1, 39272, Pitch_bend_c, 5, 384
1, 39273, Pitch_bend_c, 5, 640
1, 39274, Pitch_bend_c, 5, 896
1, 39275, Pitch_bend_c, 5, 1152
1, 39277, Pitch_bend_c, 5, 1408
1, 39278, Pitch_bend_c, 5, 1664
1, 39279, Pitch_bend_c, 5, 2048
1, 39280, Pitch_bend_c, 5, 2560
1, 39281, Pitch_bend_c, 5, 2816
1, 39282, Pitch_bend_c, 5, 3328
1, 39283, Pitch_bend_c, 5, 3584
1, 39284, Pitch_bend_c, 5, 4224
1, 39285, Pitch_bend_c, 5, 4480
1, 39286, Pitch_bend_c, 5, 4992
1, 39287, Pitch_bend_c, 5, 5376
1, 39288, Pitch_bend_c, 5, 5632
1, 39289, Pitch_bend_c, 5, 6144
1, 39290, Pitch_bend_c, 5, 6528
1, 39291, Pitch_bend_c, 5, 6656
1, 39292, Pitch_bend_c, 5, 7040
1, 39294, Pitch_bend_c, 5, 7424
1, 39295, Pitch_bend_c, 5, 7552
1, 39296, Pitch_bend_c, 5, 7936
1, 39297, Pitch_bend_c, 5, 8192
1, 39311, Note_on_c, 1, 31, 0
1, 39328, Note_on_c, 1, 31, 97
1, 39328, Note_on_c, 9, 44, 115
1, 39328, Note_on_c, 9, 69, 87
1, 39329, Note_on_c, 9, 51, 84
1, 39332, Note_on_c, 9, 69, 0
1, 39332, Note_on_c, 9, 44, 0
1, 39333, Note_on_c, 9, 51, 0
1, 39342, Note_on_c, 1, 31, 0
1, 39352, Note_on_c, 2, 58, 0
1, 39355, Note_on_c, 2, 62, 0
1, 39360, Note_on_c, 2, 53, 0
1, 39360, Note_on_c, 6, 62, 0
1, 39360, Note_on_c, 1, 31, 107
1, 39360, Note_on_c, 2, 61, 73
1, 39360, Note_on_c, 6, 61, 59
1, 39360, Note_on_c, 9, 42, 115
1, 39360, Note_on_c, 9, 35, 125
1, 39361, Note_on_c, 2, 50, 0
1, 39361, Note_on_c, 2, 49, 78
1, 39361, Note_on_c, 2, 57, 73
1, 39361, Note_on_c, 9, 59, 89
1, 39362, Note_on_c, 2, 52, 77
1, 39364, Note_on_c, 9, 35, 0
1, 39364, Note_on_c, 9, 42, 0
1, 39365, Note_on_c, 9, 59, 0
1, 39368, Control_c, 5, 1, 16
1, 39374, Control_c, 5, 1, 26
1, 39377, Note_on_c, 2, 49, 0
1, 39380, Control_c, 5, 1, 40
1, 39381, Note_on_c, 2, 61, 0
1, 39382, Note_on_c, 2, 57, 0
1, 39386, Note_on_c, 2, 52, 0
1, 39386, Control_c, 5, 1, 52
1, 39392, Control_c, 5, 1, 61
1, 39392, Note_on_c, 9, 69, 87
1, 39394, Note_on_c, 9, 51, 78
1, 39396, Note_on_c, 9, 69, 0
1, 39398, Note_on_c, 9, 51, 0
1, 39398, Control_c, 5, 1, 70
1, 39404, Note_on_c, 1, 31, 0
1, 39404, Control_c, 5, 1, 76
1, 39410, Control_c, 5, 1, 81
1, 39416, Control_c, 5, 1, 84
1, 39422, Note_on_c, 2, 49, 78
1, 39423, Note_on_c, 2, 57, 76
1, 39423, Note_on_c, 2, 61, 77
1, 39423, Control_c, 5, 1, 85
1, 39424, Note_on_c, 2, 52, 78
1, 39424, Note_on_c, 9, 44, 125
1, 39425, Note_on_c, 1, 31, 90
1, 39427, Note_on_c, 9, 59, 77
1, 39428, Note_on_c, 9, 44, 0
1, 39431, Note_on_c, 9, 59, 0
1, 39433, Control_c, 5, 1, 79
1, 39434, Note_on_c, 1, 31, 0
1, 39439, Control_c, 5, 1, 71
1, 39445, Control_c, 5, 1, 55
1, 39451, Control_c, 5, 1, 41
1, 39456, Note_on_c, 1, 31, 104
1, 39456, Note_on_c, 9, 42, 115
1, 39456, Note_on_c, 9, 38, 125
1, 39457, Control_c, 5, 1, 26
1, 39458, Note_on_c, 5, 79, 0
1, 39458, Note_on_c, 5, 77, 59
1, 39460, Note_on_c, 9, 38, 0
1, 39460, Note_on_c, 9, 42, 0
1, 39463, Control_c, 5, 1, 11
1, 39469, Control_c, 5, 1, 0
1, 39497, Note_on_c, 1, 31, 0
1, 39512, Note_on_c, 3, 67, 47
1, 39517, Note_on_c, 5, 77, 0
1, 39520, Note_on_c, 1, 31, 85
1, 39520, Note_on_c, 9, 69, 87
1, 39520, Note_on_c, 9, 44, 115
1, 39523, Note_on_c, 5, 74, 54
1, 39524, Note_on_c, 9, 44, 0
1, 39524, Note_on_c, 9, 69, 0
1, 39524, Note_on_c, 3, 67, 0
1, 39528, Note_on_c, 1, 31, 0
1, 39530, Note_on_c, 3, 70, 43
1, 39538, Note_on_c, 2, 57, 0
1, 39538, Note_on_c, 5, 74, 0
1, 39540, Note_on_c, 2, 61, 0
1, 39544, Note_on_c, 3, 70, 0
1, 39547, Note_on_c, 5, 77, 62
1, 39550, Note_on_c, 2, 52, 0
1, 39551, Note_on_c, 1, 31, 104
1, 39552, Note_on_c, 6, 61, 0
1, 39552, Note_on_c, 3, 67, 46
1, 39552, Note_on_c, 6, 60, 50
1, 39552, Note_on_c, 9, 59, 73
1, 39552, Note_on_c, 9, 35, 125
1, 39552, Note_on_c, 9, 42, 115
1, 39553, Note_on_c, 2, 53, 79
1, 39553, Note_on_c, 2, 57, 73
1, 39553, Note_on_c, 2, 60, 72
1, 39553, Note_on_c, 2, 48, 78
1, 39556, Note_on_c, 9, 42, 0
1, 39556, Note_on_c, 9, 35, 0
1, 39556, Note_on_c, 9, 59, 0
1, 39560, Note_on_c, 2, 49, 0
1, 39570, Note_on_c, 3, 70, 49
1, 39573, Note_on_c, 3, 67, 0
1, 39574, Note_on_c, 5, 77, 0
1, 39576, Note_on_c, 2, 53, 0
1, 39576, Note_on_c, 2, 60, 0
1, 39577, Note_on_c, 2, 57, 0
1, 39578, Note_on_c, 2, 48, 0
1, 39584, Note_on_c, 9, 69, 87
1, 39588, Note_on_c, 9, 69, 0
1, 39591, Note_on_c, 3, 70, 0
1, 39598, Note_on_c, 3, 67, 52
1, 39606, Note_on_c, 1, 31, 0
1, 39611, Note_on_c, 3, 70, 52
1, 39613, Note_on_c, 5, 79, 72
1, 39616, Note_on_c, 3, 67, 0
1, 39616, Note_on_c, 2, 53, 78
1, 39616, Note_on_c, 2, 57, 74
1, 39616, Note_on_c, 2, 60, 73
1, 39616, Note_on_c, 2, 48, 78
1, 39616, Note_on_c, 9, 69, 87
1, 39616, Note_on_c, 9, 44, 125
1, 39618, Note_on_c, 1, 31, 93
1, 39618, Note_on_c, 9, 38, 65
1, 39620, Note_on_c, 9, 44, 0
1, 39620, Note_on_c, 9, 69, 0
1, 39622, Note_on_c, 9, 38, 0
1, 39629, Note_on_c, 1, 31, 0
1, 39630, Note_on_c, 5, 79, 0
1, 39634, Note_on_c, 3, 70, 0
1, 39638, Note_on_c, 3, 67, 52
1, 39648, Note_on_c, 1, 31, 107
1, 39648, Note_on_c, 9, 42, 105
1, 39648, Note_on_c, 9, 38, 125
1, 39648, Note_on_c, 9, 59, 89
1, 39650, Note_on_c, 3, 70, 50
1, 39652, Note_on_c, 9, 59, 0
1, 39652, Note_on_c, 9, 38, 0
1, 39652, Note_on_c, 9, 42, 0
1, 39657, Note_on_c, 3, 67, 0
1, 39676, Note_on_c, 3, 70, 0
1, 39678, Note_on_c, 3, 67, 60
1, 39690, Note_on_c, 2, 53, 0
1, 39691, Note_on_c, 1, 31, 0
1, 39691, Note_on_c, 3, 70, 48
1, 39692, Note_on_c, 2, 60, 0
1, 39694, Note_on_c, 2, 57, 0
1, 39698, Note_on_c, 3, 67, 0
1, 39699, Control_c, 5, 1, 10
1, 39705, Control_c, 5, 1, 24
1, 39708, Note_on_c, 2, 48, 0
1, 39708, Note_on_c, 5, 79, 79
1, 39711, Note_on_c, 6, 60, 0
1, 39711, Note_on_c, 2, 55, 80
1, 39711, Control_c, 5, 1, 35
1, 39711, Note_on_c, 6, 59, 58
1, 39712, Note_on_c, 1, 31, 98
1, 39712, Note_on_c, 2, 50, 78
1, 39712, Note_on_c, 9, 38, 65
1, 39712, Note_on_c, 9, 69, 88
1, 39712, Note_on_c, 9, 44, 115
1, 39713, Note_on_c, 2, 59, 74
1, 39716, Note_on_c, 9, 44, 0
1, 39716, Note_on_c, 9, 69, 0
1, 39716, Note_on_c, 3, 70, 0
1, 39716, Note_on_c, 9, 38, 0
1, 39717, Note_on_c, 3, 67, 58
1, 39717, Control_c, 5, 1, 51
1, 39723, Control_c, 5, 1, 60
1, 39726, Note_on_c, 1, 31, 0
1, 39729, Control_c, 5, 1, 68
1, 39736, Note_on_c, 3, 70, 57
1, 39736, Control_c, 5, 1, 71
1, 39741, Note_on_c, 3, 67, 0
1, 39742, Control_c, 5, 1, 73
1, 39743, Note_on_c, 1, 31, 108
1, 39744, Note_on_c, 9, 35, 125
1, 39744, Note_on_c, 9, 42, 115
1, 39748, Note_on_c, 9, 42, 0
1, 39748, Note_on_c, 9, 35, 0
1, 39754, Control_c, 5, 1, 70
1, 39759, Note_on_c, 3, 70, 0
1, 39761, Control_c, 5, 1, 65
1, 39762, Note_on_c, 3, 67, 60
1, 39767, Control_c, 5, 1, 57
1, 39773, Control_c, 5, 1, 50
1, 39776, Note_on_c, 9, 69, 88
1, 39777, Note_on_c, 3, 70, 46
1, 39779, Control_c, 5, 1, 37
1, 39780, Note_on_c, 9, 69, 0
1, 39785, Note_on_c, 3, 67, 0
1, 39785, Control_c, 5, 1, 25
1, 39792, Control_c, 5, 1, 14
1, 39793, Note_on_c, 1, 31, 0
1, 39798, Control_c, 5, 1, 5
1, 39804, Control_c, 5, 1, 0
1, 39808, Note_on_c, 9, 38, 65
1, 39808, Note_on_c, 9, 44, 125
1, 39808, Note_on_c, 9, 69, 88
1, 39809, Note_on_c, 1, 31, 92
1, 39809, Note_on_c, 3, 67, 61
1, 39810, Note_on_c, 3, 70, 0
1, 39812, Note_on_c, 9, 69, 0
1, 39812, Note_on_c, 9, 38, 0
1, 39812, Note_on_c, 9, 44, 0
1, 39819, Note_on_c, 1, 31, 0
1, 39826, Note_on_c, 3, 70, 55
1, 39832, Note_on_c, 3, 67, 0
1, 39839, Note_on_c, 1, 31, 104
1, 39840, Note_on_c, 9, 42, 115
1, 39840, Note_on_c, 9, 38, 125
1, 39842, Note_on_c, 3, 67, 67
1, 39844, Note_on_c, 9, 38, 0
1, 39844, Note_on_c, 9, 42, 0
1, 39864, Note_on_c, 3, 70, 0
1, 39865, Note_on_c, 3, 67, 0
1, 39872, Note_on_c, 9, 69, 88
1, 39876, Note_on_c, 9, 69, 0
1, 39887, Note_on_c, 1, 31, 0
1, 39901, Note_on_c, 3, 67, 72
1, 39904, Note_on_c, 9, 69, 88
1, 39904, Note_on_c, 9, 46, 115
1, 39904, Note_on_c, 9, 38, 99
1, 39905, Note_on_c, 1, 31, 100
1, 39906, Note_on_c, 2, 50, 0
1, 39908, Note_on_c, 9, 38, 0
1, 39908, Note_on_c, 9, 69, 0
1, 39908, Note_on_c, 9, 46, 0
1, 39910, Note_on_c, 2, 55, 0
1, 39915, Note_on_c, 5, 79, 0
1, 39917, Note_on_c, 1, 31, 0
1, 39918, Note_on_c, 3, 67, 0
1, 39921, Note_on_c, 2, 59, 0
1, 39930, Note_on_c, 6, 59, 0
1, 39936, Note_on_c, 1, 31, 105
1, 39936, Note_on_c, 2, 53, 74
1, 39936, Note_on_c, 6, 62, 55
1, 39936, Note_on_c, 9, 35, 125
1, 39936, Note_on_c, 9, 43, 40
1, 39936, Note_on_c, 9, 41, 40
1, 39936, Note_on_c, 9, 42, 115
1, 39940, Note_on_c, 9, 42, 0
1, 39940, Note_on_c, 9, 41, 0
1, 39940, Note_on_c, 9, 35, 0
1, 39940, Note_on_c, 9, 43, 0
1, 39943, Note_on_c, 2, 53, 0
1, 39968, Note_on_c, 9, 69, 88
1, 39968, Note_on_c, 9, 41, 41
1, 39968, Note_on_c, 9, 43, 41
1, 39972, Note_on_c, 9, 43, 0
1, 39972, Note_on_c, 9, 69, 0
1, 39972, Note_on_c, 9, 41, 0
1, 39976, Pitch_bend_c, 5, 7936
1, 39977, Note_on_c, 1, 31, 0
1, 39977, Pitch_bend_c, 5, 7552
1, 39978, Pitch_bend_c, 5, 7424
1, 39979, Pitch_bend_c, 5, 7040
1, 39980, Pitch_bend_c, 5, 6912
1, 39981, Pitch_bend_c, 5, 6784
1, 39982, Pitch_bend_c, 5, 6400
1, 39983, Pitch_bend_c, 5, 6272
1, 39984, Pitch_bend_c, 5, 6144
1, 39985, Pitch_bend_c, 5, 6016
1, 39986, Pitch_bend_c, 5, 5888
1, 39987, Pitch_bend_c, 5, 5760
1, 39988, Pitch_bend_c, 5, 5632
1, 39989, Pitch_bend_c, 5, 5504
1, 39990, Pitch_bend_c, 5, 5376
1, 39991, Pitch_bend_c, 5, 5120
1, 39992, Pitch_bend_c, 5, 4992
1, 39993, Pitch_bend_c, 5, 4736
1, 39994, Pitch_bend_c, 5, 4480
1, 39995, Pitch_bend_c, 5, 4352
1, 39996, Pitch_bend_c, 5, 4224
1, 39998, Pitch_bend_c, 5, 3968
1, 39999, Note_on_c, 2, 53, 85
1, 39999, Pitch_bend_c, 5, 3712
1, 40000, Note_on_c, 2, 50, 80
1, 40000, Note_on_c, 2, 58, 79
1, 40000, Note_on_c, 2, 62, 77
1, 40000, Note_on_c, 5, 74, 94
1, 40000, Note_on_c, 9, 41, 42
1, 40000, Note_on_c, 9, 44, 125
1, 40000, Note_on_c, 9, 43, 42
1, 40000, Note_on_c, 9, 69, 89
1, 40001, Pitch_bend_c, 5, 3584
1, 40002, Note_on_c, 1, 31, 105
1, 40002, Pitch_bend_c, 5, 3456
1, 40003, Pitch_bend_c, 5, 3328
1, 40004, Note_on_c, 9, 69, 0
1, 40004, Note_on_c, 9, 43, 0
1, 40004, Note_on_c, 9, 44, 0
1, 40004, Note_on_c, 9, 41, 0
1, 40005, Pitch_bend_c, 5, 3200
1, 40007, Pitch_bend_c, 5, 3072
1, 40016, Pitch_bend_c, 5, 3200
1, 40017, Pitch_bend_c, 5, 3328
1, 40018, Pitch_bend_c, 5, 3584
1, 40019, Pitch_bend_c, 5, 3840
1, 40020, Pitch_bend_c, 5, 3968
1, 40021, Pitch_bend_c, 5, 4480
1, 40022, Pitch_bend_c, 5, 4608
1, 40023, Pitch_bend_c, 5, 4992
1, 40024, Pitch_bend_c, 5, 5120
1, 40025, Pitch_bend_c, 5, 5504
1, 40026, Pitch_bend_c, 5, 5888
1, 40027, Pitch_bend_c, 5, 6144
1, 40028, Pitch_bend_c, 5, 6400
1, 40029, Note_on_c, 1, 31, 0
1, 40029, Pitch_bend_c, 5, 6528
1, 40030, Pitch_bend_c, 5, 6656
1, 40031, Note_on_c, 1, 31, 97
1, 40031, Pitch_bend_c, 5, 7040
1, 40032, Pitch_bend_c, 5, 7168
1, 40032, Note_on_c, 9, 42, 105
1, 40032, Note_on_c, 9, 41, 44
1, 40032, Note_on_c, 9, 43, 44
1, 40032, Note_on_c, 9, 38, 125
1, 40033, Pitch_bend_c, 5, 7296
1, 40034, Pitch_bend_c, 5, 7424
1, 40035, Pitch_bend_c, 5, 7680
1, 40036, Note_on_c, 9, 38, 0
1, 40036, Note_on_c, 9, 41, 0
1, 40036, Note_on_c, 9, 42, 0
1, 40036, Note_on_c, 9, 43, 0
1, 40036, Pitch_bend_c, 5, 8192
1, 40037, Note_on_c, 3, 67, 63
1, 40038, Note_on_c, 3, 69, 59
1, 40042, Note_on_c, 3, 69, 0
1, 40043, Note_on_c, 3, 67, 0
1, 40064, Note_on_c, 9, 41, 45
1, 40064, Note_on_c, 9, 43, 45
1, 40068, Note_on_c, 9, 43, 0
1, 40068, Note_on_c, 9, 41, 0
1, 40074, Note_on_c, 1, 31, 0
1, 40096, Note_on_c, 9, 69, 89
1, 40096, Note_on_c, 9, 44, 115
1, 40096, Note_on_c, 9, 43, 46
1, 40096, Note_on_c, 9, 41, 46
1, 40097, Note_on_c, 1, 31, 102
1, 40098, Note_on_c, 3, 67, 64
1, 40098, Note_on_c, 9, 51, 78
1, 40100, Note_on_c, 9, 41, 0
1, 40100, Note_on_c, 9, 43, 0
1, 40100, Note_on_c, 9, 44, 0
1, 40100, Note_on_c, 9, 69, 0
1, 40102, Note_on_c, 9, 51, 0
1, 40103, Note_on_c, 3, 67, 0
1, 40111, Note_on_c, 1, 31, 0
1, 40120, Note_on_c, 2, 58, 0
1, 40123, Note_on_c, 2, 62, 0
1, 40124, Note_on_c, 3, 67, 74
1, 40128, Note_on_c, 2, 53, 0
1, 40128, Note_on_c, 6, 62, 0
1, 40128, Note_on_c, 1, 31, 103
1, 40128, Note_on_c, 2, 61, 73
1, 40128, Note_on_c, 6, 61, 59
1, 40128, Note_on_c, 9, 42, 115
1, 40128, Note_on_c, 9, 43, 47
1, 40128, Note_on_c, 9, 35, 125
1, 40128, Note_on_c, 9, 41, 47
1, 40129, Note_on_c, 2, 50, 0
1, 40129, Note_on_c, 5, 74, 0
1, 40129, Note_on_c, 2, 49, 78
1, 40129, Note_on_c, 2, 57, 73
1, 40129, Note_on_c, 5, 73, 67
1, 40130, Note_on_c, 2, 52, 77
1, 40130, Note_on_c, 9, 59, 95
1, 40132, Note_on_c, 9, 35, 0
1, 40132, Note_on_c, 9, 43, 0
1, 40132, Note_on_c, 9, 42, 0
1, 40132, Note_on_c, 9, 41, 0
1, 40134, Note_on_c, 9, 59, 0
1, 40140, Note_on_c, 3, 67, 0
1, 40145, Note_on_c, 2, 49, 0
1, 40146, Note_on_c, 5, 73, 0
1, 40149, Note_on_c, 2, 61, 0
1, 40150, Note_on_c, 2, 57, 0
1, 40154, Note_on_c, 2, 52, 0
1, 40160, Note_on_c, 9, 41, 49
1, 40160, Note_on_c, 9, 43, 49
1, 40160, Note_on_c, 9, 69, 89
1, 40164, Note_on_c, 9, 69, 0
1, 40164, Note_on_c, 9, 41, 0
1, 40164, Note_on_c, 9, 43, 0
1, 40167, Note_on_c, 1, 31, 0
1, 40190, Note_on_c, 2, 49, 78
1, 40191, Note_on_c, 2, 57, 76
1, 40191, Note_on_c, 2, 61, 77
1, 40192, Note_on_c, 1, 31, 101
1, 40192, Note_on_c, 2, 52, 78
1, 40192, Note_on_c, 9, 43, 50
1, 40192, Note_on_c, 9, 44, 125
1, 40192, Note_on_c, 9, 41, 50
1, 40193, Note_on_c, 5, 73, 75
1, 40194, Note_on_c, 3, 67, 94
1, 40196, Note_on_c, 9, 41, 0
1, 40196, Note_on_c, 9, 44, 0
1, 40196, Note_on_c, 9, 43, 0
1, 40206, Note_on_c, 1, 31, 0
1, 40212, Note_on_c, 3, 67, 0
1, 40214, Note_on_c, 5, 73, 0
1, 40224, Note_on_c, 1, 31, 106
1, 40224, Note_on_c, 9, 43, 51
1, 40224, Note_on_c, 9, 42, 115
1, 40224, Note_on_c, 9, 41, 51
1, 40224, Note_on_c, 9, 38, 125
1, 40225, Note_on_c, 9, 59, 86
1, 40227, Note_on_c, 5, 73, 45
1, 40228, Note_on_c, 9, 38, 0
1, 40228, Note_on_c, 9, 41, 0
1, 40228, Note_on_c, 9, 42, 0
1, 40228, Note_on_c, 9, 43, 0
1, 40229, Note_on_c, 9, 59, 0
1, 40249, Note_on_c, 5, 73, 0
1, 40256, Note_on_c, 9, 41, 52
1, 40256, Note_on_c, 9, 43, 52
1, 40260, Note_on_c, 9, 43, 0
1, 40260, Note_on_c, 9, 41, 0
1, 40280, Note_on_c, 1, 31, 0
1, 40281, Pitch_bend_c, 5, 8064
1, 40282, Pitch_bend_c, 5, 7808
1, 40283, Pitch_bend_c, 5, 7680
1, 40284, Pitch_bend_c, 5, 7424
1, 40285, Pitch_bend_c, 5, 7296
1, 40286, Pitch_bend_c, 5, 7168
1, 40287, Pitch_bend_c, 5, 7040
1, 40288, Note_on_c, 1, 29, 95
1, 40288, Pitch_bend_c, 5, 6912
1, 40288, Note_on_c, 9, 44, 115
1, 40288, Note_on_c, 9, 41, 54
1, 40288, Note_on_c, 9, 43, 54
1, 40288, Note_on_c, 9, 69, 89
1, 40289, Pitch_bend_c, 5, 6784
1, 40290, Pitch_bend_c, 5, 6656
1, 40291, Pitch_bend_c, 5, 6400
1, 40292, Note_on_c, 9, 69, 0
1, 40292, Note_on_c, 9, 44, 0
1, 40292, Note_on_c, 9, 43, 0
1, 40292, Note_on_c, 9, 41, 0
1, 40292, Pitch_bend_c, 5, 6272
1, 40293, Pitch_bend_c, 5, 6144
1, 40294, Pitch_bend_c, 5, 5888
1, 40295, Pitch_bend_c, 5, 5632
1, 40296, Pitch_bend_c, 5, 5120
1, 40297, Pitch_bend_c, 5, 4992
1, 40298, Pitch_bend_c, 5, 4608
1, 40299, Pitch_bend_c, 5, 4480
1, 40300, Pitch_bend_c, 5, 4224
1, 40301, Pitch_bend_c, 5, 3840
1, 40302, Pitch_bend_c, 5, 3712
1, 40303, Pitch_bend_c, 5, 3584
1, 40304, Pitch_bend_c, 5, 3200
1, 40305, Pitch_bend_c, 5, 3072
1, 40306, Note_on_c, 2, 57, 0
1, 40306, Pitch_bend_c, 5, 2816
1, 40307, Pitch_bend_c, 5, 2560
1, 40308, Note_on_c, 2, 61, 0
1, 40308, Pitch_bend_c, 5, 2304
1, 40309, Pitch_bend_c, 5, 2176
1, 40310, Pitch_bend_c, 5, 2048
1, 40311, Pitch_bend_c, 5, 1920
1, 40312, Pitch_bend_c, 5, 1792
1, 40313, Pitch_bend_c, 5, 1664
1, 40314, Pitch_bend_c, 5, 1536
1, 40318, Note_on_c, 2, 52, 0
1, 40318, Note_on_c, 1, 29, 0
1, 40320, Note_on_c, 6, 61, 0
1, 40320, Note_on_c, 1, 31, 107
1, 40320, Note_on_c, 6, 60, 50
1, 40320, Note_on_c, 9, 41, 55
1, 40320, Note_on_c, 9, 35, 125
1, 40320, Note_on_c, 9, 42, 115
1, 40320, Note_on_c, 9, 43, 55
1, 40321, Note_on_c, 2, 53, 79
1, 40321, Note_on_c, 2, 60, 72
1, 40321, Note_on_c, 2, 57, 73
1, 40321, Note_on_c, 2, 48, 78
1, 40321, Note_on_c, 3, 67, 64
1, 40321, Note_on_c, 5, 72, 75
1, 40322, Pitch_bend_c, 5, 1664
1, 40323, Pitch_bend_c, 5, 1792
1, 40324, Note_on_c, 9, 43, 0
1, 40324, Note_on_c, 9, 42, 0
1, 40324, Note_on_c, 9, 35, 0
1, 40324, Note_on_c, 9, 41, 0
1, 40324, Pitch_bend_c, 5, 1920
1, 40325, Pitch_bend_c, 5, 2048
1, 40326, Pitch_bend_c, 5, 2176
1, 40327, Pitch_bend_c, 5, 2304
1, 40328, Note_on_c, 2, 49, 0
1, 40328, Pitch_bend_c, 5, 2560
1, 40329, Pitch_bend_c, 5, 2688
1, 40330, Pitch_bend_c, 5, 3072
1, 40331, Pitch_bend_c, 5, 3200
1, 40332, Pitch_bend_c, 5, 3584
1, 40333, Pitch_bend_c, 5, 3712
1, 40334, Pitch_bend_c, 5, 4224
1, 40335, Pitch_bend_c, 5, 4352
1, 40336, Pitch_bend_c, 5, 4864
1, 40337, Pitch_bend_c, 5, 5120
1, 40338, Pitch_bend_c, 5, 5504
1, 40339, Pitch_bend_c, 5, 6016
1, 40340, Note_on_c, 3, 67, 0
1, 40340, Pitch_bend_c, 5, 6272
1, 40341, Pitch_bend_c, 5, 6656
1, 40342, Pitch_bend_c, 5, 6912
1, 40343, Pitch_bend_c, 5, 7424
1, 40344, Note_on_c, 2, 53, 0
1, 40344, Note_on_c, 2, 60, 0
1, 40344, Pitch_bend_c, 5, 7552
1, 40345, Note_on_c, 2, 57, 0
1, 40345, Pitch_bend_c, 5, 7808
1, 40346, Note_on_c, 2, 48, 0
1, 40346, Pitch_bend_c, 5, 7936
1, 40347, Pitch_bend_c, 5, 8192
1, 40352, Note_on_c, 1, 31, 0
1, 40352, Note_on_c, 1, 31, 107
1, 40352, Note_on_c, 9, 41, 56
1, 40352, Note_on_c, 9, 69, 90
1, 40352, Note_on_c, 9, 43, 56
1, 40356, Note_on_c, 9, 43, 0
1, 40356, Note_on_c, 9, 41, 0
1, 40356, Note_on_c, 9, 69, 0
1, 40384, Note_on_c, 1, 31, 0
1, 40384, Note_on_c, 1, 31, 100
1, 40384, Note_on_c, 2, 60, 73
1, 40384, Note_on_c, 2, 57, 74
1, 40384, Note_on_c, 2, 48, 78
1, 40384, Note_on_c, 2, 53, 78
1, 40384, Note_on_c, 9, 41, 57
1, 40384, Note_on_c, 9, 69, 90
1, 40384, Note_on_c, 9, 43, 57
1, 40384, Note_on_c, 9, 44, 125
1, 40387, Note_on_c, 3, 67, 49
1, 40388, Note_on_c, 9, 44, 0
1, 40388, Note_on_c, 9, 69, 0
1, 40388, Note_on_c, 9, 41, 0
1, 40388, Note_on_c, 9, 43, 0
1, 40392, Note_on_c, 3, 67, 0
1, 40396, Note_on_c, 1, 31, 0
1, 40415, Note_on_c, 1, 31, 105
1, 40416, Note_on_c, 9, 43, 59
1, 40416, Note_on_c, 9, 41, 59
1, 40416, Note_on_c, 9, 42, 105
1, 40416, Note_on_c, 9, 38, 125
1, 40418, Note_on_c, 9, 59, 59
1, 40420, Note_on_c, 9, 38, 0
1, 40420, Note_on_c, 9, 41, 0
1, 40420, Note_on_c, 9, 43, 0
1, 40420, Note_on_c, 9, 42, 0
1, 40422, Note_on_c, 5, 72, 0
1, 40422, Note_on_c, 9, 59, 0
1, 40422, Note_on_c, 5, 70, 60
1, 40423, Note_on_c, 3, 67, 58
1, 40434, Note_on_c, 3, 67, 0
1, 40440, Note_on_c, 5, 70, 0
1, 40443, Note_on_c, 1, 31, 0
1, 40448, Note_on_c, 1, 31, 107
1, 40448, Note_on_c, 9, 43, 60
1, 40448, Note_on_c, 9, 41, 60
1, 40452, Note_on_c, 9, 41, 0
1, 40452, Note_on_c, 9, 43, 0
1, 40458, Note_on_c, 2, 53, 0
1, 40460, Note_on_c, 2, 60, 0
1, 40462, Note_on_c, 2, 57, 0
1, 40476, Note_on_c, 2, 48, 0
1, 40479, Note_on_c, 6, 60, 0
1, 40479, Note_on_c, 2, 55, 80
1, 40479, Note_on_c, 6, 59, 58
1, 40480, Note_on_c, 1, 31, 0
1, 40480, Note_on_c, 1, 31, 98
1, 40480, Note_on_c, 2, 50, 78
1, 40480, Note_on_c, 5, 67, 52
1, 40480, Note_on_c, 9, 41, 61
1, 40480, Note_on_c, 9, 43, 61
1, 40480, Note_on_c, 9, 44, 115
1, 40480, Note_on_c, 9, 69, 90
1, 40481, Note_on_c, 2, 59, 74
1, 40484, Note_on_c, 9, 69, 0
1, 40484, Note_on_c, 9, 44, 0
1, 40484, Note_on_c, 9, 41, 0
1, 40484, Note_on_c, 9, 43, 0
1, 40487, Note_on_c, 3, 67, 58
1, 40493, Note_on_c, 1, 31, 0
1, 40504, Note_on_c, 5, 67, 0
1, 40511, Note_on_c, 9, 59, 88
1, 40512, Note_on_c, 1, 31, 104
1, 40512, Note_on_c, 9, 43, 62
1, 40512, Note_on_c, 9, 35, 125
1, 40512, Note_on_c, 9, 42, 115
1, 40512, Note_on_c, 9, 41, 62
1, 40515, Note_on_c, 9, 59, 0
1, 40515, Note_on_c, 3, 67, 0
1, 40516, Note_on_c, 9, 43, 0
1, 40516, Note_on_c, 9, 42, 0
1, 40516, Note_on_c, 9, 35, 0
1, 40516, Note_on_c, 9, 41, 0
1, 40520, Note_on_c, 5, 67, 32
1, 40544, Note_on_c, 1, 31, 0
1, 40544, Note_on_c, 1, 31, 107
1, 40544, Note_on_c, 9, 43, 64
1, 40544, Note_on_c, 9, 41, 64
1, 40544, Note_on_c, 9, 69, 90
1, 40548, Note_on_c, 9, 69, 0
1, 40548, Note_on_c, 9, 41, 0
1, 40548, Note_on_c, 9, 43, 0
1, 40567, Note_on_c, 5, 67, 0
1, 40575, Note_on_c, 3, 73, 114
1, 40576, Note_on_c, 1, 31, 0
1, 40576, Note_on_c, 1, 31, 102
1, 40576, Note_on_c, 9, 38, 66
1, 40576, Note_on_c, 9, 43, 65
1, 40576, Note_on_c, 9, 41, 65
1, 40576, Note_on_c, 9, 44, 125
1, 40576, Note_on_c, 9, 69, 90
1, 40580, Note_on_c, 9, 69, 0
1, 40580, Note_on_c, 9, 41, 0
1, 40580, Note_on_c, 9, 43, 0
1, 40580, Note_on_c, 9, 38, 0
1, 40580, Note_on_c, 9, 44, 0
1, 40593, Note_on_c, 1, 31, 0
1, 40597, Note_on_c, 3, 73, 0
1, 40597, Note_on_c, 3, 72, 72
1, 40608, Note_on_c, 1, 31, 106
1, 40608, Note_on_c, 9, 38, 125
1, 40608, Note_on_c, 9, 42, 115
1, 40608, Note_on_c, 9, 43, 66
1, 40608, Note_on_c, 9, 41, 66
1, 40612, Note_on_c, 9, 41, 0
1, 40612, Note_on_c, 9, 38, 0
1, 40612, Note_on_c, 9, 43, 0
1, 40612, Note_on_c, 9, 42, 0
1, 40638, Note_on_c, 1, 31, 0
1, 40640, Note_on_c, 1, 31, 107
1, 40640, Note_on_c, 3, 70, 72
1, 40640, Note_on_c, 9, 41, 67
1, 40640, Note_on_c, 9, 43, 67
1, 40640, Note_on_c, 9, 69, 90
1, 40641, Note_on_c, 9, 38, 66
1, 40644, Note_on_c, 9, 69, 0
1, 40644, Note_on_c, 9, 43, 0
1, 40644, Note_on_c, 9, 41, 0
1, 40645, Note_on_c, 9, 38, 0
1, 40646, Note_on_c, 3, 72, 0
1, 40669, Note_on_c, 3, 70, 0
1, 40671, Note_on_c, 3, 67, 62
1, 40672, Note_on_c, 1, 31, 0
1, 40672, Note_on_c, 9, 44, 115
1, 40672, Note_on_c, 9, 41, 69
1, 40672, Note_on_c, 9, 69, 90
1, 40672, Note_on_c, 9, 38, 66
1, 40672, Note_on_c, 9, 43, 69
1, 40674, Note_on_c, 2, 50, 0
1, 40674, Note_on_c, 1, 29, 102
1, 40676, Note_on_c, 9, 69, 0
1, 40676, Note_on_c, 9, 43, 0
1, 40676, Note_on_c, 9, 41, 0
1, 40676, Note_on_c, 9, 38, 0
1, 40676, Note_on_c, 9, 44, 0
1, 40677, Note_on_c, 5, 67, 29
1, 40678, Note_on_c, 2, 55, 0
1, 40686, Note_on_c, 1, 29, 0
1, 40688, Note_on_c, 1, 30, 97
1, 40689, Note_on_c, 2, 59, 0
1, 40691, Note_on_c, 3, 67, 0
1, 40694, Note_on_c, 5, 67, 0
1, 40696, Note_on_c, 0, 48, 115
1, 40698, Note_on_c, 6, 59, 0
1, 40699, Note_on_c, 0, 53, 124
1, 40702, Note_on_c, 1, 30, 0
1, 40702, Note_on_c, 0, 60, 125
1, 40702, Note_on_c, 0, 57, 127
1, 40703, Note_on_c, 0, 65, 120
1, 40704, Note_on_c, 1, 31, 111
1, 40704, Note_on_c, 2, 60, 78
1, 40704, Note_on_c, 2, 53, 77
1, 40704, Note_on_c, 2, 43, 83
1, 40704, Note_on_c, 2, 57, 77
1, 40704, Note_on_c, 6, 65, 94
1, 40704, Note_on_c, 6, 69, 95
1, 40704, Note_on_c, 9, 41, 80
1, 40704, Note_on_c, 9, 43, 70
1, 40704, Note_on_c, 9, 49, 127
1, 40704, Note_on_c, 9, 35, 125
1, 40704, Note_on_c, 14, 69, 83
1, 40704, Note_on_c, 14, 65, 94
1, 40708, Note_on_c, 9, 35, 0
1, 40708, Note_on_c, 9, 49, 0
1, 40708, Note_on_c, 9, 43, 0
1, 40708, Note_on_c, 9, 41, 0
1, 40709, Note_on_c, 14, 69, 0
1, 40715, Note_on_c, 6, 69, 0
1, 40717, Note_on_c, 14, 65, 0
1, 40717, Note_on_c, 6, 65, 0
1, 40719, Note_on_c, 2, 43, 0
1, 40720, Note_on_c, 2, 60, 0
1, 40721, Note_on_c, 2, 57, 0
1, 40722, Note_on_c, 2, 53, 0
1, 40730, Note_on_c, 1, 31, 0
1, 40736, Note_on_c, 9, 43, 71
1, 40736, Note_on_c, 9, 69, 91
1, 40736, Note_on_c, 9, 41, 71
1, 40740, Note_on_c, 9, 41, 0
1, 40740, Note_on_c, 9, 69, 0
1, 40740, Note_on_c, 9, 43, 0
1, 40753, Note_on_c, 0, 65, 0
1, 40755, Note_on_c, 0, 65, 127
1, 40755, Pitch_bend_c, 5, 8064
1, 40756, Pitch_bend_c, 5, 7936
1, 40757, Note_on_c, 0, 60, 0
1, 40758, Note_on_c, 0, 60, 127
1, 40758, Pitch_bend_c, 5, 7808
1, 40759, Pitch_bend_c, 5, 7680
1, 40761, Pitch_bend_c, 5, 7552
1, 40762, Pitch_bend_c, 5, 7296
1, 40763, Pitch_bend_c, 5, 7168
1, 40765, Pitch_bend_c, 5, 6784
1, 40766, Note_on_c, 2, 43, 89
1, 40766, Note_on_c, 2, 60, 80
1, 40766, Pitch_bend_c, 5, 6528
1, 40767, Note_on_c, 1, 31, 104
1, 40767, Note_on_c, 2, 57, 79
1, 40767, Note_on_c, 2, 53, 81
1, 40767, Pitch_bend_c, 5, 6400
1, 40767, Note_on_c, 6, 69, 102
1, 40767, Note_on_c, 6, 65, 99
1, 40767, Note_on_c, 14, 65, 112
1, 40768, Pitch_bend_c, 5, 6272
1, 40768, Note_on_c, 9, 44, 125
1, 40768, Note_on_c, 9, 41, 72
1, 40768, Note_on_c, 9, 69, 91
1, 40768, Note_on_c, 9, 43, 72
1, 40769, Pitch_bend_c, 5, 6016
1, 40770, Pitch_bend_c, 5, 5888
1, 40770, Note_on_c, 9, 49, 120
1, 40771, Pitch_bend_c, 5, 5760
1, 40772, Note_on_c, 9, 43, 0
1, 40772, Note_on_c, 9, 69, 0
1, 40772, Note_on_c, 9, 41, 0
1, 40772, Note_on_c, 9, 44, 0
1, 40772, Pitch_bend_c, 5, 5504
1, 40773, Pitch_bend_c, 5, 5376
1, 40774, Note_on_c, 9, 49, 0
1, 40774, Pitch_bend_c, 5, 4992
1, 40775, Pitch_bend_c, 5, 4736
1, 40776, Pitch_bend_c, 5, 4480
1, 40777, Pitch_bend_c, 5, 4224
1, 40778, Pitch_bend_c, 5, 4096
1, 40779, Pitch_bend_c, 5, 3968
1, 40780, Pitch_bend_c, 5, 3840
1, 40781, Note_on_c, 1, 31, 0
1, 40782, Pitch_bend_c, 5, 3712
1, 40790, Pitch_bend_c, 5, 3840
1, 40793, Pitch_bend_c, 5, 3968
1, 40796, Pitch_bend_c, 5, 4096
1, 40798, Pitch_bend_c, 5, 4224
1, 40799, Pitch_bend_c, 5, 4352
1, 40800, Note_on_c, 1, 31, 110
1, 40800, Pitch_bend_c, 5, 4480
1, 40800, Note_on_c, 9, 43, 74
1, 40800, Note_on_c, 9, 41, 74
1, 40800, Note_on_c, 9, 42, 105
1, 40800, Note_on_c, 9, 38, 125
1, 40802, Pitch_bend_c, 5, 4608
1, 40803, Pitch_bend_c, 5, 4736
1, 40804, Note_on_c, 9, 38, 0
1, 40804, Note_on_c, 9, 42, 0
1, 40804, Note_on_c, 9, 41, 0
1, 40804, Note_on_c, 9, 43, 0
1, 40804, Pitch_bend_c, 5, 4864
1, 40805, Pitch_bend_c, 5, 4992
1, 40806, Pitch_bend_c, 5, 5376
1, 40808, Pitch_bend_c, 5, 5632
1, 40809, Pitch_bend_c, 5, 5760
1, 40810, Pitch_bend_c, 5, 6016
1, 40811, Pitch_bend_c, 5, 6144
1, 40812, Pitch_bend_c, 5, 6272
1, 40813, Pitch_bend_c, 5, 6400
1, 40814, Pitch_bend_c, 5, 6656
1, 40815, Pitch_bend_c, 5, 6784
1, 40816, Pitch_bend_c, 5, 7040
1, 40818, Pitch_bend_c, 5, 7296
1, 40820, Pitch_bend_c, 5, 7424
1, 40821, Pitch_bend_c, 5, 7680
1, 40822, Pitch_bend_c, 5, 7808
1, 40823, Pitch_bend_c, 5, 8064
1, 40825, Pitch_bend_c, 5, 8192
1, 40832, Note_on_c, 9, 43, 75
1, 40832, Note_on_c, 9, 41, 75
1, 40836, Note_on_c, 9, 41, 0
1, 40836, Note_on_c, 9, 43, 0
1, 40847, Note_on_c, 1, 31, 0
1, 40864, Note_on_c, 9, 69, 91
1, 40864, Note_on_c, 9, 41, 76
1, 40864, Note_on_c, 9, 44, 115
1, 40864, Note_on_c, 9, 43, 76
1, 40865, Note_on_c, 9, 51, 79
1, 40866, Note_on_c, 1, 29, 102
1, 40868, Note_on_c, 9, 43, 0
1, 40868, Note_on_c, 9, 44, 0
1, 40868, Note_on_c, 9, 41, 0
1, 40868, Note_on_c, 9, 69, 0
1, 40869, Note_on_c, 9, 51, 0
1, 40876, Note_on_c, 2, 57, 0
1, 40878, Note_on_c, 1, 29, 0
1, 40880, Note_on_c, 6, 65, 0
1, 40880, Note_on_c, 1, 30, 97
1, 40881, Note_on_c, 14, 65, 0
1, 40882, Note_on_c, 2, 60, 0
1, 40884, Note_on_c, 6, 69, 0
1, 40888, Note_on_c, 2, 53, 0
1, 40890, Note_on_c, 2, 43, 0
1, 40892, Note_on_c, 0, 53, 0
1, 40893, Note_on_c, 1, 30, 0
1, 40895, Note_on_c, 1, 31, 111
1, 40896, Note_on_c, 0, 53, 127
1, 40896, Note_on_c, 2, 60, 78
1, 40896, Note_on_c, 2, 57, 80
1, 40896, Note_on_c, 2, 65, 79
1, 40896, Note_on_c, 6, 69, 91
1, 40896, Note_on_c, 6, 65, 89
1, 40896, Note_on_c, 9, 41, 77
1, 40896, Note_on_c, 9, 43, 77
1, 40896, Note_on_c, 9, 35, 125
1, 40896, Note_on_c, 9, 42, 115
1, 40896, Note_on_c, 14, 69, 97
1, 40896, Note_on_c, 14, 65, 97
1, 40897, Note_on_c, 2, 43, 83
1, 40897, Note_on_c, 6, 72, 93
1, 40897, Note_on_c, 9, 49, 120
1, 40898, Note_on_c, 0, 57, 0
1, 40898, Note_on_c, 0, 60, 0
1, 40898, Note_on_c, 0, 57, 127
1, 40899, Note_on_c, 0, 60, 127
1, 40900, Note_on_c, 9, 42, 0
1, 40900, Note_on_c, 9, 35, 0
1, 40900, Note_on_c, 0, 65, 0
1, 40900, Note_on_c, 9, 43, 0
1, 40900, Note_on_c, 9, 41, 0
1, 40900, Note_on_c, 0, 65, 127
1, 40901, Note_on_c, 9, 49, 0
1, 40911, Note_on_c, 6, 65, 0
1, 40912, Note_on_c, 6, 72, 0
1, 40913, Note_on_c, 6, 69, 0
1, 40913, Note_on_c, 14, 69, 0
1, 40914, Note_on_c, 14, 65, 0
1, 40917, Note_on_c, 2, 57, 0
1, 40919, Note_on_c, 2, 60, 0
1, 40919, Note_on_c, 2, 43, 0
1, 40920, Note_on_c, 2, 65, 0
1, 40926, Note_on_c, 1, 31, 0
1, 40928, Note_on_c, 9, 69, 91
1, 40928, Note_on_c, 9, 43, 79
1, 40928, Note_on_c, 9, 41, 79
1, 40932, Note_on_c, 9, 41, 0
1, 40932, Note_on_c, 9, 43, 0
1, 40932, Note_on_c, 9, 69, 0
1, 40953, Note_on_c, 0, 65, 0
1, 40956, Note_on_c, 0, 65, 127
1, 40958, Note_on_c, 0, 60, 0
1, 40958, Note_on_c, 6, 69, 102
1, 40958, Note_on_c, 6, 65, 97
1, 40958, Note_on_c, 6, 72, 109
1, 40959, Note_on_c, 0, 60, 127
1, 40959, Note_on_c, 1, 31, 100
1, 40959, Note_on_c, 2, 43, 96
1, 40959, Note_on_c, 14, 65, 104
1, 40959, Note_on_c, 14, 69, 112
1, 40960, Note_on_c, 0, 57, 0
1, 40960, Note_on_c, 2, 60, 84
1, 40960, Note_on_c, 2, 65, 84
1, 40960, Note_on_c, 2, 57, 84
1, 40960, Note_on_c, 9, 41, 80
1, 40960, Note_on_c, 9, 44, 125
1, 40960, Note_on_c, 9, 43, 80
1, 40961, Note_on_c, 0, 57, 127
1, 40961, Note_on_c, 9, 49, 105
1, 40964, Note_on_c, 9, 43, 0
1, 40964, Note_on_c, 9, 44, 0
1, 40964, Note_on_c, 9, 41, 0
1, 40965, Note_on_c, 9, 49, 0
1, 40969, Note_on_c, 1, 31, 0
1, 40991, Note_on_c, 1, 31, 111
1, 40992, Note_on_c, 9, 43, 81
1, 40992, Note_on_c, 9, 42, 115
1, 40992, Note_on_c, 9, 41, 81
1, 40992, Note_on_c, 9, 38, 125
1, 40996, Note_on_c, 9, 38, 0
1, 40996, Note_on_c, 9, 41, 0
1, 40996, Note_on_c, 9, 43, 0
1, 40996, Note_on_c, 9, 42, 0
1, 41024, Note_on_c, 9, 43, 82
1, 41024, Note_on_c, 9, 41, 82
1, 41028, Note_on_c, 9, 41, 0
1, 41028, Note_on_c, 9, 43, 0
1, 41032, Note_on_c, 1, 31, 0
1, 41042, Note_on_c, 2, 57, 0
1, 41051, Note_on_c, 6, 65, 0
1, 41054, Note_on_c, 2, 60, 0
1, 41055, Note_on_c, 1, 29, 102
1, 41056, Note_on_c, 9, 41, 84
1, 41056, Note_on_c, 9, 44, 115
1, 41056, Note_on_c, 9, 69, 92
1, 41056, Note_on_c, 9, 43, 84
1, 41057, Note_on_c, 9, 51, 87
1, 41058, Note_on_c, 2, 65, 0
1, 41060, Note_on_c, 9, 43, 0
1, 41060, Note_on_c, 9, 69, 0
1, 41060, Note_on_c, 9, 44, 0
1, 41060, Note_on_c, 9, 41, 0
1, 41061, Note_on_c, 9, 51, 0
1, 41062, Note_on_c, 6, 72, 0
1, 41063, Note_on_c, 6, 69, 0
1, 41064, Note_on_c, 14, 65, 0
1, 41069, Note_on_c, 14, 69, 0
1, 41070, Note_on_c, 1, 29, 0
1, 41072, Note_on_c, 1, 30, 97
1, 41077, Note_on_c, 2, 43, 0
1, 41086, Note_on_c, 1, 30, 0
1, 41087, Note_on_c, 6, 72, 95
1, 41088, Note_on_c, 1, 31, 111
1, 41088, Note_on_c, 2, 69, 88
1, 41088, Note_on_c, 2, 65, 86
1, 41088, Note_on_c, 2, 72, 87
1, 41088, Note_on_c, 2, 43, 88
1, 41088, Note_on_c, 6, 77, 84
1, 41088, Note_on_c, 6, 69, 89
1, 41088, Note_on_c, 6, 76, 82
1, 41088, Note_on_c, 9, 43, 85
1, 41088, Note_on_c, 9, 41, 85
1, 41088, Note_on_c, 9, 42, 115
1, 41088, Note_on_c, 9, 35, 125
1, 41088, Note_on_c, 14, 72, 94
1, 41088, Note_on_c, 14, 69, 87
1, 41089, Note_on_c, 3, 65, 75
1, 41089, Note_on_c, 9, 57, 125
1, 41092, Note_on_c, 9, 35, 0
1, 41092, Note_on_c, 9, 42, 0
1, 41092, Note_on_c, 9, 41, 0
1, 41092, Note_on_c, 9, 43, 0
1, 41092, Note_on_c, 0, 53, 0
1, 41093, Note_on_c, 9, 57, 0
1, 41093, Note_on_c, 6, 76, 0
1, 41094, Note_on_c, 0, 53, 127
1, 41095, Note_on_c, 0, 57, 0
1, 41096, Note_on_c, 0, 60, 0
1, 41096, Note_on_c, 6, 77, 0
1, 41096, Note_on_c, 0, 57, 127
1, 41097, Note_on_c, 0, 65, 0
1, 41097, Note_on_c, 0, 60, 127
1, 41098, Note_on_c, 0, 65, 125
1, 41100, Note_on_c, 6, 72, 0
1, 41101, Note_on_c, 2, 69, 0
1, 41101, Note_on_c, 6, 69, 0
1, 41102, Note_on_c, 2, 65, 0
1, 41103, Note_on_c, 2, 72, 0
1, 41108, Note_on_c, 3, 65, 0
1, 41109, Note_on_c, 14, 69, 0
1, 41110, Note_on_c, 14, 72, 0
1, 41112, Note_on_c, 2, 43, 0
1, 41114, Note_on_c, 1, 31, 0
1, 41120, Note_on_c, 9, 41, 86
1, 41120, Note_on_c, 9, 43, 86
1, 41120, Note_on_c, 9, 69, 92
1, 41124, Note_on_c, 9, 69, 0
1, 41124, Note_on_c, 9, 43, 0
1, 41124, Note_on_c, 9, 41, 0
1, 41149, Note_on_c, 2, 69, 89
1, 41149, Note_on_c, 2, 72, 89
1, 41149, Note_on_c, 2, 65, 88
1, 41150, Note_on_c, 0, 65, 0
1, 41150, Note_on_c, 6, 69, 97
1, 41150, Note_on_c, 6, 72, 114
1, 41150, Note_on_c, 6, 77, 102
1, 41151, Note_on_c, 0, 65, 125
1, 41151, Note_on_c, 1, 31, 104
1, 41151, Note_on_c, 14, 69, 100
1, 41151, Note_on_c, 14, 72, 99
1, 41152, Note_on_c, 2, 43, 103
1, 41152, Note_on_c, 3, 65, 87
1, 41152, Note_on_c, 9, 43, 87
1, 41152, Note_on_c, 9, 69, 92
1, 41152, Note_on_c, 9, 44, 125
1, 41152, Note_on_c, 9, 41, 87
1, 41153, Note_on_c, 0, 60, 0
1, 41153, Note_on_c, 9, 49, 114
1, 41154, Note_on_c, 0, 60, 120
1, 41155, Note_on_c, 0, 57, 0
1, 41156, Note_on_c, 9, 69, 0
1, 41156, Note_on_c, 9, 43, 0
1, 41156, Note_on_c, 9, 41, 0
1, 41156, Note_on_c, 9, 44, 0
1, 41156, Note_on_c, 0, 57, 127
1, 41157, Note_on_c, 9, 49, 0
1, 41165, Note_on_c, 1, 31, 0
1, 41184, Note_on_c, 1, 31, 110
1, 41184, Note_on_c, 9, 43, 89
1, 41184, Note_on_c, 9, 38, 125
1, 41184, Note_on_c, 9, 42, 105
1, 41184, Note_on_c, 9, 41, 89
1, 41188, Note_on_c, 9, 41, 0
1, 41188, Note_on_c, 9, 42, 0
1, 41188, Note_on_c, 9, 38, 0
1, 41188, Note_on_c, 9, 43, 0
1, 41216, Note_on_c, 9, 41, 90
1, 41216, Note_on_c, 9, 43, 90
1, 41220, Note_on_c, 9, 43, 0
1, 41220, Note_on_c, 9, 41, 0
1, 41231, Note_on_c, 1, 31, 0
1, 41246, Pitch_bend_c, 5, 8064
1, 41247, Pitch_bend_c, 5, 7808
1, 41248, Pitch_bend_c, 5, 7552
1, 41248, Note_on_c, 9, 38, 75
1, 41248, Note_on_c, 9, 41, 91
1, 41248, Note_on_c, 9, 44, 115
1, 41248, Note_on_c, 9, 35, 75
1, 41248, Note_on_c, 9, 69, 92
1, 41248, Note_on_c, 9, 43, 91
1, 41249, Pitch_bend_c, 5, 7296
1, 41249, Note_on_c, 9, 51, 92
1, 41250, Note_on_c, 1, 29, 102
1, 41250, Pitch_bend_c, 5, 7168
1, 41251, Pitch_bend_c, 5, 7040
1, 41252, Note_on_c, 9, 43, 0
1, 41252, Note_on_c, 9, 69, 0
1, 41252, Note_on_c, 9, 38, 0
1, 41252, Note_on_c, 9, 35, 0
1, 41252, Note_on_c, 9, 41, 0
1, 41252, Note_on_c, 9, 44, 0
1, 41252, Pitch_bend_c, 5, 6912
1, 41253, Note_on_c, 9, 51, 0
1, 41253, Pitch_bend_c, 5, 6656
1, 41254, Pitch_bend_c, 5, 6528
1, 41255, Pitch_bend_c, 5, 6144
1, 41256, Note_on_c, 3, 65, 0
1, 41256, Pitch_bend_c, 5, 5632
1, 41257, Note_on_c, 14, 72, 0
1, 41257, Pitch_bend_c, 5, 5376
1, 41258, Note_on_c, 14, 69, 0
1, 41258, Pitch_bend_c, 5, 4864
1, 41259, Pitch_bend_c, 5, 4480
1, 41260, Pitch_bend_c, 5, 3968
1, 41261, Pitch_bend_c, 5, 3584
1, 41262, Note_on_c, 6, 69, 0
1, 41262, Note_on_c, 1, 29, 0
1, 41262, Pitch_bend_c, 5, 3328
1, 41263, Pitch_bend_c, 5, 2944
1, 41264, Note_on_c, 1, 30, 97
1, 41264, Pitch_bend_c, 5, 2560
1, 41264, Note_on_c, 9, 38, 75
1, 41265, Pitch_bend_c, 5, 2304
1, 41266, Note_on_c, 6, 77, 0
1, 41266, Pitch_bend_c, 5, 2176
1, 41267, Pitch_bend_c, 5, 1792
1, 41268, Note_on_c, 9, 38, 0
1, 41268, Pitch_bend_c, 5, 1536
1, 41269, Note_on_c, 6, 72, 0
1, 41269, Pitch_bend_c, 5, 1152
1, 41270, Pitch_bend_c, 5, 768
1, 41271, Pitch_bend_c, 5, 640
1, 41272, Pitch_bend_c, 5, 512
1, 41273, Pitch_bend_c, 5, 128
1, 41274, Pitch_bend_c, 5, 0
1, 41275, Note_on_c, 0, 48, 0
1, 41277, Note_on_c, 2, 65, 0
1, 41277, Note_on_c, 2, 69, 0
1, 41277, Note_on_c, 2, 72, 0
1, 41277, Note_on_c, 1, 30, 0
1, 41278, Note_on_c, 0, 60, 0
1, 41278, Note_on_c, 0, 65, 0
1, 41279, Note_on_c, 1, 31, 111
1, 41280, Note_on_c, 0, 57, 0
1, 41280, Note_on_c, 2, 72, 98
1, 41280, Note_on_c, 2, 69, 96
1, 41280, Note_on_c, 2, 77, 98
1, 41280, Note_on_c, 6, 69, 92
1, 41280, Note_on_c, 6, 77, 88
1, 41280, Note_on_c, 6, 72, 97
1, 41280, Note_on_c, 9, 38, 125
1, 41280, Note_on_c, 9, 43, 92
1, 41280, Note_on_c, 9, 42, 115
1, 41280, Note_on_c, 9, 49, 125
1, 41280, Note_on_c, 9, 41, 92
1, 41280, Note_on_c, 14, 77, 88
1, 41280, Note_on_c, 14, 69, 85
1, 41280, Note_on_c, 14, 72, 87
1, 41281, Note_on_c, 0, 53, 0
1, 41281, Note_on_c, 3, 65, 75
1, 41281, Note_on_c, 5, 79, 100
1, 41281, Note_on_c, 9, 59, 102
1, 41284, Note_on_c, 9, 38, 0
1, 41284, Note_on_c, 9, 41, 0
1, 41284, Note_on_c, 9, 43, 0
1, 41284, Note_on_c, 9, 49, 0
1, 41284, Note_on_c, 9, 42, 0
1, 41285, Note_on_c, 9, 59, 0
1, 41294, Note_on_c, 6, 77, 0
1, 41294, Pitch_bend_c, 5, 384
1, 41295, Note_on_c, 6, 69, 0
1, 41295, Note_on_c, 2, 72, 0
1, 41295, Note_on_c, 2, 69, 0
1, 41295, Pitch_bend_c, 5, 512
1, 41296, Note_on_c, 14, 72, 0
1, 41296, Pitch_bend_c, 5, 768
1, 41297, Note_on_c, 6, 72, 0
1, 41297, Pitch_bend_c, 5, 1152
1, 41298, Note_on_c, 2, 77, 0
1, 41298, Pitch_bend_c, 5, 1536
1, 41299, Note_on_c, 14, 69, 0
1, 41299, Pitch_bend_c, 5, 1792
1, 41300, Note_on_c, 14, 77, 0
1, 41300, Pitch_bend_c, 5, 2176
1, 41301, Pitch_bend_c, 5, 2304
1, 41302, Pitch_bend_c, 5, 2816
1, 41303, Pitch_bend_c, 5, 2944
1, 41304, Pitch_bend_c, 5, 3456
1, 41305, Note_on_c, 3, 65, 0
1, 41305, Pitch_bend_c, 5, 3712
1, 41306, Pitch_bend_c, 5, 3840
1, 41307, Pitch_bend_c, 5, 4096
1, 41308, Pitch_bend_c, 5, 4608
1, 41309, Pitch_bend_c, 5, 4992
1, 41310, Note_on_c, 1, 31, 0
1, 41310, Pitch_bend_c, 5, 5504
1, 41311, Pitch_bend_c, 5, 6144
1, 41312, Pitch_bend_c, 5, 6272
1, 41312, Note_on_c, 9, 69, 92
1, 41313, Pitch_bend_c, 5, 6528
1, 41314, Pitch_bend_c, 5, 7040
1, 41315, Pitch_bend_c, 5, 7424
1, 41316, Note_on_c, 9, 69, 0
1, 41316, Pitch_bend_c, 5, 7680
1, 41317, Pitch_bend_c, 5, 7936
1, 41318, Pitch_bend_c, 5, 8192
1, 41329, Note_on_c, 2, 43, 0
1, 41338, Note_on_c, 0, 55, 127
1, 41340, Note_on_c, 0, 60, 127
1, 41342, Note_on_c, 2, 76, 101
1, 41342, Note_on_c, 2, 48, 103
1, 41342, Note_on_c, 2, 67, 96
1, 41342, Note_on_c, 2, 72, 101
1, 41342, Note_on_c, 6, 76, 105
1, 41342, Note_on_c, 14, 76, 97
1, 41343, Note_on_c, 1, 36, 117
1, 41343, Note_on_c, 3, 48, 69
1, 41343, Note_on_c, 3, 64, 79
1, 41343, Note_on_c, 6, 72, 105
1, 41343, Note_on_c, 6, 67, 109
1, 41343, Note_on_c, 14, 67, 97
1, 41343, Note_on_c, 14, 72, 99
1, 41344, Note_on_c, 9, 41, 95
1, 41344, Note_on_c, 9, 35, 125
1, 41344, Note_on_c, 9, 43, 95
1, 41344, Note_on_c, 9, 57, 125
1, 41345, Note_on_c, 9, 59, 95
1, 41348, Note_on_c, 9, 57, 0
1, 41348, Note_on_c, 9, 43, 0
1, 41348, Note_on_c, 9, 35, 0
1, 41348, Note_on_c, 9, 41, 0
1, 41349, Note_on_c, 9, 59, 0
1, 41357, Pitch_bend_c, 5, 7552
1, 41358, Pitch_bend_c, 5, 6656
1, 41359, Pitch_bend_c, 5, 6144
1, 41360, Pitch_bend_c, 5, 4992
1, 41361, Pitch_bend_c, 5, 4352
1, 41362, Pitch_bend_c, 5, 3328
1, 41363, Pitch_bend_c, 5, 2816
1, 41364, Pitch_bend_c, 5, 1920
1, 41365, Pitch_bend_c, 5, 1536
1, 41366, Pitch_bend_c, 5, 1280
1, 41367, Pitch_bend_c, 5, 512
1, 41368, Pitch_bend_c, 5, 0
1, 41380, Pitch_bend_c, 5, 256
1, 41381, Pitch_bend_c, 5, 640
1, 41382, Pitch_bend_c, 5, 1024
1, 41383, Pitch_bend_c, 5, 2176
1, 41384, Pitch_bend_c, 5, 2944
1, 41385, Pitch_bend_c, 5, 4864
1, 41386, Pitch_bend_c, 5, 6912
1, 41387, Pitch_bend_c, 5, 7552
1, 41388, Pitch_bend_c, 5, 7936
1, 41389, Pitch_bend_c, 5, 8192
1, 41397, Note_on_c, 14, 72, 0
1, 41401, Note_on_c, 14, 76, 0
1, 41401, Note_on_c, 14, 67, 0
1, 41420, Pitch_bend_c, 5, 7808
1, 41421, Pitch_bend_c, 5, 7552
1, 41422, Pitch_bend_c, 5, 7296
1, 41423, Pitch_bend_c, 5, 7168
1, 41424, Pitch_bend_c, 5, 6656
1, 41425, Pitch_bend_c, 5, 6400
1, 41426, Pitch_bend_c, 5, 6016
1, 41427, Pitch_bend_c, 5, 5632
1, 41428, Pitch_bend_c, 5, 5376
1, 41429, Pitch_bend_c, 5, 5120
1, 41430, Pitch_bend_c, 5, 4992
1, 41434, Note_on_c, 0, 60, 0
1, 41434, Pitch_bend_c, 5, 5120
1, 41436, Pitch_bend_c, 5, 5504
1, 41437, Pitch_bend_c, 5, 5632
1, 41438, Note_on_c, 0, 55, 0
1, 41438, Pitch_bend_c, 5, 6016
1, 41439, Pitch_bend_c, 5, 6272
1, 41440, Pitch_bend_c, 5, 6400
1, 41440, Note_on_c, 9, 69, 93
1, 41440, Note_on_c, 9, 43, 105
1, 41440, Note_on_c, 14, 71, 104
1, 41440, Note_on_c, 14, 74, 100
1, 41440, Note_on_c, 14, 67, 97
1, 41441, Pitch_bend_c, 5, 6656
1, 41442, Pitch_bend_c, 5, 6912
1, 41443, Pitch_bend_c, 5, 7552
1, 41444, Note_on_c, 9, 43, 0
1, 41444, Note_on_c, 9, 69, 0
1, 41444, Pitch_bend_c, 5, 8192
1, 41447, Note_on_c, 2, 48, 0
1, 41456, Note_on_c, 3, 48, 0
1, 41456, Note_on_c, 9, 41, 105
1, 41460, Note_on_c, 9, 41, 0
1, 41460, Note_on_c, 3, 64, 0
1, 41461, Note_on_c, 2, 76, 0
1, 41461, Note_on_c, 2, 67, 0
1, 41463, Note_on_c, 6, 76, 0
1, 41463, Note_on_c, 2, 72, 0
1, 41465, Note_on_c, 6, 67, 0
1, 41466, Note_on_c, 6, 72, 0
1, 41469, Note_on_c, 0, 50, 127
1, 41470, Note_on_c, 1, 36, 0
1, 41471, Note_on_c, 0, 55, 127
1, 41472, Note_on_c, 0, 62, 127
1, 41472, Note_on_c, 1, 31, 119
1, 41472, Note_on_c, 2, 43, 99
1, 41472, Note_on_c, 2, 71, 115
1, 41472, Note_on_c, 3, 71, 95
1, 41472, Note_on_c, 3, 74, 88
1, 41472, Note_on_c, 3, 79, 99
1, 41472, Note_on_c, 6, 74, 100
1, 41472, Note_on_c, 6, 71, 100
1, 41472, Note_on_c, 9, 49, 125
1, 41472, Note_on_c, 9, 35, 125
1, 41473, Note_on_c, 0, 67, 121
1, 41473, Note_on_c, 2, 67, 115
1, 41473, Note_on_c, 6, 79, 112
1, 41474, Note_on_c, 2, 74, 115
1, 41475, Note_on_c, 0, 59, 127
1, 41476, Note_on_c, 9, 35, 0
1, 41476, Note_on_c, 9, 49, 0
1, 41496, Note_on_c, 14, 74, 0
1, 41496, Note_on_c, 14, 67, 0
1, 41496, Note_on_c, 14, 71, 0
1, 41496, Control_c, 5, 1, 23
1, 41502, Note_on_c, 4, 55, 0
1, 41502, Control_c, 5, 1, 42
1, 41508, Control_c, 5, 1, 66
1, 41512, Note_on_c, 0, 62, 0
1, 41513, Note_on_c, 0, 67, 0
1, 41514, Control_c, 5, 1, 86
1, 41515, Note_on_c, 0, 50, 0
1, 41515, Note_on_c, 0, 59, 0
1, 41517, Note_on_c, 3, 71, 0
1, 41517, Note_on_c, 0, 55, 0
1, 41519, Note_on_c, 3, 74, 0
1, 41520, Note_on_c, 3, 79, 0
1, 41520, Control_c, 5, 1, 105
1, 41522, Note_on_c, 2, 74, 0
1, 41524, Note_on_c, 2, 71, 0
1, 41525, Note_on_c, 2, 67, 0
1, 41526, Note_on_c, 2, 43, 0
1, 41526, Control_c, 5, 1, 120
1, 41529, Note_on_c, 6, 74, 0
1, 41529, Note_on_c, 1, 31, 0
1, 41530, Note_on_c, 6, 71, 0
1, 41532, Note_on_c, 6, 79, 0
1, 41532, Control_c, 5, 1, 122
1, 41540, Control_c, 5, 1, 108
1, 41546, Control_c, 5, 1, 82
1, 41552, Control_c, 5, 1, 47
1, 41558, Control_c, 5, 1, 16
1, 41562, Control_c, 5, 1, 0
1, 41564, Note_on_c, 5, 79, 0
1, 41564, End_track
0, 0, End_of_file
