0, 0, Header, 1, 14, 120
1, 0, Start_track
1, 0, Time_signature, 4, 2, 24, 8
1, 0, Key_signature, 0, "major"
1, 0, Tempo, 652174
1, 0, Marker_t, "Sequenced By David Daigneault"
1, 5760, Tempo, 638298
1, 11521, Tempo, 625000
1, 13920, Marker_t, "sargpepp67@earthlink.net"
1, 17280, Tempo, 625000
1, 17760, Tempo, 612245
1, 23520, Tempo, 600000
1, 29280, Tempo, 588235
1, 40320, Tempo, 576923
1, 50400, Tempo, 576923
1, 50880, Tempo, 645161
1, 51935, Tempo, 652174
1, 53471, Tempo, 659341
1, 55007, Tempo, 666667
1, 56543, Tempo, 674157
1, 58079, Tempo, 681818
1, 58080, Tempo, 674157
1, 58559, Tempo, 681818
1, 58560, Tempo, 638298
1, 58560, End_track
2, 0, Start_track
2, 0, MIDI_port, 0
2, 0, Title_t, "Jazz Electric Guitar"
2, 0, Control_c, 0, 0, 56
2, 0, Control_c, 0, 32, 1
2, 0, Program_c, 0, 26
2, 0, Control_c, 0, 7, 90
2, 0, Control_c, 0, 10, 127
2, 0, Control_c, 0, 91, 30
2, 272, Control_c, 0, 64, 127
2, 300, Note_on_c, 0, 40, 14
2, 300, Note_on_c, 0, 28, 26
2, 329, Note_on_c, 0, 28, 0
2, 329, Note_on_c, 0, 40, 0
2, 360, Note_on_c, 0, 40, 77
2, 360, Note_on_c, 0, 28, 77
2, 389, Note_on_c, 0, 28, 0
2, 389, Note_on_c, 0, 40, 0
2, 420, Note_on_c, 0, 28, 51
2, 420, Note_on_c, 0, 40, 72
2, 449, Note_on_c, 0, 40, 0
2, 449, Note_on_c, 0, 28, 0
2, 480, Note_on_c, 0, 30, 89
2, 480, Note_on_c, 0, 42, 79
2, 484, Control_c, 0, 64, 0
2, 538, Control_c, 0, 64, 127
2, 587, Control_c, 0, 64, 0
2, 600, Note_on_c, 0, 42, 0
2, 600, Note_on_c, 0, 30, 0
2, 600, Note_on_c, 0, 49, 74
2, 600, Note_on_c, 0, 54, 96
2, 600, Note_on_c, 0, 46, 79
2, 629, Note_on_c, 0, 46, 0
2, 629, Note_on_c, 0, 54, 0
2, 629, Note_on_c, 0, 49, 0
2, 660, Note_on_c, 0, 30, 61
2, 660, Note_on_c, 0, 42, 58
2, 689, Note_on_c, 0, 42, 0
2, 689, Note_on_c, 0, 30, 0
2, 780, Note_on_c, 0, 30, 26
2, 780, Note_on_c, 0, 42, 35
2, 785, Control_c, 0, 64, 127
2, 840, Note_on_c, 0, 42, 0
2, 840, Note_on_c, 0, 30, 0
2, 840, Note_on_c, 0, 54, 108
2, 840, Note_on_c, 0, 49, 89
2, 840, Note_on_c, 0, 46, 77
2, 848, Control_c, 0, 64, 0
2, 869, Note_on_c, 0, 46, 0
2, 869, Note_on_c, 0, 49, 0
2, 869, Note_on_c, 0, 54, 0
2, 900, Note_on_c, 0, 33, 30
2, 929, Note_on_c, 0, 33, 0
2, 960, Note_on_c, 0, 35, 77
2, 966, Control_c, 0, 64, 127
2, 1072, Control_c, 0, 64, 0
2, 1080, Note_on_c, 0, 35, 0
2, 1080, Note_on_c, 0, 51, 105
2, 1080, Note_on_c, 0, 47, 93
2, 1080, Note_on_c, 0, 54, 86
2, 1109, Note_on_c, 0, 54, 0
2, 1109, Note_on_c, 0, 47, 0
2, 1109, Note_on_c, 0, 51, 0
2, 1140, Note_on_c, 0, 37, 89
2, 1169, Note_on_c, 0, 37, 0
2, 1212, Control_c, 0, 64, 127
2, 1260, Note_on_c, 0, 56, 61
2, 1260, Note_on_c, 0, 53, 48
2, 1260, Note_on_c, 0, 49, 35
2, 1289, Note_on_c, 0, 49, 0
2, 1289, Note_on_c, 0, 53, 0
2, 1289, Note_on_c, 0, 56, 0
2, 1320, Note_on_c, 0, 56, 124
2, 1320, Note_on_c, 0, 53, 117
2, 1320, Note_on_c, 0, 49, 111
2, 1344, Control_c, 0, 64, 0
2, 1349, Note_on_c, 0, 49, 0
2, 1349, Note_on_c, 0, 53, 0
2, 1349, Note_on_c, 0, 56, 0
2, 1380, Note_on_c, 0, 28, 58
2, 1409, Note_on_c, 0, 28, 0
2, 1440, Note_on_c, 0, 30, 69
2, 1454, Control_c, 0, 64, 127
2, 1551, Control_c, 0, 64, 0
2, 1560, Note_on_c, 0, 30, 0
2, 1560, Note_on_c, 0, 49, 93
2, 1560, Note_on_c, 0, 46, 81
2, 1560, Note_on_c, 0, 54, 102
2, 1589, Note_on_c, 0, 54, 0
2, 1589, Note_on_c, 0, 46, 0
2, 1589, Note_on_c, 0, 49, 0
2, 1620, Note_on_c, 0, 30, 66
2, 1649, Note_on_c, 0, 30, 0
2, 1740, Note_on_c, 0, 30, 66
2, 1752, Control_c, 0, 64, 127
2, 1795, Control_c, 0, 64, 0
2, 1800, Note_on_c, 0, 30, 0
2, 1800, Note_on_c, 0, 49, 72
2, 1800, Note_on_c, 0, 46, 77
2, 1800, Note_on_c, 0, 54, 84
2, 1829, Note_on_c, 0, 54, 0
2, 1829, Note_on_c, 0, 46, 0
2, 1829, Note_on_c, 0, 49, 0
2, 1860, Note_on_c, 0, 28, 64
2, 1860, Note_on_c, 0, 40, 55
2, 1889, Note_on_c, 0, 40, 0
2, 1889, Note_on_c, 0, 28, 0
2, 1920, Note_on_c, 0, 30, 79
2, 1920, Note_on_c, 0, 42, 58
2, 1932, Control_c, 0, 64, 127
2, 2039, Control_c, 0, 64, 0
2, 2040, Note_on_c, 0, 42, 0
2, 2040, Note_on_c, 0, 30, 0
2, 2040, Note_on_c, 0, 49, 89
2, 2040, Note_on_c, 0, 46, 74
2, 2040, Note_on_c, 0, 54, 84
2, 2069, Note_on_c, 0, 54, 0
2, 2069, Note_on_c, 0, 46, 0
2, 2069, Note_on_c, 0, 49, 0
2, 2100, Note_on_c, 0, 30, 69
2, 2100, Note_on_c, 0, 42, 64
2, 2129, Note_on_c, 0, 42, 0
2, 2129, Note_on_c, 0, 30, 0
2, 2220, Note_on_c, 0, 30, 35
2, 2220, Note_on_c, 0, 42, 22
2, 2228, Control_c, 0, 64, 127
2, 2280, Note_on_c, 0, 42, 0
2, 2280, Note_on_c, 0, 30, 0
2, 2280, Note_on_c, 0, 49, 93
2, 2280, Note_on_c, 0, 46, 79
2, 2280, Note_on_c, 0, 54, 84
2, 2288, Control_c, 0, 64, 0
2, 2309, Note_on_c, 0, 54, 0
2, 2309, Note_on_c, 0, 46, 0
2, 2309, Note_on_c, 0, 49, 0
2, 2340, Note_on_c, 0, 33, 72
2, 2369, Note_on_c, 0, 33, 0
2, 2400, Note_on_c, 0, 35, 81
2, 2420, Control_c, 0, 64, 127
2, 2498, Control_c, 0, 64, 0
2, 2520, Note_on_c, 0, 35, 0
2, 2520, Note_on_c, 0, 51, 89
2, 2520, Note_on_c, 0, 54, 96
2, 2520, Note_on_c, 0, 47, 72
2, 2549, Note_on_c, 0, 47, 0
2, 2549, Note_on_c, 0, 54, 0
2, 2549, Note_on_c, 0, 51, 0
2, 2580, Note_on_c, 0, 35, 79
2, 2609, Note_on_c, 0, 35, 0
2, 2700, Note_on_c, 0, 35, 51
2, 2738, Control_c, 0, 64, 127
2, 2760, Note_on_c, 0, 35, 0
2, 2760, Note_on_c, 0, 51, 79
2, 2760, Note_on_c, 0, 47, 58
2, 2760, Note_on_c, 0, 54, 84
2, 2770, Control_c, 0, 64, 0
2, 2789, Note_on_c, 0, 54, 0
2, 2789, Note_on_c, 0, 47, 0
2, 2789, Note_on_c, 0, 51, 0
2, 2820, Note_on_c, 0, 33, 64
2, 2849, Note_on_c, 0, 33, 0
2, 2880, Note_on_c, 0, 35, 79
2, 2885, Control_c, 0, 64, 127
2, 2999, Control_c, 0, 64, 0
2, 3000, Note_on_c, 0, 35, 0
2, 3000, Note_on_c, 0, 54, 111
2, 3000, Note_on_c, 0, 51, 102
2, 3000, Note_on_c, 0, 47, 89
2, 3029, Note_on_c, 0, 47, 0
2, 3029, Note_on_c, 0, 51, 0
2, 3029, Note_on_c, 0, 54, 0
2, 3060, Note_on_c, 0, 37, 84
2, 3089, Note_on_c, 0, 37, 0
2, 3120, Control_c, 0, 64, 127
2, 3180, Note_on_c, 0, 56, 51
2, 3180, Note_on_c, 0, 49, 55
2, 3180, Note_on_c, 0, 53, 58
2, 3209, Note_on_c, 0, 53, 0
2, 3209, Note_on_c, 0, 49, 0
2, 3209, Note_on_c, 0, 56, 0
2, 3240, Note_on_c, 0, 56, 102
2, 3240, Note_on_c, 0, 53, 96
2, 3240, Note_on_c, 0, 49, 111
2, 3260, Control_c, 0, 64, 0
2, 3269, Note_on_c, 0, 49, 0
2, 3269, Note_on_c, 0, 53, 0
2, 3269, Note_on_c, 0, 56, 0
2, 3300, Note_on_c, 0, 28, 72
2, 3300, Note_on_c, 0, 40, 61
2, 3329, Note_on_c, 0, 40, 0
2, 3329, Note_on_c, 0, 28, 0
2, 3360, Note_on_c, 0, 30, 79
2, 3360, Note_on_c, 0, 42, 72
2, 3392, Control_c, 0, 64, 127
2, 3480, Note_on_c, 0, 42, 0
2, 3480, Note_on_c, 0, 30, 0
2, 3480, Note_on_c, 0, 49, 81
2, 3480, Note_on_c, 0, 46, 66
2, 3480, Note_on_c, 0, 54, 96
2, 3481, Control_c, 0, 64, 0
2, 3509, Note_on_c, 0, 54, 0
2, 3509, Note_on_c, 0, 46, 0
2, 3509, Note_on_c, 0, 49, 0
2, 3536, Control_c, 0, 64, 127
2, 3540, Note_on_c, 0, 30, 61
2, 3540, Note_on_c, 0, 42, 58
2, 3569, Note_on_c, 0, 42, 0
2, 3569, Note_on_c, 0, 30, 0
2, 3570, Control_c, 0, 64, 0
2, 3660, Note_on_c, 0, 42, 55
2, 3660, Note_on_c, 0, 30, 48
2, 3662, Control_c, 0, 64, 127
2, 3719, Control_c, 0, 64, 0
2, 3720, Note_on_c, 0, 30, 0
2, 3720, Note_on_c, 0, 42, 0
2, 3720, Note_on_c, 0, 49, 72
2, 3720, Note_on_c, 0, 54, 72
2, 3720, Note_on_c, 0, 46, 72
2, 3749, Note_on_c, 0, 46, 0
2, 3749, Note_on_c, 0, 54, 0
2, 3749, Note_on_c, 0, 49, 0
2, 3780, Note_on_c, 0, 28, 58
2, 3780, Note_on_c, 0, 40, 39
2, 3809, Note_on_c, 0, 40, 0
2, 3809, Note_on_c, 0, 28, 0
2, 3837, Control_c, 0, 64, 127
2, 3840, Note_on_c, 0, 42, 64
2, 3840, Note_on_c, 0, 30, 66
2, 3949, Control_c, 0, 64, 0
2, 3960, Note_on_c, 0, 30, 0
2, 3960, Note_on_c, 0, 42, 0
2, 3960, Note_on_c, 0, 49, 89
2, 3960, Note_on_c, 0, 54, 74
2, 3960, Note_on_c, 0, 46, 77
2, 3989, Note_on_c, 0, 46, 0
2, 3989, Note_on_c, 0, 54, 0
2, 3989, Note_on_c, 0, 49, 0
2, 4020, Note_on_c, 0, 30, 69
2, 4020, Note_on_c, 0, 42, 84
2, 4049, Note_on_c, 0, 42, 0
2, 4049, Note_on_c, 0, 30, 0
2, 4140, Note_on_c, 0, 30, 43
2, 4140, Note_on_c, 0, 42, 48
2, 4147, Control_c, 0, 64, 127
2, 4200, Note_on_c, 0, 42, 0
2, 4200, Note_on_c, 0, 30, 0
2, 4200, Note_on_c, 0, 54, 102
2, 4200, Note_on_c, 0, 49, 89
2, 4200, Note_on_c, 0, 46, 77
2, 4210, Control_c, 0, 64, 0
2, 4229, Note_on_c, 0, 46, 0
2, 4229, Note_on_c, 0, 49, 0
2, 4229, Note_on_c, 0, 54, 0
2, 4260, Note_on_c, 0, 33, 84
2, 4289, Note_on_c, 0, 33, 0
2, 4320, Note_on_c, 0, 37, 77
2, 4348, Control_c, 0, 64, 127
2, 4422, Control_c, 0, 64, 0
2, 4440, Note_on_c, 0, 37, 0
2, 4440, Note_on_c, 0, 53, 79
2, 4440, Note_on_c, 0, 56, 72
2, 4440, Note_on_c, 0, 49, 69
2, 4469, Note_on_c, 0, 49, 0
2, 4469, Note_on_c, 0, 56, 0
2, 4469, Note_on_c, 0, 53, 0
2, 4500, Note_on_c, 0, 37, 64
2, 4529, Note_on_c, 0, 37, 0
2, 4620, Note_on_c, 0, 37, 35
2, 4637, Control_c, 0, 64, 127
2, 4680, Note_on_c, 0, 37, 0
2, 4680, Note_on_c, 0, 56, 117
2, 4680, Note_on_c, 0, 53, 108
2, 4680, Note_on_c, 0, 49, 74
2, 4689, Control_c, 0, 64, 0
2, 4709, Note_on_c, 0, 49, 0
2, 4709, Note_on_c, 0, 53, 0
2, 4709, Note_on_c, 0, 56, 0
2, 4740, Note_on_c, 0, 33, 69
2, 4769, Note_on_c, 0, 33, 0
2, 4800, Note_on_c, 0, 35, 114
2, 4818, Control_c, 0, 64, 127
2, 4890, Note_on_c, 0, 35, 0
2, 4912, Control_c, 0, 64, 0
2, 4920, Note_on_c, 0, 54, 79
2, 4920, Note_on_c, 0, 47, 79
2, 4920, Note_on_c, 0, 51, 93
2, 4949, Note_on_c, 0, 51, 0
2, 4949, Note_on_c, 0, 47, 0
2, 4949, Note_on_c, 0, 54, 0
2, 4980, Note_on_c, 0, 35, 74
2, 5009, Note_on_c, 0, 35, 0
2, 5100, Note_on_c, 0, 35, 66
2, 5160, Note_on_c, 0, 35, 0
2, 5160, Note_on_c, 0, 54, 86
2, 5160, Note_on_c, 0, 47, 84
2, 5160, Note_on_c, 0, 51, 89
2, 5189, Note_on_c, 0, 51, 0
2, 5189, Note_on_c, 0, 47, 0
2, 5189, Note_on_c, 0, 54, 0
2, 5220, Note_on_c, 0, 28, 64
2, 5220, Note_on_c, 0, 40, 35
2, 5249, Note_on_c, 0, 40, 0
2, 5249, Note_on_c, 0, 28, 0
2, 5280, Note_on_c, 0, 30, 79
2, 5280, Note_on_c, 0, 42, 64
2, 5400, Note_on_c, 0, 42, 0
2, 5400, Note_on_c, 0, 30, 0
2, 5400, Note_on_c, 0, 54, 89
2, 5400, Note_on_c, 0, 49, 69
2, 5400, Note_on_c, 0, 46, 77
2, 5429, Note_on_c, 0, 46, 0
2, 5429, Note_on_c, 0, 49, 0
2, 5429, Note_on_c, 0, 54, 0
2, 5460, Note_on_c, 0, 30, 64
2, 5460, Note_on_c, 0, 42, 55
2, 5489, Note_on_c, 0, 42, 0
2, 5489, Note_on_c, 0, 30, 0
2, 5580, Note_on_c, 0, 42, 72
2, 5580, Note_on_c, 0, 30, 55
2, 5640, Note_on_c, 0, 30, 0
2, 5640, Note_on_c, 0, 42, 0
2, 5640, Note_on_c, 0, 49, 79
2, 5640, Note_on_c, 0, 46, 102
2, 5640, Note_on_c, 0, 54, 99
2, 5669, Note_on_c, 0, 54, 0
2, 5669, Note_on_c, 0, 46, 0
2, 5669, Note_on_c, 0, 49, 0
2, 5700, Note_on_c, 0, 28, 43
2, 5700, Note_on_c, 0, 40, 39
2, 5729, Note_on_c, 0, 40, 0
2, 5729, Note_on_c, 0, 28, 0
2, 5760, Note_on_c, 0, 30, 66
2, 5760, Note_on_c, 0, 42, 79
2, 5880, Note_on_c, 0, 42, 0
2, 5880, Note_on_c, 0, 30, 0
2, 5880, Note_on_c, 0, 54, 89
2, 5880, Note_on_c, 0, 49, 93
2, 5880, Note_on_c, 0, 46, 89
2, 5909, Note_on_c, 0, 46, 0
2, 5909, Note_on_c, 0, 49, 0
2, 5909, Note_on_c, 0, 54, 0
2, 5940, Note_on_c, 0, 30, 61
2, 5940, Note_on_c, 0, 42, 55
2, 5969, Note_on_c, 0, 42, 0
2, 5969, Note_on_c, 0, 30, 0
2, 6060, Note_on_c, 0, 42, 64
2, 6060, Note_on_c, 0, 30, 64
2, 6120, Note_on_c, 0, 30, 0
2, 6120, Note_on_c, 0, 42, 0
2, 6120, Note_on_c, 0, 49, 66
2, 6120, Note_on_c, 0, 54, 77
2, 6120, Note_on_c, 0, 46, 69
2, 6149, Note_on_c, 0, 46, 0
2, 6149, Note_on_c, 0, 54, 0
2, 6149, Note_on_c, 0, 49, 0
2, 6180, Note_on_c, 0, 40, 55
2, 6180, Note_on_c, 0, 28, 58
2, 6209, Note_on_c, 0, 28, 0
2, 6209, Note_on_c, 0, 40, 0
2, 6240, Note_on_c, 0, 42, 74
2, 6240, Note_on_c, 0, 30, 79
2, 6360, Note_on_c, 0, 30, 0
2, 6360, Note_on_c, 0, 42, 0
2, 6360, Note_on_c, 0, 54, 93
2, 6360, Note_on_c, 0, 49, 77
2, 6360, Note_on_c, 0, 46, 72
2, 6389, Note_on_c, 0, 46, 0
2, 6389, Note_on_c, 0, 49, 0
2, 6389, Note_on_c, 0, 54, 0
2, 6420, Note_on_c, 0, 30, 48
2, 6420, Note_on_c, 0, 42, 55
2, 6449, Note_on_c, 0, 42, 0
2, 6449, Note_on_c, 0, 30, 0
2, 6540, Note_on_c, 0, 42, 58
2, 6540, Note_on_c, 0, 30, 48
2, 6600, Note_on_c, 0, 30, 0
2, 6600, Note_on_c, 0, 42, 0
2, 6600, Note_on_c, 0, 54, 93
2, 6600, Note_on_c, 0, 49, 74
2, 6600, Note_on_c, 0, 46, 72
2, 6629, Note_on_c, 0, 46, 0
2, 6629, Note_on_c, 0, 49, 0
2, 6629, Note_on_c, 0, 54, 0
2, 6660, Note_on_c, 0, 33, 64
2, 6689, Note_on_c, 0, 33, 0
2, 6720, Note_on_c, 0, 35, 102
2, 6840, Note_on_c, 0, 35, 0
2, 6840, Note_on_c, 0, 54, 77
2, 6840, Note_on_c, 0, 51, 77
2, 6840, Note_on_c, 0, 47, 74
2, 6869, Note_on_c, 0, 47, 0
2, 6869, Note_on_c, 0, 51, 0
2, 6869, Note_on_c, 0, 54, 0
2, 6900, Note_on_c, 0, 37, 66
2, 6929, Note_on_c, 0, 37, 0
2, 7020, Note_on_c, 0, 37, 64
2, 7080, Note_on_c, 0, 37, 0
2, 7080, Note_on_c, 0, 53, 96
2, 7080, Note_on_c, 0, 49, 89
2, 7080, Note_on_c, 0, 56, 81
2, 7109, Note_on_c, 0, 56, 0
2, 7109, Note_on_c, 0, 49, 0
2, 7109, Note_on_c, 0, 53, 0
2, 7140, Note_on_c, 0, 28, 77
2, 7169, Note_on_c, 0, 28, 0
2, 7200, Note_on_c, 0, 30, 111
2, 7320, Note_on_c, 0, 30, 0
2, 7320, Note_on_c, 0, 49, 66
2, 7320, Note_on_c, 0, 54, 77
2, 7320, Note_on_c, 0, 46, 64
2, 7349, Note_on_c, 0, 46, 0
2, 7349, Note_on_c, 0, 54, 0
2, 7349, Note_on_c, 0, 49, 0
2, 7380, Note_on_c, 0, 30, 66
2, 7409, Note_on_c, 0, 30, 0
2, 7500, Note_on_c, 0, 30, 61
2, 7560, Note_on_c, 0, 30, 0
2, 7560, Note_on_c, 0, 49, 96
2, 7560, Note_on_c, 0, 54, 86
2, 7560, Note_on_c, 0, 46, 96
2, 7589, Note_on_c, 0, 46, 0
2, 7589, Note_on_c, 0, 54, 0
2, 7589, Note_on_c, 0, 49, 0
2, 7620, Note_on_c, 0, 28, 77
2, 7649, Note_on_c, 0, 28, 0
2, 7680, Note_on_c, 0, 30, 102
2, 7800, Note_on_c, 0, 30, 0
2, 7800, Note_on_c, 0, 49, 84
2, 7800, Note_on_c, 0, 54, 93
2, 7800, Note_on_c, 0, 46, 66
2, 7829, Note_on_c, 0, 46, 0
2, 7829, Note_on_c, 0, 54, 0
2, 7829, Note_on_c, 0, 49, 0
2, 7860, Note_on_c, 0, 30, 64
2, 7889, Note_on_c, 0, 30, 0
2, 7980, Note_on_c, 0, 30, 55
2, 8040, Note_on_c, 0, 30, 0
2, 8040, Note_on_c, 0, 49, 102
2, 8040, Note_on_c, 0, 54, 93
2, 8040, Note_on_c, 0, 46, 81
2, 8069, Note_on_c, 0, 46, 0
2, 8069, Note_on_c, 0, 54, 0
2, 8069, Note_on_c, 0, 49, 0
2, 8100, Note_on_c, 0, 33, 51
2, 8129, Note_on_c, 0, 33, 0
2, 8160, Note_on_c, 0, 35, 111
2, 8250, Note_on_c, 0, 35, 0
2, 8280, Note_on_c, 0, 54, 93
2, 8280, Note_on_c, 0, 51, 111
2, 8280, Note_on_c, 0, 47, 84
2, 8309, Note_on_c, 0, 47, 0
2, 8309, Note_on_c, 0, 51, 0
2, 8309, Note_on_c, 0, 54, 0
2, 8340, Note_on_c, 0, 35, 79
2, 8369, Note_on_c, 0, 35, 0
2, 8460, Note_on_c, 0, 35, 64
2, 8520, Note_on_c, 0, 35, 0
2, 8520, Note_on_c, 0, 54, 77
2, 8520, Note_on_c, 0, 51, 77
2, 8520, Note_on_c, 0, 47, 79
2, 8549, Note_on_c, 0, 47, 0
2, 8549, Note_on_c, 0, 51, 0
2, 8549, Note_on_c, 0, 54, 0
2, 8580, Note_on_c, 0, 33, 69
2, 8609, Note_on_c, 0, 33, 0
2, 8640, Note_on_c, 0, 35, 89
2, 8760, Note_on_c, 0, 35, 0
2, 8760, Note_on_c, 0, 51, 84
2, 8760, Note_on_c, 0, 54, 86
2, 8760, Note_on_c, 0, 47, 84
2, 8789, Note_on_c, 0, 47, 0
2, 8789, Note_on_c, 0, 54, 0
2, 8789, Note_on_c, 0, 51, 0
2, 8820, Note_on_c, 0, 37, 66
2, 8849, Note_on_c, 0, 37, 0
2, 8940, Note_on_c, 0, 37, 64
2, 9000, Note_on_c, 0, 37, 0
2, 9000, Note_on_c, 0, 56, 84
2, 9000, Note_on_c, 0, 49, 81
2, 9000, Note_on_c, 0, 53, 74
2, 9029, Note_on_c, 0, 53, 0
2, 9029, Note_on_c, 0, 49, 0
2, 9029, Note_on_c, 0, 56, 0
2, 9060, Note_on_c, 0, 28, 72
2, 9089, Note_on_c, 0, 28, 0
2, 9120, Note_on_c, 0, 30, 79
2, 9240, Note_on_c, 0, 30, 0
2, 9240, Note_on_c, 0, 49, 89
2, 9240, Note_on_c, 0, 46, 74
2, 9240, Note_on_c, 0, 54, 84
2, 9269, Note_on_c, 0, 54, 0
2, 9269, Note_on_c, 0, 46, 0
2, 9269, Note_on_c, 0, 49, 0
2, 9300, Note_on_c, 0, 30, 64
2, 9329, Note_on_c, 0, 30, 0
2, 9420, Note_on_c, 0, 30, 66
2, 9480, Note_on_c, 0, 30, 0
2, 9480, Note_on_c, 0, 49, 84
2, 9480, Note_on_c, 0, 54, 89
2, 9480, Note_on_c, 0, 46, 74
2, 9509, Note_on_c, 0, 46, 0
2, 9509, Note_on_c, 0, 54, 0
2, 9509, Note_on_c, 0, 49, 0
2, 9540, Note_on_c, 0, 28, 58
2, 9569, Note_on_c, 0, 28, 0
2, 9600, Note_on_c, 0, 30, 77
2, 9720, Note_on_c, 0, 30, 0
2, 9720, Note_on_c, 0, 49, 89
2, 9720, Note_on_c, 0, 54, 99
2, 9720, Note_on_c, 0, 46, 89
2, 9749, Note_on_c, 0, 46, 0
2, 9749, Note_on_c, 0, 54, 0
2, 9749, Note_on_c, 0, 49, 0
2, 9780, Note_on_c, 0, 30, 74
2, 9809, Note_on_c, 0, 30, 0
2, 9900, Note_on_c, 0, 30, 64
2, 9960, Note_on_c, 0, 30, 0
2, 9960, Note_on_c, 0, 49, 96
2, 9960, Note_on_c, 0, 46, 79
2, 9960, Note_on_c, 0, 54, 84
2, 9989, Note_on_c, 0, 54, 0
2, 9989, Note_on_c, 0, 46, 0
2, 9989, Note_on_c, 0, 49, 0
2, 10020, Note_on_c, 0, 33, 72
2, 10049, Note_on_c, 0, 33, 0
2, 10080, Note_on_c, 0, 37, 96
2, 10200, Note_on_c, 0, 37, 0
2, 10200, Note_on_c, 0, 56, 79
2, 10200, Note_on_c, 0, 53, 84
2, 10200, Note_on_c, 0, 49, 72
2, 10229, Note_on_c, 0, 49, 0
2, 10229, Note_on_c, 0, 53, 0
2, 10229, Note_on_c, 0, 56, 0
2, 10260, Note_on_c, 0, 37, 69
2, 10289, Note_on_c, 0, 37, 0
2, 10380, Note_on_c, 0, 37, 66
2, 10440, Note_on_c, 0, 37, 0
2, 10440, Note_on_c, 0, 53, 74
2, 10440, Note_on_c, 0, 49, 77
2, 10440, Note_on_c, 0, 56, 81
2, 10469, Note_on_c, 0, 56, 0
2, 10469, Note_on_c, 0, 49, 0
2, 10469, Note_on_c, 0, 53, 0
2, 10500, Note_on_c, 0, 33, 51
2, 10529, Note_on_c, 0, 33, 0
2, 10560, Note_on_c, 0, 35, 69
2, 10650, Note_on_c, 0, 35, 0
2, 10680, Note_on_c, 0, 51, 93
2, 10680, Note_on_c, 0, 47, 77
2, 10680, Note_on_c, 0, 54, 84
2, 10709, Note_on_c, 0, 54, 0
2, 10709, Note_on_c, 0, 47, 0
2, 10709, Note_on_c, 0, 51, 0
2, 10740, Note_on_c, 0, 35, 64
2, 10769, Note_on_c, 0, 35, 0
2, 10860, Note_on_c, 0, 35, 55
2, 10920, Note_on_c, 0, 35, 0
2, 10920, Note_on_c, 0, 51, 89
2, 10920, Note_on_c, 0, 54, 89
2, 10920, Note_on_c, 0, 47, 84
2, 10949, Note_on_c, 0, 47, 0
2, 10949, Note_on_c, 0, 54, 0
2, 10949, Note_on_c, 0, 51, 0
2, 10980, Note_on_c, 0, 28, 64
2, 11009, Note_on_c, 0, 28, 0
2, 11040, Note_on_c, 0, 30, 79
2, 11160, Note_on_c, 0, 30, 0
2, 11160, Note_on_c, 0, 49, 89
2, 11160, Note_on_c, 0, 46, 84
2, 11160, Note_on_c, 0, 54, 84
2, 11189, Note_on_c, 0, 54, 0
2, 11189, Note_on_c, 0, 46, 0
2, 11189, Note_on_c, 0, 49, 0
2, 11220, Note_on_c, 0, 30, 58
2, 11249, Note_on_c, 0, 30, 0
2, 11340, Note_on_c, 0, 30, 74
2, 11400, Note_on_c, 0, 30, 0
2, 11400, Note_on_c, 0, 54, 79
2, 11400, Note_on_c, 0, 49, 66
2, 11400, Note_on_c, 0, 46, 66
2, 11429, Note_on_c, 0, 46, 0
2, 11429, Note_on_c, 0, 49, 0
2, 11429, Note_on_c, 0, 54, 0
2, 11460, Note_on_c, 0, 28, 77
2, 11489, Note_on_c, 0, 28, 0
2, 11520, Note_on_c, 0, 30, 86
2, 11640, Note_on_c, 0, 30, 0
2, 11640, Note_on_c, 0, 49, 74
2, 11640, Note_on_c, 0, 54, 69
2, 11640, Note_on_c, 0, 46, 89
2, 11669, Note_on_c, 0, 46, 0
2, 11669, Note_on_c, 0, 54, 0
2, 11669, Note_on_c, 0, 49, 0
2, 11700, Note_on_c, 0, 30, 89
2, 11729, Note_on_c, 0, 30, 0
2, 11820, Note_on_c, 0, 30, 74
2, 11880, Note_on_c, 0, 30, 0
2, 11880, Note_on_c, 0, 54, 89
2, 11880, Note_on_c, 0, 49, 79
2, 11880, Note_on_c, 0, 46, 79
2, 11909, Note_on_c, 0, 46, 0
2, 11909, Note_on_c, 0, 49, 0
2, 11909, Note_on_c, 0, 54, 0
2, 11940, Note_on_c, 0, 28, 64
2, 11969, Note_on_c, 0, 28, 0
2, 12000, Note_on_c, 0, 30, 89
2, 12120, Note_on_c, 0, 30, 0
2, 12120, Note_on_c, 0, 54, 69
2, 12120, Note_on_c, 0, 49, 79
2, 12120, Note_on_c, 0, 46, 102
2, 12149, Note_on_c, 0, 46, 0
2, 12149, Note_on_c, 0, 49, 0
2, 12149, Note_on_c, 0, 54, 0
2, 12180, Note_on_c, 0, 30, 64
2, 12209, Note_on_c, 0, 30, 0
2, 12300, Note_on_c, 0, 30, 64
2, 12360, Note_on_c, 0, 30, 0
2, 12360, Note_on_c, 0, 49, 89
2, 12360, Note_on_c, 0, 54, 99
2, 12360, Note_on_c, 0, 46, 84
2, 12389, Note_on_c, 0, 46, 0
2, 12389, Note_on_c, 0, 54, 0
2, 12389, Note_on_c, 0, 49, 0
2, 12420, Note_on_c, 0, 33, 77
2, 12449, Note_on_c, 0, 33, 0
2, 12480, Note_on_c, 0, 35, 96
2, 12600, Note_on_c, 0, 35, 0
2, 12600, Note_on_c, 0, 54, 93
2, 12600, Note_on_c, 0, 51, 77
2, 12600, Note_on_c, 0, 47, 89
2, 12629, Note_on_c, 0, 47, 0
2, 12629, Note_on_c, 0, 51, 0
2, 12629, Note_on_c, 0, 54, 0
2, 12660, Note_on_c, 0, 37, 86
2, 12689, Note_on_c, 0, 37, 0
2, 12711, Control_c, 0, 64, 127
2, 12780, Note_on_c, 0, 56, 69
2, 12780, Note_on_c, 0, 49, 64
2, 12780, Note_on_c, 0, 53, 79
2, 12809, Note_on_c, 0, 53, 0
2, 12809, Note_on_c, 0, 49, 0
2, 12809, Note_on_c, 0, 56, 0
2, 12832, Control_c, 0, 64, 0
2, 12840, Note_on_c, 0, 56, 79
2, 12840, Note_on_c, 0, 53, 66
2, 12840, Note_on_c, 0, 49, 77
2, 12869, Note_on_c, 0, 49, 0
2, 12869, Note_on_c, 0, 53, 0
2, 12869, Note_on_c, 0, 56, 0
2, 12900, Note_on_c, 0, 28, 66
2, 12929, Note_on_c, 0, 28, 0
2, 12960, Note_on_c, 0, 30, 66
2, 12960, Note_on_c, 0, 32, 43
2, 12989, Note_on_c, 0, 32, 0
2, 13080, Note_on_c, 0, 30, 0
2, 13080, Note_on_c, 0, 49, 69
2, 13080, Note_on_c, 0, 46, 69
2, 13080, Note_on_c, 0, 54, 79
2, 13109, Note_on_c, 0, 54, 0
2, 13109, Note_on_c, 0, 46, 0
2, 13109, Note_on_c, 0, 49, 0
2, 13140, Note_on_c, 0, 30, 74
2, 13169, Note_on_c, 0, 30, 0
2, 13260, Note_on_c, 0, 30, 74
2, 13320, Note_on_c, 0, 30, 0
2, 13320, Note_on_c, 0, 49, 79
2, 13320, Note_on_c, 0, 46, 74
2, 13320, Note_on_c, 0, 54, 69
2, 13349, Note_on_c, 0, 54, 0
2, 13349, Note_on_c, 0, 46, 0
2, 13349, Note_on_c, 0, 49, 0
2, 13380, Note_on_c, 0, 28, 66
2, 13409, Note_on_c, 0, 28, 0
2, 13440, Note_on_c, 0, 30, 89
2, 13560, Note_on_c, 0, 30, 0
2, 13560, Note_on_c, 0, 49, 102
2, 13560, Note_on_c, 0, 54, 96
2, 13560, Note_on_c, 0, 46, 66
2, 13589, Note_on_c, 0, 46, 0
2, 13589, Note_on_c, 0, 54, 0
2, 13589, Note_on_c, 0, 49, 0
2, 13620, Note_on_c, 0, 30, 79
2, 13649, Note_on_c, 0, 30, 0
2, 13740, Note_on_c, 0, 30, 84
2, 13800, Note_on_c, 0, 30, 0
2, 13800, Note_on_c, 0, 49, 89
2, 13800, Note_on_c, 0, 46, 84
2, 13800, Note_on_c, 0, 54, 77
2, 13829, Note_on_c, 0, 54, 0
2, 13829, Note_on_c, 0, 46, 0
2, 13829, Note_on_c, 0, 49, 0
2, 13860, Note_on_c, 0, 33, 48
2, 13889, Note_on_c, 0, 33, 0
2, 13920, Note_on_c, 0, 35, 96
2, 14040, Note_on_c, 0, 35, 0
2, 14040, Note_on_c, 0, 54, 84
2, 14040, Note_on_c, 0, 51, 84
2, 14040, Note_on_c, 0, 47, 84
2, 14069, Note_on_c, 0, 47, 0
2, 14069, Note_on_c, 0, 51, 0
2, 14069, Note_on_c, 0, 54, 0
2, 14100, Note_on_c, 0, 35, 79
2, 14129, Note_on_c, 0, 35, 0
2, 14220, Note_on_c, 0, 35, 66
2, 14280, Note_on_c, 0, 35, 0
2, 14280, Note_on_c, 0, 51, 81
2, 14280, Note_on_c, 0, 54, 74
2, 14280, Note_on_c, 0, 47, 77
2, 14309, Note_on_c, 0, 47, 0
2, 14309, Note_on_c, 0, 54, 0
2, 14309, Note_on_c, 0, 51, 0
2, 14340, Note_on_c, 0, 33, 84
2, 14369, Note_on_c, 0, 33, 0
2, 14400, Note_on_c, 0, 35, 77
2, 14520, Note_on_c, 0, 35, 0
2, 14520, Note_on_c, 0, 51, 89
2, 14520, Note_on_c, 0, 54, 89
2, 14520, Note_on_c, 0, 47, 84
2, 14549, Note_on_c, 0, 47, 0
2, 14549, Note_on_c, 0, 54, 0
2, 14549, Note_on_c, 0, 51, 0
2, 14580, Note_on_c, 0, 37, 89
2, 14609, Note_on_c, 0, 37, 0
2, 14682, Control_c, 0, 64, 127
2, 14700, Note_on_c, 0, 56, 74
2, 14700, Note_on_c, 0, 49, 69
2, 14700, Note_on_c, 0, 53, 72
2, 14729, Note_on_c, 0, 53, 0
2, 14729, Note_on_c, 0, 49, 0
2, 14729, Note_on_c, 0, 56, 0
2, 14760, Note_on_c, 0, 56, 108
2, 14760, Note_on_c, 0, 53, 111
2, 14760, Note_on_c, 0, 49, 96
2, 14783, Control_c, 0, 64, 0
2, 14789, Note_on_c, 0, 49, 0
2, 14789, Note_on_c, 0, 53, 0
2, 14789, Note_on_c, 0, 56, 0
2, 14820, Note_on_c, 0, 28, 69
2, 14849, Note_on_c, 0, 28, 0
2, 14880, Note_on_c, 0, 30, 89
2, 15000, Note_on_c, 0, 30, 0
2, 15000, Note_on_c, 0, 49, 81
2, 15000, Note_on_c, 0, 46, 69
2, 15000, Note_on_c, 0, 54, 84
2, 15029, Note_on_c, 0, 54, 0
2, 15029, Note_on_c, 0, 46, 0
2, 15029, Note_on_c, 0, 49, 0
2, 15060, Note_on_c, 0, 30, 77
2, 15089, Note_on_c, 0, 30, 0
2, 15180, Note_on_c, 0, 30, 69
2, 15240, Note_on_c, 0, 30, 0
2, 15240, Note_on_c, 0, 49, 69
2, 15240, Note_on_c, 0, 46, 64
2, 15240, Note_on_c, 0, 54, 77
2, 15269, Note_on_c, 0, 54, 0
2, 15269, Note_on_c, 0, 46, 0
2, 15269, Note_on_c, 0, 49, 0
2, 15300, Note_on_c, 0, 28, 84
2, 15329, Note_on_c, 0, 28, 0
2, 15360, Note_on_c, 0, 30, 79
2, 15480, Note_on_c, 0, 30, 0
2, 15480, Note_on_c, 0, 49, 102
2, 15480, Note_on_c, 0, 46, 89
2, 15480, Note_on_c, 0, 54, 96
2, 15509, Note_on_c, 0, 54, 0
2, 15509, Note_on_c, 0, 46, 0
2, 15509, Note_on_c, 0, 49, 0
2, 15540, Note_on_c, 0, 30, 79
2, 15569, Note_on_c, 0, 30, 0
2, 15660, Note_on_c, 0, 30, 89
2, 15720, Note_on_c, 0, 30, 0
2, 15720, Note_on_c, 0, 49, 89
2, 15720, Note_on_c, 0, 54, 84
2, 15720, Note_on_c, 0, 46, 74
2, 15749, Note_on_c, 0, 46, 0
2, 15749, Note_on_c, 0, 54, 0
2, 15749, Note_on_c, 0, 49, 0
2, 15780, Note_on_c, 0, 33, 66
2, 15809, Note_on_c, 0, 33, 0
2, 15840, Note_on_c, 0, 37, 111
2, 15960, Note_on_c, 0, 37, 0
2, 15960, Note_on_c, 0, 53, 69
2, 15960, Note_on_c, 0, 49, 89
2, 15960, Note_on_c, 0, 56, 96
2, 15989, Note_on_c, 0, 56, 0
2, 15989, Note_on_c, 0, 49, 0
2, 15989, Note_on_c, 0, 53, 0
2, 16020, Note_on_c, 0, 37, 69
2, 16049, Note_on_c, 0, 37, 0
2, 16140, Note_on_c, 0, 37, 72
2, 16200, Note_on_c, 0, 37, 0
2, 16200, Note_on_c, 0, 53, 102
2, 16200, Note_on_c, 0, 49, 96
2, 16200, Note_on_c, 0, 56, 102
2, 16229, Note_on_c, 0, 56, 0
2, 16229, Note_on_c, 0, 49, 0
2, 16229, Note_on_c, 0, 53, 0
2, 16260, Note_on_c, 0, 33, 84
2, 16289, Note_on_c, 0, 33, 0
2, 16320, Note_on_c, 0, 35, 84
2, 16440, Note_on_c, 0, 35, 0
2, 16440, Note_on_c, 0, 51, 117
2, 16440, Note_on_c, 0, 47, 84
2, 16440, Note_on_c, 0, 54, 114
2, 16469, Note_on_c, 0, 54, 0
2, 16469, Note_on_c, 0, 47, 0
2, 16469, Note_on_c, 0, 51, 0
2, 16500, Note_on_c, 0, 35, 79
2, 16529, Note_on_c, 0, 35, 0
2, 16620, Note_on_c, 0, 35, 79
2, 16680, Note_on_c, 0, 35, 0
2, 16680, Note_on_c, 0, 54, 93
2, 16680, Note_on_c, 0, 51, 89
2, 16680, Note_on_c, 0, 47, 72
2, 16709, Note_on_c, 0, 47, 0
2, 16709, Note_on_c, 0, 51, 0
2, 16709, Note_on_c, 0, 54, 0
2, 16740, Note_on_c, 0, 28, 74
2, 16769, Note_on_c, 0, 28, 0
2, 16800, Note_on_c, 0, 30, 77
2, 16920, Note_on_c, 0, 30, 0
2, 16920, Note_on_c, 0, 49, 96
2, 16920, Note_on_c, 0, 46, 66
2, 16920, Note_on_c, 0, 54, 84
2, 16949, Note_on_c, 0, 54, 0
2, 16949, Note_on_c, 0, 46, 0
2, 16949, Note_on_c, 0, 49, 0
2, 16980, Note_on_c, 0, 30, 84
2, 17009, Note_on_c, 0, 30, 0
2, 17100, Note_on_c, 0, 30, 72
2, 17160, Note_on_c, 0, 30, 0
2, 17160, Note_on_c, 0, 49, 89
2, 17160, Note_on_c, 0, 46, 84
2, 17160, Note_on_c, 0, 54, 89
2, 17189, Note_on_c, 0, 54, 0
2, 17189, Note_on_c, 0, 46, 0
2, 17189, Note_on_c, 0, 49, 0
2, 17220, Note_on_c, 0, 28, 74
2, 17249, Note_on_c, 0, 28, 0
2, 17280, Note_on_c, 0, 30, 86
2, 17400, Note_on_c, 0, 30, 0
2, 17400, Note_on_c, 0, 49, 79
2, 17400, Note_on_c, 0, 54, 79
2, 17400, Note_on_c, 0, 46, 66
2, 17429, Note_on_c, 0, 46, 0
2, 17429, Note_on_c, 0, 54, 0
2, 17429, Note_on_c, 0, 49, 0
2, 17460, Note_on_c, 0, 30, 84
2, 17489, Note_on_c, 0, 30, 0
2, 17580, Note_on_c, 0, 30, 74
2, 17640, Note_on_c, 0, 30, 0
2, 17640, Note_on_c, 0, 49, 96
2, 17640, Note_on_c, 0, 46, 74
2, 17640, Note_on_c, 0, 54, 84
2, 17669, Note_on_c, 0, 54, 0
2, 17669, Note_on_c, 0, 46, 0
2, 17669, Note_on_c, 0, 49, 0
2, 17700, Note_on_c, 0, 28, 64
2, 17729, Note_on_c, 0, 28, 0
2, 17760, Note_on_c, 0, 30, 111
2, 17880, Note_on_c, 0, 30, 0
2, 17880, Note_on_c, 0, 49, 89
2, 17880, Note_on_c, 0, 54, 89
2, 17880, Note_on_c, 0, 46, 84
2, 17909, Note_on_c, 0, 46, 0
2, 17909, Note_on_c, 0, 54, 0
2, 17909, Note_on_c, 0, 49, 0
2, 17940, Note_on_c, 0, 30, 58
2, 17969, Note_on_c, 0, 30, 0
2, 18060, Note_on_c, 0, 30, 72
2, 18120, Note_on_c, 0, 30, 0
2, 18120, Note_on_c, 0, 54, 89
2, 18120, Note_on_c, 0, 49, 81
2, 18120, Note_on_c, 0, 46, 79
2, 18149, Note_on_c, 0, 46, 0
2, 18149, Note_on_c, 0, 49, 0
2, 18149, Note_on_c, 0, 54, 0
2, 18180, Note_on_c, 0, 33, 72
2, 18209, Note_on_c, 0, 33, 0
2, 18240, Note_on_c, 0, 35, 96
2, 18360, Note_on_c, 0, 35, 0
2, 18360, Note_on_c, 0, 51, 89
2, 18360, Note_on_c, 0, 47, 84
2, 18360, Note_on_c, 0, 54, 91
2, 18389, Note_on_c, 0, 54, 0
2, 18389, Note_on_c, 0, 47, 0
2, 18389, Note_on_c, 0, 51, 0
2, 18420, Note_on_c, 0, 37, 84
2, 18449, Note_on_c, 0, 37, 0
2, 18540, Note_on_c, 0, 37, 66
2, 18600, Note_on_c, 0, 37, 0
2, 18600, Note_on_c, 0, 53, 79
2, 18600, Note_on_c, 0, 56, 79
2, 18600, Note_on_c, 0, 49, 84
2, 18629, Note_on_c, 0, 49, 0
2, 18629, Note_on_c, 0, 56, 0
2, 18629, Note_on_c, 0, 53, 0
2, 18660, Note_on_c, 0, 28, 74
2, 18689, Note_on_c, 0, 28, 0
2, 18720, Note_on_c, 0, 30, 96
2, 18840, Note_on_c, 0, 30, 0
2, 18840, Note_on_c, 0, 49, 89
2, 18840, Note_on_c, 0, 46, 77
2, 18840, Note_on_c, 0, 54, 79
2, 18869, Note_on_c, 0, 54, 0
2, 18869, Note_on_c, 0, 46, 0
2, 18869, Note_on_c, 0, 49, 0
2, 18900, Note_on_c, 0, 30, 69
2, 18929, Note_on_c, 0, 30, 0
2, 19020, Note_on_c, 0, 30, 72
2, 19080, Note_on_c, 0, 30, 0
2, 19080, Note_on_c, 0, 49, 89
2, 19080, Note_on_c, 0, 54, 81
2, 19080, Note_on_c, 0, 46, 66
2, 19109, Note_on_c, 0, 46, 0
2, 19109, Note_on_c, 0, 54, 0
2, 19109, Note_on_c, 0, 49, 0
2, 19140, Note_on_c, 0, 28, 66
2, 19169, Note_on_c, 0, 28, 0
2, 19200, Note_on_c, 0, 30, 77
2, 19320, Note_on_c, 0, 30, 0
2, 19320, Note_on_c, 0, 49, 72
2, 19320, Note_on_c, 0, 46, 96
2, 19320, Note_on_c, 0, 54, 89
2, 19349, Note_on_c, 0, 54, 0
2, 19349, Note_on_c, 0, 46, 0
2, 19349, Note_on_c, 0, 49, 0
2, 19380, Note_on_c, 0, 30, 64
2, 19409, Note_on_c, 0, 30, 0
2, 19500, Note_on_c, 0, 30, 66
2, 19560, Note_on_c, 0, 30, 0
2, 19560, Note_on_c, 0, 46, 89
2, 19560, Note_on_c, 0, 49, 77
2, 19560, Note_on_c, 0, 54, 86
2, 19589, Note_on_c, 0, 54, 0
2, 19589, Note_on_c, 0, 49, 0
2, 19589, Note_on_c, 0, 46, 0
2, 19620, Note_on_c, 0, 33, 93
2, 19649, Note_on_c, 0, 33, 0
2, 19680, Note_on_c, 0, 35, 66
2, 19800, Note_on_c, 0, 35, 0
2, 19800, Note_on_c, 0, 51, 79
2, 19800, Note_on_c, 0, 47, 77
2, 19800, Note_on_c, 0, 54, 89
2, 19829, Note_on_c, 0, 54, 0
2, 19829, Note_on_c, 0, 47, 0
2, 19829, Note_on_c, 0, 51, 0
2, 19860, Note_on_c, 0, 35, 77
2, 19889, Note_on_c, 0, 35, 0
2, 19980, Note_on_c, 0, 35, 58
2, 20040, Note_on_c, 0, 35, 0
2, 20040, Note_on_c, 0, 54, 96
2, 20040, Note_on_c, 0, 51, 99
2, 20040, Note_on_c, 0, 47, 79
2, 20069, Note_on_c, 0, 47, 0
2, 20069, Note_on_c, 0, 51, 0
2, 20069, Note_on_c, 0, 54, 0
2, 20100, Note_on_c, 0, 33, 64
2, 20129, Note_on_c, 0, 33, 0
2, 20160, Note_on_c, 0, 35, 93
2, 20280, Note_on_c, 0, 35, 0
2, 20280, Note_on_c, 0, 51, 84
2, 20280, Note_on_c, 0, 47, 66
2, 20280, Note_on_c, 0, 54, 77
2, 20309, Note_on_c, 0, 54, 0
2, 20309, Note_on_c, 0, 47, 0
2, 20309, Note_on_c, 0, 51, 0
2, 20340, Note_on_c, 0, 37, 89
2, 20369, Note_on_c, 0, 37, 0
2, 20424, Control_c, 0, 64, 127
2, 20460, Note_on_c, 0, 56, 51
2, 20460, Note_on_c, 0, 53, 48
2, 20460, Note_on_c, 0, 49, 48
2, 20489, Note_on_c, 0, 49, 0
2, 20489, Note_on_c, 0, 53, 0
2, 20489, Note_on_c, 0, 56, 0
2, 20520, Note_on_c, 0, 53, 86
2, 20520, Note_on_c, 0, 56, 84
2, 20520, Note_on_c, 0, 49, 86
2, 20527, Control_c, 0, 64, 0
2, 20549, Note_on_c, 0, 49, 0
2, 20549, Note_on_c, 0, 56, 0
2, 20549, Note_on_c, 0, 53, 0
2, 20580, Note_on_c, 0, 28, 108
2, 20609, Note_on_c, 0, 28, 0
2, 20640, Note_on_c, 0, 30, 72
2, 20760, Note_on_c, 0, 30, 0
2, 20760, Note_on_c, 0, 49, 74
2, 20760, Note_on_c, 0, 54, 74
2, 20760, Note_on_c, 0, 46, 48
2, 20789, Note_on_c, 0, 46, 0
2, 20789, Note_on_c, 0, 54, 0
2, 20789, Note_on_c, 0, 49, 0
2, 20820, Note_on_c, 0, 30, 72
2, 20849, Note_on_c, 0, 30, 0
2, 20940, Note_on_c, 0, 30, 61
2, 21000, Note_on_c, 0, 30, 0
2, 21000, Note_on_c, 0, 49, 81
2, 21000, Note_on_c, 0, 46, 72
2, 21000, Note_on_c, 0, 54, 81
2, 21029, Note_on_c, 0, 54, 0
2, 21029, Note_on_c, 0, 46, 0
2, 21029, Note_on_c, 0, 49, 0
2, 21060, Note_on_c, 0, 28, 58
2, 21089, Note_on_c, 0, 28, 0
2, 21120, Note_on_c, 0, 30, 77
2, 21240, Note_on_c, 0, 30, 0
2, 21240, Note_on_c, 0, 49, 96
2, 21240, Note_on_c, 0, 54, 89
2, 21240, Note_on_c, 0, 46, 72
2, 21269, Note_on_c, 0, 46, 0
2, 21269, Note_on_c, 0, 54, 0
2, 21269, Note_on_c, 0, 49, 0
2, 21300, Note_on_c, 0, 30, 64
2, 21329, Note_on_c, 0, 30, 0
2, 21420, Note_on_c, 0, 30, 61
2, 21480, Note_on_c, 0, 30, 0
2, 21480, Note_on_c, 0, 49, 89
2, 21480, Note_on_c, 0, 46, 69
2, 21480, Note_on_c, 0, 54, 84
2, 21509, Note_on_c, 0, 54, 0
2, 21509, Note_on_c, 0, 46, 0
2, 21509, Note_on_c, 0, 49, 0
2, 21540, Note_on_c, 0, 33, 81
2, 21569, Note_on_c, 0, 33, 0
2, 21600, Note_on_c, 0, 37, 84
2, 21720, Note_on_c, 0, 37, 0
2, 21720, Note_on_c, 0, 53, 72
2, 21720, Note_on_c, 0, 49, 72
2, 21720, Note_on_c, 0, 56, 74
2, 21749, Note_on_c, 0, 56, 0
2, 21749, Note_on_c, 0, 49, 0
2, 21749, Note_on_c, 0, 53, 0
2, 21780, Note_on_c, 0, 37, 61
2, 21809, Note_on_c, 0, 37, 0
2, 21900, Note_on_c, 0, 37, 58
2, 21960, Note_on_c, 0, 37, 0
2, 21960, Note_on_c, 0, 56, 74
2, 21960, Note_on_c, 0, 53, 79
2, 21960, Note_on_c, 0, 49, 79
2, 21989, Note_on_c, 0, 49, 0
2, 21989, Note_on_c, 0, 53, 0
2, 21989, Note_on_c, 0, 56, 0
2, 22020, Note_on_c, 0, 33, 51
2, 22049, Note_on_c, 0, 33, 0
2, 22080, Note_on_c, 0, 35, 84
2, 22200, Note_on_c, 0, 35, 0
2, 22200, Note_on_c, 0, 54, 61
2, 22200, Note_on_c, 0, 51, 61
2, 22200, Note_on_c, 0, 47, 51
2, 22229, Note_on_c, 0, 47, 0
2, 22229, Note_on_c, 0, 51, 0
2, 22229, Note_on_c, 0, 54, 0
2, 22260, Note_on_c, 0, 35, 69
2, 22289, Note_on_c, 0, 35, 0
2, 22380, Note_on_c, 0, 35, 72
2, 22440, Note_on_c, 0, 35, 0
2, 22440, Note_on_c, 0, 51, 79
2, 22440, Note_on_c, 0, 54, 79
2, 22440, Note_on_c, 0, 47, 66
2, 22469, Note_on_c, 0, 47, 0
2, 22469, Note_on_c, 0, 54, 0
2, 22469, Note_on_c, 0, 51, 0
2, 22500, Note_on_c, 0, 28, 55
2, 22529, Note_on_c, 0, 28, 0
2, 22560, Note_on_c, 0, 30, 96
2, 22680, Note_on_c, 0, 30, 0
2, 22680, Note_on_c, 0, 49, 96
2, 22680, Note_on_c, 0, 46, 72
2, 22680, Note_on_c, 0, 54, 79
2, 22709, Note_on_c, 0, 54, 0
2, 22709, Note_on_c, 0, 46, 0
2, 22709, Note_on_c, 0, 49, 0
2, 22740, Note_on_c, 0, 30, 74
2, 22769, Note_on_c, 0, 30, 0
2, 22860, Note_on_c, 0, 30, 69
2, 22920, Note_on_c, 0, 30, 0
2, 22920, Note_on_c, 0, 49, 81
2, 22920, Note_on_c, 0, 46, 79
2, 22920, Note_on_c, 0, 54, 86
2, 22949, Note_on_c, 0, 54, 0
2, 22949, Note_on_c, 0, 46, 0
2, 22949, Note_on_c, 0, 49, 0
2, 22980, Note_on_c, 0, 28, 84
2, 23009, Note_on_c, 0, 28, 0
2, 23010, Note_on_c, 0, 29, 55
2, 23039, Note_on_c, 0, 29, 0
2, 23040, Note_on_c, 0, 30, 96
2, 23160, Note_on_c, 0, 30, 0
2, 23160, Note_on_c, 0, 49, 84
2, 23160, Note_on_c, 0, 54, 86
2, 23160, Note_on_c, 0, 46, 72
2, 23189, Note_on_c, 0, 46, 0
2, 23189, Note_on_c, 0, 54, 0
2, 23189, Note_on_c, 0, 49, 0
2, 23220, Note_on_c, 0, 30, 66
2, 23249, Note_on_c, 0, 30, 0
2, 23340, Note_on_c, 0, 54, 51
2, 23340, Note_on_c, 0, 49, 55
2, 23340, Note_on_c, 0, 46, 55
2, 23369, Note_on_c, 0, 46, 0
2, 23369, Note_on_c, 0, 49, 0
2, 23369, Note_on_c, 0, 54, 0
2, 23400, Note_on_c, 0, 49, 89
2, 23400, Note_on_c, 0, 46, 111
2, 23400, Note_on_c, 0, 54, 102
2, 23429, Note_on_c, 0, 54, 0
2, 23429, Note_on_c, 0, 46, 0
2, 23429, Note_on_c, 0, 49, 0
2, 23460, Note_on_c, 0, 28, 74
2, 23520, Note_on_c, 0, 28, 0
2, 23520, Note_on_c, 0, 30, 84
2, 23640, Note_on_c, 0, 30, 0
2, 23640, Note_on_c, 0, 49, 77
2, 23640, Note_on_c, 0, 46, 77
2, 23640, Note_on_c, 0, 54, 74
2, 23640, Note_on_c, 0, 42, 79
2, 23669, Note_on_c, 0, 42, 0
2, 23669, Note_on_c, 0, 49, 0
2, 23669, Note_on_c, 0, 46, 0
2, 23669, Note_on_c, 0, 54, 0
2, 23700, Note_on_c, 0, 30, 66
2, 23729, Note_on_c, 0, 30, 0
2, 23820, Note_on_c, 0, 30, 58
2, 23880, Note_on_c, 0, 30, 0
2, 23880, Note_on_c, 0, 54, 74
2, 23880, Note_on_c, 0, 49, 96
2, 23880, Note_on_c, 0, 46, 93
2, 23880, Note_on_c, 0, 42, 111
2, 23909, Note_on_c, 0, 42, 0
2, 23909, Note_on_c, 0, 54, 0
2, 23909, Note_on_c, 0, 49, 0
2, 23909, Note_on_c, 0, 46, 0
2, 23940, Note_on_c, 0, 33, 55
2, 23969, Note_on_c, 0, 33, 0
2, 24000, Note_on_c, 0, 35, 84
2, 24120, Note_on_c, 0, 35, 0
2, 24120, Note_on_c, 0, 54, 79
2, 24120, Note_on_c, 0, 51, 89
2, 24120, Note_on_c, 0, 47, 72
2, 24149, Note_on_c, 0, 47, 0
2, 24149, Note_on_c, 0, 51, 0
2, 24149, Note_on_c, 0, 54, 0
2, 24180, Note_on_c, 0, 37, 66
2, 24209, Note_on_c, 0, 37, 0
2, 24271, Control_c, 0, 64, 127
2, 24300, Note_on_c, 0, 56, 51
2, 24300, Note_on_c, 0, 53, 51
2, 24300, Note_on_c, 0, 49, 43
2, 24329, Note_on_c, 0, 49, 0
2, 24329, Note_on_c, 0, 53, 0
2, 24329, Note_on_c, 0, 56, 0
2, 24360, Note_on_c, 0, 53, 72
2, 24360, Note_on_c, 0, 49, 84
2, 24360, Note_on_c, 0, 56, 79
2, 24377, Control_c, 0, 64, 0
2, 24389, Note_on_c, 0, 56, 0
2, 24389, Note_on_c, 0, 49, 0
2, 24389, Note_on_c, 0, 53, 0
2, 24420, Note_on_c, 0, 28, 30
2, 24449, Note_on_c, 0, 28, 0
2, 24480, Note_on_c, 0, 30, 79
2, 24600, Note_on_c, 0, 30, 0
2, 24600, Note_on_c, 0, 46, 72
2, 24600, Note_on_c, 0, 42, 79
2, 24600, Note_on_c, 0, 49, 84
2, 24600, Note_on_c, 0, 54, 30
2, 24629, Note_on_c, 0, 54, 0
2, 24629, Note_on_c, 0, 46, 0
2, 24629, Note_on_c, 0, 42, 0
2, 24629, Note_on_c, 0, 49, 0
2, 24660, Note_on_c, 0, 30, 74
2, 24689, Note_on_c, 0, 30, 0
2, 24780, Note_on_c, 0, 30, 64
2, 24840, Note_on_c, 0, 30, 0
2, 24840, Note_on_c, 0, 46, 72
2, 24840, Note_on_c, 0, 49, 72
2, 24840, Note_on_c, 0, 42, 72
2, 24840, Note_on_c, 0, 54, 61
2, 24869, Note_on_c, 0, 54, 0
2, 24869, Note_on_c, 0, 46, 0
2, 24869, Note_on_c, 0, 49, 0
2, 24869, Note_on_c, 0, 42, 0
2, 24900, Note_on_c, 0, 28, 51
2, 24929, Note_on_c, 0, 28, 0
2, 24960, Note_on_c, 0, 30, 72
2, 25080, Note_on_c, 0, 30, 0
2, 25080, Note_on_c, 0, 46, 66
2, 25080, Note_on_c, 0, 42, 77
2, 25080, Note_on_c, 0, 49, 64
2, 25080, Note_on_c, 0, 54, 61
2, 25109, Note_on_c, 0, 54, 0
2, 25109, Note_on_c, 0, 46, 0
2, 25109, Note_on_c, 0, 42, 0
2, 25109, Note_on_c, 0, 49, 0
2, 25140, Note_on_c, 0, 30, 58
2, 25169, Note_on_c, 0, 30, 0
2, 25260, Note_on_c, 0, 30, 58
2, 25320, Note_on_c, 0, 30, 0
2, 25320, Note_on_c, 0, 49, 79
2, 25320, Note_on_c, 0, 42, 84
2, 25320, Note_on_c, 0, 46, 72
2, 25320, Note_on_c, 0, 54, 72
2, 25349, Note_on_c, 0, 54, 0
2, 25349, Note_on_c, 0, 49, 0
2, 25349, Note_on_c, 0, 42, 0
2, 25349, Note_on_c, 0, 46, 0
2, 25380, Note_on_c, 0, 33, 64
2, 25409, Note_on_c, 0, 33, 0
2, 25440, Note_on_c, 0, 35, 77
2, 25560, Note_on_c, 0, 35, 0
2, 25560, Note_on_c, 0, 42, 77
2, 25560, Note_on_c, 0, 51, 79
2, 25560, Note_on_c, 0, 47, 66
2, 25560, Note_on_c, 0, 54, 58
2, 25589, Note_on_c, 0, 54, 0
2, 25589, Note_on_c, 0, 42, 0
2, 25589, Note_on_c, 0, 51, 0
2, 25589, Note_on_c, 0, 47, 0
2, 25620, Note_on_c, 0, 35, 51
2, 25649, Note_on_c, 0, 35, 0
2, 25740, Note_on_c, 0, 35, 58
2, 25769, Note_on_c, 0, 35, 0
2, 25800, Note_on_c, 0, 51, 89
2, 25800, Note_on_c, 0, 47, 74
2, 25800, Note_on_c, 0, 54, 77
2, 25829, Note_on_c, 0, 54, 0
2, 25829, Note_on_c, 0, 47, 0
2, 25829, Note_on_c, 0, 51, 0
2, 25860, Note_on_c, 0, 33, 30
2, 25889, Note_on_c, 0, 33, 0
2, 25890, Note_on_c, 0, 34, 48
2, 25919, Note_on_c, 0, 34, 0
2, 25920, Note_on_c, 0, 35, 93
2, 26010, Note_on_c, 0, 35, 0
2, 26040, Note_on_c, 0, 51, 81
2, 26040, Note_on_c, 0, 47, 66
2, 26040, Note_on_c, 0, 54, 96
2, 26069, Note_on_c, 0, 54, 0
2, 26069, Note_on_c, 0, 47, 0
2, 26069, Note_on_c, 0, 51, 0
2, 26100, Note_on_c, 0, 37, 84
2, 26129, Note_on_c, 0, 37, 0
2, 26220, Note_on_c, 0, 49, 58
2, 26220, Note_on_c, 0, 56, 58
2, 26220, Note_on_c, 0, 53, 64
2, 26244, Control_c, 0, 64, 127
2, 26249, Note_on_c, 0, 53, 0
2, 26249, Note_on_c, 0, 56, 0
2, 26249, Note_on_c, 0, 49, 0
2, 26280, Note_on_c, 0, 56, 74
2, 26280, Note_on_c, 0, 53, 79
2, 26280, Note_on_c, 0, 49, 69
2, 26299, Control_c, 0, 64, 0
2, 26309, Note_on_c, 0, 49, 0
2, 26309, Note_on_c, 0, 53, 0
2, 26309, Note_on_c, 0, 56, 0
2, 26340, Note_on_c, 0, 28, 77
2, 26369, Note_on_c, 0, 28, 0
2, 26400, Note_on_c, 0, 30, 77
2, 26490, Note_on_c, 0, 30, 0
2, 26520, Note_on_c, 0, 54, 69
2, 26520, Note_on_c, 0, 46, 72
2, 26520, Note_on_c, 0, 49, 64
2, 26549, Note_on_c, 0, 49, 0
2, 26549, Note_on_c, 0, 46, 0
2, 26549, Note_on_c, 0, 54, 0
2, 26580, Note_on_c, 0, 30, 79
2, 26609, Note_on_c, 0, 30, 0
2, 26700, Note_on_c, 0, 30, 72
2, 26760, Note_on_c, 0, 30, 0
2, 26760, Note_on_c, 0, 49, 89
2, 26760, Note_on_c, 0, 46, 72
2, 26760, Note_on_c, 0, 54, 79
2, 26789, Note_on_c, 0, 54, 0
2, 26789, Note_on_c, 0, 46, 0
2, 26789, Note_on_c, 0, 49, 0
2, 26820, Note_on_c, 0, 28, 48
2, 26849, Note_on_c, 0, 28, 0
2, 26880, Note_on_c, 0, 30, 69
2, 27000, Note_on_c, 0, 30, 0
2, 27000, Note_on_c, 0, 54, 86
2, 27000, Note_on_c, 0, 49, 84
2, 27000, Note_on_c, 0, 46, 84
2, 27029, Note_on_c, 0, 46, 0
2, 27029, Note_on_c, 0, 49, 0
2, 27029, Note_on_c, 0, 54, 0
2, 27060, Note_on_c, 0, 30, 79
2, 27089, Note_on_c, 0, 30, 0
2, 27139, Control_c, 0, 64, 127
2, 27180, Note_on_c, 0, 54, 66
2, 27180, Note_on_c, 0, 49, 58
2, 27180, Note_on_c, 0, 46, 39
2, 27209, Note_on_c, 0, 46, 0
2, 27209, Note_on_c, 0, 49, 0
2, 27209, Note_on_c, 0, 54, 0
2, 27240, Note_on_c, 0, 49, 84
2, 27240, Note_on_c, 0, 46, 72
2, 27240, Note_on_c, 0, 54, 74
2, 27251, Control_c, 0, 64, 0
2, 27269, Note_on_c, 0, 54, 0
2, 27269, Note_on_c, 0, 46, 0
2, 27269, Note_on_c, 0, 49, 0
2, 27300, Note_on_c, 0, 33, 77
2, 27329, Note_on_c, 0, 33, 0
2, 27360, Note_on_c, 0, 37, 74
2, 27480, Note_on_c, 0, 37, 0
2, 27480, Note_on_c, 0, 56, 69
2, 27480, Note_on_c, 0, 53, 84
2, 27480, Note_on_c, 0, 49, 61
2, 27509, Note_on_c, 0, 49, 0
2, 27509, Note_on_c, 0, 53, 0
2, 27509, Note_on_c, 0, 56, 0
2, 27540, Note_on_c, 0, 37, 64
2, 27569, Note_on_c, 0, 37, 0
2, 27660, Note_on_c, 0, 37, 55
2, 27720, Note_on_c, 0, 37, 0
2, 27720, Note_on_c, 0, 53, 102
2, 27720, Note_on_c, 0, 49, 79
2, 27720, Note_on_c, 0, 56, 77
2, 27749, Note_on_c, 0, 56, 0
2, 27749, Note_on_c, 0, 49, 0
2, 27749, Note_on_c, 0, 53, 0
2, 27780, Note_on_c, 0, 33, 66
2, 27809, Note_on_c, 0, 33, 0
2, 27840, Note_on_c, 0, 35, 79
2, 27960, Note_on_c, 0, 35, 0
2, 27960, Note_on_c, 0, 54, 89
2, 27960, Note_on_c, 0, 51, 66
2, 27960, Note_on_c, 0, 47, 64
2, 27989, Note_on_c, 0, 47, 0
2, 27989, Note_on_c, 0, 51, 0
2, 27989, Note_on_c, 0, 54, 0
2, 28020, Note_on_c, 0, 35, 61
2, 28049, Note_on_c, 0, 35, 0
2, 28140, Note_on_c, 0, 35, 58
2, 28169, Note_on_c, 0, 35, 0
2, 28200, Note_on_c, 0, 51, 84
2, 28200, Note_on_c, 0, 54, 79
2, 28200, Note_on_c, 0, 47, 64
2, 28229, Note_on_c, 0, 47, 0
2, 28229, Note_on_c, 0, 54, 0
2, 28229, Note_on_c, 0, 51, 0
2, 28260, Note_on_c, 0, 28, 48
2, 28289, Note_on_c, 0, 28, 0
2, 28320, Note_on_c, 0, 30, 69
2, 28440, Note_on_c, 0, 30, 0
2, 28440, Note_on_c, 0, 49, 69
2, 28440, Note_on_c, 0, 46, 66
2, 28440, Note_on_c, 0, 42, 64
2, 28469, Note_on_c, 0, 42, 0
2, 28469, Note_on_c, 0, 46, 0
2, 28469, Note_on_c, 0, 49, 0
2, 28500, Note_on_c, 0, 30, 58
2, 28529, Note_on_c, 0, 30, 0
2, 28620, Note_on_c, 0, 30, 72
2, 28680, Note_on_c, 0, 30, 0
2, 28680, Note_on_c, 0, 46, 72
2, 28680, Note_on_c, 0, 54, 69
2, 28680, Note_on_c, 0, 49, 84
2, 28680, Note_on_c, 0, 42, 66
2, 28709, Note_on_c, 0, 42, 0
2, 28709, Note_on_c, 0, 46, 0
2, 28709, Note_on_c, 0, 54, 0
2, 28709, Note_on_c, 0, 49, 0
2, 28740, Note_on_c, 0, 28, 48
2, 28769, Note_on_c, 0, 28, 0
2, 28800, Note_on_c, 0, 30, 77
2, 28920, Note_on_c, 0, 30, 0
2, 28920, Note_on_c, 0, 49, 84
2, 28920, Note_on_c, 0, 46, 74
2, 28920, Note_on_c, 0, 54, 74
2, 28920, Note_on_c, 0, 42, 72
2, 28949, Note_on_c, 0, 42, 0
2, 28949, Note_on_c, 0, 49, 0
2, 28949, Note_on_c, 0, 46, 0
2, 28949, Note_on_c, 0, 54, 0
2, 28980, Note_on_c, 0, 30, 18
2, 29009, Note_on_c, 0, 30, 0
2, 29100, Note_on_c, 0, 30, 51
2, 29160, Note_on_c, 0, 30, 0
2, 29160, Note_on_c, 0, 46, 74
2, 29160, Note_on_c, 0, 42, 74
2, 29160, Note_on_c, 0, 54, 72
2, 29160, Note_on_c, 0, 49, 72
2, 29189, Note_on_c, 0, 49, 0
2, 29189, Note_on_c, 0, 46, 0
2, 29189, Note_on_c, 0, 42, 0
2, 29189, Note_on_c, 0, 54, 0
2, 29220, Note_on_c, 0, 28, 14
2, 29249, Note_on_c, 0, 28, 0
2, 29280, Note_on_c, 0, 30, 66
2, 29400, Note_on_c, 0, 30, 0
2, 29400, Note_on_c, 0, 46, 89
2, 29400, Note_on_c, 0, 42, 79
2, 29400, Note_on_c, 0, 49, 64
2, 29400, Note_on_c, 0, 54, 66
2, 29429, Note_on_c, 0, 54, 0
2, 29429, Note_on_c, 0, 46, 0
2, 29429, Note_on_c, 0, 42, 0
2, 29429, Note_on_c, 0, 49, 0
2, 29460, Note_on_c, 0, 30, 64
2, 29489, Note_on_c, 0, 30, 0
2, 29580, Note_on_c, 0, 30, 64
2, 29609, Note_on_c, 0, 30, 0
2, 29640, Note_on_c, 0, 46, 77
2, 29640, Note_on_c, 0, 42, 84
2, 29640, Note_on_c, 0, 54, 72
2, 29640, Note_on_c, 0, 49, 84
2, 29669, Note_on_c, 0, 49, 0
2, 29669, Note_on_c, 0, 46, 0
2, 29669, Note_on_c, 0, 42, 0
2, 29669, Note_on_c, 0, 54, 0
2, 29700, Note_on_c, 0, 33, 77
2, 29729, Note_on_c, 0, 33, 0
2, 29760, Note_on_c, 0, 35, 89
2, 29850, Note_on_c, 0, 35, 0
2, 29880, Note_on_c, 0, 54, 84
2, 29880, Note_on_c, 0, 51, 79
2, 29880, Note_on_c, 0, 47, 89
2, 29909, Note_on_c, 0, 47, 0
2, 29909, Note_on_c, 0, 51, 0
2, 29909, Note_on_c, 0, 54, 0
2, 29940, Note_on_c, 0, 37, 69
2, 29969, Note_on_c, 0, 37, 0
2, 30060, Note_on_c, 0, 37, 58
2, 30120, Note_on_c, 0, 37, 0
2, 30120, Note_on_c, 0, 49, 72
2, 30120, Note_on_c, 0, 53, 89
2, 30120, Note_on_c, 0, 56, 89
2, 30149, Note_on_c, 0, 56, 0
2, 30149, Note_on_c, 0, 53, 0
2, 30149, Note_on_c, 0, 49, 0
2, 30180, Note_on_c, 0, 28, 43
2, 30209, Note_on_c, 0, 28, 0
2, 30240, Note_on_c, 0, 30, 66
2, 30360, Note_on_c, 0, 30, 0
2, 30360, Note_on_c, 0, 46, 66
2, 30360, Note_on_c, 0, 42, 66
2, 30360, Note_on_c, 0, 49, 84
2, 30360, Note_on_c, 0, 54, 69
2, 30389, Note_on_c, 0, 54, 0
2, 30389, Note_on_c, 0, 46, 0
2, 30389, Note_on_c, 0, 42, 0
2, 30389, Note_on_c, 0, 49, 0
2, 30420, Note_on_c, 0, 30, 61
2, 30449, Note_on_c, 0, 30, 0
2, 30540, Note_on_c, 0, 30, 58
2, 30600, Note_on_c, 0, 30, 0
2, 30600, Note_on_c, 0, 46, 69
2, 30600, Note_on_c, 0, 49, 64
2, 30600, Note_on_c, 0, 42, 84
2, 30600, Note_on_c, 0, 54, 69
2, 30629, Note_on_c, 0, 54, 0
2, 30629, Note_on_c, 0, 46, 0
2, 30629, Note_on_c, 0, 49, 0
2, 30629, Note_on_c, 0, 42, 0
2, 30660, Note_on_c, 0, 28, 61
2, 30689, Note_on_c, 0, 28, 0
2, 30720, Note_on_c, 0, 30, 79
2, 30840, Note_on_c, 0, 30, 0
2, 30840, Note_on_c, 0, 46, 79
2, 30840, Note_on_c, 0, 42, 84
2, 30840, Note_on_c, 0, 49, 79
2, 30840, Note_on_c, 0, 54, 84
2, 30869, Note_on_c, 0, 54, 0
2, 30869, Note_on_c, 0, 46, 0
2, 30869, Note_on_c, 0, 42, 0
2, 30869, Note_on_c, 0, 49, 0
2, 30900, Note_on_c, 0, 30, 72
2, 30929, Note_on_c, 0, 30, 0
2, 30980, Control_c, 0, 64, 127
2, 31020, Note_on_c, 0, 42, 48
2, 31020, Note_on_c, 0, 54, 30
2, 31020, Note_on_c, 0, 49, 55
2, 31020, Note_on_c, 0, 46, 51
2, 31049, Note_on_c, 0, 46, 0
2, 31049, Note_on_c, 0, 42, 0
2, 31049, Note_on_c, 0, 54, 0
2, 31049, Note_on_c, 0, 49, 0
2, 31080, Note_on_c, 0, 42, 77
2, 31080, Note_on_c, 0, 54, 72
2, 31080, Note_on_c, 0, 46, 79
2, 31080, Note_on_c, 0, 49, 66
2, 31086, Control_c, 0, 64, 0
2, 31109, Note_on_c, 0, 49, 0
2, 31109, Note_on_c, 0, 42, 0
2, 31109, Note_on_c, 0, 54, 0
2, 31109, Note_on_c, 0, 46, 0
2, 31140, Note_on_c, 0, 33, 72
2, 31169, Note_on_c, 0, 33, 0
2, 31200, Note_on_c, 0, 35, 79
2, 31320, Note_on_c, 0, 35, 0
2, 31320, Note_on_c, 0, 54, 74
2, 31320, Note_on_c, 0, 51, 74
2, 31320, Note_on_c, 0, 47, 72
2, 31349, Note_on_c, 0, 47, 0
2, 31349, Note_on_c, 0, 51, 0
2, 31349, Note_on_c, 0, 54, 0
2, 31380, Note_on_c, 0, 35, 74
2, 31409, Note_on_c, 0, 35, 0
2, 31500, Note_on_c, 0, 35, 51
2, 31560, Note_on_c, 0, 35, 0
2, 31560, Note_on_c, 0, 54, 84
2, 31560, Note_on_c, 0, 51, 86
2, 31560, Note_on_c, 0, 47, 89
2, 31589, Note_on_c, 0, 47, 0
2, 31589, Note_on_c, 0, 51, 0
2, 31589, Note_on_c, 0, 54, 0
2, 31620, Note_on_c, 0, 33, 48
2, 31649, Note_on_c, 0, 33, 0
2, 31650, Note_on_c, 0, 34, 58
2, 31679, Note_on_c, 0, 34, 0
2, 31680, Note_on_c, 0, 35, 111
2, 31770, Note_on_c, 0, 35, 0
2, 31800, Note_on_c, 0, 51, 79
2, 31800, Note_on_c, 0, 47, 66
2, 31800, Note_on_c, 0, 54, 79
2, 31829, Note_on_c, 0, 54, 0
2, 31829, Note_on_c, 0, 47, 0
2, 31829, Note_on_c, 0, 51, 0
2, 31860, Note_on_c, 0, 37, 77
2, 31889, Note_on_c, 0, 37, 0
2, 31955, Control_c, 0, 64, 127
2, 31980, Note_on_c, 0, 56, 26
2, 31980, Note_on_c, 0, 49, 26
2, 31980, Note_on_c, 0, 53, 22
2, 32009, Note_on_c, 0, 53, 0
2, 32009, Note_on_c, 0, 49, 0
2, 32009, Note_on_c, 0, 56, 0
2, 32040, Note_on_c, 0, 49, 74
2, 32040, Note_on_c, 0, 56, 79
2, 32040, Note_on_c, 0, 53, 64
2, 32052, Control_c, 0, 64, 0
2, 32069, Note_on_c, 0, 53, 0
2, 32069, Note_on_c, 0, 56, 0
2, 32069, Note_on_c, 0, 49, 0
2, 32100, Note_on_c, 0, 28, 64
2, 32129, Note_on_c, 0, 28, 0
2, 32160, Note_on_c, 0, 30, 84
2, 32280, Note_on_c, 0, 30, 0
2, 32280, Note_on_c, 0, 46, 72
2, 32280, Note_on_c, 0, 54, 58
2, 32280, Note_on_c, 0, 42, 66
2, 32280, Note_on_c, 0, 49, 64
2, 32309, Note_on_c, 0, 49, 0
2, 32309, Note_on_c, 0, 46, 0
2, 32309, Note_on_c, 0, 54, 0
2, 32309, Note_on_c, 0, 42, 0
2, 32340, Note_on_c, 0, 30, 51
2, 32369, Note_on_c, 0, 30, 0
2, 32460, Note_on_c, 0, 30, 51
2, 32520, Note_on_c, 0, 30, 0
2, 32520, Note_on_c, 0, 49, 69
2, 32520, Note_on_c, 0, 46, 89
2, 32520, Note_on_c, 0, 42, 84
2, 32520, Note_on_c, 0, 54, 66
2, 32549, Note_on_c, 0, 54, 0
2, 32549, Note_on_c, 0, 49, 0
2, 32549, Note_on_c, 0, 46, 0
2, 32549, Note_on_c, 0, 42, 0
2, 32580, Note_on_c, 0, 28, 39
2, 32609, Note_on_c, 0, 28, 0
2, 32640, Note_on_c, 0, 30, 64
2, 32730, Note_on_c, 0, 30, 0
2, 32760, Note_on_c, 0, 54, 69
2, 32760, Note_on_c, 0, 46, 79
2, 32760, Note_on_c, 0, 42, 77
2, 32760, Note_on_c, 0, 49, 84
2, 32789, Note_on_c, 0, 49, 0
2, 32789, Note_on_c, 0, 54, 0
2, 32789, Note_on_c, 0, 46, 0
2, 32789, Note_on_c, 0, 42, 0
2, 32820, Note_on_c, 0, 30, 66
2, 32849, Note_on_c, 0, 30, 0
2, 32878, Control_c, 0, 64, 127
2, 32940, Note_on_c, 0, 49, 43
2, 32940, Note_on_c, 0, 46, 39
2, 32940, Note_on_c, 0, 42, 39
2, 32940, Note_on_c, 0, 54, 30
2, 32969, Note_on_c, 0, 54, 0
2, 32969, Note_on_c, 0, 49, 0
2, 32969, Note_on_c, 0, 46, 0
2, 32969, Note_on_c, 0, 42, 0
2, 33000, Note_on_c, 0, 46, 79
2, 33000, Note_on_c, 0, 54, 96
2, 33000, Note_on_c, 0, 49, 84
2, 33000, Note_on_c, 0, 42, 84
2, 33025, Control_c, 0, 64, 0
2, 33029, Note_on_c, 0, 42, 0
2, 33029, Note_on_c, 0, 46, 0
2, 33029, Note_on_c, 0, 54, 0
2, 33029, Note_on_c, 0, 49, 0
2, 33060, Note_on_c, 0, 33, 55
2, 33089, Note_on_c, 0, 33, 0
2, 33120, Note_on_c, 0, 37, 89
2, 33240, Note_on_c, 0, 37, 0
2, 33240, Note_on_c, 0, 56, 79
2, 33240, Note_on_c, 0, 49, 77
2, 33240, Note_on_c, 0, 53, 84
2, 33269, Note_on_c, 0, 53, 0
2, 33269, Note_on_c, 0, 49, 0
2, 33269, Note_on_c, 0, 56, 0
2, 33300, Note_on_c, 0, 37, 55
2, 33329, Note_on_c, 0, 37, 0
2, 33420, Note_on_c, 0, 37, 55
2, 33480, Note_on_c, 0, 37, 0
2, 33480, Note_on_c, 0, 56, 72
2, 33480, Note_on_c, 0, 53, 66
2, 33480, Note_on_c, 0, 49, 58
2, 33509, Note_on_c, 0, 49, 0
2, 33509, Note_on_c, 0, 53, 0
2, 33509, Note_on_c, 0, 56, 0
2, 33540, Note_on_c, 0, 33, 39
2, 33569, Note_on_c, 0, 33, 0
2, 33600, Note_on_c, 0, 35, 79
2, 33690, Note_on_c, 0, 35, 0
2, 33720, Note_on_c, 0, 54, 77
2, 33720, Note_on_c, 0, 47, 58
2, 33720, Note_on_c, 0, 51, 64
2, 33749, Note_on_c, 0, 51, 0
2, 33749, Note_on_c, 0, 47, 0
2, 33749, Note_on_c, 0, 54, 0
2, 33780, Note_on_c, 0, 35, 58
2, 33809, Note_on_c, 0, 35, 0
2, 33900, Note_on_c, 0, 35, 58
2, 33960, Note_on_c, 0, 35, 0
2, 33960, Note_on_c, 0, 47, 79
2, 33960, Note_on_c, 0, 54, 81
2, 33960, Note_on_c, 0, 51, 84
2, 33989, Note_on_c, 0, 51, 0
2, 33989, Note_on_c, 0, 54, 0
2, 33989, Note_on_c, 0, 47, 0
2, 34020, Note_on_c, 0, 28, 72
2, 34049, Note_on_c, 0, 28, 0
2, 34080, Note_on_c, 0, 30, 69
2, 34200, Note_on_c, 0, 30, 0
2, 34200, Note_on_c, 0, 42, 66
2, 34200, Note_on_c, 0, 49, 79
2, 34200, Note_on_c, 0, 46, 66
2, 34200, Note_on_c, 0, 54, 66
2, 34229, Note_on_c, 0, 54, 0
2, 34229, Note_on_c, 0, 42, 0
2, 34229, Note_on_c, 0, 49, 0
2, 34229, Note_on_c, 0, 46, 0
2, 34260, Note_on_c, 0, 30, 39
2, 34289, Note_on_c, 0, 30, 0
2, 34380, Note_on_c, 0, 30, 58
2, 34440, Note_on_c, 0, 30, 0
2, 34440, Note_on_c, 0, 49, 64
2, 34440, Note_on_c, 0, 46, 58
2, 34440, Note_on_c, 0, 42, 66
2, 34440, Note_on_c, 0, 54, 79
2, 34469, Note_on_c, 0, 54, 0
2, 34469, Note_on_c, 0, 49, 0
2, 34469, Note_on_c, 0, 46, 0
2, 34469, Note_on_c, 0, 42, 0
2, 34500, Note_on_c, 0, 28, 39
2, 34529, Note_on_c, 0, 28, 0
2, 34560, Note_on_c, 0, 30, 69
2, 34680, Note_on_c, 0, 30, 0
2, 34680, Note_on_c, 0, 42, 79
2, 34680, Note_on_c, 0, 46, 66
2, 34680, Note_on_c, 0, 54, 55
2, 34680, Note_on_c, 0, 49, 64
2, 34709, Note_on_c, 0, 49, 0
2, 34709, Note_on_c, 0, 42, 0
2, 34709, Note_on_c, 0, 46, 0
2, 34709, Note_on_c, 0, 54, 0
2, 34740, Note_on_c, 0, 30, 55
2, 34769, Note_on_c, 0, 30, 0
2, 34860, Note_on_c, 0, 30, 64
2, 34920, Note_on_c, 0, 30, 0
2, 34920, Note_on_c, 0, 49, 66
2, 34920, Note_on_c, 0, 46, 77
2, 34920, Note_on_c, 0, 42, 84
2, 34920, Note_on_c, 0, 54, 72
2, 34949, Note_on_c, 0, 54, 0
2, 34949, Note_on_c, 0, 49, 0
2, 34949, Note_on_c, 0, 46, 0
2, 34949, Note_on_c, 0, 42, 0
2, 34980, Note_on_c, 0, 28, 43
2, 35009, Note_on_c, 0, 28, 0
2, 35040, Note_on_c, 0, 30, 66
2, 35160, Note_on_c, 0, 30, 0
2, 35160, Note_on_c, 0, 46, 69
2, 35160, Note_on_c, 0, 42, 79
2, 35160, Note_on_c, 0, 54, 55
2, 35160, Note_on_c, 0, 49, 55
2, 35189, Note_on_c, 0, 49, 0
2, 35189, Note_on_c, 0, 46, 0
2, 35189, Note_on_c, 0, 42, 0
2, 35189, Note_on_c, 0, 54, 0
2, 35220, Note_on_c, 0, 30, 69
2, 35249, Note_on_c, 0, 30, 0
2, 35340, Note_on_c, 0, 30, 51
2, 35400, Note_on_c, 0, 30, 0
2, 35400, Note_on_c, 0, 49, 74
2, 35400, Note_on_c, 0, 46, 72
2, 35400, Note_on_c, 0, 42, 66
2, 35400, Note_on_c, 0, 54, 64
2, 35429, Note_on_c, 0, 54, 0
2, 35429, Note_on_c, 0, 49, 0
2, 35429, Note_on_c, 0, 46, 0
2, 35429, Note_on_c, 0, 42, 0
2, 35460, Note_on_c, 0, 33, 51
2, 35489, Note_on_c, 0, 33, 0
2, 35520, Note_on_c, 0, 35, 79
2, 35610, Note_on_c, 0, 35, 0
2, 35640, Note_on_c, 0, 54, 74
2, 35640, Note_on_c, 0, 51, 96
2, 35640, Note_on_c, 0, 47, 69
2, 35669, Note_on_c, 0, 47, 0
2, 35669, Note_on_c, 0, 51, 0
2, 35669, Note_on_c, 0, 54, 0
2, 35700, Note_on_c, 0, 37, 66
2, 35729, Note_on_c, 0, 37, 0
2, 35761, Control_c, 0, 64, 127
2, 35820, Note_on_c, 0, 49, 39
2, 35820, Note_on_c, 0, 56, 26
2, 35820, Note_on_c, 0, 53, 35
2, 35849, Note_on_c, 0, 53, 0
2, 35849, Note_on_c, 0, 56, 0
2, 35849, Note_on_c, 0, 49, 0
2, 35880, Note_on_c, 0, 56, 84
2, 35880, Note_on_c, 0, 53, 79
2, 35880, Note_on_c, 0, 49, 72
2, 35893, Control_c, 0, 64, 0
2, 35909, Note_on_c, 0, 49, 0
2, 35909, Note_on_c, 0, 53, 0
2, 35909, Note_on_c, 0, 56, 0
2, 35940, Note_on_c, 0, 28, 35
2, 35969, Note_on_c, 0, 28, 0
2, 36000, Note_on_c, 0, 30, 72
2, 36120, Note_on_c, 0, 30, 0
2, 36120, Note_on_c, 0, 54, 74
2, 36120, Note_on_c, 0, 46, 51
2, 36120, Note_on_c, 0, 42, 58
2, 36120, Note_on_c, 0, 49, 55
2, 36149, Note_on_c, 0, 49, 0
2, 36149, Note_on_c, 0, 54, 0
2, 36149, Note_on_c, 0, 46, 0
2, 36149, Note_on_c, 0, 42, 0
2, 36180, Note_on_c, 0, 30, 58
2, 36209, Note_on_c, 0, 30, 0
2, 36300, Note_on_c, 0, 30, 64
2, 36360, Note_on_c, 0, 30, 0
2, 36360, Note_on_c, 0, 42, 74
2, 36360, Note_on_c, 0, 49, 72
2, 36360, Note_on_c, 0, 46, 69
2, 36360, Note_on_c, 0, 54, 55
2, 36389, Note_on_c, 0, 54, 0
2, 36389, Note_on_c, 0, 42, 0
2, 36389, Note_on_c, 0, 49, 0
2, 36389, Note_on_c, 0, 46, 0
2, 36420, Note_on_c, 0, 28, 55
2, 36449, Note_on_c, 0, 28, 0
2, 36480, Note_on_c, 0, 30, 64
2, 36600, Note_on_c, 0, 30, 0
2, 36600, Note_on_c, 0, 46, 66
2, 36600, Note_on_c, 0, 42, 74
2, 36600, Note_on_c, 0, 49, 72
2, 36600, Note_on_c, 0, 54, 58
2, 36629, Note_on_c, 0, 54, 0
2, 36629, Note_on_c, 0, 46, 0
2, 36629, Note_on_c, 0, 42, 0
2, 36629, Note_on_c, 0, 49, 0
2, 36660, Note_on_c, 0, 30, 72
2, 36689, Note_on_c, 0, 30, 0
2, 36780, Note_on_c, 0, 30, 55
2, 36840, Note_on_c, 0, 30, 0
2, 36840, Note_on_c, 0, 46, 81
2, 36840, Note_on_c, 0, 54, 79
2, 36840, Note_on_c, 0, 49, 79
2, 36840, Note_on_c, 0, 42, 79
2, 36869, Note_on_c, 0, 42, 0
2, 36869, Note_on_c, 0, 46, 0
2, 36869, Note_on_c, 0, 54, 0
2, 36869, Note_on_c, 0, 49, 0
2, 36900, Note_on_c, 0, 33, 72
2, 36929, Note_on_c, 0, 33, 0
2, 36960, Note_on_c, 0, 35, 79
2, 37080, Note_on_c, 0, 35, 0
2, 37080, Note_on_c, 0, 47, 69
2, 37080, Note_on_c, 0, 42, 79
2, 37080, Note_on_c, 0, 51, 79
2, 37080, Note_on_c, 0, 54, 69
2, 37109, Note_on_c, 0, 54, 0
2, 37109, Note_on_c, 0, 47, 0
2, 37109, Note_on_c, 0, 42, 0
2, 37109, Note_on_c, 0, 51, 0
2, 37140, Note_on_c, 0, 35, 58
2, 37169, Note_on_c, 0, 35, 0
2, 37260, Note_on_c, 0, 35, 55
2, 37320, Note_on_c, 0, 35, 0
2, 37320, Note_on_c, 0, 54, 66
2, 37320, Note_on_c, 0, 47, 74
2, 37320, Note_on_c, 0, 51, 84
2, 37349, Note_on_c, 0, 51, 0
2, 37349, Note_on_c, 0, 47, 0
2, 37349, Note_on_c, 0, 54, 0
2, 37380, Note_on_c, 0, 33, 51
2, 37409, Note_on_c, 0, 33, 0
2, 37410, Note_on_c, 0, 34, 35
2, 37439, Note_on_c, 0, 34, 0
2, 37440, Note_on_c, 0, 35, 79
2, 37560, Note_on_c, 0, 35, 0
2, 37560, Note_on_c, 0, 51, 72
2, 37560, Note_on_c, 0, 47, 77
2, 37560, Note_on_c, 0, 54, 66
2, 37589, Note_on_c, 0, 54, 0
2, 37589, Note_on_c, 0, 47, 0
2, 37589, Note_on_c, 0, 51, 0
2, 37620, Note_on_c, 0, 37, 84
2, 37649, Note_on_c, 0, 37, 0
2, 37691, Control_c, 0, 64, 127
2, 37740, Note_on_c, 0, 56, 61
2, 37740, Note_on_c, 0, 49, 35
2, 37740, Note_on_c, 0, 53, 43
2, 37769, Note_on_c, 0, 53, 0
2, 37769, Note_on_c, 0, 49, 0
2, 37769, Note_on_c, 0, 56, 0
2, 37800, Note_on_c, 0, 56, 93
2, 37800, Note_on_c, 0, 53, 89
2, 37800, Note_on_c, 0, 49, 84
2, 37823, Control_c, 0, 64, 0
2, 37829, Note_on_c, 0, 49, 0
2, 37829, Note_on_c, 0, 53, 0
2, 37829, Note_on_c, 0, 56, 0
2, 37860, Note_on_c, 0, 28, 96
2, 37889, Note_on_c, 0, 28, 0
2, 37920, Note_on_c, 0, 30, 84
2, 38040, Note_on_c, 0, 30, 0
2, 38040, Note_on_c, 0, 49, 74
2, 38040, Note_on_c, 0, 42, 79
2, 38040, Note_on_c, 0, 46, 58
2, 38040, Note_on_c, 0, 54, 66
2, 38069, Note_on_c, 0, 54, 0
2, 38069, Note_on_c, 0, 49, 0
2, 38069, Note_on_c, 0, 42, 0
2, 38069, Note_on_c, 0, 46, 0
2, 38100, Note_on_c, 0, 30, 61
2, 38129, Note_on_c, 0, 30, 0
2, 38220, Note_on_c, 0, 30, 55
2, 38280, Note_on_c, 0, 30, 0
2, 38280, Note_on_c, 0, 46, 66
2, 38280, Note_on_c, 0, 42, 84
2, 38280, Note_on_c, 0, 49, 69
2, 38280, Note_on_c, 0, 54, 58
2, 38309, Note_on_c, 0, 54, 0
2, 38309, Note_on_c, 0, 46, 0
2, 38309, Note_on_c, 0, 42, 0
2, 38309, Note_on_c, 0, 49, 0
2, 38340, Note_on_c, 0, 28, 51
2, 38369, Note_on_c, 0, 28, 0
2, 38400, Note_on_c, 0, 30, 79
2, 38520, Note_on_c, 0, 30, 0
2, 38520, Note_on_c, 0, 42, 79
2, 38520, Note_on_c, 0, 54, 69
2, 38520, Note_on_c, 0, 49, 64
2, 38520, Note_on_c, 0, 46, 72
2, 38549, Note_on_c, 0, 46, 0
2, 38549, Note_on_c, 0, 42, 0
2, 38549, Note_on_c, 0, 54, 0
2, 38549, Note_on_c, 0, 49, 0
2, 38580, Note_on_c, 0, 30, 79
2, 38609, Note_on_c, 0, 30, 0
2, 38649, Control_c, 0, 64, 127
2, 38700, Note_on_c, 0, 49, 43
2, 38700, Note_on_c, 0, 54, 26
2, 38700, Note_on_c, 0, 46, 35
2, 38700, Note_on_c, 0, 42, 26
2, 38729, Note_on_c, 0, 42, 0
2, 38729, Note_on_c, 0, 49, 0
2, 38729, Note_on_c, 0, 54, 0
2, 38729, Note_on_c, 0, 46, 0
2, 38760, Note_on_c, 0, 46, 124
2, 38760, Note_on_c, 0, 42, 89
2, 38760, Note_on_c, 0, 54, 84
2, 38760, Note_on_c, 0, 49, 72
2, 38784, Control_c, 0, 64, 0
2, 38789, Note_on_c, 0, 49, 0
2, 38789, Note_on_c, 0, 46, 0
2, 38789, Note_on_c, 0, 42, 0
2, 38789, Note_on_c, 0, 54, 0
2, 38820, Note_on_c, 0, 33, 86
2, 38849, Note_on_c, 0, 33, 0
2, 38880, Note_on_c, 0, 37, 96
2, 39000, Note_on_c, 0, 37, 0
2, 39000, Note_on_c, 0, 56, 77
2, 39000, Note_on_c, 0, 53, 79
2, 39000, Note_on_c, 0, 49, 74
2, 39029, Note_on_c, 0, 49, 0
2, 39029, Note_on_c, 0, 53, 0
2, 39029, Note_on_c, 0, 56, 0
2, 39060, Note_on_c, 0, 37, 55
2, 39089, Note_on_c, 0, 37, 0
2, 39180, Note_on_c, 0, 37, 69
2, 39240, Note_on_c, 0, 37, 0
2, 39240, Note_on_c, 0, 56, 74
2, 39240, Note_on_c, 0, 53, 74
2, 39240, Note_on_c, 0, 49, 84
2, 39269, Note_on_c, 0, 49, 0
2, 39269, Note_on_c, 0, 53, 0
2, 39269, Note_on_c, 0, 56, 0
2, 39300, Note_on_c, 0, 33, 72
2, 39329, Note_on_c, 0, 33, 0
2, 39360, Note_on_c, 0, 35, 84
2, 39480, Note_on_c, 0, 35, 0
2, 39480, Note_on_c, 0, 47, 64
2, 39480, Note_on_c, 0, 54, 84
2, 39480, Note_on_c, 0, 51, 72
2, 39509, Note_on_c, 0, 51, 0
2, 39509, Note_on_c, 0, 54, 0
2, 39509, Note_on_c, 0, 47, 0
2, 39540, Note_on_c, 0, 35, 64
2, 39569, Note_on_c, 0, 35, 0
2, 39660, Note_on_c, 0, 35, 55
2, 39720, Note_on_c, 0, 35, 0
2, 39720, Note_on_c, 0, 54, 84
2, 39720, Note_on_c, 0, 47, 66
2, 39720, Note_on_c, 0, 51, 69
2, 39749, Note_on_c, 0, 51, 0
2, 39749, Note_on_c, 0, 47, 0
2, 39749, Note_on_c, 0, 54, 0
2, 39780, Note_on_c, 0, 28, 61
2, 39809, Note_on_c, 0, 28, 0
2, 39840, Note_on_c, 0, 30, 74
2, 39960, Note_on_c, 0, 30, 0
2, 39960, Note_on_c, 0, 42, 74
2, 39960, Note_on_c, 0, 49, 66
2, 39960, Note_on_c, 0, 46, 72
2, 39960, Note_on_c, 0, 54, 58
2, 39989, Note_on_c, 0, 54, 0
2, 39989, Note_on_c, 0, 42, 0
2, 39989, Note_on_c, 0, 49, 0
2, 39989, Note_on_c, 0, 46, 0
2, 40020, Note_on_c, 0, 30, 64
2, 40049, Note_on_c, 0, 30, 0
2, 40140, Note_on_c, 0, 30, 61
2, 40200, Note_on_c, 0, 30, 0
2, 40200, Note_on_c, 0, 46, 72
2, 40200, Note_on_c, 0, 42, 77
2, 40200, Note_on_c, 0, 54, 69
2, 40200, Note_on_c, 0, 49, 66
2, 40229, Note_on_c, 0, 49, 0
2, 40229, Note_on_c, 0, 46, 0
2, 40229, Note_on_c, 0, 42, 0
2, 40229, Note_on_c, 0, 54, 0
2, 40260, Note_on_c, 0, 28, 18
2, 40289, Note_on_c, 0, 28, 0
2, 40320, Note_on_c, 0, 30, 69
2, 40440, Note_on_c, 0, 30, 0
2, 40440, Note_on_c, 0, 54, 69
2, 40440, Note_on_c, 0, 42, 77
2, 40440, Note_on_c, 0, 46, 89
2, 40440, Note_on_c, 0, 49, 72
2, 40469, Note_on_c, 0, 49, 0
2, 40469, Note_on_c, 0, 54, 0
2, 40469, Note_on_c, 0, 42, 0
2, 40469, Note_on_c, 0, 46, 0
2, 40500, Note_on_c, 0, 28, 1
2, 40500, Note_on_c, 0, 30, 74
2, 40529, Note_on_c, 0, 30, 0
2, 40529, Note_on_c, 0, 28, 0
2, 40620, Note_on_c, 0, 30, 61
2, 40680, Note_on_c, 0, 30, 0
2, 40680, Note_on_c, 0, 46, 84
2, 40680, Note_on_c, 0, 42, 89
2, 40680, Note_on_c, 0, 54, 69
2, 40680, Note_on_c, 0, 49, 74
2, 40709, Note_on_c, 0, 49, 0
2, 40709, Note_on_c, 0, 46, 0
2, 40709, Note_on_c, 0, 42, 0
2, 40709, Note_on_c, 0, 54, 0
2, 40740, Note_on_c, 0, 28, 30
2, 40769, Note_on_c, 0, 28, 0
2, 40800, Note_on_c, 0, 30, 66
2, 40920, Note_on_c, 0, 30, 0
2, 40920, Note_on_c, 0, 46, 64
2, 40920, Note_on_c, 0, 54, 74
2, 40920, Note_on_c, 0, 42, 66
2, 40920, Note_on_c, 0, 49, 74
2, 40949, Note_on_c, 0, 49, 0
2, 40949, Note_on_c, 0, 46, 0
2, 40949, Note_on_c, 0, 54, 0
2, 40949, Note_on_c, 0, 42, 0
2, 40980, Note_on_c, 0, 30, 61
2, 41009, Note_on_c, 0, 30, 0
2, 41100, Note_on_c, 0, 30, 58
2, 41160, Note_on_c, 0, 30, 0
2, 41160, Note_on_c, 0, 46, 84
2, 41160, Note_on_c, 0, 49, 74
2, 41160, Note_on_c, 0, 42, 79
2, 41160, Note_on_c, 0, 54, 74
2, 41189, Note_on_c, 0, 54, 0
2, 41189, Note_on_c, 0, 46, 0
2, 41189, Note_on_c, 0, 49, 0
2, 41189, Note_on_c, 0, 42, 0
2, 41220, Note_on_c, 0, 33, 58
2, 41249, Note_on_c, 0, 33, 0
2, 41280, Note_on_c, 0, 35, 58
2, 41322, Control_c, 0, 64, 127
2, 41386, Control_c, 0, 64, 0
2, 41400, Note_on_c, 0, 35, 0
2, 41400, Note_on_c, 0, 47, 64
2, 41400, Note_on_c, 0, 54, 66
2, 41400, Note_on_c, 0, 51, 48
2, 41429, Note_on_c, 0, 51, 0
2, 41429, Note_on_c, 0, 54, 0
2, 41429, Note_on_c, 0, 47, 0
2, 41460, Note_on_c, 0, 37, 66
2, 41489, Note_on_c, 0, 37, 0
2, 41532, Control_c, 0, 64, 127
2, 41580, Note_on_c, 0, 56, 48
2, 41580, Note_on_c, 0, 49, 30
2, 41580, Note_on_c, 0, 53, 43
2, 41609, Note_on_c, 0, 53, 0
2, 41609, Note_on_c, 0, 49, 0
2, 41609, Note_on_c, 0, 56, 0
2, 41640, Note_on_c, 0, 53, 89
2, 41640, Note_on_c, 0, 56, 66
2, 41640, Note_on_c, 0, 49, 72
2, 41650, Control_c, 0, 64, 0
2, 41669, Note_on_c, 0, 49, 0
2, 41669, Note_on_c, 0, 56, 0
2, 41669, Note_on_c, 0, 53, 0
2, 41700, Note_on_c, 0, 28, 58
2, 41729, Note_on_c, 0, 28, 0
2, 41760, Note_on_c, 0, 30, 69
2, 41880, Note_on_c, 0, 30, 0
2, 41880, Note_on_c, 0, 46, 66
2, 41880, Note_on_c, 0, 42, 74
2, 41880, Note_on_c, 0, 49, 79
2, 41880, Note_on_c, 0, 54, 66
2, 41909, Note_on_c, 0, 54, 0
2, 41909, Note_on_c, 0, 46, 0
2, 41909, Note_on_c, 0, 42, 0
2, 41909, Note_on_c, 0, 49, 0
2, 41940, Note_on_c, 0, 30, 69
2, 41969, Note_on_c, 0, 30, 0
2, 42060, Note_on_c, 0, 30, 74
2, 42120, Note_on_c, 0, 30, 0
2, 42120, Note_on_c, 0, 42, 84
2, 42120, Note_on_c, 0, 46, 89
2, 42120, Note_on_c, 0, 49, 84
2, 42120, Note_on_c, 0, 54, 64
2, 42149, Note_on_c, 0, 54, 0
2, 42149, Note_on_c, 0, 42, 0
2, 42149, Note_on_c, 0, 46, 0
2, 42149, Note_on_c, 0, 49, 0
2, 42180, Note_on_c, 0, 28, 48
2, 42209, Note_on_c, 0, 28, 0
2, 42240, Note_on_c, 0, 30, 79
2, 42360, Note_on_c, 0, 30, 0
2, 42360, Note_on_c, 0, 46, 74
2, 42360, Note_on_c, 0, 49, 84
2, 42360, Note_on_c, 0, 54, 69
2, 42389, Note_on_c, 0, 54, 0
2, 42389, Note_on_c, 0, 49, 0
2, 42389, Note_on_c, 0, 46, 0
2, 42420, Note_on_c, 0, 30, 66
2, 42449, Note_on_c, 0, 30, 0
2, 42540, Note_on_c, 0, 54, 35
2, 42540, Note_on_c, 0, 49, 48
2, 42540, Note_on_c, 0, 46, 55
2, 42540, Note_on_c, 0, 42, 48
2, 42550, Control_c, 0, 64, 127
2, 42569, Note_on_c, 0, 42, 0
2, 42569, Note_on_c, 0, 54, 0
2, 42569, Note_on_c, 0, 49, 0
2, 42569, Note_on_c, 0, 46, 0
2, 42600, Note_on_c, 0, 49, 66
2, 42600, Note_on_c, 0, 46, 74
2, 42600, Note_on_c, 0, 54, 79
2, 42600, Note_on_c, 0, 42, 69
2, 42605, Control_c, 0, 64, 0
2, 42629, Note_on_c, 0, 42, 0
2, 42629, Note_on_c, 0, 49, 0
2, 42629, Note_on_c, 0, 46, 0
2, 42629, Note_on_c, 0, 54, 0
2, 42660, Note_on_c, 0, 33, 72
2, 42689, Note_on_c, 0, 33, 0
2, 42720, Note_on_c, 0, 35, 84
2, 42840, Note_on_c, 0, 35, 0
2, 42840, Note_on_c, 0, 54, 74
2, 42840, Note_on_c, 0, 47, 58
2, 42840, Note_on_c, 0, 51, 69
2, 42869, Note_on_c, 0, 51, 0
2, 42869, Note_on_c, 0, 47, 0
2, 42869, Note_on_c, 0, 54, 0
2, 42900, Note_on_c, 0, 35, 64
2, 42929, Note_on_c, 0, 35, 0
2, 43020, Note_on_c, 0, 35, 69
2, 43080, Note_on_c, 0, 35, 0
2, 43080, Note_on_c, 0, 54, 79
2, 43080, Note_on_c, 0, 51, 89
2, 43080, Note_on_c, 0, 47, 79
2, 43109, Note_on_c, 0, 47, 0
2, 43109, Note_on_c, 0, 51, 0
2, 43109, Note_on_c, 0, 54, 0
2, 43140, Note_on_c, 0, 33, 39
2, 43169, Note_on_c, 0, 33, 0
2, 43170, Note_on_c, 0, 34, 66
2, 43199, Note_on_c, 0, 34, 0
2, 43200, Note_on_c, 0, 35, 89
2, 43320, Note_on_c, 0, 35, 0
2, 43320, Note_on_c, 0, 51, 89
2, 43320, Note_on_c, 0, 54, 72
2, 43320, Note_on_c, 0, 47, 69
2, 43349, Note_on_c, 0, 47, 0
2, 43349, Note_on_c, 0, 54, 0
2, 43349, Note_on_c, 0, 51, 0
2, 43380, Note_on_c, 0, 37, 89
2, 43409, Note_on_c, 0, 37, 0
2, 43448, Control_c, 0, 64, 127
2, 43500, Note_on_c, 0, 56, 51
2, 43500, Note_on_c, 0, 49, 35
2, 43500, Note_on_c, 0, 53, 51
2, 43529, Note_on_c, 0, 53, 0
2, 43529, Note_on_c, 0, 49, 0
2, 43529, Note_on_c, 0, 56, 0
2, 43560, Note_on_c, 0, 56, 74
2, 43560, Note_on_c, 0, 53, 69
2, 43560, Note_on_c, 0, 49, 77
2, 43566, Control_c, 0, 64, 0
2, 43589, Note_on_c, 0, 49, 0
2, 43589, Note_on_c, 0, 53, 0
2, 43589, Note_on_c, 0, 56, 0
2, 43620, Note_on_c, 0, 28, 48
2, 43649, Note_on_c, 0, 28, 0
2, 43680, Note_on_c, 0, 30, 102
2, 43800, Note_on_c, 0, 30, 0
2, 43800, Note_on_c, 0, 54, 69
2, 43800, Note_on_c, 0, 46, 64
2, 43800, Note_on_c, 0, 49, 74
2, 43800, Note_on_c, 0, 42, 77
2, 43829, Note_on_c, 0, 42, 0
2, 43829, Note_on_c, 0, 54, 0
2, 43829, Note_on_c, 0, 46, 0
2, 43829, Note_on_c, 0, 49, 0
2, 43860, Note_on_c, 0, 30, 58
2, 43889, Note_on_c, 0, 30, 0
2, 43980, Note_on_c, 0, 30, 51
2, 44040, Note_on_c, 0, 30, 0
2, 44040, Note_on_c, 0, 42, 79
2, 44040, Note_on_c, 0, 49, 84
2, 44040, Note_on_c, 0, 46, 69
2, 44040, Note_on_c, 0, 54, 55
2, 44069, Note_on_c, 0, 54, 0
2, 44069, Note_on_c, 0, 42, 0
2, 44069, Note_on_c, 0, 49, 0
2, 44069, Note_on_c, 0, 46, 0
2, 44100, Note_on_c, 0, 28, 64
2, 44129, Note_on_c, 0, 28, 0
2, 44160, Note_on_c, 0, 30, 72
2, 44280, Note_on_c, 0, 30, 0
2, 44280, Note_on_c, 0, 42, 61
2, 44280, Note_on_c, 0, 46, 69
2, 44280, Note_on_c, 0, 49, 69
2, 44280, Note_on_c, 0, 54, 72
2, 44309, Note_on_c, 0, 54, 0
2, 44309, Note_on_c, 0, 42, 0
2, 44309, Note_on_c, 0, 46, 0
2, 44309, Note_on_c, 0, 49, 0
2, 44340, Note_on_c, 0, 30, 48
2, 44369, Note_on_c, 0, 30, 0
2, 44460, Note_on_c, 0, 30, 61
2, 44520, Note_on_c, 0, 30, 0
2, 44520, Note_on_c, 0, 46, 89
2, 44520, Note_on_c, 0, 42, 77
2, 44520, Note_on_c, 0, 54, 66
2, 44520, Note_on_c, 0, 49, 74
2, 44549, Note_on_c, 0, 49, 0
2, 44549, Note_on_c, 0, 46, 0
2, 44549, Note_on_c, 0, 42, 0
2, 44549, Note_on_c, 0, 54, 0
2, 44580, Note_on_c, 0, 33, 58
2, 44609, Note_on_c, 0, 33, 0
2, 44640, Note_on_c, 0, 37, 96
2, 44760, Note_on_c, 0, 37, 0
2, 44760, Note_on_c, 0, 56, 74
2, 44760, Note_on_c, 0, 49, 72
2, 44760, Note_on_c, 0, 53, 79
2, 44789, Note_on_c, 0, 53, 0
2, 44789, Note_on_c, 0, 49, 0
2, 44789, Note_on_c, 0, 56, 0
2, 44820, Note_on_c, 0, 37, 58
2, 44849, Note_on_c, 0, 37, 0
2, 44940, Note_on_c, 0, 37, 55
2, 45000, Note_on_c, 0, 37, 0
2, 45000, Note_on_c, 0, 56, 74
2, 45000, Note_on_c, 0, 53, 79
2, 45000, Note_on_c, 0, 49, 79
2, 45029, Note_on_c, 0, 49, 0
2, 45029, Note_on_c, 0, 53, 0
2, 45029, Note_on_c, 0, 56, 0
2, 45060, Note_on_c, 0, 33, 64
2, 45089, Note_on_c, 0, 33, 0
2, 45120, Note_on_c, 0, 35, 79
2, 45240, Note_on_c, 0, 35, 0
2, 45240, Note_on_c, 0, 54, 69
2, 45240, Note_on_c, 0, 51, 64
2, 45240, Note_on_c, 0, 47, 66
2, 45269, Note_on_c, 0, 47, 0
2, 45269, Note_on_c, 0, 51, 0
2, 45269, Note_on_c, 0, 54, 0
2, 45300, Note_on_c, 0, 35, 66
2, 45329, Note_on_c, 0, 35, 0
2, 45420, Note_on_c, 0, 35, 61
2, 45480, Note_on_c, 0, 35, 0
2, 45480, Note_on_c, 0, 51, 84
2, 45480, Note_on_c, 0, 54, 74
2, 45480, Note_on_c, 0, 47, 66
2, 45509, Note_on_c, 0, 47, 0
2, 45509, Note_on_c, 0, 54, 0
2, 45509, Note_on_c, 0, 51, 0
2, 45540, Note_on_c, 0, 28, 61
2, 45569, Note_on_c, 0, 28, 0
2, 45600, Note_on_c, 0, 30, 69
2, 45720, Note_on_c, 0, 30, 0
2, 45720, Note_on_c, 0, 42, 79
2, 45720, Note_on_c, 0, 46, 89
2, 45720, Note_on_c, 0, 49, 84
2, 45720, Note_on_c, 0, 54, 51
2, 45749, Note_on_c, 0, 54, 0
2, 45749, Note_on_c, 0, 42, 0
2, 45749, Note_on_c, 0, 46, 0
2, 45749, Note_on_c, 0, 49, 0
2, 45780, Note_on_c, 0, 30, 64
2, 45809, Note_on_c, 0, 30, 0
2, 45900, Note_on_c, 0, 30, 55
2, 45960, Note_on_c, 0, 30, 0
2, 45960, Note_on_c, 0, 46, 89
2, 45960, Note_on_c, 0, 49, 69
2, 45960, Note_on_c, 0, 42, 69
2, 45960, Note_on_c, 0, 54, 55
2, 45989, Note_on_c, 0, 54, 0
2, 45989, Note_on_c, 0, 46, 0
2, 45989, Note_on_c, 0, 49, 0
2, 45989, Note_on_c, 0, 42, 0
2, 46020, Note_on_c, 0, 28, 66
2, 46049, Note_on_c, 0, 28, 0
2, 46080, Note_on_c, 0, 30, 79
2, 46200, Note_on_c, 0, 30, 0
2, 46200, Note_on_c, 0, 54, 58
2, 46200, Note_on_c, 0, 46, 84
2, 46200, Note_on_c, 0, 42, 66
2, 46200, Note_on_c, 0, 49, 77
2, 46229, Note_on_c, 0, 49, 0
2, 46229, Note_on_c, 0, 54, 0
2, 46229, Note_on_c, 0, 46, 0
2, 46229, Note_on_c, 0, 42, 0
2, 46260, Note_on_c, 0, 30, 72
2, 46289, Note_on_c, 0, 30, 0
2, 46380, Note_on_c, 0, 30, 51
2, 46440, Note_on_c, 0, 30, 0
2, 46440, Note_on_c, 0, 49, 66
2, 46440, Note_on_c, 0, 46, 84
2, 46440, Note_on_c, 0, 42, 84
2, 46440, Note_on_c, 0, 54, 64
2, 46469, Note_on_c, 0, 54, 0
2, 46469, Note_on_c, 0, 49, 0
2, 46469, Note_on_c, 0, 46, 0
2, 46469, Note_on_c, 0, 42, 0
2, 46500, Note_on_c, 0, 28, 35
2, 46529, Note_on_c, 0, 28, 0
2, 46560, Note_on_c, 0, 30, 69
2, 46680, Note_on_c, 0, 30, 0
2, 46680, Note_on_c, 0, 46, 69
2, 46680, Note_on_c, 0, 42, 72
2, 46680, Note_on_c, 0, 54, 61
2, 46680, Note_on_c, 0, 49, 74
2, 46709, Note_on_c, 0, 49, 0
2, 46709, Note_on_c, 0, 46, 0
2, 46709, Note_on_c, 0, 42, 0
2, 46709, Note_on_c, 0, 54, 0
2, 46740, Note_on_c, 0, 30, 61
2, 46769, Note_on_c, 0, 30, 0
2, 46860, Note_on_c, 0, 30, 64
2, 46920, Note_on_c, 0, 30, 0
2, 46920, Note_on_c, 0, 42, 79
2, 46920, Note_on_c, 0, 46, 74
2, 46920, Note_on_c, 0, 54, 35
2, 46920, Note_on_c, 0, 49, 79
2, 46949, Note_on_c, 0, 49, 0
2, 46949, Note_on_c, 0, 42, 0
2, 46949, Note_on_c, 0, 46, 0
2, 46949, Note_on_c, 0, 54, 0
2, 46980, Note_on_c, 0, 33, 39
2, 47009, Note_on_c, 0, 33, 0
2, 47040, Note_on_c, 0, 35, 84
2, 47130, Note_on_c, 0, 35, 0
2, 47160, Note_on_c, 0, 54, 79
2, 47160, Note_on_c, 0, 51, 86
2, 47160, Note_on_c, 0, 47, 74
2, 47189, Note_on_c, 0, 47, 0
2, 47189, Note_on_c, 0, 51, 0
2, 47189, Note_on_c, 0, 54, 0
2, 47220, Note_on_c, 0, 37, 64
2, 47249, Note_on_c, 0, 37, 0
2, 47340, Note_on_c, 0, 37, 72
2, 47400, Note_on_c, 0, 37, 0
2, 47400, Note_on_c, 0, 56, 84
2, 47400, Note_on_c, 0, 53, 102
2, 47400, Note_on_c, 0, 49, 69
2, 47429, Note_on_c, 0, 49, 0
2, 47429, Note_on_c, 0, 53, 0
2, 47429, Note_on_c, 0, 56, 0
2, 47460, Note_on_c, 0, 28, 66
2, 47489, Note_on_c, 0, 28, 0
2, 47520, Note_on_c, 0, 30, 69
2, 47640, Note_on_c, 0, 30, 0
2, 47640, Note_on_c, 0, 54, 72
2, 47640, Note_on_c, 0, 42, 66
2, 47640, Note_on_c, 0, 46, 64
2, 47640, Note_on_c, 0, 49, 64
2, 47669, Note_on_c, 0, 49, 0
2, 47669, Note_on_c, 0, 54, 0
2, 47669, Note_on_c, 0, 42, 0
2, 47669, Note_on_c, 0, 46, 0
2, 47700, Note_on_c, 0, 30, 55
2, 47729, Note_on_c, 0, 30, 0
2, 47820, Note_on_c, 0, 30, 58
2, 47880, Note_on_c, 0, 30, 0
2, 47880, Note_on_c, 0, 49, 79
2, 47880, Note_on_c, 0, 46, 79
2, 47880, Note_on_c, 0, 42, 77
2, 47880, Note_on_c, 0, 54, 55
2, 47909, Note_on_c, 0, 54, 0
2, 47909, Note_on_c, 0, 49, 0
2, 47909, Note_on_c, 0, 46, 0
2, 47909, Note_on_c, 0, 42, 0
2, 47940, Note_on_c, 0, 28, 58
2, 47969, Note_on_c, 0, 28, 0
2, 47970, Note_on_c, 0, 29, 51
2, 47999, Note_on_c, 0, 29, 0
2, 48000, Note_on_c, 0, 30, 79
2, 48120, Note_on_c, 0, 30, 0
2, 48120, Note_on_c, 0, 54, 74
2, 48120, Note_on_c, 0, 42, 79
2, 48120, Note_on_c, 0, 46, 84
2, 48120, Note_on_c, 0, 49, 79
2, 48149, Note_on_c, 0, 49, 0
2, 48149, Note_on_c, 0, 54, 0
2, 48149, Note_on_c, 0, 42, 0
2, 48149, Note_on_c, 0, 46, 0
2, 48180, Note_on_c, 0, 30, 61
2, 48209, Note_on_c, 0, 30, 0
2, 48247, Control_c, 0, 64, 127
2, 48300, Note_on_c, 0, 42, 51
2, 48300, Note_on_c, 0, 49, 51
2, 48300, Note_on_c, 0, 54, 26
2, 48300, Note_on_c, 0, 46, 51
2, 48329, Note_on_c, 0, 46, 0
2, 48329, Note_on_c, 0, 42, 0
2, 48329, Note_on_c, 0, 49, 0
2, 48329, Note_on_c, 0, 54, 0
2, 48360, Note_on_c, 0, 46, 89
2, 48360, Note_on_c, 0, 42, 96
2, 48360, Note_on_c, 0, 54, 79
2, 48360, Note_on_c, 0, 49, 84
2, 48364, Control_c, 0, 64, 0
2, 48389, Note_on_c, 0, 49, 0
2, 48389, Note_on_c, 0, 46, 0
2, 48389, Note_on_c, 0, 42, 0
2, 48389, Note_on_c, 0, 54, 0
2, 48420, Note_on_c, 0, 33, 64
2, 48449, Note_on_c, 0, 33, 0
2, 48480, Note_on_c, 0, 35, 114
2, 48600, Note_on_c, 0, 35, 0
2, 48600, Note_on_c, 0, 54, 77
2, 48600, Note_on_c, 0, 51, 64
2, 48600, Note_on_c, 0, 47, 79
2, 48629, Note_on_c, 0, 47, 0
2, 48629, Note_on_c, 0, 51, 0
2, 48629, Note_on_c, 0, 54, 0
2, 48660, Note_on_c, 0, 35, 72
2, 48689, Note_on_c, 0, 35, 0
2, 48780, Note_on_c, 0, 35, 79
2, 48840, Note_on_c, 0, 35, 0
2, 48840, Note_on_c, 0, 51, 66
2, 48840, Note_on_c, 0, 47, 72
2, 48840, Note_on_c, 0, 54, 89
2, 48869, Note_on_c, 0, 54, 0
2, 48869, Note_on_c, 0, 47, 0
2, 48869, Note_on_c, 0, 51, 0
2, 48900, Note_on_c, 0, 33, 58
2, 48929, Note_on_c, 0, 33, 0
2, 48930, Note_on_c, 0, 34, 48
2, 48959, Note_on_c, 0, 34, 0
2, 48960, Note_on_c, 0, 35, 86
2, 49080, Note_on_c, 0, 35, 0
2, 49080, Note_on_c, 0, 54, 84
2, 49080, Note_on_c, 0, 51, 89
2, 49080, Note_on_c, 0, 47, 74
2, 49109, Note_on_c, 0, 47, 0
2, 49109, Note_on_c, 0, 51, 0
2, 49109, Note_on_c, 0, 54, 0
2, 49140, Note_on_c, 0, 37, 74
2, 49169, Note_on_c, 0, 37, 0
2, 49260, Note_on_c, 0, 37, 58
2, 49262, Control_c, 0, 64, 127
2, 49314, Control_c, 0, 64, 0
2, 49320, Note_on_c, 0, 37, 0
2, 49320, Note_on_c, 0, 56, 74
2, 49320, Note_on_c, 0, 53, 96
2, 49320, Note_on_c, 0, 49, 77
2, 49349, Note_on_c, 0, 49, 0
2, 49349, Note_on_c, 0, 53, 0
2, 49349, Note_on_c, 0, 56, 0
2, 49380, Note_on_c, 0, 28, 77
2, 49409, Note_on_c, 0, 28, 0
2, 49440, Note_on_c, 0, 30, 66
2, 49560, Note_on_c, 0, 30, 0
2, 49560, Note_on_c, 0, 46, 72
2, 49560, Note_on_c, 0, 42, 77
2, 49560, Note_on_c, 0, 54, 61
2, 49560, Note_on_c, 0, 49, 84
2, 49589, Note_on_c, 0, 49, 0
2, 49589, Note_on_c, 0, 46, 0
2, 49589, Note_on_c, 0, 42, 0
2, 49589, Note_on_c, 0, 54, 0
2, 49620, Note_on_c, 0, 30, 66
2, 49649, Note_on_c, 0, 30, 0
2, 49740, Note_on_c, 0, 30, 64
2, 49800, Note_on_c, 0, 30, 0
2, 49800, Note_on_c, 0, 42, 64
2, 49800, Note_on_c, 0, 54, 66
2, 49800, Note_on_c, 0, 49, 84
2, 49800, Note_on_c, 0, 46, 102
2, 49829, Note_on_c, 0, 46, 0
2, 49829, Note_on_c, 0, 42, 0
2, 49829, Note_on_c, 0, 54, 0
2, 49829, Note_on_c, 0, 49, 0
2, 49860, Note_on_c, 0, 28, 66
2, 49889, Note_on_c, 0, 28, 0
2, 49920, Note_on_c, 0, 30, 72
2, 50040, Note_on_c, 0, 30, 0
2, 50040, Note_on_c, 0, 54, 69
2, 50040, Note_on_c, 0, 49, 64
2, 50040, Note_on_c, 0, 46, 66
2, 50040, Note_on_c, 0, 42, 64
2, 50069, Note_on_c, 0, 42, 0
2, 50069, Note_on_c, 0, 54, 0
2, 50069, Note_on_c, 0, 49, 0
2, 50069, Note_on_c, 0, 46, 0
2, 50100, Note_on_c, 0, 30, 55
2, 50129, Note_on_c, 0, 30, 0
2, 50220, Note_on_c, 0, 30, 43
2, 50280, Note_on_c, 0, 30, 0
2, 50280, Note_on_c, 0, 46, 69
2, 50280, Note_on_c, 0, 54, 72
2, 50280, Note_on_c, 0, 42, 74
2, 50280, Note_on_c, 0, 49, 84
2, 50309, Note_on_c, 0, 49, 0
2, 50309, Note_on_c, 0, 46, 0
2, 50309, Note_on_c, 0, 54, 0
2, 50309, Note_on_c, 0, 42, 0
2, 50340, Note_on_c, 0, 33, 51
2, 50369, Note_on_c, 0, 33, 0
2, 50400, Note_on_c, 0, 37, 79
2, 50526, Note_on_c, 0, 56, 79
2, 50526, Note_on_c, 0, 53, 66
2, 50526, Note_on_c, 0, 49, 79
2, 50529, Note_on_c, 0, 37, 0
2, 50548, Note_on_c, 0, 49, 0
2, 50548, Note_on_c, 0, 53, 0
2, 50549, Note_on_c, 0, 56, 0
2, 50583, Note_on_c, 0, 37, 77
2, 50619, Note_on_c, 0, 37, 0
2, 50699, Note_on_c, 0, 37, 79
2, 50759, Note_on_c, 0, 56, 111
2, 50760, Note_on_c, 0, 53, 84
2, 50760, Note_on_c, 0, 49, 81
2, 50765, Note_on_c, 0, 37, 0
2, 50787, Note_on_c, 0, 56, 0
2, 50788, Note_on_c, 0, 53, 0
2, 50788, Note_on_c, 0, 49, 0
2, 50815, Note_on_c, 0, 37, 66
2, 50860, Note_on_c, 0, 37, 0
2, 50880, Note_on_c, 0, 35, 127
2, 50882, Note_on_c, 0, 57, 123
2, 50882, Note_on_c, 0, 51, 125
2, 50882, Note_on_c, 0, 54, 93
2, 50882, Note_on_c, 0, 47, 89
2, 50921, Note_on_c, 0, 47, 0
2, 50921, Note_on_c, 0, 51, 0
2, 50922, Note_on_c, 0, 54, 0
2, 50923, Note_on_c, 0, 57, 0
2, 50924, Note_on_c, 0, 35, 0
2, 51333, Control_c, 0, 1, 125
2, 51335, Control_c, 0, 1, 120
2, 51337, Control_c, 0, 1, 115
2, 51339, Control_c, 0, 1, 108
2, 51341, Control_c, 0, 1, 101
2, 51343, Control_c, 0, 1, 95
2, 51345, Control_c, 0, 1, 88
2, 51348, Control_c, 0, 1, 80
2, 51350, Control_c, 0, 1, 71
2, 51352, Control_c, 0, 1, 62
2, 51354, Control_c, 0, 1, 52
2, 51356, Control_c, 0, 1, 43
2, 51358, Control_c, 0, 1, 34
2, 51360, Control_c, 0, 1, 27
2, 51362, Control_c, 0, 1, 19
2, 51364, Control_c, 0, 1, 10
2, 51366, Control_c, 0, 1, 1
2, 51368, Control_c, 0, 1, 0
2, 51442, Pitch_bend_c, 0, 8064
2, 51444, Pitch_bend_c, 0, 7808
2, 51446, Pitch_bend_c, 0, 7424
2, 51448, Pitch_bend_c, 0, 7168
2, 51450, Pitch_bend_c, 0, 6784
2, 51451, Pitch_bend_c, 0, 6400
2, 51453, Pitch_bend_c, 0, 6016
2, 51455, Pitch_bend_c, 0, 5760
2, 51457, Pitch_bend_c, 0, 5504
2, 51459, Pitch_bend_c, 0, 5120
2, 51461, Pitch_bend_c, 0, 4864
2, 51463, Pitch_bend_c, 0, 4736
2, 51465, Pitch_bend_c, 0, 4480
2, 51467, Pitch_bend_c, 0, 4352
2, 51469, Pitch_bend_c, 0, 4096
2, 51471, Pitch_bend_c, 0, 3840
2, 51473, Pitch_bend_c, 0, 3712
2, 51474, Pitch_bend_c, 0, 3584
2, 51476, Pitch_bend_c, 0, 3456
2, 51480, Pitch_bend_c, 0, 3200
2, 51481, Note_on_c, 0, 61, 74
2, 51482, Pitch_bend_c, 0, 3072
2, 51486, Pitch_bend_c, 0, 2944
2, 51488, Pitch_bend_c, 0, 2816
2, 51508, Pitch_bend_c, 0, 3840
2, 51510, Pitch_bend_c, 0, 4224
2, 51512, Pitch_bend_c, 0, 4736
2, 51514, Pitch_bend_c, 0, 5120
2, 51516, Pitch_bend_c, 0, 5760
2, 51518, Pitch_bend_c, 0, 6272
2, 51520, Pitch_bend_c, 0, 6912
2, 51522, Pitch_bend_c, 0, 7424
2, 51524, Note_on_c, 0, 61, 0
2, 51524, Pitch_bend_c, 0, 7936
2, 51526, Pitch_bend_c, 0, 8192
2, 51545, Note_on_c, 0, 57, 108
2, 51579, Note_on_c, 0, 57, 0
2, 51605, Note_on_c, 0, 59, 81
2, 51639, Note_on_c, 0, 59, 0
2, 51647, Pitch_bend_c, 0, 8064
2, 51649, Pitch_bend_c, 0, 7808
2, 51651, Pitch_bend_c, 0, 7552
2, 51653, Pitch_bend_c, 0, 7168
2, 51654, Pitch_bend_c, 0, 6784
2, 51656, Pitch_bend_c, 0, 6272
2, 51658, Pitch_bend_c, 0, 5888
2, 51659, Pitch_bend_c, 0, 5504
2, 51662, Pitch_bend_c, 0, 5120
2, 51664, Pitch_bend_c, 0, 4864
2, 51666, Pitch_bend_c, 0, 4608
2, 51668, Pitch_bend_c, 0, 4352
2, 51669, Note_on_c, 0, 57, 77
2, 51672, Pitch_bend_c, 0, 4224
2, 51680, Pitch_bend_c, 0, 4608
2, 51682, Pitch_bend_c, 0, 4864
2, 51684, Pitch_bend_c, 0, 5120
2, 51685, Pitch_bend_c, 0, 5376
2, 51687, Pitch_bend_c, 0, 5632
2, 51688, Pitch_bend_c, 0, 6016
2, 51691, Pitch_bend_c, 0, 6528
2, 51693, Pitch_bend_c, 0, 6912
2, 51695, Pitch_bend_c, 0, 7296
2, 51697, Pitch_bend_c, 0, 7680
2, 51699, Pitch_bend_c, 0, 8064
2, 51701, Pitch_bend_c, 0, 8192
2, 51708, Note_on_c, 0, 57, 0
2, 51731, Note_on_c, 0, 54, 79
2, 51759, Note_on_c, 0, 54, 0
2, 51794, Note_on_c, 0, 49, 96
2, 51830, Note_on_c, 0, 49, 0
2, 51846, Pitch_bend_c, 0, 7936
2, 51848, Pitch_bend_c, 0, 7552
2, 51849, Pitch_bend_c, 0, 7040
2, 51851, Pitch_bend_c, 0, 6656
2, 51853, Pitch_bend_c, 0, 6144
2, 51855, Pitch_bend_c, 0, 5504
2, 51857, Pitch_bend_c, 0, 4992
2, 51858, Pitch_bend_c, 0, 4480
2, 51862, Pitch_bend_c, 0, 3840
2, 51863, Pitch_bend_c, 0, 3328
2, 51865, Pitch_bend_c, 0, 2816
2, 51867, Pitch_bend_c, 0, 2432
2, 51868, Note_on_c, 0, 54, 102
2, 51870, Pitch_bend_c, 0, 2048
2, 51871, Pitch_bend_c, 0, 1792
2, 51873, Pitch_bend_c, 0, 1664
2, 51877, Pitch_bend_c, 0, 1408
2, 51883, Pitch_bend_c, 0, 1664
2, 51884, Pitch_bend_c, 0, 1792
2, 51886, Pitch_bend_c, 0, 1920
2, 51888, Pitch_bend_c, 0, 2304
2, 51890, Pitch_bend_c, 0, 2560
2, 51892, Pitch_bend_c, 0, 2944
2, 51894, Pitch_bend_c, 0, 3328
2, 51896, Pitch_bend_c, 0, 3840
2, 51898, Pitch_bend_c, 0, 4352
2, 51900, Pitch_bend_c, 0, 4736
2, 51902, Pitch_bend_c, 0, 5248
2, 51903, Pitch_bend_c, 0, 5632
2, 51905, Pitch_bend_c, 0, 6144
2, 51907, Pitch_bend_c, 0, 6528
2, 51909, Pitch_bend_c, 0, 7040
2, 51911, Pitch_bend_c, 0, 7424
2, 51913, Pitch_bend_c, 0, 7680
2, 51915, Pitch_bend_c, 0, 7936
2, 51917, Pitch_bend_c, 0, 8192
2, 52142, Note_on_c, 0, 54, 0
2, 52142, End_track
3, 0, Start_track
3, 0, MIDI_port, 0
3, 0, Title_t, "Jazz Electric Guitar"
3, 0, Control_c, 1, 0, 56
3, 0, Control_c, 1, 32, 1
3, 0, Program_c, 1, 26
3, 0, Control_c, 1, 7, 90
3, 0, Control_c, 1, 10, 0
3, 0, Control_c, 1, 91, 30
3, 302, Note_on_c, 1, 28, 64
3, 302, Note_on_c, 1, 40, 77
3, 345, Note_on_c, 1, 40, 0
3, 347, Control_c, 1, 64, 127
3, 348, Note_on_c, 1, 28, 0
3, 366, Note_on_c, 1, 28, 39
3, 366, Note_on_c, 1, 40, 84
3, 388, Note_on_c, 1, 28, 0
3, 393, Note_on_c, 1, 40, 0
3, 420, Note_on_c, 1, 28, 48
3, 422, Note_on_c, 1, 40, 48
3, 443, Note_on_c, 1, 40, 0
3, 445, Note_on_c, 1, 28, 0
3, 470, Control_c, 1, 64, 0
3, 481, Note_on_c, 1, 42, 69
3, 483, Note_on_c, 1, 30, 66
3, 510, Control_c, 1, 64, 127
3, 582, Control_c, 1, 64, 0
3, 593, Note_on_c, 1, 42, 0
3, 595, Note_on_c, 1, 30, 0
3, 603, Note_on_c, 1, 46, 77
3, 603, Note_on_c, 1, 54, 84
3, 603, Note_on_c, 1, 49, 74
3, 617, Note_on_c, 1, 49, 0
3, 617, Note_on_c, 1, 46, 0
3, 619, Note_on_c, 1, 54, 0
3, 661, Note_on_c, 1, 42, 69
3, 662, Note_on_c, 1, 30, 58
3, 676, Note_on_c, 1, 42, 0
3, 681, Note_on_c, 1, 30, 0
3, 781, Note_on_c, 1, 30, 43
3, 782, Note_on_c, 1, 42, 64
3, 783, Control_c, 1, 64, 127
3, 838, Control_c, 1, 64, 0
3, 842, Note_on_c, 1, 42, 0
3, 842, Note_on_c, 1, 54, 84
3, 842, Note_on_c, 1, 46, 66
3, 842, Note_on_c, 1, 49, 66
3, 845, Note_on_c, 1, 30, 0
3, 856, Note_on_c, 1, 49, 0
3, 856, Note_on_c, 1, 46, 0
3, 857, Note_on_c, 1, 54, 0
3, 899, Note_on_c, 1, 33, 55
3, 917, Note_on_c, 1, 33, 0
3, 961, Note_on_c, 1, 35, 96
3, 972, Control_c, 1, 64, 127
3, 1052, Control_c, 1, 64, 0
3, 1078, Note_on_c, 1, 35, 0
3, 1079, Note_on_c, 1, 51, 79
3, 1080, Note_on_c, 1, 54, 74
3, 1080, Note_on_c, 1, 47, 74
3, 1095, Note_on_c, 1, 51, 0
3, 1096, Note_on_c, 1, 47, 0
3, 1096, Note_on_c, 1, 54, 0
3, 1145, Note_on_c, 1, 37, 96
3, 1171, Note_on_c, 1, 37, 0
3, 1190, Control_c, 1, 64, 127
3, 1258, Note_on_c, 1, 53, 69
3, 1258, Note_on_c, 1, 49, 48
3, 1259, Note_on_c, 1, 56, 66
3, 1274, Note_on_c, 1, 56, 0
3, 1274, Note_on_c, 1, 49, 0
3, 1275, Note_on_c, 1, 53, 0
3, 1321, Note_on_c, 1, 56, 79
3, 1322, Note_on_c, 1, 53, 79
3, 1322, Note_on_c, 1, 49, 79
3, 1334, Note_on_c, 1, 49, 0
3, 1334, Note_on_c, 1, 53, 0
3, 1334, Note_on_c, 1, 56, 0
3, 1334, Control_c, 1, 64, 0
3, 1380, Note_on_c, 1, 28, 61
3, 1382, Note_on_c, 1, 40, 58
3, 1402, Note_on_c, 1, 28, 0
3, 1403, Note_on_c, 1, 40, 0
3, 1442, Note_on_c, 1, 42, 64
3, 1442, Note_on_c, 1, 30, 77
3, 1463, Control_c, 1, 64, 127
3, 1543, Control_c, 1, 64, 0
3, 1556, Note_on_c, 1, 42, 0
3, 1557, Note_on_c, 1, 30, 0
3, 1561, Note_on_c, 1, 49, 64
3, 1561, Note_on_c, 1, 46, 72
3, 1562, Note_on_c, 1, 54, 72
3, 1578, Note_on_c, 1, 54, 0
3, 1578, Note_on_c, 1, 46, 0
3, 1578, Note_on_c, 1, 49, 0
3, 1625, Note_on_c, 1, 42, 72
3, 1625, Note_on_c, 1, 30, 55
3, 1644, Note_on_c, 1, 42, 0
3, 1645, Note_on_c, 1, 30, 0
3, 1738, Note_on_c, 1, 42, 64
3, 1739, Note_on_c, 1, 30, 58
3, 1800, Note_on_c, 1, 46, 72
3, 1801, Note_on_c, 1, 54, 66
3, 1801, Note_on_c, 1, 49, 84
3, 1805, Note_on_c, 1, 42, 0
3, 1808, Note_on_c, 1, 30, 0
3, 1814, Note_on_c, 1, 49, 0
3, 1816, Note_on_c, 1, 46, 0
3, 1816, Note_on_c, 1, 54, 0
3, 1860, Note_on_c, 1, 28, 77
3, 1860, Note_on_c, 1, 40, 58
3, 1880, Note_on_c, 1, 40, 0
3, 1880, Note_on_c, 1, 28, 0
3, 1921, Note_on_c, 1, 30, 66
3, 1922, Note_on_c, 1, 42, 72
3, 1956, Control_c, 1, 64, 127
3, 2010, Control_c, 1, 64, 0
3, 2033, Note_on_c, 1, 30, 0
3, 2035, Note_on_c, 1, 42, 0
3, 2039, Note_on_c, 1, 54, 66
3, 2039, Note_on_c, 1, 49, 66
3, 2040, Note_on_c, 1, 46, 64
3, 2051, Note_on_c, 1, 46, 0
3, 2052, Note_on_c, 1, 54, 0
3, 2053, Note_on_c, 1, 49, 0
3, 2102, Note_on_c, 1, 30, 64
3, 2102, Note_on_c, 1, 42, 72
3, 2122, Note_on_c, 1, 42, 0
3, 2122, Note_on_c, 1, 30, 0
3, 2183, Control_c, 1, 64, 127
3, 2212, Note_on_c, 1, 54, 55
3, 2212, Note_on_c, 1, 46, 39
3, 2213, Note_on_c, 1, 49, 35
3, 2229, Note_on_c, 1, 49, 0
3, 2230, Note_on_c, 1, 46, 0
3, 2233, Note_on_c, 1, 54, 0
3, 2276, Note_on_c, 1, 49, 66
3, 2277, Note_on_c, 1, 46, 74
3, 2278, Note_on_c, 1, 54, 77
3, 2280, Control_c, 1, 64, 0
3, 2288, Note_on_c, 1, 46, 0
3, 2288, Note_on_c, 1, 49, 0
3, 2290, Note_on_c, 1, 54, 0
3, 2336, Note_on_c, 1, 33, 61
3, 2351, Note_on_c, 1, 33, 0
3, 2398, Note_on_c, 1, 35, 89
3, 2409, Control_c, 1, 64, 127
3, 2511, Note_on_c, 1, 35, 0
3, 2513, Control_c, 1, 64, 0
3, 2517, Note_on_c, 1, 54, 74
3, 2517, Note_on_c, 1, 51, 79
3, 2518, Note_on_c, 1, 47, 64
3, 2531, Note_on_c, 1, 51, 0
3, 2532, Note_on_c, 1, 47, 0
3, 2532, Note_on_c, 1, 54, 0
3, 2584, Note_on_c, 1, 35, 55
3, 2600, Note_on_c, 1, 35, 0
3, 2701, Note_on_c, 1, 35, 64
3, 2711, Control_c, 1, 64, 127
3, 2753, Control_c, 1, 64, 0
3, 2760, Note_on_c, 1, 35, 0
3, 2764, Note_on_c, 1, 54, 74
3, 2764, Note_on_c, 1, 51, 79
3, 2764, Note_on_c, 1, 47, 66
3, 2776, Note_on_c, 1, 51, 0
3, 2777, Note_on_c, 1, 47, 0
3, 2778, Note_on_c, 1, 54, 0
3, 2818, Note_on_c, 1, 33, 55
3, 2834, Note_on_c, 1, 33, 0
3, 2881, Note_on_c, 1, 35, 66
3, 2886, Control_c, 1, 64, 127
3, 2973, Note_on_c, 1, 35, 0
3, 2977, Control_c, 1, 64, 0
3, 3000, Note_on_c, 1, 51, 66
3, 3000, Note_on_c, 1, 54, 79
3, 3002, Note_on_c, 1, 47, 69
3, 3014, Note_on_c, 1, 47, 0
3, 3014, Note_on_c, 1, 51, 0
3, 3015, Note_on_c, 1, 54, 0
3, 3062, Note_on_c, 1, 37, 84
3, 3082, Note_on_c, 1, 37, 0
3, 3138, Control_c, 1, 64, 127
3, 3179, Note_on_c, 1, 49, 51
3, 3179, Note_on_c, 1, 56, 48
3, 3179, Note_on_c, 1, 53, 55
3, 3196, Note_on_c, 1, 56, 0
3, 3197, Note_on_c, 1, 53, 0
3, 3197, Note_on_c, 1, 49, 0
3, 3243, Note_on_c, 1, 53, 72
3, 3243, Note_on_c, 1, 56, 79
3, 3243, Note_on_c, 1, 49, 64
3, 3250, Control_c, 1, 64, 0
3, 3255, Note_on_c, 1, 56, 0
3, 3255, Note_on_c, 1, 53, 0
3, 3256, Note_on_c, 1, 49, 0
3, 3298, Note_on_c, 1, 28, 58
3, 3300, Note_on_c, 1, 40, 35
3, 3317, Note_on_c, 1, 28, 0
3, 3319, Note_on_c, 1, 40, 0
3, 3362, Note_on_c, 1, 42, 72
3, 3364, Note_on_c, 1, 30, 66
3, 3416, Control_c, 1, 64, 127
3, 3462, Control_c, 1, 64, 0
3, 3472, Note_on_c, 1, 30, 0
3, 3473, Note_on_c, 1, 42, 0
3, 3481, Note_on_c, 1, 54, 66
3, 3481, Note_on_c, 1, 49, 72
3, 3482, Note_on_c, 1, 46, 66
3, 3495, Note_on_c, 1, 49, 0
3, 3496, Note_on_c, 1, 46, 0
3, 3497, Note_on_c, 1, 54, 0
3, 3539, Note_on_c, 1, 42, 64
3, 3540, Note_on_c, 1, 30, 55
3, 3558, Note_on_c, 1, 42, 0
3, 3559, Note_on_c, 1, 30, 0
3, 3661, Note_on_c, 1, 42, 66
3, 3662, Note_on_c, 1, 30, 61
3, 3717, Note_on_c, 1, 42, 0
3, 3719, Note_on_c, 1, 46, 69
3, 3719, Note_on_c, 1, 54, 69
3, 3719, Note_on_c, 1, 49, 69
3, 3722, Note_on_c, 1, 30, 0
3, 3734, Note_on_c, 1, 49, 0
3, 3735, Note_on_c, 1, 46, 0
3, 3736, Note_on_c, 1, 54, 0
3, 3782, Note_on_c, 1, 28, 51
3, 3782, Note_on_c, 1, 40, 39
3, 3802, Note_on_c, 1, 28, 0
3, 3805, Note_on_c, 1, 40, 0
3, 3841, Note_on_c, 1, 30, 72
3, 3841, Note_on_c, 1, 42, 66
3, 3866, Control_c, 1, 64, 127
3, 3930, Control_c, 1, 64, 0
3, 3950, Note_on_c, 1, 30, 0
3, 3954, Note_on_c, 1, 42, 0
3, 3956, Note_on_c, 1, 54, 72
3, 3956, Note_on_c, 1, 49, 74
3, 3956, Note_on_c, 1, 46, 69
3, 3968, Note_on_c, 1, 46, 0
3, 3970, Note_on_c, 1, 49, 0
3, 3970, Note_on_c, 1, 54, 0
3, 4019, Note_on_c, 1, 30, 64
3, 4020, Note_on_c, 1, 42, 72
3, 4040, Note_on_c, 1, 42, 0
3, 4042, Note_on_c, 1, 30, 0
3, 4138, Note_on_c, 1, 30, 55
3, 4140, Note_on_c, 1, 42, 58
3, 4196, Note_on_c, 1, 42, 0
3, 4197, Note_on_c, 1, 30, 0
3, 4203, Note_on_c, 1, 49, 79
3, 4204, Note_on_c, 1, 54, 66
3, 4204, Note_on_c, 1, 46, 69
3, 4219, Note_on_c, 1, 49, 0
3, 4220, Note_on_c, 1, 46, 0
3, 4220, Note_on_c, 1, 54, 0
3, 4258, Note_on_c, 1, 33, 58
3, 4274, Note_on_c, 1, 33, 0
3, 4319, Note_on_c, 1, 37, 86
3, 4431, Note_on_c, 1, 37, 0
3, 4437, Note_on_c, 1, 53, 72
3, 4437, Note_on_c, 1, 56, 79
3, 4437, Note_on_c, 1, 49, 66
3, 4452, Note_on_c, 1, 49, 0
3, 4452, Note_on_c, 1, 56, 0
3, 4452, Note_on_c, 1, 53, 0
3, 4500, Note_on_c, 1, 37, 74
3, 4519, Note_on_c, 1, 37, 0
3, 4616, Note_on_c, 1, 37, 72
3, 4679, Note_on_c, 1, 37, 0
3, 4679, Note_on_c, 1, 56, 89
3, 4680, Note_on_c, 1, 53, 86
3, 4680, Note_on_c, 1, 49, 77
3, 4695, Note_on_c, 1, 49, 0
3, 4695, Note_on_c, 1, 53, 0
3, 4695, Note_on_c, 1, 56, 0
3, 4740, Note_on_c, 1, 33, 66
3, 4759, Note_on_c, 1, 33, 0
3, 4800, Note_on_c, 1, 35, 84
3, 4853, Control_c, 1, 64, 127
3, 4907, Control_c, 1, 64, 0
3, 4915, Note_on_c, 1, 35, 0
3, 4922, Note_on_c, 1, 54, 84
3, 4923, Note_on_c, 1, 51, 74
3, 4924, Note_on_c, 1, 47, 74
3, 4937, Note_on_c, 1, 47, 0
3, 4937, Note_on_c, 1, 51, 0
3, 4938, Note_on_c, 1, 54, 0
3, 4982, Note_on_c, 1, 35, 69
3, 5008, Note_on_c, 1, 35, 0
3, 5100, Note_on_c, 1, 35, 72
3, 5150, Note_on_c, 1, 35, 0
3, 5160, Note_on_c, 1, 54, 77
3, 5160, Note_on_c, 1, 51, 84
3, 5160, Note_on_c, 1, 47, 79
3, 5174, Note_on_c, 1, 47, 0
3, 5174, Note_on_c, 1, 51, 0
3, 5175, Note_on_c, 1, 54, 0
3, 5219, Note_on_c, 1, 28, 55
3, 5222, Note_on_c, 1, 40, 55
3, 5243, Note_on_c, 1, 28, 0
3, 5244, Note_on_c, 1, 40, 0
3, 5285, Note_on_c, 1, 30, 66
3, 5285, Note_on_c, 1, 42, 66
3, 5394, Note_on_c, 1, 42, 0
3, 5397, Note_on_c, 1, 30, 0
3, 5402, Note_on_c, 1, 49, 72
3, 5402, Note_on_c, 1, 46, 69
3, 5402, Note_on_c, 1, 54, 79
3, 5416, Note_on_c, 1, 49, 0
3, 5417, Note_on_c, 1, 46, 0
3, 5419, Note_on_c, 1, 54, 0
3, 5462, Note_on_c, 1, 30, 51
3, 5462, Note_on_c, 1, 42, 58
3, 5484, Note_on_c, 1, 42, 0
3, 5486, Note_on_c, 1, 30, 0
3, 5574, Note_on_c, 1, 42, 84
3, 5576, Note_on_c, 1, 30, 51
3, 5629, Note_on_c, 1, 30, 0
3, 5630, Note_on_c, 1, 42, 0
3, 5635, Note_on_c, 1, 49, 79
3, 5635, Note_on_c, 1, 46, 66
3, 5636, Note_on_c, 1, 54, 69
3, 5649, Note_on_c, 1, 46, 0
3, 5650, Note_on_c, 1, 49, 0
3, 5651, Note_on_c, 1, 54, 0
3, 5696, Note_on_c, 1, 28, 66
3, 5701, Note_on_c, 1, 40, 18
3, 5719, Note_on_c, 1, 28, 0
3, 5724, Note_on_c, 1, 40, 0
3, 5760, Note_on_c, 1, 42, 72
3, 5762, Note_on_c, 1, 30, 72
3, 5857, Note_on_c, 1, 30, 0
3, 5864, Note_on_c, 1, 42, 0
3, 5878, Note_on_c, 1, 49, 74
3, 5878, Note_on_c, 1, 46, 61
3, 5878, Note_on_c, 1, 54, 69
3, 5893, Note_on_c, 1, 54, 0
3, 5894, Note_on_c, 1, 46, 0
3, 5894, Note_on_c, 1, 49, 0
3, 5942, Note_on_c, 1, 30, 58
3, 5942, Note_on_c, 1, 42, 58
3, 5967, Note_on_c, 1, 30, 0
3, 5968, Note_on_c, 1, 42, 0
3, 6055, Note_on_c, 1, 42, 58
3, 6057, Note_on_c, 1, 30, 69
3, 6108, Note_on_c, 1, 42, 0
3, 6110, Note_on_c, 1, 30, 0
3, 6116, Note_on_c, 1, 54, 58
3, 6116, Note_on_c, 1, 46, 66
3, 6117, Note_on_c, 1, 49, 64
3, 6132, Note_on_c, 1, 49, 0
3, 6132, Note_on_c, 1, 46, 0
3, 6132, Note_on_c, 1, 54, 0
3, 6176, Note_on_c, 1, 28, 48
3, 6177, Note_on_c, 1, 40, 61
3, 6195, Note_on_c, 1, 28, 0
3, 6198, Note_on_c, 1, 40, 0
3, 6238, Note_on_c, 1, 30, 66
3, 6238, Note_on_c, 1, 42, 58
3, 6342, Note_on_c, 1, 42, 0
3, 6345, Note_on_c, 1, 30, 0
3, 6356, Note_on_c, 1, 49, 77
3, 6357, Note_on_c, 1, 54, 84
3, 6358, Note_on_c, 1, 46, 66
3, 6371, Note_on_c, 1, 46, 0
3, 6371, Note_on_c, 1, 49, 0
3, 6372, Note_on_c, 1, 54, 0
3, 6421, Note_on_c, 1, 42, 58
3, 6421, Note_on_c, 1, 30, 43
3, 6442, Note_on_c, 1, 30, 0
3, 6443, Note_on_c, 1, 42, 0
3, 6537, Note_on_c, 1, 42, 72
3, 6540, Note_on_c, 1, 30, 66
3, 6593, Note_on_c, 1, 42, 0
3, 6598, Note_on_c, 1, 30, 0
3, 6599, Note_on_c, 1, 49, 72
3, 6599, Note_on_c, 1, 54, 69
3, 6599, Note_on_c, 1, 46, 64
3, 6614, Note_on_c, 1, 46, 0
3, 6616, Note_on_c, 1, 54, 0
3, 6616, Note_on_c, 1, 49, 0
3, 6660, Note_on_c, 1, 33, 58
3, 6680, Note_on_c, 1, 33, 0
3, 6719, Note_on_c, 1, 35, 72
3, 6831, Note_on_c, 1, 35, 0
3, 6837, Note_on_c, 1, 51, 69
3, 6837, Note_on_c, 1, 47, 61
3, 6837, Note_on_c, 1, 54, 66
3, 6852, Note_on_c, 1, 47, 0
3, 6852, Note_on_c, 1, 51, 0
3, 6853, Note_on_c, 1, 54, 0
3, 6903, Note_on_c, 1, 37, 79
3, 6920, Note_on_c, 1, 37, 0
3, 6981, Control_c, 1, 64, 127
3, 7018, Note_on_c, 1, 56, 58
3, 7018, Note_on_c, 1, 49, 58
3, 7018, Note_on_c, 1, 53, 69
3, 7034, Note_on_c, 1, 53, 0
3, 7034, Note_on_c, 1, 56, 0
3, 7035, Note_on_c, 1, 49, 0
3, 7081, Note_on_c, 1, 53, 84
3, 7082, Note_on_c, 1, 49, 74
3, 7082, Note_on_c, 1, 56, 77
3, 7085, Control_c, 1, 64, 0
3, 7095, Note_on_c, 1, 56, 0
3, 7095, Note_on_c, 1, 49, 0
3, 7097, Note_on_c, 1, 53, 0
3, 7137, Note_on_c, 1, 28, 55
3, 7139, Note_on_c, 1, 40, 30
3, 7157, Note_on_c, 1, 28, 0
3, 7164, Note_on_c, 1, 40, 0
3, 7197, Note_on_c, 1, 30, 55
3, 7198, Note_on_c, 1, 42, 58
3, 7312, Note_on_c, 1, 30, 0
3, 7313, Note_on_c, 1, 42, 0
3, 7320, Note_on_c, 1, 49, 66
3, 7320, Note_on_c, 1, 46, 84
3, 7320, Note_on_c, 1, 54, 66
3, 7335, Note_on_c, 1, 54, 0
3, 7335, Note_on_c, 1, 49, 0
3, 7336, Note_on_c, 1, 46, 0
3, 7378, Note_on_c, 1, 30, 55
3, 7379, Note_on_c, 1, 42, 55
3, 7395, Note_on_c, 1, 42, 0
3, 7399, Note_on_c, 1, 30, 0
3, 7495, Note_on_c, 1, 30, 64
3, 7495, Note_on_c, 1, 42, 69
3, 7553, Note_on_c, 1, 42, 0
3, 7558, Note_on_c, 1, 30, 0
3, 7561, Note_on_c, 1, 54, 72
3, 7561, Note_on_c, 1, 49, 69
3, 7562, Note_on_c, 1, 46, 74
3, 7576, Note_on_c, 1, 46, 0
3, 7576, Note_on_c, 1, 54, 0
3, 7577, Note_on_c, 1, 49, 0
3, 7623, Note_on_c, 1, 40, 35
3, 7625, Note_on_c, 1, 28, 55
3, 7644, Note_on_c, 1, 28, 0
3, 7648, Note_on_c, 1, 40, 0
3, 7682, Note_on_c, 1, 42, 72
3, 7683, Note_on_c, 1, 30, 79
3, 7783, Note_on_c, 1, 30, 0
3, 7786, Note_on_c, 1, 42, 0
3, 7797, Note_on_c, 1, 46, 77
3, 7798, Note_on_c, 1, 54, 79
3, 7798, Note_on_c, 1, 49, 69
3, 7813, Note_on_c, 1, 49, 0
3, 7814, Note_on_c, 1, 54, 0
3, 7814, Note_on_c, 1, 46, 0
3, 7860, Note_on_c, 1, 42, 79
3, 7861, Note_on_c, 1, 30, 64
3, 7878, Note_on_c, 1, 42, 0
3, 7880, Note_on_c, 1, 30, 0
3, 7939, Control_c, 1, 64, 127
3, 7980, Note_on_c, 1, 46, 30
3, 7980, Note_on_c, 1, 54, 39
3, 7981, Note_on_c, 1, 49, 35
3, 7997, Note_on_c, 1, 49, 0
3, 7999, Note_on_c, 1, 54, 0
3, 7999, Note_on_c, 1, 46, 0
3, 8042, Note_on_c, 1, 49, 74
3, 8043, Note_on_c, 1, 54, 79
3, 8043, Note_on_c, 1, 46, 72
3, 8054, Control_c, 1, 64, 0
3, 8056, Note_on_c, 1, 46, 0
3, 8057, Note_on_c, 1, 54, 0
3, 8057, Note_on_c, 1, 49, 0
3, 8100, Note_on_c, 1, 33, 61
3, 8116, Note_on_c, 1, 33, 0
3, 8160, Note_on_c, 1, 35, 74
3, 8271, Note_on_c, 1, 35, 0
3, 8278, Note_on_c, 1, 51, 74
3, 8278, Note_on_c, 1, 47, 74
3, 8279, Note_on_c, 1, 54, 74
3, 8294, Note_on_c, 1, 51, 0
3, 8295, Note_on_c, 1, 54, 0
3, 8295, Note_on_c, 1, 47, 0
3, 8341, Note_on_c, 1, 35, 84
3, 8359, Note_on_c, 1, 35, 0
3, 8455, Note_on_c, 1, 35, 61
3, 8513, Note_on_c, 1, 35, 0
3, 8522, Note_on_c, 1, 51, 89
3, 8522, Note_on_c, 1, 54, 79
3, 8523, Note_on_c, 1, 47, 79
3, 8538, Note_on_c, 1, 47, 0
3, 8538, Note_on_c, 1, 51, 0
3, 8539, Note_on_c, 1, 54, 0
3, 8582, Note_on_c, 1, 33, 64
3, 8599, Note_on_c, 1, 33, 0
3, 8641, Note_on_c, 1, 35, 74
3, 8754, Note_on_c, 1, 35, 0
3, 8758, Note_on_c, 1, 51, 69
3, 8759, Note_on_c, 1, 47, 64
3, 8759, Note_on_c, 1, 54, 72
3, 8773, Note_on_c, 1, 47, 0
3, 8774, Note_on_c, 1, 54, 0
3, 8775, Note_on_c, 1, 51, 0
3, 8817, Note_on_c, 1, 37, 74
3, 8836, Note_on_c, 1, 37, 0
3, 8897, Control_c, 1, 64, 127
3, 8939, Note_on_c, 1, 56, 55
3, 8939, Note_on_c, 1, 49, 51
3, 8939, Note_on_c, 1, 53, 64
3, 8955, Note_on_c, 1, 53, 0
3, 8955, Note_on_c, 1, 56, 0
3, 8956, Note_on_c, 1, 49, 0
3, 9002, Note_on_c, 1, 53, 79
3, 9002, Note_on_c, 1, 49, 84
3, 9002, Note_on_c, 1, 56, 89
3, 9015, Note_on_c, 1, 56, 0
3, 9015, Note_on_c, 1, 53, 0
3, 9017, Note_on_c, 1, 49, 0
3, 9026, Control_c, 1, 64, 0
3, 9059, Note_on_c, 1, 28, 72
3, 9061, Note_on_c, 1, 40, 48
3, 9083, Note_on_c, 1, 28, 0
3, 9090, Note_on_c, 1, 40, 0
3, 9123, Note_on_c, 1, 42, 79
3, 9123, Note_on_c, 1, 30, 66
3, 9230, Note_on_c, 1, 30, 0
3, 9231, Note_on_c, 1, 42, 0
3, 9239, Note_on_c, 1, 54, 79
3, 9239, Note_on_c, 1, 49, 77
3, 9240, Note_on_c, 1, 46, 64
3, 9253, Note_on_c, 1, 46, 0
3, 9253, Note_on_c, 1, 49, 0
3, 9253, Note_on_c, 1, 54, 0
3, 9299, Note_on_c, 1, 30, 64
3, 9300, Note_on_c, 1, 42, 69
3, 9317, Note_on_c, 1, 42, 0
3, 9321, Note_on_c, 1, 30, 0
3, 9419, Note_on_c, 1, 30, 61
3, 9420, Note_on_c, 1, 42, 84
3, 9476, Note_on_c, 1, 42, 0
3, 9479, Note_on_c, 1, 30, 0
3, 9479, Note_on_c, 1, 46, 74
3, 9479, Note_on_c, 1, 54, 61
3, 9479, Note_on_c, 1, 49, 66
3, 9493, Note_on_c, 1, 54, 0
3, 9494, Note_on_c, 1, 49, 0
3, 9495, Note_on_c, 1, 46, 0
3, 9541, Note_on_c, 1, 40, 48
3, 9542, Note_on_c, 1, 28, 48
3, 9565, Note_on_c, 1, 28, 0
3, 9565, Note_on_c, 1, 40, 0
3, 9600, Note_on_c, 1, 42, 66
3, 9601, Note_on_c, 1, 30, 69
3, 9714, Note_on_c, 1, 42, 0
3, 9717, Note_on_c, 1, 30, 0
3, 9720, Note_on_c, 1, 49, 74
3, 9722, Note_on_c, 1, 54, 74
3, 9722, Note_on_c, 1, 46, 66
3, 9737, Note_on_c, 1, 46, 0
3, 9737, Note_on_c, 1, 54, 0
3, 9738, Note_on_c, 1, 49, 0
3, 9783, Note_on_c, 1, 42, 51
3, 9783, Note_on_c, 1, 30, 58
3, 9808, Note_on_c, 1, 42, 0
3, 9810, Note_on_c, 1, 30, 0
3, 9897, Note_on_c, 1, 30, 69
3, 9898, Note_on_c, 1, 42, 64
3, 9956, Note_on_c, 1, 42, 0
3, 9957, Note_on_c, 1, 54, 79
3, 9958, Note_on_c, 1, 30, 0
3, 9958, Note_on_c, 1, 46, 74
3, 9959, Note_on_c, 1, 49, 66
3, 9971, Note_on_c, 1, 46, 0
3, 9972, Note_on_c, 1, 54, 0
3, 9973, Note_on_c, 1, 49, 0
3, 10017, Note_on_c, 1, 33, 48
3, 10038, Note_on_c, 1, 33, 0
3, 10080, Note_on_c, 1, 37, 89
3, 10189, Note_on_c, 1, 37, 0
3, 10197, Note_on_c, 1, 56, 84
3, 10197, Note_on_c, 1, 53, 84
3, 10198, Note_on_c, 1, 49, 69
3, 10211, Note_on_c, 1, 53, 0
3, 10212, Note_on_c, 1, 49, 0
3, 10212, Note_on_c, 1, 56, 0
3, 10261, Note_on_c, 1, 37, 72
3, 10282, Note_on_c, 1, 37, 0
3, 10375, Note_on_c, 1, 37, 48
3, 10440, Note_on_c, 1, 37, 0
3, 10440, Note_on_c, 1, 56, 72
3, 10441, Note_on_c, 1, 53, 74
3, 10441, Note_on_c, 1, 49, 66
3, 10455, Note_on_c, 1, 53, 0
3, 10455, Note_on_c, 1, 56, 0
3, 10458, Note_on_c, 1, 49, 0
3, 10500, Note_on_c, 1, 33, 58
3, 10519, Note_on_c, 1, 33, 0
3, 10560, Note_on_c, 1, 35, 64
3, 10676, Note_on_c, 1, 35, 0
3, 10681, Note_on_c, 1, 54, 66
3, 10681, Note_on_c, 1, 51, 64
3, 10681, Note_on_c, 1, 47, 58
3, 10695, Note_on_c, 1, 51, 0
3, 10695, Note_on_c, 1, 54, 0
3, 10696, Note_on_c, 1, 47, 0
3, 10744, Note_on_c, 1, 35, 84
3, 10772, Note_on_c, 1, 35, 0
3, 10858, Note_on_c, 1, 35, 74
3, 10917, Note_on_c, 1, 35, 0
3, 10920, Note_on_c, 1, 47, 69
3, 10921, Note_on_c, 1, 54, 74
3, 10921, Note_on_c, 1, 51, 72
3, 10935, Note_on_c, 1, 51, 0
3, 10936, Note_on_c, 1, 54, 0
3, 10937, Note_on_c, 1, 47, 0
3, 10982, Note_on_c, 1, 28, 39
3, 10982, Note_on_c, 1, 40, 39
3, 11001, Note_on_c, 1, 28, 0
3, 11005, Note_on_c, 1, 40, 0
3, 11043, Note_on_c, 1, 30, 64
3, 11046, Note_on_c, 1, 42, 58
3, 11143, Note_on_c, 1, 42, 0
3, 11147, Note_on_c, 1, 30, 0
3, 11161, Note_on_c, 1, 49, 58
3, 11161, Note_on_c, 1, 54, 77
3, 11161, Note_on_c, 1, 46, 64
3, 11176, Note_on_c, 1, 46, 0
3, 11176, Note_on_c, 1, 54, 0
3, 11176, Note_on_c, 1, 49, 0
3, 11218, Note_on_c, 1, 30, 64
3, 11218, Note_on_c, 1, 42, 58
3, 11245, Note_on_c, 1, 42, 0
3, 11246, Note_on_c, 1, 30, 0
3, 11333, Note_on_c, 1, 42, 72
3, 11334, Note_on_c, 1, 30, 51
3, 11395, Note_on_c, 1, 42, 0
3, 11398, Note_on_c, 1, 30, 0
3, 11400, Note_on_c, 1, 54, 74
3, 11400, Note_on_c, 1, 49, 74
3, 11400, Note_on_c, 1, 46, 66
3, 11414, Note_on_c, 1, 46, 0
3, 11415, Note_on_c, 1, 49, 0
3, 11415, Note_on_c, 1, 54, 0
3, 11460, Note_on_c, 1, 28, 58
3, 11460, Note_on_c, 1, 40, 84
3, 11481, Note_on_c, 1, 28, 0
3, 11485, Note_on_c, 1, 40, 0
3, 11521, Note_on_c, 1, 30, 58
3, 11522, Note_on_c, 1, 42, 64
3, 11637, Note_on_c, 1, 42, 0
3, 11644, Note_on_c, 1, 30, 0
3, 11646, Note_on_c, 1, 54, 77
3, 11647, Note_on_c, 1, 49, 74
3, 11647, Note_on_c, 1, 46, 69
3, 11662, Note_on_c, 1, 46, 0
3, 11662, Note_on_c, 1, 49, 0
3, 11663, Note_on_c, 1, 54, 0
3, 11702, Note_on_c, 1, 30, 58
3, 11702, Note_on_c, 1, 42, 58
3, 11724, Note_on_c, 1, 42, 0
3, 11730, Note_on_c, 1, 30, 0
3, 11815, Note_on_c, 1, 42, 66
3, 11817, Note_on_c, 1, 30, 55
3, 11873, Note_on_c, 1, 42, 0
3, 11877, Note_on_c, 1, 49, 72
3, 11877, Note_on_c, 1, 54, 69
3, 11877, Note_on_c, 1, 46, 64
3, 11880, Note_on_c, 1, 30, 0
3, 11890, Note_on_c, 1, 46, 0
3, 11892, Note_on_c, 1, 54, 0
3, 11892, Note_on_c, 1, 49, 0
3, 11938, Note_on_c, 1, 28, 58
3, 11939, Note_on_c, 1, 40, 26
3, 11960, Note_on_c, 1, 28, 0
3, 11962, Note_on_c, 1, 40, 0
3, 12000, Note_on_c, 1, 30, 58
3, 12000, Note_on_c, 1, 42, 48
3, 12112, Note_on_c, 1, 30, 0
3, 12119, Note_on_c, 1, 42, 0
3, 12119, Note_on_c, 1, 54, 66
3, 12119, Note_on_c, 1, 49, 79
3, 12120, Note_on_c, 1, 46, 72
3, 12133, Note_on_c, 1, 49, 0
3, 12134, Note_on_c, 1, 46, 0
3, 12134, Note_on_c, 1, 54, 0
3, 12179, Note_on_c, 1, 30, 51
3, 12180, Note_on_c, 1, 42, 51
3, 12201, Note_on_c, 1, 42, 0
3, 12203, Note_on_c, 1, 30, 0
3, 12300, Note_on_c, 1, 30, 66
3, 12300, Note_on_c, 1, 42, 66
3, 12359, Note_on_c, 1, 42, 0
3, 12361, Note_on_c, 1, 30, 0
3, 12364, Note_on_c, 1, 46, 74
3, 12365, Note_on_c, 1, 49, 72
3, 12365, Note_on_c, 1, 54, 66
3, 12380, Note_on_c, 1, 46, 0
3, 12381, Note_on_c, 1, 54, 0
3, 12381, Note_on_c, 1, 49, 0
3, 12414, Note_on_c, 1, 33, 61
3, 12437, Note_on_c, 1, 33, 0
3, 12476, Note_on_c, 1, 35, 74
3, 12596, Note_on_c, 1, 35, 0
3, 12600, Note_on_c, 1, 51, 79
3, 12601, Note_on_c, 1, 47, 84
3, 12601, Note_on_c, 1, 54, 74
3, 12614, Note_on_c, 1, 51, 0
3, 12616, Note_on_c, 1, 54, 0
3, 12617, Note_on_c, 1, 47, 0
3, 12662, Note_on_c, 1, 37, 96
3, 12686, Note_on_c, 1, 37, 0
3, 12741, Control_c, 1, 64, 127
3, 12778, Note_on_c, 1, 56, 61
3, 12778, Note_on_c, 1, 53, 64
3, 12778, Note_on_c, 1, 49, 51
3, 12792, Note_on_c, 1, 56, 0
3, 12793, Note_on_c, 1, 53, 0
3, 12794, Note_on_c, 1, 49, 0
3, 12840, Note_on_c, 1, 53, 69
3, 12840, Note_on_c, 1, 56, 64
3, 12840, Note_on_c, 1, 49, 69
3, 12841, Control_c, 1, 64, 0
3, 12852, Note_on_c, 1, 49, 0
3, 12852, Note_on_c, 1, 56, 0
3, 12853, Note_on_c, 1, 53, 0
3, 12899, Note_on_c, 1, 28, 64
3, 12901, Note_on_c, 1, 40, 39
3, 12922, Note_on_c, 1, 28, 0
3, 12923, Note_on_c, 1, 40, 0
3, 12960, Note_on_c, 1, 30, 74
3, 12961, Note_on_c, 1, 42, 64
3, 13073, Note_on_c, 1, 42, 0
3, 13074, Note_on_c, 1, 30, 0
3, 13074, Note_on_c, 1, 49, 64
3, 13074, Note_on_c, 1, 46, 69
3, 13075, Note_on_c, 1, 54, 72
3, 13089, Note_on_c, 1, 54, 0
3, 13090, Note_on_c, 1, 46, 0
3, 13090, Note_on_c, 1, 49, 0
3, 13139, Note_on_c, 1, 30, 58
3, 13139, Note_on_c, 1, 42, 58
3, 13161, Note_on_c, 1, 42, 0
3, 13163, Note_on_c, 1, 30, 0
3, 13255, Note_on_c, 1, 42, 55
3, 13256, Note_on_c, 1, 30, 43
3, 13319, Note_on_c, 1, 42, 0
3, 13319, Note_on_c, 1, 54, 66
3, 13319, Note_on_c, 1, 49, 72
3, 13319, Note_on_c, 1, 46, 79
3, 13322, Note_on_c, 1, 30, 0
3, 13336, Note_on_c, 1, 54, 0
3, 13336, Note_on_c, 1, 46, 0
3, 13337, Note_on_c, 1, 49, 0
3, 13381, Note_on_c, 1, 40, 66
3, 13381, Note_on_c, 1, 28, 66
3, 13398, Note_on_c, 1, 28, 0
3, 13401, Note_on_c, 1, 40, 0
3, 13447, Note_on_c, 1, 30, 72
3, 13447, Note_on_c, 1, 42, 79
3, 13561, Note_on_c, 1, 42, 0
3, 13561, Note_on_c, 1, 30, 0
3, 13561, Note_on_c, 1, 49, 64
3, 13562, Note_on_c, 1, 54, 84
3, 13562, Note_on_c, 1, 46, 66
3, 13577, Note_on_c, 1, 46, 0
3, 13577, Note_on_c, 1, 49, 0
3, 13579, Note_on_c, 1, 54, 0
3, 13622, Note_on_c, 1, 42, 58
3, 13624, Note_on_c, 1, 30, 58
3, 13644, Note_on_c, 1, 42, 0
3, 13649, Note_on_c, 1, 30, 0
3, 13737, Note_on_c, 1, 30, 55
3, 13737, Note_on_c, 1, 42, 58
3, 13799, Note_on_c, 1, 42, 0
3, 13799, Note_on_c, 1, 30, 0
3, 13801, Note_on_c, 1, 49, 72
3, 13802, Note_on_c, 1, 54, 64
3, 13802, Note_on_c, 1, 46, 66
3, 13815, Note_on_c, 1, 46, 0
3, 13815, Note_on_c, 1, 54, 0
3, 13816, Note_on_c, 1, 49, 0
3, 13859, Note_on_c, 1, 33, 77
3, 13880, Note_on_c, 1, 33, 0
3, 13921, Note_on_c, 1, 35, 84
3, 14039, Note_on_c, 1, 47, 64
3, 14039, Note_on_c, 1, 51, 84
3, 14039, Note_on_c, 1, 54, 89
3, 14041, Note_on_c, 1, 35, 0
3, 14054, Note_on_c, 1, 51, 0
3, 14055, Note_on_c, 1, 47, 0
3, 14055, Note_on_c, 1, 54, 0
3, 14101, Note_on_c, 1, 35, 74
3, 14122, Note_on_c, 1, 35, 0
3, 14212, Note_on_c, 1, 35, 61
3, 14278, Note_on_c, 1, 35, 0
3, 14280, Note_on_c, 1, 54, 74
3, 14281, Note_on_c, 1, 51, 74
3, 14281, Note_on_c, 1, 47, 72
3, 14296, Note_on_c, 1, 51, 0
3, 14296, Note_on_c, 1, 54, 0
3, 14297, Note_on_c, 1, 47, 0
3, 14339, Note_on_c, 1, 33, 77
3, 14356, Note_on_c, 1, 33, 0
3, 14364, Note_on_c, 1, 34, 61
3, 14386, Note_on_c, 1, 34, 0
3, 14397, Note_on_c, 1, 35, 72
3, 14516, Note_on_c, 1, 35, 0
3, 14522, Note_on_c, 1, 51, 66
3, 14522, Note_on_c, 1, 54, 77
3, 14522, Note_on_c, 1, 47, 64
3, 14537, Note_on_c, 1, 47, 0
3, 14538, Note_on_c, 1, 54, 0
3, 14538, Note_on_c, 1, 51, 0
3, 14581, Note_on_c, 1, 37, 79
3, 14612, Note_on_c, 1, 37, 0
3, 14660, Control_c, 1, 64, 127
3, 14699, Note_on_c, 1, 49, 39
3, 14699, Note_on_c, 1, 56, 55
3, 14699, Note_on_c, 1, 53, 55
3, 14714, Note_on_c, 1, 53, 0
3, 14714, Note_on_c, 1, 56, 0
3, 14716, Note_on_c, 1, 49, 0
3, 14760, Note_on_c, 1, 56, 84
3, 14760, Note_on_c, 1, 53, 66
3, 14760, Note_on_c, 1, 49, 64
3, 14774, Note_on_c, 1, 53, 0
3, 14774, Note_on_c, 1, 56, 0
3, 14775, Note_on_c, 1, 49, 0
3, 14780, Control_c, 1, 64, 0
3, 14819, Note_on_c, 1, 28, 58
3, 14821, Note_on_c, 1, 40, 39
3, 14844, Note_on_c, 1, 40, 0
3, 14844, Note_on_c, 1, 28, 0
3, 14882, Note_on_c, 1, 30, 66
3, 14883, Note_on_c, 1, 42, 77
3, 14993, Note_on_c, 1, 42, 0
3, 14993, Note_on_c, 1, 30, 0
3, 14999, Note_on_c, 1, 46, 74
3, 14999, Note_on_c, 1, 54, 74
3, 14999, Note_on_c, 1, 49, 79
3, 15013, Note_on_c, 1, 46, 0
3, 15014, Note_on_c, 1, 49, 0
3, 15015, Note_on_c, 1, 54, 0
3, 15059, Note_on_c, 1, 42, 66
3, 15059, Note_on_c, 1, 30, 61
3, 15082, Note_on_c, 1, 42, 0
3, 15083, Note_on_c, 1, 30, 0
3, 15175, Note_on_c, 1, 42, 72
3, 15176, Note_on_c, 1, 30, 66
3, 15238, Note_on_c, 1, 49, 64
3, 15238, Note_on_c, 1, 46, 64
3, 15238, Note_on_c, 1, 54, 72
3, 15240, Note_on_c, 1, 42, 0
3, 15241, Note_on_c, 1, 30, 0
3, 15253, Note_on_c, 1, 54, 0
3, 15255, Note_on_c, 1, 49, 0
3, 15255, Note_on_c, 1, 46, 0
3, 15298, Note_on_c, 1, 28, 58
3, 15301, Note_on_c, 1, 40, 39
3, 15321, Note_on_c, 1, 28, 0
3, 15323, Note_on_c, 1, 40, 0
3, 15363, Note_on_c, 1, 30, 55
3, 15365, Note_on_c, 1, 42, 64
3, 15477, Note_on_c, 1, 42, 0
3, 15478, Note_on_c, 1, 49, 58
3, 15479, Note_on_c, 1, 30, 0
3, 15479, Note_on_c, 1, 46, 69
3, 15480, Note_on_c, 1, 54, 58
3, 15493, Note_on_c, 1, 46, 0
3, 15494, Note_on_c, 1, 54, 0
3, 15495, Note_on_c, 1, 49, 0
3, 15541, Note_on_c, 1, 42, 51
3, 15542, Note_on_c, 1, 30, 51
3, 15567, Note_on_c, 1, 42, 0
3, 15569, Note_on_c, 1, 30, 0
3, 15655, Note_on_c, 1, 42, 55
3, 15655, Note_on_c, 1, 30, 58
3, 15720, Note_on_c, 1, 46, 79
3, 15720, Note_on_c, 1, 49, 74
3, 15721, Note_on_c, 1, 42, 0
3, 15722, Note_on_c, 1, 54, 72
3, 15726, Note_on_c, 1, 30, 0
3, 15736, Note_on_c, 1, 49, 0
3, 15736, Note_on_c, 1, 46, 0
3, 15736, Note_on_c, 1, 54, 0
3, 15778, Note_on_c, 1, 33, 61
3, 15797, Note_on_c, 1, 33, 0
3, 15840, Note_on_c, 1, 37, 72
3, 15955, Note_on_c, 1, 37, 0
3, 15960, Note_on_c, 1, 53, 84
3, 15960, Note_on_c, 1, 56, 84
3, 15960, Note_on_c, 1, 49, 64
3, 15975, Note_on_c, 1, 49, 0
3, 15975, Note_on_c, 1, 53, 0
3, 15976, Note_on_c, 1, 56, 0
3, 16023, Note_on_c, 1, 37, 66
3, 16044, Note_on_c, 1, 37, 0
3, 16132, Note_on_c, 1, 37, 74
3, 16195, Note_on_c, 1, 37, 0
3, 16197, Note_on_c, 1, 49, 72
3, 16197, Note_on_c, 1, 53, 74
3, 16198, Note_on_c, 1, 56, 79
3, 16213, Note_on_c, 1, 56, 0
3, 16213, Note_on_c, 1, 53, 0
3, 16213, Note_on_c, 1, 49, 0
3, 16256, Note_on_c, 1, 33, 48
3, 16273, Note_on_c, 1, 33, 0
3, 16318, Note_on_c, 1, 35, 66
3, 16433, Note_on_c, 1, 35, 0
3, 16439, Note_on_c, 1, 54, 69
3, 16439, Note_on_c, 1, 51, 74
3, 16439, Note_on_c, 1, 47, 55
3, 16453, Note_on_c, 1, 51, 0
3, 16454, Note_on_c, 1, 47, 0
3, 16454, Note_on_c, 1, 54, 0
3, 16500, Note_on_c, 1, 35, 84
3, 16525, Note_on_c, 1, 35, 0
3, 16581, Control_c, 1, 64, 127
3, 16621, Note_on_c, 1, 54, 58
3, 16621, Note_on_c, 1, 51, 64
3, 16622, Note_on_c, 1, 47, 39
3, 16639, Note_on_c, 1, 51, 0
3, 16639, Note_on_c, 1, 54, 0
3, 16640, Note_on_c, 1, 47, 0
3, 16684, Note_on_c, 1, 51, 77
3, 16684, Note_on_c, 1, 47, 84
3, 16685, Control_c, 1, 64, 0
3, 16685, Note_on_c, 1, 54, 79
3, 16697, Note_on_c, 1, 54, 0
3, 16697, Note_on_c, 1, 47, 0
3, 16698, Note_on_c, 1, 51, 0
3, 16740, Note_on_c, 1, 28, 58
3, 16741, Note_on_c, 1, 40, 48
3, 16762, Note_on_c, 1, 28, 0
3, 16765, Note_on_c, 1, 40, 0
3, 16802, Note_on_c, 1, 42, 79
3, 16804, Note_on_c, 1, 30, 66
3, 16913, Note_on_c, 1, 30, 0
3, 16914, Note_on_c, 1, 42, 0
3, 16916, Note_on_c, 1, 46, 74
3, 16917, Note_on_c, 1, 49, 79
3, 16918, Note_on_c, 1, 54, 72
3, 16929, Note_on_c, 1, 49, 0
3, 16930, Note_on_c, 1, 54, 0
3, 16930, Note_on_c, 1, 46, 0
3, 16979, Note_on_c, 1, 30, 69
3, 16980, Note_on_c, 1, 42, 64
3, 17000, Note_on_c, 1, 42, 0
3, 17002, Note_on_c, 1, 30, 0
3, 17096, Note_on_c, 1, 30, 55
3, 17097, Note_on_c, 1, 42, 61
3, 17159, Note_on_c, 1, 49, 79
3, 17160, Note_on_c, 1, 42, 0
3, 17160, Note_on_c, 1, 54, 79
3, 17160, Note_on_c, 1, 46, 84
3, 17166, Note_on_c, 1, 30, 0
3, 17174, Note_on_c, 1, 46, 0
3, 17174, Note_on_c, 1, 54, 0
3, 17175, Note_on_c, 1, 49, 0
3, 17222, Note_on_c, 1, 28, 51
3, 17222, Note_on_c, 1, 40, 30
3, 17240, Note_on_c, 1, 28, 0
3, 17241, Note_on_c, 1, 40, 0
3, 17278, Note_on_c, 1, 30, 58
3, 17278, Note_on_c, 1, 42, 64
3, 17397, Note_on_c, 1, 42, 0
3, 17399, Note_on_c, 1, 49, 89
3, 17399, Note_on_c, 1, 46, 74
3, 17399, Note_on_c, 1, 54, 79
3, 17401, Note_on_c, 1, 30, 0
3, 17413, Note_on_c, 1, 46, 0
3, 17414, Note_on_c, 1, 54, 0
3, 17415, Note_on_c, 1, 49, 0
3, 17456, Note_on_c, 1, 30, 58
3, 17457, Note_on_c, 1, 42, 51
3, 17481, Note_on_c, 1, 42, 0
3, 17486, Note_on_c, 1, 30, 0
3, 17578, Note_on_c, 1, 42, 58
3, 17581, Note_on_c, 1, 30, 55
3, 17625, Note_on_c, 1, 42, 0
3, 17629, Note_on_c, 1, 30, 0
3, 17637, Note_on_c, 1, 49, 72
3, 17637, Note_on_c, 1, 46, 74
3, 17637, Note_on_c, 1, 54, 69
3, 17651, Note_on_c, 1, 54, 0
3, 17652, Note_on_c, 1, 46, 0
3, 17653, Note_on_c, 1, 49, 0
3, 17693, Note_on_c, 1, 28, 39
3, 17695, Note_on_c, 1, 40, 39
3, 17718, Note_on_c, 1, 40, 0
3, 17721, Note_on_c, 1, 28, 0
3, 17759, Note_on_c, 1, 30, 84
3, 17765, Note_on_c, 1, 42, 72
3, 17765, Note_on_c, 1, 30, 69
3, 17863, Note_on_c, 1, 30, 0
3, 17865, Note_on_c, 1, 42, 0
3, 17878, Note_on_c, 1, 30, 0
3, 17878, Note_on_c, 1, 46, 72
3, 17878, Note_on_c, 1, 54, 74
3, 17880, Note_on_c, 1, 49, 77
3, 17892, Note_on_c, 1, 54, 0
3, 17892, Note_on_c, 1, 46, 0
3, 17893, Note_on_c, 1, 49, 0
3, 17939, Note_on_c, 1, 30, 55
3, 17940, Note_on_c, 1, 42, 77
3, 17960, Note_on_c, 1, 42, 0
3, 17964, Note_on_c, 1, 30, 0
3, 18054, Note_on_c, 1, 30, 43
3, 18054, Note_on_c, 1, 42, 64
3, 18114, Note_on_c, 1, 42, 0
3, 18117, Note_on_c, 1, 30, 0
3, 18119, Note_on_c, 1, 54, 89
3, 18119, Note_on_c, 1, 49, 79
3, 18119, Note_on_c, 1, 46, 69
3, 18132, Note_on_c, 1, 46, 0
3, 18132, Note_on_c, 1, 49, 0
3, 18135, Note_on_c, 1, 54, 0
3, 18176, Note_on_c, 1, 33, 51
3, 18195, Note_on_c, 1, 33, 0
3, 18235, Note_on_c, 1, 35, 79
3, 18359, Note_on_c, 1, 35, 0
3, 18362, Note_on_c, 1, 54, 84
3, 18363, Note_on_c, 1, 47, 72
3, 18363, Note_on_c, 1, 51, 66
3, 18375, Note_on_c, 1, 51, 0
3, 18376, Note_on_c, 1, 47, 0
3, 18377, Note_on_c, 1, 54, 0
3, 18423, Note_on_c, 1, 37, 79
3, 18448, Note_on_c, 1, 37, 0
3, 18507, Control_c, 1, 64, 127
3, 18538, Note_on_c, 1, 49, 43
3, 18539, Note_on_c, 1, 56, 55
3, 18539, Note_on_c, 1, 53, 48
3, 18554, Note_on_c, 1, 56, 0
3, 18555, Note_on_c, 1, 53, 0
3, 18557, Note_on_c, 1, 49, 0
3, 18602, Note_on_c, 1, 49, 64
3, 18602, Note_on_c, 1, 56, 74
3, 18602, Note_on_c, 1, 53, 79
3, 18608, Control_c, 1, 64, 0
3, 18614, Note_on_c, 1, 56, 0
3, 18615, Note_on_c, 1, 53, 0
3, 18615, Note_on_c, 1, 49, 0
3, 18658, Note_on_c, 1, 28, 66
3, 18658, Note_on_c, 1, 40, 55
3, 18679, Note_on_c, 1, 28, 0
3, 18680, Note_on_c, 1, 40, 0
3, 18724, Note_on_c, 1, 42, 72
3, 18724, Note_on_c, 1, 30, 66
3, 18828, Note_on_c, 1, 30, 0
3, 18828, Note_on_c, 1, 42, 0
3, 18839, Note_on_c, 1, 49, 66
3, 18839, Note_on_c, 1, 54, 72
3, 18839, Note_on_c, 1, 46, 64
3, 18852, Note_on_c, 1, 54, 0
3, 18853, Note_on_c, 1, 49, 0
3, 18854, Note_on_c, 1, 46, 0
3, 18899, Note_on_c, 1, 30, 55
3, 18899, Note_on_c, 1, 42, 58
3, 18922, Note_on_c, 1, 42, 0
3, 18924, Note_on_c, 1, 30, 0
3, 19016, Note_on_c, 1, 42, 39
3, 19018, Note_on_c, 1, 30, 43
3, 19074, Note_on_c, 1, 42, 0
3, 19082, Note_on_c, 1, 30, 0
3, 19083, Note_on_c, 1, 46, 66
3, 19084, Note_on_c, 1, 49, 72
3, 19085, Note_on_c, 1, 54, 64
3, 19098, Note_on_c, 1, 49, 0
3, 19098, Note_on_c, 1, 46, 0
3, 19099, Note_on_c, 1, 54, 0
3, 19140, Note_on_c, 1, 28, 55
3, 19141, Note_on_c, 1, 40, 77
3, 19161, Note_on_c, 1, 40, 0
3, 19161, Note_on_c, 1, 28, 0
3, 19205, Note_on_c, 1, 42, 66
3, 19205, Note_on_c, 1, 30, 72
3, 19317, Note_on_c, 1, 42, 0
3, 19321, Note_on_c, 1, 54, 72
3, 19321, Note_on_c, 1, 49, 74
3, 19321, Note_on_c, 1, 46, 72
3, 19322, Note_on_c, 1, 30, 0
3, 19337, Note_on_c, 1, 54, 0
3, 19337, Note_on_c, 1, 49, 0
3, 19337, Note_on_c, 1, 46, 0
3, 19384, Note_on_c, 1, 42, 72
3, 19387, Note_on_c, 1, 30, 55
3, 19403, Note_on_c, 1, 42, 0
3, 19405, Note_on_c, 1, 30, 0
3, 19499, Note_on_c, 1, 42, 69
3, 19500, Note_on_c, 1, 30, 69
3, 19557, Note_on_c, 1, 42, 0
3, 19558, Note_on_c, 1, 30, 0
3, 19564, Note_on_c, 1, 49, 66
3, 19564, Note_on_c, 1, 54, 74
3, 19565, Note_on_c, 1, 46, 77
3, 19580, Note_on_c, 1, 46, 0
3, 19582, Note_on_c, 1, 54, 0
3, 19583, Note_on_c, 1, 49, 0
3, 19617, Note_on_c, 1, 33, 96
3, 19635, Note_on_c, 1, 33, 0
3, 19677, Note_on_c, 1, 35, 79
3, 19788, Note_on_c, 1, 35, 0
3, 19798, Note_on_c, 1, 47, 79
3, 19798, Note_on_c, 1, 54, 96
3, 19798, Note_on_c, 1, 51, 89
3, 19813, Note_on_c, 1, 51, 0
3, 19813, Note_on_c, 1, 54, 0
3, 19813, Note_on_c, 1, 47, 0
3, 19858, Note_on_c, 1, 35, 79
3, 19880, Note_on_c, 1, 35, 0
3, 19972, Note_on_c, 1, 35, 69
3, 20038, Note_on_c, 1, 35, 0
3, 20039, Note_on_c, 1, 54, 96
3, 20040, Note_on_c, 1, 51, 79
3, 20040, Note_on_c, 1, 47, 74
3, 20054, Note_on_c, 1, 47, 0
3, 20054, Note_on_c, 1, 51, 0
3, 20055, Note_on_c, 1, 54, 0
3, 20096, Note_on_c, 1, 33, 77
3, 20112, Note_on_c, 1, 33, 0
3, 20156, Note_on_c, 1, 35, 84
3, 20270, Note_on_c, 1, 35, 0
3, 20280, Note_on_c, 1, 54, 79
3, 20280, Note_on_c, 1, 51, 66
3, 20281, Note_on_c, 1, 47, 74
3, 20295, Note_on_c, 1, 47, 0
3, 20295, Note_on_c, 1, 51, 0
3, 20295, Note_on_c, 1, 54, 0
3, 20335, Note_on_c, 1, 37, 81
3, 20355, Note_on_c, 1, 37, 0
3, 20426, Control_c, 1, 64, 127
3, 20454, Note_on_c, 1, 56, 51
3, 20456, Note_on_c, 1, 49, 55
3, 20456, Note_on_c, 1, 53, 55
3, 20470, Note_on_c, 1, 53, 0
3, 20470, Note_on_c, 1, 56, 0
3, 20471, Note_on_c, 1, 49, 0
3, 20519, Note_on_c, 1, 53, 72
3, 20519, Note_on_c, 1, 56, 84
3, 20519, Note_on_c, 1, 49, 69
3, 20524, Control_c, 1, 64, 0
3, 20530, Note_on_c, 1, 49, 0
3, 20530, Note_on_c, 1, 56, 0
3, 20531, Note_on_c, 1, 53, 0
3, 20578, Note_on_c, 1, 28, 72
3, 20579, Note_on_c, 1, 40, 48
3, 20598, Note_on_c, 1, 40, 0
3, 20598, Note_on_c, 1, 28, 0
3, 20642, Note_on_c, 1, 30, 69
3, 20642, Note_on_c, 1, 42, 79
3, 20744, Note_on_c, 1, 42, 0
3, 20749, Note_on_c, 1, 30, 0
3, 20766, Note_on_c, 1, 49, 66
3, 20766, Note_on_c, 1, 54, 79
3, 20766, Note_on_c, 1, 46, 64
3, 20778, Note_on_c, 1, 46, 0
3, 20779, Note_on_c, 1, 49, 0
3, 20780, Note_on_c, 1, 54, 0
3, 20821, Note_on_c, 1, 30, 43
3, 20822, Note_on_c, 1, 42, 51
3, 20841, Note_on_c, 1, 42, 0
3, 20843, Note_on_c, 1, 30, 0
3, 20937, Note_on_c, 1, 42, 74
3, 20938, Note_on_c, 1, 30, 66
3, 20987, Note_on_c, 1, 42, 0
3, 20993, Note_on_c, 1, 30, 0
3, 20999, Note_on_c, 1, 49, 66
3, 20999, Note_on_c, 1, 46, 66
3, 20999, Note_on_c, 1, 54, 64
3, 21013, Note_on_c, 1, 49, 0
3, 21014, Note_on_c, 1, 54, 0
3, 21014, Note_on_c, 1, 46, 0
3, 21057, Note_on_c, 1, 28, 30
3, 21060, Note_on_c, 1, 40, 18
3, 21079, Note_on_c, 1, 28, 0
3, 21080, Note_on_c, 1, 40, 0
3, 21121, Note_on_c, 1, 42, 51
3, 21122, Note_on_c, 1, 30, 64
3, 21231, Note_on_c, 1, 30, 0
3, 21231, Note_on_c, 1, 42, 0
3, 21243, Note_on_c, 1, 54, 58
3, 21244, Note_on_c, 1, 49, 58
3, 21244, Note_on_c, 1, 46, 58
3, 21255, Note_on_c, 1, 46, 0
3, 21256, Note_on_c, 1, 49, 0
3, 21256, Note_on_c, 1, 54, 0
3, 21299, Note_on_c, 1, 42, 64
3, 21301, Note_on_c, 1, 30, 58
3, 21326, Note_on_c, 1, 42, 0
3, 21331, Note_on_c, 1, 30, 0
3, 21415, Note_on_c, 1, 30, 69
3, 21416, Note_on_c, 1, 42, 64
3, 21473, Note_on_c, 1, 42, 0
3, 21476, Note_on_c, 1, 30, 0
3, 21482, Note_on_c, 1, 49, 77
3, 21482, Note_on_c, 1, 46, 74
3, 21482, Note_on_c, 1, 54, 89
3, 21497, Note_on_c, 1, 49, 0
3, 21498, Note_on_c, 1, 54, 0
3, 21498, Note_on_c, 1, 46, 0
3, 21535, Note_on_c, 1, 33, 55
3, 21552, Note_on_c, 1, 33, 0
3, 21598, Note_on_c, 1, 37, 66
3, 21713, Note_on_c, 1, 37, 0
3, 21719, Note_on_c, 1, 53, 93
3, 21719, Note_on_c, 1, 56, 84
3, 21719, Note_on_c, 1, 49, 69
3, 21730, Note_on_c, 1, 49, 0
3, 21731, Note_on_c, 1, 53, 0
3, 21732, Note_on_c, 1, 56, 0
3, 21782, Note_on_c, 1, 37, 66
3, 21800, Note_on_c, 1, 37, 0
3, 21901, Note_on_c, 1, 37, 74
3, 21952, Note_on_c, 1, 37, 0
3, 21961, Note_on_c, 1, 53, 64
3, 21961, Note_on_c, 1, 49, 64
3, 21961, Note_on_c, 1, 56, 66
3, 21977, Note_on_c, 1, 56, 0
3, 21977, Note_on_c, 1, 49, 0
3, 21977, Note_on_c, 1, 53, 0
3, 22018, Note_on_c, 1, 33, 66
3, 22035, Note_on_c, 1, 33, 0
3, 22078, Note_on_c, 1, 35, 84
3, 22187, Note_on_c, 1, 35, 0
3, 22198, Note_on_c, 1, 51, 84
3, 22198, Note_on_c, 1, 47, 74
3, 22198, Note_on_c, 1, 54, 66
3, 22213, Note_on_c, 1, 54, 0
3, 22213, Note_on_c, 1, 47, 0
3, 22213, Note_on_c, 1, 51, 0
3, 22257, Note_on_c, 1, 35, 72
3, 22272, Note_on_c, 1, 35, 0
3, 22376, Note_on_c, 1, 35, 66
3, 22437, Note_on_c, 1, 35, 0
3, 22443, Note_on_c, 1, 54, 102
3, 22444, Note_on_c, 1, 47, 66
3, 22444, Note_on_c, 1, 51, 84
3, 22459, Note_on_c, 1, 51, 0
3, 22459, Note_on_c, 1, 47, 0
3, 22459, Note_on_c, 1, 54, 0
3, 22502, Note_on_c, 1, 40, 35
3, 22502, Note_on_c, 1, 28, 58
3, 22506, Note_on_c, 1, 28, 0
3, 22520, Note_on_c, 1, 40, 0
3, 22560, Note_on_c, 1, 30, 74
3, 22560, Note_on_c, 1, 42, 64
3, 22680, Note_on_c, 1, 42, 0
3, 22680, Note_on_c, 1, 30, 0
3, 22680, Note_on_c, 1, 46, 58
3, 22680, Note_on_c, 1, 49, 66
3, 22680, Note_on_c, 1, 54, 51
3, 22709, Note_on_c, 1, 54, 0
3, 22709, Note_on_c, 1, 49, 0
3, 22709, Note_on_c, 1, 46, 0
3, 22740, Note_on_c, 1, 42, 55
3, 22740, Note_on_c, 1, 30, 77
3, 22769, Note_on_c, 1, 30, 0
3, 22769, Note_on_c, 1, 42, 0
3, 22860, Note_on_c, 1, 30, 51
3, 22860, Note_on_c, 1, 42, 48
3, 22920, Note_on_c, 1, 42, 0
3, 22920, Note_on_c, 1, 30, 0
3, 22920, Note_on_c, 1, 54, 72
3, 22920, Note_on_c, 1, 49, 66
3, 22920, Note_on_c, 1, 46, 58
3, 22949, Note_on_c, 1, 46, 0
3, 22949, Note_on_c, 1, 49, 0
3, 22949, Note_on_c, 1, 54, 0
3, 22980, Note_on_c, 1, 28, 66
3, 22980, Note_on_c, 1, 40, 22
3, 23009, Note_on_c, 1, 40, 0
3, 23009, Note_on_c, 1, 28, 0
3, 23040, Note_on_c, 1, 30, 64
3, 23040, Note_on_c, 1, 42, 79
3, 23160, Note_on_c, 1, 42, 0
3, 23160, Note_on_c, 1, 30, 0
3, 23160, Note_on_c, 1, 54, 77
3, 23160, Note_on_c, 1, 49, 66
3, 23160, Note_on_c, 1, 46, 66
3, 23189, Note_on_c, 1, 46, 0
3, 23189, Note_on_c, 1, 49, 0
3, 23189, Note_on_c, 1, 54, 0
3, 23220, Note_on_c, 1, 30, 64
3, 23220, Note_on_c, 1, 42, 55
3, 23249, Note_on_c, 1, 42, 0
3, 23249, Note_on_c, 1, 30, 0
3, 23340, Note_on_c, 1, 42, 58
3, 23340, Note_on_c, 1, 30, 58
3, 23400, Note_on_c, 1, 30, 0
3, 23400, Note_on_c, 1, 42, 0
3, 23400, Note_on_c, 1, 54, 79
3, 23400, Note_on_c, 1, 49, 74
3, 23400, Note_on_c, 1, 46, 69
3, 23429, Note_on_c, 1, 46, 0
3, 23429, Note_on_c, 1, 49, 0
3, 23429, Note_on_c, 1, 54, 0
3, 23460, Note_on_c, 1, 28, 66
3, 23460, Note_on_c, 1, 40, 89
3, 23489, Note_on_c, 1, 40, 0
3, 23489, Note_on_c, 1, 28, 0
3, 23524, Note_on_c, 1, 30, 79
3, 23524, Note_on_c, 1, 42, 66
3, 23618, Note_on_c, 1, 42, 0
3, 23620, Note_on_c, 1, 30, 0
3, 23636, Note_on_c, 1, 46, 79
3, 23636, Note_on_c, 1, 54, 66
3, 23636, Note_on_c, 1, 49, 84
3, 23652, Note_on_c, 1, 49, 0
3, 23652, Note_on_c, 1, 54, 0
3, 23652, Note_on_c, 1, 46, 0
3, 23698, Note_on_c, 1, 42, 64
3, 23698, Note_on_c, 1, 30, 64
3, 23715, Note_on_c, 1, 42, 0
3, 23717, Note_on_c, 1, 30, 0
3, 23816, Note_on_c, 1, 42, 58
3, 23817, Note_on_c, 1, 30, 51
3, 23875, Note_on_c, 1, 42, 0
3, 23879, Note_on_c, 1, 30, 0
3, 23882, Note_on_c, 1, 54, 79
3, 23882, Note_on_c, 1, 49, 108
3, 23883, Note_on_c, 1, 46, 58
3, 23896, Note_on_c, 1, 46, 0
3, 23897, Note_on_c, 1, 49, 0
3, 23897, Note_on_c, 1, 54, 0
3, 23937, Note_on_c, 1, 33, 61
3, 23951, Note_on_c, 1, 33, 0
3, 23999, Note_on_c, 1, 35, 84
3, 24119, Note_on_c, 1, 51, 96
3, 24119, Note_on_c, 1, 47, 66
3, 24119, Note_on_c, 1, 54, 96
3, 24120, Note_on_c, 1, 35, 0
3, 24133, Note_on_c, 1, 54, 0
3, 24134, Note_on_c, 1, 47, 0
3, 24134, Note_on_c, 1, 51, 0
3, 24179, Note_on_c, 1, 37, 84
3, 24196, Note_on_c, 1, 37, 0
3, 24252, Control_c, 1, 64, 127
3, 24297, Note_on_c, 1, 56, 58
3, 24297, Note_on_c, 1, 49, 43
3, 24297, Note_on_c, 1, 53, 64
3, 24313, Note_on_c, 1, 53, 0
3, 24313, Note_on_c, 1, 56, 0
3, 24314, Note_on_c, 1, 49, 0
3, 24358, Note_on_c, 1, 49, 74
3, 24358, Note_on_c, 1, 56, 102
3, 24359, Note_on_c, 1, 53, 69
3, 24371, Note_on_c, 1, 56, 0
3, 24372, Note_on_c, 1, 53, 0
3, 24372, Note_on_c, 1, 49, 0
3, 24376, Control_c, 1, 64, 0
3, 24417, Note_on_c, 1, 28, 48
3, 24418, Note_on_c, 1, 40, 35
3, 24435, Note_on_c, 1, 40, 0
3, 24437, Note_on_c, 1, 28, 0
3, 24483, Note_on_c, 1, 30, 61
3, 24484, Note_on_c, 1, 42, 72
3, 24586, Note_on_c, 1, 42, 0
3, 24588, Note_on_c, 1, 30, 0
3, 24601, Note_on_c, 1, 49, 69
3, 24601, Note_on_c, 1, 46, 74
3, 24602, Note_on_c, 1, 54, 69
3, 24616, Note_on_c, 1, 54, 0
3, 24616, Note_on_c, 1, 49, 0
3, 24617, Note_on_c, 1, 46, 0
3, 24660, Note_on_c, 1, 30, 64
3, 24685, Note_on_c, 1, 30, 0
3, 24778, Note_on_c, 1, 42, 72
3, 24838, Note_on_c, 1, 42, 0
3, 24840, Note_on_c, 1, 54, 66
3, 24840, Note_on_c, 1, 49, 74
3, 24841, Note_on_c, 1, 46, 74
3, 24855, Note_on_c, 1, 46, 0
3, 24855, Note_on_c, 1, 54, 0
3, 24856, Note_on_c, 1, 49, 0
3, 24905, Note_on_c, 1, 28, 35
3, 24917, Note_on_c, 1, 28, 0
3, 24959, Note_on_c, 1, 42, 64
3, 24960, Note_on_c, 1, 30, 74
3, 25080, Note_on_c, 1, 30, 0
3, 25081, Note_on_c, 1, 54, 69
3, 25082, Note_on_c, 1, 49, 89
3, 25083, Note_on_c, 1, 46, 64
3, 25084, Note_on_c, 1, 42, 0
3, 25095, Note_on_c, 1, 46, 0
3, 25096, Note_on_c, 1, 49, 0
3, 25097, Note_on_c, 1, 54, 0
3, 25147, Note_on_c, 1, 30, 72
3, 25147, Note_on_c, 1, 42, 69
3, 25173, Note_on_c, 1, 42, 0
3, 25176, Note_on_c, 1, 30, 0
3, 25261, Note_on_c, 1, 42, 72
3, 25318, Note_on_c, 1, 42, 0
3, 25324, Note_on_c, 1, 49, 84
3, 25324, Note_on_c, 1, 46, 66
3, 25325, Note_on_c, 1, 54, 93
3, 25339, Note_on_c, 1, 49, 0
3, 25340, Note_on_c, 1, 46, 0
3, 25341, Note_on_c, 1, 54, 0
3, 25379, Note_on_c, 1, 33, 66
3, 25396, Note_on_c, 1, 33, 0
3, 25439, Note_on_c, 1, 35, 69
3, 25559, Note_on_c, 1, 35, 0
3, 25560, Note_on_c, 1, 51, 69
3, 25560, Note_on_c, 1, 47, 64
3, 25560, Note_on_c, 1, 54, 79
3, 25572, Note_on_c, 1, 47, 0
3, 25572, Note_on_c, 1, 51, 0
3, 25573, Note_on_c, 1, 54, 0
3, 25620, Note_on_c, 1, 35, 58
3, 25643, Note_on_c, 1, 35, 0
3, 25737, Note_on_c, 1, 35, 64
3, 25790, Note_on_c, 1, 35, 0
3, 25799, Note_on_c, 1, 51, 72
3, 25799, Note_on_c, 1, 47, 72
3, 25800, Note_on_c, 1, 54, 72
3, 25814, Note_on_c, 1, 47, 0
3, 25814, Note_on_c, 1, 51, 0
3, 25815, Note_on_c, 1, 54, 0
3, 25860, Note_on_c, 1, 33, 77
3, 25877, Note_on_c, 1, 33, 0
3, 25884, Note_on_c, 1, 34, 69
3, 25901, Note_on_c, 1, 34, 0
3, 25916, Note_on_c, 1, 35, 79
3, 26032, Note_on_c, 1, 35, 0
3, 26043, Note_on_c, 1, 51, 89
3, 26043, Note_on_c, 1, 54, 96
3, 26043, Note_on_c, 1, 47, 89
3, 26057, Note_on_c, 1, 47, 0
3, 26057, Note_on_c, 1, 51, 0
3, 26059, Note_on_c, 1, 54, 0
3, 26102, Note_on_c, 1, 37, 72
3, 26121, Note_on_c, 1, 37, 0
3, 26191, Control_c, 1, 64, 127
3, 26219, Note_on_c, 1, 56, 48
3, 26219, Note_on_c, 1, 53, 58
3, 26219, Note_on_c, 1, 49, 51
3, 26234, Note_on_c, 1, 53, 0
3, 26234, Note_on_c, 1, 56, 0
3, 26235, Note_on_c, 1, 49, 0
3, 26281, Note_on_c, 1, 53, 84
3, 26282, Note_on_c, 1, 49, 69
3, 26282, Note_on_c, 1, 56, 74
3, 26286, Control_c, 1, 64, 0
3, 26294, Note_on_c, 1, 56, 0
3, 26295, Note_on_c, 1, 49, 0
3, 26295, Note_on_c, 1, 53, 0
3, 26340, Note_on_c, 1, 28, 64
3, 26342, Note_on_c, 1, 40, 39
3, 26361, Note_on_c, 1, 40, 0
3, 26361, Note_on_c, 1, 28, 0
3, 26401, Note_on_c, 1, 42, 74
3, 26401, Note_on_c, 1, 30, 58
3, 26515, Note_on_c, 1, 42, 0
3, 26517, Note_on_c, 1, 30, 0
3, 26518, Note_on_c, 1, 54, 64
3, 26519, Note_on_c, 1, 46, 77
3, 26519, Note_on_c, 1, 49, 74
3, 26534, Note_on_c, 1, 49, 0
3, 26534, Note_on_c, 1, 46, 0
3, 26534, Note_on_c, 1, 54, 0
3, 26578, Note_on_c, 1, 30, 58
3, 26578, Note_on_c, 1, 42, 55
3, 26595, Note_on_c, 1, 42, 0
3, 26598, Note_on_c, 1, 30, 0
3, 26701, Note_on_c, 1, 30, 51
3, 26702, Note_on_c, 1, 42, 64
3, 26759, Note_on_c, 1, 42, 0
3, 26764, Note_on_c, 1, 30, 0
3, 26765, Note_on_c, 1, 49, 89
3, 26766, Note_on_c, 1, 46, 84
3, 26766, Note_on_c, 1, 54, 89
3, 26777, Note_on_c, 1, 46, 0
3, 26777, Note_on_c, 1, 49, 0
3, 26779, Note_on_c, 1, 54, 0
3, 26824, Note_on_c, 1, 28, 26
3, 26825, Note_on_c, 1, 40, 30
3, 26840, Note_on_c, 1, 28, 0
3, 26843, Note_on_c, 1, 40, 0
3, 26879, Note_on_c, 1, 30, 74
3, 26879, Note_on_c, 1, 42, 77
3, 26995, Note_on_c, 1, 42, 0
3, 26995, Note_on_c, 1, 30, 0
3, 27004, Note_on_c, 1, 54, 77
3, 27004, Note_on_c, 1, 49, 66
3, 27005, Note_on_c, 1, 46, 69
3, 27015, Note_on_c, 1, 49, 0
3, 27016, Note_on_c, 1, 54, 0
3, 27017, Note_on_c, 1, 46, 0
3, 27061, Note_on_c, 1, 30, 89
3, 27061, Note_on_c, 1, 42, 89
3, 27076, Note_on_c, 1, 42, 0
3, 27079, Note_on_c, 1, 30, 0
3, 27141, Control_c, 1, 64, 127
3, 27179, Note_on_c, 1, 46, 51
3, 27180, Note_on_c, 1, 54, 55
3, 27180, Note_on_c, 1, 49, 58
3, 27195, Note_on_c, 1, 54, 0
3, 27195, Note_on_c, 1, 46, 0
3, 27196, Note_on_c, 1, 49, 0
3, 27239, Note_on_c, 1, 49, 84
3, 27241, Note_on_c, 1, 54, 72
3, 27241, Note_on_c, 1, 46, 79
3, 27247, Control_c, 1, 64, 0
3, 27252, Note_on_c, 1, 46, 0
3, 27253, Note_on_c, 1, 54, 0
3, 27253, Note_on_c, 1, 49, 0
3, 27297, Note_on_c, 1, 33, 69
3, 27312, Note_on_c, 1, 33, 0
3, 27361, Note_on_c, 1, 37, 89
3, 27471, Note_on_c, 1, 37, 0
3, 27480, Note_on_c, 1, 49, 64
3, 27481, Note_on_c, 1, 53, 84
3, 27481, Note_on_c, 1, 56, 77
3, 27495, Note_on_c, 1, 56, 0
3, 27495, Note_on_c, 1, 53, 0
3, 27495, Note_on_c, 1, 49, 0
3, 27540, Note_on_c, 1, 37, 66
3, 27560, Note_on_c, 1, 37, 0
3, 27655, Note_on_c, 1, 37, 64
3, 27720, Note_on_c, 1, 37, 0
3, 27720, Note_on_c, 1, 56, 79
3, 27720, Note_on_c, 1, 53, 84
3, 27721, Note_on_c, 1, 49, 64
3, 27734, Note_on_c, 1, 53, 0
3, 27734, Note_on_c, 1, 56, 0
3, 27735, Note_on_c, 1, 49, 0
3, 27774, Note_on_c, 1, 33, 84
3, 27792, Note_on_c, 1, 33, 0
3, 27836, Note_on_c, 1, 35, 66
3, 27957, Note_on_c, 1, 35, 0
3, 27961, Note_on_c, 1, 47, 79
3, 27961, Note_on_c, 1, 51, 84
3, 27962, Note_on_c, 1, 54, 77
3, 27974, Note_on_c, 1, 54, 0
3, 27975, Note_on_c, 1, 51, 0
3, 27976, Note_on_c, 1, 47, 0
3, 28018, Note_on_c, 1, 35, 61
3, 28041, Note_on_c, 1, 35, 0
3, 28139, Note_on_c, 1, 35, 74
3, 28186, Note_on_c, 1, 35, 0
3, 28196, Note_on_c, 1, 51, 79
3, 28196, Note_on_c, 1, 54, 89
3, 28196, Note_on_c, 1, 47, 77
3, 28212, Note_on_c, 1, 54, 0
3, 28212, Note_on_c, 1, 51, 0
3, 28213, Note_on_c, 1, 47, 0
3, 28257, Note_on_c, 1, 28, 72
3, 28274, Note_on_c, 1, 28, 0
3, 28313, Note_on_c, 1, 30, 84
3, 28323, Note_on_c, 1, 42, 58
3, 28324, Note_on_c, 1, 30, 55
3, 28427, Note_on_c, 1, 30, 0
3, 28428, Note_on_c, 1, 42, 0
3, 28434, Note_on_c, 1, 46, 58
3, 28434, Note_on_c, 1, 54, 77
3, 28434, Note_on_c, 1, 49, 58
3, 28440, Note_on_c, 1, 30, 0
3, 28449, Note_on_c, 1, 46, 0
3, 28450, Note_on_c, 1, 49, 0
3, 28451, Note_on_c, 1, 54, 0
3, 28500, Note_on_c, 1, 42, 55
3, 28501, Note_on_c, 1, 30, 35
3, 28521, Note_on_c, 1, 42, 0
3, 28522, Note_on_c, 1, 30, 0
3, 28619, Note_on_c, 1, 30, 35
3, 28621, Note_on_c, 1, 42, 64
3, 28659, Note_on_c, 1, 42, 0
3, 28669, Note_on_c, 1, 30, 0
3, 28679, Note_on_c, 1, 46, 64
3, 28679, Note_on_c, 1, 54, 61
3, 28680, Note_on_c, 1, 49, 64
3, 28694, Note_on_c, 1, 49, 0
3, 28694, Note_on_c, 1, 54, 0
3, 28694, Note_on_c, 1, 46, 0
3, 28737, Note_on_c, 1, 28, 64
3, 28754, Note_on_c, 1, 28, 0
3, 28764, Note_on_c, 1, 29, 51
3, 28787, Note_on_c, 1, 29, 0
3, 28794, Note_on_c, 1, 30, 79
3, 28912, Note_on_c, 1, 30, 0
3, 28920, Note_on_c, 1, 49, 86
3, 28920, Note_on_c, 1, 46, 84
3, 28920, Note_on_c, 1, 54, 84
3, 28932, Note_on_c, 1, 46, 0
3, 28933, Note_on_c, 1, 54, 0
3, 28934, Note_on_c, 1, 49, 0
3, 28982, Note_on_c, 1, 42, 66
3, 28998, Note_on_c, 1, 42, 0
3, 29099, Note_on_c, 1, 42, 69
3, 29150, Note_on_c, 1, 42, 0
3, 29158, Note_on_c, 1, 49, 74
3, 29159, Note_on_c, 1, 46, 55
3, 29159, Note_on_c, 1, 54, 69
3, 29171, Note_on_c, 1, 54, 0
3, 29172, Note_on_c, 1, 49, 0
3, 29173, Note_on_c, 1, 46, 0
3, 29216, Note_on_c, 1, 28, 72
3, 29218, Note_on_c, 1, 40, 55
3, 29236, Note_on_c, 1, 28, 0
3, 29238, Note_on_c, 1, 40, 0
3, 29273, Note_on_c, 1, 30, 55
3, 29274, Note_on_c, 1, 42, 58
3, 29402, Note_on_c, 1, 49, 79
3, 29402, Note_on_c, 1, 46, 69
3, 29403, Note_on_c, 1, 54, 66
3, 29405, Note_on_c, 1, 30, 0
3, 29414, Note_on_c, 1, 42, 0
3, 29416, Note_on_c, 1, 46, 0
3, 29417, Note_on_c, 1, 49, 0
3, 29417, Note_on_c, 1, 54, 0
3, 29464, Note_on_c, 1, 42, 74
3, 29464, Note_on_c, 1, 30, 69
3, 29484, Note_on_c, 1, 42, 0
3, 29495, Note_on_c, 1, 30, 0
3, 29578, Note_on_c, 1, 30, 55
3, 29581, Note_on_c, 1, 42, 51
3, 29634, Note_on_c, 1, 42, 0
3, 29640, Note_on_c, 1, 49, 74
3, 29641, Note_on_c, 1, 54, 77
3, 29641, Note_on_c, 1, 46, 64
3, 29643, Note_on_c, 1, 30, 0
3, 29655, Note_on_c, 1, 49, 0
3, 29656, Note_on_c, 1, 46, 0
3, 29658, Note_on_c, 1, 54, 0
3, 29698, Note_on_c, 1, 33, 51
3, 29714, Note_on_c, 1, 33, 0
3, 29752, Note_on_c, 1, 35, 89
3, 29873, Note_on_c, 1, 35, 0
3, 29876, Note_on_c, 1, 47, 66
3, 29877, Note_on_c, 1, 54, 79
3, 29878, Note_on_c, 1, 51, 79
3, 29891, Note_on_c, 1, 51, 0
3, 29891, Note_on_c, 1, 54, 0
3, 29891, Note_on_c, 1, 47, 0
3, 29939, Note_on_c, 1, 37, 72
3, 29959, Note_on_c, 1, 37, 0
3, 30015, Control_c, 1, 64, 127
3, 30057, Note_on_c, 1, 53, 61
3, 30058, Note_on_c, 1, 49, 48
3, 30058, Note_on_c, 1, 56, 58
3, 30073, Note_on_c, 1, 56, 0
3, 30073, Note_on_c, 1, 53, 0
3, 30074, Note_on_c, 1, 49, 0
3, 30121, Note_on_c, 1, 53, 89
3, 30121, Note_on_c, 1, 56, 96
3, 30122, Note_on_c, 1, 49, 84
3, 30127, Control_c, 1, 64, 0
3, 30135, Note_on_c, 1, 56, 0
3, 30136, Note_on_c, 1, 49, 0
3, 30136, Note_on_c, 1, 53, 0
3, 30181, Note_on_c, 1, 28, 51
3, 30182, Note_on_c, 1, 40, 39
3, 30199, Note_on_c, 1, 40, 0
3, 30200, Note_on_c, 1, 28, 0
3, 30244, Note_on_c, 1, 30, 66
3, 30244, Note_on_c, 1, 42, 66
3, 30359, Note_on_c, 1, 54, 58
3, 30359, Note_on_c, 1, 49, 64
3, 30359, Note_on_c, 1, 46, 61
3, 30360, Note_on_c, 1, 42, 0
3, 30361, Note_on_c, 1, 30, 0
3, 30371, Note_on_c, 1, 49, 0
3, 30371, Note_on_c, 1, 54, 0
3, 30371, Note_on_c, 1, 46, 0
3, 30418, Note_on_c, 1, 42, 58
3, 30420, Note_on_c, 1, 30, 58
3, 30435, Note_on_c, 1, 42, 0
3, 30440, Note_on_c, 1, 30, 0
3, 30540, Note_on_c, 1, 42, 77
3, 30541, Note_on_c, 1, 30, 64
3, 30583, Note_on_c, 1, 42, 0
3, 30587, Note_on_c, 1, 30, 0
3, 30600, Note_on_c, 1, 46, 58
3, 30602, Note_on_c, 1, 54, 58
3, 30602, Note_on_c, 1, 49, 55
3, 30615, Note_on_c, 1, 49, 0
3, 30615, Note_on_c, 1, 54, 0
3, 30616, Note_on_c, 1, 46, 0
3, 30658, Note_on_c, 1, 28, 48
3, 30659, Note_on_c, 1, 40, 43
3, 30679, Note_on_c, 1, 40, 0
3, 30679, Note_on_c, 1, 28, 0
3, 30720, Note_on_c, 1, 30, 69
3, 30720, Note_on_c, 1, 42, 79
3, 30830, Note_on_c, 1, 30, 0
3, 30833, Note_on_c, 1, 42, 0
3, 30839, Note_on_c, 1, 49, 64
3, 30840, Note_on_c, 1, 46, 58
3, 30840, Note_on_c, 1, 54, 72
3, 30852, Note_on_c, 1, 46, 0
3, 30853, Note_on_c, 1, 54, 0
3, 30853, Note_on_c, 1, 49, 0
3, 30900, Note_on_c, 1, 30, 51
3, 30901, Note_on_c, 1, 42, 64
3, 30919, Note_on_c, 1, 42, 0
3, 30922, Note_on_c, 1, 30, 0
3, 31016, Note_on_c, 1, 30, 61
3, 31017, Note_on_c, 1, 42, 64
3, 31075, Note_on_c, 1, 42, 0
3, 31079, Note_on_c, 1, 30, 0
3, 31080, Note_on_c, 1, 49, 72
3, 31080, Note_on_c, 1, 46, 64
3, 31081, Note_on_c, 1, 54, 72
3, 31093, Note_on_c, 1, 49, 0
3, 31094, Note_on_c, 1, 46, 0
3, 31095, Note_on_c, 1, 54, 0
3, 31138, Note_on_c, 1, 33, 86
3, 31153, Note_on_c, 1, 33, 0
3, 31197, Note_on_c, 1, 35, 79
3, 31319, Note_on_c, 1, 51, 79
3, 31320, Note_on_c, 1, 47, 66
3, 31320, Note_on_c, 1, 54, 84
3, 31321, Note_on_c, 1, 35, 0
3, 31334, Note_on_c, 1, 51, 0
3, 31334, Note_on_c, 1, 47, 0
3, 31334, Note_on_c, 1, 54, 0
3, 31379, Note_on_c, 1, 35, 66
3, 31397, Note_on_c, 1, 35, 0
3, 31496, Note_on_c, 1, 35, 64
3, 31557, Note_on_c, 1, 35, 0
3, 31561, Note_on_c, 1, 54, 81
3, 31561, Note_on_c, 1, 51, 79
3, 31561, Note_on_c, 1, 47, 64
3, 31575, Note_on_c, 1, 47, 0
3, 31575, Note_on_c, 1, 51, 0
3, 31577, Note_on_c, 1, 54, 0
3, 31619, Note_on_c, 1, 33, 55
3, 31637, Note_on_c, 1, 33, 0
3, 31646, Note_on_c, 1, 34, 84
3, 31663, Note_on_c, 1, 34, 0
3, 31677, Note_on_c, 1, 35, 89
3, 31792, Note_on_c, 1, 35, 0
3, 31795, Note_on_c, 1, 51, 72
3, 31796, Note_on_c, 1, 54, 79
3, 31797, Note_on_c, 1, 47, 58
3, 31811, Note_on_c, 1, 47, 0
3, 31813, Note_on_c, 1, 54, 0
3, 31813, Note_on_c, 1, 51, 0
3, 31859, Note_on_c, 1, 37, 93
3, 31877, Note_on_c, 1, 37, 0
3, 31928, Control_c, 1, 64, 127
3, 31976, Note_on_c, 1, 56, 64
3, 31977, Note_on_c, 1, 53, 58
3, 31978, Note_on_c, 1, 49, 43
3, 31991, Note_on_c, 1, 49, 0
3, 31991, Note_on_c, 1, 56, 0
3, 31993, Note_on_c, 1, 53, 0
3, 32037, Control_c, 1, 64, 0
3, 32039, Note_on_c, 1, 53, 66
3, 32039, Note_on_c, 1, 56, 84
3, 32039, Note_on_c, 1, 49, 64
3, 32050, Note_on_c, 1, 56, 0
3, 32051, Note_on_c, 1, 49, 0
3, 32051, Note_on_c, 1, 53, 0
3, 32098, Note_on_c, 1, 28, 61
3, 32099, Note_on_c, 1, 40, 39
3, 32118, Note_on_c, 1, 28, 0
3, 32120, Note_on_c, 1, 40, 0
3, 32160, Note_on_c, 1, 30, 48
3, 32160, Note_on_c, 1, 42, 55
3, 32273, Note_on_c, 1, 42, 0
3, 32276, Note_on_c, 1, 54, 74
3, 32276, Note_on_c, 1, 49, 66
3, 32277, Note_on_c, 1, 46, 55
3, 32279, Note_on_c, 1, 30, 0
3, 32292, Note_on_c, 1, 54, 0
3, 32292, Note_on_c, 1, 49, 0
3, 32292, Note_on_c, 1, 46, 0
3, 32336, Note_on_c, 1, 42, 58
3, 32336, Note_on_c, 1, 30, 58
3, 32359, Note_on_c, 1, 30, 0
3, 32359, Note_on_c, 1, 42, 0
3, 32455, Note_on_c, 1, 42, 58
3, 32457, Note_on_c, 1, 30, 51
3, 32513, Note_on_c, 1, 42, 0
3, 32518, Note_on_c, 1, 30, 0
3, 32522, Note_on_c, 1, 49, 72
3, 32523, Note_on_c, 1, 46, 69
3, 32523, Note_on_c, 1, 54, 77
3, 32536, Note_on_c, 1, 46, 0
3, 32536, Note_on_c, 1, 49, 0
3, 32537, Note_on_c, 1, 54, 0
3, 32578, Note_on_c, 1, 28, 48
3, 32578, Note_on_c, 1, 40, 48
3, 32601, Note_on_c, 1, 28, 0
3, 32602, Note_on_c, 1, 40, 0
3, 32637, Note_on_c, 1, 30, 64
3, 32638, Note_on_c, 1, 42, 69
3, 32759, Note_on_c, 1, 30, 0
3, 32760, Note_on_c, 1, 42, 0
3, 32762, Note_on_c, 1, 54, 79
3, 32762, Note_on_c, 1, 49, 69
3, 32763, Note_on_c, 1, 46, 43
3, 32776, Note_on_c, 1, 46, 0
3, 32776, Note_on_c, 1, 49, 0
3, 32777, Note_on_c, 1, 54, 0
3, 32822, Note_on_c, 1, 30, 64
3, 32823, Note_on_c, 1, 42, 61
3, 32847, Note_on_c, 1, 30, 0
3, 32848, Note_on_c, 1, 42, 0
3, 32936, Note_on_c, 1, 30, 69
3, 32936, Note_on_c, 1, 42, 64
3, 32995, Note_on_c, 1, 42, 0
3, 32997, Note_on_c, 1, 30, 0
3, 32999, Note_on_c, 1, 54, 77
3, 32999, Note_on_c, 1, 49, 66
3, 32999, Note_on_c, 1, 46, 72
3, 33012, Note_on_c, 1, 46, 0
3, 33012, Note_on_c, 1, 49, 0
3, 33013, Note_on_c, 1, 54, 0
3, 33056, Note_on_c, 1, 33, 61
3, 33071, Note_on_c, 1, 33, 0
3, 33119, Note_on_c, 1, 37, 96
3, 33232, Note_on_c, 1, 37, 0
3, 33238, Note_on_c, 1, 53, 72
3, 33239, Note_on_c, 1, 49, 69
3, 33240, Note_on_c, 1, 56, 86
3, 33254, Note_on_c, 1, 49, 0
3, 33255, Note_on_c, 1, 56, 0
3, 33255, Note_on_c, 1, 53, 0
3, 33298, Note_on_c, 1, 37, 66
3, 33321, Note_on_c, 1, 37, 0
3, 33419, Note_on_c, 1, 37, 74
3, 33482, Note_on_c, 1, 49, 89
3, 33482, Note_on_c, 1, 56, 96
3, 33482, Note_on_c, 1, 53, 84
3, 33483, Note_on_c, 1, 37, 0
3, 33496, Note_on_c, 1, 49, 0
3, 33496, Note_on_c, 1, 56, 0
3, 33496, Note_on_c, 1, 53, 0
3, 33539, Note_on_c, 1, 33, 84
3, 33554, Note_on_c, 1, 33, 0
3, 33599, Note_on_c, 1, 35, 51
3, 33601, Note_on_c, 1, 37, 14
3, 33615, Note_on_c, 1, 37, 0
3, 33713, Note_on_c, 1, 35, 0
3, 33718, Note_on_c, 1, 54, 74
3, 33718, Note_on_c, 1, 51, 69
3, 33719, Note_on_c, 1, 47, 64
3, 33732, Note_on_c, 1, 47, 0
3, 33732, Note_on_c, 1, 51, 0
3, 33732, Note_on_c, 1, 54, 0
3, 33781, Note_on_c, 1, 35, 89
3, 33800, Note_on_c, 1, 35, 0
3, 33898, Note_on_c, 1, 35, 79
3, 33949, Note_on_c, 1, 35, 0
3, 33957, Note_on_c, 1, 51, 77
3, 33957, Note_on_c, 1, 54, 84
3, 33958, Note_on_c, 1, 47, 72
3, 33972, Note_on_c, 1, 47, 0
3, 33972, Note_on_c, 1, 54, 0
3, 33972, Note_on_c, 1, 51, 0
3, 34015, Note_on_c, 1, 28, 61
3, 34031, Note_on_c, 1, 28, 0
3, 34042, Note_on_c, 1, 29, 69
3, 34056, Note_on_c, 1, 29, 0
3, 34075, Note_on_c, 1, 30, 93
3, 34197, Note_on_c, 1, 30, 0
3, 34200, Note_on_c, 1, 54, 72
3, 34200, Note_on_c, 1, 49, 64
3, 34201, Note_on_c, 1, 46, 58
3, 34214, Note_on_c, 1, 46, 0
3, 34214, Note_on_c, 1, 54, 0
3, 34215, Note_on_c, 1, 49, 0
3, 34262, Note_on_c, 1, 42, 84
3, 34280, Note_on_c, 1, 42, 0
3, 34381, Note_on_c, 1, 42, 66
3, 34382, Note_on_c, 1, 30, 64
3, 34439, Note_on_c, 1, 42, 0
3, 34440, Note_on_c, 1, 54, 64
3, 34440, Note_on_c, 1, 46, 74
3, 34441, Note_on_c, 1, 49, 66
3, 34446, Note_on_c, 1, 30, 0
3, 34456, Note_on_c, 1, 46, 0
3, 34457, Note_on_c, 1, 54, 0
3, 34457, Note_on_c, 1, 49, 0
3, 34498, Note_on_c, 1, 28, 55
3, 34500, Note_on_c, 1, 40, 39
3, 34519, Note_on_c, 1, 28, 0
3, 34522, Note_on_c, 1, 40, 0
3, 34558, Note_on_c, 1, 30, 64
3, 34560, Note_on_c, 1, 42, 51
3, 34562, Note_on_c, 1, 44, 30
3, 34573, Note_on_c, 1, 44, 0
3, 34673, Note_on_c, 1, 46, 79
3, 34673, Note_on_c, 1, 49, 93
3, 34673, Note_on_c, 1, 54, 66
3, 34681, Note_on_c, 1, 42, 0
3, 34681, Note_on_c, 1, 30, 0
3, 34686, Note_on_c, 1, 54, 0
3, 34686, Note_on_c, 1, 46, 0
3, 34688, Note_on_c, 1, 49, 0
3, 34738, Note_on_c, 1, 42, 64
3, 34740, Note_on_c, 1, 30, 51
3, 34767, Note_on_c, 1, 42, 0
3, 34769, Note_on_c, 1, 30, 0
3, 34857, Note_on_c, 1, 42, 66
3, 34859, Note_on_c, 1, 30, 61
3, 34920, Note_on_c, 1, 30, 0
3, 34920, Note_on_c, 1, 54, 79
3, 34921, Note_on_c, 1, 49, 66
3, 34921, Note_on_c, 1, 46, 72
3, 34922, Note_on_c, 1, 42, 0
3, 34934, Note_on_c, 1, 54, 0
3, 34934, Note_on_c, 1, 49, 0
3, 34934, Note_on_c, 1, 46, 0
3, 34981, Note_on_c, 1, 28, 39
3, 35000, Note_on_c, 1, 28, 0
3, 35043, Note_on_c, 1, 30, 35
3, 35162, Note_on_c, 1, 42, 64
3, 35162, Note_on_c, 1, 49, 43
3, 35162, Note_on_c, 1, 46, 58
3, 35165, Note_on_c, 1, 54, 55
3, 35175, Note_on_c, 1, 30, 0
3, 35178, Note_on_c, 1, 46, 0
3, 35178, Note_on_c, 1, 49, 0
3, 35179, Note_on_c, 1, 42, 0
3, 35179, Note_on_c, 1, 54, 0
3, 35224, Note_on_c, 1, 30, 74
3, 35252, Note_on_c, 1, 30, 0
3, 35338, Note_on_c, 1, 42, 84
3, 35399, Note_on_c, 1, 42, 0
3, 35399, Note_on_c, 1, 49, 74
3, 35399, Note_on_c, 1, 46, 79
3, 35399, Note_on_c, 1, 54, 79
3, 35413, Note_on_c, 1, 49, 0
3, 35414, Note_on_c, 1, 46, 0
3, 35416, Note_on_c, 1, 54, 0
3, 35458, Note_on_c, 1, 33, 72
3, 35474, Note_on_c, 1, 33, 0
3, 35516, Note_on_c, 1, 35, 89
3, 35640, Note_on_c, 1, 51, 79
3, 35641, Note_on_c, 1, 54, 74
3, 35642, Note_on_c, 1, 35, 0
3, 35642, Note_on_c, 1, 47, 66
3, 35655, Note_on_c, 1, 47, 0
3, 35656, Note_on_c, 1, 54, 0
3, 35656, Note_on_c, 1, 51, 0
3, 35703, Note_on_c, 1, 37, 84
3, 35729, Note_on_c, 1, 37, 0
3, 35813, Note_on_c, 1, 37, 69
3, 35829, Control_c, 1, 64, 127
3, 35863, Control_c, 1, 64, 0
3, 35880, Note_on_c, 1, 49, 74
3, 35881, Note_on_c, 1, 53, 89
3, 35881, Note_on_c, 1, 56, 74
3, 35883, Note_on_c, 1, 37, 0
3, 35893, Note_on_c, 1, 49, 0
3, 35893, Note_on_c, 1, 53, 0
3, 35893, Note_on_c, 1, 56, 0
3, 35944, Note_on_c, 1, 28, 64
3, 35944, Note_on_c, 1, 40, 35
3, 35959, Note_on_c, 1, 28, 0
3, 35961, Note_on_c, 1, 40, 0
3, 36004, Note_on_c, 1, 42, 66
3, 36005, Note_on_c, 1, 30, 69
3, 36116, Note_on_c, 1, 42, 0
3, 36119, Note_on_c, 1, 30, 0
3, 36121, Note_on_c, 1, 54, 58
3, 36121, Note_on_c, 1, 49, 79
3, 36121, Note_on_c, 1, 46, 72
3, 36137, Note_on_c, 1, 46, 0
3, 36137, Note_on_c, 1, 49, 0
3, 36137, Note_on_c, 1, 54, 0
3, 36181, Note_on_c, 1, 42, 55
3, 36181, Note_on_c, 1, 30, 55
3, 36201, Note_on_c, 1, 42, 0
3, 36206, Note_on_c, 1, 30, 0
3, 36300, Note_on_c, 1, 42, 66
3, 36300, Note_on_c, 1, 30, 72
3, 36355, Note_on_c, 1, 30, 0
3, 36359, Note_on_c, 1, 42, 0
3, 36362, Note_on_c, 1, 54, 84
3, 36363, Note_on_c, 1, 49, 74
3, 36363, Note_on_c, 1, 46, 74
3, 36376, Note_on_c, 1, 46, 0
3, 36376, Note_on_c, 1, 49, 0
3, 36377, Note_on_c, 1, 54, 0
3, 36421, Note_on_c, 1, 28, 58
3, 36421, Note_on_c, 1, 40, 66
3, 36440, Note_on_c, 1, 28, 0
3, 36444, Note_on_c, 1, 40, 0
3, 36480, Note_on_c, 1, 42, 79
3, 36481, Note_on_c, 1, 30, 66
3, 36596, Note_on_c, 1, 42, 0
3, 36599, Note_on_c, 1, 54, 74
3, 36600, Note_on_c, 1, 30, 0
3, 36600, Note_on_c, 1, 46, 72
3, 36600, Note_on_c, 1, 49, 64
3, 36613, Note_on_c, 1, 46, 0
3, 36614, Note_on_c, 1, 49, 0
3, 36615, Note_on_c, 1, 54, 0
3, 36658, Note_on_c, 1, 42, 66
3, 36659, Note_on_c, 1, 30, 74
3, 36677, Note_on_c, 1, 42, 0
3, 36679, Note_on_c, 1, 30, 0
3, 36779, Note_on_c, 1, 42, 61
3, 36779, Note_on_c, 1, 30, 51
3, 36841, Note_on_c, 1, 42, 0
3, 36842, Note_on_c, 1, 30, 0
3, 36844, Note_on_c, 1, 49, 79
3, 36845, Note_on_c, 1, 54, 74
3, 36845, Note_on_c, 1, 46, 79
3, 36860, Note_on_c, 1, 46, 0
3, 36860, Note_on_c, 1, 54, 0
3, 36860, Note_on_c, 1, 49, 0
3, 36899, Note_on_c, 1, 33, 69
3, 36915, Note_on_c, 1, 33, 0
3, 36960, Note_on_c, 1, 35, 66
3, 37079, Note_on_c, 1, 54, 72
3, 37080, Note_on_c, 1, 35, 0
3, 37080, Note_on_c, 1, 51, 77
3, 37080, Note_on_c, 1, 47, 79
3, 37096, Note_on_c, 1, 54, 0
3, 37097, Note_on_c, 1, 47, 0
3, 37097, Note_on_c, 1, 51, 0
3, 37137, Note_on_c, 1, 35, 79
3, 37159, Note_on_c, 1, 35, 0
3, 37259, Note_on_c, 1, 35, 89
3, 37316, Note_on_c, 1, 35, 0
3, 37320, Note_on_c, 1, 51, 66
3, 37320, Note_on_c, 1, 47, 66
3, 37321, Note_on_c, 1, 54, 77
3, 37336, Note_on_c, 1, 54, 0
3, 37336, Note_on_c, 1, 47, 0
3, 37336, Note_on_c, 1, 51, 0
3, 37379, Note_on_c, 1, 33, 61
3, 37397, Note_on_c, 1, 33, 0
3, 37404, Note_on_c, 1, 34, 69
3, 37423, Note_on_c, 1, 34, 0
3, 37438, Note_on_c, 1, 35, 79
3, 37558, Note_on_c, 1, 35, 0
3, 37559, Note_on_c, 1, 54, 102
3, 37559, Note_on_c, 1, 51, 89
3, 37559, Note_on_c, 1, 47, 84
3, 37575, Note_on_c, 1, 47, 0
3, 37575, Note_on_c, 1, 51, 0
3, 37577, Note_on_c, 1, 54, 0
3, 37615, Note_on_c, 1, 37, 77
3, 37640, Note_on_c, 1, 37, 0
3, 37731, Note_on_c, 1, 37, 84
3, 37798, Note_on_c, 1, 37, 0
3, 37798, Note_on_c, 1, 56, 89
3, 37799, Note_on_c, 1, 53, 89
3, 37799, Note_on_c, 1, 49, 81
3, 37812, Note_on_c, 1, 49, 0
3, 37812, Note_on_c, 1, 53, 0
3, 37812, Note_on_c, 1, 56, 0
3, 37859, Note_on_c, 1, 28, 77
3, 37859, Note_on_c, 1, 40, 48
3, 37877, Note_on_c, 1, 28, 0
3, 37880, Note_on_c, 1, 40, 0
3, 37920, Note_on_c, 1, 42, 64
3, 37921, Note_on_c, 1, 30, 55
3, 38035, Note_on_c, 1, 30, 0
3, 38037, Note_on_c, 1, 49, 64
3, 38037, Note_on_c, 1, 46, 66
3, 38037, Note_on_c, 1, 54, 84
3, 38038, Note_on_c, 1, 42, 0
3, 38049, Note_on_c, 1, 49, 0
3, 38051, Note_on_c, 1, 46, 0
3, 38052, Note_on_c, 1, 54, 0
3, 38098, Note_on_c, 1, 42, 64
3, 38098, Note_on_c, 1, 30, 55
3, 38122, Note_on_c, 1, 30, 0
3, 38122, Note_on_c, 1, 42, 0
3, 38218, Note_on_c, 1, 30, 55
3, 38218, Note_on_c, 1, 42, 66
3, 38276, Note_on_c, 1, 42, 0
3, 38277, Note_on_c, 1, 30, 0
3, 38282, Note_on_c, 1, 46, 72
3, 38282, Note_on_c, 1, 49, 72
3, 38283, Note_on_c, 1, 54, 66
3, 38297, Note_on_c, 1, 54, 0
3, 38297, Note_on_c, 1, 49, 0
3, 38297, Note_on_c, 1, 46, 0
3, 38339, Note_on_c, 1, 28, 66
3, 38340, Note_on_c, 1, 40, 58
3, 38358, Note_on_c, 1, 28, 0
3, 38359, Note_on_c, 1, 40, 0
3, 38399, Note_on_c, 1, 42, 69
3, 38399, Note_on_c, 1, 30, 79
3, 38513, Note_on_c, 1, 30, 0
3, 38517, Note_on_c, 1, 42, 0
3, 38522, Note_on_c, 1, 49, 74
3, 38522, Note_on_c, 1, 54, 79
3, 38522, Note_on_c, 1, 46, 74
3, 38537, Note_on_c, 1, 46, 0
3, 38538, Note_on_c, 1, 54, 0
3, 38538, Note_on_c, 1, 49, 0
3, 38578, Note_on_c, 1, 30, 64
3, 38578, Note_on_c, 1, 42, 64
3, 38599, Note_on_c, 1, 42, 0
3, 38599, Note_on_c, 1, 30, 0
3, 38691, Control_c, 1, 64, 127
3, 38700, Note_on_c, 1, 49, 64
3, 38700, Note_on_c, 1, 46, 64
3, 38701, Note_on_c, 1, 54, 58
3, 38717, Note_on_c, 1, 46, 0
3, 38717, Note_on_c, 1, 49, 0
3, 38718, Note_on_c, 1, 54, 0
3, 38762, Note_on_c, 1, 49, 72
3, 38762, Note_on_c, 1, 46, 74
3, 38762, Note_on_c, 1, 54, 77
3, 38772, Control_c, 1, 64, 0
3, 38774, Note_on_c, 1, 54, 0
3, 38774, Note_on_c, 1, 46, 0
3, 38774, Note_on_c, 1, 49, 0
3, 38822, Note_on_c, 1, 33, 89
3, 38837, Note_on_c, 1, 33, 0
3, 38883, Note_on_c, 1, 37, 69
3, 38996, Note_on_c, 1, 37, 0
3, 39000, Note_on_c, 1, 53, 74
3, 39000, Note_on_c, 1, 49, 69
3, 39000, Note_on_c, 1, 56, 74
3, 39015, Note_on_c, 1, 56, 0
3, 39015, Note_on_c, 1, 49, 0
3, 39015, Note_on_c, 1, 53, 0
3, 39060, Note_on_c, 1, 37, 77
3, 39086, Note_on_c, 1, 37, 0
3, 39174, Note_on_c, 1, 37, 58
3, 39238, Note_on_c, 1, 37, 0
3, 39238, Note_on_c, 1, 53, 72
3, 39239, Note_on_c, 1, 49, 84
3, 39239, Note_on_c, 1, 56, 72
3, 39252, Note_on_c, 1, 53, 0
3, 39253, Note_on_c, 1, 56, 0
3, 39253, Note_on_c, 1, 49, 0
3, 39297, Note_on_c, 1, 33, 77
3, 39313, Note_on_c, 1, 33, 0
3, 39356, Note_on_c, 1, 35, 89
3, 39466, Note_on_c, 1, 35, 0
3, 39483, Note_on_c, 1, 54, 77
3, 39483, Note_on_c, 1, 51, 74
3, 39484, Note_on_c, 1, 47, 66
3, 39497, Note_on_c, 1, 47, 0
3, 39499, Note_on_c, 1, 51, 0
3, 39499, Note_on_c, 1, 54, 0
3, 39539, Note_on_c, 1, 35, 84
3, 39557, Note_on_c, 1, 35, 0
3, 39657, Note_on_c, 1, 35, 74
3, 39708, Note_on_c, 1, 35, 0
3, 39717, Note_on_c, 1, 51, 84
3, 39718, Note_on_c, 1, 54, 77
3, 39719, Note_on_c, 1, 47, 61
3, 39733, Note_on_c, 1, 51, 0
3, 39735, Note_on_c, 1, 47, 0
3, 39735, Note_on_c, 1, 54, 0
3, 39775, Note_on_c, 1, 28, 39
3, 39777, Note_on_c, 1, 40, 48
3, 39796, Note_on_c, 1, 28, 0
3, 39797, Note_on_c, 1, 40, 0
3, 39834, Note_on_c, 1, 42, 61
3, 39834, Note_on_c, 1, 30, 69
3, 39948, Note_on_c, 1, 30, 0
3, 39949, Note_on_c, 1, 42, 0
3, 39958, Note_on_c, 1, 49, 69
3, 39958, Note_on_c, 1, 54, 74
3, 39958, Note_on_c, 1, 46, 69
3, 39973, Note_on_c, 1, 46, 0
3, 39973, Note_on_c, 1, 49, 0
3, 39974, Note_on_c, 1, 54, 0
3, 40018, Note_on_c, 1, 42, 74
3, 40020, Note_on_c, 1, 30, 55
3, 40043, Note_on_c, 1, 30, 0
3, 40043, Note_on_c, 1, 42, 0
3, 40139, Note_on_c, 1, 42, 64
3, 40140, Note_on_c, 1, 30, 66
3, 40201, Note_on_c, 1, 42, 0
3, 40202, Note_on_c, 1, 49, 74
3, 40203, Note_on_c, 1, 46, 69
3, 40203, Note_on_c, 1, 54, 74
3, 40204, Note_on_c, 1, 30, 0
3, 40216, Note_on_c, 1, 49, 0
3, 40216, Note_on_c, 1, 46, 0
3, 40216, Note_on_c, 1, 54, 0
3, 40265, Note_on_c, 1, 40, 48
3, 40265, Note_on_c, 1, 28, 55
3, 40280, Note_on_c, 1, 28, 0
3, 40283, Note_on_c, 1, 40, 0
3, 40322, Note_on_c, 1, 30, 66
3, 40322, Note_on_c, 1, 42, 58
3, 40437, Note_on_c, 1, 30, 0
3, 40440, Note_on_c, 1, 42, 0
3, 40440, Note_on_c, 1, 46, 58
3, 40440, Note_on_c, 1, 54, 64
3, 40440, Note_on_c, 1, 49, 66
3, 40456, Note_on_c, 1, 46, 0
3, 40457, Note_on_c, 1, 49, 0
3, 40457, Note_on_c, 1, 54, 0
3, 40499, Note_on_c, 1, 42, 96
3, 40502, Note_on_c, 1, 30, 64
3, 40517, Note_on_c, 1, 42, 0
3, 40521, Note_on_c, 1, 30, 0
3, 40619, Note_on_c, 1, 42, 74
3, 40621, Note_on_c, 1, 30, 64
3, 40677, Note_on_c, 1, 42, 0
3, 40682, Note_on_c, 1, 30, 0
3, 40682, Note_on_c, 1, 49, 74
3, 40683, Note_on_c, 1, 46, 66
3, 40683, Note_on_c, 1, 54, 69
3, 40697, Note_on_c, 1, 46, 0
3, 40697, Note_on_c, 1, 49, 0
3, 40698, Note_on_c, 1, 54, 0
3, 40739, Note_on_c, 1, 28, 72
3, 40739, Note_on_c, 1, 40, 39
3, 40760, Note_on_c, 1, 28, 0
3, 40761, Note_on_c, 1, 40, 0
3, 40801, Note_on_c, 1, 30, 69
3, 40804, Note_on_c, 1, 42, 74
3, 40914, Note_on_c, 1, 42, 0
3, 40914, Note_on_c, 1, 30, 0
3, 40921, Note_on_c, 1, 49, 69
3, 40922, Note_on_c, 1, 46, 66
3, 40922, Note_on_c, 1, 54, 64
3, 40936, Note_on_c, 1, 46, 0
3, 40937, Note_on_c, 1, 54, 0
3, 40937, Note_on_c, 1, 49, 0
3, 40978, Note_on_c, 1, 30, 64
3, 40978, Note_on_c, 1, 42, 74
3, 40998, Note_on_c, 1, 42, 0
3, 40998, Note_on_c, 1, 30, 0
3, 41099, Note_on_c, 1, 30, 58
3, 41099, Note_on_c, 1, 42, 74
3, 41161, Note_on_c, 1, 30, 0
3, 41162, Note_on_c, 1, 42, 0
3, 41164, Note_on_c, 1, 49, 74
3, 41164, Note_on_c, 1, 54, 79
3, 41165, Note_on_c, 1, 46, 61
3, 41179, Note_on_c, 1, 46, 0
3, 41180, Note_on_c, 1, 54, 0
3, 41180, Note_on_c, 1, 49, 0
3, 41233, Note_on_c, 1, 33, 51
3, 41244, Note_on_c, 1, 33, 0
3, 41279, Note_on_c, 1, 35, 93
3, 41395, Note_on_c, 1, 35, 0
3, 41397, Note_on_c, 1, 54, 72
3, 41398, Note_on_c, 1, 47, 72
3, 41398, Note_on_c, 1, 51, 66
3, 41411, Note_on_c, 1, 51, 0
3, 41411, Note_on_c, 1, 47, 0
3, 41413, Note_on_c, 1, 54, 0
3, 41462, Note_on_c, 1, 37, 86
3, 41490, Note_on_c, 1, 37, 0
3, 41534, Control_c, 1, 64, 127
3, 41579, Note_on_c, 1, 56, 64
3, 41580, Note_on_c, 1, 53, 66
3, 41580, Note_on_c, 1, 49, 58
3, 41594, Note_on_c, 1, 53, 0
3, 41594, Note_on_c, 1, 56, 0
3, 41595, Note_on_c, 1, 49, 0
3, 41643, Note_on_c, 1, 53, 79
3, 41643, Note_on_c, 1, 56, 89
3, 41643, Note_on_c, 1, 49, 72
3, 41655, Note_on_c, 1, 49, 0
3, 41655, Note_on_c, 1, 56, 0
3, 41655, Note_on_c, 1, 53, 0
3, 41657, Control_c, 1, 64, 0
3, 41699, Note_on_c, 1, 28, 64
3, 41700, Note_on_c, 1, 40, 48
3, 41717, Note_on_c, 1, 28, 0
3, 41721, Note_on_c, 1, 40, 0
3, 41763, Note_on_c, 1, 30, 64
3, 41763, Note_on_c, 1, 42, 72
3, 41876, Note_on_c, 1, 42, 0
3, 41876, Note_on_c, 1, 30, 0
3, 41877, Note_on_c, 1, 49, 84
3, 41877, Note_on_c, 1, 54, 84
3, 41878, Note_on_c, 1, 46, 64
3, 41891, Note_on_c, 1, 46, 0
3, 41891, Note_on_c, 1, 54, 0
3, 41891, Note_on_c, 1, 49, 0
3, 41938, Note_on_c, 1, 42, 55
3, 41940, Note_on_c, 1, 30, 48
3, 41960, Note_on_c, 1, 42, 0
3, 41963, Note_on_c, 1, 30, 0
3, 42057, Note_on_c, 1, 42, 66
3, 42058, Note_on_c, 1, 30, 55
3, 42116, Note_on_c, 1, 30, 0
3, 42116, Note_on_c, 1, 42, 0
3, 42119, Note_on_c, 1, 54, 74
3, 42119, Note_on_c, 1, 49, 66
3, 42120, Note_on_c, 1, 46, 72
3, 42133, Note_on_c, 1, 49, 0
3, 42134, Note_on_c, 1, 46, 0
3, 42135, Note_on_c, 1, 54, 0
3, 42187, Note_on_c, 1, 28, 43
3, 42199, Note_on_c, 1, 28, 0
3, 42244, Note_on_c, 1, 30, 96
3, 42367, Note_on_c, 1, 42, 77
3, 42369, Note_on_c, 1, 49, 69
3, 42369, Note_on_c, 1, 54, 74
3, 42370, Note_on_c, 1, 46, 66
3, 42380, Note_on_c, 1, 30, 0
3, 42383, Note_on_c, 1, 46, 0
3, 42384, Note_on_c, 1, 42, 0
3, 42384, Note_on_c, 1, 49, 0
3, 42387, Note_on_c, 1, 54, 0
3, 42423, Note_on_c, 1, 30, 72
3, 42451, Note_on_c, 1, 30, 0
3, 42538, Note_on_c, 1, 42, 79
3, 42600, Note_on_c, 1, 54, 79
3, 42600, Note_on_c, 1, 49, 64
3, 42600, Note_on_c, 1, 46, 69
3, 42602, Note_on_c, 1, 42, 0
3, 42614, Note_on_c, 1, 49, 0
3, 42616, Note_on_c, 1, 46, 0
3, 42617, Note_on_c, 1, 54, 0
3, 42659, Note_on_c, 1, 33, 96
3, 42676, Note_on_c, 1, 33, 0
3, 42722, Note_on_c, 1, 35, 96
3, 42834, Note_on_c, 1, 35, 0
3, 42839, Note_on_c, 1, 54, 69
3, 42839, Note_on_c, 1, 51, 77
3, 42839, Note_on_c, 1, 47, 66
3, 42855, Note_on_c, 1, 47, 0
3, 42855, Note_on_c, 1, 51, 0
3, 42855, Note_on_c, 1, 54, 0
3, 42903, Note_on_c, 1, 35, 84
3, 42920, Note_on_c, 1, 35, 0
3, 43018, Note_on_c, 1, 35, 58
3, 43078, Note_on_c, 1, 35, 0
3, 43081, Note_on_c, 1, 51, 77
3, 43082, Note_on_c, 1, 47, 58
3, 43082, Note_on_c, 1, 54, 72
3, 43096, Note_on_c, 1, 54, 0
3, 43097, Note_on_c, 1, 47, 0
3, 43097, Note_on_c, 1, 51, 0
3, 43139, Note_on_c, 1, 33, 51
3, 43161, Note_on_c, 1, 33, 0
3, 43169, Note_on_c, 1, 34, 61
3, 43189, Note_on_c, 1, 34, 0
3, 43200, Note_on_c, 1, 35, 79
3, 43312, Note_on_c, 1, 35, 0
3, 43317, Note_on_c, 1, 51, 72
3, 43318, Note_on_c, 1, 47, 61
3, 43318, Note_on_c, 1, 54, 69
3, 43332, Note_on_c, 1, 54, 0
3, 43332, Note_on_c, 1, 47, 0
3, 43332, Note_on_c, 1, 51, 0
3, 43380, Note_on_c, 1, 37, 81
3, 43402, Note_on_c, 1, 37, 0
3, 43464, Control_c, 1, 64, 127
3, 43496, Note_on_c, 1, 56, 55
3, 43497, Note_on_c, 1, 53, 61
3, 43498, Note_on_c, 1, 49, 39
3, 43513, Note_on_c, 1, 49, 0
3, 43513, Note_on_c, 1, 53, 0
3, 43513, Note_on_c, 1, 56, 0
3, 43560, Note_on_c, 1, 53, 66
3, 43561, Note_on_c, 1, 49, 64
3, 43561, Note_on_c, 1, 56, 66
3, 43562, Control_c, 1, 64, 0
3, 43573, Note_on_c, 1, 56, 0
3, 43573, Note_on_c, 1, 53, 0
3, 43574, Note_on_c, 1, 49, 0
3, 43617, Note_on_c, 1, 28, 72
3, 43618, Note_on_c, 1, 40, 26
3, 43636, Note_on_c, 1, 28, 0
3, 43639, Note_on_c, 1, 40, 0
3, 43680, Note_on_c, 1, 30, 84
3, 43680, Note_on_c, 1, 42, 79
3, 43788, Note_on_c, 1, 30, 0
3, 43791, Note_on_c, 1, 42, 0
3, 43794, Note_on_c, 1, 49, 79
3, 43794, Note_on_c, 1, 54, 89
3, 43795, Note_on_c, 1, 46, 79
3, 43810, Note_on_c, 1, 49, 0
3, 43811, Note_on_c, 1, 46, 0
3, 43812, Note_on_c, 1, 54, 0
3, 43857, Note_on_c, 1, 42, 51
3, 43866, Note_on_c, 1, 30, 14
3, 43874, Note_on_c, 1, 30, 0
3, 43891, Note_on_c, 1, 42, 0
3, 43986, Note_on_c, 1, 42, 102
3, 44042, Note_on_c, 1, 42, 0
3, 44042, Note_on_c, 1, 49, 66
3, 44042, Note_on_c, 1, 54, 74
3, 44042, Note_on_c, 1, 46, 58
3, 44056, Note_on_c, 1, 46, 0
3, 44057, Note_on_c, 1, 54, 0
3, 44057, Note_on_c, 1, 49, 0
3, 44102, Note_on_c, 1, 28, 72
3, 44119, Note_on_c, 1, 28, 0
3, 44159, Note_on_c, 1, 30, 111
3, 44278, Note_on_c, 1, 49, 72
3, 44278, Note_on_c, 1, 46, 79
3, 44279, Note_on_c, 1, 54, 77
3, 44281, Note_on_c, 1, 30, 0
3, 44291, Note_on_c, 1, 46, 0
3, 44294, Note_on_c, 1, 54, 0
3, 44295, Note_on_c, 1, 49, 0
3, 44342, Note_on_c, 1, 42, 114
3, 44360, Note_on_c, 1, 42, 0
3, 44457, Note_on_c, 1, 42, 72
3, 44518, Note_on_c, 1, 49, 79
3, 44518, Note_on_c, 1, 46, 72
3, 44519, Note_on_c, 1, 54, 79
3, 44524, Note_on_c, 1, 42, 0
3, 44535, Note_on_c, 1, 46, 0
3, 44536, Note_on_c, 1, 49, 0
3, 44536, Note_on_c, 1, 54, 0
3, 44575, Note_on_c, 1, 33, 84
3, 44594, Note_on_c, 1, 33, 0
3, 44634, Note_on_c, 1, 37, 96
3, 44753, Note_on_c, 1, 37, 0
3, 44754, Note_on_c, 1, 56, 79
3, 44754, Note_on_c, 1, 49, 72
3, 44755, Note_on_c, 1, 53, 79
3, 44769, Note_on_c, 1, 53, 0
3, 44769, Note_on_c, 1, 49, 0
3, 44770, Note_on_c, 1, 56, 0
3, 44817, Note_on_c, 1, 37, 69
3, 44838, Note_on_c, 1, 37, 0
3, 44935, Note_on_c, 1, 37, 69
3, 45000, Note_on_c, 1, 56, 74
3, 45000, Note_on_c, 1, 53, 72
3, 45000, Note_on_c, 1, 49, 58
3, 45003, Note_on_c, 1, 37, 0
3, 45017, Note_on_c, 1, 49, 0
3, 45017, Note_on_c, 1, 53, 0
3, 45018, Note_on_c, 1, 56, 0
3, 45058, Note_on_c, 1, 33, 89
3, 45073, Note_on_c, 1, 33, 0
3, 45117, Note_on_c, 1, 35, 79
3, 45236, Note_on_c, 1, 35, 0
3, 45240, Note_on_c, 1, 51, 64
3, 45241, Note_on_c, 1, 47, 69
3, 45241, Note_on_c, 1, 54, 74
3, 45257, Note_on_c, 1, 54, 0
3, 45257, Note_on_c, 1, 47, 0
3, 45257, Note_on_c, 1, 51, 0
3, 45299, Note_on_c, 1, 35, 72
3, 45325, Note_on_c, 1, 35, 0
3, 45418, Note_on_c, 1, 35, 58
3, 45475, Note_on_c, 1, 35, 0
3, 45481, Note_on_c, 1, 47, 64
3, 45481, Note_on_c, 1, 51, 66
3, 45482, Note_on_c, 1, 54, 79
3, 45497, Note_on_c, 1, 54, 0
3, 45499, Note_on_c, 1, 51, 0
3, 45499, Note_on_c, 1, 47, 0
3, 45534, Note_on_c, 1, 40, 39
3, 45535, Note_on_c, 1, 28, 39
3, 45561, Note_on_c, 1, 40, 0
3, 45563, Note_on_c, 1, 28, 0
3, 45597, Note_on_c, 1, 30, 58
3, 45598, Note_on_c, 1, 42, 48
3, 45722, Note_on_c, 1, 30, 0
3, 45723, Note_on_c, 1, 42, 0
3, 45725, Note_on_c, 1, 49, 69
3, 45725, Note_on_c, 1, 46, 64
3, 45725, Note_on_c, 1, 54, 69
3, 45737, Note_on_c, 1, 46, 0
3, 45737, Note_on_c, 1, 49, 0
3, 45739, Note_on_c, 1, 54, 0
3, 45782, Note_on_c, 1, 30, 58
3, 45782, Note_on_c, 1, 42, 74
3, 45805, Note_on_c, 1, 42, 0
3, 45806, Note_on_c, 1, 30, 0
3, 45903, Note_on_c, 1, 42, 69
3, 45904, Note_on_c, 1, 30, 58
3, 45953, Note_on_c, 1, 42, 0
3, 45955, Note_on_c, 1, 30, 0
3, 45962, Note_on_c, 1, 46, 79
3, 45962, Note_on_c, 1, 49, 64
3, 45963, Note_on_c, 1, 54, 64
3, 45975, Note_on_c, 1, 54, 0
3, 45976, Note_on_c, 1, 49, 0
3, 45976, Note_on_c, 1, 46, 0
3, 46019, Note_on_c, 1, 40, 51
3, 46020, Note_on_c, 1, 28, 66
3, 46037, Note_on_c, 1, 28, 0
3, 46038, Note_on_c, 1, 40, 0
3, 46082, Note_on_c, 1, 42, 64
3, 46082, Note_on_c, 1, 30, 66
3, 46193, Note_on_c, 1, 30, 0
3, 46193, Note_on_c, 1, 42, 0
3, 46200, Note_on_c, 1, 46, 61
3, 46200, Note_on_c, 1, 54, 72
3, 46200, Note_on_c, 1, 49, 79
3, 46214, Note_on_c, 1, 46, 0
3, 46215, Note_on_c, 1, 49, 0
3, 46215, Note_on_c, 1, 54, 0
3, 46261, Note_on_c, 1, 42, 58
3, 46262, Note_on_c, 1, 30, 43
3, 46285, Note_on_c, 1, 30, 0
3, 46285, Note_on_c, 1, 42, 0
3, 46379, Note_on_c, 1, 42, 61
3, 46379, Note_on_c, 1, 30, 66
3, 46432, Note_on_c, 1, 42, 0
3, 46435, Note_on_c, 1, 30, 0
3, 46439, Note_on_c, 1, 54, 69
3, 46439, Note_on_c, 1, 49, 79
3, 46440, Note_on_c, 1, 46, 58
3, 46452, Note_on_c, 1, 46, 0
3, 46452, Note_on_c, 1, 49, 0
3, 46454, Note_on_c, 1, 54, 0
3, 46496, Note_on_c, 1, 28, 51
3, 46498, Note_on_c, 1, 40, 26
3, 46516, Note_on_c, 1, 28, 0
3, 46517, Note_on_c, 1, 40, 0
3, 46559, Note_on_c, 1, 42, 61
3, 46560, Note_on_c, 1, 30, 69
3, 46668, Note_on_c, 1, 30, 0
3, 46672, Note_on_c, 1, 42, 0
3, 46674, Note_on_c, 1, 49, 66
3, 46674, Note_on_c, 1, 46, 72
3, 46675, Note_on_c, 1, 54, 69
3, 46687, Note_on_c, 1, 49, 0
3, 46688, Note_on_c, 1, 54, 0
3, 46688, Note_on_c, 1, 46, 0
3, 46737, Note_on_c, 1, 42, 64
3, 46739, Note_on_c, 1, 30, 58
3, 46759, Note_on_c, 1, 42, 0
3, 46760, Note_on_c, 1, 30, 0
3, 46860, Note_on_c, 1, 42, 58
3, 46862, Note_on_c, 1, 30, 55
3, 46911, Note_on_c, 1, 42, 0
3, 46921, Note_on_c, 1, 30, 0
3, 46922, Note_on_c, 1, 49, 64
3, 46922, Note_on_c, 1, 54, 74
3, 46923, Note_on_c, 1, 46, 58
3, 46938, Note_on_c, 1, 46, 0
3, 46938, Note_on_c, 1, 49, 0
3, 46940, Note_on_c, 1, 54, 0
3, 46976, Note_on_c, 1, 33, 64
3, 46994, Note_on_c, 1, 33, 0
3, 47039, Note_on_c, 1, 35, 84
3, 47152, Note_on_c, 1, 35, 0
3, 47157, Note_on_c, 1, 51, 66
3, 47157, Note_on_c, 1, 54, 66
3, 47158, Note_on_c, 1, 47, 64
3, 47172, Note_on_c, 1, 47, 0
3, 47173, Note_on_c, 1, 54, 0
3, 47174, Note_on_c, 1, 51, 0
3, 47219, Note_on_c, 1, 37, 69
3, 47245, Note_on_c, 1, 37, 0
3, 47339, Note_on_c, 1, 37, 74
3, 47398, Note_on_c, 1, 53, 72
3, 47399, Note_on_c, 1, 56, 69
3, 47399, Note_on_c, 1, 49, 64
3, 47401, Note_on_c, 1, 37, 0
3, 47414, Note_on_c, 1, 53, 0
3, 47414, Note_on_c, 1, 56, 0
3, 47415, Note_on_c, 1, 49, 0
3, 47459, Note_on_c, 1, 28, 48
3, 47461, Note_on_c, 1, 40, 30
3, 47481, Note_on_c, 1, 28, 0
3, 47482, Note_on_c, 1, 40, 0
3, 47521, Note_on_c, 1, 30, 72
3, 47522, Note_on_c, 1, 42, 64
3, 47632, Note_on_c, 1, 42, 0
3, 47632, Note_on_c, 1, 30, 0
3, 47642, Note_on_c, 1, 46, 66
3, 47642, Note_on_c, 1, 54, 61
3, 47642, Note_on_c, 1, 49, 72
3, 47655, Note_on_c, 1, 46, 0
3, 47658, Note_on_c, 1, 49, 0
3, 47658, Note_on_c, 1, 54, 0
3, 47700, Note_on_c, 1, 42, 55
3, 47726, Note_on_c, 1, 42, 0
3, 47823, Note_on_c, 1, 42, 77
3, 47876, Note_on_c, 1, 42, 0
3, 47879, Note_on_c, 1, 49, 74
3, 47880, Note_on_c, 1, 54, 77
3, 47880, Note_on_c, 1, 46, 64
3, 47897, Note_on_c, 1, 46, 0
3, 47898, Note_on_c, 1, 49, 0
3, 47900, Note_on_c, 1, 54, 0
3, 47936, Note_on_c, 1, 28, 58
3, 47957, Note_on_c, 1, 28, 0
3, 48001, Note_on_c, 1, 30, 96
3, 48118, Note_on_c, 1, 30, 0
3, 48120, Note_on_c, 1, 54, 77
3, 48120, Note_on_c, 1, 49, 66
3, 48121, Note_on_c, 1, 46, 58
3, 48132, Note_on_c, 1, 46, 0
3, 48134, Note_on_c, 1, 49, 0
3, 48135, Note_on_c, 1, 54, 0
3, 48181, Note_on_c, 1, 42, 79
3, 48200, Note_on_c, 1, 42, 0
3, 48298, Note_on_c, 1, 42, 77
3, 48360, Note_on_c, 1, 49, 79
3, 48361, Note_on_c, 1, 54, 77
3, 48361, Note_on_c, 1, 46, 72
3, 48363, Note_on_c, 1, 42, 0
3, 48376, Note_on_c, 1, 46, 0
3, 48377, Note_on_c, 1, 49, 0
3, 48378, Note_on_c, 1, 54, 0
3, 48420, Note_on_c, 1, 33, 84
3, 48439, Note_on_c, 1, 33, 0
3, 48482, Note_on_c, 1, 35, 77
3, 48592, Note_on_c, 1, 35, 0
3, 48600, Note_on_c, 1, 51, 72
3, 48600, Note_on_c, 1, 47, 72
3, 48600, Note_on_c, 1, 54, 74
3, 48616, Note_on_c, 1, 47, 0
3, 48616, Note_on_c, 1, 51, 0
3, 48617, Note_on_c, 1, 54, 0
3, 48664, Note_on_c, 1, 35, 74
3, 48682, Note_on_c, 1, 35, 0
3, 48780, Note_on_c, 1, 35, 79
3, 48833, Note_on_c, 1, 35, 0
3, 48842, Note_on_c, 1, 51, 66
3, 48842, Note_on_c, 1, 47, 69
3, 48842, Note_on_c, 1, 54, 79
3, 48857, Note_on_c, 1, 54, 0
3, 48858, Note_on_c, 1, 47, 0
3, 48858, Note_on_c, 1, 51, 0
3, 48901, Note_on_c, 1, 33, 55
3, 48922, Note_on_c, 1, 33, 0
3, 48928, Note_on_c, 1, 34, 61
3, 48945, Note_on_c, 1, 34, 0
3, 48958, Note_on_c, 1, 35, 77
3, 49076, Note_on_c, 1, 35, 0
3, 49082, Note_on_c, 1, 51, 84
3, 49082, Note_on_c, 1, 54, 84
3, 49083, Note_on_c, 1, 47, 72
3, 49096, Note_on_c, 1, 47, 0
3, 49096, Note_on_c, 1, 54, 0
3, 49096, Note_on_c, 1, 51, 0
3, 49139, Note_on_c, 1, 37, 74
3, 49165, Note_on_c, 1, 37, 0
3, 49210, Control_c, 1, 64, 127
3, 49260, Note_on_c, 1, 56, 55
3, 49260, Note_on_c, 1, 53, 64
3, 49260, Note_on_c, 1, 49, 58
3, 49273, Note_on_c, 1, 49, 0
3, 49274, Note_on_c, 1, 53, 0
3, 49274, Note_on_c, 1, 56, 0
3, 49321, Note_on_c, 1, 53, 69
3, 49322, Note_on_c, 1, 49, 64
3, 49322, Note_on_c, 1, 56, 79
3, 49334, Note_on_c, 1, 56, 0
3, 49335, Note_on_c, 1, 49, 0
3, 49335, Note_on_c, 1, 53, 0
3, 49336, Control_c, 1, 64, 0
3, 49381, Note_on_c, 1, 28, 58
3, 49381, Note_on_c, 1, 40, 51
3, 49400, Note_on_c, 1, 28, 0
3, 49402, Note_on_c, 1, 40, 0
3, 49442, Note_on_c, 1, 30, 74
3, 49444, Note_on_c, 1, 42, 79
3, 49545, Note_on_c, 1, 42, 0
3, 49550, Note_on_c, 1, 30, 0
3, 49558, Note_on_c, 1, 49, 66
3, 49559, Note_on_c, 1, 46, 58
3, 49559, Note_on_c, 1, 54, 69
3, 49576, Note_on_c, 1, 46, 0
3, 49576, Note_on_c, 1, 49, 0
3, 49577, Note_on_c, 1, 54, 0
3, 49617, Note_on_c, 1, 42, 55
3, 49619, Note_on_c, 1, 30, 35
3, 49635, Note_on_c, 1, 30, 0
3, 49635, Note_on_c, 1, 42, 0
3, 49736, Note_on_c, 1, 30, 55
3, 49737, Note_on_c, 1, 42, 64
3, 49795, Note_on_c, 1, 42, 0
3, 49800, Note_on_c, 1, 49, 58
3, 49800, Note_on_c, 1, 46, 64
3, 49800, Note_on_c, 1, 54, 74
3, 49802, Note_on_c, 1, 30, 0
3, 49813, Note_on_c, 1, 54, 0
3, 49814, Note_on_c, 1, 49, 0
3, 49815, Note_on_c, 1, 46, 0
3, 49862, Note_on_c, 1, 40, 30
3, 49863, Note_on_c, 1, 28, 58
3, 49880, Note_on_c, 1, 28, 0
3, 49885, Note_on_c, 1, 40, 0
3, 49921, Note_on_c, 1, 42, 64
3, 49922, Note_on_c, 1, 30, 69
3, 50045, Note_on_c, 1, 30, 0
3, 50048, Note_on_c, 1, 42, 0
3, 50048, Note_on_c, 1, 49, 84
3, 50050, Note_on_c, 1, 46, 55
3, 50050, Note_on_c, 1, 54, 72
3, 50062, Note_on_c, 1, 46, 0
3, 50063, Note_on_c, 1, 54, 0
3, 50063, Note_on_c, 1, 49, 0
3, 50103, Note_on_c, 1, 42, 74
3, 50123, Note_on_c, 1, 42, 0
3, 50223, Note_on_c, 1, 42, 69
3, 50283, Note_on_c, 1, 42, 0
3, 50284, Note_on_c, 1, 54, 69
3, 50284, Note_on_c, 1, 49, 64
3, 50284, Note_on_c, 1, 46, 61
3, 50299, Note_on_c, 1, 46, 0
3, 50299, Note_on_c, 1, 49, 0
3, 50301, Note_on_c, 1, 54, 0
3, 50339, Note_on_c, 1, 33, 55
3, 50354, Note_on_c, 1, 33, 0
3, 50399, Note_on_c, 1, 37, 84
3, 50405, Note_on_c, 1, 37, 77
3, 50510, Note_on_c, 1, 37, 0
3, 50522, Note_on_c, 1, 53, 79
3, 50522, Note_on_c, 1, 49, 58
3, 50523, Note_on_c, 1, 56, 74
3, 50526, Note_on_c, 1, 37, 0
3, 50552, Note_on_c, 1, 49, 0
3, 50554, Note_on_c, 1, 53, 0
3, 50556, Note_on_c, 1, 56, 0
3, 50580, Note_on_c, 1, 37, 55
3, 50615, Note_on_c, 1, 37, 0
3, 50704, Note_on_c, 1, 37, 72
3, 50760, Note_on_c, 1, 56, 96
3, 50761, Note_on_c, 1, 37, 0
3, 50761, Note_on_c, 1, 53, 84
3, 50762, Note_on_c, 1, 49, 72
3, 50806, Note_on_c, 1, 49, 0
3, 50806, Note_on_c, 1, 56, 0
3, 50810, Note_on_c, 1, 53, 0
3, 50820, Note_on_c, 1, 37, 69
3, 50865, Note_on_c, 1, 37, 0
3, 50884, Note_on_c, 1, 51, 102
3, 50885, Note_on_c, 1, 57, 84
3, 50885, Note_on_c, 1, 54, 84
3, 50885, Note_on_c, 1, 35, 127
3, 50886, Note_on_c, 1, 47, 61
3, 50931, Note_on_c, 1, 57, 0
3, 50933, Note_on_c, 1, 47, 0
3, 50934, Note_on_c, 1, 51, 0
3, 50935, Note_on_c, 1, 54, 0
3, 50935, Note_on_c, 1, 35, 0
3, 51407, Pitch_bend_c, 1, 8064
3, 51409, Pitch_bend_c, 1, 7808
3, 51411, Pitch_bend_c, 1, 7680
3, 51412, Pitch_bend_c, 1, 7424
3, 51414, Pitch_bend_c, 1, 7168
3, 51416, Pitch_bend_c, 1, 7040
3, 51418, Pitch_bend_c, 1, 6784
3, 51420, Pitch_bend_c, 1, 6528
3, 51422, Pitch_bend_c, 1, 6272
3, 51424, Pitch_bend_c, 1, 6016
3, 51425, Pitch_bend_c, 1, 5760
3, 51427, Pitch_bend_c, 1, 5504
3, 51430, Pitch_bend_c, 1, 5248
3, 51432, Pitch_bend_c, 1, 4992
3, 51434, Pitch_bend_c, 1, 4864
3, 51436, Pitch_bend_c, 1, 4608
3, 51437, Pitch_bend_c, 1, 4480
3, 51442, Pitch_bend_c, 1, 4224
3, 51444, Pitch_bend_c, 1, 4096
3, 51448, Pitch_bend_c, 1, 3840
3, 51453, Pitch_bend_c, 1, 3584
3, 51461, Pitch_bend_c, 1, 3328
3, 51467, Pitch_bend_c, 1, 3200
3, 51469, Pitch_bend_c, 1, 3072
3, 51476, Pitch_bend_c, 1, 2944
3, 51476, Note_on_c, 1, 61, 72
3, 51495, Pitch_bend_c, 1, 3968
3, 51496, Pitch_bend_c, 1, 4224
3, 51498, Pitch_bend_c, 1, 4608
3, 51500, Pitch_bend_c, 1, 4992
3, 51501, Pitch_bend_c, 1, 5376
3, 51503, Pitch_bend_c, 1, 5888
3, 51506, Pitch_bend_c, 1, 6528
3, 51508, Pitch_bend_c, 1, 7040
3, 51510, Pitch_bend_c, 1, 7552
3, 51512, Pitch_bend_c, 1, 8192
3, 51522, Note_on_c, 1, 61, 0
3, 51542, Note_on_c, 1, 57, 66
3, 51575, Note_on_c, 1, 57, 0
3, 51603, Note_on_c, 1, 59, 66
3, 51637, Note_on_c, 1, 59, 0
3, 51647, Pitch_bend_c, 1, 7936
3, 51649, Pitch_bend_c, 1, 7424
3, 51651, Pitch_bend_c, 1, 6912
3, 51653, Pitch_bend_c, 1, 6272
3, 51655, Pitch_bend_c, 1, 5760
3, 51657, Pitch_bend_c, 1, 5120
3, 51658, Pitch_bend_c, 1, 4608
3, 51661, Pitch_bend_c, 1, 4096
3, 51662, Pitch_bend_c, 1, 3584
3, 51665, Pitch_bend_c, 1, 3200
3, 51666, Pitch_bend_c, 1, 2944
3, 51669, Pitch_bend_c, 1, 2688
3, 51671, Note_on_c, 1, 57, 61
3, 51673, Pitch_bend_c, 1, 2560
3, 51678, Pitch_bend_c, 1, 2944
3, 51680, Pitch_bend_c, 1, 3200
3, 51681, Pitch_bend_c, 1, 3456
3, 51684, Pitch_bend_c, 1, 3968
3, 51686, Pitch_bend_c, 1, 4352
3, 51688, Pitch_bend_c, 1, 4864
3, 51690, Pitch_bend_c, 1, 5376
3, 51692, Pitch_bend_c, 1, 5888
3, 51694, Pitch_bend_c, 1, 6400
3, 51695, Pitch_bend_c, 1, 6784
3, 51697, Pitch_bend_c, 1, 7296
3, 51699, Pitch_bend_c, 1, 7680
3, 51700, Pitch_bend_c, 1, 8064
3, 51703, Pitch_bend_c, 1, 8192
3, 51711, Note_on_c, 1, 57, 0
3, 51734, Note_on_c, 1, 54, 66
3, 51763, Note_on_c, 1, 54, 0
3, 51798, Note_on_c, 1, 49, 74
3, 51824, Note_on_c, 1, 49, 0
3, 51846, Pitch_bend_c, 1, 7680
3, 51848, Pitch_bend_c, 1, 7040
3, 51849, Pitch_bend_c, 1, 6400
3, 51852, Pitch_bend_c, 1, 5760
3, 51854, Pitch_bend_c, 1, 5120
3, 51855, Pitch_bend_c, 1, 4352
3, 51858, Pitch_bend_c, 1, 3712
3, 51859, Pitch_bend_c, 1, 3072
3, 51861, Pitch_bend_c, 1, 2432
3, 51863, Pitch_bend_c, 1, 1792
3, 51864, Pitch_bend_c, 1, 1280
3, 51867, Pitch_bend_c, 1, 768
3, 51869, Note_on_c, 1, 54, 84
3, 51869, Pitch_bend_c, 1, 384
3, 51871, Pitch_bend_c, 1, 128
3, 51873, Pitch_bend_c, 1, 0
3, 51896, Pitch_bend_c, 1, 1152
3, 51898, Pitch_bend_c, 1, 1664
3, 51900, Pitch_bend_c, 1, 2176
3, 51902, Pitch_bend_c, 1, 2688
3, 51904, Pitch_bend_c, 1, 3200
3, 51906, Pitch_bend_c, 1, 3712
3, 51907, Pitch_bend_c, 1, 4224
3, 51909, Pitch_bend_c, 1, 4736
3, 51912, Pitch_bend_c, 1, 5248
3, 51913, Pitch_bend_c, 1, 5760
3, 51916, Pitch_bend_c, 1, 6272
3, 51918, Pitch_bend_c, 1, 6656
3, 51919, Pitch_bend_c, 1, 6912
3, 51921, Pitch_bend_c, 1, 7296
3, 51923, Pitch_bend_c, 1, 7552
3, 51925, Pitch_bend_c, 1, 7680
3, 51927, Pitch_bend_c, 1, 7936
3, 51929, Pitch_bend_c, 1, 8064
3, 51930, Pitch_bend_c, 1, 8192
3, 52099, Control_c, 1, 1, 4
3, 52101, Control_c, 1, 1, 8
3, 52104, Control_c, 1, 1, 13
3, 52105, Control_c, 1, 1, 19
3, 52108, Control_c, 1, 1, 25
3, 52109, Control_c, 1, 1, 31
3, 52111, Control_c, 1, 1, 39
3, 52113, Control_c, 1, 1, 47
3, 52116, Control_c, 1, 1, 57
3, 52118, Control_c, 1, 1, 66
3, 52119, Control_c, 1, 1, 76
3, 52121, Control_c, 1, 1, 85
3, 52123, Control_c, 1, 1, 94
3, 52124, Control_c, 1, 1, 103
3, 52126, Control_c, 1, 1, 111
3, 52129, Control_c, 1, 1, 119
3, 52131, Control_c, 1, 1, 126
3, 52133, Control_c, 1, 1, 127
3, 52174, Control_c, 1, 1, 125
3, 52175, Control_c, 1, 1, 120
3, 52177, Control_c, 1, 1, 113
3, 52179, Control_c, 1, 1, 106
3, 52181, Control_c, 1, 1, 97
3, 52182, Control_c, 1, 1, 88
3, 52184, Control_c, 1, 1, 77
3, 52186, Note_on_c, 1, 54, 0
3, 52188, Control_c, 1, 1, 63
3, 52189, Control_c, 1, 1, 48
3, 52191, Control_c, 1, 1, 33
3, 52193, Control_c, 1, 1, 16
3, 52194, Control_c, 1, 1, 3
3, 52197, Control_c, 1, 1, 0
3, 52197, End_track
4, 0, Start_track
4, 0, MIDI_port, 0
4, 0, Title_t, "Jazz Drum Kit"
4, 0, Control_c, 9, 0, 62
4, 0, Control_c, 9, 32, 1
4, 0, Program_c, 9, 32
4, 0, Control_c, 9, 7, 115
4, 0, Control_c, 9, 10, 64
4, 11520, Control_c, 9, 91, 30
4, 11762, Note_on_c, 9, 40, 127
4, 11788, Note_on_c, 9, 40, 0
4, 11823, Note_on_c, 9, 45, 127
4, 11843, Note_on_c, 9, 45, 0
4, 11884, Note_on_c, 9, 40, 93
4, 11896, Note_on_c, 9, 40, 0
4, 11910, Note_on_c, 9, 40, 127
4, 11930, Note_on_c, 9, 40, 0
4, 11939, Note_on_c, 9, 45, 102
4, 11957, Note_on_c, 9, 45, 0
4, 11998, Note_on_c, 9, 36, 127
4, 11999, Note_on_c, 9, 55, 127
4, 12013, Note_on_c, 9, 55, 0
4, 12024, Note_on_c, 9, 36, 0
4, 12060, Note_on_c, 9, 42, 11
4, 12089, Note_on_c, 9, 42, 0
4, 12120, Note_on_c, 9, 42, 86
4, 12120, Note_on_c, 9, 54, 125
4, 12120, Note_on_c, 9, 40, 127
4, 12149, Note_on_c, 9, 40, 0
4, 12149, Note_on_c, 9, 54, 0
4, 12149, Note_on_c, 9, 42, 0
4, 12180, Note_on_c, 9, 36, 114
4, 12180, Note_on_c, 9, 42, 18
4, 12209, Note_on_c, 9, 42, 0
4, 12209, Note_on_c, 9, 36, 0
4, 12210, Note_on_c, 9, 42, 48
4, 12239, Note_on_c, 9, 42, 0
4, 12240, Note_on_c, 9, 42, 81
4, 12269, Note_on_c, 9, 42, 0
4, 12300, Note_on_c, 9, 36, 72
4, 12300, Note_on_c, 9, 42, 66
4, 12329, Note_on_c, 9, 42, 0
4, 12329, Note_on_c, 9, 36, 0
4, 12360, Note_on_c, 9, 40, 127
4, 12360, Note_on_c, 9, 54, 127
4, 12360, Note_on_c, 9, 42, 66
4, 12389, Note_on_c, 9, 42, 0
4, 12389, Note_on_c, 9, 54, 0
4, 12389, Note_on_c, 9, 40, 0
4, 12420, Note_on_c, 9, 42, 61
4, 12449, Note_on_c, 9, 42, 0
4, 12450, Note_on_c, 9, 42, 30
4, 12479, Note_on_c, 9, 42, 0
4, 12480, Note_on_c, 9, 42, 61
4, 12480, Note_on_c, 9, 36, 127
4, 12509, Note_on_c, 9, 36, 0
4, 12509, Note_on_c, 9, 42, 0
4, 12540, Note_on_c, 9, 42, 51
4, 12569, Note_on_c, 9, 42, 0
4, 12600, Note_on_c, 9, 54, 125
4, 12600, Note_on_c, 9, 40, 127
4, 12600, Note_on_c, 9, 42, 89
4, 12629, Note_on_c, 9, 42, 0
4, 12629, Note_on_c, 9, 40, 0
4, 12629, Note_on_c, 9, 54, 0
4, 12660, Note_on_c, 9, 36, 127
4, 12660, Note_on_c, 9, 42, 55
4, 12689, Note_on_c, 9, 42, 0
4, 12689, Note_on_c, 9, 36, 0
4, 12690, Note_on_c, 9, 42, 51
4, 12719, Note_on_c, 9, 42, 0
4, 12720, Note_on_c, 9, 42, 58
4, 12749, Note_on_c, 9, 42, 0
4, 12780, Note_on_c, 9, 36, 102
4, 12780, Note_on_c, 9, 42, 51
4, 12809, Note_on_c, 9, 42, 0
4, 12809, Note_on_c, 9, 36, 0
4, 12840, Note_on_c, 9, 40, 127
4, 12840, Note_on_c, 9, 54, 127
4, 12840, Note_on_c, 9, 42, 77
4, 12869, Note_on_c, 9, 42, 0
4, 12869, Note_on_c, 9, 54, 0
4, 12869, Note_on_c, 9, 40, 0
4, 12900, Note_on_c, 9, 42, 51
4, 12900, Note_on_c, 9, 36, 35
4, 12929, Note_on_c, 9, 36, 0
4, 12929, Note_on_c, 9, 42, 0
4, 12930, Note_on_c, 9, 42, 48
4, 12959, Note_on_c, 9, 42, 0
4, 12960, Note_on_c, 9, 42, 108
4, 12960, Note_on_c, 9, 36, 114
4, 12989, Note_on_c, 9, 36, 0
4, 12989, Note_on_c, 9, 42, 0
4, 13020, Note_on_c, 9, 42, 39
4, 13049, Note_on_c, 9, 42, 0
4, 13050, Note_on_c, 9, 36, 86
4, 13079, Note_on_c, 9, 36, 0
4, 13080, Note_on_c, 9, 42, 61
4, 13080, Note_on_c, 9, 54, 125
4, 13080, Note_on_c, 9, 40, 127
4, 13109, Note_on_c, 9, 40, 0
4, 13109, Note_on_c, 9, 54, 0
4, 13109, Note_on_c, 9, 42, 0
4, 13140, Note_on_c, 9, 42, 51
4, 13140, Note_on_c, 9, 36, 127
4, 13169, Note_on_c, 9, 36, 0
4, 13169, Note_on_c, 9, 42, 0
4, 13170, Note_on_c, 9, 42, 48
4, 13199, Note_on_c, 9, 42, 0
4, 13200, Note_on_c, 9, 42, 77
4, 13229, Note_on_c, 9, 42, 0
4, 13260, Note_on_c, 9, 36, 89
4, 13260, Note_on_c, 9, 42, 39
4, 13289, Note_on_c, 9, 42, 0
4, 13289, Note_on_c, 9, 36, 0
4, 13320, Note_on_c, 9, 40, 127
4, 13320, Note_on_c, 9, 54, 127
4, 13320, Note_on_c, 9, 42, 96
4, 13349, Note_on_c, 9, 42, 0
4, 13349, Note_on_c, 9, 54, 0
4, 13349, Note_on_c, 9, 40, 0
4, 13380, Note_on_c, 9, 36, 39
4, 13380, Note_on_c, 9, 42, 55
4, 13409, Note_on_c, 9, 42, 0
4, 13409, Note_on_c, 9, 36, 0
4, 13410, Note_on_c, 9, 42, 66
4, 13439, Note_on_c, 9, 42, 0
4, 13440, Note_on_c, 9, 36, 127
4, 13440, Note_on_c, 9, 42, 96
4, 13469, Note_on_c, 9, 42, 0
4, 13469, Note_on_c, 9, 36, 0
4, 13500, Note_on_c, 9, 42, 30
4, 13529, Note_on_c, 9, 42, 0
4, 13530, Note_on_c, 9, 36, 66
4, 13559, Note_on_c, 9, 36, 0
4, 13560, Note_on_c, 9, 54, 125
4, 13560, Note_on_c, 9, 40, 127
4, 13560, Note_on_c, 9, 42, 96
4, 13589, Note_on_c, 9, 42, 0
4, 13589, Note_on_c, 9, 40, 0
4, 13589, Note_on_c, 9, 54, 0
4, 13620, Note_on_c, 9, 42, 48
4, 13620, Note_on_c, 9, 36, 127
4, 13649, Note_on_c, 9, 36, 0
4, 13649, Note_on_c, 9, 42, 0
4, 13650, Note_on_c, 9, 42, 72
4, 13679, Note_on_c, 9, 42, 0
4, 13680, Note_on_c, 9, 42, 77
4, 13709, Note_on_c, 9, 42, 0
4, 13740, Note_on_c, 9, 36, 96
4, 13740, Note_on_c, 9, 46, 117
4, 13769, Note_on_c, 9, 46, 0
4, 13769, Note_on_c, 9, 36, 0
4, 13800, Note_on_c, 9, 40, 114
4, 13800, Note_on_c, 9, 54, 127
4, 13800, Note_on_c, 9, 42, 111
4, 13829, Note_on_c, 9, 42, 0
4, 13829, Note_on_c, 9, 54, 0
4, 13829, Note_on_c, 9, 40, 0
4, 13860, Note_on_c, 9, 36, 39
4, 13860, Note_on_c, 9, 42, 58
4, 13889, Note_on_c, 9, 42, 0
4, 13889, Note_on_c, 9, 36, 0
4, 13890, Note_on_c, 9, 42, 30
4, 13919, Note_on_c, 9, 42, 0
4, 13920, Note_on_c, 9, 36, 127
4, 13920, Note_on_c, 9, 42, 61
4, 13949, Note_on_c, 9, 42, 0
4, 13949, Note_on_c, 9, 36, 0
4, 13980, Note_on_c, 9, 42, 58
4, 14009, Note_on_c, 9, 42, 0
4, 14040, Note_on_c, 9, 42, 93
4, 14040, Note_on_c, 9, 54, 125
4, 14040, Note_on_c, 9, 40, 127
4, 14069, Note_on_c, 9, 40, 0
4, 14069, Note_on_c, 9, 54, 0
4, 14069, Note_on_c, 9, 42, 0
4, 14100, Note_on_c, 9, 42, 1
4, 14100, Note_on_c, 9, 36, 117
4, 14129, Note_on_c, 9, 36, 0
4, 14129, Note_on_c, 9, 42, 0
4, 14130, Note_on_c, 9, 42, 30
4, 14159, Note_on_c, 9, 42, 0
4, 14160, Note_on_c, 9, 42, 51
4, 14189, Note_on_c, 9, 42, 0
4, 14220, Note_on_c, 9, 36, 89
4, 14220, Note_on_c, 9, 42, 89
4, 14249, Note_on_c, 9, 42, 0
4, 14249, Note_on_c, 9, 36, 0
4, 14280, Note_on_c, 9, 40, 127
4, 14280, Note_on_c, 9, 54, 127
4, 14280, Note_on_c, 9, 42, 77
4, 14309, Note_on_c, 9, 42, 0
4, 14309, Note_on_c, 9, 54, 0
4, 14309, Note_on_c, 9, 40, 0
4, 14340, Note_on_c, 9, 36, 58
4, 14340, Note_on_c, 9, 42, 48
4, 14369, Note_on_c, 9, 42, 0
4, 14369, Note_on_c, 9, 36, 0
4, 14370, Note_on_c, 9, 42, 39
4, 14399, Note_on_c, 9, 42, 0
4, 14400, Note_on_c, 9, 42, 84
4, 14400, Note_on_c, 9, 36, 124
4, 14429, Note_on_c, 9, 36, 0
4, 14429, Note_on_c, 9, 42, 0
4, 14460, Note_on_c, 9, 42, 84
4, 14489, Note_on_c, 9, 42, 0
4, 14520, Note_on_c, 9, 54, 125
4, 14520, Note_on_c, 9, 40, 127
4, 14520, Note_on_c, 9, 42, 86
4, 14549, Note_on_c, 9, 42, 0
4, 14549, Note_on_c, 9, 40, 0
4, 14549, Note_on_c, 9, 54, 0
4, 14580, Note_on_c, 9, 36, 124
4, 14580, Note_on_c, 9, 42, 77
4, 14609, Note_on_c, 9, 42, 0
4, 14609, Note_on_c, 9, 36, 0
4, 14610, Note_on_c, 9, 42, 39
4, 14639, Note_on_c, 9, 42, 0
4, 14640, Note_on_c, 9, 42, 81
4, 14669, Note_on_c, 9, 42, 0
4, 14700, Note_on_c, 9, 36, 79
4, 14700, Note_on_c, 9, 42, 91
4, 14729, Note_on_c, 9, 42, 0
4, 14729, Note_on_c, 9, 36, 0
4, 14760, Note_on_c, 9, 54, 127
4, 14760, Note_on_c, 9, 40, 127
4, 14760, Note_on_c, 9, 42, 102
4, 14789, Note_on_c, 9, 42, 0
4, 14789, Note_on_c, 9, 40, 0
4, 14789, Note_on_c, 9, 54, 0
4, 14820, Note_on_c, 9, 42, 72
4, 14820, Note_on_c, 9, 36, 43
4, 14849, Note_on_c, 9, 36, 0
4, 14849, Note_on_c, 9, 42, 0
4, 14850, Note_on_c, 9, 42, 26
4, 14879, Note_on_c, 9, 42, 0
4, 14880, Note_on_c, 9, 36, 127
4, 14880, Note_on_c, 9, 42, 58
4, 14909, Note_on_c, 9, 42, 0
4, 14909, Note_on_c, 9, 36, 0
4, 14940, Note_on_c, 9, 42, 84
4, 14969, Note_on_c, 9, 42, 0
4, 14970, Note_on_c, 9, 36, 89
4, 14999, Note_on_c, 9, 36, 0
4, 15000, Note_on_c, 9, 42, 69
4, 15000, Note_on_c, 9, 54, 125
4, 15000, Note_on_c, 9, 40, 127
4, 15029, Note_on_c, 9, 40, 0
4, 15029, Note_on_c, 9, 54, 0
4, 15029, Note_on_c, 9, 42, 0
4, 15060, Note_on_c, 9, 42, 61
4, 15060, Note_on_c, 9, 36, 127
4, 15089, Note_on_c, 9, 36, 0
4, 15089, Note_on_c, 9, 42, 0
4, 15090, Note_on_c, 9, 42, 35
4, 15119, Note_on_c, 9, 42, 0
4, 15120, Note_on_c, 9, 42, 72
4, 15149, Note_on_c, 9, 42, 0
4, 15180, Note_on_c, 9, 36, 89
4, 15180, Note_on_c, 9, 42, 48
4, 15209, Note_on_c, 9, 42, 0
4, 15209, Note_on_c, 9, 36, 0
4, 15240, Note_on_c, 9, 40, 127
4, 15240, Note_on_c, 9, 54, 127
4, 15240, Note_on_c, 9, 42, 77
4, 15269, Note_on_c, 9, 42, 0
4, 15269, Note_on_c, 9, 54, 0
4, 15269, Note_on_c, 9, 40, 0
4, 15300, Note_on_c, 9, 42, 77
4, 15300, Note_on_c, 9, 36, 43
4, 15329, Note_on_c, 9, 36, 0
4, 15329, Note_on_c, 9, 42, 0
4, 15330, Note_on_c, 9, 42, 77
4, 15359, Note_on_c, 9, 42, 0
4, 15360, Note_on_c, 9, 36, 127
4, 15360, Note_on_c, 9, 42, 117
4, 15389, Note_on_c, 9, 42, 0
4, 15389, Note_on_c, 9, 36, 0
4, 15420, Note_on_c, 9, 42, 55
4, 15449, Note_on_c, 9, 42, 0
4, 15450, Note_on_c, 9, 36, 72
4, 15479, Note_on_c, 9, 36, 0
4, 15480, Note_on_c, 9, 54, 125
4, 15480, Note_on_c, 9, 40, 127
4, 15480, Note_on_c, 9, 42, 69
4, 15509, Note_on_c, 9, 42, 0
4, 15509, Note_on_c, 9, 40, 0
4, 15509, Note_on_c, 9, 54, 0
4, 15540, Note_on_c, 9, 42, 26
4, 15540, Note_on_c, 9, 36, 127
4, 15569, Note_on_c, 9, 36, 0
4, 15569, Note_on_c, 9, 42, 0
4, 15570, Note_on_c, 9, 42, 39
4, 15599, Note_on_c, 9, 42, 0
4, 15600, Note_on_c, 9, 42, 86
4, 15629, Note_on_c, 9, 42, 0
4, 15660, Note_on_c, 9, 46, 124
4, 15660, Note_on_c, 9, 36, 89
4, 15689, Note_on_c, 9, 36, 0
4, 15689, Note_on_c, 9, 46, 0
4, 15720, Note_on_c, 9, 42, 105
4, 15720, Note_on_c, 9, 40, 127
4, 15720, Note_on_c, 9, 54, 127
4, 15749, Note_on_c, 9, 54, 0
4, 15749, Note_on_c, 9, 40, 0
4, 15749, Note_on_c, 9, 42, 0
4, 15780, Note_on_c, 9, 42, 89
4, 15809, Note_on_c, 9, 42, 0
4, 15810, Note_on_c, 9, 42, 48
4, 15839, Note_on_c, 9, 42, 0
4, 15840, Note_on_c, 9, 36, 114
4, 15840, Note_on_c, 9, 55, 127
4, 15869, Note_on_c, 9, 55, 0
4, 15869, Note_on_c, 9, 36, 0
4, 15900, Note_on_c, 9, 42, 55
4, 15929, Note_on_c, 9, 42, 0
4, 15960, Note_on_c, 9, 54, 125
4, 15960, Note_on_c, 9, 40, 127
4, 15960, Note_on_c, 9, 42, 74
4, 15989, Note_on_c, 9, 42, 0
4, 15989, Note_on_c, 9, 40, 0
4, 15989, Note_on_c, 9, 54, 0
4, 16020, Note_on_c, 9, 42, 77
4, 16020, Note_on_c, 9, 36, 127
4, 16049, Note_on_c, 9, 36, 0
4, 16049, Note_on_c, 9, 42, 0
4, 16050, Note_on_c, 9, 42, 39
4, 16079, Note_on_c, 9, 42, 0
4, 16080, Note_on_c, 9, 42, 61
4, 16109, Note_on_c, 9, 42, 0
4, 16140, Note_on_c, 9, 36, 58
4, 16140, Note_on_c, 9, 42, 58
4, 16169, Note_on_c, 9, 42, 0
4, 16169, Note_on_c, 9, 36, 0
4, 16200, Note_on_c, 9, 40, 102
4, 16200, Note_on_c, 9, 54, 127
4, 16200, Note_on_c, 9, 42, 77
4, 16229, Note_on_c, 9, 42, 0
4, 16229, Note_on_c, 9, 54, 0
4, 16229, Note_on_c, 9, 40, 0
4, 16260, Note_on_c, 9, 42, 43
4, 16260, Note_on_c, 9, 36, 51
4, 16289, Note_on_c, 9, 36, 0
4, 16289, Note_on_c, 9, 42, 0
4, 16290, Note_on_c, 9, 42, 26
4, 16319, Note_on_c, 9, 42, 0
4, 16320, Note_on_c, 9, 42, 105
4, 16320, Note_on_c, 9, 36, 108
4, 16349, Note_on_c, 9, 36, 0
4, 16349, Note_on_c, 9, 42, 0
4, 16380, Note_on_c, 9, 42, 61
4, 16409, Note_on_c, 9, 42, 0
4, 16440, Note_on_c, 9, 54, 125
4, 16440, Note_on_c, 9, 40, 127
4, 16440, Note_on_c, 9, 42, 96
4, 16469, Note_on_c, 9, 42, 0
4, 16469, Note_on_c, 9, 40, 0
4, 16469, Note_on_c, 9, 54, 0
4, 16500, Note_on_c, 9, 42, 66
4, 16500, Note_on_c, 9, 36, 96
4, 16529, Note_on_c, 9, 36, 0
4, 16529, Note_on_c, 9, 42, 0
4, 16530, Note_on_c, 9, 42, 43
4, 16559, Note_on_c, 9, 42, 0
4, 16560, Note_on_c, 9, 42, 93
4, 16589, Note_on_c, 9, 42, 0
4, 16620, Note_on_c, 9, 36, 105
4, 16620, Note_on_c, 9, 46, 81
4, 16649, Note_on_c, 9, 46, 0
4, 16649, Note_on_c, 9, 36, 0
4, 16680, Note_on_c, 9, 54, 127
4, 16680, Note_on_c, 9, 40, 127
4, 16680, Note_on_c, 9, 42, 125
4, 16709, Note_on_c, 9, 42, 0
4, 16709, Note_on_c, 9, 40, 0
4, 16709, Note_on_c, 9, 54, 0
4, 16740, Note_on_c, 9, 36, 39
4, 16740, Note_on_c, 9, 42, 89
4, 16769, Note_on_c, 9, 42, 0
4, 16769, Note_on_c, 9, 36, 0
4, 16770, Note_on_c, 9, 42, 22
4, 16799, Note_on_c, 9, 42, 0
4, 16800, Note_on_c, 9, 36, 127
4, 16800, Note_on_c, 9, 42, 61
4, 16829, Note_on_c, 9, 42, 0
4, 16829, Note_on_c, 9, 36, 0
4, 16860, Note_on_c, 9, 42, 61
4, 16889, Note_on_c, 9, 42, 0
4, 16920, Note_on_c, 9, 54, 125
4, 16920, Note_on_c, 9, 40, 127
4, 16920, Note_on_c, 9, 42, 84
4, 16949, Note_on_c, 9, 42, 0
4, 16949, Note_on_c, 9, 40, 0
4, 16949, Note_on_c, 9, 54, 0
4, 16980, Note_on_c, 9, 42, 61
4, 16980, Note_on_c, 9, 36, 124
4, 17009, Note_on_c, 9, 36, 0
4, 17009, Note_on_c, 9, 42, 0
4, 17010, Note_on_c, 9, 42, 48
4, 17039, Note_on_c, 9, 42, 0
4, 17040, Note_on_c, 9, 42, 102
4, 17069, Note_on_c, 9, 42, 0
4, 17100, Note_on_c, 9, 36, 72
4, 17100, Note_on_c, 9, 42, 89
4, 17129, Note_on_c, 9, 42, 0
4, 17129, Note_on_c, 9, 36, 0
4, 17160, Note_on_c, 9, 40, 127
4, 17160, Note_on_c, 9, 54, 127
4, 17160, Note_on_c, 9, 42, 91
4, 17189, Note_on_c, 9, 42, 0
4, 17189, Note_on_c, 9, 54, 0
4, 17189, Note_on_c, 9, 40, 0
4, 17220, Note_on_c, 9, 42, 26
4, 17220, Note_on_c, 9, 36, 48
4, 17249, Note_on_c, 9, 36, 0
4, 17249, Note_on_c, 9, 42, 0
4, 17280, Note_on_c, 9, 42, 77
4, 17280, Note_on_c, 9, 36, 127
4, 17309, Note_on_c, 9, 36, 0
4, 17309, Note_on_c, 9, 42, 0
4, 17340, Note_on_c, 9, 46, 93
4, 17369, Note_on_c, 9, 46, 0
4, 17370, Note_on_c, 9, 36, 84
4, 17399, Note_on_c, 9, 36, 0
4, 17400, Note_on_c, 9, 42, 58
4, 17400, Note_on_c, 9, 54, 125
4, 17400, Note_on_c, 9, 40, 126
4, 17429, Note_on_c, 9, 40, 0
4, 17429, Note_on_c, 9, 54, 0
4, 17429, Note_on_c, 9, 42, 0
4, 17430, Note_on_c, 9, 42, 77
4, 17459, Note_on_c, 9, 42, 0
4, 17460, Note_on_c, 9, 36, 77
4, 17460, Note_on_c, 9, 46, 114
4, 17489, Note_on_c, 9, 46, 0
4, 17489, Note_on_c, 9, 36, 0
4, 17520, Note_on_c, 9, 40, 72
4, 17549, Note_on_c, 9, 40, 0
4, 17550, Note_on_c, 9, 40, 124
4, 17579, Note_on_c, 9, 40, 0
4, 17580, Note_on_c, 9, 45, 127
4, 17609, Note_on_c, 9, 45, 0
4, 17640, Note_on_c, 9, 40, 127
4, 17640, Note_on_c, 9, 54, 127
4, 17669, Note_on_c, 9, 54, 0
4, 17669, Note_on_c, 9, 40, 0
4, 17700, Note_on_c, 9, 45, 127
4, 17729, Note_on_c, 9, 45, 0
4, 17760, Note_on_c, 9, 55, 127
4, 17760, Note_on_c, 9, 36, 127
4, 17760, Note_on_c, 9, 70, 84
4, 17789, Note_on_c, 9, 70, 0
4, 17789, Note_on_c, 9, 36, 0
4, 17789, Note_on_c, 9, 55, 0
4, 17820, Note_on_c, 9, 70, 58
4, 17849, Note_on_c, 9, 70, 0
4, 17850, Note_on_c, 9, 70, 72
4, 17879, Note_on_c, 9, 70, 0
4, 17880, Note_on_c, 9, 70, 123
4, 17880, Note_on_c, 9, 54, 125
4, 17880, Note_on_c, 9, 40, 127
4, 17880, Note_on_c, 9, 42, 79
4, 17909, Note_on_c, 9, 42, 0
4, 17909, Note_on_c, 9, 70, 0
4, 17909, Note_on_c, 9, 54, 0
4, 17909, Note_on_c, 9, 40, 0
4, 17940, Note_on_c, 9, 42, 61
4, 17940, Note_on_c, 9, 36, 108
4, 17940, Note_on_c, 9, 70, 55
4, 17969, Note_on_c, 9, 70, 0
4, 17969, Note_on_c, 9, 36, 0
4, 17969, Note_on_c, 9, 42, 0
4, 17970, Note_on_c, 9, 70, 58
4, 17970, Note_on_c, 9, 42, 30
4, 17999, Note_on_c, 9, 42, 0
4, 17999, Note_on_c, 9, 70, 0
4, 18000, Note_on_c, 9, 70, 69
4, 18000, Note_on_c, 9, 42, 84
4, 18029, Note_on_c, 9, 42, 0
4, 18029, Note_on_c, 9, 70, 0
4, 18060, Note_on_c, 9, 36, 58
4, 18060, Note_on_c, 9, 42, 72
4, 18060, Note_on_c, 9, 70, 51
4, 18089, Note_on_c, 9, 70, 0
4, 18089, Note_on_c, 9, 42, 0
4, 18089, Note_on_c, 9, 36, 0
4, 18090, Note_on_c, 9, 70, 51
4, 18119, Note_on_c, 9, 70, 0
4, 18120, Note_on_c, 9, 70, 72
4, 18120, Note_on_c, 9, 54, 127
4, 18120, Note_on_c, 9, 40, 127
4, 18120, Note_on_c, 9, 42, 111
4, 18149, Note_on_c, 9, 42, 0
4, 18149, Note_on_c, 9, 70, 0
4, 18149, Note_on_c, 9, 54, 0
4, 18149, Note_on_c, 9, 40, 0
4, 18180, Note_on_c, 9, 70, 72
4, 18180, Note_on_c, 9, 42, 48
4, 18180, Note_on_c, 9, 36, 48
4, 18209, Note_on_c, 9, 36, 0
4, 18209, Note_on_c, 9, 42, 0
4, 18209, Note_on_c, 9, 70, 0
4, 18210, Note_on_c, 9, 70, 58
4, 18210, Note_on_c, 9, 42, 26
4, 18239, Note_on_c, 9, 42, 0
4, 18239, Note_on_c, 9, 70, 0
4, 18240, Note_on_c, 9, 70, 89
4, 18240, Note_on_c, 9, 42, 84
4, 18240, Note_on_c, 9, 36, 127
4, 18269, Note_on_c, 9, 36, 0
4, 18269, Note_on_c, 9, 42, 0
4, 18269, Note_on_c, 9, 70, 0
4, 18300, Note_on_c, 9, 42, 58
4, 18300, Note_on_c, 9, 70, 43
4, 18329, Note_on_c, 9, 70, 0
4, 18329, Note_on_c, 9, 42, 0
4, 18330, Note_on_c, 9, 70, 55
4, 18359, Note_on_c, 9, 70, 0
4, 18360, Note_on_c, 9, 70, 111
4, 18360, Note_on_c, 9, 54, 125
4, 18360, Note_on_c, 9, 40, 127
4, 18360, Note_on_c, 9, 42, 91
4, 18389, Note_on_c, 9, 42, 0
4, 18389, Note_on_c, 9, 70, 0
4, 18389, Note_on_c, 9, 54, 0
4, 18389, Note_on_c, 9, 40, 0
4, 18420, Note_on_c, 9, 36, 96
4, 18420, Note_on_c, 9, 42, 72
4, 18420, Note_on_c, 9, 70, 51
4, 18449, Note_on_c, 9, 70, 0
4, 18449, Note_on_c, 9, 42, 0
4, 18449, Note_on_c, 9, 36, 0
4, 18450, Note_on_c, 9, 70, 84
4, 18450, Note_on_c, 9, 42, 30
4, 18479, Note_on_c, 9, 42, 0
4, 18479, Note_on_c, 9, 70, 0
4, 18480, Note_on_c, 9, 70, 99
4, 18480, Note_on_c, 9, 42, 89
4, 18509, Note_on_c, 9, 42, 0
4, 18509, Note_on_c, 9, 70, 0
4, 18540, Note_on_c, 9, 36, 84
4, 18540, Note_on_c, 9, 42, 64
4, 18540, Note_on_c, 9, 70, 74
4, 18569, Note_on_c, 9, 70, 0
4, 18569, Note_on_c, 9, 42, 0
4, 18569, Note_on_c, 9, 36, 0
4, 18570, Note_on_c, 9, 70, 89
4, 18599, Note_on_c, 9, 70, 0
4, 18600, Note_on_c, 9, 40, 127
4, 18600, Note_on_c, 9, 54, 127
4, 18600, Note_on_c, 9, 42, 120
4, 18600, Note_on_c, 9, 70, 81
4, 18629, Note_on_c, 9, 70, 0
4, 18629, Note_on_c, 9, 40, 0
4, 18629, Note_on_c, 9, 54, 0
4, 18629, Note_on_c, 9, 42, 0
4, 18660, Note_on_c, 9, 36, 55
4, 18660, Note_on_c, 9, 42, 84
4, 18660, Note_on_c, 9, 70, 84
4, 18689, Note_on_c, 9, 70, 0
4, 18689, Note_on_c, 9, 42, 0
4, 18689, Note_on_c, 9, 36, 0
4, 18690, Note_on_c, 9, 70, 77
4, 18690, Note_on_c, 9, 42, 30
4, 18719, Note_on_c, 9, 42, 0
4, 18719, Note_on_c, 9, 70, 0
4, 18720, Note_on_c, 9, 70, 84
4, 18720, Note_on_c, 9, 42, 77
4, 18720, Note_on_c, 9, 36, 99
4, 18749, Note_on_c, 9, 36, 0
4, 18749, Note_on_c, 9, 42, 0
4, 18749, Note_on_c, 9, 70, 0
4, 18780, Note_on_c, 9, 42, 72
4, 18780, Note_on_c, 9, 70, 81
4, 18809, Note_on_c, 9, 70, 0
4, 18809, Note_on_c, 9, 42, 0
4, 18810, Note_on_c, 9, 70, 72
4, 18839, Note_on_c, 9, 70, 0
4, 18840, Note_on_c, 9, 70, 93
4, 18840, Note_on_c, 9, 54, 125
4, 18840, Note_on_c, 9, 40, 96
4, 18840, Note_on_c, 9, 42, 111
4, 18869, Note_on_c, 9, 42, 0
4, 18869, Note_on_c, 9, 70, 0
4, 18869, Note_on_c, 9, 54, 0
4, 18869, Note_on_c, 9, 40, 0
4, 18900, Note_on_c, 9, 70, 77
4, 18900, Note_on_c, 9, 42, 84
4, 18900, Note_on_c, 9, 36, 125
4, 18929, Note_on_c, 9, 36, 0
4, 18929, Note_on_c, 9, 42, 0
4, 18929, Note_on_c, 9, 70, 0
4, 18930, Note_on_c, 9, 70, 48
4, 18930, Note_on_c, 9, 42, 55
4, 18959, Note_on_c, 9, 42, 0
4, 18959, Note_on_c, 9, 70, 0
4, 18960, Note_on_c, 9, 70, 123
4, 18960, Note_on_c, 9, 42, 72
4, 18989, Note_on_c, 9, 42, 0
4, 18989, Note_on_c, 9, 70, 0
4, 19020, Note_on_c, 9, 70, 58
4, 19020, Note_on_c, 9, 36, 124
4, 19020, Note_on_c, 9, 42, 61
4, 19049, Note_on_c, 9, 42, 0
4, 19049, Note_on_c, 9, 36, 0
4, 19049, Note_on_c, 9, 70, 0
4, 19050, Note_on_c, 9, 70, 61
4, 19079, Note_on_c, 9, 70, 0
4, 19080, Note_on_c, 9, 40, 127
4, 19080, Note_on_c, 9, 54, 127
4, 19080, Note_on_c, 9, 42, 111
4, 19080, Note_on_c, 9, 70, 84
4, 19109, Note_on_c, 9, 70, 0
4, 19109, Note_on_c, 9, 40, 0
4, 19109, Note_on_c, 9, 54, 0
4, 19109, Note_on_c, 9, 42, 0
4, 19140, Note_on_c, 9, 70, 77
4, 19140, Note_on_c, 9, 42, 77
4, 19140, Note_on_c, 9, 36, 43
4, 19169, Note_on_c, 9, 36, 0
4, 19169, Note_on_c, 9, 42, 0
4, 19169, Note_on_c, 9, 70, 0
4, 19170, Note_on_c, 9, 70, 74
4, 19170, Note_on_c, 9, 42, 30
4, 19199, Note_on_c, 9, 42, 0
4, 19199, Note_on_c, 9, 70, 0
4, 19200, Note_on_c, 9, 36, 127
4, 19200, Note_on_c, 9, 42, 81
4, 19200, Note_on_c, 9, 70, 91
4, 19229, Note_on_c, 9, 70, 0
4, 19229, Note_on_c, 9, 42, 0
4, 19229, Note_on_c, 9, 36, 0
4, 19260, Note_on_c, 9, 70, 72
4, 19289, Note_on_c, 9, 70, 0
4, 19290, Note_on_c, 9, 70, 96
4, 19290, Note_on_c, 9, 36, 77
4, 19319, Note_on_c, 9, 36, 0
4, 19319, Note_on_c, 9, 70, 0
4, 19320, Note_on_c, 9, 70, 105
4, 19320, Note_on_c, 9, 54, 125
4, 19320, Note_on_c, 9, 40, 102
4, 19320, Note_on_c, 9, 42, 58
4, 19349, Note_on_c, 9, 42, 0
4, 19349, Note_on_c, 9, 70, 0
4, 19349, Note_on_c, 9, 54, 0
4, 19349, Note_on_c, 9, 40, 0
4, 19380, Note_on_c, 9, 70, 66
4, 19380, Note_on_c, 9, 42, 51
4, 19380, Note_on_c, 9, 36, 114
4, 19409, Note_on_c, 9, 36, 0
4, 19409, Note_on_c, 9, 42, 0
4, 19409, Note_on_c, 9, 70, 0
4, 19410, Note_on_c, 9, 70, 66
4, 19410, Note_on_c, 9, 42, 39
4, 19439, Note_on_c, 9, 42, 0
4, 19439, Note_on_c, 9, 70, 0
4, 19440, Note_on_c, 9, 70, 117
4, 19440, Note_on_c, 9, 42, 91
4, 19469, Note_on_c, 9, 42, 0
4, 19469, Note_on_c, 9, 70, 0
4, 19500, Note_on_c, 9, 36, 108
4, 19500, Note_on_c, 9, 42, 77
4, 19500, Note_on_c, 9, 70, 51
4, 19529, Note_on_c, 9, 70, 0
4, 19529, Note_on_c, 9, 42, 0
4, 19529, Note_on_c, 9, 36, 0
4, 19530, Note_on_c, 9, 70, 64
4, 19559, Note_on_c, 9, 70, 0
4, 19560, Note_on_c, 9, 40, 127
4, 19560, Note_on_c, 9, 54, 127
4, 19560, Note_on_c, 9, 42, 58
4, 19560, Note_on_c, 9, 70, 93
4, 19589, Note_on_c, 9, 70, 0
4, 19589, Note_on_c, 9, 40, 0
4, 19589, Note_on_c, 9, 54, 0
4, 19589, Note_on_c, 9, 42, 0
4, 19620, Note_on_c, 9, 36, 48
4, 19620, Note_on_c, 9, 42, 120
4, 19620, Note_on_c, 9, 70, 64
4, 19649, Note_on_c, 9, 70, 0
4, 19649, Note_on_c, 9, 42, 0
4, 19649, Note_on_c, 9, 36, 0
4, 19650, Note_on_c, 9, 42, 58
4, 19650, Note_on_c, 9, 70, 72
4, 19679, Note_on_c, 9, 70, 0
4, 19679, Note_on_c, 9, 42, 0
4, 19680, Note_on_c, 9, 36, 127
4, 19680, Note_on_c, 9, 42, 66
4, 19680, Note_on_c, 9, 70, 108
4, 19709, Note_on_c, 9, 70, 0
4, 19709, Note_on_c, 9, 42, 0
4, 19709, Note_on_c, 9, 36, 0
4, 19740, Note_on_c, 9, 70, 96
4, 19740, Note_on_c, 9, 42, 77
4, 19769, Note_on_c, 9, 42, 0
4, 19769, Note_on_c, 9, 70, 0
4, 19770, Note_on_c, 9, 70, 58
4, 19770, Note_on_c, 9, 36, 64
4, 19799, Note_on_c, 9, 36, 0
4, 19799, Note_on_c, 9, 70, 0
4, 19800, Note_on_c, 9, 70, 96
4, 19800, Note_on_c, 9, 40, 127
4, 19800, Note_on_c, 9, 54, 125
4, 19800, Note_on_c, 9, 42, 108
4, 19829, Note_on_c, 9, 42, 0
4, 19829, Note_on_c, 9, 70, 0
4, 19829, Note_on_c, 9, 40, 0
4, 19829, Note_on_c, 9, 54, 0
4, 19860, Note_on_c, 9, 70, 61
4, 19860, Note_on_c, 9, 36, 96
4, 19860, Note_on_c, 9, 42, 74
4, 19889, Note_on_c, 9, 42, 0
4, 19889, Note_on_c, 9, 36, 0
4, 19889, Note_on_c, 9, 70, 0
4, 19890, Note_on_c, 9, 70, 51
4, 19890, Note_on_c, 9, 42, 58
4, 19919, Note_on_c, 9, 42, 0
4, 19919, Note_on_c, 9, 70, 0
4, 19920, Note_on_c, 9, 70, 86
4, 19920, Note_on_c, 9, 42, 66
4, 19949, Note_on_c, 9, 42, 0
4, 19949, Note_on_c, 9, 70, 0
4, 19980, Note_on_c, 9, 36, 64
4, 19980, Note_on_c, 9, 42, 48
4, 19980, Note_on_c, 9, 70, 64
4, 20009, Note_on_c, 9, 70, 0
4, 20009, Note_on_c, 9, 42, 0
4, 20009, Note_on_c, 9, 36, 0
4, 20010, Note_on_c, 9, 70, 51
4, 20039, Note_on_c, 9, 70, 0
4, 20040, Note_on_c, 9, 42, 89
4, 20040, Note_on_c, 9, 40, 127
4, 20040, Note_on_c, 9, 54, 127
4, 20040, Note_on_c, 9, 70, 79
4, 20069, Note_on_c, 9, 70, 0
4, 20069, Note_on_c, 9, 42, 0
4, 20069, Note_on_c, 9, 40, 0
4, 20069, Note_on_c, 9, 54, 0
4, 20100, Note_on_c, 9, 70, 61
4, 20100, Note_on_c, 9, 36, 48
4, 20100, Note_on_c, 9, 42, 58
4, 20129, Note_on_c, 9, 42, 0
4, 20129, Note_on_c, 9, 36, 0
4, 20129, Note_on_c, 9, 70, 0
4, 20130, Note_on_c, 9, 70, 55
4, 20130, Note_on_c, 9, 42, 51
4, 20159, Note_on_c, 9, 42, 0
4, 20159, Note_on_c, 9, 70, 0
4, 20160, Note_on_c, 9, 70, 81
4, 20160, Note_on_c, 9, 42, 61
4, 20160, Note_on_c, 9, 36, 125
4, 20189, Note_on_c, 9, 36, 0
4, 20189, Note_on_c, 9, 42, 0
4, 20189, Note_on_c, 9, 70, 0
4, 20220, Note_on_c, 9, 70, 96
4, 20220, Note_on_c, 9, 42, 55
4, 20249, Note_on_c, 9, 42, 0
4, 20249, Note_on_c, 9, 70, 0
4, 20250, Note_on_c, 9, 70, 84
4, 20250, Note_on_c, 9, 36, 66
4, 20279, Note_on_c, 9, 36, 0
4, 20279, Note_on_c, 9, 70, 0
4, 20280, Note_on_c, 9, 70, 66
4, 20280, Note_on_c, 9, 54, 125
4, 20280, Note_on_c, 9, 40, 108
4, 20280, Note_on_c, 9, 42, 114
4, 20309, Note_on_c, 9, 42, 0
4, 20309, Note_on_c, 9, 70, 0
4, 20309, Note_on_c, 9, 54, 0
4, 20309, Note_on_c, 9, 40, 0
4, 20340, Note_on_c, 9, 70, 96
4, 20340, Note_on_c, 9, 36, 108
4, 20340, Note_on_c, 9, 42, 77
4, 20369, Note_on_c, 9, 42, 0
4, 20369, Note_on_c, 9, 36, 0
4, 20369, Note_on_c, 9, 70, 0
4, 20370, Note_on_c, 9, 70, 61
4, 20370, Note_on_c, 9, 42, 30
4, 20399, Note_on_c, 9, 42, 0
4, 20399, Note_on_c, 9, 70, 0
4, 20400, Note_on_c, 9, 70, 93
4, 20400, Note_on_c, 9, 42, 84
4, 20429, Note_on_c, 9, 42, 0
4, 20429, Note_on_c, 9, 70, 0
4, 20460, Note_on_c, 9, 36, 96
4, 20460, Note_on_c, 9, 42, 84
4, 20460, Note_on_c, 9, 70, 84
4, 20489, Note_on_c, 9, 70, 0
4, 20489, Note_on_c, 9, 42, 0
4, 20489, Note_on_c, 9, 36, 0
4, 20490, Note_on_c, 9, 70, 81
4, 20519, Note_on_c, 9, 70, 0
4, 20520, Note_on_c, 9, 40, 108
4, 20520, Note_on_c, 9, 54, 127
4, 20520, Note_on_c, 9, 42, 96
4, 20520, Note_on_c, 9, 70, 108
4, 20549, Note_on_c, 9, 70, 0
4, 20549, Note_on_c, 9, 40, 0
4, 20549, Note_on_c, 9, 54, 0
4, 20549, Note_on_c, 9, 42, 0
4, 20580, Note_on_c, 9, 70, 89
4, 20580, Note_on_c, 9, 36, 35
4, 20580, Note_on_c, 9, 42, 64
4, 20609, Note_on_c, 9, 42, 0
4, 20609, Note_on_c, 9, 36, 0
4, 20609, Note_on_c, 9, 70, 0
4, 20610, Note_on_c, 9, 70, 58
4, 20610, Note_on_c, 9, 42, 48
4, 20639, Note_on_c, 9, 42, 0
4, 20639, Note_on_c, 9, 70, 0
4, 20640, Note_on_c, 9, 36, 127
4, 20640, Note_on_c, 9, 42, 89
4, 20640, Note_on_c, 9, 70, 81
4, 20669, Note_on_c, 9, 70, 0
4, 20669, Note_on_c, 9, 42, 0
4, 20669, Note_on_c, 9, 36, 0
4, 20700, Note_on_c, 9, 42, 61
4, 20700, Note_on_c, 9, 70, 84
4, 20729, Note_on_c, 9, 70, 0
4, 20729, Note_on_c, 9, 42, 0
4, 20730, Note_on_c, 9, 70, 66
4, 20759, Note_on_c, 9, 70, 0
4, 20760, Note_on_c, 9, 54, 125
4, 20760, Note_on_c, 9, 40, 127
4, 20760, Note_on_c, 9, 42, 99
4, 20760, Note_on_c, 9, 70, 91
4, 20789, Note_on_c, 9, 70, 0
4, 20789, Note_on_c, 9, 54, 0
4, 20789, Note_on_c, 9, 40, 0
4, 20789, Note_on_c, 9, 42, 0
4, 20820, Note_on_c, 9, 70, 74
4, 20820, Note_on_c, 9, 36, 111
4, 20820, Note_on_c, 9, 42, 77
4, 20849, Note_on_c, 9, 42, 0
4, 20849, Note_on_c, 9, 36, 0
4, 20849, Note_on_c, 9, 70, 0
4, 20850, Note_on_c, 9, 70, 89
4, 20850, Note_on_c, 9, 42, 35
4, 20879, Note_on_c, 9, 42, 0
4, 20879, Note_on_c, 9, 70, 0
4, 20880, Note_on_c, 9, 42, 89
4, 20880, Note_on_c, 9, 70, 89
4, 20909, Note_on_c, 9, 70, 0
4, 20909, Note_on_c, 9, 42, 0
4, 20940, Note_on_c, 9, 36, 74
4, 20940, Note_on_c, 9, 42, 58
4, 20940, Note_on_c, 9, 70, 99
4, 20969, Note_on_c, 9, 70, 0
4, 20969, Note_on_c, 9, 42, 0
4, 20969, Note_on_c, 9, 36, 0
4, 20970, Note_on_c, 9, 70, 72
4, 20999, Note_on_c, 9, 70, 0
4, 21000, Note_on_c, 9, 70, 96
4, 21000, Note_on_c, 9, 42, 86
4, 21000, Note_on_c, 9, 40, 127
4, 21000, Note_on_c, 9, 54, 127
4, 21029, Note_on_c, 9, 54, 0
4, 21029, Note_on_c, 9, 70, 0
4, 21029, Note_on_c, 9, 42, 0
4, 21029, Note_on_c, 9, 40, 0
4, 21060, Note_on_c, 9, 70, 93
4, 21060, Note_on_c, 9, 42, 22
4, 21060, Note_on_c, 9, 36, 43
4, 21089, Note_on_c, 9, 36, 0
4, 21089, Note_on_c, 9, 42, 0
4, 21089, Note_on_c, 9, 70, 0
4, 21090, Note_on_c, 9, 70, 72
4, 21090, Note_on_c, 9, 42, 66
4, 21119, Note_on_c, 9, 42, 0
4, 21119, Note_on_c, 9, 70, 0
4, 21120, Note_on_c, 9, 70, 91
4, 21120, Note_on_c, 9, 36, 127
4, 21120, Note_on_c, 9, 42, 84
4, 21149, Note_on_c, 9, 42, 0
4, 21149, Note_on_c, 9, 36, 0
4, 21149, Note_on_c, 9, 70, 0
4, 21180, Note_on_c, 9, 42, 66
4, 21180, Note_on_c, 9, 70, 89
4, 21209, Note_on_c, 9, 70, 0
4, 21209, Note_on_c, 9, 42, 0
4, 21210, Note_on_c, 9, 36, 79
4, 21210, Note_on_c, 9, 70, 77
4, 21239, Note_on_c, 9, 70, 0
4, 21239, Note_on_c, 9, 36, 0
4, 21240, Note_on_c, 9, 70, 74
4, 21240, Note_on_c, 9, 42, 96
4, 21240, Note_on_c, 9, 40, 126
4, 21240, Note_on_c, 9, 54, 125
4, 21269, Note_on_c, 9, 54, 0
4, 21269, Note_on_c, 9, 70, 0
4, 21269, Note_on_c, 9, 42, 0
4, 21269, Note_on_c, 9, 40, 0
4, 21300, Note_on_c, 9, 70, 69
4, 21300, Note_on_c, 9, 42, 66
4, 21300, Note_on_c, 9, 36, 117
4, 21329, Note_on_c, 9, 36, 0
4, 21329, Note_on_c, 9, 42, 0
4, 21329, Note_on_c, 9, 70, 0
4, 21330, Note_on_c, 9, 70, 69
4, 21330, Note_on_c, 9, 42, 55
4, 21359, Note_on_c, 9, 42, 0
4, 21359, Note_on_c, 9, 70, 0
4, 21360, Note_on_c, 9, 70, 91
4, 21360, Note_on_c, 9, 42, 66
4, 21389, Note_on_c, 9, 42, 0
4, 21389, Note_on_c, 9, 70, 0
4, 21420, Note_on_c, 9, 36, 84
4, 21420, Note_on_c, 9, 46, 102
4, 21420, Note_on_c, 9, 70, 96
4, 21449, Note_on_c, 9, 70, 0
4, 21449, Note_on_c, 9, 46, 0
4, 21449, Note_on_c, 9, 36, 0
4, 21450, Note_on_c, 9, 70, 77
4, 21479, Note_on_c, 9, 70, 0
4, 21480, Note_on_c, 9, 40, 127
4, 21480, Note_on_c, 9, 54, 127
4, 21480, Note_on_c, 9, 42, 120
4, 21480, Note_on_c, 9, 70, 102
4, 21509, Note_on_c, 9, 70, 0
4, 21509, Note_on_c, 9, 40, 0
4, 21509, Note_on_c, 9, 54, 0
4, 21509, Note_on_c, 9, 42, 0
4, 21540, Note_on_c, 9, 70, 93
4, 21540, Note_on_c, 9, 42, 39
4, 21540, Note_on_c, 9, 36, 51
4, 21569, Note_on_c, 9, 36, 0
4, 21569, Note_on_c, 9, 42, 0
4, 21569, Note_on_c, 9, 70, 0
4, 21570, Note_on_c, 9, 70, 86
4, 21570, Note_on_c, 9, 42, 35
4, 21599, Note_on_c, 9, 42, 0
4, 21599, Note_on_c, 9, 70, 0
4, 21600, Note_on_c, 9, 70, 111
4, 21600, Note_on_c, 9, 42, 89
4, 21600, Note_on_c, 9, 36, 127
4, 21629, Note_on_c, 9, 36, 0
4, 21629, Note_on_c, 9, 42, 0
4, 21629, Note_on_c, 9, 70, 0
4, 21660, Note_on_c, 9, 70, 89
4, 21660, Note_on_c, 9, 42, 84
4, 21689, Note_on_c, 9, 42, 0
4, 21689, Note_on_c, 9, 70, 0
4, 21690, Note_on_c, 9, 70, 66
4, 21719, Note_on_c, 9, 70, 0
4, 21720, Note_on_c, 9, 70, 79
4, 21720, Note_on_c, 9, 42, 111
4, 21720, Note_on_c, 9, 54, 125
4, 21720, Note_on_c, 9, 40, 127
4, 21749, Note_on_c, 9, 40, 0
4, 21749, Note_on_c, 9, 70, 0
4, 21749, Note_on_c, 9, 42, 0
4, 21749, Note_on_c, 9, 54, 0
4, 21780, Note_on_c, 9, 70, 91
4, 21780, Note_on_c, 9, 42, 64
4, 21780, Note_on_c, 9, 36, 117
4, 21809, Note_on_c, 9, 36, 0
4, 21809, Note_on_c, 9, 42, 0
4, 21809, Note_on_c, 9, 70, 0
4, 21810, Note_on_c, 9, 70, 77
4, 21810, Note_on_c, 9, 42, 48
4, 21839, Note_on_c, 9, 42, 0
4, 21839, Note_on_c, 9, 70, 0
4, 21840, Note_on_c, 9, 70, 89
4, 21840, Note_on_c, 9, 42, 58
4, 21869, Note_on_c, 9, 42, 0
4, 21869, Note_on_c, 9, 70, 0
4, 21900, Note_on_c, 9, 36, 72
4, 21900, Note_on_c, 9, 42, 86
4, 21900, Note_on_c, 9, 70, 86
4, 21929, Note_on_c, 9, 70, 0
4, 21929, Note_on_c, 9, 42, 0
4, 21929, Note_on_c, 9, 36, 0
4, 21930, Note_on_c, 9, 70, 61
4, 21959, Note_on_c, 9, 70, 0
4, 21960, Note_on_c, 9, 40, 127
4, 21960, Note_on_c, 9, 54, 127
4, 21960, Note_on_c, 9, 42, 111
4, 21960, Note_on_c, 9, 70, 72
4, 21989, Note_on_c, 9, 70, 0
4, 21989, Note_on_c, 9, 40, 0
4, 21989, Note_on_c, 9, 54, 0
4, 21989, Note_on_c, 9, 42, 0
4, 22020, Note_on_c, 9, 70, 89
4, 22020, Note_on_c, 9, 36, 43
4, 22020, Note_on_c, 9, 42, 84
4, 22049, Note_on_c, 9, 42, 0
4, 22049, Note_on_c, 9, 36, 0
4, 22049, Note_on_c, 9, 70, 0
4, 22050, Note_on_c, 9, 70, 66
4, 22050, Note_on_c, 9, 42, 48
4, 22079, Note_on_c, 9, 42, 0
4, 22079, Note_on_c, 9, 70, 0
4, 22080, Note_on_c, 9, 70, 64
4, 22080, Note_on_c, 9, 42, 86
4, 22080, Note_on_c, 9, 36, 127
4, 22109, Note_on_c, 9, 36, 0
4, 22109, Note_on_c, 9, 42, 0
4, 22109, Note_on_c, 9, 70, 0
4, 22140, Note_on_c, 9, 70, 74
4, 22140, Note_on_c, 9, 42, 72
4, 22169, Note_on_c, 9, 42, 0
4, 22169, Note_on_c, 9, 70, 0
4, 22170, Note_on_c, 9, 70, 66
4, 22199, Note_on_c, 9, 70, 0
4, 22200, Note_on_c, 9, 70, 84
4, 22200, Note_on_c, 9, 42, 102
4, 22200, Note_on_c, 9, 40, 127
4, 22200, Note_on_c, 9, 54, 125
4, 22229, Note_on_c, 9, 54, 0
4, 22229, Note_on_c, 9, 70, 0
4, 22229, Note_on_c, 9, 42, 0
4, 22229, Note_on_c, 9, 40, 0
4, 22260, Note_on_c, 9, 42, 120
4, 22260, Note_on_c, 9, 36, 124
4, 22260, Note_on_c, 9, 70, 64
4, 22289, Note_on_c, 9, 70, 0
4, 22289, Note_on_c, 9, 36, 0
4, 22289, Note_on_c, 9, 42, 0
4, 22290, Note_on_c, 9, 42, 48
4, 22290, Note_on_c, 9, 70, 69
4, 22319, Note_on_c, 9, 70, 0
4, 22319, Note_on_c, 9, 42, 0
4, 22320, Note_on_c, 9, 42, 77
4, 22320, Note_on_c, 9, 70, 89
4, 22349, Note_on_c, 9, 70, 0
4, 22349, Note_on_c, 9, 42, 0
4, 22380, Note_on_c, 9, 70, 89
4, 22380, Note_on_c, 9, 36, 74
4, 22380, Note_on_c, 9, 42, 69
4, 22409, Note_on_c, 9, 42, 0
4, 22409, Note_on_c, 9, 36, 0
4, 22409, Note_on_c, 9, 70, 0
4, 22410, Note_on_c, 9, 70, 61
4, 22439, Note_on_c, 9, 70, 0
4, 22440, Note_on_c, 9, 70, 89
4, 22440, Note_on_c, 9, 40, 123
4, 22440, Note_on_c, 9, 54, 127
4, 22440, Note_on_c, 9, 42, 96
4, 22469, Note_on_c, 9, 42, 0
4, 22469, Note_on_c, 9, 70, 0
4, 22469, Note_on_c, 9, 40, 0
4, 22469, Note_on_c, 9, 54, 0
4, 22500, Note_on_c, 9, 70, 81
4, 22500, Note_on_c, 9, 42, 66
4, 22500, Note_on_c, 9, 36, 55
4, 22529, Note_on_c, 9, 36, 0
4, 22529, Note_on_c, 9, 42, 0
4, 22529, Note_on_c, 9, 70, 0
4, 22530, Note_on_c, 9, 70, 74
4, 22530, Note_on_c, 9, 42, 26
4, 22559, Note_on_c, 9, 42, 0
4, 22559, Note_on_c, 9, 70, 0
4, 22560, Note_on_c, 9, 70, 96
4, 22560, Note_on_c, 9, 42, 66
4, 22560, Note_on_c, 9, 36, 102
4, 22589, Note_on_c, 9, 36, 0
4, 22589, Note_on_c, 9, 42, 0
4, 22589, Note_on_c, 9, 70, 0
4, 22620, Note_on_c, 9, 70, 69
4, 22620, Note_on_c, 9, 42, 61
4, 22649, Note_on_c, 9, 42, 0
4, 22649, Note_on_c, 9, 70, 0
4, 22650, Note_on_c, 9, 70, 72
4, 22679, Note_on_c, 9, 70, 0
4, 22680, Note_on_c, 9, 70, 105
4, 22680, Note_on_c, 9, 42, 117
4, 22680, Note_on_c, 9, 54, 125
4, 22680, Note_on_c, 9, 40, 127
4, 22709, Note_on_c, 9, 40, 0
4, 22709, Note_on_c, 9, 70, 0
4, 22709, Note_on_c, 9, 42, 0
4, 22709, Note_on_c, 9, 54, 0
4, 22740, Note_on_c, 9, 70, 93
4, 22740, Note_on_c, 9, 42, 61
4, 22740, Note_on_c, 9, 36, 108
4, 22769, Note_on_c, 9, 36, 0
4, 22769, Note_on_c, 9, 42, 0
4, 22769, Note_on_c, 9, 70, 0
4, 22770, Note_on_c, 9, 70, 72
4, 22770, Note_on_c, 9, 42, 26
4, 22799, Note_on_c, 9, 42, 0
4, 22799, Note_on_c, 9, 70, 0
4, 22800, Note_on_c, 9, 70, 89
4, 22800, Note_on_c, 9, 42, 77
4, 22829, Note_on_c, 9, 42, 0
4, 22829, Note_on_c, 9, 70, 0
4, 22860, Note_on_c, 9, 70, 81
4, 22860, Note_on_c, 9, 36, 74
4, 22860, Note_on_c, 9, 42, 69
4, 22889, Note_on_c, 9, 42, 0
4, 22889, Note_on_c, 9, 36, 0
4, 22889, Note_on_c, 9, 70, 0
4, 22890, Note_on_c, 9, 70, 77
4, 22919, Note_on_c, 9, 70, 0
4, 22920, Note_on_c, 9, 70, 102
4, 22920, Note_on_c, 9, 42, 123
4, 22920, Note_on_c, 9, 40, 127
4, 22920, Note_on_c, 9, 54, 127
4, 22949, Note_on_c, 9, 54, 0
4, 22949, Note_on_c, 9, 70, 0
4, 22949, Note_on_c, 9, 42, 0
4, 22949, Note_on_c, 9, 40, 0
4, 22980, Note_on_c, 9, 70, 81
4, 22980, Note_on_c, 9, 42, 66
4, 23009, Note_on_c, 9, 42, 0
4, 23009, Note_on_c, 9, 70, 0
4, 23010, Note_on_c, 9, 70, 84
4, 23010, Note_on_c, 9, 42, 48
4, 23039, Note_on_c, 9, 42, 0
4, 23039, Note_on_c, 9, 70, 0
4, 23040, Note_on_c, 9, 70, 91
4, 23040, Note_on_c, 9, 42, 84
4, 23040, Note_on_c, 9, 36, 126
4, 23069, Note_on_c, 9, 36, 0
4, 23069, Note_on_c, 9, 42, 0
4, 23069, Note_on_c, 9, 70, 0
4, 23100, Note_on_c, 9, 70, 84
4, 23100, Note_on_c, 9, 42, 39
4, 23129, Note_on_c, 9, 42, 0
4, 23129, Note_on_c, 9, 70, 0
4, 23130, Note_on_c, 9, 36, 55
4, 23130, Note_on_c, 9, 70, 81
4, 23159, Note_on_c, 9, 70, 0
4, 23159, Note_on_c, 9, 36, 0
4, 23160, Note_on_c, 9, 42, 72
4, 23160, Note_on_c, 9, 54, 125
4, 23160, Note_on_c, 9, 40, 127
4, 23160, Note_on_c, 9, 70, 111
4, 23189, Note_on_c, 9, 70, 0
4, 23189, Note_on_c, 9, 42, 0
4, 23189, Note_on_c, 9, 54, 0
4, 23189, Note_on_c, 9, 40, 0
4, 23220, Note_on_c, 9, 70, 66
4, 23220, Note_on_c, 9, 42, 61
4, 23220, Note_on_c, 9, 36, 127
4, 23249, Note_on_c, 9, 36, 0
4, 23249, Note_on_c, 9, 42, 0
4, 23249, Note_on_c, 9, 70, 0
4, 23250, Note_on_c, 9, 70, 64
4, 23279, Note_on_c, 9, 70, 0
4, 23280, Note_on_c, 9, 70, 117
4, 23280, Note_on_c, 9, 42, 99
4, 23280, Note_on_c, 9, 47, 84
4, 23309, Note_on_c, 9, 47, 0
4, 23309, Note_on_c, 9, 42, 0
4, 23309, Note_on_c, 9, 70, 0
4, 23310, Note_on_c, 9, 47, 81
4, 23339, Note_on_c, 9, 47, 0
4, 23340, Note_on_c, 9, 70, 77
4, 23340, Note_on_c, 9, 45, 127
4, 23340, Note_on_c, 9, 46, 64
4, 23369, Note_on_c, 9, 46, 0
4, 23369, Note_on_c, 9, 45, 0
4, 23369, Note_on_c, 9, 70, 0
4, 23370, Note_on_c, 9, 70, 64
4, 23399, Note_on_c, 9, 70, 0
4, 23400, Note_on_c, 9, 70, 108
4, 23400, Note_on_c, 9, 40, 127
4, 23400, Note_on_c, 9, 54, 127
4, 23429, Note_on_c, 9, 54, 0
4, 23429, Note_on_c, 9, 40, 0
4, 23429, Note_on_c, 9, 70, 0
4, 23460, Note_on_c, 9, 70, 96
4, 23460, Note_on_c, 9, 40, 66
4, 23489, Note_on_c, 9, 40, 0
4, 23489, Note_on_c, 9, 70, 0
4, 23490, Note_on_c, 9, 70, 81
4, 23490, Note_on_c, 9, 40, 91
4, 23519, Note_on_c, 9, 40, 0
4, 23519, Note_on_c, 9, 70, 0
4, 23520, Note_on_c, 9, 36, 93
4, 23520, Note_on_c, 9, 55, 84
4, 23549, Note_on_c, 9, 55, 0
4, 23549, Note_on_c, 9, 36, 0
4, 23580, Note_on_c, 9, 42, 35
4, 23609, Note_on_c, 9, 42, 0
4, 23640, Note_on_c, 9, 42, 111
4, 23640, Note_on_c, 9, 40, 120
4, 23640, Note_on_c, 9, 54, 125
4, 23669, Note_on_c, 9, 54, 0
4, 23669, Note_on_c, 9, 40, 0
4, 23669, Note_on_c, 9, 42, 0
4, 23700, Note_on_c, 9, 42, 48
4, 23700, Note_on_c, 9, 36, 99
4, 23729, Note_on_c, 9, 36, 0
4, 23729, Note_on_c, 9, 42, 0
4, 23730, Note_on_c, 9, 42, 55
4, 23759, Note_on_c, 9, 42, 0
4, 23760, Note_on_c, 9, 42, 58
4, 23789, Note_on_c, 9, 42, 0
4, 23820, Note_on_c, 9, 36, 58
4, 23820, Note_on_c, 9, 42, 66
4, 23849, Note_on_c, 9, 42, 0
4, 23849, Note_on_c, 9, 36, 0
4, 23880, Note_on_c, 9, 54, 127
4, 23880, Note_on_c, 9, 40, 114
4, 23880, Note_on_c, 9, 42, 127
4, 23909, Note_on_c, 9, 42, 0
4, 23909, Note_on_c, 9, 40, 0
4, 23909, Note_on_c, 9, 54, 0
4, 23940, Note_on_c, 9, 36, 55
4, 23940, Note_on_c, 9, 42, 72
4, 23969, Note_on_c, 9, 42, 0
4, 23969, Note_on_c, 9, 36, 0
4, 23970, Note_on_c, 9, 42, 51
4, 23999, Note_on_c, 9, 42, 0
4, 24000, Note_on_c, 9, 36, 124
4, 24000, Note_on_c, 9, 42, 74
4, 24029, Note_on_c, 9, 42, 0
4, 24029, Note_on_c, 9, 36, 0
4, 24060, Note_on_c, 9, 42, 77
4, 24089, Note_on_c, 9, 42, 0
4, 24120, Note_on_c, 9, 40, 99
4, 24120, Note_on_c, 9, 54, 125
4, 24120, Note_on_c, 9, 42, 91
4, 24149, Note_on_c, 9, 42, 0
4, 24149, Note_on_c, 9, 54, 0
4, 24149, Note_on_c, 9, 40, 0
4, 24180, Note_on_c, 9, 36, 69
4, 24180, Note_on_c, 9, 42, 48
4, 24209, Note_on_c, 9, 42, 0
4, 24209, Note_on_c, 9, 36, 0
4, 24210, Note_on_c, 9, 42, 39
4, 24239, Note_on_c, 9, 42, 0
4, 24240, Note_on_c, 9, 42, 77
4, 24269, Note_on_c, 9, 42, 0
4, 24300, Note_on_c, 9, 42, 77
4, 24300, Note_on_c, 9, 36, 72
4, 24329, Note_on_c, 9, 36, 0
4, 24329, Note_on_c, 9, 42, 0
4, 24360, Note_on_c, 9, 54, 127
4, 24360, Note_on_c, 9, 40, 124
4, 24360, Note_on_c, 9, 42, 91
4, 24389, Note_on_c, 9, 42, 0
4, 24389, Note_on_c, 9, 40, 0
4, 24389, Note_on_c, 9, 54, 0
4, 24420, Note_on_c, 9, 42, 84
4, 24420, Note_on_c, 9, 36, 39
4, 24449, Note_on_c, 9, 36, 0
4, 24449, Note_on_c, 9, 42, 0
4, 24450, Note_on_c, 9, 42, 26
4, 24479, Note_on_c, 9, 42, 0
4, 24480, Note_on_c, 9, 42, 84
4, 24480, Note_on_c, 9, 36, 124
4, 24509, Note_on_c, 9, 36, 0
4, 24509, Note_on_c, 9, 42, 0
4, 24540, Note_on_c, 9, 42, 66
4, 24569, Note_on_c, 9, 42, 0
4, 24600, Note_on_c, 9, 54, 125
4, 24600, Note_on_c, 9, 40, 96
4, 24600, Note_on_c, 9, 42, 89
4, 24629, Note_on_c, 9, 42, 0
4, 24629, Note_on_c, 9, 40, 0
4, 24629, Note_on_c, 9, 54, 0
4, 24660, Note_on_c, 9, 36, 79
4, 24660, Note_on_c, 9, 42, 72
4, 24689, Note_on_c, 9, 42, 0
4, 24689, Note_on_c, 9, 36, 0
4, 24690, Note_on_c, 9, 42, 55
4, 24719, Note_on_c, 9, 42, 0
4, 24720, Note_on_c, 9, 42, 61
4, 24749, Note_on_c, 9, 42, 0
4, 24780, Note_on_c, 9, 36, 39
4, 24780, Note_on_c, 9, 42, 48
4, 24809, Note_on_c, 9, 42, 0
4, 24809, Note_on_c, 9, 36, 0
4, 24840, Note_on_c, 9, 54, 127
4, 24840, Note_on_c, 9, 40, 124
4, 24840, Note_on_c, 9, 42, 89
4, 24869, Note_on_c, 9, 42, 0
4, 24869, Note_on_c, 9, 40, 0
4, 24869, Note_on_c, 9, 54, 0
4, 24900, Note_on_c, 9, 42, 39
4, 24900, Note_on_c, 9, 36, 48
4, 24929, Note_on_c, 9, 36, 0
4, 24929, Note_on_c, 9, 42, 0
4, 24930, Note_on_c, 9, 42, 26
4, 24959, Note_on_c, 9, 42, 0
4, 24960, Note_on_c, 9, 42, 77
4, 24960, Note_on_c, 9, 36, 84
4, 24989, Note_on_c, 9, 36, 0
4, 24989, Note_on_c, 9, 42, 0
4, 25020, Note_on_c, 9, 42, 35
4, 25049, Note_on_c, 9, 42, 0
4, 25050, Note_on_c, 9, 36, 48
4, 25079, Note_on_c, 9, 36, 0
4, 25080, Note_on_c, 9, 54, 125
4, 25080, Note_on_c, 9, 40, 127
4, 25080, Note_on_c, 9, 42, 86
4, 25109, Note_on_c, 9, 42, 0
4, 25109, Note_on_c, 9, 40, 0
4, 25109, Note_on_c, 9, 54, 0
4, 25140, Note_on_c, 9, 36, 96
4, 25140, Note_on_c, 9, 42, 51
4, 25169, Note_on_c, 9, 42, 0
4, 25169, Note_on_c, 9, 36, 0
4, 25170, Note_on_c, 9, 42, 39
4, 25199, Note_on_c, 9, 42, 0
4, 25200, Note_on_c, 9, 42, 61
4, 25229, Note_on_c, 9, 42, 0
4, 25260, Note_on_c, 9, 36, 51
4, 25260, Note_on_c, 9, 42, 89
4, 25289, Note_on_c, 9, 42, 0
4, 25289, Note_on_c, 9, 36, 0
4, 25320, Note_on_c, 9, 54, 127
4, 25320, Note_on_c, 9, 40, 126
4, 25320, Note_on_c, 9, 42, 69
4, 25349, Note_on_c, 9, 42, 0
4, 25349, Note_on_c, 9, 40, 0
4, 25349, Note_on_c, 9, 54, 0
4, 25380, Note_on_c, 9, 36, 14
4, 25380, Note_on_c, 9, 42, 66
4, 25409, Note_on_c, 9, 42, 0
4, 25409, Note_on_c, 9, 36, 0
4, 25410, Note_on_c, 9, 42, 61
4, 25439, Note_on_c, 9, 42, 0
4, 25440, Note_on_c, 9, 42, 96
4, 25440, Note_on_c, 9, 36, 96
4, 25469, Note_on_c, 9, 36, 0
4, 25469, Note_on_c, 9, 42, 0
4, 25500, Note_on_c, 9, 42, 61
4, 25529, Note_on_c, 9, 42, 0
4, 25560, Note_on_c, 9, 40, 108
4, 25560, Note_on_c, 9, 54, 125
4, 25560, Note_on_c, 9, 42, 111
4, 25589, Note_on_c, 9, 42, 0
4, 25589, Note_on_c, 9, 54, 0
4, 25589, Note_on_c, 9, 40, 0
4, 25620, Note_on_c, 9, 36, 69
4, 25620, Note_on_c, 9, 42, 35
4, 25649, Note_on_c, 9, 42, 0
4, 25649, Note_on_c, 9, 36, 0
4, 25650, Note_on_c, 9, 42, 35
4, 25679, Note_on_c, 9, 42, 0
4, 25680, Note_on_c, 9, 42, 102
4, 25709, Note_on_c, 9, 42, 0
4, 25740, Note_on_c, 9, 36, 51
4, 25740, Note_on_c, 9, 42, 72
4, 25769, Note_on_c, 9, 42, 0
4, 25769, Note_on_c, 9, 36, 0
4, 25800, Note_on_c, 9, 54, 127
4, 25800, Note_on_c, 9, 40, 99
4, 25800, Note_on_c, 9, 42, 105
4, 25829, Note_on_c, 9, 42, 0
4, 25829, Note_on_c, 9, 40, 0
4, 25829, Note_on_c, 9, 54, 0
4, 25860, Note_on_c, 9, 42, 58
4, 25860, Note_on_c, 9, 36, 48
4, 25889, Note_on_c, 9, 36, 0
4, 25889, Note_on_c, 9, 42, 0
4, 25890, Note_on_c, 9, 42, 35
4, 25919, Note_on_c, 9, 42, 0
4, 25920, Note_on_c, 9, 42, 111
4, 25920, Note_on_c, 9, 36, 99
4, 25949, Note_on_c, 9, 36, 0
4, 25949, Note_on_c, 9, 42, 0
4, 25980, Note_on_c, 9, 42, 89
4, 26009, Note_on_c, 9, 42, 0
4, 26040, Note_on_c, 9, 42, 81
4, 26040, Note_on_c, 9, 40, 96
4, 26040, Note_on_c, 9, 54, 125
4, 26069, Note_on_c, 9, 54, 0
4, 26069, Note_on_c, 9, 40, 0
4, 26069, Note_on_c, 9, 42, 0
4, 26100, Note_on_c, 9, 42, 77
4, 26100, Note_on_c, 9, 36, 81
4, 26129, Note_on_c, 9, 36, 0
4, 26129, Note_on_c, 9, 42, 0
4, 26130, Note_on_c, 9, 42, 39
4, 26159, Note_on_c, 9, 42, 0
4, 26160, Note_on_c, 9, 42, 72
4, 26189, Note_on_c, 9, 42, 0
4, 26220, Note_on_c, 9, 36, 66
4, 26220, Note_on_c, 9, 42, 55
4, 26249, Note_on_c, 9, 42, 0
4, 26249, Note_on_c, 9, 36, 0
4, 26280, Note_on_c, 9, 54, 127
4, 26280, Note_on_c, 9, 40, 120
4, 26280, Note_on_c, 9, 42, 91
4, 26309, Note_on_c, 9, 42, 0
4, 26309, Note_on_c, 9, 40, 0
4, 26309, Note_on_c, 9, 54, 0
4, 26340, Note_on_c, 9, 42, 43
4, 26340, Note_on_c, 9, 36, 64
4, 26369, Note_on_c, 9, 36, 0
4, 26369, Note_on_c, 9, 42, 0
4, 26370, Note_on_c, 9, 42, 39
4, 26399, Note_on_c, 9, 42, 0
4, 26400, Note_on_c, 9, 42, 51
4, 26400, Note_on_c, 9, 36, 123
4, 26429, Note_on_c, 9, 36, 0
4, 26429, Note_on_c, 9, 42, 0
4, 26460, Note_on_c, 9, 42, 55
4, 26489, Note_on_c, 9, 42, 0
4, 26520, Note_on_c, 9, 42, 84
4, 26520, Note_on_c, 9, 54, 125
4, 26520, Note_on_c, 9, 40, 89
4, 26549, Note_on_c, 9, 40, 0
4, 26549, Note_on_c, 9, 54, 0
4, 26549, Note_on_c, 9, 42, 0
4, 26580, Note_on_c, 9, 42, 66
4, 26580, Note_on_c, 9, 36, 89
4, 26609, Note_on_c, 9, 36, 0
4, 26609, Note_on_c, 9, 42, 0
4, 26610, Note_on_c, 9, 42, 30
4, 26639, Note_on_c, 9, 42, 0
4, 26640, Note_on_c, 9, 42, 72
4, 26669, Note_on_c, 9, 42, 0
4, 26700, Note_on_c, 9, 42, 35
4, 26700, Note_on_c, 9, 36, 43
4, 26729, Note_on_c, 9, 36, 0
4, 26729, Note_on_c, 9, 42, 0
4, 26760, Note_on_c, 9, 54, 127
4, 26760, Note_on_c, 9, 40, 111
4, 26760, Note_on_c, 9, 42, 111
4, 26789, Note_on_c, 9, 42, 0
4, 26789, Note_on_c, 9, 40, 0
4, 26789, Note_on_c, 9, 54, 0
4, 26820, Note_on_c, 9, 42, 39
4, 26820, Note_on_c, 9, 36, 55
4, 26849, Note_on_c, 9, 36, 0
4, 26849, Note_on_c, 9, 42, 0
4, 26850, Note_on_c, 9, 42, 51
4, 26879, Note_on_c, 9, 42, 0
4, 26880, Note_on_c, 9, 36, 86
4, 26880, Note_on_c, 9, 42, 77
4, 26909, Note_on_c, 9, 42, 0
4, 26909, Note_on_c, 9, 36, 0
4, 26940, Note_on_c, 9, 46, 124
4, 26969, Note_on_c, 9, 46, 0
4, 26970, Note_on_c, 9, 36, 69
4, 26999, Note_on_c, 9, 36, 0
4, 27000, Note_on_c, 9, 40, 99
4, 27000, Note_on_c, 9, 54, 125
4, 27000, Note_on_c, 9, 42, 126
4, 27029, Note_on_c, 9, 42, 0
4, 27029, Note_on_c, 9, 54, 0
4, 27029, Note_on_c, 9, 40, 0
4, 27060, Note_on_c, 9, 42, 55
4, 27060, Note_on_c, 9, 36, 86
4, 27089, Note_on_c, 9, 36, 0
4, 27089, Note_on_c, 9, 42, 0
4, 27090, Note_on_c, 9, 42, 43
4, 27119, Note_on_c, 9, 42, 0
4, 27120, Note_on_c, 9, 42, 48
4, 27149, Note_on_c, 9, 42, 0
4, 27180, Note_on_c, 9, 36, 43
4, 27180, Note_on_c, 9, 42, 66
4, 27209, Note_on_c, 9, 42, 0
4, 27209, Note_on_c, 9, 36, 0
4, 27240, Note_on_c, 9, 54, 127
4, 27240, Note_on_c, 9, 40, 127
4, 27240, Note_on_c, 9, 42, 93
4, 27269, Note_on_c, 9, 42, 0
4, 27269, Note_on_c, 9, 40, 0
4, 27269, Note_on_c, 9, 54, 0
4, 27300, Note_on_c, 9, 36, 51
4, 27300, Note_on_c, 9, 42, 39
4, 27329, Note_on_c, 9, 42, 0
4, 27329, Note_on_c, 9, 36, 0
4, 27330, Note_on_c, 9, 42, 39
4, 27359, Note_on_c, 9, 42, 0
4, 27360, Note_on_c, 9, 42, 74
4, 27360, Note_on_c, 9, 36, 127
4, 27389, Note_on_c, 9, 36, 0
4, 27389, Note_on_c, 9, 42, 0
4, 27420, Note_on_c, 9, 42, 66
4, 27449, Note_on_c, 9, 42, 0
4, 27480, Note_on_c, 9, 42, 108
4, 27480, Note_on_c, 9, 40, 125
4, 27480, Note_on_c, 9, 54, 125
4, 27509, Note_on_c, 9, 54, 0
4, 27509, Note_on_c, 9, 40, 0
4, 27509, Note_on_c, 9, 42, 0
4, 27540, Note_on_c, 9, 42, 26
4, 27540, Note_on_c, 9, 36, 72
4, 27569, Note_on_c, 9, 36, 0
4, 27569, Note_on_c, 9, 42, 0
4, 27570, Note_on_c, 9, 42, 35
4, 27599, Note_on_c, 9, 42, 0
4, 27600, Note_on_c, 9, 42, 84
4, 27629, Note_on_c, 9, 42, 0
4, 27660, Note_on_c, 9, 42, 66
4, 27660, Note_on_c, 9, 36, 48
4, 27689, Note_on_c, 9, 36, 0
4, 27689, Note_on_c, 9, 42, 0
4, 27720, Note_on_c, 9, 54, 127
4, 27720, Note_on_c, 9, 40, 126
4, 27720, Note_on_c, 9, 42, 79
4, 27749, Note_on_c, 9, 42, 0
4, 27749, Note_on_c, 9, 40, 0
4, 27749, Note_on_c, 9, 54, 0
4, 27780, Note_on_c, 9, 42, 72
4, 27780, Note_on_c, 9, 36, 51
4, 27809, Note_on_c, 9, 36, 0
4, 27809, Note_on_c, 9, 42, 0
4, 27810, Note_on_c, 9, 42, 39
4, 27839, Note_on_c, 9, 42, 0
4, 27840, Note_on_c, 9, 42, 69
4, 27840, Note_on_c, 9, 36, 127
4, 27869, Note_on_c, 9, 36, 0
4, 27869, Note_on_c, 9, 42, 0
4, 27900, Note_on_c, 9, 42, 72
4, 27929, Note_on_c, 9, 42, 0
4, 27960, Note_on_c, 9, 54, 125
4, 27960, Note_on_c, 9, 40, 114
4, 27960, Note_on_c, 9, 42, 102
4, 27989, Note_on_c, 9, 42, 0
4, 27989, Note_on_c, 9, 40, 0
4, 27989, Note_on_c, 9, 54, 0
4, 28020, Note_on_c, 9, 42, 48
4, 28049, Note_on_c, 9, 42, 0
4, 28050, Note_on_c, 9, 42, 30
4, 28079, Note_on_c, 9, 42, 0
4, 28080, Note_on_c, 9, 42, 84
4, 28080, Note_on_c, 9, 40, 127
4, 28109, Note_on_c, 9, 40, 0
4, 28109, Note_on_c, 9, 42, 0
4, 28140, Note_on_c, 9, 43, 74
4, 28140, Note_on_c, 9, 36, 58
4, 28169, Note_on_c, 9, 36, 0
4, 28169, Note_on_c, 9, 43, 0
4, 28200, Note_on_c, 9, 54, 127
4, 28200, Note_on_c, 9, 40, 127
4, 28200, Note_on_c, 9, 42, 127
4, 28229, Note_on_c, 9, 42, 0
4, 28229, Note_on_c, 9, 40, 0
4, 28229, Note_on_c, 9, 54, 0
4, 28260, Note_on_c, 9, 36, 35
4, 28260, Note_on_c, 9, 43, 79
4, 28289, Note_on_c, 9, 43, 0
4, 28289, Note_on_c, 9, 36, 0
4, 28320, Note_on_c, 9, 36, 124
4, 28320, Note_on_c, 9, 55, 124
4, 28349, Note_on_c, 9, 55, 0
4, 28349, Note_on_c, 9, 36, 0
4, 28440, Note_on_c, 9, 42, 111
4, 28440, Note_on_c, 9, 40, 125
4, 28440, Note_on_c, 9, 54, 125
4, 28469, Note_on_c, 9, 54, 0
4, 28469, Note_on_c, 9, 40, 0
4, 28469, Note_on_c, 9, 42, 0
4, 28500, Note_on_c, 9, 36, 64
4, 28500, Note_on_c, 9, 42, 39
4, 28529, Note_on_c, 9, 42, 0
4, 28529, Note_on_c, 9, 36, 0
4, 28530, Note_on_c, 9, 42, 14
4, 28559, Note_on_c, 9, 42, 0
4, 28560, Note_on_c, 9, 42, 77
4, 28589, Note_on_c, 9, 42, 0
4, 28620, Note_on_c, 9, 42, 86
4, 28620, Note_on_c, 9, 36, 35
4, 28649, Note_on_c, 9, 36, 0
4, 28649, Note_on_c, 9, 42, 0
4, 28680, Note_on_c, 9, 54, 127
4, 28680, Note_on_c, 9, 40, 123
4, 28680, Note_on_c, 9, 42, 79
4, 28709, Note_on_c, 9, 42, 0
4, 28709, Note_on_c, 9, 40, 0
4, 28709, Note_on_c, 9, 54, 0
4, 28740, Note_on_c, 9, 42, 55
4, 28740, Note_on_c, 9, 36, 43
4, 28769, Note_on_c, 9, 36, 0
4, 28769, Note_on_c, 9, 42, 0
4, 28770, Note_on_c, 9, 42, 18
4, 28799, Note_on_c, 9, 42, 0
4, 28800, Note_on_c, 9, 36, 127
4, 28800, Note_on_c, 9, 42, 77
4, 28829, Note_on_c, 9, 42, 0
4, 28829, Note_on_c, 9, 36, 0
4, 28860, Note_on_c, 9, 42, 89
4, 28889, Note_on_c, 9, 42, 0
4, 28920, Note_on_c, 9, 54, 125
4, 28920, Note_on_c, 9, 40, 127
4, 28920, Note_on_c, 9, 42, 127
4, 28949, Note_on_c, 9, 42, 0
4, 28949, Note_on_c, 9, 40, 0
4, 28949, Note_on_c, 9, 54, 0
4, 28980, Note_on_c, 9, 42, 58
4, 28980, Note_on_c, 9, 36, 89
4, 29009, Note_on_c, 9, 36, 0
4, 29009, Note_on_c, 9, 42, 0
4, 29010, Note_on_c, 9, 42, 55
4, 29039, Note_on_c, 9, 42, 0
4, 29040, Note_on_c, 9, 40, 127
4, 29069, Note_on_c, 9, 40, 0
4, 29100, Note_on_c, 9, 40, 124
4, 29129, Note_on_c, 9, 40, 0
4, 29160, Note_on_c, 9, 54, 127
4, 29160, Note_on_c, 9, 40, 89
4, 29189, Note_on_c, 9, 40, 0
4, 29189, Note_on_c, 9, 54, 0
4, 29190, Note_on_c, 9, 40, 89
4, 29219, Note_on_c, 9, 40, 0
4, 29220, Note_on_c, 9, 45, 127
4, 29249, Note_on_c, 9, 45, 0
4, 29280, Note_on_c, 9, 36, 127
4, 29280, Note_on_c, 9, 59, 126
4, 29280, Note_on_c, 9, 70, 124
4, 29309, Note_on_c, 9, 70, 0
4, 29309, Note_on_c, 9, 59, 0
4, 29309, Note_on_c, 9, 36, 0
4, 29310, Note_on_c, 9, 70, 74
4, 29339, Note_on_c, 9, 70, 0
4, 29340, Note_on_c, 9, 70, 84
4, 29369, Note_on_c, 9, 70, 0
4, 29370, Note_on_c, 9, 70, 86
4, 29399, Note_on_c, 9, 70, 0
4, 29400, Note_on_c, 9, 70, 127
4, 29400, Note_on_c, 9, 54, 125
4, 29400, Note_on_c, 9, 40, 127
4, 29400, Note_on_c, 9, 59, 93
4, 29429, Note_on_c, 9, 59, 0
4, 29429, Note_on_c, 9, 70, 0
4, 29429, Note_on_c, 9, 54, 0
4, 29429, Note_on_c, 9, 40, 0
4, 29430, Note_on_c, 9, 70, 43
4, 29459, Note_on_c, 9, 70, 0
4, 29460, Note_on_c, 9, 70, 64
4, 29460, Note_on_c, 9, 36, 120
4, 29489, Note_on_c, 9, 36, 0
4, 29489, Note_on_c, 9, 70, 0
4, 29490, Note_on_c, 9, 70, 66
4, 29519, Note_on_c, 9, 70, 0
4, 29520, Note_on_c, 9, 70, 117
4, 29520, Note_on_c, 9, 59, 127
4, 29549, Note_on_c, 9, 59, 0
4, 29549, Note_on_c, 9, 70, 0
4, 29550, Note_on_c, 9, 70, 43
4, 29579, Note_on_c, 9, 70, 0
4, 29580, Note_on_c, 9, 70, 61
4, 29580, Note_on_c, 9, 36, 74
4, 29609, Note_on_c, 9, 36, 0
4, 29609, Note_on_c, 9, 70, 0
4, 29610, Note_on_c, 9, 70, 86
4, 29639, Note_on_c, 9, 70, 0
4, 29640, Note_on_c, 9, 54, 127
4, 29640, Note_on_c, 9, 40, 127
4, 29640, Note_on_c, 9, 70, 86
4, 29640, Note_on_c, 9, 59, 126
4, 29669, Note_on_c, 9, 59, 0
4, 29669, Note_on_c, 9, 54, 0
4, 29669, Note_on_c, 9, 40, 0
4, 29669, Note_on_c, 9, 70, 0
4, 29670, Note_on_c, 9, 70, 93
4, 29699, Note_on_c, 9, 70, 0
4, 29700, Note_on_c, 9, 36, 43
4, 29700, Note_on_c, 9, 70, 66
4, 29729, Note_on_c, 9, 70, 0
4, 29729, Note_on_c, 9, 36, 0
4, 29730, Note_on_c, 9, 70, 84
4, 29759, Note_on_c, 9, 70, 0
4, 29760, Note_on_c, 9, 36, 126
4, 29760, Note_on_c, 9, 59, 124
4, 29760, Note_on_c, 9, 70, 111
4, 29789, Note_on_c, 9, 70, 0
4, 29789, Note_on_c, 9, 59, 0
4, 29789, Note_on_c, 9, 36, 0
4, 29790, Note_on_c, 9, 70, 64
4, 29819, Note_on_c, 9, 70, 0
4, 29820, Note_on_c, 9, 70, 58
4, 29849, Note_on_c, 9, 70, 0
4, 29850, Note_on_c, 9, 36, 61
4, 29850, Note_on_c, 9, 70, 72
4, 29879, Note_on_c, 9, 70, 0
4, 29879, Note_on_c, 9, 36, 0
4, 29880, Note_on_c, 9, 54, 125
4, 29880, Note_on_c, 9, 40, 127
4, 29880, Note_on_c, 9, 59, 77
4, 29880, Note_on_c, 9, 70, 81
4, 29909, Note_on_c, 9, 70, 0
4, 29909, Note_on_c, 9, 54, 0
4, 29909, Note_on_c, 9, 40, 0
4, 29909, Note_on_c, 9, 59, 0
4, 29910, Note_on_c, 9, 70, 43
4, 29939, Note_on_c, 9, 70, 0
4, 29940, Note_on_c, 9, 70, 69
4, 29940, Note_on_c, 9, 36, 114
4, 29969, Note_on_c, 9, 36, 0
4, 29969, Note_on_c, 9, 70, 0
4, 29970, Note_on_c, 9, 70, 74
4, 29999, Note_on_c, 9, 70, 0
4, 30000, Note_on_c, 9, 70, 124
4, 30000, Note_on_c, 9, 59, 93
4, 30029, Note_on_c, 9, 59, 0
4, 30029, Note_on_c, 9, 70, 0
4, 30030, Note_on_c, 9, 70, 58
4, 30059, Note_on_c, 9, 70, 0
4, 30060, Note_on_c, 9, 70, 91
4, 30060, Note_on_c, 9, 36, 48
4, 30089, Note_on_c, 9, 36, 0
4, 30089, Note_on_c, 9, 70, 0
4, 30090, Note_on_c, 9, 70, 39
4, 30119, Note_on_c, 9, 70, 0
4, 30120, Note_on_c, 9, 54, 127
4, 30120, Note_on_c, 9, 40, 127
4, 30120, Note_on_c, 9, 59, 99
4, 30120, Note_on_c, 9, 70, 114
4, 30149, Note_on_c, 9, 70, 0
4, 30149, Note_on_c, 9, 54, 0
4, 30149, Note_on_c, 9, 40, 0
4, 30149, Note_on_c, 9, 59, 0
4, 30150, Note_on_c, 9, 70, 61
4, 30179, Note_on_c, 9, 70, 0
4, 30180, Note_on_c, 9, 36, 61
4, 30180, Note_on_c, 9, 70, 96
4, 30209, Note_on_c, 9, 70, 0
4, 30209, Note_on_c, 9, 36, 0
4, 30210, Note_on_c, 9, 70, 81
4, 30239, Note_on_c, 9, 70, 0
4, 30240, Note_on_c, 9, 55, 96
4, 30240, Note_on_c, 9, 70, 127
4, 30240, Note_on_c, 9, 36, 120
4, 30269, Note_on_c, 9, 36, 0
4, 30269, Note_on_c, 9, 70, 0
4, 30269, Note_on_c, 9, 55, 0
4, 30270, Note_on_c, 9, 70, 43
4, 30299, Note_on_c, 9, 70, 0
4, 30300, Note_on_c, 9, 70, 81
4, 30329, Note_on_c, 9, 70, 0
4, 30330, Note_on_c, 9, 70, 61
4, 30359, Note_on_c, 9, 70, 0
4, 30360, Note_on_c, 9, 70, 127
4, 30360, Note_on_c, 9, 40, 127
4, 30360, Note_on_c, 9, 54, 125
4, 30360, Note_on_c, 9, 59, 117
4, 30389, Note_on_c, 9, 59, 0
4, 30389, Note_on_c, 9, 70, 0
4, 30389, Note_on_c, 9, 40, 0
4, 30389, Note_on_c, 9, 54, 0
4, 30390, Note_on_c, 9, 70, 26
4, 30419, Note_on_c, 9, 70, 0
4, 30420, Note_on_c, 9, 36, 123
4, 30420, Note_on_c, 9, 70, 81
4, 30449, Note_on_c, 9, 70, 0
4, 30449, Note_on_c, 9, 36, 0
4, 30450, Note_on_c, 9, 70, 66
4, 30479, Note_on_c, 9, 70, 0
4, 30480, Note_on_c, 9, 59, 77
4, 30480, Note_on_c, 9, 70, 127
4, 30509, Note_on_c, 9, 70, 0
4, 30509, Note_on_c, 9, 59, 0
4, 30510, Note_on_c, 9, 70, 39
4, 30539, Note_on_c, 9, 70, 0
4, 30540, Note_on_c, 9, 36, 79
4, 30540, Note_on_c, 9, 70, 89
4, 30569, Note_on_c, 9, 70, 0
4, 30569, Note_on_c, 9, 36, 0
4, 30570, Note_on_c, 9, 70, 89
4, 30599, Note_on_c, 9, 70, 0
4, 30600, Note_on_c, 9, 59, 117
4, 30600, Note_on_c, 9, 54, 127
4, 30600, Note_on_c, 9, 40, 127
4, 30600, Note_on_c, 9, 70, 124
4, 30629, Note_on_c, 9, 70, 0
4, 30629, Note_on_c, 9, 59, 0
4, 30629, Note_on_c, 9, 54, 0
4, 30629, Note_on_c, 9, 40, 0
4, 30630, Note_on_c, 9, 70, 39
4, 30659, Note_on_c, 9, 70, 0
4, 30660, Note_on_c, 9, 70, 111
4, 30660, Note_on_c, 9, 36, 79
4, 30689, Note_on_c, 9, 36, 0
4, 30689, Note_on_c, 9, 70, 0
4, 30690, Note_on_c, 9, 70, 55
4, 30719, Note_on_c, 9, 70, 0
4, 30720, Note_on_c, 9, 59, 108
4, 30720, Note_on_c, 9, 70, 127
4, 30720, Note_on_c, 9, 36, 127
4, 30749, Note_on_c, 9, 36, 0
4, 30749, Note_on_c, 9, 70, 0
4, 30749, Note_on_c, 9, 59, 0
4, 30750, Note_on_c, 9, 70, 48
4, 30779, Note_on_c, 9, 70, 0
4, 30780, Note_on_c, 9, 70, 51
4, 30809, Note_on_c, 9, 70, 0
4, 30810, Note_on_c, 9, 70, 48
4, 30839, Note_on_c, 9, 70, 0
4, 30840, Note_on_c, 9, 70, 127
4, 30840, Note_on_c, 9, 40, 124
4, 30840, Note_on_c, 9, 54, 125
4, 30840, Note_on_c, 9, 59, 96
4, 30869, Note_on_c, 9, 59, 0
4, 30869, Note_on_c, 9, 70, 0
4, 30869, Note_on_c, 9, 40, 0
4, 30869, Note_on_c, 9, 54, 0
4, 30870, Note_on_c, 9, 70, 48
4, 30899, Note_on_c, 9, 70, 0
4, 30900, Note_on_c, 9, 36, 96
4, 30900, Note_on_c, 9, 70, 64
4, 30929, Note_on_c, 9, 70, 0
4, 30929, Note_on_c, 9, 36, 0
4, 30930, Note_on_c, 9, 70, 35
4, 30959, Note_on_c, 9, 70, 0
4, 30960, Note_on_c, 9, 59, 81
4, 30960, Note_on_c, 9, 70, 96
4, 30989, Note_on_c, 9, 70, 0
4, 30989, Note_on_c, 9, 59, 0
4, 30990, Note_on_c, 9, 70, 30
4, 31019, Note_on_c, 9, 70, 0
4, 31020, Note_on_c, 9, 36, 58
4, 31020, Note_on_c, 9, 70, 69
4, 31049, Note_on_c, 9, 70, 0
4, 31049, Note_on_c, 9, 36, 0
4, 31050, Note_on_c, 9, 70, 51
4, 31079, Note_on_c, 9, 70, 0
4, 31080, Note_on_c, 9, 59, 127
4, 31080, Note_on_c, 9, 54, 127
4, 31080, Note_on_c, 9, 40, 127
4, 31080, Note_on_c, 9, 70, 117
4, 31109, Note_on_c, 9, 70, 0
4, 31109, Note_on_c, 9, 59, 0
4, 31109, Note_on_c, 9, 54, 0
4, 31109, Note_on_c, 9, 40, 0
4, 31110, Note_on_c, 9, 70, 14
4, 31139, Note_on_c, 9, 70, 0
4, 31140, Note_on_c, 9, 36, 55
4, 31140, Note_on_c, 9, 70, 84
4, 31169, Note_on_c, 9, 70, 0
4, 31169, Note_on_c, 9, 36, 0
4, 31170, Note_on_c, 9, 70, 35
4, 31199, Note_on_c, 9, 70, 0
4, 31200, Note_on_c, 9, 70, 102
4, 31200, Note_on_c, 9, 55, 124
4, 31200, Note_on_c, 9, 36, 124
4, 31229, Note_on_c, 9, 36, 0
4, 31229, Note_on_c, 9, 55, 0
4, 31229, Note_on_c, 9, 70, 0
4, 31230, Note_on_c, 9, 70, 26
4, 31259, Note_on_c, 9, 70, 0
4, 31260, Note_on_c, 9, 70, 72
4, 31289, Note_on_c, 9, 70, 0
4, 31290, Note_on_c, 9, 70, 66
4, 31319, Note_on_c, 9, 70, 0
4, 31320, Note_on_c, 9, 59, 84
4, 31320, Note_on_c, 9, 40, 111
4, 31320, Note_on_c, 9, 54, 125
4, 31320, Note_on_c, 9, 70, 108
4, 31349, Note_on_c, 9, 70, 0
4, 31349, Note_on_c, 9, 59, 0
4, 31349, Note_on_c, 9, 40, 0
4, 31349, Note_on_c, 9, 54, 0
4, 31350, Note_on_c, 9, 70, 22
4, 31379, Note_on_c, 9, 70, 0
4, 31380, Note_on_c, 9, 36, 102
4, 31380, Note_on_c, 9, 70, 81
4, 31409, Note_on_c, 9, 70, 0
4, 31409, Note_on_c, 9, 36, 0
4, 31410, Note_on_c, 9, 70, 58
4, 31439, Note_on_c, 9, 70, 0
4, 31440, Note_on_c, 9, 59, 124
4, 31440, Note_on_c, 9, 70, 84
4, 31469, Note_on_c, 9, 70, 0
4, 31469, Note_on_c, 9, 59, 0
4, 31470, Note_on_c, 9, 70, 35
4, 31499, Note_on_c, 9, 70, 0
4, 31500, Note_on_c, 9, 36, 58
4, 31500, Note_on_c, 9, 70, 51
4, 31529, Note_on_c, 9, 70, 0
4, 31529, Note_on_c, 9, 36, 0
4, 31530, Note_on_c, 9, 70, 72
4, 31559, Note_on_c, 9, 70, 0
4, 31560, Note_on_c, 9, 54, 127
4, 31560, Note_on_c, 9, 40, 127
4, 31560, Note_on_c, 9, 59, 93
4, 31560, Note_on_c, 9, 70, 125
4, 31589, Note_on_c, 9, 70, 0
4, 31589, Note_on_c, 9, 54, 0
4, 31589, Note_on_c, 9, 40, 0
4, 31589, Note_on_c, 9, 59, 0
4, 31590, Note_on_c, 9, 70, 66
4, 31619, Note_on_c, 9, 70, 0
4, 31620, Note_on_c, 9, 36, 58
4, 31620, Note_on_c, 9, 70, 72
4, 31649, Note_on_c, 9, 70, 0
4, 31649, Note_on_c, 9, 36, 0
4, 31650, Note_on_c, 9, 70, 30
4, 31679, Note_on_c, 9, 70, 0
4, 31680, Note_on_c, 9, 70, 120
4, 31680, Note_on_c, 9, 36, 86
4, 31680, Note_on_c, 9, 59, 96
4, 31709, Note_on_c, 9, 59, 0
4, 31709, Note_on_c, 9, 36, 0
4, 31709, Note_on_c, 9, 70, 0
4, 31710, Note_on_c, 9, 70, 89
4, 31739, Note_on_c, 9, 70, 0
4, 31740, Note_on_c, 9, 70, 77
4, 31769, Note_on_c, 9, 70, 0
4, 31770, Note_on_c, 9, 36, 66
4, 31770, Note_on_c, 9, 70, 66
4, 31799, Note_on_c, 9, 70, 0
4, 31799, Note_on_c, 9, 36, 0
4, 31800, Note_on_c, 9, 59, 127
4, 31800, Note_on_c, 9, 70, 93
4, 31800, Note_on_c, 9, 40, 126
4, 31800, Note_on_c, 9, 54, 125
4, 31829, Note_on_c, 9, 54, 0
4, 31829, Note_on_c, 9, 59, 0
4, 31829, Note_on_c, 9, 70, 0
4, 31829, Note_on_c, 9, 40, 0
4, 31830, Note_on_c, 9, 70, 72
4, 31859, Note_on_c, 9, 70, 0
4, 31860, Note_on_c, 9, 70, 84
4, 31860, Note_on_c, 9, 36, 84
4, 31889, Note_on_c, 9, 36, 0
4, 31889, Note_on_c, 9, 70, 0
4, 31890, Note_on_c, 9, 70, 72
4, 31919, Note_on_c, 9, 70, 0
4, 31920, Note_on_c, 9, 59, 99
4, 31920, Note_on_c, 9, 70, 91
4, 31949, Note_on_c, 9, 70, 0
4, 31949, Note_on_c, 9, 59, 0
4, 31950, Note_on_c, 9, 70, 72
4, 31979, Note_on_c, 9, 70, 0
4, 31980, Note_on_c, 9, 70, 69
4, 31980, Note_on_c, 9, 36, 55
4, 32009, Note_on_c, 9, 36, 0
4, 32009, Note_on_c, 9, 70, 0
4, 32010, Note_on_c, 9, 70, 22
4, 32039, Note_on_c, 9, 70, 0
4, 32040, Note_on_c, 9, 54, 127
4, 32040, Note_on_c, 9, 40, 96
4, 32040, Note_on_c, 9, 70, 127
4, 32040, Note_on_c, 9, 59, 127
4, 32069, Note_on_c, 9, 59, 0
4, 32069, Note_on_c, 9, 54, 0
4, 32069, Note_on_c, 9, 40, 0
4, 32069, Note_on_c, 9, 70, 0
4, 32070, Note_on_c, 9, 70, 35
4, 32099, Note_on_c, 9, 70, 0
4, 32100, Note_on_c, 9, 70, 72
4, 32129, Note_on_c, 9, 70, 0
4, 32130, Note_on_c, 9, 70, 64
4, 32159, Note_on_c, 9, 70, 0
4, 32160, Note_on_c, 9, 70, 114
4, 32160, Note_on_c, 9, 36, 96
4, 32160, Note_on_c, 9, 55, 84
4, 32189, Note_on_c, 9, 55, 0
4, 32189, Note_on_c, 9, 36, 0
4, 32189, Note_on_c, 9, 70, 0
4, 32190, Note_on_c, 9, 70, 72
4, 32219, Note_on_c, 9, 70, 0
4, 32220, Note_on_c, 9, 70, 77
4, 32249, Note_on_c, 9, 70, 0
4, 32250, Note_on_c, 9, 70, 43
4, 32279, Note_on_c, 9, 70, 0
4, 32280, Note_on_c, 9, 70, 99
4, 32280, Note_on_c, 9, 54, 125
4, 32280, Note_on_c, 9, 40, 96
4, 32280, Note_on_c, 9, 59, 120
4, 32309, Note_on_c, 9, 59, 0
4, 32309, Note_on_c, 9, 70, 0
4, 32309, Note_on_c, 9, 54, 0
4, 32309, Note_on_c, 9, 40, 0
4, 32310, Note_on_c, 9, 70, 39
4, 32339, Note_on_c, 9, 70, 0
4, 32340, Note_on_c, 9, 70, 61
4, 32340, Note_on_c, 9, 36, 117
4, 32369, Note_on_c, 9, 36, 0
4, 32369, Note_on_c, 9, 70, 0
4, 32370, Note_on_c, 9, 70, 55
4, 32399, Note_on_c, 9, 70, 0
4, 32400, Note_on_c, 9, 59, 77
4, 32400, Note_on_c, 9, 70, 102
4, 32429, Note_on_c, 9, 70, 0
4, 32429, Note_on_c, 9, 59, 0
4, 32430, Note_on_c, 9, 70, 66
4, 32459, Note_on_c, 9, 70, 0
4, 32460, Note_on_c, 9, 36, 79
4, 32460, Note_on_c, 9, 70, 91
4, 32489, Note_on_c, 9, 70, 0
4, 32489, Note_on_c, 9, 36, 0
4, 32490, Note_on_c, 9, 70, 51
4, 32519, Note_on_c, 9, 70, 0
4, 32520, Note_on_c, 9, 59, 124
4, 32520, Note_on_c, 9, 54, 127
4, 32520, Note_on_c, 9, 40, 127
4, 32520, Note_on_c, 9, 70, 111
4, 32549, Note_on_c, 9, 70, 0
4, 32549, Note_on_c, 9, 59, 0
4, 32549, Note_on_c, 9, 54, 0
4, 32549, Note_on_c, 9, 40, 0
4, 32550, Note_on_c, 9, 70, 96
4, 32579, Note_on_c, 9, 70, 0
4, 32580, Note_on_c, 9, 70, 81
4, 32609, Note_on_c, 9, 70, 0
4, 32610, Note_on_c, 9, 70, 18
4, 32639, Note_on_c, 9, 70, 0
4, 32640, Note_on_c, 9, 59, 81
4, 32640, Note_on_c, 9, 36, 127
4, 32640, Note_on_c, 9, 70, 127
4, 32669, Note_on_c, 9, 70, 0
4, 32669, Note_on_c, 9, 36, 0
4, 32669, Note_on_c, 9, 59, 0
4, 32670, Note_on_c, 9, 70, 43
4, 32699, Note_on_c, 9, 70, 0
4, 32700, Note_on_c, 9, 70, 91
4, 32729, Note_on_c, 9, 70, 0
4, 32730, Note_on_c, 9, 70, 96
4, 32759, Note_on_c, 9, 70, 0
4, 32760, Note_on_c, 9, 59, 93
4, 32760, Note_on_c, 9, 54, 125
4, 32760, Note_on_c, 9, 40, 124
4, 32760, Note_on_c, 9, 70, 84
4, 32789, Note_on_c, 9, 70, 0
4, 32789, Note_on_c, 9, 59, 0
4, 32789, Note_on_c, 9, 54, 0
4, 32789, Note_on_c, 9, 40, 0
4, 32790, Note_on_c, 9, 70, 22
4, 32819, Note_on_c, 9, 70, 0
4, 32820, Note_on_c, 9, 70, 102
4, 32820, Note_on_c, 9, 36, 89
4, 32849, Note_on_c, 9, 36, 0
4, 32849, Note_on_c, 9, 70, 0
4, 32850, Note_on_c, 9, 70, 48
4, 32879, Note_on_c, 9, 70, 0
4, 32880, Note_on_c, 9, 59, 126
4, 32880, Note_on_c, 9, 70, 102
4, 32909, Note_on_c, 9, 70, 0
4, 32909, Note_on_c, 9, 59, 0
4, 32910, Note_on_c, 9, 70, 35
4, 32939, Note_on_c, 9, 70, 0
4, 32940, Note_on_c, 9, 70, 81
4, 32940, Note_on_c, 9, 36, 64
4, 32969, Note_on_c, 9, 36, 0
4, 32969, Note_on_c, 9, 70, 0
4, 32970, Note_on_c, 9, 70, 51
4, 32999, Note_on_c, 9, 70, 0
4, 33000, Note_on_c, 9, 70, 114
4, 33000, Note_on_c, 9, 54, 127
4, 33000, Note_on_c, 9, 40, 89
4, 33029, Note_on_c, 9, 40, 0
4, 33029, Note_on_c, 9, 54, 0
4, 33029, Note_on_c, 9, 70, 0
4, 33030, Note_on_c, 9, 40, 111
4, 33030, Note_on_c, 9, 70, 48
4, 33059, Note_on_c, 9, 70, 0
4, 33059, Note_on_c, 9, 40, 0
4, 33060, Note_on_c, 9, 36, 74
4, 33060, Note_on_c, 9, 70, 86
4, 33089, Note_on_c, 9, 70, 0
4, 33089, Note_on_c, 9, 36, 0
4, 33090, Note_on_c, 9, 70, 58
4, 33119, Note_on_c, 9, 70, 0
4, 33120, Note_on_c, 9, 55, 93
4, 33120, Note_on_c, 9, 36, 108
4, 33120, Note_on_c, 9, 70, 72
4, 33149, Note_on_c, 9, 70, 0
4, 33149, Note_on_c, 9, 36, 0
4, 33149, Note_on_c, 9, 55, 0
4, 33150, Note_on_c, 9, 70, 39
4, 33179, Note_on_c, 9, 70, 0
4, 33180, Note_on_c, 9, 70, 102
4, 33209, Note_on_c, 9, 70, 0
4, 33210, Note_on_c, 9, 70, 77
4, 33239, Note_on_c, 9, 70, 0
4, 33240, Note_on_c, 9, 70, 72
4, 33240, Note_on_c, 9, 59, 96
4, 33240, Note_on_c, 9, 40, 99
4, 33240, Note_on_c, 9, 54, 125
4, 33269, Note_on_c, 9, 54, 0
4, 33269, Note_on_c, 9, 70, 0
4, 33269, Note_on_c, 9, 59, 0
4, 33269, Note_on_c, 9, 40, 0
4, 33270, Note_on_c, 9, 70, 51
4, 33299, Note_on_c, 9, 70, 0
4, 33300, Note_on_c, 9, 70, 74
4, 33300, Note_on_c, 9, 36, 74
4, 33329, Note_on_c, 9, 36, 0
4, 33329, Note_on_c, 9, 70, 0
4, 33330, Note_on_c, 9, 70, 55
4, 33359, Note_on_c, 9, 70, 0
4, 33360, Note_on_c, 9, 70, 81
4, 33360, Note_on_c, 9, 59, 81
4, 33389, Note_on_c, 9, 59, 0
4, 33389, Note_on_c, 9, 70, 0
4, 33390, Note_on_c, 9, 70, 51
4, 33419, Note_on_c, 9, 70, 0
4, 33420, Note_on_c, 9, 70, 84
4, 33420, Note_on_c, 9, 36, 64
4, 33449, Note_on_c, 9, 36, 0
4, 33449, Note_on_c, 9, 70, 0
4, 33450, Note_on_c, 9, 70, 58
4, 33479, Note_on_c, 9, 70, 0
4, 33480, Note_on_c, 9, 54, 127
4, 33480, Note_on_c, 9, 40, 127
4, 33480, Note_on_c, 9, 70, 102
4, 33480, Note_on_c, 9, 59, 99
4, 33509, Note_on_c, 9, 59, 0
4, 33509, Note_on_c, 9, 54, 0
4, 33509, Note_on_c, 9, 40, 0
4, 33509, Note_on_c, 9, 70, 0
4, 33510, Note_on_c, 9, 70, 93
4, 33539, Note_on_c, 9, 70, 0
4, 33540, Note_on_c, 9, 36, 35
4, 33540, Note_on_c, 9, 70, 77
4, 33569, Note_on_c, 9, 70, 0
4, 33569, Note_on_c, 9, 36, 0
4, 33570, Note_on_c, 9, 70, 48
4, 33599, Note_on_c, 9, 70, 0
4, 33600, Note_on_c, 9, 36, 125
4, 33600, Note_on_c, 9, 59, 74
4, 33600, Note_on_c, 9, 70, 66
4, 33629, Note_on_c, 9, 70, 0
4, 33629, Note_on_c, 9, 59, 0
4, 33629, Note_on_c, 9, 36, 0
4, 33630, Note_on_c, 9, 70, 58
4, 33659, Note_on_c, 9, 70, 0
4, 33660, Note_on_c, 9, 70, 77
4, 33689, Note_on_c, 9, 70, 0
4, 33690, Note_on_c, 9, 70, 84
4, 33719, Note_on_c, 9, 70, 0
4, 33720, Note_on_c, 9, 70, 111
4, 33720, Note_on_c, 9, 40, 124
4, 33720, Note_on_c, 9, 54, 125
4, 33720, Note_on_c, 9, 59, 93
4, 33749, Note_on_c, 9, 59, 0
4, 33749, Note_on_c, 9, 70, 0
4, 33749, Note_on_c, 9, 40, 0
4, 33749, Note_on_c, 9, 54, 0
4, 33750, Note_on_c, 9, 70, 35
4, 33779, Note_on_c, 9, 70, 0
4, 33780, Note_on_c, 9, 70, 61
4, 33780, Note_on_c, 9, 36, 64
4, 33809, Note_on_c, 9, 36, 0
4, 33809, Note_on_c, 9, 70, 0
4, 33810, Note_on_c, 9, 70, 61
4, 33839, Note_on_c, 9, 70, 0
4, 33840, Note_on_c, 9, 70, 86
4, 33840, Note_on_c, 9, 59, 81
4, 33869, Note_on_c, 9, 59, 0
4, 33869, Note_on_c, 9, 70, 0
4, 33870, Note_on_c, 9, 70, 39
4, 33899, Note_on_c, 9, 70, 0
4, 33900, Note_on_c, 9, 36, 79
4, 33900, Note_on_c, 9, 70, 84
4, 33929, Note_on_c, 9, 70, 0
4, 33929, Note_on_c, 9, 36, 0
4, 33930, Note_on_c, 9, 70, 30
4, 33959, Note_on_c, 9, 70, 0
4, 33960, Note_on_c, 9, 59, 96
4, 33960, Note_on_c, 9, 54, 127
4, 33960, Note_on_c, 9, 40, 124
4, 33960, Note_on_c, 9, 70, 89
4, 33989, Note_on_c, 9, 70, 0
4, 33989, Note_on_c, 9, 59, 0
4, 33989, Note_on_c, 9, 54, 0
4, 33989, Note_on_c, 9, 40, 0
4, 33990, Note_on_c, 9, 70, 11
4, 34019, Note_on_c, 9, 70, 0
4, 34020, Note_on_c, 9, 70, 61
4, 34020, Note_on_c, 9, 36, 58
4, 34049, Note_on_c, 9, 36, 0
4, 34049, Note_on_c, 9, 70, 0
4, 34050, Note_on_c, 9, 70, 39
4, 34079, Note_on_c, 9, 70, 0
4, 34080, Note_on_c, 9, 70, 77
4, 34080, Note_on_c, 9, 55, 96
4, 34080, Note_on_c, 9, 36, 120
4, 34109, Note_on_c, 9, 36, 0
4, 34109, Note_on_c, 9, 55, 0
4, 34109, Note_on_c, 9, 70, 0
4, 34110, Note_on_c, 9, 70, 14
4, 34139, Note_on_c, 9, 70, 0
4, 34140, Note_on_c, 9, 70, 51
4, 34169, Note_on_c, 9, 70, 0
4, 34170, Note_on_c, 9, 70, 64
4, 34199, Note_on_c, 9, 70, 0
4, 34200, Note_on_c, 9, 70, 127
4, 34200, Note_on_c, 9, 54, 125
4, 34200, Note_on_c, 9, 40, 93
4, 34200, Note_on_c, 9, 59, 111
4, 34229, Note_on_c, 9, 59, 0
4, 34229, Note_on_c, 9, 70, 0
4, 34229, Note_on_c, 9, 54, 0
4, 34229, Note_on_c, 9, 40, 0
4, 34230, Note_on_c, 9, 70, 22
4, 34259, Note_on_c, 9, 70, 0
4, 34260, Note_on_c, 9, 70, 111
4, 34260, Note_on_c, 9, 36, 51
4, 34289, Note_on_c, 9, 36, 0
4, 34289, Note_on_c, 9, 70, 0
4, 34290, Note_on_c, 9, 70, 26
4, 34319, Note_on_c, 9, 70, 0
4, 34320, Note_on_c, 9, 59, 124
4, 34320, Note_on_c, 9, 70, 93
4, 34349, Note_on_c, 9, 70, 0
4, 34349, Note_on_c, 9, 59, 0
4, 34350, Note_on_c, 9, 70, 22
4, 34379, Note_on_c, 9, 70, 0
4, 34380, Note_on_c, 9, 36, 58
4, 34380, Note_on_c, 9, 70, 89
4, 34409, Note_on_c, 9, 70, 0
4, 34409, Note_on_c, 9, 36, 0
4, 34410, Note_on_c, 9, 70, 55
4, 34439, Note_on_c, 9, 70, 0
4, 34440, Note_on_c, 9, 54, 127
4, 34440, Note_on_c, 9, 40, 127
4, 34440, Note_on_c, 9, 70, 120
4, 34440, Note_on_c, 9, 59, 120
4, 34469, Note_on_c, 9, 59, 0
4, 34469, Note_on_c, 9, 54, 0
4, 34469, Note_on_c, 9, 40, 0
4, 34469, Note_on_c, 9, 70, 0
4, 34470, Note_on_c, 9, 70, 84
4, 34499, Note_on_c, 9, 70, 0
4, 34500, Note_on_c, 9, 70, 66
4, 34500, Note_on_c, 9, 36, 43
4, 34529, Note_on_c, 9, 36, 0
4, 34529, Note_on_c, 9, 70, 0
4, 34530, Note_on_c, 9, 70, 72
4, 34559, Note_on_c, 9, 70, 0
4, 34560, Note_on_c, 9, 70, 120
4, 34560, Note_on_c, 9, 36, 127
4, 34560, Note_on_c, 9, 59, 102
4, 34589, Note_on_c, 9, 59, 0
4, 34589, Note_on_c, 9, 36, 0
4, 34589, Note_on_c, 9, 70, 0
4, 34590, Note_on_c, 9, 70, 30
4, 34619, Note_on_c, 9, 70, 0
4, 34620, Note_on_c, 9, 70, 93
4, 34649, Note_on_c, 9, 70, 0
4, 34650, Note_on_c, 9, 70, 51
4, 34679, Note_on_c, 9, 70, 0
4, 34680, Note_on_c, 9, 70, 89
4, 34680, Note_on_c, 9, 54, 125
4, 34680, Note_on_c, 9, 40, 127
4, 34680, Note_on_c, 9, 59, 79
4, 34709, Note_on_c, 9, 59, 0
4, 34709, Note_on_c, 9, 70, 0
4, 34709, Note_on_c, 9, 54, 0
4, 34709, Note_on_c, 9, 40, 0
4, 34710, Note_on_c, 9, 70, 39
4, 34739, Note_on_c, 9, 70, 0
4, 34740, Note_on_c, 9, 70, 84
4, 34740, Note_on_c, 9, 36, 39
4, 34769, Note_on_c, 9, 36, 0
4, 34769, Note_on_c, 9, 70, 0
4, 34770, Note_on_c, 9, 70, 77
4, 34799, Note_on_c, 9, 70, 0
4, 34800, Note_on_c, 9, 70, 108
4, 34800, Note_on_c, 9, 59, 96
4, 34800, Note_on_c, 9, 36, 114
4, 34829, Note_on_c, 9, 36, 0
4, 34829, Note_on_c, 9, 59, 0
4, 34829, Note_on_c, 9, 70, 0
4, 34860, Note_on_c, 9, 41, 100
4, 34874, Note_on_c, 9, 41, 0
4, 34890, Note_on_c, 9, 40, 100
4, 34904, Note_on_c, 9, 40, 0
4, 34920, Note_on_c, 9, 38, 100
4, 34920, Note_on_c, 9, 40, 127
4, 34920, Note_on_c, 9, 54, 127
4, 34934, Note_on_c, 9, 38, 0
4, 34949, Note_on_c, 9, 54, 0
4, 34949, Note_on_c, 9, 40, 0
4, 35160, Note_on_c, 9, 54, 125
4, 35189, Note_on_c, 9, 54, 0
4, 35400, Note_on_c, 9, 54, 127
4, 35400, Note_on_c, 9, 55, 127
4, 35400, Note_on_c, 9, 36, 127
4, 35429, Note_on_c, 9, 36, 0
4, 35429, Note_on_c, 9, 55, 0
4, 35429, Note_on_c, 9, 54, 0
4, 35520, Note_on_c, 9, 36, 124
4, 35520, Note_on_c, 9, 42, 91
4, 35549, Note_on_c, 9, 42, 0
4, 35549, Note_on_c, 9, 36, 0
4, 35580, Note_on_c, 9, 42, 48
4, 35609, Note_on_c, 9, 42, 0
4, 35640, Note_on_c, 9, 40, 127
4, 35640, Note_on_c, 9, 54, 125
4, 35640, Note_on_c, 9, 42, 81
4, 35669, Note_on_c, 9, 42, 0
4, 35669, Note_on_c, 9, 54, 0
4, 35669, Note_on_c, 9, 40, 0
4, 35700, Note_on_c, 9, 36, 127
4, 35700, Note_on_c, 9, 42, 11
4, 35729, Note_on_c, 9, 42, 0
4, 35729, Note_on_c, 9, 36, 0
4, 35730, Note_on_c, 9, 42, 51
4, 35759, Note_on_c, 9, 42, 0
4, 35760, Note_on_c, 9, 42, 105
4, 35789, Note_on_c, 9, 42, 0
4, 35820, Note_on_c, 9, 36, 64
4, 35820, Note_on_c, 9, 42, 89
4, 35849, Note_on_c, 9, 42, 0
4, 35849, Note_on_c, 9, 36, 0
4, 35880, Note_on_c, 9, 54, 127
4, 35880, Note_on_c, 9, 40, 127
4, 35880, Note_on_c, 9, 42, 89
4, 35909, Note_on_c, 9, 42, 0
4, 35909, Note_on_c, 9, 40, 0
4, 35909, Note_on_c, 9, 54, 0
4, 35940, Note_on_c, 9, 42, 51
4, 35969, Note_on_c, 9, 42, 0
4, 35970, Note_on_c, 9, 42, 58
4, 35999, Note_on_c, 9, 42, 0
4, 36000, Note_on_c, 9, 42, 69
4, 36000, Note_on_c, 9, 36, 111
4, 36029, Note_on_c, 9, 36, 0
4, 36029, Note_on_c, 9, 42, 0
4, 36060, Note_on_c, 9, 42, 18
4, 36089, Note_on_c, 9, 42, 0
4, 36120, Note_on_c, 9, 42, 84
4, 36120, Note_on_c, 9, 54, 125
4, 36120, Note_on_c, 9, 40, 111
4, 36149, Note_on_c, 9, 40, 0
4, 36149, Note_on_c, 9, 54, 0
4, 36149, Note_on_c, 9, 42, 0
4, 36180, Note_on_c, 9, 36, 99
4, 36180, Note_on_c, 9, 42, 39
4, 36209, Note_on_c, 9, 42, 0
4, 36209, Note_on_c, 9, 36, 0
4, 36210, Note_on_c, 9, 42, 55
4, 36239, Note_on_c, 9, 42, 0
4, 36240, Note_on_c, 9, 42, 72
4, 36269, Note_on_c, 9, 42, 0
4, 36300, Note_on_c, 9, 36, 74
4, 36300, Note_on_c, 9, 42, 58
4, 36329, Note_on_c, 9, 42, 0
4, 36329, Note_on_c, 9, 36, 0
4, 36360, Note_on_c, 9, 54, 127
4, 36360, Note_on_c, 9, 40, 127
4, 36360, Note_on_c, 9, 42, 84
4, 36389, Note_on_c, 9, 42, 0
4, 36389, Note_on_c, 9, 40, 0
4, 36389, Note_on_c, 9, 54, 0
4, 36420, Note_on_c, 9, 36, 69
4, 36420, Note_on_c, 9, 42, 77
4, 36449, Note_on_c, 9, 42, 0
4, 36449, Note_on_c, 9, 36, 0
4, 36450, Note_on_c, 9, 42, 43
4, 36479, Note_on_c, 9, 42, 0
4, 36480, Note_on_c, 9, 36, 125
4, 36480, Note_on_c, 9, 42, 66
4, 36509, Note_on_c, 9, 42, 0
4, 36509, Note_on_c, 9, 36, 0
4, 36540, Note_on_c, 9, 42, 43
4, 36569, Note_on_c, 9, 42, 0
4, 36570, Note_on_c, 9, 36, 43
4, 36599, Note_on_c, 9, 36, 0
4, 36600, Note_on_c, 9, 54, 125
4, 36600, Note_on_c, 9, 40, 125
4, 36600, Note_on_c, 9, 42, 69
4, 36629, Note_on_c, 9, 42, 0
4, 36629, Note_on_c, 9, 40, 0
4, 36629, Note_on_c, 9, 54, 0
4, 36660, Note_on_c, 9, 36, 124
4, 36660, Note_on_c, 9, 42, 51
4, 36689, Note_on_c, 9, 42, 0
4, 36689, Note_on_c, 9, 36, 0
4, 36690, Note_on_c, 9, 42, 58
4, 36719, Note_on_c, 9, 42, 0
4, 36720, Note_on_c, 9, 42, 69
4, 36749, Note_on_c, 9, 42, 0
4, 36780, Note_on_c, 9, 36, 48
4, 36780, Note_on_c, 9, 46, 96
4, 36809, Note_on_c, 9, 46, 0
4, 36809, Note_on_c, 9, 36, 0
4, 36840, Note_on_c, 9, 54, 127
4, 36840, Note_on_c, 9, 40, 127
4, 36840, Note_on_c, 9, 42, 81
4, 36869, Note_on_c, 9, 42, 0
4, 36869, Note_on_c, 9, 40, 0
4, 36869, Note_on_c, 9, 54, 0
4, 36900, Note_on_c, 9, 42, 55
4, 36929, Note_on_c, 9, 42, 0
4, 36930, Note_on_c, 9, 42, 39
4, 36959, Note_on_c, 9, 42, 0
4, 36960, Note_on_c, 9, 36, 84
4, 36960, Note_on_c, 9, 42, 77
4, 36989, Note_on_c, 9, 42, 0
4, 36989, Note_on_c, 9, 36, 0
4, 37020, Note_on_c, 9, 42, 39
4, 37049, Note_on_c, 9, 42, 0
4, 37080, Note_on_c, 9, 42, 89
4, 37080, Note_on_c, 9, 40, 105
4, 37080, Note_on_c, 9, 54, 125
4, 37109, Note_on_c, 9, 54, 0
4, 37109, Note_on_c, 9, 40, 0
4, 37109, Note_on_c, 9, 42, 0
4, 37140, Note_on_c, 9, 36, 89
4, 37140, Note_on_c, 9, 42, 77
4, 37169, Note_on_c, 9, 42, 0
4, 37169, Note_on_c, 9, 36, 0
4, 37170, Note_on_c, 9, 42, 30
4, 37199, Note_on_c, 9, 42, 0
4, 37200, Note_on_c, 9, 42, 66
4, 37229, Note_on_c, 9, 42, 0
4, 37260, Note_on_c, 9, 36, 66
4, 37260, Note_on_c, 9, 42, 48
4, 37289, Note_on_c, 9, 42, 0
4, 37289, Note_on_c, 9, 36, 0
4, 37320, Note_on_c, 9, 54, 127
4, 37320, Note_on_c, 9, 40, 127
4, 37320, Note_on_c, 9, 42, 93
4, 37349, Note_on_c, 9, 42, 0
4, 37349, Note_on_c, 9, 40, 0
4, 37349, Note_on_c, 9, 54, 0
4, 37380, Note_on_c, 9, 42, 72
4, 37409, Note_on_c, 9, 42, 0
4, 37410, Note_on_c, 9, 42, 30
4, 37439, Note_on_c, 9, 42, 0
4, 37440, Note_on_c, 9, 36, 117
4, 37440, Note_on_c, 9, 42, 81
4, 37469, Note_on_c, 9, 42, 0
4, 37469, Note_on_c, 9, 36, 0
4, 37500, Note_on_c, 9, 42, 66
4, 37529, Note_on_c, 9, 42, 0
4, 37560, Note_on_c, 9, 40, 126
4, 37560, Note_on_c, 9, 54, 125
4, 37560, Note_on_c, 9, 42, 93
4, 37589, Note_on_c, 9, 42, 0
4, 37589, Note_on_c, 9, 54, 0
4, 37589, Note_on_c, 9, 40, 0
4, 37620, Note_on_c, 9, 42, 66
4, 37620, Note_on_c, 9, 36, 79
4, 37649, Note_on_c, 9, 36, 0
4, 37649, Note_on_c, 9, 42, 0
4, 37650, Note_on_c, 9, 42, 39
4, 37679, Note_on_c, 9, 42, 0
4, 37680, Note_on_c, 9, 42, 58
4, 37709, Note_on_c, 9, 42, 0
4, 37740, Note_on_c, 9, 36, 79
4, 37740, Note_on_c, 9, 42, 48
4, 37769, Note_on_c, 9, 42, 0
4, 37769, Note_on_c, 9, 36, 0
4, 37800, Note_on_c, 9, 54, 127
4, 37800, Note_on_c, 9, 40, 127
4, 37800, Note_on_c, 9, 42, 77
4, 37829, Note_on_c, 9, 42, 0
4, 37829, Note_on_c, 9, 40, 0
4, 37829, Note_on_c, 9, 54, 0
4, 37860, Note_on_c, 9, 42, 30
4, 37860, Note_on_c, 9, 36, 58
4, 37889, Note_on_c, 9, 36, 0
4, 37889, Note_on_c, 9, 42, 0
4, 37890, Note_on_c, 9, 42, 48
4, 37919, Note_on_c, 9, 42, 0
4, 37920, Note_on_c, 9, 42, 77
4, 37920, Note_on_c, 9, 36, 108
4, 37949, Note_on_c, 9, 36, 0
4, 37949, Note_on_c, 9, 42, 0
4, 37980, Note_on_c, 9, 42, 55
4, 38009, Note_on_c, 9, 42, 0
4, 38010, Note_on_c, 9, 36, 48
4, 38039, Note_on_c, 9, 36, 0
4, 38040, Note_on_c, 9, 42, 66
4, 38040, Note_on_c, 9, 40, 120
4, 38040, Note_on_c, 9, 54, 125
4, 38069, Note_on_c, 9, 54, 0
4, 38069, Note_on_c, 9, 40, 0
4, 38069, Note_on_c, 9, 42, 0
4, 38100, Note_on_c, 9, 42, 48
4, 38100, Note_on_c, 9, 36, 74
4, 38129, Note_on_c, 9, 36, 0
4, 38129, Note_on_c, 9, 42, 0
4, 38130, Note_on_c, 9, 42, 22
4, 38159, Note_on_c, 9, 42, 0
4, 38160, Note_on_c, 9, 42, 61
4, 38189, Note_on_c, 9, 42, 0
4, 38220, Note_on_c, 9, 36, 43
4, 38220, Note_on_c, 9, 42, 84
4, 38249, Note_on_c, 9, 42, 0
4, 38249, Note_on_c, 9, 36, 0
4, 38280, Note_on_c, 9, 54, 127
4, 38280, Note_on_c, 9, 40, 126
4, 38280, Note_on_c, 9, 42, 84
4, 38309, Note_on_c, 9, 42, 0
4, 38309, Note_on_c, 9, 40, 0
4, 38309, Note_on_c, 9, 54, 0
4, 38340, Note_on_c, 9, 42, 48
4, 38340, Note_on_c, 9, 36, 8
4, 38369, Note_on_c, 9, 36, 0
4, 38369, Note_on_c, 9, 42, 0
4, 38370, Note_on_c, 9, 42, 18
4, 38399, Note_on_c, 9, 42, 0
4, 38400, Note_on_c, 9, 36, 79
4, 38400, Note_on_c, 9, 42, 66
4, 38429, Note_on_c, 9, 42, 0
4, 38429, Note_on_c, 9, 36, 0
4, 38460, Note_on_c, 9, 46, 96
4, 38489, Note_on_c, 9, 46, 0
4, 38490, Note_on_c, 9, 36, 48
4, 38519, Note_on_c, 9, 36, 0
4, 38520, Note_on_c, 9, 54, 125
4, 38520, Note_on_c, 9, 40, 127
4, 38520, Note_on_c, 9, 42, 84
4, 38549, Note_on_c, 9, 42, 0
4, 38549, Note_on_c, 9, 40, 0
4, 38549, Note_on_c, 9, 54, 0
4, 38580, Note_on_c, 9, 42, 48
4, 38580, Note_on_c, 9, 36, 30
4, 38609, Note_on_c, 9, 36, 0
4, 38609, Note_on_c, 9, 42, 0
4, 38610, Note_on_c, 9, 42, 64
4, 38639, Note_on_c, 9, 42, 0
4, 38640, Note_on_c, 9, 42, 55
4, 38669, Note_on_c, 9, 42, 0
4, 38700, Note_on_c, 9, 42, 55
4, 38700, Note_on_c, 9, 36, 69
4, 38729, Note_on_c, 9, 36, 0
4, 38729, Note_on_c, 9, 42, 0
4, 38760, Note_on_c, 9, 40, 89
4, 38760, Note_on_c, 9, 54, 127
4, 38760, Note_on_c, 9, 42, 91
4, 38789, Note_on_c, 9, 42, 0
4, 38789, Note_on_c, 9, 54, 0
4, 38789, Note_on_c, 9, 40, 0
4, 38790, Note_on_c, 9, 40, 123
4, 38819, Note_on_c, 9, 40, 0
4, 38820, Note_on_c, 9, 36, 48
4, 38820, Note_on_c, 9, 42, 51
4, 38849, Note_on_c, 9, 42, 0
4, 38849, Note_on_c, 9, 36, 0
4, 38850, Note_on_c, 9, 42, 77
4, 38879, Note_on_c, 9, 42, 0
4, 38880, Note_on_c, 9, 36, 89
4, 38880, Note_on_c, 9, 42, 77
4, 38909, Note_on_c, 9, 42, 0
4, 38909, Note_on_c, 9, 36, 0
4, 38940, Note_on_c, 9, 42, 35
4, 38969, Note_on_c, 9, 42, 0
4, 39000, Note_on_c, 9, 42, 89
4, 39000, Note_on_c, 9, 54, 125
4, 39000, Note_on_c, 9, 40, 127
4, 39029, Note_on_c, 9, 40, 0
4, 39029, Note_on_c, 9, 54, 0
4, 39029, Note_on_c, 9, 42, 0
4, 39060, Note_on_c, 9, 36, 58
4, 39060, Note_on_c, 9, 42, 30
4, 39089, Note_on_c, 9, 42, 0
4, 39089, Note_on_c, 9, 36, 0
4, 39090, Note_on_c, 9, 42, 51
4, 39119, Note_on_c, 9, 42, 0
4, 39120, Note_on_c, 9, 42, 58
4, 39149, Note_on_c, 9, 42, 0
4, 39180, Note_on_c, 9, 36, 69
4, 39180, Note_on_c, 9, 42, 64
4, 39209, Note_on_c, 9, 42, 0
4, 39209, Note_on_c, 9, 36, 0
4, 39240, Note_on_c, 9, 54, 127
4, 39240, Note_on_c, 9, 40, 111
4, 39240, Note_on_c, 9, 42, 81
4, 39269, Note_on_c, 9, 42, 0
4, 39269, Note_on_c, 9, 40, 0
4, 39269, Note_on_c, 9, 54, 0
4, 39300, Note_on_c, 9, 42, 39
4, 39300, Note_on_c, 9, 36, 35
4, 39329, Note_on_c, 9, 36, 0
4, 39329, Note_on_c, 9, 42, 0
4, 39330, Note_on_c, 9, 42, 55
4, 39359, Note_on_c, 9, 42, 0
4, 39360, Note_on_c, 9, 42, 77
4, 39360, Note_on_c, 9, 36, 89
4, 39389, Note_on_c, 9, 36, 0
4, 39389, Note_on_c, 9, 42, 0
4, 39420, Note_on_c, 9, 42, 61
4, 39449, Note_on_c, 9, 42, 0
4, 39480, Note_on_c, 9, 54, 125
4, 39480, Note_on_c, 9, 40, 120
4, 39480, Note_on_c, 9, 42, 93
4, 39509, Note_on_c, 9, 42, 0
4, 39509, Note_on_c, 9, 40, 0
4, 39509, Note_on_c, 9, 54, 0
4, 39540, Note_on_c, 9, 42, 26
4, 39540, Note_on_c, 9, 36, 55
4, 39569, Note_on_c, 9, 36, 0
4, 39569, Note_on_c, 9, 42, 0
4, 39570, Note_on_c, 9, 42, 22
4, 39599, Note_on_c, 9, 42, 0
4, 39600, Note_on_c, 9, 42, 69
4, 39629, Note_on_c, 9, 42, 0
4, 39660, Note_on_c, 9, 36, 43
4, 39660, Note_on_c, 9, 42, 64
4, 39689, Note_on_c, 9, 42, 0
4, 39689, Note_on_c, 9, 36, 0
4, 39720, Note_on_c, 9, 54, 127
4, 39720, Note_on_c, 9, 40, 123
4, 39720, Note_on_c, 9, 42, 77
4, 39749, Note_on_c, 9, 42, 0
4, 39749, Note_on_c, 9, 40, 0
4, 39749, Note_on_c, 9, 54, 0
4, 39780, Note_on_c, 9, 42, 39
4, 39809, Note_on_c, 9, 42, 0
4, 39810, Note_on_c, 9, 42, 18
4, 39839, Note_on_c, 9, 42, 0
4, 39840, Note_on_c, 9, 42, 66
4, 39840, Note_on_c, 9, 36, 96
4, 39869, Note_on_c, 9, 36, 0
4, 39869, Note_on_c, 9, 42, 0
4, 39900, Note_on_c, 9, 42, 35
4, 39929, Note_on_c, 9, 42, 0
4, 39960, Note_on_c, 9, 54, 125
4, 39960, Note_on_c, 9, 40, 127
4, 39960, Note_on_c, 9, 42, 111
4, 39989, Note_on_c, 9, 42, 0
4, 39989, Note_on_c, 9, 40, 0
4, 39989, Note_on_c, 9, 54, 0
4, 40020, Note_on_c, 9, 42, 48
4, 40020, Note_on_c, 9, 36, 72
4, 40049, Note_on_c, 9, 36, 0
4, 40049, Note_on_c, 9, 42, 0
4, 40050, Note_on_c, 9, 42, 64
4, 40079, Note_on_c, 9, 42, 0
4, 40080, Note_on_c, 9, 42, 72
4, 40109, Note_on_c, 9, 42, 0
4, 40140, Note_on_c, 9, 36, 35
4, 40140, Note_on_c, 9, 42, 66
4, 40169, Note_on_c, 9, 42, 0
4, 40169, Note_on_c, 9, 36, 0
4, 40200, Note_on_c, 9, 54, 127
4, 40200, Note_on_c, 9, 40, 127
4, 40200, Note_on_c, 9, 42, 120
4, 40229, Note_on_c, 9, 42, 0
4, 40229, Note_on_c, 9, 40, 0
4, 40229, Note_on_c, 9, 54, 0
4, 40260, Note_on_c, 9, 42, 35
4, 40260, Note_on_c, 9, 36, 14
4, 40289, Note_on_c, 9, 36, 0
4, 40289, Note_on_c, 9, 42, 0
4, 40290, Note_on_c, 9, 42, 11
4, 40319, Note_on_c, 9, 42, 0
4, 40320, Note_on_c, 9, 36, 89
4, 40320, Note_on_c, 9, 42, 61
4, 40349, Note_on_c, 9, 42, 0
4, 40349, Note_on_c, 9, 36, 0
4, 40380, Note_on_c, 9, 46, 69
4, 40409, Note_on_c, 9, 46, 0
4, 40440, Note_on_c, 9, 54, 125
4, 40440, Note_on_c, 9, 40, 127
4, 40440, Note_on_c, 9, 42, 105
4, 40469, Note_on_c, 9, 42, 0
4, 40469, Note_on_c, 9, 40, 0
4, 40469, Note_on_c, 9, 54, 0
4, 40500, Note_on_c, 9, 42, 66
4, 40500, Note_on_c, 9, 36, 48
4, 40529, Note_on_c, 9, 36, 0
4, 40529, Note_on_c, 9, 42, 0
4, 40530, Note_on_c, 9, 42, 55
4, 40559, Note_on_c, 9, 42, 0
4, 40560, Note_on_c, 9, 42, 91
4, 40560, Note_on_c, 9, 40, 124
4, 40589, Note_on_c, 9, 40, 0
4, 40589, Note_on_c, 9, 42, 0
4, 40590, Note_on_c, 9, 40, 120
4, 40619, Note_on_c, 9, 40, 0
4, 40620, Note_on_c, 9, 46, 102
4, 40620, Note_on_c, 9, 36, 102
4, 40649, Note_on_c, 9, 36, 0
4, 40649, Note_on_c, 9, 46, 0
4, 40680, Note_on_c, 9, 54, 127
4, 40680, Note_on_c, 9, 40, 102
4, 40709, Note_on_c, 9, 40, 0
4, 40709, Note_on_c, 9, 54, 0
4, 40710, Note_on_c, 9, 40, 127
4, 40739, Note_on_c, 9, 40, 0
4, 40740, Note_on_c, 9, 36, 89
4, 40740, Note_on_c, 9, 46, 124
4, 40769, Note_on_c, 9, 46, 0
4, 40769, Note_on_c, 9, 36, 0
4, 40800, Note_on_c, 9, 36, 84
4, 40800, Note_on_c, 9, 55, 117
4, 40800, Note_on_c, 9, 70, 61
4, 40829, Note_on_c, 9, 70, 0
4, 40829, Note_on_c, 9, 55, 0
4, 40829, Note_on_c, 9, 36, 0
4, 40830, Note_on_c, 9, 70, 43
4, 40859, Note_on_c, 9, 70, 0
4, 40860, Note_on_c, 9, 42, 51
4, 40860, Note_on_c, 9, 70, 96
4, 40889, Note_on_c, 9, 70, 0
4, 40889, Note_on_c, 9, 42, 0
4, 40890, Note_on_c, 9, 70, 30
4, 40919, Note_on_c, 9, 70, 0
4, 40920, Note_on_c, 9, 42, 89
4, 40920, Note_on_c, 9, 40, 127
4, 40920, Note_on_c, 9, 54, 125
4, 40920, Note_on_c, 9, 70, 93
4, 40949, Note_on_c, 9, 70, 0
4, 40949, Note_on_c, 9, 42, 0
4, 40949, Note_on_c, 9, 40, 0
4, 40949, Note_on_c, 9, 54, 0
4, 40950, Note_on_c, 9, 70, 30
4, 40979, Note_on_c, 9, 70, 0
4, 40980, Note_on_c, 9, 42, 48
4, 40980, Note_on_c, 9, 36, 69
4, 40980, Note_on_c, 9, 70, 96
4, 41009, Note_on_c, 9, 70, 0
4, 41009, Note_on_c, 9, 36, 0
4, 41009, Note_on_c, 9, 42, 0
4, 41010, Note_on_c, 9, 42, 55
4, 41010, Note_on_c, 9, 70, 66
4, 41039, Note_on_c, 9, 70, 0
4, 41039, Note_on_c, 9, 42, 0
4, 41040, Note_on_c, 9, 42, 72
4, 41040, Note_on_c, 9, 70, 64
4, 41069, Note_on_c, 9, 70, 0
4, 41069, Note_on_c, 9, 42, 0
4, 41070, Note_on_c, 9, 70, 35
4, 41099, Note_on_c, 9, 70, 0
4, 41100, Note_on_c, 9, 70, 58
4, 41100, Note_on_c, 9, 36, 61
4, 41100, Note_on_c, 9, 42, 48
4, 41129, Note_on_c, 9, 42, 0
4, 41129, Note_on_c, 9, 36, 0
4, 41129, Note_on_c, 9, 70, 0
4, 41130, Note_on_c, 9, 70, 48
4, 41159, Note_on_c, 9, 70, 0
4, 41160, Note_on_c, 9, 54, 127
4, 41160, Note_on_c, 9, 40, 127
4, 41160, Note_on_c, 9, 42, 89
4, 41160, Note_on_c, 9, 70, 124
4, 41189, Note_on_c, 9, 70, 0
4, 41189, Note_on_c, 9, 54, 0
4, 41189, Note_on_c, 9, 40, 0
4, 41189, Note_on_c, 9, 42, 0
4, 41190, Note_on_c, 9, 70, 30
4, 41219, Note_on_c, 9, 70, 0
4, 41220, Note_on_c, 9, 36, 51
4, 41220, Note_on_c, 9, 42, 48
4, 41220, Note_on_c, 9, 70, 18
4, 41249, Note_on_c, 9, 70, 0
4, 41249, Note_on_c, 9, 42, 0
4, 41249, Note_on_c, 9, 36, 0
4, 41250, Note_on_c, 9, 42, 35
4, 41250, Note_on_c, 9, 70, 39
4, 41279, Note_on_c, 9, 70, 0
4, 41279, Note_on_c, 9, 42, 0
4, 41280, Note_on_c, 9, 42, 89
4, 41280, Note_on_c, 9, 36, 96
4, 41280, Note_on_c, 9, 70, 84
4, 41309, Note_on_c, 9, 70, 0
4, 41309, Note_on_c, 9, 36, 0
4, 41309, Note_on_c, 9, 42, 0
4, 41310, Note_on_c, 9, 70, 48
4, 41339, Note_on_c, 9, 70, 0
4, 41340, Note_on_c, 9, 42, 35
4, 41340, Note_on_c, 9, 70, 30
4, 41369, Note_on_c, 9, 70, 0
4, 41369, Note_on_c, 9, 42, 0
4, 41370, Note_on_c, 9, 70, 61
4, 41399, Note_on_c, 9, 70, 0
4, 41400, Note_on_c, 9, 42, 102
4, 41400, Note_on_c, 9, 40, 127
4, 41400, Note_on_c, 9, 54, 125
4, 41400, Note_on_c, 9, 70, 111
4, 41429, Note_on_c, 9, 70, 0
4, 41429, Note_on_c, 9, 42, 0
4, 41429, Note_on_c, 9, 40, 0
4, 41429, Note_on_c, 9, 54, 0
4, 41430, Note_on_c, 9, 70, 58
4, 41459, Note_on_c, 9, 70, 0
4, 41460, Note_on_c, 9, 70, 30
4, 41460, Note_on_c, 9, 42, 58
4, 41460, Note_on_c, 9, 36, 64
4, 41489, Note_on_c, 9, 36, 0
4, 41489, Note_on_c, 9, 42, 0
4, 41489, Note_on_c, 9, 70, 0
4, 41490, Note_on_c, 9, 70, 64
4, 41490, Note_on_c, 9, 42, 51
4, 41519, Note_on_c, 9, 42, 0
4, 41519, Note_on_c, 9, 70, 0
4, 41520, Note_on_c, 9, 70, 64
4, 41520, Note_on_c, 9, 42, 61
4, 41549, Note_on_c, 9, 42, 0
4, 41549, Note_on_c, 9, 70, 0
4, 41550, Note_on_c, 9, 70, 35
4, 41579, Note_on_c, 9, 70, 0
4, 41580, Note_on_c, 9, 70, 48
4, 41580, Note_on_c, 9, 36, 55
4, 41580, Note_on_c, 9, 42, 11
4, 41609, Note_on_c, 9, 42, 0
4, 41609, Note_on_c, 9, 36, 0
4, 41609, Note_on_c, 9, 70, 0
4, 41610, Note_on_c, 9, 70, 30
4, 41639, Note_on_c, 9, 70, 0
4, 41640, Note_on_c, 9, 54, 127
4, 41640, Note_on_c, 9, 40, 127
4, 41640, Note_on_c, 9, 42, 105
4, 41640, Note_on_c, 9, 70, 117
4, 41669, Note_on_c, 9, 70, 0
4, 41669, Note_on_c, 9, 54, 0
4, 41669, Note_on_c, 9, 40, 0
4, 41669, Note_on_c, 9, 42, 0
4, 41670, Note_on_c, 9, 70, 58
4, 41699, Note_on_c, 9, 70, 0
4, 41700, Note_on_c, 9, 70, 58
4, 41700, Note_on_c, 9, 36, 8
4, 41700, Note_on_c, 9, 42, 51
4, 41729, Note_on_c, 9, 42, 0
4, 41729, Note_on_c, 9, 36, 0
4, 41729, Note_on_c, 9, 70, 0
4, 41730, Note_on_c, 9, 42, 51
4, 41730, Note_on_c, 9, 70, 48
4, 41759, Note_on_c, 9, 70, 0
4, 41759, Note_on_c, 9, 42, 0
4, 41760, Note_on_c, 9, 70, 64
4, 41760, Note_on_c, 9, 36, 117
4, 41760, Note_on_c, 9, 42, 55
4, 41789, Note_on_c, 9, 42, 0
4, 41789, Note_on_c, 9, 36, 0
4, 41789, Note_on_c, 9, 70, 0
4, 41790, Note_on_c, 9, 70, 61
4, 41819, Note_on_c, 9, 70, 0
4, 41820, Note_on_c, 9, 70, 48
4, 41820, Note_on_c, 9, 42, 58
4, 41849, Note_on_c, 9, 42, 0
4, 41849, Note_on_c, 9, 70, 0
4, 41850, Note_on_c, 9, 70, 39
4, 41879, Note_on_c, 9, 70, 0
4, 41880, Note_on_c, 9, 70, 120
4, 41880, Note_on_c, 9, 42, 89
4, 41880, Note_on_c, 9, 54, 125
4, 41880, Note_on_c, 9, 40, 93
4, 41909, Note_on_c, 9, 40, 0
4, 41909, Note_on_c, 9, 70, 0
4, 41909, Note_on_c, 9, 42, 0
4, 41909, Note_on_c, 9, 54, 0
4, 41910, Note_on_c, 9, 70, 48
4, 41939, Note_on_c, 9, 70, 0
4, 41940, Note_on_c, 9, 70, 58
4, 41940, Note_on_c, 9, 42, 51
4, 41940, Note_on_c, 9, 36, 64
4, 41969, Note_on_c, 9, 36, 0
4, 41969, Note_on_c, 9, 42, 0
4, 41969, Note_on_c, 9, 70, 0
4, 41970, Note_on_c, 9, 42, 43
4, 41970, Note_on_c, 9, 70, 48
4, 41999, Note_on_c, 9, 70, 0
4, 41999, Note_on_c, 9, 42, 0
4, 42000, Note_on_c, 9, 42, 64
4, 42000, Note_on_c, 9, 70, 74
4, 42029, Note_on_c, 9, 70, 0
4, 42029, Note_on_c, 9, 42, 0
4, 42030, Note_on_c, 9, 70, 30
4, 42059, Note_on_c, 9, 70, 0
4, 42060, Note_on_c, 9, 70, 89
4, 42060, Note_on_c, 9, 42, 74
4, 42060, Note_on_c, 9, 36, 79
4, 42089, Note_on_c, 9, 36, 0
4, 42089, Note_on_c, 9, 42, 0
4, 42089, Note_on_c, 9, 70, 0
4, 42090, Note_on_c, 9, 70, 77
4, 42119, Note_on_c, 9, 70, 0
4, 42120, Note_on_c, 9, 54, 127
4, 42120, Note_on_c, 9, 40, 127
4, 42120, Note_on_c, 9, 42, 111
4, 42120, Note_on_c, 9, 70, 124
4, 42149, Note_on_c, 9, 70, 0
4, 42149, Note_on_c, 9, 54, 0
4, 42149, Note_on_c, 9, 40, 0
4, 42149, Note_on_c, 9, 42, 0
4, 42150, Note_on_c, 9, 70, 48
4, 42179, Note_on_c, 9, 70, 0
4, 42180, Note_on_c, 9, 70, 55
4, 42180, Note_on_c, 9, 36, 58
4, 42180, Note_on_c, 9, 42, 77
4, 42209, Note_on_c, 9, 42, 0
4, 42209, Note_on_c, 9, 36, 0
4, 42209, Note_on_c, 9, 70, 0
4, 42210, Note_on_c, 9, 42, 55
4, 42210, Note_on_c, 9, 70, 77
4, 42239, Note_on_c, 9, 70, 0
4, 42239, Note_on_c, 9, 42, 0
4, 42240, Note_on_c, 9, 70, 74
4, 42240, Note_on_c, 9, 36, 79
4, 42240, Note_on_c, 9, 42, 84
4, 42269, Note_on_c, 9, 42, 0
4, 42269, Note_on_c, 9, 36, 0
4, 42269, Note_on_c, 9, 70, 0
4, 42270, Note_on_c, 9, 70, 39
4, 42299, Note_on_c, 9, 70, 0
4, 42300, Note_on_c, 9, 70, 72
4, 42300, Note_on_c, 9, 42, 48
4, 42329, Note_on_c, 9, 42, 0
4, 42329, Note_on_c, 9, 70, 0
4, 42330, Note_on_c, 9, 70, 48
4, 42359, Note_on_c, 9, 70, 0
4, 42360, Note_on_c, 9, 54, 125
4, 42360, Note_on_c, 9, 40, 127
4, 42360, Note_on_c, 9, 42, 111
4, 42360, Note_on_c, 9, 70, 123
4, 42389, Note_on_c, 9, 70, 0
4, 42389, Note_on_c, 9, 54, 0
4, 42389, Note_on_c, 9, 40, 0
4, 42389, Note_on_c, 9, 42, 0
4, 42390, Note_on_c, 9, 70, 66
4, 42419, Note_on_c, 9, 70, 0
4, 42420, Note_on_c, 9, 70, 51
4, 42420, Note_on_c, 9, 36, 58
4, 42420, Note_on_c, 9, 42, 77
4, 42449, Note_on_c, 9, 42, 0
4, 42449, Note_on_c, 9, 36, 0
4, 42449, Note_on_c, 9, 70, 0
4, 42450, Note_on_c, 9, 70, 39
4, 42450, Note_on_c, 9, 42, 39
4, 42479, Note_on_c, 9, 42, 0
4, 42479, Note_on_c, 9, 70, 0
4, 42480, Note_on_c, 9, 70, 66
4, 42480, Note_on_c, 9, 42, 84
4, 42509, Note_on_c, 9, 42, 0
4, 42509, Note_on_c, 9, 70, 0
4, 42510, Note_on_c, 9, 70, 35
4, 42539, Note_on_c, 9, 70, 0
4, 42540, Note_on_c, 9, 70, 61
4, 42540, Note_on_c, 9, 36, 102
4, 42540, Note_on_c, 9, 42, 102
4, 42569, Note_on_c, 9, 42, 0
4, 42569, Note_on_c, 9, 36, 0
4, 42569, Note_on_c, 9, 70, 0
4, 42570, Note_on_c, 9, 70, 39
4, 42599, Note_on_c, 9, 70, 0
4, 42600, Note_on_c, 9, 70, 99
4, 42600, Note_on_c, 9, 54, 127
4, 42600, Note_on_c, 9, 40, 127
4, 42600, Note_on_c, 9, 42, 84
4, 42629, Note_on_c, 9, 42, 0
4, 42629, Note_on_c, 9, 70, 0
4, 42629, Note_on_c, 9, 54, 0
4, 42629, Note_on_c, 9, 40, 0
4, 42630, Note_on_c, 9, 70, 51
4, 42659, Note_on_c, 9, 70, 0
4, 42660, Note_on_c, 9, 70, 51
4, 42660, Note_on_c, 9, 36, 48
4, 42660, Note_on_c, 9, 42, 66
4, 42689, Note_on_c, 9, 42, 0
4, 42689, Note_on_c, 9, 36, 0
4, 42689, Note_on_c, 9, 70, 0
4, 42690, Note_on_c, 9, 42, 35
4, 42690, Note_on_c, 9, 70, 35
4, 42719, Note_on_c, 9, 70, 0
4, 42719, Note_on_c, 9, 42, 0
4, 42720, Note_on_c, 9, 36, 93
4, 42720, Note_on_c, 9, 42, 77
4, 42720, Note_on_c, 9, 70, 99
4, 42749, Note_on_c, 9, 70, 0
4, 42749, Note_on_c, 9, 42, 0
4, 42749, Note_on_c, 9, 36, 0
4, 42750, Note_on_c, 9, 70, 26
4, 42779, Note_on_c, 9, 70, 0
4, 42780, Note_on_c, 9, 70, 58
4, 42780, Note_on_c, 9, 42, 72
4, 42809, Note_on_c, 9, 42, 0
4, 42809, Note_on_c, 9, 70, 0
4, 42810, Note_on_c, 9, 70, 48
4, 42839, Note_on_c, 9, 70, 0
4, 42840, Note_on_c, 9, 54, 125
4, 42840, Note_on_c, 9, 40, 127
4, 42840, Note_on_c, 9, 42, 102
4, 42840, Note_on_c, 9, 70, 125
4, 42869, Note_on_c, 9, 70, 0
4, 42869, Note_on_c, 9, 54, 0
4, 42869, Note_on_c, 9, 40, 0
4, 42869, Note_on_c, 9, 42, 0
4, 42870, Note_on_c, 9, 70, 64
4, 42899, Note_on_c, 9, 70, 0
4, 42900, Note_on_c, 9, 42, 39
4, 42900, Note_on_c, 9, 36, 74
4, 42900, Note_on_c, 9, 70, 26
4, 42929, Note_on_c, 9, 70, 0
4, 42929, Note_on_c, 9, 36, 0
4, 42929, Note_on_c, 9, 42, 0
4, 42930, Note_on_c, 9, 70, 39
4, 42930, Note_on_c, 9, 42, 39
4, 42959, Note_on_c, 9, 42, 0
4, 42959, Note_on_c, 9, 70, 0
4, 42960, Note_on_c, 9, 70, 81
4, 42960, Note_on_c, 9, 42, 61
4, 42989, Note_on_c, 9, 42, 0
4, 42989, Note_on_c, 9, 70, 0
4, 42990, Note_on_c, 9, 70, 30
4, 43019, Note_on_c, 9, 70, 0
4, 43020, Note_on_c, 9, 70, 66
4, 43020, Note_on_c, 9, 36, 58
4, 43020, Note_on_c, 9, 42, 96
4, 43049, Note_on_c, 9, 42, 0
4, 43049, Note_on_c, 9, 36, 0
4, 43049, Note_on_c, 9, 70, 0
4, 43050, Note_on_c, 9, 70, 48
4, 43079, Note_on_c, 9, 70, 0
4, 43080, Note_on_c, 9, 70, 96
4, 43080, Note_on_c, 9, 54, 127
4, 43080, Note_on_c, 9, 40, 99
4, 43080, Note_on_c, 9, 42, 81
4, 43109, Note_on_c, 9, 42, 0
4, 43109, Note_on_c, 9, 70, 0
4, 43109, Note_on_c, 9, 54, 0
4, 43109, Note_on_c, 9, 40, 0
4, 43110, Note_on_c, 9, 70, 58
4, 43139, Note_on_c, 9, 70, 0
4, 43140, Note_on_c, 9, 70, 51
4, 43140, Note_on_c, 9, 42, 77
4, 43140, Note_on_c, 9, 36, 35
4, 43169, Note_on_c, 9, 36, 0
4, 43169, Note_on_c, 9, 42, 0
4, 43169, Note_on_c, 9, 70, 0
4, 43170, Note_on_c, 9, 70, 77
4, 43170, Note_on_c, 9, 42, 55
4, 43199, Note_on_c, 9, 42, 0
4, 43199, Note_on_c, 9, 70, 0
4, 43200, Note_on_c, 9, 70, 77
4, 43200, Note_on_c, 9, 36, 99
4, 43200, Note_on_c, 9, 42, 48
4, 43229, Note_on_c, 9, 42, 0
4, 43229, Note_on_c, 9, 36, 0
4, 43229, Note_on_c, 9, 70, 0
4, 43230, Note_on_c, 9, 70, 22
4, 43259, Note_on_c, 9, 70, 0
4, 43260, Note_on_c, 9, 70, 58
4, 43260, Note_on_c, 9, 42, 84
4, 43289, Note_on_c, 9, 42, 0
4, 43289, Note_on_c, 9, 70, 0
4, 43290, Note_on_c, 9, 70, 43
4, 43319, Note_on_c, 9, 70, 0
4, 43320, Note_on_c, 9, 40, 127
4, 43320, Note_on_c, 9, 54, 125
4, 43320, Note_on_c, 9, 42, 102
4, 43320, Note_on_c, 9, 70, 111
4, 43349, Note_on_c, 9, 70, 0
4, 43349, Note_on_c, 9, 40, 0
4, 43349, Note_on_c, 9, 54, 0
4, 43349, Note_on_c, 9, 42, 0
4, 43350, Note_on_c, 9, 70, 51
4, 43379, Note_on_c, 9, 70, 0
4, 43380, Note_on_c, 9, 70, 43
4, 43380, Note_on_c, 9, 36, 79
4, 43380, Note_on_c, 9, 42, 58
4, 43409, Note_on_c, 9, 42, 0
4, 43409, Note_on_c, 9, 36, 0
4, 43409, Note_on_c, 9, 70, 0
4, 43410, Note_on_c, 9, 42, 72
4, 43410, Note_on_c, 9, 70, 30
4, 43439, Note_on_c, 9, 70, 0
4, 43439, Note_on_c, 9, 42, 0
4, 43440, Note_on_c, 9, 42, 58
4, 43440, Note_on_c, 9, 70, 96
4, 43469, Note_on_c, 9, 70, 0
4, 43469, Note_on_c, 9, 42, 0
4, 43470, Note_on_c, 9, 70, 39
4, 43499, Note_on_c, 9, 70, 0
4, 43500, Note_on_c, 9, 36, 69
4, 43500, Note_on_c, 9, 42, 64
4, 43500, Note_on_c, 9, 70, 61
4, 43529, Note_on_c, 9, 70, 0
4, 43529, Note_on_c, 9, 42, 0
4, 43529, Note_on_c, 9, 36, 0
4, 43530, Note_on_c, 9, 70, 35
4, 43559, Note_on_c, 9, 70, 0
4, 43560, Note_on_c, 9, 54, 127
4, 43560, Note_on_c, 9, 40, 114
4, 43560, Note_on_c, 9, 42, 81
4, 43560, Note_on_c, 9, 70, 77
4, 43589, Note_on_c, 9, 70, 0
4, 43589, Note_on_c, 9, 54, 0
4, 43589, Note_on_c, 9, 40, 0
4, 43589, Note_on_c, 9, 42, 0
4, 43590, Note_on_c, 9, 70, 35
4, 43619, Note_on_c, 9, 70, 0
4, 43620, Note_on_c, 9, 70, 58
4, 43620, Note_on_c, 9, 42, 66
4, 43620, Note_on_c, 9, 36, 48
4, 43649, Note_on_c, 9, 36, 0
4, 43649, Note_on_c, 9, 42, 0
4, 43649, Note_on_c, 9, 70, 0
4, 43650, Note_on_c, 9, 70, 48
4, 43650, Note_on_c, 9, 42, 48
4, 43679, Note_on_c, 9, 42, 0
4, 43679, Note_on_c, 9, 70, 0
4, 43680, Note_on_c, 9, 70, 96
4, 43680, Note_on_c, 9, 42, 66
4, 43680, Note_on_c, 9, 36, 81
4, 43709, Note_on_c, 9, 36, 0
4, 43709, Note_on_c, 9, 42, 0
4, 43709, Note_on_c, 9, 70, 0
4, 43710, Note_on_c, 9, 70, 39
4, 43739, Note_on_c, 9, 70, 0
4, 43740, Note_on_c, 9, 70, 51
4, 43740, Note_on_c, 9, 42, 89
4, 43769, Note_on_c, 9, 42, 0
4, 43769, Note_on_c, 9, 70, 0
4, 43770, Note_on_c, 9, 70, 66
4, 43799, Note_on_c, 9, 70, 0
4, 43800, Note_on_c, 9, 70, 86
4, 43800, Note_on_c, 9, 54, 125
4, 43800, Note_on_c, 9, 40, 125
4, 43800, Note_on_c, 9, 42, 84
4, 43829, Note_on_c, 9, 42, 0
4, 43829, Note_on_c, 9, 70, 0
4, 43829, Note_on_c, 9, 54, 0
4, 43829, Note_on_c, 9, 40, 0
4, 43830, Note_on_c, 9, 70, 48
4, 43859, Note_on_c, 9, 70, 0
4, 43860, Note_on_c, 9, 70, 58
4, 43860, Note_on_c, 9, 42, 77
4, 43860, Note_on_c, 9, 36, 74
4, 43889, Note_on_c, 9, 36, 0
4, 43889, Note_on_c, 9, 42, 0
4, 43889, Note_on_c, 9, 70, 0
4, 43890, Note_on_c, 9, 70, 39
4, 43890, Note_on_c, 9, 42, 26
4, 43919, Note_on_c, 9, 42, 0
4, 43919, Note_on_c, 9, 70, 0
4, 43920, Note_on_c, 9, 70, 84
4, 43920, Note_on_c, 9, 42, 58
4, 43949, Note_on_c, 9, 42, 0
4, 43949, Note_on_c, 9, 70, 0
4, 43950, Note_on_c, 9, 70, 39
4, 43979, Note_on_c, 9, 70, 0
4, 43980, Note_on_c, 9, 70, 61
4, 43980, Note_on_c, 9, 36, 69
4, 43980, Note_on_c, 9, 42, 96
4, 44009, Note_on_c, 9, 42, 0
4, 44009, Note_on_c, 9, 36, 0
4, 44009, Note_on_c, 9, 70, 0
4, 44010, Note_on_c, 9, 70, 58
4, 44039, Note_on_c, 9, 70, 0
4, 44040, Note_on_c, 9, 54, 127
4, 44040, Note_on_c, 9, 40, 102
4, 44040, Note_on_c, 9, 42, 89
4, 44040, Note_on_c, 9, 70, 102
4, 44069, Note_on_c, 9, 70, 0
4, 44069, Note_on_c, 9, 54, 0
4, 44069, Note_on_c, 9, 40, 0
4, 44069, Note_on_c, 9, 42, 0
4, 44070, Note_on_c, 9, 70, 51
4, 44099, Note_on_c, 9, 70, 0
4, 44100, Note_on_c, 9, 42, 61
4, 44100, Note_on_c, 9, 36, 39
4, 44100, Note_on_c, 9, 70, 58
4, 44129, Note_on_c, 9, 70, 0
4, 44129, Note_on_c, 9, 36, 0
4, 44129, Note_on_c, 9, 42, 0
4, 44130, Note_on_c, 9, 42, 48
4, 44130, Note_on_c, 9, 70, 72
4, 44159, Note_on_c, 9, 70, 0
4, 44159, Note_on_c, 9, 42, 0
4, 44160, Note_on_c, 9, 42, 89
4, 44160, Note_on_c, 9, 36, 96
4, 44160, Note_on_c, 9, 70, 86
4, 44189, Note_on_c, 9, 70, 0
4, 44189, Note_on_c, 9, 36, 0
4, 44189, Note_on_c, 9, 42, 0
4, 44190, Note_on_c, 9, 70, 39
4, 44219, Note_on_c, 9, 70, 0
4, 44220, Note_on_c, 9, 42, 84
4, 44220, Note_on_c, 9, 70, 43
4, 44249, Note_on_c, 9, 70, 0
4, 44249, Note_on_c, 9, 42, 0
4, 44250, Note_on_c, 9, 36, 58
4, 44250, Note_on_c, 9, 70, 48
4, 44279, Note_on_c, 9, 70, 0
4, 44279, Note_on_c, 9, 36, 0
4, 44280, Note_on_c, 9, 40, 127
4, 44280, Note_on_c, 9, 54, 125
4, 44280, Note_on_c, 9, 42, 74
4, 44280, Note_on_c, 9, 70, 102
4, 44309, Note_on_c, 9, 70, 0
4, 44309, Note_on_c, 9, 40, 0
4, 44309, Note_on_c, 9, 54, 0
4, 44309, Note_on_c, 9, 42, 0
4, 44310, Note_on_c, 9, 70, 58
4, 44339, Note_on_c, 9, 70, 0
4, 44340, Note_on_c, 9, 70, 26
4, 44340, Note_on_c, 9, 42, 64
4, 44340, Note_on_c, 9, 36, 72
4, 44369, Note_on_c, 9, 36, 0
4, 44369, Note_on_c, 9, 42, 0
4, 44369, Note_on_c, 9, 70, 0
4, 44370, Note_on_c, 9, 42, 66
4, 44370, Note_on_c, 9, 70, 39
4, 44399, Note_on_c, 9, 70, 0
4, 44399, Note_on_c, 9, 42, 0
4, 44400, Note_on_c, 9, 42, 77
4, 44400, Note_on_c, 9, 70, 77
4, 44429, Note_on_c, 9, 70, 0
4, 44429, Note_on_c, 9, 42, 0
4, 44430, Note_on_c, 9, 70, 39
4, 44459, Note_on_c, 9, 70, 0
4, 44460, Note_on_c, 9, 36, 84
4, 44460, Note_on_c, 9, 42, 66
4, 44460, Note_on_c, 9, 70, 72
4, 44489, Note_on_c, 9, 70, 0
4, 44489, Note_on_c, 9, 42, 0
4, 44489, Note_on_c, 9, 36, 0
4, 44490, Note_on_c, 9, 70, 61
4, 44519, Note_on_c, 9, 70, 0
4, 44520, Note_on_c, 9, 54, 127
4, 44520, Note_on_c, 9, 40, 127
4, 44520, Note_on_c, 9, 42, 89
4, 44520, Note_on_c, 9, 70, 114
4, 44549, Note_on_c, 9, 70, 0
4, 44549, Note_on_c, 9, 54, 0
4, 44549, Note_on_c, 9, 40, 0
4, 44549, Note_on_c, 9, 42, 0
4, 44550, Note_on_c, 9, 70, 39
4, 44579, Note_on_c, 9, 70, 0
4, 44580, Note_on_c, 9, 70, 51
4, 44580, Note_on_c, 9, 46, 99
4, 44580, Note_on_c, 9, 36, 61
4, 44609, Note_on_c, 9, 36, 0
4, 44609, Note_on_c, 9, 46, 0
4, 44609, Note_on_c, 9, 70, 0
4, 44610, Note_on_c, 9, 70, 39
4, 44639, Note_on_c, 9, 70, 0
4, 44640, Note_on_c, 9, 36, 102
4, 44640, Note_on_c, 9, 42, 69
4, 44640, Note_on_c, 9, 70, 77
4, 44669, Note_on_c, 9, 70, 0
4, 44669, Note_on_c, 9, 42, 0
4, 44669, Note_on_c, 9, 36, 0
4, 44670, Note_on_c, 9, 70, 55
4, 44699, Note_on_c, 9, 70, 0
4, 44700, Note_on_c, 9, 70, 35
4, 44700, Note_on_c, 9, 42, 58
4, 44729, Note_on_c, 9, 42, 0
4, 44729, Note_on_c, 9, 70, 0
4, 44730, Note_on_c, 9, 70, 22
4, 44759, Note_on_c, 9, 70, 0
4, 44760, Note_on_c, 9, 42, 93
4, 44760, Note_on_c, 9, 40, 127
4, 44760, Note_on_c, 9, 54, 125
4, 44760, Note_on_c, 9, 70, 111
4, 44789, Note_on_c, 9, 70, 0
4, 44789, Note_on_c, 9, 42, 0
4, 44789, Note_on_c, 9, 40, 0
4, 44789, Note_on_c, 9, 54, 0
4, 44790, Note_on_c, 9, 70, 55
4, 44819, Note_on_c, 9, 70, 0
4, 44820, Note_on_c, 9, 70, 39
4, 44820, Note_on_c, 9, 42, 61
4, 44820, Note_on_c, 9, 36, 74
4, 44849, Note_on_c, 9, 36, 0
4, 44849, Note_on_c, 9, 42, 0
4, 44849, Note_on_c, 9, 70, 0
4, 44850, Note_on_c, 9, 70, 35
4, 44850, Note_on_c, 9, 42, 26
4, 44879, Note_on_c, 9, 42, 0
4, 44879, Note_on_c, 9, 70, 0
4, 44880, Note_on_c, 9, 70, 51
4, 44880, Note_on_c, 9, 42, 77
4, 44909, Note_on_c, 9, 42, 0
4, 44909, Note_on_c, 9, 70, 0
4, 44910, Note_on_c, 9, 70, 48
4, 44939, Note_on_c, 9, 70, 0
4, 44940, Note_on_c, 9, 70, 64
4, 44940, Note_on_c, 9, 36, 58
4, 44940, Note_on_c, 9, 42, 89
4, 44969, Note_on_c, 9, 42, 0
4, 44969, Note_on_c, 9, 36, 0
4, 44969, Note_on_c, 9, 70, 0
4, 44970, Note_on_c, 9, 70, 55
4, 44999, Note_on_c, 9, 70, 0
4, 45000, Note_on_c, 9, 70, 64
4, 45000, Note_on_c, 9, 54, 127
4, 45000, Note_on_c, 9, 40, 127
4, 45000, Note_on_c, 9, 42, 77
4, 45029, Note_on_c, 9, 42, 0
4, 45029, Note_on_c, 9, 70, 0
4, 45029, Note_on_c, 9, 54, 0
4, 45029, Note_on_c, 9, 40, 0
4, 45030, Note_on_c, 9, 70, 39
4, 45059, Note_on_c, 9, 70, 0
4, 45060, Note_on_c, 9, 36, 39
4, 45060, Note_on_c, 9, 42, 61
4, 45060, Note_on_c, 9, 70, 86
4, 45089, Note_on_c, 9, 70, 0
4, 45089, Note_on_c, 9, 42, 0
4, 45089, Note_on_c, 9, 36, 0
4, 45090, Note_on_c, 9, 42, 58
4, 45090, Note_on_c, 9, 70, 58
4, 45119, Note_on_c, 9, 70, 0
4, 45119, Note_on_c, 9, 42, 0
4, 45120, Note_on_c, 9, 36, 91
4, 45120, Note_on_c, 9, 42, 66
4, 45120, Note_on_c, 9, 70, 58
4, 45149, Note_on_c, 9, 70, 0
4, 45149, Note_on_c, 9, 42, 0
4, 45149, Note_on_c, 9, 36, 0
4, 45150, Note_on_c, 9, 70, 39
4, 45179, Note_on_c, 9, 70, 0
4, 45180, Note_on_c, 9, 42, 72
4, 45180, Note_on_c, 9, 70, 72
4, 45209, Note_on_c, 9, 70, 0
4, 45209, Note_on_c, 9, 42, 0
4, 45210, Note_on_c, 9, 70, 61
4, 45239, Note_on_c, 9, 70, 0
4, 45240, Note_on_c, 9, 42, 117
4, 45240, Note_on_c, 9, 40, 127
4, 45240, Note_on_c, 9, 54, 125
4, 45240, Note_on_c, 9, 70, 84
4, 45269, Note_on_c, 9, 70, 0
4, 45269, Note_on_c, 9, 42, 0
4, 45269, Note_on_c, 9, 40, 0
4, 45269, Note_on_c, 9, 54, 0
4, 45270, Note_on_c, 9, 70, 39
4, 45299, Note_on_c, 9, 70, 0
4, 45300, Note_on_c, 9, 42, 51
4, 45300, Note_on_c, 9, 36, 74
4, 45300, Note_on_c, 9, 70, 72
4, 45329, Note_on_c, 9, 70, 0
4, 45329, Note_on_c, 9, 36, 0
4, 45329, Note_on_c, 9, 42, 0
4, 45330, Note_on_c, 9, 70, 61
4, 45330, Note_on_c, 9, 42, 48
4, 45359, Note_on_c, 9, 42, 0
4, 45359, Note_on_c, 9, 70, 0
4, 45360, Note_on_c, 9, 70, 58
4, 45360, Note_on_c, 9, 42, 72
4, 45389, Note_on_c, 9, 42, 0
4, 45389, Note_on_c, 9, 70, 0
4, 45390, Note_on_c, 9, 70, 35
4, 45419, Note_on_c, 9, 70, 0
4, 45420, Note_on_c, 9, 70, 72
4, 45420, Note_on_c, 9, 36, 79
4, 45420, Note_on_c, 9, 42, 84
4, 45449, Note_on_c, 9, 42, 0
4, 45449, Note_on_c, 9, 36, 0
4, 45449, Note_on_c, 9, 70, 0
4, 45450, Note_on_c, 9, 70, 48
4, 45479, Note_on_c, 9, 70, 0
4, 45480, Note_on_c, 9, 54, 127
4, 45480, Note_on_c, 9, 40, 127
4, 45480, Note_on_c, 9, 42, 117
4, 45480, Note_on_c, 9, 70, 96
4, 45509, Note_on_c, 9, 70, 0
4, 45509, Note_on_c, 9, 54, 0
4, 45509, Note_on_c, 9, 40, 0
4, 45509, Note_on_c, 9, 42, 0
4, 45510, Note_on_c, 9, 40, 99
4, 45510, Note_on_c, 9, 70, 48
4, 45539, Note_on_c, 9, 70, 0
4, 45539, Note_on_c, 9, 40, 0
4, 45540, Note_on_c, 9, 42, 48
4, 45540, Note_on_c, 9, 36, 84
4, 45540, Note_on_c, 9, 70, 39
4, 45569, Note_on_c, 9, 70, 0
4, 45569, Note_on_c, 9, 36, 0
4, 45569, Note_on_c, 9, 42, 0
4, 45570, Note_on_c, 9, 42, 58
4, 45570, Note_on_c, 9, 70, 39
4, 45599, Note_on_c, 9, 70, 0
4, 45599, Note_on_c, 9, 42, 0
4, 45600, Note_on_c, 9, 42, 89
4, 45600, Note_on_c, 9, 36, 74
4, 45600, Note_on_c, 9, 70, 77
4, 45629, Note_on_c, 9, 70, 0
4, 45629, Note_on_c, 9, 36, 0
4, 45629, Note_on_c, 9, 42, 0
4, 45630, Note_on_c, 9, 70, 35
4, 45659, Note_on_c, 9, 70, 0
4, 45660, Note_on_c, 9, 70, 58
4, 45660, Note_on_c, 9, 42, 72
4, 45689, Note_on_c, 9, 42, 0
4, 45689, Note_on_c, 9, 70, 0
4, 45690, Note_on_c, 9, 70, 39
4, 45719, Note_on_c, 9, 70, 0
4, 45720, Note_on_c, 9, 42, 111
4, 45720, Note_on_c, 9, 40, 91
4, 45720, Note_on_c, 9, 54, 125
4, 45720, Note_on_c, 9, 70, 81
4, 45749, Note_on_c, 9, 70, 0
4, 45749, Note_on_c, 9, 42, 0
4, 45749, Note_on_c, 9, 40, 0
4, 45749, Note_on_c, 9, 54, 0
4, 45750, Note_on_c, 9, 70, 61
4, 45779, Note_on_c, 9, 70, 0
4, 45780, Note_on_c, 9, 70, 66
4, 45780, Note_on_c, 9, 42, 48
4, 45780, Note_on_c, 9, 36, 79
4, 45809, Note_on_c, 9, 36, 0
4, 45809, Note_on_c, 9, 42, 0
4, 45809, Note_on_c, 9, 70, 0
4, 45810, Note_on_c, 9, 42, 58
4, 45810, Note_on_c, 9, 70, 58
4, 45839, Note_on_c, 9, 70, 0
4, 45839, Note_on_c, 9, 42, 0
4, 45840, Note_on_c, 9, 70, 86
4, 45840, Note_on_c, 9, 42, 72
4, 45869, Note_on_c, 9, 42, 0
4, 45869, Note_on_c, 9, 70, 0
4, 45870, Note_on_c, 9, 70, 43
4, 45899, Note_on_c, 9, 70, 0
4, 45900, Note_on_c, 9, 42, 48
4, 45900, Note_on_c, 9, 36, 84
4, 45900, Note_on_c, 9, 70, 61
4, 45929, Note_on_c, 9, 70, 0
4, 45929, Note_on_c, 9, 36, 0
4, 45929, Note_on_c, 9, 42, 0
4, 45930, Note_on_c, 9, 70, 39
4, 45959, Note_on_c, 9, 70, 0
4, 45960, Note_on_c, 9, 54, 127
4, 45960, Note_on_c, 9, 40, 127
4, 45960, Note_on_c, 9, 42, 111
4, 45960, Note_on_c, 9, 70, 102
4, 45989, Note_on_c, 9, 70, 0
4, 45989, Note_on_c, 9, 54, 0
4, 45989, Note_on_c, 9, 40, 0
4, 45989, Note_on_c, 9, 42, 0
4, 45990, Note_on_c, 9, 70, 39
4, 46019, Note_on_c, 9, 70, 0
4, 46020, Note_on_c, 9, 42, 51
4, 46020, Note_on_c, 9, 36, 35
4, 46020, Note_on_c, 9, 70, 39
4, 46049, Note_on_c, 9, 70, 0
4, 46049, Note_on_c, 9, 36, 0
4, 46049, Note_on_c, 9, 42, 0
4, 46050, Note_on_c, 9, 42, 66
4, 46050, Note_on_c, 9, 70, 30
4, 46079, Note_on_c, 9, 70, 0
4, 46079, Note_on_c, 9, 42, 0
4, 46080, Note_on_c, 9, 70, 86
4, 46080, Note_on_c, 9, 42, 74
4, 46080, Note_on_c, 9, 36, 105
4, 46109, Note_on_c, 9, 36, 0
4, 46109, Note_on_c, 9, 42, 0
4, 46109, Note_on_c, 9, 70, 0
4, 46110, Note_on_c, 9, 70, 39
4, 46139, Note_on_c, 9, 70, 0
4, 46140, Note_on_c, 9, 70, 72
4, 46140, Note_on_c, 9, 40, 102
4, 46140, Note_on_c, 9, 42, 89
4, 46169, Note_on_c, 9, 42, 0
4, 46169, Note_on_c, 9, 40, 0
4, 46169, Note_on_c, 9, 70, 0
4, 46170, Note_on_c, 9, 70, 61
4, 46199, Note_on_c, 9, 70, 0
4, 46200, Note_on_c, 9, 40, 93
4, 46200, Note_on_c, 9, 54, 125
4, 46200, Note_on_c, 9, 42, 124
4, 46200, Note_on_c, 9, 70, 72
4, 46229, Note_on_c, 9, 70, 0
4, 46229, Note_on_c, 9, 40, 0
4, 46229, Note_on_c, 9, 54, 0
4, 46229, Note_on_c, 9, 42, 0
4, 46230, Note_on_c, 9, 70, 43
4, 46230, Note_on_c, 9, 40, 124
4, 46259, Note_on_c, 9, 40, 0
4, 46259, Note_on_c, 9, 70, 0
4, 46260, Note_on_c, 9, 70, 77
4, 46260, Note_on_c, 9, 36, 105
4, 46289, Note_on_c, 9, 36, 0
4, 46289, Note_on_c, 9, 70, 0
4, 46290, Note_on_c, 9, 70, 48
4, 46319, Note_on_c, 9, 70, 0
4, 46320, Note_on_c, 9, 40, 102
4, 46320, Note_on_c, 9, 70, 93
4, 46349, Note_on_c, 9, 70, 0
4, 46349, Note_on_c, 9, 40, 0
4, 46350, Note_on_c, 9, 40, 124
4, 46350, Note_on_c, 9, 70, 55
4, 46379, Note_on_c, 9, 70, 0
4, 46379, Note_on_c, 9, 40, 0
4, 46380, Note_on_c, 9, 36, 127
4, 46380, Note_on_c, 9, 70, 51
4, 46409, Note_on_c, 9, 70, 0
4, 46409, Note_on_c, 9, 36, 0
4, 46410, Note_on_c, 9, 70, 48
4, 46439, Note_on_c, 9, 70, 0
4, 46440, Note_on_c, 9, 70, 93
4, 46440, Note_on_c, 9, 54, 127
4, 46440, Note_on_c, 9, 40, 99
4, 46469, Note_on_c, 9, 40, 0
4, 46469, Note_on_c, 9, 54, 0
4, 46469, Note_on_c, 9, 70, 0
4, 46470, Note_on_c, 9, 40, 127
4, 46470, Note_on_c, 9, 70, 48
4, 46499, Note_on_c, 9, 70, 0
4, 46499, Note_on_c, 9, 40, 0
4, 46500, Note_on_c, 9, 70, 51
4, 46500, Note_on_c, 9, 36, 84
4, 46529, Note_on_c, 9, 36, 0
4, 46529, Note_on_c, 9, 70, 0
4, 46530, Note_on_c, 9, 70, 61
4, 46559, Note_on_c, 9, 70, 0
4, 46560, Note_on_c, 9, 70, 86
4, 46560, Note_on_c, 9, 55, 127
4, 46560, Note_on_c, 9, 36, 124
4, 46589, Note_on_c, 9, 36, 0
4, 46589, Note_on_c, 9, 55, 0
4, 46589, Note_on_c, 9, 70, 0
4, 46590, Note_on_c, 9, 70, 48
4, 46619, Note_on_c, 9, 70, 0
4, 46620, Note_on_c, 9, 70, 51
4, 46620, Note_on_c, 9, 42, 61
4, 46649, Note_on_c, 9, 42, 0
4, 46649, Note_on_c, 9, 70, 0
4, 46650, Note_on_c, 9, 70, 61
4, 46679, Note_on_c, 9, 70, 0
4, 46680, Note_on_c, 9, 70, 123
4, 46680, Note_on_c, 9, 54, 125
4, 46680, Note_on_c, 9, 40, 127
4, 46680, Note_on_c, 9, 42, 84
4, 46709, Note_on_c, 9, 42, 0
4, 46709, Note_on_c, 9, 70, 0
4, 46709, Note_on_c, 9, 54, 0
4, 46709, Note_on_c, 9, 40, 0
4, 46710, Note_on_c, 9, 70, 39
4, 46739, Note_on_c, 9, 70, 0
4, 46740, Note_on_c, 9, 70, 66
4, 46740, Note_on_c, 9, 42, 55
4, 46740, Note_on_c, 9, 36, 93
4, 46769, Note_on_c, 9, 36, 0
4, 46769, Note_on_c, 9, 42, 0
4, 46769, Note_on_c, 9, 70, 0
4, 46770, Note_on_c, 9, 70, 77
4, 46770, Note_on_c, 9, 42, 39
4, 46799, Note_on_c, 9, 42, 0
4, 46799, Note_on_c, 9, 70, 0
4, 46800, Note_on_c, 9, 70, 69
4, 46800, Note_on_c, 9, 42, 48
4, 46829, Note_on_c, 9, 42, 0
4, 46829, Note_on_c, 9, 70, 0
4, 46830, Note_on_c, 9, 70, 26
4, 46859, Note_on_c, 9, 70, 0
4, 46860, Note_on_c, 9, 70, 72
4, 46860, Note_on_c, 9, 36, 89
4, 46860, Note_on_c, 9, 42, 26
4, 46889, Note_on_c, 9, 42, 0
4, 46889, Note_on_c, 9, 36, 0
4, 46889, Note_on_c, 9, 70, 0
4, 46890, Note_on_c, 9, 70, 48
4, 46919, Note_on_c, 9, 70, 0
4, 46920, Note_on_c, 9, 54, 127
4, 46920, Note_on_c, 9, 40, 127
4, 46920, Note_on_c, 9, 42, 58
4, 46920, Note_on_c, 9, 70, 93
4, 46949, Note_on_c, 9, 70, 0
4, 46949, Note_on_c, 9, 54, 0
4, 46949, Note_on_c, 9, 40, 0
4, 46949, Note_on_c, 9, 42, 0
4, 46950, Note_on_c, 9, 70, 58
4, 46979, Note_on_c, 9, 70, 0
4, 46980, Note_on_c, 9, 42, 35
4, 46980, Note_on_c, 9, 36, 48
4, 46980, Note_on_c, 9, 70, 39
4, 47009, Note_on_c, 9, 70, 0
4, 47009, Note_on_c, 9, 36, 0
4, 47009, Note_on_c, 9, 42, 0
4, 47010, Note_on_c, 9, 42, 39
4, 47010, Note_on_c, 9, 70, 51
4, 47039, Note_on_c, 9, 70, 0
4, 47039, Note_on_c, 9, 42, 0
4, 47040, Note_on_c, 9, 42, 51
4, 47040, Note_on_c, 9, 36, 123
4, 47040, Note_on_c, 9, 70, 86
4, 47069, Note_on_c, 9, 70, 0
4, 47069, Note_on_c, 9, 36, 0
4, 47069, Note_on_c, 9, 42, 0
4, 47070, Note_on_c, 9, 70, 72
4, 47099, Note_on_c, 9, 70, 0
4, 47100, Note_on_c, 9, 42, 55
4, 47100, Note_on_c, 9, 70, 51
4, 47129, Note_on_c, 9, 70, 0
4, 47129, Note_on_c, 9, 42, 0
4, 47130, Note_on_c, 9, 70, 72
4, 47159, Note_on_c, 9, 70, 0
4, 47160, Note_on_c, 9, 42, 108
4, 47160, Note_on_c, 9, 40, 127
4, 47160, Note_on_c, 9, 54, 125
4, 47160, Note_on_c, 9, 70, 96
4, 47189, Note_on_c, 9, 70, 0
4, 47189, Note_on_c, 9, 42, 0
4, 47189, Note_on_c, 9, 40, 0
4, 47189, Note_on_c, 9, 54, 0
4, 47190, Note_on_c, 9, 70, 58
4, 47219, Note_on_c, 9, 70, 0
4, 47220, Note_on_c, 9, 42, 77
4, 47220, Note_on_c, 9, 36, 84
4, 47220, Note_on_c, 9, 70, 66
4, 47249, Note_on_c, 9, 70, 0
4, 47249, Note_on_c, 9, 36, 0
4, 47249, Note_on_c, 9, 42, 0
4, 47250, Note_on_c, 9, 42, 48
4, 47250, Note_on_c, 9, 70, 55
4, 47279, Note_on_c, 9, 70, 0
4, 47279, Note_on_c, 9, 42, 0
4, 47280, Note_on_c, 9, 42, 77
4, 47280, Note_on_c, 9, 70, 89
4, 47309, Note_on_c, 9, 70, 0
4, 47309, Note_on_c, 9, 42, 0
4, 47310, Note_on_c, 9, 70, 48
4, 47339, Note_on_c, 9, 70, 0
4, 47340, Note_on_c, 9, 36, 72
4, 47340, Note_on_c, 9, 42, 55
4, 47340, Note_on_c, 9, 70, 69
4, 47369, Note_on_c, 9, 70, 0
4, 47369, Note_on_c, 9, 42, 0
4, 47369, Note_on_c, 9, 36, 0
4, 47370, Note_on_c, 9, 70, 55
4, 47399, Note_on_c, 9, 70, 0
4, 47400, Note_on_c, 9, 70, 77
4, 47400, Note_on_c, 9, 54, 127
4, 47400, Note_on_c, 9, 40, 127
4, 47400, Note_on_c, 9, 42, 84
4, 47429, Note_on_c, 9, 42, 0
4, 47429, Note_on_c, 9, 70, 0
4, 47429, Note_on_c, 9, 54, 0
4, 47429, Note_on_c, 9, 40, 0
4, 47430, Note_on_c, 9, 70, 51
4, 47459, Note_on_c, 9, 70, 0
4, 47460, Note_on_c, 9, 42, 55
4, 47460, Note_on_c, 9, 36, 58
4, 47460, Note_on_c, 9, 70, 61
4, 47489, Note_on_c, 9, 70, 0
4, 47489, Note_on_c, 9, 36, 0
4, 47489, Note_on_c, 9, 42, 0
4, 47490, Note_on_c, 9, 70, 43
4, 47490, Note_on_c, 9, 42, 30
4, 47519, Note_on_c, 9, 42, 0
4, 47519, Note_on_c, 9, 70, 0
4, 47520, Note_on_c, 9, 36, 102
4, 47520, Note_on_c, 9, 42, 51
4, 47520, Note_on_c, 9, 70, 58
4, 47549, Note_on_c, 9, 70, 0
4, 47549, Note_on_c, 9, 42, 0
4, 47549, Note_on_c, 9, 36, 0
4, 47550, Note_on_c, 9, 70, 51
4, 47579, Note_on_c, 9, 70, 0
4, 47580, Note_on_c, 9, 42, 51
4, 47580, Note_on_c, 9, 70, 64
4, 47609, Note_on_c, 9, 70, 0
4, 47609, Note_on_c, 9, 42, 0
4, 47610, Note_on_c, 9, 70, 66
4, 47639, Note_on_c, 9, 70, 0
4, 47640, Note_on_c, 9, 40, 123
4, 47640, Note_on_c, 9, 54, 125
4, 47640, Note_on_c, 9, 42, 96
4, 47640, Note_on_c, 9, 70, 77
4, 47669, Note_on_c, 9, 70, 0
4, 47669, Note_on_c, 9, 40, 0
4, 47669, Note_on_c, 9, 54, 0
4, 47669, Note_on_c, 9, 42, 0
4, 47670, Note_on_c, 9, 70, 66
4, 47699, Note_on_c, 9, 70, 0
4, 47700, Note_on_c, 9, 36, 84
4, 47700, Note_on_c, 9, 42, 55
4, 47700, Note_on_c, 9, 70, 84
4, 47729, Note_on_c, 9, 70, 0
4, 47729, Note_on_c, 9, 42, 0
4, 47729, Note_on_c, 9, 36, 0
4, 47730, Note_on_c, 9, 42, 39
4, 47730, Note_on_c, 9, 70, 77
4, 47759, Note_on_c, 9, 70, 0
4, 47759, Note_on_c, 9, 42, 0
4, 47760, Note_on_c, 9, 42, 39
4, 47760, Note_on_c, 9, 70, 66
4, 47789, Note_on_c, 9, 70, 0
4, 47789, Note_on_c, 9, 42, 0
4, 47790, Note_on_c, 9, 70, 51
4, 47819, Note_on_c, 9, 70, 0
4, 47820, Note_on_c, 9, 36, 64
4, 47820, Note_on_c, 9, 42, 66
4, 47820, Note_on_c, 9, 70, 77
4, 47849, Note_on_c, 9, 70, 0
4, 47849, Note_on_c, 9, 42, 0
4, 47849, Note_on_c, 9, 36, 0
4, 47850, Note_on_c, 9, 70, 30
4, 47879, Note_on_c, 9, 70, 0
4, 47880, Note_on_c, 9, 42, 69
4, 47880, Note_on_c, 9, 54, 127
4, 47880, Note_on_c, 9, 40, 127
4, 47880, Note_on_c, 9, 70, 77
4, 47909, Note_on_c, 9, 70, 0
4, 47909, Note_on_c, 9, 42, 0
4, 47909, Note_on_c, 9, 54, 0
4, 47909, Note_on_c, 9, 40, 0
4, 47910, Note_on_c, 9, 70, 39
4, 47939, Note_on_c, 9, 70, 0
4, 47940, Note_on_c, 9, 36, 26
4, 47940, Note_on_c, 9, 42, 58
4, 47940, Note_on_c, 9, 70, 61
4, 47969, Note_on_c, 9, 70, 0
4, 47969, Note_on_c, 9, 42, 0
4, 47969, Note_on_c, 9, 36, 0
4, 47970, Note_on_c, 9, 70, 51
4, 47970, Note_on_c, 9, 42, 58
4, 47999, Note_on_c, 9, 42, 0
4, 47999, Note_on_c, 9, 70, 0
4, 48000, Note_on_c, 9, 36, 111
4, 48000, Note_on_c, 9, 42, 89
4, 48000, Note_on_c, 9, 70, 64
4, 48029, Note_on_c, 9, 70, 0
4, 48029, Note_on_c, 9, 42, 0
4, 48029, Note_on_c, 9, 36, 0
4, 48030, Note_on_c, 9, 70, 51
4, 48059, Note_on_c, 9, 70, 0
4, 48060, Note_on_c, 9, 70, 72
4, 48060, Note_on_c, 9, 42, 55
4, 48089, Note_on_c, 9, 42, 0
4, 48089, Note_on_c, 9, 70, 0
4, 48090, Note_on_c, 9, 70, 51
4, 48090, Note_on_c, 9, 36, 72
4, 48119, Note_on_c, 9, 36, 0
4, 48119, Note_on_c, 9, 70, 0
4, 48120, Note_on_c, 9, 70, 77
4, 48120, Note_on_c, 9, 40, 127
4, 48120, Note_on_c, 9, 54, 125
4, 48120, Note_on_c, 9, 42, 89
4, 48149, Note_on_c, 9, 42, 0
4, 48149, Note_on_c, 9, 70, 0
4, 48149, Note_on_c, 9, 40, 0
4, 48149, Note_on_c, 9, 54, 0
4, 48150, Note_on_c, 9, 70, 61
4, 48179, Note_on_c, 9, 70, 0
4, 48180, Note_on_c, 9, 36, 74
4, 48180, Note_on_c, 9, 42, 64
4, 48180, Note_on_c, 9, 70, 61
4, 48209, Note_on_c, 9, 70, 0
4, 48209, Note_on_c, 9, 42, 0
4, 48209, Note_on_c, 9, 36, 0
4, 48210, Note_on_c, 9, 42, 48
4, 48210, Note_on_c, 9, 70, 58
4, 48239, Note_on_c, 9, 70, 0
4, 48239, Note_on_c, 9, 42, 0
4, 48240, Note_on_c, 9, 42, 61
4, 48240, Note_on_c, 9, 70, 61
4, 48269, Note_on_c, 9, 70, 0
4, 48269, Note_on_c, 9, 42, 0
4, 48270, Note_on_c, 9, 70, 77
4, 48299, Note_on_c, 9, 70, 0
4, 48300, Note_on_c, 9, 36, 79
4, 48300, Note_on_c, 9, 42, 96
4, 48300, Note_on_c, 9, 70, 72
4, 48329, Note_on_c, 9, 70, 0
4, 48329, Note_on_c, 9, 42, 0
4, 48329, Note_on_c, 9, 36, 0
4, 48330, Note_on_c, 9, 70, 58
4, 48359, Note_on_c, 9, 70, 0
4, 48360, Note_on_c, 9, 54, 127
4, 48360, Note_on_c, 9, 40, 127
4, 48360, Note_on_c, 9, 42, 61
4, 48360, Note_on_c, 9, 70, 66
4, 48389, Note_on_c, 9, 70, 0
4, 48389, Note_on_c, 9, 54, 0
4, 48389, Note_on_c, 9, 40, 0
4, 48389, Note_on_c, 9, 42, 0
4, 48390, Note_on_c, 9, 70, 55
4, 48419, Note_on_c, 9, 70, 0
4, 48420, Note_on_c, 9, 70, 61
4, 48420, Note_on_c, 9, 42, 72
4, 48420, Note_on_c, 9, 36, 55
4, 48449, Note_on_c, 9, 36, 0
4, 48449, Note_on_c, 9, 42, 0
4, 48449, Note_on_c, 9, 70, 0
4, 48450, Note_on_c, 9, 70, 66
4, 48450, Note_on_c, 9, 42, 26
4, 48479, Note_on_c, 9, 42, 0
4, 48479, Note_on_c, 9, 70, 0
4, 48480, Note_on_c, 9, 42, 58
4, 48480, Note_on_c, 9, 36, 120
4, 48480, Note_on_c, 9, 70, 77
4, 48509, Note_on_c, 9, 70, 0
4, 48509, Note_on_c, 9, 36, 0
4, 48509, Note_on_c, 9, 42, 0
4, 48510, Note_on_c, 9, 70, 39
4, 48539, Note_on_c, 9, 70, 0
4, 48540, Note_on_c, 9, 42, 77
4, 48540, Note_on_c, 9, 70, 66
4, 48569, Note_on_c, 9, 70, 0
4, 48569, Note_on_c, 9, 42, 0
4, 48570, Note_on_c, 9, 70, 66
4, 48599, Note_on_c, 9, 70, 0
4, 48600, Note_on_c, 9, 54, 125
4, 48600, Note_on_c, 9, 40, 127
4, 48600, Note_on_c, 9, 42, 77
4, 48600, Note_on_c, 9, 70, 96
4, 48629, Note_on_c, 9, 70, 0
4, 48629, Note_on_c, 9, 54, 0
4, 48629, Note_on_c, 9, 40, 0
4, 48629, Note_on_c, 9, 42, 0
4, 48630, Note_on_c, 9, 70, 48
4, 48659, Note_on_c, 9, 70, 0
4, 48660, Note_on_c, 9, 36, 74
4, 48660, Note_on_c, 9, 42, 89
4, 48660, Note_on_c, 9, 70, 66
4, 48689, Note_on_c, 9, 70, 0
4, 48689, Note_on_c, 9, 42, 0
4, 48689, Note_on_c, 9, 36, 0
4, 48690, Note_on_c, 9, 42, 48
4, 48690, Note_on_c, 9, 70, 51
4, 48719, Note_on_c, 9, 70, 0
4, 48719, Note_on_c, 9, 42, 0
4, 48720, Note_on_c, 9, 42, 48
4, 48720, Note_on_c, 9, 70, 86
4, 48749, Note_on_c, 9, 70, 0
4, 48749, Note_on_c, 9, 42, 0
4, 48750, Note_on_c, 9, 70, 58
4, 48779, Note_on_c, 9, 70, 0
4, 48780, Note_on_c, 9, 70, 51
4, 48780, Note_on_c, 9, 36, 79
4, 48780, Note_on_c, 9, 42, 48
4, 48809, Note_on_c, 9, 42, 0
4, 48809, Note_on_c, 9, 36, 0
4, 48809, Note_on_c, 9, 70, 0
4, 48810, Note_on_c, 9, 70, 61
4, 48839, Note_on_c, 9, 70, 0
4, 48840, Note_on_c, 9, 70, 77
4, 48840, Note_on_c, 9, 54, 127
4, 48840, Note_on_c, 9, 40, 127
4, 48840, Note_on_c, 9, 42, 96
4, 48869, Note_on_c, 9, 42, 0
4, 48869, Note_on_c, 9, 70, 0
4, 48869, Note_on_c, 9, 54, 0
4, 48869, Note_on_c, 9, 40, 0
4, 48870, Note_on_c, 9, 70, 48
4, 48899, Note_on_c, 9, 70, 0
4, 48900, Note_on_c, 9, 36, 39
4, 48900, Note_on_c, 9, 42, 61
4, 48900, Note_on_c, 9, 70, 58
4, 48929, Note_on_c, 9, 70, 0
4, 48929, Note_on_c, 9, 42, 0
4, 48929, Note_on_c, 9, 36, 0
4, 48930, Note_on_c, 9, 42, 30
4, 48930, Note_on_c, 9, 70, 72
4, 48959, Note_on_c, 9, 70, 0
4, 48959, Note_on_c, 9, 42, 0
4, 48960, Note_on_c, 9, 36, 111
4, 48960, Note_on_c, 9, 42, 58
4, 48960, Note_on_c, 9, 70, 61
4, 48989, Note_on_c, 9, 70, 0
4, 48989, Note_on_c, 9, 42, 0
4, 48989, Note_on_c, 9, 36, 0
4, 48990, Note_on_c, 9, 70, 39
4, 49019, Note_on_c, 9, 70, 0
4, 49020, Note_on_c, 9, 70, 66
4, 49020, Note_on_c, 9, 42, 55
4, 49049, Note_on_c, 9, 42, 0
4, 49049, Note_on_c, 9, 70, 0
4, 49050, Note_on_c, 9, 70, 58
4, 49079, Note_on_c, 9, 70, 0
4, 49080, Note_on_c, 9, 40, 127
4, 49080, Note_on_c, 9, 54, 125
4, 49080, Note_on_c, 9, 42, 96
4, 49080, Note_on_c, 9, 70, 69
4, 49109, Note_on_c, 9, 70, 0
4, 49109, Note_on_c, 9, 40, 0
4, 49109, Note_on_c, 9, 54, 0
4, 49109, Note_on_c, 9, 42, 0
4, 49110, Note_on_c, 9, 70, 58
4, 49139, Note_on_c, 9, 70, 0
4, 49140, Note_on_c, 9, 70, 64
4, 49140, Note_on_c, 9, 42, 77
4, 49140, Note_on_c, 9, 36, 81
4, 49169, Note_on_c, 9, 36, 0
4, 49169, Note_on_c, 9, 42, 0
4, 49169, Note_on_c, 9, 70, 0
4, 49170, Note_on_c, 9, 70, 58
4, 49170, Note_on_c, 9, 42, 66
4, 49199, Note_on_c, 9, 42, 0
4, 49199, Note_on_c, 9, 70, 0
4, 49200, Note_on_c, 9, 42, 51
4, 49200, Note_on_c, 9, 70, 89
4, 49229, Note_on_c, 9, 70, 0
4, 49229, Note_on_c, 9, 42, 0
4, 49230, Note_on_c, 9, 70, 51
4, 49259, Note_on_c, 9, 70, 0
4, 49260, Note_on_c, 9, 36, 79
4, 49260, Note_on_c, 9, 42, 66
4, 49260, Note_on_c, 9, 70, 58
4, 49289, Note_on_c, 9, 70, 0
4, 49289, Note_on_c, 9, 42, 0
4, 49289, Note_on_c, 9, 36, 0
4, 49290, Note_on_c, 9, 70, 64
4, 49319, Note_on_c, 9, 70, 0
4, 49320, Note_on_c, 9, 54, 127
4, 49320, Note_on_c, 9, 40, 102
4, 49320, Note_on_c, 9, 42, 93
4, 49320, Note_on_c, 9, 70, 96
4, 49349, Note_on_c, 9, 70, 0
4, 49349, Note_on_c, 9, 54, 0
4, 49349, Note_on_c, 9, 40, 0
4, 49349, Note_on_c, 9, 42, 0
4, 49350, Note_on_c, 9, 70, 77
4, 49379, Note_on_c, 9, 70, 0
4, 49380, Note_on_c, 9, 42, 77
4, 49380, Note_on_c, 9, 36, 58
4, 49380, Note_on_c, 9, 70, 72
4, 49409, Note_on_c, 9, 70, 0
4, 49409, Note_on_c, 9, 36, 0
4, 49409, Note_on_c, 9, 42, 0
4, 49410, Note_on_c, 9, 70, 66
4, 49410, Note_on_c, 9, 42, 39
4, 49439, Note_on_c, 9, 42, 0
4, 49439, Note_on_c, 9, 70, 0
4, 49440, Note_on_c, 9, 36, 126
4, 49440, Note_on_c, 9, 42, 51
4, 49440, Note_on_c, 9, 70, 77
4, 49469, Note_on_c, 9, 70, 0
4, 49469, Note_on_c, 9, 42, 0
4, 49469, Note_on_c, 9, 36, 0
4, 49470, Note_on_c, 9, 70, 51
4, 49499, Note_on_c, 9, 70, 0
4, 49500, Note_on_c, 9, 42, 66
4, 49500, Note_on_c, 9, 70, 64
4, 49529, Note_on_c, 9, 70, 0
4, 49529, Note_on_c, 9, 42, 0
4, 49530, Note_on_c, 9, 70, 72
4, 49559, Note_on_c, 9, 70, 0
4, 49560, Note_on_c, 9, 54, 125
4, 49560, Note_on_c, 9, 40, 127
4, 49560, Note_on_c, 9, 42, 84
4, 49560, Note_on_c, 9, 70, 61
4, 49589, Note_on_c, 9, 70, 0
4, 49589, Note_on_c, 9, 54, 0
4, 49589, Note_on_c, 9, 40, 0
4, 49589, Note_on_c, 9, 42, 0
4, 49590, Note_on_c, 9, 70, 64
4, 49619, Note_on_c, 9, 70, 0
4, 49620, Note_on_c, 9, 70, 77
4, 49620, Note_on_c, 9, 42, 39
4, 49620, Note_on_c, 9, 36, 84
4, 49649, Note_on_c, 9, 36, 0
4, 49649, Note_on_c, 9, 42, 0
4, 49649, Note_on_c, 9, 70, 0
4, 49650, Note_on_c, 9, 42, 66
4, 49650, Note_on_c, 9, 70, 58
4, 49679, Note_on_c, 9, 70, 0
4, 49679, Note_on_c, 9, 42, 0
4, 49680, Note_on_c, 9, 42, 64
4, 49680, Note_on_c, 9, 70, 84
4, 49709, Note_on_c, 9, 70, 0
4, 49709, Note_on_c, 9, 42, 0
4, 49710, Note_on_c, 9, 70, 66
4, 49739, Note_on_c, 9, 70, 0
4, 49740, Note_on_c, 9, 36, 72
4, 49740, Note_on_c, 9, 42, 86
4, 49740, Note_on_c, 9, 70, 51
4, 49769, Note_on_c, 9, 70, 0
4, 49769, Note_on_c, 9, 42, 0
4, 49769, Note_on_c, 9, 36, 0
4, 49770, Note_on_c, 9, 70, 55
4, 49799, Note_on_c, 9, 70, 0
4, 49800, Note_on_c, 9, 54, 127
4, 49800, Note_on_c, 9, 40, 114
4, 49800, Note_on_c, 9, 42, 86
4, 49800, Note_on_c, 9, 70, 74
4, 49829, Note_on_c, 9, 70, 0
4, 49829, Note_on_c, 9, 54, 0
4, 49829, Note_on_c, 9, 40, 0
4, 49829, Note_on_c, 9, 42, 0
4, 49830, Note_on_c, 9, 70, 55
4, 49859, Note_on_c, 9, 70, 0
4, 49860, Note_on_c, 9, 42, 96
4, 49860, Note_on_c, 9, 36, 48
4, 49860, Note_on_c, 9, 70, 66
4, 49889, Note_on_c, 9, 70, 0
4, 49889, Note_on_c, 9, 36, 0
4, 49889, Note_on_c, 9, 42, 0
4, 49890, Note_on_c, 9, 42, 66
4, 49890, Note_on_c, 9, 70, 48
4, 49919, Note_on_c, 9, 70, 0
4, 49919, Note_on_c, 9, 42, 0
4, 49920, Note_on_c, 9, 36, 84
4, 49920, Note_on_c, 9, 42, 61
4, 49920, Note_on_c, 9, 70, 69
4, 49949, Note_on_c, 9, 70, 0
4, 49949, Note_on_c, 9, 42, 0
4, 49949, Note_on_c, 9, 36, 0
4, 49950, Note_on_c, 9, 70, 58
4, 49979, Note_on_c, 9, 70, 0
4, 49980, Note_on_c, 9, 70, 72
4, 49980, Note_on_c, 9, 42, 48
4, 50009, Note_on_c, 9, 42, 0
4, 50009, Note_on_c, 9, 70, 0
4, 50010, Note_on_c, 9, 36, 64
4, 50010, Note_on_c, 9, 70, 55
4, 50039, Note_on_c, 9, 70, 0
4, 50039, Note_on_c, 9, 36, 0
4, 50040, Note_on_c, 9, 70, 72
4, 50040, Note_on_c, 9, 42, 102
4, 50040, Note_on_c, 9, 54, 125
4, 50040, Note_on_c, 9, 40, 123
4, 50069, Note_on_c, 9, 40, 0
4, 50069, Note_on_c, 9, 70, 0
4, 50069, Note_on_c, 9, 42, 0
4, 50069, Note_on_c, 9, 54, 0
4, 50070, Note_on_c, 9, 70, 72
4, 50099, Note_on_c, 9, 70, 0
4, 50100, Note_on_c, 9, 70, 51
4, 50100, Note_on_c, 9, 36, 89
4, 50100, Note_on_c, 9, 42, 72
4, 50129, Note_on_c, 9, 42, 0
4, 50129, Note_on_c, 9, 36, 0
4, 50129, Note_on_c, 9, 70, 0
4, 50130, Note_on_c, 9, 42, 26
4, 50130, Note_on_c, 9, 70, 64
4, 50159, Note_on_c, 9, 70, 0
4, 50159, Note_on_c, 9, 42, 0
4, 50160, Note_on_c, 9, 42, 55
4, 50160, Note_on_c, 9, 70, 66
4, 50189, Note_on_c, 9, 70, 0
4, 50189, Note_on_c, 9, 42, 0
4, 50190, Note_on_c, 9, 70, 48
4, 50219, Note_on_c, 9, 70, 0
4, 50220, Note_on_c, 9, 36, 79
4, 50220, Note_on_c, 9, 42, 86
4, 50220, Note_on_c, 9, 70, 77
4, 50249, Note_on_c, 9, 70, 0
4, 50249, Note_on_c, 9, 42, 0
4, 50249, Note_on_c, 9, 36, 0
4, 50250, Note_on_c, 9, 70, 72
4, 50279, Note_on_c, 9, 70, 0
4, 50280, Note_on_c, 9, 42, 120
4, 50280, Note_on_c, 9, 54, 127
4, 50280, Note_on_c, 9, 40, 127
4, 50280, Note_on_c, 9, 70, 61
4, 50309, Note_on_c, 9, 70, 0
4, 50309, Note_on_c, 9, 42, 0
4, 50309, Note_on_c, 9, 54, 0
4, 50309, Note_on_c, 9, 40, 0
4, 50310, Note_on_c, 9, 40, 125
4, 50310, Note_on_c, 9, 70, 51
4, 50339, Note_on_c, 9, 70, 0
4, 50339, Note_on_c, 9, 40, 0
4, 50340, Note_on_c, 9, 36, 64
4, 50340, Note_on_c, 9, 42, 39
4, 50340, Note_on_c, 9, 70, 72
4, 50369, Note_on_c, 9, 70, 0
4, 50369, Note_on_c, 9, 42, 0
4, 50369, Note_on_c, 9, 36, 0
4, 50370, Note_on_c, 9, 70, 72
4, 50370, Note_on_c, 9, 42, 26
4, 50399, Note_on_c, 9, 42, 0
4, 50399, Note_on_c, 9, 70, 0
4, 50400, Note_on_c, 9, 70, 51
4, 50400, Note_on_c, 9, 42, 111
4, 50429, Note_on_c, 9, 42, 0
4, 50429, Note_on_c, 9, 70, 0
4, 50430, Note_on_c, 9, 70, 61
4, 50459, Note_on_c, 9, 70, 0
4, 50460, Note_on_c, 9, 70, 66
4, 50460, Note_on_c, 9, 42, 66
4, 50489, Note_on_c, 9, 42, 0
4, 50489, Note_on_c, 9, 70, 0
4, 50490, Note_on_c, 9, 70, 77
4, 50490, Note_on_c, 9, 42, 91
4, 50519, Note_on_c, 9, 42, 0
4, 50519, Note_on_c, 9, 70, 0
4, 50520, Note_on_c, 9, 70, 77
4, 50520, Note_on_c, 9, 42, 99
4, 50549, Note_on_c, 9, 42, 0
4, 50549, Note_on_c, 9, 70, 0
4, 50550, Note_on_c, 9, 70, 35
4, 50579, Note_on_c, 9, 70, 0
4, 50580, Note_on_c, 9, 70, 48
4, 50580, Note_on_c, 9, 42, 77
4, 50609, Note_on_c, 9, 42, 0
4, 50609, Note_on_c, 9, 70, 0
4, 50610, Note_on_c, 9, 70, 66
4, 50610, Note_on_c, 9, 42, 117
4, 50639, Note_on_c, 9, 42, 0
4, 50639, Note_on_c, 9, 70, 0
4, 50640, Note_on_c, 9, 70, 61
4, 50640, Note_on_c, 9, 42, 127
4, 50669, Note_on_c, 9, 42, 0
4, 50669, Note_on_c, 9, 70, 0
4, 50670, Note_on_c, 9, 70, 51
4, 50699, Note_on_c, 9, 70, 0
4, 50700, Note_on_c, 9, 70, 61
4, 50700, Note_on_c, 9, 42, 79
4, 50729, Note_on_c, 9, 42, 0
4, 50729, Note_on_c, 9, 70, 0
4, 50730, Note_on_c, 9, 70, 55
4, 50759, Note_on_c, 9, 70, 0
4, 50760, Note_on_c, 9, 70, 66
4, 50789, Note_on_c, 9, 70, 0
4, 50790, Note_on_c, 9, 70, 58
4, 50819, Note_on_c, 9, 70, 0
4, 50820, Note_on_c, 9, 70, 58
4, 50849, Note_on_c, 9, 70, 0
4, 50850, Note_on_c, 9, 70, 72
4, 50879, Note_on_c, 9, 70, 0
4, 50880, Note_on_c, 9, 40, 127
4, 50881, Note_on_c, 9, 70, 105
4, 50901, Note_on_c, 9, 70, 0
4, 50939, Note_on_c, 9, 40, 0
4, 51480, Note_on_c, 9, 40, 127
4, 51531, Note_on_c, 9, 40, 0
4, 51544, Note_on_c, 9, 45, 91
4, 51596, Note_on_c, 9, 45, 0
4, 51601, Note_on_c, 9, 40, 127
4, 51666, Note_on_c, 9, 45, 124
4, 51670, Note_on_c, 9, 40, 0
4, 51724, Note_on_c, 9, 45, 0
4, 51732, Note_on_c, 9, 40, 111
4, 51785, Note_on_c, 9, 40, 0
4, 51792, Note_on_c, 9, 43, 105
4, 51852, Note_on_c, 9, 43, 0
4, 51859, Note_on_c, 9, 52, 102
4, 51860, Note_on_c, 9, 36, 127
4, 51952, Note_on_c, 9, 36, 0
4, 51970, Note_on_c, 9, 52, 0
4, 51970, End_track
5, 0, Start_track
5, 0, MIDI_port, 0
5, 0, Title_t, "Bass"
5, 0, Control_c, 3, 0, 56
5, 0, Control_c, 3, 32, 1
5, 0, Program_c, 3, 33
5, 0, Control_c, 3, 7, 115
5, 0, Control_c, 3, 10, 64
5, 0, Control_c, 3, 91, 40
5, 12000, Note_on_c, 3, 30, 84
5, 12090, Note_on_c, 3, 30, 0
5, 12180, Note_on_c, 3, 30, 79
5, 12240, Note_on_c, 3, 30, 0
5, 12300, Note_on_c, 3, 33, 72
5, 12360, Note_on_c, 3, 33, 0
5, 12360, Note_on_c, 3, 37, 96
5, 12420, Note_on_c, 3, 37, 0
5, 12420, Note_on_c, 3, 36, 66
5, 12480, Note_on_c, 3, 36, 0
5, 12480, Note_on_c, 3, 35, 79
5, 12660, Note_on_c, 3, 35, 0
5, 12660, Note_on_c, 3, 37, 86
5, 12689, Note_on_c, 3, 37, 0
5, 12780, Note_on_c, 3, 37, 86
5, 12840, Note_on_c, 3, 37, 0
5, 12900, Note_on_c, 3, 28, 64
5, 12960, Note_on_c, 3, 28, 0
5, 12960, Note_on_c, 3, 30, 81
5, 13080, Note_on_c, 3, 30, 0
5, 13140, Note_on_c, 3, 30, 84
5, 13169, Note_on_c, 3, 30, 0
5, 13260, Note_on_c, 3, 30, 89
5, 13320, Note_on_c, 3, 30, 0
5, 13380, Note_on_c, 3, 28, 61
5, 13440, Note_on_c, 3, 28, 0
5, 13440, Note_on_c, 3, 30, 96
5, 13560, Note_on_c, 3, 30, 0
5, 13620, Note_on_c, 3, 30, 55
5, 13649, Note_on_c, 3, 30, 0
5, 13658, Pitch_bend_c, 3, 8064
5, 13660, Pitch_bend_c, 3, 7552
5, 13662, Pitch_bend_c, 3, 7040
5, 13664, Pitch_bend_c, 3, 6528
5, 13666, Pitch_bend_c, 3, 5888
5, 13667, Pitch_bend_c, 3, 5376
5, 13669, Pitch_bend_c, 3, 4736
5, 13671, Pitch_bend_c, 3, 4224
5, 13673, Pitch_bend_c, 3, 3712
5, 13675, Pitch_bend_c, 3, 3328
5, 13677, Pitch_bend_c, 3, 2944
5, 13679, Pitch_bend_c, 3, 2560
5, 13680, Note_on_c, 3, 37, 96
5, 13681, Pitch_bend_c, 3, 2432
5, 13684, Pitch_bend_c, 3, 2176
5, 13686, Pitch_bend_c, 3, 2048
5, 13694, Pitch_bend_c, 3, 2304
5, 13696, Pitch_bend_c, 3, 2432
5, 13698, Pitch_bend_c, 3, 2688
5, 13700, Pitch_bend_c, 3, 3072
5, 13702, Pitch_bend_c, 3, 3456
5, 13704, Pitch_bend_c, 3, 3840
5, 13705, Pitch_bend_c, 3, 4224
5, 13708, Pitch_bend_c, 3, 4608
5, 13709, Pitch_bend_c, 3, 5120
5, 13711, Pitch_bend_c, 3, 5504
5, 13713, Pitch_bend_c, 3, 6016
5, 13715, Pitch_bend_c, 3, 6400
5, 13717, Pitch_bend_c, 3, 6912
5, 13719, Pitch_bend_c, 3, 7296
5, 13720, Pitch_bend_c, 3, 7808
5, 13722, Pitch_bend_c, 3, 8192
5, 13740, Note_on_c, 3, 37, 0
5, 13740, Note_on_c, 3, 42, 111
5, 13800, Note_on_c, 3, 42, 0
5, 13800, Note_on_c, 3, 37, 74
5, 13860, Note_on_c, 3, 37, 0
5, 13860, Note_on_c, 3, 36, 72
5, 13920, Note_on_c, 3, 36, 0
5, 13920, Note_on_c, 3, 35, 117
5, 14040, Note_on_c, 3, 35, 0
5, 14100, Note_on_c, 3, 35, 89
5, 14129, Note_on_c, 3, 35, 0
5, 14220, Note_on_c, 3, 35, 93
5, 14280, Note_on_c, 3, 35, 0
5, 14340, Note_on_c, 3, 33, 77
5, 14369, Note_on_c, 3, 33, 0
5, 14370, Note_on_c, 3, 34, 72
5, 14399, Note_on_c, 3, 34, 0
5, 14400, Note_on_c, 3, 35, 102
5, 14520, Note_on_c, 3, 35, 0
5, 14580, Note_on_c, 3, 37, 79
5, 14609, Note_on_c, 3, 37, 0
5, 14700, Note_on_c, 3, 37, 89
5, 14760, Note_on_c, 3, 37, 0
5, 14820, Note_on_c, 3, 28, 89
5, 14880, Note_on_c, 3, 28, 0
5, 14880, Note_on_c, 3, 30, 89
5, 15000, Note_on_c, 3, 30, 0
5, 15060, Note_on_c, 3, 30, 79
5, 15089, Note_on_c, 3, 30, 0
5, 15180, Note_on_c, 3, 30, 74
5, 15240, Note_on_c, 3, 30, 0
5, 15300, Note_on_c, 3, 28, 74
5, 15360, Note_on_c, 3, 28, 0
5, 15360, Note_on_c, 3, 30, 77
5, 15480, Note_on_c, 3, 30, 0
5, 15540, Note_on_c, 3, 33, 120
5, 15600, Note_on_c, 3, 33, 0
5, 15660, Note_on_c, 3, 35, 102
5, 15720, Note_on_c, 3, 35, 0
5, 15780, Note_on_c, 3, 36, 111
5, 15840, Note_on_c, 3, 36, 0
5, 15840, Note_on_c, 3, 37, 72
5, 15960, Note_on_c, 3, 37, 0
5, 16020, Note_on_c, 3, 37, 89
5, 16049, Note_on_c, 3, 37, 0
5, 16140, Note_on_c, 3, 37, 96
5, 16200, Note_on_c, 3, 37, 0
5, 16260, Note_on_c, 3, 33, 91
5, 16320, Note_on_c, 3, 33, 0
5, 16320, Note_on_c, 3, 35, 84
5, 16440, Note_on_c, 3, 35, 0
5, 16500, Note_on_c, 3, 35, 86
5, 16560, Note_on_c, 3, 35, 0
5, 16620, Note_on_c, 3, 25, 86
5, 16680, Note_on_c, 3, 25, 0
5, 16680, Note_on_c, 3, 28, 66
5, 16740, Note_on_c, 3, 28, 0
5, 16740, Note_on_c, 3, 29, 84
5, 16800, Note_on_c, 3, 29, 0
5, 16800, Note_on_c, 3, 30, 84
5, 16920, Note_on_c, 3, 30, 0
5, 16980, Note_on_c, 3, 30, 81
5, 17009, Note_on_c, 3, 30, 0
5, 17100, Note_on_c, 3, 30, 89
5, 17160, Note_on_c, 3, 30, 0
5, 17220, Note_on_c, 3, 28, 93
5, 17280, Note_on_c, 3, 28, 0
5, 17280, Note_on_c, 3, 30, 84
5, 17400, Note_on_c, 3, 30, 0
5, 17460, Note_on_c, 3, 30, 93
5, 17489, Note_on_c, 3, 30, 0
5, 17580, Note_on_c, 3, 30, 79
5, 17640, Note_on_c, 3, 30, 0
5, 17700, Note_on_c, 3, 28, 72
5, 17760, Note_on_c, 3, 28, 0
5, 17760, Note_on_c, 3, 30, 81
5, 17880, Note_on_c, 3, 30, 0
5, 17940, Note_on_c, 3, 30, 89
5, 18000, Note_on_c, 3, 30, 0
5, 18060, Note_on_c, 3, 33, 84
5, 18120, Note_on_c, 3, 33, 0
5, 18120, Note_on_c, 3, 37, 81
5, 18180, Note_on_c, 3, 37, 0
5, 18180, Note_on_c, 3, 36, 84
5, 18240, Note_on_c, 3, 36, 0
5, 18240, Note_on_c, 3, 35, 126
5, 18360, Note_on_c, 3, 35, 0
5, 18420, Note_on_c, 3, 37, 96
5, 18449, Note_on_c, 3, 37, 0
5, 18540, Note_on_c, 3, 37, 77
5, 18600, Note_on_c, 3, 37, 0
5, 18660, Note_on_c, 3, 28, 81
5, 18720, Note_on_c, 3, 28, 0
5, 18720, Note_on_c, 3, 30, 79
5, 18840, Note_on_c, 3, 30, 0
5, 18900, Note_on_c, 3, 30, 84
5, 18929, Note_on_c, 3, 30, 0
5, 19020, Note_on_c, 3, 30, 96
5, 19080, Note_on_c, 3, 30, 0
5, 19140, Note_on_c, 3, 28, 81
5, 19169, Note_on_c, 3, 28, 0
5, 19170, Note_on_c, 3, 29, 66
5, 19199, Note_on_c, 3, 29, 0
5, 19200, Note_on_c, 3, 30, 102
5, 19320, Note_on_c, 3, 30, 0
5, 19380, Note_on_c, 3, 30, 77
5, 19409, Note_on_c, 3, 30, 0
5, 19425, Pitch_bend_c, 3, 7808
5, 19427, Pitch_bend_c, 3, 7296
5, 19429, Pitch_bend_c, 3, 6784
5, 19431, Pitch_bend_c, 3, 6144
5, 19433, Pitch_bend_c, 3, 5504
5, 19435, Pitch_bend_c, 3, 4992
5, 19436, Pitch_bend_c, 3, 4352
5, 19438, Pitch_bend_c, 3, 3968
5, 19440, Pitch_bend_c, 3, 3456
5, 19440, Note_on_c, 3, 37, 111
5, 19443, Pitch_bend_c, 3, 3072
5, 19444, Pitch_bend_c, 3, 2816
5, 19446, Pitch_bend_c, 3, 2688
5, 19451, Pitch_bend_c, 3, 2432
5, 19453, Pitch_bend_c, 3, 2304
5, 19461, Pitch_bend_c, 3, 2560
5, 19463, Pitch_bend_c, 3, 2688
5, 19464, Pitch_bend_c, 3, 2944
5, 19466, Pitch_bend_c, 3, 3200
5, 19468, Pitch_bend_c, 3, 3584
5, 19470, Pitch_bend_c, 3, 3968
5, 19472, Pitch_bend_c, 3, 4352
5, 19474, Pitch_bend_c, 3, 4736
5, 19476, Pitch_bend_c, 3, 5120
5, 19478, Pitch_bend_c, 3, 5632
5, 19480, Pitch_bend_c, 3, 6016
5, 19482, Pitch_bend_c, 3, 6400
5, 19484, Pitch_bend_c, 3, 6784
5, 19486, Pitch_bend_c, 3, 7168
5, 19488, Pitch_bend_c, 3, 7552
5, 19489, Pitch_bend_c, 3, 7808
5, 19491, Pitch_bend_c, 3, 8192
5, 19500, Note_on_c, 3, 37, 0
5, 19500, Note_on_c, 3, 42, 102
5, 19560, Note_on_c, 3, 42, 0
5, 19560, Note_on_c, 3, 37, 96
5, 19620, Note_on_c, 3, 37, 0
5, 19620, Note_on_c, 3, 36, 77
5, 19680, Note_on_c, 3, 36, 0
5, 19680, Note_on_c, 3, 35, 64
5, 19800, Note_on_c, 3, 35, 0
5, 19860, Note_on_c, 3, 35, 84
5, 19889, Note_on_c, 3, 35, 0
5, 19980, Note_on_c, 3, 35, 74
5, 20040, Note_on_c, 3, 35, 0
5, 20100, Note_on_c, 3, 33, 72
5, 20129, Note_on_c, 3, 33, 0
5, 20130, Note_on_c, 3, 34, 77
5, 20159, Note_on_c, 3, 34, 0
5, 20160, Note_on_c, 3, 35, 117
5, 20280, Note_on_c, 3, 35, 0
5, 20340, Note_on_c, 3, 37, 102
5, 20369, Note_on_c, 3, 37, 0
5, 20460, Note_on_c, 3, 37, 84
5, 20520, Note_on_c, 3, 37, 0
5, 20580, Note_on_c, 3, 28, 93
5, 20640, Note_on_c, 3, 28, 0
5, 20640, Note_on_c, 3, 30, 79
5, 20760, Note_on_c, 3, 30, 0
5, 20820, Note_on_c, 3, 30, 74
5, 20849, Note_on_c, 3, 30, 0
5, 20940, Note_on_c, 3, 30, 66
5, 21000, Note_on_c, 3, 30, 0
5, 21060, Note_on_c, 3, 28, 81
5, 21120, Note_on_c, 3, 28, 0
5, 21120, Note_on_c, 3, 30, 74
5, 21240, Note_on_c, 3, 30, 0
5, 21300, Note_on_c, 3, 33, 81
5, 21360, Note_on_c, 3, 33, 0
5, 21420, Note_on_c, 3, 35, 111
5, 21480, Note_on_c, 3, 35, 0
5, 21540, Note_on_c, 3, 36, 91
5, 21600, Note_on_c, 3, 36, 0
5, 21600, Note_on_c, 3, 37, 84
5, 21720, Note_on_c, 3, 37, 0
5, 21780, Note_on_c, 3, 37, 81
5, 21809, Note_on_c, 3, 37, 0
5, 21900, Note_on_c, 3, 37, 77
5, 21960, Note_on_c, 3, 37, 0
5, 22020, Note_on_c, 3, 33, 77
5, 22080, Note_on_c, 3, 33, 0
5, 22080, Note_on_c, 3, 35, 111
5, 22200, Note_on_c, 3, 35, 0
5, 22260, Note_on_c, 3, 35, 89
5, 22289, Note_on_c, 3, 35, 0
5, 22380, Note_on_c, 3, 35, 84
5, 22440, Note_on_c, 3, 35, 0
5, 22500, Note_on_c, 3, 28, 124
5, 22560, Note_on_c, 3, 28, 0
5, 22560, Note_on_c, 3, 30, 93
5, 22680, Note_on_c, 3, 30, 0
5, 22740, Note_on_c, 3, 30, 84
5, 22769, Note_on_c, 3, 30, 0
5, 22860, Note_on_c, 3, 30, 77
5, 22920, Note_on_c, 3, 30, 0
5, 22980, Note_on_c, 3, 28, 84
5, 23040, Note_on_c, 3, 28, 0
5, 23040, Note_on_c, 3, 30, 84
5, 23160, Note_on_c, 3, 30, 0
5, 23220, Note_on_c, 3, 30, 77
5, 23249, Note_on_c, 3, 30, 0
5, 23340, Note_on_c, 3, 30, 96
5, 23400, Note_on_c, 3, 30, 0
5, 23460, Note_on_c, 3, 28, 69
5, 23520, Note_on_c, 3, 28, 0
5, 23520, Note_on_c, 3, 30, 102
5, 23640, Note_on_c, 3, 30, 0
5, 23700, Note_on_c, 3, 30, 84
5, 23729, Note_on_c, 3, 30, 0
5, 23820, Note_on_c, 3, 33, 99
5, 23880, Note_on_c, 3, 33, 0
5, 23880, Note_on_c, 3, 37, 102
5, 23940, Note_on_c, 3, 37, 0
5, 23940, Note_on_c, 3, 36, 61
5, 24000, Note_on_c, 3, 36, 0
5, 24000, Note_on_c, 3, 35, 111
5, 24120, Note_on_c, 3, 35, 0
5, 24180, Note_on_c, 3, 37, 93
5, 24209, Note_on_c, 3, 37, 0
5, 24300, Note_on_c, 3, 37, 96
5, 24360, Note_on_c, 3, 37, 0
5, 24420, Note_on_c, 3, 28, 108
5, 24480, Note_on_c, 3, 28, 0
5, 24480, Note_on_c, 3, 30, 81
5, 24600, Note_on_c, 3, 30, 0
5, 24660, Note_on_c, 3, 30, 74
5, 24689, Note_on_c, 3, 30, 0
5, 24780, Note_on_c, 3, 30, 77
5, 24840, Note_on_c, 3, 30, 0
5, 24900, Note_on_c, 3, 28, 108
5, 24960, Note_on_c, 3, 28, 0
5, 24960, Note_on_c, 3, 30, 89
5, 25050, Note_on_c, 3, 30, 0
5, 25140, Note_on_c, 3, 30, 55
5, 25169, Note_on_c, 3, 30, 0
5, 25179, Pitch_bend_c, 3, 7936
5, 25180, Pitch_bend_c, 3, 7552
5, 25183, Pitch_bend_c, 3, 7168
5, 25185, Pitch_bend_c, 3, 6656
5, 25186, Pitch_bend_c, 3, 6144
5, 25188, Pitch_bend_c, 3, 5632
5, 25190, Pitch_bend_c, 3, 5120
5, 25192, Pitch_bend_c, 3, 4608
5, 25194, Pitch_bend_c, 3, 4096
5, 25196, Pitch_bend_c, 3, 3584
5, 25198, Pitch_bend_c, 3, 3200
5, 25200, Note_on_c, 3, 37, 89
5, 25200, Pitch_bend_c, 3, 2944
5, 25202, Pitch_bend_c, 3, 2688
5, 25219, Pitch_bend_c, 3, 3840
5, 25221, Pitch_bend_c, 3, 4224
5, 25223, Pitch_bend_c, 3, 4608
5, 25225, Pitch_bend_c, 3, 4992
5, 25227, Pitch_bend_c, 3, 5376
5, 25229, Pitch_bend_c, 3, 5888
5, 25231, Pitch_bend_c, 3, 6400
5, 25232, Pitch_bend_c, 3, 6784
5, 25235, Pitch_bend_c, 3, 7296
5, 25237, Pitch_bend_c, 3, 7808
5, 25239, Pitch_bend_c, 3, 8192
5, 25260, Note_on_c, 3, 37, 0
5, 25260, Note_on_c, 3, 42, 111
5, 25320, Note_on_c, 3, 42, 0
5, 25320, Note_on_c, 3, 37, 79
5, 25380, Note_on_c, 3, 37, 0
5, 25380, Note_on_c, 3, 36, 81
5, 25440, Note_on_c, 3, 36, 0
5, 25440, Note_on_c, 3, 35, 93
5, 25560, Note_on_c, 3, 35, 0
5, 25620, Note_on_c, 3, 35, 96
5, 25649, Note_on_c, 3, 35, 0
5, 25740, Note_on_c, 3, 35, 79
5, 25800, Note_on_c, 3, 35, 0
5, 25860, Note_on_c, 3, 33, 64
5, 25889, Note_on_c, 3, 33, 0
5, 25890, Note_on_c, 3, 34, 69
5, 25919, Note_on_c, 3, 34, 0
5, 25920, Note_on_c, 3, 35, 111
5, 26040, Note_on_c, 3, 35, 0
5, 26100, Note_on_c, 3, 37, 102
5, 26129, Note_on_c, 3, 37, 0
5, 26220, Note_on_c, 3, 37, 89
5, 26280, Note_on_c, 3, 37, 0
5, 26340, Note_on_c, 3, 28, 117
5, 26400, Note_on_c, 3, 28, 0
5, 26400, Note_on_c, 3, 30, 93
5, 26520, Note_on_c, 3, 30, 0
5, 26580, Note_on_c, 3, 30, 96
5, 26609, Note_on_c, 3, 30, 0
5, 26700, Note_on_c, 3, 30, 108
5, 26760, Note_on_c, 3, 30, 0
5, 26820, Note_on_c, 3, 28, 105
5, 26880, Note_on_c, 3, 28, 0
5, 26880, Note_on_c, 3, 30, 120
5, 27000, Note_on_c, 3, 30, 0
5, 27060, Note_on_c, 3, 33, 111
5, 27120, Note_on_c, 3, 33, 0
5, 27180, Note_on_c, 3, 35, 102
5, 27240, Note_on_c, 3, 35, 0
5, 27300, Note_on_c, 3, 36, 111
5, 27360, Note_on_c, 3, 36, 0
5, 27360, Note_on_c, 3, 37, 120
5, 27480, Note_on_c, 3, 37, 0
5, 27540, Note_on_c, 3, 37, 86
5, 27569, Note_on_c, 3, 37, 0
5, 27660, Note_on_c, 3, 37, 77
5, 27720, Note_on_c, 3, 37, 0
5, 27780, Note_on_c, 3, 33, 105
5, 27840, Note_on_c, 3, 33, 0
5, 27840, Note_on_c, 3, 35, 102
5, 27960, Note_on_c, 3, 35, 0
5, 28020, Note_on_c, 3, 35, 117
5, 28049, Note_on_c, 3, 35, 0
5, 28140, Note_on_c, 3, 35, 81
5, 28200, Note_on_c, 3, 35, 0
5, 28260, Note_on_c, 3, 28, 72
5, 28320, Note_on_c, 3, 28, 0
5, 28320, Note_on_c, 3, 30, 105
5, 28440, Note_on_c, 3, 30, 0
5, 28500, Note_on_c, 3, 30, 84
5, 28529, Note_on_c, 3, 30, 0
5, 28620, Note_on_c, 3, 30, 81
5, 28680, Note_on_c, 3, 30, 0
5, 28740, Note_on_c, 3, 28, 89
5, 28800, Note_on_c, 3, 28, 0
5, 28800, Note_on_c, 3, 30, 102
5, 28890, Note_on_c, 3, 30, 0
5, 28980, Note_on_c, 3, 30, 79
5, 29009, Note_on_c, 3, 30, 0
5, 29100, Note_on_c, 3, 30, 81
5, 29129, Note_on_c, 3, 30, 0
5, 29220, Note_on_c, 3, 28, 58
5, 29249, Note_on_c, 3, 28, 0
5, 29280, Note_on_c, 3, 30, 102
5, 29400, Note_on_c, 3, 30, 0
5, 29460, Note_on_c, 3, 30, 81
5, 29520, Note_on_c, 3, 30, 0
5, 29580, Note_on_c, 3, 33, 61
5, 29640, Note_on_c, 3, 33, 0
5, 29640, Note_on_c, 3, 37, 84
5, 29700, Note_on_c, 3, 37, 0
5, 29700, Note_on_c, 3, 36, 108
5, 29760, Note_on_c, 3, 36, 0
5, 29760, Note_on_c, 3, 35, 81
5, 29880, Note_on_c, 3, 35, 0
5, 29940, Note_on_c, 3, 37, 114
5, 29969, Note_on_c, 3, 37, 0
5, 30060, Note_on_c, 3, 37, 102
5, 30120, Note_on_c, 3, 37, 0
5, 30180, Note_on_c, 3, 28, 99
5, 30240, Note_on_c, 3, 28, 0
5, 30240, Note_on_c, 3, 30, 99
5, 30390, Note_on_c, 3, 30, 0
5, 30420, Note_on_c, 3, 39, 86
5, 30480, Note_on_c, 3, 39, 0
5, 30480, Note_on_c, 3, 40, 111
5, 30600, Note_on_c, 3, 40, 0
5, 30600, Note_on_c, 3, 39, 114
5, 30690, Note_on_c, 3, 39, 0
5, 30720, Note_on_c, 3, 30, 96
5, 30840, Note_on_c, 3, 30, 0
5, 30900, Note_on_c, 3, 39, 84
5, 30960, Note_on_c, 3, 39, 0
5, 30960, Note_on_c, 3, 40, 84
5, 31080, Note_on_c, 3, 40, 0
5, 31080, Note_on_c, 3, 39, 89
5, 31170, Note_on_c, 3, 39, 0
5, 31200, Note_on_c, 3, 35, 111
5, 31320, Note_on_c, 3, 35, 0
5, 31380, Note_on_c, 3, 35, 81
5, 31409, Note_on_c, 3, 35, 0
5, 31500, Note_on_c, 3, 35, 77
5, 31529, Note_on_c, 3, 35, 0
5, 31620, Note_on_c, 3, 33, 99
5, 31649, Note_on_c, 3, 33, 0
5, 31650, Note_on_c, 3, 34, 72
5, 31679, Note_on_c, 3, 34, 0
5, 31680, Note_on_c, 3, 35, 105
5, 31800, Note_on_c, 3, 35, 0
5, 31860, Note_on_c, 3, 37, 102
5, 31889, Note_on_c, 3, 37, 0
5, 31980, Note_on_c, 3, 37, 96
5, 32040, Note_on_c, 3, 37, 0
5, 32100, Note_on_c, 3, 28, 58
5, 32160, Note_on_c, 3, 28, 0
5, 32160, Note_on_c, 3, 30, 117
5, 32280, Note_on_c, 3, 30, 0
5, 32340, Note_on_c, 3, 39, 89
5, 32400, Note_on_c, 3, 39, 0
5, 32400, Note_on_c, 3, 40, 96
5, 32520, Note_on_c, 3, 40, 0
5, 32520, Note_on_c, 3, 39, 89
5, 32640, Note_on_c, 3, 39, 0
5, 32640, Note_on_c, 3, 30, 84
5, 32760, Note_on_c, 3, 30, 0
5, 32820, Note_on_c, 3, 39, 79
5, 32880, Note_on_c, 3, 39, 0
5, 32880, Note_on_c, 3, 40, 66
5, 32940, Note_on_c, 3, 40, 0
5, 32940, Note_on_c, 3, 34, 81
5, 33000, Note_on_c, 3, 34, 0
5, 33000, Note_on_c, 3, 35, 89
5, 33060, Note_on_c, 3, 35, 0
5, 33060, Note_on_c, 3, 36, 105
5, 33120, Note_on_c, 3, 36, 0
5, 33120, Note_on_c, 3, 37, 66
5, 33240, Note_on_c, 3, 37, 0
5, 33300, Note_on_c, 3, 37, 69
5, 33329, Note_on_c, 3, 37, 0
5, 33420, Note_on_c, 3, 37, 111
5, 33480, Note_on_c, 3, 37, 0
5, 33540, Note_on_c, 3, 33, 89
5, 33569, Note_on_c, 3, 33, 0
5, 33570, Note_on_c, 3, 34, 89
5, 33599, Note_on_c, 3, 34, 0
5, 33600, Note_on_c, 3, 35, 124
5, 33720, Note_on_c, 3, 35, 0
5, 33780, Note_on_c, 3, 35, 89
5, 33809, Note_on_c, 3, 35, 0
5, 33900, Note_on_c, 3, 35, 74
5, 33960, Note_on_c, 3, 35, 0
5, 34020, Note_on_c, 3, 28, 91
5, 34049, Note_on_c, 3, 28, 0
5, 34080, Note_on_c, 3, 30, 89
5, 34200, Note_on_c, 3, 30, 0
5, 34260, Note_on_c, 3, 30, 117
5, 34289, Note_on_c, 3, 30, 0
5, 34380, Note_on_c, 3, 30, 108
5, 34409, Note_on_c, 3, 30, 0
5, 34500, Note_on_c, 3, 28, 99
5, 34529, Note_on_c, 3, 28, 0
5, 34530, Note_on_c, 3, 29, 69
5, 34559, Note_on_c, 3, 29, 0
5, 34560, Note_on_c, 3, 30, 105
5, 34680, Note_on_c, 3, 30, 0
5, 34740, Note_on_c, 3, 30, 117
5, 34769, Note_on_c, 3, 30, 0
5, 34860, Note_on_c, 3, 30, 123
5, 34920, Note_on_c, 3, 30, 0
5, 35400, Note_on_c, 3, 42, 86
5, 35460, Note_on_c, 3, 42, 0
5, 35460, Note_on_c, 3, 33, 111
5, 35520, Note_on_c, 3, 33, 0
5, 35520, Note_on_c, 3, 35, 124
5, 35640, Note_on_c, 3, 35, 0
5, 35700, Note_on_c, 3, 37, 89
5, 35729, Note_on_c, 3, 37, 0
5, 35820, Note_on_c, 3, 37, 111
5, 35880, Note_on_c, 3, 37, 0
5, 35940, Note_on_c, 3, 28, 102
5, 36000, Note_on_c, 3, 28, 0
5, 36000, Note_on_c, 3, 30, 102
5, 36120, Note_on_c, 3, 30, 0
5, 36180, Note_on_c, 3, 30, 111
5, 36209, Note_on_c, 3, 30, 0
5, 36300, Note_on_c, 3, 30, 89
5, 36360, Note_on_c, 3, 30, 0
5, 36420, Note_on_c, 3, 28, 89
5, 36480, Note_on_c, 3, 28, 0
5, 36480, Note_on_c, 3, 30, 102
5, 36600, Note_on_c, 3, 30, 0
5, 36660, Note_on_c, 3, 30, 77
5, 36689, Note_on_c, 3, 30, 0
5, 36780, Note_on_c, 3, 33, 105
5, 36840, Note_on_c, 3, 33, 0
5, 36840, Note_on_c, 3, 37, 96
5, 36900, Note_on_c, 3, 37, 0
5, 36900, Note_on_c, 3, 36, 51
5, 36960, Note_on_c, 3, 36, 0
5, 36960, Note_on_c, 3, 35, 93
5, 37080, Note_on_c, 3, 35, 0
5, 37140, Note_on_c, 3, 35, 66
5, 37169, Note_on_c, 3, 35, 0
5, 37260, Note_on_c, 3, 35, 93
5, 37320, Note_on_c, 3, 35, 0
5, 37380, Note_on_c, 3, 33, 77
5, 37409, Note_on_c, 3, 33, 0
5, 37410, Note_on_c, 3, 34, 58
5, 37439, Note_on_c, 3, 34, 0
5, 37440, Note_on_c, 3, 35, 108
5, 37560, Note_on_c, 3, 35, 0
5, 37620, Note_on_c, 3, 37, 89
5, 37649, Note_on_c, 3, 37, 0
5, 37740, Note_on_c, 3, 37, 79
5, 37800, Note_on_c, 3, 37, 0
5, 37860, Note_on_c, 3, 28, 105
5, 37920, Note_on_c, 3, 28, 0
5, 37920, Note_on_c, 3, 30, 77
5, 38040, Note_on_c, 3, 30, 0
5, 38100, Note_on_c, 3, 30, 72
5, 38129, Note_on_c, 3, 30, 0
5, 38220, Note_on_c, 3, 30, 102
5, 38280, Note_on_c, 3, 30, 0
5, 38340, Note_on_c, 3, 28, 77
5, 38369, Note_on_c, 3, 28, 0
5, 38400, Note_on_c, 3, 30, 89
5, 38520, Note_on_c, 3, 30, 0
5, 38580, Note_on_c, 3, 33, 125
5, 38640, Note_on_c, 3, 33, 0
5, 38700, Note_on_c, 3, 35, 108
5, 38760, Note_on_c, 3, 35, 0
5, 38820, Note_on_c, 3, 36, 120
5, 38880, Note_on_c, 3, 36, 0
5, 38880, Note_on_c, 3, 37, 81
5, 39000, Note_on_c, 3, 37, 0
5, 39060, Note_on_c, 3, 37, 89
5, 39089, Note_on_c, 3, 37, 0
5, 39180, Note_on_c, 3, 37, 81
5, 39240, Note_on_c, 3, 37, 0
5, 39300, Note_on_c, 3, 33, 96
5, 39329, Note_on_c, 3, 33, 0
5, 39360, Note_on_c, 3, 35, 89
5, 39480, Note_on_c, 3, 35, 0
5, 39540, Note_on_c, 3, 35, 74
5, 39569, Note_on_c, 3, 35, 0
5, 39660, Note_on_c, 3, 35, 79
5, 39720, Note_on_c, 3, 35, 0
5, 39780, Note_on_c, 3, 28, 91
5, 39840, Note_on_c, 3, 28, 0
5, 39840, Note_on_c, 3, 30, 89
5, 39960, Note_on_c, 3, 30, 0
5, 40020, Note_on_c, 3, 30, 77
5, 40049, Note_on_c, 3, 30, 0
5, 40140, Note_on_c, 3, 30, 120
5, 40169, Note_on_c, 3, 30, 0
5, 40260, Note_on_c, 3, 28, 81
5, 40289, Note_on_c, 3, 28, 0
5, 40290, Note_on_c, 3, 29, 55
5, 40319, Note_on_c, 3, 29, 0
5, 40320, Note_on_c, 3, 30, 120
5, 40440, Note_on_c, 3, 30, 0
5, 40500, Note_on_c, 3, 30, 86
5, 40529, Note_on_c, 3, 30, 0
5, 40620, Note_on_c, 3, 30, 108
5, 40649, Note_on_c, 3, 30, 0
5, 40740, Note_on_c, 3, 28, 77
5, 40800, Note_on_c, 3, 28, 0
5, 40800, Note_on_c, 3, 30, 89
5, 40920, Note_on_c, 3, 30, 0
5, 40980, Note_on_c, 3, 30, 84
5, 41009, Note_on_c, 3, 30, 0
5, 41100, Note_on_c, 3, 33, 99
5, 41160, Note_on_c, 3, 33, 0
5, 41160, Note_on_c, 3, 37, 74
5, 41220, Note_on_c, 3, 37, 0
5, 41220, Note_on_c, 3, 36, 58
5, 41280, Note_on_c, 3, 36, 0
5, 41280, Note_on_c, 3, 35, 124
5, 41400, Note_on_c, 3, 35, 0
5, 41460, Note_on_c, 3, 37, 79
5, 41489, Note_on_c, 3, 37, 0
5, 41580, Note_on_c, 3, 37, 96
5, 41640, Note_on_c, 3, 37, 0
5, 41700, Note_on_c, 3, 28, 69
5, 41760, Note_on_c, 3, 28, 0
5, 41760, Note_on_c, 3, 30, 99
5, 41880, Note_on_c, 3, 30, 0
5, 41940, Note_on_c, 3, 30, 79
5, 41969, Note_on_c, 3, 30, 0
5, 42060, Note_on_c, 3, 30, 66
5, 42120, Note_on_c, 3, 30, 0
5, 42180, Note_on_c, 3, 28, 86
5, 42240, Note_on_c, 3, 28, 0
5, 42240, Note_on_c, 3, 30, 93
5, 42360, Note_on_c, 3, 30, 0
5, 42420, Note_on_c, 3, 30, 74
5, 42449, Note_on_c, 3, 30, 0
5, 42462, Pitch_bend_c, 3, 7808
5, 42464, Pitch_bend_c, 3, 7296
5, 42466, Pitch_bend_c, 3, 6656
5, 42468, Pitch_bend_c, 3, 6016
5, 42470, Pitch_bend_c, 3, 5376
5, 42472, Pitch_bend_c, 3, 4736
5, 42474, Pitch_bend_c, 3, 4096
5, 42475, Pitch_bend_c, 3, 3584
5, 42477, Pitch_bend_c, 3, 3072
5, 42479, Pitch_bend_c, 3, 2560
5, 42480, Note_on_c, 3, 37, 108
5, 42481, Pitch_bend_c, 3, 2304
5, 42483, Pitch_bend_c, 3, 2048
5, 42487, Pitch_bend_c, 3, 1920
5, 42492, Pitch_bend_c, 3, 2176
5, 42494, Pitch_bend_c, 3, 2304
5, 42496, Pitch_bend_c, 3, 2560
5, 42498, Pitch_bend_c, 3, 2944
5, 42500, Pitch_bend_c, 3, 3328
5, 42501, Pitch_bend_c, 3, 3712
5, 42503, Pitch_bend_c, 3, 4224
5, 42505, Pitch_bend_c, 3, 4736
5, 42507, Pitch_bend_c, 3, 5120
5, 42509, Pitch_bend_c, 3, 5632
5, 42511, Pitch_bend_c, 3, 6016
5, 42513, Pitch_bend_c, 3, 6400
5, 42514, Pitch_bend_c, 3, 6784
5, 42516, Pitch_bend_c, 3, 7168
5, 42518, Pitch_bend_c, 3, 7552
5, 42520, Pitch_bend_c, 3, 7936
5, 42522, Pitch_bend_c, 3, 8192
5, 42540, Note_on_c, 3, 37, 0
5, 42540, Note_on_c, 3, 42, 84
5, 42600, Note_on_c, 3, 42, 0
5, 42600, Note_on_c, 3, 37, 77
5, 42660, Note_on_c, 3, 37, 0
5, 42660, Note_on_c, 3, 36, 91
5, 42720, Note_on_c, 3, 36, 0
5, 42720, Note_on_c, 3, 35, 77
5, 42840, Note_on_c, 3, 35, 0
5, 42900, Note_on_c, 3, 35, 89
5, 42929, Note_on_c, 3, 35, 0
5, 43020, Note_on_c, 3, 35, 96
5, 43080, Note_on_c, 3, 35, 0
5, 43140, Note_on_c, 3, 33, 84
5, 43169, Note_on_c, 3, 33, 0
5, 43170, Note_on_c, 3, 34, 64
5, 43199, Note_on_c, 3, 34, 0
5, 43200, Note_on_c, 3, 35, 77
5, 43320, Note_on_c, 3, 35, 0
5, 43380, Note_on_c, 3, 37, 117
5, 43409, Note_on_c, 3, 37, 0
5, 43500, Note_on_c, 3, 37, 102
5, 43560, Note_on_c, 3, 37, 0
5, 43620, Note_on_c, 3, 28, 84
5, 43680, Note_on_c, 3, 28, 0
5, 43680, Note_on_c, 3, 30, 105
5, 43800, Note_on_c, 3, 30, 0
5, 43860, Note_on_c, 3, 30, 102
5, 43889, Note_on_c, 3, 30, 0
5, 43980, Note_on_c, 3, 30, 105
5, 44040, Note_on_c, 3, 30, 0
5, 44100, Note_on_c, 3, 28, 58
5, 44129, Note_on_c, 3, 28, 0
5, 44130, Note_on_c, 3, 29, 58
5, 44159, Note_on_c, 3, 29, 0
5, 44160, Note_on_c, 3, 30, 111
5, 44280, Note_on_c, 3, 30, 0
5, 44340, Note_on_c, 3, 33, 89
5, 44400, Note_on_c, 3, 33, 0
5, 44460, Note_on_c, 3, 35, 117
5, 44520, Note_on_c, 3, 35, 0
5, 44580, Note_on_c, 3, 36, 105
5, 44640, Note_on_c, 3, 36, 0
5, 44640, Note_on_c, 3, 37, 84
5, 44760, Note_on_c, 3, 37, 0
5, 44820, Note_on_c, 3, 37, 84
5, 44849, Note_on_c, 3, 37, 0
5, 44940, Note_on_c, 3, 37, 81
5, 45000, Note_on_c, 3, 37, 0
5, 45060, Note_on_c, 3, 33, 72
5, 45120, Note_on_c, 3, 33, 0
5, 45120, Note_on_c, 3, 35, 99
5, 45240, Note_on_c, 3, 35, 0
5, 45300, Note_on_c, 3, 35, 93
5, 45329, Note_on_c, 3, 35, 0
5, 45420, Note_on_c, 3, 35, 111
5, 45480, Note_on_c, 3, 35, 0
5, 45540, Note_on_c, 3, 28, 127
5, 45600, Note_on_c, 3, 28, 0
5, 45600, Note_on_c, 3, 30, 89
5, 45720, Note_on_c, 3, 30, 0
5, 45780, Note_on_c, 3, 30, 89
5, 45809, Note_on_c, 3, 30, 0
5, 45900, Note_on_c, 3, 30, 117
5, 45929, Note_on_c, 3, 30, 0
5, 46020, Note_on_c, 3, 28, 84
5, 46049, Note_on_c, 3, 28, 0
5, 46050, Note_on_c, 3, 29, 58
5, 46079, Note_on_c, 3, 29, 0
5, 46080, Note_on_c, 3, 30, 84
5, 46200, Note_on_c, 3, 30, 0
5, 46260, Note_on_c, 3, 30, 93
5, 46289, Note_on_c, 3, 30, 0
5, 46380, Note_on_c, 3, 30, 117
5, 46440, Note_on_c, 3, 30, 0
5, 46500, Note_on_c, 3, 28, 117
5, 46560, Note_on_c, 3, 28, 0
5, 46560, Note_on_c, 3, 30, 81
5, 46680, Note_on_c, 3, 30, 0
5, 46740, Note_on_c, 3, 30, 111
5, 46769, Note_on_c, 3, 30, 0
5, 46860, Note_on_c, 3, 33, 96
5, 46920, Note_on_c, 3, 33, 0
5, 46920, Note_on_c, 3, 37, 96
5, 46980, Note_on_c, 3, 37, 0
5, 46980, Note_on_c, 3, 36, 124
5, 47040, Note_on_c, 3, 36, 0
5, 47040, Note_on_c, 3, 35, 99
5, 47160, Note_on_c, 3, 35, 0
5, 47220, Note_on_c, 3, 37, 89
5, 47249, Note_on_c, 3, 37, 0
5, 47340, Note_on_c, 3, 37, 55
5, 47400, Note_on_c, 3, 37, 0
5, 47460, Note_on_c, 3, 28, 81
5, 47520, Note_on_c, 3, 28, 0
5, 47520, Note_on_c, 3, 30, 84
5, 47640, Note_on_c, 3, 30, 0
5, 47700, Note_on_c, 3, 30, 77
5, 47729, Note_on_c, 3, 30, 0
5, 47820, Note_on_c, 3, 30, 111
5, 47880, Note_on_c, 3, 30, 0
5, 47940, Note_on_c, 3, 28, 120
5, 48000, Note_on_c, 3, 28, 0
5, 48000, Note_on_c, 3, 30, 81
5, 48120, Note_on_c, 3, 30, 0
5, 48180, Note_on_c, 3, 30, 64
5, 48209, Note_on_c, 3, 30, 0
5, 48218, Pitch_bend_c, 3, 8064
5, 48220, Pitch_bend_c, 3, 7680
5, 48222, Pitch_bend_c, 3, 7296
5, 48224, Pitch_bend_c, 3, 6912
5, 48225, Pitch_bend_c, 3, 6400
5, 48227, Pitch_bend_c, 3, 5888
5, 48229, Pitch_bend_c, 3, 5504
5, 48231, Pitch_bend_c, 3, 4992
5, 48233, Pitch_bend_c, 3, 4608
5, 48235, Pitch_bend_c, 3, 4096
5, 48237, Pitch_bend_c, 3, 3712
5, 48239, Pitch_bend_c, 3, 3328
5, 48240, Note_on_c, 3, 37, 84
5, 48240, Pitch_bend_c, 3, 3072
5, 48242, Pitch_bend_c, 3, 2944
5, 48246, Pitch_bend_c, 3, 2688
5, 48254, Pitch_bend_c, 3, 2944
5, 48256, Pitch_bend_c, 3, 3200
5, 48257, Pitch_bend_c, 3, 3456
5, 48259, Pitch_bend_c, 3, 3840
5, 48261, Pitch_bend_c, 3, 4224
5, 48263, Pitch_bend_c, 3, 4736
5, 48265, Pitch_bend_c, 3, 5120
5, 48267, Pitch_bend_c, 3, 5632
5, 48268, Pitch_bend_c, 3, 6144
5, 48270, Pitch_bend_c, 3, 6656
5, 48272, Pitch_bend_c, 3, 7168
5, 48274, Pitch_bend_c, 3, 7552
5, 48276, Pitch_bend_c, 3, 8064
5, 48278, Pitch_bend_c, 3, 8192
5, 48300, Note_on_c, 3, 37, 0
5, 48300, Note_on_c, 3, 40, 120
5, 48360, Note_on_c, 3, 40, 0
5, 48360, Note_on_c, 3, 37, 102
5, 48420, Note_on_c, 3, 37, 0
5, 48420, Note_on_c, 3, 36, 89
5, 48480, Note_on_c, 3, 36, 0
5, 48480, Note_on_c, 3, 35, 93
5, 48600, Note_on_c, 3, 35, 0
5, 48660, Note_on_c, 3, 35, 102
5, 48689, Note_on_c, 3, 35, 0
5, 48780, Note_on_c, 3, 35, 102
5, 48840, Note_on_c, 3, 35, 0
5, 48900, Note_on_c, 3, 33, 72
5, 48929, Note_on_c, 3, 33, 0
5, 48930, Note_on_c, 3, 34, 74
5, 48959, Note_on_c, 3, 34, 0
5, 48960, Note_on_c, 3, 35, 93
5, 49110, Note_on_c, 3, 35, 0
5, 49140, Note_on_c, 3, 37, 86
5, 49169, Note_on_c, 3, 37, 0
5, 49260, Note_on_c, 3, 37, 102
5, 49320, Note_on_c, 3, 37, 0
5, 49380, Note_on_c, 3, 28, 89
5, 49440, Note_on_c, 3, 28, 0
5, 49440, Note_on_c, 3, 30, 74
5, 49560, Note_on_c, 3, 30, 0
5, 49620, Note_on_c, 3, 30, 72
5, 49649, Note_on_c, 3, 30, 0
5, 49740, Note_on_c, 3, 30, 81
5, 49769, Note_on_c, 3, 30, 0
5, 49860, Note_on_c, 3, 28, 96
5, 49920, Note_on_c, 3, 28, 0
5, 49920, Note_on_c, 3, 30, 86
5, 50040, Note_on_c, 3, 30, 0
5, 50100, Note_on_c, 3, 33, 124
5, 50129, Note_on_c, 3, 33, 0
5, 50220, Note_on_c, 3, 35, 102
5, 50249, Note_on_c, 3, 35, 0
5, 50340, Note_on_c, 3, 36, 96
5, 50400, Note_on_c, 3, 36, 0
5, 50400, Note_on_c, 3, 37, 89
5, 50520, Note_on_c, 3, 37, 0
5, 50580, Note_on_c, 3, 37, 96
5, 50609, Note_on_c, 3, 37, 0
5, 50700, Note_on_c, 3, 37, 111
5, 50760, Note_on_c, 3, 37, 0
5, 50820, Note_on_c, 3, 33, 111
5, 50880, Note_on_c, 3, 33, 0
5, 50880, Note_on_c, 3, 35, 120
5, 50940, Note_on_c, 3, 35, 0
5, 51480, Note_on_c, 3, 36, 105
5, 51480, Note_on_c, 3, 37, 66
5, 51509, Note_on_c, 3, 36, 0
5, 51540, Note_on_c, 3, 37, 0
5, 51540, Note_on_c, 3, 33, 108
5, 51569, Note_on_c, 3, 33, 0
5, 51600, Note_on_c, 3, 35, 124
5, 51629, Note_on_c, 3, 35, 0
5, 51660, Note_on_c, 3, 33, 124
5, 51689, Note_on_c, 3, 33, 0
5, 51720, Note_on_c, 3, 30, 99
5, 51749, Note_on_c, 3, 30, 0
5, 51780, Note_on_c, 3, 25, 96
5, 51840, Note_on_c, 3, 25, 0
5, 51840, Note_on_c, 3, 28, 105
5, 51869, Note_on_c, 3, 28, 0
5, 51870, Note_on_c, 3, 30, 93
5, 52080, Note_on_c, 3, 30, 0
5, 52080, End_track
6, 0, Start_track
6, 0, MIDI_port, 0
6, 0, Title_t, "Hammond Organ"
6, 0, Control_c, 4, 0, 56
6, 0, Control_c, 4, 32, 1
6, 0, Program_c, 4, 18
6, 0, Control_c, 4, 7, 50
6, 0, Control_c, 4, 10, 40
6, 17760, Note_on_c, 4, 64, 58
6, 17760, Note_on_c, 4, 58, 69
6, 17760, Note_on_c, 4, 66, 74
6, 17760, Note_on_c, 4, 61, 72
6, 18210, Note_on_c, 4, 61, 0
6, 18210, Note_on_c, 4, 64, 0
6, 18240, Note_on_c, 4, 58, 0
6, 18240, Note_on_c, 4, 62, 84
6, 18240, Note_on_c, 4, 59, 51
6, 18240, Note_on_c, 4, 63, 77
6, 18269, Note_on_c, 4, 62, 0
6, 18420, Note_on_c, 4, 66, 0
6, 18420, Note_on_c, 4, 59, 0
6, 18420, Note_on_c, 4, 63, 0
6, 18420, Note_on_c, 4, 68, 72
6, 18420, Note_on_c, 4, 59, 43
6, 18420, Note_on_c, 4, 61, 66
6, 18420, Note_on_c, 4, 65, 61
6, 18690, Note_on_c, 4, 65, 0
6, 18690, Note_on_c, 4, 68, 0
6, 18690, Note_on_c, 4, 59, 0
6, 18720, Note_on_c, 4, 61, 0
6, 18720, Note_on_c, 4, 61, 58
6, 18720, Note_on_c, 4, 58, 55
6, 18720, Note_on_c, 4, 64, 74
6, 18720, Note_on_c, 4, 66, 66
6, 19140, Note_on_c, 4, 66, 0
6, 19140, Note_on_c, 4, 58, 0
6, 19170, Note_on_c, 4, 64, 0
6, 19170, Note_on_c, 4, 61, 0
6, 19200, Note_on_c, 4, 66, 74
6, 19200, Note_on_c, 4, 64, 58
6, 19200, Note_on_c, 4, 61, 89
6, 19200, Note_on_c, 4, 58, 77
6, 19320, Note_on_c, 4, 58, 0
6, 19320, Note_on_c, 4, 66, 0
6, 19320, Note_on_c, 4, 64, 0
6, 19320, Note_on_c, 4, 61, 0
6, 19380, Note_on_c, 4, 66, 79
6, 19380, Note_on_c, 4, 64, 55
6, 19380, Note_on_c, 4, 58, 74
6, 19380, Note_on_c, 4, 61, 69
6, 19440, Note_on_c, 4, 61, 0
6, 19440, Note_on_c, 4, 58, 0
6, 19440, Note_on_c, 4, 66, 0
6, 19470, Note_on_c, 4, 64, 0
6, 19500, Note_on_c, 4, 64, 64
6, 19500, Note_on_c, 4, 66, 102
6, 19500, Note_on_c, 4, 61, 77
6, 19500, Note_on_c, 4, 58, 84
6, 19590, Note_on_c, 4, 58, 0
6, 19590, Note_on_c, 4, 61, 0
6, 19590, Note_on_c, 4, 64, 0
6, 19620, Note_on_c, 4, 66, 0
6, 19680, Note_on_c, 4, 57, 69
6, 19680, Note_on_c, 4, 66, 79
6, 19680, Note_on_c, 4, 63, 69
6, 19680, Note_on_c, 4, 59, 89
6, 20130, Note_on_c, 4, 59, 0
6, 20130, Note_on_c, 4, 57, 0
6, 20130, Note_on_c, 4, 66, 0
6, 20130, Note_on_c, 4, 63, 0
6, 20160, Note_on_c, 4, 57, 51
6, 20160, Note_on_c, 4, 59, 72
6, 20160, Note_on_c, 4, 66, 69
6, 20160, Note_on_c, 4, 63, 72
6, 20280, Note_on_c, 4, 63, 0
6, 20280, Note_on_c, 4, 57, 0
6, 20280, Note_on_c, 4, 59, 0
6, 20280, Note_on_c, 4, 66, 0
6, 20340, Note_on_c, 4, 61, 69
6, 20340, Note_on_c, 4, 59, 64
6, 20340, Note_on_c, 4, 68, 84
6, 20340, Note_on_c, 4, 65, 74
6, 20580, Note_on_c, 4, 65, 0
6, 20580, Note_on_c, 4, 68, 0
6, 20610, Note_on_c, 4, 59, 0
6, 20610, Note_on_c, 4, 61, 0
6, 20640, Note_on_c, 4, 66, 64
6, 20640, Note_on_c, 4, 64, 84
6, 20640, Note_on_c, 4, 58, 72
6, 20640, Note_on_c, 4, 61, 72
6, 21090, Note_on_c, 4, 61, 0
6, 21090, Note_on_c, 4, 66, 0
6, 21090, Note_on_c, 4, 64, 0
6, 21090, Note_on_c, 4, 58, 0
6, 21120, Note_on_c, 4, 64, 51
6, 21120, Note_on_c, 4, 61, 84
6, 21120, Note_on_c, 4, 66, 79
6, 21120, Note_on_c, 4, 58, 77
6, 21240, Note_on_c, 4, 58, 0
6, 21240, Note_on_c, 4, 64, 0
6, 21240, Note_on_c, 4, 61, 0
6, 21240, Note_on_c, 4, 66, 0
6, 21300, Note_on_c, 4, 66, 93
6, 21300, Note_on_c, 4, 64, 77
6, 21300, Note_on_c, 4, 61, 111
6, 21300, Note_on_c, 4, 58, 108
6, 21329, Note_on_c, 4, 58, 0
6, 21329, Note_on_c, 4, 66, 0
6, 21329, Note_on_c, 4, 64, 0
6, 21329, Note_on_c, 4, 61, 0
6, 21420, Note_on_c, 4, 61, 89
6, 21420, Note_on_c, 4, 64, 74
6, 21420, Note_on_c, 4, 58, 89
6, 21420, Note_on_c, 4, 66, 102
6, 21480, Note_on_c, 4, 58, 0
6, 21510, Note_on_c, 4, 61, 0
6, 21540, Note_on_c, 4, 64, 0
6, 21540, Note_on_c, 4, 66, 0
6, 21540, Note_on_c, 4, 59, 26
6, 21569, Note_on_c, 4, 59, 0
6, 21600, Note_on_c, 4, 64, 99
6, 21600, Note_on_c, 4, 61, 77
6, 21600, Note_on_c, 4, 59, 74
6, 21600, Note_on_c, 4, 68, 84
6, 21600, Note_on_c, 4, 65, 72
6, 21629, Note_on_c, 4, 64, 0
6, 22020, Note_on_c, 4, 68, 0
6, 22020, Note_on_c, 4, 61, 0
6, 22020, Note_on_c, 4, 59, 0
6, 22020, Note_on_c, 4, 65, 0
6, 22020, Note_on_c, 4, 59, 72
6, 22049, Note_on_c, 4, 59, 0
6, 22080, Note_on_c, 4, 63, 74
6, 22080, Note_on_c, 4, 69, 102
6, 22080, Note_on_c, 4, 66, 74
6, 22080, Note_on_c, 4, 59, 72
6, 22350, Note_on_c, 4, 59, 0
6, 22380, Note_on_c, 4, 59, 55
6, 22410, Note_on_c, 4, 63, 0
6, 22410, Note_on_c, 4, 66, 0
6, 22410, Note_on_c, 4, 69, 0
6, 22440, Note_on_c, 4, 63, 84
6, 22440, Note_on_c, 4, 66, 77
6, 22440, Note_on_c, 4, 69, 66
6, 22470, Note_on_c, 4, 59, 0
6, 22500, Note_on_c, 4, 59, 58
6, 22529, Note_on_c, 4, 59, 0
6, 22530, Note_on_c, 4, 69, 0
6, 22530, Note_on_c, 4, 66, 0
6, 22530, Note_on_c, 4, 63, 0
6, 22560, Note_on_c, 4, 64, 81
6, 22560, Note_on_c, 4, 58, 79
6, 22560, Note_on_c, 4, 61, 84
6, 22560, Note_on_c, 4, 66, 84
6, 22950, Note_on_c, 4, 58, 0
6, 22980, Note_on_c, 4, 58, 3
6, 23009, Note_on_c, 4, 58, 0
6, 23010, Note_on_c, 4, 66, 0
6, 23010, Note_on_c, 4, 61, 0
6, 23010, Note_on_c, 4, 64, 0
6, 23040, Note_on_c, 4, 61, 96
6, 23040, Note_on_c, 4, 66, 96
6, 23040, Note_on_c, 4, 64, 89
6, 23040, Note_on_c, 4, 58, 102
6, 23100, Note_on_c, 4, 58, 0
6, 23160, Note_on_c, 4, 61, 0
6, 23160, Note_on_c, 4, 66, 0
6, 23160, Note_on_c, 4, 64, 0
6, 23160, Note_on_c, 4, 58, 18
6, 23189, Note_on_c, 4, 58, 0
6, 23220, Note_on_c, 4, 64, 81
6, 23220, Note_on_c, 4, 61, 96
6, 23220, Note_on_c, 4, 58, 74
6, 23220, Note_on_c, 4, 66, 77
6, 23249, Note_on_c, 4, 66, 0
6, 23249, Note_on_c, 4, 64, 0
6, 23249, Note_on_c, 4, 61, 0
6, 23249, Note_on_c, 4, 58, 0
6, 23340, Note_on_c, 4, 64, 96
6, 23340, Note_on_c, 4, 61, 102
6, 23340, Note_on_c, 4, 58, 84
6, 23340, Note_on_c, 4, 66, 99
6, 23430, Note_on_c, 4, 58, 0
6, 23460, Note_on_c, 4, 64, 0
6, 23460, Note_on_c, 4, 61, 0
6, 23460, Note_on_c, 4, 66, 0
6, 23460, Note_on_c, 4, 58, 51
6, 23489, Note_on_c, 4, 58, 0
6, 29280, Note_on_c, 4, 72, 58
6, 29280, Note_on_c, 4, 78, 69
6, 29280, Note_on_c, 4, 73, 58
6, 29309, Note_on_c, 4, 72, 0
6, 29730, Note_on_c, 4, 73, 0
6, 29760, Note_on_c, 4, 81, 77
6, 29760, Note_on_c, 4, 71, 51
6, 29760, Note_on_c, 4, 75, 55
6, 29910, Note_on_c, 4, 75, 0
6, 29910, Note_on_c, 4, 71, 0
6, 29940, Note_on_c, 4, 81, 0
6, 29940, Note_on_c, 4, 78, 0
6, 29940, Note_on_c, 4, 76, 72
6, 29940, Note_on_c, 4, 73, 51
6, 29940, Note_on_c, 4, 80, 66
6, 29969, Note_on_c, 4, 76, 0
6, 29970, Note_on_c, 4, 77, 69
6, 30210, Note_on_c, 4, 80, 0
6, 30210, Note_on_c, 4, 73, 0
6, 30240, Note_on_c, 4, 77, 0
6, 30240, Note_on_c, 4, 78, 77
6, 30240, Note_on_c, 4, 70, 84
6, 30240, Note_on_c, 4, 73, 69
6, 30390, Note_on_c, 4, 70, 0
6, 30420, Note_on_c, 4, 73, 0
6, 30420, Note_on_c, 4, 78, 0
6, 30420, Note_on_c, 4, 75, 99
6, 30420, Note_on_c, 4, 70, 111
6, 30420, Note_on_c, 4, 78, 79
6, 30449, Note_on_c, 4, 75, 0
6, 30480, Note_on_c, 4, 78, 0
6, 30480, Note_on_c, 4, 70, 0
6, 30480, Note_on_c, 4, 76, 77
6, 30480, Note_on_c, 4, 70, 39
6, 30480, Note_on_c, 4, 78, 39
6, 30570, Note_on_c, 4, 78, 0
6, 30570, Note_on_c, 4, 70, 0
6, 30600, Note_on_c, 4, 76, 0
6, 30600, Note_on_c, 4, 75, 93
6, 30600, Note_on_c, 4, 70, 79
6, 30600, Note_on_c, 4, 78, 51
6, 30720, Note_on_c, 4, 78, 0
6, 30720, Note_on_c, 4, 70, 0
6, 30720, Note_on_c, 4, 75, 0
6, 30720, Note_on_c, 4, 78, 66
6, 30720, Note_on_c, 4, 70, 72
6, 30720, Note_on_c, 4, 73, 72
6, 30870, Note_on_c, 4, 73, 0
6, 30870, Note_on_c, 4, 70, 0
6, 30870, Note_on_c, 4, 78, 0
6, 30900, Note_on_c, 4, 75, 84
6, 30900, Note_on_c, 4, 70, 79
6, 30900, Note_on_c, 4, 78, 79
6, 30929, Note_on_c, 4, 70, 0
6, 30929, Note_on_c, 4, 75, 0
6, 30960, Note_on_c, 4, 70, 58
6, 30960, Note_on_c, 4, 76, 86
6, 31050, Note_on_c, 4, 70, 0
6, 31050, Note_on_c, 4, 78, 0
6, 31080, Note_on_c, 4, 76, 0
6, 31080, Note_on_c, 4, 78, 77
6, 31080, Note_on_c, 4, 75, 93
6, 31080, Note_on_c, 4, 70, 77
6, 31140, Note_on_c, 4, 70, 0
6, 31170, Note_on_c, 4, 75, 0
6, 31170, Note_on_c, 4, 78, 0
6, 31200, Note_on_c, 4, 75, 64
6, 31200, Note_on_c, 4, 81, 86
6, 31200, Note_on_c, 4, 78, 77
6, 31200, Note_on_c, 4, 71, 69
6, 31350, Note_on_c, 4, 78, 0
6, 31350, Note_on_c, 4, 75, 0
6, 31350, Note_on_c, 4, 81, 0
6, 31380, Note_on_c, 4, 75, 102
6, 31380, Note_on_c, 4, 78, 84
6, 31380, Note_on_c, 4, 81, 72
6, 31590, Note_on_c, 4, 71, 0
6, 31620, Note_on_c, 4, 75, 0
6, 31620, Note_on_c, 4, 81, 0
6, 31620, Note_on_c, 4, 71, 18
6, 31649, Note_on_c, 4, 71, 0
6, 31650, Note_on_c, 4, 78, 0
6, 31680, Note_on_c, 4, 81, 74
6, 31680, Note_on_c, 4, 75, 96
6, 31680, Note_on_c, 4, 71, 66
6, 31680, Note_on_c, 4, 78, 66
6, 31830, Note_on_c, 4, 78, 0
6, 31830, Note_on_c, 4, 81, 0
6, 31830, Note_on_c, 4, 75, 0
6, 31830, Note_on_c, 4, 71, 0
6, 31860, Note_on_c, 4, 73, 55
6, 31860, Note_on_c, 4, 80, 74
6, 31860, Note_on_c, 4, 77, 69
6, 31860, Note_on_c, 4, 71, 48
6, 31950, Note_on_c, 4, 77, 0
6, 31950, Note_on_c, 4, 73, 0
6, 31950, Note_on_c, 4, 80, 0
6, 31980, Note_on_c, 4, 71, 0
6, 31980, Note_on_c, 4, 76, 72
6, 31980, Note_on_c, 4, 73, 64
6, 31980, Note_on_c, 4, 71, 48
6, 31980, Note_on_c, 4, 80, 72
6, 31980, Note_on_c, 4, 77, 64
6, 32009, Note_on_c, 4, 76, 0
6, 32130, Note_on_c, 4, 80, 0
6, 32130, Note_on_c, 4, 77, 0
6, 32130, Note_on_c, 4, 71, 0
6, 32160, Note_on_c, 4, 73, 0
6, 32160, Note_on_c, 4, 73, 64
6, 32160, Note_on_c, 4, 70, 64
6, 32160, Note_on_c, 4, 78, 84
6, 32310, Note_on_c, 4, 78, 0
6, 32310, Note_on_c, 4, 70, 0
6, 32310, Note_on_c, 4, 73, 0
6, 32340, Note_on_c, 4, 78, 69
6, 32340, Note_on_c, 4, 75, 81
6, 32340, Note_on_c, 4, 70, 96
6, 32369, Note_on_c, 4, 70, 0
6, 32369, Note_on_c, 4, 75, 0
6, 32400, Note_on_c, 4, 78, 0
6, 32400, Note_on_c, 4, 78, 26
6, 32400, Note_on_c, 4, 76, 96
6, 32400, Note_on_c, 4, 70, 51
6, 32490, Note_on_c, 4, 70, 0
6, 32490, Note_on_c, 4, 78, 0
6, 32520, Note_on_c, 4, 76, 0
6, 32520, Note_on_c, 4, 75, 72
6, 32520, Note_on_c, 4, 70, 72
6, 32520, Note_on_c, 4, 78, 79
6, 32610, Note_on_c, 4, 78, 0
6, 32610, Note_on_c, 4, 70, 0
6, 32640, Note_on_c, 4, 75, 0
6, 32640, Note_on_c, 4, 78, 84
6, 32640, Note_on_c, 4, 70, 79
6, 32640, Note_on_c, 4, 73, 93
6, 32790, Note_on_c, 4, 73, 0
6, 32790, Note_on_c, 4, 70, 0
6, 32790, Note_on_c, 4, 78, 0
6, 32820, Note_on_c, 4, 78, 84
6, 32820, Note_on_c, 4, 75, 84
6, 32820, Note_on_c, 4, 70, 74
6, 32849, Note_on_c, 4, 70, 0
6, 32849, Note_on_c, 4, 75, 0
6, 32849, Note_on_c, 4, 78, 0
6, 32880, Note_on_c, 4, 70, 64
6, 32880, Note_on_c, 4, 78, 72
6, 32880, Note_on_c, 4, 76, 84
6, 32970, Note_on_c, 4, 76, 0
6, 32970, Note_on_c, 4, 78, 0
6, 32970, Note_on_c, 4, 70, 0
6, 33000, Note_on_c, 4, 75, 102
6, 33000, Note_on_c, 4, 78, 84
6, 33000, Note_on_c, 4, 70, 69
6, 33029, Note_on_c, 4, 70, 0
6, 33060, Note_on_c, 4, 75, 0
6, 33060, Note_on_c, 4, 70, 35
6, 33089, Note_on_c, 4, 70, 0
6, 33090, Note_on_c, 4, 78, 0
6, 33120, Note_on_c, 4, 76, 124
6, 33120, Note_on_c, 4, 80, 74
6, 33120, Note_on_c, 4, 71, 66
6, 33120, Note_on_c, 4, 73, 66
6, 33120, Note_on_c, 4, 77, 64
6, 33149, Note_on_c, 4, 76, 0
6, 33270, Note_on_c, 4, 73, 0
6, 33270, Note_on_c, 4, 80, 0
6, 33270, Note_on_c, 4, 71, 0
6, 33270, Note_on_c, 4, 77, 0
6, 33300, Note_on_c, 4, 73, 84
6, 33300, Note_on_c, 4, 71, 81
6, 33300, Note_on_c, 4, 80, 77
6, 33300, Note_on_c, 4, 77, 77
6, 33510, Note_on_c, 4, 71, 0
6, 33540, Note_on_c, 4, 73, 0
6, 33540, Note_on_c, 4, 77, 0
6, 33540, Note_on_c, 4, 71, 74
6, 33570, Note_on_c, 4, 80, 0
6, 33600, Note_on_c, 4, 81, 117
6, 33600, Note_on_c, 4, 75, 93
6, 33600, Note_on_c, 4, 78, 77
6, 33720, Note_on_c, 4, 81, 0
6, 33750, Note_on_c, 4, 71, 0
6, 33750, Note_on_c, 4, 75, 0
6, 33750, Note_on_c, 4, 78, 0
6, 33780, Note_on_c, 4, 75, 96
6, 33780, Note_on_c, 4, 81, 93
6, 33780, Note_on_c, 4, 78, 84
6, 33780, Note_on_c, 4, 71, 51
6, 33870, Note_on_c, 4, 71, 0
6, 33870, Note_on_c, 4, 75, 0
6, 33870, Note_on_c, 4, 81, 0
6, 33870, Note_on_c, 4, 78, 0
6, 33900, Note_on_c, 4, 75, 77
6, 33900, Note_on_c, 4, 81, 81
6, 33900, Note_on_c, 4, 78, 77
6, 33900, Note_on_c, 4, 71, 72
6, 33990, Note_on_c, 4, 71, 0
6, 34020, Note_on_c, 4, 71, 39
6, 34049, Note_on_c, 4, 71, 0
6, 34050, Note_on_c, 4, 78, 0
6, 34050, Note_on_c, 4, 81, 0
6, 34050, Note_on_c, 4, 75, 0
6, 34080, Note_on_c, 4, 78, 74
6, 34080, Note_on_c, 4, 73, 74
6, 34080, Note_on_c, 4, 70, 58
6, 34140, Note_on_c, 4, 73, 0
6, 34170, Note_on_c, 4, 78, 0
6, 34200, Note_on_c, 4, 70, 0
6, 34200, Note_on_c, 4, 90, 89
6, 34200, Note_on_c, 4, 84, 89
6, 34200, Note_on_c, 4, 85, 79
6, 34229, Note_on_c, 4, 84, 0
6, 34290, Note_on_c, 4, 85, 0
6, 34290, Note_on_c, 4, 90, 0
6, 34320, Note_on_c, 4, 85, 84
6, 34320, Note_on_c, 4, 84, 127
6, 34320, Note_on_c, 4, 90, 84
6, 34349, Note_on_c, 4, 84, 0
6, 34410, Note_on_c, 4, 90, 0
6, 34410, Note_on_c, 4, 85, 0
6, 34440, Note_on_c, 4, 85, 89
6, 34440, Note_on_c, 4, 84, 51
6, 34440, Note_on_c, 4, 90, 84
6, 34469, Note_on_c, 4, 84, 0
6, 34530, Note_on_c, 4, 90, 0
6, 34530, Note_on_c, 4, 85, 0
6, 34560, Note_on_c, 4, 85, 102
6, 34560, Note_on_c, 4, 84, 127
6, 34560, Note_on_c, 4, 90, 108
6, 34589, Note_on_c, 4, 84, 0
6, 34650, Note_on_c, 4, 90, 0
6, 34650, Note_on_c, 4, 85, 0
6, 34680, Note_on_c, 4, 90, 89
6, 34680, Note_on_c, 4, 85, 89
6, 34680, Note_on_c, 4, 84, 61
6, 34709, Note_on_c, 4, 84, 0
6, 34770, Note_on_c, 4, 85, 0
6, 34770, Note_on_c, 4, 90, 0
6, 34800, Note_on_c, 4, 90, 86
6, 34800, Note_on_c, 4, 85, 86
6, 34800, Note_on_c, 4, 84, 84
6, 34829, Note_on_c, 4, 84, 0
6, 34860, Note_on_c, 4, 85, 0
6, 34860, Note_on_c, 4, 90, 0
6, 35332, Note_on_c, 4, 46, 39
6, 35332, Note_on_c, 4, 44, 22
6, 35334, Note_on_c, 4, 47, 26
6, 35340, Note_on_c, 4, 44, 0
6, 35341, Note_on_c, 4, 49, 18
6, 35346, Note_on_c, 4, 51, 26
6, 35349, Note_on_c, 4, 46, 0
6, 35351, Note_on_c, 4, 53, 43
6, 35354, Note_on_c, 4, 47, 0
6, 35356, Note_on_c, 4, 54, 26
6, 35359, Note_on_c, 4, 49, 0
6, 35362, Note_on_c, 4, 56, 58
6, 35363, Note_on_c, 4, 51, 0
6, 35365, Note_on_c, 4, 58, 72
6, 35367, Note_on_c, 4, 53, 0
6, 35369, Note_on_c, 4, 59, 64
6, 35370, Note_on_c, 4, 54, 0
6, 35372, Note_on_c, 4, 61, 79
6, 35374, Note_on_c, 4, 56, 0
6, 35375, Note_on_c, 4, 63, 74
6, 35377, Note_on_c, 4, 58, 0
6, 35378, Note_on_c, 4, 65, 64
6, 35379, Note_on_c, 4, 59, 0
6, 35380, Note_on_c, 4, 66, 72
6, 35382, Note_on_c, 4, 61, 0
6, 35383, Note_on_c, 4, 68, 66
6, 35385, Note_on_c, 4, 63, 0
6, 35385, Note_on_c, 4, 70, 69
6, 35387, Note_on_c, 4, 65, 0
6, 35388, Note_on_c, 4, 71, 84
6, 35389, Note_on_c, 4, 66, 0
6, 35390, Note_on_c, 4, 73, 84
6, 35392, Note_on_c, 4, 68, 0
6, 35393, Note_on_c, 4, 75, 89
6, 35394, Note_on_c, 4, 70, 0
6, 35395, Note_on_c, 4, 71, 0
6, 35395, Note_on_c, 4, 77, 102
6, 35397, Note_on_c, 4, 73, 0
6, 35397, Note_on_c, 4, 78, 99
6, 35398, Note_on_c, 4, 80, 127
6, 35399, Note_on_c, 4, 75, 0
6, 35400, Note_on_c, 4, 82, 96
6, 35401, Note_on_c, 4, 77, 0
6, 35402, Note_on_c, 4, 78, 0
6, 35402, Note_on_c, 4, 83, 117
6, 35403, Note_on_c, 4, 80, 0
6, 35404, Note_on_c, 4, 85, 111
6, 35405, Note_on_c, 4, 84, 126
6, 35406, Note_on_c, 4, 83, 0
6, 35406, Note_on_c, 4, 82, 0
6, 35406, Note_on_c, 4, 87, 84
6, 35406, Note_on_c, 4, 86, 120
6, 35407, Note_on_c, 4, 84, 0
6, 35407, Note_on_c, 4, 89, 124
6, 35408, Note_on_c, 4, 85, 0
6, 35408, Note_on_c, 4, 86, 0
6, 35409, Note_on_c, 4, 90, 89
6, 35409, Note_on_c, 4, 88, 72
6, 35410, Note_on_c, 4, 88, 0
6, 35410, Note_on_c, 4, 92, 127
6, 35412, Note_on_c, 4, 87, 0
6, 35413, Note_on_c, 4, 94, 64
6, 35414, Note_on_c, 4, 89, 0
6, 35419, Note_on_c, 4, 94, 0
6, 35422, Note_on_c, 4, 89, 61
6, 35424, Note_on_c, 4, 92, 0
6, 35429, Note_on_c, 4, 87, 96
6, 35430, Note_on_c, 4, 90, 0
6, 35430, Note_on_c, 4, 85, 105
6, 35433, Note_on_c, 4, 83, 108
6, 35434, Note_on_c, 4, 89, 0
6, 35436, Note_on_c, 4, 82, 127
6, 35437, Note_on_c, 4, 87, 0
6, 35439, Note_on_c, 4, 80, 108
6, 35440, Note_on_c, 4, 85, 0
6, 35441, Note_on_c, 4, 78, 123
6, 35443, Note_on_c, 4, 83, 0
6, 35444, Note_on_c, 4, 82, 0
6, 35444, Note_on_c, 4, 77, 125
6, 35447, Note_on_c, 4, 75, 125
6, 35448, Note_on_c, 4, 80, 0
6, 35449, Note_on_c, 4, 73, 124
6, 35451, Note_on_c, 4, 78, 0
6, 35452, Note_on_c, 4, 71, 111
6, 35454, Note_on_c, 4, 77, 0
6, 35457, Note_on_c, 4, 70, 77
6, 35458, Note_on_c, 4, 75, 0
6, 35461, Note_on_c, 4, 68, 89
6, 35463, Note_on_c, 4, 73, 0
6, 35465, Note_on_c, 4, 66, 117
6, 35466, Note_on_c, 4, 71, 0
6, 35469, Note_on_c, 4, 70, 0
6, 35469, Note_on_c, 4, 65, 124
6, 35473, Note_on_c, 4, 68, 0
6, 35473, Note_on_c, 4, 63, 96
6, 35475, Note_on_c, 4, 61, 124
6, 35477, Note_on_c, 4, 66, 0
6, 35479, Note_on_c, 4, 65, 0
6, 35479, Note_on_c, 4, 59, 108
6, 35482, Note_on_c, 4, 63, 0
6, 35482, Note_on_c, 4, 58, 84
6, 35485, Note_on_c, 4, 56, 114
6, 35486, Note_on_c, 4, 61, 0
6, 35489, Note_on_c, 4, 54, 108
6, 35490, Note_on_c, 4, 59, 0
6, 35491, Note_on_c, 4, 58, 0
6, 35492, Note_on_c, 4, 53, 79
6, 35493, Note_on_c, 4, 56, 0
6, 35496, Note_on_c, 4, 54, 0
6, 35496, Note_on_c, 4, 51, 74
6, 35499, Note_on_c, 4, 53, 0
6, 35500, Note_on_c, 4, 51, 0
6, 35501, Note_on_c, 4, 49, 43
6, 35506, Note_on_c, 4, 49, 0
6, 38098, Note_on_c, 4, 73, 66
6, 38098, Note_on_c, 4, 66, 72
6, 38098, Note_on_c, 4, 76, 61
6, 38100, Note_on_c, 4, 78, 66
6, 38189, Note_on_c, 4, 66, 0
6, 38218, Note_on_c, 4, 73, 0
6, 38222, Note_on_c, 4, 78, 0
6, 38222, Note_on_c, 4, 66, 55
6, 38228, Note_on_c, 4, 76, 0
6, 38233, Note_on_c, 4, 66, 0
6, 38276, Note_on_c, 4, 66, 66
6, 38276, Note_on_c, 4, 75, 84
6, 38277, Note_on_c, 4, 71, 84
6, 38278, Note_on_c, 4, 78, 69
6, 38287, Note_on_c, 4, 71, 0
6, 38288, Note_on_c, 4, 78, 0
6, 38288, Note_on_c, 4, 75, 0
6, 38290, Note_on_c, 4, 66, 0
6, 38338, Note_on_c, 4, 66, 79
6, 38338, Note_on_c, 4, 71, 77
6, 38339, Note_on_c, 4, 75, 77
6, 38340, Note_on_c, 4, 78, 69
6, 38428, Note_on_c, 4, 66, 0
6, 38463, Note_on_c, 4, 66, 48
6, 38466, Note_on_c, 4, 75, 0
6, 38468, Note_on_c, 4, 71, 0
6, 38473, Note_on_c, 4, 78, 0
6, 38480, Note_on_c, 4, 66, 0
6, 38518, Note_on_c, 4, 73, 72
6, 38518, Note_on_c, 4, 69, 91
6, 38521, Note_on_c, 4, 66, 58
6, 38523, Note_on_c, 4, 78, 30
6, 38530, Note_on_c, 4, 69, 0
6, 38532, Note_on_c, 4, 70, 102
6, 38547, Note_on_c, 4, 78, 0
6, 38549, Note_on_c, 4, 66, 0
6, 38550, Note_on_c, 4, 70, 0
6, 38553, Note_on_c, 4, 73, 0
6, 38583, Note_on_c, 4, 69, 124
6, 38585, Note_on_c, 4, 73, 74
6, 38585, Note_on_c, 4, 66, 74
6, 38589, Note_on_c, 4, 78, 43
6, 38593, Note_on_c, 4, 69, 0
6, 38593, Note_on_c, 4, 70, 124
6, 38684, Note_on_c, 4, 66, 0
6, 38710, Note_on_c, 4, 66, 55
6, 38721, Note_on_c, 4, 70, 0
6, 38726, Note_on_c, 4, 73, 0
6, 38727, Note_on_c, 4, 78, 0
6, 38727, Note_on_c, 4, 66, 0
6, 38881, Note_on_c, 4, 68, 55
6, 38881, Note_on_c, 4, 73, 58
6, 38882, Note_on_c, 4, 77, 64
6, 38883, Note_on_c, 4, 71, 58
6, 39004, Note_on_c, 4, 71, 0
6, 39006, Note_on_c, 4, 77, 0
6, 39006, Note_on_c, 4, 73, 0
6, 39063, Note_on_c, 4, 77, 79
6, 39063, Note_on_c, 4, 73, 66
6, 39064, Note_on_c, 4, 71, 66
6, 39086, Note_on_c, 4, 77, 0
6, 39087, Note_on_c, 4, 71, 0
6, 39087, Note_on_c, 4, 73, 0
6, 39088, Note_on_c, 4, 68, 0
6, 39178, Note_on_c, 4, 71, 89
6, 39180, Note_on_c, 4, 77, 89
6, 39180, Note_on_c, 4, 68, 74
6, 39181, Note_on_c, 4, 73, 81
6, 39220, Note_on_c, 4, 73, 0
6, 39221, Note_on_c, 4, 68, 0
6, 39222, Note_on_c, 4, 71, 0
6, 39226, Note_on_c, 4, 77, 0
6, 39297, Note_on_c, 4, 71, 51
6, 39357, Note_on_c, 4, 75, 74
6, 39359, Note_on_c, 4, 78, 55
6, 39360, Note_on_c, 4, 81, 66
6, 39473, Note_on_c, 4, 81, 0
6, 39476, Note_on_c, 4, 71, 0
6, 39476, Note_on_c, 4, 75, 0
6, 39477, Note_on_c, 4, 78, 0
6, 39537, Note_on_c, 4, 81, 91
6, 39537, Note_on_c, 4, 75, 72
6, 39537, Note_on_c, 4, 71, 61
6, 39538, Note_on_c, 4, 78, 66
6, 39569, Note_on_c, 4, 81, 0
6, 39570, Note_on_c, 4, 78, 0
6, 39570, Note_on_c, 4, 71, 0
6, 39572, Note_on_c, 4, 75, 0
6, 39661, Note_on_c, 4, 75, 66
6, 39661, Note_on_c, 4, 71, 58
6, 39662, Note_on_c, 4, 81, 66
6, 39662, Note_on_c, 4, 78, 74
6, 39715, Note_on_c, 4, 81, 0
6, 39716, Note_on_c, 4, 78, 0
6, 39717, Note_on_c, 4, 75, 0
6, 39720, Note_on_c, 4, 71, 0
6, 39784, Note_on_c, 4, 70, 26
6, 39805, Note_on_c, 4, 70, 0
6, 39841, Note_on_c, 4, 76, 72
6, 39842, Note_on_c, 4, 70, 64
6, 39842, Note_on_c, 4, 73, 61
6, 39843, Note_on_c, 4, 78, 79
6, 39952, Note_on_c, 4, 70, 0
6, 39954, Note_on_c, 4, 76, 0
6, 39954, Note_on_c, 4, 73, 0
6, 39957, Note_on_c, 4, 78, 0
6, 40022, Note_on_c, 4, 76, 96
6, 40022, Note_on_c, 4, 70, 66
6, 40022, Note_on_c, 4, 78, 79
6, 40022, Note_on_c, 4, 73, 66
6, 40039, Note_on_c, 4, 73, 0
6, 40039, Note_on_c, 4, 78, 0
6, 40039, Note_on_c, 4, 70, 0
6, 40040, Note_on_c, 4, 76, 0
6, 40324, Note_on_c, 4, 78, 89
6, 40324, Note_on_c, 4, 76, 72
6, 40324, Note_on_c, 4, 70, 61
6, 40325, Note_on_c, 4, 73, 58
6, 40437, Note_on_c, 4, 73, 0
6, 40438, Note_on_c, 4, 76, 0
6, 40440, Note_on_c, 4, 70, 0
6, 40440, Note_on_c, 4, 78, 0
6, 40500, Note_on_c, 4, 76, 81
6, 40501, Note_on_c, 4, 73, 84
6, 40501, Note_on_c, 4, 70, 69
6, 40501, Note_on_c, 4, 78, 74
6, 40522, Note_on_c, 4, 78, 0
6, 40522, Note_on_c, 4, 76, 0
6, 40522, Note_on_c, 4, 73, 0
6, 40523, Note_on_c, 4, 70, 0
6, 40800, Note_on_c, 4, 69, 120
6, 40800, Note_on_c, 4, 73, 86
6, 40801, Note_on_c, 4, 66, 64
6, 40812, Note_on_c, 4, 69, 0
6, 40812, Note_on_c, 4, 70, 79
6, 41202, Note_on_c, 4, 66, 0
6, 41221, Note_on_c, 4, 73, 0
6, 41227, Note_on_c, 4, 70, 0
6, 41228, Note_on_c, 4, 66, 35
6, 41250, Note_on_c, 4, 66, 0
6, 41283, Note_on_c, 4, 69, 72
6, 41283, Note_on_c, 4, 66, 61
6, 41283, Note_on_c, 4, 75, 66
6, 41283, Note_on_c, 4, 71, 69
6, 41405, Note_on_c, 4, 69, 0
6, 41407, Note_on_c, 4, 66, 0
6, 41409, Note_on_c, 4, 71, 0
6, 41412, Note_on_c, 4, 75, 0
6, 41457, Note_on_c, 4, 73, 72
6, 41457, Note_on_c, 4, 71, 72
6, 41458, Note_on_c, 4, 68, 64
6, 41491, Note_on_c, 4, 71, 0
6, 41568, Note_on_c, 4, 68, 0
6, 41576, Note_on_c, 4, 73, 0
6, 41582, Note_on_c, 4, 71, 74
6, 41583, Note_on_c, 4, 68, 102
6, 41584, Note_on_c, 4, 73, 84
6, 41619, Note_on_c, 4, 71, 0
6, 41689, Note_on_c, 4, 68, 0
6, 41701, Note_on_c, 4, 71, 69
6, 41704, Note_on_c, 4, 68, 51
6, 41718, Note_on_c, 4, 68, 0
6, 41721, Note_on_c, 4, 73, 0
6, 41722, Note_on_c, 4, 71, 0
6, 41760, Note_on_c, 4, 73, 84
6, 41760, Note_on_c, 4, 69, 120
6, 41760, Note_on_c, 4, 66, 58
6, 41772, Note_on_c, 4, 69, 0
6, 41773, Note_on_c, 4, 70, 84
6, 41870, Note_on_c, 4, 70, 0
6, 41872, Note_on_c, 4, 66, 0
6, 41876, Note_on_c, 4, 73, 0
6, 41936, Note_on_c, 4, 66, 77
6, 41937, Note_on_c, 4, 73, 96
6, 41937, Note_on_c, 4, 76, 105
6, 42024, Note_on_c, 4, 66, 0
6, 42057, Note_on_c, 4, 73, 0
6, 42063, Note_on_c, 4, 66, 14
6, 42068, Note_on_c, 4, 76, 0
6, 42071, Note_on_c, 4, 66, 0
6, 42120, Note_on_c, 4, 66, 77
6, 42121, Note_on_c, 4, 71, 79
6, 42121, Note_on_c, 4, 75, 74
6, 42134, Note_on_c, 4, 71, 0
6, 42135, Note_on_c, 4, 75, 0
6, 42135, Note_on_c, 4, 66, 0
6, 42180, Note_on_c, 4, 66, 84
6, 42180, Note_on_c, 4, 75, 89
6, 42180, Note_on_c, 4, 71, 93
6, 42265, Note_on_c, 4, 66, 0
6, 42291, Note_on_c, 4, 75, 0
6, 42300, Note_on_c, 4, 66, 35
6, 42302, Note_on_c, 4, 71, 0
6, 42309, Note_on_c, 4, 66, 0
6, 42356, Note_on_c, 4, 73, 99
6, 42357, Note_on_c, 4, 69, 86
6, 42358, Note_on_c, 4, 66, 74
6, 42359, Note_on_c, 4, 78, 72
6, 42372, Note_on_c, 4, 70, 79
6, 42373, Note_on_c, 4, 69, 0
6, 42390, Note_on_c, 4, 78, 0
6, 42392, Note_on_c, 4, 66, 0
6, 42393, Note_on_c, 4, 70, 0
6, 42396, Note_on_c, 4, 73, 0
6, 42419, Note_on_c, 4, 69, 127
6, 42421, Note_on_c, 4, 73, 102
6, 42422, Note_on_c, 4, 66, 69
6, 42422, Note_on_c, 4, 78, 66
6, 42429, Note_on_c, 4, 70, 91
6, 42430, Note_on_c, 4, 69, 0
6, 42546, Note_on_c, 4, 66, 0
6, 42564, Note_on_c, 4, 70, 0
6, 42566, Note_on_c, 4, 73, 0
6, 42586, Note_on_c, 4, 78, 0
6, 42702, Note_on_c, 4, 75, 39
6, 42708, Note_on_c, 4, 78, 58
6, 42714, Note_on_c, 4, 81, 51
6, 42720, Note_on_c, 4, 85, 58
6, 43140, Note_on_c, 4, 78, 0
6, 43141, Note_on_c, 4, 81, 0
6, 43142, Note_on_c, 4, 75, 0
6, 43142, Note_on_c, 4, 85, 0
6, 43205, Note_on_c, 4, 81, 127
6, 43206, Note_on_c, 4, 78, 99
6, 43206, Note_on_c, 4, 75, 84
6, 43206, Note_on_c, 4, 85, 81
6, 43293, Note_on_c, 4, 75, 0
6, 43328, Note_on_c, 4, 85, 0
6, 43328, Note_on_c, 4, 75, 55
6, 43332, Note_on_c, 4, 81, 0
6, 43334, Note_on_c, 4, 78, 0
6, 43339, Note_on_c, 4, 75, 0
6, 43380, Note_on_c, 4, 77, 79
6, 43380, Note_on_c, 4, 71, 64
6, 43381, Note_on_c, 4, 80, 72
6, 43383, Note_on_c, 4, 73, 48
6, 43384, Note_on_c, 4, 75, 48
6, 43398, Note_on_c, 4, 75, 0
6, 43448, Note_on_c, 4, 80, 0
6, 43448, Note_on_c, 4, 71, 0
6, 43450, Note_on_c, 4, 73, 0
6, 43452, Note_on_c, 4, 77, 0
6, 43494, Note_on_c, 4, 80, 84
6, 43494, Note_on_c, 4, 77, 79
6, 43494, Note_on_c, 4, 73, 84
6, 43495, Note_on_c, 4, 71, 66
6, 43585, Note_on_c, 4, 71, 0
6, 43595, Note_on_c, 4, 73, 0
6, 43620, Note_on_c, 4, 77, 0
6, 43625, Note_on_c, 4, 80, 0
6, 43626, Note_on_c, 4, 71, 43
6, 43634, Note_on_c, 4, 71, 0
6, 43681, Note_on_c, 4, 70, 66
6, 43681, Note_on_c, 4, 73, 66
6, 43681, Note_on_c, 4, 78, 79
6, 43786, Note_on_c, 4, 78, 0
6, 43790, Note_on_c, 4, 70, 0
6, 43793, Note_on_c, 4, 73, 0
6, 43858, Note_on_c, 4, 66, 64
6, 43859, Note_on_c, 4, 78, 58
6, 43859, Note_on_c, 4, 73, 74
6, 43859, Note_on_c, 4, 76, 64
6, 43951, Note_on_c, 4, 66, 0
6, 43981, Note_on_c, 4, 66, 18
6, 43984, Note_on_c, 4, 78, 0
6, 43984, Note_on_c, 4, 73, 0
6, 43991, Note_on_c, 4, 76, 0
6, 43991, Note_on_c, 4, 66, 0
6, 44039, Note_on_c, 4, 71, 66
6, 44039, Note_on_c, 4, 75, 66
6, 44039, Note_on_c, 4, 66, 77
6, 44039, Note_on_c, 4, 78, 69
6, 44055, Note_on_c, 4, 78, 0
6, 44055, Note_on_c, 4, 66, 0
6, 44056, Note_on_c, 4, 75, 0
6, 44056, Note_on_c, 4, 71, 0
6, 44099, Note_on_c, 4, 75, 84
6, 44100, Note_on_c, 4, 71, 74
6, 44100, Note_on_c, 4, 66, 72
6, 44101, Note_on_c, 4, 78, 66
6, 44183, Note_on_c, 4, 66, 0
6, 44213, Note_on_c, 4, 75, 0
6, 44221, Note_on_c, 4, 66, 61
6, 44223, Note_on_c, 4, 78, 0
6, 44224, Note_on_c, 4, 71, 0
6, 44235, Note_on_c, 4, 66, 0
6, 44280, Note_on_c, 4, 69, 108
6, 44280, Note_on_c, 4, 73, 89
6, 44280, Note_on_c, 4, 66, 69
6, 44285, Note_on_c, 4, 78, 48
6, 44293, Note_on_c, 4, 69, 0
6, 44293, Note_on_c, 4, 70, 84
6, 44307, Note_on_c, 4, 66, 0
6, 44310, Note_on_c, 4, 78, 0
6, 44312, Note_on_c, 4, 73, 0
6, 44312, Note_on_c, 4, 70, 0
6, 44341, Note_on_c, 4, 69, 89
6, 44342, Note_on_c, 4, 73, 74
6, 44344, Note_on_c, 4, 66, 61
6, 44345, Note_on_c, 4, 78, 58
6, 44354, Note_on_c, 4, 69, 0
6, 44354, Note_on_c, 4, 70, 79
6, 44398, Note_on_c, 4, 66, 0
6, 44469, Note_on_c, 4, 66, 77
6, 44474, Note_on_c, 4, 70, 0
6, 44481, Note_on_c, 4, 78, 0
6, 44482, Note_on_c, 4, 73, 0
6, 44482, Note_on_c, 4, 66, 0
6, 44640, Note_on_c, 4, 77, 69
6, 44642, Note_on_c, 4, 71, 55
6, 44642, Note_on_c, 4, 73, 58
6, 44643, Note_on_c, 4, 80, 64
6, 45040, Note_on_c, 4, 73, 0
6, 45047, Note_on_c, 4, 71, 0
6, 45061, Note_on_c, 4, 77, 0
6, 45061, Note_on_c, 4, 71, 55
6, 45068, Note_on_c, 4, 80, 0
6, 45124, Note_on_c, 4, 75, 66
6, 45125, Note_on_c, 4, 81, 77
6, 45126, Note_on_c, 4, 78, 51
6, 45312, Note_on_c, 4, 81, 0
6, 45320, Note_on_c, 4, 75, 0
6, 45322, Note_on_c, 4, 78, 0
6, 45339, Note_on_c, 4, 71, 0
6, 45357, Note_on_c, 4, 75, 96
6, 45357, Note_on_c, 4, 78, 74
6, 45358, Note_on_c, 4, 81, 81
6, 45358, Note_on_c, 4, 71, 58
6, 45393, Note_on_c, 4, 71, 0
6, 45396, Note_on_c, 4, 81, 0
6, 45396, Note_on_c, 4, 75, 0
6, 45398, Note_on_c, 4, 78, 0
6, 45423, Note_on_c, 4, 71, 26
6, 45440, Note_on_c, 4, 71, 0
6, 45479, Note_on_c, 4, 71, 72
6, 45479, Note_on_c, 4, 75, 79
6, 45480, Note_on_c, 4, 78, 74
6, 45481, Note_on_c, 4, 81, 81
6, 45518, Note_on_c, 4, 71, 0
6, 45545, Note_on_c, 4, 71, 30
6, 45546, Note_on_c, 4, 81, 0
6, 45553, Note_on_c, 4, 75, 0
6, 45553, Note_on_c, 4, 78, 0
6, 45559, Note_on_c, 4, 71, 0
6, 45602, Note_on_c, 4, 70, 69
6, 45602, Note_on_c, 4, 78, 84
6, 45603, Note_on_c, 4, 73, 66
6, 46087, Note_on_c, 4, 70, 0
6, 46111, Note_on_c, 4, 73, 0
6, 46127, Note_on_c, 4, 78, 0
6, 46143, Note_on_c, 4, 66, 39
6, 46157, Note_on_c, 4, 66, 0
6, 46201, Note_on_c, 4, 66, 74
6, 46202, Note_on_c, 4, 76, 86
6, 46202, Note_on_c, 4, 73, 96
6, 46203, Note_on_c, 4, 78, 84
6, 46217, Note_on_c, 4, 73, 0
6, 46217, Note_on_c, 4, 66, 0
6, 46217, Note_on_c, 4, 76, 0
6, 46219, Note_on_c, 4, 78, 0
6, 46259, Note_on_c, 4, 66, 69
6, 46259, Note_on_c, 4, 76, 77
6, 46260, Note_on_c, 4, 73, 89
6, 46261, Note_on_c, 4, 78, 84
6, 46336, Note_on_c, 4, 66, 0
6, 46367, Note_on_c, 4, 73, 0
6, 46369, Note_on_c, 4, 76, 0
6, 46371, Note_on_c, 4, 66, 18
6, 46378, Note_on_c, 4, 66, 0
6, 46381, Note_on_c, 4, 78, 0
6, 46440, Note_on_c, 4, 78, 89
6, 46440, Note_on_c, 4, 75, 89
6, 46440, Note_on_c, 4, 71, 66
6, 46441, Note_on_c, 4, 66, 84
6, 46488, Note_on_c, 4, 66, 0
6, 46507, Note_on_c, 4, 71, 0
6, 46507, Note_on_c, 4, 75, 0
6, 46510, Note_on_c, 4, 66, 39
6, 46513, Note_on_c, 4, 78, 0
6, 46519, Note_on_c, 4, 66, 0
6, 46563, Note_on_c, 4, 73, 89
6, 46563, Note_on_c, 4, 69, 105
6, 46564, Note_on_c, 4, 66, 66
6, 46579, Note_on_c, 4, 70, 72
6, 46582, Note_on_c, 4, 69, 0
6, 47018, Note_on_c, 4, 70, 0
6, 47022, Note_on_c, 4, 66, 0
6, 47027, Note_on_c, 4, 73, 0
6, 47040, Note_on_c, 4, 71, 72
6, 47042, Note_on_c, 4, 66, 58
6, 47043, Note_on_c, 4, 75, 79
6, 47045, Note_on_c, 4, 69, 55
6, 47188, Note_on_c, 4, 69, 0
6, 47190, Note_on_c, 4, 71, 0
6, 47190, Note_on_c, 4, 66, 0
6, 47199, Note_on_c, 4, 75, 0
6, 47220, Note_on_c, 4, 68, 66
6, 47221, Note_on_c, 4, 73, 79
6, 47222, Note_on_c, 4, 71, 66
6, 47223, Note_on_c, 4, 77, 64
6, 47463, Note_on_c, 4, 77, 0
6, 47474, Note_on_c, 4, 71, 0
6, 47483, Note_on_c, 4, 68, 0
6, 47487, Note_on_c, 4, 73, 0
6, 47521, Note_on_c, 4, 73, 66
6, 47521, Note_on_c, 4, 69, 93
6, 47521, Note_on_c, 4, 66, 79
6, 47523, Note_on_c, 4, 78, 66
6, 47532, Note_on_c, 4, 70, 81
6, 47533, Note_on_c, 4, 69, 0
6, 47782, Note_on_c, 4, 66, 0
6, 47807, Note_on_c, 4, 70, 0
6, 47812, Note_on_c, 4, 73, 0
6, 47821, Note_on_c, 4, 66, 35
6, 47832, Note_on_c, 4, 66, 0
6, 47837, Note_on_c, 4, 78, 0
6, 47878, Note_on_c, 4, 66, 74
6, 47878, Note_on_c, 4, 76, 69
6, 47878, Note_on_c, 4, 78, 79
6, 47879, Note_on_c, 4, 73, 72
6, 47897, Note_on_c, 4, 73, 0
6, 47898, Note_on_c, 4, 78, 0
6, 47899, Note_on_c, 4, 66, 0
6, 47901, Note_on_c, 4, 76, 0
6, 47938, Note_on_c, 4, 76, 102
6, 47939, Note_on_c, 4, 66, 66
6, 47939, Note_on_c, 4, 78, 89
6, 47939, Note_on_c, 4, 73, 74
6, 48014, Note_on_c, 4, 66, 0
6, 48028, Note_on_c, 4, 73, 0
6, 48055, Note_on_c, 4, 76, 0
6, 48066, Note_on_c, 4, 78, 0
6, 48119, Note_on_c, 4, 66, 84
6, 48119, Note_on_c, 4, 78, 74
6, 48119, Note_on_c, 4, 75, 77
6, 48119, Note_on_c, 4, 71, 66
6, 48134, Note_on_c, 4, 71, 0
6, 48135, Note_on_c, 4, 66, 0
6, 48136, Note_on_c, 4, 75, 0
6, 48136, Note_on_c, 4, 78, 0
6, 48178, Note_on_c, 4, 66, 79
6, 48179, Note_on_c, 4, 75, 102
6, 48179, Note_on_c, 4, 78, 74
6, 48179, Note_on_c, 4, 71, 84
6, 48266, Note_on_c, 4, 66, 0
6, 48291, Note_on_c, 4, 75, 0
6, 48298, Note_on_c, 4, 71, 0
6, 48302, Note_on_c, 4, 66, 43
6, 48313, Note_on_c, 4, 78, 0
6, 48319, Note_on_c, 4, 66, 0
6, 48361, Note_on_c, 4, 73, 84
6, 48362, Note_on_c, 4, 69, 93
6, 48363, Note_on_c, 4, 66, 51
6, 48373, Note_on_c, 4, 69, 0
6, 48373, Note_on_c, 4, 70, 84
6, 48399, Note_on_c, 4, 66, 0
6, 48426, Note_on_c, 4, 70, 0
6, 48429, Note_on_c, 4, 66, 58
6, 48430, Note_on_c, 4, 73, 0
6, 48487, Note_on_c, 4, 75, 79
6, 48487, Note_on_c, 4, 71, 66
6, 48487, Note_on_c, 4, 69, 51
6, 48599, Note_on_c, 4, 69, 0
6, 48599, Note_on_c, 4, 66, 0
6, 48599, Note_on_c, 4, 75, 0
6, 48600, Note_on_c, 4, 71, 0
6, 48663, Note_on_c, 4, 66, 72
6, 48664, Note_on_c, 4, 75, 84
6, 48664, Note_on_c, 4, 71, 66
6, 48664, Note_on_c, 4, 69, 51
6, 48687, Note_on_c, 4, 66, 0
6, 48688, Note_on_c, 4, 75, 0
6, 48688, Note_on_c, 4, 71, 0
6, 48689, Note_on_c, 4, 69, 0
6, 48781, Note_on_c, 4, 71, 66
6, 48781, Note_on_c, 4, 69, 64
6, 48782, Note_on_c, 4, 66, 79
6, 48783, Note_on_c, 4, 75, 77
6, 48865, Note_on_c, 4, 66, 0
6, 48902, Note_on_c, 4, 69, 0
6, 48903, Note_on_c, 4, 66, 14
6, 48905, Note_on_c, 4, 71, 0
6, 48905, Note_on_c, 4, 75, 0
6, 48911, Note_on_c, 4, 66, 0
6, 48963, Note_on_c, 4, 69, 77
6, 48963, Note_on_c, 4, 66, 84
6, 48963, Note_on_c, 4, 75, 89
6, 48964, Note_on_c, 4, 71, 81
6, 49070, Note_on_c, 4, 69, 0
6, 49077, Note_on_c, 4, 66, 0
6, 49079, Note_on_c, 4, 75, 0
6, 49083, Note_on_c, 4, 71, 0
6, 49140, Note_on_c, 4, 68, 74
6, 49140, Note_on_c, 4, 73, 84
6, 49141, Note_on_c, 4, 71, 79
6, 49141, Note_on_c, 4, 65, 66
6, 49196, Note_on_c, 4, 65, 0
6, 49196, Note_on_c, 4, 73, 0
6, 49197, Note_on_c, 4, 68, 0
6, 49198, Note_on_c, 4, 71, 0
6, 49260, Note_on_c, 4, 68, 86
6, 49260, Note_on_c, 4, 65, 66
6, 49261, Note_on_c, 4, 71, 74
6, 49261, Note_on_c, 4, 73, 81
6, 49330, Note_on_c, 4, 65, 0
6, 49383, Note_on_c, 4, 68, 0
6, 49383, Note_on_c, 4, 65, 3
6, 49388, Note_on_c, 4, 65, 0
6, 49388, Note_on_c, 4, 71, 0
6, 49388, Note_on_c, 4, 73, 0
6, 49441, Note_on_c, 4, 69, 125
6, 49441, Note_on_c, 4, 73, 111
6, 49442, Note_on_c, 4, 66, 64
6, 49456, Note_on_c, 4, 69, 0
6, 49457, Note_on_c, 4, 70, 69
6, 49563, Note_on_c, 4, 70, 0
6, 49565, Note_on_c, 4, 66, 0
6, 49567, Note_on_c, 4, 73, 0
6, 49620, Note_on_c, 4, 76, 108
6, 49620, Note_on_c, 4, 73, 77
6, 49621, Note_on_c, 4, 66, 84
6, 49695, Note_on_c, 4, 66, 0
6, 49738, Note_on_c, 4, 66, 26
6, 49745, Note_on_c, 4, 73, 0
6, 49754, Note_on_c, 4, 66, 0
6, 49754, Note_on_c, 4, 76, 0
6, 49803, Note_on_c, 4, 66, 66
6, 49803, Note_on_c, 4, 75, 74
6, 49803, Note_on_c, 4, 71, 69
6, 49827, Note_on_c, 4, 66, 0
6, 49828, Note_on_c, 4, 71, 0
6, 49828, Note_on_c, 4, 75, 0
6, 49863, Note_on_c, 4, 66, 96
6, 49863, Note_on_c, 4, 75, 86
6, 49863, Note_on_c, 4, 71, 84
6, 49926, Note_on_c, 4, 66, 0
6, 49983, Note_on_c, 4, 66, 39
6, 49984, Note_on_c, 4, 71, 0
6, 49985, Note_on_c, 4, 75, 0
6, 49996, Note_on_c, 4, 66, 0
6, 50040, Note_on_c, 4, 73, 111
6, 50040, Note_on_c, 4, 69, 127
6, 50040, Note_on_c, 4, 66, 77
6, 50055, Note_on_c, 4, 69, 0
6, 50056, Note_on_c, 4, 70, 69
6, 50166, Note_on_c, 4, 66, 0
6, 50182, Note_on_c, 4, 70, 0
6, 50187, Note_on_c, 4, 73, 0
6, 50224, Note_on_c, 4, 73, 124
6, 50224, Note_on_c, 4, 70, 114
6, 50225, Note_on_c, 4, 78, 124
6, 50304, Note_on_c, 4, 70, 0
6, 50313, Note_on_c, 4, 73, 0
6, 50336, Note_on_c, 4, 70, 14
6, 50341, Note_on_c, 4, 70, 0
6, 50357, Note_on_c, 4, 78, 0
6, 50397, Note_on_c, 4, 76, 127
6, 50397, Note_on_c, 4, 79, 30
6, 50398, Note_on_c, 4, 73, 64
6, 50398, Note_on_c, 4, 80, 127
6, 50401, Note_on_c, 4, 79, 0
6, 50412, Note_on_c, 4, 77, 77
6, 50413, Note_on_c, 4, 76, 0
6, 50521, Note_on_c, 4, 77, 0
6, 50523, Note_on_c, 4, 73, 0
6, 50525, Note_on_c, 4, 80, 0
6, 50579, Note_on_c, 4, 73, 79
6, 50579, Note_on_c, 4, 80, 81
6, 50580, Note_on_c, 4, 77, 86
6, 50672, Note_on_c, 4, 77, 0
6, 50673, Note_on_c, 4, 73, 0
6, 50677, Note_on_c, 4, 80, 0
6, 50697, Note_on_c, 4, 80, 66
6, 50697, Note_on_c, 4, 77, 81
6, 50699, Note_on_c, 4, 73, 66
6, 50759, Note_on_c, 4, 85, 86
6, 50795, Note_on_c, 4, 73, 0
6, 50811, Note_on_c, 4, 77, 0
6, 50812, Note_on_c, 4, 80, 0
6, 50815, Note_on_c, 4, 73, 39
6, 50828, Note_on_c, 4, 73, 0
6, 50843, Note_on_c, 4, 85, 0
6, 50876, Note_on_c, 4, 81, 127
6, 50876, Note_on_c, 4, 78, 127
6, 50876, Note_on_c, 4, 75, 102
6, 50877, Note_on_c, 4, 85, 127
6, 50936, Note_on_c, 4, 85, 0
6, 50936, Note_on_c, 4, 81, 0
6, 50936, Note_on_c, 4, 78, 0
6, 50936, Note_on_c, 4, 75, 0
6, 51484, Note_on_c, 4, 84, 127
6, 51484, Note_on_c, 4, 78, 77
6, 51487, Note_on_c, 4, 85, 84
6, 51511, Note_on_c, 4, 84, 0
6, 51525, Note_on_c, 4, 85, 0
6, 51526, Note_on_c, 4, 78, 0
6, 51545, Note_on_c, 4, 78, 79
6, 51546, Note_on_c, 4, 81, 127
6, 51580, Note_on_c, 4, 78, 0
6, 51581, Note_on_c, 4, 81, 0
6, 51602, Note_on_c, 4, 83, 124
6, 51603, Note_on_c, 4, 78, 111
6, 51640, Note_on_c, 4, 83, 0
6, 51642, Note_on_c, 4, 78, 0
6, 51664, Note_on_c, 4, 81, 117
6, 51665, Note_on_c, 4, 78, 89
6, 51702, Note_on_c, 4, 78, 0
6, 51703, Note_on_c, 4, 81, 0
6, 51726, Note_on_c, 4, 78, 111
6, 51757, Note_on_c, 4, 78, 0
6, 51790, Note_on_c, 4, 73, 124
6, 51819, Note_on_c, 4, 73, 0
6, 51849, Note_on_c, 4, 76, 117
6, 51851, Note_on_c, 4, 73, 55
6, 51869, Note_on_c, 4, 78, 69
6, 51876, Note_on_c, 4, 76, 0
6, 52046, Note_on_c, 4, 78, 0
6, 52049, Note_on_c, 4, 73, 0
6, 52049, End_track
7, 0, Start_track
7, 0, MIDI_port, 0
7, 0, Title_t, "Clean Electric"
7, 0, Control_c, 5, 0, 56
7, 0, Control_c, 5, 32, 1
7, 0, Program_c, 5, 27
7, 0, Control_c, 5, 7, 70
7, 0, Control_c, 5, 10, 100
7, 0, Control_c, 5, 91, 120
7, 17760, Note_on_c, 5, 46, 48
7, 17760, Note_on_c, 5, 49, 69
7, 17760, Note_on_c, 5, 52, 43
7, 17760, Note_on_c, 5, 54, 26
7, 18120, Note_on_c, 5, 54, 0
7, 18120, Note_on_c, 5, 46, 0
7, 18120, Note_on_c, 5, 49, 0
7, 18150, Note_on_c, 5, 52, 0
7, 18240, Note_on_c, 5, 54, 69
7, 18240, Note_on_c, 5, 51, 55
7, 18240, Note_on_c, 5, 47, 55
7, 18360, Note_on_c, 5, 47, 0
7, 18360, Note_on_c, 5, 51, 0
7, 18360, Note_on_c, 5, 54, 0
7, 18420, Note_on_c, 5, 53, 51
7, 18420, Note_on_c, 5, 56, 51
7, 18420, Note_on_c, 5, 47, 61
7, 18420, Note_on_c, 5, 49, 51
7, 18630, Note_on_c, 5, 49, 0
7, 18630, Note_on_c, 5, 53, 0
7, 18630, Note_on_c, 5, 56, 0
7, 18630, Note_on_c, 5, 47, 0
7, 18720, Note_on_c, 5, 52, 51
7, 18720, Note_on_c, 5, 49, 72
7, 18720, Note_on_c, 5, 54, 58
7, 18720, Note_on_c, 5, 46, 58
7, 19530, Note_on_c, 5, 46, 0
7, 19530, Note_on_c, 5, 52, 0
7, 19530, Note_on_c, 5, 49, 0
7, 19560, Note_on_c, 5, 54, 0
7, 19680, Note_on_c, 5, 51, 55
7, 19680, Note_on_c, 5, 54, 58
7, 19680, Note_on_c, 5, 47, 55
7, 20070, Note_on_c, 5, 47, 0
7, 20070, Note_on_c, 5, 54, 0
7, 20070, Note_on_c, 5, 51, 0
7, 20160, Note_on_c, 5, 51, 51
7, 20160, Note_on_c, 5, 54, 48
7, 20160, Note_on_c, 5, 47, 43
7, 20280, Note_on_c, 5, 47, 0
7, 20280, Note_on_c, 5, 54, 0
7, 20280, Note_on_c, 5, 51, 0
7, 20340, Note_on_c, 5, 53, 61
7, 20340, Note_on_c, 5, 56, 51
7, 20340, Note_on_c, 5, 49, 72
7, 20340, Note_on_c, 5, 47, 43
7, 20550, Note_on_c, 5, 47, 0
7, 20550, Note_on_c, 5, 53, 0
7, 20550, Note_on_c, 5, 56, 0
7, 20550, Note_on_c, 5, 49, 0
7, 20640, Note_on_c, 5, 52, 39
7, 20640, Note_on_c, 5, 54, 51
7, 20640, Note_on_c, 5, 49, 51
7, 20640, Note_on_c, 5, 46, 43
7, 21360, Note_on_c, 5, 46, 0
7, 21360, Note_on_c, 5, 52, 0
7, 21360, Note_on_c, 5, 54, 0
7, 21360, Note_on_c, 5, 49, 0
7, 21600, Note_on_c, 5, 56, 51
7, 21600, Note_on_c, 5, 47, 35
7, 21600, Note_on_c, 5, 49, 43
7, 21600, Note_on_c, 5, 53, 14
7, 21960, Note_on_c, 5, 53, 0
7, 21960, Note_on_c, 5, 56, 0
7, 21960, Note_on_c, 5, 47, 0
7, 21960, Note_on_c, 5, 49, 0
7, 22080, Note_on_c, 5, 51, 48
7, 22080, Note_on_c, 5, 57, 39
7, 22080, Note_on_c, 5, 47, 48
7, 22080, Note_on_c, 5, 54, 35
7, 22440, Note_on_c, 5, 54, 0
7, 22440, Note_on_c, 5, 51, 0
7, 22440, Note_on_c, 5, 57, 0
7, 22440, Note_on_c, 5, 47, 0
7, 22560, Note_on_c, 5, 49, 69
7, 22560, Note_on_c, 5, 46, 55
7, 22560, Note_on_c, 5, 54, 58
7, 22560, Note_on_c, 5, 52, 48
7, 23040, Note_on_c, 5, 46, 0
7, 23070, Note_on_c, 5, 49, 0
7, 23070, Note_on_c, 5, 54, 0
7, 23070, Note_on_c, 5, 52, 0
7, 29280, Note_on_c, 5, 46, 35
7, 29280, Note_on_c, 5, 49, 55
7, 29280, Note_on_c, 5, 52, 39
7, 29280, Note_on_c, 5, 54, 51
7, 29640, Note_on_c, 5, 54, 0
7, 29640, Note_on_c, 5, 46, 0
7, 29640, Note_on_c, 5, 49, 0
7, 29640, Note_on_c, 5, 52, 0
7, 29760, Note_on_c, 5, 54, 51
7, 29760, Note_on_c, 5, 51, 64
7, 29760, Note_on_c, 5, 47, 55
7, 29880, Note_on_c, 5, 47, 0
7, 29880, Note_on_c, 5, 51, 0
7, 29880, Note_on_c, 5, 54, 0
7, 29940, Note_on_c, 5, 53, 43
7, 29940, Note_on_c, 5, 49, 58
7, 29940, Note_on_c, 5, 47, 48
7, 29940, Note_on_c, 5, 56, 48
7, 30150, Note_on_c, 5, 56, 0
7, 30150, Note_on_c, 5, 53, 0
7, 30150, Note_on_c, 5, 49, 0
7, 30150, Note_on_c, 5, 47, 0
7, 30240, Note_on_c, 5, 52, 39
7, 30240, Note_on_c, 5, 54, 43
7, 30240, Note_on_c, 5, 46, 43
7, 30240, Note_on_c, 5, 49, 51
7, 30600, Note_on_c, 5, 49, 0
7, 30600, Note_on_c, 5, 52, 0
7, 30600, Note_on_c, 5, 54, 0
7, 30600, Note_on_c, 5, 46, 0
7, 31200, Note_on_c, 5, 54, 58
7, 31200, Note_on_c, 5, 51, 61
7, 31200, Note_on_c, 5, 47, 51
7, 31200, Note_on_c, 5, 57, 58
7, 31560, Note_on_c, 5, 57, 0
7, 31560, Note_on_c, 5, 54, 0
7, 31560, Note_on_c, 5, 51, 0
7, 31560, Note_on_c, 5, 47, 0
7, 31680, Note_on_c, 5, 57, 69
7, 31680, Note_on_c, 5, 54, 77
7, 31680, Note_on_c, 5, 51, 58
7, 31680, Note_on_c, 5, 47, 66
7, 31800, Note_on_c, 5, 47, 0
7, 31800, Note_on_c, 5, 57, 0
7, 31800, Note_on_c, 5, 54, 0
7, 31800, Note_on_c, 5, 51, 0
7, 31860, Note_on_c, 5, 49, 69
7, 31860, Note_on_c, 5, 53, 69
7, 31860, Note_on_c, 5, 47, 55
7, 31860, Note_on_c, 5, 56, 39
7, 32070, Note_on_c, 5, 56, 0
7, 32070, Note_on_c, 5, 49, 0
7, 32070, Note_on_c, 5, 53, 0
7, 32070, Note_on_c, 5, 47, 0
7, 32160, Note_on_c, 5, 52, 35
7, 32160, Note_on_c, 5, 54, 55
7, 32160, Note_on_c, 5, 49, 51
7, 32160, Note_on_c, 5, 46, 48
7, 32730, Note_on_c, 5, 46, 0
7, 32730, Note_on_c, 5, 52, 0
7, 32730, Note_on_c, 5, 54, 0
7, 32730, Note_on_c, 5, 49, 0
7, 33120, Note_on_c, 5, 53, 55
7, 33120, Note_on_c, 5, 49, 61
7, 33120, Note_on_c, 5, 56, 48
7, 33120, Note_on_c, 5, 47, 48
7, 33450, Note_on_c, 5, 49, 0
7, 33480, Note_on_c, 5, 53, 0
7, 33480, Note_on_c, 5, 56, 0
7, 33480, Note_on_c, 5, 47, 0
7, 33600, Note_on_c, 5, 54, 61
7, 33600, Note_on_c, 5, 51, 61
7, 33600, Note_on_c, 5, 47, 51
7, 33600, Note_on_c, 5, 57, 51
7, 33960, Note_on_c, 5, 57, 0
7, 33990, Note_on_c, 5, 54, 0
7, 33990, Note_on_c, 5, 51, 0
7, 33990, Note_on_c, 5, 47, 0
7, 34080, Note_on_c, 5, 52, 39
7, 34080, Note_on_c, 5, 46, 48
7, 34080, Note_on_c, 5, 54, 35
7, 34080, Note_on_c, 5, 49, 48
7, 34590, Note_on_c, 5, 46, 0
7, 34620, Note_on_c, 5, 52, 0
7, 34620, Note_on_c, 5, 54, 0
7, 34620, Note_on_c, 5, 49, 0
7, 40800, Note_on_c, 5, 54, 64
7, 40800, Note_on_c, 5, 52, 39
7, 40800, Note_on_c, 5, 46, 48
7, 40800, Note_on_c, 5, 49, 51
7, 41160, Note_on_c, 5, 49, 0
7, 41160, Note_on_c, 5, 54, 0
7, 41160, Note_on_c, 5, 52, 0
7, 41160, Note_on_c, 5, 46, 0
7, 41280, Note_on_c, 5, 54, 61
7, 41280, Note_on_c, 5, 47, 61
7, 41280, Note_on_c, 5, 51, 58
7, 41400, Note_on_c, 5, 51, 0
7, 41400, Note_on_c, 5, 47, 0
7, 41400, Note_on_c, 5, 54, 0
7, 41460, Note_on_c, 5, 53, 61
7, 41460, Note_on_c, 5, 49, 69
7, 41460, Note_on_c, 5, 56, 64
7, 41460, Note_on_c, 5, 47, 74
7, 41670, Note_on_c, 5, 47, 0
7, 41670, Note_on_c, 5, 53, 0
7, 41670, Note_on_c, 5, 49, 0
7, 41670, Note_on_c, 5, 56, 0
7, 41760, Note_on_c, 5, 49, 69
7, 41760, Note_on_c, 5, 52, 61
7, 41760, Note_on_c, 5, 46, 55
7, 41760, Note_on_c, 5, 54, 48
7, 42240, Note_on_c, 5, 54, 0
7, 42240, Note_on_c, 5, 49, 0
7, 42240, Note_on_c, 5, 52, 0
7, 42240, Note_on_c, 5, 46, 0
7, 42720, Note_on_c, 5, 54, 39
7, 42720, Note_on_c, 5, 47, 43
7, 42720, Note_on_c, 5, 51, 55
7, 43080, Note_on_c, 5, 51, 0
7, 43080, Note_on_c, 5, 47, 0
7, 43080, Note_on_c, 5, 54, 0
7, 43200, Note_on_c, 5, 54, 58
7, 43200, Note_on_c, 5, 51, 58
7, 43200, Note_on_c, 5, 47, 43
7, 43320, Note_on_c, 5, 47, 0
7, 43320, Note_on_c, 5, 51, 0
7, 43320, Note_on_c, 5, 54, 0
7, 43380, Note_on_c, 5, 53, 48
7, 43380, Note_on_c, 5, 56, 35
7, 43380, Note_on_c, 5, 49, 58
7, 43380, Note_on_c, 5, 47, 55
7, 43590, Note_on_c, 5, 47, 0
7, 43590, Note_on_c, 5, 53, 0
7, 43590, Note_on_c, 5, 56, 0
7, 43590, Note_on_c, 5, 49, 0
7, 43680, Note_on_c, 5, 52, 35
7, 43680, Note_on_c, 5, 46, 51
7, 43680, Note_on_c, 5, 49, 48
7, 43680, Note_on_c, 5, 54, 55
7, 44250, Note_on_c, 5, 54, 0
7, 44250, Note_on_c, 5, 52, 0
7, 44250, Note_on_c, 5, 46, 0
7, 44250, Note_on_c, 5, 49, 0
7, 44640, Note_on_c, 5, 53, 48
7, 44640, Note_on_c, 5, 56, 58
7, 44640, Note_on_c, 5, 49, 58
7, 44640, Note_on_c, 5, 47, 51
7, 45000, Note_on_c, 5, 47, 0
7, 45000, Note_on_c, 5, 53, 0
7, 45000, Note_on_c, 5, 56, 0
7, 45000, Note_on_c, 5, 49, 0
7, 45120, Note_on_c, 5, 54, 58
7, 45120, Note_on_c, 5, 51, 64
7, 45120, Note_on_c, 5, 57, 48
7, 45120, Note_on_c, 5, 47, 55
7, 45510, Note_on_c, 5, 47, 0
7, 45510, Note_on_c, 5, 54, 0
7, 45510, Note_on_c, 5, 51, 0
7, 45510, Note_on_c, 5, 57, 0
7, 45600, Note_on_c, 5, 52, 18
7, 45600, Note_on_c, 5, 46, 26
7, 45600, Note_on_c, 5, 54, 43
7, 45600, Note_on_c, 5, 49, 55
7, 46080, Note_on_c, 5, 49, 0
7, 46080, Note_on_c, 5, 52, 0
7, 46080, Note_on_c, 5, 46, 0
7, 46080, Note_on_c, 5, 54, 0
7, 46560, Note_on_c, 5, 52, 43
7, 46560, Note_on_c, 5, 46, 64
7, 46560, Note_on_c, 5, 54, 64
7, 46560, Note_on_c, 5, 49, 64
7, 46920, Note_on_c, 5, 49, 0
7, 46920, Note_on_c, 5, 52, 0
7, 46920, Note_on_c, 5, 46, 0
7, 46920, Note_on_c, 5, 54, 0
7, 47040, Note_on_c, 5, 54, 61
7, 47040, Note_on_c, 5, 47, 58
7, 47040, Note_on_c, 5, 51, 58
7, 47040, Note_on_c, 5, 57, 39
7, 47160, Note_on_c, 5, 57, 0
7, 47160, Note_on_c, 5, 54, 0
7, 47160, Note_on_c, 5, 47, 0
7, 47160, Note_on_c, 5, 51, 0
7, 47220, Note_on_c, 5, 53, 58
7, 47220, Note_on_c, 5, 49, 69
7, 47220, Note_on_c, 5, 56, 58
7, 47220, Note_on_c, 5, 47, 48
7, 47430, Note_on_c, 5, 47, 0
7, 47430, Note_on_c, 5, 53, 0
7, 47430, Note_on_c, 5, 49, 0
7, 47430, Note_on_c, 5, 56, 0
7, 47520, Note_on_c, 5, 52, 39
7, 47520, Note_on_c, 5, 46, 55
7, 47520, Note_on_c, 5, 54, 58
7, 47520, Note_on_c, 5, 49, 61
7, 47910, Note_on_c, 5, 49, 0
7, 47910, Note_on_c, 5, 52, 0
7, 47910, Note_on_c, 5, 46, 0
7, 47910, Note_on_c, 5, 54, 0
7, 48480, Note_on_c, 5, 54, 61
7, 48480, Note_on_c, 5, 51, 55
7, 48480, Note_on_c, 5, 47, 39
7, 48480, Note_on_c, 5, 57, 66
7, 48840, Note_on_c, 5, 57, 0
7, 48840, Note_on_c, 5, 47, 0
7, 48840, Note_on_c, 5, 51, 0
7, 48870, Note_on_c, 5, 54, 0
7, 48960, Note_on_c, 5, 54, 58
7, 48960, Note_on_c, 5, 51, 58
7, 48960, Note_on_c, 5, 47, 51
7, 48960, Note_on_c, 5, 57, 39
7, 49050, Note_on_c, 5, 57, 0
7, 49050, Note_on_c, 5, 54, 0
7, 49050, Note_on_c, 5, 51, 0
7, 49080, Note_on_c, 5, 47, 0
7, 49140, Note_on_c, 5, 53, 39
7, 49140, Note_on_c, 5, 49, 61
7, 49140, Note_on_c, 5, 56, 64
7, 49140, Note_on_c, 5, 47, 58
7, 49350, Note_on_c, 5, 47, 0
7, 49350, Note_on_c, 5, 53, 0
7, 49350, Note_on_c, 5, 49, 0
7, 49350, Note_on_c, 5, 56, 0
7, 49440, Note_on_c, 5, 52, 35
7, 49440, Note_on_c, 5, 49, 55
7, 49440, Note_on_c, 5, 54, 55
7, 49440, Note_on_c, 5, 46, 58
7, 49740, Note_on_c, 5, 46, 0
7, 49740, Note_on_c, 5, 52, 0
7, 49740, Note_on_c, 5, 49, 0
7, 49740, Note_on_c, 5, 54, 0
7, 50400, Note_on_c, 5, 49, 61
7, 50400, Note_on_c, 5, 56, 43
7, 50400, Note_on_c, 5, 53, 58
7, 50760, Note_on_c, 5, 53, 0
7, 50760, Note_on_c, 5, 56, 0
7, 50760, Note_on_c, 5, 49, 0
7, 50880, Note_on_c, 5, 57, 58
7, 50880, Note_on_c, 5, 54, 74
7, 50880, Note_on_c, 5, 47, 51
7, 50880, Note_on_c, 5, 51, 58
7, 50940, Note_on_c, 5, 51, 0
7, 50940, Note_on_c, 5, 57, 0
7, 50940, Note_on_c, 5, 54, 0
7, 50940, Note_on_c, 5, 47, 0
7, 51429, Pitch_bend_c, 5, 7808
7, 51431, Pitch_bend_c, 5, 7680
7, 51435, Pitch_bend_c, 5, 7296
7, 51437, Pitch_bend_c, 5, 7168
7, 51441, Pitch_bend_c, 5, 6912
7, 51443, Pitch_bend_c, 5, 6784
7, 51447, Pitch_bend_c, 5, 6400
7, 51449, Pitch_bend_c, 5, 6272
7, 51450, Pitch_bend_c, 5, 6016
7, 51452, Pitch_bend_c, 5, 5760
7, 51454, Pitch_bend_c, 5, 5504
7, 51456, Pitch_bend_c, 5, 5248
7, 51458, Pitch_bend_c, 5, 4992
7, 51460, Pitch_bend_c, 5, 4608
7, 51461, Pitch_bend_c, 5, 4352
7, 51463, Pitch_bend_c, 5, 4096
7, 51465, Pitch_bend_c, 5, 3840
7, 51466, Pitch_bend_c, 5, 3584
7, 51469, Pitch_bend_c, 5, 3456
7, 51471, Pitch_bend_c, 5, 3328
7, 51475, Pitch_bend_c, 5, 2944
7, 51477, Pitch_bend_c, 5, 2816
7, 51480, Note_on_c, 5, 61, 79
7, 51484, Pitch_bend_c, 5, 2688
7, 51493, Pitch_bend_c, 5, 3456
7, 51495, Pitch_bend_c, 5, 3840
7, 51497, Pitch_bend_c, 5, 4224
7, 51499, Pitch_bend_c, 5, 4480
7, 51500, Pitch_bend_c, 5, 4864
7, 51502, Pitch_bend_c, 5, 5376
7, 51504, Pitch_bend_c, 5, 5760
7, 51506, Pitch_bend_c, 5, 6144
7, 51508, Pitch_bend_c, 5, 6528
7, 51509, Note_on_c, 5, 61, 0
7, 51510, Pitch_bend_c, 5, 7040
7, 51512, Pitch_bend_c, 5, 7424
7, 51514, Pitch_bend_c, 5, 7680
7, 51516, Pitch_bend_c, 5, 8064
7, 51517, Pitch_bend_c, 5, 8192
7, 51540, Note_on_c, 5, 57, 111
7, 51569, Note_on_c, 5, 57, 0
7, 51600, Note_on_c, 5, 59, 69
7, 51629, Note_on_c, 5, 59, 0
7, 51660, Note_on_c, 5, 57, 72
7, 51689, Note_on_c, 5, 57, 0
7, 51720, Note_on_c, 5, 54, 84
7, 51749, Note_on_c, 5, 54, 0
7, 51780, Note_on_c, 5, 49, 74
7, 51780, Note_on_c, 5, 47, 77
7, 51809, Note_on_c, 5, 47, 0
7, 51809, Note_on_c, 5, 49, 0
7, 51840, Note_on_c, 5, 52, 96
7, 51864, Pitch_bend_c, 5, 8832
7, 51866, Pitch_bend_c, 5, 9600
7, 51868, Pitch_bend_c, 5, 10368
7, 51869, Pitch_bend_c, 5, 11264
7, 51872, Pitch_bend_c, 5, 12160
7, 51874, Pitch_bend_c, 5, 13056
7, 51876, Pitch_bend_c, 5, 14208
7, 51878, Pitch_bend_c, 5, 15360
7, 51879, Pitch_bend_c, 5, 16256
7, 51990, Note_on_c, 5, 52, 0
7, 52039, Pitch_bend_c, 5, 16000
7, 52040, Pitch_bend_c, 5, 15232
7, 52043, Pitch_bend_c, 5, 14336
7, 52044, Pitch_bend_c, 5, 13440
7, 52046, Pitch_bend_c, 5, 12416
7, 52048, Pitch_bend_c, 5, 11520
7, 52050, Pitch_bend_c, 5, 10368
7, 52052, Pitch_bend_c, 5, 9216
7, 52054, Pitch_bend_c, 5, 8192
7, 52054, End_track
8, 0, Start_track
8, 0, MIDI_port, 0
8, 0, Title_t, "Clean Electric"
8, 0, Control_c, 6, 0, 56
8, 0, Control_c, 6, 32, 1
8, 0, Program_c, 6, 27
8, 0, Control_c, 6, 7, 80
8, 0, Control_c, 6, 10, 30
8, 0, Control_c, 6, 91, 120
8, 17761, Note_on_c, 6, 58, 35
8, 17764, Note_on_c, 6, 61, 39
8, 17764, Note_on_c, 6, 54, 26
8, 18155, Note_on_c, 6, 54, 0
8, 18167, Note_on_c, 6, 58, 0
8, 18171, Note_on_c, 6, 61, 0
8, 18237, Note_on_c, 6, 59, 35
8, 18238, Note_on_c, 6, 63, 35
8, 18238, Note_on_c, 6, 54, 26
8, 18367, Note_on_c, 6, 63, 0
8, 18369, Note_on_c, 6, 54, 0
8, 18373, Note_on_c, 6, 59, 0
8, 18426, Note_on_c, 6, 61, 39
8, 18428, Note_on_c, 6, 56, 30
8, 18429, Note_on_c, 6, 54, 48
8, 18620, Note_on_c, 6, 56, 0
8, 18648, Note_on_c, 6, 61, 0
8, 18650, Note_on_c, 6, 54, 0
8, 18721, Note_on_c, 6, 61, 43
8, 18722, Note_on_c, 6, 58, 39
8, 18723, Note_on_c, 6, 54, 26
8, 18962, Note_on_c, 6, 54, 0
8, 19022, Note_on_c, 6, 54, 39
8, 19083, Note_on_c, 6, 58, 0
8, 19107, Note_on_c, 6, 61, 0
8, 19142, Note_on_c, 6, 61, 58
8, 19383, Note_on_c, 6, 66, 51
8, 19475, Note_on_c, 6, 54, 0
8, 19501, Note_on_c, 6, 54, 14
8, 19570, Note_on_c, 6, 66, 0
8, 19584, Note_on_c, 6, 54, 0
8, 19622, Note_on_c, 6, 54, 61
8, 19630, Note_on_c, 6, 61, 0
8, 19679, Note_on_c, 6, 59, 35
8, 19681, Note_on_c, 6, 63, 64
8, 19683, Note_on_c, 6, 57, 30
8, 20063, Note_on_c, 6, 57, 0
8, 20068, Note_on_c, 6, 54, 0
8, 20070, Note_on_c, 6, 63, 0
8, 20070, Note_on_c, 6, 59, 0
8, 20158, Note_on_c, 6, 54, 48
8, 20159, Note_on_c, 6, 63, 43
8, 20159, Note_on_c, 6, 57, 58
8, 20160, Note_on_c, 6, 59, 51
8, 20269, Note_on_c, 6, 57, 0
8, 20274, Note_on_c, 6, 63, 0
8, 20275, Note_on_c, 6, 54, 0
8, 20275, Note_on_c, 6, 59, 0
8, 20340, Note_on_c, 6, 59, 39
8, 20341, Note_on_c, 6, 56, 48
8, 20341, Note_on_c, 6, 61, 43
8, 20343, Note_on_c, 6, 53, 14
8, 20542, Note_on_c, 6, 56, 0
8, 20543, Note_on_c, 6, 53, 0
8, 20551, Note_on_c, 6, 59, 0
8, 20555, Note_on_c, 6, 61, 0
8, 20636, Note_on_c, 6, 61, 39
8, 20636, Note_on_c, 6, 54, 26
8, 20636, Note_on_c, 6, 58, 48
8, 20844, Note_on_c, 6, 54, 0
8, 20946, Note_on_c, 6, 54, 79
8, 21023, Note_on_c, 6, 61, 0
8, 21064, Note_on_c, 6, 61, 66
8, 21304, Note_on_c, 6, 66, 55
8, 21372, Note_on_c, 6, 54, 0
8, 21426, Note_on_c, 6, 54, 51
8, 21466, Note_on_c, 6, 66, 0
8, 21526, Note_on_c, 6, 54, 0
8, 21554, Note_on_c, 6, 61, 0
8, 21559, Note_on_c, 6, 58, 0
8, 21604, Note_on_c, 6, 56, 55
8, 21605, Note_on_c, 6, 59, 66
8, 21606, Note_on_c, 6, 61, 69
8, 21606, Note_on_c, 6, 53, 43
8, 21965, Note_on_c, 6, 53, 0
8, 21976, Note_on_c, 6, 56, 0
8, 21977, Note_on_c, 6, 61, 0
8, 22005, Note_on_c, 6, 59, 0
8, 22020, Note_on_c, 6, 54, 51
8, 22080, Note_on_c, 6, 59, 22
8, 22084, Note_on_c, 6, 63, 48
8, 22084, Note_on_c, 6, 57, 22
8, 22158, Note_on_c, 6, 57, 0
8, 22202, Note_on_c, 6, 59, 0
8, 22203, Note_on_c, 6, 57, 66
8, 22208, Note_on_c, 6, 63, 0
8, 22260, Note_on_c, 6, 66, 58
8, 22338, Note_on_c, 6, 57, 0
8, 22381, Note_on_c, 6, 57, 55
8, 22400, Note_on_c, 6, 54, 0
8, 22449, Note_on_c, 6, 54, 51
8, 22496, Note_on_c, 6, 57, 0
8, 22521, Note_on_c, 6, 66, 0
8, 22564, Note_on_c, 6, 58, 35
8, 22565, Note_on_c, 6, 61, 43
8, 23147, Note_on_c, 6, 54, 0
8, 23152, Note_on_c, 6, 61, 0
8, 23152, Note_on_c, 6, 58, 0
8, 29291, Note_on_c, 6, 61, 58
8, 29291, Note_on_c, 6, 58, 64
8, 29292, Note_on_c, 6, 54, 30
8, 29688, Note_on_c, 6, 61, 0
8, 29692, Note_on_c, 6, 54, 0
8, 29698, Note_on_c, 6, 58, 0
8, 29759, Note_on_c, 6, 59, 35
8, 29759, Note_on_c, 6, 54, 35
8, 29760, Note_on_c, 6, 63, 51
8, 29888, Note_on_c, 6, 54, 0
8, 29898, Note_on_c, 6, 63, 0
8, 29907, Note_on_c, 6, 59, 0
8, 29944, Note_on_c, 6, 53, 48
8, 29944, Note_on_c, 6, 56, 51
8, 29946, Note_on_c, 6, 59, 48
8, 29946, Note_on_c, 6, 61, 58
8, 30153, Note_on_c, 6, 56, 0
8, 30156, Note_on_c, 6, 53, 0
8, 30162, Note_on_c, 6, 61, 0
8, 30166, Note_on_c, 6, 59, 0
8, 30244, Note_on_c, 6, 54, 18
8, 30244, Note_on_c, 6, 61, 35
8, 30246, Note_on_c, 6, 58, 35
8, 30472, Note_on_c, 6, 58, 0
8, 30478, Note_on_c, 6, 61, 0
8, 30486, Note_on_c, 6, 54, 0
8, 30539, Note_on_c, 6, 57, 51
8, 30550, Note_on_c, 6, 57, 0
8, 30552, Note_on_c, 6, 58, 64
8, 30600, Note_on_c, 6, 54, 58
8, 30663, Note_on_c, 6, 66, 89
8, 30828, Note_on_c, 6, 54, 0
8, 30844, Note_on_c, 6, 54, 58
8, 30900, Note_on_c, 6, 61, 48
8, 31022, Note_on_c, 6, 64, 48
8, 31064, Note_on_c, 6, 66, 0
8, 31090, Note_on_c, 6, 54, 0
8, 31139, Note_on_c, 6, 64, 0
8, 31139, Note_on_c, 6, 54, 58
8, 31144, Note_on_c, 6, 61, 0
8, 31144, Note_on_c, 6, 58, 0
8, 31199, Note_on_c, 6, 59, 61
8, 31200, Note_on_c, 6, 63, 66
8, 31202, Note_on_c, 6, 57, 64
8, 31625, Note_on_c, 6, 54, 0
8, 31630, Note_on_c, 6, 57, 0
8, 31631, Note_on_c, 6, 63, 0
8, 31631, Note_on_c, 6, 59, 0
8, 31680, Note_on_c, 6, 57, 51
8, 31680, Note_on_c, 6, 54, 51
8, 31681, Note_on_c, 6, 63, 43
8, 31681, Note_on_c, 6, 59, 64
8, 31801, Note_on_c, 6, 57, 0
8, 31805, Note_on_c, 6, 54, 0
8, 31812, Note_on_c, 6, 63, 0
8, 31816, Note_on_c, 6, 59, 0
8, 31860, Note_on_c, 6, 56, 51
8, 31860, Note_on_c, 6, 53, 43
8, 31861, Note_on_c, 6, 59, 48
8, 31862, Note_on_c, 6, 61, 51
8, 32076, Note_on_c, 6, 56, 0
8, 32080, Note_on_c, 6, 53, 0
8, 32086, Note_on_c, 6, 59, 0
8, 32086, Note_on_c, 6, 61, 0
8, 32163, Note_on_c, 6, 61, 55
8, 32163, Note_on_c, 6, 54, 51
8, 32164, Note_on_c, 6, 58, 58
8, 32411, Note_on_c, 6, 58, 0
8, 32456, Note_on_c, 6, 57, 39
8, 32468, Note_on_c, 6, 57, 0
8, 32472, Note_on_c, 6, 58, 61
8, 32493, Note_on_c, 6, 54, 0
8, 32521, Note_on_c, 6, 54, 58
8, 32581, Note_on_c, 6, 66, 66
8, 32664, Note_on_c, 6, 54, 0
8, 32697, Note_on_c, 6, 54, 48
8, 32773, Note_on_c, 6, 58, 0
8, 32782, Note_on_c, 6, 61, 0
8, 32823, Note_on_c, 6, 61, 51
8, 32824, Note_on_c, 6, 58, 55
8, 32901, Note_on_c, 6, 54, 0
8, 32941, Note_on_c, 6, 54, 35
8, 32999, Note_on_c, 6, 66, 0
8, 33033, Note_on_c, 6, 54, 0
8, 33044, Note_on_c, 6, 61, 0
8, 33045, Note_on_c, 6, 58, 0
8, 33119, Note_on_c, 6, 56, 51
8, 33119, Note_on_c, 6, 53, 43
8, 33120, Note_on_c, 6, 59, 55
8, 33121, Note_on_c, 6, 61, 64
8, 33491, Note_on_c, 6, 53, 0
8, 33507, Note_on_c, 6, 56, 0
8, 33530, Note_on_c, 6, 61, 0
8, 33539, Note_on_c, 6, 59, 0
8, 33539, Note_on_c, 6, 54, 35
8, 33602, Note_on_c, 6, 59, 55
8, 33603, Note_on_c, 6, 63, 58
8, 33604, Note_on_c, 6, 57, 58
8, 33864, Note_on_c, 6, 57, 0
8, 33869, Note_on_c, 6, 54, 0
8, 33872, Note_on_c, 6, 63, 0
8, 33878, Note_on_c, 6, 59, 0
8, 33897, Note_on_c, 6, 59, 35
8, 33899, Note_on_c, 6, 63, 58
8, 33900, Note_on_c, 6, 54, 58
8, 33903, Note_on_c, 6, 57, 48
8, 33979, Note_on_c, 6, 54, 0
8, 34017, Note_on_c, 6, 54, 43
8, 34021, Note_on_c, 6, 59, 0
8, 34027, Note_on_c, 6, 57, 0
8, 34036, Note_on_c, 6, 63, 0
8, 34071, Note_on_c, 6, 57, 39
8, 34074, Note_on_c, 6, 61, 51
8, 34087, Note_on_c, 6, 58, 66
8, 34089, Note_on_c, 6, 57, 0
8, 34334, Note_on_c, 6, 58, 0
8, 34377, Note_on_c, 6, 57, 48
8, 34390, Note_on_c, 6, 57, 0
8, 34398, Note_on_c, 6, 58, 14
8, 34410, Note_on_c, 6, 54, 0
8, 34442, Note_on_c, 6, 54, 64
8, 34502, Note_on_c, 6, 66, 64
8, 34592, Note_on_c, 6, 54, 0
8, 34617, Note_on_c, 6, 54, 48
8, 34700, Note_on_c, 6, 61, 0
8, 34737, Note_on_c, 6, 61, 51
8, 34831, Note_on_c, 6, 58, 0
8, 34833, Note_on_c, 6, 54, 0
8, 34833, Note_on_c, 6, 61, 0
8, 34835, Note_on_c, 6, 66, 0
8, 40801, Note_on_c, 6, 57, 48
8, 40803, Note_on_c, 6, 61, 48
8, 40806, Note_on_c, 6, 54, 35
8, 40809, Note_on_c, 6, 57, 0
8, 40811, Note_on_c, 6, 58, 64
8, 41211, Note_on_c, 6, 54, 0
8, 41215, Note_on_c, 6, 61, 0
8, 41216, Note_on_c, 6, 58, 0
8, 41278, Note_on_c, 6, 63, 51
8, 41278, Note_on_c, 6, 59, 51
8, 41279, Note_on_c, 6, 54, 35
8, 41404, Note_on_c, 6, 54, 0
8, 41407, Note_on_c, 6, 63, 0
8, 41413, Note_on_c, 6, 59, 0
8, 41460, Note_on_c, 6, 61, 58
8, 41460, Note_on_c, 6, 53, 51
8, 41460, Note_on_c, 6, 59, 51
8, 41461, Note_on_c, 6, 56, 51
8, 41677, Note_on_c, 6, 56, 0
8, 41679, Note_on_c, 6, 53, 0
8, 41687, Note_on_c, 6, 59, 0
8, 41689, Note_on_c, 6, 61, 0
8, 41758, Note_on_c, 6, 57, 39
8, 41759, Note_on_c, 6, 61, 35
8, 41766, Note_on_c, 6, 57, 0
8, 41766, Note_on_c, 6, 54, 18
8, 41769, Note_on_c, 6, 58, 64
8, 41999, Note_on_c, 6, 58, 0
8, 42052, Note_on_c, 6, 57, 51
8, 42061, Note_on_c, 6, 57, 0
8, 42063, Note_on_c, 6, 58, 77
8, 42093, Note_on_c, 6, 54, 0
8, 42121, Note_on_c, 6, 54, 64
8, 42177, Note_on_c, 6, 66, 79
8, 42260, Note_on_c, 6, 54, 0
8, 42294, Note_on_c, 6, 54, 58
8, 42379, Note_on_c, 6, 61, 0
8, 42419, Note_on_c, 6, 61, 64
8, 42502, Note_on_c, 6, 54, 0
8, 42540, Note_on_c, 6, 54, 26
8, 42612, Note_on_c, 6, 66, 0
8, 42618, Note_on_c, 6, 54, 0
8, 42658, Note_on_c, 6, 54, 58
8, 42661, Note_on_c, 6, 61, 0
8, 42662, Note_on_c, 6, 58, 0
8, 42716, Note_on_c, 6, 59, 58
8, 42717, Note_on_c, 6, 57, 72
8, 42719, Note_on_c, 6, 63, 66
8, 43099, Note_on_c, 6, 54, 0
8, 43117, Note_on_c, 6, 63, 0
8, 43119, Note_on_c, 6, 57, 0
8, 43120, Note_on_c, 6, 59, 0
8, 43197, Note_on_c, 6, 59, 30
8, 43198, Note_on_c, 6, 54, 51
8, 43198, Note_on_c, 6, 63, 58
8, 43199, Note_on_c, 6, 57, 39
8, 43308, Note_on_c, 6, 57, 0
8, 43316, Note_on_c, 6, 54, 0
8, 43321, Note_on_c, 6, 63, 0
8, 43330, Note_on_c, 6, 59, 0
8, 43377, Note_on_c, 6, 59, 39
8, 43378, Note_on_c, 6, 56, 55
8, 43378, Note_on_c, 6, 53, 43
8, 43379, Note_on_c, 6, 61, 51
8, 43598, Note_on_c, 6, 56, 0
8, 43599, Note_on_c, 6, 53, 0
8, 43604, Note_on_c, 6, 59, 0
8, 43605, Note_on_c, 6, 61, 0
8, 43674, Note_on_c, 6, 57, 51
8, 43677, Note_on_c, 6, 61, 39
8, 43679, Note_on_c, 6, 54, 43
8, 43687, Note_on_c, 6, 58, 69
8, 43688, Note_on_c, 6, 57, 0
8, 43925, Note_on_c, 6, 58, 0
8, 43978, Note_on_c, 6, 57, 55
8, 43987, Note_on_c, 6, 57, 0
8, 43988, Note_on_c, 6, 58, 72
8, 44020, Note_on_c, 6, 54, 0
8, 44042, Note_on_c, 6, 54, 58
8, 44099, Note_on_c, 6, 66, 72
8, 44191, Note_on_c, 6, 54, 0
8, 44219, Note_on_c, 6, 54, 64
8, 44298, Note_on_c, 6, 61, 0
8, 44340, Note_on_c, 6, 61, 51
8, 44426, Note_on_c, 6, 54, 0
8, 44457, Note_on_c, 6, 54, 61
8, 44498, Note_on_c, 6, 66, 0
8, 44570, Note_on_c, 6, 54, 0
8, 44572, Note_on_c, 6, 58, 0
8, 44636, Note_on_c, 6, 56, 43
8, 44637, Note_on_c, 6, 59, 58
8, 44637, Note_on_c, 6, 53, 39
8, 44892, Note_on_c, 6, 61, 0
8, 44894, Note_on_c, 6, 56, 0
8, 44899, Note_on_c, 6, 59, 0
8, 44936, Note_on_c, 6, 59, 43
8, 44937, Note_on_c, 6, 56, 58
8, 44938, Note_on_c, 6, 61, 55
8, 45024, Note_on_c, 6, 53, 0
8, 45055, Note_on_c, 6, 53, 39
8, 45059, Note_on_c, 6, 56, 0
8, 45074, Note_on_c, 6, 53, 0
8, 45103, Note_on_c, 6, 61, 0
8, 45123, Note_on_c, 6, 57, 51
8, 45123, Note_on_c, 6, 54, 61
8, 45124, Note_on_c, 6, 63, 79
8, 45372, Note_on_c, 6, 63, 0
8, 45377, Note_on_c, 6, 59, 0
8, 45381, Note_on_c, 6, 57, 0
8, 45416, Note_on_c, 6, 59, 43
8, 45417, Note_on_c, 6, 57, 55
8, 45417, Note_on_c, 6, 63, 58
8, 45495, Note_on_c, 6, 54, 0
8, 45539, Note_on_c, 6, 54, 58
8, 45547, Note_on_c, 6, 57, 0
8, 45548, Note_on_c, 6, 59, 0
8, 45565, Note_on_c, 6, 63, 0
8, 45598, Note_on_c, 6, 57, 61
8, 45600, Note_on_c, 6, 61, 39
8, 45615, Note_on_c, 6, 58, 69
8, 45616, Note_on_c, 6, 57, 0
8, 46095, Note_on_c, 6, 58, 0
8, 46134, Note_on_c, 6, 57, 58
8, 46146, Note_on_c, 6, 57, 0
8, 46148, Note_on_c, 6, 58, 69
8, 46176, Note_on_c, 6, 54, 0
8, 46202, Note_on_c, 6, 54, 64
8, 46262, Note_on_c, 6, 66, 84
8, 46350, Note_on_c, 6, 54, 0
8, 46376, Note_on_c, 6, 54, 51
8, 46467, Note_on_c, 6, 54, 0
8, 46504, Note_on_c, 6, 54, 64
8, 46513, Note_on_c, 6, 58, 0
8, 46517, Note_on_c, 6, 66, 0
8, 46556, Note_on_c, 6, 57, 61
8, 46566, Note_on_c, 6, 57, 0
8, 46566, Note_on_c, 6, 58, 64
8, 46796, Note_on_c, 6, 58, 0
8, 46801, Note_on_c, 6, 61, 0
8, 46856, Note_on_c, 6, 58, 51
8, 46858, Note_on_c, 6, 61, 64
8, 46858, Note_on_c, 6, 64, 61
8, 46928, Note_on_c, 6, 54, 0
8, 46981, Note_on_c, 6, 54, 43
8, 46988, Note_on_c, 6, 64, 0
8, 46994, Note_on_c, 6, 58, 0
8, 46995, Note_on_c, 6, 61, 0
8, 47039, Note_on_c, 6, 59, 39
8, 47041, Note_on_c, 6, 63, 61
8, 47042, Note_on_c, 6, 57, 51
8, 47150, Note_on_c, 6, 57, 0
8, 47161, Note_on_c, 6, 54, 0
8, 47183, Note_on_c, 6, 63, 0
8, 47183, Note_on_c, 6, 59, 0
8, 47217, Note_on_c, 6, 53, 61
8, 47217, Note_on_c, 6, 59, 69
8, 47217, Note_on_c, 6, 56, 64
8, 47221, Note_on_c, 6, 61, 55
8, 47421, Note_on_c, 6, 53, 0
8, 47466, Note_on_c, 6, 56, 0
8, 47469, Note_on_c, 6, 59, 0
8, 47481, Note_on_c, 6, 61, 0
8, 47516, Note_on_c, 6, 54, 55
8, 47518, Note_on_c, 6, 57, 61
8, 47520, Note_on_c, 6, 61, 43
8, 47525, Note_on_c, 6, 57, 0
8, 47526, Note_on_c, 6, 58, 84
8, 48032, Note_on_c, 6, 54, 0
8, 48065, Note_on_c, 6, 54, 35
8, 48082, Note_on_c, 6, 58, 0
8, 48086, Note_on_c, 6, 61, 0
8, 48119, Note_on_c, 6, 64, 30
8, 48120, Note_on_c, 6, 58, 30
8, 48121, Note_on_c, 6, 61, 35
8, 48136, Note_on_c, 6, 58, 0
8, 48137, Note_on_c, 6, 64, 0
8, 48138, Note_on_c, 6, 61, 0
8, 48178, Note_on_c, 6, 64, 55
8, 48179, Note_on_c, 6, 61, 48
8, 48180, Note_on_c, 6, 58, 58
8, 48262, Note_on_c, 6, 54, 0
8, 48304, Note_on_c, 6, 54, 35
8, 48331, Note_on_c, 6, 54, 0
8, 48370, Note_on_c, 6, 54, 55
8, 48400, Note_on_c, 6, 54, 0
8, 48418, Note_on_c, 6, 54, 35
8, 48429, Note_on_c, 6, 58, 0
8, 48430, Note_on_c, 6, 64, 0
8, 48432, Note_on_c, 6, 61, 0
8, 48480, Note_on_c, 6, 59, 51
8, 48480, Note_on_c, 6, 63, 72
8, 48481, Note_on_c, 6, 57, 61
8, 48729, Note_on_c, 6, 63, 0
8, 48958, Note_on_c, 6, 57, 0
8, 49020, Note_on_c, 6, 57, 51
8, 49040, Note_on_c, 6, 54, 0
8, 49076, Note_on_c, 6, 54, 48
8, 49136, Note_on_c, 6, 66, 79
8, 49218, Note_on_c, 6, 54, 0
8, 49259, Note_on_c, 6, 54, 55
8, 49334, Note_on_c, 6, 54, 0
8, 49382, Note_on_c, 6, 54, 51
8, 49437, Note_on_c, 6, 61, 39
8, 49677, Note_on_c, 6, 61, 0
8, 49734, Note_on_c, 6, 61, 48
8, 49777, Note_on_c, 6, 54, 0
8, 49800, Note_on_c, 6, 54, 64
8, 49817, Note_on_c, 6, 57, 0
8, 49824, Note_on_c, 6, 66, 0
8, 49861, Note_on_c, 6, 66, 35
8, 50039, Note_on_c, 6, 54, 0
8, 50049, Note_on_c, 6, 59, 0
8, 50056, Note_on_c, 6, 61, 0
8, 50101, Note_on_c, 6, 57, 61
8, 50102, Note_on_c, 6, 61, 69
8, 50103, Note_on_c, 6, 54, 30
8, 50114, Note_on_c, 6, 57, 0
8, 50114, Note_on_c, 6, 58, 66
8, 50187, Note_on_c, 6, 58, 0
8, 50189, Note_on_c, 6, 61, 0
8, 50227, Note_on_c, 6, 58, 64
8, 50228, Note_on_c, 6, 61, 58
8, 50242, Note_on_c, 6, 66, 0
8, 50311, Note_on_c, 6, 54, 0
8, 50350, Note_on_c, 6, 58, 0
8, 50389, Note_on_c, 6, 61, 0
8, 50395, Note_on_c, 6, 61, 26
8, 50397, Note_on_c, 6, 59, 66
8, 50398, Note_on_c, 6, 56, 55
8, 50399, Note_on_c, 6, 53, 55
8, 50798, Note_on_c, 6, 56, 0
8, 50801, Note_on_c, 6, 53, 0
8, 50810, Note_on_c, 6, 61, 0
8, 50814, Note_on_c, 6, 59, 0
8, 50880, Note_on_c, 6, 59, 66
8, 50880, Note_on_c, 6, 63, 96
8, 50882, Note_on_c, 6, 57, 111
8, 50882, Note_on_c, 6, 54, 74
8, 50932, Note_on_c, 6, 54, 0
8, 50932, Note_on_c, 6, 57, 0
8, 50932, Note_on_c, 6, 59, 0
8, 50934, Note_on_c, 6, 63, 0
8, 51474, Note_on_c, 6, 60, 64
8, 51486, Pitch_bend_c, 6, 8320
8, 51488, Pitch_bend_c, 6, 8576
8, 51490, Pitch_bend_c, 6, 8832
8, 51492, Pitch_bend_c, 6, 9216
8, 51493, Pitch_bend_c, 6, 9472
8, 51495, Pitch_bend_c, 6, 9728
8, 51496, Pitch_bend_c, 6, 9984
8, 51499, Pitch_bend_c, 6, 10112
8, 51501, Pitch_bend_c, 6, 10368
8, 51505, Pitch_bend_c, 6, 10624
8, 51507, Pitch_bend_c, 6, 10752
8, 51512, Pitch_bend_c, 6, 11008
8, 51521, Pitch_bend_c, 6, 10752
8, 51523, Note_on_c, 6, 60, 0
8, 51524, Pitch_bend_c, 6, 10368
8, 51525, Pitch_bend_c, 6, 9856
8, 51527, Pitch_bend_c, 6, 8960
8, 51529, Pitch_bend_c, 6, 8192
8, 51551, Note_on_c, 6, 54, 51
8, 51581, Note_on_c, 6, 54, 0
8, 51602, Note_on_c, 6, 59, 69
8, 51638, Note_on_c, 6, 59, 0
8, 51662, Note_on_c, 6, 57, 91
8, 51701, Note_on_c, 6, 57, 0
8, 51722, Note_on_c, 6, 54, 102
8, 51757, Note_on_c, 6, 54, 0
8, 51782, Note_on_c, 6, 49, 89
8, 51818, Note_on_c, 6, 49, 0
8, 51843, Note_on_c, 6, 52, 72
8, 51863, Pitch_bend_c, 6, 8704
8, 51864, Pitch_bend_c, 6, 9600
8, 51866, Pitch_bend_c, 6, 10624
8, 51868, Pitch_bend_c, 6, 11520
8, 51870, Pitch_bend_c, 6, 12288
8, 51872, Pitch_bend_c, 6, 13056
8, 51874, Pitch_bend_c, 6, 13824
8, 51875, Pitch_bend_c, 6, 14592
8, 51877, Pitch_bend_c, 6, 15232
8, 51879, Pitch_bend_c, 6, 15872
8, 51881, Pitch_bend_c, 6, 16256
8, 52010, Note_on_c, 6, 52, 0
8, 52051, Pitch_bend_c, 6, 13056
8, 52052, Pitch_bend_c, 6, 9344
8, 52054, Pitch_bend_c, 6, 8448
8, 52056, Pitch_bend_c, 6, 8192
8, 52056, End_track
9, 0, Start_track
9, 0, MIDI_port, 0
9, 0, Title_t, "Jazz Guitar Lead"
9, 0, Control_c, 7, 0, 56
9, 0, Control_c, 7, 32, 1
9, 0, Program_c, 7, 26
9, 0, Control_c, 7, 7, 70
9, 0, Control_c, 7, 10, 80
9, 11520, Control_c, 7, 91, 60
9, 13186, Pitch_bend_c, 7, 7936
9, 13188, Pitch_bend_c, 7, 7552
9, 13190, Pitch_bend_c, 7, 7168
9, 13192, Pitch_bend_c, 7, 6656
9, 13194, Pitch_bend_c, 7, 6016
9, 13196, Pitch_bend_c, 7, 5248
9, 13199, Pitch_bend_c, 7, 4352
9, 13200, Pitch_bend_c, 7, 3584
9, 13203, Pitch_bend_c, 7, 2560
9, 13204, Pitch_bend_c, 7, 1792
9, 13206, Pitch_bend_c, 7, 896
9, 13209, Pitch_bend_c, 7, 128
9, 13211, Pitch_bend_c, 7, 0
9, 13266, Note_on_c, 7, 63, 102
9, 13287, Pitch_bend_c, 7, 512
9, 13290, Pitch_bend_c, 7, 1536
9, 13292, Pitch_bend_c, 7, 2816
9, 13294, Pitch_bend_c, 7, 5632
9, 13295, Pitch_bend_c, 7, 8192
9, 13318, Note_on_c, 7, 66, 96
9, 13319, Note_on_c, 7, 63, 0
9, 13696, Note_on_c, 7, 66, 0
9, 13774, Note_on_c, 7, 63, 39
9, 13793, Note_on_c, 7, 63, 0
9, 13811, Note_on_c, 7, 69, 91
9, 13830, Note_on_c, 7, 69, 0
9, 13835, Note_on_c, 7, 66, 74
9, 14237, Control_c, 7, 1, 4
9, 14239, Control_c, 7, 1, 8
9, 14241, Control_c, 7, 1, 12
9, 14243, Control_c, 7, 1, 17
9, 14245, Control_c, 7, 1, 20
9, 14247, Control_c, 7, 1, 24
9, 14249, Control_c, 7, 1, 28
9, 14251, Control_c, 7, 1, 32
9, 14253, Control_c, 7, 1, 36
9, 14255, Control_c, 7, 1, 40
9, 14257, Control_c, 7, 1, 45
9, 14259, Control_c, 7, 1, 49
9, 14261, Control_c, 7, 1, 53
9, 14263, Control_c, 7, 1, 57
9, 14265, Control_c, 7, 1, 61
9, 14267, Control_c, 7, 1, 65
9, 14269, Control_c, 7, 1, 69
9, 14271, Control_c, 7, 1, 72
9, 14273, Control_c, 7, 1, 75
9, 14275, Control_c, 7, 1, 78
9, 14277, Control_c, 7, 1, 80
9, 14279, Control_c, 7, 1, 82
9, 14281, Control_c, 7, 1, 84
9, 14283, Control_c, 7, 1, 86
9, 14285, Control_c, 7, 1, 87
9, 14286, Control_c, 7, 1, 88
9, 14293, Control_c, 7, 1, 89
9, 14300, Control_c, 7, 1, 88
9, 14302, Control_c, 7, 1, 86
9, 14304, Control_c, 7, 1, 84
9, 14306, Control_c, 7, 1, 82
9, 14308, Control_c, 7, 1, 79
9, 14310, Control_c, 7, 1, 75
9, 14312, Control_c, 7, 1, 71
9, 14314, Control_c, 7, 1, 66
9, 14316, Control_c, 7, 1, 61
9, 14318, Control_c, 7, 1, 56
9, 14320, Control_c, 7, 1, 50
9, 14322, Control_c, 7, 1, 43
9, 14324, Control_c, 7, 1, 37
9, 14326, Control_c, 7, 1, 30
9, 14328, Control_c, 7, 1, 23
9, 14330, Control_c, 7, 1, 17
9, 14332, Control_c, 7, 1, 11
9, 14334, Control_c, 7, 1, 5
9, 14336, Control_c, 7, 1, 0
9, 14447, Note_on_c, 7, 66, 0
9, 15058, Note_on_c, 7, 69, 117
9, 15092, Pitch_bend_c, 7, 8320
9, 15094, Pitch_bend_c, 7, 8448
9, 15096, Pitch_bend_c, 7, 8704
9, 15098, Pitch_bend_c, 7, 8960
9, 15100, Pitch_bend_c, 7, 9088
9, 15102, Pitch_bend_c, 7, 9344
9, 15104, Pitch_bend_c, 7, 9600
9, 15106, Pitch_bend_c, 7, 9728
9, 15108, Pitch_bend_c, 7, 9856
9, 15110, Pitch_bend_c, 7, 10112
9, 15112, Pitch_bend_c, 7, 10240
9, 15114, Pitch_bend_c, 7, 10496
9, 15118, Pitch_bend_c, 7, 10752
9, 15120, Pitch_bend_c, 7, 10880
9, 15122, Pitch_bend_c, 7, 11008
9, 15124, Pitch_bend_c, 7, 11264
9, 15128, Pitch_bend_c, 7, 11520
9, 15130, Pitch_bend_c, 7, 11648
9, 15134, Pitch_bend_c, 7, 12032
9, 15136, Pitch_bend_c, 7, 12160
9, 15140, Pitch_bend_c, 7, 12416
9, 15142, Pitch_bend_c, 7, 12544
9, 15146, Pitch_bend_c, 7, 12800
9, 15148, Pitch_bend_c, 7, 12928
9, 15151, Pitch_bend_c, 7, 13184
9, 15154, Pitch_bend_c, 7, 13312
9, 15158, Pitch_bend_c, 7, 13568
9, 15159, Pitch_bend_c, 7, 13696
9, 15163, Pitch_bend_c, 7, 13824
9, 15165, Pitch_bend_c, 7, 13952
9, 15169, Pitch_bend_c, 7, 14208
9, 15171, Pitch_bend_c, 7, 14336
9, 15175, Pitch_bend_c, 7, 14592
9, 15177, Pitch_bend_c, 7, 14720
9, 15181, Pitch_bend_c, 7, 14976
9, 15183, Pitch_bend_c, 7, 15104
9, 15187, Pitch_bend_c, 7, 15360
9, 15189, Pitch_bend_c, 7, 15488
9, 15192, Pitch_bend_c, 7, 15744
9, 15194, Pitch_bend_c, 7, 15872
9, 15198, Pitch_bend_c, 7, 16128
9, 15201, Pitch_bend_c, 7, 16256
9, 15401, Note_on_c, 7, 69, 0
9, 15444, Pitch_bend_c, 7, 15872
9, 15446, Pitch_bend_c, 7, 15488
9, 15447, Pitch_bend_c, 7, 14976
9, 15449, Pitch_bend_c, 7, 14592
9, 15451, Pitch_bend_c, 7, 14080
9, 15454, Pitch_bend_c, 7, 13696
9, 15455, Pitch_bend_c, 7, 13184
9, 15457, Pitch_bend_c, 7, 12672
9, 15459, Pitch_bend_c, 7, 12160
9, 15461, Pitch_bend_c, 7, 11520
9, 15463, Pitch_bend_c, 7, 11008
9, 15465, Pitch_bend_c, 7, 10368
9, 15467, Pitch_bend_c, 7, 9728
9, 15469, Pitch_bend_c, 7, 9216
9, 15471, Pitch_bend_c, 7, 8704
9, 15473, Pitch_bend_c, 7, 8192
9, 15526, Note_on_c, 7, 69, 72
9, 15552, Note_on_c, 7, 69, 0
9, 15565, Note_on_c, 7, 68, 84
9, 15589, Note_on_c, 7, 68, 0
9, 15600, Note_on_c, 7, 66, 66
9, 15624, Note_on_c, 7, 66, 0
9, 15639, Note_on_c, 7, 66, 111
9, 15664, Pitch_bend_c, 7, 8960
9, 15666, Pitch_bend_c, 7, 9856
9, 15667, Pitch_bend_c, 7, 10880
9, 15669, Pitch_bend_c, 7, 11904
9, 15671, Pitch_bend_c, 7, 12928
9, 15673, Pitch_bend_c, 7, 13696
9, 15676, Pitch_bend_c, 7, 14592
9, 15677, Pitch_bend_c, 7, 15616
9, 15679, Pitch_bend_c, 7, 16256
9, 15695, Pitch_bend_c, 7, 16128
9, 15697, Pitch_bend_c, 7, 14208
9, 15699, Pitch_bend_c, 7, 10496
9, 15701, Pitch_bend_c, 7, 8192
9, 15780, Note_on_c, 7, 66, 0
9, 16765, Note_on_c, 7, 66, 77
9, 16790, Pitch_bend_c, 7, 6912
9, 16791, Pitch_bend_c, 7, 6016
9, 16793, Pitch_bend_c, 7, 4992
9, 16795, Pitch_bend_c, 7, 3968
9, 16797, Pitch_bend_c, 7, 2816
9, 16799, Pitch_bend_c, 7, 1792
9, 16801, Pitch_bend_c, 7, 640
9, 16803, Pitch_bend_c, 7, 0
9, 17110, Note_on_c, 7, 66, 0
9, 17156, Pitch_bend_c, 7, 128
9, 17158, Pitch_bend_c, 7, 256
9, 17160, Pitch_bend_c, 7, 384
9, 17164, Pitch_bend_c, 7, 640
9, 17166, Pitch_bend_c, 7, 768
9, 17170, Pitch_bend_c, 7, 1024
9, 17172, Pitch_bend_c, 7, 1152
9, 17178, Pitch_bend_c, 7, 1408
9, 17180, Pitch_bend_c, 7, 1536
9, 17184, Pitch_bend_c, 7, 1664
9, 17185, Pitch_bend_c, 7, 1792
9, 17190, Pitch_bend_c, 7, 2176
9, 17192, Pitch_bend_c, 7, 2432
9, 17193, Pitch_bend_c, 7, 2688
9, 17195, Pitch_bend_c, 7, 2944
9, 17197, Pitch_bend_c, 7, 3200
9, 17200, Pitch_bend_c, 7, 3456
9, 17202, Pitch_bend_c, 7, 3840
9, 17203, Pitch_bend_c, 7, 4096
9, 17205, Pitch_bend_c, 7, 4352
9, 17207, Pitch_bend_c, 7, 4480
9, 17209, Pitch_bend_c, 7, 4736
9, 17213, Pitch_bend_c, 7, 4992
9, 17215, Pitch_bend_c, 7, 5120
9, 17221, Pitch_bend_c, 7, 5248
9, 17223, Pitch_bend_c, 7, 5376
9, 17229, Pitch_bend_c, 7, 5504
9, 17231, Pitch_bend_c, 7, 5632
9, 17273, Pitch_bend_c, 7, 5888
9, 17283, Pitch_bend_c, 7, 6144
9, 17291, Pitch_bend_c, 7, 6400
9, 17301, Pitch_bend_c, 7, 6528
9, 17351, Pitch_bend_c, 7, 6272
9, 17353, Pitch_bend_c, 7, 6144
9, 17357, Pitch_bend_c, 7, 5888
9, 17363, Pitch_bend_c, 7, 5632
9, 17365, Pitch_bend_c, 7, 5504
9, 17369, Pitch_bend_c, 7, 5248
9, 17371, Pitch_bend_c, 7, 5120
9, 17374, Pitch_bend_c, 7, 4864
9, 17377, Pitch_bend_c, 7, 4736
9, 17380, Pitch_bend_c, 7, 4480
9, 17382, Pitch_bend_c, 7, 4352
9, 17386, Pitch_bend_c, 7, 4224
9, 17392, Pitch_bend_c, 7, 3968
9, 17398, Note_on_c, 7, 61, 84
9, 17402, Pitch_bend_c, 7, 3712
9, 17415, Pitch_bend_c, 7, 4736
9, 17417, Pitch_bend_c, 7, 5120
9, 17419, Pitch_bend_c, 7, 5504
9, 17421, Pitch_bend_c, 7, 6016
9, 17423, Pitch_bend_c, 7, 6528
9, 17425, Pitch_bend_c, 7, 7040
9, 17427, Pitch_bend_c, 7, 7552
9, 17429, Pitch_bend_c, 7, 8064
9, 17431, Pitch_bend_c, 7, 8192
9, 17455, Note_on_c, 7, 61, 0
9, 17466, Note_on_c, 7, 57, 96
9, 17498, Note_on_c, 7, 57, 0
9, 17521, Note_on_c, 7, 59, 79
9, 17553, Note_on_c, 7, 59, 0
9, 17582, Note_on_c, 7, 57, 69
9, 17609, Pitch_bend_c, 7, 8320
9, 17611, Pitch_bend_c, 7, 8704
9, 17613, Pitch_bend_c, 7, 9088
9, 17615, Pitch_bend_c, 7, 9472
9, 17617, Pitch_bend_c, 7, 9856
9, 17619, Pitch_bend_c, 7, 10240
9, 17621, Pitch_bend_c, 7, 10624
9, 17623, Pitch_bend_c, 7, 10880
9, 17625, Pitch_bend_c, 7, 11264
9, 17627, Pitch_bend_c, 7, 11520
9, 17629, Pitch_bend_c, 7, 11648
9, 17633, Pitch_bend_c, 7, 11904
9, 17635, Note_on_c, 7, 57, 0
9, 17639, Pitch_bend_c, 7, 11520
9, 17640, Pitch_bend_c, 7, 11136
9, 17643, Pitch_bend_c, 7, 10496
9, 17645, Pitch_bend_c, 7, 9856
9, 17647, Pitch_bend_c, 7, 9088
9, 17649, Pitch_bend_c, 7, 8192
9, 17651, Note_on_c, 7, 54, 72
9, 17702, Note_on_c, 7, 54, 0
9, 18865, Pitch_bend_c, 7, 7936
9, 18867, Pitch_bend_c, 7, 7680
9, 18869, Pitch_bend_c, 7, 7424
9, 18871, Pitch_bend_c, 7, 7168
9, 18873, Pitch_bend_c, 7, 6912
9, 18875, Pitch_bend_c, 7, 6656
9, 18877, Pitch_bend_c, 7, 6400
9, 18879, Pitch_bend_c, 7, 6144
9, 18881, Pitch_bend_c, 7, 6016
9, 18883, Pitch_bend_c, 7, 5760
9, 18885, Pitch_bend_c, 7, 5504
9, 18887, Pitch_bend_c, 7, 5248
9, 18889, Pitch_bend_c, 7, 5120
9, 18891, Pitch_bend_c, 7, 4992
9, 18895, Pitch_bend_c, 7, 4736
9, 18897, Pitch_bend_c, 7, 4608
9, 18900, Note_on_c, 7, 71, 89
9, 18901, Pitch_bend_c, 7, 4352
9, 18922, Pitch_bend_c, 7, 5120
9, 18924, Pitch_bend_c, 7, 5376
9, 18926, Pitch_bend_c, 7, 5632
9, 18928, Pitch_bend_c, 7, 5888
9, 18930, Pitch_bend_c, 7, 6016
9, 18932, Pitch_bend_c, 7, 6272
9, 18934, Pitch_bend_c, 7, 6400
9, 18936, Pitch_bend_c, 7, 6528
9, 18940, Pitch_bend_c, 7, 6784
9, 18942, Pitch_bend_c, 7, 6912
9, 18946, Pitch_bend_c, 7, 7168
9, 18948, Pitch_bend_c, 7, 7296
9, 18954, Pitch_bend_c, 7, 7552
9, 18964, Pitch_bend_c, 7, 7680
9, 18966, Pitch_bend_c, 7, 7808
9, 18971, Pitch_bend_c, 7, 7936
9, 18973, Pitch_bend_c, 7, 8064
9, 18977, Pitch_bend_c, 7, 8192
9, 19181, Note_on_c, 7, 71, 0
9, 19254, Note_on_c, 7, 69, 66
9, 19277, Note_on_c, 7, 69, 0
9, 19297, Note_on_c, 7, 68, 79
9, 19324, Note_on_c, 7, 68, 0
9, 19335, Note_on_c, 7, 66, 123
9, 19360, Note_on_c, 7, 66, 0
9, 19379, Note_on_c, 7, 66, 108
9, 19405, Pitch_bend_c, 7, 8832
9, 19406, Pitch_bend_c, 7, 10240
9, 19408, Pitch_bend_c, 7, 11776
9, 19410, Pitch_bend_c, 7, 13696
9, 19413, Pitch_bend_c, 7, 15616
9, 19415, Pitch_bend_c, 7, 16256
9, 19420, Control_c, 7, 1, 1
9, 19421, Control_c, 7, 1, 3
9, 19425, Control_c, 7, 1, 4
9, 19435, Control_c, 7, 1, 5
9, 19439, Pitch_bend_c, 7, 15360
9, 19441, Pitch_bend_c, 7, 11904
9, 19443, Pitch_bend_c, 7, 8704
9, 19445, Pitch_bend_c, 7, 8192
9, 19576, Control_c, 7, 1, 2
9, 19581, Control_c, 7, 1, 0
9, 19664, Note_on_c, 7, 66, 0
9, 20457, Pitch_bend_c, 7, 7936
9, 20459, Pitch_bend_c, 7, 7680
9, 20461, Pitch_bend_c, 7, 7296
9, 20463, Pitch_bend_c, 7, 6912
9, 20465, Pitch_bend_c, 7, 6400
9, 20467, Pitch_bend_c, 7, 6016
9, 20469, Pitch_bend_c, 7, 5504
9, 20470, Pitch_bend_c, 7, 4864
9, 20473, Pitch_bend_c, 7, 4352
9, 20475, Pitch_bend_c, 7, 3840
9, 20477, Pitch_bend_c, 7, 3328
9, 20479, Pitch_bend_c, 7, 2816
9, 20481, Pitch_bend_c, 7, 2304
9, 20483, Pitch_bend_c, 7, 1792
9, 20485, Pitch_bend_c, 7, 1408
9, 20487, Pitch_bend_c, 7, 896
9, 20489, Pitch_bend_c, 7, 512
9, 20491, Pitch_bend_c, 7, 0
9, 20580, Note_on_c, 7, 66, 89
9, 20599, Pitch_bend_c, 7, 512
9, 20601, Pitch_bend_c, 7, 1152
9, 20603, Pitch_bend_c, 7, 1792
9, 20605, Pitch_bend_c, 7, 2560
9, 20607, Pitch_bend_c, 7, 3328
9, 20609, Pitch_bend_c, 7, 4224
9, 20611, Pitch_bend_c, 7, 5376
9, 20613, Pitch_bend_c, 7, 6528
9, 20615, Pitch_bend_c, 7, 7680
9, 20617, Pitch_bend_c, 7, 8192
9, 20638, Pitch_bend_c, 7, 7680
9, 20641, Pitch_bend_c, 7, 6656
9, 20643, Pitch_bend_c, 7, 5632
9, 20644, Pitch_bend_c, 7, 4608
9, 20646, Pitch_bend_c, 7, 3456
9, 20648, Pitch_bend_c, 7, 2432
9, 20650, Pitch_bend_c, 7, 1280
9, 20653, Pitch_bend_c, 7, 256
9, 20654, Pitch_bend_c, 7, 0
9, 20951, Note_on_c, 7, 66, 0
9, 20979, Pitch_bend_c, 7, 128
9, 20980, Pitch_bend_c, 7, 384
9, 20983, Pitch_bend_c, 7, 640
9, 20985, Pitch_bend_c, 7, 896
9, 20987, Pitch_bend_c, 7, 1152
9, 20989, Pitch_bend_c, 7, 1280
9, 20991, Pitch_bend_c, 7, 1536
9, 20993, Pitch_bend_c, 7, 1792
9, 20995, Pitch_bend_c, 7, 2048
9, 20997, Pitch_bend_c, 7, 2304
9, 20999, Pitch_bend_c, 7, 2560
9, 21000, Pitch_bend_c, 7, 2816
9, 21003, Pitch_bend_c, 7, 3072
9, 21005, Pitch_bend_c, 7, 3456
9, 21007, Pitch_bend_c, 7, 3712
9, 21009, Pitch_bend_c, 7, 3840
9, 21010, Pitch_bend_c, 7, 4096
9, 21013, Pitch_bend_c, 7, 4352
9, 21015, Pitch_bend_c, 7, 4608
9, 21017, Pitch_bend_c, 7, 4736
9, 21019, Pitch_bend_c, 7, 4992
9, 21020, Pitch_bend_c, 7, 5248
9, 21022, Pitch_bend_c, 7, 5376
9, 21024, Pitch_bend_c, 7, 5632
9, 21026, Pitch_bend_c, 7, 5888
9, 21028, Pitch_bend_c, 7, 6144
9, 21030, Pitch_bend_c, 7, 6400
9, 21032, Pitch_bend_c, 7, 6784
9, 21034, Pitch_bend_c, 7, 7040
9, 21036, Pitch_bend_c, 7, 7296
9, 21038, Pitch_bend_c, 7, 7552
9, 21041, Pitch_bend_c, 7, 7808
9, 21043, Pitch_bend_c, 7, 8064
9, 21047, Pitch_bend_c, 7, 8192
9, 21129, Pitch_bend_c, 7, 7936
9, 21131, Pitch_bend_c, 7, 7808
9, 21133, Pitch_bend_c, 7, 7680
9, 21135, Pitch_bend_c, 7, 7424
9, 21137, Pitch_bend_c, 7, 7168
9, 21139, Pitch_bend_c, 7, 6912
9, 21141, Pitch_bend_c, 7, 6656
9, 21143, Pitch_bend_c, 7, 6528
9, 21145, Pitch_bend_c, 7, 6272
9, 21147, Pitch_bend_c, 7, 6016
9, 21149, Pitch_bend_c, 7, 5760
9, 21151, Pitch_bend_c, 7, 5632
9, 21153, Pitch_bend_c, 7, 5376
9, 21155, Pitch_bend_c, 7, 5248
9, 21158, Pitch_bend_c, 7, 4992
9, 21161, Pitch_bend_c, 7, 4736
9, 21163, Pitch_bend_c, 7, 4608
9, 21168, Pitch_bend_c, 7, 4352
9, 21177, Pitch_bend_c, 7, 4224
9, 21180, Note_on_c, 7, 61, 79
9, 21189, Pitch_bend_c, 7, 5120
9, 21191, Pitch_bend_c, 7, 5376
9, 21192, Pitch_bend_c, 7, 5632
9, 21194, Pitch_bend_c, 7, 5888
9, 21196, Pitch_bend_c, 7, 6144
9, 21198, Pitch_bend_c, 7, 6400
9, 21200, Pitch_bend_c, 7, 6656
9, 21202, Pitch_bend_c, 7, 7040
9, 21204, Pitch_bend_c, 7, 7296
9, 21206, Pitch_bend_c, 7, 7552
9, 21208, Pitch_bend_c, 7, 7808
9, 21210, Pitch_bend_c, 7, 8064
9, 21212, Pitch_bend_c, 7, 8192
9, 21268, Note_on_c, 7, 61, 0
9, 21361, Note_on_c, 7, 59, 74
9, 21394, Note_on_c, 7, 59, 0
9, 21418, Note_on_c, 7, 57, 72
9, 21424, Pitch_bend_c, 7, 8704
9, 21426, Pitch_bend_c, 7, 9088
9, 21428, Pitch_bend_c, 7, 9472
9, 21430, Pitch_bend_c, 7, 9728
9, 21432, Pitch_bend_c, 7, 9984
9, 21434, Pitch_bend_c, 7, 10368
9, 21436, Pitch_bend_c, 7, 10496
9, 21438, Pitch_bend_c, 7, 10752
9, 21440, Pitch_bend_c, 7, 11008
9, 21442, Pitch_bend_c, 7, 11264
9, 21443, Pitch_bend_c, 7, 11392
9, 21448, Pitch_bend_c, 7, 11648
9, 21450, Pitch_bend_c, 7, 11776
9, 21454, Pitch_bend_c, 7, 12032
9, 21456, Pitch_bend_c, 7, 12160
9, 21464, Pitch_bend_c, 7, 12288
9, 21470, Note_on_c, 7, 57, 0
9, 21473, Pitch_bend_c, 7, 11008
9, 21475, Pitch_bend_c, 7, 10496
9, 21476, Pitch_bend_c, 7, 10112
9, 21479, Pitch_bend_c, 7, 9472
9, 21481, Pitch_bend_c, 7, 8576
9, 21481, Note_on_c, 7, 54, 69
9, 21484, Pitch_bend_c, 7, 8192
9, 21945, Note_on_c, 7, 54, 0
9, 22732, Note_on_c, 7, 52, 61
9, 22773, Note_on_c, 7, 52, 0
9, 22775, Pitch_bend_c, 7, 7808
9, 22778, Pitch_bend_c, 7, 7296
9, 22780, Pitch_bend_c, 7, 6784
9, 22781, Pitch_bend_c, 7, 6144
9, 22784, Pitch_bend_c, 7, 5504
9, 22785, Pitch_bend_c, 7, 4992
9, 22788, Pitch_bend_c, 7, 4480
9, 22790, Pitch_bend_c, 7, 4096
9, 22791, Pitch_bend_c, 7, 3840
9, 22793, Pitch_bend_c, 7, 3456
9, 22796, Pitch_bend_c, 7, 3328
9, 22800, Note_on_c, 7, 61, 79
9, 22811, Pitch_bend_c, 7, 4608
9, 22813, Pitch_bend_c, 7, 5120
9, 22815, Pitch_bend_c, 7, 5632
9, 22817, Pitch_bend_c, 7, 6144
9, 22819, Pitch_bend_c, 7, 6656
9, 22821, Pitch_bend_c, 7, 7168
9, 22823, Pitch_bend_c, 7, 7680
9, 22825, Pitch_bend_c, 7, 8192
9, 22855, Note_on_c, 7, 61, 0
9, 22859, Note_on_c, 7, 57, 111
9, 22897, Note_on_c, 7, 57, 0
9, 22920, Note_on_c, 7, 59, 64
9, 22963, Note_on_c, 7, 59, 0
9, 22982, Note_on_c, 7, 57, 96
9, 23013, Pitch_bend_c, 7, 8576
9, 23015, Pitch_bend_c, 7, 8960
9, 23016, Pitch_bend_c, 7, 9344
9, 23019, Pitch_bend_c, 7, 9600
9, 23021, Pitch_bend_c, 7, 9984
9, 23023, Pitch_bend_c, 7, 10240
9, 23025, Pitch_bend_c, 7, 10496
9, 23027, Note_on_c, 7, 57, 0
9, 23027, Pitch_bend_c, 7, 10752
9, 23029, Pitch_bend_c, 7, 10880
9, 23031, Pitch_bend_c, 7, 11008
9, 23033, Pitch_bend_c, 7, 11264
9, 23035, Pitch_bend_c, 7, 11392
9, 23037, Pitch_bend_c, 7, 11520
9, 23039, Pitch_bend_c, 7, 11776
9, 23047, Pitch_bend_c, 7, 11648
9, 23050, Note_on_c, 7, 54, 84
9, 23055, Pitch_bend_c, 7, 9472
9, 23057, Pitch_bend_c, 7, 8576
9, 23059, Pitch_bend_c, 7, 8192
9, 23248, Control_c, 7, 1, 1
9, 23251, Control_c, 7, 1, 3
9, 23253, Control_c, 7, 1, 5
9, 23255, Control_c, 7, 1, 8
9, 23257, Control_c, 7, 1, 10
9, 23259, Control_c, 7, 1, 13
9, 23261, Control_c, 7, 1, 16
9, 23263, Control_c, 7, 1, 20
9, 23265, Control_c, 7, 1, 24
9, 23267, Control_c, 7, 1, 28
9, 23269, Control_c, 7, 1, 32
9, 23271, Control_c, 7, 1, 36
9, 23273, Control_c, 7, 1, 39
9, 23275, Control_c, 7, 1, 43
9, 23277, Control_c, 7, 1, 46
9, 23279, Control_c, 7, 1, 49
9, 23281, Control_c, 7, 1, 51
9, 23283, Control_c, 7, 1, 53
9, 23284, Control_c, 7, 1, 55
9, 23286, Control_c, 7, 1, 56
9, 23289, Control_c, 7, 1, 58
9, 23291, Control_c, 7, 1, 59
9, 23294, Control_c, 7, 1, 60
9, 23302, Control_c, 7, 1, 58
9, 23304, Control_c, 7, 1, 57
9, 23306, Control_c, 7, 1, 55
9, 23308, Control_c, 7, 1, 53
9, 23310, Control_c, 7, 1, 50
9, 23312, Control_c, 7, 1, 46
9, 23314, Control_c, 7, 1, 43
9, 23316, Control_c, 7, 1, 39
9, 23318, Control_c, 7, 1, 35
9, 23320, Control_c, 7, 1, 30
9, 23322, Control_c, 7, 1, 26
9, 23324, Control_c, 7, 1, 21
9, 23326, Control_c, 7, 1, 16
9, 23328, Control_c, 7, 1, 11
9, 23330, Control_c, 7, 1, 6
9, 23332, Control_c, 7, 1, 1
9, 23334, Control_c, 7, 1, 0
9, 23423, Note_on_c, 7, 54, 0
9, 23794, Pitch_bend_c, 7, 7680
9, 23796, Pitch_bend_c, 7, 7168
9, 23798, Pitch_bend_c, 7, 6656
9, 23800, Pitch_bend_c, 7, 6016
9, 23802, Pitch_bend_c, 7, 5504
9, 23804, Pitch_bend_c, 7, 4864
9, 23806, Pitch_bend_c, 7, 4608
9, 23808, Pitch_bend_c, 7, 3968
9, 23810, Pitch_bend_c, 7, 3456
9, 23812, Pitch_bend_c, 7, 3072
9, 23814, Pitch_bend_c, 7, 2688
9, 23816, Pitch_bend_c, 7, 2432
9, 23818, Pitch_bend_c, 7, 2176
9, 23822, Pitch_bend_c, 7, 1920
9, 23832, Pitch_bend_c, 7, 2048
9, 23857, Pitch_bend_c, 7, 2944
9, 23859, Pitch_bend_c, 7, 3584
9, 23861, Pitch_bend_c, 7, 4480
9, 23863, Pitch_bend_c, 7, 5504
9, 23865, Pitch_bend_c, 7, 6656
9, 23867, Pitch_bend_c, 7, 7808
9, 23869, Pitch_bend_c, 7, 8192
9, 23879, Pitch_bend_c, 7, 8704
9, 23880, Pitch_bend_c, 7, 9472
9, 23882, Pitch_bend_c, 7, 9984
9, 23885, Pitch_bend_c, 7, 10624
9, 23887, Pitch_bend_c, 7, 11392
9, 23889, Pitch_bend_c, 7, 12160
9, 23890, Pitch_bend_c, 7, 12800
9, 23892, Pitch_bend_c, 7, 13440
9, 23894, Pitch_bend_c, 7, 14080
9, 23897, Pitch_bend_c, 7, 14592
9, 23899, Pitch_bend_c, 7, 15232
9, 23900, Pitch_bend_c, 7, 15744
9, 23902, Pitch_bend_c, 7, 16256
9, 23929, Pitch_bend_c, 7, 16128
9, 23931, Pitch_bend_c, 7, 15488
9, 23933, Pitch_bend_c, 7, 14720
9, 23935, Pitch_bend_c, 7, 13952
9, 23937, Pitch_bend_c, 7, 13184
9, 23939, Pitch_bend_c, 7, 12288
9, 23941, Pitch_bend_c, 7, 11520
9, 23943, Pitch_bend_c, 7, 10624
9, 23945, Pitch_bend_c, 7, 9728
9, 23947, Pitch_bend_c, 7, 8832
9, 23949, Pitch_bend_c, 7, 8192
9, 24566, Pitch_bend_c, 7, 8064
9, 24568, Pitch_bend_c, 7, 7936
9, 24570, Pitch_bend_c, 7, 7808
9, 24572, Pitch_bend_c, 7, 7552
9, 24574, Pitch_bend_c, 7, 7296
9, 24576, Pitch_bend_c, 7, 7168
9, 24578, Pitch_bend_c, 7, 7040
9, 24580, Pitch_bend_c, 7, 6784
9, 24584, Pitch_bend_c, 7, 6528
9, 24586, Pitch_bend_c, 7, 6400
9, 24590, Pitch_bend_c, 7, 6144
9, 24592, Pitch_bend_c, 7, 5888
9, 24595, Pitch_bend_c, 7, 5760
9, 24597, Pitch_bend_c, 7, 5632
9, 24601, Pitch_bend_c, 7, 5376
9, 24603, Pitch_bend_c, 7, 5248
9, 24607, Pitch_bend_c, 7, 4992
9, 24613, Pitch_bend_c, 7, 4736
9, 24615, Pitch_bend_c, 7, 4608
9, 24619, Pitch_bend_c, 7, 4480
9, 24620, Pitch_bend_c, 7, 4352
9, 24626, Pitch_bend_c, 7, 4224
9, 24628, Pitch_bend_c, 7, 4096
9, 24636, Pitch_bend_c, 7, 3968
9, 24645, Pitch_bend_c, 7, 3840
9, 24659, Pitch_bend_c, 7, 3328
9, 24661, Pitch_bend_c, 7, 3200
9, 24665, Pitch_bend_c, 7, 2944
9, 24667, Note_on_c, 7, 73, 89
9, 24667, Pitch_bend_c, 7, 2816
9, 24672, Pitch_bend_c, 7, 2560
9, 24692, Pitch_bend_c, 7, 3072
9, 24695, Pitch_bend_c, 7, 3200
9, 24699, Pitch_bend_c, 7, 3456
9, 24701, Pitch_bend_c, 7, 3584
9, 24705, Pitch_bend_c, 7, 3840
9, 24706, Pitch_bend_c, 7, 3968
9, 24710, Pitch_bend_c, 7, 4224
9, 24713, Pitch_bend_c, 7, 4480
9, 24716, Pitch_bend_c, 7, 4736
9, 24722, Pitch_bend_c, 7, 4992
9, 24724, Pitch_bend_c, 7, 5120
9, 24728, Pitch_bend_c, 7, 5248
9, 24730, Pitch_bend_c, 7, 5376
9, 24736, Pitch_bend_c, 7, 5504
9, 24743, Pitch_bend_c, 7, 5760
9, 24751, Pitch_bend_c, 7, 6016
9, 24759, Pitch_bend_c, 7, 6272
9, 24768, Pitch_bend_c, 7, 6400
9, 24784, Pitch_bend_c, 7, 6784
9, 24786, Pitch_bend_c, 7, 6912
9, 24792, Pitch_bend_c, 7, 7040
9, 24794, Pitch_bend_c, 7, 7168
9, 24800, Pitch_bend_c, 7, 7296
9, 24809, Pitch_bend_c, 7, 7424
9, 24830, Pitch_bend_c, 7, 7808
9, 24836, Pitch_bend_c, 7, 8064
9, 24838, Pitch_bend_c, 7, 8192
9, 24935, Note_on_c, 7, 73, 0
9, 24966, Note_on_c, 7, 76, 77
9, 25000, Note_on_c, 7, 76, 0
9, 25009, Pitch_bend_c, 7, 7936
9, 25011, Pitch_bend_c, 7, 7680
9, 25012, Pitch_bend_c, 7, 7424
9, 25015, Pitch_bend_c, 7, 7040
9, 25017, Pitch_bend_c, 7, 6784
9, 25019, Pitch_bend_c, 7, 6400
9, 25021, Pitch_bend_c, 7, 6016
9, 25023, Pitch_bend_c, 7, 5632
9, 25025, Pitch_bend_c, 7, 5376
9, 25026, Note_on_c, 7, 73, 74
9, 25027, Pitch_bend_c, 7, 4992
9, 25029, Pitch_bend_c, 7, 4864
9, 25031, Pitch_bend_c, 7, 4608
9, 25035, Pitch_bend_c, 7, 4352
9, 25045, Pitch_bend_c, 7, 4480
9, 25054, Pitch_bend_c, 7, 5504
9, 25056, Pitch_bend_c, 7, 5760
9, 25058, Pitch_bend_c, 7, 6016
9, 25060, Pitch_bend_c, 7, 6400
9, 25062, Pitch_bend_c, 7, 6656
9, 25064, Pitch_bend_c, 7, 6912
9, 25066, Pitch_bend_c, 7, 7296
9, 25068, Pitch_bend_c, 7, 7552
9, 25070, Pitch_bend_c, 7, 7808
9, 25072, Pitch_bend_c, 7, 8064
9, 25074, Pitch_bend_c, 7, 8192
9, 25084, Note_on_c, 7, 73, 0
9, 25087, Note_on_c, 7, 71, 69
9, 25126, Note_on_c, 7, 71, 0
9, 25142, Note_on_c, 7, 69, 117
9, 25180, Note_on_c, 7, 69, 0
9, 25203, Note_on_c, 7, 71, 79
9, 25236, Note_on_c, 7, 71, 0
9, 25257, Note_on_c, 7, 69, 84
9, 25284, Pitch_bend_c, 7, 8320
9, 25286, Pitch_bend_c, 7, 8704
9, 25288, Pitch_bend_c, 7, 9216
9, 25290, Pitch_bend_c, 7, 9728
9, 25292, Pitch_bend_c, 7, 10112
9, 25294, Pitch_bend_c, 7, 10624
9, 25296, Pitch_bend_c, 7, 11136
9, 25298, Pitch_bend_c, 7, 11520
9, 25299, Pitch_bend_c, 7, 11904
9, 25302, Pitch_bend_c, 7, 12160
9, 25304, Pitch_bend_c, 7, 12288
9, 25308, Pitch_bend_c, 7, 12544
9, 25309, Note_on_c, 7, 69, 0
9, 25314, Pitch_bend_c, 7, 12416
9, 25315, Pitch_bend_c, 7, 12160
9, 25317, Pitch_bend_c, 7, 11904
9, 25319, Pitch_bend_c, 7, 11648
9, 25321, Pitch_bend_c, 7, 11264
9, 25323, Pitch_bend_c, 7, 11008
9, 25325, Pitch_bend_c, 7, 10752
9, 25327, Pitch_bend_c, 7, 10368
9, 25328, Note_on_c, 7, 66, 79
9, 25329, Pitch_bend_c, 7, 9984
9, 25331, Pitch_bend_c, 7, 9600
9, 25333, Pitch_bend_c, 7, 9344
9, 25335, Pitch_bend_c, 7, 8960
9, 25337, Pitch_bend_c, 7, 8704
9, 25339, Pitch_bend_c, 7, 8320
9, 25341, Pitch_bend_c, 7, 8192
9, 25669, Note_on_c, 7, 66, 0
9, 26338, Note_on_c, 7, 66, 89
9, 26400, Pitch_bend_c, 7, 8064
9, 26402, Pitch_bend_c, 7, 7808
9, 26404, Pitch_bend_c, 7, 7424
9, 26406, Pitch_bend_c, 7, 6912
9, 26408, Pitch_bend_c, 7, 6400
9, 26410, Pitch_bend_c, 7, 5888
9, 26412, Pitch_bend_c, 7, 5376
9, 26414, Pitch_bend_c, 7, 4864
9, 26416, Pitch_bend_c, 7, 4352
9, 26418, Pitch_bend_c, 7, 3840
9, 26420, Pitch_bend_c, 7, 3200
9, 26422, Pitch_bend_c, 7, 2816
9, 26424, Pitch_bend_c, 7, 2304
9, 26426, Pitch_bend_c, 7, 1920
9, 26428, Pitch_bend_c, 7, 1536
9, 26430, Pitch_bend_c, 7, 1152
9, 26432, Pitch_bend_c, 7, 896
9, 26434, Pitch_bend_c, 7, 640
9, 26436, Pitch_bend_c, 7, 512
9, 26440, Pitch_bend_c, 7, 128
9, 26442, Pitch_bend_c, 7, 0
9, 26709, Note_on_c, 7, 66, 0
9, 26766, Pitch_bend_c, 7, 128
9, 26768, Pitch_bend_c, 7, 256
9, 26770, Pitch_bend_c, 7, 384
9, 26772, Pitch_bend_c, 7, 640
9, 26774, Pitch_bend_c, 7, 896
9, 26776, Pitch_bend_c, 7, 1280
9, 26778, Pitch_bend_c, 7, 1536
9, 26780, Pitch_bend_c, 7, 1792
9, 26782, Pitch_bend_c, 7, 2048
9, 26784, Pitch_bend_c, 7, 2304
9, 26786, Pitch_bend_c, 7, 2560
9, 26788, Pitch_bend_c, 7, 2688
9, 26792, Pitch_bend_c, 7, 2944
9, 26794, Pitch_bend_c, 7, 3072
9, 26798, Pitch_bend_c, 7, 3328
9, 26800, Pitch_bend_c, 7, 3456
9, 26803, Pitch_bend_c, 7, 3712
9, 26809, Pitch_bend_c, 7, 3968
9, 26812, Pitch_bend_c, 7, 4096
9, 26815, Pitch_bend_c, 7, 4224
9, 26817, Pitch_bend_c, 7, 4352
9, 26821, Pitch_bend_c, 7, 4480
9, 26823, Pitch_bend_c, 7, 4608
9, 26827, Pitch_bend_c, 7, 4736
9, 26829, Pitch_bend_c, 7, 4864
9, 26833, Pitch_bend_c, 7, 5120
9, 26835, Pitch_bend_c, 7, 5248
9, 26839, Pitch_bend_c, 7, 5632
9, 26841, Pitch_bend_c, 7, 5888
9, 26843, Pitch_bend_c, 7, 6016
9, 26847, Pitch_bend_c, 7, 6272
9, 26849, Pitch_bend_c, 7, 6400
9, 26878, Pitch_bend_c, 7, 6016
9, 26880, Pitch_bend_c, 7, 5760
9, 26882, Pitch_bend_c, 7, 5632
9, 26884, Pitch_bend_c, 7, 5376
9, 26886, Pitch_bend_c, 7, 5248
9, 26888, Pitch_bend_c, 7, 4992
9, 26889, Pitch_bend_c, 7, 4864
9, 26892, Pitch_bend_c, 7, 4608
9, 26894, Pitch_bend_c, 7, 4352
9, 26896, Pitch_bend_c, 7, 4096
9, 26898, Pitch_bend_c, 7, 3840
9, 26899, Pitch_bend_c, 7, 3584
9, 26902, Pitch_bend_c, 7, 3328
9, 26904, Pitch_bend_c, 7, 3072
9, 26906, Pitch_bend_c, 7, 2944
9, 26908, Pitch_bend_c, 7, 2688
9, 26911, Pitch_bend_c, 7, 2432
9, 26917, Pitch_bend_c, 7, 2176
9, 26927, Pitch_bend_c, 7, 2048
9, 26941, Note_on_c, 7, 61, 84
9, 26948, Pitch_bend_c, 7, 2688
9, 26950, Pitch_bend_c, 7, 2944
9, 26952, Pitch_bend_c, 7, 3072
9, 26954, Pitch_bend_c, 7, 3328
9, 26956, Pitch_bend_c, 7, 3584
9, 26958, Pitch_bend_c, 7, 3840
9, 26960, Pitch_bend_c, 7, 4096
9, 26962, Pitch_bend_c, 7, 4480
9, 26964, Pitch_bend_c, 7, 4736
9, 26966, Pitch_bend_c, 7, 4992
9, 26968, Pitch_bend_c, 7, 5376
9, 26971, Pitch_bend_c, 7, 5632
9, 26972, Pitch_bend_c, 7, 5888
9, 26974, Pitch_bend_c, 7, 6144
9, 26976, Pitch_bend_c, 7, 6400
9, 26978, Pitch_bend_c, 7, 6656
9, 26980, Pitch_bend_c, 7, 6784
9, 26982, Pitch_bend_c, 7, 7040
9, 26984, Pitch_bend_c, 7, 7168
9, 26986, Pitch_bend_c, 7, 7424
9, 26988, Pitch_bend_c, 7, 7552
9, 26990, Pitch_bend_c, 7, 7808
9, 26994, Pitch_bend_c, 7, 8064
9, 26996, Pitch_bend_c, 7, 8192
9, 27007, Note_on_c, 7, 61, 0
9, 27015, Pitch_bend_c, 7, 8064
9, 27017, Pitch_bend_c, 7, 7680
9, 27019, Pitch_bend_c, 7, 7296
9, 27021, Pitch_bend_c, 7, 6784
9, 27023, Pitch_bend_c, 7, 6144
9, 27025, Pitch_bend_c, 7, 5504
9, 27027, Pitch_bend_c, 7, 4992
9, 27029, Pitch_bend_c, 7, 4352
9, 27031, Pitch_bend_c, 7, 3712
9, 27033, Pitch_bend_c, 7, 3200
9, 27035, Note_on_c, 7, 61, 84
9, 27035, Pitch_bend_c, 7, 2560
9, 27037, Pitch_bend_c, 7, 2176
9, 27039, Pitch_bend_c, 7, 1920
9, 27041, Pitch_bend_c, 7, 1664
9, 27043, Pitch_bend_c, 7, 1408
9, 27049, Pitch_bend_c, 7, 1280
9, 27055, Pitch_bend_c, 7, 1664
9, 27057, Pitch_bend_c, 7, 1920
9, 27058, Pitch_bend_c, 7, 2176
9, 27060, Pitch_bend_c, 7, 2432
9, 27062, Pitch_bend_c, 7, 2816
9, 27065, Pitch_bend_c, 7, 3200
9, 27067, Pitch_bend_c, 7, 3584
9, 27068, Pitch_bend_c, 7, 3968
9, 27070, Pitch_bend_c, 7, 4352
9, 27072, Pitch_bend_c, 7, 4864
9, 27074, Pitch_bend_c, 7, 5248
9, 27076, Pitch_bend_c, 7, 5632
9, 27078, Pitch_bend_c, 7, 6016
9, 27080, Pitch_bend_c, 7, 6400
9, 27082, Pitch_bend_c, 7, 6784
9, 27084, Pitch_bend_c, 7, 7040
9, 27086, Pitch_bend_c, 7, 7296
9, 27088, Pitch_bend_c, 7, 7552
9, 27090, Pitch_bend_c, 7, 7680
9, 27092, Pitch_bend_c, 7, 7936
9, 27096, Pitch_bend_c, 7, 8192
9, 27118, Note_on_c, 7, 61, 0
9, 27123, Note_on_c, 7, 59, 72
9, 27150, Note_on_c, 7, 59, 0
9, 27176, Note_on_c, 7, 57, 58
9, 27209, Pitch_bend_c, 7, 8320
9, 27211, Pitch_bend_c, 7, 8576
9, 27213, Pitch_bend_c, 7, 8832
9, 27215, Pitch_bend_c, 7, 9088
9, 27217, Pitch_bend_c, 7, 9344
9, 27219, Note_on_c, 7, 57, 0
9, 27219, Pitch_bend_c, 7, 9600
9, 27221, Pitch_bend_c, 7, 9984
9, 27223, Pitch_bend_c, 7, 10240
9, 27225, Pitch_bend_c, 7, 10496
9, 27227, Pitch_bend_c, 7, 10752
9, 27229, Pitch_bend_c, 7, 11008
9, 27231, Pitch_bend_c, 7, 11136
9, 27233, Pitch_bend_c, 7, 11392
9, 27235, Pitch_bend_c, 7, 11520
9, 27237, Pitch_bend_c, 7, 11776
9, 27244, Note_on_c, 7, 54, 72
9, 27245, Pitch_bend_c, 7, 11648
9, 27254, Pitch_bend_c, 7, 10624
9, 27257, Pitch_bend_c, 7, 10112
9, 27259, Pitch_bend_c, 7, 9600
9, 27260, Pitch_bend_c, 7, 8960
9, 27263, Pitch_bend_c, 7, 8448
9, 27264, Pitch_bend_c, 7, 8192
9, 27331, Note_on_c, 7, 54, 0
9, 27660, Note_on_c, 7, 63, 69
9, 27717, Note_on_c, 7, 54, 58
9, 27776, Pitch_bend_c, 7, 8064
9, 27778, Pitch_bend_c, 7, 7680
9, 27780, Pitch_bend_c, 7, 7296
9, 27782, Pitch_bend_c, 7, 6912
9, 27783, Pitch_bend_c, 7, 6400
9, 27785, Pitch_bend_c, 7, 6016
9, 27787, Pitch_bend_c, 7, 5504
9, 27790, Pitch_bend_c, 7, 4992
9, 27792, Pitch_bend_c, 7, 4608
9, 27793, Pitch_bend_c, 7, 4224
9, 27795, Pitch_bend_c, 7, 3840
9, 27797, Pitch_bend_c, 7, 3456
9, 27799, Pitch_bend_c, 7, 3072
9, 27801, Pitch_bend_c, 7, 2816
9, 27803, Pitch_bend_c, 7, 2432
9, 27805, Pitch_bend_c, 7, 2176
9, 27807, Pitch_bend_c, 7, 1920
9, 27809, Pitch_bend_c, 7, 1664
9, 27811, Pitch_bend_c, 7, 1408
9, 27813, Pitch_bend_c, 7, 1152
9, 27815, Pitch_bend_c, 7, 1024
9, 27817, Pitch_bend_c, 7, 768
9, 27819, Pitch_bend_c, 7, 640
9, 27823, Pitch_bend_c, 7, 384
9, 27825, Pitch_bend_c, 7, 256
9, 27829, Pitch_bend_c, 7, 0
9, 28096, Note_on_c, 7, 54, 0
9, 28097, Note_on_c, 7, 63, 0
9, 28140, Pitch_bend_c, 7, 128
9, 28142, Pitch_bend_c, 7, 384
9, 28144, Pitch_bend_c, 7, 768
9, 28146, Pitch_bend_c, 7, 1152
9, 28148, Pitch_bend_c, 7, 1408
9, 28151, Pitch_bend_c, 7, 1792
9, 28152, Pitch_bend_c, 7, 2176
9, 28154, Pitch_bend_c, 7, 2560
9, 28156, Pitch_bend_c, 7, 2944
9, 28158, Pitch_bend_c, 7, 3328
9, 28161, Pitch_bend_c, 7, 3584
9, 28162, Pitch_bend_c, 7, 3968
9, 28164, Pitch_bend_c, 7, 4352
9, 28166, Pitch_bend_c, 7, 4608
9, 28168, Pitch_bend_c, 7, 4992
9, 28170, Pitch_bend_c, 7, 5376
9, 28172, Pitch_bend_c, 7, 5632
9, 28174, Pitch_bend_c, 7, 6016
9, 28176, Pitch_bend_c, 7, 6400
9, 28178, Pitch_bend_c, 7, 6784
9, 28180, Pitch_bend_c, 7, 7168
9, 28182, Pitch_bend_c, 7, 7680
9, 28184, Pitch_bend_c, 7, 8064
9, 28186, Pitch_bend_c, 7, 8192
9, 28498, Note_on_c, 7, 52, 64
9, 28533, Note_on_c, 7, 52, 0
9, 28540, Pitch_bend_c, 7, 8064
9, 28541, Pitch_bend_c, 7, 7808
9, 28543, Pitch_bend_c, 7, 7424
9, 28545, Pitch_bend_c, 7, 7040
9, 28547, Pitch_bend_c, 7, 6784
9, 28549, Pitch_bend_c, 7, 6400
9, 28551, Pitch_bend_c, 7, 6016
9, 28553, Pitch_bend_c, 7, 5760
9, 28555, Pitch_bend_c, 7, 5376
9, 28557, Pitch_bend_c, 7, 5120
9, 28559, Pitch_bend_c, 7, 4992
9, 28561, Note_on_c, 7, 61, 72
9, 28563, Pitch_bend_c, 7, 4736
9, 28569, Pitch_bend_c, 7, 5120
9, 28571, Pitch_bend_c, 7, 5376
9, 28573, Pitch_bend_c, 7, 5760
9, 28575, Pitch_bend_c, 7, 6144
9, 28577, Pitch_bend_c, 7, 6656
9, 28579, Pitch_bend_c, 7, 7040
9, 28581, Pitch_bend_c, 7, 7552
9, 28583, Pitch_bend_c, 7, 7936
9, 28585, Pitch_bend_c, 7, 8192
9, 28606, Note_on_c, 7, 61, 0
9, 28621, Note_on_c, 7, 57, 48
9, 28643, Note_on_c, 7, 57, 0
9, 28687, Note_on_c, 7, 59, 66
9, 28717, Note_on_c, 7, 59, 0
9, 28747, Note_on_c, 7, 57, 61
9, 28763, Pitch_bend_c, 7, 8448
9, 28765, Pitch_bend_c, 7, 8704
9, 28767, Pitch_bend_c, 7, 8960
9, 28769, Pitch_bend_c, 7, 9216
9, 28771, Pitch_bend_c, 7, 9344
9, 28773, Pitch_bend_c, 7, 9472
9, 28775, Pitch_bend_c, 7, 9728
9, 28777, Pitch_bend_c, 7, 9856
9, 28779, Pitch_bend_c, 7, 9984
9, 28781, Pitch_bend_c, 7, 10240
9, 28783, Pitch_bend_c, 7, 10368
9, 28786, Note_on_c, 7, 57, 0
9, 28787, Pitch_bend_c, 7, 10496
9, 28795, Pitch_bend_c, 7, 10240
9, 28797, Pitch_bend_c, 7, 9984
9, 28799, Pitch_bend_c, 7, 9600
9, 28805, Note_on_c, 7, 54, 77
9, 28919, Note_on_c, 7, 54, 0
9, 28975, Note_on_c, 7, 54, 39
9, 28993, Note_on_c, 7, 54, 0
9, 29014, Pitch_bend_c, 7, 7808
9, 29016, Pitch_bend_c, 7, 7424
9, 29018, Pitch_bend_c, 7, 6912
9, 29020, Pitch_bend_c, 7, 6400
9, 29022, Pitch_bend_c, 7, 5888
9, 29024, Pitch_bend_c, 7, 5376
9, 29026, Pitch_bend_c, 7, 4864
9, 29028, Pitch_bend_c, 7, 4352
9, 29030, Pitch_bend_c, 7, 3968
9, 29032, Pitch_bend_c, 7, 3584
9, 29034, Pitch_bend_c, 7, 3328
9, 29036, Pitch_bend_c, 7, 3072
9, 29036, Note_on_c, 7, 61, 74
9, 29044, Pitch_bend_c, 7, 3200
9, 29052, Pitch_bend_c, 7, 4352
9, 29054, Pitch_bend_c, 7, 4736
9, 29056, Pitch_bend_c, 7, 5120
9, 29058, Pitch_bend_c, 7, 5632
9, 29060, Pitch_bend_c, 7, 6016
9, 29062, Pitch_bend_c, 7, 6528
9, 29064, Pitch_bend_c, 7, 6912
9, 29066, Pitch_bend_c, 7, 7168
9, 29068, Pitch_bend_c, 7, 7552
9, 29070, Pitch_bend_c, 7, 7808
9, 29072, Pitch_bend_c, 7, 7936
9, 29074, Pitch_bend_c, 7, 8192
9, 29081, Note_on_c, 7, 61, 0
9, 29099, Note_on_c, 7, 64, 93
9, 29130, Note_on_c, 7, 64, 0
9, 29158, Note_on_c, 7, 66, 111
9, 29189, Pitch_bend_c, 7, 7040
9, 29191, Pitch_bend_c, 7, 6016
9, 29193, Pitch_bend_c, 7, 4992
9, 29195, Pitch_bend_c, 7, 3968
9, 29197, Pitch_bend_c, 7, 2944
9, 29199, Pitch_bend_c, 7, 1920
9, 29201, Pitch_bend_c, 7, 1024
9, 29203, Pitch_bend_c, 7, 128
9, 29205, Pitch_bend_c, 7, 0
9, 29220, Pitch_bend_c, 7, 384
9, 29222, Pitch_bend_c, 7, 2816
9, 29225, Pitch_bend_c, 7, 7040
9, 29227, Pitch_bend_c, 7, 8192
9, 29423, Note_on_c, 7, 66, 0
9, 29459, Note_on_c, 7, 69, 96
9, 29478, Note_on_c, 7, 69, 0
9, 29896, Pitch_bend_c, 7, 7936
9, 29898, Pitch_bend_c, 7, 7680
9, 29900, Pitch_bend_c, 7, 7424
9, 29902, Pitch_bend_c, 7, 7040
9, 29904, Pitch_bend_c, 7, 6656
9, 29906, Pitch_bend_c, 7, 6272
9, 29908, Pitch_bend_c, 7, 5888
9, 29910, Pitch_bend_c, 7, 5504
9, 29912, Pitch_bend_c, 7, 4992
9, 29914, Pitch_bend_c, 7, 4608
9, 29916, Pitch_bend_c, 7, 4224
9, 29919, Pitch_bend_c, 7, 3840
9, 29921, Pitch_bend_c, 7, 3584
9, 29923, Pitch_bend_c, 7, 3328
9, 29925, Pitch_bend_c, 7, 3072
9, 29926, Pitch_bend_c, 7, 2944
9, 29930, Pitch_bend_c, 7, 2688
9, 29940, Note_on_c, 7, 73, 102
9, 29941, Pitch_bend_c, 7, 2816
9, 29948, Pitch_bend_c, 7, 3712
9, 29950, Pitch_bend_c, 7, 4096
9, 29952, Pitch_bend_c, 7, 4608
9, 29955, Pitch_bend_c, 7, 4992
9, 29957, Pitch_bend_c, 7, 5504
9, 29959, Pitch_bend_c, 7, 6016
9, 29961, Pitch_bend_c, 7, 6528
9, 29963, Pitch_bend_c, 7, 7040
9, 29965, Pitch_bend_c, 7, 7424
9, 29967, Pitch_bend_c, 7, 7936
9, 29969, Pitch_bend_c, 7, 8192
9, 30120, Note_on_c, 7, 73, 0
9, 30145, Note_on_c, 7, 71, 96
9, 30170, Note_on_c, 7, 71, 0
9, 30185, Note_on_c, 7, 69, 99
9, 30204, Pitch_bend_c, 7, 8320
9, 30205, Pitch_bend_c, 7, 8832
9, 30208, Pitch_bend_c, 7, 9344
9, 30210, Pitch_bend_c, 7, 9856
9, 30211, Pitch_bend_c, 7, 10368
9, 30214, Pitch_bend_c, 7, 10880
9, 30216, Pitch_bend_c, 7, 11520
9, 30218, Pitch_bend_c, 7, 11904
9, 30220, Pitch_bend_c, 7, 12416
9, 30221, Pitch_bend_c, 7, 12672
9, 30224, Pitch_bend_c, 7, 13056
9, 30226, Pitch_bend_c, 7, 13184
9, 30230, Pitch_bend_c, 7, 13440
9, 30234, Pitch_bend_c, 7, 13056
9, 30235, Note_on_c, 7, 69, 0
9, 30236, Pitch_bend_c, 7, 12672
9, 30238, Pitch_bend_c, 7, 12032
9, 30240, Pitch_bend_c, 7, 10624
9, 30242, Pitch_bend_c, 7, 8448
9, 30243, Pitch_bend_c, 7, 8192
9, 30245, Note_on_c, 7, 66, 72
9, 30418, Note_on_c, 7, 66, 0
9, 30787, Note_on_c, 7, 61, 64
9, 30813, Note_on_c, 7, 63, 72
9, 30825, Note_on_c, 7, 61, 0
9, 30844, Note_on_c, 7, 66, 89
9, 30851, Note_on_c, 7, 63, 0
9, 30871, Note_on_c, 7, 66, 0
9, 30899, Note_on_c, 7, 66, 111
9, 30984, Note_on_c, 7, 66, 0
9, 31021, Note_on_c, 7, 61, 35
9, 31043, Note_on_c, 7, 61, 0
9, 31047, Note_on_c, 7, 63, 58
9, 31081, Note_on_c, 7, 66, 66
9, 31082, Note_on_c, 7, 63, 0
9, 31099, Note_on_c, 7, 66, 0
9, 31121, Pitch_bend_c, 7, 7936
9, 31122, Pitch_bend_c, 7, 7680
9, 31125, Pitch_bend_c, 7, 7424
9, 31127, Pitch_bend_c, 7, 7168
9, 31129, Pitch_bend_c, 7, 6912
9, 31131, Pitch_bend_c, 7, 6528
9, 31133, Pitch_bend_c, 7, 6144
9, 31135, Pitch_bend_c, 7, 5888
9, 31137, Pitch_bend_c, 7, 5632
9, 31139, Pitch_bend_c, 7, 5248
9, 31141, Pitch_bend_c, 7, 4992
9, 31143, Pitch_bend_c, 7, 4864
9, 31143, Note_on_c, 7, 75, 79
9, 31145, Pitch_bend_c, 7, 4608
9, 31149, Pitch_bend_c, 7, 4352
9, 31151, Pitch_bend_c, 7, 4224
9, 31155, Pitch_bend_c, 7, 4096
9, 31177, Pitch_bend_c, 7, 4608
9, 31179, Pitch_bend_c, 7, 4736
9, 31182, Pitch_bend_c, 7, 4992
9, 31184, Pitch_bend_c, 7, 5120
9, 31187, Pitch_bend_c, 7, 5376
9, 31189, Pitch_bend_c, 7, 5504
9, 31191, Pitch_bend_c, 7, 5760
9, 31193, Pitch_bend_c, 7, 6016
9, 31195, Pitch_bend_c, 7, 6272
9, 31197, Pitch_bend_c, 7, 6400
9, 31199, Pitch_bend_c, 7, 6656
9, 31201, Pitch_bend_c, 7, 6784
9, 31205, Pitch_bend_c, 7, 7168
9, 31207, Pitch_bend_c, 7, 7296
9, 31209, Pitch_bend_c, 7, 7424
9, 31211, Pitch_bend_c, 7, 7680
9, 31213, Pitch_bend_c, 7, 7808
9, 31215, Pitch_bend_c, 7, 7936
9, 31217, Pitch_bend_c, 7, 8192
9, 31249, Note_on_c, 7, 75, 0
9, 31258, Note_on_c, 7, 73, 93
9, 31289, Note_on_c, 7, 73, 0
9, 31298, Pitch_bend_c, 7, 7936
9, 31300, Pitch_bend_c, 7, 7680
9, 31302, Pitch_bend_c, 7, 7296
9, 31304, Pitch_bend_c, 7, 6912
9, 31306, Pitch_bend_c, 7, 6528
9, 31308, Pitch_bend_c, 7, 6144
9, 31310, Pitch_bend_c, 7, 5888
9, 31313, Pitch_bend_c, 7, 5504
9, 31315, Pitch_bend_c, 7, 5248
9, 31317, Pitch_bend_c, 7, 4992
9, 31319, Pitch_bend_c, 7, 4736
9, 31323, Note_on_c, 7, 69, 89
9, 31323, Pitch_bend_c, 7, 4608
9, 31342, Pitch_bend_c, 7, 5120
9, 31344, Pitch_bend_c, 7, 5248
9, 31346, Pitch_bend_c, 7, 5504
9, 31351, Pitch_bend_c, 7, 5760
9, 31353, Pitch_bend_c, 7, 5888
9, 31355, Pitch_bend_c, 7, 6144
9, 31356, Pitch_bend_c, 7, 6400
9, 31358, Pitch_bend_c, 7, 6528
9, 31360, Pitch_bend_c, 7, 6784
9, 31363, Pitch_bend_c, 7, 7040
9, 31365, Pitch_bend_c, 7, 7296
9, 31367, Pitch_bend_c, 7, 7552
9, 31369, Pitch_bend_c, 7, 7808
9, 31371, Pitch_bend_c, 7, 8064
9, 31373, Pitch_bend_c, 7, 8192
9, 31375, Note_on_c, 7, 69, 0
9, 31382, Note_on_c, 7, 68, 66
9, 31417, Note_on_c, 7, 68, 0
9, 31435, Note_on_c, 7, 66, 96
9, 31574, Note_on_c, 7, 66, 0
9, 31623, Note_on_c, 7, 66, 58
9, 31650, Note_on_c, 7, 66, 0
9, 31650, Pitch_bend_c, 7, 7936
9, 31652, Pitch_bend_c, 7, 7552
9, 31654, Pitch_bend_c, 7, 7296
9, 31656, Pitch_bend_c, 7, 6912
9, 31658, Pitch_bend_c, 7, 6656
9, 31660, Pitch_bend_c, 7, 6272
9, 31662, Pitch_bend_c, 7, 6016
9, 31664, Pitch_bend_c, 7, 5632
9, 31666, Pitch_bend_c, 7, 5376
9, 31668, Pitch_bend_c, 7, 5120
9, 31670, Pitch_bend_c, 7, 4864
9, 31672, Pitch_bend_c, 7, 4608
9, 31675, Pitch_bend_c, 7, 4480
9, 31679, Pitch_bend_c, 7, 4224
9, 31684, Note_on_c, 7, 69, 74
9, 31687, Pitch_bend_c, 7, 4480
9, 31689, Pitch_bend_c, 7, 4608
9, 31691, Pitch_bend_c, 7, 4864
9, 31693, Pitch_bend_c, 7, 5120
9, 31695, Pitch_bend_c, 7, 5504
9, 31697, Pitch_bend_c, 7, 5760
9, 31699, Pitch_bend_c, 7, 6144
9, 31701, Pitch_bend_c, 7, 6528
9, 31703, Pitch_bend_c, 7, 6912
9, 31705, Pitch_bend_c, 7, 7296
9, 31707, Pitch_bend_c, 7, 7552
9, 31709, Pitch_bend_c, 7, 7936
9, 31711, Pitch_bend_c, 7, 8192
9, 31729, Note_on_c, 7, 69, 0
9, 31741, Note_on_c, 7, 71, 77
9, 31781, Note_on_c, 7, 71, 0
9, 31799, Note_on_c, 7, 73, 89
9, 31831, Note_on_c, 7, 73, 0
9, 31838, Pitch_bend_c, 7, 7936
9, 31840, Pitch_bend_c, 7, 7424
9, 31842, Pitch_bend_c, 7, 7040
9, 31844, Pitch_bend_c, 7, 6784
9, 31846, Pitch_bend_c, 7, 6400
9, 31848, Pitch_bend_c, 7, 6144
9, 31850, Pitch_bend_c, 7, 5888
9, 31852, Pitch_bend_c, 7, 5632
9, 31854, Pitch_bend_c, 7, 5504
9, 31858, Pitch_bend_c, 7, 5248
9, 31861, Note_on_c, 7, 69, 77
9, 31868, Pitch_bend_c, 7, 5376
9, 31870, Pitch_bend_c, 7, 5504
9, 31872, Pitch_bend_c, 7, 5760
9, 31874, Pitch_bend_c, 7, 6016
9, 31876, Pitch_bend_c, 7, 6400
9, 31878, Pitch_bend_c, 7, 6784
9, 31880, Pitch_bend_c, 7, 7296
9, 31882, Pitch_bend_c, 7, 7808
9, 31884, Pitch_bend_c, 7, 8192
9, 31905, Note_on_c, 7, 69, 0
9, 31920, Note_on_c, 7, 66, 77
9, 31946, Note_on_c, 7, 66, 0
9, 31979, Note_on_c, 7, 61, 81
9, 32017, Note_on_c, 7, 61, 0
9, 32035, Note_on_c, 7, 63, 72
9, 32078, Note_on_c, 7, 63, 0
9, 32099, Note_on_c, 7, 66, 66
9, 32411, Note_on_c, 7, 66, 0
9, 32462, Note_on_c, 7, 76, 102
9, 32463, Note_on_c, 7, 73, 89
9, 32548, Note_on_c, 7, 73, 0
9, 32554, Note_on_c, 7, 76, 0
9, 32571, Note_on_c, 7, 71, 74
9, 32572, Note_on_c, 7, 75, 55
9, 32574, Note_on_c, 7, 73, 43
9, 32579, Note_on_c, 7, 73, 0
9, 32625, Note_on_c, 7, 71, 0
9, 32626, Note_on_c, 7, 75, 0
9, 32650, Note_on_c, 7, 69, 81
9, 32650, Note_on_c, 7, 73, 72
9, 32673, Note_on_c, 7, 69, 0
9, 32675, Note_on_c, 7, 70, 72
9, 32728, Note_on_c, 7, 70, 0
9, 32737, Note_on_c, 7, 73, 0
9, 32759, Note_on_c, 7, 71, 58
9, 32760, Note_on_c, 7, 75, 61
9, 32796, Note_on_c, 7, 71, 0
9, 32807, Note_on_c, 7, 75, 0
9, 32827, Note_on_c, 7, 69, 89
9, 32829, Note_on_c, 7, 73, 35
9, 32841, Note_on_c, 7, 69, 0
9, 32841, Note_on_c, 7, 70, 84
9, 32900, Note_on_c, 7, 70, 0
9, 32915, Note_on_c, 7, 73, 0
9, 32952, Note_on_c, 7, 76, 77
9, 32996, Note_on_c, 7, 76, 0
9, 33007, Note_on_c, 7, 75, 79
9, 33043, Note_on_c, 7, 75, 0
9, 33050, Pitch_bend_c, 7, 7936
9, 33052, Pitch_bend_c, 7, 7552
9, 33054, Pitch_bend_c, 7, 7296
9, 33056, Pitch_bend_c, 7, 6912
9, 33058, Pitch_bend_c, 7, 6656
9, 33060, Pitch_bend_c, 7, 6272
9, 33062, Pitch_bend_c, 7, 5888
9, 33064, Pitch_bend_c, 7, 5632
9, 33066, Pitch_bend_c, 7, 5248
9, 33068, Pitch_bend_c, 7, 4992
9, 33070, Pitch_bend_c, 7, 4736
9, 33071, Note_on_c, 7, 73, 84
9, 33073, Pitch_bend_c, 7, 4480
9, 33075, Pitch_bend_c, 7, 4352
9, 33077, Pitch_bend_c, 7, 4224
9, 33081, Pitch_bend_c, 7, 3968
9, 33082, Pitch_bend_c, 7, 3840
9, 33091, Pitch_bend_c, 7, 3712
9, 33103, Pitch_bend_c, 7, 4224
9, 33105, Pitch_bend_c, 7, 4352
9, 33109, Pitch_bend_c, 7, 4608
9, 33111, Pitch_bend_c, 7, 4736
9, 33113, Pitch_bend_c, 7, 4992
9, 33115, Pitch_bend_c, 7, 5248
9, 33117, Pitch_bend_c, 7, 5376
9, 33119, Pitch_bend_c, 7, 5632
9, 33122, Pitch_bend_c, 7, 5760
9, 33124, Pitch_bend_c, 7, 6016
9, 33126, Pitch_bend_c, 7, 6144
9, 33128, Pitch_bend_c, 7, 6272
9, 33130, Pitch_bend_c, 7, 6528
9, 33131, Pitch_bend_c, 7, 6656
9, 33134, Pitch_bend_c, 7, 6784
9, 33138, Pitch_bend_c, 7, 7040
9, 33140, Pitch_bend_c, 7, 7168
9, 33144, Pitch_bend_c, 7, 7296
9, 33146, Pitch_bend_c, 7, 7424
9, 33150, Pitch_bend_c, 7, 7552
9, 33151, Pitch_bend_c, 7, 7680
9, 33156, Pitch_bend_c, 7, 7808
9, 33158, Pitch_bend_c, 7, 7936
9, 33164, Pitch_bend_c, 7, 8064
9, 33166, Pitch_bend_c, 7, 8192
9, 33378, Note_on_c, 7, 73, 0
9, 33417, Note_on_c, 7, 71, 102
9, 33450, Note_on_c, 7, 71, 0
9, 33451, Pitch_bend_c, 7, 7808
9, 33453, Pitch_bend_c, 7, 7552
9, 33456, Pitch_bend_c, 7, 7168
9, 33458, Pitch_bend_c, 7, 6784
9, 33460, Pitch_bend_c, 7, 6400
9, 33462, Pitch_bend_c, 7, 6016
9, 33464, Pitch_bend_c, 7, 5504
9, 33466, Pitch_bend_c, 7, 5248
9, 33468, Pitch_bend_c, 7, 4864
9, 33470, Pitch_bend_c, 7, 4480
9, 33472, Pitch_bend_c, 7, 4224
9, 33474, Pitch_bend_c, 7, 4096
9, 33478, Pitch_bend_c, 7, 3968
9, 33480, Note_on_c, 7, 69, 96
9, 33486, Pitch_bend_c, 7, 4224
9, 33488, Pitch_bend_c, 7, 4480
9, 33490, Pitch_bend_c, 7, 4736
9, 33493, Pitch_bend_c, 7, 4992
9, 33494, Pitch_bend_c, 7, 5248
9, 33496, Pitch_bend_c, 7, 5632
9, 33498, Pitch_bend_c, 7, 6016
9, 33500, Pitch_bend_c, 7, 6400
9, 33503, Pitch_bend_c, 7, 6784
9, 33505, Pitch_bend_c, 7, 7168
9, 33507, Pitch_bend_c, 7, 7552
9, 33509, Pitch_bend_c, 7, 7808
9, 33511, Pitch_bend_c, 7, 8064
9, 33513, Pitch_bend_c, 7, 8192
9, 33523, Note_on_c, 7, 69, 0
9, 33543, Note_on_c, 7, 68, 81
9, 33587, Note_on_c, 7, 68, 0
9, 33600, Note_on_c, 7, 66, 89
9, 33631, Note_on_c, 7, 66, 0
9, 33660, Note_on_c, 7, 61, 69
9, 33700, Note_on_c, 7, 61, 0
9, 33716, Note_on_c, 7, 63, 102
9, 33772, Note_on_c, 7, 63, 0
9, 33774, Note_on_c, 7, 66, 72
9, 33819, Note_on_c, 7, 66, 0
9, 33840, Note_on_c, 7, 73, 105
9, 33875, Note_on_c, 7, 73, 0
9, 33898, Note_on_c, 7, 71, 58
9, 33930, Note_on_c, 7, 71, 0
9, 33941, Pitch_bend_c, 7, 7936
9, 33943, Pitch_bend_c, 7, 7808
9, 33945, Pitch_bend_c, 7, 7424
9, 33947, Pitch_bend_c, 7, 7168
9, 33950, Pitch_bend_c, 7, 6784
9, 33951, Pitch_bend_c, 7, 6528
9, 33953, Pitch_bend_c, 7, 6144
9, 33955, Pitch_bend_c, 7, 5760
9, 33957, Pitch_bend_c, 7, 5376
9, 33959, Pitch_bend_c, 7, 4992
9, 33961, Pitch_bend_c, 7, 4736
9, 33963, Pitch_bend_c, 7, 4352
9, 33966, Pitch_bend_c, 7, 4224
9, 33966, Note_on_c, 7, 69, 91
9, 33968, Pitch_bend_c, 7, 3968
9, 33985, Pitch_bend_c, 7, 4736
9, 33987, Pitch_bend_c, 7, 4992
9, 33990, Pitch_bend_c, 7, 5248
9, 33992, Pitch_bend_c, 7, 5504
9, 33993, Pitch_bend_c, 7, 5632
9, 33995, Pitch_bend_c, 7, 5888
9, 33997, Pitch_bend_c, 7, 6016
9, 33999, Pitch_bend_c, 7, 6272
9, 34004, Pitch_bend_c, 7, 6528
9, 34006, Pitch_bend_c, 7, 6656
9, 34010, Pitch_bend_c, 7, 6912
9, 34015, Pitch_bend_c, 7, 7168
9, 34017, Pitch_bend_c, 7, 7296
9, 34021, Pitch_bend_c, 7, 7552
9, 34023, Pitch_bend_c, 7, 7680
9, 34027, Pitch_bend_c, 7, 7936
9, 34029, Pitch_bend_c, 7, 8192
9, 34061, Note_on_c, 7, 69, 0
9, 34075, Note_on_c, 7, 66, 102
9, 34352, Note_on_c, 7, 66, 0
9, 34383, Note_on_c, 7, 61, 39
9, 34410, Note_on_c, 7, 63, 58
9, 34419, Note_on_c, 7, 61, 0
9, 34439, Note_on_c, 7, 66, 69
9, 34443, Note_on_c, 7, 63, 0
9, 34469, Note_on_c, 7, 66, 0
9, 34502, Note_on_c, 7, 66, 96
9, 34625, Note_on_c, 7, 66, 0
9, 34627, Note_on_c, 7, 61, 26
9, 34650, Note_on_c, 7, 61, 0
9, 34653, Note_on_c, 7, 63, 64
9, 34682, Note_on_c, 7, 66, 89
9, 34685, Note_on_c, 7, 63, 0
9, 34708, Note_on_c, 7, 66, 0
9, 34745, Note_on_c, 7, 66, 64
9, 34921, Note_on_c, 7, 66, 0
9, 36299, Pitch_bend_c, 7, 8064
9, 36301, Pitch_bend_c, 7, 7680
9, 36304, Pitch_bend_c, 7, 7168
9, 36306, Pitch_bend_c, 7, 6784
9, 36308, Pitch_bend_c, 7, 6272
9, 36310, Pitch_bend_c, 7, 5760
9, 36312, Pitch_bend_c, 7, 5120
9, 36314, Pitch_bend_c, 7, 4608
9, 36316, Pitch_bend_c, 7, 3968
9, 36318, Pitch_bend_c, 7, 3456
9, 36320, Pitch_bend_c, 7, 2944
9, 36322, Pitch_bend_c, 7, 2304
9, 36324, Pitch_bend_c, 7, 1792
9, 36326, Pitch_bend_c, 7, 1280
9, 36328, Pitch_bend_c, 7, 896
9, 36330, Pitch_bend_c, 7, 512
9, 36332, Pitch_bend_c, 7, 128
9, 36334, Pitch_bend_c, 7, 0
9, 36362, Note_on_c, 7, 66, 74
9, 36390, Note_on_c, 7, 66, 0
9, 36402, Pitch_bend_c, 7, 128
9, 36403, Pitch_bend_c, 7, 384
9, 36405, Pitch_bend_c, 7, 640
9, 36407, Pitch_bend_c, 7, 896
9, 36409, Pitch_bend_c, 7, 1024
9, 36411, Pitch_bend_c, 7, 1280
9, 36414, Pitch_bend_c, 7, 1408
9, 36417, Pitch_bend_c, 7, 1536
9, 36421, Note_on_c, 7, 66, 102
9, 36424, Pitch_bend_c, 7, 1280
9, 36426, Pitch_bend_c, 7, 1024
9, 36428, Pitch_bend_c, 7, 640
9, 36430, Pitch_bend_c, 7, 256
9, 36432, Pitch_bend_c, 7, 0
9, 36528, Pitch_bend_c, 7, 128
9, 36530, Pitch_bend_c, 7, 384
9, 36532, Pitch_bend_c, 7, 768
9, 36534, Pitch_bend_c, 7, 1280
9, 36536, Pitch_bend_c, 7, 1664
9, 36539, Pitch_bend_c, 7, 2304
9, 36541, Pitch_bend_c, 7, 2816
9, 36543, Pitch_bend_c, 7, 3456
9, 36544, Pitch_bend_c, 7, 4224
9, 36546, Pitch_bend_c, 7, 4864
9, 36548, Pitch_bend_c, 7, 5632
9, 36550, Pitch_bend_c, 7, 6272
9, 36552, Pitch_bend_c, 7, 6912
9, 36555, Pitch_bend_c, 7, 7552
9, 36557, Pitch_bend_c, 7, 8064
9, 36559, Pitch_bend_c, 7, 8192
9, 36586, Note_on_c, 7, 66, 0
9, 38223, Note_on_c, 7, 54, 79
9, 38252, Note_on_c, 7, 54, 0
9, 38270, Pitch_bend_c, 7, 7936
9, 38272, Pitch_bend_c, 7, 7552
9, 38274, Pitch_bend_c, 7, 6912
9, 38276, Pitch_bend_c, 7, 6272
9, 38278, Pitch_bend_c, 7, 5632
9, 38280, Pitch_bend_c, 7, 4992
9, 38282, Pitch_bend_c, 7, 4480
9, 38284, Pitch_bend_c, 7, 3968
9, 38286, Pitch_bend_c, 7, 3456
9, 38286, Note_on_c, 7, 58, 74
9, 38288, Pitch_bend_c, 7, 3072
9, 38290, Pitch_bend_c, 7, 2688
9, 38292, Pitch_bend_c, 7, 2432
9, 38294, Pitch_bend_c, 7, 2304
9, 38302, Pitch_bend_c, 7, 2176
9, 38312, Pitch_bend_c, 7, 3200
9, 38314, Pitch_bend_c, 7, 3456
9, 38316, Pitch_bend_c, 7, 3840
9, 38318, Pitch_bend_c, 7, 4224
9, 38321, Pitch_bend_c, 7, 4608
9, 38323, Pitch_bend_c, 7, 4864
9, 38324, Pitch_bend_c, 7, 5248
9, 38326, Pitch_bend_c, 7, 5632
9, 38328, Pitch_bend_c, 7, 5888
9, 38330, Pitch_bend_c, 7, 6272
9, 38332, Pitch_bend_c, 7, 6528
9, 38335, Pitch_bend_c, 7, 6656
9, 38337, Pitch_bend_c, 7, 6912
9, 38339, Pitch_bend_c, 7, 7168
9, 38341, Pitch_bend_c, 7, 7296
9, 38342, Pitch_bend_c, 7, 7552
9, 38345, Pitch_bend_c, 7, 7680
9, 38345, Note_on_c, 7, 66, 79
9, 38347, Note_on_c, 7, 58, 0
9, 38347, Pitch_bend_c, 7, 7936
9, 38349, Pitch_bend_c, 7, 8192
9, 38740, Note_on_c, 7, 66, 0
9, 39955, Pitch_bend_c, 7, 7936
9, 39957, Pitch_bend_c, 7, 7808
9, 39959, Pitch_bend_c, 7, 7552
9, 39961, Pitch_bend_c, 7, 7424
9, 39963, Pitch_bend_c, 7, 7168
9, 39965, Pitch_bend_c, 7, 6912
9, 39967, Pitch_bend_c, 7, 6784
9, 39969, Pitch_bend_c, 7, 6528
9, 39971, Pitch_bend_c, 7, 6272
9, 39973, Pitch_bend_c, 7, 6144
9, 39975, Pitch_bend_c, 7, 5888
9, 39977, Pitch_bend_c, 7, 5760
9, 39979, Pitch_bend_c, 7, 5632
9, 39981, Pitch_bend_c, 7, 5376
9, 39983, Pitch_bend_c, 7, 5248
9, 39987, Pitch_bend_c, 7, 4992
9, 39989, Pitch_bend_c, 7, 4736
9, 39993, Pitch_bend_c, 7, 4480
9, 39999, Pitch_bend_c, 7, 4224
9, 40007, Pitch_bend_c, 7, 3968
9, 40017, Pitch_bend_c, 7, 3840
9, 40023, Note_on_c, 7, 69, 93
9, 40034, Pitch_bend_c, 7, 4480
9, 40036, Pitch_bend_c, 7, 4608
9, 40040, Pitch_bend_c, 7, 4864
9, 40042, Pitch_bend_c, 7, 5120
9, 40045, Pitch_bend_c, 7, 5248
9, 40047, Pitch_bend_c, 7, 5504
9, 40049, Pitch_bend_c, 7, 5760
9, 40051, Pitch_bend_c, 7, 6016
9, 40053, Pitch_bend_c, 7, 6272
9, 40055, Pitch_bend_c, 7, 6528
9, 40057, Pitch_bend_c, 7, 6784
9, 40059, Pitch_bend_c, 7, 6912
9, 40061, Pitch_bend_c, 7, 7168
9, 40063, Pitch_bend_c, 7, 7424
9, 40065, Pitch_bend_c, 7, 7552
9, 40067, Pitch_bend_c, 7, 7808
9, 40069, Pitch_bend_c, 7, 8064
9, 40071, Pitch_bend_c, 7, 8192
9, 40116, Pitch_bend_c, 7, 8064
9, 40120, Pitch_bend_c, 7, 7936
9, 40122, Pitch_bend_c, 7, 7808
9, 40126, Pitch_bend_c, 7, 7680
9, 40128, Pitch_bend_c, 7, 7552
9, 40132, Pitch_bend_c, 7, 7296
9, 40134, Pitch_bend_c, 7, 7168
9, 40138, Pitch_bend_c, 7, 7040
9, 40140, Pitch_bend_c, 7, 6912
9, 40144, Pitch_bend_c, 7, 6656
9, 40146, Pitch_bend_c, 7, 6400
9, 40150, Pitch_bend_c, 7, 6144
9, 40152, Pitch_bend_c, 7, 6016
9, 40154, Pitch_bend_c, 7, 5888
9, 40158, Pitch_bend_c, 7, 5632
9, 40160, Pitch_bend_c, 7, 5504
9, 40164, Pitch_bend_c, 7, 5248
9, 40184, Note_on_c, 7, 69, 0
9, 40185, Pitch_bend_c, 7, 6144
9, 40186, Pitch_bend_c, 7, 6400
9, 40189, Pitch_bend_c, 7, 6784
9, 40191, Pitch_bend_c, 7, 7168
9, 40193, Pitch_bend_c, 7, 7680
9, 40193, Note_on_c, 7, 66, 74
9, 40195, Pitch_bend_c, 7, 8192
9, 40225, Note_on_c, 7, 66, 0
9, 40260, Note_on_c, 7, 66, 102
9, 40453, Note_on_c, 7, 66, 0
9, 40471, Pitch_bend_c, 7, 7936
9, 40473, Pitch_bend_c, 7, 7424
9, 40476, Pitch_bend_c, 7, 7040
9, 40478, Pitch_bend_c, 7, 6656
9, 40480, Pitch_bend_c, 7, 6272
9, 40482, Pitch_bend_c, 7, 5888
9, 40484, Pitch_bend_c, 7, 5504
9, 40486, Pitch_bend_c, 7, 5120
9, 40488, Pitch_bend_c, 7, 4864
9, 40489, Pitch_bend_c, 7, 4608
9, 40492, Pitch_bend_c, 7, 4352
9, 40494, Pitch_bend_c, 7, 4096
9, 40496, Pitch_bend_c, 7, 3840
9, 40498, Pitch_bend_c, 7, 3712
9, 40500, Pitch_bend_c, 7, 3456
9, 40504, Pitch_bend_c, 7, 3200
9, 40508, Note_on_c, 7, 69, 72
9, 40524, Pitch_bend_c, 7, 3968
9, 40526, Pitch_bend_c, 7, 4224
9, 40528, Pitch_bend_c, 7, 4480
9, 40531, Pitch_bend_c, 7, 4864
9, 40532, Pitch_bend_c, 7, 5248
9, 40535, Pitch_bend_c, 7, 5504
9, 40537, Pitch_bend_c, 7, 5888
9, 40538, Pitch_bend_c, 7, 6144
9, 40540, Pitch_bend_c, 7, 6528
9, 40542, Pitch_bend_c, 7, 6784
9, 40544, Pitch_bend_c, 7, 7040
9, 40546, Pitch_bend_c, 7, 7296
9, 40549, Pitch_bend_c, 7, 7424
9, 40551, Pitch_bend_c, 7, 7680
9, 40553, Pitch_bend_c, 7, 7936
9, 40555, Pitch_bend_c, 7, 8192
9, 40574, Note_on_c, 7, 69, 0
9, 41163, Pitch_bend_c, 7, 7808
9, 41165, Pitch_bend_c, 7, 7424
9, 41167, Pitch_bend_c, 7, 6912
9, 41169, Pitch_bend_c, 7, 6400
9, 41171, Pitch_bend_c, 7, 5888
9, 41173, Pitch_bend_c, 7, 5376
9, 41175, Pitch_bend_c, 7, 4736
9, 41177, Pitch_bend_c, 7, 4224
9, 41179, Pitch_bend_c, 7, 3712
9, 41180, Pitch_bend_c, 7, 3200
9, 41183, Pitch_bend_c, 7, 2688
9, 41185, Pitch_bend_c, 7, 2176
9, 41186, Pitch_bend_c, 7, 1792
9, 41188, Pitch_bend_c, 7, 1408
9, 41191, Pitch_bend_c, 7, 1024
9, 41192, Pitch_bend_c, 7, 768
9, 41194, Pitch_bend_c, 7, 384
9, 41196, Pitch_bend_c, 7, 0
9, 41225, Note_on_c, 7, 66, 89
9, 41278, Pitch_bend_c, 7, 128
9, 41475, Note_on_c, 7, 66, 0
9, 41845, Pitch_bend_c, 7, 8064
9, 41849, Pitch_bend_c, 7, 7936
9, 41851, Pitch_bend_c, 7, 7808
9, 41855, Pitch_bend_c, 7, 7680
9, 41857, Pitch_bend_c, 7, 7552
9, 41861, Pitch_bend_c, 7, 7296
9, 41863, Pitch_bend_c, 7, 7168
9, 41867, Pitch_bend_c, 7, 6912
9, 41869, Pitch_bend_c, 7, 6784
9, 41873, Pitch_bend_c, 7, 6528
9, 41876, Pitch_bend_c, 7, 6400
9, 41878, Pitch_bend_c, 7, 6144
9, 41880, Pitch_bend_c, 7, 6016
9, 41882, Pitch_bend_c, 7, 5888
9, 41886, Pitch_bend_c, 7, 5632
9, 41888, Pitch_bend_c, 7, 5504
9, 41890, Pitch_bend_c, 7, 5248
9, 41892, Pitch_bend_c, 7, 5120
9, 41894, Pitch_bend_c, 7, 4992
9, 41896, Pitch_bend_c, 7, 4864
9, 41900, Pitch_bend_c, 7, 4608
9, 41902, Pitch_bend_c, 7, 4480
9, 41906, Pitch_bend_c, 7, 4224
9, 41908, Pitch_bend_c, 7, 4096
9, 41912, Pitch_bend_c, 7, 3840
9, 41920, Pitch_bend_c, 7, 3712
9, 41922, Pitch_bend_c, 7, 3584
9, 41928, Pitch_bend_c, 7, 3456
9, 41930, Pitch_bend_c, 7, 3328
9, 41936, Pitch_bend_c, 7, 3200
9, 41938, Pitch_bend_c, 7, 3072
9, 41942, Pitch_bend_c, 7, 2944
9, 41944, Pitch_bend_c, 7, 2816
9, 41945, Note_on_c, 7, 76, 96
9, 41952, Pitch_bend_c, 7, 2688
9, 41975, Pitch_bend_c, 7, 3200
9, 41977, Pitch_bend_c, 7, 3328
9, 41981, Pitch_bend_c, 7, 3456
9, 41983, Pitch_bend_c, 7, 3584
9, 41987, Pitch_bend_c, 7, 3840
9, 41989, Pitch_bend_c, 7, 3968
9, 41993, Pitch_bend_c, 7, 4224
9, 41995, Pitch_bend_c, 7, 4352
9, 42000, Pitch_bend_c, 7, 4608
9, 42002, Pitch_bend_c, 7, 4736
9, 42006, Pitch_bend_c, 7, 4992
9, 42008, Pitch_bend_c, 7, 5120
9, 42012, Pitch_bend_c, 7, 5376
9, 42014, Pitch_bend_c, 7, 5504
9, 42018, Pitch_bend_c, 7, 5632
9, 42020, Pitch_bend_c, 7, 5760
9, 42024, Pitch_bend_c, 7, 6016
9, 42026, Pitch_bend_c, 7, 6144
9, 42030, Pitch_bend_c, 7, 6400
9, 42036, Pitch_bend_c, 7, 6656
9, 42038, Pitch_bend_c, 7, 6784
9, 42044, Pitch_bend_c, 7, 6912
9, 42046, Pitch_bend_c, 7, 7040
9, 42054, Pitch_bend_c, 7, 7168
9, 42065, Pitch_bend_c, 7, 7424
9, 42075, Pitch_bend_c, 7, 7552
9, 42085, Pitch_bend_c, 7, 7680
9, 42099, Pitch_bend_c, 7, 8192
9, 42168, Note_on_c, 7, 76, 0
9, 42184, Pitch_bend_c, 7, 7936
9, 42186, Pitch_bend_c, 7, 7680
9, 42188, Pitch_bend_c, 7, 7296
9, 42190, Pitch_bend_c, 7, 6912
9, 42192, Pitch_bend_c, 7, 6528
9, 42194, Pitch_bend_c, 7, 6144
9, 42196, Pitch_bend_c, 7, 5760
9, 42198, Pitch_bend_c, 7, 5376
9, 42200, Pitch_bend_c, 7, 5120
9, 42202, Pitch_bend_c, 7, 4736
9, 42204, Pitch_bend_c, 7, 4480
9, 42206, Pitch_bend_c, 7, 4096
9, 42209, Pitch_bend_c, 7, 3840
9, 42211, Pitch_bend_c, 7, 3584
9, 42213, Pitch_bend_c, 7, 3328
9, 42215, Pitch_bend_c, 7, 3072
9, 42217, Pitch_bend_c, 7, 2944
9, 42221, Pitch_bend_c, 7, 2688
9, 42231, Pitch_bend_c, 7, 2560
9, 42241, Note_on_c, 7, 73, 66
9, 42252, Pitch_bend_c, 7, 3200
9, 42254, Pitch_bend_c, 7, 3328
9, 42256, Pitch_bend_c, 7, 3584
9, 42258, Pitch_bend_c, 7, 3712
9, 42260, Pitch_bend_c, 7, 3968
9, 42262, Pitch_bend_c, 7, 4352
9, 42264, Pitch_bend_c, 7, 4608
9, 42266, Pitch_bend_c, 7, 4864
9, 42268, Pitch_bend_c, 7, 5248
9, 42270, Pitch_bend_c, 7, 5504
9, 42272, Pitch_bend_c, 7, 5888
9, 42274, Pitch_bend_c, 7, 6144
9, 42276, Pitch_bend_c, 7, 6400
9, 42278, Pitch_bend_c, 7, 6656
9, 42280, Pitch_bend_c, 7, 6784
9, 42282, Pitch_bend_c, 7, 7040
9, 42284, Note_on_c, 7, 73, 0
9, 42285, Pitch_bend_c, 7, 7296
9, 42287, Pitch_bend_c, 7, 7424
9, 42289, Pitch_bend_c, 7, 7680
9, 42291, Pitch_bend_c, 7, 7936
9, 42293, Pitch_bend_c, 7, 8192
9, 42306, Note_on_c, 7, 71, 72
9, 42334, Note_on_c, 7, 71, 0
9, 42359, Note_on_c, 7, 71, 69
9, 42388, Note_on_c, 7, 71, 0
9, 42392, Pitch_bend_c, 7, 7936
9, 42394, Pitch_bend_c, 7, 7552
9, 42396, Pitch_bend_c, 7, 7296
9, 42398, Pitch_bend_c, 7, 6912
9, 42400, Pitch_bend_c, 7, 6656
9, 42403, Pitch_bend_c, 7, 6272
9, 42405, Pitch_bend_c, 7, 6016
9, 42407, Pitch_bend_c, 7, 5632
9, 42409, Pitch_bend_c, 7, 5376
9, 42411, Pitch_bend_c, 7, 5120
9, 42413, Pitch_bend_c, 7, 4992
9, 42417, Pitch_bend_c, 7, 4736
9, 42419, Pitch_bend_c, 7, 4608
9, 42421, Note_on_c, 7, 69, 74
9, 42426, Pitch_bend_c, 7, 4864
9, 42428, Pitch_bend_c, 7, 4992
9, 42430, Pitch_bend_c, 7, 5248
9, 42432, Pitch_bend_c, 7, 5504
9, 42434, Pitch_bend_c, 7, 5760
9, 42436, Pitch_bend_c, 7, 6144
9, 42438, Pitch_bend_c, 7, 6528
9, 42440, Pitch_bend_c, 7, 6912
9, 42442, Pitch_bend_c, 7, 7296
9, 42444, Pitch_bend_c, 7, 7680
9, 42446, Pitch_bend_c, 7, 8064
9, 42448, Pitch_bend_c, 7, 8192
9, 42465, Note_on_c, 7, 69, 0
9, 42480, Note_on_c, 7, 73, 74
9, 42512, Note_on_c, 7, 73, 0
9, 42530, Pitch_bend_c, 7, 7936
9, 42532, Pitch_bend_c, 7, 7552
9, 42534, Pitch_bend_c, 7, 7168
9, 42536, Pitch_bend_c, 7, 6784
9, 42538, Pitch_bend_c, 7, 6272
9, 42540, Pitch_bend_c, 7, 5888
9, 42542, Pitch_bend_c, 7, 5504
9, 42544, Note_on_c, 7, 69, 72
9, 42544, Pitch_bend_c, 7, 5120
9, 42546, Pitch_bend_c, 7, 4736
9, 42548, Pitch_bend_c, 7, 4480
9, 42550, Pitch_bend_c, 7, 4224
9, 42552, Pitch_bend_c, 7, 3968
9, 42556, Pitch_bend_c, 7, 3840
9, 42562, Pitch_bend_c, 7, 4224
9, 42564, Pitch_bend_c, 7, 4480
9, 42566, Pitch_bend_c, 7, 4864
9, 42568, Pitch_bend_c, 7, 5248
9, 42571, Pitch_bend_c, 7, 5888
9, 42573, Pitch_bend_c, 7, 6400
9, 42575, Pitch_bend_c, 7, 6912
9, 42577, Pitch_bend_c, 7, 7552
9, 42579, Pitch_bend_c, 7, 8064
9, 42581, Pitch_bend_c, 7, 8192
9, 42588, Note_on_c, 7, 69, 0
9, 42600, Note_on_c, 7, 66, 84
9, 42700, Note_on_c, 7, 66, 0
9, 43800, Pitch_bend_c, 7, 3584
9, 43858, Note_on_c, 7, 78, 100
9, 43867, Pitch_bend_c, 7, 3584
9, 43869, Pitch_bend_c, 7, 3840
9, 43871, Pitch_bend_c, 7, 4096
9, 43873, Pitch_bend_c, 7, 4352
9, 43875, Pitch_bend_c, 7, 4608
9, 43878, Pitch_bend_c, 7, 4736
9, 43880, Pitch_bend_c, 7, 4992
9, 43882, Pitch_bend_c, 7, 5248
9, 43884, Pitch_bend_c, 7, 5376
9, 43888, Pitch_bend_c, 7, 5632
9, 43890, Pitch_bend_c, 7, 5760
9, 43896, Pitch_bend_c, 7, 5888
9, 43898, Pitch_bend_c, 7, 6016
9, 43904, Pitch_bend_c, 7, 6144
9, 43906, Pitch_bend_c, 7, 6272
9, 43915, Pitch_bend_c, 7, 6400
9, 43916, Pitch_bend_c, 7, 6528
9, 43921, Pitch_bend_c, 7, 6784
9, 43923, Pitch_bend_c, 7, 6912
9, 43927, Pitch_bend_c, 7, 7168
9, 43929, Pitch_bend_c, 7, 7296
9, 43931, Pitch_bend_c, 7, 7552
9, 43933, Pitch_bend_c, 7, 7680
9, 43935, Pitch_bend_c, 7, 7808
9, 43937, Pitch_bend_c, 7, 8064
9, 43939, Pitch_bend_c, 7, 8192
9, 43978, Note_on_c, 7, 78, 0
9, 44176, Pitch_bend_c, 7, 8064
9, 44178, Pitch_bend_c, 7, 7680
9, 44180, Pitch_bend_c, 7, 7424
9, 44183, Pitch_bend_c, 7, 6912
9, 44185, Pitch_bend_c, 7, 6528
9, 44187, Pitch_bend_c, 7, 6144
9, 44189, Pitch_bend_c, 7, 5760
9, 44191, Pitch_bend_c, 7, 5504
9, 44193, Pitch_bend_c, 7, 5120
9, 44195, Pitch_bend_c, 7, 4736
9, 44197, Pitch_bend_c, 7, 4480
9, 44199, Pitch_bend_c, 7, 4096
9, 44202, Pitch_bend_c, 7, 3840
9, 44204, Pitch_bend_c, 7, 3584
9, 44206, Pitch_bend_c, 7, 3328
9, 44208, Pitch_bend_c, 7, 3072
9, 44210, Pitch_bend_c, 7, 2944
9, 44213, Pitch_bend_c, 7, 2816
9, 44216, Pitch_bend_c, 7, 2688
9, 44225, Note_on_c, 7, 70, 79
9, 44238, Pitch_bend_c, 7, 3072
9, 44240, Pitch_bend_c, 7, 3200
9, 44244, Pitch_bend_c, 7, 3456
9, 44246, Pitch_bend_c, 7, 3584
9, 44250, Pitch_bend_c, 7, 3840
9, 44252, Pitch_bend_c, 7, 4096
9, 44255, Pitch_bend_c, 7, 4224
9, 44257, Pitch_bend_c, 7, 4352
9, 44261, Pitch_bend_c, 7, 4608
9, 44262, Pitch_bend_c, 7, 4736
9, 44267, Pitch_bend_c, 7, 5120
9, 44269, Pitch_bend_c, 7, 5376
9, 44271, Pitch_bend_c, 7, 5504
9, 44273, Pitch_bend_c, 7, 5760
9, 44276, Pitch_bend_c, 7, 5888
9, 44278, Pitch_bend_c, 7, 6144
9, 44280, Pitch_bend_c, 7, 6272
9, 44281, Pitch_bend_c, 7, 6528
9, 44284, Pitch_bend_c, 7, 6784
9, 44286, Pitch_bend_c, 7, 6912
9, 44288, Pitch_bend_c, 7, 7168
9, 44290, Pitch_bend_c, 7, 7424
9, 44292, Pitch_bend_c, 7, 7680
9, 44294, Pitch_bend_c, 7, 7936
9, 44295, Pitch_bend_c, 7, 8064
9, 44298, Pitch_bend_c, 7, 8192
9, 44325, Note_on_c, 7, 70, 0
9, 44346, Note_on_c, 7, 66, 84
9, 44437, Note_on_c, 7, 66, 0
9, 44459, Note_on_c, 7, 61, 61
9, 44480, Note_on_c, 7, 61, 0
9, 44518, Note_on_c, 7, 61, 69
9, 44542, Note_on_c, 7, 63, 55
9, 44544, Note_on_c, 7, 61, 0
9, 44574, Note_on_c, 7, 63, 0
9, 44575, Note_on_c, 7, 66, 66
9, 44654, Note_on_c, 7, 66, 0
9, 45062, Note_on_c, 7, 69, 43
9, 45077, Note_on_c, 7, 69, 0
9, 45735, Pitch_bend_c, 7, 7936
9, 45737, Pitch_bend_c, 7, 7552
9, 45739, Pitch_bend_c, 7, 7168
9, 45741, Pitch_bend_c, 7, 6784
9, 45744, Pitch_bend_c, 7, 6272
9, 45746, Pitch_bend_c, 7, 5888
9, 45748, Pitch_bend_c, 7, 5376
9, 45750, Pitch_bend_c, 7, 4992
9, 45752, Pitch_bend_c, 7, 4608
9, 45754, Pitch_bend_c, 7, 4224
9, 45756, Pitch_bend_c, 7, 3968
9, 45758, Pitch_bend_c, 7, 3712
9, 45760, Pitch_bend_c, 7, 3456
9, 45764, Pitch_bend_c, 7, 3200
9, 45766, Pitch_bend_c, 7, 3072
9, 45774, Pitch_bend_c, 7, 2944
9, 45789, Note_on_c, 7, 81, 89
9, 45794, Pitch_bend_c, 7, 3584
9, 45796, Pitch_bend_c, 7, 3712
9, 45799, Pitch_bend_c, 7, 3968
9, 45801, Pitch_bend_c, 7, 4224
9, 45803, Pitch_bend_c, 7, 4352
9, 45805, Pitch_bend_c, 7, 4608
9, 45807, Pitch_bend_c, 7, 4864
9, 45809, Pitch_bend_c, 7, 4992
9, 45811, Pitch_bend_c, 7, 5248
9, 45813, Pitch_bend_c, 7, 5376
9, 45817, Pitch_bend_c, 7, 5760
9, 45819, Pitch_bend_c, 7, 5888
9, 45823, Pitch_bend_c, 7, 6016
9, 45831, Pitch_bend_c, 7, 6272
9, 45838, Pitch_bend_c, 7, 6528
9, 45840, Pitch_bend_c, 7, 6784
9, 45844, Pitch_bend_c, 7, 7040
9, 45846, Pitch_bend_c, 7, 7168
9, 45848, Pitch_bend_c, 7, 7296
9, 45852, Pitch_bend_c, 7, 7680
9, 45854, Pitch_bend_c, 7, 7808
9, 45858, Pitch_bend_c, 7, 8064
9, 45864, Note_on_c, 7, 81, 0
9, 45866, Pitch_bend_c, 7, 8192
9, 45874, Pitch_bend_c, 7, 8064
9, 45876, Pitch_bend_c, 7, 7936
9, 45878, Pitch_bend_c, 7, 7680
9, 45880, Pitch_bend_c, 7, 7424
9, 45882, Pitch_bend_c, 7, 7168
9, 45885, Pitch_bend_c, 7, 6912
9, 45887, Pitch_bend_c, 7, 6656
9, 45889, Pitch_bend_c, 7, 6272
9, 45891, Pitch_bend_c, 7, 6016
9, 45893, Pitch_bend_c, 7, 5760
9, 45895, Pitch_bend_c, 7, 5504
9, 45897, Pitch_bend_c, 7, 5248
9, 45899, Pitch_bend_c, 7, 4992
9, 45900, Note_on_c, 7, 81, 93
9, 45902, Pitch_bend_c, 7, 4736
9, 45903, Pitch_bend_c, 7, 4608
9, 45907, Pitch_bend_c, 7, 4352
9, 45909, Pitch_bend_c, 7, 4224
9, 45929, Pitch_bend_c, 7, 4992
9, 45931, Pitch_bend_c, 7, 5120
9, 45934, Pitch_bend_c, 7, 5248
9, 45935, Pitch_bend_c, 7, 5504
9, 45938, Pitch_bend_c, 7, 5632
9, 45940, Pitch_bend_c, 7, 5760
9, 45942, Pitch_bend_c, 7, 5888
9, 45944, Pitch_bend_c, 7, 6144
9, 45948, Pitch_bend_c, 7, 6400
9, 45950, Pitch_bend_c, 7, 6528
9, 45954, Pitch_bend_c, 7, 6656
9, 45956, Pitch_bend_c, 7, 6784
9, 45960, Pitch_bend_c, 7, 7040
9, 45962, Pitch_bend_c, 7, 7168
9, 45964, Pitch_bend_c, 7, 7296
9, 45966, Pitch_bend_c, 7, 7552
9, 45968, Note_on_c, 7, 81, 0
9, 45968, Pitch_bend_c, 7, 7680
9, 45970, Pitch_bend_c, 7, 7936
9, 45972, Pitch_bend_c, 7, 8192
9, 45991, Note_on_c, 7, 80, 74
9, 46023, Note_on_c, 7, 80, 0
9, 46032, Note_on_c, 7, 78, 72
9, 46057, Note_on_c, 7, 78, 0
9, 46071, Note_on_c, 7, 78, 69
9, 46110, Note_on_c, 7, 78, 0
9, 46126, Note_on_c, 7, 76, 66
9, 46160, Note_on_c, 7, 76, 0
9, 46168, Note_on_c, 7, 73, 64
9, 46196, Note_on_c, 7, 73, 0
9, 46209, Note_on_c, 7, 72, 48
9, 46233, Note_on_c, 7, 72, 0
9, 46238, Note_on_c, 7, 71, 39
9, 46266, Note_on_c, 7, 71, 0
9, 46274, Note_on_c, 7, 69, 93
9, 46293, Note_on_c, 7, 69, 0
9, 46295, Note_on_c, 7, 70, 64
9, 46320, Note_on_c, 7, 70, 0
9, 46327, Note_on_c, 7, 66, 58
9, 46497, Note_on_c, 7, 66, 0
9, 46820, Pitch_bend_c, 7, 7936
9, 46822, Pitch_bend_c, 7, 7680
9, 46824, Pitch_bend_c, 7, 7424
9, 46826, Pitch_bend_c, 7, 7168
9, 46828, Pitch_bend_c, 7, 6912
9, 46830, Pitch_bend_c, 7, 6656
9, 46832, Pitch_bend_c, 7, 6272
9, 46834, Pitch_bend_c, 7, 6016
9, 46836, Pitch_bend_c, 7, 5760
9, 46838, Pitch_bend_c, 7, 5504
9, 46841, Pitch_bend_c, 7, 5248
9, 46843, Pitch_bend_c, 7, 4992
9, 46845, Pitch_bend_c, 7, 4864
9, 46849, Pitch_bend_c, 7, 4608
9, 46851, Pitch_bend_c, 7, 4480
9, 46859, Pitch_bend_c, 7, 4352
9, 46860, Note_on_c, 7, 69, 81
9, 46875, Pitch_bend_c, 7, 5120
9, 46877, Pitch_bend_c, 7, 5376
9, 46879, Pitch_bend_c, 7, 5632
9, 46881, Pitch_bend_c, 7, 5888
9, 46883, Pitch_bend_c, 7, 6272
9, 46885, Pitch_bend_c, 7, 6528
9, 46887, Pitch_bend_c, 7, 6784
9, 46890, Pitch_bend_c, 7, 7168
9, 46892, Pitch_bend_c, 7, 7424
9, 46894, Pitch_bend_c, 7, 7552
9, 46896, Pitch_bend_c, 7, 7808
9, 46898, Pitch_bend_c, 7, 7936
9, 46902, Pitch_bend_c, 7, 8192
9, 46922, Pitch_bend_c, 7, 7168
9, 46924, Pitch_bend_c, 7, 6912
9, 46926, Pitch_bend_c, 7, 6656
9, 46928, Pitch_bend_c, 7, 6272
9, 46930, Pitch_bend_c, 7, 6016
9, 46932, Pitch_bend_c, 7, 5760
9, 46934, Pitch_bend_c, 7, 5504
9, 46936, Pitch_bend_c, 7, 5248
9, 46940, Pitch_bend_c, 7, 5120
9, 46948, Pitch_bend_c, 7, 5376
9, 46950, Pitch_bend_c, 7, 5504
9, 46952, Pitch_bend_c, 7, 5760
9, 46955, Pitch_bend_c, 7, 6016
9, 46957, Note_on_c, 7, 69, 0
9, 46957, Pitch_bend_c, 7, 6400
9, 46959, Pitch_bend_c, 7, 6912
9, 46961, Pitch_bend_c, 7, 7296
9, 46963, Pitch_bend_c, 7, 7808
9, 46965, Pitch_bend_c, 7, 8192
9, 46987, Note_on_c, 7, 78, 84
9, 47410, Note_on_c, 7, 78, 0
9, 47648, Pitch_bend_c, 7, 7936
9, 47650, Pitch_bend_c, 7, 7680
9, 47652, Pitch_bend_c, 7, 7424
9, 47653, Pitch_bend_c, 7, 7296
9, 47656, Pitch_bend_c, 7, 7040
9, 47658, Pitch_bend_c, 7, 6656
9, 47660, Pitch_bend_c, 7, 6400
9, 47662, Pitch_bend_c, 7, 6144
9, 47664, Pitch_bend_c, 7, 5888
9, 47666, Pitch_bend_c, 7, 5632
9, 47668, Pitch_bend_c, 7, 5376
9, 47670, Pitch_bend_c, 7, 5248
9, 47673, Pitch_bend_c, 7, 4992
9, 47675, Pitch_bend_c, 7, 4736
9, 47677, Pitch_bend_c, 7, 4480
9, 47679, Pitch_bend_c, 7, 4352
9, 47683, Pitch_bend_c, 7, 4096
9, 47685, Pitch_bend_c, 7, 3968
9, 47692, Pitch_bend_c, 7, 3712
9, 47697, Note_on_c, 7, 71, 66
9, 47702, Pitch_bend_c, 7, 3840
9, 47714, Pitch_bend_c, 7, 4224
9, 47716, Pitch_bend_c, 7, 4352
9, 47720, Pitch_bend_c, 7, 4608
9, 47722, Pitch_bend_c, 7, 4864
9, 47726, Pitch_bend_c, 7, 5120
9, 47728, Pitch_bend_c, 7, 5248
9, 47732, Pitch_bend_c, 7, 5504
9, 47734, Pitch_bend_c, 7, 5632
9, 47738, Pitch_bend_c, 7, 5888
9, 47740, Pitch_bend_c, 7, 6016
9, 47744, Pitch_bend_c, 7, 6272
9, 47754, Pitch_bend_c, 7, 6528
9, 47760, Pitch_bend_c, 7, 6784
9, 47768, Pitch_bend_c, 7, 7040
9, 47779, Pitch_bend_c, 7, 7168
9, 47790, Pitch_bend_c, 7, 7808
9, 47792, Pitch_bend_c, 7, 7936
9, 47795, Pitch_bend_c, 7, 8064
9, 47797, Pitch_bend_c, 7, 8192
9, 48012, Note_on_c, 7, 71, 0
9, 48043, Note_on_c, 7, 69, 89
9, 48068, Note_on_c, 7, 69, 0
9, 48091, Note_on_c, 7, 68, 61
9, 48121, Note_on_c, 7, 68, 0
9, 48136, Note_on_c, 7, 66, 99
9, 48163, Note_on_c, 7, 66, 0
9, 48184, Note_on_c, 7, 66, 105
9, 48205, Pitch_bend_c, 7, 10112
9, 48207, Pitch_bend_c, 7, 11520
9, 48209, Pitch_bend_c, 7, 13056
9, 48211, Pitch_bend_c, 7, 14592
9, 48213, Pitch_bend_c, 7, 16000
9, 48215, Pitch_bend_c, 7, 16256
9, 48233, Pitch_bend_c, 7, 14208
9, 48235, Pitch_bend_c, 7, 8320
9, 48237, Pitch_bend_c, 7, 8192
9, 48241, Pitch_bend_c, 7, 8832
9, 48243, Pitch_bend_c, 7, 8192
9, 48442, Note_on_c, 7, 66, 0
9, 48864, Note_on_c, 7, 69, 30
9, 48904, Note_on_c, 7, 78, 61
9, 49376, Note_on_c, 7, 78, 0
9, 49377, Note_on_c, 7, 69, 0
9, 49438, Pitch_bend_c, 7, 7936
9, 49440, Pitch_bend_c, 7, 7424
9, 49442, Pitch_bend_c, 7, 6784
9, 49444, Pitch_bend_c, 7, 6016
9, 49445, Pitch_bend_c, 7, 5120
9, 49448, Pitch_bend_c, 7, 4224
9, 49450, Pitch_bend_c, 7, 3328
9, 49452, Pitch_bend_c, 7, 2432
9, 49454, Pitch_bend_c, 7, 1408
9, 49455, Pitch_bend_c, 7, 512
9, 49458, Pitch_bend_c, 7, 0
9, 49502, Note_on_c, 7, 63, 72
9, 49521, Pitch_bend_c, 7, 128
9, 49523, Pitch_bend_c, 7, 896
9, 49525, Pitch_bend_c, 7, 1664
9, 49527, Pitch_bend_c, 7, 2688
9, 49529, Pitch_bend_c, 7, 3840
9, 49531, Pitch_bend_c, 7, 5376
9, 49533, Pitch_bend_c, 7, 7424
9, 49535, Pitch_bend_c, 7, 8192
9, 49554, Note_on_c, 7, 63, 0
9, 49556, Note_on_c, 7, 66, 77
9, 49892, Note_on_c, 7, 66, 0
9, 49964, Pitch_bend_c, 7, 7936
9, 49966, Pitch_bend_c, 7, 7552
9, 49968, Pitch_bend_c, 7, 7296
9, 49970, Pitch_bend_c, 7, 6912
9, 49972, Pitch_bend_c, 7, 6400
9, 49974, Pitch_bend_c, 7, 6016
9, 49976, Pitch_bend_c, 7, 5632
9, 49978, Pitch_bend_c, 7, 5120
9, 49981, Pitch_bend_c, 7, 4736
9, 49983, Pitch_bend_c, 7, 4224
9, 49985, Pitch_bend_c, 7, 3840
9, 49987, Pitch_bend_c, 7, 3456
9, 49989, Pitch_bend_c, 7, 3072
9, 49991, Pitch_bend_c, 7, 2688
9, 49993, Pitch_bend_c, 7, 2432
9, 49995, Note_on_c, 7, 71, 79
9, 49995, Pitch_bend_c, 7, 2304
9, 50003, Pitch_bend_c, 7, 2176
9, 50013, Pitch_bend_c, 7, 2816
9, 50016, Pitch_bend_c, 7, 3072
9, 50018, Pitch_bend_c, 7, 3328
9, 50020, Pitch_bend_c, 7, 3584
9, 50022, Pitch_bend_c, 7, 3968
9, 50024, Pitch_bend_c, 7, 4224
9, 50026, Pitch_bend_c, 7, 4608
9, 50028, Pitch_bend_c, 7, 4864
9, 50030, Pitch_bend_c, 7, 5248
9, 50032, Pitch_bend_c, 7, 5504
9, 50033, Pitch_bend_c, 7, 5760
9, 50036, Pitch_bend_c, 7, 6016
9, 50038, Pitch_bend_c, 7, 6272
9, 50039, Pitch_bend_c, 7, 6528
9, 50042, Pitch_bend_c, 7, 6784
9, 50044, Pitch_bend_c, 7, 7040
9, 50046, Pitch_bend_c, 7, 7168
9, 50048, Pitch_bend_c, 7, 7296
9, 50052, Pitch_bend_c, 7, 7552
9, 50055, Pitch_bend_c, 7, 7680
9, 50059, Pitch_bend_c, 7, 7936
9, 50061, Pitch_bend_c, 7, 8064
9, 50065, Pitch_bend_c, 7, 8192
9, 50076, Note_on_c, 7, 71, 0
9, 50094, Note_on_c, 7, 69, 58
9, 50122, Note_on_c, 7, 69, 0
9, 50142, Note_on_c, 7, 68, 30
9, 50170, Note_on_c, 7, 68, 0
9, 50184, Note_on_c, 7, 66, 66
9, 50216, Note_on_c, 7, 66, 0
9, 50231, Note_on_c, 7, 66, 79
9, 50337, Note_on_c, 7, 66, 0
9, 50764, Note_on_c, 7, 72, 81
9, 50788, Note_on_c, 7, 72, 0
9, 50788, Note_on_c, 7, 73, 43
9, 50827, Note_on_c, 7, 73, 0
9, 50828, Note_on_c, 7, 76, 66
9, 50847, Note_on_c, 7, 76, 0
9, 50857, Pitch_bend_c, 7, 8064
9, 50859, Pitch_bend_c, 7, 7680
9, 50861, Pitch_bend_c, 7, 7296
9, 50863, Pitch_bend_c, 7, 6912
9, 50865, Pitch_bend_c, 7, 6528
9, 50867, Pitch_bend_c, 7, 6144
9, 50870, Pitch_bend_c, 7, 5632
9, 50872, Pitch_bend_c, 7, 5248
9, 50874, Pitch_bend_c, 7, 4864
9, 50876, Pitch_bend_c, 7, 4480
9, 50878, Pitch_bend_c, 7, 4096
9, 50880, Pitch_bend_c, 7, 3712
9, 50882, Pitch_bend_c, 7, 3328
9, 50884, Pitch_bend_c, 7, 3200
9, 50886, Pitch_bend_c, 7, 2944
9, 50887, Note_on_c, 7, 78, 74
9, 50894, Pitch_bend_c, 7, 3200
9, 50896, Pitch_bend_c, 7, 3456
9, 50898, Pitch_bend_c, 7, 3840
9, 50901, Pitch_bend_c, 7, 4224
9, 50902, Pitch_bend_c, 7, 4608
9, 50905, Pitch_bend_c, 7, 5120
9, 50907, Pitch_bend_c, 7, 5504
9, 50909, Pitch_bend_c, 7, 5888
9, 50911, Pitch_bend_c, 7, 6400
9, 50913, Pitch_bend_c, 7, 6656
9, 50915, Pitch_bend_c, 7, 7040
9, 50917, Pitch_bend_c, 7, 7296
9, 50919, Pitch_bend_c, 7, 7424
9, 50923, Pitch_bend_c, 7, 7680
9, 50932, Pitch_bend_c, 7, 7936
9, 50934, Pitch_bend_c, 7, 8064
9, 50938, Pitch_bend_c, 7, 8192
9, 50968, Note_on_c, 7, 78, 0
9, 51424, Pitch_bend_c, 7, 7936
9, 51427, Pitch_bend_c, 7, 7680
9, 51429, Pitch_bend_c, 7, 7424
9, 51431, Pitch_bend_c, 7, 7168
9, 51433, Pitch_bend_c, 7, 6912
9, 51435, Pitch_bend_c, 7, 6656
9, 51437, Pitch_bend_c, 7, 6400
9, 51439, Pitch_bend_c, 7, 6016
9, 51442, Pitch_bend_c, 7, 5888
9, 51444, Pitch_bend_c, 7, 5632
9, 51446, Pitch_bend_c, 7, 5376
9, 51448, Pitch_bend_c, 7, 5120
9, 51450, Pitch_bend_c, 7, 4992
9, 51452, Pitch_bend_c, 7, 4736
9, 51454, Pitch_bend_c, 7, 4608
9, 51458, Pitch_bend_c, 7, 4224
9, 51460, Pitch_bend_c, 7, 4096
9, 51462, Pitch_bend_c, 7, 3968
9, 51466, Pitch_bend_c, 7, 3712
9, 51468, Pitch_bend_c, 7, 3584
9, 51472, Pitch_bend_c, 7, 3456
9, 51474, Pitch_bend_c, 7, 3328
9, 51479, Note_on_c, 7, 73, 74
9, 51482, Pitch_bend_c, 7, 3456
9, 51485, Pitch_bend_c, 7, 3712
9, 51487, Pitch_bend_c, 7, 3840
9, 51489, Pitch_bend_c, 7, 4096
9, 51491, Pitch_bend_c, 7, 4480
9, 51493, Pitch_bend_c, 7, 4736
9, 51495, Pitch_bend_c, 7, 5120
9, 51497, Pitch_bend_c, 7, 5504
9, 51499, Pitch_bend_c, 7, 5888
9, 51501, Pitch_bend_c, 7, 6400
9, 51503, Pitch_bend_c, 7, 6784
9, 51505, Pitch_bend_c, 7, 7168
9, 51507, Pitch_bend_c, 7, 7680
9, 51509, Pitch_bend_c, 7, 8064
9, 51512, Pitch_bend_c, 7, 8192
9, 51519, Note_on_c, 7, 73, 0
9, 51543, Note_on_c, 7, 69, 89
9, 51575, Note_on_c, 7, 69, 0
9, 51602, Note_on_c, 7, 71, 77
9, 51632, Note_on_c, 7, 71, 0
9, 51645, Pitch_bend_c, 7, 7808
9, 51647, Pitch_bend_c, 7, 7424
9, 51649, Pitch_bend_c, 7, 7040
9, 51651, Pitch_bend_c, 7, 6528
9, 51653, Pitch_bend_c, 7, 6016
9, 51655, Pitch_bend_c, 7, 5632
9, 51658, Pitch_bend_c, 7, 5120
9, 51660, Pitch_bend_c, 7, 4736
9, 51661, Pitch_bend_c, 7, 4480
9, 51664, Pitch_bend_c, 7, 4096
9, 51666, Pitch_bend_c, 7, 3968
9, 51669, Note_on_c, 7, 69, 64
9, 51671, Pitch_bend_c, 7, 3712
9, 51677, Pitch_bend_c, 7, 4096
9, 51678, Pitch_bend_c, 7, 4224
9, 51681, Pitch_bend_c, 7, 4480
9, 51683, Pitch_bend_c, 7, 4864
9, 51685, Pitch_bend_c, 7, 5248
9, 51687, Pitch_bend_c, 7, 5760
9, 51689, Pitch_bend_c, 7, 6144
9, 51691, Pitch_bend_c, 7, 6656
9, 51693, Pitch_bend_c, 7, 7168
9, 51695, Pitch_bend_c, 7, 7680
9, 51697, Pitch_bend_c, 7, 8064
9, 51699, Pitch_bend_c, 7, 8192
9, 51711, Note_on_c, 7, 69, 0
9, 51731, Note_on_c, 7, 66, 79
9, 51764, Note_on_c, 7, 66, 0
9, 51797, Note_on_c, 7, 61, 61
9, 51822, Note_on_c, 7, 61, 0
9, 51853, Note_on_c, 7, 66, 89
9, 52095, Note_on_c, 7, 66, 0
9, 52095, End_track
10, 0, Start_track
10, 0, MIDI_port, 0
10, 0, Title_t, "Lead Room Reverb"
10, 0, Control_c, 8, 0, 56
10, 0, Control_c, 8, 32, 1
10, 0, Program_c, 8, 26
10, 0, Control_c, 8, 7, 80
10, 0, Control_c, 8, 10, 127
10, 11530, Control_c, 8, 91, 60
10, 13196, Pitch_bend_c, 8, 7936
10, 13198, Pitch_bend_c, 8, 7552
10, 13200, Pitch_bend_c, 8, 7168
10, 13202, Pitch_bend_c, 8, 6656
10, 13204, Pitch_bend_c, 8, 6016
10, 13206, Pitch_bend_c, 8, 5248
10, 13209, Pitch_bend_c, 8, 4352
10, 13210, Pitch_bend_c, 8, 3584
10, 13213, Pitch_bend_c, 8, 2560
10, 13214, Pitch_bend_c, 8, 1792
10, 13216, Pitch_bend_c, 8, 896
10, 13219, Pitch_bend_c, 8, 128
10, 13221, Pitch_bend_c, 8, 0
10, 13276, Note_on_c, 8, 63, 102
10, 13297, Pitch_bend_c, 8, 512
10, 13300, Pitch_bend_c, 8, 1536
10, 13302, Pitch_bend_c, 8, 2816
10, 13304, Pitch_bend_c, 8, 5632
10, 13305, Pitch_bend_c, 8, 8192
10, 13328, Note_on_c, 8, 66, 96
10, 13329, Note_on_c, 8, 63, 0
10, 13706, Note_on_c, 8, 66, 0
10, 13784, Note_on_c, 8, 63, 39
10, 13803, Note_on_c, 8, 63, 0
10, 13821, Note_on_c, 8, 69, 91
10, 13840, Note_on_c, 8, 69, 0
10, 13845, Note_on_c, 8, 66, 74
10, 14247, Control_c, 8, 1, 4
10, 14249, Control_c, 8, 1, 8
10, 14251, Control_c, 8, 1, 12
10, 14253, Control_c, 8, 1, 17
10, 14255, Control_c, 8, 1, 20
10, 14257, Control_c, 8, 1, 24
10, 14259, Control_c, 8, 1, 28
10, 14261, Control_c, 8, 1, 32
10, 14263, Control_c, 8, 1, 36
10, 14265, Control_c, 8, 1, 40
10, 14267, Control_c, 8, 1, 45
10, 14269, Control_c, 8, 1, 49
10, 14271, Control_c, 8, 1, 53
10, 14273, Control_c, 8, 1, 57
10, 14275, Control_c, 8, 1, 61
10, 14277, Control_c, 8, 1, 65
10, 14279, Control_c, 8, 1, 69
10, 14281, Control_c, 8, 1, 72
10, 14283, Control_c, 8, 1, 75
10, 14285, Control_c, 8, 1, 78
10, 14287, Control_c, 8, 1, 80
10, 14289, Control_c, 8, 1, 82
10, 14291, Control_c, 8, 1, 84
10, 14293, Control_c, 8, 1, 86
10, 14295, Control_c, 8, 1, 87
10, 14296, Control_c, 8, 1, 88
10, 14303, Control_c, 8, 1, 89
10, 14310, Control_c, 8, 1, 88
10, 14312, Control_c, 8, 1, 86
10, 14314, Control_c, 8, 1, 84
10, 14316, Control_c, 8, 1, 82
10, 14318, Control_c, 8, 1, 79
10, 14320, Control_c, 8, 1, 75
10, 14322, Control_c, 8, 1, 71
10, 14324, Control_c, 8, 1, 66
10, 14326, Control_c, 8, 1, 61
10, 14328, Control_c, 8, 1, 56
10, 14330, Control_c, 8, 1, 50
10, 14332, Control_c, 8, 1, 43
10, 14334, Control_c, 8, 1, 37
10, 14336, Control_c, 8, 1, 30
10, 14338, Control_c, 8, 1, 23
10, 14340, Control_c, 8, 1, 17
10, 14342, Control_c, 8, 1, 11
10, 14344, Control_c, 8, 1, 5
10, 14346, Control_c, 8, 1, 0
10, 14457, Note_on_c, 8, 66, 0
10, 15068, Note_on_c, 8, 69, 117
10, 15102, Pitch_bend_c, 8, 8320
10, 15104, Pitch_bend_c, 8, 8448
10, 15106, Pitch_bend_c, 8, 8704
10, 15108, Pitch_bend_c, 8, 8960
10, 15110, Pitch_bend_c, 8, 9088
10, 15112, Pitch_bend_c, 8, 9344
10, 15114, Pitch_bend_c, 8, 9600
10, 15116, Pitch_bend_c, 8, 9728
10, 15118, Pitch_bend_c, 8, 9856
10, 15120, Pitch_bend_c, 8, 10112
10, 15122, Pitch_bend_c, 8, 10240
10, 15124, Pitch_bend_c, 8, 10496
10, 15128, Pitch_bend_c, 8, 10752
10, 15130, Pitch_bend_c, 8, 10880
10, 15132, Pitch_bend_c, 8, 11008
10, 15134, Pitch_bend_c, 8, 11264
10, 15138, Pitch_bend_c, 8, 11520
10, 15140, Pitch_bend_c, 8, 11648
10, 15144, Pitch_bend_c, 8, 12032
10, 15146, Pitch_bend_c, 8, 12160
10, 15150, Pitch_bend_c, 8, 12416
10, 15152, Pitch_bend_c, 8, 12544
10, 15156, Pitch_bend_c, 8, 12800
10, 15158, Pitch_bend_c, 8, 12928
10, 15161, Pitch_bend_c, 8, 13184
10, 15164, Pitch_bend_c, 8, 13312
10, 15168, Pitch_bend_c, 8, 13568
10, 15169, Pitch_bend_c, 8, 13696
10, 15173, Pitch_bend_c, 8, 13824
10, 15175, Pitch_bend_c, 8, 13952
10, 15179, Pitch_bend_c, 8, 14208
10, 15181, Pitch_bend_c, 8, 14336
10, 15185, Pitch_bend_c, 8, 14592
10, 15187, Pitch_bend_c, 8, 14720
10, 15191, Pitch_bend_c, 8, 14976
10, 15193, Pitch_bend_c, 8, 15104
10, 15197, Pitch_bend_c, 8, 15360
10, 15199, Pitch_bend_c, 8, 15488
10, 15202, Pitch_bend_c, 8, 15744
10, 15204, Pitch_bend_c, 8, 15872
10, 15208, Pitch_bend_c, 8, 16128
10, 15211, Pitch_bend_c, 8, 16256
10, 15411, Note_on_c, 8, 69, 0
10, 15454, Pitch_bend_c, 8, 15872
10, 15456, Pitch_bend_c, 8, 15488
10, 15457, Pitch_bend_c, 8, 14976
10, 15459, Pitch_bend_c, 8, 14592
10, 15461, Pitch_bend_c, 8, 14080
10, 15464, Pitch_bend_c, 8, 13696
10, 15465, Pitch_bend_c, 8, 13184
10, 15467, Pitch_bend_c, 8, 12672
10, 15469, Pitch_bend_c, 8, 12160
10, 15471, Pitch_bend_c, 8, 11520
10, 15473, Pitch_bend_c, 8, 11008
10, 15475, Pitch_bend_c, 8, 10368
10, 15477, Pitch_bend_c, 8, 9728
10, 15479, Pitch_bend_c, 8, 9216
10, 15481, Pitch_bend_c, 8, 8704
10, 15483, Pitch_bend_c, 8, 8192
10, 15536, Note_on_c, 8, 69, 72
10, 15562, Note_on_c, 8, 69, 0
10, 15575, Note_on_c, 8, 68, 84
10, 15599, Note_on_c, 8, 68, 0
10, 15610, Note_on_c, 8, 66, 66
10, 15634, Note_on_c, 8, 66, 0
10, 15649, Note_on_c, 8, 66, 111
10, 15674, Pitch_bend_c, 8, 8960
10, 15676, Pitch_bend_c, 8, 9856
10, 15677, Pitch_bend_c, 8, 10880
10, 15679, Pitch_bend_c, 8, 11904
10, 15681, Pitch_bend_c, 8, 12928
10, 15683, Pitch_bend_c, 8, 13696
10, 15686, Pitch_bend_c, 8, 14592
10, 15687, Pitch_bend_c, 8, 15616
10, 15689, Pitch_bend_c, 8, 16256
10, 15705, Pitch_bend_c, 8, 16128
10, 15707, Pitch_bend_c, 8, 14208
10, 15709, Pitch_bend_c, 8, 10496
10, 15711, Pitch_bend_c, 8, 8192
10, 15790, Note_on_c, 8, 66, 0
10, 16775, Note_on_c, 8, 66, 77
10, 16800, Pitch_bend_c, 8, 6912
10, 16801, Pitch_bend_c, 8, 6016
10, 16803, Pitch_bend_c, 8, 4992
10, 16805, Pitch_bend_c, 8, 3968
10, 16807, Pitch_bend_c, 8, 2816
10, 16809, Pitch_bend_c, 8, 1792
10, 16811, Pitch_bend_c, 8, 640
10, 16813, Pitch_bend_c, 8, 0
10, 17120, Note_on_c, 8, 66, 0
10, 17166, Pitch_bend_c, 8, 128
10, 17168, Pitch_bend_c, 8, 256
10, 17170, Pitch_bend_c, 8, 384
10, 17174, Pitch_bend_c, 8, 640
10, 17176, Pitch_bend_c, 8, 768
10, 17180, Pitch_bend_c, 8, 1024
10, 17182, Pitch_bend_c, 8, 1152
10, 17188, Pitch_bend_c, 8, 1408
10, 17190, Pitch_bend_c, 8, 1536
10, 17194, Pitch_bend_c, 8, 1664
10, 17195, Pitch_bend_c, 8, 1792
10, 17200, Pitch_bend_c, 8, 2176
10, 17202, Pitch_bend_c, 8, 2432
10, 17203, Pitch_bend_c, 8, 2688
10, 17205, Pitch_bend_c, 8, 2944
10, 17207, Pitch_bend_c, 8, 3200
10, 17210, Pitch_bend_c, 8, 3456
10, 17212, Pitch_bend_c, 8, 3840
10, 17213, Pitch_bend_c, 8, 4096
10, 17215, Pitch_bend_c, 8, 4352
10, 17217, Pitch_bend_c, 8, 4480
10, 17219, Pitch_bend_c, 8, 4736
10, 17223, Pitch_bend_c, 8, 4992
10, 17225, Pitch_bend_c, 8, 5120
10, 17231, Pitch_bend_c, 8, 5248
10, 17233, Pitch_bend_c, 8, 5376
10, 17239, Pitch_bend_c, 8, 5504
10, 17241, Pitch_bend_c, 8, 5632
10, 17283, Pitch_bend_c, 8, 5888
10, 17293, Pitch_bend_c, 8, 6144
10, 17301, Pitch_bend_c, 8, 6400
10, 17311, Pitch_bend_c, 8, 6528
10, 17361, Pitch_bend_c, 8, 6272
10, 17363, Pitch_bend_c, 8, 6144
10, 17367, Pitch_bend_c, 8, 5888
10, 17373, Pitch_bend_c, 8, 5632
10, 17375, Pitch_bend_c, 8, 5504
10, 17379, Pitch_bend_c, 8, 5248
10, 17381, Pitch_bend_c, 8, 5120
10, 17384, Pitch_bend_c, 8, 4864
10, 17387, Pitch_bend_c, 8, 4736
10, 17390, Pitch_bend_c, 8, 4480
10, 17392, Pitch_bend_c, 8, 4352
10, 17396, Pitch_bend_c, 8, 4224
10, 17402, Pitch_bend_c, 8, 3968
10, 17408, Note_on_c, 8, 61, 84
10, 17412, Pitch_bend_c, 8, 3712
10, 17425, Pitch_bend_c, 8, 4736
10, 17427, Pitch_bend_c, 8, 5120
10, 17429, Pitch_bend_c, 8, 5504
10, 17431, Pitch_bend_c, 8, 6016
10, 17433, Pitch_bend_c, 8, 6528
10, 17435, Pitch_bend_c, 8, 7040
10, 17437, Pitch_bend_c, 8, 7552
10, 17439, Pitch_bend_c, 8, 8064
10, 17441, Pitch_bend_c, 8, 8192
10, 17465, Note_on_c, 8, 61, 0
10, 17476, Note_on_c, 8, 57, 96
10, 17508, Note_on_c, 8, 57, 0
10, 17531, Note_on_c, 8, 59, 79
10, 17563, Note_on_c, 8, 59, 0
10, 17592, Note_on_c, 8, 57, 69
10, 17619, Pitch_bend_c, 8, 8320
10, 17621, Pitch_bend_c, 8, 8704
10, 17623, Pitch_bend_c, 8, 9088
10, 17625, Pitch_bend_c, 8, 9472
10, 17627, Pitch_bend_c, 8, 9856
10, 17629, Pitch_bend_c, 8, 10240
10, 17631, Pitch_bend_c, 8, 10624
10, 17633, Pitch_bend_c, 8, 10880
10, 17635, Pitch_bend_c, 8, 11264
10, 17637, Pitch_bend_c, 8, 11520
10, 17639, Pitch_bend_c, 8, 11648
10, 17643, Pitch_bend_c, 8, 11904
10, 17645, Note_on_c, 8, 57, 0
10, 17649, Pitch_bend_c, 8, 11520
10, 17650, Pitch_bend_c, 8, 11136
10, 17653, Pitch_bend_c, 8, 10496
10, 17655, Pitch_bend_c, 8, 9856
10, 17657, Pitch_bend_c, 8, 9088
10, 17659, Pitch_bend_c, 8, 8192
10, 17661, Note_on_c, 8, 54, 72
10, 17712, Note_on_c, 8, 54, 0
10, 18875, Pitch_bend_c, 8, 7936
10, 18877, Pitch_bend_c, 8, 7680
10, 18879, Pitch_bend_c, 8, 7424
10, 18881, Pitch_bend_c, 8, 7168
10, 18883, Pitch_bend_c, 8, 6912
10, 18885, Pitch_bend_c, 8, 6656
10, 18887, Pitch_bend_c, 8, 6400
10, 18889, Pitch_bend_c, 8, 6144
10, 18891, Pitch_bend_c, 8, 6016
10, 18893, Pitch_bend_c, 8, 5760
10, 18895, Pitch_bend_c, 8, 5504
10, 18897, Pitch_bend_c, 8, 5248
10, 18899, Pitch_bend_c, 8, 5120
10, 18901, Pitch_bend_c, 8, 4992
10, 18905, Pitch_bend_c, 8, 4736
10, 18907, Pitch_bend_c, 8, 4608
10, 18910, Note_on_c, 8, 71, 89
10, 18911, Pitch_bend_c, 8, 4352
10, 18932, Pitch_bend_c, 8, 5120
10, 18934, Pitch_bend_c, 8, 5376
10, 18936, Pitch_bend_c, 8, 5632
10, 18938, Pitch_bend_c, 8, 5888
10, 18940, Pitch_bend_c, 8, 6016
10, 18942, Pitch_bend_c, 8, 6272
10, 18944, Pitch_bend_c, 8, 6400
10, 18946, Pitch_bend_c, 8, 6528
10, 18950, Pitch_bend_c, 8, 6784
10, 18952, Pitch_bend_c, 8, 6912
10, 18956, Pitch_bend_c, 8, 7168
10, 18958, Pitch_bend_c, 8, 7296
10, 18964, Pitch_bend_c, 8, 7552
10, 18974, Pitch_bend_c, 8, 7680
10, 18976, Pitch_bend_c, 8, 7808
10, 18981, Pitch_bend_c, 8, 7936
10, 18983, Pitch_bend_c, 8, 8064
10, 18987, Pitch_bend_c, 8, 8192
10, 19191, Note_on_c, 8, 71, 0
10, 19264, Note_on_c, 8, 69, 66
10, 19287, Note_on_c, 8, 69, 0
10, 19307, Note_on_c, 8, 68, 79
10, 19334, Note_on_c, 8, 68, 0
10, 19345, Note_on_c, 8, 66, 123
10, 19370, Note_on_c, 8, 66, 0
10, 19389, Note_on_c, 8, 66, 108
10, 19415, Pitch_bend_c, 8, 8832
10, 19416, Pitch_bend_c, 8, 10240
10, 19418, Pitch_bend_c, 8, 11776
10, 19420, Pitch_bend_c, 8, 13696
10, 19423, Pitch_bend_c, 8, 15616
10, 19425, Pitch_bend_c, 8, 16256
10, 19430, Control_c, 8, 1, 1
10, 19431, Control_c, 8, 1, 3
10, 19435, Control_c, 8, 1, 4
10, 19445, Control_c, 8, 1, 5
10, 19449, Pitch_bend_c, 8, 15360
10, 19451, Pitch_bend_c, 8, 11904
10, 19453, Pitch_bend_c, 8, 8704
10, 19455, Pitch_bend_c, 8, 8192
10, 19586, Control_c, 8, 1, 2
10, 19591, Control_c, 8, 1, 0
10, 19674, Note_on_c, 8, 66, 0
10, 20467, Pitch_bend_c, 8, 7936
10, 20469, Pitch_bend_c, 8, 7680
10, 20471, Pitch_bend_c, 8, 7296
10, 20473, Pitch_bend_c, 8, 6912
10, 20475, Pitch_bend_c, 8, 6400
10, 20477, Pitch_bend_c, 8, 6016
10, 20479, Pitch_bend_c, 8, 5504
10, 20480, Pitch_bend_c, 8, 4864
10, 20483, Pitch_bend_c, 8, 4352
10, 20485, Pitch_bend_c, 8, 3840
10, 20487, Pitch_bend_c, 8, 3328
10, 20489, Pitch_bend_c, 8, 2816
10, 20491, Pitch_bend_c, 8, 2304
10, 20493, Pitch_bend_c, 8, 1792
10, 20495, Pitch_bend_c, 8, 1408
10, 20497, Pitch_bend_c, 8, 896
10, 20499, Pitch_bend_c, 8, 512
10, 20501, Pitch_bend_c, 8, 0
10, 20590, Note_on_c, 8, 66, 89
10, 20609, Pitch_bend_c, 8, 512
10, 20611, Pitch_bend_c, 8, 1152
10, 20613, Pitch_bend_c, 8, 1792
10, 20615, Pitch_bend_c, 8, 2560
10, 20617, Pitch_bend_c, 8, 3328
10, 20619, Pitch_bend_c, 8, 4224
10, 20621, Pitch_bend_c, 8, 5376
10, 20623, Pitch_bend_c, 8, 6528
10, 20625, Pitch_bend_c, 8, 7680
10, 20627, Pitch_bend_c, 8, 8192
10, 20648, Pitch_bend_c, 8, 7680
10, 20651, Pitch_bend_c, 8, 6656
10, 20653, Pitch_bend_c, 8, 5632
10, 20654, Pitch_bend_c, 8, 4608
10, 20656, Pitch_bend_c, 8, 3456
10, 20658, Pitch_bend_c, 8, 2432
10, 20660, Pitch_bend_c, 8, 1280
10, 20663, Pitch_bend_c, 8, 256
10, 20664, Pitch_bend_c, 8, 0
10, 20961, Note_on_c, 8, 66, 0
10, 20989, Pitch_bend_c, 8, 128
10, 20990, Pitch_bend_c, 8, 384
10, 20993, Pitch_bend_c, 8, 640
10, 20995, Pitch_bend_c, 8, 896
10, 20997, Pitch_bend_c, 8, 1152
10, 20999, Pitch_bend_c, 8, 1280
10, 21001, Pitch_bend_c, 8, 1536
10, 21003, Pitch_bend_c, 8, 1792
10, 21005, Pitch_bend_c, 8, 2048
10, 21007, Pitch_bend_c, 8, 2304
10, 21009, Pitch_bend_c, 8, 2560
10, 21010, Pitch_bend_c, 8, 2816
10, 21013, Pitch_bend_c, 8, 3072
10, 21015, Pitch_bend_c, 8, 3456
10, 21017, Pitch_bend_c, 8, 3712
10, 21019, Pitch_bend_c, 8, 3840
10, 21020, Pitch_bend_c, 8, 4096
10, 21023, Pitch_bend_c, 8, 4352
10, 21025, Pitch_bend_c, 8, 4608
10, 21027, Pitch_bend_c, 8, 4736
10, 21029, Pitch_bend_c, 8, 4992
10, 21030, Pitch_bend_c, 8, 5248
10, 21032, Pitch_bend_c, 8, 5376
10, 21034, Pitch_bend_c, 8, 5632
10, 21036, Pitch_bend_c, 8, 5888
10, 21038, Pitch_bend_c, 8, 6144
10, 21040, Pitch_bend_c, 8, 6400
10, 21042, Pitch_bend_c, 8, 6784
10, 21044, Pitch_bend_c, 8, 7040
10, 21046, Pitch_bend_c, 8, 7296
10, 21048, Pitch_bend_c, 8, 7552
10, 21051, Pitch_bend_c, 8, 7808
10, 21053, Pitch_bend_c, 8, 8064
10, 21057, Pitch_bend_c, 8, 8192
10, 21139, Pitch_bend_c, 8, 7936
10, 21141, Pitch_bend_c, 8, 7808
10, 21143, Pitch_bend_c, 8, 7680
10, 21145, Pitch_bend_c, 8, 7424
10, 21147, Pitch_bend_c, 8, 7168
10, 21149, Pitch_bend_c, 8, 6912
10, 21151, Pitch_bend_c, 8, 6656
10, 21153, Pitch_bend_c, 8, 6528
10, 21155, Pitch_bend_c, 8, 6272
10, 21157, Pitch_bend_c, 8, 6016
10, 21159, Pitch_bend_c, 8, 5760
10, 21161, Pitch_bend_c, 8, 5632
10, 21163, Pitch_bend_c, 8, 5376
10, 21165, Pitch_bend_c, 8, 5248
10, 21168, Pitch_bend_c, 8, 4992
10, 21171, Pitch_bend_c, 8, 4736
10, 21173, Pitch_bend_c, 8, 4608
10, 21178, Pitch_bend_c, 8, 4352
10, 21187, Pitch_bend_c, 8, 4224
10, 21190, Note_on_c, 8, 61, 79
10, 21199, Pitch_bend_c, 8, 5120
10, 21201, Pitch_bend_c, 8, 5376
10, 21202, Pitch_bend_c, 8, 5632
10, 21204, Pitch_bend_c, 8, 5888
10, 21206, Pitch_bend_c, 8, 6144
10, 21208, Pitch_bend_c, 8, 6400
10, 21210, Pitch_bend_c, 8, 6656
10, 21212, Pitch_bend_c, 8, 7040
10, 21214, Pitch_bend_c, 8, 7296
10, 21216, Pitch_bend_c, 8, 7552
10, 21218, Pitch_bend_c, 8, 7808
10, 21220, Pitch_bend_c, 8, 8064
10, 21222, Pitch_bend_c, 8, 8192
10, 21278, Note_on_c, 8, 61, 0
10, 21371, Note_on_c, 8, 59, 74
10, 21404, Note_on_c, 8, 59, 0
10, 21428, Note_on_c, 8, 57, 72
10, 21434, Pitch_bend_c, 8, 8704
10, 21436, Pitch_bend_c, 8, 9088
10, 21438, Pitch_bend_c, 8, 9472
10, 21440, Pitch_bend_c, 8, 9728
10, 21442, Pitch_bend_c, 8, 9984
10, 21444, Pitch_bend_c, 8, 10368
10, 21446, Pitch_bend_c, 8, 10496
10, 21448, Pitch_bend_c, 8, 10752
10, 21450, Pitch_bend_c, 8, 11008
10, 21452, Pitch_bend_c, 8, 11264
10, 21453, Pitch_bend_c, 8, 11392
10, 21458, Pitch_bend_c, 8, 11648
10, 21460, Pitch_bend_c, 8, 11776
10, 21464, Pitch_bend_c, 8, 12032
10, 21466, Pitch_bend_c, 8, 12160
10, 21474, Pitch_bend_c, 8, 12288
10, 21480, Note_on_c, 8, 57, 0
10, 21483, Pitch_bend_c, 8, 11008
10, 21485, Pitch_bend_c, 8, 10496
10, 21486, Pitch_bend_c, 8, 10112
10, 21489, Pitch_bend_c, 8, 9472
10, 21491, Pitch_bend_c, 8, 8576
10, 21491, Note_on_c, 8, 54, 69
10, 21494, Pitch_bend_c, 8, 8192
10, 21955, Note_on_c, 8, 54, 0
10, 22742, Note_on_c, 8, 52, 61
10, 22783, Note_on_c, 8, 52, 0
10, 22785, Pitch_bend_c, 8, 7808
10, 22788, Pitch_bend_c, 8, 7296
10, 22790, Pitch_bend_c, 8, 6784
10, 22791, Pitch_bend_c, 8, 6144
10, 22794, Pitch_bend_c, 8, 5504
10, 22795, Pitch_bend_c, 8, 4992
10, 22798, Pitch_bend_c, 8, 4480
10, 22800, Pitch_bend_c, 8, 4096
10, 22801, Pitch_bend_c, 8, 3840
10, 22803, Pitch_bend_c, 8, 3456
10, 22806, Pitch_bend_c, 8, 3328
10, 22810, Note_on_c, 8, 61, 79
10, 22821, Pitch_bend_c, 8, 4608
10, 22823, Pitch_bend_c, 8, 5120
10, 22825, Pitch_bend_c, 8, 5632
10, 22827, Pitch_bend_c, 8, 6144
10, 22829, Pitch_bend_c, 8, 6656
10, 22831, Pitch_bend_c, 8, 7168
10, 22833, Pitch_bend_c, 8, 7680
10, 22835, Pitch_bend_c, 8, 8192
10, 22865, Note_on_c, 8, 61, 0
10, 22869, Note_on_c, 8, 57, 111
10, 22907, Note_on_c, 8, 57, 0
10, 22930, Note_on_c, 8, 59, 64
10, 22973, Note_on_c, 8, 59, 0
10, 22992, Note_on_c, 8, 57, 96
10, 23023, Pitch_bend_c, 8, 8576
10, 23025, Pitch_bend_c, 8, 8960
10, 23026, Pitch_bend_c, 8, 9344
10, 23029, Pitch_bend_c, 8, 9600
10, 23031, Pitch_bend_c, 8, 9984
10, 23033, Pitch_bend_c, 8, 10240
10, 23035, Pitch_bend_c, 8, 10496
10, 23037, Note_on_c, 8, 57, 0
10, 23037, Pitch_bend_c, 8, 10752
10, 23039, Pitch_bend_c, 8, 10880
10, 23041, Pitch_bend_c, 8, 11008
10, 23043, Pitch_bend_c, 8, 11264
10, 23045, Pitch_bend_c, 8, 11392
10, 23047, Pitch_bend_c, 8, 11520
10, 23049, Pitch_bend_c, 8, 11776
10, 23057, Pitch_bend_c, 8, 11648
10, 23060, Note_on_c, 8, 54, 84
10, 23065, Pitch_bend_c, 8, 9472
10, 23067, Pitch_bend_c, 8, 8576
10, 23069, Pitch_bend_c, 8, 8192
10, 23258, Control_c, 8, 1, 1
10, 23261, Control_c, 8, 1, 3
10, 23263, Control_c, 8, 1, 5
10, 23265, Control_c, 8, 1, 8
10, 23267, Control_c, 8, 1, 10
10, 23269, Control_c, 8, 1, 13
10, 23271, Control_c, 8, 1, 16
10, 23273, Control_c, 8, 1, 20
10, 23275, Control_c, 8, 1, 24
10, 23277, Control_c, 8, 1, 28
10, 23279, Control_c, 8, 1, 32
10, 23281, Control_c, 8, 1, 36
10, 23283, Control_c, 8, 1, 39
10, 23285, Control_c, 8, 1, 43
10, 23287, Control_c, 8, 1, 46
10, 23289, Control_c, 8, 1, 49
10, 23291, Control_c, 8, 1, 51
10, 23293, Control_c, 8, 1, 53
10, 23294, Control_c, 8, 1, 55
10, 23296, Control_c, 8, 1, 56
10, 23299, Control_c, 8, 1, 58
10, 23301, Control_c, 8, 1, 59
10, 23304, Control_c, 8, 1, 60
10, 23312, Control_c, 8, 1, 58
10, 23314, Control_c, 8, 1, 57
10, 23316, Control_c, 8, 1, 55
10, 23318, Control_c, 8, 1, 53
10, 23320, Control_c, 8, 1, 50
10, 23322, Control_c, 8, 1, 46
10, 23324, Control_c, 8, 1, 43
10, 23326, Control_c, 8, 1, 39
10, 23328, Control_c, 8, 1, 35
10, 23330, Control_c, 8, 1, 30
10, 23332, Control_c, 8, 1, 26
10, 23334, Control_c, 8, 1, 21
10, 23336, Control_c, 8, 1, 16
10, 23338, Control_c, 8, 1, 11
10, 23340, Control_c, 8, 1, 6
10, 23342, Control_c, 8, 1, 1
10, 23344, Control_c, 8, 1, 0
10, 23433, Note_on_c, 8, 54, 0
10, 23804, Pitch_bend_c, 8, 7680
10, 23806, Pitch_bend_c, 8, 7168
10, 23808, Pitch_bend_c, 8, 6656
10, 23810, Pitch_bend_c, 8, 6016
10, 23812, Pitch_bend_c, 8, 5504
10, 23814, Pitch_bend_c, 8, 4864
10, 23816, Pitch_bend_c, 8, 4608
10, 23818, Pitch_bend_c, 8, 3968
10, 23820, Pitch_bend_c, 8, 3456
10, 23822, Pitch_bend_c, 8, 3072
10, 23824, Pitch_bend_c, 8, 2688
10, 23826, Pitch_bend_c, 8, 2432
10, 23828, Pitch_bend_c, 8, 2176
10, 23832, Pitch_bend_c, 8, 1920
10, 23842, Pitch_bend_c, 8, 2048
10, 23867, Pitch_bend_c, 8, 2944
10, 23869, Pitch_bend_c, 8, 3584
10, 23871, Pitch_bend_c, 8, 4480
10, 23873, Pitch_bend_c, 8, 5504
10, 23875, Pitch_bend_c, 8, 6656
10, 23877, Pitch_bend_c, 8, 7808
10, 23879, Pitch_bend_c, 8, 8192
10, 23889, Pitch_bend_c, 8, 8704
10, 23890, Pitch_bend_c, 8, 9472
10, 23892, Pitch_bend_c, 8, 9984
10, 23895, Pitch_bend_c, 8, 10624
10, 23897, Pitch_bend_c, 8, 11392
10, 23899, Pitch_bend_c, 8, 12160
10, 23900, Pitch_bend_c, 8, 12800
10, 23902, Pitch_bend_c, 8, 13440
10, 23904, Pitch_bend_c, 8, 14080
10, 23907, Pitch_bend_c, 8, 14592
10, 23909, Pitch_bend_c, 8, 15232
10, 23910, Pitch_bend_c, 8, 15744
10, 23912, Pitch_bend_c, 8, 16256
10, 23939, Pitch_bend_c, 8, 16128
10, 23941, Pitch_bend_c, 8, 15488
10, 23943, Pitch_bend_c, 8, 14720
10, 23945, Pitch_bend_c, 8, 13952
10, 23947, Pitch_bend_c, 8, 13184
10, 23949, Pitch_bend_c, 8, 12288
10, 23951, Pitch_bend_c, 8, 11520
10, 23953, Pitch_bend_c, 8, 10624
10, 23955, Pitch_bend_c, 8, 9728
10, 23957, Pitch_bend_c, 8, 8832
10, 23959, Pitch_bend_c, 8, 8192
10, 24576, Pitch_bend_c, 8, 8064
10, 24578, Pitch_bend_c, 8, 7936
10, 24580, Pitch_bend_c, 8, 7808
10, 24582, Pitch_bend_c, 8, 7552
10, 24584, Pitch_bend_c, 8, 7296
10, 24586, Pitch_bend_c, 8, 7168
10, 24588, Pitch_bend_c, 8, 7040
10, 24590, Pitch_bend_c, 8, 6784
10, 24594, Pitch_bend_c, 8, 6528
10, 24596, Pitch_bend_c, 8, 6400
10, 24600, Pitch_bend_c, 8, 6144
10, 24602, Pitch_bend_c, 8, 5888
10, 24605, Pitch_bend_c, 8, 5760
10, 24607, Pitch_bend_c, 8, 5632
10, 24611, Pitch_bend_c, 8, 5376
10, 24613, Pitch_bend_c, 8, 5248
10, 24617, Pitch_bend_c, 8, 4992
10, 24623, Pitch_bend_c, 8, 4736
10, 24625, Pitch_bend_c, 8, 4608
10, 24629, Pitch_bend_c, 8, 4480
10, 24630, Pitch_bend_c, 8, 4352
10, 24636, Pitch_bend_c, 8, 4224
10, 24638, Pitch_bend_c, 8, 4096
10, 24646, Pitch_bend_c, 8, 3968
10, 24655, Pitch_bend_c, 8, 3840
10, 24669, Pitch_bend_c, 8, 3328
10, 24671, Pitch_bend_c, 8, 3200
10, 24675, Pitch_bend_c, 8, 2944
10, 24677, Note_on_c, 8, 73, 89
10, 24677, Pitch_bend_c, 8, 2816
10, 24682, Pitch_bend_c, 8, 2560
10, 24702, Pitch_bend_c, 8, 3072
10, 24705, Pitch_bend_c, 8, 3200
10, 24709, Pitch_bend_c, 8, 3456
10, 24711, Pitch_bend_c, 8, 3584
10, 24715, Pitch_bend_c, 8, 3840
10, 24716, Pitch_bend_c, 8, 3968
10, 24720, Pitch_bend_c, 8, 4224
10, 24723, Pitch_bend_c, 8, 4480
10, 24726, Pitch_bend_c, 8, 4736
10, 24732, Pitch_bend_c, 8, 4992
10, 24734, Pitch_bend_c, 8, 5120
10, 24738, Pitch_bend_c, 8, 5248
10, 24740, Pitch_bend_c, 8, 5376
10, 24746, Pitch_bend_c, 8, 5504
10, 24753, Pitch_bend_c, 8, 5760
10, 24761, Pitch_bend_c, 8, 6016
10, 24769, Pitch_bend_c, 8, 6272
10, 24778, Pitch_bend_c, 8, 6400
10, 24794, Pitch_bend_c, 8, 6784
10, 24796, Pitch_bend_c, 8, 6912
10, 24802, Pitch_bend_c, 8, 7040
10, 24804, Pitch_bend_c, 8, 7168
10, 24810, Pitch_bend_c, 8, 7296
10, 24819, Pitch_bend_c, 8, 7424
10, 24840, Pitch_bend_c, 8, 7808
10, 24846, Pitch_bend_c, 8, 8064
10, 24848, Pitch_bend_c, 8, 8192
10, 24945, Note_on_c, 8, 73, 0
10, 24976, Note_on_c, 8, 76, 77
10, 25010, Note_on_c, 8, 76, 0
10, 25019, Pitch_bend_c, 8, 7936
10, 25021, Pitch_bend_c, 8, 7680
10, 25022, Pitch_bend_c, 8, 7424
10, 25025, Pitch_bend_c, 8, 7040
10, 25027, Pitch_bend_c, 8, 6784
10, 25029, Pitch_bend_c, 8, 6400
10, 25031, Pitch_bend_c, 8, 6016
10, 25033, Pitch_bend_c, 8, 5632
10, 25035, Pitch_bend_c, 8, 5376
10, 25036, Note_on_c, 8, 73, 74
10, 25037, Pitch_bend_c, 8, 4992
10, 25039, Pitch_bend_c, 8, 4864
10, 25041, Pitch_bend_c, 8, 4608
10, 25045, Pitch_bend_c, 8, 4352
10, 25055, Pitch_bend_c, 8, 4480
10, 25064, Pitch_bend_c, 8, 5504
10, 25066, Pitch_bend_c, 8, 5760
10, 25068, Pitch_bend_c, 8, 6016
10, 25070, Pitch_bend_c, 8, 6400
10, 25072, Pitch_bend_c, 8, 6656
10, 25074, Pitch_bend_c, 8, 6912
10, 25076, Pitch_bend_c, 8, 7296
10, 25078, Pitch_bend_c, 8, 7552
10, 25080, Pitch_bend_c, 8, 7808
10, 25082, Pitch_bend_c, 8, 8064
10, 25084, Pitch_bend_c, 8, 8192
10, 25094, Note_on_c, 8, 73, 0
10, 25097, Note_on_c, 8, 71, 69
10, 25136, Note_on_c, 8, 71, 0
10, 25152, Note_on_c, 8, 69, 117
10, 25190, Note_on_c, 8, 69, 0
10, 25213, Note_on_c, 8, 71, 79
10, 25246, Note_on_c, 8, 71, 0
10, 25267, Note_on_c, 8, 69, 84
10, 25294, Pitch_bend_c, 8, 8320
10, 25296, Pitch_bend_c, 8, 8704
10, 25298, Pitch_bend_c, 8, 9216
10, 25300, Pitch_bend_c, 8, 9728
10, 25302, Pitch_bend_c, 8, 10112
10, 25304, Pitch_bend_c, 8, 10624
10, 25306, Pitch_bend_c, 8, 11136
10, 25308, Pitch_bend_c, 8, 11520
10, 25309, Pitch_bend_c, 8, 11904
10, 25312, Pitch_bend_c, 8, 12160
10, 25314, Pitch_bend_c, 8, 12288
10, 25318, Pitch_bend_c, 8, 12544
10, 25319, Note_on_c, 8, 69, 0
10, 25324, Pitch_bend_c, 8, 12416
10, 25325, Pitch_bend_c, 8, 12160
10, 25327, Pitch_bend_c, 8, 11904
10, 25329, Pitch_bend_c, 8, 11648
10, 25331, Pitch_bend_c, 8, 11264
10, 25333, Pitch_bend_c, 8, 11008
10, 25335, Pitch_bend_c, 8, 10752
10, 25337, Pitch_bend_c, 8, 10368
10, 25338, Note_on_c, 8, 66, 79
10, 25339, Pitch_bend_c, 8, 9984
10, 25341, Pitch_bend_c, 8, 9600
10, 25343, Pitch_bend_c, 8, 9344
10, 25345, Pitch_bend_c, 8, 8960
10, 25347, Pitch_bend_c, 8, 8704
10, 25349, Pitch_bend_c, 8, 8320
10, 25351, Pitch_bend_c, 8, 8192
10, 25679, Note_on_c, 8, 66, 0
10, 26348, Note_on_c, 8, 66, 89
10, 26410, Pitch_bend_c, 8, 8064
10, 26412, Pitch_bend_c, 8, 7808
10, 26414, Pitch_bend_c, 8, 7424
10, 26416, Pitch_bend_c, 8, 6912
10, 26418, Pitch_bend_c, 8, 6400
10, 26420, Pitch_bend_c, 8, 5888
10, 26422, Pitch_bend_c, 8, 5376
10, 26424, Pitch_bend_c, 8, 4864
10, 26426, Pitch_bend_c, 8, 4352
10, 26428, Pitch_bend_c, 8, 3840
10, 26430, Pitch_bend_c, 8, 3200
10, 26432, Pitch_bend_c, 8, 2816
10, 26434, Pitch_bend_c, 8, 2304
10, 26436, Pitch_bend_c, 8, 1920
10, 26438, Pitch_bend_c, 8, 1536
10, 26440, Pitch_bend_c, 8, 1152
10, 26442, Pitch_bend_c, 8, 896
10, 26444, Pitch_bend_c, 8, 640
10, 26446, Pitch_bend_c, 8, 512
10, 26450, Pitch_bend_c, 8, 128
10, 26452, Pitch_bend_c, 8, 0
10, 26719, Note_on_c, 8, 66, 0
10, 26776, Pitch_bend_c, 8, 128
10, 26778, Pitch_bend_c, 8, 256
10, 26780, Pitch_bend_c, 8, 384
10, 26782, Pitch_bend_c, 8, 640
10, 26784, Pitch_bend_c, 8, 896
10, 26786, Pitch_bend_c, 8, 1280
10, 26788, Pitch_bend_c, 8, 1536
10, 26790, Pitch_bend_c, 8, 1792
10, 26792, Pitch_bend_c, 8, 2048
10, 26794, Pitch_bend_c, 8, 2304
10, 26796, Pitch_bend_c, 8, 2560
10, 26798, Pitch_bend_c, 8, 2688
10, 26802, Pitch_bend_c, 8, 2944
10, 26804, Pitch_bend_c, 8, 3072
10, 26808, Pitch_bend_c, 8, 3328
10, 26810, Pitch_bend_c, 8, 3456
10, 26813, Pitch_bend_c, 8, 3712
10, 26819, Pitch_bend_c, 8, 3968
10, 26822, Pitch_bend_c, 8, 4096
10, 26825, Pitch_bend_c, 8, 4224
10, 26827, Pitch_bend_c, 8, 4352
10, 26831, Pitch_bend_c, 8, 4480
10, 26833, Pitch_bend_c, 8, 4608
10, 26837, Pitch_bend_c, 8, 4736
10, 26839, Pitch_bend_c, 8, 4864
10, 26843, Pitch_bend_c, 8, 5120
10, 26845, Pitch_bend_c, 8, 5248
10, 26849, Pitch_bend_c, 8, 5632
10, 26851, Pitch_bend_c, 8, 5888
10, 26853, Pitch_bend_c, 8, 6016
10, 26857, Pitch_bend_c, 8, 6272
10, 26859, Pitch_bend_c, 8, 6400
10, 26888, Pitch_bend_c, 8, 6016
10, 26890, Pitch_bend_c, 8, 5760
10, 26892, Pitch_bend_c, 8, 5632
10, 26894, Pitch_bend_c, 8, 5376
10, 26896, Pitch_bend_c, 8, 5248
10, 26898, Pitch_bend_c, 8, 4992
10, 26899, Pitch_bend_c, 8, 4864
10, 26902, Pitch_bend_c, 8, 4608
10, 26904, Pitch_bend_c, 8, 4352
10, 26906, Pitch_bend_c, 8, 4096
10, 26908, Pitch_bend_c, 8, 3840
10, 26909, Pitch_bend_c, 8, 3584
10, 26912, Pitch_bend_c, 8, 3328
10, 26914, Pitch_bend_c, 8, 3072
10, 26916, Pitch_bend_c, 8, 2944
10, 26918, Pitch_bend_c, 8, 2688
10, 26921, Pitch_bend_c, 8, 2432
10, 26927, Pitch_bend_c, 8, 2176
10, 26937, Pitch_bend_c, 8, 2048
10, 26951, Note_on_c, 8, 61, 84
10, 26958, Pitch_bend_c, 8, 2688
10, 26960, Pitch_bend_c, 8, 2944
10, 26962, Pitch_bend_c, 8, 3072
10, 26964, Pitch_bend_c, 8, 3328
10, 26966, Pitch_bend_c, 8, 3584
10, 26968, Pitch_bend_c, 8, 3840
10, 26970, Pitch_bend_c, 8, 4096
10, 26972, Pitch_bend_c, 8, 4480
10, 26974, Pitch_bend_c, 8, 4736
10, 26976, Pitch_bend_c, 8, 4992
10, 26978, Pitch_bend_c, 8, 5376
10, 26981, Pitch_bend_c, 8, 5632
10, 26982, Pitch_bend_c, 8, 5888
10, 26984, Pitch_bend_c, 8, 6144
10, 26986, Pitch_bend_c, 8, 6400
10, 26988, Pitch_bend_c, 8, 6656
10, 26990, Pitch_bend_c, 8, 6784
10, 26992, Pitch_bend_c, 8, 7040
10, 26994, Pitch_bend_c, 8, 7168
10, 26996, Pitch_bend_c, 8, 7424
10, 26998, Pitch_bend_c, 8, 7552
10, 27000, Pitch_bend_c, 8, 7808
10, 27004, Pitch_bend_c, 8, 8064
10, 27006, Pitch_bend_c, 8, 8192
10, 27017, Note_on_c, 8, 61, 0
10, 27025, Pitch_bend_c, 8, 8064
10, 27027, Pitch_bend_c, 8, 7680
10, 27029, Pitch_bend_c, 8, 7296
10, 27031, Pitch_bend_c, 8, 6784
10, 27033, Pitch_bend_c, 8, 6144
10, 27035, Pitch_bend_c, 8, 5504
10, 27037, Pitch_bend_c, 8, 4992
10, 27039, Pitch_bend_c, 8, 4352
10, 27041, Pitch_bend_c, 8, 3712
10, 27043, Pitch_bend_c, 8, 3200
10, 27045, Note_on_c, 8, 61, 84
10, 27045, Pitch_bend_c, 8, 2560
10, 27047, Pitch_bend_c, 8, 2176
10, 27049, Pitch_bend_c, 8, 1920
10, 27051, Pitch_bend_c, 8, 1664
10, 27053, Pitch_bend_c, 8, 1408
10, 27059, Pitch_bend_c, 8, 1280
10, 27065, Pitch_bend_c, 8, 1664
10, 27067, Pitch_bend_c, 8, 1920
10, 27068, Pitch_bend_c, 8, 2176
10, 27070, Pitch_bend_c, 8, 2432
10, 27072, Pitch_bend_c, 8, 2816
10, 27075, Pitch_bend_c, 8, 3200
10, 27077, Pitch_bend_c, 8, 3584
10, 27078, Pitch_bend_c, 8, 3968
10, 27080, Pitch_bend_c, 8, 4352
10, 27082, Pitch_bend_c, 8, 4864
10, 27084, Pitch_bend_c, 8, 5248
10, 27086, Pitch_bend_c, 8, 5632
10, 27088, Pitch_bend_c, 8, 6016
10, 27090, Pitch_bend_c, 8, 6400
10, 27092, Pitch_bend_c, 8, 6784
10, 27094, Pitch_bend_c, 8, 7040
10, 27096, Pitch_bend_c, 8, 7296
10, 27098, Pitch_bend_c, 8, 7552
10, 27100, Pitch_bend_c, 8, 7680
10, 27102, Pitch_bend_c, 8, 7936
10, 27106, Pitch_bend_c, 8, 8192
10, 27128, Note_on_c, 8, 61, 0
10, 27133, Note_on_c, 8, 59, 72
10, 27160, Note_on_c, 8, 59, 0
10, 27186, Note_on_c, 8, 57, 58
10, 27219, Pitch_bend_c, 8, 8320
10, 27221, Pitch_bend_c, 8, 8576
10, 27223, Pitch_bend_c, 8, 8832
10, 27225, Pitch_bend_c, 8, 9088
10, 27227, Pitch_bend_c, 8, 9344
10, 27229, Note_on_c, 8, 57, 0
10, 27229, Pitch_bend_c, 8, 9600
10, 27231, Pitch_bend_c, 8, 9984
10, 27233, Pitch_bend_c, 8, 10240
10, 27235, Pitch_bend_c, 8, 10496
10, 27237, Pitch_bend_c, 8, 10752
10, 27239, Pitch_bend_c, 8, 11008
10, 27241, Pitch_bend_c, 8, 11136
10, 27243, Pitch_bend_c, 8, 11392
10, 27245, Pitch_bend_c, 8, 11520
10, 27247, Pitch_bend_c, 8, 11776
10, 27254, Note_on_c, 8, 54, 72
10, 27255, Pitch_bend_c, 8, 11648
10, 27264, Pitch_bend_c, 8, 10624
10, 27267, Pitch_bend_c, 8, 10112
10, 27269, Pitch_bend_c, 8, 9600
10, 27270, Pitch_bend_c, 8, 8960
10, 27273, Pitch_bend_c, 8, 8448
10, 27274, Pitch_bend_c, 8, 8192
10, 27341, Note_on_c, 8, 54, 0
10, 27670, Note_on_c, 8, 63, 69
10, 27727, Note_on_c, 8, 54, 58
10, 27786, Pitch_bend_c, 8, 8064
10, 27788, Pitch_bend_c, 8, 7680
10, 27790, Pitch_bend_c, 8, 7296
10, 27792, Pitch_bend_c, 8, 6912
10, 27793, Pitch_bend_c, 8, 6400
10, 27795, Pitch_bend_c, 8, 6016
10, 27797, Pitch_bend_c, 8, 5504
10, 27800, Pitch_bend_c, 8, 4992
10, 27802, Pitch_bend_c, 8, 4608
10, 27803, Pitch_bend_c, 8, 4224
10, 27805, Pitch_bend_c, 8, 3840
10, 27807, Pitch_bend_c, 8, 3456
10, 27809, Pitch_bend_c, 8, 3072
10, 27811, Pitch_bend_c, 8, 2816
10, 27813, Pitch_bend_c, 8, 2432
10, 27815, Pitch_bend_c, 8, 2176
10, 27817, Pitch_bend_c, 8, 1920
10, 27819, Pitch_bend_c, 8, 1664
10, 27821, Pitch_bend_c, 8, 1408
10, 27823, Pitch_bend_c, 8, 1152
10, 27825, Pitch_bend_c, 8, 1024
10, 27827, Pitch_bend_c, 8, 768
10, 27829, Pitch_bend_c, 8, 640
10, 27833, Pitch_bend_c, 8, 384
10, 27835, Pitch_bend_c, 8, 256
10, 27839, Pitch_bend_c, 8, 0
10, 28106, Note_on_c, 8, 54, 0
10, 28107, Note_on_c, 8, 63, 0
10, 28150, Pitch_bend_c, 8, 128
10, 28152, Pitch_bend_c, 8, 384
10, 28154, Pitch_bend_c, 8, 768
10, 28156, Pitch_bend_c, 8, 1152
10, 28158, Pitch_bend_c, 8, 1408
10, 28161, Pitch_bend_c, 8, 1792
10, 28162, Pitch_bend_c, 8, 2176
10, 28164, Pitch_bend_c, 8, 2560
10, 28166, Pitch_bend_c, 8, 2944
10, 28168, Pitch_bend_c, 8, 3328
10, 28171, Pitch_bend_c, 8, 3584
10, 28172, Pitch_bend_c, 8, 3968
10, 28174, Pitch_bend_c, 8, 4352
10, 28176, Pitch_bend_c, 8, 4608
10, 28178, Pitch_bend_c, 8, 4992
10, 28180, Pitch_bend_c, 8, 5376
10, 28182, Pitch_bend_c, 8, 5632
10, 28184, Pitch_bend_c, 8, 6016
10, 28186, Pitch_bend_c, 8, 6400
10, 28188, Pitch_bend_c, 8, 6784
10, 28190, Pitch_bend_c, 8, 7168
10, 28192, Pitch_bend_c, 8, 7680
10, 28194, Pitch_bend_c, 8, 8064
10, 28196, Pitch_bend_c, 8, 8192
10, 28508, Note_on_c, 8, 52, 64
10, 28543, Note_on_c, 8, 52, 0
10, 28550, Pitch_bend_c, 8, 8064
10, 28551, Pitch_bend_c, 8, 7808
10, 28553, Pitch_bend_c, 8, 7424
10, 28555, Pitch_bend_c, 8, 7040
10, 28557, Pitch_bend_c, 8, 6784
10, 28559, Pitch_bend_c, 8, 6400
10, 28561, Pitch_bend_c, 8, 6016
10, 28563, Pitch_bend_c, 8, 5760
10, 28565, Pitch_bend_c, 8, 5376
10, 28567, Pitch_bend_c, 8, 5120
10, 28569, Pitch_bend_c, 8, 4992
10, 28571, Note_on_c, 8, 61, 72
10, 28573, Pitch_bend_c, 8, 4736
10, 28579, Pitch_bend_c, 8, 5120
10, 28581, Pitch_bend_c, 8, 5376
10, 28583, Pitch_bend_c, 8, 5760
10, 28585, Pitch_bend_c, 8, 6144
10, 28587, Pitch_bend_c, 8, 6656
10, 28589, Pitch_bend_c, 8, 7040
10, 28591, Pitch_bend_c, 8, 7552
10, 28593, Pitch_bend_c, 8, 7936
10, 28595, Pitch_bend_c, 8, 8192
10, 28616, Note_on_c, 8, 61, 0
10, 28631, Note_on_c, 8, 57, 48
10, 28653, Note_on_c, 8, 57, 0
10, 28697, Note_on_c, 8, 59, 66
10, 28727, Note_on_c, 8, 59, 0
10, 28757, Note_on_c, 8, 57, 61
10, 28773, Pitch_bend_c, 8, 8448
10, 28775, Pitch_bend_c, 8, 8704
10, 28777, Pitch_bend_c, 8, 8960
10, 28779, Pitch_bend_c, 8, 9216
10, 28781, Pitch_bend_c, 8, 9344
10, 28783, Pitch_bend_c, 8, 9472
10, 28785, Pitch_bend_c, 8, 9728
10, 28787, Pitch_bend_c, 8, 9856
10, 28789, Pitch_bend_c, 8, 9984
10, 28791, Pitch_bend_c, 8, 10240
10, 28793, Pitch_bend_c, 8, 10368
10, 28796, Note_on_c, 8, 57, 0
10, 28797, Pitch_bend_c, 8, 10496
10, 28805, Pitch_bend_c, 8, 10240
10, 28807, Pitch_bend_c, 8, 9984
10, 28809, Pitch_bend_c, 8, 9600
10, 28815, Note_on_c, 8, 54, 77
10, 28929, Note_on_c, 8, 54, 0
10, 28985, Note_on_c, 8, 54, 39
10, 29003, Note_on_c, 8, 54, 0
10, 29024, Pitch_bend_c, 8, 7808
10, 29026, Pitch_bend_c, 8, 7424
10, 29028, Pitch_bend_c, 8, 6912
10, 29030, Pitch_bend_c, 8, 6400
10, 29032, Pitch_bend_c, 8, 5888
10, 29034, Pitch_bend_c, 8, 5376
10, 29036, Pitch_bend_c, 8, 4864
10, 29038, Pitch_bend_c, 8, 4352
10, 29040, Pitch_bend_c, 8, 3968
10, 29042, Pitch_bend_c, 8, 3584
10, 29044, Pitch_bend_c, 8, 3328
10, 29046, Pitch_bend_c, 8, 3072
10, 29046, Note_on_c, 8, 61, 74
10, 29054, Pitch_bend_c, 8, 3200
10, 29062, Pitch_bend_c, 8, 4352
10, 29064, Pitch_bend_c, 8, 4736
10, 29066, Pitch_bend_c, 8, 5120
10, 29068, Pitch_bend_c, 8, 5632
10, 29070, Pitch_bend_c, 8, 6016
10, 29072, Pitch_bend_c, 8, 6528
10, 29074, Pitch_bend_c, 8, 6912
10, 29076, Pitch_bend_c, 8, 7168
10, 29078, Pitch_bend_c, 8, 7552
10, 29080, Pitch_bend_c, 8, 7808
10, 29082, Pitch_bend_c, 8, 7936
10, 29084, Pitch_bend_c, 8, 8192
10, 29091, Note_on_c, 8, 61, 0
10, 29109, Note_on_c, 8, 64, 93
10, 29140, Note_on_c, 8, 64, 0
10, 29168, Note_on_c, 8, 66, 111
10, 29199, Pitch_bend_c, 8, 7040
10, 29201, Pitch_bend_c, 8, 6016
10, 29203, Pitch_bend_c, 8, 4992
10, 29205, Pitch_bend_c, 8, 3968
10, 29207, Pitch_bend_c, 8, 2944
10, 29209, Pitch_bend_c, 8, 1920
10, 29211, Pitch_bend_c, 8, 1024
10, 29213, Pitch_bend_c, 8, 128
10, 29215, Pitch_bend_c, 8, 0
10, 29230, Pitch_bend_c, 8, 384
10, 29232, Pitch_bend_c, 8, 2816
10, 29235, Pitch_bend_c, 8, 7040
10, 29237, Pitch_bend_c, 8, 8192
10, 29433, Note_on_c, 8, 66, 0
10, 29469, Note_on_c, 8, 69, 96
10, 29488, Note_on_c, 8, 69, 0
10, 29906, Pitch_bend_c, 8, 7936
10, 29908, Pitch_bend_c, 8, 7680
10, 29910, Pitch_bend_c, 8, 7424
10, 29912, Pitch_bend_c, 8, 7040
10, 29914, Pitch_bend_c, 8, 6656
10, 29916, Pitch_bend_c, 8, 6272
10, 29918, Pitch_bend_c, 8, 5888
10, 29920, Pitch_bend_c, 8, 5504
10, 29922, Pitch_bend_c, 8, 4992
10, 29924, Pitch_bend_c, 8, 4608
10, 29926, Pitch_bend_c, 8, 4224
10, 29929, Pitch_bend_c, 8, 3840
10, 29931, Pitch_bend_c, 8, 3584
10, 29933, Pitch_bend_c, 8, 3328
10, 29935, Pitch_bend_c, 8, 3072
10, 29936, Pitch_bend_c, 8, 2944
10, 29940, Pitch_bend_c, 8, 2688
10, 29950, Note_on_c, 8, 73, 102
10, 29951, Pitch_bend_c, 8, 2816
10, 29958, Pitch_bend_c, 8, 3712
10, 29960, Pitch_bend_c, 8, 4096
10, 29962, Pitch_bend_c, 8, 4608
10, 29965, Pitch_bend_c, 8, 4992
10, 29967, Pitch_bend_c, 8, 5504
10, 29969, Pitch_bend_c, 8, 6016
10, 29971, Pitch_bend_c, 8, 6528
10, 29973, Pitch_bend_c, 8, 7040
10, 29975, Pitch_bend_c, 8, 7424
10, 29977, Pitch_bend_c, 8, 7936
10, 29979, Pitch_bend_c, 8, 8192
10, 30130, Note_on_c, 8, 73, 0
10, 30155, Note_on_c, 8, 71, 96
10, 30180, Note_on_c, 8, 71, 0
10, 30195, Note_on_c, 8, 69, 99
10, 30214, Pitch_bend_c, 8, 8320
10, 30215, Pitch_bend_c, 8, 8832
10, 30218, Pitch_bend_c, 8, 9344
10, 30220, Pitch_bend_c, 8, 9856
10, 30221, Pitch_bend_c, 8, 10368
10, 30224, Pitch_bend_c, 8, 10880
10, 30226, Pitch_bend_c, 8, 11520
10, 30228, Pitch_bend_c, 8, 11904
10, 30230, Pitch_bend_c, 8, 12416
10, 30231, Pitch_bend_c, 8, 12672
10, 30234, Pitch_bend_c, 8, 13056
10, 30236, Pitch_bend_c, 8, 13184
10, 30240, Pitch_bend_c, 8, 13440
10, 30244, Pitch_bend_c, 8, 13056
10, 30245, Note_on_c, 8, 69, 0
10, 30246, Pitch_bend_c, 8, 12672
10, 30248, Pitch_bend_c, 8, 12032
10, 30250, Pitch_bend_c, 8, 10624
10, 30252, Pitch_bend_c, 8, 8448
10, 30253, Pitch_bend_c, 8, 8192
10, 30255, Note_on_c, 8, 66, 72
10, 30428, Note_on_c, 8, 66, 0
10, 30797, Note_on_c, 8, 61, 64
10, 30823, Note_on_c, 8, 63, 72
10, 30835, Note_on_c, 8, 61, 0
10, 30854, Note_on_c, 8, 66, 89
10, 30861, Note_on_c, 8, 63, 0
10, 30881, Note_on_c, 8, 66, 0
10, 30909, Note_on_c, 8, 66, 111
10, 30994, Note_on_c, 8, 66, 0
10, 31031, Note_on_c, 8, 61, 35
10, 31053, Note_on_c, 8, 61, 0
10, 31057, Note_on_c, 8, 63, 58
10, 31091, Note_on_c, 8, 66, 66
10, 31092, Note_on_c, 8, 63, 0
10, 31109, Note_on_c, 8, 66, 0
10, 31131, Pitch_bend_c, 8, 7936
10, 31132, Pitch_bend_c, 8, 7680
10, 31135, Pitch_bend_c, 8, 7424
10, 31137, Pitch_bend_c, 8, 7168
10, 31139, Pitch_bend_c, 8, 6912
10, 31141, Pitch_bend_c, 8, 6528
10, 31143, Pitch_bend_c, 8, 6144
10, 31145, Pitch_bend_c, 8, 5888
10, 31147, Pitch_bend_c, 8, 5632
10, 31149, Pitch_bend_c, 8, 5248
10, 31151, Pitch_bend_c, 8, 4992
10, 31153, Pitch_bend_c, 8, 4864
10, 31153, Note_on_c, 8, 75, 79
10, 31155, Pitch_bend_c, 8, 4608
10, 31159, Pitch_bend_c, 8, 4352
10, 31161, Pitch_bend_c, 8, 4224
10, 31165, Pitch_bend_c, 8, 4096
10, 31187, Pitch_bend_c, 8, 4608
10, 31189, Pitch_bend_c, 8, 4736
10, 31192, Pitch_bend_c, 8, 4992
10, 31194, Pitch_bend_c, 8, 5120
10, 31197, Pitch_bend_c, 8, 5376
10, 31199, Pitch_bend_c, 8, 5504
10, 31201, Pitch_bend_c, 8, 5760
10, 31203, Pitch_bend_c, 8, 6016
10, 31205, Pitch_bend_c, 8, 6272
10, 31207, Pitch_bend_c, 8, 6400
10, 31209, Pitch_bend_c, 8, 6656
10, 31211, Pitch_bend_c, 8, 6784
10, 31215, Pitch_bend_c, 8, 7168
10, 31217, Pitch_bend_c, 8, 7296
10, 31219, Pitch_bend_c, 8, 7424
10, 31221, Pitch_bend_c, 8, 7680
10, 31223, Pitch_bend_c, 8, 7808
10, 31225, Pitch_bend_c, 8, 7936
10, 31227, Pitch_bend_c, 8, 8192
10, 31259, Note_on_c, 8, 75, 0
10, 31268, Note_on_c, 8, 73, 93
10, 31299, Note_on_c, 8, 73, 0
10, 31308, Pitch_bend_c, 8, 7936
10, 31310, Pitch_bend_c, 8, 7680
10, 31312, Pitch_bend_c, 8, 7296
10, 31314, Pitch_bend_c, 8, 6912
10, 31316, Pitch_bend_c, 8, 6528
10, 31318, Pitch_bend_c, 8, 6144
10, 31320, Pitch_bend_c, 8, 5888
10, 31323, Pitch_bend_c, 8, 5504
10, 31325, Pitch_bend_c, 8, 5248
10, 31327, Pitch_bend_c, 8, 4992
10, 31329, Pitch_bend_c, 8, 4736
10, 31333, Note_on_c, 8, 69, 89
10, 31333, Pitch_bend_c, 8, 4608
10, 31352, Pitch_bend_c, 8, 5120
10, 31354, Pitch_bend_c, 8, 5248
10, 31356, Pitch_bend_c, 8, 5504
10, 31361, Pitch_bend_c, 8, 5760
10, 31363, Pitch_bend_c, 8, 5888
10, 31365, Pitch_bend_c, 8, 6144
10, 31366, Pitch_bend_c, 8, 6400
10, 31368, Pitch_bend_c, 8, 6528
10, 31370, Pitch_bend_c, 8, 6784
10, 31373, Pitch_bend_c, 8, 7040
10, 31375, Pitch_bend_c, 8, 7296
10, 31377, Pitch_bend_c, 8, 7552
10, 31379, Pitch_bend_c, 8, 7808
10, 31381, Pitch_bend_c, 8, 8064
10, 31383, Pitch_bend_c, 8, 8192
10, 31385, Note_on_c, 8, 69, 0
10, 31392, Note_on_c, 8, 68, 66
10, 31427, Note_on_c, 8, 68, 0
10, 31445, Note_on_c, 8, 66, 96
10, 31584, Note_on_c, 8, 66, 0
10, 31633, Note_on_c, 8, 66, 58
10, 31660, Note_on_c, 8, 66, 0
10, 31660, Pitch_bend_c, 8, 7936
10, 31662, Pitch_bend_c, 8, 7552
10, 31664, Pitch_bend_c, 8, 7296
10, 31666, Pitch_bend_c, 8, 6912
10, 31668, Pitch_bend_c, 8, 6656
10, 31670, Pitch_bend_c, 8, 6272
10, 31672, Pitch_bend_c, 8, 6016
10, 31674, Pitch_bend_c, 8, 5632
10, 31676, Pitch_bend_c, 8, 5376
10, 31678, Pitch_bend_c, 8, 5120
10, 31680, Pitch_bend_c, 8, 4864
10, 31682, Pitch_bend_c, 8, 4608
10, 31685, Pitch_bend_c, 8, 4480
10, 31689, Pitch_bend_c, 8, 4224
10, 31694, Note_on_c, 8, 69, 74
10, 31697, Pitch_bend_c, 8, 4480
10, 31699, Pitch_bend_c, 8, 4608
10, 31701, Pitch_bend_c, 8, 4864
10, 31703, Pitch_bend_c, 8, 5120
10, 31705, Pitch_bend_c, 8, 5504
10, 31707, Pitch_bend_c, 8, 5760
10, 31709, Pitch_bend_c, 8, 6144
10, 31711, Pitch_bend_c, 8, 6528
10, 31713, Pitch_bend_c, 8, 6912
10, 31715, Pitch_bend_c, 8, 7296
10, 31717, Pitch_bend_c, 8, 7552
10, 31719, Pitch_bend_c, 8, 7936
10, 31721, Pitch_bend_c, 8, 8192
10, 31739, Note_on_c, 8, 69, 0
10, 31751, Note_on_c, 8, 71, 77
10, 31791, Note_on_c, 8, 71, 0
10, 31809, Note_on_c, 8, 73, 89
10, 31841, Note_on_c, 8, 73, 0
10, 31848, Pitch_bend_c, 8, 7936
10, 31850, Pitch_bend_c, 8, 7424
10, 31852, Pitch_bend_c, 8, 7040
10, 31854, Pitch_bend_c, 8, 6784
10, 31856, Pitch_bend_c, 8, 6400
10, 31858, Pitch_bend_c, 8, 6144
10, 31860, Pitch_bend_c, 8, 5888
10, 31862, Pitch_bend_c, 8, 5632
10, 31864, Pitch_bend_c, 8, 5504
10, 31868, Pitch_bend_c, 8, 5248
10, 31871, Note_on_c, 8, 69, 77
10, 31878, Pitch_bend_c, 8, 5376
10, 31880, Pitch_bend_c, 8, 5504
10, 31882, Pitch_bend_c, 8, 5760
10, 31884, Pitch_bend_c, 8, 6016
10, 31886, Pitch_bend_c, 8, 6400
10, 31888, Pitch_bend_c, 8, 6784
10, 31890, Pitch_bend_c, 8, 7296
10, 31892, Pitch_bend_c, 8, 7808
10, 31894, Pitch_bend_c, 8, 8192
10, 31915, Note_on_c, 8, 69, 0
10, 31930, Note_on_c, 8, 66, 77
10, 31956, Note_on_c, 8, 66, 0
10, 31989, Note_on_c, 8, 61, 81
10, 32027, Note_on_c, 8, 61, 0
10, 32045, Note_on_c, 8, 63, 72
10, 32088, Note_on_c, 8, 63, 0
10, 32109, Note_on_c, 8, 66, 66
10, 32421, Note_on_c, 8, 66, 0
10, 32472, Note_on_c, 8, 76, 102
10, 32473, Note_on_c, 8, 73, 89
10, 32558, Note_on_c, 8, 73, 0
10, 32564, Note_on_c, 8, 76, 0
10, 32581, Note_on_c, 8, 71, 74
10, 32582, Note_on_c, 8, 75, 55
10, 32584, Note_on_c, 8, 73, 43
10, 32589, Note_on_c, 8, 73, 0
10, 32635, Note_on_c, 8, 71, 0
10, 32636, Note_on_c, 8, 75, 0
10, 32660, Note_on_c, 8, 69, 81
10, 32660, Note_on_c, 8, 73, 72
10, 32683, Note_on_c, 8, 69, 0
10, 32685, Note_on_c, 8, 70, 72
10, 32738, Note_on_c, 8, 70, 0
10, 32747, Note_on_c, 8, 73, 0
10, 32769, Note_on_c, 8, 71, 58
10, 32770, Note_on_c, 8, 75, 61
10, 32806, Note_on_c, 8, 71, 0
10, 32817, Note_on_c, 8, 75, 0
10, 32837, Note_on_c, 8, 69, 89
10, 32839, Note_on_c, 8, 73, 35
10, 32851, Note_on_c, 8, 69, 0
10, 32851, Note_on_c, 8, 70, 84
10, 32910, Note_on_c, 8, 70, 0
10, 32925, Note_on_c, 8, 73, 0
10, 32962, Note_on_c, 8, 76, 77
10, 33006, Note_on_c, 8, 76, 0
10, 33017, Note_on_c, 8, 75, 79
10, 33053, Note_on_c, 8, 75, 0
10, 33060, Pitch_bend_c, 8, 7936
10, 33062, Pitch_bend_c, 8, 7552
10, 33064, Pitch_bend_c, 8, 7296
10, 33066, Pitch_bend_c, 8, 6912
10, 33068, Pitch_bend_c, 8, 6656
10, 33070, Pitch_bend_c, 8, 6272
10, 33072, Pitch_bend_c, 8, 5888
10, 33074, Pitch_bend_c, 8, 5632
10, 33076, Pitch_bend_c, 8, 5248
10, 33078, Pitch_bend_c, 8, 4992
10, 33080, Pitch_bend_c, 8, 4736
10, 33081, Note_on_c, 8, 73, 84
10, 33083, Pitch_bend_c, 8, 4480
10, 33085, Pitch_bend_c, 8, 4352
10, 33087, Pitch_bend_c, 8, 4224
10, 33091, Pitch_bend_c, 8, 3968
10, 33092, Pitch_bend_c, 8, 3840
10, 33101, Pitch_bend_c, 8, 3712
10, 33113, Pitch_bend_c, 8, 4224
10, 33115, Pitch_bend_c, 8, 4352
10, 33119, Pitch_bend_c, 8, 4608
10, 33121, Pitch_bend_c, 8, 4736
10, 33123, Pitch_bend_c, 8, 4992
10, 33125, Pitch_bend_c, 8, 5248
10, 33127, Pitch_bend_c, 8, 5376
10, 33129, Pitch_bend_c, 8, 5632
10, 33132, Pitch_bend_c, 8, 5760
10, 33134, Pitch_bend_c, 8, 6016
10, 33136, Pitch_bend_c, 8, 6144
10, 33138, Pitch_bend_c, 8, 6272
10, 33140, Pitch_bend_c, 8, 6528
10, 33141, Pitch_bend_c, 8, 6656
10, 33144, Pitch_bend_c, 8, 6784
10, 33148, Pitch_bend_c, 8, 7040
10, 33150, Pitch_bend_c, 8, 7168
10, 33154, Pitch_bend_c, 8, 7296
10, 33156, Pitch_bend_c, 8, 7424
10, 33160, Pitch_bend_c, 8, 7552
10, 33161, Pitch_bend_c, 8, 7680
10, 33166, Pitch_bend_c, 8, 7808
10, 33168, Pitch_bend_c, 8, 7936
10, 33174, Pitch_bend_c, 8, 8064
10, 33176, Pitch_bend_c, 8, 8192
10, 33388, Note_on_c, 8, 73, 0
10, 33427, Note_on_c, 8, 71, 102
10, 33460, Note_on_c, 8, 71, 0
10, 33461, Pitch_bend_c, 8, 7808
10, 33463, Pitch_bend_c, 8, 7552
10, 33466, Pitch_bend_c, 8, 7168
10, 33468, Pitch_bend_c, 8, 6784
10, 33470, Pitch_bend_c, 8, 6400
10, 33472, Pitch_bend_c, 8, 6016
10, 33474, Pitch_bend_c, 8, 5504
10, 33476, Pitch_bend_c, 8, 5248
10, 33478, Pitch_bend_c, 8, 4864
10, 33480, Pitch_bend_c, 8, 4480
10, 33482, Pitch_bend_c, 8, 4224
10, 33484, Pitch_bend_c, 8, 4096
10, 33488, Pitch_bend_c, 8, 3968
10, 33490, Note_on_c, 8, 69, 96
10, 33496, Pitch_bend_c, 8, 4224
10, 33498, Pitch_bend_c, 8, 4480
10, 33500, Pitch_bend_c, 8, 4736
10, 33503, Pitch_bend_c, 8, 4992
10, 33504, Pitch_bend_c, 8, 5248
10, 33506, Pitch_bend_c, 8, 5632
10, 33508, Pitch_bend_c, 8, 6016
10, 33510, Pitch_bend_c, 8, 6400
10, 33513, Pitch_bend_c, 8, 6784
10, 33515, Pitch_bend_c, 8, 7168
10, 33517, Pitch_bend_c, 8, 7552
10, 33519, Pitch_bend_c, 8, 7808
10, 33521, Pitch_bend_c, 8, 8064
10, 33523, Pitch_bend_c, 8, 8192
10, 33533, Note_on_c, 8, 69, 0
10, 33553, Note_on_c, 8, 68, 81
10, 33597, Note_on_c, 8, 68, 0
10, 33610, Note_on_c, 8, 66, 89
10, 33641, Note_on_c, 8, 66, 0
10, 33670, Note_on_c, 8, 61, 69
10, 33710, Note_on_c, 8, 61, 0
10, 33726, Note_on_c, 8, 63, 102
10, 33782, Note_on_c, 8, 63, 0
10, 33784, Note_on_c, 8, 66, 72
10, 33829, Note_on_c, 8, 66, 0
10, 33850, Note_on_c, 8, 73, 105
10, 33885, Note_on_c, 8, 73, 0
10, 33908, Note_on_c, 8, 71, 58
10, 33940, Note_on_c, 8, 71, 0
10, 33951, Pitch_bend_c, 8, 7936
10, 33953, Pitch_bend_c, 8, 7808
10, 33955, Pitch_bend_c, 8, 7424
10, 33957, Pitch_bend_c, 8, 7168
10, 33960, Pitch_bend_c, 8, 6784
10, 33961, Pitch_bend_c, 8, 6528
10, 33963, Pitch_bend_c, 8, 6144
10, 33965, Pitch_bend_c, 8, 5760
10, 33967, Pitch_bend_c, 8, 5376
10, 33969, Pitch_bend_c, 8, 4992
10, 33971, Pitch_bend_c, 8, 4736
10, 33973, Pitch_bend_c, 8, 4352
10, 33976, Pitch_bend_c, 8, 4224
10, 33976, Note_on_c, 8, 69, 91
10, 33978, Pitch_bend_c, 8, 3968
10, 33995, Pitch_bend_c, 8, 4736
10, 33997, Pitch_bend_c, 8, 4992
10, 34000, Pitch_bend_c, 8, 5248
10, 34002, Pitch_bend_c, 8, 5504
10, 34003, Pitch_bend_c, 8, 5632
10, 34005, Pitch_bend_c, 8, 5888
10, 34007, Pitch_bend_c, 8, 6016
10, 34009, Pitch_bend_c, 8, 6272
10, 34014, Pitch_bend_c, 8, 6528
10, 34016, Pitch_bend_c, 8, 6656
10, 34020, Pitch_bend_c, 8, 6912
10, 34025, Pitch_bend_c, 8, 7168
10, 34027, Pitch_bend_c, 8, 7296
10, 34031, Pitch_bend_c, 8, 7552
10, 34033, Pitch_bend_c, 8, 7680
10, 34037, Pitch_bend_c, 8, 7936
10, 34039, Pitch_bend_c, 8, 8192
10, 34071, Note_on_c, 8, 69, 0
10, 34085, Note_on_c, 8, 66, 102
10, 34362, Note_on_c, 8, 66, 0
10, 34393, Note_on_c, 8, 61, 39
10, 34420, Note_on_c, 8, 63, 58
10, 34429, Note_on_c, 8, 61, 0
10, 34449, Note_on_c, 8, 66, 69
10, 34453, Note_on_c, 8, 63, 0
10, 34479, Note_on_c, 8, 66, 0
10, 34512, Note_on_c, 8, 66, 96
10, 34635, Note_on_c, 8, 66, 0
10, 34637, Note_on_c, 8, 61, 26
10, 34660, Note_on_c, 8, 61, 0
10, 34663, Note_on_c, 8, 63, 64
10, 34692, Note_on_c, 8, 66, 89
10, 34695, Note_on_c, 8, 63, 0
10, 34718, Note_on_c, 8, 66, 0
10, 34755, Note_on_c, 8, 66, 64
10, 34931, Note_on_c, 8, 66, 0
10, 36309, Pitch_bend_c, 8, 8064
10, 36311, Pitch_bend_c, 8, 7680
10, 36314, Pitch_bend_c, 8, 7168
10, 36316, Pitch_bend_c, 8, 6784
10, 36318, Pitch_bend_c, 8, 6272
10, 36320, Pitch_bend_c, 8, 5760
10, 36322, Pitch_bend_c, 8, 5120
10, 36324, Pitch_bend_c, 8, 4608
10, 36326, Pitch_bend_c, 8, 3968
10, 36328, Pitch_bend_c, 8, 3456
10, 36330, Pitch_bend_c, 8, 2944
10, 36332, Pitch_bend_c, 8, 2304
10, 36334, Pitch_bend_c, 8, 1792
10, 36336, Pitch_bend_c, 8, 1280
10, 36338, Pitch_bend_c, 8, 896
10, 36340, Pitch_bend_c, 8, 512
10, 36342, Pitch_bend_c, 8, 128
10, 36344, Pitch_bend_c, 8, 0
10, 36372, Note_on_c, 8, 66, 74
10, 36400, Note_on_c, 8, 66, 0
10, 36412, Pitch_bend_c, 8, 128
10, 36413, Pitch_bend_c, 8, 384
10, 36415, Pitch_bend_c, 8, 640
10, 36417, Pitch_bend_c, 8, 896
10, 36419, Pitch_bend_c, 8, 1024
10, 36421, Pitch_bend_c, 8, 1280
10, 36424, Pitch_bend_c, 8, 1408
10, 36427, Pitch_bend_c, 8, 1536
10, 36431, Note_on_c, 8, 66, 102
10, 36434, Pitch_bend_c, 8, 1280
10, 36436, Pitch_bend_c, 8, 1024
10, 36438, Pitch_bend_c, 8, 640
10, 36440, Pitch_bend_c, 8, 256
10, 36442, Pitch_bend_c, 8, 0
10, 36538, Pitch_bend_c, 8, 128
10, 36540, Pitch_bend_c, 8, 384
10, 36542, Pitch_bend_c, 8, 768
10, 36544, Pitch_bend_c, 8, 1280
10, 36546, Pitch_bend_c, 8, 1664
10, 36549, Pitch_bend_c, 8, 2304
10, 36551, Pitch_bend_c, 8, 2816
10, 36553, Pitch_bend_c, 8, 3456
10, 36554, Pitch_bend_c, 8, 4224
10, 36556, Pitch_bend_c, 8, 4864
10, 36558, Pitch_bend_c, 8, 5632
10, 36560, Pitch_bend_c, 8, 6272
10, 36562, Pitch_bend_c, 8, 6912
10, 36565, Pitch_bend_c, 8, 7552
10, 36567, Pitch_bend_c, 8, 8064
10, 36569, Pitch_bend_c, 8, 8192
10, 36596, Note_on_c, 8, 66, 0
10, 38233, Note_on_c, 8, 54, 79
10, 38262, Note_on_c, 8, 54, 0
10, 38280, Pitch_bend_c, 8, 7936
10, 38282, Pitch_bend_c, 8, 7552
10, 38284, Pitch_bend_c, 8, 6912
10, 38286, Pitch_bend_c, 8, 6272
10, 38288, Pitch_bend_c, 8, 5632
10, 38290, Pitch_bend_c, 8, 4992
10, 38292, Pitch_bend_c, 8, 4480
10, 38294, Pitch_bend_c, 8, 3968
10, 38296, Pitch_bend_c, 8, 3456
10, 38296, Note_on_c, 8, 58, 74
10, 38298, Pitch_bend_c, 8, 3072
10, 38300, Pitch_bend_c, 8, 2688
10, 38302, Pitch_bend_c, 8, 2432
10, 38304, Pitch_bend_c, 8, 2304
10, 38312, Pitch_bend_c, 8, 2176
10, 38322, Pitch_bend_c, 8, 3200
10, 38324, Pitch_bend_c, 8, 3456
10, 38326, Pitch_bend_c, 8, 3840
10, 38328, Pitch_bend_c, 8, 4224
10, 38331, Pitch_bend_c, 8, 4608
10, 38333, Pitch_bend_c, 8, 4864
10, 38334, Pitch_bend_c, 8, 5248
10, 38336, Pitch_bend_c, 8, 5632
10, 38338, Pitch_bend_c, 8, 5888
10, 38340, Pitch_bend_c, 8, 6272
10, 38342, Pitch_bend_c, 8, 6528
10, 38345, Pitch_bend_c, 8, 6656
10, 38347, Pitch_bend_c, 8, 6912
10, 38349, Pitch_bend_c, 8, 7168
10, 38351, Pitch_bend_c, 8, 7296
10, 38352, Pitch_bend_c, 8, 7552
10, 38355, Pitch_bend_c, 8, 7680
10, 38355, Note_on_c, 8, 66, 79
10, 38357, Note_on_c, 8, 58, 0
10, 38357, Pitch_bend_c, 8, 7936
10, 38359, Pitch_bend_c, 8, 8192
10, 38750, Note_on_c, 8, 66, 0
10, 39965, Pitch_bend_c, 8, 7936
10, 39967, Pitch_bend_c, 8, 7808
10, 39969, Pitch_bend_c, 8, 7552
10, 39971, Pitch_bend_c, 8, 7424
10, 39973, Pitch_bend_c, 8, 7168
10, 39975, Pitch_bend_c, 8, 6912
10, 39977, Pitch_bend_c, 8, 6784
10, 39979, Pitch_bend_c, 8, 6528
10, 39981, Pitch_bend_c, 8, 6272
10, 39983, Pitch_bend_c, 8, 6144
10, 39985, Pitch_bend_c, 8, 5888
10, 39987, Pitch_bend_c, 8, 5760
10, 39989, Pitch_bend_c, 8, 5632
10, 39991, Pitch_bend_c, 8, 5376
10, 39993, Pitch_bend_c, 8, 5248
10, 39997, Pitch_bend_c, 8, 4992
10, 39999, Pitch_bend_c, 8, 4736
10, 40003, Pitch_bend_c, 8, 4480
10, 40009, Pitch_bend_c, 8, 4224
10, 40017, Pitch_bend_c, 8, 3968
10, 40027, Pitch_bend_c, 8, 3840
10, 40033, Note_on_c, 8, 69, 93
10, 40044, Pitch_bend_c, 8, 4480
10, 40046, Pitch_bend_c, 8, 4608
10, 40050, Pitch_bend_c, 8, 4864
10, 40052, Pitch_bend_c, 8, 5120
10, 40055, Pitch_bend_c, 8, 5248
10, 40057, Pitch_bend_c, 8, 5504
10, 40059, Pitch_bend_c, 8, 5760
10, 40061, Pitch_bend_c, 8, 6016
10, 40063, Pitch_bend_c, 8, 6272
10, 40065, Pitch_bend_c, 8, 6528
10, 40067, Pitch_bend_c, 8, 6784
10, 40069, Pitch_bend_c, 8, 6912
10, 40071, Pitch_bend_c, 8, 7168
10, 40073, Pitch_bend_c, 8, 7424
10, 40075, Pitch_bend_c, 8, 7552
10, 40077, Pitch_bend_c, 8, 7808
10, 40079, Pitch_bend_c, 8, 8064
10, 40081, Pitch_bend_c, 8, 8192
10, 40126, Pitch_bend_c, 8, 8064
10, 40130, Pitch_bend_c, 8, 7936
10, 40132, Pitch_bend_c, 8, 7808
10, 40136, Pitch_bend_c, 8, 7680
10, 40138, Pitch_bend_c, 8, 7552
10, 40142, Pitch_bend_c, 8, 7296
10, 40144, Pitch_bend_c, 8, 7168
10, 40148, Pitch_bend_c, 8, 7040
10, 40150, Pitch_bend_c, 8, 6912
10, 40154, Pitch_bend_c, 8, 6656
10, 40156, Pitch_bend_c, 8, 6400
10, 40160, Pitch_bend_c, 8, 6144
10, 40162, Pitch_bend_c, 8, 6016
10, 40164, Pitch_bend_c, 8, 5888
10, 40168, Pitch_bend_c, 8, 5632
10, 40170, Pitch_bend_c, 8, 5504
10, 40174, Pitch_bend_c, 8, 5248
10, 40194, Note_on_c, 8, 69, 0
10, 40195, Pitch_bend_c, 8, 6144
10, 40196, Pitch_bend_c, 8, 6400
10, 40199, Pitch_bend_c, 8, 6784
10, 40201, Pitch_bend_c, 8, 7168
10, 40203, Pitch_bend_c, 8, 7680
10, 40203, Note_on_c, 8, 66, 74
10, 40205, Pitch_bend_c, 8, 8192
10, 40235, Note_on_c, 8, 66, 0
10, 40270, Note_on_c, 8, 66, 102
10, 40463, Note_on_c, 8, 66, 0
10, 40481, Pitch_bend_c, 8, 7936
10, 40483, Pitch_bend_c, 8, 7424
10, 40486, Pitch_bend_c, 8, 7040
10, 40488, Pitch_bend_c, 8, 6656
10, 40490, Pitch_bend_c, 8, 6272
10, 40492, Pitch_bend_c, 8, 5888
10, 40494, Pitch_bend_c, 8, 5504
10, 40496, Pitch_bend_c, 8, 5120
10, 40498, Pitch_bend_c, 8, 4864
10, 40499, Pitch_bend_c, 8, 4608
10, 40502, Pitch_bend_c, 8, 4352
10, 40504, Pitch_bend_c, 8, 4096
10, 40506, Pitch_bend_c, 8, 3840
10, 40508, Pitch_bend_c, 8, 3712
10, 40510, Pitch_bend_c, 8, 3456
10, 40514, Pitch_bend_c, 8, 3200
10, 40518, Note_on_c, 8, 69, 72
10, 40534, Pitch_bend_c, 8, 3968
10, 40536, Pitch_bend_c, 8, 4224
10, 40538, Pitch_bend_c, 8, 4480
10, 40541, Pitch_bend_c, 8, 4864
10, 40542, Pitch_bend_c, 8, 5248
10, 40545, Pitch_bend_c, 8, 5504
10, 40547, Pitch_bend_c, 8, 5888
10, 40548, Pitch_bend_c, 8, 6144
10, 40550, Pitch_bend_c, 8, 6528
10, 40552, Pitch_bend_c, 8, 6784
10, 40554, Pitch_bend_c, 8, 7040
10, 40556, Pitch_bend_c, 8, 7296
10, 40559, Pitch_bend_c, 8, 7424
10, 40561, Pitch_bend_c, 8, 7680
10, 40563, Pitch_bend_c, 8, 7936
10, 40565, Pitch_bend_c, 8, 8192
10, 40584, Note_on_c, 8, 69, 0
10, 41173, Pitch_bend_c, 8, 7808
10, 41175, Pitch_bend_c, 8, 7424
10, 41177, Pitch_bend_c, 8, 6912
10, 41179, Pitch_bend_c, 8, 6400
10, 41181, Pitch_bend_c, 8, 5888
10, 41183, Pitch_bend_c, 8, 5376
10, 41185, Pitch_bend_c, 8, 4736
10, 41187, Pitch_bend_c, 8, 4224
10, 41189, Pitch_bend_c, 8, 3712
10, 41190, Pitch_bend_c, 8, 3200
10, 41193, Pitch_bend_c, 8, 2688
10, 41195, Pitch_bend_c, 8, 2176
10, 41196, Pitch_bend_c, 8, 1792
10, 41198, Pitch_bend_c, 8, 1408
10, 41201, Pitch_bend_c, 8, 1024
10, 41202, Pitch_bend_c, 8, 768
10, 41204, Pitch_bend_c, 8, 384
10, 41206, Pitch_bend_c, 8, 0
10, 41235, Note_on_c, 8, 66, 89
10, 41288, Pitch_bend_c, 8, 128
10, 41485, Note_on_c, 8, 66, 0
10, 41855, Pitch_bend_c, 8, 8064
10, 41859, Pitch_bend_c, 8, 7936
10, 41861, Pitch_bend_c, 8, 7808
10, 41865, Pitch_bend_c, 8, 7680
10, 41867, Pitch_bend_c, 8, 7552
10, 41871, Pitch_bend_c, 8, 7296
10, 41873, Pitch_bend_c, 8, 7168
10, 41877, Pitch_bend_c, 8, 6912
10, 41879, Pitch_bend_c, 8, 6784
10, 41883, Pitch_bend_c, 8, 6528
10, 41886, Pitch_bend_c, 8, 6400
10, 41888, Pitch_bend_c, 8, 6144
10, 41890, Pitch_bend_c, 8, 6016
10, 41892, Pitch_bend_c, 8, 5888
10, 41896, Pitch_bend_c, 8, 5632
10, 41898, Pitch_bend_c, 8, 5504
10, 41900, Pitch_bend_c, 8, 5248
10, 41902, Pitch_bend_c, 8, 5120
10, 41904, Pitch_bend_c, 8, 4992
10, 41906, Pitch_bend_c, 8, 4864
10, 41910, Pitch_bend_c, 8, 4608
10, 41912, Pitch_bend_c, 8, 4480
10, 41916, Pitch_bend_c, 8, 4224
10, 41918, Pitch_bend_c, 8, 4096
10, 41922, Pitch_bend_c, 8, 3840
10, 41930, Pitch_bend_c, 8, 3712
10, 41932, Pitch_bend_c, 8, 3584
10, 41938, Pitch_bend_c, 8, 3456
10, 41940, Pitch_bend_c, 8, 3328
10, 41946, Pitch_bend_c, 8, 3200
10, 41948, Pitch_bend_c, 8, 3072
10, 41952, Pitch_bend_c, 8, 2944
10, 41954, Pitch_bend_c, 8, 2816
10, 41955, Note_on_c, 8, 76, 96
10, 41962, Pitch_bend_c, 8, 2688
10, 41985, Pitch_bend_c, 8, 3200
10, 41987, Pitch_bend_c, 8, 3328
10, 41991, Pitch_bend_c, 8, 3456
10, 41993, Pitch_bend_c, 8, 3584
10, 41997, Pitch_bend_c, 8, 3840
10, 41999, Pitch_bend_c, 8, 3968
10, 42003, Pitch_bend_c, 8, 4224
10, 42005, Pitch_bend_c, 8, 4352
10, 42010, Pitch_bend_c, 8, 4608
10, 42012, Pitch_bend_c, 8, 4736
10, 42016, Pitch_bend_c, 8, 4992
10, 42018, Pitch_bend_c, 8, 5120
10, 42022, Pitch_bend_c, 8, 5376
10, 42024, Pitch_bend_c, 8, 5504
10, 42028, Pitch_bend_c, 8, 5632
10, 42030, Pitch_bend_c, 8, 5760
10, 42034, Pitch_bend_c, 8, 6016
10, 42036, Pitch_bend_c, 8, 6144
10, 42040, Pitch_bend_c, 8, 6400
10, 42046, Pitch_bend_c, 8, 6656
10, 42048, Pitch_bend_c, 8, 6784
10, 42054, Pitch_bend_c, 8, 6912
10, 42056, Pitch_bend_c, 8, 7040
10, 42064, Pitch_bend_c, 8, 7168
10, 42075, Pitch_bend_c, 8, 7424
10, 42085, Pitch_bend_c, 8, 7552
10, 42095, Pitch_bend_c, 8, 7680
10, 42109, Pitch_bend_c, 8, 8192
10, 42178, Note_on_c, 8, 76, 0
10, 42194, Pitch_bend_c, 8, 7936
10, 42196, Pitch_bend_c, 8, 7680
10, 42198, Pitch_bend_c, 8, 7296
10, 42200, Pitch_bend_c, 8, 6912
10, 42202, Pitch_bend_c, 8, 6528
10, 42204, Pitch_bend_c, 8, 6144
10, 42206, Pitch_bend_c, 8, 5760
10, 42208, Pitch_bend_c, 8, 5376
10, 42210, Pitch_bend_c, 8, 5120
10, 42212, Pitch_bend_c, 8, 4736
10, 42214, Pitch_bend_c, 8, 4480
10, 42216, Pitch_bend_c, 8, 4096
10, 42219, Pitch_bend_c, 8, 3840
10, 42221, Pitch_bend_c, 8, 3584
10, 42223, Pitch_bend_c, 8, 3328
10, 42225, Pitch_bend_c, 8, 3072
10, 42227, Pitch_bend_c, 8, 2944
10, 42231, Pitch_bend_c, 8, 2688
10, 42241, Pitch_bend_c, 8, 2560
10, 42251, Note_on_c, 8, 73, 66
10, 42262, Pitch_bend_c, 8, 3200
10, 42264, Pitch_bend_c, 8, 3328
10, 42266, Pitch_bend_c, 8, 3584
10, 42268, Pitch_bend_c, 8, 3712
10, 42270, Pitch_bend_c, 8, 3968
10, 42272, Pitch_bend_c, 8, 4352
10, 42274, Pitch_bend_c, 8, 4608
10, 42276, Pitch_bend_c, 8, 4864
10, 42278, Pitch_bend_c, 8, 5248
10, 42280, Pitch_bend_c, 8, 5504
10, 42282, Pitch_bend_c, 8, 5888
10, 42284, Pitch_bend_c, 8, 6144
10, 42286, Pitch_bend_c, 8, 6400
10, 42288, Pitch_bend_c, 8, 6656
10, 42290, Pitch_bend_c, 8, 6784
10, 42292, Pitch_bend_c, 8, 7040
10, 42294, Note_on_c, 8, 73, 0
10, 42295, Pitch_bend_c, 8, 7296
10, 42297, Pitch_bend_c, 8, 7424
10, 42299, Pitch_bend_c, 8, 7680
10, 42301, Pitch_bend_c, 8, 7936
10, 42303, Pitch_bend_c, 8, 8192
10, 42316, Note_on_c, 8, 71, 72
10, 42344, Note_on_c, 8, 71, 0
10, 42369, Note_on_c, 8, 71, 69
10, 42398, Note_on_c, 8, 71, 0
10, 42402, Pitch_bend_c, 8, 7936
10, 42404, Pitch_bend_c, 8, 7552
10, 42406, Pitch_bend_c, 8, 7296
10, 42408, Pitch_bend_c, 8, 6912
10, 42410, Pitch_bend_c, 8, 6656
10, 42413, Pitch_bend_c, 8, 6272
10, 42415, Pitch_bend_c, 8, 6016
10, 42417, Pitch_bend_c, 8, 5632
10, 42419, Pitch_bend_c, 8, 5376
10, 42421, Pitch_bend_c, 8, 5120
10, 42423, Pitch_bend_c, 8, 4992
10, 42427, Pitch_bend_c, 8, 4736
10, 42429, Pitch_bend_c, 8, 4608
10, 42431, Note_on_c, 8, 69, 74
10, 42436, Pitch_bend_c, 8, 4864
10, 42438, Pitch_bend_c, 8, 4992
10, 42440, Pitch_bend_c, 8, 5248
10, 42442, Pitch_bend_c, 8, 5504
10, 42444, Pitch_bend_c, 8, 5760
10, 42446, Pitch_bend_c, 8, 6144
10, 42448, Pitch_bend_c, 8, 6528
10, 42450, Pitch_bend_c, 8, 6912
10, 42452, Pitch_bend_c, 8, 7296
10, 42454, Pitch_bend_c, 8, 7680
10, 42456, Pitch_bend_c, 8, 8064
10, 42458, Pitch_bend_c, 8, 8192
10, 42475, Note_on_c, 8, 69, 0
10, 42490, Note_on_c, 8, 73, 74
10, 42522, Note_on_c, 8, 73, 0
10, 42540, Pitch_bend_c, 8, 7936
10, 42542, Pitch_bend_c, 8, 7552
10, 42544, Pitch_bend_c, 8, 7168
10, 42546, Pitch_bend_c, 8, 6784
10, 42548, Pitch_bend_c, 8, 6272
10, 42550, Pitch_bend_c, 8, 5888
10, 42552, Pitch_bend_c, 8, 5504
10, 42554, Note_on_c, 8, 69, 72
10, 42554, Pitch_bend_c, 8, 5120
10, 42556, Pitch_bend_c, 8, 4736
10, 42558, Pitch_bend_c, 8, 4480
10, 42560, Pitch_bend_c, 8, 4224
10, 42562, Pitch_bend_c, 8, 3968
10, 42566, Pitch_bend_c, 8, 3840
10, 42572, Pitch_bend_c, 8, 4224
10, 42574, Pitch_bend_c, 8, 4480
10, 42576, Pitch_bend_c, 8, 4864
10, 42578, Pitch_bend_c, 8, 5248
10, 42581, Pitch_bend_c, 8, 5888
10, 42583, Pitch_bend_c, 8, 6400
10, 42585, Pitch_bend_c, 8, 6912
10, 42587, Pitch_bend_c, 8, 7552
10, 42589, Pitch_bend_c, 8, 8064
10, 42591, Pitch_bend_c, 8, 8192
10, 42598, Note_on_c, 8, 69, 0
10, 42610, Note_on_c, 8, 66, 84
10, 42710, Note_on_c, 8, 66, 0
10, 43810, Pitch_bend_c, 8, 3584
10, 43868, Note_on_c, 8, 78, 100
10, 43877, Pitch_bend_c, 8, 3584
10, 43879, Pitch_bend_c, 8, 3840
10, 43881, Pitch_bend_c, 8, 4096
10, 43883, Pitch_bend_c, 8, 4352
10, 43885, Pitch_bend_c, 8, 4608
10, 43888, Pitch_bend_c, 8, 4736
10, 43890, Pitch_bend_c, 8, 4992
10, 43892, Pitch_bend_c, 8, 5248
10, 43894, Pitch_bend_c, 8, 5376
10, 43898, Pitch_bend_c, 8, 5632
10, 43900, Pitch_bend_c, 8, 5760
10, 43906, Pitch_bend_c, 8, 5888
10, 43908, Pitch_bend_c, 8, 6016
10, 43914, Pitch_bend_c, 8, 6144
10, 43916, Pitch_bend_c, 8, 6272
10, 43925, Pitch_bend_c, 8, 6400
10, 43926, Pitch_bend_c, 8, 6528
10, 43931, Pitch_bend_c, 8, 6784
10, 43933, Pitch_bend_c, 8, 6912
10, 43937, Pitch_bend_c, 8, 7168
10, 43939, Pitch_bend_c, 8, 7296
10, 43941, Pitch_bend_c, 8, 7552
10, 43943, Pitch_bend_c, 8, 7680
10, 43945, Pitch_bend_c, 8, 7808
10, 43947, Pitch_bend_c, 8, 8064
10, 43949, Pitch_bend_c, 8, 8192
10, 43988, Note_on_c, 8, 78, 0
10, 44186, Pitch_bend_c, 8, 8064
10, 44188, Pitch_bend_c, 8, 7680
10, 44190, Pitch_bend_c, 8, 7424
10, 44193, Pitch_bend_c, 8, 6912
10, 44195, Pitch_bend_c, 8, 6528
10, 44197, Pitch_bend_c, 8, 6144
10, 44199, Pitch_bend_c, 8, 5760
10, 44201, Pitch_bend_c, 8, 5504
10, 44203, Pitch_bend_c, 8, 5120
10, 44205, Pitch_bend_c, 8, 4736
10, 44207, Pitch_bend_c, 8, 4480
10, 44209, Pitch_bend_c, 8, 4096
10, 44212, Pitch_bend_c, 8, 3840
10, 44214, Pitch_bend_c, 8, 3584
10, 44216, Pitch_bend_c, 8, 3328
10, 44218, Pitch_bend_c, 8, 3072
10, 44220, Pitch_bend_c, 8, 2944
10, 44223, Pitch_bend_c, 8, 2816
10, 44226, Pitch_bend_c, 8, 2688
10, 44235, Note_on_c, 8, 70, 79
10, 44248, Pitch_bend_c, 8, 3072
10, 44250, Pitch_bend_c, 8, 3200
10, 44254, Pitch_bend_c, 8, 3456
10, 44256, Pitch_bend_c, 8, 3584
10, 44260, Pitch_bend_c, 8, 3840
10, 44262, Pitch_bend_c, 8, 4096
10, 44265, Pitch_bend_c, 8, 4224
10, 44267, Pitch_bend_c, 8, 4352
10, 44271, Pitch_bend_c, 8, 4608
10, 44272, Pitch_bend_c, 8, 4736
10, 44277, Pitch_bend_c, 8, 5120
10, 44279, Pitch_bend_c, 8, 5376
10, 44281, Pitch_bend_c, 8, 5504
10, 44283, Pitch_bend_c, 8, 5760
10, 44286, Pitch_bend_c, 8, 5888
10, 44288, Pitch_bend_c, 8, 6144
10, 44290, Pitch_bend_c, 8, 6272
10, 44291, Pitch_bend_c, 8, 6528
10, 44294, Pitch_bend_c, 8, 6784
10, 44296, Pitch_bend_c, 8, 6912
10, 44298, Pitch_bend_c, 8, 7168
10, 44300, Pitch_bend_c, 8, 7424
10, 44302, Pitch_bend_c, 8, 7680
10, 44304, Pitch_bend_c, 8, 7936
10, 44305, Pitch_bend_c, 8, 8064
10, 44308, Pitch_bend_c, 8, 8192
10, 44335, Note_on_c, 8, 70, 0
10, 44356, Note_on_c, 8, 66, 84
10, 44447, Note_on_c, 8, 66, 0
10, 44469, Note_on_c, 8, 61, 61
10, 44490, Note_on_c, 8, 61, 0
10, 44528, Note_on_c, 8, 61, 69
10, 44552, Note_on_c, 8, 63, 55
10, 44554, Note_on_c, 8, 61, 0
10, 44584, Note_on_c, 8, 63, 0
10, 44585, Note_on_c, 8, 66, 66
10, 44664, Note_on_c, 8, 66, 0
10, 45072, Note_on_c, 8, 69, 43
10, 45087, Note_on_c, 8, 69, 0
10, 45745, Pitch_bend_c, 8, 7936
10, 45747, Pitch_bend_c, 8, 7552
10, 45749, Pitch_bend_c, 8, 7168
10, 45751, Pitch_bend_c, 8, 6784
10, 45754, Pitch_bend_c, 8, 6272
10, 45756, Pitch_bend_c, 8, 5888
10, 45758, Pitch_bend_c, 8, 5376
10, 45760, Pitch_bend_c, 8, 4992
10, 45762, Pitch_bend_c, 8, 4608
10, 45764, Pitch_bend_c, 8, 4224
10, 45766, Pitch_bend_c, 8, 3968
10, 45768, Pitch_bend_c, 8, 3712
10, 45770, Pitch_bend_c, 8, 3456
10, 45774, Pitch_bend_c, 8, 3200
10, 45776, Pitch_bend_c, 8, 3072
10, 45784, Pitch_bend_c, 8, 2944
10, 45799, Note_on_c, 8, 81, 89
10, 45804, Pitch_bend_c, 8, 3584
10, 45806, Pitch_bend_c, 8, 3712
10, 45809, Pitch_bend_c, 8, 3968
10, 45811, Pitch_bend_c, 8, 4224
10, 45813, Pitch_bend_c, 8, 4352
10, 45815, Pitch_bend_c, 8, 4608
10, 45817, Pitch_bend_c, 8, 4864
10, 45819, Pitch_bend_c, 8, 4992
10, 45821, Pitch_bend_c, 8, 5248
10, 45823, Pitch_bend_c, 8, 5376
10, 45827, Pitch_bend_c, 8, 5760
10, 45829, Pitch_bend_c, 8, 5888
10, 45833, Pitch_bend_c, 8, 6016
10, 45841, Pitch_bend_c, 8, 6272
10, 45848, Pitch_bend_c, 8, 6528
10, 45850, Pitch_bend_c, 8, 6784
10, 45854, Pitch_bend_c, 8, 7040
10, 45856, Pitch_bend_c, 8, 7168
10, 45858, Pitch_bend_c, 8, 7296
10, 45862, Pitch_bend_c, 8, 7680
10, 45864, Pitch_bend_c, 8, 7808
10, 45868, Pitch_bend_c, 8, 8064
10, 45874, Note_on_c, 8, 81, 0
10, 45876, Pitch_bend_c, 8, 8192
10, 45884, Pitch_bend_c, 8, 8064
10, 45886, Pitch_bend_c, 8, 7936
10, 45888, Pitch_bend_c, 8, 7680
10, 45890, Pitch_bend_c, 8, 7424
10, 45892, Pitch_bend_c, 8, 7168
10, 45895, Pitch_bend_c, 8, 6912
10, 45897, Pitch_bend_c, 8, 6656
10, 45899, Pitch_bend_c, 8, 6272
10, 45901, Pitch_bend_c, 8, 6016
10, 45903, Pitch_bend_c, 8, 5760
10, 45905, Pitch_bend_c, 8, 5504
10, 45907, Pitch_bend_c, 8, 5248
10, 45909, Pitch_bend_c, 8, 4992
10, 45910, Note_on_c, 8, 81, 93
10, 45912, Pitch_bend_c, 8, 4736
10, 45913, Pitch_bend_c, 8, 4608
10, 45917, Pitch_bend_c, 8, 4352
10, 45919, Pitch_bend_c, 8, 4224
10, 45939, Pitch_bend_c, 8, 4992
10, 45941, Pitch_bend_c, 8, 5120
10, 45944, Pitch_bend_c, 8, 5248
10, 45945, Pitch_bend_c, 8, 5504
10, 45948, Pitch_bend_c, 8, 5632
10, 45950, Pitch_bend_c, 8, 5760
10, 45952, Pitch_bend_c, 8, 5888
10, 45954, Pitch_bend_c, 8, 6144
10, 45958, Pitch_bend_c, 8, 6400
10, 45960, Pitch_bend_c, 8, 6528
10, 45964, Pitch_bend_c, 8, 6656
10, 45966, Pitch_bend_c, 8, 6784
10, 45970, Pitch_bend_c, 8, 7040
10, 45972, Pitch_bend_c, 8, 7168
10, 45974, Pitch_bend_c, 8, 7296
10, 45976, Pitch_bend_c, 8, 7552
10, 45978, Note_on_c, 8, 81, 0
10, 45978, Pitch_bend_c, 8, 7680
10, 45980, Pitch_bend_c, 8, 7936
10, 45982, Pitch_bend_c, 8, 8192
10, 46001, Note_on_c, 8, 80, 74
10, 46033, Note_on_c, 8, 80, 0
10, 46042, Note_on_c, 8, 78, 72
10, 46067, Note_on_c, 8, 78, 0
10, 46081, Note_on_c, 8, 78, 69
10, 46120, Note_on_c, 8, 78, 0
10, 46136, Note_on_c, 8, 76, 66
10, 46170, Note_on_c, 8, 76, 0
10, 46178, Note_on_c, 8, 73, 64
10, 46206, Note_on_c, 8, 73, 0
10, 46219, Note_on_c, 8, 72, 48
10, 46243, Note_on_c, 8, 72, 0
10, 46248, Note_on_c, 8, 71, 39
10, 46276, Note_on_c, 8, 71, 0
10, 46284, Note_on_c, 8, 69, 93
10, 46303, Note_on_c, 8, 69, 0
10, 46305, Note_on_c, 8, 70, 64
10, 46330, Note_on_c, 8, 70, 0
10, 46337, Note_on_c, 8, 66, 58
10, 46507, Note_on_c, 8, 66, 0
10, 46830, Pitch_bend_c, 8, 7936
10, 46832, Pitch_bend_c, 8, 7680
10, 46834, Pitch_bend_c, 8, 7424
10, 46836, Pitch_bend_c, 8, 7168
10, 46838, Pitch_bend_c, 8, 6912
10, 46840, Pitch_bend_c, 8, 6656
10, 46842, Pitch_bend_c, 8, 6272
10, 46844, Pitch_bend_c, 8, 6016
10, 46846, Pitch_bend_c, 8, 5760
10, 46848, Pitch_bend_c, 8, 5504
10, 46851, Pitch_bend_c, 8, 5248
10, 46853, Pitch_bend_c, 8, 4992
10, 46855, Pitch_bend_c, 8, 4864
10, 46859, Pitch_bend_c, 8, 4608
10, 46861, Pitch_bend_c, 8, 4480
10, 46869, Pitch_bend_c, 8, 4352
10, 46870, Note_on_c, 8, 69, 81
10, 46885, Pitch_bend_c, 8, 5120
10, 46887, Pitch_bend_c, 8, 5376
10, 46889, Pitch_bend_c, 8, 5632
10, 46891, Pitch_bend_c, 8, 5888
10, 46893, Pitch_bend_c, 8, 6272
10, 46895, Pitch_bend_c, 8, 6528
10, 46897, Pitch_bend_c, 8, 6784
10, 46900, Pitch_bend_c, 8, 7168
10, 46902, Pitch_bend_c, 8, 7424
10, 46904, Pitch_bend_c, 8, 7552
10, 46906, Pitch_bend_c, 8, 7808
10, 46908, Pitch_bend_c, 8, 7936
10, 46912, Pitch_bend_c, 8, 8192
10, 46932, Pitch_bend_c, 8, 7168
10, 46934, Pitch_bend_c, 8, 6912
10, 46936, Pitch_bend_c, 8, 6656
10, 46938, Pitch_bend_c, 8, 6272
10, 46940, Pitch_bend_c, 8, 6016
10, 46942, Pitch_bend_c, 8, 5760
10, 46944, Pitch_bend_c, 8, 5504
10, 46946, Pitch_bend_c, 8, 5248
10, 46950, Pitch_bend_c, 8, 5120
10, 46958, Pitch_bend_c, 8, 5376
10, 46960, Pitch_bend_c, 8, 5504
10, 46962, Pitch_bend_c, 8, 5760
10, 46965, Pitch_bend_c, 8, 6016
10, 46967, Note_on_c, 8, 69, 0
10, 46967, Pitch_bend_c, 8, 6400
10, 46969, Pitch_bend_c, 8, 6912
10, 46971, Pitch_bend_c, 8, 7296
10, 46973, Pitch_bend_c, 8, 7808
10, 46975, Pitch_bend_c, 8, 8192
10, 46997, Note_on_c, 8, 78, 84
10, 47420, Note_on_c, 8, 78, 0
10, 47658, Pitch_bend_c, 8, 7936
10, 47660, Pitch_bend_c, 8, 7680
10, 47662, Pitch_bend_c, 8, 7424
10, 47663, Pitch_bend_c, 8, 7296
10, 47666, Pitch_bend_c, 8, 7040
10, 47668, Pitch_bend_c, 8, 6656
10, 47670, Pitch_bend_c, 8, 6400
10, 47672, Pitch_bend_c, 8, 6144
10, 47674, Pitch_bend_c, 8, 5888
10, 47676, Pitch_bend_c, 8, 5632
10, 47678, Pitch_bend_c, 8, 5376
10, 47680, Pitch_bend_c, 8, 5248
10, 47683, Pitch_bend_c, 8, 4992
10, 47685, Pitch_bend_c, 8, 4736
10, 47687, Pitch_bend_c, 8, 4480
10, 47689, Pitch_bend_c, 8, 4352
10, 47693, Pitch_bend_c, 8, 4096
10, 47695, Pitch_bend_c, 8, 3968
10, 47702, Pitch_bend_c, 8, 3712
10, 47707, Note_on_c, 8, 71, 66
10, 47712, Pitch_bend_c, 8, 3840
10, 47724, Pitch_bend_c, 8, 4224
10, 47726, Pitch_bend_c, 8, 4352
10, 47730, Pitch_bend_c, 8, 4608
10, 47732, Pitch_bend_c, 8, 4864
10, 47736, Pitch_bend_c, 8, 5120
10, 47738, Pitch_bend_c, 8, 5248
10, 47742, Pitch_bend_c, 8, 5504
10, 47744, Pitch_bend_c, 8, 5632
10, 47748, Pitch_bend_c, 8, 5888
10, 47750, Pitch_bend_c, 8, 6016
10, 47754, Pitch_bend_c, 8, 6272
10, 47764, Pitch_bend_c, 8, 6528
10, 47770, Pitch_bend_c, 8, 6784
10, 47778, Pitch_bend_c, 8, 7040
10, 47789, Pitch_bend_c, 8, 7168
10, 47800, Pitch_bend_c, 8, 7808
10, 47802, Pitch_bend_c, 8, 7936
10, 47805, Pitch_bend_c, 8, 8064
10, 47807, Pitch_bend_c, 8, 8192
10, 48022, Note_on_c, 8, 71, 0
10, 48053, Note_on_c, 8, 69, 89
10, 48078, Note_on_c, 8, 69, 0
10, 48101, Note_on_c, 8, 68, 61
10, 48131, Note_on_c, 8, 68, 0
10, 48146, Note_on_c, 8, 66, 99
10, 48173, Note_on_c, 8, 66, 0
10, 48194, Note_on_c, 8, 66, 105
10, 48215, Pitch_bend_c, 8, 10112
10, 48217, Pitch_bend_c, 8, 11520
10, 48219, Pitch_bend_c, 8, 13056
10, 48221, Pitch_bend_c, 8, 14592
10, 48223, Pitch_bend_c, 8, 16000
10, 48225, Pitch_bend_c, 8, 16256
10, 48243, Pitch_bend_c, 8, 14208
10, 48245, Pitch_bend_c, 8, 8320
10, 48247, Pitch_bend_c, 8, 8192
10, 48251, Pitch_bend_c, 8, 8832
10, 48253, Pitch_bend_c, 8, 8192
10, 48452, Note_on_c, 8, 66, 0
10, 48874, Note_on_c, 8, 69, 30
10, 48914, Note_on_c, 8, 78, 61
10, 49386, Note_on_c, 8, 78, 0
10, 49387, Note_on_c, 8, 69, 0
10, 49448, Pitch_bend_c, 8, 7936
10, 49450, Pitch_bend_c, 8, 7424
10, 49452, Pitch_bend_c, 8, 6784
10, 49454, Pitch_bend_c, 8, 6016
10, 49455, Pitch_bend_c, 8, 5120
10, 49458, Pitch_bend_c, 8, 4224
10, 49460, Pitch_bend_c, 8, 3328
10, 49462, Pitch_bend_c, 8, 2432
10, 49464, Pitch_bend_c, 8, 1408
10, 49465, Pitch_bend_c, 8, 512
10, 49468, Pitch_bend_c, 8, 0
10, 49512, Note_on_c, 8, 63, 72
10, 49531, Pitch_bend_c, 8, 128
10, 49533, Pitch_bend_c, 8, 896
10, 49535, Pitch_bend_c, 8, 1664
10, 49537, Pitch_bend_c, 8, 2688
10, 49539, Pitch_bend_c, 8, 3840
10, 49541, Pitch_bend_c, 8, 5376
10, 49543, Pitch_bend_c, 8, 7424
10, 49545, Pitch_bend_c, 8, 8192
10, 49564, Note_on_c, 8, 63, 0
10, 49566, Note_on_c, 8, 66, 77
10, 49902, Note_on_c, 8, 66, 0
10, 49974, Pitch_bend_c, 8, 7936
10, 49976, Pitch_bend_c, 8, 7552
10, 49978, Pitch_bend_c, 8, 7296
10, 49980, Pitch_bend_c, 8, 6912
10, 49982, Pitch_bend_c, 8, 6400
10, 49984, Pitch_bend_c, 8, 6016
10, 49986, Pitch_bend_c, 8, 5632
10, 49988, Pitch_bend_c, 8, 5120
10, 49991, Pitch_bend_c, 8, 4736
10, 49993, Pitch_bend_c, 8, 4224
10, 49995, Pitch_bend_c, 8, 3840
10, 49997, Pitch_bend_c, 8, 3456
10, 49999, Pitch_bend_c, 8, 3072
10, 50001, Pitch_bend_c, 8, 2688
10, 50003, Pitch_bend_c, 8, 2432
10, 50005, Note_on_c, 8, 71, 79
10, 50005, Pitch_bend_c, 8, 2304
10, 50013, Pitch_bend_c, 8, 2176
10, 50023, Pitch_bend_c, 8, 2816
10, 50026, Pitch_bend_c, 8, 3072
10, 50028, Pitch_bend_c, 8, 3328
10, 50030, Pitch_bend_c, 8, 3584
10, 50032, Pitch_bend_c, 8, 3968
10, 50034, Pitch_bend_c, 8, 4224
10, 50036, Pitch_bend_c, 8, 4608
10, 50038, Pitch_bend_c, 8, 4864
10, 50040, Pitch_bend_c, 8, 5248
10, 50042, Pitch_bend_c, 8, 5504
10, 50043, Pitch_bend_c, 8, 5760
10, 50046, Pitch_bend_c, 8, 6016
10, 50048, Pitch_bend_c, 8, 6272
10, 50049, Pitch_bend_c, 8, 6528
10, 50052, Pitch_bend_c, 8, 6784
10, 50054, Pitch_bend_c, 8, 7040
10, 50056, Pitch_bend_c, 8, 7168
10, 50058, Pitch_bend_c, 8, 7296
10, 50062, Pitch_bend_c, 8, 7552
10, 50065, Pitch_bend_c, 8, 7680
10, 50069, Pitch_bend_c, 8, 7936
10, 50071, Pitch_bend_c, 8, 8064
10, 50075, Pitch_bend_c, 8, 8192
10, 50086, Note_on_c, 8, 71, 0
10, 50104, Note_on_c, 8, 69, 58
10, 50132, Note_on_c, 8, 69, 0
10, 50152, Note_on_c, 8, 68, 30
10, 50180, Note_on_c, 8, 68, 0
10, 50194, Note_on_c, 8, 66, 66
10, 50226, Note_on_c, 8, 66, 0
10, 50241, Note_on_c, 8, 66, 79
10, 50347, Note_on_c, 8, 66, 0
10, 50774, Note_on_c, 8, 72, 81
10, 50798, Note_on_c, 8, 72, 0
10, 50798, Note_on_c, 8, 73, 43
10, 50837, Note_on_c, 8, 73, 0
10, 50838, Note_on_c, 8, 76, 66
10, 50857, Note_on_c, 8, 76, 0
10, 50867, Pitch_bend_c, 8, 8064
10, 50869, Pitch_bend_c, 8, 7680
10, 50871, Pitch_bend_c, 8, 7296
10, 50873, Pitch_bend_c, 8, 6912
10, 50875, Pitch_bend_c, 8, 6528
10, 50877, Pitch_bend_c, 8, 6144
10, 50880, Pitch_bend_c, 8, 5632
10, 50882, Pitch_bend_c, 8, 5248
10, 50884, Pitch_bend_c, 8, 4864
10, 50886, Pitch_bend_c, 8, 4480
10, 50888, Pitch_bend_c, 8, 4096
10, 50890, Pitch_bend_c, 8, 3712
10, 50892, Pitch_bend_c, 8, 3328
10, 50894, Pitch_bend_c, 8, 3200
10, 50896, Pitch_bend_c, 8, 2944
10, 50897, Note_on_c, 8, 78, 74
10, 50904, Pitch_bend_c, 8, 3200
10, 50906, Pitch_bend_c, 8, 3456
10, 50908, Pitch_bend_c, 8, 3840
10, 50911, Pitch_bend_c, 8, 4224
10, 50912, Pitch_bend_c, 8, 4608
10, 50915, Pitch_bend_c, 8, 5120
10, 50917, Pitch_bend_c, 8, 5504
10, 50919, Pitch_bend_c, 8, 5888
10, 50921, Pitch_bend_c, 8, 6400
10, 50923, Pitch_bend_c, 8, 6656
10, 50925, Pitch_bend_c, 8, 7040
10, 50927, Pitch_bend_c, 8, 7296
10, 50929, Pitch_bend_c, 8, 7424
10, 50933, Pitch_bend_c, 8, 7680
10, 50942, Pitch_bend_c, 8, 7936
10, 50944, Pitch_bend_c, 8, 8064
10, 50948, Pitch_bend_c, 8, 8192
10, 50978, Note_on_c, 8, 78, 0
10, 51434, Pitch_bend_c, 8, 7936
10, 51437, Pitch_bend_c, 8, 7680
10, 51439, Pitch_bend_c, 8, 7424
10, 51441, Pitch_bend_c, 8, 7168
10, 51443, Pitch_bend_c, 8, 6912
10, 51445, Pitch_bend_c, 8, 6656
10, 51447, Pitch_bend_c, 8, 6400
10, 51449, Pitch_bend_c, 8, 6016
10, 51452, Pitch_bend_c, 8, 5888
10, 51454, Pitch_bend_c, 8, 5632
10, 51456, Pitch_bend_c, 8, 5376
10, 51458, Pitch_bend_c, 8, 5120
10, 51460, Pitch_bend_c, 8, 4992
10, 51462, Pitch_bend_c, 8, 4736
10, 51464, Pitch_bend_c, 8, 4608
10, 51468, Pitch_bend_c, 8, 4224
10, 51470, Pitch_bend_c, 8, 4096
10, 51472, Pitch_bend_c, 8, 3968
10, 51476, Pitch_bend_c, 8, 3712
10, 51478, Pitch_bend_c, 8, 3584
10, 51482, Pitch_bend_c, 8, 3456
10, 51484, Pitch_bend_c, 8, 3328
10, 51489, Note_on_c, 8, 73, 74
10, 51492, Pitch_bend_c, 8, 3456
10, 51495, Pitch_bend_c, 8, 3712
10, 51497, Pitch_bend_c, 8, 3840
10, 51499, Pitch_bend_c, 8, 4096
10, 51501, Pitch_bend_c, 8, 4480
10, 51503, Pitch_bend_c, 8, 4736
10, 51505, Pitch_bend_c, 8, 5120
10, 51507, Pitch_bend_c, 8, 5504
10, 51509, Pitch_bend_c, 8, 5888
10, 51511, Pitch_bend_c, 8, 6400
10, 51513, Pitch_bend_c, 8, 6784
10, 51515, Pitch_bend_c, 8, 7168
10, 51517, Pitch_bend_c, 8, 7680
10, 51519, Pitch_bend_c, 8, 8064
10, 51522, Pitch_bend_c, 8, 8192
10, 51529, Note_on_c, 8, 73, 0
10, 51553, Note_on_c, 8, 69, 89
10, 51585, Note_on_c, 8, 69, 0
10, 51612, Note_on_c, 8, 71, 77
10, 51642, Note_on_c, 8, 71, 0
10, 51655, Pitch_bend_c, 8, 7808
10, 51657, Pitch_bend_c, 8, 7424
10, 51659, Pitch_bend_c, 8, 7040
10, 51661, Pitch_bend_c, 8, 6528
10, 51663, Pitch_bend_c, 8, 6016
10, 51665, Pitch_bend_c, 8, 5632
10, 51668, Pitch_bend_c, 8, 5120
10, 51670, Pitch_bend_c, 8, 4736
10, 51671, Pitch_bend_c, 8, 4480
10, 51674, Pitch_bend_c, 8, 4096
10, 51676, Pitch_bend_c, 8, 3968
10, 51679, Note_on_c, 8, 69, 64
10, 51681, Pitch_bend_c, 8, 3712
10, 51687, Pitch_bend_c, 8, 4096
10, 51688, Pitch_bend_c, 8, 4224
10, 51691, Pitch_bend_c, 8, 4480
10, 51693, Pitch_bend_c, 8, 4864
10, 51695, Pitch_bend_c, 8, 5248
10, 51697, Pitch_bend_c, 8, 5760
10, 51699, Pitch_bend_c, 8, 6144
10, 51701, Pitch_bend_c, 8, 6656
10, 51703, Pitch_bend_c, 8, 7168
10, 51705, Pitch_bend_c, 8, 7680
10, 51707, Pitch_bend_c, 8, 8064
10, 51709, Pitch_bend_c, 8, 8192
10, 51721, Note_on_c, 8, 69, 0
10, 51741, Note_on_c, 8, 66, 79
10, 51774, Note_on_c, 8, 66, 0
10, 51807, Note_on_c, 8, 61, 61
10, 51832, Note_on_c, 8, 61, 0
10, 51863, Note_on_c, 8, 66, 89
10, 52105, Note_on_c, 8, 66, 0
10, 52105, End_track
11, 0, Start_track
11, 0, MIDI_port, 0
11, 0, Title_t, "Vocal Scratch"
11, 0, Control_c, 10, 0, 56
11, 0, Control_c, 10, 32, 1
11, 0, Program_c, 10, 11
11, 0, Control_c, 10, 7, 110
11, 0, Control_c, 10, 10, 64
11, 6238, Note_on_c, 10, 64, 64
11, 6261, Note_on_c, 10, 64, 0
11, 6267, Note_on_c, 10, 66, 58
11, 6288, Note_on_c, 10, 66, 0
11, 6300, Note_on_c, 10, 66, 69
11, 6329, Note_on_c, 10, 66, 0
11, 6362, Note_on_c, 10, 66, 69
11, 6387, Note_on_c, 10, 66, 0
11, 6422, Note_on_c, 10, 64, 55
11, 6441, Note_on_c, 10, 64, 0
11, 6480, Note_on_c, 10, 66, 58
11, 6503, Note_on_c, 10, 66, 0
11, 6547, Note_on_c, 10, 69, 30
11, 6596, Control_c, 10, 1, 115
11, 6598, Control_c, 10, 1, 107
11, 6600, Control_c, 10, 1, 98
11, 6602, Control_c, 10, 1, 88
11, 6603, Control_c, 10, 1, 77
11, 6606, Control_c, 10, 1, 65
11, 6608, Control_c, 10, 1, 51
11, 6610, Control_c, 10, 1, 37
11, 6611, Control_c, 10, 1, 25
11, 6613, Control_c, 10, 1, 16
11, 6615, Control_c, 10, 1, 8
11, 6617, Control_c, 10, 1, 1
11, 6619, Control_c, 10, 1, 0
11, 6636, Control_c, 10, 1, 2
11, 6638, Control_c, 10, 1, 7
11, 6640, Control_c, 10, 1, 14
11, 6642, Control_c, 10, 1, 22
11, 6643, Control_c, 10, 1, 31
11, 6646, Control_c, 10, 1, 42
11, 6648, Control_c, 10, 1, 52
11, 6650, Control_c, 10, 1, 61
11, 6652, Control_c, 10, 1, 69
11, 6654, Control_c, 10, 1, 77
11, 6656, Control_c, 10, 1, 86
11, 6658, Control_c, 10, 1, 94
11, 6660, Control_c, 10, 1, 103
11, 6662, Control_c, 10, 1, 113
11, 6664, Control_c, 10, 1, 123
11, 6666, Control_c, 10, 1, 127
11, 6819, Note_on_c, 10, 69, 0
11, 6896, Note_on_c, 10, 57, 26
11, 6919, Note_on_c, 10, 57, 0
11, 6956, Note_on_c, 10, 60, 26
11, 6980, Note_on_c, 10, 61, 39
11, 6984, Note_on_c, 10, 60, 0
11, 7016, Note_on_c, 10, 61, 0
11, 7030, Note_on_c, 10, 57, 18
11, 7054, Note_on_c, 10, 57, 0
11, 7088, Note_on_c, 10, 59, 48
11, 7117, Note_on_c, 10, 59, 0
11, 7145, Note_on_c, 10, 57, 39
11, 7159, Note_on_c, 10, 57, 0
11, 7166, Note_on_c, 10, 58, 26
11, 7191, Note_on_c, 10, 58, 0
11, 7202, Note_on_c, 10, 54, 26
11, 7531, Note_on_c, 10, 54, 0
11, 8159, Note_on_c, 10, 64, 89
11, 8186, Note_on_c, 10, 64, 0
11, 8188, Note_on_c, 10, 66, 66
11, 8208, Note_on_c, 10, 66, 0
11, 8220, Note_on_c, 10, 66, 58
11, 8247, Note_on_c, 10, 66, 0
11, 8286, Note_on_c, 10, 66, 77
11, 8312, Note_on_c, 10, 66, 0
11, 8346, Note_on_c, 10, 64, 72
11, 8363, Note_on_c, 10, 64, 0
11, 8402, Note_on_c, 10, 60, 48
11, 8414, Note_on_c, 10, 61, 51
11, 8428, Note_on_c, 10, 60, 0
11, 8442, Note_on_c, 10, 61, 0
11, 8466, Note_on_c, 10, 59, 30
11, 8485, Note_on_c, 10, 59, 0
11, 8490, Note_on_c, 10, 57, 51
11, 8503, Note_on_c, 10, 57, 0
11, 8511, Note_on_c, 10, 54, 35
11, 8759, Note_on_c, 10, 54, 0
11, 8798, Note_on_c, 10, 52, 58
11, 8815, Note_on_c, 10, 52, 0
11, 8827, Note_on_c, 10, 54, 58
11, 8850, Note_on_c, 10, 54, 0
11, 8855, Note_on_c, 10, 57, 48
11, 8869, Note_on_c, 10, 57, 0
11, 8884, Note_on_c, 10, 60, 64
11, 8909, Note_on_c, 10, 61, 58
11, 8913, Note_on_c, 10, 60, 0
11, 8940, Note_on_c, 10, 61, 0
11, 8952, Note_on_c, 10, 59, 43
11, 8982, Note_on_c, 10, 59, 0
11, 9005, Note_on_c, 10, 59, 61
11, 9032, Note_on_c, 10, 59, 0
11, 9055, Note_on_c, 10, 57, 51
11, 9067, Note_on_c, 10, 57, 0
11, 9071, Note_on_c, 10, 58, 30
11, 9109, Note_on_c, 10, 58, 0
11, 9126, Note_on_c, 10, 54, 61
11, 9715, Note_on_c, 10, 54, 0
11, 9914, Note_on_c, 10, 54, 39
11, 9930, Note_on_c, 10, 54, 0
11, 9966, Note_on_c, 10, 60, 55
11, 9978, Note_on_c, 10, 61, 51
11, 9989, Note_on_c, 10, 60, 0
11, 9994, Note_on_c, 10, 61, 0
11, 10006, Note_on_c, 10, 61, 79
11, 10034, Note_on_c, 10, 61, 0
11, 10080, Note_on_c, 10, 61, 66
11, 10103, Note_on_c, 10, 61, 0
11, 10145, Note_on_c, 10, 61, 58
11, 10160, Note_on_c, 10, 61, 0
11, 10208, Note_on_c, 10, 61, 77
11, 10235, Note_on_c, 10, 61, 0
11, 10257, Note_on_c, 10, 60, 48
11, 10274, Note_on_c, 10, 60, 0
11, 10316, Note_on_c, 10, 60, 58
11, 10350, Note_on_c, 10, 60, 0
11, 10383, Note_on_c, 10, 61, 61
11, 10640, Note_on_c, 10, 61, 0
11, 10708, Note_on_c, 10, 54, 89
11, 10727, Note_on_c, 10, 54, 0
11, 10741, Note_on_c, 10, 57, 111
11, 10758, Note_on_c, 10, 57, 0
11, 10774, Note_on_c, 10, 59, 79
11, 10792, Note_on_c, 10, 59, 0
11, 10809, Note_on_c, 10, 60, 102
11, 10829, Note_on_c, 10, 61, 64
11, 10839, Note_on_c, 10, 60, 0
11, 10852, Note_on_c, 10, 61, 0
11, 10867, Note_on_c, 10, 57, 81
11, 10894, Note_on_c, 10, 57, 0
11, 10924, Note_on_c, 10, 59, 84
11, 10951, Note_on_c, 10, 59, 0
11, 10981, Note_on_c, 10, 57, 39
11, 10993, Note_on_c, 10, 58, 55
11, 11008, Note_on_c, 10, 57, 0
11, 11029, Note_on_c, 10, 58, 0
11, 11044, Note_on_c, 10, 54, 58
11, 11737, Note_on_c, 10, 54, 0
11, 11737, End_track
12, 0, Start_track
12, 0, MIDI_port, 0
12, 0, Title_t, "Ending Drum (Jazz Kit)"
12, 0, Control_c, 11, 0, 62
12, 0, Control_c, 11, 32, 1
12, 0, Program_c, 11, 32
12, 0, Control_c, 11, 7, 110
12, 0, Control_c, 11, 10, 64
12, 50400, Note_on_c, 11, 36, 105
12, 50429, Note_on_c, 11, 36, 0
12, 50520, Note_on_c, 11, 40, 117
12, 50549, Note_on_c, 11, 40, 0
12, 50580, Note_on_c, 11, 36, 72
12, 50609, Note_on_c, 11, 36, 0
12, 50700, Note_on_c, 11, 36, 102
12, 50729, Note_on_c, 11, 36, 0
12, 50760, Note_on_c, 11, 34, 111
12, 50789, Note_on_c, 11, 34, 0
12, 50879, Control_c, 11, 7, 0
12, 50880, Note_on_c, 11, 40, 127
12, 50909, Note_on_c, 11, 40, 0
12, 50909, End_track
13, 0, Start_track
13, 0, MIDI_port, 0
13, 0, Title_t, "Give Me 1 Reason"
13, 0, End_track
14, 0, Start_track
14, 0, MIDI_port, 0
14, 0, Title_t, "Tracy Chapman"
14, 0, End_track
0, 0, End_of_file
