0, 0, Header, 1, 10, 480
1, 0, Start_track
1, 0, Tempo, 594059
1, 0, Title_t, ""
1, 0, Time_signature, 4, 2, 9, 16
1, 0, Marker_t, "Intro"
1, 9600, Marker_t, "Verse 1"
1, 24960, Marker_t, "Chorus"
1, 32640, Marker_t, "Verse 2"
1, 48000, Marker_t, "Pre-Chorus"
1, 55680, Marker_t, "Chorus"
1, 71040, Marker_t, "Guitar Solo"
1, 78720, Marker_t, "Verse 3"
1, 86400, Marker_t, "Pre-Chorus"
1, 94080, Marker_t, "Chorus"
1, 109440, Marker_t, "Bridge"
1, 126720, Marker_t, "Chorus (Croud)"
1, 142080, Marker_t, "Chorus"
1, 142080, End_track
2, 0, Start_track
2, 0, Title_t, "Lead Vocal (Tyson)"
2, 0, Control_c, 3, 100, 0
2, 0, Control_c, 3, 101, 0
2, 0, Control_c, 3, 6, 12
2, 0, Pitch_bend_c, 3, 8192
2, 0, Control_c, 3, 101, 0
2, 0, Control_c, 3, 100, 1
2, 0, Control_c, 3, 6, 64
2, 0, Control_c, 3, 38, 0
2, 0, Control_c, 3, 101, 127
2, 0, Control_c, 3, 100, 127
2, 0, Control_c, 2, 100, 0
2, 0, Control_c, 2, 101, 0
2, 0, Control_c, 2, 6, 12
2, 0, Pitch_bend_c, 2, 8192
2, 0, Control_c, 2, 101, 0
2, 0, Control_c, 2, 100, 1
2, 0, Control_c, 2, 6, 64
2, 0, Control_c, 2, 38, 0
2, 0, Control_c, 2, 101, 127
2, 0, Control_c, 2, 100, 127
2, 0, Control_c, 3, 101, 0
2, 0, Control_c, 3, 100, 2
2, 0, Control_c, 3, 6, 64
2, 0, Control_c, 3, 101, 127
2, 0, Control_c, 3, 100, 127
2, 0, Control_c, 2, 101, 0
2, 0, Control_c, 2, 100, 2
2, 0, Control_c, 2, 6, 64
2, 0, Control_c, 2, 101, 127
2, 0, Control_c, 2, 100, 127
2, 0, Program_c, 3, 66
2, 0, Program_c, 2, 66
2, 0, Control_c, 3, 0, 0
2, 0, Control_c, 2, 0, 0
2, 0, Control_c, 3, 7, 120
2, 0, Control_c, 2, 7, 120
2, 0, Control_c, 3, 10, 64
2, 0, Control_c, 2, 10, 64
2, 0, Control_c, 3, 93, 0
2, 0, Control_c, 2, 93, 0
2, 0, Control_c, 3, 91, 0
2, 0, Control_c, 2, 91, 0
2, 0, Control_c, 3, 92, 0
2, 0, Control_c, 2, 92, 0
2, 0, Control_c, 3, 95, 0
2, 0, Control_c, 2, 95, 0
2, 9840, Note_on_c, 2, 59, 95
2, 10080, Note_off_c, 2, 59, 80
2, 10080, Note_on_c, 2, 68, 95
2, 10320, Note_off_c, 2, 68, 80
2, 10320, Note_on_c, 2, 68, 95
2, 10440, Note_off_c, 2, 68, 80
2, 10440, Note_on_c, 2, 66, 95
2, 10680, Note_off_c, 2, 66, 80
2, 10680, Note_on_c, 2, 66, 95
2, 10800, Note_off_c, 2, 66, 80
2, 10800, Note_on_c, 2, 59, 95
2, 11040, Note_off_c, 2, 59, 80
2, 11040, Note_on_c, 2, 59, 95
2, 11520, Note_off_c, 2, 59, 80
2, 12720, Note_on_c, 2, 59, 95
2, 12840, Note_off_c, 2, 59, 80
2, 12840, Note_on_c, 2, 59, 95
2, 12960, Note_off_c, 2, 59, 80
2, 12960, Note_on_c, 2, 68, 95
2, 13200, Note_off_c, 2, 68, 80
2, 13200, Note_on_c, 2, 68, 95
2, 13440, Note_off_c, 2, 68, 80
2, 13440, Note_on_c, 2, 66, 95
2, 13680, Note_off_c, 2, 66, 80
2, 13680, Note_on_c, 2, 66, 95
2, 13920, Note_off_c, 2, 66, 80
2, 13920, Note_on_c, 2, 64, 95
2, 14400, Note_off_c, 2, 64, 80
2, 14640, Note_on_c, 2, 59, 95
2, 14760, Note_off_c, 2, 59, 80
2, 14760, Note_on_c, 2, 59, 95
2, 14880, Note_off_c, 2, 59, 80
2, 14880, Note_on_c, 2, 68, 95
2, 15000, Note_off_c, 2, 68, 80
2, 15000, Note_on_c, 2, 68, 95
2, 15120, Note_off_c, 2, 68, 80
2, 15120, Note_on_c, 2, 68, 95
2, 15360, Note_off_c, 2, 68, 80
2, 15360, Note_on_c, 2, 66, 95
2, 15600, Note_off_c, 2, 66, 80
2, 15600, Note_on_c, 2, 66, 95
2, 15720, Note_off_c, 2, 66, 80
2, 15720, Note_on_c, 2, 64, 95
2, 16200, Note_off_c, 2, 64, 80
2, 17520, Note_on_c, 2, 59, 95
2, 17760, Note_off_c, 2, 59, 80
2, 17760, Note_on_c, 2, 68, 95
2, 18000, Note_off_c, 2, 68, 80
2, 18000, Note_on_c, 2, 68, 95
2, 18120, Note_off_c, 2, 68, 80
2, 18120, Note_on_c, 2, 66, 95
2, 18360, Note_off_c, 2, 66, 80
2, 18360, Note_on_c, 2, 66, 95
2, 18480, Note_off_c, 2, 66, 80
2, 18480, Note_on_c, 2, 59, 95
2, 18720, Note_off_c, 2, 59, 80
2, 18720, Note_on_c, 2, 59, 95
2, 19200, Note_off_c, 2, 59, 80
2, 20400, Note_on_c, 2, 59, 95
2, 20520, Note_off_c, 2, 59, 80
2, 20520, Note_on_c, 2, 59, 95
2, 20640, Note_off_c, 2, 59, 80
2, 20640, Note_on_c, 2, 68, 95
2, 20880, Note_off_c, 2, 68, 80
2, 20880, Note_on_c, 2, 68, 95
2, 21120, Note_off_c, 2, 68, 80
2, 21120, Note_on_c, 2, 66, 95
2, 21600, Note_off_c, 2, 66, 80
2, 21600, Note_on_c, 2, 64, 95
2, 22080, Note_off_c, 2, 64, 80
2, 22320, Note_on_c, 2, 59, 95
2, 22440, Note_off_c, 2, 59, 80
2, 22440, Note_on_c, 2, 59, 95
2, 22560, Note_off_c, 2, 59, 80
2, 22560, Note_on_c, 2, 68, 95
2, 22680, Note_off_c, 2, 68, 80
2, 22680, Note_on_c, 2, 68, 95
2, 22800, Note_off_c, 2, 68, 80
2, 22800, Note_on_c, 2, 68, 95
2, 23040, Note_off_c, 2, 68, 80
2, 23040, Note_on_c, 2, 66, 95
2, 23280, Note_off_c, 2, 66, 80
2, 23280, Note_on_c, 2, 66, 95
2, 23400, Note_off_c, 2, 66, 80
2, 23400, Note_on_c, 2, 64, 95
2, 23880, Note_off_c, 2, 64, 80
2, 24720, Note_on_c, 2, 64, 95
2, 24840, Note_off_c, 2, 64, 80
2, 24840, Note_on_c, 2, 61, 95
2, 24960, Note_off_c, 2, 61, 80
2, 24960, Note_on_c, 2, 64, 95
2, 25200, Note_off_c, 2, 64, 80
2, 25200, Note_on_c, 2, 66, 95
2, 25440, Note_off_c, 2, 66, 80
2, 25440, Note_on_c, 2, 64, 95
2, 25680, Note_off_c, 2, 64, 80
2, 25680, Note_on_c, 2, 64, 95
2, 25800, Note_off_c, 2, 64, 80
2, 25800, Note_on_c, 2, 61, 95
2, 25920, Note_off_c, 2, 61, 80
2, 25920, Note_on_c, 2, 64, 95
2, 26160, Note_off_c, 2, 64, 80
2, 26160, Note_on_c, 2, 66, 95
2, 26400, Note_off_c, 2, 66, 80
2, 26400, Note_on_c, 2, 64, 95
2, 26640, Note_off_c, 2, 64, 80
2, 26640, Note_on_c, 2, 64, 95
2, 26760, Note_off_c, 2, 64, 80
2, 26760, Note_on_c, 2, 61, 95
2, 26880, Note_off_c, 2, 61, 80
2, 26880, Note_on_c, 2, 64, 95
2, 27120, Note_off_c, 2, 64, 80
2, 27120, Note_on_c, 2, 66, 95
2, 27360, Note_off_c, 2, 66, 80
2, 27360, Note_on_c, 2, 64, 95
2, 27840, Note_off_c, 2, 64, 80
2, 28560, Note_on_c, 2, 64, 95
2, 28680, Note_off_c, 2, 64, 80
2, 28680, Note_on_c, 2, 61, 95
2, 28800, Note_off_c, 2, 61, 80
2, 28800, Note_on_c, 2, 64, 95
2, 29040, Note_off_c, 2, 64, 80
2, 29040, Note_on_c, 2, 66, 95
2, 29280, Note_off_c, 2, 66, 80
2, 29280, Note_on_c, 2, 64, 95
2, 29520, Note_off_c, 2, 64, 80
2, 29520, Note_on_c, 2, 64, 95
2, 29640, Note_off_c, 2, 64, 80
2, 29640, Note_on_c, 2, 61, 95
2, 29760, Note_off_c, 2, 61, 80
2, 29760, Note_on_c, 2, 64, 95
2, 30000, Note_off_c, 2, 64, 80
2, 30000, Note_on_c, 2, 66, 95
2, 30240, Note_off_c, 2, 66, 80
2, 30240, Note_on_c, 2, 64, 95
2, 30480, Note_off_c, 2, 64, 80
2, 30480, Note_on_c, 2, 64, 95
2, 30600, Note_off_c, 2, 64, 80
2, 30600, Note_on_c, 2, 61, 95
2, 30720, Note_off_c, 2, 61, 80
2, 30720, Note_on_c, 2, 64, 95
2, 30960, Note_off_c, 2, 64, 80
2, 30960, Note_on_c, 2, 66, 95
2, 31440, Note_off_c, 2, 66, 80
2, 31440, Note_on_c, 2, 64, 95
2, 31920, Note_off_c, 2, 64, 80
2, 33000, Note_on_c, 2, 59, 95
2, 33120, Note_off_c, 2, 59, 80
2, 33120, Note_on_c, 2, 68, 95
2, 33360, Note_off_c, 2, 68, 80
2, 33360, Note_on_c, 2, 68, 95
2, 33480, Note_off_c, 2, 68, 80
2, 33480, Note_on_c, 2, 66, 95
2, 33720, Note_off_c, 2, 66, 80
2, 33720, Note_on_c, 2, 66, 95
2, 33840, Note_off_c, 2, 66, 80
2, 33840, Note_on_c, 2, 59, 95
2, 34200, Note_off_c, 2, 59, 80
2, 34200, Note_on_c, 2, 59, 95
2, 34680, Note_off_c, 2, 59, 80
2, 35880, Note_on_c, 2, 59, 95
2, 36000, Note_off_c, 2, 59, 80
2, 36000, Note_on_c, 2, 68, 95
2, 36240, Note_off_c, 2, 68, 80
2, 36240, Note_on_c, 2, 68, 95
2, 36480, Note_off_c, 2, 68, 80
2, 36480, Note_on_c, 2, 66, 95
2, 36720, Note_off_c, 2, 66, 80
2, 36720, Note_on_c, 2, 66, 95
2, 36960, Note_off_c, 2, 66, 80
2, 36960, Note_on_c, 2, 64, 95
2, 37440, Note_off_c, 2, 64, 80
2, 37680, Note_on_c, 2, 59, 95
2, 37800, Note_off_c, 2, 59, 80
2, 37800, Note_on_c, 2, 59, 95
2, 37920, Note_off_c, 2, 59, 80
2, 37920, Note_on_c, 2, 68, 95
2, 38040, Note_off_c, 2, 68, 80
2, 38040, Note_on_c, 2, 68, 95
2, 38160, Note_off_c, 2, 68, 80
2, 38160, Note_on_c, 2, 68, 95
2, 38400, Note_off_c, 2, 68, 80
2, 38400, Note_on_c, 2, 66, 95
2, 39120, Note_off_c, 2, 66, 80
2, 39120, Note_on_c, 2, 64, 95
2, 39600, Note_off_c, 2, 64, 80
2, 40680, Note_on_c, 2, 59, 95
2, 40800, Note_off_c, 2, 59, 80
2, 40800, Note_on_c, 2, 68, 95
2, 41040, Note_off_c, 2, 68, 80
2, 41040, Note_on_c, 2, 68, 95
2, 41160, Note_off_c, 2, 68, 80
2, 41160, Note_on_c, 2, 66, 95
2, 41400, Note_off_c, 2, 66, 80
2, 41400, Note_on_c, 2, 64, 95
2, 41640, Note_off_c, 2, 64, 80
2, 41640, Note_on_c, 2, 68, 95
2, 42000, Note_off_c, 2, 68, 80
2, 42000, Note_on_c, 2, 68, 95
2, 42720, Note_off_c, 2, 68, 80
2, 43560, Note_on_c, 2, 59, 95
2, 43680, Note_off_c, 2, 59, 80
2, 43680, Note_on_c, 2, 68, 95
2, 43800, Note_off_c, 2, 68, 80
2, 43800, Note_on_c, 2, 68, 95
2, 43920, Note_off_c, 2, 68, 80
2, 43920, Note_on_c, 2, 68, 95
2, 44160, Note_off_c, 2, 68, 80
2, 44160, Note_on_c, 2, 66, 95
2, 44400, Note_off_c, 2, 66, 80
2, 44400, Note_on_c, 2, 66, 95
2, 44640, Note_off_c, 2, 66, 80
2, 44640, Note_on_c, 2, 64, 95
2, 45120, Note_off_c, 2, 64, 80
2, 45480, Note_on_c, 2, 59, 95
2, 45600, Note_off_c, 2, 59, 80
2, 45600, Note_on_c, 2, 68, 95
2, 45720, Note_off_c, 2, 68, 80
2, 45720, Note_on_c, 2, 68, 95
2, 45840, Note_off_c, 2, 68, 80
2, 45840, Note_on_c, 2, 68, 95
2, 46080, Note_off_c, 2, 68, 80
2, 46080, Note_on_c, 2, 66, 95
2, 46320, Note_off_c, 2, 66, 80
2, 46320, Note_on_c, 2, 66, 95
2, 46440, Note_off_c, 2, 66, 80
2, 46440, Note_on_c, 2, 64, 95
2, 47160, Note_off_c, 2, 64, 80
2, 48240, Note_on_c, 2, 59, 95
2, 48480, Note_off_c, 2, 59, 80
2, 48480, Note_on_c, 2, 66, 95
2, 48960, Note_off_c, 2, 66, 80
2, 48960, Note_on_c, 2, 64, 95
2, 49200, Note_off_c, 2, 64, 80
2, 49200, Note_on_c, 2, 68, 95
2, 49680, Note_off_c, 2, 68, 80
2, 49680, Note_on_c, 2, 64, 95
2, 50160, Note_off_c, 2, 64, 80
2, 50160, Note_on_c, 2, 66, 95
2, 50640, Note_off_c, 2, 66, 80
2, 50640, Note_on_c, 2, 64, 95
2, 51360, Note_off_c, 2, 64, 80
2, 52080, Note_on_c, 2, 59, 95
2, 52320, Note_off_c, 2, 59, 80
2, 52320, Note_on_c, 2, 66, 95
2, 52800, Note_off_c, 2, 66, 80
2, 52800, Note_on_c, 2, 64, 95
2, 53040, Note_off_c, 2, 64, 80
2, 53040, Note_on_c, 2, 68, 95
2, 53520, Note_off_c, 2, 68, 80
2, 53520, Note_on_c, 2, 64, 95
2, 54000, Note_off_c, 2, 64, 80
2, 54000, Note_on_c, 2, 66, 95
2, 54240, Note_off_c, 2, 66, 80
2, 54240, Note_on_c, 2, 64, 95
2, 54720, Note_off_c, 2, 64, 80
2, 55440, Note_on_c, 2, 64, 95
2, 55560, Note_off_c, 2, 64, 80
2, 55560, Note_on_c, 2, 61, 95
2, 55680, Note_off_c, 2, 61, 80
2, 55680, Note_on_c, 2, 64, 95
2, 55920, Note_off_c, 2, 64, 80
2, 55920, Note_on_c, 2, 66, 95
2, 56160, Note_off_c, 2, 66, 80
2, 56160, Note_on_c, 2, 64, 95
2, 56400, Note_off_c, 2, 64, 80
2, 56400, Note_on_c, 2, 64, 95
2, 56520, Note_off_c, 2, 64, 80
2, 56520, Note_on_c, 2, 61, 95
2, 56640, Note_off_c, 2, 61, 80
2, 56640, Note_on_c, 2, 64, 95
2, 56880, Note_off_c, 2, 64, 80
2, 56880, Note_on_c, 2, 66, 95
2, 57120, Note_off_c, 2, 66, 80
2, 57120, Note_on_c, 2, 64, 95
2, 57360, Note_off_c, 2, 64, 80
2, 57360, Note_on_c, 2, 64, 95
2, 57480, Note_off_c, 2, 64, 80
2, 57480, Note_on_c, 2, 61, 95
2, 57600, Note_off_c, 2, 61, 80
2, 57600, Note_on_c, 2, 64, 95
2, 57840, Note_off_c, 2, 64, 80
2, 57840, Note_on_c, 2, 66, 95
2, 58080, Note_off_c, 2, 66, 80
2, 58080, Note_on_c, 2, 64, 95
2, 58560, Note_off_c, 2, 64, 80
2, 59280, Note_on_c, 2, 64, 95
2, 59400, Note_off_c, 2, 64, 80
2, 59400, Note_on_c, 2, 61, 95
2, 59520, Note_off_c, 2, 61, 80
2, 59520, Note_on_c, 2, 64, 95
2, 59760, Note_off_c, 2, 64, 80
2, 59760, Note_on_c, 2, 66, 95
2, 60000, Note_off_c, 2, 66, 80
2, 60000, Note_on_c, 2, 64, 95
2, 60240, Note_off_c, 2, 64, 80
2, 60240, Note_on_c, 2, 64, 95
2, 60360, Note_off_c, 2, 64, 80
2, 60360, Note_on_c, 2, 61, 95
2, 60480, Note_off_c, 2, 61, 80
2, 60480, Note_on_c, 2, 64, 95
2, 60720, Note_off_c, 2, 64, 80
2, 60720, Note_on_c, 2, 66, 95
2, 60960, Note_off_c, 2, 66, 80
2, 60960, Note_on_c, 2, 64, 95
2, 61200, Note_off_c, 2, 64, 80
2, 61200, Note_on_c, 2, 64, 95
2, 61320, Note_off_c, 2, 64, 80
2, 61320, Note_on_c, 2, 61, 95
2, 61440, Note_off_c, 2, 61, 80
2, 61440, Note_on_c, 2, 64, 95
2, 61680, Note_off_c, 2, 64, 80
2, 61680, Note_on_c, 2, 66, 95
2, 62160, Note_off_c, 2, 66, 80
2, 62160, Note_on_c, 2, 64, 95
2, 62640, Note_off_c, 2, 64, 80
2, 63120, Note_on_c, 2, 59, 95
2, 63240, Note_off_c, 2, 59, 80
2, 63240, Note_on_c, 2, 59, 95
2, 63360, Note_off_c, 2, 59, 80
2, 63360, Note_on_c, 2, 59, 95
2, 63600, Note_off_c, 2, 59, 80
2, 63600, Note_on_c, 2, 59, 95
2, 63720, Note_off_c, 2, 59, 80
2, 63720, Note_on_c, 2, 68, 95
2, 64080, Note_off_c, 2, 68, 80
2, 64080, Note_on_c, 2, 68, 95
2, 64320, Note_off_c, 2, 68, 80
2, 64320, Note_on_c, 2, 66, 95
2, 64560, Note_off_c, 2, 66, 80
2, 64560, Note_on_c, 2, 66, 95
2, 64800, Note_off_c, 2, 66, 80
2, 64800, Note_on_c, 2, 64, 95
2, 65040, Note_off_c, 2, 64, 80
2, 65040, Note_on_c, 2, 64, 95
2, 65280, Note_off_c, 2, 64, 80
2, 65280, Note_on_c, 2, 63, 95
2, 65520, Note_off_c, 2, 63, 80
2, 65520, Note_on_c, 2, 63, 95
2, 65760, Note_off_c, 2, 63, 80
2, 65760, Note_on_c, 2, 64, 95
2, 66240, Note_off_c, 2, 64, 80
2, 66960, Note_on_c, 2, 64, 95
2, 67200, Note_off_c, 2, 64, 80
2, 67200, Note_on_c, 2, 64, 95
2, 67440, Note_off_c, 2, 64, 80
2, 67440, Note_on_c, 2, 63, 95
2, 67560, Note_off_c, 2, 63, 80
2, 67560, Note_on_c, 2, 64, 95
2, 67920, Note_off_c, 2, 64, 80
2, 67920, Note_on_c, 2, 64, 95
2, 68160, Note_off_c, 2, 64, 80
2, 68160, Note_on_c, 2, 64, 95
2, 68400, Note_off_c, 2, 64, 80
2, 68400, Note_on_c, 2, 64, 95
2, 68640, Note_off_c, 2, 64, 80
2, 68640, Note_on_c, 2, 63, 95
2, 68880, Note_off_c, 2, 63, 80
2, 68880, Note_on_c, 2, 63, 95
2, 69120, Note_off_c, 2, 63, 80
2, 69120, Note_on_c, 2, 63, 95
2, 69360, Note_off_c, 2, 63, 80
2, 69360, Note_on_c, 2, 63, 95
2, 69840, Note_off_c, 2, 63, 80
2, 69840, Note_on_c, 2, 64, 95
2, 70320, Note_off_c, 2, 64, 80
2, 70800, Note_on_c, 2, 68, 95
2, 70920, Note_off_c, 2, 68, 80
2, 70920, Note_on_c, 2, 68, 95
2, 71040, Note_off_c, 2, 68, 80
2, 71040, Note_on_c, 2, 66, 95
2, 71280, Note_off_c, 2, 66, 80
2, 71280, Note_on_c, 2, 64, 95
2, 71400, Note_off_c, 2, 64, 80
2, 71400, Note_on_c, 2, 64, 95
2, 72120, Note_off_c, 2, 64, 80
2, 79080, Note_on_c, 2, 59, 95
2, 79200, Note_off_c, 2, 59, 80
2, 79200, Note_on_c, 2, 68, 95
2, 79320, Note_off_c, 2, 68, 80
2, 79320, Note_on_c, 2, 68, 95
2, 79560, Note_off_c, 2, 68, 80
2, 79560, Note_on_c, 2, 66, 95
2, 79800, Note_off_c, 2, 66, 80
2, 79800, Note_on_c, 2, 66, 95
2, 80040, Note_off_c, 2, 66, 80
2, 80040, Note_on_c, 2, 64, 95
2, 80280, Note_off_c, 2, 64, 80
2, 80280, Note_on_c, 2, 64, 95
2, 80520, Note_off_c, 2, 64, 80
2, 80520, Note_on_c, 2, 63, 95
2, 80760, Note_off_c, 2, 63, 80
2, 80760, Note_on_c, 2, 63, 95
2, 81000, Note_off_c, 2, 63, 80
2, 81000, Note_on_c, 2, 61, 95
2, 81480, Note_off_c, 2, 61, 80
2, 81840, Note_on_c, 2, 61, 95
2, 81960, Note_off_c, 2, 61, 80
2, 81960, Note_on_c, 2, 61, 95
2, 82080, Note_off_c, 2, 61, 80
2, 82080, Note_on_c, 2, 68, 95
2, 82320, Note_off_c, 2, 68, 80
2, 82320, Note_on_c, 2, 68, 95
2, 82440, Note_off_c, 2, 68, 80
2, 82440, Note_on_c, 2, 66, 95
2, 82680, Note_off_c, 2, 66, 80
2, 82680, Note_on_c, 2, 66, 95
2, 83040, Note_off_c, 2, 66, 80
2, 83040, Note_on_c, 2, 64, 95
2, 83520, Note_off_c, 2, 64, 80
2, 83760, Note_on_c, 2, 61, 95
2, 83880, Note_off_c, 2, 61, 80
2, 83880, Note_on_c, 2, 61, 95
2, 84000, Note_off_c, 2, 61, 80
2, 84000, Note_on_c, 2, 68, 95
2, 84240, Note_off_c, 2, 68, 80
2, 84240, Note_on_c, 2, 68, 95
2, 84480, Note_off_c, 2, 68, 80
2, 84480, Note_on_c, 2, 66, 95
2, 84720, Note_off_c, 2, 66, 80
2, 84720, Note_on_c, 2, 66, 95
2, 84840, Note_off_c, 2, 66, 80
2, 84840, Note_on_c, 2, 64, 95
2, 85320, Note_off_c, 2, 64, 80
2, 86640, Note_on_c, 2, 59, 95
2, 86880, Note_off_c, 2, 59, 80
2, 86880, Note_on_c, 2, 66, 95
2, 87360, Note_off_c, 2, 66, 80
2, 87360, Note_on_c, 2, 64, 95
2, 87600, Note_off_c, 2, 64, 80
2, 87600, Note_on_c, 2, 68, 95
2, 88080, Note_off_c, 2, 68, 80
2, 88080, Note_on_c, 2, 64, 95
2, 88560, Note_off_c, 2, 64, 80
2, 88560, Note_on_c, 2, 66, 95
2, 89040, Note_off_c, 2, 66, 80
2, 89040, Note_on_c, 2, 64, 95
2, 89760, Note_off_c, 2, 64, 80
2, 90480, Note_on_c, 2, 59, 95
2, 90720, Note_off_c, 2, 59, 80
2, 90720, Note_on_c, 2, 66, 95
2, 91200, Note_off_c, 2, 66, 80
2, 91200, Note_on_c, 2, 64, 95
2, 91440, Note_off_c, 2, 64, 80
2, 91440, Note_on_c, 2, 68, 95
2, 91920, Note_off_c, 2, 68, 80
2, 91920, Note_on_c, 2, 64, 95
2, 92400, Note_off_c, 2, 64, 80
2, 92400, Note_on_c, 2, 66, 95
2, 92640, Note_off_c, 2, 66, 80
2, 92640, Note_on_c, 2, 64, 95
2, 93120, Note_off_c, 2, 64, 80
2, 93840, Note_on_c, 2, 64, 95
2, 93960, Note_off_c, 2, 64, 80
2, 93960, Note_on_c, 2, 61, 95
2, 94080, Note_off_c, 2, 61, 80
2, 94080, Note_on_c, 2, 64, 95
2, 94320, Note_off_c, 2, 64, 80
2, 94320, Note_on_c, 2, 66, 95
2, 94560, Note_off_c, 2, 66, 80
2, 94560, Note_on_c, 2, 64, 95
2, 94800, Note_off_c, 2, 64, 80
2, 94800, Note_on_c, 2, 64, 95
2, 94920, Note_off_c, 2, 64, 80
2, 94920, Note_on_c, 2, 61, 95
2, 95040, Note_off_c, 2, 61, 80
2, 95040, Note_on_c, 2, 64, 95
2, 95280, Note_off_c, 2, 64, 80
2, 95280, Note_on_c, 2, 66, 95
2, 95520, Note_off_c, 2, 66, 80
2, 95520, Note_on_c, 2, 64, 95
2, 95760, Note_off_c, 2, 64, 80
2, 95760, Note_on_c, 2, 64, 95
2, 95880, Note_off_c, 2, 64, 80
2, 95880, Note_on_c, 2, 61, 95
2, 96000, Note_off_c, 2, 61, 80
2, 96000, Note_on_c, 2, 64, 95
2, 96240, Note_off_c, 2, 64, 80
2, 96240, Note_on_c, 2, 66, 95
2, 96480, Note_off_c, 2, 66, 80
2, 96480, Note_on_c, 2, 64, 95
2, 96960, Note_off_c, 2, 64, 80
2, 97680, Note_on_c, 2, 64, 95
2, 97800, Note_off_c, 2, 64, 80
2, 97800, Note_on_c, 2, 61, 95
2, 97920, Note_off_c, 2, 61, 80
2, 97920, Note_on_c, 2, 64, 95
2, 98160, Note_off_c, 2, 64, 80
2, 98160, Note_on_c, 2, 66, 95
2, 98400, Note_off_c, 2, 66, 80
2, 98400, Note_on_c, 2, 64, 95
2, 98640, Note_off_c, 2, 64, 80
2, 98640, Note_on_c, 2, 64, 95
2, 98760, Note_off_c, 2, 64, 80
2, 98760, Note_on_c, 2, 61, 95
2, 98880, Note_off_c, 2, 61, 80
2, 98880, Note_on_c, 2, 64, 95
2, 99120, Note_off_c, 2, 64, 80
2, 99120, Note_on_c, 2, 66, 95
2, 99360, Note_off_c, 2, 66, 80
2, 99360, Note_on_c, 2, 64, 95
2, 99600, Note_off_c, 2, 64, 80
2, 99600, Note_on_c, 2, 64, 95
2, 99720, Note_off_c, 2, 64, 80
2, 99720, Note_on_c, 2, 61, 95
2, 99840, Note_off_c, 2, 61, 80
2, 99840, Note_on_c, 2, 64, 95
2, 100080, Note_off_c, 2, 64, 80
2, 100080, Note_on_c, 2, 66, 95
2, 100560, Note_off_c, 2, 66, 80
2, 100560, Note_on_c, 2, 64, 95
2, 101040, Note_off_c, 2, 64, 80
2, 101520, Note_on_c, 2, 59, 95
2, 101640, Note_off_c, 2, 59, 80
2, 101640, Note_on_c, 2, 59, 95
2, 101760, Note_off_c, 2, 59, 80
2, 101760, Note_on_c, 2, 59, 95
2, 102000, Note_off_c, 2, 59, 80
2, 102000, Note_on_c, 2, 59, 95
2, 102120, Note_off_c, 2, 59, 80
2, 102120, Note_on_c, 2, 68, 95
2, 102480, Note_off_c, 2, 68, 80
2, 102480, Note_on_c, 2, 68, 95
2, 102720, Note_off_c, 2, 68, 80
2, 102720, Note_on_c, 2, 66, 95
2, 102960, Note_off_c, 2, 66, 80
2, 102960, Note_on_c, 2, 66, 95
2, 103200, Note_off_c, 2, 66, 80
2, 103200, Note_on_c, 2, 64, 95
2, 103440, Note_off_c, 2, 64, 80
2, 103440, Note_on_c, 2, 64, 95
2, 103680, Note_off_c, 2, 64, 80
2, 103680, Note_on_c, 2, 63, 95
2, 103920, Note_off_c, 2, 63, 80
2, 103920, Note_on_c, 2, 63, 95
2, 104160, Note_off_c, 2, 63, 80
2, 104160, Note_on_c, 2, 64, 95
2, 104640, Note_off_c, 2, 64, 80
2, 105360, Note_on_c, 2, 64, 95
2, 105600, Note_off_c, 2, 64, 80
2, 105600, Note_on_c, 2, 64, 95
2, 105840, Note_off_c, 2, 64, 80
2, 105840, Note_on_c, 2, 63, 95
2, 105960, Note_off_c, 2, 63, 80
2, 105960, Note_on_c, 2, 64, 95
2, 106320, Note_off_c, 2, 64, 80
2, 106320, Note_on_c, 2, 64, 95
2, 106560, Note_off_c, 2, 64, 80
2, 106560, Note_on_c, 2, 64, 95
2, 106800, Note_off_c, 2, 64, 80
2, 106800, Note_on_c, 2, 64, 95
2, 107040, Note_off_c, 2, 64, 80
2, 107040, Note_on_c, 2, 63, 95
2, 107280, Note_off_c, 2, 63, 80
2, 107280, Note_on_c, 2, 63, 95
2, 107520, Note_off_c, 2, 63, 80
2, 107520, Note_on_c, 2, 63, 95
2, 107760, Note_off_c, 2, 63, 80
2, 107760, Note_on_c, 2, 63, 95
2, 108240, Note_off_c, 2, 63, 80
2, 108240, Note_on_c, 2, 64, 95
2, 108720, Note_off_c, 2, 64, 80
2, 109680, Note_on_c, 2, 61, 95
2, 109920, Note_off_c, 2, 61, 80
2, 109920, Note_on_c, 2, 68, 95
2, 110280, Note_off_c, 2, 68, 80
2, 110280, Note_on_c, 2, 66, 95
2, 110520, Note_off_c, 2, 66, 80
2, 110520, Note_on_c, 2, 64, 95
2, 110700, Note_off_c, 2, 64, 80
2, 110700, Note_on_c, 2, 66, 95
2, 111600, Note_off_c, 2, 66, 80
2, 111600, Note_on_c, 2, 61, 95
2, 111840, Note_off_c, 2, 61, 80
2, 111840, Note_on_c, 2, 68, 95
2, 112200, Note_off_c, 2, 68, 80
2, 112200, Note_on_c, 2, 66, 95
2, 112440, Note_off_c, 2, 66, 80
2, 112440, Note_on_c, 2, 64, 95
2, 112620, Note_off_c, 2, 64, 80
2, 112620, Note_on_c, 2, 66, 95
2, 113520, Note_off_c, 2, 66, 80
2, 113520, Note_on_c, 2, 61, 95
2, 113640, Note_off_c, 2, 61, 80
2, 113640, Note_on_c, 2, 61, 95
2, 113760, Note_off_c, 2, 61, 80
2, 113760, Note_on_c, 2, 68, 95
2, 114120, Note_off_c, 2, 68, 80
2, 114120, Note_on_c, 2, 66, 95
2, 114360, Note_off_c, 2, 66, 80
2, 114360, Note_on_c, 2, 64, 95
2, 114720, Note_off_c, 2, 64, 80
2, 114720, Note_on_c, 2, 64, 95
2, 114840, Note_off_c, 2, 64, 80
2, 114840, Note_on_c, 2, 64, 95
2, 114960, Note_off_c, 2, 64, 80
2, 114960, Note_on_c, 2, 64, 95
2, 115440, Note_off_c, 2, 64, 80
2, 115440, Note_on_c, 2, 64, 95
2, 115680, Note_off_c, 2, 64, 80
2, 115680, Note_on_c, 2, 68, 95
2, 116040, Note_off_c, 2, 68, 80
2, 116040, Note_on_c, 2, 66, 95
2, 116280, Note_off_c, 2, 66, 80
2, 116280, Note_on_c, 2, 64, 95
2, 116400, Note_off_c, 2, 64, 80
2, 116400, Note_on_c, 2, 66, 95
2, 117240, Note_off_c, 2, 66, 80
2, 117360, Note_on_c, 2, 61, 95
2, 117600, Note_off_c, 2, 61, 80
2, 117600, Note_on_c, 2, 68, 95
2, 117960, Note_off_c, 2, 68, 80
2, 117960, Note_on_c, 2, 66, 95
2, 118200, Note_off_c, 2, 66, 80
2, 118200, Note_on_c, 2, 64, 95
2, 118380, Note_off_c, 2, 64, 80
2, 118380, Note_on_c, 2, 66, 95
2, 119040, Note_off_c, 2, 66, 80
2, 119040, Note_on_c, 2, 61, 95
2, 119280, Note_off_c, 2, 61, 80
2, 119280, Note_on_c, 2, 61, 95
2, 119520, Note_off_c, 2, 61, 80
2, 119520, Note_on_c, 2, 68, 95
2, 119760, Note_off_c, 2, 68, 80
2, 119760, Note_on_c, 2, 66, 95
2, 119880, Note_off_c, 2, 66, 80
2, 119880, Note_on_c, 2, 66, 95
2, 120120, Note_off_c, 2, 66, 80
2, 120120, Note_on_c, 2, 64, 95
2, 120240, Note_off_c, 2, 64, 80
2, 120240, Note_on_c, 2, 61, 95
2, 120720, Note_off_c, 2, 61, 80
2, 120960, Note_on_c, 2, 61, 95
2, 121200, Note_off_c, 2, 61, 80
2, 121200, Note_on_c, 2, 61, 95
2, 121440, Note_off_c, 2, 61, 80
2, 121440, Note_on_c, 3, 66, 95
2, 121656, Pitch_bend_c, 3, 7552
2, 121680, Pitch_bend_c, 3, 6784
2, 121920, Note_off_c, 3, 66, 80
2, 121920, Pitch_bend_c, 3, 8192
2, 121920, Note_on_c, 3, 66, 95
2, 122136, Pitch_bend_c, 3, 7552
2, 122160, Pitch_bend_c, 3, 6784
2, 122400, Note_off_c, 3, 66, 80
2, 122400, Pitch_bend_c, 3, 8192
2, 122400, Note_on_c, 2, 66, 95
2, 122760, Note_off_c, 2, 66, 80
2, 122880, Note_on_c, 2, 66, 95
2, 123120, Note_off_c, 2, 66, 80
2, 123120, Note_on_c, 2, 64, 95
2, 123360, Note_off_c, 2, 64, 80
2, 123360, Note_on_c, 2, 68, 95
2, 123720, Note_off_c, 2, 68, 80
2, 123720, Note_on_c, 2, 68, 95
2, 124080, Note_off_c, 2, 68, 80
2, 124080, Note_on_c, 2, 66, 95
2, 125280, Note_off_c, 2, 66, 80
2, 141840, Note_on_c, 2, 64, 95
2, 141960, Note_off_c, 2, 64, 80
2, 141960, Note_on_c, 2, 61, 95
2, 142080, Note_off_c, 2, 61, 80
2, 142080, Note_on_c, 2, 64, 95
2, 142320, Note_off_c, 2, 64, 80
2, 142320, Note_on_c, 2, 66, 95
2, 142560, Note_off_c, 2, 66, 80
2, 142560, Note_on_c, 2, 64, 95
2, 142800, Note_off_c, 2, 64, 80
2, 142800, Note_on_c, 2, 64, 95
2, 142920, Note_off_c, 2, 64, 80
2, 142920, Note_on_c, 2, 61, 95
2, 143040, Note_off_c, 2, 61, 80
2, 143040, Note_on_c, 2, 64, 95
2, 143280, Note_off_c, 2, 64, 80
2, 143280, Note_on_c, 2, 66, 95
2, 143520, Note_off_c, 2, 66, 80
2, 143520, Note_on_c, 2, 64, 95
2, 143760, Note_off_c, 2, 64, 80
2, 143760, Note_on_c, 2, 64, 95
2, 143880, Note_off_c, 2, 64, 80
2, 143880, Note_on_c, 2, 61, 95
2, 144000, Note_off_c, 2, 61, 80
2, 144000, Note_on_c, 2, 64, 95
2, 144240, Note_off_c, 2, 64, 80
2, 144240, Note_on_c, 2, 66, 95
2, 144720, Note_off_c, 2, 66, 80
2, 144720, Note_on_c, 2, 64, 95
2, 145440, Note_off_c, 2, 64, 80
2, 145680, Note_on_c, 2, 64, 95
2, 145800, Note_off_c, 2, 64, 80
2, 145800, Note_on_c, 2, 61, 95
2, 145920, Note_off_c, 2, 61, 80
2, 145920, Note_on_c, 2, 64, 95
2, 146160, Note_off_c, 2, 64, 80
2, 146160, Note_on_c, 2, 66, 95
2, 146400, Note_off_c, 2, 66, 80
2, 146400, Note_on_c, 2, 64, 95
2, 146640, Note_off_c, 2, 64, 80
2, 146640, Note_on_c, 2, 64, 95
2, 146760, Note_off_c, 2, 64, 80
2, 146760, Note_on_c, 2, 64, 95
2, 146880, Note_off_c, 2, 64, 80
2, 146880, Note_on_c, 2, 64, 95
2, 147120, Note_off_c, 2, 64, 80
2, 147120, Note_on_c, 2, 64, 95
2, 147360, Note_off_c, 2, 64, 80
2, 147360, Note_on_c, 2, 63, 95
2, 147600, Note_off_c, 2, 63, 80
2, 147600, Note_on_c, 2, 63, 95
2, 147720, Note_off_c, 2, 63, 80
2, 147720, Note_on_c, 2, 63, 95
2, 147840, Note_off_c, 2, 63, 80
2, 147840, Note_on_c, 2, 63, 95
2, 148080, Note_off_c, 2, 63, 80
2, 148080, Note_on_c, 2, 63, 95
2, 148560, Note_off_c, 2, 63, 80
2, 148560, Note_on_c, 2, 64, 95
2, 149040, Note_off_c, 2, 64, 80
2, 149520, Note_on_c, 2, 59, 95
2, 149640, Note_off_c, 2, 59, 80
2, 149640, Note_on_c, 2, 59, 95
2, 149760, Note_off_c, 2, 59, 80
2, 149760, Note_on_c, 2, 59, 95
2, 150000, Note_off_c, 2, 59, 80
2, 150000, Note_on_c, 2, 59, 95
2, 150240, Note_off_c, 2, 59, 80
2, 150240, Note_on_c, 2, 68, 95
2, 150480, Note_off_c, 2, 68, 80
2, 150480, Note_on_c, 2, 68, 95
2, 150720, Note_off_c, 2, 68, 80
2, 150720, Note_on_c, 2, 66, 95
2, 150960, Note_off_c, 2, 66, 80
2, 150960, Note_on_c, 2, 66, 95
2, 151080, Note_off_c, 2, 66, 80
2, 151080, Note_on_c, 2, 64, 95
2, 151440, Note_off_c, 2, 64, 80
2, 151440, Note_on_c, 2, 64, 95
2, 151680, Note_off_c, 2, 64, 80
2, 151680, Note_on_c, 2, 66, 95
2, 151800, Note_off_c, 2, 66, 80
2, 151800, Note_on_c, 2, 64, 95
2, 152040, Note_off_c, 2, 64, 80
2, 152040, Note_on_c, 2, 64, 95
2, 153000, Note_off_c, 2, 64, 80
2, 153360, Note_on_c, 2, 64, 95
2, 153600, Note_off_c, 2, 64, 80
2, 153600, Note_on_c, 2, 64, 95
2, 153840, Note_off_c, 2, 64, 80
2, 153840, Note_on_c, 2, 63, 95
2, 153960, Note_off_c, 2, 63, 80
2, 153960, Note_on_c, 2, 64, 95
2, 154320, Note_off_c, 2, 64, 80
2, 154320, Note_on_c, 2, 64, 95
2, 154560, Note_off_c, 2, 64, 80
2, 154560, Note_on_c, 2, 64, 95
2, 154800, Note_off_c, 2, 64, 80
2, 154800, Note_on_c, 2, 64, 95
2, 155040, Note_off_c, 2, 64, 80
2, 155040, Note_on_c, 2, 63, 95
2, 155280, Note_off_c, 2, 63, 80
2, 155280, Note_on_c, 2, 63, 95
2, 155520, Note_off_c, 2, 63, 80
2, 155520, Note_on_c, 2, 63, 95
2, 155760, Note_off_c, 2, 63, 80
2, 155760, Note_on_c, 2, 63, 95
2, 156240, Note_off_c, 2, 63, 80
2, 156240, Note_on_c, 2, 64, 95
2, 156720, Note_off_c, 2, 64, 80
2, 157200, Note_on_c, 2, 64, 95
2, 157320, Note_off_c, 2, 64, 80
2, 157320, Note_on_c, 2, 61, 95
2, 157440, Note_off_c, 2, 61, 80
2, 157440, Note_on_c, 2, 64, 95
2, 157680, Note_off_c, 2, 64, 80
2, 157680, Note_on_c, 2, 66, 95
2, 157920, Note_off_c, 2, 66, 80
2, 157920, Note_on_c, 2, 64, 95
2, 158160, Note_off_c, 2, 64, 80
2, 158160, Note_on_c, 2, 64, 95
2, 158400, Note_off_c, 2, 64, 80
2, 158400, Note_on_c, 2, 64, 95
2, 158640, Note_off_c, 2, 64, 80
2, 158640, Note_on_c, 2, 64, 95
2, 158880, Note_off_c, 2, 64, 80
2, 158880, Note_on_c, 2, 63, 95
2, 159120, Note_off_c, 2, 63, 80
2, 159120, Note_on_c, 2, 63, 95
2, 159360, Note_off_c, 2, 63, 80
2, 159360, Note_on_c, 2, 63, 95
2, 159600, Note_off_c, 2, 63, 80
2, 159600, Note_on_c, 2, 63, 95
2, 159840, Note_off_c, 2, 63, 80
2, 159840, Note_on_c, 2, 64, 95
2, 160560, Note_off_c, 2, 64, 80
2, 161040, Note_on_c, 2, 64, 95
2, 161160, Note_off_c, 2, 64, 80
2, 161160, Note_on_c, 2, 64, 95
2, 161280, Note_off_c, 2, 64, 80
2, 161280, Note_on_c, 2, 64, 95
2, 161520, Note_off_c, 2, 64, 80
2, 161520, Note_on_c, 2, 63, 95
2, 161640, Note_off_c, 2, 63, 80
2, 161640, Note_on_c, 2, 64, 95
2, 162000, Note_off_c, 2, 64, 80
2, 162000, Note_on_c, 2, 64, 95
2, 162240, Note_off_c, 2, 64, 80
2, 162240, Note_on_c, 2, 64, 95
2, 162480, Note_off_c, 2, 64, 80
2, 162480, Note_on_c, 2, 64, 95
2, 162720, Note_off_c, 2, 64, 80
2, 162720, Note_on_c, 2, 63, 95
2, 162960, Note_off_c, 2, 63, 80
2, 162960, Note_on_c, 2, 63, 95
2, 163200, Note_off_c, 2, 63, 80
2, 163200, Note_on_c, 2, 63, 95
2, 163440, Note_off_c, 2, 63, 80
2, 163440, Note_on_c, 2, 63, 95
2, 163680, Note_off_c, 2, 63, 80
2, 163680, Note_on_c, 2, 64, 95
2, 164400, Note_off_c, 2, 64, 80
2, 164400, End_track
3, 0, Start_track
3, 0, Title_t, "Backing Vocal (Mike)"
3, 0, Control_c, 10, 100, 0
3, 0, Control_c, 10, 101, 0
3, 0, Control_c, 10, 6, 12
3, 0, Pitch_bend_c, 10, 8192
3, 0, Control_c, 10, 101, 0
3, 0, Control_c, 10, 100, 1
3, 0, Control_c, 10, 6, 64
3, 0, Control_c, 10, 38, 0
3, 0, Control_c, 10, 101, 127
3, 0, Control_c, 10, 100, 127
3, 0, Control_c, 8, 100, 0
3, 0, Control_c, 8, 101, 0
3, 0, Control_c, 8, 6, 12
3, 0, Pitch_bend_c, 8, 8192
3, 0, Control_c, 8, 101, 0
3, 0, Control_c, 8, 100, 1
3, 0, Control_c, 8, 6, 64
3, 0, Control_c, 8, 38, 0
3, 0, Control_c, 8, 101, 127
3, 0, Control_c, 8, 100, 127
3, 0, Control_c, 10, 101, 0
3, 0, Control_c, 10, 100, 2
3, 0, Control_c, 10, 6, 64
3, 0, Control_c, 10, 101, 127
3, 0, Control_c, 10, 100, 127
3, 0, Control_c, 8, 101, 0
3, 0, Control_c, 8, 100, 2
3, 0, Control_c, 8, 6, 64
3, 0, Control_c, 8, 101, 127
3, 0, Control_c, 8, 100, 127
3, 0, Program_c, 10, 94
3, 0, Program_c, 8, 94
3, 0, Control_c, 10, 0, 0
3, 0, Control_c, 8, 0, 0
3, 0, Control_c, 10, 7, 80
3, 0, Control_c, 8, 7, 80
3, 0, Control_c, 10, 10, 64
3, 0, Control_c, 8, 10, 64
3, 0, Control_c, 10, 93, 0
3, 0, Control_c, 8, 93, 0
3, 0, Control_c, 10, 91, 0
3, 0, Control_c, 8, 91, 0
3, 0, Control_c, 10, 92, 0
3, 0, Control_c, 8, 92, 0
3, 0, Control_c, 10, 95, 0
3, 0, Control_c, 8, 95, 0
3, 47520, Note_on_c, 8, 64, 95
3, 48000, Note_off_c, 8, 64, 80
3, 48000, Note_on_c, 8, 64, 95
3, 48480, Note_off_c, 8, 64, 80
3, 50160, Note_on_c, 8, 61, 95
3, 50640, Note_off_c, 8, 61, 80
3, 50640, Note_on_c, 8, 59, 95
3, 51120, Note_off_c, 8, 59, 80
3, 51120, Note_on_c, 8, 54, 95
3, 51600, Note_off_c, 8, 54, 80
3, 51600, Note_on_c, 8, 52, 95
3, 52320, Note_off_c, 8, 52, 80
3, 52320, Note_on_c, 10, 64, 95
3, 52320, Note_on_c, 10, 52, 95
3, 52320, Note_on_c, 10, 52, 95
3, 52704, Pitch_bend_c, 10, 8832
3, 52704, Pitch_bend_c, 10, 8832
3, 52704, Pitch_bend_c, 10, 8832
3, 52756, Pitch_bend_c, 10, 9600
3, 52756, Pitch_bend_c, 10, 9600
3, 52756, Pitch_bend_c, 10, 9600
3, 52809, Pitch_bend_c, 10, 10240
3, 52809, Pitch_bend_c, 10, 10240
3, 52809, Pitch_bend_c, 10, 10240
3, 52861, Pitch_bend_c, 10, 10880
3, 52861, Pitch_bend_c, 10, 10880
3, 52861, Pitch_bend_c, 10, 10880
3, 52913, Pitch_bend_c, 10, 11648
3, 52913, Pitch_bend_c, 10, 11648
3, 52913, Pitch_bend_c, 10, 11648
3, 52966, Pitch_bend_c, 10, 12288
3, 52966, Pitch_bend_c, 10, 12288
3, 52966, Pitch_bend_c, 10, 12288
3, 53018, Pitch_bend_c, 10, 12928
3, 53018, Pitch_bend_c, 10, 12928
3, 53018, Pitch_bend_c, 10, 12928
3, 53071, Pitch_bend_c, 10, 13696
3, 53071, Pitch_bend_c, 10, 13696
3, 53071, Pitch_bend_c, 10, 13696
3, 53123, Pitch_bend_c, 10, 14336
3, 53123, Pitch_bend_c, 10, 14336
3, 53123, Pitch_bend_c, 10, 14336
3, 53175, Pitch_bend_c, 10, 14976
3, 53175, Pitch_bend_c, 10, 14976
3, 53175, Pitch_bend_c, 10, 14976
3, 53228, Pitch_bend_c, 10, 15744
3, 53228, Pitch_bend_c, 10, 15744
3, 53228, Pitch_bend_c, 10, 15744
3, 53280, Pitch_bend_c, 10, 16256
3, 53280, Pitch_bend_c, 10, 16256
3, 53280, Pitch_bend_c, 10, 16256
3, 53520, Note_off_c, 10, 64, 80
3, 53520, Pitch_bend_c, 10, 8192
3, 53520, Note_off_c, 10, 52, 80
3, 53520, Pitch_bend_c, 10, 8192
3, 53520, Note_off_c, 10, 52, 80
3, 53520, Pitch_bend_c, 10, 8192
3, 53520, Note_on_c, 8, 64, 95
3, 54000, Note_off_c, 8, 64, 80
3, 54000, Note_on_c, 8, 66, 95
3, 54240, Note_off_c, 8, 66, 80
3, 54240, Note_on_c, 8, 64, 95
3, 54720, Note_off_c, 8, 64, 80
3, 80160, Note_on_c, 8, 66, 79
3, 80640, Note_off_c, 8, 66, 80
3, 80640, Note_on_c, 8, 68, 79
3, 81120, Note_off_c, 8, 68, 80
3, 81120, Note_on_c, 8, 64, 79
3, 82080, Note_off_c, 8, 64, 80
3, 82080, Note_on_c, 8, 66, 79
3, 82560, Note_off_c, 8, 66, 80
3, 82560, Note_on_c, 8, 68, 79
3, 83040, Note_off_c, 8, 68, 80
3, 83040, Note_on_c, 8, 59, 79
3, 84000, Note_off_c, 8, 59, 80
3, 84000, Note_on_c, 8, 66, 79
3, 84480, Note_off_c, 8, 66, 80
3, 84480, Note_on_c, 8, 68, 79
3, 84960, Note_off_c, 8, 68, 80
3, 84960, Note_on_c, 8, 59, 79
3, 85920, Note_off_c, 8, 59, 80
3, 85920, Note_on_c, 8, 64, 95
3, 86400, Note_off_c, 8, 64, 80
3, 86400, Note_on_c, 8, 64, 95
3, 86880, Note_off_c, 8, 64, 80
3, 88560, Note_on_c, 8, 61, 95
3, 89040, Note_off_c, 8, 61, 80
3, 89040, Note_on_c, 8, 59, 95
3, 89520, Note_off_c, 8, 59, 80
3, 89520, Note_on_c, 8, 54, 95
3, 90000, Note_off_c, 8, 54, 80
3, 90000, Note_on_c, 8, 52, 95
3, 90720, Note_off_c, 8, 52, 80
3, 90720, Note_on_c, 10, 64, 95
3, 90720, Note_on_c, 10, 52, 95
3, 90720, Note_on_c, 10, 52, 95
3, 91104, Pitch_bend_c, 10, 8832
3, 91104, Pitch_bend_c, 10, 8832
3, 91104, Pitch_bend_c, 10, 8832
3, 91156, Pitch_bend_c, 10, 9600
3, 91156, Pitch_bend_c, 10, 9600
3, 91156, Pitch_bend_c, 10, 9600
3, 91209, Pitch_bend_c, 10, 10240
3, 91209, Pitch_bend_c, 10, 10240
3, 91209, Pitch_bend_c, 10, 10240
3, 91261, Pitch_bend_c, 10, 10880
3, 91261, Pitch_bend_c, 10, 10880
3, 91261, Pitch_bend_c, 10, 10880
3, 91313, Pitch_bend_c, 10, 11648
3, 91313, Pitch_bend_c, 10, 11648
3, 91313, Pitch_bend_c, 10, 11648
3, 91366, Pitch_bend_c, 10, 12288
3, 91366, Pitch_bend_c, 10, 12288
3, 91366, Pitch_bend_c, 10, 12288
3, 91418, Pitch_bend_c, 10, 12928
3, 91418, Pitch_bend_c, 10, 12928
3, 91418, Pitch_bend_c, 10, 12928
3, 91471, Pitch_bend_c, 10, 13696
3, 91471, Pitch_bend_c, 10, 13696
3, 91471, Pitch_bend_c, 10, 13696
3, 91523, Pitch_bend_c, 10, 14336
3, 91523, Pitch_bend_c, 10, 14336
3, 91523, Pitch_bend_c, 10, 14336
3, 91575, Pitch_bend_c, 10, 14976
3, 91575, Pitch_bend_c, 10, 14976
3, 91575, Pitch_bend_c, 10, 14976
3, 91628, Pitch_bend_c, 10, 15744
3, 91628, Pitch_bend_c, 10, 15744
3, 91628, Pitch_bend_c, 10, 15744
3, 91680, Pitch_bend_c, 10, 16256
3, 91680, Pitch_bend_c, 10, 16256
3, 91680, Pitch_bend_c, 10, 16256
3, 91920, Note_off_c, 10, 64, 80
3, 91920, Pitch_bend_c, 10, 8192
3, 91920, Note_off_c, 10, 52, 80
3, 91920, Pitch_bend_c, 10, 8192
3, 91920, Note_off_c, 10, 52, 80
3, 91920, Pitch_bend_c, 10, 8192
3, 91920, Note_on_c, 8, 64, 95
3, 92400, Note_off_c, 8, 64, 80
3, 92400, Note_on_c, 8, 66, 95
3, 92640, Note_off_c, 8, 66, 80
3, 92640, Note_on_c, 8, 64, 95
3, 93120, Note_off_c, 8, 64, 80
3, 124800, Program_c, 8, 84
3, 124800, Program_c, 10, 84
3, 126480, Note_on_c, 8, 64, 95
3, 126480, Note_on_c, 8, 52, 95
3, 126600, Note_off_c, 8, 64, 80
3, 126600, Note_off_c, 8, 52, 80
3, 126600, Note_on_c, 8, 61, 95
3, 126600, Note_on_c, 8, 49, 95
3, 126720, Note_off_c, 8, 61, 80
3, 126720, Note_off_c, 8, 49, 80
3, 126720, Note_on_c, 8, 64, 95
3, 126720, Note_on_c, 8, 52, 95
3, 126960, Note_off_c, 8, 64, 80
3, 126960, Note_off_c, 8, 52, 80
3, 126960, Note_on_c, 8, 66, 95
3, 126960, Note_on_c, 8, 54, 95
3, 127200, Note_off_c, 8, 66, 80
3, 127200, Note_off_c, 8, 54, 80
3, 127200, Note_on_c, 8, 64, 95
3, 127200, Note_on_c, 8, 52, 95
3, 127440, Note_off_c, 8, 64, 80
3, 127440, Note_off_c, 8, 52, 80
3, 127440, Note_on_c, 8, 64, 95
3, 127440, Note_on_c, 8, 52, 95
3, 127560, Note_off_c, 8, 64, 80
3, 127560, Note_off_c, 8, 52, 80
3, 127560, Note_on_c, 8, 61, 95
3, 127560, Note_on_c, 8, 49, 95
3, 127680, Note_off_c, 8, 61, 80
3, 127680, Note_off_c, 8, 49, 80
3, 127680, Note_on_c, 8, 64, 95
3, 127680, Note_on_c, 8, 52, 95
3, 127920, Note_off_c, 8, 64, 80
3, 127920, Note_off_c, 8, 52, 80
3, 127920, Note_on_c, 8, 66, 95
3, 127920, Note_on_c, 8, 54, 95
3, 128160, Note_off_c, 8, 66, 80
3, 128160, Note_off_c, 8, 54, 80
3, 128160, Note_on_c, 8, 64, 95
3, 128160, Note_on_c, 8, 52, 95
3, 128400, Note_off_c, 8, 64, 80
3, 128400, Note_off_c, 8, 52, 80
3, 128400, Note_on_c, 8, 64, 95
3, 128400, Note_on_c, 8, 52, 95
3, 128520, Note_off_c, 8, 64, 80
3, 128520, Note_off_c, 8, 52, 80
3, 128520, Note_on_c, 8, 61, 95
3, 128520, Note_on_c, 8, 49, 95
3, 128640, Note_off_c, 8, 61, 80
3, 128640, Note_off_c, 8, 49, 80
3, 128640, Note_on_c, 8, 64, 95
3, 128640, Note_on_c, 8, 52, 95
3, 128880, Note_off_c, 8, 64, 80
3, 128880, Note_off_c, 8, 52, 80
3, 128880, Note_on_c, 8, 66, 95
3, 128880, Note_on_c, 8, 54, 95
3, 129120, Note_off_c, 8, 66, 80
3, 129120, Note_off_c, 8, 54, 80
3, 129120, Note_on_c, 8, 64, 95
3, 129120, Note_on_c, 8, 52, 95
3, 129600, Note_off_c, 8, 64, 80
3, 129600, Note_off_c, 8, 52, 80
3, 130320, Note_on_c, 8, 64, 95
3, 130320, Note_on_c, 8, 52, 95
3, 130440, Note_off_c, 8, 64, 80
3, 130440, Note_off_c, 8, 52, 80
3, 130440, Note_on_c, 8, 61, 95
3, 130440, Note_on_c, 8, 49, 95
3, 130560, Note_off_c, 8, 61, 80
3, 130560, Note_off_c, 8, 49, 80
3, 130560, Note_on_c, 8, 64, 95
3, 130560, Note_on_c, 8, 52, 95
3, 130800, Note_off_c, 8, 64, 80
3, 130800, Note_off_c, 8, 52, 80
3, 130800, Note_on_c, 8, 66, 95
3, 130800, Note_on_c, 8, 54, 95
3, 131040, Note_off_c, 8, 66, 80
3, 131040, Note_off_c, 8, 54, 80
3, 131040, Note_on_c, 8, 64, 95
3, 131040, Note_on_c, 8, 52, 95
3, 131280, Note_off_c, 8, 64, 80
3, 131280, Note_off_c, 8, 52, 80
3, 131280, Note_on_c, 8, 64, 95
3, 131280, Note_on_c, 8, 52, 95
3, 131400, Note_off_c, 8, 64, 80
3, 131400, Note_off_c, 8, 52, 80
3, 131400, Note_on_c, 8, 64, 95
3, 131400, Note_on_c, 8, 52, 95
3, 131520, Note_off_c, 8, 64, 80
3, 131520, Note_off_c, 8, 52, 80
3, 131520, Note_on_c, 8, 64, 95
3, 131520, Note_on_c, 8, 52, 95
3, 131760, Note_off_c, 8, 64, 80
3, 131760, Note_off_c, 8, 52, 80
3, 131760, Note_on_c, 8, 64, 95
3, 131760, Note_on_c, 8, 52, 95
3, 132000, Note_off_c, 8, 64, 80
3, 132000, Note_off_c, 8, 52, 80
3, 132000, Note_on_c, 8, 63, 95
3, 132000, Note_on_c, 8, 51, 95
3, 132240, Note_off_c, 8, 63, 80
3, 132240, Note_off_c, 8, 51, 80
3, 132240, Note_on_c, 8, 63, 95
3, 132240, Note_on_c, 8, 51, 95
3, 132360, Note_off_c, 8, 63, 80
3, 132360, Note_off_c, 8, 51, 80
3, 132360, Note_on_c, 8, 63, 95
3, 132360, Note_on_c, 8, 51, 95
3, 132480, Note_off_c, 8, 63, 80
3, 132480, Note_off_c, 8, 51, 80
3, 132480, Note_on_c, 8, 63, 95
3, 132480, Note_on_c, 8, 51, 95
3, 132720, Note_off_c, 8, 63, 80
3, 132720, Note_off_c, 8, 51, 80
3, 132720, Note_on_c, 8, 63, 95
3, 132720, Note_on_c, 8, 51, 95
3, 132960, Note_off_c, 8, 63, 80
3, 132960, Note_off_c, 8, 51, 80
3, 132960, Note_on_c, 8, 64, 95
3, 132960, Note_on_c, 8, 52, 95
3, 133440, Note_off_c, 8, 64, 80
3, 133440, Note_off_c, 8, 52, 80
3, 134160, Note_on_c, 8, 59, 95
3, 134160, Note_on_c, 8, 47, 95
3, 134280, Note_off_c, 8, 59, 80
3, 134280, Note_off_c, 8, 47, 80
3, 134280, Note_on_c, 8, 59, 95
3, 134280, Note_on_c, 8, 47, 95
3, 134400, Note_off_c, 8, 59, 80
3, 134400, Note_off_c, 8, 47, 80
3, 134400, Note_on_c, 8, 59, 95
3, 134400, Note_on_c, 8, 47, 95
3, 134640, Note_off_c, 8, 59, 80
3, 134640, Note_off_c, 8, 47, 80
3, 134640, Note_on_c, 8, 59, 95
3, 134640, Note_on_c, 8, 47, 95
3, 134760, Note_off_c, 8, 59, 80
3, 134760, Note_off_c, 8, 47, 80
3, 134760, Note_on_c, 8, 68, 95
3, 134760, Note_on_c, 8, 56, 95
3, 135120, Note_off_c, 8, 68, 80
3, 135120, Note_off_c, 8, 56, 80
3, 135120, Note_on_c, 8, 68, 95
3, 135120, Note_on_c, 8, 56, 95
3, 135360, Note_off_c, 8, 68, 80
3, 135360, Note_off_c, 8, 56, 80
3, 135360, Note_on_c, 8, 66, 95
3, 135360, Note_on_c, 8, 54, 95
3, 135600, Note_off_c, 8, 66, 80
3, 135600, Note_off_c, 8, 54, 80
3, 135600, Note_on_c, 8, 66, 95
3, 135600, Note_on_c, 8, 54, 95
3, 135840, Note_off_c, 8, 66, 80
3, 135840, Note_off_c, 8, 54, 80
3, 135840, Note_on_c, 8, 64, 95
3, 135840, Note_on_c, 8, 52, 95
3, 136080, Note_off_c, 8, 64, 80
3, 136080, Note_off_c, 8, 52, 80
3, 136080, Note_on_c, 8, 64, 95
3, 136080, Note_on_c, 8, 52, 95
3, 136320, Note_off_c, 8, 64, 80
3, 136320, Note_off_c, 8, 52, 80
3, 136320, Note_on_c, 8, 63, 95
3, 136320, Note_on_c, 8, 51, 95
3, 136560, Note_off_c, 8, 63, 80
3, 136560, Note_off_c, 8, 51, 80
3, 136560, Note_on_c, 8, 63, 95
3, 136560, Note_on_c, 8, 51, 95
3, 136800, Note_off_c, 8, 63, 80
3, 136800, Note_off_c, 8, 51, 80
3, 136800, Note_on_c, 8, 64, 95
3, 136800, Note_on_c, 8, 52, 95
3, 137280, Note_off_c, 8, 64, 80
3, 137280, Note_off_c, 8, 52, 80
3, 138000, Note_on_c, 8, 64, 95
3, 138000, Note_on_c, 8, 52, 95
3, 138240, Note_off_c, 8, 64, 80
3, 138240, Note_off_c, 8, 52, 80
3, 138240, Note_on_c, 8, 64, 95
3, 138240, Note_on_c, 8, 52, 95
3, 138480, Note_off_c, 8, 64, 80
3, 138480, Note_off_c, 8, 52, 80
3, 138480, Note_on_c, 8, 63, 95
3, 138480, Note_on_c, 8, 51, 95
3, 138600, Note_off_c, 8, 63, 80
3, 138600, Note_off_c, 8, 51, 80
3, 138600, Note_on_c, 8, 64, 95
3, 138600, Note_on_c, 8, 52, 95
3, 138960, Note_off_c, 8, 64, 80
3, 138960, Note_off_c, 8, 52, 80
3, 138960, Note_on_c, 8, 64, 95
3, 138960, Note_on_c, 8, 52, 95
3, 139200, Note_off_c, 8, 64, 80
3, 139200, Note_off_c, 8, 52, 80
3, 139200, Note_on_c, 8, 64, 95
3, 139200, Note_on_c, 8, 52, 95
3, 139440, Note_off_c, 8, 64, 80
3, 139440, Note_off_c, 8, 52, 80
3, 139440, Note_on_c, 8, 64, 95
3, 139440, Note_on_c, 8, 52, 95
3, 139680, Note_off_c, 8, 64, 80
3, 139680, Note_off_c, 8, 52, 80
3, 139680, Note_on_c, 8, 63, 95
3, 139680, Note_on_c, 8, 51, 95
3, 139920, Note_off_c, 8, 63, 80
3, 139920, Note_off_c, 8, 51, 80
3, 139920, Note_on_c, 8, 63, 95
3, 139920, Note_on_c, 8, 51, 95
3, 140160, Note_off_c, 8, 63, 80
3, 140160, Note_off_c, 8, 51, 80
3, 140160, Note_on_c, 8, 63, 95
3, 140160, Note_on_c, 8, 51, 95
3, 140400, Note_off_c, 8, 63, 80
3, 140400, Note_off_c, 8, 51, 80
3, 140400, Note_on_c, 8, 63, 95
3, 140400, Note_on_c, 8, 51, 95
3, 140640, Note_off_c, 8, 63, 80
3, 140640, Note_off_c, 8, 51, 80
3, 140640, Note_on_c, 8, 64, 95
3, 140640, Note_on_c, 8, 52, 95
3, 141120, Note_off_c, 8, 64, 80
3, 141120, Note_off_c, 8, 52, 80
3, 144720, Note_on_c, 8, 64, 95
3, 144720, Note_on_c, 8, 52, 95
3, 144840, Note_off_c, 8, 64, 80
3, 144840, Note_off_c, 8, 52, 80
3, 144840, Note_on_c, 8, 64, 95
3, 144840, Note_on_c, 8, 52, 95
3, 144960, Note_off_c, 8, 64, 80
3, 144960, Note_off_c, 8, 52, 80
3, 144960, Note_on_c, 8, 64, 95
3, 144960, Note_on_c, 8, 52, 95
3, 145200, Note_off_c, 8, 64, 80
3, 145200, Note_off_c, 8, 52, 80
3, 145200, Note_on_c, 8, 64, 95
3, 145200, Note_on_c, 8, 52, 95
3, 145440, Note_off_c, 8, 64, 80
3, 145440, Note_off_c, 8, 52, 80
3, 145440, Note_on_c, 8, 64, 95
3, 145440, Note_on_c, 8, 52, 95
3, 145920, Note_off_c, 8, 64, 80
3, 145920, Note_off_c, 8, 52, 80
3, 148560, Note_on_c, 8, 64, 95
3, 148560, Note_on_c, 8, 52, 95
3, 148680, Note_off_c, 8, 64, 80
3, 148680, Note_off_c, 8, 52, 80
3, 148680, Note_on_c, 8, 64, 95
3, 148680, Note_on_c, 8, 52, 95
3, 148800, Note_off_c, 8, 64, 80
3, 148800, Note_off_c, 8, 52, 80
3, 148800, Note_on_c, 8, 64, 95
3, 148800, Note_on_c, 8, 52, 95
3, 149040, Note_off_c, 8, 64, 80
3, 149040, Note_off_c, 8, 52, 80
3, 149040, Note_on_c, 8, 64, 95
3, 149040, Note_on_c, 8, 52, 95
3, 149280, Note_off_c, 8, 64, 80
3, 149280, Note_off_c, 8, 52, 80
3, 149280, Note_on_c, 8, 64, 95
3, 149280, Note_on_c, 8, 52, 95
3, 149760, Note_off_c, 8, 64, 80
3, 149760, Note_off_c, 8, 52, 80
3, 152400, Note_on_c, 8, 64, 95
3, 152400, Note_on_c, 8, 52, 95
3, 152520, Note_off_c, 8, 64, 80
3, 152520, Note_off_c, 8, 52, 80
3, 152520, Note_on_c, 8, 64, 95
3, 152520, Note_on_c, 8, 52, 95
3, 152640, Note_off_c, 8, 64, 80
3, 152640, Note_off_c, 8, 52, 80
3, 152640, Note_on_c, 8, 64, 95
3, 152640, Note_on_c, 8, 52, 95
3, 152880, Note_off_c, 8, 64, 80
3, 152880, Note_off_c, 8, 52, 80
3, 152880, Note_on_c, 8, 64, 95
3, 152880, Note_on_c, 8, 52, 95
3, 153120, Note_off_c, 8, 64, 80
3, 153120, Note_off_c, 8, 52, 80
3, 153120, Note_on_c, 8, 64, 95
3, 153120, Note_on_c, 8, 52, 95
3, 153600, Note_off_c, 8, 64, 80
3, 153600, Note_off_c, 8, 52, 80
3, 156240, Note_on_c, 8, 64, 95
3, 156240, Note_on_c, 8, 52, 95
3, 156360, Note_off_c, 8, 64, 80
3, 156360, Note_off_c, 8, 52, 80
3, 156360, Note_on_c, 8, 64, 95
3, 156360, Note_on_c, 8, 52, 95
3, 156480, Note_off_c, 8, 64, 80
3, 156480, Note_off_c, 8, 52, 80
3, 156480, Note_on_c, 8, 64, 95
3, 156480, Note_on_c, 8, 52, 95
3, 156720, Note_off_c, 8, 64, 80
3, 156720, Note_off_c, 8, 52, 80
3, 156720, Note_on_c, 8, 64, 95
3, 156720, Note_on_c, 8, 52, 95
3, 156960, Note_off_c, 8, 64, 80
3, 156960, Note_off_c, 8, 52, 80
3, 156960, Note_on_c, 8, 64, 95
3, 156960, Note_on_c, 8, 52, 95
3, 157440, Note_off_c, 8, 64, 80
3, 157440, Note_off_c, 8, 52, 80
3, 160080, Note_on_c, 8, 64, 95
3, 160080, Note_on_c, 8, 52, 95
3, 160200, Note_off_c, 8, 64, 80
3, 160200, Note_off_c, 8, 52, 80
3, 160200, Note_on_c, 8, 64, 95
3, 160200, Note_on_c, 8, 52, 95
3, 160320, Note_off_c, 8, 64, 80
3, 160320, Note_off_c, 8, 52, 80
3, 160320, Note_on_c, 8, 64, 95
3, 160320, Note_on_c, 8, 52, 95
3, 160560, Note_off_c, 8, 64, 80
3, 160560, Note_off_c, 8, 52, 80
3, 160560, Note_on_c, 8, 64, 95
3, 160560, Note_on_c, 8, 52, 95
3, 160800, Note_off_c, 8, 64, 80
3, 160800, Note_off_c, 8, 52, 80
3, 160800, Note_on_c, 8, 64, 95
3, 160800, Note_on_c, 8, 52, 95
3, 161280, Note_off_c, 8, 64, 80
3, 161280, Note_off_c, 8, 52, 80
3, 161280, End_track
4, 0, Start_track
4, 0, Title_t, "Lead Guitar (Nick)"
4, 0, Control_c, 1, 100, 0
4, 0, Control_c, 1, 101, 0
4, 0, Control_c, 1, 6, 12
4, 0, Pitch_bend_c, 1, 8192
4, 0, Control_c, 1, 101, 0
4, 0, Control_c, 1, 100, 1
4, 0, Control_c, 1, 6, 64
4, 0, Control_c, 1, 38, 0
4, 0, Control_c, 1, 101, 127
4, 0, Control_c, 1, 100, 127
4, 0, Control_c, 0, 100, 0
4, 0, Control_c, 0, 101, 0
4, 0, Control_c, 0, 6, 12
4, 0, Pitch_bend_c, 0, 8192
4, 0, Control_c, 0, 101, 0
4, 0, Control_c, 0, 100, 1
4, 0, Control_c, 0, 6, 64
4, 0, Control_c, 0, 38, 0
4, 0, Control_c, 0, 101, 127
4, 0, Control_c, 0, 100, 127
4, 0, Control_c, 1, 101, 0
4, 0, Control_c, 1, 100, 2
4, 0, Control_c, 1, 6, 64
4, 0, Control_c, 1, 101, 127
4, 0, Control_c, 1, 100, 127
4, 0, Control_c, 0, 101, 0
4, 0, Control_c, 0, 100, 2
4, 0, Control_c, 0, 6, 64
4, 0, Control_c, 0, 101, 127
4, 0, Control_c, 0, 100, 127
4, 0, Program_c, 1, 30
4, 0, Program_c, 0, 30
4, 0, Control_c, 1, 0, 0
4, 0, Control_c, 0, 0, 0
4, 0, Control_c, 1, 7, 112
4, 0, Control_c, 0, 7, 112
4, 0, Control_c, 1, 10, 64
4, 0, Control_c, 0, 10, 64
4, 0, Control_c, 1, 93, 0
4, 0, Control_c, 0, 93, 0
4, 0, Control_c, 1, 91, 0
4, 0, Control_c, 0, 91, 0
4, 0, Control_c, 1, 92, 0
4, 0, Control_c, 0, 92, 0
4, 0, Control_c, 1, 95, 0
4, 0, Control_c, 0, 95, 0
4, 0, Control_c, 0, 7, 56
4, 0, Control_c, 1, 7, 56
4, 0, Control_c, 0, 7, 4
4, 0, Control_c, 1, 7, 4
4, 0, Note_on_c, 0, 64, 95
4, 0, Note_on_c, 0, 59, 95
4, 0, Note_on_c, 0, 52, 95
4, 120, Control_c, 0, 7, 9
4, 120, Control_c, 1, 7, 9
4, 240, Control_c, 0, 7, 13
4, 240, Control_c, 1, 7, 13
4, 360, Control_c, 0, 7, 17
4, 360, Control_c, 1, 7, 17
4, 480, Control_c, 0, 7, 22
4, 480, Control_c, 1, 7, 22
4, 600, Control_c, 0, 7, 26
4, 600, Control_c, 1, 7, 26
4, 720, Control_c, 0, 7, 30
4, 720, Control_c, 1, 7, 30
4, 840, Control_c, 0, 7, 34
4, 840, Control_c, 1, 7, 34
4, 960, Control_c, 0, 7, 39
4, 960, Control_c, 1, 7, 39
4, 1080, Control_c, 0, 7, 43
4, 1080, Control_c, 1, 7, 43
4, 1200, Control_c, 0, 7, 47
4, 1200, Control_c, 1, 7, 47
4, 1320, Control_c, 0, 7, 52
4, 1320, Control_c, 1, 7, 52
4, 1440, Control_c, 0, 7, 56
4, 1440, Control_c, 1, 7, 56
4, 2400, Note_off_c, 0, 64, 80
4, 2400, Note_off_c, 0, 59, 80
4, 2400, Note_off_c, 0, 52, 80
4, 32400, Control_c, 0, 7, 127
4, 32400, Control_c, 1, 7, 127
4, 32400, Note_on_c, 0, 45, 95
4, 32640, Note_off_c, 0, 45, 80
4, 32640, Note_on_c, 0, 44, 95
4, 32880, Note_off_c, 0, 44, 80
4, 32880, Note_on_c, 0, 42, 95
4, 33120, Note_off_c, 0, 42, 80
4, 40080, Note_on_c, 0, 45, 95
4, 40320, Note_off_c, 0, 45, 80
4, 40320, Note_on_c, 0, 44, 95
4, 40560, Note_off_c, 0, 44, 80
4, 40560, Note_on_c, 0, 42, 95
4, 40800, Note_off_c, 0, 42, 80
4, 53760, Control_c, 0, 7, 112
4, 53760, Control_c, 1, 7, 112
4, 54240, Note_on_c, 0, 40, 95
4, 54480, Note_on_c, 0, 52, 95
4, 54720, Note_off_c, 0, 52, 80
4, 54720, Note_on_c, 0, 56, 95
4, 54960, Note_off_c, 0, 56, 80
4, 54960, Note_on_c, 0, 64, 95
4, 54960, Note_on_c, 0, 61, 95
4, 56160, Note_off_c, 0, 40, 80
4, 56160, Note_off_c, 0, 64, 80
4, 56160, Note_off_c, 0, 61, 80
4, 56160, Note_on_c, 0, 64, 95
4, 56160, Note_on_c, 0, 59, 95
4, 56160, Note_on_c, 0, 56, 95
4, 56160, Note_on_c, 0, 52, 95
4, 56160, Note_on_c, 0, 47, 95
4, 56160, Note_on_c, 0, 40, 95
4, 56400, Note_off_c, 0, 64, 80
4, 56400, Note_off_c, 0, 59, 80
4, 56400, Note_off_c, 0, 56, 80
4, 56400, Note_off_c, 0, 52, 80
4, 56400, Note_off_c, 0, 47, 80
4, 56400, Note_off_c, 0, 40, 80
4, 56400, Note_on_c, 0, 64, 95
4, 56400, Note_on_c, 0, 59, 95
4, 56400, Note_on_c, 0, 56, 95
4, 56400, Note_on_c, 0, 52, 95
4, 56400, Note_on_c, 0, 47, 95
4, 56400, Note_on_c, 0, 40, 95
4, 56640, Note_off_c, 0, 64, 80
4, 56640, Note_off_c, 0, 59, 80
4, 56640, Note_off_c, 0, 56, 80
4, 56640, Note_off_c, 0, 52, 80
4, 56640, Note_off_c, 0, 47, 80
4, 56640, Note_off_c, 0, 40, 80
4, 57120, Note_on_c, 0, 64, 95
4, 57120, Note_on_c, 0, 61, 95
4, 57120, Note_on_c, 0, 56, 95
4, 57120, Note_on_c, 0, 49, 95
4, 57360, Note_off_c, 0, 64, 80
4, 57360, Note_off_c, 0, 61, 80
4, 57360, Note_off_c, 0, 56, 80
4, 57360, Note_off_c, 0, 49, 80
4, 57360, Note_on_c, 0, 64, 95
4, 57360, Note_on_c, 0, 61, 95
4, 57360, Note_on_c, 0, 56, 95
4, 57360, Note_on_c, 0, 49, 95
4, 57600, Note_off_c, 0, 64, 80
4, 57600, Note_off_c, 0, 61, 80
4, 57600, Note_off_c, 0, 56, 80
4, 57600, Note_off_c, 0, 49, 80
4, 58080, Note_on_c, 0, 61, 95
4, 58080, Note_on_c, 0, 57, 95
4, 58080, Note_on_c, 0, 52, 95
4, 58080, Note_on_c, 0, 45, 95
4, 58320, Note_off_c, 0, 61, 80
4, 58320, Note_off_c, 0, 57, 80
4, 58320, Note_off_c, 0, 52, 80
4, 58320, Note_off_c, 0, 45, 80
4, 58320, Note_on_c, 0, 61, 95
4, 58320, Note_on_c, 0, 57, 95
4, 58320, Note_on_c, 0, 52, 95
4, 58320, Note_on_c, 0, 45, 95
4, 58560, Note_off_c, 0, 61, 80
4, 58560, Note_off_c, 0, 57, 80
4, 58560, Note_off_c, 0, 52, 80
4, 58560, Note_off_c, 0, 45, 80
4, 59040, Note_on_c, 0, 61, 95
4, 59040, Note_on_c, 0, 57, 95
4, 59040, Note_on_c, 0, 52, 95
4, 59040, Note_on_c, 0, 45, 95
4, 59280, Note_off_c, 0, 61, 80
4, 59280, Note_off_c, 0, 57, 80
4, 59280, Note_off_c, 0, 52, 80
4, 59280, Note_off_c, 0, 45, 80
4, 59280, Note_on_c, 0, 61, 95
4, 59280, Note_on_c, 0, 57, 95
4, 59280, Note_on_c, 0, 52, 95
4, 59280, Note_on_c, 0, 45, 95
4, 59520, Note_off_c, 0, 61, 80
4, 59520, Note_off_c, 0, 57, 80
4, 59520, Note_off_c, 0, 52, 80
4, 59520, Note_off_c, 0, 45, 80
4, 60000, Note_on_c, 0, 64, 95
4, 60000, Note_on_c, 0, 59, 95
4, 60000, Note_on_c, 0, 56, 95
4, 60000, Note_on_c, 0, 52, 95
4, 60000, Note_on_c, 0, 47, 95
4, 60000, Note_on_c, 0, 40, 95
4, 60240, Note_off_c, 0, 64, 80
4, 60240, Note_off_c, 0, 59, 80
4, 60240, Note_off_c, 0, 56, 80
4, 60240, Note_off_c, 0, 52, 80
4, 60240, Note_off_c, 0, 47, 80
4, 60240, Note_off_c, 0, 40, 80
4, 60240, Note_on_c, 0, 64, 95
4, 60240, Note_on_c, 0, 59, 95
4, 60240, Note_on_c, 0, 56, 95
4, 60240, Note_on_c, 0, 52, 95
4, 60240, Note_on_c, 0, 47, 95
4, 60240, Note_on_c, 0, 40, 95
4, 60480, Note_off_c, 0, 64, 80
4, 60480, Note_off_c, 0, 59, 80
4, 60480, Note_off_c, 0, 56, 80
4, 60480, Note_off_c, 0, 52, 80
4, 60480, Note_off_c, 0, 47, 80
4, 60480, Note_off_c, 0, 40, 80
4, 60960, Note_on_c, 0, 64, 95
4, 60960, Note_on_c, 0, 61, 95
4, 60960, Note_on_c, 0, 56, 95
4, 60960, Note_on_c, 0, 49, 95
4, 61200, Note_off_c, 0, 64, 80
4, 61200, Note_off_c, 0, 61, 80
4, 61200, Note_off_c, 0, 56, 80
4, 61200, Note_off_c, 0, 49, 80
4, 61200, Note_on_c, 0, 64, 95
4, 61200, Note_on_c, 0, 61, 95
4, 61200, Note_on_c, 0, 56, 95
4, 61200, Note_on_c, 0, 49, 95
4, 61440, Note_off_c, 0, 64, 80
4, 61440, Note_off_c, 0, 61, 80
4, 61440, Note_off_c, 0, 56, 80
4, 61440, Note_off_c, 0, 49, 80
4, 61920, Note_on_c, 0, 61, 95
4, 61920, Note_on_c, 0, 57, 95
4, 61920, Note_on_c, 0, 52, 95
4, 61920, Note_on_c, 0, 45, 95
4, 62160, Note_off_c, 0, 61, 80
4, 62160, Note_off_c, 0, 57, 80
4, 62160, Note_off_c, 0, 52, 80
4, 62160, Note_off_c, 0, 45, 80
4, 62160, Note_on_c, 0, 61, 95
4, 62160, Note_on_c, 0, 57, 95
4, 62160, Note_on_c, 0, 52, 95
4, 62160, Note_on_c, 0, 45, 95
4, 62400, Note_off_c, 0, 61, 80
4, 62400, Note_off_c, 0, 57, 80
4, 62400, Note_off_c, 0, 52, 80
4, 62400, Note_off_c, 0, 45, 80
4, 62880, Note_on_c, 0, 61, 95
4, 62880, Note_on_c, 0, 57, 95
4, 62880, Note_on_c, 0, 52, 95
4, 62880, Note_on_c, 0, 45, 95
4, 63120, Note_off_c, 0, 61, 80
4, 63120, Note_off_c, 0, 57, 80
4, 63120, Note_off_c, 0, 52, 80
4, 63120, Note_off_c, 0, 45, 80
4, 63120, Note_on_c, 0, 61, 95
4, 63120, Note_on_c, 0, 57, 95
4, 63120, Note_on_c, 0, 52, 95
4, 63120, Note_on_c, 0, 45, 95
4, 63360, Note_off_c, 0, 61, 80
4, 63360, Note_off_c, 0, 57, 80
4, 63360, Note_off_c, 0, 52, 80
4, 63360, Note_off_c, 0, 45, 80
4, 63840, Note_on_c, 0, 64, 95
4, 63840, Note_on_c, 0, 59, 95
4, 63840, Note_on_c, 0, 56, 95
4, 63840, Note_on_c, 0, 52, 95
4, 63840, Note_on_c, 0, 47, 95
4, 63840, Note_on_c, 0, 40, 95
4, 64080, Note_off_c, 0, 64, 80
4, 64080, Note_off_c, 0, 59, 80
4, 64080, Note_off_c, 0, 56, 80
4, 64080, Note_off_c, 0, 52, 80
4, 64080, Note_off_c, 0, 47, 80
4, 64080, Note_off_c, 0, 40, 80
4, 64080, Note_on_c, 0, 64, 95
4, 64080, Note_on_c, 0, 59, 95
4, 64080, Note_on_c, 0, 56, 95
4, 64080, Note_on_c, 0, 52, 95
4, 64080, Note_on_c, 0, 47, 95
4, 64080, Note_on_c, 0, 40, 95
4, 64320, Note_off_c, 0, 64, 80
4, 64320, Note_off_c, 0, 59, 80
4, 64320, Note_off_c, 0, 56, 80
4, 64320, Note_off_c, 0, 52, 80
4, 64320, Note_off_c, 0, 47, 80
4, 64320, Note_off_c, 0, 40, 80
4, 64800, Note_on_c, 0, 64, 95
4, 64800, Note_on_c, 0, 61, 95
4, 64800, Note_on_c, 0, 56, 95
4, 64800, Note_on_c, 0, 49, 95
4, 65040, Note_off_c, 0, 64, 80
4, 65040, Note_off_c, 0, 61, 80
4, 65040, Note_off_c, 0, 56, 80
4, 65040, Note_off_c, 0, 49, 80
4, 65040, Note_on_c, 0, 64, 95
4, 65040, Note_on_c, 0, 61, 95
4, 65040, Note_on_c, 0, 56, 95
4, 65040, Note_on_c, 0, 49, 95
4, 65280, Note_off_c, 0, 64, 80
4, 65280, Note_off_c, 0, 61, 80
4, 65280, Note_off_c, 0, 56, 80
4, 65280, Note_off_c, 0, 49, 80
4, 65760, Note_on_c, 0, 61, 95
4, 65760, Note_on_c, 0, 57, 95
4, 65760, Note_on_c, 0, 52, 95
4, 65760, Note_on_c, 0, 45, 95
4, 66000, Note_off_c, 0, 61, 80
4, 66000, Note_off_c, 0, 57, 80
4, 66000, Note_off_c, 0, 52, 80
4, 66000, Note_off_c, 0, 45, 80
4, 66000, Note_on_c, 0, 61, 95
4, 66000, Note_on_c, 0, 57, 95
4, 66000, Note_on_c, 0, 52, 95
4, 66000, Note_on_c, 0, 45, 95
4, 66240, Note_off_c, 0, 61, 80
4, 66240, Note_off_c, 0, 57, 80
4, 66240, Note_off_c, 0, 52, 80
4, 66240, Note_off_c, 0, 45, 80
4, 66720, Note_on_c, 0, 61, 95
4, 66720, Note_on_c, 0, 57, 95
4, 66720, Note_on_c, 0, 52, 95
4, 66720, Note_on_c, 0, 45, 95
4, 66960, Note_off_c, 0, 61, 80
4, 66960, Note_off_c, 0, 57, 80
4, 66960, Note_off_c, 0, 52, 80
4, 66960, Note_off_c, 0, 45, 80
4, 66960, Note_on_c, 0, 61, 95
4, 66960, Note_on_c, 0, 57, 95
4, 66960, Note_on_c, 0, 52, 95
4, 66960, Note_on_c, 0, 45, 95
4, 67200, Note_off_c, 0, 61, 80
4, 67200, Note_off_c, 0, 57, 80
4, 67200, Note_off_c, 0, 52, 80
4, 67200, Note_off_c, 0, 45, 80
4, 67680, Note_on_c, 0, 64, 95
4, 67680, Note_on_c, 0, 59, 95
4, 67680, Note_on_c, 0, 56, 95
4, 67680, Note_on_c, 0, 52, 95
4, 67680, Note_on_c, 0, 47, 95
4, 67680, Note_on_c, 0, 40, 95
4, 67920, Note_off_c, 0, 64, 80
4, 67920, Note_off_c, 0, 59, 80
4, 67920, Note_off_c, 0, 56, 80
4, 67920, Note_off_c, 0, 52, 80
4, 67920, Note_off_c, 0, 47, 80
4, 67920, Note_off_c, 0, 40, 80
4, 67920, Note_on_c, 0, 64, 95
4, 67920, Note_on_c, 0, 59, 95
4, 67920, Note_on_c, 0, 56, 95
4, 67920, Note_on_c, 0, 52, 95
4, 67920, Note_on_c, 0, 47, 95
4, 67920, Note_on_c, 0, 40, 95
4, 68160, Note_off_c, 0, 64, 80
4, 68160, Note_off_c, 0, 59, 80
4, 68160, Note_off_c, 0, 56, 80
4, 68160, Note_off_c, 0, 52, 80
4, 68160, Note_off_c, 0, 47, 80
4, 68160, Note_off_c, 0, 40, 80
4, 68640, Note_on_c, 0, 64, 95
4, 68640, Note_on_c, 0, 61, 95
4, 68640, Note_on_c, 0, 56, 95
4, 68640, Note_on_c, 0, 49, 95
4, 68880, Note_off_c, 0, 64, 80
4, 68880, Note_off_c, 0, 61, 80
4, 68880, Note_off_c, 0, 56, 80
4, 68880, Note_off_c, 0, 49, 80
4, 68880, Note_on_c, 0, 64, 95
4, 68880, Note_on_c, 0, 61, 95
4, 68880, Note_on_c, 0, 56, 95
4, 68880, Note_on_c, 0, 49, 95
4, 69120, Note_off_c, 0, 64, 80
4, 69120, Note_off_c, 0, 61, 80
4, 69120, Note_off_c, 0, 56, 80
4, 69120, Note_off_c, 0, 49, 80
4, 69600, Note_on_c, 0, 61, 95
4, 69600, Note_on_c, 0, 57, 95
4, 69600, Note_on_c, 0, 52, 95
4, 69600, Note_on_c, 0, 45, 95
4, 69840, Note_off_c, 0, 61, 80
4, 69840, Note_off_c, 0, 57, 80
4, 69840, Note_off_c, 0, 52, 80
4, 69840, Note_off_c, 0, 45, 80
4, 69840, Note_on_c, 0, 61, 95
4, 69840, Note_on_c, 0, 57, 95
4, 69840, Note_on_c, 0, 52, 95
4, 69840, Note_on_c, 0, 45, 95
4, 70080, Note_off_c, 0, 61, 80
4, 70080, Note_off_c, 0, 57, 80
4, 70080, Note_off_c, 0, 52, 80
4, 70080, Note_off_c, 0, 45, 80
4, 70560, Note_on_c, 0, 61, 95
4, 70560, Note_on_c, 0, 57, 95
4, 70560, Note_on_c, 0, 52, 95
4, 70560, Note_on_c, 0, 45, 95
4, 70800, Note_off_c, 0, 61, 80
4, 70800, Note_off_c, 0, 57, 80
4, 70800, Note_off_c, 0, 52, 80
4, 70800, Note_off_c, 0, 45, 80
4, 70800, Note_on_c, 0, 61, 95
4, 70800, Note_on_c, 0, 57, 95
4, 70800, Note_on_c, 0, 52, 95
4, 70800, Note_on_c, 0, 45, 95
4, 71040, Note_off_c, 0, 61, 80
4, 71040, Note_off_c, 0, 57, 80
4, 71040, Note_off_c, 0, 52, 80
4, 71040, Note_off_c, 0, 45, 80
4, 71760, Note_on_c, 1, 71, 95
4, 71760, Pitch_bend_c, 1, 9600
4, 71888, Pitch_bend_c, 1, 9472
4, 71904, Pitch_bend_c, 1, 9344
4, 71920, Pitch_bend_c, 1, 8960
4, 71936, Pitch_bend_c, 1, 8704
4, 71952, Pitch_bend_c, 1, 8448
4, 71968, Pitch_bend_c, 1, 8320
4, 71984, Pitch_bend_c, 1, 8192
4, 72240, Note_off_c, 1, 71, 80
4, 72240, Pitch_bend_c, 1, 8192
4, 72240, Note_on_c, 0, 68, 95
4, 72480, Note_off_c, 0, 68, 80
4, 72480, Note_on_c, 0, 69, 76
4, 72720, Note_off_c, 0, 69, 80
4, 72720, Note_on_c, 0, 68, 76
4, 72960, Note_off_c, 0, 68, 80
4, 72960, Note_on_c, 0, 66, 95
4, 73200, Note_off_c, 0, 66, 80
4, 73200, Note_on_c, 1, 60, 95
4, 73200, Pitch_bend_c, 1, 8192
4, 73840, Pitch_bend_c, 1, 8320
4, 74096, Pitch_bend_c, 1, 8448
4, 74192, Pitch_bend_c, 1, 8576
4, 74336, Pitch_bend_c, 1, 8704
4, 74448, Pitch_bend_c, 1, 8832
4, 75360, Note_off_c, 1, 60, 80
4, 75360, Pitch_bend_c, 1, 8192
4, 75600, Note_on_c, 1, 71, 95
4, 75600, Pitch_bend_c, 1, 9600
4, 75728, Pitch_bend_c, 1, 9472
4, 75744, Pitch_bend_c, 1, 9344
4, 75760, Pitch_bend_c, 1, 8960
4, 75776, Pitch_bend_c, 1, 8704
4, 75792, Pitch_bend_c, 1, 8448
4, 75808, Pitch_bend_c, 1, 8320
4, 75824, Pitch_bend_c, 1, 8192
4, 76080, Note_off_c, 1, 71, 80
4, 76080, Pitch_bend_c, 1, 8192
4, 76080, Note_on_c, 0, 68, 95
4, 76320, Note_off_c, 0, 68, 80
4, 76320, Note_on_c, 0, 69, 95
4, 76560, Note_off_c, 0, 69, 80
4, 76560, Note_on_c, 0, 68, 95
4, 76800, Note_off_c, 0, 68, 80
4, 76800, Note_on_c, 0, 66, 95
4, 77040, Note_off_c, 0, 66, 80
4, 77040, Note_on_c, 0, 71, 95
4, 78480, Note_off_c, 0, 71, 80
4, 78480, Note_on_c, 1, 71, 95
4, 78534, Pitch_bend_c, 1, 8832
4, 78540, Pitch_bend_c, 1, 9600
4, 78660, Note_off_c, 1, 71, 80
4, 78660, Pitch_bend_c, 1, 8192
4, 78720, Note_on_c, 0, 71, 95
4, 79200, Note_off_c, 0, 71, 80
4, 79200, Program_c, 0, 27
4, 79200, Program_c, 1, 27
4, 79200, Note_on_c, 0, 59, 95
4, 79440, Note_off_c, 0, 59, 80
4, 79440, Note_on_c, 0, 64, 95
4, 79680, Note_off_c, 0, 64, 80
4, 79680, Note_on_c, 0, 59, 95
4, 79920, Note_off_c, 0, 59, 80
4, 79920, Note_on_c, 0, 68, 95
4, 80640, Note_off_c, 0, 68, 80
4, 81120, Note_on_c, 0, 59, 95
4, 81360, Note_off_c, 0, 59, 80
4, 81360, Note_on_c, 0, 64, 95
4, 81600, Note_off_c, 0, 64, 80
4, 81600, Note_on_c, 0, 59, 95
4, 81840, Note_off_c, 0, 59, 80
4, 81840, Note_on_c, 0, 69, 95
4, 82560, Note_off_c, 0, 69, 80
4, 83040, Note_on_c, 0, 59, 95
4, 83280, Note_off_c, 0, 59, 80
4, 83280, Note_on_c, 0, 64, 95
4, 83520, Note_off_c, 0, 64, 80
4, 83520, Note_on_c, 0, 59, 95
4, 83760, Note_off_c, 0, 59, 80
4, 83760, Note_on_c, 0, 68, 95
4, 84480, Note_off_c, 0, 68, 80
4, 84960, Note_on_c, 0, 57, 95
4, 85200, Note_off_c, 0, 57, 80
4, 85200, Note_on_c, 0, 61, 95
4, 85440, Note_off_c, 0, 61, 80
4, 85440, Note_on_c, 0, 57, 95
4, 85680, Note_off_c, 0, 57, 80
4, 85680, Note_on_c, 0, 64, 95
4, 86400, Note_off_c, 0, 64, 80
4, 92160, Program_c, 0, 30
4, 92160, Program_c, 1, 30
4, 92160, Control_c, 0, 7, 112
4, 92160, Control_c, 1, 7, 112
4, 92640, Note_on_c, 0, 40, 95
4, 92880, Note_on_c, 0, 52, 95
4, 93120, Note_off_c, 0, 52, 80
4, 93120, Note_on_c, 0, 56, 95
4, 93360, Note_off_c, 0, 56, 80
4, 93360, Note_on_c, 0, 64, 95
4, 93360, Note_on_c, 0, 61, 95
4, 94560, Note_off_c, 0, 40, 80
4, 94560, Note_off_c, 0, 64, 80
4, 94560, Note_off_c, 0, 61, 80
4, 94560, Note_on_c, 0, 64, 95
4, 94560, Note_on_c, 0, 59, 95
4, 94560, Note_on_c, 0, 56, 95
4, 94560, Note_on_c, 0, 52, 95
4, 94560, Note_on_c, 0, 47, 95
4, 94560, Note_on_c, 0, 40, 95
4, 94800, Note_off_c, 0, 64, 80
4, 94800, Note_off_c, 0, 59, 80
4, 94800, Note_off_c, 0, 56, 80
4, 94800, Note_off_c, 0, 52, 80
4, 94800, Note_off_c, 0, 47, 80
4, 94800, Note_off_c, 0, 40, 80
4, 94800, Note_on_c, 0, 64, 95
4, 94800, Note_on_c, 0, 59, 95
4, 94800, Note_on_c, 0, 56, 95
4, 94800, Note_on_c, 0, 52, 95
4, 94800, Note_on_c, 0, 47, 95
4, 94800, Note_on_c, 0, 40, 95
4, 95040, Note_off_c, 0, 64, 80
4, 95040, Note_off_c, 0, 59, 80
4, 95040, Note_off_c, 0, 56, 80
4, 95040, Note_off_c, 0, 52, 80
4, 95040, Note_off_c, 0, 47, 80
4, 95040, Note_off_c, 0, 40, 80
4, 95520, Note_on_c, 0, 64, 95
4, 95520, Note_on_c, 0, 61, 95
4, 95520, Note_on_c, 0, 56, 95
4, 95520, Note_on_c, 0, 49, 95
4, 95760, Note_off_c, 0, 64, 80
4, 95760, Note_off_c, 0, 61, 80
4, 95760, Note_off_c, 0, 56, 80
4, 95760, Note_off_c, 0, 49, 80
4, 95760, Note_on_c, 0, 64, 95
4, 95760, Note_on_c, 0, 61, 95
4, 95760, Note_on_c, 0, 56, 95
4, 95760, Note_on_c, 0, 49, 95
4, 96000, Note_off_c, 0, 64, 80
4, 96000, Note_off_c, 0, 61, 80
4, 96000, Note_off_c, 0, 56, 80
4, 96000, Note_off_c, 0, 49, 80
4, 96480, Note_on_c, 0, 61, 95
4, 96480, Note_on_c, 0, 57, 95
4, 96480, Note_on_c, 0, 52, 95
4, 96480, Note_on_c, 0, 45, 95
4, 96720, Note_off_c, 0, 61, 80
4, 96720, Note_off_c, 0, 57, 80
4, 96720, Note_off_c, 0, 52, 80
4, 96720, Note_off_c, 0, 45, 80
4, 96720, Note_on_c, 0, 61, 95
4, 96720, Note_on_c, 0, 57, 95
4, 96720, Note_on_c, 0, 52, 95
4, 96720, Note_on_c, 0, 45, 95
4, 96960, Note_off_c, 0, 61, 80
4, 96960, Note_off_c, 0, 57, 80
4, 96960, Note_off_c, 0, 52, 80
4, 96960, Note_off_c, 0, 45, 80
4, 97440, Note_on_c, 0, 61, 95
4, 97440, Note_on_c, 0, 57, 95
4, 97440, Note_on_c, 0, 52, 95
4, 97440, Note_on_c, 0, 45, 95
4, 97680, Note_off_c, 0, 61, 80
4, 97680, Note_off_c, 0, 57, 80
4, 97680, Note_off_c, 0, 52, 80
4, 97680, Note_off_c, 0, 45, 80
4, 97680, Note_on_c, 0, 61, 95
4, 97680, Note_on_c, 0, 57, 95
4, 97680, Note_on_c, 0, 52, 95
4, 97680, Note_on_c, 0, 45, 95
4, 97920, Note_off_c, 0, 61, 80
4, 97920, Note_off_c, 0, 57, 80
4, 97920, Note_off_c, 0, 52, 80
4, 97920, Note_off_c, 0, 45, 80
4, 98400, Note_on_c, 0, 64, 95
4, 98400, Note_on_c, 0, 59, 95
4, 98400, Note_on_c, 0, 56, 95
4, 98400, Note_on_c, 0, 52, 95
4, 98400, Note_on_c, 0, 47, 95
4, 98400, Note_on_c, 0, 40, 95
4, 98640, Note_off_c, 0, 64, 80
4, 98640, Note_off_c, 0, 59, 80
4, 98640, Note_off_c, 0, 56, 80
4, 98640, Note_off_c, 0, 52, 80
4, 98640, Note_off_c, 0, 47, 80
4, 98640, Note_off_c, 0, 40, 80
4, 98640, Note_on_c, 0, 64, 95
4, 98640, Note_on_c, 0, 59, 95
4, 98640, Note_on_c, 0, 56, 95
4, 98640, Note_on_c, 0, 52, 95
4, 98640, Note_on_c, 0, 47, 95
4, 98640, Note_on_c, 0, 40, 95
4, 98880, Note_off_c, 0, 64, 80
4, 98880, Note_off_c, 0, 59, 80
4, 98880, Note_off_c, 0, 56, 80
4, 98880, Note_off_c, 0, 52, 80
4, 98880, Note_off_c, 0, 47, 80
4, 98880, Note_off_c, 0, 40, 80
4, 99360, Note_on_c, 0, 64, 95
4, 99360, Note_on_c, 0, 61, 95
4, 99360, Note_on_c, 0, 56, 95
4, 99360, Note_on_c, 0, 49, 95
4, 99600, Note_off_c, 0, 64, 80
4, 99600, Note_off_c, 0, 61, 80
4, 99600, Note_off_c, 0, 56, 80
4, 99600, Note_off_c, 0, 49, 80
4, 99600, Note_on_c, 0, 64, 95
4, 99600, Note_on_c, 0, 61, 95
4, 99600, Note_on_c, 0, 56, 95
4, 99600, Note_on_c, 0, 49, 95
4, 99840, Note_off_c, 0, 64, 80
4, 99840, Note_off_c, 0, 61, 80
4, 99840, Note_off_c, 0, 56, 80
4, 99840, Note_off_c, 0, 49, 80
4, 100320, Note_on_c, 0, 61, 95
4, 100320, Note_on_c, 0, 57, 95
4, 100320, Note_on_c, 0, 52, 95
4, 100320, Note_on_c, 0, 45, 95
4, 100560, Note_off_c, 0, 61, 80
4, 100560, Note_off_c, 0, 57, 80
4, 100560, Note_off_c, 0, 52, 80
4, 100560, Note_off_c, 0, 45, 80
4, 100560, Note_on_c, 0, 61, 95
4, 100560, Note_on_c, 0, 57, 95
4, 100560, Note_on_c, 0, 52, 95
4, 100560, Note_on_c, 0, 45, 95
4, 100800, Note_off_c, 0, 61, 80
4, 100800, Note_off_c, 0, 57, 80
4, 100800, Note_off_c, 0, 52, 80
4, 100800, Note_off_c, 0, 45, 80
4, 101280, Note_on_c, 0, 61, 95
4, 101280, Note_on_c, 0, 57, 95
4, 101280, Note_on_c, 0, 52, 95
4, 101280, Note_on_c, 0, 45, 95
4, 101520, Note_off_c, 0, 61, 80
4, 101520, Note_off_c, 0, 57, 80
4, 101520, Note_off_c, 0, 52, 80
4, 101520, Note_off_c, 0, 45, 80
4, 101520, Note_on_c, 0, 61, 95
4, 101520, Note_on_c, 0, 57, 95
4, 101520, Note_on_c, 0, 52, 95
4, 101520, Note_on_c, 0, 45, 95
4, 101760, Note_off_c, 0, 61, 80
4, 101760, Note_off_c, 0, 57, 80
4, 101760, Note_off_c, 0, 52, 80
4, 101760, Note_off_c, 0, 45, 80
4, 102240, Note_on_c, 0, 64, 95
4, 102240, Note_on_c, 0, 59, 95
4, 102240, Note_on_c, 0, 56, 95
4, 102240, Note_on_c, 0, 52, 95
4, 102240, Note_on_c, 0, 47, 95
4, 102240, Note_on_c, 0, 40, 95
4, 102480, Note_off_c, 0, 64, 80
4, 102480, Note_off_c, 0, 59, 80
4, 102480, Note_off_c, 0, 56, 80
4, 102480, Note_off_c, 0, 52, 80
4, 102480, Note_off_c, 0, 47, 80
4, 102480, Note_off_c, 0, 40, 80
4, 102480, Note_on_c, 0, 64, 95
4, 102480, Note_on_c, 0, 59, 95
4, 102480, Note_on_c, 0, 56, 95
4, 102480, Note_on_c, 0, 52, 95
4, 102480, Note_on_c, 0, 47, 95
4, 102480, Note_on_c, 0, 40, 95
4, 102720, Note_off_c, 0, 64, 80
4, 102720, Note_off_c, 0, 59, 80
4, 102720, Note_off_c, 0, 56, 80
4, 102720, Note_off_c, 0, 52, 80
4, 102720, Note_off_c, 0, 47, 80
4, 102720, Note_off_c, 0, 40, 80
4, 103200, Note_on_c, 0, 64, 95
4, 103200, Note_on_c, 0, 61, 95
4, 103200, Note_on_c, 0, 56, 95
4, 103200, Note_on_c, 0, 49, 95
4, 103440, Note_off_c, 0, 64, 80
4, 103440, Note_off_c, 0, 61, 80
4, 103440, Note_off_c, 0, 56, 80
4, 103440, Note_off_c, 0, 49, 80
4, 103440, Note_on_c, 0, 64, 95
4, 103440, Note_on_c, 0, 61, 95
4, 103440, Note_on_c, 0, 56, 95
4, 103440, Note_on_c, 0, 49, 95
4, 103680, Note_off_c, 0, 64, 80
4, 103680, Note_off_c, 0, 61, 80
4, 103680, Note_off_c, 0, 56, 80
4, 103680, Note_off_c, 0, 49, 80
4, 104160, Note_on_c, 0, 61, 95
4, 104160, Note_on_c, 0, 57, 95
4, 104160, Note_on_c, 0, 52, 95
4, 104160, Note_on_c, 0, 45, 95
4, 104400, Note_off_c, 0, 61, 80
4, 104400, Note_off_c, 0, 57, 80
4, 104400, Note_off_c, 0, 52, 80
4, 104400, Note_off_c, 0, 45, 80
4, 104400, Note_on_c, 0, 61, 95
4, 104400, Note_on_c, 0, 57, 95
4, 104400, Note_on_c, 0, 52, 95
4, 104400, Note_on_c, 0, 45, 95
4, 104640, Note_off_c, 0, 61, 80
4, 104640, Note_off_c, 0, 57, 80
4, 104640, Note_off_c, 0, 52, 80
4, 104640, Note_off_c, 0, 45, 80
4, 105120, Note_on_c, 0, 61, 95
4, 105120, Note_on_c, 0, 57, 95
4, 105120, Note_on_c, 0, 52, 95
4, 105120, Note_on_c, 0, 45, 95
4, 105360, Note_off_c, 0, 61, 80
4, 105360, Note_off_c, 0, 57, 80
4, 105360, Note_off_c, 0, 52, 80
4, 105360, Note_off_c, 0, 45, 80
4, 105360, Note_on_c, 0, 61, 95
4, 105360, Note_on_c, 0, 57, 95
4, 105360, Note_on_c, 0, 52, 95
4, 105360, Note_on_c, 0, 45, 95
4, 105600, Note_off_c, 0, 61, 80
4, 105600, Note_off_c, 0, 57, 80
4, 105600, Note_off_c, 0, 52, 80
4, 105600, Note_off_c, 0, 45, 80
4, 106080, Note_on_c, 0, 64, 95
4, 106080, Note_on_c, 0, 59, 95
4, 106080, Note_on_c, 0, 56, 95
4, 106080, Note_on_c, 0, 52, 95
4, 106080, Note_on_c, 0, 47, 95
4, 106080, Note_on_c, 0, 40, 95
4, 106320, Note_off_c, 0, 64, 80
4, 106320, Note_off_c, 0, 59, 80
4, 106320, Note_off_c, 0, 56, 80
4, 106320, Note_off_c, 0, 52, 80
4, 106320, Note_off_c, 0, 47, 80
4, 106320, Note_off_c, 0, 40, 80
4, 106320, Note_on_c, 0, 64, 95
4, 106320, Note_on_c, 0, 59, 95
4, 106320, Note_on_c, 0, 56, 95
4, 106320, Note_on_c, 0, 52, 95
4, 106320, Note_on_c, 0, 47, 95
4, 106320, Note_on_c, 0, 40, 95
4, 106560, Note_off_c, 0, 64, 80
4, 106560, Note_off_c, 0, 59, 80
4, 106560, Note_off_c, 0, 56, 80
4, 106560, Note_off_c, 0, 52, 80
4, 106560, Note_off_c, 0, 47, 80
4, 106560, Note_off_c, 0, 40, 80
4, 107040, Note_on_c, 0, 64, 95
4, 107040, Note_on_c, 0, 61, 95
4, 107040, Note_on_c, 0, 56, 95
4, 107040, Note_on_c, 0, 49, 95
4, 107280, Note_off_c, 0, 64, 80
4, 107280, Note_off_c, 0, 61, 80
4, 107280, Note_off_c, 0, 56, 80
4, 107280, Note_off_c, 0, 49, 80
4, 107280, Note_on_c, 0, 64, 95
4, 107280, Note_on_c, 0, 61, 95
4, 107280, Note_on_c, 0, 56, 95
4, 107280, Note_on_c, 0, 49, 95
4, 107520, Note_off_c, 0, 64, 80
4, 107520, Note_off_c, 0, 61, 80
4, 107520, Note_off_c, 0, 56, 80
4, 107520, Note_off_c, 0, 49, 80
4, 108000, Note_on_c, 0, 61, 95
4, 108000, Note_on_c, 0, 57, 95
4, 108000, Note_on_c, 0, 52, 95
4, 108000, Note_on_c, 0, 45, 95
4, 108240, Note_off_c, 0, 61, 80
4, 108240, Note_off_c, 0, 57, 80
4, 108240, Note_off_c, 0, 52, 80
4, 108240, Note_off_c, 0, 45, 80
4, 108240, Note_on_c, 0, 61, 95
4, 108240, Note_on_c, 0, 57, 95
4, 108240, Note_on_c, 0, 52, 95
4, 108240, Note_on_c, 0, 45, 95
4, 108480, Note_off_c, 0, 61, 80
4, 108480, Note_off_c, 0, 57, 80
4, 108480, Note_off_c, 0, 52, 80
4, 108480, Note_off_c, 0, 45, 80
4, 108960, Note_on_c, 0, 61, 95
4, 108960, Note_on_c, 0, 57, 95
4, 108960, Note_on_c, 0, 52, 95
4, 108960, Note_on_c, 0, 45, 95
4, 109200, Note_off_c, 0, 61, 80
4, 109200, Note_off_c, 0, 57, 80
4, 109200, Note_off_c, 0, 52, 80
4, 109200, Note_off_c, 0, 45, 80
4, 109200, Note_on_c, 0, 61, 95
4, 109200, Note_on_c, 0, 57, 95
4, 109200, Note_on_c, 0, 52, 95
4, 109200, Note_on_c, 0, 45, 95
4, 109440, Note_off_c, 0, 61, 80
4, 109440, Note_off_c, 0, 57, 80
4, 109440, Note_off_c, 0, 52, 80
4, 109440, Note_off_c, 0, 45, 80
4, 109440, Note_on_c, 0, 63, 95
4, 109440, Note_on_c, 0, 59, 95
4, 109440, Note_on_c, 0, 54, 95
4, 109440, Note_on_c, 0, 47, 95
4, 109920, Note_off_c, 0, 63, 80
4, 109920, Note_off_c, 0, 59, 80
4, 109920, Note_off_c, 0, 54, 80
4, 109920, Note_off_c, 0, 47, 80
4, 113280, Control_c, 0, 7, 80
4, 113280, Control_c, 1, 7, 80
4, 113760, Control_c, 0, 7, 8
4, 113760, Control_c, 1, 7, 8
4, 113760, Note_on_c, 0, 47, 95
4, 113760, Note_on_c, 0, 40, 95
4, 113880, Control_c, 0, 7, 16
4, 113880, Control_c, 1, 7, 16
4, 114000, Control_c, 0, 7, 24
4, 114000, Control_c, 1, 7, 24
4, 114120, Control_c, 0, 7, 32
4, 114120, Control_c, 1, 7, 32
4, 114240, Control_c, 0, 7, 40
4, 114240, Control_c, 1, 7, 40
4, 114360, Control_c, 0, 7, 48
4, 114360, Control_c, 1, 7, 48
4, 114480, Control_c, 0, 7, 56
4, 114480, Control_c, 1, 7, 56
4, 114600, Control_c, 0, 7, 64
4, 114600, Control_c, 1, 7, 64
4, 114720, Control_c, 0, 7, 72
4, 114720, Control_c, 1, 7, 72
4, 114840, Control_c, 0, 7, 80
4, 114840, Control_c, 1, 7, 80
4, 115680, Note_off_c, 0, 47, 80
4, 115680, Note_off_c, 0, 40, 80
4, 115680, Note_on_c, 0, 51, 95
4, 115680, Note_on_c, 0, 44, 95
4, 116400, Note_off_c, 0, 51, 80
4, 116400, Note_off_c, 0, 44, 80
4, 116400, Note_on_c, 0, 49, 95
4, 116400, Note_on_c, 0, 42, 95
4, 117120, Note_off_c, 0, 49, 80
4, 117120, Note_off_c, 0, 42, 80
4, 117600, Note_on_c, 0, 80, 63
4, 117720, Note_off_c, 0, 80, 80
4, 117720, Note_on_c, 0, 76, 50
4, 117840, Note_off_c, 0, 76, 80
4, 117840, Note_on_c, 0, 73, 63
4, 117960, Note_off_c, 0, 73, 80
4, 117960, Note_on_c, 0, 76, 63
4, 118080, Note_off_c, 0, 76, 80
4, 118080, Note_on_c, 0, 80, 63
4, 118200, Note_off_c, 0, 80, 80
4, 118200, Note_on_c, 0, 76, 50
4, 118320, Note_off_c, 0, 76, 80
4, 118320, Note_on_c, 0, 73, 63
4, 118440, Note_off_c, 0, 73, 80
4, 118440, Note_on_c, 0, 76, 63
4, 118560, Note_off_c, 0, 76, 80
4, 118560, Note_on_c, 0, 80, 63
4, 118680, Note_off_c, 0, 80, 80
4, 118680, Note_on_c, 0, 76, 50
4, 118800, Note_off_c, 0, 76, 80
4, 118800, Note_on_c, 0, 73, 63
4, 118920, Note_off_c, 0, 73, 80
4, 118920, Note_on_c, 0, 76, 63
4, 119040, Note_off_c, 0, 76, 80
4, 119040, Note_on_c, 0, 80, 63
4, 119160, Note_off_c, 0, 80, 80
4, 119160, Note_on_c, 0, 76, 50
4, 119280, Note_off_c, 0, 76, 80
4, 119280, Note_on_c, 0, 73, 63
4, 119400, Note_off_c, 0, 73, 80
4, 119400, Note_on_c, 0, 76, 63
4, 119520, Note_off_c, 0, 76, 80
4, 119520, Note_on_c, 0, 83, 63
4, 119640, Note_off_c, 0, 83, 80
4, 119640, Note_on_c, 0, 76, 50
4, 119760, Note_off_c, 0, 76, 80
4, 119760, Note_on_c, 0, 73, 63
4, 119880, Note_off_c, 0, 73, 80
4, 119880, Note_on_c, 0, 76, 63
4, 120000, Note_off_c, 0, 76, 80
4, 120000, Note_on_c, 0, 83, 63
4, 120120, Note_off_c, 0, 83, 80
4, 120120, Note_on_c, 0, 76, 50
4, 120240, Note_off_c, 0, 76, 80
4, 120240, Note_on_c, 0, 73, 63
4, 120360, Note_off_c, 0, 73, 80
4, 120360, Note_on_c, 0, 76, 63
4, 120480, Note_off_c, 0, 76, 80
4, 120480, Note_on_c, 0, 83, 63
4, 120600, Note_off_c, 0, 83, 80
4, 120600, Note_on_c, 0, 76, 50
4, 120720, Note_off_c, 0, 76, 80
4, 120720, Note_on_c, 0, 73, 63
4, 120840, Note_off_c, 0, 73, 80
4, 120840, Note_on_c, 0, 76, 63
4, 120960, Note_off_c, 0, 76, 80
4, 120960, Note_on_c, 0, 83, 63
4, 121080, Note_off_c, 0, 83, 80
4, 121080, Note_on_c, 0, 76, 50
4, 121200, Note_off_c, 0, 76, 80
4, 121200, Note_on_c, 0, 73, 63
4, 121320, Note_off_c, 0, 73, 80
4, 121320, Note_on_c, 0, 76, 63
4, 121440, Note_off_c, 0, 76, 80
4, 121440, Note_on_c, 0, 81, 63
4, 121560, Note_off_c, 0, 81, 80
4, 121560, Note_on_c, 0, 76, 50
4, 121680, Note_off_c, 0, 76, 80
4, 121680, Note_on_c, 0, 73, 63
4, 121800, Note_off_c, 0, 73, 80
4, 121800, Note_on_c, 0, 76, 63
4, 121920, Note_off_c, 0, 76, 80
4, 121920, Note_on_c, 0, 81, 63
4, 122040, Note_off_c, 0, 81, 80
4, 122040, Note_on_c, 0, 76, 50
4, 122160, Note_off_c, 0, 76, 80
4, 122160, Note_on_c, 0, 73, 63
4, 122280, Note_off_c, 0, 73, 80
4, 122280, Note_on_c, 0, 76, 63
4, 122400, Note_off_c, 0, 76, 80
4, 122400, Note_on_c, 0, 81, 63
4, 122520, Note_off_c, 0, 81, 80
4, 122520, Note_on_c, 0, 76, 50
4, 122640, Note_off_c, 0, 76, 80
4, 122640, Note_on_c, 0, 73, 63
4, 122760, Note_off_c, 0, 73, 80
4, 122760, Note_on_c, 0, 76, 63
4, 122880, Note_off_c, 0, 76, 80
4, 122880, Note_on_c, 0, 81, 79
4, 123000, Note_off_c, 0, 81, 80
4, 123000, Note_on_c, 0, 76, 63
4, 123120, Note_off_c, 0, 76, 80
4, 123120, Note_on_c, 0, 73, 79
4, 123240, Note_off_c, 0, 73, 80
4, 123240, Note_on_c, 0, 76, 79
4, 123360, Note_off_c, 0, 76, 80
4, 123360, Note_on_c, 0, 66, 79
4, 124800, Note_off_c, 0, 66, 80
4, 142560, Note_on_c, 0, 64, 95
4, 142560, Note_on_c, 0, 59, 95
4, 142560, Note_on_c, 0, 56, 79
4, 142560, Note_on_c, 0, 52, 79
4, 142560, Note_on_c, 0, 47, 79
4, 142560, Note_on_c, 0, 40, 95
4, 142800, Note_off_c, 0, 64, 80
4, 142800, Note_off_c, 0, 59, 80
4, 142800, Note_off_c, 0, 56, 80
4, 142800, Note_off_c, 0, 52, 80
4, 142800, Note_off_c, 0, 47, 80
4, 142800, Note_off_c, 0, 40, 80
4, 142800, Note_on_c, 0, 64, 95
4, 142800, Note_on_c, 0, 59, 95
4, 142800, Note_on_c, 0, 56, 79
4, 142800, Note_on_c, 0, 52, 79
4, 142800, Note_on_c, 0, 47, 79
4, 142800, Note_on_c, 0, 40, 95
4, 143040, Note_off_c, 0, 64, 80
4, 143040, Note_off_c, 0, 59, 80
4, 143040, Note_off_c, 0, 56, 80
4, 143040, Note_off_c, 0, 52, 80
4, 143040, Note_off_c, 0, 47, 80
4, 143040, Note_off_c, 0, 40, 80
4, 143520, Note_on_c, 0, 64, 95
4, 143520, Note_on_c, 0, 59, 95
4, 143520, Note_on_c, 0, 56, 79
4, 143520, Note_on_c, 0, 52, 79
4, 143520, Note_on_c, 0, 47, 79
4, 143520, Note_on_c, 0, 40, 95
4, 143760, Note_off_c, 0, 64, 80
4, 143760, Note_off_c, 0, 59, 80
4, 143760, Note_off_c, 0, 56, 80
4, 143760, Note_off_c, 0, 52, 80
4, 143760, Note_off_c, 0, 47, 80
4, 143760, Note_off_c, 0, 40, 80
4, 143760, Note_on_c, 0, 64, 95
4, 143760, Note_on_c, 0, 59, 95
4, 143760, Note_on_c, 0, 56, 79
4, 143760, Note_on_c, 0, 52, 79
4, 143760, Note_on_c, 0, 47, 79
4, 143760, Note_on_c, 0, 40, 95
4, 144000, Note_off_c, 0, 64, 80
4, 144000, Note_off_c, 0, 59, 80
4, 144000, Note_off_c, 0, 56, 80
4, 144000, Note_off_c, 0, 52, 80
4, 144000, Note_off_c, 0, 47, 80
4, 144000, Note_off_c, 0, 40, 80
4, 144480, Note_on_c, 0, 61, 95
4, 144480, Note_on_c, 0, 57, 79
4, 144480, Note_on_c, 0, 52, 79
4, 144480, Note_on_c, 0, 45, 79
4, 144720, Note_off_c, 0, 61, 80
4, 144720, Note_off_c, 0, 57, 80
4, 144720, Note_off_c, 0, 52, 80
4, 144720, Note_off_c, 0, 45, 80
4, 144720, Note_on_c, 0, 61, 95
4, 144720, Note_on_c, 0, 57, 79
4, 144720, Note_on_c, 0, 52, 79
4, 144720, Note_on_c, 0, 45, 79
4, 144960, Note_off_c, 0, 61, 80
4, 144960, Note_off_c, 0, 57, 80
4, 144960, Note_off_c, 0, 52, 80
4, 144960, Note_off_c, 0, 45, 80
4, 145440, Note_on_c, 0, 61, 95
4, 145440, Note_on_c, 0, 57, 79
4, 145440, Note_on_c, 0, 52, 79
4, 145440, Note_on_c, 0, 45, 79
4, 145680, Note_off_c, 0, 61, 80
4, 145680, Note_off_c, 0, 57, 80
4, 145680, Note_off_c, 0, 52, 80
4, 145680, Note_off_c, 0, 45, 80
4, 145680, Note_on_c, 0, 61, 95
4, 145680, Note_on_c, 0, 57, 79
4, 145680, Note_on_c, 0, 52, 79
4, 145680, Note_on_c, 0, 45, 79
4, 145920, Note_off_c, 0, 61, 80
4, 145920, Note_off_c, 0, 57, 80
4, 145920, Note_off_c, 0, 52, 80
4, 145920, Note_off_c, 0, 45, 80
4, 146400, Note_on_c, 0, 64, 95
4, 146400, Note_on_c, 0, 61, 79
4, 146400, Note_on_c, 0, 56, 79
4, 146400, Note_on_c, 0, 49, 79
4, 146640, Note_off_c, 0, 64, 80
4, 146640, Note_off_c, 0, 61, 80
4, 146640, Note_off_c, 0, 56, 80
4, 146640, Note_off_c, 0, 49, 80
4, 146640, Note_on_c, 0, 64, 95
4, 146640, Note_on_c, 0, 61, 79
4, 146640, Note_on_c, 0, 56, 79
4, 146640, Note_on_c, 0, 49, 79
4, 146880, Note_off_c, 0, 64, 80
4, 146880, Note_off_c, 0, 61, 80
4, 146880, Note_off_c, 0, 56, 80
4, 146880, Note_off_c, 0, 49, 80
4, 147360, Note_on_c, 0, 63, 95
4, 147360, Note_on_c, 0, 59, 79
4, 147360, Note_on_c, 0, 54, 79
4, 147360, Note_on_c, 0, 47, 79
4, 147600, Note_off_c, 0, 63, 80
4, 147600, Note_off_c, 0, 59, 80
4, 147600, Note_off_c, 0, 54, 80
4, 147600, Note_off_c, 0, 47, 80
4, 147600, Note_on_c, 0, 63, 95
4, 147600, Note_on_c, 0, 59, 79
4, 147600, Note_on_c, 0, 54, 79
4, 147600, Note_on_c, 0, 47, 79
4, 147840, Note_off_c, 0, 63, 80
4, 147840, Note_off_c, 0, 59, 80
4, 147840, Note_off_c, 0, 54, 80
4, 147840, Note_off_c, 0, 47, 80
4, 148320, Note_on_c, 0, 64, 95
4, 148320, Note_on_c, 0, 59, 95
4, 148320, Note_on_c, 0, 56, 79
4, 148320, Note_on_c, 0, 52, 79
4, 148320, Note_on_c, 0, 47, 79
4, 148320, Note_on_c, 0, 40, 95
4, 148560, Note_off_c, 0, 64, 80
4, 148560, Note_off_c, 0, 59, 80
4, 148560, Note_off_c, 0, 56, 80
4, 148560, Note_off_c, 0, 52, 80
4, 148560, Note_off_c, 0, 47, 80
4, 148560, Note_off_c, 0, 40, 80
4, 148560, Note_on_c, 0, 64, 95
4, 148560, Note_on_c, 0, 59, 95
4, 148560, Note_on_c, 0, 56, 79
4, 148560, Note_on_c, 0, 52, 79
4, 148560, Note_on_c, 0, 47, 79
4, 148560, Note_on_c, 0, 40, 95
4, 148800, Note_off_c, 0, 64, 80
4, 148800, Note_off_c, 0, 59, 80
4, 148800, Note_off_c, 0, 56, 80
4, 148800, Note_off_c, 0, 52, 80
4, 148800, Note_off_c, 0, 47, 80
4, 148800, Note_off_c, 0, 40, 80
4, 149280, Note_on_c, 0, 64, 95
4, 149280, Note_on_c, 0, 59, 95
4, 149280, Note_on_c, 0, 56, 79
4, 149280, Note_on_c, 0, 52, 79
4, 149280, Note_on_c, 0, 47, 79
4, 149280, Note_on_c, 0, 40, 95
4, 149520, Note_off_c, 0, 64, 80
4, 149520, Note_off_c, 0, 59, 80
4, 149520, Note_off_c, 0, 56, 80
4, 149520, Note_off_c, 0, 52, 80
4, 149520, Note_off_c, 0, 47, 80
4, 149520, Note_off_c, 0, 40, 80
4, 149520, Note_on_c, 0, 64, 95
4, 149520, Note_on_c, 0, 59, 95
4, 149520, Note_on_c, 0, 56, 79
4, 149520, Note_on_c, 0, 52, 79
4, 149520, Note_on_c, 0, 47, 79
4, 149520, Note_on_c, 0, 40, 95
4, 149760, Note_off_c, 0, 64, 80
4, 149760, Note_off_c, 0, 59, 80
4, 149760, Note_off_c, 0, 56, 80
4, 149760, Note_off_c, 0, 52, 80
4, 149760, Note_off_c, 0, 47, 80
4, 149760, Note_off_c, 0, 40, 80
4, 150240, Note_on_c, 0, 64, 95
4, 150240, Note_on_c, 0, 59, 95
4, 150240, Note_on_c, 0, 56, 79
4, 150240, Note_on_c, 0, 52, 79
4, 150240, Note_on_c, 0, 47, 79
4, 150240, Note_on_c, 0, 40, 95
4, 150480, Note_off_c, 0, 64, 80
4, 150480, Note_off_c, 0, 59, 80
4, 150480, Note_off_c, 0, 56, 80
4, 150480, Note_off_c, 0, 52, 80
4, 150480, Note_off_c, 0, 47, 80
4, 150480, Note_off_c, 0, 40, 80
4, 150480, Note_on_c, 0, 64, 95
4, 150480, Note_on_c, 0, 59, 95
4, 150480, Note_on_c, 0, 56, 79
4, 150480, Note_on_c, 0, 52, 79
4, 150480, Note_on_c, 0, 47, 79
4, 150480, Note_on_c, 0, 40, 95
4, 150720, Note_off_c, 0, 64, 80
4, 150720, Note_off_c, 0, 59, 80
4, 150720, Note_off_c, 0, 56, 80
4, 150720, Note_off_c, 0, 52, 80
4, 150720, Note_off_c, 0, 47, 80
4, 150720, Note_off_c, 0, 40, 80
4, 151200, Note_on_c, 0, 64, 95
4, 151200, Note_on_c, 0, 59, 95
4, 151200, Note_on_c, 0, 56, 79
4, 151200, Note_on_c, 0, 52, 79
4, 151200, Note_on_c, 0, 47, 79
4, 151200, Note_on_c, 0, 40, 95
4, 151440, Note_off_c, 0, 64, 80
4, 151440, Note_off_c, 0, 59, 80
4, 151440, Note_off_c, 0, 56, 80
4, 151440, Note_off_c, 0, 52, 80
4, 151440, Note_off_c, 0, 47, 80
4, 151440, Note_off_c, 0, 40, 80
4, 151440, Note_on_c, 0, 64, 95
4, 151440, Note_on_c, 0, 59, 95
4, 151440, Note_on_c, 0, 56, 79
4, 151440, Note_on_c, 0, 52, 79
4, 151440, Note_on_c, 0, 47, 79
4, 151440, Note_on_c, 0, 40, 95
4, 151680, Note_off_c, 0, 64, 80
4, 151680, Note_off_c, 0, 59, 80
4, 151680, Note_off_c, 0, 56, 80
4, 151680, Note_off_c, 0, 52, 80
4, 151680, Note_off_c, 0, 47, 80
4, 151680, Note_off_c, 0, 40, 80
4, 152160, Note_on_c, 0, 61, 95
4, 152160, Note_on_c, 0, 57, 79
4, 152160, Note_on_c, 0, 52, 79
4, 152160, Note_on_c, 0, 45, 79
4, 152400, Note_off_c, 0, 61, 80
4, 152400, Note_off_c, 0, 57, 80
4, 152400, Note_off_c, 0, 52, 80
4, 152400, Note_off_c, 0, 45, 80
4, 152400, Note_on_c, 0, 61, 95
4, 152400, Note_on_c, 0, 57, 79
4, 152400, Note_on_c, 0, 52, 79
4, 152400, Note_on_c, 0, 45, 79
4, 152640, Note_off_c, 0, 61, 80
4, 152640, Note_off_c, 0, 57, 80
4, 152640, Note_off_c, 0, 52, 80
4, 152640, Note_off_c, 0, 45, 80
4, 153120, Note_on_c, 0, 61, 95
4, 153120, Note_on_c, 0, 57, 79
4, 153120, Note_on_c, 0, 52, 79
4, 153120, Note_on_c, 0, 45, 79
4, 153360, Note_off_c, 0, 61, 80
4, 153360, Note_off_c, 0, 57, 80
4, 153360, Note_off_c, 0, 52, 80
4, 153360, Note_off_c, 0, 45, 80
4, 153360, Note_on_c, 0, 61, 95
4, 153360, Note_on_c, 0, 57, 79
4, 153360, Note_on_c, 0, 52, 79
4, 153360, Note_on_c, 0, 45, 79
4, 153600, Note_off_c, 0, 61, 80
4, 153600, Note_off_c, 0, 57, 80
4, 153600, Note_off_c, 0, 52, 80
4, 153600, Note_off_c, 0, 45, 80
4, 154080, Note_on_c, 0, 64, 95
4, 154080, Note_on_c, 0, 61, 79
4, 154080, Note_on_c, 0, 56, 79
4, 154080, Note_on_c, 0, 49, 79
4, 154320, Note_off_c, 0, 64, 80
4, 154320, Note_off_c, 0, 61, 80
4, 154320, Note_off_c, 0, 56, 80
4, 154320, Note_off_c, 0, 49, 80
4, 154320, Note_on_c, 0, 64, 95
4, 154320, Note_on_c, 0, 61, 79
4, 154320, Note_on_c, 0, 56, 79
4, 154320, Note_on_c, 0, 49, 79
4, 154560, Note_off_c, 0, 64, 80
4, 154560, Note_off_c, 0, 61, 80
4, 154560, Note_off_c, 0, 56, 80
4, 154560, Note_off_c, 0, 49, 80
4, 155040, Note_on_c, 0, 63, 95
4, 155040, Note_on_c, 0, 59, 79
4, 155040, Note_on_c, 0, 54, 79
4, 155040, Note_on_c, 0, 47, 79
4, 155280, Note_off_c, 0, 63, 80
4, 155280, Note_off_c, 0, 59, 80
4, 155280, Note_off_c, 0, 54, 80
4, 155280, Note_off_c, 0, 47, 80
4, 155280, Note_on_c, 0, 63, 95
4, 155280, Note_on_c, 0, 59, 79
4, 155280, Note_on_c, 0, 54, 79
4, 155280, Note_on_c, 0, 47, 79
4, 155520, Note_off_c, 0, 63, 80
4, 155520, Note_off_c, 0, 59, 80
4, 155520, Note_off_c, 0, 54, 80
4, 155520, Note_off_c, 0, 47, 80
4, 156000, Note_on_c, 0, 64, 95
4, 156000, Note_on_c, 0, 59, 95
4, 156000, Note_on_c, 0, 56, 79
4, 156000, Note_on_c, 0, 52, 79
4, 156000, Note_on_c, 0, 47, 79
4, 156000, Note_on_c, 0, 40, 95
4, 156240, Note_off_c, 0, 64, 80
4, 156240, Note_off_c, 0, 59, 80
4, 156240, Note_off_c, 0, 56, 80
4, 156240, Note_off_c, 0, 52, 80
4, 156240, Note_off_c, 0, 47, 80
4, 156240, Note_off_c, 0, 40, 80
4, 156240, Note_on_c, 0, 64, 95
4, 156240, Note_on_c, 0, 59, 95
4, 156240, Note_on_c, 0, 56, 79
4, 156240, Note_on_c, 0, 52, 79
4, 156240, Note_on_c, 0, 47, 79
4, 156240, Note_on_c, 0, 40, 95
4, 156480, Note_off_c, 0, 64, 80
4, 156480, Note_off_c, 0, 59, 80
4, 156480, Note_off_c, 0, 56, 80
4, 156480, Note_off_c, 0, 52, 80
4, 156480, Note_off_c, 0, 47, 80
4, 156480, Note_off_c, 0, 40, 80
4, 156960, Note_on_c, 0, 64, 95
4, 156960, Note_on_c, 0, 59, 95
4, 156960, Note_on_c, 0, 56, 79
4, 156960, Note_on_c, 0, 52, 79
4, 156960, Note_on_c, 0, 47, 79
4, 156960, Note_on_c, 0, 40, 95
4, 157200, Note_off_c, 0, 64, 80
4, 157200, Note_off_c, 0, 59, 80
4, 157200, Note_off_c, 0, 56, 80
4, 157200, Note_off_c, 0, 52, 80
4, 157200, Note_off_c, 0, 47, 80
4, 157200, Note_off_c, 0, 40, 80
4, 157200, Note_on_c, 0, 64, 95
4, 157200, Note_on_c, 0, 59, 95
4, 157200, Note_on_c, 0, 56, 79
4, 157200, Note_on_c, 0, 52, 79
4, 157200, Note_on_c, 0, 47, 79
4, 157200, Note_on_c, 0, 40, 95
4, 157440, Note_off_c, 0, 64, 80
4, 157440, Note_off_c, 0, 59, 80
4, 157440, Note_off_c, 0, 56, 80
4, 157440, Note_off_c, 0, 52, 80
4, 157440, Note_off_c, 0, 47, 80
4, 157440, Note_off_c, 0, 40, 80
4, 157920, Note_on_c, 0, 64, 95
4, 157920, Note_on_c, 0, 61, 79
4, 157920, Note_on_c, 0, 56, 79
4, 157920, Note_on_c, 0, 49, 79
4, 158160, Note_off_c, 0, 64, 80
4, 158160, Note_off_c, 0, 61, 80
4, 158160, Note_off_c, 0, 56, 80
4, 158160, Note_off_c, 0, 49, 80
4, 158160, Note_on_c, 0, 64, 95
4, 158160, Note_on_c, 0, 61, 79
4, 158160, Note_on_c, 0, 56, 79
4, 158160, Note_on_c, 0, 49, 79
4, 158400, Note_off_c, 0, 64, 80
4, 158400, Note_off_c, 0, 61, 80
4, 158400, Note_off_c, 0, 56, 80
4, 158400, Note_off_c, 0, 49, 80
4, 158880, Note_on_c, 0, 63, 95
4, 158880, Note_on_c, 0, 59, 79
4, 158880, Note_on_c, 0, 54, 79
4, 158880, Note_on_c, 0, 47, 79
4, 159120, Note_off_c, 0, 63, 80
4, 159120, Note_off_c, 0, 59, 80
4, 159120, Note_off_c, 0, 54, 80
4, 159120, Note_off_c, 0, 47, 80
4, 159120, Note_on_c, 0, 63, 95
4, 159120, Note_on_c, 0, 59, 79
4, 159120, Note_on_c, 0, 54, 79
4, 159120, Note_on_c, 0, 47, 79
4, 159360, Note_off_c, 0, 63, 80
4, 159360, Note_off_c, 0, 59, 80
4, 159360, Note_off_c, 0, 54, 80
4, 159360, Note_off_c, 0, 47, 80
4, 159840, Note_on_c, 0, 64, 95
4, 159840, Note_on_c, 0, 59, 95
4, 159840, Note_on_c, 0, 56, 79
4, 159840, Note_on_c, 0, 52, 79
4, 159840, Note_on_c, 0, 47, 79
4, 159840, Note_on_c, 0, 40, 95
4, 160080, Note_off_c, 0, 64, 80
4, 160080, Note_off_c, 0, 59, 80
4, 160080, Note_off_c, 0, 56, 80
4, 160080, Note_off_c, 0, 52, 80
4, 160080, Note_off_c, 0, 47, 80
4, 160080, Note_off_c, 0, 40, 80
4, 160080, Note_on_c, 0, 64, 95
4, 160080, Note_on_c, 0, 59, 95
4, 160080, Note_on_c, 0, 56, 79
4, 160080, Note_on_c, 0, 52, 79
4, 160080, Note_on_c, 0, 47, 79
4, 160080, Note_on_c, 0, 40, 95
4, 160320, Note_off_c, 0, 64, 80
4, 160320, Note_off_c, 0, 59, 80
4, 160320, Note_off_c, 0, 56, 80
4, 160320, Note_off_c, 0, 52, 80
4, 160320, Note_off_c, 0, 47, 80
4, 160320, Note_off_c, 0, 40, 80
4, 160800, Note_on_c, 0, 64, 95
4, 160800, Note_on_c, 0, 59, 95
4, 160800, Note_on_c, 0, 56, 79
4, 160800, Note_on_c, 0, 52, 79
4, 160800, Note_on_c, 0, 47, 79
4, 160800, Note_on_c, 0, 40, 95
4, 161040, Note_off_c, 0, 64, 80
4, 161040, Note_off_c, 0, 59, 80
4, 161040, Note_off_c, 0, 56, 80
4, 161040, Note_off_c, 0, 52, 80
4, 161040, Note_off_c, 0, 47, 80
4, 161040, Note_off_c, 0, 40, 80
4, 161040, Note_on_c, 0, 64, 95
4, 161040, Note_on_c, 0, 59, 95
4, 161040, Note_on_c, 0, 56, 79
4, 161040, Note_on_c, 0, 52, 79
4, 161040, Note_on_c, 0, 47, 79
4, 161040, Note_on_c, 0, 40, 95
4, 161280, Note_off_c, 0, 64, 80
4, 161280, Note_off_c, 0, 59, 80
4, 161280, Note_off_c, 0, 56, 80
4, 161280, Note_off_c, 0, 52, 80
4, 161280, Note_off_c, 0, 47, 80
4, 161280, Note_off_c, 0, 40, 80
4, 161760, Note_on_c, 0, 64, 95
4, 161760, Note_on_c, 0, 61, 95
4, 161760, Note_on_c, 0, 56, 95
4, 161760, Note_on_c, 0, 49, 95
4, 162000, Note_off_c, 0, 64, 80
4, 162000, Note_off_c, 0, 61, 80
4, 162000, Note_off_c, 0, 56, 80
4, 162000, Note_off_c, 0, 49, 80
4, 162000, Note_on_c, 0, 64, 95
4, 162000, Note_on_c, 0, 61, 95
4, 162000, Note_on_c, 0, 56, 95
4, 162000, Note_on_c, 0, 49, 95
4, 162240, Note_off_c, 0, 64, 80
4, 162240, Note_off_c, 0, 61, 80
4, 162240, Note_off_c, 0, 56, 80
4, 162240, Note_off_c, 0, 49, 80
4, 162240, Note_on_c, 0, 64, 95
4, 162240, Note_on_c, 0, 61, 95
4, 162240, Note_on_c, 0, 56, 95
4, 162240, Note_on_c, 0, 49, 95
4, 162480, Note_off_c, 0, 64, 80
4, 162480, Note_off_c, 0, 61, 80
4, 162480, Note_off_c, 0, 56, 80
4, 162480, Note_off_c, 0, 49, 80
4, 162480, Note_on_c, 0, 64, 95
4, 162480, Note_on_c, 0, 61, 95
4, 162480, Note_on_c, 0, 56, 95
4, 162480, Note_on_c, 0, 49, 95
4, 162720, Note_off_c, 0, 64, 80
4, 162720, Note_off_c, 0, 61, 80
4, 162720, Note_off_c, 0, 56, 80
4, 162720, Note_off_c, 0, 49, 80
4, 162720, Note_on_c, 0, 63, 95
4, 162720, Note_on_c, 0, 59, 95
4, 162720, Note_on_c, 0, 54, 95
4, 162720, Note_on_c, 0, 47, 95
4, 162960, Note_off_c, 0, 63, 80
4, 162960, Note_off_c, 0, 59, 80
4, 162960, Note_off_c, 0, 54, 80
4, 162960, Note_off_c, 0, 47, 80
4, 162960, Note_on_c, 0, 63, 95
4, 162960, Note_on_c, 0, 59, 95
4, 162960, Note_on_c, 0, 54, 95
4, 162960, Note_on_c, 0, 47, 95
4, 163200, Note_off_c, 0, 63, 80
4, 163200, Note_off_c, 0, 59, 80
4, 163200, Note_off_c, 0, 54, 80
4, 163200, Note_off_c, 0, 47, 80
4, 163200, Note_on_c, 0, 63, 95
4, 163200, Note_on_c, 0, 59, 95
4, 163200, Note_on_c, 0, 54, 95
4, 163200, Note_on_c, 0, 47, 95
4, 163440, Note_off_c, 0, 63, 80
4, 163440, Note_off_c, 0, 59, 80
4, 163440, Note_off_c, 0, 54, 80
4, 163440, Note_off_c, 0, 47, 80
4, 163440, Note_on_c, 0, 63, 95
4, 163440, Note_on_c, 0, 59, 95
4, 163440, Note_on_c, 0, 54, 95
4, 163440, Note_on_c, 0, 47, 95
4, 163680, Note_off_c, 0, 63, 80
4, 163680, Note_off_c, 0, 59, 80
4, 163680, Note_off_c, 0, 54, 80
4, 163680, Note_off_c, 0, 47, 80
4, 163680, End_track
5, 0, Start_track
5, 0, Title_t, "Guitar (Mike)"
5, 0, Control_c, 12, 100, 0
5, 0, Control_c, 12, 101, 0
5, 0, Control_c, 12, 6, 12
5, 0, Pitch_bend_c, 12, 8192
5, 0, Control_c, 12, 101, 0
5, 0, Control_c, 12, 100, 1
5, 0, Control_c, 12, 6, 64
5, 0, Control_c, 12, 38, 0
5, 0, Control_c, 12, 101, 127
5, 0, Control_c, 12, 100, 127
5, 0, Control_c, 11, 100, 0
5, 0, Control_c, 11, 101, 0
5, 0, Control_c, 11, 6, 12
5, 0, Pitch_bend_c, 11, 8192
5, 0, Control_c, 11, 101, 0
5, 0, Control_c, 11, 100, 1
5, 0, Control_c, 11, 6, 64
5, 0, Control_c, 11, 38, 0
5, 0, Control_c, 11, 101, 127
5, 0, Control_c, 11, 100, 127
5, 0, Control_c, 12, 101, 0
5, 0, Control_c, 12, 100, 2
5, 0, Control_c, 12, 6, 64
5, 0, Control_c, 12, 101, 127
5, 0, Control_c, 12, 100, 127
5, 0, Control_c, 11, 101, 0
5, 0, Control_c, 11, 100, 2
5, 0, Control_c, 11, 6, 64
5, 0, Control_c, 11, 101, 127
5, 0, Control_c, 11, 100, 127
5, 0, Program_c, 12, 30
5, 0, Program_c, 11, 30
5, 0, Control_c, 12, 0, 0
5, 0, Control_c, 11, 0, 0
5, 0, Control_c, 12, 7, 96
5, 0, Control_c, 11, 7, 96
5, 0, Control_c, 12, 10, 64
5, 0, Control_c, 11, 10, 64
5, 0, Control_c, 12, 93, 0
5, 0, Control_c, 11, 93, 0
5, 0, Control_c, 12, 91, 0
5, 0, Control_c, 11, 91, 0
5, 0, Control_c, 12, 92, 0
5, 0, Control_c, 11, 92, 0
5, 0, Control_c, 12, 95, 0
5, 0, Control_c, 11, 95, 0
5, 56160, Note_on_c, 11, 64, 95
5, 56160, Note_on_c, 11, 59, 95
5, 56160, Note_on_c, 11, 52, 95
5, 56400, Note_off_c, 11, 64, 80
5, 56400, Note_off_c, 11, 59, 80
5, 56400, Note_off_c, 11, 52, 80
5, 56400, Note_on_c, 11, 64, 95
5, 56400, Note_on_c, 11, 59, 95
5, 56400, Note_on_c, 11, 52, 95
5, 56640, Note_off_c, 11, 64, 80
5, 56640, Note_off_c, 11, 59, 80
5, 56640, Note_off_c, 11, 52, 80
5, 57120, Note_on_c, 11, 61, 95
5, 57120, Note_on_c, 11, 56, 95
5, 57120, Note_on_c, 11, 49, 95
5, 57360, Note_off_c, 11, 61, 80
5, 57360, Note_off_c, 11, 56, 80
5, 57360, Note_off_c, 11, 49, 80
5, 57360, Note_on_c, 11, 61, 95
5, 57360, Note_on_c, 11, 56, 95
5, 57360, Note_on_c, 11, 49, 95
5, 57600, Note_off_c, 11, 61, 80
5, 57600, Note_off_c, 11, 56, 80
5, 57600, Note_off_c, 11, 49, 80
5, 58080, Note_on_c, 11, 57, 95
5, 58080, Note_on_c, 11, 52, 95
5, 58080, Note_on_c, 11, 45, 95
5, 58320, Note_off_c, 11, 57, 80
5, 58320, Note_off_c, 11, 52, 80
5, 58320, Note_off_c, 11, 45, 80
5, 58320, Note_on_c, 11, 57, 95
5, 58320, Note_on_c, 11, 52, 95
5, 58320, Note_on_c, 11, 45, 95
5, 58560, Note_off_c, 11, 57, 80
5, 58560, Note_off_c, 11, 52, 80
5, 58560, Note_off_c, 11, 45, 80
5, 59040, Note_on_c, 11, 57, 95
5, 59040, Note_on_c, 11, 52, 95
5, 59040, Note_on_c, 11, 45, 95
5, 59280, Note_off_c, 11, 57, 80
5, 59280, Note_off_c, 11, 52, 80
5, 59280, Note_off_c, 11, 45, 80
5, 59280, Note_on_c, 11, 57, 95
5, 59280, Note_on_c, 11, 52, 95
5, 59280, Note_on_c, 11, 45, 95
5, 59520, Note_off_c, 11, 57, 80
5, 59520, Note_off_c, 11, 52, 80
5, 59520, Note_off_c, 11, 45, 80
5, 60000, Note_on_c, 11, 64, 95
5, 60000, Note_on_c, 11, 59, 95
5, 60000, Note_on_c, 11, 52, 95
5, 60240, Note_off_c, 11, 64, 80
5, 60240, Note_off_c, 11, 59, 80
5, 60240, Note_off_c, 11, 52, 80
5, 60240, Note_on_c, 11, 64, 95
5, 60240, Note_on_c, 11, 59, 95
5, 60240, Note_on_c, 11, 52, 95
5, 60480, Note_off_c, 11, 64, 80
5, 60480, Note_off_c, 11, 59, 80
5, 60480, Note_off_c, 11, 52, 80
5, 60960, Note_on_c, 11, 61, 95
5, 60960, Note_on_c, 11, 56, 95
5, 60960, Note_on_c, 11, 49, 95
5, 61200, Note_off_c, 11, 61, 80
5, 61200, Note_off_c, 11, 56, 80
5, 61200, Note_off_c, 11, 49, 80
5, 61200, Note_on_c, 11, 61, 95
5, 61200, Note_on_c, 11, 56, 95
5, 61200, Note_on_c, 11, 49, 95
5, 61440, Note_off_c, 11, 61, 80
5, 61440, Note_off_c, 11, 56, 80
5, 61440, Note_off_c, 11, 49, 80
5, 61920, Note_on_c, 11, 57, 95
5, 61920, Note_on_c, 11, 52, 95
5, 61920, Note_on_c, 11, 45, 95
5, 62160, Note_off_c, 11, 57, 80
5, 62160, Note_off_c, 11, 52, 80
5, 62160, Note_off_c, 11, 45, 80
5, 62160, Note_on_c, 11, 57, 95
5, 62160, Note_on_c, 11, 52, 95
5, 62160, Note_on_c, 11, 45, 95
5, 62400, Note_off_c, 11, 57, 80
5, 62400, Note_off_c, 11, 52, 80
5, 62400, Note_off_c, 11, 45, 80
5, 62880, Note_on_c, 11, 57, 95
5, 62880, Note_on_c, 11, 52, 95
5, 62880, Note_on_c, 11, 45, 95
5, 63120, Note_off_c, 11, 57, 80
5, 63120, Note_off_c, 11, 52, 80
5, 63120, Note_off_c, 11, 45, 80
5, 63120, Note_on_c, 11, 57, 95
5, 63120, Note_on_c, 11, 52, 95
5, 63120, Note_on_c, 11, 45, 95
5, 63360, Note_off_c, 11, 57, 80
5, 63360, Note_off_c, 11, 52, 80
5, 63360, Note_off_c, 11, 45, 80
5, 63840, Note_on_c, 11, 64, 95
5, 63840, Note_on_c, 11, 59, 95
5, 63840, Note_on_c, 11, 52, 95
5, 64080, Note_off_c, 11, 64, 80
5, 64080, Note_off_c, 11, 59, 80
5, 64080, Note_off_c, 11, 52, 80
5, 64080, Note_on_c, 11, 64, 95
5, 64080, Note_on_c, 11, 59, 95
5, 64080, Note_on_c, 11, 52, 95
5, 64320, Note_off_c, 11, 64, 80
5, 64320, Note_off_c, 11, 59, 80
5, 64320, Note_off_c, 11, 52, 80
5, 64800, Note_on_c, 11, 61, 95
5, 64800, Note_on_c, 11, 56, 95
5, 64800, Note_on_c, 11, 49, 95
5, 65040, Note_off_c, 11, 61, 80
5, 65040, Note_off_c, 11, 56, 80
5, 65040, Note_off_c, 11, 49, 80
5, 65040, Note_on_c, 11, 61, 95
5, 65040, Note_on_c, 11, 56, 95
5, 65040, Note_on_c, 11, 49, 95
5, 65280, Note_off_c, 11, 61, 80
5, 65280, Note_off_c, 11, 56, 80
5, 65280, Note_off_c, 11, 49, 80
5, 65760, Note_on_c, 11, 57, 95
5, 65760, Note_on_c, 11, 52, 95
5, 65760, Note_on_c, 11, 45, 95
5, 66000, Note_off_c, 11, 57, 80
5, 66000, Note_off_c, 11, 52, 80
5, 66000, Note_off_c, 11, 45, 80
5, 66000, Note_on_c, 11, 57, 95
5, 66000, Note_on_c, 11, 52, 95
5, 66000, Note_on_c, 11, 45, 95
5, 66240, Note_off_c, 11, 57, 80
5, 66240, Note_off_c, 11, 52, 80
5, 66240, Note_off_c, 11, 45, 80
5, 66720, Note_on_c, 11, 57, 95
5, 66720, Note_on_c, 11, 52, 95
5, 66720, Note_on_c, 11, 45, 95
5, 66960, Note_off_c, 11, 57, 80
5, 66960, Note_off_c, 11, 52, 80
5, 66960, Note_off_c, 11, 45, 80
5, 66960, Note_on_c, 11, 57, 95
5, 66960, Note_on_c, 11, 52, 95
5, 66960, Note_on_c, 11, 45, 95
5, 67200, Note_off_c, 11, 57, 80
5, 67200, Note_off_c, 11, 52, 80
5, 67200, Note_off_c, 11, 45, 80
5, 67680, Note_on_c, 11, 64, 95
5, 67680, Note_on_c, 11, 59, 95
5, 67680, Note_on_c, 11, 52, 95
5, 67920, Note_off_c, 11, 64, 80
5, 67920, Note_off_c, 11, 59, 80
5, 67920, Note_off_c, 11, 52, 80
5, 67920, Note_on_c, 11, 64, 95
5, 67920, Note_on_c, 11, 59, 95
5, 67920, Note_on_c, 11, 52, 95
5, 68160, Note_off_c, 11, 64, 80
5, 68160, Note_off_c, 11, 59, 80
5, 68160, Note_off_c, 11, 52, 80
5, 68640, Note_on_c, 11, 61, 95
5, 68640, Note_on_c, 11, 56, 95
5, 68640, Note_on_c, 11, 49, 95
5, 68880, Note_off_c, 11, 61, 80
5, 68880, Note_off_c, 11, 56, 80
5, 68880, Note_off_c, 11, 49, 80
5, 68880, Note_on_c, 11, 61, 95
5, 68880, Note_on_c, 11, 56, 95
5, 68880, Note_on_c, 11, 49, 95
5, 69120, Note_off_c, 11, 61, 80
5, 69120, Note_off_c, 11, 56, 80
5, 69120, Note_off_c, 11, 49, 80
5, 69600, Note_on_c, 11, 57, 95
5, 69600, Note_on_c, 11, 52, 95
5, 69600, Note_on_c, 11, 45, 95
5, 69840, Note_off_c, 11, 57, 80
5, 69840, Note_off_c, 11, 52, 80
5, 69840, Note_off_c, 11, 45, 80
5, 69840, Note_on_c, 11, 57, 95
5, 69840, Note_on_c, 11, 52, 95
5, 69840, Note_on_c, 11, 45, 95
5, 70080, Note_off_c, 11, 57, 80
5, 70080, Note_off_c, 11, 52, 80
5, 70080, Note_off_c, 11, 45, 80
5, 70560, Note_on_c, 11, 57, 95
5, 70560, Note_on_c, 11, 52, 95
5, 70560, Note_on_c, 11, 45, 95
5, 70800, Note_off_c, 11, 57, 80
5, 70800, Note_off_c, 11, 52, 80
5, 70800, Note_off_c, 11, 45, 80
5, 70800, Note_on_c, 11, 57, 95
5, 70800, Note_on_c, 11, 52, 95
5, 70800, Note_on_c, 11, 45, 95
5, 71040, Note_off_c, 11, 57, 80
5, 71040, Note_off_c, 11, 52, 80
5, 71040, Note_off_c, 11, 45, 80
5, 71160, Note_on_c, 12, 57, 95
5, 71160, Note_on_c, 12, 52, 95
5, 71160, Note_on_c, 12, 45, 95
5, 71340, Pitch_bend_c, 12, 7552
5, 71340, Pitch_bend_c, 12, 7552
5, 71340, Pitch_bend_c, 12, 7552
5, 71366, Pitch_bend_c, 12, 6784
5, 71366, Pitch_bend_c, 12, 6784
5, 71366, Pitch_bend_c, 12, 6784
5, 71391, Pitch_bend_c, 12, 6144
5, 71391, Pitch_bend_c, 12, 6144
5, 71391, Pitch_bend_c, 12, 6144
5, 71417, Pitch_bend_c, 12, 5504
5, 71417, Pitch_bend_c, 12, 5504
5, 71417, Pitch_bend_c, 12, 5504
5, 71443, Pitch_bend_c, 12, 4736
5, 71443, Pitch_bend_c, 12, 4736
5, 71443, Pitch_bend_c, 12, 4736
5, 71469, Pitch_bend_c, 12, 4096
5, 71469, Pitch_bend_c, 12, 4096
5, 71469, Pitch_bend_c, 12, 4096
5, 71494, Pitch_bend_c, 12, 3456
5, 71494, Pitch_bend_c, 12, 3456
5, 71494, Pitch_bend_c, 12, 3456
5, 71520, Note_off_c, 12, 57, 80
5, 71520, Note_off_c, 12, 52, 80
5, 71520, Note_off_c, 12, 45, 80
5, 71520, Pitch_bend_c, 12, 8192
5, 71520, Pitch_bend_c, 12, 8192
5, 71520, Pitch_bend_c, 12, 8192
5, 94560, Note_on_c, 11, 64, 95
5, 94560, Note_on_c, 11, 59, 95
5, 94560, Note_on_c, 11, 52, 95
5, 94800, Note_off_c, 11, 64, 80
5, 94800, Note_off_c, 11, 59, 80
5, 94800, Note_off_c, 11, 52, 80
5, 94800, Note_on_c, 11, 64, 95
5, 94800, Note_on_c, 11, 59, 95
5, 94800, Note_on_c, 11, 52, 95
5, 95040, Note_off_c, 11, 64, 80
5, 95040, Note_off_c, 11, 59, 80
5, 95040, Note_off_c, 11, 52, 80
5, 95520, Note_on_c, 11, 61, 95
5, 95520, Note_on_c, 11, 56, 95
5, 95520, Note_on_c, 11, 49, 95
5, 95760, Note_off_c, 11, 61, 80
5, 95760, Note_off_c, 11, 56, 80
5, 95760, Note_off_c, 11, 49, 80
5, 95760, Note_on_c, 11, 61, 95
5, 95760, Note_on_c, 11, 56, 95
5, 95760, Note_on_c, 11, 49, 95
5, 96000, Note_off_c, 11, 61, 80
5, 96000, Note_off_c, 11, 56, 80
5, 96000, Note_off_c, 11, 49, 80
5, 96480, Note_on_c, 11, 57, 95
5, 96480, Note_on_c, 11, 52, 95
5, 96480, Note_on_c, 11, 45, 95
5, 96720, Note_off_c, 11, 57, 80
5, 96720, Note_off_c, 11, 52, 80
5, 96720, Note_off_c, 11, 45, 80
5, 96720, Note_on_c, 11, 57, 95
5, 96720, Note_on_c, 11, 52, 95
5, 96720, Note_on_c, 11, 45, 95
5, 96960, Note_off_c, 11, 57, 80
5, 96960, Note_off_c, 11, 52, 80
5, 96960, Note_off_c, 11, 45, 80
5, 97200, Note_on_c, 11, 57, 95
5, 97200, Note_on_c, 11, 52, 95
5, 97200, Note_on_c, 11, 45, 95
5, 97320, Note_off_c, 11, 57, 80
5, 97320, Note_off_c, 11, 52, 80
5, 97320, Note_off_c, 11, 45, 80
5, 97320, Note_on_c, 11, 57, 95
5, 97320, Note_on_c, 11, 52, 95
5, 97320, Note_on_c, 11, 45, 95
5, 97440, Note_off_c, 11, 57, 80
5, 97440, Note_off_c, 11, 52, 80
5, 97440, Note_off_c, 11, 45, 80
5, 97440, Note_on_c, 11, 57, 95
5, 97440, Note_on_c, 11, 52, 95
5, 97440, Note_on_c, 11, 45, 95
5, 97560, Note_off_c, 11, 57, 80
5, 97560, Note_off_c, 11, 52, 80
5, 97560, Note_off_c, 11, 45, 80
5, 97560, Note_on_c, 11, 57, 95
5, 97560, Note_on_c, 11, 52, 95
5, 97560, Note_on_c, 11, 45, 95
5, 97680, Note_off_c, 11, 57, 80
5, 97680, Note_off_c, 11, 52, 80
5, 97680, Note_off_c, 11, 45, 80
5, 97680, Note_on_c, 11, 57, 95
5, 97680, Note_on_c, 11, 52, 95
5, 97680, Note_on_c, 11, 45, 95
5, 97920, Note_off_c, 11, 57, 80
5, 97920, Note_off_c, 11, 52, 80
5, 97920, Note_off_c, 11, 45, 80
5, 98400, Note_on_c, 11, 64, 95
5, 98400, Note_on_c, 11, 59, 95
5, 98400, Note_on_c, 11, 52, 95
5, 98640, Note_off_c, 11, 64, 80
5, 98640, Note_off_c, 11, 59, 80
5, 98640, Note_off_c, 11, 52, 80
5, 98640, Note_on_c, 11, 64, 95
5, 98640, Note_on_c, 11, 59, 95
5, 98640, Note_on_c, 11, 52, 95
5, 98880, Note_off_c, 11, 64, 80
5, 98880, Note_off_c, 11, 59, 80
5, 98880, Note_off_c, 11, 52, 80
5, 99360, Note_on_c, 11, 61, 95
5, 99360, Note_on_c, 11, 56, 95
5, 99360, Note_on_c, 11, 49, 95
5, 99600, Note_off_c, 11, 61, 80
5, 99600, Note_off_c, 11, 56, 80
5, 99600, Note_off_c, 11, 49, 80
5, 99600, Note_on_c, 11, 61, 95
5, 99600, Note_on_c, 11, 56, 95
5, 99600, Note_on_c, 11, 49, 95
5, 99840, Note_off_c, 11, 61, 80
5, 99840, Note_off_c, 11, 56, 80
5, 99840, Note_off_c, 11, 49, 80
5, 100320, Note_on_c, 11, 57, 95
5, 100320, Note_on_c, 11, 52, 95
5, 100320, Note_on_c, 11, 45, 95
5, 100560, Note_off_c, 11, 57, 80
5, 100560, Note_off_c, 11, 52, 80
5, 100560, Note_off_c, 11, 45, 80
5, 100560, Note_on_c, 11, 57, 95
5, 100560, Note_on_c, 11, 52, 95
5, 100560, Note_on_c, 11, 45, 95
5, 100800, Note_off_c, 11, 57, 80
5, 100800, Note_off_c, 11, 52, 80
5, 100800, Note_off_c, 11, 45, 80
5, 101280, Note_on_c, 11, 57, 95
5, 101280, Note_on_c, 11, 52, 95
5, 101280, Note_on_c, 11, 45, 95
5, 101520, Note_off_c, 11, 57, 80
5, 101520, Note_off_c, 11, 52, 80
5, 101520, Note_off_c, 11, 45, 80
5, 101520, Note_on_c, 11, 57, 95
5, 101520, Note_on_c, 11, 52, 95
5, 101520, Note_on_c, 11, 45, 95
5, 101760, Note_off_c, 11, 57, 80
5, 101760, Note_off_c, 11, 52, 80
5, 101760, Note_off_c, 11, 45, 80
5, 101760, Note_on_c, 11, 59, 95
5, 101760, Note_on_c, 11, 54, 95
5, 101760, Note_on_c, 12, 47, 95
5, 102120, Pitch_bend_c, 12, 8832
5, 102150, Pitch_bend_c, 12, 9600
5, 102180, Pitch_bend_c, 12, 10240
5, 102210, Pitch_bend_c, 12, 10880
5, 102240, Note_off_c, 11, 59, 80
5, 102240, Note_off_c, 11, 54, 80
5, 102240, Pitch_bend_c, 12, 11648
5, 102240, Note_on_c, 11, 64, 95
5, 102240, Note_on_c, 11, 59, 95
5, 102480, Note_off_c, 12, 47, 80
5, 102480, Pitch_bend_c, 12, 8192
5, 102480, Note_off_c, 11, 64, 80
5, 102480, Note_off_c, 11, 59, 80
5, 102480, Note_on_c, 11, 64, 95
5, 102480, Note_on_c, 11, 59, 95
5, 102480, Note_on_c, 11, 52, 95
5, 102720, Note_off_c, 11, 64, 80
5, 102720, Note_off_c, 11, 59, 80
5, 102720, Note_off_c, 11, 52, 80
5, 103200, Note_on_c, 11, 61, 95
5, 103200, Note_on_c, 11, 56, 95
5, 103200, Note_on_c, 11, 49, 95
5, 103440, Note_off_c, 11, 61, 80
5, 103440, Note_off_c, 11, 56, 80
5, 103440, Note_off_c, 11, 49, 80
5, 103440, Note_on_c, 11, 61, 95
5, 103440, Note_on_c, 11, 56, 95
5, 103440, Note_on_c, 11, 49, 95
5, 103680, Note_off_c, 11, 61, 80
5, 103680, Note_off_c, 11, 56, 80
5, 103680, Note_off_c, 11, 49, 80
5, 104160, Note_on_c, 11, 57, 95
5, 104160, Note_on_c, 11, 52, 95
5, 104160, Note_on_c, 11, 45, 95
5, 104400, Note_off_c, 11, 57, 80
5, 104400, Note_off_c, 11, 52, 80
5, 104400, Note_off_c, 11, 45, 80
5, 104400, Note_on_c, 11, 57, 95
5, 104400, Note_on_c, 11, 52, 95
5, 104400, Note_on_c, 11, 45, 95
5, 104640, Note_off_c, 11, 57, 80
5, 104640, Note_off_c, 11, 52, 80
5, 104640, Note_off_c, 11, 45, 80
5, 105120, Note_on_c, 11, 57, 95
5, 105120, Note_on_c, 11, 52, 95
5, 105120, Note_on_c, 11, 45, 95
5, 105360, Note_off_c, 11, 57, 80
5, 105360, Note_off_c, 11, 52, 80
5, 105360, Note_off_c, 11, 45, 80
5, 105360, Note_on_c, 12, 57, 95
5, 105360, Note_on_c, 12, 52, 95
5, 105360, Note_on_c, 12, 45, 95
5, 105900, Pitch_bend_c, 12, 7552
5, 105900, Pitch_bend_c, 12, 7552
5, 105900, Pitch_bend_c, 12, 7552
5, 105945, Pitch_bend_c, 12, 6784
5, 105945, Pitch_bend_c, 12, 6784
5, 105945, Pitch_bend_c, 12, 6784
5, 105990, Pitch_bend_c, 12, 6144
5, 105990, Pitch_bend_c, 12, 6144
5, 105990, Pitch_bend_c, 12, 6144
5, 106035, Pitch_bend_c, 12, 5504
5, 106035, Pitch_bend_c, 12, 5504
5, 106035, Pitch_bend_c, 12, 5504
5, 106080, Note_off_c, 12, 57, 80
5, 106080, Pitch_bend_c, 12, 8192
5, 106080, Note_off_c, 12, 52, 80
5, 106080, Pitch_bend_c, 12, 8192
5, 106080, Note_off_c, 12, 45, 80
5, 106080, Pitch_bend_c, 12, 8192
5, 106080, Note_on_c, 11, 52, 76
5, 106080, Note_on_c, 11, 47, 76
5, 106080, Note_on_c, 11, 40, 76
5, 106320, Note_off_c, 11, 52, 80
5, 106320, Note_off_c, 11, 47, 80
5, 106320, Note_off_c, 11, 40, 80
5, 106320, Note_on_c, 11, 52, 95
5, 106320, Note_on_c, 11, 47, 95
5, 106320, Note_on_c, 11, 40, 95
5, 106560, Note_off_c, 11, 52, 80
5, 106560, Note_off_c, 11, 47, 80
5, 106560, Note_off_c, 11, 40, 80
5, 107040, Note_on_c, 11, 61, 95
5, 107040, Note_on_c, 11, 56, 95
5, 107040, Note_on_c, 11, 49, 95
5, 107280, Note_off_c, 11, 61, 80
5, 107280, Note_off_c, 11, 56, 80
5, 107280, Note_off_c, 11, 49, 80
5, 107280, Note_on_c, 11, 61, 95
5, 107280, Note_on_c, 11, 56, 95
5, 107280, Note_on_c, 11, 49, 95
5, 107520, Note_off_c, 11, 61, 80
5, 107520, Note_off_c, 11, 56, 80
5, 107520, Note_off_c, 11, 49, 80
5, 108000, Note_on_c, 11, 57, 95
5, 108000, Note_on_c, 11, 52, 95
5, 108000, Note_on_c, 11, 45, 95
5, 108240, Note_off_c, 11, 57, 80
5, 108240, Note_off_c, 11, 52, 80
5, 108240, Note_off_c, 11, 45, 80
5, 108240, Note_on_c, 11, 57, 95
5, 108240, Note_on_c, 11, 52, 95
5, 108240, Note_on_c, 11, 45, 95
5, 108480, Note_off_c, 11, 57, 80
5, 108480, Note_off_c, 11, 52, 80
5, 108480, Note_off_c, 11, 45, 80
5, 108960, Note_on_c, 11, 57, 95
5, 108960, Note_on_c, 11, 52, 95
5, 108960, Note_on_c, 11, 45, 95
5, 109200, Note_off_c, 11, 57, 80
5, 109200, Note_off_c, 11, 52, 80
5, 109200, Note_off_c, 11, 45, 80
5, 109200, Note_on_c, 11, 57, 95
5, 109200, Note_on_c, 11, 52, 95
5, 109200, Note_on_c, 11, 45, 95
5, 109440, Note_off_c, 11, 57, 80
5, 109440, Note_off_c, 11, 52, 80
5, 109440, Note_off_c, 11, 45, 80
5, 109440, Note_on_c, 11, 59, 95
5, 109440, Note_on_c, 11, 54, 95
5, 109440, Note_on_c, 11, 47, 95
5, 109920, Note_off_c, 11, 59, 80
5, 109920, Note_off_c, 11, 54, 80
5, 109920, Note_off_c, 11, 47, 80
5, 142560, Note_on_c, 11, 64, 79
5, 142560, Note_on_c, 11, 59, 79
5, 142560, Note_on_c, 11, 52, 79
5, 142800, Note_off_c, 11, 64, 80
5, 142800, Note_off_c, 11, 59, 80
5, 142800, Note_off_c, 11, 52, 80
5, 142800, Note_on_c, 11, 64, 79
5, 142800, Note_on_c, 11, 59, 79
5, 142800, Note_on_c, 11, 52, 79
5, 143040, Note_off_c, 11, 64, 80
5, 143040, Note_off_c, 11, 59, 80
5, 143040, Note_off_c, 11, 52, 80
5, 143520, Note_on_c, 11, 64, 79
5, 143520, Note_on_c, 11, 59, 79
5, 143520, Note_on_c, 11, 52, 79
5, 143760, Note_off_c, 11, 64, 80
5, 143760, Note_off_c, 11, 59, 80
5, 143760, Note_off_c, 11, 52, 80
5, 143760, Note_on_c, 11, 64, 79
5, 143760, Note_on_c, 11, 59, 79
5, 143760, Note_on_c, 11, 52, 79
5, 144000, Note_off_c, 11, 64, 80
5, 144000, Note_off_c, 11, 59, 80
5, 144000, Note_off_c, 11, 52, 80
5, 144480, Note_on_c, 11, 57, 79
5, 144480, Note_on_c, 11, 52, 79
5, 144480, Note_on_c, 11, 45, 79
5, 144720, Note_off_c, 11, 57, 80
5, 144720, Note_off_c, 11, 52, 80
5, 144720, Note_off_c, 11, 45, 80
5, 144720, Note_on_c, 11, 57, 79
5, 144720, Note_on_c, 11, 52, 79
5, 144720, Note_on_c, 11, 45, 79
5, 144960, Note_off_c, 11, 57, 80
5, 144960, Note_off_c, 11, 52, 80
5, 144960, Note_off_c, 11, 45, 80
5, 145440, Note_on_c, 11, 57, 79
5, 145440, Note_on_c, 11, 52, 79
5, 145440, Note_on_c, 11, 45, 79
5, 145680, Note_off_c, 11, 57, 80
5, 145680, Note_off_c, 11, 52, 80
5, 145680, Note_off_c, 11, 45, 80
5, 145680, Note_on_c, 11, 57, 79
5, 145680, Note_on_c, 11, 52, 79
5, 145680, Note_on_c, 11, 45, 79
5, 145920, Note_off_c, 11, 57, 80
5, 145920, Note_off_c, 11, 52, 80
5, 145920, Note_off_c, 11, 45, 80
5, 146400, Note_on_c, 11, 61, 79
5, 146400, Note_on_c, 11, 56, 79
5, 146400, Note_on_c, 11, 49, 79
5, 146640, Note_off_c, 11, 61, 80
5, 146640, Note_off_c, 11, 56, 80
5, 146640, Note_off_c, 11, 49, 80
5, 146640, Note_on_c, 11, 61, 79
5, 146640, Note_on_c, 11, 56, 79
5, 146640, Note_on_c, 11, 49, 79
5, 146880, Note_off_c, 11, 61, 80
5, 146880, Note_off_c, 11, 56, 80
5, 146880, Note_off_c, 11, 49, 80
5, 147360, Note_on_c, 11, 59, 79
5, 147360, Note_on_c, 11, 54, 79
5, 147360, Note_on_c, 11, 47, 79
5, 147600, Note_off_c, 11, 59, 80
5, 147600, Note_off_c, 11, 54, 80
5, 147600, Note_off_c, 11, 47, 80
5, 147600, Note_on_c, 11, 59, 79
5, 147600, Note_on_c, 11, 54, 79
5, 147600, Note_on_c, 11, 47, 79
5, 147840, Note_off_c, 11, 59, 80
5, 147840, Note_off_c, 11, 54, 80
5, 147840, Note_off_c, 11, 47, 80
5, 148320, Note_on_c, 11, 64, 79
5, 148320, Note_on_c, 11, 59, 79
5, 148320, Note_on_c, 11, 52, 79
5, 148560, Note_off_c, 11, 64, 80
5, 148560, Note_off_c, 11, 59, 80
5, 148560, Note_off_c, 11, 52, 80
5, 148560, Note_on_c, 11, 64, 79
5, 148560, Note_on_c, 11, 59, 79
5, 148560, Note_on_c, 11, 52, 79
5, 148800, Note_off_c, 11, 64, 80
5, 148800, Note_off_c, 11, 59, 80
5, 148800, Note_off_c, 11, 52, 80
5, 149280, Note_on_c, 11, 64, 79
5, 149280, Note_on_c, 11, 59, 79
5, 149280, Note_on_c, 11, 52, 79
5, 149520, Note_off_c, 11, 64, 80
5, 149520, Note_off_c, 11, 59, 80
5, 149520, Note_off_c, 11, 52, 80
5, 149520, Note_on_c, 11, 64, 79
5, 149520, Note_on_c, 11, 59, 79
5, 149520, Note_on_c, 11, 52, 79
5, 149760, Note_off_c, 11, 64, 80
5, 149760, Note_off_c, 11, 59, 80
5, 149760, Note_off_c, 11, 52, 80
5, 150240, Note_on_c, 11, 64, 79
5, 150240, Note_on_c, 11, 59, 79
5, 150240, Note_on_c, 11, 52, 79
5, 150480, Note_off_c, 11, 64, 80
5, 150480, Note_off_c, 11, 59, 80
5, 150480, Note_off_c, 11, 52, 80
5, 150480, Note_on_c, 11, 64, 79
5, 150480, Note_on_c, 11, 59, 79
5, 150480, Note_on_c, 11, 52, 79
5, 150720, Note_off_c, 11, 64, 80
5, 150720, Note_off_c, 11, 59, 80
5, 150720, Note_off_c, 11, 52, 80
5, 151200, Note_on_c, 11, 64, 79
5, 151200, Note_on_c, 11, 59, 79
5, 151200, Note_on_c, 11, 52, 79
5, 151440, Note_off_c, 11, 64, 80
5, 151440, Note_off_c, 11, 59, 80
5, 151440, Note_off_c, 11, 52, 80
5, 151440, Note_on_c, 11, 64, 79
5, 151440, Note_on_c, 11, 59, 79
5, 151440, Note_on_c, 11, 52, 79
5, 151680, Note_off_c, 11, 64, 80
5, 151680, Note_off_c, 11, 59, 80
5, 151680, Note_off_c, 11, 52, 80
5, 152160, Note_on_c, 11, 57, 79
5, 152160, Note_on_c, 11, 52, 79
5, 152160, Note_on_c, 11, 45, 79
5, 152400, Note_off_c, 11, 57, 80
5, 152400, Note_off_c, 11, 52, 80
5, 152400, Note_off_c, 11, 45, 80
5, 152400, Note_on_c, 11, 57, 79
5, 152400, Note_on_c, 11, 52, 79
5, 152400, Note_on_c, 11, 45, 79
5, 152640, Note_off_c, 11, 57, 80
5, 152640, Note_off_c, 11, 52, 80
5, 152640, Note_off_c, 11, 45, 80
5, 153120, Note_on_c, 11, 57, 79
5, 153120, Note_on_c, 11, 52, 79
5, 153120, Note_on_c, 11, 45, 79
5, 153360, Note_off_c, 11, 57, 80
5, 153360, Note_off_c, 11, 52, 80
5, 153360, Note_off_c, 11, 45, 80
5, 153360, Note_on_c, 11, 57, 79
5, 153360, Note_on_c, 11, 52, 79
5, 153360, Note_on_c, 11, 45, 79
5, 153600, Note_off_c, 11, 57, 80
5, 153600, Note_off_c, 11, 52, 80
5, 153600, Note_off_c, 11, 45, 80
5, 154080, Note_on_c, 11, 61, 79
5, 154080, Note_on_c, 11, 56, 79
5, 154080, Note_on_c, 11, 49, 79
5, 154320, Note_off_c, 11, 61, 80
5, 154320, Note_off_c, 11, 56, 80
5, 154320, Note_off_c, 11, 49, 80
5, 154320, Note_on_c, 11, 61, 79
5, 154320, Note_on_c, 11, 56, 79
5, 154320, Note_on_c, 11, 49, 79
5, 154560, Note_off_c, 11, 61, 80
5, 154560, Note_off_c, 11, 56, 80
5, 154560, Note_off_c, 11, 49, 80
5, 155040, Note_on_c, 11, 59, 79
5, 155040, Note_on_c, 11, 54, 79
5, 155040, Note_on_c, 11, 47, 79
5, 155280, Note_off_c, 11, 59, 80
5, 155280, Note_off_c, 11, 54, 80
5, 155280, Note_off_c, 11, 47, 80
5, 155280, Note_on_c, 11, 59, 79
5, 155280, Note_on_c, 11, 54, 79
5, 155280, Note_on_c, 11, 47, 79
5, 155520, Note_off_c, 11, 59, 80
5, 155520, Note_off_c, 11, 54, 80
5, 155520, Note_off_c, 11, 47, 80
5, 156000, Note_on_c, 11, 64, 95
5, 156000, Note_on_c, 11, 59, 95
5, 156000, Note_on_c, 11, 52, 95
5, 156240, Note_off_c, 11, 64, 80
5, 156240, Note_off_c, 11, 59, 80
5, 156240, Note_off_c, 11, 52, 80
5, 156240, Note_on_c, 11, 64, 95
5, 156240, Note_on_c, 11, 59, 95
5, 156240, Note_on_c, 11, 52, 95
5, 156480, Note_off_c, 11, 64, 80
5, 156480, Note_off_c, 11, 59, 80
5, 156480, Note_off_c, 11, 52, 80
5, 156960, Note_on_c, 11, 64, 95
5, 156960, Note_on_c, 11, 59, 95
5, 156960, Note_on_c, 11, 52, 95
5, 157200, Note_off_c, 11, 64, 80
5, 157200, Note_off_c, 11, 59, 80
5, 157200, Note_off_c, 11, 52, 80
5, 157200, Note_on_c, 11, 64, 95
5, 157200, Note_on_c, 11, 59, 95
5, 157200, Note_on_c, 11, 52, 95
5, 157440, Note_off_c, 11, 64, 80
5, 157440, Note_off_c, 11, 59, 80
5, 157440, Note_off_c, 11, 52, 80
5, 157920, Note_on_c, 11, 61, 79
5, 157920, Note_on_c, 11, 56, 79
5, 157920, Note_on_c, 11, 49, 79
5, 158160, Note_off_c, 11, 61, 80
5, 158160, Note_off_c, 11, 56, 80
5, 158160, Note_off_c, 11, 49, 80
5, 158160, Note_on_c, 11, 61, 79
5, 158160, Note_on_c, 11, 56, 79
5, 158160, Note_on_c, 11, 49, 79
5, 158400, Note_off_c, 11, 61, 80
5, 158400, Note_off_c, 11, 56, 80
5, 158400, Note_off_c, 11, 49, 80
5, 158880, Note_on_c, 11, 59, 79
5, 158880, Note_on_c, 11, 54, 79
5, 158880, Note_on_c, 11, 47, 79
5, 159120, Note_off_c, 11, 59, 80
5, 159120, Note_off_c, 11, 54, 80
5, 159120, Note_off_c, 11, 47, 80
5, 159120, Note_on_c, 11, 59, 79
5, 159120, Note_on_c, 11, 54, 79
5, 159120, Note_on_c, 11, 47, 79
5, 159360, Note_off_c, 11, 59, 80
5, 159360, Note_off_c, 11, 54, 80
5, 159360, Note_off_c, 11, 47, 80
5, 159840, Note_on_c, 11, 64, 95
5, 159840, Note_on_c, 11, 59, 95
5, 159840, Note_on_c, 11, 52, 95
5, 160080, Note_off_c, 11, 64, 80
5, 160080, Note_off_c, 11, 59, 80
5, 160080, Note_off_c, 11, 52, 80
5, 160080, Note_on_c, 11, 64, 95
5, 160080, Note_on_c, 11, 59, 95
5, 160080, Note_on_c, 11, 52, 95
5, 160320, Note_off_c, 11, 64, 80
5, 160320, Note_off_c, 11, 59, 80
5, 160320, Note_off_c, 11, 52, 80
5, 160800, Note_on_c, 11, 64, 95
5, 160800, Note_on_c, 11, 59, 95
5, 160800, Note_on_c, 11, 52, 95
5, 161040, Note_off_c, 11, 64, 80
5, 161040, Note_off_c, 11, 59, 80
5, 161040, Note_off_c, 11, 52, 80
5, 161040, Note_on_c, 11, 64, 95
5, 161040, Note_on_c, 11, 59, 95
5, 161040, Note_on_c, 11, 52, 95
5, 161280, Note_off_c, 11, 64, 80
5, 161280, Note_off_c, 11, 59, 80
5, 161280, Note_off_c, 11, 52, 80
5, 161760, Note_on_c, 11, 61, 95
5, 161760, Note_on_c, 11, 56, 95
5, 161760, Note_on_c, 11, 49, 95
5, 162000, Note_off_c, 11, 61, 80
5, 162000, Note_off_c, 11, 56, 80
5, 162000, Note_off_c, 11, 49, 80
5, 162000, Note_on_c, 11, 61, 95
5, 162000, Note_on_c, 11, 56, 95
5, 162000, Note_on_c, 11, 49, 95
5, 162240, Note_off_c, 11, 61, 80
5, 162240, Note_off_c, 11, 56, 80
5, 162240, Note_off_c, 11, 49, 80
5, 162240, Note_on_c, 11, 61, 95
5, 162240, Note_on_c, 11, 56, 95
5, 162240, Note_on_c, 11, 49, 95
5, 162480, Note_off_c, 11, 61, 80
5, 162480, Note_off_c, 11, 56, 80
5, 162480, Note_off_c, 11, 49, 80
5, 162480, Note_on_c, 11, 61, 95
5, 162480, Note_on_c, 11, 56, 95
5, 162480, Note_on_c, 11, 49, 95
5, 162720, Note_off_c, 11, 61, 80
5, 162720, Note_off_c, 11, 56, 80
5, 162720, Note_off_c, 11, 49, 80
5, 162720, Note_on_c, 11, 59, 95
5, 162720, Note_on_c, 11, 54, 95
5, 162720, Note_on_c, 11, 47, 95
5, 162960, Note_off_c, 11, 59, 80
5, 162960, Note_off_c, 11, 54, 80
5, 162960, Note_off_c, 11, 47, 80
5, 162960, Note_on_c, 11, 59, 95
5, 162960, Note_on_c, 11, 54, 95
5, 162960, Note_on_c, 11, 47, 95
5, 163200, Note_off_c, 11, 59, 80
5, 163200, Note_off_c, 11, 54, 80
5, 163200, Note_off_c, 11, 47, 80
5, 163200, Note_on_c, 11, 59, 95
5, 163200, Note_on_c, 11, 54, 95
5, 163200, Note_on_c, 11, 47, 95
5, 163440, Note_off_c, 11, 59, 80
5, 163440, Note_off_c, 11, 54, 80
5, 163440, Note_off_c, 11, 47, 80
5, 163440, Note_on_c, 11, 59, 95
5, 163440, Note_on_c, 11, 54, 95
5, 163440, Note_on_c, 11, 47, 95
5, 163680, Note_off_c, 11, 59, 80
5, 163680, Note_off_c, 11, 54, 80
5, 163680, Note_off_c, 11, 47, 80
5, 163680, End_track
6, 0, Start_track
6, 0, Title_t, "Keyboard (Toad)"
6, 0, Control_c, 5, 100, 0
6, 0, Control_c, 5, 101, 0
6, 0, Control_c, 5, 6, 12
6, 0, Pitch_bend_c, 5, 8192
6, 0, Control_c, 5, 101, 0
6, 0, Control_c, 5, 100, 1
6, 0, Control_c, 5, 6, 64
6, 0, Control_c, 5, 38, 0
6, 0, Control_c, 5, 101, 127
6, 0, Control_c, 5, 100, 127
6, 0, Control_c, 4, 100, 0
6, 0, Control_c, 4, 101, 0
6, 0, Control_c, 4, 6, 12
6, 0, Pitch_bend_c, 4, 8192
6, 0, Control_c, 4, 101, 0
6, 0, Control_c, 4, 100, 1
6, 0, Control_c, 4, 6, 64
6, 0, Control_c, 4, 38, 0
6, 0, Control_c, 4, 101, 127
6, 0, Control_c, 4, 100, 127
6, 0, Control_c, 5, 101, 0
6, 0, Control_c, 5, 100, 2
6, 0, Control_c, 5, 6, 64
6, 0, Control_c, 5, 101, 127
6, 0, Control_c, 5, 100, 127
6, 0, Control_c, 4, 101, 0
6, 0, Control_c, 4, 100, 2
6, 0, Control_c, 4, 6, 64
6, 0, Control_c, 4, 101, 127
6, 0, Control_c, 4, 100, 127
6, 0, Program_c, 5, 26
6, 0, Program_c, 4, 26
6, 0, Control_c, 5, 0, 0
6, 0, Control_c, 4, 0, 0
6, 0, Control_c, 5, 7, 112
6, 0, Control_c, 4, 7, 112
6, 0, Control_c, 5, 10, 64
6, 0, Control_c, 4, 10, 64
6, 0, Control_c, 5, 93, 0
6, 0, Control_c, 4, 93, 0
6, 0, Control_c, 5, 91, 0
6, 0, Control_c, 4, 91, 0
6, 0, Control_c, 5, 92, 0
6, 0, Control_c, 4, 92, 0
6, 0, Control_c, 5, 95, 0
6, 0, Control_c, 4, 95, 0
6, 2400, Note_on_c, 4, 52, 95
6, 2520, Note_off_c, 4, 52, 80
6, 2640, Note_on_c, 4, 52, 95
6, 2880, Note_off_c, 4, 52, 80
6, 2880, Note_on_c, 4, 64, 95
6, 3360, Note_off_c, 4, 64, 80
6, 3360, Note_on_c, 4, 49, 95
6, 3480, Note_off_c, 4, 49, 80
6, 3600, Note_on_c, 4, 49, 95
6, 3840, Note_off_c, 4, 49, 80
6, 3840, Note_on_c, 4, 61, 95
6, 4320, Note_off_c, 4, 61, 80
6, 4320, Note_on_c, 4, 45, 95
6, 4440, Note_off_c, 4, 45, 80
6, 4560, Note_on_c, 4, 45, 95
6, 4800, Note_off_c, 4, 45, 80
6, 4800, Note_on_c, 4, 61, 95
6, 5280, Note_off_c, 4, 61, 80
6, 5280, Note_on_c, 4, 45, 95
6, 5400, Note_off_c, 4, 45, 80
6, 5520, Note_on_c, 4, 45, 95
6, 5760, Note_off_c, 4, 45, 80
6, 5760, Note_on_c, 4, 61, 95
6, 6240, Note_off_c, 4, 61, 80
6, 6240, Note_on_c, 4, 52, 95
6, 6360, Note_off_c, 4, 52, 80
6, 6480, Note_on_c, 4, 52, 95
6, 6720, Note_off_c, 4, 52, 80
6, 6720, Note_on_c, 4, 64, 95
6, 7200, Note_off_c, 4, 64, 80
6, 7200, Note_on_c, 4, 49, 95
6, 7320, Note_off_c, 4, 49, 80
6, 7440, Note_on_c, 4, 49, 95
6, 7680, Note_off_c, 4, 49, 80
6, 7680, Note_on_c, 4, 61, 95
6, 8160, Note_off_c, 4, 61, 80
6, 8160, Note_on_c, 4, 45, 95
6, 8280, Note_off_c, 4, 45, 80
6, 8400, Note_on_c, 4, 45, 95
6, 8640, Note_off_c, 4, 45, 80
6, 8640, Note_on_c, 4, 61, 95
6, 9120, Note_off_c, 4, 61, 80
6, 9120, Note_on_c, 4, 45, 95
6, 9240, Note_off_c, 4, 45, 80
6, 9360, Note_on_c, 4, 45, 95
6, 9600, Note_off_c, 4, 45, 80
6, 9600, Note_on_c, 4, 61, 95
6, 10080, Note_off_c, 4, 61, 80
6, 10080, Note_on_c, 4, 52, 95
6, 10200, Note_off_c, 4, 52, 80
6, 10320, Note_on_c, 4, 52, 95
6, 10560, Note_off_c, 4, 52, 80
6, 10560, Note_on_c, 4, 64, 95
6, 11040, Note_off_c, 4, 64, 80
6, 11040, Note_on_c, 4, 49, 95
6, 11160, Note_off_c, 4, 49, 80
6, 11280, Note_on_c, 4, 49, 95
6, 11520, Note_off_c, 4, 49, 80
6, 11520, Note_on_c, 4, 61, 95
6, 12000, Note_off_c, 4, 61, 80
6, 12000, Note_on_c, 4, 45, 95
6, 12120, Note_off_c, 4, 45, 80
6, 12240, Note_on_c, 4, 45, 95
6, 12480, Note_off_c, 4, 45, 80
6, 12480, Note_on_c, 4, 61, 95
6, 12960, Note_off_c, 4, 61, 80
6, 12960, Note_on_c, 4, 45, 95
6, 13080, Note_off_c, 4, 45, 80
6, 13200, Note_on_c, 4, 45, 95
6, 13440, Note_off_c, 4, 45, 80
6, 13440, Note_on_c, 4, 61, 95
6, 13920, Note_off_c, 4, 61, 80
6, 13920, Note_on_c, 4, 52, 95
6, 14040, Note_off_c, 4, 52, 80
6, 14160, Note_on_c, 4, 52, 95
6, 14400, Note_off_c, 4, 52, 80
6, 14400, Note_on_c, 4, 64, 95
6, 14880, Note_off_c, 4, 64, 80
6, 14880, Note_on_c, 4, 49, 95
6, 15000, Note_off_c, 4, 49, 80
6, 15120, Note_on_c, 4, 49, 95
6, 15360, Note_off_c, 4, 49, 80
6, 15360, Note_on_c, 4, 61, 95
6, 15840, Note_off_c, 4, 61, 80
6, 15840, Note_on_c, 4, 45, 95
6, 15960, Note_off_c, 4, 45, 80
6, 16080, Note_on_c, 4, 45, 95
6, 16320, Note_off_c, 4, 45, 80
6, 16320, Note_on_c, 4, 61, 95
6, 16800, Note_off_c, 4, 61, 80
6, 16800, Note_on_c, 4, 45, 95
6, 16920, Note_off_c, 4, 45, 80
6, 17040, Note_on_c, 4, 45, 95
6, 17280, Note_off_c, 4, 45, 80
6, 17280, Note_on_c, 4, 61, 95
6, 17760, Note_off_c, 4, 61, 80
6, 17760, Note_on_c, 4, 52, 95
6, 17880, Note_off_c, 4, 52, 80
6, 18000, Note_on_c, 4, 52, 95
6, 18240, Note_off_c, 4, 52, 80
6, 18240, Note_on_c, 4, 64, 95
6, 18720, Note_off_c, 4, 64, 80
6, 18720, Note_on_c, 4, 49, 95
6, 18840, Note_off_c, 4, 49, 80
6, 18960, Note_on_c, 4, 49, 95
6, 19200, Note_off_c, 4, 49, 80
6, 19200, Note_on_c, 4, 61, 95
6, 19680, Note_off_c, 4, 61, 80
6, 19680, Note_on_c, 4, 45, 95
6, 19800, Note_off_c, 4, 45, 80
6, 19920, Note_on_c, 4, 45, 95
6, 20160, Note_off_c, 4, 45, 80
6, 20160, Note_on_c, 4, 61, 95
6, 20640, Note_off_c, 4, 61, 80
6, 20640, Note_on_c, 4, 45, 95
6, 20760, Note_off_c, 4, 45, 80
6, 20880, Note_on_c, 4, 45, 95
6, 21120, Note_off_c, 4, 45, 80
6, 21120, Note_on_c, 4, 61, 95
6, 21600, Note_off_c, 4, 61, 80
6, 21600, Note_on_c, 4, 52, 95
6, 21720, Note_off_c, 4, 52, 80
6, 21840, Note_on_c, 4, 52, 95
6, 22080, Note_off_c, 4, 52, 80
6, 22080, Note_on_c, 4, 64, 95
6, 22560, Note_off_c, 4, 64, 80
6, 22560, Note_on_c, 4, 49, 95
6, 22680, Note_off_c, 4, 49, 80
6, 22800, Note_on_c, 4, 49, 95
6, 23040, Note_off_c, 4, 49, 80
6, 23040, Note_on_c, 4, 61, 95
6, 23520, Note_off_c, 4, 61, 80
6, 23520, Note_on_c, 4, 45, 95
6, 23640, Note_off_c, 4, 45, 80
6, 23760, Note_on_c, 4, 45, 95
6, 24000, Note_off_c, 4, 45, 80
6, 24000, Note_on_c, 4, 61, 95
6, 24480, Note_off_c, 4, 61, 80
6, 24480, Note_on_c, 4, 45, 95
6, 24600, Note_off_c, 4, 45, 80
6, 24720, Note_on_c, 4, 45, 95
6, 24960, Note_off_c, 4, 45, 80
6, 24960, Note_on_c, 4, 61, 95
6, 25440, Note_off_c, 4, 61, 80
6, 25440, Note_on_c, 4, 52, 95
6, 25560, Note_off_c, 4, 52, 80
6, 25680, Note_on_c, 4, 52, 95
6, 25920, Note_off_c, 4, 52, 80
6, 25920, Note_on_c, 4, 64, 95
6, 26400, Note_off_c, 4, 64, 80
6, 26400, Note_on_c, 4, 49, 95
6, 26520, Note_off_c, 4, 49, 80
6, 26640, Note_on_c, 4, 49, 95
6, 26880, Note_off_c, 4, 49, 80
6, 26880, Note_on_c, 4, 61, 95
6, 27360, Note_off_c, 4, 61, 80
6, 27360, Note_on_c, 4, 45, 95
6, 27480, Note_off_c, 4, 45, 80
6, 27600, Note_on_c, 4, 45, 95
6, 27840, Note_off_c, 4, 45, 80
6, 27840, Note_on_c, 4, 61, 95
6, 28320, Note_off_c, 4, 61, 80
6, 28320, Note_on_c, 4, 45, 95
6, 28440, Note_off_c, 4, 45, 80
6, 28560, Note_on_c, 4, 45, 95
6, 28800, Note_off_c, 4, 45, 80
6, 28800, Note_on_c, 4, 61, 95
6, 29280, Note_off_c, 4, 61, 80
6, 29280, Note_on_c, 4, 52, 95
6, 29400, Note_off_c, 4, 52, 80
6, 29520, Note_on_c, 4, 52, 95
6, 29760, Note_off_c, 4, 52, 80
6, 29760, Note_on_c, 4, 64, 95
6, 30240, Note_off_c, 4, 64, 80
6, 30240, Note_on_c, 4, 49, 95
6, 30360, Note_off_c, 4, 49, 80
6, 30480, Note_on_c, 4, 49, 95
6, 30720, Note_off_c, 4, 49, 80
6, 30720, Note_on_c, 4, 61, 95
6, 31200, Note_off_c, 4, 61, 80
6, 31200, Note_on_c, 4, 45, 95
6, 31320, Note_off_c, 4, 45, 80
6, 31440, Note_on_c, 4, 45, 95
6, 31680, Note_off_c, 4, 45, 80
6, 31680, Note_on_c, 4, 61, 95
6, 32160, Note_off_c, 4, 61, 80
6, 32160, Note_on_c, 4, 45, 95
6, 32280, Note_off_c, 4, 45, 80
6, 32400, Note_on_c, 4, 45, 95
6, 32640, Note_off_c, 4, 45, 80
6, 32640, Note_on_c, 4, 61, 95
6, 33120, Note_off_c, 4, 61, 80
6, 33120, Note_on_c, 4, 52, 95
6, 33240, Note_off_c, 4, 52, 80
6, 33360, Note_on_c, 4, 52, 95
6, 33600, Note_off_c, 4, 52, 80
6, 33600, Note_on_c, 4, 64, 95
6, 34080, Note_off_c, 4, 64, 80
6, 34080, Note_on_c, 4, 49, 95
6, 34200, Note_off_c, 4, 49, 80
6, 34320, Note_on_c, 4, 49, 95
6, 34560, Note_off_c, 4, 49, 80
6, 34560, Note_on_c, 4, 61, 95
6, 35040, Note_off_c, 4, 61, 80
6, 35040, Note_on_c, 4, 45, 95
6, 35160, Note_off_c, 4, 45, 80
6, 35280, Note_on_c, 4, 45, 95
6, 35520, Note_off_c, 4, 45, 80
6, 35520, Note_on_c, 4, 61, 95
6, 36000, Note_off_c, 4, 61, 80
6, 36000, Note_on_c, 4, 45, 95
6, 36120, Note_off_c, 4, 45, 80
6, 36240, Note_on_c, 4, 45, 95
6, 36480, Note_off_c, 4, 45, 80
6, 36480, Note_on_c, 4, 61, 95
6, 36960, Note_off_c, 4, 61, 80
6, 36960, Note_on_c, 4, 52, 95
6, 37080, Note_off_c, 4, 52, 80
6, 37200, Note_on_c, 4, 52, 95
6, 37440, Note_off_c, 4, 52, 80
6, 37440, Note_on_c, 4, 64, 95
6, 37920, Note_off_c, 4, 64, 80
6, 37920, Note_on_c, 4, 49, 95
6, 38040, Note_off_c, 4, 49, 80
6, 38160, Note_on_c, 4, 49, 95
6, 38400, Note_off_c, 4, 49, 80
6, 38400, Note_on_c, 4, 61, 95
6, 38880, Note_off_c, 4, 61, 80
6, 38880, Note_on_c, 4, 45, 95
6, 39000, Note_off_c, 4, 45, 80
6, 39120, Note_on_c, 4, 45, 95
6, 39360, Note_off_c, 4, 45, 80
6, 39360, Note_on_c, 4, 61, 95
6, 39840, Note_off_c, 4, 61, 80
6, 39840, Note_on_c, 4, 45, 95
6, 39960, Note_off_c, 4, 45, 80
6, 40080, Note_on_c, 4, 45, 95
6, 40320, Note_off_c, 4, 45, 80
6, 40320, Note_on_c, 4, 61, 95
6, 40800, Note_off_c, 4, 61, 80
6, 40800, Note_on_c, 4, 52, 95
6, 40920, Note_off_c, 4, 52, 80
6, 41040, Note_on_c, 4, 52, 95
6, 41280, Note_off_c, 4, 52, 80
6, 41280, Note_on_c, 4, 64, 95
6, 41760, Note_off_c, 4, 64, 80
6, 41760, Note_on_c, 4, 49, 95
6, 41880, Note_off_c, 4, 49, 80
6, 42000, Note_on_c, 4, 49, 95
6, 42240, Note_off_c, 4, 49, 80
6, 42240, Note_on_c, 4, 61, 95
6, 42720, Note_off_c, 4, 61, 80
6, 42720, Note_on_c, 4, 45, 95
6, 42840, Note_off_c, 4, 45, 80
6, 42960, Note_on_c, 4, 45, 95
6, 43200, Note_off_c, 4, 45, 80
6, 43200, Note_on_c, 4, 61, 95
6, 43680, Note_off_c, 4, 61, 80
6, 43680, Note_on_c, 4, 45, 95
6, 43800, Note_off_c, 4, 45, 80
6, 43920, Note_on_c, 4, 45, 95
6, 44160, Note_off_c, 4, 45, 80
6, 44160, Note_on_c, 4, 61, 95
6, 44640, Note_off_c, 4, 61, 80
6, 44640, Note_on_c, 4, 52, 95
6, 44760, Note_off_c, 4, 52, 80
6, 44880, Note_on_c, 4, 52, 95
6, 45120, Note_off_c, 4, 52, 80
6, 45120, Note_on_c, 4, 64, 95
6, 45600, Note_off_c, 4, 64, 80
6, 45600, Note_on_c, 4, 49, 95
6, 45720, Note_off_c, 4, 49, 80
6, 45840, Note_on_c, 4, 49, 95
6, 46080, Note_off_c, 4, 49, 80
6, 46080, Note_on_c, 4, 61, 95
6, 46560, Note_off_c, 4, 61, 80
6, 46560, Note_on_c, 4, 45, 95
6, 46680, Note_off_c, 4, 45, 80
6, 46800, Note_on_c, 4, 45, 95
6, 47040, Note_off_c, 4, 45, 80
6, 47040, Note_on_c, 4, 61, 95
6, 47520, Note_off_c, 4, 61, 80
6, 47520, Note_on_c, 4, 45, 95
6, 47640, Note_off_c, 4, 45, 80
6, 47760, Note_on_c, 4, 45, 95
6, 48000, Note_off_c, 4, 45, 80
6, 48000, Note_on_c, 4, 61, 95
6, 48480, Note_off_c, 4, 61, 80
6, 48480, Control_c, 4, 7, 64
6, 48480, Control_c, 5, 7, 64
6, 48480, Note_on_c, 4, 47, 95
6, 48720, Note_off_c, 4, 47, 80
6, 48720, Note_on_c, 4, 59, 95
6, 48960, Note_off_c, 4, 59, 80
6, 48960, Note_on_c, 4, 64, 95
6, 49200, Note_off_c, 4, 64, 80
6, 49200, Note_on_c, 4, 68, 95
6, 49680, Note_off_c, 4, 68, 80
6, 49680, Note_on_c, 4, 64, 95
6, 50160, Note_off_c, 4, 64, 80
6, 50160, Note_on_c, 4, 59, 95
6, 50400, Note_off_c, 4, 59, 80
6, 50400, Note_on_c, 4, 47, 95
6, 50640, Note_off_c, 4, 47, 80
6, 50640, Note_on_c, 4, 54, 95
6, 50880, Note_off_c, 4, 54, 80
6, 50880, Note_on_c, 4, 59, 95
6, 51120, Note_off_c, 4, 59, 80
6, 51120, Note_on_c, 4, 63, 95
6, 51600, Note_off_c, 4, 63, 80
6, 51600, Note_on_c, 4, 59, 95
6, 52080, Note_off_c, 4, 59, 80
6, 52080, Note_on_c, 4, 56, 95
6, 52320, Note_off_c, 4, 56, 80
6, 52320, Note_on_c, 4, 52, 95
6, 52560, Note_off_c, 4, 52, 80
6, 52560, Note_on_c, 4, 59, 95
6, 52800, Note_off_c, 4, 59, 80
6, 52800, Note_on_c, 4, 64, 95
6, 53040, Note_off_c, 4, 64, 80
6, 53040, Note_on_c, 4, 68, 95
6, 53520, Note_off_c, 4, 68, 80
6, 53520, Note_on_c, 4, 64, 95
6, 54000, Note_off_c, 4, 64, 80
6, 54000, Note_on_c, 4, 59, 95
6, 54240, Note_off_c, 4, 59, 80
6, 54240, Note_on_c, 4, 47, 95
6, 54480, Note_off_c, 4, 47, 80
6, 54480, Note_on_c, 4, 52, 95
6, 54720, Note_off_c, 4, 52, 80
6, 54720, Note_on_c, 4, 59, 95
6, 54960, Note_off_c, 4, 59, 80
6, 54960, Note_on_c, 4, 64, 95
6, 55680, Note_off_c, 4, 64, 80
6, 86400, Note_on_c, 4, 61, 95
6, 86880, Note_off_c, 4, 61, 80
6, 86880, Control_c, 4, 7, 64
6, 86880, Control_c, 5, 7, 64
6, 86880, Note_on_c, 4, 47, 95
6, 87120, Note_off_c, 4, 47, 80
6, 87120, Note_on_c, 4, 59, 95
6, 87360, Note_off_c, 4, 59, 80
6, 87360, Note_on_c, 4, 64, 95
6, 87600, Note_off_c, 4, 64, 80
6, 87600, Note_on_c, 4, 68, 95
6, 88080, Note_off_c, 4, 68, 80
6, 88080, Note_on_c, 4, 64, 95
6, 88560, Note_off_c, 4, 64, 80
6, 88560, Note_on_c, 4, 59, 95
6, 88800, Note_off_c, 4, 59, 80
6, 88800, Note_on_c, 4, 47, 95
6, 89040, Note_off_c, 4, 47, 80
6, 89040, Note_on_c, 4, 54, 95
6, 89280, Note_off_c, 4, 54, 80
6, 89280, Note_on_c, 4, 59, 95
6, 89520, Note_off_c, 4, 59, 80
6, 89520, Note_on_c, 4, 63, 95
6, 90000, Note_off_c, 4, 63, 80
6, 90000, Note_on_c, 4, 59, 95
6, 90480, Note_off_c, 4, 59, 80
6, 90480, Note_on_c, 4, 56, 95
6, 90720, Note_off_c, 4, 56, 80
6, 90720, Note_on_c, 4, 52, 95
6, 90960, Note_off_c, 4, 52, 80
6, 90960, Note_on_c, 4, 59, 95
6, 91200, Note_off_c, 4, 59, 80
6, 91200, Note_on_c, 4, 64, 95
6, 91440, Note_off_c, 4, 64, 80
6, 91440, Note_on_c, 4, 68, 95
6, 91920, Note_off_c, 4, 68, 80
6, 91920, Note_on_c, 4, 64, 95
6, 92400, Note_off_c, 4, 64, 80
6, 92400, Note_on_c, 4, 59, 95
6, 92640, Note_off_c, 4, 59, 80
6, 92640, Note_on_c, 4, 47, 95
6, 92880, Note_off_c, 4, 47, 80
6, 92880, Note_on_c, 4, 52, 95
6, 93120, Note_off_c, 4, 52, 80
6, 93120, Note_on_c, 4, 59, 95
6, 93360, Note_off_c, 4, 59, 80
6, 93360, Note_on_c, 4, 64, 95
6, 94080, Note_off_c, 4, 64, 80
6, 109920, Note_on_c, 4, 64, 95
6, 109920, Note_on_c, 4, 61, 95
6, 109920, Note_on_c, 4, 56, 95
6, 109920, Note_on_c, 4, 49, 95
6, 111360, Note_off_c, 4, 64, 80
6, 111360, Note_off_c, 4, 61, 80
6, 111360, Note_off_c, 4, 56, 80
6, 111360, Note_off_c, 4, 49, 80
6, 111840, Note_on_c, 4, 61, 95
6, 111840, Note_on_c, 4, 57, 95
6, 111840, Note_on_c, 4, 52, 95
6, 111840, Note_on_c, 4, 45, 95
6, 113280, Note_off_c, 4, 61, 80
6, 113280, Note_off_c, 4, 57, 80
6, 113280, Note_off_c, 4, 52, 80
6, 113280, Note_off_c, 4, 45, 80
6, 113760, Note_on_c, 4, 59, 95
6, 113760, Note_on_c, 4, 56, 95
6, 113760, Note_on_c, 4, 52, 95
6, 113760, Note_on_c, 4, 47, 95
6, 113760, Note_on_c, 4, 40, 95
6, 115680, Note_off_c, 4, 59, 80
6, 115680, Note_off_c, 4, 56, 80
6, 115680, Note_off_c, 4, 52, 80
6, 115680, Note_off_c, 4, 47, 80
6, 115680, Note_off_c, 4, 40, 80
6, 115680, Note_on_c, 4, 56, 95
6, 115680, Note_on_c, 4, 51, 95
6, 115680, Note_on_c, 4, 44, 95
6, 116400, Note_off_c, 4, 56, 80
6, 116400, Note_off_c, 4, 51, 80
6, 116400, Note_off_c, 4, 44, 80
6, 116400, Note_on_c, 4, 54, 95
6, 116400, Note_on_c, 4, 49, 95
6, 116400, Note_on_c, 4, 42, 95
6, 117120, Note_off_c, 4, 54, 80
6, 117120, Note_off_c, 4, 49, 80
6, 117120, Note_off_c, 4, 42, 80
6, 117120, Note_on_c, 4, 52, 95
6, 117120, Note_on_c, 4, 47, 95
6, 117120, Note_on_c, 4, 40, 95
6, 117600, Note_off_c, 4, 52, 80
6, 117600, Note_off_c, 4, 47, 80
6, 117600, Note_off_c, 4, 40, 80
6, 117600, Note_on_c, 4, 64, 95
6, 117600, Note_on_c, 4, 61, 95
6, 117600, Note_on_c, 4, 56, 95
6, 117600, Note_on_c, 4, 49, 95
6, 119040, Note_off_c, 4, 64, 80
6, 119040, Note_off_c, 4, 61, 80
6, 119040, Note_off_c, 4, 56, 80
6, 119040, Note_off_c, 4, 49, 80
6, 119520, Note_on_c, 4, 57, 95
6, 119520, Note_on_c, 4, 52, 95
6, 119520, Note_on_c, 4, 45, 95
6, 120960, Note_off_c, 4, 57, 80
6, 120960, Note_off_c, 4, 52, 80
6, 120960, Note_off_c, 4, 45, 80
6, 121440, Note_on_c, 4, 54, 95
6, 121440, Note_on_c, 4, 49, 95
6, 121440, Note_on_c, 4, 42, 95
6, 122880, Note_off_c, 4, 54, 80
6, 122880, Note_off_c, 4, 49, 80
6, 122880, Note_off_c, 4, 42, 80
6, 123360, Note_on_c, 4, 59, 95
6, 123360, Note_on_c, 4, 54, 95
6, 123360, Note_on_c, 4, 47, 95
6, 124800, Note_off_c, 4, 59, 80
6, 124800, Note_off_c, 4, 54, 80
6, 124800, Note_off_c, 4, 47, 80
6, 124800, End_track
7, 0, Start_track
7, 0, Title_t, "Bass"
7, 0, Control_c, 7, 100, 0
7, 0, Control_c, 7, 101, 0
7, 0, Control_c, 7, 6, 12
7, 0, Pitch_bend_c, 7, 8192
7, 0, Control_c, 7, 101, 0
7, 0, Control_c, 7, 100, 1
7, 0, Control_c, 7, 6, 64
7, 0, Control_c, 7, 38, 0
7, 0, Control_c, 7, 101, 127
7, 0, Control_c, 7, 100, 127
7, 0, Control_c, 6, 100, 0
7, 0, Control_c, 6, 101, 0
7, 0, Control_c, 6, 6, 12
7, 0, Pitch_bend_c, 6, 8192
7, 0, Control_c, 6, 101, 0
7, 0, Control_c, 6, 100, 1
7, 0, Control_c, 6, 6, 64
7, 0, Control_c, 6, 38, 0
7, 0, Control_c, 6, 101, 127
7, 0, Control_c, 6, 100, 127
7, 0, Control_c, 7, 101, 0
7, 0, Control_c, 7, 100, 2
7, 0, Control_c, 7, 6, 64
7, 0, Control_c, 7, 101, 127
7, 0, Control_c, 7, 100, 127
7, 0, Control_c, 6, 101, 0
7, 0, Control_c, 6, 100, 2
7, 0, Control_c, 6, 6, 64
7, 0, Control_c, 6, 101, 127
7, 0, Control_c, 6, 100, 127
7, 0, Program_c, 7, 34
7, 0, Program_c, 6, 34
7, 0, Control_c, 7, 0, 0
7, 0, Control_c, 6, 0, 0
7, 0, Control_c, 7, 7, 88
7, 0, Control_c, 6, 7, 88
7, 0, Control_c, 7, 10, 64
7, 0, Control_c, 6, 10, 64
7, 0, Control_c, 7, 93, 0
7, 0, Control_c, 6, 93, 0
7, 0, Control_c, 7, 91, 0
7, 0, Control_c, 6, 91, 0
7, 0, Control_c, 7, 92, 0
7, 0, Control_c, 6, 92, 0
7, 0, Control_c, 7, 95, 0
7, 0, Control_c, 6, 95, 0
7, 24720, Note_on_c, 6, 33, 31
7, 24960, Note_off_c, 6, 33, 80
7, 24960, Note_on_c, 6, 32, 95
7, 25200, Note_off_c, 6, 32, 80
7, 25200, Note_on_c, 6, 30, 95
7, 25440, Note_off_c, 6, 30, 80
7, 25440, Note_on_c, 6, 28, 95
7, 25680, Note_off_c, 6, 28, 80
7, 25680, Note_on_c, 6, 28, 95
7, 25920, Note_off_c, 6, 28, 80
7, 26400, Note_on_c, 6, 37, 95
7, 26640, Note_off_c, 6, 37, 80
7, 26640, Note_on_c, 6, 37, 95
7, 26880, Note_off_c, 6, 37, 80
7, 27360, Note_on_c, 6, 33, 95
7, 27600, Note_off_c, 6, 33, 80
7, 27600, Note_on_c, 6, 33, 95
7, 27840, Note_off_c, 6, 33, 80
7, 28320, Note_on_c, 6, 33, 95
7, 28560, Note_off_c, 6, 33, 80
7, 28560, Note_on_c, 6, 33, 95
7, 28800, Note_off_c, 6, 33, 80
7, 29280, Note_on_c, 6, 28, 95
7, 29520, Note_off_c, 6, 28, 80
7, 29520, Note_on_c, 6, 28, 95
7, 29760, Note_off_c, 6, 28, 80
7, 30240, Note_on_c, 6, 37, 95
7, 30480, Note_off_c, 6, 37, 80
7, 30480, Note_on_c, 6, 37, 95
7, 30720, Note_off_c, 6, 37, 80
7, 31200, Note_on_c, 6, 33, 95
7, 31440, Note_off_c, 6, 33, 80
7, 31440, Note_on_c, 6, 33, 95
7, 31680, Note_off_c, 6, 33, 80
7, 32160, Note_on_c, 6, 33, 95
7, 32400, Note_off_c, 6, 33, 80
7, 32400, Note_on_c, 6, 33, 95
7, 32640, Note_off_c, 6, 33, 80
7, 32640, Note_on_c, 6, 32, 95
7, 32880, Note_off_c, 6, 32, 80
7, 32880, Note_on_c, 6, 30, 95
7, 33120, Note_off_c, 6, 30, 80
7, 36960, Note_on_c, 6, 28, 95
7, 37200, Note_off_c, 6, 28, 80
7, 37200, Note_on_c, 6, 28, 95
7, 37440, Note_off_c, 6, 28, 80
7, 37920, Note_on_c, 6, 37, 95
7, 38160, Note_off_c, 6, 37, 80
7, 38160, Note_on_c, 6, 37, 95
7, 38400, Note_off_c, 6, 37, 80
7, 38880, Note_on_c, 6, 33, 95
7, 39120, Note_off_c, 6, 33, 80
7, 39120, Note_on_c, 6, 33, 95
7, 39360, Note_off_c, 6, 33, 80
7, 39840, Note_on_c, 6, 33, 95
7, 40080, Note_off_c, 6, 33, 80
7, 40080, Note_on_c, 6, 33, 95
7, 40320, Note_off_c, 6, 33, 80
7, 40320, Note_on_c, 6, 32, 95
7, 40560, Note_off_c, 6, 32, 80
7, 40560, Note_on_c, 6, 30, 95
7, 40800, Note_off_c, 6, 30, 80
7, 40800, Note_on_c, 6, 28, 95
7, 41040, Note_off_c, 6, 28, 80
7, 41040, Note_on_c, 6, 28, 95
7, 41280, Note_off_c, 6, 28, 80
7, 41760, Note_on_c, 6, 37, 95
7, 42000, Note_off_c, 6, 37, 80
7, 42000, Note_on_c, 6, 37, 95
7, 42240, Note_off_c, 6, 37, 80
7, 42720, Note_on_c, 6, 33, 95
7, 42960, Note_off_c, 6, 33, 80
7, 42960, Note_on_c, 6, 33, 95
7, 43200, Note_off_c, 6, 33, 80
7, 43680, Note_on_c, 6, 33, 95
7, 43920, Note_off_c, 6, 33, 80
7, 43920, Note_on_c, 6, 33, 95
7, 44160, Note_off_c, 6, 33, 80
7, 44640, Note_on_c, 6, 28, 95
7, 44880, Note_off_c, 6, 28, 80
7, 44880, Note_on_c, 6, 28, 95
7, 45120, Note_off_c, 6, 28, 80
7, 45600, Note_on_c, 6, 37, 95
7, 45840, Note_off_c, 6, 37, 80
7, 45840, Note_on_c, 6, 37, 95
7, 46080, Note_off_c, 6, 37, 80
7, 46560, Note_on_c, 6, 33, 95
7, 46800, Note_off_c, 6, 33, 80
7, 46800, Note_on_c, 6, 33, 95
7, 47040, Note_off_c, 6, 33, 80
7, 47520, Note_on_c, 6, 33, 95
7, 47760, Note_off_c, 6, 33, 80
7, 47760, Note_on_c, 6, 33, 95
7, 48000, Note_off_c, 6, 33, 80
7, 56160, Note_on_c, 6, 28, 95
7, 56400, Note_off_c, 6, 28, 80
7, 56400, Note_on_c, 6, 28, 95
7, 56640, Note_off_c, 6, 28, 80
7, 57120, Note_on_c, 6, 37, 95
7, 57360, Note_off_c, 6, 37, 80
7, 57360, Note_on_c, 6, 37, 95
7, 57600, Note_off_c, 6, 37, 80
7, 58080, Note_on_c, 6, 33, 95
7, 58320, Note_off_c, 6, 33, 80
7, 58320, Note_on_c, 6, 33, 95
7, 58560, Note_off_c, 6, 33, 80
7, 59040, Note_on_c, 6, 33, 95
7, 59280, Note_off_c, 6, 33, 80
7, 59280, Note_on_c, 6, 33, 95
7, 59520, Note_off_c, 6, 33, 80
7, 60000, Note_on_c, 6, 28, 95
7, 60240, Note_off_c, 6, 28, 80
7, 60240, Note_on_c, 6, 28, 95
7, 60480, Note_off_c, 6, 28, 80
7, 60960, Note_on_c, 6, 37, 95
7, 61200, Note_off_c, 6, 37, 80
7, 61200, Note_on_c, 6, 37, 95
7, 61440, Note_off_c, 6, 37, 80
7, 61920, Note_on_c, 6, 33, 95
7, 62160, Note_off_c, 6, 33, 80
7, 62160, Note_on_c, 6, 33, 95
7, 62400, Note_off_c, 6, 33, 80
7, 62880, Note_on_c, 6, 33, 95
7, 63120, Note_off_c, 6, 33, 80
7, 63120, Note_on_c, 6, 33, 95
7, 63360, Note_off_c, 6, 33, 80
7, 63840, Note_on_c, 6, 28, 95
7, 64080, Note_off_c, 6, 28, 80
7, 64080, Note_on_c, 6, 28, 95
7, 64320, Note_off_c, 6, 28, 80
7, 64800, Note_on_c, 6, 37, 95
7, 65040, Note_off_c, 6, 37, 80
7, 65040, Note_on_c, 6, 37, 95
7, 65280, Note_off_c, 6, 37, 80
7, 65760, Note_on_c, 6, 33, 95
7, 66000, Note_off_c, 6, 33, 80
7, 66000, Note_on_c, 6, 33, 95
7, 66240, Note_off_c, 6, 33, 80
7, 66720, Note_on_c, 6, 33, 95
7, 66960, Note_off_c, 6, 33, 80
7, 66960, Note_on_c, 6, 33, 95
7, 67200, Note_off_c, 6, 33, 80
7, 67680, Note_on_c, 6, 28, 95
7, 67920, Note_off_c, 6, 28, 80
7, 67920, Note_on_c, 6, 28, 95
7, 68160, Note_off_c, 6, 28, 80
7, 68640, Note_on_c, 6, 37, 95
7, 68880, Note_off_c, 6, 37, 80
7, 68880, Note_on_c, 6, 37, 95
7, 69120, Note_off_c, 6, 37, 80
7, 69600, Note_on_c, 6, 33, 95
7, 69840, Note_off_c, 6, 33, 80
7, 69840, Note_on_c, 6, 33, 95
7, 70080, Note_off_c, 6, 33, 80
7, 70560, Note_on_c, 6, 33, 95
7, 70800, Note_off_c, 6, 33, 80
7, 70800, Note_on_c, 6, 33, 95
7, 71040, Note_off_c, 6, 33, 80
7, 71160, Note_on_c, 7, 33, 95
7, 71460, Pitch_bend_c, 7, 7552
7, 71486, Pitch_bend_c, 7, 6784
7, 71511, Pitch_bend_c, 7, 6144
7, 71537, Pitch_bend_c, 7, 5504
7, 71563, Pitch_bend_c, 7, 4736
7, 71589, Pitch_bend_c, 7, 4096
7, 71614, Pitch_bend_c, 7, 3456
7, 71640, Note_off_c, 7, 33, 80
7, 71640, Pitch_bend_c, 7, 8192
7, 78000, Note_on_c, 6, 52, 95
7, 78120, Note_off_c, 6, 52, 80
7, 78120, Note_on_c, 7, 54, 76
7, 78228, Pitch_bend_c, 7, 8832
7, 78240, Pitch_bend_c, 7, 9600
7, 78360, Note_off_c, 7, 54, 80
7, 78360, Pitch_bend_c, 7, 8192
7, 78480, Note_on_c, 6, 54, 95
7, 78600, Note_off_c, 6, 54, 80
7, 78720, Note_on_c, 6, 52, 95
7, 78960, Note_off_c, 6, 52, 80
7, 79200, Note_on_c, 6, 28, 95
7, 79440, Note_off_c, 6, 28, 80
7, 79560, Note_on_c, 6, 28, 95
7, 79800, Note_off_c, 6, 28, 80
7, 79920, Note_on_c, 6, 28, 95
7, 80160, Note_off_c, 6, 28, 80
7, 80160, Note_on_c, 6, 37, 95
7, 80400, Note_off_c, 6, 37, 80
7, 80520, Note_on_c, 6, 37, 95
7, 80760, Note_off_c, 6, 37, 80
7, 80880, Note_on_c, 6, 37, 95
7, 81120, Note_off_c, 6, 37, 80
7, 81120, Note_on_c, 6, 33, 95
7, 81360, Note_off_c, 6, 33, 80
7, 81480, Note_on_c, 6, 33, 95
7, 81720, Note_off_c, 6, 33, 80
7, 81840, Note_on_c, 6, 33, 95
7, 82080, Note_off_c, 6, 33, 80
7, 82080, Note_on_c, 6, 33, 95
7, 82320, Note_off_c, 6, 33, 80
7, 82440, Note_on_c, 6, 33, 95
7, 82680, Note_off_c, 6, 33, 80
7, 82800, Note_on_c, 6, 33, 95
7, 83040, Note_off_c, 6, 33, 80
7, 83040, Note_on_c, 6, 28, 95
7, 83280, Note_off_c, 6, 28, 80
7, 83400, Note_on_c, 6, 28, 95
7, 83640, Note_off_c, 6, 28, 80
7, 83760, Note_on_c, 6, 28, 95
7, 84000, Note_off_c, 6, 28, 80
7, 84000, Note_on_c, 6, 37, 95
7, 84240, Note_off_c, 6, 37, 80
7, 84360, Note_on_c, 6, 37, 95
7, 84600, Note_off_c, 6, 37, 80
7, 84720, Note_on_c, 6, 37, 95
7, 84960, Note_off_c, 6, 37, 80
7, 84960, Note_on_c, 6, 33, 95
7, 85200, Note_off_c, 6, 33, 80
7, 85320, Note_on_c, 6, 33, 95
7, 85560, Note_off_c, 6, 33, 80
7, 85680, Note_on_c, 6, 33, 95
7, 85920, Note_off_c, 6, 33, 80
7, 85920, Note_on_c, 6, 33, 95
7, 86160, Note_off_c, 6, 33, 80
7, 86280, Note_on_c, 6, 33, 95
7, 86400, Note_off_c, 6, 33, 80
7, 94560, Note_on_c, 6, 28, 95
7, 94800, Note_off_c, 6, 28, 80
7, 94800, Note_on_c, 6, 28, 95
7, 95040, Note_off_c, 6, 28, 80
7, 95520, Note_on_c, 6, 37, 95
7, 95760, Note_off_c, 6, 37, 80
7, 95760, Note_on_c, 6, 37, 95
7, 96000, Note_off_c, 6, 37, 80
7, 96480, Note_on_c, 6, 33, 95
7, 96720, Note_off_c, 6, 33, 80
7, 96720, Note_on_c, 6, 33, 95
7, 96960, Note_off_c, 6, 33, 80
7, 97440, Note_on_c, 6, 33, 95
7, 97680, Note_off_c, 6, 33, 80
7, 97680, Note_on_c, 6, 33, 95
7, 97920, Note_off_c, 6, 33, 80
7, 98400, Note_on_c, 6, 28, 95
7, 98640, Note_off_c, 6, 28, 80
7, 98640, Note_on_c, 6, 28, 95
7, 98880, Note_off_c, 6, 28, 80
7, 99360, Note_on_c, 6, 37, 95
7, 99600, Note_off_c, 6, 37, 80
7, 99600, Note_on_c, 6, 37, 95
7, 99840, Note_off_c, 6, 37, 80
7, 100320, Note_on_c, 6, 33, 95
7, 100560, Note_off_c, 6, 33, 80
7, 100560, Note_on_c, 6, 33, 95
7, 100800, Note_off_c, 6, 33, 80
7, 101280, Note_on_c, 6, 33, 95
7, 101520, Note_off_c, 6, 33, 80
7, 101520, Note_on_c, 6, 33, 95
7, 101760, Note_off_c, 6, 33, 80
7, 102240, Note_on_c, 6, 28, 95
7, 102480, Note_off_c, 6, 28, 80
7, 102480, Note_on_c, 6, 28, 95
7, 102720, Note_off_c, 6, 28, 80
7, 103200, Note_on_c, 6, 37, 95
7, 103440, Note_off_c, 6, 37, 80
7, 103440, Note_on_c, 6, 37, 95
7, 103680, Note_off_c, 6, 37, 80
7, 104160, Note_on_c, 6, 33, 95
7, 104400, Note_off_c, 6, 33, 80
7, 104400, Note_on_c, 6, 33, 95
7, 104640, Note_off_c, 6, 33, 80
7, 105120, Note_on_c, 6, 33, 95
7, 105360, Note_off_c, 6, 33, 80
7, 105360, Note_on_c, 6, 33, 95
7, 105600, Note_off_c, 6, 33, 80
7, 106080, Note_on_c, 6, 28, 95
7, 106320, Note_off_c, 6, 28, 80
7, 106320, Note_on_c, 6, 28, 95
7, 106560, Note_off_c, 6, 28, 80
7, 107040, Note_on_c, 6, 37, 95
7, 107280, Note_off_c, 6, 37, 80
7, 107280, Note_on_c, 6, 37, 95
7, 107520, Note_off_c, 6, 37, 80
7, 108000, Note_on_c, 6, 33, 95
7, 108240, Note_off_c, 6, 33, 80
7, 108240, Note_on_c, 6, 33, 95
7, 108480, Note_off_c, 6, 33, 80
7, 108960, Note_on_c, 6, 33, 95
7, 109200, Note_off_c, 6, 33, 80
7, 109200, Note_on_c, 6, 33, 95
7, 109440, Note_off_c, 6, 33, 80
7, 127200, Note_on_c, 6, 40, 95
7, 127680, Note_off_c, 6, 40, 80
7, 128160, Note_on_c, 6, 40, 95
7, 128400, Note_off_c, 6, 40, 80
7, 128400, Note_on_c, 6, 40, 95
7, 128640, Note_off_c, 6, 40, 80
7, 129120, Note_on_c, 6, 33, 95
7, 129600, Note_off_c, 6, 33, 80
7, 130080, Note_on_c, 6, 33, 95
7, 130320, Note_off_c, 6, 33, 80
7, 130320, Note_on_c, 6, 33, 95
7, 130560, Note_off_c, 6, 33, 80
7, 131040, Note_on_c, 6, 37, 95
7, 131520, Note_off_c, 6, 37, 80
7, 132000, Note_on_c, 6, 35, 95
7, 132240, Note_off_c, 6, 35, 80
7, 132240, Note_on_c, 6, 35, 95
7, 132480, Note_off_c, 6, 35, 80
7, 132960, Note_on_c, 6, 28, 95
7, 133440, Note_off_c, 6, 28, 80
7, 133920, Note_on_c, 6, 28, 95
7, 134160, Note_off_c, 6, 28, 80
7, 134160, Note_on_c, 6, 28, 95
7, 134400, Note_off_c, 6, 28, 80
7, 134880, Note_on_c, 6, 40, 95
7, 135360, Note_off_c, 6, 40, 80
7, 135840, Note_on_c, 6, 40, 95
7, 136080, Note_off_c, 6, 40, 80
7, 136080, Note_on_c, 6, 40, 95
7, 136320, Note_off_c, 6, 40, 80
7, 136800, Note_on_c, 6, 33, 95
7, 137280, Note_off_c, 6, 33, 80
7, 137760, Note_on_c, 6, 33, 95
7, 138000, Note_off_c, 6, 33, 80
7, 138000, Note_on_c, 6, 33, 95
7, 138240, Note_off_c, 6, 33, 80
7, 138720, Note_on_c, 6, 37, 95
7, 139200, Note_off_c, 6, 37, 80
7, 139680, Note_on_c, 6, 35, 95
7, 139920, Note_off_c, 6, 35, 80
7, 139920, Note_on_c, 6, 35, 95
7, 140160, Note_off_c, 6, 35, 80
7, 140640, Note_on_c, 6, 28, 95
7, 141120, Note_off_c, 6, 28, 80
7, 141600, Note_on_c, 6, 28, 95
7, 141840, Note_off_c, 6, 28, 80
7, 141840, Note_on_c, 6, 28, 95
7, 142080, Note_off_c, 6, 28, 80
7, 142560, Note_on_c, 6, 40, 79
7, 142800, Note_off_c, 6, 40, 80
7, 142800, Note_on_c, 6, 40, 79
7, 143040, Note_off_c, 6, 40, 80
7, 143520, Note_on_c, 6, 40, 95
7, 143760, Note_off_c, 6, 40, 80
7, 143760, Note_on_c, 6, 40, 95
7, 144000, Note_off_c, 6, 40, 80
7, 144480, Note_on_c, 6, 33, 95
7, 144720, Note_off_c, 6, 33, 80
7, 144720, Note_on_c, 6, 33, 95
7, 144960, Note_off_c, 6, 33, 80
7, 145440, Note_on_c, 6, 33, 95
7, 145680, Note_off_c, 6, 33, 80
7, 145680, Note_on_c, 6, 33, 95
7, 145920, Note_off_c, 6, 33, 80
7, 146400, Note_on_c, 6, 37, 79
7, 146640, Note_off_c, 6, 37, 80
7, 146640, Note_on_c, 6, 37, 79
7, 146880, Note_off_c, 6, 37, 80
7, 147360, Note_on_c, 6, 35, 95
7, 147600, Note_off_c, 6, 35, 80
7, 147600, Note_on_c, 6, 35, 95
7, 147840, Note_off_c, 6, 35, 80
7, 148320, Note_on_c, 6, 40, 95
7, 148560, Note_off_c, 6, 40, 80
7, 148560, Note_on_c, 6, 40, 95
7, 148800, Note_off_c, 6, 40, 80
7, 149280, Note_on_c, 6, 40, 95
7, 149520, Note_off_c, 6, 40, 80
7, 149520, Note_on_c, 6, 40, 95
7, 149760, Note_off_c, 6, 40, 80
7, 150240, Note_on_c, 6, 40, 79
7, 150480, Note_off_c, 6, 40, 80
7, 150480, Note_on_c, 6, 40, 79
7, 150720, Note_off_c, 6, 40, 80
7, 151200, Note_on_c, 6, 40, 95
7, 151440, Note_off_c, 6, 40, 80
7, 151440, Note_on_c, 6, 40, 95
7, 151680, Note_off_c, 6, 40, 80
7, 152160, Note_on_c, 6, 33, 95
7, 152400, Note_off_c, 6, 33, 80
7, 152400, Note_on_c, 6, 33, 95
7, 152640, Note_off_c, 6, 33, 80
7, 153120, Note_on_c, 6, 33, 95
7, 153360, Note_off_c, 6, 33, 80
7, 153360, Note_on_c, 6, 33, 95
7, 153600, Note_off_c, 6, 33, 80
7, 154080, Note_on_c, 6, 37, 79
7, 154320, Note_off_c, 6, 37, 80
7, 154320, Note_on_c, 6, 37, 79
7, 154560, Note_off_c, 6, 37, 80
7, 155040, Note_on_c, 6, 35, 95
7, 155280, Note_off_c, 6, 35, 80
7, 155280, Note_on_c, 6, 35, 95
7, 155520, Note_off_c, 6, 35, 80
7, 156000, Note_on_c, 6, 40, 95
7, 156240, Note_off_c, 6, 40, 80
7, 156240, Note_on_c, 6, 40, 95
7, 156480, Note_off_c, 6, 40, 80
7, 156960, Note_on_c, 6, 40, 95
7, 157200, Note_off_c, 6, 40, 80
7, 157200, Note_on_c, 6, 40, 95
7, 157440, Note_off_c, 6, 40, 80
7, 157920, Note_on_c, 6, 37, 79
7, 158160, Note_off_c, 6, 37, 80
7, 158160, Note_on_c, 6, 37, 79
7, 158400, Note_off_c, 6, 37, 80
7, 158880, Note_on_c, 6, 35, 95
7, 159120, Note_off_c, 6, 35, 80
7, 159120, Note_on_c, 6, 35, 95
7, 159360, Note_off_c, 6, 35, 80
7, 159840, Note_on_c, 6, 40, 95
7, 160080, Note_off_c, 6, 40, 80
7, 160080, Note_on_c, 6, 40, 95
7, 160320, Note_off_c, 6, 40, 80
7, 160800, Note_on_c, 6, 40, 95
7, 161040, Note_off_c, 6, 40, 80
7, 161040, Note_on_c, 6, 40, 95
7, 161280, Note_off_c, 6, 40, 80
7, 161760, Note_on_c, 6, 37, 95
7, 162000, Note_off_c, 6, 37, 80
7, 162000, Note_on_c, 6, 37, 95
7, 162240, Note_off_c, 6, 37, 80
7, 162240, Note_on_c, 6, 37, 95
7, 162480, Note_off_c, 6, 37, 80
7, 162480, Note_on_c, 6, 37, 95
7, 162720, Note_off_c, 6, 37, 80
7, 162720, Note_on_c, 6, 35, 95
7, 162960, Note_off_c, 6, 35, 80
7, 162960, Note_on_c, 6, 35, 95
7, 163200, Note_off_c, 6, 35, 80
7, 163200, Note_on_c, 6, 35, 95
7, 163440, Note_off_c, 6, 35, 80
7, 163440, Note_on_c, 6, 35, 95
7, 163680, Note_off_c, 6, 35, 80
7, 163680, End_track
8, 0, Start_track
8, 0, Title_t, "Percussion (Chris)"
8, 0, Control_c, 9, 100, 0
8, 0, Control_c, 9, 101, 0
8, 0, Control_c, 9, 6, 12
8, 0, Pitch_bend_c, 9, 8192
8, 0, Control_c, 9, 101, 0
8, 0, Control_c, 9, 100, 1
8, 0, Control_c, 9, 6, 64
8, 0, Control_c, 9, 38, 0
8, 0, Control_c, 9, 101, 127
8, 0, Control_c, 9, 100, 127
8, 0, Program_c, 9, 0
8, 0, Control_c, 9, 0, 0
8, 0, Control_c, 9, 7, 120
8, 0, Control_c, 9, 10, 64
8, 0, Control_c, 9, 93, 0
8, 0, Control_c, 9, 91, 0
8, 0, Control_c, 9, 92, 0
8, 0, Control_c, 9, 95, 0
8, 9840, Note_on_c, 9, 46, 95
8, 9960, Note_off_c, 9, 46, 80
8, 10080, Note_on_c, 9, 44, 95
8, 10200, Note_off_c, 9, 44, 80
8, 36720, Note_on_c, 9, 38, 95
8, 36840, Note_off_c, 9, 38, 80
8, 36840, Note_on_c, 9, 38, 95
8, 36960, Note_off_c, 9, 38, 80
8, 36960, Note_on_c, 9, 49, 95
8, 36960, Note_on_c, 9, 36, 95
8, 37080, Note_off_c, 9, 49, 80
8, 37080, Note_off_c, 9, 36, 80
8, 37200, Note_on_c, 9, 42, 95
8, 37320, Note_off_c, 9, 42, 80
8, 37440, Note_on_c, 9, 42, 95
8, 37440, Note_on_c, 9, 38, 95
8, 37560, Note_off_c, 9, 42, 80
8, 37560, Note_off_c, 9, 38, 80
8, 37680, Note_on_c, 9, 42, 95
8, 37800, Note_off_c, 9, 42, 80
8, 37920, Note_on_c, 9, 42, 95
8, 37920, Note_on_c, 9, 36, 95
8, 38040, Note_off_c, 9, 42, 80
8, 38040, Note_off_c, 9, 36, 80
8, 38160, Note_on_c, 9, 42, 95
8, 38280, Note_off_c, 9, 42, 80
8, 38400, Note_on_c, 9, 42, 95
8, 38400, Note_on_c, 9, 38, 95
8, 38520, Note_off_c, 9, 42, 80
8, 38520, Note_off_c, 9, 38, 80
8, 38640, Note_on_c, 9, 42, 95
8, 38760, Note_off_c, 9, 42, 80
8, 38880, Note_on_c, 9, 42, 95
8, 38880, Note_on_c, 9, 36, 95
8, 39000, Note_off_c, 9, 42, 80
8, 39000, Note_off_c, 9, 36, 80
8, 39120, Note_on_c, 9, 42, 95
8, 39240, Note_off_c, 9, 42, 80
8, 39360, Note_on_c, 9, 42, 95
8, 39360, Note_on_c, 9, 38, 95
8, 39480, Note_off_c, 9, 42, 80
8, 39480, Note_off_c, 9, 38, 80
8, 39600, Note_on_c, 9, 42, 95
8, 39720, Note_off_c, 9, 42, 80
8, 39840, Note_on_c, 9, 42, 95
8, 39840, Note_on_c, 9, 36, 95
8, 39960, Note_off_c, 9, 42, 80
8, 39960, Note_off_c, 9, 36, 80
8, 40080, Note_on_c, 9, 42, 95
8, 40200, Note_off_c, 9, 42, 80
8, 40320, Note_on_c, 9, 42, 95
8, 40320, Note_on_c, 9, 38, 95
8, 40440, Note_off_c, 9, 42, 80
8, 40440, Note_off_c, 9, 38, 80
8, 40560, Note_on_c, 9, 46, 95
8, 40680, Note_off_c, 9, 46, 80
8, 40800, Note_on_c, 9, 44, 95
8, 40800, Note_on_c, 9, 36, 95
8, 40920, Note_off_c, 9, 44, 80
8, 40920, Note_off_c, 9, 36, 80
8, 41040, Note_on_c, 9, 42, 95
8, 41160, Note_off_c, 9, 42, 80
8, 41280, Note_on_c, 9, 42, 95
8, 41280, Note_on_c, 9, 38, 95
8, 41400, Note_off_c, 9, 42, 80
8, 41400, Note_off_c, 9, 38, 80
8, 41520, Note_on_c, 9, 42, 95
8, 41640, Note_off_c, 9, 42, 80
8, 41760, Note_on_c, 9, 42, 95
8, 41760, Note_on_c, 9, 36, 95
8, 41880, Note_off_c, 9, 42, 80
8, 41880, Note_off_c, 9, 36, 80
8, 42000, Note_on_c, 9, 42, 95
8, 42120, Note_off_c, 9, 42, 80
8, 42240, Note_on_c, 9, 42, 95
8, 42240, Note_on_c, 9, 38, 95
8, 42360, Note_off_c, 9, 42, 80
8, 42360, Note_off_c, 9, 38, 80
8, 42480, Note_on_c, 9, 42, 95
8, 42600, Note_off_c, 9, 42, 80
8, 42720, Note_on_c, 9, 42, 95
8, 42720, Note_on_c, 9, 36, 95
8, 42840, Note_off_c, 9, 42, 80
8, 42840, Note_off_c, 9, 36, 80
8, 42960, Note_on_c, 9, 42, 95
8, 43080, Note_off_c, 9, 42, 80
8, 43200, Note_on_c, 9, 42, 95
8, 43200, Note_on_c, 9, 38, 95
8, 43320, Note_off_c, 9, 42, 80
8, 43320, Note_off_c, 9, 38, 80
8, 43440, Note_on_c, 9, 42, 95
8, 43560, Note_off_c, 9, 42, 80
8, 43680, Note_on_c, 9, 42, 95
8, 43680, Note_on_c, 9, 36, 95
8, 43800, Note_off_c, 9, 42, 80
8, 43800, Note_off_c, 9, 36, 80
8, 43920, Note_on_c, 9, 42, 95
8, 44040, Note_off_c, 9, 42, 80
8, 44160, Note_on_c, 9, 42, 95
8, 44160, Note_on_c, 9, 38, 95
8, 44280, Note_off_c, 9, 42, 80
8, 44280, Note_off_c, 9, 38, 80
8, 44400, Note_on_c, 9, 42, 95
8, 44520, Note_off_c, 9, 42, 80
8, 44640, Note_on_c, 9, 42, 95
8, 44640, Note_on_c, 9, 36, 95
8, 44760, Note_off_c, 9, 42, 80
8, 44760, Note_off_c, 9, 36, 80
8, 44880, Note_on_c, 9, 42, 95
8, 45000, Note_off_c, 9, 42, 80
8, 45120, Note_on_c, 9, 42, 95
8, 45120, Note_on_c, 9, 38, 95
8, 45240, Note_off_c, 9, 42, 80
8, 45240, Note_off_c, 9, 38, 80
8, 45360, Note_on_c, 9, 42, 95
8, 45480, Note_off_c, 9, 42, 80
8, 45600, Note_on_c, 9, 42, 95
8, 45600, Note_on_c, 9, 36, 95
8, 45720, Note_off_c, 9, 42, 80
8, 45720, Note_off_c, 9, 36, 80
8, 45840, Note_on_c, 9, 42, 95
8, 45960, Note_off_c, 9, 42, 80
8, 46080, Note_on_c, 9, 42, 95
8, 46080, Note_on_c, 9, 38, 95
8, 46200, Note_off_c, 9, 42, 80
8, 46200, Note_off_c, 9, 38, 80
8, 46320, Note_on_c, 9, 42, 95
8, 46440, Note_off_c, 9, 42, 80
8, 46560, Note_on_c, 9, 42, 95
8, 46560, Note_on_c, 9, 36, 95
8, 46680, Note_off_c, 9, 42, 80
8, 46680, Note_off_c, 9, 36, 80
8, 46800, Note_on_c, 9, 42, 95
8, 46920, Note_off_c, 9, 42, 80
8, 47040, Note_on_c, 9, 42, 95
8, 47040, Note_on_c, 9, 38, 95
8, 47160, Note_off_c, 9, 42, 80
8, 47160, Note_off_c, 9, 38, 80
8, 47280, Note_on_c, 9, 42, 95
8, 47400, Note_off_c, 9, 42, 80
8, 47520, Note_on_c, 9, 46, 95
8, 47520, Note_on_c, 9, 36, 95
8, 47640, Note_off_c, 9, 46, 80
8, 47640, Note_off_c, 9, 36, 80
8, 47760, Note_on_c, 9, 38, 95
8, 47880, Note_off_c, 9, 38, 80
8, 47880, Note_on_c, 9, 38, 95
8, 48000, Note_off_c, 9, 38, 80
8, 48000, Note_on_c, 9, 38, 95
8, 48120, Note_off_c, 9, 38, 80
8, 48240, Note_on_c, 9, 36, 95
8, 48360, Note_off_c, 9, 36, 80
8, 48480, Note_on_c, 9, 49, 95
8, 48480, Note_on_c, 9, 36, 95
8, 48600, Note_off_c, 9, 49, 80
8, 48600, Note_off_c, 9, 36, 80
8, 54960, Note_on_c, 9, 45, 95
8, 55080, Note_off_c, 9, 45, 80
8, 55080, Note_on_c, 9, 45, 95
8, 55200, Note_off_c, 9, 45, 80
8, 55200, Note_on_c, 9, 43, 95
8, 55200, Note_on_c, 9, 36, 95
8, 55320, Note_off_c, 9, 43, 80
8, 55320, Note_off_c, 9, 36, 80
8, 55320, Note_on_c, 9, 43, 95
8, 55440, Note_off_c, 9, 43, 80
8, 55440, Note_on_c, 9, 43, 95
8, 55560, Note_off_c, 9, 43, 80
8, 55680, Note_on_c, 9, 41, 95
8, 55800, Note_off_c, 9, 41, 80
8, 55800, Note_on_c, 9, 41, 95
8, 55920, Note_off_c, 9, 41, 80
8, 55920, Note_on_c, 9, 41, 95
8, 56040, Note_off_c, 9, 41, 80
8, 56160, Note_on_c, 9, 57, 95
8, 56160, Note_on_c, 9, 36, 95
8, 56280, Note_off_c, 9, 57, 80
8, 56280, Note_off_c, 9, 36, 80
8, 56400, Note_on_c, 9, 42, 95
8, 56400, Note_on_c, 9, 36, 95
8, 56520, Note_off_c, 9, 42, 80
8, 56520, Note_off_c, 9, 36, 80
8, 56640, Note_on_c, 9, 42, 95
8, 56640, Note_on_c, 9, 38, 95
8, 56760, Note_off_c, 9, 42, 80
8, 56760, Note_off_c, 9, 38, 80
8, 56880, Note_on_c, 9, 42, 95
8, 57000, Note_off_c, 9, 42, 80
8, 57120, Note_on_c, 9, 42, 95
8, 57120, Note_on_c, 9, 36, 95
8, 57240, Note_off_c, 9, 42, 80
8, 57240, Note_off_c, 9, 36, 80
8, 57360, Note_on_c, 9, 42, 95
8, 57360, Note_on_c, 9, 36, 95
8, 57480, Note_off_c, 9, 42, 80
8, 57480, Note_off_c, 9, 36, 80
8, 57600, Note_on_c, 9, 42, 95
8, 57600, Note_on_c, 9, 38, 95
8, 57720, Note_off_c, 9, 42, 80
8, 57720, Note_off_c, 9, 38, 80
8, 57840, Note_on_c, 9, 42, 95
8, 57960, Note_off_c, 9, 42, 80
8, 58080, Note_on_c, 9, 42, 95
8, 58080, Note_on_c, 9, 36, 95
8, 58200, Note_off_c, 9, 42, 80
8, 58200, Note_off_c, 9, 36, 80
8, 58320, Note_on_c, 9, 42, 95
8, 58320, Note_on_c, 9, 36, 95
8, 58440, Note_off_c, 9, 42, 80
8, 58440, Note_off_c, 9, 36, 80
8, 58560, Note_on_c, 9, 42, 95
8, 58560, Note_on_c, 9, 38, 95
8, 58680, Note_off_c, 9, 42, 80
8, 58680, Note_off_c, 9, 38, 80
8, 58800, Note_on_c, 9, 42, 95
8, 58920, Note_off_c, 9, 42, 80
8, 59040, Note_on_c, 9, 42, 95
8, 59040, Note_on_c, 9, 36, 95
8, 59160, Note_off_c, 9, 42, 80
8, 59160, Note_off_c, 9, 36, 80
8, 59280, Note_on_c, 9, 42, 95
8, 59280, Note_on_c, 9, 36, 95
8, 59400, Note_off_c, 9, 42, 80
8, 59400, Note_off_c, 9, 36, 80
8, 59520, Note_on_c, 9, 42, 95
8, 59520, Note_on_c, 9, 38, 95
8, 59640, Note_off_c, 9, 42, 80
8, 59640, Note_off_c, 9, 38, 80
8, 59760, Note_on_c, 9, 42, 95
8, 59880, Note_off_c, 9, 42, 80
8, 60000, Note_on_c, 9, 42, 95
8, 60000, Note_on_c, 9, 36, 95
8, 60120, Note_off_c, 9, 42, 80
8, 60120, Note_off_c, 9, 36, 80
8, 60240, Note_on_c, 9, 42, 95
8, 60240, Note_on_c, 9, 36, 95
8, 60360, Note_off_c, 9, 42, 80
8, 60360, Note_off_c, 9, 36, 80
8, 60480, Note_on_c, 9, 42, 95
8, 60480, Note_on_c, 9, 38, 95
8, 60600, Note_off_c, 9, 42, 80
8, 60600, Note_off_c, 9, 38, 80
8, 60720, Note_on_c, 9, 42, 95
8, 60840, Note_off_c, 9, 42, 80
8, 60960, Note_on_c, 9, 42, 95
8, 60960, Note_on_c, 9, 36, 95
8, 61080, Note_off_c, 9, 42, 80
8, 61080, Note_off_c, 9, 36, 80
8, 61200, Note_on_c, 9, 42, 95
8, 61200, Note_on_c, 9, 36, 95
8, 61320, Note_off_c, 9, 42, 80
8, 61320, Note_off_c, 9, 36, 80
8, 61440, Note_on_c, 9, 42, 95
8, 61440, Note_on_c, 9, 38, 95
8, 61560, Note_off_c, 9, 42, 80
8, 61560, Note_off_c, 9, 38, 80
8, 61680, Note_on_c, 9, 42, 95
8, 61800, Note_off_c, 9, 42, 80
8, 61920, Note_on_c, 9, 42, 95
8, 61920, Note_on_c, 9, 36, 95
8, 62040, Note_off_c, 9, 42, 80
8, 62040, Note_off_c, 9, 36, 80
8, 62160, Note_on_c, 9, 42, 95
8, 62160, Note_on_c, 9, 36, 95
8, 62280, Note_off_c, 9, 42, 80
8, 62280, Note_off_c, 9, 36, 80
8, 62400, Note_on_c, 9, 42, 95
8, 62400, Note_on_c, 9, 38, 95
8, 62520, Note_off_c, 9, 42, 80
8, 62520, Note_off_c, 9, 38, 80
8, 62640, Note_on_c, 9, 42, 95
8, 62760, Note_off_c, 9, 42, 80
8, 62880, Note_on_c, 9, 42, 95
8, 62880, Note_on_c, 9, 36, 95
8, 63000, Note_off_c, 9, 42, 80
8, 63000, Note_off_c, 9, 36, 80
8, 63120, Note_on_c, 9, 42, 95
8, 63120, Note_on_c, 9, 36, 95
8, 63240, Note_off_c, 9, 42, 80
8, 63240, Note_off_c, 9, 36, 80
8, 63360, Note_on_c, 9, 42, 95
8, 63360, Note_on_c, 9, 38, 95
8, 63480, Note_off_c, 9, 42, 80
8, 63480, Note_off_c, 9, 38, 80
8, 63480, Note_on_c, 9, 36, 95
8, 63600, Note_off_c, 9, 36, 80
8, 63840, Note_on_c, 9, 49, 95
8, 63840, Note_on_c, 9, 36, 95
8, 63960, Note_off_c, 9, 49, 80
8, 63960, Note_off_c, 9, 36, 80
8, 64080, Note_on_c, 9, 42, 95
8, 64080, Note_on_c, 9, 36, 95
8, 64200, Note_off_c, 9, 42, 80
8, 64200, Note_off_c, 9, 36, 80
8, 64320, Note_on_c, 9, 42, 95
8, 64320, Note_on_c, 9, 38, 95
8, 64440, Note_off_c, 9, 42, 80
8, 64440, Note_off_c, 9, 38, 80
8, 64560, Note_on_c, 9, 42, 95
8, 64680, Note_off_c, 9, 42, 80
8, 64800, Note_on_c, 9, 42, 95
8, 64800, Note_on_c, 9, 36, 95
8, 64920, Note_off_c, 9, 42, 80
8, 64920, Note_off_c, 9, 36, 80
8, 65040, Note_on_c, 9, 42, 95
8, 65040, Note_on_c, 9, 36, 95
8, 65160, Note_off_c, 9, 42, 80
8, 65160, Note_off_c, 9, 36, 80
8, 65280, Note_on_c, 9, 42, 95
8, 65280, Note_on_c, 9, 38, 95
8, 65400, Note_off_c, 9, 42, 80
8, 65400, Note_off_c, 9, 38, 80
8, 65520, Note_on_c, 9, 42, 95
8, 65640, Note_off_c, 9, 42, 80
8, 65760, Note_on_c, 9, 42, 95
8, 65760, Note_on_c, 9, 36, 95
8, 65880, Note_off_c, 9, 42, 80
8, 65880, Note_off_c, 9, 36, 80
8, 66000, Note_on_c, 9, 42, 95
8, 66000, Note_on_c, 9, 36, 95
8, 66120, Note_off_c, 9, 42, 80
8, 66120, Note_off_c, 9, 36, 80
8, 66240, Note_on_c, 9, 42, 95
8, 66240, Note_on_c, 9, 38, 95
8, 66360, Note_off_c, 9, 42, 80
8, 66360, Note_off_c, 9, 38, 80
8, 66480, Note_on_c, 9, 42, 95
8, 66600, Note_off_c, 9, 42, 80
8, 66720, Note_on_c, 9, 42, 95
8, 66720, Note_on_c, 9, 36, 95
8, 66840, Note_off_c, 9, 42, 80
8, 66840, Note_off_c, 9, 36, 80
8, 66960, Note_on_c, 9, 42, 95
8, 66960, Note_on_c, 9, 36, 95
8, 67080, Note_off_c, 9, 42, 80
8, 67080, Note_off_c, 9, 36, 80
8, 67200, Note_on_c, 9, 42, 95
8, 67200, Note_on_c, 9, 38, 95
8, 67320, Note_off_c, 9, 42, 80
8, 67320, Note_off_c, 9, 38, 80
8, 67440, Note_on_c, 9, 42, 95
8, 67560, Note_off_c, 9, 42, 80
8, 67680, Note_on_c, 9, 42, 95
8, 67680, Note_on_c, 9, 36, 95
8, 67800, Note_off_c, 9, 42, 80
8, 67800, Note_off_c, 9, 36, 80
8, 67920, Note_on_c, 9, 42, 95
8, 67920, Note_on_c, 9, 36, 95
8, 68040, Note_off_c, 9, 42, 80
8, 68040, Note_off_c, 9, 36, 80
8, 68160, Note_on_c, 9, 42, 95
8, 68160, Note_on_c, 9, 38, 95
8, 68280, Note_off_c, 9, 42, 80
8, 68280, Note_off_c, 9, 38, 80
8, 68400, Note_on_c, 9, 42, 95
8, 68520, Note_off_c, 9, 42, 80
8, 68640, Note_on_c, 9, 42, 95
8, 68640, Note_on_c, 9, 36, 95
8, 68760, Note_off_c, 9, 42, 80
8, 68760, Note_off_c, 9, 36, 80
8, 68880, Note_on_c, 9, 42, 95
8, 68880, Note_on_c, 9, 36, 95
8, 69000, Note_off_c, 9, 42, 80
8, 69000, Note_off_c, 9, 36, 80
8, 69120, Note_on_c, 9, 42, 95
8, 69120, Note_on_c, 9, 38, 95
8, 69240, Note_off_c, 9, 42, 80
8, 69240, Note_off_c, 9, 38, 80
8, 69360, Note_on_c, 9, 42, 95
8, 69480, Note_off_c, 9, 42, 80
8, 69600, Note_on_c, 9, 42, 95
8, 69600, Note_on_c, 9, 36, 95
8, 69720, Note_off_c, 9, 42, 80
8, 69720, Note_off_c, 9, 36, 80
8, 69840, Note_on_c, 9, 42, 95
8, 69840, Note_on_c, 9, 36, 95
8, 69960, Note_off_c, 9, 42, 80
8, 69960, Note_off_c, 9, 36, 80
8, 70080, Note_on_c, 9, 42, 95
8, 70080, Note_on_c, 9, 38, 95
8, 70200, Note_off_c, 9, 42, 80
8, 70200, Note_off_c, 9, 38, 80
8, 70320, Note_on_c, 9, 42, 95
8, 70440, Note_off_c, 9, 42, 80
8, 70560, Note_on_c, 9, 42, 95
8, 70560, Note_on_c, 9, 36, 95
8, 70680, Note_off_c, 9, 42, 80
8, 70680, Note_off_c, 9, 36, 80
8, 70800, Note_on_c, 9, 42, 95
8, 70800, Note_on_c, 9, 36, 95
8, 70920, Note_off_c, 9, 42, 80
8, 70920, Note_off_c, 9, 36, 80
8, 71040, Note_on_c, 9, 38, 95
8, 71160, Note_off_c, 9, 38, 80
8, 71160, Note_on_c, 9, 49, 95
8, 71160, Note_on_c, 9, 36, 95
8, 71280, Note_off_c, 9, 49, 80
8, 71280, Note_off_c, 9, 36, 80
8, 78960, Note_on_c, 9, 38, 95
8, 79080, Note_off_c, 9, 38, 80
8, 79080, Note_on_c, 9, 38, 95
8, 79200, Note_off_c, 9, 38, 80
8, 79200, Note_on_c, 9, 49, 95
8, 79200, Note_on_c, 9, 36, 95
8, 79320, Note_off_c, 9, 49, 80
8, 79320, Note_off_c, 9, 36, 80
8, 79440, Note_on_c, 9, 42, 95
8, 79560, Note_off_c, 9, 42, 80
8, 79680, Note_on_c, 9, 42, 95
8, 79680, Note_on_c, 9, 38, 95
8, 79800, Note_off_c, 9, 42, 80
8, 79800, Note_off_c, 9, 38, 80
8, 79920, Note_on_c, 9, 42, 95
8, 80040, Note_off_c, 9, 42, 80
8, 80160, Note_on_c, 9, 42, 95
8, 80160, Note_on_c, 9, 36, 95
8, 80280, Note_off_c, 9, 42, 80
8, 80280, Note_off_c, 9, 36, 80
8, 80400, Note_on_c, 9, 42, 95
8, 80520, Note_off_c, 9, 42, 80
8, 80640, Note_on_c, 9, 42, 95
8, 80640, Note_on_c, 9, 38, 95
8, 80760, Note_off_c, 9, 42, 80
8, 80760, Note_off_c, 9, 38, 80
8, 80880, Note_on_c, 9, 42, 95
8, 81000, Note_off_c, 9, 42, 80
8, 81120, Note_on_c, 9, 42, 95
8, 81120, Note_on_c, 9, 36, 95
8, 81240, Note_off_c, 9, 42, 80
8, 81240, Note_off_c, 9, 36, 80
8, 81360, Note_on_c, 9, 42, 95
8, 81480, Note_off_c, 9, 42, 80
8, 81600, Note_on_c, 9, 42, 95
8, 81600, Note_on_c, 9, 38, 95
8, 81720, Note_off_c, 9, 42, 80
8, 81720, Note_off_c, 9, 38, 80
8, 81840, Note_on_c, 9, 42, 95
8, 81960, Note_off_c, 9, 42, 80
8, 81960, Note_on_c, 9, 42, 95
8, 82080, Note_off_c, 9, 42, 80
8, 82080, Note_on_c, 9, 42, 95
8, 82080, Note_on_c, 9, 36, 95
8, 82200, Note_off_c, 9, 42, 80
8, 82200, Note_off_c, 9, 36, 80
8, 82200, Note_on_c, 9, 42, 95
8, 82320, Note_off_c, 9, 42, 80
8, 82320, Note_on_c, 9, 42, 95
8, 82440, Note_off_c, 9, 42, 80
8, 82560, Note_on_c, 9, 42, 95
8, 82560, Note_on_c, 9, 38, 95
8, 82680, Note_off_c, 9, 42, 80
8, 82680, Note_off_c, 9, 38, 80
8, 82800, Note_on_c, 9, 42, 95
8, 82920, Note_off_c, 9, 42, 80
8, 83040, Note_on_c, 9, 42, 95
8, 83040, Note_on_c, 9, 36, 95
8, 83160, Note_off_c, 9, 42, 80
8, 83160, Note_off_c, 9, 36, 80
8, 83280, Note_on_c, 9, 42, 95
8, 83400, Note_off_c, 9, 42, 80
8, 83520, Note_on_c, 9, 42, 95
8, 83520, Note_on_c, 9, 38, 95
8, 83640, Note_off_c, 9, 42, 80
8, 83640, Note_off_c, 9, 38, 80
8, 83760, Note_on_c, 9, 42, 95
8, 83880, Note_off_c, 9, 42, 80
8, 84000, Note_on_c, 9, 42, 95
8, 84000, Note_on_c, 9, 36, 95
8, 84120, Note_off_c, 9, 42, 80
8, 84120, Note_off_c, 9, 36, 80
8, 84240, Note_on_c, 9, 42, 95
8, 84360, Note_off_c, 9, 42, 80
8, 84480, Note_on_c, 9, 42, 95
8, 84480, Note_on_c, 9, 38, 95
8, 84600, Note_off_c, 9, 42, 80
8, 84600, Note_off_c, 9, 38, 80
8, 84720, Note_on_c, 9, 42, 95
8, 84840, Note_off_c, 9, 42, 80
8, 84960, Note_on_c, 9, 42, 95
8, 84960, Note_on_c, 9, 36, 95
8, 85080, Note_off_c, 9, 42, 80
8, 85080, Note_off_c, 9, 36, 80
8, 85200, Note_on_c, 9, 42, 95
8, 85320, Note_off_c, 9, 42, 80
8, 85440, Note_on_c, 9, 42, 95
8, 85440, Note_on_c, 9, 38, 95
8, 85560, Note_off_c, 9, 42, 80
8, 85560, Note_off_c, 9, 38, 80
8, 85680, Note_on_c, 9, 42, 95
8, 85800, Note_off_c, 9, 42, 80
8, 85920, Note_on_c, 9, 46, 95
8, 85920, Note_on_c, 9, 36, 95
8, 86040, Note_off_c, 9, 46, 80
8, 86040, Note_off_c, 9, 36, 80
8, 86160, Note_on_c, 9, 38, 95
8, 86280, Note_off_c, 9, 38, 80
8, 86280, Note_on_c, 9, 38, 95
8, 86400, Note_off_c, 9, 38, 80
8, 86400, Note_on_c, 9, 38, 95
8, 86520, Note_off_c, 9, 38, 80
8, 86640, Note_on_c, 9, 36, 95
8, 86760, Note_off_c, 9, 36, 80
8, 86880, Note_on_c, 9, 57, 95
8, 86880, Note_on_c, 9, 36, 95
8, 87000, Note_off_c, 9, 57, 80
8, 87000, Note_off_c, 9, 36, 80
8, 87360, Note_on_c, 9, 37, 95
8, 87480, Note_off_c, 9, 37, 80
8, 87600, Note_on_c, 9, 49, 95
8, 87600, Note_on_c, 9, 36, 95
8, 87720, Note_off_c, 9, 49, 80
8, 87720, Note_off_c, 9, 36, 80
8, 88080, Note_on_c, 9, 46, 95
8, 88200, Note_off_c, 9, 46, 80
8, 88320, Note_on_c, 9, 44, 95
8, 88320, Note_on_c, 9, 38, 95
8, 88440, Note_off_c, 9, 44, 80
8, 88440, Note_off_c, 9, 38, 80
8, 88800, Note_on_c, 9, 57, 95
8, 88800, Note_on_c, 9, 36, 95
8, 88920, Note_off_c, 9, 57, 80
8, 88920, Note_off_c, 9, 36, 80
8, 89280, Note_on_c, 9, 37, 95
8, 89400, Note_off_c, 9, 37, 80
8, 89520, Note_on_c, 9, 49, 95
8, 89520, Note_on_c, 9, 36, 95
8, 89640, Note_off_c, 9, 49, 80
8, 89640, Note_off_c, 9, 36, 80
8, 90000, Note_on_c, 9, 38, 95
8, 90120, Note_off_c, 9, 38, 80
8, 90120, Note_on_c, 9, 38, 95
8, 90240, Note_off_c, 9, 38, 80
8, 90240, Note_on_c, 9, 38, 95
8, 90360, Note_off_c, 9, 38, 80
8, 90480, Note_on_c, 9, 36, 95
8, 90600, Note_off_c, 9, 36, 80
8, 90720, Note_on_c, 9, 57, 95
8, 90720, Note_on_c, 9, 36, 95
8, 90840, Note_off_c, 9, 57, 80
8, 90840, Note_off_c, 9, 36, 80
8, 91200, Note_on_c, 9, 37, 95
8, 91320, Note_off_c, 9, 37, 80
8, 91440, Note_on_c, 9, 49, 95
8, 91440, Note_on_c, 9, 36, 95
8, 91560, Note_off_c, 9, 49, 80
8, 91560, Note_off_c, 9, 36, 80
8, 91920, Note_on_c, 9, 46, 95
8, 92040, Note_off_c, 9, 46, 80
8, 92160, Note_on_c, 9, 44, 95
8, 92160, Note_on_c, 9, 38, 95
8, 92280, Note_off_c, 9, 44, 80
8, 92280, Note_off_c, 9, 38, 80
8, 92640, Note_on_c, 9, 57, 95
8, 92640, Note_on_c, 9, 36, 95
8, 92760, Note_off_c, 9, 57, 80
8, 92760, Note_off_c, 9, 36, 80
8, 93120, Note_on_c, 9, 49, 95
8, 93120, Note_on_c, 9, 36, 95
8, 93240, Note_off_c, 9, 49, 80
8, 93240, Note_off_c, 9, 36, 80
8, 93480, Note_on_c, 9, 45, 95
8, 93600, Note_off_c, 9, 45, 80
8, 93600, Note_on_c, 9, 57, 95
8, 93600, Note_on_c, 9, 45, 95
8, 93600, Note_on_c, 9, 36, 95
8, 93720, Note_off_c, 9, 57, 80
8, 93720, Note_off_c, 9, 45, 80
8, 93720, Note_off_c, 9, 36, 80
8, 93840, Note_on_c, 9, 43, 95
8, 93960, Note_off_c, 9, 43, 80
8, 93960, Note_on_c, 9, 43, 95
8, 94080, Note_off_c, 9, 43, 80
8, 94200, Note_on_c, 9, 41, 95
8, 94320, Note_off_c, 9, 41, 80
8, 94320, Note_on_c, 9, 41, 95
8, 94440, Note_off_c, 9, 41, 80
8, 94440, Note_on_c, 9, 41, 95
8, 94560, Note_off_c, 9, 41, 80
8, 94560, Note_on_c, 9, 57, 95
8, 94560, Note_on_c, 9, 36, 95
8, 94680, Note_off_c, 9, 57, 80
8, 94680, Note_off_c, 9, 36, 80
8, 94800, Note_on_c, 9, 42, 95
8, 94800, Note_on_c, 9, 36, 95
8, 94920, Note_off_c, 9, 42, 80
8, 94920, Note_off_c, 9, 36, 80
8, 95040, Note_on_c, 9, 42, 95
8, 95040, Note_on_c, 9, 38, 95
8, 95160, Note_off_c, 9, 42, 80
8, 95160, Note_off_c, 9, 38, 80
8, 95280, Note_on_c, 9, 42, 95
8, 95400, Note_off_c, 9, 42, 80
8, 95520, Note_on_c, 9, 42, 95
8, 95520, Note_on_c, 9, 36, 95
8, 95640, Note_off_c, 9, 42, 80
8, 95640, Note_off_c, 9, 36, 80
8, 95760, Note_on_c, 9, 42, 95
8, 95760, Note_on_c, 9, 36, 95
8, 95880, Note_off_c, 9, 42, 80
8, 95880, Note_off_c, 9, 36, 80
8, 96000, Note_on_c, 9, 42, 95
8, 96000, Note_on_c, 9, 38, 95
8, 96120, Note_off_c, 9, 42, 80
8, 96120, Note_off_c, 9, 38, 80
8, 96240, Note_on_c, 9, 42, 95
8, 96360, Note_off_c, 9, 42, 80
8, 96480, Note_on_c, 9, 42, 95
8, 96480, Note_on_c, 9, 36, 95
8, 96600, Note_off_c, 9, 42, 80
8, 96600, Note_off_c, 9, 36, 80
8, 96720, Note_on_c, 9, 42, 95
8, 96720, Note_on_c, 9, 36, 95
8, 96840, Note_off_c, 9, 42, 80
8, 96840, Note_off_c, 9, 36, 80
8, 96960, Note_on_c, 9, 42, 95
8, 96960, Note_on_c, 9, 38, 95
8, 97080, Note_off_c, 9, 42, 80
8, 97080, Note_off_c, 9, 38, 80
8, 97200, Note_on_c, 9, 42, 95
8, 97320, Note_off_c, 9, 42, 80
8, 97440, Note_on_c, 9, 42, 95
8, 97440, Note_on_c, 9, 36, 95
8, 97560, Note_off_c, 9, 42, 80
8, 97560, Note_off_c, 9, 36, 80
8, 97680, Note_on_c, 9, 42, 95
8, 97680, Note_on_c, 9, 36, 95
8, 97800, Note_off_c, 9, 42, 80
8, 97800, Note_off_c, 9, 36, 80
8, 97920, Note_on_c, 9, 42, 95
8, 97920, Note_on_c, 9, 38, 95
8, 98040, Note_off_c, 9, 42, 80
8, 98040, Note_off_c, 9, 38, 80
8, 98160, Note_on_c, 9, 42, 95
8, 98280, Note_off_c, 9, 42, 80
8, 98400, Note_on_c, 9, 42, 95
8, 98400, Note_on_c, 9, 36, 95
8, 98520, Note_off_c, 9, 42, 80
8, 98520, Note_off_c, 9, 36, 80
8, 98640, Note_on_c, 9, 42, 95
8, 98640, Note_on_c, 9, 36, 95
8, 98760, Note_off_c, 9, 42, 80
8, 98760, Note_off_c, 9, 36, 80
8, 98880, Note_on_c, 9, 42, 95
8, 98880, Note_on_c, 9, 38, 95
8, 99000, Note_off_c, 9, 42, 80
8, 99000, Note_off_c, 9, 38, 80
8, 99120, Note_on_c, 9, 42, 95
8, 99240, Note_off_c, 9, 42, 80
8, 99360, Note_on_c, 9, 42, 95
8, 99360, Note_on_c, 9, 36, 95
8, 99480, Note_off_c, 9, 42, 80
8, 99480, Note_off_c, 9, 36, 80
8, 99600, Note_on_c, 9, 42, 95
8, 99600, Note_on_c, 9, 36, 95
8, 99720, Note_off_c, 9, 42, 80
8, 99720, Note_off_c, 9, 36, 80
8, 99840, Note_on_c, 9, 42, 95
8, 99840, Note_on_c, 9, 38, 95
8, 99960, Note_off_c, 9, 42, 80
8, 99960, Note_off_c, 9, 38, 80
8, 100080, Note_on_c, 9, 42, 95
8, 100200, Note_off_c, 9, 42, 80
8, 100320, Note_on_c, 9, 42, 95
8, 100320, Note_on_c, 9, 36, 95
8, 100440, Note_off_c, 9, 42, 80
8, 100440, Note_off_c, 9, 36, 80
8, 100560, Note_on_c, 9, 42, 95
8, 100560, Note_on_c, 9, 36, 95
8, 100680, Note_off_c, 9, 42, 80
8, 100680, Note_off_c, 9, 36, 80
8, 100800, Note_on_c, 9, 42, 95
8, 100800, Note_on_c, 9, 38, 95
8, 100920, Note_off_c, 9, 42, 80
8, 100920, Note_off_c, 9, 38, 80
8, 101040, Note_on_c, 9, 42, 95
8, 101160, Note_off_c, 9, 42, 80
8, 101280, Note_on_c, 9, 42, 95
8, 101280, Note_on_c, 9, 36, 95
8, 101400, Note_off_c, 9, 42, 80
8, 101400, Note_off_c, 9, 36, 80
8, 101520, Note_on_c, 9, 42, 95
8, 101520, Note_on_c, 9, 36, 95
8, 101640, Note_off_c, 9, 42, 80
8, 101640, Note_off_c, 9, 36, 80
8, 101760, Note_on_c, 9, 42, 95
8, 101760, Note_on_c, 9, 38, 95
8, 101880, Note_off_c, 9, 42, 80
8, 101880, Note_off_c, 9, 38, 80
8, 101880, Note_on_c, 9, 36, 95
8, 102000, Note_off_c, 9, 36, 80
8, 102240, Note_on_c, 9, 49, 95
8, 102240, Note_on_c, 9, 36, 95
8, 102360, Note_off_c, 9, 49, 80
8, 102360, Note_off_c, 9, 36, 80
8, 102480, Note_on_c, 9, 42, 95
8, 102480, Note_on_c, 9, 36, 95
8, 102600, Note_off_c, 9, 42, 80
8, 102600, Note_off_c, 9, 36, 80
8, 102720, Note_on_c, 9, 42, 95
8, 102720, Note_on_c, 9, 38, 95
8, 102840, Note_off_c, 9, 42, 80
8, 102840, Note_off_c, 9, 38, 80
8, 102960, Note_on_c, 9, 42, 95
8, 103080, Note_off_c, 9, 42, 80
8, 103200, Note_on_c, 9, 42, 95
8, 103200, Note_on_c, 9, 36, 95
8, 103320, Note_off_c, 9, 42, 80
8, 103320, Note_off_c, 9, 36, 80
8, 103440, Note_on_c, 9, 42, 95
8, 103440, Note_on_c, 9, 36, 95
8, 103560, Note_off_c, 9, 42, 80
8, 103560, Note_off_c, 9, 36, 80
8, 103680, Note_on_c, 9, 42, 95
8, 103680, Note_on_c, 9, 38, 95
8, 103800, Note_off_c, 9, 42, 80
8, 103800, Note_off_c, 9, 38, 80
8, 103920, Note_on_c, 9, 42, 95
8, 104040, Note_off_c, 9, 42, 80
8, 104160, Note_on_c, 9, 42, 95
8, 104160, Note_on_c, 9, 36, 95
8, 104280, Note_off_c, 9, 42, 80
8, 104280, Note_off_c, 9, 36, 80
8, 104400, Note_on_c, 9, 42, 95
8, 104400, Note_on_c, 9, 36, 95
8, 104520, Note_off_c, 9, 42, 80
8, 104520, Note_off_c, 9, 36, 80
8, 104640, Note_on_c, 9, 42, 95
8, 104640, Note_on_c, 9, 38, 95
8, 104760, Note_off_c, 9, 42, 80
8, 104760, Note_off_c, 9, 38, 80
8, 104880, Note_on_c, 9, 42, 95
8, 105000, Note_off_c, 9, 42, 80
8, 105120, Note_on_c, 9, 42, 95
8, 105120, Note_on_c, 9, 36, 95
8, 105240, Note_off_c, 9, 42, 80
8, 105240, Note_off_c, 9, 36, 80
8, 105360, Note_on_c, 9, 42, 95
8, 105360, Note_on_c, 9, 36, 95
8, 105480, Note_off_c, 9, 42, 80
8, 105480, Note_off_c, 9, 36, 80
8, 105600, Note_on_c, 9, 42, 95
8, 105600, Note_on_c, 9, 38, 95
8, 105720, Note_off_c, 9, 42, 80
8, 105720, Note_off_c, 9, 38, 80
8, 105840, Note_on_c, 9, 42, 95
8, 105960, Note_off_c, 9, 42, 80
8, 106080, Note_on_c, 9, 42, 95
8, 106080, Note_on_c, 9, 36, 95
8, 106200, Note_off_c, 9, 42, 80
8, 106200, Note_off_c, 9, 36, 80
8, 106320, Note_on_c, 9, 42, 95
8, 106320, Note_on_c, 9, 36, 95
8, 106440, Note_off_c, 9, 42, 80
8, 106440, Note_off_c, 9, 36, 80
8, 106560, Note_on_c, 9, 42, 95
8, 106560, Note_on_c, 9, 38, 95
8, 106680, Note_off_c, 9, 42, 80
8, 106680, Note_off_c, 9, 38, 80
8, 106800, Note_on_c, 9, 42, 95
8, 106920, Note_off_c, 9, 42, 80
8, 107040, Note_on_c, 9, 42, 95
8, 107040, Note_on_c, 9, 36, 95
8, 107160, Note_off_c, 9, 42, 80
8, 107160, Note_off_c, 9, 36, 80
8, 107280, Note_on_c, 9, 42, 95
8, 107280, Note_on_c, 9, 36, 95
8, 107400, Note_off_c, 9, 42, 80
8, 107400, Note_off_c, 9, 36, 80
8, 107520, Note_on_c, 9, 42, 95
8, 107520, Note_on_c, 9, 38, 95
8, 107640, Note_off_c, 9, 42, 80
8, 107640, Note_off_c, 9, 38, 80
8, 107760, Note_on_c, 9, 42, 95
8, 107880, Note_off_c, 9, 42, 80
8, 108000, Note_on_c, 9, 42, 95
8, 108000, Note_on_c, 9, 36, 95
8, 108120, Note_off_c, 9, 42, 80
8, 108120, Note_off_c, 9, 36, 80
8, 108240, Note_on_c, 9, 42, 95
8, 108240, Note_on_c, 9, 36, 95
8, 108360, Note_off_c, 9, 42, 80
8, 108360, Note_off_c, 9, 36, 80
8, 108480, Note_on_c, 9, 42, 95
8, 108480, Note_on_c, 9, 38, 95
8, 108600, Note_off_c, 9, 42, 80
8, 108600, Note_off_c, 9, 38, 80
8, 108720, Note_on_c, 9, 42, 95
8, 108840, Note_off_c, 9, 42, 80
8, 108960, Note_on_c, 9, 42, 95
8, 108960, Note_on_c, 9, 36, 95
8, 109080, Note_off_c, 9, 42, 80
8, 109080, Note_off_c, 9, 36, 80
8, 109200, Note_on_c, 9, 42, 95
8, 109200, Note_on_c, 9, 36, 95
8, 109320, Note_off_c, 9, 42, 80
8, 109320, Note_off_c, 9, 36, 80
8, 109440, Note_on_c, 9, 57, 95
8, 109440, Note_on_c, 9, 38, 95
8, 109440, Note_on_c, 9, 36, 95
8, 109560, Note_off_c, 9, 57, 80
8, 109560, Note_off_c, 9, 38, 80
8, 109560, Note_off_c, 9, 36, 80
8, 109680, Note_on_c, 9, 46, 95
8, 109800, Note_off_c, 9, 46, 80
8, 109800, Note_on_c, 9, 46, 95
8, 109920, Note_off_c, 9, 46, 80
8, 109920, Note_on_c, 9, 46, 95
8, 110040, Note_off_c, 9, 46, 80
8, 110400, Note_on_c, 9, 51, 63
8, 110520, Note_off_c, 9, 51, 80
8, 111360, Note_on_c, 9, 51, 63
8, 111480, Note_off_c, 9, 51, 80
8, 112320, Note_on_c, 9, 51, 63
8, 112440, Note_off_c, 9, 51, 80
8, 113280, Note_on_c, 9, 51, 63
8, 113400, Note_off_c, 9, 51, 80
8, 114240, Note_on_c, 9, 51, 63
8, 114360, Note_off_c, 9, 51, 80
8, 115200, Note_on_c, 9, 51, 63
8, 115320, Note_off_c, 9, 51, 80
8, 116160, Note_on_c, 9, 51, 63
8, 116280, Note_off_c, 9, 51, 80
8, 117120, Note_on_c, 9, 51, 63
8, 117240, Note_off_c, 9, 51, 80
8, 117360, Note_on_c, 9, 57, 63
8, 117480, Note_off_c, 9, 57, 80
8, 117480, Note_on_c, 9, 57, 63
8, 117600, Note_off_c, 9, 57, 80
8, 117600, Note_on_c, 9, 57, 63
8, 117720, Note_off_c, 9, 57, 80
8, 123360, Note_on_c, 9, 36, 95
8, 123480, Note_off_c, 9, 36, 80
8, 123840, Note_on_c, 9, 38, 95
8, 123840, Note_on_c, 9, 38, 95
8, 123960, Note_off_c, 9, 38, 80
8, 123960, Note_off_c, 9, 38, 80
8, 124320, Note_on_c, 9, 36, 95
8, 124440, Note_off_c, 9, 36, 80
8, 124560, Note_on_c, 9, 36, 95
8, 124680, Note_off_c, 9, 36, 80
8, 124800, Note_on_c, 9, 38, 95
8, 124800, Note_on_c, 9, 38, 95
8, 124920, Note_off_c, 9, 38, 80
8, 124920, Note_off_c, 9, 38, 80
8, 125280, Note_on_c, 9, 36, 95
8, 125400, Note_off_c, 9, 36, 80
8, 125760, Note_on_c, 9, 38, 95
8, 125760, Note_on_c, 9, 38, 95
8, 125880, Note_off_c, 9, 38, 80
8, 125880, Note_off_c, 9, 38, 80
8, 126240, Note_on_c, 9, 36, 95
8, 126360, Note_off_c, 9, 36, 80
8, 126480, Note_on_c, 9, 36, 95
8, 126600, Note_off_c, 9, 36, 80
8, 126720, Note_on_c, 9, 38, 95
8, 126840, Note_off_c, 9, 38, 80
8, 126960, Note_on_c, 9, 46, 79
8, 127080, Note_off_c, 9, 46, 80
8, 127200, Note_on_c, 9, 44, 79
8, 127200, Note_on_c, 9, 36, 95
8, 127320, Note_off_c, 9, 44, 80
8, 127320, Note_off_c, 9, 36, 80
8, 127680, Note_on_c, 9, 38, 95
8, 127680, Note_on_c, 9, 38, 95
8, 127800, Note_off_c, 9, 38, 80
8, 127800, Note_off_c, 9, 38, 80
8, 128160, Note_on_c, 9, 36, 95
8, 128280, Note_off_c, 9, 36, 80
8, 128400, Note_on_c, 9, 36, 95
8, 128520, Note_off_c, 9, 36, 80
8, 128640, Note_on_c, 9, 38, 95
8, 128640, Note_on_c, 9, 38, 95
8, 128760, Note_off_c, 9, 38, 80
8, 128760, Note_off_c, 9, 38, 80
8, 129120, Note_on_c, 9, 36, 95
8, 129240, Note_off_c, 9, 36, 80
8, 129600, Note_on_c, 9, 38, 95
8, 129600, Note_on_c, 9, 38, 95
8, 129720, Note_off_c, 9, 38, 80
8, 129720, Note_off_c, 9, 38, 80
8, 130080, Note_on_c, 9, 36, 95
8, 130200, Note_off_c, 9, 36, 80
8, 130320, Note_on_c, 9, 36, 95
8, 130440, Note_off_c, 9, 36, 80
8, 130560, Note_on_c, 9, 38, 95
8, 130680, Note_off_c, 9, 38, 80
8, 130800, Note_on_c, 9, 46, 79
8, 130920, Note_off_c, 9, 46, 80
8, 131040, Note_on_c, 9, 44, 79
8, 131040, Note_on_c, 9, 36, 95
8, 131160, Note_off_c, 9, 44, 80
8, 131160, Note_off_c, 9, 36, 80
8, 131520, Note_on_c, 9, 38, 95
8, 131520, Note_on_c, 9, 38, 95
8, 131640, Note_off_c, 9, 38, 80
8, 131640, Note_off_c, 9, 38, 80
8, 132000, Note_on_c, 9, 36, 95
8, 132120, Note_off_c, 9, 36, 80
8, 132240, Note_on_c, 9, 36, 95
8, 132360, Note_off_c, 9, 36, 80
8, 132480, Note_on_c, 9, 38, 95
8, 132480, Note_on_c, 9, 38, 95
8, 132600, Note_off_c, 9, 38, 80
8, 132600, Note_off_c, 9, 38, 80
8, 132960, Note_on_c, 9, 36, 95
8, 133080, Note_off_c, 9, 36, 80
8, 133440, Note_on_c, 9, 38, 95
8, 133440, Note_on_c, 9, 38, 95
8, 133560, Note_off_c, 9, 38, 80
8, 133560, Note_off_c, 9, 38, 80
8, 133920, Note_on_c, 9, 36, 95
8, 134040, Note_off_c, 9, 36, 80
8, 134280, Note_on_c, 9, 36, 95
8, 134400, Note_off_c, 9, 36, 80
8, 134400, Note_on_c, 9, 38, 95
8, 134520, Note_off_c, 9, 38, 80
8, 134520, Note_on_c, 9, 36, 95
8, 134640, Note_off_c, 9, 36, 80
8, 134640, Note_on_c, 9, 46, 95
8, 134760, Note_off_c, 9, 46, 80
8, 134880, Note_on_c, 9, 44, 95
8, 134880, Note_on_c, 9, 36, 95
8, 135000, Note_off_c, 9, 44, 80
8, 135000, Note_off_c, 9, 36, 80
8, 135360, Note_on_c, 9, 38, 95
8, 135360, Note_on_c, 9, 38, 95
8, 135480, Note_off_c, 9, 38, 80
8, 135480, Note_off_c, 9, 38, 80
8, 135840, Note_on_c, 9, 36, 95
8, 135960, Note_off_c, 9, 36, 80
8, 136080, Note_on_c, 9, 36, 95
8, 136200, Note_off_c, 9, 36, 80
8, 136320, Note_on_c, 9, 38, 95
8, 136320, Note_on_c, 9, 38, 95
8, 136440, Note_off_c, 9, 38, 80
8, 136440, Note_off_c, 9, 38, 80
8, 136800, Note_on_c, 9, 36, 95
8, 136920, Note_off_c, 9, 36, 80
8, 137280, Note_on_c, 9, 38, 95
8, 137280, Note_on_c, 9, 38, 95
8, 137400, Note_off_c, 9, 38, 80
8, 137400, Note_off_c, 9, 38, 80
8, 137760, Note_on_c, 9, 36, 95
8, 137880, Note_off_c, 9, 36, 80
8, 138000, Note_on_c, 9, 36, 95
8, 138120, Note_off_c, 9, 36, 80
8, 138240, Note_on_c, 9, 38, 95
8, 138360, Note_off_c, 9, 38, 80
8, 138480, Note_on_c, 9, 46, 95
8, 138600, Note_off_c, 9, 46, 80
8, 138720, Note_on_c, 9, 44, 95
8, 138720, Note_on_c, 9, 36, 95
8, 138840, Note_off_c, 9, 44, 80
8, 138840, Note_off_c, 9, 36, 80
8, 139200, Note_on_c, 9, 38, 95
8, 139200, Note_on_c, 9, 38, 95
8, 139320, Note_off_c, 9, 38, 80
8, 139320, Note_off_c, 9, 38, 80
8, 139680, Note_on_c, 9, 36, 95
8, 139800, Note_off_c, 9, 36, 80
8, 139920, Note_on_c, 9, 36, 95
8, 140040, Note_off_c, 9, 36, 80
8, 140160, Note_on_c, 9, 38, 95
8, 140160, Note_on_c, 9, 38, 95
8, 140280, Note_off_c, 9, 38, 80
8, 140280, Note_off_c, 9, 38, 80
8, 140640, Note_on_c, 9, 36, 95
8, 140760, Note_off_c, 9, 36, 80
8, 141120, Note_on_c, 9, 38, 95
8, 141120, Note_on_c, 9, 38, 95
8, 141240, Note_off_c, 9, 38, 80
8, 141240, Note_off_c, 9, 38, 80
8, 141600, Note_on_c, 9, 45, 95
8, 141600, Note_on_c, 9, 43, 95
8, 141600, Note_on_c, 9, 36, 95
8, 141720, Note_off_c, 9, 45, 80
8, 141720, Note_off_c, 9, 43, 80
8, 141720, Note_off_c, 9, 36, 80
8, 141960, Note_on_c, 9, 45, 95
8, 141960, Note_on_c, 9, 43, 95
8, 141960, Note_on_c, 9, 36, 95
8, 142080, Note_off_c, 9, 45, 80
8, 142080, Note_off_c, 9, 43, 80
8, 142080, Note_off_c, 9, 36, 80
8, 142320, Note_on_c, 9, 38, 95
8, 142320, Note_on_c, 9, 38, 95
8, 142440, Note_off_c, 9, 38, 80
8, 142440, Note_off_c, 9, 38, 80
8, 142560, Note_on_c, 9, 57, 95
8, 142560, Note_on_c, 9, 49, 95
8, 142560, Note_on_c, 9, 36, 95
8, 142680, Note_off_c, 9, 57, 80
8, 142680, Note_off_c, 9, 49, 80
8, 142680, Note_off_c, 9, 36, 80
8, 142800, Note_on_c, 9, 42, 95
8, 142800, Note_on_c, 9, 36, 95
8, 142920, Note_off_c, 9, 42, 80
8, 142920, Note_off_c, 9, 36, 80
8, 143040, Note_on_c, 9, 42, 95
8, 143040, Note_on_c, 9, 38, 95
8, 143160, Note_off_c, 9, 42, 80
8, 143160, Note_off_c, 9, 38, 80
8, 143280, Note_on_c, 9, 42, 95
8, 143400, Note_off_c, 9, 42, 80
8, 143520, Note_on_c, 9, 42, 95
8, 143520, Note_on_c, 9, 36, 95
8, 143640, Note_off_c, 9, 42, 80
8, 143640, Note_off_c, 9, 36, 80
8, 143760, Note_on_c, 9, 42, 95
8, 143760, Note_on_c, 9, 36, 95
8, 143880, Note_off_c, 9, 42, 80
8, 143880, Note_off_c, 9, 36, 80
8, 144000, Note_on_c, 9, 42, 95
8, 144000, Note_on_c, 9, 38, 95
8, 144120, Note_off_c, 9, 42, 80
8, 144120, Note_off_c, 9, 38, 80
8, 144240, Note_on_c, 9, 42, 95
8, 144360, Note_off_c, 9, 42, 80
8, 144480, Note_on_c, 9, 42, 95
8, 144480, Note_on_c, 9, 36, 95
8, 144600, Note_off_c, 9, 42, 80
8, 144600, Note_off_c, 9, 36, 80
8, 144720, Note_on_c, 9, 42, 95
8, 144720, Note_on_c, 9, 36, 95
8, 144840, Note_off_c, 9, 42, 80
8, 144840, Note_off_c, 9, 36, 80
8, 144960, Note_on_c, 9, 42, 95
8, 144960, Note_on_c, 9, 38, 95
8, 145080, Note_off_c, 9, 42, 80
8, 145080, Note_off_c, 9, 38, 80
8, 145200, Note_on_c, 9, 42, 95
8, 145320, Note_off_c, 9, 42, 80
8, 145440, Note_on_c, 9, 42, 95
8, 145440, Note_on_c, 9, 36, 95
8, 145560, Note_off_c, 9, 42, 80
8, 145560, Note_off_c, 9, 36, 80
8, 145680, Note_on_c, 9, 42, 95
8, 145680, Note_on_c, 9, 36, 95
8, 145800, Note_off_c, 9, 42, 80
8, 145800, Note_off_c, 9, 36, 80
8, 145920, Note_on_c, 9, 42, 95
8, 145920, Note_on_c, 9, 38, 95
8, 146040, Note_off_c, 9, 42, 80
8, 146040, Note_off_c, 9, 38, 80
8, 146160, Note_on_c, 9, 38, 95
8, 146280, Note_off_c, 9, 38, 80
8, 146280, Note_on_c, 9, 38, 95
8, 146400, Note_off_c, 9, 38, 80
8, 146400, Note_on_c, 9, 49, 95
8, 146400, Note_on_c, 9, 36, 95
8, 146520, Note_off_c, 9, 49, 80
8, 146520, Note_off_c, 9, 36, 80
8, 146640, Note_on_c, 9, 42, 95
8, 146640, Note_on_c, 9, 36, 95
8, 146760, Note_off_c, 9, 42, 80
8, 146760, Note_off_c, 9, 36, 80
8, 146880, Note_on_c, 9, 42, 95
8, 146880, Note_on_c, 9, 38, 95
8, 147000, Note_off_c, 9, 42, 80
8, 147000, Note_off_c, 9, 38, 80
8, 147120, Note_on_c, 9, 42, 95
8, 147240, Note_off_c, 9, 42, 80
8, 147360, Note_on_c, 9, 42, 95
8, 147360, Note_on_c, 9, 36, 95
8, 147480, Note_off_c, 9, 42, 80
8, 147480, Note_off_c, 9, 36, 80
8, 147600, Note_on_c, 9, 42, 95
8, 147600, Note_on_c, 9, 36, 95
8, 147720, Note_off_c, 9, 42, 80
8, 147720, Note_off_c, 9, 36, 80
8, 147840, Note_on_c, 9, 42, 95
8, 147840, Note_on_c, 9, 38, 95
8, 147960, Note_off_c, 9, 42, 80
8, 147960, Note_off_c, 9, 38, 80
8, 148080, Note_on_c, 9, 42, 95
8, 148200, Note_off_c, 9, 42, 80
8, 148320, Note_on_c, 9, 42, 95
8, 148320, Note_on_c, 9, 36, 95
8, 148440, Note_off_c, 9, 42, 80
8, 148440, Note_off_c, 9, 36, 80
8, 148560, Note_on_c, 9, 42, 95
8, 148560, Note_on_c, 9, 36, 95
8, 148680, Note_off_c, 9, 42, 80
8, 148680, Note_off_c, 9, 36, 80
8, 148800, Note_on_c, 9, 42, 95
8, 148800, Note_on_c, 9, 38, 95
8, 148920, Note_off_c, 9, 42, 80
8, 148920, Note_off_c, 9, 38, 80
8, 149040, Note_on_c, 9, 42, 95
8, 149160, Note_off_c, 9, 42, 80
8, 149280, Note_on_c, 9, 42, 95
8, 149280, Note_on_c, 9, 36, 95
8, 149400, Note_off_c, 9, 42, 80
8, 149400, Note_off_c, 9, 36, 80
8, 149520, Note_on_c, 9, 42, 95
8, 149520, Note_on_c, 9, 36, 95
8, 149640, Note_off_c, 9, 42, 80
8, 149640, Note_off_c, 9, 36, 80
8, 149760, Note_on_c, 9, 42, 95
8, 149760, Note_on_c, 9, 38, 95
8, 149880, Note_off_c, 9, 42, 80
8, 149880, Note_off_c, 9, 38, 80
8, 150000, Note_on_c, 9, 38, 95
8, 150120, Note_off_c, 9, 38, 80
8, 150120, Note_on_c, 9, 38, 95
8, 150240, Note_off_c, 9, 38, 80
8, 150240, Note_on_c, 9, 57, 95
8, 150240, Note_on_c, 9, 36, 95
8, 150360, Note_off_c, 9, 57, 80
8, 150360, Note_off_c, 9, 36, 80
8, 150480, Note_on_c, 9, 42, 95
8, 150480, Note_on_c, 9, 36, 95
8, 150600, Note_off_c, 9, 42, 80
8, 150600, Note_off_c, 9, 36, 80
8, 150720, Note_on_c, 9, 42, 95
8, 150720, Note_on_c, 9, 38, 95
8, 150840, Note_off_c, 9, 42, 80
8, 150840, Note_off_c, 9, 38, 80
8, 150960, Note_on_c, 9, 42, 95
8, 151080, Note_off_c, 9, 42, 80
8, 151200, Note_on_c, 9, 42, 95
8, 151200, Note_on_c, 9, 36, 95
8, 151320, Note_off_c, 9, 42, 80
8, 151320, Note_off_c, 9, 36, 80
8, 151440, Note_on_c, 9, 42, 95
8, 151440, Note_on_c, 9, 36, 95
8, 151560, Note_off_c, 9, 42, 80
8, 151560, Note_off_c, 9, 36, 80
8, 151680, Note_on_c, 9, 42, 95
8, 151680, Note_on_c, 9, 38, 95
8, 151800, Note_off_c, 9, 42, 80
8, 151800, Note_off_c, 9, 38, 80
8, 151920, Note_on_c, 9, 42, 95
8, 152040, Note_off_c, 9, 42, 80
8, 152160, Note_on_c, 9, 42, 95
8, 152160, Note_on_c, 9, 36, 95
8, 152280, Note_off_c, 9, 42, 80
8, 152280, Note_off_c, 9, 36, 80
8, 152400, Note_on_c, 9, 42, 95
8, 152400, Note_on_c, 9, 36, 95
8, 152520, Note_off_c, 9, 42, 80
8, 152520, Note_off_c, 9, 36, 80
8, 152640, Note_on_c, 9, 42, 95
8, 152640, Note_on_c, 9, 38, 95
8, 152760, Note_off_c, 9, 42, 80
8, 152760, Note_off_c, 9, 38, 80
8, 152880, Note_on_c, 9, 42, 95
8, 153000, Note_off_c, 9, 42, 80
8, 153120, Note_on_c, 9, 42, 95
8, 153120, Note_on_c, 9, 36, 95
8, 153240, Note_off_c, 9, 42, 80
8, 153240, Note_off_c, 9, 36, 80
8, 153360, Note_on_c, 9, 42, 95
8, 153360, Note_on_c, 9, 36, 95
8, 153480, Note_off_c, 9, 42, 80
8, 153480, Note_off_c, 9, 36, 80
8, 153600, Note_on_c, 9, 42, 95
8, 153600, Note_on_c, 9, 38, 95
8, 153720, Note_off_c, 9, 42, 80
8, 153720, Note_off_c, 9, 38, 80
8, 153840, Note_on_c, 9, 38, 95
8, 153960, Note_off_c, 9, 38, 80
8, 153960, Note_on_c, 9, 38, 95
8, 154080, Note_off_c, 9, 38, 80
8, 154080, Note_on_c, 9, 57, 95
8, 154080, Note_on_c, 9, 36, 95
8, 154200, Note_off_c, 9, 57, 80
8, 154200, Note_off_c, 9, 36, 80
8, 154320, Note_on_c, 9, 42, 95
8, 154320, Note_on_c, 9, 36, 95
8, 154440, Note_off_c, 9, 42, 80
8, 154440, Note_off_c, 9, 36, 80
8, 154560, Note_on_c, 9, 49, 95
8, 154560, Note_on_c, 9, 38, 95
8, 154680, Note_off_c, 9, 49, 80
8, 154680, Note_off_c, 9, 38, 80
8, 154800, Note_on_c, 9, 42, 95
8, 154920, Note_off_c, 9, 42, 80
8, 155040, Note_on_c, 9, 42, 95
8, 155040, Note_on_c, 9, 36, 95
8, 155160, Note_off_c, 9, 42, 80
8, 155160, Note_off_c, 9, 36, 80
8, 155280, Note_on_c, 9, 42, 95
8, 155280, Note_on_c, 9, 36, 95
8, 155400, Note_off_c, 9, 42, 80
8, 155400, Note_off_c, 9, 36, 80
8, 155520, Note_on_c, 9, 49, 95
8, 155520, Note_on_c, 9, 38, 95
8, 155640, Note_off_c, 9, 49, 80
8, 155640, Note_off_c, 9, 38, 80
8, 155760, Note_on_c, 9, 42, 95
8, 155880, Note_off_c, 9, 42, 80
8, 156000, Note_on_c, 9, 42, 95
8, 156000, Note_on_c, 9, 36, 95
8, 156120, Note_off_c, 9, 42, 80
8, 156120, Note_off_c, 9, 36, 80
8, 156240, Note_on_c, 9, 42, 95
8, 156240, Note_on_c, 9, 36, 95
8, 156360, Note_off_c, 9, 42, 80
8, 156360, Note_off_c, 9, 36, 80
8, 156480, Note_on_c, 9, 49, 95
8, 156480, Note_on_c, 9, 38, 95
8, 156600, Note_off_c, 9, 49, 80
8, 156600, Note_off_c, 9, 38, 80
8, 156720, Note_on_c, 9, 42, 95
8, 156840, Note_off_c, 9, 42, 80
8, 156960, Note_on_c, 9, 42, 95
8, 156960, Note_on_c, 9, 36, 95
8, 157080, Note_off_c, 9, 42, 80
8, 157080, Note_off_c, 9, 36, 80
8, 157200, Note_on_c, 9, 42, 95
8, 157200, Note_on_c, 9, 36, 95
8, 157320, Note_off_c, 9, 42, 80
8, 157320, Note_off_c, 9, 36, 80
8, 157440, Note_on_c, 9, 49, 95
8, 157440, Note_on_c, 9, 38, 95
8, 157560, Note_off_c, 9, 49, 80
8, 157560, Note_off_c, 9, 38, 80
8, 157680, Note_on_c, 9, 38, 95
8, 157800, Note_off_c, 9, 38, 80
8, 157800, Note_on_c, 9, 38, 95
8, 157920, Note_off_c, 9, 38, 80
8, 157920, Note_on_c, 9, 57, 95
8, 157920, Note_on_c, 9, 36, 95
8, 158040, Note_off_c, 9, 57, 80
8, 158040, Note_off_c, 9, 36, 80
8, 158160, Note_on_c, 9, 42, 95
8, 158160, Note_on_c, 9, 36, 95
8, 158280, Note_off_c, 9, 42, 80
8, 158280, Note_off_c, 9, 36, 80
8, 158400, Note_on_c, 9, 49, 95
8, 158400, Note_on_c, 9, 38, 95
8, 158520, Note_off_c, 9, 49, 80
8, 158520, Note_off_c, 9, 38, 80
8, 158640, Note_on_c, 9, 42, 95
8, 158760, Note_off_c, 9, 42, 80
8, 158880, Note_on_c, 9, 42, 95
8, 158880, Note_on_c, 9, 36, 95
8, 159000, Note_off_c, 9, 42, 80
8, 159000, Note_off_c, 9, 36, 80
8, 159120, Note_on_c, 9, 42, 95
8, 159120, Note_on_c, 9, 36, 95
8, 159240, Note_off_c, 9, 42, 80
8, 159240, Note_off_c, 9, 36, 80
8, 159360, Note_on_c, 9, 49, 95
8, 159360, Note_on_c, 9, 38, 95
8, 159480, Note_off_c, 9, 49, 80
8, 159480, Note_off_c, 9, 38, 80
8, 159600, Note_on_c, 9, 42, 95
8, 159720, Note_off_c, 9, 42, 80
8, 159840, Note_on_c, 9, 42, 95
8, 159840, Note_on_c, 9, 36, 95
8, 159960, Note_off_c, 9, 42, 80
8, 159960, Note_off_c, 9, 36, 80
8, 160080, Note_on_c, 9, 42, 95
8, 160080, Note_on_c, 9, 36, 95
8, 160200, Note_off_c, 9, 42, 80
8, 160200, Note_off_c, 9, 36, 80
8, 160320, Note_on_c, 9, 49, 95
8, 160320, Note_on_c, 9, 38, 95
8, 160440, Note_off_c, 9, 49, 80
8, 160440, Note_off_c, 9, 38, 80
8, 160560, Note_on_c, 9, 42, 95
8, 160680, Note_off_c, 9, 42, 80
8, 160800, Note_on_c, 9, 42, 95
8, 160800, Note_on_c, 9, 36, 95
8, 160920, Note_off_c, 9, 42, 80
8, 160920, Note_off_c, 9, 36, 80
8, 161040, Note_on_c, 9, 42, 95
8, 161040, Note_on_c, 9, 36, 95
8, 161160, Note_off_c, 9, 42, 80
8, 161160, Note_off_c, 9, 36, 80
8, 161280, Note_on_c, 9, 49, 95
8, 161280, Note_on_c, 9, 38, 95
8, 161400, Note_off_c, 9, 49, 80
8, 161400, Note_off_c, 9, 38, 80
8, 161520, Note_on_c, 9, 38, 95
8, 161640, Note_off_c, 9, 38, 80
8, 161640, Note_on_c, 9, 38, 95
8, 161760, Note_off_c, 9, 38, 80
8, 161760, Note_on_c, 9, 57, 95
8, 161760, Note_on_c, 9, 36, 95
8, 161880, Note_off_c, 9, 57, 80
8, 161880, Note_off_c, 9, 36, 80
8, 162000, Note_on_c, 9, 57, 95
8, 162000, Note_on_c, 9, 36, 95
8, 162120, Note_off_c, 9, 57, 80
8, 162120, Note_off_c, 9, 36, 80
8, 162240, Note_on_c, 9, 57, 95
8, 162240, Note_on_c, 9, 38, 95
8, 162360, Note_off_c, 9, 57, 80
8, 162360, Note_off_c, 9, 38, 80
8, 162480, Note_on_c, 9, 57, 95
8, 162600, Note_off_c, 9, 57, 80
8, 162720, Note_on_c, 9, 57, 95
8, 162720, Note_on_c, 9, 36, 95
8, 162840, Note_off_c, 9, 57, 80
8, 162840, Note_off_c, 9, 36, 80
8, 162960, Note_on_c, 9, 57, 95
8, 162960, Note_on_c, 9, 36, 95
8, 163080, Note_off_c, 9, 57, 80
8, 163080, Note_off_c, 9, 36, 80
8, 163200, Note_on_c, 9, 57, 95
8, 163200, Note_on_c, 9, 38, 95
8, 163320, Note_off_c, 9, 57, 80
8, 163320, Note_off_c, 9, 38, 80
8, 163440, Note_on_c, 9, 57, 95
8, 163440, Note_on_c, 9, 36, 95
8, 163560, Note_off_c, 9, 57, 80
8, 163560, Note_off_c, 9, 36, 80
8, 163560, End_track
9, 0, Start_track
9, 0, Title_t, "Electric Percussion"
9, 0, Control_c, 9, 100, 0
9, 0, Control_c, 9, 101, 0
9, 0, Control_c, 9, 6, 12
9, 0, Pitch_bend_c, 9, 8192
9, 0, Control_c, 9, 101, 0
9, 0, Control_c, 9, 100, 1
9, 0, Control_c, 9, 6, 64
9, 0, Control_c, 9, 38, 0
9, 0, Control_c, 9, 101, 127
9, 0, Control_c, 9, 100, 127
9, 0, Program_c, 9, 0
9, 0, Control_c, 9, 0, 0
9, 0, Control_c, 9, 7, 120
9, 0, Control_c, 9, 10, 64
9, 0, Control_c, 9, 93, 0
9, 0, Control_c, 9, 91, 0
9, 0, Control_c, 9, 92, 0
9, 0, Control_c, 9, 95, 0
9, 960, Note_on_c, 9, 82, 127
9, 960, Note_on_c, 9, 38, 31
9, 1080, Note_off_c, 9, 82, 80
9, 1080, Note_off_c, 9, 38, 80
9, 1320, Note_on_c, 9, 82, 127
9, 1320, Note_on_c, 9, 38, 31
9, 1440, Note_off_c, 9, 82, 80
9, 1440, Note_off_c, 9, 38, 80
9, 1560, Note_on_c, 9, 82, 127
9, 1560, Note_on_c, 9, 38, 31
9, 1680, Note_off_c, 9, 82, 80
9, 1680, Note_off_c, 9, 38, 80
9, 1920, Note_on_c, 9, 82, 127
9, 1920, Note_on_c, 9, 38, 31
9, 2040, Note_off_c, 9, 82, 80
9, 2040, Note_off_c, 9, 38, 80
9, 2400, Note_on_c, 9, 34, 95
9, 2400, Note_on_c, 9, 35, 95
9, 2520, Note_off_c, 9, 34, 80
9, 2520, Note_off_c, 9, 35, 80
9, 2880, Note_on_c, 9, 37, 95
9, 3000, Note_off_c, 9, 37, 80
9, 3360, Note_on_c, 9, 35, 95
9, 3600, Note_off_c, 9, 35, 80
9, 3600, Note_on_c, 9, 35, 95
9, 3840, Note_off_c, 9, 35, 80
9, 3840, Note_on_c, 9, 37, 95
9, 3960, Note_off_c, 9, 37, 80
9, 4320, Note_on_c, 9, 35, 95
9, 4440, Note_off_c, 9, 35, 80
9, 4800, Note_on_c, 9, 37, 95
9, 4920, Note_off_c, 9, 37, 80
9, 5160, Note_on_c, 9, 37, 95
9, 5280, Note_off_c, 9, 37, 80
9, 5280, Note_on_c, 9, 35, 95
9, 5400, Note_off_c, 9, 35, 80
9, 5520, Note_on_c, 9, 35, 95
9, 5640, Note_off_c, 9, 35, 80
9, 5760, Note_on_c, 9, 37, 95
9, 5880, Note_off_c, 9, 37, 80
9, 6240, Note_on_c, 9, 35, 95
9, 6360, Note_off_c, 9, 35, 80
9, 6720, Note_on_c, 9, 37, 95
9, 6840, Note_off_c, 9, 37, 80
9, 7200, Note_on_c, 9, 35, 95
9, 7320, Note_off_c, 9, 35, 80
9, 7440, Note_on_c, 9, 35, 95
9, 7560, Note_off_c, 9, 35, 80
9, 7680, Note_on_c, 9, 37, 95
9, 7800, Note_off_c, 9, 37, 80
9, 8160, Note_on_c, 9, 35, 95
9, 8280, Note_off_c, 9, 35, 80
9, 8640, Note_on_c, 9, 37, 95
9, 8760, Note_off_c, 9, 37, 80
9, 9000, Note_on_c, 9, 37, 95
9, 9120, Note_off_c, 9, 37, 80
9, 9120, Note_on_c, 9, 35, 95
9, 9240, Note_off_c, 9, 35, 80
9, 9360, Note_on_c, 9, 35, 95
9, 9480, Note_off_c, 9, 35, 80
9, 9600, Note_on_c, 9, 37, 95
9, 9720, Note_off_c, 9, 37, 80
9, 10080, Note_on_c, 9, 35, 95
9, 10200, Note_off_c, 9, 35, 80
9, 10560, Note_on_c, 9, 37, 95
9, 10680, Note_off_c, 9, 37, 80
9, 11040, Note_on_c, 9, 35, 95
9, 11160, Note_off_c, 9, 35, 80
9, 11280, Note_on_c, 9, 35, 95
9, 11400, Note_off_c, 9, 35, 80
9, 11520, Note_on_c, 9, 37, 95
9, 11640, Note_off_c, 9, 37, 80
9, 12000, Note_on_c, 9, 35, 95
9, 12120, Note_off_c, 9, 35, 80
9, 12480, Note_on_c, 9, 37, 95
9, 12600, Note_off_c, 9, 37, 80
9, 12840, Note_on_c, 9, 37, 95
9, 12960, Note_off_c, 9, 37, 80
9, 12960, Note_on_c, 9, 35, 95
9, 13080, Note_off_c, 9, 35, 80
9, 13200, Note_on_c, 9, 35, 95
9, 13320, Note_off_c, 9, 35, 80
9, 13440, Note_on_c, 9, 37, 95
9, 13560, Note_off_c, 9, 37, 80
9, 13920, Note_on_c, 9, 35, 95
9, 14040, Note_off_c, 9, 35, 80
9, 14400, Note_on_c, 9, 37, 95
9, 14520, Note_off_c, 9, 37, 80
9, 14880, Note_on_c, 9, 35, 95
9, 15000, Note_off_c, 9, 35, 80
9, 15120, Note_on_c, 9, 35, 95
9, 15240, Note_off_c, 9, 35, 80
9, 15360, Note_on_c, 9, 37, 95
9, 15480, Note_off_c, 9, 37, 80
9, 15840, Note_on_c, 9, 35, 95
9, 15960, Note_off_c, 9, 35, 80
9, 16320, Note_on_c, 9, 37, 95
9, 16440, Note_off_c, 9, 37, 80
9, 16680, Note_on_c, 9, 37, 95
9, 16800, Note_off_c, 9, 37, 80
9, 16800, Note_on_c, 9, 35, 95
9, 16920, Note_off_c, 9, 35, 80
9, 17040, Note_on_c, 9, 35, 95
9, 17160, Note_off_c, 9, 35, 80
9, 17280, Note_on_c, 9, 37, 95
9, 17400, Note_off_c, 9, 37, 80
9, 17520, Note_on_c, 9, 46, 95
9, 17640, Note_off_c, 9, 46, 80
9, 17760, Note_on_c, 9, 44, 95
9, 17760, Note_on_c, 9, 35, 95
9, 17880, Note_off_c, 9, 44, 80
9, 17880, Note_off_c, 9, 35, 80
9, 18240, Note_on_c, 9, 37, 95
9, 18360, Note_off_c, 9, 37, 80
9, 18720, Note_on_c, 9, 35, 95
9, 18840, Note_off_c, 9, 35, 80
9, 18960, Note_on_c, 9, 35, 95
9, 19080, Note_off_c, 9, 35, 80
9, 19200, Note_on_c, 9, 37, 95
9, 19320, Note_off_c, 9, 37, 80
9, 19680, Note_on_c, 9, 35, 95
9, 19800, Note_off_c, 9, 35, 80
9, 20160, Note_on_c, 9, 37, 95
9, 20280, Note_off_c, 9, 37, 80
9, 20520, Note_on_c, 9, 37, 95
9, 20640, Note_off_c, 9, 37, 80
9, 20640, Note_on_c, 9, 35, 95
9, 20760, Note_off_c, 9, 35, 80
9, 20880, Note_on_c, 9, 35, 95
9, 21000, Note_off_c, 9, 35, 80
9, 21120, Note_on_c, 9, 37, 95
9, 21240, Note_off_c, 9, 37, 80
9, 21600, Note_on_c, 9, 35, 95
9, 21720, Note_off_c, 9, 35, 80
9, 22080, Note_on_c, 9, 37, 95
9, 22200, Note_off_c, 9, 37, 80
9, 22560, Note_on_c, 9, 35, 95
9, 22680, Note_off_c, 9, 35, 80
9, 22800, Note_on_c, 9, 35, 95
9, 22920, Note_off_c, 9, 35, 80
9, 23040, Note_on_c, 9, 37, 95
9, 23160, Note_off_c, 9, 37, 80
9, 23520, Note_on_c, 9, 35, 95
9, 23640, Note_off_c, 9, 35, 80
9, 24000, Note_on_c, 9, 37, 95
9, 24120, Note_off_c, 9, 37, 80
9, 24360, Note_on_c, 9, 37, 95
9, 24480, Note_off_c, 9, 37, 80
9, 24480, Note_on_c, 9, 35, 95
9, 24600, Note_off_c, 9, 35, 80
9, 24720, Note_on_c, 9, 35, 95
9, 24840, Note_off_c, 9, 35, 80
9, 24960, Note_on_c, 9, 37, 95
9, 25080, Note_off_c, 9, 37, 80
9, 25200, Note_on_c, 9, 46, 47
9, 25320, Note_off_c, 9, 46, 80
9, 25320, Note_on_c, 9, 46, 47
9, 25440, Note_off_c, 9, 46, 80
9, 25440, Note_on_c, 9, 46, 47
9, 25440, Note_on_c, 9, 35, 95
9, 25560, Note_off_c, 9, 46, 80
9, 25560, Note_off_c, 9, 35, 80
9, 25680, Note_on_c, 9, 35, 95
9, 25800, Note_off_c, 9, 35, 80
9, 25920, Note_on_c, 9, 37, 95
9, 26040, Note_off_c, 9, 37, 80
9, 26400, Note_on_c, 9, 35, 95
9, 26520, Note_off_c, 9, 35, 80
9, 26640, Note_on_c, 9, 35, 95
9, 26760, Note_off_c, 9, 35, 80
9, 26880, Note_on_c, 9, 37, 95
9, 27000, Note_off_c, 9, 37, 80
9, 27360, Note_on_c, 9, 35, 95
9, 27480, Note_off_c, 9, 35, 80
9, 27600, Note_on_c, 9, 35, 95
9, 27720, Note_off_c, 9, 35, 80
9, 27840, Note_on_c, 9, 37, 95
9, 27960, Note_off_c, 9, 37, 80
9, 28200, Note_on_c, 9, 37, 95
9, 28320, Note_off_c, 9, 37, 80
9, 28320, Note_on_c, 9, 35, 95
9, 28440, Note_off_c, 9, 35, 80
9, 28560, Note_on_c, 9, 46, 95
9, 28560, Note_on_c, 9, 35, 95
9, 28680, Note_off_c, 9, 46, 80
9, 28680, Note_off_c, 9, 35, 80
9, 28800, Note_on_c, 9, 44, 95
9, 28800, Note_on_c, 9, 39, 127
9, 28800, Note_on_c, 9, 37, 95
9, 28920, Note_off_c, 9, 44, 80
9, 28920, Note_off_c, 9, 39, 80
9, 28920, Note_off_c, 9, 37, 80
9, 29280, Note_on_c, 9, 35, 95
9, 29400, Note_off_c, 9, 35, 80
9, 29520, Note_on_c, 9, 35, 95
9, 29640, Note_off_c, 9, 35, 80
9, 29760, Note_on_c, 9, 37, 95
9, 29880, Note_off_c, 9, 37, 80
9, 30240, Note_on_c, 9, 35, 95
9, 30360, Note_off_c, 9, 35, 80
9, 30480, Note_on_c, 9, 35, 95
9, 30600, Note_off_c, 9, 35, 80
9, 30720, Note_on_c, 9, 37, 95
9, 30840, Note_off_c, 9, 37, 80
9, 31200, Note_on_c, 9, 35, 95
9, 31320, Note_off_c, 9, 35, 80
9, 31440, Note_on_c, 9, 35, 95
9, 31560, Note_off_c, 9, 35, 80
9, 31680, Note_on_c, 9, 37, 95
9, 31800, Note_off_c, 9, 37, 80
9, 32040, Note_on_c, 9, 37, 95
9, 32160, Note_off_c, 9, 37, 80
9, 32160, Note_on_c, 9, 35, 95
9, 32280, Note_off_c, 9, 35, 80
9, 32400, Note_on_c, 9, 35, 95
9, 32520, Note_off_c, 9, 35, 80
9, 32640, Note_on_c, 9, 37, 95
9, 32760, Note_off_c, 9, 37, 80
9, 32880, Note_on_c, 9, 46, 47
9, 33000, Note_off_c, 9, 46, 80
9, 33000, Note_on_c, 9, 46, 47
9, 33120, Note_off_c, 9, 46, 80
9, 33120, Note_on_c, 9, 46, 47
9, 33240, Note_off_c, 9, 46, 80
9, 35040, Note_on_c, 9, 34, 95
9, 35040, Note_on_c, 9, 35, 95
9, 35160, Note_off_c, 9, 34, 80
9, 35160, Note_off_c, 9, 35, 80
9, 36000, Note_on_c, 9, 35, 95
9, 36120, Note_off_c, 9, 35, 80
9, 36240, Note_on_c, 9, 35, 95
9, 36360, Note_off_c, 9, 35, 80
9, 48960, Note_on_c, 9, 37, 95
9, 49080, Note_off_c, 9, 37, 80
9, 49200, Note_on_c, 9, 51, 95
9, 49200, Note_on_c, 9, 35, 95
9, 49320, Note_off_c, 9, 51, 80
9, 49320, Note_off_c, 9, 35, 80
9, 49680, Note_on_c, 9, 46, 95
9, 49800, Note_off_c, 9, 46, 80
9, 49920, Note_on_c, 9, 44, 95
9, 49920, Note_on_c, 9, 37, 95
9, 50040, Note_off_c, 9, 44, 80
9, 50040, Note_off_c, 9, 37, 80
9, 50400, Note_on_c, 9, 44, 95
9, 50520, Note_off_c, 9, 44, 80
9, 50640, Note_on_c, 9, 35, 95
9, 50760, Note_off_c, 9, 35, 80
9, 50880, Note_on_c, 9, 37, 95
9, 51000, Note_off_c, 9, 37, 80
9, 51240, Note_on_c, 9, 37, 95
9, 51360, Note_off_c, 9, 37, 80
9, 51360, Note_on_c, 9, 35, 95
9, 51480, Note_off_c, 9, 35, 80
9, 51600, Note_on_c, 9, 46, 95
9, 51720, Note_off_c, 9, 46, 80
9, 51840, Note_on_c, 9, 44, 95
9, 51840, Note_on_c, 9, 37, 95
9, 51960, Note_off_c, 9, 44, 80
9, 51960, Note_off_c, 9, 37, 80
9, 52320, Note_on_c, 9, 51, 95
9, 52320, Note_on_c, 9, 35, 95
9, 52440, Note_off_c, 9, 51, 80
9, 52440, Note_off_c, 9, 35, 80
9, 52560, Note_on_c, 9, 35, 95
9, 52680, Note_off_c, 9, 35, 80
9, 52800, Note_on_c, 9, 37, 95
9, 52920, Note_off_c, 9, 37, 80
9, 53040, Note_on_c, 9, 51, 95
9, 53040, Note_on_c, 9, 35, 95
9, 53160, Note_off_c, 9, 51, 80
9, 53160, Note_off_c, 9, 35, 80
9, 53520, Note_on_c, 9, 46, 95
9, 53640, Note_off_c, 9, 46, 80
9, 53760, Note_on_c, 9, 44, 95
9, 53760, Note_on_c, 9, 37, 95
9, 53880, Note_off_c, 9, 44, 80
9, 53880, Note_off_c, 9, 37, 80
9, 54240, Note_on_c, 9, 35, 95
9, 54360, Note_off_c, 9, 35, 80
9, 54720, Note_on_c, 9, 35, 95
9, 54840, Note_off_c, 9, 35, 80
9, 71520, Note_on_c, 9, 34, 95
9, 71520, Note_on_c, 9, 35, 95
9, 71640, Note_off_c, 9, 34, 80
9, 71640, Note_off_c, 9, 35, 80
9, 72480, Note_on_c, 9, 35, 95
9, 72600, Note_off_c, 9, 35, 80
9, 72720, Note_on_c, 9, 35, 95
9, 72840, Note_off_c, 9, 35, 80
9, 73440, Note_on_c, 9, 35, 95
9, 73560, Note_off_c, 9, 35, 80
9, 73920, Note_on_c, 9, 37, 95
9, 74040, Note_off_c, 9, 37, 80
9, 74280, Note_on_c, 9, 37, 95
9, 74400, Note_off_c, 9, 37, 80
9, 74400, Note_on_c, 9, 35, 95
9, 74520, Note_off_c, 9, 35, 80
9, 74640, Note_on_c, 9, 35, 95
9, 74760, Note_off_c, 9, 35, 80
9, 74880, Note_on_c, 9, 37, 95
9, 75000, Note_off_c, 9, 37, 80
9, 75120, Note_on_c, 9, 46, 95
9, 75240, Note_off_c, 9, 46, 80
9, 75360, Note_on_c, 9, 44, 95
9, 75360, Note_on_c, 9, 35, 95
9, 75480, Note_off_c, 9, 44, 80
9, 75480, Note_off_c, 9, 35, 80
9, 75840, Note_on_c, 9, 37, 95
9, 75960, Note_off_c, 9, 37, 80
9, 76320, Note_on_c, 9, 35, 95
9, 76440, Note_off_c, 9, 35, 80
9, 76560, Note_on_c, 9, 35, 95
9, 76680, Note_off_c, 9, 35, 80
9, 76800, Note_on_c, 9, 37, 95
9, 76920, Note_off_c, 9, 37, 80
9, 77280, Note_on_c, 9, 35, 95
9, 77400, Note_off_c, 9, 35, 80
9, 77760, Note_on_c, 9, 37, 95
9, 77880, Note_off_c, 9, 37, 80
9, 78000, Note_on_c, 9, 35, 95
9, 78120, Note_off_c, 9, 35, 80
9, 78240, Note_on_c, 9, 35, 95
9, 78360, Note_off_c, 9, 35, 80
9, 78480, Note_on_c, 9, 35, 95
9, 78600, Note_off_c, 9, 35, 80
9, 78720, Note_on_c, 9, 37, 95
9, 78840, Note_off_c, 9, 37, 80
9, 163680, Note_on_c, 9, 34, 95
9, 165120, Note_off_c, 9, 34, 80
9, 165120, End_track
10, 0, Start_track
10, 0, Title_t, "Shakers"
10, 0, Control_c, 9, 100, 0
10, 0, Control_c, 9, 101, 0
10, 0, Control_c, 9, 6, 12
10, 0, Pitch_bend_c, 9, 8192
10, 0, Control_c, 9, 101, 0
10, 0, Control_c, 9, 100, 1
10, 0, Control_c, 9, 6, 64
10, 0, Control_c, 9, 38, 0
10, 0, Control_c, 9, 101, 127
10, 0, Control_c, 9, 100, 127
10, 0, Program_c, 9, 0
10, 0, Control_c, 9, 0, 0
10, 0, Control_c, 9, 7, 120
10, 0, Control_c, 9, 10, 64
10, 0, Control_c, 9, 93, 0
10, 0, Control_c, 9, 91, 0
10, 0, Control_c, 9, 92, 0
10, 0, Control_c, 9, 95, 0
10, 0, Note_on_c, 9, 82, 31
10, 120, Note_off_c, 9, 82, 80
10, 120, Note_on_c, 9, 82, 31
10, 240, Note_off_c, 9, 82, 80
10, 240, Note_on_c, 9, 82, 31
10, 360, Note_off_c, 9, 82, 80
10, 360, Note_on_c, 9, 82, 31
10, 480, Note_off_c, 9, 82, 80
10, 480, Note_on_c, 9, 82, 31
10, 600, Note_off_c, 9, 82, 80
10, 600, Note_on_c, 9, 82, 31
10, 720, Note_off_c, 9, 82, 80
10, 720, Note_on_c, 9, 82, 31
10, 840, Note_off_c, 9, 82, 80
10, 840, Note_on_c, 9, 82, 31
10, 960, Note_off_c, 9, 82, 80
10, 960, Note_on_c, 9, 82, 31
10, 1080, Note_off_c, 9, 82, 80
10, 1080, Note_on_c, 9, 82, 31
10, 1200, Note_off_c, 9, 82, 80
10, 1200, Note_on_c, 9, 82, 31
10, 1320, Note_off_c, 9, 82, 80
10, 1320, Note_on_c, 9, 82, 31
10, 1440, Note_off_c, 9, 82, 80
10, 1440, Note_on_c, 9, 82, 31
10, 1560, Note_off_c, 9, 82, 80
10, 1560, Note_on_c, 9, 82, 31
10, 1680, Note_off_c, 9, 82, 80
10, 1680, Note_on_c, 9, 82, 31
10, 1800, Note_off_c, 9, 82, 80
10, 1800, Note_on_c, 9, 82, 31
10, 1920, Note_off_c, 9, 82, 80
10, 1920, Note_on_c, 9, 82, 31
10, 2040, Note_off_c, 9, 82, 80
10, 2040, Note_on_c, 9, 82, 31
10, 2160, Note_off_c, 9, 82, 80
10, 2160, Note_on_c, 9, 82, 31
10, 2280, Note_off_c, 9, 82, 80
10, 2280, Note_on_c, 9, 82, 31
10, 2400, Note_off_c, 9, 82, 80
10, 25440, Note_on_c, 9, 82, 31
10, 25920, Note_off_c, 9, 82, 80
10, 25920, Note_on_c, 9, 82, 31
10, 26400, Note_off_c, 9, 82, 80
10, 26400, Note_on_c, 9, 82, 31
10, 26880, Note_off_c, 9, 82, 80
10, 26880, Note_on_c, 9, 82, 31
10, 27360, Note_off_c, 9, 82, 80
10, 27360, Note_on_c, 9, 82, 31
10, 27840, Note_off_c, 9, 82, 80
10, 27840, Note_on_c, 9, 82, 31
10, 28080, Note_off_c, 9, 82, 80
10, 28080, Note_on_c, 9, 82, 31
10, 28200, Note_off_c, 9, 82, 80
10, 28200, Note_on_c, 9, 82, 31
10, 28320, Note_off_c, 9, 82, 80
10, 28320, Note_on_c, 9, 82, 31
10, 28440, Note_off_c, 9, 82, 80
10, 28560, Note_on_c, 9, 82, 31
10, 28680, Note_off_c, 9, 82, 80
10, 28800, Note_on_c, 9, 82, 31
10, 28920, Note_off_c, 9, 82, 80
10, 29280, Note_on_c, 9, 82, 31
10, 29760, Note_off_c, 9, 82, 80
10, 29760, Note_on_c, 9, 82, 31
10, 30240, Note_off_c, 9, 82, 80
10, 30240, Note_on_c, 9, 82, 31
10, 30720, Note_off_c, 9, 82, 80
10, 30720, Note_on_c, 9, 82, 31
10, 31200, Note_off_c, 9, 82, 80
10, 31200, Note_on_c, 9, 82, 31
10, 31680, Note_off_c, 9, 82, 80
10, 31680, Note_on_c, 9, 82, 31
10, 31920, Note_off_c, 9, 82, 80
10, 31920, Note_on_c, 9, 82, 31
10, 32040, Note_off_c, 9, 82, 80
10, 32040, Note_on_c, 9, 82, 31
10, 32160, Note_off_c, 9, 82, 80
10, 32160, Note_on_c, 9, 82, 31
10, 32280, Note_off_c, 9, 82, 80
10, 32400, Note_on_c, 9, 82, 31
10, 32520, Note_off_c, 9, 82, 80
10, 34920, Note_on_c, 9, 82, 31
10, 35040, Note_off_c, 9, 82, 80
10, 35040, Note_on_c, 9, 82, 31
10, 35160, Note_off_c, 9, 82, 80
10, 35160, Note_on_c, 9, 82, 31
10, 35280, Note_off_c, 9, 82, 80
10, 35280, Note_on_c, 9, 82, 31
10, 35400, Note_off_c, 9, 82, 80
10, 35400, Note_on_c, 9, 82, 31
10, 35520, Note_off_c, 9, 82, 80
10, 35520, Note_on_c, 9, 82, 31
10, 35640, Note_off_c, 9, 82, 80
10, 35640, Note_on_c, 9, 82, 31
10, 35760, Note_off_c, 9, 82, 80
10, 35760, Note_on_c, 9, 82, 31
10, 35880, Note_off_c, 9, 82, 80
10, 35880, Note_on_c, 9, 82, 31
10, 36000, Note_off_c, 9, 82, 80
10, 36000, Note_on_c, 9, 82, 31
10, 36120, Note_off_c, 9, 82, 80
10, 36120, Note_on_c, 9, 82, 31
10, 36240, Note_off_c, 9, 82, 80
10, 36240, Note_on_c, 9, 82, 31
10, 36360, Note_off_c, 9, 82, 80
10, 36360, Note_on_c, 9, 82, 31
10, 36480, Note_off_c, 9, 82, 80
10, 36480, Note_on_c, 9, 82, 31
10, 36600, Note_off_c, 9, 82, 80
10, 36600, Note_on_c, 9, 82, 31
10, 36720, Note_off_c, 9, 82, 80
10, 36720, Note_on_c, 9, 82, 31
10, 36840, Note_off_c, 9, 82, 80
10, 36840, Note_on_c, 9, 82, 31
10, 36960, Note_off_c, 9, 82, 80
10, 56160, Note_on_c, 9, 82, 31
10, 56400, Note_off_c, 9, 82, 80
10, 56400, Note_on_c, 9, 82, 31
10, 56640, Note_off_c, 9, 82, 80
10, 56640, Note_on_c, 9, 82, 31
10, 56880, Note_off_c, 9, 82, 80
10, 56880, Note_on_c, 9, 82, 31
10, 57120, Note_off_c, 9, 82, 80
10, 57120, Note_on_c, 9, 82, 31
10, 57240, Note_off_c, 9, 82, 80
10, 57240, Note_on_c, 9, 82, 31
10, 57360, Note_off_c, 9, 82, 80
10, 57360, Note_on_c, 9, 82, 31
10, 57600, Note_off_c, 9, 82, 80
10, 57600, Note_on_c, 9, 82, 31
10, 57840, Note_off_c, 9, 82, 80
10, 57840, Note_on_c, 9, 82, 31
10, 58080, Note_off_c, 9, 82, 80
10, 58080, Note_on_c, 9, 82, 31
10, 58200, Note_off_c, 9, 82, 80
10, 58200, Note_on_c, 9, 82, 31
10, 58320, Note_off_c, 9, 82, 80
10, 58320, Note_on_c, 9, 82, 31
10, 58560, Note_off_c, 9, 82, 80
10, 58560, Note_on_c, 9, 82, 31
10, 58800, Note_off_c, 9, 82, 80
10, 58800, Note_on_c, 9, 82, 31
10, 59040, Note_off_c, 9, 82, 80
10, 59040, Note_on_c, 9, 82, 31
10, 59160, Note_off_c, 9, 82, 80
10, 59160, Note_on_c, 9, 82, 31
10, 59280, Note_off_c, 9, 82, 80
10, 59280, Note_on_c, 9, 82, 31
10, 59520, Note_off_c, 9, 82, 80
10, 59520, Note_on_c, 9, 82, 31
10, 59760, Note_off_c, 9, 82, 80
10, 59760, Note_on_c, 9, 82, 31
10, 60000, Note_off_c, 9, 82, 80
10, 60000, Note_on_c, 9, 82, 31
10, 60240, Note_off_c, 9, 82, 80
10, 60240, Note_on_c, 9, 82, 31
10, 60480, Note_off_c, 9, 82, 80
10, 60480, Note_on_c, 9, 82, 31
10, 60720, Note_off_c, 9, 82, 80
10, 60720, Note_on_c, 9, 82, 31
10, 60960, Note_off_c, 9, 82, 80
10, 60960, Note_on_c, 9, 82, 31
10, 61080, Note_off_c, 9, 82, 80
10, 61080, Note_on_c, 9, 82, 31
10, 61200, Note_off_c, 9, 82, 80
10, 61200, Note_on_c, 9, 82, 31
10, 61440, Note_off_c, 9, 82, 80
10, 61440, Note_on_c, 9, 82, 31
10, 61680, Note_off_c, 9, 82, 80
10, 61680, Note_on_c, 9, 82, 31
10, 61920, Note_off_c, 9, 82, 80
10, 61920, Note_on_c, 9, 82, 31
10, 62040, Note_off_c, 9, 82, 80
10, 62040, Note_on_c, 9, 82, 31
10, 62160, Note_off_c, 9, 82, 80
10, 62160, Note_on_c, 9, 82, 31
10, 62400, Note_off_c, 9, 82, 80
10, 62400, Note_on_c, 9, 82, 31
10, 62640, Note_off_c, 9, 82, 80
10, 62640, Note_on_c, 9, 82, 31
10, 62880, Note_off_c, 9, 82, 80
10, 62880, Note_on_c, 9, 82, 31
10, 63000, Note_off_c, 9, 82, 80
10, 63000, Note_on_c, 9, 82, 31
10, 63120, Note_off_c, 9, 82, 80
10, 63120, Note_on_c, 9, 82, 31
10, 63360, Note_off_c, 9, 82, 80
10, 63360, Note_on_c, 9, 82, 31
10, 63600, Note_off_c, 9, 82, 80
10, 63840, Note_on_c, 9, 82, 31
10, 64080, Note_off_c, 9, 82, 80
10, 64080, Note_on_c, 9, 82, 31
10, 64320, Note_off_c, 9, 82, 80
10, 64320, Note_on_c, 9, 82, 31
10, 64560, Note_off_c, 9, 82, 80
10, 64560, Note_on_c, 9, 82, 31
10, 64800, Note_off_c, 9, 82, 80
10, 64800, Note_on_c, 9, 82, 31
10, 64920, Note_off_c, 9, 82, 80
10, 64920, Note_on_c, 9, 82, 31
10, 65040, Note_off_c, 9, 82, 80
10, 65040, Note_on_c, 9, 82, 31
10, 65280, Note_off_c, 9, 82, 80
10, 65280, Note_on_c, 9, 82, 31
10, 65520, Note_off_c, 9, 82, 80
10, 65520, Note_on_c, 9, 82, 31
10, 65760, Note_off_c, 9, 82, 80
10, 65760, Note_on_c, 9, 82, 31
10, 65880, Note_off_c, 9, 82, 80
10, 65880, Note_on_c, 9, 82, 31
10, 66000, Note_off_c, 9, 82, 80
10, 66000, Note_on_c, 9, 82, 31
10, 66240, Note_off_c, 9, 82, 80
10, 66240, Note_on_c, 9, 82, 31
10, 66480, Note_off_c, 9, 82, 80
10, 66480, Note_on_c, 9, 82, 31
10, 66720, Note_off_c, 9, 82, 80
10, 66720, Note_on_c, 9, 82, 31
10, 66840, Note_off_c, 9, 82, 80
10, 66840, Note_on_c, 9, 82, 31
10, 66960, Note_off_c, 9, 82, 80
10, 66960, Note_on_c, 9, 82, 31
10, 67200, Note_off_c, 9, 82, 80
10, 67200, Note_on_c, 9, 82, 31
10, 67440, Note_off_c, 9, 82, 80
10, 67440, Note_on_c, 9, 82, 31
10, 67680, Note_off_c, 9, 82, 80
10, 67680, Note_on_c, 9, 82, 31
10, 67920, Note_off_c, 9, 82, 80
10, 67920, Note_on_c, 9, 82, 31
10, 68160, Note_off_c, 9, 82, 80
10, 68160, Note_on_c, 9, 82, 31
10, 68400, Note_off_c, 9, 82, 80
10, 68400, Note_on_c, 9, 82, 31
10, 68640, Note_off_c, 9, 82, 80
10, 68640, Note_on_c, 9, 82, 31
10, 68760, Note_off_c, 9, 82, 80
10, 68760, Note_on_c, 9, 82, 31
10, 68880, Note_off_c, 9, 82, 80
10, 68880, Note_on_c, 9, 82, 31
10, 69120, Note_off_c, 9, 82, 80
10, 69120, Note_on_c, 9, 82, 31
10, 69360, Note_off_c, 9, 82, 80
10, 69360, Note_on_c, 9, 82, 31
10, 69600, Note_off_c, 9, 82, 80
10, 69600, Note_on_c, 9, 82, 31
10, 69720, Note_off_c, 9, 82, 80
10, 69720, Note_on_c, 9, 82, 31
10, 69840, Note_off_c, 9, 82, 80
10, 69840, Note_on_c, 9, 82, 31
10, 70080, Note_off_c, 9, 82, 80
10, 70080, Note_on_c, 9, 82, 31
10, 70320, Note_off_c, 9, 82, 80
10, 70320, Note_on_c, 9, 82, 31
10, 70560, Note_off_c, 9, 82, 80
10, 70560, Note_on_c, 9, 82, 31
10, 70680, Note_off_c, 9, 82, 80
10, 70680, Note_on_c, 9, 82, 31
10, 70800, Note_off_c, 9, 82, 80
10, 70800, Note_on_c, 9, 82, 31
10, 71040, Note_off_c, 9, 82, 80
10, 71160, Note_on_c, 9, 82, 31
10, 71400, Note_off_c, 9, 82, 80
10, 79200, Note_on_c, 9, 82, 31
10, 79440, Note_off_c, 9, 82, 80
10, 79440, Note_on_c, 9, 82, 31
10, 79680, Note_off_c, 9, 82, 80
10, 79680, Note_on_c, 9, 82, 31
10, 79920, Note_off_c, 9, 82, 80
10, 79920, Note_on_c, 9, 82, 31
10, 80040, Note_off_c, 9, 82, 80
10, 80040, Note_on_c, 9, 82, 31
10, 80160, Note_off_c, 9, 82, 80
10, 80160, Note_on_c, 9, 82, 31
10, 80400, Note_off_c, 9, 82, 80
10, 80400, Note_on_c, 9, 82, 31
10, 80640, Note_off_c, 9, 82, 80
10, 80640, Note_on_c, 9, 82, 31
10, 80880, Note_off_c, 9, 82, 80
10, 80880, Note_on_c, 9, 82, 31
10, 81120, Note_off_c, 9, 82, 80
10, 81120, Note_on_c, 9, 82, 31
10, 81360, Note_off_c, 9, 82, 80
10, 81360, Note_on_c, 9, 82, 31
10, 81600, Note_off_c, 9, 82, 80
10, 81600, Note_on_c, 9, 82, 31
10, 81840, Note_off_c, 9, 82, 80
10, 81840, Note_on_c, 9, 82, 31
10, 81960, Note_off_c, 9, 82, 80
10, 81960, Note_on_c, 9, 82, 31
10, 82080, Note_off_c, 9, 82, 80
10, 82080, Note_on_c, 9, 82, 31
10, 82200, Note_off_c, 9, 82, 80
10, 82200, Note_on_c, 9, 82, 31
10, 82320, Note_off_c, 9, 82, 80
10, 82320, Note_on_c, 9, 82, 31
10, 82560, Note_off_c, 9, 82, 80
10, 82560, Note_on_c, 9, 82, 31
10, 82800, Note_off_c, 9, 82, 80
10, 82800, Note_on_c, 9, 82, 31
10, 83040, Note_off_c, 9, 82, 80
10, 83040, Note_on_c, 9, 82, 31
10, 83280, Note_off_c, 9, 82, 80
10, 83280, Note_on_c, 9, 82, 31
10, 83520, Note_off_c, 9, 82, 80
10, 83520, Note_on_c, 9, 82, 31
10, 83760, Note_off_c, 9, 82, 80
10, 83760, Note_on_c, 9, 82, 31
10, 83880, Note_off_c, 9, 82, 80
10, 83880, Note_on_c, 9, 82, 31
10, 84000, Note_off_c, 9, 82, 80
10, 84000, Note_on_c, 9, 82, 31
10, 84240, Note_off_c, 9, 82, 80
10, 84240, Note_on_c, 9, 82, 31
10, 84480, Note_off_c, 9, 82, 80
10, 84480, Note_on_c, 9, 82, 31
10, 84720, Note_off_c, 9, 82, 80
10, 84720, Note_on_c, 9, 82, 31
10, 84960, Note_off_c, 9, 82, 80
10, 84960, Note_on_c, 9, 82, 31
10, 85200, Note_off_c, 9, 82, 80
10, 85200, Note_on_c, 9, 82, 31
10, 85440, Note_off_c, 9, 82, 80
10, 85440, Note_on_c, 9, 82, 31
10, 85680, Note_off_c, 9, 82, 80
10, 85680, Note_on_c, 9, 82, 31
10, 85800, Note_off_c, 9, 82, 80
10, 85800, Note_on_c, 9, 82, 31
10, 85920, Note_off_c, 9, 82, 80
10, 85920, Note_on_c, 9, 82, 31
10, 86040, Note_off_c, 9, 82, 80
10, 86040, Note_on_c, 9, 82, 31
10, 86160, Note_off_c, 9, 82, 80
10, 86160, Note_on_c, 9, 82, 31
10, 86400, Note_off_c, 9, 82, 80
10, 86400, Note_on_c, 9, 82, 31
10, 86640, Note_off_c, 9, 82, 80
10, 86640, Note_on_c, 9, 82, 31
10, 86880, Note_off_c, 9, 82, 80
10, 94560, Note_on_c, 9, 82, 31
10, 94800, Note_off_c, 9, 82, 80
10, 94800, Note_on_c, 9, 82, 31
10, 95040, Note_off_c, 9, 82, 80
10, 95040, Note_on_c, 9, 82, 31
10, 95280, Note_off_c, 9, 82, 80
10, 95280, Note_on_c, 9, 82, 31
10, 95520, Note_off_c, 9, 82, 80
10, 95520, Note_on_c, 9, 82, 31
10, 95640, Note_off_c, 9, 82, 80
10, 95640, Note_on_c, 9, 82, 31
10, 95760, Note_off_c, 9, 82, 80
10, 95760, Note_on_c, 9, 82, 31
10, 96000, Note_off_c, 9, 82, 80
10, 96000, Note_on_c, 9, 82, 31
10, 96240, Note_off_c, 9, 82, 80
10, 96240, Note_on_c, 9, 82, 31
10, 96480, Note_off_c, 9, 82, 80
10, 96480, Note_on_c, 9, 82, 31
10, 96600, Note_off_c, 9, 82, 80
10, 96600, Note_on_c, 9, 82, 31
10, 96720, Note_off_c, 9, 82, 80
10, 96720, Note_on_c, 9, 82, 31
10, 96960, Note_off_c, 9, 82, 80
10, 96960, Note_on_c, 9, 82, 31
10, 97200, Note_off_c, 9, 82, 80
10, 97200, Note_on_c, 9, 82, 31
10, 97440, Note_off_c, 9, 82, 80
10, 97440, Note_on_c, 9, 82, 31
10, 97560, Note_off_c, 9, 82, 80
10, 97560, Note_on_c, 9, 82, 31
10, 97680, Note_off_c, 9, 82, 80
10, 97680, Note_on_c, 9, 82, 31
10, 97920, Note_off_c, 9, 82, 80
10, 97920, Note_on_c, 9, 82, 31
10, 98160, Note_off_c, 9, 82, 80
10, 98160, Note_on_c, 9, 82, 31
10, 98400, Note_off_c, 9, 82, 80
10, 98400, Note_on_c, 9, 82, 31
10, 98640, Note_off_c, 9, 82, 80
10, 98640, Note_on_c, 9, 82, 31
10, 98880, Note_off_c, 9, 82, 80
10, 98880, Note_on_c, 9, 82, 31
10, 99120, Note_off_c, 9, 82, 80
10, 99120, Note_on_c, 9, 82, 31
10, 99360, Note_off_c, 9, 82, 80
10, 99360, Note_on_c, 9, 82, 31
10, 99480, Note_off_c, 9, 82, 80
10, 99480, Note_on_c, 9, 82, 31
10, 99600, Note_off_c, 9, 82, 80
10, 99600, Note_on_c, 9, 82, 31
10, 99840, Note_off_c, 9, 82, 80
10, 99840, Note_on_c, 9, 82, 31
10, 100080, Note_off_c, 9, 82, 80
10, 100080, Note_on_c, 9, 82, 31
10, 100320, Note_off_c, 9, 82, 80
10, 100320, Note_on_c, 9, 82, 31
10, 100440, Note_off_c, 9, 82, 80
10, 100440, Note_on_c, 9, 82, 31
10, 100560, Note_off_c, 9, 82, 80
10, 100560, Note_on_c, 9, 82, 31
10, 100800, Note_off_c, 9, 82, 80
10, 100800, Note_on_c, 9, 82, 31
10, 101040, Note_off_c, 9, 82, 80
10, 101040, Note_on_c, 9, 82, 31
10, 101280, Note_off_c, 9, 82, 80
10, 101280, Note_on_c, 9, 82, 31
10, 101400, Note_off_c, 9, 82, 80
10, 101400, Note_on_c, 9, 82, 31
10, 101520, Note_off_c, 9, 82, 80
10, 101520, Note_on_c, 9, 82, 31
10, 101760, Note_off_c, 9, 82, 80
10, 101760, Note_on_c, 9, 82, 31
10, 102000, Note_off_c, 9, 82, 80
10, 102240, Note_on_c, 9, 82, 31
10, 102480, Note_off_c, 9, 82, 80
10, 102480, Note_on_c, 9, 82, 31
10, 102720, Note_off_c, 9, 82, 80
10, 102720, Note_on_c, 9, 82, 31
10, 102960, Note_off_c, 9, 82, 80
10, 102960, Note_on_c, 9, 82, 31
10, 103200, Note_off_c, 9, 82, 80
10, 103200, Note_on_c, 9, 82, 31
10, 103320, Note_off_c, 9, 82, 80
10, 103320, Note_on_c, 9, 82, 31
10, 103440, Note_off_c, 9, 82, 80
10, 103440, Note_on_c, 9, 82, 31
10, 103680, Note_off_c, 9, 82, 80
10, 103680, Note_on_c, 9, 82, 31
10, 103920, Note_off_c, 9, 82, 80
10, 103920, Note_on_c, 9, 82, 31
10, 104160, Note_off_c, 9, 82, 80
10, 104160, Note_on_c, 9, 82, 31
10, 104280, Note_off_c, 9, 82, 80
10, 104280, Note_on_c, 9, 82, 31
10, 104400, Note_off_c, 9, 82, 80
10, 104400, Note_on_c, 9, 82, 31
10, 104640, Note_off_c, 9, 82, 80
10, 104640, Note_on_c, 9, 82, 31
10, 104880, Note_off_c, 9, 82, 80
10, 104880, Note_on_c, 9, 82, 31
10, 105120, Note_off_c, 9, 82, 80
10, 105120, Note_on_c, 9, 82, 31
10, 105240, Note_off_c, 9, 82, 80
10, 105240, Note_on_c, 9, 82, 31
10, 105360, Note_off_c, 9, 82, 80
10, 105360, Note_on_c, 9, 82, 31
10, 105600, Note_off_c, 9, 82, 80
10, 105600, Note_on_c, 9, 82, 31
10, 105840, Note_off_c, 9, 82, 80
10, 105840, Note_on_c, 9, 82, 31
10, 106080, Note_off_c, 9, 82, 80
10, 106080, Note_on_c, 9, 82, 31
10, 106320, Note_off_c, 9, 82, 80
10, 106320, Note_on_c, 9, 82, 31
10, 106560, Note_off_c, 9, 82, 80
10, 106560, Note_on_c, 9, 82, 31
10, 106800, Note_off_c, 9, 82, 80
10, 106800, Note_on_c, 9, 82, 31
10, 107040, Note_off_c, 9, 82, 80
10, 107040, Note_on_c, 9, 82, 31
10, 107160, Note_off_c, 9, 82, 80
10, 107160, Note_on_c, 9, 82, 31
10, 107280, Note_off_c, 9, 82, 80
10, 107280, Note_on_c, 9, 82, 31
10, 107520, Note_off_c, 9, 82, 80
10, 107520, Note_on_c, 9, 82, 31
10, 107760, Note_off_c, 9, 82, 80
10, 107760, Note_on_c, 9, 82, 31
10, 108000, Note_off_c, 9, 82, 80
10, 108000, Note_on_c, 9, 82, 31
10, 108120, Note_off_c, 9, 82, 80
10, 108120, Note_on_c, 9, 82, 31
10, 108240, Note_off_c, 9, 82, 80
10, 108240, Note_on_c, 9, 82, 31
10, 108480, Note_off_c, 9, 82, 80
10, 108480, Note_on_c, 9, 82, 31
10, 108720, Note_off_c, 9, 82, 80
10, 108720, Note_on_c, 9, 82, 31
10, 108960, Note_off_c, 9, 82, 80
10, 108960, Note_on_c, 9, 82, 31
10, 109080, Note_off_c, 9, 82, 80
10, 109080, Note_on_c, 9, 82, 31
10, 109200, Note_off_c, 9, 82, 80
10, 109200, Note_on_c, 9, 82, 31
10, 109440, Note_off_c, 9, 82, 80
10, 109440, End_track
0, 0, End_of_file
