0, 0, Header, 1, 3, 960
1, 0, Start_track
1, 0, Control_c, 0, 101, 0
1, 0, Control_c, 0, 100, 0
1, 0, Control_c, 0, 6, 12
1, 0, Control_c, 0, 38, 0
1, 0, Control_c, 1, 101, 0
1, 0, Control_c, 1, 100, 0
1, 0, Control_c, 1, 6, 12
1, 0, Control_c, 1, 38, 0
1, 0, Control_c, 2, 101, 0
1, 0, Control_c, 2, 100, 0
1, 0, Control_c, 2, 6, 12
1, 0, Control_c, 2, 38, 0
1, 0, Control_c, 3, 101, 0
1, 0, Control_c, 3, 100, 0
1, 0, Control_c, 3, 6, 12
1, 0, Control_c, 3, 38, 0
1, 0, Control_c, 4, 101, 0
1, 0, Control_c, 4, 100, 0
1, 0, Control_c, 4, 6, 12
1, 0, Control_c, 4, 38, 0
1, 0, Control_c, 5, 101, 0
1, 0, Control_c, 5, 100, 0
1, 0, Control_c, 5, 6, 12
1, 0, Control_c, 5, 38, 0
1, 0, Control_c, 6, 101, 0
1, 0, Control_c, 6, 100, 0
1, 0, Control_c, 6, 6, 12
1, 0, Control_c, 6, 38, 0
1, 0, Control_c, 7, 101, 0
1, 0, Control_c, 7, 100, 0
1, 0, Control_c, 7, 6, 12
1, 0, Control_c, 7, 38, 0
1, 0, Control_c, 8, 101, 0
1, 0, Control_c, 8, 100, 0
1, 0, Control_c, 8, 6, 12
1, 0, Control_c, 8, 38, 0
1, 0, Control_c, 9, 101, 0
1, 0, Control_c, 9, 100, 0
1, 0, Control_c, 9, 6, 12
1, 0, Control_c, 9, 38, 0
1, 0, Control_c, 10, 101, 0
1, 0, Control_c, 10, 100, 0
1, 0, Control_c, 10, 6, 12
1, 0, Control_c, 10, 38, 0
1, 0, Control_c, 11, 101, 0
1, 0, Control_c, 11, 100, 0
1, 0, Control_c, 11, 6, 12
1, 0, Control_c, 11, 38, 0
1, 0, Control_c, 12, 101, 0
1, 0, Control_c, 12, 100, 0
1, 0, Control_c, 12, 6, 12
1, 0, Control_c, 12, 38, 0
1, 0, Control_c, 13, 101, 0
1, 0, Control_c, 13, 100, 0
1, 0, Control_c, 13, 6, 12
1, 0, Control_c, 13, 38, 0
1, 0, Control_c, 14, 101, 0
1, 0, Control_c, 14, 100, 0
1, 0, Control_c, 14, 6, 12
1, 0, Control_c, 14, 38, 0
1, 0, Control_c, 15, 101, 0
1, 0, Control_c, 15, 100, 0
1, 0, Control_c, 15, 6, 12
1, 0, Control_c, 15, 38, 0
1, 0, Time_signature, 4, 2, 24, 8
1, 0, Tempo, 428571
1, 0, End_track
2, 0, Start_track
2, 0, Pitch_bend_c, 0, 8192
2, 0, Control_c, 0, 7, 127
2, 0, Control_c, 0, 10, 63
2, 0, Control_c, 0, 93, 0
2, 0, Control_c, 0, 91, 0
2, 0, Control_c, 0, 95, 0
2, 0, Control_c, 0, 92, 0
2, 0, Control_c, 0, 11, 127
2, 0, Program_c, 0, 29
2, 0, Control_c, 1, 7, 127
2, 0, Control_c, 1, 10, 63
2, 0, Control_c, 1, 93, 0
2, 0, Control_c, 1, 91, 0
2, 0, Control_c, 1, 95, 0
2, 0, Control_c, 1, 92, 0
2, 0, Control_c, 1, 11, 127
2, 0, Program_c, 1, 29
2, 0, Note_on_c, 0, 52, 95
2, 320, Note_off_c, 0, 52, 95
2, 320, Note_on_c, 0, 59, 95
2, 640, Note_off_c, 0, 59, 95
2, 640, Note_on_c, 0, 64, 95
2, 960, Note_off_c, 0, 64, 95
2, 960, Note_on_c, 0, 66, 95
2, 1280, Note_off_c, 0, 66, 95
2, 1280, Note_on_c, 0, 64, 95
2, 1600, Note_off_c, 0, 64, 95
2, 1600, Note_on_c, 0, 59, 95
2, 1920, Note_off_c, 0, 59, 95
2, 1920, Note_on_c, 0, 69, 95
2, 2240, Note_off_c, 0, 69, 95
2, 2240, Note_on_c, 0, 66, 95
2, 2560, Note_off_c, 0, 66, 95
2, 2560, Note_on_c, 0, 68, 95
2, 2880, Note_off_c, 0, 68, 95
2, 2880, Note_on_c, 0, 66, 95
2, 3200, Note_off_c, 0, 66, 95
2, 3200, Note_on_c, 0, 64, 95
2, 3520, Note_off_c, 0, 64, 95
2, 3520, Note_on_c, 0, 59, 95
2, 3840, Note_off_c, 0, 59, 95
2, 3840, Note_on_c, 0, 52, 95
2, 4160, Note_off_c, 0, 52, 95
2, 4160, Note_on_c, 0, 59, 95
2, 4480, Note_off_c, 0, 59, 95
2, 4480, Note_on_c, 0, 64, 95
2, 4800, Note_off_c, 0, 64, 95
2, 4800, Note_on_c, 0, 66, 95
2, 5120, Note_off_c, 0, 66, 95
2, 5120, Note_on_c, 0, 64, 95
2, 5440, Note_off_c, 0, 64, 95
2, 5440, Note_on_c, 0, 59, 95
2, 5760, Note_off_c, 0, 59, 95
2, 5760, Note_on_c, 0, 62, 95
2, 6080, Note_off_c, 0, 62, 95
2, 6080, Note_on_c, 0, 61, 95
2, 6400, Note_off_c, 0, 61, 95
2, 6400, Note_on_c, 0, 59, 95
2, 6720, Note_off_c, 0, 59, 95
2, 6720, Note_on_c, 0, 57, 95
2, 7040, Note_off_c, 0, 57, 95
2, 7040, Note_on_c, 0, 59, 95
2, 7360, Note_off_c, 0, 59, 95
2, 7360, Note_on_c, 0, 61, 95
2, 7680, Note_off_c, 0, 61, 95
2, 7680, Note_on_c, 0, 52, 95
2, 8000, Note_off_c, 0, 52, 95
2, 8000, Note_on_c, 0, 59, 95
2, 8320, Note_off_c, 0, 59, 95
2, 8320, Note_on_c, 0, 64, 95
2, 8640, Note_off_c, 0, 64, 95
2, 8640, Note_on_c, 0, 66, 95
2, 8960, Note_off_c, 0, 66, 95
2, 8960, Note_on_c, 0, 64, 95
2, 9280, Note_off_c, 0, 64, 95
2, 9280, Note_on_c, 0, 59, 95
2, 9600, Note_off_c, 0, 59, 95
2, 9600, Note_on_c, 0, 69, 95
2, 9920, Note_off_c, 0, 69, 95
2, 9920, Note_on_c, 0, 66, 95
2, 10240, Note_off_c, 0, 66, 95
2, 10240, Note_on_c, 0, 68, 95
2, 10560, Note_off_c, 0, 68, 95
2, 10560, Note_on_c, 0, 66, 95
2, 10880, Note_off_c, 0, 66, 95
2, 10880, Note_on_c, 0, 64, 95
2, 11200, Note_off_c, 0, 64, 95
2, 11200, Note_on_c, 0, 59, 95
2, 11520, Note_off_c, 0, 59, 95
2, 11520, Note_on_c, 0, 74, 95
2, 11840, Note_off_c, 0, 74, 95
2, 11840, Note_on_c, 0, 71, 95
2, 12160, Note_off_c, 0, 71, 95
2, 12160, Note_on_c, 0, 73, 95
2, 12480, Note_off_c, 0, 73, 95
2, 12480, Note_on_c, 0, 74, 95
2, 12800, Note_off_c, 0, 74, 95
2, 12800, Note_on_c, 0, 73, 95
2, 12960, Note_off_c, 0, 73, 95
2, 12960, Note_on_c, 0, 74, 95
2, 13120, Note_off_c, 0, 74, 95
2, 13120, Note_on_c, 0, 71, 95
2, 13440, Note_off_c, 0, 71, 95
2, 13440, Note_on_c, 0, 69, 95
2, 13760, Note_off_c, 0, 69, 95
2, 13760, Note_on_c, 0, 66, 95
2, 14080, Note_off_c, 0, 66, 95
2, 14080, Note_on_c, 0, 69, 95
2, 14400, Note_off_c, 0, 69, 95
2, 14400, Note_on_c, 0, 64, 95
2, 14720, Note_off_c, 0, 64, 95
2, 14720, Note_on_c, 0, 69, 95
2, 15040, Note_off_c, 0, 69, 95
2, 15040, Note_on_c, 0, 62, 95
2, 15360, Note_off_c, 0, 62, 95
2, 15360, Note_on_c, 0, 52, 95
2, 15680, Note_off_c, 0, 52, 95
2, 15680, Note_on_c, 0, 59, 95
2, 16000, Note_off_c, 0, 59, 95
2, 16000, Note_on_c, 0, 64, 95
2, 16320, Note_off_c, 0, 64, 95
2, 16320, Note_on_c, 0, 66, 95
2, 16640, Note_off_c, 0, 66, 95
2, 16640, Note_on_c, 0, 64, 95
2, 16960, Note_off_c, 0, 64, 95
2, 16960, Note_on_c, 0, 59, 95
2, 17280, Note_off_c, 0, 59, 95
2, 17280, Note_on_c, 0, 69, 95
2, 17600, Note_off_c, 0, 69, 95
2, 17600, Note_on_c, 0, 66, 95
2, 17920, Note_off_c, 0, 66, 95
2, 17920, Note_on_c, 0, 68, 95
2, 18240, Note_off_c, 0, 68, 95
2, 18240, Note_on_c, 0, 66, 95
2, 18560, Note_off_c, 0, 66, 95
2, 18560, Note_on_c, 0, 64, 95
2, 18880, Note_off_c, 0, 64, 95
2, 18880, Note_on_c, 0, 59, 95
2, 19200, Note_off_c, 0, 59, 95
2, 19200, Note_on_c, 0, 52, 95
2, 19520, Note_off_c, 0, 52, 95
2, 19520, Note_on_c, 0, 59, 95
2, 19840, Note_off_c, 0, 59, 95
2, 19840, Note_on_c, 0, 64, 95
2, 20160, Note_off_c, 0, 64, 95
2, 20160, Note_on_c, 0, 66, 95
2, 20480, Note_off_c, 0, 66, 95
2, 20480, Note_on_c, 0, 64, 95
2, 20800, Note_off_c, 0, 64, 95
2, 20800, Note_on_c, 0, 59, 95
2, 21120, Note_off_c, 0, 59, 95
2, 21120, Note_on_c, 0, 62, 95
2, 21440, Note_off_c, 0, 62, 95
2, 21440, Note_on_c, 0, 61, 95
2, 21760, Note_off_c, 0, 61, 95
2, 21760, Note_on_c, 0, 59, 95
2, 22080, Note_off_c, 0, 59, 95
2, 22080, Note_on_c, 0, 57, 95
2, 22400, Note_off_c, 0, 57, 95
2, 22400, Note_on_c, 0, 59, 95
2, 22720, Note_off_c, 0, 59, 95
2, 22720, Note_on_c, 0, 61, 95
2, 23040, Note_off_c, 0, 61, 95
2, 23040, Note_on_c, 0, 52, 95
2, 23360, Note_off_c, 0, 52, 95
2, 23360, Note_on_c, 0, 59, 95
2, 23680, Note_off_c, 0, 59, 95
2, 23680, Note_on_c, 0, 64, 95
2, 24000, Note_off_c, 0, 64, 95
2, 24000, Note_on_c, 0, 66, 95
2, 24320, Note_off_c, 0, 66, 95
2, 24320, Note_on_c, 0, 64, 95
2, 24640, Note_off_c, 0, 64, 95
2, 24640, Note_on_c, 0, 59, 95
2, 24960, Note_off_c, 0, 59, 95
2, 24960, Note_on_c, 0, 69, 95
2, 25280, Note_off_c, 0, 69, 95
2, 25280, Note_on_c, 0, 66, 95
2, 25600, Note_off_c, 0, 66, 95
2, 25600, Note_on_c, 0, 68, 95
2, 25920, Note_off_c, 0, 68, 95
2, 25920, Note_on_c, 0, 66, 95
2, 26240, Note_off_c, 0, 66, 95
2, 26240, Note_on_c, 0, 64, 95
2, 26560, Note_off_c, 0, 64, 95
2, 26560, Note_on_c, 0, 59, 95
2, 26880, Note_off_c, 0, 59, 95
2, 26880, Note_on_c, 0, 43, 95
2, 27200, Note_off_c, 0, 43, 95
2, 27200, Note_on_c, 0, 50, 95
2, 27520, Note_off_c, 0, 50, 95
2, 27520, Note_on_c, 0, 55, 95
2, 27840, Note_off_c, 0, 55, 95
2, 27840, Note_on_c, 1, 59, 95
2, 28000, Pitch_bend_c, 1, 9216
2, 28160, Pitch_bend_c, 1, 10240
2, 28160, Pitch_bend_c, 1, 8192
2, 28160, Note_off_c, 1, 59, 95
2, 28160, Note_on_c, 0, 62, 95
2, 28480, Note_off_c, 0, 62, 95
2, 28480, Note_on_c, 0, 67, 95
2, 28800, Note_off_c, 0, 67, 95
2, 28800, Note_on_c, 0, 71, 95
2, 29120, Note_off_c, 0, 71, 95
2, 29120, Note_on_c, 0, 74, 95
2, 29440, Note_off_c, 0, 74, 95
2, 29440, Note_on_c, 0, 71, 95
2, 29760, Note_off_c, 0, 71, 95
2, 29760, Note_on_c, 0, 76, 95
2, 30080, Note_off_c, 0, 76, 95
2, 30080, Note_on_c, 0, 73, 95
2, 30400, Note_off_c, 0, 73, 95
2, 30400, Note_on_c, 0, 69, 95
2, 30720, Note_off_c, 0, 69, 95
2, 30720, Note_on_c, 0, 64, 95
2, 31040, Note_off_c, 0, 64, 95
2, 31040, Note_on_c, 0, 71, 95
2, 31360, Note_off_c, 0, 71, 95
2, 31360, Note_on_c, 0, 76, 95
2, 31680, Note_off_c, 0, 76, 95
2, 31680, Note_on_c, 0, 78, 95
2, 32000, Note_off_c, 0, 78, 95
2, 32000, Note_on_c, 0, 76, 95
2, 32320, Note_off_c, 0, 76, 95
2, 32320, Note_on_c, 0, 71, 95
2, 32640, Note_off_c, 0, 71, 95
2, 32640, Note_on_c, 0, 81, 95
2, 32960, Note_off_c, 0, 81, 95
2, 32960, Note_on_c, 0, 78, 95
2, 33280, Note_off_c, 0, 78, 95
2, 33280, Note_on_c, 0, 80, 95
2, 33600, Note_off_c, 0, 80, 95
2, 33600, Note_on_c, 0, 78, 95
2, 33920, Note_off_c, 0, 78, 95
2, 33920, Note_on_c, 0, 76, 95
2, 34240, Note_off_c, 0, 76, 95
2, 34240, Note_on_c, 0, 71, 95
2, 34560, Note_off_c, 0, 71, 95
2, 34560, Note_on_c, 0, 64, 95
2, 34880, Note_off_c, 0, 64, 95
2, 34880, Note_on_c, 0, 71, 95
2, 35200, Note_off_c, 0, 71, 95
2, 35200, Note_on_c, 0, 76, 95
2, 35520, Note_off_c, 0, 76, 95
2, 35520, Note_on_c, 0, 78, 95
2, 35840, Note_off_c, 0, 78, 95
2, 35840, Note_on_c, 0, 76, 95
2, 36160, Note_off_c, 0, 76, 95
2, 36160, Note_on_c, 0, 71, 95
2, 36480, Note_off_c, 0, 71, 95
2, 36480, Note_on_c, 0, 74, 95
2, 36800, Note_off_c, 0, 74, 95
2, 36800, Note_on_c, 0, 73, 95
2, 37120, Note_off_c, 0, 73, 95
2, 37120, Note_on_c, 0, 71, 95
2, 37440, Note_off_c, 0, 71, 95
2, 37440, Note_on_c, 0, 69, 95
2, 37760, Note_off_c, 0, 69, 95
2, 37760, Note_on_c, 0, 71, 95
2, 38080, Note_off_c, 0, 71, 95
2, 38080, Note_on_c, 0, 73, 95
2, 38400, Note_off_c, 0, 73, 95
2, 38400, Note_on_c, 0, 64, 95
2, 38720, Note_off_c, 0, 64, 95
2, 38720, Note_on_c, 0, 71, 95
2, 39040, Note_off_c, 0, 71, 95
2, 39040, Note_on_c, 0, 76, 95
2, 39360, Note_off_c, 0, 76, 95
2, 39360, Note_on_c, 0, 78, 95
2, 39680, Note_off_c, 0, 78, 95
2, 39680, Note_on_c, 0, 76, 95
2, 40000, Note_off_c, 0, 76, 95
2, 40000, Note_on_c, 0, 71, 95
2, 40320, Note_off_c, 0, 71, 95
2, 40320, Note_on_c, 0, 81, 95
2, 40640, Note_off_c, 0, 81, 95
2, 40640, Note_on_c, 0, 78, 95
2, 40960, Note_off_c, 0, 78, 95
2, 40960, Note_on_c, 0, 80, 95
2, 41280, Note_off_c, 0, 80, 95
2, 41280, Note_on_c, 0, 78, 95
2, 41600, Note_off_c, 0, 78, 95
2, 41600, Note_on_c, 0, 76, 95
2, 41920, Note_off_c, 0, 76, 95
2, 41920, Note_on_c, 0, 71, 95
2, 42240, Note_off_c, 0, 71, 95
2, 42240, Note_on_c, 0, 86, 95
2, 42560, Note_off_c, 0, 86, 95
2, 42560, Note_on_c, 0, 83, 95
2, 42880, Note_off_c, 0, 83, 95
2, 42880, Note_on_c, 0, 85, 95
2, 43200, Note_off_c, 0, 85, 95
2, 43200, Note_on_c, 0, 86, 95
2, 43520, Note_off_c, 0, 86, 95
2, 43520, Note_on_c, 0, 85, 95
2, 43680, Note_off_c, 0, 85, 95
2, 43680, Note_on_c, 0, 86, 95
2, 43840, Note_off_c, 0, 86, 95
2, 43840, Note_on_c, 0, 85, 95
2, 44160, Note_off_c, 0, 85, 95
2, 44160, Note_on_c, 0, 81, 95
2, 44480, Note_off_c, 0, 81, 95
2, 44480, Note_on_c, 0, 78, 95
2, 44800, Note_off_c, 0, 78, 95
2, 44800, Note_on_c, 0, 81, 95
2, 45120, Note_off_c, 0, 81, 95
2, 45120, Note_on_c, 0, 76, 95
2, 45440, Note_off_c, 0, 76, 95
2, 45440, Note_on_c, 0, 81, 95
2, 45760, Note_off_c, 0, 81, 95
2, 45760, Note_on_c, 0, 74, 95
2, 46080, Note_off_c, 0, 74, 95
2, 46080, Note_on_c, 0, 64, 95
2, 46400, Note_off_c, 0, 64, 95
2, 46400, Note_on_c, 0, 71, 95
2, 46720, Note_off_c, 0, 71, 95
2, 46720, Note_on_c, 0, 76, 95
2, 47040, Note_off_c, 0, 76, 95
2, 47040, Note_on_c, 0, 78, 95
2, 47360, Note_off_c, 0, 78, 95
2, 47360, Note_on_c, 0, 76, 95
2, 47680, Note_off_c, 0, 76, 95
2, 47680, Note_on_c, 0, 71, 95
2, 48000, Note_off_c, 0, 71, 95
2, 48000, Note_on_c, 0, 81, 95
2, 48320, Note_off_c, 0, 81, 95
2, 48320, Note_on_c, 0, 78, 95
2, 48640, Note_off_c, 0, 78, 95
2, 48640, Note_on_c, 0, 80, 95
2, 48960, Note_off_c, 0, 80, 95
2, 48960, Note_on_c, 0, 78, 95
2, 49280, Note_off_c, 0, 78, 95
2, 49280, Note_on_c, 0, 76, 95
2, 49600, Note_off_c, 0, 76, 95
2, 49600, Note_on_c, 0, 71, 95
2, 49920, Note_off_c, 0, 71, 95
2, 49920, Note_on_c, 0, 64, 95
2, 50240, Note_off_c, 0, 64, 95
2, 50240, Note_on_c, 0, 71, 95
2, 50560, Note_off_c, 0, 71, 95
2, 50560, Note_on_c, 0, 76, 95
2, 50880, Note_off_c, 0, 76, 95
2, 50880, Note_on_c, 0, 78, 95
2, 51200, Note_off_c, 0, 78, 95
2, 51200, Note_on_c, 0, 76, 95
2, 51520, Note_off_c, 0, 76, 95
2, 51520, Note_on_c, 0, 71, 95
2, 51840, Note_off_c, 0, 71, 95
2, 51840, Note_on_c, 0, 74, 95
2, 52160, Note_off_c, 0, 74, 95
2, 52160, Note_on_c, 0, 73, 95
2, 52480, Note_off_c, 0, 73, 95
2, 52480, Note_on_c, 0, 71, 95
2, 52800, Note_off_c, 0, 71, 95
2, 52800, Note_on_c, 0, 69, 95
2, 53120, Note_off_c, 0, 69, 95
2, 53120, Note_on_c, 0, 71, 95
2, 53440, Note_off_c, 0, 71, 95
2, 53440, Note_on_c, 0, 73, 95
2, 53760, Note_off_c, 0, 73, 95
2, 53760, Note_on_c, 0, 71, 95
2, 54080, Note_off_c, 0, 71, 95
2, 54080, Note_on_c, 0, 64, 95
2, 54400, Note_off_c, 0, 64, 95
2, 54400, Note_on_c, 0, 76, 95
2, 54720, Note_off_c, 0, 76, 95
2, 54720, Note_on_c, 0, 78, 95
2, 55040, Note_off_c, 0, 78, 95
2, 55040, Note_on_c, 0, 76, 95
2, 55360, Note_off_c, 0, 76, 95
2, 55360, Note_on_c, 0, 71, 95
2, 55680, Note_off_c, 0, 71, 95
2, 55680, Note_on_c, 0, 81, 95
2, 56000, Note_off_c, 0, 81, 95
2, 56000, Note_on_c, 0, 78, 95
2, 56320, Note_off_c, 0, 78, 95
2, 56320, Note_on_c, 0, 80, 95
2, 56640, Note_off_c, 0, 80, 95
2, 56640, Note_on_c, 0, 78, 95
2, 56960, Note_off_c, 0, 78, 95
2, 56960, Note_on_c, 0, 76, 95
2, 57280, Note_off_c, 0, 76, 95
2, 57280, Note_on_c, 0, 71, 95
2, 57600, Note_off_c, 0, 71, 95
2, 57600, Note_on_c, 0, 55, 95
2, 57920, Note_off_c, 0, 55, 95
2, 57920, Note_on_c, 0, 62, 95
2, 58240, Note_off_c, 0, 62, 95
2, 58240, Note_on_c, 0, 67, 95
2, 58560, Note_off_c, 0, 67, 95
2, 58560, Note_on_c, 0, 71, 95
2, 58880, Note_off_c, 0, 71, 95
2, 58880, Note_on_c, 0, 74, 95
2, 59200, Note_off_c, 0, 74, 95
2, 59200, Note_on_c, 0, 79, 95
2, 59520, Note_off_c, 0, 79, 95
2, 59520, Note_on_c, 0, 83, 95
2, 59840, Note_off_c, 0, 83, 95
2, 59840, Note_on_c, 0, 86, 95
2, 60160, Note_off_c, 0, 86, 95
2, 60160, Note_on_c, 0, 83, 95
2, 60480, Note_off_c, 0, 83, 95
2, 60480, Note_on_c, 0, 88, 95
2, 60800, Note_off_c, 0, 88, 95
2, 60800, Note_on_c, 0, 85, 95
2, 61120, Note_off_c, 0, 85, 95
2, 61120, Note_on_c, 0, 81, 95
2, 61440, Note_off_c, 0, 81, 95
2, 61440, Note_on_c, 0, 68, 95
2, 62080, Note_off_c, 0, 68, 95
2, 62080, Note_on_c, 1, 69, 95
2, 62208, Pitch_bend_c, 1, 8448
2, 62336, Pitch_bend_c, 1, 8704
2, 62464, Pitch_bend_c, 1, 8960
2, 62592, Pitch_bend_c, 1, 9216
2, 62720, Pitch_bend_c, 1, 9600
2, 62720, Pitch_bend_c, 1, 8192
2, 62720, Note_off_c, 1, 69, 95
2, 62720, Note_on_c, 0, 71, 95
2, 63360, Note_off_c, 0, 71, 95
2, 63360, Note_on_c, 0, 71, 95
2, 66560, Note_off_c, 0, 71, 95
2, 66560, Note_on_c, 0, 69, 95
2, 66880, Note_off_c, 0, 69, 95
2, 66880, Note_on_c, 0, 71, 95
2, 67200, Note_off_c, 0, 71, 95
2, 67200, Note_on_c, 0, 71, 95
2, 67840, Note_off_c, 0, 71, 95
2, 67840, Note_on_c, 0, 68, 95
2, 68480, Note_off_c, 0, 68, 95
2, 68480, Note_on_c, 0, 64, 95
2, 69120, Note_off_c, 0, 64, 95
2, 69120, Note_on_c, 0, 66, 95
2, 70560, Note_off_c, 0, 66, 95
2, 70560, Note_on_c, 0, 62, 95
2, 71520, Note_off_c, 0, 62, 95
2, 71520, Note_on_c, 0, 62, 95
2, 76800, Note_off_c, 0, 62, 95
2, 76800, Note_on_c, 0, 66, 95
2, 77440, Note_off_c, 0, 66, 95
2, 77440, Note_on_c, 0, 68, 95
2, 78080, Note_off_c, 0, 68, 95
2, 78080, Note_on_c, 0, 69, 95
2, 78720, Note_off_c, 0, 69, 95
2, 78720, Note_on_c, 0, 69, 95
2, 81600, Note_off_c, 0, 69, 95
2, 81600, Note_on_c, 0, 66, 95
2, 81920, Note_off_c, 0, 66, 95
2, 81920, Note_on_c, 0, 68, 95
2, 82240, Note_off_c, 0, 68, 95
2, 82240, Note_on_c, 0, 69, 95
2, 82560, Note_off_c, 0, 69, 95
2, 82560, Note_on_c, 0, 68, 95
2, 83200, Note_off_c, 0, 68, 95
2, 83200, Note_on_c, 0, 66, 95
2, 83840, Note_off_c, 0, 66, 95
2, 83840, Note_on_c, 0, 62, 95
2, 84480, Note_off_c, 0, 62, 95
2, 84480, Note_on_c, 0, 64, 95
2, 92160, Note_off_c, 0, 64, 95
2, 92160, Note_on_c, 0, 68, 95
2, 92800, Note_off_c, 0, 68, 95
2, 92800, Note_on_c, 1, 69, 95
2, 92928, Pitch_bend_c, 1, 8448
2, 93056, Pitch_bend_c, 1, 8704
2, 93184, Pitch_bend_c, 1, 8960
2, 93312, Pitch_bend_c, 1, 9216
2, 93440, Pitch_bend_c, 1, 9600
2, 93440, Pitch_bend_c, 1, 8192
2, 93440, Note_off_c, 1, 69, 95
2, 93440, Note_on_c, 0, 71, 95
2, 94080, Note_off_c, 0, 71, 95
2, 94080, Note_on_c, 0, 71, 95
2, 96960, Note_off_c, 0, 71, 95
2, 96960, Note_on_c, 0, 71, 95
2, 97280, Note_off_c, 0, 71, 95
2, 97280, Note_on_c, 0, 73, 95
2, 97600, Note_off_c, 0, 73, 95
2, 97600, Note_on_c, 0, 74, 95
2, 97920, Note_off_c, 0, 74, 95
2, 97920, Note_on_c, 0, 73, 95
2, 98560, Note_off_c, 0, 73, 95
2, 98560, Note_on_c, 0, 71, 95
2, 99200, Note_off_c, 0, 71, 95
2, 99200, Note_on_c, 0, 69, 95
2, 99840, Note_off_c, 0, 69, 95
2, 99840, Note_on_c, 0, 66, 95
2, 100800, Note_off_c, 0, 66, 95
2, 100800, Note_on_c, 0, 61, 95
2, 101760, Note_off_c, 0, 61, 95
2, 101760, Note_on_c, 0, 61, 95
2, 107520, Note_off_c, 0, 61, 95
2, 107520, Note_on_c, 0, 69, 95
2, 107840, Note_off_c, 0, 69, 95
2, 107840, Note_on_c, 0, 71, 95
2, 108160, Note_off_c, 0, 71, 95
2, 108160, Note_on_c, 0, 73, 95
2, 108480, Note_off_c, 0, 73, 95
2, 108480, Pitch_bend_c, 1, 8192
2, 108480, Note_on_c, 1, 71, 95
2, 108669, Pitch_bend_c, 1, 8320
2, 108858, Pitch_bend_c, 1, 8448
2, 109047, Pitch_bend_c, 1, 8576
2, 109236, Pitch_bend_c, 1, 8704
2, 109425, Pitch_bend_c, 1, 8832
2, 109614, Pitch_bend_c, 1, 8960
2, 109803, Pitch_bend_c, 1, 9088
2, 109992, Pitch_bend_c, 1, 9216
2, 110181, Pitch_bend_c, 1, 9344
2, 110370, Pitch_bend_c, 1, 9472
2, 110559, Pitch_bend_c, 1, 9600
2, 110560, Pitch_bend_c, 1, 9600
2, 112640, Pitch_bend_c, 1, 9600
2, 112640, Pitch_bend_c, 1, 8192
2, 112640, Note_off_c, 1, 71, 95
2, 112640, Note_on_c, 0, 69, 95
2, 112960, Note_off_c, 0, 69, 95
2, 112960, Note_on_c, 0, 71, 95
2, 113280, Note_off_c, 0, 71, 95
2, 113280, Note_on_c, 0, 73, 95
2, 113920, Note_off_c, 0, 73, 95
2, 113920, Note_on_c, 0, 71, 95
2, 114560, Note_off_c, 0, 71, 95
2, 114560, Note_on_c, 0, 69, 95
2, 115200, Note_off_c, 0, 69, 95
2, 115200, Note_on_c, 0, 71, 95
2, 116640, Note_off_c, 0, 71, 95
2, 116640, Note_on_c, 0, 67, 95
2, 117600, Note_off_c, 0, 67, 95
2, 117600, Note_on_c, 0, 67, 95
2, 122880, Note_off_c, 0, 67, 95
2, 122880, Note_on_c, 0, 71, 95
2, 123520, Note_off_c, 0, 71, 95
2, 123520, Note_on_c, 0, 73, 95
2, 124160, Note_off_c, 0, 73, 95
2, 124160, Note_on_c, 0, 74, 95
2, 124800, Note_off_c, 0, 74, 95
2, 124800, Pitch_bend_c, 1, 8192
2, 124800, Note_on_c, 1, 73, 95
2, 124992, Pitch_bend_c, 1, 8320
2, 125184, Pitch_bend_c, 1, 8448
2, 125376, Pitch_bend_c, 1, 8576
2, 125568, Pitch_bend_c, 1, 8704
2, 125760, Pitch_bend_c, 1, 8832
2, 125760, Pitch_bend_c, 1, 8832
2, 128640, Pitch_bend_c, 1, 8832
2, 128640, Pitch_bend_c, 1, 8192
2, 128640, Note_off_c, 1, 73, 95
2, 128640, Note_on_c, 0, 74, 95
2, 129280, Note_off_c, 0, 74, 95
2, 129280, Note_on_c, 0, 76, 95
2, 129920, Note_off_c, 0, 76, 95
2, 129920, Note_on_c, 0, 78, 95
2, 130560, Note_off_c, 0, 78, 95
2, 130560, Pitch_bend_c, 1, 8192
2, 130560, Note_on_c, 1, 76, 95
2, 130734, Pitch_bend_c, 1, 8320
2, 130908, Pitch_bend_c, 1, 8448
2, 131082, Pitch_bend_c, 1, 8576
2, 131256, Pitch_bend_c, 1, 8704
2, 131430, Pitch_bend_c, 1, 8832
2, 131604, Pitch_bend_c, 1, 8960
2, 131778, Pitch_bend_c, 1, 9088
2, 131952, Pitch_bend_c, 1, 9216
2, 132126, Pitch_bend_c, 1, 9344
2, 132300, Pitch_bend_c, 1, 9472
2, 132474, Pitch_bend_c, 1, 9600
2, 132480, Pitch_bend_c, 1, 9600
2, 134400, Pitch_bend_c, 1, 9600
2, 138240, Pitch_bend_c, 1, 9600
2, 138240, Pitch_bend_c, 1, 8192
2, 138240, Note_off_c, 1, 76, 95
2, 138240, Note_on_c, 0, 78, 95
2, 138880, Note_off_c, 0, 78, 95
2, 138880, Note_on_c, 0, 80, 95
2, 139520, Note_off_c, 0, 80, 95
2, 139520, Note_on_c, 0, 81, 95
2, 140160, Note_off_c, 0, 81, 95
2, 140160, Pitch_bend_c, 1, 8192
2, 140160, Note_on_c, 1, 80, 95
2, 140448, Pitch_bend_c, 1, 8320
2, 140736, Pitch_bend_c, 1, 8448
2, 141024, Pitch_bend_c, 1, 8576
2, 141312, Pitch_bend_c, 1, 8704
2, 141600, Pitch_bend_c, 1, 8832
2, 141600, Pitch_bend_c, 1, 8832
2, 143040, Pitch_bend_c, 1, 8832
2, 143040, Pitch_bend_c, 1, 8192
2, 143040, Note_off_c, 1, 80, 95
2, 143040, Note_on_c, 0, 78, 95
2, 143360, Note_off_c, 0, 78, 95
2, 143360, Note_on_c, 0, 80, 95
2, 143680, Note_off_c, 0, 80, 95
2, 143680, Note_on_c, 0, 81, 95
2, 144000, Note_off_c, 0, 81, 95
2, 144000, Note_on_c, 0, 80, 95
2, 144960, Note_off_c, 0, 80, 95
2, 144960, Note_on_c, 1, 78, 95
2, 145080, Pitch_bend_c, 1, 7936
2, 145200, Pitch_bend_c, 1, 7552
2, 145320, Pitch_bend_c, 1, 7168
2, 145440, Pitch_bend_c, 1, 6784
2, 145440, Pitch_bend_c, 1, 8192
2, 145440, Note_off_c, 1, 78, 95
2, 145440, Note_on_c, 0, 76, 95
2, 145920, Note_off_c, 0, 76, 95
2, 145920, Note_on_c, 0, 78, 95
2, 147840, Note_off_c, 0, 78, 95
2, 147840, Note_on_c, 1, 83, 95
2, 148000, Pitch_bend_c, 1, 8192
2, 148160, Pitch_bend_c, 1, 8320
2, 148320, Pitch_bend_c, 1, 8192
2, 148480, Pitch_bend_c, 1, 8320
2, 148640, Pitch_bend_c, 1, 8192
2, 148800, Pitch_bend_c, 1, 8320
2, 148960, Pitch_bend_c, 1, 8192
2, 149120, Pitch_bend_c, 1, 8320
2, 149280, Pitch_bend_c, 1, 8192
2, 149440, Pitch_bend_c, 1, 8320
2, 149600, Pitch_bend_c, 1, 8192
2, 149760, Pitch_bend_c, 1, 8320
2, 149920, Pitch_bend_c, 1, 8192
2, 150080, Pitch_bend_c, 1, 8320
2, 150240, Pitch_bend_c, 1, 8192
2, 150400, Pitch_bend_c, 1, 8320
2, 150560, Pitch_bend_c, 1, 8192
2, 150720, Pitch_bend_c, 1, 8320
2, 150880, Pitch_bend_c, 1, 8192
2, 151040, Pitch_bend_c, 1, 8320
2, 151200, Pitch_bend_c, 1, 8192
2, 151360, Pitch_bend_c, 1, 8320
2, 151520, Pitch_bend_c, 1, 8192
2, 151680, Pitch_bend_c, 1, 8320
2, 151840, Pitch_bend_c, 1, 8192
2, 152000, Pitch_bend_c, 1, 8320
2, 152160, Pitch_bend_c, 1, 8192
2, 152320, Pitch_bend_c, 1, 8320
2, 152480, Pitch_bend_c, 1, 8192
2, 152640, Pitch_bend_c, 1, 8320
2, 152800, Pitch_bend_c, 1, 8192
2, 152960, Pitch_bend_c, 1, 8320
2, 153120, Pitch_bend_c, 1, 8192
2, 153280, Pitch_bend_c, 1, 8320
2, 153440, Pitch_bend_c, 1, 8192
2, 153600, Pitch_bend_c, 1, 8320
2, 153600, Pitch_bend_c, 1, 8192
2, 153600, Note_off_c, 1, 83, 95
2, 153600, Note_on_c, 0, 52, 95
2, 153920, Note_off_c, 0, 52, 95
2, 153920, Note_on_c, 0, 59, 95
2, 154240, Note_off_c, 0, 59, 95
2, 154240, Note_on_c, 0, 64, 95
2, 154560, Note_off_c, 0, 64, 95
2, 154560, Note_on_c, 0, 66, 95
2, 154880, Note_off_c, 0, 66, 95
2, 154880, Note_on_c, 0, 64, 95
2, 155200, Note_off_c, 0, 64, 95
2, 155200, Note_on_c, 0, 59, 95
2, 155520, Note_off_c, 0, 59, 95
2, 155520, Note_on_c, 0, 69, 95
2, 155840, Note_off_c, 0, 69, 95
2, 155840, Note_on_c, 0, 66, 95
2, 156160, Note_off_c, 0, 66, 95
2, 156160, Note_on_c, 0, 68, 95
2, 156480, Note_off_c, 0, 68, 95
2, 156480, Note_on_c, 0, 66, 95
2, 156800, Note_off_c, 0, 66, 95
2, 156800, Note_on_c, 0, 64, 95
2, 157120, Note_off_c, 0, 64, 95
2, 157120, Note_on_c, 0, 59, 95
2, 157440, Note_off_c, 0, 59, 95
2, 157440, Note_on_c, 0, 52, 95
2, 157760, Note_off_c, 0, 52, 95
2, 157760, Note_on_c, 0, 59, 95
2, 158080, Note_off_c, 0, 59, 95
2, 158080, Note_on_c, 0, 64, 95
2, 158400, Note_off_c, 0, 64, 95
2, 158400, Note_on_c, 0, 66, 95
2, 158720, Note_off_c, 0, 66, 95
2, 158720, Note_on_c, 0, 64, 95
2, 159040, Note_off_c, 0, 64, 95
2, 159040, Note_on_c, 0, 59, 95
2, 159360, Note_off_c, 0, 59, 95
2, 159360, Note_on_c, 0, 62, 95
2, 159680, Note_off_c, 0, 62, 95
2, 159680, Note_on_c, 0, 61, 95
2, 160000, Note_off_c, 0, 61, 95
2, 160000, Note_on_c, 0, 59, 95
2, 160320, Note_off_c, 0, 59, 95
2, 160320, Note_on_c, 0, 57, 95
2, 160640, Note_off_c, 0, 57, 95
2, 160640, Note_on_c, 0, 59, 95
2, 160960, Note_off_c, 0, 59, 95
2, 160960, Note_on_c, 0, 61, 95
2, 161280, Note_off_c, 0, 61, 95
2, 161280, Note_on_c, 0, 52, 95
2, 161600, Note_off_c, 0, 52, 95
2, 161600, Note_on_c, 0, 59, 95
2, 161920, Note_off_c, 0, 59, 95
2, 161920, Note_on_c, 0, 64, 95
2, 162240, Note_off_c, 0, 64, 95
2, 162240, Note_on_c, 0, 66, 95
2, 162560, Note_off_c, 0, 66, 95
2, 162560, Note_on_c, 0, 64, 95
2, 162880, Note_off_c, 0, 64, 95
2, 162880, Note_on_c, 0, 59, 95
2, 163200, Note_off_c, 0, 59, 95
2, 163200, Note_on_c, 0, 69, 95
2, 163520, Note_off_c, 0, 69, 95
2, 163520, Note_on_c, 0, 66, 95
2, 163840, Note_off_c, 0, 66, 95
2, 163840, Note_on_c, 0, 68, 95
2, 164160, Note_off_c, 0, 68, 95
2, 164160, Note_on_c, 0, 66, 95
2, 164480, Note_off_c, 0, 66, 95
2, 164480, Note_on_c, 0, 64, 95
2, 164800, Note_off_c, 0, 64, 95
2, 164800, Note_on_c, 0, 59, 95
2, 165120, Note_off_c, 0, 59, 95
2, 165120, Note_on_c, 0, 74, 95
2, 165440, Note_off_c, 0, 74, 95
2, 165440, Note_on_c, 0, 71, 95
2, 165760, Note_off_c, 0, 71, 95
2, 165760, Note_on_c, 0, 73, 95
2, 166080, Note_off_c, 0, 73, 95
2, 166080, Note_on_c, 0, 74, 95
2, 166400, Note_off_c, 0, 74, 95
2, 166400, Note_on_c, 0, 73, 95
2, 166560, Note_off_c, 0, 73, 95
2, 166560, Note_on_c, 0, 74, 95
2, 166720, Note_off_c, 0, 74, 95
2, 166720, Note_on_c, 0, 71, 95
2, 167040, Note_off_c, 0, 71, 95
2, 167040, Note_on_c, 0, 69, 95
2, 167360, Note_off_c, 0, 69, 95
2, 167360, Note_on_c, 0, 66, 95
2, 167680, Note_off_c, 0, 66, 95
2, 167680, Note_on_c, 0, 69, 95
2, 168000, Note_off_c, 0, 69, 95
2, 168000, Note_on_c, 0, 64, 95
2, 168320, Note_off_c, 0, 64, 95
2, 168320, Note_on_c, 0, 69, 95
2, 168640, Note_off_c, 0, 69, 95
2, 168640, Note_on_c, 0, 62, 95
2, 168960, Note_off_c, 0, 62, 95
2, 168960, Note_on_c, 0, 52, 95
2, 169280, Note_off_c, 0, 52, 95
2, 169280, Note_on_c, 0, 59, 95
2, 169600, Note_off_c, 0, 59, 95
2, 169600, Note_on_c, 0, 64, 95
2, 169920, Note_off_c, 0, 64, 95
2, 169920, Note_on_c, 0, 66, 95
2, 170240, Note_off_c, 0, 66, 95
2, 170240, Note_on_c, 0, 64, 95
2, 170560, Note_off_c, 0, 64, 95
2, 170560, Note_on_c, 0, 59, 95
2, 170880, Note_off_c, 0, 59, 95
2, 170880, Note_on_c, 0, 69, 95
2, 171200, Note_off_c, 0, 69, 95
2, 171200, Note_on_c, 0, 66, 95
2, 171520, Note_off_c, 0, 66, 95
2, 171520, Note_on_c, 0, 68, 95
2, 171840, Note_off_c, 0, 68, 95
2, 171840, Note_on_c, 0, 66, 95
2, 172160, Note_off_c, 0, 66, 95
2, 172160, Note_on_c, 0, 64, 95
2, 172480, Note_off_c, 0, 64, 95
2, 172480, Note_on_c, 0, 59, 95
2, 172800, Note_off_c, 0, 59, 95
2, 172800, Note_on_c, 0, 52, 95
2, 173120, Note_off_c, 0, 52, 95
2, 173120, Note_on_c, 0, 59, 95
2, 173440, Note_off_c, 0, 59, 95
2, 173440, Note_on_c, 0, 64, 95
2, 173760, Note_off_c, 0, 64, 95
2, 173760, Note_on_c, 0, 66, 95
2, 174080, Note_off_c, 0, 66, 95
2, 174080, Note_on_c, 0, 64, 95
2, 174400, Note_off_c, 0, 64, 95
2, 174400, Note_on_c, 0, 59, 95
2, 174720, Note_off_c, 0, 59, 95
2, 174720, Note_on_c, 0, 62, 95
2, 175040, Note_off_c, 0, 62, 95
2, 175040, Note_on_c, 0, 61, 95
2, 175360, Note_off_c, 0, 61, 95
2, 175360, Note_on_c, 0, 59, 95
2, 175680, Note_off_c, 0, 59, 95
2, 175680, Note_on_c, 0, 57, 95
2, 176000, Note_off_c, 0, 57, 95
2, 176000, Note_on_c, 0, 59, 95
2, 176320, Note_off_c, 0, 59, 95
2, 176320, Note_on_c, 0, 61, 95
2, 176640, Note_off_c, 0, 61, 95
2, 176640, Note_on_c, 0, 52, 95
2, 176960, Note_off_c, 0, 52, 95
2, 176960, Note_on_c, 0, 59, 95
2, 177280, Note_off_c, 0, 59, 95
2, 177280, Note_on_c, 0, 64, 95
2, 177600, Note_off_c, 0, 64, 95
2, 177600, Note_on_c, 0, 66, 95
2, 177920, Note_off_c, 0, 66, 95
2, 177920, Note_on_c, 0, 64, 95
2, 178240, Note_off_c, 0, 64, 95
2, 178240, Note_on_c, 0, 59, 95
2, 178560, Note_off_c, 0, 59, 95
2, 178560, Note_on_c, 0, 69, 95
2, 178880, Note_off_c, 0, 69, 95
2, 178880, Note_on_c, 0, 66, 95
2, 179200, Note_off_c, 0, 66, 95
2, 179200, Note_on_c, 0, 68, 95
2, 179520, Note_off_c, 0, 68, 95
2, 179520, Note_on_c, 0, 66, 95
2, 179840, Note_off_c, 0, 66, 95
2, 179840, Note_on_c, 0, 64, 95
2, 180160, Note_off_c, 0, 64, 95
2, 180160, Note_on_c, 0, 59, 95
2, 180480, Note_off_c, 0, 59, 95
2, 180480, Note_on_c, 0, 43, 95
2, 180800, Note_off_c, 0, 43, 95
2, 180800, Note_on_c, 0, 50, 95
2, 181120, Note_off_c, 0, 50, 95
2, 181120, Note_on_c, 0, 55, 95
2, 181440, Note_on_c, 1, 59, 95
2, 181600, Pitch_bend_c, 1, 9216
2, 181760, Pitch_bend_c, 1, 10240
2, 181760, Pitch_bend_c, 1, 8192
2, 181760, Note_off_c, 1, 59, 95
2, 181760, Note_on_c, 0, 62, 95
2, 182080, Note_on_c, 0, 67, 95
2, 182400, Note_off_c, 0, 67, 95
2, 182400, Note_on_c, 0, 71, 95
2, 182720, Note_off_c, 0, 71, 95
2, 182720, Note_on_c, 0, 74, 95
2, 183040, Note_off_c, 0, 74, 95
2, 183040, Note_on_c, 0, 71, 95
2, 183360, Note_off_c, 0, 71, 95
2, 183360, Note_on_c, 0, 76, 95
2, 183680, Note_off_c, 0, 76, 95
2, 183680, Note_on_c, 0, 73, 95
2, 184000, Note_off_c, 0, 73, 95
2, 184000, Note_on_c, 0, 69, 95
2, 184320, Note_off_c, 0, 69, 95
2, 184320, Note_on_c, 0, 80, 95
2, 184960, Note_off_c, 0, 80, 95
2, 184960, Note_on_c, 0, 81, 95
2, 185600, Note_off_c, 0, 81, 95
2, 185600, Note_on_c, 0, 83, 95
2, 186240, Note_off_c, 0, 83, 95
2, 186240, Note_on_c, 0, 83, 95
2, 189120, Note_off_c, 0, 83, 95
2, 189120, Note_on_c, 0, 80, 95
2, 189440, Note_off_c, 0, 62, 95
2, 189440, Note_off_c, 0, 80, 95
2, 189440, Note_on_c, 0, 81, 95
2, 189760, Note_off_c, 0, 81, 95
2, 189760, Note_on_c, 0, 83, 95
2, 190080, Note_off_c, 0, 83, 95
2, 190080, Note_on_c, 0, 81, 95
2, 190720, Note_off_c, 0, 81, 95
2, 190720, Note_on_c, 0, 80, 95
2, 191360, Note_off_c, 0, 80, 95
2, 191360, Note_on_c, 0, 76, 95
2, 192000, Note_off_c, 0, 76, 95
2, 192000, Note_on_c, 0, 78, 95
2, 192960, Note_off_c, 0, 78, 95
2, 192960, Note_on_c, 0, 74, 95
2, 193920, Note_off_c, 0, 74, 95
2, 193920, Note_on_c, 0, 74, 95
2, 195840, Note_off_c, 0, 74, 95
2, 195840, Note_on_c, 0, 74, 95
2, 196080, Note_off_c, 0, 74, 95
2, 196080, Note_on_c, 0, 76, 95
2, 196320, Note_off_c, 0, 76, 95
2, 196320, Note_on_c, 0, 74, 95
2, 196560, Note_off_c, 0, 74, 95
2, 196560, Note_on_c, 0, 76, 95
2, 196800, Note_off_c, 0, 76, 95
2, 196800, Note_on_c, 0, 74, 95
2, 197040, Note_off_c, 0, 74, 95
2, 197040, Note_on_c, 0, 76, 95
2, 197280, Note_off_c, 0, 76, 95
2, 197280, Note_on_c, 0, 74, 95
2, 197520, Note_off_c, 0, 74, 95
2, 197520, Note_on_c, 0, 76, 95
2, 197760, Note_off_c, 0, 76, 95
2, 197760, Note_on_c, 0, 74, 95
2, 198000, Note_off_c, 0, 74, 95
2, 198000, Note_on_c, 0, 76, 95
2, 198240, Note_off_c, 0, 76, 95
2, 198240, Note_on_c, 0, 74, 95
2, 198480, Note_off_c, 0, 74, 95
2, 198480, Note_on_c, 0, 76, 95
2, 198720, Note_off_c, 0, 76, 95
2, 198720, Note_on_c, 0, 74, 95
2, 198960, Note_off_c, 0, 74, 95
2, 198960, Note_on_c, 0, 76, 95
2, 199200, Note_off_c, 0, 76, 95
2, 199200, Note_on_c, 0, 74, 95
2, 199440, Note_off_c, 0, 74, 95
2, 199440, Note_on_c, 0, 76, 95
2, 199679, Note_off_c, 0, 76, 95
2, 199680, Note_off_c, 0, 55, 95
2, 199680, Note_on_c, 0, 78, 95
2, 200320, Note_off_c, 0, 78, 95
2, 200320, Note_on_c, 0, 80, 95
2, 200960, Note_off_c, 0, 80, 95
2, 200960, Note_on_c, 0, 81, 95
2, 201600, Note_off_c, 0, 81, 95
2, 201600, Note_on_c, 0, 81, 95
2, 204480, Note_off_c, 0, 81, 95
2, 204480, Note_on_c, 0, 78, 95
2, 204800, Note_off_c, 0, 78, 95
2, 204800, Note_on_c, 0, 80, 95
2, 205120, Note_off_c, 0, 80, 95
2, 205120, Note_on_c, 0, 81, 95
2, 205440, Note_off_c, 0, 81, 95
2, 205440, Note_on_c, 0, 80, 95
2, 206080, Note_off_c, 0, 80, 95
2, 206080, Note_on_c, 0, 78, 95
2, 206720, Note_off_c, 0, 78, 95
2, 206720, Note_on_c, 0, 74, 95
2, 207360, Note_off_c, 0, 74, 95
2, 207360, Note_on_c, 0, 76, 95
2, 215040, Note_off_c, 0, 76, 95
2, 215040, Note_on_c, 0, 80, 95
2, 215680, Note_off_c, 0, 80, 95
2, 215680, Note_on_c, 0, 81, 95
2, 216320, Note_off_c, 0, 81, 95
2, 216320, Note_on_c, 0, 83, 95
2, 216960, Note_off_c, 0, 83, 95
2, 216960, Note_on_c, 0, 83, 95
2, 219840, Note_off_c, 0, 83, 95
2, 219840, Note_on_c, 0, 83, 95
2, 220160, Note_off_c, 0, 83, 95
2, 220160, Note_on_c, 0, 85, 95
2, 220480, Note_off_c, 0, 85, 95
2, 220480, Note_on_c, 0, 86, 95
2, 220800, Note_off_c, 0, 86, 95
2, 220800, Note_on_c, 0, 85, 95
2, 221440, Note_off_c, 0, 85, 95
2, 221440, Note_on_c, 0, 83, 95
2, 222080, Note_off_c, 0, 83, 95
2, 222080, Note_on_c, 0, 81, 95
2, 222720, Note_off_c, 0, 81, 95
2, 222720, Note_on_c, 0, 83, 95
2, 224160, Note_off_c, 0, 83, 95
2, 224160, Note_on_c, 0, 78, 95
2, 224640, Note_off_c, 0, 78, 95
2, 224640, Note_on_c, 0, 78, 95
2, 230400, Note_off_c, 0, 78, 95
2, 230400, Note_on_c, 0, 81, 95
2, 231040, Note_off_c, 0, 81, 95
2, 231040, Note_on_c, 0, 83, 95
2, 231680, Note_off_c, 0, 83, 95
2, 231680, Note_on_c, 0, 85, 95
2, 232320, Note_off_c, 0, 85, 95
2, 232320, Pitch_bend_c, 1, 8192
2, 232320, Note_on_c, 1, 83, 95
2, 232450, Pitch_bend_c, 1, 8320
2, 232580, Pitch_bend_c, 1, 8448
2, 232710, Pitch_bend_c, 1, 8576
2, 232840, Pitch_bend_c, 1, 8704
2, 232970, Pitch_bend_c, 1, 8832
2, 233100, Pitch_bend_c, 1, 8960
2, 233230, Pitch_bend_c, 1, 9088
2, 233360, Pitch_bend_c, 1, 9216
2, 233490, Pitch_bend_c, 1, 9344
2, 233620, Pitch_bend_c, 1, 9472
2, 233750, Pitch_bend_c, 1, 9600
2, 233760, Pitch_bend_c, 1, 9600
2, 235200, Pitch_bend_c, 1, 9600
2, 235200, Pitch_bend_c, 1, 8192
2, 235200, Note_off_c, 1, 83, 95
2, 235200, Note_on_c, 0, 81, 95
2, 235520, Note_off_c, 0, 81, 95
2, 235520, Note_on_c, 0, 83, 95
2, 235840, Note_off_c, 0, 83, 95
2, 235840, Note_on_c, 0, 85, 95
2, 236160, Note_off_c, 0, 85, 95
2, 236160, Note_on_c, 0, 83, 95
2, 237120, Note_off_c, 0, 83, 95
2, 237120, Note_on_c, 0, 81, 95
2, 238080, Note_off_c, 0, 81, 95
2, 238080, Note_on_c, 0, 83, 95
2, 239520, Note_off_c, 0, 83, 95
2, 239520, Note_on_c, 0, 85, 95
2, 240000, Note_off_c, 0, 85, 95
2, 240000, Note_on_c, 0, 83, 95
2, 245760, Note_off_c, 0, 83, 95
2, 245760, Note_on_c, 0, 66, 95
2, 246080, Note_off_c, 0, 66, 95
2, 246080, Note_on_c, 0, 71, 95
2, 246400, Note_off_c, 0, 71, 95
2, 246400, Note_on_c, 0, 66, 95
2, 246720, Note_off_c, 0, 66, 95
2, 246720, Note_on_c, 0, 78, 95
2, 247040, Note_off_c, 0, 78, 95
2, 247040, Note_on_c, 0, 66, 95
2, 247360, Note_off_c, 0, 66, 95
2, 247360, Note_on_c, 0, 76, 95
2, 248000, Note_off_c, 0, 76, 95
2, 248000, Note_on_c, 0, 74, 95
2, 248320, Note_off_c, 0, 74, 95
2, 248320, Note_on_c, 0, 73, 95
2, 248640, Note_off_c, 0, 73, 95
2, 248640, Note_on_c, 0, 71, 95
2, 248960, Note_off_c, 0, 71, 95
2, 248960, Note_on_c, 0, 73, 95
2, 249280, Note_off_c, 0, 73, 95
2, 249280, Note_on_c, 0, 74, 95
2, 249600, Note_off_c, 0, 74, 95
2, 249600, Note_on_c, 0, 71, 95
2, 249920, Note_off_c, 0, 71, 95
2, 249920, Note_on_c, 0, 66, 95
2, 250240, Note_off_c, 0, 66, 95
2, 250240, Note_on_c, 0, 71, 95
2, 250560, Note_off_c, 0, 71, 95
2, 250560, Note_on_c, 0, 78, 95
2, 250880, Note_off_c, 0, 78, 95
2, 250880, Note_on_c, 0, 74, 95
2, 251200, Note_off_c, 0, 74, 95
2, 251200, Note_on_c, 0, 71, 95
2, 251520, Note_off_c, 0, 71, 95
2, 251520, Note_on_c, 0, 76, 95
2, 251840, Note_off_c, 0, 76, 95
2, 251840, Note_on_c, 0, 73, 95
2, 252160, Note_off_c, 0, 73, 95
2, 252160, Note_on_c, 0, 69, 95
2, 252480, Note_off_c, 0, 69, 95
2, 252480, Note_on_c, 0, 81, 95
2, 252800, Note_off_c, 0, 81, 95
2, 252800, Note_on_c, 0, 78, 95
2, 253120, Note_off_c, 0, 78, 95
2, 253120, Note_on_c, 0, 74, 95
2, 253440, Note_off_c, 0, 74, 95
2, 253440, Note_on_c, 0, 69, 95
2, 253760, Note_off_c, 0, 69, 95
2, 253760, Note_on_c, 0, 74, 95
2, 254080, Note_off_c, 0, 74, 95
2, 254080, Note_on_c, 0, 69, 95
2, 254400, Note_off_c, 0, 69, 95
2, 254400, Note_on_c, 0, 76, 95
2, 254720, Note_off_c, 0, 76, 95
2, 254720, Note_on_c, 0, 69, 95
2, 255040, Note_off_c, 0, 69, 95
2, 255040, Note_on_c, 0, 81, 95
2, 255680, Note_off_c, 0, 81, 95
2, 255680, Note_on_c, 0, 78, 95
2, 256000, Note_off_c, 0, 78, 95
2, 256000, Note_on_c, 0, 76, 95
2, 256320, Note_off_c, 0, 76, 95
2, 256320, Note_on_c, 0, 74, 95
2, 256640, Note_off_c, 0, 74, 95
2, 256640, Note_on_c, 0, 76, 95
2, 256960, Note_off_c, 0, 76, 95
2, 256960, Note_on_c, 0, 78, 95
2, 257280, Note_off_c, 0, 78, 95
2, 257280, Note_on_c, 0, 74, 95
2, 257600, Note_off_c, 0, 74, 95
2, 257600, Note_on_c, 0, 69, 95
2, 257920, Note_off_c, 0, 69, 95
2, 257920, Note_on_c, 0, 74, 95
2, 258240, Note_off_c, 0, 74, 95
2, 258240, Note_on_c, 0, 81, 95
2, 258560, Note_off_c, 0, 81, 95
2, 258560, Note_on_c, 0, 78, 95
2, 258880, Note_off_c, 0, 78, 95
2, 258880, Note_on_c, 0, 74, 95
2, 259200, Note_off_c, 0, 74, 95
2, 259200, Note_on_c, 0, 80, 95
2, 259520, Note_off_c, 0, 80, 95
2, 259520, Note_on_c, 0, 76, 95
2, 259840, Note_off_c, 0, 76, 95
2, 259840, Note_on_c, 0, 71, 95
2, 260160, Note_off_c, 0, 71, 95
2, 260160, Note_on_c, 0, 83, 95
2, 260480, Note_off_c, 0, 83, 95
2, 260480, Note_on_c, 0, 80, 95
2, 260800, Note_off_c, 0, 80, 95
2, 260800, Note_on_c, 0, 76, 95
2, 261120, Note_off_c, 0, 76, 95
2, 261120, Note_on_c, 0, 73, 95
2, 261440, Note_off_c, 0, 73, 95
2, 261440, Note_on_c, 0, 78, 95
2, 261760, Note_off_c, 0, 78, 95
2, 261760, Note_on_c, 0, 73, 95
2, 262080, Note_off_c, 0, 73, 95
2, 262080, Note_on_c, 0, 85, 95
2, 262400, Note_off_c, 0, 85, 95
2, 262400, Note_on_c, 0, 73, 95
2, 262720, Note_off_c, 0, 73, 95
2, 262720, Note_on_c, 0, 83, 95
2, 263360, Note_off_c, 0, 83, 95
2, 263360, Note_on_c, 0, 81, 95
2, 263680, Note_off_c, 0, 81, 95
2, 263680, Note_on_c, 0, 80, 95
2, 264000, Note_off_c, 0, 80, 95
2, 264000, Note_on_c, 0, 78, 95
2, 264320, Note_off_c, 0, 78, 95
2, 264320, Note_on_c, 0, 80, 95
2, 264640, Note_off_c, 0, 80, 95
2, 264640, Note_on_c, 0, 81, 95
2, 264960, Note_off_c, 0, 81, 95
2, 264960, Note_on_c, 0, 78, 95
2, 265280, Note_off_c, 0, 78, 95
2, 265280, Note_on_c, 0, 73, 95
2, 265600, Note_off_c, 0, 73, 95
2, 265600, Note_on_c, 0, 78, 95
2, 265920, Note_off_c, 0, 78, 95
2, 265920, Note_on_c, 0, 85, 95
2, 266240, Note_off_c, 0, 85, 95
2, 266240, Note_on_c, 0, 81, 95
2, 266560, Note_off_c, 0, 81, 95
2, 266560, Note_on_c, 0, 78, 95
2, 266880, Note_off_c, 0, 78, 95
2, 266880, Note_on_c, 0, 83, 95
2, 267200, Note_off_c, 0, 83, 95
2, 267200, Note_on_c, 0, 80, 95
2, 267520, Note_off_c, 0, 80, 95
2, 267520, Note_on_c, 0, 76, 95
2, 267840, Note_off_c, 0, 76, 95
2, 267840, Note_on_c, 0, 71, 95
2, 268160, Note_off_c, 0, 71, 95
2, 268160, Note_on_c, 0, 76, 95
2, 268480, Note_off_c, 0, 76, 95
2, 268480, Note_on_c, 0, 80, 95
2, 268800, Note_off_c, 0, 80, 95
2, 268800, Note_on_c, 0, 83, 95
2, 270720, Note_off_c, 0, 83, 95
2, 270720, Note_on_c, 0, 76, 95
2, 271040, Note_off_c, 0, 76, 95
2, 271040, Note_on_c, 0, 59, 95
2, 271360, Note_off_c, 0, 59, 95
2, 271360, Note_on_c, 0, 68, 95
2, 271680, Note_off_c, 0, 68, 95
2, 271680, Note_on_c, 0, 59, 95
2, 272000, Note_off_c, 0, 59, 95
2, 272000, Note_on_c, 0, 76, 95
2, 272320, Note_off_c, 0, 76, 95
2, 272320, Note_on_c, 0, 59, 95
2, 272640, Note_off_c, 0, 59, 95
2, 272640, Note_on_c, 0, 75, 95
2, 272960, Note_off_c, 0, 75, 95
2, 272960, Note_on_c, 0, 59, 95
2, 273280, Note_off_c, 0, 59, 95
2, 273280, Note_on_c, 0, 73, 95
2, 273600, Note_off_c, 0, 73, 95
2, 273600, Note_on_c, 0, 59, 95
2, 273920, Note_off_c, 0, 59, 95
2, 273920, Note_on_c, 0, 71, 95
2, 274240, Note_off_c, 0, 71, 95
2, 274240, Note_on_c, 0, 59, 95
2, 274560, Note_off_c, 0, 59, 95
2, 274560, Note_on_c, 0, 69, 95
2, 274880, Note_off_c, 0, 69, 95
2, 274880, Note_on_c, 0, 59, 95
2, 275200, Note_off_c, 0, 59, 95
2, 275200, Note_on_c, 0, 68, 95
2, 275520, Note_off_c, 0, 68, 95
2, 275520, Note_on_c, 0, 59, 95
2, 275840, Note_off_c, 0, 59, 95
2, 275840, Note_on_c, 0, 66, 95
2, 276160, Note_off_c, 0, 66, 95
2, 276160, Note_on_c, 0, 59, 95
2, 276480, Note_off_c, 0, 59, 95
2, 276480, Note_on_c, 0, 64, 95
2, 276800, Note_off_c, 0, 64, 95
2, 276800, Note_on_c, 0, 71, 95
2, 277120, Note_off_c, 0, 71, 95
2, 277120, Note_on_c, 0, 76, 95
2, 277440, Note_off_c, 0, 76, 95
2, 277440, Note_on_c, 0, 78, 95
2, 277760, Note_off_c, 0, 78, 95
2, 277760, Note_on_c, 0, 76, 95
2, 278080, Note_off_c, 0, 76, 95
2, 278080, Note_on_c, 0, 71, 95
2, 278400, Note_off_c, 0, 71, 95
2, 278400, Note_on_c, 0, 81, 95
2, 278720, Note_off_c, 0, 81, 95
2, 278720, Note_on_c, 0, 78, 95
2, 279040, Note_off_c, 0, 78, 95
2, 279040, Note_on_c, 0, 80, 95
2, 279360, Note_off_c, 0, 80, 95
2, 279360, Note_on_c, 0, 78, 95
2, 279680, Note_off_c, 0, 78, 95
2, 279680, Note_on_c, 0, 76, 95
2, 280000, Note_off_c, 0, 76, 95
2, 280000, Note_on_c, 0, 71, 95
2, 280320, Note_off_c, 0, 71, 95
2, 280320, Note_on_c, 0, 64, 95
2, 280640, Note_off_c, 0, 64, 95
2, 280640, Note_on_c, 0, 71, 95
2, 280960, Note_off_c, 0, 71, 95
2, 280960, Note_on_c, 0, 76, 95
2, 281280, Note_off_c, 0, 76, 95
2, 281280, Note_on_c, 0, 78, 95
2, 281600, Note_off_c, 0, 78, 95
2, 281600, Note_on_c, 0, 76, 95
2, 281920, Note_off_c, 0, 76, 95
2, 281920, Note_on_c, 0, 71, 95
2, 282240, Note_off_c, 0, 71, 95
2, 282240, Note_on_c, 0, 74, 95
2, 282560, Note_off_c, 0, 74, 95
2, 282560, Note_on_c, 0, 73, 95
2, 282880, Note_off_c, 0, 73, 95
2, 282880, Note_on_c, 0, 71, 95
2, 283200, Note_off_c, 0, 71, 95
2, 283200, Note_on_c, 0, 69, 95
2, 283520, Note_off_c, 0, 69, 95
2, 283520, Note_on_c, 0, 71, 95
2, 283840, Note_off_c, 0, 71, 95
2, 283840, Note_on_c, 0, 73, 95
2, 284160, Note_off_c, 0, 73, 95
2, 284160, Note_on_c, 0, 64, 95
2, 284480, Note_off_c, 0, 64, 95
2, 284480, Note_on_c, 0, 71, 95
2, 284800, Note_off_c, 0, 71, 95
2, 284800, Note_on_c, 0, 76, 95
2, 285120, Note_off_c, 0, 76, 95
2, 285120, Note_on_c, 0, 78, 95
2, 285440, Note_off_c, 0, 78, 95
2, 285440, Note_on_c, 0, 76, 95
2, 285760, Note_off_c, 0, 76, 95
2, 285760, Note_on_c, 0, 71, 95
2, 286080, Note_off_c, 0, 71, 95
2, 286080, Note_on_c, 0, 81, 95
2, 286400, Note_off_c, 0, 81, 95
2, 286400, Note_on_c, 0, 78, 95
2, 286720, Note_off_c, 0, 78, 95
2, 286720, Note_on_c, 0, 80, 95
2, 287040, Note_off_c, 0, 80, 95
2, 287040, Note_on_c, 0, 78, 95
2, 287360, Note_off_c, 0, 78, 95
2, 287360, Note_on_c, 0, 76, 95
2, 287680, Note_off_c, 0, 76, 95
2, 287680, Note_on_c, 0, 71, 95
2, 288000, Note_off_c, 0, 71, 95
2, 288000, Note_on_c, 0, 86, 95
2, 288320, Note_off_c, 0, 86, 95
2, 288320, Note_on_c, 0, 83, 95
2, 288640, Note_off_c, 0, 83, 95
2, 288640, Note_on_c, 0, 85, 95
2, 288960, Note_off_c, 0, 85, 95
2, 288960, Note_on_c, 0, 86, 95
2, 289280, Note_off_c, 0, 86, 95
2, 289280, Note_on_c, 0, 85, 95
2, 289440, Note_off_c, 0, 85, 95
2, 289440, Note_on_c, 0, 86, 95
2, 289600, Note_off_c, 0, 86, 95
2, 289600, Note_on_c, 0, 85, 95
2, 289920, Note_off_c, 0, 85, 95
2, 289920, Note_on_c, 0, 81, 95
2, 290240, Note_off_c, 0, 81, 95
2, 290240, Note_on_c, 0, 78, 95
2, 290560, Note_off_c, 0, 78, 95
2, 290560, Note_on_c, 0, 81, 95
2, 290880, Note_off_c, 0, 81, 95
2, 290880, Note_on_c, 0, 76, 95
2, 291200, Note_off_c, 0, 76, 95
2, 291200, Note_on_c, 0, 81, 95
2, 291520, Note_off_c, 0, 81, 95
2, 291520, Note_on_c, 0, 74, 95
2, 291840, Note_off_c, 0, 74, 95
2, 291840, Note_on_c, 0, 64, 95
2, 292160, Note_off_c, 0, 64, 95
2, 292160, Note_on_c, 0, 71, 95
2, 292480, Note_off_c, 0, 71, 95
2, 292480, Note_on_c, 0, 76, 95
2, 292800, Note_off_c, 0, 76, 95
2, 292800, Note_on_c, 0, 78, 95
2, 293120, Note_off_c, 0, 78, 95
2, 293120, Note_on_c, 0, 76, 95
2, 293440, Note_off_c, 0, 76, 95
2, 293440, Note_on_c, 0, 71, 95
2, 293760, Note_off_c, 0, 71, 95
2, 293760, Note_on_c, 0, 81, 95
2, 294080, Note_off_c, 0, 81, 95
2, 294080, Note_on_c, 0, 78, 95
2, 294400, Note_off_c, 0, 78, 95
2, 294400, Note_on_c, 0, 80, 95
2, 294720, Note_off_c, 0, 80, 95
2, 294720, Note_on_c, 0, 78, 95
2, 295040, Note_off_c, 0, 78, 95
2, 295040, Note_on_c, 0, 76, 95
2, 295360, Note_off_c, 0, 76, 95
2, 295360, Note_on_c, 0, 71, 95
2, 295680, Note_off_c, 0, 71, 95
2, 295680, Note_on_c, 0, 64, 95
2, 296000, Note_off_c, 0, 64, 95
2, 296000, Note_on_c, 0, 71, 95
2, 296320, Note_off_c, 0, 71, 95
2, 296320, Note_on_c, 0, 76, 95
2, 296640, Note_off_c, 0, 76, 95
2, 296640, Note_on_c, 0, 78, 95
2, 296960, Note_off_c, 0, 78, 95
2, 296960, Note_on_c, 0, 76, 95
2, 297280, Note_off_c, 0, 76, 95
2, 297280, Note_on_c, 0, 71, 95
2, 297600, Note_off_c, 0, 71, 95
2, 297600, Note_on_c, 0, 74, 95
2, 297920, Note_off_c, 0, 74, 95
2, 297920, Note_on_c, 0, 73, 95
2, 298240, Note_off_c, 0, 73, 95
2, 298240, Note_on_c, 0, 71, 95
2, 298560, Note_off_c, 0, 71, 95
2, 298560, Note_on_c, 0, 69, 95
2, 298880, Note_off_c, 0, 69, 95
2, 298880, Note_on_c, 0, 71, 95
2, 299200, Note_off_c, 0, 71, 95
2, 299200, Note_on_c, 0, 73, 95
2, 299520, Note_off_c, 0, 73, 95
2, 299520, Note_on_c, 0, 71, 95
2, 299840, Note_off_c, 0, 71, 95
2, 299840, Note_on_c, 0, 64, 95
2, 300160, Note_off_c, 0, 64, 95
2, 300160, Note_on_c, 0, 76, 95
2, 300480, Note_off_c, 0, 76, 95
2, 300480, Note_on_c, 0, 78, 95
2, 300800, Note_off_c, 0, 78, 95
2, 300800, Note_on_c, 0, 76, 95
2, 301120, Note_off_c, 0, 76, 95
2, 301120, Note_on_c, 0, 71, 95
2, 301440, Note_off_c, 0, 71, 95
2, 301440, Note_on_c, 0, 81, 95
2, 301760, Note_off_c, 0, 81, 95
2, 301760, Note_on_c, 0, 78, 95
2, 302080, Note_off_c, 0, 78, 95
2, 302080, Note_on_c, 0, 80, 95
2, 302400, Note_off_c, 0, 80, 95
2, 302400, Note_on_c, 0, 78, 95
2, 302720, Note_off_c, 0, 78, 95
2, 302720, Note_on_c, 0, 76, 95
2, 303040, Note_off_c, 0, 76, 95
2, 303040, Note_on_c, 0, 71, 95
2, 303360, Note_off_c, 0, 71, 95
2, 303360, Note_on_c, 0, 55, 95
2, 303680, Note_off_c, 0, 55, 95
2, 303680, Note_on_c, 0, 62, 95
2, 304000, Note_off_c, 0, 62, 95
2, 304000, Note_on_c, 0, 67, 95
2, 304320, Note_off_c, 0, 67, 95
2, 304320, Note_on_c, 0, 71, 95
2, 304640, Note_off_c, 0, 71, 95
2, 304640, Note_on_c, 0, 74, 95
2, 304960, Note_off_c, 0, 74, 95
2, 304960, Note_on_c, 0, 79, 95
2, 305280, Note_off_c, 0, 79, 95
2, 305280, Note_on_c, 0, 83, 95
2, 305600, Note_off_c, 0, 83, 95
2, 305600, Note_on_c, 0, 86, 95
2, 305920, Note_off_c, 0, 86, 95
2, 305920, Note_on_c, 0, 83, 95
2, 306240, Note_off_c, 0, 83, 95
2, 306240, Note_on_c, 0, 88, 95
2, 306560, Note_off_c, 0, 88, 95
2, 306560, Note_on_c, 0, 85, 95
2, 306880, Note_off_c, 0, 85, 95
2, 306880, Note_on_c, 0, 81, 95
2, 307200, Note_off_c, 0, 81, 95
2, 307200, Note_on_c, 0, 59, 95
2, 307520, Note_off_c, 0, 59, 95
2, 307520, Note_on_c, 0, 71, 95
2, 307840, Note_off_c, 0, 71, 95
2, 307840, Note_on_c, 0, 64, 95
2, 308160, Note_off_c, 0, 64, 95
2, 308160, Note_on_c, 0, 66, 95
2, 308480, Note_off_c, 0, 66, 95
2, 308480, Note_on_c, 0, 71, 95
2, 308800, Note_off_c, 0, 71, 95
2, 308800, Note_on_c, 0, 73, 95
2, 309120, Note_off_c, 0, 73, 95
2, 309120, Note_on_c, 0, 71, 95
2, 309280, Note_off_c, 0, 71, 95
2, 309280, Note_on_c, 0, 69, 95
2, 309440, Note_off_c, 0, 69, 95
2, 309440, Note_on_c, 0, 68, 95
2, 309760, Note_off_c, 0, 68, 95
2, 309760, Note_on_c, 0, 66, 95
2, 310080, Note_off_c, 0, 66, 95
2, 310080, Note_on_c, 0, 59, 95
2, 310400, Note_off_c, 0, 59, 95
2, 310400, Note_on_c, 0, 71, 95
2, 310720, Note_off_c, 0, 71, 95
2, 310720, Note_on_c, 0, 64, 95
2, 311040, Note_off_c, 0, 64, 95
2, 311040, Note_on_c, 0, 66, 95
2, 311360, Note_off_c, 0, 66, 95
2, 311360, Note_on_c, 0, 68, 95
2, 311680, Note_off_c, 0, 68, 95
2, 311680, Note_on_c, 0, 69, 95
2, 312000, Note_off_c, 0, 69, 95
2, 312000, Note_on_c, 0, 68, 95
2, 312320, Note_off_c, 0, 68, 95
2, 312320, Note_on_c, 0, 66, 95
2, 312640, Note_off_c, 0, 66, 95
2, 312640, Note_on_c, 0, 64, 95
2, 312960, Note_off_c, 0, 64, 95
2, 312960, Note_on_c, 0, 59, 95
2, 313280, Note_off_c, 0, 59, 95
2, 313280, Note_on_c, 0, 71, 95
2, 313600, Note_off_c, 0, 71, 95
2, 313600, Note_on_c, 0, 64, 95
2, 313920, Note_off_c, 0, 64, 95
2, 313920, Note_on_c, 0, 66, 95
2, 314240, Note_off_c, 0, 66, 95
2, 314240, Note_on_c, 0, 71, 95
2, 314560, Note_off_c, 0, 71, 95
2, 314560, Note_on_c, 0, 73, 95
2, 314880, Note_off_c, 0, 73, 95
2, 314880, Note_on_c, 0, 71, 95
2, 315200, Note_off_c, 0, 71, 95
2, 315200, Note_on_c, 0, 69, 95
2, 315520, Note_off_c, 0, 69, 95
2, 315520, Note_on_c, 0, 68, 95
2, 315840, Note_off_c, 0, 68, 95
2, 315840, Note_on_c, 0, 64, 95
2, 316160, Note_off_c, 0, 64, 95
2, 316160, Note_on_c, 0, 63, 95
2, 316480, Note_off_c, 0, 63, 95
2, 316480, Note_on_c, 0, 61, 95
2, 316800, Note_off_c, 0, 61, 95
2, 316800, Note_on_c, 0, 59, 95
2, 317120, Note_off_c, 0, 59, 95
2, 317120, Note_on_c, 0, 57, 95
2, 317440, Note_off_c, 0, 57, 95
2, 317440, Note_on_c, 0, 56, 95
2, 317760, Note_off_c, 0, 56, 95
2, 317760, Note_on_c, 0, 54, 95
2, 318080, Note_off_c, 0, 54, 95
2, 318080, Note_on_c, 0, 56, 95
2, 318400, Note_off_c, 0, 56, 95
2, 318400, Note_on_c, 0, 57, 95
2, 318720, Note_off_c, 0, 57, 95
2, 318720, Note_on_c, 0, 59, 95
2, 319040, Note_off_c, 0, 59, 95
2, 319040, Note_on_c, 0, 71, 95
2, 319360, Note_off_c, 0, 71, 95
2, 319360, Note_on_c, 0, 64, 95
2, 319680, Note_off_c, 0, 64, 95
2, 319680, Note_on_c, 0, 66, 95
2, 320000, Note_off_c, 0, 66, 95
2, 320000, Note_on_c, 0, 71, 95
2, 320320, Note_off_c, 0, 71, 95
2, 320320, Note_on_c, 0, 73, 95
2, 320640, Note_off_c, 0, 73, 95
2, 320640, Note_on_c, 0, 71, 95
2, 320800, Note_off_c, 0, 71, 95
2, 320800, Note_on_c, 0, 69, 95
2, 320960, Note_off_c, 0, 69, 95
2, 320960, Note_on_c, 0, 68, 95
2, 321280, Note_off_c, 0, 68, 95
2, 321280, Note_on_c, 0, 66, 95
2, 321600, Note_off_c, 0, 66, 95
2, 321600, Note_on_c, 0, 59, 95
2, 321920, Note_off_c, 0, 59, 95
2, 321920, Note_on_c, 0, 71, 95
2, 322240, Note_off_c, 0, 71, 95
2, 322240, Note_on_c, 0, 64, 95
2, 322560, Note_off_c, 0, 64, 95
2, 322560, Note_on_c, 0, 66, 95
2, 322880, Note_off_c, 0, 66, 95
2, 322880, Note_on_c, 0, 68, 95
2, 323200, Note_off_c, 0, 68, 95
2, 323200, Note_on_c, 0, 69, 95
2, 323520, Note_off_c, 0, 69, 95
2, 323520, Note_on_c, 0, 68, 95
2, 323840, Note_off_c, 0, 68, 95
2, 323840, Note_on_c, 0, 66, 95
2, 324160, Note_off_c, 0, 66, 95
2, 324160, Note_on_c, 0, 64, 95
2, 324480, Note_off_c, 0, 64, 95
2, 324480, Note_on_c, 0, 59, 95
2, 324800, Note_off_c, 0, 59, 95
2, 324800, Note_on_c, 0, 71, 95
2, 325120, Note_off_c, 0, 71, 95
2, 325120, Note_on_c, 0, 64, 95
2, 325440, Note_off_c, 0, 64, 95
2, 325440, Note_on_c, 0, 66, 95
2, 325760, Note_off_c, 0, 66, 95
2, 325760, Note_on_c, 0, 71, 95
2, 326080, Note_off_c, 0, 71, 95
2, 326080, Note_on_c, 0, 73, 95
2, 326400, Note_off_c, 0, 73, 95
2, 326400, Note_on_c, 0, 71, 95
2, 326720, Note_off_c, 0, 71, 95
2, 326720, Note_on_c, 0, 69, 95
2, 327040, Note_off_c, 0, 69, 95
2, 327040, Note_on_c, 0, 68, 95
2, 327360, Note_off_c, 0, 68, 95
2, 327360, Note_on_c, 0, 71, 95
2, 327680, Note_off_c, 0, 71, 95
2, 327680, Note_on_c, 0, 68, 95
2, 328000, Note_off_c, 0, 68, 95
2, 328000, Note_on_c, 0, 69, 95
2, 328320, Note_off_c, 0, 69, 95
2, 328320, Note_on_c, 0, 68, 95
2, 328640, Note_off_c, 0, 68, 95
2, 328640, Note_on_c, 0, 66, 95
2, 328960, Note_off_c, 0, 66, 95
2, 328960, Note_on_c, 0, 64, 95
2, 329280, Note_off_c, 0, 64, 95
2, 329280, Note_on_c, 0, 63, 95
2, 329600, Note_off_c, 0, 63, 95
2, 329600, Note_on_c, 0, 64, 95
2, 329920, Note_off_c, 0, 64, 95
2, 329920, Note_on_c, 0, 66, 95
2, 330240, Note_off_c, 0, 66, 95
2, 330240, Note_on_c, 0, 59, 95
2, 330560, Note_off_c, 0, 59, 95
2, 330560, Note_on_c, 0, 71, 95
2, 330880, Note_off_c, 0, 71, 95
2, 330880, Note_on_c, 0, 64, 95
2, 331200, Note_off_c, 0, 64, 95
2, 331200, Note_on_c, 0, 66, 95
2, 331520, Note_off_c, 0, 66, 95
2, 331520, Note_on_c, 0, 71, 95
2, 331840, Note_off_c, 0, 71, 95
2, 331840, Note_on_c, 0, 73, 95
2, 332160, Note_off_c, 0, 73, 95
2, 332160, Note_on_c, 0, 71, 95
2, 332320, Note_off_c, 0, 71, 95
2, 332320, Note_on_c, 0, 69, 95
2, 332480, Note_off_c, 0, 69, 95
2, 332480, Note_on_c, 0, 68, 95
2, 332800, Note_off_c, 0, 68, 95
2, 332800, Note_on_c, 0, 66, 95
2, 333120, Note_off_c, 0, 66, 95
2, 333120, Note_on_c, 0, 59, 95
2, 333440, Note_off_c, 0, 59, 95
2, 333440, Note_on_c, 0, 71, 95
2, 333760, Note_off_c, 0, 71, 95
2, 333760, Note_on_c, 0, 64, 95
2, 334080, Note_off_c, 0, 64, 95
2, 334080, Note_on_c, 0, 66, 95
2, 334400, Note_off_c, 0, 66, 95
2, 334400, Note_on_c, 0, 68, 95
2, 334720, Note_off_c, 0, 68, 95
2, 334720, Note_on_c, 0, 69, 95
2, 335040, Note_off_c, 0, 69, 95
2, 335040, Note_on_c, 0, 68, 95
2, 335360, Note_off_c, 0, 68, 95
2, 335360, Note_on_c, 0, 66, 95
2, 335680, Note_off_c, 0, 66, 95
2, 335680, Note_on_c, 0, 64, 95
2, 336000, Note_off_c, 0, 64, 95
2, 336000, Note_on_c, 0, 59, 95
2, 336320, Note_off_c, 0, 59, 95
2, 336320, Note_on_c, 0, 71, 95
2, 336640, Note_off_c, 0, 71, 95
2, 336640, Note_on_c, 0, 64, 95
2, 336960, Note_off_c, 0, 64, 95
2, 336960, Note_on_c, 0, 66, 95
2, 337280, Note_off_c, 0, 66, 95
2, 337280, Note_on_c, 0, 71, 95
2, 337600, Note_off_c, 0, 71, 95
2, 337600, Note_on_c, 0, 73, 95
2, 337920, Note_off_c, 0, 73, 95
2, 337920, Note_on_c, 0, 71, 95
2, 338240, Note_off_c, 0, 71, 95
2, 338240, Note_on_c, 0, 69, 95
2, 338560, Note_off_c, 0, 69, 95
2, 338560, Note_on_c, 0, 68, 95
2, 338880, Note_off_c, 0, 68, 95
2, 338880, Note_on_c, 0, 64, 95
2, 339200, Note_off_c, 0, 64, 95
2, 339200, Note_on_c, 0, 63, 95
2, 339520, Note_off_c, 0, 63, 95
2, 339520, Note_on_c, 0, 61, 95
2, 339840, Note_off_c, 0, 61, 95
2, 339840, Note_on_c, 0, 59, 95
2, 340160, Note_off_c, 0, 59, 95
2, 340160, Note_on_c, 0, 57, 95
2, 340480, Note_off_c, 0, 57, 95
2, 340480, Note_on_c, 0, 56, 95
2, 340800, Note_off_c, 0, 56, 95
2, 340800, Note_on_c, 0, 54, 95
2, 341120, Note_off_c, 0, 54, 95
2, 341120, Note_on_c, 0, 56, 95
2, 341440, Note_off_c, 0, 56, 95
2, 341440, Note_on_c, 0, 57, 95
2, 341760, Note_off_c, 0, 57, 95
2, 341760, Note_on_c, 0, 59, 95
2, 342080, Note_off_c, 0, 59, 95
2, 342080, Note_on_c, 0, 71, 95
2, 342400, Note_off_c, 0, 71, 95
2, 342400, Note_on_c, 0, 64, 95
2, 342720, Note_off_c, 0, 64, 95
2, 342720, Note_on_c, 0, 66, 95
2, 343040, Note_off_c, 0, 66, 95
2, 343040, Note_on_c, 0, 71, 95
2, 343360, Note_off_c, 0, 71, 95
2, 343360, Note_on_c, 0, 73, 95
2, 343680, Note_off_c, 0, 73, 95
2, 343680, Note_on_c, 0, 71, 95
2, 343840, Note_off_c, 0, 71, 95
2, 343840, Note_on_c, 0, 69, 95
2, 344000, Note_off_c, 0, 69, 95
2, 344000, Note_on_c, 0, 68, 95
2, 344320, Note_off_c, 0, 68, 95
2, 344320, Note_on_c, 0, 66, 95
2, 344640, Note_off_c, 0, 66, 95
2, 344640, Note_on_c, 0, 59, 95
2, 344960, Note_off_c, 0, 59, 95
2, 344960, Note_on_c, 0, 71, 95
2, 345280, Note_off_c, 0, 71, 95
2, 345280, Note_on_c, 0, 64, 95
2, 345600, Note_off_c, 0, 64, 95
2, 345600, Note_on_c, 0, 66, 95
2, 345920, Note_off_c, 0, 66, 95
2, 345920, Note_on_c, 0, 68, 95
2, 346240, Note_off_c, 0, 68, 95
2, 346240, Note_on_c, 0, 69, 95
2, 346560, Note_off_c, 0, 69, 95
2, 346560, Note_on_c, 0, 68, 95
2, 346880, Note_off_c, 0, 68, 95
2, 346880, Note_on_c, 0, 66, 95
2, 347200, Note_off_c, 0, 66, 95
2, 347200, Note_on_c, 0, 64, 95
2, 347520, Note_off_c, 0, 64, 95
2, 347520, Note_on_c, 0, 59, 95
2, 347840, Note_off_c, 0, 59, 95
2, 347840, Note_on_c, 0, 71, 95
2, 348160, Note_off_c, 0, 71, 95
2, 348160, Note_on_c, 0, 64, 95
2, 348480, Note_off_c, 0, 64, 95
2, 348480, Note_on_c, 0, 66, 95
2, 348800, Note_off_c, 0, 66, 95
2, 348800, Note_on_c, 0, 71, 95
2, 349120, Note_off_c, 0, 71, 95
2, 349120, Note_on_c, 0, 73, 95
2, 349440, Note_off_c, 0, 73, 95
2, 349440, Note_on_c, 0, 71, 95
2, 349760, Note_off_c, 0, 71, 95
2, 349760, Note_on_c, 0, 69, 95
2, 350080, Note_off_c, 0, 69, 95
2, 350080, Note_on_c, 0, 68, 95
2, 350400, Note_off_c, 0, 68, 95
2, 350400, Note_on_c, 0, 71, 95
2, 350720, Note_off_c, 0, 71, 95
2, 350720, Note_on_c, 0, 68, 95
2, 351040, Note_off_c, 0, 68, 95
2, 351040, Note_on_c, 0, 69, 95
2, 351360, Note_off_c, 0, 69, 95
2, 351360, Note_on_c, 0, 68, 95
2, 351680, Note_off_c, 0, 68, 95
2, 351680, Note_on_c, 0, 66, 95
2, 352000, Note_off_c, 0, 66, 95
2, 352000, Note_on_c, 0, 64, 95
2, 352320, Note_off_c, 0, 64, 95
2, 352320, Note_on_c, 0, 63, 95
2, 352640, Note_off_c, 0, 63, 95
2, 352640, Note_on_c, 0, 64, 95
2, 352960, Note_off_c, 0, 64, 95
2, 352960, Note_on_c, 0, 66, 95
2, 353280, Note_off_c, 0, 66, 95
2, 353280, Note_on_c, 0, 66, 95
2, 353920, Note_off_c, 0, 66, 95
2, 353920, Note_on_c, 0, 66, 95
2, 354560, Note_off_c, 0, 66, 95
2, 354560, Note_on_c, 0, 66, 95
2, 354880, Note_off_c, 0, 66, 95
2, 354880, Note_on_c, 0, 68, 95
2, 355200, Note_off_c, 0, 68, 95
2, 355200, Note_on_c, 0, 69, 95
2, 355520, Note_off_c, 0, 69, 95
2, 355520, Note_on_c, 0, 68, 95
2, 355840, Note_off_c, 0, 68, 95
2, 355840, Note_on_c, 0, 66, 95
2, 356160, Note_off_c, 0, 66, 95
2, 356160, Note_on_c, 0, 64, 95
2, 356480, Note_off_c, 0, 64, 95
2, 356480, Note_on_c, 0, 66, 95
2, 356800, Note_off_c, 0, 66, 95
2, 356800, Note_on_c, 0, 68, 95
2, 357120, Note_off_c, 0, 68, 95
2, 357120, Note_on_c, 0, 66, 95
2, 357760, Note_off_c, 0, 66, 95
2, 357760, Note_on_c, 0, 59, 95
2, 358400, Note_off_c, 0, 59, 95
2, 358400, Note_on_c, 0, 61, 95
2, 358720, Note_off_c, 0, 61, 95
2, 358720, Note_on_c, 0, 63, 95
2, 359040, Note_off_c, 0, 63, 95
2, 359040, Note_on_c, 0, 64, 95
2, 359360, Note_off_c, 0, 64, 95
2, 359360, Note_on_c, 0, 63, 95
2, 359680, Note_off_c, 0, 63, 95
2, 359680, Note_on_c, 0, 61, 95
2, 360000, Note_off_c, 0, 61, 95
2, 360000, Note_on_c, 0, 57, 95
2, 360320, Note_off_c, 0, 57, 95
2, 360320, Note_on_c, 0, 59, 95
2, 360640, Note_off_c, 0, 59, 95
2, 360640, Note_on_c, 0, 61, 95
2, 360960, Note_off_c, 0, 61, 95
2, 360960, Note_on_c, 0, 59, 95
2, 361600, Note_off_c, 0, 59, 95
2, 361600, Note_on_c, 0, 59, 95
2, 362240, Note_off_c, 0, 59, 95
2, 362240, Note_on_c, 0, 54, 95
2, 362560, Note_off_c, 0, 54, 95
2, 362560, Note_on_c, 0, 56, 95
2, 362880, Note_off_c, 0, 56, 95
2, 362880, Note_on_c, 0, 57, 95
2, 363200, Note_off_c, 0, 57, 95
2, 363200, Note_on_c, 0, 56, 95
2, 363520, Note_off_c, 0, 56, 95
2, 363520, Note_on_c, 0, 54, 95
2, 363840, Note_off_c, 0, 54, 95
2, 363840, Note_on_c, 0, 52, 95
2, 364160, Note_off_c, 0, 52, 95
2, 364160, Note_on_c, 0, 54, 95
2, 364480, Note_off_c, 0, 54, 95
2, 364480, Note_on_c, 0, 56, 95
2, 364800, Note_off_c, 0, 56, 95
2, 364800, Note_on_c, 0, 54, 95
2, 365440, Note_off_c, 0, 54, 95
2, 365440, Note_on_c, 0, 47, 95
2, 366080, Note_off_c, 0, 47, 95
2, 366080, Note_on_c, 0, 49, 95
2, 366400, Note_off_c, 0, 49, 95
2, 366400, Note_on_c, 0, 51, 95
2, 366720, Note_off_c, 0, 51, 95
2, 366720, Note_on_c, 0, 52, 95
2, 367040, Note_off_c, 0, 52, 95
2, 367040, Note_on_c, 0, 51, 95
2, 367360, Note_off_c, 0, 51, 95
2, 367360, Note_on_c, 0, 49, 95
2, 367680, Note_off_c, 0, 49, 95
2, 367680, Note_on_c, 0, 45, 95
2, 368640, Note_off_c, 0, 45, 95
2, 368640, Note_on_c, 0, 71, 95
2, 369280, Note_off_c, 0, 71, 95
2, 369280, Note_on_c, 0, 71, 95
2, 369920, Note_off_c, 0, 71, 95
2, 369920, Note_on_c, 0, 71, 95
2, 370240, Note_off_c, 0, 71, 95
2, 370240, Note_on_c, 0, 73, 95
2, 370560, Note_off_c, 0, 73, 95
2, 370560, Note_on_c, 0, 74, 95
2, 370880, Note_off_c, 0, 74, 95
2, 370880, Note_on_c, 0, 73, 95
2, 371200, Note_off_c, 0, 73, 95
2, 371200, Note_on_c, 0, 71, 95
2, 371520, Note_off_c, 0, 71, 95
2, 371520, Note_on_c, 0, 69, 95
2, 371840, Note_off_c, 0, 69, 95
2, 371840, Note_on_c, 0, 71, 95
2, 372160, Note_off_c, 0, 71, 95
2, 372160, Note_on_c, 0, 73, 95
2, 372480, Note_off_c, 0, 73, 95
2, 372480, Note_on_c, 0, 71, 95
2, 373120, Note_off_c, 0, 71, 95
2, 373120, Note_on_c, 0, 64, 95
2, 373760, Note_off_c, 0, 64, 95
2, 373760, Note_on_c, 0, 66, 95
2, 374080, Note_off_c, 0, 66, 95
2, 374080, Note_on_c, 0, 68, 95
2, 374400, Note_off_c, 0, 68, 95
2, 374400, Note_on_c, 0, 69, 95
2, 374720, Note_off_c, 0, 69, 95
2, 374720, Note_on_c, 0, 68, 95
2, 375040, Note_off_c, 0, 68, 95
2, 375040, Note_on_c, 0, 66, 95
2, 375360, Note_off_c, 0, 66, 95
2, 375360, Note_on_c, 0, 62, 95
2, 375680, Note_off_c, 0, 62, 95
2, 375680, Note_on_c, 0, 64, 95
2, 376000, Note_off_c, 0, 64, 95
2, 376000, Note_on_c, 0, 66, 95
2, 376320, Note_off_c, 0, 66, 95
2, 376320, Note_on_c, 0, 64, 95
2, 376960, Note_off_c, 0, 64, 95
2, 376960, Note_on_c, 0, 64, 95
2, 377600, Note_off_c, 0, 64, 95
2, 377600, Note_on_c, 0, 59, 95
2, 377920, Note_off_c, 0, 59, 95
2, 377920, Note_on_c, 0, 61, 95
2, 378240, Note_off_c, 0, 61, 95
2, 378240, Note_on_c, 0, 62, 95
2, 378560, Note_off_c, 0, 62, 95
2, 378560, Note_on_c, 0, 61, 95
2, 378880, Note_off_c, 0, 61, 95
2, 378880, Note_on_c, 0, 59, 95
2, 379200, Note_off_c, 0, 59, 95
2, 379200, Note_on_c, 0, 57, 95
2, 379520, Note_off_c, 0, 57, 95
2, 379520, Note_on_c, 0, 59, 95
2, 379840, Note_off_c, 0, 59, 95
2, 379840, Note_on_c, 0, 61, 95
2, 380160, Note_off_c, 0, 61, 95
2, 380160, Note_on_c, 0, 59, 95
2, 380800, Note_off_c, 0, 59, 95
2, 380800, Note_on_c, 0, 52, 95
2, 381440, Note_off_c, 0, 52, 95
2, 381440, Note_on_c, 0, 54, 95
2, 381760, Note_off_c, 0, 54, 95
2, 381760, Note_on_c, 0, 56, 95
2, 382080, Note_off_c, 0, 56, 95
2, 382080, Note_on_c, 0, 57, 95
2, 382400, Note_off_c, 0, 57, 95
2, 382400, Note_on_c, 0, 56, 95
2, 382720, Note_off_c, 0, 56, 95
2, 382720, Note_on_c, 0, 54, 95
2, 383040, Note_off_c, 0, 54, 95
2, 383040, Note_on_c, 0, 50, 95
2, 383360, Note_off_c, 0, 50, 95
2, 383360, Note_on_c, 0, 52, 95
2, 383680, Note_off_c, 0, 52, 95
2, 383680, Note_on_c, 0, 54, 95
2, 384000, Note_off_c, 0, 54, 95
2, 384000, Note_on_c, 0, 49, 95
2, 389760, Note_off_c, 0, 49, 95
2, 389760, End_track
3, 0, Start_track
3, 0, Pitch_bend_c, 9, 8192
3, 0, Control_c, 9, 7, 103
3, 0, Control_c, 9, 10, 63
3, 0, Control_c, 9, 93, 0
3, 0, Control_c, 9, 91, 0
3, 0, Control_c, 9, 95, 0
3, 0, Control_c, 9, 92, 0
3, 0, Control_c, 9, 11, 127
3, 0, Program_c, 9, 0
3, 0, End_track
0, 0, End_of_file
