0, 0, Header, 1, 9, 480
1, 0, Start_track
1, 0, System_exclusive, 5, 126, 127, 9, 1, 247
1, 0, Tempo, 375000
1, 0, Time_signature, 4, 2, 24, 8
1, 0, Key_signature, 0, "major"
1, 0, End_track
2, 0, Start_track
2, 0, Title_t, "Flute"
2, 0, MIDI_port, 0
2, 0, Channel_prefix, 1
2, 0, Control_c, 1, 7, 100
2, 0, Control_c, 1, 10, 20
2, 0, Program_c, 1, 73
2, 0, Control_c, 1, 121, 0
2, 17, Control_c, 1, 91, 90
2, 17, Control_c, 1, 93, 75
2, 21, Control_c, 1, 11, 127
2, 4200, Note_on_c, 1, 72, 88
2, 4440, Note_on_c, 1, 74, 88
2, 4480, Note_off_c, 1, 72, 64
2, 4680, Note_on_c, 1, 77, 88
2, 4840, Note_off_c, 1, 74, 64
2, 4940, Note_off_c, 1, 77, 64
2, 6120, Note_on_c, 1, 72, 88
2, 6360, Note_off_c, 1, 72, 64
2, 6360, Note_on_c, 1, 74, 88
2, 6600, Note_on_c, 1, 72, 88
2, 6720, Note_off_c, 1, 74, 64
2, 6900, Note_off_c, 1, 72, 64
2, 7080, Note_on_c, 1, 65, 88
2, 7200, Note_on_c, 1, 67, 88
2, 7360, Note_off_c, 1, 65, 64
2, 7560, Note_on_c, 1, 70, 88
2, 7660, Note_off_c, 1, 67, 64
2, 8100, Note_off_c, 1, 70, 64
2, 8640, Note_on_c, 1, 74, 88
2, 10820, Note_off_c, 1, 74, 64
2, 10920, Note_on_c, 1, 72, 88
2, 11160, Note_off_c, 1, 72, 64
2, 11160, Note_on_c, 1, 74, 88
2, 11400, Note_on_c, 1, 72, 88
2, 11480, Note_off_c, 1, 74, 64
2, 11720, Note_off_c, 1, 72, 64
2, 11880, Note_on_c, 1, 65, 88
2, 12120, Note_on_c, 1, 67, 88
2, 12140, Note_off_c, 1, 65, 64
2, 12360, Note_on_c, 1, 70, 88
2, 12580, Note_off_c, 1, 67, 64
2, 13540, Note_off_c, 1, 70, 64
2, 13800, Note_on_c, 1, 72, 88
2, 14020, Note_off_c, 1, 72, 64
2, 14040, Note_on_c, 1, 74, 88
2, 14280, Note_on_c, 1, 72, 88
2, 14400, Note_off_c, 1, 74, 64
2, 14600, Note_off_c, 1, 72, 64
2, 14760, Note_on_c, 1, 65, 88
2, 15000, Note_on_c, 1, 67, 88
2, 15020, Note_off_c, 1, 65, 64
2, 15240, Note_on_c, 1, 70, 88
2, 15380, Note_off_c, 1, 67, 64
2, 18500, Note_off_c, 1, 70, 64
2, 18600, Note_on_c, 1, 72, 88
2, 18840, Note_off_c, 1, 72, 64
2, 18840, Note_on_c, 1, 74, 88
2, 19160, Note_off_c, 1, 74, 64
2, 19680, Note_on_c, 1, 77, 88
2, 19900, Note_off_c, 1, 77, 64
2, 20160, Note_on_c, 1, 77, 88
2, 21260, Note_off_c, 1, 77, 64
2, 21480, Note_on_c, 1, 72, 88
2, 21680, Note_off_c, 1, 72, 64
2, 21720, Note_on_c, 1, 74, 88
2, 21960, Note_on_c, 1, 72, 88
2, 22020, Note_off_c, 1, 74, 64
2, 22320, Note_off_c, 1, 72, 64
2, 22440, Note_on_c, 1, 65, 88
2, 22680, Note_on_c, 1, 67, 88
2, 22720, Note_off_c, 1, 65, 64
2, 23040, Note_on_c, 1, 70, 88
2, 23100, Note_off_c, 1, 67, 64
2, 26520, Note_off_c, 1, 70, 64
2, 72240, Note_on_c, 1, 82, 88
2, 72432, Note_off_c, 1, 82, 64
2, 72720, Note_on_c, 1, 82, 88
2, 73200, Note_on_c, 1, 77, 88
2, 73224, Note_off_c, 1, 82, 64
2, 73332, Note_off_c, 1, 77, 64
2, 73440, Note_on_c, 1, 79, 88
2, 73680, Note_on_c, 1, 77, 88
2, 73740, Note_off_c, 1, 79, 64
2, 74088, Note_off_c, 1, 77, 64
2, 74160, Note_on_c, 1, 72, 88
2, 74280, Note_on_c, 1, 74, 88
2, 74356, Note_off_c, 1, 72, 64
2, 74528, Note_off_c, 1, 74, 64
2, 75120, Note_on_c, 1, 72, 88
2, 75300, Note_off_c, 1, 72, 64
2, 75360, Note_on_c, 1, 74, 88
2, 75600, Note_on_c, 1, 72, 88
2, 75632, Note_off_c, 1, 74, 64
2, 75864, Note_off_c, 1, 72, 64
2, 76080, Note_on_c, 1, 65, 88
2, 76200, Note_on_c, 1, 67, 88
2, 76220, Note_off_c, 1, 65, 64
2, 76440, Note_on_c, 1, 65, 88
2, 76460, Note_off_c, 1, 65, 64
2, 76624, Note_off_c, 1, 67, 64
2, 76680, Note_on_c, 1, 70, 88
2, 76924, Note_off_c, 1, 70, 64
2, 77760, Note_on_c, 1, 74, 88
2, 79840, Note_off_c, 1, 74, 64
2, 79920, Note_on_c, 1, 72, 88
2, 80108, Note_off_c, 1, 72, 64
2, 80160, Note_on_c, 1, 74, 88
2, 80400, Note_on_c, 1, 72, 88
2, 80448, Note_off_c, 1, 74, 64
2, 80736, Note_off_c, 1, 72, 64
2, 80880, Note_on_c, 1, 65, 88
2, 81072, Note_off_c, 1, 65, 64
2, 81120, Note_on_c, 1, 67, 88
2, 81360, Note_on_c, 1, 70, 88
2, 81468, Note_off_c, 1, 67, 64
2, 82572, Note_off_c, 1, 70, 64
2, 82800, Note_on_c, 1, 72, 88
2, 83000, Note_off_c, 1, 72, 64
2, 83040, Note_on_c, 1, 74, 88
2, 83280, Note_on_c, 1, 72, 88
2, 83360, Note_off_c, 1, 74, 64
2, 83604, Note_off_c, 1, 72, 64
2, 84000, Note_on_c, 1, 65, 88
2, 84240, Note_on_c, 1, 67, 88
2, 84320, Note_off_c, 1, 65, 64
2, 84480, Note_on_c, 1, 70, 88
2, 84548, Note_off_c, 1, 67, 64
2, 87600, Note_on_c, 1, 72, 88
2, 87616, Note_off_c, 1, 70, 64
2, 87720, Note_on_c, 1, 74, 88
2, 87788, Note_off_c, 1, 72, 64
2, 87924, Note_off_c, 1, 74, 64
2, 88560, Note_on_c, 1, 77, 88
2, 88732, Note_off_c, 1, 77, 64
2, 89040, Note_on_c, 1, 77, 88
2, 90052, Note_off_c, 1, 77, 64
2, 90480, Note_on_c, 1, 72, 88
2, 90720, Note_on_c, 1, 74, 88
2, 90856, Note_off_c, 1, 72, 64
2, 90960, Note_on_c, 1, 72, 88
2, 91048, Note_off_c, 1, 74, 64
2, 91324, Note_off_c, 1, 72, 64
2, 91680, Note_on_c, 1, 65, 88
2, 91920, Note_on_c, 1, 67, 88
2, 91948, Note_off_c, 1, 65, 64
2, 92160, Note_on_c, 1, 70, 88
2, 92308, Note_off_c, 1, 67, 64
2, 95500, Note_off_c, 1, 70, 64
2, 141360, Note_on_c, 1, 82, 88
2, 141552, Note_off_c, 1, 82, 64
2, 141840, Note_on_c, 1, 82, 88
2, 142320, Note_on_c, 1, 77, 88
2, 142344, Note_off_c, 1, 82, 64
2, 142452, Note_off_c, 1, 77, 64
2, 142560, Note_on_c, 1, 79, 88
2, 142800, Note_on_c, 1, 77, 88
2, 142860, Note_off_c, 1, 79, 64
2, 143208, Note_off_c, 1, 77, 64
2, 143280, Note_on_c, 1, 72, 88
2, 143400, Note_on_c, 1, 74, 88
2, 143476, Note_off_c, 1, 72, 64
2, 143648, Note_off_c, 1, 74, 64
2, 144240, Note_on_c, 1, 72, 88
2, 144420, Note_off_c, 1, 72, 64
2, 144480, Note_on_c, 1, 74, 88
2, 144720, Note_on_c, 1, 72, 88
2, 144752, Note_off_c, 1, 74, 64
2, 144984, Note_off_c, 1, 72, 64
2, 145200, Note_on_c, 1, 65, 88
2, 145320, Note_on_c, 1, 67, 88
2, 145340, Note_off_c, 1, 65, 64
2, 145560, Note_on_c, 1, 65, 88
2, 145580, Note_off_c, 1, 65, 64
2, 145744, Note_off_c, 1, 67, 64
2, 145800, Note_on_c, 1, 70, 88
2, 146044, Note_off_c, 1, 70, 64
2, 146880, Note_on_c, 1, 74, 88
2, 148960, Note_off_c, 1, 74, 64
2, 149040, Note_on_c, 1, 72, 88
2, 149228, Note_off_c, 1, 72, 64
2, 149280, Note_on_c, 1, 74, 88
2, 149520, Note_on_c, 1, 72, 88
2, 149568, Note_off_c, 1, 74, 64
2, 149856, Note_off_c, 1, 72, 64
2, 150000, Note_on_c, 1, 65, 88
2, 150192, Note_off_c, 1, 65, 64
2, 150240, Note_on_c, 1, 67, 88
2, 150480, Note_on_c, 1, 70, 88
2, 150588, Note_off_c, 1, 67, 64
2, 151692, Note_off_c, 1, 70, 64
2, 151920, Note_on_c, 1, 72, 88
2, 152120, Note_off_c, 1, 72, 64
2, 152160, Note_on_c, 1, 74, 88
2, 152400, Note_on_c, 1, 72, 88
2, 152480, Note_off_c, 1, 74, 64
2, 152724, Note_off_c, 1, 72, 64
2, 153120, Note_on_c, 1, 65, 88
2, 153360, Note_on_c, 1, 67, 88
2, 153440, Note_off_c, 1, 65, 64
2, 153600, Note_on_c, 1, 70, 88
2, 153668, Note_off_c, 1, 67, 64
2, 156720, Note_on_c, 1, 72, 88
2, 156736, Note_off_c, 1, 70, 64
2, 156840, Note_on_c, 1, 74, 88
2, 156908, Note_off_c, 1, 72, 64
2, 157044, Note_off_c, 1, 74, 64
2, 157680, Note_on_c, 1, 77, 88
2, 157852, Note_off_c, 1, 77, 64
2, 158160, Note_on_c, 1, 77, 88
2, 159172, Note_off_c, 1, 77, 64
2, 159600, Note_on_c, 1, 72, 88
2, 159840, Note_on_c, 1, 74, 88
2, 159976, Note_off_c, 1, 72, 64
2, 160080, Note_on_c, 1, 72, 88
2, 160168, Note_off_c, 1, 74, 64
2, 160444, Note_off_c, 1, 72, 64
2, 160800, Note_on_c, 1, 65, 88
2, 161040, Note_on_c, 1, 67, 88
2, 161068, Note_off_c, 1, 65, 64
2, 161280, Note_on_c, 1, 70, 88
2, 161428, Note_off_c, 1, 67, 64
2, 164620, Note_off_c, 1, 70, 64
2, 179076, Note_on_c, 1, 72, 88
2, 179300, Note_on_c, 1, 74, 88
2, 179324, Note_off_c, 1, 72, 64
2, 179576, Note_off_c, 1, 74, 64
2, 179780, Note_on_c, 1, 70, 88
2, 179936, Note_off_c, 1, 70, 64
2, 179944, Note_on_c, 1, 72, 88
2, 180168, Note_off_c, 1, 72, 64
2, 180416, Note_on_c, 1, 70, 88
2, 180540, Note_on_c, 1, 67, 88
2, 180616, Note_off_c, 1, 70, 64
2, 182700, Note_off_c, 1, 67, 64
2, 182844, Note_on_c, 1, 70, 88
2, 183116, Note_on_c, 1, 72, 88
2, 183128, Note_off_c, 1, 70, 64
2, 183352, Note_off_c, 1, 72, 64
2, 183600, Note_on_c, 1, 70, 88
2, 183756, Note_on_c, 1, 72, 88
2, 183760, Note_off_c, 1, 70, 64
2, 183932, Note_off_c, 1, 72, 64
2, 184288, Note_on_c, 1, 74, 88
2, 186700, Note_off_c, 1, 74, 64
2, 186724, Note_on_c, 1, 72, 88
2, 186972, Note_on_c, 1, 74, 88
2, 186984, Note_off_c, 1, 72, 64
2, 187336, Note_off_c, 1, 74, 64
2, 187476, Note_on_c, 1, 72, 88
2, 187680, Note_off_c, 1, 72, 64
2, 187680, Note_on_c, 1, 74, 88
2, 187896, Note_off_c, 1, 74, 64
2, 188096, Note_on_c, 1, 77, 88
2, 189000, Note_off_c, 1, 77, 64
2, 189060, Note_on_c, 1, 72, 88
2, 190208, Note_off_c, 1, 72, 64
2, 190376, Note_on_c, 1, 74, 88
2, 190552, Note_off_c, 1, 74, 64
2, 190788, Note_on_c, 1, 72, 88
2, 191192, Note_off_c, 1, 72, 64
2, 191336, Note_on_c, 1, 70, 88
2, 191488, Note_off_c, 1, 70, 64
2, 191488, Note_on_c, 1, 72, 88
2, 191780, Note_off_c, 1, 72, 64
2, 192000, Note_on_c, 1, 70, 88
2, 193220, Note_off_c, 1, 70, 64
2, 196200, Note_on_c, 1, 72, 88
2, 196440, Note_on_c, 1, 74, 88
2, 196480, Note_off_c, 1, 72, 64
2, 196680, Note_on_c, 1, 77, 88
2, 196840, Note_off_c, 1, 74, 64
2, 196940, Note_off_c, 1, 77, 64
2, 198120, Note_on_c, 1, 72, 88
2, 198360, Note_off_c, 1, 72, 64
2, 198360, Note_on_c, 1, 74, 88
2, 198600, Note_on_c, 1, 72, 88
2, 198720, Note_off_c, 1, 74, 64
2, 198900, Note_off_c, 1, 72, 64
2, 199080, Note_on_c, 1, 65, 88
2, 199200, Note_on_c, 1, 67, 88
2, 199360, Note_off_c, 1, 65, 64
2, 199560, Note_on_c, 1, 70, 88
2, 199660, Note_off_c, 1, 67, 64
2, 200100, Note_off_c, 1, 70, 64
2, 200640, Note_on_c, 1, 74, 88
2, 202820, Note_off_c, 1, 74, 64
2, 202920, Note_on_c, 1, 72, 88
2, 203160, Note_off_c, 1, 72, 64
2, 203160, Note_on_c, 1, 74, 88
2, 203400, Note_on_c, 1, 72, 88
2, 203480, Note_off_c, 1, 74, 64
2, 203720, Note_off_c, 1, 72, 64
2, 203880, Note_on_c, 1, 65, 88
2, 204120, Note_on_c, 1, 67, 88
2, 204140, Note_off_c, 1, 65, 64
2, 204360, Note_on_c, 1, 70, 88
2, 204580, Note_off_c, 1, 67, 64
2, 205540, Note_off_c, 1, 70, 64
2, 205800, Note_on_c, 1, 72, 88
2, 206020, Note_off_c, 1, 72, 64
2, 206040, Note_on_c, 1, 74, 88
2, 206280, Note_on_c, 1, 72, 88
2, 206400, Note_off_c, 1, 74, 64
2, 206600, Note_off_c, 1, 72, 64
2, 206760, Note_on_c, 1, 65, 88
2, 207000, Note_on_c, 1, 67, 88
2, 207020, Note_off_c, 1, 65, 64
2, 207240, Note_on_c, 1, 70, 88
2, 207380, Note_off_c, 1, 67, 64
2, 210500, Note_off_c, 1, 70, 64
2, 210600, Note_on_c, 1, 72, 88
2, 210840, Note_off_c, 1, 72, 64
2, 210840, Note_on_c, 1, 74, 88
2, 211160, Note_off_c, 1, 74, 64
2, 211680, Note_on_c, 1, 77, 88
2, 211900, Note_off_c, 1, 77, 64
2, 212160, Note_on_c, 1, 77, 88
2, 213260, Note_off_c, 1, 77, 64
2, 213480, Note_on_c, 1, 72, 88
2, 213680, Note_off_c, 1, 72, 64
2, 213720, Note_on_c, 1, 74, 88
2, 213960, Note_on_c, 1, 72, 88
2, 214020, Note_off_c, 1, 74, 64
2, 214320, Note_off_c, 1, 72, 64
2, 214440, Note_on_c, 1, 65, 88
2, 214680, Note_on_c, 1, 67, 88
2, 214720, Note_off_c, 1, 65, 64
2, 215040, Note_on_c, 1, 70, 88
2, 215100, Note_off_c, 1, 67, 64
2, 218520, Note_off_c, 1, 70, 64
2, 218520, End_track
3, 0, Start_track
3, 0, Title_t, "Bass"
3, 0, MIDI_port, 0
3, 0, Channel_prefix, 2
3, 0, Control_c, 2, 7, 100
3, 0, Control_c, 2, 10, 60
3, 0, Program_c, 2, 34
3, 0, Control_c, 2, 121, 0
3, 17, Control_c, 2, 91, 90
3, 17, Control_c, 2, 93, 75
3, 21, Control_c, 2, 11, 127
3, 26880, Note_on_c, 2, 34, 127
3, 27360, Note_on_c, 2, 31, 127
3, 27368, Note_off_c, 2, 34, 64
3, 27516, Note_on_c, 2, 29, 77
3, 27716, Note_off_c, 2, 31, 64
3, 27756, Note_on_c, 2, 34, 127
3, 27776, Note_off_c, 2, 29, 64
3, 27916, Note_off_c, 2, 34, 64
3, 28092, Note_on_c, 2, 34, 101
3, 28236, Note_on_c, 2, 31, 104
3, 28308, Note_off_c, 2, 34, 64
3, 28484, Note_on_c, 2, 29, 86
3, 28620, Note_off_c, 2, 31, 64
3, 28772, Note_off_c, 2, 29, 64
3, 28804, Note_on_c, 2, 34, 127
3, 29288, Note_on_c, 2, 31, 127
3, 29340, Note_off_c, 2, 34, 64
3, 29532, Note_on_c, 2, 29, 107
3, 29676, Note_off_c, 2, 31, 64
3, 29764, Note_on_c, 2, 34, 127
3, 29796, Note_off_c, 2, 29, 64
3, 29912, Note_off_c, 2, 34, 64
3, 30016, Note_on_c, 2, 34, 106
3, 30268, Note_off_c, 2, 34, 64
3, 30404, Note_on_c, 2, 31, 80
3, 30640, Note_on_c, 2, 29, 92
3, 30720, Note_on_c, 2, 34, 127
3, 30800, Note_off_c, 2, 31, 64
3, 31016, Note_off_c, 2, 29, 64
3, 31200, Note_on_c, 2, 31, 127
3, 31208, Note_off_c, 2, 34, 64
3, 31356, Note_on_c, 2, 29, 77
3, 31556, Note_off_c, 2, 31, 64
3, 31596, Note_on_c, 2, 34, 127
3, 31616, Note_off_c, 2, 29, 64
3, 31756, Note_off_c, 2, 34, 64
3, 31932, Note_on_c, 2, 34, 101
3, 32076, Note_on_c, 2, 31, 104
3, 32148, Note_off_c, 2, 34, 64
3, 32324, Note_on_c, 2, 29, 86
3, 32460, Note_off_c, 2, 31, 64
3, 32612, Note_off_c, 2, 29, 64
3, 32644, Note_on_c, 2, 34, 127
3, 33128, Note_on_c, 2, 31, 127
3, 33180, Note_off_c, 2, 34, 64
3, 33372, Note_on_c, 2, 29, 107
3, 33516, Note_off_c, 2, 31, 64
3, 33604, Note_on_c, 2, 34, 127
3, 33636, Note_off_c, 2, 29, 64
3, 33752, Note_off_c, 2, 34, 64
3, 33856, Note_on_c, 2, 34, 106
3, 34108, Note_off_c, 2, 34, 64
3, 34244, Note_on_c, 2, 31, 80
3, 34480, Note_on_c, 2, 29, 92
3, 34560, Note_on_c, 2, 39, 127
3, 34640, Note_off_c, 2, 31, 64
3, 34856, Note_off_c, 2, 29, 64
3, 34900, Note_off_c, 2, 39, 64
3, 35040, Note_on_c, 2, 39, 127
3, 35136, Note_off_c, 2, 39, 64
3, 35284, Note_on_c, 2, 39, 99
3, 35372, Note_off_c, 2, 39, 64
3, 35524, Note_on_c, 2, 39, 127
3, 35696, Note_off_c, 2, 39, 64
3, 35772, Note_on_c, 2, 39, 101
3, 36320, Note_off_c, 2, 39, 64
3, 36484, Note_on_c, 2, 39, 127
3, 36836, Note_off_c, 2, 39, 64
3, 36968, Note_on_c, 2, 39, 127
3, 37048, Note_off_c, 2, 39, 64
3, 37212, Note_on_c, 2, 39, 107
3, 37280, Note_off_c, 2, 39, 64
3, 37444, Note_on_c, 2, 39, 127
3, 37644, Note_off_c, 2, 39, 64
3, 37776, Note_on_c, 2, 39, 118
3, 38192, Note_off_c, 2, 39, 64
3, 38400, Note_on_c, 2, 34, 127
3, 38880, Note_on_c, 2, 31, 127
3, 38888, Note_off_c, 2, 34, 64
3, 39036, Note_on_c, 2, 29, 77
3, 39236, Note_off_c, 2, 31, 64
3, 39276, Note_on_c, 2, 34, 127
3, 39296, Note_off_c, 2, 29, 64
3, 39436, Note_off_c, 2, 34, 64
3, 39612, Note_on_c, 2, 34, 101
3, 39756, Note_on_c, 2, 31, 104
3, 39828, Note_off_c, 2, 34, 64
3, 40004, Note_on_c, 2, 29, 86
3, 40140, Note_off_c, 2, 31, 64
3, 40292, Note_off_c, 2, 29, 64
3, 40320, Note_on_c, 2, 34, 118
3, 40732, Note_off_c, 2, 34, 64
3, 40800, Note_on_c, 2, 26, 118
3, 41172, Note_off_c, 2, 26, 64
3, 41280, Note_on_c, 2, 27, 118
3, 41676, Note_off_c, 2, 27, 64
3, 41760, Note_on_c, 2, 28, 118
3, 42000, Note_on_c, 2, 29, 118
3, 42100, Note_off_c, 2, 28, 64
3, 42240, Note_on_c, 2, 41, 127
3, 42252, Note_off_c, 2, 29, 64
3, 42600, Note_on_c, 2, 38, 87
3, 42736, Note_off_c, 2, 41, 64
3, 42964, Note_on_c, 2, 36, 99
3, 42980, Note_off_c, 2, 38, 64
3, 43116, Note_on_c, 2, 41, 127
3, 43180, Note_off_c, 2, 36, 64
3, 43272, Note_off_c, 2, 41, 64
3, 43452, Note_on_c, 2, 41, 101
3, 43556, Note_off_c, 2, 41, 64
3, 43596, Note_on_c, 2, 41, 104
3, 43596, Note_on_c, 2, 38, 104
3, 43728, Note_off_c, 2, 41, 64
3, 43924, Note_on_c, 2, 36, 102
3, 43996, Note_off_c, 2, 38, 64
3, 44116, Note_off_c, 2, 36, 64
3, 44164, Note_on_c, 2, 39, 127
3, 44644, Note_off_c, 2, 39, 64
3, 44648, Note_on_c, 2, 36, 127
3, 44892, Note_on_c, 2, 34, 107
3, 44976, Note_off_c, 2, 36, 64
3, 45164, Note_off_c, 2, 34, 64
3, 45280, Note_on_c, 2, 39, 83
3, 45448, Note_off_c, 2, 39, 64
3, 45524, Note_on_c, 2, 39, 103
3, 45680, Note_on_c, 2, 36, 118
3, 45688, Note_off_c, 2, 39, 64
3, 46000, Note_off_c, 2, 36, 64
3, 46080, Note_on_c, 2, 34, 127
3, 46560, Note_on_c, 2, 31, 127
3, 46568, Note_off_c, 2, 34, 64
3, 46716, Note_on_c, 2, 29, 77
3, 46916, Note_off_c, 2, 31, 64
3, 46956, Note_on_c, 2, 34, 127
3, 46976, Note_off_c, 2, 29, 64
3, 47116, Note_off_c, 2, 34, 64
3, 47292, Note_on_c, 2, 34, 101
3, 47436, Note_on_c, 2, 31, 104
3, 47508, Note_off_c, 2, 34, 64
3, 47684, Note_on_c, 2, 29, 86
3, 47820, Note_off_c, 2, 31, 64
3, 47972, Note_off_c, 2, 29, 64
3, 48000, Note_on_c, 2, 34, 118
3, 48200, Note_off_c, 2, 34, 64
3, 48300, Note_on_c, 2, 34, 118
3, 48448, Note_on_c, 2, 31, 118
3, 48468, Note_off_c, 2, 34, 64
3, 48724, Note_on_c, 2, 29, 118
3, 48764, Note_off_c, 2, 31, 64
3, 49188, Note_off_c, 2, 29, 64
3, 49248, Note_on_c, 2, 29, 118
3, 49416, Note_on_c, 2, 31, 118
3, 49432, Note_off_c, 2, 29, 64
3, 49704, Note_on_c, 2, 29, 118
3, 49716, Note_off_c, 2, 31, 64
3, 49876, Note_off_c, 2, 29, 64
3, 49920, Note_on_c, 2, 34, 127
3, 50400, Note_on_c, 2, 31, 127
3, 50408, Note_off_c, 2, 34, 64
3, 50556, Note_on_c, 2, 29, 77
3, 50756, Note_off_c, 2, 31, 64
3, 50796, Note_on_c, 2, 34, 127
3, 50816, Note_off_c, 2, 29, 64
3, 50956, Note_off_c, 2, 34, 64
3, 51132, Note_on_c, 2, 34, 101
3, 51276, Note_on_c, 2, 31, 104
3, 51348, Note_off_c, 2, 34, 64
3, 51524, Note_on_c, 2, 29, 86
3, 51660, Note_off_c, 2, 31, 64
3, 51812, Note_off_c, 2, 29, 64
3, 51844, Note_on_c, 2, 34, 127
3, 52328, Note_on_c, 2, 31, 127
3, 52380, Note_off_c, 2, 34, 64
3, 52572, Note_on_c, 2, 29, 107
3, 52716, Note_off_c, 2, 31, 64
3, 52804, Note_on_c, 2, 34, 127
3, 52836, Note_off_c, 2, 29, 64
3, 52952, Note_off_c, 2, 34, 64
3, 53056, Note_on_c, 2, 34, 106
3, 53308, Note_off_c, 2, 34, 64
3, 53444, Note_on_c, 2, 31, 80
3, 53680, Note_on_c, 2, 29, 92
3, 53760, Note_on_c, 2, 34, 127
3, 53840, Note_off_c, 2, 31, 64
3, 54056, Note_off_c, 2, 29, 64
3, 54240, Note_on_c, 2, 31, 127
3, 54248, Note_off_c, 2, 34, 64
3, 54396, Note_on_c, 2, 29, 77
3, 54596, Note_off_c, 2, 31, 64
3, 54636, Note_on_c, 2, 34, 127
3, 54656, Note_off_c, 2, 29, 64
3, 54796, Note_off_c, 2, 34, 64
3, 54972, Note_on_c, 2, 34, 101
3, 55116, Note_on_c, 2, 31, 104
3, 55188, Note_off_c, 2, 34, 64
3, 55364, Note_on_c, 2, 29, 86
3, 55500, Note_off_c, 2, 31, 64
3, 55652, Note_off_c, 2, 29, 64
3, 55684, Note_on_c, 2, 34, 127
3, 56168, Note_on_c, 2, 31, 127
3, 56220, Note_off_c, 2, 34, 64
3, 56412, Note_on_c, 2, 29, 107
3, 56556, Note_off_c, 2, 31, 64
3, 56644, Note_on_c, 2, 34, 127
3, 56676, Note_off_c, 2, 29, 64
3, 56792, Note_off_c, 2, 34, 64
3, 56896, Note_on_c, 2, 34, 106
3, 57148, Note_off_c, 2, 34, 64
3, 57284, Note_on_c, 2, 31, 80
3, 57520, Note_on_c, 2, 29, 92
3, 57600, Note_on_c, 2, 39, 127
3, 57680, Note_off_c, 2, 31, 64
3, 57896, Note_off_c, 2, 29, 64
3, 57940, Note_off_c, 2, 39, 64
3, 58080, Note_on_c, 2, 39, 127
3, 58176, Note_off_c, 2, 39, 64
3, 58324, Note_on_c, 2, 39, 99
3, 58412, Note_off_c, 2, 39, 64
3, 58564, Note_on_c, 2, 39, 127
3, 58736, Note_off_c, 2, 39, 64
3, 58812, Note_on_c, 2, 39, 101
3, 59360, Note_off_c, 2, 39, 64
3, 59524, Note_on_c, 2, 39, 127
3, 59876, Note_off_c, 2, 39, 64
3, 60008, Note_on_c, 2, 39, 127
3, 60088, Note_off_c, 2, 39, 64
3, 60252, Note_on_c, 2, 39, 107
3, 60320, Note_off_c, 2, 39, 64
3, 60484, Note_on_c, 2, 39, 127
3, 60684, Note_off_c, 2, 39, 64
3, 60816, Note_on_c, 2, 39, 118
3, 61232, Note_off_c, 2, 39, 64
3, 61440, Note_on_c, 2, 34, 127
3, 61920, Note_on_c, 2, 31, 127
3, 61928, Note_off_c, 2, 34, 64
3, 62076, Note_on_c, 2, 29, 77
3, 62276, Note_off_c, 2, 31, 64
3, 62316, Note_on_c, 2, 34, 127
3, 62336, Note_off_c, 2, 29, 64
3, 62476, Note_off_c, 2, 34, 64
3, 62652, Note_on_c, 2, 34, 101
3, 62796, Note_on_c, 2, 31, 104
3, 62868, Note_off_c, 2, 34, 64
3, 63044, Note_on_c, 2, 29, 86
3, 63180, Note_off_c, 2, 31, 64
3, 63332, Note_off_c, 2, 29, 64
3, 63360, Note_on_c, 2, 34, 118
3, 63772, Note_off_c, 2, 34, 64
3, 63840, Note_on_c, 2, 26, 118
3, 64212, Note_off_c, 2, 26, 64
3, 64320, Note_on_c, 2, 27, 118
3, 64716, Note_off_c, 2, 27, 64
3, 64800, Note_on_c, 2, 28, 118
3, 65040, Note_on_c, 2, 29, 118
3, 65140, Note_off_c, 2, 28, 64
3, 65280, Note_on_c, 2, 41, 127
3, 65292, Note_off_c, 2, 29, 64
3, 65640, Note_on_c, 2, 38, 87
3, 65776, Note_off_c, 2, 41, 64
3, 66004, Note_on_c, 2, 36, 99
3, 66020, Note_off_c, 2, 38, 64
3, 66156, Note_on_c, 2, 41, 127
3, 66220, Note_off_c, 2, 36, 64
3, 66312, Note_off_c, 2, 41, 64
3, 66492, Note_on_c, 2, 41, 101
3, 66596, Note_off_c, 2, 41, 64
3, 66636, Note_on_c, 2, 41, 104
3, 66636, Note_on_c, 2, 38, 104
3, 66768, Note_off_c, 2, 41, 64
3, 66964, Note_on_c, 2, 36, 102
3, 67036, Note_off_c, 2, 38, 64
3, 67156, Note_off_c, 2, 36, 64
3, 67204, Note_on_c, 2, 39, 127
3, 67684, Note_off_c, 2, 39, 64
3, 67688, Note_on_c, 2, 36, 127
3, 67932, Note_on_c, 2, 34, 107
3, 68016, Note_off_c, 2, 36, 64
3, 68204, Note_off_c, 2, 34, 64
3, 68320, Note_on_c, 2, 39, 83
3, 68488, Note_off_c, 2, 39, 64
3, 68564, Note_on_c, 2, 39, 103
3, 68720, Note_on_c, 2, 36, 118
3, 68728, Note_off_c, 2, 39, 64
3, 69040, Note_off_c, 2, 36, 64
3, 69120, Note_on_c, 2, 34, 127
3, 69600, Note_on_c, 2, 31, 127
3, 69608, Note_off_c, 2, 34, 64
3, 69756, Note_on_c, 2, 29, 77
3, 69956, Note_off_c, 2, 31, 64
3, 69996, Note_on_c, 2, 34, 127
3, 70016, Note_off_c, 2, 29, 64
3, 70156, Note_off_c, 2, 34, 64
3, 70332, Note_on_c, 2, 34, 101
3, 70476, Note_on_c, 2, 31, 104
3, 70548, Note_off_c, 2, 34, 64
3, 70724, Note_on_c, 2, 29, 86
3, 70860, Note_off_c, 2, 31, 64
3, 71012, Note_off_c, 2, 29, 64
3, 71040, Note_on_c, 2, 34, 118
3, 71240, Note_off_c, 2, 34, 64
3, 71340, Note_on_c, 2, 34, 118
3, 71488, Note_on_c, 2, 31, 118
3, 71508, Note_off_c, 2, 34, 64
3, 71764, Note_on_c, 2, 29, 118
3, 71804, Note_off_c, 2, 31, 64
3, 72228, Note_off_c, 2, 29, 64
3, 72288, Note_on_c, 2, 29, 118
3, 72456, Note_on_c, 2, 31, 118
3, 72472, Note_off_c, 2, 29, 64
3, 72744, Note_on_c, 2, 29, 118
3, 72756, Note_off_c, 2, 31, 64
3, 72916, Note_off_c, 2, 29, 64
3, 72960, Note_on_c, 2, 34, 127
3, 73440, Note_on_c, 2, 31, 127
3, 73448, Note_off_c, 2, 34, 64
3, 73596, Note_on_c, 2, 29, 77
3, 73796, Note_off_c, 2, 31, 64
3, 73836, Note_on_c, 2, 34, 127
3, 73856, Note_off_c, 2, 29, 64
3, 73996, Note_off_c, 2, 34, 64
3, 74172, Note_on_c, 2, 34, 101
3, 74316, Note_on_c, 2, 31, 104
3, 74388, Note_off_c, 2, 34, 64
3, 74564, Note_on_c, 2, 29, 86
3, 74700, Note_off_c, 2, 31, 64
3, 74852, Note_off_c, 2, 29, 64
3, 74884, Note_on_c, 2, 34, 127
3, 75368, Note_on_c, 2, 31, 127
3, 75420, Note_off_c, 2, 34, 64
3, 75612, Note_on_c, 2, 29, 107
3, 75756, Note_off_c, 2, 31, 64
3, 75844, Note_on_c, 2, 34, 127
3, 75876, Note_off_c, 2, 29, 64
3, 75992, Note_off_c, 2, 34, 64
3, 76096, Note_on_c, 2, 34, 106
3, 76348, Note_off_c, 2, 34, 64
3, 76484, Note_on_c, 2, 31, 80
3, 76720, Note_on_c, 2, 29, 92
3, 76800, Note_on_c, 2, 34, 127
3, 76880, Note_off_c, 2, 31, 64
3, 77096, Note_off_c, 2, 29, 64
3, 77280, Note_on_c, 2, 31, 127
3, 77288, Note_off_c, 2, 34, 64
3, 77436, Note_on_c, 2, 29, 77
3, 77636, Note_off_c, 2, 31, 64
3, 77676, Note_on_c, 2, 34, 127
3, 77696, Note_off_c, 2, 29, 64
3, 77836, Note_off_c, 2, 34, 64
3, 78012, Note_on_c, 2, 34, 101
3, 78156, Note_on_c, 2, 31, 104
3, 78228, Note_off_c, 2, 34, 64
3, 78404, Note_on_c, 2, 29, 86
3, 78540, Note_off_c, 2, 31, 64
3, 78692, Note_off_c, 2, 29, 64
3, 78724, Note_on_c, 2, 34, 127
3, 79208, Note_on_c, 2, 31, 127
3, 79260, Note_off_c, 2, 34, 64
3, 79452, Note_on_c, 2, 29, 107
3, 79596, Note_off_c, 2, 31, 64
3, 79684, Note_on_c, 2, 34, 127
3, 79716, Note_off_c, 2, 29, 64
3, 79832, Note_off_c, 2, 34, 64
3, 79936, Note_on_c, 2, 34, 106
3, 80188, Note_off_c, 2, 34, 64
3, 80324, Note_on_c, 2, 31, 80
3, 80560, Note_on_c, 2, 29, 92
3, 80640, Note_on_c, 2, 39, 127
3, 80720, Note_off_c, 2, 31, 64
3, 80936, Note_off_c, 2, 29, 64
3, 80980, Note_off_c, 2, 39, 64
3, 81120, Note_on_c, 2, 39, 127
3, 81216, Note_off_c, 2, 39, 64
3, 81364, Note_on_c, 2, 39, 99
3, 81452, Note_off_c, 2, 39, 64
3, 81604, Note_on_c, 2, 39, 127
3, 81776, Note_off_c, 2, 39, 64
3, 81852, Note_on_c, 2, 39, 101
3, 82400, Note_off_c, 2, 39, 64
3, 82564, Note_on_c, 2, 39, 127
3, 82916, Note_off_c, 2, 39, 64
3, 83048, Note_on_c, 2, 39, 127
3, 83128, Note_off_c, 2, 39, 64
3, 83292, Note_on_c, 2, 39, 107
3, 83360, Note_off_c, 2, 39, 64
3, 83524, Note_on_c, 2, 39, 127
3, 83724, Note_off_c, 2, 39, 64
3, 83856, Note_on_c, 2, 39, 118
3, 84272, Note_off_c, 2, 39, 64
3, 84480, Note_on_c, 2, 34, 127
3, 84960, Note_on_c, 2, 31, 127
3, 84968, Note_off_c, 2, 34, 64
3, 85116, Note_on_c, 2, 29, 77
3, 85316, Note_off_c, 2, 31, 64
3, 85356, Note_on_c, 2, 34, 127
3, 85376, Note_off_c, 2, 29, 64
3, 85516, Note_off_c, 2, 34, 64
3, 85692, Note_on_c, 2, 34, 101
3, 85836, Note_on_c, 2, 31, 104
3, 85908, Note_off_c, 2, 34, 64
3, 86084, Note_on_c, 2, 29, 86
3, 86220, Note_off_c, 2, 31, 64
3, 86372, Note_off_c, 2, 29, 64
3, 86400, Note_on_c, 2, 34, 118
3, 86812, Note_off_c, 2, 34, 64
3, 86880, Note_on_c, 2, 26, 118
3, 87252, Note_off_c, 2, 26, 64
3, 87360, Note_on_c, 2, 27, 118
3, 87756, Note_off_c, 2, 27, 64
3, 87840, Note_on_c, 2, 28, 118
3, 88080, Note_on_c, 2, 29, 118
3, 88180, Note_off_c, 2, 28, 64
3, 88320, Note_on_c, 2, 41, 127
3, 88332, Note_off_c, 2, 29, 64
3, 88680, Note_on_c, 2, 38, 87
3, 88816, Note_off_c, 2, 41, 64
3, 89044, Note_on_c, 2, 36, 99
3, 89060, Note_off_c, 2, 38, 64
3, 89196, Note_on_c, 2, 41, 127
3, 89260, Note_off_c, 2, 36, 64
3, 89352, Note_off_c, 2, 41, 64
3, 89532, Note_on_c, 2, 41, 101
3, 89636, Note_off_c, 2, 41, 64
3, 89676, Note_on_c, 2, 41, 104
3, 89676, Note_on_c, 2, 38, 104
3, 89808, Note_off_c, 2, 41, 64
3, 90004, Note_on_c, 2, 36, 102
3, 90076, Note_off_c, 2, 38, 64
3, 90196, Note_off_c, 2, 36, 64
3, 90244, Note_on_c, 2, 39, 127
3, 90724, Note_off_c, 2, 39, 64
3, 90728, Note_on_c, 2, 36, 127
3, 90972, Note_on_c, 2, 34, 107
3, 91056, Note_off_c, 2, 36, 64
3, 91244, Note_off_c, 2, 34, 64
3, 91360, Note_on_c, 2, 39, 83
3, 91528, Note_off_c, 2, 39, 64
3, 91604, Note_on_c, 2, 39, 103
3, 91760, Note_on_c, 2, 36, 118
3, 91768, Note_off_c, 2, 39, 64
3, 92080, Note_off_c, 2, 36, 64
3, 92160, Note_on_c, 2, 34, 127
3, 92640, Note_on_c, 2, 31, 127
3, 92648, Note_off_c, 2, 34, 64
3, 92796, Note_on_c, 2, 29, 77
3, 92996, Note_off_c, 2, 31, 64
3, 93036, Note_on_c, 2, 34, 127
3, 93056, Note_off_c, 2, 29, 64
3, 93196, Note_off_c, 2, 34, 64
3, 93372, Note_on_c, 2, 34, 101
3, 93516, Note_on_c, 2, 31, 104
3, 93588, Note_off_c, 2, 34, 64
3, 93764, Note_on_c, 2, 29, 86
3, 93900, Note_off_c, 2, 31, 64
3, 94052, Note_off_c, 2, 29, 64
3, 94080, Note_on_c, 2, 34, 118
3, 94280, Note_off_c, 2, 34, 64
3, 94380, Note_on_c, 2, 34, 118
3, 94528, Note_on_c, 2, 31, 118
3, 94548, Note_off_c, 2, 34, 64
3, 94804, Note_on_c, 2, 29, 118
3, 94844, Note_off_c, 2, 31, 64
3, 95268, Note_off_c, 2, 29, 64
3, 95328, Note_on_c, 2, 29, 118
3, 95496, Note_on_c, 2, 31, 118
3, 95512, Note_off_c, 2, 29, 64
3, 95784, Note_on_c, 2, 29, 118
3, 95796, Note_off_c, 2, 31, 64
3, 95956, Note_off_c, 2, 29, 64
3, 96000, Note_on_c, 2, 34, 127
3, 96480, Note_on_c, 2, 31, 127
3, 96488, Note_off_c, 2, 34, 64
3, 96636, Note_on_c, 2, 29, 77
3, 96836, Note_off_c, 2, 31, 64
3, 96876, Note_on_c, 2, 34, 127
3, 96896, Note_off_c, 2, 29, 64
3, 97036, Note_off_c, 2, 34, 64
3, 97212, Note_on_c, 2, 34, 101
3, 97356, Note_on_c, 2, 31, 104
3, 97428, Note_off_c, 2, 34, 64
3, 97604, Note_on_c, 2, 29, 86
3, 97740, Note_off_c, 2, 31, 64
3, 97892, Note_off_c, 2, 29, 64
3, 97924, Note_on_c, 2, 34, 127
3, 98408, Note_on_c, 2, 31, 127
3, 98460, Note_off_c, 2, 34, 64
3, 98652, Note_on_c, 2, 29, 107
3, 98796, Note_off_c, 2, 31, 64
3, 98884, Note_on_c, 2, 34, 127
3, 98916, Note_off_c, 2, 29, 64
3, 99032, Note_off_c, 2, 34, 64
3, 99136, Note_on_c, 2, 34, 106
3, 99388, Note_off_c, 2, 34, 64
3, 99524, Note_on_c, 2, 31, 80
3, 99760, Note_on_c, 2, 29, 92
3, 99840, Note_on_c, 2, 34, 127
3, 99920, Note_off_c, 2, 31, 64
3, 100136, Note_off_c, 2, 29, 64
3, 100320, Note_on_c, 2, 31, 127
3, 100328, Note_off_c, 2, 34, 64
3, 100476, Note_on_c, 2, 29, 77
3, 100676, Note_off_c, 2, 31, 64
3, 100716, Note_on_c, 2, 34, 127
3, 100736, Note_off_c, 2, 29, 64
3, 100876, Note_off_c, 2, 34, 64
3, 101052, Note_on_c, 2, 34, 101
3, 101196, Note_on_c, 2, 31, 104
3, 101268, Note_off_c, 2, 34, 64
3, 101444, Note_on_c, 2, 29, 86
3, 101580, Note_off_c, 2, 31, 64
3, 101732, Note_off_c, 2, 29, 64
3, 101764, Note_on_c, 2, 34, 127
3, 102248, Note_on_c, 2, 31, 127
3, 102300, Note_off_c, 2, 34, 64
3, 102492, Note_on_c, 2, 29, 107
3, 102636, Note_off_c, 2, 31, 64
3, 102724, Note_on_c, 2, 34, 127
3, 102756, Note_off_c, 2, 29, 64
3, 102872, Note_off_c, 2, 34, 64
3, 102976, Note_on_c, 2, 34, 106
3, 103228, Note_off_c, 2, 34, 64
3, 103364, Note_on_c, 2, 31, 80
3, 103600, Note_on_c, 2, 29, 92
3, 103680, Note_on_c, 2, 39, 127
3, 103760, Note_off_c, 2, 31, 64
3, 103976, Note_off_c, 2, 29, 64
3, 104020, Note_off_c, 2, 39, 64
3, 104160, Note_on_c, 2, 39, 127
3, 104256, Note_off_c, 2, 39, 64
3, 104404, Note_on_c, 2, 39, 99
3, 104492, Note_off_c, 2, 39, 64
3, 104644, Note_on_c, 2, 39, 127
3, 104816, Note_off_c, 2, 39, 64
3, 104892, Note_on_c, 2, 39, 101
3, 105440, Note_off_c, 2, 39, 64
3, 105604, Note_on_c, 2, 39, 127
3, 105956, Note_off_c, 2, 39, 64
3, 106088, Note_on_c, 2, 39, 127
3, 106168, Note_off_c, 2, 39, 64
3, 106332, Note_on_c, 2, 39, 107
3, 106400, Note_off_c, 2, 39, 64
3, 106564, Note_on_c, 2, 39, 127
3, 106764, Note_off_c, 2, 39, 64
3, 106896, Note_on_c, 2, 39, 118
3, 107312, Note_off_c, 2, 39, 64
3, 107520, Note_on_c, 2, 34, 127
3, 108000, Note_on_c, 2, 31, 127
3, 108008, Note_off_c, 2, 34, 64
3, 108156, Note_on_c, 2, 29, 77
3, 108356, Note_off_c, 2, 31, 64
3, 108396, Note_on_c, 2, 34, 127
3, 108416, Note_off_c, 2, 29, 64
3, 108556, Note_off_c, 2, 34, 64
3, 108732, Note_on_c, 2, 34, 101
3, 108876, Note_on_c, 2, 31, 104
3, 108948, Note_off_c, 2, 34, 64
3, 109124, Note_on_c, 2, 29, 86
3, 109260, Note_off_c, 2, 31, 64
3, 109412, Note_off_c, 2, 29, 64
3, 109440, Note_on_c, 2, 34, 118
3, 109852, Note_off_c, 2, 34, 64
3, 109920, Note_on_c, 2, 26, 118
3, 110292, Note_off_c, 2, 26, 64
3, 110400, Note_on_c, 2, 27, 118
3, 110796, Note_off_c, 2, 27, 64
3, 110880, Note_on_c, 2, 28, 118
3, 111120, Note_on_c, 2, 29, 118
3, 111220, Note_off_c, 2, 28, 64
3, 111360, Note_on_c, 2, 41, 127
3, 111372, Note_off_c, 2, 29, 64
3, 111720, Note_on_c, 2, 38, 87
3, 111856, Note_off_c, 2, 41, 64
3, 112084, Note_on_c, 2, 36, 99
3, 112100, Note_off_c, 2, 38, 64
3, 112236, Note_on_c, 2, 41, 127
3, 112300, Note_off_c, 2, 36, 64
3, 112392, Note_off_c, 2, 41, 64
3, 112572, Note_on_c, 2, 41, 101
3, 112676, Note_off_c, 2, 41, 64
3, 112716, Note_on_c, 2, 41, 104
3, 112716, Note_on_c, 2, 38, 104
3, 112848, Note_off_c, 2, 41, 64
3, 113044, Note_on_c, 2, 36, 102
3, 113116, Note_off_c, 2, 38, 64
3, 113236, Note_off_c, 2, 36, 64
3, 113284, Note_on_c, 2, 39, 127
3, 113764, Note_off_c, 2, 39, 64
3, 113768, Note_on_c, 2, 36, 127
3, 114012, Note_on_c, 2, 34, 107
3, 114096, Note_off_c, 2, 36, 64
3, 114284, Note_off_c, 2, 34, 64
3, 114400, Note_on_c, 2, 39, 83
3, 114568, Note_off_c, 2, 39, 64
3, 114644, Note_on_c, 2, 39, 103
3, 114800, Note_on_c, 2, 36, 118
3, 114808, Note_off_c, 2, 39, 64
3, 115120, Note_off_c, 2, 36, 64
3, 115200, Note_on_c, 2, 34, 127
3, 115680, Note_on_c, 2, 31, 127
3, 115688, Note_off_c, 2, 34, 64
3, 115836, Note_on_c, 2, 29, 77
3, 116036, Note_off_c, 2, 31, 64
3, 116076, Note_on_c, 2, 34, 127
3, 116096, Note_off_c, 2, 29, 64
3, 116236, Note_off_c, 2, 34, 64
3, 116412, Note_on_c, 2, 34, 101
3, 116556, Note_on_c, 2, 31, 104
3, 116628, Note_off_c, 2, 34, 64
3, 116804, Note_on_c, 2, 29, 86
3, 116940, Note_off_c, 2, 31, 64
3, 117092, Note_off_c, 2, 29, 64
3, 117120, Note_on_c, 2, 34, 118
3, 117320, Note_off_c, 2, 34, 64
3, 117420, Note_on_c, 2, 34, 118
3, 117568, Note_on_c, 2, 31, 118
3, 117588, Note_off_c, 2, 34, 64
3, 117844, Note_on_c, 2, 29, 118
3, 117884, Note_off_c, 2, 31, 64
3, 118308, Note_off_c, 2, 29, 64
3, 118368, Note_on_c, 2, 29, 118
3, 118536, Note_on_c, 2, 31, 118
3, 118552, Note_off_c, 2, 29, 64
3, 118824, Note_on_c, 2, 29, 118
3, 118836, Note_off_c, 2, 31, 64
3, 118996, Note_off_c, 2, 29, 64
3, 119040, Note_on_c, 2, 34, 127
3, 119520, Note_on_c, 2, 31, 127
3, 119528, Note_off_c, 2, 34, 64
3, 119676, Note_on_c, 2, 29, 77
3, 119876, Note_off_c, 2, 31, 64
3, 119916, Note_on_c, 2, 34, 127
3, 119936, Note_off_c, 2, 29, 64
3, 120076, Note_off_c, 2, 34, 64
3, 120252, Note_on_c, 2, 34, 101
3, 120396, Note_on_c, 2, 31, 104
3, 120468, Note_off_c, 2, 34, 64
3, 120644, Note_on_c, 2, 29, 86
3, 120780, Note_off_c, 2, 31, 64
3, 120932, Note_off_c, 2, 29, 64
3, 120964, Note_on_c, 2, 34, 127
3, 121448, Note_on_c, 2, 31, 127
3, 121500, Note_off_c, 2, 34, 64
3, 121692, Note_on_c, 2, 29, 107
3, 121836, Note_off_c, 2, 31, 64
3, 121924, Note_on_c, 2, 34, 127
3, 121956, Note_off_c, 2, 29, 64
3, 122072, Note_off_c, 2, 34, 64
3, 122176, Note_on_c, 2, 34, 106
3, 122428, Note_off_c, 2, 34, 64
3, 122564, Note_on_c, 2, 31, 80
3, 122800, Note_on_c, 2, 29, 92
3, 122880, Note_on_c, 2, 34, 127
3, 122960, Note_off_c, 2, 31, 64
3, 123176, Note_off_c, 2, 29, 64
3, 123360, Note_on_c, 2, 31, 127
3, 123368, Note_off_c, 2, 34, 64
3, 123516, Note_on_c, 2, 29, 77
3, 123716, Note_off_c, 2, 31, 64
3, 123756, Note_on_c, 2, 34, 127
3, 123776, Note_off_c, 2, 29, 64
3, 123916, Note_off_c, 2, 34, 64
3, 124092, Note_on_c, 2, 34, 101
3, 124236, Note_on_c, 2, 31, 104
3, 124308, Note_off_c, 2, 34, 64
3, 124484, Note_on_c, 2, 29, 86
3, 124620, Note_off_c, 2, 31, 64
3, 124772, Note_off_c, 2, 29, 64
3, 124804, Note_on_c, 2, 34, 127
3, 125288, Note_on_c, 2, 31, 127
3, 125340, Note_off_c, 2, 34, 64
3, 125532, Note_on_c, 2, 29, 107
3, 125676, Note_off_c, 2, 31, 64
3, 125764, Note_on_c, 2, 34, 127
3, 125796, Note_off_c, 2, 29, 64
3, 125912, Note_off_c, 2, 34, 64
3, 126016, Note_on_c, 2, 34, 106
3, 126268, Note_off_c, 2, 34, 64
3, 126404, Note_on_c, 2, 31, 80
3, 126640, Note_on_c, 2, 29, 92
3, 126720, Note_on_c, 2, 39, 127
3, 126800, Note_off_c, 2, 31, 64
3, 127016, Note_off_c, 2, 29, 64
3, 127060, Note_off_c, 2, 39, 64
3, 127200, Note_on_c, 2, 39, 127
3, 127296, Note_off_c, 2, 39, 64
3, 127444, Note_on_c, 2, 39, 99
3, 127532, Note_off_c, 2, 39, 64
3, 127684, Note_on_c, 2, 39, 127
3, 127856, Note_off_c, 2, 39, 64
3, 127932, Note_on_c, 2, 39, 101
3, 128480, Note_off_c, 2, 39, 64
3, 128644, Note_on_c, 2, 39, 127
3, 128996, Note_off_c, 2, 39, 64
3, 129128, Note_on_c, 2, 39, 127
3, 129208, Note_off_c, 2, 39, 64
3, 129372, Note_on_c, 2, 39, 107
3, 129440, Note_off_c, 2, 39, 64
3, 129604, Note_on_c, 2, 39, 127
3, 129804, Note_off_c, 2, 39, 64
3, 129936, Note_on_c, 2, 39, 118
3, 130352, Note_off_c, 2, 39, 64
3, 130560, Note_on_c, 2, 34, 127
3, 131040, Note_on_c, 2, 31, 127
3, 131048, Note_off_c, 2, 34, 64
3, 131196, Note_on_c, 2, 29, 77
3, 131396, Note_off_c, 2, 31, 64
3, 131436, Note_on_c, 2, 34, 127
3, 131456, Note_off_c, 2, 29, 64
3, 131596, Note_off_c, 2, 34, 64
3, 131772, Note_on_c, 2, 34, 101
3, 131916, Note_on_c, 2, 31, 104
3, 131988, Note_off_c, 2, 34, 64
3, 132164, Note_on_c, 2, 29, 86
3, 132300, Note_off_c, 2, 31, 64
3, 132452, Note_off_c, 2, 29, 64
3, 132480, Note_on_c, 2, 34, 118
3, 132892, Note_off_c, 2, 34, 64
3, 132960, Note_on_c, 2, 26, 118
3, 133332, Note_off_c, 2, 26, 64
3, 133440, Note_on_c, 2, 27, 118
3, 133836, Note_off_c, 2, 27, 64
3, 133920, Note_on_c, 2, 28, 118
3, 134160, Note_on_c, 2, 29, 118
3, 134260, Note_off_c, 2, 28, 64
3, 134400, Note_on_c, 2, 41, 127
3, 134412, Note_off_c, 2, 29, 64
3, 134760, Note_on_c, 2, 38, 87
3, 134896, Note_off_c, 2, 41, 64
3, 135124, Note_on_c, 2, 36, 99
3, 135140, Note_off_c, 2, 38, 64
3, 135276, Note_on_c, 2, 41, 127
3, 135340, Note_off_c, 2, 36, 64
3, 135432, Note_off_c, 2, 41, 64
3, 135612, Note_on_c, 2, 41, 101
3, 135716, Note_off_c, 2, 41, 64
3, 135756, Note_on_c, 2, 41, 104
3, 135756, Note_on_c, 2, 38, 104
3, 135888, Note_off_c, 2, 41, 64
3, 136084, Note_on_c, 2, 36, 102
3, 136156, Note_off_c, 2, 38, 64
3, 136276, Note_off_c, 2, 36, 64
3, 136324, Note_on_c, 2, 39, 127
3, 136804, Note_off_c, 2, 39, 64
3, 136808, Note_on_c, 2, 36, 127
3, 137052, Note_on_c, 2, 34, 107
3, 137136, Note_off_c, 2, 36, 64
3, 137324, Note_off_c, 2, 34, 64
3, 137440, Note_on_c, 2, 39, 83
3, 137608, Note_off_c, 2, 39, 64
3, 137684, Note_on_c, 2, 39, 103
3, 137840, Note_on_c, 2, 36, 118
3, 137848, Note_off_c, 2, 39, 64
3, 138160, Note_off_c, 2, 36, 64
3, 138240, Note_on_c, 2, 34, 127
3, 138720, Note_on_c, 2, 31, 127
3, 138728, Note_off_c, 2, 34, 64
3, 138876, Note_on_c, 2, 29, 77
3, 139076, Note_off_c, 2, 31, 64
3, 139116, Note_on_c, 2, 34, 127
3, 139136, Note_off_c, 2, 29, 64
3, 139276, Note_off_c, 2, 34, 64
3, 139452, Note_on_c, 2, 34, 101
3, 139596, Note_on_c, 2, 31, 104
3, 139668, Note_off_c, 2, 34, 64
3, 139844, Note_on_c, 2, 29, 86
3, 139980, Note_off_c, 2, 31, 64
3, 140132, Note_off_c, 2, 29, 64
3, 140160, Note_on_c, 2, 34, 118
3, 140360, Note_off_c, 2, 34, 64
3, 140460, Note_on_c, 2, 34, 118
3, 140608, Note_on_c, 2, 31, 118
3, 140628, Note_off_c, 2, 34, 64
3, 140884, Note_on_c, 2, 29, 118
3, 140924, Note_off_c, 2, 31, 64
3, 141348, Note_off_c, 2, 29, 64
3, 141408, Note_on_c, 2, 29, 118
3, 141576, Note_on_c, 2, 31, 118
3, 141592, Note_off_c, 2, 29, 64
3, 141864, Note_on_c, 2, 29, 118
3, 141876, Note_off_c, 2, 31, 64
3, 142036, Note_off_c, 2, 29, 64
3, 142080, Note_on_c, 2, 34, 127
3, 142560, Note_on_c, 2, 31, 127
3, 142568, Note_off_c, 2, 34, 64
3, 142716, Note_on_c, 2, 29, 77
3, 142916, Note_off_c, 2, 31, 64
3, 142956, Note_on_c, 2, 34, 127
3, 142976, Note_off_c, 2, 29, 64
3, 143116, Note_off_c, 2, 34, 64
3, 143292, Note_on_c, 2, 34, 101
3, 143436, Note_on_c, 2, 31, 104
3, 143508, Note_off_c, 2, 34, 64
3, 143684, Note_on_c, 2, 29, 86
3, 143820, Note_off_c, 2, 31, 64
3, 143972, Note_off_c, 2, 29, 64
3, 144004, Note_on_c, 2, 34, 127
3, 144488, Note_on_c, 2, 31, 127
3, 144540, Note_off_c, 2, 34, 64
3, 144732, Note_on_c, 2, 29, 107
3, 144876, Note_off_c, 2, 31, 64
3, 144964, Note_on_c, 2, 34, 127
3, 144996, Note_off_c, 2, 29, 64
3, 145112, Note_off_c, 2, 34, 64
3, 145216, Note_on_c, 2, 34, 106
3, 145468, Note_off_c, 2, 34, 64
3, 145604, Note_on_c, 2, 31, 80
3, 145840, Note_on_c, 2, 29, 92
3, 145920, Note_on_c, 2, 34, 127
3, 146000, Note_off_c, 2, 31, 64
3, 146216, Note_off_c, 2, 29, 64
3, 146400, Note_on_c, 2, 31, 127
3, 146408, Note_off_c, 2, 34, 64
3, 146556, Note_on_c, 2, 29, 77
3, 146756, Note_off_c, 2, 31, 64
3, 146796, Note_on_c, 2, 34, 127
3, 146816, Note_off_c, 2, 29, 64
3, 146956, Note_off_c, 2, 34, 64
3, 147132, Note_on_c, 2, 34, 101
3, 147276, Note_on_c, 2, 31, 104
3, 147348, Note_off_c, 2, 34, 64
3, 147524, Note_on_c, 2, 29, 86
3, 147660, Note_off_c, 2, 31, 64
3, 147812, Note_off_c, 2, 29, 64
3, 147844, Note_on_c, 2, 34, 127
3, 148328, Note_on_c, 2, 31, 127
3, 148380, Note_off_c, 2, 34, 64
3, 148572, Note_on_c, 2, 29, 107
3, 148716, Note_off_c, 2, 31, 64
3, 148804, Note_on_c, 2, 34, 127
3, 148836, Note_off_c, 2, 29, 64
3, 148952, Note_off_c, 2, 34, 64
3, 149056, Note_on_c, 2, 34, 106
3, 149308, Note_off_c, 2, 34, 64
3, 149444, Note_on_c, 2, 31, 80
3, 149680, Note_on_c, 2, 29, 92
3, 149760, Note_on_c, 2, 39, 127
3, 149840, Note_off_c, 2, 31, 64
3, 150056, Note_off_c, 2, 29, 64
3, 150100, Note_off_c, 2, 39, 64
3, 150240, Note_on_c, 2, 39, 127
3, 150336, Note_off_c, 2, 39, 64
3, 150484, Note_on_c, 2, 39, 99
3, 150572, Note_off_c, 2, 39, 64
3, 150724, Note_on_c, 2, 39, 127
3, 150896, Note_off_c, 2, 39, 64
3, 150972, Note_on_c, 2, 39, 101
3, 151520, Note_off_c, 2, 39, 64
3, 151684, Note_on_c, 2, 39, 127
3, 152036, Note_off_c, 2, 39, 64
3, 152168, Note_on_c, 2, 39, 127
3, 152248, Note_off_c, 2, 39, 64
3, 152412, Note_on_c, 2, 39, 107
3, 152480, Note_off_c, 2, 39, 64
3, 152644, Note_on_c, 2, 39, 127
3, 152844, Note_off_c, 2, 39, 64
3, 152976, Note_on_c, 2, 39, 118
3, 153392, Note_off_c, 2, 39, 64
3, 153600, Note_on_c, 2, 34, 127
3, 154080, Note_on_c, 2, 31, 127
3, 154088, Note_off_c, 2, 34, 64
3, 154236, Note_on_c, 2, 29, 77
3, 154436, Note_off_c, 2, 31, 64
3, 154476, Note_on_c, 2, 34, 127
3, 154496, Note_off_c, 2, 29, 64
3, 154636, Note_off_c, 2, 34, 64
3, 154812, Note_on_c, 2, 34, 101
3, 154956, Note_on_c, 2, 31, 104
3, 155028, Note_off_c, 2, 34, 64
3, 155204, Note_on_c, 2, 29, 86
3, 155340, Note_off_c, 2, 31, 64
3, 155492, Note_off_c, 2, 29, 64
3, 155520, Note_on_c, 2, 34, 118
3, 155932, Note_off_c, 2, 34, 64
3, 156000, Note_on_c, 2, 26, 118
3, 156372, Note_off_c, 2, 26, 64
3, 156480, Note_on_c, 2, 27, 118
3, 156876, Note_off_c, 2, 27, 64
3, 156960, Note_on_c, 2, 28, 118
3, 157200, Note_on_c, 2, 29, 118
3, 157300, Note_off_c, 2, 28, 64
3, 157440, Note_on_c, 2, 41, 127
3, 157452, Note_off_c, 2, 29, 64
3, 157800, Note_on_c, 2, 38, 87
3, 157936, Note_off_c, 2, 41, 64
3, 158164, Note_on_c, 2, 36, 99
3, 158180, Note_off_c, 2, 38, 64
3, 158316, Note_on_c, 2, 41, 127
3, 158380, Note_off_c, 2, 36, 64
3, 158472, Note_off_c, 2, 41, 64
3, 158652, Note_on_c, 2, 41, 101
3, 158756, Note_off_c, 2, 41, 64
3, 158796, Note_on_c, 2, 41, 104
3, 158796, Note_on_c, 2, 38, 104
3, 158928, Note_off_c, 2, 41, 64
3, 159124, Note_on_c, 2, 36, 102
3, 159196, Note_off_c, 2, 38, 64
3, 159316, Note_off_c, 2, 36, 64
3, 159364, Note_on_c, 2, 39, 127
3, 159844, Note_off_c, 2, 39, 64
3, 159848, Note_on_c, 2, 36, 127
3, 160092, Note_on_c, 2, 34, 107
3, 160176, Note_off_c, 2, 36, 64
3, 160364, Note_off_c, 2, 34, 64
3, 160480, Note_on_c, 2, 39, 83
3, 160648, Note_off_c, 2, 39, 64
3, 160724, Note_on_c, 2, 39, 103
3, 160880, Note_on_c, 2, 36, 118
3, 160888, Note_off_c, 2, 39, 64
3, 161200, Note_off_c, 2, 36, 64
3, 161280, Note_on_c, 2, 34, 127
3, 161760, Note_on_c, 2, 31, 127
3, 161768, Note_off_c, 2, 34, 64
3, 161916, Note_on_c, 2, 29, 77
3, 162116, Note_off_c, 2, 31, 64
3, 162156, Note_on_c, 2, 34, 127
3, 162176, Note_off_c, 2, 29, 64
3, 162316, Note_off_c, 2, 34, 64
3, 162492, Note_on_c, 2, 34, 101
3, 162636, Note_on_c, 2, 31, 104
3, 162708, Note_off_c, 2, 34, 64
3, 162884, Note_on_c, 2, 29, 86
3, 163020, Note_off_c, 2, 31, 64
3, 163172, Note_off_c, 2, 29, 64
3, 163200, Note_on_c, 2, 34, 118
3, 163400, Note_off_c, 2, 34, 64
3, 163500, Note_on_c, 2, 34, 118
3, 163648, Note_on_c, 2, 31, 118
3, 163668, Note_off_c, 2, 34, 64
3, 163924, Note_on_c, 2, 29, 118
3, 163964, Note_off_c, 2, 31, 64
3, 164388, Note_off_c, 2, 29, 64
3, 164448, Note_on_c, 2, 29, 118
3, 164616, Note_on_c, 2, 31, 118
3, 164632, Note_off_c, 2, 29, 64
3, 164904, Note_on_c, 2, 29, 118
3, 164916, Note_off_c, 2, 31, 64
3, 165076, Note_off_c, 2, 29, 64
3, 165120, Note_on_c, 2, 39, 127
3, 165460, Note_off_c, 2, 39, 64
3, 165600, Note_on_c, 2, 39, 127
3, 165696, Note_off_c, 2, 39, 64
3, 165844, Note_on_c, 2, 39, 99
3, 165932, Note_off_c, 2, 39, 64
3, 166084, Note_on_c, 2, 39, 127
3, 166256, Note_off_c, 2, 39, 64
3, 166332, Note_on_c, 2, 39, 101
3, 166880, Note_off_c, 2, 39, 64
3, 167044, Note_on_c, 2, 39, 127
3, 167396, Note_off_c, 2, 39, 64
3, 167528, Note_on_c, 2, 39, 127
3, 167608, Note_off_c, 2, 39, 64
3, 167772, Note_on_c, 2, 39, 107
3, 167840, Note_off_c, 2, 39, 64
3, 168004, Note_on_c, 2, 39, 127
3, 168204, Note_off_c, 2, 39, 64
3, 168336, Note_on_c, 2, 39, 118
3, 168752, Note_off_c, 2, 39, 64
3, 168960, Note_on_c, 2, 34, 127
3, 169440, Note_on_c, 2, 31, 127
3, 169448, Note_off_c, 2, 34, 64
3, 169596, Note_on_c, 2, 29, 77
3, 169796, Note_off_c, 2, 31, 64
3, 169836, Note_on_c, 2, 34, 127
3, 169856, Note_off_c, 2, 29, 64
3, 169996, Note_off_c, 2, 34, 64
3, 170172, Note_on_c, 2, 34, 101
3, 170316, Note_on_c, 2, 31, 104
3, 170388, Note_off_c, 2, 34, 64
3, 170564, Note_on_c, 2, 29, 86
3, 170700, Note_off_c, 2, 31, 64
3, 170852, Note_off_c, 2, 29, 64
3, 170884, Note_on_c, 2, 34, 127
3, 171368, Note_on_c, 2, 31, 127
3, 171420, Note_off_c, 2, 34, 64
3, 171612, Note_on_c, 2, 29, 107
3, 171756, Note_off_c, 2, 31, 64
3, 171844, Note_on_c, 2, 34, 127
3, 171876, Note_off_c, 2, 29, 64
3, 171992, Note_off_c, 2, 34, 64
3, 172096, Note_on_c, 2, 34, 106
3, 172348, Note_off_c, 2, 34, 64
3, 172484, Note_on_c, 2, 31, 80
3, 172720, Note_on_c, 2, 29, 92
3, 172800, Note_on_c, 2, 41, 127
3, 172880, Note_off_c, 2, 31, 64
3, 173096, Note_off_c, 2, 29, 64
3, 173160, Note_on_c, 2, 38, 87
3, 173296, Note_off_c, 2, 41, 64
3, 173524, Note_on_c, 2, 36, 99
3, 173540, Note_off_c, 2, 38, 64
3, 173676, Note_on_c, 2, 41, 127
3, 173740, Note_off_c, 2, 36, 64
3, 173832, Note_off_c, 2, 41, 64
3, 174012, Note_on_c, 2, 41, 101
3, 174116, Note_off_c, 2, 41, 64
3, 174156, Note_on_c, 2, 41, 104
3, 174156, Note_on_c, 2, 38, 104
3, 174288, Note_off_c, 2, 41, 64
3, 174484, Note_on_c, 2, 36, 102
3, 174556, Note_off_c, 2, 38, 64
3, 174676, Note_off_c, 2, 36, 64
3, 174724, Note_on_c, 2, 39, 127
3, 175204, Note_off_c, 2, 39, 64
3, 175208, Note_on_c, 2, 36, 127
3, 175452, Note_on_c, 2, 34, 107
3, 175536, Note_off_c, 2, 36, 64
3, 175724, Note_off_c, 2, 34, 64
3, 175840, Note_on_c, 2, 39, 83
3, 176008, Note_off_c, 2, 39, 64
3, 176084, Note_on_c, 2, 39, 103
3, 176240, Note_on_c, 2, 36, 118
3, 176248, Note_off_c, 2, 39, 64
3, 176560, Note_off_c, 2, 36, 64
3, 176640, Note_on_c, 2, 34, 127
3, 177120, Note_on_c, 2, 31, 127
3, 177128, Note_off_c, 2, 34, 64
3, 177276, Note_on_c, 2, 29, 77
3, 177476, Note_off_c, 2, 31, 64
3, 177516, Note_on_c, 2, 34, 127
3, 177536, Note_off_c, 2, 29, 64
3, 177676, Note_off_c, 2, 34, 64
3, 177852, Note_on_c, 2, 34, 101
3, 177996, Note_on_c, 2, 31, 104
3, 178068, Note_off_c, 2, 34, 64
3, 178244, Note_on_c, 2, 29, 86
3, 178380, Note_off_c, 2, 31, 64
3, 178532, Note_off_c, 2, 29, 64
3, 178564, Note_on_c, 2, 34, 127
3, 179048, Note_on_c, 2, 31, 127
3, 179100, Note_off_c, 2, 34, 64
3, 179292, Note_on_c, 2, 29, 107
3, 179436, Note_off_c, 2, 31, 64
3, 179524, Note_on_c, 2, 34, 127
3, 179556, Note_off_c, 2, 29, 64
3, 179672, Note_off_c, 2, 34, 64
3, 179776, Note_on_c, 2, 34, 106
3, 180028, Note_off_c, 2, 34, 64
3, 180164, Note_on_c, 2, 31, 80
3, 180400, Note_on_c, 2, 29, 92
3, 180480, Note_on_c, 2, 39, 127
3, 180560, Note_off_c, 2, 31, 64
3, 180776, Note_off_c, 2, 29, 64
3, 180820, Note_off_c, 2, 39, 64
3, 180960, Note_on_c, 2, 39, 127
3, 181056, Note_off_c, 2, 39, 64
3, 181204, Note_on_c, 2, 39, 99
3, 181292, Note_off_c, 2, 39, 64
3, 181444, Note_on_c, 2, 39, 127
3, 181616, Note_off_c, 2, 39, 64
3, 181692, Note_on_c, 2, 39, 101
3, 182240, Note_off_c, 2, 39, 64
3, 182404, Note_on_c, 2, 39, 127
3, 182756, Note_off_c, 2, 39, 64
3, 182888, Note_on_c, 2, 39, 127
3, 182968, Note_off_c, 2, 39, 64
3, 183132, Note_on_c, 2, 39, 107
3, 183200, Note_off_c, 2, 39, 64
3, 183364, Note_on_c, 2, 39, 127
3, 183564, Note_off_c, 2, 39, 64
3, 183696, Note_on_c, 2, 39, 118
3, 184112, Note_off_c, 2, 39, 64
3, 184320, Note_on_c, 2, 34, 127
3, 184800, Note_on_c, 2, 31, 127
3, 184808, Note_off_c, 2, 34, 64
3, 184956, Note_on_c, 2, 29, 77
3, 185156, Note_off_c, 2, 31, 64
3, 185196, Note_on_c, 2, 34, 127
3, 185216, Note_off_c, 2, 29, 64
3, 185356, Note_off_c, 2, 34, 64
3, 185532, Note_on_c, 2, 34, 101
3, 185676, Note_on_c, 2, 31, 104
3, 185748, Note_off_c, 2, 34, 64
3, 185924, Note_on_c, 2, 29, 86
3, 186060, Note_off_c, 2, 31, 64
3, 186212, Note_off_c, 2, 29, 64
3, 186240, Note_on_c, 2, 34, 118
3, 186652, Note_off_c, 2, 34, 64
3, 186720, Note_on_c, 2, 26, 118
3, 187092, Note_off_c, 2, 26, 64
3, 187200, Note_on_c, 2, 27, 118
3, 187596, Note_off_c, 2, 27, 64
3, 187680, Note_on_c, 2, 28, 118
3, 187920, Note_on_c, 2, 29, 118
3, 188020, Note_off_c, 2, 28, 64
3, 188160, Note_on_c, 2, 41, 127
3, 188172, Note_off_c, 2, 29, 64
3, 188520, Note_on_c, 2, 38, 87
3, 188656, Note_off_c, 2, 41, 64
3, 188884, Note_on_c, 2, 36, 99
3, 188900, Note_off_c, 2, 38, 64
3, 189036, Note_on_c, 2, 41, 127
3, 189100, Note_off_c, 2, 36, 64
3, 189192, Note_off_c, 2, 41, 64
3, 189372, Note_on_c, 2, 41, 101
3, 189476, Note_off_c, 2, 41, 64
3, 189516, Note_on_c, 2, 41, 104
3, 189516, Note_on_c, 2, 38, 104
3, 189648, Note_off_c, 2, 41, 64
3, 189844, Note_on_c, 2, 36, 102
3, 189916, Note_off_c, 2, 38, 64
3, 190036, Note_off_c, 2, 36, 64
3, 190084, Note_on_c, 2, 39, 127
3, 190564, Note_off_c, 2, 39, 64
3, 190568, Note_on_c, 2, 36, 127
3, 190812, Note_on_c, 2, 34, 107
3, 190896, Note_off_c, 2, 36, 64
3, 191084, Note_off_c, 2, 34, 64
3, 191200, Note_on_c, 2, 39, 83
3, 191368, Note_off_c, 2, 39, 64
3, 191444, Note_on_c, 2, 39, 103
3, 191600, Note_on_c, 2, 36, 118
3, 191608, Note_off_c, 2, 39, 64
3, 191920, Note_off_c, 2, 36, 64
3, 192000, Note_on_c, 2, 34, 127
3, 193920, Note_off_c, 2, 34, 64
3, 193920, End_track
4, 0, Start_track
4, 0, Title_t, "Drums"
4, 0, MIDI_port, 0
4, 0, Channel_prefix, 9
4, 0, Control_c, 9, 10, 64
4, 0, Control_c, 9, 121, 0
4, 17, Control_c, 9, 91, 90
4, 17, Control_c, 9, 93, 75
4, 21, Control_c, 9, 11, 127
4, 24960, Note_on_c, 9, 38, 40
4, 24960, Note_on_c, 9, 54, 57
4, 24961, Note_off_c, 9, 38, 64
4, 24980, Note_off_c, 9, 54, 64
4, 24980, Note_on_c, 9, 36, 76
4, 24981, Note_off_c, 9, 36, 64
4, 25280, Note_on_c, 9, 38, 41
4, 25281, Note_off_c, 9, 38, 64
4, 25300, Note_on_c, 9, 54, 69
4, 25320, Note_off_c, 9, 54, 64
4, 25440, Note_on_c, 9, 40, 99
4, 25440, Note_on_c, 9, 54, 112
4, 25441, Note_off_c, 9, 40, 64
4, 25460, Note_off_c, 9, 54, 64
4, 25600, Note_on_c, 9, 40, 41
4, 25601, Note_off_c, 9, 40, 64
4, 25760, Note_on_c, 9, 38, 36
4, 25761, Note_off_c, 9, 38, 64
4, 25780, Note_on_c, 9, 54, 30
4, 25780, Note_on_c, 9, 36, 76
4, 25800, Note_off_c, 9, 36, 64
4, 25800, Note_off_c, 9, 54, 64
4, 25920, Note_on_c, 9, 38, 68
4, 25920, Note_on_c, 9, 54, 48
4, 25921, Note_off_c, 9, 38, 64
4, 25940, Note_off_c, 9, 54, 64
4, 26080, Note_on_c, 9, 40, 27
4, 26081, Note_off_c, 9, 40, 64
4, 26240, Note_on_c, 9, 38, 91
4, 26241, Note_off_c, 9, 38, 64
4, 26260, Note_on_c, 9, 54, 49
4, 26260, Note_on_c, 9, 36, 70
4, 26261, Note_off_c, 9, 54, 64
4, 26280, Note_off_c, 9, 36, 64
4, 26400, Note_on_c, 9, 40, 99
4, 26400, Note_on_c, 9, 54, 108
4, 26401, Note_off_c, 9, 40, 64
4, 26420, Note_off_c, 9, 54, 64
4, 26720, Note_on_c, 9, 38, 36
4, 26721, Note_off_c, 9, 38, 64
4, 26740, Note_on_c, 9, 54, 26
4, 26740, Note_on_c, 9, 57, 114
4, 26740, Note_on_c, 9, 36, 55
4, 26741, Note_off_c, 9, 54, 64
4, 26760, Note_off_c, 9, 57, 64
4, 26760, Note_off_c, 9, 36, 64
4, 26880, Note_on_c, 9, 38, 37
4, 26880, Note_on_c, 9, 54, 44
4, 26881, Note_off_c, 9, 38, 64
4, 26900, Note_off_c, 9, 54, 64
4, 26900, Note_on_c, 9, 36, 89
4, 26901, Note_off_c, 9, 36, 64
4, 27200, Note_on_c, 9, 38, 19
4, 27201, Note_off_c, 9, 38, 64
4, 27220, Note_on_c, 9, 54, 50
4, 27240, Note_off_c, 9, 54, 64
4, 27360, Note_on_c, 9, 40, 99
4, 27360, Note_on_c, 9, 54, 105
4, 27361, Note_off_c, 9, 54, 64
4, 27361, Note_off_c, 9, 40, 64
4, 27680, Note_on_c, 9, 38, 17
4, 27681, Note_off_c, 9, 38, 64
4, 27700, Note_on_c, 9, 36, 83
4, 27700, Note_on_c, 9, 54, 26
4, 27701, Note_off_c, 9, 36, 64
4, 27720, Note_off_c, 9, 54, 64
4, 27840, Note_on_c, 9, 38, 27
4, 27840, Note_on_c, 9, 54, 44
4, 27841, Note_off_c, 9, 54, 64
4, 27841, Note_off_c, 9, 38, 64
4, 28160, Note_on_c, 9, 38, 35
4, 28161, Note_off_c, 9, 38, 64
4, 28180, Note_on_c, 9, 54, 58
4, 28180, Note_on_c, 9, 36, 74
4, 28181, Note_off_c, 9, 54, 64
4, 28200, Note_off_c, 9, 36, 64
4, 28320, Note_on_c, 9, 40, 99
4, 28320, Note_on_c, 9, 54, 110
4, 28321, Note_off_c, 9, 40, 64
4, 28340, Note_off_c, 9, 54, 64
4, 28640, Note_on_c, 9, 38, 9
4, 28641, Note_off_c, 9, 38, 64
4, 28660, Note_on_c, 9, 54, 30
4, 28660, Note_on_c, 9, 36, 46
4, 28661, Note_off_c, 9, 54, 64
4, 28680, Note_off_c, 9, 36, 64
4, 28800, Note_on_c, 9, 38, 40
4, 28800, Note_on_c, 9, 54, 44
4, 28801, Note_off_c, 9, 38, 64
4, 28820, Note_off_c, 9, 54, 64
4, 28820, Note_on_c, 9, 36, 76
4, 28821, Note_off_c, 9, 36, 64
4, 29120, Note_on_c, 9, 38, 22
4, 29121, Note_off_c, 9, 38, 64
4, 29140, Note_on_c, 9, 54, 69
4, 29160, Note_off_c, 9, 54, 64
4, 29280, Note_on_c, 9, 40, 99
4, 29280, Note_on_c, 9, 54, 112
4, 29281, Note_off_c, 9, 40, 64
4, 29300, Note_off_c, 9, 54, 64
4, 29600, Note_on_c, 9, 38, 15
4, 29601, Note_off_c, 9, 38, 64
4, 29620, Note_on_c, 9, 54, 26
4, 29620, Note_on_c, 9, 36, 76
4, 29640, Note_off_c, 9, 36, 64
4, 29640, Note_off_c, 9, 54, 64
4, 29760, Note_on_c, 9, 38, 31
4, 29760, Note_on_c, 9, 54, 52
4, 29761, Note_off_c, 9, 38, 64
4, 29780, Note_off_c, 9, 54, 64
4, 30080, Note_on_c, 9, 38, 19
4, 30081, Note_off_c, 9, 38, 64
4, 30100, Note_on_c, 9, 54, 49
4, 30100, Note_on_c, 9, 36, 70
4, 30101, Note_off_c, 9, 54, 64
4, 30120, Note_off_c, 9, 36, 64
4, 30240, Note_on_c, 9, 40, 99
4, 30240, Note_on_c, 9, 54, 108
4, 30241, Note_off_c, 9, 40, 64
4, 30260, Note_off_c, 9, 54, 64
4, 30560, Note_on_c, 9, 38, 12
4, 30561, Note_off_c, 9, 38, 64
4, 30580, Note_on_c, 9, 54, 30
4, 30580, Note_on_c, 9, 36, 55
4, 30581, Note_off_c, 9, 54, 64
4, 30600, Note_off_c, 9, 36, 64
4, 30720, Note_on_c, 9, 38, 34
4, 30720, Note_on_c, 9, 36, 80
4, 30720, Note_on_c, 9, 54, 48
4, 30721, Note_off_c, 9, 38, 64
4, 30740, Note_off_c, 9, 36, 64
4, 30740, Note_off_c, 9, 54, 64
4, 31040, Note_on_c, 9, 38, 22
4, 31041, Note_off_c, 9, 38, 64
4, 31060, Note_on_c, 9, 54, 69
4, 31061, Note_off_c, 9, 54, 64
4, 31200, Note_on_c, 9, 40, 99
4, 31200, Note_on_c, 9, 54, 111
4, 31201, Note_off_c, 9, 40, 64
4, 31220, Note_off_c, 9, 54, 64
4, 31520, Note_on_c, 9, 38, 15
4, 31521, Note_off_c, 9, 38, 64
4, 31540, Note_on_c, 9, 54, 35
4, 31540, Note_on_c, 9, 36, 76
4, 31541, Note_off_c, 9, 54, 64
4, 31560, Note_off_c, 9, 36, 64
4, 31680, Note_on_c, 9, 38, 40
4, 31680, Note_on_c, 9, 54, 48
4, 31681, Note_off_c, 9, 38, 64
4, 31700, Note_off_c, 9, 54, 64
4, 32000, Note_on_c, 9, 40, 32
4, 32001, Note_off_c, 9, 40, 64
4, 32020, Note_on_c, 9, 36, 73
4, 32020, Note_on_c, 9, 54, 73
4, 32021, Note_off_c, 9, 54, 64
4, 32021, Note_off_c, 9, 36, 64
4, 32160, Note_on_c, 9, 40, 99
4, 32160, Note_on_c, 9, 54, 112
4, 32161, Note_off_c, 9, 40, 64
4, 32180, Note_off_c, 9, 54, 64
4, 32480, Note_on_c, 9, 38, 19
4, 32481, Note_off_c, 9, 38, 64
4, 32500, Note_on_c, 9, 36, 52
4, 32500, Note_on_c, 9, 54, 30
4, 32501, Note_off_c, 9, 36, 64
4, 32520, Note_off_c, 9, 54, 64
4, 32640, Note_on_c, 9, 38, 37
4, 32640, Note_on_c, 9, 54, 48
4, 32640, Note_on_c, 9, 36, 83
4, 32641, Note_off_c, 9, 38, 64
4, 32660, Note_off_c, 9, 54, 64
4, 32660, Note_off_c, 9, 36, 64
4, 32960, Note_on_c, 9, 40, 29
4, 32961, Note_off_c, 9, 40, 64
4, 32980, Note_on_c, 9, 54, 73
4, 33000, Note_off_c, 9, 54, 64
4, 33120, Note_on_c, 9, 40, 99
4, 33120, Note_on_c, 9, 54, 115
4, 33121, Note_off_c, 9, 40, 64
4, 33140, Note_off_c, 9, 54, 64
4, 33440, Note_on_c, 9, 38, 15
4, 33441, Note_off_c, 9, 38, 64
4, 33460, Note_on_c, 9, 54, 30
4, 33460, Note_on_c, 9, 36, 85
4, 33461, Note_off_c, 9, 36, 64
4, 33461, Note_off_c, 9, 54, 64
4, 33600, Note_on_c, 9, 38, 25
4, 33600, Note_on_c, 9, 54, 39
4, 33601, Note_off_c, 9, 54, 64
4, 33601, Note_off_c, 9, 38, 64
4, 33920, Note_on_c, 9, 38, 15
4, 33921, Note_off_c, 9, 38, 64
4, 33940, Note_on_c, 9, 36, 76
4, 33940, Note_on_c, 9, 54, 54
4, 33941, Note_off_c, 9, 54, 64
4, 33941, Note_off_c, 9, 36, 64
4, 34080, Note_on_c, 9, 40, 99
4, 34080, Note_on_c, 9, 54, 111
4, 34081, Note_off_c, 9, 54, 64
4, 34081, Note_off_c, 9, 40, 64
4, 34400, Note_on_c, 9, 38, 19
4, 34401, Note_off_c, 9, 38, 64
4, 34420, Note_on_c, 9, 54, 35
4, 34420, Note_on_c, 9, 36, 82
4, 34440, Note_off_c, 9, 36, 64
4, 34440, Note_off_c, 9, 54, 64
4, 34560, Note_on_c, 9, 38, 37
4, 34560, Note_on_c, 9, 54, 44
4, 34561, Note_off_c, 9, 38, 64
4, 34580, Note_off_c, 9, 54, 64
4, 34580, Note_on_c, 9, 36, 89
4, 34581, Note_off_c, 9, 36, 64
4, 34880, Note_on_c, 9, 38, 19
4, 34881, Note_off_c, 9, 38, 64
4, 34900, Note_on_c, 9, 54, 50
4, 34920, Note_off_c, 9, 54, 64
4, 35040, Note_on_c, 9, 40, 99
4, 35040, Note_on_c, 9, 54, 105
4, 35041, Note_off_c, 9, 54, 64
4, 35041, Note_off_c, 9, 40, 64
4, 35360, Note_on_c, 9, 38, 17
4, 35361, Note_off_c, 9, 38, 64
4, 35380, Note_on_c, 9, 36, 83
4, 35380, Note_on_c, 9, 54, 26
4, 35381, Note_off_c, 9, 36, 64
4, 35400, Note_off_c, 9, 54, 64
4, 35520, Note_on_c, 9, 38, 27
4, 35520, Note_on_c, 9, 54, 44
4, 35521, Note_off_c, 9, 54, 64
4, 35521, Note_off_c, 9, 38, 64
4, 35840, Note_on_c, 9, 38, 35
4, 35841, Note_off_c, 9, 38, 64
4, 35860, Note_on_c, 9, 54, 58
4, 35860, Note_on_c, 9, 36, 74
4, 35861, Note_off_c, 9, 54, 64
4, 35880, Note_off_c, 9, 36, 64
4, 36000, Note_on_c, 9, 40, 99
4, 36000, Note_on_c, 9, 54, 110
4, 36001, Note_off_c, 9, 40, 64
4, 36020, Note_off_c, 9, 54, 64
4, 36320, Note_on_c, 9, 38, 9
4, 36321, Note_off_c, 9, 38, 64
4, 36340, Note_on_c, 9, 54, 30
4, 36340, Note_on_c, 9, 36, 46
4, 36341, Note_off_c, 9, 54, 64
4, 36360, Note_off_c, 9, 36, 64
4, 36480, Note_on_c, 9, 38, 40
4, 36480, Note_on_c, 9, 54, 44
4, 36481, Note_off_c, 9, 38, 64
4, 36500, Note_off_c, 9, 54, 64
4, 36500, Note_on_c, 9, 36, 76
4, 36501, Note_off_c, 9, 36, 64
4, 36800, Note_on_c, 9, 38, 22
4, 36801, Note_off_c, 9, 38, 64
4, 36820, Note_on_c, 9, 54, 69
4, 36840, Note_off_c, 9, 54, 64
4, 36960, Note_on_c, 9, 40, 99
4, 36960, Note_on_c, 9, 54, 112
4, 36961, Note_off_c, 9, 40, 64
4, 36980, Note_off_c, 9, 54, 64
4, 37280, Note_on_c, 9, 38, 15
4, 37281, Note_off_c, 9, 38, 64
4, 37300, Note_on_c, 9, 54, 26
4, 37300, Note_on_c, 9, 36, 76
4, 37320, Note_off_c, 9, 36, 64
4, 37320, Note_off_c, 9, 54, 64
4, 37440, Note_on_c, 9, 38, 31
4, 37440, Note_on_c, 9, 54, 52
4, 37441, Note_off_c, 9, 38, 64
4, 37460, Note_off_c, 9, 54, 64
4, 37760, Note_on_c, 9, 38, 19
4, 37761, Note_off_c, 9, 38, 64
4, 37780, Note_on_c, 9, 54, 49
4, 37780, Note_on_c, 9, 36, 70
4, 37781, Note_off_c, 9, 54, 64
4, 37800, Note_off_c, 9, 36, 64
4, 37920, Note_on_c, 9, 40, 99
4, 37920, Note_on_c, 9, 54, 108
4, 37921, Note_off_c, 9, 40, 64
4, 37940, Note_off_c, 9, 54, 64
4, 38240, Note_on_c, 9, 38, 12
4, 38241, Note_off_c, 9, 38, 64
4, 38260, Note_on_c, 9, 54, 30
4, 38260, Note_on_c, 9, 36, 55
4, 38261, Note_off_c, 9, 54, 64
4, 38280, Note_off_c, 9, 36, 64
4, 38400, Note_on_c, 9, 38, 34
4, 38400, Note_on_c, 9, 36, 80
4, 38400, Note_on_c, 9, 54, 48
4, 38401, Note_off_c, 9, 38, 64
4, 38420, Note_off_c, 9, 36, 64
4, 38420, Note_off_c, 9, 54, 64
4, 38720, Note_on_c, 9, 38, 22
4, 38721, Note_off_c, 9, 38, 64
4, 38740, Note_on_c, 9, 54, 69
4, 38741, Note_off_c, 9, 54, 64
4, 38880, Note_on_c, 9, 40, 99
4, 38880, Note_on_c, 9, 54, 111
4, 38881, Note_off_c, 9, 40, 64
4, 38900, Note_off_c, 9, 54, 64
4, 39200, Note_on_c, 9, 38, 15
4, 39201, Note_off_c, 9, 38, 64
4, 39220, Note_on_c, 9, 54, 35
4, 39220, Note_on_c, 9, 36, 76
4, 39221, Note_off_c, 9, 54, 64
4, 39240, Note_off_c, 9, 36, 64
4, 39360, Note_on_c, 9, 38, 40
4, 39360, Note_on_c, 9, 54, 48
4, 39361, Note_off_c, 9, 38, 64
4, 39380, Note_off_c, 9, 54, 64
4, 39680, Note_on_c, 9, 40, 32
4, 39681, Note_off_c, 9, 40, 64
4, 39700, Note_on_c, 9, 36, 73
4, 39700, Note_on_c, 9, 54, 73
4, 39701, Note_off_c, 9, 54, 64
4, 39701, Note_off_c, 9, 36, 64
4, 39840, Note_on_c, 9, 40, 99
4, 39840, Note_on_c, 9, 54, 112
4, 39841, Note_off_c, 9, 40, 64
4, 39860, Note_off_c, 9, 54, 64
4, 40160, Note_on_c, 9, 38, 19
4, 40161, Note_off_c, 9, 38, 64
4, 40180, Note_on_c, 9, 36, 52
4, 40180, Note_on_c, 9, 54, 30
4, 40181, Note_off_c, 9, 36, 64
4, 40200, Note_off_c, 9, 54, 64
4, 40320, Note_on_c, 9, 38, 37
4, 40320, Note_on_c, 9, 54, 48
4, 40320, Note_on_c, 9, 36, 83
4, 40321, Note_off_c, 9, 38, 64
4, 40340, Note_off_c, 9, 54, 64
4, 40340, Note_off_c, 9, 36, 64
4, 40640, Note_on_c, 9, 40, 29
4, 40641, Note_off_c, 9, 40, 64
4, 40660, Note_on_c, 9, 54, 73
4, 40680, Note_off_c, 9, 54, 64
4, 40800, Note_on_c, 9, 40, 99
4, 40800, Note_on_c, 9, 54, 115
4, 40801, Note_off_c, 9, 40, 64
4, 40820, Note_off_c, 9, 54, 64
4, 41120, Note_on_c, 9, 38, 15
4, 41121, Note_off_c, 9, 38, 64
4, 41140, Note_on_c, 9, 54, 30
4, 41140, Note_on_c, 9, 36, 85
4, 41141, Note_off_c, 9, 36, 64
4, 41141, Note_off_c, 9, 54, 64
4, 41280, Note_on_c, 9, 38, 25
4, 41280, Note_on_c, 9, 54, 39
4, 41281, Note_off_c, 9, 54, 64
4, 41281, Note_off_c, 9, 38, 64
4, 41600, Note_on_c, 9, 38, 15
4, 41601, Note_off_c, 9, 38, 64
4, 41620, Note_on_c, 9, 36, 76
4, 41620, Note_on_c, 9, 54, 54
4, 41621, Note_off_c, 9, 54, 64
4, 41621, Note_off_c, 9, 36, 64
4, 41760, Note_on_c, 9, 40, 99
4, 41760, Note_on_c, 9, 54, 111
4, 41761, Note_off_c, 9, 54, 64
4, 41761, Note_off_c, 9, 40, 64
4, 42080, Note_on_c, 9, 38, 19
4, 42081, Note_off_c, 9, 38, 64
4, 42100, Note_on_c, 9, 54, 35
4, 42100, Note_on_c, 9, 36, 82
4, 42120, Note_off_c, 9, 36, 64
4, 42120, Note_off_c, 9, 54, 64
4, 42240, Note_on_c, 9, 38, 37
4, 42240, Note_on_c, 9, 54, 44
4, 42241, Note_off_c, 9, 38, 64
4, 42260, Note_off_c, 9, 54, 64
4, 42260, Note_on_c, 9, 36, 89
4, 42261, Note_off_c, 9, 36, 64
4, 42560, Note_on_c, 9, 38, 19
4, 42561, Note_off_c, 9, 38, 64
4, 42580, Note_on_c, 9, 54, 50
4, 42600, Note_off_c, 9, 54, 64
4, 42720, Note_on_c, 9, 40, 99
4, 42720, Note_on_c, 9, 54, 105
4, 42721, Note_off_c, 9, 54, 64
4, 42721, Note_off_c, 9, 40, 64
4, 43040, Note_on_c, 9, 38, 17
4, 43041, Note_off_c, 9, 38, 64
4, 43060, Note_on_c, 9, 36, 83
4, 43060, Note_on_c, 9, 54, 26
4, 43061, Note_off_c, 9, 36, 64
4, 43080, Note_off_c, 9, 54, 64
4, 43200, Note_on_c, 9, 38, 27
4, 43200, Note_on_c, 9, 54, 44
4, 43201, Note_off_c, 9, 54, 64
4, 43201, Note_off_c, 9, 38, 64
4, 43520, Note_on_c, 9, 38, 35
4, 43521, Note_off_c, 9, 38, 64
4, 43540, Note_on_c, 9, 54, 58
4, 43540, Note_on_c, 9, 36, 74
4, 43541, Note_off_c, 9, 54, 64
4, 43560, Note_off_c, 9, 36, 64
4, 43680, Note_on_c, 9, 40, 99
4, 43680, Note_on_c, 9, 54, 110
4, 43681, Note_off_c, 9, 40, 64
4, 43700, Note_off_c, 9, 54, 64
4, 44000, Note_on_c, 9, 38, 9
4, 44001, Note_off_c, 9, 38, 64
4, 44020, Note_on_c, 9, 54, 30
4, 44020, Note_on_c, 9, 36, 46
4, 44021, Note_off_c, 9, 54, 64
4, 44040, Note_off_c, 9, 36, 64
4, 44160, Note_on_c, 9, 38, 40
4, 44160, Note_on_c, 9, 54, 44
4, 44161, Note_off_c, 9, 38, 64
4, 44180, Note_off_c, 9, 54, 64
4, 44180, Note_on_c, 9, 36, 76
4, 44181, Note_off_c, 9, 36, 64
4, 44480, Note_on_c, 9, 38, 22
4, 44481, Note_off_c, 9, 38, 64
4, 44500, Note_on_c, 9, 54, 69
4, 44520, Note_off_c, 9, 54, 64
4, 44640, Note_on_c, 9, 40, 99
4, 44640, Note_on_c, 9, 54, 112
4, 44641, Note_off_c, 9, 40, 64
4, 44660, Note_off_c, 9, 54, 64
4, 44960, Note_on_c, 9, 38, 15
4, 44961, Note_off_c, 9, 38, 64
4, 44980, Note_on_c, 9, 54, 26
4, 44980, Note_on_c, 9, 36, 76
4, 45000, Note_off_c, 9, 36, 64
4, 45000, Note_off_c, 9, 54, 64
4, 45120, Note_on_c, 9, 38, 31
4, 45120, Note_on_c, 9, 54, 52
4, 45121, Note_off_c, 9, 38, 64
4, 45140, Note_off_c, 9, 54, 64
4, 45440, Note_on_c, 9, 38, 19
4, 45441, Note_off_c, 9, 38, 64
4, 45460, Note_on_c, 9, 54, 49
4, 45460, Note_on_c, 9, 36, 70
4, 45461, Note_off_c, 9, 54, 64
4, 45480, Note_off_c, 9, 36, 64
4, 45600, Note_on_c, 9, 40, 99
4, 45600, Note_on_c, 9, 54, 108
4, 45601, Note_off_c, 9, 40, 64
4, 45620, Note_off_c, 9, 54, 64
4, 45920, Note_on_c, 9, 38, 12
4, 45921, Note_off_c, 9, 38, 64
4, 45940, Note_on_c, 9, 54, 30
4, 45940, Note_on_c, 9, 36, 55
4, 45941, Note_off_c, 9, 54, 64
4, 45960, Note_off_c, 9, 36, 64
4, 46080, Note_on_c, 9, 38, 34
4, 46080, Note_on_c, 9, 36, 80
4, 46080, Note_on_c, 9, 54, 48
4, 46081, Note_off_c, 9, 38, 64
4, 46100, Note_off_c, 9, 36, 64
4, 46100, Note_off_c, 9, 54, 64
4, 46400, Note_on_c, 9, 38, 22
4, 46401, Note_off_c, 9, 38, 64
4, 46420, Note_on_c, 9, 54, 69
4, 46421, Note_off_c, 9, 54, 64
4, 46560, Note_on_c, 9, 40, 99
4, 46560, Note_on_c, 9, 54, 111
4, 46561, Note_off_c, 9, 40, 64
4, 46580, Note_off_c, 9, 54, 64
4, 46880, Note_on_c, 9, 38, 15
4, 46881, Note_off_c, 9, 38, 64
4, 46900, Note_on_c, 9, 54, 35
4, 46900, Note_on_c, 9, 36, 76
4, 46901, Note_off_c, 9, 54, 64
4, 46920, Note_off_c, 9, 36, 64
4, 47040, Note_on_c, 9, 38, 40
4, 47040, Note_on_c, 9, 54, 48
4, 47041, Note_off_c, 9, 38, 64
4, 47060, Note_off_c, 9, 54, 64
4, 47360, Note_on_c, 9, 40, 32
4, 47361, Note_off_c, 9, 40, 64
4, 47380, Note_on_c, 9, 36, 73
4, 47380, Note_on_c, 9, 54, 73
4, 47381, Note_off_c, 9, 54, 64
4, 47381, Note_off_c, 9, 36, 64
4, 47520, Note_on_c, 9, 40, 99
4, 47520, Note_on_c, 9, 54, 112
4, 47521, Note_off_c, 9, 40, 64
4, 47540, Note_off_c, 9, 54, 64
4, 47840, Note_on_c, 9, 38, 19
4, 47841, Note_off_c, 9, 38, 64
4, 47860, Note_on_c, 9, 36, 52
4, 47860, Note_on_c, 9, 54, 30
4, 47861, Note_off_c, 9, 36, 64
4, 47880, Note_off_c, 9, 54, 64
4, 48000, Note_on_c, 9, 38, 37
4, 48000, Note_on_c, 9, 54, 48
4, 48000, Note_on_c, 9, 36, 83
4, 48001, Note_off_c, 9, 38, 64
4, 48020, Note_off_c, 9, 54, 64
4, 48020, Note_off_c, 9, 36, 64
4, 48320, Note_on_c, 9, 40, 29
4, 48321, Note_off_c, 9, 40, 64
4, 48340, Note_on_c, 9, 54, 73
4, 48360, Note_off_c, 9, 54, 64
4, 48480, Note_on_c, 9, 40, 99
4, 48480, Note_on_c, 9, 54, 115
4, 48481, Note_off_c, 9, 40, 64
4, 48500, Note_off_c, 9, 54, 64
4, 48800, Note_on_c, 9, 38, 15
4, 48801, Note_off_c, 9, 38, 64
4, 48820, Note_on_c, 9, 54, 30
4, 48820, Note_on_c, 9, 36, 85
4, 48821, Note_off_c, 9, 36, 64
4, 48821, Note_off_c, 9, 54, 64
4, 48960, Note_on_c, 9, 38, 25
4, 48960, Note_on_c, 9, 54, 39
4, 48961, Note_off_c, 9, 54, 64
4, 48961, Note_off_c, 9, 38, 64
4, 49280, Note_on_c, 9, 38, 15
4, 49281, Note_off_c, 9, 38, 64
4, 49300, Note_on_c, 9, 36, 76
4, 49300, Note_on_c, 9, 54, 54
4, 49301, Note_off_c, 9, 54, 64
4, 49301, Note_off_c, 9, 36, 64
4, 49440, Note_on_c, 9, 40, 99
4, 49440, Note_on_c, 9, 54, 111
4, 49441, Note_off_c, 9, 54, 64
4, 49441, Note_off_c, 9, 40, 64
4, 49760, Note_on_c, 9, 38, 19
4, 49761, Note_off_c, 9, 38, 64
4, 49780, Note_on_c, 9, 54, 35
4, 49780, Note_on_c, 9, 36, 82
4, 49800, Note_off_c, 9, 36, 64
4, 49800, Note_off_c, 9, 54, 64
4, 49920, Note_on_c, 9, 38, 37
4, 49920, Note_on_c, 9, 54, 44
4, 49921, Note_off_c, 9, 38, 64
4, 49940, Note_off_c, 9, 54, 64
4, 49940, Note_on_c, 9, 36, 89
4, 49941, Note_off_c, 9, 36, 64
4, 50240, Note_on_c, 9, 38, 19
4, 50241, Note_off_c, 9, 38, 64
4, 50260, Note_on_c, 9, 54, 50
4, 50280, Note_off_c, 9, 54, 64
4, 50400, Note_on_c, 9, 40, 99
4, 50400, Note_on_c, 9, 54, 105
4, 50401, Note_off_c, 9, 54, 64
4, 50401, Note_off_c, 9, 40, 64
4, 50720, Note_on_c, 9, 38, 17
4, 50721, Note_off_c, 9, 38, 64
4, 50740, Note_on_c, 9, 36, 83
4, 50740, Note_on_c, 9, 54, 26
4, 50741, Note_off_c, 9, 36, 64
4, 50760, Note_off_c, 9, 54, 64
4, 50880, Note_on_c, 9, 38, 27
4, 50880, Note_on_c, 9, 54, 44
4, 50881, Note_off_c, 9, 54, 64
4, 50881, Note_off_c, 9, 38, 64
4, 51200, Note_on_c, 9, 38, 35
4, 51201, Note_off_c, 9, 38, 64
4, 51220, Note_on_c, 9, 54, 58
4, 51220, Note_on_c, 9, 36, 74
4, 51221, Note_off_c, 9, 54, 64
4, 51240, Note_off_c, 9, 36, 64
4, 51360, Note_on_c, 9, 40, 99
4, 51360, Note_on_c, 9, 54, 110
4, 51361, Note_off_c, 9, 40, 64
4, 51380, Note_off_c, 9, 54, 64
4, 51680, Note_on_c, 9, 38, 9
4, 51681, Note_off_c, 9, 38, 64
4, 51700, Note_on_c, 9, 54, 30
4, 51700, Note_on_c, 9, 36, 46
4, 51701, Note_off_c, 9, 54, 64
4, 51720, Note_off_c, 9, 36, 64
4, 51840, Note_on_c, 9, 38, 40
4, 51840, Note_on_c, 9, 54, 44
4, 51841, Note_off_c, 9, 38, 64
4, 51860, Note_off_c, 9, 54, 64
4, 51860, Note_on_c, 9, 36, 76
4, 51861, Note_off_c, 9, 36, 64
4, 52160, Note_on_c, 9, 38, 22
4, 52161, Note_off_c, 9, 38, 64
4, 52180, Note_on_c, 9, 54, 69
4, 52200, Note_off_c, 9, 54, 64
4, 52320, Note_on_c, 9, 40, 99
4, 52320, Note_on_c, 9, 54, 112
4, 52321, Note_off_c, 9, 40, 64
4, 52340, Note_off_c, 9, 54, 64
4, 52640, Note_on_c, 9, 38, 15
4, 52641, Note_off_c, 9, 38, 64
4, 52660, Note_on_c, 9, 54, 26
4, 52660, Note_on_c, 9, 36, 76
4, 52680, Note_off_c, 9, 36, 64
4, 52680, Note_off_c, 9, 54, 64
4, 52800, Note_on_c, 9, 38, 31
4, 52800, Note_on_c, 9, 54, 52
4, 52801, Note_off_c, 9, 38, 64
4, 52820, Note_off_c, 9, 54, 64
4, 53120, Note_on_c, 9, 38, 19
4, 53121, Note_off_c, 9, 38, 64
4, 53140, Note_on_c, 9, 54, 49
4, 53140, Note_on_c, 9, 36, 70
4, 53141, Note_off_c, 9, 54, 64
4, 53160, Note_off_c, 9, 36, 64
4, 53280, Note_on_c, 9, 40, 99
4, 53280, Note_on_c, 9, 54, 108
4, 53281, Note_off_c, 9, 40, 64
4, 53300, Note_off_c, 9, 54, 64
4, 53600, Note_on_c, 9, 38, 12
4, 53601, Note_off_c, 9, 38, 64
4, 53620, Note_on_c, 9, 54, 30
4, 53620, Note_on_c, 9, 36, 55
4, 53621, Note_off_c, 9, 54, 64
4, 53640, Note_off_c, 9, 36, 64
4, 53760, Note_on_c, 9, 53, 103
4, 53760, Note_on_c, 9, 54, 44
4, 53780, Note_off_c, 9, 54, 64
4, 53780, Note_off_c, 9, 53, 64
4, 53780, Note_on_c, 9, 36, 89
4, 53781, Note_off_c, 9, 36, 64
4, 54100, Note_on_c, 9, 54, 50
4, 54120, Note_off_c, 9, 54, 64
4, 54240, Note_on_c, 9, 40, 106
4, 54240, Note_on_c, 9, 54, 105
4, 54240, Note_on_c, 9, 57, 76
4, 54241, Note_off_c, 9, 57, 64
4, 54241, Note_off_c, 9, 54, 64
4, 54241, Note_off_c, 9, 40, 64
4, 54580, Note_on_c, 9, 36, 83
4, 54580, Note_on_c, 9, 54, 60
4, 54581, Note_off_c, 9, 36, 64
4, 54600, Note_off_c, 9, 54, 64
4, 54720, Note_on_c, 9, 53, 103
4, 54720, Note_on_c, 9, 54, 64
4, 54721, Note_off_c, 9, 54, 64
4, 54721, Note_off_c, 9, 53, 64
4, 55060, Note_on_c, 9, 54, 58
4, 55060, Note_on_c, 9, 36, 74
4, 55061, Note_off_c, 9, 54, 64
4, 55080, Note_off_c, 9, 36, 64
4, 55200, Note_on_c, 9, 57, 69
4, 55200, Note_on_c, 9, 40, 106
4, 55200, Note_on_c, 9, 54, 110
4, 55201, Note_off_c, 9, 40, 64
4, 55201, Note_off_c, 9, 57, 64
4, 55220, Note_off_c, 9, 54, 64
4, 55540, Note_on_c, 9, 54, 54
4, 55540, Note_on_c, 9, 36, 32
4, 55541, Note_off_c, 9, 54, 64
4, 55560, Note_off_c, 9, 36, 64
4, 55680, Note_on_c, 9, 53, 101
4, 55680, Note_on_c, 9, 54, 79
4, 55681, Note_off_c, 9, 53, 64
4, 55700, Note_off_c, 9, 54, 64
4, 55700, Note_on_c, 9, 36, 76
4, 55701, Note_off_c, 9, 36, 64
4, 56020, Note_on_c, 9, 54, 69
4, 56040, Note_off_c, 9, 54, 64
4, 56160, Note_on_c, 9, 57, 56
4, 56160, Note_on_c, 9, 40, 106
4, 56160, Note_on_c, 9, 54, 112
4, 56161, Note_off_c, 9, 40, 64
4, 56161, Note_off_c, 9, 57, 64
4, 56180, Note_off_c, 9, 54, 64
4, 56500, Note_on_c, 9, 54, 45
4, 56500, Note_on_c, 9, 36, 76
4, 56520, Note_off_c, 9, 36, 64
4, 56520, Note_off_c, 9, 54, 64
4, 56640, Note_on_c, 9, 53, 101
4, 56640, Note_on_c, 9, 54, 85
4, 56641, Note_off_c, 9, 53, 64
4, 56660, Note_off_c, 9, 54, 64
4, 56980, Note_on_c, 9, 54, 49
4, 56980, Note_on_c, 9, 36, 70
4, 56981, Note_off_c, 9, 54, 64
4, 57000, Note_off_c, 9, 36, 64
4, 57120, Note_on_c, 9, 57, 73
4, 57120, Note_on_c, 9, 40, 106
4, 57120, Note_on_c, 9, 54, 108
4, 57121, Note_off_c, 9, 40, 64
4, 57121, Note_off_c, 9, 57, 64
4, 57140, Note_off_c, 9, 54, 64
4, 57460, Note_on_c, 9, 54, 67
4, 57460, Note_on_c, 9, 36, 55
4, 57461, Note_off_c, 9, 54, 64
4, 57480, Note_off_c, 9, 36, 64
4, 57600, Note_on_c, 9, 53, 103
4, 57600, Note_on_c, 9, 36, 80
4, 57600, Note_on_c, 9, 54, 79
4, 57601, Note_off_c, 9, 53, 64
4, 57620, Note_off_c, 9, 36, 64
4, 57620, Note_off_c, 9, 54, 64
4, 57940, Note_on_c, 9, 54, 69
4, 57941, Note_off_c, 9, 54, 64
4, 58080, Note_on_c, 9, 57, 69
4, 58080, Note_on_c, 9, 40, 106
4, 58080, Note_on_c, 9, 54, 111
4, 58081, Note_off_c, 9, 40, 64
4, 58081, Note_off_c, 9, 57, 64
4, 58100, Note_off_c, 9, 54, 64
4, 58420, Note_on_c, 9, 54, 64
4, 58420, Note_on_c, 9, 36, 76
4, 58421, Note_off_c, 9, 54, 64
4, 58440, Note_off_c, 9, 36, 64
4, 58560, Note_on_c, 9, 53, 101
4, 58560, Note_on_c, 9, 54, 84
4, 58561, Note_off_c, 9, 53, 64
4, 58580, Note_off_c, 9, 54, 64
4, 58900, Note_on_c, 9, 36, 73
4, 58900, Note_on_c, 9, 54, 73
4, 58900, Note_on_c, 9, 40, 32
4, 58901, Note_off_c, 9, 54, 64
4, 58901, Note_off_c, 9, 36, 64
4, 58920, Note_off_c, 9, 40, 64
4, 59040, Note_on_c, 9, 57, 69
4, 59040, Note_on_c, 9, 40, 106
4, 59040, Note_on_c, 9, 54, 112
4, 59041, Note_off_c, 9, 40, 64
4, 59041, Note_off_c, 9, 57, 64
4, 59060, Note_off_c, 9, 54, 64
4, 59380, Note_on_c, 9, 36, 36
4, 59380, Note_on_c, 9, 54, 55
4, 59381, Note_off_c, 9, 36, 64
4, 59400, Note_off_c, 9, 54, 64
4, 59520, Note_on_c, 9, 53, 101
4, 59520, Note_on_c, 9, 54, 76
4, 59520, Note_on_c, 9, 36, 83
4, 59521, Note_off_c, 9, 53, 64
4, 59540, Note_off_c, 9, 54, 64
4, 59540, Note_off_c, 9, 36, 64
4, 59840, Note_on_c, 9, 40, 36
4, 59841, Note_off_c, 9, 40, 64
4, 59860, Note_on_c, 9, 54, 73
4, 59880, Note_off_c, 9, 54, 64
4, 60000, Note_on_c, 9, 40, 106
4, 60000, Note_on_c, 9, 57, 67
4, 60000, Note_on_c, 9, 54, 115
4, 60001, Note_off_c, 9, 57, 64
4, 60001, Note_off_c, 9, 40, 64
4, 60020, Note_off_c, 9, 54, 64
4, 60340, Note_on_c, 9, 54, 66
4, 60340, Note_on_c, 9, 36, 85
4, 60341, Note_off_c, 9, 36, 64
4, 60341, Note_off_c, 9, 54, 64
4, 60480, Note_on_c, 9, 53, 105
4, 60480, Note_on_c, 9, 54, 72
4, 60481, Note_off_c, 9, 54, 64
4, 60481, Note_off_c, 9, 53, 64
4, 60800, Note_on_c, 9, 36, 32
4, 60820, Note_off_c, 9, 36, 64
4, 60820, Note_on_c, 9, 54, 54
4, 60821, Note_off_c, 9, 54, 64
4, 60960, Note_on_c, 9, 57, 70
4, 60960, Note_on_c, 9, 40, 106
4, 60960, Note_on_c, 9, 54, 111
4, 60961, Note_off_c, 9, 54, 64
4, 60961, Note_off_c, 9, 40, 64
4, 60961, Note_off_c, 9, 57, 64
4, 61300, Note_on_c, 9, 54, 77
4, 61300, Note_on_c, 9, 36, 82
4, 61320, Note_off_c, 9, 36, 64
4, 61320, Note_off_c, 9, 54, 64
4, 61440, Note_on_c, 9, 53, 103
4, 61440, Note_on_c, 9, 54, 44
4, 61441, Note_off_c, 9, 53, 64
4, 61460, Note_off_c, 9, 54, 64
4, 61460, Note_on_c, 9, 36, 89
4, 61461, Note_off_c, 9, 36, 64
4, 61780, Note_on_c, 9, 54, 50
4, 61800, Note_off_c, 9, 54, 64
4, 61920, Note_on_c, 9, 40, 106
4, 61920, Note_on_c, 9, 54, 105
4, 61920, Note_on_c, 9, 57, 76
4, 61921, Note_off_c, 9, 57, 64
4, 61921, Note_off_c, 9, 54, 64
4, 61921, Note_off_c, 9, 40, 64
4, 62260, Note_on_c, 9, 36, 83
4, 62260, Note_on_c, 9, 54, 60
4, 62261, Note_off_c, 9, 36, 64
4, 62280, Note_off_c, 9, 54, 64
4, 62400, Note_on_c, 9, 53, 103
4, 62400, Note_on_c, 9, 54, 64
4, 62401, Note_off_c, 9, 54, 64
4, 62401, Note_off_c, 9, 53, 64
4, 62740, Note_on_c, 9, 54, 58
4, 62740, Note_on_c, 9, 36, 74
4, 62741, Note_off_c, 9, 54, 64
4, 62760, Note_off_c, 9, 36, 64
4, 62880, Note_on_c, 9, 57, 69
4, 62880, Note_on_c, 9, 40, 106
4, 62880, Note_on_c, 9, 54, 110
4, 62881, Note_off_c, 9, 40, 64
4, 62881, Note_off_c, 9, 57, 64
4, 62900, Note_off_c, 9, 54, 64
4, 63220, Note_on_c, 9, 54, 54
4, 63220, Note_on_c, 9, 36, 32
4, 63221, Note_off_c, 9, 54, 64
4, 63240, Note_off_c, 9, 36, 64
4, 63360, Note_on_c, 9, 53, 101
4, 63360, Note_on_c, 9, 54, 79
4, 63361, Note_off_c, 9, 53, 64
4, 63380, Note_off_c, 9, 54, 64
4, 63380, Note_on_c, 9, 36, 76
4, 63381, Note_off_c, 9, 36, 64
4, 63700, Note_on_c, 9, 54, 69
4, 63720, Note_off_c, 9, 54, 64
4, 63840, Note_on_c, 9, 57, 56
4, 63840, Note_on_c, 9, 40, 106
4, 63840, Note_on_c, 9, 54, 112
4, 63841, Note_off_c, 9, 40, 64
4, 63841, Note_off_c, 9, 57, 64
4, 63860, Note_off_c, 9, 54, 64
4, 64180, Note_on_c, 9, 54, 45
4, 64180, Note_on_c, 9, 36, 76
4, 64200, Note_off_c, 9, 36, 64
4, 64200, Note_off_c, 9, 54, 64
4, 64320, Note_on_c, 9, 53, 101
4, 64320, Note_on_c, 9, 54, 85
4, 64321, Note_off_c, 9, 53, 64
4, 64340, Note_off_c, 9, 54, 64
4, 64660, Note_on_c, 9, 54, 49
4, 64660, Note_on_c, 9, 36, 70
4, 64661, Note_off_c, 9, 54, 64
4, 64680, Note_off_c, 9, 36, 64
4, 64800, Note_on_c, 9, 57, 73
4, 64800, Note_on_c, 9, 40, 106
4, 64800, Note_on_c, 9, 54, 108
4, 64801, Note_off_c, 9, 40, 64
4, 64801, Note_off_c, 9, 57, 64
4, 64820, Note_off_c, 9, 54, 64
4, 65140, Note_on_c, 9, 54, 67
4, 65140, Note_on_c, 9, 36, 55
4, 65141, Note_off_c, 9, 54, 64
4, 65160, Note_off_c, 9, 36, 64
4, 65280, Note_on_c, 9, 53, 103
4, 65280, Note_on_c, 9, 36, 80
4, 65280, Note_on_c, 9, 54, 79
4, 65281, Note_off_c, 9, 53, 64
4, 65300, Note_off_c, 9, 36, 64
4, 65300, Note_off_c, 9, 54, 64
4, 65620, Note_on_c, 9, 54, 69
4, 65621, Note_off_c, 9, 54, 64
4, 65760, Note_on_c, 9, 57, 69
4, 65760, Note_on_c, 9, 40, 106
4, 65760, Note_on_c, 9, 54, 111
4, 65761, Note_off_c, 9, 40, 64
4, 65761, Note_off_c, 9, 57, 64
4, 65780, Note_off_c, 9, 54, 64
4, 66100, Note_on_c, 9, 54, 64
4, 66100, Note_on_c, 9, 36, 76
4, 66101, Note_off_c, 9, 54, 64
4, 66120, Note_off_c, 9, 36, 64
4, 66240, Note_on_c, 9, 53, 101
4, 66240, Note_on_c, 9, 54, 84
4, 66241, Note_off_c, 9, 53, 64
4, 66260, Note_off_c, 9, 54, 64
4, 66580, Note_on_c, 9, 36, 73
4, 66580, Note_on_c, 9, 54, 73
4, 66580, Note_on_c, 9, 40, 32
4, 66581, Note_off_c, 9, 54, 64
4, 66581, Note_off_c, 9, 36, 64
4, 66600, Note_off_c, 9, 40, 64
4, 66720, Note_on_c, 9, 57, 69
4, 66720, Note_on_c, 9, 40, 106
4, 66720, Note_on_c, 9, 54, 112
4, 66721, Note_off_c, 9, 40, 64
4, 66721, Note_off_c, 9, 57, 64
4, 66740, Note_off_c, 9, 54, 64
4, 67060, Note_on_c, 9, 36, 36
4, 67060, Note_on_c, 9, 54, 55
4, 67061, Note_off_c, 9, 36, 64
4, 67080, Note_off_c, 9, 54, 64
4, 67200, Note_on_c, 9, 53, 101
4, 67200, Note_on_c, 9, 54, 76
4, 67200, Note_on_c, 9, 36, 83
4, 67201, Note_off_c, 9, 53, 64
4, 67220, Note_off_c, 9, 54, 64
4, 67220, Note_off_c, 9, 36, 64
4, 67520, Note_on_c, 9, 40, 36
4, 67521, Note_off_c, 9, 40, 64
4, 67540, Note_on_c, 9, 54, 73
4, 67560, Note_off_c, 9, 54, 64
4, 67680, Note_on_c, 9, 40, 106
4, 67680, Note_on_c, 9, 57, 67
4, 67680, Note_on_c, 9, 54, 115
4, 67681, Note_off_c, 9, 57, 64
4, 67681, Note_off_c, 9, 40, 64
4, 67700, Note_off_c, 9, 54, 64
4, 68020, Note_on_c, 9, 54, 66
4, 68020, Note_on_c, 9, 36, 85
4, 68021, Note_off_c, 9, 36, 64
4, 68021, Note_off_c, 9, 54, 64
4, 68160, Note_on_c, 9, 53, 105
4, 68160, Note_on_c, 9, 54, 72
4, 68161, Note_off_c, 9, 54, 64
4, 68161, Note_off_c, 9, 53, 64
4, 68480, Note_on_c, 9, 36, 32
4, 68500, Note_off_c, 9, 36, 64
4, 68500, Note_on_c, 9, 54, 54
4, 68501, Note_off_c, 9, 54, 64
4, 68640, Note_on_c, 9, 57, 70
4, 68640, Note_on_c, 9, 40, 106
4, 68640, Note_on_c, 9, 54, 111
4, 68641, Note_off_c, 9, 54, 64
4, 68641, Note_off_c, 9, 40, 64
4, 68641, Note_off_c, 9, 57, 64
4, 68980, Note_on_c, 9, 54, 77
4, 68980, Note_on_c, 9, 36, 82
4, 69000, Note_off_c, 9, 36, 64
4, 69000, Note_off_c, 9, 54, 64
4, 69120, Note_on_c, 9, 53, 103
4, 69120, Note_on_c, 9, 54, 44
4, 69121, Note_off_c, 9, 53, 64
4, 69140, Note_off_c, 9, 54, 64
4, 69140, Note_on_c, 9, 36, 89
4, 69141, Note_off_c, 9, 36, 64
4, 69460, Note_on_c, 9, 54, 50
4, 69480, Note_off_c, 9, 54, 64
4, 69600, Note_on_c, 9, 40, 106
4, 69600, Note_on_c, 9, 54, 105
4, 69600, Note_on_c, 9, 57, 76
4, 69601, Note_off_c, 9, 57, 64
4, 69601, Note_off_c, 9, 54, 64
4, 69601, Note_off_c, 9, 40, 64
4, 69940, Note_on_c, 9, 36, 83
4, 69940, Note_on_c, 9, 54, 60
4, 69941, Note_off_c, 9, 36, 64
4, 69960, Note_off_c, 9, 54, 64
4, 70080, Note_on_c, 9, 53, 103
4, 70080, Note_on_c, 9, 54, 64
4, 70081, Note_off_c, 9, 54, 64
4, 70081, Note_off_c, 9, 53, 64
4, 70420, Note_on_c, 9, 54, 58
4, 70420, Note_on_c, 9, 36, 74
4, 70421, Note_off_c, 9, 54, 64
4, 70440, Note_off_c, 9, 36, 64
4, 70560, Note_on_c, 9, 57, 69
4, 70560, Note_on_c, 9, 40, 106
4, 70560, Note_on_c, 9, 54, 110
4, 70561, Note_off_c, 9, 40, 64
4, 70561, Note_off_c, 9, 57, 64
4, 70580, Note_off_c, 9, 54, 64
4, 70900, Note_on_c, 9, 54, 54
4, 70900, Note_on_c, 9, 36, 32
4, 70901, Note_off_c, 9, 54, 64
4, 70920, Note_off_c, 9, 36, 64
4, 71040, Note_on_c, 9, 53, 101
4, 71040, Note_on_c, 9, 54, 79
4, 71041, Note_off_c, 9, 53, 64
4, 71060, Note_off_c, 9, 54, 64
4, 71060, Note_on_c, 9, 36, 76
4, 71061, Note_off_c, 9, 36, 64
4, 71380, Note_on_c, 9, 54, 69
4, 71400, Note_off_c, 9, 54, 64
4, 71520, Note_on_c, 9, 57, 56
4, 71520, Note_on_c, 9, 40, 106
4, 71520, Note_on_c, 9, 54, 112
4, 71521, Note_off_c, 9, 40, 64
4, 71521, Note_off_c, 9, 57, 64
4, 71540, Note_off_c, 9, 54, 64
4, 71860, Note_on_c, 9, 54, 45
4, 71860, Note_on_c, 9, 36, 76
4, 71880, Note_off_c, 9, 36, 64
4, 71880, Note_off_c, 9, 54, 64
4, 72000, Note_on_c, 9, 53, 101
4, 72000, Note_on_c, 9, 54, 85
4, 72001, Note_off_c, 9, 53, 64
4, 72020, Note_off_c, 9, 54, 64
4, 72340, Note_on_c, 9, 54, 49
4, 72340, Note_on_c, 9, 36, 70
4, 72341, Note_off_c, 9, 54, 64
4, 72360, Note_off_c, 9, 36, 64
4, 72480, Note_on_c, 9, 57, 73
4, 72480, Note_on_c, 9, 40, 106
4, 72480, Note_on_c, 9, 54, 108
4, 72481, Note_off_c, 9, 40, 64
4, 72481, Note_off_c, 9, 57, 64
4, 72500, Note_off_c, 9, 54, 64
4, 72820, Note_on_c, 9, 54, 67
4, 72820, Note_on_c, 9, 36, 55
4, 72821, Note_off_c, 9, 54, 64
4, 72840, Note_off_c, 9, 36, 64
4, 72960, Note_on_c, 9, 53, 103
4, 72960, Note_on_c, 9, 36, 80
4, 72960, Note_on_c, 9, 54, 79
4, 72961, Note_off_c, 9, 53, 64
4, 72980, Note_off_c, 9, 36, 64
4, 72980, Note_off_c, 9, 54, 64
4, 73300, Note_on_c, 9, 54, 69
4, 73301, Note_off_c, 9, 54, 64
4, 73440, Note_on_c, 9, 57, 69
4, 73440, Note_on_c, 9, 40, 106
4, 73440, Note_on_c, 9, 54, 111
4, 73441, Note_off_c, 9, 40, 64
4, 73441, Note_off_c, 9, 57, 64
4, 73460, Note_off_c, 9, 54, 64
4, 73780, Note_on_c, 9, 54, 64
4, 73780, Note_on_c, 9, 36, 76
4, 73781, Note_off_c, 9, 54, 64
4, 73800, Note_off_c, 9, 36, 64
4, 73920, Note_on_c, 9, 53, 101
4, 73920, Note_on_c, 9, 54, 84
4, 73921, Note_off_c, 9, 53, 64
4, 73940, Note_off_c, 9, 54, 64
4, 74260, Note_on_c, 9, 36, 73
4, 74260, Note_on_c, 9, 54, 73
4, 74260, Note_on_c, 9, 40, 32
4, 74261, Note_off_c, 9, 54, 64
4, 74261, Note_off_c, 9, 36, 64
4, 74280, Note_off_c, 9, 40, 64
4, 74400, Note_on_c, 9, 57, 69
4, 74400, Note_on_c, 9, 40, 106
4, 74400, Note_on_c, 9, 54, 112
4, 74401, Note_off_c, 9, 40, 64
4, 74401, Note_off_c, 9, 57, 64
4, 74420, Note_off_c, 9, 54, 64
4, 74740, Note_on_c, 9, 36, 36
4, 74740, Note_on_c, 9, 54, 55
4, 74741, Note_off_c, 9, 36, 64
4, 74760, Note_off_c, 9, 54, 64
4, 74880, Note_on_c, 9, 53, 101
4, 74880, Note_on_c, 9, 54, 76
4, 74880, Note_on_c, 9, 36, 83
4, 74881, Note_off_c, 9, 53, 64
4, 74900, Note_off_c, 9, 54, 64
4, 74900, Note_off_c, 9, 36, 64
4, 75200, Note_on_c, 9, 40, 36
4, 75201, Note_off_c, 9, 40, 64
4, 75220, Note_on_c, 9, 54, 73
4, 75240, Note_off_c, 9, 54, 64
4, 75360, Note_on_c, 9, 40, 106
4, 75360, Note_on_c, 9, 57, 67
4, 75360, Note_on_c, 9, 54, 115
4, 75361, Note_off_c, 9, 57, 64
4, 75361, Note_off_c, 9, 40, 64
4, 75380, Note_off_c, 9, 54, 64
4, 75700, Note_on_c, 9, 54, 66
4, 75700, Note_on_c, 9, 36, 85
4, 75701, Note_off_c, 9, 36, 64
4, 75701, Note_off_c, 9, 54, 64
4, 75840, Note_on_c, 9, 53, 105
4, 75840, Note_on_c, 9, 54, 72
4, 75841, Note_off_c, 9, 54, 64
4, 75841, Note_off_c, 9, 53, 64
4, 76160, Note_on_c, 9, 36, 32
4, 76180, Note_off_c, 9, 36, 64
4, 76180, Note_on_c, 9, 54, 54
4, 76181, Note_off_c, 9, 54, 64
4, 76320, Note_on_c, 9, 57, 70
4, 76320, Note_on_c, 9, 40, 106
4, 76320, Note_on_c, 9, 54, 111
4, 76321, Note_off_c, 9, 54, 64
4, 76321, Note_off_c, 9, 40, 64
4, 76321, Note_off_c, 9, 57, 64
4, 76660, Note_on_c, 9, 54, 77
4, 76660, Note_on_c, 9, 36, 82
4, 76680, Note_off_c, 9, 36, 64
4, 76680, Note_off_c, 9, 54, 64
4, 76800, Note_on_c, 9, 53, 103
4, 76800, Note_on_c, 9, 54, 44
4, 76801, Note_off_c, 9, 53, 64
4, 76820, Note_off_c, 9, 54, 64
4, 76820, Note_on_c, 9, 36, 89
4, 76821, Note_off_c, 9, 36, 64
4, 77140, Note_on_c, 9, 54, 50
4, 77160, Note_off_c, 9, 54, 64
4, 77280, Note_on_c, 9, 40, 106
4, 77280, Note_on_c, 9, 54, 105
4, 77280, Note_on_c, 9, 57, 76
4, 77281, Note_off_c, 9, 57, 64
4, 77281, Note_off_c, 9, 54, 64
4, 77281, Note_off_c, 9, 40, 64
4, 77620, Note_on_c, 9, 36, 83
4, 77620, Note_on_c, 9, 54, 60
4, 77621, Note_off_c, 9, 36, 64
4, 77640, Note_off_c, 9, 54, 64
4, 77760, Note_on_c, 9, 53, 103
4, 77760, Note_on_c, 9, 54, 64
4, 77761, Note_off_c, 9, 54, 64
4, 77761, Note_off_c, 9, 53, 64
4, 78100, Note_on_c, 9, 54, 58
4, 78100, Note_on_c, 9, 36, 74
4, 78101, Note_off_c, 9, 54, 64
4, 78120, Note_off_c, 9, 36, 64
4, 78240, Note_on_c, 9, 57, 69
4, 78240, Note_on_c, 9, 40, 106
4, 78240, Note_on_c, 9, 54, 110
4, 78241, Note_off_c, 9, 40, 64
4, 78241, Note_off_c, 9, 57, 64
4, 78260, Note_off_c, 9, 54, 64
4, 78580, Note_on_c, 9, 54, 54
4, 78580, Note_on_c, 9, 36, 32
4, 78581, Note_off_c, 9, 54, 64
4, 78600, Note_off_c, 9, 36, 64
4, 78720, Note_on_c, 9, 53, 101
4, 78720, Note_on_c, 9, 54, 79
4, 78721, Note_off_c, 9, 53, 64
4, 78740, Note_off_c, 9, 54, 64
4, 78740, Note_on_c, 9, 36, 76
4, 78741, Note_off_c, 9, 36, 64
4, 79060, Note_on_c, 9, 54, 69
4, 79080, Note_off_c, 9, 54, 64
4, 79200, Note_on_c, 9, 57, 56
4, 79200, Note_on_c, 9, 40, 106
4, 79200, Note_on_c, 9, 54, 112
4, 79201, Note_off_c, 9, 40, 64
4, 79201, Note_off_c, 9, 57, 64
4, 79220, Note_off_c, 9, 54, 64
4, 79540, Note_on_c, 9, 54, 45
4, 79540, Note_on_c, 9, 36, 76
4, 79560, Note_off_c, 9, 36, 64
4, 79560, Note_off_c, 9, 54, 64
4, 79680, Note_on_c, 9, 53, 101
4, 79680, Note_on_c, 9, 54, 85
4, 79681, Note_off_c, 9, 53, 64
4, 79700, Note_off_c, 9, 54, 64
4, 80020, Note_on_c, 9, 54, 49
4, 80020, Note_on_c, 9, 36, 70
4, 80021, Note_off_c, 9, 54, 64
4, 80040, Note_off_c, 9, 36, 64
4, 80160, Note_on_c, 9, 57, 73
4, 80160, Note_on_c, 9, 40, 106
4, 80160, Note_on_c, 9, 54, 108
4, 80161, Note_off_c, 9, 40, 64
4, 80161, Note_off_c, 9, 57, 64
4, 80180, Note_off_c, 9, 54, 64
4, 80500, Note_on_c, 9, 54, 67
4, 80500, Note_on_c, 9, 36, 55
4, 80501, Note_off_c, 9, 54, 64
4, 80520, Note_off_c, 9, 36, 64
4, 80640, Note_on_c, 9, 53, 103
4, 80640, Note_on_c, 9, 36, 80
4, 80640, Note_on_c, 9, 54, 79
4, 80641, Note_off_c, 9, 53, 64
4, 80660, Note_off_c, 9, 36, 64
4, 80660, Note_off_c, 9, 54, 64
4, 80980, Note_on_c, 9, 54, 69
4, 80981, Note_off_c, 9, 54, 64
4, 81120, Note_on_c, 9, 57, 69
4, 81120, Note_on_c, 9, 40, 106
4, 81120, Note_on_c, 9, 54, 111
4, 81121, Note_off_c, 9, 40, 64
4, 81121, Note_off_c, 9, 57, 64
4, 81140, Note_off_c, 9, 54, 64
4, 81460, Note_on_c, 9, 54, 64
4, 81460, Note_on_c, 9, 36, 76
4, 81461, Note_off_c, 9, 54, 64
4, 81480, Note_off_c, 9, 36, 64
4, 81600, Note_on_c, 9, 53, 101
4, 81600, Note_on_c, 9, 54, 84
4, 81601, Note_off_c, 9, 53, 64
4, 81620, Note_off_c, 9, 54, 64
4, 81940, Note_on_c, 9, 36, 73
4, 81940, Note_on_c, 9, 54, 73
4, 81940, Note_on_c, 9, 40, 32
4, 81941, Note_off_c, 9, 54, 64
4, 81941, Note_off_c, 9, 36, 64
4, 81960, Note_off_c, 9, 40, 64
4, 82080, Note_on_c, 9, 57, 69
4, 82080, Note_on_c, 9, 40, 106
4, 82080, Note_on_c, 9, 54, 112
4, 82081, Note_off_c, 9, 40, 64
4, 82081, Note_off_c, 9, 57, 64
4, 82100, Note_off_c, 9, 54, 64
4, 82420, Note_on_c, 9, 36, 36
4, 82420, Note_on_c, 9, 54, 55
4, 82421, Note_off_c, 9, 36, 64
4, 82440, Note_off_c, 9, 54, 64
4, 82560, Note_on_c, 9, 53, 101
4, 82560, Note_on_c, 9, 54, 76
4, 82560, Note_on_c, 9, 36, 83
4, 82561, Note_off_c, 9, 53, 64
4, 82580, Note_off_c, 9, 54, 64
4, 82580, Note_off_c, 9, 36, 64
4, 82880, Note_on_c, 9, 40, 36
4, 82881, Note_off_c, 9, 40, 64
4, 82900, Note_on_c, 9, 54, 73
4, 82920, Note_off_c, 9, 54, 64
4, 83040, Note_on_c, 9, 40, 106
4, 83040, Note_on_c, 9, 57, 67
4, 83040, Note_on_c, 9, 54, 115
4, 83041, Note_off_c, 9, 57, 64
4, 83041, Note_off_c, 9, 40, 64
4, 83060, Note_off_c, 9, 54, 64
4, 83380, Note_on_c, 9, 54, 66
4, 83380, Note_on_c, 9, 36, 85
4, 83381, Note_off_c, 9, 36, 64
4, 83381, Note_off_c, 9, 54, 64
4, 83520, Note_on_c, 9, 53, 105
4, 83520, Note_on_c, 9, 54, 72
4, 83521, Note_off_c, 9, 54, 64
4, 83521, Note_off_c, 9, 53, 64
4, 83840, Note_on_c, 9, 36, 32
4, 83860, Note_off_c, 9, 36, 64
4, 83860, Note_on_c, 9, 54, 54
4, 83861, Note_off_c, 9, 54, 64
4, 84000, Note_on_c, 9, 57, 70
4, 84000, Note_on_c, 9, 40, 106
4, 84000, Note_on_c, 9, 54, 111
4, 84001, Note_off_c, 9, 54, 64
4, 84001, Note_off_c, 9, 40, 64
4, 84001, Note_off_c, 9, 57, 64
4, 84340, Note_on_c, 9, 54, 77
4, 84340, Note_on_c, 9, 36, 82
4, 84360, Note_off_c, 9, 36, 64
4, 84360, Note_off_c, 9, 54, 64
4, 84480, Note_on_c, 9, 53, 103
4, 84480, Note_on_c, 9, 54, 44
4, 84481, Note_off_c, 9, 53, 64
4, 84500, Note_off_c, 9, 54, 64
4, 84500, Note_on_c, 9, 36, 89
4, 84501, Note_off_c, 9, 36, 64
4, 84820, Note_on_c, 9, 54, 50
4, 84840, Note_off_c, 9, 54, 64
4, 84960, Note_on_c, 9, 40, 106
4, 84960, Note_on_c, 9, 54, 105
4, 84960, Note_on_c, 9, 57, 76
4, 84961, Note_off_c, 9, 57, 64
4, 84961, Note_off_c, 9, 54, 64
4, 84961, Note_off_c, 9, 40, 64
4, 85300, Note_on_c, 9, 36, 83
4, 85300, Note_on_c, 9, 54, 60
4, 85301, Note_off_c, 9, 36, 64
4, 85320, Note_off_c, 9, 54, 64
4, 85440, Note_on_c, 9, 53, 103
4, 85440, Note_on_c, 9, 54, 64
4, 85441, Note_off_c, 9, 54, 64
4, 85441, Note_off_c, 9, 53, 64
4, 85780, Note_on_c, 9, 54, 58
4, 85780, Note_on_c, 9, 36, 74
4, 85781, Note_off_c, 9, 54, 64
4, 85800, Note_off_c, 9, 36, 64
4, 85920, Note_on_c, 9, 57, 69
4, 85920, Note_on_c, 9, 40, 106
4, 85920, Note_on_c, 9, 54, 110
4, 85921, Note_off_c, 9, 40, 64
4, 85921, Note_off_c, 9, 57, 64
4, 85940, Note_off_c, 9, 54, 64
4, 86260, Note_on_c, 9, 54, 54
4, 86260, Note_on_c, 9, 36, 32
4, 86261, Note_off_c, 9, 54, 64
4, 86280, Note_off_c, 9, 36, 64
4, 86400, Note_on_c, 9, 53, 101
4, 86400, Note_on_c, 9, 54, 79
4, 86401, Note_off_c, 9, 53, 64
4, 86420, Note_off_c, 9, 54, 64
4, 86420, Note_on_c, 9, 36, 76
4, 86421, Note_off_c, 9, 36, 64
4, 86740, Note_on_c, 9, 54, 69
4, 86760, Note_off_c, 9, 54, 64
4, 86880, Note_on_c, 9, 57, 56
4, 86880, Note_on_c, 9, 40, 106
4, 86880, Note_on_c, 9, 54, 112
4, 86881, Note_off_c, 9, 40, 64
4, 86881, Note_off_c, 9, 57, 64
4, 86900, Note_off_c, 9, 54, 64
4, 87220, Note_on_c, 9, 54, 45
4, 87220, Note_on_c, 9, 36, 76
4, 87240, Note_off_c, 9, 36, 64
4, 87240, Note_off_c, 9, 54, 64
4, 87360, Note_on_c, 9, 53, 101
4, 87360, Note_on_c, 9, 54, 85
4, 87361, Note_off_c, 9, 53, 64
4, 87380, Note_off_c, 9, 54, 64
4, 87700, Note_on_c, 9, 54, 49
4, 87700, Note_on_c, 9, 36, 70
4, 87701, Note_off_c, 9, 54, 64
4, 87720, Note_off_c, 9, 36, 64
4, 87840, Note_on_c, 9, 57, 73
4, 87840, Note_on_c, 9, 40, 106
4, 87840, Note_on_c, 9, 54, 108
4, 87841, Note_off_c, 9, 40, 64
4, 87841, Note_off_c, 9, 57, 64
4, 87860, Note_off_c, 9, 54, 64
4, 88180, Note_on_c, 9, 54, 67
4, 88180, Note_on_c, 9, 36, 55
4, 88181, Note_off_c, 9, 54, 64
4, 88200, Note_off_c, 9, 36, 64
4, 88320, Note_on_c, 9, 53, 103
4, 88320, Note_on_c, 9, 36, 80
4, 88320, Note_on_c, 9, 54, 79
4, 88321, Note_off_c, 9, 53, 64
4, 88340, Note_off_c, 9, 36, 64
4, 88340, Note_off_c, 9, 54, 64
4, 88660, Note_on_c, 9, 54, 69
4, 88661, Note_off_c, 9, 54, 64
4, 88800, Note_on_c, 9, 57, 69
4, 88800, Note_on_c, 9, 40, 106
4, 88800, Note_on_c, 9, 54, 111
4, 88801, Note_off_c, 9, 40, 64
4, 88801, Note_off_c, 9, 57, 64
4, 88820, Note_off_c, 9, 54, 64
4, 89140, Note_on_c, 9, 54, 64
4, 89140, Note_on_c, 9, 36, 76
4, 89141, Note_off_c, 9, 54, 64
4, 89160, Note_off_c, 9, 36, 64
4, 89280, Note_on_c, 9, 53, 101
4, 89280, Note_on_c, 9, 54, 84
4, 89281, Note_off_c, 9, 53, 64
4, 89300, Note_off_c, 9, 54, 64
4, 89620, Note_on_c, 9, 36, 73
4, 89620, Note_on_c, 9, 54, 73
4, 89620, Note_on_c, 9, 40, 32
4, 89621, Note_off_c, 9, 54, 64
4, 89621, Note_off_c, 9, 36, 64
4, 89640, Note_off_c, 9, 40, 64
4, 89760, Note_on_c, 9, 57, 69
4, 89760, Note_on_c, 9, 40, 106
4, 89760, Note_on_c, 9, 54, 112
4, 89761, Note_off_c, 9, 40, 64
4, 89761, Note_off_c, 9, 57, 64
4, 89780, Note_off_c, 9, 54, 64
4, 90100, Note_on_c, 9, 36, 36
4, 90100, Note_on_c, 9, 54, 55
4, 90101, Note_off_c, 9, 36, 64
4, 90120, Note_off_c, 9, 54, 64
4, 90240, Note_on_c, 9, 53, 101
4, 90240, Note_on_c, 9, 54, 76
4, 90240, Note_on_c, 9, 36, 83
4, 90241, Note_off_c, 9, 53, 64
4, 90260, Note_off_c, 9, 54, 64
4, 90260, Note_off_c, 9, 36, 64
4, 90560, Note_on_c, 9, 40, 36
4, 90561, Note_off_c, 9, 40, 64
4, 90580, Note_on_c, 9, 54, 73
4, 90600, Note_off_c, 9, 54, 64
4, 90720, Note_on_c, 9, 40, 106
4, 90720, Note_on_c, 9, 57, 67
4, 90720, Note_on_c, 9, 54, 115
4, 90721, Note_off_c, 9, 57, 64
4, 90721, Note_off_c, 9, 40, 64
4, 90740, Note_off_c, 9, 54, 64
4, 91060, Note_on_c, 9, 54, 66
4, 91060, Note_on_c, 9, 36, 85
4, 91061, Note_off_c, 9, 36, 64
4, 91061, Note_off_c, 9, 54, 64
4, 91200, Note_on_c, 9, 53, 105
4, 91200, Note_on_c, 9, 54, 72
4, 91201, Note_off_c, 9, 54, 64
4, 91201, Note_off_c, 9, 53, 64
4, 91520, Note_on_c, 9, 36, 32
4, 91540, Note_off_c, 9, 36, 64
4, 91540, Note_on_c, 9, 54, 54
4, 91541, Note_off_c, 9, 54, 64
4, 91680, Note_on_c, 9, 57, 70
4, 91680, Note_on_c, 9, 40, 106
4, 91680, Note_on_c, 9, 54, 111
4, 91681, Note_off_c, 9, 54, 64
4, 91681, Note_off_c, 9, 40, 64
4, 91681, Note_off_c, 9, 57, 64
4, 92020, Note_on_c, 9, 54, 77
4, 92020, Note_on_c, 9, 36, 82
4, 92040, Note_off_c, 9, 36, 64
4, 92040, Note_off_c, 9, 54, 64
4, 92160, Note_on_c, 9, 53, 103
4, 92160, Note_on_c, 9, 54, 44
4, 92161, Note_off_c, 9, 53, 64
4, 92180, Note_off_c, 9, 54, 64
4, 92180, Note_on_c, 9, 36, 89
4, 92181, Note_off_c, 9, 36, 64
4, 92500, Note_on_c, 9, 54, 50
4, 92520, Note_off_c, 9, 54, 64
4, 92640, Note_on_c, 9, 40, 106
4, 92640, Note_on_c, 9, 54, 105
4, 92640, Note_on_c, 9, 57, 76
4, 92641, Note_off_c, 9, 57, 64
4, 92641, Note_off_c, 9, 54, 64
4, 92641, Note_off_c, 9, 40, 64
4, 92980, Note_on_c, 9, 36, 83
4, 92980, Note_on_c, 9, 54, 60
4, 92981, Note_off_c, 9, 36, 64
4, 93000, Note_off_c, 9, 54, 64
4, 93120, Note_on_c, 9, 53, 103
4, 93120, Note_on_c, 9, 54, 64
4, 93121, Note_off_c, 9, 54, 64
4, 93121, Note_off_c, 9, 53, 64
4, 93460, Note_on_c, 9, 54, 58
4, 93460, Note_on_c, 9, 36, 74
4, 93461, Note_off_c, 9, 54, 64
4, 93480, Note_off_c, 9, 36, 64
4, 93600, Note_on_c, 9, 57, 69
4, 93600, Note_on_c, 9, 40, 106
4, 93600, Note_on_c, 9, 54, 110
4, 93601, Note_off_c, 9, 40, 64
4, 93601, Note_off_c, 9, 57, 64
4, 93620, Note_off_c, 9, 54, 64
4, 93940, Note_on_c, 9, 54, 54
4, 93940, Note_on_c, 9, 36, 32
4, 93941, Note_off_c, 9, 54, 64
4, 93960, Note_off_c, 9, 36, 64
4, 94080, Note_on_c, 9, 53, 101
4, 94080, Note_on_c, 9, 54, 79
4, 94081, Note_off_c, 9, 53, 64
4, 94100, Note_off_c, 9, 54, 64
4, 94100, Note_on_c, 9, 36, 76
4, 94101, Note_off_c, 9, 36, 64
4, 94420, Note_on_c, 9, 54, 69
4, 94440, Note_off_c, 9, 54, 64
4, 94560, Note_on_c, 9, 57, 56
4, 94560, Note_on_c, 9, 40, 106
4, 94560, Note_on_c, 9, 54, 112
4, 94561, Note_off_c, 9, 40, 64
4, 94561, Note_off_c, 9, 57, 64
4, 94580, Note_off_c, 9, 54, 64
4, 94900, Note_on_c, 9, 54, 45
4, 94900, Note_on_c, 9, 36, 76
4, 94920, Note_off_c, 9, 36, 64
4, 94920, Note_off_c, 9, 54, 64
4, 95040, Note_on_c, 9, 53, 101
4, 95040, Note_on_c, 9, 54, 85
4, 95041, Note_off_c, 9, 53, 64
4, 95060, Note_off_c, 9, 54, 64
4, 95380, Note_on_c, 9, 54, 49
4, 95380, Note_on_c, 9, 36, 70
4, 95381, Note_off_c, 9, 54, 64
4, 95400, Note_off_c, 9, 36, 64
4, 95520, Note_on_c, 9, 57, 73
4, 95520, Note_on_c, 9, 40, 106
4, 95520, Note_on_c, 9, 54, 108
4, 95521, Note_off_c, 9, 40, 64
4, 95521, Note_off_c, 9, 57, 64
4, 95540, Note_off_c, 9, 54, 64
4, 95860, Note_on_c, 9, 54, 67
4, 95860, Note_on_c, 9, 36, 55
4, 95861, Note_off_c, 9, 54, 64
4, 95880, Note_off_c, 9, 36, 64
4, 96000, Note_on_c, 9, 38, 37
4, 96000, Note_on_c, 9, 54, 44
4, 96001, Note_off_c, 9, 38, 64
4, 96020, Note_off_c, 9, 54, 64
4, 96020, Note_on_c, 9, 36, 89
4, 96021, Note_off_c, 9, 36, 64
4, 96320, Note_on_c, 9, 38, 19
4, 96321, Note_off_c, 9, 38, 64
4, 96340, Note_on_c, 9, 54, 50
4, 96360, Note_off_c, 9, 54, 64
4, 96480, Note_on_c, 9, 40, 99
4, 96480, Note_on_c, 9, 54, 105
4, 96481, Note_off_c, 9, 54, 64
4, 96481, Note_off_c, 9, 40, 64
4, 96800, Note_on_c, 9, 38, 17
4, 96801, Note_off_c, 9, 38, 64
4, 96820, Note_on_c, 9, 36, 83
4, 96820, Note_on_c, 9, 54, 26
4, 96821, Note_off_c, 9, 36, 64
4, 96840, Note_off_c, 9, 54, 64
4, 96960, Note_on_c, 9, 38, 27
4, 96960, Note_on_c, 9, 54, 44
4, 96961, Note_off_c, 9, 54, 64
4, 96961, Note_off_c, 9, 38, 64
4, 97280, Note_on_c, 9, 38, 35
4, 97281, Note_off_c, 9, 38, 64
4, 97300, Note_on_c, 9, 54, 58
4, 97300, Note_on_c, 9, 36, 74
4, 97301, Note_off_c, 9, 54, 64
4, 97320, Note_off_c, 9, 36, 64
4, 97440, Note_on_c, 9, 40, 99
4, 97440, Note_on_c, 9, 54, 110
4, 97441, Note_off_c, 9, 40, 64
4, 97460, Note_off_c, 9, 54, 64
4, 97760, Note_on_c, 9, 38, 9
4, 97761, Note_off_c, 9, 38, 64
4, 97780, Note_on_c, 9, 54, 30
4, 97780, Note_on_c, 9, 36, 46
4, 97781, Note_off_c, 9, 54, 64
4, 97800, Note_off_c, 9, 36, 64
4, 97920, Note_on_c, 9, 38, 40
4, 97920, Note_on_c, 9, 54, 44
4, 97921, Note_off_c, 9, 38, 64
4, 97940, Note_off_c, 9, 54, 64
4, 97940, Note_on_c, 9, 36, 76
4, 97941, Note_off_c, 9, 36, 64
4, 98240, Note_on_c, 9, 38, 22
4, 98241, Note_off_c, 9, 38, 64
4, 98260, Note_on_c, 9, 54, 69
4, 98280, Note_off_c, 9, 54, 64
4, 98400, Note_on_c, 9, 40, 99
4, 98400, Note_on_c, 9, 54, 112
4, 98401, Note_off_c, 9, 40, 64
4, 98420, Note_off_c, 9, 54, 64
4, 98720, Note_on_c, 9, 38, 15
4, 98721, Note_off_c, 9, 38, 64
4, 98740, Note_on_c, 9, 54, 26
4, 98740, Note_on_c, 9, 36, 76
4, 98760, Note_off_c, 9, 36, 64
4, 98760, Note_off_c, 9, 54, 64
4, 98880, Note_on_c, 9, 38, 31
4, 98880, Note_on_c, 9, 54, 52
4, 98881, Note_off_c, 9, 38, 64
4, 98900, Note_off_c, 9, 54, 64
4, 99200, Note_on_c, 9, 38, 19
4, 99201, Note_off_c, 9, 38, 64
4, 99220, Note_on_c, 9, 54, 49
4, 99220, Note_on_c, 9, 36, 70
4, 99221, Note_off_c, 9, 54, 64
4, 99240, Note_off_c, 9, 36, 64
4, 99360, Note_on_c, 9, 40, 99
4, 99360, Note_on_c, 9, 54, 108
4, 99361, Note_off_c, 9, 40, 64
4, 99380, Note_off_c, 9, 54, 64
4, 99680, Note_on_c, 9, 38, 12
4, 99681, Note_off_c, 9, 38, 64
4, 99700, Note_on_c, 9, 54, 30
4, 99700, Note_on_c, 9, 36, 55
4, 99701, Note_off_c, 9, 54, 64
4, 99720, Note_off_c, 9, 36, 64
4, 99840, Note_on_c, 9, 38, 34
4, 99840, Note_on_c, 9, 36, 80
4, 99840, Note_on_c, 9, 54, 48
4, 99841, Note_off_c, 9, 38, 64
4, 99860, Note_off_c, 9, 36, 64
4, 99860, Note_off_c, 9, 54, 64
4, 100160, Note_on_c, 9, 38, 22
4, 100161, Note_off_c, 9, 38, 64
4, 100180, Note_on_c, 9, 54, 69
4, 100181, Note_off_c, 9, 54, 64
4, 100320, Note_on_c, 9, 40, 99
4, 100320, Note_on_c, 9, 54, 111
4, 100321, Note_off_c, 9, 40, 64
4, 100340, Note_off_c, 9, 54, 64
4, 100640, Note_on_c, 9, 38, 15
4, 100641, Note_off_c, 9, 38, 64
4, 100660, Note_on_c, 9, 54, 35
4, 100660, Note_on_c, 9, 36, 76
4, 100661, Note_off_c, 9, 54, 64
4, 100680, Note_off_c, 9, 36, 64
4, 100800, Note_on_c, 9, 38, 40
4, 100800, Note_on_c, 9, 54, 48
4, 100801, Note_off_c, 9, 38, 64
4, 100820, Note_off_c, 9, 54, 64
4, 101120, Note_on_c, 9, 40, 32
4, 101121, Note_off_c, 9, 40, 64
4, 101140, Note_on_c, 9, 36, 73
4, 101140, Note_on_c, 9, 54, 73
4, 101141, Note_off_c, 9, 54, 64
4, 101141, Note_off_c, 9, 36, 64
4, 101280, Note_on_c, 9, 40, 99
4, 101280, Note_on_c, 9, 54, 112
4, 101281, Note_off_c, 9, 40, 64
4, 101300, Note_off_c, 9, 54, 64
4, 101600, Note_on_c, 9, 38, 19
4, 101601, Note_off_c, 9, 38, 64
4, 101620, Note_on_c, 9, 36, 52
4, 101620, Note_on_c, 9, 54, 30
4, 101621, Note_off_c, 9, 36, 64
4, 101640, Note_off_c, 9, 54, 64
4, 101760, Note_on_c, 9, 38, 37
4, 101760, Note_on_c, 9, 54, 48
4, 101760, Note_on_c, 9, 36, 83
4, 101761, Note_off_c, 9, 38, 64
4, 101780, Note_off_c, 9, 54, 64
4, 101780, Note_off_c, 9, 36, 64
4, 102080, Note_on_c, 9, 40, 29
4, 102081, Note_off_c, 9, 40, 64
4, 102100, Note_on_c, 9, 54, 73
4, 102120, Note_off_c, 9, 54, 64
4, 102240, Note_on_c, 9, 40, 99
4, 102240, Note_on_c, 9, 54, 115
4, 102241, Note_off_c, 9, 40, 64
4, 102260, Note_off_c, 9, 54, 64
4, 102560, Note_on_c, 9, 38, 15
4, 102561, Note_off_c, 9, 38, 64
4, 102580, Note_on_c, 9, 54, 30
4, 102580, Note_on_c, 9, 36, 85
4, 102581, Note_off_c, 9, 36, 64
4, 102581, Note_off_c, 9, 54, 64
4, 102720, Note_on_c, 9, 38, 25
4, 102720, Note_on_c, 9, 54, 39
4, 102721, Note_off_c, 9, 54, 64
4, 102721, Note_off_c, 9, 38, 64
4, 103040, Note_on_c, 9, 38, 15
4, 103041, Note_off_c, 9, 38, 64
4, 103060, Note_on_c, 9, 36, 76
4, 103060, Note_on_c, 9, 54, 54
4, 103061, Note_off_c, 9, 54, 64
4, 103061, Note_off_c, 9, 36, 64
4, 103200, Note_on_c, 9, 40, 99
4, 103200, Note_on_c, 9, 54, 111
4, 103201, Note_off_c, 9, 54, 64
4, 103201, Note_off_c, 9, 40, 64
4, 103520, Note_on_c, 9, 38, 19
4, 103521, Note_off_c, 9, 38, 64
4, 103540, Note_on_c, 9, 54, 35
4, 103540, Note_on_c, 9, 36, 82
4, 103560, Note_off_c, 9, 36, 64
4, 103560, Note_off_c, 9, 54, 64
4, 103680, Note_on_c, 9, 38, 37
4, 103680, Note_on_c, 9, 54, 44
4, 103681, Note_off_c, 9, 38, 64
4, 103700, Note_off_c, 9, 54, 64
4, 103700, Note_on_c, 9, 36, 89
4, 103701, Note_off_c, 9, 36, 64
4, 104000, Note_on_c, 9, 38, 19
4, 104001, Note_off_c, 9, 38, 64
4, 104020, Note_on_c, 9, 54, 50
4, 104040, Note_off_c, 9, 54, 64
4, 104160, Note_on_c, 9, 40, 99
4, 104160, Note_on_c, 9, 54, 105
4, 104161, Note_off_c, 9, 54, 64
4, 104161, Note_off_c, 9, 40, 64
4, 104480, Note_on_c, 9, 38, 17
4, 104481, Note_off_c, 9, 38, 64
4, 104500, Note_on_c, 9, 36, 83
4, 104500, Note_on_c, 9, 54, 26
4, 104501, Note_off_c, 9, 36, 64
4, 104520, Note_off_c, 9, 54, 64
4, 104640, Note_on_c, 9, 38, 27
4, 104640, Note_on_c, 9, 54, 44
4, 104641, Note_off_c, 9, 54, 64
4, 104641, Note_off_c, 9, 38, 64
4, 104960, Note_on_c, 9, 38, 35
4, 104961, Note_off_c, 9, 38, 64
4, 104980, Note_on_c, 9, 54, 58
4, 104980, Note_on_c, 9, 36, 74
4, 104981, Note_off_c, 9, 54, 64
4, 105000, Note_off_c, 9, 36, 64
4, 105120, Note_on_c, 9, 40, 99
4, 105120, Note_on_c, 9, 54, 110
4, 105121, Note_off_c, 9, 40, 64
4, 105140, Note_off_c, 9, 54, 64
4, 105440, Note_on_c, 9, 38, 9
4, 105441, Note_off_c, 9, 38, 64
4, 105460, Note_on_c, 9, 54, 30
4, 105460, Note_on_c, 9, 36, 46
4, 105461, Note_off_c, 9, 54, 64
4, 105480, Note_off_c, 9, 36, 64
4, 105600, Note_on_c, 9, 38, 40
4, 105600, Note_on_c, 9, 54, 44
4, 105601, Note_off_c, 9, 38, 64
4, 105620, Note_off_c, 9, 54, 64
4, 105620, Note_on_c, 9, 36, 76
4, 105621, Note_off_c, 9, 36, 64
4, 105920, Note_on_c, 9, 38, 22
4, 105921, Note_off_c, 9, 38, 64
4, 105940, Note_on_c, 9, 54, 69
4, 105960, Note_off_c, 9, 54, 64
4, 106080, Note_on_c, 9, 40, 99
4, 106080, Note_on_c, 9, 54, 112
4, 106081, Note_off_c, 9, 40, 64
4, 106100, Note_off_c, 9, 54, 64
4, 106400, Note_on_c, 9, 38, 15
4, 106401, Note_off_c, 9, 38, 64
4, 106420, Note_on_c, 9, 54, 26
4, 106420, Note_on_c, 9, 36, 76
4, 106440, Note_off_c, 9, 36, 64
4, 106440, Note_off_c, 9, 54, 64
4, 106560, Note_on_c, 9, 38, 31
4, 106560, Note_on_c, 9, 54, 52
4, 106561, Note_off_c, 9, 38, 64
4, 106580, Note_off_c, 9, 54, 64
4, 106880, Note_on_c, 9, 38, 19
4, 106881, Note_off_c, 9, 38, 64
4, 106900, Note_on_c, 9, 54, 49
4, 106900, Note_on_c, 9, 36, 70
4, 106901, Note_off_c, 9, 54, 64
4, 106920, Note_off_c, 9, 36, 64
4, 107040, Note_on_c, 9, 40, 99
4, 107040, Note_on_c, 9, 54, 108
4, 107041, Note_off_c, 9, 40, 64
4, 107060, Note_off_c, 9, 54, 64
4, 107360, Note_on_c, 9, 38, 12
4, 107361, Note_off_c, 9, 38, 64
4, 107380, Note_on_c, 9, 54, 30
4, 107380, Note_on_c, 9, 36, 55
4, 107381, Note_off_c, 9, 54, 64
4, 107400, Note_off_c, 9, 36, 64
4, 107520, Note_on_c, 9, 38, 34
4, 107520, Note_on_c, 9, 36, 80
4, 107520, Note_on_c, 9, 54, 48
4, 107521, Note_off_c, 9, 38, 64
4, 107540, Note_off_c, 9, 36, 64
4, 107540, Note_off_c, 9, 54, 64
4, 107840, Note_on_c, 9, 38, 22
4, 107841, Note_off_c, 9, 38, 64
4, 107860, Note_on_c, 9, 54, 69
4, 107861, Note_off_c, 9, 54, 64
4, 108000, Note_on_c, 9, 40, 99
4, 108000, Note_on_c, 9, 54, 111
4, 108001, Note_off_c, 9, 40, 64
4, 108020, Note_off_c, 9, 54, 64
4, 108320, Note_on_c, 9, 38, 15
4, 108321, Note_off_c, 9, 38, 64
4, 108340, Note_on_c, 9, 54, 35
4, 108340, Note_on_c, 9, 36, 76
4, 108341, Note_off_c, 9, 54, 64
4, 108360, Note_off_c, 9, 36, 64
4, 108480, Note_on_c, 9, 38, 40
4, 108480, Note_on_c, 9, 54, 48
4, 108481, Note_off_c, 9, 38, 64
4, 108500, Note_off_c, 9, 54, 64
4, 108800, Note_on_c, 9, 40, 32
4, 108801, Note_off_c, 9, 40, 64
4, 108820, Note_on_c, 9, 36, 73
4, 108820, Note_on_c, 9, 54, 73
4, 108821, Note_off_c, 9, 54, 64
4, 108821, Note_off_c, 9, 36, 64
4, 108960, Note_on_c, 9, 40, 99
4, 108960, Note_on_c, 9, 54, 112
4, 108961, Note_off_c, 9, 40, 64
4, 108980, Note_off_c, 9, 54, 64
4, 109280, Note_on_c, 9, 38, 19
4, 109281, Note_off_c, 9, 38, 64
4, 109300, Note_on_c, 9, 36, 52
4, 109300, Note_on_c, 9, 54, 30
4, 109301, Note_off_c, 9, 36, 64
4, 109320, Note_off_c, 9, 54, 64
4, 109440, Note_on_c, 9, 38, 37
4, 109440, Note_on_c, 9, 54, 48
4, 109440, Note_on_c, 9, 36, 83
4, 109441, Note_off_c, 9, 38, 64
4, 109460, Note_off_c, 9, 54, 64
4, 109460, Note_off_c, 9, 36, 64
4, 109760, Note_on_c, 9, 40, 29
4, 109761, Note_off_c, 9, 40, 64
4, 109780, Note_on_c, 9, 54, 73
4, 109800, Note_off_c, 9, 54, 64
4, 109920, Note_on_c, 9, 40, 99
4, 109920, Note_on_c, 9, 54, 115
4, 109921, Note_off_c, 9, 40, 64
4, 109940, Note_off_c, 9, 54, 64
4, 110240, Note_on_c, 9, 38, 15
4, 110241, Note_off_c, 9, 38, 64
4, 110260, Note_on_c, 9, 54, 30
4, 110260, Note_on_c, 9, 36, 85
4, 110261, Note_off_c, 9, 36, 64
4, 110261, Note_off_c, 9, 54, 64
4, 110400, Note_on_c, 9, 38, 25
4, 110400, Note_on_c, 9, 54, 39
4, 110401, Note_off_c, 9, 54, 64
4, 110401, Note_off_c, 9, 38, 64
4, 110720, Note_on_c, 9, 38, 15
4, 110721, Note_off_c, 9, 38, 64
4, 110740, Note_on_c, 9, 36, 76
4, 110740, Note_on_c, 9, 54, 54
4, 110741, Note_off_c, 9, 54, 64
4, 110741, Note_off_c, 9, 36, 64
4, 110880, Note_on_c, 9, 40, 99
4, 110880, Note_on_c, 9, 54, 111
4, 110881, Note_off_c, 9, 54, 64
4, 110881, Note_off_c, 9, 40, 64
4, 111200, Note_on_c, 9, 38, 19
4, 111201, Note_off_c, 9, 38, 64
4, 111220, Note_on_c, 9, 54, 35
4, 111220, Note_on_c, 9, 36, 82
4, 111240, Note_off_c, 9, 36, 64
4, 111240, Note_off_c, 9, 54, 64
4, 111360, Note_on_c, 9, 38, 37
4, 111360, Note_on_c, 9, 54, 44
4, 111361, Note_off_c, 9, 38, 64
4, 111380, Note_off_c, 9, 54, 64
4, 111380, Note_on_c, 9, 36, 89
4, 111381, Note_off_c, 9, 36, 64
4, 111680, Note_on_c, 9, 38, 19
4, 111681, Note_off_c, 9, 38, 64
4, 111700, Note_on_c, 9, 54, 50
4, 111720, Note_off_c, 9, 54, 64
4, 111840, Note_on_c, 9, 40, 99
4, 111840, Note_on_c, 9, 54, 105
4, 111841, Note_off_c, 9, 54, 64
4, 111841, Note_off_c, 9, 40, 64
4, 112160, Note_on_c, 9, 38, 17
4, 112161, Note_off_c, 9, 38, 64
4, 112180, Note_on_c, 9, 36, 83
4, 112180, Note_on_c, 9, 54, 26
4, 112181, Note_off_c, 9, 36, 64
4, 112200, Note_off_c, 9, 54, 64
4, 112320, Note_on_c, 9, 38, 27
4, 112320, Note_on_c, 9, 54, 44
4, 112321, Note_off_c, 9, 54, 64
4, 112321, Note_off_c, 9, 38, 64
4, 112640, Note_on_c, 9, 38, 35
4, 112641, Note_off_c, 9, 38, 64
4, 112660, Note_on_c, 9, 54, 58
4, 112660, Note_on_c, 9, 36, 74
4, 112661, Note_off_c, 9, 54, 64
4, 112680, Note_off_c, 9, 36, 64
4, 112800, Note_on_c, 9, 40, 99
4, 112800, Note_on_c, 9, 54, 110
4, 112801, Note_off_c, 9, 40, 64
4, 112820, Note_off_c, 9, 54, 64
4, 113120, Note_on_c, 9, 38, 9
4, 113121, Note_off_c, 9, 38, 64
4, 113140, Note_on_c, 9, 54, 30
4, 113140, Note_on_c, 9, 36, 46
4, 113141, Note_off_c, 9, 54, 64
4, 113160, Note_off_c, 9, 36, 64
4, 113280, Note_on_c, 9, 38, 40
4, 113280, Note_on_c, 9, 54, 44
4, 113281, Note_off_c, 9, 38, 64
4, 113300, Note_off_c, 9, 54, 64
4, 113300, Note_on_c, 9, 36, 76
4, 113301, Note_off_c, 9, 36, 64
4, 113600, Note_on_c, 9, 38, 22
4, 113601, Note_off_c, 9, 38, 64
4, 113620, Note_on_c, 9, 54, 69
4, 113640, Note_off_c, 9, 54, 64
4, 113760, Note_on_c, 9, 40, 99
4, 113760, Note_on_c, 9, 54, 112
4, 113761, Note_off_c, 9, 40, 64
4, 113780, Note_off_c, 9, 54, 64
4, 114080, Note_on_c, 9, 38, 15
4, 114081, Note_off_c, 9, 38, 64
4, 114100, Note_on_c, 9, 54, 26
4, 114100, Note_on_c, 9, 36, 76
4, 114120, Note_off_c, 9, 36, 64
4, 114120, Note_off_c, 9, 54, 64
4, 114240, Note_on_c, 9, 38, 31
4, 114240, Note_on_c, 9, 54, 52
4, 114241, Note_off_c, 9, 38, 64
4, 114260, Note_off_c, 9, 54, 64
4, 114560, Note_on_c, 9, 38, 19
4, 114561, Note_off_c, 9, 38, 64
4, 114580, Note_on_c, 9, 54, 49
4, 114580, Note_on_c, 9, 36, 70
4, 114581, Note_off_c, 9, 54, 64
4, 114600, Note_off_c, 9, 36, 64
4, 114720, Note_on_c, 9, 40, 99
4, 114720, Note_on_c, 9, 54, 108
4, 114721, Note_off_c, 9, 40, 64
4, 114740, Note_off_c, 9, 54, 64
4, 115040, Note_on_c, 9, 38, 12
4, 115041, Note_off_c, 9, 38, 64
4, 115060, Note_on_c, 9, 54, 30
4, 115060, Note_on_c, 9, 36, 55
4, 115061, Note_off_c, 9, 54, 64
4, 115080, Note_off_c, 9, 36, 64
4, 115200, Note_on_c, 9, 38, 34
4, 115200, Note_on_c, 9, 36, 80
4, 115200, Note_on_c, 9, 54, 48
4, 115201, Note_off_c, 9, 38, 64
4, 115220, Note_off_c, 9, 36, 64
4, 115220, Note_off_c, 9, 54, 64
4, 115520, Note_on_c, 9, 38, 22
4, 115521, Note_off_c, 9, 38, 64
4, 115540, Note_on_c, 9, 54, 69
4, 115541, Note_off_c, 9, 54, 64
4, 115680, Note_on_c, 9, 40, 99
4, 115680, Note_on_c, 9, 54, 111
4, 115681, Note_off_c, 9, 40, 64
4, 115700, Note_off_c, 9, 54, 64
4, 116000, Note_on_c, 9, 38, 15
4, 116001, Note_off_c, 9, 38, 64
4, 116020, Note_on_c, 9, 54, 35
4, 116020, Note_on_c, 9, 36, 76
4, 116021, Note_off_c, 9, 54, 64
4, 116040, Note_off_c, 9, 36, 64
4, 116160, Note_on_c, 9, 38, 40
4, 116160, Note_on_c, 9, 54, 48
4, 116161, Note_off_c, 9, 38, 64
4, 116180, Note_off_c, 9, 54, 64
4, 116480, Note_on_c, 9, 40, 32
4, 116481, Note_off_c, 9, 40, 64
4, 116500, Note_on_c, 9, 36, 73
4, 116500, Note_on_c, 9, 54, 73
4, 116501, Note_off_c, 9, 54, 64
4, 116501, Note_off_c, 9, 36, 64
4, 116640, Note_on_c, 9, 40, 99
4, 116640, Note_on_c, 9, 54, 112
4, 116641, Note_off_c, 9, 40, 64
4, 116660, Note_off_c, 9, 54, 64
4, 116960, Note_on_c, 9, 38, 19
4, 116961, Note_off_c, 9, 38, 64
4, 116980, Note_on_c, 9, 36, 52
4, 116980, Note_on_c, 9, 54, 30
4, 116981, Note_off_c, 9, 36, 64
4, 117000, Note_off_c, 9, 54, 64
4, 117120, Note_on_c, 9, 38, 34
4, 117120, Note_on_c, 9, 36, 80
4, 117120, Note_on_c, 9, 54, 48
4, 117121, Note_off_c, 9, 38, 64
4, 117140, Note_off_c, 9, 36, 64
4, 117140, Note_off_c, 9, 54, 64
4, 117440, Note_on_c, 9, 38, 22
4, 117441, Note_off_c, 9, 38, 64
4, 117460, Note_on_c, 9, 54, 69
4, 117461, Note_off_c, 9, 54, 64
4, 117600, Note_on_c, 9, 40, 99
4, 117600, Note_on_c, 9, 54, 111
4, 117601, Note_off_c, 9, 40, 64
4, 117620, Note_off_c, 9, 54, 64
4, 117920, Note_on_c, 9, 38, 15
4, 117921, Note_off_c, 9, 38, 64
4, 117940, Note_on_c, 9, 54, 35
4, 117940, Note_on_c, 9, 36, 76
4, 117941, Note_off_c, 9, 54, 64
4, 117960, Note_off_c, 9, 36, 64
4, 118080, Note_on_c, 9, 38, 40
4, 118080, Note_on_c, 9, 54, 48
4, 118081, Note_off_c, 9, 38, 64
4, 118100, Note_off_c, 9, 54, 64
4, 118400, Note_on_c, 9, 40, 32
4, 118401, Note_off_c, 9, 40, 64
4, 118420, Note_on_c, 9, 36, 73
4, 118420, Note_on_c, 9, 54, 73
4, 118421, Note_off_c, 9, 54, 64
4, 118421, Note_off_c, 9, 36, 64
4, 118560, Note_on_c, 9, 40, 99
4, 118560, Note_on_c, 9, 54, 112
4, 118561, Note_off_c, 9, 40, 64
4, 118580, Note_off_c, 9, 54, 64
4, 118880, Note_on_c, 9, 38, 19
4, 118881, Note_off_c, 9, 38, 64
4, 118900, Note_on_c, 9, 36, 52
4, 118900, Note_on_c, 9, 54, 30
4, 118901, Note_off_c, 9, 36, 64
4, 118920, Note_off_c, 9, 54, 64
4, 119040, Note_on_c, 9, 53, 103
4, 119040, Note_on_c, 9, 36, 80
4, 119040, Note_on_c, 9, 54, 79
4, 119041, Note_off_c, 9, 53, 64
4, 119060, Note_off_c, 9, 36, 64
4, 119060, Note_off_c, 9, 54, 64
4, 119380, Note_on_c, 9, 54, 69
4, 119381, Note_off_c, 9, 54, 64
4, 119520, Note_on_c, 9, 57, 69
4, 119520, Note_on_c, 9, 40, 106
4, 119520, Note_on_c, 9, 54, 111
4, 119521, Note_off_c, 9, 40, 64
4, 119521, Note_off_c, 9, 57, 64
4, 119540, Note_off_c, 9, 54, 64
4, 119860, Note_on_c, 9, 54, 64
4, 119860, Note_on_c, 9, 36, 76
4, 119861, Note_off_c, 9, 54, 64
4, 119880, Note_off_c, 9, 36, 64
4, 120000, Note_on_c, 9, 53, 101
4, 120000, Note_on_c, 9, 54, 84
4, 120001, Note_off_c, 9, 53, 64
4, 120020, Note_off_c, 9, 54, 64
4, 120340, Note_on_c, 9, 36, 73
4, 120340, Note_on_c, 9, 54, 73
4, 120340, Note_on_c, 9, 40, 32
4, 120341, Note_off_c, 9, 54, 64
4, 120341, Note_off_c, 9, 36, 64
4, 120360, Note_off_c, 9, 40, 64
4, 120480, Note_on_c, 9, 57, 69
4, 120480, Note_on_c, 9, 40, 106
4, 120480, Note_on_c, 9, 54, 112
4, 120481, Note_off_c, 9, 40, 64
4, 120481, Note_off_c, 9, 57, 64
4, 120500, Note_off_c, 9, 54, 64
4, 120820, Note_on_c, 9, 36, 36
4, 120820, Note_on_c, 9, 54, 55
4, 120821, Note_off_c, 9, 36, 64
4, 120840, Note_off_c, 9, 54, 64
4, 120960, Note_on_c, 9, 53, 101
4, 120960, Note_on_c, 9, 54, 76
4, 120960, Note_on_c, 9, 36, 83
4, 120961, Note_off_c, 9, 53, 64
4, 120980, Note_off_c, 9, 54, 64
4, 120980, Note_off_c, 9, 36, 64
4, 121280, Note_on_c, 9, 40, 36
4, 121281, Note_off_c, 9, 40, 64
4, 121300, Note_on_c, 9, 54, 73
4, 121320, Note_off_c, 9, 54, 64
4, 121440, Note_on_c, 9, 40, 106
4, 121440, Note_on_c, 9, 57, 67
4, 121440, Note_on_c, 9, 54, 115
4, 121441, Note_off_c, 9, 57, 64
4, 121441, Note_off_c, 9, 40, 64
4, 121460, Note_off_c, 9, 54, 64
4, 121780, Note_on_c, 9, 54, 66
4, 121780, Note_on_c, 9, 36, 85
4, 121781, Note_off_c, 9, 36, 64
4, 121781, Note_off_c, 9, 54, 64
4, 121920, Note_on_c, 9, 53, 105
4, 121920, Note_on_c, 9, 54, 72
4, 121921, Note_off_c, 9, 54, 64
4, 121921, Note_off_c, 9, 53, 64
4, 122240, Note_on_c, 9, 36, 32
4, 122260, Note_off_c, 9, 36, 64
4, 122260, Note_on_c, 9, 54, 54
4, 122261, Note_off_c, 9, 54, 64
4, 122400, Note_on_c, 9, 57, 70
4, 122400, Note_on_c, 9, 40, 106
4, 122400, Note_on_c, 9, 54, 111
4, 122401, Note_off_c, 9, 54, 64
4, 122401, Note_off_c, 9, 40, 64
4, 122401, Note_off_c, 9, 57, 64
4, 122740, Note_on_c, 9, 54, 77
4, 122740, Note_on_c, 9, 36, 82
4, 122760, Note_off_c, 9, 36, 64
4, 122760, Note_off_c, 9, 54, 64
4, 122880, Note_on_c, 9, 53, 103
4, 122880, Note_on_c, 9, 54, 44
4, 122881, Note_off_c, 9, 53, 64
4, 122900, Note_off_c, 9, 54, 64
4, 122900, Note_on_c, 9, 36, 89
4, 122901, Note_off_c, 9, 36, 64
4, 123220, Note_on_c, 9, 54, 50
4, 123240, Note_off_c, 9, 54, 64
4, 123360, Note_on_c, 9, 40, 106
4, 123360, Note_on_c, 9, 54, 105
4, 123360, Note_on_c, 9, 57, 76
4, 123361, Note_off_c, 9, 57, 64
4, 123361, Note_off_c, 9, 54, 64
4, 123361, Note_off_c, 9, 40, 64
4, 123700, Note_on_c, 9, 36, 83
4, 123700, Note_on_c, 9, 54, 60
4, 123701, Note_off_c, 9, 36, 64
4, 123720, Note_off_c, 9, 54, 64
4, 123840, Note_on_c, 9, 53, 103
4, 123840, Note_on_c, 9, 54, 64
4, 123841, Note_off_c, 9, 54, 64
4, 123841, Note_off_c, 9, 53, 64
4, 124180, Note_on_c, 9, 54, 58
4, 124180, Note_on_c, 9, 36, 74
4, 124181, Note_off_c, 9, 54, 64
4, 124200, Note_off_c, 9, 36, 64
4, 124320, Note_on_c, 9, 57, 69
4, 124320, Note_on_c, 9, 40, 106
4, 124320, Note_on_c, 9, 54, 110
4, 124321, Note_off_c, 9, 40, 64
4, 124321, Note_off_c, 9, 57, 64
4, 124340, Note_off_c, 9, 54, 64
4, 124660, Note_on_c, 9, 54, 54
4, 124660, Note_on_c, 9, 36, 32
4, 124661, Note_off_c, 9, 54, 64
4, 124680, Note_off_c, 9, 36, 64
4, 124800, Note_on_c, 9, 53, 101
4, 124800, Note_on_c, 9, 54, 79
4, 124801, Note_off_c, 9, 53, 64
4, 124820, Note_off_c, 9, 54, 64
4, 124820, Note_on_c, 9, 36, 76
4, 124821, Note_off_c, 9, 36, 64
4, 125140, Note_on_c, 9, 54, 69
4, 125160, Note_off_c, 9, 54, 64
4, 125280, Note_on_c, 9, 57, 56
4, 125280, Note_on_c, 9, 40, 106
4, 125280, Note_on_c, 9, 54, 112
4, 125281, Note_off_c, 9, 40, 64
4, 125281, Note_off_c, 9, 57, 64
4, 125300, Note_off_c, 9, 54, 64
4, 125620, Note_on_c, 9, 54, 45
4, 125620, Note_on_c, 9, 36, 76
4, 125640, Note_off_c, 9, 36, 64
4, 125640, Note_off_c, 9, 54, 64
4, 125760, Note_on_c, 9, 53, 101
4, 125760, Note_on_c, 9, 54, 85
4, 125761, Note_off_c, 9, 53, 64
4, 125780, Note_off_c, 9, 54, 64
4, 126100, Note_on_c, 9, 54, 49
4, 126100, Note_on_c, 9, 36, 70
4, 126101, Note_off_c, 9, 54, 64
4, 126120, Note_off_c, 9, 36, 64
4, 126240, Note_on_c, 9, 57, 73
4, 126240, Note_on_c, 9, 40, 106
4, 126240, Note_on_c, 9, 54, 108
4, 126241, Note_off_c, 9, 40, 64
4, 126241, Note_off_c, 9, 57, 64
4, 126260, Note_off_c, 9, 54, 64
4, 126580, Note_on_c, 9, 54, 67
4, 126580, Note_on_c, 9, 36, 55
4, 126581, Note_off_c, 9, 54, 64
4, 126600, Note_off_c, 9, 36, 64
4, 126720, Note_on_c, 9, 53, 103
4, 126720, Note_on_c, 9, 36, 80
4, 126720, Note_on_c, 9, 54, 79
4, 126721, Note_off_c, 9, 53, 64
4, 126740, Note_off_c, 9, 36, 64
4, 126740, Note_off_c, 9, 54, 64
4, 127060, Note_on_c, 9, 54, 69
4, 127061, Note_off_c, 9, 54, 64
4, 127200, Note_on_c, 9, 57, 69
4, 127200, Note_on_c, 9, 40, 106
4, 127200, Note_on_c, 9, 54, 111
4, 127201, Note_off_c, 9, 40, 64
4, 127201, Note_off_c, 9, 57, 64
4, 127220, Note_off_c, 9, 54, 64
4, 127540, Note_on_c, 9, 54, 64
4, 127540, Note_on_c, 9, 36, 76
4, 127541, Note_off_c, 9, 54, 64
4, 127560, Note_off_c, 9, 36, 64
4, 127680, Note_on_c, 9, 53, 101
4, 127680, Note_on_c, 9, 54, 84
4, 127681, Note_off_c, 9, 53, 64
4, 127700, Note_off_c, 9, 54, 64
4, 128020, Note_on_c, 9, 36, 73
4, 128020, Note_on_c, 9, 54, 73
4, 128020, Note_on_c, 9, 40, 32
4, 128021, Note_off_c, 9, 54, 64
4, 128021, Note_off_c, 9, 36, 64
4, 128040, Note_off_c, 9, 40, 64
4, 128160, Note_on_c, 9, 57, 69
4, 128160, Note_on_c, 9, 40, 106
4, 128160, Note_on_c, 9, 54, 112
4, 128161, Note_off_c, 9, 40, 64
4, 128161, Note_off_c, 9, 57, 64
4, 128180, Note_off_c, 9, 54, 64
4, 128500, Note_on_c, 9, 36, 36
4, 128500, Note_on_c, 9, 54, 55
4, 128501, Note_off_c, 9, 36, 64
4, 128520, Note_off_c, 9, 54, 64
4, 128640, Note_on_c, 9, 53, 101
4, 128640, Note_on_c, 9, 54, 76
4, 128640, Note_on_c, 9, 36, 83
4, 128641, Note_off_c, 9, 53, 64
4, 128660, Note_off_c, 9, 54, 64
4, 128660, Note_off_c, 9, 36, 64
4, 128960, Note_on_c, 9, 40, 36
4, 128961, Note_off_c, 9, 40, 64
4, 128980, Note_on_c, 9, 54, 73
4, 129000, Note_off_c, 9, 54, 64
4, 129120, Note_on_c, 9, 40, 106
4, 129120, Note_on_c, 9, 57, 67
4, 129120, Note_on_c, 9, 54, 115
4, 129121, Note_off_c, 9, 57, 64
4, 129121, Note_off_c, 9, 40, 64
4, 129140, Note_off_c, 9, 54, 64
4, 129460, Note_on_c, 9, 54, 66
4, 129460, Note_on_c, 9, 36, 85
4, 129461, Note_off_c, 9, 36, 64
4, 129461, Note_off_c, 9, 54, 64
4, 129600, Note_on_c, 9, 53, 105
4, 129600, Note_on_c, 9, 54, 72
4, 129601, Note_off_c, 9, 54, 64
4, 129601, Note_off_c, 9, 53, 64
4, 129920, Note_on_c, 9, 36, 32
4, 129940, Note_off_c, 9, 36, 64
4, 129940, Note_on_c, 9, 54, 54
4, 129941, Note_off_c, 9, 54, 64
4, 130080, Note_on_c, 9, 57, 70
4, 130080, Note_on_c, 9, 40, 106
4, 130080, Note_on_c, 9, 54, 111
4, 130081, Note_off_c, 9, 54, 64
4, 130081, Note_off_c, 9, 40, 64
4, 130081, Note_off_c, 9, 57, 64
4, 130420, Note_on_c, 9, 54, 77
4, 130420, Note_on_c, 9, 36, 82
4, 130440, Note_off_c, 9, 36, 64
4, 130440, Note_off_c, 9, 54, 64
4, 130560, Note_on_c, 9, 53, 103
4, 130560, Note_on_c, 9, 54, 44
4, 130561, Note_off_c, 9, 53, 64
4, 130580, Note_off_c, 9, 54, 64
4, 130580, Note_on_c, 9, 36, 89
4, 130581, Note_off_c, 9, 36, 64
4, 130900, Note_on_c, 9, 54, 50
4, 130920, Note_off_c, 9, 54, 64
4, 131040, Note_on_c, 9, 40, 106
4, 131040, Note_on_c, 9, 54, 105
4, 131040, Note_on_c, 9, 57, 76
4, 131041, Note_off_c, 9, 57, 64
4, 131041, Note_off_c, 9, 54, 64
4, 131041, Note_off_c, 9, 40, 64
4, 131380, Note_on_c, 9, 36, 83
4, 131380, Note_on_c, 9, 54, 60
4, 131381, Note_off_c, 9, 36, 64
4, 131400, Note_off_c, 9, 54, 64
4, 131520, Note_on_c, 9, 53, 103
4, 131520, Note_on_c, 9, 54, 64
4, 131521, Note_off_c, 9, 54, 64
4, 131521, Note_off_c, 9, 53, 64
4, 131860, Note_on_c, 9, 54, 58
4, 131860, Note_on_c, 9, 36, 74
4, 131861, Note_off_c, 9, 54, 64
4, 131880, Note_off_c, 9, 36, 64
4, 132000, Note_on_c, 9, 57, 69
4, 132000, Note_on_c, 9, 40, 106
4, 132000, Note_on_c, 9, 54, 110
4, 132001, Note_off_c, 9, 40, 64
4, 132001, Note_off_c, 9, 57, 64
4, 132020, Note_off_c, 9, 54, 64
4, 132340, Note_on_c, 9, 54, 54
4, 132340, Note_on_c, 9, 36, 32
4, 132341, Note_off_c, 9, 54, 64
4, 132360, Note_off_c, 9, 36, 64
4, 132480, Note_on_c, 9, 53, 101
4, 132480, Note_on_c, 9, 54, 79
4, 132481, Note_off_c, 9, 53, 64
4, 132500, Note_off_c, 9, 54, 64
4, 132500, Note_on_c, 9, 36, 76
4, 132501, Note_off_c, 9, 36, 64
4, 132820, Note_on_c, 9, 54, 69
4, 132840, Note_off_c, 9, 54, 64
4, 132960, Note_on_c, 9, 57, 56
4, 132960, Note_on_c, 9, 40, 106
4, 132960, Note_on_c, 9, 54, 112
4, 132961, Note_off_c, 9, 40, 64
4, 132961, Note_off_c, 9, 57, 64
4, 132980, Note_off_c, 9, 54, 64
4, 133300, Note_on_c, 9, 54, 45
4, 133300, Note_on_c, 9, 36, 76
4, 133320, Note_off_c, 9, 36, 64
4, 133320, Note_off_c, 9, 54, 64
4, 133440, Note_on_c, 9, 53, 101
4, 133440, Note_on_c, 9, 54, 85
4, 133441, Note_off_c, 9, 53, 64
4, 133460, Note_off_c, 9, 54, 64
4, 133780, Note_on_c, 9, 54, 49
4, 133780, Note_on_c, 9, 36, 70
4, 133781, Note_off_c, 9, 54, 64
4, 133800, Note_off_c, 9, 36, 64
4, 133920, Note_on_c, 9, 57, 73
4, 133920, Note_on_c, 9, 40, 106
4, 133920, Note_on_c, 9, 54, 108
4, 133921, Note_off_c, 9, 40, 64
4, 133921, Note_off_c, 9, 57, 64
4, 133940, Note_off_c, 9, 54, 64
4, 134260, Note_on_c, 9, 54, 67
4, 134260, Note_on_c, 9, 36, 55
4, 134261, Note_off_c, 9, 54, 64
4, 134280, Note_off_c, 9, 36, 64
4, 134400, Note_on_c, 9, 53, 103
4, 134400, Note_on_c, 9, 36, 80
4, 134400, Note_on_c, 9, 54, 79
4, 134401, Note_off_c, 9, 53, 64
4, 134420, Note_off_c, 9, 36, 64
4, 134420, Note_off_c, 9, 54, 64
4, 134740, Note_on_c, 9, 54, 69
4, 134741, Note_off_c, 9, 54, 64
4, 134880, Note_on_c, 9, 57, 69
4, 134880, Note_on_c, 9, 40, 106
4, 134880, Note_on_c, 9, 54, 111
4, 134881, Note_off_c, 9, 40, 64
4, 134881, Note_off_c, 9, 57, 64
4, 134900, Note_off_c, 9, 54, 64
4, 135220, Note_on_c, 9, 54, 64
4, 135220, Note_on_c, 9, 36, 76
4, 135221, Note_off_c, 9, 54, 64
4, 135240, Note_off_c, 9, 36, 64
4, 135360, Note_on_c, 9, 53, 101
4, 135360, Note_on_c, 9, 54, 84
4, 135361, Note_off_c, 9, 53, 64
4, 135380, Note_off_c, 9, 54, 64
4, 135700, Note_on_c, 9, 36, 73
4, 135700, Note_on_c, 9, 54, 73
4, 135700, Note_on_c, 9, 40, 32
4, 135701, Note_off_c, 9, 54, 64
4, 135701, Note_off_c, 9, 36, 64
4, 135720, Note_off_c, 9, 40, 64
4, 135840, Note_on_c, 9, 57, 69
4, 135840, Note_on_c, 9, 40, 106
4, 135840, Note_on_c, 9, 54, 112
4, 135841, Note_off_c, 9, 40, 64
4, 135841, Note_off_c, 9, 57, 64
4, 135860, Note_off_c, 9, 54, 64
4, 136180, Note_on_c, 9, 36, 36
4, 136180, Note_on_c, 9, 54, 55
4, 136181, Note_off_c, 9, 36, 64
4, 136200, Note_off_c, 9, 54, 64
4, 136320, Note_on_c, 9, 53, 101
4, 136320, Note_on_c, 9, 54, 76
4, 136320, Note_on_c, 9, 36, 83
4, 136321, Note_off_c, 9, 53, 64
4, 136340, Note_off_c, 9, 54, 64
4, 136340, Note_off_c, 9, 36, 64
4, 136640, Note_on_c, 9, 40, 36
4, 136641, Note_off_c, 9, 40, 64
4, 136660, Note_on_c, 9, 54, 73
4, 136680, Note_off_c, 9, 54, 64
4, 136800, Note_on_c, 9, 40, 106
4, 136800, Note_on_c, 9, 57, 67
4, 136800, Note_on_c, 9, 54, 115
4, 136801, Note_off_c, 9, 57, 64
4, 136801, Note_off_c, 9, 40, 64
4, 136820, Note_off_c, 9, 54, 64
4, 137140, Note_on_c, 9, 54, 66
4, 137140, Note_on_c, 9, 36, 85
4, 137141, Note_off_c, 9, 36, 64
4, 137141, Note_off_c, 9, 54, 64
4, 137280, Note_on_c, 9, 53, 105
4, 137280, Note_on_c, 9, 54, 72
4, 137281, Note_off_c, 9, 54, 64
4, 137281, Note_off_c, 9, 53, 64
4, 137600, Note_on_c, 9, 36, 32
4, 137620, Note_off_c, 9, 36, 64
4, 137620, Note_on_c, 9, 54, 54
4, 137621, Note_off_c, 9, 54, 64
4, 137760, Note_on_c, 9, 57, 70
4, 137760, Note_on_c, 9, 40, 106
4, 137760, Note_on_c, 9, 54, 111
4, 137761, Note_off_c, 9, 54, 64
4, 137761, Note_off_c, 9, 40, 64
4, 137761, Note_off_c, 9, 57, 64
4, 138100, Note_on_c, 9, 54, 77
4, 138100, Note_on_c, 9, 36, 82
4, 138120, Note_off_c, 9, 36, 64
4, 138120, Note_off_c, 9, 54, 64
4, 138240, Note_on_c, 9, 53, 103
4, 138240, Note_on_c, 9, 54, 44
4, 138241, Note_off_c, 9, 53, 64
4, 138260, Note_off_c, 9, 54, 64
4, 138260, Note_on_c, 9, 36, 89
4, 138261, Note_off_c, 9, 36, 64
4, 138580, Note_on_c, 9, 54, 50
4, 138600, Note_off_c, 9, 54, 64
4, 138720, Note_on_c, 9, 40, 106
4, 138720, Note_on_c, 9, 54, 105
4, 138720, Note_on_c, 9, 57, 76
4, 138721, Note_off_c, 9, 57, 64
4, 138721, Note_off_c, 9, 54, 64
4, 138721, Note_off_c, 9, 40, 64
4, 139060, Note_on_c, 9, 36, 83
4, 139060, Note_on_c, 9, 54, 60
4, 139061, Note_off_c, 9, 36, 64
4, 139080, Note_off_c, 9, 54, 64
4, 139200, Note_on_c, 9, 53, 103
4, 139200, Note_on_c, 9, 54, 64
4, 139201, Note_off_c, 9, 54, 64
4, 139201, Note_off_c, 9, 53, 64
4, 139540, Note_on_c, 9, 54, 58
4, 139540, Note_on_c, 9, 36, 74
4, 139541, Note_off_c, 9, 54, 64
4, 139560, Note_off_c, 9, 36, 64
4, 139680, Note_on_c, 9, 57, 69
4, 139680, Note_on_c, 9, 40, 106
4, 139680, Note_on_c, 9, 54, 110
4, 139681, Note_off_c, 9, 40, 64
4, 139681, Note_off_c, 9, 57, 64
4, 139700, Note_off_c, 9, 54, 64
4, 140020, Note_on_c, 9, 54, 54
4, 140020, Note_on_c, 9, 36, 32
4, 140021, Note_off_c, 9, 54, 64
4, 140040, Note_off_c, 9, 36, 64
4, 140160, Note_on_c, 9, 53, 101
4, 140160, Note_on_c, 9, 54, 79
4, 140161, Note_off_c, 9, 53, 64
4, 140180, Note_off_c, 9, 54, 64
4, 140180, Note_on_c, 9, 36, 76
4, 140181, Note_off_c, 9, 36, 64
4, 140500, Note_on_c, 9, 54, 69
4, 140520, Note_off_c, 9, 54, 64
4, 140640, Note_on_c, 9, 57, 56
4, 140640, Note_on_c, 9, 40, 106
4, 140640, Note_on_c, 9, 54, 112
4, 140641, Note_off_c, 9, 40, 64
4, 140641, Note_off_c, 9, 57, 64
4, 140660, Note_off_c, 9, 54, 64
4, 140980, Note_on_c, 9, 54, 45
4, 140980, Note_on_c, 9, 36, 76
4, 141000, Note_off_c, 9, 36, 64
4, 141000, Note_off_c, 9, 54, 64
4, 141120, Note_on_c, 9, 53, 101
4, 141120, Note_on_c, 9, 54, 85
4, 141121, Note_off_c, 9, 53, 64
4, 141140, Note_off_c, 9, 54, 64
4, 141460, Note_on_c, 9, 54, 49
4, 141460, Note_on_c, 9, 36, 70
4, 141461, Note_off_c, 9, 54, 64
4, 141480, Note_off_c, 9, 36, 64
4, 141600, Note_on_c, 9, 57, 73
4, 141600, Note_on_c, 9, 40, 106
4, 141600, Note_on_c, 9, 54, 108
4, 141601, Note_off_c, 9, 40, 64
4, 141601, Note_off_c, 9, 57, 64
4, 141620, Note_off_c, 9, 54, 64
4, 141940, Note_on_c, 9, 54, 67
4, 141940, Note_on_c, 9, 36, 55
4, 141941, Note_off_c, 9, 54, 64
4, 141960, Note_off_c, 9, 36, 64
4, 142080, Note_on_c, 9, 53, 103
4, 142080, Note_on_c, 9, 36, 80
4, 142080, Note_on_c, 9, 54, 79
4, 142081, Note_off_c, 9, 53, 64
4, 142100, Note_off_c, 9, 36, 64
4, 142100, Note_off_c, 9, 54, 64
4, 142420, Note_on_c, 9, 54, 69
4, 142421, Note_off_c, 9, 54, 64
4, 142560, Note_on_c, 9, 57, 69
4, 142560, Note_on_c, 9, 40, 106
4, 142560, Note_on_c, 9, 54, 111
4, 142561, Note_off_c, 9, 40, 64
4, 142561, Note_off_c, 9, 57, 64
4, 142580, Note_off_c, 9, 54, 64
4, 142900, Note_on_c, 9, 54, 64
4, 142900, Note_on_c, 9, 36, 76
4, 142901, Note_off_c, 9, 54, 64
4, 142920, Note_off_c, 9, 36, 64
4, 143040, Note_on_c, 9, 53, 101
4, 143040, Note_on_c, 9, 54, 84
4, 143041, Note_off_c, 9, 53, 64
4, 143060, Note_off_c, 9, 54, 64
4, 143380, Note_on_c, 9, 36, 73
4, 143380, Note_on_c, 9, 54, 73
4, 143380, Note_on_c, 9, 40, 32
4, 143381, Note_off_c, 9, 54, 64
4, 143381, Note_off_c, 9, 36, 64
4, 143400, Note_off_c, 9, 40, 64
4, 143520, Note_on_c, 9, 57, 69
4, 143520, Note_on_c, 9, 40, 106
4, 143520, Note_on_c, 9, 54, 112
4, 143521, Note_off_c, 9, 40, 64
4, 143521, Note_off_c, 9, 57, 64
4, 143540, Note_off_c, 9, 54, 64
4, 143860, Note_on_c, 9, 36, 36
4, 143860, Note_on_c, 9, 54, 55
4, 143861, Note_off_c, 9, 36, 64
4, 143880, Note_off_c, 9, 54, 64
4, 144000, Note_on_c, 9, 53, 101
4, 144000, Note_on_c, 9, 54, 76
4, 144000, Note_on_c, 9, 36, 83
4, 144001, Note_off_c, 9, 53, 64
4, 144020, Note_off_c, 9, 54, 64
4, 144020, Note_off_c, 9, 36, 64
4, 144320, Note_on_c, 9, 40, 36
4, 144321, Note_off_c, 9, 40, 64
4, 144340, Note_on_c, 9, 54, 73
4, 144360, Note_off_c, 9, 54, 64
4, 144480, Note_on_c, 9, 40, 106
4, 144480, Note_on_c, 9, 57, 67
4, 144480, Note_on_c, 9, 54, 115
4, 144481, Note_off_c, 9, 57, 64
4, 144481, Note_off_c, 9, 40, 64
4, 144500, Note_off_c, 9, 54, 64
4, 144820, Note_on_c, 9, 54, 66
4, 144820, Note_on_c, 9, 36, 85
4, 144821, Note_off_c, 9, 36, 64
4, 144821, Note_off_c, 9, 54, 64
4, 144960, Note_on_c, 9, 53, 105
4, 144960, Note_on_c, 9, 54, 72
4, 144961, Note_off_c, 9, 54, 64
4, 144961, Note_off_c, 9, 53, 64
4, 145280, Note_on_c, 9, 36, 32
4, 145300, Note_off_c, 9, 36, 64
4, 145300, Note_on_c, 9, 54, 54
4, 145301, Note_off_c, 9, 54, 64
4, 145440, Note_on_c, 9, 57, 70
4, 145440, Note_on_c, 9, 40, 106
4, 145440, Note_on_c, 9, 54, 111
4, 145441, Note_off_c, 9, 54, 64
4, 145441, Note_off_c, 9, 40, 64
4, 145441, Note_off_c, 9, 57, 64
4, 145780, Note_on_c, 9, 54, 77
4, 145780, Note_on_c, 9, 36, 82
4, 145800, Note_off_c, 9, 36, 64
4, 145800, Note_off_c, 9, 54, 64
4, 145920, Note_on_c, 9, 53, 103
4, 145920, Note_on_c, 9, 54, 44
4, 145921, Note_off_c, 9, 53, 64
4, 145940, Note_off_c, 9, 54, 64
4, 145940, Note_on_c, 9, 36, 89
4, 145941, Note_off_c, 9, 36, 64
4, 146260, Note_on_c, 9, 54, 50
4, 146280, Note_off_c, 9, 54, 64
4, 146400, Note_on_c, 9, 40, 106
4, 146400, Note_on_c, 9, 54, 105
4, 146400, Note_on_c, 9, 57, 76
4, 146401, Note_off_c, 9, 57, 64
4, 146401, Note_off_c, 9, 54, 64
4, 146401, Note_off_c, 9, 40, 64
4, 146740, Note_on_c, 9, 36, 83
4, 146740, Note_on_c, 9, 54, 60
4, 146741, Note_off_c, 9, 36, 64
4, 146760, Note_off_c, 9, 54, 64
4, 146880, Note_on_c, 9, 53, 103
4, 146880, Note_on_c, 9, 54, 64
4, 146881, Note_off_c, 9, 54, 64
4, 146881, Note_off_c, 9, 53, 64
4, 147220, Note_on_c, 9, 54, 58
4, 147220, Note_on_c, 9, 36, 74
4, 147221, Note_off_c, 9, 54, 64
4, 147240, Note_off_c, 9, 36, 64
4, 147360, Note_on_c, 9, 57, 69
4, 147360, Note_on_c, 9, 40, 106
4, 147360, Note_on_c, 9, 54, 110
4, 147361, Note_off_c, 9, 40, 64
4, 147361, Note_off_c, 9, 57, 64
4, 147380, Note_off_c, 9, 54, 64
4, 147700, Note_on_c, 9, 54, 54
4, 147700, Note_on_c, 9, 36, 32
4, 147701, Note_off_c, 9, 54, 64
4, 147720, Note_off_c, 9, 36, 64
4, 147840, Note_on_c, 9, 53, 101
4, 147840, Note_on_c, 9, 54, 79
4, 147841, Note_off_c, 9, 53, 64
4, 147860, Note_off_c, 9, 54, 64
4, 147860, Note_on_c, 9, 36, 76
4, 147861, Note_off_c, 9, 36, 64
4, 148180, Note_on_c, 9, 54, 69
4, 148200, Note_off_c, 9, 54, 64
4, 148320, Note_on_c, 9, 57, 56
4, 148320, Note_on_c, 9, 40, 106
4, 148320, Note_on_c, 9, 54, 112
4, 148321, Note_off_c, 9, 40, 64
4, 148321, Note_off_c, 9, 57, 64
4, 148340, Note_off_c, 9, 54, 64
4, 148660, Note_on_c, 9, 54, 45
4, 148660, Note_on_c, 9, 36, 76
4, 148680, Note_off_c, 9, 36, 64
4, 148680, Note_off_c, 9, 54, 64
4, 148800, Note_on_c, 9, 53, 101
4, 148800, Note_on_c, 9, 54, 85
4, 148801, Note_off_c, 9, 53, 64
4, 148820, Note_off_c, 9, 54, 64
4, 149140, Note_on_c, 9, 54, 49
4, 149140, Note_on_c, 9, 36, 70
4, 149141, Note_off_c, 9, 54, 64
4, 149160, Note_off_c, 9, 36, 64
4, 149280, Note_on_c, 9, 57, 73
4, 149280, Note_on_c, 9, 40, 106
4, 149280, Note_on_c, 9, 54, 108
4, 149281, Note_off_c, 9, 40, 64
4, 149281, Note_off_c, 9, 57, 64
4, 149300, Note_off_c, 9, 54, 64
4, 149620, Note_on_c, 9, 54, 67
4, 149620, Note_on_c, 9, 36, 55
4, 149621, Note_off_c, 9, 54, 64
4, 149640, Note_off_c, 9, 36, 64
4, 149760, Note_on_c, 9, 53, 103
4, 149760, Note_on_c, 9, 36, 80
4, 149760, Note_on_c, 9, 54, 79
4, 149761, Note_off_c, 9, 53, 64
4, 149780, Note_off_c, 9, 36, 64
4, 149780, Note_off_c, 9, 54, 64
4, 150100, Note_on_c, 9, 54, 69
4, 150101, Note_off_c, 9, 54, 64
4, 150240, Note_on_c, 9, 57, 69
4, 150240, Note_on_c, 9, 40, 106
4, 150240, Note_on_c, 9, 54, 111
4, 150241, Note_off_c, 9, 40, 64
4, 150241, Note_off_c, 9, 57, 64
4, 150260, Note_off_c, 9, 54, 64
4, 150580, Note_on_c, 9, 54, 64
4, 150580, Note_on_c, 9, 36, 76
4, 150581, Note_off_c, 9, 54, 64
4, 150600, Note_off_c, 9, 36, 64
4, 150720, Note_on_c, 9, 53, 101
4, 150720, Note_on_c, 9, 54, 84
4, 150721, Note_off_c, 9, 53, 64
4, 150740, Note_off_c, 9, 54, 64
4, 151060, Note_on_c, 9, 36, 73
4, 151060, Note_on_c, 9, 54, 73
4, 151060, Note_on_c, 9, 40, 32
4, 151061, Note_off_c, 9, 54, 64
4, 151061, Note_off_c, 9, 36, 64
4, 151080, Note_off_c, 9, 40, 64
4, 151200, Note_on_c, 9, 57, 69
4, 151200, Note_on_c, 9, 40, 106
4, 151200, Note_on_c, 9, 54, 112
4, 151201, Note_off_c, 9, 40, 64
4, 151201, Note_off_c, 9, 57, 64
4, 151220, Note_off_c, 9, 54, 64
4, 151540, Note_on_c, 9, 36, 36
4, 151540, Note_on_c, 9, 54, 55
4, 151541, Note_off_c, 9, 36, 64
4, 151560, Note_off_c, 9, 54, 64
4, 151680, Note_on_c, 9, 53, 101
4, 151680, Note_on_c, 9, 54, 76
4, 151680, Note_on_c, 9, 36, 83
4, 151681, Note_off_c, 9, 53, 64
4, 151700, Note_off_c, 9, 54, 64
4, 151700, Note_off_c, 9, 36, 64
4, 152000, Note_on_c, 9, 40, 36
4, 152001, Note_off_c, 9, 40, 64
4, 152020, Note_on_c, 9, 54, 73
4, 152040, Note_off_c, 9, 54, 64
4, 152160, Note_on_c, 9, 40, 106
4, 152160, Note_on_c, 9, 57, 67
4, 152160, Note_on_c, 9, 54, 115
4, 152161, Note_off_c, 9, 57, 64
4, 152161, Note_off_c, 9, 40, 64
4, 152180, Note_off_c, 9, 54, 64
4, 152500, Note_on_c, 9, 54, 66
4, 152500, Note_on_c, 9, 36, 85
4, 152501, Note_off_c, 9, 36, 64
4, 152501, Note_off_c, 9, 54, 64
4, 152640, Note_on_c, 9, 53, 105
4, 152640, Note_on_c, 9, 54, 72
4, 152641, Note_off_c, 9, 54, 64
4, 152641, Note_off_c, 9, 53, 64
4, 152960, Note_on_c, 9, 36, 32
4, 152980, Note_off_c, 9, 36, 64
4, 152980, Note_on_c, 9, 54, 54
4, 152981, Note_off_c, 9, 54, 64
4, 153120, Note_on_c, 9, 57, 70
4, 153120, Note_on_c, 9, 40, 106
4, 153120, Note_on_c, 9, 54, 111
4, 153121, Note_off_c, 9, 54, 64
4, 153121, Note_off_c, 9, 40, 64
4, 153121, Note_off_c, 9, 57, 64
4, 153460, Note_on_c, 9, 54, 77
4, 153460, Note_on_c, 9, 36, 82
4, 153480, Note_off_c, 9, 36, 64
4, 153480, Note_off_c, 9, 54, 64
4, 153600, Note_on_c, 9, 53, 103
4, 153600, Note_on_c, 9, 54, 44
4, 153601, Note_off_c, 9, 53, 64
4, 153620, Note_off_c, 9, 54, 64
4, 153620, Note_on_c, 9, 36, 89
4, 153621, Note_off_c, 9, 36, 64
4, 153940, Note_on_c, 9, 54, 50
4, 153960, Note_off_c, 9, 54, 64
4, 154080, Note_on_c, 9, 40, 106
4, 154080, Note_on_c, 9, 54, 105
4, 154080, Note_on_c, 9, 57, 76
4, 154081, Note_off_c, 9, 57, 64
4, 154081, Note_off_c, 9, 54, 64
4, 154081, Note_off_c, 9, 40, 64
4, 154420, Note_on_c, 9, 36, 83
4, 154420, Note_on_c, 9, 54, 60
4, 154421, Note_off_c, 9, 36, 64
4, 154440, Note_off_c, 9, 54, 64
4, 154560, Note_on_c, 9, 53, 103
4, 154560, Note_on_c, 9, 54, 64
4, 154561, Note_off_c, 9, 54, 64
4, 154561, Note_off_c, 9, 53, 64
4, 154900, Note_on_c, 9, 54, 58
4, 154900, Note_on_c, 9, 36, 74
4, 154901, Note_off_c, 9, 54, 64
4, 154920, Note_off_c, 9, 36, 64
4, 155040, Note_on_c, 9, 57, 69
4, 155040, Note_on_c, 9, 40, 106
4, 155040, Note_on_c, 9, 54, 110
4, 155041, Note_off_c, 9, 40, 64
4, 155041, Note_off_c, 9, 57, 64
4, 155060, Note_off_c, 9, 54, 64
4, 155380, Note_on_c, 9, 54, 54
4, 155380, Note_on_c, 9, 36, 32
4, 155381, Note_off_c, 9, 54, 64
4, 155400, Note_off_c, 9, 36, 64
4, 155520, Note_on_c, 9, 53, 101
4, 155520, Note_on_c, 9, 54, 79
4, 155521, Note_off_c, 9, 53, 64
4, 155540, Note_off_c, 9, 54, 64
4, 155540, Note_on_c, 9, 36, 76
4, 155541, Note_off_c, 9, 36, 64
4, 155860, Note_on_c, 9, 54, 69
4, 155880, Note_off_c, 9, 54, 64
4, 156000, Note_on_c, 9, 57, 56
4, 156000, Note_on_c, 9, 40, 106
4, 156000, Note_on_c, 9, 54, 112
4, 156001, Note_off_c, 9, 40, 64
4, 156001, Note_off_c, 9, 57, 64
4, 156020, Note_off_c, 9, 54, 64
4, 156340, Note_on_c, 9, 54, 45
4, 156340, Note_on_c, 9, 36, 76
4, 156360, Note_off_c, 9, 36, 64
4, 156360, Note_off_c, 9, 54, 64
4, 156480, Note_on_c, 9, 53, 101
4, 156480, Note_on_c, 9, 54, 85
4, 156481, Note_off_c, 9, 53, 64
4, 156500, Note_off_c, 9, 54, 64
4, 156820, Note_on_c, 9, 54, 49
4, 156820, Note_on_c, 9, 36, 70
4, 156821, Note_off_c, 9, 54, 64
4, 156840, Note_off_c, 9, 36, 64
4, 156960, Note_on_c, 9, 57, 73
4, 156960, Note_on_c, 9, 40, 106
4, 156960, Note_on_c, 9, 54, 108
4, 156961, Note_off_c, 9, 40, 64
4, 156961, Note_off_c, 9, 57, 64
4, 156980, Note_off_c, 9, 54, 64
4, 157300, Note_on_c, 9, 54, 67
4, 157300, Note_on_c, 9, 36, 55
4, 157301, Note_off_c, 9, 54, 64
4, 157320, Note_off_c, 9, 36, 64
4, 157440, Note_on_c, 9, 53, 103
4, 157440, Note_on_c, 9, 36, 80
4, 157440, Note_on_c, 9, 54, 79
4, 157441, Note_off_c, 9, 53, 64
4, 157460, Note_off_c, 9, 36, 64
4, 157460, Note_off_c, 9, 54, 64
4, 157780, Note_on_c, 9, 54, 69
4, 157781, Note_off_c, 9, 54, 64
4, 157920, Note_on_c, 9, 57, 69
4, 157920, Note_on_c, 9, 40, 106
4, 157920, Note_on_c, 9, 54, 111
4, 157921, Note_off_c, 9, 40, 64
4, 157921, Note_off_c, 9, 57, 64
4, 157940, Note_off_c, 9, 54, 64
4, 158260, Note_on_c, 9, 54, 64
4, 158260, Note_on_c, 9, 36, 76
4, 158261, Note_off_c, 9, 54, 64
4, 158280, Note_off_c, 9, 36, 64
4, 158400, Note_on_c, 9, 53, 101
4, 158400, Note_on_c, 9, 54, 84
4, 158401, Note_off_c, 9, 53, 64
4, 158420, Note_off_c, 9, 54, 64
4, 158740, Note_on_c, 9, 36, 73
4, 158740, Note_on_c, 9, 54, 73
4, 158740, Note_on_c, 9, 40, 32
4, 158741, Note_off_c, 9, 54, 64
4, 158741, Note_off_c, 9, 36, 64
4, 158760, Note_off_c, 9, 40, 64
4, 158880, Note_on_c, 9, 57, 69
4, 158880, Note_on_c, 9, 40, 106
4, 158880, Note_on_c, 9, 54, 112
4, 158881, Note_off_c, 9, 40, 64
4, 158881, Note_off_c, 9, 57, 64
4, 158900, Note_off_c, 9, 54, 64
4, 159220, Note_on_c, 9, 36, 36
4, 159220, Note_on_c, 9, 54, 55
4, 159221, Note_off_c, 9, 36, 64
4, 159240, Note_off_c, 9, 54, 64
4, 159360, Note_on_c, 9, 53, 101
4, 159360, Note_on_c, 9, 54, 76
4, 159360, Note_on_c, 9, 36, 83
4, 159361, Note_off_c, 9, 53, 64
4, 159380, Note_off_c, 9, 54, 64
4, 159380, Note_off_c, 9, 36, 64
4, 159680, Note_on_c, 9, 40, 36
4, 159681, Note_off_c, 9, 40, 64
4, 159700, Note_on_c, 9, 54, 73
4, 159720, Note_off_c, 9, 54, 64
4, 159840, Note_on_c, 9, 40, 106
4, 159840, Note_on_c, 9, 57, 67
4, 159840, Note_on_c, 9, 54, 115
4, 159841, Note_off_c, 9, 57, 64
4, 159841, Note_off_c, 9, 40, 64
4, 159860, Note_off_c, 9, 54, 64
4, 160180, Note_on_c, 9, 54, 66
4, 160180, Note_on_c, 9, 36, 85
4, 160181, Note_off_c, 9, 36, 64
4, 160181, Note_off_c, 9, 54, 64
4, 160320, Note_on_c, 9, 53, 105
4, 160320, Note_on_c, 9, 54, 72
4, 160321, Note_off_c, 9, 54, 64
4, 160321, Note_off_c, 9, 53, 64
4, 160640, Note_on_c, 9, 36, 32
4, 160660, Note_off_c, 9, 36, 64
4, 160660, Note_on_c, 9, 54, 54
4, 160661, Note_off_c, 9, 54, 64
4, 160800, Note_on_c, 9, 57, 70
4, 160800, Note_on_c, 9, 40, 106
4, 160800, Note_on_c, 9, 54, 111
4, 160801, Note_off_c, 9, 54, 64
4, 160801, Note_off_c, 9, 40, 64
4, 160801, Note_off_c, 9, 57, 64
4, 161140, Note_on_c, 9, 54, 77
4, 161140, Note_on_c, 9, 36, 82
4, 161160, Note_off_c, 9, 36, 64
4, 161160, Note_off_c, 9, 54, 64
4, 161280, Note_on_c, 9, 53, 103
4, 161280, Note_on_c, 9, 54, 44
4, 161281, Note_off_c, 9, 53, 64
4, 161300, Note_off_c, 9, 54, 64
4, 161300, Note_on_c, 9, 36, 89
4, 161301, Note_off_c, 9, 36, 64
4, 161620, Note_on_c, 9, 54, 50
4, 161640, Note_off_c, 9, 54, 64
4, 161760, Note_on_c, 9, 40, 106
4, 161760, Note_on_c, 9, 54, 105
4, 161760, Note_on_c, 9, 57, 76
4, 161761, Note_off_c, 9, 57, 64
4, 161761, Note_off_c, 9, 54, 64
4, 161761, Note_off_c, 9, 40, 64
4, 162100, Note_on_c, 9, 36, 83
4, 162100, Note_on_c, 9, 54, 60
4, 162101, Note_off_c, 9, 36, 64
4, 162120, Note_off_c, 9, 54, 64
4, 162240, Note_on_c, 9, 53, 103
4, 162240, Note_on_c, 9, 54, 64
4, 162241, Note_off_c, 9, 54, 64
4, 162241, Note_off_c, 9, 53, 64
4, 162580, Note_on_c, 9, 54, 58
4, 162580, Note_on_c, 9, 36, 74
4, 162581, Note_off_c, 9, 54, 64
4, 162600, Note_off_c, 9, 36, 64
4, 162720, Note_on_c, 9, 57, 69
4, 162720, Note_on_c, 9, 40, 106
4, 162720, Note_on_c, 9, 54, 110
4, 162721, Note_off_c, 9, 40, 64
4, 162721, Note_off_c, 9, 57, 64
4, 162740, Note_off_c, 9, 54, 64
4, 163060, Note_on_c, 9, 54, 54
4, 163060, Note_on_c, 9, 36, 32
4, 163061, Note_off_c, 9, 54, 64
4, 163080, Note_off_c, 9, 36, 64
4, 163200, Note_on_c, 9, 53, 101
4, 163200, Note_on_c, 9, 54, 79
4, 163201, Note_off_c, 9, 53, 64
4, 163220, Note_off_c, 9, 54, 64
4, 163220, Note_on_c, 9, 36, 76
4, 163221, Note_off_c, 9, 36, 64
4, 163540, Note_on_c, 9, 54, 69
4, 163560, Note_off_c, 9, 54, 64
4, 163680, Note_on_c, 9, 57, 56
4, 163680, Note_on_c, 9, 40, 106
4, 163680, Note_on_c, 9, 54, 112
4, 163681, Note_off_c, 9, 40, 64
4, 163681, Note_off_c, 9, 57, 64
4, 163700, Note_off_c, 9, 54, 64
4, 164020, Note_on_c, 9, 54, 45
4, 164020, Note_on_c, 9, 36, 76
4, 164040, Note_off_c, 9, 36, 64
4, 164040, Note_off_c, 9, 54, 64
4, 164160, Note_on_c, 9, 53, 101
4, 164160, Note_on_c, 9, 54, 85
4, 164161, Note_off_c, 9, 53, 64
4, 164180, Note_off_c, 9, 54, 64
4, 164500, Note_on_c, 9, 54, 49
4, 164500, Note_on_c, 9, 36, 70
4, 164501, Note_off_c, 9, 54, 64
4, 164520, Note_off_c, 9, 36, 64
4, 164640, Note_on_c, 9, 57, 73
4, 164640, Note_on_c, 9, 40, 106
4, 164640, Note_on_c, 9, 54, 108
4, 164641, Note_off_c, 9, 40, 64
4, 164641, Note_off_c, 9, 57, 64
4, 164660, Note_off_c, 9, 54, 64
4, 164980, Note_on_c, 9, 54, 67
4, 164980, Note_on_c, 9, 36, 55
4, 164981, Note_off_c, 9, 54, 64
4, 165000, Note_off_c, 9, 36, 64
4, 165120, Note_on_c, 9, 38, 37
4, 165120, Note_on_c, 9, 54, 44
4, 165121, Note_off_c, 9, 38, 64
4, 165140, Note_off_c, 9, 54, 64
4, 165140, Note_on_c, 9, 36, 89
4, 165141, Note_off_c, 9, 36, 64
4, 165440, Note_on_c, 9, 38, 19
4, 165441, Note_off_c, 9, 38, 64
4, 165460, Note_on_c, 9, 54, 50
4, 165480, Note_off_c, 9, 54, 64
4, 165600, Note_on_c, 9, 40, 99
4, 165600, Note_on_c, 9, 54, 105
4, 165601, Note_off_c, 9, 54, 64
4, 165601, Note_off_c, 9, 40, 64
4, 165920, Note_on_c, 9, 38, 17
4, 165921, Note_off_c, 9, 38, 64
4, 165940, Note_on_c, 9, 36, 83
4, 165940, Note_on_c, 9, 54, 26
4, 165941, Note_off_c, 9, 36, 64
4, 165960, Note_off_c, 9, 54, 64
4, 166080, Note_on_c, 9, 38, 27
4, 166080, Note_on_c, 9, 54, 44
4, 166081, Note_off_c, 9, 54, 64
4, 166081, Note_off_c, 9, 38, 64
4, 166400, Note_on_c, 9, 38, 35
4, 166401, Note_off_c, 9, 38, 64
4, 166420, Note_on_c, 9, 54, 58
4, 166420, Note_on_c, 9, 36, 74
4, 166421, Note_off_c, 9, 54, 64
4, 166440, Note_off_c, 9, 36, 64
4, 166560, Note_on_c, 9, 40, 99
4, 166560, Note_on_c, 9, 54, 110
4, 166561, Note_off_c, 9, 40, 64
4, 166580, Note_off_c, 9, 54, 64
4, 166880, Note_on_c, 9, 38, 9
4, 166881, Note_off_c, 9, 38, 64
4, 166900, Note_on_c, 9, 54, 30
4, 166900, Note_on_c, 9, 36, 46
4, 166901, Note_off_c, 9, 54, 64
4, 166920, Note_off_c, 9, 36, 64
4, 167040, Note_on_c, 9, 38, 40
4, 167040, Note_on_c, 9, 54, 44
4, 167041, Note_off_c, 9, 38, 64
4, 167060, Note_off_c, 9, 54, 64
4, 167060, Note_on_c, 9, 36, 76
4, 167061, Note_off_c, 9, 36, 64
4, 167360, Note_on_c, 9, 38, 22
4, 167361, Note_off_c, 9, 38, 64
4, 167380, Note_on_c, 9, 54, 69
4, 167400, Note_off_c, 9, 54, 64
4, 167520, Note_on_c, 9, 40, 99
4, 167520, Note_on_c, 9, 54, 112
4, 167521, Note_off_c, 9, 40, 64
4, 167540, Note_off_c, 9, 54, 64
4, 167840, Note_on_c, 9, 38, 15
4, 167841, Note_off_c, 9, 38, 64
4, 167860, Note_on_c, 9, 54, 26
4, 167860, Note_on_c, 9, 36, 76
4, 167880, Note_off_c, 9, 36, 64
4, 167880, Note_off_c, 9, 54, 64
4, 168000, Note_on_c, 9, 38, 31
4, 168000, Note_on_c, 9, 54, 52
4, 168001, Note_off_c, 9, 38, 64
4, 168020, Note_off_c, 9, 54, 64
4, 168320, Note_on_c, 9, 38, 19
4, 168321, Note_off_c, 9, 38, 64
4, 168340, Note_on_c, 9, 54, 49
4, 168340, Note_on_c, 9, 36, 70
4, 168341, Note_off_c, 9, 54, 64
4, 168360, Note_off_c, 9, 36, 64
4, 168480, Note_on_c, 9, 40, 99
4, 168480, Note_on_c, 9, 54, 108
4, 168481, Note_off_c, 9, 40, 64
4, 168500, Note_off_c, 9, 54, 64
4, 168800, Note_on_c, 9, 38, 12
4, 168801, Note_off_c, 9, 38, 64
4, 168820, Note_on_c, 9, 54, 30
4, 168820, Note_on_c, 9, 36, 55
4, 168821, Note_off_c, 9, 54, 64
4, 168840, Note_off_c, 9, 36, 64
4, 168960, Note_on_c, 9, 38, 34
4, 168960, Note_on_c, 9, 36, 80
4, 168960, Note_on_c, 9, 54, 48
4, 168961, Note_off_c, 9, 38, 64
4, 168980, Note_off_c, 9, 36, 64
4, 168980, Note_off_c, 9, 54, 64
4, 169280, Note_on_c, 9, 38, 22
4, 169281, Note_off_c, 9, 38, 64
4, 169300, Note_on_c, 9, 54, 69
4, 169301, Note_off_c, 9, 54, 64
4, 169440, Note_on_c, 9, 40, 99
4, 169440, Note_on_c, 9, 54, 111
4, 169441, Note_off_c, 9, 40, 64
4, 169460, Note_off_c, 9, 54, 64
4, 169760, Note_on_c, 9, 38, 15
4, 169761, Note_off_c, 9, 38, 64
4, 169780, Note_on_c, 9, 54, 35
4, 169780, Note_on_c, 9, 36, 76
4, 169781, Note_off_c, 9, 54, 64
4, 169800, Note_off_c, 9, 36, 64
4, 169920, Note_on_c, 9, 38, 40
4, 169920, Note_on_c, 9, 54, 48
4, 169921, Note_off_c, 9, 38, 64
4, 169940, Note_off_c, 9, 54, 64
4, 170240, Note_on_c, 9, 40, 32
4, 170241, Note_off_c, 9, 40, 64
4, 170260, Note_on_c, 9, 36, 73
4, 170260, Note_on_c, 9, 54, 73
4, 170261, Note_off_c, 9, 54, 64
4, 170261, Note_off_c, 9, 36, 64
4, 170400, Note_on_c, 9, 40, 99
4, 170400, Note_on_c, 9, 54, 112
4, 170401, Note_off_c, 9, 40, 64
4, 170420, Note_off_c, 9, 54, 64
4, 170720, Note_on_c, 9, 38, 19
4, 170721, Note_off_c, 9, 38, 64
4, 170740, Note_on_c, 9, 36, 52
4, 170740, Note_on_c, 9, 54, 30
4, 170741, Note_off_c, 9, 36, 64
4, 170760, Note_off_c, 9, 54, 64
4, 170880, Note_on_c, 9, 38, 37
4, 170880, Note_on_c, 9, 54, 48
4, 170880, Note_on_c, 9, 36, 83
4, 170881, Note_off_c, 9, 38, 64
4, 170900, Note_off_c, 9, 54, 64
4, 170900, Note_off_c, 9, 36, 64
4, 171200, Note_on_c, 9, 40, 29
4, 171201, Note_off_c, 9, 40, 64
4, 171220, Note_on_c, 9, 54, 73
4, 171240, Note_off_c, 9, 54, 64
4, 171360, Note_on_c, 9, 40, 99
4, 171360, Note_on_c, 9, 54, 115
4, 171361, Note_off_c, 9, 40, 64
4, 171380, Note_off_c, 9, 54, 64
4, 171680, Note_on_c, 9, 38, 15
4, 171681, Note_off_c, 9, 38, 64
4, 171700, Note_on_c, 9, 54, 30
4, 171700, Note_on_c, 9, 36, 85
4, 171701, Note_off_c, 9, 36, 64
4, 171701, Note_off_c, 9, 54, 64
4, 171840, Note_on_c, 9, 38, 25
4, 171840, Note_on_c, 9, 54, 39
4, 171841, Note_off_c, 9, 54, 64
4, 171841, Note_off_c, 9, 38, 64
4, 172160, Note_on_c, 9, 38, 15
4, 172161, Note_off_c, 9, 38, 64
4, 172180, Note_on_c, 9, 36, 76
4, 172180, Note_on_c, 9, 54, 54
4, 172181, Note_off_c, 9, 54, 64
4, 172181, Note_off_c, 9, 36, 64
4, 172320, Note_on_c, 9, 40, 99
4, 172320, Note_on_c, 9, 54, 111
4, 172321, Note_off_c, 9, 54, 64
4, 172321, Note_off_c, 9, 40, 64
4, 172640, Note_on_c, 9, 38, 19
4, 172641, Note_off_c, 9, 38, 64
4, 172660, Note_on_c, 9, 54, 35
4, 172660, Note_on_c, 9, 36, 82
4, 172680, Note_off_c, 9, 36, 64
4, 172680, Note_off_c, 9, 54, 64
4, 172800, Note_on_c, 9, 38, 37
4, 172800, Note_on_c, 9, 54, 44
4, 172801, Note_off_c, 9, 38, 64
4, 172820, Note_off_c, 9, 54, 64
4, 172820, Note_on_c, 9, 36, 89
4, 172821, Note_off_c, 9, 36, 64
4, 173120, Note_on_c, 9, 38, 19
4, 173121, Note_off_c, 9, 38, 64
4, 173140, Note_on_c, 9, 54, 50
4, 173160, Note_off_c, 9, 54, 64
4, 173280, Note_on_c, 9, 40, 99
4, 173280, Note_on_c, 9, 54, 105
4, 173281, Note_off_c, 9, 54, 64
4, 173281, Note_off_c, 9, 40, 64
4, 173600, Note_on_c, 9, 38, 17
4, 173601, Note_off_c, 9, 38, 64
4, 173620, Note_on_c, 9, 36, 83
4, 173620, Note_on_c, 9, 54, 26
4, 173621, Note_off_c, 9, 36, 64
4, 173640, Note_off_c, 9, 54, 64
4, 173760, Note_on_c, 9, 38, 27
4, 173760, Note_on_c, 9, 54, 44
4, 173761, Note_off_c, 9, 54, 64
4, 173761, Note_off_c, 9, 38, 64
4, 174080, Note_on_c, 9, 38, 35
4, 174081, Note_off_c, 9, 38, 64
4, 174100, Note_on_c, 9, 54, 58
4, 174100, Note_on_c, 9, 36, 74
4, 174101, Note_off_c, 9, 54, 64
4, 174120, Note_off_c, 9, 36, 64
4, 174240, Note_on_c, 9, 40, 99
4, 174240, Note_on_c, 9, 54, 110
4, 174241, Note_off_c, 9, 40, 64
4, 174260, Note_off_c, 9, 54, 64
4, 174560, Note_on_c, 9, 38, 9
4, 174561, Note_off_c, 9, 38, 64
4, 174580, Note_on_c, 9, 54, 30
4, 174580, Note_on_c, 9, 36, 46
4, 174581, Note_off_c, 9, 54, 64
4, 174600, Note_off_c, 9, 36, 64
4, 174720, Note_on_c, 9, 38, 40
4, 174720, Note_on_c, 9, 54, 44
4, 174721, Note_off_c, 9, 38, 64
4, 174740, Note_off_c, 9, 54, 64
4, 174740, Note_on_c, 9, 36, 76
4, 174741, Note_off_c, 9, 36, 64
4, 175040, Note_on_c, 9, 38, 22
4, 175041, Note_off_c, 9, 38, 64
4, 175060, Note_on_c, 9, 54, 69
4, 175080, Note_off_c, 9, 54, 64
4, 175200, Note_on_c, 9, 40, 99
4, 175200, Note_on_c, 9, 54, 112
4, 175201, Note_off_c, 9, 40, 64
4, 175220, Note_off_c, 9, 54, 64
4, 175520, Note_on_c, 9, 38, 15
4, 175521, Note_off_c, 9, 38, 64
4, 175540, Note_on_c, 9, 54, 26
4, 175540, Note_on_c, 9, 36, 76
4, 175560, Note_off_c, 9, 36, 64
4, 175560, Note_off_c, 9, 54, 64
4, 175680, Note_on_c, 9, 38, 31
4, 175680, Note_on_c, 9, 54, 52
4, 175681, Note_off_c, 9, 38, 64
4, 175700, Note_off_c, 9, 54, 64
4, 176000, Note_on_c, 9, 38, 19
4, 176001, Note_off_c, 9, 38, 64
4, 176020, Note_on_c, 9, 54, 49
4, 176020, Note_on_c, 9, 36, 70
4, 176021, Note_off_c, 9, 54, 64
4, 176040, Note_off_c, 9, 36, 64
4, 176160, Note_on_c, 9, 40, 99
4, 176160, Note_on_c, 9, 54, 108
4, 176161, Note_off_c, 9, 40, 64
4, 176180, Note_off_c, 9, 54, 64
4, 176480, Note_on_c, 9, 38, 12
4, 176481, Note_off_c, 9, 38, 64
4, 176500, Note_on_c, 9, 54, 30
4, 176500, Note_on_c, 9, 36, 55
4, 176501, Note_off_c, 9, 54, 64
4, 176520, Note_off_c, 9, 36, 64
4, 176640, Note_on_c, 9, 38, 34
4, 176640, Note_on_c, 9, 36, 80
4, 176640, Note_on_c, 9, 54, 48
4, 176641, Note_off_c, 9, 38, 64
4, 176660, Note_off_c, 9, 36, 64
4, 176660, Note_off_c, 9, 54, 64
4, 176960, Note_on_c, 9, 38, 22
4, 176961, Note_off_c, 9, 38, 64
4, 176980, Note_on_c, 9, 54, 69
4, 176981, Note_off_c, 9, 54, 64
4, 177120, Note_on_c, 9, 40, 99
4, 177120, Note_on_c, 9, 54, 111
4, 177121, Note_off_c, 9, 40, 64
4, 177140, Note_off_c, 9, 54, 64
4, 177440, Note_on_c, 9, 38, 15
4, 177441, Note_off_c, 9, 38, 64
4, 177460, Note_on_c, 9, 54, 35
4, 177460, Note_on_c, 9, 36, 76
4, 177461, Note_off_c, 9, 54, 64
4, 177480, Note_off_c, 9, 36, 64
4, 177600, Note_on_c, 9, 38, 40
4, 177600, Note_on_c, 9, 54, 48
4, 177601, Note_off_c, 9, 38, 64
4, 177620, Note_off_c, 9, 54, 64
4, 177920, Note_on_c, 9, 40, 32
4, 177921, Note_off_c, 9, 40, 64
4, 177940, Note_on_c, 9, 36, 73
4, 177940, Note_on_c, 9, 54, 73
4, 177941, Note_off_c, 9, 54, 64
4, 177941, Note_off_c, 9, 36, 64
4, 178080, Note_on_c, 9, 40, 99
4, 178080, Note_on_c, 9, 54, 112
4, 178081, Note_off_c, 9, 40, 64
4, 178100, Note_off_c, 9, 54, 64
4, 178400, Note_on_c, 9, 38, 19
4, 178401, Note_off_c, 9, 38, 64
4, 178420, Note_on_c, 9, 36, 52
4, 178420, Note_on_c, 9, 54, 30
4, 178421, Note_off_c, 9, 36, 64
4, 178440, Note_off_c, 9, 54, 64
4, 178560, Note_on_c, 9, 53, 101
4, 178560, Note_on_c, 9, 54, 79
4, 178561, Note_off_c, 9, 53, 64
4, 178580, Note_off_c, 9, 54, 64
4, 178580, Note_on_c, 9, 36, 76
4, 178581, Note_off_c, 9, 36, 64
4, 178900, Note_on_c, 9, 54, 69
4, 178920, Note_off_c, 9, 54, 64
4, 179040, Note_on_c, 9, 57, 56
4, 179040, Note_on_c, 9, 40, 106
4, 179040, Note_on_c, 9, 54, 112
4, 179041, Note_off_c, 9, 40, 64
4, 179041, Note_off_c, 9, 57, 64
4, 179060, Note_off_c, 9, 54, 64
4, 179380, Note_on_c, 9, 54, 45
4, 179380, Note_on_c, 9, 36, 76
4, 179400, Note_off_c, 9, 36, 64
4, 179400, Note_off_c, 9, 54, 64
4, 179520, Note_on_c, 9, 53, 101
4, 179520, Note_on_c, 9, 54, 85
4, 179521, Note_off_c, 9, 53, 64
4, 179540, Note_off_c, 9, 54, 64
4, 179860, Note_on_c, 9, 54, 49
4, 179860, Note_on_c, 9, 36, 70
4, 179861, Note_off_c, 9, 54, 64
4, 179880, Note_off_c, 9, 36, 64
4, 180000, Note_on_c, 9, 57, 73
4, 180000, Note_on_c, 9, 40, 106
4, 180000, Note_on_c, 9, 54, 108
4, 180001, Note_off_c, 9, 40, 64
4, 180001, Note_off_c, 9, 57, 64
4, 180020, Note_off_c, 9, 54, 64
4, 180340, Note_on_c, 9, 54, 67
4, 180340, Note_on_c, 9, 36, 55
4, 180341, Note_off_c, 9, 54, 64
4, 180360, Note_off_c, 9, 36, 64
4, 180480, Note_on_c, 9, 53, 103
4, 180480, Note_on_c, 9, 36, 80
4, 180480, Note_on_c, 9, 54, 79
4, 180481, Note_off_c, 9, 53, 64
4, 180500, Note_off_c, 9, 36, 64
4, 180500, Note_off_c, 9, 54, 64
4, 180820, Note_on_c, 9, 54, 69
4, 180821, Note_off_c, 9, 54, 64
4, 180960, Note_on_c, 9, 57, 69
4, 180960, Note_on_c, 9, 40, 106
4, 180960, Note_on_c, 9, 54, 111
4, 180961, Note_off_c, 9, 40, 64
4, 180961, Note_off_c, 9, 57, 64
4, 180980, Note_off_c, 9, 54, 64
4, 181300, Note_on_c, 9, 54, 64
4, 181300, Note_on_c, 9, 36, 76
4, 181301, Note_off_c, 9, 54, 64
4, 181320, Note_off_c, 9, 36, 64
4, 181440, Note_on_c, 9, 53, 101
4, 181440, Note_on_c, 9, 54, 84
4, 181441, Note_off_c, 9, 53, 64
4, 181460, Note_off_c, 9, 54, 64
4, 181780, Note_on_c, 9, 36, 73
4, 181780, Note_on_c, 9, 54, 73
4, 181780, Note_on_c, 9, 40, 32
4, 181781, Note_off_c, 9, 54, 64
4, 181781, Note_off_c, 9, 36, 64
4, 181800, Note_off_c, 9, 40, 64
4, 181920, Note_on_c, 9, 57, 69
4, 181920, Note_on_c, 9, 40, 106
4, 181920, Note_on_c, 9, 54, 112
4, 181921, Note_off_c, 9, 40, 64
4, 181921, Note_off_c, 9, 57, 64
4, 181940, Note_off_c, 9, 54, 64
4, 182260, Note_on_c, 9, 36, 36
4, 182260, Note_on_c, 9, 54, 55
4, 182261, Note_off_c, 9, 36, 64
4, 182280, Note_off_c, 9, 54, 64
4, 182400, Note_on_c, 9, 53, 101
4, 182400, Note_on_c, 9, 54, 76
4, 182400, Note_on_c, 9, 36, 83
4, 182401, Note_off_c, 9, 53, 64
4, 182420, Note_off_c, 9, 54, 64
4, 182420, Note_off_c, 9, 36, 64
4, 182720, Note_on_c, 9, 40, 36
4, 182721, Note_off_c, 9, 40, 64
4, 182740, Note_on_c, 9, 54, 73
4, 182760, Note_off_c, 9, 54, 64
4, 182880, Note_on_c, 9, 40, 106
4, 182880, Note_on_c, 9, 57, 67
4, 182880, Note_on_c, 9, 54, 115
4, 182881, Note_off_c, 9, 57, 64
4, 182881, Note_off_c, 9, 40, 64
4, 182900, Note_off_c, 9, 54, 64
4, 183220, Note_on_c, 9, 54, 66
4, 183220, Note_on_c, 9, 36, 85
4, 183221, Note_off_c, 9, 36, 64
4, 183221, Note_off_c, 9, 54, 64
4, 183360, Note_on_c, 9, 53, 105
4, 183360, Note_on_c, 9, 54, 72
4, 183361, Note_off_c, 9, 54, 64
4, 183361, Note_off_c, 9, 53, 64
4, 183680, Note_on_c, 9, 36, 32
4, 183700, Note_off_c, 9, 36, 64
4, 183700, Note_on_c, 9, 54, 54
4, 183701, Note_off_c, 9, 54, 64
4, 183840, Note_on_c, 9, 57, 70
4, 183840, Note_on_c, 9, 40, 106
4, 183840, Note_on_c, 9, 54, 111
4, 183841, Note_off_c, 9, 54, 64
4, 183841, Note_off_c, 9, 40, 64
4, 183841, Note_off_c, 9, 57, 64
4, 184180, Note_on_c, 9, 54, 77
4, 184180, Note_on_c, 9, 36, 82
4, 184200, Note_off_c, 9, 36, 64
4, 184200, Note_off_c, 9, 54, 64
4, 184320, Note_on_c, 9, 53, 103
4, 184320, Note_on_c, 9, 54, 44
4, 184321, Note_off_c, 9, 53, 64
4, 184340, Note_off_c, 9, 54, 64
4, 184340, Note_on_c, 9, 36, 89
4, 184341, Note_off_c, 9, 36, 64
4, 184660, Note_on_c, 9, 54, 50
4, 184680, Note_off_c, 9, 54, 64
4, 184800, Note_on_c, 9, 40, 106
4, 184800, Note_on_c, 9, 54, 105
4, 184800, Note_on_c, 9, 57, 76
4, 184801, Note_off_c, 9, 57, 64
4, 184801, Note_off_c, 9, 54, 64
4, 184801, Note_off_c, 9, 40, 64
4, 185140, Note_on_c, 9, 36, 83
4, 185140, Note_on_c, 9, 54, 60
4, 185141, Note_off_c, 9, 36, 64
4, 185160, Note_off_c, 9, 54, 64
4, 185280, Note_on_c, 9, 53, 103
4, 185280, Note_on_c, 9, 54, 64
4, 185281, Note_off_c, 9, 54, 64
4, 185281, Note_off_c, 9, 53, 64
4, 185620, Note_on_c, 9, 54, 58
4, 185620, Note_on_c, 9, 36, 74
4, 185621, Note_off_c, 9, 54, 64
4, 185640, Note_off_c, 9, 36, 64
4, 185760, Note_on_c, 9, 57, 69
4, 185760, Note_on_c, 9, 40, 106
4, 185760, Note_on_c, 9, 54, 110
4, 185761, Note_off_c, 9, 40, 64
4, 185761, Note_off_c, 9, 57, 64
4, 185780, Note_off_c, 9, 54, 64
4, 186100, Note_on_c, 9, 54, 54
4, 186100, Note_on_c, 9, 36, 32
4, 186101, Note_off_c, 9, 54, 64
4, 186120, Note_off_c, 9, 36, 64
4, 186240, Note_on_c, 9, 53, 101
4, 186240, Note_on_c, 9, 54, 79
4, 186241, Note_off_c, 9, 53, 64
4, 186260, Note_off_c, 9, 54, 64
4, 186260, Note_on_c, 9, 36, 76
4, 186261, Note_off_c, 9, 36, 64
4, 186580, Note_on_c, 9, 54, 69
4, 186600, Note_off_c, 9, 54, 64
4, 186720, Note_on_c, 9, 57, 56
4, 186720, Note_on_c, 9, 40, 106
4, 186720, Note_on_c, 9, 54, 112
4, 186721, Note_off_c, 9, 40, 64
4, 186721, Note_off_c, 9, 57, 64
4, 186740, Note_off_c, 9, 54, 64
4, 187060, Note_on_c, 9, 54, 45
4, 187060, Note_on_c, 9, 36, 76
4, 187080, Note_off_c, 9, 36, 64
4, 187080, Note_off_c, 9, 54, 64
4, 187200, Note_on_c, 9, 53, 101
4, 187200, Note_on_c, 9, 54, 85
4, 187201, Note_off_c, 9, 53, 64
4, 187220, Note_off_c, 9, 54, 64
4, 187540, Note_on_c, 9, 54, 49
4, 187540, Note_on_c, 9, 36, 70
4, 187541, Note_off_c, 9, 54, 64
4, 187560, Note_off_c, 9, 36, 64
4, 187680, Note_on_c, 9, 57, 73
4, 187680, Note_on_c, 9, 40, 106
4, 187680, Note_on_c, 9, 54, 108
4, 187681, Note_off_c, 9, 40, 64
4, 187681, Note_off_c, 9, 57, 64
4, 187700, Note_off_c, 9, 54, 64
4, 188020, Note_on_c, 9, 54, 67
4, 188020, Note_on_c, 9, 36, 55
4, 188021, Note_off_c, 9, 54, 64
4, 188040, Note_off_c, 9, 36, 64
4, 188160, Note_on_c, 9, 53, 103
4, 188160, Note_on_c, 9, 36, 80
4, 188160, Note_on_c, 9, 54, 79
4, 188161, Note_off_c, 9, 53, 64
4, 188180, Note_off_c, 9, 36, 64
4, 188180, Note_off_c, 9, 54, 64
4, 188500, Note_on_c, 9, 54, 69
4, 188501, Note_off_c, 9, 54, 64
4, 188640, Note_on_c, 9, 57, 69
4, 188640, Note_on_c, 9, 40, 106
4, 188640, Note_on_c, 9, 54, 111
4, 188641, Note_off_c, 9, 40, 64
4, 188641, Note_off_c, 9, 57, 64
4, 188660, Note_off_c, 9, 54, 64
4, 188980, Note_on_c, 9, 54, 64
4, 188980, Note_on_c, 9, 36, 76
4, 188981, Note_off_c, 9, 54, 64
4, 189000, Note_off_c, 9, 36, 64
4, 189120, Note_on_c, 9, 53, 101
4, 189120, Note_on_c, 9, 54, 84
4, 189121, Note_off_c, 9, 53, 64
4, 189140, Note_off_c, 9, 54, 64
4, 189460, Note_on_c, 9, 36, 73
4, 189460, Note_on_c, 9, 54, 73
4, 189460, Note_on_c, 9, 40, 32
4, 189461, Note_off_c, 9, 54, 64
4, 189461, Note_off_c, 9, 36, 64
4, 189480, Note_off_c, 9, 40, 64
4, 189600, Note_on_c, 9, 57, 69
4, 189600, Note_on_c, 9, 40, 106
4, 189600, Note_on_c, 9, 54, 112
4, 189601, Note_off_c, 9, 40, 64
4, 189601, Note_off_c, 9, 57, 64
4, 189620, Note_off_c, 9, 54, 64
4, 189940, Note_on_c, 9, 36, 36
4, 189940, Note_on_c, 9, 54, 55
4, 189941, Note_off_c, 9, 36, 64
4, 189960, Note_off_c, 9, 54, 64
4, 190080, Note_on_c, 9, 53, 101
4, 190080, Note_on_c, 9, 54, 76
4, 190080, Note_on_c, 9, 36, 83
4, 190081, Note_off_c, 9, 53, 64
4, 190100, Note_off_c, 9, 54, 64
4, 190100, Note_off_c, 9, 36, 64
4, 190400, Note_on_c, 9, 40, 36
4, 190401, Note_off_c, 9, 40, 64
4, 190420, Note_on_c, 9, 54, 73
4, 190440, Note_off_c, 9, 54, 64
4, 190560, Note_on_c, 9, 40, 106
4, 190560, Note_on_c, 9, 57, 67
4, 190560, Note_on_c, 9, 54, 115
4, 190561, Note_off_c, 9, 57, 64
4, 190561, Note_off_c, 9, 40, 64
4, 190580, Note_off_c, 9, 54, 64
4, 190900, Note_on_c, 9, 54, 66
4, 190900, Note_on_c, 9, 36, 85
4, 190901, Note_off_c, 9, 36, 64
4, 190901, Note_off_c, 9, 54, 64
4, 191040, Note_on_c, 9, 53, 105
4, 191040, Note_on_c, 9, 54, 72
4, 191041, Note_off_c, 9, 54, 64
4, 191041, Note_off_c, 9, 53, 64
4, 191360, Note_on_c, 9, 36, 32
4, 191380, Note_off_c, 9, 36, 64
4, 191380, Note_on_c, 9, 54, 54
4, 191381, Note_off_c, 9, 54, 64
4, 191520, Note_on_c, 9, 57, 70
4, 191520, Note_on_c, 9, 40, 106
4, 191520, Note_on_c, 9, 54, 111
4, 191521, Note_off_c, 9, 54, 64
4, 191521, Note_off_c, 9, 40, 64
4, 191521, Note_off_c, 9, 57, 64
4, 191860, Note_on_c, 9, 54, 77
4, 191860, Note_on_c, 9, 36, 82
4, 191880, Note_off_c, 9, 36, 64
4, 191880, Note_off_c, 9, 54, 64
4, 192000, Note_on_c, 9, 55, 50
4, 192000, Note_on_c, 9, 36, 89
4, 192000, Note_on_c, 9, 53, 103
4, 192000, Note_on_c, 9, 54, 44
4, 192001, Note_off_c, 9, 53, 64
4, 192001, Note_off_c, 9, 36, 64
4, 192020, Note_off_c, 9, 55, 64
4, 192020, Note_off_c, 9, 54, 64
4, 192020, End_track
5, 0, Start_track
5, 0, Title_t, "Flute"
5, 0, MIDI_port, 0
5, 0, Channel_prefix, 3
5, 0, Control_c, 3, 7, 100
5, 0, Control_c, 3, 10, 110
5, 0, Program_c, 3, 76
5, 0, Control_c, 3, 121, 0
5, 17, Control_c, 3, 91, 90
5, 17, Control_c, 3, 93, 75
5, 21, Control_c, 3, 11, 127
5, 4220, Note_on_c, 3, 72, 88
5, 4460, Note_on_c, 3, 74, 88
5, 4500, Note_off_c, 3, 72, 64
5, 4700, Note_on_c, 3, 77, 88
5, 4860, Note_off_c, 3, 74, 64
5, 4960, Note_off_c, 3, 77, 64
5, 6020, Note_on_c, 3, 72, 88
5, 6260, Note_off_c, 3, 72, 64
5, 6260, Note_on_c, 3, 74, 88
5, 6620, Note_off_c, 3, 74, 64
5, 6620, Note_on_c, 3, 72, 88
5, 6920, Note_off_c, 3, 72, 64
5, 7100, Note_on_c, 3, 65, 88
5, 7220, Note_on_c, 3, 67, 88
5, 7380, Note_off_c, 3, 65, 64
5, 7580, Note_on_c, 3, 70, 88
5, 7680, Note_off_c, 3, 67, 64
5, 8120, Note_off_c, 3, 70, 64
5, 8660, Note_on_c, 3, 74, 88
5, 10840, Note_off_c, 3, 74, 64
5, 10940, Note_on_c, 3, 72, 88
5, 11180, Note_off_c, 3, 72, 64
5, 11180, Note_on_c, 3, 74, 88
5, 11420, Note_on_c, 3, 72, 88
5, 11500, Note_off_c, 3, 74, 64
5, 11740, Note_off_c, 3, 72, 64
5, 12020, Note_on_c, 3, 65, 88
5, 12260, Note_on_c, 3, 67, 88
5, 12280, Note_off_c, 3, 65, 64
5, 12500, Note_on_c, 3, 70, 88
5, 12720, Note_off_c, 3, 67, 64
5, 13680, Note_off_c, 3, 70, 64
5, 13820, Note_on_c, 3, 72, 88
5, 13940, Note_on_c, 3, 74, 88
5, 14040, Note_off_c, 3, 72, 64
5, 14300, Note_off_c, 3, 74, 64
5, 14300, Note_on_c, 3, 72, 88
5, 14620, Note_off_c, 3, 72, 64
5, 14780, Note_on_c, 3, 65, 88
5, 14900, Note_on_c, 3, 67, 88
5, 15040, Note_off_c, 3, 65, 64
5, 15260, Note_on_c, 3, 70, 88
5, 15280, Note_off_c, 3, 67, 64
5, 18520, Note_off_c, 3, 70, 64
5, 18620, Note_on_c, 3, 72, 88
5, 18860, Note_off_c, 3, 72, 64
5, 18860, Note_on_c, 3, 74, 88
5, 19180, Note_off_c, 3, 74, 64
5, 19700, Note_on_c, 3, 77, 88
5, 19920, Note_off_c, 3, 77, 64
5, 20180, Note_on_c, 3, 77, 88
5, 21280, Note_off_c, 3, 77, 64
5, 21500, Note_on_c, 3, 72, 88
5, 21620, Note_on_c, 3, 74, 88
5, 21700, Note_off_c, 3, 72, 64
5, 21860, Note_on_c, 3, 72, 88
5, 21920, Note_off_c, 3, 74, 64
5, 22220, Note_off_c, 3, 72, 64
5, 22460, Note_on_c, 3, 65, 88
5, 22700, Note_on_c, 3, 67, 88
5, 22740, Note_off_c, 3, 65, 64
5, 23060, Note_on_c, 3, 70, 88
5, 23120, Note_off_c, 3, 67, 64
5, 26540, Note_off_c, 3, 70, 64
5, 72260, Note_on_c, 3, 82, 88
5, 72452, Note_off_c, 3, 82, 64
5, 72740, Note_on_c, 3, 82, 88
5, 73220, Note_on_c, 3, 77, 88
5, 73244, Note_off_c, 3, 82, 64
5, 73352, Note_off_c, 3, 77, 64
5, 73460, Note_on_c, 3, 79, 88
5, 73700, Note_on_c, 3, 77, 88
5, 73760, Note_off_c, 3, 79, 64
5, 74108, Note_off_c, 3, 77, 64
5, 74180, Note_on_c, 3, 72, 88
5, 74300, Note_on_c, 3, 74, 88
5, 74376, Note_off_c, 3, 72, 64
5, 74548, Note_off_c, 3, 74, 64
5, 75140, Note_on_c, 3, 72, 88
5, 75320, Note_off_c, 3, 72, 64
5, 75380, Note_on_c, 3, 74, 88
5, 75620, Note_on_c, 3, 72, 88
5, 75652, Note_off_c, 3, 74, 64
5, 75884, Note_off_c, 3, 72, 64
5, 76100, Note_on_c, 3, 65, 88
5, 76220, Note_on_c, 3, 67, 88
5, 76240, Note_off_c, 3, 65, 64
5, 76460, Note_on_c, 3, 65, 88
5, 76480, Note_off_c, 3, 65, 64
5, 76644, Note_off_c, 3, 67, 64
5, 76700, Note_on_c, 3, 70, 88
5, 76944, Note_off_c, 3, 70, 64
5, 77780, Note_on_c, 3, 74, 88
5, 79860, Note_off_c, 3, 74, 64
5, 79940, Note_on_c, 3, 72, 88
5, 80128, Note_off_c, 3, 72, 64
5, 80180, Note_on_c, 3, 74, 88
5, 80420, Note_on_c, 3, 72, 88
5, 80468, Note_off_c, 3, 74, 64
5, 80756, Note_off_c, 3, 72, 64
5, 80900, Note_on_c, 3, 65, 88
5, 81092, Note_off_c, 3, 65, 64
5, 81140, Note_on_c, 3, 67, 88
5, 81380, Note_on_c, 3, 70, 88
5, 81488, Note_off_c, 3, 67, 64
5, 82592, Note_off_c, 3, 70, 64
5, 83060, Note_on_c, 3, 72, 88
5, 83144, Note_off_c, 3, 72, 64
5, 83180, Note_on_c, 3, 74, 88
5, 83420, Note_on_c, 3, 72, 88
5, 83428, Note_off_c, 3, 74, 64
5, 83744, Note_off_c, 3, 72, 64
5, 83900, Note_on_c, 3, 65, 88
5, 84020, Note_on_c, 3, 67, 88
5, 84064, Note_off_c, 3, 65, 64
5, 84328, Note_off_c, 3, 67, 64
5, 84380, Note_on_c, 3, 70, 88
5, 87516, Note_off_c, 3, 70, 64
5, 87620, Note_on_c, 3, 72, 88
5, 87740, Note_on_c, 3, 74, 88
5, 87808, Note_off_c, 3, 72, 64
5, 87944, Note_off_c, 3, 74, 64
5, 88580, Note_on_c, 3, 77, 88
5, 88752, Note_off_c, 3, 77, 64
5, 89060, Note_on_c, 3, 77, 88
5, 90072, Note_off_c, 3, 77, 64
5, 90620, Note_on_c, 3, 72, 88
5, 90860, Note_on_c, 3, 74, 88
5, 90996, Note_off_c, 3, 72, 64
5, 91100, Note_on_c, 3, 72, 88
5, 91188, Note_off_c, 3, 74, 64
5, 91464, Note_off_c, 3, 72, 64
5, 91580, Note_on_c, 3, 65, 88
5, 91820, Note_on_c, 3, 67, 88
5, 91848, Note_off_c, 3, 65, 64
5, 92180, Note_on_c, 3, 70, 88
5, 92208, Note_off_c, 3, 67, 64
5, 95520, Note_off_c, 3, 70, 64
5, 141380, Note_on_c, 3, 82, 88
5, 141572, Note_off_c, 3, 82, 64
5, 141860, Note_on_c, 3, 82, 88
5, 142340, Note_on_c, 3, 77, 88
5, 142364, Note_off_c, 3, 82, 64
5, 142472, Note_off_c, 3, 77, 64
5, 142580, Note_on_c, 3, 79, 88
5, 142820, Note_on_c, 3, 77, 88
5, 142880, Note_off_c, 3, 79, 64
5, 143228, Note_off_c, 3, 77, 64
5, 143300, Note_on_c, 3, 72, 88
5, 143420, Note_on_c, 3, 74, 88
5, 143496, Note_off_c, 3, 72, 64
5, 143668, Note_off_c, 3, 74, 64
5, 144260, Note_on_c, 3, 72, 88
5, 144440, Note_off_c, 3, 72, 64
5, 144500, Note_on_c, 3, 74, 88
5, 144740, Note_on_c, 3, 72, 88
5, 144772, Note_off_c, 3, 74, 64
5, 145004, Note_off_c, 3, 72, 64
5, 145220, Note_on_c, 3, 65, 88
5, 145340, Note_on_c, 3, 67, 88
5, 145360, Note_off_c, 3, 65, 64
5, 145580, Note_on_c, 3, 65, 88
5, 145600, Note_off_c, 3, 65, 64
5, 145764, Note_off_c, 3, 67, 64
5, 145820, Note_on_c, 3, 70, 88
5, 146064, Note_off_c, 3, 70, 64
5, 146900, Note_on_c, 3, 74, 88
5, 148980, Note_off_c, 3, 74, 64
5, 149060, Note_on_c, 3, 72, 88
5, 149248, Note_off_c, 3, 72, 64
5, 149300, Note_on_c, 3, 74, 88
5, 149540, Note_on_c, 3, 72, 88
5, 149588, Note_off_c, 3, 74, 64
5, 149876, Note_off_c, 3, 72, 64
5, 150020, Note_on_c, 3, 65, 88
5, 150212, Note_off_c, 3, 65, 64
5, 150260, Note_on_c, 3, 67, 88
5, 150500, Note_on_c, 3, 70, 88
5, 150608, Note_off_c, 3, 67, 64
5, 151712, Note_off_c, 3, 70, 64
5, 152180, Note_on_c, 3, 72, 88
5, 152264, Note_off_c, 3, 72, 64
5, 152300, Note_on_c, 3, 74, 88
5, 152540, Note_on_c, 3, 72, 88
5, 152548, Note_off_c, 3, 74, 64
5, 152864, Note_off_c, 3, 72, 64
5, 153020, Note_on_c, 3, 65, 88
5, 153140, Note_on_c, 3, 67, 88
5, 153184, Note_off_c, 3, 65, 64
5, 153448, Note_off_c, 3, 67, 64
5, 153500, Note_on_c, 3, 70, 88
5, 156636, Note_off_c, 3, 70, 64
5, 156740, Note_on_c, 3, 72, 88
5, 156860, Note_on_c, 3, 74, 88
5, 156928, Note_off_c, 3, 72, 64
5, 157064, Note_off_c, 3, 74, 64
5, 157700, Note_on_c, 3, 77, 88
5, 157872, Note_off_c, 3, 77, 64
5, 158180, Note_on_c, 3, 77, 88
5, 159192, Note_off_c, 3, 77, 64
5, 159740, Note_on_c, 3, 72, 88
5, 159980, Note_on_c, 3, 74, 88
5, 160116, Note_off_c, 3, 72, 64
5, 160220, Note_on_c, 3, 72, 88
5, 160308, Note_off_c, 3, 74, 64
5, 160584, Note_off_c, 3, 72, 64
5, 160700, Note_on_c, 3, 65, 88
5, 160940, Note_on_c, 3, 67, 88
5, 160968, Note_off_c, 3, 65, 64
5, 161300, Note_on_c, 3, 70, 88
5, 161328, Note_off_c, 3, 67, 64
5, 164640, Note_off_c, 3, 70, 64
5, 179076, Note_on_c, 3, 72, 88
5, 179300, Note_on_c, 3, 74, 88
5, 179324, Note_off_c, 3, 72, 64
5, 179576, Note_off_c, 3, 74, 64
5, 179780, Note_on_c, 3, 70, 88
5, 179936, Note_off_c, 3, 70, 64
5, 179944, Note_on_c, 3, 72, 88
5, 180168, Note_off_c, 3, 72, 64
5, 180416, Note_on_c, 3, 70, 88
5, 180540, Note_on_c, 3, 67, 88
5, 180616, Note_off_c, 3, 70, 64
5, 182700, Note_off_c, 3, 67, 64
5, 182844, Note_on_c, 3, 70, 88
5, 183116, Note_on_c, 3, 72, 88
5, 183128, Note_off_c, 3, 70, 64
5, 183352, Note_off_c, 3, 72, 64
5, 183600, Note_on_c, 3, 70, 88
5, 183756, Note_on_c, 3, 72, 88
5, 183760, Note_off_c, 3, 70, 64
5, 183932, Note_off_c, 3, 72, 64
5, 184288, Note_on_c, 3, 74, 88
5, 186700, Note_off_c, 3, 74, 64
5, 186724, Note_on_c, 3, 72, 88
5, 186972, Note_on_c, 3, 74, 88
5, 186984, Note_off_c, 3, 72, 64
5, 187336, Note_off_c, 3, 74, 64
5, 187476, Note_on_c, 3, 72, 88
5, 187680, Note_off_c, 3, 72, 64
5, 187680, Note_on_c, 3, 74, 88
5, 187896, Note_off_c, 3, 74, 64
5, 188096, Note_on_c, 3, 77, 88
5, 189000, Note_off_c, 3, 77, 64
5, 189060, Note_on_c, 3, 72, 88
5, 190208, Note_off_c, 3, 72, 64
5, 190376, Note_on_c, 3, 74, 88
5, 190552, Note_off_c, 3, 74, 64
5, 190788, Note_on_c, 3, 72, 88
5, 191192, Note_off_c, 3, 72, 64
5, 191336, Note_on_c, 3, 70, 88
5, 191488, Note_off_c, 3, 70, 64
5, 191488, Note_on_c, 3, 72, 88
5, 191780, Note_off_c, 3, 72, 64
5, 192000, Note_on_c, 3, 70, 88
5, 193220, Note_off_c, 3, 70, 64
5, 196220, Note_on_c, 3, 72, 88
5, 196460, Note_on_c, 3, 74, 88
5, 196500, Note_off_c, 3, 72, 64
5, 196700, Note_on_c, 3, 77, 88
5, 196860, Note_off_c, 3, 74, 64
5, 196960, Note_off_c, 3, 77, 64
5, 198020, Note_on_c, 3, 72, 88
5, 198260, Note_off_c, 3, 72, 64
5, 198260, Note_on_c, 3, 74, 88
5, 198620, Note_off_c, 3, 74, 64
5, 198620, Note_on_c, 3, 72, 88
5, 198920, Note_off_c, 3, 72, 64
5, 199100, Note_on_c, 3, 65, 88
5, 199220, Note_on_c, 3, 67, 88
5, 199380, Note_off_c, 3, 65, 64
5, 199580, Note_on_c, 3, 70, 88
5, 199680, Note_off_c, 3, 67, 64
5, 200120, Note_off_c, 3, 70, 64
5, 200660, Note_on_c, 3, 74, 88
5, 202840, Note_off_c, 3, 74, 64
5, 202940, Note_on_c, 3, 72, 88
5, 203180, Note_off_c, 3, 72, 64
5, 203180, Note_on_c, 3, 74, 88
5, 203420, Note_on_c, 3, 72, 88
5, 203500, Note_off_c, 3, 74, 64
5, 203740, Note_off_c, 3, 72, 64
5, 204020, Note_on_c, 3, 65, 88
5, 204260, Note_on_c, 3, 67, 88
5, 204280, Note_off_c, 3, 65, 64
5, 204500, Note_on_c, 3, 70, 88
5, 204720, Note_off_c, 3, 67, 64
5, 205680, Note_off_c, 3, 70, 64
5, 205820, Note_on_c, 3, 72, 88
5, 205940, Note_on_c, 3, 74, 88
5, 206040, Note_off_c, 3, 72, 64
5, 206300, Note_off_c, 3, 74, 64
5, 206300, Note_on_c, 3, 72, 88
5, 206620, Note_off_c, 3, 72, 64
5, 206780, Note_on_c, 3, 65, 88
5, 206900, Note_on_c, 3, 67, 88
5, 207040, Note_off_c, 3, 65, 64
5, 207260, Note_on_c, 3, 70, 88
5, 207280, Note_off_c, 3, 67, 64
5, 210520, Note_off_c, 3, 70, 64
5, 210620, Note_on_c, 3, 72, 88
5, 210860, Note_off_c, 3, 72, 64
5, 210860, Note_on_c, 3, 74, 88
5, 211180, Note_off_c, 3, 74, 64
5, 211700, Note_on_c, 3, 77, 88
5, 211920, Note_off_c, 3, 77, 64
5, 212180, Note_on_c, 3, 77, 88
5, 213280, Note_off_c, 3, 77, 64
5, 213500, Note_on_c, 3, 72, 88
5, 213620, Note_on_c, 3, 74, 88
5, 213700, Note_off_c, 3, 72, 64
5, 213860, Note_on_c, 3, 72, 88
5, 213920, Note_off_c, 3, 74, 64
5, 214220, Note_off_c, 3, 72, 64
5, 214460, Note_on_c, 3, 65, 88
5, 214700, Note_on_c, 3, 67, 88
5, 214740, Note_off_c, 3, 65, 64
5, 215060, Note_on_c, 3, 70, 88
5, 215120, Note_off_c, 3, 67, 64
5, 218540, Note_off_c, 3, 70, 64
5, 218540, End_track
6, 0, Start_track
6, 0, MIDI_port, 0
6, 0, Channel_prefix, 9
6, 0, Control_c, 9, 10, 64
6, 0, Control_c, 9, 121, 0
6, 17, Control_c, 9, 91, 90
6, 17, Control_c, 9, 93, 75
6, 21, Control_c, 9, 11, 127
6, 24960, Note_on_c, 9, 35, 104
6, 24960, Note_on_c, 9, 51, 90
6, 24960, Note_on_c, 9, 82, 76
6, 24961, Note_off_c, 9, 82, 64
6, 24961, Note_off_c, 9, 51, 64
6, 24961, Note_off_c, 9, 35, 64
6, 25120, Note_on_c, 9, 82, 44
6, 25121, Note_off_c, 9, 82, 64
6, 25280, Note_on_c, 9, 69, 59
6, 25281, Note_off_c, 9, 69, 64
6, 25440, Note_on_c, 9, 51, 113
6, 25440, Note_on_c, 9, 82, 85
6, 25440, Note_on_c, 9, 44, 90
6, 25440, Note_on_c, 9, 38, 93
6, 25441, Note_off_c, 9, 38, 64
6, 25441, Note_off_c, 9, 44, 64
6, 25441, Note_off_c, 9, 82, 64
6, 25441, Note_off_c, 9, 51, 64
6, 25600, Note_on_c, 9, 82, 44
6, 25601, Note_off_c, 9, 82, 64
6, 25760, Note_on_c, 9, 35, 102
6, 25760, Note_on_c, 9, 51, 85
6, 25760, Note_on_c, 9, 69, 60
6, 25761, Note_off_c, 9, 69, 64
6, 25761, Note_off_c, 9, 51, 64
6, 25761, Note_off_c, 9, 35, 64
6, 25920, Note_on_c, 9, 35, 110
6, 25920, Note_on_c, 9, 51, 87
6, 25920, Note_on_c, 9, 82, 76
6, 25921, Note_off_c, 9, 82, 64
6, 25921, Note_off_c, 9, 51, 64
6, 25921, Note_off_c, 9, 35, 64
6, 26080, Note_on_c, 9, 82, 43
6, 26081, Note_off_c, 9, 82, 64
6, 26240, Note_on_c, 9, 69, 54
6, 26241, Note_off_c, 9, 69, 64
6, 26400, Note_on_c, 9, 51, 90
6, 26400, Note_on_c, 9, 82, 76
6, 26400, Note_on_c, 9, 44, 92
6, 26400, Note_on_c, 9, 38, 90
6, 26401, Note_off_c, 9, 44, 64
6, 26401, Note_off_c, 9, 82, 64
6, 26401, Note_off_c, 9, 51, 64
6, 26420, Note_off_c, 9, 38, 64
6, 26560, Note_on_c, 9, 82, 44
6, 26561, Note_off_c, 9, 82, 64
6, 26720, Note_on_c, 9, 51, 90
6, 26720, Note_on_c, 9, 69, 54
6, 26721, Note_off_c, 9, 69, 64
6, 26721, Note_off_c, 9, 51, 64
6, 26880, Note_on_c, 9, 35, 102
6, 26880, Note_on_c, 9, 51, 89
6, 26880, Note_on_c, 9, 82, 67
6, 26881, Note_off_c, 9, 82, 64
6, 26881, Note_off_c, 9, 51, 64
6, 26881, Note_off_c, 9, 35, 64
6, 27040, Note_on_c, 9, 82, 41
6, 27041, Note_off_c, 9, 82, 64
6, 27200, Note_on_c, 9, 69, 54
6, 27201, Note_off_c, 9, 69, 64
6, 27360, Note_on_c, 9, 51, 94
6, 27360, Note_on_c, 9, 82, 76
6, 27360, Note_on_c, 9, 44, 93
6, 27360, Note_on_c, 9, 38, 89
6, 27361, Note_off_c, 9, 82, 64
6, 27361, Note_off_c, 9, 51, 64
6, 27380, Note_off_c, 9, 44, 64
6, 27380, Note_off_c, 9, 38, 64
6, 27520, Note_on_c, 9, 82, 39
6, 27521, Note_off_c, 9, 82, 64
6, 27680, Note_on_c, 9, 35, 102
6, 27680, Note_on_c, 9, 51, 86
6, 27680, Note_on_c, 9, 69, 56
6, 27681, Note_off_c, 9, 69, 64
6, 27681, Note_off_c, 9, 51, 64
6, 27681, Note_off_c, 9, 35, 64
6, 27840, Note_on_c, 9, 35, 107
6, 27840, Note_on_c, 9, 51, 87
6, 27840, Note_on_c, 9, 82, 85
6, 27841, Note_off_c, 9, 82, 64
6, 27841, Note_off_c, 9, 51, 64
6, 27841, Note_off_c, 9, 35, 64
6, 28000, Note_on_c, 9, 82, 40
6, 28001, Note_off_c, 9, 82, 64
6, 28160, Note_on_c, 9, 69, 58
6, 28161, Note_off_c, 9, 69, 64
6, 28320, Note_on_c, 9, 51, 102
6, 28320, Note_on_c, 9, 82, 76
6, 28320, Note_on_c, 9, 44, 95
6, 28320, Note_on_c, 9, 38, 95
6, 28321, Note_off_c, 9, 44, 64
6, 28321, Note_off_c, 9, 82, 64
6, 28321, Note_off_c, 9, 51, 64
6, 28340, Note_off_c, 9, 38, 64
6, 28480, Note_on_c, 9, 82, 41
6, 28481, Note_off_c, 9, 82, 64
6, 28640, Note_on_c, 9, 35, 95
6, 28640, Note_on_c, 9, 51, 85
6, 28640, Note_on_c, 9, 69, 58
6, 28641, Note_off_c, 9, 51, 64
6, 28641, Note_off_c, 9, 35, 64
6, 28660, Note_off_c, 9, 69, 64
6, 28800, Note_on_c, 9, 35, 102
6, 28800, Note_on_c, 9, 51, 87
6, 28800, Note_on_c, 9, 82, 76
6, 28801, Note_off_c, 9, 82, 64
6, 28801, Note_off_c, 9, 51, 64
6, 28801, Note_off_c, 9, 35, 64
6, 28960, Note_on_c, 9, 82, 43
6, 28961, Note_off_c, 9, 82, 64
6, 29120, Note_on_c, 9, 69, 58
6, 29121, Note_off_c, 9, 69, 64
6, 29280, Note_on_c, 9, 51, 90
6, 29280, Note_on_c, 9, 82, 85
6, 29280, Note_on_c, 9, 44, 95
6, 29280, Note_on_c, 9, 38, 97
6, 29300, Note_off_c, 9, 38, 64
6, 29300, Note_off_c, 9, 44, 64
6, 29300, Note_off_c, 9, 82, 64
6, 29300, Note_off_c, 9, 51, 64
6, 29440, Note_on_c, 9, 82, 43
6, 29441, Note_off_c, 9, 82, 64
6, 29600, Note_on_c, 9, 35, 92
6, 29600, Note_on_c, 9, 69, 52
6, 29601, Note_off_c, 9, 69, 64
6, 29601, Note_off_c, 9, 35, 64
6, 29760, Note_on_c, 9, 35, 107
6, 29760, Note_on_c, 9, 51, 87
6, 29760, Note_on_c, 9, 82, 76
6, 29761, Note_off_c, 9, 82, 64
6, 29761, Note_off_c, 9, 51, 64
6, 29761, Note_off_c, 9, 35, 64
6, 29920, Note_on_c, 9, 82, 56
6, 29921, Note_off_c, 9, 82, 64
6, 30080, Note_on_c, 9, 51, 89
6, 30080, Note_on_c, 9, 69, 56
6, 30081, Note_off_c, 9, 69, 64
6, 30081, Note_off_c, 9, 51, 64
6, 30240, Note_on_c, 9, 51, 89
6, 30240, Note_on_c, 9, 82, 85
6, 30240, Note_on_c, 9, 44, 92
6, 30240, Note_on_c, 9, 38, 94
6, 30241, Note_off_c, 9, 82, 64
6, 30241, Note_off_c, 9, 51, 64
6, 30260, Note_off_c, 9, 44, 64
6, 30260, Note_off_c, 9, 38, 64
6, 30400, Note_on_c, 9, 82, 48
6, 30401, Note_off_c, 9, 82, 64
6, 30560, Note_on_c, 9, 35, 90
6, 30560, Note_on_c, 9, 51, 84
6, 30560, Note_on_c, 9, 69, 59
6, 30561, Note_off_c, 9, 69, 64
6, 30561, Note_off_c, 9, 51, 64
6, 30561, Note_off_c, 9, 35, 64
6, 30720, Note_on_c, 9, 35, 113
6, 30720, Note_on_c, 9, 51, 94
6, 30720, Note_on_c, 9, 82, 56
6, 30721, Note_off_c, 9, 82, 64
6, 30721, Note_off_c, 9, 51, 64
6, 30721, Note_off_c, 9, 35, 64
6, 30880, Note_on_c, 9, 82, 40
6, 30881, Note_off_c, 9, 82, 64
6, 31040, Note_on_c, 9, 69, 58
6, 31041, Note_off_c, 9, 69, 64
6, 31200, Note_on_c, 9, 51, 102
6, 31200, Note_on_c, 9, 82, 56
6, 31200, Note_on_c, 9, 44, 93
6, 31200, Note_on_c, 9, 38, 87
6, 31220, Note_off_c, 9, 38, 64
6, 31220, Note_off_c, 9, 44, 64
6, 31220, Note_off_c, 9, 82, 64
6, 31220, Note_off_c, 9, 51, 64
6, 31360, Note_on_c, 9, 82, 40
6, 31361, Note_off_c, 9, 82, 64
6, 31520, Note_on_c, 9, 35, 99
6, 31520, Note_on_c, 9, 69, 52
6, 31521, Note_off_c, 9, 69, 64
6, 31521, Note_off_c, 9, 35, 64
6, 31680, Note_on_c, 9, 35, 105
6, 31680, Note_on_c, 9, 51, 89
6, 31680, Note_on_c, 9, 82, 67
6, 31681, Note_off_c, 9, 82, 64
6, 31681, Note_off_c, 9, 51, 64
6, 31681, Note_off_c, 9, 35, 64
6, 31840, Note_on_c, 9, 82, 41
6, 31841, Note_off_c, 9, 82, 64
6, 32000, Note_on_c, 9, 69, 59
6, 32001, Note_off_c, 9, 69, 64
6, 32160, Note_on_c, 9, 51, 90
6, 32160, Note_on_c, 9, 82, 76
6, 32160, Note_on_c, 9, 44, 92
6, 32160, Note_on_c, 9, 38, 90
6, 32161, Note_off_c, 9, 44, 64
6, 32161, Note_off_c, 9, 82, 64
6, 32161, Note_off_c, 9, 51, 64
6, 32180, Note_off_c, 9, 38, 64
6, 32320, Note_on_c, 9, 82, 41
6, 32321, Note_off_c, 9, 82, 64
6, 32480, Note_on_c, 9, 51, 86
6, 32480, Note_on_c, 9, 69, 56
6, 32481, Note_off_c, 9, 69, 64
6, 32481, Note_off_c, 9, 51, 64
6, 32640, Note_on_c, 9, 35, 104
6, 32640, Note_on_c, 9, 51, 90
6, 32640, Note_on_c, 9, 82, 76
6, 32660, Note_off_c, 9, 82, 64
6, 32660, Note_off_c, 9, 51, 64
6, 32660, Note_off_c, 9, 35, 64
6, 32800, Note_on_c, 9, 82, 44
6, 32801, Note_off_c, 9, 82, 64
6, 32960, Note_on_c, 9, 69, 59
6, 32961, Note_off_c, 9, 69, 64
6, 33120, Note_on_c, 9, 51, 113
6, 33120, Note_on_c, 9, 82, 85
6, 33120, Note_on_c, 9, 44, 90
6, 33120, Note_on_c, 9, 38, 93
6, 33121, Note_off_c, 9, 38, 64
6, 33121, Note_off_c, 9, 44, 64
6, 33121, Note_off_c, 9, 82, 64
6, 33121, Note_off_c, 9, 51, 64
6, 33280, Note_on_c, 9, 82, 44
6, 33281, Note_off_c, 9, 82, 64
6, 33440, Note_on_c, 9, 35, 102
6, 33440, Note_on_c, 9, 51, 85
6, 33440, Note_on_c, 9, 69, 60
6, 33441, Note_off_c, 9, 69, 64
6, 33441, Note_off_c, 9, 51, 64
6, 33441, Note_off_c, 9, 35, 64
6, 33600, Note_on_c, 9, 35, 110
6, 33600, Note_on_c, 9, 51, 87
6, 33600, Note_on_c, 9, 82, 76
6, 33601, Note_off_c, 9, 82, 64
6, 33601, Note_off_c, 9, 51, 64
6, 33601, Note_off_c, 9, 35, 64
6, 33760, Note_on_c, 9, 82, 43
6, 33761, Note_off_c, 9, 82, 64
6, 33920, Note_on_c, 9, 69, 54
6, 33921, Note_off_c, 9, 69, 64
6, 34080, Note_on_c, 9, 51, 90
6, 34080, Note_on_c, 9, 82, 76
6, 34080, Note_on_c, 9, 44, 92
6, 34080, Note_on_c, 9, 38, 90
6, 34081, Note_off_c, 9, 38, 64
6, 34081, Note_off_c, 9, 44, 64
6, 34081, Note_off_c, 9, 82, 64
6, 34081, Note_off_c, 9, 51, 64
6, 34240, Note_on_c, 9, 82, 44
6, 34241, Note_off_c, 9, 82, 64
6, 34400, Note_on_c, 9, 51, 90
6, 34400, Note_on_c, 9, 69, 54
6, 34401, Note_off_c, 9, 69, 64
6, 34401, Note_off_c, 9, 51, 64
6, 34560, Note_on_c, 9, 35, 102
6, 34560, Note_on_c, 9, 51, 89
6, 34560, Note_on_c, 9, 82, 67
6, 34561, Note_off_c, 9, 82, 64
6, 34561, Note_off_c, 9, 51, 64
6, 34561, Note_off_c, 9, 35, 64
6, 34720, Note_on_c, 9, 82, 41
6, 34721, Note_off_c, 9, 82, 64
6, 34880, Note_on_c, 9, 69, 54
6, 34881, Note_off_c, 9, 69, 64
6, 35040, Note_on_c, 9, 51, 94
6, 35040, Note_on_c, 9, 82, 76
6, 35040, Note_on_c, 9, 44, 93
6, 35040, Note_on_c, 9, 38, 89
6, 35060, Note_off_c, 9, 38, 64
6, 35060, Note_off_c, 9, 44, 64
6, 35060, Note_off_c, 9, 82, 64
6, 35060, Note_off_c, 9, 51, 64
6, 35200, Note_on_c, 9, 82, 39
6, 35201, Note_off_c, 9, 82, 64
6, 35360, Note_on_c, 9, 35, 102
6, 35360, Note_on_c, 9, 51, 86
6, 35360, Note_on_c, 9, 69, 56
6, 35361, Note_off_c, 9, 69, 64
6, 35361, Note_off_c, 9, 51, 64
6, 35361, Note_off_c, 9, 35, 64
6, 35520, Note_on_c, 9, 35, 107
6, 35520, Note_on_c, 9, 51, 87
6, 35520, Note_on_c, 9, 82, 85
6, 35521, Note_off_c, 9, 82, 64
6, 35521, Note_off_c, 9, 51, 64
6, 35521, Note_off_c, 9, 35, 64
6, 35680, Note_on_c, 9, 82, 40
6, 35681, Note_off_c, 9, 82, 64
6, 35840, Note_on_c, 9, 69, 58
6, 35841, Note_off_c, 9, 69, 64
6, 36000, Note_on_c, 9, 51, 102
6, 36000, Note_on_c, 9, 82, 76
6, 36000, Note_on_c, 9, 44, 95
6, 36000, Note_on_c, 9, 38, 95
6, 36001, Note_off_c, 9, 38, 64
6, 36001, Note_off_c, 9, 44, 64
6, 36001, Note_off_c, 9, 82, 64
6, 36001, Note_off_c, 9, 51, 64
6, 36160, Note_on_c, 9, 82, 41
6, 36161, Note_off_c, 9, 82, 64
6, 36320, Note_on_c, 9, 35, 95
6, 36320, Note_on_c, 9, 51, 85
6, 36320, Note_on_c, 9, 69, 58
6, 36321, Note_off_c, 9, 69, 64
6, 36321, Note_off_c, 9, 51, 64
6, 36321, Note_off_c, 9, 35, 64
6, 36480, Note_on_c, 9, 35, 102
6, 36480, Note_on_c, 9, 51, 87
6, 36480, Note_on_c, 9, 82, 76
6, 36481, Note_off_c, 9, 82, 64
6, 36481, Note_off_c, 9, 51, 64
6, 36481, Note_off_c, 9, 35, 64
6, 36640, Note_on_c, 9, 82, 43
6, 36641, Note_off_c, 9, 82, 64
6, 36800, Note_on_c, 9, 69, 58
6, 36801, Note_off_c, 9, 69, 64
6, 36960, Note_on_c, 9, 51, 90
6, 36960, Note_on_c, 9, 82, 85
6, 36960, Note_on_c, 9, 44, 95
6, 36960, Note_on_c, 9, 38, 97
6, 36980, Note_off_c, 9, 38, 64
6, 36980, Note_off_c, 9, 44, 64
6, 36980, Note_off_c, 9, 82, 64
6, 36980, Note_off_c, 9, 51, 64
6, 37120, Note_on_c, 9, 82, 43
6, 37121, Note_off_c, 9, 82, 64
6, 37280, Note_on_c, 9, 35, 92
6, 37280, Note_on_c, 9, 69, 52
6, 37281, Note_off_c, 9, 69, 64
6, 37281, Note_off_c, 9, 35, 64
6, 37440, Note_on_c, 9, 35, 107
6, 37440, Note_on_c, 9, 51, 87
6, 37440, Note_on_c, 9, 82, 76
6, 37441, Note_off_c, 9, 82, 64
6, 37441, Note_off_c, 9, 51, 64
6, 37441, Note_off_c, 9, 35, 64
6, 37600, Note_on_c, 9, 82, 56
6, 37601, Note_off_c, 9, 82, 64
6, 37760, Note_on_c, 9, 51, 89
6, 37760, Note_on_c, 9, 69, 56
6, 37761, Note_off_c, 9, 69, 64
6, 37761, Note_off_c, 9, 51, 64
6, 37920, Note_on_c, 9, 51, 89
6, 37920, Note_on_c, 9, 82, 85
6, 37920, Note_on_c, 9, 44, 92
6, 37920, Note_on_c, 9, 38, 94
6, 37921, Note_off_c, 9, 38, 64
6, 37921, Note_off_c, 9, 44, 64
6, 37921, Note_off_c, 9, 82, 64
6, 37921, Note_off_c, 9, 51, 64
6, 38080, Note_on_c, 9, 82, 48
6, 38081, Note_off_c, 9, 82, 64
6, 38240, Note_on_c, 9, 35, 90
6, 38240, Note_on_c, 9, 51, 84
6, 38240, Note_on_c, 9, 69, 59
6, 38241, Note_off_c, 9, 69, 64
6, 38241, Note_off_c, 9, 51, 64
6, 38241, Note_off_c, 9, 35, 64
6, 38400, Note_on_c, 9, 35, 113
6, 38400, Note_on_c, 9, 51, 94
6, 38400, Note_on_c, 9, 82, 56
6, 38401, Note_off_c, 9, 82, 64
6, 38401, Note_off_c, 9, 51, 64
6, 38401, Note_off_c, 9, 35, 64
6, 38560, Note_on_c, 9, 82, 40
6, 38561, Note_off_c, 9, 82, 64
6, 38720, Note_on_c, 9, 69, 58
6, 38721, Note_off_c, 9, 69, 64
6, 38880, Note_on_c, 9, 51, 102
6, 38880, Note_on_c, 9, 82, 56
6, 38880, Note_on_c, 9, 44, 93
6, 38880, Note_on_c, 9, 38, 87
6, 38900, Note_off_c, 9, 38, 64
6, 38900, Note_off_c, 9, 44, 64
6, 38900, Note_off_c, 9, 82, 64
6, 38900, Note_off_c, 9, 51, 64
6, 39040, Note_on_c, 9, 82, 40
6, 39041, Note_off_c, 9, 82, 64
6, 39200, Note_on_c, 9, 35, 99
6, 39200, Note_on_c, 9, 69, 52
6, 39201, Note_off_c, 9, 69, 64
6, 39201, Note_off_c, 9, 35, 64
6, 39360, Note_on_c, 9, 35, 105
6, 39360, Note_on_c, 9, 51, 89
6, 39360, Note_on_c, 9, 82, 67
6, 39361, Note_off_c, 9, 82, 64
6, 39361, Note_off_c, 9, 51, 64
6, 39361, Note_off_c, 9, 35, 64
6, 39520, Note_on_c, 9, 82, 41
6, 39521, Note_off_c, 9, 82, 64
6, 39680, Note_on_c, 9, 69, 59
6, 39681, Note_off_c, 9, 69, 64
6, 39840, Note_on_c, 9, 51, 90
6, 39840, Note_on_c, 9, 82, 76
6, 39840, Note_on_c, 9, 44, 92
6, 39840, Note_on_c, 9, 38, 90
6, 39841, Note_off_c, 9, 44, 64
6, 39841, Note_off_c, 9, 82, 64
6, 39841, Note_off_c, 9, 51, 64
6, 39860, Note_off_c, 9, 38, 64
6, 40000, Note_on_c, 9, 82, 41
6, 40001, Note_off_c, 9, 82, 64
6, 40160, Note_on_c, 9, 51, 86
6, 40160, Note_on_c, 9, 69, 56
6, 40161, Note_off_c, 9, 69, 64
6, 40161, Note_off_c, 9, 51, 64
6, 40320, Note_on_c, 9, 35, 104
6, 40320, Note_on_c, 9, 51, 90
6, 40320, Note_on_c, 9, 82, 76
6, 40321, Note_off_c, 9, 82, 64
6, 40321, Note_off_c, 9, 51, 64
6, 40321, Note_off_c, 9, 35, 64
6, 40480, Note_on_c, 9, 82, 44
6, 40481, Note_off_c, 9, 82, 64
6, 40640, Note_on_c, 9, 69, 59
6, 40641, Note_off_c, 9, 69, 64
6, 40800, Note_on_c, 9, 51, 113
6, 40800, Note_on_c, 9, 82, 85
6, 40800, Note_on_c, 9, 44, 90
6, 40800, Note_on_c, 9, 38, 93
6, 40820, Note_off_c, 9, 38, 64
6, 40820, Note_off_c, 9, 44, 64
6, 40820, Note_off_c, 9, 82, 64
6, 40820, Note_off_c, 9, 51, 64
6, 40960, Note_on_c, 9, 82, 44
6, 40961, Note_off_c, 9, 82, 64
6, 41120, Note_on_c, 9, 35, 102
6, 41120, Note_on_c, 9, 51, 85
6, 41120, Note_on_c, 9, 69, 60
6, 41121, Note_off_c, 9, 69, 64
6, 41121, Note_off_c, 9, 51, 64
6, 41121, Note_off_c, 9, 35, 64
6, 41280, Note_on_c, 9, 35, 110
6, 41280, Note_on_c, 9, 51, 87
6, 41280, Note_on_c, 9, 82, 76
6, 41281, Note_off_c, 9, 82, 64
6, 41281, Note_off_c, 9, 51, 64
6, 41281, Note_off_c, 9, 35, 64
6, 41440, Note_on_c, 9, 82, 43
6, 41441, Note_off_c, 9, 82, 64
6, 41600, Note_on_c, 9, 69, 54
6, 41601, Note_off_c, 9, 69, 64
6, 41760, Note_on_c, 9, 51, 90
6, 41760, Note_on_c, 9, 82, 76
6, 41760, Note_on_c, 9, 44, 92
6, 41760, Note_on_c, 9, 38, 90
6, 41761, Note_off_c, 9, 82, 64
6, 41761, Note_off_c, 9, 51, 64
6, 41780, Note_off_c, 9, 44, 64
6, 41780, Note_off_c, 9, 38, 64
6, 41920, Note_on_c, 9, 82, 44
6, 41921, Note_off_c, 9, 82, 64
6, 42080, Note_on_c, 9, 51, 90
6, 42080, Note_on_c, 9, 69, 54
6, 42081, Note_off_c, 9, 69, 64
6, 42081, Note_off_c, 9, 51, 64
6, 42240, Note_on_c, 9, 35, 102
6, 42240, Note_on_c, 9, 51, 89
6, 42240, Note_on_c, 9, 82, 67
6, 42241, Note_off_c, 9, 82, 64
6, 42241, Note_off_c, 9, 51, 64
6, 42241, Note_off_c, 9, 35, 64
6, 42400, Note_on_c, 9, 82, 41
6, 42401, Note_off_c, 9, 82, 64
6, 42560, Note_on_c, 9, 69, 54
6, 42561, Note_off_c, 9, 69, 64
6, 42720, Note_on_c, 9, 51, 94
6, 42720, Note_on_c, 9, 82, 76
6, 42720, Note_on_c, 9, 44, 93
6, 42720, Note_on_c, 9, 38, 89
6, 42740, Note_off_c, 9, 38, 64
6, 42740, Note_off_c, 9, 44, 64
6, 42740, Note_off_c, 9, 82, 64
6, 42740, Note_off_c, 9, 51, 64
6, 42880, Note_on_c, 9, 82, 39
6, 42881, Note_off_c, 9, 82, 64
6, 43040, Note_on_c, 9, 35, 102
6, 43040, Note_on_c, 9, 51, 86
6, 43040, Note_on_c, 9, 69, 56
6, 43041, Note_off_c, 9, 69, 64
6, 43041, Note_off_c, 9, 51, 64
6, 43041, Note_off_c, 9, 35, 64
6, 43200, Note_on_c, 9, 35, 107
6, 43200, Note_on_c, 9, 51, 87
6, 43200, Note_on_c, 9, 82, 85
6, 43201, Note_off_c, 9, 82, 64
6, 43201, Note_off_c, 9, 51, 64
6, 43201, Note_off_c, 9, 35, 64
6, 43360, Note_on_c, 9, 82, 40
6, 43361, Note_off_c, 9, 82, 64
6, 43520, Note_on_c, 9, 69, 58
6, 43521, Note_off_c, 9, 69, 64
6, 43680, Note_on_c, 9, 51, 102
6, 43680, Note_on_c, 9, 82, 76
6, 43680, Note_on_c, 9, 44, 95
6, 43680, Note_on_c, 9, 38, 95
6, 43681, Note_off_c, 9, 38, 64
6, 43681, Note_off_c, 9, 44, 64
6, 43681, Note_off_c, 9, 82, 64
6, 43681, Note_off_c, 9, 51, 64
6, 43840, Note_on_c, 9, 82, 41
6, 43841, Note_off_c, 9, 82, 64
6, 44000, Note_on_c, 9, 35, 95
6, 44000, Note_on_c, 9, 51, 85
6, 44000, Note_on_c, 9, 69, 58
6, 44001, Note_off_c, 9, 69, 64
6, 44001, Note_off_c, 9, 51, 64
6, 44001, Note_off_c, 9, 35, 64
6, 44160, Note_on_c, 9, 35, 102
6, 44160, Note_on_c, 9, 51, 87
6, 44160, Note_on_c, 9, 82, 76
6, 44161, Note_off_c, 9, 82, 64
6, 44161, Note_off_c, 9, 51, 64
6, 44161, Note_off_c, 9, 35, 64
6, 44320, Note_on_c, 9, 82, 43
6, 44321, Note_off_c, 9, 82, 64
6, 44480, Note_on_c, 9, 69, 58
6, 44481, Note_off_c, 9, 69, 64
6, 44640, Note_on_c, 9, 51, 90
6, 44640, Note_on_c, 9, 82, 85
6, 44640, Note_on_c, 9, 44, 95
6, 44640, Note_on_c, 9, 38, 97
6, 44660, Note_off_c, 9, 38, 64
6, 44660, Note_off_c, 9, 44, 64
6, 44660, Note_off_c, 9, 82, 64
6, 44660, Note_off_c, 9, 51, 64
6, 44800, Note_on_c, 9, 82, 43
6, 44801, Note_off_c, 9, 82, 64
6, 44960, Note_on_c, 9, 35, 92
6, 44960, Note_on_c, 9, 69, 52
6, 44961, Note_off_c, 9, 69, 64
6, 44961, Note_off_c, 9, 35, 64
6, 45120, Note_on_c, 9, 35, 107
6, 45120, Note_on_c, 9, 51, 87
6, 45120, Note_on_c, 9, 82, 76
6, 45121, Note_off_c, 9, 82, 64
6, 45121, Note_off_c, 9, 51, 64
6, 45121, Note_off_c, 9, 35, 64
6, 45280, Note_on_c, 9, 82, 56
6, 45281, Note_off_c, 9, 82, 64
6, 45440, Note_on_c, 9, 51, 89
6, 45440, Note_on_c, 9, 69, 56
6, 45441, Note_off_c, 9, 69, 64
6, 45441, Note_off_c, 9, 51, 64
6, 45600, Note_on_c, 9, 51, 89
6, 45600, Note_on_c, 9, 82, 85
6, 45600, Note_on_c, 9, 44, 92
6, 45600, Note_on_c, 9, 38, 94
6, 45601, Note_off_c, 9, 44, 64
6, 45601, Note_off_c, 9, 82, 64
6, 45601, Note_off_c, 9, 51, 64
6, 45620, Note_off_c, 9, 38, 64
6, 45760, Note_on_c, 9, 82, 48
6, 45761, Note_off_c, 9, 82, 64
6, 45920, Note_on_c, 9, 35, 90
6, 45920, Note_on_c, 9, 51, 84
6, 45920, Note_on_c, 9, 69, 59
6, 45921, Note_off_c, 9, 69, 64
6, 45921, Note_off_c, 9, 51, 64
6, 45921, Note_off_c, 9, 35, 64
6, 46080, Note_on_c, 9, 35, 113
6, 46080, Note_on_c, 9, 51, 94
6, 46080, Note_on_c, 9, 82, 56
6, 46100, Note_off_c, 9, 82, 64
6, 46100, Note_off_c, 9, 51, 64
6, 46100, Note_off_c, 9, 35, 64
6, 46240, Note_on_c, 9, 82, 40
6, 46241, Note_off_c, 9, 82, 64
6, 46400, Note_on_c, 9, 69, 58
6, 46401, Note_off_c, 9, 69, 64
6, 46560, Note_on_c, 9, 51, 102
6, 46560, Note_on_c, 9, 82, 56
6, 46560, Note_on_c, 9, 44, 93
6, 46560, Note_on_c, 9, 38, 87
6, 46561, Note_off_c, 9, 44, 64
6, 46561, Note_off_c, 9, 82, 64
6, 46561, Note_off_c, 9, 51, 64
6, 46580, Note_off_c, 9, 38, 64
6, 46720, Note_on_c, 9, 82, 40
6, 46721, Note_off_c, 9, 82, 64
6, 46880, Note_on_c, 9, 35, 99
6, 46880, Note_on_c, 9, 69, 52
6, 46881, Note_off_c, 9, 69, 64
6, 46881, Note_off_c, 9, 35, 64
6, 47040, Note_on_c, 9, 35, 105
6, 47040, Note_on_c, 9, 51, 89
6, 47040, Note_on_c, 9, 82, 67
6, 47041, Note_off_c, 9, 82, 64
6, 47041, Note_off_c, 9, 51, 64
6, 47041, Note_off_c, 9, 35, 64
6, 47200, Note_on_c, 9, 82, 41
6, 47201, Note_off_c, 9, 82, 64
6, 47360, Note_on_c, 9, 69, 59
6, 47361, Note_off_c, 9, 69, 64
6, 47520, Note_on_c, 9, 51, 90
6, 47520, Note_on_c, 9, 82, 76
6, 47520, Note_on_c, 9, 44, 92
6, 47520, Note_on_c, 9, 38, 90
6, 47521, Note_off_c, 9, 44, 64
6, 47521, Note_off_c, 9, 82, 64
6, 47521, Note_off_c, 9, 51, 64
6, 47540, Note_off_c, 9, 38, 64
6, 47680, Note_on_c, 9, 82, 41
6, 47681, Note_off_c, 9, 82, 64
6, 47840, Note_on_c, 9, 51, 86
6, 47840, Note_on_c, 9, 69, 56
6, 47841, Note_off_c, 9, 69, 64
6, 47841, Note_off_c, 9, 51, 64
6, 48000, Note_on_c, 9, 35, 104
6, 48000, Note_on_c, 9, 51, 90
6, 48000, Note_on_c, 9, 82, 76
6, 48001, Note_off_c, 9, 82, 64
6, 48001, Note_off_c, 9, 51, 64
6, 48001, Note_off_c, 9, 35, 64
6, 48160, Note_on_c, 9, 82, 44
6, 48161, Note_off_c, 9, 82, 64
6, 48320, Note_on_c, 9, 69, 59
6, 48321, Note_off_c, 9, 69, 64
6, 48480, Note_on_c, 9, 51, 113
6, 48480, Note_on_c, 9, 82, 85
6, 48480, Note_on_c, 9, 44, 90
6, 48480, Note_on_c, 9, 38, 93
6, 48500, Note_off_c, 9, 38, 64
6, 48500, Note_off_c, 9, 44, 64
6, 48500, Note_off_c, 9, 82, 64
6, 48500, Note_off_c, 9, 51, 64
6, 48640, Note_on_c, 9, 82, 44
6, 48641, Note_off_c, 9, 82, 64
6, 48800, Note_on_c, 9, 35, 102
6, 48800, Note_on_c, 9, 51, 85
6, 48800, Note_on_c, 9, 69, 60
6, 48801, Note_off_c, 9, 69, 64
6, 48801, Note_off_c, 9, 51, 64
6, 48801, Note_off_c, 9, 35, 64
6, 48960, Note_on_c, 9, 35, 110
6, 48960, Note_on_c, 9, 51, 87
6, 48960, Note_on_c, 9, 82, 76
6, 48961, Note_off_c, 9, 51, 64
6, 48961, Note_off_c, 9, 35, 64
6, 48980, Note_off_c, 9, 82, 64
6, 49120, Note_on_c, 9, 82, 43
6, 49121, Note_off_c, 9, 82, 64
6, 49280, Note_on_c, 9, 69, 54
6, 49281, Note_off_c, 9, 69, 64
6, 49440, Note_on_c, 9, 51, 90
6, 49440, Note_on_c, 9, 82, 76
6, 49440, Note_on_c, 9, 44, 92
6, 49440, Note_on_c, 9, 38, 90
6, 49460, Note_off_c, 9, 38, 64
6, 49460, Note_off_c, 9, 44, 64
6, 49460, Note_off_c, 9, 82, 64
6, 49460, Note_off_c, 9, 51, 64
6, 49600, Note_on_c, 9, 82, 44
6, 49601, Note_off_c, 9, 82, 64
6, 49760, Note_on_c, 9, 51, 90
6, 49760, Note_on_c, 9, 69, 54
6, 49761, Note_off_c, 9, 69, 64
6, 49761, Note_off_c, 9, 51, 64
6, 49920, Note_on_c, 9, 35, 102
6, 49920, Note_on_c, 9, 51, 89
6, 49920, Note_on_c, 9, 82, 67
6, 49921, Note_off_c, 9, 51, 64
6, 49921, Note_off_c, 9, 35, 64
6, 49940, Note_off_c, 9, 82, 64
6, 50080, Note_on_c, 9, 82, 41
6, 50081, Note_off_c, 9, 82, 64
6, 50240, Note_on_c, 9, 69, 54
6, 50241, Note_off_c, 9, 69, 64
6, 50400, Note_on_c, 9, 51, 94
6, 50400, Note_on_c, 9, 82, 76
6, 50400, Note_on_c, 9, 44, 93
6, 50400, Note_on_c, 9, 38, 89
6, 50420, Note_off_c, 9, 38, 64
6, 50420, Note_off_c, 9, 44, 64
6, 50420, Note_off_c, 9, 82, 64
6, 50420, Note_off_c, 9, 51, 64
6, 50560, Note_on_c, 9, 82, 39
6, 50561, Note_off_c, 9, 82, 64
6, 50720, Note_on_c, 9, 35, 102
6, 50720, Note_on_c, 9, 51, 86
6, 50720, Note_on_c, 9, 69, 56
6, 50721, Note_off_c, 9, 69, 64
6, 50721, Note_off_c, 9, 51, 64
6, 50721, Note_off_c, 9, 35, 64
6, 50880, Note_on_c, 9, 35, 107
6, 50880, Note_on_c, 9, 51, 87
6, 50880, Note_on_c, 9, 82, 85
6, 50881, Note_off_c, 9, 51, 64
6, 50881, Note_off_c, 9, 35, 64
6, 50900, Note_off_c, 9, 82, 64
6, 51040, Note_on_c, 9, 82, 40
6, 51041, Note_off_c, 9, 82, 64
6, 51200, Note_on_c, 9, 69, 58
6, 51201, Note_off_c, 9, 69, 64
6, 51360, Note_on_c, 9, 51, 102
6, 51360, Note_on_c, 9, 82, 76
6, 51360, Note_on_c, 9, 44, 95
6, 51360, Note_on_c, 9, 38, 95
6, 51361, Note_off_c, 9, 44, 64
6, 51361, Note_off_c, 9, 82, 64
6, 51361, Note_off_c, 9, 51, 64
6, 51380, Note_off_c, 9, 38, 64
6, 51520, Note_on_c, 9, 82, 41
6, 51521, Note_off_c, 9, 82, 64
6, 51680, Note_on_c, 9, 35, 95
6, 51680, Note_on_c, 9, 51, 85
6, 51680, Note_on_c, 9, 69, 58
6, 51681, Note_off_c, 9, 69, 64
6, 51681, Note_off_c, 9, 51, 64
6, 51681, Note_off_c, 9, 35, 64
6, 51840, Note_on_c, 9, 35, 102
6, 51840, Note_on_c, 9, 51, 87
6, 51840, Note_on_c, 9, 82, 76
6, 51841, Note_off_c, 9, 51, 64
6, 51841, Note_off_c, 9, 35, 64
6, 51860, Note_off_c, 9, 82, 64
6, 52000, Note_on_c, 9, 82, 43
6, 52001, Note_off_c, 9, 82, 64
6, 52160, Note_on_c, 9, 69, 58
6, 52161, Note_off_c, 9, 69, 64
6, 52320, Note_on_c, 9, 51, 90
6, 52320, Note_on_c, 9, 82, 85
6, 52320, Note_on_c, 9, 44, 95
6, 52320, Note_on_c, 9, 38, 97
6, 52340, Note_off_c, 9, 38, 64
6, 52340, Note_off_c, 9, 44, 64
6, 52340, Note_off_c, 9, 82, 64
6, 52340, Note_off_c, 9, 51, 64
6, 52480, Note_on_c, 9, 82, 43
6, 52481, Note_off_c, 9, 82, 64
6, 52640, Note_on_c, 9, 35, 92
6, 52640, Note_on_c, 9, 69, 52
6, 52641, Note_off_c, 9, 69, 64
6, 52641, Note_off_c, 9, 35, 64
6, 52800, Note_on_c, 9, 35, 107
6, 52800, Note_on_c, 9, 51, 87
6, 52800, Note_on_c, 9, 82, 76
6, 52801, Note_off_c, 9, 51, 64
6, 52801, Note_off_c, 9, 35, 64
6, 52820, Note_off_c, 9, 82, 64
6, 52960, Note_on_c, 9, 82, 56
6, 52961, Note_off_c, 9, 82, 64
6, 53120, Note_on_c, 9, 51, 89
6, 53120, Note_on_c, 9, 69, 56
6, 53121, Note_off_c, 9, 69, 64
6, 53121, Note_off_c, 9, 51, 64
6, 53280, Note_on_c, 9, 51, 89
6, 53280, Note_on_c, 9, 82, 85
6, 53280, Note_on_c, 9, 44, 92
6, 53280, Note_on_c, 9, 38, 94
6, 53281, Note_off_c, 9, 38, 64
6, 53281, Note_off_c, 9, 44, 64
6, 53281, Note_off_c, 9, 82, 64
6, 53281, Note_off_c, 9, 51, 64
6, 53440, Note_on_c, 9, 82, 48
6, 53441, Note_off_c, 9, 82, 64
6, 53600, Note_on_c, 9, 35, 90
6, 53600, Note_on_c, 9, 51, 84
6, 53600, Note_on_c, 9, 69, 59
6, 53601, Note_off_c, 9, 69, 64
6, 53601, Note_off_c, 9, 51, 64
6, 53601, Note_off_c, 9, 35, 64
6, 53760, Note_on_c, 9, 35, 113
6, 53760, Note_on_c, 9, 51, 94
6, 53760, Note_on_c, 9, 82, 56
6, 53761, Note_off_c, 9, 51, 64
6, 53761, Note_off_c, 9, 35, 64
6, 53780, Note_off_c, 9, 82, 64
6, 53920, Note_on_c, 9, 82, 40
6, 53921, Note_off_c, 9, 82, 64
6, 54080, Note_on_c, 9, 69, 58
6, 54081, Note_off_c, 9, 69, 64
6, 54240, Note_on_c, 9, 51, 102
6, 54240, Note_on_c, 9, 82, 56
6, 54240, Note_on_c, 9, 44, 93
6, 54240, Note_on_c, 9, 38, 87
6, 54260, Note_off_c, 9, 38, 64
6, 54260, Note_off_c, 9, 44, 64
6, 54260, Note_off_c, 9, 82, 64
6, 54260, Note_off_c, 9, 51, 64
6, 54400, Note_on_c, 9, 82, 40
6, 54401, Note_off_c, 9, 82, 64
6, 54560, Note_on_c, 9, 35, 99
6, 54560, Note_on_c, 9, 69, 52
6, 54561, Note_off_c, 9, 69, 64
6, 54561, Note_off_c, 9, 35, 64
6, 54720, Note_on_c, 9, 35, 105
6, 54720, Note_on_c, 9, 51, 89
6, 54720, Note_on_c, 9, 82, 67
6, 54721, Note_off_c, 9, 82, 64
6, 54721, Note_off_c, 9, 51, 64
6, 54721, Note_off_c, 9, 35, 64
6, 54880, Note_on_c, 9, 82, 41
6, 54881, Note_off_c, 9, 82, 64
6, 55040, Note_on_c, 9, 69, 59
6, 55041, Note_off_c, 9, 69, 64
6, 55200, Note_on_c, 9, 51, 90
6, 55200, Note_on_c, 9, 82, 76
6, 55200, Note_on_c, 9, 44, 92
6, 55200, Note_on_c, 9, 38, 90
6, 55220, Note_off_c, 9, 38, 64
6, 55220, Note_off_c, 9, 44, 64
6, 55220, Note_off_c, 9, 82, 64
6, 55220, Note_off_c, 9, 51, 64
6, 55360, Note_on_c, 9, 82, 41
6, 55361, Note_off_c, 9, 82, 64
6, 55520, Note_on_c, 9, 51, 86
6, 55520, Note_on_c, 9, 69, 56
6, 55521, Note_off_c, 9, 69, 64
6, 55521, Note_off_c, 9, 51, 64
6, 55680, Note_on_c, 9, 35, 104
6, 55680, Note_on_c, 9, 51, 90
6, 55680, Note_on_c, 9, 82, 76
6, 55681, Note_off_c, 9, 82, 64
6, 55681, Note_off_c, 9, 51, 64
6, 55681, Note_off_c, 9, 35, 64
6, 55840, Note_on_c, 9, 82, 44
6, 55841, Note_off_c, 9, 82, 64
6, 56000, Note_on_c, 9, 69, 59
6, 56001, Note_off_c, 9, 69, 64
6, 56160, Note_on_c, 9, 51, 113
6, 56160, Note_on_c, 9, 82, 85
6, 56160, Note_on_c, 9, 44, 90
6, 56160, Note_on_c, 9, 38, 93
6, 56180, Note_off_c, 9, 38, 64
6, 56180, Note_off_c, 9, 44, 64
6, 56180, Note_off_c, 9, 82, 64
6, 56180, Note_off_c, 9, 51, 64
6, 56320, Note_on_c, 9, 82, 44
6, 56321, Note_off_c, 9, 82, 64
6, 56480, Note_on_c, 9, 35, 102
6, 56480, Note_on_c, 9, 51, 85
6, 56480, Note_on_c, 9, 69, 60
6, 56481, Note_off_c, 9, 69, 64
6, 56481, Note_off_c, 9, 51, 64
6, 56481, Note_off_c, 9, 35, 64
6, 56640, Note_on_c, 9, 35, 110
6, 56640, Note_on_c, 9, 51, 87
6, 56640, Note_on_c, 9, 82, 76
6, 56641, Note_off_c, 9, 82, 64
6, 56641, Note_off_c, 9, 51, 64
6, 56641, Note_off_c, 9, 35, 64
6, 56800, Note_on_c, 9, 82, 43
6, 56801, Note_off_c, 9, 82, 64
6, 56960, Note_on_c, 9, 69, 54
6, 56961, Note_off_c, 9, 69, 64
6, 57120, Note_on_c, 9, 51, 90
6, 57120, Note_on_c, 9, 82, 76
6, 57120, Note_on_c, 9, 44, 92
6, 57120, Note_on_c, 9, 38, 90
6, 57140, Note_off_c, 9, 38, 64
6, 57140, Note_off_c, 9, 44, 64
6, 57140, Note_off_c, 9, 82, 64
6, 57140, Note_off_c, 9, 51, 64
6, 57280, Note_on_c, 9, 82, 44
6, 57281, Note_off_c, 9, 82, 64
6, 57440, Note_on_c, 9, 51, 90
6, 57440, Note_on_c, 9, 69, 54
6, 57441, Note_off_c, 9, 69, 64
6, 57441, Note_off_c, 9, 51, 64
6, 57600, Note_on_c, 9, 35, 102
6, 57600, Note_on_c, 9, 51, 89
6, 57600, Note_on_c, 9, 82, 67
6, 57601, Note_off_c, 9, 82, 64
6, 57601, Note_off_c, 9, 51, 64
6, 57601, Note_off_c, 9, 35, 64
6, 57760, Note_on_c, 9, 82, 41
6, 57761, Note_off_c, 9, 82, 64
6, 57920, Note_on_c, 9, 69, 54
6, 57921, Note_off_c, 9, 69, 64
6, 58080, Note_on_c, 9, 51, 94
6, 58080, Note_on_c, 9, 82, 76
6, 58080, Note_on_c, 9, 44, 93
6, 58080, Note_on_c, 9, 38, 89
6, 58100, Note_off_c, 9, 38, 64
6, 58100, Note_off_c, 9, 44, 64
6, 58100, Note_off_c, 9, 82, 64
6, 58100, Note_off_c, 9, 51, 64
6, 58240, Note_on_c, 9, 82, 39
6, 58241, Note_off_c, 9, 82, 64
6, 58400, Note_on_c, 9, 35, 102
6, 58400, Note_on_c, 9, 51, 86
6, 58400, Note_on_c, 9, 69, 56
6, 58401, Note_off_c, 9, 69, 64
6, 58401, Note_off_c, 9, 51, 64
6, 58401, Note_off_c, 9, 35, 64
6, 58560, Note_on_c, 9, 35, 107
6, 58560, Note_on_c, 9, 51, 87
6, 58560, Note_on_c, 9, 82, 85
6, 58561, Note_off_c, 9, 82, 64
6, 58561, Note_off_c, 9, 51, 64
6, 58561, Note_off_c, 9, 35, 64
6, 58720, Note_on_c, 9, 82, 40
6, 58721, Note_off_c, 9, 82, 64
6, 58880, Note_on_c, 9, 69, 58
6, 58881, Note_off_c, 9, 69, 64
6, 59040, Note_on_c, 9, 51, 102
6, 59040, Note_on_c, 9, 82, 76
6, 59040, Note_on_c, 9, 44, 95
6, 59040, Note_on_c, 9, 38, 95
6, 59060, Note_off_c, 9, 38, 64
6, 59060, Note_off_c, 9, 44, 64
6, 59060, Note_off_c, 9, 82, 64
6, 59060, Note_off_c, 9, 51, 64
6, 59200, Note_on_c, 9, 82, 41
6, 59201, Note_off_c, 9, 82, 64
6, 59360, Note_on_c, 9, 35, 95
6, 59360, Note_on_c, 9, 51, 85
6, 59360, Note_on_c, 9, 69, 58
6, 59361, Note_off_c, 9, 69, 64
6, 59361, Note_off_c, 9, 51, 64
6, 59361, Note_off_c, 9, 35, 64
6, 59520, Note_on_c, 9, 35, 102
6, 59520, Note_on_c, 9, 51, 87
6, 59520, Note_on_c, 9, 82, 76
6, 59521, Note_off_c, 9, 51, 64
6, 59521, Note_off_c, 9, 35, 64
6, 59540, Note_off_c, 9, 82, 64
6, 59680, Note_on_c, 9, 82, 43
6, 59681, Note_off_c, 9, 82, 64
6, 59840, Note_on_c, 9, 69, 58
6, 59841, Note_off_c, 9, 69, 64
6, 60000, Note_on_c, 9, 51, 90
6, 60000, Note_on_c, 9, 82, 85
6, 60000, Note_on_c, 9, 44, 95
6, 60000, Note_on_c, 9, 38, 97
6, 60020, Note_off_c, 9, 38, 64
6, 60020, Note_off_c, 9, 44, 64
6, 60020, Note_off_c, 9, 82, 64
6, 60020, Note_off_c, 9, 51, 64
6, 60160, Note_on_c, 9, 82, 43
6, 60161, Note_off_c, 9, 82, 64
6, 60320, Note_on_c, 9, 35, 92
6, 60320, Note_on_c, 9, 69, 52
6, 60321, Note_off_c, 9, 69, 64
6, 60321, Note_off_c, 9, 35, 64
6, 60480, Note_on_c, 9, 35, 107
6, 60480, Note_on_c, 9, 51, 87
6, 60480, Note_on_c, 9, 82, 76
6, 60481, Note_off_c, 9, 51, 64
6, 60481, Note_off_c, 9, 35, 64
6, 60500, Note_off_c, 9, 82, 64
6, 60640, Note_on_c, 9, 82, 56
6, 60641, Note_off_c, 9, 82, 64
6, 60800, Note_on_c, 9, 51, 89
6, 60800, Note_on_c, 9, 69, 56
6, 60801, Note_off_c, 9, 69, 64
6, 60801, Note_off_c, 9, 51, 64
6, 60960, Note_on_c, 9, 51, 89
6, 60960, Note_on_c, 9, 82, 85
6, 60960, Note_on_c, 9, 44, 92
6, 60960, Note_on_c, 9, 38, 94
6, 60980, Note_off_c, 9, 38, 64
6, 60980, Note_off_c, 9, 44, 64
6, 60980, Note_off_c, 9, 82, 64
6, 60980, Note_off_c, 9, 51, 64
6, 61120, Note_on_c, 9, 82, 48
6, 61121, Note_off_c, 9, 82, 64
6, 61280, Note_on_c, 9, 35, 90
6, 61280, Note_on_c, 9, 51, 84
6, 61280, Note_on_c, 9, 69, 59
6, 61281, Note_off_c, 9, 69, 64
6, 61281, Note_off_c, 9, 51, 64
6, 61281, Note_off_c, 9, 35, 64
6, 61440, Note_on_c, 9, 35, 113
6, 61440, Note_on_c, 9, 51, 94
6, 61440, Note_on_c, 9, 82, 56
6, 61441, Note_off_c, 9, 82, 64
6, 61441, Note_off_c, 9, 51, 64
6, 61441, Note_off_c, 9, 35, 64
6, 61600, Note_on_c, 9, 82, 40
6, 61601, Note_off_c, 9, 82, 64
6, 61760, Note_on_c, 9, 69, 58
6, 61761, Note_off_c, 9, 69, 64
6, 61920, Note_on_c, 9, 51, 102
6, 61920, Note_on_c, 9, 82, 56
6, 61920, Note_on_c, 9, 44, 93
6, 61920, Note_on_c, 9, 38, 87
6, 61940, Note_off_c, 9, 38, 64
6, 61940, Note_off_c, 9, 44, 64
6, 61940, Note_off_c, 9, 82, 64
6, 61940, Note_off_c, 9, 51, 64
6, 62080, Note_on_c, 9, 82, 40
6, 62081, Note_off_c, 9, 82, 64
6, 62240, Note_on_c, 9, 35, 99
6, 62240, Note_on_c, 9, 69, 52
6, 62241, Note_off_c, 9, 69, 64
6, 62241, Note_off_c, 9, 35, 64
6, 62400, Note_on_c, 9, 35, 105
6, 62400, Note_on_c, 9, 51, 89
6, 62400, Note_on_c, 9, 82, 67
6, 62401, Note_off_c, 9, 82, 64
6, 62401, Note_off_c, 9, 51, 64
6, 62401, Note_off_c, 9, 35, 64
6, 62560, Note_on_c, 9, 82, 41
6, 62561, Note_off_c, 9, 82, 64
6, 62720, Note_on_c, 9, 69, 59
6, 62721, Note_off_c, 9, 69, 64
6, 62880, Note_on_c, 9, 51, 90
6, 62880, Note_on_c, 9, 82, 76
6, 62880, Note_on_c, 9, 44, 92
6, 62880, Note_on_c, 9, 38, 90
6, 62900, Note_off_c, 9, 38, 64
6, 62900, Note_off_c, 9, 44, 64
6, 62900, Note_off_c, 9, 82, 64
6, 62900, Note_off_c, 9, 51, 64
6, 63040, Note_on_c, 9, 82, 41
6, 63041, Note_off_c, 9, 82, 64
6, 63200, Note_on_c, 9, 51, 86
6, 63200, Note_on_c, 9, 69, 56
6, 63201, Note_off_c, 9, 69, 64
6, 63201, Note_off_c, 9, 51, 64
6, 63360, Note_on_c, 9, 35, 104
6, 63360, Note_on_c, 9, 51, 90
6, 63360, Note_on_c, 9, 82, 76
6, 63361, Note_off_c, 9, 51, 64
6, 63361, Note_off_c, 9, 35, 64
6, 63380, Note_off_c, 9, 82, 64
6, 63520, Note_on_c, 9, 82, 44
6, 63521, Note_off_c, 9, 82, 64
6, 63680, Note_on_c, 9, 69, 59
6, 63681, Note_off_c, 9, 69, 64
6, 63840, Note_on_c, 9, 51, 113
6, 63840, Note_on_c, 9, 82, 85
6, 63840, Note_on_c, 9, 44, 90
6, 63840, Note_on_c, 9, 38, 93
6, 63860, Note_off_c, 9, 38, 64
6, 63860, Note_off_c, 9, 44, 64
6, 63860, Note_off_c, 9, 82, 64
6, 63860, Note_off_c, 9, 51, 64
6, 64000, Note_on_c, 9, 82, 44
6, 64001, Note_off_c, 9, 82, 64
6, 64160, Note_on_c, 9, 35, 102
6, 64160, Note_on_c, 9, 51, 85
6, 64160, Note_on_c, 9, 69, 60
6, 64161, Note_off_c, 9, 69, 64
6, 64161, Note_off_c, 9, 51, 64
6, 64161, Note_off_c, 9, 35, 64
6, 64320, Note_on_c, 9, 35, 110
6, 64320, Note_on_c, 9, 51, 87
6, 64320, Note_on_c, 9, 82, 76
6, 64321, Note_off_c, 9, 82, 64
6, 64321, Note_off_c, 9, 51, 64
6, 64321, Note_off_c, 9, 35, 64
6, 64480, Note_on_c, 9, 82, 43
6, 64481, Note_off_c, 9, 82, 64
6, 64640, Note_on_c, 9, 69, 54
6, 64641, Note_off_c, 9, 69, 64
6, 64800, Note_on_c, 9, 51, 90
6, 64800, Note_on_c, 9, 82, 76
6, 64800, Note_on_c, 9, 44, 92
6, 64800, Note_on_c, 9, 38, 90
6, 64820, Note_off_c, 9, 38, 64
6, 64820, Note_off_c, 9, 44, 64
6, 64820, Note_off_c, 9, 82, 64
6, 64820, Note_off_c, 9, 51, 64
6, 64960, Note_on_c, 9, 82, 44
6, 64961, Note_off_c, 9, 82, 64
6, 65120, Note_on_c, 9, 51, 90
6, 65120, Note_on_c, 9, 69, 54
6, 65121, Note_off_c, 9, 69, 64
6, 65121, Note_off_c, 9, 51, 64
6, 65280, Note_on_c, 9, 35, 102
6, 65280, Note_on_c, 9, 51, 89
6, 65280, Note_on_c, 9, 82, 67
6, 65281, Note_off_c, 9, 82, 64
6, 65281, Note_off_c, 9, 51, 64
6, 65281, Note_off_c, 9, 35, 64
6, 65440, Note_on_c, 9, 82, 41
6, 65441, Note_off_c, 9, 82, 64
6, 65600, Note_on_c, 9, 69, 54
6, 65601, Note_off_c, 9, 69, 64
6, 65760, Note_on_c, 9, 51, 94
6, 65760, Note_on_c, 9, 82, 76
6, 65760, Note_on_c, 9, 44, 93
6, 65760, Note_on_c, 9, 38, 89
6, 65780, Note_off_c, 9, 38, 64
6, 65780, Note_off_c, 9, 44, 64
6, 65780, Note_off_c, 9, 82, 64
6, 65780, Note_off_c, 9, 51, 64
6, 65920, Note_on_c, 9, 82, 39
6, 65921, Note_off_c, 9, 82, 64
6, 66080, Note_on_c, 9, 35, 102
6, 66080, Note_on_c, 9, 51, 86
6, 66080, Note_on_c, 9, 69, 56
6, 66081, Note_off_c, 9, 69, 64
6, 66081, Note_off_c, 9, 51, 64
6, 66081, Note_off_c, 9, 35, 64
6, 66240, Note_on_c, 9, 35, 107
6, 66240, Note_on_c, 9, 51, 87
6, 66240, Note_on_c, 9, 82, 85
6, 66241, Note_off_c, 9, 82, 64
6, 66241, Note_off_c, 9, 51, 64
6, 66241, Note_off_c, 9, 35, 64
6, 66400, Note_on_c, 9, 82, 40
6, 66401, Note_off_c, 9, 82, 64
6, 66560, Note_on_c, 9, 69, 58
6, 66561, Note_off_c, 9, 69, 64
6, 66720, Note_on_c, 9, 51, 102
6, 66720, Note_on_c, 9, 82, 76
6, 66720, Note_on_c, 9, 44, 95
6, 66720, Note_on_c, 9, 38, 95
6, 66740, Note_off_c, 9, 38, 64
6, 66740, Note_off_c, 9, 44, 64
6, 66740, Note_off_c, 9, 82, 64
6, 66740, Note_off_c, 9, 51, 64
6, 66880, Note_on_c, 9, 82, 41
6, 66881, Note_off_c, 9, 82, 64
6, 67040, Note_on_c, 9, 35, 95
6, 67040, Note_on_c, 9, 51, 85
6, 67040, Note_on_c, 9, 69, 58
6, 67041, Note_off_c, 9, 69, 64
6, 67041, Note_off_c, 9, 51, 64
6, 67041, Note_off_c, 9, 35, 64
6, 67200, Note_on_c, 9, 35, 102
6, 67200, Note_on_c, 9, 51, 87
6, 67200, Note_on_c, 9, 82, 76
6, 67201, Note_off_c, 9, 82, 64
6, 67201, Note_off_c, 9, 51, 64
6, 67201, Note_off_c, 9, 35, 64
6, 67360, Note_on_c, 9, 82, 43
6, 67361, Note_off_c, 9, 82, 64
6, 67520, Note_on_c, 9, 69, 58
6, 67521, Note_off_c, 9, 69, 64
6, 67680, Note_on_c, 9, 51, 90
6, 67680, Note_on_c, 9, 82, 85
6, 67680, Note_on_c, 9, 44, 95
6, 67680, Note_on_c, 9, 38, 97
6, 67700, Note_off_c, 9, 38, 64
6, 67700, Note_off_c, 9, 44, 64
6, 67700, Note_off_c, 9, 82, 64
6, 67700, Note_off_c, 9, 51, 64
6, 67840, Note_on_c, 9, 82, 43
6, 67841, Note_off_c, 9, 82, 64
6, 68000, Note_on_c, 9, 35, 92
6, 68000, Note_on_c, 9, 69, 52
6, 68001, Note_off_c, 9, 69, 64
6, 68001, Note_off_c, 9, 35, 64
6, 68160, Note_on_c, 9, 35, 107
6, 68160, Note_on_c, 9, 51, 87
6, 68160, Note_on_c, 9, 82, 76
6, 68161, Note_off_c, 9, 82, 64
6, 68161, Note_off_c, 9, 51, 64
6, 68161, Note_off_c, 9, 35, 64
6, 68320, Note_on_c, 9, 82, 56
6, 68321, Note_off_c, 9, 82, 64
6, 68480, Note_on_c, 9, 51, 89
6, 68480, Note_on_c, 9, 69, 56
6, 68481, Note_off_c, 9, 69, 64
6, 68481, Note_off_c, 9, 51, 64
6, 68640, Note_on_c, 9, 51, 89
6, 68640, Note_on_c, 9, 82, 85
6, 68640, Note_on_c, 9, 44, 92
6, 68640, Note_on_c, 9, 38, 94
6, 68641, Note_off_c, 9, 38, 64
6, 68641, Note_off_c, 9, 44, 64
6, 68641, Note_off_c, 9, 82, 64
6, 68641, Note_off_c, 9, 51, 64
6, 68800, Note_on_c, 9, 82, 48
6, 68801, Note_off_c, 9, 82, 64
6, 68960, Note_on_c, 9, 35, 90
6, 68960, Note_on_c, 9, 51, 84
6, 68960, Note_on_c, 9, 69, 59
6, 68961, Note_off_c, 9, 69, 64
6, 68961, Note_off_c, 9, 51, 64
6, 68961, Note_off_c, 9, 35, 64
6, 69120, Note_on_c, 9, 35, 113
6, 69120, Note_on_c, 9, 51, 94
6, 69120, Note_on_c, 9, 82, 56
6, 69121, Note_off_c, 9, 82, 64
6, 69121, Note_off_c, 9, 51, 64
6, 69121, Note_off_c, 9, 35, 64
6, 69280, Note_on_c, 9, 82, 40
6, 69281, Note_off_c, 9, 82, 64
6, 69440, Note_on_c, 9, 69, 58
6, 69441, Note_off_c, 9, 69, 64
6, 69600, Note_on_c, 9, 51, 102
6, 69600, Note_on_c, 9, 82, 56
6, 69600, Note_on_c, 9, 44, 93
6, 69600, Note_on_c, 9, 38, 87
6, 69620, Note_off_c, 9, 38, 64
6, 69620, Note_off_c, 9, 44, 64
6, 69620, Note_off_c, 9, 82, 64
6, 69620, Note_off_c, 9, 51, 64
6, 69760, Note_on_c, 9, 82, 40
6, 69761, Note_off_c, 9, 82, 64
6, 69920, Note_on_c, 9, 35, 99
6, 69920, Note_on_c, 9, 69, 52
6, 69921, Note_off_c, 9, 69, 64
6, 69921, Note_off_c, 9, 35, 64
6, 70080, Note_on_c, 9, 35, 105
6, 70080, Note_on_c, 9, 51, 89
6, 70080, Note_on_c, 9, 82, 67
6, 70081, Note_off_c, 9, 82, 64
6, 70081, Note_off_c, 9, 51, 64
6, 70081, Note_off_c, 9, 35, 64
6, 70240, Note_on_c, 9, 82, 41
6, 70241, Note_off_c, 9, 82, 64
6, 70400, Note_on_c, 9, 69, 59
6, 70401, Note_off_c, 9, 69, 64
6, 70560, Note_on_c, 9, 51, 90
6, 70560, Note_on_c, 9, 82, 76
6, 70560, Note_on_c, 9, 44, 92
6, 70560, Note_on_c, 9, 38, 90
6, 70580, Note_off_c, 9, 38, 64
6, 70580, Note_off_c, 9, 44, 64
6, 70580, Note_off_c, 9, 82, 64
6, 70580, Note_off_c, 9, 51, 64
6, 70720, Note_on_c, 9, 82, 41
6, 70721, Note_off_c, 9, 82, 64
6, 70880, Note_on_c, 9, 51, 86
6, 70880, Note_on_c, 9, 69, 56
6, 70881, Note_off_c, 9, 69, 64
6, 70881, Note_off_c, 9, 51, 64
6, 71040, Note_on_c, 9, 35, 104
6, 71040, Note_on_c, 9, 51, 90
6, 71040, Note_on_c, 9, 82, 76
6, 71041, Note_off_c, 9, 82, 64
6, 71041, Note_off_c, 9, 51, 64
6, 71041, Note_off_c, 9, 35, 64
6, 71200, Note_on_c, 9, 82, 44
6, 71201, Note_off_c, 9, 82, 64
6, 71360, Note_on_c, 9, 69, 59
6, 71361, Note_off_c, 9, 69, 64
6, 71520, Note_on_c, 9, 51, 113
6, 71520, Note_on_c, 9, 82, 85
6, 71520, Note_on_c, 9, 44, 90
6, 71520, Note_on_c, 9, 38, 93
6, 71521, Note_off_c, 9, 44, 64
6, 71521, Note_off_c, 9, 82, 64
6, 71521, Note_off_c, 9, 51, 64
6, 71540, Note_off_c, 9, 38, 64
6, 71680, Note_on_c, 9, 82, 44
6, 71681, Note_off_c, 9, 82, 64
6, 71840, Note_on_c, 9, 35, 102
6, 71840, Note_on_c, 9, 51, 85
6, 71840, Note_on_c, 9, 69, 60
6, 71841, Note_off_c, 9, 69, 64
6, 71841, Note_off_c, 9, 51, 64
6, 71841, Note_off_c, 9, 35, 64
6, 72000, Note_on_c, 9, 35, 110
6, 72000, Note_on_c, 9, 51, 87
6, 72000, Note_on_c, 9, 82, 76
6, 72001, Note_off_c, 9, 82, 64
6, 72001, Note_off_c, 9, 51, 64
6, 72001, Note_off_c, 9, 35, 64
6, 72160, Note_on_c, 9, 82, 43
6, 72161, Note_off_c, 9, 82, 64
6, 72320, Note_on_c, 9, 69, 54
6, 72321, Note_off_c, 9, 69, 64
6, 72480, Note_on_c, 9, 51, 90
6, 72480, Note_on_c, 9, 82, 76
6, 72480, Note_on_c, 9, 44, 92
6, 72480, Note_on_c, 9, 38, 90
6, 72500, Note_off_c, 9, 38, 64
6, 72500, Note_off_c, 9, 44, 64
6, 72500, Note_off_c, 9, 82, 64
6, 72500, Note_off_c, 9, 51, 64
6, 72640, Note_on_c, 9, 82, 44
6, 72641, Note_off_c, 9, 82, 64
6, 72800, Note_on_c, 9, 51, 90
6, 72800, Note_on_c, 9, 69, 54
6, 72801, Note_off_c, 9, 69, 64
6, 72801, Note_off_c, 9, 51, 64
6, 72960, Note_on_c, 9, 35, 102
6, 72960, Note_on_c, 9, 51, 89
6, 72960, Note_on_c, 9, 82, 67
6, 72961, Note_off_c, 9, 82, 64
6, 72961, Note_off_c, 9, 51, 64
6, 72961, Note_off_c, 9, 35, 64
6, 73120, Note_on_c, 9, 82, 41
6, 73121, Note_off_c, 9, 82, 64
6, 73280, Note_on_c, 9, 69, 54
6, 73281, Note_off_c, 9, 69, 64
6, 73440, Note_on_c, 9, 51, 94
6, 73440, Note_on_c, 9, 82, 76
6, 73440, Note_on_c, 9, 44, 93
6, 73440, Note_on_c, 9, 38, 89
6, 73460, Note_off_c, 9, 38, 64
6, 73460, Note_off_c, 9, 44, 64
6, 73460, Note_off_c, 9, 82, 64
6, 73460, Note_off_c, 9, 51, 64
6, 73600, Note_on_c, 9, 82, 39
6, 73601, Note_off_c, 9, 82, 64
6, 73760, Note_on_c, 9, 35, 102
6, 73760, Note_on_c, 9, 51, 86
6, 73760, Note_on_c, 9, 69, 56
6, 73761, Note_off_c, 9, 69, 64
6, 73761, Note_off_c, 9, 51, 64
6, 73761, Note_off_c, 9, 35, 64
6, 73920, Note_on_c, 9, 35, 107
6, 73920, Note_on_c, 9, 51, 87
6, 73920, Note_on_c, 9, 82, 85
6, 73921, Note_off_c, 9, 82, 64
6, 73921, Note_off_c, 9, 51, 64
6, 73921, Note_off_c, 9, 35, 64
6, 74080, Note_on_c, 9, 82, 40
6, 74081, Note_off_c, 9, 82, 64
6, 74240, Note_on_c, 9, 69, 58
6, 74241, Note_off_c, 9, 69, 64
6, 74400, Note_on_c, 9, 51, 102
6, 74400, Note_on_c, 9, 82, 76
6, 74400, Note_on_c, 9, 44, 95
6, 74400, Note_on_c, 9, 38, 95
6, 74420, Note_off_c, 9, 38, 64
6, 74420, Note_off_c, 9, 44, 64
6, 74420, Note_off_c, 9, 82, 64
6, 74420, Note_off_c, 9, 51, 64
6, 74560, Note_on_c, 9, 82, 41
6, 74561, Note_off_c, 9, 82, 64
6, 74720, Note_on_c, 9, 35, 95
6, 74720, Note_on_c, 9, 51, 85
6, 74720, Note_on_c, 9, 69, 58
6, 74721, Note_off_c, 9, 69, 64
6, 74721, Note_off_c, 9, 51, 64
6, 74721, Note_off_c, 9, 35, 64
6, 74880, Note_on_c, 9, 35, 102
6, 74880, Note_on_c, 9, 51, 87
6, 74880, Note_on_c, 9, 82, 76
6, 74881, Note_off_c, 9, 82, 64
6, 74881, Note_off_c, 9, 51, 64
6, 74881, Note_off_c, 9, 35, 64
6, 75040, Note_on_c, 9, 82, 43
6, 75041, Note_off_c, 9, 82, 64
6, 75200, Note_on_c, 9, 69, 58
6, 75201, Note_off_c, 9, 69, 64
6, 75360, Note_on_c, 9, 51, 90
6, 75360, Note_on_c, 9, 82, 85
6, 75360, Note_on_c, 9, 44, 95
6, 75360, Note_on_c, 9, 38, 97
6, 75380, Note_off_c, 9, 38, 64
6, 75380, Note_off_c, 9, 44, 64
6, 75380, Note_off_c, 9, 82, 64
6, 75380, Note_off_c, 9, 51, 64
6, 75520, Note_on_c, 9, 82, 43
6, 75521, Note_off_c, 9, 82, 64
6, 75680, Note_on_c, 9, 35, 92
6, 75680, Note_on_c, 9, 69, 52
6, 75681, Note_off_c, 9, 69, 64
6, 75681, Note_off_c, 9, 35, 64
6, 75840, Note_on_c, 9, 35, 107
6, 75840, Note_on_c, 9, 51, 87
6, 75840, Note_on_c, 9, 82, 76
6, 75841, Note_off_c, 9, 82, 64
6, 75841, Note_off_c, 9, 51, 64
6, 75841, Note_off_c, 9, 35, 64
6, 76000, Note_on_c, 9, 82, 56
6, 76001, Note_off_c, 9, 82, 64
6, 76160, Note_on_c, 9, 51, 89
6, 76160, Note_on_c, 9, 69, 56
6, 76161, Note_off_c, 9, 69, 64
6, 76161, Note_off_c, 9, 51, 64
6, 76320, Note_on_c, 9, 51, 89
6, 76320, Note_on_c, 9, 82, 85
6, 76320, Note_on_c, 9, 44, 92
6, 76320, Note_on_c, 9, 38, 94
6, 76340, Note_off_c, 9, 38, 64
6, 76340, Note_off_c, 9, 44, 64
6, 76340, Note_off_c, 9, 82, 64
6, 76340, Note_off_c, 9, 51, 64
6, 76480, Note_on_c, 9, 82, 48
6, 76481, Note_off_c, 9, 82, 64
6, 76640, Note_on_c, 9, 35, 90
6, 76640, Note_on_c, 9, 51, 84
6, 76640, Note_on_c, 9, 69, 59
6, 76641, Note_off_c, 9, 69, 64
6, 76641, Note_off_c, 9, 51, 64
6, 76641, Note_off_c, 9, 35, 64
6, 76800, Note_on_c, 9, 35, 113
6, 76800, Note_on_c, 9, 51, 94
6, 76800, Note_on_c, 9, 82, 56
6, 76801, Note_off_c, 9, 51, 64
6, 76801, Note_off_c, 9, 35, 64
6, 76820, Note_off_c, 9, 82, 64
6, 76960, Note_on_c, 9, 82, 40
6, 76961, Note_off_c, 9, 82, 64
6, 77120, Note_on_c, 9, 69, 58
6, 77121, Note_off_c, 9, 69, 64
6, 77280, Note_on_c, 9, 51, 102
6, 77280, Note_on_c, 9, 82, 56
6, 77280, Note_on_c, 9, 44, 93
6, 77280, Note_on_c, 9, 38, 87
6, 77281, Note_off_c, 9, 82, 64
6, 77281, Note_off_c, 9, 51, 64
6, 77300, Note_off_c, 9, 44, 64
6, 77300, Note_off_c, 9, 38, 64
6, 77440, Note_on_c, 9, 82, 40
6, 77441, Note_off_c, 9, 82, 64
6, 77600, Note_on_c, 9, 35, 99
6, 77600, Note_on_c, 9, 69, 52
6, 77601, Note_off_c, 9, 69, 64
6, 77601, Note_off_c, 9, 35, 64
6, 77760, Note_on_c, 9, 35, 105
6, 77760, Note_on_c, 9, 51, 89
6, 77760, Note_on_c, 9, 82, 67
6, 77780, Note_off_c, 9, 82, 64
6, 77780, Note_off_c, 9, 51, 64
6, 77780, Note_off_c, 9, 35, 64
6, 77920, Note_on_c, 9, 82, 41
6, 77921, Note_off_c, 9, 82, 64
6, 78080, Note_on_c, 9, 69, 59
6, 78081, Note_off_c, 9, 69, 64
6, 78240, Note_on_c, 9, 51, 90
6, 78240, Note_on_c, 9, 82, 76
6, 78240, Note_on_c, 9, 44, 92
6, 78240, Note_on_c, 9, 38, 90
6, 78260, Note_off_c, 9, 38, 64
6, 78260, Note_off_c, 9, 44, 64
6, 78260, Note_off_c, 9, 82, 64
6, 78260, Note_off_c, 9, 51, 64
6, 78400, Note_on_c, 9, 82, 41
6, 78401, Note_off_c, 9, 82, 64
6, 78560, Note_on_c, 9, 51, 86
6, 78560, Note_on_c, 9, 69, 56
6, 78561, Note_off_c, 9, 69, 64
6, 78561, Note_off_c, 9, 51, 64
6, 78720, Note_on_c, 9, 35, 104
6, 78720, Note_on_c, 9, 51, 90
6, 78720, Note_on_c, 9, 82, 76
6, 78721, Note_off_c, 9, 82, 64
6, 78721, Note_off_c, 9, 51, 64
6, 78721, Note_off_c, 9, 35, 64
6, 78880, Note_on_c, 9, 82, 44
6, 78881, Note_off_c, 9, 82, 64
6, 79040, Note_on_c, 9, 69, 59
6, 79041, Note_off_c, 9, 69, 64
6, 79200, Note_on_c, 9, 51, 113
6, 79200, Note_on_c, 9, 82, 85
6, 79200, Note_on_c, 9, 44, 90
6, 79200, Note_on_c, 9, 38, 93
6, 79220, Note_off_c, 9, 38, 64
6, 79220, Note_off_c, 9, 44, 64
6, 79220, Note_off_c, 9, 82, 64
6, 79220, Note_off_c, 9, 51, 64
6, 79360, Note_on_c, 9, 82, 44
6, 79361, Note_off_c, 9, 82, 64
6, 79520, Note_on_c, 9, 35, 102
6, 79520, Note_on_c, 9, 51, 85
6, 79520, Note_on_c, 9, 69, 60
6, 79521, Note_off_c, 9, 69, 64
6, 79521, Note_off_c, 9, 51, 64
6, 79521, Note_off_c, 9, 35, 64
6, 79680, Note_on_c, 9, 35, 110
6, 79680, Note_on_c, 9, 51, 87
6, 79680, Note_on_c, 9, 82, 76
6, 79681, Note_off_c, 9, 35, 64
6, 79700, Note_off_c, 9, 51, 64
6, 79700, Note_off_c, 9, 82, 64
6, 79840, Note_on_c, 9, 82, 43
6, 79841, Note_off_c, 9, 82, 64
6, 80000, Note_on_c, 9, 69, 54
6, 80001, Note_off_c, 9, 69, 64
6, 80160, Note_on_c, 9, 51, 90
6, 80160, Note_on_c, 9, 82, 76
6, 80160, Note_on_c, 9, 44, 92
6, 80160, Note_on_c, 9, 38, 90
6, 80180, Note_off_c, 9, 38, 64
6, 80180, Note_off_c, 9, 44, 64
6, 80180, Note_off_c, 9, 82, 64
6, 80180, Note_off_c, 9, 51, 64
6, 80320, Note_on_c, 9, 82, 44
6, 80321, Note_off_c, 9, 82, 64
6, 80480, Note_on_c, 9, 51, 90
6, 80480, Note_on_c, 9, 69, 54
6, 80481, Note_off_c, 9, 69, 64
6, 80481, Note_off_c, 9, 51, 64
6, 80640, Note_on_c, 9, 35, 102
6, 80640, Note_on_c, 9, 51, 89
6, 80640, Note_on_c, 9, 82, 67
6, 80641, Note_off_c, 9, 82, 64
6, 80641, Note_off_c, 9, 51, 64
6, 80641, Note_off_c, 9, 35, 64
6, 80800, Note_on_c, 9, 82, 41
6, 80801, Note_off_c, 9, 82, 64
6, 80960, Note_on_c, 9, 69, 54
6, 80961, Note_off_c, 9, 69, 64
6, 81120, Note_on_c, 9, 51, 94
6, 81120, Note_on_c, 9, 82, 76
6, 81120, Note_on_c, 9, 44, 93
6, 81120, Note_on_c, 9, 38, 89
6, 81140, Note_off_c, 9, 38, 64
6, 81140, Note_off_c, 9, 44, 64
6, 81140, Note_off_c, 9, 82, 64
6, 81140, Note_off_c, 9, 51, 64
6, 81280, Note_on_c, 9, 82, 39
6, 81281, Note_off_c, 9, 82, 64
6, 81440, Note_on_c, 9, 35, 102
6, 81440, Note_on_c, 9, 51, 86
6, 81440, Note_on_c, 9, 69, 56
6, 81441, Note_off_c, 9, 69, 64
6, 81441, Note_off_c, 9, 51, 64
6, 81441, Note_off_c, 9, 35, 64
6, 81600, Note_on_c, 9, 35, 107
6, 81600, Note_on_c, 9, 51, 87
6, 81600, Note_on_c, 9, 82, 85
6, 81601, Note_off_c, 9, 82, 64
6, 81601, Note_off_c, 9, 51, 64
6, 81601, Note_off_c, 9, 35, 64
6, 81760, Note_on_c, 9, 82, 40
6, 81761, Note_off_c, 9, 82, 64
6, 81920, Note_on_c, 9, 69, 58
6, 81921, Note_off_c, 9, 69, 64
6, 82080, Note_on_c, 9, 51, 102
6, 82080, Note_on_c, 9, 82, 76
6, 82080, Note_on_c, 9, 44, 95
6, 82080, Note_on_c, 9, 38, 95
6, 82100, Note_off_c, 9, 38, 64
6, 82100, Note_off_c, 9, 44, 64
6, 82100, Note_off_c, 9, 82, 64
6, 82100, Note_off_c, 9, 51, 64
6, 82240, Note_on_c, 9, 82, 41
6, 82241, Note_off_c, 9, 82, 64
6, 82400, Note_on_c, 9, 35, 95
6, 82400, Note_on_c, 9, 51, 85
6, 82400, Note_on_c, 9, 69, 58
6, 82401, Note_off_c, 9, 69, 64
6, 82401, Note_off_c, 9, 51, 64
6, 82401, Note_off_c, 9, 35, 64
6, 82560, Note_on_c, 9, 35, 102
6, 82560, Note_on_c, 9, 51, 87
6, 82560, Note_on_c, 9, 82, 76
6, 82580, Note_off_c, 9, 82, 64
6, 82580, Note_off_c, 9, 51, 64
6, 82580, Note_off_c, 9, 35, 64
6, 82720, Note_on_c, 9, 82, 43
6, 82721, Note_off_c, 9, 82, 64
6, 82880, Note_on_c, 9, 69, 58
6, 82881, Note_off_c, 9, 69, 64
6, 83040, Note_on_c, 9, 51, 90
6, 83040, Note_on_c, 9, 82, 85
6, 83040, Note_on_c, 9, 44, 95
6, 83040, Note_on_c, 9, 38, 97
6, 83041, Note_off_c, 9, 44, 64
6, 83041, Note_off_c, 9, 82, 64
6, 83041, Note_off_c, 9, 51, 64
6, 83060, Note_off_c, 9, 38, 64
6, 83200, Note_on_c, 9, 82, 43
6, 83201, Note_off_c, 9, 82, 64
6, 83360, Note_on_c, 9, 35, 92
6, 83360, Note_on_c, 9, 69, 52
6, 83361, Note_off_c, 9, 69, 64
6, 83361, Note_off_c, 9, 35, 64
6, 83520, Note_on_c, 9, 35, 107
6, 83520, Note_on_c, 9, 51, 87
6, 83520, Note_on_c, 9, 82, 76
6, 83521, Note_off_c, 9, 82, 64
6, 83521, Note_off_c, 9, 51, 64
6, 83521, Note_off_c, 9, 35, 64
6, 83680, Note_on_c, 9, 82, 56
6, 83681, Note_off_c, 9, 82, 64
6, 83840, Note_on_c, 9, 51, 89
6, 83840, Note_on_c, 9, 69, 56
6, 83841, Note_off_c, 9, 69, 64
6, 83841, Note_off_c, 9, 51, 64
6, 84000, Note_on_c, 9, 51, 89
6, 84000, Note_on_c, 9, 82, 85
6, 84000, Note_on_c, 9, 44, 92
6, 84000, Note_on_c, 9, 38, 94
6, 84020, Note_off_c, 9, 38, 64
6, 84020, Note_off_c, 9, 44, 64
6, 84020, Note_off_c, 9, 82, 64
6, 84020, Note_off_c, 9, 51, 64
6, 84160, Note_on_c, 9, 82, 48
6, 84161, Note_off_c, 9, 82, 64
6, 84320, Note_on_c, 9, 35, 90
6, 84320, Note_on_c, 9, 51, 84
6, 84320, Note_on_c, 9, 69, 59
6, 84321, Note_off_c, 9, 69, 64
6, 84321, Note_off_c, 9, 51, 64
6, 84321, Note_off_c, 9, 35, 64
6, 84480, Note_on_c, 9, 35, 113
6, 84480, Note_on_c, 9, 51, 94
6, 84480, Note_on_c, 9, 82, 56
6, 84481, Note_off_c, 9, 82, 64
6, 84481, Note_off_c, 9, 51, 64
6, 84481, Note_off_c, 9, 35, 64
6, 84640, Note_on_c, 9, 82, 40
6, 84641, Note_off_c, 9, 82, 64
6, 84800, Note_on_c, 9, 69, 58
6, 84801, Note_off_c, 9, 69, 64
6, 84960, Note_on_c, 9, 51, 102
6, 84960, Note_on_c, 9, 82, 56
6, 84960, Note_on_c, 9, 44, 93
6, 84960, Note_on_c, 9, 38, 87
6, 84980, Note_off_c, 9, 38, 64
6, 84980, Note_off_c, 9, 44, 64
6, 84980, Note_off_c, 9, 82, 64
6, 84980, Note_off_c, 9, 51, 64
6, 85120, Note_on_c, 9, 82, 40
6, 85121, Note_off_c, 9, 82, 64
6, 85280, Note_on_c, 9, 35, 99
6, 85280, Note_on_c, 9, 69, 52
6, 85281, Note_off_c, 9, 69, 64
6, 85281, Note_off_c, 9, 35, 64
6, 85440, Note_on_c, 9, 35, 105
6, 85440, Note_on_c, 9, 51, 89
6, 85440, Note_on_c, 9, 82, 67
6, 85441, Note_off_c, 9, 51, 64
6, 85441, Note_off_c, 9, 35, 64
6, 85460, Note_off_c, 9, 82, 64
6, 85600, Note_on_c, 9, 82, 41
6, 85601, Note_off_c, 9, 82, 64
6, 85760, Note_on_c, 9, 69, 59
6, 85761, Note_off_c, 9, 69, 64
6, 85920, Note_on_c, 9, 51, 90
6, 85920, Note_on_c, 9, 82, 76
6, 85920, Note_on_c, 9, 44, 92
6, 85920, Note_on_c, 9, 38, 90
6, 85940, Note_off_c, 9, 38, 64
6, 85940, Note_off_c, 9, 44, 64
6, 85940, Note_off_c, 9, 82, 64
6, 85940, Note_off_c, 9, 51, 64
6, 86080, Note_on_c, 9, 82, 41
6, 86081, Note_off_c, 9, 82, 64
6, 86240, Note_on_c, 9, 51, 86
6, 86240, Note_on_c, 9, 69, 56
6, 86241, Note_off_c, 9, 69, 64
6, 86241, Note_off_c, 9, 51, 64
6, 86400, Note_on_c, 9, 35, 104
6, 86400, Note_on_c, 9, 51, 90
6, 86400, Note_on_c, 9, 82, 76
6, 86401, Note_off_c, 9, 51, 64
6, 86401, Note_off_c, 9, 35, 64
6, 86420, Note_off_c, 9, 82, 64
6, 86560, Note_on_c, 9, 82, 44
6, 86561, Note_off_c, 9, 82, 64
6, 86720, Note_on_c, 9, 69, 59
6, 86721, Note_off_c, 9, 69, 64
6, 86880, Note_on_c, 9, 51, 113
6, 86880, Note_on_c, 9, 82, 85
6, 86880, Note_on_c, 9, 44, 90
6, 86880, Note_on_c, 9, 38, 93
6, 86881, Note_off_c, 9, 44, 64
6, 86881, Note_off_c, 9, 82, 64
6, 86881, Note_off_c, 9, 51, 64
6, 86900, Note_off_c, 9, 38, 64
6, 87040, Note_on_c, 9, 82, 44
6, 87041, Note_off_c, 9, 82, 64
6, 87200, Note_on_c, 9, 35, 102
6, 87200, Note_on_c, 9, 51, 85
6, 87200, Note_on_c, 9, 69, 60
6, 87201, Note_off_c, 9, 69, 64
6, 87201, Note_off_c, 9, 51, 64
6, 87201, Note_off_c, 9, 35, 64
6, 87360, Note_on_c, 9, 35, 110
6, 87360, Note_on_c, 9, 51, 87
6, 87360, Note_on_c, 9, 82, 76
6, 87361, Note_off_c, 9, 51, 64
6, 87361, Note_off_c, 9, 35, 64
6, 87380, Note_off_c, 9, 82, 64
6, 87520, Note_on_c, 9, 82, 43
6, 87521, Note_off_c, 9, 82, 64
6, 87680, Note_on_c, 9, 69, 54
6, 87681, Note_off_c, 9, 69, 64
6, 87840, Note_on_c, 9, 51, 90
6, 87840, Note_on_c, 9, 82, 76
6, 87840, Note_on_c, 9, 44, 92
6, 87840, Note_on_c, 9, 38, 90
6, 87860, Note_off_c, 9, 38, 64
6, 87860, Note_off_c, 9, 44, 64
6, 87860, Note_off_c, 9, 82, 64
6, 87860, Note_off_c, 9, 51, 64
6, 88000, Note_on_c, 9, 82, 44
6, 88001, Note_off_c, 9, 82, 64
6, 88160, Note_on_c, 9, 51, 90
6, 88160, Note_on_c, 9, 69, 54
6, 88161, Note_off_c, 9, 69, 64
6, 88161, Note_off_c, 9, 51, 64
6, 88320, Note_on_c, 9, 35, 102
6, 88320, Note_on_c, 9, 51, 89
6, 88320, Note_on_c, 9, 82, 67
6, 88321, Note_off_c, 9, 82, 64
6, 88321, Note_off_c, 9, 51, 64
6, 88321, Note_off_c, 9, 35, 64
6, 88480, Note_on_c, 9, 82, 41
6, 88481, Note_off_c, 9, 82, 64
6, 88640, Note_on_c, 9, 69, 54
6, 88641, Note_off_c, 9, 69, 64
6, 88800, Note_on_c, 9, 51, 94
6, 88800, Note_on_c, 9, 82, 76
6, 88800, Note_on_c, 9, 44, 93
6, 88800, Note_on_c, 9, 38, 89
6, 88820, Note_off_c, 9, 38, 64
6, 88820, Note_off_c, 9, 44, 64
6, 88820, Note_off_c, 9, 82, 64
6, 88820, Note_off_c, 9, 51, 64
6, 88960, Note_on_c, 9, 82, 39
6, 88961, Note_off_c, 9, 82, 64
6, 89120, Note_on_c, 9, 35, 102
6, 89120, Note_on_c, 9, 51, 86
6, 89120, Note_on_c, 9, 69, 56
6, 89121, Note_off_c, 9, 69, 64
6, 89121, Note_off_c, 9, 51, 64
6, 89121, Note_off_c, 9, 35, 64
6, 89280, Note_on_c, 9, 35, 107
6, 89280, Note_on_c, 9, 51, 87
6, 89280, Note_on_c, 9, 82, 85
6, 89281, Note_off_c, 9, 51, 64
6, 89281, Note_off_c, 9, 35, 64
6, 89300, Note_off_c, 9, 82, 64
6, 89440, Note_on_c, 9, 82, 40
6, 89441, Note_off_c, 9, 82, 64
6, 89600, Note_on_c, 9, 69, 58
6, 89601, Note_off_c, 9, 69, 64
6, 89760, Note_on_c, 9, 51, 102
6, 89760, Note_on_c, 9, 82, 76
6, 89760, Note_on_c, 9, 44, 95
6, 89760, Note_on_c, 9, 38, 95
6, 89780, Note_off_c, 9, 38, 64
6, 89780, Note_off_c, 9, 44, 64
6, 89780, Note_off_c, 9, 82, 64
6, 89780, Note_off_c, 9, 51, 64
6, 89920, Note_on_c, 9, 82, 41
6, 89921, Note_off_c, 9, 82, 64
6, 90080, Note_on_c, 9, 35, 95
6, 90080, Note_on_c, 9, 51, 85
6, 90080, Note_on_c, 9, 69, 58
6, 90081, Note_off_c, 9, 69, 64
6, 90081, Note_off_c, 9, 51, 64
6, 90081, Note_off_c, 9, 35, 64
6, 90240, Note_on_c, 9, 35, 102
6, 90240, Note_on_c, 9, 51, 87
6, 90240, Note_on_c, 9, 82, 76
6, 90241, Note_off_c, 9, 51, 64
6, 90241, Note_off_c, 9, 35, 64
6, 90260, Note_off_c, 9, 82, 64
6, 90400, Note_on_c, 9, 82, 43
6, 90401, Note_off_c, 9, 82, 64
6, 90560, Note_on_c, 9, 69, 58
6, 90561, Note_off_c, 9, 69, 64
6, 90720, Note_on_c, 9, 51, 90
6, 90720, Note_on_c, 9, 82, 85
6, 90720, Note_on_c, 9, 44, 95
6, 90720, Note_on_c, 9, 38, 97
6, 90740, Note_off_c, 9, 38, 64
6, 90740, Note_off_c, 9, 44, 64
6, 90740, Note_off_c, 9, 82, 64
6, 90740, Note_off_c, 9, 51, 64
6, 90880, Note_on_c, 9, 82, 43
6, 90881, Note_off_c, 9, 82, 64
6, 91040, Note_on_c, 9, 35, 92
6, 91040, Note_on_c, 9, 69, 52
6, 91041, Note_off_c, 9, 69, 64
6, 91041, Note_off_c, 9, 35, 64
6, 91200, Note_on_c, 9, 35, 107
6, 91200, Note_on_c, 9, 51, 87
6, 91200, Note_on_c, 9, 82, 76
6, 91201, Note_off_c, 9, 51, 64
6, 91201, Note_off_c, 9, 35, 64
6, 91220, Note_off_c, 9, 82, 64
6, 91360, Note_on_c, 9, 82, 56
6, 91361, Note_off_c, 9, 82, 64
6, 91520, Note_on_c, 9, 51, 89
6, 91520, Note_on_c, 9, 69, 56
6, 91521, Note_off_c, 9, 69, 64
6, 91521, Note_off_c, 9, 51, 64
6, 91680, Note_on_c, 9, 51, 89
6, 91680, Note_on_c, 9, 82, 85
6, 91680, Note_on_c, 9, 44, 92
6, 91680, Note_on_c, 9, 38, 94
6, 91700, Note_off_c, 9, 38, 64
6, 91700, Note_off_c, 9, 44, 64
6, 91700, Note_off_c, 9, 82, 64
6, 91700, Note_off_c, 9, 51, 64
6, 91840, Note_on_c, 9, 82, 48
6, 91841, Note_off_c, 9, 82, 64
6, 92000, Note_on_c, 9, 35, 90
6, 92000, Note_on_c, 9, 51, 84
6, 92000, Note_on_c, 9, 69, 59
6, 92001, Note_off_c, 9, 69, 64
6, 92001, Note_off_c, 9, 51, 64
6, 92001, Note_off_c, 9, 35, 64
6, 92160, Note_on_c, 9, 35, 97
6, 92160, Note_on_c, 9, 82, 76
6, 92160, Note_on_c, 9, 46, 100
6, 92180, Note_off_c, 9, 46, 64
6, 92180, Note_off_c, 9, 82, 64
6, 92180, Note_off_c, 9, 35, 64
6, 92640, Note_on_c, 9, 44, 94
6, 92641, Note_off_c, 9, 44, 64
6, 93120, Note_on_c, 9, 44, 94
6, 93121, Note_off_c, 9, 44, 64
6, 93440, Note_on_c, 9, 35, 87
6, 93441, Note_off_c, 9, 35, 64
6, 93600, Note_on_c, 9, 44, 94
6, 93600, Note_on_c, 9, 40, 81
6, 93601, Note_off_c, 9, 40, 64
6, 93601, Note_off_c, 9, 44, 64
6, 93920, Note_on_c, 9, 35, 87
6, 93921, Note_off_c, 9, 35, 64
6, 94060, Note_on_c, 9, 49, 85
6, 94080, Note_off_c, 9, 49, 64
6, 94080, Note_on_c, 9, 35, 113
6, 94080, Note_on_c, 9, 51, 94
6, 94080, Note_on_c, 9, 82, 56
6, 94100, Note_off_c, 9, 82, 64
6, 94100, Note_off_c, 9, 51, 64
6, 94100, Note_off_c, 9, 35, 64
6, 94240, Note_on_c, 9, 82, 40
6, 94241, Note_off_c, 9, 82, 64
6, 94400, Note_on_c, 9, 69, 58
6, 94401, Note_off_c, 9, 69, 64
6, 94560, Note_on_c, 9, 51, 102
6, 94560, Note_on_c, 9, 82, 56
6, 94560, Note_on_c, 9, 44, 93
6, 94560, Note_on_c, 9, 38, 87
6, 94580, Note_off_c, 9, 38, 64
6, 94580, Note_off_c, 9, 44, 64
6, 94580, Note_off_c, 9, 82, 64
6, 94580, Note_off_c, 9, 51, 64
6, 94720, Note_on_c, 9, 82, 40
6, 94721, Note_off_c, 9, 82, 64
6, 94880, Note_on_c, 9, 35, 99
6, 94880, Note_on_c, 9, 69, 52
6, 94881, Note_off_c, 9, 69, 64
6, 94881, Note_off_c, 9, 35, 64
6, 95040, Note_on_c, 9, 35, 105
6, 95040, Note_on_c, 9, 51, 89
6, 95040, Note_on_c, 9, 82, 67
6, 95041, Note_off_c, 9, 51, 64
6, 95041, Note_off_c, 9, 35, 64
6, 95060, Note_off_c, 9, 82, 64
6, 95200, Note_on_c, 9, 82, 41
6, 95201, Note_off_c, 9, 82, 64
6, 95360, Note_on_c, 9, 69, 59
6, 95361, Note_off_c, 9, 69, 64
6, 95520, Note_on_c, 9, 51, 90
6, 95520, Note_on_c, 9, 82, 76
6, 95520, Note_on_c, 9, 44, 92
6, 95520, Note_on_c, 9, 38, 90
6, 95540, Note_off_c, 9, 38, 64
6, 95540, Note_off_c, 9, 44, 64
6, 95540, Note_off_c, 9, 82, 64
6, 95540, Note_off_c, 9, 51, 64
6, 95680, Note_on_c, 9, 82, 41
6, 95681, Note_off_c, 9, 82, 64
6, 95840, Note_on_c, 9, 51, 86
6, 95840, Note_on_c, 9, 69, 56
6, 95841, Note_off_c, 9, 69, 64
6, 95841, Note_off_c, 9, 51, 64
6, 96000, Note_on_c, 9, 35, 104
6, 96000, Note_on_c, 9, 51, 90
6, 96000, Note_on_c, 9, 82, 76
6, 96001, Note_off_c, 9, 82, 64
6, 96001, Note_off_c, 9, 51, 64
6, 96001, Note_off_c, 9, 35, 64
6, 96160, Note_on_c, 9, 82, 44
6, 96161, Note_off_c, 9, 82, 64
6, 96320, Note_on_c, 9, 69, 59
6, 96321, Note_off_c, 9, 69, 64
6, 96480, Note_on_c, 9, 51, 113
6, 96480, Note_on_c, 9, 82, 85
6, 96480, Note_on_c, 9, 44, 90
6, 96480, Note_on_c, 9, 38, 93
6, 96500, Note_off_c, 9, 38, 64
6, 96500, Note_off_c, 9, 44, 64
6, 96500, Note_off_c, 9, 82, 64
6, 96500, Note_off_c, 9, 51, 64
6, 96640, Note_on_c, 9, 82, 44
6, 96641, Note_off_c, 9, 82, 64
6, 96800, Note_on_c, 9, 35, 102
6, 96800, Note_on_c, 9, 51, 85
6, 96800, Note_on_c, 9, 69, 60
6, 96801, Note_off_c, 9, 69, 64
6, 96801, Note_off_c, 9, 51, 64
6, 96801, Note_off_c, 9, 35, 64
6, 96960, Note_on_c, 9, 35, 110
6, 96960, Note_on_c, 9, 51, 87
6, 96960, Note_on_c, 9, 82, 76
6, 96961, Note_off_c, 9, 51, 64
6, 96961, Note_off_c, 9, 35, 64
6, 96980, Note_off_c, 9, 82, 64
6, 97120, Note_on_c, 9, 82, 43
6, 97121, Note_off_c, 9, 82, 64
6, 97280, Note_on_c, 9, 69, 54
6, 97281, Note_off_c, 9, 69, 64
6, 97440, Note_on_c, 9, 51, 90
6, 97440, Note_on_c, 9, 82, 76
6, 97440, Note_on_c, 9, 44, 92
6, 97440, Note_on_c, 9, 38, 90
6, 97441, Note_off_c, 9, 38, 64
6, 97441, Note_off_c, 9, 44, 64
6, 97441, Note_off_c, 9, 82, 64
6, 97441, Note_off_c, 9, 51, 64
6, 97600, Note_on_c, 9, 82, 44
6, 97601, Note_off_c, 9, 82, 64
6, 97760, Note_on_c, 9, 51, 90
6, 97760, Note_on_c, 9, 69, 54
6, 97761, Note_off_c, 9, 69, 64
6, 97761, Note_off_c, 9, 51, 64
6, 97920, Note_on_c, 9, 35, 102
6, 97920, Note_on_c, 9, 51, 89
6, 97920, Note_on_c, 9, 82, 67
6, 97921, Note_off_c, 9, 82, 64
6, 97921, Note_off_c, 9, 51, 64
6, 97921, Note_off_c, 9, 35, 64
6, 98080, Note_on_c, 9, 82, 41
6, 98081, Note_off_c, 9, 82, 64
6, 98240, Note_on_c, 9, 69, 54
6, 98241, Note_off_c, 9, 69, 64
6, 98400, Note_on_c, 9, 51, 94
6, 98400, Note_on_c, 9, 82, 76
6, 98400, Note_on_c, 9, 44, 93
6, 98400, Note_on_c, 9, 38, 89
6, 98420, Note_off_c, 9, 38, 64
6, 98420, Note_off_c, 9, 44, 64
6, 98420, Note_off_c, 9, 82, 64
6, 98420, Note_off_c, 9, 51, 64
6, 98560, Note_on_c, 9, 82, 39
6, 98561, Note_off_c, 9, 82, 64
6, 98720, Note_on_c, 9, 35, 102
6, 98720, Note_on_c, 9, 51, 86
6, 98720, Note_on_c, 9, 69, 56
6, 98721, Note_off_c, 9, 69, 64
6, 98721, Note_off_c, 9, 51, 64
6, 98721, Note_off_c, 9, 35, 64
6, 98880, Note_on_c, 9, 35, 107
6, 98880, Note_on_c, 9, 51, 87
6, 98880, Note_on_c, 9, 82, 85
6, 98881, Note_off_c, 9, 82, 64
6, 98881, Note_off_c, 9, 51, 64
6, 98881, Note_off_c, 9, 35, 64
6, 99040, Note_on_c, 9, 82, 40
6, 99041, Note_off_c, 9, 82, 64
6, 99200, Note_on_c, 9, 69, 58
6, 99201, Note_off_c, 9, 69, 64
6, 99360, Note_on_c, 9, 51, 102
6, 99360, Note_on_c, 9, 82, 76
6, 99360, Note_on_c, 9, 44, 95
6, 99360, Note_on_c, 9, 38, 95
6, 99361, Note_off_c, 9, 44, 64
6, 99361, Note_off_c, 9, 82, 64
6, 99361, Note_off_c, 9, 51, 64
6, 99380, Note_off_c, 9, 38, 64
6, 99520, Note_on_c, 9, 82, 41
6, 99521, Note_off_c, 9, 82, 64
6, 99680, Note_on_c, 9, 35, 95
6, 99680, Note_on_c, 9, 51, 85
6, 99680, Note_on_c, 9, 69, 58
6, 99681, Note_off_c, 9, 69, 64
6, 99681, Note_off_c, 9, 51, 64
6, 99681, Note_off_c, 9, 35, 64
6, 99840, Note_on_c, 9, 35, 102
6, 99840, Note_on_c, 9, 51, 87
6, 99840, Note_on_c, 9, 82, 76
6, 99841, Note_off_c, 9, 82, 64
6, 99841, Note_off_c, 9, 51, 64
6, 99841, Note_off_c, 9, 35, 64
6, 100000, Note_on_c, 9, 82, 43
6, 100001, Note_off_c, 9, 82, 64
6, 100160, Note_on_c, 9, 69, 58
6, 100161, Note_off_c, 9, 69, 64
6, 100320, Note_on_c, 9, 51, 90
6, 100320, Note_on_c, 9, 82, 85
6, 100320, Note_on_c, 9, 44, 95
6, 100320, Note_on_c, 9, 38, 97
6, 100340, Note_off_c, 9, 38, 64
6, 100340, Note_off_c, 9, 44, 64
6, 100340, Note_off_c, 9, 82, 64
6, 100340, Note_off_c, 9, 51, 64
6, 100480, Note_on_c, 9, 82, 43
6, 100481, Note_off_c, 9, 82, 64
6, 100640, Note_on_c, 9, 35, 92
6, 100640, Note_on_c, 9, 69, 52
6, 100641, Note_off_c, 9, 69, 64
6, 100641, Note_off_c, 9, 35, 64
6, 100800, Note_on_c, 9, 35, 107
6, 100800, Note_on_c, 9, 51, 87
6, 100800, Note_on_c, 9, 82, 76
6, 100801, Note_off_c, 9, 82, 64
6, 100801, Note_off_c, 9, 51, 64
6, 100801, Note_off_c, 9, 35, 64
6, 100960, Note_on_c, 9, 82, 56
6, 100961, Note_off_c, 9, 82, 64
6, 101120, Note_on_c, 9, 51, 89
6, 101120, Note_on_c, 9, 69, 56
6, 101121, Note_off_c, 9, 69, 64
6, 101121, Note_off_c, 9, 51, 64
6, 101280, Note_on_c, 9, 51, 89
6, 101280, Note_on_c, 9, 82, 85
6, 101280, Note_on_c, 9, 44, 92
6, 101280, Note_on_c, 9, 38, 94
6, 101281, Note_off_c, 9, 38, 64
6, 101281, Note_off_c, 9, 44, 64
6, 101281, Note_off_c, 9, 82, 64
6, 101281, Note_off_c, 9, 51, 64
6, 101440, Note_on_c, 9, 82, 48
6, 101441, Note_off_c, 9, 82, 64
6, 101600, Note_on_c, 9, 35, 90
6, 101600, Note_on_c, 9, 51, 84
6, 101600, Note_on_c, 9, 69, 59
6, 101601, Note_off_c, 9, 69, 64
6, 101601, Note_off_c, 9, 51, 64
6, 101601, Note_off_c, 9, 35, 64
6, 101760, Note_on_c, 9, 35, 113
6, 101760, Note_on_c, 9, 51, 94
6, 101760, Note_on_c, 9, 82, 56
6, 101761, Note_off_c, 9, 51, 64
6, 101761, Note_off_c, 9, 35, 64
6, 101780, Note_off_c, 9, 82, 64
6, 101920, Note_on_c, 9, 82, 40
6, 101921, Note_off_c, 9, 82, 64
6, 102080, Note_on_c, 9, 69, 58
6, 102081, Note_off_c, 9, 69, 64
6, 102240, Note_on_c, 9, 51, 102
6, 102240, Note_on_c, 9, 82, 56
6, 102240, Note_on_c, 9, 44, 93
6, 102240, Note_on_c, 9, 38, 87
6, 102241, Note_off_c, 9, 82, 64
6, 102241, Note_off_c, 9, 51, 64
6, 102260, Note_off_c, 9, 44, 64
6, 102260, Note_off_c, 9, 38, 64
6, 102400, Note_on_c, 9, 82, 40
6, 102401, Note_off_c, 9, 82, 64
6, 102560, Note_on_c, 9, 35, 99
6, 102560, Note_on_c, 9, 69, 52
6, 102561, Note_off_c, 9, 69, 64
6, 102561, Note_off_c, 9, 35, 64
6, 102720, Note_on_c, 9, 35, 105
6, 102720, Note_on_c, 9, 51, 89
6, 102720, Note_on_c, 9, 82, 67
6, 102721, Note_off_c, 9, 82, 64
6, 102721, Note_off_c, 9, 51, 64
6, 102721, Note_off_c, 9, 35, 64
6, 102880, Note_on_c, 9, 82, 41
6, 102881, Note_off_c, 9, 82, 64
6, 103040, Note_on_c, 9, 69, 59
6, 103041, Note_off_c, 9, 69, 64
6, 103200, Note_on_c, 9, 51, 90
6, 103200, Note_on_c, 9, 82, 76
6, 103200, Note_on_c, 9, 44, 92
6, 103200, Note_on_c, 9, 38, 90
6, 103201, Note_off_c, 9, 82, 64
6, 103201, Note_off_c, 9, 51, 64
6, 103220, Note_off_c, 9, 44, 64
6, 103220, Note_off_c, 9, 38, 64
6, 103360, Note_on_c, 9, 82, 41
6, 103361, Note_off_c, 9, 82, 64
6, 103520, Note_on_c, 9, 51, 86
6, 103520, Note_on_c, 9, 69, 56
6, 103521, Note_off_c, 9, 69, 64
6, 103521, Note_off_c, 9, 51, 64
6, 103680, Note_on_c, 9, 35, 104
6, 103680, Note_on_c, 9, 51, 90
6, 103680, Note_on_c, 9, 82, 76
6, 103681, Note_off_c, 9, 82, 64
6, 103681, Note_off_c, 9, 51, 64
6, 103681, Note_off_c, 9, 35, 64
6, 103840, Note_on_c, 9, 82, 44
6, 103841, Note_off_c, 9, 82, 64
6, 104000, Note_on_c, 9, 69, 59
6, 104001, Note_off_c, 9, 69, 64
6, 104160, Note_on_c, 9, 51, 113
6, 104160, Note_on_c, 9, 82, 85
6, 104160, Note_on_c, 9, 44, 90
6, 104160, Note_on_c, 9, 38, 93
6, 104180, Note_off_c, 9, 38, 64
6, 104180, Note_off_c, 9, 44, 64
6, 104180, Note_off_c, 9, 82, 64
6, 104180, Note_off_c, 9, 51, 64
6, 104320, Note_on_c, 9, 82, 44
6, 104321, Note_off_c, 9, 82, 64
6, 104480, Note_on_c, 9, 35, 102
6, 104480, Note_on_c, 9, 51, 85
6, 104480, Note_on_c, 9, 69, 60
6, 104481, Note_off_c, 9, 69, 64
6, 104481, Note_off_c, 9, 51, 64
6, 104481, Note_off_c, 9, 35, 64
6, 104640, Note_on_c, 9, 35, 110
6, 104640, Note_on_c, 9, 51, 87
6, 104640, Note_on_c, 9, 82, 76
6, 104641, Note_off_c, 9, 82, 64
6, 104641, Note_off_c, 9, 51, 64
6, 104641, Note_off_c, 9, 35, 64
6, 104800, Note_on_c, 9, 82, 43
6, 104801, Note_off_c, 9, 82, 64
6, 104960, Note_on_c, 9, 69, 54
6, 104961, Note_off_c, 9, 69, 64
6, 105120, Note_on_c, 9, 51, 90
6, 105120, Note_on_c, 9, 82, 76
6, 105120, Note_on_c, 9, 44, 92
6, 105120, Note_on_c, 9, 38, 90
6, 105121, Note_off_c, 9, 44, 64
6, 105121, Note_off_c, 9, 82, 64
6, 105121, Note_off_c, 9, 51, 64
6, 105140, Note_off_c, 9, 38, 64
6, 105280, Note_on_c, 9, 82, 44
6, 105281, Note_off_c, 9, 82, 64
6, 105440, Note_on_c, 9, 51, 90
6, 105440, Note_on_c, 9, 69, 54
6, 105441, Note_off_c, 9, 69, 64
6, 105441, Note_off_c, 9, 51, 64
6, 105600, Note_on_c, 9, 35, 102
6, 105600, Note_on_c, 9, 51, 89
6, 105600, Note_on_c, 9, 82, 67
6, 105601, Note_off_c, 9, 82, 64
6, 105601, Note_off_c, 9, 51, 64
6, 105601, Note_off_c, 9, 35, 64
6, 105760, Note_on_c, 9, 82, 41
6, 105761, Note_off_c, 9, 82, 64
6, 105920, Note_on_c, 9, 69, 54
6, 105921, Note_off_c, 9, 69, 64
6, 106080, Note_on_c, 9, 51, 94
6, 106080, Note_on_c, 9, 82, 76
6, 106080, Note_on_c, 9, 44, 93
6, 106080, Note_on_c, 9, 38, 89
6, 106100, Note_off_c, 9, 38, 64
6, 106100, Note_off_c, 9, 44, 64
6, 106100, Note_off_c, 9, 82, 64
6, 106100, Note_off_c, 9, 51, 64
6, 106240, Note_on_c, 9, 82, 39
6, 106241, Note_off_c, 9, 82, 64
6, 106400, Note_on_c, 9, 35, 102
6, 106400, Note_on_c, 9, 51, 86
6, 106400, Note_on_c, 9, 69, 56
6, 106401, Note_off_c, 9, 69, 64
6, 106401, Note_off_c, 9, 51, 64
6, 106401, Note_off_c, 9, 35, 64
6, 106560, Note_on_c, 9, 35, 107
6, 106560, Note_on_c, 9, 51, 87
6, 106560, Note_on_c, 9, 82, 85
6, 106561, Note_off_c, 9, 82, 64
6, 106561, Note_off_c, 9, 51, 64
6, 106561, Note_off_c, 9, 35, 64
6, 106720, Note_on_c, 9, 82, 40
6, 106721, Note_off_c, 9, 82, 64
6, 106880, Note_on_c, 9, 69, 58
6, 106881, Note_off_c, 9, 69, 64
6, 107040, Note_on_c, 9, 51, 102
6, 107040, Note_on_c, 9, 82, 76
6, 107040, Note_on_c, 9, 44, 95
6, 107040, Note_on_c, 9, 38, 95
6, 107041, Note_off_c, 9, 44, 64
6, 107041, Note_off_c, 9, 82, 64
6, 107041, Note_off_c, 9, 51, 64
6, 107060, Note_off_c, 9, 38, 64
6, 107200, Note_on_c, 9, 82, 41
6, 107201, Note_off_c, 9, 82, 64
6, 107360, Note_on_c, 9, 35, 95
6, 107360, Note_on_c, 9, 51, 85
6, 107360, Note_on_c, 9, 69, 58
6, 107361, Note_off_c, 9, 69, 64
6, 107361, Note_off_c, 9, 51, 64
6, 107361, Note_off_c, 9, 35, 64
6, 107520, Note_on_c, 9, 35, 102
6, 107520, Note_on_c, 9, 51, 87
6, 107520, Note_on_c, 9, 82, 76
6, 107540, Note_off_c, 9, 82, 64
6, 107540, Note_off_c, 9, 51, 64
6, 107540, Note_off_c, 9, 35, 64
6, 107680, Note_on_c, 9, 82, 43
6, 107681, Note_off_c, 9, 82, 64
6, 107840, Note_on_c, 9, 69, 58
6, 107841, Note_off_c, 9, 69, 64
6, 108000, Note_on_c, 9, 51, 90
6, 108000, Note_on_c, 9, 82, 85
6, 108000, Note_on_c, 9, 44, 95
6, 108000, Note_on_c, 9, 38, 97
6, 108020, Note_off_c, 9, 38, 64
6, 108020, Note_off_c, 9, 44, 64
6, 108020, Note_off_c, 9, 82, 64
6, 108020, Note_off_c, 9, 51, 64
6, 108160, Note_on_c, 9, 82, 43
6, 108161, Note_off_c, 9, 82, 64
6, 108320, Note_on_c, 9, 35, 92
6, 108320, Note_on_c, 9, 69, 52
6, 108321, Note_off_c, 9, 69, 64
6, 108321, Note_off_c, 9, 35, 64
6, 108480, Note_on_c, 9, 35, 107
6, 108480, Note_on_c, 9, 51, 87
6, 108480, Note_on_c, 9, 82, 76
6, 108481, Note_off_c, 9, 82, 64
6, 108481, Note_off_c, 9, 51, 64
6, 108481, Note_off_c, 9, 35, 64
6, 108640, Note_on_c, 9, 82, 56
6, 108641, Note_off_c, 9, 82, 64
6, 108800, Note_on_c, 9, 51, 89
6, 108800, Note_on_c, 9, 69, 56
6, 108801, Note_off_c, 9, 69, 64
6, 108801, Note_off_c, 9, 51, 64
6, 108960, Note_on_c, 9, 51, 89
6, 108960, Note_on_c, 9, 82, 85
6, 108960, Note_on_c, 9, 44, 92
6, 108960, Note_on_c, 9, 38, 94
6, 108980, Note_off_c, 9, 38, 64
6, 108980, Note_off_c, 9, 44, 64
6, 108980, Note_off_c, 9, 82, 64
6, 108980, Note_off_c, 9, 51, 64
6, 109120, Note_on_c, 9, 82, 48
6, 109121, Note_off_c, 9, 82, 64
6, 109280, Note_on_c, 9, 35, 90
6, 109280, Note_on_c, 9, 51, 84
6, 109280, Note_on_c, 9, 69, 59
6, 109281, Note_off_c, 9, 69, 64
6, 109281, Note_off_c, 9, 51, 64
6, 109281, Note_off_c, 9, 35, 64
6, 109440, Note_on_c, 9, 35, 113
6, 109440, Note_on_c, 9, 51, 94
6, 109440, Note_on_c, 9, 82, 56
6, 109460, Note_off_c, 9, 82, 64
6, 109460, Note_off_c, 9, 51, 64
6, 109460, Note_off_c, 9, 35, 64
6, 109600, Note_on_c, 9, 82, 40
6, 109601, Note_off_c, 9, 82, 64
6, 109760, Note_on_c, 9, 69, 58
6, 109761, Note_off_c, 9, 69, 64
6, 109920, Note_on_c, 9, 51, 102
6, 109920, Note_on_c, 9, 82, 56
6, 109920, Note_on_c, 9, 44, 93
6, 109920, Note_on_c, 9, 38, 87
6, 109940, Note_off_c, 9, 38, 64
6, 109940, Note_off_c, 9, 44, 64
6, 109940, Note_off_c, 9, 82, 64
6, 109940, Note_off_c, 9, 51, 64
6, 110080, Note_on_c, 9, 82, 40
6, 110081, Note_off_c, 9, 82, 64
6, 110240, Note_on_c, 9, 35, 99
6, 110240, Note_on_c, 9, 69, 52
6, 110241, Note_off_c, 9, 69, 64
6, 110241, Note_off_c, 9, 35, 64
6, 110400, Note_on_c, 9, 35, 105
6, 110400, Note_on_c, 9, 51, 89
6, 110400, Note_on_c, 9, 82, 67
6, 110401, Note_off_c, 9, 82, 64
6, 110401, Note_off_c, 9, 51, 64
6, 110401, Note_off_c, 9, 35, 64
6, 110560, Note_on_c, 9, 82, 41
6, 110561, Note_off_c, 9, 82, 64
6, 110720, Note_on_c, 9, 69, 59
6, 110721, Note_off_c, 9, 69, 64
6, 110880, Note_on_c, 9, 51, 90
6, 110880, Note_on_c, 9, 82, 76
6, 110880, Note_on_c, 9, 44, 92
6, 110880, Note_on_c, 9, 38, 90
6, 110881, Note_off_c, 9, 38, 64
6, 110881, Note_off_c, 9, 44, 64
6, 110881, Note_off_c, 9, 82, 64
6, 110881, Note_off_c, 9, 51, 64
6, 111040, Note_on_c, 9, 82, 41
6, 111041, Note_off_c, 9, 82, 64
6, 111200, Note_on_c, 9, 51, 86
6, 111200, Note_on_c, 9, 69, 56
6, 111201, Note_off_c, 9, 69, 64
6, 111201, Note_off_c, 9, 51, 64
6, 111360, Note_on_c, 9, 35, 104
6, 111360, Note_on_c, 9, 51, 90
6, 111360, Note_on_c, 9, 82, 76
6, 111361, Note_off_c, 9, 82, 64
6, 111361, Note_off_c, 9, 51, 64
6, 111361, Note_off_c, 9, 35, 64
6, 111520, Note_on_c, 9, 82, 44
6, 111521, Note_off_c, 9, 82, 64
6, 111680, Note_on_c, 9, 69, 59
6, 111681, Note_off_c, 9, 69, 64
6, 111840, Note_on_c, 9, 51, 113
6, 111840, Note_on_c, 9, 82, 85
6, 111840, Note_on_c, 9, 44, 90
6, 111840, Note_on_c, 9, 38, 93
6, 111841, Note_off_c, 9, 38, 64
6, 111841, Note_off_c, 9, 44, 64
6, 111841, Note_off_c, 9, 82, 64
6, 111841, Note_off_c, 9, 51, 64
6, 112000, Note_on_c, 9, 82, 44
6, 112001, Note_off_c, 9, 82, 64
6, 112160, Note_on_c, 9, 35, 102
6, 112160, Note_on_c, 9, 51, 85
6, 112160, Note_on_c, 9, 69, 60
6, 112161, Note_off_c, 9, 69, 64
6, 112161, Note_off_c, 9, 51, 64
6, 112161, Note_off_c, 9, 35, 64
6, 112320, Note_on_c, 9, 35, 110
6, 112320, Note_on_c, 9, 51, 87
6, 112320, Note_on_c, 9, 82, 76
6, 112321, Note_off_c, 9, 82, 64
6, 112321, Note_off_c, 9, 51, 64
6, 112321, Note_off_c, 9, 35, 64
6, 112480, Note_on_c, 9, 82, 43
6, 112481, Note_off_c, 9, 82, 64
6, 112640, Note_on_c, 9, 69, 54
6, 112641, Note_off_c, 9, 69, 64
6, 112800, Note_on_c, 9, 51, 90
6, 112800, Note_on_c, 9, 82, 76
6, 112800, Note_on_c, 9, 44, 92
6, 112800, Note_on_c, 9, 38, 90
6, 112801, Note_off_c, 9, 44, 64
6, 112801, Note_off_c, 9, 82, 64
6, 112801, Note_off_c, 9, 51, 64
6, 112820, Note_off_c, 9, 38, 64
6, 112960, Note_on_c, 9, 82, 44
6, 112961, Note_off_c, 9, 82, 64
6, 113120, Note_on_c, 9, 51, 90
6, 113120, Note_on_c, 9, 69, 54
6, 113121, Note_off_c, 9, 69, 64
6, 113121, Note_off_c, 9, 51, 64
6, 113280, Note_on_c, 9, 35, 102
6, 113280, Note_on_c, 9, 51, 89
6, 113280, Note_on_c, 9, 82, 67
6, 113281, Note_off_c, 9, 82, 64
6, 113281, Note_off_c, 9, 51, 64
6, 113281, Note_off_c, 9, 35, 64
6, 113440, Note_on_c, 9, 82, 41
6, 113441, Note_off_c, 9, 82, 64
6, 113600, Note_on_c, 9, 69, 54
6, 113601, Note_off_c, 9, 69, 64
6, 113760, Note_on_c, 9, 51, 94
6, 113760, Note_on_c, 9, 82, 76
6, 113760, Note_on_c, 9, 44, 93
6, 113760, Note_on_c, 9, 38, 89
6, 113780, Note_off_c, 9, 38, 64
6, 113780, Note_off_c, 9, 44, 64
6, 113780, Note_off_c, 9, 82, 64
6, 113780, Note_off_c, 9, 51, 64
6, 113920, Note_on_c, 9, 82, 39
6, 113921, Note_off_c, 9, 82, 64
6, 114080, Note_on_c, 9, 35, 102
6, 114080, Note_on_c, 9, 51, 86
6, 114080, Note_on_c, 9, 69, 56
6, 114081, Note_off_c, 9, 69, 64
6, 114081, Note_off_c, 9, 51, 64
6, 114081, Note_off_c, 9, 35, 64
6, 114240, Note_on_c, 9, 35, 107
6, 114240, Note_on_c, 9, 51, 87
6, 114240, Note_on_c, 9, 82, 85
6, 114241, Note_off_c, 9, 82, 64
6, 114241, Note_off_c, 9, 51, 64
6, 114241, Note_off_c, 9, 35, 64
6, 114400, Note_on_c, 9, 82, 40
6, 114401, Note_off_c, 9, 82, 64
6, 114560, Note_on_c, 9, 69, 58
6, 114561, Note_off_c, 9, 69, 64
6, 114720, Note_on_c, 9, 51, 102
6, 114720, Note_on_c, 9, 82, 76
6, 114720, Note_on_c, 9, 44, 95
6, 114720, Note_on_c, 9, 38, 95
6, 114721, Note_off_c, 9, 44, 64
6, 114721, Note_off_c, 9, 82, 64
6, 114721, Note_off_c, 9, 51, 64
6, 114740, Note_off_c, 9, 38, 64
6, 114880, Note_on_c, 9, 82, 41
6, 114881, Note_off_c, 9, 82, 64
6, 115040, Note_on_c, 9, 35, 95
6, 115040, Note_on_c, 9, 51, 85
6, 115040, Note_on_c, 9, 69, 58
6, 115041, Note_off_c, 9, 69, 64
6, 115041, Note_off_c, 9, 51, 64
6, 115041, Note_off_c, 9, 35, 64
6, 115200, Note_on_c, 9, 35, 102
6, 115200, Note_on_c, 9, 51, 87
6, 115200, Note_on_c, 9, 82, 76
6, 115201, Note_off_c, 9, 82, 64
6, 115201, Note_off_c, 9, 51, 64
6, 115201, Note_off_c, 9, 35, 64
6, 115360, Note_on_c, 9, 82, 43
6, 115361, Note_off_c, 9, 82, 64
6, 115520, Note_on_c, 9, 69, 58
6, 115521, Note_off_c, 9, 69, 64
6, 115680, Note_on_c, 9, 51, 90
6, 115680, Note_on_c, 9, 82, 85
6, 115680, Note_on_c, 9, 44, 95
6, 115680, Note_on_c, 9, 38, 97
6, 115700, Note_off_c, 9, 38, 64
6, 115700, Note_off_c, 9, 44, 64
6, 115700, Note_off_c, 9, 82, 64
6, 115700, Note_off_c, 9, 51, 64
6, 115840, Note_on_c, 9, 82, 43
6, 115841, Note_off_c, 9, 82, 64
6, 116000, Note_on_c, 9, 35, 92
6, 116000, Note_on_c, 9, 69, 52
6, 116001, Note_off_c, 9, 69, 64
6, 116001, Note_off_c, 9, 35, 64
6, 116160, Note_on_c, 9, 35, 107
6, 116160, Note_on_c, 9, 51, 87
6, 116160, Note_on_c, 9, 82, 76
6, 116161, Note_off_c, 9, 82, 64
6, 116161, Note_off_c, 9, 51, 64
6, 116161, Note_off_c, 9, 35, 64
6, 116320, Note_on_c, 9, 82, 56
6, 116321, Note_off_c, 9, 82, 64
6, 116480, Note_on_c, 9, 51, 89
6, 116480, Note_on_c, 9, 69, 56
6, 116481, Note_off_c, 9, 69, 64
6, 116481, Note_off_c, 9, 51, 64
6, 116640, Note_on_c, 9, 51, 89
6, 116640, Note_on_c, 9, 82, 85
6, 116640, Note_on_c, 9, 44, 92
6, 116640, Note_on_c, 9, 38, 94
6, 116641, Note_off_c, 9, 44, 64
6, 116641, Note_off_c, 9, 82, 64
6, 116641, Note_off_c, 9, 51, 64
6, 116660, Note_off_c, 9, 38, 64
6, 116800, Note_on_c, 9, 82, 48
6, 116801, Note_off_c, 9, 82, 64
6, 116960, Note_on_c, 9, 35, 90
6, 116960, Note_on_c, 9, 51, 84
6, 116960, Note_on_c, 9, 69, 59
6, 116961, Note_off_c, 9, 69, 64
6, 116961, Note_off_c, 9, 51, 64
6, 116961, Note_off_c, 9, 35, 64
6, 117120, Note_on_c, 9, 35, 113
6, 117120, Note_on_c, 9, 51, 94
6, 117120, Note_on_c, 9, 82, 56
6, 117121, Note_off_c, 9, 82, 64
6, 117121, Note_off_c, 9, 51, 64
6, 117121, Note_off_c, 9, 35, 64
6, 117280, Note_on_c, 9, 82, 40
6, 117281, Note_off_c, 9, 82, 64
6, 117440, Note_on_c, 9, 69, 58
6, 117441, Note_off_c, 9, 69, 64
6, 117600, Note_on_c, 9, 51, 102
6, 117600, Note_on_c, 9, 82, 56
6, 117600, Note_on_c, 9, 44, 93
6, 117600, Note_on_c, 9, 38, 87
6, 117620, Note_off_c, 9, 38, 64
6, 117620, Note_off_c, 9, 44, 64
6, 117620, Note_off_c, 9, 82, 64
6, 117620, Note_off_c, 9, 51, 64
6, 117760, Note_on_c, 9, 82, 40
6, 117761, Note_off_c, 9, 82, 64
6, 117920, Note_on_c, 9, 35, 99
6, 117920, Note_on_c, 9, 69, 52
6, 117921, Note_off_c, 9, 69, 64
6, 117921, Note_off_c, 9, 35, 64
6, 118080, Note_on_c, 9, 35, 105
6, 118080, Note_on_c, 9, 51, 89
6, 118080, Note_on_c, 9, 82, 67
6, 118081, Note_off_c, 9, 82, 64
6, 118081, Note_off_c, 9, 51, 64
6, 118081, Note_off_c, 9, 35, 64
6, 118240, Note_on_c, 9, 82, 41
6, 118241, Note_off_c, 9, 82, 64
6, 118400, Note_on_c, 9, 69, 59
6, 118401, Note_off_c, 9, 69, 64
6, 118560, Note_on_c, 9, 51, 90
6, 118560, Note_on_c, 9, 82, 76
6, 118560, Note_on_c, 9, 44, 92
6, 118560, Note_on_c, 9, 38, 90
6, 118561, Note_off_c, 9, 44, 64
6, 118561, Note_off_c, 9, 82, 64
6, 118561, Note_off_c, 9, 51, 64
6, 118580, Note_off_c, 9, 38, 64
6, 118720, Note_on_c, 9, 82, 41
6, 118721, Note_off_c, 9, 82, 64
6, 118880, Note_on_c, 9, 51, 86
6, 118880, Note_on_c, 9, 69, 56
6, 118881, Note_off_c, 9, 69, 64
6, 118881, Note_off_c, 9, 51, 64
6, 119040, Note_on_c, 9, 35, 100
6, 119040, Note_on_c, 9, 82, 76
6, 119040, Note_on_c, 9, 53, 100
6, 119060, Note_off_c, 9, 53, 64
6, 119060, Note_off_c, 9, 82, 64
6, 119060, Note_off_c, 9, 35, 64
6, 119200, Note_on_c, 9, 42, 44
6, 119200, Note_on_c, 9, 82, 44
6, 119201, Note_off_c, 9, 82, 64
6, 119201, Note_off_c, 9, 42, 64
6, 119360, Note_on_c, 9, 69, 59
6, 119361, Note_off_c, 9, 69, 64
6, 119520, Note_on_c, 9, 62, 76
6, 119520, Note_on_c, 9, 82, 85
6, 119520, Note_on_c, 9, 53, 124
6, 119520, Note_on_c, 9, 44, 91
6, 119520, Note_on_c, 9, 40, 91
6, 119540, Note_off_c, 9, 40, 64
6, 119540, Note_off_c, 9, 44, 64
6, 119540, Note_off_c, 9, 53, 64
6, 119540, Note_off_c, 9, 82, 64
6, 119540, Note_off_c, 9, 62, 64
6, 119680, Note_on_c, 9, 42, 44
6, 119680, Note_on_c, 9, 82, 44
6, 119681, Note_off_c, 9, 82, 64
6, 119681, Note_off_c, 9, 42, 64
6, 119840, Note_on_c, 9, 35, 98
6, 119840, Note_on_c, 9, 69, 60
6, 119841, Note_off_c, 9, 69, 64
6, 119841, Note_off_c, 9, 35, 64
6, 120000, Note_on_c, 9, 35, 102
6, 120000, Note_on_c, 9, 82, 76
6, 120000, Note_on_c, 9, 53, 114
6, 120001, Note_off_c, 9, 53, 64
6, 120001, Note_off_c, 9, 82, 64
6, 120001, Note_off_c, 9, 35, 64
6, 120160, Note_on_c, 9, 42, 43
6, 120160, Note_on_c, 9, 82, 43
6, 120161, Note_off_c, 9, 82, 64
6, 120161, Note_off_c, 9, 42, 64
6, 120320, Note_on_c, 9, 69, 54
6, 120320, Note_on_c, 9, 53, 99
6, 120321, Note_off_c, 9, 53, 64
6, 120321, Note_off_c, 9, 69, 64
6, 120480, Note_on_c, 9, 63, 62
6, 120480, Note_on_c, 9, 82, 76
6, 120480, Note_on_c, 9, 53, 100
6, 120480, Note_on_c, 9, 40, 90
6, 120480, Note_on_c, 9, 44, 97
6, 120500, Note_off_c, 9, 44, 64
6, 120500, Note_off_c, 9, 40, 64
6, 120500, Note_off_c, 9, 53, 64
6, 120500, Note_off_c, 9, 82, 64
6, 120500, Note_off_c, 9, 63, 64
6, 120640, Note_on_c, 9, 42, 44
6, 120640, Note_on_c, 9, 82, 44
6, 120641, Note_off_c, 9, 82, 64
6, 120641, Note_off_c, 9, 42, 64
6, 120800, Note_on_c, 9, 35, 87
6, 120800, Note_on_c, 9, 63, 76
6, 120800, Note_on_c, 9, 69, 54
6, 120800, Note_on_c, 9, 53, 100
6, 120801, Note_off_c, 9, 53, 64
6, 120801, Note_off_c, 9, 69, 64
6, 120801, Note_off_c, 9, 63, 64
6, 120801, Note_off_c, 9, 35, 64
6, 120960, Note_on_c, 9, 35, 94
6, 120960, Note_on_c, 9, 82, 67
6, 120960, Note_on_c, 9, 53, 101
6, 120961, Note_off_c, 9, 53, 64
6, 120961, Note_off_c, 9, 82, 64
6, 120961, Note_off_c, 9, 35, 64
6, 121120, Note_on_c, 9, 42, 41
6, 121120, Note_on_c, 9, 82, 41
6, 121121, Note_off_c, 9, 82, 64
6, 121121, Note_off_c, 9, 42, 64
6, 121280, Note_on_c, 9, 69, 54
6, 121281, Note_off_c, 9, 69, 64
6, 121440, Note_on_c, 9, 62, 76
6, 121440, Note_on_c, 9, 82, 76
6, 121440, Note_on_c, 9, 53, 101
6, 121440, Note_on_c, 9, 44, 97
6, 121440, Note_on_c, 9, 40, 95
6, 121441, Note_off_c, 9, 53, 64
6, 121441, Note_off_c, 9, 82, 64
6, 121441, Note_off_c, 9, 62, 64
6, 121460, Note_off_c, 9, 44, 64
6, 121460, Note_off_c, 9, 40, 64
6, 121600, Note_on_c, 9, 42, 39
6, 121600, Note_on_c, 9, 82, 39
6, 121601, Note_off_c, 9, 82, 64
6, 121601, Note_off_c, 9, 42, 64
6, 121760, Note_on_c, 9, 35, 87
6, 121760, Note_on_c, 9, 69, 56
6, 121761, Note_off_c, 9, 69, 64
6, 121761, Note_off_c, 9, 35, 64
6, 121920, Note_on_c, 9, 35, 99
6, 121920, Note_on_c, 9, 82, 85
6, 121920, Note_on_c, 9, 53, 106
6, 121921, Note_off_c, 9, 82, 64
6, 121921, Note_off_c, 9, 35, 64
6, 121940, Note_off_c, 9, 53, 64
6, 122080, Note_on_c, 9, 42, 40
6, 122080, Note_on_c, 9, 82, 40
6, 122081, Note_off_c, 9, 82, 64
6, 122081, Note_off_c, 9, 42, 64
6, 122240, Note_on_c, 9, 69, 58
6, 122240, Note_on_c, 9, 53, 98
6, 122241, Note_off_c, 9, 53, 64
6, 122241, Note_off_c, 9, 69, 64
6, 122400, Note_on_c, 9, 64, 70
6, 122400, Note_on_c, 9, 82, 76
6, 122400, Note_on_c, 9, 44, 100
6, 122400, Note_on_c, 9, 40, 93
6, 122400, Note_on_c, 9, 53, 99
6, 122420, Note_off_c, 9, 53, 64
6, 122420, Note_off_c, 9, 40, 64
6, 122420, Note_off_c, 9, 44, 64
6, 122420, Note_off_c, 9, 82, 64
6, 122420, Note_off_c, 9, 64, 64
6, 122560, Note_on_c, 9, 42, 41
6, 122560, Note_on_c, 9, 82, 41
6, 122561, Note_off_c, 9, 82, 64
6, 122561, Note_off_c, 9, 42, 64
6, 122720, Note_on_c, 9, 64, 94
6, 122720, Note_on_c, 9, 69, 58
6, 122720, Note_on_c, 9, 53, 94
6, 122721, Note_off_c, 9, 53, 64
6, 122721, Note_off_c, 9, 69, 64
6, 122721, Note_off_c, 9, 64, 64
6, 122880, Note_on_c, 9, 35, 95
6, 122880, Note_on_c, 9, 82, 76
6, 122880, Note_on_c, 9, 53, 100
6, 122881, Note_off_c, 9, 53, 64
6, 122881, Note_off_c, 9, 82, 64
6, 122881, Note_off_c, 9, 35, 64
6, 123040, Note_on_c, 9, 42, 43
6, 123040, Note_on_c, 9, 82, 43
6, 123041, Note_off_c, 9, 82, 64
6, 123041, Note_off_c, 9, 42, 64
6, 123200, Note_on_c, 9, 69, 58
6, 123200, Note_on_c, 9, 53, 99
6, 123201, Note_off_c, 9, 53, 64
6, 123201, Note_off_c, 9, 69, 64
6, 123360, Note_on_c, 9, 62, 79
6, 123360, Note_on_c, 9, 82, 85
6, 123360, Note_on_c, 9, 44, 98
6, 123360, Note_on_c, 9, 40, 90
6, 123360, Note_on_c, 9, 53, 100
6, 123380, Note_off_c, 9, 53, 64
6, 123380, Note_off_c, 9, 40, 64
6, 123380, Note_off_c, 9, 44, 64
6, 123380, Note_off_c, 9, 82, 64
6, 123380, Note_off_c, 9, 62, 64
6, 123520, Note_on_c, 9, 42, 43
6, 123520, Note_on_c, 9, 82, 43
6, 123521, Note_off_c, 9, 82, 64
6, 123521, Note_off_c, 9, 42, 64
6, 123680, Note_on_c, 9, 35, 90
6, 123680, Note_on_c, 9, 69, 52
6, 123681, Note_off_c, 9, 69, 64
6, 123681, Note_off_c, 9, 35, 64
6, 123840, Note_on_c, 9, 35, 101
6, 123840, Note_on_c, 9, 82, 76
6, 123840, Note_on_c, 9, 53, 101
6, 123841, Note_off_c, 9, 82, 64
6, 123841, Note_off_c, 9, 35, 64
6, 123860, Note_off_c, 9, 53, 64
6, 124000, Note_on_c, 9, 42, 56
6, 124000, Note_on_c, 9, 82, 56
6, 124001, Note_off_c, 9, 82, 64
6, 124001, Note_off_c, 9, 42, 64
6, 124160, Note_on_c, 9, 69, 56
6, 124161, Note_off_c, 9, 69, 64
6, 124320, Note_on_c, 9, 63, 74
6, 124320, Note_on_c, 9, 82, 85
6, 124320, Note_on_c, 9, 44, 97
6, 124320, Note_on_c, 9, 53, 106
6, 124320, Note_on_c, 9, 40, 94
6, 124340, Note_off_c, 9, 40, 64
6, 124340, Note_off_c, 9, 53, 64
6, 124340, Note_off_c, 9, 44, 64
6, 124340, Note_off_c, 9, 82, 64
6, 124340, Note_off_c, 9, 63, 64
6, 124480, Note_on_c, 9, 42, 48
6, 124480, Note_on_c, 9, 82, 48
6, 124481, Note_off_c, 9, 82, 64
6, 124481, Note_off_c, 9, 42, 64
6, 124640, Note_on_c, 9, 63, 101
6, 124640, Note_on_c, 9, 69, 59
6, 124640, Note_on_c, 9, 53, 99
6, 124641, Note_off_c, 9, 53, 64
6, 124641, Note_off_c, 9, 69, 64
6, 124641, Note_off_c, 9, 63, 64
6, 124800, Note_on_c, 9, 35, 100
6, 124800, Note_on_c, 9, 82, 76
6, 124800, Note_on_c, 9, 53, 99
6, 124801, Note_off_c, 9, 53, 64
6, 124801, Note_off_c, 9, 82, 64
6, 124801, Note_off_c, 9, 35, 64
6, 124960, Note_on_c, 9, 42, 43
6, 124960, Note_on_c, 9, 82, 43
6, 124961, Note_off_c, 9, 82, 64
6, 124961, Note_off_c, 9, 42, 64
6, 125120, Note_on_c, 9, 69, 58
6, 125121, Note_off_c, 9, 69, 64
6, 125280, Note_on_c, 9, 82, 85
6, 125280, Note_on_c, 9, 62, 75
6, 125280, Note_on_c, 9, 44, 94
6, 125280, Note_on_c, 9, 53, 124
6, 125280, Note_on_c, 9, 40, 86
6, 125300, Note_off_c, 9, 40, 64
6, 125300, Note_off_c, 9, 53, 64
6, 125300, Note_off_c, 9, 44, 64
6, 125300, Note_off_c, 9, 62, 64
6, 125300, Note_off_c, 9, 82, 64
6, 125440, Note_on_c, 9, 42, 43
6, 125440, Note_on_c, 9, 82, 43
6, 125441, Note_off_c, 9, 82, 64
6, 125441, Note_off_c, 9, 42, 64
6, 125600, Note_on_c, 9, 35, 93
6, 125600, Note_on_c, 9, 69, 52
6, 125601, Note_off_c, 9, 69, 64
6, 125601, Note_off_c, 9, 35, 64
6, 125760, Note_on_c, 9, 35, 98
6, 125760, Note_on_c, 9, 82, 76
6, 125760, Note_on_c, 9, 53, 106
6, 125761, Note_off_c, 9, 53, 64
6, 125761, Note_off_c, 9, 82, 64
6, 125761, Note_off_c, 9, 35, 64
6, 125920, Note_on_c, 9, 42, 56
6, 125920, Note_on_c, 9, 82, 56
6, 125921, Note_off_c, 9, 82, 64
6, 125921, Note_off_c, 9, 42, 64
6, 126080, Note_on_c, 9, 69, 56
6, 126080, Note_on_c, 9, 62, 68
6, 126081, Note_off_c, 9, 62, 64
6, 126081, Note_off_c, 9, 69, 64
6, 126240, Note_on_c, 9, 82, 85
6, 126240, Note_on_c, 9, 64, 72
6, 126240, Note_on_c, 9, 44, 94
6, 126240, Note_on_c, 9, 53, 101
6, 126240, Note_on_c, 9, 40, 89
6, 126260, Note_off_c, 9, 40, 64
6, 126260, Note_off_c, 9, 53, 64
6, 126260, Note_off_c, 9, 44, 64
6, 126260, Note_off_c, 9, 64, 64
6, 126260, Note_off_c, 9, 82, 64
6, 126400, Note_on_c, 9, 42, 48
6, 126400, Note_on_c, 9, 82, 48
6, 126401, Note_off_c, 9, 82, 64
6, 126401, Note_off_c, 9, 42, 64
6, 126560, Note_on_c, 9, 69, 59
6, 126560, Note_on_c, 9, 64, 101
6, 126560, Note_on_c, 9, 53, 99
6, 126561, Note_off_c, 9, 53, 64
6, 126561, Note_off_c, 9, 64, 64
6, 126561, Note_off_c, 9, 69, 64
6, 126720, Note_on_c, 9, 35, 113
6, 126720, Note_on_c, 9, 51, 94
6, 126720, Note_on_c, 9, 82, 56
6, 126740, Note_off_c, 9, 82, 64
6, 126740, Note_off_c, 9, 51, 64
6, 126740, Note_off_c, 9, 35, 64
6, 126880, Note_on_c, 9, 82, 40
6, 126881, Note_off_c, 9, 82, 64
6, 127040, Note_on_c, 9, 69, 58
6, 127041, Note_off_c, 9, 69, 64
6, 127200, Note_on_c, 9, 51, 102
6, 127200, Note_on_c, 9, 82, 56
6, 127200, Note_on_c, 9, 44, 93
6, 127200, Note_on_c, 9, 38, 87
6, 127220, Note_off_c, 9, 38, 64
6, 127220, Note_off_c, 9, 44, 64
6, 127220, Note_off_c, 9, 82, 64
6, 127220, Note_off_c, 9, 51, 64
6, 127360, Note_on_c, 9, 82, 40
6, 127361, Note_off_c, 9, 82, 64
6, 127520, Note_on_c, 9, 35, 99
6, 127520, Note_on_c, 9, 69, 52
6, 127521, Note_off_c, 9, 69, 64
6, 127521, Note_off_c, 9, 35, 64
6, 127680, Note_on_c, 9, 35, 105
6, 127680, Note_on_c, 9, 51, 89
6, 127680, Note_on_c, 9, 82, 67
6, 127681, Note_off_c, 9, 51, 64
6, 127681, Note_off_c, 9, 35, 64
6, 127700, Note_off_c, 9, 82, 64
6, 127840, Note_on_c, 9, 82, 41
6, 127841, Note_off_c, 9, 82, 64
6, 128000, Note_on_c, 9, 69, 59
6, 128001, Note_off_c, 9, 69, 64
6, 128160, Note_on_c, 9, 51, 90
6, 128160, Note_on_c, 9, 82, 76
6, 128160, Note_on_c, 9, 44, 92
6, 128160, Note_on_c, 9, 38, 90
6, 128180, Note_off_c, 9, 38, 64
6, 128180, Note_off_c, 9, 44, 64
6, 128180, Note_off_c, 9, 82, 64
6, 128180, Note_off_c, 9, 51, 64
6, 128320, Note_on_c, 9, 82, 41
6, 128321, Note_off_c, 9, 82, 64
6, 128480, Note_on_c, 9, 51, 86
6, 128480, Note_on_c, 9, 69, 56
6, 128481, Note_off_c, 9, 69, 64
6, 128481, Note_off_c, 9, 51, 64
6, 128640, Note_on_c, 9, 35, 104
6, 128640, Note_on_c, 9, 51, 90
6, 128640, Note_on_c, 9, 82, 76
6, 128641, Note_off_c, 9, 82, 64
6, 128641, Note_off_c, 9, 51, 64
6, 128641, Note_off_c, 9, 35, 64
6, 128800, Note_on_c, 9, 82, 44
6, 128801, Note_off_c, 9, 82, 64
6, 128960, Note_on_c, 9, 69, 59
6, 128961, Note_off_c, 9, 69, 64
6, 129120, Note_on_c, 9, 51, 113
6, 129120, Note_on_c, 9, 82, 85
6, 129120, Note_on_c, 9, 44, 90
6, 129120, Note_on_c, 9, 38, 93
6, 129140, Note_off_c, 9, 38, 64
6, 129140, Note_off_c, 9, 44, 64
6, 129140, Note_off_c, 9, 82, 64
6, 129140, Note_off_c, 9, 51, 64
6, 129280, Note_on_c, 9, 82, 44
6, 129281, Note_off_c, 9, 82, 64
6, 129440, Note_on_c, 9, 35, 102
6, 129440, Note_on_c, 9, 51, 85
6, 129440, Note_on_c, 9, 69, 60
6, 129441, Note_off_c, 9, 69, 64
6, 129441, Note_off_c, 9, 51, 64
6, 129441, Note_off_c, 9, 35, 64
6, 129600, Note_on_c, 9, 35, 110
6, 129600, Note_on_c, 9, 51, 87
6, 129600, Note_on_c, 9, 82, 76
6, 129601, Note_off_c, 9, 82, 64
6, 129601, Note_off_c, 9, 51, 64
6, 129601, Note_off_c, 9, 35, 64
6, 129760, Note_on_c, 9, 82, 43
6, 129761, Note_off_c, 9, 82, 64
6, 129920, Note_on_c, 9, 69, 54
6, 129921, Note_off_c, 9, 69, 64
6, 130080, Note_on_c, 9, 51, 90
6, 130080, Note_on_c, 9, 82, 76
6, 130080, Note_on_c, 9, 44, 92
6, 130080, Note_on_c, 9, 38, 90
6, 130100, Note_off_c, 9, 38, 64
6, 130100, Note_off_c, 9, 44, 64
6, 130100, Note_off_c, 9, 82, 64
6, 130100, Note_off_c, 9, 51, 64
6, 130240, Note_on_c, 9, 82, 44
6, 130241, Note_off_c, 9, 82, 64
6, 130400, Note_on_c, 9, 51, 90
6, 130400, Note_on_c, 9, 69, 54
6, 130401, Note_off_c, 9, 69, 64
6, 130401, Note_off_c, 9, 51, 64
6, 130560, Note_on_c, 9, 35, 102
6, 130560, Note_on_c, 9, 51, 89
6, 130560, Note_on_c, 9, 82, 67
6, 130561, Note_off_c, 9, 82, 64
6, 130561, Note_off_c, 9, 51, 64
6, 130561, Note_off_c, 9, 35, 64
6, 130720, Note_on_c, 9, 82, 41
6, 130721, Note_off_c, 9, 82, 64
6, 130880, Note_on_c, 9, 69, 54
6, 130881, Note_off_c, 9, 69, 64
6, 131040, Note_on_c, 9, 51, 94
6, 131040, Note_on_c, 9, 82, 76
6, 131040, Note_on_c, 9, 44, 93
6, 131040, Note_on_c, 9, 38, 89
6, 131060, Note_off_c, 9, 38, 64
6, 131060, Note_off_c, 9, 44, 64
6, 131060, Note_off_c, 9, 82, 64
6, 131060, Note_off_c, 9, 51, 64
6, 131200, Note_on_c, 9, 82, 39
6, 131201, Note_off_c, 9, 82, 64
6, 131360, Note_on_c, 9, 35, 102
6, 131360, Note_on_c, 9, 51, 86
6, 131360, Note_on_c, 9, 69, 56
6, 131361, Note_off_c, 9, 69, 64
6, 131361, Note_off_c, 9, 51, 64
6, 131361, Note_off_c, 9, 35, 64
6, 131520, Note_on_c, 9, 35, 107
6, 131520, Note_on_c, 9, 51, 87
6, 131520, Note_on_c, 9, 82, 85
6, 131521, Note_off_c, 9, 82, 64
6, 131521, Note_off_c, 9, 51, 64
6, 131521, Note_off_c, 9, 35, 64
6, 131680, Note_on_c, 9, 82, 40
6, 131681, Note_off_c, 9, 82, 64
6, 131840, Note_on_c, 9, 69, 58
6, 131841, Note_off_c, 9, 69, 64
6, 132000, Note_on_c, 9, 51, 102
6, 132000, Note_on_c, 9, 82, 76
6, 132000, Note_on_c, 9, 44, 95
6, 132000, Note_on_c, 9, 38, 95
6, 132020, Note_off_c, 9, 38, 64
6, 132020, Note_off_c, 9, 44, 64
6, 132020, Note_off_c, 9, 82, 64
6, 132020, Note_off_c, 9, 51, 64
6, 132160, Note_on_c, 9, 82, 41
6, 132161, Note_off_c, 9, 82, 64
6, 132320, Note_on_c, 9, 35, 95
6, 132320, Note_on_c, 9, 51, 85
6, 132320, Note_on_c, 9, 69, 58
6, 132321, Note_off_c, 9, 69, 64
6, 132321, Note_off_c, 9, 51, 64
6, 132321, Note_off_c, 9, 35, 64
6, 132480, Note_on_c, 9, 35, 102
6, 132480, Note_on_c, 9, 51, 87
6, 132480, Note_on_c, 9, 82, 76
6, 132481, Note_off_c, 9, 82, 64
6, 132481, Note_off_c, 9, 51, 64
6, 132481, Note_off_c, 9, 35, 64
6, 132640, Note_on_c, 9, 82, 43
6, 132641, Note_off_c, 9, 82, 64
6, 132800, Note_on_c, 9, 69, 58
6, 132801, Note_off_c, 9, 69, 64
6, 132960, Note_on_c, 9, 51, 90
6, 132960, Note_on_c, 9, 82, 85
6, 132960, Note_on_c, 9, 44, 95
6, 132960, Note_on_c, 9, 38, 97
6, 132980, Note_off_c, 9, 38, 64
6, 132980, Note_off_c, 9, 44, 64
6, 132980, Note_off_c, 9, 82, 64
6, 132980, Note_off_c, 9, 51, 64
6, 133120, Note_on_c, 9, 82, 43
6, 133121, Note_off_c, 9, 82, 64
6, 133280, Note_on_c, 9, 35, 92
6, 133280, Note_on_c, 9, 69, 52
6, 133281, Note_off_c, 9, 69, 64
6, 133281, Note_off_c, 9, 35, 64
6, 133440, Note_on_c, 9, 35, 107
6, 133440, Note_on_c, 9, 51, 87
6, 133440, Note_on_c, 9, 82, 76
6, 133441, Note_off_c, 9, 82, 64
6, 133441, Note_off_c, 9, 51, 64
6, 133441, Note_off_c, 9, 35, 64
6, 133600, Note_on_c, 9, 82, 56
6, 133601, Note_off_c, 9, 82, 64
6, 133760, Note_on_c, 9, 51, 89
6, 133760, Note_on_c, 9, 69, 56
6, 133761, Note_off_c, 9, 69, 64
6, 133761, Note_off_c, 9, 51, 64
6, 133920, Note_on_c, 9, 51, 89
6, 133920, Note_on_c, 9, 82, 85
6, 133920, Note_on_c, 9, 44, 92
6, 133920, Note_on_c, 9, 38, 94
6, 133940, Note_off_c, 9, 38, 64
6, 133940, Note_off_c, 9, 44, 64
6, 133940, Note_off_c, 9, 82, 64
6, 133940, Note_off_c, 9, 51, 64
6, 134080, Note_on_c, 9, 82, 48
6, 134081, Note_off_c, 9, 82, 64
6, 134240, Note_on_c, 9, 35, 90
6, 134240, Note_on_c, 9, 51, 84
6, 134240, Note_on_c, 9, 69, 59
6, 134241, Note_off_c, 9, 69, 64
6, 134241, Note_off_c, 9, 51, 64
6, 134241, Note_off_c, 9, 35, 64
6, 134400, Note_on_c, 9, 35, 113
6, 134400, Note_on_c, 9, 51, 94
6, 134400, Note_on_c, 9, 82, 56
6, 134401, Note_off_c, 9, 51, 64
6, 134401, Note_off_c, 9, 35, 64
6, 134420, Note_off_c, 9, 82, 64
6, 134560, Note_on_c, 9, 82, 40
6, 134561, Note_off_c, 9, 82, 64
6, 134720, Note_on_c, 9, 69, 58
6, 134721, Note_off_c, 9, 69, 64
6, 134880, Note_on_c, 9, 51, 102
6, 134880, Note_on_c, 9, 82, 56
6, 134880, Note_on_c, 9, 44, 93
6, 134880, Note_on_c, 9, 38, 87
6, 134900, Note_off_c, 9, 38, 64
6, 134900, Note_off_c, 9, 44, 64
6, 134900, Note_off_c, 9, 82, 64
6, 134900, Note_off_c, 9, 51, 64
6, 135040, Note_on_c, 9, 82, 40
6, 135041, Note_off_c, 9, 82, 64
6, 135200, Note_on_c, 9, 35, 99
6, 135200, Note_on_c, 9, 69, 52
6, 135201, Note_off_c, 9, 69, 64
6, 135201, Note_off_c, 9, 35, 64
6, 135360, Note_on_c, 9, 35, 105
6, 135360, Note_on_c, 9, 51, 89
6, 135360, Note_on_c, 9, 82, 67
6, 135361, Note_off_c, 9, 82, 64
6, 135361, Note_off_c, 9, 51, 64
6, 135361, Note_off_c, 9, 35, 64
6, 135520, Note_on_c, 9, 82, 41
6, 135521, Note_off_c, 9, 82, 64
6, 135680, Note_on_c, 9, 69, 59
6, 135681, Note_off_c, 9, 69, 64
6, 135840, Note_on_c, 9, 51, 90
6, 135840, Note_on_c, 9, 82, 76
6, 135840, Note_on_c, 9, 44, 92
6, 135840, Note_on_c, 9, 38, 90
6, 135860, Note_off_c, 9, 38, 64
6, 135860, Note_off_c, 9, 44, 64
6, 135860, Note_off_c, 9, 82, 64
6, 135860, Note_off_c, 9, 51, 64
6, 136000, Note_on_c, 9, 82, 41
6, 136001, Note_off_c, 9, 82, 64
6, 136160, Note_on_c, 9, 51, 86
6, 136160, Note_on_c, 9, 69, 56
6, 136161, Note_off_c, 9, 69, 64
6, 136161, Note_off_c, 9, 51, 64
6, 136320, Note_on_c, 9, 35, 104
6, 136320, Note_on_c, 9, 51, 90
6, 136320, Note_on_c, 9, 82, 76
6, 136321, Note_off_c, 9, 82, 64
6, 136321, Note_off_c, 9, 51, 64
6, 136321, Note_off_c, 9, 35, 64
6, 136480, Note_on_c, 9, 82, 44
6, 136481, Note_off_c, 9, 82, 64
6, 136640, Note_on_c, 9, 69, 59
6, 136641, Note_off_c, 9, 69, 64
6, 136800, Note_on_c, 9, 51, 113
6, 136800, Note_on_c, 9, 82, 85
6, 136800, Note_on_c, 9, 44, 90
6, 136800, Note_on_c, 9, 38, 93
6, 136820, Note_off_c, 9, 38, 64
6, 136820, Note_off_c, 9, 44, 64
6, 136820, Note_off_c, 9, 82, 64
6, 136820, Note_off_c, 9, 51, 64
6, 136960, Note_on_c, 9, 82, 44
6, 136961, Note_off_c, 9, 82, 64
6, 137120, Note_on_c, 9, 35, 102
6, 137120, Note_on_c, 9, 51, 85
6, 137120, Note_on_c, 9, 69, 60
6, 137121, Note_off_c, 9, 69, 64
6, 137121, Note_off_c, 9, 51, 64
6, 137121, Note_off_c, 9, 35, 64
6, 137280, Note_on_c, 9, 35, 110
6, 137280, Note_on_c, 9, 51, 87
6, 137280, Note_on_c, 9, 82, 76
6, 137281, Note_off_c, 9, 82, 64
6, 137281, Note_off_c, 9, 51, 64
6, 137281, Note_off_c, 9, 35, 64
6, 137440, Note_on_c, 9, 82, 43
6, 137441, Note_off_c, 9, 82, 64
6, 137600, Note_on_c, 9, 69, 54
6, 137601, Note_off_c, 9, 69, 64
6, 137760, Note_on_c, 9, 51, 90
6, 137760, Note_on_c, 9, 82, 76
6, 137760, Note_on_c, 9, 44, 92
6, 137760, Note_on_c, 9, 38, 90
6, 137780, Note_off_c, 9, 38, 64
6, 137780, Note_off_c, 9, 44, 64
6, 137780, Note_off_c, 9, 82, 64
6, 137780, Note_off_c, 9, 51, 64
6, 137920, Note_on_c, 9, 82, 44
6, 137921, Note_off_c, 9, 82, 64
6, 138080, Note_on_c, 9, 51, 90
6, 138080, Note_on_c, 9, 69, 54
6, 138081, Note_off_c, 9, 69, 64
6, 138081, Note_off_c, 9, 51, 64
6, 138240, Note_on_c, 9, 35, 102
6, 138240, Note_on_c, 9, 51, 89
6, 138240, Note_on_c, 9, 82, 67
6, 138241, Note_off_c, 9, 82, 64
6, 138241, Note_off_c, 9, 51, 64
6, 138241, Note_off_c, 9, 35, 64
6, 138400, Note_on_c, 9, 82, 41
6, 138401, Note_off_c, 9, 82, 64
6, 138560, Note_on_c, 9, 69, 54
6, 138561, Note_off_c, 9, 69, 64
6, 138720, Note_on_c, 9, 51, 94
6, 138720, Note_on_c, 9, 82, 76
6, 138720, Note_on_c, 9, 44, 93
6, 138720, Note_on_c, 9, 38, 89
6, 138740, Note_off_c, 9, 38, 64
6, 138740, Note_off_c, 9, 44, 64
6, 138740, Note_off_c, 9, 82, 64
6, 138740, Note_off_c, 9, 51, 64
6, 138880, Note_on_c, 9, 82, 39
6, 138881, Note_off_c, 9, 82, 64
6, 139040, Note_on_c, 9, 35, 102
6, 139040, Note_on_c, 9, 51, 86
6, 139040, Note_on_c, 9, 69, 56
6, 139041, Note_off_c, 9, 69, 64
6, 139041, Note_off_c, 9, 51, 64
6, 139041, Note_off_c, 9, 35, 64
6, 139200, Note_on_c, 9, 35, 107
6, 139200, Note_on_c, 9, 51, 87
6, 139200, Note_on_c, 9, 82, 85
6, 139201, Note_off_c, 9, 82, 64
6, 139201, Note_off_c, 9, 51, 64
6, 139201, Note_off_c, 9, 35, 64
6, 139360, Note_on_c, 9, 82, 40
6, 139361, Note_off_c, 9, 82, 64
6, 139520, Note_on_c, 9, 69, 58
6, 139521, Note_off_c, 9, 69, 64
6, 139680, Note_on_c, 9, 51, 102
6, 139680, Note_on_c, 9, 82, 76
6, 139680, Note_on_c, 9, 44, 95
6, 139680, Note_on_c, 9, 38, 95
6, 139700, Note_off_c, 9, 38, 64
6, 139700, Note_off_c, 9, 44, 64
6, 139700, Note_off_c, 9, 82, 64
6, 139700, Note_off_c, 9, 51, 64
6, 139840, Note_on_c, 9, 82, 41
6, 139841, Note_off_c, 9, 82, 64
6, 140000, Note_on_c, 9, 35, 95
6, 140000, Note_on_c, 9, 51, 85
6, 140000, Note_on_c, 9, 69, 58
6, 140001, Note_off_c, 9, 69, 64
6, 140001, Note_off_c, 9, 51, 64
6, 140001, Note_off_c, 9, 35, 64
6, 140160, Note_on_c, 9, 35, 104
6, 140160, Note_on_c, 9, 51, 90
6, 140160, Note_on_c, 9, 82, 76
6, 140161, Note_off_c, 9, 82, 64
6, 140161, Note_off_c, 9, 51, 64
6, 140161, Note_off_c, 9, 35, 64
6, 140320, Note_on_c, 9, 82, 44
6, 140321, Note_off_c, 9, 82, 64
6, 140480, Note_on_c, 9, 69, 59
6, 140481, Note_off_c, 9, 69, 64
6, 140640, Note_on_c, 9, 51, 113
6, 140640, Note_on_c, 9, 82, 85
6, 140640, Note_on_c, 9, 44, 90
6, 140640, Note_on_c, 9, 38, 93
6, 140641, Note_off_c, 9, 44, 64
6, 140641, Note_off_c, 9, 82, 64
6, 140641, Note_off_c, 9, 51, 64
6, 140660, Note_off_c, 9, 38, 64
6, 140800, Note_on_c, 9, 82, 44
6, 140801, Note_off_c, 9, 82, 64
6, 140960, Note_on_c, 9, 35, 102
6, 140960, Note_on_c, 9, 51, 85
6, 140960, Note_on_c, 9, 69, 60
6, 140961, Note_off_c, 9, 69, 64
6, 140961, Note_off_c, 9, 51, 64
6, 140961, Note_off_c, 9, 35, 64
6, 141120, Note_on_c, 9, 35, 110
6, 141120, Note_on_c, 9, 51, 87
6, 141120, Note_on_c, 9, 82, 76
6, 141121, Note_off_c, 9, 82, 64
6, 141121, Note_off_c, 9, 51, 64
6, 141121, Note_off_c, 9, 35, 64
6, 141280, Note_on_c, 9, 82, 43
6, 141281, Note_off_c, 9, 82, 64
6, 141440, Note_on_c, 9, 69, 54
6, 141441, Note_off_c, 9, 69, 64
6, 141600, Note_on_c, 9, 51, 90
6, 141600, Note_on_c, 9, 82, 76
6, 141600, Note_on_c, 9, 44, 92
6, 141600, Note_on_c, 9, 38, 90
6, 141620, Note_off_c, 9, 38, 64
6, 141620, Note_off_c, 9, 44, 64
6, 141620, Note_off_c, 9, 82, 64
6, 141620, Note_off_c, 9, 51, 64
6, 141760, Note_on_c, 9, 82, 44
6, 141761, Note_off_c, 9, 82, 64
6, 141920, Note_on_c, 9, 51, 90
6, 141920, Note_on_c, 9, 69, 54
6, 141921, Note_off_c, 9, 69, 64
6, 141921, Note_off_c, 9, 51, 64
6, 142080, Note_on_c, 9, 35, 102
6, 142080, Note_on_c, 9, 51, 89
6, 142080, Note_on_c, 9, 82, 67
6, 142081, Note_off_c, 9, 82, 64
6, 142081, Note_off_c, 9, 51, 64
6, 142081, Note_off_c, 9, 35, 64
6, 142240, Note_on_c, 9, 82, 41
6, 142241, Note_off_c, 9, 82, 64
6, 142400, Note_on_c, 9, 69, 54
6, 142401, Note_off_c, 9, 69, 64
6, 142560, Note_on_c, 9, 51, 94
6, 142560, Note_on_c, 9, 82, 76
6, 142560, Note_on_c, 9, 44, 93
6, 142560, Note_on_c, 9, 38, 89
6, 142580, Note_off_c, 9, 38, 64
6, 142580, Note_off_c, 9, 44, 64
6, 142580, Note_off_c, 9, 82, 64
6, 142580, Note_off_c, 9, 51, 64
6, 142720, Note_on_c, 9, 82, 39
6, 142721, Note_off_c, 9, 82, 64
6, 142880, Note_on_c, 9, 35, 102
6, 142880, Note_on_c, 9, 51, 86
6, 142880, Note_on_c, 9, 69, 56
6, 142881, Note_off_c, 9, 69, 64
6, 142881, Note_off_c, 9, 51, 64
6, 142881, Note_off_c, 9, 35, 64
6, 143040, Note_on_c, 9, 35, 107
6, 143040, Note_on_c, 9, 51, 87
6, 143040, Note_on_c, 9, 82, 85
6, 143041, Note_off_c, 9, 82, 64
6, 143041, Note_off_c, 9, 51, 64
6, 143041, Note_off_c, 9, 35, 64
6, 143200, Note_on_c, 9, 82, 40
6, 143201, Note_off_c, 9, 82, 64
6, 143360, Note_on_c, 9, 69, 58
6, 143361, Note_off_c, 9, 69, 64
6, 143520, Note_on_c, 9, 51, 102
6, 143520, Note_on_c, 9, 82, 76
6, 143520, Note_on_c, 9, 44, 95
6, 143520, Note_on_c, 9, 38, 95
6, 143540, Note_off_c, 9, 38, 64
6, 143540, Note_off_c, 9, 44, 64
6, 143540, Note_off_c, 9, 82, 64
6, 143540, Note_off_c, 9, 51, 64
6, 143680, Note_on_c, 9, 82, 41
6, 143681, Note_off_c, 9, 82, 64
6, 143840, Note_on_c, 9, 35, 95
6, 143840, Note_on_c, 9, 51, 85
6, 143840, Note_on_c, 9, 69, 58
6, 143841, Note_off_c, 9, 69, 64
6, 143841, Note_off_c, 9, 51, 64
6, 143841, Note_off_c, 9, 35, 64
6, 144000, Note_on_c, 9, 35, 102
6, 144000, Note_on_c, 9, 51, 87
6, 144000, Note_on_c, 9, 82, 76
6, 144001, Note_off_c, 9, 82, 64
6, 144001, Note_off_c, 9, 51, 64
6, 144001, Note_off_c, 9, 35, 64
6, 144160, Note_on_c, 9, 82, 43
6, 144161, Note_off_c, 9, 82, 64
6, 144320, Note_on_c, 9, 69, 58
6, 144321, Note_off_c, 9, 69, 64
6, 144480, Note_on_c, 9, 51, 90
6, 144480, Note_on_c, 9, 82, 85
6, 144480, Note_on_c, 9, 44, 95
6, 144480, Note_on_c, 9, 38, 97
6, 144500, Note_off_c, 9, 38, 64
6, 144500, Note_off_c, 9, 44, 64
6, 144500, Note_off_c, 9, 82, 64
6, 144500, Note_off_c, 9, 51, 64
6, 144640, Note_on_c, 9, 82, 43
6, 144641, Note_off_c, 9, 82, 64
6, 144800, Note_on_c, 9, 35, 92
6, 144800, Note_on_c, 9, 69, 52
6, 144801, Note_off_c, 9, 69, 64
6, 144801, Note_off_c, 9, 35, 64
6, 144960, Note_on_c, 9, 35, 107
6, 144960, Note_on_c, 9, 51, 87
6, 144960, Note_on_c, 9, 82, 76
6, 144961, Note_off_c, 9, 82, 64
6, 144961, Note_off_c, 9, 51, 64
6, 144961, Note_off_c, 9, 35, 64
6, 145120, Note_on_c, 9, 82, 56
6, 145121, Note_off_c, 9, 82, 64
6, 145280, Note_on_c, 9, 51, 89
6, 145280, Note_on_c, 9, 69, 56
6, 145281, Note_off_c, 9, 69, 64
6, 145281, Note_off_c, 9, 51, 64
6, 145440, Note_on_c, 9, 51, 89
6, 145440, Note_on_c, 9, 82, 85
6, 145440, Note_on_c, 9, 44, 92
6, 145440, Note_on_c, 9, 38, 94
6, 145460, Note_off_c, 9, 38, 64
6, 145460, Note_off_c, 9, 44, 64
6, 145460, Note_off_c, 9, 82, 64
6, 145460, Note_off_c, 9, 51, 64
6, 145600, Note_on_c, 9, 82, 48
6, 145601, Note_off_c, 9, 82, 64
6, 145760, Note_on_c, 9, 35, 90
6, 145760, Note_on_c, 9, 51, 84
6, 145760, Note_on_c, 9, 69, 59
6, 145761, Note_off_c, 9, 69, 64
6, 145761, Note_off_c, 9, 51, 64
6, 145761, Note_off_c, 9, 35, 64
6, 145920, Note_on_c, 9, 35, 113
6, 145920, Note_on_c, 9, 51, 94
6, 145920, Note_on_c, 9, 82, 56
6, 145921, Note_off_c, 9, 51, 64
6, 145921, Note_off_c, 9, 35, 64
6, 145940, Note_off_c, 9, 82, 64
6, 146080, Note_on_c, 9, 82, 40
6, 146081, Note_off_c, 9, 82, 64
6, 146240, Note_on_c, 9, 69, 58
6, 146241, Note_off_c, 9, 69, 64
6, 146400, Note_on_c, 9, 51, 102
6, 146400, Note_on_c, 9, 82, 56
6, 146400, Note_on_c, 9, 44, 93
6, 146400, Note_on_c, 9, 38, 87
6, 146401, Note_off_c, 9, 82, 64
6, 146401, Note_off_c, 9, 51, 64
6, 146420, Note_off_c, 9, 44, 64
6, 146420, Note_off_c, 9, 38, 64
6, 146560, Note_on_c, 9, 82, 40
6, 146561, Note_off_c, 9, 82, 64
6, 146720, Note_on_c, 9, 35, 99
6, 146720, Note_on_c, 9, 69, 52
6, 146721, Note_off_c, 9, 69, 64
6, 146721, Note_off_c, 9, 35, 64
6, 146880, Note_on_c, 9, 35, 105
6, 146880, Note_on_c, 9, 51, 89
6, 146880, Note_on_c, 9, 82, 67
6, 146900, Note_off_c, 9, 82, 64
6, 146900, Note_off_c, 9, 51, 64
6, 146900, Note_off_c, 9, 35, 64
6, 147040, Note_on_c, 9, 82, 41
6, 147041, Note_off_c, 9, 82, 64
6, 147200, Note_on_c, 9, 69, 59
6, 147201, Note_off_c, 9, 69, 64
6, 147360, Note_on_c, 9, 51, 90
6, 147360, Note_on_c, 9, 82, 76
6, 147360, Note_on_c, 9, 44, 92
6, 147360, Note_on_c, 9, 38, 90
6, 147380, Note_off_c, 9, 38, 64
6, 147380, Note_off_c, 9, 44, 64
6, 147380, Note_off_c, 9, 82, 64
6, 147380, Note_off_c, 9, 51, 64
6, 147520, Note_on_c, 9, 82, 41
6, 147521, Note_off_c, 9, 82, 64
6, 147680, Note_on_c, 9, 51, 86
6, 147680, Note_on_c, 9, 69, 56
6, 147681, Note_off_c, 9, 69, 64
6, 147681, Note_off_c, 9, 51, 64
6, 147840, Note_on_c, 9, 35, 104
6, 147840, Note_on_c, 9, 51, 90
6, 147840, Note_on_c, 9, 82, 76
6, 147841, Note_off_c, 9, 82, 64
6, 147841, Note_off_c, 9, 51, 64
6, 147841, Note_off_c, 9, 35, 64
6, 148000, Note_on_c, 9, 82, 44
6, 148001, Note_off_c, 9, 82, 64
6, 148160, Note_on_c, 9, 69, 59
6, 148161, Note_off_c, 9, 69, 64
6, 148320, Note_on_c, 9, 51, 113
6, 148320, Note_on_c, 9, 82, 85
6, 148320, Note_on_c, 9, 44, 90
6, 148320, Note_on_c, 9, 38, 93
6, 148340, Note_off_c, 9, 38, 64
6, 148340, Note_off_c, 9, 44, 64
6, 148340, Note_off_c, 9, 82, 64
6, 148340, Note_off_c, 9, 51, 64
6, 148480, Note_on_c, 9, 82, 44
6, 148481, Note_off_c, 9, 82, 64
6, 148640, Note_on_c, 9, 35, 102
6, 148640, Note_on_c, 9, 51, 85
6, 148640, Note_on_c, 9, 69, 60
6, 148641, Note_off_c, 9, 69, 64
6, 148641, Note_off_c, 9, 51, 64
6, 148641, Note_off_c, 9, 35, 64
6, 148800, Note_on_c, 9, 35, 110
6, 148800, Note_on_c, 9, 51, 87
6, 148800, Note_on_c, 9, 82, 76
6, 148801, Note_off_c, 9, 35, 64
6, 148820, Note_off_c, 9, 51, 64
6, 148820, Note_off_c, 9, 82, 64
6, 148960, Note_on_c, 9, 82, 43
6, 148961, Note_off_c, 9, 82, 64
6, 149120, Note_on_c, 9, 69, 54
6, 149121, Note_off_c, 9, 69, 64
6, 149280, Note_on_c, 9, 51, 90
6, 149280, Note_on_c, 9, 82, 76
6, 149280, Note_on_c, 9, 44, 92
6, 149280, Note_on_c, 9, 38, 90
6, 149300, Note_off_c, 9, 38, 64
6, 149300, Note_off_c, 9, 44, 64
6, 149300, Note_off_c, 9, 82, 64
6, 149300, Note_off_c, 9, 51, 64
6, 149440, Note_on_c, 9, 82, 44
6, 149441, Note_off_c, 9, 82, 64
6, 149600, Note_on_c, 9, 51, 90
6, 149600, Note_on_c, 9, 69, 54
6, 149601, Note_off_c, 9, 69, 64
6, 149601, Note_off_c, 9, 51, 64
6, 149760, Note_on_c, 9, 35, 102
6, 149760, Note_on_c, 9, 51, 89
6, 149760, Note_on_c, 9, 82, 67
6, 149761, Note_off_c, 9, 82, 64
6, 149761, Note_off_c, 9, 51, 64
6, 149761, Note_off_c, 9, 35, 64
6, 149920, Note_on_c, 9, 82, 41
6, 149921, Note_off_c, 9, 82, 64
6, 150080, Note_on_c, 9, 69, 54
6, 150081, Note_off_c, 9, 69, 64
6, 150240, Note_on_c, 9, 51, 94
6, 150240, Note_on_c, 9, 82, 76
6, 150240, Note_on_c, 9, 44, 93
6, 150240, Note_on_c, 9, 38, 89
6, 150260, Note_off_c, 9, 38, 64
6, 150260, Note_off_c, 9, 44, 64
6, 150260, Note_off_c, 9, 82, 64
6, 150260, Note_off_c, 9, 51, 64
6, 150400, Note_on_c, 9, 82, 39
6, 150401, Note_off_c, 9, 82, 64
6, 150560, Note_on_c, 9, 35, 102
6, 150560, Note_on_c, 9, 51, 86
6, 150560, Note_on_c, 9, 69, 56
6, 150561, Note_off_c, 9, 69, 64
6, 150561, Note_off_c, 9, 51, 64
6, 150561, Note_off_c, 9, 35, 64
6, 150720, Note_on_c, 9, 35, 107
6, 150720, Note_on_c, 9, 51, 87
6, 150720, Note_on_c, 9, 82, 85
6, 150721, Note_off_c, 9, 82, 64
6, 150721, Note_off_c, 9, 51, 64
6, 150721, Note_off_c, 9, 35, 64
6, 150880, Note_on_c, 9, 82, 40
6, 150881, Note_off_c, 9, 82, 64
6, 151040, Note_on_c, 9, 69, 58
6, 151041, Note_off_c, 9, 69, 64
6, 151200, Note_on_c, 9, 51, 102
6, 151200, Note_on_c, 9, 82, 76
6, 151200, Note_on_c, 9, 44, 95
6, 151200, Note_on_c, 9, 38, 95
6, 151220, Note_off_c, 9, 38, 64
6, 151220, Note_off_c, 9, 44, 64
6, 151220, Note_off_c, 9, 82, 64
6, 151220, Note_off_c, 9, 51, 64
6, 151360, Note_on_c, 9, 82, 41
6, 151361, Note_off_c, 9, 82, 64
6, 151520, Note_on_c, 9, 35, 95
6, 151520, Note_on_c, 9, 51, 85
6, 151520, Note_on_c, 9, 69, 58
6, 151521, Note_off_c, 9, 69, 64
6, 151521, Note_off_c, 9, 51, 64
6, 151521, Note_off_c, 9, 35, 64
6, 151680, Note_on_c, 9, 35, 102
6, 151680, Note_on_c, 9, 51, 87
6, 151680, Note_on_c, 9, 82, 76
6, 151700, Note_off_c, 9, 82, 64
6, 151700, Note_off_c, 9, 51, 64
6, 151700, Note_off_c, 9, 35, 64
6, 151840, Note_on_c, 9, 82, 43
6, 151841, Note_off_c, 9, 82, 64
6, 152000, Note_on_c, 9, 69, 58
6, 152001, Note_off_c, 9, 69, 64
6, 152160, Note_on_c, 9, 51, 90
6, 152160, Note_on_c, 9, 82, 85
6, 152160, Note_on_c, 9, 44, 95
6, 152160, Note_on_c, 9, 38, 97
6, 152161, Note_off_c, 9, 44, 64
6, 152161, Note_off_c, 9, 82, 64
6, 152161, Note_off_c, 9, 51, 64
6, 152180, Note_off_c, 9, 38, 64
6, 152320, Note_on_c, 9, 82, 43
6, 152321, Note_off_c, 9, 82, 64
6, 152480, Note_on_c, 9, 35, 92
6, 152480, Note_on_c, 9, 69, 52
6, 152481, Note_off_c, 9, 69, 64
6, 152481, Note_off_c, 9, 35, 64
6, 152640, Note_on_c, 9, 35, 107
6, 152640, Note_on_c, 9, 51, 87
6, 152640, Note_on_c, 9, 82, 76
6, 152641, Note_off_c, 9, 82, 64
6, 152641, Note_off_c, 9, 51, 64
6, 152641, Note_off_c, 9, 35, 64
6, 152800, Note_on_c, 9, 82, 56
6, 152801, Note_off_c, 9, 82, 64
6, 152960, Note_on_c, 9, 51, 89
6, 152960, Note_on_c, 9, 69, 56
6, 152961, Note_off_c, 9, 69, 64
6, 152961, Note_off_c, 9, 51, 64
6, 153120, Note_on_c, 9, 51, 89
6, 153120, Note_on_c, 9, 82, 85
6, 153120, Note_on_c, 9, 44, 92
6, 153120, Note_on_c, 9, 38, 94
6, 153140, Note_off_c, 9, 38, 64
6, 153140, Note_off_c, 9, 44, 64
6, 153140, Note_off_c, 9, 82, 64
6, 153140, Note_off_c, 9, 51, 64
6, 153280, Note_on_c, 9, 82, 48
6, 153281, Note_off_c, 9, 82, 64
6, 153440, Note_on_c, 9, 35, 90
6, 153440, Note_on_c, 9, 51, 84
6, 153440, Note_on_c, 9, 69, 59
6, 153441, Note_off_c, 9, 69, 64
6, 153441, Note_off_c, 9, 51, 64
6, 153441, Note_off_c, 9, 35, 64
6, 153600, Note_on_c, 9, 35, 113
6, 153600, Note_on_c, 9, 51, 94
6, 153600, Note_on_c, 9, 82, 56
6, 153601, Note_off_c, 9, 82, 64
6, 153601, Note_off_c, 9, 51, 64
6, 153601, Note_off_c, 9, 35, 64
6, 153760, Note_on_c, 9, 82, 40
6, 153761, Note_off_c, 9, 82, 64
6, 153920, Note_on_c, 9, 69, 58
6, 153921, Note_off_c, 9, 69, 64
6, 154080, Note_on_c, 9, 51, 102
6, 154080, Note_on_c, 9, 82, 56
6, 154080, Note_on_c, 9, 44, 93
6, 154080, Note_on_c, 9, 38, 87
6, 154100, Note_off_c, 9, 38, 64
6, 154100, Note_off_c, 9, 44, 64
6, 154100, Note_off_c, 9, 82, 64
6, 154100, Note_off_c, 9, 51, 64
6, 154240, Note_on_c, 9, 82, 40
6, 154241, Note_off_c, 9, 82, 64
6, 154400, Note_on_c, 9, 35, 99
6, 154400, Note_on_c, 9, 69, 52
6, 154401, Note_off_c, 9, 69, 64
6, 154401, Note_off_c, 9, 35, 64
6, 154560, Note_on_c, 9, 35, 105
6, 154560, Note_on_c, 9, 51, 89
6, 154560, Note_on_c, 9, 82, 67
6, 154561, Note_off_c, 9, 51, 64
6, 154561, Note_off_c, 9, 35, 64
6, 154580, Note_off_c, 9, 82, 64
6, 154720, Note_on_c, 9, 82, 41
6, 154721, Note_off_c, 9, 82, 64
6, 154880, Note_on_c, 9, 69, 59
6, 154881, Note_off_c, 9, 69, 64
6, 155040, Note_on_c, 9, 51, 90
6, 155040, Note_on_c, 9, 82, 76
6, 155040, Note_on_c, 9, 44, 92
6, 155040, Note_on_c, 9, 38, 90
6, 155060, Note_off_c, 9, 38, 64
6, 155060, Note_off_c, 9, 44, 64
6, 155060, Note_off_c, 9, 82, 64
6, 155060, Note_off_c, 9, 51, 64
6, 155200, Note_on_c, 9, 82, 41
6, 155201, Note_off_c, 9, 82, 64
6, 155360, Note_on_c, 9, 51, 86
6, 155360, Note_on_c, 9, 69, 56
6, 155361, Note_off_c, 9, 69, 64
6, 155361, Note_off_c, 9, 51, 64
6, 155520, Note_on_c, 9, 35, 104
6, 155520, Note_on_c, 9, 51, 90
6, 155520, Note_on_c, 9, 82, 76
6, 155521, Note_off_c, 9, 51, 64
6, 155521, Note_off_c, 9, 35, 64
6, 155540, Note_off_c, 9, 82, 64
6, 155680, Note_on_c, 9, 82, 44
6, 155681, Note_off_c, 9, 82, 64
6, 155840, Note_on_c, 9, 69, 59
6, 155841, Note_off_c, 9, 69, 64
6, 156000, Note_on_c, 9, 51, 113
6, 156000, Note_on_c, 9, 82, 85
6, 156000, Note_on_c, 9, 44, 90
6, 156000, Note_on_c, 9, 38, 93
6, 156001, Note_off_c, 9, 44, 64
6, 156001, Note_off_c, 9, 82, 64
6, 156001, Note_off_c, 9, 51, 64
6, 156020, Note_off_c, 9, 38, 64
6, 156160, Note_on_c, 9, 82, 44
6, 156161, Note_off_c, 9, 82, 64
6, 156320, Note_on_c, 9, 35, 102
6, 156320, Note_on_c, 9, 51, 85
6, 156320, Note_on_c, 9, 69, 60
6, 156321, Note_off_c, 9, 69, 64
6, 156321, Note_off_c, 9, 51, 64
6, 156321, Note_off_c, 9, 35, 64
6, 156480, Note_on_c, 9, 35, 110
6, 156480, Note_on_c, 9, 51, 87
6, 156480, Note_on_c, 9, 82, 76
6, 156481, Note_off_c, 9, 51, 64
6, 156481, Note_off_c, 9, 35, 64
6, 156500, Note_off_c, 9, 82, 64
6, 156640, Note_on_c, 9, 82, 43
6, 156641, Note_off_c, 9, 82, 64
6, 156800, Note_on_c, 9, 69, 54
6, 156801, Note_off_c, 9, 69, 64
6, 156960, Note_on_c, 9, 51, 90
6, 156960, Note_on_c, 9, 82, 76
6, 156960, Note_on_c, 9, 44, 92
6, 156960, Note_on_c, 9, 38, 90
6, 156980, Note_off_c, 9, 38, 64
6, 156980, Note_off_c, 9, 44, 64
6, 156980, Note_off_c, 9, 82, 64
6, 156980, Note_off_c, 9, 51, 64
6, 157120, Note_on_c, 9, 82, 44
6, 157121, Note_off_c, 9, 82, 64
6, 157280, Note_on_c, 9, 51, 90
6, 157280, Note_on_c, 9, 69, 54
6, 157281, Note_off_c, 9, 69, 64
6, 157281, Note_off_c, 9, 51, 64
6, 157440, Note_on_c, 9, 35, 102
6, 157440, Note_on_c, 9, 51, 89
6, 157440, Note_on_c, 9, 82, 67
6, 157441, Note_off_c, 9, 82, 64
6, 157441, Note_off_c, 9, 51, 64
6, 157441, Note_off_c, 9, 35, 64
6, 157600, Note_on_c, 9, 82, 41
6, 157601, Note_off_c, 9, 82, 64
6, 157760, Note_on_c, 9, 69, 54
6, 157761, Note_off_c, 9, 69, 64
6, 157920, Note_on_c, 9, 51, 94
6, 157920, Note_on_c, 9, 82, 76
6, 157920, Note_on_c, 9, 44, 93
6, 157920, Note_on_c, 9, 38, 89
6, 157940, Note_off_c, 9, 38, 64
6, 157940, Note_off_c, 9, 44, 64
6, 157940, Note_off_c, 9, 82, 64
6, 157940, Note_off_c, 9, 51, 64
6, 158080, Note_on_c, 9, 82, 39
6, 158081, Note_off_c, 9, 82, 64
6, 158240, Note_on_c, 9, 35, 102
6, 158240, Note_on_c, 9, 51, 86
6, 158240, Note_on_c, 9, 69, 56
6, 158241, Note_off_c, 9, 69, 64
6, 158241, Note_off_c, 9, 51, 64
6, 158241, Note_off_c, 9, 35, 64
6, 158400, Note_on_c, 9, 35, 107
6, 158400, Note_on_c, 9, 51, 87
6, 158400, Note_on_c, 9, 82, 85
6, 158401, Note_off_c, 9, 51, 64
6, 158401, Note_off_c, 9, 35, 64
6, 158420, Note_off_c, 9, 82, 64
6, 158560, Note_on_c, 9, 82, 40
6, 158561, Note_off_c, 9, 82, 64
6, 158720, Note_on_c, 9, 69, 58
6, 158721, Note_off_c, 9, 69, 64
6, 158880, Note_on_c, 9, 51, 102
6, 158880, Note_on_c, 9, 82, 76
6, 158880, Note_on_c, 9, 44, 95
6, 158880, Note_on_c, 9, 38, 95
6, 158900, Note_off_c, 9, 38, 64
6, 158900, Note_off_c, 9, 44, 64
6, 158900, Note_off_c, 9, 82, 64
6, 158900, Note_off_c, 9, 51, 64
6, 159040, Note_on_c, 9, 82, 41
6, 159041, Note_off_c, 9, 82, 64
6, 159200, Note_on_c, 9, 35, 95
6, 159200, Note_on_c, 9, 51, 85
6, 159200, Note_on_c, 9, 69, 58
6, 159201, Note_off_c, 9, 69, 64
6, 159201, Note_off_c, 9, 51, 64
6, 159201, Note_off_c, 9, 35, 64
6, 159360, Note_on_c, 9, 35, 102
6, 159360, Note_on_c, 9, 51, 87
6, 159360, Note_on_c, 9, 82, 76
6, 159361, Note_off_c, 9, 51, 64
6, 159361, Note_off_c, 9, 35, 64
6, 159380, Note_off_c, 9, 82, 64
6, 159520, Note_on_c, 9, 82, 43
6, 159521, Note_off_c, 9, 82, 64
6, 159680, Note_on_c, 9, 69, 58
6, 159681, Note_off_c, 9, 69, 64
6, 159840, Note_on_c, 9, 51, 90
6, 159840, Note_on_c, 9, 82, 85
6, 159840, Note_on_c, 9, 44, 95
6, 159840, Note_on_c, 9, 38, 97
6, 159860, Note_off_c, 9, 38, 64
6, 159860, Note_off_c, 9, 44, 64
6, 159860, Note_off_c, 9, 82, 64
6, 159860, Note_off_c, 9, 51, 64
6, 160000, Note_on_c, 9, 82, 43
6, 160001, Note_off_c, 9, 82, 64
6, 160160, Note_on_c, 9, 35, 92
6, 160160, Note_on_c, 9, 69, 52
6, 160161, Note_off_c, 9, 69, 64
6, 160161, Note_off_c, 9, 35, 64
6, 160320, Note_on_c, 9, 35, 107
6, 160320, Note_on_c, 9, 51, 87
6, 160320, Note_on_c, 9, 82, 76
6, 160321, Note_off_c, 9, 51, 64
6, 160321, Note_off_c, 9, 35, 64
6, 160340, Note_off_c, 9, 82, 64
6, 160480, Note_on_c, 9, 82, 56
6, 160481, Note_off_c, 9, 82, 64
6, 160640, Note_on_c, 9, 51, 89
6, 160640, Note_on_c, 9, 69, 56
6, 160641, Note_off_c, 9, 69, 64
6, 160641, Note_off_c, 9, 51, 64
6, 160800, Note_on_c, 9, 51, 89
6, 160800, Note_on_c, 9, 82, 85
6, 160800, Note_on_c, 9, 44, 92
6, 160800, Note_on_c, 9, 38, 94
6, 160820, Note_off_c, 9, 38, 64
6, 160820, Note_off_c, 9, 44, 64
6, 160820, Note_off_c, 9, 82, 64
6, 160820, Note_off_c, 9, 51, 64
6, 160960, Note_on_c, 9, 82, 48
6, 160961, Note_off_c, 9, 82, 64
6, 161120, Note_on_c, 9, 35, 90
6, 161120, Note_on_c, 9, 51, 84
6, 161120, Note_on_c, 9, 69, 59
6, 161121, Note_off_c, 9, 69, 64
6, 161121, Note_off_c, 9, 51, 64
6, 161121, Note_off_c, 9, 35, 64
6, 161280, Note_on_c, 9, 35, 97
6, 161280, Note_on_c, 9, 82, 76
6, 161280, Note_on_c, 9, 46, 100
6, 161300, Note_off_c, 9, 46, 64
6, 161300, Note_off_c, 9, 82, 64
6, 161300, Note_off_c, 9, 35, 64
6, 161760, Note_on_c, 9, 44, 94
6, 161761, Note_off_c, 9, 44, 64
6, 162240, Note_on_c, 9, 44, 94
6, 162241, Note_off_c, 9, 44, 64
6, 162560, Note_on_c, 9, 35, 87
6, 162561, Note_off_c, 9, 35, 64
6, 162720, Note_on_c, 9, 44, 94
6, 162720, Note_on_c, 9, 40, 81
6, 162721, Note_off_c, 9, 40, 64
6, 162721, Note_off_c, 9, 44, 64
6, 163040, Note_on_c, 9, 35, 87
6, 163041, Note_off_c, 9, 35, 64
6, 163180, Note_on_c, 9, 49, 85
6, 163200, Note_off_c, 9, 49, 64
6, 163200, Note_on_c, 9, 35, 113
6, 163200, Note_on_c, 9, 51, 94
6, 163200, Note_on_c, 9, 82, 56
6, 163220, Note_off_c, 9, 82, 64
6, 163220, Note_off_c, 9, 51, 64
6, 163220, Note_off_c, 9, 35, 64
6, 163360, Note_on_c, 9, 82, 40
6, 163361, Note_off_c, 9, 82, 64
6, 163520, Note_on_c, 9, 69, 58
6, 163521, Note_off_c, 9, 69, 64
6, 163680, Note_on_c, 9, 51, 102
6, 163680, Note_on_c, 9, 82, 56
6, 163680, Note_on_c, 9, 44, 93
6, 163680, Note_on_c, 9, 38, 87
6, 163700, Note_off_c, 9, 38, 64
6, 163700, Note_off_c, 9, 44, 64
6, 163700, Note_off_c, 9, 82, 64
6, 163700, Note_off_c, 9, 51, 64
6, 163840, Note_on_c, 9, 82, 40
6, 163841, Note_off_c, 9, 82, 64
6, 164000, Note_on_c, 9, 35, 99
6, 164000, Note_on_c, 9, 69, 52
6, 164001, Note_off_c, 9, 69, 64
6, 164001, Note_off_c, 9, 35, 64
6, 164160, Note_on_c, 9, 35, 105
6, 164160, Note_on_c, 9, 51, 89
6, 164160, Note_on_c, 9, 82, 67
6, 164161, Note_off_c, 9, 51, 64
6, 164161, Note_off_c, 9, 35, 64
6, 164180, Note_off_c, 9, 82, 64
6, 164320, Note_on_c, 9, 82, 41
6, 164321, Note_off_c, 9, 82, 64
6, 164480, Note_on_c, 9, 69, 59
6, 164481, Note_off_c, 9, 69, 64
6, 164640, Note_on_c, 9, 51, 90
6, 164640, Note_on_c, 9, 82, 76
6, 164640, Note_on_c, 9, 44, 92
6, 164640, Note_on_c, 9, 38, 90
6, 164660, Note_off_c, 9, 38, 64
6, 164660, Note_off_c, 9, 44, 64
6, 164660, Note_off_c, 9, 82, 64
6, 164660, Note_off_c, 9, 51, 64
6, 164800, Note_on_c, 9, 82, 41
6, 164801, Note_off_c, 9, 82, 64
6, 164960, Note_on_c, 9, 51, 86
6, 164960, Note_on_c, 9, 69, 56
6, 164961, Note_off_c, 9, 69, 64
6, 164961, Note_off_c, 9, 51, 64
6, 165120, Note_on_c, 9, 35, 104
6, 165120, Note_on_c, 9, 51, 90
6, 165120, Note_on_c, 9, 82, 76
6, 165121, Note_off_c, 9, 82, 64
6, 165121, Note_off_c, 9, 51, 64
6, 165121, Note_off_c, 9, 35, 64
6, 165280, Note_on_c, 9, 82, 44
6, 165281, Note_off_c, 9, 82, 64
6, 165440, Note_on_c, 9, 69, 59
6, 165441, Note_off_c, 9, 69, 64
6, 165600, Note_on_c, 9, 51, 113
6, 165600, Note_on_c, 9, 82, 85
6, 165600, Note_on_c, 9, 44, 90
6, 165600, Note_on_c, 9, 38, 93
6, 165620, Note_off_c, 9, 38, 64
6, 165620, Note_off_c, 9, 44, 64
6, 165620, Note_off_c, 9, 82, 64
6, 165620, Note_off_c, 9, 51, 64
6, 165760, Note_on_c, 9, 82, 44
6, 165761, Note_off_c, 9, 82, 64
6, 165920, Note_on_c, 9, 35, 102
6, 165920, Note_on_c, 9, 51, 85
6, 165920, Note_on_c, 9, 69, 60
6, 165921, Note_off_c, 9, 69, 64
6, 165921, Note_off_c, 9, 51, 64
6, 165921, Note_off_c, 9, 35, 64
6, 166080, Note_on_c, 9, 35, 110
6, 166080, Note_on_c, 9, 51, 87
6, 166080, Note_on_c, 9, 82, 76
6, 166081, Note_off_c, 9, 82, 64
6, 166081, Note_off_c, 9, 51, 64
6, 166081, Note_off_c, 9, 35, 64
6, 166240, Note_on_c, 9, 82, 43
6, 166241, Note_off_c, 9, 82, 64
6, 166400, Note_on_c, 9, 69, 54
6, 166401, Note_off_c, 9, 69, 64
6, 166560, Note_on_c, 9, 51, 90
6, 166560, Note_on_c, 9, 82, 76
6, 166560, Note_on_c, 9, 44, 92
6, 166560, Note_on_c, 9, 38, 90
6, 166561, Note_off_c, 9, 44, 64
6, 166561, Note_off_c, 9, 82, 64
6, 166561, Note_off_c, 9, 51, 64
6, 166580, Note_off_c, 9, 38, 64
6, 166720, Note_on_c, 9, 82, 44
6, 166721, Note_off_c, 9, 82, 64
6, 166880, Note_on_c, 9, 51, 90
6, 166880, Note_on_c, 9, 69, 54
6, 166881, Note_off_c, 9, 69, 64
6, 166881, Note_off_c, 9, 51, 64
6, 167040, Note_on_c, 9, 35, 102
6, 167040, Note_on_c, 9, 51, 89
6, 167040, Note_on_c, 9, 82, 67
6, 167041, Note_off_c, 9, 82, 64
6, 167041, Note_off_c, 9, 51, 64
6, 167041, Note_off_c, 9, 35, 64
6, 167200, Note_on_c, 9, 82, 41
6, 167201, Note_off_c, 9, 82, 64
6, 167360, Note_on_c, 9, 69, 54
6, 167361, Note_off_c, 9, 69, 64
6, 167520, Note_on_c, 9, 51, 94
6, 167520, Note_on_c, 9, 82, 76
6, 167520, Note_on_c, 9, 44, 93
6, 167520, Note_on_c, 9, 38, 89
6, 167540, Note_off_c, 9, 38, 64
6, 167540, Note_off_c, 9, 44, 64
6, 167540, Note_off_c, 9, 82, 64
6, 167540, Note_off_c, 9, 51, 64
6, 167680, Note_on_c, 9, 82, 39
6, 167681, Note_off_c, 9, 82, 64
6, 167840, Note_on_c, 9, 35, 102
6, 167840, Note_on_c, 9, 51, 86
6, 167840, Note_on_c, 9, 69, 56
6, 167841, Note_off_c, 9, 69, 64
6, 167841, Note_off_c, 9, 51, 64
6, 167841, Note_off_c, 9, 35, 64
6, 168000, Note_on_c, 9, 35, 107
6, 168000, Note_on_c, 9, 51, 87
6, 168000, Note_on_c, 9, 82, 85
6, 168001, Note_off_c, 9, 82, 64
6, 168001, Note_off_c, 9, 51, 64
6, 168001, Note_off_c, 9, 35, 64
6, 168160, Note_on_c, 9, 82, 40
6, 168161, Note_off_c, 9, 82, 64
6, 168320, Note_on_c, 9, 69, 58
6, 168321, Note_off_c, 9, 69, 64
6, 168480, Note_on_c, 9, 51, 102
6, 168480, Note_on_c, 9, 82, 76
6, 168480, Note_on_c, 9, 44, 95
6, 168480, Note_on_c, 9, 38, 95
6, 168481, Note_off_c, 9, 44, 64
6, 168481, Note_off_c, 9, 82, 64
6, 168481, Note_off_c, 9, 51, 64
6, 168500, Note_off_c, 9, 38, 64
6, 168640, Note_on_c, 9, 82, 41
6, 168641, Note_off_c, 9, 82, 64
6, 168800, Note_on_c, 9, 35, 95
6, 168800, Note_on_c, 9, 51, 85
6, 168800, Note_on_c, 9, 69, 58
6, 168801, Note_off_c, 9, 69, 64
6, 168801, Note_off_c, 9, 51, 64
6, 168801, Note_off_c, 9, 35, 64
6, 168960, Note_on_c, 9, 35, 102
6, 168960, Note_on_c, 9, 51, 87
6, 168960, Note_on_c, 9, 82, 76
6, 168980, Note_off_c, 9, 82, 64
6, 168980, Note_off_c, 9, 51, 64
6, 168980, Note_off_c, 9, 35, 64
6, 169120, Note_on_c, 9, 82, 43
6, 169121, Note_off_c, 9, 82, 64
6, 169280, Note_on_c, 9, 69, 58
6, 169281, Note_off_c, 9, 69, 64
6, 169440, Note_on_c, 9, 51, 90
6, 169440, Note_on_c, 9, 82, 85
6, 169440, Note_on_c, 9, 44, 95
6, 169440, Note_on_c, 9, 38, 97
6, 169460, Note_off_c, 9, 38, 64
6, 169460, Note_off_c, 9, 44, 64
6, 169460, Note_off_c, 9, 82, 64
6, 169460, Note_off_c, 9, 51, 64
6, 169600, Note_on_c, 9, 82, 43
6, 169601, Note_off_c, 9, 82, 64
6, 169760, Note_on_c, 9, 35, 92
6, 169760, Note_on_c, 9, 69, 52
6, 169761, Note_off_c, 9, 69, 64
6, 169761, Note_off_c, 9, 35, 64
6, 169920, Note_on_c, 9, 35, 107
6, 169920, Note_on_c, 9, 51, 87
6, 169920, Note_on_c, 9, 82, 76
6, 169921, Note_off_c, 9, 82, 64
6, 169921, Note_off_c, 9, 51, 64
6, 169921, Note_off_c, 9, 35, 64
6, 170080, Note_on_c, 9, 82, 56
6, 170081, Note_off_c, 9, 82, 64
6, 170240, Note_on_c, 9, 51, 89
6, 170240, Note_on_c, 9, 69, 56
6, 170241, Note_off_c, 9, 69, 64
6, 170241, Note_off_c, 9, 51, 64
6, 170400, Note_on_c, 9, 51, 89
6, 170400, Note_on_c, 9, 82, 85
6, 170400, Note_on_c, 9, 44, 92
6, 170400, Note_on_c, 9, 38, 94
6, 170420, Note_off_c, 9, 38, 64
6, 170420, Note_off_c, 9, 44, 64
6, 170420, Note_off_c, 9, 82, 64
6, 170420, Note_off_c, 9, 51, 64
6, 170560, Note_on_c, 9, 82, 48
6, 170561, Note_off_c, 9, 82, 64
6, 170720, Note_on_c, 9, 35, 90
6, 170720, Note_on_c, 9, 51, 84
6, 170720, Note_on_c, 9, 69, 59
6, 170721, Note_off_c, 9, 69, 64
6, 170721, Note_off_c, 9, 51, 64
6, 170721, Note_off_c, 9, 35, 64
6, 170880, Note_on_c, 9, 35, 113
6, 170880, Note_on_c, 9, 51, 94
6, 170880, Note_on_c, 9, 82, 56
6, 170900, Note_off_c, 9, 82, 64
6, 170900, Note_off_c, 9, 51, 64
6, 170900, Note_off_c, 9, 35, 64
6, 171040, Note_on_c, 9, 82, 40
6, 171041, Note_off_c, 9, 82, 64
6, 171200, Note_on_c, 9, 69, 58
6, 171201, Note_off_c, 9, 69, 64
6, 171360, Note_on_c, 9, 51, 102
6, 171360, Note_on_c, 9, 82, 56
6, 171360, Note_on_c, 9, 44, 93
6, 171360, Note_on_c, 9, 38, 87
6, 171380, Note_off_c, 9, 38, 64
6, 171380, Note_off_c, 9, 44, 64
6, 171380, Note_off_c, 9, 82, 64
6, 171380, Note_off_c, 9, 51, 64
6, 171520, Note_on_c, 9, 82, 40
6, 171521, Note_off_c, 9, 82, 64
6, 171680, Note_on_c, 9, 35, 99
6, 171680, Note_on_c, 9, 69, 52
6, 171681, Note_off_c, 9, 69, 64
6, 171681, Note_off_c, 9, 35, 64
6, 171840, Note_on_c, 9, 35, 105
6, 171840, Note_on_c, 9, 51, 89
6, 171840, Note_on_c, 9, 82, 67
6, 171841, Note_off_c, 9, 82, 64
6, 171841, Note_off_c, 9, 51, 64
6, 171841, Note_off_c, 9, 35, 64
6, 172000, Note_on_c, 9, 82, 41
6, 172001, Note_off_c, 9, 82, 64
6, 172160, Note_on_c, 9, 69, 59
6, 172161, Note_off_c, 9, 69, 64
6, 172320, Note_on_c, 9, 51, 90
6, 172320, Note_on_c, 9, 82, 76
6, 172320, Note_on_c, 9, 44, 92
6, 172320, Note_on_c, 9, 38, 90
6, 172321, Note_off_c, 9, 38, 64
6, 172321, Note_off_c, 9, 44, 64
6, 172321, Note_off_c, 9, 82, 64
6, 172321, Note_off_c, 9, 51, 64
6, 172480, Note_on_c, 9, 82, 41
6, 172481, Note_off_c, 9, 82, 64
6, 172640, Note_on_c, 9, 51, 86
6, 172640, Note_on_c, 9, 69, 56
6, 172641, Note_off_c, 9, 69, 64
6, 172641, Note_off_c, 9, 51, 64
6, 172800, Note_on_c, 9, 35, 104
6, 172800, Note_on_c, 9, 51, 90
6, 172800, Note_on_c, 9, 82, 76
6, 172801, Note_off_c, 9, 82, 64
6, 172801, Note_off_c, 9, 51, 64
6, 172801, Note_off_c, 9, 35, 64
6, 172960, Note_on_c, 9, 82, 44
6, 172961, Note_off_c, 9, 82, 64
6, 173120, Note_on_c, 9, 69, 59
6, 173121, Note_off_c, 9, 69, 64
6, 173280, Note_on_c, 9, 51, 113
6, 173280, Note_on_c, 9, 82, 85
6, 173280, Note_on_c, 9, 44, 90
6, 173280, Note_on_c, 9, 38, 93
6, 173281, Note_off_c, 9, 38, 64
6, 173281, Note_off_c, 9, 44, 64
6, 173281, Note_off_c, 9, 82, 64
6, 173281, Note_off_c, 9, 51, 64
6, 173440, Note_on_c, 9, 82, 44
6, 173441, Note_off_c, 9, 82, 64
6, 173600, Note_on_c, 9, 35, 102
6, 173600, Note_on_c, 9, 51, 85
6, 173600, Note_on_c, 9, 69, 60
6, 173601, Note_off_c, 9, 69, 64
6, 173601, Note_off_c, 9, 51, 64
6, 173601, Note_off_c, 9, 35, 64
6, 173760, Note_on_c, 9, 35, 110
6, 173760, Note_on_c, 9, 51, 87
6, 173760, Note_on_c, 9, 82, 76
6, 173761, Note_off_c, 9, 82, 64
6, 173761, Note_off_c, 9, 51, 64
6, 173761, Note_off_c, 9, 35, 64
6, 173920, Note_on_c, 9, 82, 43
6, 173921, Note_off_c, 9, 82, 64
6, 174080, Note_on_c, 9, 69, 54
6, 174081, Note_off_c, 9, 69, 64
6, 174240, Note_on_c, 9, 51, 90
6, 174240, Note_on_c, 9, 82, 76
6, 174240, Note_on_c, 9, 44, 92
6, 174240, Note_on_c, 9, 38, 90
6, 174241, Note_off_c, 9, 44, 64
6, 174241, Note_off_c, 9, 82, 64
6, 174241, Note_off_c, 9, 51, 64
6, 174260, Note_off_c, 9, 38, 64
6, 174400, Note_on_c, 9, 82, 44
6, 174401, Note_off_c, 9, 82, 64
6, 174560, Note_on_c, 9, 51, 90
6, 174560, Note_on_c, 9, 69, 54
6, 174561, Note_off_c, 9, 69, 64
6, 174561, Note_off_c, 9, 51, 64
6, 174720, Note_on_c, 9, 35, 102
6, 174720, Note_on_c, 9, 51, 89
6, 174720, Note_on_c, 9, 82, 67
6, 174721, Note_off_c, 9, 82, 64
6, 174721, Note_off_c, 9, 51, 64
6, 174721, Note_off_c, 9, 35, 64
6, 174880, Note_on_c, 9, 82, 41
6, 174881, Note_off_c, 9, 82, 64
6, 175040, Note_on_c, 9, 69, 54
6, 175041, Note_off_c, 9, 69, 64
6, 175200, Note_on_c, 9, 51, 94
6, 175200, Note_on_c, 9, 82, 76
6, 175200, Note_on_c, 9, 44, 93
6, 175200, Note_on_c, 9, 38, 89
6, 175220, Note_off_c, 9, 38, 64
6, 175220, Note_off_c, 9, 44, 64
6, 175220, Note_off_c, 9, 82, 64
6, 175220, Note_off_c, 9, 51, 64
6, 175360, Note_on_c, 9, 82, 39
6, 175361, Note_off_c, 9, 82, 64
6, 175520, Note_on_c, 9, 35, 102
6, 175520, Note_on_c, 9, 51, 86
6, 175520, Note_on_c, 9, 69, 56
6, 175521, Note_off_c, 9, 69, 64
6, 175521, Note_off_c, 9, 51, 64
6, 175521, Note_off_c, 9, 35, 64
6, 175680, Note_on_c, 9, 35, 107
6, 175680, Note_on_c, 9, 51, 87
6, 175680, Note_on_c, 9, 82, 85
6, 175681, Note_off_c, 9, 82, 64
6, 175681, Note_off_c, 9, 51, 64
6, 175681, Note_off_c, 9, 35, 64
6, 175840, Note_on_c, 9, 82, 40
6, 175841, Note_off_c, 9, 82, 64
6, 176000, Note_on_c, 9, 69, 58
6, 176001, Note_off_c, 9, 69, 64
6, 176160, Note_on_c, 9, 51, 102
6, 176160, Note_on_c, 9, 82, 76
6, 176160, Note_on_c, 9, 44, 95
6, 176160, Note_on_c, 9, 38, 95
6, 176161, Note_off_c, 9, 44, 64
6, 176161, Note_off_c, 9, 82, 64
6, 176161, Note_off_c, 9, 51, 64
6, 176180, Note_off_c, 9, 38, 64
6, 176320, Note_on_c, 9, 82, 41
6, 176321, Note_off_c, 9, 82, 64
6, 176480, Note_on_c, 9, 35, 95
6, 176480, Note_on_c, 9, 51, 85
6, 176480, Note_on_c, 9, 69, 58
6, 176481, Note_off_c, 9, 69, 64
6, 176481, Note_off_c, 9, 51, 64
6, 176481, Note_off_c, 9, 35, 64
6, 176640, Note_on_c, 9, 35, 102
6, 176640, Note_on_c, 9, 51, 87
6, 176640, Note_on_c, 9, 82, 76
6, 176641, Note_off_c, 9, 82, 64
6, 176641, Note_off_c, 9, 51, 64
6, 176641, Note_off_c, 9, 35, 64
6, 176800, Note_on_c, 9, 82, 43
6, 176801, Note_off_c, 9, 82, 64
6, 176960, Note_on_c, 9, 69, 58
6, 176961, Note_off_c, 9, 69, 64
6, 177120, Note_on_c, 9, 51, 90
6, 177120, Note_on_c, 9, 82, 85
6, 177120, Note_on_c, 9, 44, 95
6, 177120, Note_on_c, 9, 38, 97
6, 177140, Note_off_c, 9, 38, 64
6, 177140, Note_off_c, 9, 44, 64
6, 177140, Note_off_c, 9, 82, 64
6, 177140, Note_off_c, 9, 51, 64
6, 177280, Note_on_c, 9, 82, 43
6, 177281, Note_off_c, 9, 82, 64
6, 177440, Note_on_c, 9, 35, 92
6, 177440, Note_on_c, 9, 69, 52
6, 177441, Note_off_c, 9, 69, 64
6, 177441, Note_off_c, 9, 35, 64
6, 177600, Note_on_c, 9, 35, 107
6, 177600, Note_on_c, 9, 51, 87
6, 177600, Note_on_c, 9, 82, 76
6, 177601, Note_off_c, 9, 82, 64
6, 177601, Note_off_c, 9, 51, 64
6, 177601, Note_off_c, 9, 35, 64
6, 177760, Note_on_c, 9, 82, 56
6, 177761, Note_off_c, 9, 82, 64
6, 177920, Note_on_c, 9, 51, 89
6, 177920, Note_on_c, 9, 69, 56
6, 177921, Note_off_c, 9, 69, 64
6, 177921, Note_off_c, 9, 51, 64
6, 178080, Note_on_c, 9, 51, 89
6, 178080, Note_on_c, 9, 82, 85
6, 178080, Note_on_c, 9, 44, 92
6, 178080, Note_on_c, 9, 38, 94
6, 178081, Note_off_c, 9, 44, 64
6, 178081, Note_off_c, 9, 82, 64
6, 178081, Note_off_c, 9, 51, 64
6, 178100, Note_off_c, 9, 38, 64
6, 178240, Note_on_c, 9, 82, 48
6, 178241, Note_off_c, 9, 82, 64
6, 178400, Note_on_c, 9, 35, 90
6, 178400, Note_on_c, 9, 51, 84
6, 178400, Note_on_c, 9, 69, 59
6, 178401, Note_off_c, 9, 69, 64
6, 178401, Note_off_c, 9, 51, 64
6, 178401, Note_off_c, 9, 35, 64
6, 178560, Note_on_c, 9, 35, 102
6, 178560, Note_on_c, 9, 51, 87
6, 178560, Note_on_c, 9, 82, 76
6, 178561, Note_off_c, 9, 82, 64
6, 178561, Note_off_c, 9, 51, 64
6, 178561, Note_off_c, 9, 35, 64
6, 178720, Note_on_c, 9, 82, 43
6, 178721, Note_off_c, 9, 82, 64
6, 178880, Note_on_c, 9, 69, 58
6, 178881, Note_off_c, 9, 69, 64
6, 179040, Note_on_c, 9, 51, 90
6, 179040, Note_on_c, 9, 82, 85
6, 179040, Note_on_c, 9, 44, 95
6, 179040, Note_on_c, 9, 38, 97
6, 179060, Note_off_c, 9, 38, 64
6, 179060, Note_off_c, 9, 44, 64
6, 179060, Note_off_c, 9, 82, 64
6, 179060, Note_off_c, 9, 51, 64
6, 179200, Note_on_c, 9, 82, 43
6, 179201, Note_off_c, 9, 82, 64
6, 179360, Note_on_c, 9, 35, 92
6, 179360, Note_on_c, 9, 69, 52
6, 179361, Note_off_c, 9, 69, 64
6, 179361, Note_off_c, 9, 35, 64
6, 179520, Note_on_c, 9, 35, 107
6, 179520, Note_on_c, 9, 51, 87
6, 179520, Note_on_c, 9, 82, 76
6, 179521, Note_off_c, 9, 82, 64
6, 179521, Note_off_c, 9, 51, 64
6, 179521, Note_off_c, 9, 35, 64
6, 179680, Note_on_c, 9, 82, 56
6, 179681, Note_off_c, 9, 82, 64
6, 179840, Note_on_c, 9, 51, 89
6, 179840, Note_on_c, 9, 69, 56
6, 179841, Note_off_c, 9, 69, 64
6, 179841, Note_off_c, 9, 51, 64
6, 180000, Note_on_c, 9, 51, 89
6, 180000, Note_on_c, 9, 82, 85
6, 180000, Note_on_c, 9, 44, 92
6, 180000, Note_on_c, 9, 38, 94
6, 180020, Note_off_c, 9, 38, 64
6, 180020, Note_off_c, 9, 44, 64
6, 180020, Note_off_c, 9, 82, 64
6, 180020, Note_off_c, 9, 51, 64
6, 180160, Note_on_c, 9, 82, 48
6, 180161, Note_off_c, 9, 82, 64
6, 180320, Note_on_c, 9, 35, 90
6, 180320, Note_on_c, 9, 51, 84
6, 180320, Note_on_c, 9, 69, 59
6, 180321, Note_off_c, 9, 69, 64
6, 180321, Note_off_c, 9, 51, 64
6, 180321, Note_off_c, 9, 35, 64
6, 180480, Note_on_c, 9, 35, 100
6, 180480, Note_on_c, 9, 82, 76
6, 180480, Note_on_c, 9, 53, 100
6, 180481, Note_off_c, 9, 53, 64
6, 180481, Note_off_c, 9, 82, 64
6, 180481, Note_off_c, 9, 35, 64
6, 180640, Note_on_c, 9, 42, 44
6, 180640, Note_on_c, 9, 82, 44
6, 180641, Note_off_c, 9, 82, 64
6, 180641, Note_off_c, 9, 42, 64
6, 180800, Note_on_c, 9, 69, 59
6, 180801, Note_off_c, 9, 69, 64
6, 180960, Note_on_c, 9, 62, 76
6, 180960, Note_on_c, 9, 82, 85
6, 180960, Note_on_c, 9, 53, 124
6, 180960, Note_on_c, 9, 44, 91
6, 180960, Note_on_c, 9, 40, 91
6, 180980, Note_off_c, 9, 40, 64
6, 180980, Note_off_c, 9, 44, 64
6, 180980, Note_off_c, 9, 53, 64
6, 180980, Note_off_c, 9, 82, 64
6, 180980, Note_off_c, 9, 62, 64
6, 181120, Note_on_c, 9, 42, 44
6, 181120, Note_on_c, 9, 82, 44
6, 181121, Note_off_c, 9, 82, 64
6, 181121, Note_off_c, 9, 42, 64
6, 181280, Note_on_c, 9, 35, 98
6, 181280, Note_on_c, 9, 69, 60
6, 181281, Note_off_c, 9, 69, 64
6, 181281, Note_off_c, 9, 35, 64
6, 181440, Note_on_c, 9, 35, 102
6, 181440, Note_on_c, 9, 82, 76
6, 181440, Note_on_c, 9, 53, 114
6, 181441, Note_off_c, 9, 53, 64
6, 181441, Note_off_c, 9, 82, 64
6, 181441, Note_off_c, 9, 35, 64
6, 181600, Note_on_c, 9, 42, 43
6, 181600, Note_on_c, 9, 82, 43
6, 181601, Note_off_c, 9, 82, 64
6, 181601, Note_off_c, 9, 42, 64
6, 181760, Note_on_c, 9, 69, 54
6, 181760, Note_on_c, 9, 53, 99
6, 181761, Note_off_c, 9, 53, 64
6, 181761, Note_off_c, 9, 69, 64
6, 181920, Note_on_c, 9, 63, 62
6, 181920, Note_on_c, 9, 82, 76
6, 181920, Note_on_c, 9, 53, 100
6, 181920, Note_on_c, 9, 40, 90
6, 181920, Note_on_c, 9, 44, 97
6, 181940, Note_off_c, 9, 44, 64
6, 181940, Note_off_c, 9, 40, 64
6, 181940, Note_off_c, 9, 53, 64
6, 181940, Note_off_c, 9, 82, 64
6, 181940, Note_off_c, 9, 63, 64
6, 182080, Note_on_c, 9, 42, 44
6, 182080, Note_on_c, 9, 82, 44
6, 182081, Note_off_c, 9, 82, 64
6, 182081, Note_off_c, 9, 42, 64
6, 182240, Note_on_c, 9, 35, 87
6, 182240, Note_on_c, 9, 63, 76
6, 182240, Note_on_c, 9, 69, 54
6, 182240, Note_on_c, 9, 53, 100
6, 182241, Note_off_c, 9, 53, 64
6, 182241, Note_off_c, 9, 69, 64
6, 182241, Note_off_c, 9, 63, 64
6, 182241, Note_off_c, 9, 35, 64
6, 182400, Note_on_c, 9, 35, 94
6, 182400, Note_on_c, 9, 82, 67
6, 182400, Note_on_c, 9, 53, 101
6, 182420, Note_off_c, 9, 53, 64
6, 182420, Note_off_c, 9, 82, 64
6, 182420, Note_off_c, 9, 35, 64
6, 182560, Note_on_c, 9, 42, 41
6, 182560, Note_on_c, 9, 82, 41
6, 182561, Note_off_c, 9, 82, 64
6, 182561, Note_off_c, 9, 42, 64
6, 182720, Note_on_c, 9, 69, 54
6, 182721, Note_off_c, 9, 69, 64
6, 182880, Note_on_c, 9, 62, 76
6, 182880, Note_on_c, 9, 82, 76
6, 182880, Note_on_c, 9, 53, 101
6, 182880, Note_on_c, 9, 44, 97
6, 182880, Note_on_c, 9, 40, 95
6, 182900, Note_off_c, 9, 40, 64
6, 182900, Note_off_c, 9, 44, 64
6, 182900, Note_off_c, 9, 53, 64
6, 182900, Note_off_c, 9, 82, 64
6, 182900, Note_off_c, 9, 62, 64
6, 183040, Note_on_c, 9, 42, 39
6, 183040, Note_on_c, 9, 82, 39
6, 183041, Note_off_c, 9, 82, 64
6, 183041, Note_off_c, 9, 42, 64
6, 183200, Note_on_c, 9, 35, 87
6, 183200, Note_on_c, 9, 69, 56
6, 183201, Note_off_c, 9, 69, 64
6, 183201, Note_off_c, 9, 35, 64
6, 183360, Note_on_c, 9, 35, 99
6, 183360, Note_on_c, 9, 82, 85
6, 183360, Note_on_c, 9, 53, 106
6, 183361, Note_off_c, 9, 82, 64
6, 183361, Note_off_c, 9, 35, 64
6, 183380, Note_off_c, 9, 53, 64
6, 183520, Note_on_c, 9, 42, 40
6, 183520, Note_on_c, 9, 82, 40
6, 183521, Note_off_c, 9, 82, 64
6, 183521, Note_off_c, 9, 42, 64
6, 183680, Note_on_c, 9, 69, 58
6, 183680, Note_on_c, 9, 53, 98
6, 183681, Note_off_c, 9, 53, 64
6, 183681, Note_off_c, 9, 69, 64
6, 183840, Note_on_c, 9, 64, 70
6, 183840, Note_on_c, 9, 82, 76
6, 183840, Note_on_c, 9, 44, 100
6, 183840, Note_on_c, 9, 40, 93
6, 183840, Note_on_c, 9, 53, 99
6, 183860, Note_off_c, 9, 53, 64
6, 183860, Note_off_c, 9, 40, 64
6, 183860, Note_off_c, 9, 44, 64
6, 183860, Note_off_c, 9, 82, 64
6, 183860, Note_off_c, 9, 64, 64
6, 184000, Note_on_c, 9, 42, 41
6, 184000, Note_on_c, 9, 82, 41
6, 184001, Note_off_c, 9, 82, 64
6, 184001, Note_off_c, 9, 42, 64
6, 184160, Note_on_c, 9, 64, 94
6, 184160, Note_on_c, 9, 69, 58
6, 184160, Note_on_c, 9, 53, 94
6, 184161, Note_off_c, 9, 53, 64
6, 184161, Note_off_c, 9, 69, 64
6, 184161, Note_off_c, 9, 64, 64
6, 184320, Note_on_c, 9, 35, 95
6, 184320, Note_on_c, 9, 82, 76
6, 184320, Note_on_c, 9, 53, 100
6, 184321, Note_off_c, 9, 53, 64
6, 184321, Note_off_c, 9, 82, 64
6, 184321, Note_off_c, 9, 35, 64
6, 184480, Note_on_c, 9, 42, 43
6, 184480, Note_on_c, 9, 82, 43
6, 184481, Note_off_c, 9, 82, 64
6, 184481, Note_off_c, 9, 42, 64
6, 184640, Note_on_c, 9, 69, 58
6, 184640, Note_on_c, 9, 53, 99
6, 184641, Note_off_c, 9, 53, 64
6, 184641, Note_off_c, 9, 69, 64
6, 184800, Note_on_c, 9, 62, 79
6, 184800, Note_on_c, 9, 82, 85
6, 184800, Note_on_c, 9, 44, 98
6, 184800, Note_on_c, 9, 40, 90
6, 184800, Note_on_c, 9, 53, 100
6, 184820, Note_off_c, 9, 53, 64
6, 184820, Note_off_c, 9, 40, 64
6, 184820, Note_off_c, 9, 44, 64
6, 184820, Note_off_c, 9, 82, 64
6, 184820, Note_off_c, 9, 62, 64
6, 184960, Note_on_c, 9, 42, 43
6, 184960, Note_on_c, 9, 82, 43
6, 184961, Note_off_c, 9, 82, 64
6, 184961, Note_off_c, 9, 42, 64
6, 185120, Note_on_c, 9, 35, 90
6, 185120, Note_on_c, 9, 69, 52
6, 185121, Note_off_c, 9, 69, 64
6, 185121, Note_off_c, 9, 35, 64
6, 185280, Note_on_c, 9, 35, 101
6, 185280, Note_on_c, 9, 82, 76
6, 185280, Note_on_c, 9, 53, 101
6, 185281, Note_off_c, 9, 53, 64
6, 185281, Note_off_c, 9, 82, 64
6, 185281, Note_off_c, 9, 35, 64
6, 185440, Note_on_c, 9, 42, 56
6, 185440, Note_on_c, 9, 82, 56
6, 185441, Note_off_c, 9, 82, 64
6, 185441, Note_off_c, 9, 42, 64
6, 185600, Note_on_c, 9, 69, 56
6, 185601, Note_off_c, 9, 69, 64
6, 185760, Note_on_c, 9, 63, 74
6, 185760, Note_on_c, 9, 82, 85
6, 185760, Note_on_c, 9, 44, 97
6, 185760, Note_on_c, 9, 53, 106
6, 185760, Note_on_c, 9, 40, 94
6, 185780, Note_off_c, 9, 40, 64
6, 185780, Note_off_c, 9, 53, 64
6, 185780, Note_off_c, 9, 44, 64
6, 185780, Note_off_c, 9, 82, 64
6, 185780, Note_off_c, 9, 63, 64
6, 185920, Note_on_c, 9, 42, 48
6, 185920, Note_on_c, 9, 82, 48
6, 185921, Note_off_c, 9, 82, 64
6, 185921, Note_off_c, 9, 42, 64
6, 186080, Note_on_c, 9, 63, 101
6, 186080, Note_on_c, 9, 69, 59
6, 186080, Note_on_c, 9, 53, 99
6, 186081, Note_off_c, 9, 53, 64
6, 186081, Note_off_c, 9, 69, 64
6, 186081, Note_off_c, 9, 63, 64
6, 186240, Note_on_c, 9, 35, 100
6, 186240, Note_on_c, 9, 82, 76
6, 186240, Note_on_c, 9, 53, 99
6, 186241, Note_off_c, 9, 53, 64
6, 186241, Note_off_c, 9, 82, 64
6, 186241, Note_off_c, 9, 35, 64
6, 186400, Note_on_c, 9, 42, 43
6, 186400, Note_on_c, 9, 82, 43
6, 186401, Note_off_c, 9, 82, 64
6, 186401, Note_off_c, 9, 42, 64
6, 186560, Note_on_c, 9, 69, 58
6, 186561, Note_off_c, 9, 69, 64
6, 186720, Note_on_c, 9, 82, 85
6, 186720, Note_on_c, 9, 62, 75
6, 186720, Note_on_c, 9, 44, 94
6, 186720, Note_on_c, 9, 53, 124
6, 186720, Note_on_c, 9, 40, 86
6, 186740, Note_off_c, 9, 40, 64
6, 186740, Note_off_c, 9, 53, 64
6, 186740, Note_off_c, 9, 44, 64
6, 186740, Note_off_c, 9, 62, 64
6, 186740, Note_off_c, 9, 82, 64
6, 186880, Note_on_c, 9, 42, 43
6, 186880, Note_on_c, 9, 82, 43
6, 186881, Note_off_c, 9, 82, 64
6, 186881, Note_off_c, 9, 42, 64
6, 187040, Note_on_c, 9, 35, 93
6, 187040, Note_on_c, 9, 69, 52
6, 187041, Note_off_c, 9, 69, 64
6, 187041, Note_off_c, 9, 35, 64
6, 187200, Note_on_c, 9, 35, 98
6, 187200, Note_on_c, 9, 82, 76
6, 187200, Note_on_c, 9, 53, 106
6, 187201, Note_off_c, 9, 82, 64
6, 187201, Note_off_c, 9, 35, 64
6, 187220, Note_off_c, 9, 53, 64
6, 187360, Note_on_c, 9, 42, 56
6, 187360, Note_on_c, 9, 82, 56
6, 187361, Note_off_c, 9, 82, 64
6, 187361, Note_off_c, 9, 42, 64
6, 187520, Note_on_c, 9, 69, 56
6, 187520, Note_on_c, 9, 62, 68
6, 187521, Note_off_c, 9, 62, 64
6, 187521, Note_off_c, 9, 69, 64
6, 187680, Note_on_c, 9, 82, 85
6, 187680, Note_on_c, 9, 64, 72
6, 187680, Note_on_c, 9, 44, 94
6, 187680, Note_on_c, 9, 53, 101
6, 187680, Note_on_c, 9, 40, 89
6, 187700, Note_off_c, 9, 40, 64
6, 187700, Note_off_c, 9, 53, 64
6, 187700, Note_off_c, 9, 44, 64
6, 187700, Note_off_c, 9, 64, 64
6, 187700, Note_off_c, 9, 82, 64
6, 187840, Note_on_c, 9, 42, 48
6, 187840, Note_on_c, 9, 82, 48
6, 187841, Note_off_c, 9, 82, 64
6, 187841, Note_off_c, 9, 42, 64
6, 188000, Note_on_c, 9, 69, 59
6, 188000, Note_on_c, 9, 64, 101
6, 188000, Note_on_c, 9, 53, 99
6, 188001, Note_off_c, 9, 53, 64
6, 188001, Note_off_c, 9, 64, 64
6, 188001, Note_off_c, 9, 69, 64
6, 188160, Note_on_c, 9, 35, 100
6, 188160, Note_on_c, 9, 82, 76
6, 188160, Note_on_c, 9, 53, 100
6, 188161, Note_off_c, 9, 53, 64
6, 188161, Note_off_c, 9, 82, 64
6, 188161, Note_off_c, 9, 35, 64
6, 188320, Note_on_c, 9, 42, 44
6, 188320, Note_on_c, 9, 82, 44
6, 188321, Note_off_c, 9, 82, 64
6, 188321, Note_off_c, 9, 42, 64
6, 188480, Note_on_c, 9, 69, 59
6, 188481, Note_off_c, 9, 69, 64
6, 188640, Note_on_c, 9, 62, 76
6, 188640, Note_on_c, 9, 82, 85
6, 188640, Note_on_c, 9, 53, 124
6, 188640, Note_on_c, 9, 44, 91
6, 188640, Note_on_c, 9, 40, 91
6, 188660, Note_off_c, 9, 40, 64
6, 188660, Note_off_c, 9, 44, 64
6, 188660, Note_off_c, 9, 53, 64
6, 188660, Note_off_c, 9, 82, 64
6, 188660, Note_off_c, 9, 62, 64
6, 188800, Note_on_c, 9, 42, 44
6, 188800, Note_on_c, 9, 82, 44
6, 188801, Note_off_c, 9, 82, 64
6, 188801, Note_off_c, 9, 42, 64
6, 188960, Note_on_c, 9, 35, 98
6, 188960, Note_on_c, 9, 69, 60
6, 188961, Note_off_c, 9, 69, 64
6, 188961, Note_off_c, 9, 35, 64
6, 189120, Note_on_c, 9, 35, 102
6, 189120, Note_on_c, 9, 82, 76
6, 189120, Note_on_c, 9, 53, 114
6, 189121, Note_off_c, 9, 82, 64
6, 189121, Note_off_c, 9, 35, 64
6, 189140, Note_off_c, 9, 53, 64
6, 189280, Note_on_c, 9, 42, 43
6, 189280, Note_on_c, 9, 82, 43
6, 189281, Note_off_c, 9, 82, 64
6, 189281, Note_off_c, 9, 42, 64
6, 189440, Note_on_c, 9, 69, 54
6, 189440, Note_on_c, 9, 53, 99
6, 189441, Note_off_c, 9, 53, 64
6, 189441, Note_off_c, 9, 69, 64
6, 189600, Note_on_c, 9, 63, 62
6, 189600, Note_on_c, 9, 82, 76
6, 189600, Note_on_c, 9, 53, 100
6, 189600, Note_on_c, 9, 40, 90
6, 189600, Note_on_c, 9, 44, 97
6, 189620, Note_off_c, 9, 44, 64
6, 189620, Note_off_c, 9, 40, 64
6, 189620, Note_off_c, 9, 53, 64
6, 189620, Note_off_c, 9, 82, 64
6, 189620, Note_off_c, 9, 63, 64
6, 189760, Note_on_c, 9, 42, 44
6, 189760, Note_on_c, 9, 82, 44
6, 189761, Note_off_c, 9, 82, 64
6, 189761, Note_off_c, 9, 42, 64
6, 189920, Note_on_c, 9, 35, 87
6, 189920, Note_on_c, 9, 63, 76
6, 189920, Note_on_c, 9, 69, 54
6, 189920, Note_on_c, 9, 53, 100
6, 189921, Note_off_c, 9, 53, 64
6, 189921, Note_off_c, 9, 69, 64
6, 189921, Note_off_c, 9, 63, 64
6, 189921, Note_off_c, 9, 35, 64
6, 190080, Note_on_c, 9, 35, 94
6, 190080, Note_on_c, 9, 82, 67
6, 190080, Note_on_c, 9, 53, 101
6, 190081, Note_off_c, 9, 82, 64
6, 190081, Note_off_c, 9, 35, 64
6, 190100, Note_off_c, 9, 53, 64
6, 190240, Note_on_c, 9, 42, 41
6, 190240, Note_on_c, 9, 82, 41
6, 190241, Note_off_c, 9, 82, 64
6, 190241, Note_off_c, 9, 42, 64
6, 190400, Note_on_c, 9, 69, 54
6, 190401, Note_off_c, 9, 69, 64
6, 190560, Note_on_c, 9, 62, 76
6, 190560, Note_on_c, 9, 82, 76
6, 190560, Note_on_c, 9, 53, 101
6, 190560, Note_on_c, 9, 44, 97
6, 190560, Note_on_c, 9, 40, 95
6, 190580, Note_off_c, 9, 40, 64
6, 190580, Note_off_c, 9, 44, 64
6, 190580, Note_off_c, 9, 53, 64
6, 190580, Note_off_c, 9, 82, 64
6, 190580, Note_off_c, 9, 62, 64
6, 190720, Note_on_c, 9, 42, 39
6, 190720, Note_on_c, 9, 82, 39
6, 190721, Note_off_c, 9, 82, 64
6, 190721, Note_off_c, 9, 42, 64
6, 190880, Note_on_c, 9, 35, 87
6, 190880, Note_on_c, 9, 69, 56
6, 190881, Note_off_c, 9, 69, 64
6, 190881, Note_off_c, 9, 35, 64
6, 191040, Note_on_c, 9, 35, 99
6, 191040, Note_on_c, 9, 82, 85
6, 191040, Note_on_c, 9, 53, 106
6, 191041, Note_off_c, 9, 82, 64
6, 191041, Note_off_c, 9, 35, 64
6, 191060, Note_off_c, 9, 53, 64
6, 191200, Note_on_c, 9, 42, 40
6, 191200, Note_on_c, 9, 82, 40
6, 191201, Note_off_c, 9, 82, 64
6, 191201, Note_off_c, 9, 42, 64
6, 191360, Note_on_c, 9, 69, 58
6, 191360, Note_on_c, 9, 53, 98
6, 191361, Note_off_c, 9, 53, 64
6, 191361, Note_off_c, 9, 69, 64
6, 191520, Note_on_c, 9, 64, 70
6, 191520, Note_on_c, 9, 82, 76
6, 191520, Note_on_c, 9, 44, 100
6, 191520, Note_on_c, 9, 40, 93
6, 191520, Note_on_c, 9, 53, 99
6, 191540, Note_off_c, 9, 53, 64
6, 191540, Note_off_c, 9, 40, 64
6, 191540, Note_off_c, 9, 44, 64
6, 191540, Note_off_c, 9, 82, 64
6, 191540, Note_off_c, 9, 64, 64
6, 191680, Note_on_c, 9, 42, 41
6, 191680, Note_on_c, 9, 82, 41
6, 191681, Note_off_c, 9, 82, 64
6, 191681, Note_off_c, 9, 42, 64
6, 191840, Note_on_c, 9, 64, 94
6, 191840, Note_on_c, 9, 69, 58
6, 191840, Note_on_c, 9, 53, 94
6, 191841, Note_off_c, 9, 53, 64
6, 191841, Note_off_c, 9, 69, 64
6, 191841, Note_off_c, 9, 64, 64
6, 192000, Note_on_c, 9, 49, 99
6, 192000, Note_on_c, 9, 59, 58
6, 192000, Note_on_c, 9, 55, 43
6, 192000, Note_on_c, 9, 42, 43
6, 192000, Note_on_c, 9, 35, 95
6, 192000, Note_on_c, 9, 81, 76
6, 192000, Note_on_c, 9, 53, 100
6, 192001, Note_off_c, 9, 42, 64
6, 192001, Note_off_c, 9, 55, 64
6, 192001, Note_off_c, 9, 59, 64
6, 192001, Note_off_c, 9, 49, 64
6, 192020, Note_off_c, 9, 35, 64
6, 192020, Note_off_c, 9, 81, 64
6, 192020, Note_off_c, 9, 53, 64
6, 192020, End_track
7, 0, Start_track
7, 0, MIDI_port, 0
7, 0, Channel_prefix, 0
7, 0, Control_c, 0, 7, 100
7, 0, Control_c, 0, 10, 50
7, 0, Program_c, 0, 25
7, 0, Control_c, 0, 121, 0
7, 17, Control_c, 0, 91, 90
7, 17, Control_c, 0, 93, 75
7, 21, Control_c, 0, 11, 127
7, 104, Note_on_c, 0, 58, 64
7, 104, Note_on_c, 0, 74, 64
7, 112, Note_on_c, 0, 65, 64
7, 112, Note_on_c, 0, 65, 64
7, 112, Note_on_c, 0, 70, 64
7, 113, Note_off_c, 0, 65, 64
7, 132, Note_off_c, 0, 74, 64
7, 132, Note_on_c, 0, 74, 64
7, 220, Note_off_c, 0, 65, 64
7, 220, Note_on_c, 0, 65, 64
7, 356, Note_off_c, 0, 74, 64
7, 356, Note_on_c, 0, 74, 64
7, 392, Note_off_c, 0, 70, 64
7, 396, Note_on_c, 0, 70, 64
7, 568, Note_off_c, 0, 58, 64
7, 568, Note_on_c, 0, 58, 64
7, 576, Note_off_c, 0, 65, 64
7, 576, Note_on_c, 0, 65, 64
7, 584, Note_off_c, 0, 70, 64
7, 584, Note_on_c, 0, 70, 64
7, 824, Note_off_c, 0, 74, 64
7, 824, Note_off_c, 0, 65, 64
7, 824, Note_on_c, 0, 72, 64
7, 824, Note_on_c, 0, 63, 64
7, 840, Note_off_c, 0, 72, 64
7, 844, Note_on_c, 0, 72, 64
7, 1012, Note_off_c, 0, 72, 64
7, 1012, Note_on_c, 0, 74, 64
7, 1028, Note_off_c, 0, 63, 64
7, 1028, Note_on_c, 0, 65, 64
7, 1052, Note_off_c, 0, 58, 64
7, 1056, Note_on_c, 0, 58, 64
7, 1068, Note_off_c, 0, 65, 64
7, 1068, Note_on_c, 0, 65, 64
7, 1080, Note_off_c, 0, 70, 64
7, 1080, Note_on_c, 0, 70, 64
7, 1100, Note_off_c, 0, 74, 64
7, 1100, Note_on_c, 0, 74, 64
7, 1188, Note_off_c, 0, 70, 64
7, 1192, Note_on_c, 0, 70, 64
7, 1312, Note_off_c, 0, 74, 64
7, 1312, Note_on_c, 0, 74, 64
7, 1516, Note_off_c, 0, 58, 64
7, 1516, Note_on_c, 0, 58, 64
7, 1528, Note_off_c, 0, 65, 64
7, 1528, Note_on_c, 0, 65, 64
7, 1540, Note_off_c, 0, 70, 64
7, 1544, Note_on_c, 0, 70, 64
7, 1592, Note_off_c, 0, 74, 64
7, 1592, Note_on_c, 0, 74, 64
7, 1756, Note_off_c, 0, 74, 64
7, 1756, Note_on_c, 0, 72, 64
7, 1788, Note_off_c, 0, 65, 64
7, 1788, Note_off_c, 0, 70, 64
7, 1788, Note_off_c, 0, 72, 64
7, 1788, Note_on_c, 0, 63, 64
7, 1788, Note_on_c, 0, 72, 64
7, 1788, Note_on_c, 0, 70, 64
7, 1984, Note_on_c, 0, 74, 64
7, 1988, Note_on_c, 0, 58, 64
7, 1996, Note_on_c, 0, 63, 64
7, 2004, Note_off_c, 0, 58, 64
7, 2004, Note_off_c, 0, 63, 64
7, 2004, Note_on_c, 0, 65, 64
7, 2004, Note_on_c, 0, 70, 64
7, 2008, Note_off_c, 0, 72, 64
7, 2008, Note_off_c, 0, 63, 64
7, 2020, Note_off_c, 0, 74, 64
7, 2020, Note_on_c, 0, 74, 64
7, 2024, Note_off_c, 0, 70, 64
7, 2224, Note_off_c, 0, 74, 64
7, 2232, Note_on_c, 0, 74, 64
7, 2240, Note_off_c, 0, 70, 64
7, 2240, Note_on_c, 0, 70, 64
7, 2444, Note_off_c, 0, 58, 64
7, 2444, Note_on_c, 0, 58, 64
7, 2456, Note_off_c, 0, 65, 64
7, 2460, Note_on_c, 0, 65, 64
7, 2464, Note_off_c, 0, 70, 64
7, 2464, Note_on_c, 0, 70, 64
7, 2480, Note_off_c, 0, 74, 64
7, 2480, Note_on_c, 0, 74, 64
7, 2704, Note_off_c, 0, 74, 64
7, 2704, Note_on_c, 0, 74, 64
7, 2736, Note_off_c, 0, 70, 64
7, 2736, Note_on_c, 0, 70, 64
7, 2740, Note_off_c, 0, 74, 64
7, 2740, Note_on_c, 0, 72, 64
7, 2752, Note_off_c, 0, 65, 64
7, 2752, Note_on_c, 0, 63, 64
7, 2880, Note_off_c, 0, 72, 64
7, 2880, Note_on_c, 0, 74, 64
7, 2900, Note_off_c, 0, 63, 64
7, 2908, Note_on_c, 0, 65, 64
7, 2944, Note_on_c, 0, 53, 64
7, 2952, Note_off_c, 0, 58, 64
7, 2952, Note_on_c, 0, 58, 64
7, 2972, Note_off_c, 0, 65, 64
7, 2972, Note_on_c, 0, 65, 64
7, 2976, Note_off_c, 0, 70, 64
7, 2976, Note_on_c, 0, 70, 64
7, 2992, Note_off_c, 0, 74, 64
7, 2992, Note_on_c, 0, 74, 64
7, 3216, Note_off_c, 0, 74, 64
7, 3216, Note_on_c, 0, 74, 64
7, 3228, Note_off_c, 0, 70, 64
7, 3228, Note_on_c, 0, 70, 64
7, 3440, Note_off_c, 0, 65, 64
7, 3440, Note_on_c, 0, 65, 64
7, 3452, Note_off_c, 0, 70, 64
7, 3452, Note_on_c, 0, 70, 64
7, 3520, Note_off_c, 0, 74, 64
7, 3520, Note_on_c, 0, 74, 64
7, 3676, Note_off_c, 0, 74, 64
7, 3692, Note_off_c, 0, 65, 64
7, 3692, Note_on_c, 0, 72, 64
7, 3692, Note_on_c, 0, 63, 64
7, 3692, Note_on_c, 0, 72, 64
7, 3693, Note_off_c, 0, 72, 64
7, 3700, Note_off_c, 0, 70, 64
7, 3700, Note_on_c, 0, 70, 64
7, 3712, Note_off_c, 0, 63, 64
7, 3712, Note_on_c, 0, 63, 64
7, 3880, Note_off_c, 0, 72, 64
7, 3888, Note_off_c, 0, 63, 64
7, 3900, Note_off_c, 0, 58, 64
7, 3928, Note_off_c, 0, 70, 64
7, 3944, Note_on_c, 0, 58, 64
7, 3944, Note_on_c, 0, 74, 64
7, 3952, Note_on_c, 0, 65, 64
7, 3952, Note_on_c, 0, 65, 64
7, 3952, Note_on_c, 0, 70, 64
7, 3953, Note_off_c, 0, 65, 64
7, 3972, Note_off_c, 0, 74, 64
7, 3972, Note_on_c, 0, 74, 64
7, 4060, Note_off_c, 0, 65, 64
7, 4060, Note_on_c, 0, 65, 64
7, 4196, Note_off_c, 0, 74, 64
7, 4196, Note_on_c, 0, 74, 64
7, 4232, Note_off_c, 0, 70, 64
7, 4236, Note_on_c, 0, 70, 64
7, 4408, Note_off_c, 0, 58, 64
7, 4408, Note_on_c, 0, 58, 64
7, 4416, Note_off_c, 0, 65, 64
7, 4416, Note_on_c, 0, 65, 64
7, 4424, Note_off_c, 0, 70, 64
7, 4424, Note_on_c, 0, 70, 64
7, 4444, Note_off_c, 0, 53, 64
7, 4664, Note_off_c, 0, 74, 64
7, 4664, Note_off_c, 0, 65, 64
7, 4664, Note_on_c, 0, 72, 64
7, 4664, Note_on_c, 0, 63, 64
7, 4680, Note_off_c, 0, 72, 64
7, 4684, Note_on_c, 0, 72, 64
7, 4852, Note_off_c, 0, 72, 64
7, 4852, Note_on_c, 0, 74, 64
7, 4868, Note_off_c, 0, 63, 64
7, 4868, Note_on_c, 0, 65, 64
7, 4892, Note_off_c, 0, 58, 64
7, 4896, Note_on_c, 0, 58, 64
7, 4908, Note_off_c, 0, 65, 64
7, 4908, Note_on_c, 0, 65, 64
7, 4920, Note_off_c, 0, 70, 64
7, 4920, Note_on_c, 0, 70, 64
7, 4940, Note_off_c, 0, 74, 64
7, 4940, Note_on_c, 0, 74, 64
7, 5028, Note_off_c, 0, 70, 64
7, 5032, Note_on_c, 0, 70, 64
7, 5152, Note_off_c, 0, 74, 64
7, 5152, Note_on_c, 0, 74, 64
7, 5356, Note_off_c, 0, 58, 64
7, 5356, Note_on_c, 0, 58, 64
7, 5368, Note_off_c, 0, 65, 64
7, 5368, Note_on_c, 0, 65, 64
7, 5380, Note_off_c, 0, 70, 64
7, 5384, Note_on_c, 0, 70, 64
7, 5432, Note_off_c, 0, 74, 64
7, 5432, Note_on_c, 0, 74, 64
7, 5596, Note_off_c, 0, 74, 64
7, 5596, Note_on_c, 0, 72, 64
7, 5628, Note_off_c, 0, 65, 64
7, 5628, Note_off_c, 0, 70, 64
7, 5628, Note_off_c, 0, 72, 64
7, 5628, Note_on_c, 0, 63, 64
7, 5628, Note_on_c, 0, 72, 64
7, 5628, Note_on_c, 0, 70, 64
7, 5828, Note_on_c, 0, 53, 64
7, 5844, Note_off_c, 0, 58, 64
7, 5844, Note_on_c, 0, 58, 64
7, 5848, Note_off_c, 0, 63, 64
7, 5848, Note_off_c, 0, 72, 64
7, 5848, Note_on_c, 0, 74, 64
7, 5848, Note_on_c, 0, 65, 64
7, 5860, Note_off_c, 0, 65, 64
7, 5864, Note_off_c, 0, 70, 64
7, 5864, Note_on_c, 0, 65, 64
7, 5864, Note_on_c, 0, 70, 64
7, 6092, Note_off_c, 0, 74, 64
7, 6096, Note_on_c, 0, 74, 64
7, 6104, Note_off_c, 0, 70, 64
7, 6104, Note_on_c, 0, 70, 64
7, 6300, Note_off_c, 0, 58, 64
7, 6300, Note_on_c, 0, 58, 64
7, 6312, Note_off_c, 0, 65, 64
7, 6312, Note_on_c, 0, 65, 64
7, 6324, Note_off_c, 0, 70, 64
7, 6324, Note_on_c, 0, 70, 64
7, 6340, Note_off_c, 0, 74, 64
7, 6340, Note_on_c, 0, 74, 64
7, 6560, Note_off_c, 0, 74, 64
7, 6560, Note_on_c, 0, 74, 64
7, 6568, Note_off_c, 0, 70, 64
7, 6568, Note_off_c, 0, 74, 64
7, 6568, Note_on_c, 0, 72, 64
7, 6568, Note_on_c, 0, 70, 64
7, 6600, Note_off_c, 0, 65, 64
7, 6600, Note_on_c, 0, 63, 64
7, 6760, Note_off_c, 0, 63, 64
7, 6760, Note_on_c, 0, 64, 64
7, 6768, Note_off_c, 0, 72, 64
7, 6772, Note_on_c, 0, 74, 64
7, 6788, Note_off_c, 0, 58, 64
7, 6788, Note_on_c, 0, 58, 64
7, 6796, Note_off_c, 0, 64, 64
7, 6796, Note_on_c, 0, 65, 64
7, 6797, Note_off_c, 0, 65, 64
7, 6804, Note_on_c, 0, 65, 64
7, 6808, Note_off_c, 0, 70, 64
7, 6808, Note_on_c, 0, 70, 64
7, 6836, Note_off_c, 0, 74, 64
7, 6840, Note_on_c, 0, 74, 64
7, 7040, Note_off_c, 0, 74, 64
7, 7040, Note_on_c, 0, 74, 64
7, 7260, Note_off_c, 0, 58, 64
7, 7260, Note_on_c, 0, 58, 64
7, 7264, Note_off_c, 0, 65, 64
7, 7264, Note_on_c, 0, 65, 64
7, 7280, Note_off_c, 0, 70, 64
7, 7280, Note_on_c, 0, 70, 64
7, 7328, Note_off_c, 0, 53, 64
7, 7504, Note_off_c, 0, 74, 64
7, 7508, Note_on_c, 0, 74, 64
7, 7520, Note_off_c, 0, 74, 64
7, 7520, Note_on_c, 0, 72, 64
7, 7540, Note_off_c, 0, 65, 64
7, 7540, Note_on_c, 0, 63, 64
7, 7744, Note_off_c, 0, 58, 64
7, 7744, Note_off_c, 0, 72, 64
7, 7744, Note_on_c, 0, 74, 64
7, 7748, Note_off_c, 0, 63, 64
7, 7748, Note_on_c, 0, 58, 64
7, 7756, Note_on_c, 0, 63, 64
7, 7764, Note_off_c, 0, 63, 64
7, 7764, Note_off_c, 0, 70, 64
7, 7764, Note_on_c, 0, 65, 64
7, 7764, Note_on_c, 0, 70, 64
7, 7780, Note_off_c, 0, 74, 64
7, 7780, Note_on_c, 0, 74, 64
7, 7984, Note_off_c, 0, 74, 64
7, 7992, Note_on_c, 0, 74, 64
7, 8000, Note_off_c, 0, 70, 64
7, 8000, Note_on_c, 0, 70, 64
7, 8204, Note_off_c, 0, 58, 64
7, 8204, Note_on_c, 0, 58, 64
7, 8216, Note_off_c, 0, 65, 64
7, 8220, Note_on_c, 0, 65, 64
7, 8224, Note_off_c, 0, 70, 64
7, 8224, Note_on_c, 0, 70, 64
7, 8240, Note_off_c, 0, 74, 64
7, 8240, Note_on_c, 0, 74, 64
7, 8464, Note_off_c, 0, 74, 64
7, 8464, Note_on_c, 0, 74, 64
7, 8496, Note_off_c, 0, 70, 64
7, 8496, Note_on_c, 0, 70, 64
7, 8500, Note_off_c, 0, 74, 64
7, 8500, Note_on_c, 0, 72, 64
7, 8512, Note_off_c, 0, 65, 64
7, 8512, Note_on_c, 0, 63, 64
7, 8640, Note_off_c, 0, 72, 64
7, 8640, Note_on_c, 0, 74, 64
7, 8660, Note_off_c, 0, 63, 64
7, 8668, Note_on_c, 0, 65, 64
7, 8704, Note_on_c, 0, 53, 64
7, 8712, Note_off_c, 0, 58, 64
7, 8712, Note_on_c, 0, 58, 64
7, 8732, Note_off_c, 0, 65, 64
7, 8732, Note_on_c, 0, 65, 64
7, 8736, Note_off_c, 0, 70, 64
7, 8736, Note_on_c, 0, 70, 64
7, 8752, Note_off_c, 0, 74, 64
7, 8752, Note_on_c, 0, 74, 64
7, 8976, Note_off_c, 0, 74, 64
7, 8976, Note_on_c, 0, 74, 64
7, 8988, Note_off_c, 0, 70, 64
7, 8988, Note_on_c, 0, 70, 64
7, 9200, Note_off_c, 0, 65, 64
7, 9200, Note_on_c, 0, 65, 64
7, 9212, Note_off_c, 0, 70, 64
7, 9212, Note_on_c, 0, 70, 64
7, 9280, Note_off_c, 0, 74, 64
7, 9280, Note_on_c, 0, 74, 64
7, 9436, Note_off_c, 0, 74, 64
7, 9452, Note_off_c, 0, 65, 64
7, 9452, Note_on_c, 0, 72, 64
7, 9452, Note_on_c, 0, 63, 64
7, 9452, Note_on_c, 0, 72, 64
7, 9453, Note_off_c, 0, 72, 64
7, 9460, Note_off_c, 0, 70, 64
7, 9460, Note_on_c, 0, 70, 64
7, 9472, Note_off_c, 0, 63, 64
7, 9472, Note_on_c, 0, 63, 64
7, 9640, Note_off_c, 0, 72, 64
7, 9640, Note_on_c, 0, 74, 64
7, 9648, Note_off_c, 0, 63, 64
7, 9648, Note_on_c, 0, 65, 64
7, 9660, Note_off_c, 0, 58, 64
7, 9660, Note_on_c, 0, 58, 64
7, 9680, Note_off_c, 0, 65, 64
7, 9680, Note_on_c, 0, 65, 64
7, 9688, Note_off_c, 0, 70, 64
7, 9688, Note_on_c, 0, 70, 64
7, 9708, Note_off_c, 0, 74, 64
7, 9708, Note_on_c, 0, 74, 64
7, 9912, Note_off_c, 0, 74, 64
7, 9912, Note_on_c, 0, 74, 64
7, 9920, Note_off_c, 0, 70, 64
7, 9920, Note_on_c, 0, 70, 64
7, 10128, Note_off_c, 0, 58, 64
7, 10128, Note_on_c, 0, 58, 64
7, 10148, Note_off_c, 0, 65, 64
7, 10148, Note_on_c, 0, 65, 64
7, 10156, Note_off_c, 0, 70, 64
7, 10156, Note_on_c, 0, 70, 64
7, 10176, Note_off_c, 0, 74, 64
7, 10176, Note_on_c, 0, 74, 64
7, 10204, Note_off_c, 0, 53, 64
7, 10384, Note_off_c, 0, 74, 64
7, 10384, Note_on_c, 0, 72, 64
7, 10396, Note_off_c, 0, 72, 64
7, 10396, Note_on_c, 0, 72, 64
7, 10400, Note_off_c, 0, 65, 64
7, 10400, Note_on_c, 0, 63, 64
7, 10420, Note_off_c, 0, 70, 64
7, 10420, Note_on_c, 0, 70, 64
7, 10596, Note_off_c, 0, 72, 64
7, 10600, Note_off_c, 0, 58, 64
7, 10600, Note_on_c, 0, 74, 64
7, 10600, Note_on_c, 0, 58, 64
7, 10612, Note_off_c, 0, 63, 64
7, 10612, Note_on_c, 0, 63, 64
7, 10620, Note_off_c, 0, 70, 64
7, 10620, Note_off_c, 0, 63, 64
7, 10620, Note_on_c, 0, 65, 64
7, 10620, Note_on_c, 0, 70, 64
7, 10636, Note_off_c, 0, 74, 64
7, 10636, Note_on_c, 0, 74, 64
7, 10836, Note_off_c, 0, 74, 64
7, 10836, Note_on_c, 0, 74, 64
7, 10844, Note_off_c, 0, 70, 64
7, 10844, Note_on_c, 0, 70, 64
7, 10856, Note_off_c, 0, 65, 64
7, 10856, Note_on_c, 0, 65, 64
7, 11040, Note_off_c, 0, 58, 64
7, 11040, Note_off_c, 0, 70, 64
7, 11040, Note_off_c, 0, 65, 64
7, 11040, Note_on_c, 0, 58, 64
7, 11040, Note_on_c, 0, 65, 64
7, 11040, Note_on_c, 0, 70, 64
7, 11084, Note_off_c, 0, 74, 64
7, 11084, Note_on_c, 0, 74, 64
7, 11184, Note_off_c, 0, 70, 64
7, 11184, Note_on_c, 0, 67, 64
7, 11240, Note_off_c, 0, 74, 64
7, 11240, Note_on_c, 0, 72, 64
7, 11300, Note_off_c, 0, 65, 64
7, 11300, Note_on_c, 0, 63, 64
7, 11304, Note_off_c, 0, 72, 64
7, 11304, Note_on_c, 0, 75, 64
7, 11312, Note_off_c, 0, 75, 64
7, 11320, Note_off_c, 0, 67, 64
7, 11320, Note_on_c, 0, 75, 64
7, 11320, Note_on_c, 0, 67, 64
7, 11332, Note_off_c, 0, 63, 64
7, 11340, Note_on_c, 0, 63, 64
7, 11540, Note_on_c, 0, 51, 64
7, 11540, Note_on_c, 0, 55, 64
7, 11560, Note_off_c, 0, 58, 64
7, 11560, Note_on_c, 0, 58, 64
7, 11568, Note_off_c, 0, 63, 64
7, 11576, Note_on_c, 0, 63, 64
7, 11580, Note_off_c, 0, 67, 64
7, 11580, Note_on_c, 0, 67, 64
7, 11588, Note_off_c, 0, 75, 64
7, 11588, Note_on_c, 0, 75, 64
7, 11800, Note_off_c, 0, 75, 64
7, 11800, Note_on_c, 0, 75, 64
7, 11816, Note_off_c, 0, 67, 64
7, 11816, Note_on_c, 0, 67, 64
7, 11824, Note_off_c, 0, 63, 64
7, 11824, Note_on_c, 0, 63, 64
7, 12048, Note_off_c, 0, 55, 64
7, 12048, Note_on_c, 0, 55, 64
7, 12064, Note_off_c, 0, 58, 64
7, 12064, Note_on_c, 0, 58, 64
7, 12068, Note_off_c, 0, 63, 64
7, 12068, Note_on_c, 0, 63, 64
7, 12084, Note_off_c, 0, 67, 64
7, 12084, Note_on_c, 0, 67, 64
7, 12100, Note_off_c, 0, 75, 64
7, 12100, Note_on_c, 0, 75, 64
7, 12308, Note_off_c, 0, 75, 64
7, 12308, Note_on_c, 0, 75, 64
7, 12316, Note_off_c, 0, 67, 64
7, 12316, Note_on_c, 0, 67, 64
7, 12320, Note_off_c, 0, 55, 64
7, 12320, Note_off_c, 0, 63, 64
7, 12320, Note_on_c, 0, 53, 64
7, 12320, Note_on_c, 0, 63, 64
7, 12340, Note_off_c, 0, 58, 64
7, 12340, Note_on_c, 0, 58, 64
7, 12360, Note_off_c, 0, 51, 64
7, 12360, Note_on_c, 0, 48, 64
7, 12456, Note_off_c, 0, 48, 64
7, 12456, Note_on_c, 0, 51, 64
7, 12480, Note_off_c, 0, 53, 64
7, 12480, Note_on_c, 0, 55, 64
7, 12520, Note_off_c, 0, 51, 64
7, 12520, Note_on_c, 0, 51, 64
7, 12524, Note_off_c, 0, 55, 64
7, 12524, Note_on_c, 0, 55, 64
7, 12544, Note_off_c, 0, 58, 64
7, 12544, Note_on_c, 0, 58, 64
7, 12552, Note_off_c, 0, 63, 64
7, 12556, Note_on_c, 0, 63, 64
7, 12572, Note_off_c, 0, 67, 64
7, 12572, Note_on_c, 0, 67, 64
7, 12644, Note_off_c, 0, 75, 64
7, 12644, Note_on_c, 0, 75, 64
7, 12792, Note_off_c, 0, 75, 64
7, 12796, Note_on_c, 0, 75, 64
7, 12800, Note_off_c, 0, 67, 64
7, 12808, Note_on_c, 0, 67, 64
7, 12812, Note_off_c, 0, 63, 64
7, 12812, Note_on_c, 0, 63, 64
7, 13016, Note_off_c, 0, 55, 64
7, 13016, Note_on_c, 0, 55, 64
7, 13024, Note_off_c, 0, 58, 64
7, 13024, Note_on_c, 0, 58, 64
7, 13040, Note_off_c, 0, 63, 64
7, 13040, Note_on_c, 0, 63, 64
7, 13048, Note_off_c, 0, 67, 64
7, 13048, Note_on_c, 0, 67, 64
7, 13056, Note_off_c, 0, 75, 64
7, 13056, Note_on_c, 0, 75, 64
7, 13264, Note_off_c, 0, 55, 64
7, 13264, Note_on_c, 0, 53, 64
7, 13276, Note_off_c, 0, 75, 64
7, 13276, Note_on_c, 0, 75, 64
7, 13280, Note_off_c, 0, 51, 64
7, 13280, Note_off_c, 0, 63, 64
7, 13280, Note_off_c, 0, 67, 64
7, 13280, Note_on_c, 0, 48, 64
7, 13280, Note_on_c, 0, 67, 64
7, 13280, Note_on_c, 0, 63, 64
7, 13432, Note_off_c, 0, 53, 64
7, 13432, Note_on_c, 0, 55, 64
7, 13436, Note_off_c, 0, 48, 64
7, 13436, Note_on_c, 0, 51, 64
7, 13512, Note_off_c, 0, 55, 64
7, 13516, Note_on_c, 0, 55, 64
7, 13520, Note_off_c, 0, 58, 64
7, 13520, Note_on_c, 0, 58, 64
7, 13532, Note_off_c, 0, 63, 64
7, 13532, Note_on_c, 0, 63, 64
7, 13544, Note_off_c, 0, 67, 64
7, 13544, Note_on_c, 0, 67, 64
7, 13560, Note_off_c, 0, 75, 64
7, 13560, Note_on_c, 0, 75, 64
7, 13764, Note_off_c, 0, 75, 64
7, 13764, Note_on_c, 0, 75, 64
7, 13780, Note_off_c, 0, 67, 64
7, 13780, Note_on_c, 0, 67, 64
7, 13788, Note_off_c, 0, 63, 64
7, 13788, Note_on_c, 0, 63, 64
7, 13984, Note_off_c, 0, 58, 64
7, 13984, Note_on_c, 0, 58, 64
7, 14000, Note_off_c, 0, 63, 64
7, 14000, Note_on_c, 0, 63, 64
7, 14012, Note_off_c, 0, 67, 64
7, 14012, Note_on_c, 0, 67, 64
7, 14076, Note_off_c, 0, 75, 64
7, 14076, Note_on_c, 0, 75, 64
7, 14172, Note_off_c, 0, 55, 64
7, 14172, Note_on_c, 0, 53, 64
7, 14208, Note_off_c, 0, 51, 64
7, 14212, Note_on_c, 0, 48, 64
7, 14236, Note_off_c, 0, 75, 64
7, 14236, Note_on_c, 0, 75, 64
7, 14240, Note_off_c, 0, 67, 64
7, 14240, Note_on_c, 0, 67, 64
7, 14260, Note_off_c, 0, 63, 64
7, 14260, Note_on_c, 0, 63, 64
7, 14272, Note_off_c, 0, 58, 64
7, 14272, Note_on_c, 0, 58, 64
7, 14356, Note_off_c, 0, 48, 64
7, 14356, Note_on_c, 0, 51, 64
7, 14396, Note_off_c, 0, 53, 64
7, 14396, Note_on_c, 0, 55, 64
7, 14460, Note_off_c, 0, 55, 64
7, 14460, Note_on_c, 0, 55, 64
7, 14472, Note_off_c, 0, 58, 64
7, 14472, Note_on_c, 0, 58, 64
7, 14484, Note_off_c, 0, 63, 64
7, 14484, Note_on_c, 0, 63, 64
7, 14492, Note_off_c, 0, 67, 64
7, 14492, Note_on_c, 0, 67, 64
7, 14704, Note_off_c, 0, 75, 64
7, 14704, Note_on_c, 0, 75, 64
7, 14716, Note_off_c, 0, 67, 64
7, 14716, Note_on_c, 0, 67, 64
7, 14720, Note_off_c, 0, 63, 64
7, 14720, Note_on_c, 0, 63, 64
7, 14740, Note_off_c, 0, 58, 64
7, 14740, Note_on_c, 0, 58, 64
7, 14912, Note_off_c, 0, 58, 64
7, 14916, Note_on_c, 0, 58, 64
7, 14924, Note_off_c, 0, 63, 64
7, 14924, Note_on_c, 0, 63, 64
7, 14936, Note_off_c, 0, 67, 64
7, 14936, Note_on_c, 0, 67, 64
7, 14948, Note_off_c, 0, 75, 64
7, 14948, Note_on_c, 0, 75, 64
7, 14968, Note_off_c, 0, 55, 64
7, 14972, Note_on_c, 0, 53, 64
7, 15040, Note_off_c, 0, 51, 64
7, 15040, Note_on_c, 0, 48, 64
7, 15168, Note_off_c, 0, 75, 64
7, 15168, Note_on_c, 0, 72, 64
7, 15180, Note_off_c, 0, 72, 64
7, 15184, Note_on_c, 0, 72, 64
7, 15196, Note_off_c, 0, 67, 64
7, 15196, Note_on_c, 0, 67, 64
7, 15344, Note_off_c, 0, 63, 64
7, 15344, Note_on_c, 0, 65, 64
7, 15380, Note_off_c, 0, 67, 64
7, 15380, Note_on_c, 0, 70, 64
7, 15396, Note_off_c, 0, 58, 64
7, 15396, Note_on_c, 0, 58, 64
7, 15412, Note_off_c, 0, 72, 64
7, 15412, Note_on_c, 0, 74, 64
7, 15416, Note_off_c, 0, 65, 64
7, 15416, Note_on_c, 0, 65, 64
7, 15424, Note_off_c, 0, 70, 64
7, 15424, Note_off_c, 0, 74, 64
7, 15424, Note_on_c, 0, 74, 64
7, 15424, Note_on_c, 0, 70, 64
7, 15648, Note_off_c, 0, 74, 64
7, 15648, Note_on_c, 0, 74, 64
7, 15664, Note_off_c, 0, 70, 64
7, 15668, Note_on_c, 0, 70, 64
7, 15860, Note_off_c, 0, 53, 64
7, 15860, Note_off_c, 0, 58, 64
7, 15860, Note_on_c, 0, 53, 64
7, 15860, Note_on_c, 0, 58, 64
7, 15884, Note_off_c, 0, 65, 64
7, 15884, Note_on_c, 0, 65, 64
7, 15900, Note_off_c, 0, 70, 64
7, 15900, Note_on_c, 0, 70, 64
7, 15912, Note_off_c, 0, 74, 64
7, 15912, Note_on_c, 0, 74, 64
7, 16140, Note_off_c, 0, 74, 64
7, 16148, Note_on_c, 0, 74, 64
7, 16156, Note_off_c, 0, 70, 64
7, 16156, Note_off_c, 0, 74, 64
7, 16156, Note_on_c, 0, 72, 64
7, 16168, Note_on_c, 0, 70, 64
7, 16176, Note_off_c, 0, 65, 64
7, 16180, Note_on_c, 0, 63, 64
7, 16344, Note_off_c, 0, 53, 64
7, 16344, Note_on_c, 0, 53, 64
7, 16348, Note_off_c, 0, 58, 64
7, 16348, Note_off_c, 0, 63, 64
7, 16348, Note_on_c, 0, 65, 64
7, 16348, Note_on_c, 0, 58, 64
7, 16360, Note_off_c, 0, 72, 64
7, 16360, Note_on_c, 0, 74, 64
7, 16368, Note_off_c, 0, 65, 64
7, 16376, Note_on_c, 0, 65, 64
7, 16380, Note_off_c, 0, 70, 64
7, 16380, Note_on_c, 0, 70, 64
7, 16392, Note_off_c, 0, 74, 64
7, 16392, Note_on_c, 0, 74, 64
7, 16536, Note_off_c, 0, 48, 64
7, 16608, Note_off_c, 0, 74, 64
7, 16608, Note_on_c, 0, 74, 64
7, 16840, Note_off_c, 0, 58, 64
7, 16840, Note_on_c, 0, 58, 64
7, 16852, Note_off_c, 0, 65, 64
7, 16852, Note_on_c, 0, 65, 64
7, 16864, Note_off_c, 0, 70, 64
7, 16864, Note_on_c, 0, 70, 64
7, 16880, Note_off_c, 0, 74, 64
7, 16880, Note_on_c, 0, 74, 64
7, 17104, Note_off_c, 0, 74, 64
7, 17104, Note_on_c, 0, 72, 64
7, 17116, Note_off_c, 0, 65, 64
7, 17120, Note_off_c, 0, 70, 64
7, 17120, Note_off_c, 0, 72, 64
7, 17120, Note_on_c, 0, 63, 64
7, 17120, Note_on_c, 0, 72, 64
7, 17120, Note_on_c, 0, 70, 64
7, 17300, Note_off_c, 0, 72, 64
7, 17300, Note_off_c, 0, 63, 64
7, 17300, Note_on_c, 0, 74, 64
7, 17300, Note_on_c, 0, 65, 64
7, 17332, Note_off_c, 0, 53, 64
7, 17332, Note_on_c, 0, 53, 64
7, 17344, Note_off_c, 0, 58, 64
7, 17344, Note_on_c, 0, 58, 64
7, 17360, Note_off_c, 0, 65, 64
7, 17360, Note_on_c, 0, 65, 64
7, 17372, Note_off_c, 0, 70, 64
7, 17376, Note_on_c, 0, 70, 64
7, 17392, Note_off_c, 0, 74, 64
7, 17392, Note_on_c, 0, 74, 64
7, 17604, Note_off_c, 0, 74, 64
7, 17604, Note_on_c, 0, 74, 64
7, 17804, Note_off_c, 0, 58, 64
7, 17804, Note_on_c, 0, 58, 64
7, 17812, Note_off_c, 0, 65, 64
7, 17812, Note_on_c, 0, 65, 64
7, 17824, Note_off_c, 0, 70, 64
7, 17824, Note_on_c, 0, 70, 64
7, 17844, Note_off_c, 0, 74, 64
7, 17844, Note_on_c, 0, 74, 64
7, 18040, Note_off_c, 0, 74, 64
7, 18040, Note_on_c, 0, 72, 64
7, 18056, Note_off_c, 0, 65, 64
7, 18056, Note_on_c, 0, 63, 64
7, 18080, Note_off_c, 0, 72, 64
7, 18080, Note_on_c, 0, 72, 64
7, 18096, Note_off_c, 0, 70, 64
7, 18096, Note_on_c, 0, 70, 64
7, 18100, Note_off_c, 0, 63, 64
7, 18100, Note_on_c, 0, 63, 64
7, 18300, Note_off_c, 0, 53, 64
7, 18300, Note_off_c, 0, 72, 64
7, 18300, Note_off_c, 0, 63, 64
7, 18300, Note_on_c, 0, 74, 64
7, 18300, Note_on_c, 0, 65, 64
7, 18300, Note_on_c, 0, 53, 64
7, 18316, Note_off_c, 0, 58, 64
7, 18316, Note_on_c, 0, 58, 64
7, 18324, Note_off_c, 0, 65, 64
7, 18332, Note_on_c, 0, 65, 64
7, 18336, Note_off_c, 0, 70, 64
7, 18336, Note_on_c, 0, 70, 64
7, 18352, Note_off_c, 0, 74, 64
7, 18352, Note_on_c, 0, 74, 64
7, 18576, Note_off_c, 0, 74, 64
7, 18588, Note_off_c, 0, 70, 64
7, 18588, Note_on_c, 0, 74, 64
7, 18588, Note_on_c, 0, 70, 64
7, 18596, Note_off_c, 0, 65, 64
7, 18596, Note_on_c, 0, 65, 64
7, 18772, Note_off_c, 0, 58, 64
7, 18772, Note_on_c, 0, 58, 64
7, 18784, Note_off_c, 0, 65, 64
7, 18784, Note_on_c, 0, 65, 64
7, 18792, Note_off_c, 0, 70, 64
7, 18792, Note_on_c, 0, 70, 64
7, 18808, Note_off_c, 0, 74, 64
7, 18808, Note_on_c, 0, 74, 64
7, 18908, Note_off_c, 0, 70, 64
7, 18908, Note_on_c, 0, 70, 64
7, 18972, Note_off_c, 0, 70, 64
7, 18972, Note_on_c, 0, 69, 64
7, 19004, Note_off_c, 0, 74, 64
7, 19008, Note_off_c, 0, 69, 64
7, 19008, Note_on_c, 0, 72, 64
7, 19008, Note_on_c, 0, 67, 64
7, 19040, Note_off_c, 0, 72, 64
7, 19040, Note_on_c, 0, 72, 64
7, 19056, Note_off_c, 0, 65, 64
7, 19064, Note_off_c, 0, 67, 64
7, 19064, Note_on_c, 0, 63, 64
7, 19064, Note_on_c, 0, 67, 64
7, 19200, Note_off_c, 0, 63, 64
7, 19200, Note_on_c, 0, 65, 64
7, 19236, Note_off_c, 0, 67, 64
7, 19236, Note_on_c, 0, 69, 64
7, 19240, Note_off_c, 0, 58, 64
7, 19240, Note_on_c, 0, 60, 64
7, 19268, Note_off_c, 0, 53, 64
7, 19268, Note_on_c, 0, 53, 64
7, 19284, Note_off_c, 0, 60, 64
7, 19284, Note_on_c, 0, 60, 64
7, 19304, Note_off_c, 0, 65, 64
7, 19304, Note_on_c, 0, 65, 64
7, 19320, Note_off_c, 0, 69, 64
7, 19320, Note_on_c, 0, 69, 64
7, 19328, Note_off_c, 0, 72, 64
7, 19328, Note_on_c, 0, 72, 64
7, 19528, Note_off_c, 0, 72, 64
7, 19528, Note_on_c, 0, 72, 64
7, 19544, Note_off_c, 0, 69, 64
7, 19544, Note_on_c, 0, 69, 64
7, 19548, Note_off_c, 0, 65, 64
7, 19548, Note_on_c, 0, 65, 64
7, 19740, Note_off_c, 0, 53, 64
7, 19744, Note_on_c, 0, 53, 64
7, 19748, Note_off_c, 0, 60, 64
7, 19748, Note_on_c, 0, 60, 64
7, 19760, Note_off_c, 0, 65, 64
7, 19760, Note_on_c, 0, 65, 64
7, 19772, Note_off_c, 0, 69, 64
7, 19772, Note_on_c, 0, 69, 64
7, 19796, Note_off_c, 0, 72, 64
7, 19796, Note_on_c, 0, 72, 64
7, 19988, Note_off_c, 0, 69, 64
7, 19988, Note_off_c, 0, 72, 64
7, 19988, Note_on_c, 0, 67, 64
7, 19988, Note_on_c, 0, 72, 64
7, 20000, Note_off_c, 0, 67, 64
7, 20000, Note_on_c, 0, 67, 64
7, 20020, Note_off_c, 0, 65, 64
7, 20020, Note_on_c, 0, 65, 64
7, 20040, Note_off_c, 0, 65, 64
7, 20040, Note_on_c, 0, 63, 64
7, 20052, Note_off_c, 0, 60, 64
7, 20052, Note_on_c, 0, 58, 64
7, 20180, Note_off_c, 0, 63, 64
7, 20184, Note_off_c, 0, 58, 64
7, 20184, Note_on_c, 0, 65, 64
7, 20184, Note_on_c, 0, 60, 64
7, 20204, Note_off_c, 0, 67, 64
7, 20204, Note_on_c, 0, 69, 64
7, 20228, Note_off_c, 0, 53, 64
7, 20236, Note_on_c, 0, 53, 64
7, 20244, Note_off_c, 0, 60, 64
7, 20244, Note_on_c, 0, 60, 64
7, 20256, Note_off_c, 0, 65, 64
7, 20256, Note_on_c, 0, 65, 64
7, 20268, Note_off_c, 0, 69, 64
7, 20268, Note_on_c, 0, 69, 64
7, 20484, Note_off_c, 0, 72, 64
7, 20484, Note_on_c, 0, 72, 64
7, 20492, Note_off_c, 0, 69, 64
7, 20492, Note_on_c, 0, 69, 64
7, 20508, Note_off_c, 0, 65, 64
7, 20508, Note_on_c, 0, 65, 64
7, 20692, Note_off_c, 0, 60, 64
7, 20692, Note_on_c, 0, 60, 64
7, 20708, Note_off_c, 0, 65, 64
7, 20708, Note_on_c, 0, 65, 64
7, 20716, Note_off_c, 0, 69, 64
7, 20716, Note_on_c, 0, 69, 64
7, 20724, Note_off_c, 0, 72, 64
7, 20724, Note_on_c, 0, 72, 64
7, 20892, Note_off_c, 0, 69, 64
7, 20892, Note_on_c, 0, 67, 64
7, 20920, Note_off_c, 0, 65, 64
7, 20920, Note_on_c, 0, 63, 64
7, 20940, Note_off_c, 0, 60, 64
7, 20948, Note_on_c, 0, 58, 64
7, 20952, Note_off_c, 0, 72, 64
7, 20952, Note_on_c, 0, 72, 64
7, 20960, Note_off_c, 0, 67, 64
7, 20960, Note_on_c, 0, 67, 64
7, 21004, Note_off_c, 0, 72, 64
7, 21012, Note_on_c, 0, 75, 64
7, 21140, Note_off_c, 0, 53, 64
7, 21140, Note_on_c, 0, 55, 64
7, 21172, Note_off_c, 0, 55, 64
7, 21172, Note_on_c, 0, 55, 64
7, 21184, Note_off_c, 0, 58, 64
7, 21184, Note_on_c, 0, 58, 64
7, 21204, Note_off_c, 0, 63, 64
7, 21204, Note_on_c, 0, 63, 64
7, 21212, Note_off_c, 0, 67, 64
7, 21212, Note_on_c, 0, 67, 64
7, 21228, Note_off_c, 0, 75, 64
7, 21228, Note_on_c, 0, 75, 64
7, 21424, Note_off_c, 0, 75, 64
7, 21424, Note_on_c, 0, 75, 64
7, 21440, Note_off_c, 0, 67, 64
7, 21440, Note_on_c, 0, 67, 64
7, 21660, Note_off_c, 0, 55, 64
7, 21664, Note_on_c, 0, 55, 64
7, 21672, Note_off_c, 0, 58, 64
7, 21672, Note_on_c, 0, 58, 64
7, 21684, Note_off_c, 0, 63, 64
7, 21684, Note_on_c, 0, 63, 64
7, 21696, Note_off_c, 0, 67, 64
7, 21696, Note_on_c, 0, 67, 64
7, 21704, Note_off_c, 0, 75, 64
7, 21704, Note_on_c, 0, 75, 64
7, 21920, Note_off_c, 0, 75, 64
7, 21920, Note_on_c, 0, 75, 64
7, 21936, Note_off_c, 0, 67, 64
7, 21936, Note_on_c, 0, 67, 64
7, 21948, Note_off_c, 0, 55, 64
7, 21948, Note_off_c, 0, 63, 64
7, 21948, Note_on_c, 0, 53, 64
7, 21948, Note_on_c, 0, 63, 64
7, 21960, Note_off_c, 0, 58, 64
7, 21960, Note_on_c, 0, 58, 64
7, 22096, Note_off_c, 0, 53, 64
7, 22096, Note_on_c, 0, 55, 64
7, 22144, Note_off_c, 0, 55, 64
7, 22144, Note_on_c, 0, 55, 64
7, 22152, Note_off_c, 0, 58, 64
7, 22152, Note_on_c, 0, 58, 64
7, 22156, Note_off_c, 0, 63, 64
7, 22156, Note_on_c, 0, 63, 64
7, 22172, Note_off_c, 0, 67, 64
7, 22172, Note_on_c, 0, 67, 64
7, 22184, Note_off_c, 0, 75, 64
7, 22188, Note_on_c, 0, 75, 64
7, 22420, Note_off_c, 0, 75, 64
7, 22420, Note_on_c, 0, 75, 64
7, 22432, Note_off_c, 0, 67, 64
7, 22440, Note_on_c, 0, 67, 64
7, 22624, Note_off_c, 0, 58, 64
7, 22624, Note_on_c, 0, 58, 64
7, 22640, Note_off_c, 0, 63, 64
7, 22640, Note_on_c, 0, 63, 64
7, 22648, Note_off_c, 0, 67, 64
7, 22648, Note_on_c, 0, 67, 64
7, 22660, Note_off_c, 0, 75, 64
7, 22664, Note_on_c, 0, 75, 64
7, 22772, Note_off_c, 0, 55, 64
7, 22776, Note_on_c, 0, 53, 64
7, 22896, Note_off_c, 0, 75, 64
7, 22896, Note_on_c, 0, 75, 64
7, 22900, Note_off_c, 0, 67, 64
7, 22900, Note_off_c, 0, 75, 64
7, 22900, Note_on_c, 0, 72, 64
7, 22900, Note_on_c, 0, 67, 64
7, 23076, Note_off_c, 0, 63, 64
7, 23076, Note_on_c, 0, 65, 64
7, 23108, Note_off_c, 0, 67, 64
7, 23108, Note_on_c, 0, 70, 64
7, 23116, Note_off_c, 0, 58, 64
7, 23116, Note_on_c, 0, 58, 64
7, 23124, Note_off_c, 0, 65, 64
7, 23128, Note_off_c, 0, 72, 64
7, 23128, Note_off_c, 0, 70, 64
7, 23128, Note_on_c, 0, 65, 64
7, 23128, Note_on_c, 0, 74, 64
7, 23128, Note_on_c, 0, 70, 64
7, 23140, Note_off_c, 0, 74, 64
7, 23140, Note_on_c, 0, 74, 64
7, 23360, Note_off_c, 0, 74, 64
7, 23368, Note_on_c, 0, 74, 64
7, 23384, Note_off_c, 0, 70, 64
7, 23384, Note_on_c, 0, 70, 64
7, 23572, Note_off_c, 0, 58, 64
7, 23572, Note_on_c, 0, 58, 64
7, 23592, Note_off_c, 0, 65, 64
7, 23592, Note_on_c, 0, 65, 64
7, 23600, Note_off_c, 0, 70, 64
7, 23600, Note_on_c, 0, 70, 64
7, 23620, Note_off_c, 0, 74, 64
7, 23620, Note_on_c, 0, 74, 64
7, 23848, Note_off_c, 0, 70, 64
7, 23848, Note_off_c, 0, 74, 64
7, 23848, Note_on_c, 0, 74, 64
7, 23848, Note_on_c, 0, 70, 64
7, 23896, Note_off_c, 0, 74, 64
7, 23896, Note_on_c, 0, 72, 64
7, 23920, Note_off_c, 0, 65, 64
7, 23920, Note_on_c, 0, 63, 64
7, 24080, Note_off_c, 0, 58, 64
7, 24080, Note_off_c, 0, 63, 64
7, 24080, Note_on_c, 0, 65, 64
7, 24080, Note_on_c, 0, 58, 64
7, 24092, Note_off_c, 0, 72, 64
7, 24092, Note_on_c, 0, 74, 64
7, 24100, Note_off_c, 0, 65, 64
7, 24100, Note_on_c, 0, 65, 64
7, 24112, Note_off_c, 0, 70, 64
7, 24116, Note_on_c, 0, 70, 64
7, 24120, Note_off_c, 0, 74, 64
7, 24120, Note_on_c, 0, 74, 64
7, 24268, Note_off_c, 0, 53, 64
7, 24340, Note_off_c, 0, 74, 64
7, 24340, Note_on_c, 0, 74, 64
7, 24544, Note_off_c, 0, 58, 64
7, 24548, Note_off_c, 0, 65, 64
7, 24548, Note_on_c, 0, 58, 64
7, 24548, Note_on_c, 0, 65, 64
7, 24568, Note_off_c, 0, 70, 64
7, 24568, Note_on_c, 0, 70, 64
7, 24800, Note_off_c, 0, 74, 64
7, 24800, Note_on_c, 0, 72, 64
7, 24800, Note_on_c, 0, 72, 64
7, 24801, Note_off_c, 0, 72, 64
7, 24828, Note_off_c, 0, 70, 64
7, 24828, Note_on_c, 0, 70, 64
7, 24836, Note_off_c, 0, 65, 64
7, 24836, Note_on_c, 0, 63, 64
7, 24837, Note_off_c, 0, 63, 64
7, 24844, Note_off_c, 0, 58, 64
7, 24844, Note_on_c, 0, 63, 64
7, 24848, Note_on_c, 0, 58, 64
7, 24988, Note_off_c, 0, 72, 64
7, 24988, Note_on_c, 0, 74, 64
7, 25000, Note_off_c, 0, 63, 64
7, 25000, Note_on_c, 0, 65, 64
7, 25024, Note_on_c, 0, 53, 64
7, 25036, Note_off_c, 0, 58, 64
7, 25036, Note_on_c, 0, 58, 64
7, 25052, Note_off_c, 0, 65, 64
7, 25052, Note_on_c, 0, 65, 64
7, 25060, Note_off_c, 0, 70, 64
7, 25064, Note_on_c, 0, 70, 64
7, 25080, Note_off_c, 0, 74, 64
7, 25080, Note_on_c, 0, 74, 64
7, 25296, Note_off_c, 0, 74, 64
7, 25296, Note_on_c, 0, 74, 64
7, 25324, Note_off_c, 0, 70, 64
7, 25328, Note_on_c, 0, 70, 64
7, 25512, Note_off_c, 0, 65, 64
7, 25520, Note_on_c, 0, 65, 64
7, 25528, Note_off_c, 0, 70, 64
7, 25528, Note_on_c, 0, 70, 64
7, 25540, Note_off_c, 0, 74, 64
7, 25540, Note_on_c, 0, 74, 64
7, 25632, Note_off_c, 0, 70, 64
7, 25640, Note_on_c, 0, 70, 64
7, 25756, Note_off_c, 0, 74, 64
7, 25756, Note_on_c, 0, 74, 64
7, 25772, Note_off_c, 0, 70, 64
7, 25772, Note_on_c, 0, 70, 64
7, 25796, Note_off_c, 0, 74, 64
7, 25796, Note_on_c, 0, 72, 64
7, 25812, Note_off_c, 0, 65, 64
7, 25812, Note_on_c, 0, 63, 64
7, 25976, Note_off_c, 0, 53, 64
7, 25976, Note_off_c, 0, 72, 64
7, 25976, Note_off_c, 0, 63, 64
7, 25976, Note_on_c, 0, 74, 64
7, 25976, Note_on_c, 0, 65, 64
7, 25976, Note_on_c, 0, 53, 64
7, 26000, Note_off_c, 0, 58, 64
7, 26000, Note_on_c, 0, 58, 64
7, 26012, Note_off_c, 0, 65, 64
7, 26016, Note_on_c, 0, 65, 64
7, 26024, Note_off_c, 0, 70, 64
7, 26024, Note_on_c, 0, 70, 64
7, 26036, Note_off_c, 0, 74, 64
7, 26036, Note_on_c, 0, 74, 64
7, 26252, Note_off_c, 0, 74, 64
7, 26252, Note_on_c, 0, 74, 64
7, 26272, Note_off_c, 0, 70, 64
7, 26272, Note_on_c, 0, 70, 64
7, 26464, Note_off_c, 0, 58, 64
7, 26464, Note_on_c, 0, 58, 64
7, 26480, Note_off_c, 0, 65, 64
7, 26480, Note_on_c, 0, 65, 64
7, 26496, Note_off_c, 0, 70, 64
7, 26496, Note_on_c, 0, 70, 64
7, 26504, Note_off_c, 0, 74, 64
7, 26504, Note_on_c, 0, 74, 64
7, 26720, Note_off_c, 0, 74, 64
7, 26720, Note_on_c, 0, 74, 64
7, 26748, Note_off_c, 0, 74, 64
7, 26748, Note_on_c, 0, 72, 64
7, 26752, Note_off_c, 0, 65, 64
7, 26752, Note_on_c, 0, 63, 64
7, 26760, Note_off_c, 0, 70, 64
7, 26760, Note_on_c, 0, 70, 64
7, 26908, Note_off_c, 0, 72, 64
7, 26924, Note_off_c, 0, 63, 64
7, 26956, Note_off_c, 0, 53, 64
7, 26964, Note_off_c, 0, 58, 64
7, 26984, Note_on_c, 0, 58, 64
7, 26984, Note_on_c, 0, 74, 64
7, 26992, Note_off_c, 0, 70, 64
7, 26992, Note_on_c, 0, 65, 64
7, 26992, Note_on_c, 0, 65, 64
7, 26992, Note_on_c, 0, 70, 64
7, 26993, Note_off_c, 0, 65, 64
7, 27012, Note_off_c, 0, 74, 64
7, 27012, Note_on_c, 0, 74, 64
7, 27100, Note_off_c, 0, 65, 64
7, 27100, Note_on_c, 0, 65, 64
7, 27236, Note_off_c, 0, 74, 64
7, 27236, Note_on_c, 0, 74, 64
7, 27272, Note_off_c, 0, 70, 64
7, 27276, Note_on_c, 0, 70, 64
7, 27448, Note_off_c, 0, 58, 64
7, 27448, Note_on_c, 0, 58, 64
7, 27456, Note_off_c, 0, 65, 64
7, 27456, Note_on_c, 0, 65, 64
7, 27464, Note_off_c, 0, 70, 64
7, 27464, Note_on_c, 0, 70, 64
7, 27704, Note_off_c, 0, 74, 64
7, 27704, Note_off_c, 0, 65, 64
7, 27704, Note_on_c, 0, 72, 64
7, 27704, Note_on_c, 0, 63, 64
7, 27720, Note_off_c, 0, 72, 64
7, 27724, Note_on_c, 0, 72, 64
7, 27892, Note_off_c, 0, 72, 64
7, 27892, Note_on_c, 0, 74, 64
7, 27908, Note_off_c, 0, 63, 64
7, 27908, Note_on_c, 0, 65, 64
7, 27932, Note_off_c, 0, 58, 64
7, 27936, Note_on_c, 0, 58, 64
7, 27948, Note_off_c, 0, 65, 64
7, 27948, Note_on_c, 0, 65, 64
7, 27960, Note_off_c, 0, 70, 64
7, 27960, Note_on_c, 0, 70, 64
7, 27980, Note_off_c, 0, 74, 64
7, 27980, Note_on_c, 0, 74, 64
7, 28068, Note_off_c, 0, 70, 64
7, 28072, Note_on_c, 0, 70, 64
7, 28192, Note_off_c, 0, 74, 64
7, 28192, Note_on_c, 0, 74, 64
7, 28396, Note_off_c, 0, 58, 64
7, 28396, Note_on_c, 0, 58, 64
7, 28408, Note_off_c, 0, 65, 64
7, 28408, Note_on_c, 0, 65, 64
7, 28420, Note_off_c, 0, 70, 64
7, 28424, Note_on_c, 0, 70, 64
7, 28472, Note_off_c, 0, 74, 64
7, 28472, Note_on_c, 0, 74, 64
7, 28636, Note_off_c, 0, 74, 64
7, 28636, Note_on_c, 0, 72, 64
7, 28668, Note_off_c, 0, 65, 64
7, 28668, Note_off_c, 0, 70, 64
7, 28668, Note_off_c, 0, 72, 64
7, 28668, Note_on_c, 0, 63, 64
7, 28668, Note_on_c, 0, 72, 64
7, 28668, Note_on_c, 0, 70, 64
7, 28868, Note_on_c, 0, 53, 64
7, 28884, Note_off_c, 0, 58, 64
7, 28884, Note_on_c, 0, 58, 64
7, 28888, Note_off_c, 0, 63, 64
7, 28888, Note_off_c, 0, 72, 64
7, 28888, Note_on_c, 0, 74, 64
7, 28888, Note_on_c, 0, 65, 64
7, 28900, Note_off_c, 0, 65, 64
7, 28904, Note_off_c, 0, 70, 64
7, 28904, Note_on_c, 0, 65, 64
7, 28904, Note_on_c, 0, 70, 64
7, 29132, Note_off_c, 0, 74, 64
7, 29136, Note_on_c, 0, 74, 64
7, 29144, Note_off_c, 0, 70, 64
7, 29144, Note_on_c, 0, 70, 64
7, 29340, Note_off_c, 0, 58, 64
7, 29340, Note_on_c, 0, 58, 64
7, 29352, Note_off_c, 0, 65, 64
7, 29352, Note_on_c, 0, 65, 64
7, 29364, Note_off_c, 0, 70, 64
7, 29364, Note_on_c, 0, 70, 64
7, 29380, Note_off_c, 0, 74, 64
7, 29380, Note_on_c, 0, 74, 64
7, 29600, Note_off_c, 0, 74, 64
7, 29600, Note_on_c, 0, 74, 64
7, 29608, Note_off_c, 0, 70, 64
7, 29608, Note_off_c, 0, 74, 64
7, 29608, Note_on_c, 0, 72, 64
7, 29608, Note_on_c, 0, 70, 64
7, 29640, Note_off_c, 0, 65, 64
7, 29640, Note_on_c, 0, 63, 64
7, 29800, Note_off_c, 0, 63, 64
7, 29800, Note_on_c, 0, 64, 64
7, 29808, Note_off_c, 0, 72, 64
7, 29812, Note_on_c, 0, 74, 64
7, 29828, Note_off_c, 0, 58, 64
7, 29828, Note_on_c, 0, 58, 64
7, 29836, Note_off_c, 0, 64, 64
7, 29836, Note_on_c, 0, 65, 64
7, 29837, Note_off_c, 0, 65, 64
7, 29844, Note_on_c, 0, 65, 64
7, 29848, Note_off_c, 0, 70, 64
7, 29848, Note_on_c, 0, 70, 64
7, 29876, Note_off_c, 0, 74, 64
7, 29880, Note_on_c, 0, 74, 64
7, 30080, Note_off_c, 0, 74, 64
7, 30080, Note_on_c, 0, 74, 64
7, 30300, Note_off_c, 0, 58, 64
7, 30300, Note_on_c, 0, 58, 64
7, 30304, Note_off_c, 0, 65, 64
7, 30304, Note_on_c, 0, 65, 64
7, 30320, Note_off_c, 0, 70, 64
7, 30320, Note_on_c, 0, 70, 64
7, 30368, Note_off_c, 0, 53, 64
7, 30544, Note_off_c, 0, 74, 64
7, 30548, Note_on_c, 0, 74, 64
7, 30560, Note_off_c, 0, 74, 64
7, 30560, Note_on_c, 0, 72, 64
7, 30580, Note_off_c, 0, 65, 64
7, 30580, Note_on_c, 0, 63, 64
7, 30784, Note_off_c, 0, 58, 64
7, 30784, Note_off_c, 0, 72, 64
7, 30784, Note_on_c, 0, 74, 64
7, 30788, Note_off_c, 0, 63, 64
7, 30788, Note_on_c, 0, 58, 64
7, 30796, Note_on_c, 0, 63, 64
7, 30804, Note_off_c, 0, 63, 64
7, 30804, Note_off_c, 0, 70, 64
7, 30804, Note_on_c, 0, 65, 64
7, 30804, Note_on_c, 0, 70, 64
7, 30820, Note_off_c, 0, 74, 64
7, 30820, Note_on_c, 0, 74, 64
7, 31024, Note_off_c, 0, 74, 64
7, 31032, Note_on_c, 0, 74, 64
7, 31040, Note_off_c, 0, 70, 64
7, 31040, Note_on_c, 0, 70, 64
7, 31244, Note_off_c, 0, 58, 64
7, 31244, Note_on_c, 0, 58, 64
7, 31256, Note_off_c, 0, 65, 64
7, 31260, Note_on_c, 0, 65, 64
7, 31264, Note_off_c, 0, 70, 64
7, 31264, Note_on_c, 0, 70, 64
7, 31280, Note_off_c, 0, 74, 64
7, 31280, Note_on_c, 0, 74, 64
7, 31504, Note_off_c, 0, 74, 64
7, 31504, Note_on_c, 0, 74, 64
7, 31536, Note_off_c, 0, 70, 64
7, 31536, Note_on_c, 0, 70, 64
7, 31540, Note_off_c, 0, 74, 64
7, 31540, Note_on_c, 0, 72, 64
7, 31552, Note_off_c, 0, 65, 64
7, 31552, Note_on_c, 0, 63, 64
7, 31680, Note_off_c, 0, 72, 64
7, 31680, Note_on_c, 0, 74, 64
7, 31700, Note_off_c, 0, 63, 64
7, 31708, Note_on_c, 0, 65, 64
7, 31744, Note_on_c, 0, 53, 64
7, 31752, Note_off_c, 0, 58, 64
7, 31752, Note_on_c, 0, 58, 64
7, 31772, Note_off_c, 0, 65, 64
7, 31772, Note_on_c, 0, 65, 64
7, 31776, Note_off_c, 0, 70, 64
7, 31776, Note_on_c, 0, 70, 64
7, 31792, Note_off_c, 0, 74, 64
7, 31792, Note_on_c, 0, 74, 64
7, 32016, Note_off_c, 0, 74, 64
7, 32016, Note_on_c, 0, 74, 64
7, 32028, Note_off_c, 0, 70, 64
7, 32028, Note_on_c, 0, 70, 64
7, 32240, Note_off_c, 0, 65, 64
7, 32240, Note_on_c, 0, 65, 64
7, 32252, Note_off_c, 0, 70, 64
7, 32252, Note_on_c, 0, 70, 64
7, 32320, Note_off_c, 0, 74, 64
7, 32320, Note_on_c, 0, 74, 64
7, 32476, Note_off_c, 0, 74, 64
7, 32492, Note_off_c, 0, 65, 64
7, 32492, Note_on_c, 0, 72, 64
7, 32492, Note_on_c, 0, 63, 64
7, 32492, Note_on_c, 0, 72, 64
7, 32493, Note_off_c, 0, 72, 64
7, 32500, Note_off_c, 0, 70, 64
7, 32500, Note_on_c, 0, 70, 64
7, 32512, Note_off_c, 0, 63, 64
7, 32512, Note_on_c, 0, 63, 64
7, 32680, Note_off_c, 0, 72, 64
7, 32680, Note_on_c, 0, 74, 64
7, 32688, Note_off_c, 0, 63, 64
7, 32688, Note_on_c, 0, 65, 64
7, 32700, Note_off_c, 0, 58, 64
7, 32700, Note_on_c, 0, 58, 64
7, 32720, Note_off_c, 0, 65, 64
7, 32720, Note_on_c, 0, 65, 64
7, 32728, Note_off_c, 0, 70, 64
7, 32728, Note_on_c, 0, 70, 64
7, 32748, Note_off_c, 0, 74, 64
7, 32748, Note_on_c, 0, 74, 64
7, 32952, Note_off_c, 0, 74, 64
7, 32952, Note_on_c, 0, 74, 64
7, 32960, Note_off_c, 0, 70, 64
7, 32960, Note_on_c, 0, 70, 64
7, 33168, Note_off_c, 0, 58, 64
7, 33168, Note_on_c, 0, 58, 64
7, 33188, Note_off_c, 0, 65, 64
7, 33188, Note_on_c, 0, 65, 64
7, 33196, Note_off_c, 0, 70, 64
7, 33196, Note_on_c, 0, 70, 64
7, 33216, Note_off_c, 0, 74, 64
7, 33216, Note_on_c, 0, 74, 64
7, 33244, Note_off_c, 0, 53, 64
7, 33424, Note_off_c, 0, 74, 64
7, 33424, Note_on_c, 0, 72, 64
7, 33436, Note_off_c, 0, 72, 64
7, 33436, Note_on_c, 0, 72, 64
7, 33440, Note_off_c, 0, 65, 64
7, 33440, Note_on_c, 0, 63, 64
7, 33460, Note_off_c, 0, 70, 64
7, 33460, Note_on_c, 0, 70, 64
7, 33636, Note_off_c, 0, 72, 64
7, 33640, Note_off_c, 0, 58, 64
7, 33640, Note_on_c, 0, 74, 64
7, 33640, Note_on_c, 0, 58, 64
7, 33652, Note_off_c, 0, 63, 64
7, 33652, Note_on_c, 0, 63, 64
7, 33660, Note_off_c, 0, 70, 64
7, 33660, Note_off_c, 0, 63, 64
7, 33660, Note_on_c, 0, 65, 64
7, 33660, Note_on_c, 0, 70, 64
7, 33676, Note_off_c, 0, 74, 64
7, 33676, Note_on_c, 0, 74, 64
7, 33876, Note_off_c, 0, 74, 64
7, 33876, Note_on_c, 0, 74, 64
7, 33884, Note_off_c, 0, 70, 64
7, 33884, Note_on_c, 0, 70, 64
7, 33896, Note_off_c, 0, 65, 64
7, 33896, Note_on_c, 0, 65, 64
7, 34080, Note_off_c, 0, 58, 64
7, 34080, Note_off_c, 0, 70, 64
7, 34080, Note_off_c, 0, 65, 64
7, 34080, Note_on_c, 0, 58, 64
7, 34080, Note_on_c, 0, 65, 64
7, 34080, Note_on_c, 0, 70, 64
7, 34124, Note_off_c, 0, 74, 64
7, 34124, Note_on_c, 0, 74, 64
7, 34224, Note_off_c, 0, 70, 64
7, 34224, Note_on_c, 0, 67, 64
7, 34280, Note_off_c, 0, 74, 64
7, 34280, Note_on_c, 0, 72, 64
7, 34340, Note_off_c, 0, 65, 64
7, 34340, Note_on_c, 0, 63, 64
7, 34344, Note_off_c, 0, 72, 64
7, 34344, Note_on_c, 0, 75, 64
7, 34352, Note_off_c, 0, 75, 64
7, 34360, Note_off_c, 0, 67, 64
7, 34360, Note_on_c, 0, 75, 64
7, 34360, Note_on_c, 0, 67, 64
7, 34372, Note_off_c, 0, 63, 64
7, 34380, Note_on_c, 0, 63, 64
7, 34580, Note_on_c, 0, 51, 64
7, 34580, Note_on_c, 0, 55, 64
7, 34600, Note_off_c, 0, 58, 64
7, 34600, Note_on_c, 0, 58, 64
7, 34608, Note_off_c, 0, 63, 64
7, 34616, Note_on_c, 0, 63, 64
7, 34620, Note_off_c, 0, 67, 64
7, 34620, Note_on_c, 0, 67, 64
7, 34628, Note_off_c, 0, 75, 64
7, 34628, Note_on_c, 0, 75, 64
7, 34840, Note_off_c, 0, 75, 64
7, 34840, Note_on_c, 0, 75, 64
7, 34856, Note_off_c, 0, 67, 64
7, 34856, Note_on_c, 0, 67, 64
7, 34864, Note_off_c, 0, 63, 64
7, 34864, Note_on_c, 0, 63, 64
7, 35088, Note_off_c, 0, 55, 64
7, 35088, Note_on_c, 0, 55, 64
7, 35104, Note_off_c, 0, 58, 64
7, 35104, Note_on_c, 0, 58, 64
7, 35108, Note_off_c, 0, 63, 64
7, 35108, Note_on_c, 0, 63, 64
7, 35124, Note_off_c, 0, 67, 64
7, 35124, Note_on_c, 0, 67, 64
7, 35140, Note_off_c, 0, 75, 64
7, 35140, Note_on_c, 0, 75, 64
7, 35348, Note_off_c, 0, 75, 64
7, 35348, Note_on_c, 0, 75, 64
7, 35356, Note_off_c, 0, 67, 64
7, 35356, Note_on_c, 0, 67, 64
7, 35360, Note_off_c, 0, 55, 64
7, 35360, Note_off_c, 0, 63, 64
7, 35360, Note_on_c, 0, 53, 64
7, 35360, Note_on_c, 0, 63, 64
7, 35380, Note_off_c, 0, 58, 64
7, 35380, Note_on_c, 0, 58, 64
7, 35400, Note_off_c, 0, 51, 64
7, 35400, Note_on_c, 0, 48, 64
7, 35496, Note_off_c, 0, 48, 64
7, 35496, Note_on_c, 0, 51, 64
7, 35520, Note_off_c, 0, 53, 64
7, 35520, Note_on_c, 0, 55, 64
7, 35560, Note_off_c, 0, 51, 64
7, 35560, Note_on_c, 0, 51, 64
7, 35564, Note_off_c, 0, 55, 64
7, 35564, Note_on_c, 0, 55, 64
7, 35584, Note_off_c, 0, 58, 64
7, 35584, Note_on_c, 0, 58, 64
7, 35592, Note_off_c, 0, 63, 64
7, 35596, Note_on_c, 0, 63, 64
7, 35612, Note_off_c, 0, 67, 64
7, 35612, Note_on_c, 0, 67, 64
7, 35684, Note_off_c, 0, 75, 64
7, 35684, Note_on_c, 0, 75, 64
7, 35832, Note_off_c, 0, 75, 64
7, 35836, Note_on_c, 0, 75, 64
7, 35840, Note_off_c, 0, 67, 64
7, 35848, Note_on_c, 0, 67, 64
7, 35852, Note_off_c, 0, 63, 64
7, 35852, Note_on_c, 0, 63, 64
7, 36056, Note_off_c, 0, 55, 64
7, 36056, Note_on_c, 0, 55, 64
7, 36064, Note_off_c, 0, 58, 64
7, 36064, Note_on_c, 0, 58, 64
7, 36080, Note_off_c, 0, 63, 64
7, 36080, Note_on_c, 0, 63, 64
7, 36088, Note_off_c, 0, 67, 64
7, 36088, Note_on_c, 0, 67, 64
7, 36096, Note_off_c, 0, 75, 64
7, 36096, Note_on_c, 0, 75, 64
7, 36304, Note_off_c, 0, 55, 64
7, 36304, Note_on_c, 0, 53, 64
7, 36316, Note_off_c, 0, 75, 64
7, 36316, Note_on_c, 0, 75, 64
7, 36320, Note_off_c, 0, 51, 64
7, 36320, Note_off_c, 0, 63, 64
7, 36320, Note_off_c, 0, 67, 64
7, 36320, Note_on_c, 0, 48, 64
7, 36320, Note_on_c, 0, 67, 64
7, 36320, Note_on_c, 0, 63, 64
7, 36472, Note_off_c, 0, 53, 64
7, 36472, Note_on_c, 0, 55, 64
7, 36476, Note_off_c, 0, 48, 64
7, 36476, Note_on_c, 0, 51, 64
7, 36552, Note_off_c, 0, 55, 64
7, 36556, Note_on_c, 0, 55, 64
7, 36560, Note_off_c, 0, 58, 64
7, 36560, Note_on_c, 0, 58, 64
7, 36572, Note_off_c, 0, 63, 64
7, 36572, Note_on_c, 0, 63, 64
7, 36584, Note_off_c, 0, 67, 64
7, 36584, Note_on_c, 0, 67, 64
7, 36600, Note_off_c, 0, 75, 64
7, 36600, Note_on_c, 0, 75, 64
7, 36804, Note_off_c, 0, 75, 64
7, 36804, Note_on_c, 0, 75, 64
7, 36820, Note_off_c, 0, 67, 64
7, 36820, Note_on_c, 0, 67, 64
7, 36828, Note_off_c, 0, 63, 64
7, 36828, Note_on_c, 0, 63, 64
7, 37024, Note_off_c, 0, 58, 64
7, 37024, Note_on_c, 0, 58, 64
7, 37040, Note_off_c, 0, 63, 64
7, 37040, Note_on_c, 0, 63, 64
7, 37052, Note_off_c, 0, 67, 64
7, 37052, Note_on_c, 0, 67, 64
7, 37116, Note_off_c, 0, 75, 64
7, 37116, Note_on_c, 0, 75, 64
7, 37212, Note_off_c, 0, 55, 64
7, 37212, Note_on_c, 0, 53, 64
7, 37248, Note_off_c, 0, 51, 64
7, 37252, Note_on_c, 0, 48, 64
7, 37276, Note_off_c, 0, 75, 64
7, 37276, Note_on_c, 0, 75, 64
7, 37280, Note_off_c, 0, 67, 64
7, 37280, Note_on_c, 0, 67, 64
7, 37300, Note_off_c, 0, 63, 64
7, 37300, Note_on_c, 0, 63, 64
7, 37312, Note_off_c, 0, 58, 64
7, 37312, Note_on_c, 0, 58, 64
7, 37396, Note_off_c, 0, 48, 64
7, 37396, Note_on_c, 0, 51, 64
7, 37436, Note_off_c, 0, 53, 64
7, 37436, Note_on_c, 0, 55, 64
7, 37500, Note_off_c, 0, 55, 64
7, 37500, Note_on_c, 0, 55, 64
7, 37512, Note_off_c, 0, 58, 64
7, 37512, Note_on_c, 0, 58, 64
7, 37524, Note_off_c, 0, 63, 64
7, 37524, Note_on_c, 0, 63, 64
7, 37532, Note_off_c, 0, 67, 64
7, 37532, Note_on_c, 0, 67, 64
7, 37744, Note_off_c, 0, 75, 64
7, 37744, Note_on_c, 0, 75, 64
7, 37756, Note_off_c, 0, 67, 64
7, 37756, Note_on_c, 0, 67, 64
7, 37760, Note_off_c, 0, 63, 64
7, 37760, Note_on_c, 0, 63, 64
7, 37780, Note_off_c, 0, 58, 64
7, 37780, Note_on_c, 0, 58, 64
7, 37952, Note_off_c, 0, 58, 64
7, 37956, Note_on_c, 0, 58, 64
7, 37964, Note_off_c, 0, 63, 64
7, 37964, Note_on_c, 0, 63, 64
7, 37976, Note_off_c, 0, 67, 64
7, 37976, Note_on_c, 0, 67, 64
7, 37988, Note_off_c, 0, 75, 64
7, 37988, Note_on_c, 0, 75, 64
7, 38008, Note_off_c, 0, 55, 64
7, 38012, Note_on_c, 0, 53, 64
7, 38080, Note_off_c, 0, 51, 64
7, 38080, Note_on_c, 0, 48, 64
7, 38208, Note_off_c, 0, 75, 64
7, 38208, Note_on_c, 0, 72, 64
7, 38220, Note_off_c, 0, 72, 64
7, 38224, Note_on_c, 0, 72, 64
7, 38236, Note_off_c, 0, 67, 64
7, 38236, Note_on_c, 0, 67, 64
7, 38384, Note_off_c, 0, 63, 64
7, 38384, Note_on_c, 0, 65, 64
7, 38420, Note_off_c, 0, 67, 64
7, 38420, Note_on_c, 0, 70, 64
7, 38436, Note_off_c, 0, 58, 64
7, 38436, Note_on_c, 0, 58, 64
7, 38452, Note_off_c, 0, 72, 64
7, 38452, Note_on_c, 0, 74, 64
7, 38456, Note_off_c, 0, 65, 64
7, 38456, Note_on_c, 0, 65, 64
7, 38464, Note_off_c, 0, 70, 64
7, 38464, Note_off_c, 0, 74, 64
7, 38464, Note_on_c, 0, 74, 64
7, 38464, Note_on_c, 0, 70, 64
7, 38688, Note_off_c, 0, 74, 64
7, 38688, Note_on_c, 0, 74, 64
7, 38704, Note_off_c, 0, 70, 64
7, 38708, Note_on_c, 0, 70, 64
7, 38900, Note_off_c, 0, 53, 64
7, 38900, Note_off_c, 0, 58, 64
7, 38900, Note_on_c, 0, 53, 64
7, 38900, Note_on_c, 0, 58, 64
7, 38924, Note_off_c, 0, 65, 64
7, 38924, Note_on_c, 0, 65, 64
7, 38940, Note_off_c, 0, 70, 64
7, 38940, Note_on_c, 0, 70, 64
7, 38952, Note_off_c, 0, 74, 64
7, 38952, Note_on_c, 0, 74, 64
7, 39180, Note_off_c, 0, 74, 64
7, 39188, Note_on_c, 0, 74, 64
7, 39196, Note_off_c, 0, 70, 64
7, 39196, Note_off_c, 0, 74, 64
7, 39196, Note_on_c, 0, 72, 64
7, 39208, Note_on_c, 0, 70, 64
7, 39216, Note_off_c, 0, 65, 64
7, 39220, Note_on_c, 0, 63, 64
7, 39384, Note_off_c, 0, 53, 64
7, 39384, Note_on_c, 0, 53, 64
7, 39388, Note_off_c, 0, 58, 64
7, 39388, Note_off_c, 0, 63, 64
7, 39388, Note_on_c, 0, 65, 64
7, 39388, Note_on_c, 0, 58, 64
7, 39400, Note_off_c, 0, 72, 64
7, 39400, Note_on_c, 0, 74, 64
7, 39408, Note_off_c, 0, 65, 64
7, 39416, Note_on_c, 0, 65, 64
7, 39420, Note_off_c, 0, 70, 64
7, 39420, Note_on_c, 0, 70, 64
7, 39432, Note_off_c, 0, 74, 64
7, 39432, Note_on_c, 0, 74, 64
7, 39576, Note_off_c, 0, 48, 64
7, 39648, Note_off_c, 0, 74, 64
7, 39648, Note_on_c, 0, 74, 64
7, 39880, Note_off_c, 0, 58, 64
7, 39880, Note_on_c, 0, 58, 64
7, 39892, Note_off_c, 0, 65, 64
7, 39892, Note_on_c, 0, 65, 64
7, 39904, Note_off_c, 0, 70, 64
7, 39904, Note_on_c, 0, 70, 64
7, 39920, Note_off_c, 0, 74, 64
7, 39920, Note_on_c, 0, 74, 64
7, 40144, Note_off_c, 0, 74, 64
7, 40144, Note_on_c, 0, 72, 64
7, 40156, Note_off_c, 0, 65, 64
7, 40160, Note_off_c, 0, 70, 64
7, 40160, Note_off_c, 0, 72, 64
7, 40160, Note_on_c, 0, 63, 64
7, 40160, Note_on_c, 0, 72, 64
7, 40160, Note_on_c, 0, 70, 64
7, 40340, Note_off_c, 0, 72, 64
7, 40340, Note_off_c, 0, 63, 64
7, 40340, Note_on_c, 0, 74, 64
7, 40340, Note_on_c, 0, 65, 64
7, 40372, Note_off_c, 0, 53, 64
7, 40372, Note_on_c, 0, 53, 64
7, 40384, Note_off_c, 0, 58, 64
7, 40384, Note_on_c, 0, 58, 64
7, 40400, Note_off_c, 0, 65, 64
7, 40400, Note_on_c, 0, 65, 64
7, 40412, Note_off_c, 0, 70, 64
7, 40416, Note_on_c, 0, 70, 64
7, 40432, Note_off_c, 0, 74, 64
7, 40432, Note_on_c, 0, 74, 64
7, 40644, Note_off_c, 0, 74, 64
7, 40644, Note_on_c, 0, 74, 64
7, 40844, Note_off_c, 0, 58, 64
7, 40844, Note_on_c, 0, 58, 64
7, 40852, Note_off_c, 0, 65, 64
7, 40852, Note_on_c, 0, 65, 64
7, 40864, Note_off_c, 0, 70, 64
7, 40864, Note_on_c, 0, 70, 64
7, 40884, Note_off_c, 0, 74, 64
7, 40884, Note_on_c, 0, 74, 64
7, 41080, Note_off_c, 0, 74, 64
7, 41080, Note_on_c, 0, 72, 64
7, 41096, Note_off_c, 0, 65, 64
7, 41096, Note_on_c, 0, 63, 64
7, 41120, Note_off_c, 0, 72, 64
7, 41120, Note_on_c, 0, 72, 64
7, 41136, Note_off_c, 0, 70, 64
7, 41136, Note_on_c, 0, 70, 64
7, 41140, Note_off_c, 0, 63, 64
7, 41140, Note_on_c, 0, 63, 64
7, 41340, Note_off_c, 0, 53, 64
7, 41340, Note_off_c, 0, 72, 64
7, 41340, Note_off_c, 0, 63, 64
7, 41340, Note_on_c, 0, 74, 64
7, 41340, Note_on_c, 0, 65, 64
7, 41340, Note_on_c, 0, 53, 64
7, 41356, Note_off_c, 0, 58, 64
7, 41356, Note_on_c, 0, 58, 64
7, 41364, Note_off_c, 0, 65, 64
7, 41372, Note_on_c, 0, 65, 64
7, 41376, Note_off_c, 0, 70, 64
7, 41376, Note_on_c, 0, 70, 64
7, 41392, Note_off_c, 0, 74, 64
7, 41392, Note_on_c, 0, 74, 64
7, 41616, Note_off_c, 0, 74, 64
7, 41628, Note_off_c, 0, 70, 64
7, 41628, Note_on_c, 0, 74, 64
7, 41628, Note_on_c, 0, 70, 64
7, 41636, Note_off_c, 0, 65, 64
7, 41636, Note_on_c, 0, 65, 64
7, 41812, Note_off_c, 0, 58, 64
7, 41812, Note_on_c, 0, 58, 64
7, 41824, Note_off_c, 0, 65, 64
7, 41824, Note_on_c, 0, 65, 64
7, 41832, Note_off_c, 0, 70, 64
7, 41832, Note_on_c, 0, 70, 64
7, 41848, Note_off_c, 0, 74, 64
7, 41848, Note_on_c, 0, 74, 64
7, 41948, Note_off_c, 0, 70, 64
7, 41948, Note_on_c, 0, 70, 64
7, 42012, Note_off_c, 0, 70, 64
7, 42012, Note_on_c, 0, 69, 64
7, 42044, Note_off_c, 0, 74, 64
7, 42048, Note_off_c, 0, 69, 64
7, 42048, Note_on_c, 0, 72, 64
7, 42048, Note_on_c, 0, 67, 64
7, 42080, Note_off_c, 0, 72, 64
7, 42080, Note_on_c, 0, 72, 64
7, 42096, Note_off_c, 0, 65, 64
7, 42104, Note_off_c, 0, 67, 64
7, 42104, Note_on_c, 0, 63, 64
7, 42104, Note_on_c, 0, 67, 64
7, 42240, Note_off_c, 0, 63, 64
7, 42240, Note_on_c, 0, 65, 64
7, 42276, Note_off_c, 0, 67, 64
7, 42276, Note_on_c, 0, 69, 64
7, 42280, Note_off_c, 0, 58, 64
7, 42280, Note_on_c, 0, 60, 64
7, 42308, Note_off_c, 0, 53, 64
7, 42308, Note_on_c, 0, 53, 64
7, 42324, Note_off_c, 0, 60, 64
7, 42324, Note_on_c, 0, 60, 64
7, 42344, Note_off_c, 0, 65, 64
7, 42344, Note_on_c, 0, 65, 64
7, 42360, Note_off_c, 0, 69, 64
7, 42360, Note_on_c, 0, 69, 64
7, 42368, Note_off_c, 0, 72, 64
7, 42368, Note_on_c, 0, 72, 64
7, 42568, Note_off_c, 0, 72, 64
7, 42568, Note_on_c, 0, 72, 64
7, 42584, Note_off_c, 0, 69, 64
7, 42584, Note_on_c, 0, 69, 64
7, 42588, Note_off_c, 0, 65, 64
7, 42588, Note_on_c, 0, 65, 64
7, 42780, Note_off_c, 0, 53, 64
7, 42784, Note_on_c, 0, 53, 64
7, 42788, Note_off_c, 0, 60, 64
7, 42788, Note_on_c, 0, 60, 64
7, 42800, Note_off_c, 0, 65, 64
7, 42800, Note_on_c, 0, 65, 64
7, 42812, Note_off_c, 0, 69, 64
7, 42812, Note_on_c, 0, 69, 64
7, 42836, Note_off_c, 0, 72, 64
7, 42836, Note_on_c, 0, 72, 64
7, 43028, Note_off_c, 0, 69, 64
7, 43028, Note_off_c, 0, 72, 64
7, 43028, Note_on_c, 0, 67, 64
7, 43028, Note_on_c, 0, 72, 64
7, 43040, Note_off_c, 0, 67, 64
7, 43040, Note_on_c, 0, 67, 64
7, 43060, Note_off_c, 0, 65, 64
7, 43060, Note_on_c, 0, 65, 64
7, 43080, Note_off_c, 0, 65, 64
7, 43080, Note_on_c, 0, 63, 64
7, 43092, Note_off_c, 0, 60, 64
7, 43092, Note_on_c, 0, 58, 64
7, 43220, Note_off_c, 0, 63, 64
7, 43224, Note_off_c, 0, 58, 64
7, 43224, Note_on_c, 0, 65, 64
7, 43224, Note_on_c, 0, 60, 64
7, 43244, Note_off_c, 0, 67, 64
7, 43244, Note_on_c, 0, 69, 64
7, 43268, Note_off_c, 0, 53, 64
7, 43276, Note_on_c, 0, 53, 64
7, 43284, Note_off_c, 0, 60, 64
7, 43284, Note_on_c, 0, 60, 64
7, 43296, Note_off_c, 0, 65, 64
7, 43296, Note_on_c, 0, 65, 64
7, 43308, Note_off_c, 0, 69, 64
7, 43308, Note_on_c, 0, 69, 64
7, 43524, Note_off_c, 0, 72, 64
7, 43524, Note_on_c, 0, 72, 64
7, 43532, Note_off_c, 0, 69, 64
7, 43532, Note_on_c, 0, 69, 64
7, 43548, Note_off_c, 0, 65, 64
7, 43548, Note_on_c, 0, 65, 64
7, 43732, Note_off_c, 0, 60, 64
7, 43732, Note_on_c, 0, 60, 64
7, 43748, Note_off_c, 0, 65, 64
7, 43748, Note_on_c, 0, 65, 64
7, 43756, Note_off_c, 0, 69, 64
7, 43756, Note_on_c, 0, 69, 64
7, 43764, Note_off_c, 0, 72, 64
7, 43764, Note_on_c, 0, 72, 64
7, 43932, Note_off_c, 0, 69, 64
7, 43932, Note_on_c, 0, 67, 64
7, 43960, Note_off_c, 0, 65, 64
7, 43960, Note_on_c, 0, 63, 64
7, 43980, Note_off_c, 0, 60, 64
7, 43988, Note_on_c, 0, 58, 64
7, 43992, Note_off_c, 0, 72, 64
7, 43992, Note_on_c, 0, 72, 64
7, 44000, Note_off_c, 0, 67, 64
7, 44000, Note_on_c, 0, 67, 64
7, 44044, Note_off_c, 0, 72, 64
7, 44052, Note_on_c, 0, 75, 64
7, 44180, Note_off_c, 0, 53, 64
7, 44180, Note_on_c, 0, 55, 64
7, 44212, Note_off_c, 0, 55, 64
7, 44212, Note_on_c, 0, 55, 64
7, 44224, Note_off_c, 0, 58, 64
7, 44224, Note_on_c, 0, 58, 64
7, 44244, Note_off_c, 0, 63, 64
7, 44244, Note_on_c, 0, 63, 64
7, 44252, Note_off_c, 0, 67, 64
7, 44252, Note_on_c, 0, 67, 64
7, 44268, Note_off_c, 0, 75, 64
7, 44268, Note_on_c, 0, 75, 64
7, 44464, Note_off_c, 0, 75, 64
7, 44464, Note_on_c, 0, 75, 64
7, 44480, Note_off_c, 0, 67, 64
7, 44480, Note_on_c, 0, 67, 64
7, 44700, Note_off_c, 0, 55, 64
7, 44704, Note_on_c, 0, 55, 64
7, 44712, Note_off_c, 0, 58, 64
7, 44712, Note_on_c, 0, 58, 64
7, 44724, Note_off_c, 0, 63, 64
7, 44724, Note_on_c, 0, 63, 64
7, 44736, Note_off_c, 0, 67, 64
7, 44736, Note_on_c, 0, 67, 64
7, 44744, Note_off_c, 0, 75, 64
7, 44744, Note_on_c, 0, 75, 64
7, 44960, Note_off_c, 0, 75, 64
7, 44960, Note_on_c, 0, 75, 64
7, 44976, Note_off_c, 0, 67, 64
7, 44976, Note_on_c, 0, 67, 64
7, 44988, Note_off_c, 0, 55, 64
7, 44988, Note_off_c, 0, 63, 64
7, 44988, Note_on_c, 0, 53, 64
7, 44988, Note_on_c, 0, 63, 64
7, 45000, Note_off_c, 0, 58, 64
7, 45000, Note_on_c, 0, 58, 64
7, 45136, Note_off_c, 0, 53, 64
7, 45136, Note_on_c, 0, 55, 64
7, 45184, Note_off_c, 0, 55, 64
7, 45184, Note_on_c, 0, 55, 64
7, 45192, Note_off_c, 0, 58, 64
7, 45192, Note_on_c, 0, 58, 64
7, 45196, Note_off_c, 0, 63, 64
7, 45196, Note_on_c, 0, 63, 64
7, 45212, Note_off_c, 0, 67, 64
7, 45212, Note_on_c, 0, 67, 64
7, 45224, Note_off_c, 0, 75, 64
7, 45228, Note_on_c, 0, 75, 64
7, 45460, Note_off_c, 0, 75, 64
7, 45460, Note_on_c, 0, 75, 64
7, 45472, Note_off_c, 0, 67, 64
7, 45480, Note_on_c, 0, 67, 64
7, 45664, Note_off_c, 0, 58, 64
7, 45664, Note_on_c, 0, 58, 64
7, 45680, Note_off_c, 0, 63, 64
7, 45680, Note_on_c, 0, 63, 64
7, 45688, Note_off_c, 0, 67, 64
7, 45688, Note_on_c, 0, 67, 64
7, 45700, Note_off_c, 0, 75, 64
7, 45704, Note_on_c, 0, 75, 64
7, 45812, Note_off_c, 0, 55, 64
7, 45816, Note_on_c, 0, 53, 64
7, 45936, Note_off_c, 0, 75, 64
7, 45936, Note_on_c, 0, 75, 64
7, 45940, Note_off_c, 0, 67, 64
7, 45940, Note_off_c, 0, 75, 64
7, 45940, Note_on_c, 0, 72, 64
7, 45940, Note_on_c, 0, 67, 64
7, 46116, Note_off_c, 0, 63, 64
7, 46116, Note_on_c, 0, 65, 64
7, 46148, Note_off_c, 0, 67, 64
7, 46148, Note_on_c, 0, 70, 64
7, 46156, Note_off_c, 0, 58, 64
7, 46156, Note_on_c, 0, 58, 64
7, 46164, Note_off_c, 0, 65, 64
7, 46168, Note_off_c, 0, 72, 64
7, 46168, Note_off_c, 0, 70, 64
7, 46168, Note_on_c, 0, 65, 64
7, 46168, Note_on_c, 0, 74, 64
7, 46168, Note_on_c, 0, 70, 64
7, 46180, Note_off_c, 0, 74, 64
7, 46180, Note_on_c, 0, 74, 64
7, 46400, Note_off_c, 0, 74, 64
7, 46408, Note_on_c, 0, 74, 64
7, 46424, Note_off_c, 0, 70, 64
7, 46424, Note_on_c, 0, 70, 64
7, 46612, Note_off_c, 0, 58, 64
7, 46612, Note_on_c, 0, 58, 64
7, 46632, Note_off_c, 0, 65, 64
7, 46632, Note_on_c, 0, 65, 64
7, 46640, Note_off_c, 0, 70, 64
7, 46640, Note_on_c, 0, 70, 64
7, 46660, Note_off_c, 0, 74, 64
7, 46660, Note_on_c, 0, 74, 64
7, 46888, Note_off_c, 0, 70, 64
7, 46888, Note_off_c, 0, 74, 64
7, 46888, Note_on_c, 0, 74, 64
7, 46888, Note_on_c, 0, 70, 64
7, 46936, Note_off_c, 0, 74, 64
7, 46936, Note_on_c, 0, 72, 64
7, 46960, Note_off_c, 0, 65, 64
7, 46960, Note_on_c, 0, 63, 64
7, 47120, Note_off_c, 0, 58, 64
7, 47120, Note_off_c, 0, 63, 64
7, 47120, Note_on_c, 0, 65, 64
7, 47120, Note_on_c, 0, 58, 64
7, 47132, Note_off_c, 0, 72, 64
7, 47132, Note_on_c, 0, 74, 64
7, 47140, Note_off_c, 0, 65, 64
7, 47140, Note_on_c, 0, 65, 64
7, 47152, Note_off_c, 0, 70, 64
7, 47156, Note_on_c, 0, 70, 64
7, 47160, Note_off_c, 0, 74, 64
7, 47160, Note_on_c, 0, 74, 64
7, 47308, Note_off_c, 0, 53, 64
7, 47380, Note_off_c, 0, 74, 64
7, 47380, Note_on_c, 0, 74, 64
7, 47584, Note_off_c, 0, 58, 64
7, 47588, Note_off_c, 0, 65, 64
7, 47588, Note_on_c, 0, 58, 64
7, 47588, Note_on_c, 0, 65, 64
7, 47608, Note_off_c, 0, 70, 64
7, 47608, Note_on_c, 0, 70, 64
7, 47840, Note_off_c, 0, 74, 64
7, 47840, Note_on_c, 0, 72, 64
7, 47840, Note_on_c, 0, 72, 64
7, 47841, Note_off_c, 0, 72, 64
7, 47868, Note_off_c, 0, 70, 64
7, 47868, Note_on_c, 0, 70, 64
7, 47876, Note_off_c, 0, 65, 64
7, 47876, Note_on_c, 0, 63, 64
7, 47877, Note_off_c, 0, 63, 64
7, 47884, Note_off_c, 0, 58, 64
7, 47884, Note_on_c, 0, 63, 64
7, 47888, Note_on_c, 0, 58, 64
7, 48028, Note_off_c, 0, 72, 64
7, 48028, Note_on_c, 0, 74, 64
7, 48040, Note_off_c, 0, 63, 64
7, 48040, Note_on_c, 0, 65, 64
7, 48064, Note_on_c, 0, 53, 64
7, 48076, Note_off_c, 0, 58, 64
7, 48076, Note_on_c, 0, 58, 64
7, 48092, Note_off_c, 0, 65, 64
7, 48092, Note_on_c, 0, 65, 64
7, 48100, Note_off_c, 0, 70, 64
7, 48104, Note_on_c, 0, 70, 64
7, 48120, Note_off_c, 0, 74, 64
7, 48120, Note_on_c, 0, 74, 64
7, 48336, Note_off_c, 0, 74, 64
7, 48336, Note_on_c, 0, 74, 64
7, 48364, Note_off_c, 0, 70, 64
7, 48368, Note_on_c, 0, 70, 64
7, 48552, Note_off_c, 0, 65, 64
7, 48560, Note_on_c, 0, 65, 64
7, 48568, Note_off_c, 0, 70, 64
7, 48568, Note_on_c, 0, 70, 64
7, 48580, Note_off_c, 0, 74, 64
7, 48580, Note_on_c, 0, 74, 64
7, 48672, Note_off_c, 0, 70, 64
7, 48680, Note_on_c, 0, 70, 64
7, 48796, Note_off_c, 0, 74, 64
7, 48796, Note_on_c, 0, 74, 64
7, 48812, Note_off_c, 0, 70, 64
7, 48812, Note_on_c, 0, 70, 64
7, 48836, Note_off_c, 0, 74, 64
7, 48836, Note_on_c, 0, 72, 64
7, 48852, Note_off_c, 0, 65, 64
7, 48852, Note_on_c, 0, 63, 64
7, 49016, Note_off_c, 0, 53, 64
7, 49016, Note_off_c, 0, 72, 64
7, 49016, Note_off_c, 0, 63, 64
7, 49016, Note_on_c, 0, 74, 64
7, 49016, Note_on_c, 0, 65, 64
7, 49016, Note_on_c, 0, 53, 64
7, 49040, Note_off_c, 0, 58, 64
7, 49040, Note_on_c, 0, 58, 64
7, 49052, Note_off_c, 0, 65, 64
7, 49056, Note_on_c, 0, 65, 64
7, 49064, Note_off_c, 0, 70, 64
7, 49064, Note_on_c, 0, 70, 64
7, 49076, Note_off_c, 0, 74, 64
7, 49076, Note_on_c, 0, 74, 64
7, 49292, Note_off_c, 0, 74, 64
7, 49292, Note_on_c, 0, 74, 64
7, 49312, Note_off_c, 0, 70, 64
7, 49312, Note_on_c, 0, 70, 64
7, 49504, Note_off_c, 0, 58, 64
7, 49504, Note_on_c, 0, 58, 64
7, 49520, Note_off_c, 0, 65, 64
7, 49520, Note_on_c, 0, 65, 64
7, 49536, Note_off_c, 0, 70, 64
7, 49536, Note_on_c, 0, 70, 64
7, 49544, Note_off_c, 0, 74, 64
7, 49544, Note_on_c, 0, 74, 64
7, 49760, Note_off_c, 0, 74, 64
7, 49760, Note_on_c, 0, 74, 64
7, 49788, Note_off_c, 0, 74, 64
7, 49788, Note_on_c, 0, 72, 64
7, 49792, Note_off_c, 0, 65, 64
7, 49792, Note_on_c, 0, 63, 64
7, 49800, Note_off_c, 0, 70, 64
7, 49800, Note_on_c, 0, 70, 64
7, 49948, Note_off_c, 0, 72, 64
7, 49964, Note_off_c, 0, 63, 64
7, 49996, Note_off_c, 0, 53, 64
7, 50004, Note_off_c, 0, 58, 64
7, 50024, Note_on_c, 0, 58, 64
7, 50024, Note_on_c, 0, 74, 64
7, 50032, Note_off_c, 0, 70, 64
7, 50032, Note_on_c, 0, 65, 64
7, 50032, Note_on_c, 0, 65, 64
7, 50032, Note_on_c, 0, 70, 64
7, 50033, Note_off_c, 0, 65, 64
7, 50052, Note_off_c, 0, 74, 64
7, 50052, Note_on_c, 0, 74, 64
7, 50140, Note_off_c, 0, 65, 64
7, 50140, Note_on_c, 0, 65, 64
7, 50276, Note_off_c, 0, 74, 64
7, 50276, Note_on_c, 0, 74, 64
7, 50312, Note_off_c, 0, 70, 64
7, 50316, Note_on_c, 0, 70, 64
7, 50488, Note_off_c, 0, 58, 64
7, 50488, Note_on_c, 0, 58, 64
7, 50496, Note_off_c, 0, 65, 64
7, 50496, Note_on_c, 0, 65, 64
7, 50504, Note_off_c, 0, 70, 64
7, 50504, Note_on_c, 0, 70, 64
7, 50744, Note_off_c, 0, 74, 64
7, 50744, Note_off_c, 0, 65, 64
7, 50744, Note_on_c, 0, 72, 64
7, 50744, Note_on_c, 0, 63, 64
7, 50760, Note_off_c, 0, 72, 64
7, 50764, Note_on_c, 0, 72, 64
7, 50932, Note_off_c, 0, 72, 64
7, 50932, Note_on_c, 0, 74, 64
7, 50948, Note_off_c, 0, 63, 64
7, 50948, Note_on_c, 0, 65, 64
7, 50972, Note_off_c, 0, 58, 64
7, 50976, Note_on_c, 0, 58, 64
7, 50988, Note_off_c, 0, 65, 64
7, 50988, Note_on_c, 0, 65, 64
7, 51000, Note_off_c, 0, 70, 64
7, 51000, Note_on_c, 0, 70, 64
7, 51020, Note_off_c, 0, 74, 64
7, 51020, Note_on_c, 0, 74, 64
7, 51108, Note_off_c, 0, 70, 64
7, 51112, Note_on_c, 0, 70, 64
7, 51232, Note_off_c, 0, 74, 64
7, 51232, Note_on_c, 0, 74, 64
7, 51436, Note_off_c, 0, 58, 64
7, 51436, Note_on_c, 0, 58, 64
7, 51448, Note_off_c, 0, 65, 64
7, 51448, Note_on_c, 0, 65, 64
7, 51460, Note_off_c, 0, 70, 64
7, 51464, Note_on_c, 0, 70, 64
7, 51512, Note_off_c, 0, 74, 64
7, 51512, Note_on_c, 0, 74, 64
7, 51676, Note_off_c, 0, 74, 64
7, 51676, Note_on_c, 0, 72, 64
7, 51708, Note_off_c, 0, 65, 64
7, 51708, Note_off_c, 0, 70, 64
7, 51708, Note_off_c, 0, 72, 64
7, 51708, Note_on_c, 0, 63, 64
7, 51708, Note_on_c, 0, 72, 64
7, 51708, Note_on_c, 0, 70, 64
7, 51908, Note_on_c, 0, 53, 64
7, 51924, Note_off_c, 0, 58, 64
7, 51924, Note_on_c, 0, 58, 64
7, 51928, Note_off_c, 0, 63, 64
7, 51928, Note_off_c, 0, 72, 64
7, 51928, Note_on_c, 0, 74, 64
7, 51928, Note_on_c, 0, 65, 64
7, 51940, Note_off_c, 0, 65, 64
7, 51944, Note_off_c, 0, 70, 64
7, 51944, Note_on_c, 0, 65, 64
7, 51944, Note_on_c, 0, 70, 64
7, 52172, Note_off_c, 0, 74, 64
7, 52176, Note_on_c, 0, 74, 64
7, 52184, Note_off_c, 0, 70, 64
7, 52184, Note_on_c, 0, 70, 64
7, 52380, Note_off_c, 0, 58, 64
7, 52380, Note_on_c, 0, 58, 64
7, 52392, Note_off_c, 0, 65, 64
7, 52392, Note_on_c, 0, 65, 64
7, 52404, Note_off_c, 0, 70, 64
7, 52404, Note_on_c, 0, 70, 64
7, 52420, Note_off_c, 0, 74, 64
7, 52420, Note_on_c, 0, 74, 64
7, 52640, Note_off_c, 0, 74, 64
7, 52640, Note_on_c, 0, 74, 64
7, 52648, Note_off_c, 0, 70, 64
7, 52648, Note_off_c, 0, 74, 64
7, 52648, Note_on_c, 0, 72, 64
7, 52648, Note_on_c, 0, 70, 64
7, 52680, Note_off_c, 0, 65, 64
7, 52680, Note_on_c, 0, 63, 64
7, 52840, Note_off_c, 0, 63, 64
7, 52840, Note_on_c, 0, 64, 64
7, 52848, Note_off_c, 0, 72, 64
7, 52852, Note_on_c, 0, 74, 64
7, 52868, Note_off_c, 0, 58, 64
7, 52868, Note_on_c, 0, 58, 64
7, 52876, Note_off_c, 0, 64, 64
7, 52876, Note_on_c, 0, 65, 64
7, 52877, Note_off_c, 0, 65, 64
7, 52884, Note_on_c, 0, 65, 64
7, 52888, Note_off_c, 0, 70, 64
7, 52888, Note_on_c, 0, 70, 64
7, 52916, Note_off_c, 0, 74, 64
7, 52920, Note_on_c, 0, 74, 64
7, 53120, Note_off_c, 0, 74, 64
7, 53120, Note_on_c, 0, 74, 64
7, 53340, Note_off_c, 0, 58, 64
7, 53340, Note_on_c, 0, 58, 64
7, 53344, Note_off_c, 0, 65, 64
7, 53344, Note_on_c, 0, 65, 64
7, 53360, Note_off_c, 0, 70, 64
7, 53360, Note_on_c, 0, 70, 64
7, 53408, Note_off_c, 0, 53, 64
7, 53584, Note_off_c, 0, 74, 64
7, 53588, Note_on_c, 0, 74, 64
7, 53600, Note_off_c, 0, 74, 64
7, 53600, Note_on_c, 0, 72, 64
7, 53620, Note_off_c, 0, 65, 64
7, 53620, Note_on_c, 0, 63, 64
7, 53824, Note_off_c, 0, 58, 64
7, 53824, Note_off_c, 0, 72, 64
7, 53824, Note_on_c, 0, 74, 64
7, 53828, Note_off_c, 0, 63, 64
7, 53828, Note_on_c, 0, 58, 64
7, 53836, Note_on_c, 0, 63, 64
7, 53844, Note_off_c, 0, 63, 64
7, 53844, Note_off_c, 0, 70, 64
7, 53844, Note_on_c, 0, 65, 64
7, 53844, Note_on_c, 0, 70, 64
7, 53860, Note_off_c, 0, 74, 64
7, 53860, Note_on_c, 0, 74, 64
7, 54064, Note_off_c, 0, 74, 64
7, 54072, Note_on_c, 0, 74, 64
7, 54080, Note_off_c, 0, 70, 64
7, 54080, Note_on_c, 0, 70, 64
7, 54284, Note_off_c, 0, 58, 64
7, 54284, Note_on_c, 0, 58, 64
7, 54296, Note_off_c, 0, 65, 64
7, 54300, Note_on_c, 0, 65, 64
7, 54304, Note_off_c, 0, 70, 64
7, 54304, Note_on_c, 0, 70, 64
7, 54320, Note_off_c, 0, 74, 64
7, 54320, Note_on_c, 0, 74, 64
7, 54544, Note_off_c, 0, 74, 64
7, 54544, Note_on_c, 0, 74, 64
7, 54576, Note_off_c, 0, 70, 64
7, 54576, Note_on_c, 0, 70, 64
7, 54580, Note_off_c, 0, 74, 64
7, 54580, Note_on_c, 0, 72, 64
7, 54592, Note_off_c, 0, 65, 64
7, 54592, Note_on_c, 0, 63, 64
7, 54720, Note_off_c, 0, 72, 64
7, 54720, Note_on_c, 0, 74, 64
7, 54740, Note_off_c, 0, 63, 64
7, 54748, Note_on_c, 0, 65, 64
7, 54784, Note_on_c, 0, 53, 64
7, 54792, Note_off_c, 0, 58, 64
7, 54792, Note_on_c, 0, 58, 64
7, 54812, Note_off_c, 0, 65, 64
7, 54812, Note_on_c, 0, 65, 64
7, 54816, Note_off_c, 0, 70, 64
7, 54816, Note_on_c, 0, 70, 64
7, 54832, Note_off_c, 0, 74, 64
7, 54832, Note_on_c, 0, 74, 64
7, 55056, Note_off_c, 0, 74, 64
7, 55056, Note_on_c, 0, 74, 64
7, 55068, Note_off_c, 0, 70, 64
7, 55068, Note_on_c, 0, 70, 64
7, 55280, Note_off_c, 0, 65, 64
7, 55280, Note_on_c, 0, 65, 64
7, 55292, Note_off_c, 0, 70, 64
7, 55292, Note_on_c, 0, 70, 64
7, 55360, Note_off_c, 0, 74, 64
7, 55360, Note_on_c, 0, 74, 64
7, 55516, Note_off_c, 0, 74, 64
7, 55532, Note_off_c, 0, 65, 64
7, 55532, Note_on_c, 0, 72, 64
7, 55532, Note_on_c, 0, 63, 64
7, 55532, Note_on_c, 0, 72, 64
7, 55533, Note_off_c, 0, 72, 64
7, 55540, Note_off_c, 0, 70, 64
7, 55540, Note_on_c, 0, 70, 64
7, 55552, Note_off_c, 0, 63, 64
7, 55552, Note_on_c, 0, 63, 64
7, 55720, Note_off_c, 0, 72, 64
7, 55720, Note_on_c, 0, 74, 64
7, 55728, Note_off_c, 0, 63, 64
7, 55728, Note_on_c, 0, 65, 64
7, 55740, Note_off_c, 0, 58, 64
7, 55740, Note_on_c, 0, 58, 64
7, 55760, Note_off_c, 0, 65, 64
7, 55760, Note_on_c, 0, 65, 64
7, 55768, Note_off_c, 0, 70, 64
7, 55768, Note_on_c, 0, 70, 64
7, 55788, Note_off_c, 0, 74, 64
7, 55788, Note_on_c, 0, 74, 64
7, 55992, Note_off_c, 0, 74, 64
7, 55992, Note_on_c, 0, 74, 64
7, 56000, Note_off_c, 0, 70, 64
7, 56000, Note_on_c, 0, 70, 64
7, 56208, Note_off_c, 0, 58, 64
7, 56208, Note_on_c, 0, 58, 64
7, 56228, Note_off_c, 0, 65, 64
7, 56228, Note_on_c, 0, 65, 64
7, 56236, Note_off_c, 0, 70, 64
7, 56236, Note_on_c, 0, 70, 64
7, 56256, Note_off_c, 0, 74, 64
7, 56256, Note_on_c, 0, 74, 64
7, 56284, Note_off_c, 0, 53, 64
7, 56464, Note_off_c, 0, 74, 64
7, 56464, Note_on_c, 0, 72, 64
7, 56476, Note_off_c, 0, 72, 64
7, 56476, Note_on_c, 0, 72, 64
7, 56480, Note_off_c, 0, 65, 64
7, 56480, Note_on_c, 0, 63, 64
7, 56500, Note_off_c, 0, 70, 64
7, 56500, Note_on_c, 0, 70, 64
7, 56676, Note_off_c, 0, 72, 64
7, 56680, Note_off_c, 0, 58, 64
7, 56680, Note_on_c, 0, 74, 64
7, 56680, Note_on_c, 0, 58, 64
7, 56692, Note_off_c, 0, 63, 64
7, 56692, Note_on_c, 0, 63, 64
7, 56700, Note_off_c, 0, 70, 64
7, 56700, Note_off_c, 0, 63, 64
7, 56700, Note_on_c, 0, 65, 64
7, 56700, Note_on_c, 0, 70, 64
7, 56716, Note_off_c, 0, 74, 64
7, 56716, Note_on_c, 0, 74, 64
7, 56916, Note_off_c, 0, 74, 64
7, 56916, Note_on_c, 0, 74, 64
7, 56924, Note_off_c, 0, 70, 64
7, 56924, Note_on_c, 0, 70, 64
7, 56936, Note_off_c, 0, 65, 64
7, 56936, Note_on_c, 0, 65, 64
7, 57120, Note_off_c, 0, 58, 64
7, 57120, Note_off_c, 0, 70, 64
7, 57120, Note_off_c, 0, 65, 64
7, 57120, Note_on_c, 0, 58, 64
7, 57120, Note_on_c, 0, 65, 64
7, 57120, Note_on_c, 0, 70, 64
7, 57164, Note_off_c, 0, 74, 64
7, 57164, Note_on_c, 0, 74, 64
7, 57264, Note_off_c, 0, 70, 64
7, 57264, Note_on_c, 0, 67, 64
7, 57320, Note_off_c, 0, 74, 64
7, 57320, Note_on_c, 0, 72, 64
7, 57380, Note_off_c, 0, 65, 64
7, 57380, Note_on_c, 0, 63, 64
7, 57384, Note_off_c, 0, 72, 64
7, 57384, Note_on_c, 0, 75, 64
7, 57392, Note_off_c, 0, 75, 64
7, 57400, Note_off_c, 0, 67, 64
7, 57400, Note_on_c, 0, 75, 64
7, 57400, Note_on_c, 0, 67, 64
7, 57412, Note_off_c, 0, 63, 64
7, 57420, Note_on_c, 0, 63, 64
7, 57620, Note_on_c, 0, 51, 64
7, 57620, Note_on_c, 0, 55, 64
7, 57640, Note_off_c, 0, 58, 64
7, 57640, Note_on_c, 0, 58, 64
7, 57648, Note_off_c, 0, 63, 64
7, 57656, Note_on_c, 0, 63, 64
7, 57660, Note_off_c, 0, 67, 64
7, 57660, Note_on_c, 0, 67, 64
7, 57668, Note_off_c, 0, 75, 64
7, 57668, Note_on_c, 0, 75, 64
7, 57880, Note_off_c, 0, 75, 64
7, 57880, Note_on_c, 0, 75, 64
7, 57896, Note_off_c, 0, 67, 64
7, 57896, Note_on_c, 0, 67, 64
7, 57904, Note_off_c, 0, 63, 64
7, 57904, Note_on_c, 0, 63, 64
7, 58128, Note_off_c, 0, 55, 64
7, 58128, Note_on_c, 0, 55, 64
7, 58144, Note_off_c, 0, 58, 64
7, 58144, Note_on_c, 0, 58, 64
7, 58148, Note_off_c, 0, 63, 64
7, 58148, Note_on_c, 0, 63, 64
7, 58164, Note_off_c, 0, 67, 64
7, 58164, Note_on_c, 0, 67, 64
7, 58180, Note_off_c, 0, 75, 64
7, 58180, Note_on_c, 0, 75, 64
7, 58388, Note_off_c, 0, 75, 64
7, 58388, Note_on_c, 0, 75, 64
7, 58396, Note_off_c, 0, 67, 64
7, 58396, Note_on_c, 0, 67, 64
7, 58400, Note_off_c, 0, 55, 64
7, 58400, Note_off_c, 0, 63, 64
7, 58400, Note_on_c, 0, 53, 64
7, 58400, Note_on_c, 0, 63, 64
7, 58420, Note_off_c, 0, 58, 64
7, 58420, Note_on_c, 0, 58, 64
7, 58440, Note_off_c, 0, 51, 64
7, 58440, Note_on_c, 0, 48, 64
7, 58536, Note_off_c, 0, 48, 64
7, 58536, Note_on_c, 0, 51, 64
7, 58560, Note_off_c, 0, 53, 64
7, 58560, Note_on_c, 0, 55, 64
7, 58600, Note_off_c, 0, 51, 64
7, 58600, Note_on_c, 0, 51, 64
7, 58604, Note_off_c, 0, 55, 64
7, 58604, Note_on_c, 0, 55, 64
7, 58624, Note_off_c, 0, 58, 64
7, 58624, Note_on_c, 0, 58, 64
7, 58632, Note_off_c, 0, 63, 64
7, 58636, Note_on_c, 0, 63, 64
7, 58652, Note_off_c, 0, 67, 64
7, 58652, Note_on_c, 0, 67, 64
7, 58724, Note_off_c, 0, 75, 64
7, 58724, Note_on_c, 0, 75, 64
7, 58872, Note_off_c, 0, 75, 64
7, 58876, Note_on_c, 0, 75, 64
7, 58880, Note_off_c, 0, 67, 64
7, 58888, Note_on_c, 0, 67, 64
7, 58892, Note_off_c, 0, 63, 64
7, 58892, Note_on_c, 0, 63, 64
7, 59096, Note_off_c, 0, 55, 64
7, 59096, Note_on_c, 0, 55, 64
7, 59104, Note_off_c, 0, 58, 64
7, 59104, Note_on_c, 0, 58, 64
7, 59120, Note_off_c, 0, 63, 64
7, 59120, Note_on_c, 0, 63, 64
7, 59128, Note_off_c, 0, 67, 64
7, 59128, Note_on_c, 0, 67, 64
7, 59136, Note_off_c, 0, 75, 64
7, 59136, Note_on_c, 0, 75, 64
7, 59344, Note_off_c, 0, 55, 64
7, 59344, Note_on_c, 0, 53, 64
7, 59356, Note_off_c, 0, 75, 64
7, 59356, Note_on_c, 0, 75, 64
7, 59360, Note_off_c, 0, 51, 64
7, 59360, Note_off_c, 0, 63, 64
7, 59360, Note_off_c, 0, 67, 64
7, 59360, Note_on_c, 0, 48, 64
7, 59360, Note_on_c, 0, 67, 64
7, 59360, Note_on_c, 0, 63, 64
7, 59512, Note_off_c, 0, 53, 64
7, 59512, Note_on_c, 0, 55, 64
7, 59516, Note_off_c, 0, 48, 64
7, 59516, Note_on_c, 0, 51, 64
7, 59592, Note_off_c, 0, 55, 64
7, 59596, Note_on_c, 0, 55, 64
7, 59600, Note_off_c, 0, 58, 64
7, 59600, Note_on_c, 0, 58, 64
7, 59612, Note_off_c, 0, 63, 64
7, 59612, Note_on_c, 0, 63, 64
7, 59624, Note_off_c, 0, 67, 64
7, 59624, Note_on_c, 0, 67, 64
7, 59640, Note_off_c, 0, 75, 64
7, 59640, Note_on_c, 0, 75, 64
7, 59844, Note_off_c, 0, 75, 64
7, 59844, Note_on_c, 0, 75, 64
7, 59860, Note_off_c, 0, 67, 64
7, 59860, Note_on_c, 0, 67, 64
7, 59868, Note_off_c, 0, 63, 64
7, 59868, Note_on_c, 0, 63, 64
7, 60064, Note_off_c, 0, 58, 64
7, 60064, Note_on_c, 0, 58, 64
7, 60080, Note_off_c, 0, 63, 64
7, 60080, Note_on_c, 0, 63, 64
7, 60092, Note_off_c, 0, 67, 64
7, 60092, Note_on_c, 0, 67, 64
7, 60156, Note_off_c, 0, 75, 64
7, 60156, Note_on_c, 0, 75, 64
7, 60252, Note_off_c, 0, 55, 64
7, 60252, Note_on_c, 0, 53, 64
7, 60288, Note_off_c, 0, 51, 64
7, 60292, Note_on_c, 0, 48, 64
7, 60316, Note_off_c, 0, 75, 64
7, 60316, Note_on_c, 0, 75, 64
7, 60320, Note_off_c, 0, 67, 64
7, 60320, Note_on_c, 0, 67, 64
7, 60340, Note_off_c, 0, 63, 64
7, 60340, Note_on_c, 0, 63, 64
7, 60352, Note_off_c, 0, 58, 64
7, 60352, Note_on_c, 0, 58, 64
7, 60436, Note_off_c, 0, 48, 64
7, 60436, Note_on_c, 0, 51, 64
7, 60476, Note_off_c, 0, 53, 64
7, 60476, Note_on_c, 0, 55, 64
7, 60540, Note_off_c, 0, 55, 64
7, 60540, Note_on_c, 0, 55, 64
7, 60552, Note_off_c, 0, 58, 64
7, 60552, Note_on_c, 0, 58, 64
7, 60564, Note_off_c, 0, 63, 64
7, 60564, Note_on_c, 0, 63, 64
7, 60572, Note_off_c, 0, 67, 64
7, 60572, Note_on_c, 0, 67, 64
7, 60784, Note_off_c, 0, 75, 64
7, 60784, Note_on_c, 0, 75, 64
7, 60796, Note_off_c, 0, 67, 64
7, 60796, Note_on_c, 0, 67, 64
7, 60800, Note_off_c, 0, 63, 64
7, 60800, Note_on_c, 0, 63, 64
7, 60820, Note_off_c, 0, 58, 64
7, 60820, Note_on_c, 0, 58, 64
7, 60992, Note_off_c, 0, 58, 64
7, 60996, Note_on_c, 0, 58, 64
7, 61004, Note_off_c, 0, 63, 64
7, 61004, Note_on_c, 0, 63, 64
7, 61016, Note_off_c, 0, 67, 64
7, 61016, Note_on_c, 0, 67, 64
7, 61028, Note_off_c, 0, 75, 64
7, 61028, Note_on_c, 0, 75, 64
7, 61048, Note_off_c, 0, 55, 64
7, 61052, Note_on_c, 0, 53, 64
7, 61120, Note_off_c, 0, 51, 64
7, 61120, Note_on_c, 0, 48, 64
7, 61248, Note_off_c, 0, 75, 64
7, 61248, Note_on_c, 0, 72, 64
7, 61260, Note_off_c, 0, 72, 64
7, 61264, Note_on_c, 0, 72, 64
7, 61276, Note_off_c, 0, 67, 64
7, 61276, Note_on_c, 0, 67, 64
7, 61424, Note_off_c, 0, 63, 64
7, 61424, Note_on_c, 0, 65, 64
7, 61460, Note_off_c, 0, 67, 64
7, 61460, Note_on_c, 0, 70, 64
7, 61476, Note_off_c, 0, 58, 64
7, 61476, Note_on_c, 0, 58, 64
7, 61492, Note_off_c, 0, 72, 64
7, 61492, Note_on_c, 0, 74, 64
7, 61496, Note_off_c, 0, 65, 64
7, 61496, Note_on_c, 0, 65, 64
7, 61504, Note_off_c, 0, 70, 64
7, 61504, Note_off_c, 0, 74, 64
7, 61504, Note_on_c, 0, 74, 64
7, 61504, Note_on_c, 0, 70, 64
7, 61728, Note_off_c, 0, 74, 64
7, 61728, Note_on_c, 0, 74, 64
7, 61744, Note_off_c, 0, 70, 64
7, 61748, Note_on_c, 0, 70, 64
7, 61940, Note_off_c, 0, 53, 64
7, 61940, Note_off_c, 0, 58, 64
7, 61940, Note_on_c, 0, 53, 64
7, 61940, Note_on_c, 0, 58, 64
7, 61964, Note_off_c, 0, 65, 64
7, 61964, Note_on_c, 0, 65, 64
7, 61980, Note_off_c, 0, 70, 64
7, 61980, Note_on_c, 0, 70, 64
7, 61992, Note_off_c, 0, 74, 64
7, 61992, Note_on_c, 0, 74, 64
7, 62220, Note_off_c, 0, 74, 64
7, 62228, Note_on_c, 0, 74, 64
7, 62236, Note_off_c, 0, 70, 64
7, 62236, Note_off_c, 0, 74, 64
7, 62236, Note_on_c, 0, 72, 64
7, 62248, Note_on_c, 0, 70, 64
7, 62256, Note_off_c, 0, 65, 64
7, 62260, Note_on_c, 0, 63, 64
7, 62424, Note_off_c, 0, 53, 64
7, 62424, Note_on_c, 0, 53, 64
7, 62428, Note_off_c, 0, 58, 64
7, 62428, Note_off_c, 0, 63, 64
7, 62428, Note_on_c, 0, 65, 64
7, 62428, Note_on_c, 0, 58, 64
7, 62440, Note_off_c, 0, 72, 64
7, 62440, Note_on_c, 0, 74, 64
7, 62448, Note_off_c, 0, 65, 64
7, 62456, Note_on_c, 0, 65, 64
7, 62460, Note_off_c, 0, 70, 64
7, 62460, Note_on_c, 0, 70, 64
7, 62472, Note_off_c, 0, 74, 64
7, 62472, Note_on_c, 0, 74, 64
7, 62616, Note_off_c, 0, 48, 64
7, 62688, Note_off_c, 0, 74, 64
7, 62688, Note_on_c, 0, 74, 64
7, 62920, Note_off_c, 0, 58, 64
7, 62920, Note_on_c, 0, 58, 64
7, 62932, Note_off_c, 0, 65, 64
7, 62932, Note_on_c, 0, 65, 64
7, 62944, Note_off_c, 0, 70, 64
7, 62944, Note_on_c, 0, 70, 64
7, 62960, Note_off_c, 0, 74, 64
7, 62960, Note_on_c, 0, 74, 64
7, 63184, Note_off_c, 0, 74, 64
7, 63184, Note_on_c, 0, 72, 64
7, 63196, Note_off_c, 0, 65, 64
7, 63200, Note_off_c, 0, 70, 64
7, 63200, Note_off_c, 0, 72, 64
7, 63200, Note_on_c, 0, 63, 64
7, 63200, Note_on_c, 0, 72, 64
7, 63200, Note_on_c, 0, 70, 64
7, 63380, Note_off_c, 0, 72, 64
7, 63380, Note_off_c, 0, 63, 64
7, 63380, Note_on_c, 0, 74, 64
7, 63380, Note_on_c, 0, 65, 64
7, 63412, Note_off_c, 0, 53, 64
7, 63412, Note_on_c, 0, 53, 64
7, 63424, Note_off_c, 0, 58, 64
7, 63424, Note_on_c, 0, 58, 64
7, 63440, Note_off_c, 0, 65, 64
7, 63440, Note_on_c, 0, 65, 64
7, 63452, Note_off_c, 0, 70, 64
7, 63456, Note_on_c, 0, 70, 64
7, 63472, Note_off_c, 0, 74, 64
7, 63472, Note_on_c, 0, 74, 64
7, 63684, Note_off_c, 0, 74, 64
7, 63684, Note_on_c, 0, 74, 64
7, 63884, Note_off_c, 0, 58, 64
7, 63884, Note_on_c, 0, 58, 64
7, 63892, Note_off_c, 0, 65, 64
7, 63892, Note_on_c, 0, 65, 64
7, 63904, Note_off_c, 0, 70, 64
7, 63904, Note_on_c, 0, 70, 64
7, 63924, Note_off_c, 0, 74, 64
7, 63924, Note_on_c, 0, 74, 64
7, 64120, Note_off_c, 0, 74, 64
7, 64120, Note_on_c, 0, 72, 64
7, 64136, Note_off_c, 0, 65, 64
7, 64136, Note_on_c, 0, 63, 64
7, 64160, Note_off_c, 0, 72, 64
7, 64160, Note_on_c, 0, 72, 64
7, 64176, Note_off_c, 0, 70, 64
7, 64176, Note_on_c, 0, 70, 64
7, 64180, Note_off_c, 0, 63, 64
7, 64180, Note_on_c, 0, 63, 64
7, 64380, Note_off_c, 0, 53, 64
7, 64380, Note_off_c, 0, 72, 64
7, 64380, Note_off_c, 0, 63, 64
7, 64380, Note_on_c, 0, 74, 64
7, 64380, Note_on_c, 0, 65, 64
7, 64380, Note_on_c, 0, 53, 64
7, 64396, Note_off_c, 0, 58, 64
7, 64396, Note_on_c, 0, 58, 64
7, 64404, Note_off_c, 0, 65, 64
7, 64412, Note_on_c, 0, 65, 64
7, 64416, Note_off_c, 0, 70, 64
7, 64416, Note_on_c, 0, 70, 64
7, 64432, Note_off_c, 0, 74, 64
7, 64432, Note_on_c, 0, 74, 64
7, 64656, Note_off_c, 0, 74, 64
7, 64668, Note_off_c, 0, 70, 64
7, 64668, Note_on_c, 0, 74, 64
7, 64668, Note_on_c, 0, 70, 64
7, 64676, Note_off_c, 0, 65, 64
7, 64676, Note_on_c, 0, 65, 64
7, 64852, Note_off_c, 0, 58, 64
7, 64852, Note_on_c, 0, 58, 64
7, 64864, Note_off_c, 0, 65, 64
7, 64864, Note_on_c, 0, 65, 64
7, 64872, Note_off_c, 0, 70, 64
7, 64872, Note_on_c, 0, 70, 64
7, 64888, Note_off_c, 0, 74, 64
7, 64888, Note_on_c, 0, 74, 64
7, 64988, Note_off_c, 0, 70, 64
7, 64988, Note_on_c, 0, 70, 64
7, 65052, Note_off_c, 0, 70, 64
7, 65052, Note_on_c, 0, 69, 64
7, 65084, Note_off_c, 0, 74, 64
7, 65088, Note_off_c, 0, 69, 64
7, 65088, Note_on_c, 0, 72, 64
7, 65088, Note_on_c, 0, 67, 64
7, 65120, Note_off_c, 0, 72, 64
7, 65120, Note_on_c, 0, 72, 64
7, 65136, Note_off_c, 0, 65, 64
7, 65144, Note_off_c, 0, 67, 64
7, 65144, Note_on_c, 0, 63, 64
7, 65144, Note_on_c, 0, 67, 64
7, 65280, Note_off_c, 0, 63, 64
7, 65280, Note_on_c, 0, 65, 64
7, 65316, Note_off_c, 0, 67, 64
7, 65316, Note_on_c, 0, 69, 64
7, 65320, Note_off_c, 0, 58, 64
7, 65320, Note_on_c, 0, 60, 64
7, 65348, Note_off_c, 0, 53, 64
7, 65348, Note_on_c, 0, 53, 64
7, 65364, Note_off_c, 0, 60, 64
7, 65364, Note_on_c, 0, 60, 64
7, 65384, Note_off_c, 0, 65, 64
7, 65384, Note_on_c, 0, 65, 64
7, 65400, Note_off_c, 0, 69, 64
7, 65400, Note_on_c, 0, 69, 64
7, 65408, Note_off_c, 0, 72, 64
7, 65408, Note_on_c, 0, 72, 64
7, 65608, Note_off_c, 0, 72, 64
7, 65608, Note_on_c, 0, 72, 64
7, 65624, Note_off_c, 0, 69, 64
7, 65624, Note_on_c, 0, 69, 64
7, 65628, Note_off_c, 0, 65, 64
7, 65628, Note_on_c, 0, 65, 64
7, 65820, Note_off_c, 0, 53, 64
7, 65824, Note_on_c, 0, 53, 64
7, 65828, Note_off_c, 0, 60, 64
7, 65828, Note_on_c, 0, 60, 64
7, 65840, Note_off_c, 0, 65, 64
7, 65840, Note_on_c, 0, 65, 64
7, 65852, Note_off_c, 0, 69, 64
7, 65852, Note_on_c, 0, 69, 64
7, 65876, Note_off_c, 0, 72, 64
7, 65876, Note_on_c, 0, 72, 64
7, 66068, Note_off_c, 0, 69, 64
7, 66068, Note_off_c, 0, 72, 64
7, 66068, Note_on_c, 0, 67, 64
7, 66068, Note_on_c, 0, 72, 64
7, 66080, Note_off_c, 0, 67, 64
7, 66080, Note_on_c, 0, 67, 64
7, 66100, Note_off_c, 0, 65, 64
7, 66100, Note_on_c, 0, 65, 64
7, 66120, Note_off_c, 0, 65, 64
7, 66120, Note_on_c, 0, 63, 64
7, 66132, Note_off_c, 0, 60, 64
7, 66132, Note_on_c, 0, 58, 64
7, 66260, Note_off_c, 0, 63, 64
7, 66264, Note_off_c, 0, 58, 64
7, 66264, Note_on_c, 0, 65, 64
7, 66264, Note_on_c, 0, 60, 64
7, 66284, Note_off_c, 0, 67, 64
7, 66284, Note_on_c, 0, 69, 64
7, 66308, Note_off_c, 0, 53, 64
7, 66316, Note_on_c, 0, 53, 64
7, 66324, Note_off_c, 0, 60, 64
7, 66324, Note_on_c, 0, 60, 64
7, 66336, Note_off_c, 0, 65, 64
7, 66336, Note_on_c, 0, 65, 64
7, 66348, Note_off_c, 0, 69, 64
7, 66348, Note_on_c, 0, 69, 64
7, 66564, Note_off_c, 0, 72, 64
7, 66564, Note_on_c, 0, 72, 64
7, 66572, Note_off_c, 0, 69, 64
7, 66572, Note_on_c, 0, 69, 64
7, 66588, Note_off_c, 0, 65, 64
7, 66588, Note_on_c, 0, 65, 64
7, 66772, Note_off_c, 0, 60, 64
7, 66772, Note_on_c, 0, 60, 64
7, 66788, Note_off_c, 0, 65, 64
7, 66788, Note_on_c, 0, 65, 64
7, 66796, Note_off_c, 0, 69, 64
7, 66796, Note_on_c, 0, 69, 64
7, 66804, Note_off_c, 0, 72, 64
7, 66804, Note_on_c, 0, 72, 64
7, 66972, Note_off_c, 0, 69, 64
7, 66972, Note_on_c, 0, 67, 64
7, 67000, Note_off_c, 0, 65, 64
7, 67000, Note_on_c, 0, 63, 64
7, 67020, Note_off_c, 0, 60, 64
7, 67028, Note_on_c, 0, 58, 64
7, 67032, Note_off_c, 0, 72, 64
7, 67032, Note_on_c, 0, 72, 64
7, 67040, Note_off_c, 0, 67, 64
7, 67040, Note_on_c, 0, 67, 64
7, 67084, Note_off_c, 0, 72, 64
7, 67092, Note_on_c, 0, 75, 64
7, 67220, Note_off_c, 0, 53, 64
7, 67220, Note_on_c, 0, 55, 64
7, 67252, Note_off_c, 0, 55, 64
7, 67252, Note_on_c, 0, 55, 64
7, 67264, Note_off_c, 0, 58, 64
7, 67264, Note_on_c, 0, 58, 64
7, 67284, Note_off_c, 0, 63, 64
7, 67284, Note_on_c, 0, 63, 64
7, 67292, Note_off_c, 0, 67, 64
7, 67292, Note_on_c, 0, 67, 64
7, 67308, Note_off_c, 0, 75, 64
7, 67308, Note_on_c, 0, 75, 64
7, 67504, Note_off_c, 0, 75, 64
7, 67504, Note_on_c, 0, 75, 64
7, 67520, Note_off_c, 0, 67, 64
7, 67520, Note_on_c, 0, 67, 64
7, 67740, Note_off_c, 0, 55, 64
7, 67744, Note_on_c, 0, 55, 64
7, 67752, Note_off_c, 0, 58, 64
7, 67752, Note_on_c, 0, 58, 64
7, 67764, Note_off_c, 0, 63, 64
7, 67764, Note_on_c, 0, 63, 64
7, 67776, Note_off_c, 0, 67, 64
7, 67776, Note_on_c, 0, 67, 64
7, 67784, Note_off_c, 0, 75, 64
7, 67784, Note_on_c, 0, 75, 64
7, 68000, Note_off_c, 0, 75, 64
7, 68000, Note_on_c, 0, 75, 64
7, 68016, Note_off_c, 0, 67, 64
7, 68016, Note_on_c, 0, 67, 64
7, 68028, Note_off_c, 0, 55, 64
7, 68028, Note_off_c, 0, 63, 64
7, 68028, Note_on_c, 0, 53, 64
7, 68028, Note_on_c, 0, 63, 64
7, 68040, Note_off_c, 0, 58, 64
7, 68040, Note_on_c, 0, 58, 64
7, 68176, Note_off_c, 0, 53, 64
7, 68176, Note_on_c, 0, 55, 64
7, 68224, Note_off_c, 0, 55, 64
7, 68224, Note_on_c, 0, 55, 64
7, 68232, Note_off_c, 0, 58, 64
7, 68232, Note_on_c, 0, 58, 64
7, 68236, Note_off_c, 0, 63, 64
7, 68236, Note_on_c, 0, 63, 64
7, 68252, Note_off_c, 0, 67, 64
7, 68252, Note_on_c, 0, 67, 64
7, 68264, Note_off_c, 0, 75, 64
7, 68268, Note_on_c, 0, 75, 64
7, 68500, Note_off_c, 0, 75, 64
7, 68500, Note_on_c, 0, 75, 64
7, 68512, Note_off_c, 0, 67, 64
7, 68520, Note_on_c, 0, 67, 64
7, 68704, Note_off_c, 0, 58, 64
7, 68704, Note_on_c, 0, 58, 64
7, 68720, Note_off_c, 0, 63, 64
7, 68720, Note_on_c, 0, 63, 64
7, 68728, Note_off_c, 0, 67, 64
7, 68728, Note_on_c, 0, 67, 64
7, 68740, Note_off_c, 0, 75, 64
7, 68744, Note_on_c, 0, 75, 64
7, 68852, Note_off_c, 0, 55, 64
7, 68856, Note_on_c, 0, 53, 64
7, 68976, Note_off_c, 0, 75, 64
7, 68976, Note_on_c, 0, 75, 64
7, 68980, Note_off_c, 0, 67, 64
7, 68980, Note_off_c, 0, 75, 64
7, 68980, Note_on_c, 0, 72, 64
7, 68980, Note_on_c, 0, 67, 64
7, 69156, Note_off_c, 0, 63, 64
7, 69156, Note_on_c, 0, 65, 64
7, 69188, Note_off_c, 0, 67, 64
7, 69188, Note_on_c, 0, 70, 64
7, 69196, Note_off_c, 0, 58, 64
7, 69196, Note_on_c, 0, 58, 64
7, 69204, Note_off_c, 0, 65, 64
7, 69208, Note_off_c, 0, 72, 64
7, 69208, Note_off_c, 0, 70, 64
7, 69208, Note_on_c, 0, 65, 64
7, 69208, Note_on_c, 0, 74, 64
7, 69208, Note_on_c, 0, 70, 64
7, 69220, Note_off_c, 0, 74, 64
7, 69220, Note_on_c, 0, 74, 64
7, 69440, Note_off_c, 0, 74, 64
7, 69448, Note_on_c, 0, 74, 64
7, 69464, Note_off_c, 0, 70, 64
7, 69464, Note_on_c, 0, 70, 64
7, 69652, Note_off_c, 0, 58, 64
7, 69652, Note_on_c, 0, 58, 64
7, 69672, Note_off_c, 0, 65, 64
7, 69672, Note_on_c, 0, 65, 64
7, 69680, Note_off_c, 0, 70, 64
7, 69680, Note_on_c, 0, 70, 64
7, 69700, Note_off_c, 0, 74, 64
7, 69700, Note_on_c, 0, 74, 64
7, 69928, Note_off_c, 0, 70, 64
7, 69928, Note_off_c, 0, 74, 64
7, 69928, Note_on_c, 0, 74, 64
7, 69928, Note_on_c, 0, 70, 64
7, 69976, Note_off_c, 0, 74, 64
7, 69976, Note_on_c, 0, 72, 64
7, 70000, Note_off_c, 0, 65, 64
7, 70000, Note_on_c, 0, 63, 64
7, 70160, Note_off_c, 0, 58, 64
7, 70160, Note_off_c, 0, 63, 64
7, 70160, Note_on_c, 0, 65, 64
7, 70160, Note_on_c, 0, 58, 64
7, 70172, Note_off_c, 0, 72, 64
7, 70172, Note_on_c, 0, 74, 64
7, 70180, Note_off_c, 0, 65, 64
7, 70180, Note_on_c, 0, 65, 64
7, 70192, Note_off_c, 0, 70, 64
7, 70196, Note_on_c, 0, 70, 64
7, 70200, Note_off_c, 0, 74, 64
7, 70200, Note_on_c, 0, 74, 64
7, 70348, Note_off_c, 0, 53, 64
7, 70420, Note_off_c, 0, 74, 64
7, 70420, Note_on_c, 0, 74, 64
7, 70624, Note_off_c, 0, 58, 64
7, 70628, Note_off_c, 0, 65, 64
7, 70628, Note_on_c, 0, 58, 64
7, 70628, Note_on_c, 0, 65, 64
7, 70648, Note_off_c, 0, 70, 64
7, 70648, Note_on_c, 0, 70, 64
7, 70880, Note_off_c, 0, 74, 64
7, 70880, Note_on_c, 0, 72, 64
7, 70880, Note_on_c, 0, 72, 64
7, 70881, Note_off_c, 0, 72, 64
7, 70908, Note_off_c, 0, 70, 64
7, 70908, Note_on_c, 0, 70, 64
7, 70916, Note_off_c, 0, 65, 64
7, 70916, Note_on_c, 0, 63, 64
7, 70917, Note_off_c, 0, 63, 64
7, 70924, Note_off_c, 0, 58, 64
7, 70924, Note_on_c, 0, 63, 64
7, 70928, Note_on_c, 0, 58, 64
7, 71068, Note_off_c, 0, 72, 64
7, 71068, Note_on_c, 0, 74, 64
7, 71080, Note_off_c, 0, 63, 64
7, 71080, Note_on_c, 0, 65, 64
7, 71104, Note_on_c, 0, 53, 64
7, 71116, Note_off_c, 0, 58, 64
7, 71116, Note_on_c, 0, 58, 64
7, 71132, Note_off_c, 0, 65, 64
7, 71132, Note_on_c, 0, 65, 64
7, 71140, Note_off_c, 0, 70, 64
7, 71144, Note_on_c, 0, 70, 64
7, 71160, Note_off_c, 0, 74, 64
7, 71160, Note_on_c, 0, 74, 64
7, 71376, Note_off_c, 0, 74, 64
7, 71376, Note_on_c, 0, 74, 64
7, 71404, Note_off_c, 0, 70, 64
7, 71408, Note_on_c, 0, 70, 64
7, 71592, Note_off_c, 0, 65, 64
7, 71600, Note_on_c, 0, 65, 64
7, 71608, Note_off_c, 0, 70, 64
7, 71608, Note_on_c, 0, 70, 64
7, 71620, Note_off_c, 0, 74, 64
7, 71620, Note_on_c, 0, 74, 64
7, 71712, Note_off_c, 0, 70, 64
7, 71720, Note_on_c, 0, 70, 64
7, 71836, Note_off_c, 0, 74, 64
7, 71836, Note_on_c, 0, 74, 64
7, 71852, Note_off_c, 0, 70, 64
7, 71852, Note_on_c, 0, 70, 64
7, 71876, Note_off_c, 0, 74, 64
7, 71876, Note_on_c, 0, 72, 64
7, 71892, Note_off_c, 0, 65, 64
7, 71892, Note_on_c, 0, 63, 64
7, 72056, Note_off_c, 0, 53, 64
7, 72056, Note_off_c, 0, 72, 64
7, 72056, Note_off_c, 0, 63, 64
7, 72056, Note_on_c, 0, 74, 64
7, 72056, Note_on_c, 0, 65, 64
7, 72056, Note_on_c, 0, 53, 64
7, 72080, Note_off_c, 0, 58, 64
7, 72080, Note_on_c, 0, 58, 64
7, 72092, Note_off_c, 0, 65, 64
7, 72096, Note_on_c, 0, 65, 64
7, 72104, Note_off_c, 0, 70, 64
7, 72104, Note_on_c, 0, 70, 64
7, 72116, Note_off_c, 0, 74, 64
7, 72116, Note_on_c, 0, 74, 64
7, 72332, Note_off_c, 0, 74, 64
7, 72332, Note_on_c, 0, 74, 64
7, 72352, Note_off_c, 0, 70, 64
7, 72352, Note_on_c, 0, 70, 64
7, 72544, Note_off_c, 0, 58, 64
7, 72544, Note_on_c, 0, 58, 64
7, 72560, Note_off_c, 0, 65, 64
7, 72560, Note_on_c, 0, 65, 64
7, 72576, Note_off_c, 0, 70, 64
7, 72576, Note_on_c, 0, 70, 64
7, 72584, Note_off_c, 0, 74, 64
7, 72584, Note_on_c, 0, 74, 64
7, 72800, Note_off_c, 0, 74, 64
7, 72800, Note_on_c, 0, 74, 64
7, 72828, Note_off_c, 0, 74, 64
7, 72828, Note_on_c, 0, 72, 64
7, 72832, Note_off_c, 0, 65, 64
7, 72832, Note_on_c, 0, 63, 64
7, 72840, Note_off_c, 0, 70, 64
7, 72840, Note_on_c, 0, 70, 64
7, 72988, Note_off_c, 0, 72, 64
7, 73004, Note_off_c, 0, 63, 64
7, 73036, Note_off_c, 0, 53, 64
7, 73044, Note_off_c, 0, 58, 64
7, 73064, Note_on_c, 0, 58, 64
7, 73064, Note_on_c, 0, 74, 64
7, 73072, Note_off_c, 0, 70, 64
7, 73072, Note_on_c, 0, 65, 64
7, 73072, Note_on_c, 0, 65, 64
7, 73072, Note_on_c, 0, 70, 64
7, 73073, Note_off_c, 0, 65, 64
7, 73092, Note_off_c, 0, 74, 64
7, 73092, Note_on_c, 0, 74, 64
7, 73180, Note_off_c, 0, 65, 64
7, 73180, Note_on_c, 0, 65, 64
7, 73316, Note_off_c, 0, 74, 64
7, 73316, Note_on_c, 0, 74, 64
7, 73352, Note_off_c, 0, 70, 64
7, 73356, Note_on_c, 0, 70, 64
7, 73528, Note_off_c, 0, 58, 64
7, 73528, Note_on_c, 0, 58, 64
7, 73536, Note_off_c, 0, 65, 64
7, 73536, Note_on_c, 0, 65, 64
7, 73544, Note_off_c, 0, 70, 64
7, 73544, Note_on_c, 0, 70, 64
7, 73784, Note_off_c, 0, 74, 64
7, 73784, Note_off_c, 0, 65, 64
7, 73784, Note_on_c, 0, 72, 64
7, 73784, Note_on_c, 0, 63, 64
7, 73800, Note_off_c, 0, 72, 64
7, 73804, Note_on_c, 0, 72, 64
7, 73972, Note_off_c, 0, 72, 64
7, 73972, Note_on_c, 0, 74, 64
7, 73988, Note_off_c, 0, 63, 64
7, 73988, Note_on_c, 0, 65, 64
7, 74012, Note_off_c, 0, 58, 64
7, 74016, Note_on_c, 0, 58, 64
7, 74028, Note_off_c, 0, 65, 64
7, 74028, Note_on_c, 0, 65, 64
7, 74040, Note_off_c, 0, 70, 64
7, 74040, Note_on_c, 0, 70, 64
7, 74060, Note_off_c, 0, 74, 64
7, 74060, Note_on_c, 0, 74, 64
7, 74148, Note_off_c, 0, 70, 64
7, 74152, Note_on_c, 0, 70, 64
7, 74272, Note_off_c, 0, 74, 64
7, 74272, Note_on_c, 0, 74, 64
7, 74476, Note_off_c, 0, 58, 64
7, 74476, Note_on_c, 0, 58, 64
7, 74488, Note_off_c, 0, 65, 64
7, 74488, Note_on_c, 0, 65, 64
7, 74500, Note_off_c, 0, 70, 64
7, 74504, Note_on_c, 0, 70, 64
7, 74552, Note_off_c, 0, 74, 64
7, 74552, Note_on_c, 0, 74, 64
7, 74716, Note_off_c, 0, 74, 64
7, 74716, Note_on_c, 0, 72, 64
7, 74748, Note_off_c, 0, 65, 64
7, 74748, Note_off_c, 0, 70, 64
7, 74748, Note_off_c, 0, 72, 64
7, 74748, Note_on_c, 0, 63, 64
7, 74748, Note_on_c, 0, 72, 64
7, 74748, Note_on_c, 0, 70, 64
7, 74948, Note_on_c, 0, 53, 64
7, 74964, Note_off_c, 0, 58, 64
7, 74964, Note_on_c, 0, 58, 64
7, 74968, Note_off_c, 0, 63, 64
7, 74968, Note_off_c, 0, 72, 64
7, 74968, Note_on_c, 0, 74, 64
7, 74968, Note_on_c, 0, 65, 64
7, 74980, Note_off_c, 0, 65, 64
7, 74984, Note_off_c, 0, 70, 64
7, 74984, Note_on_c, 0, 65, 64
7, 74984, Note_on_c, 0, 70, 64
7, 75212, Note_off_c, 0, 74, 64
7, 75216, Note_on_c, 0, 74, 64
7, 75224, Note_off_c, 0, 70, 64
7, 75224, Note_on_c, 0, 70, 64
7, 75420, Note_off_c, 0, 58, 64
7, 75420, Note_on_c, 0, 58, 64
7, 75432, Note_off_c, 0, 65, 64
7, 75432, Note_on_c, 0, 65, 64
7, 75444, Note_off_c, 0, 70, 64
7, 75444, Note_on_c, 0, 70, 64
7, 75460, Note_off_c, 0, 74, 64
7, 75460, Note_on_c, 0, 74, 64
7, 75680, Note_off_c, 0, 74, 64
7, 75680, Note_on_c, 0, 74, 64
7, 75688, Note_off_c, 0, 70, 64
7, 75688, Note_off_c, 0, 74, 64
7, 75688, Note_on_c, 0, 72, 64
7, 75688, Note_on_c, 0, 70, 64
7, 75720, Note_off_c, 0, 65, 64
7, 75720, Note_on_c, 0, 63, 64
7, 75880, Note_off_c, 0, 63, 64
7, 75880, Note_on_c, 0, 64, 64
7, 75888, Note_off_c, 0, 72, 64
7, 75892, Note_on_c, 0, 74, 64
7, 75908, Note_off_c, 0, 58, 64
7, 75908, Note_on_c, 0, 58, 64
7, 75916, Note_off_c, 0, 64, 64
7, 75916, Note_on_c, 0, 65, 64
7, 75917, Note_off_c, 0, 65, 64
7, 75924, Note_on_c, 0, 65, 64
7, 75928, Note_off_c, 0, 70, 64
7, 75928, Note_on_c, 0, 70, 64
7, 75956, Note_off_c, 0, 74, 64
7, 75960, Note_on_c, 0, 74, 64
7, 76160, Note_off_c, 0, 74, 64
7, 76160, Note_on_c, 0, 74, 64
7, 76380, Note_off_c, 0, 58, 64
7, 76380, Note_on_c, 0, 58, 64
7, 76384, Note_off_c, 0, 65, 64
7, 76384, Note_on_c, 0, 65, 64
7, 76400, Note_off_c, 0, 70, 64
7, 76400, Note_on_c, 0, 70, 64
7, 76448, Note_off_c, 0, 53, 64
7, 76624, Note_off_c, 0, 74, 64
7, 76628, Note_on_c, 0, 74, 64
7, 76640, Note_off_c, 0, 74, 64
7, 76640, Note_on_c, 0, 72, 64
7, 76660, Note_off_c, 0, 65, 64
7, 76660, Note_on_c, 0, 63, 64
7, 76864, Note_off_c, 0, 58, 64
7, 76864, Note_off_c, 0, 72, 64
7, 76864, Note_on_c, 0, 74, 64
7, 76868, Note_off_c, 0, 63, 64
7, 76868, Note_on_c, 0, 58, 64
7, 76876, Note_on_c, 0, 63, 64
7, 76884, Note_off_c, 0, 63, 64
7, 76884, Note_off_c, 0, 70, 64
7, 76884, Note_on_c, 0, 65, 64
7, 76884, Note_on_c, 0, 70, 64
7, 76900, Note_off_c, 0, 74, 64
7, 76900, Note_on_c, 0, 74, 64
7, 77104, Note_off_c, 0, 74, 64
7, 77112, Note_on_c, 0, 74, 64
7, 77120, Note_off_c, 0, 70, 64
7, 77120, Note_on_c, 0, 70, 64
7, 77324, Note_off_c, 0, 58, 64
7, 77324, Note_on_c, 0, 58, 64
7, 77336, Note_off_c, 0, 65, 64
7, 77340, Note_on_c, 0, 65, 64
7, 77344, Note_off_c, 0, 70, 64
7, 77344, Note_on_c, 0, 70, 64
7, 77360, Note_off_c, 0, 74, 64
7, 77360, Note_on_c, 0, 74, 64
7, 77584, Note_off_c, 0, 74, 64
7, 77584, Note_on_c, 0, 74, 64
7, 77616, Note_off_c, 0, 70, 64
7, 77616, Note_on_c, 0, 70, 64
7, 77620, Note_off_c, 0, 74, 64
7, 77620, Note_on_c, 0, 72, 64
7, 77632, Note_off_c, 0, 65, 64
7, 77632, Note_on_c, 0, 63, 64
7, 77760, Note_off_c, 0, 72, 64
7, 77760, Note_on_c, 0, 74, 64
7, 77780, Note_off_c, 0, 63, 64
7, 77788, Note_on_c, 0, 65, 64
7, 77824, Note_on_c, 0, 53, 64
7, 77832, Note_off_c, 0, 58, 64
7, 77832, Note_on_c, 0, 58, 64
7, 77852, Note_off_c, 0, 65, 64
7, 77852, Note_on_c, 0, 65, 64
7, 77856, Note_off_c, 0, 70, 64
7, 77856, Note_on_c, 0, 70, 64
7, 77872, Note_off_c, 0, 74, 64
7, 77872, Note_on_c, 0, 74, 64
7, 78096, Note_off_c, 0, 74, 64
7, 78096, Note_on_c, 0, 74, 64
7, 78108, Note_off_c, 0, 70, 64
7, 78108, Note_on_c, 0, 70, 64
7, 78320, Note_off_c, 0, 65, 64
7, 78320, Note_on_c, 0, 65, 64
7, 78332, Note_off_c, 0, 70, 64
7, 78332, Note_on_c, 0, 70, 64
7, 78400, Note_off_c, 0, 74, 64
7, 78400, Note_on_c, 0, 74, 64
7, 78556, Note_off_c, 0, 74, 64
7, 78572, Note_off_c, 0, 65, 64
7, 78572, Note_on_c, 0, 72, 64
7, 78572, Note_on_c, 0, 63, 64
7, 78572, Note_on_c, 0, 72, 64
7, 78573, Note_off_c, 0, 72, 64
7, 78580, Note_off_c, 0, 70, 64
7, 78580, Note_on_c, 0, 70, 64
7, 78592, Note_off_c, 0, 63, 64
7, 78592, Note_on_c, 0, 63, 64
7, 78760, Note_off_c, 0, 72, 64
7, 78760, Note_on_c, 0, 74, 64
7, 78768, Note_off_c, 0, 63, 64
7, 78768, Note_on_c, 0, 65, 64
7, 78780, Note_off_c, 0, 58, 64
7, 78780, Note_on_c, 0, 58, 64
7, 78800, Note_off_c, 0, 65, 64
7, 78800, Note_on_c, 0, 65, 64
7, 78808, Note_off_c, 0, 70, 64
7, 78808, Note_on_c, 0, 70, 64
7, 78828, Note_off_c, 0, 74, 64
7, 78828, Note_on_c, 0, 74, 64
7, 79032, Note_off_c, 0, 74, 64
7, 79032, Note_on_c, 0, 74, 64
7, 79040, Note_off_c, 0, 70, 64
7, 79040, Note_on_c, 0, 70, 64
7, 79248, Note_off_c, 0, 58, 64
7, 79248, Note_on_c, 0, 58, 64
7, 79268, Note_off_c, 0, 65, 64
7, 79268, Note_on_c, 0, 65, 64
7, 79276, Note_off_c, 0, 70, 64
7, 79276, Note_on_c, 0, 70, 64
7, 79296, Note_off_c, 0, 74, 64
7, 79296, Note_on_c, 0, 74, 64
7, 79324, Note_off_c, 0, 53, 64
7, 79504, Note_off_c, 0, 74, 64
7, 79504, Note_on_c, 0, 72, 64
7, 79516, Note_off_c, 0, 72, 64
7, 79516, Note_on_c, 0, 72, 64
7, 79520, Note_off_c, 0, 65, 64
7, 79520, Note_on_c, 0, 63, 64
7, 79540, Note_off_c, 0, 70, 64
7, 79540, Note_on_c, 0, 70, 64
7, 79716, Note_off_c, 0, 72, 64
7, 79720, Note_off_c, 0, 58, 64
7, 79720, Note_on_c, 0, 74, 64
7, 79720, Note_on_c, 0, 58, 64
7, 79732, Note_off_c, 0, 63, 64
7, 79732, Note_on_c, 0, 63, 64
7, 79740, Note_off_c, 0, 70, 64
7, 79740, Note_off_c, 0, 63, 64
7, 79740, Note_on_c, 0, 65, 64
7, 79740, Note_on_c, 0, 70, 64
7, 79756, Note_off_c, 0, 74, 64
7, 79756, Note_on_c, 0, 74, 64
7, 79956, Note_off_c, 0, 74, 64
7, 79956, Note_on_c, 0, 74, 64
7, 79964, Note_off_c, 0, 70, 64
7, 79964, Note_on_c, 0, 70, 64
7, 79976, Note_off_c, 0, 65, 64
7, 79976, Note_on_c, 0, 65, 64
7, 80160, Note_off_c, 0, 58, 64
7, 80160, Note_off_c, 0, 70, 64
7, 80160, Note_off_c, 0, 65, 64
7, 80160, Note_on_c, 0, 58, 64
7, 80160, Note_on_c, 0, 65, 64
7, 80160, Note_on_c, 0, 70, 64
7, 80204, Note_off_c, 0, 74, 64
7, 80204, Note_on_c, 0, 74, 64
7, 80304, Note_off_c, 0, 70, 64
7, 80304, Note_on_c, 0, 67, 64
7, 80360, Note_off_c, 0, 74, 64
7, 80360, Note_on_c, 0, 72, 64
7, 80420, Note_off_c, 0, 65, 64
7, 80420, Note_on_c, 0, 63, 64
7, 80424, Note_off_c, 0, 72, 64
7, 80424, Note_on_c, 0, 75, 64
7, 80432, Note_off_c, 0, 75, 64
7, 80440, Note_off_c, 0, 67, 64
7, 80440, Note_on_c, 0, 75, 64
7, 80440, Note_on_c, 0, 67, 64
7, 80452, Note_off_c, 0, 63, 64
7, 80460, Note_on_c, 0, 63, 64
7, 80660, Note_on_c, 0, 51, 64
7, 80660, Note_on_c, 0, 55, 64
7, 80680, Note_off_c, 0, 58, 64
7, 80680, Note_on_c, 0, 58, 64
7, 80688, Note_off_c, 0, 63, 64
7, 80696, Note_on_c, 0, 63, 64
7, 80700, Note_off_c, 0, 67, 64
7, 80700, Note_on_c, 0, 67, 64
7, 80708, Note_off_c, 0, 75, 64
7, 80708, Note_on_c, 0, 75, 64
7, 80920, Note_off_c, 0, 75, 64
7, 80920, Note_on_c, 0, 75, 64
7, 80936, Note_off_c, 0, 67, 64
7, 80936, Note_on_c, 0, 67, 64
7, 80944, Note_off_c, 0, 63, 64
7, 80944, Note_on_c, 0, 63, 64
7, 81168, Note_off_c, 0, 55, 64
7, 81168, Note_on_c, 0, 55, 64
7, 81184, Note_off_c, 0, 58, 64
7, 81184, Note_on_c, 0, 58, 64
7, 81188, Note_off_c, 0, 63, 64
7, 81188, Note_on_c, 0, 63, 64
7, 81204, Note_off_c, 0, 67, 64
7, 81204, Note_on_c, 0, 67, 64
7, 81220, Note_off_c, 0, 75, 64
7, 81220, Note_on_c, 0, 75, 64
7, 81428, Note_off_c, 0, 75, 64
7, 81428, Note_on_c, 0, 75, 64
7, 81436, Note_off_c, 0, 67, 64
7, 81436, Note_on_c, 0, 67, 64
7, 81440, Note_off_c, 0, 55, 64
7, 81440, Note_off_c, 0, 63, 64
7, 81440, Note_on_c, 0, 53, 64
7, 81440, Note_on_c, 0, 63, 64
7, 81460, Note_off_c, 0, 58, 64
7, 81460, Note_on_c, 0, 58, 64
7, 81480, Note_off_c, 0, 51, 64
7, 81480, Note_on_c, 0, 48, 64
7, 81576, Note_off_c, 0, 48, 64
7, 81576, Note_on_c, 0, 51, 64
7, 81600, Note_off_c, 0, 53, 64
7, 81600, Note_on_c, 0, 55, 64
7, 81640, Note_off_c, 0, 51, 64
7, 81640, Note_on_c, 0, 51, 64
7, 81644, Note_off_c, 0, 55, 64
7, 81644, Note_on_c, 0, 55, 64
7, 81664, Note_off_c, 0, 58, 64
7, 81664, Note_on_c, 0, 58, 64
7, 81672, Note_off_c, 0, 63, 64
7, 81676, Note_on_c, 0, 63, 64
7, 81692, Note_off_c, 0, 67, 64
7, 81692, Note_on_c, 0, 67, 64
7, 81764, Note_off_c, 0, 75, 64
7, 81764, Note_on_c, 0, 75, 64
7, 81912, Note_off_c, 0, 75, 64
7, 81916, Note_on_c, 0, 75, 64
7, 81920, Note_off_c, 0, 67, 64
7, 81928, Note_on_c, 0, 67, 64
7, 81932, Note_off_c, 0, 63, 64
7, 81932, Note_on_c, 0, 63, 64
7, 82136, Note_off_c, 0, 55, 64
7, 82136, Note_on_c, 0, 55, 64
7, 82144, Note_off_c, 0, 58, 64
7, 82144, Note_on_c, 0, 58, 64
7, 82160, Note_off_c, 0, 63, 64
7, 82160, Note_on_c, 0, 63, 64
7, 82168, Note_off_c, 0, 67, 64
7, 82168, Note_on_c, 0, 67, 64
7, 82176, Note_off_c, 0, 75, 64
7, 82176, Note_on_c, 0, 75, 64
7, 82384, Note_off_c, 0, 55, 64
7, 82384, Note_on_c, 0, 53, 64
7, 82396, Note_off_c, 0, 75, 64
7, 82396, Note_on_c, 0, 75, 64
7, 82400, Note_off_c, 0, 51, 64
7, 82400, Note_off_c, 0, 63, 64
7, 82400, Note_off_c, 0, 67, 64
7, 82400, Note_on_c, 0, 48, 64
7, 82400, Note_on_c, 0, 67, 64
7, 82400, Note_on_c, 0, 63, 64
7, 82552, Note_off_c, 0, 53, 64
7, 82552, Note_on_c, 0, 55, 64
7, 82556, Note_off_c, 0, 48, 64
7, 82556, Note_on_c, 0, 51, 64
7, 82632, Note_off_c, 0, 55, 64
7, 82636, Note_on_c, 0, 55, 64
7, 82640, Note_off_c, 0, 58, 64
7, 82640, Note_on_c, 0, 58, 64
7, 82652, Note_off_c, 0, 63, 64
7, 82652, Note_on_c, 0, 63, 64
7, 82664, Note_off_c, 0, 67, 64
7, 82664, Note_on_c, 0, 67, 64
7, 82680, Note_off_c, 0, 75, 64
7, 82680, Note_on_c, 0, 75, 64
7, 82884, Note_off_c, 0, 75, 64
7, 82884, Note_on_c, 0, 75, 64
7, 82900, Note_off_c, 0, 67, 64
7, 82900, Note_on_c, 0, 67, 64
7, 82908, Note_off_c, 0, 63, 64
7, 82908, Note_on_c, 0, 63, 64
7, 83104, Note_off_c, 0, 58, 64
7, 83104, Note_on_c, 0, 58, 64
7, 83120, Note_off_c, 0, 63, 64
7, 83120, Note_on_c, 0, 63, 64
7, 83132, Note_off_c, 0, 67, 64
7, 83132, Note_on_c, 0, 67, 64
7, 83196, Note_off_c, 0, 75, 64
7, 83196, Note_on_c, 0, 75, 64
7, 83292, Note_off_c, 0, 55, 64
7, 83292, Note_on_c, 0, 53, 64
7, 83328, Note_off_c, 0, 51, 64
7, 83332, Note_on_c, 0, 48, 64
7, 83356, Note_off_c, 0, 75, 64
7, 83356, Note_on_c, 0, 75, 64
7, 83360, Note_off_c, 0, 67, 64
7, 83360, Note_on_c, 0, 67, 64
7, 83380, Note_off_c, 0, 63, 64
7, 83380, Note_on_c, 0, 63, 64
7, 83392, Note_off_c, 0, 58, 64
7, 83392, Note_on_c, 0, 58, 64
7, 83476, Note_off_c, 0, 48, 64
7, 83476, Note_on_c, 0, 51, 64
7, 83516, Note_off_c, 0, 53, 64
7, 83516, Note_on_c, 0, 55, 64
7, 83580, Note_off_c, 0, 55, 64
7, 83580, Note_on_c, 0, 55, 64
7, 83592, Note_off_c, 0, 58, 64
7, 83592, Note_on_c, 0, 58, 64
7, 83604, Note_off_c, 0, 63, 64
7, 83604, Note_on_c, 0, 63, 64
7, 83612, Note_off_c, 0, 67, 64
7, 83612, Note_on_c, 0, 67, 64
7, 83824, Note_off_c, 0, 75, 64
7, 83824, Note_on_c, 0, 75, 64
7, 83836, Note_off_c, 0, 67, 64
7, 83836, Note_on_c, 0, 67, 64
7, 83840, Note_off_c, 0, 63, 64
7, 83840, Note_on_c, 0, 63, 64
7, 83860, Note_off_c, 0, 58, 64
7, 83860, Note_on_c, 0, 58, 64
7, 84032, Note_off_c, 0, 58, 64
7, 84036, Note_on_c, 0, 58, 64
7, 84044, Note_off_c, 0, 63, 64
7, 84044, Note_on_c, 0, 63, 64
7, 84056, Note_off_c, 0, 67, 64
7, 84056, Note_on_c, 0, 67, 64
7, 84068, Note_off_c, 0, 75, 64
7, 84068, Note_on_c, 0, 75, 64
7, 84088, Note_off_c, 0, 55, 64
7, 84092, Note_on_c, 0, 53, 64
7, 84160, Note_off_c, 0, 51, 64
7, 84160, Note_on_c, 0, 48, 64
7, 84288, Note_off_c, 0, 75, 64
7, 84288, Note_on_c, 0, 72, 64
7, 84300, Note_off_c, 0, 72, 64
7, 84304, Note_on_c, 0, 72, 64
7, 84316, Note_off_c, 0, 67, 64
7, 84316, Note_on_c, 0, 67, 64
7, 84464, Note_off_c, 0, 63, 64
7, 84464, Note_on_c, 0, 65, 64
7, 84500, Note_off_c, 0, 67, 64
7, 84500, Note_on_c, 0, 70, 64
7, 84516, Note_off_c, 0, 58, 64
7, 84516, Note_on_c, 0, 58, 64
7, 84532, Note_off_c, 0, 72, 64
7, 84532, Note_on_c, 0, 74, 64
7, 84536, Note_off_c, 0, 65, 64
7, 84536, Note_on_c, 0, 65, 64
7, 84544, Note_off_c, 0, 70, 64
7, 84544, Note_off_c, 0, 74, 64
7, 84544, Note_on_c, 0, 74, 64
7, 84544, Note_on_c, 0, 70, 64
7, 84768, Note_off_c, 0, 74, 64
7, 84768, Note_on_c, 0, 74, 64
7, 84784, Note_off_c, 0, 70, 64
7, 84788, Note_on_c, 0, 70, 64
7, 84980, Note_off_c, 0, 53, 64
7, 84980, Note_off_c, 0, 58, 64
7, 84980, Note_on_c, 0, 53, 64
7, 84980, Note_on_c, 0, 58, 64
7, 85004, Note_off_c, 0, 65, 64
7, 85004, Note_on_c, 0, 65, 64
7, 85020, Note_off_c, 0, 70, 64
7, 85020, Note_on_c, 0, 70, 64
7, 85032, Note_off_c, 0, 74, 64
7, 85032, Note_on_c, 0, 74, 64
7, 85260, Note_off_c, 0, 74, 64
7, 85268, Note_on_c, 0, 74, 64
7, 85276, Note_off_c, 0, 70, 64
7, 85276, Note_off_c, 0, 74, 64
7, 85276, Note_on_c, 0, 72, 64
7, 85288, Note_on_c, 0, 70, 64
7, 85296, Note_off_c, 0, 65, 64
7, 85300, Note_on_c, 0, 63, 64
7, 85464, Note_off_c, 0, 53, 64
7, 85464, Note_on_c, 0, 53, 64
7, 85468, Note_off_c, 0, 58, 64
7, 85468, Note_off_c, 0, 63, 64
7, 85468, Note_on_c, 0, 65, 64
7, 85468, Note_on_c, 0, 58, 64
7, 85480, Note_off_c, 0, 72, 64
7, 85480, Note_on_c, 0, 74, 64
7, 85488, Note_off_c, 0, 65, 64
7, 85496, Note_on_c, 0, 65, 64
7, 85500, Note_off_c, 0, 70, 64
7, 85500, Note_on_c, 0, 70, 64
7, 85512, Note_off_c, 0, 74, 64
7, 85512, Note_on_c, 0, 74, 64
7, 85656, Note_off_c, 0, 48, 64
7, 85728, Note_off_c, 0, 74, 64
7, 85728, Note_on_c, 0, 74, 64
7, 85960, Note_off_c, 0, 58, 64
7, 85960, Note_on_c, 0, 58, 64
7, 85972, Note_off_c, 0, 65, 64
7, 85972, Note_on_c, 0, 65, 64
7, 85984, Note_off_c, 0, 70, 64
7, 85984, Note_on_c, 0, 70, 64
7, 86000, Note_off_c, 0, 74, 64
7, 86000, Note_on_c, 0, 74, 64
7, 86224, Note_off_c, 0, 74, 64
7, 86224, Note_on_c, 0, 72, 64
7, 86236, Note_off_c, 0, 65, 64
7, 86240, Note_off_c, 0, 70, 64
7, 86240, Note_off_c, 0, 72, 64
7, 86240, Note_on_c, 0, 63, 64
7, 86240, Note_on_c, 0, 72, 64
7, 86240, Note_on_c, 0, 70, 64
7, 86420, Note_off_c, 0, 72, 64
7, 86420, Note_off_c, 0, 63, 64
7, 86420, Note_on_c, 0, 74, 64
7, 86420, Note_on_c, 0, 65, 64
7, 86452, Note_off_c, 0, 53, 64
7, 86452, Note_on_c, 0, 53, 64
7, 86464, Note_off_c, 0, 58, 64
7, 86464, Note_on_c, 0, 58, 64
7, 86480, Note_off_c, 0, 65, 64
7, 86480, Note_on_c, 0, 65, 64
7, 86492, Note_off_c, 0, 70, 64
7, 86496, Note_on_c, 0, 70, 64
7, 86512, Note_off_c, 0, 74, 64
7, 86512, Note_on_c, 0, 74, 64
7, 86724, Note_off_c, 0, 74, 64
7, 86724, Note_on_c, 0, 74, 64
7, 86924, Note_off_c, 0, 58, 64
7, 86924, Note_on_c, 0, 58, 64
7, 86932, Note_off_c, 0, 65, 64
7, 86932, Note_on_c, 0, 65, 64
7, 86944, Note_off_c, 0, 70, 64
7, 86944, Note_on_c, 0, 70, 64
7, 86964, Note_off_c, 0, 74, 64
7, 86964, Note_on_c, 0, 74, 64
7, 87160, Note_off_c, 0, 74, 64
7, 87160, Note_on_c, 0, 72, 64
7, 87176, Note_off_c, 0, 65, 64
7, 87176, Note_on_c, 0, 63, 64
7, 87200, Note_off_c, 0, 72, 64
7, 87200, Note_on_c, 0, 72, 64
7, 87216, Note_off_c, 0, 70, 64
7, 87216, Note_on_c, 0, 70, 64
7, 87220, Note_off_c, 0, 63, 64
7, 87220, Note_on_c, 0, 63, 64
7, 87420, Note_off_c, 0, 53, 64
7, 87420, Note_off_c, 0, 72, 64
7, 87420, Note_off_c, 0, 63, 64
7, 87420, Note_on_c, 0, 74, 64
7, 87420, Note_on_c, 0, 65, 64
7, 87420, Note_on_c, 0, 53, 64
7, 87436, Note_off_c, 0, 58, 64
7, 87436, Note_on_c, 0, 58, 64
7, 87444, Note_off_c, 0, 65, 64
7, 87452, Note_on_c, 0, 65, 64
7, 87456, Note_off_c, 0, 70, 64
7, 87456, Note_on_c, 0, 70, 64
7, 87472, Note_off_c, 0, 74, 64
7, 87472, Note_on_c, 0, 74, 64
7, 87696, Note_off_c, 0, 74, 64
7, 87708, Note_off_c, 0, 70, 64
7, 87708, Note_on_c, 0, 74, 64
7, 87708, Note_on_c, 0, 70, 64
7, 87716, Note_off_c, 0, 65, 64
7, 87716, Note_on_c, 0, 65, 64
7, 87892, Note_off_c, 0, 58, 64
7, 87892, Note_on_c, 0, 58, 64
7, 87904, Note_off_c, 0, 65, 64
7, 87904, Note_on_c, 0, 65, 64
7, 87912, Note_off_c, 0, 70, 64
7, 87912, Note_on_c, 0, 70, 64
7, 87928, Note_off_c, 0, 74, 64
7, 87928, Note_on_c, 0, 74, 64
7, 88028, Note_off_c, 0, 70, 64
7, 88028, Note_on_c, 0, 70, 64
7, 88092, Note_off_c, 0, 70, 64
7, 88092, Note_on_c, 0, 69, 64
7, 88124, Note_off_c, 0, 74, 64
7, 88128, Note_off_c, 0, 69, 64
7, 88128, Note_on_c, 0, 72, 64
7, 88128, Note_on_c, 0, 67, 64
7, 88160, Note_off_c, 0, 72, 64
7, 88160, Note_on_c, 0, 72, 64
7, 88176, Note_off_c, 0, 65, 64
7, 88184, Note_off_c, 0, 67, 64
7, 88184, Note_on_c, 0, 63, 64
7, 88184, Note_on_c, 0, 67, 64
7, 88320, Note_off_c, 0, 63, 64
7, 88320, Note_on_c, 0, 65, 64
7, 88356, Note_off_c, 0, 67, 64
7, 88356, Note_on_c, 0, 69, 64
7, 88360, Note_off_c, 0, 58, 64
7, 88360, Note_on_c, 0, 60, 64
7, 88388, Note_off_c, 0, 53, 64
7, 88388, Note_on_c, 0, 53, 64
7, 88404, Note_off_c, 0, 60, 64
7, 88404, Note_on_c, 0, 60, 64
7, 88424, Note_off_c, 0, 65, 64
7, 88424, Note_on_c, 0, 65, 64
7, 88440, Note_off_c, 0, 69, 64
7, 88440, Note_on_c, 0, 69, 64
7, 88448, Note_off_c, 0, 72, 64
7, 88448, Note_on_c, 0, 72, 64
7, 88648, Note_off_c, 0, 72, 64
7, 88648, Note_on_c, 0, 72, 64
7, 88664, Note_off_c, 0, 69, 64
7, 88664, Note_on_c, 0, 69, 64
7, 88668, Note_off_c, 0, 65, 64
7, 88668, Note_on_c, 0, 65, 64
7, 88860, Note_off_c, 0, 53, 64
7, 88864, Note_on_c, 0, 53, 64
7, 88868, Note_off_c, 0, 60, 64
7, 88868, Note_on_c, 0, 60, 64
7, 88880, Note_off_c, 0, 65, 64
7, 88880, Note_on_c, 0, 65, 64
7, 88892, Note_off_c, 0, 69, 64
7, 88892, Note_on_c, 0, 69, 64
7, 88916, Note_off_c, 0, 72, 64
7, 88916, Note_on_c, 0, 72, 64
7, 89108, Note_off_c, 0, 69, 64
7, 89108, Note_off_c, 0, 72, 64
7, 89108, Note_on_c, 0, 67, 64
7, 89108, Note_on_c, 0, 72, 64
7, 89120, Note_off_c, 0, 67, 64
7, 89120, Note_on_c, 0, 67, 64
7, 89140, Note_off_c, 0, 65, 64
7, 89140, Note_on_c, 0, 65, 64
7, 89160, Note_off_c, 0, 65, 64
7, 89160, Note_on_c, 0, 63, 64
7, 89172, Note_off_c, 0, 60, 64
7, 89172, Note_on_c, 0, 58, 64
7, 89300, Note_off_c, 0, 63, 64
7, 89304, Note_off_c, 0, 58, 64
7, 89304, Note_on_c, 0, 65, 64
7, 89304, Note_on_c, 0, 60, 64
7, 89324, Note_off_c, 0, 67, 64
7, 89324, Note_on_c, 0, 69, 64
7, 89348, Note_off_c, 0, 53, 64
7, 89356, Note_on_c, 0, 53, 64
7, 89364, Note_off_c, 0, 60, 64
7, 89364, Note_on_c, 0, 60, 64
7, 89376, Note_off_c, 0, 65, 64
7, 89376, Note_on_c, 0, 65, 64
7, 89388, Note_off_c, 0, 69, 64
7, 89388, Note_on_c, 0, 69, 64
7, 89604, Note_off_c, 0, 72, 64
7, 89604, Note_on_c, 0, 72, 64
7, 89612, Note_off_c, 0, 69, 64
7, 89612, Note_on_c, 0, 69, 64
7, 89628, Note_off_c, 0, 65, 64
7, 89628, Note_on_c, 0, 65, 64
7, 89812, Note_off_c, 0, 60, 64
7, 89812, Note_on_c, 0, 60, 64
7, 89828, Note_off_c, 0, 65, 64
7, 89828, Note_on_c, 0, 65, 64
7, 89836, Note_off_c, 0, 69, 64
7, 89836, Note_on_c, 0, 69, 64
7, 89844, Note_off_c, 0, 72, 64
7, 89844, Note_on_c, 0, 72, 64
7, 90012, Note_off_c, 0, 69, 64
7, 90012, Note_on_c, 0, 67, 64
7, 90040, Note_off_c, 0, 65, 64
7, 90040, Note_on_c, 0, 63, 64
7, 90060, Note_off_c, 0, 60, 64
7, 90068, Note_on_c, 0, 58, 64
7, 90072, Note_off_c, 0, 72, 64
7, 90072, Note_on_c, 0, 72, 64
7, 90080, Note_off_c, 0, 67, 64
7, 90080, Note_on_c, 0, 67, 64
7, 90124, Note_off_c, 0, 72, 64
7, 90132, Note_on_c, 0, 75, 64
7, 90260, Note_off_c, 0, 53, 64
7, 90260, Note_on_c, 0, 55, 64
7, 90292, Note_off_c, 0, 55, 64
7, 90292, Note_on_c, 0, 55, 64
7, 90304, Note_off_c, 0, 58, 64
7, 90304, Note_on_c, 0, 58, 64
7, 90324, Note_off_c, 0, 63, 64
7, 90324, Note_on_c, 0, 63, 64
7, 90332, Note_off_c, 0, 67, 64
7, 90332, Note_on_c, 0, 67, 64
7, 90348, Note_off_c, 0, 75, 64
7, 90348, Note_on_c, 0, 75, 64
7, 90544, Note_off_c, 0, 75, 64
7, 90544, Note_on_c, 0, 75, 64
7, 90560, Note_off_c, 0, 67, 64
7, 90560, Note_on_c, 0, 67, 64
7, 90780, Note_off_c, 0, 55, 64
7, 90784, Note_on_c, 0, 55, 64
7, 90792, Note_off_c, 0, 58, 64
7, 90792, Note_on_c, 0, 58, 64
7, 90804, Note_off_c, 0, 63, 64
7, 90804, Note_on_c, 0, 63, 64
7, 90816, Note_off_c, 0, 67, 64
7, 90816, Note_on_c, 0, 67, 64
7, 90824, Note_off_c, 0, 75, 64
7, 90824, Note_on_c, 0, 75, 64
7, 91040, Note_off_c, 0, 75, 64
7, 91040, Note_on_c, 0, 75, 64
7, 91056, Note_off_c, 0, 67, 64
7, 91056, Note_on_c, 0, 67, 64
7, 91068, Note_off_c, 0, 55, 64
7, 91068, Note_off_c, 0, 63, 64
7, 91068, Note_on_c, 0, 53, 64
7, 91068, Note_on_c, 0, 63, 64
7, 91080, Note_off_c, 0, 58, 64
7, 91080, Note_on_c, 0, 58, 64
7, 91216, Note_off_c, 0, 53, 64
7, 91216, Note_on_c, 0, 55, 64
7, 91264, Note_off_c, 0, 55, 64
7, 91264, Note_on_c, 0, 55, 64
7, 91272, Note_off_c, 0, 58, 64
7, 91272, Note_on_c, 0, 58, 64
7, 91276, Note_off_c, 0, 63, 64
7, 91276, Note_on_c, 0, 63, 64
7, 91292, Note_off_c, 0, 67, 64
7, 91292, Note_on_c, 0, 67, 64
7, 91304, Note_off_c, 0, 75, 64
7, 91308, Note_on_c, 0, 75, 64
7, 91540, Note_off_c, 0, 75, 64
7, 91540, Note_on_c, 0, 75, 64
7, 91552, Note_off_c, 0, 67, 64
7, 91560, Note_on_c, 0, 67, 64
7, 91744, Note_off_c, 0, 58, 64
7, 91744, Note_on_c, 0, 58, 64
7, 91760, Note_off_c, 0, 63, 64
7, 91760, Note_on_c, 0, 63, 64
7, 91768, Note_off_c, 0, 67, 64
7, 91768, Note_on_c, 0, 67, 64
7, 91780, Note_off_c, 0, 75, 64
7, 91784, Note_on_c, 0, 75, 64
7, 91892, Note_off_c, 0, 55, 64
7, 91896, Note_on_c, 0, 53, 64
7, 92016, Note_off_c, 0, 75, 64
7, 92016, Note_on_c, 0, 75, 64
7, 92020, Note_off_c, 0, 67, 64
7, 92020, Note_off_c, 0, 75, 64
7, 92020, Note_on_c, 0, 72, 64
7, 92020, Note_on_c, 0, 67, 64
7, 92196, Note_off_c, 0, 63, 64
7, 92196, Note_on_c, 0, 65, 64
7, 92228, Note_off_c, 0, 67, 64
7, 92228, Note_on_c, 0, 70, 64
7, 92236, Note_off_c, 0, 58, 64
7, 92236, Note_on_c, 0, 58, 64
7, 92244, Note_off_c, 0, 65, 64
7, 92248, Note_off_c, 0, 72, 64
7, 92248, Note_off_c, 0, 70, 64
7, 92248, Note_on_c, 0, 65, 64
7, 92248, Note_on_c, 0, 74, 64
7, 92248, Note_on_c, 0, 70, 64
7, 92260, Note_off_c, 0, 74, 64
7, 92260, Note_on_c, 0, 74, 64
7, 92480, Note_off_c, 0, 74, 64
7, 92488, Note_on_c, 0, 74, 64
7, 92504, Note_off_c, 0, 70, 64
7, 92504, Note_on_c, 0, 70, 64
7, 92692, Note_off_c, 0, 58, 64
7, 92692, Note_on_c, 0, 58, 64
7, 92712, Note_off_c, 0, 65, 64
7, 92712, Note_on_c, 0, 65, 64
7, 92720, Note_off_c, 0, 70, 64
7, 92720, Note_on_c, 0, 70, 64
7, 92740, Note_off_c, 0, 74, 64
7, 92740, Note_on_c, 0, 74, 64
7, 92968, Note_off_c, 0, 70, 64
7, 92968, Note_off_c, 0, 74, 64
7, 92968, Note_on_c, 0, 74, 64
7, 92968, Note_on_c, 0, 70, 64
7, 93016, Note_off_c, 0, 74, 64
7, 93016, Note_on_c, 0, 72, 64
7, 93040, Note_off_c, 0, 65, 64
7, 93040, Note_on_c, 0, 63, 64
7, 93200, Note_off_c, 0, 58, 64
7, 93200, Note_off_c, 0, 63, 64
7, 93200, Note_on_c, 0, 65, 64
7, 93200, Note_on_c, 0, 58, 64
7, 93212, Note_off_c, 0, 72, 64
7, 93212, Note_on_c, 0, 74, 64
7, 93220, Note_off_c, 0, 65, 64
7, 93220, Note_on_c, 0, 65, 64
7, 93232, Note_off_c, 0, 70, 64
7, 93236, Note_on_c, 0, 70, 64
7, 93240, Note_off_c, 0, 74, 64
7, 93240, Note_on_c, 0, 74, 64
7, 93388, Note_off_c, 0, 53, 64
7, 93460, Note_off_c, 0, 74, 64
7, 93460, Note_on_c, 0, 74, 64
7, 93664, Note_off_c, 0, 58, 64
7, 93668, Note_off_c, 0, 65, 64
7, 93668, Note_on_c, 0, 58, 64
7, 93668, Note_on_c, 0, 65, 64
7, 93688, Note_off_c, 0, 70, 64
7, 93688, Note_on_c, 0, 70, 64
7, 93920, Note_off_c, 0, 74, 64
7, 93920, Note_on_c, 0, 72, 64
7, 93920, Note_on_c, 0, 72, 64
7, 93921, Note_off_c, 0, 72, 64
7, 93948, Note_off_c, 0, 70, 64
7, 93948, Note_on_c, 0, 70, 64
7, 93956, Note_off_c, 0, 65, 64
7, 93956, Note_on_c, 0, 63, 64
7, 93957, Note_off_c, 0, 63, 64
7, 93964, Note_off_c, 0, 58, 64
7, 93964, Note_on_c, 0, 63, 64
7, 93968, Note_on_c, 0, 58, 64
7, 94108, Note_off_c, 0, 72, 64
7, 94108, Note_on_c, 0, 74, 64
7, 94120, Note_off_c, 0, 63, 64
7, 94120, Note_on_c, 0, 65, 64
7, 94144, Note_on_c, 0, 53, 64
7, 94156, Note_off_c, 0, 58, 64
7, 94156, Note_on_c, 0, 58, 64
7, 94172, Note_off_c, 0, 65, 64
7, 94172, Note_on_c, 0, 65, 64
7, 94180, Note_off_c, 0, 70, 64
7, 94184, Note_on_c, 0, 70, 64
7, 94200, Note_off_c, 0, 74, 64
7, 94200, Note_on_c, 0, 74, 64
7, 94416, Note_off_c, 0, 74, 64
7, 94416, Note_on_c, 0, 74, 64
7, 94444, Note_off_c, 0, 70, 64
7, 94448, Note_on_c, 0, 70, 64
7, 94632, Note_off_c, 0, 65, 64
7, 94640, Note_on_c, 0, 65, 64
7, 94648, Note_off_c, 0, 70, 64
7, 94648, Note_on_c, 0, 70, 64
7, 94660, Note_off_c, 0, 74, 64
7, 94660, Note_on_c, 0, 74, 64
7, 94752, Note_off_c, 0, 70, 64
7, 94760, Note_on_c, 0, 70, 64
7, 94876, Note_off_c, 0, 74, 64
7, 94876, Note_on_c, 0, 74, 64
7, 94892, Note_off_c, 0, 70, 64
7, 94892, Note_on_c, 0, 70, 64
7, 94916, Note_off_c, 0, 74, 64
7, 94916, Note_on_c, 0, 72, 64
7, 94932, Note_off_c, 0, 65, 64
7, 94932, Note_on_c, 0, 63, 64
7, 95096, Note_off_c, 0, 53, 64
7, 95096, Note_off_c, 0, 72, 64
7, 95096, Note_off_c, 0, 63, 64
7, 95096, Note_on_c, 0, 74, 64
7, 95096, Note_on_c, 0, 65, 64
7, 95096, Note_on_c, 0, 53, 64
7, 95120, Note_off_c, 0, 58, 64
7, 95120, Note_on_c, 0, 58, 64
7, 95132, Note_off_c, 0, 65, 64
7, 95136, Note_on_c, 0, 65, 64
7, 95144, Note_off_c, 0, 70, 64
7, 95144, Note_on_c, 0, 70, 64
7, 95156, Note_off_c, 0, 74, 64
7, 95156, Note_on_c, 0, 74, 64
7, 95372, Note_off_c, 0, 74, 64
7, 95372, Note_on_c, 0, 74, 64
7, 95392, Note_off_c, 0, 70, 64
7, 95392, Note_on_c, 0, 70, 64
7, 95584, Note_off_c, 0, 58, 64
7, 95584, Note_on_c, 0, 58, 64
7, 95600, Note_off_c, 0, 65, 64
7, 95600, Note_on_c, 0, 65, 64
7, 95616, Note_off_c, 0, 70, 64
7, 95616, Note_on_c, 0, 70, 64
7, 95624, Note_off_c, 0, 74, 64
7, 95624, Note_on_c, 0, 74, 64
7, 95840, Note_off_c, 0, 74, 64
7, 95840, Note_on_c, 0, 74, 64
7, 95868, Note_off_c, 0, 74, 64
7, 95868, Note_on_c, 0, 72, 64
7, 95872, Note_off_c, 0, 65, 64
7, 95872, Note_on_c, 0, 63, 64
7, 95880, Note_off_c, 0, 70, 64
7, 95880, Note_on_c, 0, 70, 64
7, 96028, Note_off_c, 0, 72, 64
7, 96044, Note_off_c, 0, 63, 64
7, 96076, Note_off_c, 0, 53, 64
7, 96084, Note_off_c, 0, 58, 64
7, 96104, Note_on_c, 0, 58, 64
7, 96104, Note_on_c, 0, 74, 64
7, 96112, Note_off_c, 0, 70, 64
7, 96112, Note_on_c, 0, 65, 64
7, 96112, Note_on_c, 0, 65, 64
7, 96112, Note_on_c, 0, 70, 64
7, 96113, Note_off_c, 0, 65, 64
7, 96132, Note_off_c, 0, 74, 64
7, 96132, Note_on_c, 0, 74, 64
7, 96220, Note_off_c, 0, 65, 64
7, 96220, Note_on_c, 0, 65, 64
7, 96356, Note_off_c, 0, 74, 64
7, 96356, Note_on_c, 0, 74, 64
7, 96392, Note_off_c, 0, 70, 64
7, 96396, Note_on_c, 0, 70, 64
7, 96568, Note_off_c, 0, 58, 64
7, 96568, Note_on_c, 0, 58, 64
7, 96576, Note_off_c, 0, 65, 64
7, 96576, Note_on_c, 0, 65, 64
7, 96584, Note_off_c, 0, 70, 64
7, 96584, Note_on_c, 0, 70, 64
7, 96824, Note_off_c, 0, 74, 64
7, 96824, Note_off_c, 0, 65, 64
7, 96824, Note_on_c, 0, 72, 64
7, 96824, Note_on_c, 0, 63, 64
7, 96840, Note_off_c, 0, 72, 64
7, 96844, Note_on_c, 0, 72, 64
7, 97012, Note_off_c, 0, 72, 64
7, 97012, Note_on_c, 0, 74, 64
7, 97028, Note_off_c, 0, 63, 64
7, 97028, Note_on_c, 0, 65, 64
7, 97052, Note_off_c, 0, 58, 64
7, 97056, Note_on_c, 0, 58, 64
7, 97068, Note_off_c, 0, 65, 64
7, 97068, Note_on_c, 0, 65, 64
7, 97080, Note_off_c, 0, 70, 64
7, 97080, Note_on_c, 0, 70, 64
7, 97100, Note_off_c, 0, 74, 64
7, 97100, Note_on_c, 0, 74, 64
7, 97188, Note_off_c, 0, 70, 64
7, 97192, Note_on_c, 0, 70, 64
7, 97312, Note_off_c, 0, 74, 64
7, 97312, Note_on_c, 0, 74, 64
7, 97516, Note_off_c, 0, 58, 64
7, 97516, Note_on_c, 0, 58, 64
7, 97528, Note_off_c, 0, 65, 64
7, 97528, Note_on_c, 0, 65, 64
7, 97540, Note_off_c, 0, 70, 64
7, 97544, Note_on_c, 0, 70, 64
7, 97592, Note_off_c, 0, 74, 64
7, 97592, Note_on_c, 0, 74, 64
7, 97756, Note_off_c, 0, 74, 64
7, 97756, Note_on_c, 0, 72, 64
7, 97788, Note_off_c, 0, 65, 64
7, 97788, Note_off_c, 0, 70, 64
7, 97788, Note_off_c, 0, 72, 64
7, 97788, Note_on_c, 0, 63, 64
7, 97788, Note_on_c, 0, 72, 64
7, 97788, Note_on_c, 0, 70, 64
7, 97988, Note_on_c, 0, 53, 64
7, 98004, Note_off_c, 0, 58, 64
7, 98004, Note_on_c, 0, 58, 64
7, 98008, Note_off_c, 0, 63, 64
7, 98008, Note_off_c, 0, 72, 64
7, 98008, Note_on_c, 0, 74, 64
7, 98008, Note_on_c, 0, 65, 64
7, 98020, Note_off_c, 0, 65, 64
7, 98024, Note_off_c, 0, 70, 64
7, 98024, Note_on_c, 0, 65, 64
7, 98024, Note_on_c, 0, 70, 64
7, 98252, Note_off_c, 0, 74, 64
7, 98256, Note_on_c, 0, 74, 64
7, 98264, Note_off_c, 0, 70, 64
7, 98264, Note_on_c, 0, 70, 64
7, 98460, Note_off_c, 0, 58, 64
7, 98460, Note_on_c, 0, 58, 64
7, 98472, Note_off_c, 0, 65, 64
7, 98472, Note_on_c, 0, 65, 64
7, 98484, Note_off_c, 0, 70, 64
7, 98484, Note_on_c, 0, 70, 64
7, 98500, Note_off_c, 0, 74, 64
7, 98500, Note_on_c, 0, 74, 64
7, 98720, Note_off_c, 0, 74, 64
7, 98720, Note_on_c, 0, 74, 64
7, 98728, Note_off_c, 0, 70, 64
7, 98728, Note_off_c, 0, 74, 64
7, 98728, Note_on_c, 0, 72, 64
7, 98728, Note_on_c, 0, 70, 64
7, 98760, Note_off_c, 0, 65, 64
7, 98760, Note_on_c, 0, 63, 64
7, 98920, Note_off_c, 0, 63, 64
7, 98920, Note_on_c, 0, 64, 64
7, 98928, Note_off_c, 0, 72, 64
7, 98932, Note_on_c, 0, 74, 64
7, 98948, Note_off_c, 0, 58, 64
7, 98948, Note_on_c, 0, 58, 64
7, 98956, Note_off_c, 0, 64, 64
7, 98956, Note_on_c, 0, 65, 64
7, 98957, Note_off_c, 0, 65, 64
7, 98964, Note_on_c, 0, 65, 64
7, 98968, Note_off_c, 0, 70, 64
7, 98968, Note_on_c, 0, 70, 64
7, 98996, Note_off_c, 0, 74, 64
7, 99000, Note_on_c, 0, 74, 64
7, 99200, Note_off_c, 0, 74, 64
7, 99200, Note_on_c, 0, 74, 64
7, 99420, Note_off_c, 0, 58, 64
7, 99420, Note_on_c, 0, 58, 64
7, 99424, Note_off_c, 0, 65, 64
7, 99424, Note_on_c, 0, 65, 64
7, 99440, Note_off_c, 0, 70, 64
7, 99440, Note_on_c, 0, 70, 64
7, 99488, Note_off_c, 0, 53, 64
7, 99664, Note_off_c, 0, 74, 64
7, 99668, Note_on_c, 0, 74, 64
7, 99680, Note_off_c, 0, 74, 64
7, 99680, Note_on_c, 0, 72, 64
7, 99700, Note_off_c, 0, 65, 64
7, 99700, Note_on_c, 0, 63, 64
7, 99904, Note_off_c, 0, 58, 64
7, 99904, Note_off_c, 0, 72, 64
7, 99904, Note_on_c, 0, 74, 64
7, 99908, Note_off_c, 0, 63, 64
7, 99908, Note_on_c, 0, 58, 64
7, 99916, Note_on_c, 0, 63, 64
7, 99924, Note_off_c, 0, 63, 64
7, 99924, Note_off_c, 0, 70, 64
7, 99924, Note_on_c, 0, 65, 64
7, 99924, Note_on_c, 0, 70, 64
7, 99940, Note_off_c, 0, 74, 64
7, 99940, Note_on_c, 0, 74, 64
7, 100144, Note_off_c, 0, 74, 64
7, 100152, Note_on_c, 0, 74, 64
7, 100160, Note_off_c, 0, 70, 64
7, 100160, Note_on_c, 0, 70, 64
7, 100364, Note_off_c, 0, 58, 64
7, 100364, Note_on_c, 0, 58, 64
7, 100376, Note_off_c, 0, 65, 64
7, 100380, Note_on_c, 0, 65, 64
7, 100384, Note_off_c, 0, 70, 64
7, 100384, Note_on_c, 0, 70, 64
7, 100400, Note_off_c, 0, 74, 64
7, 100400, Note_on_c, 0, 74, 64
7, 100624, Note_off_c, 0, 74, 64
7, 100624, Note_on_c, 0, 74, 64
7, 100656, Note_off_c, 0, 70, 64
7, 100656, Note_on_c, 0, 70, 64
7, 100660, Note_off_c, 0, 74, 64
7, 100660, Note_on_c, 0, 72, 64
7, 100672, Note_off_c, 0, 65, 64
7, 100672, Note_on_c, 0, 63, 64
7, 100800, Note_off_c, 0, 72, 64
7, 100800, Note_on_c, 0, 74, 64
7, 100820, Note_off_c, 0, 63, 64
7, 100828, Note_on_c, 0, 65, 64
7, 100864, Note_on_c, 0, 53, 64
7, 100872, Note_off_c, 0, 58, 64
7, 100872, Note_on_c, 0, 58, 64
7, 100892, Note_off_c, 0, 65, 64
7, 100892, Note_on_c, 0, 65, 64
7, 100896, Note_off_c, 0, 70, 64
7, 100896, Note_on_c, 0, 70, 64
7, 100912, Note_off_c, 0, 74, 64
7, 100912, Note_on_c, 0, 74, 64
7, 101136, Note_off_c, 0, 74, 64
7, 101136, Note_on_c, 0, 74, 64
7, 101148, Note_off_c, 0, 70, 64
7, 101148, Note_on_c, 0, 70, 64
7, 101360, Note_off_c, 0, 65, 64
7, 101360, Note_on_c, 0, 65, 64
7, 101372, Note_off_c, 0, 70, 64
7, 101372, Note_on_c, 0, 70, 64
7, 101440, Note_off_c, 0, 74, 64
7, 101440, Note_on_c, 0, 74, 64
7, 101596, Note_off_c, 0, 74, 64
7, 101612, Note_off_c, 0, 65, 64
7, 101612, Note_on_c, 0, 72, 64
7, 101612, Note_on_c, 0, 63, 64
7, 101612, Note_on_c, 0, 72, 64
7, 101613, Note_off_c, 0, 72, 64
7, 101620, Note_off_c, 0, 70, 64
7, 101620, Note_on_c, 0, 70, 64
7, 101632, Note_off_c, 0, 63, 64
7, 101632, Note_on_c, 0, 63, 64
7, 101800, Note_off_c, 0, 72, 64
7, 101800, Note_on_c, 0, 74, 64
7, 101808, Note_off_c, 0, 63, 64
7, 101808, Note_on_c, 0, 65, 64
7, 101820, Note_off_c, 0, 58, 64
7, 101820, Note_on_c, 0, 58, 64
7, 101840, Note_off_c, 0, 65, 64
7, 101840, Note_on_c, 0, 65, 64
7, 101848, Note_off_c, 0, 70, 64
7, 101848, Note_on_c, 0, 70, 64
7, 101868, Note_off_c, 0, 74, 64
7, 101868, Note_on_c, 0, 74, 64
7, 102072, Note_off_c, 0, 74, 64
7, 102072, Note_on_c, 0, 74, 64
7, 102080, Note_off_c, 0, 70, 64
7, 102080, Note_on_c, 0, 70, 64
7, 102288, Note_off_c, 0, 58, 64
7, 102288, Note_on_c, 0, 58, 64
7, 102308, Note_off_c, 0, 65, 64
7, 102308, Note_on_c, 0, 65, 64
7, 102316, Note_off_c, 0, 70, 64
7, 102316, Note_on_c, 0, 70, 64
7, 102336, Note_off_c, 0, 74, 64
7, 102336, Note_on_c, 0, 74, 64
7, 102364, Note_off_c, 0, 53, 64
7, 102544, Note_off_c, 0, 74, 64
7, 102544, Note_on_c, 0, 72, 64
7, 102556, Note_off_c, 0, 72, 64
7, 102556, Note_on_c, 0, 72, 64
7, 102560, Note_off_c, 0, 65, 64
7, 102560, Note_on_c, 0, 63, 64
7, 102580, Note_off_c, 0, 70, 64
7, 102580, Note_on_c, 0, 70, 64
7, 102756, Note_off_c, 0, 72, 64
7, 102760, Note_off_c, 0, 58, 64
7, 102760, Note_on_c, 0, 74, 64
7, 102760, Note_on_c, 0, 58, 64
7, 102772, Note_off_c, 0, 63, 64
7, 102772, Note_on_c, 0, 63, 64
7, 102780, Note_off_c, 0, 70, 64
7, 102780, Note_off_c, 0, 63, 64
7, 102780, Note_on_c, 0, 65, 64
7, 102780, Note_on_c, 0, 70, 64
7, 102796, Note_off_c, 0, 74, 64
7, 102796, Note_on_c, 0, 74, 64
7, 102996, Note_off_c, 0, 74, 64
7, 102996, Note_on_c, 0, 74, 64
7, 103004, Note_off_c, 0, 70, 64
7, 103004, Note_on_c, 0, 70, 64
7, 103016, Note_off_c, 0, 65, 64
7, 103016, Note_on_c, 0, 65, 64
7, 103200, Note_off_c, 0, 58, 64
7, 103200, Note_off_c, 0, 70, 64
7, 103200, Note_off_c, 0, 65, 64
7, 103200, Note_on_c, 0, 58, 64
7, 103200, Note_on_c, 0, 65, 64
7, 103200, Note_on_c, 0, 70, 64
7, 103244, Note_off_c, 0, 74, 64
7, 103244, Note_on_c, 0, 74, 64
7, 103344, Note_off_c, 0, 70, 64
7, 103344, Note_on_c, 0, 67, 64
7, 103400, Note_off_c, 0, 74, 64
7, 103400, Note_on_c, 0, 72, 64
7, 103460, Note_off_c, 0, 65, 64
7, 103460, Note_on_c, 0, 63, 64
7, 103464, Note_off_c, 0, 72, 64
7, 103464, Note_on_c, 0, 75, 64
7, 103472, Note_off_c, 0, 75, 64
7, 103480, Note_off_c, 0, 67, 64
7, 103480, Note_on_c, 0, 75, 64
7, 103480, Note_on_c, 0, 67, 64
7, 103492, Note_off_c, 0, 63, 64
7, 103500, Note_on_c, 0, 63, 64
7, 103700, Note_on_c, 0, 51, 64
7, 103700, Note_on_c, 0, 55, 64
7, 103720, Note_off_c, 0, 58, 64
7, 103720, Note_on_c, 0, 58, 64
7, 103728, Note_off_c, 0, 63, 64
7, 103736, Note_on_c, 0, 63, 64
7, 103740, Note_off_c, 0, 67, 64
7, 103740, Note_on_c, 0, 67, 64
7, 103748, Note_off_c, 0, 75, 64
7, 103748, Note_on_c, 0, 75, 64
7, 103960, Note_off_c, 0, 75, 64
7, 103960, Note_on_c, 0, 75, 64
7, 103976, Note_off_c, 0, 67, 64
7, 103976, Note_on_c, 0, 67, 64
7, 103984, Note_off_c, 0, 63, 64
7, 103984, Note_on_c, 0, 63, 64
7, 104208, Note_off_c, 0, 55, 64
7, 104208, Note_on_c, 0, 55, 64
7, 104224, Note_off_c, 0, 58, 64
7, 104224, Note_on_c, 0, 58, 64
7, 104228, Note_off_c, 0, 63, 64
7, 104228, Note_on_c, 0, 63, 64
7, 104244, Note_off_c, 0, 67, 64
7, 104244, Note_on_c, 0, 67, 64
7, 104260, Note_off_c, 0, 75, 64
7, 104260, Note_on_c, 0, 75, 64
7, 104468, Note_off_c, 0, 75, 64
7, 104468, Note_on_c, 0, 75, 64
7, 104476, Note_off_c, 0, 67, 64
7, 104476, Note_on_c, 0, 67, 64
7, 104480, Note_off_c, 0, 55, 64
7, 104480, Note_off_c, 0, 63, 64
7, 104480, Note_on_c, 0, 53, 64
7, 104480, Note_on_c, 0, 63, 64
7, 104500, Note_off_c, 0, 58, 64
7, 104500, Note_on_c, 0, 58, 64
7, 104520, Note_off_c, 0, 51, 64
7, 104520, Note_on_c, 0, 48, 64
7, 104616, Note_off_c, 0, 48, 64
7, 104616, Note_on_c, 0, 51, 64
7, 104640, Note_off_c, 0, 53, 64
7, 104640, Note_on_c, 0, 55, 64
7, 104680, Note_off_c, 0, 51, 64
7, 104680, Note_on_c, 0, 51, 64
7, 104684, Note_off_c, 0, 55, 64
7, 104684, Note_on_c, 0, 55, 64
7, 104704, Note_off_c, 0, 58, 64
7, 104704, Note_on_c, 0, 58, 64
7, 104712, Note_off_c, 0, 63, 64
7, 104716, Note_on_c, 0, 63, 64
7, 104732, Note_off_c, 0, 67, 64
7, 104732, Note_on_c, 0, 67, 64
7, 104804, Note_off_c, 0, 75, 64
7, 104804, Note_on_c, 0, 75, 64
7, 104952, Note_off_c, 0, 75, 64
7, 104956, Note_on_c, 0, 75, 64
7, 104960, Note_off_c, 0, 67, 64
7, 104968, Note_on_c, 0, 67, 64
7, 104972, Note_off_c, 0, 63, 64
7, 104972, Note_on_c, 0, 63, 64
7, 105176, Note_off_c, 0, 55, 64
7, 105176, Note_on_c, 0, 55, 64
7, 105184, Note_off_c, 0, 58, 64
7, 105184, Note_on_c, 0, 58, 64
7, 105200, Note_off_c, 0, 63, 64
7, 105200, Note_on_c, 0, 63, 64
7, 105208, Note_off_c, 0, 67, 64
7, 105208, Note_on_c, 0, 67, 64
7, 105216, Note_off_c, 0, 75, 64
7, 105216, Note_on_c, 0, 75, 64
7, 105424, Note_off_c, 0, 55, 64
7, 105424, Note_on_c, 0, 53, 64
7, 105436, Note_off_c, 0, 75, 64
7, 105436, Note_on_c, 0, 75, 64
7, 105440, Note_off_c, 0, 51, 64
7, 105440, Note_off_c, 0, 63, 64
7, 105440, Note_off_c, 0, 67, 64
7, 105440, Note_on_c, 0, 48, 64
7, 105440, Note_on_c, 0, 67, 64
7, 105440, Note_on_c, 0, 63, 64
7, 105592, Note_off_c, 0, 53, 64
7, 105592, Note_on_c, 0, 55, 64
7, 105596, Note_off_c, 0, 48, 64
7, 105596, Note_on_c, 0, 51, 64
7, 105672, Note_off_c, 0, 55, 64
7, 105676, Note_on_c, 0, 55, 64
7, 105680, Note_off_c, 0, 58, 64
7, 105680, Note_on_c, 0, 58, 64
7, 105692, Note_off_c, 0, 63, 64
7, 105692, Note_on_c, 0, 63, 64
7, 105704, Note_off_c, 0, 67, 64
7, 105704, Note_on_c, 0, 67, 64
7, 105720, Note_off_c, 0, 75, 64
7, 105720, Note_on_c, 0, 75, 64
7, 105924, Note_off_c, 0, 75, 64
7, 105924, Note_on_c, 0, 75, 64
7, 105940, Note_off_c, 0, 67, 64
7, 105940, Note_on_c, 0, 67, 64
7, 105948, Note_off_c, 0, 63, 64
7, 105948, Note_on_c, 0, 63, 64
7, 106144, Note_off_c, 0, 58, 64
7, 106144, Note_on_c, 0, 58, 64
7, 106160, Note_off_c, 0, 63, 64
7, 106160, Note_on_c, 0, 63, 64
7, 106172, Note_off_c, 0, 67, 64
7, 106172, Note_on_c, 0, 67, 64
7, 106236, Note_off_c, 0, 75, 64
7, 106236, Note_on_c, 0, 75, 64
7, 106332, Note_off_c, 0, 55, 64
7, 106332, Note_on_c, 0, 53, 64
7, 106368, Note_off_c, 0, 51, 64
7, 106372, Note_on_c, 0, 48, 64
7, 106396, Note_off_c, 0, 75, 64
7, 106396, Note_on_c, 0, 75, 64
7, 106400, Note_off_c, 0, 67, 64
7, 106400, Note_on_c, 0, 67, 64
7, 106420, Note_off_c, 0, 63, 64
7, 106420, Note_on_c, 0, 63, 64
7, 106432, Note_off_c, 0, 58, 64
7, 106432, Note_on_c, 0, 58, 64
7, 106516, Note_off_c, 0, 48, 64
7, 106516, Note_on_c, 0, 51, 64
7, 106556, Note_off_c, 0, 53, 64
7, 106556, Note_on_c, 0, 55, 64
7, 106620, Note_off_c, 0, 55, 64
7, 106620, Note_on_c, 0, 55, 64
7, 106632, Note_off_c, 0, 58, 64
7, 106632, Note_on_c, 0, 58, 64
7, 106644, Note_off_c, 0, 63, 64
7, 106644, Note_on_c, 0, 63, 64
7, 106652, Note_off_c, 0, 67, 64
7, 106652, Note_on_c, 0, 67, 64
7, 106864, Note_off_c, 0, 75, 64
7, 106864, Note_on_c, 0, 75, 64
7, 106876, Note_off_c, 0, 67, 64
7, 106876, Note_on_c, 0, 67, 64
7, 106880, Note_off_c, 0, 63, 64
7, 106880, Note_on_c, 0, 63, 64
7, 106900, Note_off_c, 0, 58, 64
7, 106900, Note_on_c, 0, 58, 64
7, 107072, Note_off_c, 0, 58, 64
7, 107076, Note_on_c, 0, 58, 64
7, 107084, Note_off_c, 0, 63, 64
7, 107084, Note_on_c, 0, 63, 64
7, 107096, Note_off_c, 0, 67, 64
7, 107096, Note_on_c, 0, 67, 64
7, 107108, Note_off_c, 0, 75, 64
7, 107108, Note_on_c, 0, 75, 64
7, 107128, Note_off_c, 0, 55, 64
7, 107132, Note_on_c, 0, 53, 64
7, 107200, Note_off_c, 0, 51, 64
7, 107200, Note_on_c, 0, 48, 64
7, 107328, Note_off_c, 0, 75, 64
7, 107328, Note_on_c, 0, 72, 64
7, 107340, Note_off_c, 0, 72, 64
7, 107344, Note_on_c, 0, 72, 64
7, 107356, Note_off_c, 0, 67, 64
7, 107356, Note_on_c, 0, 67, 64
7, 107504, Note_off_c, 0, 63, 64
7, 107504, Note_on_c, 0, 65, 64
7, 107540, Note_off_c, 0, 67, 64
7, 107540, Note_on_c, 0, 70, 64
7, 107556, Note_off_c, 0, 58, 64
7, 107556, Note_on_c, 0, 58, 64
7, 107572, Note_off_c, 0, 72, 64
7, 107572, Note_on_c, 0, 74, 64
7, 107576, Note_off_c, 0, 65, 64
7, 107576, Note_on_c, 0, 65, 64
7, 107584, Note_off_c, 0, 70, 64
7, 107584, Note_off_c, 0, 74, 64
7, 107584, Note_on_c, 0, 74, 64
7, 107584, Note_on_c, 0, 70, 64
7, 107808, Note_off_c, 0, 74, 64
7, 107808, Note_on_c, 0, 74, 64
7, 107824, Note_off_c, 0, 70, 64
7, 107828, Note_on_c, 0, 70, 64
7, 108020, Note_off_c, 0, 53, 64
7, 108020, Note_off_c, 0, 58, 64
7, 108020, Note_on_c, 0, 53, 64
7, 108020, Note_on_c, 0, 58, 64
7, 108044, Note_off_c, 0, 65, 64
7, 108044, Note_on_c, 0, 65, 64
7, 108060, Note_off_c, 0, 70, 64
7, 108060, Note_on_c, 0, 70, 64
7, 108072, Note_off_c, 0, 74, 64
7, 108072, Note_on_c, 0, 74, 64
7, 108300, Note_off_c, 0, 74, 64
7, 108308, Note_on_c, 0, 74, 64
7, 108316, Note_off_c, 0, 70, 64
7, 108316, Note_off_c, 0, 74, 64
7, 108316, Note_on_c, 0, 72, 64
7, 108328, Note_on_c, 0, 70, 64
7, 108336, Note_off_c, 0, 65, 64
7, 108340, Note_on_c, 0, 63, 64
7, 108504, Note_off_c, 0, 53, 64
7, 108504, Note_on_c, 0, 53, 64
7, 108508, Note_off_c, 0, 58, 64
7, 108508, Note_off_c, 0, 63, 64
7, 108508, Note_on_c, 0, 65, 64
7, 108508, Note_on_c, 0, 58, 64
7, 108520, Note_off_c, 0, 72, 64
7, 108520, Note_on_c, 0, 74, 64
7, 108528, Note_off_c, 0, 65, 64
7, 108536, Note_on_c, 0, 65, 64
7, 108540, Note_off_c, 0, 70, 64
7, 108540, Note_on_c, 0, 70, 64
7, 108552, Note_off_c, 0, 74, 64
7, 108552, Note_on_c, 0, 74, 64
7, 108696, Note_off_c, 0, 48, 64
7, 108768, Note_off_c, 0, 74, 64
7, 108768, Note_on_c, 0, 74, 64
7, 109000, Note_off_c, 0, 58, 64
7, 109000, Note_on_c, 0, 58, 64
7, 109012, Note_off_c, 0, 65, 64
7, 109012, Note_on_c, 0, 65, 64
7, 109024, Note_off_c, 0, 70, 64
7, 109024, Note_on_c, 0, 70, 64
7, 109040, Note_off_c, 0, 74, 64
7, 109040, Note_on_c, 0, 74, 64
7, 109264, Note_off_c, 0, 74, 64
7, 109264, Note_on_c, 0, 72, 64
7, 109276, Note_off_c, 0, 65, 64
7, 109280, Note_off_c, 0, 70, 64
7, 109280, Note_off_c, 0, 72, 64
7, 109280, Note_on_c, 0, 63, 64
7, 109280, Note_on_c, 0, 72, 64
7, 109280, Note_on_c, 0, 70, 64
7, 109460, Note_off_c, 0, 72, 64
7, 109460, Note_off_c, 0, 63, 64
7, 109460, Note_on_c, 0, 74, 64
7, 109460, Note_on_c, 0, 65, 64
7, 109492, Note_off_c, 0, 53, 64
7, 109492, Note_on_c, 0, 53, 64
7, 109504, Note_off_c, 0, 58, 64
7, 109504, Note_on_c, 0, 58, 64
7, 109520, Note_off_c, 0, 65, 64
7, 109520, Note_on_c, 0, 65, 64
7, 109532, Note_off_c, 0, 70, 64
7, 109536, Note_on_c, 0, 70, 64
7, 109552, Note_off_c, 0, 74, 64
7, 109552, Note_on_c, 0, 74, 64
7, 109764, Note_off_c, 0, 74, 64
7, 109764, Note_on_c, 0, 74, 64
7, 109964, Note_off_c, 0, 58, 64
7, 109964, Note_on_c, 0, 58, 64
7, 109972, Note_off_c, 0, 65, 64
7, 109972, Note_on_c, 0, 65, 64
7, 109984, Note_off_c, 0, 70, 64
7, 109984, Note_on_c, 0, 70, 64
7, 110004, Note_off_c, 0, 74, 64
7, 110004, Note_on_c, 0, 74, 64
7, 110200, Note_off_c, 0, 74, 64
7, 110200, Note_on_c, 0, 72, 64
7, 110216, Note_off_c, 0, 65, 64
7, 110216, Note_on_c, 0, 63, 64
7, 110240, Note_off_c, 0, 72, 64
7, 110240, Note_on_c, 0, 72, 64
7, 110256, Note_off_c, 0, 70, 64
7, 110256, Note_on_c, 0, 70, 64
7, 110260, Note_off_c, 0, 63, 64
7, 110260, Note_on_c, 0, 63, 64
7, 110460, Note_off_c, 0, 53, 64
7, 110460, Note_off_c, 0, 72, 64
7, 110460, Note_off_c, 0, 63, 64
7, 110460, Note_on_c, 0, 74, 64
7, 110460, Note_on_c, 0, 65, 64
7, 110460, Note_on_c, 0, 53, 64
7, 110476, Note_off_c, 0, 58, 64
7, 110476, Note_on_c, 0, 58, 64
7, 110484, Note_off_c, 0, 65, 64
7, 110492, Note_on_c, 0, 65, 64
7, 110496, Note_off_c, 0, 70, 64
7, 110496, Note_on_c, 0, 70, 64
7, 110512, Note_off_c, 0, 74, 64
7, 110512, Note_on_c, 0, 74, 64
7, 110736, Note_off_c, 0, 74, 64
7, 110748, Note_off_c, 0, 70, 64
7, 110748, Note_on_c, 0, 74, 64
7, 110748, Note_on_c, 0, 70, 64
7, 110756, Note_off_c, 0, 65, 64
7, 110756, Note_on_c, 0, 65, 64
7, 110932, Note_off_c, 0, 58, 64
7, 110932, Note_on_c, 0, 58, 64
7, 110944, Note_off_c, 0, 65, 64
7, 110944, Note_on_c, 0, 65, 64
7, 110952, Note_off_c, 0, 70, 64
7, 110952, Note_on_c, 0, 70, 64
7, 110968, Note_off_c, 0, 74, 64
7, 110968, Note_on_c, 0, 74, 64
7, 111068, Note_off_c, 0, 70, 64
7, 111068, Note_on_c, 0, 70, 64
7, 111132, Note_off_c, 0, 70, 64
7, 111132, Note_on_c, 0, 69, 64
7, 111164, Note_off_c, 0, 74, 64
7, 111168, Note_off_c, 0, 69, 64
7, 111168, Note_on_c, 0, 72, 64
7, 111168, Note_on_c, 0, 67, 64
7, 111200, Note_off_c, 0, 72, 64
7, 111200, Note_on_c, 0, 72, 64
7, 111216, Note_off_c, 0, 65, 64
7, 111224, Note_off_c, 0, 67, 64
7, 111224, Note_on_c, 0, 63, 64
7, 111224, Note_on_c, 0, 67, 64
7, 111360, Note_off_c, 0, 63, 64
7, 111360, Note_on_c, 0, 65, 64
7, 111396, Note_off_c, 0, 67, 64
7, 111396, Note_on_c, 0, 69, 64
7, 111400, Note_off_c, 0, 58, 64
7, 111400, Note_on_c, 0, 60, 64
7, 111428, Note_off_c, 0, 53, 64
7, 111428, Note_on_c, 0, 53, 64
7, 111444, Note_off_c, 0, 60, 64
7, 111444, Note_on_c, 0, 60, 64
7, 111464, Note_off_c, 0, 65, 64
7, 111464, Note_on_c, 0, 65, 64
7, 111480, Note_off_c, 0, 69, 64
7, 111480, Note_on_c, 0, 69, 64
7, 111488, Note_off_c, 0, 72, 64
7, 111488, Note_on_c, 0, 72, 64
7, 111688, Note_off_c, 0, 72, 64
7, 111688, Note_on_c, 0, 72, 64
7, 111704, Note_off_c, 0, 69, 64
7, 111704, Note_on_c, 0, 69, 64
7, 111708, Note_off_c, 0, 65, 64
7, 111708, Note_on_c, 0, 65, 64
7, 111900, Note_off_c, 0, 53, 64
7, 111904, Note_on_c, 0, 53, 64
7, 111908, Note_off_c, 0, 60, 64
7, 111908, Note_on_c, 0, 60, 64
7, 111920, Note_off_c, 0, 65, 64
7, 111920, Note_on_c, 0, 65, 64
7, 111932, Note_off_c, 0, 69, 64
7, 111932, Note_on_c, 0, 69, 64
7, 111956, Note_off_c, 0, 72, 64
7, 111956, Note_on_c, 0, 72, 64
7, 112148, Note_off_c, 0, 69, 64
7, 112148, Note_off_c, 0, 72, 64
7, 112148, Note_on_c, 0, 67, 64
7, 112148, Note_on_c, 0, 72, 64
7, 112160, Note_off_c, 0, 67, 64
7, 112160, Note_on_c, 0, 67, 64
7, 112180, Note_off_c, 0, 65, 64
7, 112180, Note_on_c, 0, 65, 64
7, 112200, Note_off_c, 0, 65, 64
7, 112200, Note_on_c, 0, 63, 64
7, 112212, Note_off_c, 0, 60, 64
7, 112212, Note_on_c, 0, 58, 64
7, 112340, Note_off_c, 0, 63, 64
7, 112344, Note_off_c, 0, 58, 64
7, 112344, Note_on_c, 0, 65, 64
7, 112344, Note_on_c, 0, 60, 64
7, 112364, Note_off_c, 0, 67, 64
7, 112364, Note_on_c, 0, 69, 64
7, 112388, Note_off_c, 0, 53, 64
7, 112396, Note_on_c, 0, 53, 64
7, 112404, Note_off_c, 0, 60, 64
7, 112404, Note_on_c, 0, 60, 64
7, 112416, Note_off_c, 0, 65, 64
7, 112416, Note_on_c, 0, 65, 64
7, 112428, Note_off_c, 0, 69, 64
7, 112428, Note_on_c, 0, 69, 64
7, 112644, Note_off_c, 0, 72, 64
7, 112644, Note_on_c, 0, 72, 64
7, 112652, Note_off_c, 0, 69, 64
7, 112652, Note_on_c, 0, 69, 64
7, 112668, Note_off_c, 0, 65, 64
7, 112668, Note_on_c, 0, 65, 64
7, 112852, Note_off_c, 0, 60, 64
7, 112852, Note_on_c, 0, 60, 64
7, 112868, Note_off_c, 0, 65, 64
7, 112868, Note_on_c, 0, 65, 64
7, 112876, Note_off_c, 0, 69, 64
7, 112876, Note_on_c, 0, 69, 64
7, 112884, Note_off_c, 0, 72, 64
7, 112884, Note_on_c, 0, 72, 64
7, 113052, Note_off_c, 0, 69, 64
7, 113052, Note_on_c, 0, 67, 64
7, 113080, Note_off_c, 0, 65, 64
7, 113080, Note_on_c, 0, 63, 64
7, 113100, Note_off_c, 0, 60, 64
7, 113108, Note_on_c, 0, 58, 64
7, 113112, Note_off_c, 0, 72, 64
7, 113112, Note_on_c, 0, 72, 64
7, 113120, Note_off_c, 0, 67, 64
7, 113120, Note_on_c, 0, 67, 64
7, 113164, Note_off_c, 0, 72, 64
7, 113172, Note_on_c, 0, 75, 64
7, 113300, Note_off_c, 0, 53, 64
7, 113300, Note_on_c, 0, 55, 64
7, 113332, Note_off_c, 0, 55, 64
7, 113332, Note_on_c, 0, 55, 64
7, 113344, Note_off_c, 0, 58, 64
7, 113344, Note_on_c, 0, 58, 64
7, 113364, Note_off_c, 0, 63, 64
7, 113364, Note_on_c, 0, 63, 64
7, 113372, Note_off_c, 0, 67, 64
7, 113372, Note_on_c, 0, 67, 64
7, 113388, Note_off_c, 0, 75, 64
7, 113388, Note_on_c, 0, 75, 64
7, 113584, Note_off_c, 0, 75, 64
7, 113584, Note_on_c, 0, 75, 64
7, 113600, Note_off_c, 0, 67, 64
7, 113600, Note_on_c, 0, 67, 64
7, 113820, Note_off_c, 0, 55, 64
7, 113824, Note_on_c, 0, 55, 64
7, 113832, Note_off_c, 0, 58, 64
7, 113832, Note_on_c, 0, 58, 64
7, 113844, Note_off_c, 0, 63, 64
7, 113844, Note_on_c, 0, 63, 64
7, 113856, Note_off_c, 0, 67, 64
7, 113856, Note_on_c, 0, 67, 64
7, 113864, Note_off_c, 0, 75, 64
7, 113864, Note_on_c, 0, 75, 64
7, 114080, Note_off_c, 0, 75, 64
7, 114080, Note_on_c, 0, 75, 64
7, 114096, Note_off_c, 0, 67, 64
7, 114096, Note_on_c, 0, 67, 64
7, 114108, Note_off_c, 0, 55, 64
7, 114108, Note_off_c, 0, 63, 64
7, 114108, Note_on_c, 0, 53, 64
7, 114108, Note_on_c, 0, 63, 64
7, 114120, Note_off_c, 0, 58, 64
7, 114120, Note_on_c, 0, 58, 64
7, 114256, Note_off_c, 0, 53, 64
7, 114256, Note_on_c, 0, 55, 64
7, 114304, Note_off_c, 0, 55, 64
7, 114304, Note_on_c, 0, 55, 64
7, 114312, Note_off_c, 0, 58, 64
7, 114312, Note_on_c, 0, 58, 64
7, 114316, Note_off_c, 0, 63, 64
7, 114316, Note_on_c, 0, 63, 64
7, 114332, Note_off_c, 0, 67, 64
7, 114332, Note_on_c, 0, 67, 64
7, 114344, Note_off_c, 0, 75, 64
7, 114348, Note_on_c, 0, 75, 64
7, 114580, Note_off_c, 0, 75, 64
7, 114580, Note_on_c, 0, 75, 64
7, 114592, Note_off_c, 0, 67, 64
7, 114600, Note_on_c, 0, 67, 64
7, 114784, Note_off_c, 0, 58, 64
7, 114784, Note_on_c, 0, 58, 64
7, 114800, Note_off_c, 0, 63, 64
7, 114800, Note_on_c, 0, 63, 64
7, 114808, Note_off_c, 0, 67, 64
7, 114808, Note_on_c, 0, 67, 64
7, 114820, Note_off_c, 0, 75, 64
7, 114824, Note_on_c, 0, 75, 64
7, 114932, Note_off_c, 0, 55, 64
7, 114936, Note_on_c, 0, 53, 64
7, 115056, Note_off_c, 0, 75, 64
7, 115056, Note_on_c, 0, 75, 64
7, 115060, Note_off_c, 0, 67, 64
7, 115060, Note_off_c, 0, 75, 64
7, 115060, Note_on_c, 0, 72, 64
7, 115060, Note_on_c, 0, 67, 64
7, 115236, Note_off_c, 0, 63, 64
7, 115236, Note_on_c, 0, 65, 64
7, 115268, Note_off_c, 0, 67, 64
7, 115268, Note_on_c, 0, 70, 64
7, 115276, Note_off_c, 0, 58, 64
7, 115276, Note_on_c, 0, 58, 64
7, 115284, Note_off_c, 0, 65, 64
7, 115288, Note_off_c, 0, 72, 64
7, 115288, Note_off_c, 0, 70, 64
7, 115288, Note_on_c, 0, 65, 64
7, 115288, Note_on_c, 0, 74, 64
7, 115288, Note_on_c, 0, 70, 64
7, 115300, Note_off_c, 0, 74, 64
7, 115300, Note_on_c, 0, 74, 64
7, 115520, Note_off_c, 0, 74, 64
7, 115528, Note_on_c, 0, 74, 64
7, 115544, Note_off_c, 0, 70, 64
7, 115544, Note_on_c, 0, 70, 64
7, 115732, Note_off_c, 0, 58, 64
7, 115732, Note_on_c, 0, 58, 64
7, 115752, Note_off_c, 0, 65, 64
7, 115752, Note_on_c, 0, 65, 64
7, 115760, Note_off_c, 0, 70, 64
7, 115760, Note_on_c, 0, 70, 64
7, 115780, Note_off_c, 0, 74, 64
7, 115780, Note_on_c, 0, 74, 64
7, 116008, Note_off_c, 0, 70, 64
7, 116008, Note_off_c, 0, 74, 64
7, 116008, Note_on_c, 0, 74, 64
7, 116008, Note_on_c, 0, 70, 64
7, 116056, Note_off_c, 0, 74, 64
7, 116056, Note_on_c, 0, 72, 64
7, 116080, Note_off_c, 0, 65, 64
7, 116080, Note_on_c, 0, 63, 64
7, 116240, Note_off_c, 0, 58, 64
7, 116240, Note_off_c, 0, 63, 64
7, 116240, Note_on_c, 0, 65, 64
7, 116240, Note_on_c, 0, 58, 64
7, 116252, Note_off_c, 0, 72, 64
7, 116252, Note_on_c, 0, 74, 64
7, 116260, Note_off_c, 0, 65, 64
7, 116260, Note_on_c, 0, 65, 64
7, 116272, Note_off_c, 0, 70, 64
7, 116276, Note_on_c, 0, 70, 64
7, 116280, Note_off_c, 0, 74, 64
7, 116280, Note_on_c, 0, 74, 64
7, 116428, Note_off_c, 0, 53, 64
7, 116500, Note_off_c, 0, 74, 64
7, 116500, Note_on_c, 0, 74, 64
7, 116704, Note_off_c, 0, 58, 64
7, 116708, Note_off_c, 0, 65, 64
7, 116708, Note_on_c, 0, 58, 64
7, 116708, Note_on_c, 0, 65, 64
7, 116728, Note_off_c, 0, 70, 64
7, 116728, Note_on_c, 0, 70, 64
7, 116960, Note_off_c, 0, 74, 64
7, 116960, Note_on_c, 0, 72, 64
7, 116960, Note_on_c, 0, 72, 64
7, 116961, Note_off_c, 0, 72, 64
7, 116988, Note_off_c, 0, 70, 64
7, 116988, Note_on_c, 0, 70, 64
7, 116996, Note_off_c, 0, 65, 64
7, 116996, Note_on_c, 0, 63, 64
7, 116997, Note_off_c, 0, 63, 64
7, 117004, Note_off_c, 0, 58, 64
7, 117004, Note_on_c, 0, 63, 64
7, 117008, Note_on_c, 0, 58, 64
7, 117148, Note_off_c, 0, 72, 64
7, 117148, Note_on_c, 0, 74, 64
7, 117160, Note_off_c, 0, 63, 64
7, 117160, Note_on_c, 0, 65, 64
7, 117184, Note_on_c, 0, 53, 64
7, 117196, Note_off_c, 0, 58, 64
7, 117196, Note_on_c, 0, 58, 64
7, 117212, Note_off_c, 0, 65, 64
7, 117212, Note_on_c, 0, 65, 64
7, 117220, Note_off_c, 0, 70, 64
7, 117224, Note_on_c, 0, 70, 64
7, 117240, Note_off_c, 0, 74, 64
7, 117240, Note_on_c, 0, 74, 64
7, 117456, Note_off_c, 0, 74, 64
7, 117456, Note_on_c, 0, 74, 64
7, 117484, Note_off_c, 0, 70, 64
7, 117488, Note_on_c, 0, 70, 64
7, 117672, Note_off_c, 0, 65, 64
7, 117680, Note_on_c, 0, 65, 64
7, 117688, Note_off_c, 0, 70, 64
7, 117688, Note_on_c, 0, 70, 64
7, 117700, Note_off_c, 0, 74, 64
7, 117700, Note_on_c, 0, 74, 64
7, 117792, Note_off_c, 0, 70, 64
7, 117800, Note_on_c, 0, 70, 64
7, 117916, Note_off_c, 0, 74, 64
7, 117916, Note_on_c, 0, 74, 64
7, 117932, Note_off_c, 0, 70, 64
7, 117932, Note_on_c, 0, 70, 64
7, 117956, Note_off_c, 0, 74, 64
7, 117956, Note_on_c, 0, 72, 64
7, 117972, Note_off_c, 0, 65, 64
7, 117972, Note_on_c, 0, 63, 64
7, 118136, Note_off_c, 0, 53, 64
7, 118136, Note_off_c, 0, 72, 64
7, 118136, Note_off_c, 0, 63, 64
7, 118136, Note_on_c, 0, 74, 64
7, 118136, Note_on_c, 0, 65, 64
7, 118136, Note_on_c, 0, 53, 64
7, 118160, Note_off_c, 0, 58, 64
7, 118160, Note_on_c, 0, 58, 64
7, 118172, Note_off_c, 0, 65, 64
7, 118176, Note_on_c, 0, 65, 64
7, 118184, Note_off_c, 0, 70, 64
7, 118184, Note_on_c, 0, 70, 64
7, 118196, Note_off_c, 0, 74, 64
7, 118196, Note_on_c, 0, 74, 64
7, 118412, Note_off_c, 0, 74, 64
7, 118412, Note_on_c, 0, 74, 64
7, 118432, Note_off_c, 0, 70, 64
7, 118432, Note_on_c, 0, 70, 64
7, 118624, Note_off_c, 0, 58, 64
7, 118624, Note_on_c, 0, 58, 64
7, 118640, Note_off_c, 0, 65, 64
7, 118640, Note_on_c, 0, 65, 64
7, 118656, Note_off_c, 0, 70, 64
7, 118656, Note_on_c, 0, 70, 64
7, 118664, Note_off_c, 0, 74, 64
7, 118664, Note_on_c, 0, 74, 64
7, 118880, Note_off_c, 0, 74, 64
7, 118880, Note_on_c, 0, 74, 64
7, 118908, Note_off_c, 0, 74, 64
7, 118908, Note_on_c, 0, 72, 64
7, 118912, Note_off_c, 0, 65, 64
7, 118912, Note_on_c, 0, 63, 64
7, 118920, Note_off_c, 0, 70, 64
7, 118920, Note_on_c, 0, 70, 64
7, 119068, Note_off_c, 0, 72, 64
7, 119068, Note_on_c, 0, 74, 64
7, 119084, Note_off_c, 0, 63, 64
7, 119088, Note_on_c, 0, 65, 64
7, 119116, Note_off_c, 0, 53, 64
7, 119116, Note_on_c, 0, 53, 64
7, 119124, Note_off_c, 0, 58, 64
7, 119124, Note_on_c, 0, 58, 64
7, 119140, Note_off_c, 0, 65, 64
7, 119140, Note_on_c, 0, 65, 64
7, 119152, Note_off_c, 0, 70, 64
7, 119152, Note_on_c, 0, 70, 64
7, 119160, Note_off_c, 0, 74, 64
7, 119160, Note_on_c, 0, 74, 64
7, 119380, Note_off_c, 0, 74, 64
7, 119388, Note_on_c, 0, 74, 64
7, 119392, Note_off_c, 0, 70, 64
7, 119392, Note_on_c, 0, 70, 64
7, 119588, Note_off_c, 0, 58, 64
7, 119588, Note_on_c, 0, 58, 64
7, 119596, Note_off_c, 0, 65, 64
7, 119600, Note_on_c, 0, 65, 64
7, 119608, Note_off_c, 0, 70, 64
7, 119608, Note_on_c, 0, 70, 64
7, 119656, Note_off_c, 0, 74, 64
7, 119656, Note_on_c, 0, 74, 64
7, 119804, Note_off_c, 0, 74, 64
7, 119804, Note_on_c, 0, 72, 64
7, 119820, Note_off_c, 0, 65, 64
7, 119820, Note_on_c, 0, 63, 64
7, 119840, Note_off_c, 0, 72, 64
7, 119840, Note_on_c, 0, 72, 64
7, 119852, Note_off_c, 0, 70, 64
7, 119852, Note_on_c, 0, 70, 64
7, 120028, Note_off_c, 0, 63, 64
7, 120028, Note_on_c, 0, 65, 64
7, 120032, Note_off_c, 0, 72, 64
7, 120040, Note_on_c, 0, 74, 64
7, 120068, Note_off_c, 0, 58, 64
7, 120068, Note_on_c, 0, 58, 64
7, 120076, Note_off_c, 0, 70, 64
7, 120076, Note_on_c, 0, 70, 64
7, 120084, Note_off_c, 0, 65, 64
7, 120084, Note_on_c, 0, 65, 64
7, 120112, Note_off_c, 0, 74, 64
7, 120112, Note_on_c, 0, 74, 64
7, 120208, Note_off_c, 0, 70, 64
7, 120208, Note_on_c, 0, 70, 64
7, 120332, Note_off_c, 0, 74, 64
7, 120332, Note_on_c, 0, 74, 64
7, 120548, Note_off_c, 0, 70, 64
7, 120548, Note_on_c, 0, 70, 64
7, 120580, Note_off_c, 0, 74, 64
7, 120584, Note_on_c, 0, 74, 64
7, 120616, Note_off_c, 0, 53, 64
7, 120788, Note_off_c, 0, 74, 64
7, 120788, Note_on_c, 0, 74, 64
7, 120800, Note_off_c, 0, 70, 64
7, 120800, Note_off_c, 0, 74, 64
7, 120800, Note_on_c, 0, 72, 64
7, 120800, Note_on_c, 0, 70, 64
7, 120824, Note_off_c, 0, 65, 64
7, 120824, Note_on_c, 0, 63, 64
7, 120992, Note_off_c, 0, 63, 64
7, 120992, Note_on_c, 0, 64, 64
7, 121016, Note_on_c, 0, 53, 64
7, 121024, Note_off_c, 0, 58, 64
7, 121024, Note_off_c, 0, 64, 64
7, 121024, Note_on_c, 0, 65, 64
7, 121024, Note_on_c, 0, 58, 64
7, 121044, Note_off_c, 0, 72, 64
7, 121044, Note_off_c, 0, 65, 64
7, 121044, Note_on_c, 0, 74, 64
7, 121044, Note_on_c, 0, 65, 64
7, 121056, Note_off_c, 0, 70, 64
7, 121056, Note_on_c, 0, 70, 64
7, 121068, Note_off_c, 0, 74, 64
7, 121068, Note_on_c, 0, 74, 64
7, 121300, Note_off_c, 0, 74, 64
7, 121300, Note_on_c, 0, 74, 64
7, 121308, Note_off_c, 0, 70, 64
7, 121312, Note_on_c, 0, 70, 64
7, 121484, Note_off_c, 0, 58, 64
7, 121484, Note_on_c, 0, 58, 64
7, 121500, Note_off_c, 0, 65, 64
7, 121500, Note_on_c, 0, 65, 64
7, 121512, Note_off_c, 0, 70, 64
7, 121520, Note_on_c, 0, 70, 64
7, 121536, Note_off_c, 0, 74, 64
7, 121536, Note_on_c, 0, 74, 64
7, 121728, Note_off_c, 0, 74, 64
7, 121728, Note_on_c, 0, 72, 64
7, 121732, Note_off_c, 0, 72, 64
7, 121740, Note_on_c, 0, 72, 64
7, 121744, Note_off_c, 0, 70, 64
7, 121744, Note_on_c, 0, 70, 64
7, 121760, Note_off_c, 0, 65, 64
7, 121760, Note_on_c, 0, 65, 64
7, 121776, Note_off_c, 0, 65, 64
7, 121776, Note_on_c, 0, 63, 64
7, 121780, Note_off_c, 0, 58, 64
7, 121780, Note_on_c, 0, 58, 64
7, 121920, Note_off_c, 0, 72, 64
7, 121920, Note_off_c, 0, 63, 64
7, 121920, Note_on_c, 0, 74, 64
7, 121920, Note_on_c, 0, 65, 64
7, 121956, Note_off_c, 0, 53, 64
7, 121956, Note_on_c, 0, 53, 64
7, 121988, Note_off_c, 0, 58, 64
7, 121988, Note_off_c, 0, 65, 64
7, 121988, Note_on_c, 0, 65, 64
7, 121996, Note_off_c, 0, 70, 64
7, 121996, Note_on_c, 0, 58, 64
7, 122004, Note_on_c, 0, 70, 64
7, 122016, Note_off_c, 0, 74, 64
7, 122024, Note_on_c, 0, 74, 64
7, 122232, Note_off_c, 0, 74, 64
7, 122240, Note_on_c, 0, 74, 64
7, 122252, Note_off_c, 0, 70, 64
7, 122260, Note_on_c, 0, 70, 64
7, 122428, Note_off_c, 0, 53, 64
7, 122428, Note_on_c, 0, 53, 64
7, 122440, Note_off_c, 0, 58, 64
7, 122440, Note_on_c, 0, 58, 64
7, 122456, Note_off_c, 0, 65, 64
7, 122456, Note_on_c, 0, 65, 64
7, 122464, Note_off_c, 0, 70, 64
7, 122472, Note_on_c, 0, 70, 64
7, 122484, Note_off_c, 0, 74, 64
7, 122484, Note_on_c, 0, 74, 64
7, 122696, Note_off_c, 0, 74, 64
7, 122696, Note_on_c, 0, 72, 64
7, 122696, Note_on_c, 0, 72, 64
7, 122697, Note_off_c, 0, 72, 64
7, 122712, Note_off_c, 0, 70, 64
7, 122712, Note_on_c, 0, 70, 64
7, 122720, Note_off_c, 0, 65, 64
7, 122720, Note_on_c, 0, 63, 64
7, 122876, Note_off_c, 0, 63, 64
7, 122876, Note_on_c, 0, 64, 64
7, 122900, Note_off_c, 0, 72, 64
7, 122900, Note_off_c, 0, 64, 64
7, 122900, Note_on_c, 0, 65, 64
7, 122900, Note_on_c, 0, 74, 64
7, 122936, Note_off_c, 0, 53, 64
7, 122944, Note_on_c, 0, 53, 64
7, 122948, Note_off_c, 0, 58, 64
7, 122948, Note_on_c, 0, 58, 64
7, 122968, Note_off_c, 0, 65, 64
7, 122968, Note_on_c, 0, 65, 64
7, 122976, Note_off_c, 0, 70, 64
7, 122984, Note_on_c, 0, 70, 64
7, 122992, Note_off_c, 0, 74, 64
7, 122992, Note_on_c, 0, 74, 64
7, 123216, Note_off_c, 0, 74, 64
7, 123216, Note_on_c, 0, 74, 64
7, 123396, Note_off_c, 0, 58, 64
7, 123404, Note_on_c, 0, 58, 64
7, 123416, Note_off_c, 0, 65, 64
7, 123416, Note_on_c, 0, 65, 64
7, 123424, Note_off_c, 0, 70, 64
7, 123432, Note_on_c, 0, 70, 64
7, 123460, Note_off_c, 0, 74, 64
7, 123464, Note_on_c, 0, 74, 64
7, 123660, Note_off_c, 0, 74, 64
7, 123660, Note_on_c, 0, 74, 64
7, 123668, Note_off_c, 0, 74, 64
7, 123676, Note_off_c, 0, 70, 64
7, 123676, Note_on_c, 0, 72, 64
7, 123676, Note_on_c, 0, 70, 64
7, 123696, Note_off_c, 0, 65, 64
7, 123696, Note_on_c, 0, 63, 64
7, 123840, Note_off_c, 0, 72, 64
7, 123840, Note_off_c, 0, 63, 64
7, 123840, Note_on_c, 0, 64, 64
7, 123840, Note_on_c, 0, 74, 64
7, 123868, Note_off_c, 0, 64, 64
7, 123868, Note_on_c, 0, 65, 64
7, 123892, Note_off_c, 0, 58, 64
7, 123892, Note_on_c, 0, 58, 64
7, 123908, Note_off_c, 0, 65, 64
7, 123908, Note_on_c, 0, 65, 64
7, 123916, Note_off_c, 0, 70, 64
7, 123916, Note_on_c, 0, 70, 64
7, 123932, Note_off_c, 0, 74, 64
7, 123936, Note_on_c, 0, 74, 64
7, 124160, Note_off_c, 0, 74, 64
7, 124160, Note_on_c, 0, 74, 64
7, 124192, Note_off_c, 0, 70, 64
7, 124192, Note_on_c, 0, 70, 64
7, 124340, Note_off_c, 0, 53, 64
7, 124352, Note_on_c, 0, 53, 64
7, 124356, Note_off_c, 0, 58, 64
7, 124356, Note_on_c, 0, 58, 64
7, 124372, Note_off_c, 0, 65, 64
7, 124372, Note_on_c, 0, 65, 64
7, 124384, Note_off_c, 0, 70, 64
7, 124384, Note_on_c, 0, 70, 64
7, 124400, Note_off_c, 0, 74, 64
7, 124400, Note_on_c, 0, 74, 64
7, 124624, Note_off_c, 0, 74, 64
7, 124624, Note_on_c, 0, 74, 64
7, 124640, Note_off_c, 0, 70, 64
7, 124640, Note_on_c, 0, 70, 64
7, 124656, Note_off_c, 0, 74, 64
7, 124656, Note_on_c, 0, 72, 64
7, 124672, Note_off_c, 0, 65, 64
7, 124672, Note_on_c, 0, 63, 64
7, 124848, Note_off_c, 0, 58, 64
7, 124848, Note_on_c, 0, 58, 64
7, 124872, Note_off_c, 0, 70, 64
7, 124872, Note_on_c, 0, 70, 64
7, 124884, Note_off_c, 0, 72, 64
7, 124884, Note_off_c, 0, 63, 64
7, 124884, Note_on_c, 0, 74, 64
7, 124884, Note_on_c, 0, 65, 64
7, 124892, Note_off_c, 0, 65, 64
7, 124892, Note_on_c, 0, 65, 64
7, 124896, Note_off_c, 0, 74, 64
7, 124900, Note_on_c, 0, 74, 64
7, 125120, Note_off_c, 0, 74, 64
7, 125120, Note_on_c, 0, 74, 64
7, 125140, Note_off_c, 0, 70, 64
7, 125140, Note_on_c, 0, 70, 64
7, 125324, Note_off_c, 0, 58, 64
7, 125324, Note_on_c, 0, 58, 64
7, 125336, Note_off_c, 0, 65, 64
7, 125340, Note_on_c, 0, 65, 64
7, 125352, Note_off_c, 0, 70, 64
7, 125352, Note_on_c, 0, 70, 64
7, 125404, Note_off_c, 0, 74, 64
7, 125408, Note_on_c, 0, 74, 64
7, 125576, Note_off_c, 0, 74, 64
7, 125576, Note_on_c, 0, 74, 64
7, 125588, Note_off_c, 0, 74, 64
7, 125588, Note_on_c, 0, 72, 64
7, 125596, Note_off_c, 0, 70, 64
7, 125608, Note_on_c, 0, 70, 64
7, 125616, Note_off_c, 0, 65, 64
7, 125616, Note_on_c, 0, 63, 64
7, 125760, Note_off_c, 0, 63, 64
7, 125760, Note_on_c, 0, 64, 64
7, 125788, Note_off_c, 0, 64, 64
7, 125792, Note_off_c, 0, 72, 64
7, 125792, Note_on_c, 0, 65, 64
7, 125796, Note_on_c, 0, 74, 64
7, 125808, Note_off_c, 0, 58, 64
7, 125808, Note_on_c, 0, 58, 64
7, 125828, Note_off_c, 0, 65, 64
7, 125828, Note_on_c, 0, 65, 64
7, 125840, Note_off_c, 0, 53, 64
7, 125840, Note_off_c, 0, 70, 64
7, 125840, Note_on_c, 0, 70, 64
7, 125852, Note_off_c, 0, 74, 64
7, 125852, Note_on_c, 0, 74, 64
7, 126080, Note_off_c, 0, 74, 64
7, 126080, Note_on_c, 0, 74, 64
7, 126116, Note_off_c, 0, 70, 64
7, 126116, Note_on_c, 0, 70, 64
7, 126272, Note_on_c, 0, 53, 64
7, 126284, Note_off_c, 0, 58, 64
7, 126288, Note_on_c, 0, 58, 64
7, 126300, Note_off_c, 0, 65, 64
7, 126300, Note_on_c, 0, 65, 64
7, 126312, Note_off_c, 0, 70, 64
7, 126312, Note_on_c, 0, 70, 64
7, 126344, Note_off_c, 0, 74, 64
7, 126348, Note_on_c, 0, 74, 64
7, 126440, Note_off_c, 0, 70, 64
7, 126440, Note_on_c, 0, 67, 64
7, 126496, Note_off_c, 0, 74, 64
7, 126496, Note_on_c, 0, 72, 64
7, 126532, Note_off_c, 0, 72, 64
7, 126532, Note_on_c, 0, 72, 64
7, 126544, Note_off_c, 0, 67, 64
7, 126544, Note_on_c, 0, 67, 64
7, 126576, Note_off_c, 0, 72, 64
7, 126580, Note_off_c, 0, 65, 64
7, 126580, Note_on_c, 0, 75, 64
7, 126580, Note_on_c, 0, 63, 64
7, 126784, Note_on_c, 0, 51, 64
7, 126796, Note_off_c, 0, 53, 64
7, 126796, Note_on_c, 0, 53, 64
7, 126808, Note_off_c, 0, 53, 64
7, 126808, Note_on_c, 0, 55, 64
7, 126816, Note_off_c, 0, 58, 64
7, 126816, Note_on_c, 0, 58, 64
7, 126840, Note_off_c, 0, 63, 64
7, 126840, Note_on_c, 0, 63, 64
7, 126848, Note_off_c, 0, 67, 64
7, 126848, Note_on_c, 0, 67, 64
7, 126860, Note_off_c, 0, 75, 64
7, 126868, Note_on_c, 0, 75, 64
7, 127036, Note_off_c, 0, 75, 64
7, 127036, Note_on_c, 0, 75, 64
7, 127048, Note_off_c, 0, 67, 64
7, 127048, Note_on_c, 0, 67, 64
7, 127060, Note_off_c, 0, 63, 64
7, 127060, Note_on_c, 0, 63, 64
7, 127072, Note_off_c, 0, 58, 64
7, 127080, Note_on_c, 0, 58, 64
7, 127240, Note_off_c, 0, 55, 64
7, 127240, Note_on_c, 0, 55, 64
7, 127248, Note_off_c, 0, 58, 64
7, 127248, Note_on_c, 0, 58, 64
7, 127264, Note_off_c, 0, 63, 64
7, 127264, Note_on_c, 0, 63, 64
7, 127276, Note_off_c, 0, 67, 64
7, 127276, Note_on_c, 0, 67, 64
7, 127308, Note_off_c, 0, 75, 64
7, 127312, Note_on_c, 0, 75, 64
7, 127440, Note_off_c, 0, 55, 64
7, 127440, Note_on_c, 0, 53, 64
7, 127460, Note_off_c, 0, 75, 64
7, 127460, Note_on_c, 0, 72, 64
7, 127484, Note_off_c, 0, 51, 64
7, 127484, Note_on_c, 0, 48, 64
7, 127500, Note_off_c, 0, 72, 64
7, 127500, Note_on_c, 0, 72, 64
7, 127512, Note_off_c, 0, 67, 64
7, 127512, Note_on_c, 0, 67, 64
7, 127520, Note_off_c, 0, 63, 64
7, 127520, Note_on_c, 0, 63, 64
7, 127568, Note_off_c, 0, 72, 64
7, 127568, Note_on_c, 0, 75, 64
7, 127660, Note_off_c, 0, 48, 64
7, 127660, Note_on_c, 0, 51, 64
7, 127680, Note_off_c, 0, 53, 64
7, 127680, Note_on_c, 0, 55, 64
7, 127720, Note_off_c, 0, 51, 64
7, 127720, Note_on_c, 0, 51, 64
7, 127728, Note_off_c, 0, 55, 64
7, 127728, Note_on_c, 0, 55, 64
7, 127748, Note_off_c, 0, 58, 64
7, 127748, Note_on_c, 0, 58, 64
7, 127756, Note_off_c, 0, 63, 64
7, 127756, Note_on_c, 0, 63, 64
7, 127768, Note_off_c, 0, 67, 64
7, 127768, Note_on_c, 0, 67, 64
7, 127784, Note_off_c, 0, 75, 64
7, 127784, Note_on_c, 0, 75, 64
7, 127968, Note_off_c, 0, 75, 64
7, 127968, Note_on_c, 0, 75, 64
7, 127980, Note_off_c, 0, 67, 64
7, 127980, Note_on_c, 0, 67, 64
7, 128160, Note_off_c, 0, 55, 64
7, 128160, Note_off_c, 0, 58, 64
7, 128160, Note_on_c, 0, 58, 64
7, 128160, Note_on_c, 0, 55, 64
7, 128196, Note_off_c, 0, 63, 64
7, 128200, Note_on_c, 0, 63, 64
7, 128204, Note_off_c, 0, 67, 64
7, 128204, Note_on_c, 0, 67, 64
7, 128428, Note_off_c, 0, 75, 64
7, 128428, Note_on_c, 0, 75, 64
7, 128444, Note_off_c, 0, 67, 64
7, 128444, Note_on_c, 0, 67, 64
7, 128452, Note_off_c, 0, 63, 64
7, 128460, Note_on_c, 0, 63, 64
7, 128468, Note_off_c, 0, 55, 64
7, 128472, Note_on_c, 0, 53, 64
7, 128476, Note_off_c, 0, 51, 64
7, 128476, Note_on_c, 0, 48, 64
7, 128508, Note_off_c, 0, 75, 64
7, 128512, Note_on_c, 0, 72, 64
7, 128544, Note_off_c, 0, 72, 64
7, 128548, Note_on_c, 0, 75, 64
7, 128640, Note_off_c, 0, 53, 64
7, 128640, Note_off_c, 0, 48, 64
7, 128640, Note_on_c, 0, 51, 64
7, 128640, Note_on_c, 0, 55, 64
7, 128684, Note_off_c, 0, 51, 64
7, 128684, Note_on_c, 0, 51, 64
7, 128688, Note_off_c, 0, 55, 64
7, 128688, Note_on_c, 0, 55, 64
7, 128708, Note_off_c, 0, 58, 64
7, 128708, Note_on_c, 0, 58, 64
7, 128716, Note_off_c, 0, 63, 64
7, 128716, Note_on_c, 0, 63, 64
7, 128736, Note_off_c, 0, 67, 64
7, 128736, Note_on_c, 0, 67, 64
7, 128752, Note_off_c, 0, 75, 64
7, 128752, Note_on_c, 0, 75, 64
7, 128968, Note_off_c, 0, 75, 64
7, 128968, Note_on_c, 0, 75, 64
7, 129180, Note_off_c, 0, 58, 64
7, 129180, Note_on_c, 0, 58, 64
7, 129188, Note_off_c, 0, 63, 64
7, 129188, Note_on_c, 0, 63, 64
7, 129200, Note_off_c, 0, 67, 64
7, 129200, Note_on_c, 0, 67, 64
7, 129212, Note_off_c, 0, 75, 64
7, 129216, Note_on_c, 0, 75, 64
7, 129364, Note_off_c, 0, 55, 64
7, 129364, Note_on_c, 0, 53, 64
7, 129436, Note_off_c, 0, 75, 64
7, 129448, Note_off_c, 0, 51, 64
7, 129448, Note_off_c, 0, 67, 64
7, 129448, Note_on_c, 0, 75, 64
7, 129448, Note_on_c, 0, 48, 64
7, 129448, Note_on_c, 0, 67, 64
7, 129460, Note_off_c, 0, 63, 64
7, 129460, Note_on_c, 0, 63, 64
7, 129472, Note_off_c, 0, 58, 64
7, 129476, Note_on_c, 0, 58, 64
7, 129600, Note_off_c, 0, 53, 64
7, 129600, Note_on_c, 0, 55, 64
7, 129620, Note_off_c, 0, 48, 64
7, 129620, Note_on_c, 0, 51, 64
7, 129664, Note_off_c, 0, 55, 64
7, 129664, Note_on_c, 0, 55, 64
7, 129676, Note_off_c, 0, 58, 64
7, 129676, Note_on_c, 0, 58, 64
7, 129692, Note_off_c, 0, 63, 64
7, 129692, Note_on_c, 0, 63, 64
7, 129700, Note_off_c, 0, 67, 64
7, 129700, Note_on_c, 0, 67, 64
7, 129732, Note_off_c, 0, 75, 64
7, 129732, Note_on_c, 0, 75, 64
7, 129740, Note_off_c, 0, 55, 64
7, 129748, Note_on_c, 0, 56, 64
7, 129828, Note_off_c, 0, 56, 64
7, 129828, Note_on_c, 0, 55, 64
7, 129932, Note_off_c, 0, 75, 64
7, 129940, Note_off_c, 0, 67, 64
7, 129940, Note_on_c, 0, 75, 64
7, 129940, Note_on_c, 0, 67, 64
7, 130132, Note_off_c, 0, 55, 64
7, 130132, Note_on_c, 0, 55, 64
7, 130140, Note_off_c, 0, 58, 64
7, 130140, Note_on_c, 0, 58, 64
7, 130152, Note_off_c, 0, 63, 64
7, 130160, Note_on_c, 0, 63, 64
7, 130168, Note_off_c, 0, 67, 64
7, 130172, Note_on_c, 0, 67, 64
7, 130180, Note_off_c, 0, 75, 64
7, 130180, Note_on_c, 0, 75, 64
7, 130304, Note_off_c, 0, 55, 64
7, 130308, Note_off_c, 0, 51, 64
7, 130308, Note_on_c, 0, 53, 64
7, 130308, Note_on_c, 0, 48, 64
7, 130396, Note_off_c, 0, 75, 64
7, 130408, Note_on_c, 0, 72, 64
7, 130408, Note_on_c, 0, 72, 64
7, 130409, Note_off_c, 0, 72, 64
7, 130424, Note_off_c, 0, 67, 64
7, 130424, Note_on_c, 0, 67, 64
7, 130436, Note_off_c, 0, 63, 64
7, 130440, Note_on_c, 0, 63, 64
7, 130580, Note_off_c, 0, 63, 64
7, 130580, Note_on_c, 0, 65, 64
7, 130600, Note_off_c, 0, 67, 64
7, 130604, Note_on_c, 0, 70, 64
7, 130616, Note_off_c, 0, 72, 64
7, 130624, Note_on_c, 0, 74, 64
7, 130628, Note_off_c, 0, 58, 64
7, 130628, Note_on_c, 0, 58, 64
7, 130640, Note_off_c, 0, 65, 64
7, 130640, Note_on_c, 0, 65, 64
7, 130656, Note_off_c, 0, 70, 64
7, 130660, Note_on_c, 0, 70, 64
7, 130672, Note_off_c, 0, 74, 64
7, 130672, Note_on_c, 0, 74, 64
7, 130880, Note_off_c, 0, 74, 64
7, 130884, Note_on_c, 0, 74, 64
7, 130900, Note_off_c, 0, 70, 64
7, 130900, Note_on_c, 0, 70, 64
7, 130912, Note_off_c, 0, 65, 64
7, 130912, Note_on_c, 0, 65, 64
7, 131088, Note_off_c, 0, 58, 64
7, 131088, Note_on_c, 0, 58, 64
7, 131104, Note_off_c, 0, 65, 64
7, 131104, Note_on_c, 0, 65, 64
7, 131112, Note_off_c, 0, 70, 64
7, 131112, Note_on_c, 0, 70, 64
7, 131136, Note_off_c, 0, 74, 64
7, 131136, Note_on_c, 0, 74, 64
7, 131352, Note_off_c, 0, 74, 64
7, 131352, Note_on_c, 0, 74, 64
7, 131360, Note_off_c, 0, 70, 64
7, 131360, Note_on_c, 0, 70, 64
7, 131392, Note_off_c, 0, 74, 64
7, 131392, Note_on_c, 0, 72, 64
7, 131396, Note_off_c, 0, 65, 64
7, 131396, Note_on_c, 0, 63, 64
7, 131572, Note_off_c, 0, 58, 64
7, 131572, Note_on_c, 0, 58, 64
7, 131592, Note_off_c, 0, 63, 64
7, 131592, Note_on_c, 0, 65, 64
7, 131592, Note_on_c, 0, 65, 64
7, 131593, Note_off_c, 0, 65, 64
7, 131608, Note_off_c, 0, 72, 64
7, 131612, Note_off_c, 0, 70, 64
7, 131612, Note_on_c, 0, 74, 64
7, 131612, Note_on_c, 0, 70, 64
7, 131624, Note_off_c, 0, 74, 64
7, 131624, Note_on_c, 0, 74, 64
7, 131804, Note_off_c, 0, 53, 64
7, 131808, Note_off_c, 0, 48, 64
7, 131836, Note_off_c, 0, 74, 64
7, 131836, Note_on_c, 0, 74, 64
7, 132040, Note_off_c, 0, 58, 64
7, 132040, Note_on_c, 0, 58, 64
7, 132052, Note_off_c, 0, 65, 64
7, 132052, Note_on_c, 0, 65, 64
7, 132064, Note_off_c, 0, 70, 64
7, 132064, Note_on_c, 0, 70, 64
7, 132076, Note_off_c, 0, 74, 64
7, 132076, Note_on_c, 0, 74, 64
7, 132316, Note_off_c, 0, 74, 64
7, 132316, Note_on_c, 0, 74, 64
7, 132348, Note_off_c, 0, 65, 64
7, 132348, Note_off_c, 0, 70, 64
7, 132348, Note_off_c, 0, 74, 64
7, 132348, Note_on_c, 0, 72, 64
7, 132348, Note_on_c, 0, 65, 64
7, 132348, Note_on_c, 0, 70, 64
7, 132372, Note_off_c, 0, 65, 64
7, 132376, Note_on_c, 0, 63, 64
7, 132536, Note_off_c, 0, 58, 64
7, 132536, Note_on_c, 0, 58, 64
7, 132556, Note_off_c, 0, 63, 64
7, 132556, Note_on_c, 0, 63, 64
7, 132568, Note_off_c, 0, 72, 64
7, 132568, Note_on_c, 0, 74, 64
7, 132572, Note_off_c, 0, 70, 64
7, 132572, Note_on_c, 0, 70, 64
7, 132580, Note_off_c, 0, 74, 64
7, 132584, Note_on_c, 0, 74, 64
7, 132592, Note_off_c, 0, 63, 64
7, 132592, Note_on_c, 0, 65, 64
7, 132788, Note_off_c, 0, 74, 64
7, 132792, Note_on_c, 0, 74, 64
7, 132804, Note_off_c, 0, 70, 64
7, 132804, Note_on_c, 0, 70, 64
7, 132980, Note_off_c, 0, 58, 64
7, 132992, Note_on_c, 0, 58, 64
7, 133004, Note_off_c, 0, 65, 64
7, 133004, Note_on_c, 0, 65, 64
7, 133012, Note_off_c, 0, 70, 64
7, 133020, Note_on_c, 0, 70, 64
7, 133024, Note_off_c, 0, 74, 64
7, 133024, Note_on_c, 0, 74, 64
7, 133252, Note_off_c, 0, 74, 64
7, 133252, Note_on_c, 0, 74, 64
7, 133276, Note_off_c, 0, 70, 64
7, 133276, Note_on_c, 0, 70, 64
7, 133300, Note_off_c, 0, 74, 64
7, 133300, Note_on_c, 0, 72, 64
7, 133312, Note_off_c, 0, 65, 64
7, 133312, Note_on_c, 0, 63, 64
7, 133476, Note_off_c, 0, 63, 64
7, 133476, Note_on_c, 0, 64, 64
7, 133480, Note_on_c, 0, 53, 64
7, 133492, Note_off_c, 0, 72, 64
7, 133496, Note_off_c, 0, 58, 64
7, 133496, Note_on_c, 0, 74, 64
7, 133496, Note_on_c, 0, 58, 64
7, 133508, Note_off_c, 0, 64, 64
7, 133516, Note_off_c, 0, 70, 64
7, 133516, Note_on_c, 0, 65, 64
7, 133516, Note_on_c, 0, 65, 64
7, 133516, Note_on_c, 0, 70, 64
7, 133517, Note_off_c, 0, 65, 64
7, 133532, Note_off_c, 0, 74, 64
7, 133532, Note_on_c, 0, 74, 64
7, 133756, Note_off_c, 0, 74, 64
7, 133756, Note_on_c, 0, 74, 64
7, 133964, Note_off_c, 0, 58, 64
7, 133964, Note_on_c, 0, 58, 64
7, 133980, Note_off_c, 0, 65, 64
7, 133984, Note_on_c, 0, 65, 64
7, 133988, Note_off_c, 0, 70, 64
7, 133992, Note_on_c, 0, 70, 64
7, 134004, Note_off_c, 0, 74, 64
7, 134004, Note_on_c, 0, 74, 64
7, 134200, Note_off_c, 0, 70, 64
7, 134200, Note_on_c, 0, 69, 64
7, 134232, Note_off_c, 0, 74, 64
7, 134232, Note_on_c, 0, 72, 64
7, 134240, Note_off_c, 0, 65, 64
7, 134240, Note_off_c, 0, 72, 64
7, 134240, Note_on_c, 0, 72, 64
7, 134240, Note_on_c, 0, 64, 64
7, 134260, Note_off_c, 0, 69, 64
7, 134260, Note_on_c, 0, 67, 64
7, 134292, Note_off_c, 0, 64, 64
7, 134292, Note_on_c, 0, 63, 64
7, 134432, Note_off_c, 0, 63, 64
7, 134432, Note_on_c, 0, 65, 64
7, 134448, Note_off_c, 0, 67, 64
7, 134448, Note_on_c, 0, 69, 64
7, 134452, Note_off_c, 0, 58, 64
7, 134456, Note_on_c, 0, 60, 64
7, 134484, Note_off_c, 0, 53, 64
7, 134484, Note_on_c, 0, 53, 64
7, 134496, Note_off_c, 0, 60, 64
7, 134496, Note_on_c, 0, 60, 64
7, 134524, Note_off_c, 0, 65, 64
7, 134524, Note_on_c, 0, 65, 64
7, 134532, Note_off_c, 0, 69, 64
7, 134532, Note_on_c, 0, 69, 64
7, 134540, Note_off_c, 0, 72, 64
7, 134540, Note_on_c, 0, 72, 64
7, 134724, Note_off_c, 0, 72, 64
7, 134724, Note_on_c, 0, 72, 64
7, 134740, Note_off_c, 0, 69, 64
7, 134740, Note_on_c, 0, 69, 64
7, 134752, Note_off_c, 0, 65, 64
7, 134752, Note_on_c, 0, 65, 64
7, 134772, Note_off_c, 0, 60, 64
7, 134772, Note_on_c, 0, 60, 64
7, 134940, Note_off_c, 0, 53, 64
7, 134940, Note_on_c, 0, 53, 64
7, 134948, Note_off_c, 0, 60, 64
7, 134948, Note_on_c, 0, 60, 64
7, 134964, Note_off_c, 0, 65, 64
7, 134964, Note_on_c, 0, 65, 64
7, 134976, Note_off_c, 0, 69, 64
7, 134976, Note_on_c, 0, 69, 64
7, 134996, Note_off_c, 0, 72, 64
7, 134996, Note_on_c, 0, 72, 64
7, 135216, Note_off_c, 0, 72, 64
7, 135216, Note_on_c, 0, 72, 64
7, 135220, Note_off_c, 0, 69, 64
7, 135220, Note_on_c, 0, 69, 64
7, 135232, Note_off_c, 0, 65, 64
7, 135232, Note_off_c, 0, 69, 64
7, 135232, Note_on_c, 0, 67, 64
7, 135232, Note_on_c, 0, 65, 64
7, 135252, Note_off_c, 0, 65, 64
7, 135260, Note_on_c, 0, 63, 64
7, 135264, Note_off_c, 0, 60, 64
7, 135268, Note_on_c, 0, 58, 64
7, 135380, Note_off_c, 0, 63, 64
7, 135380, Note_off_c, 0, 58, 64
7, 135380, Note_on_c, 0, 60, 64
7, 135380, Note_on_c, 0, 65, 64
7, 135404, Note_off_c, 0, 67, 64
7, 135408, Note_on_c, 0, 69, 64
7, 135424, Note_off_c, 0, 53, 64
7, 135424, Note_on_c, 0, 53, 64
7, 135440, Note_off_c, 0, 60, 64
7, 135440, Note_on_c, 0, 60, 64
7, 135456, Note_off_c, 0, 65, 64
7, 135456, Note_on_c, 0, 65, 64
7, 135464, Note_off_c, 0, 69, 64
7, 135464, Note_on_c, 0, 69, 64
7, 135648, Note_off_c, 0, 72, 64
7, 135648, Note_on_c, 0, 74, 64
7, 135680, Note_off_c, 0, 74, 64
7, 135680, Note_on_c, 0, 74, 64
7, 135700, Note_off_c, 0, 65, 64
7, 135700, Note_off_c, 0, 69, 64
7, 135700, Note_on_c, 0, 69, 64
7, 135700, Note_on_c, 0, 65, 64
7, 135748, Note_off_c, 0, 74, 64
7, 135748, Note_on_c, 0, 72, 64
7, 135900, Note_off_c, 0, 60, 64
7, 135900, Note_on_c, 0, 60, 64
7, 135908, Note_off_c, 0, 65, 64
7, 135908, Note_on_c, 0, 65, 64
7, 135920, Note_off_c, 0, 69, 64
7, 135924, Note_on_c, 0, 69, 64
7, 135932, Note_off_c, 0, 72, 64
7, 135932, Note_on_c, 0, 72, 64
7, 136080, Note_off_c, 0, 69, 64
7, 136080, Note_on_c, 0, 67, 64
7, 136108, Note_off_c, 0, 65, 64
7, 136108, Note_on_c, 0, 63, 64
7, 136128, Note_off_c, 0, 72, 64
7, 136132, Note_on_c, 0, 72, 64
7, 136140, Note_off_c, 0, 60, 64
7, 136140, Note_off_c, 0, 67, 64
7, 136140, Note_on_c, 0, 58, 64
7, 136140, Note_on_c, 0, 67, 64
7, 136152, Note_off_c, 0, 63, 64
7, 136152, Note_on_c, 0, 63, 64
7, 136192, Note_off_c, 0, 72, 64
7, 136192, Note_on_c, 0, 75, 64
7, 136320, Note_off_c, 0, 53, 64
7, 136340, Note_on_c, 0, 55, 64
7, 136348, Note_on_c, 0, 51, 64
7, 136368, Note_off_c, 0, 55, 64
7, 136368, Note_on_c, 0, 55, 64
7, 136376, Note_off_c, 0, 58, 64
7, 136384, Note_on_c, 0, 58, 64
7, 136392, Note_off_c, 0, 63, 64
7, 136392, Note_on_c, 0, 63, 64
7, 136400, Note_off_c, 0, 67, 64
7, 136400, Note_on_c, 0, 67, 64
7, 136416, Note_off_c, 0, 75, 64
7, 136416, Note_on_c, 0, 75, 64
7, 136612, Note_off_c, 0, 75, 64
7, 136612, Note_on_c, 0, 75, 64
7, 136620, Note_off_c, 0, 67, 64
7, 136620, Note_on_c, 0, 67, 64
7, 136860, Note_off_c, 0, 55, 64
7, 136860, Note_on_c, 0, 55, 64
7, 136872, Note_off_c, 0, 58, 64
7, 136872, Note_on_c, 0, 58, 64
7, 136884, Note_off_c, 0, 63, 64
7, 136884, Note_on_c, 0, 63, 64
7, 136892, Note_off_c, 0, 67, 64
7, 136892, Note_on_c, 0, 67, 64
7, 136912, Note_off_c, 0, 75, 64
7, 136912, Note_on_c, 0, 75, 64
7, 137132, Note_off_c, 0, 75, 64
7, 137136, Note_on_c, 0, 75, 64
7, 137140, Note_off_c, 0, 67, 64
7, 137140, Note_on_c, 0, 67, 64
7, 137348, Note_off_c, 0, 55, 64
7, 137356, Note_off_c, 0, 58, 64
7, 137356, Note_on_c, 0, 55, 64
7, 137356, Note_on_c, 0, 58, 64
7, 137372, Note_off_c, 0, 63, 64
7, 137372, Note_on_c, 0, 63, 64
7, 137384, Note_off_c, 0, 75, 64
7, 137384, Note_off_c, 0, 67, 64
7, 137384, Note_on_c, 0, 67, 64
7, 137384, Note_on_c, 0, 75, 64
7, 137632, Note_off_c, 0, 75, 64
7, 137632, Note_on_c, 0, 75, 64
7, 137648, Note_off_c, 0, 67, 64
7, 137648, Note_on_c, 0, 67, 64
7, 137840, Note_off_c, 0, 58, 64
7, 137840, Note_on_c, 0, 58, 64
7, 137848, Note_off_c, 0, 51, 64
7, 137848, Note_off_c, 0, 63, 64
7, 137848, Note_on_c, 0, 63, 64
7, 137860, Note_off_c, 0, 67, 64
7, 137860, Note_on_c, 0, 67, 64
7, 137876, Note_off_c, 0, 75, 64
7, 137876, Note_on_c, 0, 75, 64
7, 137948, Note_off_c, 0, 55, 64
7, 137952, Note_on_c, 0, 53, 64
7, 138088, Note_off_c, 0, 75, 64
7, 138088, Note_on_c, 0, 75, 64
7, 138096, Note_off_c, 0, 67, 64
7, 138096, Note_on_c, 0, 67, 64
7, 138112, Note_off_c, 0, 75, 64
7, 138116, Note_on_c, 0, 72, 64
7, 138280, Note_off_c, 0, 63, 64
7, 138288, Note_off_c, 0, 53, 64
7, 138288, Note_on_c, 0, 65, 64
7, 138288, Note_on_c, 0, 53, 64
7, 138300, Note_off_c, 0, 58, 64
7, 138300, Note_on_c, 0, 58, 64
7, 138312, Note_off_c, 0, 65, 64
7, 138312, Note_on_c, 0, 65, 64
7, 138320, Note_off_c, 0, 67, 64
7, 138320, Note_on_c, 0, 70, 64
7, 138320, Note_on_c, 0, 70, 64
7, 138321, Note_off_c, 0, 70, 64
7, 138332, Note_off_c, 0, 72, 64
7, 138332, Note_on_c, 0, 75, 64
7, 138332, Note_on_c, 0, 75, 64
7, 138333, Note_off_c, 0, 75, 64
7, 138528, Note_off_c, 0, 75, 64
7, 138532, Note_on_c, 0, 74, 64
7, 138548, Note_off_c, 0, 74, 64
7, 138548, Note_on_c, 0, 74, 64
7, 138560, Note_off_c, 0, 70, 64
7, 138560, Note_on_c, 0, 70, 64
7, 138756, Note_off_c, 0, 53, 64
7, 138756, Note_on_c, 0, 53, 64
7, 138772, Note_off_c, 0, 58, 64
7, 138772, Note_on_c, 0, 58, 64
7, 138788, Note_off_c, 0, 65, 64
7, 138788, Note_on_c, 0, 65, 64
7, 138792, Note_off_c, 0, 70, 64
7, 138792, Note_on_c, 0, 70, 64
7, 138808, Note_off_c, 0, 74, 64
7, 138808, Note_on_c, 0, 74, 64
7, 139040, Note_off_c, 0, 74, 64
7, 139052, Note_on_c, 0, 74, 64
7, 139156, Note_off_c, 0, 74, 64
7, 139156, Note_on_c, 0, 72, 64
7, 139180, Note_off_c, 0, 65, 64
7, 139180, Note_on_c, 0, 63, 64
7, 139272, Note_off_c, 0, 58, 64
7, 139272, Note_on_c, 0, 58, 64
7, 139292, Note_off_c, 0, 63, 64
7, 139292, Note_on_c, 0, 63, 64
7, 139308, Note_off_c, 0, 70, 64
7, 139308, Note_on_c, 0, 70, 64
7, 139320, Note_off_c, 0, 72, 64
7, 139320, Note_off_c, 0, 63, 64
7, 139320, Note_on_c, 0, 74, 64
7, 139328, Note_off_c, 0, 74, 64
7, 139328, Note_on_c, 0, 65, 64
7, 139328, Note_on_c, 0, 74, 64
7, 139520, Note_off_c, 0, 74, 64
7, 139520, Note_on_c, 0, 74, 64
7, 139540, Note_off_c, 0, 70, 64
7, 139540, Note_on_c, 0, 70, 64
7, 139756, Note_off_c, 0, 53, 64
7, 139756, Note_on_c, 0, 53, 64
7, 139768, Note_off_c, 0, 58, 64
7, 139768, Note_on_c, 0, 58, 64
7, 139780, Note_off_c, 0, 65, 64
7, 139780, Note_on_c, 0, 65, 64
7, 139796, Note_off_c, 0, 70, 64
7, 139796, Note_on_c, 0, 70, 64
7, 139816, Note_off_c, 0, 74, 64
7, 139816, Note_on_c, 0, 74, 64
7, 140028, Note_off_c, 0, 74, 64
7, 140028, Note_on_c, 0, 72, 64
7, 140028, Note_on_c, 0, 72, 64
7, 140029, Note_off_c, 0, 72, 64
7, 140040, Note_off_c, 0, 65, 64
7, 140040, Note_off_c, 0, 70, 64
7, 140040, Note_on_c, 0, 63, 64
7, 140040, Note_on_c, 0, 70, 64
7, 140192, Note_off_c, 0, 63, 64
7, 140192, Note_on_c, 0, 65, 64
7, 140216, Note_off_c, 0, 72, 64
7, 140216, Note_on_c, 0, 74, 64
7, 140236, Note_off_c, 0, 53, 64
7, 140240, Note_on_c, 0, 53, 64
7, 140248, Note_off_c, 0, 58, 64
7, 140248, Note_on_c, 0, 58, 64
7, 140264, Note_off_c, 0, 65, 64
7, 140264, Note_on_c, 0, 65, 64
7, 140272, Note_off_c, 0, 70, 64
7, 140272, Note_on_c, 0, 70, 64
7, 140304, Note_off_c, 0, 74, 64
7, 140308, Note_on_c, 0, 74, 64
7, 140500, Note_off_c, 0, 74, 64
7, 140500, Note_on_c, 0, 74, 64
7, 140532, Note_off_c, 0, 70, 64
7, 140532, Note_on_c, 0, 70, 64
7, 140716, Note_off_c, 0, 58, 64
7, 140716, Note_on_c, 0, 58, 64
7, 140736, Note_off_c, 0, 65, 64
7, 140736, Note_on_c, 0, 65, 64
7, 140740, Note_off_c, 0, 70, 64
7, 140740, Note_on_c, 0, 70, 64
7, 140756, Note_off_c, 0, 74, 64
7, 140756, Note_on_c, 0, 74, 64
7, 140980, Note_off_c, 0, 74, 64
7, 140980, Note_on_c, 0, 74, 64
7, 140992, Note_off_c, 0, 70, 64
7, 140992, Note_on_c, 0, 70, 64
7, 141000, Note_off_c, 0, 74, 64
7, 141000, Note_on_c, 0, 72, 64
7, 141028, Note_off_c, 0, 65, 64
7, 141028, Note_on_c, 0, 63, 64
7, 141176, Note_off_c, 0, 63, 64
7, 141176, Note_on_c, 0, 65, 64
7, 141188, Note_off_c, 0, 72, 64
7, 141188, Note_on_c, 0, 74, 64
7, 141204, Note_off_c, 0, 58, 64
7, 141204, Note_on_c, 0, 58, 64
7, 141224, Note_off_c, 0, 65, 64
7, 141224, Note_on_c, 0, 65, 64
7, 141236, Note_off_c, 0, 70, 64
7, 141236, Note_on_c, 0, 70, 64
7, 141244, Note_off_c, 0, 74, 64
7, 141244, Note_on_c, 0, 74, 64
7, 141452, Note_off_c, 0, 74, 64
7, 141452, Note_on_c, 0, 74, 64
7, 141484, Note_off_c, 0, 70, 64
7, 141488, Note_on_c, 0, 70, 64
7, 141560, Note_off_c, 0, 74, 64
7, 141560, Note_on_c, 0, 74, 64
7, 141672, Note_off_c, 0, 65, 64
7, 141672, Note_on_c, 0, 65, 64
7, 141684, Note_off_c, 0, 70, 64
7, 141684, Note_on_c, 0, 70, 64
7, 141696, Note_off_c, 0, 74, 64
7, 141700, Note_on_c, 0, 74, 64
7, 141732, Note_off_c, 0, 53, 64
7, 141900, Note_off_c, 0, 74, 64
7, 141900, Note_on_c, 0, 72, 64
7, 141920, Note_off_c, 0, 72, 64
7, 141920, Note_on_c, 0, 72, 64
7, 141932, Note_off_c, 0, 65, 64
7, 141932, Note_off_c, 0, 70, 64
7, 141932, Note_on_c, 0, 63, 64
7, 141932, Note_on_c, 0, 70, 64
7, 142080, Note_off_c, 0, 63, 64
7, 142080, Note_on_c, 0, 64, 64
7, 142116, Note_off_c, 0, 64, 64
7, 142116, Note_on_c, 0, 65, 64
7, 142136, Note_off_c, 0, 72, 64
7, 142136, Note_on_c, 0, 74, 64
7, 142148, Note_on_c, 0, 53, 64
7, 142164, Note_off_c, 0, 58, 64
7, 142164, Note_on_c, 0, 58, 64
7, 142176, Note_off_c, 0, 65, 64
7, 142176, Note_on_c, 0, 65, 64
7, 142184, Note_off_c, 0, 70, 64
7, 142184, Note_on_c, 0, 70, 64
7, 142200, Note_off_c, 0, 74, 64
7, 142200, Note_on_c, 0, 74, 64
7, 142408, Note_off_c, 0, 74, 64
7, 142408, Note_on_c, 0, 74, 64
7, 142604, Note_off_c, 0, 58, 64
7, 142604, Note_on_c, 0, 58, 64
7, 142620, Note_off_c, 0, 70, 64
7, 142620, Note_on_c, 0, 70, 64
7, 142628, Note_off_c, 0, 65, 64
7, 142632, Note_on_c, 0, 65, 64
7, 142652, Note_off_c, 0, 74, 64
7, 142652, Note_on_c, 0, 74, 64
7, 142876, Note_off_c, 0, 74, 64
7, 142876, Note_on_c, 0, 74, 64
7, 142908, Note_off_c, 0, 74, 64
7, 142908, Note_on_c, 0, 72, 64
7, 142924, Note_off_c, 0, 65, 64
7, 142924, Note_on_c, 0, 63, 64
7, 143088, Note_off_c, 0, 53, 64
7, 143088, Note_on_c, 0, 53, 64
7, 143100, Note_off_c, 0, 58, 64
7, 143100, Note_on_c, 0, 58, 64
7, 143108, Note_off_c, 0, 63, 64
7, 143108, Note_on_c, 0, 65, 64
7, 143112, Note_off_c, 0, 65, 64
7, 143116, Note_on_c, 0, 65, 64
7, 143124, Note_off_c, 0, 70, 64
7, 143124, Note_on_c, 0, 70, 64
7, 143136, Note_off_c, 0, 72, 64
7, 143136, Note_on_c, 0, 74, 64
7, 143137, Note_off_c, 0, 74, 64
7, 143144, Note_on_c, 0, 74, 64
7, 143364, Note_off_c, 0, 74, 64
7, 143364, Note_on_c, 0, 74, 64
7, 143572, Note_off_c, 0, 58, 64
7, 143576, Note_on_c, 0, 58, 64
7, 143588, Note_off_c, 0, 65, 64
7, 143588, Note_on_c, 0, 65, 64
7, 143600, Note_off_c, 0, 70, 64
7, 143600, Note_on_c, 0, 70, 64
7, 143676, Note_off_c, 0, 74, 64
7, 143676, Note_on_c, 0, 74, 64
7, 143836, Note_off_c, 0, 74, 64
7, 143840, Note_on_c, 0, 74, 64
7, 143856, Note_off_c, 0, 74, 64
7, 143856, Note_on_c, 0, 72, 64
7, 143884, Note_off_c, 0, 65, 64
7, 143884, Note_on_c, 0, 63, 64
7, 144048, Note_off_c, 0, 53, 64
7, 144048, Note_off_c, 0, 63, 64
7, 144048, Note_on_c, 0, 65, 64
7, 144056, Note_off_c, 0, 72, 64
7, 144056, Note_on_c, 0, 53, 64
7, 144056, Note_on_c, 0, 74, 64
7, 144064, Note_off_c, 0, 58, 64
7, 144064, Note_on_c, 0, 58, 64
7, 144076, Note_off_c, 0, 65, 64
7, 144076, Note_on_c, 0, 65, 64
7, 144088, Note_off_c, 0, 70, 64
7, 144088, Note_on_c, 0, 70, 64
7, 144112, Note_off_c, 0, 74, 64
7, 144112, Note_on_c, 0, 74, 64
7, 144316, Note_off_c, 0, 74, 64
7, 144316, Note_on_c, 0, 74, 64
7, 144328, Note_off_c, 0, 70, 64
7, 144328, Note_on_c, 0, 70, 64
7, 144420, Note_off_c, 0, 74, 64
7, 144420, Note_on_c, 0, 74, 64
7, 144512, Note_off_c, 0, 53, 64
7, 144512, Note_on_c, 0, 53, 64
7, 144524, Note_off_c, 0, 58, 64
7, 144528, Note_on_c, 0, 58, 64
7, 144544, Note_off_c, 0, 65, 64
7, 144544, Note_on_c, 0, 65, 64
7, 144552, Note_off_c, 0, 70, 64
7, 144552, Note_on_c, 0, 70, 64
7, 144576, Note_off_c, 0, 74, 64
7, 144576, Note_on_c, 0, 74, 64
7, 144796, Note_off_c, 0, 74, 64
7, 144796, Note_on_c, 0, 74, 64
7, 144808, Note_off_c, 0, 70, 64
7, 144808, Note_off_c, 0, 74, 64
7, 144808, Note_on_c, 0, 72, 64
7, 144808, Note_on_c, 0, 70, 64
7, 144828, Note_off_c, 0, 65, 64
7, 144828, Note_on_c, 0, 63, 64
7, 144960, Note_off_c, 0, 72, 64
7, 144960, Note_off_c, 0, 63, 64
7, 144960, Note_on_c, 0, 65, 64
7, 144960, Note_on_c, 0, 74, 64
7, 144996, Note_off_c, 0, 53, 64
7, 144996, Note_on_c, 0, 53, 64
7, 145012, Note_off_c, 0, 58, 64
7, 145016, Note_on_c, 0, 58, 64
7, 145024, Note_off_c, 0, 65, 64
7, 145024, Note_on_c, 0, 65, 64
7, 145036, Note_off_c, 0, 70, 64
7, 145036, Note_on_c, 0, 70, 64
7, 145056, Note_off_c, 0, 74, 64
7, 145056, Note_on_c, 0, 74, 64
7, 145260, Note_off_c, 0, 74, 64
7, 145260, Note_on_c, 0, 74, 64
7, 145472, Note_off_c, 0, 53, 64
7, 145472, Note_on_c, 0, 53, 64
7, 145484, Note_off_c, 0, 58, 64
7, 145484, Note_on_c, 0, 58, 64
7, 145500, Note_off_c, 0, 65, 64
7, 145504, Note_on_c, 0, 65, 64
7, 145512, Note_off_c, 0, 70, 64
7, 145512, Note_on_c, 0, 70, 64
7, 145532, Note_off_c, 0, 74, 64
7, 145532, Note_on_c, 0, 74, 64
7, 145720, Note_off_c, 0, 74, 64
7, 145724, Note_on_c, 0, 72, 64
7, 145740, Note_off_c, 0, 72, 64
7, 145740, Note_on_c, 0, 72, 64
7, 145760, Note_off_c, 0, 65, 64
7, 145760, Note_on_c, 0, 63, 64
7, 145940, Note_off_c, 0, 63, 64
7, 145940, Note_on_c, 0, 65, 64
7, 145952, Note_off_c, 0, 72, 64
7, 145956, Note_off_c, 0, 53, 64
7, 145956, Note_on_c, 0, 74, 64
7, 145956, Note_on_c, 0, 53, 64
7, 145976, Note_off_c, 0, 65, 64
7, 145980, Note_off_c, 0, 58, 64
7, 145980, Note_on_c, 0, 65, 64
7, 145980, Note_on_c, 0, 58, 64
7, 145988, Note_off_c, 0, 70, 64
7, 145996, Note_off_c, 0, 74, 64
7, 145996, Note_on_c, 0, 70, 64
7, 145996, Note_on_c, 0, 74, 64
7, 146188, Note_off_c, 0, 74, 64
7, 146192, Note_on_c, 0, 74, 64
7, 146400, Note_off_c, 0, 65, 64
7, 146400, Note_off_c, 0, 58, 64
7, 146400, Note_on_c, 0, 58, 64
7, 146400, Note_on_c, 0, 65, 64
7, 146436, Note_off_c, 0, 70, 64
7, 146436, Note_on_c, 0, 70, 64
7, 146448, Note_off_c, 0, 74, 64
7, 146448, Note_on_c, 0, 74, 64
7, 146652, Note_off_c, 0, 74, 64
7, 146652, Note_on_c, 0, 72, 64
7, 146680, Note_off_c, 0, 72, 64
7, 146680, Note_on_c, 0, 72, 64
7, 146696, Note_off_c, 0, 65, 64
7, 146696, Note_on_c, 0, 63, 64
7, 146708, Note_off_c, 0, 70, 64
7, 146708, Note_on_c, 0, 70, 64
7, 146880, Note_off_c, 0, 53, 64
7, 146880, Note_off_c, 0, 58, 64
7, 146880, Note_on_c, 0, 53, 64
7, 146880, Note_on_c, 0, 58, 64
7, 146908, Note_off_c, 0, 63, 64
7, 146908, Note_on_c, 0, 63, 64
7, 146912, Note_off_c, 0, 70, 64
7, 146912, Note_on_c, 0, 70, 64
7, 146936, Note_off_c, 0, 72, 64
7, 146936, Note_on_c, 0, 74, 64
7, 146944, Note_off_c, 0, 63, 64
7, 146944, Note_on_c, 0, 65, 64
7, 147360, Note_off_c, 0, 58, 64
7, 147360, Note_on_c, 0, 58, 64
7, 147380, Note_off_c, 0, 65, 64
7, 147380, Note_on_c, 0, 65, 64
7, 147392, Note_off_c, 0, 70, 64
7, 147396, Note_on_c, 0, 70, 64
7, 147412, Note_off_c, 0, 74, 64
7, 147412, Note_on_c, 0, 74, 64
7, 147640, Note_off_c, 0, 74, 64
7, 147648, Note_on_c, 0, 72, 64
7, 147660, Note_off_c, 0, 65, 64
7, 147660, Note_off_c, 0, 72, 64
7, 147660, Note_on_c, 0, 63, 64
7, 147660, Note_on_c, 0, 72, 64
7, 147868, Note_off_c, 0, 72, 64
7, 147868, Note_off_c, 0, 58, 64
7, 147868, Note_off_c, 0, 63, 64
7, 147868, Note_on_c, 0, 74, 64
7, 147868, Note_on_c, 0, 58, 64
7, 147868, Note_on_c, 0, 65, 64
7, 147888, Note_off_c, 0, 65, 64
7, 147888, Note_off_c, 0, 70, 64
7, 147888, Note_on_c, 0, 65, 64
7, 147888, Note_on_c, 0, 70, 64
7, 147904, Note_off_c, 0, 74, 64
7, 147904, Note_on_c, 0, 74, 64
7, 148112, Note_off_c, 0, 74, 64
7, 148112, Note_on_c, 0, 74, 64
7, 148128, Note_off_c, 0, 70, 64
7, 148136, Note_on_c, 0, 70, 64
7, 148144, Note_off_c, 0, 65, 64
7, 148144, Note_on_c, 0, 65, 64
7, 148320, Note_off_c, 0, 58, 64
7, 148320, Note_on_c, 0, 58, 64
7, 148340, Note_off_c, 0, 70, 64
7, 148340, Note_off_c, 0, 65, 64
7, 148340, Note_on_c, 0, 65, 64
7, 148340, Note_on_c, 0, 70, 64
7, 148368, Note_off_c, 0, 74, 64
7, 148368, Note_on_c, 0, 74, 64
7, 148384, Note_off_c, 0, 53, 64
7, 148584, Note_off_c, 0, 74, 64
7, 148584, Note_on_c, 0, 72, 64
7, 148584, Note_on_c, 0, 72, 64
7, 148585, Note_off_c, 0, 72, 64
7, 148600, Note_off_c, 0, 70, 64
7, 148600, Note_on_c, 0, 70, 64
7, 148612, Note_off_c, 0, 65, 64
7, 148612, Note_on_c, 0, 63, 64
7, 148824, Note_off_c, 0, 63, 64
7, 148824, Note_on_c, 0, 65, 64
7, 148828, Note_off_c, 0, 72, 64
7, 148828, Note_on_c, 0, 74, 64
7, 148832, Note_off_c, 0, 58, 64
7, 148832, Note_on_c, 0, 58, 64
7, 148844, Note_off_c, 0, 65, 64
7, 148844, Note_on_c, 0, 65, 64
7, 148852, Note_off_c, 0, 70, 64
7, 148852, Note_on_c, 0, 70, 64
7, 148888, Note_off_c, 0, 74, 64
7, 148888, Note_on_c, 0, 74, 64
7, 149076, Note_off_c, 0, 74, 64
7, 149076, Note_on_c, 0, 74, 64
7, 149088, Note_off_c, 0, 70, 64
7, 149088, Note_on_c, 0, 70, 64
7, 149096, Note_off_c, 0, 65, 64
7, 149096, Note_on_c, 0, 65, 64
7, 149280, Note_off_c, 0, 58, 64
7, 149280, Note_on_c, 0, 58, 64
7, 149300, Note_off_c, 0, 65, 64
7, 149300, Note_on_c, 0, 65, 64
7, 149308, Note_off_c, 0, 70, 64
7, 149308, Note_on_c, 0, 70, 64
7, 149336, Note_off_c, 0, 74, 64
7, 149336, Note_on_c, 0, 74, 64
7, 149556, Note_off_c, 0, 74, 64
7, 149556, Note_on_c, 0, 72, 64
7, 149572, Note_off_c, 0, 72, 64
7, 149572, Note_on_c, 0, 72, 64
7, 149580, Note_off_c, 0, 70, 64
7, 149584, Note_on_c, 0, 70, 64
7, 149592, Note_off_c, 0, 65, 64
7, 149592, Note_on_c, 0, 63, 64
7, 149644, Note_off_c, 0, 70, 64
7, 149644, Note_on_c, 0, 67, 64
7, 149792, Note_off_c, 0, 72, 64
7, 149792, Note_on_c, 0, 75, 64
7, 149816, Note_on_c, 0, 53, 64
7, 149828, Note_off_c, 0, 58, 64
7, 149828, Note_on_c, 0, 58, 64
7, 149840, Note_off_c, 0, 63, 64
7, 149840, Note_on_c, 0, 63, 64
7, 149852, Note_off_c, 0, 67, 64
7, 149856, Note_on_c, 0, 67, 64
7, 149864, Note_off_c, 0, 75, 64
7, 149864, Note_on_c, 0, 75, 64
7, 149908, Note_off_c, 0, 53, 64
7, 149916, Note_on_c, 0, 55, 64
7, 150036, Note_off_c, 0, 75, 64
7, 150036, Note_on_c, 0, 75, 64
7, 150048, Note_off_c, 0, 67, 64
7, 150048, Note_on_c, 0, 67, 64
7, 150056, Note_off_c, 0, 63, 64
7, 150056, Note_on_c, 0, 63, 64
7, 150080, Note_off_c, 0, 58, 64
7, 150080, Note_on_c, 0, 58, 64
7, 150096, Note_off_c, 0, 55, 64
7, 150096, Note_on_c, 0, 55, 64
7, 150284, Note_off_c, 0, 55, 64
7, 150288, Note_on_c, 0, 55, 64
7, 150300, Note_off_c, 0, 58, 64
7, 150300, Note_on_c, 0, 58, 64
7, 150320, Note_off_c, 0, 63, 64
7, 150320, Note_on_c, 0, 63, 64
7, 150328, Note_off_c, 0, 67, 64
7, 150328, Note_on_c, 0, 67, 64
7, 150340, Note_off_c, 0, 75, 64
7, 150340, Note_on_c, 0, 75, 64
7, 150408, Note_off_c, 0, 75, 64
7, 150408, Note_on_c, 0, 72, 64
7, 150540, Note_off_c, 0, 67, 64
7, 150540, Note_on_c, 0, 67, 64
7, 150548, Note_off_c, 0, 72, 64
7, 150548, Note_on_c, 0, 72, 64
7, 150580, Note_off_c, 0, 72, 64
7, 150580, Note_on_c, 0, 75, 64
7, 150764, Note_on_c, 0, 51, 64
7, 150780, Note_off_c, 0, 55, 64
7, 150780, Note_on_c, 0, 55, 64
7, 150792, Note_off_c, 0, 58, 64
7, 150792, Note_on_c, 0, 58, 64
7, 150804, Note_off_c, 0, 63, 64
7, 150808, Note_on_c, 0, 63, 64
7, 150816, Note_off_c, 0, 67, 64
7, 150816, Note_on_c, 0, 67, 64
7, 150824, Note_off_c, 0, 75, 64
7, 150824, Note_on_c, 0, 75, 64
7, 151060, Note_off_c, 0, 63, 64
7, 151060, Note_off_c, 0, 75, 64
7, 151060, Note_on_c, 0, 75, 64
7, 151060, Note_on_c, 0, 63, 64
7, 151072, Note_off_c, 0, 67, 64
7, 151072, Note_on_c, 0, 67, 64
7, 151252, Note_off_c, 0, 55, 64
7, 151252, Note_on_c, 0, 55, 64
7, 151260, Note_off_c, 0, 58, 64
7, 151260, Note_on_c, 0, 58, 64
7, 151284, Note_off_c, 0, 63, 64
7, 151284, Note_on_c, 0, 63, 64
7, 151288, Note_off_c, 0, 67, 64
7, 151288, Note_on_c, 0, 67, 64
7, 151472, Note_off_c, 0, 55, 64
7, 151472, Note_on_c, 0, 53, 64
7, 151492, Note_off_c, 0, 51, 64
7, 151492, Note_on_c, 0, 48, 64
7, 151504, Note_off_c, 0, 75, 64
7, 151508, Note_on_c, 0, 75, 64
7, 151532, Note_off_c, 0, 67, 64
7, 151532, Note_on_c, 0, 67, 64
7, 151548, Note_off_c, 0, 63, 64
7, 151548, Note_on_c, 0, 63, 64
7, 151624, Note_off_c, 0, 53, 64
7, 151624, Note_off_c, 0, 48, 64
7, 151624, Note_on_c, 0, 55, 64
7, 151624, Note_on_c, 0, 51, 64
7, 151728, Note_off_c, 0, 51, 64
7, 151736, Note_on_c, 0, 51, 64
7, 151744, Note_off_c, 0, 55, 64
7, 151748, Note_on_c, 0, 55, 64
7, 151760, Note_off_c, 0, 58, 64
7, 151760, Note_on_c, 0, 58, 64
7, 151772, Note_off_c, 0, 63, 64
7, 151772, Note_on_c, 0, 63, 64
7, 151784, Note_off_c, 0, 67, 64
7, 151784, Note_on_c, 0, 67, 64
7, 151800, Note_off_c, 0, 75, 64
7, 151804, Note_on_c, 0, 75, 64
7, 152008, Note_off_c, 0, 75, 64
7, 152012, Note_on_c, 0, 75, 64
7, 152232, Note_off_c, 0, 55, 64
7, 152236, Note_on_c, 0, 55, 64
7, 152240, Note_off_c, 0, 58, 64
7, 152240, Note_on_c, 0, 58, 64
7, 152260, Note_off_c, 0, 63, 64
7, 152260, Note_on_c, 0, 63, 64
7, 152264, Note_off_c, 0, 67, 64
7, 152264, Note_on_c, 0, 67, 64
7, 152468, Note_off_c, 0, 75, 64
7, 152468, Note_off_c, 0, 55, 64
7, 152468, Note_on_c, 0, 53, 64
7, 152468, Note_on_c, 0, 75, 64
7, 152480, Note_off_c, 0, 67, 64
7, 152480, Note_on_c, 0, 67, 64
7, 152496, Note_off_c, 0, 63, 64
7, 152496, Note_on_c, 0, 63, 64
7, 152516, Note_off_c, 0, 51, 64
7, 152516, Note_off_c, 0, 58, 64
7, 152516, Note_on_c, 0, 48, 64
7, 152516, Note_on_c, 0, 58, 64
7, 152608, Note_off_c, 0, 48, 64
7, 152616, Note_off_c, 0, 53, 64
7, 152616, Note_on_c, 0, 51, 64
7, 152616, Note_on_c, 0, 55, 64
7, 152708, Note_off_c, 0, 55, 64
7, 152708, Note_on_c, 0, 55, 64
7, 152720, Note_off_c, 0, 58, 64
7, 152720, Note_on_c, 0, 58, 64
7, 152736, Note_off_c, 0, 63, 64
7, 152736, Note_on_c, 0, 63, 64
7, 152744, Note_off_c, 0, 67, 64
7, 152752, Note_on_c, 0, 67, 64
7, 152764, Note_off_c, 0, 75, 64
7, 152764, Note_on_c, 0, 75, 64
7, 152836, Note_off_c, 0, 63, 64
7, 152844, Note_on_c, 0, 63, 64
7, 152984, Note_off_c, 0, 75, 64
7, 152984, Note_on_c, 0, 75, 64
7, 152992, Note_off_c, 0, 67, 64
7, 152992, Note_on_c, 0, 67, 64
7, 153004, Note_off_c, 0, 63, 64
7, 153004, Note_on_c, 0, 63, 64
7, 153176, Note_off_c, 0, 55, 64
7, 153176, Note_on_c, 0, 55, 64
7, 153188, Note_off_c, 0, 58, 64
7, 153188, Note_off_c, 0, 55, 64
7, 153188, Note_on_c, 0, 53, 64
7, 153188, Note_on_c, 0, 58, 64
7, 153200, Note_off_c, 0, 63, 64
7, 153208, Note_on_c, 0, 63, 64
7, 153216, Note_off_c, 0, 67, 64
7, 153216, Note_on_c, 0, 67, 64
7, 153248, Note_off_c, 0, 75, 64
7, 153248, Note_on_c, 0, 75, 64
7, 153280, Note_off_c, 0, 51, 64
7, 153280, Note_on_c, 0, 48, 64
7, 153440, Note_off_c, 0, 75, 64
7, 153440, Note_on_c, 0, 72, 64
7, 153440, Note_on_c, 0, 72, 64
7, 153441, Note_off_c, 0, 72, 64
7, 153460, Note_off_c, 0, 67, 64
7, 153460, Note_on_c, 0, 67, 64
7, 153488, Note_off_c, 0, 63, 64
7, 153488, Note_on_c, 0, 63, 64
7, 153600, Note_off_c, 0, 63, 64
7, 153600, Note_on_c, 0, 65, 64
7, 153628, Note_off_c, 0, 67, 64
7, 153628, Note_on_c, 0, 70, 64
7, 153664, Note_off_c, 0, 53, 64
7, 153664, Note_on_c, 0, 53, 64
7, 153676, Note_off_c, 0, 58, 64
7, 153676, Note_on_c, 0, 58, 64
7, 153684, Note_off_c, 0, 72, 64
7, 153684, Note_on_c, 0, 74, 64
7, 153692, Note_off_c, 0, 65, 64
7, 153692, Note_on_c, 0, 65, 64
7, 153700, Note_off_c, 0, 70, 64
7, 153700, Note_on_c, 0, 70, 64
7, 153708, Note_off_c, 0, 74, 64
7, 153708, Note_on_c, 0, 74, 64
7, 153944, Note_off_c, 0, 74, 64
7, 153944, Note_on_c, 0, 74, 64
7, 154144, Note_off_c, 0, 58, 64
7, 154144, Note_on_c, 0, 58, 64
7, 154168, Note_off_c, 0, 65, 64
7, 154176, Note_off_c, 0, 70, 64
7, 154176, Note_on_c, 0, 65, 64
7, 154180, Note_on_c, 0, 70, 64
7, 154196, Note_off_c, 0, 74, 64
7, 154196, Note_on_c, 0, 74, 64
7, 154396, Note_off_c, 0, 74, 64
7, 154396, Note_on_c, 0, 72, 64
7, 154408, Note_off_c, 0, 72, 64
7, 154416, Note_on_c, 0, 72, 64
7, 154428, Note_off_c, 0, 65, 64
7, 154428, Note_on_c, 0, 63, 64
7, 154588, Note_off_c, 0, 63, 64
7, 154588, Note_on_c, 0, 65, 64
7, 154604, Note_off_c, 0, 72, 64
7, 154604, Note_on_c, 0, 74, 64
7, 154620, Note_off_c, 0, 58, 64
7, 154620, Note_on_c, 0, 58, 64
7, 154636, Note_off_c, 0, 65, 64
7, 154636, Note_on_c, 0, 65, 64
7, 154644, Note_off_c, 0, 70, 64
7, 154652, Note_on_c, 0, 70, 64
7, 154664, Note_off_c, 0, 74, 64
7, 154672, Note_on_c, 0, 74, 64
7, 154776, Note_off_c, 0, 48, 64
7, 154872, Note_off_c, 0, 74, 64
7, 154872, Note_on_c, 0, 74, 64
7, 155092, Note_off_c, 0, 58, 64
7, 155092, Note_on_c, 0, 58, 64
7, 155108, Note_off_c, 0, 65, 64
7, 155108, Note_on_c, 0, 65, 64
7, 155112, Note_off_c, 0, 70, 64
7, 155112, Note_on_c, 0, 70, 64
7, 155132, Note_off_c, 0, 74, 64
7, 155132, Note_on_c, 0, 74, 64
7, 155164, Note_off_c, 0, 53, 64
7, 155352, Note_off_c, 0, 74, 64
7, 155356, Note_on_c, 0, 72, 64
7, 155368, Note_off_c, 0, 70, 64
7, 155368, Note_off_c, 0, 72, 64
7, 155368, Note_on_c, 0, 72, 64
7, 155368, Note_on_c, 0, 70, 64
7, 155380, Note_off_c, 0, 65, 64
7, 155380, Note_on_c, 0, 63, 64
7, 155412, Note_off_c, 0, 63, 64
7, 155412, Note_on_c, 0, 63, 64
7, 155548, Note_off_c, 0, 63, 64
7, 155548, Note_on_c, 0, 65, 64
7, 155568, Note_on_c, 0, 53, 64
7, 155580, Note_off_c, 0, 72, 64
7, 155580, Note_on_c, 0, 74, 64
7, 155584, Note_off_c, 0, 58, 64
7, 155584, Note_on_c, 0, 58, 64
7, 155592, Note_off_c, 0, 65, 64
7, 155596, Note_on_c, 0, 65, 64
7, 155604, Note_off_c, 0, 70, 64
7, 155604, Note_on_c, 0, 70, 64
7, 155616, Note_off_c, 0, 74, 64
7, 155616, Note_on_c, 0, 74, 64
7, 155848, Note_off_c, 0, 74, 64
7, 155848, Note_on_c, 0, 74, 64
7, 155860, Note_off_c, 0, 70, 64
7, 155860, Note_on_c, 0, 70, 64
7, 156068, Note_off_c, 0, 58, 64
7, 156068, Note_on_c, 0, 58, 64
7, 156084, Note_off_c, 0, 65, 64
7, 156084, Note_on_c, 0, 65, 64
7, 156092, Note_off_c, 0, 70, 64
7, 156092, Note_on_c, 0, 70, 64
7, 156108, Note_off_c, 0, 74, 64
7, 156108, Note_on_c, 0, 74, 64
7, 156216, Note_off_c, 0, 74, 64
7, 156216, Note_on_c, 0, 74, 64
7, 156312, Note_off_c, 0, 74, 64
7, 156316, Note_on_c, 0, 72, 64
7, 156332, Note_off_c, 0, 72, 64
7, 156332, Note_on_c, 0, 72, 64
7, 156352, Note_off_c, 0, 65, 64
7, 156352, Note_on_c, 0, 63, 64
7, 156500, Note_off_c, 0, 63, 64
7, 156500, Note_on_c, 0, 65, 64
7, 156508, Note_off_c, 0, 72, 64
7, 156508, Note_on_c, 0, 74, 64
7, 156552, Note_off_c, 0, 58, 64
7, 156552, Note_on_c, 0, 58, 64
7, 156564, Note_off_c, 0, 65, 64
7, 156564, Note_on_c, 0, 65, 64
7, 156580, Note_off_c, 0, 70, 64
7, 156580, Note_on_c, 0, 70, 64
7, 156612, Note_off_c, 0, 74, 64
7, 156612, Note_on_c, 0, 74, 64
7, 156812, Note_off_c, 0, 74, 64
7, 156812, Note_on_c, 0, 74, 64
7, 157016, Note_off_c, 0, 58, 64
7, 157020, Note_on_c, 0, 58, 64
7, 157024, Note_off_c, 0, 65, 64
7, 157028, Note_on_c, 0, 65, 64
7, 157032, Note_off_c, 0, 70, 64
7, 157032, Note_on_c, 0, 70, 64
7, 157048, Note_off_c, 0, 74, 64
7, 157048, Note_on_c, 0, 74, 64
7, 157064, Note_off_c, 0, 53, 64
7, 157272, Note_off_c, 0, 74, 64
7, 157276, Note_on_c, 0, 74, 64
7, 157280, Note_off_c, 0, 70, 64
7, 157280, Note_on_c, 0, 67, 64
7, 157280, Note_on_c, 0, 67, 64
7, 157281, Note_off_c, 0, 67, 64
7, 157320, Note_off_c, 0, 65, 64
7, 157320, Note_off_c, 0, 74, 64
7, 157320, Note_on_c, 0, 72, 64
7, 157320, Note_on_c, 0, 64, 64
7, 157364, Note_off_c, 0, 64, 64
7, 157364, Note_on_c, 0, 63, 64
7, 157504, Note_on_c, 0, 53, 64
7, 157516, Note_off_c, 0, 58, 64
7, 157516, Note_on_c, 0, 58, 64
7, 157536, Note_off_c, 0, 67, 64
7, 157536, Note_off_c, 0, 63, 64
7, 157536, Note_on_c, 0, 63, 64
7, 157536, Note_on_c, 0, 67, 64
7, 157552, Note_off_c, 0, 72, 64
7, 157552, Note_off_c, 0, 63, 64
7, 157552, Note_on_c, 0, 65, 64
7, 157552, Note_on_c, 0, 72, 64
7, 157564, Note_off_c, 0, 67, 64
7, 157564, Note_on_c, 0, 69, 64
7, 157596, Note_off_c, 0, 58, 64
7, 157596, Note_on_c, 0, 60, 64
7, 157756, Note_off_c, 0, 72, 64
7, 157756, Note_on_c, 0, 72, 64
7, 157768, Note_off_c, 0, 69, 64
7, 157768, Note_on_c, 0, 69, 64
7, 157776, Note_off_c, 0, 65, 64
7, 157776, Note_on_c, 0, 65, 64
7, 157792, Note_off_c, 0, 60, 64
7, 157796, Note_on_c, 0, 60, 64
7, 157980, Note_off_c, 0, 53, 64
7, 157984, Note_off_c, 0, 60, 64
7, 157984, Note_on_c, 0, 53, 64
7, 157984, Note_on_c, 0, 60, 64
7, 158008, Note_off_c, 0, 69, 64
7, 158008, Note_off_c, 0, 65, 64
7, 158008, Note_on_c, 0, 65, 64
7, 158008, Note_on_c, 0, 69, 64
7, 158028, Note_off_c, 0, 72, 64
7, 158028, Note_on_c, 0, 72, 64
7, 158228, Note_off_c, 0, 69, 64
7, 158228, Note_on_c, 0, 67, 64
7, 158248, Note_off_c, 0, 72, 64
7, 158248, Note_on_c, 0, 72, 64
7, 158256, Note_off_c, 0, 65, 64
7, 158256, Note_on_c, 0, 63, 64
7, 158260, Note_off_c, 0, 67, 64
7, 158260, Note_on_c, 0, 67, 64
7, 158276, Note_off_c, 0, 63, 64
7, 158276, Note_on_c, 0, 63, 64
7, 158292, Note_off_c, 0, 60, 64
7, 158292, Note_on_c, 0, 58, 64
7, 158293, Note_off_c, 0, 58, 64
7, 158300, Note_on_c, 0, 58, 64
7, 158384, Note_off_c, 0, 58, 64
7, 158384, Note_on_c, 0, 60, 64
7, 158400, Note_off_c, 0, 63, 64
7, 158400, Note_on_c, 0, 65, 64
7, 158432, Note_off_c, 0, 67, 64
7, 158432, Note_on_c, 0, 69, 64
7, 158444, Note_on_c, 0, 48, 64
7, 158460, Note_off_c, 0, 53, 64
7, 158460, Note_on_c, 0, 53, 64
7, 158468, Note_off_c, 0, 60, 64
7, 158468, Note_on_c, 0, 60, 64
7, 158484, Note_off_c, 0, 65, 64
7, 158484, Note_on_c, 0, 65, 64
7, 158496, Note_off_c, 0, 69, 64
7, 158496, Note_on_c, 0, 69, 64
7, 158724, Note_off_c, 0, 72, 64
7, 158724, Note_on_c, 0, 72, 64
7, 158732, Note_off_c, 0, 69, 64
7, 158732, Note_on_c, 0, 69, 64
7, 158740, Note_off_c, 0, 65, 64
7, 158740, Note_on_c, 0, 65, 64
7, 158756, Note_off_c, 0, 60, 64
7, 158764, Note_on_c, 0, 60, 64
7, 158924, Note_off_c, 0, 60, 64
7, 158924, Note_on_c, 0, 60, 64
7, 158944, Note_off_c, 0, 65, 64
7, 158944, Note_on_c, 0, 65, 64
7, 158952, Note_off_c, 0, 69, 64
7, 158960, Note_on_c, 0, 69, 64
7, 158972, Note_off_c, 0, 72, 64
7, 158972, Note_on_c, 0, 72, 64
7, 159036, Note_off_c, 0, 69, 64
7, 159036, Note_on_c, 0, 67, 64
7, 159068, Note_off_c, 0, 65, 64
7, 159072, Note_on_c, 0, 63, 64
7, 159104, Note_off_c, 0, 60, 64
7, 159104, Note_on_c, 0, 58, 64
7, 159184, Note_off_c, 0, 72, 64
7, 159184, Note_on_c, 0, 75, 64
7, 159192, Note_off_c, 0, 75, 64
7, 159192, Note_on_c, 0, 75, 64
7, 159212, Note_off_c, 0, 67, 64
7, 159212, Note_off_c, 0, 63, 64
7, 159212, Note_on_c, 0, 67, 64
7, 159212, Note_on_c, 0, 63, 64
7, 159316, Note_off_c, 0, 48, 64
7, 159320, Note_on_c, 0, 50, 64
7, 159344, Note_off_c, 0, 53, 64
7, 159352, Note_off_c, 0, 50, 64
7, 159352, Note_on_c, 0, 55, 64
7, 159352, Note_on_c, 0, 51, 64
7, 159400, Note_off_c, 0, 51, 64
7, 159404, Note_on_c, 0, 51, 64
7, 159412, Note_off_c, 0, 55, 64
7, 159412, Note_on_c, 0, 55, 64
7, 159424, Note_off_c, 0, 58, 64
7, 159424, Note_on_c, 0, 58, 64
7, 159436, Note_off_c, 0, 67, 64
7, 159436, Note_on_c, 0, 67, 64
7, 159444, Note_off_c, 0, 63, 64
7, 159444, Note_on_c, 0, 63, 64
7, 159452, Note_off_c, 0, 75, 64
7, 159452, Note_on_c, 0, 75, 64
7, 159668, Note_off_c, 0, 75, 64
7, 159668, Note_on_c, 0, 75, 64
7, 159680, Note_off_c, 0, 67, 64
7, 159680, Note_on_c, 0, 67, 64
7, 159880, Note_off_c, 0, 55, 64
7, 159880, Note_on_c, 0, 55, 64
7, 159900, Note_off_c, 0, 58, 64
7, 159900, Note_on_c, 0, 58, 64
7, 159916, Note_off_c, 0, 63, 64
7, 159916, Note_on_c, 0, 63, 64
7, 159920, Note_off_c, 0, 67, 64
7, 159920, Note_on_c, 0, 67, 64
7, 159948, Note_off_c, 0, 75, 64
7, 159948, Note_on_c, 0, 75, 64
7, 160132, Note_off_c, 0, 55, 64
7, 160132, Note_on_c, 0, 53, 64
7, 160152, Note_off_c, 0, 75, 64
7, 160152, Note_on_c, 0, 75, 64
7, 160160, Note_off_c, 0, 51, 64
7, 160160, Note_off_c, 0, 67, 64
7, 160160, Note_on_c, 0, 48, 64
7, 160160, Note_on_c, 0, 67, 64
7, 160176, Note_off_c, 0, 63, 64
7, 160176, Note_on_c, 0, 63, 64
7, 160256, Note_off_c, 0, 48, 64
7, 160256, Note_on_c, 0, 51, 64
7, 160272, Note_off_c, 0, 53, 64
7, 160272, Note_on_c, 0, 55, 64
7, 160384, Note_off_c, 0, 55, 64
7, 160388, Note_off_c, 0, 58, 64
7, 160388, Note_on_c, 0, 55, 64
7, 160396, Note_on_c, 0, 58, 64
7, 160412, Note_off_c, 0, 63, 64
7, 160412, Note_on_c, 0, 63, 64
7, 160416, Note_off_c, 0, 67, 64
7, 160424, Note_off_c, 0, 75, 64
7, 160424, Note_on_c, 0, 67, 64
7, 160424, Note_on_c, 0, 75, 64
7, 160436, Note_off_c, 0, 55, 64
7, 160436, Note_on_c, 0, 56, 64
7, 160524, Note_off_c, 0, 56, 64
7, 160524, Note_on_c, 0, 55, 64
7, 160660, Note_off_c, 0, 75, 64
7, 160660, Note_on_c, 0, 75, 64
7, 160676, Note_off_c, 0, 67, 64
7, 160676, Note_on_c, 0, 67, 64
7, 160856, Note_off_c, 0, 58, 64
7, 160856, Note_on_c, 0, 58, 64
7, 160872, Note_off_c, 0, 63, 64
7, 160872, Note_on_c, 0, 63, 64
7, 160888, Note_off_c, 0, 67, 64
7, 160888, Note_on_c, 0, 67, 64
7, 160896, Note_off_c, 0, 75, 64
7, 160896, Note_on_c, 0, 75, 64
7, 160956, Note_off_c, 0, 55, 64
7, 160964, Note_on_c, 0, 53, 64
7, 160992, Note_off_c, 0, 51, 64
7, 160992, Note_on_c, 0, 48, 64
7, 161120, Note_off_c, 0, 75, 64
7, 161120, Note_on_c, 0, 72, 64
7, 161136, Note_off_c, 0, 72, 64
7, 161136, Note_on_c, 0, 72, 64
7, 161148, Note_off_c, 0, 67, 64
7, 161148, Note_on_c, 0, 67, 64
7, 161160, Note_off_c, 0, 63, 64
7, 161160, Note_on_c, 0, 63, 64
7, 161280, Note_off_c, 0, 63, 64
7, 161280, Note_on_c, 0, 65, 64
7, 161324, Note_off_c, 0, 67, 64
7, 161324, Note_on_c, 0, 70, 64
7, 161344, Note_off_c, 0, 72, 64
7, 161344, Note_on_c, 0, 74, 64
7, 161352, Note_off_c, 0, 58, 64
7, 161352, Note_on_c, 0, 58, 64
7, 161368, Note_off_c, 0, 65, 64
7, 161368, Note_on_c, 0, 65, 64
7, 161372, Note_off_c, 0, 70, 64
7, 161372, Note_on_c, 0, 70, 64
7, 161380, Note_off_c, 0, 74, 64
7, 161380, Note_on_c, 0, 74, 64
7, 161484, Note_off_c, 0, 74, 64
7, 161484, Note_on_c, 0, 74, 64
7, 161620, Note_off_c, 0, 74, 64
7, 161620, Note_on_c, 0, 74, 64
7, 161632, Note_off_c, 0, 70, 64
7, 161640, Note_on_c, 0, 70, 64
7, 161840, Note_off_c, 0, 65, 64
7, 161840, Note_on_c, 0, 65, 64
7, 161848, Note_off_c, 0, 70, 64
7, 161848, Note_on_c, 0, 70, 64
7, 161868, Note_off_c, 0, 74, 64
7, 161868, Note_on_c, 0, 74, 64
7, 162076, Note_off_c, 0, 74, 64
7, 162080, Note_on_c, 0, 72, 64
7, 162096, Note_off_c, 0, 72, 64
7, 162096, Note_on_c, 0, 72, 64
7, 162108, Note_off_c, 0, 65, 64
7, 162108, Note_off_c, 0, 70, 64
7, 162108, Note_on_c, 0, 63, 64
7, 162108, Note_on_c, 0, 70, 64
7, 162260, Note_off_c, 0, 63, 64
7, 162260, Note_on_c, 0, 65, 64
7, 162284, Note_off_c, 0, 53, 64
7, 162284, Note_on_c, 0, 53, 64
7, 162292, Note_off_c, 0, 72, 64
7, 162292, Note_on_c, 0, 74, 64
7, 162300, Note_off_c, 0, 58, 64
7, 162304, Note_on_c, 0, 58, 64
7, 162320, Note_off_c, 0, 65, 64
7, 162320, Note_on_c, 0, 65, 64
7, 162328, Note_off_c, 0, 70, 64
7, 162332, Note_on_c, 0, 70, 64
7, 162336, Note_off_c, 0, 74, 64
7, 162336, Note_on_c, 0, 74, 64
7, 162496, Note_off_c, 0, 48, 64
7, 162580, Note_off_c, 0, 74, 64
7, 162580, Note_on_c, 0, 74, 64
7, 162788, Note_off_c, 0, 65, 64
7, 162788, Note_on_c, 0, 65, 64
7, 162796, Note_off_c, 0, 70, 64
7, 162796, Note_on_c, 0, 70, 64
7, 162804, Note_off_c, 0, 74, 64
7, 162804, Note_on_c, 0, 74, 64
7, 162996, Note_off_c, 0, 74, 64
7, 163000, Note_on_c, 0, 72, 64
7, 163020, Note_off_c, 0, 72, 64
7, 163020, Note_on_c, 0, 72, 64
7, 163036, Note_off_c, 0, 70, 64
7, 163036, Note_on_c, 0, 70, 64
7, 163052, Note_off_c, 0, 65, 64
7, 163052, Note_on_c, 0, 63, 64
7, 163168, Note_off_c, 0, 63, 64
7, 163172, Note_on_c, 0, 64, 64
7, 163188, Note_off_c, 0, 72, 64
7, 163188, Note_on_c, 0, 74, 64
7, 163196, Note_off_c, 0, 64, 64
7, 163212, Note_on_c, 0, 65, 64
7, 163252, Note_off_c, 0, 58, 64
7, 163256, Note_on_c, 0, 58, 64
7, 163276, Note_off_c, 0, 70, 64
7, 163276, Note_on_c, 0, 70, 64
7, 163284, Note_off_c, 0, 74, 64
7, 163292, Note_off_c, 0, 65, 64
7, 163292, Note_on_c, 0, 74, 64
7, 163292, Note_on_c, 0, 65, 64
7, 163512, Note_off_c, 0, 74, 64
7, 163512, Note_on_c, 0, 74, 64
7, 163740, Note_off_c, 0, 65, 64
7, 163740, Note_on_c, 0, 65, 64
7, 163748, Note_off_c, 0, 70, 64
7, 163748, Note_on_c, 0, 70, 64
7, 163764, Note_off_c, 0, 74, 64
7, 163764, Note_on_c, 0, 74, 64
7, 163792, Note_off_c, 0, 53, 64
7, 163956, Note_off_c, 0, 65, 64
7, 163960, Note_on_c, 0, 64, 64
7, 163968, Note_off_c, 0, 74, 64
7, 163968, Note_on_c, 0, 72, 64
7, 163976, Note_off_c, 0, 72, 64
7, 163980, Note_on_c, 0, 72, 64
7, 163988, Note_off_c, 0, 70, 64
7, 163988, Note_off_c, 0, 64, 64
7, 163988, Note_on_c, 0, 63, 64
7, 163988, Note_on_c, 0, 70, 64
7, 164000, Note_off_c, 0, 63, 64
7, 164000, Note_on_c, 0, 63, 64
7, 164140, Note_off_c, 0, 63, 64
7, 164140, Note_on_c, 0, 65, 64
7, 164148, Note_off_c, 0, 72, 64
7, 164152, Note_on_c, 0, 74, 64
7, 164212, Note_off_c, 0, 65, 64
7, 164216, Note_on_c, 0, 65, 64
7, 164220, Note_off_c, 0, 70, 64
7, 164220, Note_on_c, 0, 70, 64
7, 164252, Note_off_c, 0, 74, 64
7, 164252, Note_on_c, 0, 74, 64
7, 164464, Note_off_c, 0, 74, 64
7, 164468, Note_on_c, 0, 74, 64
7, 164476, Note_off_c, 0, 70, 64
7, 164484, Note_on_c, 0, 70, 64
7, 164672, Note_off_c, 0, 58, 64
7, 164676, Note_off_c, 0, 65, 64
7, 164676, Note_on_c, 0, 58, 64
7, 164676, Note_on_c, 0, 65, 64
7, 164692, Note_off_c, 0, 70, 64
7, 164692, Note_on_c, 0, 70, 64
7, 164876, Note_off_c, 0, 70, 64
7, 164876, Note_on_c, 0, 67, 64
7, 164904, Note_off_c, 0, 74, 64
7, 164904, Note_on_c, 0, 72, 64
7, 164940, Note_off_c, 0, 72, 64
7, 164940, Note_on_c, 0, 72, 64
7, 164948, Note_off_c, 0, 67, 64
7, 164948, Note_on_c, 0, 67, 64
7, 164956, Note_off_c, 0, 65, 64
7, 164956, Note_on_c, 0, 65, 64
7, 164996, Note_off_c, 0, 65, 64
7, 164996, Note_on_c, 0, 63, 64
7, 165120, Note_off_c, 0, 63, 64
7, 165176, Note_off_c, 0, 67, 64
7, 165212, Note_on_c, 0, 55, 64
7, 165220, Note_off_c, 0, 72, 64
7, 165236, Note_on_c, 0, 63, 64
7, 165236, Note_on_c, 0, 58, 64
7, 165244, Note_on_c, 0, 70, 64
7, 165464, Note_on_c, 0, 75, 64
7, 165472, Note_off_c, 0, 70, 64
7, 165472, Note_on_c, 0, 70, 64
7, 165632, Note_off_c, 0, 58, 64
7, 165644, Note_off_c, 0, 70, 64
7, 165644, Note_on_c, 0, 70, 64
7, 166116, Note_off_c, 0, 63, 64
7, 166116, Note_on_c, 0, 63, 64
7, 166124, Note_off_c, 0, 70, 64
7, 166124, Note_on_c, 0, 70, 64
7, 166136, Note_off_c, 0, 75, 64
7, 166136, Note_on_c, 0, 75, 64
7, 166400, Note_off_c, 0, 70, 64
7, 166400, Note_off_c, 0, 75, 64
7, 166400, Note_on_c, 0, 75, 64
7, 166400, Note_on_c, 0, 70, 64
7, 166584, Note_off_c, 0, 55, 64
7, 166584, Note_on_c, 0, 55, 64
7, 166620, Note_off_c, 0, 63, 64
7, 166620, Note_on_c, 0, 63, 64
7, 166624, Note_off_c, 0, 70, 64
7, 166628, Note_on_c, 0, 70, 64
7, 166740, Note_off_c, 0, 58, 64
7, 166912, Note_off_c, 0, 75, 64
7, 166912, Note_on_c, 0, 75, 64
7, 166916, Note_off_c, 0, 70, 64
7, 166916, Note_on_c, 0, 70, 64
7, 167104, Note_off_c, 0, 55, 64
7, 167108, Note_on_c, 0, 55, 64
7, 167112, Note_on_c, 0, 58, 64
7, 167120, Note_off_c, 0, 63, 64
7, 167120, Note_on_c, 0, 63, 64
7, 167132, Note_off_c, 0, 70, 64
7, 167132, Note_on_c, 0, 70, 64
7, 167152, Note_off_c, 0, 75, 64
7, 167152, Note_on_c, 0, 75, 64
7, 167388, Note_off_c, 0, 75, 64
7, 167388, Note_on_c, 0, 75, 64
7, 167572, Note_off_c, 0, 63, 64
7, 167572, Note_on_c, 0, 63, 64
7, 167580, Note_off_c, 0, 70, 64
7, 167580, Note_on_c, 0, 70, 64
7, 167812, Note_off_c, 0, 75, 64
7, 167812, Note_on_c, 0, 75, 64
7, 167836, Note_off_c, 0, 70, 64
7, 167836, Note_on_c, 0, 70, 64
7, 168068, Note_off_c, 0, 58, 64
7, 168068, Note_on_c, 0, 58, 64
7, 168084, Note_off_c, 0, 63, 64
7, 168092, Note_off_c, 0, 70, 64
7, 168092, Note_on_c, 0, 63, 64
7, 168092, Note_on_c, 0, 70, 64
7, 168100, Note_off_c, 0, 75, 64
7, 168104, Note_on_c, 0, 75, 64
7, 168356, Note_off_c, 0, 75, 64
7, 168356, Note_on_c, 0, 75, 64
7, 168388, Note_off_c, 0, 70, 64
7, 168388, Note_on_c, 0, 70, 64
7, 168408, Note_off_c, 0, 75, 64
7, 168412, Note_on_c, 0, 72, 64
7, 168456, Note_off_c, 0, 72, 64
7, 168456, Note_on_c, 0, 75, 64
7, 168552, Note_off_c, 0, 58, 64
7, 168552, Note_on_c, 0, 58, 64
7, 168560, Note_off_c, 0, 63, 64
7, 168560, Note_on_c, 0, 63, 64
7, 168572, Note_off_c, 0, 70, 64
7, 168572, Note_on_c, 0, 70, 64
7, 168580, Note_off_c, 0, 75, 64
7, 168580, Note_on_c, 0, 75, 64
7, 168596, Note_off_c, 0, 55, 64
7, 168836, Note_off_c, 0, 75, 64
7, 168836, Note_on_c, 0, 72, 64
7, 168864, Note_off_c, 0, 72, 64
7, 168872, Note_on_c, 0, 75, 64
7, 168876, Note_off_c, 0, 70, 64
7, 168880, Note_on_c, 0, 70, 64
7, 168960, Note_off_c, 0, 63, 64
7, 168960, Note_on_c, 0, 65, 64
7, 169008, Note_off_c, 0, 75, 64
7, 169008, Note_on_c, 0, 72, 64
7, 169036, Note_off_c, 0, 58, 64
7, 169036, Note_off_c, 0, 72, 64
7, 169036, Note_on_c, 0, 74, 64
7, 169036, Note_on_c, 0, 58, 64
7, 169048, Note_off_c, 0, 65, 64
7, 169052, Note_on_c, 0, 65, 64
7, 169060, Note_off_c, 0, 70, 64
7, 169060, Note_off_c, 0, 74, 64
7, 169060, Note_on_c, 0, 74, 64
7, 169060, Note_on_c, 0, 70, 64
7, 169316, Note_off_c, 0, 74, 64
7, 169316, Note_on_c, 0, 74, 64
7, 169520, Note_off_c, 0, 58, 64
7, 169528, Note_on_c, 0, 58, 64
7, 169536, Note_off_c, 0, 65, 64
7, 169540, Note_on_c, 0, 65, 64
7, 169548, Note_off_c, 0, 70, 64
7, 169548, Note_on_c, 0, 70, 64
7, 169560, Note_off_c, 0, 74, 64
7, 169560, Note_on_c, 0, 74, 64
7, 169804, Note_off_c, 0, 74, 64
7, 169804, Note_on_c, 0, 74, 64
7, 169812, Note_off_c, 0, 74, 64
7, 169812, Note_on_c, 0, 72, 64
7, 169820, Note_off_c, 0, 70, 64
7, 169820, Note_on_c, 0, 70, 64
7, 169844, Note_off_c, 0, 65, 64
7, 169844, Note_on_c, 0, 63, 64
7, 169972, Note_off_c, 0, 72, 64
7, 169972, Note_on_c, 0, 74, 64
7, 169980, Note_off_c, 0, 63, 64
7, 169980, Note_on_c, 0, 65, 64
7, 169984, Note_off_c, 0, 58, 64
7, 169984, Note_on_c, 0, 58, 64
7, 169992, Note_off_c, 0, 65, 64
7, 169992, Note_on_c, 0, 65, 64
7, 170004, Note_off_c, 0, 70, 64
7, 170004, Note_on_c, 0, 70, 64
7, 170016, Note_off_c, 0, 74, 64
7, 170016, Note_on_c, 0, 74, 64
7, 170248, Note_off_c, 0, 74, 64
7, 170248, Note_on_c, 0, 74, 64
7, 170456, Note_off_c, 0, 58, 64
7, 170456, Note_on_c, 0, 58, 64
7, 170464, Note_off_c, 0, 65, 64
7, 170464, Note_on_c, 0, 65, 64
7, 170472, Note_off_c, 0, 70, 64
7, 170472, Note_on_c, 0, 70, 64
7, 170476, Note_off_c, 0, 74, 64
7, 170476, Note_on_c, 0, 74, 64
7, 170712, Note_off_c, 0, 74, 64
7, 170712, Note_on_c, 0, 74, 64
7, 170736, Note_off_c, 0, 74, 64
7, 170736, Note_on_c, 0, 72, 64
7, 170748, Note_off_c, 0, 65, 64
7, 170752, Note_on_c, 0, 63, 64
7, 170900, Note_off_c, 0, 63, 64
7, 170900, Note_on_c, 0, 65, 64
7, 170916, Note_off_c, 0, 58, 64
7, 170916, Note_off_c, 0, 72, 64
7, 170916, Note_on_c, 0, 74, 64
7, 170916, Note_on_c, 0, 58, 64
7, 170928, Note_off_c, 0, 65, 64
7, 170936, Note_off_c, 0, 70, 64
7, 170936, Note_on_c, 0, 65, 64
7, 170936, Note_on_c, 0, 70, 64
7, 170944, Note_off_c, 0, 74, 64
7, 170944, Note_on_c, 0, 74, 64
7, 171256, Note_off_c, 0, 74, 64
7, 171256, Note_on_c, 0, 74, 64
7, 171360, Note_on_c, 0, 53, 64
7, 171380, Note_off_c, 0, 58, 64
7, 171380, Note_off_c, 0, 65, 64
7, 171380, Note_on_c, 0, 58, 64
7, 171380, Note_on_c, 0, 65, 64
7, 171404, Note_off_c, 0, 70, 64
7, 171404, Note_off_c, 0, 74, 64
7, 171404, Note_on_c, 0, 74, 64
7, 171404, Note_on_c, 0, 70, 64
7, 171632, Note_off_c, 0, 74, 64
7, 171632, Note_on_c, 0, 72, 64
7, 171640, Note_off_c, 0, 72, 64
7, 171640, Note_on_c, 0, 72, 64
7, 171664, Note_off_c, 0, 65, 64
7, 171664, Note_on_c, 0, 63, 64
7, 171784, Note_off_c, 0, 72, 64
7, 171784, Note_off_c, 0, 63, 64
7, 171784, Note_on_c, 0, 74, 64
7, 171784, Note_on_c, 0, 65, 64
7, 171840, Note_off_c, 0, 65, 64
7, 171840, Note_off_c, 0, 58, 64
7, 171840, Note_on_c, 0, 58, 64
7, 171840, Note_on_c, 0, 65, 64
7, 171868, Note_off_c, 0, 70, 64
7, 171868, Note_on_c, 0, 70, 64
7, 171880, Note_off_c, 0, 74, 64
7, 171880, Note_on_c, 0, 74, 64
7, 172152, Note_off_c, 0, 74, 64
7, 172156, Note_on_c, 0, 74, 64
7, 172160, Note_off_c, 0, 70, 64
7, 172160, Note_on_c, 0, 70, 64
7, 172168, Note_off_c, 0, 65, 64
7, 172168, Note_on_c, 0, 65, 64
7, 172204, Note_off_c, 0, 58, 64
7, 172204, Note_on_c, 0, 58, 64
7, 172348, Note_off_c, 0, 65, 64
7, 172348, Note_on_c, 0, 65, 64
7, 172364, Note_off_c, 0, 70, 64
7, 172364, Note_on_c, 0, 70, 64
7, 172380, Note_off_c, 0, 74, 64
7, 172380, Note_on_c, 0, 74, 64
7, 172520, Note_off_c, 0, 70, 64
7, 172520, Note_on_c, 0, 69, 64
7, 172544, Note_off_c, 0, 74, 64
7, 172544, Note_on_c, 0, 72, 64
7, 172572, Note_off_c, 0, 69, 64
7, 172572, Note_on_c, 0, 67, 64
7, 172608, Note_off_c, 0, 65, 64
7, 172608, Note_on_c, 0, 63, 64
7, 172792, Note_off_c, 0, 63, 64
7, 172792, Note_on_c, 0, 65, 64
7, 172796, Note_off_c, 0, 67, 64
7, 172796, Note_on_c, 0, 69, 64
7, 172800, Note_off_c, 0, 58, 64
7, 172800, Note_on_c, 0, 60, 64
7, 172868, Note_off_c, 0, 53, 64
7, 172876, Note_on_c, 0, 53, 64
7, 172904, Note_off_c, 0, 65, 64
7, 172904, Note_off_c, 0, 60, 64
7, 172904, Note_on_c, 0, 65, 64
7, 172904, Note_on_c, 0, 60, 64
7, 172916, Note_off_c, 0, 69, 64
7, 172916, Note_on_c, 0, 69, 64
7, 172924, Note_off_c, 0, 72, 64
7, 172924, Note_on_c, 0, 72, 64
7, 173116, Note_off_c, 0, 72, 64
7, 173116, Note_on_c, 0, 72, 64
7, 173132, Note_off_c, 0, 69, 64
7, 173140, Note_on_c, 0, 69, 64
7, 173312, Note_off_c, 0, 53, 64
7, 173312, Note_on_c, 0, 53, 64
7, 173324, Note_off_c, 0, 60, 64
7, 173324, Note_on_c, 0, 60, 64
7, 173332, Note_off_c, 0, 65, 64
7, 173332, Note_on_c, 0, 65, 64
7, 173344, Note_off_c, 0, 69, 64
7, 173344, Note_on_c, 0, 69, 64
7, 173596, Note_off_c, 0, 72, 64
7, 173612, Note_on_c, 0, 72, 64
7, 173616, Note_off_c, 0, 69, 64
7, 173616, Note_on_c, 0, 69, 64
7, 173632, Note_off_c, 0, 60, 64
7, 173632, Note_off_c, 0, 65, 64
7, 173632, Note_on_c, 0, 60, 64
7, 173632, Note_on_c, 0, 65, 64
7, 173800, Note_off_c, 0, 60, 64
7, 173800, Note_on_c, 0, 60, 64
7, 173816, Note_off_c, 0, 65, 64
7, 173816, Note_on_c, 0, 65, 64
7, 173824, Note_off_c, 0, 69, 64
7, 173824, Note_on_c, 0, 69, 64
7, 173828, Note_off_c, 0, 72, 64
7, 173828, Note_on_c, 0, 72, 64
7, 174080, Note_off_c, 0, 69, 64
7, 174080, Note_off_c, 0, 72, 64
7, 174080, Note_on_c, 0, 72, 64
7, 174080, Note_on_c, 0, 69, 64
7, 174100, Note_off_c, 0, 65, 64
7, 174100, Note_on_c, 0, 65, 64
7, 174112, Note_off_c, 0, 60, 64
7, 174112, Note_on_c, 0, 60, 64
7, 174300, Note_off_c, 0, 53, 64
7, 174300, Note_on_c, 0, 53, 64
7, 174312, Note_off_c, 0, 60, 64
7, 174312, Note_on_c, 0, 60, 64
7, 174320, Note_off_c, 0, 65, 64
7, 174320, Note_on_c, 0, 65, 64
7, 174328, Note_off_c, 0, 69, 64
7, 174328, Note_on_c, 0, 69, 64
7, 174340, Note_off_c, 0, 69, 64
7, 174340, Note_on_c, 0, 67, 64
7, 174352, Note_off_c, 0, 65, 64
7, 174356, Note_on_c, 0, 63, 64
7, 174376, Note_off_c, 0, 60, 64
7, 174376, Note_on_c, 0, 58, 64
7, 174560, Note_off_c, 0, 67, 64
7, 174560, Note_on_c, 0, 67, 64
7, 174576, Note_off_c, 0, 63, 64
7, 174576, Note_on_c, 0, 63, 64
7, 174580, Note_off_c, 0, 58, 64
7, 174580, Note_on_c, 0, 58, 64
7, 174592, Note_off_c, 0, 53, 64
7, 174596, Note_on_c, 0, 55, 64
7, 174596, Note_on_c, 0, 55, 64
7, 174597, Note_off_c, 0, 55, 64
7, 174600, Note_off_c, 0, 72, 64
7, 174600, Note_on_c, 0, 75, 64
7, 174748, Note_off_c, 0, 55, 64
7, 174752, Note_on_c, 0, 55, 64
7, 174768, Note_off_c, 0, 67, 64
7, 174768, Note_off_c, 0, 63, 64
7, 174768, Note_on_c, 0, 67, 64
7, 174768, Note_on_c, 0, 63, 64
7, 174784, Note_off_c, 0, 58, 64
7, 174784, Note_off_c, 0, 75, 64
7, 174784, Note_on_c, 0, 75, 64
7, 174784, Note_on_c, 0, 58, 64
7, 175020, Note_off_c, 0, 75, 64
7, 175020, Note_on_c, 0, 75, 64
7, 175036, Note_off_c, 0, 67, 64
7, 175044, Note_on_c, 0, 67, 64
7, 175052, Note_off_c, 0, 58, 64
7, 175056, Note_on_c, 0, 58, 64
7, 175232, Note_off_c, 0, 55, 64
7, 175232, Note_on_c, 0, 55, 64
7, 175236, Note_off_c, 0, 58, 64
7, 175236, Note_on_c, 0, 58, 64
7, 175256, Note_off_c, 0, 63, 64
7, 175256, Note_on_c, 0, 63, 64
7, 175260, Note_off_c, 0, 75, 64
7, 175260, Note_off_c, 0, 67, 64
7, 175260, Note_on_c, 0, 75, 64
7, 175260, Note_on_c, 0, 67, 64
7, 175500, Note_off_c, 0, 75, 64
7, 175504, Note_off_c, 0, 67, 64
7, 175504, Note_on_c, 0, 75, 64
7, 175504, Note_on_c, 0, 67, 64
7, 175708, Note_off_c, 0, 55, 64
7, 175708, Note_on_c, 0, 55, 64
7, 175720, Note_off_c, 0, 58, 64
7, 175728, Note_off_c, 0, 63, 64
7, 175728, Note_on_c, 0, 58, 64
7, 175728, Note_on_c, 0, 63, 64
7, 175736, Note_off_c, 0, 67, 64
7, 175736, Note_on_c, 0, 67, 64
7, 175748, Note_off_c, 0, 75, 64
7, 175748, Note_on_c, 0, 75, 64
7, 176008, Note_off_c, 0, 75, 64
7, 176012, Note_on_c, 0, 75, 64
7, 176032, Note_off_c, 0, 67, 64
7, 176032, Note_on_c, 0, 67, 64
7, 176160, Note_off_c, 0, 55, 64
7, 176160, Note_on_c, 0, 53, 64
7, 176208, Note_off_c, 0, 58, 64
7, 176208, Note_on_c, 0, 58, 64
7, 176220, Note_off_c, 0, 63, 64
7, 176220, Note_off_c, 0, 75, 64
7, 176220, Note_on_c, 0, 72, 64
7, 176220, Note_on_c, 0, 63, 64
7, 176228, Note_off_c, 0, 67, 64
7, 176232, Note_on_c, 0, 67, 64
7, 176248, Note_off_c, 0, 72, 64
7, 176248, Note_on_c, 0, 72, 64
7, 176468, Note_off_c, 0, 67, 64
7, 176472, Note_on_c, 0, 67, 64
7, 176576, Note_off_c, 0, 63, 64
7, 176576, Note_on_c, 0, 65, 64
7, 176600, Note_off_c, 0, 72, 64
7, 176600, Note_off_c, 0, 67, 64
7, 176600, Note_on_c, 0, 74, 64
7, 176600, Note_on_c, 0, 70, 64
7, 176640, Note_off_c, 0, 53, 64
7, 176640, Note_off_c, 0, 58, 64
7, 176640, Note_on_c, 0, 53, 64
7, 176640, Note_on_c, 0, 58, 64
7, 176660, Note_off_c, 0, 65, 64
7, 176660, Note_on_c, 0, 65, 64
7, 176672, Note_off_c, 0, 70, 64
7, 176672, Note_on_c, 0, 70, 64
7, 176684, Note_off_c, 0, 74, 64
7, 176684, Note_on_c, 0, 74, 64
7, 176940, Note_off_c, 0, 74, 64
7, 176940, Note_on_c, 0, 74, 64
7, 176956, Note_off_c, 0, 70, 64
7, 176956, Note_on_c, 0, 70, 64
7, 176972, Note_off_c, 0, 58, 64
7, 176972, Note_on_c, 0, 58, 64
7, 177120, Note_off_c, 0, 53, 64
7, 177120, Note_off_c, 0, 65, 64
7, 177120, Note_off_c, 0, 58, 64
7, 177120, Note_on_c, 0, 53, 64
7, 177120, Note_on_c, 0, 58, 64
7, 177120, Note_on_c, 0, 65, 64
7, 177128, Note_off_c, 0, 70, 64
7, 177128, Note_on_c, 0, 70, 64
7, 177160, Note_off_c, 0, 74, 64
7, 177160, Note_on_c, 0, 74, 64
7, 177420, Note_off_c, 0, 74, 64
7, 177420, Note_on_c, 0, 74, 64
7, 177432, Note_off_c, 0, 70, 64
7, 177432, Note_on_c, 0, 70, 64
7, 177440, Note_off_c, 0, 65, 64
7, 177440, Note_off_c, 0, 74, 64
7, 177440, Note_on_c, 0, 72, 64
7, 177440, Note_on_c, 0, 63, 64
7, 177648, Note_off_c, 0, 63, 64
7, 177648, Note_off_c, 0, 58, 64
7, 177648, Note_on_c, 0, 65, 64
7, 177648, Note_on_c, 0, 58, 64
7, 177656, Note_off_c, 0, 65, 64
7, 177664, Note_on_c, 0, 65, 64
7, 177668, Note_off_c, 0, 70, 64
7, 177668, Note_off_c, 0, 72, 64
7, 177668, Note_on_c, 0, 74, 64
7, 177668, Note_on_c, 0, 70, 64
7, 177676, Note_off_c, 0, 74, 64
7, 177676, Note_on_c, 0, 74, 64
7, 177912, Note_off_c, 0, 74, 64
7, 177912, Note_on_c, 0, 74, 64
7, 177932, Note_off_c, 0, 70, 64
7, 177932, Note_on_c, 0, 70, 64
7, 178112, Note_off_c, 0, 53, 64
7, 178112, Note_on_c, 0, 53, 64
7, 178116, Note_off_c, 0, 58, 64
7, 178116, Note_on_c, 0, 58, 64
7, 178124, Note_off_c, 0, 65, 64
7, 178124, Note_on_c, 0, 65, 64
7, 178132, Note_off_c, 0, 74, 64
7, 178132, Note_off_c, 0, 70, 64
7, 178132, Note_on_c, 0, 74, 64
7, 178132, Note_on_c, 0, 70, 64
7, 178380, Note_off_c, 0, 74, 64
7, 178380, Note_on_c, 0, 72, 64
7, 178388, Note_off_c, 0, 72, 64
7, 178388, Note_on_c, 0, 72, 64
7, 178396, Note_off_c, 0, 70, 64
7, 178396, Note_on_c, 0, 70, 64
7, 178400, Note_off_c, 0, 65, 64
7, 178400, Note_on_c, 0, 63, 64
7, 178560, Note_off_c, 0, 72, 64
7, 178560, Note_off_c, 0, 63, 64
7, 178560, Note_on_c, 0, 65, 64
7, 178560, Note_on_c, 0, 74, 64
7, 178580, Note_off_c, 0, 58, 64
7, 178580, Note_on_c, 0, 58, 64
7, 178592, Note_off_c, 0, 70, 64
7, 178592, Note_off_c, 0, 65, 64
7, 178592, Note_on_c, 0, 70, 64
7, 178592, Note_on_c, 0, 65, 64
7, 178608, Note_off_c, 0, 74, 64
7, 178608, Note_on_c, 0, 74, 64
7, 178860, Note_off_c, 0, 74, 64
7, 178860, Note_on_c, 0, 74, 64
7, 179040, Note_off_c, 0, 53, 64
7, 179040, Note_off_c, 0, 58, 64
7, 179040, Note_on_c, 0, 53, 64
7, 179040, Note_on_c, 0, 58, 64
7, 179048, Note_off_c, 0, 65, 64
7, 179048, Note_on_c, 0, 65, 64
7, 179060, Note_off_c, 0, 70, 64
7, 179060, Note_on_c, 0, 70, 64
7, 179084, Note_off_c, 0, 74, 64
7, 179084, Note_on_c, 0, 74, 64
7, 179324, Note_off_c, 0, 74, 64
7, 179324, Note_on_c, 0, 72, 64
7, 179344, Note_off_c, 0, 65, 64
7, 179344, Note_off_c, 0, 72, 64
7, 179344, Note_on_c, 0, 63, 64
7, 179344, Note_on_c, 0, 72, 64
7, 179460, Note_off_c, 0, 63, 64
7, 179460, Note_on_c, 0, 65, 64
7, 179476, Note_off_c, 0, 72, 64
7, 179476, Note_on_c, 0, 74, 64
7, 179552, Note_off_c, 0, 58, 64
7, 179552, Note_off_c, 0, 65, 64
7, 179552, Note_on_c, 0, 58, 64
7, 179552, Note_on_c, 0, 65, 64
7, 179568, Note_off_c, 0, 70, 64
7, 179568, Note_on_c, 0, 70, 64
7, 179584, Note_off_c, 0, 74, 64
7, 179584, Note_on_c, 0, 74, 64
7, 179836, Note_off_c, 0, 74, 64
7, 179836, Note_on_c, 0, 74, 64
7, 179852, Note_off_c, 0, 70, 64
7, 179856, Note_off_c, 0, 65, 64
7, 179856, Note_on_c, 0, 70, 64
7, 179856, Note_on_c, 0, 65, 64
7, 179872, Note_off_c, 0, 58, 64
7, 179876, Note_on_c, 0, 58, 64
7, 180060, Note_off_c, 0, 58, 64
7, 180060, Note_on_c, 0, 58, 64
7, 180068, Note_off_c, 0, 65, 64
7, 180068, Note_on_c, 0, 65, 64
7, 180080, Note_off_c, 0, 70, 64
7, 180080, Note_on_c, 0, 70, 64
7, 180096, Note_off_c, 0, 74, 64
7, 180096, Note_on_c, 0, 74, 64
7, 180144, Note_off_c, 0, 74, 64
7, 180144, Note_on_c, 0, 72, 64
7, 180228, Note_off_c, 0, 70, 64
7, 180228, Note_on_c, 0, 67, 64
7, 180276, Note_off_c, 0, 65, 64
7, 180276, Note_on_c, 0, 64, 64
7, 180316, Note_off_c, 0, 64, 64
7, 180316, Note_on_c, 0, 63, 64
7, 180320, Note_off_c, 0, 72, 64
7, 180320, Note_on_c, 0, 72, 64
7, 180340, Note_off_c, 0, 67, 64
7, 180340, Note_off_c, 0, 63, 64
7, 180340, Note_on_c, 0, 67, 64
7, 180340, Note_on_c, 0, 63, 64
7, 180360, Note_off_c, 0, 58, 64
7, 180360, Note_on_c, 0, 58, 64
7, 180408, Note_off_c, 0, 72, 64
7, 180408, Note_on_c, 0, 75, 64
7, 180516, Note_off_c, 0, 53, 64
7, 180516, Note_on_c, 0, 55, 64
7, 180524, Note_on_c, 0, 51, 64
7, 180532, Note_off_c, 0, 55, 64
7, 180532, Note_on_c, 0, 55, 64
7, 180540, Note_off_c, 0, 58, 64
7, 180540, Note_on_c, 0, 58, 64
7, 180556, Note_off_c, 0, 67, 64
7, 180556, Note_off_c, 0, 63, 64
7, 180556, Note_off_c, 0, 75, 64
7, 180556, Note_on_c, 0, 63, 64
7, 180556, Note_on_c, 0, 67, 64
7, 180556, Note_on_c, 0, 75, 64
7, 180808, Note_off_c, 0, 75, 64
7, 180808, Note_on_c, 0, 75, 64
7, 180828, Note_off_c, 0, 67, 64
7, 180828, Note_on_c, 0, 67, 64
7, 180848, Note_off_c, 0, 63, 64
7, 180848, Note_on_c, 0, 63, 64
7, 180864, Note_off_c, 0, 58, 64
7, 180864, Note_on_c, 0, 58, 64
7, 180868, Note_off_c, 0, 55, 64
7, 180868, Note_on_c, 0, 55, 64
7, 181032, Note_off_c, 0, 55, 64
7, 181036, Note_off_c, 0, 58, 64
7, 181036, Note_on_c, 0, 55, 64
7, 181036, Note_on_c, 0, 58, 64
7, 181052, Note_off_c, 0, 63, 64
7, 181052, Note_on_c, 0, 63, 64
7, 181068, Note_off_c, 0, 67, 64
7, 181068, Note_on_c, 0, 67, 64
7, 181084, Note_off_c, 0, 75, 64
7, 181084, Note_on_c, 0, 75, 64
7, 181300, Note_off_c, 0, 63, 64
7, 181300, Note_on_c, 0, 63, 64
7, 181304, Note_off_c, 0, 58, 64
7, 181304, Note_on_c, 0, 58, 64
7, 181328, Note_off_c, 0, 55, 64
7, 181328, Note_on_c, 0, 55, 64
7, 181488, Note_off_c, 0, 55, 64
7, 181488, Note_on_c, 0, 55, 64
7, 181504, Note_off_c, 0, 58, 64
7, 181504, Note_on_c, 0, 58, 64
7, 181524, Note_off_c, 0, 63, 64
7, 181524, Note_on_c, 0, 63, 64
7, 181532, Note_off_c, 0, 67, 64
7, 181532, Note_on_c, 0, 67, 64
7, 181536, Note_off_c, 0, 75, 64
7, 181536, Note_on_c, 0, 75, 64
7, 181800, Note_off_c, 0, 67, 64
7, 181800, Note_off_c, 0, 75, 64
7, 181800, Note_on_c, 0, 75, 64
7, 181800, Note_on_c, 0, 67, 64
7, 181956, Note_off_c, 0, 55, 64
7, 181956, Note_on_c, 0, 55, 64
7, 181984, Note_off_c, 0, 58, 64
7, 181984, Note_on_c, 0, 58, 64
7, 181992, Note_off_c, 0, 63, 64
7, 181992, Note_on_c, 0, 63, 64
7, 181996, Note_off_c, 0, 67, 64
7, 181996, Note_on_c, 0, 67, 64
7, 182020, Note_off_c, 0, 75, 64
7, 182020, Note_on_c, 0, 75, 64
7, 182024, Note_off_c, 0, 51, 64
7, 182224, Note_off_c, 0, 67, 64
7, 182228, Note_off_c, 0, 63, 64
7, 182228, Note_on_c, 0, 67, 64
7, 182228, Note_on_c, 0, 63, 64
7, 182240, Note_off_c, 0, 58, 64
7, 182240, Note_on_c, 0, 58, 64
7, 182260, Note_off_c, 0, 55, 64
7, 182260, Note_on_c, 0, 55, 64
7, 182416, Note_off_c, 0, 55, 64
7, 182416, Note_on_c, 0, 55, 64
7, 182420, Note_off_c, 0, 58, 64
7, 182420, Note_on_c, 0, 58, 64
7, 182444, Note_off_c, 0, 63, 64
7, 182444, Note_on_c, 0, 63, 64
7, 182452, Note_off_c, 0, 67, 64
7, 182452, Note_on_c, 0, 67, 64
7, 182460, Note_off_c, 0, 75, 64
7, 182460, Note_on_c, 0, 75, 64
7, 182736, Note_off_c, 0, 75, 64
7, 182736, Note_on_c, 0, 75, 64
7, 182748, Note_off_c, 0, 67, 64
7, 182748, Note_on_c, 0, 67, 64
7, 182756, Note_off_c, 0, 63, 64
7, 182756, Note_on_c, 0, 63, 64
7, 182776, Note_off_c, 0, 58, 64
7, 182776, Note_on_c, 0, 58, 64
7, 182956, Note_off_c, 0, 55, 64
7, 182956, Note_on_c, 0, 55, 64
7, 182964, Note_off_c, 0, 58, 64
7, 182964, Note_on_c, 0, 58, 64
7, 182976, Note_off_c, 0, 63, 64
7, 182980, Note_off_c, 0, 67, 64
7, 182980, Note_on_c, 0, 63, 64
7, 182980, Note_on_c, 0, 67, 64
7, 183012, Note_off_c, 0, 75, 64
7, 183012, Note_on_c, 0, 75, 64
7, 183208, Note_off_c, 0, 75, 64
7, 183208, Note_on_c, 0, 75, 64
7, 183220, Note_off_c, 0, 67, 64
7, 183220, Note_on_c, 0, 67, 64
7, 183232, Note_off_c, 0, 63, 64
7, 183232, Note_on_c, 0, 63, 64
7, 183412, Note_off_c, 0, 58, 64
7, 183412, Note_on_c, 0, 58, 64
7, 183420, Note_off_c, 0, 63, 64
7, 183420, Note_on_c, 0, 63, 64
7, 183432, Note_off_c, 0, 67, 64
7, 183432, Note_on_c, 0, 67, 64
7, 183444, Note_off_c, 0, 75, 64
7, 183444, Note_on_c, 0, 75, 64
7, 183700, Note_off_c, 0, 75, 64
7, 183700, Note_on_c, 0, 75, 64
7, 183712, Note_off_c, 0, 67, 64
7, 183712, Note_on_c, 0, 67, 64
7, 183720, Note_off_c, 0, 63, 64
7, 183728, Note_on_c, 0, 63, 64
7, 183736, Note_off_c, 0, 58, 64
7, 183744, Note_on_c, 0, 58, 64
7, 183892, Note_off_c, 0, 58, 64
7, 183892, Note_on_c, 0, 58, 64
7, 183900, Note_off_c, 0, 67, 64
7, 183900, Note_off_c, 0, 63, 64
7, 183900, Note_on_c, 0, 67, 64
7, 183900, Note_on_c, 0, 63, 64
7, 183920, Note_off_c, 0, 75, 64
7, 183920, Note_on_c, 0, 75, 64
7, 184068, Note_off_c, 0, 55, 64
7, 184068, Note_on_c, 0, 53, 64
7, 184108, Note_off_c, 0, 75, 64
7, 184112, Note_on_c, 0, 72, 64
7, 184184, Note_off_c, 0, 72, 64
7, 184184, Note_on_c, 0, 72, 64
7, 184196, Note_off_c, 0, 67, 64
7, 184196, Note_on_c, 0, 67, 64
7, 184200, Note_off_c, 0, 63, 64
7, 184200, Note_on_c, 0, 63, 64
7, 184316, Note_off_c, 0, 63, 64
7, 184316, Note_on_c, 0, 65, 64
7, 184360, Note_off_c, 0, 53, 64
7, 184360, Note_on_c, 0, 53, 64
7, 184372, Note_off_c, 0, 65, 64
7, 184372, Note_on_c, 0, 65, 64
7, 184380, Note_off_c, 0, 67, 64
7, 184380, Note_on_c, 0, 67, 64
7, 184392, Note_off_c, 0, 58, 64
7, 184392, Note_off_c, 0, 72, 64
7, 184392, Note_on_c, 0, 72, 64
7, 184392, Note_on_c, 0, 58, 64
7, 184404, Note_off_c, 0, 72, 64
7, 184404, Note_on_c, 0, 75, 64
7, 184448, Note_off_c, 0, 67, 64
7, 184448, Note_on_c, 0, 70, 64
7, 184504, Note_off_c, 0, 75, 64
7, 184504, Note_on_c, 0, 74, 64
7, 184512, Note_off_c, 0, 70, 64
7, 184512, Note_on_c, 0, 70, 64
7, 184640, Note_off_c, 0, 74, 64
7, 184640, Note_on_c, 0, 74, 64
7, 184652, Note_off_c, 0, 70, 64
7, 184652, Note_on_c, 0, 70, 64
7, 184660, Note_off_c, 0, 65, 64
7, 184660, Note_on_c, 0, 65, 64
7, 184672, Note_off_c, 0, 58, 64
7, 184680, Note_on_c, 0, 58, 64
7, 184844, Note_off_c, 0, 58, 64
7, 184844, Note_on_c, 0, 58, 64
7, 184852, Note_off_c, 0, 70, 64
7, 184852, Note_off_c, 0, 65, 64
7, 184852, Note_on_c, 0, 70, 64
7, 184852, Note_on_c, 0, 65, 64
7, 184880, Note_off_c, 0, 74, 64
7, 184880, Note_on_c, 0, 74, 64
7, 184972, Note_off_c, 0, 70, 64
7, 184972, Note_on_c, 0, 70, 64
7, 185108, Note_off_c, 0, 74, 64
7, 185108, Note_on_c, 0, 74, 64
7, 185120, Note_off_c, 0, 70, 64
7, 185120, Note_on_c, 0, 70, 64
7, 185172, Note_off_c, 0, 74, 64
7, 185172, Note_on_c, 0, 72, 64
7, 185184, Note_off_c, 0, 65, 64
7, 185188, Note_on_c, 0, 63, 64
7, 185324, Note_off_c, 0, 63, 64
7, 185324, Note_on_c, 0, 65, 64
7, 185328, Note_off_c, 0, 58, 64
7, 185328, Note_off_c, 0, 65, 64
7, 185328, Note_on_c, 0, 58, 64
7, 185328, Note_on_c, 0, 65, 64
7, 185344, Note_off_c, 0, 70, 64
7, 185344, Note_on_c, 0, 70, 64
7, 185348, Note_off_c, 0, 72, 64
7, 185348, Note_on_c, 0, 74, 64
7, 185349, Note_off_c, 0, 74, 64
7, 185356, Note_on_c, 0, 74, 64
7, 185592, Note_off_c, 0, 74, 64
7, 185592, Note_on_c, 0, 74, 64
7, 185600, Note_off_c, 0, 70, 64
7, 185600, Note_on_c, 0, 70, 64
7, 185780, Note_off_c, 0, 58, 64
7, 185780, Note_off_c, 0, 65, 64
7, 185780, Note_on_c, 0, 58, 64
7, 185780, Note_on_c, 0, 65, 64
7, 185796, Note_off_c, 0, 70, 64
7, 185796, Note_on_c, 0, 70, 64
7, 185808, Note_off_c, 0, 74, 64
7, 185812, Note_on_c, 0, 74, 64
7, 185856, Note_off_c, 0, 53, 64
7, 185932, Note_off_c, 0, 70, 64
7, 185932, Note_on_c, 0, 70, 64
7, 186064, Note_off_c, 0, 74, 64
7, 186064, Note_on_c, 0, 72, 64
7, 186064, Note_on_c, 0, 72, 64
7, 186065, Note_off_c, 0, 72, 64
7, 186076, Note_off_c, 0, 70, 64
7, 186080, Note_off_c, 0, 65, 64
7, 186080, Note_on_c, 0, 70, 64
7, 186080, Note_on_c, 0, 65, 64
7, 186080, Note_on_c, 0, 63, 64
7, 186081, Note_off_c, 0, 65, 64
7, 186208, Note_off_c, 0, 63, 64
7, 186208, Note_on_c, 0, 65, 64
7, 186212, Note_off_c, 0, 72, 64
7, 186212, Note_on_c, 0, 74, 64
7, 186276, Note_off_c, 0, 70, 64
7, 186276, Note_on_c, 0, 70, 64
7, 186284, Note_off_c, 0, 65, 64
7, 186284, Note_on_c, 0, 65, 64
7, 186296, Note_off_c, 0, 74, 64
7, 186296, Note_on_c, 0, 74, 64
7, 186304, Note_off_c, 0, 58, 64
7, 186304, Note_on_c, 0, 58, 64
7, 186544, Note_off_c, 0, 74, 64
7, 186544, Note_on_c, 0, 74, 64
7, 186556, Note_off_c, 0, 70, 64
7, 186556, Note_on_c, 0, 70, 64
7, 186720, Note_on_c, 0, 53, 64
7, 186724, Note_off_c, 0, 58, 64
7, 186724, Note_on_c, 0, 58, 64
7, 186740, Note_off_c, 0, 65, 64
7, 186740, Note_off_c, 0, 70, 64
7, 186740, Note_on_c, 0, 70, 64
7, 186740, Note_on_c, 0, 65, 64
7, 186780, Note_off_c, 0, 74, 64
7, 186780, Note_on_c, 0, 74, 64
7, 187024, Note_off_c, 0, 74, 64
7, 187024, Note_on_c, 0, 74, 64
7, 187036, Note_off_c, 0, 70, 64
7, 187036, Note_off_c, 0, 65, 64
7, 187036, Note_off_c, 0, 74, 64
7, 187036, Note_on_c, 0, 72, 64
7, 187036, Note_on_c, 0, 63, 64
7, 187036, Note_on_c, 0, 70, 64
7, 187056, Note_off_c, 0, 63, 64
7, 187056, Note_off_c, 0, 58, 64
7, 187056, Note_on_c, 0, 63, 64
7, 187056, Note_on_c, 0, 58, 64
7, 187192, Note_off_c, 0, 72, 64
7, 187192, Note_on_c, 0, 74, 64
7, 187200, Note_off_c, 0, 63, 64
7, 187220, Note_on_c, 0, 65, 64
7, 187232, Note_off_c, 0, 65, 64
7, 187232, Note_on_c, 0, 65, 64
7, 187240, Note_off_c, 0, 70, 64
7, 187248, Note_on_c, 0, 70, 64
7, 187256, Note_off_c, 0, 74, 64
7, 187256, Note_on_c, 0, 74, 64
7, 187360, Note_off_c, 0, 74, 64
7, 187360, Note_on_c, 0, 74, 64
7, 187496, Note_off_c, 0, 74, 64
7, 187496, Note_on_c, 0, 74, 64
7, 187504, Note_off_c, 0, 70, 64
7, 187504, Note_on_c, 0, 70, 64
7, 187676, Note_off_c, 0, 53, 64
7, 187676, Note_on_c, 0, 53, 64
7, 187680, Note_off_c, 0, 65, 64
7, 187680, Note_on_c, 0, 65, 64
7, 187700, Note_off_c, 0, 58, 64
7, 187700, Note_off_c, 0, 70, 64
7, 187700, Note_on_c, 0, 70, 64
7, 187700, Note_on_c, 0, 58, 64
7, 187728, Note_off_c, 0, 74, 64
7, 187732, Note_on_c, 0, 74, 64
7, 187844, Note_off_c, 0, 70, 64
7, 187844, Note_on_c, 0, 69, 64
7, 187876, Note_off_c, 0, 74, 64
7, 187876, Note_on_c, 0, 72, 64
7, 187924, Note_off_c, 0, 69, 64
7, 187924, Note_on_c, 0, 67, 64
7, 187968, Note_off_c, 0, 65, 64
7, 187968, Note_on_c, 0, 63, 64
7, 187996, Note_off_c, 0, 72, 64
7, 187996, Note_on_c, 0, 72, 64
7, 188104, Note_off_c, 0, 63, 64
7, 188108, Note_on_c, 0, 65, 64
7, 188124, Note_off_c, 0, 67, 64
7, 188124, Note_on_c, 0, 69, 64
7, 188160, Note_off_c, 0, 72, 64
7, 188184, Note_off_c, 0, 58, 64
7, 188184, Note_on_c, 0, 74, 64
7, 188184, Note_on_c, 0, 60, 64
7, 188192, Note_off_c, 0, 53, 64
7, 188196, Note_on_c, 0, 53, 64
7, 188208, Note_off_c, 0, 60, 64
7, 188208, Note_on_c, 0, 60, 64
7, 188216, Note_off_c, 0, 69, 64
7, 188216, Note_on_c, 0, 69, 64
7, 188224, Note_off_c, 0, 65, 64
7, 188224, Note_on_c, 0, 65, 64
7, 188276, Note_off_c, 0, 74, 64
7, 188276, Note_on_c, 0, 74, 64
7, 188476, Note_off_c, 0, 74, 64
7, 188476, Note_on_c, 0, 74, 64
7, 188508, Note_off_c, 0, 69, 64
7, 188508, Note_on_c, 0, 69, 64
7, 188660, Note_off_c, 0, 53, 64
7, 188660, Note_off_c, 0, 60, 64
7, 188660, Note_on_c, 0, 53, 64
7, 188660, Note_on_c, 0, 60, 64
7, 188684, Note_off_c, 0, 65, 64
7, 188684, Note_on_c, 0, 65, 64
7, 188700, Note_off_c, 0, 69, 64
7, 188700, Note_on_c, 0, 69, 64
7, 188712, Note_off_c, 0, 74, 64
7, 188712, Note_on_c, 0, 74, 64
7, 188932, Note_off_c, 0, 74, 64
7, 188932, Note_on_c, 0, 74, 64
7, 188956, Note_off_c, 0, 74, 64
7, 188956, Note_on_c, 0, 72, 64
7, 188960, Note_off_c, 0, 69, 64
7, 188960, Note_on_c, 0, 69, 64
7, 189148, Note_off_c, 0, 65, 64
7, 189152, Note_on_c, 0, 65, 64
7, 189168, Note_off_c, 0, 69, 64
7, 189168, Note_on_c, 0, 69, 64
7, 189180, Note_off_c, 0, 72, 64
7, 189180, Note_on_c, 0, 72, 64
7, 189456, Note_off_c, 0, 72, 64
7, 189456, Note_on_c, 0, 72, 64
7, 189472, Note_off_c, 0, 69, 64
7, 189472, Note_on_c, 0, 69, 64
7, 189488, Note_off_c, 0, 65, 64
7, 189488, Note_on_c, 0, 65, 64
7, 189504, Note_off_c, 0, 60, 64
7, 189504, Note_on_c, 0, 60, 64
7, 189512, Note_off_c, 0, 53, 64
7, 189520, Note_on_c, 0, 53, 64
7, 189668, Note_off_c, 0, 60, 64
7, 189668, Note_on_c, 0, 60, 64
7, 189680, Note_off_c, 0, 69, 64
7, 189680, Note_on_c, 0, 69, 64
7, 189688, Note_off_c, 0, 65, 64
7, 189688, Note_on_c, 0, 65, 64
7, 189708, Note_off_c, 0, 72, 64
7, 189708, Note_on_c, 0, 72, 64
7, 189816, Note_off_c, 0, 69, 64
7, 189816, Note_on_c, 0, 67, 64
7, 189836, Note_off_c, 0, 65, 64
7, 189844, Note_on_c, 0, 63, 64
7, 189868, Note_off_c, 0, 60, 64
7, 189868, Note_on_c, 0, 58, 64
7, 189920, Note_off_c, 0, 72, 64
7, 189920, Note_on_c, 0, 75, 64
7, 189948, Note_off_c, 0, 75, 64
7, 189948, Note_on_c, 0, 75, 64
7, 189960, Note_off_c, 0, 67, 64
7, 189960, Note_on_c, 0, 67, 64
7, 189988, Note_off_c, 0, 58, 64
7, 189992, Note_on_c, 0, 58, 64
7, 190056, Note_off_c, 0, 53, 64
7, 190056, Note_on_c, 0, 55, 64
7, 190128, Note_off_c, 0, 55, 64
7, 190132, Note_on_c, 0, 55, 64
7, 190144, Note_off_c, 0, 58, 64
7, 190144, Note_on_c, 0, 58, 64
7, 190152, Note_off_c, 0, 63, 64
7, 190152, Note_on_c, 0, 63, 64
7, 190160, Note_off_c, 0, 75, 64
7, 190160, Note_off_c, 0, 67, 64
7, 190160, Note_on_c, 0, 75, 64
7, 190160, Note_on_c, 0, 67, 64
7, 190412, Note_off_c, 0, 67, 64
7, 190412, Note_on_c, 0, 67, 64
7, 190420, Note_off_c, 0, 63, 64
7, 190420, Note_on_c, 0, 63, 64
7, 190436, Note_off_c, 0, 58, 64
7, 190436, Note_on_c, 0, 58, 64
7, 190452, Note_off_c, 0, 55, 64
7, 190452, Note_on_c, 0, 55, 64
7, 190620, Note_off_c, 0, 63, 64
7, 190620, Note_off_c, 0, 58, 64
7, 190620, Note_on_c, 0, 63, 64
7, 190620, Note_on_c, 0, 58, 64
7, 190652, Note_off_c, 0, 67, 64
7, 190652, Note_on_c, 0, 67, 64
7, 190668, Note_off_c, 0, 75, 64
7, 190668, Note_on_c, 0, 75, 64
7, 190900, Note_off_c, 0, 67, 64
7, 190900, Note_off_c, 0, 75, 64
7, 190900, Note_on_c, 0, 75, 64
7, 190900, Note_on_c, 0, 67, 64
7, 190932, Note_off_c, 0, 58, 64
7, 190932, Note_on_c, 0, 58, 64
7, 191108, Note_off_c, 0, 63, 64
7, 191116, Note_off_c, 0, 67, 64
7, 191116, Note_on_c, 0, 63, 64
7, 191124, Note_on_c, 0, 67, 64
7, 191128, Note_off_c, 0, 75, 64
7, 191128, Note_on_c, 0, 75, 64
7, 191400, Note_off_c, 0, 67, 64
7, 191400, Note_on_c, 0, 67, 64
7, 191424, Note_off_c, 0, 63, 64
7, 191424, Note_on_c, 0, 63, 64
7, 191444, Note_off_c, 0, 58, 64
7, 191448, Note_on_c, 0, 58, 64
7, 191592, Note_off_c, 0, 58, 64
7, 191592, Note_on_c, 0, 58, 64
7, 191600, Note_off_c, 0, 63, 64
7, 191600, Note_on_c, 0, 63, 64
7, 191620, Note_off_c, 0, 67, 64
7, 191620, Note_on_c, 0, 67, 64
7, 191628, Note_off_c, 0, 75, 64
7, 191628, Note_on_c, 0, 75, 64
7, 191732, Note_off_c, 0, 55, 64
7, 191732, Note_on_c, 0, 53, 64
7, 191904, Note_off_c, 0, 75, 64
7, 191904, Note_on_c, 0, 72, 64
7, 192048, Note_off_c, 0, 63, 64
7, 192056, Note_on_c, 0, 65, 64
7, 192084, Note_off_c, 0, 72, 64
7, 192084, Note_on_c, 0, 74, 64
7, 192096, Note_off_c, 0, 67, 64
7, 192100, Note_on_c, 0, 70, 64
7, 192104, Note_off_c, 0, 65, 64
7, 192104, Note_off_c, 0, 70, 64
7, 192104, Note_on_c, 0, 70, 64
7, 192104, Note_on_c, 0, 65, 64
7, 192128, Note_off_c, 0, 74, 64
7, 192128, Note_on_c, 0, 74, 64
7, 192184, Note_off_c, 0, 74, 64
7, 192184, Note_on_c, 0, 75, 64
7, 192248, Note_off_c, 0, 75, 64
7, 192248, Note_on_c, 0, 74, 64
7, 193096, Note_off_c, 0, 58, 64
7, 193236, Note_off_c, 0, 53, 64
7, 193360, Note_off_c, 0, 74, 64
7, 193360, Note_on_c, 0, 72, 64
7, 193392, Note_off_c, 0, 65, 64
7, 193392, Note_on_c, 0, 63, 64
7, 193504, Note_off_c, 0, 63, 64
7, 193504, Note_on_c, 0, 63, 64
7, 193516, Note_off_c, 0, 70, 64
7, 193516, Note_on_c, 0, 70, 64
7, 193528, Note_off_c, 0, 72, 64
7, 193528, Note_on_c, 0, 72, 64
7, 194036, Note_off_c, 0, 63, 64
7, 194036, Note_off_c, 0, 72, 64
7, 194036, Note_on_c, 0, 65, 64
7, 194036, Note_on_c, 0, 74, 64
7, 194060, Note_on_c, 0, 53, 64
7, 194084, Note_on_c, 0, 58, 64
7, 194104, Note_off_c, 0, 65, 64
7, 194104, Note_on_c, 0, 65, 64
7, 194124, Note_off_c, 0, 70, 64
7, 194124, Note_on_c, 0, 70, 64
7, 194136, Note_off_c, 0, 74, 64
7, 194136, Note_on_c, 0, 74, 64
7, 194948, Note_off_c, 0, 74, 64
7, 194948, Note_on_c, 0, 72, 64
7, 194980, Note_off_c, 0, 65, 64
7, 194980, Note_on_c, 0, 63, 64
7, 195100, Note_off_c, 0, 58, 64
7, 195100, Note_on_c, 0, 58, 64
7, 195120, Note_off_c, 0, 63, 64
7, 195120, Note_on_c, 0, 63, 64
7, 195128, Note_off_c, 0, 70, 64
7, 195128, Note_on_c, 0, 70, 64
7, 195140, Note_off_c, 0, 72, 64
7, 195140, Note_on_c, 0, 72, 64
7, 195556, Note_off_c, 0, 53, 64
7, 195944, Note_on_c, 0, 58, 64
7, 195944, Note_on_c, 0, 74, 64
7, 195952, Note_off_c, 0, 63, 64
7, 195952, Note_on_c, 0, 65, 64
7, 195952, Note_on_c, 0, 65, 64
7, 195952, Note_on_c, 0, 70, 64
7, 195953, Note_off_c, 0, 65, 64
7, 195968, Note_off_c, 0, 72, 64
7, 195972, Note_off_c, 0, 74, 64
7, 195972, Note_on_c, 0, 74, 64
7, 195992, Note_off_c, 0, 58, 64
7, 196012, Note_off_c, 0, 70, 64
7, 196060, Note_off_c, 0, 65, 64
7, 196060, Note_on_c, 0, 65, 64
7, 196196, Note_off_c, 0, 74, 64
7, 196196, Note_on_c, 0, 74, 64
7, 196232, Note_off_c, 0, 70, 64
7, 196236, Note_on_c, 0, 70, 64
7, 196408, Note_off_c, 0, 58, 64
7, 196408, Note_on_c, 0, 58, 64
7, 196416, Note_off_c, 0, 65, 64
7, 196416, Note_on_c, 0, 65, 64
7, 196424, Note_off_c, 0, 70, 64
7, 196424, Note_on_c, 0, 70, 64
7, 196664, Note_off_c, 0, 74, 64
7, 196664, Note_off_c, 0, 65, 64
7, 196664, Note_on_c, 0, 72, 64
7, 196664, Note_on_c, 0, 63, 64
7, 196680, Note_off_c, 0, 72, 64
7, 196684, Note_on_c, 0, 72, 64
7, 196852, Note_off_c, 0, 72, 64
7, 196852, Note_on_c, 0, 74, 64
7, 196868, Note_off_c, 0, 63, 64
7, 196868, Note_on_c, 0, 65, 64
7, 196892, Note_off_c, 0, 58, 64
7, 196896, Note_on_c, 0, 58, 64
7, 196908, Note_off_c, 0, 65, 64
7, 196908, Note_on_c, 0, 65, 64
7, 196920, Note_off_c, 0, 70, 64
7, 196920, Note_on_c, 0, 70, 64
7, 196940, Note_off_c, 0, 74, 64
7, 196940, Note_on_c, 0, 74, 64
7, 197028, Note_off_c, 0, 70, 64
7, 197032, Note_on_c, 0, 70, 64
7, 197152, Note_off_c, 0, 74, 64
7, 197152, Note_on_c, 0, 74, 64
7, 197356, Note_off_c, 0, 58, 64
7, 197356, Note_on_c, 0, 58, 64
7, 197368, Note_off_c, 0, 65, 64
7, 197368, Note_on_c, 0, 65, 64
7, 197380, Note_off_c, 0, 70, 64
7, 197384, Note_on_c, 0, 70, 64
7, 197432, Note_off_c, 0, 74, 64
7, 197432, Note_on_c, 0, 74, 64
7, 197596, Note_off_c, 0, 74, 64
7, 197596, Note_on_c, 0, 72, 64
7, 197628, Note_off_c, 0, 65, 64
7, 197628, Note_off_c, 0, 70, 64
7, 197628, Note_off_c, 0, 72, 64
7, 197628, Note_on_c, 0, 63, 64
7, 197628, Note_on_c, 0, 72, 64
7, 197628, Note_on_c, 0, 70, 64
7, 197828, Note_on_c, 0, 53, 64
7, 197844, Note_off_c, 0, 58, 64
7, 197844, Note_on_c, 0, 58, 64
7, 197848, Note_off_c, 0, 63, 64
7, 197848, Note_off_c, 0, 72, 64
7, 197848, Note_on_c, 0, 74, 64
7, 197848, Note_on_c, 0, 65, 64
7, 197860, Note_off_c, 0, 65, 64
7, 197864, Note_off_c, 0, 70, 64
7, 197864, Note_on_c, 0, 65, 64
7, 197864, Note_on_c, 0, 70, 64
7, 198092, Note_off_c, 0, 74, 64
7, 198096, Note_on_c, 0, 74, 64
7, 198104, Note_off_c, 0, 70, 64
7, 198104, Note_on_c, 0, 70, 64
7, 198300, Note_off_c, 0, 58, 64
7, 198300, Note_on_c, 0, 58, 64
7, 198312, Note_off_c, 0, 65, 64
7, 198312, Note_on_c, 0, 65, 64
7, 198324, Note_off_c, 0, 70, 64
7, 198324, Note_on_c, 0, 70, 64
7, 198340, Note_off_c, 0, 74, 64
7, 198340, Note_on_c, 0, 74, 64
7, 198560, Note_off_c, 0, 74, 64
7, 198560, Note_on_c, 0, 74, 64
7, 198568, Note_off_c, 0, 70, 64
7, 198568, Note_off_c, 0, 74, 64
7, 198568, Note_on_c, 0, 72, 64
7, 198568, Note_on_c, 0, 70, 64
7, 198600, Note_off_c, 0, 65, 64
7, 198600, Note_on_c, 0, 63, 64
7, 198760, Note_off_c, 0, 63, 64
7, 198760, Note_on_c, 0, 64, 64
7, 198768, Note_off_c, 0, 72, 64
7, 198772, Note_on_c, 0, 74, 64
7, 198788, Note_off_c, 0, 58, 64
7, 198788, Note_on_c, 0, 58, 64
7, 198796, Note_off_c, 0, 64, 64
7, 198796, Note_on_c, 0, 65, 64
7, 198797, Note_off_c, 0, 65, 64
7, 198804, Note_on_c, 0, 65, 64
7, 198808, Note_off_c, 0, 70, 64
7, 198808, Note_on_c, 0, 70, 64
7, 198836, Note_off_c, 0, 74, 64
7, 198840, Note_on_c, 0, 74, 64
7, 199040, Note_off_c, 0, 74, 64
7, 199040, Note_on_c, 0, 74, 64
7, 199260, Note_off_c, 0, 58, 64
7, 199260, Note_on_c, 0, 58, 64
7, 199264, Note_off_c, 0, 65, 64
7, 199264, Note_on_c, 0, 65, 64
7, 199280, Note_off_c, 0, 70, 64
7, 199280, Note_on_c, 0, 70, 64
7, 199328, Note_off_c, 0, 53, 64
7, 199504, Note_off_c, 0, 74, 64
7, 199508, Note_on_c, 0, 74, 64
7, 199520, Note_off_c, 0, 74, 64
7, 199520, Note_on_c, 0, 72, 64
7, 199540, Note_off_c, 0, 65, 64
7, 199540, Note_on_c, 0, 63, 64
7, 199744, Note_off_c, 0, 58, 64
7, 199744, Note_off_c, 0, 72, 64
7, 199744, Note_on_c, 0, 74, 64
7, 199748, Note_off_c, 0, 63, 64
7, 199748, Note_on_c, 0, 58, 64
7, 199756, Note_on_c, 0, 63, 64
7, 199764, Note_off_c, 0, 63, 64
7, 199764, Note_off_c, 0, 70, 64
7, 199764, Note_on_c, 0, 65, 64
7, 199764, Note_on_c, 0, 70, 64
7, 199780, Note_off_c, 0, 74, 64
7, 199780, Note_on_c, 0, 74, 64
7, 199984, Note_off_c, 0, 74, 64
7, 199992, Note_on_c, 0, 74, 64
7, 200000, Note_off_c, 0, 70, 64
7, 200000, Note_on_c, 0, 70, 64
7, 200204, Note_off_c, 0, 58, 64
7, 200204, Note_on_c, 0, 58, 64
7, 200216, Note_off_c, 0, 65, 64
7, 200220, Note_on_c, 0, 65, 64
7, 200224, Note_off_c, 0, 70, 64
7, 200224, Note_on_c, 0, 70, 64
7, 200240, Note_off_c, 0, 74, 64
7, 200240, Note_on_c, 0, 74, 64
7, 200464, Note_off_c, 0, 74, 64
7, 200464, Note_on_c, 0, 74, 64
7, 200496, Note_off_c, 0, 70, 64
7, 200496, Note_on_c, 0, 70, 64
7, 200500, Note_off_c, 0, 74, 64
7, 200500, Note_on_c, 0, 72, 64
7, 200512, Note_off_c, 0, 65, 64
7, 200512, Note_on_c, 0, 63, 64
7, 200640, Note_off_c, 0, 72, 64
7, 200640, Note_on_c, 0, 74, 64
7, 200660, Note_off_c, 0, 63, 64
7, 200668, Note_on_c, 0, 65, 64
7, 200704, Note_on_c, 0, 53, 64
7, 200712, Note_off_c, 0, 58, 64
7, 200712, Note_on_c, 0, 58, 64
7, 200732, Note_off_c, 0, 65, 64
7, 200732, Note_on_c, 0, 65, 64
7, 200736, Note_off_c, 0, 70, 64
7, 200736, Note_on_c, 0, 70, 64
7, 200752, Note_off_c, 0, 74, 64
7, 200752, Note_on_c, 0, 74, 64
7, 200976, Note_off_c, 0, 74, 64
7, 200976, Note_on_c, 0, 74, 64
7, 200988, Note_off_c, 0, 70, 64
7, 200988, Note_on_c, 0, 70, 64
7, 201200, Note_off_c, 0, 65, 64
7, 201200, Note_on_c, 0, 65, 64
7, 201212, Note_off_c, 0, 70, 64
7, 201212, Note_on_c, 0, 70, 64
7, 201280, Note_off_c, 0, 74, 64
7, 201280, Note_on_c, 0, 74, 64
7, 201436, Note_off_c, 0, 74, 64
7, 201452, Note_off_c, 0, 65, 64
7, 201452, Note_on_c, 0, 72, 64
7, 201452, Note_on_c, 0, 63, 64
7, 201452, Note_on_c, 0, 72, 64
7, 201453, Note_off_c, 0, 72, 64
7, 201460, Note_off_c, 0, 70, 64
7, 201460, Note_on_c, 0, 70, 64
7, 201472, Note_off_c, 0, 63, 64
7, 201472, Note_on_c, 0, 63, 64
7, 201640, Note_off_c, 0, 72, 64
7, 201640, Note_on_c, 0, 74, 64
7, 201648, Note_off_c, 0, 63, 64
7, 201648, Note_on_c, 0, 65, 64
7, 201660, Note_off_c, 0, 58, 64
7, 201660, Note_on_c, 0, 58, 64
7, 201680, Note_off_c, 0, 65, 64
7, 201680, Note_on_c, 0, 65, 64
7, 201688, Note_off_c, 0, 70, 64
7, 201688, Note_on_c, 0, 70, 64
7, 201708, Note_off_c, 0, 74, 64
7, 201708, Note_on_c, 0, 74, 64
7, 201912, Note_off_c, 0, 74, 64
7, 201912, Note_on_c, 0, 74, 64
7, 201920, Note_off_c, 0, 70, 64
7, 201920, Note_on_c, 0, 70, 64
7, 202128, Note_off_c, 0, 58, 64
7, 202128, Note_on_c, 0, 58, 64
7, 202148, Note_off_c, 0, 65, 64
7, 202148, Note_on_c, 0, 65, 64
7, 202156, Note_off_c, 0, 70, 64
7, 202156, Note_on_c, 0, 70, 64
7, 202176, Note_off_c, 0, 74, 64
7, 202176, Note_on_c, 0, 74, 64
7, 202204, Note_off_c, 0, 53, 64
7, 202384, Note_off_c, 0, 74, 64
7, 202384, Note_on_c, 0, 72, 64
7, 202396, Note_off_c, 0, 72, 64
7, 202396, Note_on_c, 0, 72, 64
7, 202400, Note_off_c, 0, 65, 64
7, 202400, Note_on_c, 0, 63, 64
7, 202420, Note_off_c, 0, 70, 64
7, 202420, Note_on_c, 0, 70, 64
7, 202596, Note_off_c, 0, 72, 64
7, 202600, Note_off_c, 0, 58, 64
7, 202600, Note_on_c, 0, 74, 64
7, 202600, Note_on_c, 0, 58, 64
7, 202612, Note_off_c, 0, 63, 64
7, 202612, Note_on_c, 0, 63, 64
7, 202620, Note_off_c, 0, 70, 64
7, 202620, Note_off_c, 0, 63, 64
7, 202620, Note_on_c, 0, 65, 64
7, 202620, Note_on_c, 0, 70, 64
7, 202636, Note_off_c, 0, 74, 64
7, 202636, Note_on_c, 0, 74, 64
7, 202836, Note_off_c, 0, 74, 64
7, 202836, Note_on_c, 0, 74, 64
7, 202844, Note_off_c, 0, 70, 64
7, 202844, Note_on_c, 0, 70, 64
7, 202856, Note_off_c, 0, 65, 64
7, 202856, Note_on_c, 0, 65, 64
7, 203040, Note_off_c, 0, 58, 64
7, 203040, Note_off_c, 0, 70, 64
7, 203040, Note_off_c, 0, 65, 64
7, 203040, Note_on_c, 0, 58, 64
7, 203040, Note_on_c, 0, 65, 64
7, 203040, Note_on_c, 0, 70, 64
7, 203084, Note_off_c, 0, 74, 64
7, 203084, Note_on_c, 0, 74, 64
7, 203184, Note_off_c, 0, 70, 64
7, 203184, Note_on_c, 0, 67, 64
7, 203240, Note_off_c, 0, 74, 64
7, 203240, Note_on_c, 0, 72, 64
7, 203300, Note_off_c, 0, 65, 64
7, 203300, Note_on_c, 0, 63, 64
7, 203304, Note_off_c, 0, 72, 64
7, 203304, Note_on_c, 0, 75, 64
7, 203312, Note_off_c, 0, 75, 64
7, 203320, Note_off_c, 0, 67, 64
7, 203320, Note_on_c, 0, 75, 64
7, 203320, Note_on_c, 0, 67, 64
7, 203332, Note_off_c, 0, 63, 64
7, 203340, Note_on_c, 0, 63, 64
7, 203540, Note_on_c, 0, 51, 64
7, 203540, Note_on_c, 0, 55, 64
7, 203560, Note_off_c, 0, 58, 64
7, 203560, Note_on_c, 0, 58, 64
7, 203568, Note_off_c, 0, 63, 64
7, 203576, Note_on_c, 0, 63, 64
7, 203580, Note_off_c, 0, 67, 64
7, 203580, Note_on_c, 0, 67, 64
7, 203588, Note_off_c, 0, 75, 64
7, 203588, Note_on_c, 0, 75, 64
7, 203800, Note_off_c, 0, 75, 64
7, 203800, Note_on_c, 0, 75, 64
7, 203816, Note_off_c, 0, 67, 64
7, 203816, Note_on_c, 0, 67, 64
7, 203824, Note_off_c, 0, 63, 64
7, 203824, Note_on_c, 0, 63, 64
7, 204048, Note_off_c, 0, 55, 64
7, 204048, Note_on_c, 0, 55, 64
7, 204064, Note_off_c, 0, 58, 64
7, 204064, Note_on_c, 0, 58, 64
7, 204068, Note_off_c, 0, 63, 64
7, 204068, Note_on_c, 0, 63, 64
7, 204084, Note_off_c, 0, 67, 64
7, 204084, Note_on_c, 0, 67, 64
7, 204100, Note_off_c, 0, 75, 64
7, 204100, Note_on_c, 0, 75, 64
7, 204308, Note_off_c, 0, 75, 64
7, 204308, Note_on_c, 0, 75, 64
7, 204316, Note_off_c, 0, 67, 64
7, 204316, Note_on_c, 0, 67, 64
7, 204320, Note_off_c, 0, 55, 64
7, 204320, Note_off_c, 0, 63, 64
7, 204320, Note_on_c, 0, 53, 64
7, 204320, Note_on_c, 0, 63, 64
7, 204340, Note_off_c, 0, 58, 64
7, 204340, Note_on_c, 0, 58, 64
7, 204360, Note_off_c, 0, 51, 64
7, 204360, Note_on_c, 0, 48, 64
7, 204456, Note_off_c, 0, 48, 64
7, 204456, Note_on_c, 0, 51, 64
7, 204480, Note_off_c, 0, 53, 64
7, 204480, Note_on_c, 0, 55, 64
7, 204520, Note_off_c, 0, 51, 64
7, 204520, Note_on_c, 0, 51, 64
7, 204524, Note_off_c, 0, 55, 64
7, 204524, Note_on_c, 0, 55, 64
7, 204544, Note_off_c, 0, 58, 64
7, 204544, Note_on_c, 0, 58, 64
7, 204552, Note_off_c, 0, 63, 64
7, 204556, Note_on_c, 0, 63, 64
7, 204572, Note_off_c, 0, 67, 64
7, 204572, Note_on_c, 0, 67, 64
7, 204644, Note_off_c, 0, 75, 64
7, 204644, Note_on_c, 0, 75, 64
7, 204792, Note_off_c, 0, 75, 64
7, 204796, Note_on_c, 0, 75, 64
7, 204800, Note_off_c, 0, 67, 64
7, 204808, Note_on_c, 0, 67, 64
7, 204812, Note_off_c, 0, 63, 64
7, 204812, Note_on_c, 0, 63, 64
7, 205016, Note_off_c, 0, 55, 64
7, 205016, Note_on_c, 0, 55, 64
7, 205024, Note_off_c, 0, 58, 64
7, 205024, Note_on_c, 0, 58, 64
7, 205040, Note_off_c, 0, 63, 64
7, 205040, Note_on_c, 0, 63, 64
7, 205048, Note_off_c, 0, 67, 64
7, 205048, Note_on_c, 0, 67, 64
7, 205056, Note_off_c, 0, 75, 64
7, 205056, Note_on_c, 0, 75, 64
7, 205264, Note_off_c, 0, 55, 64
7, 205264, Note_on_c, 0, 53, 64
7, 205276, Note_off_c, 0, 75, 64
7, 205276, Note_on_c, 0, 75, 64
7, 205280, Note_off_c, 0, 51, 64
7, 205280, Note_off_c, 0, 63, 64
7, 205280, Note_off_c, 0, 67, 64
7, 205280, Note_on_c, 0, 48, 64
7, 205280, Note_on_c, 0, 67, 64
7, 205280, Note_on_c, 0, 63, 64
7, 205432, Note_off_c, 0, 53, 64
7, 205432, Note_on_c, 0, 55, 64
7, 205436, Note_off_c, 0, 48, 64
7, 205436, Note_on_c, 0, 51, 64
7, 205512, Note_off_c, 0, 55, 64
7, 205516, Note_on_c, 0, 55, 64
7, 205520, Note_off_c, 0, 58, 64
7, 205520, Note_on_c, 0, 58, 64
7, 205532, Note_off_c, 0, 63, 64
7, 205532, Note_on_c, 0, 63, 64
7, 205544, Note_off_c, 0, 67, 64
7, 205544, Note_on_c, 0, 67, 64
7, 205560, Note_off_c, 0, 75, 64
7, 205560, Note_on_c, 0, 75, 64
7, 205764, Note_off_c, 0, 75, 64
7, 205764, Note_on_c, 0, 75, 64
7, 205780, Note_off_c, 0, 67, 64
7, 205780, Note_on_c, 0, 67, 64
7, 205788, Note_off_c, 0, 63, 64
7, 205788, Note_on_c, 0, 63, 64
7, 205984, Note_off_c, 0, 58, 64
7, 205984, Note_on_c, 0, 58, 64
7, 206000, Note_off_c, 0, 63, 64
7, 206000, Note_on_c, 0, 63, 64
7, 206012, Note_off_c, 0, 67, 64
7, 206012, Note_on_c, 0, 67, 64
7, 206076, Note_off_c, 0, 75, 64
7, 206076, Note_on_c, 0, 75, 64
7, 206172, Note_off_c, 0, 55, 64
7, 206172, Note_on_c, 0, 53, 64
7, 206208, Note_off_c, 0, 51, 64
7, 206212, Note_on_c, 0, 48, 64
7, 206236, Note_off_c, 0, 75, 64
7, 206236, Note_on_c, 0, 75, 64
7, 206240, Note_off_c, 0, 67, 64
7, 206240, Note_on_c, 0, 67, 64
7, 206260, Note_off_c, 0, 63, 64
7, 206260, Note_on_c, 0, 63, 64
7, 206272, Note_off_c, 0, 58, 64
7, 206272, Note_on_c, 0, 58, 64
7, 206356, Note_off_c, 0, 48, 64
7, 206356, Note_on_c, 0, 51, 64
7, 206396, Note_off_c, 0, 53, 64
7, 206396, Note_on_c, 0, 55, 64
7, 206460, Note_off_c, 0, 55, 64
7, 206460, Note_on_c, 0, 55, 64
7, 206472, Note_off_c, 0, 58, 64
7, 206472, Note_on_c, 0, 58, 64
7, 206484, Note_off_c, 0, 63, 64
7, 206484, Note_on_c, 0, 63, 64
7, 206492, Note_off_c, 0, 67, 64
7, 206492, Note_on_c, 0, 67, 64
7, 206704, Note_off_c, 0, 75, 64
7, 206704, Note_on_c, 0, 75, 64
7, 206716, Note_off_c, 0, 67, 64
7, 206716, Note_on_c, 0, 67, 64
7, 206720, Note_off_c, 0, 63, 64
7, 206720, Note_on_c, 0, 63, 64
7, 206740, Note_off_c, 0, 58, 64
7, 206740, Note_on_c, 0, 58, 64
7, 206912, Note_off_c, 0, 58, 64
7, 206916, Note_on_c, 0, 58, 64
7, 206924, Note_off_c, 0, 63, 64
7, 206924, Note_on_c, 0, 63, 64
7, 206936, Note_off_c, 0, 67, 64
7, 206936, Note_on_c, 0, 67, 64
7, 206948, Note_off_c, 0, 75, 64
7, 206948, Note_on_c, 0, 75, 64
7, 206968, Note_off_c, 0, 55, 64
7, 206972, Note_on_c, 0, 53, 64
7, 207040, Note_off_c, 0, 51, 64
7, 207040, Note_on_c, 0, 48, 64
7, 207168, Note_off_c, 0, 75, 64
7, 207168, Note_on_c, 0, 72, 64
7, 207180, Note_off_c, 0, 72, 64
7, 207184, Note_on_c, 0, 72, 64
7, 207196, Note_off_c, 0, 67, 64
7, 207196, Note_on_c, 0, 67, 64
7, 207344, Note_off_c, 0, 63, 64
7, 207344, Note_on_c, 0, 65, 64
7, 207380, Note_off_c, 0, 67, 64
7, 207380, Note_on_c, 0, 70, 64
7, 207396, Note_off_c, 0, 58, 64
7, 207396, Note_on_c, 0, 58, 64
7, 207412, Note_off_c, 0, 72, 64
7, 207412, Note_on_c, 0, 74, 64
7, 207416, Note_off_c, 0, 65, 64
7, 207416, Note_on_c, 0, 65, 64
7, 207424, Note_off_c, 0, 70, 64
7, 207424, Note_off_c, 0, 74, 64
7, 207424, Note_on_c, 0, 74, 64
7, 207424, Note_on_c, 0, 70, 64
7, 207648, Note_off_c, 0, 74, 64
7, 207648, Note_on_c, 0, 74, 64
7, 207664, Note_off_c, 0, 70, 64
7, 207668, Note_on_c, 0, 70, 64
7, 207860, Note_off_c, 0, 53, 64
7, 207860, Note_off_c, 0, 58, 64
7, 207860, Note_on_c, 0, 53, 64
7, 207860, Note_on_c, 0, 58, 64
7, 207884, Note_off_c, 0, 65, 64
7, 207884, Note_on_c, 0, 65, 64
7, 207900, Note_off_c, 0, 70, 64
7, 207900, Note_on_c, 0, 70, 64
7, 207912, Note_off_c, 0, 74, 64
7, 207912, Note_on_c, 0, 74, 64
7, 208140, Note_off_c, 0, 74, 64
7, 208148, Note_on_c, 0, 74, 64
7, 208156, Note_off_c, 0, 70, 64
7, 208156, Note_off_c, 0, 74, 64
7, 208156, Note_on_c, 0, 72, 64
7, 208168, Note_on_c, 0, 70, 64
7, 208176, Note_off_c, 0, 65, 64
7, 208180, Note_on_c, 0, 63, 64
7, 208344, Note_off_c, 0, 53, 64
7, 208344, Note_on_c, 0, 53, 64
7, 208348, Note_off_c, 0, 58, 64
7, 208348, Note_off_c, 0, 63, 64
7, 208348, Note_on_c, 0, 65, 64
7, 208348, Note_on_c, 0, 58, 64
7, 208360, Note_off_c, 0, 72, 64
7, 208360, Note_on_c, 0, 74, 64
7, 208368, Note_off_c, 0, 65, 64
7, 208376, Note_on_c, 0, 65, 64
7, 208380, Note_off_c, 0, 70, 64
7, 208380, Note_on_c, 0, 70, 64
7, 208392, Note_off_c, 0, 74, 64
7, 208392, Note_on_c, 0, 74, 64
7, 208536, Note_off_c, 0, 48, 64
7, 208608, Note_off_c, 0, 74, 64
7, 208608, Note_on_c, 0, 74, 64
7, 208840, Note_off_c, 0, 58, 64
7, 208840, Note_on_c, 0, 58, 64
7, 208852, Note_off_c, 0, 65, 64
7, 208852, Note_on_c, 0, 65, 64
7, 208864, Note_off_c, 0, 70, 64
7, 208864, Note_on_c, 0, 70, 64
7, 208880, Note_off_c, 0, 74, 64
7, 208880, Note_on_c, 0, 74, 64
7, 209104, Note_off_c, 0, 74, 64
7, 209104, Note_on_c, 0, 72, 64
7, 209116, Note_off_c, 0, 65, 64
7, 209120, Note_off_c, 0, 70, 64
7, 209120, Note_off_c, 0, 72, 64
7, 209120, Note_on_c, 0, 63, 64
7, 209120, Note_on_c, 0, 72, 64
7, 209120, Note_on_c, 0, 70, 64
7, 209300, Note_off_c, 0, 72, 64
7, 209300, Note_off_c, 0, 63, 64
7, 209300, Note_on_c, 0, 74, 64
7, 209300, Note_on_c, 0, 65, 64
7, 209332, Note_off_c, 0, 53, 64
7, 209332, Note_on_c, 0, 53, 64
7, 209344, Note_off_c, 0, 58, 64
7, 209344, Note_on_c, 0, 58, 64
7, 209360, Note_off_c, 0, 65, 64
7, 209360, Note_on_c, 0, 65, 64
7, 209372, Note_off_c, 0, 70, 64
7, 209376, Note_on_c, 0, 70, 64
7, 209392, Note_off_c, 0, 74, 64
7, 209392, Note_on_c, 0, 74, 64
7, 209604, Note_off_c, 0, 74, 64
7, 209604, Note_on_c, 0, 74, 64
7, 209804, Note_off_c, 0, 58, 64
7, 209804, Note_on_c, 0, 58, 64
7, 209812, Note_off_c, 0, 65, 64
7, 209812, Note_on_c, 0, 65, 64
7, 209824, Note_off_c, 0, 70, 64
7, 209824, Note_on_c, 0, 70, 64
7, 209844, Note_off_c, 0, 74, 64
7, 209844, Note_on_c, 0, 74, 64
7, 210040, Note_off_c, 0, 74, 64
7, 210040, Note_on_c, 0, 72, 64
7, 210056, Note_off_c, 0, 65, 64
7, 210056, Note_on_c, 0, 63, 64
7, 210080, Note_off_c, 0, 72, 64
7, 210080, Note_on_c, 0, 72, 64
7, 210096, Note_off_c, 0, 70, 64
7, 210096, Note_on_c, 0, 70, 64
7, 210100, Note_off_c, 0, 63, 64
7, 210100, Note_on_c, 0, 63, 64
7, 210300, Note_off_c, 0, 53, 64
7, 210300, Note_off_c, 0, 72, 64
7, 210300, Note_off_c, 0, 63, 64
7, 210300, Note_on_c, 0, 74, 64
7, 210300, Note_on_c, 0, 65, 64
7, 210300, Note_on_c, 0, 53, 64
7, 210316, Note_off_c, 0, 58, 64
7, 210316, Note_on_c, 0, 58, 64
7, 210324, Note_off_c, 0, 65, 64
7, 210332, Note_on_c, 0, 65, 64
7, 210336, Note_off_c, 0, 70, 64
7, 210336, Note_on_c, 0, 70, 64
7, 210352, Note_off_c, 0, 74, 64
7, 210352, Note_on_c, 0, 74, 64
7, 210576, Note_off_c, 0, 74, 64
7, 210588, Note_off_c, 0, 70, 64
7, 210588, Note_on_c, 0, 74, 64
7, 210588, Note_on_c, 0, 70, 64
7, 210596, Note_off_c, 0, 65, 64
7, 210596, Note_on_c, 0, 65, 64
7, 210772, Note_off_c, 0, 58, 64
7, 210772, Note_on_c, 0, 58, 64
7, 210784, Note_off_c, 0, 65, 64
7, 210784, Note_on_c, 0, 65, 64
7, 210792, Note_off_c, 0, 70, 64
7, 210792, Note_on_c, 0, 70, 64
7, 210808, Note_off_c, 0, 74, 64
7, 210808, Note_on_c, 0, 74, 64
7, 210908, Note_off_c, 0, 70, 64
7, 210908, Note_on_c, 0, 70, 64
7, 210972, Note_off_c, 0, 70, 64
7, 210972, Note_on_c, 0, 69, 64
7, 211004, Note_off_c, 0, 74, 64
7, 211008, Note_off_c, 0, 69, 64
7, 211008, Note_on_c, 0, 72, 64
7, 211008, Note_on_c, 0, 67, 64
7, 211040, Note_off_c, 0, 72, 64
7, 211040, Note_on_c, 0, 72, 64
7, 211056, Note_off_c, 0, 65, 64
7, 211064, Note_off_c, 0, 67, 64
7, 211064, Note_on_c, 0, 63, 64
7, 211064, Note_on_c, 0, 67, 64
7, 211200, Note_off_c, 0, 63, 64
7, 211200, Note_on_c, 0, 65, 64
7, 211236, Note_off_c, 0, 67, 64
7, 211236, Note_on_c, 0, 69, 64
7, 211240, Note_off_c, 0, 58, 64
7, 211240, Note_on_c, 0, 60, 64
7, 211268, Note_off_c, 0, 53, 64
7, 211268, Note_on_c, 0, 53, 64
7, 211284, Note_off_c, 0, 60, 64
7, 211284, Note_on_c, 0, 60, 64
7, 211304, Note_off_c, 0, 65, 64
7, 211304, Note_on_c, 0, 65, 64
7, 211320, Note_off_c, 0, 69, 64
7, 211320, Note_on_c, 0, 69, 64
7, 211328, Note_off_c, 0, 72, 64
7, 211328, Note_on_c, 0, 72, 64
7, 211528, Note_off_c, 0, 72, 64
7, 211528, Note_on_c, 0, 72, 64
7, 211544, Note_off_c, 0, 69, 64
7, 211544, Note_on_c, 0, 69, 64
7, 211548, Note_off_c, 0, 65, 64
7, 211548, Note_on_c, 0, 65, 64
7, 211740, Note_off_c, 0, 53, 64
7, 211744, Note_on_c, 0, 53, 64
7, 211748, Note_off_c, 0, 60, 64
7, 211748, Note_on_c, 0, 60, 64
7, 211760, Note_off_c, 0, 65, 64
7, 211760, Note_on_c, 0, 65, 64
7, 211772, Note_off_c, 0, 69, 64
7, 211772, Note_on_c, 0, 69, 64
7, 211796, Note_off_c, 0, 72, 64
7, 211796, Note_on_c, 0, 72, 64
7, 211988, Note_off_c, 0, 69, 64
7, 211988, Note_off_c, 0, 72, 64
7, 211988, Note_on_c, 0, 67, 64
7, 211988, Note_on_c, 0, 72, 64
7, 212000, Note_off_c, 0, 67, 64
7, 212000, Note_on_c, 0, 67, 64
7, 212020, Note_off_c, 0, 65, 64
7, 212020, Note_on_c, 0, 65, 64
7, 212040, Note_off_c, 0, 65, 64
7, 212040, Note_on_c, 0, 63, 64
7, 212052, Note_off_c, 0, 60, 64
7, 212052, Note_on_c, 0, 58, 64
7, 212180, Note_off_c, 0, 63, 64
7, 212184, Note_off_c, 0, 58, 64
7, 212184, Note_on_c, 0, 65, 64
7, 212184, Note_on_c, 0, 60, 64
7, 212204, Note_off_c, 0, 67, 64
7, 212204, Note_on_c, 0, 69, 64
7, 212228, Note_off_c, 0, 53, 64
7, 212236, Note_on_c, 0, 53, 64
7, 212244, Note_off_c, 0, 60, 64
7, 212244, Note_on_c, 0, 60, 64
7, 212256, Note_off_c, 0, 65, 64
7, 212256, Note_on_c, 0, 65, 64
7, 212268, Note_off_c, 0, 69, 64
7, 212268, Note_on_c, 0, 69, 64
7, 212484, Note_off_c, 0, 72, 64
7, 212484, Note_on_c, 0, 72, 64
7, 212492, Note_off_c, 0, 69, 64
7, 212492, Note_on_c, 0, 69, 64
7, 212508, Note_off_c, 0, 65, 64
7, 212508, Note_on_c, 0, 65, 64
7, 212692, Note_off_c, 0, 60, 64
7, 212692, Note_on_c, 0, 60, 64
7, 212708, Note_off_c, 0, 65, 64
7, 212708, Note_on_c, 0, 65, 64
7, 212716, Note_off_c, 0, 69, 64
7, 212716, Note_on_c, 0, 69, 64
7, 212724, Note_off_c, 0, 72, 64
7, 212724, Note_on_c, 0, 72, 64
7, 212892, Note_off_c, 0, 69, 64
7, 212892, Note_on_c, 0, 67, 64
7, 212920, Note_off_c, 0, 65, 64
7, 212920, Note_on_c, 0, 63, 64
7, 212940, Note_off_c, 0, 60, 64
7, 212948, Note_on_c, 0, 58, 64
7, 212952, Note_off_c, 0, 72, 64
7, 212952, Note_on_c, 0, 72, 64
7, 212960, Note_off_c, 0, 67, 64
7, 212960, Note_on_c, 0, 67, 64
7, 213004, Note_off_c, 0, 72, 64
7, 213012, Note_on_c, 0, 75, 64
7, 213140, Note_off_c, 0, 53, 64
7, 213140, Note_on_c, 0, 55, 64
7, 213172, Note_off_c, 0, 55, 64
7, 213172, Note_on_c, 0, 55, 64
7, 213184, Note_off_c, 0, 58, 64
7, 213184, Note_on_c, 0, 58, 64
7, 213204, Note_off_c, 0, 63, 64
7, 213204, Note_on_c, 0, 63, 64
7, 213212, Note_off_c, 0, 67, 64
7, 213212, Note_on_c, 0, 67, 64
7, 213228, Note_off_c, 0, 75, 64
7, 213228, Note_on_c, 0, 75, 64
7, 213424, Note_off_c, 0, 75, 64
7, 213424, Note_on_c, 0, 75, 64
7, 213440, Note_off_c, 0, 67, 64
7, 213440, Note_on_c, 0, 67, 64
7, 213660, Note_off_c, 0, 55, 64
7, 213664, Note_on_c, 0, 55, 64
7, 213672, Note_off_c, 0, 58, 64
7, 213672, Note_on_c, 0, 58, 64
7, 213684, Note_off_c, 0, 63, 64
7, 213684, Note_on_c, 0, 63, 64
7, 213696, Note_off_c, 0, 67, 64
7, 213696, Note_on_c, 0, 67, 64
7, 213704, Note_off_c, 0, 75, 64
7, 213704, Note_on_c, 0, 75, 64
7, 213920, Note_off_c, 0, 75, 64
7, 213920, Note_on_c, 0, 75, 64
7, 213936, Note_off_c, 0, 67, 64
7, 213936, Note_on_c, 0, 67, 64
7, 213948, Note_off_c, 0, 55, 64
7, 213948, Note_off_c, 0, 63, 64
7, 213948, Note_on_c, 0, 53, 64
7, 213948, Note_on_c, 0, 63, 64
7, 213960, Note_off_c, 0, 58, 64
7, 213960, Note_on_c, 0, 58, 64
7, 214096, Note_off_c, 0, 53, 64
7, 214096, Note_on_c, 0, 55, 64
7, 214144, Note_off_c, 0, 55, 64
7, 214144, Note_on_c, 0, 55, 64
7, 214152, Note_off_c, 0, 58, 64
7, 214152, Note_on_c, 0, 58, 64
7, 214156, Note_off_c, 0, 63, 64
7, 214156, Note_on_c, 0, 63, 64
7, 214172, Note_off_c, 0, 67, 64
7, 214172, Note_on_c, 0, 67, 64
7, 214184, Note_off_c, 0, 75, 64
7, 214188, Note_on_c, 0, 75, 64
7, 214420, Note_off_c, 0, 75, 64
7, 214420, Note_on_c, 0, 75, 64
7, 214432, Note_off_c, 0, 67, 64
7, 214440, Note_on_c, 0, 67, 64
7, 214624, Note_off_c, 0, 58, 64
7, 214624, Note_on_c, 0, 58, 64
7, 214640, Note_off_c, 0, 63, 64
7, 214640, Note_on_c, 0, 63, 64
7, 214648, Note_off_c, 0, 67, 64
7, 214648, Note_on_c, 0, 67, 64
7, 214660, Note_off_c, 0, 75, 64
7, 214664, Note_on_c, 0, 75, 64
7, 214772, Note_off_c, 0, 55, 64
7, 214776, Note_on_c, 0, 53, 64
7, 214896, Note_off_c, 0, 75, 64
7, 214896, Note_on_c, 0, 75, 64
7, 214900, Note_off_c, 0, 67, 64
7, 214900, Note_off_c, 0, 75, 64
7, 214900, Note_on_c, 0, 72, 64
7, 214900, Note_on_c, 0, 67, 64
7, 215068, Note_on_c, 0, 65, 64
7, 215076, Note_off_c, 0, 63, 64
7, 215092, Note_on_c, 0, 70, 64
7, 215092, Note_on_c, 0, 53, 64
7, 215092, Note_on_c, 0, 74, 64
7, 215100, Note_on_c, 0, 58, 64
7, 215108, Note_off_c, 0, 67, 64
7, 215108, Note_off_c, 0, 65, 64
7, 215116, Note_off_c, 0, 58, 64
7, 215116, Note_off_c, 0, 70, 64
7, 215116, Note_on_c, 0, 65, 64
7, 215116, Note_on_c, 0, 70, 64
7, 215124, Note_off_c, 0, 74, 64
7, 215128, Note_off_c, 0, 72, 64
7, 215132, Note_on_c, 0, 74, 64
7, 215196, Note_off_c, 0, 53, 64
7, 215200, Note_on_c, 0, 53, 64
7, 215244, Note_off_c, 0, 74, 64
7, 215244, Note_on_c, 0, 74, 64
7, 216268, Note_off_c, 0, 53, 64
7, 216304, Note_off_c, 0, 74, 64
7, 216304, Note_on_c, 0, 72, 64
7, 216340, Note_off_c, 0, 65, 64
7, 216340, Note_on_c, 0, 63, 64
7, 216488, Note_off_c, 0, 58, 64
7, 216488, Note_on_c, 0, 58, 64
7, 216572, Note_off_c, 0, 63, 64
7, 216572, Note_on_c, 0, 63, 64
7, 216588, Note_off_c, 0, 70, 64
7, 216588, Note_on_c, 0, 70, 64
7, 216604, Note_off_c, 0, 72, 64
7, 216604, Note_on_c, 0, 72, 64
7, 216696, Note_off_c, 0, 53, 64
7, 216716, Note_off_c, 0, 70, 64
7, 216716, Note_on_c, 0, 70, 64
7, 217124, Note_off_c, 0, 63, 64
7, 217128, Note_on_c, 0, 65, 64
7, 217136, Note_off_c, 0, 72, 64
7, 217136, Note_on_c, 0, 74, 64
7, 217172, Note_on_c, 0, 53, 64
7, 217208, Note_off_c, 0, 58, 64
7, 217208, Note_on_c, 0, 58, 64
7, 217260, Note_off_c, 0, 65, 64
7, 217260, Note_on_c, 0, 65, 64
7, 217312, Note_off_c, 0, 70, 64
7, 217312, Note_on_c, 0, 70, 64
7, 217344, Note_off_c, 0, 74, 64
7, 217344, Note_on_c, 0, 74, 64
7, 217420, Note_off_c, 0, 70, 64
7, 217420, Note_on_c, 0, 70, 64
7, 218668, Note_off_c, 0, 53, 64
7, 218704, Note_off_c, 0, 58, 64
7, 218756, Note_off_c, 0, 65, 64
7, 218840, Note_off_c, 0, 74, 64
7, 218920, Note_off_c, 0, 70, 64
7, 218920, End_track
8, 0, Start_track
8, 0, MIDI_port, 0
8, 0, Channel_prefix, 4
8, 0, Control_c, 4, 7, 100
8, 0, Control_c, 4, 10, 90
8, 0, Program_c, 4, 66
8, 0, Control_c, 4, 121, 0
8, 17, Control_c, 4, 91, 90
8, 17, Control_c, 4, 93, 75
8, 21, Control_c, 4, 11, 127
8, 26216, Note_on_c, 4, 65, 115
8, 26380, Note_off_c, 4, 65, 64
8, 26420, Note_on_c, 4, 65, 115
8, 26656, Note_off_c, 4, 65, 64
8, 26920, Note_on_c, 4, 65, 115
8, 27300, Note_off_c, 4, 65, 64
8, 27324, Note_on_c, 4, 63, 115
8, 27604, Note_off_c, 4, 63, 64
8, 27756, Note_on_c, 4, 62, 115
8, 28240, Note_on_c, 4, 58, 115
8, 28268, Note_off_c, 4, 62, 64
8, 28864, Note_on_c, 4, 65, 115
8, 28904, Note_off_c, 4, 58, 64
8, 29008, Note_off_c, 4, 65, 64
8, 29112, Note_on_c, 4, 65, 115
8, 29224, Note_off_c, 4, 65, 64
8, 29272, Note_on_c, 4, 65, 115
8, 29488, Note_off_c, 4, 65, 64
8, 29520, Note_on_c, 4, 63, 115
8, 30188, Note_off_c, 4, 63, 64
8, 30216, Note_on_c, 4, 62, 115
8, 30540, Note_on_c, 4, 58, 115
8, 30668, Note_off_c, 4, 62, 64
8, 31920, Note_off_c, 4, 58, 64
8, 33868, Note_on_c, 4, 65, 115
8, 34044, Note_off_c, 4, 65, 64
8, 34128, Note_on_c, 4, 65, 115
8, 34448, Note_off_c, 4, 65, 64
8, 34580, Note_on_c, 4, 63, 115
8, 34956, Note_off_c, 4, 63, 64
8, 35012, Note_on_c, 4, 63, 115
8, 35296, Note_off_c, 4, 63, 64
8, 35348, Note_on_c, 4, 61, 115
8, 35844, Note_off_c, 4, 61, 64
8, 35848, Note_on_c, 4, 58, 115
8, 36520, Note_on_c, 4, 65, 115
8, 36552, Note_off_c, 4, 58, 64
8, 36680, Note_off_c, 4, 65, 64
8, 36768, Note_on_c, 4, 65, 115
8, 36956, Note_off_c, 4, 65, 64
8, 37008, Note_on_c, 4, 65, 115
8, 37236, Note_on_c, 4, 63, 115
8, 37248, Note_off_c, 4, 65, 64
8, 37696, Note_off_c, 4, 63, 64
8, 37952, Note_on_c, 4, 61, 115
8, 38348, Note_off_c, 4, 61, 64
8, 38384, Note_on_c, 4, 58, 115
8, 39380, Note_off_c, 4, 58, 64
8, 41580, Note_on_c, 4, 62, 115
8, 41756, Note_off_c, 4, 62, 64
8, 41816, Note_on_c, 4, 62, 115
8, 42152, Note_off_c, 4, 62, 64
8, 42272, Note_on_c, 4, 60, 115
8, 42568, Note_off_c, 4, 60, 64
8, 42752, Note_on_c, 4, 60, 115
8, 42976, Note_off_c, 4, 60, 64
8, 43024, Note_on_c, 4, 60, 115
8, 43432, Note_off_c, 4, 60, 64
8, 43616, Note_on_c, 4, 60, 115
8, 43944, Note_off_c, 4, 60, 64
8, 43964, Note_on_c, 4, 60, 115
8, 44156, Note_on_c, 4, 61, 115
8, 44268, Note_off_c, 4, 60, 64
8, 44456, Note_off_c, 4, 61, 64
8, 44480, Note_on_c, 4, 61, 115
8, 44840, Note_off_c, 4, 61, 64
8, 44920, Note_on_c, 4, 61, 115
8, 45356, Note_off_c, 4, 61, 64
8, 45388, Note_on_c, 4, 60, 115
8, 45648, Note_on_c, 4, 58, 115
8, 45844, Note_off_c, 4, 60, 64
8, 45896, Note_off_c, 4, 58, 64
8, 45992, Note_on_c, 4, 58, 115
8, 47920, Note_off_c, 4, 58, 64
8, 49264, Note_on_c, 4, 65, 115
8, 49432, Note_off_c, 4, 65, 64
8, 49500, Note_on_c, 4, 65, 115
8, 49676, Note_off_c, 4, 65, 64
8, 49756, Note_on_c, 4, 65, 115
8, 49868, Note_off_c, 4, 65, 64
8, 49904, Note_on_c, 4, 65, 115
8, 50468, Note_on_c, 4, 63, 115
8, 50516, Note_off_c, 4, 65, 64
8, 50908, Note_on_c, 4, 62, 115
8, 50984, Note_off_c, 4, 63, 64
8, 51356, Note_off_c, 4, 62, 64
8, 51360, Note_on_c, 4, 58, 115
8, 51676, Note_off_c, 4, 58, 64
8, 51700, Note_on_c, 4, 65, 115
8, 51840, Note_off_c, 4, 65, 64
8, 51960, Note_on_c, 4, 65, 115
8, 52284, Note_off_c, 4, 65, 64
8, 52352, Note_on_c, 4, 65, 115
8, 52748, Note_off_c, 4, 65, 64
8, 52756, Note_on_c, 4, 63, 115
8, 53340, Note_on_c, 4, 62, 115
8, 53388, Note_off_c, 4, 63, 64
8, 53708, Note_off_c, 4, 62, 64
8, 53756, Note_on_c, 4, 58, 115
8, 56268, Note_off_c, 4, 58, 64
8, 56872, Note_on_c, 4, 65, 115
8, 57048, Note_off_c, 4, 65, 64
8, 57476, Note_on_c, 4, 63, 115
8, 58048, Note_off_c, 4, 63, 64
8, 58116, Note_on_c, 4, 63, 115
8, 58580, Note_off_c, 4, 63, 64
8, 58644, Note_on_c, 4, 61, 115
8, 58868, Note_on_c, 4, 58, 115
8, 58980, Note_off_c, 4, 61, 64
8, 59564, Note_on_c, 4, 65, 115
8, 59596, Note_off_c, 4, 58, 64
8, 59748, Note_off_c, 4, 65, 64
8, 59860, Note_on_c, 4, 65, 115
8, 60356, Note_on_c, 4, 63, 115
8, 60400, Note_off_c, 4, 65, 64
8, 60948, Note_on_c, 4, 61, 115
8, 61048, Note_off_c, 4, 63, 64
8, 61320, Note_on_c, 4, 58, 115
8, 61396, Note_off_c, 4, 61, 64
8, 64040, Note_off_c, 4, 58, 64
8, 64620, Note_on_c, 4, 62, 115
8, 64796, Note_off_c, 4, 62, 64
8, 64856, Note_on_c, 4, 62, 115
8, 65192, Note_off_c, 4, 62, 64
8, 65312, Note_on_c, 4, 60, 115
8, 65608, Note_off_c, 4, 60, 64
8, 65792, Note_on_c, 4, 60, 115
8, 66016, Note_off_c, 4, 60, 64
8, 66064, Note_on_c, 4, 60, 115
8, 66472, Note_off_c, 4, 60, 64
8, 66656, Note_on_c, 4, 60, 115
8, 66984, Note_off_c, 4, 60, 64
8, 67004, Note_on_c, 4, 60, 115
8, 67196, Note_on_c, 4, 61, 115
8, 67308, Note_off_c, 4, 60, 64
8, 67496, Note_off_c, 4, 61, 64
8, 67520, Note_on_c, 4, 61, 115
8, 67880, Note_off_c, 4, 61, 64
8, 67960, Note_on_c, 4, 61, 115
8, 68396, Note_off_c, 4, 61, 64
8, 68428, Note_on_c, 4, 60, 115
8, 68688, Note_on_c, 4, 58, 115
8, 68884, Note_off_c, 4, 60, 64
8, 68936, Note_off_c, 4, 58, 64
8, 69032, Note_on_c, 4, 58, 115
8, 70960, Note_off_c, 4, 58, 64
8, 95380, Note_on_c, 4, 65, 115
8, 95728, Note_off_c, 4, 65, 64
8, 95740, Note_on_c, 4, 65, 115
8, 95948, Note_off_c, 4, 65, 64
8, 96032, Note_on_c, 4, 65, 115
8, 96544, Note_on_c, 4, 63, 115
8, 96592, Note_off_c, 4, 65, 64
8, 97008, Note_on_c, 4, 62, 115
8, 97064, Note_off_c, 4, 63, 64
8, 97312, Note_on_c, 4, 58, 115
8, 97388, Note_off_c, 4, 62, 64
8, 97892, Note_off_c, 4, 58, 64
8, 97952, Note_on_c, 4, 65, 115
8, 98144, Note_off_c, 4, 65, 64
8, 98216, Note_on_c, 4, 65, 115
8, 98560, Note_off_c, 4, 65, 64
8, 98740, Note_on_c, 4, 63, 115
8, 99304, Note_off_c, 4, 63, 64
8, 99432, Note_on_c, 4, 62, 115
8, 99636, Note_on_c, 4, 58, 115
8, 99764, Note_off_c, 4, 62, 64
8, 100652, Note_off_c, 4, 58, 64
8, 103000, Note_on_c, 4, 65, 115
8, 103200, Note_off_c, 4, 65, 64
8, 103252, Note_on_c, 4, 65, 115
8, 103584, Note_off_c, 4, 65, 64
8, 103700, Note_on_c, 4, 63, 115
8, 104152, Note_off_c, 4, 63, 64
8, 104156, Note_on_c, 4, 63, 115
8, 104604, Note_off_c, 4, 63, 64
8, 104712, Note_on_c, 4, 61, 115
8, 104992, Note_on_c, 4, 58, 115
8, 105112, Note_off_c, 4, 61, 64
8, 105640, Note_on_c, 4, 65, 115
8, 105704, Note_off_c, 4, 58, 64
8, 105868, Note_off_c, 4, 65, 64
8, 105920, Note_on_c, 4, 65, 115
8, 106388, Note_off_c, 4, 65, 64
8, 106428, Note_on_c, 4, 63, 115
8, 106992, Note_off_c, 4, 63, 64
8, 107024, Note_on_c, 4, 61, 115
8, 107300, Note_on_c, 4, 58, 115
8, 107460, Note_off_c, 4, 61, 64
8, 110084, Note_off_c, 4, 58, 64
8, 110712, Note_on_c, 4, 60, 115
8, 110920, Note_on_c, 4, 62, 115
8, 110988, Note_off_c, 4, 60, 64
8, 111260, Note_off_c, 4, 62, 64
8, 111444, Note_on_c, 4, 60, 115
8, 111780, Note_off_c, 4, 60, 64
8, 111868, Note_on_c, 4, 60, 115
8, 112068, Note_off_c, 4, 60, 64
8, 112160, Note_on_c, 4, 60, 115
8, 112612, Note_off_c, 4, 60, 64
8, 112704, Note_on_c, 4, 60, 115
8, 113108, Note_off_c, 4, 60, 64
8, 113168, Note_on_c, 4, 61, 115
8, 113696, Note_off_c, 4, 61, 64
8, 113756, Note_on_c, 4, 61, 115
8, 114188, Note_off_c, 4, 61, 64
8, 114256, Note_on_c, 4, 61, 115
8, 114488, Note_on_c, 4, 60, 115
8, 114644, Note_off_c, 4, 61, 64
8, 114748, Note_on_c, 4, 58, 115
8, 114828, Note_off_c, 4, 60, 64
8, 114964, Note_off_c, 4, 58, 64
8, 115128, Note_on_c, 4, 58, 115
8, 116240, Note_off_c, 4, 58, 64
8, 118392, Note_on_c, 4, 58, 115
8, 118552, Note_off_c, 4, 58, 64
8, 118632, Note_on_c, 4, 58, 115
8, 118852, Note_off_c, 4, 58, 64
8, 118984, Note_on_c, 4, 58, 115
8, 119140, Note_off_c, 4, 58, 64
8, 119152, Note_on_c, 4, 58, 115
8, 119312, Note_off_c, 4, 58, 64
8, 119472, Note_on_c, 4, 58, 115
8, 119772, Note_off_c, 4, 58, 64
8, 119812, Note_on_c, 4, 58, 115
8, 119968, Note_off_c, 4, 58, 64
8, 120052, Note_on_c, 4, 58, 115
8, 120292, Note_off_c, 4, 58, 64
8, 120412, Note_on_c, 4, 58, 115
8, 120600, Note_off_c, 4, 58, 64
8, 120660, Note_on_c, 4, 58, 115
8, 120880, Note_off_c, 4, 58, 64
8, 120960, Note_on_c, 4, 58, 115
8, 121224, Note_off_c, 4, 58, 64
8, 121356, Note_on_c, 4, 58, 115
8, 121548, Note_off_c, 4, 58, 64
8, 121584, Note_on_c, 4, 58, 115
8, 121720, Note_off_c, 4, 58, 64
8, 121876, Note_on_c, 4, 58, 115
8, 122368, Note_off_c, 4, 58, 64
8, 123068, Note_on_c, 4, 58, 115
8, 123308, Note_off_c, 4, 58, 64
8, 123328, Note_on_c, 4, 58, 115
8, 123588, Note_off_c, 4, 58, 64
8, 123908, Note_on_c, 4, 58, 115
8, 124148, Note_off_c, 4, 58, 64
8, 124356, Note_on_c, 4, 58, 115
8, 124624, Note_off_c, 4, 58, 64
8, 124800, Note_on_c, 4, 58, 115
8, 125068, Note_off_c, 4, 58, 64
8, 125092, Note_on_c, 4, 58, 115
8, 125240, Note_off_c, 4, 58, 64
8, 125332, Note_on_c, 4, 58, 115
8, 125544, Note_off_c, 4, 58, 64
8, 125720, Note_on_c, 4, 58, 115
8, 126176, Note_off_c, 4, 58, 64
8, 126176, Note_on_c, 4, 61, 115
8, 126672, Note_off_c, 4, 61, 64
8, 127052, Note_on_c, 4, 65, 115
8, 127460, Note_on_c, 4, 63, 115
8, 127480, Note_off_c, 4, 65, 64
8, 127736, Note_on_c, 4, 61, 115
8, 127860, Note_off_c, 4, 63, 64
8, 128056, Note_on_c, 4, 58, 115
8, 128104, Note_off_c, 4, 61, 64
8, 128736, Note_off_c, 4, 58, 64
8, 128932, Note_on_c, 4, 65, 115
8, 129152, Note_on_c, 4, 63, 115
8, 129312, Note_off_c, 4, 65, 64
8, 129568, Note_on_c, 4, 61, 115
8, 129732, Note_off_c, 4, 63, 64
8, 129868, Note_on_c, 4, 58, 115
8, 130044, Note_off_c, 4, 61, 64
8, 130196, Note_off_c, 4, 58, 64
8, 130580, Note_on_c, 4, 50, 115
8, 131432, Note_off_c, 4, 50, 64
8, 133780, Note_on_c, 4, 62, 115
8, 134228, Note_off_c, 4, 62, 64
8, 134432, Note_on_c, 4, 60, 115
8, 134832, Note_off_c, 4, 60, 64
8, 134916, Note_on_c, 4, 60, 115
8, 135156, Note_off_c, 4, 60, 64
8, 135216, Note_on_c, 4, 60, 115
8, 135776, Note_off_c, 4, 60, 64
8, 135792, Note_on_c, 4, 60, 115
8, 136260, Note_off_c, 4, 60, 64
8, 136312, Note_on_c, 4, 61, 115
8, 136596, Note_off_c, 4, 61, 64
8, 136756, Note_on_c, 4, 61, 115
8, 137000, Note_off_c, 4, 61, 64
8, 137040, Note_on_c, 4, 61, 115
8, 137492, Note_on_c, 4, 60, 115
8, 137548, Note_off_c, 4, 61, 64
8, 137860, Note_on_c, 4, 58, 115
8, 137944, Note_off_c, 4, 60, 64
8, 138188, Note_off_c, 4, 58, 64
8, 138240, Note_on_c, 4, 58, 115
8, 140264, Note_off_c, 4, 58, 64
8, 163660, Note_on_c, 4, 60, 115
8, 163944, Note_on_c, 4, 62, 115
8, 164092, Note_off_c, 4, 60, 64
8, 164460, Note_off_c, 4, 62, 64
8, 164480, Note_on_c, 4, 60, 115
8, 164704, Note_on_c, 4, 58, 115
8, 164768, Note_off_c, 4, 60, 64
8, 165044, Note_off_c, 4, 58, 64
8, 165168, Note_on_c, 4, 58, 115
8, 165460, Note_on_c, 4, 55, 115
8, 165548, Note_off_c, 4, 58, 64
8, 167480, Note_off_c, 4, 55, 64
8, 167540, Note_on_c, 4, 58, 115
8, 167804, Note_on_c, 4, 60, 115
8, 167812, Note_off_c, 4, 58, 64
8, 168252, Note_off_c, 4, 60, 64
8, 168304, Note_on_c, 4, 58, 115
8, 168524, Note_on_c, 4, 60, 115
8, 168588, Note_off_c, 4, 58, 64
8, 168916, Note_off_c, 4, 60, 64
8, 168960, Note_on_c, 4, 62, 115
8, 171308, Note_off_c, 4, 62, 64
8, 171324, Note_on_c, 4, 60, 115
8, 171568, Note_off_c, 4, 60, 64
8, 171648, Note_on_c, 4, 62, 115
8, 172140, Note_on_c, 4, 60, 115
8, 172176, Note_off_c, 4, 62, 64
8, 172344, Note_on_c, 4, 62, 115
8, 172424, Note_off_c, 4, 60, 64
8, 172764, Note_off_c, 4, 62, 64
8, 172836, Note_on_c, 4, 65, 115
8, 173732, Note_on_c, 4, 60, 115
8, 173780, Note_off_c, 4, 65, 64
8, 174852, Note_off_c, 4, 60, 64
8, 174988, Note_on_c, 4, 61, 115
8, 175456, Note_off_c, 4, 61, 64
8, 175540, Note_on_c, 4, 61, 115
8, 176016, Note_on_c, 4, 60, 115
8, 176120, Note_off_c, 4, 61, 64
8, 176176, Note_on_c, 4, 58, 115
8, 176292, Note_off_c, 4, 60, 64
8, 176568, Note_off_c, 4, 58, 64
8, 176712, Note_on_c, 4, 58, 115
8, 178296, Note_off_c, 4, 58, 64
8, 178296, End_track
9, 0, Start_track
9, 0, MIDI_port, 0
9, 0, End_track
0, 0, End_of_file
